<?xml version="1.0" encoding="UTF-8" standalone="no"?>
<svg xmlns:xlink="http://www.w3.org/1999/xlink" height="4.6px" width="4.65px" xmlns="http://www.w3.org/2000/svg">
  <g transform="matrix(1.0, 0.0, 0.0, 1.0, 4.25, 2.35)">
    <path d="M-3.0 -0.05 Q-3.0 0.4 -2.7 0.7 -2.35 1.0 -1.95 1.0 -1.5 1.0 -1.2 0.7 -0.85 0.4 -0.85 -0.05 -0.85 -0.5 -1.2 -0.8 -1.5 -1.1 -1.95 -1.1 -2.35 -1.1 -2.7 -0.8 -3.0 -0.5 -3.0 -0.05" fill="#ffb600" fill-rule="evenodd" stroke="none">
      <animate attributeName="fill" dur="2s" repeatCount="indefinite" values="#ffb600;#ffb601"/>
      <animate attributeName="fill-opacity" dur="2s" repeatCount="indefinite" values="1.0;0.6784314"/>
      <animate attributeName="d" dur="2s" repeatCount="indefinite" values="M-3.0 -0.05 Q-3.0 0.4 -2.7 0.7 -2.35 1.0 -1.95 1.0 -1.5 1.0 -1.2 0.7 -0.85 0.4 -0.85 -0.05 -0.85 -0.5 -1.2 -0.8 -1.5 -1.1 -1.95 -1.1 -2.35 -1.1 -2.7 -0.8 -3.0 -0.5 -3.0 -0.05;M-4.25 -0.05 Q-4.25 0.9 -3.6 1.6 -2.9 2.25 -1.95 2.25 -1.0 2.25 -0.3 1.6 0.4 0.9 0.4 -0.05 0.4 -1.0 -0.3 -1.7 -1.0 -2.35 -1.95 -2.35 -2.9 -2.35 -3.6 -1.7 -4.25 -1.0 -4.25 -0.05"/>
    </path>
    <path d="M-3.0 -0.05 Q-3.0 -0.5 -2.7 -0.8 -2.35 -1.1 -1.95 -1.1 -1.5 -1.1 -1.2 -0.8 -0.85 -0.5 -0.85 -0.05 -0.85 0.4 -1.2 0.7 -1.5 1.0 -1.95 1.0 -2.35 1.0 -2.7 0.7 -3.0 0.4 -3.0 -0.05" fill="none" stroke="#000000" stroke-linecap="round" stroke-linejoin="round" stroke-opacity="0.0" stroke-width="1.0">
      <animate attributeName="stroke" dur="2s" repeatCount="indefinite" values="#000000;#000001"/>
      <animate attributeName="stroke-width" dur="2s" repeatCount="indefinite" values="0.0;0.0"/>
      <animate attributeName="fill-opacity" dur="2s" repeatCount="indefinite" values="0.0;0.0"/>
      <animate attributeName="d" dur="2s" repeatCount="indefinite" values="M-3.0 -0.05 Q-3.0 -0.5 -2.7 -0.8 -2.35 -1.1 -1.95 -1.1 -1.5 -1.1 -1.2 -0.8 -0.85 -0.5 -0.85 -0.05 -0.85 0.4 -1.2 0.7 -1.5 1.0 -1.95 1.0 -2.35 1.0 -2.7 0.7 -3.0 0.4 -3.0 -0.05;M-4.25 -0.05 Q-4.25 -1.0 -3.6 -1.7 -2.9 -2.35 -1.95 -2.35 -1.0 -2.35 -0.3 -1.7 0.4 -1.0 0.4 -0.05 0.4 0.9 -0.3 1.6 -1.0 2.25 -1.95 2.25 -2.9 2.25 -3.6 1.6 -4.25 0.9 -4.25 -0.05"/>
    </path>
  </g>
</svg>
