<?xml version="1.0" encoding="UTF-8" standalone="no"?>
<svg xmlns:xlink="http://www.w3.org/1999/xlink" height="12.4px" width="13.1px" xmlns="http://www.w3.org/2000/svg">
  <g transform="matrix(1.0, 0.0, 0.0, 1.0, 6.55, 6.2)">
    <path d="M0.55 -5.85 L0.55 -5.5 Q0.55 -5.4 0.55 -5.25 L0.25 -5.5 0.05 -4.95 Q-0.05 -4.6 0.0 -4.35 0.15 -3.35 -0.1 -2.7 -0.3 -2.8 -0.6 -2.8 L-1.15 -2.75 -1.3 -3.85 -0.75 -3.9 -1.35 -4.3 -0.6 -4.55 -0.65 -4.9 Q-0.45 -5.1 -0.65 -5.1 -0.85 -5.15 -0.75 -4.95 L-1.1 -5.05 -0.85 -5.0 -0.8 -5.65 Q-0.75 -6.05 -1.1 -6.1 L-1.2 -6.1 -0.8 -6.1 -1.2 -6.1 -0.8 -6.1 Q-0.75 -5.9 -0.55 -5.8 L-0.2 -5.6 -0.05 -5.5 0.45 -5.85 0.55 -5.9 0.55 -5.85 M-1.5 -1.2 L-1.95 -0.9 -2.5 -1.05 -2.6 -1.3 -2.3 -1.4 -1.9 -1.5 -1.95 -1.45 -2.05 -1.25 -1.5 -1.2 M-4.05 -3.0 L-4.0 -2.85 -4.0 -2.8 -3.95 -2.55 -4.4 -2.5 Q-4.35 -2.85 -4.6 -3.1 L-4.65 -3.1 -4.05 -3.1 -4.05 -3.0 M3.1 -1.65 Q3.65 -1.45 4.55 -0.95 5.5 -0.45 6.0 -0.25 6.25 -0.15 6.45 0.0 L4.35 -0.1 Q3.95 -0.15 3.35 -0.1 L2.3 0.0 Q2.6 -0.85 3.1 -1.65 M-1.35 0.5 L-1.55 0.5 Q-1.5 0.2 -1.35 0.5 M-1.1 1.2 L-0.8 0.9 Q-0.3 1.1 0.05 1.35 L-0.15 1.9 0.3 1.9 0.25 1.65 Q0.55 1.7 0.7 1.9 L-0.05 2.55 Q-0.45 1.8 -0.9 1.4 -0.9 1.7 -0.55 2.1 L-1.2 2.25 -1.55 1.7 -1.2 1.55 -0.95 1.45 -1.1 1.2 M-4.1 1.9 L-3.65 1.95 -3.65 2.1 Q-4.0 2.3 -4.2 2.35 L-4.1 1.9 M-5.0 2.85 L-5.15 2.4 -4.45 2.4 -5.0 2.85 M-4.1 -0.65 L-3.45 -0.45 -4.2 -0.1 -4.45 0.0 -4.35 -0.4 -4.1 -0.65 M-0.8 -6.1 L-0.8 -6.1" fill="#6f5922" fill-rule="evenodd" stroke="none"/>
    <path d="M-0.1 -2.7 Q0.15 -3.35 0.0 -4.35 -0.05 -4.6 0.05 -4.95 L0.25 -5.5 0.55 -5.25 Q0.55 -5.4 0.55 -5.5 L0.55 -5.85 Q0.9 -5.7 1.15 -5.4 1.35 -5.15 1.5 -4.8 1.65 -4.0 1.5 -3.25 1.3 -2.5 0.75 -1.95 0.3 -1.5 -0.05 -1.3 -0.55 -0.95 -1.0 -0.85 L-1.65 -0.7 -2.3 -0.6 -2.4 -0.4 -2.6 -0.3 -2.65 -0.75 -2.75 -0.75 Q-3.95 -0.8 -4.6 -1.4 -4.7 -1.75 -4.65 -2.2 L-4.4 -2.5 -3.95 -2.55 -4.0 -2.8 -4.0 -2.85 -4.05 -3.0 -3.95 -3.0 Q-3.8 -2.9 -3.65 -2.8 L-3.65 -2.8 -3.55 -2.7 Q-3.35 -2.45 -3.5 -2.2 L-3.95 -1.85 -4.45 -1.55 Q-4.15 -1.45 -3.7 -1.45 L-3.9 -1.4 Q-3.25 -0.95 -2.5 -1.05 L-1.95 -0.9 -1.5 -1.2 Q-0.65 -1.55 -0.1 -2.7 M0.45 -5.85 L-0.05 -5.5 -0.2 -5.6 -0.15 -6.0 Q0.05 -6.25 0.45 -5.85 M-1.1 -5.05 L-0.75 -4.95 -0.65 -4.9 -0.6 -4.55 -1.35 -4.3 -0.75 -3.9 -1.3 -3.85 Q-1.55 -4.25 -2.1 -4.45 L-3.1 -4.8 Q-1.95 -5.2 -1.1 -5.05 M6.45 0.0 L5.25 0.6 Q4.45 0.95 4.05 1.2 L2.95 1.7 Q2.35 1.9 1.8 1.8 1.3 1.7 0.55 1.3 -0.3 0.85 -0.65 0.75 L-1.35 0.5 Q-1.5 0.2 -1.55 0.5 L-2.3 0.4 -2.35 0.7 -2.45 0.8 -2.75 0.25 -2.85 0.45 Q-2.85 0.45 -2.9 0.45 L-3.55 0.45 -3.6 0.45 -3.85 0.55 Q-4.5 0.7 -4.85 0.6 L-5.5 0.4 Q-5.85 0.25 -6.1 0.05 L-5.25 0.0 -4.45 0.0 -4.2 -0.1 -3.35 0.0 -2.45 0.0 -2.6 -0.15 -2.15 -0.15 -2.2 0.0 -1.75 0.0 -1.25 -0.05 Q0.55 0.05 2.3 0.0 L3.35 -0.1 Q3.95 -0.15 4.35 -0.1 L6.45 0.0 M0.7 1.9 Q1.15 2.35 1.35 2.95 1.6 3.55 1.55 4.2 1.6 4.95 1.0 5.5 0.5 6.05 -0.3 6.1 -1.0 6.15 -1.7 5.9 -2.35 5.6 -2.85 5.05 L-2.4 5.0 -1.9 5.0 -1.35 5.1 Q-1.0 5.1 -0.8 4.95 L-0.35 4.7 0.1 4.4 Q0.35 3.4 -0.05 2.55 L0.7 1.9 M-1.55 1.7 Q-2.0 1.4 -2.3 1.4 -2.45 2.05 -2.95 2.15 L-2.65 1.5 -2.8 1.45 -3.5 1.5 Q-3.9 1.6 -4.1 1.9 L-4.2 2.35 Q-4.0 2.3 -3.65 2.1 -3.45 2.1 -3.45 2.35 -3.45 2.6 -3.65 2.75 -3.9 3.05 -4.3 3.1 -4.65 3.1 -5.0 2.85 L-4.45 2.4 -4.45 1.9 Q-4.45 1.65 -4.3 1.5 -3.55 1.0 -2.65 1.0 L-1.8 1.05 Q-1.3 1.15 -1.05 1.5 L-1.2 1.55 -1.55 1.7 M-2.7 -2.0 Q-2.5 -1.95 -2.4 -1.75 L-2.3 -1.4 -2.6 -1.3 -2.7 -2.0" fill="#251b0a" fill-rule="evenodd" stroke="none"/>
    <path d="M-0.1 -2.7 Q-0.65 -1.55 -1.5 -1.2 L-2.05 -1.25 -1.95 -1.45 Q-1.15 -2.0 -1.15 -2.75 L-0.6 -2.8 Q-0.3 -2.8 -0.1 -2.7 M-2.5 -1.05 Q-3.25 -0.95 -3.9 -1.4 L-3.7 -1.45 Q-3.6 -1.5 -3.45 -1.4 L-2.85 -1.4 Q-2.9 -1.85 -3.1 -2.2 L-2.7 -2.05 -2.7 -2.0 -2.6 -1.3 -2.5 -1.05 M-4.4 -2.5 L-4.65 -2.2 -5.05 -1.95 -5.15 -2.35 Q-5.05 -2.95 -4.6 -3.1 -4.35 -2.85 -4.4 -2.5 M-2.75 -0.75 L-2.65 -0.75 -2.6 -0.3 -2.4 -0.4 Q-1.55 -0.4 -0.5 -0.8 L1.3 -1.65 Q1.65 -1.85 2.2 -1.85 2.6 -1.85 3.1 -1.65 2.6 -0.85 2.3 0.0 0.55 0.05 -1.25 -0.05 L-1.75 0.0 -2.2 0.0 -2.15 -0.15 -2.6 -0.15 -2.45 0.0 -3.35 0.0 -4.2 -0.1 -3.45 -0.45 -2.9 -0.4 -2.75 -0.75 M-0.2 -5.6 L-0.55 -5.8 Q-0.75 -5.9 -0.8 -6.1 L-0.45 -6.1 -0.8 -6.1 -0.8 -6.1 -0.45 -6.1 -0.3 -6.1 -0.15 -6.1 -0.15 -6.0 -0.2 -5.6 M-1.1 -6.1 Q-0.75 -6.05 -0.8 -5.65 L-0.85 -5.0 -1.1 -5.05 Q-1.95 -5.2 -3.1 -4.8 -2.4 -5.75 -1.1 -6.1 M-0.75 -4.95 Q-0.85 -5.15 -0.65 -5.1 -0.45 -5.1 -0.65 -4.9 L-0.75 -4.95 M-2.35 0.7 Q-1.85 0.65 -1.55 0.7 L-1.3 1.15 -1.15 0.75 -1.1 1.2 -0.95 1.45 -1.05 1.5 Q-1.3 1.15 -1.8 1.05 L-2.65 1.0 Q-3.55 1.0 -4.3 1.5 -4.45 1.65 -4.45 1.9 L-4.45 2.4 -5.15 2.4 Q-5.1 1.65 -4.4 1.2 -3.75 0.75 -2.9 0.75 L-2.85 0.45 -2.75 0.25 -2.45 0.8 -2.35 0.7 M-2.85 5.05 L-3.1 4.7 -2.25 4.55 Q-1.8 4.4 -1.5 4.1 -0.95 3.45 -1.2 2.25 L-0.55 2.1 Q-0.9 1.7 -0.9 1.4 -0.45 1.8 -0.05 2.55 0.35 3.4 0.1 4.4 L-0.35 4.7 -0.8 4.95 Q-1.0 5.1 -1.35 5.1 L-1.9 5.0 -2.4 5.0 -2.85 5.05 M-2.95 2.15 Q-3.0 1.9 -2.8 1.45 L-2.65 1.5 -2.95 2.15 M-6.1 0.05 L-6.45 0.0 -5.3 -0.5 Q-4.65 -0.75 -4.1 -0.65 L-4.35 -0.4 -4.45 0.0 -5.25 0.0 -6.1 0.05" fill="#dcd84a" fill-rule="evenodd" stroke="none"/>
    <path d="M-3.7 -1.45 Q-4.15 -1.45 -4.45 -1.55 L-3.95 -1.85 -3.5 -2.2 Q-3.35 -2.45 -3.55 -2.7 L-3.65 -2.8 -3.65 -2.8 Q-3.8 -2.9 -3.95 -3.0 L-4.05 -3.0 -4.05 -3.1 -4.65 -3.1 -4.6 -3.1 Q-5.05 -2.95 -5.15 -2.35 L-5.05 -1.95 -4.65 -2.2 Q-4.7 -1.75 -4.6 -1.4 -3.95 -0.8 -2.75 -0.75 L-2.9 -0.4 -3.45 -0.45 -4.1 -0.65 Q-4.65 -0.75 -5.3 -0.5 L-6.45 0.0 -6.1 0.05 Q-5.85 0.25 -5.5 0.4 L-4.85 0.6 Q-4.5 0.7 -3.85 0.55 L-3.6 0.45 -3.55 0.45 -2.9 0.45 Q-2.85 0.45 -2.85 0.45 L-2.9 0.75 Q-3.75 0.75 -4.4 1.2 -5.1 1.65 -5.15 2.4 L-5.0 2.85 Q-4.65 3.1 -4.3 3.1 -3.9 3.05 -3.65 2.75 -3.45 2.6 -3.45 2.35 -3.45 2.1 -3.65 2.1 L-3.65 1.95 -4.1 1.9 Q-3.9 1.6 -3.5 1.5 L-2.8 1.45 Q-3.0 1.9 -2.95 2.15 -2.45 2.05 -2.3 1.4 -2.0 1.4 -1.55 1.7 L-1.2 2.25 Q-0.95 3.45 -1.5 4.1 -1.8 4.4 -2.25 4.55 L-3.1 4.7 -2.85 5.05 Q-2.35 5.6 -1.7 5.9 -1.0 6.15 -0.3 6.1 0.5 6.05 1.0 5.5 1.6 4.95 1.55 4.2 1.6 3.55 1.35 2.95 1.15 2.35 0.7 1.9 0.55 1.7 0.25 1.65 L0.3 1.9 -0.15 1.9 0.05 1.35 Q-0.3 1.1 -0.8 0.9 L-1.1 1.2 -1.15 0.75 -1.3 1.15 -1.55 0.7 Q-1.85 0.65 -2.35 0.7 L-2.3 0.4 -1.55 0.5 -1.35 0.5 -0.65 0.75 Q-0.3 0.85 0.55 1.3 1.3 1.7 1.8 1.8 2.35 1.9 2.95 1.7 L4.05 1.2 Q4.45 0.95 5.25 0.6 L6.45 0.0 Q6.25 -0.15 6.0 -0.25 5.5 -0.45 4.55 -0.95 3.65 -1.45 3.1 -1.65 2.6 -1.85 2.2 -1.85 1.65 -1.85 1.3 -1.65 L-0.5 -0.8 Q-1.55 -0.4 -2.4 -0.4 L-2.3 -0.6 -1.65 -0.7 -1.0 -0.85 Q-0.55 -0.95 -0.05 -1.3 0.3 -1.5 0.75 -1.95 1.3 -2.5 1.5 -3.25 1.65 -4.0 1.5 -4.8 1.35 -5.15 1.15 -5.4 0.9 -5.7 0.55 -5.85 L0.55 -5.9 0.45 -5.85 Q0.05 -6.25 -0.15 -6.0 L-0.15 -6.1 -0.3 -6.1 -0.45 -6.1 -0.8 -6.1 -1.2 -6.1 -1.1 -6.1 Q-2.4 -5.75 -3.1 -4.8 L-2.1 -4.45 Q-1.55 -4.25 -1.3 -3.85 L-1.15 -2.75 Q-1.15 -2.0 -1.95 -1.45 L-1.9 -1.5 -2.3 -1.4 -2.4 -1.75 Q-2.5 -1.95 -2.7 -2.0 L-2.7 -2.05 -3.1 -2.2 Q-2.9 -1.85 -2.85 -1.4 L-3.45 -1.4 Q-3.6 -1.5 -3.7 -1.45 Z" fill="none" stroke="#000000" stroke-linecap="round" stroke-linejoin="round" stroke-opacity="0.4509804" stroke-width="0.2"/>
  </g>
</svg>
