<?xml version="1.0" encoding="UTF-8" standalone="no"?>
<svg xmlns:xlink="http://www.w3.org/1999/xlink" height="4.6px" width="4.95px" xmlns="http://www.w3.org/2000/svg">
  <g transform="matrix(1.0, 0.0, 0.0, 1.0, 2.45, 2.3)">
    <path d="M1.65 0.2 L1.55 0.2 1.45 0.15 1.4 0.15 Q1.3 0.1 1.3 0.05 L1.3 0.0 1.35 0.0 1.5 0.05 1.55 0.1 1.65 0.2" fill="#8cc7b3" fill-rule="evenodd" stroke="none"/>
    <path d="M0.55 -0.45 Q0.65 -0.3 0.75 -0.25 L0.9 -0.2 0.95 -0.2 1.2 -0.2 1.25 -0.1 1.05 -0.05 1.05 0.05 1.0 0.0 0.95 0.0 0.9 0.0 0.85 0.05 0.85 0.2 0.9 0.4 0.9 0.45 0.85 0.45 0.75 0.45 0.6 0.45 0.4 0.35 0.4 0.3 0.2 0.25 0.1 0.2 -0.05 0.2 -0.1 0.2 -0.2 0.25 -0.2 0.25 -0.25 0.15 Q-0.25 0.05 -0.3 0.05 L-0.65 0.15 -1.0 0.15 -1.0 0.15 -0.75 0.0 -0.55 -0.15 -0.4 -0.35 Q-0.35 -0.45 -0.25 -0.6 L-0.25 -0.6 -0.05 -0.75 0.05 -0.85 0.05 -0.9 Q0.1 -0.95 0.15 -0.95 L0.55 -0.45 M-0.25 0.3 L-0.3 0.35 -0.55 0.7 -0.6 0.75 -0.75 1.05 -0.85 1.05 -1.15 1.15 Q-1.2 1.2 -1.3 1.25 L-1.25 1.1 -1.05 0.85 -1.05 0.7 -0.95 0.6 Q-0.85 0.55 -0.7 0.5 L-0.6 0.5 -0.6 0.45 -0.4 0.35 -0.25 0.3" fill="#58642e" fill-rule="evenodd" stroke="none"/>
    <path d="M1.1 -1.25 L1.15 -1.25 Q1.3 -1.15 1.35 -0.9 L1.35 -0.9 1.1 -1.1 1.1 -1.1 0.9 -1.3 0.95 -1.3 1.1 -1.25 M1.0 -0.85 L1.0 -0.8 1.25 -0.65 1.25 -0.6 1.2 -0.5 1.05 -0.45 1.0 -0.45 0.95 -0.5 0.85 -0.65 Q0.75 -0.85 0.75 -1.0 L0.75 -1.0 Q0.8 -1.0 0.85 -0.95 L0.95 -0.85 1.0 -0.85 M0.8 -1.55 L0.8 -1.5 0.7 -1.5 0.65 -1.45 0.7 -1.3 0.5 -1.25 Q0.4 -1.25 0.4 -1.2 L0.5 -1.1 0.65 -0.9 0.8 -0.5 0.75 -0.45 0.6 -0.45 0.55 -0.45 0.15 -0.95 Q0.1 -0.95 0.05 -0.9 L-0.05 -0.8 -0.05 -0.75 -0.25 -0.6 -0.25 -0.6 Q-0.35 -0.45 -0.4 -0.35 L-0.55 -0.15 -0.75 0.0 -1.0 0.15 -1.0 0.15 -0.65 0.15 -0.3 0.05 Q-0.25 0.05 -0.25 0.15 L-0.2 0.25 -0.2 0.25 -0.25 0.3 -0.4 0.35 -0.6 0.45 -0.65 0.45 -1.05 0.5 -1.05 0.5 -1.15 0.45 -1.35 0.4 -1.75 0.4 -1.75 0.35 -1.35 -0.15 -1.15 -0.35 -0.75 -0.4 Q-0.65 -0.4 -0.55 -0.5 L-0.55 -0.5 -0.5 -0.6 -0.45 -0.8 -0.35 -0.95 -0.3 -1.05 Q-0.3 -1.15 -0.4 -1.3 L-0.45 -1.35 -0.55 -1.4 Q-0.55 -1.4 -0.6 -1.4 L-0.8 -1.4 -0.85 -1.45 -0.9 -1.45 -0.9 -1.5 -0.7 -1.6 -0.65 -1.55 -0.55 -1.5 -0.4 -1.55 -0.3 -1.6 -0.1 -1.7 Q0.05 -1.7 0.05 -1.55 0.05 -1.45 -0.1 -1.4 -0.2 -1.35 -0.2 -1.25 L0.0 -1.1 0.0 -1.0 0.05 -0.9 0.05 -1.0 0.0 -1.05 0.05 -1.2 0.05 -1.3 0.15 -1.45 Q0.25 -1.55 0.25 -1.6 L0.25 -1.75 0.3 -2.05 0.35 -2.15 0.85 -2.25 0.95 -2.25 0.95 -2.05 0.7 -1.55 0.7 -1.55 0.8 -1.55 M2.05 0.6 Q1.8 0.6 1.75 0.65 1.85 0.65 2.05 0.9 L2.0 0.9 1.6 0.8 Q1.4 0.8 1.35 0.9 L1.35 1.15 1.4 1.5 1.35 1.85 1.3 1.95 1.3 1.9 Q1.15 1.85 1.05 1.7 L1.0 1.7 1.05 1.65 1.05 1.6 0.95 1.45 0.9 1.3 1.0 0.95 0.95 0.9 0.9 0.85 0.85 0.85 0.8 0.95 0.75 1.0 0.55 0.95 Q0.45 0.95 0.45 1.1 0.45 1.3 0.3 1.35 -0.25 1.65 -0.3 1.65 L-0.35 1.55 -0.25 1.3 Q-0.15 1.0 0.05 0.95 0.15 0.85 0.3 0.65 L0.4 0.35 0.6 0.45 0.75 0.45 0.85 0.45 0.9 0.45 0.9 0.4 0.85 0.2 0.85 0.05 0.9 0.0 0.95 0.0 1.0 0.0 1.05 0.05 1.25 0.2 1.45 0.3 1.6 0.45 2.05 0.6 M-0.75 1.05 L-0.85 1.45 -1.55 1.45 -1.75 1.4 -1.7 1.4 -1.45 1.35 -1.35 1.25 -1.3 1.25 Q-1.2 1.2 -1.15 1.15 L-0.85 1.05 -0.75 1.05" fill="#6f7e3a" fill-rule="evenodd" stroke="none"/>
    <path d="M1.1 -1.1 L1.1 -1.05 1.05 -1.0 1.0 -0.85 0.95 -0.85 0.85 -0.95 Q0.8 -1.0 0.75 -1.0 L0.75 -1.0 Q0.75 -0.85 0.85 -0.65 L0.95 -0.5 1.0 -0.45 1.0 -0.45 1.1 -0.35 1.2 -0.25 1.2 -0.2 0.95 -0.2 0.9 -0.2 0.75 -0.25 Q0.65 -0.3 0.55 -0.45 L0.6 -0.45 0.75 -0.45 0.8 -0.5 0.65 -0.9 0.5 -1.1 0.4 -1.2 Q0.4 -1.25 0.5 -1.25 L0.7 -1.3 0.65 -1.45 0.7 -1.5 0.8 -1.5 0.8 -1.55 1.1 -1.45 1.1 -1.45 1.1 -1.25 0.95 -1.3 0.9 -1.3 1.1 -1.1 1.1 -1.1 M1.0 1.7 L1.0 1.65 0.9 1.5 0.85 1.55 Q0.65 1.75 0.15 2.0 -0.45 2.3 -0.8 2.3 -0.9 2.3 -0.9 2.2 L-0.9 1.7 -1.15 1.85 Q-1.35 2.0 -2.05 2.0 L-2.45 1.9 -2.2 1.5 Q-2.0 1.2 -1.75 1.0 L-1.15 0.55 -1.05 0.5 -1.05 0.5 -0.65 0.45 -0.6 0.45 -0.6 0.5 -0.7 0.5 Q-0.85 0.55 -0.95 0.6 L-1.05 0.7 -1.05 0.85 -1.25 1.1 -1.3 1.25 -1.35 1.25 -1.45 1.35 -1.7 1.4 -1.75 1.4 -1.55 1.45 -0.85 1.45 -0.75 1.05 -0.6 0.75 -0.55 0.7 -0.3 0.35 -0.25 0.3 -0.2 0.25 -0.1 0.2 -0.05 0.2 0.1 0.2 0.2 0.25 0.4 0.3 0.4 0.35 0.3 0.65 Q0.15 0.85 0.05 0.95 -0.15 1.0 -0.25 1.3 L-0.35 1.55 -0.3 1.65 Q-0.25 1.65 0.3 1.35 0.45 1.3 0.45 1.1 0.45 0.95 0.55 0.95 L0.75 1.0 0.8 0.95 0.85 0.85 0.9 0.85 0.95 0.9 1.0 0.95 0.9 1.3 0.95 1.45 1.05 1.6 1.05 1.65 1.0 1.7" fill="#959442" fill-rule="evenodd" stroke="none"/>
    <path d="M1.1 -1.1 L1.35 -0.9 1.35 -0.9 Q1.3 -1.15 1.15 -1.25 L1.1 -1.25 1.1 -1.45 1.2 -1.4 Q1.45 -1.3 1.55 -1.15 1.75 -0.95 1.85 -0.65 L1.9 -0.25 1.7 -0.2 1.55 -0.2 1.45 -0.2 1.2 -0.2 1.2 -0.25 1.1 -0.35 1.0 -0.45 1.0 -0.45 1.05 -0.45 1.2 -0.5 1.25 -0.6 1.25 -0.65 1.0 -0.8 1.0 -0.85 1.05 -1.0 1.1 -1.05 1.1 -1.1 M1.25 -0.1 L1.3 -0.1 1.3 -0.1 1.5 -0.1 1.6 -0.15 1.8 0.0 2.1 0.1 Q2.2 0.1 2.3 0.15 L2.45 0.35 Q2.4 0.35 2.25 0.5 L2.1 0.6 2.05 0.6 1.6 0.45 1.45 0.3 1.25 0.2 1.05 0.05 1.05 -0.05 1.25 -0.1 M2.05 0.9 L2.15 1.05 Q2.35 1.4 2.35 1.65 L2.35 2.05 Q2.3 2.2 2.1 2.2 L1.3 1.95 1.35 1.85 1.4 1.5 1.35 1.15 1.35 0.9 Q1.4 0.8 1.6 0.8 L2.0 0.9 2.05 0.9 M-1.15 -0.35 L-1.2 -0.35 -1.75 -0.3 -1.9 -0.4 Q-1.9 -0.55 -1.7 -0.75 L-1.4 -1.05 -1.2 -1.15 -1.05 -1.25 Q-0.85 -1.35 -0.8 -1.4 L-0.6 -1.4 Q-0.55 -1.4 -0.55 -1.4 L-0.45 -1.35 -0.4 -1.3 Q-0.3 -1.15 -0.3 -1.05 L-0.35 -0.95 -0.45 -0.8 -0.5 -0.6 -0.55 -0.5 -0.55 -0.5 Q-0.65 -0.4 -0.75 -0.4 L-1.15 -0.35 M-0.9 -1.45 L-1.0 -1.5 -1.15 -1.5 -1.3 -1.55 -1.35 -1.55 -1.4 -1.55 -1.75 -1.75 Q-1.55 -1.95 -1.15 -2.1 L-0.75 -2.25 -0.7 -2.25 -0.5 -2.3 -0.15 -2.2 0.1 -2.0 0.3 -2.15 0.35 -2.15 0.3 -2.05 0.25 -1.75 0.25 -1.6 Q0.25 -1.55 0.15 -1.45 L0.05 -1.3 0.05 -1.2 0.0 -1.05 0.05 -1.0 0.05 -0.9 0.05 -0.9 0.0 -1.0 0.0 -1.1 -0.2 -1.25 Q-0.2 -1.35 -0.1 -1.4 0.05 -1.45 0.05 -1.55 0.05 -1.7 -0.1 -1.7 L-0.3 -1.6 -0.4 -1.55 -0.55 -1.5 -0.65 -1.55 -0.7 -1.6 -0.9 -1.5 -0.9 -1.45 M1.65 0.2 L1.55 0.1 1.5 0.05 1.35 0.0 1.3 0.0 1.3 0.05 Q1.3 0.1 1.4 0.15 L1.45 0.15 1.55 0.2 1.65 0.2" fill="#a6a549" fill-rule="evenodd" stroke="none"/>
    <path d="M1.2 -0.2 L1.45 -0.2 1.55 -0.2 1.7 -0.2 1.9 -0.25 1.85 -0.65 Q1.75 -0.95 1.55 -1.15 1.45 -1.3 1.2 -1.4 L1.1 -1.45 1.1 -1.45 0.8 -1.55 0.7 -1.55 0.7 -1.55 0.95 -2.05 0.95 -2.25 0.85 -2.25 0.35 -2.15 0.3 -2.15 0.1 -2.0 -0.15 -2.2 -0.5 -2.3 -0.7 -2.25 -0.75 -2.25 -1.15 -2.1 Q-1.55 -1.95 -1.75 -1.75 L-1.4 -1.55 -1.35 -1.55 -1.3 -1.55 -1.15 -1.5 -1.0 -1.5 -0.9 -1.45 -0.85 -1.45 -0.8 -1.4 Q-0.85 -1.35 -1.05 -1.25 L-1.2 -1.15 -1.4 -1.05 -1.7 -0.75 Q-1.9 -0.55 -1.9 -0.4 L-1.75 -0.3 -1.2 -0.35 -1.15 -0.35 -1.35 -0.15 -1.75 0.35 -1.75 0.4 -1.35 0.4 -1.15 0.45 -1.05 0.5 -1.15 0.55 -1.75 1.0 Q-2.0 1.2 -2.2 1.5 L-2.45 1.9 -2.05 2.0 Q-1.35 2.0 -1.15 1.85 L-0.9 1.7 -0.9 2.2 Q-0.9 2.3 -0.8 2.3 -0.45 2.3 0.15 2.0 0.65 1.75 0.85 1.55 L0.9 1.5 1.0 1.65 1.0 1.7 1.05 1.7 Q1.15 1.85 1.3 1.9 L1.3 1.95 2.1 2.2 Q2.3 2.2 2.35 2.05 L2.35 1.65 Q2.35 1.4 2.15 1.05 L2.05 0.9 Q1.85 0.65 1.75 0.65 1.8 0.6 2.05 0.6 L2.1 0.6 2.25 0.5 Q2.4 0.35 2.45 0.35 L2.3 0.15 Q2.2 0.1 2.1 0.1 L1.8 0.0 1.6 -0.15 1.5 -0.1 1.3 -0.1 1.3 -0.1 1.25 -0.1 1.2 -0.2 Z" fill="none" stroke="#000000" stroke-linecap="round" stroke-linejoin="round" stroke-opacity="0.24705882" stroke-width="1.0"/>
  </g>
</svg>
