<?xml version="1.0" encoding="UTF-8" standalone="no"?>
<svg xmlns:xlink="http://www.w3.org/1999/xlink" height="4.65px" width="6.75px" xmlns="http://www.w3.org/2000/svg">
  <g transform="matrix(1.0, 0.0, 0.0, 1.0, 3.3, 3.7)">
    <path d="M0.8 -0.45 L0.25 -0.4 0.2 -0.4 -0.05 -0.35 -0.15 -0.35 -0.15 -0.45 -0.1 -0.6 0.0 -0.45 0.05 -0.45 0.2 -0.55 0.25 -0.55 0.3 -0.6 0.45 -0.5 Q0.55 -0.5 0.6 -0.55 L0.7 -0.65 0.8 -0.55 0.8 -0.45 M0.85 -0.45 L1.15 -0.7 1.45 -1.0 1.5 -1.0 1.35 -0.35 0.85 -0.45" fill="#406377" fill-rule="evenodd" stroke="none"/>
    <path d="M3.0 -2.1 L3.0 -2.1 2.9 -2.35 2.8 -2.55 2.55 -2.6 2.3 -2.6 1.8 -2.5 1.45 -2.3 1.25 -2.2 Q1.3 -2.0 1.2 -2.0 L1.1 -2.0 1.15 -2.15 1.1 -2.15 Q0.65 -1.95 0.55 -1.95 L0.35 -1.95 0.3 -2.05 0.25 -1.95 0.15 -2.05 0.15 -2.1 -0.05 -2.25 -0.1 -2.35 -0.1 -2.45 -0.25 -2.55 -0.7 -3.05 Q-0.9 -3.2 -1.05 -3.2 L-1.45 -3.35 -1.65 -3.3 -1.8 -3.3 -2.2 -3.35 -2.4 -3.3 -2.45 -3.2 -2.45 -3.15 -2.6 -3.05 Q-2.65 -2.95 -2.6 -2.7 -2.55 -2.45 -2.35 -2.0 L-2.1 -1.6 -2.1 -1.6 Q-2.4 -1.85 -2.6 -2.3 L-2.8 -2.95 -2.8 -2.35 Q-2.75 -1.8 -2.5 -1.5 -2.2 -1.05 -1.4 -0.6 L-1.95 -0.85 Q-2.4 -1.05 -2.55 -1.25 -2.95 -1.7 -3.0 -1.9 L-3.2 -2.3 -3.3 -2.7 Q-3.3 -2.95 -3.25 -3.1 L-3.05 -3.35 -2.75 -3.6 Q-2.5 -3.7 -2.3 -3.7 L-1.85 -3.65 -0.8 -3.35 -0.4 -3.15 Q-0.25 -3.05 -0.1 -2.85 L0.1 -2.55 0.15 -2.5 Q0.25 -2.35 0.7 -2.35 1.0 -2.35 1.5 -2.65 2.0 -2.9 2.55 -2.9 L2.9 -2.85 Q3.0 -2.8 3.0 -2.7 L3.05 -2.25 3.0 -2.1" fill="#273362" fill-rule="evenodd" stroke="none"/>
    <path d="M-1.4 -0.6 Q-2.2 -1.05 -2.5 -1.5 -2.75 -1.8 -2.8 -2.35 L-2.8 -2.95 -2.6 -2.3 Q-2.4 -1.85 -2.1 -1.6 L-2.1 -1.6 -2.35 -2.0 Q-2.55 -2.45 -2.6 -2.7 -2.65 -2.95 -2.6 -3.05 L-2.45 -3.15 -2.45 -3.2 -2.4 -3.3 -2.2 -3.35 -1.8 -3.3 -1.65 -3.3 -1.45 -3.35 -1.05 -3.2 Q-0.9 -3.2 -0.7 -3.05 L-0.25 -2.55 -0.1 -2.45 -0.1 -2.35 -0.05 -2.25 0.15 -2.1 0.15 -2.05 0.25 -1.95 0.3 -2.05 0.35 -1.95 0.55 -1.95 Q0.65 -1.95 1.1 -2.15 L1.15 -2.15 1.1 -2.0 1.2 -2.0 Q1.3 -2.0 1.25 -2.2 L1.45 -2.3 1.8 -2.5 2.3 -2.6 2.55 -2.6 2.8 -2.55 2.9 -2.35 3.0 -2.1 3.0 -2.1 3.0 -2.05 2.95 -1.8 2.75 -1.3 2.45 -0.9 Q2.0 -0.5 1.6 -0.3 L1.55 -0.35 1.65 -0.4 2.15 -1.0 Q2.6 -1.6 2.55 -1.9 2.55 -2.05 2.45 -2.05 L2.0 -1.95 1.65 -1.85 1.25 -1.55 0.9 -1.25 0.9 -1.25 0.95 -1.5 0.95 -1.5 0.55 -1.35 0.35 -1.25 0.3 -1.25 Q0.3 -1.4 0.25 -1.45 L0.2 -1.45 0.1 -1.45 -0.05 -1.5 -0.2 -1.6 Q-0.4 -1.9 -0.55 -1.95 L-0.8 -2.05 Q-0.85 -2.15 -0.95 -2.15 L-1.1 -2.1 Q-1.25 -2.1 -1.3 -2.15 -1.35 -2.3 -1.45 -2.4 L-1.8 -2.55 -2.05 -2.6 Q-2.2 -2.6 -2.1 -2.35 L-2.1 -1.95 Q-2.1 -1.8 -2.0 -1.65 L-1.75 -1.4 -1.6 -1.15 -1.0 -0.7 Q-1.0 -0.65 -0.7 -0.55 L-0.35 -0.45 -0.2 -0.35 -0.2 -0.35 -0.2 -0.35 -0.3 -0.35 -0.6 -0.4 Q-0.75 -0.4 -0.8 -0.35 L-0.8 -0.3 -1.4 -0.6" fill="#004f7e" fill-rule="evenodd" stroke="none"/>
    <path d="M-0.2 -0.35 L-0.2 -0.35 -0.35 -0.45 -0.7 -0.55 Q-1.0 -0.65 -1.0 -0.7 L-1.6 -1.15 -1.75 -1.4 -2.0 -1.65 Q-2.1 -1.8 -2.1 -1.95 L-2.1 -2.35 Q-2.2 -2.6 -2.05 -2.6 L-1.8 -2.55 -1.45 -2.4 Q-1.35 -2.3 -1.3 -2.15 -1.25 -2.1 -1.1 -2.1 L-0.95 -2.15 Q-0.85 -2.15 -0.8 -2.05 L-0.55 -1.95 Q-0.4 -1.9 -0.2 -1.6 L-0.05 -1.5 0.1 -1.45 0.2 -1.45 0.25 -1.45 Q0.3 -1.4 0.3 -1.25 L0.35 -1.25 0.55 -1.35 0.95 -1.5 0.95 -1.5 0.9 -1.25 0.9 -1.25 1.25 -1.55 1.65 -1.85 2.0 -1.95 2.45 -2.05 Q2.55 -2.05 2.55 -1.9 2.6 -1.6 2.15 -1.0 L1.65 -0.4 1.55 -0.35 1.55 -0.35 1.45 -0.35 1.35 -0.35 1.5 -1.0 1.45 -1.0 1.15 -0.7 0.85 -0.45 0.8 -0.45 0.8 -0.55 0.7 -0.65 0.6 -0.55 Q0.55 -0.5 0.45 -0.5 L0.3 -0.6 0.25 -0.55 0.2 -0.55 0.05 -0.45 0.0 -0.45 -0.1 -0.6 -0.15 -0.45 -0.15 -0.35 -0.2 -0.35 M1.75 -1.3 Q1.65 -1.0 1.65 -0.8 L1.7 -0.8 1.75 -0.85 Q2.05 -1.2 2.0 -1.5 L1.95 -1.6 1.9 -1.6 Q1.8 -1.55 1.75 -1.3 M0.55 -1.0 L0.45 -1.0 0.3 -0.95 Q0.2 -0.95 0.2 -1.05 L0.1 -1.15 -0.1 -1.05 -0.25 -1.2 -0.3 -1.25 -0.4 -1.4 Q-0.5 -1.4 -0.6 -1.5 L-0.8 -1.65 -1.05 -1.9 -1.25 -1.95 -1.45 -1.95 -1.55 -2.05 -1.65 -2.0 -1.65 -1.95 Q-1.8 -2.05 -1.85 -2.05 L-1.85 -1.95 Q-1.8 -1.6 -1.65 -1.5 L-1.1 -1.15 Q-1.0 -1.0 -0.85 -0.95 L-0.65 -0.9 -0.5 -0.8 -0.3 -0.75 -0.2 -0.75 0.1 -0.85 0.6 -0.75 Q0.75 -0.75 0.9 -0.95 L1.0 -1.05 1.05 -1.15 0.95 -1.15 0.75 -1.15 0.55 -1.0" fill="#00e9ff" fill-rule="evenodd" stroke="none"/>
    <path d="M0.55 -1.0 L0.75 -1.15 0.95 -1.15 1.05 -1.15 1.0 -1.05 0.9 -0.95 Q0.75 -0.75 0.6 -0.75 L0.1 -0.85 -0.2 -0.75 -0.3 -0.75 -0.5 -0.8 -0.65 -0.9 -0.85 -0.95 Q-1.0 -1.0 -1.1 -1.15 L-1.65 -1.5 Q-1.8 -1.6 -1.85 -1.95 L-1.85 -2.05 Q-1.8 -2.05 -1.65 -1.95 L-1.65 -2.0 -1.55 -2.05 -1.45 -1.95 -1.25 -1.95 -1.05 -1.9 -0.8 -1.65 -0.6 -1.5 Q-0.5 -1.4 -0.4 -1.4 L-0.3 -1.25 -0.25 -1.2 -0.1 -1.05 0.1 -1.15 0.2 -1.05 Q0.2 -0.95 0.3 -0.95 L0.45 -1.0 0.55 -1.0 M1.75 -1.3 Q1.8 -1.55 1.9 -1.6 L1.95 -1.6 2.0 -1.5 Q2.05 -1.2 1.75 -0.85 L1.7 -0.8 1.65 -0.8 Q1.65 -1.0 1.75 -1.3" fill="#ffffff" fill-rule="evenodd" stroke="none"/>
    <path d="M0.25 -0.5 L0.85 -0.55 0.9 -0.55 1.35 -0.45 1.45 -0.45 1.55 -0.45 1.55 -0.45 1.6 -0.4 1.95 -0.25 Q1.7 -0.05 1.25 0.1 L1.15 0.15 1.1 0.15 0.55 0.25 0.5 0.25 0.45 0.25 0.4 0.25 0.2 0.25 0.1 0.2 -0.4 0.1 -0.5 0.05 -0.5 0.05 -0.7 0.15 Q-0.8 0.15 -0.9 0.05 L-0.9 0.05 -1.15 0.2 Q-1.45 0.35 -1.6 0.5 -1.75 0.55 -2.15 0.75 L-2.15 0.75 -2.65 0.95 -2.75 0.95 -2.8 0.9 -2.8 0.8 -2.7 0.75 -2.2 0.55 -2.2 0.55 -1.75 0.3 -1.25 0.0 -1.0 -0.1 -0.95 -0.1 -0.95 -0.2 -2.25 -0.3 Q-2.35 -0.35 -2.45 -0.45 L-2.6 -0.55 -2.65 -0.55 -2.65 -0.65 -2.6 -0.7 -2.55 -0.75 Q-2.5 -0.7 -2.35 -0.6 L-2.2 -0.5 -2.2 -0.5 -0.9 -0.4 -0.85 -0.4 -0.8 -0.4 -0.8 -0.45 Q-0.7 -0.5 -0.55 -0.5 L-0.3 -0.45 -0.2 -0.45 -0.2 -0.45 -0.15 -0.45 -0.15 -0.45 -0.05 -0.45 0.2 -0.5 0.25 -0.5" fill="#2e2e2e" fill-rule="evenodd" stroke="none"/>
    <path d="M1.0 -0.55 L2.0 -0.65 3.05 -0.55 3.35 -0.55 3.45 -0.45 3.35 -0.3 3.35 -0.3 3.25 -0.25 2.95 -0.1 2.35 0.0 2.05 0.05 1.75 0.05 1.5 0.1 1.45 0.1 1.4 0.1 1.2 0.15 1.15 0.15 0.65 0.15 0.55 0.15 0.45 0.15 0.25 0.15 0.2 0.15 -0.15 0.2 -0.35 0.2 -0.45 0.2 -0.45 0.2 -1.25 0.1 -3.0 -0.2 -3.05 -0.2 Q-3.3 -0.3 -3.3 -0.35 -3.3 -0.55 -2.75 -0.6 L-1.65 -0.7 -0.4 -0.6 0.4 -0.4 1.0 -0.55" fill="#004f7e" fill-rule="evenodd" stroke="none"/>
  </g>
</svg>
