<?xml version="1.0" encoding="UTF-8" standalone="no"?>
<svg xmlns:xlink="http://www.w3.org/1999/xlink" height="2.3px" width="6.75px" xmlns="http://www.w3.org/2000/svg">
  <g transform="matrix(1.0, 0.0, 0.0, 1.0, 3.3, 2.1)">
    <path d="M1.0 -1.7 Q1.65 -2.0 2.0 -2.0 L3.05 -1.8 Q3.25 -1.8 3.35 -1.7 3.45 -1.6 3.45 -1.45 L3.35 -1.1 3.35 -1.1 3.25 -1.0 Q3.1 -0.75 2.95 -0.65 L2.35 -0.25 2.05 -0.2 1.75 -0.15 1.5 -0.05 1.45 -0.05 1.45 -0.05 1.4 0.0 1.2 0.0 1.15 0.0 0.65 0.05 0.55 0.05 0.45 0.05 0.25 0.1 0.2 0.1 -0.15 0.15 -0.35 0.15 -0.45 0.2 -0.45 0.2 -0.65 0.1 -2.15 -0.5 Q-2.75 -0.7 -3.0 -0.85 L-3.05 -0.85 Q-3.3 -1.05 -3.3 -1.25 -3.3 -1.75 -2.75 -1.95 -2.25 -2.1 -1.65 -2.1 -1.1 -2.1 -0.4 -1.85 L0.4 -1.4 Q0.55 -1.5 1.0 -1.7" fill="#273362" fill-rule="evenodd" stroke="none"/>
  </g>
</svg>
