<?xml version="1.0" encoding="UTF-8" standalone="no"?>
<svg xmlns:xlink="http://www.w3.org/1999/xlink" height="3.35px" width="3.2px" xmlns="http://www.w3.org/2000/svg">
  <g transform="matrix(1.0, 0.0, 0.0, 1.0, 1.7, 1.5)">
    <path d="M0.35 -1.0 L0.45 -0.7 0.35 -0.6 0.45 -0.3 Q0.45 -0.15 0.4 -0.05 L0.3 0.05 0.2 -0.05 0.1 -0.55 -0.05 -1.05 -0.1 -1.0 -0.35 -1.0 -0.45 -1.0 -0.1 -1.45 0.0 -1.5 0.15 -1.35 0.25 -1.15 0.35 -1.0 M-0.1 -0.7 Q-0.05 -0.2 -0.15 0.35 L-0.35 0.35 Q-0.35 0.5 -0.45 0.65 L-0.55 1.0 -0.35 1.1 -0.6 1.2 -1.0 1.2 -1.05 1.2 -1.3 1.15 -1.3 1.0 -1.2 0.85 Q-1.0 0.65 -0.9 0.4 L-0.85 0.5 -0.5 -0.05 Q-0.3 -0.35 -0.15 -0.6 L-0.1 -0.7 M0.5 1.05 L0.5 0.65 Q0.55 0.45 0.65 0.3 L0.7 0.5 0.8 0.65 1.05 0.65 1.25 0.65 1.45 1.0 Q1.35 0.95 1.2 0.9 L1.0 0.85 Q0.85 0.8 0.75 0.9 L0.5 1.05 M-0.2 -1.15 Q-0.1 -1.2 -0.1 -1.25 0.0 -1.3 -0.05 -1.4 -0.2 -1.3 -0.2 -1.15 M-0.7 0.5 Q-0.65 0.55 -0.6 0.5 -0.55 0.4 -0.65 0.4 L-0.7 0.45 -0.7 0.5" fill="#899827" fill-rule="evenodd" stroke="none"/>
    <path d="M-0.2 -1.15 Q-0.2 -1.3 -0.05 -1.4 0.0 -1.3 -0.1 -1.25 -0.1 -1.2 -0.2 -1.15" fill="#e3f287" fill-rule="evenodd" stroke="none"/>
    <path d="M-0.35 -1.0 L-0.1 -1.0 -0.1 -0.7 -0.15 -0.6 Q-0.35 -0.7 -0.55 -0.7 L-0.35 -1.0" fill="#f1ff95" fill-rule="evenodd" stroke="none"/>
    <path d="M-0.1 -1.0 L-0.05 -1.05 0.1 -0.55 0.2 -0.05 0.3 0.05 0.4 -0.05 Q0.45 -0.15 0.45 -0.3 L0.35 -0.6 0.45 -0.7 0.35 -1.0 1.25 0.65 1.05 0.65 0.8 0.65 0.7 0.5 0.65 0.3 Q0.55 0.45 0.5 0.65 L0.5 1.05 0.4 1.05 Q0.2 0.95 -0.05 0.95 L-0.2 0.95 -0.25 1.05 -0.35 1.1 -0.55 1.0 -0.45 0.65 Q-0.35 0.5 -0.35 0.35 L-0.15 0.35 Q-0.05 -0.2 -0.1 -0.7 L-0.1 -1.0" fill="#65701c" fill-rule="evenodd" stroke="none"/>
    <path d="M-0.45 -1.0 L-0.35 -1.0 -0.55 -0.7 -0.9 0.1 -0.85 0.2 -0.9 0.4 Q-1.0 0.65 -1.2 0.85 L-1.3 1.0 -1.3 1.15 -1.5 1.1 -1.65 1.05 -1.6 0.9 -1.4 0.95 -1.25 0.5 -1.15 0.05 -0.8 -0.5 -0.45 -1.0" fill="#a8bb31" fill-rule="evenodd" stroke="none"/>
    <path d="M-0.15 -0.6 Q-0.3 -0.35 -0.5 -0.05 L-0.85 0.5 -0.9 0.4 -0.85 0.2 -0.9 0.1 -0.55 -0.7 Q-0.35 -0.7 -0.15 -0.6" fill="#fbffe2" fill-rule="evenodd" stroke="none"/>
    <path d="M-0.35 1.1 L-0.25 1.05 Q0.05 1.15 0.4 1.05 L0.5 1.05 0.75 0.9 Q0.85 0.8 1.0 0.85 L1.2 0.9 Q1.35 0.95 1.45 1.0 L1.45 1.05 1.2 1.15 0.9 1.15 0.6 1.15 0.65 1.2 0.65 1.25 0.55 1.25 0.2 1.2 -0.1 1.2 -0.2 1.25 -0.6 1.2 -0.35 1.1" fill="#d6e95e" fill-rule="evenodd" stroke="none"/>
    <path d="M1.2 1.15 L1.2 1.3 Q1.2 1.4 1.15 1.45 L0.85 1.6 0.55 1.7 0.7 1.55 0.45 1.6 0.65 1.4 Q0.7 1.3 0.65 1.25 L0.65 1.2 0.9 1.15 1.2 1.15 M0.55 1.25 L0.2 1.45 0.05 1.45 -0.1 1.6 -0.1 1.2 0.2 1.2 0.55 1.25 M-0.2 1.25 L-0.45 1.45 -0.45 1.6 -0.65 1.55 -0.7 1.4 -0.85 1.4 -1.0 1.2 -0.6 1.2 -0.2 1.25 M-1.05 1.2 L-1.15 1.25 -1.05 1.5 -1.3 1.4 -1.4 1.25 -1.5 1.1 -1.3 1.15 -1.05 1.2 M0.85 1.35 Q0.7 1.35 0.7 1.5 0.9 1.5 1.05 1.4 L0.85 1.35" fill="#525b16" fill-rule="evenodd" stroke="none"/>
    <path d="M1.2 1.15 L1.45 1.05 Q1.55 1.2 1.45 1.3 L1.25 1.5 Q0.65 1.9 0.1 1.85 L-0.2 1.85 -0.55 1.85 -0.85 1.75 -1.35 1.55 -1.5 1.4 -1.6 1.25 -1.7 1.1 -1.7 1.1 -1.65 1.05 -1.5 1.1 -1.4 1.25 -1.3 1.4 -1.05 1.5 -1.15 1.25 -1.05 1.2 -1.0 1.2 -0.85 1.4 -0.7 1.4 -0.65 1.55 -0.45 1.6 -0.45 1.45 -0.2 1.25 -0.1 1.2 -0.1 1.6 0.05 1.45 0.2 1.45 0.55 1.25 0.65 1.25 Q0.7 1.3 0.65 1.4 L0.45 1.6 0.7 1.55 0.55 1.7 0.85 1.6 1.15 1.45 Q1.2 1.4 1.2 1.3 L1.2 1.15 M-0.3 1.65 Q-0.2 1.6 -0.15 1.5 L-0.35 1.5 -0.3 1.65" fill="#272c0a" fill-rule="evenodd" stroke="none"/>
    <path d="M0.65 1.2 L0.6 1.15 0.9 1.15 0.65 1.2" fill="#dae87c" fill-rule="evenodd" stroke="none"/>
    <path d="M0.85 1.35 L1.05 1.4 Q0.9 1.5 0.7 1.5 0.7 1.35 0.85 1.35" fill="#2a300b" fill-rule="evenodd" stroke="none"/>
    <path d="M-0.7 0.5 L-0.7 0.45 -0.65 0.4 Q-0.55 0.4 -0.6 0.5 -0.65 0.55 -0.7 0.5" fill="#bbca5d" fill-rule="evenodd" stroke="none"/>
    <path d="M-0.25 1.05 L-0.2 0.95 -0.05 0.95 Q0.2 0.95 0.4 1.05 0.05 1.15 -0.25 1.05" fill="#869527" fill-rule="evenodd" stroke="none"/>
    <path d="M-1.5 0.75 L-1.5 0.6 -1.35 0.5 Q-1.4 0.65 -1.5 0.75" fill="#16020c" fill-rule="evenodd" stroke="none"/>
    <path d="M-1.15 0.05 L-1.25 0.5 -1.4 0.95 -1.6 0.9 -1.5 0.75 Q-1.4 0.65 -1.35 0.5 L-1.15 0.05" fill="#d6e47f" fill-rule="evenodd" stroke="none"/>
    <path d="M-0.3 1.65 L-0.35 1.5 -0.15 1.5 Q-0.2 1.6 -0.3 1.65" fill="#4c5414" fill-rule="evenodd" stroke="none"/>
    <path d="M0.35 -1.0 L0.25 -1.15 0.15 -1.35 0.0 -1.5 -0.1 -1.45 -0.45 -1.0 -0.8 -0.5 -1.15 0.05 -1.35 0.5 -1.5 0.6 -1.5 0.75 -1.7 1.1 -1.7 1.1 -1.6 1.25 -1.5 1.4 -1.35 1.55 -0.85 1.75 -0.55 1.85 -0.2 1.85 0.1 1.85 Q0.65 1.9 1.25 1.5 L1.45 1.3 Q1.55 1.2 1.45 1.05 L1.45 1.0 1.25 0.65 0.35 -1.0 Z" fill="none" stroke="#000000" stroke-linecap="round" stroke-linejoin="round" stroke-opacity="0.4509804" stroke-width="1.0"/>
  </g>
</svg>
