<?xml version="1.0" encoding="UTF-8" standalone="no"?>
<svg xmlns:xlink="http://www.w3.org/1999/xlink" height="3.4px" width="3.35px" xmlns="http://www.w3.org/2000/svg">
  <g transform="matrix(1.0, 0.0, 0.0, 1.0, 1.75, 1.7)">
    <path d="M0.15 -1.6 L0.6 -1.5 Q0.7 -1.45 0.8 -1.35 L0.95 -1.2 0.8 -1.25 0.65 -0.9 Q0.4 -1.15 0.1 -1.3 L0.3 -1.45 0.15 -1.6" fill="#87a0ba" fill-rule="evenodd" stroke="none"/>
    <path d="M0.95 -1.2 Q1.4 -0.85 1.6 -0.1 1.35 0.0 1.1 0.1 0.95 0.2 0.95 0.4 0.95 0.55 1.05 0.75 0.8 0.65 0.6 0.55 L0.4 0.35 0.7 0.0 0.55 -0.05 0.45 -0.05 Q0.3 -0.05 0.2 0.05 L-0.05 0.25 0.2 0.35 0.4 0.55 Q0.05 0.65 -0.1 0.8 L-0.4 0.55 Q-0.6 0.45 -0.8 0.4 L-0.85 0.3 -0.7 0.4 -0.6 0.2 -0.45 0.3 -0.2 0.3 -0.7 -0.25 -0.8 -0.1 -0.85 -0.55 -1.1 -0.4 -1.15 -0.45 -1.2 -0.5 -1.2 -0.55 Q-0.95 -0.9 -0.8 -1.3 L-0.8 -1.5 -0.9 -1.6 -0.35 -1.7 Q-0.05 -1.7 0.15 -1.6 L0.3 -1.45 0.1 -1.3 Q0.4 -1.15 0.65 -0.9 L0.8 -1.25 0.95 -1.2" fill="#6684a8" fill-rule="evenodd" stroke="none"/>
    <path d="M0.4 0.55 L0.2 0.35 -0.05 0.25 0.2 0.05 Q0.3 -0.05 0.45 -0.05 L0.55 -0.05 0.7 0.0 0.4 0.35 0.6 0.55 0.5 0.55 0.45 0.55 0.4 0.55" fill="#79a4c7" fill-rule="evenodd" stroke="none"/>
    <path d="M1.6 -0.1 L1.6 0.2 Q1.55 0.45 1.5 0.55 L1.45 0.35 1.45 0.15 1.1 0.1 Q1.35 0.0 1.6 -0.1" fill="#4c6883" fill-rule="evenodd" stroke="none"/>
    <path d="M1.5 0.55 Q1.5 0.75 1.35 0.9 L1.2 1.05 1.05 0.75 Q0.95 0.55 0.95 0.4 0.95 0.2 1.1 0.1 L1.45 0.15 1.45 0.35 1.5 0.55" fill="#364f66" fill-rule="evenodd" stroke="none"/>
    <path d="M1.35 0.9 L1.0 1.35 0.8 1.2 Q0.95 1.15 1.0 1.0 L1.05 0.75 1.2 1.05 1.35 0.9" fill="#56708b" fill-rule="evenodd" stroke="none"/>
    <path d="M0.6 0.55 Q0.8 0.65 1.05 0.75 L1.0 1.0 Q0.95 1.15 0.8 1.2 L0.45 1.25 0.3 1.05 0.25 0.85 0.45 0.55 0.5 0.55 0.6 0.55" fill="#e7f9f1" fill-rule="evenodd" stroke="none"/>
    <path d="M0.35 1.6 L-0.05 1.7 -0.4 1.6 -0.3 1.15 0.05 1.05 -0.05 0.85 -0.1 0.8 Q0.05 0.65 0.4 0.55 L0.45 0.55 0.25 0.85 0.3 1.05 0.45 1.25 0.35 1.35 0.05 1.15 -0.3 1.45 0.25 1.6 0.35 1.6" fill="#82bfd8" fill-rule="evenodd" stroke="none"/>
    <path d="M1.0 1.35 L0.7 1.5 0.35 1.6 0.25 1.6 0.3 1.5 0.45 1.25 0.8 1.2 1.0 1.35" fill="#5c88ab" fill-rule="evenodd" stroke="none"/>
    <path d="M0.3 1.5 L0.25 1.6 -0.3 1.45 0.05 1.15 0.35 1.35 0.3 1.5" fill="#c0f5ee" fill-rule="evenodd" stroke="none"/>
    <path d="M-1.7 -0.75 L-1.75 -0.75 -1.7 -0.9 -1.65 -1.05 -1.4 -1.25 -1.15 -1.45 -0.9 -1.6 -0.8 -1.5 -0.8 -1.3 Q-0.95 -0.9 -1.2 -0.55 L-1.2 -0.55 -1.4 -0.8 -1.7 -0.75 -1.7 -0.75" fill="#4a6b8c" fill-rule="evenodd" stroke="none"/>
    <path d="M-1.65 0.65 L-1.75 0.45 -1.5 0.25 Q-1.5 0.15 -1.6 0.05 L-1.7 -0.1 Q-1.75 -0.2 -1.75 -0.4 L-1.75 -0.75 -1.7 -0.75 -1.7 -0.75 -1.4 -0.8 -1.2 -0.55 -1.2 -0.55 -1.2 -0.5 -1.15 -0.45 -1.1 -0.4 -0.85 -0.55 -0.8 -0.1 -0.6 0.2 -0.7 0.4 -0.85 0.3 -1.05 0.05 Q-1.15 -0.1 -1.3 -0.15 L-1.6 -0.15 -1.5 0.15 -1.3 0.4 Q-1.55 0.5 -1.65 0.65" fill="#70a0cc" fill-rule="evenodd" stroke="none"/>
    <path d="M-0.6 1.6 Q-0.85 1.45 -1.15 1.15 L-1.65 0.65 Q-1.55 0.5 -1.3 0.4 L-1.5 0.15 -1.6 -0.15 -1.3 -0.15 Q-1.15 -0.1 -1.05 0.05 L-0.85 0.3 -0.8 0.4 Q-0.6 0.45 -0.4 0.55 L-0.1 0.8 -0.05 0.85 -0.25 1.0 -0.45 1.15 -0.55 1.35 -0.6 1.6 M-0.95 1.0 L-0.6 0.95 Q-0.4 0.9 -0.4 0.7 L-0.5 0.6 -0.6 0.6 -1.15 0.6 Q-1.1 0.8 -0.95 1.0" fill="#426c92" fill-rule="evenodd" stroke="none"/>
    <path d="M-0.8 -0.1 L-0.7 -0.25 -0.2 0.3 -0.45 0.3 -0.6 0.2 -0.8 -0.1" fill="#496e98" fill-rule="evenodd" stroke="none"/>
    <path d="M-0.95 1.0 Q-1.1 0.8 -1.15 0.6 L-0.6 0.6 -0.5 0.6 -0.4 0.7 Q-0.4 0.9 -0.6 0.95 L-0.95 1.0" fill="#234967" fill-rule="evenodd" stroke="none"/>
    <path d="M-0.4 1.6 L-0.6 1.6 -0.55 1.35 -0.45 1.15 -0.25 1.0 -0.05 0.85 0.05 1.05 -0.3 1.15 -0.4 1.6" fill="#598cbe" fill-rule="evenodd" stroke="none"/>
    <path d="M0.15 -1.6 L0.6 -1.5 Q0.7 -1.45 0.8 -1.35 L0.95 -1.2 Q1.4 -0.85 1.6 -0.1 L1.6 0.2 Q1.55 0.45 1.5 0.55 1.5 0.75 1.35 0.9 L1.0 1.35 0.7 1.5 0.35 1.6 -0.05 1.7 -0.4 1.6 -0.6 1.6 Q-0.85 1.45 -1.15 1.15 L-1.65 0.65 -1.75 0.45 -1.5 0.25 Q-1.5 0.15 -1.6 0.05 L-1.7 -0.1 Q-1.75 -0.2 -1.75 -0.4 L-1.75 -0.75 -1.7 -0.75 -1.75 -0.75 -1.7 -0.9 -1.65 -1.05 -1.4 -1.25 -1.15 -1.45 -0.9 -1.6 -0.35 -1.7 Q-0.05 -1.7 0.15 -1.6 Z" fill="none" stroke="#000000" stroke-linecap="round" stroke-linejoin="round" stroke-opacity="0.4509804" stroke-width="1.0"/>
  </g>
</svg>
