<?xml version="1.0" encoding="UTF-8" standalone="no"?>
<svg xmlns:xlink="http://www.w3.org/1999/xlink" height="2.7px" width="3.65px" xmlns="http://www.w3.org/2000/svg">
  <g transform="matrix(1.0, 0.0, 0.0, 1.0, 1.8, 1.2)">
    <path d="M1.05 0.25 L0.95 0.25 Q1.0 0.1 1.1 0.0 1.25 -0.1 1.4 -0.1 L1.15 -0.3 0.95 -0.6 1.5 -0.55 1.8 -0.1 Q1.9 0.2 1.8 0.4 L1.7 0.1 1.6 -0.2 1.4 0.05 1.15 0.25 1.05 0.25" fill="#795a5d" fill-rule="evenodd" stroke="none"/>
    <path d="M1.15 -0.3 L1.4 -0.1 Q1.25 -0.1 1.1 0.0 1.0 0.1 0.95 0.25 L1.05 0.25 0.85 0.25 Q0.8 0.0 0.7 -0.1 L1.15 -0.3" fill="#5c363e" fill-rule="evenodd" stroke="none"/>
    <path d="M1.15 -0.3 L0.7 -0.1 Q0.4 0.0 0.0 0.3 L-0.2 0.2 -0.4 0.15 -0.6 0.3 -0.8 0.5 -0.85 0.2 -0.75 0.2 -0.7 0.2 -0.55 0.2 -0.65 -0.25 -0.95 -0.25 -0.7 -0.3 -0.95 -0.7 Q-0.8 -0.75 -0.7 -0.85 L-0.55 -1.05 -0.05 -1.15 Q0.25 -1.25 0.45 -1.15 1.05 -1.1 1.5 -0.55 L0.95 -0.6 1.15 -0.3 M-0.95 -0.25 L-0.95 -0.25 M-0.45 -0.1 L-0.3 -0.35 -0.7 -0.5 -0.45 -0.1" fill="#a17977" fill-rule="evenodd" stroke="none"/>
    <path d="M-0.55 -1.05 L-0.7 -0.85 Q-0.8 -0.75 -0.95 -0.7 L-1.15 -0.6 -1.35 -0.45 -1.55 -0.2 -1.8 0.0 Q-1.8 -0.3 -1.7 -0.5 -1.6 -0.75 -1.4 -0.85 L-1.0 -1.1 -0.55 -1.05" fill="#826267" fill-rule="evenodd" stroke="none"/>
    <path d="M-0.95 -0.7 L-0.7 -0.3 -0.95 -0.25 -1.15 0.05 -1.3 0.45 Q-1.05 0.6 -0.75 0.7 L-0.8 0.5 -0.6 0.3 -0.4 0.15 -0.2 0.2 0.0 0.3 0.0 0.5 -0.2 0.5 -0.1 0.8 -0.05 1.15 0.0 1.3 -0.3 1.25 -0.35 1.05 -0.2 0.85 Q-0.4 0.6 -0.6 0.4 L-0.6 0.6 Q-0.75 0.75 -0.8 0.95 -0.8 1.1 -0.75 1.3 L-0.85 1.3 Q-1.45 0.95 -1.7 0.55 L-1.8 0.3 -1.8 0.0 -1.55 -0.2 -1.35 -0.45 -1.15 -0.6 -0.95 -0.7" fill="#652b33" fill-rule="evenodd" stroke="none"/>
    <path d="M-0.95 -0.25 L-0.65 -0.25 -0.55 0.2 -0.7 0.2 -0.85 0.1 -0.95 0.0 -0.95 -0.25" fill="#f3e0e3" fill-rule="evenodd" stroke="none"/>
    <path d="M-0.95 -0.25 L-0.95 -0.25 -0.95 0.0 -0.85 0.1 -0.7 0.2 -0.75 0.2 -0.85 0.2 -0.8 0.5 -0.75 0.7 Q-1.05 0.6 -1.3 0.45 L-0.95 0.35 -1.15 0.05 -0.95 -0.25" fill="#f3bcc7" fill-rule="evenodd" stroke="none"/>
    <path d="M-0.45 -0.1 L-0.7 -0.5 -0.3 -0.35 -0.45 -0.1" fill="#d29c9e" fill-rule="evenodd" stroke="none"/>
    <path d="M0.0 0.5 L0.05 0.65 0.35 0.6 -0.05 1.15 -0.1 0.8 -0.2 0.5 0.0 0.5" fill="#925d61" fill-rule="evenodd" stroke="none"/>
    <path d="M-0.35 1.05 L-0.6 0.6 -0.6 0.4 Q-0.4 0.6 -0.2 0.85 L-0.35 1.05" fill="#925a5c" fill-rule="evenodd" stroke="none"/>
    <path d="M-1.3 0.45 L-1.15 0.05 -0.95 0.35 -1.3 0.45" fill="#ba5269" fill-rule="evenodd" stroke="none"/>
    <path d="M0.0 1.3 Q0.75 1.45 1.25 1.2 0.95 1.4 0.55 1.5 0.2 1.55 -0.2 1.45 L-0.65 1.4 -0.85 1.3 -0.75 1.3 -0.3 1.25 0.0 1.3" fill="#724b4d" fill-rule="evenodd" stroke="none"/>
    <path d="M-0.75 1.3 Q-0.8 1.1 -0.8 0.95 -0.75 0.75 -0.6 0.6 L-0.35 1.05 -0.3 1.25 -0.75 1.3" fill="#3f181b" fill-rule="evenodd" stroke="none"/>
    <path d="M0.7 -0.1 Q0.8 0.0 0.85 0.25 L1.05 0.25 1.15 0.25 Q1.35 0.45 1.7 0.6 L1.55 0.9 Q1.45 1.1 1.25 1.2 0.75 1.45 0.0 1.3 L-0.05 1.15 0.35 0.6 0.05 0.65 0.0 0.5 0.0 0.3 Q0.4 0.0 0.7 -0.1" fill="#34191c" fill-rule="evenodd" stroke="none"/>
    <path d="M1.15 0.25 L1.4 0.05 1.6 -0.2 1.7 0.1 1.8 0.4 1.7 0.7 1.55 0.9 1.7 0.6 Q1.35 0.45 1.15 0.25" fill="#5a363c" fill-rule="evenodd" stroke="none"/>
    <path d="M1.8 0.4 Q1.9 0.2 1.8 -0.1 L1.5 -0.55 Q1.05 -1.1 0.45 -1.15 0.25 -1.25 -0.05 -1.15 L-0.55 -1.05 -1.0 -1.1 -1.4 -0.85 Q-1.6 -0.75 -1.7 -0.5 -1.8 -0.3 -1.8 0.0 L-1.8 0.3 -1.7 0.55 Q-1.45 0.95 -0.85 1.3 L-0.65 1.4 -0.2 1.45 Q0.2 1.55 0.55 1.5 0.95 1.4 1.25 1.2 1.45 1.1 1.55 0.9 L1.7 0.7 1.8 0.4 Z" fill="none" stroke="#000000" stroke-linecap="round" stroke-linejoin="round" stroke-opacity="0.4509804" stroke-width="1.0"/>
  </g>
</svg>
