<?xml version="1.0" encoding="UTF-8" standalone="no"?>
<svg xmlns:xlink="http://www.w3.org/1999/xlink" height="3.75px" width="4.0px" xmlns="http://www.w3.org/2000/svg">
  <g transform="matrix(1.0, 0.0, 0.0, 1.0, 1.95, 1.85)">
    <path d="M0.4 -1.5 L0.4 -1.45 0.35 -1.45 0.35 -1.45 0.4 -1.45 0.4 -1.4 0.45 -1.4 0.45 -1.35 Q0.5 -1.35 0.5 -1.35 L0.5 -1.35 0.5 -1.35 0.5 -1.3 0.55 -1.3 0.55 -1.2 0.6 -1.2 0.55 -1.2 0.6 -1.2 0.55 -1.15 0.55 -1.1 0.55 -1.1 0.5 -1.15 0.5 -1.15 0.45 -1.2 0.45 -1.2 0.4 -1.25 0.45 -1.2 0.5 -1.2 0.5 -1.2 Q0.55 -1.15 0.55 -1.15 L0.55 -1.2 0.5 -1.2 0.5 -1.25 0.5 -1.3 0.5 -1.3 0.45 -1.35 0.4 -1.4 0.35 -1.4 0.35 -1.5 0.4 -1.5 0.4 -1.5 M0.55 -0.65 L0.6 -0.55 0.65 -0.55 0.6 -0.5 0.55 -0.45 0.55 -0.4 0.5 -0.4 0.55 -0.35 0.55 -0.3 0.55 -0.25 0.5 -0.2 0.5 -0.2 0.45 -0.2 0.5 -0.25 0.5 -0.3 0.45 -0.3 0.5 -0.35 0.5 -0.35 0.45 -0.4 0.45 -0.35 0.4 -0.35 0.4 -0.35 0.35 -0.4 0.35 -0.45 0.35 -0.45 0.3 -0.4 0.3 -0.4 Q0.3 -0.4 0.3 -0.35 L0.3 -0.35 0.35 -0.3 0.35 -0.3 0.35 -0.25 0.35 -0.15 0.3 -0.15 0.3 -0.1 0.3 -0.05 0.3 0.0 0.25 0.0 0.25 -0.05 0.25 -0.05 0.2 -0.1 0.2 -0.1 0.2 -0.15 0.15 -0.15 0.15 -0.2 0.2 -0.2 0.15 -0.25 0.15 -0.25 0.15 -0.3 0.1 -0.3 0.1 -0.35 0.05 -0.35 0.05 -0.4 0.0 -0.4 0.0 -0.4 -0.05 -0.45 -0.1 -0.5 -0.1 -0.6 -0.1 -0.6 -0.1 -0.6 -0.05 -0.6 -0.05 -0.6 -0.05 -0.6 0.0 -0.6 0.0 -0.6 0.05 -0.6 0.05 -0.6 0.1 -0.6 0.1 -0.6 0.15 -0.65 0.15 -0.65 0.15 -0.65 0.2 -0.65 0.2 -0.7 0.2 -0.75 0.25 -0.75 0.25 -0.75 0.3 -0.8 0.3 -0.8 0.35 -0.8 0.35 -0.75 0.4 -0.75 0.4 -0.7 0.45 -0.7 0.45 -0.7 0.4 -0.65 0.45 -0.65 0.45 -0.6 0.4 -0.6 0.4 -0.55 0.4 -0.55 0.4 -0.5 0.4 -0.55 0.45 -0.55 0.45 -0.6 0.45 -0.6 0.5 -0.6 0.5 -0.6 0.55 -0.65 0.55 -0.65 M0.9 -0.7 L0.9 -0.7 0.95 -0.75 0.7 -0.45 0.75 -0.35 0.75 -0.35 0.75 -0.35 0.7 -0.3 0.75 -0.3 0.75 -0.25 0.7 -0.25 0.7 -0.25 0.75 -0.2 0.75 -0.15 0.75 -0.15 0.8 -0.15 0.8 -0.15 0.85 -0.15 0.8 -0.15 0.85 -0.15 0.85 -0.15 0.8 -0.15 0.8 -0.1 0.85 -0.1 0.85 -0.1 0.9 -0.05 0.9 -0.05 0.95 -0.05 0.9 -0.05 0.9 0.0 0.85 0.0 0.9 0.05 0.95 0.05 1.15 0.3 1.1 0.35 1.1 0.4 1.15 0.35 1.2 0.4 1.15 0.4 1.1 0.45 1.05 0.4 1.05 0.45 1.0 0.45 1.05 0.4 1.0 0.35 1.0 0.25 1.0 0.2 0.95 0.2 0.95 0.15 0.9 0.15 0.9 0.1 0.85 0.05 0.85 0.0 0.8 -0.05 0.8 -0.05 0.75 -0.05 0.75 -0.15 0.75 -0.15 0.7 -0.15 0.7 -0.25 0.7 -0.1 0.7 0.0 0.7 0.05 0.65 -0.05 0.65 -0.05 0.6 0.05 Q0.6 0.1 0.6 0.15 L0.65 0.25 0.7 0.25 0.65 0.3 0.65 0.35 0.6 0.35 0.6 0.4 0.65 0.4 Q0.65 0.4 0.65 0.45 L0.7 0.5 0.75 0.55 0.8 0.6 0.85 0.6 0.9 0.65 0.95 0.65 0.95 0.7 1.0 0.7 1.0 0.75 1.05 0.75 1.05 0.8 1.1 0.8 1.15 0.8 1.2 0.8 1.25 0.85 1.3 0.95 1.35 1.0 1.4 1.05 1.4 1.1 1.45 1.15 1.5 1.15 1.5 1.05 1.45 1.05 1.45 1.0 1.4 0.95 1.35 0.9 1.35 0.85 1.3 0.8 1.35 0.8 1.3 0.75 1.3 0.7 1.25 0.75 1.25 0.65 1.2 0.65 1.2 0.6 1.15 0.6 1.1 0.55 1.15 0.55 1.2 0.5 1.15 0.5 1.2 0.5 1.2 0.45 1.25 0.45 1.6 1.05 1.55 1.15 1.55 1.1 1.6 1.1 1.6 1.1 1.6 1.15 1.55 1.2 1.5 1.2 1.55 1.2 1.55 1.15 1.6 1.2 1.5 1.3 1.55 1.3 1.55 1.35 1.6 1.3 1.6 1.25 1.65 1.25 1.6 1.25 1.6 1.2 1.65 1.2 1.65 1.15 1.8 1.3 2.0 1.4 Q2.05 1.5 2.0 1.6 L1.95 1.6 1.9 1.65 1.85 1.65 1.85 1.7 1.8 1.7 1.8 1.75 1.75 1.75 1.7 1.8 1.65 1.8 1.55 1.8 1.55 1.85 1.5 1.85 1.5 1.9 1.4 1.85 1.4 1.75 1.35 1.65 1.3 1.7 Q1.2 1.7 1.2 1.7 L1.15 1.6 1.1 1.5 0.85 1.1 0.75 0.95 0.65 0.75 0.55 0.7 0.5 0.65 0.45 0.65 0.45 0.6 0.4 0.55 0.4 0.5 0.35 0.45 0.3 0.45 0.25 0.35 0.2 0.25 0.15 0.25 0.1 0.2 0.1 0.15 0.05 0.15 0.05 0.1 0.0 0.1 -0.05 -0.05 -0.1 -0.15 -0.15 -0.2 -0.2 -0.2 -0.2 -0.25 -0.25 -0.3 -0.25 -0.35 -0.3 -0.4 -0.3 -0.4 -0.35 -0.4 -0.5 -0.4 -0.55 -0.4 -0.65 -0.4 -0.75 -0.4 -0.75 -0.4 -0.8 -0.45 -0.85 -0.45 -0.9 -0.5 -0.9 -0.55 -0.95 -0.6 -0.95 -0.65 -0.95 -0.75 -0.9 -0.85 -0.9 -0.85 -0.9 -0.9 -0.9 -0.95 -0.9 -1.05 -0.9 -1.15 -1.05 -1.15 -1.2 -1.15 -1.4 -1.15 -1.35 -1.15 -1.3 -1.2 -1.2 -1.2 -1.05 -1.25 -1.05 -1.25 -1.1 -1.25 -1.05 -1.25 Q-0.85 -1.25 -0.7 -1.1 L-0.7 -1.05 -0.6 -0.95 -0.05 -0.2 0.4 0.4 0.4 0.35 0.45 0.35 0.5 0.35 0.55 0.35 0.5 0.3 0.5 0.25 0.45 0.2 0.4 0.15 0.4 0.1 0.45 0.15 0.45 0.1 0.5 0.2 0.55 0.3 0.6 0.25 0.55 0.25 0.55 0.2 0.5 0.1 0.45 0.0 0.4 -0.05 0.35 -0.05 0.35 -0.15 0.4 -0.1 0.45 -0.1 0.45 -0.05 0.5 0.0 0.55 0.0 0.55 0.0 0.6 -0.05 0.6 -0.05 0.6 -0.1 0.55 -0.05 0.6 -0.1 0.6 -0.15 0.65 -0.15 0.65 -0.2 0.6 -0.25 0.65 -0.3 0.65 -0.35 0.6 -0.35 0.65 -0.35 0.65 -0.35 0.6 -0.4 0.6 -0.4 0.6 -0.4 0.6 -0.45 0.65 -0.45 0.65 -0.5 0.75 -0.55 0.85 -0.65 0.9 -0.7 M0.95 -0.05 L0.95 -0.05 M-1.5 -1.1 L-1.55 -1.1 -1.65 -1.1 -1.75 -1.15 -1.85 -1.25 -1.9 -1.35 -1.9 -1.4 -1.85 -1.4 -1.85 -1.35 -1.85 -1.35 -1.8 -1.3 -1.8 -1.3 -1.8 -1.35 -1.8 -1.4 -1.75 -1.4 -1.75 -1.5 -1.8 -1.5 -1.8 -1.55 -1.85 -1.6 -1.85 -1.65 -1.85 -1.7 -1.8 -1.7 -1.8 -1.75 -1.75 -1.75 -1.65 -1.75 -1.5 -1.8 -1.4 -1.85 -1.35 -1.85 -1.3 -1.8 -1.3 -1.8 -1.25 -1.8 -1.2 -1.8 -1.2 -1.8 -1.15 -1.75 -1.1 -1.75 -1.1 -1.75 -1.15 -1.7 -1.15 -1.7 -1.2 -1.7 -1.2 -1.7 -1.25 -1.7 -1.25 -1.7 -1.25 -1.65 -1.25 -1.6 -1.25 -1.6 -1.2 -1.55 -1.2 -1.55 -1.2 -1.55 -1.2 -1.6 -1.15 -1.6 -1.1 -1.55 -1.1 -1.5 -1.1 -1.5 -1.1 -1.45 -1.15 -1.45 -1.2 -1.45 -1.25 -1.5 -1.25 -1.55 -1.3 -1.55 -1.3 -1.6 -1.35 -1.6 -1.35 -1.55 -1.4 -1.55 -1.45 -1.55 Q-1.5 -1.55 -1.55 -1.5 L-1.55 -1.5 Q-1.6 -1.5 -1.65 -1.5 L-1.7 -1.45 -1.7 -1.45 Q-1.7 -1.4 -1.7 -1.4 L-1.7 -1.3 -1.7 -1.3 -1.65 -1.3 -1.65 -1.25 -1.6 -1.25 -1.6 -1.25 -1.55 -1.2 -1.55 -1.15 -1.5 -1.1 -1.5 -1.1 M-0.1 -1.35 L-0.05 -1.3 -0.1 -1.3 -0.1 -1.25 -0.1 -1.2 -0.05 -1.2 -0.05 -1.15 0.0 -1.1 0.05 -1.1 0.05 -1.1 0.1 -1.1 0.1 -1.05 0.1 -1.05 0.05 -1.05 0.1 -1.0 0.1 -1.0 0.05 -1.0 0.1 -0.95 0.1 -0.9 0.1 -0.9 0.1 -0.85 0.1 -0.85 0.15 -0.85 0.15 -0.8 0.15 -0.8 0.1 -0.8 0.1 -0.75 0.05 -0.75 0.05 -0.7 0.0 -0.7 0.0 -0.7 -0.05 -0.7 -0.1 -0.7 -0.1 -0.7 -0.1 -0.7 -0.15 -0.7 -0.15 -0.7 -0.15 -0.7 -0.2 -0.7 -0.25 -0.75 -0.35 -0.85 -0.35 -0.85 -0.4 -0.85 -0.4 -0.95 -0.45 -0.95 -0.45 -1.0 -0.5 -1.0 -0.5 -1.05 Q-0.55 -1.05 -0.55 -1.05 L-0.55 -1.1 -0.6 -1.1 -0.6 -1.15 -0.65 -1.15 -0.65 -1.15 -0.7 -1.2 -0.75 -1.25 -0.85 -1.35 -0.85 -1.35 -0.9 -1.4 -0.9 -1.4 -0.9 -1.45 -0.9 -1.45 -0.9 -1.55 -0.95 -1.55 -0.95 -1.6 -0.95 -1.6 -1.0 -1.6 -1.05 -1.65 -1.05 -1.6 -1.05 -1.65 -1.1 -1.65 -1.1 -1.65 -1.15 -1.6 -1.1 -1.65 -1.1 -1.7 -1.05 -1.75 -1.0 -1.75 -0.95 -1.75 -0.95 -1.75 -0.9 -1.7 -0.85 -1.7 -0.8 -1.7 -0.75 -1.65 -0.7 -1.65 -0.7 -1.6 -0.65 -1.6 -0.65 -1.6 -0.6 -1.55 -0.6 -1.55 -0.55 -1.55 -0.55 -1.5 -0.5 -1.45 -0.5 -1.45 -0.45 -1.4 -0.45 -1.4 -0.4 -1.4 -0.4 -1.4 -0.35 -1.4 -0.35 -1.35 -0.3 -1.35 -0.3 -1.35 -0.25 -1.35 -0.25 -1.35 -0.2 -1.35 -0.2 -1.35 -0.15 -1.35 -0.15 -1.35 -0.1 -1.35 M0.5 -1.25 L0.5 -1.25 0.5 -1.25 M0.0 -0.9 L0.0 -0.9 -0.05 -0.9 -0.05 -0.9 -0.1 -0.9 -0.1 -0.85 -0.1 -0.8 -0.05 -0.75 -0.05 -0.75 0.0 -0.75 0.05 -0.75 0.05 -0.8 0.05 -0.85 0.0 -0.9 M0.45 -0.5 L0.4 -0.5 0.4 -0.5 0.4 -0.45 0.4 -0.45 0.4 -0.4 0.4 -0.4 0.45 -0.45 0.45 -0.45 0.45 -0.45 0.5 -0.45 0.5 -0.45 0.5 -0.55 0.45 -0.55 0.45 -0.55 0.45 -0.5 M1.2 0.5 L1.2 0.45 1.2 0.5 M1.55 1.4 L1.55 1.35 1.5 1.35 1.45 1.35 1.45 1.25 1.5 1.25 1.45 1.2 1.4 1.2 1.35 1.15 1.3 1.1 1.25 1.05 1.25 1.1 1.2 1.05 1.15 1.0 1.1 1.0 1.1 0.95 1.05 0.95 1.05 0.9 1.0 0.95 1.0 0.95 1.05 1.0 1.05 1.05 1.0 1.0 0.95 1.0 0.95 0.95 0.9 0.9 0.85 0.85 0.8 0.85 0.8 0.9 0.85 0.9 0.85 0.95 0.9 1.0 0.9 1.05 0.85 1.05 0.9 1.1 0.95 1.15 1.0 1.15 0.95 1.15 0.9 1.1 0.9 1.15 0.95 1.25 1.0 1.25 1.0 1.35 1.1 1.45 1.1 1.5 1.15 1.5 1.15 1.55 1.2 1.55 1.2 1.45 1.15 1.45 1.15 1.4 1.1 1.4 1.1 1.35 1.05 1.3 1.05 1.25 1.0 1.2 1.05 1.25 1.05 1.3 1.1 1.3 1.1 1.35 1.15 1.4 1.2 1.4 1.2 1.45 1.25 1.5 1.25 1.4 1.25 1.45 1.3 1.45 1.3 1.5 1.35 1.5 1.4 1.55 1.5 1.6 1.6 1.6 1.6 1.55 1.65 1.45 1.7 1.5 1.7 1.55 1.75 1.6 1.75 1.65 1.8 1.7 1.85 1.6 1.9 1.55 1.9 1.6 1.85 1.6 1.85 1.55 1.8 1.55 1.8 1.5 1.75 1.5 Q1.75 1.5 1.8 1.5 L1.75 1.45 1.7 1.45 1.7 1.4 1.65 1.35 1.6 1.3 1.55 1.35 1.55 1.4 M1.55 1.75 L1.6 1.75 1.65 1.75 1.7 1.75 1.7 1.65 1.65 1.65 1.65 1.6 1.65 1.6 1.6 1.65 1.55 1.7 1.5 1.7 1.5 1.75 1.55 1.75 1.55 1.75 M1.3 1.5 L1.25 1.55 1.2 1.55 1.25 1.55 1.25 1.6 1.3 1.6 1.35 1.65 1.3 1.6 1.3 1.55 1.35 1.55 1.3 1.5 M1.25 1.55 L1.2 1.55 1.15 1.55 1.2 1.6 1.2 1.65 1.25 1.65 1.25 1.55 M-0.3 -1.25 L-0.3 -1.25 -0.35 -1.25 -0.4 -1.25 -0.4 -1.15 -0.4 -1.1 -0.4 -1.05 -0.35 -1.1 -0.4 -1.1 -0.35 -1.1 -0.35 -1.1 -0.3 -1.1 -0.25 -1.1 -0.25 -1.15 -0.2 -1.15 -0.2 -1.2 -0.25 -1.25 -0.3 -1.25 -0.3 -1.25 M-0.1 -1.1 L-0.1 -1.05 -0.1 -1.05 -0.1 -1.05 -0.05 -1.05 -0.05 -1.0 0.0 -1.05 0.0 -1.05 0.0 -1.05 0.0 -1.1 -0.05 -1.1 -0.05 -1.1 -0.1 -1.1 -0.1 -1.1 -0.1 -1.1 -0.1 -1.1 -0.1 -1.1 M-0.15 -1.1 L-0.2 -1.1 -0.2 -1.1 -0.25 -1.05 -0.3 -1.0 -0.25 -1.0 -0.25 -0.95 -0.2 -0.95 -0.2 -0.95 -0.15 -0.95 -0.15 -1.0 -0.15 -1.05 -0.2 -1.05 -0.2 -1.05 -0.15 -1.1 -0.15 -1.1 M-0.15 -1.15 L-0.15 -1.15 -0.15 -1.15 M-0.3 -1.0 L-0.3 -0.95 -0.3 -1.0 M-0.15 -0.95 L-0.15 -0.95 -0.15 -0.9 -0.15 -0.85 -0.15 -0.9 -0.1 -0.9 -0.1 -0.95 -0.1 -0.95 -0.05 -1.0 -0.05 -1.0 -0.1 -1.0 -0.1 -0.95 -0.15 -0.95 M-0.75 -0.7 L-0.75 -0.75 -0.7 -0.75 -0.7 -0.75 -0.65 -0.75 -0.6 -0.75 -0.6 -0.8 -0.65 -0.8 -0.6 -0.8 -0.6 -0.8 -0.55 -0.8 -0.55 -0.8 -0.5 -0.75 -0.5 -0.75 -0.5 -0.85 -0.55 -0.85 -0.55 -0.85 -0.6 -0.85 -0.65 -0.85 -0.65 -0.9 -0.65 -0.9 -0.7 -0.95 -0.75 -0.95 -0.75 -0.95 -0.7 -0.95 -0.65 -1.0 -0.7 -1.0 -0.7 -1.0 -0.75 -1.0 -0.8 -1.0 -0.85 -0.95 -0.85 -0.85 -0.9 -0.8 -0.85 -0.75 -0.85 -0.7 -0.85 -0.65 -0.85 -0.65 -0.8 -0.6 -0.75 -0.55 -0.7 -0.45 -0.6 -0.45 -0.5 -0.5 -0.4 -0.55 -0.45 -0.6 -0.45 -0.7 -0.5 -0.7 -0.6 -0.7 -0.6 -0.7 -0.7 -0.7 -0.75 -0.7 M-0.85 -1.15 L-0.85 -1.2 -0.85 -1.15 -0.8 -1.15 -0.8 -1.1 -0.8 -1.05 -0.8 -1.15 -0.85 -1.15" fill="#6a5351" fill-rule="evenodd" stroke="none"/>
    <path d="M0.4 -1.45 L0.4 -1.45 0.35 -1.45 0.35 -1.45 0.4 -1.45 0.4 -1.45 0.45 -1.45 0.45 -1.4 0.5 -1.4 0.5 -1.4 0.5 -1.35 0.5 -1.35 Q0.5 -1.35 0.45 -1.35 L0.45 -1.4 0.4 -1.4 0.4 -1.45 M0.55 -1.1 L0.6 -1.1 0.55 -1.05 0.55 -1.1 0.5 -1.1 0.5 -1.1 0.45 -1.1 0.45 -1.1 0.4 -1.1 0.4 -1.1 0.35 -1.15 0.3 -1.15 0.3 -1.15 0.25 -1.2 0.25 -1.2 0.2 -1.2 0.2 -1.15 0.2 -1.15 0.15 -1.15 0.15 -1.25 0.2 -1.25 0.2 -1.3 0.2 -1.3 0.25 -1.35 0.25 -1.35 0.2 -1.35 0.2 -1.35 0.2 -1.35 0.2 -1.4 0.25 -1.4 0.25 -1.45 0.3 -1.45 0.3 -1.45 0.3 -1.4 0.35 -1.4 0.4 -1.35 0.4 -1.35 0.45 -1.3 0.5 -1.3 0.5 -1.25 0.5 -1.25 0.5 -1.25 0.5 -1.25 0.45 -1.25 0.45 -1.25 0.4 -1.3 0.4 -1.25 0.4 -1.25 0.45 -1.2 0.45 -1.2 0.5 -1.15 0.5 -1.15 0.55 -1.1 0.55 -1.1 M0.35 -1.0 L0.35 -0.95 0.35 -0.9 0.55 -0.65 0.55 -0.65 0.5 -0.6 0.5 -0.6 0.45 -0.6 0.45 -0.6 0.45 -0.55 0.4 -0.55 0.4 -0.5 0.4 -0.55 0.4 -0.55 0.4 -0.6 0.45 -0.6 0.45 -0.65 0.4 -0.65 0.45 -0.7 0.45 -0.7 0.4 -0.7 0.4 -0.75 0.35 -0.75 0.35 -0.8 0.3 -0.8 0.3 -0.8 0.25 -0.75 0.25 -0.75 0.2 -0.75 0.2 -0.7 0.2 -0.65 0.15 -0.65 0.15 -0.65 0.15 -0.65 0.1 -0.6 0.1 -0.6 0.05 -0.6 0.05 -0.6 0.0 -0.6 0.0 -0.6 -0.05 -0.6 -0.05 -0.6 -0.05 -0.6 -0.1 -0.6 -0.1 -0.6 -0.1 -0.6 -0.15 -0.65 -0.2 -0.7 -0.15 -0.7 -0.15 -0.7 -0.15 -0.7 -0.1 -0.7 -0.1 -0.7 -0.1 -0.7 -0.05 -0.7 0.0 -0.7 0.0 -0.65 0.05 -0.65 0.05 -0.65 0.1 -0.7 0.1 -0.7 0.15 -0.75 0.15 -0.75 0.2 -0.75 0.2 -0.8 0.25 -0.8 0.25 -0.85 0.3 -0.9 0.3 -0.95 0.3 -1.0 0.3 -1.0 0.3 -0.95 Q0.25 -0.95 0.3 -1.0 L0.25 -1.0 0.25 -1.0 0.2 -1.0 0.2 -0.95 0.2 -0.9 0.2 -0.85 0.15 -0.85 0.1 -0.85 0.1 -0.85 0.1 -0.9 0.1 -0.9 0.1 -0.95 0.05 -1.0 0.1 -1.0 0.1 -1.0 0.05 -1.05 0.1 -1.05 0.1 -1.05 0.1 -1.1 0.05 -1.1 0.05 -1.1 0.0 -1.1 -0.05 -1.15 -0.05 -1.2 -0.1 -1.2 -0.1 -1.25 -0.1 -1.3 -0.05 -1.3 -0.05 -1.3 0.0 -1.3 0.05 -1.25 0.05 -1.2 0.1 -1.2 0.1 -1.2 0.1 -1.15 0.15 -1.15 0.2 -1.15 0.2 -1.15 0.25 -1.1 0.25 -1.1 0.3 -1.1 0.3 -1.05 0.35 -1.05 Q0.35 -1.0 0.35 -1.0 M0.75 -0.35 L0.8 -0.3 0.8 -0.3 0.75 -0.25 0.75 -0.3 0.7 -0.3 0.75 -0.35 0.75 -0.35 M0.9 -0.2 L0.9 -0.1 0.9 -0.1 0.85 -0.1 0.85 -0.1 0.85 -0.1 0.8 -0.1 0.8 -0.15 0.85 -0.15 0.85 -0.15 0.8 -0.15 0.8 -0.2 0.8 -0.25 0.9 -0.2 M1.15 0.3 L1.15 0.35 1.1 0.4 1.1 0.35 1.15 0.3 M-1.4 -1.85 L-1.4 -1.85 -1.35 -1.85 -1.3 -1.85 -1.25 -1.85 -1.25 -1.8 Q-0.6 -1.75 -0.3 -1.55 L-0.25 -1.5 -0.2 -1.4 -0.15 -1.4 -0.1 -1.35 -0.15 -1.35 -0.15 -1.35 -0.2 -1.35 -0.2 -1.35 -0.25 -1.35 -0.25 -1.35 -0.3 -1.35 -0.3 -1.35 -0.35 -1.35 -0.35 -1.4 -0.4 -1.4 -0.4 -1.4 -0.45 -1.4 -0.45 -1.4 -0.5 -1.45 -0.5 -1.45 -0.55 -1.5 -0.55 -1.55 -0.6 -1.55 -0.6 -1.55 -0.65 -1.6 -0.65 -1.6 -0.7 -1.6 -0.7 -1.65 -0.75 -1.65 -0.8 -1.7 -0.85 -1.7 -0.9 -1.7 -0.95 -1.75 -0.95 -1.75 -1.0 -1.75 -1.05 -1.75 -1.05 -1.8 -1.1 -1.75 -1.1 -1.75 -1.1 -1.75 -1.15 -1.75 -1.2 -1.8 -1.2 -1.8 -1.25 -1.8 -1.3 -1.8 -1.3 -1.8 -1.35 -1.85 -1.4 -1.85 M0.7 0.05 L0.75 0.1 0.75 0.15 0.8 0.2 0.85 0.3 0.9 0.4 0.95 0.4 1.0 0.45 1.0 0.5 1.05 0.45 1.1 0.45 1.05 0.5 1.05 0.55 1.1 0.55 1.05 0.6 1.1 0.6 1.1 0.65 1.15 0.65 1.15 0.7 1.2 0.75 1.2 0.8 1.25 0.85 1.2 0.8 1.15 0.8 1.1 0.8 1.05 0.8 1.05 0.75 1.0 0.75 1.0 0.7 0.95 0.7 0.95 0.65 0.9 0.65 0.85 0.6 0.8 0.6 0.75 0.55 0.7 0.5 0.65 0.45 Q0.65 0.4 0.65 0.4 L0.7 0.35 0.7 0.25 0.7 0.15 0.65 0.05 0.65 -0.05 0.65 -0.05 0.7 0.05 M1.0 0.6 L1.05 0.55 0.95 0.55 0.95 0.5 0.9 0.5 0.85 0.5 0.85 0.45 0.85 0.45 0.8 0.5 0.85 0.5 0.8 0.5 0.85 0.55 0.9 0.55 0.9 0.6 0.95 0.6 0.95 0.65 1.0 0.65 1.05 0.7 1.1 0.7 1.1 0.75 1.15 0.75 1.15 0.7 1.1 0.65 1.05 0.6 1.0 0.6 M1.0 1.15 L0.95 1.15 0.9 1.1 0.85 1.05 0.9 1.05 0.9 1.0 0.85 0.95 0.85 0.9 0.8 0.9 0.8 0.85 0.85 0.85 0.9 0.9 0.95 0.95 0.95 1.0 1.0 1.0 1.05 1.05 1.05 1.0 1.0 0.95 1.0 0.95 1.05 0.9 1.05 0.95 1.1 0.95 1.1 1.0 1.15 1.0 1.2 1.05 1.25 1.1 1.25 1.05 1.3 1.1 1.35 1.15 1.4 1.2 1.45 1.2 1.5 1.25 1.45 1.25 1.45 1.35 1.5 1.35 1.55 1.35 1.55 1.4 1.6 1.4 1.65 1.45 1.6 1.55 1.6 1.6 1.5 1.6 1.4 1.55 1.35 1.5 1.3 1.5 1.3 1.45 1.25 1.45 1.25 1.4 1.25 1.5 1.2 1.45 1.2 1.4 1.15 1.4 1.1 1.35 1.1 1.3 1.05 1.3 1.05 1.25 1.0 1.2 1.0 1.15 M1.3 1.5 L1.35 1.55 1.3 1.55 1.3 1.6 1.35 1.65 1.3 1.6 1.25 1.6 1.25 1.55 1.2 1.55 1.25 1.55 1.3 1.5" fill="#1e1614" fill-rule="evenodd" stroke="none"/>
    <path d="M0.8 -0.3 L0.8 -0.3 0.8 -0.3 0.8 -0.25 0.8 -0.2 0.8 -0.15 0.85 -0.15 0.8 -0.15 0.8 -0.15 0.75 -0.15 0.75 -0.15 0.75 -0.2 0.7 -0.25 0.7 -0.25 0.75 -0.25 0.8 -0.3 M0.95 -0.05 L0.95 0.05 0.9 0.05 0.85 0.0 0.9 0.0 0.9 -0.05 0.95 -0.05" fill="#c1a88e" fill-rule="evenodd" stroke="none"/>
    <path d="M0.65 -0.55 L0.65 -0.55 0.7 -0.6 0.75 -0.65 0.85 -0.65 0.75 -0.55 0.65 -0.5 0.65 -0.45 0.6 -0.45 0.6 -0.4 0.6 -0.4 0.6 -0.4 0.65 -0.35 0.65 -0.35 0.6 -0.35 0.6 -0.35 0.55 -0.35 0.55 -0.4 0.55 -0.45 0.6 -0.5 0.65 -0.55" fill="#9e9ca5" fill-rule="evenodd" stroke="none"/>
    <path d="M0.45 -0.5 L0.45 -0.55 0.45 -0.55 0.5 -0.55 0.5 -0.45 0.5 -0.45 0.45 -0.45 0.45 -0.45 0.45 -0.45 0.4 -0.4 0.4 -0.4 0.4 -0.45 0.4 -0.45 0.4 -0.45 0.45 -0.5 0.45 -0.55 0.45 -0.5" fill="#b4967c" fill-rule="evenodd" stroke="none"/>
    <path d="M0.4 -0.45 L0.4 -0.5 0.4 -0.5 0.45 -0.5 0.45 -0.55 0.45 -0.5 0.4 -0.45 0.4 -0.45" fill="#e5e1da" fill-rule="evenodd" stroke="none"/>
    <path d="M-1.4 -1.15 L-1.5 -1.1 -1.5 -1.1 -1.55 -1.15 -1.55 -1.2 -1.6 -1.25 -1.6 -1.25 -1.65 -1.25 -1.65 -1.3 -1.7 -1.3 -1.7 -1.3 -1.7 -1.4 Q-1.7 -1.4 -1.7 -1.45 L-1.7 -1.45 -1.65 -1.5 Q-1.6 -1.5 -1.55 -1.5 L-1.55 -1.5 Q-1.5 -1.55 -1.45 -1.55 L-1.4 -1.55 -1.35 -1.55 -1.35 -1.6 -1.3 -1.6 -1.3 -1.55 -1.25 -1.55 -1.25 -1.5 -1.2 -1.45 -1.15 -1.45 -1.1 -1.45 -1.1 -1.5 -1.1 -1.5 -1.1 -1.55 -1.05 -1.55 -1.05 -1.55 -1.05 -1.6 -1.05 -1.65 -1.0 -1.6 -0.95 -1.6 -0.95 -1.6 -0.95 -1.55 -0.9 -1.55 -0.9 -1.45 -0.9 -1.45 -0.9 -1.4 -0.9 -1.4 -0.85 -1.35 -0.85 -1.35 -0.75 -1.25 -0.7 -1.2 -0.65 -1.15 -0.65 -1.15 -0.6 -1.15 -0.6 -1.1 -0.55 -1.1 -0.55 -1.05 Q-0.55 -1.05 -0.5 -1.05 L-0.5 -1.0 -0.45 -1.0 -0.45 -0.95 -0.4 -0.95 -0.4 -0.85 -0.35 -0.85 -0.35 -0.85 -0.25 -0.75 -0.2 -0.7 -0.15 -0.65 -0.1 -0.6 -0.1 -0.5 -0.05 -0.45 0.0 -0.4 0.0 -0.4 0.05 -0.4 0.05 -0.35 0.1 -0.35 0.1 -0.3 0.15 -0.3 0.15 -0.25 0.15 -0.25 0.2 -0.2 0.15 -0.2 0.15 -0.15 0.2 -0.15 0.2 -0.1 0.2 -0.1 0.25 -0.05 0.25 -0.05 0.25 0.0 0.3 0.0 0.3 -0.05 0.3 -0.1 0.3 -0.15 0.35 -0.15 0.35 -0.25 0.35 -0.3 0.35 -0.3 0.3 -0.35 0.3 -0.35 Q0.3 -0.4 0.3 -0.4 L0.3 -0.4 0.35 -0.45 0.35 -0.45 0.35 -0.4 0.4 -0.35 0.4 -0.35 0.45 -0.35 0.45 -0.4 0.5 -0.35 0.5 -0.35 0.45 -0.3 0.45 -0.2 0.45 -0.15 0.45 -0.2 0.5 -0.2 0.5 -0.2 0.5 -0.2 0.55 -0.25 0.55 -0.3 0.55 -0.35 0.5 -0.4 0.55 -0.4 0.55 -0.35 0.6 -0.35 0.6 -0.35 0.65 -0.35 0.65 -0.3 0.6 -0.25 0.65 -0.2 0.65 -0.15 0.6 -0.15 0.6 -0.1 0.55 -0.05 0.6 -0.1 0.6 -0.05 0.6 -0.05 0.55 0.0 0.55 0.0 0.5 0.0 0.45 -0.05 0.45 -0.1 0.4 -0.1 0.35 -0.15 0.35 -0.05 0.4 -0.05 0.45 0.0 0.5 0.1 0.55 0.2 0.55 0.25 0.6 0.25 0.55 0.3 0.5 0.2 0.45 0.1 0.45 0.15 0.4 0.1 0.4 0.15 0.45 0.2 0.5 0.25 0.5 0.3 0.55 0.35 0.5 0.35 0.45 0.35 0.4 0.35 0.4 0.4 -0.05 -0.2 -0.6 -0.95 -0.7 -1.05 -0.7 -1.1 Q-0.85 -1.25 -1.05 -1.25 L-1.1 -1.25 -1.1 -1.25 -1.3 -1.2 -1.35 -1.15 -1.4 -1.15" fill="#201f1f" fill-rule="evenodd" stroke="none"/>
    <path d="M0.45 -0.3 L0.5 -0.3 0.5 -0.25 0.45 -0.2 0.5 -0.2 0.5 -0.2 0.45 -0.2 0.45 -0.15 0.45 -0.2 0.45 -0.3" fill="#b2a9a8" fill-rule="evenodd" stroke="none"/>
    <path d="M0.55 -1.05 L0.4 -1.05 0.4 -1.1 0.3 -1.1 0.3 -1.15 0.25 -1.15 0.2 -1.15 0.2 -1.15 0.2 -1.2 0.25 -1.2 0.25 -1.2 0.3 -1.15 0.3 -1.15 0.35 -1.15 0.4 -1.1 0.4 -1.1 0.45 -1.1 0.45 -1.1 0.5 -1.1 0.5 -1.1 0.55 -1.1 0.55 -1.05" fill="#6a6969" fill-rule="evenodd" stroke="none"/>
    <path d="M0.35 -1.5 L0.35 -1.5 0.4 -1.5 0.4 -1.5 0.4 -1.5 0.4 -1.5 0.35 -1.5 0.35 -1.4 0.4 -1.4 0.45 -1.35 0.5 -1.3 0.5 -1.3 0.5 -1.25 0.5 -1.3 0.45 -1.3 0.4 -1.35 0.4 -1.35 0.35 -1.4 0.3 -1.4 0.3 -1.45 0.3 -1.5 0.35 -1.5 M0.5 -1.25 L0.5 -1.2 0.55 -1.2 0.55 -1.15 Q0.55 -1.15 0.5 -1.2 L0.5 -1.2 0.45 -1.2 0.4 -1.25 0.4 -1.25 0.4 -1.3 0.45 -1.25 0.45 -1.25 0.5 -1.25 0.5 -1.25" fill="#908e97" fill-rule="evenodd" stroke="none"/>
    <path d="M0.4 -1.05 L0.35 -1.05 0.35 -1.0 Q0.35 -1.0 0.35 -1.05 L0.3 -1.05 0.3 -1.1 0.25 -1.1 0.25 -1.1 0.2 -1.15 0.25 -1.15 0.3 -1.15 0.3 -1.1 0.4 -1.1 0.4 -1.05" fill="#9c9999" fill-rule="evenodd" stroke="none"/>
    <path d="M0.15 -0.85 L0.2 -0.85 0.2 -0.9 0.2 -0.95 0.2 -1.0 0.25 -1.0 0.25 -1.0 0.3 -1.0 Q0.25 -0.95 0.3 -0.95 L0.3 -1.0 0.3 -1.0 0.3 -0.95 0.3 -0.9 0.25 -0.85 0.25 -0.8 0.2 -0.8 0.2 -0.75 0.15 -0.75 0.15 -0.75 0.1 -0.7 0.1 -0.7 0.05 -0.65 0.05 -0.65 0.0 -0.65 0.0 -0.7 0.0 -0.7 0.05 -0.7 0.05 -0.75 0.1 -0.75 0.1 -0.8 0.15 -0.8 0.15 -0.8 0.15 -0.85" fill="#8d99ac" fill-rule="evenodd" stroke="none"/>
    <path d="M-0.1 -0.8 L-0.1 -0.85 -0.05 -0.85 0.0 -0.9 0.0 -0.9 0.05 -0.85 0.05 -0.8 0.05 -0.75 0.0 -0.75 -0.05 -0.75 -0.05 -0.75 -0.1 -0.8" fill="#252732" fill-rule="evenodd" stroke="none"/>
    <path d="M-0.1 -0.8 L-0.1 -0.85 -0.1 -0.9 -0.05 -0.9 -0.05 -0.9 0.0 -0.9 0.0 -0.9 0.0 -0.9 -0.05 -0.85 -0.1 -0.85 -0.1 -0.8" fill="#8792a5" fill-rule="evenodd" stroke="none"/>
    <path d="M-0.15 -1.15 L-0.15 -1.15 -0.15 -1.15 M-0.15 -1.1 L-0.15 -1.1 -0.2 -1.05 -0.2 -1.05 -0.15 -1.05 -0.15 -1.0 -0.15 -0.95 -0.2 -0.95 -0.2 -0.95 -0.25 -0.95 -0.25 -1.0 -0.3 -1.0 -0.25 -1.05 -0.2 -1.1 -0.2 -1.1 -0.15 -1.1 M-0.2 -1.0 L-0.2 -1.0 -0.25 -1.0 -0.2 -1.0 -0.2 -1.0 -0.2 -1.0 M-0.15 -0.95 L-0.1 -0.95 -0.1 -1.0 -0.05 -1.0 -0.05 -1.0 -0.1 -0.95 -0.1 -0.95 -0.1 -0.9 -0.15 -0.9 -0.15 -0.85 -0.15 -0.9 -0.15 -0.95 -0.15 -0.95 M-0.3 -1.0 L-0.3 -0.95 -0.3 -1.0" fill="#2b3245" fill-rule="evenodd" stroke="none"/>
    <path d="M1.15 0.4 L1.2 0.4 1.2 0.45 1.2 0.5 1.15 0.5 1.1 0.55 1.05 0.55 1.05 0.5 1.1 0.45 1.05 0.45 1.0 0.5 1.0 0.45 0.95 0.4 0.9 0.4 0.85 0.3 0.8 0.2 0.75 0.15 0.75 0.1 0.7 0.05 0.7 0.0 0.7 -0.1 0.7 -0.25 0.7 -0.15 0.75 -0.15 0.75 -0.15 0.75 -0.05 0.8 -0.05 0.8 -0.05 0.85 0.0 0.85 0.05 0.9 0.1 0.9 0.15 0.95 0.15 0.95 0.2 1.0 0.2 1.0 0.25 1.0 0.35 1.05 0.4 1.0 0.45 1.05 0.45 1.05 0.4 1.1 0.45 1.15 0.4" fill="#c49463" fill-rule="evenodd" stroke="none"/>
    <path d="M1.0 0.6 L1.05 0.6 1.1 0.65 1.15 0.7 1.15 0.75 1.1 0.75 1.1 0.7 1.05 0.7 1.0 0.65 0.95 0.65 0.95 0.6 0.9 0.6 0.9 0.55 0.85 0.55 0.8 0.5 0.85 0.5 0.8 0.5 0.85 0.45 0.85 0.45 0.85 0.5 0.9 0.5 0.95 0.5 0.95 0.55 1.05 0.55 1.0 0.6" fill="#663831" fill-rule="evenodd" stroke="none"/>
    <path d="M1.1 0.65 L1.1 0.6 1.05 0.6 1.1 0.55 1.1 0.6 1.1 0.65 M1.15 0.5 L1.2 0.5 1.15 0.55 1.1 0.55 1.15 0.5" fill="#c09c77" fill-rule="evenodd" stroke="none"/>
    <path d="M1.25 0.85 L1.2 0.8 1.2 0.75 1.15 0.7 1.15 0.65 1.1 0.65 1.1 0.6 1.1 0.55 1.15 0.6 1.2 0.6 1.2 0.65 1.25 0.65 1.25 0.75 1.3 0.7 1.3 0.75 1.35 0.8 1.3 0.8 1.35 0.85 1.35 0.9 1.4 0.95 1.45 1.0 1.45 1.05 1.5 1.05 1.5 1.15 1.45 1.15 1.4 1.1 1.4 1.05 1.35 1.0 1.3 0.95 1.25 0.85" fill="#c29364" fill-rule="evenodd" stroke="none"/>
    <path d="M0.9 -0.1 L0.95 -0.1 0.95 -0.05 0.9 -0.05 0.9 -0.05 0.85 -0.1 0.85 -0.1 0.9 -0.1 0.9 -0.1" fill="#856c62" fill-rule="evenodd" stroke="none"/>
    <path d="M0.65 -0.05 L0.65 0.05 0.7 0.15 0.7 0.25 0.7 0.35 0.65 0.4 0.65 0.35 0.65 0.3 0.7 0.25 0.65 0.25 0.6 0.15 Q0.6 0.1 0.6 0.05 L0.65 -0.05" fill="#999091" fill-rule="evenodd" stroke="none"/>
    <path d="M0.65 0.35 L0.65 0.4 0.6 0.4 0.6 0.35 0.65 0.35" fill="#9598a4" fill-rule="evenodd" stroke="none"/>
    <path d="M2.0 1.6 L1.95 1.65 1.85 1.8 1.85 1.75 1.7 1.8 1.6 1.85 1.65 1.85 1.7 1.85 1.75 1.85 1.8 1.8 1.6 1.9 1.5 1.9 1.5 1.85 1.55 1.85 1.55 1.8 1.65 1.8 1.7 1.8 1.75 1.75 1.8 1.75 1.8 1.7 1.85 1.7 1.85 1.65 1.9 1.65 1.95 1.6 2.0 1.6 M1.65 1.45 L1.6 1.4 1.55 1.4 1.55 1.35 1.6 1.3 1.65 1.35 1.7 1.4 1.7 1.45 1.75 1.45 1.8 1.5 Q1.75 1.5 1.75 1.5 L1.8 1.5 1.8 1.55 1.85 1.55 1.85 1.6 1.9 1.6 1.9 1.55 1.85 1.6 1.8 1.7 1.75 1.65 1.75 1.6 1.7 1.55 1.7 1.5 1.65 1.45 M1.55 1.75 L1.55 1.75 1.5 1.75 1.5 1.7 1.55 1.7 1.55 1.75" fill="#ba946f" fill-rule="evenodd" stroke="none"/>
    <path d="M1.0 1.15 L1.0 1.2 1.05 1.25 1.05 1.3 1.1 1.35 1.1 1.4 1.15 1.4 1.15 1.45 1.2 1.45 1.2 1.55 1.15 1.55 1.15 1.5 1.1 1.5 1.1 1.45 1.0 1.35 1.0 1.25 0.95 1.25 0.9 1.15 0.9 1.1 0.95 1.15 1.0 1.15 M1.25 1.55 L1.25 1.65 1.2 1.65 1.2 1.6 1.15 1.55 1.2 1.55 1.25 1.55" fill="#aaa2a3" fill-rule="evenodd" stroke="none"/>
    <path d="M1.55 1.7 L1.6 1.65 1.65 1.6 1.65 1.6 1.65 1.65 1.7 1.65 1.7 1.75 1.65 1.75 1.6 1.75 1.55 1.75 1.55 1.7" fill="#3f312b" fill-rule="evenodd" stroke="none"/>
    <path d="M1.85 1.8 L1.8 1.8 1.75 1.85 1.7 1.85 1.65 1.85 1.6 1.85 1.7 1.8 1.85 1.75 1.85 1.8" fill="#e9e2d5" fill-rule="evenodd" stroke="none"/>
    <path d="M0.45 -1.45 L0.45 -1.55 0.45 -1.55 0.5 -1.55 0.5 -1.55 0.5 -1.5 0.55 -1.45 0.5 -1.45 0.5 -1.45 0.45 -1.5 0.45 -1.45 0.45 -1.45 M0.55 -1.6 L0.55 -1.6 0.6 -1.6 0.6 -1.55 0.65 -1.55 0.65 -1.55 0.6 -1.5 0.6 -1.45 0.6 -1.5 0.55 -1.5 0.55 -1.5 0.5 -1.55 0.5 -1.5 0.55 -1.55 0.55 -1.6 M0.55 -1.5 L0.6 -1.5 0.6 -1.55 0.55 -1.55 0.55 -1.5" fill="#74737d" fill-rule="evenodd" stroke="none"/>
    <path d="M0.4 -1.45 L0.45 -1.45 0.45 -1.45 0.45 -1.45 0.45 -1.5 0.5 -1.45 0.5 -1.45 0.55 -1.45 0.5 -1.5 0.5 -1.55 0.55 -1.5 0.55 -1.5 0.6 -1.5 0.6 -1.45 0.6 -1.45 0.55 -1.45 0.55 -1.45 0.55 -1.45 0.5 -1.4 0.5 -1.4 0.5 -1.4 0.45 -1.4 0.45 -1.45 0.4 -1.45 0.4 -1.45 M0.55 -1.5 L0.55 -1.5" fill="#625f67" fill-rule="evenodd" stroke="none"/>
    <path d="M0.5 -1.55 L0.55 -1.6 0.55 -1.6 0.55 -1.55 0.5 -1.5 0.5 -1.55 M0.55 -1.5 L0.55 -1.55 0.6 -1.55 0.6 -1.5 0.55 -1.5 0.55 -1.5" fill="#bdc9d5" fill-rule="evenodd" stroke="none"/>
    <path d="M-1.05 -1.75 L-1.1 -1.7 -1.1 -1.65 -1.15 -1.6 -1.1 -1.65 -1.1 -1.65 -1.1 -1.6 -1.05 -1.55 -1.05 -1.55 -1.1 -1.55 -1.15 -1.6 -1.2 -1.6 -1.2 -1.55 -1.2 -1.55 -1.2 -1.55 -1.25 -1.6 -1.25 -1.6 -1.25 -1.65 -1.25 -1.7 -1.25 -1.7 -1.2 -1.7 -1.2 -1.7 -1.15 -1.7 -1.15 -1.7 -1.1 -1.75 -1.1 -1.75 -1.05 -1.8 -1.05 -1.75" fill="#af9e93" fill-rule="evenodd" stroke="none"/>
    <path d="M-1.1 -1.65 L-1.05 -1.65 -1.05 -1.6 -1.05 -1.55 -1.1 -1.6 -1.1 -1.65" fill="#b69b80" fill-rule="evenodd" stroke="none"/>
    <path d="M0.1 -1.2 L0.1 -1.25 0.1 -1.25 0.15 -1.25 0.15 -1.3 0.2 -1.35 0.2 -1.35 0.25 -1.35 0.25 -1.35 0.2 -1.3 0.2 -1.3 0.2 -1.25 0.15 -1.25 0.15 -1.15 0.1 -1.15 0.1 -1.2 0.1 -1.2 M0.2 -1.15 L0.2 -1.15 0.15 -1.15 0.15 -1.15 0.2 -1.15" fill="#959cac" fill-rule="evenodd" stroke="none"/>
    <path d="M0.35 -1.5 L0.35 -1.55 0.4 -1.55 0.4 -1.5 0.4 -1.5 0.35 -1.5 0.35 -1.5" fill="#becfe1" fill-rule="evenodd" stroke="none"/>
    <path d="M-0.3 -1.25 L-0.3 -1.25 -0.25 -1.25 -0.2 -1.2 -0.2 -1.15 -0.25 -1.15 -0.25 -1.1 -0.3 -1.1 -0.35 -1.1 -0.35 -1.1 -0.4 -1.1 -0.35 -1.1 -0.4 -1.05 -0.4 -1.1 -0.4 -1.15 -0.4 -1.25 -0.35 -1.25 -0.3 -1.25 -0.3 -1.25 M-0.1 -1.1 L-0.1 -1.1 -0.1 -1.1 -0.1 -1.1 -0.1 -1.1 -0.05 -1.1 -0.05 -1.1 0.0 -1.1 0.0 -1.05 0.0 -1.05 0.0 -1.05 -0.05 -1.0 -0.05 -1.05 -0.1 -1.05 -0.1 -1.05 -0.1 -1.05 -0.1 -1.1 M-0.2 -1.0 L-0.2 -1.0 -0.2 -1.0 -0.25 -1.0 -0.2 -1.0 -0.2 -1.0" fill="#8f9db3" fill-rule="evenodd" stroke="none"/>
    <path d="M-0.65 -0.85 L-0.6 -0.85 -0.55 -0.85 -0.55 -0.85 -0.5 -0.85 -0.5 -0.75 -0.5 -0.75 -0.55 -0.8 -0.55 -0.8 -0.6 -0.8 -0.6 -0.8 -0.65 -0.8 -0.6 -0.8 -0.6 -0.75 -0.65 -0.75 -0.7 -0.75 -0.7 -0.75 -0.75 -0.75 -0.75 -0.7 -0.75 -0.75 -0.7 -0.8 -0.65 -0.8 -0.65 -0.85 -0.65 -0.85 M-0.85 -0.65 L-0.85 -0.7 -0.85 -0.75 -0.9 -0.8 -0.85 -0.85 -0.85 -0.95 -0.8 -1.0 -0.75 -1.0 -0.7 -1.0 -0.7 -1.0 -0.65 -1.0 -0.7 -0.95 -0.75 -0.95 -0.75 -0.95 -0.75 -0.95 Q-0.8 -0.9 -0.8 -0.9 L-0.85 -0.85 -0.85 -0.75 -0.8 -0.7 -0.85 -0.65 -0.85 -0.65 M-0.85 -1.15 L-0.8 -1.15 -0.8 -1.05 -0.8 -1.1 -0.8 -1.15 -0.85 -1.15 -0.85 -1.2 -0.85 -1.15" fill="#282424" fill-rule="evenodd" stroke="none"/>
    <path d="M-1.1 -1.25 L-1.05 -1.25 -1.05 -1.25 -1.2 -1.2 -1.3 -1.2 -1.1 -1.25 -1.1 -1.25" fill="#deccaf" fill-rule="evenodd" stroke="none"/>
    <path d="M-1.85 -1.6 L-1.8 -1.55 -1.8 -1.5 -1.75 -1.5 -1.75 -1.4 -1.8 -1.4 -1.8 -1.35 -1.8 -1.35 -1.85 -1.35 -1.85 -1.5 -1.85 -1.6" fill="#efe5cf" fill-rule="evenodd" stroke="none"/>
    <path d="M-1.9 -1.4 L-1.9 -1.55 -1.9 -1.6 -1.85 -1.65 -1.85 -1.6 -1.85 -1.5 -1.85 -1.35 -1.8 -1.35 -1.8 -1.35 -1.8 -1.3 -1.8 -1.3 -1.85 -1.35 -1.85 -1.35 -1.85 -1.4 -1.9 -1.4" fill="#af957d" fill-rule="evenodd" stroke="none"/>
    <path d="M0.4 -1.5 L0.4 -1.55 0.35 -1.55 0.35 -1.5 0.3 -1.5 0.3 -1.45 0.3 -1.45 0.25 -1.45 0.25 -1.4 0.2 -1.4 0.2 -1.35 0.2 -1.35 0.15 -1.3 0.15 -1.25 0.1 -1.25 0.1 -1.25 0.1 -1.2 0.05 -1.2 0.05 -1.25 0.0 -1.3 -0.05 -1.3 -0.05 -1.3 -0.1 -1.35 -0.15 -1.4 -0.2 -1.4 -0.25 -1.5 -0.3 -1.55 Q-0.6 -1.75 -1.25 -1.8 L-1.25 -1.85 -1.3 -1.85 -1.35 -1.85 -1.4 -1.85 -1.4 -1.85 -1.5 -1.8 -1.65 -1.75 -1.75 -1.75 -1.8 -1.75 -1.8 -1.7 -1.85 -1.7 -1.85 -1.65 -1.9 -1.6 -1.9 -1.55 -1.9 -1.4 -1.9 -1.35 -1.85 -1.25 -1.75 -1.15 -1.65 -1.1 -1.55 -1.1 -1.5 -1.1 -1.4 -1.15 -1.2 -1.15 -1.05 -1.15 -0.9 -1.15 -0.9 -1.05 -0.9 -0.95 -0.9 -0.9 -0.9 -0.85 -0.9 -0.85 -0.95 -0.75 -0.95 -0.65 -0.95 -0.6 -0.9 -0.55 -0.9 -0.5 -0.85 -0.45 -0.8 -0.45 -0.75 -0.4 -0.75 -0.4 -0.65 -0.4 -0.55 -0.4 -0.5 -0.4 -0.35 -0.4 -0.3 -0.4 -0.3 -0.4 -0.25 -0.35 -0.25 -0.3 -0.2 -0.25 -0.2 -0.2 -0.15 -0.2 -0.1 -0.15 -0.05 -0.05 0.0 0.1 0.05 0.1 0.05 0.15 0.1 0.15 0.1 0.2 0.15 0.25 0.2 0.25 0.25 0.35 0.3 0.45 0.35 0.45 0.4 0.5 0.4 0.55 0.45 0.6 0.45 0.65 0.5 0.65 0.55 0.7 0.65 0.75 0.75 0.95 0.85 1.1 1.1 1.5 1.15 1.6 1.2 1.7 Q1.2 1.7 1.3 1.7 L1.35 1.65 1.4 1.75 1.4 1.85 1.5 1.9 1.6 1.9 1.8 1.8 1.85 1.8 1.95 1.65 2.0 1.6 Q2.05 1.5 2.0 1.4 L1.8 1.3 1.65 1.15 1.65 1.2 1.6 1.2 1.5 1.3 1.55 1.3 1.55 1.35 1.6 1.3 1.6 1.25 1.65 1.25 1.6 1.25 1.6 1.2 1.55 1.15 1.55 1.1 1.6 1.1 1.6 1.1 1.6 1.15 1.55 1.2 1.5 1.2 1.55 1.2 1.55 1.15 1.6 1.05 1.25 0.45 1.2 0.45 1.2 0.5 1.15 0.5 1.1 0.55 1.15 0.5 1.2 0.5 1.2 0.45 1.2 0.4 1.15 0.4 1.2 0.4 1.15 0.35 1.15 0.3 0.95 0.05 0.95 -0.05 0.95 -0.05 0.95 -0.1 0.9 -0.1 0.9 -0.2 0.8 -0.3 M0.4 -1.5 L0.4 -1.5 0.4 -1.45 0.4 -1.45 0.45 -1.45 0.45 -1.45 0.45 -1.55 0.45 -1.55 0.5 -1.55 0.5 -1.55 0.55 -1.6 0.55 -1.6 0.55 -1.6 0.6 -1.6 0.6 -1.55 0.65 -1.55 0.65 -1.55 0.6 -1.5 0.6 -1.45 0.6 -1.45 0.55 -1.45 0.55 -1.45 0.55 -1.45 0.5 -1.4 0.5 -1.4 0.5 -1.35 0.5 -1.35 0.5 -1.3 0.55 -1.3 0.55 -1.2 0.6 -1.2 0.55 -1.2 0.6 -1.2 0.55 -1.15 0.55 -1.1 0.6 -1.1 0.55 -1.05 M0.35 -1.05 L0.35 -1.0 0.35 -0.95 0.35 -0.9 0.55 -0.65 0.6 -0.55 0.65 -0.55 0.65 -0.55 M0.7 -0.6 L0.75 -0.65 0.9 -0.7 0.9 -0.7 0.95 -0.75 0.7 -0.45 0.75 -0.35 M0.15 -1.15 L0.2 -1.15 0.15 -1.15 0.15 -1.15 M1.1 0.45 L1.15 0.4 M1.1 0.55 L1.1 0.6 1.1 0.55 M-0.75 -0.7 L-0.7 -0.7 -0.6 -0.7 -0.6 -0.7 -0.5 -0.7 -0.45 -0.7 -0.45 -0.6 -0.4 -0.55 -0.5 -0.5 -0.6 -0.45 -0.7 -0.45 -0.75 -0.55 -0.8 -0.6 -0.85 -0.65 -0.85 -0.65 -0.85 -0.65 -0.8 -0.7 -0.85 -0.75 -0.85 -0.85 -0.8 -0.9 Q-0.8 -0.9 -0.75 -0.95 L-0.7 -0.95 -0.65 -0.9 -0.65 -0.9 -0.65 -0.85 -0.65 -0.85 -0.65 -0.8 -0.7 -0.8 -0.75 -0.75 -0.75 -0.7 M-0.75 -0.95 L-0.75 -0.95 Z" fill="none" stroke="#000000" stroke-linecap="round" stroke-linejoin="round" stroke-opacity="0.4509804" stroke-width="1.0"/>
  </g>
</svg>
