<?xml version="1.0" encoding="UTF-8" standalone="no"?>
<svg xmlns:xlink="http://www.w3.org/1999/xlink" height="3.3px" width="4.45px" xmlns="http://www.w3.org/2000/svg">
  <g transform="matrix(1.0, 0.0, 0.0, 1.0, 2.2, 2.2)">
    <path d="M0.45 -1.05 L0.55 -1.05 0.65 -1.0 0.75 -0.85 0.85 -0.75 1.2 -0.45 1.2 -0.4 1.3 -0.3 1.4 -0.15 0.7 -0.8 0.7 -0.85 0.45 -1.05" fill="#9e8d94" fill-rule="evenodd" stroke="none"/>
    <path d="M0.35 -1.15 L0.45 -1.05 0.7 -0.85 0.65 -0.8 0.45 -0.95 0.3 -1.1 0.15 -1.25 0.15 -1.3 0.25 -1.25 0.35 -1.15 M0.7 -0.8 L1.4 -0.15 1.5 -0.05 1.6 0.05 1.75 0.2 1.95 0.35 2.15 0.55 2.2 0.65 2.2 0.75 2.05 0.55 1.8 0.3 1.5 0.0 1.15 -0.3 1.1 -0.4 1.0 -0.45 0.9 -0.55 0.65 -0.75 0.7 -0.8" fill="#4c3c42" fill-rule="evenodd" stroke="none"/>
    <path d="M0.8 -0.55 L0.6 -0.75 0.6 -0.75 0.55 -0.85 0.3 -1.05 0.3 -1.05 0.15 -1.15 0.15 -1.2 0.15 -1.25 0.3 -1.1 0.45 -0.95 0.65 -0.8 0.65 -0.75 0.9 -0.55 0.9 -0.5 0.8 -0.55" fill="#b19fa2" fill-rule="evenodd" stroke="none"/>
    <path d="M2.2 0.8 L2.2 0.95 2.1 0.85 1.9 0.7 1.65 0.45 Q1.55 0.35 1.35 0.15 L1.0 -0.15 0.85 -0.3 0.7 -0.45 0.65 -0.55 0.55 -0.65 0.55 -0.7 0.5 -0.75 0.1 -1.05 0.15 -1.1 0.15 -1.15 0.3 -1.05 0.3 -1.05 0.55 -0.85 0.6 -0.75 0.6 -0.75 0.8 -0.55 1.6 0.15 2.2 0.8 M0.2 -0.9 L0.25 -0.9 0.4 -0.8 0.5 -0.7 0.55 -0.65 0.65 -0.55 0.65 -0.4 0.5 -0.45 0.55 -0.55 0.55 -0.6 0.5 -0.6 0.5 -0.65 0.45 -0.65 0.2 -0.9 M0.65 -0.4 L0.65 -0.4 M0.85 -0.4 Q0.95 -0.2 1.1 -0.15 L0.95 -0.3 0.85 -0.4 M1.45 0.2 L1.6 0.35 1.45 0.15 1.3 0.05 1.45 0.2" fill="#4a393d" fill-rule="evenodd" stroke="none"/>
    <path d="M0.9 -0.55 L1.0 -0.45 1.15 -0.3 1.5 0.0 1.8 0.3 1.35 -0.05 0.9 -0.5 0.9 -0.55" fill="#d6c9d1" fill-rule="evenodd" stroke="none"/>
    <path d="M1.0 -0.45 L1.1 -0.4 1.15 -0.3 1.0 -0.45" fill="#84747a" fill-rule="evenodd" stroke="none"/>
    <path d="M1.4 -0.15 L1.3 -0.3 1.2 -0.4 1.2 -0.45 1.35 -0.3 1.5 -0.15 1.5 -0.1 Q1.55 -0.05 1.5 -0.05 L1.4 -0.15" fill="#c0b5bf" fill-rule="evenodd" stroke="none"/>
    <path d="M2.2 0.55 L2.2 0.65 2.15 0.55 1.95 0.35 2.1 0.45 2.2 0.55 M2.2 0.75 L2.2 0.8 1.6 0.15 0.8 -0.55 0.9 -0.5 1.35 -0.05 1.8 0.3 2.05 0.55 2.2 0.75" fill="#8f7f87" fill-rule="evenodd" stroke="none"/>
    <path d="M0.25 -1.4 L0.2 -1.3 0.05 -1.5 -0.15 -1.7 -0.1 -1.65 Q-0.05 -1.65 -0.05 -1.7 L0.05 -1.55 0.2 -1.45 0.25 -1.4" fill="#b89d99" fill-rule="evenodd" stroke="none"/>
    <path d="M0.2 -1.3 L0.3 -1.25 0.35 -1.15 0.25 -1.25 0.15 -1.3 0.05 -1.4 0.0 -1.5 0.0 -1.4 -0.15 -1.5 -0.25 -1.65 -0.3 -1.7 -0.3 -1.7 -0.35 -1.6 -0.4 -1.5 -0.45 -1.45 -0.55 -1.35 -0.55 -1.3 -0.5 -1.25 -0.5 -1.25 -0.35 -1.15 -0.3 -1.05 -0.25 -1.05 -0.25 -1.05 -0.3 -1.0 -0.25 -1.0 -0.1 -0.9 -0.1 -0.85 -0.1 -0.85 -0.2 -0.85 -0.3 -0.95 -0.4 -1.0 -0.45 -1.05 -0.7 -1.25 -0.65 -1.3 Q-0.6 -1.35 -0.65 -1.4 -0.7 -1.4 -0.65 -1.45 L-0.65 -1.55 -0.6 -1.65 -0.5 -1.7 -0.45 -1.75 -0.4 -1.8 -0.3 -1.85 -0.25 -1.75 -0.15 -1.7 0.05 -1.5 0.2 -1.3" fill="#381f17" fill-rule="evenodd" stroke="none"/>
    <path d="M-0.25 -1.65 L-0.15 -1.5 0.0 -1.4 0.0 -1.5 0.05 -1.4 0.15 -1.3 0.15 -1.25 0.15 -1.2 Q0.05 -1.25 -0.05 -1.35 L-0.2 -1.5 -0.25 -1.55 -0.3 -1.6 -0.35 -1.6 -0.4 -1.5 -0.35 -1.6 -0.3 -1.7 -0.3 -1.6 -0.25 -1.65" fill="#855c3e" fill-rule="evenodd" stroke="none"/>
    <path d="M0.2 -1.3 L0.25 -1.4 0.4 -1.25 0.55 -1.05 0.45 -1.05 0.35 -1.15 0.3 -1.25 0.2 -1.3" fill="#dac7c4" fill-rule="evenodd" stroke="none"/>
    <path d="M0.5 -0.5 L0.45 -0.55 0.4 -0.55 0.4 -0.6 0.3 -0.65 Q0.2 -0.7 0.2 -0.8 L0.35 -0.65 0.4 -0.6 0.45 -0.55 0.45 -0.55 0.55 -0.55 0.5 -0.45 0.5 -0.5" fill="#967c70" fill-rule="evenodd" stroke="none"/>
    <path d="M0.2 -0.8 L0.2 -0.8 0.2 -0.85 0.15 -0.85 0.15 -0.9 0.05 -0.95 0.0 -1.0 -0.05 -1.0 0.0 -1.05 0.05 -1.0 0.2 -0.9 0.45 -0.65 0.5 -0.65 0.5 -0.6 0.55 -0.6 0.55 -0.55 0.45 -0.55 0.45 -0.55 0.4 -0.6 0.35 -0.65 0.2 -0.8" fill="#d9bfa5" fill-rule="evenodd" stroke="none"/>
    <path d="M0.1 -1.05 L0.5 -0.75 0.55 -0.7 0.55 -0.65 0.65 -0.55 0.55 -0.65 0.5 -0.7 0.4 -0.8 0.25 -0.9 0.2 -0.9 0.05 -1.0 0.1 -1.05 0.1 -1.05" fill="#897574" fill-rule="evenodd" stroke="none"/>
    <path d="M0.2 -0.8 L0.15 -0.8 0.05 -0.75 0.05 -0.7 -0.05 -0.8 -0.1 -0.85 -0.1 -0.9 -0.05 -0.9 0.0 -0.95 0.05 -0.85 0.2 -0.85 0.2 -0.8" fill="#9a8586" fill-rule="evenodd" stroke="none"/>
    <path d="M0.0 -0.95 L0.05 -0.95 0.05 -0.95 0.15 -0.9 0.15 -0.85 0.2 -0.85 0.05 -0.85 0.0 -0.95 M-0.7 -1.25 L-0.45 -1.05 -0.4 -1.0 -0.3 -0.95 -0.2 -0.85 -0.1 -0.85 -0.1 -0.85 -0.05 -0.8 Q-0.15 -0.8 -0.1 -0.75 L-0.05 -0.65 -0.1 -0.65 -0.15 -0.7 -0.2 -0.7 -0.2 -0.75 -0.2 -0.75 -0.45 -0.95 -0.6 -1.1 -0.65 -1.1 -0.7 -1.15 Q-0.7 -1.1 -0.75 -1.15 L-0.75 -1.25 -0.7 -1.2 -0.7 -1.25" fill="#554345" fill-rule="evenodd" stroke="none"/>
    <path d="M0.05 -0.7 L-0.05 -0.65 -0.1 -0.75 Q-0.15 -0.8 -0.05 -0.8 L0.05 -0.7" fill="#725f61" fill-rule="evenodd" stroke="none"/>
    <path d="M0.15 -1.1 L0.1 -1.05 0.1 -1.05 0.05 -1.0 0.0 -1.05 -0.05 -1.15 -0.15 -1.25 -0.15 -1.35 Q-0.15 -1.35 -0.1 -1.3 L0.0 -1.25 0.15 -1.1" fill="#f1e3d6" fill-rule="evenodd" stroke="none"/>
    <path d="M0.15 -1.15 L0.15 -1.1 0.0 -1.25 -0.1 -1.3 Q-0.15 -1.35 -0.15 -1.35 L-0.15 -1.25 -0.2 -1.3 Q-0.2 -1.35 -0.25 -1.35 L-0.25 -1.35 -0.3 -1.3 -0.45 -1.4 -0.45 -1.45 -0.4 -1.5 -0.35 -1.6 -0.3 -1.6 -0.25 -1.55 -0.2 -1.5 -0.05 -1.35 Q0.05 -1.25 0.15 -1.2 L0.15 -1.15" fill="#e0c6aa" fill-rule="evenodd" stroke="none"/>
    <path d="M-0.05 -1.0 L-0.2 -1.2 -0.3 -1.3 -0.25 -1.35 -0.25 -1.35 Q-0.2 -1.35 -0.2 -1.3 L-0.15 -1.25 -0.05 -1.15 0.0 -1.05 -0.05 -1.0" fill="#be9e77" fill-rule="evenodd" stroke="none"/>
    <path d="M0.05 -0.95 L0.05 -0.95 0.0 -0.95 -0.05 -0.9 -0.1 -0.9 -0.25 -1.0 -0.3 -1.0 -0.25 -1.05 -0.25 -1.05 -0.3 -1.05 -0.35 -1.15 -0.5 -1.25 -0.5 -1.25 -0.55 -1.3 -0.55 -1.35 -0.45 -1.45 -0.45 -1.4 -0.3 -1.3 -0.2 -1.2 -0.05 -1.0 0.0 -1.0 0.05 -0.95" fill="#9a6f4a" fill-rule="evenodd" stroke="none"/>
    <path d="M-0.5 -0.8 L-0.5 -0.85 Q-0.45 -0.85 -0.45 -0.9 L-0.45 -0.95 -0.2 -0.75 -0.2 -0.75 -0.25 -0.75 Q-0.2 -0.65 -0.3 -0.65 -0.3 -0.65 -0.35 -0.7 L-0.4 -0.8 -0.5 -0.8" fill="#dfa090" fill-rule="evenodd" stroke="none"/>
    <path d="M-0.45 -0.75 L-0.5 -0.8 -0.4 -0.8 -0.35 -0.7 Q-0.3 -0.65 -0.3 -0.65 -0.2 -0.65 -0.25 -0.75 L-0.2 -0.75 -0.2 -0.7 -0.15 -0.7 -0.2 -0.65 -0.25 -0.6 -0.2 -0.55 -0.3 -0.55 -0.35 -0.55 -0.4 -0.55 -0.4 -0.7 -0.45 -0.75" fill="#cf8271" fill-rule="evenodd" stroke="none"/>
    <path d="M-0.5 -0.85 L-0.6 -0.9 -0.7 -1.0 -0.75 -1.0 -0.7 -1.05 -0.65 -1.0 -0.6 -1.05 -0.6 -1.1 -0.45 -0.95 -0.45 -0.9 Q-0.45 -0.85 -0.5 -0.85" fill="#b67365" fill-rule="evenodd" stroke="none"/>
    <path d="M-0.55 -0.5 L-0.55 -0.7 Q-0.6 -0.8 -0.5 -0.7 L-0.55 -0.5" fill="#5d413e" fill-rule="evenodd" stroke="none"/>
    <path d="M-0.55 -0.5 L-0.55 -0.5 -0.5 -0.7 -0.5 -0.7 -0.5 -0.6 Q-0.5 -0.55 -0.45 -0.6 L-0.45 -0.5 -0.55 -0.5" fill="#bb9a95" fill-rule="evenodd" stroke="none"/>
    <path d="M-0.45 -0.5 L-0.5 -0.45 -0.5 -0.45 -0.55 -0.5 -0.45 -0.5 -0.45 -0.6 Q-0.5 -0.55 -0.5 -0.6 L-0.5 -0.7 -0.45 -0.75 -0.4 -0.7 -0.4 -0.55 -0.45 -0.5" fill="#68453a" fill-rule="evenodd" stroke="none"/>
    <path d="M-0.1 -0.45 L-0.25 -0.45 -0.45 -0.5 -0.4 -0.55 -0.35 -0.55 -0.3 -0.55 -0.2 -0.55 -0.1 -0.45" fill="#2a1f1f" fill-rule="evenodd" stroke="none"/>
    <path d="M-0.05 -0.65 L-0.05 -0.6 -0.1 -0.55 -0.1 -0.45 -0.2 -0.55 -0.25 -0.6 -0.2 -0.65 -0.15 -0.7 -0.1 -0.65 -0.05 -0.65" fill="#7f6a6e" fill-rule="evenodd" stroke="none"/>
    <path d="M1.85 0.7 L1.8 0.7 0.85 -0.15 0.8 -0.2 0.75 -0.2 0.5 -0.5 0.5 -0.45 0.65 -0.4 0.8 -0.25 0.85 -0.2 Q0.9 -0.15 0.9 -0.15 L1.0 -0.1 1.05 0.0 1.15 0.05 1.25 0.15 1.55 0.45 1.85 0.7" fill="#574a51" fill-rule="evenodd" stroke="none"/>
    <path d="M0.7 -0.45 L0.85 -0.3 1.0 -0.15 1.0 -0.1 0.9 -0.15 0.85 -0.25 0.8 -0.25 0.65 -0.4 0.7 -0.45 M1.0 -0.1 L1.0 -0.1" fill="#b3a1aa" fill-rule="evenodd" stroke="none"/>
    <path d="M0.8 -0.25 L0.85 -0.25 0.9 -0.15 Q0.9 -0.15 0.85 -0.2 L0.8 -0.25" fill="#84737d" fill-rule="evenodd" stroke="none"/>
    <path d="M0.85 -0.15 L0.75 -0.2 0.8 -0.2 0.85 -0.15" fill="#938995" fill-rule="evenodd" stroke="none"/>
    <path d="M0.85 -0.4 L0.95 -0.3 1.1 -0.15 Q0.95 -0.2 0.85 -0.4" fill="#75666a" fill-rule="evenodd" stroke="none"/>
    <path d="M0.65 -0.4 L0.65 -0.4 0.8 -0.25 0.65 -0.4" fill="#87717c" fill-rule="evenodd" stroke="none"/>
    <path d="M1.6 -0.1 L2.1 0.3 2.2 0.3 2.2 0.35 2.2 0.55 2.1 0.45 1.95 0.35 1.75 0.2 1.6 0.05 1.65 0.05 1.6 -0.1" fill="#b9abb2" fill-rule="evenodd" stroke="none"/>
    <path d="M1.5 -0.15 L1.6 -0.1 1.65 0.05 1.6 0.05 1.5 -0.05 Q1.55 -0.05 1.5 -0.1 L1.5 -0.15" fill="#f6eef6" fill-rule="evenodd" stroke="none"/>
    <path d="M1.45 0.2 L1.3 0.05 1.45 0.15 1.6 0.35 1.45 0.2" fill="#b4a5a7" fill-rule="evenodd" stroke="none"/>
    <path d="M1.0 -0.15 L1.35 0.15 Q1.55 0.35 1.65 0.45 L1.45 0.35 1.25 0.15 1.15 0.05 1.05 0.0 1.0 -0.1 1.0 -0.15" fill="#d3c4cd" fill-rule="evenodd" stroke="none"/>
    <path d="M1.0 -0.1 L1.0 -0.1 1.05 0.0 1.0 -0.1" fill="#817278" fill-rule="evenodd" stroke="none"/>
    <path d="M1.9 0.75 L1.85 0.7 1.55 0.45 1.25 0.15 1.45 0.35 1.65 0.45 1.9 0.7 1.9 0.75" fill="#9f8d94" fill-rule="evenodd" stroke="none"/>
    <path d="M2.2 0.95 L2.2 1.1 2.2 1.05 2.15 1.0 2.05 0.9 1.9 0.75 1.9 0.7 2.1 0.85 2.2 0.95" fill="#7d6e74" fill-rule="evenodd" stroke="none"/>
    <path d="M-0.55 -0.35 L-0.65 -0.3 -0.9 -0.35 -1.1 -0.5 -1.05 -0.5 -1.0 -0.45 -0.9 -0.4 Q-0.8 -0.3 -0.7 -0.35 L-0.6 -0.35 -0.55 -0.4 -0.55 -0.35" fill="#716464" fill-rule="evenodd" stroke="none"/>
    <path d="M-0.5 -0.45 L-0.55 -0.35 -0.55 -0.4 -0.5 -0.45" fill="#bcaead" fill-rule="evenodd" stroke="none"/>
    <path d="M-0.9 -1.0 L-0.95 -1.0 -0.95 -1.0 -0.9 -1.05 -0.85 -1.0 -0.7 -0.9 Q-0.6 -0.85 -0.7 -0.85 -0.7 -0.8 -0.75 -0.8 L-0.8 -0.75 -0.8 -0.75 -0.85 -0.6 -0.85 -0.5 -0.9 -0.5 -0.9 -0.65 -0.85 -0.8 -0.85 -0.85 Q-0.8 -0.9 -0.9 -1.0" fill="#ba9a82" fill-rule="evenodd" stroke="none"/>
    <path d="M-0.85 -0.5 L-0.8 -0.45 -0.85 -0.45 Q-0.9 -0.45 -0.95 -0.5 L-0.95 -0.7 -0.85 -0.8 -0.9 -0.65 -0.9 -0.5 -0.85 -0.5" fill="#85624b" fill-rule="evenodd" stroke="none"/>
    <path d="M-0.8 -0.45 L-0.8 -0.4 -0.85 -0.45 -0.8 -0.45" fill="#e1cbc3" fill-rule="evenodd" stroke="none"/>
    <path d="M-0.65 -0.3 Q-0.8 -0.2 -1.0 -0.35 L-1.15 -0.45 -1.2 -0.55 Q-1.1 -0.5 -1.1 -0.6 L-1.1 -0.55 -1.05 -0.5 -1.1 -0.5 -0.9 -0.35 -0.65 -0.3" fill="#130c0b" fill-rule="evenodd" stroke="none"/>
    <path d="M-0.45 -1.9 L-0.45 -1.85 Q-0.4 -1.85 -0.45 -1.85 L-0.5 -1.85 -0.55 -1.8 -0.5 -1.9 -0.45 -1.9" fill="#f3d2b6" fill-rule="evenodd" stroke="none"/>
    <path d="M-0.6 -2.0 L-0.45 -2.05 -0.45 -2.05 -0.35 -2.0 -0.35 -2.0 -0.4 -1.95 -0.45 -1.9 -0.5 -1.9 -0.55 -1.85 -0.65 -1.85 -0.7 -1.8 -0.7 -1.8 -0.7 -1.8 -0.85 -1.8 -0.8 -1.85 -0.65 -1.85 Q-0.55 -1.95 -0.6 -2.0" fill="#402316" fill-rule="evenodd" stroke="none"/>
    <path d="M-0.9 -2.15 L-0.85 -2.15 -0.8 -2.1 -0.8 -1.95 -0.7 -1.95 Q-0.65 -2.0 -0.6 -2.0 L-0.6 -2.0 Q-0.55 -1.95 -0.65 -1.85 L-0.8 -1.85 -0.9 -1.85 Q-0.8 -1.9 -0.85 -2.0 L-0.85 -2.1 -0.9 -2.15 M-0.6 -2.0 L-0.6 -2.0 -0.6 -2.0" fill="#e3c298" fill-rule="evenodd" stroke="none"/>
    <path d="M-0.05 -1.7 Q-0.05 -1.65 -0.1 -1.65 L-0.15 -1.7 -0.25 -1.75 -0.3 -1.85 -0.4 -1.8 -0.45 -1.75 -0.5 -1.8 -0.45 -1.85 Q-0.4 -1.85 -0.45 -1.85 L-0.45 -1.9 -0.4 -1.95 -0.35 -2.0 -0.35 -2.0 -0.35 -2.05 -0.3 -2.0 -0.25 -1.95 -0.15 -1.8 -0.05 -1.7" fill="#9c807c" fill-rule="evenodd" stroke="none"/>
    <path d="M-0.45 -1.85 L-0.5 -1.8 -0.55 -1.7 -0.6 -1.65 -0.65 -1.55 -0.7 -1.65 -0.75 -1.75 -0.7 -1.8 Q-0.7 -1.75 -0.6 -1.75 L-0.55 -1.8 -0.5 -1.85 -0.45 -1.85 M-0.7 -1.8 L-0.7 -1.8" fill="#d95652" fill-rule="evenodd" stroke="none"/>
    <path d="M-0.3 -1.7 L-0.3 -1.7 -0.25 -1.65 -0.3 -1.6 -0.3 -1.7" fill="#dab798" fill-rule="evenodd" stroke="none"/>
    <path d="M-1.05 -1.9 L-1.0 -1.95 -0.95 -1.95 -0.9 -1.95 -0.95 -1.9 -0.95 -1.9 Q-0.95 -1.85 -1.0 -1.9 L-1.05 -1.9 M-0.95 -1.95 L-0.95 -1.95" fill="#dfb387" fill-rule="evenodd" stroke="none"/>
    <path d="M-0.95 -1.95 L-0.95 -1.95 -0.95 -1.95" fill="#65422e" fill-rule="evenodd" stroke="none"/>
    <path d="M-1.15 -1.85 L-1.15 -1.85 -1.1 -1.9 -1.05 -1.9 -1.0 -1.9 Q-0.95 -1.85 -0.95 -1.9 L-0.95 -1.9 -0.9 -1.95 -0.9 -2.0 -0.95 -2.1 Q-1.0 -2.15 -0.9 -2.2 L-0.9 -2.15 -0.85 -2.1 -0.85 -2.0 Q-0.8 -1.9 -0.9 -1.85 L-0.8 -1.85 -0.85 -1.8 -0.9 -1.8 -0.95 -1.8 -1.05 -1.85 -1.1 -1.85 -1.15 -1.85" fill="#a17153" fill-rule="evenodd" stroke="none"/>
    <path d="M-2.2 -1.05 L-2.2 -1.3 -2.15 -1.35 -2.0 -1.35 Q-1.95 -1.4 -2.0 -1.5 L-1.95 -1.55 -1.75 -1.65 -1.6 -1.65 -1.5 -1.7 -1.45 -1.7 -1.4 -1.7 -1.3 -1.75 -1.15 -1.85 -1.1 -1.85 -1.05 -1.75 -1.05 -1.7 -1.1 -1.65 -1.15 -1.45 -1.15 -1.4 Q-1.15 -1.35 -1.2 -1.35 L-1.2 -1.55 -1.15 -1.65 -1.1 -1.75 -1.1 -1.75 Q-1.1 -1.8 -1.15 -1.75 L-1.2 -1.7 -1.2 -1.7 -1.25 -1.7 -1.3 -1.7 Q-1.25 -1.65 -1.3 -1.6 L-1.4 -1.6 -1.45 -1.55 -1.55 -1.55 -1.7 -1.55 -1.65 -1.45 -1.7 -1.45 -1.8 -1.45 -1.8 -1.4 -1.85 -1.4 -1.9 -1.3 -1.95 -1.25 -1.95 -1.3 -2.0 -1.3 -2.0 -1.25 -1.95 -1.25 -1.95 -1.2 -2.0 -1.2 -2.0 -1.2 -2.05 -1.2 -2.05 -1.15 Q-2.0 -1.1 -2.05 -1.1 L-2.1 -1.1 -2.05 -1.05 -2.15 -1.05 -2.2 -1.05 M-2.1 -1.1 L-2.15 -1.1 -2.15 -1.1 -2.1 -1.1 M-2.05 -1.05 L-2.05 -1.05 M-0.95 -1.6 L-0.95 -1.6 -0.8 -1.55 -0.8 -1.55 -0.8 -1.5 -0.8 -1.45 -0.8 -1.35 -0.85 -1.3 -0.85 -1.35 Q-0.9 -1.4 -0.95 -1.4 -0.9 -1.45 -0.95 -1.5 L-0.95 -1.6 M-1.15 -1.35 Q-1.1 -1.35 -1.1 -1.3 L-1.0 -1.2 -1.0 -1.15 Q-1.1 -1.25 -1.15 -1.35 M-0.8 -1.4 L-0.8 -1.45 -0.75 -1.45 -0.75 -1.4 Q-0.75 -1.4 -0.8 -1.4 M-1.7 -1.45 L-1.7 -1.45 M-1.15 -1.85 L-1.2 -1.85 -1.15 -1.85 -1.15 -1.85" fill="#751412" fill-rule="evenodd" stroke="none"/>
    <path d="M-1.15 -1.85 L-1.15 -1.85 -1.15 -1.85 -1.2 -1.85 -1.15 -1.85" fill="#e89c7a" fill-rule="evenodd" stroke="none"/>
    <path d="M-0.95 -1.6 Q-1.05 -1.55 -1.05 -1.6 L-1.0 -1.7 -1.0 -1.8 -0.95 -1.8 -0.9 -1.8 -0.95 -1.7 -0.95 -1.6 -0.95 -1.6" fill="#901a1e" fill-rule="evenodd" stroke="none"/>
    <path d="M-0.7 -1.8 L-0.75 -1.75 -0.7 -1.65 -0.65 -1.55 -0.65 -1.45 Q-0.7 -1.4 -0.65 -1.4 -0.6 -1.35 -0.65 -1.3 -0.65 -1.3 -0.7 -1.3 L-0.75 -1.25 Q-0.75 -1.15 -0.85 -1.1 -0.95 -1.1 -1.0 -1.2 L-1.1 -1.3 Q-1.1 -1.35 -1.15 -1.35 L-1.2 -1.35 Q-1.15 -1.35 -1.15 -1.4 L-1.15 -1.45 -1.1 -1.65 -1.05 -1.7 -1.05 -1.75 -1.1 -1.85 -1.05 -1.85 -0.95 -1.8 -1.0 -1.8 -1.0 -1.7 -1.05 -1.6 Q-1.05 -1.55 -0.95 -1.6 L-0.95 -1.7 -0.9 -1.8 -0.85 -1.8 -0.7 -1.8 M-0.95 -1.6 L-0.95 -1.5 Q-0.9 -1.45 -0.95 -1.4 -0.9 -1.4 -0.85 -1.35 L-0.85 -1.3 -0.8 -1.35 -0.8 -1.45 -0.8 -1.5 -0.8 -1.55 -0.8 -1.55 -0.95 -1.6 M-0.8 -1.4 Q-0.75 -1.4 -0.75 -1.4 L-0.75 -1.45 -0.8 -1.45 -0.8 -1.4" fill="#da3d3a" fill-rule="evenodd" stroke="none"/>
    <path d="M-1.2 -1.7 L-1.15 -1.75 Q-1.1 -1.8 -1.1 -1.75 L-1.2 -1.7" fill="#ca837f" fill-rule="evenodd" stroke="none"/>
    <path d="M-1.2 -1.35 L-1.15 -1.35 Q-1.1 -1.25 -1.0 -1.15 L-0.95 -1.1 -0.95 -1.0 -0.95 -1.0 -0.9 -1.0 -0.95 -0.95 -1.0 -0.95 -1.05 -1.0 -1.05 -1.1 -1.15 -1.2 -1.15 -1.25 Q-1.2 -1.35 -1.2 -1.3 -1.2 -1.35 -1.2 -1.35 L-1.25 -1.45 -1.2 -1.65 -1.2 -1.7 -1.1 -1.75 -1.1 -1.75 -1.15 -1.65 -1.2 -1.55 -1.2 -1.35" fill="#f2dad1" fill-rule="evenodd" stroke="none"/>
    <path d="M-1.25 -1.7 L-1.2 -1.7 -1.2 -1.7 -1.2 -1.65 -1.25 -1.65 -1.25 -1.7" fill="#d68973" fill-rule="evenodd" stroke="none"/>
    <path d="M-1.2 -1.65 L-1.25 -1.65 -1.2 -1.65 M-1.25 -1.65 L-1.25 -1.65" fill="#b64032" fill-rule="evenodd" stroke="none"/>
    <path d="M-1.7 -1.45 L-1.65 -1.45 -1.7 -1.55 -1.55 -1.55 -1.45 -1.55 -1.45 -1.55 -1.4 -1.6 -1.3 -1.6 Q-1.25 -1.65 -1.3 -1.7 L-1.25 -1.7 -1.25 -1.65 -1.25 -1.65 -1.25 -1.5 -1.3 -1.4 Q-1.3 -1.35 -1.25 -1.4 L-1.25 -1.45 -1.2 -1.35 Q-1.2 -1.35 -1.2 -1.3 L-1.3 -1.3 -1.4 -1.3 -1.45 -1.3 -1.5 -1.25 -1.5 -1.3 -1.55 -1.35 -1.6 -1.4 -1.7 -1.45" fill="#c7372c" fill-rule="evenodd" stroke="none"/>
    <path d="M-1.25 -1.65 L-1.2 -1.65 -1.25 -1.45 -1.25 -1.4 Q-1.3 -1.35 -1.3 -1.4 L-1.25 -1.5 -1.25 -1.65" fill="#d16f6a" fill-rule="evenodd" stroke="none"/>
    <path d="M-1.45 -1.55 L-1.4 -1.6 -1.45 -1.55 -1.45 -1.55" fill="#ff9f6e" fill-rule="evenodd" stroke="none"/>
    <path d="M-0.5 -1.8 L-0.45 -1.75 -0.5 -1.7 -0.6 -1.65 -0.55 -1.7 -0.5 -1.8" fill="#efd4c5" fill-rule="evenodd" stroke="none"/>
    <path d="M-0.7 -1.8 L-0.7 -1.8 -0.65 -1.85 -0.55 -1.85 -0.5 -1.9 -0.55 -1.8 -0.6 -1.75 Q-0.7 -1.75 -0.7 -1.8" fill="#d19d82" fill-rule="evenodd" stroke="none"/>
    <path d="M-1.35 -1.2 L-1.3 -1.2 -1.35 -1.25 -1.25 -1.3 -1.2 -1.25 -1.2 -1.25 -1.25 -1.2 -1.25 -1.2 Q-1.2 -1.15 -1.15 -1.2 L-1.05 -1.1 -1.05 -1.0 -1.15 -1.0 -1.15 -1.0 -1.1 -1.0 Q-1.05 -1.0 -1.1 -1.05 -1.15 -1.1 -1.2 -1.1 L-1.35 -1.1 -1.35 -1.2" fill="#c95e59" fill-rule="evenodd" stroke="none"/>
    <path d="M-1.4 -1.3 L-1.3 -1.3 -1.2 -1.3 Q-1.2 -1.35 -1.15 -1.25 L-1.15 -1.2 Q-1.2 -1.15 -1.25 -1.2 L-1.25 -1.2 -1.2 -1.25 -1.2 -1.25 -1.25 -1.3 -1.35 -1.25 -1.3 -1.2 -1.35 -1.2 Q-1.4 -1.15 -1.4 -1.2 -1.4 -1.3 -1.4 -1.3" fill="#f1a29b" fill-rule="evenodd" stroke="none"/>
    <path d="M-1.0 -1.2 Q-0.95 -1.1 -0.85 -1.1 -0.75 -1.15 -0.75 -1.25 L-0.75 -1.15 -0.8 -1.05 -0.85 -1.05 -0.95 -1.0 -0.95 -1.1 -1.0 -1.15 -1.0 -1.2" fill="#d47a6c" fill-rule="evenodd" stroke="none"/>
    <path d="M-1.2 -0.85 L-1.2 -0.95 Q-1.2 -1.0 -1.25 -1.05 L-1.4 -1.05 -1.35 -1.1 -1.2 -1.1 Q-1.15 -1.1 -1.1 -1.05 -1.05 -1.0 -1.1 -1.0 L-1.15 -1.0 -1.15 -1.0 -1.15 -0.9 -1.2 -0.85" fill="#6f231b" fill-rule="evenodd" stroke="none"/>
    <path d="M-0.75 -1.25 L-0.7 -1.3 Q-0.65 -1.3 -0.65 -1.3 L-0.7 -1.25 -0.7 -1.2 -0.75 -1.25 -0.75 -1.15 Q-0.7 -1.1 -0.7 -1.15 L-0.65 -1.1 -0.6 -1.1 -0.6 -1.05 -0.65 -1.0 -0.7 -1.05 -0.75 -1.0 -0.8 -1.05 -0.85 -1.0 -0.9 -1.05 -0.95 -1.0 -0.85 -1.05 -0.8 -1.05 -0.75 -1.15 -0.75 -1.25" fill="#eacec0" fill-rule="evenodd" stroke="none"/>
    <path d="M-0.7 -1.0 L-0.7 -0.9 -0.85 -1.0 -0.8 -1.05 -0.75 -1.0 -0.7 -1.0" fill="#4d3122" fill-rule="evenodd" stroke="none"/>
    <path d="M-0.95 -0.95 L-0.9 -1.0 Q-0.8 -0.9 -0.85 -0.85 -0.9 -0.85 -0.9 -0.85 L-0.95 -0.95" fill="#684531" fill-rule="evenodd" stroke="none"/>
    <path d="M-0.75 -0.8 L-0.8 -0.75 -0.8 -0.75 -0.75 -0.8" fill="#fff0eb" fill-rule="evenodd" stroke="none"/>
    <path d="M-1.15 -0.8 L-1.1 -0.85 -1.05 -0.85 -1.15 -0.8" fill="#978483" fill-rule="evenodd" stroke="none"/>
    <path d="M-1.25 -0.6 Q-1.25 -0.7 -1.2 -0.85 L-1.15 -0.9 -1.15 -0.85 Q-1.15 -0.8 -1.15 -0.8 L-1.2 -0.7 -1.25 -0.6" fill="#775d5e" fill-rule="evenodd" stroke="none"/>
    <path d="M-1.2 -0.6 L-1.25 -0.6 -1.2 -0.7 -1.15 -0.8 -1.2 -0.7 -1.15 -0.6 -1.2 -0.6" fill="#bd9f9f" fill-rule="evenodd" stroke="none"/>
    <path d="M-1.2 -0.95 L-1.25 -1.0 -1.35 -1.0 -1.4 -1.0 -1.4 -1.05 -1.25 -1.05 Q-1.2 -1.0 -1.2 -0.95" fill="#bfa090" fill-rule="evenodd" stroke="none"/>
    <path d="M-1.5 -1.25 L-1.45 -1.3 -1.4 -1.3 Q-1.4 -1.3 -1.4 -1.2 -1.4 -1.15 -1.35 -1.2 L-1.4 -1.1 -1.4 -1.1 -1.45 -1.1 Q-1.45 -1.15 -1.45 -1.1 L-1.5 -1.05 -1.55 -1.0 -1.6 -1.05 -1.6 -1.05 -1.55 -1.1 -1.55 -1.1 Q-1.5 -1.2 -1.5 -1.25" fill="#dd726d" fill-rule="evenodd" stroke="none"/>
    <path d="M-1.6 -0.75 L-1.65 -0.65 -1.7 -0.5 -1.7 -0.5 -1.75 -0.5 -1.75 -0.55 Q-1.75 -0.55 -1.75 -0.6 L-1.7 -0.65 -1.7 -0.7 -1.7 -0.75 Q-1.65 -0.7 -1.65 -0.75 L-1.65 -0.8 -1.6 -0.9 -1.55 -1.0 -1.5 -1.0 -1.5 -1.0 -1.45 -1.1 -1.4 -1.1 -1.4 -1.1 -1.35 -1.2 -1.35 -1.1 -1.4 -1.05 -1.4 -1.0 -1.45 -0.95 -1.5 -0.95 -1.55 -0.95 -1.6 -0.75 M-1.75 -0.5 L-1.75 -0.5" fill="#a8423b" fill-rule="evenodd" stroke="none"/>
    <path d="M-1.6 -1.05 L-1.55 -1.0 -1.5 -1.05 -1.45 -1.1 Q-1.45 -1.15 -1.45 -1.1 L-1.5 -1.0 -1.5 -1.0 -1.55 -1.0 -1.6 -0.9 -1.65 -0.8 -1.65 -0.9 -1.7 -0.95 -1.65 -1.0 -1.6 -1.05" fill="#eeb1ab" fill-rule="evenodd" stroke="none"/>
    <path d="M-1.35 -1.0 L-1.4 -0.95 -1.45 -0.9 -1.45 -0.9 -1.5 -0.9 -1.55 -0.85 Q-1.55 -0.8 -1.6 -0.75 L-1.55 -0.95 -1.5 -0.95 -1.45 -0.95 -1.4 -1.0 -1.35 -1.0 M-1.5 -0.9 L-1.45 -0.9 -1.5 -0.9" fill="#260d0b" fill-rule="evenodd" stroke="none"/>
    <path d="M-1.8 -0.9 L-1.85 -0.9 -1.85 -1.0 -1.8 -0.95 Q-1.7 -0.95 -1.7 -1.0 L-1.65 -1.0 Q-1.65 -1.05 -1.7 -1.05 L-1.65 -1.1 -1.6 -1.05 -1.6 -1.1 -1.6 -1.1 Q-1.5 -1.2 -1.5 -1.3 L-1.5 -1.25 Q-1.5 -1.2 -1.55 -1.1 L-1.55 -1.1 -1.6 -1.05 -1.6 -1.05 -1.65 -1.0 -1.7 -0.95 Q-1.7 -0.95 -1.75 -0.9 L-1.8 -0.9" fill="#f8d9c9" fill-rule="evenodd" stroke="none"/>
    <path d="M-1.85 -0.75 L-1.85 -0.8 Q-1.85 -0.85 -1.85 -0.8 -1.8 -0.75 -1.8 -0.8 L-1.8 -0.85 Q-1.75 -0.85 -1.75 -0.85 L-1.75 -0.85 -1.8 -0.9 -1.75 -0.9 Q-1.7 -0.95 -1.7 -0.95 L-1.65 -0.9 -1.65 -0.8 -1.7 -0.8 -1.7 -0.75 -1.7 -0.7 -1.7 -0.65 -1.8 -0.65 -1.9 -0.7 -1.85 -0.7 -1.8 -0.7 -1.8 -0.75 -1.85 -0.75" fill="#e06a66" fill-rule="evenodd" stroke="none"/>
    <path d="M-2.0 -0.75 L-1.9 -0.7 -1.95 -0.75 -2.0 -0.75 M-1.7 -0.65 L-1.75 -0.6 Q-1.75 -0.55 -1.75 -0.55 L-1.9 -0.7 -1.8 -0.65 -1.7 -0.65" fill="#ebbbb3" fill-rule="evenodd" stroke="none"/>
    <path d="M-1.7 -0.75 L-1.7 -0.7 -1.7 -0.75" fill="#fec8b8" fill-rule="evenodd" stroke="none"/>
    <path d="M-1.65 -0.8 L-1.65 -0.75 Q-1.65 -0.7 -1.7 -0.75 L-1.7 -0.8 -1.65 -0.8" fill="#feb3a0" fill-rule="evenodd" stroke="none"/>
    <path d="M-1.8 -0.85 Q-1.75 -0.9 -1.75 -0.85 L-1.75 -0.85 Q-1.75 -0.85 -1.8 -0.85" fill="#ffc5ad" fill-rule="evenodd" stroke="none"/>
    <path d="M-2.0 -0.75 L-2.05 -0.85 -2.1 -0.9 -2.05 -0.9 -2.05 -0.85 -2.0 -0.85 -1.95 -0.9 -1.9 -0.85 -1.85 -0.85 -1.85 -0.85 -1.85 -0.9 -1.8 -0.9 -1.75 -0.85 Q-1.75 -0.9 -1.8 -0.85 L-1.8 -0.8 Q-1.8 -0.75 -1.85 -0.8 -1.85 -0.85 -1.85 -0.8 L-1.85 -0.75 -1.9 -0.7 -2.0 -0.75 -2.0 -0.75 M-1.85 -1.0 L-1.85 -0.9 -1.8 -0.85 -1.8 -0.9 Q-1.95 -0.95 -1.9 -1.0 L-1.85 -1.0" fill="#d6493c" fill-rule="evenodd" stroke="none"/>
    <path d="M-1.8 -0.9 L-1.8 -0.85 -1.85 -0.9 -1.8 -0.9" fill="#ffb38a" fill-rule="evenodd" stroke="none"/>
    <path d="M-1.9 -0.7 L-1.85 -0.75 -1.8 -0.75 -1.8 -0.7 -1.85 -0.7 -1.9 -0.7" fill="#facbbb" fill-rule="evenodd" stroke="none"/>
    <path d="M-1.75 -0.55 L-1.75 -0.5 -1.75 -0.45 -1.85 -0.45 -1.9 -0.55 -1.95 -0.6 -2.0 -0.7 Q-1.95 -0.65 -1.9 -0.65 L-1.85 -0.55 -1.75 -0.55" fill="#f7ecde" fill-rule="evenodd" stroke="none"/>
    <path d="M-2.1 -0.8 L-2.05 -0.75 -2.0 -0.7 -1.9 -0.65 Q-1.95 -0.65 -2.0 -0.7 L-1.95 -0.6 -1.9 -0.55 -2.1 -0.7 -2.15 -0.8 -2.2 -0.85 -2.1 -0.8" fill="#cba785" fill-rule="evenodd" stroke="none"/>
    <path d="M-1.9 -0.65 L-1.9 -0.7 -1.75 -0.55 -1.85 -0.55 -1.9 -0.65" fill="#7d5952" fill-rule="evenodd" stroke="none"/>
    <path d="M-1.7 -0.45 L-1.7 -0.35 Q-1.8 -0.4 -1.95 -0.5 L-2.2 -0.7 -2.2 -0.8 -2.15 -0.75 -2.2 -0.75 -2.15 -0.75 -2.1 -0.7 -2.1 -0.7 -1.9 -0.55 -1.85 -0.45 -1.75 -0.45 -1.7 -0.45" fill="#5d3926" fill-rule="evenodd" stroke="none"/>
    <path d="M-1.75 -0.5 L-1.7 -0.45 -1.75 -0.45 -1.85 -0.45 -1.75 -0.45 -1.75 -0.5 -1.75 -0.5" fill="#a88e79" fill-rule="evenodd" stroke="none"/>
    <path d="M-2.1 -0.9 L-2.0 -0.75 -2.0 -0.75 -1.95 -0.75 -1.9 -0.7 -1.9 -0.65 -2.0 -0.7 -2.05 -0.75 -2.1 -0.8 -2.1 -0.8 -2.2 -0.9 Q-2.2 -0.9 -2.1 -0.9" fill="#2e170e" fill-rule="evenodd" stroke="none"/>
    <path d="M-1.6 -1.25 L-1.6 -1.25 Q-1.55 -1.3 -1.6 -1.35 L-1.65 -1.4 -1.6 -1.4 -1.55 -1.35 -1.5 -1.3 Q-1.5 -1.2 -1.6 -1.1 L-1.6 -1.1 -1.6 -1.05 -1.65 -1.1 -1.6 -1.1 -1.6 -1.2 -1.6 -1.25" fill="#c3947b" fill-rule="evenodd" stroke="none"/>
    <path d="M-1.9 -1.1 L-1.85 -1.25 -1.8 -1.3 -1.75 -1.35 -1.7 -1.35 -1.7 -1.35 Q-1.65 -1.35 -1.65 -1.4 L-1.6 -1.35 Q-1.55 -1.3 -1.6 -1.25 L-1.6 -1.25 -1.65 -1.3 Q-1.7 -1.25 -1.7 -1.25 L-1.75 -1.3 -1.75 -1.25 -1.75 -1.2 -1.85 -1.2 -1.85 -1.15 -1.85 -1.05 Q-1.85 -1.1 -1.8 -1.1 L-1.7 -1.0 -1.8 -1.0 -1.85 -1.0 -1.9 -1.1 -1.9 -1.1 M-1.7 -1.25 L-1.7 -1.25 M-1.65 -1.4 L-1.65 -1.4" fill="#482a18" fill-rule="evenodd" stroke="none"/>
    <path d="M-1.7 -1.25 Q-1.7 -1.25 -1.65 -1.3 L-1.6 -1.25 -1.7 -1.25" fill="#dabd98" fill-rule="evenodd" stroke="none"/>
    <path d="M-1.75 -1.2 L-1.75 -1.25 -1.75 -1.25 -1.7 -1.25 -1.6 -1.25 -1.6 -1.2 -1.6 -1.1 -1.65 -1.1 -1.7 -1.05 -1.75 -1.15 -1.75 -1.15 -1.7 -1.15 -1.7 -1.2 -1.75 -1.2 M-1.7 -1.25 L-1.7 -1.25" fill="#e2c49d" fill-rule="evenodd" stroke="none"/>
    <path d="M-1.7 -1.45 L-1.7 -1.45 -1.6 -1.4 -1.65 -1.4 -1.65 -1.4 -1.7 -1.35 -1.75 -1.35 -1.8 -1.3 -1.85 -1.25 -1.9 -1.1 -1.95 -1.15 -1.95 -1.2 -1.85 -1.3 -1.8 -1.35 -1.7 -1.45" fill="#efd7c2" fill-rule="evenodd" stroke="none"/>
    <path d="M-1.95 -1.25 L-1.9 -1.3 -1.85 -1.4 -1.8 -1.4 -1.8 -1.45 -1.7 -1.45 -1.8 -1.35 -1.85 -1.3 -1.95 -1.2 -1.95 -1.25 M-1.95 -1.2 L-1.95 -1.2" fill="#a96f56" fill-rule="evenodd" stroke="none"/>
    <path d="M-1.75 -1.25 L-1.75 -1.3 -1.7 -1.25 -1.75 -1.25 -1.75 -1.25" fill="#f6d9b3" fill-rule="evenodd" stroke="none"/>
    <path d="M-1.65 -1.4 Q-1.65 -1.35 -1.7 -1.35 L-1.7 -1.35 -1.65 -1.4" fill="#9c8370" fill-rule="evenodd" stroke="none"/>
    <path d="M-1.85 -1.0 L-1.9 -1.0 -1.95 -1.1 -2.0 -1.2 -2.0 -1.2 -1.95 -1.2 -1.95 -1.15 -1.9 -1.1 -1.9 -1.1 -1.85 -1.0 -1.8 -1.0 -1.7 -1.0 Q-1.7 -0.95 -1.8 -0.95 L-1.85 -1.0 M-1.95 -1.2 L-1.95 -1.2 M-1.7 -1.05 Q-1.65 -1.05 -1.65 -1.0 L-1.7 -1.0 -1.7 -1.05 -1.75 -1.1 -1.75 -1.15 -1.7 -1.05" fill="#ca9d83" fill-rule="evenodd" stroke="none"/>
    <path d="M-1.85 -1.15 L-1.85 -1.2 -1.75 -1.2 -1.7 -1.2 -1.7 -1.15 -1.75 -1.15 -1.75 -1.15 -1.8 -1.15 -1.85 -1.15" fill="#e4caa4" fill-rule="evenodd" stroke="none"/>
    <path d="M-1.75 -1.15 L-1.75 -1.1 -1.75 -1.1 -1.85 -1.15 -1.8 -1.15 -1.75 -1.15" fill="#58391f" fill-rule="evenodd" stroke="none"/>
    <path d="M-1.7 -1.0 L-1.8 -1.1 Q-1.85 -1.1 -1.85 -1.05 L-1.85 -1.15 -1.75 -1.1 -1.75 -1.1 -1.7 -1.05 -1.7 -1.0" fill="#e4ceb0" fill-rule="evenodd" stroke="none"/>
    <path d="M-2.2 -1.3 L-2.2 -1.4 -2.1 -1.45 -2.1 -1.5 -2.05 -1.5 -2.0 -1.5 Q-1.95 -1.4 -2.0 -1.35 L-2.15 -1.35 -2.2 -1.3" fill="#4e1b16" fill-rule="evenodd" stroke="none"/>
    <path d="M-2.2 -0.9 L-2.2 -0.95 -2.2 -0.9 -2.2 -0.9" fill="#2f170c" fill-rule="evenodd" stroke="none"/>
    <path d="M-2.2 -0.95 L-2.2 -1.05 -2.15 -1.05 -2.05 -1.05 -2.1 -1.1 -2.05 -1.1 Q-2.0 -1.1 -2.05 -1.15 L-2.05 -1.2 -2.0 -1.2 -1.95 -1.1 -1.9 -1.0 Q-1.95 -0.95 -1.8 -0.9 L-1.85 -0.9 -1.85 -0.85 -1.9 -0.85 -1.95 -0.9 -2.0 -0.85 -2.05 -0.9 -2.05 -0.9 -2.1 -0.9 -2.15 -0.9 -2.2 -0.95 M-2.05 -1.05 L-2.05 -1.0 -2.0 -1.05 -2.05 -1.05" fill="#b82c1f" fill-rule="evenodd" stroke="none"/>
    <path d="M-1.85 -0.85 L-1.85 -0.85 -1.9 -0.85 -1.85 -0.85" fill="#ffac89" fill-rule="evenodd" stroke="none"/>
    <path d="M-2.0 -0.85 L-2.05 -0.85 -2.05 -0.9 -2.05 -0.9 -2.0 -0.85" fill="#fda66a" fill-rule="evenodd" stroke="none"/>
    <path d="M-2.1 -0.9 L-2.05 -0.85 -2.0 -0.75 -2.1 -0.9 -2.15 -0.9 -2.1 -0.9" fill="#bb7c6d" fill-rule="evenodd" stroke="none"/>
    <path d="M-2.05 -1.05 L-2.0 -1.05 -2.05 -1.0 -2.05 -1.05 -2.05 -1.05" fill="#fb9563" fill-rule="evenodd" stroke="none"/>
    <path d="M-2.1 -1.1 L-2.15 -1.1 -2.15 -1.1 -2.1 -1.1" fill="#be3a2d" fill-rule="evenodd" stroke="none"/>
    <path d="M-2.2 -0.8 L-2.2 -0.9 -2.1 -0.8 -2.1 -0.8 -2.2 -0.85 -2.15 -0.8 -2.1 -0.7 -2.1 -0.7 -2.15 -0.75 -2.2 -0.75 -2.15 -0.75 -2.2 -0.8" fill="#a77b59" fill-rule="evenodd" stroke="none"/>
    <path d="M-2.2 -0.9 L-2.2 -0.9 -2.2 -0.9 -2.2 -0.9" fill="#d9bdb8" fill-rule="evenodd" stroke="none"/>
    <path d="M-2.2 -0.95 L-2.2 -0.95 -2.15 -0.9 -2.1 -0.9 Q-2.2 -0.9 -2.2 -0.9 L-2.2 -0.95 M-2.2 -0.9 L-2.2 -0.9" fill="#7e493f" fill-rule="evenodd" stroke="none"/>
    <path d="M0.55 -1.05 L0.4 -1.25 0.25 -1.4 0.2 -1.45 0.05 -1.55 -0.05 -1.7 -0.15 -1.8 -0.25 -1.95 -0.3 -2.0 -0.35 -2.05 -0.35 -2.0 -0.45 -2.05 -0.45 -2.05 -0.6 -2.0 -0.6 -2.0 Q-0.65 -2.0 -0.7 -1.95 L-0.8 -1.95 -0.8 -2.1 -0.85 -2.15 -0.9 -2.15 -0.9 -2.2 Q-1.0 -2.15 -0.95 -2.1 L-0.9 -2.0 -0.9 -1.95 -0.95 -1.95 -0.95 -1.95 -1.0 -1.95 -1.05 -1.9 -1.1 -1.9 -1.15 -1.85 -1.15 -1.85 -1.15 -1.85 -1.3 -1.75 -1.4 -1.7 -1.45 -1.7 -1.5 -1.7 -1.6 -1.65 -1.75 -1.65 -1.95 -1.55 -2.0 -1.5 -2.05 -1.5 -2.1 -1.5 -2.1 -1.45 -2.2 -1.4 M1.2 -0.45 L0.85 -0.75 0.75 -0.85 0.65 -1.0 0.55 -1.05 M1.2 -0.45 L1.35 -0.3 1.5 -0.15 1.6 -0.1 2.1 0.3 2.2 0.3 2.2 0.35 M2.2 1.1 L2.2 1.05 2.15 1.0 2.05 0.9 1.9 0.75 1.85 0.7 1.8 0.7 0.85 -0.15 0.75 -0.2 0.5 -0.5 0.45 -0.55 0.4 -0.55 0.4 -0.6 0.3 -0.65 Q0.2 -0.7 0.2 -0.8 L0.2 -0.8 0.15 -0.8 0.05 -0.75 0.05 -0.7 -0.05 -0.65 -0.05 -0.6 -0.1 -0.55 -0.1 -0.45 -0.25 -0.45 -0.45 -0.5 -0.5 -0.45 -0.55 -0.35 -0.65 -0.3 Q-0.8 -0.2 -1.0 -0.35 L-1.15 -0.45 -1.2 -0.55 -1.2 -0.6 -1.25 -0.6 Q-1.25 -0.7 -1.2 -0.85 L-1.2 -0.95 -1.25 -1.0 -1.35 -1.0 -1.4 -0.95 -1.45 -0.9 -1.45 -0.9 -1.5 -0.9 -1.55 -0.85 Q-1.55 -0.8 -1.6 -0.75 L-1.65 -0.65 -1.7 -0.5 -1.7 -0.5 -1.75 -0.5 -1.7 -0.45 -1.7 -0.35 Q-1.8 -0.4 -1.95 -0.5 L-2.2 -0.7 M-1.0 -0.95 L-0.95 -0.95 -0.9 -0.85 Q-0.9 -0.85 -0.85 -0.85 L-0.85 -0.8 -0.95 -0.7 -0.95 -0.5 Q-0.9 -0.45 -0.85 -0.45 L-0.8 -0.4 -0.8 -0.45 -0.85 -0.5 -0.85 -0.6 -0.8 -0.75 -0.75 -0.8 Q-0.7 -0.8 -0.7 -0.85 -0.6 -0.85 -0.7 -0.9 L-0.7 -1.0 -0.6 -0.9 -0.5 -0.85 -0.5 -0.8 -0.45 -0.75 -0.5 -0.7 -0.5 -0.7 Q-0.6 -0.8 -0.55 -0.7 L-0.55 -0.5 -0.55 -0.5 -0.5 -0.45 -0.5 -0.45 -0.55 -0.4 -0.6 -0.35 -0.7 -0.35 Q-0.8 -0.3 -0.9 -0.4 L-1.0 -0.45 -1.05 -0.5 -1.1 -0.55 -1.1 -0.6 -1.15 -0.7 -1.15 -0.8 -1.05 -0.85 -1.0 -0.95 Z" fill="none" stroke="#000000" stroke-linecap="round" stroke-linejoin="round" stroke-opacity="0.4" stroke-width="1.0"/>
  </g>
</svg>
