<?xml version="1.0" encoding="UTF-8" standalone="no"?>
<svg xmlns:xlink="http://www.w3.org/1999/xlink" height="5.2px" width="5.2px" xmlns="http://www.w3.org/2000/svg">
  <g transform="matrix(1.0, 0.0, 0.0, 1.0, 2.6, 2.6)">
    <path d="M1.75 -2.6 L1.7 -2.5 1.65 -2.5 1.65 -2.5 1.6 -2.45 1.5 -2.45 1.4 -2.45 1.0 -2.45 1.0 -2.45 0.95 -2.4 0.65 -2.4 0.3 -2.4 0.25 -2.4 0.05 -2.4 0.0 -2.35 -0.2 -2.35 -0.25 -2.35 -0.35 -2.35 -0.75 -2.35 -0.9 -2.35 -1.3 -2.35 -1.65 -2.4 -1.7 -2.4 -1.9 -2.4 -1.9 -2.4 -2.05 -2.4 -2.05 -2.45 -2.1 -2.45 -2.2 -2.5 -2.2 -2.5 -2.3 -2.55 -2.3 -2.55 -2.15 -2.6 1.75 -2.6 M-2.05 2.3 L-2.05 2.2 1.55 2.2 1.55 2.3 1.55 2.35 1.55 2.45 1.4 2.45 1.2 2.45 1.1 2.5 0.95 2.5 0.85 2.5 0.45 2.5 0.05 2.5 -0.05 2.5 -0.3 2.5 -0.65 2.5 -0.85 2.5 -1.25 2.5 -1.65 2.5 -2.0 2.5 -2.05 2.5 -2.05 2.4 -2.05 2.3 -2.0 2.3 -2.05 2.3" fill="#f5efe8" fill-rule="evenodd" stroke="none"/>
    <path d="M-2.3 -2.55 L-2.3 -2.55 -2.2 -2.5 -2.2 -2.5 -2.1 -2.45 -2.05 -2.45 -2.05 -2.4 -1.9 -2.4 -1.9 -2.4 -1.7 -2.4 -1.65 -2.4 -1.3 -2.35 -0.9 -2.35 -0.75 -2.35 -0.35 -2.35 -0.25 -2.35 -0.2 -2.35 0.0 -2.35 0.05 -2.4 0.25 -2.4 0.3 -2.4 0.65 -2.4 0.95 -2.4 1.0 -2.45 1.0 -2.45 1.4 -2.45 1.5 -2.45 1.6 -2.45 1.65 -2.5 1.65 -2.5 1.7 -2.5 1.75 -2.6 2.15 -2.6 Q2.5 -2.6 2.55 -2.3 L-2.6 -2.3 Q-2.55 -2.5 -2.3 -2.55 M2.55 2.3 Q2.5 2.6 2.15 2.6 L-2.15 2.6 Q-2.5 2.6 -2.6 2.3 L-2.15 2.3 -2.05 2.3 -2.0 2.3 -2.05 2.3 -2.05 2.4 -2.05 2.5 -2.0 2.5 -1.65 2.5 -1.25 2.5 -0.85 2.5 -0.65 2.5 -0.3 2.5 -0.05 2.5 0.05 2.5 0.45 2.5 0.85 2.5 0.95 2.5 1.1 2.5 1.2 2.45 1.4 2.45 1.55 2.45 1.55 2.35 1.55 2.3 2.15 2.3 2.55 2.3" fill="#cdc8c2" fill-rule="evenodd" stroke="none"/>
    <path d="M-2.6 -2.3 L2.55 -2.3 2.6 -2.15 2.6 -0.45 2.55 -0.4 2.55 -0.35 2.55 -0.3 2.55 -0.2 2.5 -0.15 2.5 -0.1 2.45 -0.05 2.45 0.05 2.4 0.1 2.4 0.2 2.3 0.3 2.3 -0.5 2.3 -1.05 2.35 -1.45 2.35 -2.0 2.25 -2.1 2.25 -2.1 2.2 -2.05 2.2 -2.05 2.2 -2.15 2.15 -2.2 -2.15 -2.2 -2.15 -2.15 -2.2 -2.15 -2.2 2.15 -2.15 2.2 -2.05 2.2 -2.05 2.3 -2.15 2.3 Q-2.3 2.25 -2.3 2.15 L-2.3 0.3 -2.3 0.3 -2.4 0.2 -2.45 0.15 -2.5 0.1 -2.5 0.05 -2.55 -0.05 -2.6 -0.1 -2.6 -2.3 M1.55 2.2 L2.1 2.2 2.15 2.25 2.2 2.25 2.15 2.3 1.55 2.3 1.55 2.2" fill="#d4d4d4" fill-opacity="0.5686275" fill-rule="evenodd" stroke="none"/>
    <path d="M2.2 -2.05 L2.2 -2.05 2.25 -2.1 2.25 -2.1 2.35 -2.0 2.35 -1.45 2.3 -1.05 2.3 -0.5 2.3 0.3 2.4 0.2 2.4 0.1 2.45 0.05 2.45 -0.05 2.5 -0.1 2.5 -0.15 2.55 -0.2 2.55 -0.3 2.55 -0.35 2.55 -0.4 2.6 -0.45 2.6 2.15 2.55 2.3 2.15 2.3 2.2 2.25 2.15 2.25 2.1 2.2 2.15 2.2 2.2 2.15 2.2 -2.05 M-2.6 2.3 L-2.6 -0.1 -2.55 -0.05 -2.5 0.05 -2.5 0.1 -2.45 0.15 -2.4 0.2 -2.3 0.3 -2.3 0.3 -2.3 2.15 Q-2.3 2.25 -2.15 2.3 L-2.6 2.3" fill="#989898" fill-opacity="0.5686275" fill-rule="evenodd" stroke="none"/>
    <path d="M-2.15 -2.2 L2.15 -2.2 2.2 -2.15 2.2 -2.05 2.2 2.15 2.15 2.2 2.1 2.2 1.55 2.2 -2.05 2.2 -2.15 2.2 -2.2 2.15 -2.2 -2.15 -2.15 -2.15 -2.15 -2.2" fill="url(#gradient0)" fill-rule="evenodd" stroke="none"/>
    <path d="M1.75 -2.6 L-2.15 -2.6 -2.3 -2.55 Q-2.55 -2.5 -2.6 -2.3 L-2.6 -0.1 -2.6 2.3 Q-2.5 2.6 -2.15 2.6 L2.15 2.6 Q2.5 2.6 2.55 2.3 L2.6 2.15 2.6 -0.45 2.6 -2.15 2.55 -2.3 Q2.5 -2.6 2.15 -2.6 L1.75 -2.6 M-2.15 -2.2 L2.15 -2.2 2.2 -2.15 2.2 -2.05 2.2 2.15 2.15 2.2 2.1 2.2 1.55 2.2 -2.05 2.2 -2.15 2.2 -2.2 2.15 -2.2 -2.15" fill="none" stroke="#000000" stroke-linecap="round" stroke-linejoin="round" stroke-opacity="0.4" stroke-width="1.0"/>
    <path d="M0.2 -0.75 L0.25 -0.7 0.55 -0.4 0.85 -0.1 1.05 0.15 1.25 0.35 1.5 0.6 1.8 0.9 1.9 1.0 2.0 1.1 Q1.95 1.1 1.9 1.05 L1.8 0.95 1.75 0.95 1.75 0.9 1.5 0.7 1.5 0.65 1.25 0.4 1.0 0.15 0.8 -0.1 Q0.65 -0.2 0.55 -0.35 L0.45 -0.45 0.35 -0.5 0.35 -0.55 0.3 -0.6 Q0.3 -0.6 0.25 -0.65 0.25 -0.6 0.2 -0.65 L0.15 -0.75 0.15 -0.8 0.2 -0.8 0.2 -0.75" fill="#363636" fill-rule="evenodd" stroke="none"/>
    <path d="M2.0 1.1 L2.1 1.2 2.2 1.35 2.1 1.4 2.05 1.35 2.15 1.3 2.0 1.2 2.0 1.25 1.95 1.15 1.9 1.05 1.8 1.0 1.8 0.95 1.9 1.05 Q1.95 1.1 2.0 1.1 M0.3 -0.55 L0.25 -0.6 0.25 -0.65 Q0.3 -0.6 0.3 -0.6 L0.35 -0.55 0.3 -0.55 M0.4 -0.4 L0.35 -0.5 0.45 -0.45 0.55 -0.35 Q0.65 -0.2 0.8 -0.1 L1.0 0.15 1.25 0.4 1.1 0.25 0.65 -0.2 0.5 -0.3 0.4 -0.4 M1.5 0.7 L1.75 0.9 1.6 0.8 1.5 0.7" fill="#7e5d3e" fill-rule="evenodd" stroke="none"/>
    <path d="M0.1 -0.85 L0.05 -0.9 0.1 -0.95 0.2 -0.85 0.2 -0.75 0.2 -0.8 0.15 -0.8 0.15 -0.85 0.1 -0.85 M-0.4 -2.05 L-0.35 -1.95 -0.45 -2.1 -0.5 -2.15 -0.4 -2.05" fill="#b2a597" fill-rule="evenodd" stroke="none"/>
    <path d="M0.15 -0.85 L0.15 -0.8 0.15 -0.75 0.2 -0.65 Q0.25 -0.6 0.25 -0.65 L0.25 -0.6 0.3 -0.55 0.25 -0.5 0.15 -0.65 0.05 -0.8 0.15 -0.85" fill="#897867" fill-rule="evenodd" stroke="none"/>
    <path d="M0.25 -1.4 L-0.05 -1.1 0.05 -1.2 0.15 -1.3 0.2 -1.45 0.35 -1.6 0.3 -1.5 0.25 -1.4 M0.15 -0.85 L0.05 -0.8 0.1 -0.85 0.15 -0.85 M0.05 -0.8 L0.05 -0.8 M-1.0 -1.6 L-1.0 -1.55 -0.95 -1.6 -0.9 -1.45 -0.95 -1.45 -1.05 -1.5 -1.0 -1.5 -1.05 -1.5 -1.1 -1.5 -1.05 -1.55 -1.0 -1.6" fill="#f7f3ec" fill-rule="evenodd" stroke="none"/>
    <path d="M-0.25 -1.25 L-0.2 -1.2 -0.25 -1.15 -0.3 -1.15 -0.3 -1.2 -0.25 -1.25" fill="#605035" fill-rule="evenodd" stroke="none"/>
    <path d="M-0.15 -1.15 L-0.15 -1.05 -0.15 -1.05 0.0 -0.9 -0.05 -0.95 -0.1 -0.95 -0.15 -0.95 -0.2 -1.05 -0.25 -0.95 -0.25 -1.0 -0.4 -1.0 -0.3 -1.05 -0.25 -1.15 -0.2 -1.2 -0.15 -1.15" fill="#cab79b" fill-rule="evenodd" stroke="none"/>
    <path d="M-0.4 -1.3 L-0.35 -1.25 -0.25 -1.25 -0.3 -1.2 Q-0.3 -1.2 -0.35 -1.15 L-0.4 -1.15 -0.45 -1.2 -0.4 -1.2 -0.45 -1.3 -0.5 -1.2 -0.5 -1.3 -0.4 -1.3 M-0.6 -1.2 L-0.55 -1.25 -0.5 -1.2 -0.55 -1.1 -0.6 -1.2 M-0.55 -0.9 L-0.6 -0.9 -0.65 -1.0 -0.55 -0.9" fill="#d8d3cb" fill-rule="evenodd" stroke="none"/>
    <path d="M-0.55 -1.1 L-0.5 -1.2 -0.45 -1.2 -0.4 -1.15 -0.35 -1.15 Q-0.3 -1.2 -0.3 -1.2 L-0.3 -1.15 -0.25 -1.15 -0.3 -1.05 -0.4 -1.0 -0.5 -1.0 -0.5 -1.0 Q-0.35 -1.05 -0.3 -1.1 L-0.3 -1.15 -0.5 -1.05 -0.5 -1.1 -0.5 -1.0 -0.6 -1.0 -0.55 -1.1" fill="#72634e" fill-rule="evenodd" stroke="none"/>
    <path d="M0.25 -1.4 L0.2 -1.25 0.05 -1.1 0.1 -1.0 0.1 -0.95 0.05 -0.9 0.1 -0.85 0.0 -0.9 -0.15 -1.05 -0.15 -1.05 -0.15 -1.15 -0.1 -1.2 -0.1 -1.1 -0.05 -1.05 -0.05 -1.1 0.25 -1.4 M0.05 -0.95 L0.05 -1.0 0.0 -1.0 0.0 -1.0 0.05 -0.95" fill="#453420" fill-rule="evenodd" stroke="none"/>
    <path d="M0.05 -0.95 L0.0 -1.0 0.0 -1.0 0.05 -1.0 0.05 -0.95" fill="#90846e" fill-rule="evenodd" stroke="none"/>
    <path d="M0.0 -0.9 L0.1 -0.85 0.05 -0.8 -0.1 -0.95 -0.05 -0.95 0.0 -0.9" fill="#9e8261" fill-rule="evenodd" stroke="none"/>
    <path d="M2.2 1.55 L2.2 1.6 2.2 1.65 2.2 1.95 2.15 1.9 2.2 1.9 2.15 1.8 2.0 1.75 1.8 1.5 1.6 1.3 1.6 1.35 1.55 1.3 1.6 1.3 1.5 1.2 1.4 1.1 1.45 1.05 1.5 1.1 1.6 1.05 1.65 1.15 1.75 1.15 1.65 1.0 1.8 1.0 1.9 1.05 1.95 1.15 2.0 1.25 2.05 1.35 2.1 1.4 2.1 1.45 2.15 1.5 2.2 1.55 M0.05 -0.8 L0.15 -0.65 0.25 -0.5 0.3 -0.45 0.15 -0.6 -0.05 -0.75 -0.05 -0.85 -0.05 -0.85 -0.15 -0.95 -0.1 -0.95 0.05 -0.8 0.05 -0.8" fill="#432f23" fill-rule="evenodd" stroke="none"/>
    <path d="M-0.05 -0.75 L0.05 -0.65 0.15 -0.5 Q0.05 -0.55 0.0 -0.6 L-0.05 -0.75 -0.1 -0.8 -0.2 -0.8 -0.35 -0.8 -0.45 -0.85 -0.35 -0.85 -0.3 -0.85 Q-0.3 -0.85 -0.25 -0.9 L-0.25 -0.95 -0.2 -1.05 -0.15 -0.95 -0.05 -0.85 -0.05 -0.85 -0.05 -0.75" fill="#958878" fill-rule="evenodd" stroke="none"/>
    <path d="M-0.4 -1.0 L-0.25 -1.0 -0.25 -0.95 -0.25 -0.9 Q-0.3 -0.85 -0.3 -0.85 L-0.35 -0.85 -0.45 -0.85 -0.5 -0.95 -0.5 -1.0 -0.4 -1.0" fill="#f7f5f0" fill-rule="evenodd" stroke="none"/>
    <path d="M1.25 1.0 L1.1 0.85 0.95 0.7 0.65 0.35 0.25 -0.05 -0.05 -0.4 -0.4 -0.75 -0.45 -0.75 -0.45 -0.85 -0.55 -0.8 -0.65 -0.75 -0.6 -0.8 -0.5 -0.9 -0.45 -0.85 -0.35 -0.8 -0.25 -0.7 -0.1 -0.6 0.0 -0.5 0.05 -0.35 0.15 -0.4 0.1 -0.45 0.25 -0.35 0.2 -0.35 0.2 -0.25 0.25 -0.2 0.3 -0.2 0.4 -0.3 0.4 -0.4 0.5 -0.3 0.65 -0.2 0.6 -0.2 0.55 -0.2 0.55 -0.2 0.5 -0.25 0.45 -0.2 0.4 -0.15 0.45 -0.1 0.55 -0.05 0.6 0.05 0.65 0.2 0.7 0.3 0.8 0.35 0.85 0.4 0.9 0.45 0.95 0.45 1.0 0.5 1.05 0.55 1.1 0.65 1.15 0.7 1.15 0.75 1.2 0.8 1.25 0.85 1.4 1.05 1.2 0.9 1.25 1.0" fill="#362a21" fill-rule="evenodd" stroke="none"/>
    <path d="M-0.45 -0.75 L-0.5 -0.75 -0.55 -0.75 -0.6 -0.7 -0.65 -0.65 -0.75 -0.6 -0.85 -0.6 -0.8 -0.65 -0.7 -0.65 -0.7 -0.7 -0.65 -0.75 -0.55 -0.8 -0.45 -0.85 -0.45 -0.75" fill="#483f3a" fill-rule="evenodd" stroke="none"/>
    <path d="M0.25 -0.5 L0.3 -0.55 0.35 -0.55 0.35 -0.5 0.4 -0.4 0.4 -0.3 0.3 -0.2 0.25 -0.2 0.2 -0.25 0.2 -0.35 0.25 -0.35 0.1 -0.45 0.15 -0.4 0.05 -0.35 0.0 -0.5 -0.1 -0.6 -0.25 -0.7 -0.35 -0.8 -0.2 -0.8 -0.1 -0.8 -0.05 -0.75 0.0 -0.6 -0.05 -0.7 -0.1 -0.65 0.1 -0.5 Q0.1 -0.45 0.2 -0.45 0.25 -0.35 0.3 -0.35 L0.2 -0.45 0.15 -0.5 0.05 -0.65 -0.05 -0.75 0.15 -0.6 0.3 -0.45 0.25 -0.5" fill="#716151" fill-rule="evenodd" stroke="none"/>
    <path d="M-0.5 -1.0 L-0.5 -1.1 -0.5 -1.05 -0.3 -1.15 -0.3 -1.1 Q-0.35 -1.05 -0.5 -1.0 L-0.5 -1.0" fill="#cec6b5" fill-rule="evenodd" stroke="none"/>
    <path d="M-0.5 -1.2 L-0.45 -1.3 -0.4 -1.2 -0.45 -1.2 -0.5 -1.2" fill="#fcfbf8" fill-rule="evenodd" stroke="none"/>
    <path d="M-0.9 -1.3 L-0.9 -1.3 -0.8 -1.15 -0.7 -1.2 -0.6 -1.2 -0.55 -1.1 -0.6 -1.0 -0.5 -1.0 -0.5 -0.95 -0.45 -0.85 -0.5 -0.9 -0.55 -0.95 -0.55 -0.9 -0.65 -1.0 -0.7 -1.1 -0.9 -1.2 -0.9 -1.15 -0.95 -1.15 -1.0 -1.15 -0.9 -1.3 M-0.5 -1.0 L-0.5 -1.0 -0.5 -1.0" fill="#655443" fill-rule="evenodd" stroke="none"/>
    <path d="M-1.0 -0.7 L-1.0 -0.7 -1.1 -0.7 -1.05 -0.75 -0.95 -0.75 -0.95 -0.75 -0.85 -0.8 -0.75 -0.8 -0.7 -0.85 -0.6 -0.9 -0.55 -0.9 -0.55 -0.95 -0.5 -0.9 -0.6 -0.8 -0.65 -0.75 -0.7 -0.7 -0.75 -0.7 -0.7 -0.65 -0.8 -0.65 -0.8 -0.7 -0.9 -0.7 -1.0 -0.7" fill="#2e1807" fill-rule="evenodd" stroke="none"/>
    <path d="M-0.7 -0.65 L-0.75 -0.7 -0.7 -0.7 -0.7 -0.65" fill="#7d7973" fill-rule="evenodd" stroke="none"/>
    <path d="M-2.2 -1.25 L-2.2 -1.25 -2.1 -1.25 -2.15 -1.25 -2.2 -1.25 M-1.6 -1.65 L-1.5 -1.6 -1.35 -1.6 -1.25 -1.65 -1.45 -1.55 -1.65 -1.55 -1.6 -1.65 M-1.3 -1.05 L-1.15 -1.1 -1.3 -1.05 -1.15 -0.85 Q-1.05 -0.8 -0.95 -0.75 L-1.1 -0.8 -1.2 -0.9 -1.3 -1.05 M-0.95 -0.75 L-0.95 -0.75 M-0.7 -1.1 L-0.8 -1.05 -0.9 -1.0 -1.0 -0.9 -1.0 -0.95 -1.0 -1.05 -0.95 -1.15 -0.9 -1.15 -0.9 -1.2 -0.7 -1.1" fill="#acadaf" fill-rule="evenodd" stroke="none"/>
    <path d="M-1.05 -0.75 L-1.15 -0.75 -1.25 -0.9 -1.2 -0.9 -1.1 -0.8 -0.95 -0.75 -1.05 -0.75" fill="#835414" fill-rule="evenodd" stroke="none"/>
    <path d="M-0.85 -0.6 L-0.85 -0.6 -0.9 -0.65 -1.0 -0.7 -0.9 -0.7 -0.8 -0.7 -0.8 -0.65 -0.85 -0.6" fill="#815720" fill-rule="evenodd" stroke="none"/>
    <path d="M0.15 -0.5 L0.2 -0.45 0.3 -0.35 Q0.25 -0.35 0.2 -0.45 0.1 -0.45 0.1 -0.5 L-0.1 -0.65 -0.05 -0.7 0.0 -0.6 Q0.05 -0.55 0.15 -0.5" fill="#35251b" fill-rule="evenodd" stroke="none"/>
    <path d="M1.45 1.2 L1.25 1.0 1.2 0.9 1.4 1.05 1.25 0.85 1.2 0.8 1.15 0.75 1.15 0.7 1.1 0.65 1.05 0.55 1.0 0.5 0.95 0.45 0.9 0.45 0.85 0.4 0.8 0.35 0.7 0.3 0.65 0.2 0.6 0.05 0.55 -0.05 0.45 -0.1 0.4 -0.15 0.45 -0.2 0.5 -0.25 0.55 -0.2 0.55 -0.2 0.6 -0.2 0.65 -0.2 1.1 0.25 1.25 0.4 1.5 0.65 1.5 0.7 1.6 0.8 1.75 0.9 1.75 0.95 1.8 0.95 1.8 1.0 1.65 1.0 1.75 1.15 1.65 1.15 1.6 1.05 1.5 1.1 1.45 1.05 1.4 1.1 1.45 1.2" fill="#48372c" fill-rule="evenodd" stroke="none"/>
    <path d="M2.1 1.2 L2.2 1.3 2.2 1.35 2.1 1.2" fill="#2f3132" fill-rule="evenodd" stroke="none"/>
    <path d="M1.55 1.3 L1.45 1.2 1.4 1.1 1.5 1.2 1.6 1.3 1.55 1.3" fill="#6a6664" fill-rule="evenodd" stroke="none"/>
    <path d="M2.15 1.9 L1.6 1.35 1.6 1.3 1.8 1.5 2.0 1.75 2.15 1.8 2.2 1.9 2.15 1.9" fill="#5e5e61" fill-rule="evenodd" stroke="none"/>
    <path d="M2.2 1.35 L2.2 1.55 2.15 1.5 2.1 1.45 2.1 1.4 2.2 1.35 2.15 1.45 2.2 1.45 2.2 1.35 M2.2 1.6 L2.2 1.65 2.2 1.6" fill="#a67f4d" fill-rule="evenodd" stroke="none"/>
    <path d="M2.2 1.35 L2.2 1.45 2.15 1.45 2.2 1.35" fill="#d8b07e" fill-rule="evenodd" stroke="none"/>
    <path d="M2.05 1.35 L2.0 1.25 2.0 1.2 2.15 1.3 2.05 1.35" fill="#a87e54" fill-rule="evenodd" stroke="none"/>
    <path d="M-0.55 -2.1 L-0.55 -2.2 -0.5 -2.2 Q-0.45 -2.15 -0.45 -2.15 L-0.4 -2.2 -0.35 -2.2 -0.3 -2.2 -0.2 -2.2 -0.25 -2.15 -0.3 -2.1 -0.4 -2.05 -0.5 -2.15 -0.45 -2.1 -0.55 -2.1 M-0.3 -2.2 L-0.35 -2.15 -0.4 -2.1 -0.4 -2.1 -0.3 -2.15 -0.3 -2.2" fill="#563f34" fill-rule="evenodd" stroke="none"/>
    <path d="M-0.8 -1.9 L-0.75 -2.0 -0.7 -2.05 -0.7 -2.0 -0.8 -1.85 -0.75 -1.8 -0.7 -1.8 -0.65 -1.85 -0.6 -1.9 -0.6 -1.85 -0.65 -1.8 -0.7 -1.75 -0.7 -1.7 -0.75 -1.6 -0.75 -1.5 -0.8 -1.45 -0.85 -1.4 -0.8 -1.5 -0.85 -1.55 -0.85 -1.6 -0.85 -1.75 -0.8 -1.9 M-0.3 -2.2 L-0.3 -2.2 -0.3 -2.15 -0.4 -2.1 -0.4 -2.1 -0.35 -2.15 -0.3 -2.2" fill="#e7e1d6" fill-rule="evenodd" stroke="none"/>
    <path d="M-0.6 -2.0 L-0.55 -2.1 -0.55 -2.1 -0.45 -2.1 -0.35 -1.95 Q-0.3 -1.95 -0.35 -1.9 L-0.4 -1.8 -0.45 -1.85 -0.55 -1.95 -0.55 -2.0 -0.5 -2.05 -0.5 -2.05 -0.55 -2.0 -0.6 -2.0" fill="#35261b" fill-rule="evenodd" stroke="none"/>
    <path d="M-0.65 -2.0 L-0.6 -2.0 -0.55 -2.0 -0.5 -2.05 -0.5 -2.05 -0.55 -2.0 -0.55 -1.95 -0.5 -1.8 -0.6 -1.85 -0.55 -1.85 -0.65 -2.0 M-0.75 -1.35 L-0.8 -1.35 -0.75 -1.45 -0.75 -1.4 -0.65 -1.4 -0.6 -1.35 -0.65 -1.35 -0.55 -1.3 -0.65 -1.25 -0.7 -1.25 -0.65 -1.35 -0.75 -1.35 -0.75 -1.35" fill="#d9ccc0" fill-rule="evenodd" stroke="none"/>
    <path d="M-0.7 -2.05 L-0.7 -2.05 -0.65 -2.0 -0.55 -1.85 -0.6 -1.85 -0.6 -1.9 -0.7 -1.85 -0.7 -1.85 Q-0.7 -1.9 -0.75 -1.9 L-0.75 -1.85 -0.8 -1.85 -0.7 -2.0 -0.7 -2.05" fill="#735c48" fill-rule="evenodd" stroke="none"/>
    <path d="M-0.5 -1.8 L-0.5 -1.75 -0.45 -1.7 Q-0.5 -1.7 -0.55 -1.75 L-0.65 -1.75 -0.65 -1.65 -0.7 -1.7 -0.7 -1.75 -0.65 -1.8 -0.6 -1.85 -0.5 -1.8" fill="#634d39" fill-rule="evenodd" stroke="none"/>
    <path d="M-1.5 -0.95 L-1.6 -0.95 -1.7 -0.9 -1.8 -0.85 -1.95 -0.8 -2.1 -0.75 -2.15 -0.75 -2.2 -0.7 -2.2 -0.7 -2.2 -1.25 -2.15 -1.25 -1.9 -1.35 -1.9 -1.35 -1.85 -1.45 -1.7 -1.5 -1.65 -1.5 -1.7 -1.6 -1.8 -1.5 -1.85 -1.5 -1.65 -1.6 -1.6 -1.65 -1.6 -1.65 -1.65 -1.55 -1.45 -1.55 -1.45 -1.45 Q-1.45 -1.3 -1.35 -1.1 L-1.3 -1.05 -1.2 -0.9 -1.25 -0.9 -1.4 -1.0 -1.45 -0.95 -1.5 -0.95 M-0.7 -1.85 L-0.6 -1.9 -0.65 -1.85 -0.7 -1.8 -0.75 -1.8 -0.8 -1.85 -0.75 -1.85 -0.7 -1.85 -0.7 -1.85" fill="#271913" fill-rule="evenodd" stroke="none"/>
    <path d="M-0.75 -1.85 L-0.75 -1.9 Q-0.7 -1.9 -0.7 -1.85 L-0.7 -1.85 -0.75 -1.85 M-0.7 -1.85 L-0.7 -1.85" fill="#e1d7c9" fill-rule="evenodd" stroke="none"/>
    <path d="M-1.05 -1.75 L-0.95 -1.75 -0.9 -1.8 -0.85 -1.85 -0.8 -1.9 -0.85 -1.75 -0.85 -1.6 -0.9 -1.65 -0.95 -1.6 -1.0 -1.6 -1.05 -1.55 -1.05 -1.65 -1.1 -1.6 -1.1 -1.65 -1.05 -1.75" fill="#6d5846" fill-rule="evenodd" stroke="none"/>
    <path d="M-0.65 -1.65 L-0.65 -1.55 -0.6 -1.55 -0.55 -1.5 -0.55 -1.45 -0.5 -1.35 -0.5 -1.35 -0.55 -1.4 -0.6 -1.45 -0.6 -1.45 -0.65 -1.5 -0.7 -1.5 -0.7 -1.45 -0.75 -1.45 -0.8 -1.35 -0.75 -1.35 -0.7 -1.3 -0.75 -1.25 -0.8 -1.3 -0.8 -1.25 -0.9 -1.3 -1.05 -1.35 -0.95 -1.45 -0.9 -1.45 -0.95 -1.6 -1.0 -1.55 -1.0 -1.6 -0.95 -1.6 -0.9 -1.65 -0.85 -1.6 -0.85 -1.55 -0.8 -1.5 -0.85 -1.4 -0.8 -1.45 -0.75 -1.5 -0.75 -1.6 -0.7 -1.7 -0.65 -1.65 M-0.9 -1.3 L-0.9 -1.3" fill="#aea391" fill-rule="evenodd" stroke="none"/>
    <path d="M-1.5 -1.6 L-1.3 -1.7 -1.1 -1.75 -1.05 -1.75 -1.05 -1.75 -1.1 -1.65 -1.2 -1.5 -1.15 -1.45 -1.15 -1.4 -1.25 -1.4 Q-1.3 -1.4 -1.3 -1.4 L-1.35 -1.5 -1.45 -1.45 -1.45 -1.55 -1.25 -1.65 -1.35 -1.6 -1.5 -1.6" fill="#332721" fill-rule="evenodd" stroke="none"/>
    <path d="M-1.9 -1.45 L-1.85 -1.5 -1.8 -1.5 -1.7 -1.6 -1.65 -1.5 -1.7 -1.5 -1.85 -1.45 -1.9 -1.35 -1.9 -1.35 -1.9 -1.45 M-1.9 -1.35 L-1.9 -1.35" fill="#918976" fill-rule="evenodd" stroke="none"/>
    <path d="M-1.45 -1.45 L-1.35 -1.5 -1.3 -1.4 -1.3 -1.25 -1.3 -1.2 -1.25 -1.15 -1.35 -1.1 Q-1.45 -1.3 -1.45 -1.45" fill="#675950" fill-rule="evenodd" stroke="none"/>
    <path d="M-0.55 -1.45 L-0.4 -1.3 -0.5 -1.3 -0.5 -1.2 -0.55 -1.25 -0.6 -1.2 -0.7 -1.2 -0.8 -1.15 -0.9 -1.3 -0.8 -1.25 -0.8 -1.3 -0.75 -1.25 -0.7 -1.3 -0.75 -1.35 -0.75 -1.35 -0.65 -1.35 -0.7 -1.25 -0.65 -1.25 -0.55 -1.3 -0.65 -1.35 -0.6 -1.35 -0.5 -1.35 -0.5 -1.35 -0.55 -1.45" fill="#8b795c" fill-rule="evenodd" stroke="none"/>
    <path d="M-0.7 -1.45 L-0.7 -1.5 -0.65 -1.5 -0.6 -1.45 -0.6 -1.45 -0.55 -1.4 -0.7 -1.45" fill="#5a4222" fill-rule="evenodd" stroke="none"/>
    <path d="M-0.75 -1.45 L-0.7 -1.45 -0.55 -1.4 -0.5 -1.35 -0.6 -1.35 -0.65 -1.4 -0.75 -1.4 -0.75 -1.45" fill="#fdfcfd" fill-rule="evenodd" stroke="none"/>
    <path d="M-1.05 -1.55 L-1.1 -1.5 -1.15 -1.5 -1.1 -1.45 -1.1 -1.4 -1.15 -1.4 -1.15 -1.45 -1.2 -1.5 -1.1 -1.65 -1.1 -1.6 -1.05 -1.65 -1.05 -1.55" fill="#d1c4aa" fill-rule="evenodd" stroke="none"/>
    <path d="M-0.95 -1.45 L-1.05 -1.35 -1.1 -1.4 -1.1 -1.45 -1.15 -1.5 -1.1 -1.5 -1.05 -1.5 -1.0 -1.5 -1.05 -1.5 -0.95 -1.45" fill="#917e66" fill-rule="evenodd" stroke="none"/>
    <path d="M-1.05 -1.35 L-0.9 -1.3 -1.0 -1.15 -1.0 -1.15 -1.15 -1.1 -1.3 -1.05 -1.35 -1.1 -1.25 -1.15 -1.3 -1.2 -1.3 -1.25 -1.3 -1.4 Q-1.3 -1.4 -1.25 -1.4 L-1.15 -1.4 -1.1 -1.4 -1.05 -1.35" fill="#453932" fill-rule="evenodd" stroke="none"/>
    <path d="M-0.8 -1.05 L-0.95 -0.8 Q-1.05 -0.85 -1.0 -0.95 L-1.0 -0.9 -0.9 -1.0 -0.8 -1.05" fill="#6b6b6c" fill-rule="evenodd" stroke="none"/>
    <path d="M-1.15 -0.75 L-1.15 -0.75 -1.2 -0.8 -1.25 -0.85 -1.3 -0.9 -1.4 -0.95 -1.4 -0.95 -1.5 -0.95 -1.45 -0.95 -1.4 -1.0 -1.25 -0.9 -1.15 -0.75" fill="#716256" fill-rule="evenodd" stroke="none"/>
    <path d="M-2.2 -1.25 L-2.2 -1.3 -2.1 -1.35 -2.05 -1.35 -2.05 -1.35 Q-2.05 -1.35 -2.1 -1.35 -2.05 -1.35 -2.05 -1.35 L-2.0 -1.35 -1.9 -1.35 -2.15 -1.25 -2.1 -1.25 -2.2 -1.25 M-1.9 -1.35 L-1.9 -1.35" fill="#343231" fill-rule="evenodd" stroke="none"/>
    <path d="M-2.15 -0.75 L-2.2 -0.7 -2.2 -0.7 -2.2 -0.7 -2.2 -0.7 -2.15 -0.75 M-2.05 -1.35 L-2.0 -1.4 -1.95 -1.45 -1.95 -1.45 -1.9 -1.45 -1.9 -1.35 -2.0 -1.35 -2.05 -1.35" fill="#473f3e" fill-rule="evenodd" stroke="none"/>
    <path d="M-2.2 -0.7 L-2.2 -0.7 -2.2 -0.7 -2.2 -0.7" fill="#363333" fill-rule="evenodd" stroke="none"/>
    <path d="M0.1 -0.95 L0.1 -1.0 0.05 -1.1 0.2 -1.25 0.25 -1.4 0.3 -1.5 0.35 -1.6 0.2 -1.45 0.15 -1.3 0.05 -1.2 -0.05 -1.1 -0.05 -1.05 -0.1 -1.1 -0.1 -1.2 -0.15 -1.15 -0.15 -1.05 M0.1 -0.85 L0.05 -0.9 M0.1 -0.95 L0.2 -0.85 0.2 -0.75 0.25 -0.7 0.55 -0.4 0.85 -0.1 1.05 0.15 1.25 0.35 1.5 0.6 1.8 0.9 1.9 1.0 2.0 1.1 2.1 1.2 2.2 1.3 M2.2 1.95 L2.15 1.9 1.6 1.35 1.55 1.3 1.45 1.2 1.25 1.0 1.1 0.85 0.95 0.7 0.65 0.35 0.25 -0.05 -0.05 -0.4 -0.4 -0.75 -0.45 -0.75 -0.5 -0.75 -0.55 -0.75 -0.6 -0.7 -0.65 -0.65 -0.75 -0.6 -0.85 -0.6 -0.85 -0.6 -0.9 -0.65 -1.0 -0.7 -1.0 -0.7 -1.1 -0.7 -1.05 -0.75 -1.15 -0.75 -1.15 -0.75 -1.2 -0.8 -1.25 -0.85 -1.3 -0.9 -1.4 -0.95 -1.4 -0.95 -1.5 -0.95 -1.6 -0.95 -1.7 -0.9 -1.8 -0.85 -1.95 -0.8 -2.1 -0.75 -2.15 -0.75 -2.2 -0.7 -2.2 -0.7 M-2.2 -1.3 L-2.1 -1.35 -2.05 -1.35 -2.05 -1.35 -2.0 -1.4 -1.95 -1.45 -1.95 -1.45 -1.9 -1.45 -1.85 -1.5 -1.65 -1.6 -1.6 -1.65 -1.6 -1.65 -1.5 -1.6 -1.3 -1.7 -1.1 -1.75 -1.05 -1.75 -1.05 -1.75 -0.95 -1.75 -0.9 -1.8 -0.85 -1.85 -0.8 -1.9 -0.75 -2.0 -0.7 -2.05 -0.7 -2.05 -0.65 -2.0 -0.6 -2.0 -0.55 -2.1 -0.55 -2.1 -0.55 -2.2 -0.5 -2.2 Q-0.45 -2.15 -0.45 -2.15 L-0.4 -2.2 -0.35 -2.2 M-0.2 -2.2 L-0.25 -2.15 -0.3 -2.1 -0.4 -2.05 -0.35 -1.95 Q-0.3 -1.95 -0.35 -1.9 L-0.4 -1.8 -0.45 -1.85 -0.55 -1.95 -0.5 -1.8 -0.5 -1.75 -0.45 -1.7 Q-0.5 -1.7 -0.55 -1.75 L-0.65 -1.75 -0.65 -1.65 -0.65 -1.55 -0.6 -1.55 -0.55 -1.5 -0.55 -1.45 -0.4 -1.3 -0.35 -1.25 -0.25 -1.25 -0.2 -1.2 -0.15 -1.15 M0.15 -0.85 L0.1 -0.85 M-2.05 -1.35 Q-2.05 -1.35 -2.1 -1.35 M-0.7 -1.85 L-0.7 -1.85 M-1.15 -1.1 L-1.0 -1.15 -1.0 -1.15 -0.95 -1.15 -1.0 -1.05 -1.0 -0.95 Q-1.05 -0.85 -0.95 -0.8 L-0.8 -1.05 -0.7 -1.1 -0.65 -1.0 -0.6 -0.9 -0.7 -0.85 -0.75 -0.8 -0.85 -0.8 -0.95 -0.75 Q-1.05 -0.8 -1.15 -0.85 L-1.3 -1.05 -1.15 -1.1 Z" fill="none" stroke="#000000" stroke-linecap="round" stroke-linejoin="round" stroke-opacity="0.4509804" stroke-width="1.0"/>
  </g>
  <defs>
    <radialGradient cx="0" cy="0" gradientTransform="matrix(0.0038, 0.0, 0.0, 0.0038, 0.0, 0.0)" gradientUnits="userSpaceOnUse" id="gradient0" r="819.2" spreadMethod="pad">
      <stop offset="0.0" stop-color="#4bcefa"/>
      <stop offset="1.0" stop-color="#1c5aaf" stop-opacity="0.9764706"/>
    </radialGradient>
  </defs>
</svg>
