<?xml version="1.0" encoding="UTF-8" standalone="no"?>
<svg xmlns:xlink="http://www.w3.org/1999/xlink" height="4.35px" width="4.05px" xmlns="http://www.w3.org/2000/svg">
  <g transform="matrix(1.0, 0.0, 0.0, 1.0, 2.05, 2.15)">
    <path d="M-1.75 -0.85 Q-1.8 -0.9 -1.8 -0.9 L-1.85 -0.8 Q-1.95 -0.85 -1.85 -1.0 L-1.85 -1.1 -1.8 -1.2 -1.8 -1.25 -1.7 -1.3 Q-1.65 -1.25 -1.65 -1.3 L-1.7 -1.35 -1.75 -1.35 -1.75 -1.4 -1.6 -1.4 Q-1.6 -1.4 -1.55 -1.45 L-1.5 -1.5 -1.4 -1.5 Q-1.35 -1.5 -1.35 -1.55 L-1.4 -1.6 -1.35 -1.6 -1.2 -1.65 -1.2 -1.7 -1.15 -1.75 -1.1 -1.8 -1.05 -1.85 -0.95 -1.9 Q-0.9 -1.9 -0.8 -1.95 L-0.7 -1.95 -0.6 -2.0 -0.6 -2.0 -0.55 -2.05 -0.55 -2.0 -0.45 -2.0 -0.5 -1.95 -0.5 -1.85 -0.35 -1.8 -0.2 -1.85 -0.2 -2.0 Q-0.15 -2.05 -0.05 -2.05 L-0.05 -2.05 0.0 -2.1 0.05 -2.05 0.1 -2.05 0.2 -2.1 0.2 -2.05 Q0.2 -2.05 0.25 -2.05 L0.25 -2.0 0.35 -2.05 0.4 -2.05 0.6 -1.95 0.6 -1.9 0.65 -1.85 0.65 -1.85 0.6 -1.8 Q0.55 -1.75 0.6 -1.75 L0.6 -1.65 Q0.6 -1.6 0.6 -1.65 0.65 -1.7 0.75 -1.65 L0.9 -1.55 0.9 -1.55 0.9 -1.4 0.9 -1.35 0.95 -1.35 1.1 -1.3 1.15 -1.25 Q1.15 -1.15 1.1 -1.15 L0.95 -1.2 Q0.9 -1.05 0.8 -1.1 L0.7 -1.1 0.6 -1.1 0.55 -1.05 0.5 -1.15 0.45 -1.15 0.3 -1.2 0.2 -1.15 Q0.25 -1.25 0.15 -1.25 0.05 -1.25 0.0 -1.2 L-0.05 -1.2 -0.1 -1.15 -0.2 -1.15 -0.4 -1.15 -0.55 -1.05 -0.7 -1.05 -0.75 -1.05 -0.9 -1.0 -0.9 -1.0 Q-0.95 -1.05 -1.0 -1.05 L-1.05 -1.0 -1.05 -1.0 -1.1 -0.9 -1.1 -0.9 -1.05 -0.85 -1.05 -0.8 -1.1 -0.8 -1.1 -0.8 -1.15 -0.75 -1.1 -0.7 -1.0 -0.65 -1.0 -0.6 -1.1 -0.55 -1.15 -0.6 -1.2 -0.6 -1.2 -0.6 -1.2 -0.65 -1.25 -0.65 Q-1.35 -0.65 -1.35 -0.75 L-1.35 -0.8 -1.3 -0.8 -1.25 -0.75 Q-1.25 -0.8 -1.25 -0.85 L-1.3 -0.9 -1.35 -0.9 -1.45 -0.85 -1.35 -0.85 -1.35 -0.8 -1.4 -0.75 -1.45 -0.8 -1.5 -0.85 -1.55 -1.0 -1.55 -1.15 -1.7 -1.15 -1.7 -0.9 Q-1.7 -0.85 -1.75 -0.85 M-1.0 -0.6 L-1.0 -0.6 M-1.15 -0.75 L-1.15 -0.7 -1.15 -0.75" fill="#120506" fill-rule="evenodd" stroke="none"/>
    <path d="M1.5 -1.55 L1.5 -1.55 1.55 -1.55 1.5 -1.5 1.3 -1.5 1.25 -1.5 Q1.15 -1.5 1.15 -1.45 1.1 -1.4 1.15 -1.35 L1.2 -1.35 1.25 -1.3 1.3 -1.3 1.3 -1.25 1.35 -1.15 Q1.4 -1.1 1.45 -1.15 L1.5 -1.1 1.45 -1.05 1.45 -0.95 1.4 -0.95 Q1.4 -1.0 1.4 -1.0 L1.3 -1.0 1.25 -1.1 1.2 -1.1 1.2 -1.05 1.25 -1.0 Q1.2 -0.95 1.25 -0.95 L1.35 -0.9 1.4 -0.8 1.45 -0.8 1.45 -0.75 1.4 -0.75 1.35 -0.8 1.3 -0.8 1.25 -0.8 1.3 -0.7 1.25 -0.6 1.2 -0.55 1.2 -0.55 Q1.2 -0.6 1.05 -0.7 L1.15 -0.7 1.05 -0.8 1.15 -0.9 1.15 -0.95 1.15 -1.0 1.1 -1.0 1.05 -1.0 1.05 -1.0 0.95 -1.0 0.9 -0.95 0.85 -0.9 0.95 -0.75 0.95 -0.75 0.85 -0.75 0.8 -0.8 0.8 -0.8 0.95 -0.7 0.95 -0.65 0.95 -0.65 0.9 -0.65 0.9 -0.65 0.85 -0.65 Q0.75 -0.7 0.75 -0.8 L0.7 -0.9 0.65 -0.85 0.65 -0.8 0.7 -0.7 0.8 -0.55 0.85 -0.5 0.9 -0.45 0.85 -0.45 0.85 -0.45 0.85 -0.45 0.75 -0.6 Q0.7 -0.6 0.65 -0.55 L0.6 -0.6 0.6 -0.65 0.55 -0.65 0.55 -0.65 0.55 -0.7 0.5 -0.75 0.45 -0.75 0.45 -0.75 0.4 -0.75 0.25 -0.75 Q0.2 -0.75 0.2 -0.7 L0.15 -0.7 0.1 -0.65 0.0 -0.6 0.0 -0.55 0.05 -0.6 0.05 -0.55 0.05 -0.55 0.1 -0.55 0.15 -0.55 0.25 -0.55 0.3 -0.5 0.35 -0.5 Q0.35 -0.5 0.35 -0.55 L0.45 -0.5 0.45 -0.4 0.5 -0.4 0.6 -0.45 0.65 -0.4 0.7 -0.3 0.6 -0.3 0.55 -0.25 0.5 -0.2 0.5 -0.2 Q0.45 -0.2 0.4 -0.3 L0.35 -0.3 0.35 -0.35 0.2 -0.45 0.2 -0.45 0.15 -0.45 0.1 -0.4 0.05 -0.35 0.05 -0.25 0.0 -0.25 0.0 -0.2 0.05 -0.15 0.1 -0.15 0.1 -0.1 0.15 0.0 -0.05 -0.1 Q0.0 -0.2 -0.1 -0.2 L-0.25 -0.2 -0.4 -0.2 -0.35 -0.3 -0.3 -0.35 -0.25 -0.35 -0.25 -0.3 -0.3 -0.3 Q-0.3 -0.2 -0.2 -0.25 L-0.05 -0.25 -0.05 -0.3 -0.15 -0.3 -0.2 -0.25 -0.1 -0.35 -0.1 -0.4 -0.15 -0.4 -0.15 -0.4 -0.1 -0.45 -0.05 -0.45 Q-0.05 -0.5 -0.05 -0.5 L-0.1 -0.55 -0.15 -0.55 -0.15 -0.6 -0.1 -0.65 Q-0.1 -0.55 -0.1 -0.6 L-0.1 -0.7 -0.05 -0.65 0.0 -0.65 0.0 -0.7 0.05 -0.8 0.1 -0.7 0.05 -0.85 -0.05 -0.9 -0.05 -0.85 -0.1 -0.8 Q-0.1 -0.75 -0.15 -0.75 L-0.2 -0.8 -0.1 -0.9 -0.1 -0.95 Q0.05 -0.95 0.05 -1.0 L-0.1 -1.05 -0.25 -1.05 -0.15 -1.1 -0.1 -1.15 -0.05 -1.2 0.0 -1.2 0.0 -1.15 Q0.05 -1.1 0.05 -1.15 L0.1 -1.05 0.1 -1.0 0.05 -0.95 0.1 -0.85 0.2 -0.75 0.25 -0.8 0.25 -0.9 0.3 -0.9 0.35 -0.9 0.3 -0.95 0.3 -0.95 0.25 -1.0 0.3 -1.0 0.35 -0.95 Q0.45 -0.95 0.45 -1.0 L0.35 -1.0 0.4 -1.0 0.3 -1.05 0.3 -1.1 0.25 -1.15 0.2 -1.15 0.3 -1.15 0.4 -1.1 Q0.45 -1.1 0.45 -1.15 L0.5 -1.15 0.5 -1.05 Q0.5 -1.0 0.55 -1.05 L0.6 -1.1 0.7 -1.1 0.7 -1.0 0.75 -1.0 0.8 -1.0 0.8 -1.1 Q0.9 -1.05 0.95 -1.2 L1.1 -1.15 Q1.15 -1.15 1.15 -1.25 L1.15 -1.3 1.1 -1.3 0.95 -1.35 0.95 -1.4 0.9 -1.4 0.9 -1.55 0.9 -1.55 0.95 -1.5 1.0 -1.45 Q1.05 -1.4 1.05 -1.45 L1.05 -1.6 Q1.05 -1.65 1.05 -1.6 L1.1 -1.6 1.1 -1.55 Q1.1 -1.5 1.15 -1.5 L1.2 -1.55 1.25 -1.55 1.3 -1.55 1.4 -1.55 1.5 -1.55 M1.7 -0.45 L1.7 -0.35 1.75 -0.25 1.75 -0.25 1.7 -0.25 1.65 -0.25 1.65 -0.3 1.6 -0.3 Q1.65 -0.35 1.6 -0.4 1.55 -0.4 1.55 -0.45 L1.55 -0.5 1.55 -0.5 Q1.6 -0.6 1.55 -0.6 L1.5 -0.55 Q1.45 -0.5 1.5 -0.5 1.55 -0.45 1.5 -0.4 1.45 -0.35 1.5 -0.3 1.5 -0.25 1.45 -0.25 1.35 -0.25 1.35 -0.2 L1.5 -0.2 1.55 -0.25 1.6 -0.25 1.6 -0.15 1.55 -0.15 1.55 -0.15 1.5 -0.15 1.45 -0.15 1.5 -0.1 1.5 -0.05 1.6 0.0 Q1.55 0.05 1.5 0.05 L1.55 0.1 1.5 0.2 1.55 0.15 1.6 0.15 1.7 0.15 1.75 0.15 1.75 0.25 1.8 0.2 1.85 0.15 1.9 0.15 1.95 0.15 1.95 0.2 2.0 0.15 2.0 0.3 1.95 0.3 1.85 0.25 1.8 0.3 1.85 0.3 1.9 0.3 1.75 0.35 Q1.7 0.25 1.75 0.25 1.7 0.25 1.7 0.3 L1.65 0.3 Q1.65 0.35 1.7 0.35 L1.65 0.4 1.55 0.4 1.55 0.45 1.5 0.45 1.4 0.5 1.4 0.4 1.3 0.5 1.3 0.45 1.25 0.5 1.2 0.5 1.1 0.45 1.1 0.4 1.35 0.35 1.25 0.25 Q1.2 0.2 1.15 0.2 L1.15 0.3 1.05 0.35 1.0 0.4 Q0.9 0.4 0.85 0.3 0.75 0.25 0.9 0.25 L0.95 0.3 1.05 0.3 1.1 0.3 1.05 0.3 1.05 0.25 1.0 0.25 Q0.95 0.3 1.0 0.25 L1.0 0.2 1.05 0.15 1.15 0.1 1.1 0.05 1.15 0.05 1.25 0.05 1.3 -0.1 1.2 -0.1 1.1 -0.1 1.05 -0.1 1.05 -0.15 0.95 -0.15 1.0 -0.2 1.0 -0.3 1.0 -0.35 Q1.05 -0.3 1.1 -0.3 L1.15 -0.35 1.05 -0.4 1.1 -0.45 1.0 -0.5 1.0 -0.55 1.05 -0.55 1.05 -0.55 1.2 -0.55 1.1 -0.5 1.2 -0.5 1.2 -0.45 1.25 -0.45 1.25 -0.5 1.2 -0.5 1.35 -0.55 Q1.4 -0.55 1.45 -0.6 L1.55 -0.65 1.6 -0.6 1.6 -0.5 Q1.65 -0.4 1.7 -0.45 M1.9 -0.2 L1.95 -0.15 1.9 -0.1 1.85 -0.05 Q1.85 -0.05 1.9 -0.05 L1.95 -0.05 2.0 0.05 1.95 0.15 1.95 0.1 Q1.9 0.05 1.85 0.1 L1.85 -0.05 1.75 0.0 1.7 0.0 1.6 0.0 1.75 -0.1 1.8 -0.2 1.75 -0.25 Q1.75 -0.2 1.85 -0.2 L1.9 -0.2 M-1.75 -0.75 L-1.75 -0.85 Q-1.7 -0.85 -1.7 -0.9 L-1.7 -1.15 -1.55 -1.15 -1.55 -1.0 -1.5 -0.85 Q-1.6 -0.8 -1.55 -0.75 L-1.4 -0.7 -1.4 -0.7 -1.35 -0.75 Q-1.35 -0.65 -1.25 -0.65 -1.25 -0.6 -1.2 -0.6 L-1.2 -0.6 -1.15 -0.6 -1.1 -0.55 -1.1 -0.5 -1.0 -0.55 -0.95 -0.55 -1.0 -0.6 -1.0 -0.6 -0.95 -0.65 -0.95 -0.7 -1.0 -0.7 -1.0 -0.65 -1.1 -0.7 -1.15 -0.75 -1.1 -0.8 -1.05 -0.75 -1.05 -0.75 -0.95 -0.8 -0.9 -0.8 -0.9 -0.75 -0.9 -0.7 -0.85 -0.65 -0.8 -0.6 -0.75 -0.6 -0.75 -0.55 -0.8 -0.5 -0.85 -0.45 -0.9 -0.5 Q-0.9 -0.45 -1.0 -0.45 L-1.1 -0.35 -0.95 -0.35 Q-0.85 -0.35 -0.85 -0.4 L-0.8 -0.4 -0.75 -0.35 -0.7 -0.3 -0.5 -0.45 -0.5 -0.45 -0.5 -0.6 -0.35 -0.65 -0.25 -0.7 -0.2 -0.6 -0.2 -0.55 -0.25 -0.6 -0.45 -0.55 -0.4 -0.5 -0.4 -0.45 -0.4 -0.5 -0.45 -0.5 -0.45 -0.5 -0.4 -0.45 -0.35 -0.4 -0.35 -0.35 -0.35 -0.35 -0.45 -0.35 -0.55 -0.3 -0.55 -0.4 -0.6 -0.35 -0.7 -0.3 -0.8 -0.25 -0.8 -0.3 -0.85 -0.3 -0.9 -0.3 -1.2 -0.3 Q-1.3 -0.3 -1.25 -0.35 -1.2 -0.35 -1.1 -0.4 -1.05 -0.4 -1.2 -0.4 L-1.3 -0.45 -1.35 -0.45 -1.3 -0.4 Q-1.35 -0.35 -1.4 -0.35 L-1.5 -0.3 -1.6 -0.35 -1.65 -0.35 -1.75 -0.3 -1.8 -0.25 -1.8 -0.3 Q-1.75 -0.3 -1.75 -0.35 L-1.8 -0.35 -1.8 -0.4 -1.8 -0.7 -1.7 -0.65 -1.65 -0.6 -1.7 -0.7 -1.75 -0.75 M0.0 -1.2 L0.0 -1.2 M-0.15 -0.6 L-0.15 -0.6 M0.1 -0.15 L0.1 -0.15 M0.35 -0.3 L0.35 -0.3 M0.15 -0.55 L0.15 -0.55 M1.15 -0.95 L1.15 -0.95 M1.15 -0.7 L1.2 -0.7 1.25 -0.75 1.15 -0.7 M0.6 -0.95 Q0.6 -1.05 0.55 -1.0 L0.45 -0.95 Q0.45 -0.9 0.45 -0.85 L0.5 -0.85 0.5 -0.9 0.6 -0.95 M0.7 -0.15 L0.65 -0.2 0.6 -0.2 0.6 -0.2 0.7 -0.3 0.7 -0.25 0.65 -0.2 0.75 -0.25 0.8 -0.3 0.75 -0.3 0.8 -0.35 0.8 -0.4 0.85 -0.35 0.8 -0.25 0.7 -0.15 M0.7 -0.3 L0.7 -0.3 M1.05 -0.75 L1.05 -0.65 1.0 -0.65 1.05 -0.75 M1.25 -0.2 L1.3 -0.3 1.25 -0.35 1.25 -0.3 1.15 -0.2 1.25 -0.2 M1.15 -0.2 L1.1 -0.25 1.1 -0.2 1.15 -0.2 M1.15 -0.35 L1.2 -0.35 Q1.25 -0.4 1.2 -0.4 L1.15 -0.35 1.15 -0.35 M1.3 -0.15 L1.35 -0.05 1.45 -0.05 1.4 -0.1 1.3 -0.15 M1.3 0.0 Q1.25 0.05 1.3 0.1 1.3 0.15 1.35 0.15 L1.35 0.1 1.4 0.1 Q1.4 0.15 1.4 0.1 L1.45 0.05 1.3 0.0 M-1.05 -1.0 L-1.1 -0.9 -1.1 -0.9 -1.05 -1.0 -1.0 -1.05 Q-0.95 -1.05 -0.9 -1.0 L-0.9 -1.0 -1.0 -0.95 -1.05 -1.0 M-0.85 -1.0 L-0.9 -1.0 -0.85 -1.0 M-0.75 -1.05 L-0.7 -1.05 -0.55 -1.05 -0.4 -1.15 -0.2 -1.15 -0.35 -1.05 -0.45 -0.95 -0.55 -0.95 -0.65 -0.95 -0.7 -0.95 -0.7 -1.0 -0.75 -1.05 M-1.4 -0.7 Q-1.55 -0.7 -1.55 -0.65 L-1.5 -0.65 -1.4 -0.7 M-1.2 -0.3 L-1.2 -0.3 M-0.45 -0.35 L-0.45 -0.45 -0.5 -0.45 -0.5 -0.4 -0.45 -0.35 M-0.25 -0.7 L-0.25 -0.7 M-0.9 -0.5 L-0.85 -0.5 -0.85 -0.55 -0.9 -0.5 M-1.75 -0.55 L-1.7 -0.4 Q-1.65 -0.35 -1.6 -0.45 -1.65 -0.45 -1.7 -0.5 L-1.75 -0.55 M-1.15 -0.5 L-1.25 -0.5 -1.15 -0.45 -1.1 -0.45 -1.15 -0.5 M-1.2 -0.6 L-1.25 -0.55 -1.2 -0.5 Q-1.2 -0.5 -1.2 -0.55 -1.15 -0.55 -1.2 -0.6 M-0.65 -0.8 L-0.65 -0.8 Q-0.6 -0.65 -0.55 -0.8 L-0.5 -0.75 -0.45 -0.7 -0.55 -0.6 -0.65 -0.65 -0.65 -0.65 -0.65 -0.65 -0.7 -0.7 -0.7 -0.8 -0.7 -0.8 -0.65 -0.8" fill="#3e130c" fill-rule="evenodd" stroke="none"/>
    <path d="M1.5 -1.5 L1.4 -1.5 1.3 -1.5 1.5 -1.5" fill="#b79491" fill-rule="evenodd" stroke="none"/>
    <path d="M1.3 -1.55 L1.5 -1.55 1.4 -1.55 1.3 -1.55 1.25 -1.55 1.3 -1.55" fill="#9d7a50" fill-rule="evenodd" stroke="none"/>
    <path d="M0.95 -1.35 L0.9 -1.35 0.9 -1.4 0.95 -1.4 0.95 -1.35" fill="#7d506c" fill-rule="evenodd" stroke="none"/>
    <path d="M1.15 -1.45 L1.3 -1.45 1.5 -1.35 1.55 -1.3 1.5 -1.3 1.45 -1.25 1.35 -1.35 1.2 -1.35 1.15 -1.35 Q1.1 -1.4 1.15 -1.45" fill="#6f4323" fill-rule="evenodd" stroke="none"/>
    <path d="M1.25 -1.3 L1.3 -1.3 1.35 -1.3 1.3 -1.3 1.25 -1.3" fill="#b79690" fill-rule="evenodd" stroke="none"/>
    <path d="M1.25 -1.0 L1.2 -1.05 1.2 -1.1 1.25 -1.1 1.3 -1.0 1.4 -1.0 Q1.4 -1.0 1.4 -0.95 1.35 -0.95 1.3 -0.95 L1.25 -1.0" fill="#91644c" fill-rule="evenodd" stroke="none"/>
    <path d="M1.3 -1.25 L1.45 -1.15 Q1.4 -1.1 1.35 -1.15 L1.3 -1.25" fill="#b48fa1" fill-rule="evenodd" stroke="none"/>
    <path d="M1.1 -1.3 L1.15 -1.3 1.15 -1.25 1.1 -1.3" fill="#8c6a6d" fill-rule="evenodd" stroke="none"/>
    <path d="M1.35 -1.3 L1.45 -1.2 1.5 -1.1 1.45 -1.15 1.3 -1.25 1.3 -1.3 1.35 -1.3" fill="#66351c" fill-rule="evenodd" stroke="none"/>
    <path d="M0.1 -1.05 L0.05 -1.15 0.0 -1.2 Q0.05 -1.25 0.15 -1.25 0.25 -1.25 0.2 -1.15 L0.1 -1.1 0.1 -1.05 M0.0 -1.2 L0.0 -1.2" fill="#603324" fill-rule="evenodd" stroke="none"/>
    <path d="M0.45 -1.15 Q0.45 -1.1 0.4 -1.1 L0.3 -1.15 0.2 -1.15 0.3 -1.2 0.45 -1.15 M0.1 -1.05 L0.1 -1.1 0.2 -1.15 0.2 -1.1 0.1 -1.05" fill="#997a74" fill-rule="evenodd" stroke="none"/>
    <path d="M0.55 -1.05 Q0.5 -1.0 0.5 -1.05 L0.5 -1.15 0.55 -1.05" fill="#a07b90" fill-rule="evenodd" stroke="none"/>
    <path d="M0.8 -1.1 L0.8 -1.0 0.75 -1.0 0.7 -1.0 0.7 -1.1 0.8 -1.1" fill="#7b5035" fill-rule="evenodd" stroke="none"/>
    <path d="M0.6 -0.95 L0.5 -0.9 0.5 -0.85 0.45 -0.85 Q0.45 -0.9 0.45 -0.95 L0.55 -1.0 Q0.6 -1.05 0.6 -0.95" fill="#724141" fill-rule="evenodd" stroke="none"/>
    <path d="M0.2 -1.15 L0.25 -1.15 0.3 -1.1 0.3 -1.05 0.4 -1.0 0.35 -1.0 0.45 -1.0 Q0.45 -0.95 0.35 -0.95 L0.3 -1.0 0.25 -1.0 0.3 -0.95 0.3 -0.95 0.35 -0.9 0.3 -0.9 0.25 -0.9 0.25 -0.8 0.2 -0.75 0.1 -0.85 0.05 -0.95 0.1 -1.0 0.1 -1.05 0.2 -1.1 0.2 -1.15" fill="#af8e99" fill-rule="evenodd" stroke="none"/>
    <path d="M0.15 -0.55 L0.15 -0.55 0.05 -0.55 0.05 -0.6 0.0 -0.55 0.0 -0.6 0.1 -0.65 0.15 -0.65 0.2 -0.65 0.15 -0.65 0.15 -0.55" fill="#6e4024" fill-rule="evenodd" stroke="none"/>
    <path d="M0.1 -0.65 L0.15 -0.7 0.2 -0.7 0.2 -0.65 0.15 -0.65 0.1 -0.65" fill="#b992a2" fill-rule="evenodd" stroke="none"/>
    <path d="M0.1 -0.15 L0.1 -0.15 0.1 -0.2 0.1 -0.2 0.15 -0.2 0.25 -0.15 Q0.2 -0.2 0.25 -0.2 L0.35 -0.2 0.3 -0.25 0.35 -0.3 0.35 -0.3 0.35 -0.25 Q0.35 -0.25 0.4 -0.25 L0.5 -0.2 0.55 -0.25 0.55 -0.2 0.6 -0.2 0.6 -0.2 0.65 -0.2 0.7 -0.15 0.8 -0.1 Q0.75 -0.05 0.7 -0.05 0.65 -0.05 0.6 -0.1 0.55 -0.05 0.55 0.0 L0.6 0.0 0.7 0.0 0.8 0.0 0.8 0.0 0.85 0.0 0.9 0.0 0.9 0.0 0.9 0.1 0.9 0.15 0.75 0.25 Q0.65 0.25 0.6 0.2 L0.55 0.15 0.5 0.1 0.4 0.15 0.15 0.0 Q0.35 -0.05 0.1 -0.15 M0.0 -0.2 L0.0 -0.25 0.05 -0.25 0.05 -0.2 0.0 -0.2 M0.15 -0.45 L0.2 -0.45 0.15 -0.35 0.15 -0.35 0.15 -0.4 0.1 -0.4 0.15 -0.4 0.15 -0.45 M0.35 -0.55 Q0.35 -0.5 0.35 -0.5 L0.3 -0.5 0.35 -0.55 0.4 -0.55 0.35 -0.55 M0.55 -0.65 L0.6 -0.65 0.6 -0.6 0.55 -0.6 0.55 -0.65 M0.9 0.0 L0.9 0.0 0.9 0.0 M0.85 0.0 L0.85 0.0 M0.8 -0.1 L0.8 -0.1 M0.25 -0.15 L0.25 -0.1 0.3 -0.15 0.3 -0.15 0.25 -0.15 M0.45 -0.05 L0.4 -0.1 Q0.35 -0.05 0.4 0.0 0.45 0.05 0.5 0.05 L0.45 -0.05 M0.4 -0.2 Q0.4 -0.15 0.45 -0.15 L0.5 -0.15 0.4 -0.2 M0.8 0.15 L0.8 0.1 0.75 0.1 0.7 0.15 Q0.65 0.2 0.7 0.2 0.75 0.2 0.8 0.15 M0.65 0.05 L0.55 0.05 Q0.55 0.1 0.65 0.1 L0.75 0.05 0.65 0.05" fill="#4c1d0f" fill-rule="evenodd" stroke="none"/>
    <path d="M0.6 -0.45 L0.5 -0.4 0.45 -0.4 0.45 -0.5 0.35 -0.55 0.4 -0.55 0.35 -0.55 0.3 -0.5 0.25 -0.55 0.15 -0.55 0.15 -0.65 0.2 -0.65 0.2 -0.7 Q0.2 -0.75 0.25 -0.75 L0.4 -0.75 0.45 -0.75 0.45 -0.75 0.5 -0.75 0.55 -0.7 0.55 -0.65 0.55 -0.65 0.55 -0.6 0.6 -0.6 0.65 -0.55 0.65 -0.55 0.6 -0.45 0.6 -0.45" fill="#885c54" fill-rule="evenodd" stroke="none"/>
    <path d="M0.15 -0.55 L0.1 -0.55 0.05 -0.55 0.05 -0.55 0.15 -0.55" fill="#b78e96" fill-rule="evenodd" stroke="none"/>
    <path d="M0.1 -0.4 L0.15 -0.45 0.15 -0.4 0.1 -0.4 0.1 -0.4" fill="#a87c76" fill-rule="evenodd" stroke="none"/>
    <path d="M0.35 -0.3 L0.4 -0.3 Q0.45 -0.2 0.5 -0.2 L0.5 -0.2 0.4 -0.25 Q0.35 -0.25 0.35 -0.25 L0.35 -0.3" fill="#966968" fill-rule="evenodd" stroke="none"/>
    <path d="M0.05 -0.25 L0.05 -0.35 0.1 -0.4 0.1 -0.4 0.15 -0.4 0.15 -0.35 0.15 -0.35 0.2 -0.45 0.2 -0.45 0.35 -0.35 0.35 -0.3 0.3 -0.25 0.35 -0.2 0.25 -0.2 Q0.2 -0.2 0.25 -0.15 L0.15 -0.2 0.1 -0.2 0.1 -0.2 0.05 -0.2 0.05 -0.25" fill="#9f7768" fill-rule="evenodd" stroke="none"/>
    <path d="M0.7 -0.3 L0.65 -0.4 0.6 -0.45 0.6 -0.45 0.65 -0.55 0.65 -0.55 Q0.7 -0.6 0.75 -0.6 L0.85 -0.45 0.85 -0.45 0.8 -0.4 0.8 -0.35 0.75 -0.3 0.75 -0.3 0.7 -0.3 0.7 -0.3" fill="#a5797b" fill-rule="evenodd" stroke="none"/>
    <path d="M0.55 -0.25 L0.6 -0.3 0.7 -0.3 0.6 -0.2 0.55 -0.2 0.55 -0.25" fill="#a78397" fill-rule="evenodd" stroke="none"/>
    <path d="M1.45 -1.05 L1.5 -0.85 1.4 -0.8 1.35 -0.9 1.4 -0.9 Q1.45 -0.9 1.45 -0.95 L1.45 -1.05" fill="#9a7559" fill-rule="evenodd" stroke="none"/>
    <path d="M1.35 -0.9 L1.25 -0.95 Q1.2 -0.95 1.25 -1.0 L1.3 -0.95 Q1.35 -0.95 1.4 -0.95 L1.45 -0.95 Q1.45 -0.9 1.4 -0.9 L1.35 -0.9" fill="#c9a9a9" fill-rule="evenodd" stroke="none"/>
    <path d="M1.05 -1.0 L1.1 -1.0 1.15 -1.0 1.15 -0.95 1.05 -1.0 M1.15 -0.95 L1.15 -0.95" fill="#a67d76" fill-rule="evenodd" stroke="none"/>
    <path d="M1.15 -0.7 L1.25 -0.75 1.2 -0.7 1.15 -0.7" fill="#9a7696" fill-rule="evenodd" stroke="none"/>
    <path d="M1.55 -0.8 L1.6 -0.6 1.55 -0.65 1.55 -0.7 1.5 -0.65 1.35 -0.55 1.3 -0.55 1.3 -0.6 1.35 -0.65 1.25 -0.6 1.3 -0.7 1.25 -0.8 1.3 -0.8 Q1.3 -0.75 1.35 -0.75 L1.35 -0.8 1.4 -0.75 Q1.4 -0.75 1.35 -0.7 L1.4 -0.7 1.4 -0.7 1.45 -0.75 1.45 -0.8 1.4 -0.8 1.5 -0.85 1.5 -0.75 1.55 -0.8" fill="#64341f" fill-rule="evenodd" stroke="none"/>
    <path d="M1.4 -0.75 L1.45 -0.75 1.4 -0.7 1.4 -0.7 1.35 -0.7 Q1.4 -0.75 1.4 -0.75" fill="#a9868b" fill-rule="evenodd" stroke="none"/>
    <path d="M1.3 -0.8 L1.35 -0.8 1.35 -0.75 Q1.3 -0.75 1.3 -0.8" fill="#af84a0" fill-rule="evenodd" stroke="none"/>
    <path d="M1.15 -0.95 L1.15 -0.95 1.15 -0.95 1.15 -0.95" fill="#784d25" fill-rule="evenodd" stroke="none"/>
    <path d="M0.8 -0.55 L0.7 -0.7 0.65 -0.8 0.65 -0.85 0.7 -0.9 0.75 -0.8 Q0.75 -0.7 0.85 -0.65 L0.8 -0.6 0.8 -0.55 M0.95 -0.65 L0.95 -0.7 0.8 -0.8 0.8 -0.8 0.85 -0.75 0.95 -0.75 0.95 -0.75 0.85 -0.9 0.9 -0.95 0.95 -1.0 1.05 -1.0 1.05 -1.0 1.15 -0.95 1.15 -0.95 1.15 -0.9 1.05 -0.8 1.05 -0.75 1.0 -0.65 0.95 -0.65" fill="#7b4d37" fill-rule="evenodd" stroke="none"/>
    <path d="M1.05 -0.8 L1.15 -0.7 1.05 -0.7 1.05 -0.65 1.05 -0.75 1.05 -0.8" fill="#815657" fill-rule="evenodd" stroke="none"/>
    <path d="M1.05 -0.7 Q1.2 -0.6 1.2 -0.55 L1.05 -0.55 1.05 -0.55 1.1 -0.6 1.05 -0.65 1.05 -0.7" fill="#a68477" fill-rule="evenodd" stroke="none"/>
    <path d="M0.9 0.15 L0.9 0.1 0.95 0.1 0.95 0.15 1.0 0.15 1.05 0.15 1.0 0.2 1.0 0.25 Q0.95 0.3 1.0 0.25 L1.05 0.25 1.05 0.3 1.1 0.3 1.05 0.3 0.95 0.3 0.9 0.25 0.9 0.15 M0.9 0.0 L0.9 0.0 0.9 0.0 0.9 0.0 M0.85 0.0 L0.85 0.0 0.8 -0.05 0.9 -0.15 Q0.95 -0.2 0.9 -0.25 L0.85 -0.15 0.8 -0.1 0.8 -0.1 0.8 -0.25 0.85 -0.35 0.85 -0.4 0.9 -0.35 0.95 -0.3 0.95 -0.35 Q0.95 -0.3 1.0 -0.3 L1.0 -0.3 1.0 -0.2 0.95 -0.15 1.05 -0.15 1.05 -0.1 1.0 -0.05 1.0 0.0 1.0 -0.05 1.0 -0.1 0.9 -0.1 Q0.85 -0.05 0.85 0.0 M1.1 0.05 L1.15 0.1 1.05 0.15 1.1 0.05 M1.05 0.0 L1.05 -0.05 1.05 0.0" fill="#63331b" fill-rule="evenodd" stroke="none"/>
    <path d="M0.85 -0.4 Q0.85 -0.45 0.9 -0.45 L0.9 -0.35 0.85 -0.4" fill="#a47c93" fill-rule="evenodd" stroke="none"/>
    <path d="M0.85 -0.45 L0.85 -0.45 0.9 -0.45 Q0.85 -0.45 0.85 -0.4 L0.85 -0.35 0.8 -0.4 0.85 -0.45 M0.9 -0.35 L0.9 -0.45 Q0.95 -0.4 1.0 -0.4 L1.05 -0.4 1.15 -0.35 1.1 -0.3 Q1.05 -0.3 1.0 -0.35 L1.0 -0.3 1.0 -0.3 Q0.95 -0.3 0.95 -0.35 L0.95 -0.3 0.9 -0.35" fill="#916c77" fill-rule="evenodd" stroke="none"/>
    <path d="M1.15 -0.2 L1.1 -0.2 1.1 -0.25 1.15 -0.2 1.15 -0.2" fill="#b286b5" fill-rule="evenodd" stroke="none"/>
    <path d="M0.9 -0.45 L0.85 -0.5 0.8 -0.55 0.8 -0.6 0.85 -0.65 0.9 -0.65 0.9 -0.65 0.95 -0.65 0.95 -0.65 1.0 -0.65 1.05 -0.65 1.1 -0.6 1.05 -0.55 1.0 -0.55 1.0 -0.5 1.1 -0.45 1.05 -0.4 1.0 -0.4 Q0.95 -0.4 0.9 -0.45" fill="#b591a8" fill-rule="evenodd" stroke="none"/>
    <path d="M1.2 -0.55 L1.2 -0.55 1.25 -0.6 1.35 -0.65 1.3 -0.6 1.3 -0.55 1.2 -0.5 1.1 -0.5 1.2 -0.55" fill="#ae8386" fill-rule="evenodd" stroke="none"/>
    <path d="M1.35 -0.55 L1.5 -0.65 1.55 -0.7 1.55 -0.65 1.45 -0.6 Q1.4 -0.55 1.35 -0.55" fill="#c09cbc" fill-rule="evenodd" stroke="none"/>
    <path d="M1.25 -0.3 L1.25 -0.35 1.3 -0.3 1.25 -0.2 1.25 -0.3" fill="#af84ae" fill-rule="evenodd" stroke="none"/>
    <path d="M1.15 -0.35 L1.15 -0.35 1.2 -0.4 Q1.25 -0.4 1.2 -0.35 L1.15 -0.35" fill="#6e5160" fill-rule="evenodd" stroke="none"/>
    <path d="M1.25 -0.2 L1.15 -0.2 1.25 -0.3 1.25 -0.2 M1.15 -0.2 L1.15 -0.2" fill="#6f4842" fill-rule="evenodd" stroke="none"/>
    <path d="M1.6 -0.25 L1.55 -0.25 1.5 -0.2 1.35 -0.2 Q1.35 -0.25 1.45 -0.25 1.5 -0.25 1.5 -0.3 1.45 -0.35 1.5 -0.4 1.55 -0.45 1.5 -0.5 1.45 -0.5 1.5 -0.55 L1.55 -0.6 Q1.6 -0.6 1.55 -0.5 L1.55 -0.5 1.55 -0.45 Q1.55 -0.4 1.6 -0.4 1.65 -0.35 1.6 -0.3 L1.6 -0.25" fill="#80492d" fill-rule="evenodd" stroke="none"/>
    <path d="M0.75 -0.3 L0.8 -0.3 0.75 -0.25 0.65 -0.2 0.7 -0.25 0.7 -0.3 0.75 -0.3 0.75 -0.3" fill="#a47995" fill-rule="evenodd" stroke="none"/>
    <path d="M1.5 -1.55 L1.6 -1.6 Q1.6 -1.55 1.55 -1.55 L1.5 -1.55" fill="#94723a" fill-rule="evenodd" stroke="none"/>
    <path d="M1.55 -1.3 L1.6 -1.3 1.45 -1.25 1.5 -1.3 1.55 -1.3" fill="#bd9996" fill-rule="evenodd" stroke="none"/>
    <path d="M1.5 -0.85 L1.55 -0.8 1.55 -0.8 1.5 -0.75 1.5 -0.85" fill="#c19f90" fill-rule="evenodd" stroke="none"/>
    <path d="M1.6 -0.6 Q1.7 -0.55 1.7 -0.45 1.65 -0.4 1.6 -0.5 L1.6 -0.6" fill="#7c4b1f" fill-rule="evenodd" stroke="none"/>
    <path d="M1.75 -0.25 L1.85 -0.25 1.9 -0.2 1.85 -0.2 Q1.75 -0.2 1.75 -0.25" fill="#aa8d6f" fill-rule="evenodd" stroke="none"/>
    <path d="M1.95 -0.15 L1.95 -0.1 1.95 -0.05 1.9 -0.05 Q1.85 -0.05 1.85 -0.05 L1.9 -0.1 1.95 -0.15" fill="#7a5b33" fill-rule="evenodd" stroke="none"/>
    <path d="M1.85 0.1 Q1.9 0.05 1.95 0.1 L1.95 0.15 1.9 0.15 1.85 0.15 1.85 0.1" fill="#967072" fill-rule="evenodd" stroke="none"/>
    <path d="M1.95 0.15 L2.0 0.15 1.95 0.2 1.95 0.15" fill="#9b785f" fill-rule="evenodd" stroke="none"/>
    <path d="M1.6 -0.3 L1.65 -0.3 1.65 -0.25 1.7 -0.25 1.75 -0.25 1.75 -0.25 1.8 -0.2 1.75 -0.1 1.6 0.0 1.5 -0.05 1.5 -0.1 1.45 -0.15 1.5 -0.15 1.55 -0.15 1.55 -0.15 1.6 -0.15 1.6 -0.25 1.6 -0.3" fill="#8a5a4c" fill-rule="evenodd" stroke="none"/>
    <path d="M1.55 0.1 Q1.65 0.1 1.6 0.15 L1.55 0.15 1.5 0.2 1.55 0.1" fill="#996666" fill-rule="evenodd" stroke="none"/>
    <path d="M1.6 0.0 L1.7 0.0 1.75 0.0 1.85 -0.05 1.85 0.1 1.85 0.15 1.8 0.2 1.75 0.25 1.75 0.15 1.7 0.15 1.6 0.15 1.55 0.15 1.6 0.15 Q1.65 0.1 1.55 0.1 L1.5 0.05 Q1.55 0.05 1.6 0.0 M1.55 0.1 L1.55 0.05 1.5 0.05 1.55 0.1" fill="#9e7896" fill-rule="evenodd" stroke="none"/>
    <path d="M1.75 0.35 L1.7 0.35 Q1.65 0.35 1.65 0.3 L1.7 0.3 Q1.7 0.25 1.75 0.25 1.7 0.25 1.75 0.35" fill="#895566" fill-rule="evenodd" stroke="none"/>
    <path d="M2.0 0.3 L1.95 0.3 2.0 0.3 M1.55 0.4 L1.55 0.45 1.55 0.4" fill="#855838" fill-rule="evenodd" stroke="none"/>
    <path d="M1.4 0.5 L1.3 0.5 1.4 0.4 1.4 0.5" fill="#7e542a" fill-rule="evenodd" stroke="none"/>
    <path d="M1.3 -0.15 L1.4 -0.1 1.45 -0.05 1.35 -0.05 1.3 -0.15" fill="#95666a" fill-rule="evenodd" stroke="none"/>
    <path d="M1.1 -0.1 L1.2 -0.1 1.3 -0.1 1.25 0.05 1.15 0.05 1.1 0.0 1.05 -0.05 1.1 -0.05 1.1 -0.1" fill="#622d20" fill-rule="evenodd" stroke="none"/>
    <path d="M1.3 0.0 L1.45 0.05 1.4 0.1 Q1.4 0.15 1.4 0.1 L1.35 0.1 1.35 0.15 Q1.3 0.15 1.3 0.1 1.25 0.05 1.3 0.0" fill="#835248" fill-rule="evenodd" stroke="none"/>
    <path d="M0.9 0.0 L0.9 0.0 0.95 -0.05 1.0 -0.05 1.0 0.0 Q1.0 0.0 1.05 0.0 L1.05 -0.05 1.1 0.0 1.15 0.05 1.1 0.05 1.05 0.15 1.0 0.1 1.0 0.15 0.95 0.15 0.95 0.1 0.95 0.05 Q1.0 0.0 0.9 0.0 L0.9 0.0" fill="#b987a1" fill-rule="evenodd" stroke="none"/>
    <path d="M1.0 0.0 L1.0 -0.05 1.05 -0.1 1.1 -0.1 1.1 -0.05 1.05 -0.05 1.05 0.0 Q1.0 0.0 1.0 0.0" fill="#996570" fill-rule="evenodd" stroke="none"/>
    <path d="M0.9 0.0 L0.9 0.0 0.85 0.0 Q0.85 -0.05 0.9 -0.1 L1.0 -0.1 1.0 -0.05 0.95 -0.05 0.9 0.0 0.9 0.0" fill="#c6a7ae" fill-rule="evenodd" stroke="none"/>
    <path d="M0.8 -0.1 L0.7 -0.15 0.8 -0.25 0.8 -0.1" fill="#c2a3b4" fill-rule="evenodd" stroke="none"/>
    <path d="M0.8 0.0 L0.7 0.0 0.6 0.0 0.55 0.0 Q0.55 -0.05 0.6 -0.1 0.65 -0.05 0.7 -0.05 0.75 -0.05 0.8 -0.1 L0.85 -0.15 0.9 -0.25 Q0.95 -0.2 0.9 -0.15 L0.8 -0.05 0.8 0.0" fill="#b996a1" fill-rule="evenodd" stroke="none"/>
    <path d="M0.85 0.0 L0.8 0.0 0.8 0.0 0.8 -0.05 0.85 0.0" fill="#a47b97" fill-rule="evenodd" stroke="none"/>
    <path d="M0.9 0.1 L0.9 0.0 Q1.0 0.0 0.95 0.05 L0.95 0.1 0.9 0.1" fill="#aa7c96" fill-rule="evenodd" stroke="none"/>
    <path d="M0.8 0.15 Q0.75 0.2 0.7 0.2 0.65 0.2 0.7 0.15 L0.75 0.1 0.8 0.1 0.8 0.15" fill="#aa8789" fill-rule="evenodd" stroke="none"/>
    <path d="M1.0 0.45 L0.85 0.35 0.6 0.25 0.6 0.2 Q0.65 0.25 0.75 0.25 L0.9 0.15 0.9 0.25 Q0.75 0.25 0.85 0.3 0.9 0.4 1.0 0.4 1.0 0.4 1.0 0.45" fill="#906847" fill-rule="evenodd" stroke="none"/>
    <path d="M1.05 0.15 L1.0 0.15 1.0 0.1 1.05 0.15" fill="#ad7785" fill-rule="evenodd" stroke="none"/>
    <path d="M1.1 0.5 L1.0 0.45 Q1.0 0.4 1.0 0.4 L1.05 0.35 1.1 0.4 1.1 0.45 1.1 0.5" fill="#cab1aa" fill-rule="evenodd" stroke="none"/>
    <path d="M1.05 0.35 L1.15 0.3 1.15 0.2 Q1.2 0.2 1.25 0.25 L1.35 0.35 1.1 0.4 1.05 0.35" fill="#754632" fill-rule="evenodd" stroke="none"/>
    <path d="M1.65 1.5 L1.65 1.6 1.55 1.75 1.45 1.95 1.4 2.05 1.35 2.0 Q1.45 1.65 1.45 1.4 1.6 1.45 1.6 1.5 L1.65 1.5 M1.4 0.9 L1.35 0.8 1.4 0.55 1.55 0.55 1.45 0.65 1.4 0.8 1.45 0.95 1.4 0.9 M0.4 0.2 L0.35 0.2 0.35 0.15 0.3 0.15 0.2 0.1 Q0.15 0.05 0.05 0.05 0.0 0.05 -0.05 0.1 L-0.1 0.05 -0.05 0.05 Q0.0 0.0 -0.05 0.0 L-0.1 -0.05 -0.15 -0.05 -0.2 -0.05 -0.2 -0.1 -0.25 -0.1 -0.55 -0.05 -0.8 -0.05 -0.9 0.0 -1.0 0.1 -1.0 0.1 -1.05 0.05 -1.1 -0.05 Q-1.15 -0.1 -1.25 -0.1 L-1.05 -0.1 -1.0 -0.05 Q-0.95 -0.05 -0.9 -0.15 L-1.05 -0.15 -1.2 -0.2 -1.05 -0.25 -0.9 -0.2 Q-0.8 -0.2 -0.8 -0.15 -0.75 -0.2 -0.75 -0.2 -0.7 -0.2 -0.75 -0.25 L-0.65 -0.25 -0.7 -0.3 -0.6 -0.35 -0.55 -0.4 -0.55 -0.3 -0.45 -0.35 -0.35 -0.35 -0.35 -0.35 -0.3 -0.4 -0.3 -0.35 -0.35 -0.3 -0.4 -0.2 0.2 0.05 0.4 0.2 M-0.6 0.45 L-0.6 1.0 -0.95 0.95 -0.9 0.8 -0.9 0.65 -0.9 0.65 -0.85 0.75 -0.75 0.55 -0.7 0.45 -0.6 0.45 M-0.55 1.4 Q-0.5 1.65 -0.35 1.85 L-0.4 1.9 -0.55 1.8 -0.75 1.55 -0.55 1.4 M-0.45 -0.35 L-0.45 -0.35" fill="#5c2912" fill-rule="evenodd" stroke="none"/>
    <path d="M1.3 0.5 L1.25 0.5 1.3 0.45 1.3 0.5 M1.2 0.5 L1.1 0.5 1.1 0.45 1.2 0.5" fill="#aa856c" fill-rule="evenodd" stroke="none"/>
    <path d="M0.4 -0.2 L0.5 -0.15 0.45 -0.15 Q0.4 -0.15 0.4 -0.2" fill="#986f79" fill-rule="evenodd" stroke="none"/>
    <path d="M0.4 0.15 L0.5 0.1 0.55 0.15 Q0.55 0.2 0.5 0.2 L0.4 0.15" fill="#7f5628" fill-rule="evenodd" stroke="none"/>
    <path d="M0.6 0.25 L0.4 0.2 0.2 0.05 -0.4 -0.2 -0.25 -0.2 -0.05 -0.1 0.15 0.0 0.4 0.15 0.5 0.2 Q0.55 0.2 0.55 0.15 L0.6 0.2 0.6 0.25" fill="#b59090" fill-rule="evenodd" stroke="none"/>
    <path d="M0.65 0.05 L0.75 0.05 0.65 0.1 Q0.55 0.1 0.55 0.05 L0.65 0.05" fill="#b68db2" fill-rule="evenodd" stroke="none"/>
    <path d="M0.45 -0.05 L0.5 0.05 Q0.45 0.05 0.4 0.0 0.35 -0.05 0.4 -0.1 L0.45 -0.05" fill="#a38079" fill-rule="evenodd" stroke="none"/>
    <path d="M0.15 0.0 L0.1 -0.1 0.1 -0.15 Q0.35 -0.05 0.15 0.0" fill="#8f6a54" fill-rule="evenodd" stroke="none"/>
    <path d="M-0.45 -2.0 L-0.35 -2.0 -0.25 -2.0 -0.25 -2.05 -0.2 -2.1 -0.15 -2.15 -0.15 -2.1 -0.05 -2.05 Q-0.15 -2.05 -0.2 -2.0 L-0.2 -1.85 -0.35 -1.8 -0.5 -1.85 -0.5 -1.95 -0.45 -2.0" fill="#300b0c" fill-rule="evenodd" stroke="none"/>
    <path d="M-1.85 -1.5 L-1.85 -1.5 -1.85 -1.5" fill="#b7a298" fill-rule="evenodd" stroke="none"/>
    <path d="M-1.4 -0.7 L-1.5 -0.65 -1.55 -0.65 Q-1.55 -0.7 -1.4 -0.7" fill="#7f5c5b" fill-rule="evenodd" stroke="none"/>
    <path d="M-1.35 -0.8 L-1.35 -0.75 -1.4 -0.7 -1.4 -0.75 -1.35 -0.8 -1.35 -0.8" fill="#a78a98" fill-rule="evenodd" stroke="none"/>
    <path d="M-1.4 -0.75 L-1.4 -0.7 -1.55 -0.75 Q-1.6 -0.8 -1.5 -0.85 L-1.45 -0.8 -1.4 -0.75 M-1.4 -0.7 L-1.4 -0.7" fill="#7e4d34" fill-rule="evenodd" stroke="none"/>
    <path d="M-1.35 -0.8 L-1.35 -0.85 -1.45 -0.85 -1.35 -0.9 -1.3 -0.9 -1.25 -0.85 Q-1.25 -0.8 -1.25 -0.75 L-1.3 -0.8 -1.35 -0.8 -1.35 -0.8" fill="#5f4330" fill-rule="evenodd" stroke="none"/>
    <path d="M-1.9 -0.55 L-1.95 -0.6 -1.9 -0.6 -1.9 -0.65 -1.85 -0.65 -1.85 -0.75 -1.75 -0.75 -1.7 -0.7 -1.65 -0.6 -1.7 -0.65 -1.8 -0.7 -1.8 -0.4 -1.85 -0.45 -1.9 -0.55" fill="#9d8061" fill-rule="evenodd" stroke="none"/>
    <path d="M-1.75 -0.55 L-1.7 -0.5 Q-1.65 -0.45 -1.6 -0.45 -1.65 -0.35 -1.7 -0.4 L-1.75 -0.55" fill="#a88b83" fill-rule="evenodd" stroke="none"/>
    <path d="M-1.95 -0.2 Q-1.85 -0.25 -1.9 -0.35 L-1.9 -0.55 -1.85 -0.45 -1.8 -0.4 -1.8 -0.35 -1.75 -0.35 Q-1.75 -0.3 -1.8 -0.3 L-1.8 -0.25 -1.9 -0.2 -1.95 -0.2" fill="#6c431d" fill-rule="evenodd" stroke="none"/>
    <path d="M-1.9 -0.2 L-1.8 -0.25 -1.75 -0.3 Q-1.7 -0.25 -1.8 -0.2 L-1.9 -0.2 -1.9 -0.2" fill="#c4aab3" fill-rule="evenodd" stroke="none"/>
    <path d="M-1.75 -0.3 L-1.65 -0.35 -1.6 -0.35 Q-1.65 -0.3 -1.6 -0.25 -1.55 -0.25 -1.5 -0.3 L-1.4 -0.35 Q-1.35 -0.35 -1.3 -0.4 L-1.25 -0.35 Q-1.3 -0.3 -1.2 -0.3 L-1.55 -0.25 -1.9 -0.2 -1.8 -0.2 Q-1.7 -0.25 -1.75 -0.3" fill="#6a3e1c" fill-rule="evenodd" stroke="none"/>
    <path d="M-1.6 -0.35 L-1.5 -0.3 Q-1.55 -0.25 -1.6 -0.25 -1.65 -0.3 -1.6 -0.35" fill="#b58a95" fill-rule="evenodd" stroke="none"/>
    <path d="M-0.1 -1.15 L-0.15 -1.1 -0.25 -1.05 -0.1 -1.05 0.05 -1.0 Q0.05 -0.95 -0.1 -0.95 -0.2 -1.05 -0.3 -0.85 L-0.2 -0.9 -0.1 -0.9 -0.2 -0.8 -0.25 -0.75 -0.25 -0.7 -0.35 -0.65 Q-0.4 -0.7 -0.35 -0.8 L-0.4 -0.75 Q-0.45 -0.75 -0.4 -0.7 L-0.45 -0.7 -0.5 -0.75 -0.55 -0.8 Q-0.6 -0.65 -0.65 -0.8 L-0.65 -0.8 -0.7 -0.95 -0.65 -0.95 -0.55 -0.95 -0.45 -0.95 -0.35 -1.05 -0.2 -1.15 -0.1 -1.15" fill="#714226" fill-rule="evenodd" stroke="none"/>
    <path d="M0.05 -1.15 Q0.05 -1.1 0.0 -1.15 L0.0 -1.2 0.05 -1.15" fill="#8e6992" fill-rule="evenodd" stroke="none"/>
    <path d="M-0.9 -0.8 L-0.8 -0.8 -0.8 -0.85 -0.8 -0.85 -0.85 -1.0 -0.9 -1.0 -0.75 -1.05 -0.7 -1.0 -0.7 -0.95 -0.65 -0.95 -0.7 -0.95 -0.65 -0.8 -0.7 -0.8 -0.7 -0.8 -0.8 -0.85 Q-0.75 -0.8 -0.75 -0.75 -0.75 -0.65 -0.7 -0.7 L-0.65 -0.65 -0.65 -0.65 -0.75 -0.6 -0.75 -0.6 -0.8 -0.6 -0.85 -0.65 -0.85 -0.7 -0.9 -0.75 -0.9 -0.8" fill="#724a29" fill-rule="evenodd" stroke="none"/>
    <path d="M-1.05 -1.0 L-1.05 -1.0 -1.0 -0.95 -0.9 -1.0 -0.85 -1.0 -0.8 -0.85 -0.8 -0.85 -0.8 -0.8 -0.9 -0.8 -0.95 -0.8 -1.05 -0.75 -1.05 -0.75 -1.05 -0.8 Q-1.0 -0.8 -1.05 -0.85 L-1.1 -0.9 -1.05 -1.0" fill="#9e7a7f" fill-rule="evenodd" stroke="none"/>
    <path d="M-1.0 -0.6 L-1.0 -0.65 -1.0 -0.7 -0.95 -0.7 -0.95 -0.65 -1.0 -0.6" fill="#7a586b" fill-rule="evenodd" stroke="none"/>
    <path d="M-0.85 -0.65 L-0.9 -0.7 -0.9 -0.75 -0.85 -0.7 -0.85 -0.65" fill="#b6979a" fill-rule="evenodd" stroke="none"/>
    <path d="M-0.7 -0.8 L-0.7 -0.7 Q-0.75 -0.65 -0.75 -0.75 -0.75 -0.8 -0.8 -0.85 L-0.7 -0.8" fill="#b8989a" fill-rule="evenodd" stroke="none"/>
    <path d="M-1.25 -0.65 L-1.2 -0.65 -1.2 -0.6 Q-1.25 -0.6 -1.25 -0.65" fill="#926790" fill-rule="evenodd" stroke="none"/>
    <path d="M-1.05 -0.85 Q-1.0 -0.8 -1.05 -0.8 L-1.05 -0.75 -1.1 -0.8 -1.1 -0.8 -1.05 -0.8 -1.05 -0.85" fill="#946773" fill-rule="evenodd" stroke="none"/>
    <path d="M-1.1 -0.55 L-1.0 -0.6 -0.95 -0.55 -1.0 -0.55 -1.1 -0.5 -1.1 -0.55" fill="#896c76" fill-rule="evenodd" stroke="none"/>
    <path d="M-1.15 -0.5 L-1.1 -0.45 -1.15 -0.45 -1.25 -0.5 -1.15 -0.5" fill="#8d627a" fill-rule="evenodd" stroke="none"/>
    <path d="M-1.3 -0.4 L-1.35 -0.45 -1.3 -0.45 -1.2 -0.4 Q-1.05 -0.4 -1.1 -0.4 -1.2 -0.35 -1.25 -0.35 L-1.3 -0.4" fill="#876058" fill-rule="evenodd" stroke="none"/>
    <path d="M-1.45 0.2 L-1.45 0.2 -1.5 0.2 -1.5 0.2 Q-1.55 0.15 -1.6 0.2 L-1.6 0.2 -1.65 0.2 Q-1.65 0.15 -1.65 0.15 L-1.75 0.15 -1.8 0.15 -1.95 0.1 -2.05 0.0 Q-2.05 -0.1 -1.95 -0.2 L-1.9 -0.2 -1.9 -0.2 -1.55 -0.25 -1.2 -0.3 -1.2 -0.3 -1.15 -0.3 -1.25 -0.2 -1.3 -0.2 -1.2 -0.2 -1.05 -0.15 -0.9 -0.15 -1.1 -0.15 -1.3 -0.15 -1.65 -0.15 -1.95 0.0 -1.9 0.05 -1.75 0.1 Q-1.75 0.0 -1.65 0.05 L-1.45 0.15 -1.5 0.05 -1.5 -0.05 Q-1.5 0.05 -1.4 0.05 L-1.35 0.05 -1.4 0.05 Q-1.45 0.1 -1.4 0.15 -1.45 0.15 -1.45 0.2" fill="#9a7c55" fill-rule="evenodd" stroke="none"/>
    <path d="M-0.8 -0.3 L-0.8 -0.25 -0.75 -0.25 -0.75 -0.25 Q-0.7 -0.2 -0.75 -0.2 -0.75 -0.2 -0.8 -0.15 -0.8 -0.2 -0.9 -0.2 L-1.05 -0.25 -1.2 -0.2 -1.3 -0.2 -1.25 -0.2 -1.15 -0.3 -1.0 -0.3 -0.9 -0.3 -0.8 -0.3" fill="#784c18" fill-rule="evenodd" stroke="none"/>
    <path d="M-1.2 -0.3 L-0.9 -0.3 -1.0 -0.3 -1.15 -0.3 -1.2 -0.3" fill="#ccb1bc" fill-rule="evenodd" stroke="none"/>
    <path d="M-0.85 -0.4 Q-0.85 -0.35 -0.95 -0.35 L-1.1 -0.35 -1.0 -0.45 Q-0.9 -0.45 -0.9 -0.5 L-0.85 -0.45 -0.8 -0.5 -0.75 -0.55 Q-0.7 -0.55 -0.7 -0.45 L-0.8 -0.45 -0.8 -0.45 -0.85 -0.4" fill="#7f574b" fill-rule="evenodd" stroke="none"/>
    <path d="M-0.8 -0.4 L-0.85 -0.4 -0.8 -0.45 -0.8 -0.45 -0.7 -0.45 Q-0.65 -0.45 -0.75 -0.4 -0.75 -0.4 -0.8 -0.4" fill="#b08aa1" fill-rule="evenodd" stroke="none"/>
    <path d="M-0.9 -0.3 L-0.85 -0.3 -0.8 -0.3 -0.9 -0.3 -1.0 -0.3 -0.9 -0.3" fill="#9f7f65" fill-rule="evenodd" stroke="none"/>
    <path d="M-0.8 -0.25 L-0.7 -0.3 -0.65 -0.25 -0.75 -0.25 -0.75 -0.25 -0.8 -0.25" fill="#a97d80" fill-rule="evenodd" stroke="none"/>
    <path d="M-0.1 -0.8 L-0.05 -0.85 -0.05 -0.9 0.05 -0.85 0.1 -0.7 0.05 -0.8 0.0 -0.7 0.0 -0.65 -0.05 -0.65 -0.1 -0.7 -0.05 -0.8 Q-0.05 -0.8 -0.1 -0.8" fill="#6f3e25" fill-rule="evenodd" stroke="none"/>
    <path d="M-0.1 -0.95 L-0.1 -0.9 -0.2 -0.9 -0.3 -0.85 Q-0.2 -1.05 -0.1 -0.95" fill="#ad7f70" fill-rule="evenodd" stroke="none"/>
    <path d="M-0.2 -0.8 L-0.15 -0.75 -0.25 -0.7 -0.25 -0.75 -0.2 -0.8 M-0.25 -0.7 L-0.25 -0.7" fill="#9e7667" fill-rule="evenodd" stroke="none"/>
    <path d="M-0.1 -0.65 L-0.15 -0.6 -0.15 -0.55 -0.15 -0.55 -0.2 -0.5 -0.25 -0.55 -0.2 -0.55 -0.2 -0.6 -0.25 -0.7 -0.15 -0.75 -0.15 -0.7 -0.1 -0.65 M-0.15 -0.6 L-0.15 -0.65 -0.2 -0.65 Q-0.2 -0.55 -0.15 -0.6" fill="#653e1d" fill-rule="evenodd" stroke="none"/>
    <path d="M-0.15 -0.75 Q-0.1 -0.75 -0.1 -0.8 -0.05 -0.8 -0.05 -0.8 L-0.1 -0.7 -0.1 -0.6 Q-0.1 -0.55 -0.1 -0.65 L-0.15 -0.7 -0.15 -0.75" fill="#9c7167" fill-rule="evenodd" stroke="none"/>
    <path d="M1.1 -1.6 L1.15 -1.75 1.1 -1.9 1.15 -1.9 1.25 -1.75 1.3 -1.85 1.25 -1.95 1.3 -2.0 1.35 -1.9 1.3 -1.7 1.3 -1.7 1.35 -1.75 1.4 -1.65 1.35 -1.6 1.3 -1.55 1.25 -1.55 1.2 -1.55 1.15 -1.5 Q1.1 -1.5 1.1 -1.55 L1.1 -1.6 M-0.35 -0.65 L-0.5 -0.6 -0.5 -0.45 -0.5 -0.45 -0.7 -0.3 -0.75 -0.35 -0.8 -0.4 Q-0.75 -0.4 -0.75 -0.4 -0.65 -0.45 -0.7 -0.45 -0.7 -0.55 -0.75 -0.55 L-0.75 -0.6 -0.75 -0.6 -0.65 -0.65 -0.65 -0.65 -0.55 -0.6 -0.45 -0.7 -0.4 -0.7 Q-0.45 -0.75 -0.4 -0.75 L-0.35 -0.8 Q-0.4 -0.7 -0.35 -0.65" fill="#a67f77" fill-rule="evenodd" stroke="none"/>
    <path d="M-0.35 -0.4 L-0.4 -0.45 -0.45 -0.5 -0.45 -0.5 -0.4 -0.5 -0.4 -0.45 -0.35 -0.45 Q-0.35 -0.4 -0.35 -0.4" fill="#ad8ca3" fill-rule="evenodd" stroke="none"/>
    <path d="M-0.45 -0.35 L-0.5 -0.4 -0.5 -0.45 -0.45 -0.45 -0.45 -0.35 -0.45 -0.35" fill="#a47c85" fill-rule="evenodd" stroke="none"/>
    <path d="M-0.1 -0.55 L-0.05 -0.5 Q-0.05 -0.5 -0.05 -0.45 L-0.1 -0.45 -0.2 -0.45 Q-0.3 -0.45 -0.2 -0.45 L-0.15 -0.5 -0.15 -0.55 -0.1 -0.55" fill="#825862" fill-rule="evenodd" stroke="none"/>
    <path d="M-0.15 -0.6 L-0.15 -0.6 Q-0.2 -0.55 -0.2 -0.65 L-0.15 -0.65 -0.15 -0.6" fill="#ad8b8d" fill-rule="evenodd" stroke="none"/>
    <path d="M-0.15 -0.55 L-0.1 -0.55 -0.15 -0.55 -0.15 -0.5 -0.2 -0.45 Q-0.3 -0.45 -0.2 -0.45 L-0.1 -0.45 -0.15 -0.4 -0.15 -0.4 -0.15 -0.4 -0.25 -0.3 -0.25 -0.35 -0.3 -0.35 -0.3 -0.4 -0.35 -0.35 -0.35 -0.4 Q-0.35 -0.4 -0.35 -0.45 L-0.4 -0.45 -0.4 -0.5 -0.45 -0.55 -0.25 -0.6 -0.2 -0.55 -0.25 -0.55 -0.2 -0.5 -0.15 -0.55 -0.15 -0.55" fill="#9e7699" fill-rule="evenodd" stroke="none"/>
    <path d="M-0.15 -0.4 L-0.1 -0.4 -0.1 -0.35 -0.2 -0.25 -0.15 -0.3 -0.05 -0.3 -0.05 -0.25 -0.2 -0.25 Q-0.3 -0.2 -0.3 -0.3 L-0.25 -0.3 -0.15 -0.4 -0.15 -0.4" fill="#704332" fill-rule="evenodd" stroke="none"/>
    <path d="M0.1 -0.15 L0.05 -0.15 0.0 -0.2 0.05 -0.2 0.1 -0.2 0.1 -0.15" fill="#8d5e52" fill-rule="evenodd" stroke="none"/>
    <path d="M-0.05 0.0 L-0.15 -0.05 -0.1 -0.05 -0.05 0.0" fill="#967555" fill-rule="evenodd" stroke="none"/>
    <path d="M-0.25 -0.2 L-0.1 -0.2 Q0.0 -0.2 -0.05 -0.1 L-0.25 -0.2" fill="#7e5134" fill-rule="evenodd" stroke="none"/>
    <path d="M1.6 0.55 Q1.5 0.75 1.5 0.9 L1.55 0.95 1.5 0.95 1.45 0.95 1.4 0.8 1.45 0.65 1.55 0.55 1.6 0.55 M1.65 1.6 Q1.65 1.75 1.55 1.95 L1.45 2.1 1.4 2.05 1.45 1.95 1.55 1.75 1.65 1.6 M-0.5 2.05 L-0.55 2.05 -0.85 1.65 -0.75 1.55 -0.55 1.8 -0.4 1.9 -0.5 2.05 M-1.0 0.9 L-1.05 0.6 -1.05 0.4 -0.95 0.4 -0.9 0.4 -0.85 0.55 -0.85 0.55 -0.9 0.65 -0.9 0.8 -0.95 0.95 -1.0 0.9 M-1.05 0.1 L-1.05 0.1 -1.1 0.15 -1.15 0.25 -1.2 0.35 -1.2 0.35 -1.25 0.35 Q-1.2 0.25 -1.25 0.2 L-1.45 0.2 Q-1.45 0.15 -1.4 0.15 -1.45 0.1 -1.4 0.05 L-1.35 0.05 -1.4 0.05 Q-1.5 0.05 -1.5 -0.05 L-1.45 -0.1 -1.35 -0.1 Q-1.25 -0.05 -1.3 -0.15 L-1.1 -0.15 -0.9 -0.15 Q-0.95 -0.05 -1.0 -0.05 L-1.05 -0.1 -1.25 -0.1 Q-1.15 -0.1 -1.1 -0.05 L-1.05 0.05 -1.0 0.1 -1.05 0.1" fill="#6b3c10" fill-rule="evenodd" stroke="none"/>
    <path d="M-1.5 0.2 L-1.6 0.2 -1.6 0.2 Q-1.55 0.15 -1.5 0.2" fill="#5e3c16" fill-rule="evenodd" stroke="none"/>
    <path d="M-1.5 -0.05 L-1.5 0.05 -1.45 0.15 -1.65 0.05 Q-1.75 0.0 -1.75 0.1 L-1.9 0.05 -1.95 0.0 -1.65 -0.15 -1.3 -0.15 -1.35 -0.15 -1.35 -0.1 -1.45 -0.1 -1.5 -0.05 M-0.9 0.4 L-0.7 0.45 -0.75 0.55 -0.85 0.75 -0.9 0.65 -0.9 0.65 -0.85 0.55 -0.85 0.55 -0.9 0.4" fill="#dac5ac" fill-rule="evenodd" stroke="none"/>
    <path d="M-1.35 -0.1 L-1.35 -0.15 -1.3 -0.15 Q-1.25 -0.05 -1.35 -0.1" fill="#aa865d" fill-rule="evenodd" stroke="none"/>
    <path d="M1.6 0.5 L1.6 0.55 1.55 0.55 1.4 0.55 1.4 0.5 1.5 0.45 1.6 0.5 M1.55 1.1 L1.6 1.25 1.65 1.5 1.6 1.5 Q1.6 1.45 1.45 1.4 L1.45 1.2 1.55 1.1 M1.3 2.15 L1.35 2.05 1.35 2.0 1.4 2.05 1.3 2.15 M-0.6 0.1 L-0.6 0.45 -0.7 0.45 -0.9 0.4 -0.95 0.4 -0.9 0.35 -0.9 0.25 -0.8 0.2 -0.6 0.1 M-0.6 1.1 L-0.55 1.4 -0.75 1.55 -0.85 1.65 -0.95 1.25 -1.0 1.2 -0.95 1.2 -0.75 1.2 -0.6 1.1 M-0.35 1.85 L-0.25 1.95 -0.25 2.0 -0.25 2.0 -0.4 1.9 -0.35 1.85" fill="#251c1a" fill-rule="evenodd" stroke="none"/>
    <path d="M1.65 0.4 L1.6 0.5 1.5 0.45 1.55 0.45 1.55 0.4 1.65 0.4 M1.55 0.95 L1.55 1.1 1.45 1.2 1.4 1.1 1.4 0.9 1.45 0.95 1.5 0.95 1.55 0.95 M1.45 2.1 L1.4 2.2 1.3 2.2 1.3 2.15 1.4 2.05 1.45 2.1 M-0.55 -0.05 L-0.6 0.1 -0.8 0.2 -0.9 0.25 -0.9 0.35 -0.95 0.4 -1.05 0.4 -1.05 0.1 -1.0 0.1 -1.0 0.1 -0.9 0.0 -0.8 -0.05 -0.55 -0.05 M-0.6 1.0 L-0.6 1.1 -0.75 1.2 -0.95 1.2 -1.0 1.2 -1.0 0.9 -0.95 0.95 -0.6 1.0 M-0.25 2.0 L-0.1 2.15 -0.05 2.2 -0.35 2.2 -0.5 2.05 -0.4 1.9 -0.25 2.0 -0.25 2.0" fill="#150f0e" fill-rule="evenodd" stroke="none"/>
    <path d="M1.1 -1.6 L1.15 -1.75 1.1 -1.9 1.15 -1.9 1.25 -1.75 1.3 -1.85 1.25 -1.95 1.3 -2.0 1.35 -1.9 1.3 -1.7 1.3 -1.7 1.35 -1.75 1.4 -1.65 1.35 -1.6 1.3 -1.55 1.5 -1.55 1.5 -1.55 1.6 -1.6 Q1.6 -1.55 1.55 -1.55 L1.5 -1.5 1.4 -1.5 1.3 -1.5 1.25 -1.5 Q1.15 -1.5 1.15 -1.45 L1.3 -1.45 1.5 -1.35 1.55 -1.3 1.6 -1.3 1.45 -1.25 1.35 -1.35 1.2 -1.35 1.25 -1.3 1.3 -1.3 1.35 -1.3 1.45 -1.2 1.5 -1.1 1.45 -1.05 1.5 -0.85 1.55 -0.8 1.55 -0.8 1.6 -0.6 Q1.7 -0.55 1.7 -0.45 L1.7 -0.35 1.75 -0.25 1.85 -0.25 1.9 -0.2 1.95 -0.15 1.95 -0.1 1.95 -0.05 2.0 0.05 1.95 0.15 2.0 0.15 2.0 0.3 1.95 0.3 1.85 0.25 1.8 0.3 1.85 0.3 1.9 0.3 1.75 0.35 1.7 0.35 1.65 0.4 1.6 0.5 1.6 0.55 Q1.5 0.75 1.5 0.9 L1.55 0.95 1.55 1.1 1.6 1.25 1.65 1.5 1.65 1.6 Q1.65 1.75 1.55 1.95 L1.45 2.1 1.4 2.2 M1.3 2.2 L1.3 2.15 1.35 2.05 1.35 2.0 Q1.45 1.65 1.45 1.4 L1.45 1.2 1.4 1.1 1.4 0.9 1.35 0.8 1.4 0.55 1.4 0.5 1.3 0.5 1.25 0.5 1.2 0.5 1.1 0.5 1.0 0.45 0.85 0.35 0.6 0.25 0.4 0.2 0.35 0.2 0.35 0.15 0.3 0.15 0.2 0.1 Q0.15 0.05 0.05 0.05 0.0 0.05 -0.05 0.1 L-0.1 0.05 -0.05 0.05 Q0.0 0.0 -0.05 0.0 L-0.15 -0.05 -0.2 -0.05 -0.2 -0.1 -0.25 -0.1 -0.55 -0.05 -0.6 0.1 -0.6 0.45 -0.6 1.0 -0.6 1.1 -0.55 1.4 Q-0.5 1.65 -0.35 1.85 L-0.25 1.95 -0.25 2.0 -0.1 2.15 -0.05 2.2 M-0.35 2.2 L-0.5 2.05 -0.55 2.05 -0.85 1.65 -0.95 1.25 -1.0 1.2 -1.0 0.9 -1.05 0.6 -1.05 0.4 -1.05 0.1 -1.05 0.1 -1.1 0.15 -1.15 0.25 -1.2 0.35 -1.2 0.35 -1.25 0.35 Q-1.2 0.25 -1.25 0.2 L-1.45 0.2 -1.45 0.2 -1.5 0.2 -1.5 0.2 -1.6 0.2 -1.65 0.2 Q-1.65 0.15 -1.65 0.15 L-1.75 0.15 -1.8 0.15 -1.95 0.1 -2.05 0.0 Q-2.05 -0.1 -1.95 -0.2 -1.85 -0.25 -1.9 -0.35 L-1.9 -0.55 -1.95 -0.6 -1.9 -0.6 -1.9 -0.65 -1.85 -0.65 -1.85 -0.75 -1.75 -0.75 -1.75 -0.85 Q-1.8 -0.9 -1.8 -0.9 L-1.85 -0.8 Q-1.95 -0.85 -1.85 -1.0 L-1.85 -1.1 -1.8 -1.2 -1.8 -1.25 -1.7 -1.3 Q-1.65 -1.25 -1.65 -1.3 L-1.7 -1.35 -1.75 -1.35 -1.75 -1.4 -1.6 -1.4 Q-1.6 -1.4 -1.55 -1.45 L-1.5 -1.5 -1.4 -1.5 Q-1.35 -1.5 -1.35 -1.55 L-1.4 -1.6 -1.35 -1.6 -1.2 -1.65 -1.2 -1.7 -1.15 -1.75 -1.1 -1.8 -1.05 -1.85 -0.95 -1.9 Q-0.9 -1.9 -0.8 -1.95 L-0.7 -1.95 -0.6 -2.0 -0.6 -2.0 -0.55 -2.05 -0.55 -2.0 -0.45 -2.0 -0.35 -2.0 -0.25 -2.0 -0.25 -2.05 -0.2 -2.1 -0.15 -2.15 -0.15 -2.1 -0.05 -2.05 -0.05 -2.05 0.0 -2.1 0.05 -2.05 0.1 -2.05 0.2 -2.1 0.2 -2.05 Q0.2 -2.05 0.25 -2.05 L0.25 -2.0 0.35 -2.05 0.4 -2.05 0.6 -1.95 0.6 -1.9 0.65 -1.85 0.65 -1.85 0.6 -1.8 Q0.55 -1.75 0.6 -1.75 L0.6 -1.65 Q0.6 -1.6 0.6 -1.65 0.65 -1.7 0.75 -1.65 L0.9 -1.55 0.9 -1.55 0.9 -1.55 0.95 -1.5 1.0 -1.45 Q1.05 -1.4 1.05 -1.45 L1.05 -1.6 Q1.05 -1.65 1.05 -1.6 L1.1 -1.6" fill="none" stroke="#000000" stroke-linecap="round" stroke-linejoin="round" stroke-opacity="0.4509804" stroke-width="1.0"/>
  </g>
</svg>
