<?xml version="1.0" encoding="UTF-8" standalone="no"?>
<svg xmlns:xlink="http://www.w3.org/1999/xlink" height="4.4px" width="4.4px" xmlns="http://www.w3.org/2000/svg">
  <g transform="matrix(1.0, 0.0, 0.0, 1.0, 2.2, 2.2)">
    <path d="M-2.2 -1.65 L-2.2 -1.7 -2.0 -1.45 -1.8 -1.2 -1.4 -0.9 -1.45 -0.9 -1.5 -0.95 -1.7 -1.05 -1.85 -1.2 -2.0 -1.4 -2.05 -1.45 -2.1 -1.45 -2.1 -1.55 -2.2 -1.65" fill="#bbfea0" fill-rule="evenodd" stroke="none"/>
    <path d="M-2.2 -1.55 L-2.2 -1.65 -2.1 -1.55 -2.1 -1.45 -2.1 -1.5 -2.15 -1.5 -2.15 -1.5 -2.15 -1.55 -2.2 -1.55" fill="#83eb72" fill-rule="evenodd" stroke="none"/>
    <path d="M-2.1 -1.4 L-2.1 -1.45 -2.15 -1.5 -2.15 -1.5 -2.1 -1.5 -2.1 -1.45 -2.05 -1.4 -1.95 -1.3 -1.9 -1.2 -1.85 -1.15 -1.7 -1.05 -1.5 -0.95 -1.5 -0.9 -1.45 -0.9 -1.55 -0.85 -1.55 -0.8 -1.5 -0.7 Q-1.45 -0.65 -1.5 -0.6 L-1.55 -0.55 -1.6 -0.55 -1.65 -0.5 -1.65 -0.4 -1.6 -0.35 -1.55 -0.25 Q-1.65 -0.25 -1.7 -0.15 -1.7 -0.1 -1.65 0.0 L-1.7 0.0 -1.75 -0.1 -1.75 -0.2 -1.7 -0.25 -1.75 -0.35 -1.85 -0.5 Q-1.85 -0.6 -1.8 -0.7 L-1.9 -0.75 -1.9 -0.8 Q-1.9 -0.85 -1.85 -0.85 L-1.8 -0.8 -1.75 -0.85 -1.7 -0.9 -1.7 -0.95 -1.65 -0.95 -1.6 -0.95 Q-1.6 -1.0 -1.75 -1.05 -1.85 -1.05 -1.9 -1.1 L-2.0 -1.25 -2.1 -1.4 M-1.7 0.0 L-1.7 0.0" fill="#42f664" fill-rule="evenodd" stroke="none"/>
    <path d="M-2.2 -0.8 L-2.2 -0.95 Q-2.1 -0.95 -2.05 -1.0 L-2.05 -1.15 Q-2.05 -1.25 -2.2 -1.35 L-2.2 -1.55 -2.15 -1.55 -2.15 -1.5 -2.1 -1.45 -2.1 -1.4 -2.0 -1.2 -1.9 -1.1 -1.85 -1.05 -1.85 -0.95 -1.9 -0.95 -2.0 -0.95 -2.0 -0.85 Q-2.0 -0.8 -2.0 -0.75 L-2.1 -0.75 -2.2 -0.8" fill="#27ad44" fill-rule="evenodd" stroke="none"/>
    <path d="M-1.7 -1.05 L-1.85 -1.15 -1.9 -1.2 -1.95 -1.3 -2.05 -1.4 -2.1 -1.45 -2.05 -1.45 -2.0 -1.4 -1.85 -1.2 -1.7 -1.05" fill="#74fe7c" fill-rule="evenodd" stroke="none"/>
    <path d="M-2.2 -0.95 L-2.2 -1.05 -2.15 -1.05 Q-2.1 -1.05 -2.1 -1.05 L-2.1 -1.2 Q-2.15 -1.25 -2.2 -1.3 L-2.2 -1.35 Q-2.05 -1.25 -2.05 -1.15 L-2.05 -1.0 Q-2.1 -0.95 -2.2 -0.95" fill="#2dce55" fill-rule="evenodd" stroke="none"/>
    <path d="M-2.2 1.95 L-2.2 1.85 Q-2.05 1.85 -1.95 1.75 L-1.7 1.6 -1.55 1.55 -1.35 1.45 Q-1.1 1.35 -1.0 1.25 L-1.05 1.35 -1.1 1.4 -1.15 1.4 -1.15 1.5 -1.3 1.55 -1.65 1.65 -1.9 1.85 -2.2 1.95 M-2.2 -1.7 L-2.2 -2.2 -1.65 -2.2 -1.9 -2.0 -2.15 -1.75 -1.95 -1.45 -1.7 -1.15 -1.5 -1.05 -1.4 -0.9 -1.3 -0.85 -1.25 -0.85 -1.2 -0.8 -1.1 -0.8 -1.1 -0.75 -1.15 -0.8 -1.25 -0.8 -1.35 -0.85 -1.4 -0.9 -1.8 -1.2 -2.0 -1.45 -2.2 -1.7" fill="#ebffd5" fill-rule="evenodd" stroke="none"/>
    <path d="M-2.2 -1.05 L-2.2 -1.3 Q-2.15 -1.25 -2.1 -1.2 L-2.1 -1.05 Q-2.1 -1.05 -2.15 -1.05 L-2.2 -1.05" fill="#38ed68" fill-rule="evenodd" stroke="none"/>
    <path d="M-2.2 -0.6 L-2.2 -0.8 -2.1 -0.75 -2.0 -0.75 Q-2.0 -0.8 -2.0 -0.85 L-2.0 -0.95 -1.9 -0.95 -1.85 -0.95 -1.85 -1.05 -1.9 -1.1 -2.0 -1.2 -2.1 -1.4 -2.0 -1.25 -1.9 -1.1 -1.7 -1.0 -1.8 -0.9 -1.9 -0.9 -1.95 -0.9 -1.95 -0.75 Q-2.0 -0.7 -1.95 -0.7 L-1.9 -0.7 -1.85 -0.65 -1.9 -0.6 -1.85 -0.5 -1.8 -0.4 -1.75 -0.3 -1.8 -0.35 -1.85 -0.4 -1.9 -0.5 -2.0 -0.6 -2.1 -0.6 -2.2 -0.6" fill="#2cd254" fill-rule="evenodd" stroke="none"/>
    <path d="M-2.2 -0.45 L-2.2 -0.55 -2.05 -0.5 -1.95 -0.4 -1.95 -0.35 -1.9 -0.35 Q-1.8 -0.3 -1.85 -0.25 L-1.85 -0.1 -1.8 0.0 -1.75 0.1 -1.75 0.15 -1.8 0.05 -1.9 -0.1 -1.9 -0.3 -2.0 -0.4 -2.2 -0.45" fill="#2c812e" fill-rule="evenodd" stroke="none"/>
    <path d="M-2.2 -0.55 L-2.2 -0.55 -2.0 -0.55 Q-1.95 -0.5 -1.9 -0.4 L-1.85 -0.35 -1.8 -0.3 -1.8 -0.15 -1.75 0.0 -1.7 0.15 -1.75 0.1 -1.8 0.0 -1.85 -0.1 -1.85 -0.25 Q-1.8 -0.3 -1.9 -0.35 L-1.95 -0.35 -1.95 -0.4 -2.05 -0.5 -2.2 -0.55" fill="#2fa03b" fill-rule="evenodd" stroke="none"/>
    <path d="M-2.2 -0.55 L-2.2 -0.6 -2.1 -0.6 -2.0 -0.6 -1.9 -0.5 -1.85 -0.4 -1.8 -0.35 -1.75 -0.3 -1.75 -0.15 Q-1.75 -0.05 -1.7 0.0 L-1.7 0.0 -1.65 0.1 -1.6 0.15 -1.55 0.2 -1.55 0.25 -1.55 0.3 -1.6 0.25 Q-1.55 0.2 -1.6 0.2 L-1.7 0.15 -1.75 0.0 -1.8 -0.15 -1.8 -0.3 -1.85 -0.35 -1.9 -0.4 Q-1.95 -0.5 -2.0 -0.55 L-2.2 -0.55" fill="#39bb48" fill-rule="evenodd" stroke="none"/>
    <path d="M-2.2 -0.35 L-2.2 -0.45 -2.0 -0.4 -1.9 -0.3 -1.9 -0.1 -1.8 0.05 -1.75 0.15 -1.75 0.25 -1.8 0.2 -1.85 0.15 -1.9 0.05 -1.9 -0.05 -1.95 -0.1 -2.0 -0.2 Q-1.95 -0.3 -2.05 -0.35 -2.1 -0.4 -2.2 -0.35" fill="#316328" fill-rule="evenodd" stroke="none"/>
    <path d="M-2.2 -0.05 L-2.2 -0.35 Q-2.1 -0.4 -2.05 -0.35 -1.95 -0.3 -2.0 -0.2 L-1.95 -0.1 -1.9 -0.05 -1.9 0.05 -1.85 0.15 -1.95 0.1 -2.0 0.1 -2.1 0.0 -2.2 -0.05" fill="#3b4a23" fill-rule="evenodd" stroke="none"/>
    <path d="M0.0 -2.2 Q0.15 -2.15 0.2 -2.1 0.25 -2.0 0.2 -1.9 L0.15 -1.85 0.1 -1.8 Q0.05 -1.7 0.05 -1.65 L0.1 -1.6 0.2 -1.65 0.3 -1.65 0.45 -1.65 0.45 -1.6 0.4 -1.55 0.45 -1.45 0.5 -1.35 0.65 -1.4 0.8 -1.45 0.9 -1.45 0.95 -1.4 1.0 -1.3 0.95 -1.2 Q0.95 -1.05 1.05 -1.0 L1.15 -0.95 1.2 -0.95 1.15 -0.95 1.15 -0.9 1.1 -0.85 1.05 -0.85 1.0 -0.8 0.95 -0.8 0.65 -0.7 Q0.6 -0.7 0.6 -0.65 L0.6 -0.6 0.55 -0.6 0.45 -0.55 0.4 -0.55 0.35 -0.5 0.3 -0.5 0.25 -0.45 0.2 -0.5 0.1 -0.55 0.05 -0.45 0.0 -0.45 -0.3 -0.65 -0.3 -0.7 -0.25 -0.7 -0.25 -0.8 -0.35 -0.8 -0.45 -0.75 -0.6 -0.75 -0.7 -0.75 Q-0.75 -0.8 -0.7 -0.9 L-0.65 -0.95 -0.6 -1.0 Q-0.55 -1.1 -0.5 -1.15 L-0.55 -1.3 -0.4 -1.5 -0.25 -1.6 Q-0.15 -1.65 -0.15 -1.75 -0.2 -1.85 -0.25 -1.9 L-0.45 -1.85 -0.65 -1.75 -0.8 -1.7 -0.95 -1.65 -1.0 -1.65 -1.05 -1.7 -1.2 -1.7 -1.35 -1.6 -1.35 -1.45 -1.3 -1.4 -1.25 -1.35 -1.3 -1.3 -1.3 -1.15 Q-1.3 -1.1 -1.3 -1.05 L-1.35 -0.95 -1.25 -0.85 -1.2 -0.85 -1.1 -0.8 -1.2 -0.8 -1.25 -0.85 -1.35 -0.9 -1.4 -1.0 -1.4 -1.1 Q-1.4 -1.2 -1.45 -1.2 L-1.6 -1.2 -1.9 -1.4 Q-1.95 -1.45 -1.95 -1.5 L-1.85 -1.6 -1.8 -1.7 -1.7 -1.8 -1.55 -1.8 -1.35 -1.8 Q-1.25 -1.85 -1.15 -1.9 -0.95 -1.95 -0.75 -2.05 L-0.65 -2.05 -0.5 -2.0 Q-0.35 -2.0 -0.3 -2.0 L-0.2 -2.1 -0.05 -2.2 0.0 -2.2" fill="#f8fff0" fill-rule="evenodd" stroke="none"/>
    <path d="M2.2 0.6 L2.2 0.65 2.0 0.7 1.8 0.8 Q1.75 0.8 1.65 0.9 L1.45 1.0 1.5 1.0 1.55 1.0 1.7 0.95 Q1.8 0.95 1.8 1.05 L1.75 1.2 1.65 1.25 1.55 1.25 Q1.5 1.25 1.5 1.3 1.5 1.4 1.65 1.4 L1.85 1.35 2.2 1.4 2.2 1.45 1.95 1.5 1.75 1.5 1.3 1.35 1.35 1.25 1.35 1.2 Q1.4 1.1 1.3 1.05 L1.35 1.0 1.4 0.95 1.55 0.9 Q1.6 0.85 1.65 0.85 L1.75 0.8 1.8 0.75 2.0 0.7 Q2.1 0.6 2.2 0.6 M-1.65 -2.2 L-0.05 -2.2 -0.2 -2.1 -0.3 -2.0 Q-0.35 -2.0 -0.5 -2.0 L-0.65 -2.05 -0.75 -2.05 Q-0.95 -1.95 -1.15 -1.9 -1.25 -1.85 -1.35 -1.8 L-1.55 -1.8 -1.7 -1.8 -1.8 -1.7 -1.85 -1.6 -1.95 -1.5 Q-1.95 -1.45 -1.9 -1.4 L-1.6 -1.2 -1.45 -1.2 Q-1.4 -1.2 -1.4 -1.1 L-1.4 -1.0 -1.35 -0.9 -1.25 -0.85 -1.3 -0.85 -1.4 -0.9 -1.5 -1.05 -1.7 -1.15 -1.95 -1.45 -2.15 -1.75 -1.9 -2.0 -1.65 -2.2" fill="#f3ffe5" fill-rule="evenodd" stroke="none"/>
    <path d="M0.0 -0.45 L0.0 -0.4 0.05 -0.4 0.05 -0.4 0.05 -0.35 0.05 -0.3 0.1 -0.25 0.05 -0.25 0.1 -0.2 0.1 -0.15 0.05 -0.15 Q0.0 -0.15 0.0 -0.15 L0.0 -0.1 -0.05 0.0 -0.05 0.0 -0.1 0.05 -0.1 0.0 -0.15 0.0 -0.2 -0.05 Q-0.25 -0.05 -0.25 -0.1 L-0.25 -0.1 -0.2 -0.1 -0.4 -0.2 -0.35 -0.25 -0.35 -0.25 -0.35 -0.3 Q-0.3 -0.35 -0.3 -0.4 L-0.4 -0.35 -0.45 -0.35 -0.45 -0.4 -0.5 -0.4 Q-0.5 -0.45 -0.55 -0.5 L-0.6 -0.5 -0.65 -0.55 -0.7 -0.6 -0.7 -0.55 Q-0.75 -0.55 -0.75 -0.55 L-0.8 -0.55 Q-0.8 -0.55 -0.9 -0.6 L-1.0 -0.65 -1.1 -0.75 -1.1 -0.8 -1.2 -0.85 -1.25 -0.85 -1.35 -0.95 -1.3 -1.05 Q-1.3 -1.1 -1.3 -1.15 L-1.3 -1.3 -1.25 -1.35 -1.3 -1.4 -1.35 -1.45 -1.35 -1.6 -1.2 -1.7 -1.05 -1.7 -1.0 -1.65 -0.95 -1.65 -0.8 -1.7 -0.65 -1.75 -0.45 -1.85 -0.25 -1.9 Q-0.2 -1.85 -0.15 -1.75 -0.15 -1.65 -0.25 -1.6 L-0.4 -1.5 -0.55 -1.3 -0.5 -1.15 Q-0.55 -1.1 -0.6 -1.0 L-0.65 -0.95 -0.7 -0.9 Q-0.75 -0.8 -0.7 -0.75 L-0.6 -0.75 -0.45 -0.75 -0.35 -0.8 -0.25 -0.8 -0.25 -0.7 -0.3 -0.7 -0.3 -0.65 0.0 -0.45" fill="#fdfffb" fill-rule="evenodd" stroke="none"/>
    <path d="M-1.65 0.0 Q-1.7 -0.1 -1.7 -0.15 -1.65 -0.25 -1.55 -0.25 L-1.6 -0.35 -1.65 -0.4 -1.65 -0.5 -1.6 -0.55 -1.55 -0.55 -1.5 -0.6 Q-1.45 -0.65 -1.5 -0.7 L-1.55 -0.8 -1.55 -0.85 -1.45 -0.9 -1.5 -0.9 -1.5 -0.95 -1.45 -0.9 -1.4 -0.9 -1.35 -0.85 -1.25 -0.8 -1.15 -0.8 -1.1 -0.75 -1.0 -0.65 -1.0 -0.6 Q-1.05 -0.65 -1.15 -0.65 L-1.2 -0.7 -1.2 -0.7 -1.25 -0.65 -1.3 -0.7 -1.35 -0.7 Q-1.35 -0.7 -1.4 -0.75 -1.45 -0.8 -1.45 -0.75 L-1.4 -0.7 -1.35 -0.65 -1.4 -0.55 -1.4 -0.45 Q-1.4 -0.4 -1.45 -0.4 L-1.45 -0.4 -1.5 -0.35 -1.45 -0.3 -1.4 -0.35 Q-1.4 -0.3 -1.4 -0.25 L-1.5 -0.25 -1.55 -0.2 -1.6 -0.2 Q-1.65 -0.1 -1.6 -0.05 L-1.5 0.1 -1.5 0.15 -1.45 0.25 Q-1.45 0.3 -1.5 0.35 -1.5 0.15 -1.65 0.0" fill="#5bfa6f" fill-rule="evenodd" stroke="none"/>
    <path d="M-0.4 0.3 L-0.35 0.35 -0.35 0.35 -0.35 0.4 -0.4 0.45 -0.4 0.45 -0.45 0.55 -0.5 0.55 -0.55 0.5 Q-0.6 0.5 -0.6 0.55 L-0.65 0.6 Q-0.7 0.65 -0.65 0.7 L-0.6 0.7 -0.6 0.75 -0.6 0.75 -0.65 0.75 -0.65 0.85 -0.65 1.0 Q-0.65 0.95 -0.7 0.9 L-0.7 0.8 Q-0.75 0.75 -0.85 0.75 L-1.05 0.7 -1.1 0.7 -1.15 0.7 -1.15 0.65 -1.1 0.55 Q-1.15 0.55 -1.3 0.5 L-1.45 0.45 -1.45 0.4 -1.5 0.35 Q-1.45 0.3 -1.45 0.25 L-1.5 0.15 -1.5 0.1 -1.6 -0.05 Q-1.65 -0.1 -1.6 -0.2 L-1.55 -0.2 -1.5 -0.25 -1.4 -0.25 Q-1.4 -0.3 -1.4 -0.35 L-1.45 -0.3 -1.5 -0.35 -1.45 -0.4 -1.45 -0.4 Q-1.4 -0.4 -1.4 -0.45 L-1.4 -0.55 -1.35 -0.65 -1.4 -0.7 -1.45 -0.75 Q-1.45 -0.8 -1.4 -0.75 -1.35 -0.7 -1.35 -0.7 L-1.3 -0.7 -1.25 -0.65 -1.2 -0.7 -1.2 -0.7 Q-1.15 -0.65 -1.25 -0.55 L-1.3 -0.35 Q-1.3 -0.3 -1.2 -0.3 -1.15 -0.3 -1.15 -0.25 L-1.3 -0.25 -1.4 -0.2 -1.5 -0.15 -1.6 -0.1 -1.55 0.0 -1.5 0.1 -1.4 0.2 -1.3 0.25 Q-1.3 0.3 -1.35 0.3 L-1.4 0.3 -1.45 0.35 -1.45 0.4 -1.35 0.45 -1.3 0.5 Q-1.25 0.45 -1.25 0.5 L-1.15 0.5 Q-1.1 0.5 -1.0 0.6 -0.9 0.7 -0.85 0.7 L-0.8 0.7 -0.75 0.7 -0.75 0.6 -0.8 0.6 -0.8 0.55 -0.75 0.55 Q-0.7 0.6 -0.7 0.55 -0.7 0.5 -0.65 0.45 L-0.55 0.4 -0.6 0.3 -0.65 0.25 -0.7 0.2 -0.7 0.15 -0.8 0.1 -0.85 0.1 -0.8 0.05 -0.8 0.0 Q-0.8 0.1 -0.65 0.15 L-0.45 0.15 -0.4 0.2 -0.4 0.25 -0.4 0.3 M-1.15 0.7 L-1.15 0.7" fill="#6afa79" fill-rule="evenodd" stroke="none"/>
    <path d="M-1.2 -0.7 L-1.15 -0.65 -1.0 -0.6 -0.85 -0.45 -0.85 -0.4 -0.8 -0.3 -0.85 -0.25 -0.85 -0.15 Q-0.8 -0.15 -0.8 -0.1 L-0.75 0.0 -0.8 0.0 -0.8 0.05 -0.85 0.1 -0.8 0.1 -0.7 0.15 -0.7 0.2 -0.65 0.25 -0.6 0.3 -0.55 0.4 -0.65 0.45 Q-0.7 0.5 -0.7 0.55 -0.7 0.6 -0.75 0.55 L-0.8 0.55 -0.8 0.6 -0.75 0.6 -0.75 0.7 -0.8 0.7 -0.85 0.7 Q-0.9 0.7 -1.0 0.6 -1.1 0.5 -1.15 0.5 L-1.25 0.5 Q-1.25 0.45 -1.3 0.5 L-1.35 0.45 -1.45 0.4 -1.45 0.35 -1.4 0.3 -1.35 0.3 Q-1.3 0.3 -1.3 0.25 L-1.4 0.2 -1.5 0.1 -1.55 0.0 -1.6 -0.1 -1.5 -0.15 -1.4 -0.2 -1.3 -0.25 -1.15 -0.25 Q-1.15 -0.3 -1.2 -0.3 -1.3 -0.3 -1.3 -0.35 L-1.25 -0.55 Q-1.15 -0.65 -1.2 -0.7 M-0.85 -0.25 L-0.85 -0.35 -0.9 -0.4 -0.9 -0.45 -0.85 -0.45 -0.95 -0.5 Q-1.0 -0.5 -1.0 -0.55 L-1.05 -0.6 -1.1 -0.6 -1.05 -0.5 Q-1.0 -0.45 -1.05 -0.4 L-1.1 -0.35 -1.1 -0.3 -1.05 -0.25 -1.05 -0.25 -1.1 -0.2 -1.15 -0.2 -1.2 -0.2 -1.2 -0.15 -1.25 -0.15 -1.3 -0.15 -1.35 -0.15 -1.4 -0.2 -1.45 -0.15 -1.45 0.1 -1.4 0.2 -1.25 0.2 -1.25 0.3 -1.2 0.35 -1.25 0.4 -1.2 0.45 -1.15 0.5 -1.1 0.45 Q-1.1 0.4 -1.05 0.45 -1.0 0.45 -1.0 0.5 L-0.9 0.55 Q-0.9 0.55 -0.85 0.5 L-0.75 0.4 -0.6 0.35 -0.65 0.25 -0.75 0.2 -0.75 0.15 Q-0.75 0.15 -0.8 0.15 L-0.85 0.1 -0.95 0.1 -0.85 0.0 -0.8 -0.05 Q-0.9 -0.05 -0.9 -0.15 L-0.85 -0.25 M-1.35 -0.15 L-1.35 -0.15" fill="#79fa87" fill-rule="evenodd" stroke="none"/>
    <path d="M-1.9 -1.1 Q-1.85 -1.05 -1.75 -1.05 -1.6 -1.0 -1.6 -0.95 L-1.65 -0.95 -1.7 -0.95 -1.7 -0.9 -1.75 -0.85 -1.8 -0.8 -1.85 -0.85 Q-1.9 -0.85 -1.9 -0.8 L-1.9 -0.75 -1.8 -0.7 Q-1.85 -0.6 -1.85 -0.5 L-1.75 -0.35 -1.7 -0.25 -1.75 -0.2 -1.75 -0.1 -1.7 0.0 Q-1.75 -0.05 -1.75 -0.15 L-1.75 -0.3 -1.8 -0.4 -1.85 -0.5 -1.9 -0.6 -1.85 -0.65 -1.9 -0.7 -1.95 -0.7 Q-2.0 -0.7 -1.95 -0.75 L-1.95 -0.9 -1.9 -0.9 -1.8 -0.9 -1.7 -1.0 -1.9 -1.1" fill="#36e75c" fill-rule="evenodd" stroke="none"/>
    <path d="M-1.35 -0.15 L-1.3 -0.15 -1.25 -0.15 -1.2 -0.15 -1.2 -0.2 -1.15 -0.2 -1.1 -0.2 -1.05 -0.25 -1.05 -0.25 -1.1 -0.3 -1.1 -0.35 -1.05 -0.4 Q-1.0 -0.45 -1.05 -0.5 L-1.1 -0.6 -1.05 -0.6 -1.0 -0.55 Q-1.0 -0.5 -0.95 -0.5 L-0.85 -0.45 -0.9 -0.45 -0.9 -0.4 -0.85 -0.35 -0.85 -0.25 -0.95 -0.2 Q-1.0 -0.2 -0.95 -0.2 L-0.9 -0.15 Q-0.9 -0.1 -0.95 -0.1 L-0.95 -0.15 -1.0 -0.15 -1.05 -0.15 -1.05 -0.1 Q-1.1 -0.05 -1.15 -0.1 L-1.25 -0.1 -1.3 -0.15 -1.35 -0.15" fill="#8dfa8f" fill-rule="evenodd" stroke="none"/>
    <path d="M-0.85 -0.25 L-0.9 -0.15 Q-0.9 -0.05 -0.8 -0.05 L-0.85 0.0 -0.95 0.1 -0.85 0.1 -0.8 0.15 -0.8 0.25 -0.85 0.3 -0.8 0.3 Q-0.75 0.25 -0.75 0.3 L-0.8 0.35 -0.75 0.4 -0.85 0.45 Q-0.9 0.45 -0.85 0.5 -0.95 0.55 -0.95 0.5 L-0.95 0.4 Q-1.0 0.35 -1.05 0.35 L-1.15 0.35 -1.2 0.25 -1.25 0.15 -1.35 0.15 -1.4 0.15 -1.4 0.1 -1.4 -0.05 -1.35 -0.15 -1.35 -0.15 -1.3 -0.15 -1.25 -0.1 -1.15 -0.1 Q-1.1 -0.05 -1.05 -0.1 L-1.05 -0.15 -1.0 -0.15 -0.95 -0.15 -0.95 -0.1 Q-0.9 -0.1 -0.9 -0.15 L-0.95 -0.2 Q-1.0 -0.2 -0.95 -0.2 L-0.85 -0.25 M-1.15 -0.1 L-1.2 0.0 -1.25 0.0 Q-1.25 0.15 -1.15 0.3 L-1.1 0.3 -1.05 0.25 -1.0 0.3 -0.95 0.35 -0.9 0.35 Q-0.9 0.3 -0.9 0.3 L-0.85 0.25 Q-0.85 0.25 -0.85 0.2 L-0.85 0.15 -0.9 0.15 -0.95 0.1 -0.95 0.1 -1.0 0.0 -1.05 0.0 -1.1 -0.05 -1.15 -0.1" fill="#a3f997" fill-rule="evenodd" stroke="none"/>
    <path d="M-0.85 0.5 Q-0.9 0.55 -0.9 0.55 L-1.0 0.5 Q-1.0 0.45 -1.05 0.45 -1.1 0.4 -1.1 0.45 L-1.15 0.5 -1.2 0.45 -1.25 0.4 -1.2 0.35 -1.25 0.3 -1.25 0.2 -1.4 0.2 -1.45 0.1 -1.45 -0.15 -1.4 -0.2 -1.35 -0.15 -1.4 -0.05 -1.4 0.1 -1.4 0.15 -1.35 0.15 -1.25 0.15 -1.2 0.25 -1.15 0.35 -1.05 0.35 Q-1.0 0.35 -0.95 0.4 L-0.95 0.5 Q-0.95 0.55 -0.85 0.5" fill="#8cfa8e" fill-rule="evenodd" stroke="none"/>
    <path d="M-1.15 -0.1 L-1.1 -0.05 -1.05 0.0 -1.0 0.0 -0.95 0.1 -0.95 0.1 -0.9 0.15 -0.85 0.15 -0.85 0.2 Q-0.85 0.25 -0.85 0.25 L-0.9 0.3 Q-0.9 0.3 -0.9 0.35 L-0.95 0.35 -1.0 0.3 -1.05 0.25 -1.1 0.3 -1.15 0.3 Q-1.25 0.15 -1.25 0.0 L-1.2 0.0 -1.15 -0.1" fill="#b7f99e" fill-rule="evenodd" stroke="none"/>
    <path d="M-0.6 -0.5 L-0.55 -0.5 Q-0.5 -0.45 -0.5 -0.4 L-0.5 -0.35 -0.55 -0.4 -0.6 -0.4 -0.6 -0.45 -0.6 -0.5" fill="#cffdbb" fill-rule="evenodd" stroke="none"/>
    <path d="M-0.6 -0.5 L-0.6 -0.45 -0.7 -0.3 -0.75 -0.3 -0.75 -0.35 -0.7 -0.45 -0.7 -0.55 -0.7 -0.6 -0.65 -0.55 -0.6 -0.5" fill="#5ce45f" fill-rule="evenodd" stroke="none"/>
    <path d="M-0.75 0.0 L-0.8 -0.1 Q-0.8 -0.15 -0.85 -0.15 L-0.85 -0.25 -0.8 -0.3 -0.85 -0.4 -0.85 -0.45 -1.0 -0.6 -1.15 -0.65 Q-1.05 -0.65 -1.0 -0.6 L-1.0 -0.65 -0.9 -0.6 Q-0.8 -0.55 -0.8 -0.55 L-0.75 -0.55 Q-0.75 -0.55 -0.7 -0.55 L-0.7 -0.45 -0.75 -0.35 -0.75 -0.3 -0.7 -0.3 -0.6 -0.45 -0.6 -0.4 -0.55 -0.4 -0.5 -0.35 -0.5 -0.3 -0.55 -0.35 -0.6 -0.35 -0.65 -0.3 -0.7 -0.25 -0.75 -0.2 -0.75 -0.15 -0.7 -0.1 -0.7 -0.1 -0.65 -0.15 Q-0.65 -0.15 -0.6 -0.15 L-0.6 -0.25 -0.55 -0.25 -0.55 -0.3 -0.55 0.0 -0.6 0.0 -0.65 -0.05 -0.75 0.0 -0.75 0.0" fill="#71f571" fill-rule="evenodd" stroke="none"/>
    <path d="M-0.5 -0.35 L-0.5 -0.4 -0.45 -0.4 -0.45 -0.35 -0.4 -0.35 -0.3 -0.4 Q-0.3 -0.35 -0.35 -0.3 L-0.35 -0.25 -0.35 -0.25 -0.4 -0.2 -0.2 -0.1 -0.25 -0.1 -0.25 -0.1 Q-0.25 -0.05 -0.2 -0.05 L-0.15 0.0 -0.2 0.05 -0.25 0.05 -0.3 0.0 -0.35 -0.05 -0.35 -0.1 -0.45 -0.15 -0.5 -0.1 -0.5 0.0 -0.55 0.0 -0.55 -0.3 -0.5 -0.3 -0.5 -0.35 M-0.45 -0.15 L-0.45 -0.15 M-0.2 0.0 L-0.2 0.05 -0.2 0.0" fill="#c1f3f5" fill-rule="evenodd" stroke="none"/>
    <path d="M-0.6 -0.35 L-0.55 -0.35 -0.5 -0.3 -0.55 -0.3 -0.55 -0.25 -0.6 -0.25 -0.6 -0.35" fill="#5b823b" fill-rule="evenodd" stroke="none"/>
    <path d="M-0.6 -0.25 L-0.6 -0.15 Q-0.65 -0.15 -0.65 -0.15 L-0.7 -0.25 -0.65 -0.3 -0.6 -0.35 -0.6 -0.25" fill="#8ab05a" fill-rule="evenodd" stroke="none"/>
    <path d="M-0.65 -0.15 L-0.7 -0.1 -0.7 -0.1 -0.75 -0.15 -0.75 -0.2 -0.7 -0.25 -0.65 -0.15" fill="#57be4f" fill-rule="evenodd" stroke="none"/>
    <path d="M-0.75 0.0 L-0.65 -0.05 -0.6 0.0 Q-0.6 0.05 -0.55 0.05 L-0.45 0.1 -0.55 0.1 -0.65 0.1 -0.7 0.1 Q-0.7 0.05 -0.75 0.05 L-0.75 0.0" fill="#5c8341" fill-rule="evenodd" stroke="none"/>
    <path d="M0.0 0.05 L0.0 0.15 -0.05 0.2 -0.05 0.15 -0.1 0.2 -0.05 0.25 -0.1 0.25 -0.15 0.25 -0.15 0.3 -0.2 0.3 -0.2 0.25 -0.25 0.25 -0.3 0.3 -0.3 0.15 -0.35 0.25 -0.4 0.25 -0.4 0.2 -0.45 0.15 -0.45 0.1 -0.55 0.05 Q-0.6 0.05 -0.6 0.0 L-0.55 0.0 -0.5 0.0 -0.45 0.0 -0.4 0.0 -0.3 0.0 -0.25 0.05 -0.25 0.05 -0.2 0.05 -0.2 0.0 -0.2 0.05 -0.15 0.1 -0.1 0.0 -0.1 0.05 -0.05 0.05 0.0 0.05" fill="#47692f" fill-rule="evenodd" stroke="none"/>
    <path d="M-0.5 0.0 L-0.5 -0.1 -0.45 -0.15 -0.35 -0.1 -0.35 -0.05 -0.3 0.0 -0.4 0.0 -0.45 0.0 -0.5 0.0 M-0.45 -0.15 L-0.45 -0.1 Q-0.45 -0.05 -0.4 -0.05 -0.4 -0.1 -0.4 -0.1 L-0.45 -0.15" fill="#64f170" fill-rule="evenodd" stroke="none"/>
    <path d="M-0.45 -0.15 L-0.45 -0.15 -0.4 -0.1 Q-0.4 -0.1 -0.4 -0.05 -0.45 -0.05 -0.45 -0.1 L-0.45 -0.15" fill="#46ad46" fill-rule="evenodd" stroke="none"/>
    <path d="M2.2 -1.7 L2.0 -1.65 1.8 -1.5 1.8 -1.65 1.7 -1.8 Q1.7 -1.85 1.7 -1.85 L1.75 -1.9 1.8 -2.0 Q1.85 -2.1 1.85 -2.15 L2.0 -2.15 2.15 -2.15 2.2 -2.05 2.2 -1.7" fill="#f0ffe0" fill-rule="evenodd" stroke="none"/>
    <path d="M2.2 -2.05 L2.15 -2.15 2.0 -2.15 1.85 -2.15 Q1.85 -2.1 1.8 -2.0 L1.75 -1.9 1.7 -1.85 Q1.7 -1.85 1.7 -1.8 L1.8 -1.65 1.8 -1.5 2.0 -1.65 2.2 -1.7 2.2 -1.65 Q2.0 -1.65 1.85 -1.5 L1.75 -1.4 1.65 -1.25 1.6 -1.2 1.6 -1.15 1.4 -1.0 Q1.3 -0.95 1.2 -0.9 L1.15 -0.9 1.15 -0.85 Q1.15 -0.9 1.15 -0.9 L1.25 -0.95 Q1.35 -1.0 1.45 -1.05 L1.6 -1.25 Q1.7 -1.3 1.75 -1.45 1.55 -1.35 1.45 -1.2 L1.3 -1.15 Q1.25 -1.1 1.2 -1.15 1.15 -1.3 1.25 -1.4 L1.3 -1.55 1.4 -1.65 1.45 -1.7 1.5 -1.75 1.5 -1.9 Q1.5 -2.0 1.35 -2.0 L1.2 -2.05 0.85 -2.15 0.75 -2.1 0.65 -2.0 0.6 -1.95 0.45 -1.9 0.4 -1.9 0.35 -1.9 0.3 -2.05 0.2 -2.2 2.2 -2.2 2.2 -2.05 M1.0 -0.75 L1.05 -0.85 1.15 -0.85 Q1.15 -0.8 1.1 -0.8 L1.05 -0.8 1.05 -0.8 1.0 -0.75" fill="#efffd7" fill-rule="evenodd" stroke="none"/>
    <path d="M0.2 -2.2 L0.3 -2.05 0.35 -1.9 0.4 -1.9 0.45 -1.9 0.6 -1.95 0.65 -2.0 0.75 -2.1 0.85 -2.15 1.2 -2.05 1.35 -2.0 Q1.5 -2.0 1.5 -1.9 L1.5 -1.75 1.45 -1.7 1.4 -1.65 1.3 -1.55 1.25 -1.4 Q1.15 -1.3 1.2 -1.15 1.25 -1.1 1.3 -1.15 L1.45 -1.2 Q1.55 -1.35 1.75 -1.45 1.7 -1.3 1.6 -1.25 L1.45 -1.05 Q1.35 -1.0 1.25 -0.95 L1.15 -0.9 Q1.15 -0.9 1.15 -0.85 L1.05 -0.85 1.0 -0.75 0.95 -0.75 0.9 -0.75 Q0.85 -0.75 0.85 -0.7 L0.8 -0.75 0.75 -0.7 Q0.75 -0.7 0.7 -0.7 L0.6 -0.7 0.6 -0.65 Q0.6 -0.7 0.65 -0.7 L0.95 -0.8 1.0 -0.8 1.05 -0.85 1.1 -0.85 1.15 -0.9 1.15 -0.95 1.2 -0.95 1.15 -0.95 1.05 -1.0 Q0.95 -1.05 0.95 -1.2 L1.0 -1.3 0.95 -1.4 0.9 -1.45 0.8 -1.45 0.65 -1.4 0.5 -1.35 0.45 -1.45 0.4 -1.55 0.45 -1.6 0.45 -1.65 0.3 -1.65 0.2 -1.65 0.1 -1.6 0.05 -1.65 Q0.05 -1.7 0.1 -1.8 L0.15 -1.85 0.2 -1.9 Q0.25 -2.0 0.2 -2.1 0.15 -2.15 0.0 -2.2 L0.2 -2.2" fill="#f2ffe4" fill-rule="evenodd" stroke="none"/>
    <path d="M1.75 -1.3 L1.75 -1.3 1.75 -1.15 1.65 -1.2 1.7 -1.25 1.75 -1.3" fill="#4dbf5a" fill-rule="evenodd" stroke="none"/>
    <path d="M1.75 -1.3 L1.75 -1.3 2.0 -1.55 1.95 -1.5 1.9 -1.4 1.75 -1.3" fill="#8ab75d" fill-rule="evenodd" stroke="none"/>
    <path d="M1.15 -0.85 L1.15 -0.9 1.2 -0.9 Q1.3 -0.95 1.4 -1.0 L1.6 -1.15 1.7 -1.3 1.8 -1.4 1.9 -1.5 1.95 -1.55 Q2.1 -1.65 2.2 -1.6 L2.2 -1.55 2.1 -1.6 Q2.05 -1.6 2.0 -1.55 L1.75 -1.3 1.7 -1.25 1.65 -1.2 1.6 -1.1 1.5 -1.0 1.4 -0.95 1.4 -0.95 1.25 -0.9 Q1.2 -0.9 1.15 -0.85" fill="#bede81" fill-rule="evenodd" stroke="none"/>
    <path d="M1.6 -1.15 L1.6 -1.2 1.65 -1.25 1.75 -1.4 1.85 -1.5 Q2.0 -1.65 2.2 -1.65 L2.2 -1.6 Q2.1 -1.65 1.95 -1.55 L1.9 -1.5 1.8 -1.4 1.7 -1.3 1.6 -1.15" fill="#dcf6ac" fill-rule="evenodd" stroke="none"/>
    <path d="M1.65 -1.2 L1.75 -1.15 1.75 -1.3 1.9 -1.4 1.85 -1.3 1.75 -1.2 1.75 -1.15 1.7 -1.15 1.65 -1.15 1.6 -1.1 1.6 -1.1 1.65 -1.2" fill="#458a3e" fill-rule="evenodd" stroke="none"/>
    <path d="M1.6 -1.1 L1.65 -1.15 1.7 -1.15 1.75 -1.15 1.75 -1.2 1.85 -1.3 1.9 -1.4 2.0 -1.45 1.85 -1.25 1.75 -1.05 1.75 -1.0 1.8 -1.0 1.85 -1.05 1.95 -1.05 Q2.0 -1.0 2.05 -1.0 L2.2 -1.0 2.2 -0.95 2.1 -0.9 2.0 -0.9 1.95 -1.0 1.85 -1.0 1.8 -0.95 1.8 -0.85 1.75 -0.9 1.75 -0.95 1.7 -1.05 1.6 -1.05 Q1.55 -1.05 1.6 -1.0 L1.6 -0.95 1.55 -0.9 1.5 -0.95 1.55 -0.85 Q1.55 -0.8 1.5 -0.8 L1.45 -0.85 1.4 -0.9 1.4 -0.95 1.4 -0.95 1.5 -1.0 1.55 -1.05 1.6 -1.1" fill="#3a4820" fill-rule="evenodd" stroke="none"/>
    <path d="M2.0 -1.45 L2.05 -1.55 2.1 -1.55 2.15 -1.45 2.2 -1.4 2.2 -1.0 2.05 -1.0 Q2.0 -1.0 1.95 -1.05 L1.85 -1.05 1.8 -1.0 1.75 -1.0 1.75 -1.05 1.85 -1.25 2.0 -1.45" fill="#433c1d" fill-rule="evenodd" stroke="none"/>
    <path d="M1.9 -1.4 L1.95 -1.5 2.0 -1.55 2.05 -1.55 2.1 -1.55 2.15 -1.5 2.2 -1.45 2.2 -1.4 2.15 -1.45 2.1 -1.55 2.05 -1.55 2.0 -1.45 1.9 -1.4" fill="#79773a" fill-rule="evenodd" stroke="none"/>
    <path d="M0.6 -0.7 L0.7 -0.7 Q0.75 -0.7 0.75 -0.7 L0.75 -0.65 0.75 -0.6 0.7 -0.6 0.65 -0.65 0.6 -0.7" fill="#409e43" fill-rule="evenodd" stroke="none"/>
    <path d="M0.6 -0.65 L0.6 -0.7 0.65 -0.65 0.7 -0.6 0.75 -0.6 0.75 -0.65 0.8 -0.6 0.85 -0.65 0.85 -0.65 0.9 -0.65 0.9 -0.65 0.85 -0.6 0.8 -0.55 0.9 -0.55 0.9 -0.5 0.85 -0.5 Q0.8 -0.5 0.8 -0.55 L0.75 -0.5 0.7 -0.45 Q0.7 -0.45 0.75 -0.55 L0.75 -0.55 0.7 -0.6 Q0.7 -0.55 0.65 -0.55 L0.55 -0.55 0.55 -0.55 0.55 -0.45 0.5 -0.5 0.45 -0.5 0.45 -0.45 0.3 -0.4 0.3 -0.3 0.4 -0.3 0.45 -0.3 0.45 -0.3 0.4 -0.25 0.35 -0.25 0.3 -0.25 0.25 -0.25 0.2 -0.3 Q0.15 -0.3 0.2 -0.3 L0.2 -0.35 Q0.25 -0.35 0.3 -0.4 L0.3 -0.4 0.25 -0.45 0.3 -0.5 0.35 -0.5 0.35 -0.5 0.3 -0.45 Q0.35 -0.4 0.4 -0.45 0.45 -0.5 0.4 -0.55 L0.45 -0.55 0.55 -0.6 0.6 -0.6 0.6 -0.65 M0.25 -0.45 L0.25 -0.45 M0.7 -0.45 L0.7 -0.45 M0.9 -0.5 L0.9 -0.5 0.9 -0.5" fill="#60fc97" fill-rule="evenodd" stroke="none"/>
    <path d="M0.75 -0.7 L0.8 -0.75 0.85 -0.7 0.9 -0.75 0.9 -0.75 0.95 -0.75 1.0 -0.75 1.0 -0.7 0.95 -0.7 0.95 -0.7 0.95 -0.65 0.9 -0.65 0.85 -0.65 0.85 -0.65 Q0.85 -0.6 0.75 -0.65 L0.75 -0.7" fill="#3b5625" fill-rule="evenodd" stroke="none"/>
    <path d="M0.85 -0.7 Q0.85 -0.75 0.9 -0.75 L0.9 -0.75 0.85 -0.7" fill="#a89a52" fill-rule="evenodd" stroke="none"/>
    <path d="M0.9 -0.65 L0.95 -0.65 0.95 -0.7 0.95 -0.7 1.0 -0.7 1.1 -0.75 1.15 -0.7 1.15 -0.65 1.1 -0.65 Q1.1 -0.7 1.05 -0.7 L1.0 -0.65 0.9 -0.65 0.9 -0.65" fill="#30ba54" fill-rule="evenodd" stroke="none"/>
    <path d="M0.9 -0.65 L1.0 -0.65 0.95 -0.6 0.95 -0.6 0.9 -0.65 M0.95 -0.55 L0.95 -0.6 1.0 -0.55 0.95 -0.55" fill="#5af995" fill-rule="evenodd" stroke="none"/>
    <path d="M1.0 -0.75 L1.05 -0.8 1.2 -0.8 1.15 -0.7 1.1 -0.75 1.0 -0.7 1.0 -0.75 0.95 -0.75 1.0 -0.75" fill="#5cf892" fill-rule="evenodd" stroke="none"/>
    <path d="M0.4 -0.55 Q0.45 -0.5 0.4 -0.45 0.35 -0.4 0.3 -0.45 L0.35 -0.5 0.35 -0.5 0.4 -0.55" fill="#37d05e" fill-rule="evenodd" stroke="none"/>
    <path d="M0.25 -0.45 L0.3 -0.4 0.3 -0.4 Q0.25 -0.35 0.2 -0.35 L0.2 -0.4 0.25 -0.4 Q0.25 -0.35 0.25 -0.4 L0.25 -0.45" fill="#2eba4c" fill-rule="evenodd" stroke="none"/>
    <path d="M0.25 -0.45 L0.25 -0.45 0.25 -0.4 Q0.25 -0.35 0.25 -0.4 L0.2 -0.4 0.2 -0.35 0.2 -0.3 Q0.15 -0.3 0.2 -0.3 L0.25 -0.25 0.2 -0.15 0.2 0.0 0.15 0.0 0.15 0.0 0.2 0.05 0.15 0.05 0.1 0.0 0.05 0.1 0.0 0.15 0.0 0.05 -0.05 0.0 0.05 0.0 Q0.0 -0.05 0.05 -0.1 0.1 -0.1 0.1 -0.15 L0.1 -0.15 0.1 -0.2 0.1 -0.25 0.05 -0.3 0.05 -0.35 0.05 -0.4 0.05 -0.4 0.0 -0.4 0.0 -0.45 0.05 -0.45 0.1 -0.55 0.15 -0.5 0.2 -0.5 0.25 -0.45 M0.05 -0.1 L0.05 -0.1" fill="#395222" fill-rule="evenodd" stroke="none"/>
    <path d="M0.45 -0.3 L0.4 -0.3 0.3 -0.3 0.3 -0.4 0.45 -0.45 0.45 -0.35 0.45 -0.3" fill="#b8ffe8" fill-rule="evenodd" stroke="none"/>
    <path d="M0.45 -0.45 L0.45 -0.5 0.5 -0.5 0.55 -0.45 0.55 -0.55 0.55 -0.55 0.65 -0.55 Q0.7 -0.55 0.7 -0.6 L0.75 -0.55 0.75 -0.55 Q0.7 -0.45 0.7 -0.45 L0.55 -0.4 0.5 -0.4 0.5 -0.4 0.45 -0.35 0.45 -0.45" fill="#7cffc9" fill-rule="evenodd" stroke="none"/>
    <path d="M0.45 -0.35 L0.5 -0.4 0.5 -0.4 0.55 -0.3 Q0.55 -0.3 0.45 -0.3 L0.45 -0.35" fill="#4fed80" fill-rule="evenodd" stroke="none"/>
    <path d="M0.2 -0.5 L0.15 -0.5 0.1 -0.55 0.2 -0.5" fill="#81de6e" fill-rule="evenodd" stroke="none"/>
    <path d="M0.0 -0.4 L0.05 -0.4 0.05 -0.4 0.05 -0.4 0.0 -0.4" fill="#7ffdaa" fill-rule="evenodd" stroke="none"/>
    <path d="M0.05 -0.4 L0.05 -0.35 0.05 -0.4" fill="#64eb98" fill-rule="evenodd" stroke="none"/>
    <path d="M0.2 -0.3 L0.25 -0.25 0.3 -0.25 0.35 -0.2 0.35 -0.15 0.3 -0.15 0.25 -0.15 0.2 -0.15 0.25 -0.25 0.2 -0.3" fill="#3bd864" fill-rule="evenodd" stroke="none"/>
    <path d="M0.1 -0.25 L0.1 -0.2 0.05 -0.25 0.1 -0.25" fill="#97f5bb" fill-rule="evenodd" stroke="none"/>
    <path d="M0.1 -0.2 L0.1 -0.15 0.1 -0.2 M0.05 -0.1 L0.05 -0.1 0.0 -0.1 0.0 -0.15 Q0.0 -0.15 0.05 -0.15 L0.1 -0.15 0.05 -0.1" fill="#97fad2" fill-rule="evenodd" stroke="none"/>
    <path d="M0.1 -0.15 L0.1 -0.15 Q0.1 -0.1 0.05 -0.1 L0.1 -0.15" fill="#3cbc56" fill-rule="evenodd" stroke="none"/>
    <path d="M0.05 -0.1 Q0.0 -0.05 0.05 0.0 L-0.05 0.0 0.0 -0.1 0.05 -0.1" fill="#5de586" fill-rule="evenodd" stroke="none"/>
    <path d="M0.0 0.15 L0.05 0.1 0.1 0.0 0.15 0.05 0.2 0.05 0.15 0.0 0.15 0.0 0.2 0.0 0.2 -0.15 0.25 -0.15 0.3 -0.15 0.3 -0.1 0.3 -0.05 0.35 -0.05 0.3 0.05 0.2 0.05 Q0.2 0.05 0.2 0.1 L0.25 0.1 Q0.3 0.1 0.3 0.1 L0.25 0.2 Q0.2 0.25 0.25 0.25 L0.3 0.3 0.3 0.15 0.3 0.2 0.35 0.2 0.35 0.15 0.3 0.1 0.4 0.1 0.45 0.15 0.4 0.2 0.4 0.25 Q0.4 0.3 0.35 0.3 L0.35 0.45 0.3 0.4 0.3 0.35 0.25 0.35 0.2 0.35 0.2 0.3 0.15 0.3 0.2 0.25 0.2 0.2 0.15 0.2 Q0.1 0.2 0.1 0.25 L0.05 0.25 0.0 0.25 -0.1 0.25 -0.2 0.3 -0.15 0.3 -0.15 0.25 -0.1 0.25 -0.05 0.25 -0.1 0.2 -0.05 0.15 -0.05 0.2 0.0 0.15 M0.2 0.1 L0.15 0.1 0.1 0.1 0.1 0.15 0.15 0.15 0.2 0.1" fill="#2c9738" fill-rule="evenodd" stroke="none"/>
    <path d="M0.3 -0.25 L0.35 -0.25 0.4 -0.25 Q0.4 -0.25 0.45 -0.25 L0.5 -0.2 0.5 -0.2 0.6 -0.2 0.55 -0.3 0.6 -0.35 0.75 -0.4 0.85 -0.45 0.9 -0.5 0.9 -0.5 1.0 -0.4 1.0 -0.35 1.05 -0.3 1.0 -0.2 Q1.0 -0.15 1.05 -0.2 L1.05 -0.1 1.0 -0.05 0.95 0.0 Q0.9 0.05 0.9 0.1 L0.95 0.05 1.0 0.05 1.05 0.05 1.05 0.2 1.0 0.25 1.0 0.35 0.95 0.4 0.9 0.35 0.8 0.3 0.75 0.35 0.65 0.35 0.6 0.3 0.6 0.2 0.55 0.15 0.6 0.1 0.6 0.05 0.65 0.05 0.65 0.0 0.6 -0.05 0.6 0.0 Q0.55 0.0 0.55 0.0 L0.5 -0.05 0.5 0.1 Q0.45 0.15 0.4 0.1 L0.3 0.1 0.3 0.05 0.35 -0.05 0.3 -0.05 0.3 -0.1 0.3 -0.15 0.35 -0.15 0.35 -0.2 0.3 -0.25 M0.4 -0.1 Q0.4 -0.05 0.45 -0.05 L0.45 -0.1 0.4 -0.1" fill="#39461f" fill-rule="evenodd" stroke="none"/>
    <path d="M0.4 -0.25 L0.45 -0.3 0.45 -0.3 Q0.55 -0.3 0.55 -0.3 L0.5 -0.4 0.55 -0.4 0.6 -0.4 0.55 -0.35 0.55 -0.25 Q0.5 -0.2 0.5 -0.2 L0.5 -0.2 0.45 -0.25 Q0.4 -0.25 0.4 -0.25" fill="#2db24b" fill-rule="evenodd" stroke="none"/>
    <path d="M0.4 -0.1 L0.45 -0.1 0.45 -0.05 Q0.4 -0.05 0.4 -0.1" fill="#2fac4c" fill-rule="evenodd" stroke="none"/>
    <path d="M0.9 -0.5 L0.9 -0.55 0.95 -0.55 1.0 -0.55 0.95 -0.6 1.0 -0.6 1.05 -0.65 Q1.1 -0.6 1.1 -0.65 L1.1 -0.55 1.05 -0.55 1.0 -0.5 0.95 -0.5 0.9 -0.5" fill="#30b44f" fill-rule="evenodd" stroke="none"/>
    <path d="M1.0 -0.65 L1.05 -0.7 Q1.1 -0.7 1.1 -0.65 1.1 -0.6 1.05 -0.65 L1.0 -0.6 0.95 -0.6 0.95 -0.6 1.0 -0.65" fill="#297730" fill-rule="evenodd" stroke="none"/>
    <path d="M0.9 -0.55 L0.8 -0.55 0.85 -0.6 0.9 -0.65 0.95 -0.6 0.95 -0.55 0.9 -0.55" fill="#96ffdc" fill-rule="evenodd" stroke="none"/>
    <path d="M0.9 -0.5 L0.9 -0.5 0.95 -0.5 1.0 -0.5 1.05 -0.55 1.1 -0.55 1.1 -0.45 1.05 -0.4 Q1.05 -0.35 1.1 -0.35 L1.1 -0.25 1.05 -0.2 Q1.0 -0.15 1.0 -0.2 L1.05 -0.3 1.0 -0.35 1.0 -0.4 0.9 -0.5" fill="#257a2d" fill-rule="evenodd" stroke="none"/>
    <path d="M0.7 -0.45 L0.75 -0.5 0.8 -0.55 Q0.8 -0.5 0.85 -0.5 L0.9 -0.5 0.85 -0.45 0.8 -0.5 0.75 -0.45 0.7 -0.45" fill="#31c157" fill-rule="evenodd" stroke="none"/>
    <path d="M0.7 -0.45 L0.7 -0.45 0.75 -0.45 0.8 -0.5 0.85 -0.45 0.75 -0.4 0.6 -0.35 0.55 -0.3 0.6 -0.2 0.5 -0.2 Q0.5 -0.2 0.55 -0.25 L0.55 -0.35 0.6 -0.4 0.65 -0.4 0.7 -0.4 0.7 -0.45" fill="#267f30" fill-rule="evenodd" stroke="none"/>
    <path d="M0.55 -0.4 L0.7 -0.45 0.7 -0.4 0.65 -0.4 0.6 -0.4 0.55 -0.4" fill="#4df584" fill-rule="evenodd" stroke="none"/>
    <path d="M0.4 0.1 Q0.45 0.15 0.5 0.1 L0.5 -0.05 0.55 0.0 Q0.55 0.0 0.6 0.0 L0.6 -0.05 0.65 0.0 0.65 0.05 0.6 0.05 0.6 0.1 0.55 0.15 Q0.6 0.1 0.5 0.05 L0.5 0.15 0.5 0.2 0.55 0.25 0.55 0.35 Q0.6 0.4 0.6 0.4 L0.6 0.3 0.65 0.35 0.75 0.35 0.8 0.3 0.9 0.35 0.95 0.4 1.0 0.35 1.05 0.4 1.1 0.55 1.05 0.6 1.0 0.55 Q0.95 0.5 0.95 0.55 L1.0 0.65 0.95 0.7 0.9 0.75 Q0.85 0.7 0.85 0.65 L0.85 0.6 0.8 0.55 Q0.8 0.5 0.75 0.55 L0.75 0.6 0.6 0.55 Q0.5 0.5 0.45 0.5 L0.35 0.45 0.35 0.3 Q0.4 0.3 0.4 0.25 L0.4 0.2 0.45 0.15 0.4 0.1 M0.55 0.5 L0.6 0.45 0.55 0.4 0.55 0.5" fill="#295d23" fill-rule="evenodd" stroke="none"/>
    <path d="M0.75 -0.65 Q0.85 -0.6 0.85 -0.65 L0.8 -0.6 0.75 -0.65" fill="#35d160" fill-rule="evenodd" stroke="none"/>
    <path d="M0.95 0.05 L0.9 0.1 Q0.9 0.05 0.95 0.0 L1.0 -0.05 1.05 -0.1 1.05 -0.2 1.1 -0.25 1.1 -0.35 1.15 -0.4 1.15 -0.45 1.2 -0.45 1.25 -0.5 1.3 -0.55 1.45 -0.7 1.45 -0.7 1.45 -0.85 1.5 -0.8 Q1.55 -0.8 1.55 -0.85 L1.5 -0.95 1.55 -0.9 1.6 -0.95 1.65 -0.9 1.7 -0.85 1.7 -0.95 1.65 -1.05 1.6 -1.05 1.6 -1.0 Q1.55 -1.05 1.6 -1.05 L1.7 -1.05 1.75 -0.95 1.75 -0.9 1.8 -0.85 1.8 -0.95 1.85 -1.0 1.95 -1.0 2.0 -0.9 2.1 -0.9 2.2 -0.95 2.2 -0.85 2.1 -0.85 2.0 -0.85 Q1.95 -0.85 1.95 -0.8 L1.95 -0.75 1.9 -0.7 1.85 -0.7 1.75 -0.8 Q1.7 -0.8 1.7 -0.75 L1.7 -0.7 1.7 -0.65 1.75 -0.6 1.75 -0.55 Q1.7 -0.55 1.7 -0.6 L1.7 -0.6 1.65 -0.65 1.6 -0.65 1.6 -0.65 Q1.6 -0.6 1.55 -0.6 L1.45 -0.6 1.45 -0.55 1.4 -0.45 1.35 -0.4 1.3 -0.3 1.2 -0.3 1.2 -0.2 1.15 -0.15 1.15 -0.15 1.05 -0.1 1.0 0.0 0.95 0.0 Q0.95 0.05 0.95 0.05 M1.1 -0.2 L1.05 -0.2 1.05 -0.15 1.1 -0.2" fill="#2d5121" fill-rule="evenodd" stroke="none"/>
    <path d="M1.6 -1.1 L1.6 -1.1 1.55 -1.05 1.5 -1.0 1.6 -1.1" fill="#8d9347" fill-rule="evenodd" stroke="none"/>
    <path d="M1.6 -1.0 L1.6 -1.05 1.65 -1.05 1.7 -0.95 1.7 -0.85 1.65 -0.9 1.6 -0.95 1.6 -1.0" fill="#268031" fill-rule="evenodd" stroke="none"/>
    <path d="M1.0 0.35 L1.0 0.25 1.05 0.2 1.05 0.05 1.0 0.05 0.95 0.05 Q0.95 0.05 0.95 0.0 L1.0 0.0 1.05 0.0 1.15 0.05 1.1 0.0 1.1 -0.05 1.15 -0.05 1.2 -0.1 1.2 -0.15 1.15 -0.15 1.2 -0.2 1.2 -0.3 1.3 -0.25 1.35 -0.3 1.45 -0.4 1.55 -0.5 1.55 -0.55 1.45 -0.6 1.45 -0.45 1.35 -0.4 1.4 -0.45 1.45 -0.55 1.45 -0.6 1.55 -0.6 Q1.6 -0.6 1.6 -0.65 L1.6 -0.65 1.65 -0.65 1.7 -0.6 1.7 -0.6 Q1.7 -0.55 1.75 -0.55 L1.75 -0.6 1.7 -0.65 1.7 -0.7 1.75 -0.65 1.8 -0.65 1.85 -0.55 1.95 -0.55 Q1.95 -0.55 2.0 -0.5 L1.95 -0.45 Q1.95 -0.4 1.9 -0.45 L1.8 -0.5 1.7 -0.45 1.65 -0.4 1.65 -0.35 1.6 -0.3 Q1.6 -0.25 1.6 -0.2 L1.65 -0.1 Q1.65 0.0 1.65 0.0 L1.7 0.0 1.75 -0.05 1.8 -0.1 1.85 -0.15 1.95 -0.1 1.9 -0.2 1.9 -0.25 1.95 -0.25 2.0 -0.2 2.1 -0.15 Q2.05 -0.25 2.05 -0.35 2.1 -0.45 2.2 -0.5 L2.2 -0.05 2.1 -0.05 2.05 0.0 2.0 0.0 1.95 0.0 1.85 -0.05 1.75 0.0 1.7 0.05 1.65 0.05 1.6 0.05 1.55 0.05 1.55 -0.05 1.5 -0.15 Q1.45 -0.15 1.5 -0.1 L1.5 0.0 1.5 0.1 Q1.55 0.1 1.55 0.05 L1.55 0.15 1.5 0.1 1.5 0.15 1.45 0.1 1.4 0.05 1.4 0.15 1.5 0.2 1.45 0.25 1.4 0.25 1.35 0.15 Q1.35 0.1 1.3 0.15 L1.3 0.1 1.35 0.05 1.35 0.0 1.3 0.05 1.25 0.1 Q1.2 0.1 1.2 0.15 L1.2 0.2 1.15 0.15 1.15 0.2 1.2 0.2 1.2 0.45 1.25 0.45 1.25 0.65 1.25 0.75 Q1.3 0.75 1.35 0.75 L1.4 0.85 1.45 0.9 Q1.4 0.9 1.35 0.9 L1.3 0.95 1.25 0.85 1.2 0.75 1.15 0.8 1.1 0.55 1.15 0.45 1.1 0.3 Q1.1 0.3 1.05 0.35 L1.05 0.4 1.0 0.35 M1.5 -0.4 L1.45 -0.35 1.45 -0.3 1.35 -0.25 1.35 -0.2 Q1.3 -0.2 1.3 -0.2 L1.25 -0.2 1.25 -0.05 Q1.25 0.0 1.35 0.0 L1.35 -0.05 1.4 -0.1 1.4 -0.15 1.5 -0.15 1.5 -0.25 1.55 -0.3 1.55 -0.4 1.5 -0.4 M1.05 0.2 L1.1 0.25 1.05 0.2 Q1.05 0.15 1.05 0.2" fill="#246a26" fill-rule="evenodd" stroke="none"/>
    <path d="M1.7 -0.7 L1.7 -0.75 Q1.75 -0.75 1.75 -0.75 L1.8 -0.7 Q1.85 -0.65 1.9 -0.7 L2.0 -0.75 2.1 -0.65 2.2 -0.55 2.2 -0.5 Q2.1 -0.45 2.05 -0.35 2.05 -0.25 2.1 -0.15 L2.0 -0.2 1.95 -0.25 1.9 -0.25 1.9 -0.2 1.95 -0.1 1.85 -0.15 1.8 -0.1 1.8 -0.15 1.8 -0.2 1.8 -0.3 Q1.75 -0.4 1.8 -0.4 L1.9 -0.3 1.95 -0.25 2.0 -0.25 Q2.0 -0.35 2.05 -0.4 L2.15 -0.55 2.1 -0.6 2.05 -0.55 1.95 -0.4 Q1.9 -0.4 1.85 -0.45 L1.8 -0.5 1.9 -0.45 Q1.95 -0.4 1.95 -0.45 L2.0 -0.5 Q1.95 -0.55 1.95 -0.55 L1.85 -0.55 1.8 -0.65 1.75 -0.65 1.7 -0.7 M1.9 -0.3 L1.9 -0.3" fill="#248b35" fill-rule="evenodd" stroke="none"/>
    <path d="M2.2 -0.55 L2.1 -0.65 2.0 -0.75 1.9 -0.7 Q1.85 -0.65 1.8 -0.7 L1.75 -0.75 Q1.75 -0.75 1.7 -0.75 1.7 -0.8 1.75 -0.8 L1.85 -0.7 1.9 -0.7 1.95 -0.75 1.95 -0.8 Q1.95 -0.85 2.0 -0.85 L2.1 -0.85 2.2 -0.85 2.2 -0.55" fill="#246824" fill-rule="evenodd" stroke="none"/>
    <path d="M1.4 -0.9 L1.4 -0.8 1.3 -0.8 1.25 -0.7 1.25 -0.6 1.2 -0.6 1.15 -0.65 1.15 -0.7 1.2 -0.8 1.2 -0.85 1.25 -0.85 1.3 -0.85 1.3 -0.85 1.35 -0.9 1.4 -0.9" fill="#74feb9" fill-rule="evenodd" stroke="none"/>
    <path d="M1.05 -0.8 L1.05 -0.8 1.1 -0.8 Q1.15 -0.8 1.15 -0.85 1.2 -0.9 1.25 -0.9 L1.4 -0.95 1.4 -0.9 1.45 -0.85 1.45 -0.7 1.45 -0.75 1.4 -0.75 1.4 -0.9 1.35 -0.9 1.3 -0.85 1.3 -0.85 1.25 -0.85 1.2 -0.85 1.2 -0.8 1.05 -0.8" fill="#43ac4c" fill-rule="evenodd" stroke="none"/>
    <path d="M1.1 -0.65 L1.15 -0.65 1.15 -0.7 1.15 -0.65 1.2 -0.6 1.25 -0.6 1.25 -0.7 1.3 -0.8 1.4 -0.8 1.4 -0.9 1.4 -0.75 1.45 -0.75 1.45 -0.7 1.4 -0.7 1.35 -0.7 Q1.3 -0.7 1.25 -0.65 L1.3 -0.55 1.25 -0.5 1.2 -0.5 1.2 -0.45 1.15 -0.45 1.15 -0.4 1.1 -0.35 Q1.05 -0.35 1.05 -0.4 L1.1 -0.45 1.1 -0.55 1.1 -0.65 M1.45 -0.7 L1.45 -0.7" fill="#47ef7c" fill-rule="evenodd" stroke="none"/>
    <path d="M1.3 -0.55 L1.25 -0.65 Q1.3 -0.7 1.35 -0.7 L1.4 -0.7 1.45 -0.7 1.3 -0.55" fill="#2dae4b" fill-rule="evenodd" stroke="none"/>
    <path d="M1.5 -0.4 L1.55 -0.4 1.55 -0.3 1.5 -0.25 1.5 -0.15 1.4 -0.15 1.4 -0.1 1.35 -0.05 1.35 0.0 Q1.25 0.0 1.25 -0.05 L1.25 -0.2 1.3 -0.2 Q1.3 -0.2 1.35 -0.2 L1.35 -0.25 1.45 -0.3 1.45 -0.35 1.5 -0.4" fill="#2a5220" fill-rule="evenodd" stroke="none"/>
    <path d="M1.35 -0.4 L1.45 -0.45 1.45 -0.6 1.55 -0.55 1.55 -0.5 1.45 -0.4 1.35 -0.3 1.3 -0.25 1.2 -0.3 1.3 -0.3 1.35 -0.4" fill="#279e3f" fill-rule="evenodd" stroke="none"/>
    <path d="M1.15 -0.45 L1.2 -0.45 1.2 -0.5 1.25 -0.5 1.2 -0.45 1.15 -0.45" fill="#2daf4d" fill-rule="evenodd" stroke="none"/>
    <path d="M1.1 -0.2 L1.05 -0.15 1.05 -0.2 1.1 -0.2" fill="#2bb147" fill-rule="evenodd" stroke="none"/>
    <path d="M1.15 -0.15 L1.2 -0.15 1.2 -0.1 1.15 -0.05 1.1 -0.05 1.1 0.0 1.15 0.05 1.05 0.0 1.0 0.0 1.05 -0.1 1.15 -0.15 1.15 -0.15" fill="#28a141" fill-rule="evenodd" stroke="none"/>
    <path d="M1.5 0.0 Q1.55 0.05 1.55 0.0 L1.55 -0.05 1.5 -0.05 1.5 0.0 1.5 -0.1 Q1.45 -0.15 1.5 -0.15 L1.55 -0.05 1.55 0.05 Q1.55 0.1 1.5 0.1 L1.5 0.0" fill="#289c3f" fill-rule="evenodd" stroke="none"/>
    <path d="M1.5 0.0 L1.5 -0.05 1.55 -0.05 1.55 0.0 Q1.55 0.05 1.5 0.0" fill="#34d662" fill-rule="evenodd" stroke="none"/>
    <path d="M1.8 -0.5 L1.85 -0.45 Q1.9 -0.4 1.95 -0.4 L2.05 -0.55 2.1 -0.6 2.15 -0.55 2.05 -0.4 Q2.0 -0.35 2.0 -0.25 L1.95 -0.25 1.9 -0.3 1.8 -0.4 Q1.75 -0.4 1.8 -0.3 L1.75 -0.35 1.7 -0.4 1.65 -0.35 Q1.65 -0.35 1.7 -0.3 L1.7 -0.15 1.65 -0.1 1.65 -0.05 1.7 -0.05 1.75 -0.05 1.7 0.0 1.65 0.0 Q1.65 0.0 1.65 -0.1 L1.6 -0.2 Q1.6 -0.25 1.6 -0.3 L1.65 -0.35 1.65 -0.4 1.7 -0.45 1.8 -0.5 M1.9 -0.3 L1.95 -0.25 2.0 -0.3 1.95 -0.35 1.9 -0.4 1.9 -0.3" fill="#27a141" fill-rule="evenodd" stroke="none"/>
    <path d="M1.9 -0.3 L1.9 -0.3 1.9 -0.4 1.95 -0.35 2.0 -0.3 1.95 -0.25 1.9 -0.3" fill="#2dc753" fill-rule="evenodd" stroke="none"/>
    <path d="M1.8 -0.3 L1.8 -0.2 1.8 -0.15 1.8 -0.1 1.75 -0.05 1.7 -0.05 1.65 -0.05 1.65 -0.1 1.7 -0.15 1.7 -0.3 Q1.65 -0.35 1.65 -0.35 L1.7 -0.4 1.75 -0.35 1.8 -0.3" fill="#34d962" fill-rule="evenodd" stroke="none"/>
    <path d="M1.55 0.05 L1.6 0.05 1.65 0.05 1.7 0.05 1.75 0.0 1.85 -0.05 1.95 0.0 2.0 0.0 2.05 0.0 2.1 -0.05 2.2 -0.05 2.2 0.05 2.1 0.1 2.0 0.1 1.95 0.1 1.95 0.2 1.85 0.1 Q1.8 0.05 1.75 0.1 L1.7 0.1 1.7 0.15 1.65 0.1 1.6 0.05 1.6 0.2 Q1.6 0.25 1.65 0.25 L1.75 0.2 Q1.8 0.25 1.85 0.25 L1.9 0.35 1.9 0.45 Q1.75 0.4 1.6 0.3 L1.55 0.2 1.5 0.15 1.5 0.1 1.55 0.15 1.55 0.05" fill="#294f20" fill-rule="evenodd" stroke="none"/>
    <path d="M2.2 -1.45 L2.15 -1.5 2.1 -1.55 2.05 -1.55 2.0 -1.55 Q2.05 -1.6 2.1 -1.6 L2.2 -1.55 2.2 -1.45" fill="#adad57" fill-rule="evenodd" stroke="none"/>
    <path d="M1.5 0.15 L1.55 0.2 1.6 0.3 Q1.75 0.4 1.9 0.45 L1.9 0.35 1.85 0.25 Q1.8 0.25 1.75 0.2 L1.65 0.25 Q1.6 0.25 1.6 0.2 L1.6 0.05 1.65 0.1 1.7 0.15 1.7 0.1 1.75 0.1 Q1.8 0.05 1.85 0.1 L1.95 0.2 1.95 0.1 2.0 0.1 2.1 0.1 2.2 0.05 2.2 0.45 2.1 0.55 Q2.0 0.55 2.0 0.6 L1.9 0.65 1.8 0.7 1.7 0.75 1.6 0.8 Q1.5 0.85 1.5 0.9 L1.45 0.9 1.4 0.85 1.35 0.75 Q1.3 0.75 1.25 0.75 L1.25 0.65 1.25 0.45 1.25 0.3 1.3 0.3 Q1.3 0.35 1.3 0.45 L1.3 0.55 Q1.4 0.55 1.4 0.45 L1.35 0.3 1.4 0.25 1.45 0.25 1.5 0.2 1.5 0.15" fill="#334720" fill-rule="evenodd" stroke="none"/>
    <path d="M2.2 0.55 L2.2 0.6 Q2.1 0.6 2.0 0.7 L1.8 0.75 1.75 0.8 1.65 0.85 Q1.6 0.85 1.55 0.9 L1.4 0.95 Q1.4 0.9 1.45 0.9 L1.5 0.9 1.65 0.8 1.85 0.75 2.0 0.65 Q2.1 0.55 2.2 0.55" fill="#c8f4a1" fill-rule="evenodd" stroke="none"/>
    <path d="M1.9 0.65 L2.0 0.6 Q2.0 0.6 2.1 0.55 L2.2 0.5 2.2 0.55 Q2.1 0.55 2.0 0.65 L1.85 0.75 1.9 0.65" fill="#92c267" fill-rule="evenodd" stroke="none"/>
    <path d="M2.0 0.6 Q2.0 0.55 2.1 0.55 L2.2 0.45 2.2 0.5 2.1 0.55 Q2.0 0.6 2.0 0.6" fill="#608441" fill-rule="evenodd" stroke="none"/>
    <path d="M2.2 1.45 L2.2 1.55 1.95 1.55 1.7 1.55 1.55 1.55 1.4 1.45 1.25 1.45 1.05 1.45 1.0 1.35 0.9 1.3 Q0.9 1.2 0.8 1.25 L0.8 1.2 0.85 1.2 0.85 1.1 0.85 1.15 1.0 1.1 1.15 1.05 1.3 1.05 1.4 0.95 1.35 1.0 1.3 1.05 Q1.4 1.1 1.35 1.2 L1.35 1.25 1.3 1.35 1.75 1.5 1.95 1.5 2.2 1.45" fill="#eaffd3" fill-rule="evenodd" stroke="none"/>
    <path d="M2.2 1.6 L2.2 1.65 2.1 1.65 2.0 1.65 1.8 1.65 1.6 1.65 1.65 1.6 1.8 1.6 2.0 1.6 2.2 1.6" fill="#ecf8a0" fill-rule="evenodd" stroke="none"/>
    <path d="M2.2 1.65 L2.2 1.7 1.95 1.7 Q1.85 1.65 1.7 1.75 L1.6 1.7 1.6 1.65 1.8 1.65 2.0 1.65 2.1 1.65 2.2 1.65" fill="#e9e485" fill-rule="evenodd" stroke="none"/>
    <path d="M2.2 1.7 L2.2 1.75 2.1 1.8 2.0 1.75 Q1.95 1.7 1.9 1.75 1.8 1.75 1.75 1.8 L1.7 1.8 1.7 1.75 Q1.85 1.65 1.95 1.7 L2.2 1.7" fill="#e2c474" fill-rule="evenodd" stroke="none"/>
    <path d="M2.2 1.75 L2.2 1.9 2.05 1.9 1.95 1.85 Q1.9 1.8 1.85 1.8 L1.8 1.85 1.75 1.8 Q1.8 1.75 1.9 1.75 1.95 1.7 2.0 1.75 L2.1 1.8 2.2 1.75" fill="#d8a466" fill-rule="evenodd" stroke="none"/>
    <path d="M2.2 1.55 L2.2 1.6 2.0 1.6 1.8 1.6 1.65 1.6 1.5 1.6 1.4 1.5 1.25 1.5 1.1 1.5 Q1.05 1.5 1.0 1.45 L0.9 1.3 1.0 1.35 1.05 1.45 1.25 1.45 1.4 1.45 1.55 1.55 1.7 1.55 1.95 1.55 2.2 1.55" fill="#e1ffbc" fill-rule="evenodd" stroke="none"/>
    <path d="M2.2 1.9 L2.2 1.95 1.9 1.9 Q1.9 1.95 1.95 1.95 L1.95 2.0 2.0 2.05 2.0 2.1 1.95 2.2 1.9 2.2 1.85 2.0 1.8 1.85 1.85 1.8 Q1.9 1.8 1.95 1.85 L2.05 1.9 2.2 1.9" fill="#c08f53" fill-rule="evenodd" stroke="none"/>
    <path d="M2.2 1.95 L2.2 2.2 1.95 2.2 2.0 2.1 2.0 2.05 1.95 2.0 1.95 1.95 Q1.9 1.95 1.9 1.9 L2.2 1.95" fill="#ba7748" fill-rule="evenodd" stroke="none"/>
    <path d="M2.2 0.65 L2.2 1.4 1.85 1.35 1.65 1.4 Q1.5 1.4 1.5 1.3 1.5 1.25 1.55 1.25 L1.65 1.25 1.75 1.2 1.8 1.05 Q1.8 0.95 1.7 0.95 L1.55 1.0 1.5 1.0 1.45 1.0 1.65 0.9 Q1.75 0.8 1.8 0.8 L2.0 0.7 2.2 0.65" fill="#f9fff3" fill-rule="evenodd" stroke="none"/>
    <path d="M1.5 0.15 L1.5 0.2 1.4 0.15 1.4 0.05 1.45 0.1 1.5 0.15" fill="#29a846" fill-rule="evenodd" stroke="none"/>
    <path d="M1.35 0.3 L1.4 0.45 Q1.4 0.55 1.3 0.55 L1.3 0.45 Q1.3 0.35 1.3 0.3 L1.25 0.3 1.2 0.2 1.2 0.15 Q1.2 0.1 1.25 0.1 L1.3 0.05 1.3 0.1 1.3 0.15 1.3 0.35 1.35 0.35 1.35 0.3" fill="#275922" fill-rule="evenodd" stroke="none"/>
    <path d="M1.3 0.05 L1.35 0.0 1.35 0.05 1.3 0.1 1.3 0.05" fill="#3ad464" fill-rule="evenodd" stroke="none"/>
    <path d="M1.4 0.25 L1.35 0.3 1.35 0.35 1.3 0.35 1.3 0.15 Q1.35 0.1 1.35 0.15 L1.4 0.25" fill="#35d35f" fill-rule="evenodd" stroke="none"/>
    <path d="M1.05 0.2 Q1.05 0.15 1.05 0.2 L1.1 0.25 1.05 0.2" fill="#2aae48" fill-rule="evenodd" stroke="none"/>
    <path d="M1.2 0.2 L1.15 0.2 1.15 0.15 1.2 0.2" fill="#28aa44" fill-rule="evenodd" stroke="none"/>
    <path d="M1.25 0.3 L1.25 0.45 1.2 0.45 1.2 0.2 1.25 0.3" fill="#2aa647" fill-rule="evenodd" stroke="none"/>
    <path d="M1.05 0.4 L1.05 0.35 Q1.1 0.3 1.1 0.3 L1.15 0.45 1.1 0.55 1.05 0.4 M1.1 0.55 L1.1 0.55" fill="#2fc757" fill-rule="evenodd" stroke="none"/>
    <path d="M1.45 0.9 L1.5 0.9 1.4 0.9 1.3 1.0 1.25 0.95 1.2 0.95 1.2 1.0 1.1 1.0 1.1 0.95 1.05 0.85 1.05 1.0 1.0 1.1 0.95 1.15 0.85 1.15 0.85 1.1 0.85 0.95 0.8 0.9 0.75 0.85 Q0.7 0.8 0.7 0.75 L0.65 0.7 0.6 0.65 0.5 0.6 0.45 0.55 Q0.4 0.55 0.35 0.45 L0.45 0.5 Q0.5 0.5 0.6 0.55 L0.75 0.6 0.75 0.8 0.8 0.55 0.85 0.6 0.85 0.65 Q0.85 0.7 0.9 0.75 L0.95 0.7 Q1.0 0.75 1.0 0.7 L1.05 0.6 1.1 0.55 1.1 0.55 1.15 0.8 1.2 0.75 1.25 0.85 1.3 0.95 1.35 0.9 Q1.4 0.9 1.45 0.9" fill="#249137" fill-rule="evenodd" stroke="none"/>
    <path d="M1.5 0.9 Q1.5 0.85 1.6 0.8 L1.7 0.75 1.8 0.75 1.85 0.75 1.65 0.8 1.5 0.9" fill="#85be60" fill-rule="evenodd" stroke="none"/>
    <path d="M0.85 1.15 L0.95 1.15 1.0 1.1 1.1 1.05 1.15 1.05 1.25 1.0 1.3 1.0 1.4 0.9 1.5 0.9 1.45 0.9 Q1.4 0.9 1.4 0.95 L1.3 1.05 1.15 1.05 1.0 1.1 0.85 1.15" fill="#80f374" fill-rule="evenodd" stroke="none"/>
    <path d="M1.0 1.1 L1.05 1.0 1.05 0.85 1.1 0.95 1.1 1.0 1.2 1.0 1.2 0.95 1.25 0.95 1.3 1.0 1.25 1.0 1.15 1.05 1.1 1.05 1.0 1.1" fill="#2cc04e" fill-rule="evenodd" stroke="none"/>
    <path d="M1.7 0.75 L1.8 0.7 1.9 0.65 1.85 0.75 1.8 0.75 1.7 0.75" fill="#658842" fill-rule="evenodd" stroke="none"/>
    <path d="M1.05 0.6 L1.0 0.7 Q1.0 0.75 0.95 0.7 L1.0 0.65 1.0 0.55 1.05 0.6" fill="#3dee6f" fill-rule="evenodd" stroke="none"/>
    <path d="M0.5 0.15 L0.5 0.1 0.55 0.15 0.5 0.2 0.5 0.15" fill="#61fc9b" fill-rule="evenodd" stroke="none"/>
    <path d="M0.5 0.15 L0.5 0.05 Q0.6 0.1 0.55 0.15 L0.5 0.1 0.5 0.15" fill="#2ba341" fill-rule="evenodd" stroke="none"/>
    <path d="M0.55 0.15 L0.6 0.2 0.6 0.3 0.6 0.4 Q0.6 0.4 0.55 0.35 L0.55 0.25 0.5 0.2 0.55 0.15" fill="#35c658" fill-rule="evenodd" stroke="none"/>
    <path d="M0.55 0.5 L0.55 0.4 0.6 0.45 0.55 0.5" fill="#31b34a" fill-rule="evenodd" stroke="none"/>
    <path d="M1.0 0.55 L1.0 0.65 0.95 0.55 Q0.95 0.5 1.0 0.55" fill="#2aac47" fill-rule="evenodd" stroke="none"/>
    <path d="M0.8 0.55 L0.75 0.8 0.75 0.6 0.75 0.55 Q0.8 0.5 0.8 0.55" fill="#34e662" fill-rule="evenodd" stroke="none"/>
    <path d="M0.3 0.05 L0.3 0.1 0.35 0.15 0.35 0.2 0.3 0.2 0.3 0.15 0.3 0.3 0.25 0.25 Q0.2 0.25 0.25 0.2 L0.3 0.1 Q0.3 0.1 0.25 0.1 L0.2 0.1 Q0.2 0.05 0.2 0.05 L0.3 0.05" fill="#34ce57" fill-rule="evenodd" stroke="none"/>
    <path d="M0.2 0.1 L0.15 0.15 0.1 0.15 0.1 0.1 0.15 0.1 0.2 0.1" fill="#35ce57" fill-rule="evenodd" stroke="none"/>
    <path d="M0.15 0.3 L0.1 0.3 0.05 0.25 0.1 0.25 Q0.1 0.2 0.15 0.2 L0.2 0.2 0.2 0.25 0.15 0.3" fill="#3de05e" fill-rule="evenodd" stroke="none"/>
    <path d="M-0.3 0.3 L-0.25 0.35 -0.2 0.35 -0.05 0.3 0.05 0.25 0.1 0.3 0.15 0.3 0.2 0.3 0.2 0.35 0.15 0.4 0.1 0.5 0.15 0.5 0.15 0.55 0.1 0.55 0.1 0.6 0.15 0.6 0.25 0.65 0.2 0.8 0.1 0.95 0.1 0.9 0.05 0.85 0.05 0.75 0.05 0.7 Q0.1 0.6 0.0 0.65 0.05 0.7 0.0 0.7 L-0.1 0.7 -0.1 0.75 -0.05 0.75 -0.05 0.8 -0.1 0.85 -0.1 0.95 -0.2 1.05 -0.2 1.15 -0.15 1.2 -0.1 1.25 -0.1 1.25 -0.1 1.3 -0.1 1.35 -0.15 1.4 -0.15 1.5 -0.2 1.65 -0.3 1.65 -0.35 1.6 -0.45 1.55 -0.5 1.45 Q-0.5 1.45 -0.55 1.45 L-0.6 1.5 -0.6 1.45 -0.55 1.4 -0.45 1.4 -0.4 1.4 Q-0.35 1.45 -0.35 1.5 L-0.3 1.6 Q-0.25 1.65 -0.25 1.6 L-0.15 1.45 -0.15 1.25 -0.2 1.25 -0.25 1.2 -0.25 1.1 Q-0.25 1.05 -0.25 1.05 L-0.3 1.05 -0.4 1.0 -0.45 1.0 -0.55 1.0 -0.5 0.95 -0.4 0.9 -0.4 0.7 -0.35 0.55 -0.4 0.45 -0.35 0.45 -0.3 0.45 -0.3 0.4 -0.35 0.35 -0.35 0.35 -0.4 0.3 -0.3 0.3 M-0.4 0.45 L-0.4 0.45" fill="#4cfb6d" fill-rule="evenodd" stroke="none"/>
    <path d="M0.1 0.95 L0.2 0.8 0.25 0.65 0.15 0.6 0.1 0.6 0.1 0.55 0.15 0.55 0.15 0.5 0.1 0.5 0.15 0.4 0.2 0.35 0.25 0.35 0.3 0.35 0.3 0.4 0.35 0.45 0.35 0.5 0.3 0.55 0.4 0.55 0.45 0.55 0.45 0.65 0.5 0.7 0.55 0.8 0.65 0.85 0.65 0.9 0.6 0.9 0.5 0.9 Q0.45 0.9 0.5 0.95 L0.55 1.05 0.5 1.1 0.4 1.1 0.35 1.05 Q0.3 1.05 0.3 1.05 L0.15 1.05 0.1 0.95" fill="#38f55f" fill-rule="evenodd" stroke="none"/>
    <path d="M0.35 0.45 Q0.4 0.55 0.45 0.55 L0.5 0.6 0.6 0.65 0.65 0.7 0.7 0.75 Q0.7 0.8 0.75 0.85 L0.8 0.9 0.85 0.95 0.85 1.1 0.75 1.0 0.75 0.95 0.7 0.9 0.65 0.85 0.55 0.8 0.5 0.7 0.45 0.65 0.45 0.55 0.4 0.55 0.3 0.55 0.35 0.5 0.35 0.45" fill="#28b947" fill-rule="evenodd" stroke="none"/>
    <path d="M0.1 0.9 L0.1 0.95 0.15 1.05 0.3 1.05 Q0.3 1.05 0.35 1.05 L0.4 1.1 0.5 1.1 0.55 1.05 0.55 1.0 0.6 1.0 0.65 1.0 0.7 1.0 0.75 1.0 0.85 1.1 0.85 1.2 0.8 1.2 0.65 1.2 0.5 1.2 0.45 1.2 0.4 1.2 0.3 1.25 0.25 1.3 0.2 1.35 Q0.15 1.35 0.2 1.4 L0.2 1.55 0.0 1.5 Q-0.1 1.4 -0.1 1.3 L-0.05 1.2 0.0 1.25 0.05 1.3 0.05 1.15 0.1 1.2 0.05 1.1 0.05 1.05 0.05 0.9 0.1 0.9 M-0.05 1.2 L-0.05 1.2" fill="#f5fef4" fill-rule="evenodd" stroke="none"/>
    <path d="M0.05 0.75 L0.05 0.85 0.1 0.9 0.05 0.9 0.0 1.0 0.05 1.05 0.05 1.1 0.1 1.2 0.05 1.15 0.0 1.15 0.0 1.1 -0.05 1.15 -0.05 1.2 -0.05 1.2 -0.1 1.2 -0.15 1.15 -0.1 1.05 -0.05 0.95 0.0 0.9 0.0 0.8 0.05 0.75" fill="#70ffa4" fill-rule="evenodd" stroke="none"/>
    <path d="M-0.1 1.25 L-0.1 1.25 -0.15 1.2 -0.2 1.15 -0.2 1.05 -0.1 0.95 -0.1 0.85 -0.05 0.8 -0.05 0.75 -0.1 0.75 -0.1 0.7 0.0 0.7 Q0.05 0.7 0.0 0.65 0.1 0.6 0.05 0.7 L0.05 0.75 0.0 0.8 0.0 0.9 -0.05 0.95 -0.1 1.05 -0.15 1.15 -0.1 1.2 -0.05 1.2 -0.1 1.25" fill="#5bff85" fill-rule="evenodd" stroke="none"/>
    <path d="M-0.05 1.2 L-0.05 1.15 0.0 1.1 0.0 1.15 0.05 1.15 0.05 1.3 0.0 1.25 -0.05 1.2" fill="#d0fcf6" fill-rule="evenodd" stroke="none"/>
    <path d="M0.05 1.05 L0.0 1.0 0.05 0.9 0.05 1.05" fill="#a9ffc3" fill-rule="evenodd" stroke="none"/>
    <path d="M0.3 1.25 L0.4 1.2 0.45 1.2 0.45 1.3 Q0.4 1.4 0.4 1.4 0.35 1.4 0.4 1.35 L0.45 1.25 Q0.4 1.25 0.35 1.3 L0.3 1.35 0.3 1.25" fill="#83ffab" fill-rule="evenodd" stroke="none"/>
    <path d="M0.4 1.4 Q0.4 1.4 0.45 1.3 L0.45 1.2 0.5 1.2 Q0.45 1.25 0.5 1.3 L0.6 1.35 0.6 1.4 0.55 1.45 0.5 1.55 Q0.5 1.65 0.55 1.65 L0.6 1.6 0.65 1.6 0.7 1.6 0.75 1.55 0.8 1.55 0.85 1.55 Q0.9 1.55 0.9 1.5 L0.95 1.45 1.0 1.5 0.95 1.55 0.85 1.6 0.8 1.6 0.75 1.6 0.7 1.6 0.7 1.7 0.65 1.65 Q0.6 1.65 0.6 1.7 L0.55 1.75 0.6 1.8 0.55 1.8 0.45 1.75 0.5 1.7 0.45 1.6 Q0.35 1.6 0.3 1.6 0.25 1.6 0.3 1.55 L0.35 1.5 0.4 1.45 Q0.45 1.45 0.4 1.4" fill="#a3ffc6" fill-rule="evenodd" stroke="none"/>
    <path d="M0.65 0.85 L0.7 0.9 0.75 0.95 0.75 1.0 0.7 1.0 0.65 1.0 0.6 1.0 0.55 0.95 0.5 0.9 0.6 0.9 0.65 0.9 0.65 0.85" fill="#31da56" fill-rule="evenodd" stroke="none"/>
    <path d="M0.55 1.05 L0.5 0.95 Q0.45 0.9 0.5 0.9 L0.55 0.95 0.6 1.0 0.55 1.0 0.55 1.05" fill="#cffdb9" fill-rule="evenodd" stroke="none"/>
    <path d="M0.5 1.2 L0.65 1.2 0.8 1.2 0.8 1.25 0.85 1.3 0.9 1.4 Q0.9 1.45 0.85 1.5 L0.8 1.5 Q0.75 1.45 0.75 1.4 L0.7 1.35 0.6 1.35 0.5 1.3 Q0.45 1.25 0.5 1.2" fill="#c4fdf6" fill-rule="evenodd" stroke="none"/>
    <path d="M0.9 1.3 L0.9 1.4 0.95 1.45 0.9 1.5 Q0.9 1.55 0.85 1.55 L0.8 1.55 0.75 1.55 0.7 1.6 0.65 1.6 0.6 1.6 0.55 1.65 Q0.5 1.65 0.5 1.55 L0.55 1.45 0.6 1.4 0.6 1.35 0.7 1.35 0.75 1.4 Q0.75 1.45 0.8 1.5 L0.85 1.5 Q0.9 1.45 0.9 1.4 L0.85 1.3 0.8 1.25 Q0.9 1.2 0.9 1.3" fill="#b3ffd8" fill-rule="evenodd" stroke="none"/>
    <path d="M0.9 1.3 L1.0 1.45 Q1.05 1.5 1.1 1.5 L1.25 1.5 1.4 1.5 1.5 1.6 1.65 1.6 1.6 1.65 1.4 1.55 1.25 1.55 1.1 1.55 1.0 1.5 0.95 1.45 0.9 1.4 0.9 1.3" fill="#c9fca4" fill-rule="evenodd" stroke="none"/>
    <path d="M0.7 1.6 L0.75 1.6 Q0.7 1.7 0.75 1.75 L0.85 1.9 1.0 1.9 1.2 1.9 1.3 1.95 1.4 1.95 1.45 2.0 1.5 1.95 1.55 1.9 1.65 1.85 1.65 1.9 1.6 1.9 1.55 2.0 1.45 2.0 1.1 1.9 1.0 1.95 0.9 2.0 0.95 2.1 0.9 2.2 Q0.9 2.1 0.8 2.0 L0.75 1.95 0.55 1.85 0.45 1.85 0.4 1.9 0.3 1.9 Q0.25 1.85 0.1 1.8 L-0.1 1.8 0.1 1.8 Q0.25 1.8 0.3 1.85 L0.4 1.85 0.45 1.8 0.6 1.85 Q0.7 1.9 0.75 1.9 L0.75 1.8 0.7 1.7 0.7 1.6 M1.2 1.7 L1.1 1.75 0.85 1.65 0.75 1.6 0.85 1.6 0.9 1.65 1.05 1.65 Q1.1 1.7 1.1 1.6 L1.15 1.65 1.2 1.7" fill="#63fc90" fill-rule="evenodd" stroke="none"/>
    <path d="M0.0 2.2 L-0.1 2.2 -0.1 2.1 -0.2 2.1 -0.3 2.1 -0.5 2.1 -0.35 2.1 -0.2 2.1 Q-0.15 2.05 -0.2 2.0 L-0.3 1.95 -0.3 1.9 -0.2 2.0 -0.1 2.05 -0.1 1.95 -0.15 1.9 -0.2 1.9 -0.15 1.85 -0.15 1.8 0.25 1.8 0.3 1.8 0.3 1.75 0.3 1.7 0.3 1.65 Q0.25 1.6 0.25 1.6 L0.2 1.6 0.15 1.65 0.2 1.65 0.25 1.7 0.15 1.65 Q0.05 1.65 0.0 1.65 L-0.05 1.6 Q-0.1 1.6 -0.1 1.65 L-0.15 1.7 -0.25 1.75 -0.3 1.8 -0.4 1.85 -0.45 1.85 -0.45 1.9 -0.4 1.9 -0.35 1.9 -0.45 1.9 -0.5 1.9 -0.4 1.8 -0.35 1.8 -0.3 1.8 -0.3 1.75 -0.2 1.7 Q-0.15 1.7 -0.15 1.6 L-0.15 1.4 -0.1 1.35 -0.1 1.35 -0.05 1.45 0.05 1.55 0.15 1.6 Q0.25 1.6 0.25 1.5 L0.2 1.35 0.25 1.3 0.25 1.5 0.3 1.5 0.35 1.5 Q0.4 1.45 0.4 1.4 0.45 1.45 0.4 1.45 L0.35 1.5 0.3 1.55 Q0.25 1.6 0.3 1.6 0.35 1.6 0.45 1.6 L0.5 1.7 0.45 1.75 0.55 1.8 0.6 1.8 0.65 1.85 0.7 1.85 0.7 1.7 0.7 1.6 0.7 1.7 0.75 1.8 0.75 1.9 Q0.7 1.9 0.6 1.85 L0.45 1.8 0.4 1.85 0.3 1.85 Q0.25 1.8 0.1 1.8 L-0.1 1.8 -0.15 1.85 -0.15 1.9 -0.05 1.95 Q0.0 2.0 -0.05 2.05 L-0.05 2.1 0.0 2.2" fill="#8affb1" fill-rule="evenodd" stroke="none"/>
    <path d="M0.7 1.7 L0.7 1.85 0.65 1.85 0.6 1.8 0.55 1.75 0.6 1.7 Q0.6 1.65 0.65 1.65 L0.7 1.7" fill="#b2ffd9" fill-rule="evenodd" stroke="none"/>
    <path d="M1.2 1.9 L1.0 1.9 0.85 1.9 0.75 1.75 Q0.7 1.7 0.75 1.6 L0.85 1.65 1.1 1.75 1.2 1.7 1.25 1.7 1.25 1.75 1.2 1.8 Q1.15 1.75 1.15 1.8 1.15 1.9 1.2 1.9 M0.9 1.8 L0.85 1.8 0.8 1.85 0.85 1.9 0.95 1.9 1.0 1.85 0.9 1.8" fill="#42f66f" fill-rule="evenodd" stroke="none"/>
    <path d="M1.0 1.5 L1.1 1.55 1.1 1.6 Q1.1 1.7 1.05 1.65 L0.9 1.65 0.85 1.6 0.75 1.6 0.8 1.6 0.85 1.6 0.95 1.55 1.0 1.5" fill="#81ffae" fill-rule="evenodd" stroke="none"/>
    <path d="M0.9 1.8 L1.0 1.85 0.95 1.9 0.85 1.9 0.8 1.85 0.85 1.8 0.9 1.8" fill="#33dc5b" fill-rule="evenodd" stroke="none"/>
    <path d="M0.3 1.25 L0.3 1.35 0.35 1.3 Q0.4 1.25 0.45 1.25 L0.4 1.35 Q0.35 1.4 0.4 1.4 0.4 1.45 0.35 1.5 L0.3 1.5 0.25 1.5 0.25 1.3 0.3 1.25" fill="#59fe7c" fill-rule="evenodd" stroke="none"/>
    <path d="M-0.1 1.35 L-0.1 1.3 Q-0.1 1.4 0.0 1.5 L0.2 1.55 0.2 1.4 Q0.15 1.35 0.2 1.35 L0.25 1.5 Q0.25 1.6 0.15 1.6 L0.05 1.55 -0.05 1.45 -0.1 1.35 -0.1 1.35" fill="#ccffdb" fill-rule="evenodd" stroke="none"/>
    <path d="M0.25 1.7 L0.2 1.65 0.15 1.65 0.2 1.6 0.25 1.6 Q0.25 1.6 0.3 1.65 L0.3 1.7 0.25 1.7" fill="#6eff93" fill-rule="evenodd" stroke="none"/>
    <path d="M-0.25 1.75 L-0.15 1.7 -0.1 1.65 Q-0.1 1.6 -0.05 1.6 L0.0 1.65 Q0.05 1.65 0.15 1.65 L0.25 1.7 0.3 1.7 0.3 1.75 Q0.2 1.7 0.1 1.7 L-0.1 1.7 -0.2 1.75 -0.25 1.75" fill="#abffb9" fill-rule="evenodd" stroke="none"/>
    <path d="M0.3 1.75 L0.3 1.8 0.25 1.8 -0.15 1.8 -0.15 1.85 -0.25 1.85 -0.4 1.9 -0.4 1.85 -0.3 1.8 -0.25 1.75 -0.2 1.75 -0.1 1.7 0.1 1.7 Q0.2 1.7 0.3 1.75" fill="#ceffe0" fill-rule="evenodd" stroke="none"/>
    <path d="M0.35 2.2 L0.3 2.2 0.25 2.05 Q0.15 2.05 0.1 2.05 0.05 2.05 0.05 2.1 L0.1 2.2 0.0 2.2 0.0 2.0 -0.05 1.95 -0.15 1.9 -0.1 1.85 -0.1 1.8 0.1 1.8 Q0.25 1.85 0.3 1.9 L0.4 1.9 0.45 1.85 0.55 1.85 0.75 1.95 0.8 2.0 Q0.9 2.1 0.9 2.2 0.9 2.1 0.8 2.05 L0.6 2.0 0.45 2.1 0.3 2.1 Q0.35 2.15 0.4 2.15 L0.55 2.1 0.6 2.05 0.7 2.05 0.65 2.15 0.65 2.1 0.55 2.1 0.45 2.15 0.35 2.2 M0.4 2.0 Q0.35 2.0 0.35 2.0 0.3 2.05 0.35 2.1 L0.45 2.1 0.5 2.05 0.5 2.0 0.4 2.0" fill="#4bf770" fill-rule="evenodd" stroke="none"/>
    <path d="M0.4 2.0 L0.5 2.0 0.5 2.05 0.45 2.1 0.35 2.1 Q0.3 2.05 0.35 2.0 0.35 2.0 0.4 2.0" fill="#5bfc8a" fill-rule="evenodd" stroke="none"/>
    <path d="M0.9 2.2 L0.65 2.2 0.65 2.15 0.7 2.05 0.6 2.05 0.55 2.1 0.4 2.15 Q0.35 2.15 0.3 2.1 L0.45 2.1 0.6 2.0 0.8 2.05 Q0.9 2.1 0.9 2.2" fill="#39d55e" fill-rule="evenodd" stroke="none"/>
    <path d="M0.3 2.2 L0.1 2.2 0.05 2.1 Q0.05 2.05 0.1 2.05 0.15 2.05 0.25 2.05 L0.3 2.2" fill="#2c973b" fill-rule="evenodd" stroke="none"/>
    <path d="M0.0 2.2 L0.0 2.2 -0.05 2.1 -0.05 2.05 Q0.0 2.0 -0.05 1.95 L-0.15 1.9 -0.15 1.85 -0.1 1.8 -0.1 1.85 -0.15 1.9 -0.05 1.95 0.0 2.0 0.0 2.2" fill="#69fd99" fill-rule="evenodd" stroke="none"/>
    <path d="M0.65 2.2 L0.35 2.2 0.45 2.15 0.55 2.1 0.65 2.1 0.65 2.15 0.65 2.2" fill="#2f9639" fill-rule="evenodd" stroke="none"/>
    <path d="M1.0 2.2 L0.9 2.2 0.95 2.1 0.9 2.0 1.0 1.95 1.1 1.9 1.45 2.0 1.55 2.0 1.6 1.9 1.6 1.95 1.5 2.05 1.4 2.05 1.25 2.0 1.15 2.0 1.1 2.05 1.05 2.1 Q0.95 2.1 1.0 2.2" fill="#7dfeb3" fill-rule="evenodd" stroke="none"/>
    <path d="M1.6 1.65 L1.6 1.7 1.7 1.75 1.4 1.65 1.25 1.65 1.15 1.6 1.1 1.6 1.1 1.55 1.25 1.55 1.4 1.55 1.6 1.65" fill="#baee85" fill-rule="evenodd" stroke="none"/>
    <path d="M1.85 2.2 L1.8 2.2 1.8 2.05 1.7 1.9 1.7 1.85 1.65 1.8 1.3 1.7 1.25 1.65 1.4 1.65 1.7 1.75 1.7 1.8 1.75 1.9 1.8 2.0 1.85 2.2" fill="#a3d670" fill-rule="evenodd" stroke="none"/>
    <path d="M1.9 2.2 L1.85 2.2 1.8 2.0 1.75 1.9 1.7 1.8 1.75 1.8 1.8 1.85 1.85 2.0 1.9 2.2" fill="#bbb85f" fill-rule="evenodd" stroke="none"/>
    <path d="M1.65 1.9 L1.65 1.85 Q1.6 1.8 1.45 1.75 L1.35 1.75 1.25 1.75 1.3 1.7 1.65 1.8 1.7 1.85 1.7 1.9 1.65 1.9" fill="#7ed661" fill-rule="evenodd" stroke="none"/>
    <path d="M1.25 1.7 L1.2 1.7 1.15 1.65 1.1 1.6 1.15 1.6 1.25 1.65 1.3 1.7 1.25 1.75 1.25 1.7" fill="#81fa77" fill-rule="evenodd" stroke="none"/>
    <path d="M1.2 1.8 L1.25 1.75 1.25 1.7 1.25 1.75 1.35 1.75 1.45 1.75 Q1.6 1.8 1.65 1.85 L1.55 1.9 1.5 1.95 1.45 2.0 1.4 1.95 1.45 2.0 1.5 1.95 1.45 1.8 1.35 1.8 1.2 1.8" fill="#52de61" fill-rule="evenodd" stroke="none"/>
    <path d="M1.2 1.9 Q1.15 1.9 1.15 1.8 1.15 1.75 1.2 1.8 L1.35 1.8 1.45 1.8 1.5 1.95 1.45 2.0 1.4 1.95 1.3 1.95 1.2 1.9" fill="#3acc59" fill-rule="evenodd" stroke="none"/>
    <path d="M1.1 2.2 L1.0 2.2 Q0.95 2.1 1.05 2.1 L1.1 2.05 1.15 2.0 1.25 2.0 1.4 2.05 1.5 2.05 1.6 1.95 1.65 1.95 1.5 2.05 1.35 2.05 1.25 2.15 1.1 2.1 1.1 2.2" fill="#96ffcf" fill-rule="evenodd" stroke="none"/>
    <path d="M1.75 2.2 L1.1 2.2 1.1 2.1 1.25 2.15 1.35 2.05 1.5 2.05 1.65 1.95 Q1.7 1.95 1.75 2.05 L1.75 2.2" fill="#b4ffe9" fill-rule="evenodd" stroke="none"/>
    <path d="M1.8 2.2 L1.75 2.2 1.75 2.05 Q1.7 1.95 1.65 1.95 L1.6 1.95 1.6 1.9 1.65 1.9 1.7 1.9 1.8 2.05 1.8 2.2" fill="#a1f7a2" fill-rule="evenodd" stroke="none"/>
    <path d="M-0.05 0.0 L0.0 0.05 -0.05 0.05 -0.1 0.05 -0.05 0.0 -0.05 0.0" fill="#78f89b" fill-rule="evenodd" stroke="none"/>
    <path d="M-0.15 0.0 L-0.1 0.0 -0.15 0.1 -0.2 0.05 -0.15 0.0" fill="#66f28a" fill-rule="evenodd" stroke="none"/>
    <path d="M-0.2 0.05 L-0.2 0.0 -0.2 0.05" fill="#5ce77a" fill-rule="evenodd" stroke="none"/>
    <path d="M-0.3 0.0 L-0.25 0.05 -0.2 0.05 -0.25 0.05 -0.25 0.05 -0.3 0.0" fill="#67f580" fill-rule="evenodd" stroke="none"/>
    <path d="M0.05 0.25 L-0.05 0.3 -0.2 0.35 -0.25 0.35 -0.3 0.3 -0.25 0.25 -0.2 0.25 -0.2 0.3 -0.1 0.25 0.0 0.25 0.05 0.25" fill="#3ec14c" fill-rule="evenodd" stroke="none"/>
    <path d="M-0.8 0.0 L-0.75 0.0 -0.75 0.05 Q-0.7 0.05 -0.7 0.1 L-0.65 0.1 -0.55 0.1 -0.45 0.1 -0.45 0.15 -0.65 0.15 Q-0.8 0.1 -0.8 0.0 M-0.75 0.0 L-0.75 0.0" fill="#65c458" fill-rule="evenodd" stroke="none"/>
    <path d="M-0.3 0.3 L-0.4 0.3 -0.4 0.25 -0.35 0.25 -0.3 0.15 -0.3 0.3" fill="#45b94b" fill-rule="evenodd" stroke="none"/>
    <path d="M-0.35 0.35 L-0.3 0.4 -0.3 0.45 -0.35 0.45 -0.4 0.45 -0.35 0.4 -0.35 0.35" fill="#41c54e" fill-rule="evenodd" stroke="none"/>
    <path d="M-0.4 0.45 L-0.35 0.55 -0.4 0.7 -0.4 0.9 -0.5 0.95 -0.55 1.0 -0.55 1.05 Q-0.55 0.95 -0.55 0.9 L-0.6 0.75 -0.6 0.7 -0.65 0.7 Q-0.7 0.65 -0.65 0.6 L-0.6 0.55 Q-0.6 0.5 -0.55 0.5 L-0.5 0.55 -0.45 0.55 -0.4 0.45" fill="#5cfc79" fill-rule="evenodd" stroke="none"/>
    <path d="M-0.8 0.15 Q-0.75 0.15 -0.75 0.15 L-0.75 0.2 -0.65 0.25 -0.6 0.35 -0.75 0.4 -0.85 0.5 Q-0.9 0.45 -0.85 0.45 L-0.75 0.4 -0.8 0.35 -0.75 0.3 Q-0.75 0.25 -0.8 0.3 L-0.85 0.3 -0.8 0.25 -0.8 0.15" fill="#8bfa8f" fill-rule="evenodd" stroke="none"/>
    <path d="M-0.65 1.0 L-0.65 0.85 -0.65 0.75 -0.6 0.75 -0.6 0.75 -0.55 0.9 Q-0.55 0.95 -0.55 1.05 L-0.6 1.1 -0.6 1.15 -0.6 1.2 Q-0.6 1.25 -0.65 1.2 -0.6 1.1 -0.65 1.05 -0.6 1.0 -0.65 1.0" fill="#6dff93" fill-rule="evenodd" stroke="none"/>
    <path d="M-1.15 0.7 L-1.1 0.7 -1.05 0.7 -0.85 0.75 Q-0.75 0.75 -0.7 0.8 L-0.7 0.9 Q-0.65 0.95 -0.65 1.0 -0.6 1.0 -0.65 1.05 -0.6 1.1 -0.65 1.2 -0.6 1.25 -0.6 1.2 L-0.6 1.15 -0.55 1.25 -0.6 1.3 -0.65 1.4 -0.7 1.35 -0.75 1.35 -0.75 1.4 -0.8 1.4 -0.75 1.35 -0.75 1.35 Q-0.7 1.35 -0.65 1.25 L-0.65 1.15 -0.75 1.1 -0.7 1.1 -0.7 1.0 -0.75 0.95 -0.85 0.85 -0.95 0.85 -1.0 0.85 -1.05 0.85 -1.05 0.85 Q-1.0 0.85 -1.05 0.8 L-1.05 0.8 -1.1 0.8 -1.1 0.75 -1.15 0.7" fill="#4fef65" fill-rule="evenodd" stroke="none"/>
    <path d="M-1.0 0.85 L-0.95 0.85 -0.85 0.85 -0.75 0.95 -0.7 1.0 -0.7 1.1 -0.75 1.1 -0.65 1.15 -0.65 1.25 Q-0.7 1.35 -0.75 1.35 -0.7 1.3 -0.75 1.2 -0.8 1.15 -0.85 1.15 L-0.85 1.35 -0.85 1.3 -0.85 1.0 -0.9 1.0 -1.0 0.95 -1.0 0.85 M-1.0 0.95 L-1.0 0.95" fill="#3ea03e" fill-rule="evenodd" stroke="none"/>
    <path d="M-1.0 0.95 L-0.9 1.0 -0.85 1.0 -0.85 1.3 -0.95 1.35 -0.95 1.4 Q-0.95 1.45 -1.0 1.4 L-1.05 1.4 -1.1 1.45 -1.1 1.5 -1.1 1.55 -1.1 1.6 -1.1 1.75 Q-1.15 1.75 -1.15 1.75 L-1.15 1.8 -1.2 1.8 -1.2 1.75 -1.15 1.55 -1.1 1.4 -1.05 1.35 -1.0 1.25 -0.9 1.2 -0.85 1.15 -0.85 1.0 -0.95 1.0 -1.0 0.95 M-0.85 1.3 L-0.85 1.3" fill="#c8fdaf" fill-rule="evenodd" stroke="none"/>
    <path d="M-2.2 1.85 L-2.2 1.4 -2.1 1.55 -2.05 1.7 -1.95 1.65 -1.85 1.6 Q-1.75 1.55 -1.6 1.5 L-1.35 1.35 Q-1.1 1.3 -0.85 1.15 L-0.9 1.2 -1.0 1.25 Q-1.1 1.35 -1.35 1.45 L-1.55 1.55 -1.7 1.6 -1.95 1.75 Q-2.05 1.85 -2.2 1.85" fill="#f5ffeb" fill-rule="evenodd" stroke="none"/>
    <path d="M-2.2 1.4 L-2.2 1.05 -2.05 1.0 -1.9 0.95 -1.75 0.9 Q-1.7 0.9 -1.65 0.95 L-1.55 1.0 Q-1.5 1.0 -1.45 1.05 L-1.35 1.0 -1.3 0.95 Q-1.3 0.95 -1.25 0.95 L-1.2 0.85 -1.15 0.8 -1.15 0.8 -1.1 0.8 -1.1 0.8 -1.05 0.8 -1.05 0.85 -1.05 0.9 -1.0 0.95 -1.0 0.95 -0.95 1.0 -0.85 1.0 -0.85 1.15 Q-1.1 1.3 -1.35 1.35 L-1.6 1.5 Q-1.75 1.55 -1.85 1.6 L-1.95 1.65 -2.05 1.7 -2.1 1.55 -2.2 1.4" fill="#fefffc" fill-rule="evenodd" stroke="none"/>
    <path d="M-0.55 1.0 L-0.45 1.0 -0.4 1.0 -0.3 1.05 -0.25 1.05 Q-0.25 1.05 -0.25 1.1 L-0.25 1.2 -0.2 1.25 -0.15 1.25 -0.15 1.45 -0.25 1.6 Q-0.25 1.65 -0.3 1.6 L-0.35 1.5 Q-0.35 1.45 -0.4 1.4 L-0.45 1.4 -0.55 1.4 -0.6 1.45 -0.55 1.4 Q-0.5 1.35 -0.55 1.3 -0.5 1.25 -0.5 1.2 L-0.6 1.15 -0.6 1.1 -0.55 1.05 -0.55 1.0 M-0.65 1.45 L-0.6 1.45 -0.65 1.45" fill="#3eee5e" fill-rule="evenodd" stroke="none"/>
    <path d="M-0.65 1.4 L-0.6 1.3 -0.55 1.25 -0.6 1.15 -0.5 1.2 Q-0.5 1.25 -0.55 1.3 -0.5 1.35 -0.55 1.4 L-0.6 1.45 -0.65 1.45 -0.65 1.4" fill="#39c74e" fill-rule="evenodd" stroke="none"/>
    <path d="M-1.0 0.85 L-1.0 0.95 -1.05 0.9 -1.05 0.85 -1.05 0.85 -1.0 0.85" fill="#beed99" fill-rule="evenodd" stroke="none"/>
    <path d="M-0.85 1.35 L-0.85 1.15 Q-0.8 1.15 -0.75 1.2 -0.7 1.3 -0.75 1.35 L-0.75 1.35 -0.8 1.4 -0.8 1.45 -0.85 1.4 -0.85 1.35" fill="#346f2c" fill-rule="evenodd" stroke="none"/>
    <path d="M-1.7 0.0 L-1.65 0.0 Q-1.5 0.15 -1.5 0.35 L-1.45 0.4 -1.45 0.45 -1.3 0.5 Q-1.15 0.55 -1.1 0.55 L-1.15 0.65 -1.15 0.7 -1.2 0.65 -1.25 0.6 Q-1.25 0.55 -1.25 0.55 L-1.35 0.55 Q-1.35 0.5 -1.45 0.55 -1.45 0.45 -1.5 0.4 L-1.55 0.3 -1.55 0.25 -1.55 0.2 -1.6 0.15 -1.65 0.1 -1.7 0.0" fill="#62e662" fill-rule="evenodd" stroke="none"/>
    <path d="M-1.55 0.3 L-1.55 0.25 -1.55 0.3 -1.5 0.4 Q-1.45 0.45 -1.45 0.55 -1.35 0.5 -1.35 0.55 L-1.25 0.55 Q-1.25 0.55 -1.25 0.6 L-1.3 0.6 -1.35 0.6 -1.5 0.45 -1.55 0.3" fill="#6cc35b" fill-rule="evenodd" stroke="none"/>
    <path d="M-1.15 0.7 L-1.15 0.7 -1.1 0.75 -1.1 0.8 -1.1 0.8 -1.15 0.8 -1.3 0.65 -1.45 0.6 -1.5 0.55 -1.55 0.5 -1.6 0.4 -1.6 0.3 -1.6 0.25 -1.55 0.3 -1.5 0.45 -1.35 0.6 -1.3 0.6 -1.25 0.6 -1.2 0.65 -1.15 0.7 M-1.15 0.8 L-1.15 0.8" fill="#619949" fill-rule="evenodd" stroke="none"/>
    <path d="M-1.7 0.15 L-1.6 0.2 Q-1.55 0.2 -1.6 0.25 L-1.6 0.3 -1.6 0.4 -1.55 0.5 -1.65 0.45 -1.7 0.35 -1.75 0.25 -1.75 0.15 -1.75 0.1 -1.7 0.15" fill="#4e823b" fill-rule="evenodd" stroke="none"/>
    <path d="M-1.75 0.25 L-1.7 0.35 -1.7 0.4 -1.75 0.45 -1.8 0.4 -1.85 0.3 -1.95 0.2 -2.0 0.1 -1.95 0.1 -1.85 0.15 -1.8 0.2 -1.75 0.25" fill="#53552a" fill-rule="evenodd" stroke="none"/>
    <path d="M-2.2 0.5 L-2.2 -0.05 -2.1 0.0 -2.0 0.1 -1.95 0.2 -1.85 0.3 -1.8 0.4 -1.75 0.45 -1.8 0.5 -1.85 0.5 -1.85 0.6 -1.8 0.7 -1.9 0.7 -1.95 0.65 -2.05 0.55 Q-2.1 0.5 -2.2 0.5" fill="#523f23" fill-rule="evenodd" stroke="none"/>
    <path d="M-1.75 0.45 L-1.7 0.4 -1.65 0.45 -1.65 0.55 -1.6 0.6 -1.5 0.65 Q-1.4 0.8 -1.25 0.8 L-1.3 0.85 -1.3 0.9 -1.4 0.95 -1.5 0.95 -1.6 0.9 -1.65 0.85 -1.95 0.65 -1.9 0.7 -1.8 0.7 -1.85 0.6 -1.85 0.5 -1.8 0.5 -1.75 0.45" fill="#704d30" fill-rule="evenodd" stroke="none"/>
    <path d="M-1.7 0.35 L-1.65 0.45 -1.55 0.5 -1.5 0.55 -1.45 0.6 -1.3 0.65 -1.15 0.8 Q-1.2 0.8 -1.2 0.85 -1.2 0.9 -1.25 0.9 L-1.3 0.9 -1.3 0.85 -1.25 0.8 Q-1.4 0.8 -1.5 0.65 L-1.6 0.6 -1.65 0.55 -1.65 0.45 -1.7 0.4 -1.7 0.35" fill="#6b713a" fill-rule="evenodd" stroke="none"/>
    <path d="M-2.2 0.55 L-2.2 0.5 Q-2.1 0.5 -2.05 0.55 L-1.95 0.65 -1.65 0.85 -1.6 0.9 -1.5 0.95 Q-1.6 0.95 -1.65 0.85 L-2.05 0.6 Q-2.1 0.55 -2.2 0.55" fill="#ab9c55" fill-rule="evenodd" stroke="none"/>
    <path d="M-2.2 1.05 L-2.2 0.6 -2.05 0.65 -2.0 0.7 -1.7 0.9 -1.45 1.0 -1.35 0.95 Q-1.3 0.9 -1.25 0.95 -1.3 0.95 -1.3 0.95 L-1.35 1.0 -1.45 1.05 Q-1.5 1.0 -1.55 1.0 L-1.65 0.95 Q-1.7 0.9 -1.75 0.9 L-1.9 0.95 -2.05 1.0 -2.2 1.05" fill="#f5ffe9" fill-rule="evenodd" stroke="none"/>
    <path d="M-2.2 0.6 L-2.2 0.55 Q-2.1 0.55 -2.05 0.6 L-1.65 0.85 Q-1.6 0.95 -1.5 0.95 L-1.45 1.0 Q-1.4 1.0 -1.4 0.95 L-1.3 0.9 -1.25 0.9 Q-1.2 0.9 -1.2 0.85 L-1.25 0.95 Q-1.3 0.9 -1.35 0.95 L-1.45 1.0 -1.7 0.9 -2.0 0.7 -2.05 0.65 -2.2 0.6" fill="#d7ea95" fill-rule="evenodd" stroke="none"/>
    <path d="M-1.2 0.85 Q-1.2 0.8 -1.15 0.8 L-1.15 0.8 -1.2 0.85 M-1.15 0.8 L-1.15 0.8" fill="#b4d37e" fill-rule="evenodd" stroke="none"/>
    <path d="M-1.05 0.85 L-1.05 0.8 -1.05 0.8 Q-1.0 0.85 -1.05 0.85" fill="#bbf997" fill-rule="evenodd" stroke="none"/>
    <path d="M-1.5 0.95 L-1.4 0.95 Q-1.4 1.0 -1.45 1.0 L-1.5 0.95" fill="#aa9355" fill-rule="evenodd" stroke="none"/>
    <path d="M-2.2 2.0 L-2.2 1.95 -1.9 1.85 -1.65 1.65 -1.3 1.55 -1.15 1.5 -1.15 1.4 -1.1 1.4 -1.15 1.55 -1.2 1.75 -1.35 1.7 -1.5 1.7 Q-1.55 1.7 -1.65 1.75 L-1.75 1.85 -2.2 2.0" fill="#e7ffbd" fill-rule="evenodd" stroke="none"/>
    <path d="M-1.1 1.5 L-1.1 1.45 -1.05 1.4 -1.0 1.4 Q-0.95 1.45 -0.95 1.4 L-0.95 1.35 -0.85 1.3 -0.9 1.35 -0.95 1.4 Q-0.95 1.45 -0.95 1.45 L-1.05 1.45 -1.1 1.5" fill="#9afd95" fill-rule="evenodd" stroke="none"/>
    <path d="M-0.6 1.45 L-0.6 1.5 -0.55 1.45 Q-0.5 1.45 -0.5 1.45 L-0.45 1.55 -0.35 1.6 -0.4 1.6 -0.45 1.55 -0.5 1.6 -0.6 1.65 -0.6 1.6 -0.7 1.6 -0.75 1.55 Q-0.75 1.5 -0.75 1.5 L-0.8 1.45 -0.85 1.5 -0.85 1.55 -0.9 1.55 -0.95 1.55 -1.0 1.5 -1.1 1.55 -1.1 1.5 -1.05 1.45 -0.95 1.45 Q-0.95 1.45 -0.95 1.4 L-0.9 1.35 -0.9 1.45 Q-0.85 1.5 -0.8 1.45 L-0.8 1.4 -0.75 1.4 -0.7 1.4 Q-0.7 1.4 -0.7 1.35 L-0.65 1.4 -0.65 1.45 -0.6 1.45 M-0.6 1.5 L-0.65 1.45 Q-0.7 1.5 -0.65 1.55 L-0.55 1.55 -0.55 1.5 -0.6 1.5 M-0.9 1.5 L-0.95 1.5 -0.9 1.55 -0.9 1.5" fill="#6ffb8f" fill-rule="evenodd" stroke="none"/>
    <path d="M-1.1 1.75 L-1.1 1.6 -1.1 1.55 -1.0 1.5 -0.95 1.55 -0.9 1.55 -0.85 1.55 -0.85 1.5 -0.8 1.45 -0.75 1.5 Q-0.75 1.5 -0.75 1.55 L-0.7 1.6 -0.6 1.6 -0.6 1.65 -0.55 1.65 -0.55 1.7 -0.6 1.75 -0.65 1.75 Q-0.7 1.7 -0.8 1.7 L-0.95 1.65 -0.95 1.7 -0.9 1.75 Q-0.9 1.8 -0.9 1.8 L-1.0 1.8 -0.9 1.8 -1.0 1.7 -1.0 1.6 -1.05 1.55 -1.1 1.6 -1.1 1.7 -1.05 1.75 -1.0 1.8 -1.1 1.75" fill="#a9ffcd" fill-rule="evenodd" stroke="none"/>
    <path d="M-2.2 2.05 L-2.2 2.05 Q-1.9 1.95 -1.7 1.95 L-1.55 1.8 -1.35 1.75 -1.25 1.8 -1.2 1.8 -1.15 1.8 Q-1.2 1.85 -1.25 1.85 L-1.35 1.8 -1.5 1.85 -1.6 1.95 -1.65 2.0 -1.8 2.0 -2.0 2.0 -2.2 2.05" fill="#faea97" fill-rule="evenodd" stroke="none"/>
    <path d="M-2.2 2.05 L-2.2 2.0 -1.75 1.85 -1.65 1.75 Q-1.55 1.7 -1.5 1.7 L-1.35 1.7 -1.2 1.75 -1.2 1.8 -1.25 1.8 -1.35 1.75 -1.55 1.8 -1.7 1.95 Q-1.9 1.95 -2.2 2.05" fill="#f4fba8" fill-rule="evenodd" stroke="none"/>
    <path d="M-1.75 2.2 L-2.0 2.2 -1.95 2.15 -1.95 2.1 Q-1.9 2.1 -1.9 2.05 L-2.05 2.05 Q-2.15 2.05 -2.2 2.1 L-2.2 2.05 -2.0 2.0 -1.8 2.0 -1.65 2.0 -1.6 1.95 -1.5 1.85 -1.35 1.8 -1.25 1.85 Q-1.2 1.85 -1.15 1.8 L-1.15 1.8 -1.1 1.9 Q-1.1 1.95 -1.1 2.0 L-1.2 2.0 -1.25 2.05 -1.3 2.05 -1.35 2.05 Q-1.4 2.0 -1.35 1.95 L-1.25 1.95 Q-1.25 1.9 -1.35 1.85 L-1.45 1.85 -1.5 1.95 -1.6 2.0 -1.7 2.05 -1.75 2.2" fill="#f5d689" fill-rule="evenodd" stroke="none"/>
    <path d="M-1.1 1.6 L-1.05 1.55 -1.0 1.6 -1.0 1.7 -0.9 1.8 -1.0 1.8 -1.05 1.75 -1.1 1.7 -1.1 1.6" fill="#c4ffe4" fill-rule="evenodd" stroke="none"/>
    <path d="M-1.15 1.8 L-1.15 1.75 Q-1.15 1.75 -1.1 1.75 L-1.0 1.8 -1.0 1.85 -0.95 1.85 -1.0 1.85 -1.05 1.85 -1.15 1.8 -1.15 1.8 M-0.95 1.85 L-0.95 1.85" fill="#9eec89" fill-rule="evenodd" stroke="none"/>
    <path d="M-1.1 2.2 L-1.15 2.2 -1.2 2.05 -1.1 2.0 Q-1.1 1.95 -1.1 1.9 L-1.15 1.8 -1.05 1.85 -1.0 1.85 -0.95 1.9 -0.95 2.0 Q-1.05 1.95 -1.1 2.05 L-1.1 2.2" fill="#d2c770" fill-rule="evenodd" stroke="none"/>
    <path d="M-1.7 2.2 L-1.75 2.2 -1.7 2.05 -1.6 2.0 -1.5 1.95 -1.45 1.85 -1.35 1.85 Q-1.25 1.9 -1.25 1.95 L-1.35 1.95 Q-1.4 2.0 -1.35 2.05 L-1.3 2.05 -1.25 2.05 -1.2 2.0 -1.1 2.0 -1.2 2.05 -1.35 2.1 -1.45 2.05 -1.6 2.05 Q-1.7 2.1 -1.7 2.2" fill="#f0c780" fill-rule="evenodd" stroke="none"/>
    <path d="M-2.0 2.2 L-2.2 2.2 -2.2 2.1 Q-2.15 2.05 -2.05 2.05 L-1.9 2.05 Q-1.9 2.1 -1.95 2.1 L-1.95 2.15 -2.0 2.2" fill="#f3be84" fill-rule="evenodd" stroke="none"/>
    <path d="M-1.15 2.2 L-1.7 2.2 Q-1.7 2.1 -1.6 2.05 L-1.45 2.05 -1.35 2.1 -1.2 2.05 -1.15 2.2" fill="#eab176" fill-rule="evenodd" stroke="none"/>
    <path d="M-1.0 2.2 L-1.1 2.2 -1.1 2.05 Q-1.05 1.95 -0.95 2.0 L-0.85 2.0 -0.95 2.05 -1.05 2.05 -1.05 2.15 -1.0 2.2 M-0.85 2.0 L-0.85 2.0" fill="#8ee87f" fill-rule="evenodd" stroke="none"/>
    <path d="M-0.85 2.2 L-1.0 2.2 -1.05 2.15 -1.05 2.05 -0.95 2.05 -0.85 2.0 -0.8 2.0 -0.7 1.95 -0.7 2.0 -0.65 2.05 -0.7 2.05 -0.8 2.05 -0.8 2.1 -0.85 2.2" fill="#77fa9b" fill-rule="evenodd" stroke="none"/>
    <path d="M-0.35 1.6 L-0.3 1.65 -0.2 1.65 -0.15 1.5 -0.15 1.4 -0.15 1.6 Q-0.15 1.7 -0.2 1.7 L-0.3 1.75 Q-0.3 1.7 -0.4 1.7 -0.45 1.7 -0.5 1.75 -0.55 1.85 -0.65 1.8 L-0.8 1.75 Q-0.8 1.8 -0.85 1.85 L-0.95 1.85 -1.0 1.85 -0.9 1.85 -0.85 1.8 -0.9 1.75 -0.9 1.7 Q-0.8 1.7 -0.7 1.8 L-0.55 1.8 -0.5 1.7 -0.45 1.7 -0.4 1.65 Q-0.3 1.65 -0.35 1.6" fill="#70fd9b" fill-rule="evenodd" stroke="none"/>
    <path d="M-0.6 1.65 L-0.5 1.6 -0.45 1.55 -0.4 1.6 -0.35 1.6 Q-0.3 1.65 -0.4 1.65 L-0.45 1.7 -0.5 1.7 -0.55 1.8 -0.7 1.8 Q-0.8 1.7 -0.9 1.7 L-0.9 1.75 -0.85 1.8 -0.9 1.85 -1.0 1.85 -1.0 1.8 -0.9 1.8 Q-0.9 1.8 -0.9 1.75 L-0.95 1.7 -0.95 1.65 -0.8 1.7 Q-0.7 1.7 -0.65 1.75 L-0.6 1.75 -0.55 1.7 -0.55 1.65 -0.6 1.65" fill="#94ffbb" fill-rule="evenodd" stroke="none"/>
    <path d="M-0.15 1.85 L-0.2 1.9 -0.15 1.9 -0.1 1.95 -0.1 2.05 -0.2 2.0 -0.3 1.9 -0.35 1.9 -0.4 1.9 -0.45 1.9 -0.45 1.85 -0.4 1.85 -0.4 1.9 -0.25 1.85 -0.15 1.85" fill="#a5ffcd" fill-rule="evenodd" stroke="none"/>
    <path d="M-0.95 1.85 L-0.85 1.85 Q-0.8 1.8 -0.8 1.75 L-0.65 1.8 Q-0.55 1.85 -0.5 1.75 -0.45 1.7 -0.4 1.7 -0.3 1.7 -0.3 1.75 L-0.3 1.8 -0.4 1.8 Q-0.45 1.8 -0.5 1.85 -0.55 1.9 -0.5 1.9 L-0.4 1.95 -0.3 1.95 -0.25 2.05 -0.35 2.05 -0.5 2.05 -0.45 2.05 -0.4 2.0 -0.45 1.95 -0.55 1.9 -0.55 1.85 Q-0.55 1.85 -0.55 1.8 L-0.8 1.8 -0.8 1.8 -0.9 1.85 -0.95 1.85 -0.95 1.85 -0.95 1.85" fill="#4cee76" fill-rule="evenodd" stroke="none"/>
    <path d="M-0.3 1.9 L-0.3 1.95 -0.2 2.0 Q-0.15 2.05 -0.2 2.1 L-0.35 2.1 -0.5 2.1 -0.55 2.05 -0.6 2.05 -0.5 2.05 -0.35 2.05 -0.25 2.05 -0.3 1.95 -0.4 1.95 -0.5 1.9 Q-0.55 1.9 -0.5 1.85 -0.45 1.8 -0.4 1.8 L-0.3 1.8 -0.35 1.8 -0.4 1.8 -0.5 1.9 -0.45 1.9 -0.35 1.9 -0.3 1.9 M-0.5 2.05 L-0.5 2.05" fill="#66fc99" fill-rule="evenodd" stroke="none"/>
    <path d="M-0.75 1.4 L-0.75 1.35 -0.7 1.35 Q-0.7 1.4 -0.7 1.4 L-0.75 1.4" fill="#99ffc0" fill-rule="evenodd" stroke="none"/>
    <path d="M-0.6 1.5 L-0.55 1.5 -0.55 1.55 -0.65 1.55 Q-0.7 1.5 -0.65 1.45 L-0.6 1.5" fill="#afffd0" fill-rule="evenodd" stroke="none"/>
    <path d="M-0.85 1.3 L-0.85 1.35 -0.85 1.4 -0.8 1.45 Q-0.85 1.5 -0.9 1.45 L-0.9 1.35 -0.85 1.3 -0.85 1.3" fill="#55ca5c" fill-rule="evenodd" stroke="none"/>
    <path d="M-0.9 1.5 L-0.9 1.55 -0.95 1.5 -0.9 1.5" fill="#45c359" fill-rule="evenodd" stroke="none"/>
    <path d="M-0.5 2.05 L-0.5 2.05 -0.55 2.05 -0.6 2.0 -0.45 2.05 -0.5 1.95 -0.6 1.9 Q-0.6 1.85 -0.65 1.85 -0.7 1.85 -0.7 1.9 L-0.75 1.9 -0.75 1.9 -0.8 1.95 Q-0.8 2.0 -0.85 2.0 -0.8 1.95 -0.85 1.9 L-0.85 1.9 -0.85 1.9 -0.9 1.85 -0.8 1.8 -0.8 1.8 -0.55 1.8 Q-0.55 1.85 -0.55 1.85 L-0.55 1.9 -0.45 1.95 -0.4 2.0 -0.45 2.05 -0.5 2.05" fill="#3cb853" fill-rule="evenodd" stroke="none"/>
    <path d="M-0.7 1.9 Q-0.7 1.85 -0.65 1.85 -0.6 1.85 -0.6 1.9 L-0.5 1.95 -0.45 2.05 -0.6 2.0 -0.65 1.95 -0.7 1.9" fill="#2d7e32" fill-rule="evenodd" stroke="none"/>
    <path d="M-0.85 2.0 L-0.85 2.0 Q-0.8 2.0 -0.8 1.95 L-0.75 1.9 -0.75 1.9 -0.7 1.9 -0.65 1.95 -0.6 2.0 -0.55 2.05 -0.5 2.05 -0.6 2.05 -0.65 2.05 -0.7 2.0 -0.7 1.95 -0.8 2.0 -0.85 2.0 -0.85 2.0 -0.85 2.0" fill="#51e77a" fill-rule="evenodd" stroke="none"/>
    <path d="M-0.1 2.2 L-0.45 2.2 Q-0.5 2.1 -0.55 2.1 L-0.7 2.05 Q-0.75 2.05 -0.75 2.1 L-0.8 2.2 -0.85 2.2 -0.8 2.1 -0.8 2.05 -0.7 2.05 -0.65 2.05 -0.6 2.05 -0.55 2.05 -0.5 2.1 -0.3 2.1 -0.2 2.1 -0.1 2.1 -0.1 2.2" fill="#96ffcd" fill-rule="evenodd" stroke="none"/>
    <path d="M-0.45 2.2 L-0.8 2.2 -0.75 2.1 Q-0.75 2.05 -0.7 2.05 L-0.55 2.1 Q-0.5 2.1 -0.45 2.2" fill="#bbfee5" fill-rule="evenodd" stroke="none"/>
    <path d="M-0.9 1.85 L-0.85 1.9 -0.85 1.9 -0.85 1.9 Q-0.8 1.95 -0.85 2.0 L-0.85 2.0 -0.9 1.9 -0.95 1.85 -0.9 1.85" fill="#619443" fill-rule="evenodd" stroke="none"/>
    <path d="M-0.85 2.0 L-0.95 2.0 -0.95 1.9 -1.0 1.85 -0.95 1.85 -0.9 1.9 -0.85 2.0 -0.85 2.0 M-0.95 1.85 L-0.95 1.85" fill="#a3a957" fill-rule="evenodd" stroke="none"/>
  </g>
</svg>
