<?xml version="1.0" encoding="UTF-8" standalone="no"?>
<svg xmlns:xlink="http://www.w3.org/1999/xlink" height="4.4px" width="4.4px" xmlns="http://www.w3.org/2000/svg">
  <g transform="matrix(1.0, 0.0, 0.0, 1.0, 2.2, 2.2)">
    <path d="M1.6 -1.2 L1.65 -1.3 Q1.7 -1.35 1.7 -1.4 L1.55 -1.3 1.4 -1.2 1.3 -1.1 1.2 -1.15 Q1.1 -1.2 1.15 -1.3 L1.25 -1.45 1.4 -1.7 1.5 -1.8 Q1.55 -1.85 1.5 -1.9 L1.35 -2.0 1.2 -2.0 1.1 -2.05 0.85 -2.15 0.7 -2.0 Q0.6 -1.95 0.55 -1.9 L0.35 -1.85 0.3 -1.95 0.3 -2.05 0.2 -2.2 2.2 -2.2 2.2 -1.65 Q2.0 -1.65 1.85 -1.5 L1.7 -1.35 1.6 -1.2" fill="#fddafe" fill-rule="evenodd" stroke="none"/>
    <path d="M0.2 -2.2 L0.3 -2.05 0.3 -1.95 0.35 -1.85 0.55 -1.9 Q0.6 -1.95 0.7 -2.0 L0.85 -2.15 1.1 -2.05 1.2 -2.0 1.35 -2.0 1.5 -1.9 Q1.55 -1.85 1.5 -1.8 L1.4 -1.7 1.25 -1.45 1.15 -1.3 Q1.1 -1.2 1.2 -1.15 L1.3 -1.1 1.4 -1.2 1.55 -1.3 1.7 -1.4 Q1.7 -1.35 1.65 -1.3 L1.6 -1.2 1.6 -1.15 1.45 -1.0 Q1.35 -0.95 1.25 -0.9 L1.2 -0.9 1.15 -0.85 1.15 -0.8 1.1 -0.85 1.15 -0.9 1.2 -0.95 1.25 -1.0 1.15 -1.0 1.05 -1.0 Q0.95 -1.05 0.95 -1.15 L1.0 -1.3 0.95 -1.4 0.75 -1.4 0.6 -1.35 0.5 -1.4 0.45 -1.45 0.45 -1.6 Q0.45 -1.65 0.35 -1.65 L0.2 -1.65 0.1 -1.6 Q0.05 -1.6 0.05 -1.65 0.05 -1.75 0.1 -1.8 L0.15 -1.85 0.2 -1.9 Q0.25 -2.0 0.2 -2.05 L0.1 -2.2 0.2 -2.2 M0.6 -0.7 L0.8 -0.75 0.95 -0.8 1.0 -0.85 1.05 -0.85 1.1 -0.85 1.05 -0.85 1.05 -0.75 0.95 -0.75 0.9 -0.75 0.85 -0.75 0.8 -0.7 0.75 -0.75 0.7 -0.7 0.6 -0.7 M1.6 -1.15 L1.6 -1.15" fill="#ffe4ff" fill-rule="evenodd" stroke="none"/>
    <path d="M2.2 -1.5 L2.15 -1.5 2.15 -1.55 2.05 -1.55 1.95 -1.5 1.85 -1.35 1.8 -1.3 1.85 -1.4 1.9 -1.5 1.95 -1.5 2.0 -1.55 2.2 -1.55 2.2 -1.5" fill="#9e5fb5" fill-rule="evenodd" stroke="none"/>
    <path d="M1.6 -1.2 L1.7 -1.35 1.85 -1.5 Q2.0 -1.65 2.2 -1.65 L2.2 -1.6 Q2.0 -1.65 2.0 -1.55 L1.95 -1.5 1.9 -1.5 1.75 -1.3 1.6 -1.15 1.6 -1.2" fill="#eba5f3" fill-rule="evenodd" stroke="none"/>
    <path d="M1.85 -1.35 L1.9 -1.4 2.0 -1.5 1.9 -1.35 1.85 -1.2 1.75 -1.1 Q1.7 -1.0 1.8 -0.95 L1.8 -1.0 1.85 -1.05 2.05 -0.95 2.2 -1.0 2.2 -0.85 2.1 -0.85 2.0 -0.85 1.95 -0.8 1.9 -0.7 Q1.85 -0.7 1.85 -0.75 L1.75 -0.8 1.7 -0.8 1.7 -0.65 1.75 -0.6 1.75 -0.55 1.7 -0.55 Q1.7 -0.55 1.7 -0.6 L1.65 -0.65 Q1.6 -0.7 1.6 -0.65 L1.55 -0.6 1.5 -0.6 Q1.45 -0.6 1.45 -0.55 L1.4 -0.5 1.35 -0.45 1.35 -0.4 1.3 -0.35 1.25 -0.3 1.2 -0.2 1.2 -0.15 1.1 -0.15 1.05 -0.05 1.0 0.0 0.95 0.05 Q1.0 0.0 1.05 0.05 L1.05 0.1 1.05 0.2 1.0 0.35 Q1.0 0.4 1.05 0.4 L1.05 0.45 1.1 0.55 1.05 0.6 1.0 0.5 0.95 0.45 0.9 0.4 Q0.85 0.5 0.85 0.55 L0.85 0.6 0.8 0.55 Q0.75 0.5 0.75 0.6 L0.7 0.6 0.6 0.55 Q0.55 0.5 0.6 0.45 L0.6 0.35 0.6 0.25 0.55 0.15 0.55 0.1 0.5 0.05 0.5 0.2 0.55 0.25 0.55 0.3 0.55 0.4 0.5 0.45 Q0.45 0.4 0.5 0.35 L0.5 0.3 Q0.45 0.3 0.45 0.35 L0.4 0.45 0.35 0.35 0.4 0.25 0.4 0.2 0.45 0.15 0.45 0.1 0.35 0.1 Q0.3 0.1 0.3 0.1 0.3 0.05 0.3 0.0 L0.3 -0.1 0.35 -0.15 0.35 -0.2 0.3 -0.25 0.35 -0.25 0.4 -0.25 0.45 -0.2 0.5 -0.2 0.55 -0.3 0.6 -0.35 0.75 -0.45 0.9 -0.5 Q0.95 -0.5 1.0 -0.45 L1.0 -0.4 1.05 -0.35 1.05 -0.25 1.0 -0.2 1.1 -0.25 1.1 -0.35 1.15 -0.4 1.15 -0.45 1.2 -0.45 1.25 -0.5 1.3 -0.55 1.45 -0.7 1.45 -0.85 1.4 -0.9 1.4 -0.95 1.5 -1.0 1.6 -1.1 1.65 -1.15 Q1.75 -1.1 1.8 -1.2 L1.85 -1.35 M1.45 -0.85 L1.45 -0.85 M1.45 -0.7 L1.45 -0.7 M0.9 -0.5 L0.9 -0.5 M0.45 -0.1 L0.4 -0.1 0.4 -0.1 Q0.45 -0.05 0.45 -0.1 L0.5 -0.05 0.6 -0.05 0.65 -0.05 0.75 0.0 0.7 0.1 Q0.65 0.15 0.7 0.15 0.75 0.1 0.85 0.1 L0.9 0.0 Q0.95 -0.05 0.9 -0.05 L0.85 -0.05 0.85 -0.1 Q0.85 -0.2 0.9 -0.15 L0.95 -0.15 1.0 -0.15 1.0 -0.1 1.05 -0.1 1.05 -0.15 1.0 -0.2 0.95 -0.25 1.0 -0.3 0.95 -0.35 0.9 -0.35 0.95 -0.4 0.9 -0.45 0.75 -0.4 0.6 -0.35 Q0.55 -0.3 0.6 -0.25 L0.6 -0.1 0.55 -0.1 0.5 -0.1 Q0.45 -0.15 0.45 -0.1 M1.6 -1.05 L1.6 -0.9 1.65 -0.85 1.7 -0.85 1.75 -0.95 1.7 -1.0 1.65 -1.05 1.6 -1.05 M1.1 -0.2 L1.1 -0.2 1.05 -0.2 1.1 -0.15 1.1 -0.2" fill="#4d2043" fill-rule="evenodd" stroke="none"/>
    <path d="M2.0 -1.5 L1.9 -1.4 1.85 -1.35 1.95 -1.5 2.05 -1.55 2.15 -1.55 2.15 -1.5 2.2 -1.5 2.2 -1.4 2.15 -1.45 2.1 -1.55 2.05 -1.55 2.0 -1.5 M1.85 -1.35 L1.85 -1.35" fill="#653c7f" fill-rule="evenodd" stroke="none"/>
    <path d="M1.85 -1.35 L1.8 -1.2 Q1.75 -1.1 1.65 -1.15 L1.65 -1.2 1.75 -1.25 1.8 -1.3 1.85 -1.35 1.85 -1.35" fill="#a0395c" fill-rule="evenodd" stroke="none"/>
    <path d="M1.6 -1.15 L1.6 -1.15 1.75 -1.3 1.9 -1.5 1.85 -1.4 1.8 -1.3 1.75 -1.25 1.65 -1.2 1.6 -1.15" fill="#d576c6" fill-rule="evenodd" stroke="none"/>
    <path d="M2.2 -1.0 L2.05 -0.95 1.85 -1.05 1.8 -1.0 1.8 -0.95 Q1.7 -1.0 1.75 -1.1 L1.85 -1.2 1.9 -1.35 2.0 -1.5 2.05 -1.55 2.1 -1.55 2.15 -1.45 2.2 -1.4 2.2 -1.0" fill="#2d1e44" fill-rule="evenodd" stroke="none"/>
    <path d="M0.1 -2.2 L0.2 -2.05 Q0.25 -2.0 0.2 -1.9 L0.15 -1.85 0.1 -1.8 Q0.05 -1.75 0.05 -1.65 0.05 -1.6 0.1 -1.6 L0.2 -1.65 0.35 -1.65 Q0.45 -1.65 0.45 -1.6 L0.45 -1.45 0.5 -1.4 0.6 -1.35 0.75 -1.4 0.95 -1.4 1.0 -1.3 0.95 -1.15 Q0.95 -1.05 1.05 -1.0 L1.15 -1.0 1.25 -1.0 1.2 -0.95 1.15 -0.9 1.1 -0.85 1.05 -0.85 1.0 -0.85 0.95 -0.8 0.8 -0.75 0.6 -0.7 0.6 -0.7 0.55 -0.6 0.45 -0.6 0.4 -0.55 0.35 -0.5 0.25 -0.5 Q0.2 -0.45 0.2 -0.5 L0.15 -0.55 0.1 -0.55 0.05 -0.45 0.0 -0.45 -0.3 -0.65 -0.3 -0.7 -0.25 -0.75 -0.35 -0.8 -0.45 -0.75 -0.55 -0.75 -0.65 -0.75 -0.75 -0.75 -0.75 -0.8 -0.7 -0.9 -0.6 -0.95 -0.6 -1.0 -0.55 -1.1 Q-0.5 -1.2 -0.5 -1.25 L-0.5 -1.35 -0.45 -1.45 -0.35 -1.55 -0.2 -1.65 -0.15 -1.7 -0.2 -1.8 -0.25 -1.9 -0.35 -1.9 -0.5 -1.85 -0.6 -1.8 -0.7 -1.75 -0.8 -1.75 -0.9 -1.65 -0.95 -1.65 Q-1.05 -1.7 -1.15 -1.7 L-1.35 -1.6 -1.35 -1.5 -1.3 -1.4 -1.25 -1.35 -1.3 -1.3 -1.3 -1.15 -1.3 -1.1 -1.35 -1.0 -1.3 -0.9 -1.15 -0.85 -1.05 -0.75 Q-1.05 -0.75 -1.0 -0.75 L-1.0 -0.65 Q-1.0 -0.75 -1.1 -0.75 L-1.1 -0.8 -1.2 -0.8 -1.25 -0.85 -1.3 -0.85 -1.3 -0.85 -1.4 -0.95 -1.4 -1.15 Q-1.4 -1.2 -1.45 -1.2 -1.5 -1.2 -1.55 -1.2 L-1.6 -1.2 -1.8 -1.3 -1.95 -1.45 -1.9 -1.55 -1.8 -1.65 -1.75 -1.75 -1.7 -1.75 -1.55 -1.8 -1.45 -1.8 Q-1.25 -1.8 -1.2 -1.85 L-0.75 -2.0 -0.55 -2.0 -0.35 -2.0 Q-0.3 -2.0 -0.2 -2.1 L-0.05 -2.2 0.1 -2.2 M-1.0 -0.65 L-1.0 -0.65" fill="#fff0ff" fill-rule="evenodd" stroke="none"/>
    <path d="M0.6 -0.7 L0.7 -0.7 0.75 -0.75 0.75 -0.65 0.75 -0.6 0.7 -0.6 0.65 -0.65 0.6 -0.7 0.6 -0.7" fill="#9a3563" fill-rule="evenodd" stroke="none"/>
    <path d="M0.9 -0.5 L0.9 -0.5 0.85 -0.5 0.8 -0.55 Q0.75 -0.55 0.75 -0.5 L0.7 -0.45 0.6 -0.4 0.5 -0.4 0.45 -0.45 0.3 -0.4 0.3 -0.3 0.4 -0.3 0.45 -0.3 0.5 -0.4 0.5 -0.35 0.45 -0.3 0.45 -0.3 0.4 -0.25 0.35 -0.25 0.3 -0.25 0.25 -0.25 0.2 -0.3 0.2 -0.35 Q0.25 -0.35 0.3 -0.35 0.3 -0.4 0.25 -0.45 L0.3 -0.5 0.35 -0.5 0.35 -0.45 0.4 -0.5 0.4 -0.55 0.45 -0.6 0.55 -0.6 0.6 -0.7 0.65 -0.65 0.7 -0.6 0.75 -0.6 0.75 -0.65 0.8 -0.6 0.8 -0.6 0.85 -0.65 0.9 -0.65 1.0 -0.65 0.95 -0.6 0.95 -0.6 1.0 -0.55 0.9 -0.5 0.9 -0.5 M0.25 -0.45 L0.25 -0.45 M0.2 -0.35 L0.2 -0.35 M0.25 -0.25 L0.25 -0.25 M0.5 -0.4 L0.55 -0.4 0.55 -0.45 0.5 -0.5 0.5 -0.5 0.45 -0.45 0.5 -0.45 0.5 -0.4 M0.85 -0.6 Q0.8 -0.55 0.85 -0.55 0.95 -0.5 0.95 -0.55 L0.9 -0.65 0.85 -0.6 M0.7 -0.5 L0.65 -0.55 0.55 -0.55 0.55 -0.5 0.6 -0.45 0.65 -0.45 0.7 -0.5" fill="#fa626e" fill-rule="evenodd" stroke="none"/>
    <path d="M0.75 -0.75 L0.8 -0.7 0.85 -0.75 0.9 -0.75 0.95 -0.75 1.0 -0.7 0.95 -0.7 0.95 -0.7 0.95 -0.65 0.9 -0.65 0.85 -0.65 0.8 -0.6 0.8 -0.6 0.75 -0.65 0.75 -0.75" fill="#52244c" fill-rule="evenodd" stroke="none"/>
    <path d="M0.8 -0.7 L0.85 -0.75 0.9 -0.75 0.85 -0.75 0.8 -0.7" fill="#a379db" fill-rule="evenodd" stroke="none"/>
    <path d="M1.0 -0.65 L1.05 -0.7 1.1 -0.7 1.05 -0.65 1.0 -0.6 0.95 -0.6 0.95 -0.6 1.0 -0.65" fill="#6d2544" fill-rule="evenodd" stroke="none"/>
    <path d="M1.0 -0.65 L0.9 -0.65 0.95 -0.65 0.95 -0.7 0.95 -0.7 1.0 -0.7 1.1 -0.75 1.15 -0.7 1.1 -0.65 1.1 -0.55 1.05 -0.55 1.0 -0.5 0.95 -0.5 0.9 -0.5 1.0 -0.55 0.95 -0.6 1.0 -0.6 1.05 -0.65 1.1 -0.7 1.05 -0.7 1.0 -0.65 M1.15 -0.7 L1.15 -0.7" fill="#b12f4d" fill-rule="evenodd" stroke="none"/>
    <path d="M0.4 -0.55 L0.4 -0.5 0.35 -0.45 0.35 -0.5 0.35 -0.5 0.4 -0.55" fill="#d23959" fill-rule="evenodd" stroke="none"/>
    <path d="M0.35 -0.5 L0.3 -0.5 0.25 -0.45 0.2 -0.5 Q0.2 -0.45 0.25 -0.5 L0.35 -0.5 0.35 -0.5" fill="#f089c7" fill-rule="evenodd" stroke="none"/>
    <path d="M0.45 -0.3 L0.4 -0.3 0.3 -0.3 0.3 -0.4 0.45 -0.45 0.5 -0.4 0.45 -0.3" fill="#ffc7b8" fill-rule="evenodd" stroke="none"/>
    <path d="M0.25 -0.45 Q0.3 -0.4 0.3 -0.35 0.25 -0.35 0.2 -0.35 L0.2 -0.4 0.25 -0.4 0.25 -0.45" fill="#9a294c" fill-rule="evenodd" stroke="none"/>
    <path d="M0.25 -0.45 L0.25 -0.45 0.25 -0.4 0.2 -0.4 0.2 -0.35 0.2 -0.35 Q0.15 -0.3 0.2 -0.3 0.2 -0.25 0.25 -0.25 L0.25 -0.25 0.25 -0.2 0.2 -0.2 0.15 -0.1 0.1 0.0 0.05 0.05 0.05 0.15 0.0 0.1 0.0 0.0 0.05 0.0 0.05 -0.05 0.05 -0.1 0.1 -0.15 0.1 -0.2 Q0.05 -0.2 0.1 -0.25 L0.05 -0.3 0.05 -0.35 0.05 -0.4 0.0 -0.4 0.0 -0.45 0.05 -0.45 0.1 -0.55 0.2 -0.5 0.25 -0.45 M0.1 -0.15 L0.1 -0.15 0.1 -0.15" fill="#412148" fill-rule="evenodd" stroke="none"/>
    <path d="M0.5 -0.4 L0.5 -0.45 0.45 -0.45 0.5 -0.5 0.5 -0.5 0.55 -0.45 0.55 -0.4 0.5 -0.4 0.5 -0.4" fill="#ffa890" fill-rule="evenodd" stroke="none"/>
    <path d="M0.1 -0.55 L0.15 -0.55 0.2 -0.5 0.1 -0.55" fill="#e167a7" fill-rule="evenodd" stroke="none"/>
    <path d="M0.0 -0.4 L0.05 -0.4 0.05 -0.35 0.05 -0.4 0.0 -0.4" fill="#ec6d7b" fill-rule="evenodd" stroke="none"/>
    <path d="M0.0 -0.45 L0.0 -0.4 0.05 -0.4 0.05 -0.35 0.05 -0.3 0.1 -0.25 Q0.05 -0.2 0.1 -0.2 L0.1 -0.15 0.0 -0.1 0.0 0.0 Q-0.05 0.0 -0.05 0.0 L-0.1 0.05 -0.1 0.0 -0.15 0.0 -0.25 -0.05 Q-0.3 -0.1 -0.25 -0.1 L-0.35 -0.15 -0.4 -0.2 -0.35 -0.25 -0.35 -0.3 -0.3 -0.35 -0.3 -0.35 -0.35 -0.4 -0.4 -0.35 -0.45 -0.35 -0.5 -0.4 -0.5 -0.5 -0.55 -0.5 -0.6 -0.5 -0.65 -0.55 -0.7 -0.6 -0.7 -0.55 -0.75 -0.55 -0.8 -0.55 -1.0 -0.65 -1.0 -0.75 Q-1.05 -0.75 -1.05 -0.75 L-1.15 -0.85 -1.3 -0.9 -1.35 -1.0 -1.3 -1.1 -1.3 -1.15 -1.3 -1.3 -1.25 -1.35 -1.3 -1.4 -1.35 -1.5 -1.35 -1.6 -1.15 -1.7 Q-1.05 -1.7 -0.95 -1.65 L-0.9 -1.65 -0.8 -1.75 -0.7 -1.75 -0.6 -1.8 -0.5 -1.85 -0.35 -1.9 -0.25 -1.9 -0.2 -1.8 -0.15 -1.7 -0.2 -1.65 -0.35 -1.55 -0.45 -1.45 -0.5 -1.35 -0.5 -1.25 Q-0.5 -1.2 -0.55 -1.1 L-0.6 -1.0 -0.6 -0.95 -0.7 -0.9 -0.75 -0.8 -0.75 -0.75 -0.65 -0.75 -0.55 -0.75 -0.45 -0.75 -0.35 -0.8 -0.25 -0.75 -0.3 -0.7 -0.3 -0.65 0.0 -0.45 M0.1 -0.15 L0.1 -0.15" fill="#fffbfe" fill-rule="evenodd" stroke="none"/>
    <path d="M0.2 -0.35 L0.2 -0.3 0.25 -0.25 Q0.2 -0.25 0.2 -0.3 0.15 -0.3 0.2 -0.35" fill="#ad2d4e" fill-rule="evenodd" stroke="none"/>
    <path d="M0.3 -0.25 L0.35 -0.2 0.35 -0.15 0.25 -0.15 0.2 -0.2 0.25 -0.2 0.25 -0.25 0.3 -0.25" fill="#d63c5b" fill-rule="evenodd" stroke="none"/>
    <path d="M0.1 -0.2 L0.1 -0.15 0.1 -0.2" fill="#e97580" fill-rule="evenodd" stroke="none"/>
    <path d="M0.1 -0.15 L0.1 -0.15 0.05 -0.05 0.05 0.0 0.0 0.0 0.0 -0.1 0.1 -0.15 M0.0 0.0 L0.0 0.0" fill="#f47b84" fill-rule="evenodd" stroke="none"/>
    <path d="M0.1 -0.15 L0.05 -0.1 0.05 -0.05 0.1 -0.15" fill="#9b2a50" fill-rule="evenodd" stroke="none"/>
    <path d="M0.35 -0.15 L0.3 -0.1 Q0.2 -0.15 0.2 -0.05 L0.2 0.05 0.2 0.1 0.15 0.1 0.05 0.1 0.05 0.15 0.0 0.2 -0.05 0.15 -0.1 0.15 -0.05 0.1 -0.1 0.05 Q0.0 0.05 0.0 0.0 L0.0 0.1 0.05 0.15 0.05 0.05 0.1 0.0 0.15 -0.1 0.2 -0.2 0.25 -0.15 0.35 -0.15 M0.0 0.0 L0.0 0.0" fill="#75264a" fill-rule="evenodd" stroke="none"/>
    <path d="M0.9 -0.5 L0.75 -0.45 0.6 -0.35 0.55 -0.3 0.5 -0.2 0.45 -0.2 0.4 -0.25 0.45 -0.3 0.45 -0.3 0.5 -0.35 0.5 -0.4 0.6 -0.4 0.7 -0.45 0.75 -0.5 Q0.75 -0.55 0.8 -0.55 L0.85 -0.5 0.9 -0.5 M0.5 -0.4 L0.5 -0.4" fill="#af2d4c" fill-rule="evenodd" stroke="none"/>
    <path d="M0.3 -0.1 L0.3 0.0 0.25 0.0 0.25 -0.05 0.3 -0.1" fill="#842749" fill-rule="evenodd" stroke="none"/>
    <path d="M0.3 0.0 Q0.3 0.05 0.3 0.1 0.3 0.1 0.35 0.1 L0.4 0.2 0.35 0.25 0.3 0.25 0.3 0.3 0.35 0.35 0.35 0.45 Q0.35 0.45 0.3 0.4 L0.3 0.35 Q0.25 0.35 0.25 0.35 L0.2 0.4 0.2 0.3 0.15 0.3 0.2 0.25 0.2 0.2 0.15 0.2 0.1 0.2 0.1 0.25 0.05 0.25 0.05 0.2 0.1 0.15 0.05 0.1 0.15 0.1 0.2 0.1 0.25 0.1 0.25 0.05 0.2 0.05 0.2 -0.05 Q0.2 -0.15 0.3 -0.1 L0.25 -0.05 0.25 0.0 0.3 0.0" fill="#b12e53" fill-rule="evenodd" stroke="none"/>
    <path d="M0.45 -0.1 Q0.45 -0.05 0.4 -0.1 L0.4 -0.1 0.45 -0.1 0.45 -0.1" fill="#ae304d" fill-rule="evenodd" stroke="none"/>
    <path d="M0.45 -0.1 L0.45 -0.1 Q0.45 -0.15 0.5 -0.1 L0.55 -0.1 0.6 -0.1 0.6 -0.25 Q0.55 -0.3 0.6 -0.35 L0.75 -0.4 0.9 -0.45 0.95 -0.4 0.9 -0.35 0.95 -0.35 1.0 -0.3 0.95 -0.25 1.0 -0.2 1.05 -0.15 1.05 -0.1 1.0 -0.1 1.0 -0.15 0.95 -0.15 0.9 -0.15 Q0.85 -0.2 0.85 -0.1 L0.85 -0.05 0.9 -0.05 Q0.95 -0.05 0.9 0.0 L0.85 0.1 Q0.75 0.1 0.7 0.15 0.65 0.15 0.7 0.1 L0.75 0.0 0.65 -0.05 0.6 -0.05 0.5 -0.05 0.45 -0.1" fill="#301e44" fill-rule="evenodd" stroke="none"/>
    <path d="M1.1 -0.35 L1.1 -0.25 1.0 -0.2 1.05 -0.25 1.05 -0.35 1.0 -0.4 1.0 -0.45 Q0.95 -0.5 0.9 -0.5 L0.95 -0.5 1.0 -0.5 1.05 -0.55 1.1 -0.55 1.1 -0.45 1.05 -0.4 Q1.05 -0.35 1.1 -0.35 M0.9 -0.5 L0.9 -0.5" fill="#7b2443" fill-rule="evenodd" stroke="none"/>
    <path d="M0.85 -0.6 L0.9 -0.65 0.95 -0.55 Q0.95 -0.5 0.85 -0.55 0.8 -0.55 0.85 -0.6" fill="#ffc1a8" fill-rule="evenodd" stroke="none"/>
    <path d="M0.7 -0.5 L0.65 -0.45 0.6 -0.45 0.55 -0.5 0.55 -0.55 0.65 -0.55 0.7 -0.5" fill="#ff9880" fill-rule="evenodd" stroke="none"/>
    <path d="M1.65 -1.15 L1.6 -1.1 1.5 -1.0 1.55 -1.1 1.6 -1.15 1.65 -1.2 1.65 -1.15" fill="#864e9a" fill-rule="evenodd" stroke="none"/>
    <path d="M1.6 -1.05 L1.65 -1.05 1.7 -1.0 1.75 -0.95 1.7 -0.85 1.65 -0.85 1.6 -0.9 1.6 -1.05" fill="#7b2544" fill-rule="evenodd" stroke="none"/>
    <path d="M1.15 -0.85 L1.2 -0.9 1.25 -0.9 Q1.35 -0.95 1.45 -1.0 L1.6 -1.15 1.55 -1.1 1.5 -1.0 1.4 -0.95 1.3 -0.9 1.2 -0.9 1.15 -0.85" fill="#cb7cd3" fill-rule="evenodd" stroke="none"/>
    <path d="M1.05 0.4 Q1.0 0.4 1.0 0.35 L1.05 0.2 1.05 0.1 1.05 0.05 Q1.0 0.0 0.95 0.05 L1.0 0.0 1.05 0.0 1.15 0.05 1.1 0.0 1.1 -0.05 1.2 -0.1 1.2 -0.15 1.2 -0.2 1.25 -0.3 1.25 -0.25 Q1.25 -0.2 1.3 -0.25 L1.4 -0.35 1.55 -0.5 1.5 -0.55 1.4 -0.45 Q1.4 -0.4 1.35 -0.4 L1.35 -0.45 1.4 -0.5 1.45 -0.55 Q1.45 -0.6 1.5 -0.6 L1.55 -0.6 1.6 -0.65 Q1.6 -0.7 1.65 -0.65 L1.7 -0.6 Q1.7 -0.55 1.7 -0.55 L1.75 -0.55 1.75 -0.6 1.7 -0.65 1.7 -0.8 1.75 -0.8 1.85 -0.75 Q1.85 -0.7 1.9 -0.7 L1.95 -0.8 2.0 -0.85 2.1 -0.85 2.2 -0.85 2.2 -0.55 Q2.05 -0.65 2.0 -0.75 L1.95 -0.7 Q1.9 -0.65 1.9 -0.7 L1.8 -0.75 Q1.8 -0.8 1.75 -0.75 L1.7 -0.75 1.7 -0.7 1.8 -0.65 1.85 -0.55 Q1.85 -0.55 1.9 -0.55 L2.0 -0.55 1.95 -0.5 1.95 -0.45 1.9 -0.45 1.85 -0.5 Q1.8 -0.55 1.75 -0.5 L1.7 -0.5 1.7 -0.4 Q1.65 -0.4 1.65 -0.35 L1.6 -0.3 1.6 -0.25 Q1.6 -0.2 1.65 -0.15 L1.65 -0.1 1.65 -0.05 Q1.65 0.0 1.7 -0.05 L1.75 -0.1 1.8 -0.1 1.85 -0.15 1.9 -0.15 1.95 -0.1 1.9 -0.2 1.9 -0.25 2.1 -0.15 2.05 -0.25 2.05 -0.3 2.1 -0.4 2.2 -0.5 2.2 0.0 2.1 -0.05 2.05 0.0 1.95 0.0 1.85 -0.05 1.8 -0.05 1.7 0.0 1.65 0.05 1.55 0.05 1.55 -0.05 Q1.55 -0.15 1.5 -0.15 L1.5 0.1 1.55 0.05 1.55 0.15 1.5 0.1 1.5 0.15 1.45 0.2 1.45 0.25 1.4 0.25 1.4 0.2 1.35 0.1 Q1.3 0.1 1.3 0.15 L1.3 0.3 1.25 0.15 1.2 0.2 1.2 0.25 1.2 0.3 1.2 0.45 1.25 0.45 1.25 0.6 1.3 0.75 Q1.35 0.75 1.35 0.8 L1.45 0.9 1.4 0.9 1.35 0.9 1.3 0.95 1.25 0.95 1.25 0.85 1.2 0.75 1.2 0.8 1.15 0.8 1.15 0.7 1.1 0.55 Q1.15 0.45 1.1 0.3 1.05 0.3 1.05 0.35 L1.05 0.4 M1.5 -0.4 L1.45 -0.35 1.45 -0.25 Q1.4 -0.3 1.35 -0.25 L1.35 -0.2 1.3 -0.2 1.25 -0.2 1.25 -0.1 Q1.25 -0.05 1.25 -0.05 1.3 0.0 1.35 0.0 L1.35 -0.05 1.4 -0.1 1.4 -0.15 1.5 -0.15 1.5 -0.25 1.55 -0.3 1.55 -0.4 1.5 -0.4 M1.4 0.05 L1.45 0.15 Q1.45 0.2 1.5 0.15 L1.45 0.1 1.4 0.05 M1.35 0.0 L1.35 0.0 1.3 0.05 Q1.3 0.1 1.3 0.1 L1.35 0.05 1.35 0.0 M1.05 0.2 L1.1 0.25 1.1 0.2 1.05 0.2" fill="#6a2241" fill-rule="evenodd" stroke="none"/>
    <path d="M1.7 -0.4 L1.7 -0.5 1.75 -0.5 Q1.8 -0.55 1.85 -0.5 L1.9 -0.45 1.95 -0.45 1.95 -0.5 2.0 -0.55 1.9 -0.55 Q1.85 -0.55 1.85 -0.55 L1.8 -0.65 1.7 -0.7 1.7 -0.75 1.75 -0.75 Q1.8 -0.8 1.8 -0.75 L1.9 -0.7 Q1.9 -0.65 1.95 -0.7 L2.0 -0.75 Q2.05 -0.65 2.2 -0.55 L2.2 -0.5 2.1 -0.4 2.05 -0.3 2.05 -0.25 2.1 -0.15 1.9 -0.25 1.9 -0.2 1.95 -0.1 1.9 -0.15 1.85 -0.15 1.8 -0.1 1.75 -0.1 1.8 -0.1 1.8 -0.15 1.85 -0.2 1.8 -0.3 Q1.75 -0.35 1.8 -0.4 L1.85 -0.35 1.9 -0.3 1.95 -0.25 2.0 -0.25 Q2.0 -0.3 2.05 -0.4 L2.1 -0.5 2.1 -0.55 Q2.05 -0.6 2.0 -0.55 L1.95 -0.4 Q1.9 -0.4 1.85 -0.45 L1.85 -0.5 1.8 -0.5 1.75 -0.45 1.7 -0.4 M1.9 -0.3 L1.9 -0.3" fill="#892443" fill-rule="evenodd" stroke="none"/>
    <path d="M0.95 -0.75 L1.05 -0.75 1.05 -0.8 1.1 -0.85 1.15 -0.8 Q1.15 -0.8 1.2 -0.8 L1.2 -0.85 1.2 -0.8 1.15 -0.75 1.15 -0.7 1.1 -0.75 1.0 -0.7 0.95 -0.75" fill="#f15a70" fill-rule="evenodd" stroke="none"/>
    <path d="M1.15 -0.7 L1.15 -0.7 1.15 -0.75 1.2 -0.8 1.2 -0.85 1.3 -0.85 1.3 -0.9 1.35 -0.9 1.4 -0.9 1.4 -0.8 1.35 -0.8 1.25 -0.75 1.25 -0.6 Q1.25 -0.55 1.2 -0.6 L1.15 -0.65 1.15 -0.7 1.15 -0.7 M1.15 -0.75 Q1.15 -0.65 1.2 -0.7 L1.2 -0.75 1.15 -0.75" fill="#fd7976" fill-rule="evenodd" stroke="none"/>
    <path d="M1.15 -0.8 L1.15 -0.85 1.2 -0.9 1.3 -0.9 1.3 -0.85 1.2 -0.85 1.2 -0.8 Q1.15 -0.8 1.15 -0.8" fill="#9d345c" fill-rule="evenodd" stroke="none"/>
    <path d="M1.05 -0.75 L1.05 -0.85 1.1 -0.85 1.05 -0.8 1.05 -0.75" fill="#eb94df" fill-rule="evenodd" stroke="none"/>
    <path d="M1.45 -0.85 L1.45 -0.85 1.4 -0.8 1.4 -0.75 Q1.45 -0.8 1.45 -0.7 L1.35 -0.7 1.3 -0.7 1.3 -0.55 1.25 -0.5 1.2 -0.5 1.15 -0.45 1.15 -0.4 1.1 -0.35 Q1.05 -0.35 1.05 -0.4 L1.1 -0.45 1.1 -0.55 1.1 -0.65 1.15 -0.7 1.15 -0.7 1.15 -0.65 1.2 -0.6 Q1.25 -0.55 1.25 -0.6 L1.25 -0.75 1.35 -0.8 1.4 -0.8 1.4 -0.9 1.45 -0.85 M1.45 -0.7 L1.45 -0.7" fill="#ee475f" fill-rule="evenodd" stroke="none"/>
    <path d="M1.15 -0.75 L1.2 -0.75 1.2 -0.7 Q1.15 -0.65 1.15 -0.75" fill="#ffbea8" fill-rule="evenodd" stroke="none"/>
    <path d="M1.4 -0.95 L1.4 -0.9 1.45 -0.85 1.4 -0.9 1.35 -0.9 1.3 -0.9 1.4 -0.95" fill="#a63b63" fill-rule="evenodd" stroke="none"/>
    <path d="M1.45 -0.85 L1.45 -0.7 Q1.45 -0.8 1.4 -0.75 L1.4 -0.8 1.45 -0.85" fill="#a92d4b" fill-rule="evenodd" stroke="none"/>
    <path d="M1.45 -0.7 L1.3 -0.55 1.3 -0.7 1.35 -0.7 1.45 -0.7" fill="#ad2d4b" fill-rule="evenodd" stroke="none"/>
    <path d="M1.0 0.0 L1.05 -0.05 1.1 -0.15 1.2 -0.15 1.2 -0.1 1.1 -0.05 1.1 0.0 1.15 0.05 1.05 0.0 1.0 0.0 M1.25 -0.3 L1.3 -0.35 1.35 -0.4 Q1.4 -0.4 1.4 -0.45 L1.5 -0.55 1.55 -0.5 1.4 -0.35 1.3 -0.25 Q1.25 -0.2 1.25 -0.25 L1.25 -0.3" fill="#9d2747" fill-rule="evenodd" stroke="none"/>
    <path d="M1.5 -0.4 L1.55 -0.4 1.55 -0.3 1.5 -0.25 1.5 -0.15 1.4 -0.15 1.4 -0.1 1.35 -0.05 1.35 0.0 Q1.3 0.0 1.25 -0.05 1.25 -0.05 1.25 -0.1 L1.25 -0.2 1.3 -0.2 1.35 -0.2 1.35 -0.25 Q1.4 -0.3 1.45 -0.25 L1.45 -0.35 1.5 -0.4" fill="#532041" fill-rule="evenodd" stroke="none"/>
    <path d="M1.25 -0.5 L1.2 -0.45 1.15 -0.45 1.2 -0.5 1.25 -0.5" fill="#a82c49" fill-rule="evenodd" stroke="none"/>
    <path d="M1.1 -0.2 L1.1 -0.15 1.05 -0.2 1.1 -0.2 1.1 -0.2" fill="#ae2b4c" fill-rule="evenodd" stroke="none"/>
    <path d="M1.55 0.05 L1.5 0.1 1.5 -0.15 Q1.55 -0.15 1.55 -0.05 L1.55 0.05" fill="#b22c4b" fill-rule="evenodd" stroke="none"/>
    <path d="M1.65 -0.1 L1.65 -0.15 Q1.6 -0.2 1.6 -0.25 L1.6 -0.3 1.65 -0.35 Q1.65 -0.4 1.7 -0.4 L1.75 -0.45 1.8 -0.5 1.85 -0.5 1.85 -0.45 Q1.9 -0.4 1.95 -0.4 L2.0 -0.55 Q2.05 -0.6 2.1 -0.55 L2.1 -0.5 2.05 -0.4 Q2.0 -0.3 2.0 -0.25 L1.95 -0.25 1.9 -0.3 1.85 -0.35 1.8 -0.4 Q1.75 -0.35 1.8 -0.3 L1.85 -0.2 1.8 -0.15 1.8 -0.1 1.8 -0.25 1.75 -0.3 1.75 -0.35 1.7 -0.4 1.7 -0.4 1.65 -0.35 1.75 -0.25 1.7 -0.15 1.65 -0.1 M1.9 -0.3 L2.0 -0.3 Q2.0 -0.3 2.0 -0.35 L1.95 -0.4 1.9 -0.4 1.9 -0.3" fill="#a32746" fill-rule="evenodd" stroke="none"/>
    <path d="M1.9 -0.3 L1.9 -0.3 1.9 -0.4 1.95 -0.4 2.0 -0.35 Q2.0 -0.3 2.0 -0.3 L1.9 -0.3" fill="#c62d4e" fill-rule="evenodd" stroke="none"/>
    <path d="M1.75 -0.1 L1.7 -0.05 Q1.65 0.0 1.65 -0.05 L1.65 -0.1 1.7 -0.15 1.75 -0.25 1.65 -0.35 1.7 -0.4 1.7 -0.4 1.75 -0.35 1.75 -0.3 1.8 -0.25 1.8 -0.1 1.75 -0.1" fill="#d93452" fill-rule="evenodd" stroke="none"/>
    <path d="M1.55 0.05 L1.65 0.05 1.7 0.0 1.8 -0.05 1.85 -0.05 1.95 0.0 2.05 0.0 2.1 -0.05 2.2 0.0 2.2 0.1 Q2.15 0.05 2.1 0.1 L2.0 0.1 1.95 0.05 1.9 0.1 1.95 0.2 1.85 0.1 1.75 0.05 1.7 0.1 1.7 0.15 1.65 0.1 1.6 0.05 1.6 0.2 Q1.6 0.25 1.7 0.25 1.75 0.2 1.85 0.3 1.95 0.35 1.9 0.45 L1.85 0.45 1.65 0.35 Q1.6 0.35 1.6 0.25 L1.55 0.2 1.5 0.15 1.5 0.1 1.55 0.15 1.55 0.05" fill="#51203f" fill-rule="evenodd" stroke="none"/>
    <path d="M2.2 -1.6 L2.2 -1.55 2.0 -1.55 Q2.0 -1.65 2.2 -1.6" fill="#c583e0" fill-rule="evenodd" stroke="none"/>
    <path d="M2.2 0.55 L2.2 0.6 Q2.1 0.6 2.05 0.65 L1.9 0.75 1.7 0.8 1.55 0.9 1.5 0.9 1.6 0.85 1.7 0.8 1.8 0.75 1.9 0.7 2.05 0.6 2.2 0.55" fill="#f7a9f3" fill-rule="evenodd" stroke="none"/>
    <path d="M2.2 0.5 L2.2 0.55 2.05 0.6 1.9 0.7 1.95 0.65 2.0 0.6 2.1 0.55 2.2 0.5" fill="#d173cb" fill-rule="evenodd" stroke="none"/>
    <path d="M2.2 0.45 L2.2 0.5 2.1 0.55 2.0 0.6 Q2.0 0.55 2.1 0.55 L2.2 0.45" fill="#91488c" fill-rule="evenodd" stroke="none"/>
    <path d="M2.2 0.1 L2.2 0.45 2.1 0.55 Q2.0 0.55 2.0 0.6 1.85 0.7 1.75 0.7 L1.7 0.75 1.65 0.8 1.6 0.8 Q1.55 0.8 1.5 0.85 L1.45 0.9 1.35 0.8 Q1.35 0.75 1.3 0.75 L1.25 0.6 1.25 0.45 1.25 0.35 1.2 0.25 1.2 0.2 1.25 0.15 1.3 0.3 Q1.3 0.35 1.3 0.4 L1.35 0.5 1.35 0.55 Q1.4 0.45 1.35 0.3 L1.4 0.3 1.4 0.25 1.45 0.25 1.45 0.2 1.5 0.15 1.55 0.2 1.6 0.25 Q1.6 0.35 1.65 0.35 L1.85 0.45 1.9 0.45 Q1.95 0.35 1.85 0.3 1.75 0.2 1.7 0.25 1.6 0.25 1.6 0.2 L1.6 0.05 1.65 0.1 1.7 0.15 1.7 0.1 1.75 0.05 1.85 0.1 1.95 0.2 1.9 0.1 1.95 0.05 2.0 0.1 2.1 0.1 Q2.15 0.05 2.2 0.1" fill="#452043" fill-rule="evenodd" stroke="none"/>
    <path d="M2.2 0.6 L2.2 0.65 2.0 0.7 Q1.9 0.8 1.8 0.8 L1.6 0.9 1.45 1.0 Q1.45 1.0 1.5 1.0 1.5 1.0 1.55 1.0 L1.7 0.95 Q1.8 1.0 1.8 1.05 L1.75 1.2 1.65 1.25 1.55 1.25 Q1.5 1.25 1.5 1.25 1.45 1.3 1.5 1.35 L1.6 1.4 1.7 1.4 1.85 1.35 2.2 1.4 2.2 1.45 1.95 1.5 1.75 1.5 1.3 1.35 1.35 1.25 1.35 1.2 Q1.4 1.1 1.3 1.05 L1.35 1.0 1.4 0.95 1.5 0.95 1.55 0.9 1.7 0.8 1.9 0.75 2.05 0.65 Q2.1 0.6 2.2 0.6 M-1.55 -2.2 L-0.05 -2.2 -0.2 -2.1 Q-0.3 -2.0 -0.35 -2.0 L-0.55 -2.0 -0.75 -2.0 -1.2 -1.85 Q-1.25 -1.8 -1.45 -1.8 L-1.55 -1.8 -1.7 -1.75 -1.75 -1.75 -1.8 -1.65 -1.9 -1.55 -1.95 -1.45 -1.8 -1.3 -1.6 -1.2 -1.55 -1.2 Q-1.5 -1.2 -1.45 -1.2 -1.4 -1.2 -1.4 -1.15 L-1.4 -0.95 -1.3 -0.85 -1.45 -1.0 Q-1.55 -1.05 -1.6 -1.1 -1.9 -1.3 -2.15 -1.7 L-1.85 -1.95 -1.55 -2.2" fill="#ffe6ff" fill-rule="evenodd" stroke="none"/>
    <path d="M2.2 1.45 L2.2 1.55 2.0 1.55 1.8 1.55 1.6 1.55 1.25 1.45 1.05 1.45 1.0 1.35 0.9 1.3 0.9 1.25 0.8 1.25 0.85 1.2 0.85 1.1 0.85 1.15 1.0 1.1 1.1 1.05 1.3 1.0 1.5 0.9 1.55 0.9 1.5 0.95 1.4 0.95 1.35 1.0 1.3 1.05 Q1.4 1.1 1.35 1.2 L1.35 1.25 1.3 1.35 1.75 1.5 1.95 1.5 2.2 1.45" fill="#ffd3fe" fill-rule="evenodd" stroke="none"/>
    <path d="M2.2 1.7 L2.2 1.75 2.1 1.8 2.05 1.8 1.95 1.75 1.85 1.75 Q1.8 1.75 1.8 1.8 L1.75 1.85 1.75 1.9 1.75 1.75 1.8 1.7 1.9 1.7 2.0 1.7 2.1 1.75 2.2 1.7" fill="#8770e0" fill-rule="evenodd" stroke="none"/>
    <path d="M2.2 1.75 L2.2 1.9 1.85 1.8 1.75 1.85 1.8 1.8 Q1.8 1.75 1.85 1.75 L1.95 1.75 2.05 1.8 2.1 1.8 2.2 1.75" fill="#6c64d6" fill-rule="evenodd" stroke="none"/>
    <path d="M2.2 1.7 L2.1 1.75 2.0 1.7 1.9 1.7 1.8 1.7 1.75 1.75 1.7 1.75 1.65 1.7 1.75 1.7 1.8 1.65 2.0 1.65 2.2 1.7" fill="#a77eea" fill-rule="evenodd" stroke="none"/>
    <path d="M2.2 1.65 L2.2 1.7 2.0 1.65 1.8 1.65 1.75 1.7 1.65 1.7 1.55 1.7 1.6 1.65 1.9 1.65 2.2 1.65" fill="#c78ff3" fill-rule="evenodd" stroke="none"/>
    <path d="M2.2 1.6 L2.2 1.65 1.9 1.65 1.6 1.65 1.55 1.65 1.65 1.6 1.9 1.6 2.2 1.6" fill="#e5a6fa" fill-rule="evenodd" stroke="none"/>
    <path d="M2.2 1.55 L2.2 1.6 1.9 1.6 1.65 1.6 1.55 1.6 1.45 1.55 1.2 1.5 1.05 1.5 0.9 1.3 1.0 1.35 1.05 1.45 1.25 1.45 1.6 1.55 1.8 1.55 2.0 1.55 2.2 1.55" fill="#fcbbfd" fill-rule="evenodd" stroke="none"/>
    <path d="M2.2 1.95 L2.2 2.2 1.95 2.2 1.95 2.15 1.95 2.05 1.9 2.0 1.85 1.95 Q1.85 1.9 1.85 1.85 1.85 1.85 1.9 1.85 L1.95 1.85 2.2 1.95" fill="#4c4fba" fill-rule="evenodd" stroke="none"/>
    <path d="M2.2 1.9 L2.2 1.95 1.95 1.85 1.9 1.85 Q1.85 1.85 1.85 1.85 1.85 1.9 1.85 1.95 L1.9 2.0 1.95 2.05 1.95 2.15 1.95 2.2 1.85 2.2 1.8 2.05 1.75 1.9 1.75 1.85 1.85 1.8 2.2 1.9" fill="#6755c0" fill-rule="evenodd" stroke="none"/>
    <path d="M2.2 0.65 L2.2 1.4 1.85 1.35 1.7 1.4 1.6 1.4 1.5 1.35 Q1.45 1.3 1.5 1.25 1.5 1.25 1.55 1.25 L1.65 1.25 1.75 1.2 1.8 1.05 Q1.8 1.0 1.7 0.95 L1.55 1.0 Q1.5 1.0 1.5 1.0 1.45 1.0 1.45 1.0 L1.6 0.9 1.8 0.8 Q1.9 0.8 2.0 0.7 L2.2 0.65" fill="#fff3ff" fill-rule="evenodd" stroke="none"/>
    <path d="M1.4 0.05 L1.45 0.1 1.5 0.15 Q1.45 0.2 1.45 0.15 L1.4 0.05" fill="#a82a47" fill-rule="evenodd" stroke="none"/>
    <path d="M1.35 0.0 L1.35 0.05 1.3 0.1 Q1.3 0.1 1.3 0.05 L1.35 0.0 1.35 0.0" fill="#dd3e5b" fill-rule="evenodd" stroke="none"/>
    <path d="M1.4 0.25 L1.4 0.3 1.35 0.3 1.35 0.35 1.3 0.3 1.3 0.15 Q1.3 0.1 1.35 0.1 L1.4 0.2 1.4 0.25" fill="#d43554" fill-rule="evenodd" stroke="none"/>
    <path d="M1.05 0.2 L1.1 0.2 1.1 0.25 1.05 0.2" fill="#ac2a4a" fill-rule="evenodd" stroke="none"/>
    <path d="M1.2 0.25 L1.25 0.35 1.25 0.45 1.2 0.45 1.2 0.3 1.2 0.25" fill="#a52a47" fill-rule="evenodd" stroke="none"/>
    <path d="M1.1 0.55 L1.05 0.45 1.05 0.4 1.05 0.35 Q1.05 0.3 1.1 0.3 1.15 0.45 1.1 0.55 L1.1 0.55" fill="#c52f4d" fill-rule="evenodd" stroke="none"/>
    <path d="M1.05 0.6 L1.1 0.55 1.15 0.7 1.15 0.8 1.2 0.8 1.2 0.75 1.25 0.85 1.25 0.95 1.3 0.95 1.35 0.9 1.4 0.9 1.3 1.0 1.25 0.95 1.2 0.95 1.2 1.0 Q1.15 1.0 1.15 1.0 L1.1 0.95 1.05 0.85 1.05 1.0 1.0 1.1 0.95 1.15 0.85 1.15 0.85 1.1 0.85 0.95 0.8 0.85 0.7 0.8 Q0.7 0.7 0.65 0.7 L0.55 0.65 0.5 0.6 0.45 0.55 0.4 0.5 0.6 0.6 0.65 0.65 0.75 0.65 0.75 0.8 0.8 0.65 0.8 0.55 0.85 0.65 0.85 0.75 0.95 0.75 0.95 0.7 Q1.0 0.75 1.0 0.7 L1.05 0.6 M1.1 0.55 L1.1 0.55" fill="#932444" fill-rule="evenodd" stroke="none"/>
    <path d="M1.35 0.3 Q1.4 0.45 1.35 0.55 L1.35 0.5 1.3 0.4 Q1.3 0.35 1.3 0.3 L1.35 0.35 1.35 0.3" fill="#632240" fill-rule="evenodd" stroke="none"/>
    <path d="M1.45 0.9 L1.5 0.85 Q1.55 0.8 1.6 0.8 L1.5 0.85 1.4 0.9 1.45 0.9" fill="#99407a" fill-rule="evenodd" stroke="none"/>
    <path d="M1.25 1.0 L1.2 1.0 1.1 1.05 1.05 1.1 1.0 1.1 1.05 1.0 1.05 0.85 1.1 0.95 1.15 1.0 Q1.15 1.0 1.2 1.0 L1.2 0.95 1.25 0.95 1.3 1.0 1.25 1.0" fill="#bb2a4b" fill-rule="evenodd" stroke="none"/>
    <path d="M1.6 0.8 L1.65 0.8 1.7 0.8 1.6 0.85 1.5 0.9 1.3 1.0 1.1 1.05 1.0 1.1 0.85 1.15 0.95 1.15 1.0 1.1 1.05 1.1 1.1 1.05 1.25 1.0 1.3 1.0 1.4 0.9 1.5 0.85 1.6 0.8" fill="#ee74c2" fill-rule="evenodd" stroke="none"/>
    <path d="M1.1 1.05 L1.2 1.0 1.25 1.0 1.1 1.05" fill="#ec497e" fill-rule="evenodd" stroke="none"/>
    <path d="M1.7 0.8 Q1.7 0.75 1.8 0.75 L1.85 0.7 1.9 0.7 1.8 0.75 1.7 0.8" fill="#cd71ca" fill-rule="evenodd" stroke="none"/>
    <path d="M1.65 0.8 L1.7 0.75 1.75 0.7 Q1.85 0.7 2.0 0.6 L1.95 0.65 1.9 0.7 1.85 0.7 1.8 0.75 Q1.7 0.75 1.7 0.8 L1.65 0.8" fill="#90468a" fill-rule="evenodd" stroke="none"/>
    <path d="M1.0 0.5 L1.05 0.6 1.0 0.7 Q1.0 0.75 0.95 0.7 L1.0 0.6 1.0 0.5" fill="#e53a5b" fill-rule="evenodd" stroke="none"/>
    <path d="M0.55 0.3 L0.55 0.25 0.5 0.2 0.5 0.05 0.55 0.1 0.55 0.15 0.6 0.25 0.6 0.35 0.55 0.3" fill="#c93a58" fill-rule="evenodd" stroke="none"/>
    <path d="M0.35 0.35 L0.4 0.45 0.45 0.35 Q0.45 0.3 0.5 0.3 L0.5 0.35 Q0.45 0.4 0.5 0.45 L0.55 0.4 0.55 0.3 0.6 0.35 0.6 0.45 Q0.55 0.5 0.6 0.55 L0.7 0.6 0.75 0.6 0.75 0.65 0.65 0.65 0.6 0.6 0.4 0.5 0.35 0.45 0.35 0.35" fill="#792648" fill-rule="evenodd" stroke="none"/>
    <path d="M0.8 0.55 L0.85 0.6 0.85 0.55 Q0.85 0.5 0.9 0.4 L0.95 0.45 1.0 0.5 1.0 0.6 0.95 0.7 0.95 0.75 0.85 0.75 0.85 0.65 0.8 0.55" fill="#63213f" fill-rule="evenodd" stroke="none"/>
    <path d="M0.75 0.6 Q0.75 0.5 0.8 0.55 L0.8 0.65 0.75 0.8 0.75 0.65 0.75 0.6" fill="#e6355a" fill-rule="evenodd" stroke="none"/>
    <path d="M0.4 0.2 L0.4 0.25 0.35 0.35 0.3 0.3 0.3 0.25 0.35 0.25 0.4 0.2" fill="#87284c" fill-rule="evenodd" stroke="none"/>
    <path d="M0.35 0.1 L0.45 0.1 0.45 0.15 0.4 0.2 0.35 0.1" fill="#7c2547" fill-rule="evenodd" stroke="none"/>
    <path d="M0.2 0.1 L0.2 0.05 0.25 0.05 0.25 0.1 0.2 0.1" fill="#ef4569" fill-rule="evenodd" stroke="none"/>
    <path d="M-0.1 0.15 L-0.05 0.15 0.0 0.2 0.05 0.15 0.05 0.1 0.1 0.15 0.05 0.2 -0.05 0.25 -0.1 0.25 -0.15 0.3 -0.2 0.3 Q-0.2 0.25 -0.25 0.3 L-0.3 0.3 -0.35 0.25 -0.4 0.25 -0.35 0.2 -0.35 0.25 -0.3 0.25 -0.25 0.25 Q-0.2 0.2 -0.2 0.15 L-0.15 0.15 -0.15 0.15 -0.1 0.2 -0.1 0.15 M-0.4 0.25 L-0.4 0.25" fill="#85315c" fill-rule="evenodd" stroke="none"/>
    <path d="M0.15 0.3 L0.2 0.3 0.2 0.4 0.25 0.45 0.15 0.45 0.1 0.45 Q0.1 0.5 0.15 0.5 L0.15 0.55 0.1 0.55 0.05 0.5 0.0 0.5 0.0 0.55 Q0.1 0.6 0.15 0.7 0.15 0.7 0.2 0.65 L0.25 0.65 0.2 0.75 0.1 0.8 0.1 0.9 0.1 0.85 0.05 0.8 0.05 0.7 0.1 0.65 0.05 0.65 0.0 0.65 0.0 0.7 -0.05 0.7 -0.1 0.7 -0.1 0.75 Q-0.05 0.8 -0.05 0.8 L-0.1 0.85 -0.1 0.9 -0.2 1.05 -0.2 1.2 -0.15 1.25 -0.1 1.25 -0.1 1.25 -0.1 1.3 -0.1 1.35 -0.15 1.5 -0.2 1.65 -0.3 1.65 -0.35 1.6 -0.45 1.55 -0.5 1.45 -0.55 1.45 -0.6 1.5 -0.6 1.45 -0.55 1.4 -0.45 1.35 -0.35 1.4 Q-0.3 1.45 -0.3 1.5 -0.35 1.65 -0.25 1.6 L-0.2 1.55 -0.2 1.45 Q-0.15 1.35 -0.2 1.25 -0.3 1.15 -0.4 1.15 -0.3 1.1 -0.4 1.05 L-0.5 1.0 -0.4 0.95 -0.35 0.85 -0.4 0.7 -0.35 0.55 -0.25 0.5 -0.2 0.5 -0.15 0.5 -0.05 0.4 0.0 0.35 -0.15 0.3 -0.05 0.3 0.05 0.25 0.1 0.3 0.15 0.3 M-0.6 1.45 L-0.6 1.45 M-0.1 1.35 L-0.1 1.35" fill="#fb4a7c" fill-rule="evenodd" stroke="none"/>
    <path d="M0.05 0.2 L0.05 0.25 0.1 0.25 0.1 0.2 0.15 0.2 0.2 0.2 0.2 0.25 0.15 0.3 0.1 0.3 0.05 0.25 -0.05 0.3 -0.15 0.3 -0.1 0.25 -0.05 0.25 0.05 0.2 M-0.3 0.3 L-0.25 0.3 Q-0.2 0.25 -0.2 0.3 L-0.15 0.3 -0.2 0.35 -0.3 0.3" fill="#d33e6c" fill-rule="evenodd" stroke="none"/>
    <path d="M0.2 0.4 L0.25 0.35 Q0.25 0.35 0.3 0.35 L0.3 0.4 Q0.35 0.45 0.35 0.45 L0.35 0.5 0.3 0.55 0.4 0.55 0.45 0.55 0.45 0.65 0.5 0.7 0.55 0.8 0.65 0.85 Q0.65 0.9 0.6 0.9 L0.5 0.9 0.45 0.9 0.5 0.95 0.55 1.05 0.5 1.1 0.4 1.1 0.35 1.05 0.25 0.9 Q0.2 0.75 0.25 0.7 L0.3 0.65 0.3 0.55 0.25 0.6 0.2 0.55 0.1 0.45 0.15 0.45 0.25 0.45 0.2 0.4" fill="#f33564" fill-rule="evenodd" stroke="none"/>
    <path d="M0.1 0.9 L0.1 0.8 0.2 0.75 0.25 0.65 0.2 0.65 Q0.15 0.7 0.15 0.7 0.1 0.6 0.0 0.55 L0.0 0.5 0.05 0.5 0.1 0.55 0.15 0.55 0.15 0.5 Q0.1 0.5 0.1 0.45 L0.2 0.55 0.25 0.6 0.3 0.55 0.3 0.65 0.25 0.7 Q0.2 0.75 0.25 0.9 L0.35 1.05 0.3 1.05 0.2 1.05 0.15 1.0 0.1 0.9" fill="#fb4071" fill-rule="evenodd" stroke="none"/>
    <path d="M0.65 0.85 L0.55 0.8 0.5 0.7 0.45 0.65 0.45 0.55 0.4 0.55 0.3 0.55 0.35 0.5 0.35 0.45 0.4 0.5 0.45 0.55 0.5 0.6 0.55 0.65 0.65 0.7 Q0.7 0.7 0.7 0.8 L0.8 0.85 0.85 0.95 0.85 1.1 0.8 1.05 0.75 0.95 0.7 0.9 0.65 0.85" fill="#b9284c" fill-rule="evenodd" stroke="none"/>
    <path d="M0.55 1.05 L0.5 0.95 0.45 0.9 0.5 0.9 0.55 0.95 0.6 1.0 0.55 1.0 0.55 1.05" fill="#fdabe5" fill-rule="evenodd" stroke="none"/>
    <path d="M-0.1 1.25 L-0.15 1.25 -0.2 1.2 -0.2 1.05 -0.1 0.9 -0.1 0.85 -0.05 0.8 Q-0.05 0.8 -0.1 0.75 L-0.1 0.7 -0.05 0.7 0.0 0.7 0.0 0.65 0.05 0.65 0.1 0.65 0.05 0.7 0.05 0.8 0.1 0.85 0.05 0.9 0.05 0.8 0.0 0.75 Q0.0 0.85 -0.05 0.95 L-0.1 1.05 -0.15 1.1 -0.1 1.15 Q-0.05 1.2 -0.1 1.2 L-0.1 1.25" fill="#ff5b7d" fill-rule="evenodd" stroke="none"/>
    <path d="M-0.1 1.3 L-0.1 1.25 -0.1 1.25 -0.1 1.2 -0.05 1.2 0.0 1.25 0.0 1.25 0.05 1.2 Q0.0 1.2 0.05 1.2 L0.1 1.2 0.05 1.15 0.05 1.05 0.05 0.95 0.05 0.9 0.1 0.85 0.1 0.9 0.15 1.0 0.2 1.05 0.3 1.05 0.35 1.05 0.4 1.1 0.5 1.1 0.55 1.05 0.55 1.0 0.6 1.0 0.65 1.0 0.7 1.0 0.75 0.95 0.8 1.05 0.85 1.1 0.85 1.2 0.8 1.25 0.65 1.2 0.5 1.2 0.45 1.2 0.35 1.25 Q0.25 1.3 0.25 1.35 L0.2 1.35 0.2 1.5 0.15 1.5 0.1 1.5 Q-0.1 1.45 -0.1 1.3" fill="#fff2fa" fill-rule="evenodd" stroke="none"/>
    <path d="M-0.1 1.2 Q-0.05 1.2 -0.1 1.15 L-0.15 1.1 -0.1 1.05 -0.05 0.95 Q0.0 0.85 0.0 0.75 L0.05 0.8 0.05 0.9 0.05 0.95 0.0 1.0 0.05 1.05 0.05 1.15 0.1 1.2 0.05 1.2 0.0 1.15 0.0 1.1 -0.05 1.15 -0.05 1.2 -0.1 1.2" fill="#ff707f" fill-rule="evenodd" stroke="none"/>
    <path d="M0.05 1.05 L0.0 1.0 0.05 0.95 0.05 1.05" fill="#ffaab8" fill-rule="evenodd" stroke="none"/>
    <path d="M0.05 1.2 Q0.0 1.2 0.05 1.2 L0.0 1.25 0.0 1.25 -0.05 1.2 -0.05 1.15 0.0 1.1 0.0 1.15 0.05 1.2" fill="#ffe1cf" fill-rule="evenodd" stroke="none"/>
    <path d="M0.45 1.2 L0.4 1.25 0.45 1.25 0.5 1.3 0.4 1.35 Q0.4 1.35 0.4 1.4 L0.4 1.45 0.35 1.5 0.3 1.5 Q0.25 1.55 0.25 1.45 L0.25 1.35 Q0.25 1.3 0.35 1.25 L0.45 1.2" fill="#fe6787" fill-rule="evenodd" stroke="none"/>
    <path d="M0.45 1.2 L0.5 1.2 Q0.5 1.3 0.6 1.35 L0.75 1.35 0.75 1.5 0.8 1.5 0.9 1.5 Q0.9 1.45 0.85 1.4 L0.85 1.3 0.8 1.25 0.9 1.25 0.9 1.3 1.0 1.5 0.95 1.5 0.9 1.5 0.85 1.55 0.8 1.55 0.75 1.6 0.7 1.65 0.7 1.75 0.7 1.85 0.5 1.75 0.5 1.65 Q0.45 1.6 0.5 1.55 L0.5 1.5 0.55 1.45 0.5 1.4 0.4 1.4 0.4 1.35 0.5 1.3 0.45 1.25 0.4 1.25 0.45 1.2" fill="#ffb3b3" fill-rule="evenodd" stroke="none"/>
    <path d="M0.5 0.9 L0.6 0.9 Q0.65 0.9 0.65 0.85 L0.7 0.9 0.75 0.95 0.7 1.0 0.65 1.0 0.6 1.0 0.55 0.95 0.5 0.9" fill="#d92d56" fill-rule="evenodd" stroke="none"/>
    <path d="M0.65 1.0 L0.7 1.0 0.65 1.0" fill="#f67dc3" fill-rule="evenodd" stroke="none"/>
    <path d="M0.5 1.2 L0.65 1.2 0.8 1.25 0.85 1.3 0.85 1.4 Q0.9 1.45 0.9 1.5 L0.8 1.5 0.75 1.5 0.75 1.35 0.6 1.35 Q0.5 1.3 0.5 1.2" fill="#ffdfc6" fill-rule="evenodd" stroke="none"/>
    <path d="M1.0 1.5 L0.9 1.3 1.05 1.5 1.2 1.5 1.45 1.55 1.55 1.6 1.65 1.6 1.55 1.65 1.3 1.55 1.2 1.55 1.1 1.6 1.05 1.55 1.0 1.5" fill="#fca3f0" fill-rule="evenodd" stroke="none"/>
    <path d="M0.75 1.6 L0.8 1.55 0.85 1.55 0.9 1.5 0.95 1.5 1.0 1.5 1.05 1.55 0.9 1.6 0.75 1.6" fill="#ff989d" fill-rule="evenodd" stroke="none"/>
    <path d="M-0.1 1.35 L-0.1 1.35 -0.05 1.45 0.05 1.55 Q0.05 1.6 0.1 1.6 L0.2 1.55 0.25 1.45 0.2 1.35 0.25 1.35 0.25 1.45 Q0.25 1.55 0.3 1.5 L0.35 1.5 0.4 1.45 0.4 1.4 Q0.4 1.35 0.4 1.35 L0.4 1.4 0.5 1.4 0.55 1.45 0.5 1.5 0.5 1.55 Q0.45 1.6 0.5 1.65 L0.5 1.75 0.7 1.85 0.7 1.75 0.75 1.85 0.7 1.9 0.5 1.8 Q0.45 1.75 0.45 1.7 L0.5 1.65 0.45 1.6 0.35 1.6 0.4 1.75 Q0.4 1.85 0.35 1.9 L0.15 1.8 -0.1 1.8 -0.15 1.85 -0.15 1.9 -0.1 1.95 Q-0.05 2.0 -0.1 2.05 L-0.15 2.0 -0.25 1.95 -0.3 1.9 -0.4 1.9 -0.25 1.9 -0.2 1.95 -0.15 1.95 -0.2 1.9 -0.15 1.85 0.0 1.75 0.2 1.8 0.25 1.8 Q0.3 1.8 0.3 1.75 L0.25 1.7 0.2 1.7 0.15 1.7 0.1 1.65 0.05 1.65 0.0 1.65 -0.05 1.6 -0.1 1.65 -0.15 1.7 -0.2 1.75 -0.15 1.7 -0.15 1.65 -0.05 1.55 -0.05 1.5 -0.1 1.45 -0.1 1.35 M0.25 1.6 L0.2 1.6 0.15 1.6 0.1 1.6 0.15 1.65 0.25 1.7 0.35 1.7 0.25 1.6" fill="#ff99a8" fill-rule="evenodd" stroke="none"/>
    <path d="M0.75 1.8 L0.7 1.7 0.75 1.6 0.95 1.7 1.0 1.75 1.1 1.75 1.25 1.75 1.25 1.8 1.15 1.8 1.15 1.85 1.2 1.9 1.05 1.9 0.9 1.95 0.85 1.9 0.8 1.85 0.75 1.8 M0.8 1.85 L0.9 1.9 1.0 1.9 0.95 1.8 0.9 1.8 0.85 1.8 0.8 1.85" fill="#f64268" fill-rule="evenodd" stroke="none"/>
    <path d="M0.7 1.75 L0.7 1.65 0.75 1.6 0.7 1.7 0.75 1.8 0.75 1.95 0.7 1.9 0.6 1.9 0.5 1.85 Q0.45 1.8 0.4 1.85 0.4 1.9 0.3 1.9 L0.25 1.85 -0.1 1.8 0.15 1.8 0.35 1.9 Q0.4 1.85 0.4 1.75 L0.35 1.6 0.45 1.6 0.5 1.65 0.45 1.7 Q0.45 1.75 0.5 1.8 L0.7 1.9 0.75 1.85 0.7 1.75 M1.25 1.75 L1.15 1.65 1.05 1.65 0.95 1.65 0.85 1.6 0.8 1.6 0.75 1.6 0.9 1.6 1.05 1.55 1.15 1.65 1.25 1.7 1.25 1.75" fill="#ff778d" fill-rule="evenodd" stroke="none"/>
    <path d="M0.75 1.6 L0.8 1.6 0.85 1.6 0.95 1.65 1.05 1.65 1.15 1.65 1.25 1.75 1.1 1.75 1.0 1.75 0.95 1.7 0.75 1.6" fill="#fe5d76" fill-rule="evenodd" stroke="none"/>
    <path d="M0.8 1.85 L0.85 1.8 0.9 1.8 0.95 1.8 1.0 1.9 0.9 1.9 0.8 1.85" fill="#dd3359" fill-rule="evenodd" stroke="none"/>
    <path d="M0.6 1.9 L0.7 1.9 0.75 1.95 0.75 1.8 0.8 1.85 0.85 1.9 0.9 1.95 1.05 1.9 1.2 1.9 1.5 2.0 1.3 2.0 1.1 1.9 1.0 1.95 0.95 2.0 0.9 2.2 0.9 2.1 0.8 1.95 0.6 1.9" fill="#fc6578" fill-rule="evenodd" stroke="none"/>
    <path d="M-0.1 1.35 L-0.1 1.3 Q-0.1 1.45 0.1 1.5 L0.15 1.5 0.2 1.5 0.2 1.35 0.25 1.45 0.2 1.55 0.1 1.6 Q0.05 1.6 0.05 1.55 L-0.05 1.45 -0.1 1.35" fill="#ffd1d5" fill-rule="evenodd" stroke="none"/>
    <path d="M0.25 1.6 L0.35 1.7 0.25 1.7 0.15 1.65 0.1 1.6 0.15 1.6 0.2 1.6 0.25 1.6" fill="#ff748b" fill-rule="evenodd" stroke="none"/>
    <path d="M0.2 1.7 L0.15 1.7 0.1 1.7 0.0 1.65 Q-0.1 1.65 -0.15 1.75 L-0.25 1.75 Q-0.3 1.8 -0.3 1.85 L-0.25 1.85 -0.15 1.85 -0.2 1.9 -0.15 1.95 -0.2 1.95 -0.25 1.9 -0.4 1.9 -0.45 1.9 -0.45 1.85 -0.4 1.8 -0.3 1.8 -0.2 1.75 -0.15 1.7 -0.1 1.65 -0.05 1.6 0.0 1.65 0.05 1.65 0.1 1.65 0.15 1.7 0.2 1.7" fill="#ffaebb" fill-rule="evenodd" stroke="none"/>
    <path d="M-0.15 1.85 L-0.25 1.85 -0.3 1.85 Q-0.3 1.8 -0.25 1.75 L-0.15 1.75 Q-0.1 1.65 0.0 1.65 L0.1 1.7 0.15 1.7 0.2 1.7 0.25 1.7 0.3 1.75 Q0.3 1.8 0.25 1.8 L0.2 1.8 0.0 1.75 -0.15 1.85" fill="#ffd2d8" fill-rule="evenodd" stroke="none"/>
    <path d="M0.65 2.2 L0.05 2.2 0.05 2.05 Q0.1 2.05 0.1 2.05 L0.2 2.05 Q0.25 2.05 0.25 2.1 0.3 2.15 0.4 2.15 L0.6 2.1 0.65 2.1 0.65 2.2" fill="#9c2e50" fill-rule="evenodd" stroke="none"/>
    <path d="M0.9 2.2 L0.65 2.2 0.65 2.1 0.6 2.1 0.4 2.15 Q0.3 2.15 0.25 2.1 0.25 2.05 0.2 2.05 L0.1 2.05 Q0.1 2.05 0.05 2.05 L0.05 2.2 0.0 2.05 0.1 1.95 0.25 2.0 0.3 2.1 Q0.4 2.15 0.5 2.1 0.5 2.1 0.65 2.0 L0.8 2.05 0.9 2.2" fill="#cc365a" fill-rule="evenodd" stroke="none"/>
    <path d="M0.05 2.2 L0.0 2.2 0.0 1.95 0.0 1.9 0.05 1.9 Q0.2 1.85 0.3 1.95 L0.3 2.05 0.35 2.1 0.5 2.05 0.55 1.95 0.75 2.0 0.9 2.1 0.9 2.2 0.8 2.05 0.65 2.0 Q0.5 2.1 0.5 2.1 0.4 2.15 0.3 2.1 L0.25 2.0 0.1 1.95 0.0 2.05 0.05 2.2" fill="#e94169" fill-rule="evenodd" stroke="none"/>
    <path d="M0.0 2.2 L0.0 2.2 -0.05 2.1 0.0 2.05 Q0.0 2.0 -0.05 1.95 L-0.15 1.9 -0.1 1.85 -0.1 1.8 0.25 1.85 0.3 1.9 Q0.4 1.9 0.4 1.85 0.45 1.8 0.5 1.85 L0.6 1.9 0.8 1.95 0.9 2.1 0.75 2.0 0.55 1.95 0.5 2.05 0.35 2.1 0.3 2.05 0.3 1.95 Q0.2 1.85 0.05 1.9 L0.0 1.9 0.0 1.95 0.0 2.2" fill="#fb5179" fill-rule="evenodd" stroke="none"/>
    <path d="M1.0 2.2 L0.9 2.2 0.95 2.0 1.0 1.95 1.1 1.9 1.3 2.0 1.5 2.0 1.55 1.95 1.6 1.85 1.65 1.85 1.65 1.9 1.6 1.95 1.55 2.0 1.45 2.05 1.35 2.0 1.3 2.0 1.2 2.05 1.15 2.0 1.1 2.05 1.05 2.1 Q1.0 2.1 1.0 2.2" fill="#fe7d86" fill-rule="evenodd" stroke="none"/>
    <path d="M1.6 1.65 L1.55 1.7 1.5 1.7 1.4 1.65 1.25 1.65 1.2 1.6 1.1 1.6 1.2 1.55 1.3 1.55 1.55 1.65 1.6 1.65" fill="#ef87e9" fill-rule="evenodd" stroke="none"/>
    <path d="M1.25 1.8 L1.25 1.75 1.6 1.85 1.55 1.95 1.5 2.0 1.2 1.9 1.45 2.0 1.5 1.95 1.45 1.9 1.25 1.8" fill="#de4c72" fill-rule="evenodd" stroke="none"/>
    <path d="M1.25 1.75 L1.25 1.7 1.25 1.75 1.35 1.75 1.45 1.75 1.6 1.8 1.65 1.85 1.6 1.85 1.25 1.75" fill="#da5494" fill-rule="evenodd" stroke="none"/>
    <path d="M1.85 2.2 L1.8 2.2 1.8 2.05 1.75 1.95 1.7 1.8 1.7 1.75 1.75 1.75 1.75 1.9 1.8 2.05 1.85 2.2" fill="#b36bc6" fill-rule="evenodd" stroke="none"/>
    <path d="M1.55 1.7 L1.65 1.7 1.7 1.75 1.7 1.8 1.3 1.7 1.25 1.65 1.4 1.65 1.5 1.7 1.55 1.7" fill="#d471d7" fill-rule="evenodd" stroke="none"/>
    <path d="M1.25 1.7 L1.15 1.65 1.05 1.55 1.1 1.6 1.2 1.6 1.25 1.65 1.3 1.7 1.25 1.75 1.25 1.7" fill="#fa77bf" fill-rule="evenodd" stroke="none"/>
    <path d="M1.2 1.9 L1.15 1.85 1.15 1.8 1.25 1.8 1.45 1.9 1.5 1.95 1.45 2.0 1.2 1.9" fill="#ca385a" fill-rule="evenodd" stroke="none"/>
    <path d="M1.7 1.8 L1.75 1.95 Q1.7 1.9 1.65 1.9 L1.65 1.85 1.6 1.8 1.45 1.75 1.35 1.75 1.25 1.75 1.3 1.7 1.7 1.8" fill="#d664b9" fill-rule="evenodd" stroke="none"/>
    <path d="M1.05 2.2 L1.0 2.2 Q1.0 2.1 1.05 2.1 L1.1 2.05 1.15 2.0 1.2 2.05 1.3 2.0 1.35 2.0 1.45 2.05 1.55 2.0 1.6 1.95 1.6 2.0 1.5 2.05 1.35 2.05 Q1.35 2.05 1.3 2.1 L1.25 2.1 1.1 2.1 1.05 2.2" fill="#ff9b94" fill-rule="evenodd" stroke="none"/>
    <path d="M1.5 2.2 L1.05 2.2 1.1 2.1 1.25 2.1 1.3 2.1 Q1.35 2.05 1.35 2.05 L1.5 2.05 1.6 2.0 1.6 2.05 1.55 2.05 1.5 2.1 1.5 2.2" fill="#ffbca7" fill-rule="evenodd" stroke="none"/>
    <path d="M1.75 2.2 L1.5 2.2 1.5 2.1 1.55 2.05 1.6 2.05 1.6 2.0 Q1.7 1.9 1.75 2.0 L1.75 2.2" fill="#ffcfbd" fill-rule="evenodd" stroke="none"/>
    <path d="M1.8 2.2 L1.75 2.2 1.75 2.0 Q1.7 1.9 1.6 2.0 L1.6 1.95 1.65 1.9 Q1.7 1.9 1.75 1.95 L1.8 2.05 1.8 2.2" fill="#f499c4" fill-rule="evenodd" stroke="none"/>
    <path d="M-2.2 -1.55 L-2.2 -1.6 -2.1 -1.5 -2.0 -1.4 -1.8 -1.15 -1.55 -1.0 -1.6 -1.0 -1.85 -1.2 -2.05 -1.4 -2.1 -1.45 -2.2 -1.55" fill="#f566a4" fill-rule="evenodd" stroke="none"/>
    <path d="M-2.2 -1.6 L-2.2 -1.7 -2.05 -1.5 -1.9 -1.3 -1.65 -1.05 -1.35 -0.85 -1.45 -0.9 -1.5 -0.95 -1.55 -1.0 -1.8 -1.15 -2.0 -1.4 -2.1 -1.5 -2.2 -1.6" fill="#fe9ae1" fill-rule="evenodd" stroke="none"/>
    <path d="M-2.2 -0.95 L-2.2 -1.05 -2.15 -1.05 Q-2.1 -1.05 -2.1 -1.05 L-2.1 -1.2 Q-2.15 -1.25 -2.2 -1.3 L-2.2 -1.35 -2.1 -1.3 -2.1 -1.2 -2.05 -1.15 -2.05 -1.05 Q-2.1 -0.95 -2.2 -0.95" fill="#cd2d4f" fill-rule="evenodd" stroke="none"/>
    <path d="M-2.2 -0.85 L-2.2 -0.95 Q-2.1 -0.95 -2.05 -1.05 L-2.05 -1.15 -2.1 -1.2 -2.1 -1.3 -2.2 -1.35 -2.2 -1.55 -2.1 -1.45 -2.05 -1.25 -1.95 -1.15 -1.85 -1.05 -1.85 -1.0 -1.9 -0.95 -2.0 -0.95 -2.0 -0.85 Q-2.0 -0.8 -2.05 -0.75 L-2.1 -0.8 -2.2 -0.85" fill="#ac2648" fill-rule="evenodd" stroke="none"/>
    <path d="M-2.05 -1.4 L-1.85 -1.2 -1.6 -1.0 Q-1.75 -1.0 -1.85 -1.15 L-2.05 -1.35 -2.05 -1.4" fill="#f7456c" fill-rule="evenodd" stroke="none"/>
    <path d="M-2.2 -0.75 L-2.2 -0.85 -2.1 -0.8 -2.05 -0.75 Q-2.0 -0.8 -2.0 -0.85 L-2.0 -0.95 -1.9 -0.95 -1.85 -1.0 -1.85 -1.05 -1.95 -1.15 -2.05 -1.25 -2.1 -1.45 -2.05 -1.4 -2.05 -1.35 Q-2.05 -1.25 -1.95 -1.15 L-1.75 -1.0 Q-1.75 -0.95 -1.85 -0.9 L-1.95 -0.9 -2.0 -0.8 Q-1.95 -0.75 -2.0 -0.7 L-2.1 -0.7 -2.2 -0.75" fill="#c92a4f" fill-rule="evenodd" stroke="none"/>
    <path d="M-2.2 -1.7 L-2.2 -2.2 -1.55 -2.2 -1.85 -1.95 -2.15 -1.7 Q-1.9 -1.3 -1.6 -1.1 -1.55 -1.05 -1.45 -1.0 L-1.3 -0.85 -1.35 -0.85 -1.65 -1.05 -1.9 -1.3 -2.05 -1.5 -2.2 -1.7 M-1.3 -0.85 L-1.3 -0.85" fill="#fed8fe" fill-rule="evenodd" stroke="none"/>
    <path d="M-2.2 -1.05 L-2.2 -1.3 Q-2.15 -1.25 -2.1 -1.2 L-2.1 -1.05 Q-2.1 -1.05 -2.15 -1.05 L-2.2 -1.05" fill="#ed375b" fill-rule="evenodd" stroke="none"/>
    <path d="M-2.2 -0.6 L-2.2 -0.65 -2.05 -0.65 -1.9 -0.7 Q-1.85 -0.65 -1.9 -0.6 L-1.9 -0.55 -1.85 -0.4 -1.75 -0.3 -1.75 -0.25 -1.8 -0.3 -1.85 -0.35 -1.9 -0.4 -1.95 -0.5 -2.0 -0.6 -2.1 -0.6 -2.2 -0.6" fill="#c72d53" fill-rule="evenodd" stroke="none"/>
    <path d="M-2.2 -0.65 L-2.2 -0.75 -2.1 -0.7 -2.0 -0.7 Q-1.95 -0.75 -2.0 -0.8 L-1.95 -0.9 -1.85 -0.9 Q-1.75 -0.95 -1.75 -1.0 L-1.95 -1.15 Q-2.05 -1.25 -2.05 -1.35 L-1.85 -1.15 Q-1.75 -1.0 -1.6 -1.0 -1.6 -0.95 -1.65 -0.95 L-1.7 -0.95 -1.75 -0.9 -1.75 -0.85 -1.85 -0.85 -1.9 -0.85 -1.95 -0.8 -1.95 -0.75 -1.9 -0.7 -1.85 -0.7 -1.85 -0.5 -1.8 -0.4 -1.75 -0.3 -1.85 -0.4 -1.9 -0.55 -1.9 -0.6 Q-1.85 -0.65 -1.9 -0.7 L-2.05 -0.65 -2.2 -0.65 M-1.75 -0.3 L-1.75 -0.3" fill="#e13159" fill-rule="evenodd" stroke="none"/>
    <path d="M-2.2 -0.55 L-2.2 -0.6 -2.1 -0.6 -2.0 -0.6 -1.95 -0.5 -1.9 -0.4 -1.85 -0.35 -1.8 -0.3 -1.85 -0.35 -1.95 -0.4 -2.0 -0.5 -2.2 -0.55 M-1.8 -0.25 L-1.8 -0.3 -1.8 -0.25" fill="#a8294e" fill-rule="evenodd" stroke="none"/>
    <path d="M-2.2 -0.5 L-2.2 -0.55 -2.0 -0.5 -1.95 -0.4 -1.85 -0.35 -1.8 -0.3 -1.8 -0.25 -1.85 -0.15 -1.8 -0.1 -1.8 0.0 -1.75 0.15 -1.8 0.05 -1.85 -0.1 -1.9 -0.2 Q-1.9 -0.3 -1.9 -0.3 L-2.05 -0.45 -2.2 -0.5 M-1.75 0.15 L-1.75 0.15" fill="#8b2b53" fill-rule="evenodd" stroke="none"/>
    <path d="M-2.2 -0.4 L-2.2 -0.5 -2.05 -0.45 -1.9 -0.3 Q-1.9 -0.3 -1.9 -0.2 L-1.85 -0.1 -1.8 0.05 -1.75 0.15 -1.7 0.2 -1.7 0.3 -1.75 0.25 -1.8 0.2 -1.8 0.1 -1.85 -0.05 -1.95 -0.2 -2.0 -0.35 -2.05 -0.4 -2.2 -0.4" fill="#6f2a50" fill-rule="evenodd" stroke="none"/>
    <path d="M-2.2 -0.3 L-2.2 -0.4 -2.05 -0.4 -2.0 -0.35 -1.95 -0.2 -1.85 -0.05 -1.8 0.1 -1.8 0.2 -1.75 0.25 -1.7 0.35 -1.8 0.25 -1.85 0.2 -1.95 0.1 -1.95 -0.05 -2.0 -0.15 -2.0 -0.3 -2.1 -0.35 Q-2.15 -0.35 -2.2 -0.3" fill="#56264d" fill-rule="evenodd" stroke="none"/>
    <path d="M-2.2 0.1 L-2.2 -0.3 Q-2.15 -0.35 -2.1 -0.35 L-2.0 -0.3 -2.0 -0.15 -1.95 -0.05 -1.95 0.1 -1.85 0.2 -1.8 0.25 -1.7 0.35 -1.8 0.35 -1.85 0.25 -1.9 0.25 -1.95 0.2 -2.0 0.1 Q-2.05 0.0 -2.15 0.0 L-2.15 0.05 -2.2 0.1 M-1.7 0.35 L-1.7 0.35" fill="#41234b" fill-rule="evenodd" stroke="none"/>
    <path d="M-1.35 -0.85 L-1.3 -0.85 -1.25 -0.85 -1.2 -0.8 -1.1 -0.8 -1.1 -0.75 -1.15 -0.75 -1.25 -0.8 -1.3 -0.8 -1.35 -0.85" fill="#ff98dc" fill-rule="evenodd" stroke="none"/>
    <path d="M-1.35 -0.85 L-1.3 -0.8 -1.25 -0.8 -1.15 -0.75 -1.1 -0.75 Q-1.0 -0.75 -1.0 -0.65 L-1.1 -0.65 -1.2 -0.7 -1.25 -0.7 -1.3 -0.7 -1.35 -0.7 -1.4 -0.75 -1.45 -0.8 -1.45 -0.7 -1.35 -0.65 -1.4 -0.55 -1.4 -0.45 -1.45 -0.4 -1.5 -0.4 -1.5 -0.35 Q-1.5 -0.25 -1.55 -0.2 -1.6 -0.25 -1.65 -0.15 L-1.65 0.0 -1.6 0.05 -1.55 0.1 Q-1.5 0.2 -1.5 0.25 L-1.55 0.25 Q-1.55 0.2 -1.6 0.1 L-1.7 -0.05 -1.7 -0.2 Q-1.65 -0.3 -1.55 -0.25 L-1.55 -0.35 -1.65 -0.4 -1.65 -0.5 -1.6 -0.55 -1.5 -0.55 Q-1.45 -0.55 -1.5 -0.6 -1.45 -0.65 -1.5 -0.7 L-1.55 -0.8 -1.5 -0.85 -1.45 -0.85 -1.45 -0.9 -1.35 -0.85" fill="#f9588e" fill-rule="evenodd" stroke="none"/>
    <path d="M-1.75 -0.25 Q-1.7 -0.25 -1.7 -0.3 L-1.75 -0.35 -1.75 -0.45 -1.8 -0.55 Q-1.7 -0.5 -1.6 -0.55 -1.55 -0.65 -1.55 -0.7 L-1.6 -0.8 -1.65 -0.9 -1.6 -0.95 -1.55 -0.9 Q-1.55 -0.85 -1.5 -0.9 L-1.5 -0.95 -1.45 -0.9 -1.45 -0.85 -1.5 -0.85 -1.55 -0.8 -1.5 -0.7 Q-1.45 -0.65 -1.5 -0.6 -1.45 -0.55 -1.5 -0.55 L-1.6 -0.55 -1.65 -0.5 -1.65 -0.4 -1.55 -0.35 -1.55 -0.25 Q-1.65 -0.3 -1.7 -0.2 L-1.7 -0.05 -1.75 -0.1 -1.75 -0.25" fill="#f8497f" fill-rule="evenodd" stroke="none"/>
    <path d="M-1.5 0.25 Q-1.5 0.2 -1.55 0.1 L-1.6 0.05 -1.65 0.0 -1.65 -0.15 Q-1.6 -0.25 -1.55 -0.2 -1.5 -0.25 -1.5 -0.35 L-1.5 -0.4 -1.45 -0.4 -1.4 -0.45 -1.4 -0.55 -1.35 -0.65 -1.45 -0.7 -1.45 -0.8 -1.4 -0.75 -1.35 -0.7 -1.3 -0.7 -1.25 -0.7 -1.2 -0.7 -1.2 -0.6 -1.3 -0.45 Q-1.3 -0.4 -1.25 -0.35 L-1.2 -0.3 -1.15 -0.25 Q-1.2 -0.2 -1.25 -0.2 L-1.4 -0.25 -1.45 -0.2 -1.5 -0.15 -1.65 -0.05 -1.5 0.1 -1.5 0.2 Q-1.45 0.3 -1.5 0.3 L-1.5 0.25" fill="#fa6698" fill-rule="evenodd" stroke="none"/>
    <path d="M-1.0 -0.65 L-0.8 -0.55 -0.75 -0.55 -0.7 -0.55 -0.7 -0.45 Q-0.7 -0.4 -0.7 -0.35 L-0.7 -0.3 -0.7 -0.25 -0.7 -0.25 -0.75 -0.2 -0.75 -0.15 -0.8 -0.15 -0.85 -0.2 -0.85 -0.25 -0.85 -0.3 -0.8 -0.3 -0.8 -0.35 -0.85 -0.35 -0.85 -0.45 -0.95 -0.55 -1.1 -0.6 -1.15 -0.6 -1.15 -0.55 -1.05 -0.55 Q-1.0 -0.5 -1.05 -0.45 -1.05 -0.45 -1.1 -0.5 L-1.15 -0.5 -1.15 -0.4 -1.1 -0.35 -1.15 -0.25 -1.1 -0.25 -1.15 -0.2 -1.15 -0.2 -1.2 -0.15 -1.2 -0.15 -1.25 -0.15 -1.3 -0.2 -1.35 -0.15 -1.4 -0.2 Q-1.45 -0.2 -1.45 -0.1 L-1.45 0.05 -1.5 0.0 Q-1.55 -0.05 -1.55 0.0 L-1.45 0.15 Q-1.35 0.2 -1.25 0.2 L-1.25 0.35 -1.3 0.35 -1.35 0.3 Q-1.4 0.3 -1.45 0.35 L-1.4 0.45 -1.3 0.5 -1.2 0.5 -1.1 0.5 -1.1 0.45 -1.05 0.45 -1.0 0.5 -0.95 0.6 -0.9 0.55 -0.85 0.5 -0.85 0.45 -0.75 0.4 -0.7 0.4 -0.6 0.35 Q-0.6 0.35 -0.6 0.3 L-0.65 0.25 -0.65 0.2 -0.6 0.2 -0.55 0.25 Q-0.5 0.25 -0.5 0.2 L-0.6 0.15 -0.55 0.15 -0.45 0.15 -0.4 0.15 -0.4 0.2 -0.45 0.25 -0.45 0.3 -0.4 0.4 -0.45 0.45 -0.5 0.5 -0.6 0.5 -0.65 0.55 Q-0.7 0.6 -0.7 0.6 L-0.8 0.55 -0.7 0.65 Q-0.7 0.7 -0.75 0.75 L-0.85 0.75 -0.95 0.75 -1.0 0.75 -1.1 0.75 -1.15 0.7 -1.2 0.65 -1.2 0.55 -1.45 0.45 -1.5 0.4 -1.5 0.3 Q-1.45 0.3 -1.5 0.2 L-1.5 0.1 -1.65 -0.05 -1.5 -0.15 -1.45 -0.2 -1.4 -0.25 -1.25 -0.2 Q-1.2 -0.2 -1.15 -0.25 L-1.2 -0.3 -1.25 -0.35 Q-1.3 -0.4 -1.3 -0.45 L-1.2 -0.6 -1.2 -0.7 -1.1 -0.65 -1.0 -0.65 -1.0 -0.65" fill="#f970a3" fill-rule="evenodd" stroke="none"/>
    <path d="M-1.6 -1.0 L-1.55 -1.0 -1.5 -0.95 -1.5 -0.9 Q-1.55 -0.85 -1.55 -0.9 L-1.6 -0.95 -1.65 -0.9 -1.6 -0.8 -1.55 -0.7 Q-1.55 -0.65 -1.6 -0.55 -1.7 -0.5 -1.8 -0.55 L-1.75 -0.45 -1.75 -0.35 -1.7 -0.3 Q-1.7 -0.25 -1.75 -0.25 L-1.75 -0.3 -1.8 -0.4 -1.85 -0.5 -1.85 -0.7 -1.9 -0.7 -1.95 -0.75 -1.95 -0.8 -1.9 -0.85 -1.85 -0.85 -1.75 -0.85 -1.75 -0.9 -1.7 -0.95 -1.65 -0.95 Q-1.6 -0.95 -1.6 -1.0" fill="#f53b6d" fill-rule="evenodd" stroke="none"/>
    <path d="M-1.8 -0.3 L-1.75 -0.25 -1.8 -0.15 -1.75 -0.05 -1.7 0.05 -1.65 0.15 -1.6 0.15 -1.6 0.2 -1.65 0.2 -1.75 0.15 -1.8 0.0 -1.8 -0.1 -1.85 -0.15 -1.8 -0.25 -1.8 -0.3" fill="#a93a6b" fill-rule="evenodd" stroke="none"/>
    <path d="M-1.75 -0.3 L-1.75 -0.25 -1.75 -0.3 -1.75 -0.3 M-1.75 -0.25 L-1.75 -0.1 -1.7 -0.05 -1.6 0.1 Q-1.55 0.2 -1.55 0.25 L-1.55 0.3 -1.6 0.2 -1.6 0.15 -1.65 0.15 -1.7 0.05 -1.75 -0.05 -1.8 -0.15 -1.75 -0.25 M-1.6 0.2 L-1.6 0.2" fill="#cd467c" fill-rule="evenodd" stroke="none"/>
    <path d="M-1.15 -0.2 L-1.1 -0.25 -1.15 -0.25 -1.1 -0.35 -1.15 -0.4 -1.15 -0.5 -1.1 -0.5 Q-1.05 -0.45 -1.05 -0.45 -1.0 -0.5 -1.05 -0.55 L-1.15 -0.55 -1.15 -0.6 -1.1 -0.6 -0.95 -0.55 -0.85 -0.45 -0.85 -0.35 -0.8 -0.35 -0.8 -0.3 -0.85 -0.3 -0.9 -0.35 Q-0.9 -0.4 -0.9 -0.45 -0.85 -0.45 -0.9 -0.45 L-0.95 -0.5 -1.0 -0.55 -1.05 -0.55 -1.0 -0.5 Q-1.0 -0.45 -1.05 -0.4 -1.1 -0.4 -1.1 -0.35 L-1.0 -0.25 Q-1.0 -0.2 -1.05 -0.15 -1.1 -0.15 -1.15 -0.2" fill="#fa7ead" fill-rule="evenodd" stroke="none"/>
    <path d="M-0.85 -0.3 L-0.85 -0.25 -0.9 -0.25 Q-0.95 -0.25 -0.95 -0.25 L-0.95 -0.2 Q-0.9 -0.1 -0.95 -0.1 L-1.0 -0.15 -1.05 -0.1 Q-1.1 -0.1 -1.15 -0.1 L-1.2 -0.1 -1.25 -0.1 -1.35 -0.15 -1.3 -0.2 -1.25 -0.15 -1.2 -0.15 -1.2 -0.15 -1.15 -0.2 -1.15 -0.2 Q-1.1 -0.15 -1.05 -0.15 -1.0 -0.2 -1.0 -0.25 L-1.1 -0.35 Q-1.1 -0.4 -1.05 -0.4 -1.0 -0.45 -1.0 -0.5 L-1.05 -0.55 -1.0 -0.55 -0.95 -0.5 -0.9 -0.45 Q-0.85 -0.45 -0.9 -0.45 -0.9 -0.4 -0.9 -0.35 L-0.85 -0.3" fill="#fa8bbf" fill-rule="evenodd" stroke="none"/>
    <path d="M-0.85 -0.25 L-0.85 -0.2 -0.85 -0.1 -0.8 -0.05 -0.85 0.0 -0.9 0.05 -0.9 0.1 -0.85 0.15 -0.8 0.15 Q-0.75 0.15 -0.75 0.2 L-0.8 0.25 -0.75 0.25 -0.75 0.4 -0.85 0.45 -0.85 0.5 -0.9 0.55 -0.95 0.5 -1.0 0.45 -1.05 0.4 -1.1 0.4 -1.15 0.4 -1.2 0.25 Q-1.25 0.2 -1.3 0.15 L-1.4 0.15 Q-1.45 0.1 -1.4 0.05 L-1.4 -0.2 -1.35 -0.15 -1.25 -0.1 -1.2 -0.1 -1.15 -0.1 Q-1.1 -0.1 -1.05 -0.1 L-1.0 -0.15 -0.95 -0.1 Q-0.9 -0.1 -0.95 -0.2 L-0.95 -0.25 Q-0.95 -0.25 -0.9 -0.25 L-0.85 -0.25 M-1.15 -0.05 L-1.25 0.0 -1.25 0.05 -1.2 0.2 -1.15 0.3 -1.05 0.3 Q-1.05 0.25 -1.0 0.25 L-0.95 0.35 -0.9 0.35 -0.85 0.25 -0.85 0.2 Q-0.85 0.15 -0.85 0.15 L-0.95 0.1 -0.95 0.05 Q-0.95 0.05 -1.0 0.05 L-1.0 0.0 -1.05 0.0 -1.1 -0.05 -1.15 -0.05" fill="#fa95ce" fill-rule="evenodd" stroke="none"/>
    <path d="M-0.85 0.5 L-0.9 0.55 -0.95 0.6 -1.0 0.5 -1.05 0.45 -1.1 0.45 -1.1 0.5 -1.2 0.5 -1.3 0.5 -1.4 0.45 -1.45 0.35 Q-1.4 0.3 -1.35 0.3 L-1.3 0.35 -1.25 0.35 -1.25 0.2 Q-1.35 0.2 -1.45 0.15 L-1.55 0.0 Q-1.55 -0.05 -1.5 0.0 L-1.45 0.05 -1.45 -0.1 Q-1.45 -0.2 -1.4 -0.2 L-1.4 0.05 Q-1.45 0.1 -1.4 0.15 L-1.3 0.15 Q-1.25 0.2 -1.2 0.25 L-1.15 0.4 -1.1 0.4 -1.05 0.4 -1.0 0.45 -0.95 0.5 -0.9 0.55 -0.85 0.5" fill="#fa80b3" fill-rule="evenodd" stroke="none"/>
    <path d="M-1.15 -0.05 L-1.1 -0.05 -1.05 0.0 -1.0 0.0 -1.0 0.05 Q-0.95 0.05 -0.95 0.05 L-0.95 0.1 -0.85 0.15 Q-0.85 0.15 -0.85 0.2 L-0.85 0.25 -0.9 0.35 -0.95 0.35 -1.0 0.25 Q-1.05 0.25 -1.05 0.3 L-1.15 0.3 -1.2 0.2 -1.25 0.05 -1.25 0.0 -1.15 -0.05" fill="#f99ee0" fill-rule="evenodd" stroke="none"/>
    <path d="M-0.6 -0.5 L-0.55 -0.5 -0.5 -0.5 -0.5 -0.4 -0.55 -0.4 -0.55 -0.4 -0.6 -0.4 -0.6 -0.45 -0.6 -0.5 M-0.5 -0.4 L-0.5 -0.4" fill="#fdbaef" fill-rule="evenodd" stroke="none"/>
    <path d="M-0.7 -0.55 L-0.7 -0.6 -0.65 -0.55 -0.6 -0.5 -0.6 -0.45 -0.65 -0.35 -0.7 -0.3 -0.7 -0.35 Q-0.7 -0.4 -0.7 -0.45 L-0.7 -0.55" fill="#e35996" fill-rule="evenodd" stroke="none"/>
    <path d="M-0.65 -0.25 L-0.6 -0.35 Q-0.55 -0.4 -0.5 -0.3 L-0.55 -0.3 -0.55 -0.25 -0.6 -0.25 -0.65 -0.25" fill="#784282" fill-rule="evenodd" stroke="none"/>
    <path d="M-0.7 -0.25 L-0.7 -0.25 -0.7 -0.3 -0.65 -0.35 -0.6 -0.45 -0.6 -0.4 -0.55 -0.4 -0.55 -0.4 -0.5 -0.4 -0.5 -0.3 Q-0.55 -0.4 -0.6 -0.35 L-0.65 -0.25 -0.7 -0.25" fill="#f276be" fill-rule="evenodd" stroke="none"/>
    <path d="M-0.85 -0.2 L-0.8 -0.15 -0.75 -0.15 -0.75 -0.1 -0.7 -0.05 -0.75 0.0 -0.8 0.0 -0.8 0.05 -0.7 0.1 Q-0.7 0.1 -0.6 0.15 L-0.5 0.2 Q-0.5 0.25 -0.55 0.25 L-0.6 0.2 -0.65 0.2 -0.65 0.25 -0.6 0.3 Q-0.6 0.35 -0.6 0.35 L-0.7 0.4 -0.75 0.4 -0.75 0.25 -0.8 0.25 -0.75 0.2 Q-0.75 0.15 -0.8 0.15 L-0.85 0.15 -0.9 0.1 -0.9 0.05 -0.85 0.0 -0.8 -0.05 -0.85 -0.1 -0.85 -0.2" fill="#f87db4" fill-rule="evenodd" stroke="none"/>
    <path d="M-0.6 -0.25 L-0.55 -0.25 -0.55 -0.3 -0.55 -0.05 Q-0.55 -0.05 -0.5 -0.05 L-0.45 -0.15 Q-0.4 -0.2 -0.35 -0.15 L-0.35 -0.05 -0.3 -0.05 -0.3 0.0 -0.4 0.0 -0.5 0.0 -0.6 0.0 -0.65 -0.05 -0.7 -0.05 -0.75 -0.1 Q-0.7 -0.1 -0.65 -0.15 L-0.6 -0.25 M-0.45 -0.15 L-0.45 -0.05 -0.4 -0.1 -0.4 -0.15 -0.45 -0.15" fill="#ed66a3" fill-rule="evenodd" stroke="none"/>
    <path d="M-0.5 -0.4 L-0.45 -0.35 -0.4 -0.35 -0.35 -0.3 -0.35 -0.25 -0.4 -0.2 -0.35 -0.15 -0.25 -0.1 Q-0.3 -0.1 -0.25 -0.05 L-0.15 0.0 -0.2 0.05 -0.25 0.05 -0.3 0.0 -0.3 -0.05 -0.35 -0.05 -0.35 -0.15 Q-0.4 -0.2 -0.45 -0.15 L-0.5 -0.05 Q-0.55 -0.05 -0.55 -0.05 L-0.55 -0.3 -0.5 -0.3 -0.5 -0.4 -0.5 -0.4 M-0.45 -0.15 L-0.45 -0.15 M-0.2 0.0 L-0.2 0.05 -0.2 0.0" fill="#ffeac5" fill-rule="evenodd" stroke="none"/>
    <path d="M-0.75 -0.15 L-0.75 -0.2 -0.7 -0.25 -0.65 -0.25 -0.6 -0.25 -0.65 -0.15 Q-0.7 -0.1 -0.75 -0.1 L-0.75 -0.15" fill="#bb5698" fill-rule="evenodd" stroke="none"/>
    <path d="M-0.75 0.0 L-0.7 -0.05 -0.65 -0.05 -0.6 0.0 -0.6 0.05 -0.35 0.15 -0.35 0.2 -0.4 0.2 -0.4 0.15 -0.45 0.15 -0.5 0.1 -0.6 0.1 Q-0.65 0.15 -0.7 0.05 -0.75 0.05 -0.75 0.05 L-0.75 0.0" fill="#824178" fill-rule="evenodd" stroke="none"/>
    <path d="M-0.4 -0.35 L-0.35 -0.4 -0.3 -0.35 -0.3 -0.35 -0.35 -0.3 -0.4 -0.35" fill="#fdb0a5" fill-rule="evenodd" stroke="none"/>
    <path d="M-0.45 -0.15 L-0.45 -0.15 -0.4 -0.15 -0.4 -0.1 -0.45 -0.05 -0.45 -0.15" fill="#af4274" fill-rule="evenodd" stroke="none"/>
    <path d="M-0.1 0.0 L-0.1 0.05 -0.1 0.05 -0.05 0.1 -0.1 0.15 -0.1 0.2 -0.15 0.15 -0.15 0.15 -0.2 0.15 Q-0.2 0.2 -0.25 0.25 L-0.3 0.25 -0.3 0.2 -0.35 0.2 -0.35 0.15 -0.6 0.05 -0.6 0.0 -0.5 0.0 -0.4 0.0 -0.3 0.0 -0.25 0.05 -0.25 0.05 -0.2 0.05 -0.2 0.0 -0.2 0.05 -0.15 0.1 -0.1 0.0 M-0.4 0.2 L-0.35 0.2 -0.4 0.25 -0.4 0.2" fill="#582d5b" fill-rule="evenodd" stroke="none"/>
    <path d="M-0.1 0.05 L-0.05 0.0 Q-0.05 0.0 0.0 0.0 0.0 0.05 -0.1 0.05 L-0.1 0.05" fill="#f98196" fill-rule="evenodd" stroke="none"/>
    <path d="M-0.15 0.0 L-0.1 0.0 -0.15 0.1 -0.2 0.05 -0.15 0.0" fill="#f36e87" fill-rule="evenodd" stroke="none"/>
    <path d="M-0.2 0.05 L-0.2 0.0 -0.2 0.05" fill="#ea6887" fill-rule="evenodd" stroke="none"/>
    <path d="M-0.3 0.0 L-0.25 0.05 -0.2 0.05 -0.25 0.05 -0.25 0.05 -0.3 0.0" fill="#f56790" fill-rule="evenodd" stroke="none"/>
    <path d="M-0.4 0.25 L-0.35 0.25 -0.3 0.3 -0.35 0.3 -0.4 0.3 -0.4 0.25" fill="#b34377" fill-rule="evenodd" stroke="none"/>
    <path d="M-0.4 0.15 L-0.4 0.2 -0.4 0.15 M-0.4 0.25 L-0.4 0.25 -0.4 0.3 -0.35 0.3 -0.35 0.4 -0.35 0.4 -0.4 0.45 -0.4 0.55 Q-0.4 0.65 -0.45 0.6 L-0.55 0.6 -0.6 0.65 -0.6 0.7 -0.55 0.7 -0.5 0.7 -0.5 0.75 -0.45 0.8 -0.45 0.85 -0.5 0.85 -0.55 0.85 -0.55 0.9 -0.5 0.95 Q-0.5 1.0 -0.55 1.0 L-0.55 1.15 -0.6 1.2 -0.65 1.25 -0.65 1.2 -0.65 1.15 -0.65 1.05 -0.65 0.95 -1.05 0.75 -1.05 0.75 -1.1 0.75 -1.0 0.75 -0.95 0.75 -0.85 0.75 -0.75 0.75 Q-0.7 0.7 -0.7 0.65 L-0.8 0.55 -0.7 0.6 Q-0.7 0.6 -0.65 0.55 L-0.6 0.5 -0.5 0.5 -0.45 0.45 -0.4 0.4 -0.45 0.3 -0.45 0.25 -0.4 0.2 -0.4 0.25" fill="#fc6290" fill-rule="evenodd" stroke="none"/>
    <path d="M-0.3 0.25 L-0.35 0.25 -0.35 0.2 -0.3 0.2 -0.3 0.25" fill="#d34573" fill-rule="evenodd" stroke="none"/>
    <path d="M-0.15 0.3 L0.0 0.35 -0.05 0.4 -0.15 0.5 -0.2 0.5 -0.25 0.5 -0.35 0.55 -0.4 0.7 -0.35 0.85 -0.4 0.95 -0.5 1.0 -0.55 1.0 Q-0.5 1.0 -0.5 0.95 L-0.55 0.9 -0.55 0.85 -0.5 0.85 -0.45 0.85 -0.45 0.8 -0.5 0.75 -0.5 0.7 -0.55 0.7 -0.6 0.7 -0.6 0.65 -0.55 0.6 -0.45 0.6 Q-0.4 0.65 -0.4 0.55 L-0.4 0.45 -0.35 0.45 -0.3 0.45 Q-0.3 0.45 -0.3 0.4 L-0.35 0.4 -0.35 0.3 -0.3 0.3 -0.2 0.35 -0.15 0.3" fill="#fc5686" fill-rule="evenodd" stroke="none"/>
    <path d="M-0.4 0.45 L-0.35 0.4 -0.35 0.4 -0.3 0.4 Q-0.3 0.45 -0.3 0.45 L-0.35 0.45 -0.4 0.45" fill="#c54171" fill-rule="evenodd" stroke="none"/>
    <path d="M-0.75 0.0 L-0.75 0.05 Q-0.75 0.05 -0.7 0.05 -0.65 0.15 -0.6 0.1 L-0.5 0.1 -0.45 0.15 -0.55 0.15 -0.6 0.15 Q-0.7 0.1 -0.7 0.1 L-0.8 0.05 -0.8 0.0 -0.75 0.0" fill="#c65999" fill-rule="evenodd" stroke="none"/>
    <path d="M-1.0 0.85 L-0.95 0.85 -0.85 0.85 -0.8 0.95 -0.7 0.95 -0.7 1.05 -0.75 1.1 -0.7 1.15 -0.65 1.15 -0.65 1.2 -0.65 1.2 Q-0.65 1.35 -0.75 1.35 -0.7 1.3 -0.75 1.25 -0.8 1.15 -0.85 1.15 L-0.85 1.45 -0.9 1.4 -0.85 1.35 -0.85 1.0 -0.95 1.0 -1.0 0.95 -1.0 0.85" fill="#a03969" fill-rule="evenodd" stroke="none"/>
    <path d="M-0.7 0.95 L-0.8 0.95 -0.85 0.85 -0.95 0.85 -1.0 0.85 -1.05 0.85 -1.05 0.85 -1.05 0.8 -1.1 0.8 -1.1 0.75 -1.15 0.7 -1.1 0.75 -1.05 0.75 -1.05 0.75 -0.65 0.95 -0.65 1.05 -0.7 1.0 -0.7 0.95 M-1.1 0.8 L-1.1 0.8" fill="#e84f88" fill-rule="evenodd" stroke="none"/>
    <path d="M-1.0 0.95 L-0.95 1.0 -0.85 1.0 -0.85 1.35 -0.9 1.35 -0.95 1.4 -0.95 1.45 -1.0 1.45 -1.05 1.4 -1.1 1.45 -1.1 1.5 -1.1 1.55 -1.1 1.75 -1.15 1.75 -1.15 1.8 -1.2 1.75 -1.2 1.7 -1.15 1.55 -1.1 1.4 -1.05 1.35 -0.95 1.25 -0.9 1.2 -0.85 1.15 Q-0.85 1.0 -0.9 1.0 L-1.0 1.0 -1.0 0.95" fill="#fcade9" fill-rule="evenodd" stroke="none"/>
    <path d="M-2.2 1.4 L-2.2 1.05 -1.95 0.95 -1.7 0.9 Q-1.6 1.0 -1.5 1.0 L-1.45 1.05 -1.4 1.0 -1.3 0.95 -1.25 0.9 -1.2 0.8 -1.1 0.8 -1.1 0.8 -1.05 0.85 -1.05 0.9 -1.0 0.95 -1.0 1.0 -0.9 1.0 Q-0.85 1.0 -0.85 1.15 L-1.0 1.2 -1.15 1.3 -1.3 1.35 Q-1.45 1.35 -1.5 1.4 -1.6 1.45 -1.7 1.55 L-1.95 1.65 -2.0 1.65 -2.05 1.6 Q-2.05 1.5 -2.2 1.4" fill="#fffcff" fill-rule="evenodd" stroke="none"/>
    <path d="M-2.2 1.85 L-2.2 1.4 Q-2.05 1.5 -2.05 1.6 L-2.0 1.65 -1.95 1.65 -1.7 1.55 Q-1.6 1.45 -1.5 1.4 -1.45 1.35 -1.3 1.35 L-1.15 1.3 -1.0 1.2 -0.85 1.15 -0.9 1.2 -0.95 1.25 -1.25 1.4 -1.45 1.45 -1.6 1.55 -1.75 1.6 -1.9 1.7 Q-2.05 1.8 -2.2 1.85" fill="#ffefff" fill-rule="evenodd" stroke="none"/>
    <path d="M-0.5 1.0 L-0.4 1.05 Q-0.3 1.1 -0.4 1.15 -0.3 1.15 -0.2 1.25 -0.15 1.35 -0.2 1.45 L-0.2 1.55 -0.25 1.6 Q-0.35 1.65 -0.3 1.5 -0.3 1.45 -0.35 1.4 L-0.45 1.35 -0.55 1.4 -0.6 1.45 -0.65 1.45 -0.55 1.35 Q-0.5 1.3 -0.55 1.25 L-0.6 1.25 -0.6 1.3 -0.65 1.35 -0.65 1.4 -0.7 1.35 -0.75 1.35 -0.75 1.35 -0.75 1.35 Q-0.65 1.35 -0.65 1.2 L-0.65 1.2 -0.65 1.25 -0.6 1.2 -0.55 1.15 -0.55 1.0 -0.5 1.0 M-0.65 1.15 L-0.7 1.15 -0.75 1.1 -0.7 1.05 -0.7 0.95 -0.7 1.0 -0.65 1.05 -0.65 1.15" fill="#ea3e6e" fill-rule="evenodd" stroke="none"/>
    <path d="M-0.85 1.45 L-0.85 1.15 Q-0.8 1.15 -0.75 1.25 -0.7 1.3 -0.75 1.35 L-0.8 1.45 -0.85 1.45 M-0.75 1.35 L-0.75 1.35" fill="#6e2b53" fill-rule="evenodd" stroke="none"/>
    <path d="M-1.0 0.85 L-1.0 0.95 -1.05 0.9 -1.05 0.85 -1.05 0.85 -1.0 0.85" fill="#ed98e5" fill-rule="evenodd" stroke="none"/>
    <path d="M-1.5 0.25 L-1.5 0.3 -1.5 0.4 -1.45 0.45 -1.2 0.55 -1.2 0.65 -1.25 0.6 Q-1.35 0.65 -1.35 0.6 L-1.5 0.45 -1.55 0.3 -1.55 0.25 -1.5 0.25" fill="#d45fa2" fill-rule="evenodd" stroke="none"/>
    <path d="M-1.15 0.7 L-1.1 0.75 -1.1 0.8 -1.2 0.8 -1.2 0.8 Q-1.1 0.8 -1.15 0.75 L-1.2 0.7 -1.45 0.6 -1.6 0.45 Q-1.65 0.3 -1.6 0.2 L-1.55 0.3 -1.5 0.45 -1.35 0.6 Q-1.35 0.65 -1.25 0.6 L-1.2 0.65 -1.15 0.7" fill="#a54e8d" fill-rule="evenodd" stroke="none"/>
    <path d="M-1.75 0.25 L-1.7 0.3 -1.6 0.55 -1.5 0.6 -1.45 0.7 -1.3 0.7 Q-1.2 0.75 -1.2 0.8 L-1.25 0.9 -1.3 0.9 -1.3 0.85 -1.25 0.8 -1.35 0.8 Q-1.4 0.8 -1.4 0.75 L-1.55 0.65 -1.65 0.55 -1.65 0.45 -1.7 0.4 -1.7 0.35 -1.7 0.35 -1.75 0.25 M-1.2 0.8 L-1.2 0.8" fill="#5a3871" fill-rule="evenodd" stroke="none"/>
    <path d="M-1.7 0.3 L-1.7 0.2 -1.75 0.15 -1.75 0.15 -1.65 0.2 -1.6 0.2 -1.6 0.2 Q-1.65 0.3 -1.6 0.45 L-1.45 0.6 -1.2 0.7 -1.15 0.75 Q-1.1 0.8 -1.2 0.8 -1.2 0.75 -1.3 0.7 L-1.45 0.7 -1.5 0.6 -1.6 0.55 -1.7 0.3" fill="#814078" fill-rule="evenodd" stroke="none"/>
    <path d="M-2.2 0.5 L-2.2 0.1 -2.15 0.05 -2.15 0.0 Q-2.05 0.0 -2.0 0.1 L-1.95 0.2 -1.9 0.25 -1.85 0.25 -1.8 0.35 -1.75 0.45 Q-1.75 0.5 -1.85 0.45 L-1.9 0.5 -1.9 0.55 Q-1.85 0.65 -2.0 0.65 L-2.05 0.55 -2.2 0.5" fill="#2a2351" fill-rule="evenodd" stroke="none"/>
    <path d="M-1.8 0.35 L-1.7 0.35 -1.7 0.4 -1.7 0.55 -1.75 0.65 Q-1.75 0.7 -1.65 0.7 L-1.55 0.7 -1.55 0.8 -1.65 0.8 -1.7 0.8 -1.8 0.75 -1.85 0.75 -1.9 0.7 -2.0 0.65 Q-1.85 0.65 -1.9 0.55 L-1.9 0.5 -1.85 0.45 Q-1.75 0.5 -1.75 0.45 L-1.8 0.35 M-2.0 0.65 L-2.0 0.65" fill="#2e2f67" fill-rule="evenodd" stroke="none"/>
    <path d="M-1.85 0.75 L-1.8 0.75 -1.7 0.8 -1.65 0.8 -1.55 0.8 -1.55 0.7 -1.65 0.7 Q-1.75 0.7 -1.75 0.65 L-1.7 0.55 -1.7 0.4 -1.65 0.45 -1.65 0.55 -1.55 0.65 -1.4 0.75 Q-1.4 0.8 -1.35 0.8 L-1.25 0.8 -1.3 0.85 -1.3 0.9 -1.4 0.95 -1.45 0.95 -1.5 0.95 -1.6 0.9 Q-1.6 0.85 -1.7 0.8 L-1.75 0.8 -1.85 0.75 M-1.6 0.9 L-1.6 0.9" fill="#383774" fill-rule="evenodd" stroke="none"/>
    <path d="M-2.0 0.65 L-1.9 0.7 -1.85 0.75 -1.75 0.8 -1.7 0.8 Q-1.6 0.85 -1.6 0.9 L-1.65 0.9 -1.65 0.85 -1.85 0.8 -2.0 0.65" fill="#7659b2" fill-rule="evenodd" stroke="none"/>
    <path d="M-2.2 0.55 L-2.2 0.55 -2.05 0.6 -2.0 0.65 -1.85 0.8 -1.65 0.85 -1.65 0.9 -1.6 0.9 -1.6 0.9 Q-1.5 0.95 -1.45 0.95 L-1.4 0.95 -1.3 0.9 -1.25 0.9 -1.3 0.95 -1.4 1.0 Q-1.45 1.0 -1.55 0.95 L-1.7 0.85 -1.85 0.8 -2.1 0.65 Q-2.15 0.6 -2.2 0.55" fill="#d291e9" fill-rule="evenodd" stroke="none"/>
    <path d="M-2.2 1.05 L-2.2 0.55 Q-2.15 0.6 -2.1 0.65 L-1.85 0.8 -1.7 0.85 -1.55 0.95 Q-1.45 1.0 -1.4 1.0 L-1.45 1.05 -1.5 1.0 Q-1.6 1.0 -1.7 0.9 L-1.95 0.95 -2.2 1.05" fill="#fee8ff" fill-rule="evenodd" stroke="none"/>
    <path d="M-2.2 0.55 L-2.2 0.5 -2.05 0.55 -2.0 0.65 -2.0 0.65 -2.05 0.6 -2.2 0.55" fill="#7950a5" fill-rule="evenodd" stroke="none"/>
    <path d="M-1.1 0.8 L-1.05 0.8 -1.05 0.85 -1.1 0.8" fill="#f791e3" fill-rule="evenodd" stroke="none"/>
    <path d="M-1.6 0.9 L-1.5 0.95 -1.45 0.95 Q-1.5 0.95 -1.6 0.9" fill="#775cb3" fill-rule="evenodd" stroke="none"/>
    <path d="M-2.2 1.95 L-2.2 1.9 -2.0 1.85 -1.85 1.75 Q-1.6 1.55 -1.25 1.45 L-1.15 1.4 Q-1.1 1.35 -1.05 1.35 L-1.1 1.4 -1.15 1.45 -1.2 1.55 -1.45 1.6 Q-1.6 1.65 -1.7 1.7 L-1.95 1.85 -2.2 1.95" fill="#feceff" fill-rule="evenodd" stroke="none"/>
    <path d="M-2.2 2.0 L-2.2 1.95 -1.95 1.85 -1.7 1.7 Q-1.6 1.65 -1.45 1.6 L-1.2 1.55 -1.15 1.45 -1.1 1.4 -1.15 1.55 -1.2 1.7 Q-1.25 1.75 -1.35 1.7 L-1.5 1.7 Q-1.6 1.7 -1.7 1.75 L-1.9 1.9 -2.2 2.0" fill="#f8bcfe" fill-rule="evenodd" stroke="none"/>
    <path d="M-2.2 1.9 L-2.2 1.85 Q-2.05 1.8 -1.9 1.7 L-1.75 1.6 -1.6 1.55 -1.45 1.45 -1.25 1.4 -0.95 1.25 -1.05 1.35 Q-1.1 1.35 -1.15 1.4 L-1.25 1.45 Q-1.6 1.55 -1.85 1.75 L-2.0 1.85 -2.2 1.9" fill="#ffdeff" fill-rule="evenodd" stroke="none"/>
    <path d="M-1.1 1.5 L-1.1 1.45 -1.05 1.4 -1.0 1.45 -0.95 1.45 -0.95 1.4 -0.9 1.35 Q-0.85 1.45 -0.95 1.45 L-0.95 1.55 -1.0 1.55 -1.1 1.5" fill="#fa7eab" fill-rule="evenodd" stroke="none"/>
    <path d="M-1.7 2.2 L-2.0 2.2 -1.95 2.15 -1.9 2.05 Q-1.95 2.0 -2.05 2.05 L-2.2 2.1 -2.2 2.05 -1.95 2.0 -1.75 2.05 Q-1.65 2.0 -1.6 1.95 L-1.45 1.8 -1.3 1.85 -1.2 1.85 Q-1.2 1.9 -1.3 1.9 -1.35 1.85 -1.4 1.85 L-1.45 1.9 -1.55 2.0 -1.65 2.05 -1.7 2.1 -1.7 2.2" fill="#a48ef8" fill-rule="evenodd" stroke="none"/>
    <path d="M-2.2 2.05 L-2.2 2.05 -2.05 2.0 -1.9 1.95 -1.75 1.95 Q-1.65 1.95 -1.65 1.9 L-1.55 1.8 -1.45 1.8 -1.3 1.8 -1.15 1.8 -1.15 1.8 -1.2 1.85 -1.3 1.85 -1.45 1.8 -1.6 1.95 Q-1.65 2.0 -1.75 2.05 L-1.95 2.0 -2.2 2.05" fill="#ba96fa" fill-rule="evenodd" stroke="none"/>
    <path d="M-2.2 2.05 L-2.2 2.0 -1.85 1.9 -1.7 1.9 -1.65 1.8 Q-1.55 1.7 -1.4 1.75 L-1.3 1.75 -1.2 1.75 -1.15 1.8 -1.3 1.8 -1.45 1.8 -1.55 1.8 -1.65 1.9 Q-1.65 1.95 -1.75 1.95 L-1.9 1.95 -2.05 2.0 -2.2 2.05 M-1.15 1.8 L-1.15 1.8" fill="#d1a1fc" fill-rule="evenodd" stroke="none"/>
    <path d="M-2.2 2.0 L-2.2 2.0 -1.9 1.9 -1.7 1.75 Q-1.6 1.7 -1.5 1.7 L-1.35 1.7 Q-1.25 1.75 -1.2 1.7 L-1.2 1.75 -1.3 1.75 -1.4 1.75 Q-1.55 1.7 -1.65 1.8 L-1.7 1.9 -1.85 1.9 -2.2 2.0" fill="#e8aefe" fill-rule="evenodd" stroke="none"/>
    <path d="M-1.1 1.75 L-1.1 1.55 Q-1.0 1.55 -1.0 1.6 L-0.95 1.7 -0.9 1.8 -1.05 1.8 -1.1 1.75" fill="#ffc7c6" fill-rule="evenodd" stroke="none"/>
    <path d="M-1.15 1.8 L-1.15 1.8 -1.15 1.8 -1.15 1.75 -0.95 1.85 -0.9 1.9 -0.95 1.9 -1.05 1.85 -1.15 1.8 M-0.95 1.85 L-0.95 1.85" fill="#e17fc3" fill-rule="evenodd" stroke="none"/>
    <path d="M-1.15 1.8 L-1.05 1.85 -1.05 1.9 -1.05 1.95 -1.0 1.95 -1.0 1.95 Q-1.05 1.95 -1.1 2.0 L-1.1 2.15 -1.15 2.1 -1.15 2.05 -1.25 2.05 -1.35 2.05 -1.35 1.95 -1.3 1.95 -1.3 1.9 Q-1.2 1.9 -1.2 1.85 L-1.15 1.8" fill="#a57dea" fill-rule="evenodd" stroke="none"/>
    <path d="M-1.1 1.75 L-1.05 1.8 -0.9 1.8 -0.95 1.7 -1.0 1.6 Q-1.0 1.55 -1.1 1.55 L-1.1 1.5 -1.0 1.55 -0.95 1.55 Q-0.85 1.6 -0.85 1.55 L-0.85 1.5 -0.8 1.45 -0.8 1.5 -0.75 1.5 -0.75 1.55 -0.75 1.6 -0.6 1.65 -0.5 1.65 -0.45 1.6 -0.35 1.6 -0.4 1.65 -0.5 1.7 -0.55 1.7 Q-0.55 1.75 -0.6 1.8 L-0.8 1.7 -0.95 1.65 -0.95 1.7 -0.9 1.8 Q-0.85 1.8 -0.9 1.8 L-0.95 1.85 -1.15 1.75 -1.1 1.75" fill="#ffa6ac" fill-rule="evenodd" stroke="none"/>
    <path d="M-1.7 2.2 L-1.7 2.2 -1.7 2.1 -1.65 2.05 -1.55 2.0 -1.45 1.9 -1.4 1.85 Q-1.35 1.85 -1.3 1.9 L-1.3 1.95 -1.35 1.95 -1.35 2.05 -1.25 2.05 -1.15 2.05 -1.25 2.1 -1.35 2.1 -1.4 2.05 -1.5 2.05 -1.65 2.1 -1.7 2.2" fill="#9381f1" fill-rule="evenodd" stroke="none"/>
    <path d="M-2.0 2.2 L-2.2 2.2 -2.2 2.1 -2.05 2.05 Q-1.95 2.0 -1.9 2.05 L-1.95 2.15 -2.0 2.2" fill="#8b85f3" fill-rule="evenodd" stroke="none"/>
    <path d="M-1.1 2.2 L-1.7 2.2 -1.65 2.1 -1.5 2.05 -1.4 2.05 -1.35 2.1 -1.25 2.1 -1.15 2.05 -1.15 2.1 -1.1 2.15 -1.1 2.2" fill="#7d76e8" fill-rule="evenodd" stroke="none"/>
    <path d="M-1.05 1.85 L-0.95 1.9 -0.9 2.0 -1.0 1.95 -1.0 1.95 -1.0 1.95 -1.05 1.95 -1.05 1.9 -1.05 1.85" fill="#8967d1" fill-rule="evenodd" stroke="none"/>
    <path d="M-1.05 2.2 L-1.1 2.2 -1.1 2.15 -1.1 2.0 Q-1.05 1.95 -1.0 1.95 L-1.0 1.95 -0.9 2.0 -0.85 2.0 -0.95 2.0 -1.05 2.0 Q-1.1 2.05 -1.05 2.15 L-1.05 2.2 M-0.85 2.0 L-0.85 2.0 -0.85 2.0" fill="#c673c7" fill-rule="evenodd" stroke="none"/>
    <path d="M-1.05 2.15 Q-1.1 2.05 -1.05 2.0 L-0.95 2.0 -0.85 2.0 -0.95 2.1 -1.05 2.15" fill="#f686b6" fill-rule="evenodd" stroke="none"/>
    <path d="M-0.85 2.2 L-1.05 2.2 -1.05 2.15 -0.95 2.1 -0.85 2.0 -0.85 2.0 -0.75 2.0 Q-0.7 2.0 -0.65 2.05 L-0.7 2.05 -0.8 2.05 -0.8 2.1 -0.85 2.2" fill="#f7738c" fill-rule="evenodd" stroke="none"/>
    <path d="M0.0 2.2 L-0.1 2.2 Q-0.1 2.1 -0.2 2.1 L-0.4 2.15 -0.65 2.05 -0.45 2.05 -0.3 2.1 Q-0.2 2.1 -0.2 2.05 L-0.3 1.95 -0.45 1.95 -0.5 1.85 Q-0.5 1.8 -0.4 1.8 L-0.35 1.8 -0.3 1.75 Q-0.3 1.65 -0.4 1.7 L-0.5 1.8 -0.6 1.8 -0.65 1.8 -0.75 1.75 -0.85 1.75 -0.85 1.85 Q-0.85 1.85 -0.95 1.85 L-0.95 1.85 -0.9 1.8 Q-0.85 1.8 -0.9 1.8 L-0.95 1.7 -0.95 1.65 -0.8 1.7 -0.6 1.8 Q-0.55 1.75 -0.55 1.7 L-0.5 1.7 -0.4 1.65 -0.35 1.6 -0.3 1.65 -0.2 1.65 -0.15 1.5 -0.1 1.35 -0.1 1.45 -0.05 1.5 -0.05 1.55 -0.15 1.65 -0.15 1.7 -0.2 1.75 -0.3 1.8 -0.4 1.8 -0.45 1.85 -0.45 1.9 -0.4 1.9 -0.3 1.9 -0.25 1.95 -0.15 2.0 -0.1 2.05 Q-0.05 2.0 -0.1 1.95 L-0.15 1.9 -0.15 1.85 -0.1 1.8 -0.1 1.85 -0.15 1.9 -0.05 1.95 Q0.0 2.0 0.0 2.05 L-0.05 2.1 0.0 2.2" fill="#fe7b89" fill-rule="evenodd" stroke="none"/>
    <path d="M-0.6 1.5 L-0.55 1.45 -0.5 1.45 -0.45 1.55 -0.35 1.6 -0.45 1.6 -0.5 1.65 -0.6 1.65 -0.75 1.6 -0.75 1.55 -0.75 1.55 -0.65 1.6 -0.6 1.6 -0.65 1.55 -0.6 1.55 -0.55 1.55 -0.55 1.5 -0.6 1.5" fill="#ff7996" fill-rule="evenodd" stroke="none"/>
    <path d="M-0.9 1.9 L-0.95 1.85 Q-0.85 1.85 -0.85 1.85 L-0.85 1.75 -0.75 1.75 -0.65 1.8 -0.6 1.8 -0.5 1.8 -0.4 1.7 Q-0.3 1.65 -0.3 1.75 L-0.35 1.8 -0.4 1.8 Q-0.5 1.8 -0.5 1.85 L-0.45 1.95 -0.3 1.95 -0.2 2.05 Q-0.2 2.1 -0.3 2.1 L-0.45 2.05 -0.65 2.05 Q-0.7 2.0 -0.75 2.0 L-0.85 2.0 -0.85 2.0 -0.8 1.95 -0.75 1.9 Q-0.75 1.85 -0.7 1.9 -0.7 2.0 -0.6 2.05 L-0.4 2.05 -0.45 1.95 -0.45 1.95 -0.5 1.95 -0.55 1.9 -0.55 1.85 -0.6 1.8 -0.65 1.85 -0.7 1.8 -0.8 1.8 -0.85 1.85 -0.9 1.9 -0.9 1.9 M-0.85 2.0 L-0.85 2.0" fill="#f1536f" fill-rule="evenodd" stroke="none"/>
    <path d="M-0.65 1.4 L-0.65 1.35 -0.6 1.3 -0.6 1.25 -0.55 1.25 Q-0.5 1.3 -0.55 1.35 L-0.65 1.45 -0.65 1.4" fill="#c43660" fill-rule="evenodd" stroke="none"/>
    <path d="M-0.75 1.35 L-0.7 1.35 -0.7 1.4 -0.75 1.4 -0.75 1.35" fill="#ff9ea6" fill-rule="evenodd" stroke="none"/>
    <path d="M-0.6 1.45 L-0.6 1.45 -0.7 1.45 -0.7 1.5 -0.65 1.55 -0.65 1.55 -0.6 1.6 -0.65 1.6 -0.75 1.55 -0.75 1.55 -0.75 1.5 -0.8 1.5 -0.8 1.45 -0.85 1.5 -0.85 1.55 Q-0.85 1.6 -0.95 1.55 L-0.95 1.45 Q-0.85 1.45 -0.9 1.35 L-0.85 1.35 -0.9 1.4 -0.85 1.45 -0.8 1.45 -0.75 1.35 -0.75 1.35 -0.75 1.4 -0.7 1.4 -0.7 1.35 -0.65 1.4 -0.65 1.45 -0.6 1.45 M-0.9 1.5 L-0.95 1.5 -0.9 1.55 -0.85 1.55 -0.9 1.5" fill="#f66382" fill-rule="evenodd" stroke="none"/>
    <path d="M-0.6 1.45 L-0.6 1.5 -0.55 1.5 -0.55 1.55 -0.6 1.55 -0.65 1.55 -0.65 1.55 -0.7 1.5 -0.7 1.45 -0.6 1.45" fill="#ffaeb4" fill-rule="evenodd" stroke="none"/>
    <path d="M-0.9 1.5 L-0.85 1.55 -0.9 1.55 -0.95 1.5 -0.9 1.5" fill="#c3456a" fill-rule="evenodd" stroke="none"/>
    <path d="M-0.9 1.9 L-0.85 1.85 -0.8 1.8 -0.7 1.8 -0.65 1.85 -0.6 1.8 -0.55 1.85 -0.55 1.9 -0.5 1.95 -0.45 1.95 -0.45 1.95 -0.4 2.05 -0.6 2.05 Q-0.7 2.0 -0.7 1.9 -0.75 1.85 -0.75 1.9 L-0.8 1.95 -0.85 2.0 Q-0.8 1.95 -0.85 1.9 -0.85 1.9 -0.9 1.9 M-0.55 1.95 L-0.55 1.9 -0.6 1.9 Q-0.6 1.85 -0.65 1.85 L-0.65 1.95 -0.6 2.0 -0.55 2.05 -0.45 2.0 -0.5 1.95 -0.55 1.95" fill="#ba3b5c" fill-rule="evenodd" stroke="none"/>
    <path d="M-0.55 1.95 L-0.5 1.95 -0.45 2.0 -0.55 2.05 -0.6 2.0 -0.65 1.95 -0.65 1.85 Q-0.6 1.85 -0.6 1.9 L-0.55 1.9 -0.55 1.95" fill="#7c2a4c" fill-rule="evenodd" stroke="none"/>
    <path d="M-0.1 2.2 L-0.45 2.2 -0.55 2.1 -0.7 2.05 -0.8 2.1 -0.8 2.2 -0.85 2.2 -0.8 2.1 -0.8 2.05 -0.7 2.05 -0.65 2.05 -0.4 2.15 -0.2 2.1 Q-0.1 2.1 -0.1 2.2" fill="#ffa299" fill-rule="evenodd" stroke="none"/>
    <path d="M-0.45 2.2 L-0.8 2.2 -0.8 2.1 -0.7 2.05 -0.55 2.1 -0.45 2.2" fill="#ffc9bb" fill-rule="evenodd" stroke="none"/>
    <path d="M-0.95 1.9 L-0.9 1.9 Q-0.85 1.9 -0.85 1.9 -0.8 1.95 -0.85 2.0 L-0.9 2.0 -0.95 1.9 M-0.85 2.0 L-0.85 2.0 M-0.9 1.9 L-0.9 1.9" fill="#844993" fill-rule="evenodd" stroke="none"/>
  </g>
</svg>
