<?xml version="1.0" encoding="UTF-8" standalone="no"?>
<svg xmlns:xlink="http://www.w3.org/1999/xlink" height="4.4px" width="4.4px" xmlns="http://www.w3.org/2000/svg">
  <g transform="matrix(1.0, 0.0, 0.0, 1.0, 2.2, 2.2)">
    <path d="M1.7 -2.2 L1.65 -2.1 1.6 -2.05 1.45 -2.0 1.25 -2.1 Q1.1 -2.05 1.0 -2.2 L1.7 -2.2" fill="#a1d2e2" fill-rule="evenodd" stroke="none"/>
    <path d="M1.0 -2.2 Q1.1 -2.05 1.25 -2.1 L1.45 -2.0 1.6 -2.05 1.65 -2.1 1.7 -2.2 1.9 -2.2 1.85 -2.15 1.8 -2.0 1.75 -1.95 1.75 -1.9 1.7 -1.8 Q1.65 -1.8 1.6 -1.8 L1.65 -1.75 1.7 -1.7 Q1.8 -1.6 1.75 -1.5 1.7 -1.4 1.6 -1.4 1.55 -1.35 1.5 -1.3 L1.45 -1.25 1.35 -1.15 1.25 -1.15 Q1.2 -1.15 1.2 -1.2 L1.2 -1.3 1.3 -1.45 1.4 -1.65 1.5 -1.7 1.6 -1.8 1.5 -1.85 1.45 -1.9 1.25 -2.0 1.1 -2.0 0.95 -2.1 0.75 -2.05 0.6 -1.9 0.5 -1.9 0.4 -1.9 0.35 -2.05 0.3 -2.2 0.35 -2.2 Q0.35 -2.1 0.45 -2.05 L0.6 -2.0 0.7 -2.05 0.8 -2.2 1.0 -2.2" fill="#b1d8e4" fill-rule="evenodd" stroke="none"/>
    <path d="M0.3 -2.2 L0.35 -2.05 0.4 -1.9 0.5 -1.9 0.6 -1.9 0.75 -2.05 0.95 -2.1 1.1 -2.0 1.25 -2.0 1.45 -1.9 1.5 -1.85 1.6 -1.8 1.5 -1.7 1.4 -1.65 1.3 -1.45 1.2 -1.3 1.2 -1.2 Q1.2 -1.15 1.25 -1.15 L1.35 -1.15 1.45 -1.25 1.5 -1.3 Q1.55 -1.35 1.6 -1.4 1.7 -1.4 1.75 -1.5 1.8 -1.6 1.7 -1.7 L1.65 -1.75 1.6 -1.8 Q1.65 -1.8 1.7 -1.8 L1.75 -1.9 1.75 -1.95 1.8 -2.0 1.85 -2.15 1.9 -2.2 2.2 -2.2 2.2 -1.6 2.0 -1.6 1.85 -1.5 1.75 -1.4 1.65 -1.25 1.55 -1.15 1.6 -1.25 1.65 -1.35 1.55 -1.25 1.45 -1.2 1.35 -1.1 1.2 -1.05 1.1 -1.15 Q1.05 -1.2 1.1 -1.3 L1.25 -1.5 Q1.3 -1.6 1.3 -1.7 L1.35 -1.8 1.35 -1.85 1.25 -1.85 1.15 -1.8 1.1 -1.8 1.05 -1.85 Q1.05 -1.95 1.0 -1.95 L0.85 -2.0 Q0.8 -2.0 0.7 -1.9 L0.6 -1.8 0.4 -1.8 0.35 -1.9 0.35 -2.0 0.3 -2.1 0.25 -2.2 0.3 -2.2" fill="#bddfe8" fill-rule="evenodd" stroke="none"/>
    <path d="M0.25 -2.2 L0.3 -2.1 0.35 -2.0 0.35 -1.9 0.4 -1.8 0.6 -1.8 0.7 -1.9 Q0.8 -2.0 0.85 -2.0 L1.0 -1.95 Q1.05 -1.95 1.05 -1.85 L1.1 -1.8 1.15 -1.8 1.25 -1.85 1.35 -1.85 1.35 -1.8 1.3 -1.7 Q1.3 -1.6 1.25 -1.5 L1.1 -1.3 Q1.05 -1.2 1.1 -1.15 L1.2 -1.05 1.35 -1.1 1.45 -1.2 1.55 -1.25 1.65 -1.35 1.6 -1.25 1.55 -1.15 1.5 -1.05 Q1.45 -1.0 1.35 -0.95 L1.45 -1.05 1.5 -1.15 1.45 -1.1 1.4 -1.05 1.2 -1.0 Q1.1 -1.05 1.0 -1.1 L1.05 -1.25 1.05 -1.4 1.1 -1.45 1.1 -1.6 1.0 -1.65 0.95 -1.55 0.85 -1.5 0.75 -1.45 0.7 -1.4 Q0.6 -1.35 0.55 -1.35 L0.5 -1.4 0.5 -1.45 0.55 -1.5 0.55 -1.55 0.5 -1.65 0.45 -1.7 0.35 -1.7 0.3 -1.75 0.3 -1.95 0.25 -2.05 0.15 -2.2 0.25 -2.2" fill="#c6e4eb" fill-rule="evenodd" stroke="none"/>
    <path d="M0.15 -2.2 L0.25 -2.05 0.3 -1.95 0.3 -1.75 0.35 -1.7 0.45 -1.7 0.5 -1.65 0.55 -1.55 0.55 -1.5 0.5 -1.45 0.5 -1.4 0.55 -1.35 Q0.6 -1.35 0.7 -1.4 L0.75 -1.45 0.85 -1.5 0.95 -1.55 1.0 -1.65 1.1 -1.6 1.1 -1.45 1.05 -1.4 1.05 -1.25 1.0 -1.1 Q1.1 -1.05 1.2 -1.0 L1.4 -1.05 1.45 -1.1 1.5 -1.15 1.45 -1.05 1.35 -0.95 1.3 -0.9 1.25 -0.9 1.15 -0.85 1.15 -0.8 Q1.1 -0.85 1.15 -0.85 L1.15 -0.9 1.2 -0.9 1.25 -0.95 1.15 -0.95 1.0 -0.95 Q0.95 -0.95 0.95 -1.0 0.9 -1.0 0.95 -1.05 0.9 -1.3 0.8 -1.35 L0.65 -1.3 Q0.55 -1.3 0.5 -1.35 L0.4 -1.45 0.4 -1.6 0.3 -1.6 0.2 -1.6 0.2 -1.65 0.15 -1.65 0.15 -1.7 0.2 -1.8 0.25 -1.9 Q0.25 -1.95 0.2 -2.05 L0.1 -2.1 0.05 -2.2 0.15 -2.2" fill="#d1e8ed" fill-rule="evenodd" stroke="none"/>
    <path d="M1.55 -1.15 L1.65 -1.25 1.75 -1.35 1.9 -1.5 2.0 -1.55 2.1 -1.6 2.15 -1.55 2.2 -1.45 2.15 -1.5 2.1 -1.55 2.0 -1.55 1.95 -1.5 1.8 -1.4 1.75 -1.3 1.65 -1.2 1.55 -1.1 1.5 -1.05 1.45 -1.0 1.4 -0.95 1.35 -0.9 1.3 -0.9 1.25 -0.85 Q1.15 -0.85 1.15 -0.8 L1.15 -0.85 1.25 -0.9 1.3 -0.9 1.35 -0.95 Q1.45 -1.0 1.5 -1.05 L1.55 -1.15 M2.2 -1.45 L2.2 -1.45 M1.15 -0.8 L1.15 -0.8" fill="#889a9f" fill-rule="evenodd" stroke="none"/>
    <path d="M1.65 -1.25 L1.75 -1.4 1.85 -1.5 2.0 -1.6 2.2 -1.6 2.2 -1.45 2.15 -1.55 2.1 -1.6 2.0 -1.55 1.9 -1.5 1.75 -1.35 1.65 -1.25" fill="#a0bcc3" fill-rule="evenodd" stroke="none"/>
    <path d="M1.8 -1.3 L1.85 -1.4 1.95 -1.5 2.0 -1.55 2.05 -1.55 2.1 -1.45 2.2 -1.4 2.2 -1.35 Q2.15 -1.4 2.1 -1.4 L2.05 -1.5 2.05 -1.5 2.0 -1.5 1.95 -1.45 1.9 -1.4 1.85 -1.35 1.8 -1.3" fill="#404f56" fill-rule="evenodd" stroke="none"/>
    <path d="M1.95 -1.5 L2.0 -1.55 2.1 -1.55 2.15 -1.5 2.2 -1.45 2.2 -1.4 2.1 -1.45 2.05 -1.55 2.0 -1.55 1.95 -1.5" fill="#5d757e" fill-rule="evenodd" stroke="none"/>
    <path d="M1.95 -1.45 L2.0 -1.5 2.05 -1.45 2.1 -1.4 2.15 -1.35 2.2 -1.35 2.2 -0.95 2.0 -0.85 Q1.95 -0.85 1.95 -0.9 L1.9 -0.95 1.8 -1.0 1.8 -0.9 1.75 -0.85 1.7 -0.95 1.65 -1.05 1.85 -1.25 1.95 -1.45" fill="#161e21" fill-rule="evenodd" stroke="none"/>
    <path d="M1.6 -1.1 L1.7 -1.2 1.8 -1.3 1.85 -1.35 1.75 -1.25 1.75 -1.15 Q1.7 -1.1 1.65 -1.1 L1.6 -1.1" fill="#523e34" fill-rule="evenodd" stroke="none"/>
    <path d="M1.45 -1.0 L1.5 -1.05 1.55 -1.1 1.65 -1.2 1.75 -1.3 1.8 -1.4 1.95 -1.5 1.85 -1.4 1.8 -1.3 1.7 -1.2 1.6 -1.1 1.6 -1.1 1.55 -1.05 1.45 -1.0" fill="#696e6d" fill-rule="evenodd" stroke="none"/>
    <path d="M1.45 -1.0 L1.55 -1.05 1.6 -1.1 1.6 -1.1 1.65 -1.1 Q1.7 -1.1 1.75 -1.15 L1.75 -1.25 1.85 -1.35 1.9 -1.4 1.95 -1.45 1.85 -1.25 1.65 -1.05 1.7 -0.95 1.75 -0.85 1.8 -0.9 1.8 -1.0 1.9 -0.95 1.95 -0.9 Q1.95 -0.85 2.0 -0.85 L2.2 -0.95 2.2 -0.7 2.1 -0.75 2.05 -0.75 2.0 -0.75 1.95 -0.75 1.9 -0.7 1.85 -0.65 Q1.8 -0.65 1.8 -0.7 L1.7 -0.75 1.65 -0.7 1.65 -0.65 1.7 -0.6 1.75 -0.5 1.7 -0.5 1.65 -0.5 1.65 -0.55 1.6 -0.6 Q1.55 -0.55 1.45 -0.55 L1.3 -0.35 1.25 -0.3 1.2 -0.25 1.2 -0.1 1.1 -0.1 1.1 -0.2 1.05 -0.15 1.1 -0.1 1.05 -0.05 1.0 0.0 0.95 0.1 1.0 0.05 1.05 0.1 1.1 0.15 1.05 0.15 1.0 0.2 1.0 0.1 0.95 0.1 0.9 0.1 0.95 0.0 1.05 -0.1 1.05 -0.15 1.0 -0.15 1.0 -0.3 0.9 -0.45 0.8 -0.4 0.65 -0.3 0.6 -0.25 0.6 -0.1 0.55 -0.1 0.5 -0.1 0.5 -0.15 0.45 -0.15 0.4 -0.15 0.4 -0.2 0.35 -0.15 0.35 -0.2 0.4 -0.25 0.45 -0.25 Q0.4 -0.2 0.45 -0.2 L0.55 -0.2 0.55 -0.25 0.6 -0.35 0.65 -0.35 0.65 -0.4 0.7 -0.4 Q0.7 -0.35 0.7 -0.4 0.75 -0.4 0.8 -0.45 L0.9 -0.45 0.9 -0.5 0.95 -0.45 1.05 -0.45 1.05 -0.5 1.1 -0.5 1.05 -0.4 Q1.05 -0.35 1.05 -0.35 1.1 -0.3 1.1 -0.35 L1.15 -0.4 1.2 -0.45 1.25 -0.5 1.3 -0.55 1.35 -0.6 1.4 -0.65 1.45 -0.75 1.4 -0.8 1.4 -0.85 1.35 -0.9 1.4 -0.95 1.45 -1.0 M1.35 -0.9 L1.35 -0.9 M1.3 -0.35 L1.3 -0.35 M1.0 0.0 L1.0 0.0" fill="#2a2222" fill-rule="evenodd" stroke="none"/>
    <path d="M0.8 -2.2 L0.7 -2.05 0.6 -2.0 0.45 -2.05 Q0.35 -2.1 0.35 -2.2 L0.8 -2.2" fill="#a4d2e1" fill-rule="evenodd" stroke="none"/>
    <path d="M0.05 -2.2 L0.1 -2.1 0.2 -2.05 Q0.25 -1.95 0.25 -1.9 L0.2 -1.8 0.15 -1.7 0.15 -1.65 0.2 -1.65 0.2 -1.6 0.3 -1.6 0.4 -1.6 0.4 -1.45 0.5 -1.35 Q0.55 -1.3 0.65 -1.3 L0.8 -1.35 Q0.9 -1.3 0.95 -1.05 0.9 -1.0 0.95 -1.0 0.95 -0.95 1.0 -0.95 L1.15 -0.95 1.25 -0.95 1.2 -0.9 1.15 -0.9 1.15 -0.85 Q1.1 -0.85 1.15 -0.8 L1.1 -0.8 1.1 -0.8 1.05 -0.8 1.0 -0.75 0.9 -0.7 0.85 -0.7 0.8 -0.7 0.75 -0.7 0.75 -0.7 0.7 -0.65 0.65 -0.65 0.6 -0.65 Q0.6 -0.6 0.55 -0.55 L0.5 -0.55 0.45 -0.5 0.4 -0.5 0.3 -0.45 Q0.25 -0.45 0.25 -0.45 L0.2 -0.5 0.15 -0.5 0.15 -0.5 0.1 -0.45 0.05 -0.4 0.0 -0.45 -0.05 -0.55 Q-0.05 -0.6 0.05 -0.6 L0.25 -0.5 0.35 -0.5 Q0.4 -0.5 0.5 -0.6 L0.65 -0.7 0.75 -0.8 0.9 -0.9 0.9 -0.95 0.85 -0.95 0.85 -1.05 0.85 -1.15 0.75 -1.2 0.7 -1.2 Q0.7 -1.2 0.7 -1.25 L0.55 -1.25 Q0.5 -1.25 0.45 -1.3 L0.35 -1.4 0.3 -1.5 0.25 -1.5 0.2 -1.5 Q0.1 -1.5 0.05 -1.55 0.05 -1.6 0.05 -1.65 L0.05 -1.8 0.1 -1.8 0.15 -1.8 0.2 -1.95 0.1 -2.05 0.0 -2.05 -0.15 -2.0 Q-0.25 -1.95 -0.35 -1.9 L-0.55 -1.9 -0.75 -1.9 -0.95 -1.85 -1.05 -1.85 -1.15 -1.8 -1.3 -1.75 -1.5 -1.75 -1.65 -1.7 -1.75 -1.6 -1.75 -1.55 -1.85 -1.5 -1.8 -1.35 -1.7 -1.25 -1.55 -1.15 -1.35 -1.1 -1.3 -1.0 -1.25 -0.9 -1.25 -0.85 -1.2 -0.8 -1.25 -0.8 -1.3 -0.85 -1.4 -0.95 -1.5 -1.05 -1.8 -1.3 -2.0 -1.65 -1.95 -1.7 -1.9 -1.75 -1.7 -1.85 Q-1.6 -1.9 -1.55 -2.0 L-1.4 -2.05 -1.25 -2.05 -1.1 -2.05 -1.0 -2.0 -0.95 -2.0 -0.85 -2.0 -0.7 -2.05 -0.6 -2.05 Q-0.5 -2.0 -0.45 -2.0 L-0.25 -2.0 -0.15 -2.05 -0.05 -2.2 0.05 -2.2 M0.05 -0.4 L0.05 -0.4 M0.25 -0.45 L0.25 -0.45 M0.9 -0.7 L0.9 -0.7 M1.0 -0.75 L1.0 -0.75 M1.15 -0.8 L1.15 -0.8" fill="#dee8ed" fill-rule="evenodd" stroke="none"/>
    <path d="M-1.2 -0.8 L-1.25 -0.85 -1.25 -0.9 -1.3 -1.0 -1.35 -1.1 -1.55 -1.15 -1.7 -1.25 -1.8 -1.35 -1.85 -1.5 -1.75 -1.55 -1.75 -1.6 -1.65 -1.7 -1.5 -1.75 -1.3 -1.75 -1.15 -1.8 -1.05 -1.85 -0.95 -1.85 -0.75 -1.9 -0.55 -1.9 -0.35 -1.9 Q-0.25 -1.95 -0.15 -2.0 L0.0 -2.05 0.1 -2.05 0.2 -1.95 0.15 -1.8 0.1 -1.8 0.05 -1.8 0.05 -1.65 Q0.05 -1.6 0.05 -1.55 0.1 -1.5 0.2 -1.5 L0.25 -1.5 0.3 -1.5 0.35 -1.4 0.45 -1.3 Q0.5 -1.25 0.55 -1.25 L0.7 -1.25 Q0.7 -1.2 0.7 -1.2 L0.75 -1.2 0.85 -1.15 0.85 -1.05 0.85 -0.95 0.9 -0.95 0.9 -0.9 0.75 -0.8 0.65 -0.7 0.5 -0.6 Q0.4 -0.5 0.35 -0.5 L0.25 -0.5 0.05 -0.6 Q-0.05 -0.6 -0.05 -0.55 L0.0 -0.45 0.05 -0.4 0.0 -0.45 -0.05 -0.5 -0.1 -0.55 -0.05 -0.65 Q-0.05 -0.7 -0.1 -0.75 L-0.05 -0.8 0.0 -0.85 0.05 -0.9 0.05 -0.95 0.0 -1.0 -0.05 -1.0 Q-0.05 -1.05 -0.15 -1.05 L-0.25 -1.05 -0.35 -1.05 -0.35 -1.2 -0.35 -1.25 -0.3 -1.25 -0.25 -1.25 -0.2 -1.25 -0.25 -1.3 -0.35 -1.3 -0.35 -1.4 -0.3 -1.45 -0.2 -1.5 -0.15 -1.55 -0.05 -1.65 -0.05 -1.85 Q-0.05 -1.9 -0.1 -1.9 L-0.3 -1.9 -0.45 -1.8 Q-0.55 -1.75 -0.65 -1.75 L-0.75 -1.75 -0.85 -1.75 -1.15 -1.7 -1.4 -1.6 -1.5 -1.6 -1.55 -1.6 -1.6 -1.5 -1.65 -1.45 Q-1.65 -1.35 -1.6 -1.3 L-1.55 -1.2 -1.45 -1.15 Q-1.4 -1.15 -1.35 -1.2 L-1.35 -1.3 -1.3 -1.3 -1.3 -1.2 -1.25 -1.1 Q-1.25 -1.1 -1.25 -1.05 L-1.25 -0.95 -1.2 -0.85 Q-1.15 -0.8 -1.1 -0.8 L-1.1 -0.75 -1.15 -0.8 -1.2 -0.8 M0.05 -0.4 L0.05 -0.4" fill="#e9eff2" fill-rule="evenodd" stroke="none"/>
    <path d="M0.7 -0.65 L0.75 -0.7 0.75 -0.7 0.75 -0.65 0.7 -0.65" fill="#859eaa" fill-rule="evenodd" stroke="none"/>
    <path d="M0.6 -0.65 L0.65 -0.65 0.7 -0.65 0.75 -0.65 0.75 -0.7 0.8 -0.7 0.85 -0.7 0.9 -0.7 0.9 -0.7 1.0 -0.7 1.05 -0.65 0.95 -0.65 0.95 -0.65 0.95 -0.65 0.85 -0.6 0.85 -0.55 0.75 -0.6 0.7 -0.55 0.6 -0.65" fill="#342a2a" fill-rule="evenodd" stroke="none"/>
    <path d="M0.8 -0.7 L0.85 -0.7 0.9 -0.7 0.85 -0.7 0.8 -0.7" fill="#7ba0af" fill-rule="evenodd" stroke="none"/>
    <path d="M0.9 -0.7 L1.0 -0.75 1.0 -0.7 0.9 -0.7" fill="#765b54" fill-rule="evenodd" stroke="none"/>
    <path d="M1.0 -0.75 L1.0 -0.75 1.05 -0.75 1.05 -0.7 1.1 -0.7 1.05 -0.7 1.05 -0.65 1.0 -0.7 1.0 -0.75" fill="#e57f42" fill-rule="evenodd" stroke="none"/>
    <path d="M0.95 -0.65 L0.95 -0.65 0.95 -0.65 1.05 -0.65 1.05 -0.7 1.1 -0.7 1.15 -0.7 1.15 -0.7 1.1 -0.6 1.1 -0.5 1.05 -0.5 1.05 -0.45 0.95 -0.45 0.9 -0.5 0.95 -0.5 1.0 -0.5 0.95 -0.55 0.95 -0.6 0.95 -0.65 M1.05 -0.35 Q1.05 -0.35 1.05 -0.4 L1.1 -0.5 1.15 -0.45 1.15 -0.45 1.1 -0.4 1.05 -0.35 M1.1 -0.6 L1.1 -0.6" fill="#552c25" fill-rule="evenodd" stroke="none"/>
    <path d="M0.45 -0.5 L0.5 -0.55 0.55 -0.55 Q0.6 -0.6 0.6 -0.65 L0.7 -0.55 0.75 -0.55 0.75 -0.6 0.8 -0.55 0.85 -0.55 0.85 -0.6 0.95 -0.65 0.95 -0.6 0.95 -0.55 1.0 -0.5 0.95 -0.5 0.9 -0.5 0.9 -0.45 0.8 -0.5 0.75 -0.45 0.7 -0.4 0.7 -0.4 0.65 -0.4 0.55 -0.35 0.55 -0.35 0.5 -0.3 0.5 -0.4 0.4 -0.4 0.35 -0.35 0.35 -0.35 0.35 -0.4 0.3 -0.4 0.35 -0.45 0.35 -0.4 0.4 -0.4 0.45 -0.45 0.45 -0.5 M0.7 -0.4 Q0.7 -0.35 0.7 -0.4 L0.7 -0.4 0.65 -0.5 0.55 -0.55 0.6 -0.45 Q0.6 -0.45 0.65 -0.45 L0.7 -0.45 0.7 -0.4 M0.5 -0.45 L0.5 -0.4 Q0.5 -0.35 0.55 -0.4 L0.55 -0.45 0.5 -0.45 M0.95 -0.55 L0.9 -0.6 0.85 -0.55 0.85 -0.5 0.9 -0.5 Q0.95 -0.5 0.95 -0.55" fill="#da6a3b" fill-rule="evenodd" stroke="none"/>
    <path d="M-0.35 -1.2 L-0.35 -1.05 -0.25 -1.05 -0.15 -1.05 Q-0.05 -1.05 -0.05 -1.0 L0.0 -1.0 0.05 -0.95 0.05 -0.9 0.0 -0.85 -0.05 -0.8 -0.1 -0.75 Q-0.05 -0.7 -0.05 -0.65 L-0.1 -0.55 -0.05 -0.5 0.0 -0.45 -0.35 -0.55 -0.4 -0.6 -0.55 -0.65 -0.7 -0.6 -0.75 -0.7 -0.75 -0.75 -0.7 -0.85 -0.7 -0.95 -0.6 -0.9 Q-0.6 -0.9 -0.55 -0.95 L-0.55 -1.0 -0.5 -1.05 -0.45 -1.15 -0.35 -1.2" fill="#ecf4f9" fill-rule="evenodd" stroke="none"/>
    <path d="M0.4 -0.5 L0.45 -0.5 0.45 -0.45 0.4 -0.4 0.35 -0.4 0.35 -0.45 0.35 -0.45 0.4 -0.5" fill="#7c3a2d" fill-rule="evenodd" stroke="none"/>
    <path d="M0.25 -0.45 Q0.25 -0.45 0.3 -0.45 L0.4 -0.5 0.35 -0.45 0.35 -0.45 0.3 -0.4 0.3 -0.4 0.25 -0.45" fill="#c98267" fill-rule="evenodd" stroke="none"/>
    <path d="M0.3 -0.4 L0.35 -0.4 0.35 -0.35 0.3 -0.3 0.3 -0.4 0.3 -0.4 M0.35 -0.35 L0.35 -0.35" fill="#933e2f" fill-rule="evenodd" stroke="none"/>
    <path d="M0.3 -0.3 L0.35 -0.35 Q0.3 -0.25 0.35 -0.25 L0.5 -0.25 0.45 -0.25 0.4 -0.25 0.35 -0.2 0.3 -0.25 0.25 -0.25 0.25 -0.3 0.3 -0.3" fill="#e3683b" fill-rule="evenodd" stroke="none"/>
    <path d="M0.05 -0.4 L0.05 -0.4 0.05 -0.4 0.1 -0.4 0.1 -0.45 0.15 -0.5 0.2 -0.5 0.2 -0.45 0.25 -0.45 0.3 -0.4 0.3 -0.3 0.25 -0.3 0.25 -0.25 0.3 -0.25 0.25 -0.15 Q0.25 -0.15 0.25 -0.1 L0.25 0.1 0.25 0.15 0.1 0.15 0.1 0.2 0.15 0.2 0.05 0.25 -0.05 0.25 -0.1 0.3 -0.1 0.35 -0.15 0.3 -0.15 0.3 -0.2 0.3 -0.25 0.25 -0.25 0.2 Q-0.25 0.2 -0.3 0.25 L-0.35 0.25 -0.3 0.2 -0.3 0.15 -0.5 0.05 -0.5 0.0 -0.45 0.0 -0.35 0.0 -0.3 0.0 -0.25 0.0 -0.25 0.0 -0.2 0.1 Q-0.15 0.1 -0.15 0.05 L-0.1 0.05 -0.05 0.05 0.0 0.05 0.0 0.0 0.05 0.0 0.05 -0.05 0.1 -0.1 0.15 -0.1 0.15 -0.15 0.1 -0.25 0.1 -0.35 0.05 -0.4 0.05 -0.4 M0.25 -0.45 L0.25 -0.45 M-0.1 0.05 L-0.1 0.05 M-0.25 0.0 L-0.25 0.0 M0.4 0.45 L0.35 0.35 0.35 0.3 Q0.4 0.3 0.4 0.25 L0.4 0.15 0.35 0.15 0.35 0.05 0.3 0.05 0.3 -0.05 0.25 -0.1 0.3 -0.15 Q0.3 -0.1 0.35 -0.1 L0.35 0.0 Q0.35 0.05 0.4 0.1 L0.45 0.15 0.5 0.15 0.5 0.0 0.55 0.0 0.6 0.05 0.6 0.0 0.65 0.0 0.65 0.05 0.6 0.05 0.6 0.2 0.55 0.2 0.55 0.3 0.6 0.35 0.6 0.35 0.65 0.35 0.7 0.4 Q0.75 0.4 0.7 0.45 L0.7 0.55 0.75 0.5 0.75 0.45 0.8 0.55 0.75 0.6 0.75 0.65 0.6 0.65 0.55 0.6 0.5 0.55 0.45 0.5 0.4 0.45 M0.55 0.2 L0.55 0.15 0.5 0.15 0.5 0.2 0.55 0.2" fill="#312726" fill-rule="evenodd" stroke="none"/>
    <path d="M0.35 -0.35 L0.35 -0.35 0.4 -0.4 0.5 -0.4 0.5 -0.3 0.5 -0.25 0.35 -0.25 Q0.3 -0.25 0.35 -0.35 L0.35 -0.35" fill="#fbc363" fill-rule="evenodd" stroke="none"/>
    <path d="M0.5 -0.45 L0.55 -0.45 0.55 -0.4 Q0.5 -0.35 0.5 -0.4 L0.5 -0.45" fill="#fbaf4e" fill-rule="evenodd" stroke="none"/>
    <path d="M0.15 -0.5 L0.15 -0.5 0.2 -0.5 0.15 -0.5" fill="#ab796f" fill-rule="evenodd" stroke="none"/>
    <path d="M0.05 -0.4 L0.1 -0.45 0.1 -0.4 0.05 -0.4" fill="#9abbcf" fill-rule="evenodd" stroke="none"/>
    <path d="M-0.55 -0.95 Q-0.6 -0.9 -0.6 -0.9 L-0.7 -0.95 -0.7 -0.85 -0.75 -0.75 -0.75 -0.7 -0.7 -0.6 -0.55 -0.65 -0.4 -0.6 -0.35 -0.55 0.0 -0.45 0.05 -0.4 0.05 -0.4 0.05 -0.3 Q0.05 -0.25 0.1 -0.25 L0.1 -0.2 0.05 -0.1 0.05 -0.05 0.0 0.0 0.0 0.0 -0.05 0.0 -0.05 0.05 -0.1 0.0 -0.1 -0.1 -0.2 -0.15 -0.25 -0.15 -0.25 -0.2 -0.25 -0.25 -0.25 -0.3 Q-0.25 -0.35 -0.25 -0.35 L-0.35 -0.3 -0.4 -0.4 -0.45 -0.4 -0.45 -0.5 -0.5 -0.45 -0.5 -0.45 -0.6 -0.45 -0.6 -0.55 -0.65 -0.5 -0.7 -0.5 -0.75 -0.55 -0.85 -0.55 -0.85 -0.55 -0.85 -0.6 -0.9 -0.6 -0.95 -0.7 -1.0 -0.7 -1.05 -0.75 -1.1 -0.75 -1.1 -0.8 Q-1.15 -0.8 -1.2 -0.9 L-1.2 -1.1 -1.2 -1.25 -1.15 -1.3 -1.2 -1.4 -1.25 -1.45 -1.25 -1.5 -1.1 -1.6 -0.95 -1.6 -0.95 -1.6 -0.9 -1.55 Q-0.85 -1.5 -0.8 -1.55 L-0.6 -1.65 -0.4 -1.7 -0.35 -1.7 -0.3 -1.7 -0.25 -1.65 -0.3 -1.65 -0.35 -1.6 -0.35 -1.5 -0.5 -1.3 Q-0.55 -1.2 -0.5 -1.1 L-0.55 -1.0 -0.55 -0.95 M-0.45 -0.4 L-0.45 -0.4" fill="#fcfcfa" fill-rule="evenodd" stroke="none"/>
    <path d="M0.05 -0.4 L0.1 -0.35 0.1 -0.25 Q0.05 -0.25 0.05 -0.3 L0.05 -0.4" fill="#f6bb6b" fill-rule="evenodd" stroke="none"/>
    <path d="M0.2 -0.5 L0.25 -0.45 0.2 -0.45 0.2 -0.5" fill="#917976" fill-rule="evenodd" stroke="none"/>
    <path d="M0.1 -0.25 L0.15 -0.15 0.1 -0.1 0.05 -0.1 0.1 -0.2 0.1 -0.25" fill="#fbe9a5" fill-rule="evenodd" stroke="none"/>
    <path d="M0.15 -0.15 L0.15 -0.1 0.1 -0.1 0.05 -0.05 0.05 0.0 0.0 0.0 0.05 -0.05 0.05 -0.1 0.1 -0.1 0.15 -0.15 M0.0 0.0 L0.0 0.0 0.0 0.0" fill="#f4b65c" fill-rule="evenodd" stroke="none"/>
    <path d="M0.5 -0.3 L0.55 -0.35 0.55 -0.35 0.65 -0.4 0.65 -0.35 0.6 -0.35 0.55 -0.25 0.55 -0.2 0.45 -0.2 Q0.4 -0.2 0.45 -0.25 L0.5 -0.25 0.5 -0.3" fill="#643128" fill-rule="evenodd" stroke="none"/>
    <path d="M0.8 0.55 L0.75 0.45 0.75 0.5 0.7 0.55 0.7 0.45 Q0.75 0.4 0.7 0.4 L0.65 0.35 0.6 0.35 0.6 0.2 0.6 0.05 0.65 0.05 0.65 0.0 0.6 0.0 0.6 0.05 0.55 0.0 0.5 0.0 0.5 0.15 0.45 0.15 0.4 0.1 Q0.35 0.05 0.35 0.0 L0.35 -0.1 0.35 -0.15 0.4 -0.2 0.4 -0.15 0.45 -0.15 0.5 -0.15 0.5 -0.1 0.55 -0.1 0.6 -0.1 0.6 -0.25 0.65 -0.3 0.8 -0.4 0.9 -0.45 1.0 -0.3 1.0 -0.15 1.05 -0.15 1.05 -0.1 0.95 0.0 0.9 0.1 0.95 0.1 1.0 0.1 1.0 0.2 1.0 0.35 1.0 0.4 1.05 0.45 1.05 0.55 Q1.05 0.6 1.0 0.55 L0.95 0.45 0.9 0.4 Q0.85 0.5 0.85 0.6 L0.8 0.55 M0.35 -0.15 L0.35 -0.15" fill="#1e1f21" fill-rule="evenodd" stroke="none"/>
    <path d="M0.3 -0.25 L0.35 -0.2 0.35 -0.15 0.3 -0.15 0.25 -0.1 Q0.25 -0.15 0.25 -0.15 L0.3 -0.25 M0.35 -0.15 L0.35 -0.15" fill="#703129" fill-rule="evenodd" stroke="none"/>
    <path d="M0.35 -0.1 Q0.3 -0.1 0.3 -0.15 L0.25 -0.1 0.3 -0.15 0.35 -0.15 0.35 -0.1" fill="#c25438" fill-rule="evenodd" stroke="none"/>
    <path d="M-0.2 0.3 L-0.15 0.3 -0.15 0.3 -0.1 0.35 -0.1 0.3 -0.05 0.25 0.05 0.25 0.15 0.2 0.1 0.2 0.1 0.15 0.25 0.15 0.3 0.1 0.25 0.1 0.25 -0.1 0.3 -0.05 0.3 0.05 0.35 0.05 0.35 0.15 0.4 0.15 0.4 0.25 Q0.4 0.3 0.35 0.3 L0.35 0.35 0.4 0.45 0.35 0.45 0.3 0.4 0.25 0.4 0.2 0.4 0.25 0.35 0.2 0.35 Q0.2 0.3 0.15 0.3 L0.1 0.3 Q0.15 0.25 0.1 0.25 L0.05 0.3 -0.05 0.35 -0.15 0.35 -0.2 0.35 -0.25 0.3 -0.2 0.3 M0.15 0.25 L0.2 0.25 0.2 0.2 0.15 0.2 0.15 0.25" fill="#60312c" fill-rule="evenodd" stroke="none"/>
    <path d="M0.95 -0.55 Q0.95 -0.5 0.9 -0.5 L0.85 -0.5 0.85 -0.55 0.9 -0.6 0.95 -0.55" fill="#fcbc58" fill-rule="evenodd" stroke="none"/>
    <path d="M0.85 -0.55 L0.8 -0.55 0.75 -0.6 0.75 -0.55 0.7 -0.55 0.75 -0.6 0.85 -0.55" fill="#833a2b" fill-rule="evenodd" stroke="none"/>
    <path d="M0.7 -0.4 L0.7 -0.4 0.75 -0.45 0.8 -0.5 0.9 -0.45 0.8 -0.45 Q0.75 -0.4 0.7 -0.4" fill="#763629" fill-rule="evenodd" stroke="none"/>
    <path d="M0.7 -0.4 L0.7 -0.45 0.65 -0.45 Q0.6 -0.45 0.6 -0.45 L0.55 -0.55 0.65 -0.5 0.7 -0.4" fill="#f69741" fill-rule="evenodd" stroke="none"/>
    <path d="M0.55 -0.35 L0.65 -0.4 0.7 -0.4 0.7 -0.4 0.65 -0.4 0.55 -0.35" fill="#a14531" fill-rule="evenodd" stroke="none"/>
    <path d="M1.7 -0.7 L1.75 -0.7 1.75 -0.65 1.8 -0.65 1.85 -0.65 Q1.85 -0.65 1.9 -0.65 L2.0 -0.65 2.05 -0.6 2.1 -0.55 2.1 -0.45 2.05 -0.4 2.0 -0.35 2.0 -0.3 2.0 -0.15 Q1.95 -0.15 1.9 -0.2 L1.8 -0.3 1.85 -0.2 1.85 -0.15 Q1.8 -0.15 1.8 -0.1 L1.75 -0.05 1.75 -0.05 1.7 0.0 1.65 0.05 1.6 -0.05 1.6 -0.15 1.55 -0.2 1.55 -0.25 1.6 -0.3 1.6 -0.35 1.65 -0.4 1.7 -0.45 1.8 -0.45 1.85 -0.4 1.9 -0.4 1.95 -0.45 1.95 -0.55 1.85 -0.5 Q1.8 -0.55 1.8 -0.6 1.7 -0.6 1.7 -0.65 1.65 -0.7 1.7 -0.7 M1.8 -0.4 L1.8 -0.4 1.75 -0.45 1.75 -0.4 1.8 -0.35 1.85 -0.25 1.95 -0.25 1.95 -0.35 1.9 -0.35 1.8 -0.4 M1.75 -0.15 Q1.8 -0.2 1.75 -0.25 L1.75 -0.3 1.7 -0.35 Q1.65 -0.35 1.6 -0.3 L1.65 -0.25 1.7 -0.2 1.65 -0.15 1.65 -0.05 1.6 -0.05 1.65 0.0 1.7 -0.05 1.75 -0.05 Q1.8 -0.1 1.75 -0.15" fill="#4b2622" fill-rule="evenodd" stroke="none"/>
    <path d="M1.7 -0.7 Q1.65 -0.7 1.7 -0.65 1.7 -0.6 1.8 -0.6 1.8 -0.55 1.85 -0.5 L1.95 -0.55 1.95 -0.45 1.9 -0.4 1.85 -0.4 1.8 -0.45 1.7 -0.45 1.65 -0.4 1.6 -0.35 1.6 -0.3 1.55 -0.25 1.55 -0.2 1.6 -0.15 1.6 -0.05 1.65 0.05 1.7 0.0 1.75 -0.05 1.75 -0.05 1.8 -0.1 Q1.8 -0.15 1.85 -0.15 L1.85 -0.2 1.8 -0.3 1.9 -0.2 Q1.95 -0.15 2.0 -0.15 L2.0 -0.3 2.0 -0.35 2.05 -0.4 2.1 -0.45 2.1 -0.55 2.05 -0.6 2.0 -0.65 1.9 -0.65 Q1.85 -0.65 1.85 -0.65 L1.8 -0.65 1.75 -0.65 1.75 -0.7 1.7 -0.7 M1.3 -0.35 L1.45 -0.55 Q1.55 -0.55 1.6 -0.6 L1.65 -0.55 1.65 -0.5 1.7 -0.5 1.75 -0.5 1.7 -0.6 1.65 -0.65 1.65 -0.7 1.7 -0.75 1.8 -0.7 Q1.8 -0.65 1.85 -0.65 L1.9 -0.7 1.95 -0.75 2.0 -0.75 2.05 -0.75 2.1 -0.75 2.2 -0.7 2.2 0.0 2.0 0.05 1.85 0.0 1.7 0.0 1.6 0.1 Q1.6 0.05 1.55 0.1 L1.55 0.15 1.5 0.15 1.45 0.2 1.45 0.25 1.4 0.25 Q1.35 0.3 1.35 0.35 L1.35 0.5 1.3 0.4 1.3 0.3 1.25 0.25 1.25 0.15 1.2 0.15 Q1.2 0.25 1.2 0.35 L1.25 0.5 1.25 0.75 1.3 0.8 1.35 0.85 1.45 0.9 1.5 0.85 1.55 0.8 1.45 0.9 1.35 0.9 Q1.3 0.95 1.25 1.0 L1.2 0.9 1.2 0.85 1.15 0.9 1.15 0.8 1.1 0.7 1.05 0.7 1.0 0.75 1.0 0.7 1.05 0.6 1.0 0.6 1.0 0.55 Q1.05 0.6 1.05 0.55 L1.05 0.45 1.0 0.4 1.0 0.35 1.0 0.2 1.05 0.15 1.1 0.15 1.05 0.1 1.0 0.05 0.95 0.1 1.0 0.0 1.05 -0.05 1.1 -0.1 1.05 -0.15 1.1 -0.2 1.1 -0.1 1.2 -0.1 1.2 -0.25 1.25 -0.3 1.3 -0.35 1.25 -0.25 Q1.2 -0.25 1.25 -0.2 L1.3 -0.2 1.3 -0.25 1.35 -0.25 1.4 -0.35 1.5 -0.45 1.5 -0.5 1.45 -0.5 1.4 -0.4 1.3 -0.35 M1.0 0.0 L1.05 0.05 Q1.1 0.05 1.1 0.0 L1.1 -0.05 1.0 0.0 M1.55 0.0 L1.5 -0.1 Q1.45 -0.05 1.5 0.05 1.55 0.05 1.55 0.0 M1.3 0.05 L1.3 0.1 1.35 0.1 1.35 0.05 1.3 0.05 M1.3 0.2 L1.3 0.3 1.35 0.35 1.35 0.2 1.3 0.15 1.3 0.2 M1.1 0.35 Q1.05 0.4 1.05 0.5 L1.05 0.6 1.1 0.55 1.15 0.5 1.1 0.4 1.1 0.35" fill="#352220" fill-rule="evenodd" stroke="none"/>
    <path d="M1.1 -0.8 L1.1 -0.8 1.15 -0.8 Q1.15 -0.85 1.25 -0.85 L1.3 -0.9 1.35 -0.9 1.35 -0.9 1.3 -0.85 1.3 -0.85 1.3 -0.8 1.2 -0.8 Q1.15 -0.8 1.2 -0.75 L1.05 -0.75 Q1.0 -0.8 1.1 -0.8" fill="#61453f" fill-rule="evenodd" stroke="none"/>
    <path d="M1.0 -0.75 L1.05 -0.8 1.1 -0.8 Q1.0 -0.8 1.05 -0.75 L1.05 -0.75 1.0 -0.75" fill="#b19f99" fill-rule="evenodd" stroke="none"/>
    <path d="M1.15 -0.7 L1.15 -0.7 1.1 -0.7 1.05 -0.7 1.05 -0.75 1.05 -0.75 1.2 -0.75 1.15 -0.7 1.15 -0.7 1.15 -0.7" fill="#ae4c33" fill-rule="evenodd" stroke="none"/>
    <path d="M1.1 -0.6 L1.1 -0.6 1.2 -0.6 1.15 -0.55 1.1 -0.6" fill="#84372a" fill-rule="evenodd" stroke="none"/>
    <path d="M1.1 -0.6 L1.15 -0.7 1.15 -0.6 1.2 -0.65 1.15 -0.7 1.15 -0.7 1.2 -0.75 Q1.15 -0.8 1.2 -0.8 L1.3 -0.8 1.3 -0.85 1.35 -0.85 1.4 -0.85 1.35 -0.8 1.35 -0.75 Q1.25 -0.75 1.25 -0.6 L1.25 -0.6 1.2 -0.55 1.2 -0.6 1.1 -0.6" fill="#e47b3c" fill-rule="evenodd" stroke="none"/>
    <path d="M1.15 -0.7 L1.2 -0.65 1.15 -0.6 1.15 -0.7 1.15 -0.7" fill="#faad4f" fill-rule="evenodd" stroke="none"/>
    <path d="M1.4 -0.65 L1.35 -0.6 1.3 -0.55 1.25 -0.55 1.25 -0.6 1.25 -0.65 1.35 -0.65 1.4 -0.65" fill="#5d2e25" fill-rule="evenodd" stroke="none"/>
    <path d="M1.25 -0.65 L1.25 -0.6 1.25 -0.6 Q1.25 -0.75 1.35 -0.75 L1.35 -0.8 1.4 -0.85 1.4 -0.75 1.35 -0.7 1.3 -0.7 1.25 -0.65" fill="#b95233" fill-rule="evenodd" stroke="none"/>
    <path d="M1.35 -0.9 L1.4 -0.85 1.4 -0.8 1.45 -0.75 1.4 -0.65 1.35 -0.65 1.25 -0.65 1.3 -0.7 1.35 -0.7 1.4 -0.75 1.4 -0.85 1.35 -0.85 1.3 -0.85 1.3 -0.85 1.35 -0.9" fill="#833d2c" fill-rule="evenodd" stroke="none"/>
    <path d="M1.3 -0.35 L1.4 -0.4 1.45 -0.5 1.5 -0.5 1.5 -0.45 1.4 -0.35 1.35 -0.25 1.3 -0.25 1.3 -0.2 1.25 -0.2 Q1.2 -0.25 1.25 -0.25 L1.3 -0.35 1.3 -0.35" fill="#4d2623" fill-rule="evenodd" stroke="none"/>
    <path d="M1.3 -0.55 L1.25 -0.5 1.15 -0.5 1.1 -0.5 1.1 -0.6 1.15 -0.55 1.2 -0.6 1.2 -0.55 1.25 -0.6 1.25 -0.55 1.3 -0.55" fill="#c75435" fill-rule="evenodd" stroke="none"/>
    <path d="M1.25 -0.5 L1.2 -0.45 1.15 -0.4 1.1 -0.35 Q1.1 -0.3 1.05 -0.35 L1.1 -0.4 1.15 -0.45 1.15 -0.45 1.1 -0.5 1.15 -0.5 1.25 -0.5" fill="#96412d" fill-rule="evenodd" stroke="none"/>
    <path d="M1.0 0.0 L1.1 -0.05 1.1 0.0 Q1.1 0.05 1.05 0.05 L1.0 0.0 1.0 0.0" fill="#5f2b25" fill-rule="evenodd" stroke="none"/>
    <path d="M1.8 -0.4 L1.9 -0.35 1.95 -0.35 1.95 -0.25 1.85 -0.25 1.8 -0.35 1.75 -0.4 1.75 -0.45 1.8 -0.4 1.8 -0.4" fill="#632b25" fill-rule="evenodd" stroke="none"/>
    <path d="M1.65 -0.05 L1.65 -0.15 1.7 -0.2 1.65 -0.25 1.6 -0.3 Q1.65 -0.35 1.7 -0.35 L1.75 -0.3 1.75 -0.25 Q1.8 -0.2 1.75 -0.15 L1.75 -0.25 1.7 -0.25 1.7 -0.15 Q1.7 -0.1 1.65 -0.05" fill="#6a2c26" fill-rule="evenodd" stroke="none"/>
    <path d="M1.75 -0.15 Q1.8 -0.1 1.75 -0.05 L1.7 -0.05 1.65 0.0 1.6 -0.05 1.65 -0.05 Q1.7 -0.1 1.7 -0.15 L1.7 -0.25 1.75 -0.25 1.75 -0.15" fill="#88382a" fill-rule="evenodd" stroke="none"/>
    <path d="M1.55 0.0 Q1.55 0.05 1.5 0.05 1.45 -0.05 1.5 -0.1 L1.55 0.0" fill="#632e26" fill-rule="evenodd" stroke="none"/>
    <path d="M2.0 -1.5 L2.05 -1.5 2.05 -1.5 2.1 -1.4 Q2.15 -1.4 2.2 -1.35 L2.15 -1.35 2.1 -1.4 2.05 -1.45 2.0 -1.5 M2.2 -1.35 L2.2 -1.35" fill="#24333b" fill-rule="evenodd" stroke="none"/>
    <path d="M1.95 0.65 L2.0 0.6 2.1 0.5 2.2 0.45 2.2 0.5 1.95 0.65" fill="#484648" fill-rule="evenodd" stroke="none"/>
    <path d="M1.55 0.8 L1.5 0.85 1.45 0.9 1.35 0.85 1.3 0.8 1.25 0.75 1.25 0.5 1.2 0.35 Q1.2 0.25 1.2 0.15 L1.25 0.15 1.25 0.25 1.3 0.3 1.3 0.4 1.35 0.5 1.35 0.35 Q1.35 0.3 1.4 0.25 L1.45 0.25 1.45 0.2 1.5 0.15 1.55 0.15 1.55 0.1 Q1.6 0.05 1.6 0.1 L1.7 0.0 1.85 0.0 2.0 0.05 2.2 0.0 2.2 0.45 2.1 0.5 2.0 0.6 1.95 0.65 1.9 0.7 1.8 0.7 1.7 0.75 1.65 0.75 1.65 0.8 1.55 0.8" fill="#222021" fill-rule="evenodd" stroke="none"/>
    <path d="M2.2 0.55 L2.05 0.6 1.95 0.7 2.05 0.6 2.2 0.5 2.2 0.55" fill="#929093" fill-rule="evenodd" stroke="none"/>
    <path d="M1.95 0.7 L2.05 0.6 2.2 0.55 2.1 0.6 Q2.05 0.65 2.0 0.65 L1.9 0.75 1.75 0.8 Q1.55 0.85 1.5 0.95 L1.45 0.95 1.4 0.95 1.45 0.95 1.45 0.9 1.55 0.85 1.65 0.85 1.8 0.75 1.95 0.7" fill="#b6b4b6" fill-rule="evenodd" stroke="none"/>
    <path d="M1.45 0.9 L1.55 0.8 1.65 0.8 Q1.7 0.75 1.75 0.75 L1.9 0.7 1.95 0.65 2.2 0.5 2.05 0.6 1.95 0.7 1.8 0.75 1.65 0.85 1.55 0.85 1.45 0.9" fill="#747071" fill-rule="evenodd" stroke="none"/>
    <path d="M1.4 0.95 L1.45 0.95 1.5 0.95 Q1.55 0.85 1.75 0.8 L1.9 0.75 2.0 0.65 Q2.05 0.65 2.1 0.6 L2.2 0.55 2.2 0.6 2.05 0.65 1.95 0.75 1.75 0.8 1.65 0.9 1.55 0.95 1.75 0.95 1.85 1.05 1.75 1.2 Q1.65 1.25 1.65 1.35 L1.9 1.4 2.2 1.4 2.2 1.45 2.05 1.45 1.9 1.45 1.8 1.45 1.7 1.5 1.5 1.45 1.4 1.35 1.4 1.15 Q1.3 1.05 1.35 1.0 L1.4 0.95" fill="#e5eaef" fill-rule="evenodd" stroke="none"/>
    <path d="M2.2 1.4 L1.9 1.4 1.65 1.35 Q1.65 1.25 1.75 1.2 L1.85 1.05 1.75 0.95 1.55 0.95 1.65 0.9 1.75 0.8 1.95 0.75 2.05 0.65 2.2 0.6 2.2 1.4" fill="#eef5fa" fill-rule="evenodd" stroke="none"/>
    <path d="M2.2 1.5 L2.2 1.55 1.9 1.55 1.55 1.6 1.45 1.5 1.25 1.45 1.35 1.45 1.45 1.5 1.65 1.55 1.85 1.5 2.0 1.5 2.2 1.5" fill="#c3cfdd" fill-rule="evenodd" stroke="none"/>
    <path d="M2.2 1.45 L2.2 1.5 2.0 1.5 1.85 1.5 1.65 1.55 1.45 1.5 Q1.4 1.4 1.3 1.4 L1.15 1.4 Q1.1 1.35 1.15 1.35 L1.25 1.35 1.35 1.2 Q1.35 1.15 1.3 1.1 L1.3 1.05 1.35 1.0 Q1.3 1.05 1.4 1.15 L1.4 1.35 1.5 1.45 1.7 1.5 1.8 1.45 1.9 1.45 2.05 1.45 2.2 1.45" fill="#dadee5" fill-rule="evenodd" stroke="none"/>
    <path d="M2.2 1.6 L2.1 1.65 2.0 1.65 1.8 1.6 1.6 1.65 1.55 1.65 1.6 1.6 1.75 1.6 1.95 1.6 2.05 1.6 2.2 1.6" fill="#8eacc3" fill-rule="evenodd" stroke="none"/>
    <path d="M2.2 1.6 L2.2 1.65 2.1 1.7 2.05 1.7 1.95 1.65 1.85 1.65 1.75 1.65 1.6 1.7 1.55 1.65 1.6 1.65 1.8 1.6 2.0 1.65 2.1 1.65 2.2 1.6" fill="#7498b0" fill-rule="evenodd" stroke="none"/>
    <path d="M2.2 1.65 L2.2 1.7 2.05 1.7 1.95 1.7 1.8 1.7 1.65 1.75 1.6 1.75 1.6 1.7 1.75 1.65 1.85 1.65 1.95 1.65 2.05 1.7 2.1 1.7 2.2 1.65" fill="#5e859e" fill-rule="evenodd" stroke="none"/>
    <path d="M2.2 1.55 L2.2 1.6 2.05 1.6 1.95 1.6 1.75 1.6 1.6 1.6 1.5 1.6 1.55 1.6 1.9 1.55 2.2 1.55" fill="#a8bed1" fill-rule="evenodd" stroke="none"/>
    <path d="M2.2 1.7 L2.2 1.75 2.05 1.8 1.95 1.8 1.9 1.75 1.8 1.75 1.75 1.75 1.65 1.75 1.8 1.7 1.95 1.7 2.05 1.7 2.2 1.7" fill="#48768f" fill-rule="evenodd" stroke="none"/>
    <path d="M2.2 1.75 L2.2 1.85 2.05 1.9 1.85 1.8 Q1.8 1.8 1.75 1.85 L1.75 1.75 1.8 1.75 1.9 1.75 1.95 1.8 2.05 1.8 2.2 1.75" fill="#356681" fill-rule="evenodd" stroke="none"/>
    <path d="M2.2 2.0 L2.2 2.2 1.85 2.2 1.9 2.1 1.9 2.0 1.85 2.0 1.85 1.95 1.8 1.9 1.9 1.9 2.2 2.0" fill="#234d65" fill-rule="evenodd" stroke="none"/>
    <path d="M2.2 1.85 L2.2 2.0 1.9 1.9 1.8 1.9 1.85 1.95 1.85 2.0 1.9 2.0 1.9 2.1 1.85 2.2 1.8 2.2 1.8 2.0 1.75 1.85 Q1.8 1.8 1.85 1.8 L2.05 1.9 2.2 1.85" fill="#2e576f" fill-rule="evenodd" stroke="none"/>
    <path d="M1.3 0.05 L1.35 0.05 1.35 0.1 1.3 0.1 1.3 0.05" fill="#9e4430" fill-rule="evenodd" stroke="none"/>
    <path d="M1.3 0.2 L1.3 0.15 1.35 0.2 1.35 0.35 1.3 0.3 1.3 0.2" fill="#90392c" fill-rule="evenodd" stroke="none"/>
    <path d="M1.1 0.35 L1.1 0.4 1.15 0.5 1.1 0.55 1.05 0.6 1.05 0.5 Q1.05 0.4 1.1 0.35" fill="#703027" fill-rule="evenodd" stroke="none"/>
    <path d="M1.45 0.9 L1.45 0.95 1.4 0.95 1.1 1.1 1.0 1.15 0.9 1.2 0.85 1.15 1.05 1.1 1.2 1.05 1.3 1.0 1.4 0.9 1.45 0.9 M0.8 1.1 L0.85 1.1 0.85 1.15 0.8 1.1" fill="#9e6d66" fill-rule="evenodd" stroke="none"/>
    <path d="M0.4 0.45 L0.45 0.5 0.5 0.55 0.55 0.6 0.6 0.65 0.75 0.65 0.75 0.8 0.8 0.7 0.8 0.6 0.85 0.65 Q0.8 0.7 0.85 0.75 L0.95 0.85 1.0 0.85 1.05 0.85 1.05 0.8 1.0 0.8 0.95 0.75 0.95 0.7 1.0 0.75 1.0 0.7 1.0 0.75 1.05 0.7 1.1 0.7 1.15 0.8 1.15 0.9 1.2 0.85 1.2 0.9 1.25 1.0 Q1.3 0.95 1.35 0.9 L1.45 0.9 1.4 0.9 1.3 1.0 1.2 1.05 1.05 1.1 0.85 1.15 0.85 1.1 0.8 1.1 0.8 1.05 Q0.8 1.0 0.75 0.9 L0.7 0.85 0.6 0.8 Q0.6 0.8 0.6 0.75 L0.6 0.7 0.55 0.7 0.55 0.65 0.5 0.6 0.45 0.6 0.4 0.6 0.35 0.55 0.4 0.5 0.4 0.45" fill="#522523" fill-rule="evenodd" stroke="none"/>
    <path d="M0.95 0.7 L0.95 0.75 1.0 0.8 1.05 0.8 1.05 0.85 1.0 0.85 0.95 0.85 0.85 0.75 Q0.8 0.7 0.85 0.65 L0.8 0.6 0.8 0.55 0.85 0.6 Q0.85 0.5 0.9 0.4 L0.95 0.45 1.0 0.55 0.95 0.7" fill="#36221f" fill-rule="evenodd" stroke="none"/>
    <path d="M0.85 1.15 L0.9 1.2 1.0 1.15 1.1 1.1 1.2 1.05 1.35 1.0 1.3 1.05 1.3 1.1 Q1.35 1.15 1.35 1.2 L1.25 1.35 1.15 1.35 Q1.1 1.35 1.15 1.4 L1.3 1.4 Q1.4 1.4 1.45 1.5 L1.35 1.45 1.25 1.45 1.15 1.45 1.0 1.4 1.0 1.35 0.95 1.3 0.9 1.25 0.85 1.25 0.85 1.15" fill="#d8d3d5" fill-rule="evenodd" stroke="none"/>
    <path d="M1.1 1.1 L1.4 0.95 1.35 1.0 1.2 1.05 1.1 1.1" fill="#c9a7a0" fill-rule="evenodd" stroke="none"/>
    <path d="M1.9 0.7 L1.75 0.75 Q1.7 0.75 1.65 0.8 L1.65 0.75 1.7 0.75 1.8 0.7 1.9 0.7" fill="#49484a" fill-rule="evenodd" stroke="none"/>
    <path d="M1.0 0.55 L1.0 0.6 1.05 0.6 1.0 0.7 1.0 0.75 0.95 0.7 1.0 0.55" fill="#a13e2f" fill-rule="evenodd" stroke="none"/>
    <path d="M0.55 0.2 L0.5 0.2 0.5 0.15 0.55 0.15 0.55 0.2" fill="#d05f38" fill-rule="evenodd" stroke="none"/>
    <path d="M0.6 0.35 L0.6 0.35 0.55 0.3 0.55 0.2 0.6 0.2 0.6 0.35" fill="#75362b" fill-rule="evenodd" stroke="none"/>
    <path d="M0.75 0.65 L0.75 0.6 0.8 0.55 0.8 0.6 0.8 0.7 0.75 0.8 0.75 0.65" fill="#a53930" fill-rule="evenodd" stroke="none"/>
    <path d="M0.25 0.15 L0.25 0.1 0.3 0.1 0.25 0.15" fill="#be4d39" fill-rule="evenodd" stroke="none"/>
    <path d="M0.0 0.0 L0.0 0.05 0.0 0.05 0.0 0.0 0.0 0.0" fill="#af4e39" fill-rule="evenodd" stroke="none"/>
    <path d="M0.0 0.05 L-0.05 0.05 -0.1 0.05 -0.15 0.05 Q-0.15 0.0 -0.15 0.05 L-0.2 0.05 -0.2 0.05 -0.25 0.0 -0.25 0.0 Q-0.35 -0.2 -0.4 -0.1 L-0.45 -0.05 -0.45 0.0 -0.5 0.0 -0.5 -0.05 -0.5 -0.25 -0.45 -0.3 -0.45 -0.3 -0.45 -0.4 -0.4 -0.4 -0.35 -0.3 -0.25 -0.35 Q-0.25 -0.35 -0.25 -0.3 L-0.3 -0.25 -0.25 -0.25 -0.25 -0.2 -0.3 -0.2 -0.3 -0.15 -0.15 -0.05 -0.25 -0.05 -0.2 0.0 Q-0.15 0.0 -0.15 -0.05 -0.15 0.0 -0.15 0.0 L-0.1 0.0 -0.05 0.05 -0.05 0.0 0.0 0.0 0.0 0.0 0.0 0.0 0.0 0.05 0.0 0.05 M-0.25 0.0 L-0.25 0.0 M-0.5 0.0 L-0.5 0.0 M-0.1 0.05 L-0.1 0.05" fill="#ffe972" fill-rule="evenodd" stroke="none"/>
    <path d="M-0.15 0.35 L-0.05 0.35 0.05 0.3 0.1 0.25 Q0.15 0.25 0.1 0.3 L0.15 0.3 Q0.2 0.3 0.2 0.35 L0.15 0.35 Q0.1 0.35 0.15 0.4 L0.2 0.4 0.15 0.45 0.1 0.4 Q0.05 0.5 0.15 0.45 L0.15 0.5 0.1 0.5 0.05 0.5 0.05 0.45 -0.05 0.45 -0.05 0.5 0.0 0.55 0.1 0.6 0.15 0.65 0.15 0.7 0.2 0.7 Q0.25 0.65 0.25 0.7 L0.2 0.75 0.15 0.85 0.1 0.9 0.1 0.85 0.1 0.8 Q0.05 0.75 0.1 0.7 L0.1 0.65 0.05 0.65 0.05 0.7 0.0 0.7 -0.05 0.7 -0.05 0.75 0.0 0.85 -0.05 0.9 -0.05 0.95 -0.1 1.05 -0.15 1.2 Q-0.1 1.25 -0.05 1.25 L-0.1 1.25 -0.15 1.25 -0.15 1.1 -0.1 0.9 -0.15 0.85 -0.05 0.85 -0.05 0.75 -0.1 0.7 -0.1 0.7 -0.15 0.75 -0.15 0.8 -0.15 0.55 -0.2 0.5 -0.25 0.45 -0.05 0.45 Q-0.05 0.4 -0.05 0.4 L-0.15 0.35 M-0.25 0.45 L-0.25 0.45 M-0.05 1.25 L-0.05 1.25" fill="#b84f40" fill-rule="evenodd" stroke="none"/>
    <path d="M0.15 0.25 L0.15 0.2 0.2 0.2 0.2 0.25 0.15 0.25" fill="#ac493a" fill-rule="evenodd" stroke="none"/>
    <path d="M0.1 0.9 L0.15 0.85 0.2 0.75 0.25 0.7 Q0.25 0.65 0.2 0.7 L0.15 0.7 0.15 0.65 0.1 0.6 0.0 0.55 -0.05 0.5 -0.05 0.45 0.05 0.45 0.05 0.5 0.1 0.5 0.15 0.5 0.15 0.45 Q0.05 0.5 0.1 0.4 L0.15 0.45 0.2 0.4 0.15 0.4 Q0.1 0.35 0.15 0.35 L0.2 0.35 0.25 0.35 0.2 0.4 0.25 0.4 0.3 0.4 0.35 0.45 Q0.25 0.45 0.25 0.5 L0.2 0.5 0.15 0.5 0.2 0.55 0.25 0.55 0.3 0.6 0.35 0.55 Q0.35 0.5 0.35 0.55 L0.35 0.6 0.35 0.65 0.3 0.7 0.25 0.7 0.25 0.75 Q0.25 0.9 0.15 1.0 L0.1 0.9" fill="#b0423a" fill-rule="evenodd" stroke="none"/>
    <path d="M0.35 0.45 L0.4 0.45 0.4 0.5 0.35 0.55 Q0.35 0.5 0.35 0.55 L0.3 0.6 0.25 0.55 0.2 0.55 0.15 0.5 0.2 0.5 0.25 0.5 Q0.25 0.45 0.35 0.45" fill="#823631" fill-rule="evenodd" stroke="none"/>
    <path d="M0.35 0.6 L0.35 0.55 0.4 0.6 0.45 0.6 0.4 0.65 0.35 0.6" fill="#7d2f2c" fill-rule="evenodd" stroke="none"/>
    <path d="M0.45 0.6 L0.5 0.6 0.55 0.65 0.55 0.7 0.6 0.7 0.6 0.75 Q0.6 0.8 0.6 0.8 L0.7 0.85 0.75 0.9 Q0.8 1.0 0.8 1.05 L0.75 1.05 0.75 1.0 0.65 1.0 0.55 1.0 0.55 0.95 0.5 0.95 0.5 0.9 0.6 0.9 0.65 0.9 0.65 0.85 0.6 0.85 0.5 0.75 0.45 0.7 0.45 0.6" fill="#752d2a" fill-rule="evenodd" stroke="none"/>
    <path d="M0.15 1.0 Q0.25 0.9 0.25 0.75 L0.25 0.7 0.3 0.7 0.35 0.65 0.35 0.6 0.4 0.65 0.45 0.6 0.45 0.7 0.5 0.75 0.6 0.85 0.65 0.85 0.65 0.9 0.6 0.9 0.5 0.9 0.5 0.95 0.55 1.05 Q0.55 1.15 0.45 1.15 L0.4 1.1 Q0.35 1.05 0.3 1.1 L0.2 1.05 0.15 1.0" fill="#a53634" fill-rule="evenodd" stroke="none"/>
    <path d="M-0.05 1.25 Q-0.1 1.25 -0.15 1.2 L-0.1 1.05 -0.05 0.95 -0.05 0.9 0.0 0.85 -0.05 0.75 -0.05 0.7 0.0 0.7 0.05 0.7 0.05 0.65 0.1 0.65 0.1 0.7 Q0.05 0.75 0.1 0.8 L0.1 0.85 0.1 0.8 Q0.05 0.8 0.05 0.8 L0.0 0.95 -0.1 1.1 -0.05 1.25" fill="#c85e3f" fill-rule="evenodd" stroke="none"/>
    <path d="M0.1 0.85 L0.1 0.9 0.1 0.95 0.05 0.95 0.05 1.05 0.1 1.05 0.1 1.15 0.15 1.2 0.1 1.2 0.05 1.2 0.0 1.1 0.0 1.2 -0.05 1.25 -0.1 1.1 0.0 0.95 0.05 0.8 Q0.05 0.8 0.1 0.8 L0.1 0.85" fill="#de6f40" fill-rule="evenodd" stroke="none"/>
    <path d="M0.8 1.1 L0.85 1.15 0.85 1.25 0.65 1.2 0.5 1.2 0.45 1.2 Q0.4 1.25 0.35 1.25 L0.2 1.3 0.15 1.2 0.1 1.15 0.1 1.05 0.1 0.95 0.1 0.9 0.15 1.0 0.2 1.05 0.3 1.1 Q0.35 1.05 0.4 1.1 L0.45 1.15 Q0.55 1.15 0.55 1.05 L0.5 0.95 0.55 0.95 0.55 1.0 0.65 1.0 0.75 1.0 0.75 1.05 0.8 1.05 0.8 1.1" fill="#f9f2ef" fill-rule="evenodd" stroke="none"/>
    <path d="M0.1 1.05 L0.05 1.05 0.05 0.95 0.1 0.95 0.1 1.05" fill="#fca964" fill-rule="evenodd" stroke="none"/>
    <path d="M0.05 1.2 L0.1 1.2 0.1 1.25 0.25 1.45 0.25 1.5 0.2 1.55 0.1 1.55 0.0 1.45 -0.05 1.35 0.05 1.45 0.15 1.5 0.1 1.35 0.0 1.2 0.0 1.2 0.05 1.25 0.05 1.2" fill="#fff193" fill-rule="evenodd" stroke="none"/>
    <path d="M0.0 1.2 L0.0 1.1 0.05 1.2 0.05 1.25 0.0 1.2 0.0 1.2" fill="#ffd672" fill-rule="evenodd" stroke="none"/>
    <path d="M0.1 1.2 L0.15 1.2 0.2 1.3 0.35 1.25 0.3 1.3 0.25 1.35 0.25 1.45 0.1 1.25 0.1 1.2" fill="#ece5db" fill-rule="evenodd" stroke="none"/>
    <path d="M0.45 1.2 L0.5 1.2 0.45 1.25 0.4 1.3 0.35 1.35 Q0.3 1.35 0.35 1.3 L0.35 1.25 Q0.4 1.25 0.45 1.2" fill="#e48450" fill-rule="evenodd" stroke="none"/>
    <path d="M0.45 1.2 L0.5 1.2 0.45 1.2 M0.45 1.25 L0.5 1.2 0.55 1.2 Q0.5 1.25 0.55 1.3 L0.6 1.35 Q0.65 1.4 0.6 1.45 L0.55 1.5 0.5 1.6 0.55 1.65 0.6 1.65 0.6 1.6 0.65 1.6 0.7 1.6 0.75 1.55 0.8 1.5 0.85 1.5 0.9 1.55 0.9 1.45 0.85 1.35 0.85 1.3 Q0.8 1.25 0.85 1.25 L0.9 1.25 Q0.9 1.4 1.0 1.5 L0.95 1.55 0.9 1.6 0.75 1.6 0.7 1.65 0.7 1.75 0.7 1.8 Q0.75 1.9 0.65 1.85 L0.55 1.8 0.5 1.75 0.5 1.65 0.4 1.6 0.35 1.6 0.3 1.6 0.3 1.55 0.35 1.5 0.45 1.5 0.45 1.45 0.4 1.4 0.45 1.35 0.5 1.35 0.5 1.3 0.45 1.25" fill="#f9a95e" fill-rule="evenodd" stroke="none"/>
    <path d="M0.5 1.2 L0.65 1.2 0.85 1.25 Q0.8 1.25 0.85 1.3 L0.85 1.35 0.9 1.45 0.9 1.55 0.85 1.5 0.8 1.5 0.75 1.45 0.75 1.4 0.7 1.35 0.6 1.35 0.55 1.3 Q0.5 1.25 0.55 1.2 L0.5 1.2" fill="#ffde70" fill-rule="evenodd" stroke="none"/>
    <path d="M0.5 0.95 L0.5 0.9 0.5 0.95" fill="#cfb1a2" fill-rule="evenodd" stroke="none"/>
    <path d="M0.75 1.0 L0.75 1.05 0.75 1.0" fill="#ca9a93" fill-rule="evenodd" stroke="none"/>
    <path d="M1.0 1.5 Q0.9 1.4 0.9 1.25 L0.95 1.3 1.0 1.5 1.05 1.55 1.1 1.6 1.05 1.55 1.0 1.5 M1.1 1.6 L1.15 1.6 1.1 1.6" fill="#dca98d" fill-rule="evenodd" stroke="none"/>
    <path d="M0.95 1.3 L1.0 1.35 1.0 1.4 1.15 1.45 1.25 1.45 1.45 1.5 1.55 1.6 1.5 1.6 1.4 1.5 1.2 1.5 1.1 1.5 1.0 1.5 0.95 1.3" fill="#c5bdc3" fill-rule="evenodd" stroke="none"/>
    <path d="M0.8 1.5 L0.75 1.55 0.7 1.6 0.65 1.6 0.6 1.6 0.6 1.65 0.55 1.65 0.5 1.6 0.55 1.5 0.6 1.45 Q0.65 1.4 0.6 1.35 L0.7 1.35 0.75 1.4 0.75 1.45 0.8 1.5" fill="#feba65" fill-rule="evenodd" stroke="none"/>
    <path d="M0.75 1.6 L0.9 1.6 0.95 1.55 1.0 1.5 1.05 1.55 1.1 1.6 1.05 1.65 1.0 1.65 0.9 1.6 0.75 1.6" fill="#ef874c" fill-rule="evenodd" stroke="none"/>
    <path d="M0.7 1.65 L0.75 1.6 0.7 1.65 M1.2 1.7 L1.1 1.7 1.0 1.7 0.9 1.65 0.8 1.65 0.75 1.6 0.9 1.6 1.0 1.65 1.05 1.65 1.1 1.6 1.2 1.7" fill="#d86b41" fill-rule="evenodd" stroke="none"/>
    <path d="M0.75 1.75 L0.75 1.65 0.85 1.65 0.9 1.75 1.05 1.75 1.15 1.75 1.25 1.75 1.2 1.75 1.2 1.8 Q1.1 1.8 1.1 1.85 L1.2 1.9 1.15 1.9 1.05 1.9 1.0 1.9 0.95 1.95 0.85 1.95 0.8 1.85 0.75 1.75 M0.9 1.8 L0.85 1.8 0.8 1.8 0.85 1.9 0.95 1.9 Q1.0 1.85 0.95 1.8 0.95 1.75 0.9 1.8" fill="#a24234" fill-rule="evenodd" stroke="none"/>
    <path d="M0.7 1.75 L0.7 1.65 0.75 1.6 0.8 1.65 0.9 1.65 1.0 1.7 1.1 1.7 1.2 1.7 1.25 1.75 1.15 1.75 1.05 1.75 0.9 1.75 0.85 1.65 0.75 1.65 0.75 1.75 0.7 1.75" fill="#be533a" fill-rule="evenodd" stroke="none"/>
    <path d="M0.45 1.25 L0.5 1.3 0.5 1.35 0.45 1.35 0.4 1.4 0.45 1.45 0.45 1.5 0.35 1.5 0.3 1.55 0.3 1.6 0.35 1.6 0.4 1.6 0.5 1.65 0.5 1.75 0.55 1.8 0.65 1.85 Q0.75 1.9 0.7 1.8 L0.75 1.85 0.75 1.9 0.5 1.8 Q0.45 1.8 0.45 1.75 L0.5 1.65 0.45 1.65 Q0.4 1.65 0.45 1.7 0.45 1.8 0.4 1.85 L0.35 1.9 0.3 1.85 0.2 1.8 0.15 1.8 0.25 1.8 0.35 1.85 0.4 1.85 0.4 1.8 0.3 1.75 0.25 1.7 0.2 1.7 0.15 1.65 0.05 1.65 Q0.05 1.65 0.0 1.6 -0.05 1.6 -0.1 1.65 L-0.1 1.75 -0.2 1.75 -0.25 1.75 -0.15 1.75 -0.1 1.7 -0.1 1.4 -0.05 1.35 Q-0.05 1.45 0.0 1.5 L0.05 1.55 0.1 1.6 0.15 1.6 0.2 1.6 Q0.3 1.55 0.25 1.5 0.25 1.55 0.3 1.5 L0.4 1.5 0.4 1.4 0.45 1.25 M0.25 1.7 L0.35 1.7 Q0.35 1.65 0.25 1.6 L0.15 1.65 0.2 1.65 0.25 1.7" fill="#e18b52" fill-rule="evenodd" stroke="none"/>
    <path d="M0.95 2.2 L0.9 2.2 Q0.95 2.1 0.85 2.0 L0.6 1.9 0.5 1.85 Q0.45 1.8 0.4 1.85 L0.35 1.9 Q0.25 1.85 0.15 1.8 0.0 1.8 -0.1 1.85 L-0.05 1.95 0.05 2.0 0.05 2.05 0.05 2.2 0.0 2.2 -0.05 2.1 0.0 2.05 0.0 2.0 -0.05 1.95 -0.1 1.9 -0.1 1.85 0.0 1.8 0.15 1.8 0.2 1.8 0.3 1.85 0.35 1.9 0.4 1.85 Q0.45 1.8 0.45 1.7 0.4 1.65 0.45 1.65 L0.5 1.65 0.45 1.75 Q0.45 1.8 0.5 1.8 L0.75 1.9 0.75 1.85 0.7 1.8 0.7 1.75 0.75 1.75 0.8 1.85 0.85 1.95 0.95 1.95 1.0 1.9 1.05 1.9 1.15 1.9 1.35 2.0 1.25 2.0 1.15 1.95 1.0 2.0 Q0.95 2.0 0.95 2.05 L0.95 2.2" fill="#ca6e43" fill-rule="evenodd" stroke="none"/>
    <path d="M0.9 1.8 Q0.95 1.75 0.95 1.8 1.0 1.85 0.95 1.9 L0.85 1.9 0.8 1.8 0.85 1.8 0.9 1.8" fill="#81342d" fill-rule="evenodd" stroke="none"/>
    <path d="M0.35 1.25 L0.35 1.3 Q0.3 1.35 0.35 1.35 L0.4 1.3 0.45 1.25 0.4 1.4 0.4 1.5 0.3 1.5 Q0.25 1.55 0.25 1.5 L0.25 1.35 0.3 1.3 0.35 1.25" fill="#bc5a43" fill-rule="evenodd" stroke="none"/>
    <path d="M0.25 1.5 L0.25 1.45 0.25 1.35 0.25 1.5" fill="#cba997" fill-rule="evenodd" stroke="none"/>
    <path d="M-0.05 1.35 L0.0 1.45 0.1 1.55 0.2 1.55 0.25 1.5 Q0.3 1.55 0.2 1.6 L0.15 1.6 0.1 1.6 0.05 1.55 0.0 1.5 Q-0.05 1.45 -0.05 1.35 L-0.05 1.35 -0.05 1.35" fill="#f8bf6f" fill-rule="evenodd" stroke="none"/>
    <path d="M-0.05 1.25 L-0.05 1.25 0.0 1.2 0.1 1.35 0.15 1.5 0.05 1.45 -0.05 1.35 -0.05 1.35 -0.05 1.25" fill="#fffdbe" fill-rule="evenodd" stroke="none"/>
    <path d="M0.15 1.8 L0.0 1.8 -0.1 1.85 Q-0.15 1.85 -0.15 1.9 L-0.1 1.95 -0.1 2.0 -0.15 1.95 -0.2 1.9 -0.25 1.9 -0.25 1.9 -0.35 1.9 -0.4 1.85 -0.3 1.8 -0.25 1.75 -0.2 1.75 -0.1 1.75 -0.1 1.65 Q-0.05 1.6 0.0 1.6 0.05 1.65 0.05 1.65 L0.15 1.65 0.2 1.7 0.25 1.7 0.3 1.75 0.4 1.8 0.4 1.85 0.35 1.85 0.25 1.8 0.15 1.8 M-0.2 1.75 L-0.25 1.8 -0.3 1.85 -0.3 1.85 -0.2 1.85 -0.2 1.85 Q-0.1 1.8 0.05 1.8 L0.3 1.8 0.3 1.75 0.25 1.7 0.1 1.7 Q0.0 1.7 -0.05 1.75 L-0.2 1.75" fill="#ebaa66" fill-rule="evenodd" stroke="none"/>
    <path d="M0.25 1.7 L0.2 1.65 0.15 1.65 0.25 1.6 Q0.35 1.65 0.35 1.7 L0.25 1.7" fill="#c96e46" fill-rule="evenodd" stroke="none"/>
    <path d="M-0.2 1.75 L-0.05 1.75 Q0.0 1.7 0.1 1.7 L0.25 1.7 0.3 1.75 0.3 1.8 0.05 1.8 Q-0.1 1.8 -0.2 1.85 L-0.2 1.85 -0.3 1.85 -0.3 1.85 -0.25 1.8 -0.2 1.75" fill="#fbd380" fill-rule="evenodd" stroke="none"/>
    <path d="M0.7 2.2 L0.1 2.2 Q0.05 2.05 0.1 2.05 0.2 2.0 0.25 2.05 L0.35 2.15 0.5 2.15 0.65 2.05 Q0.65 2.05 0.65 2.1 L0.7 2.2" fill="#512d28" fill-rule="evenodd" stroke="none"/>
    <path d="M0.9 2.2 L0.7 2.2 0.65 2.1 Q0.65 2.05 0.65 2.05 L0.5 2.15 0.35 2.15 0.25 2.05 Q0.2 2.0 0.1 2.05 0.05 2.05 0.1 2.2 L0.05 2.2 0.05 2.05 0.1 2.0 0.1 1.95 0.25 1.95 0.35 2.1 0.45 2.1 0.55 2.05 Q0.65 2.0 0.75 2.0 L0.9 2.15 0.9 2.2" fill="#75382e" fill-rule="evenodd" stroke="none"/>
    <path d="M0.05 2.0 L0.0 1.9 -0.05 1.9 0.2 1.85 Q0.3 1.9 0.35 1.95 L0.35 2.05 0.4 2.1 0.5 2.1 0.55 2.0 Q0.55 1.95 0.65 1.95 L0.7 1.95 0.85 2.05 Q0.9 2.1 0.9 2.15 L0.75 2.0 Q0.65 2.0 0.55 2.05 L0.45 2.1 0.35 2.1 0.25 1.95 0.1 1.95 0.1 2.0 0.05 2.05 0.05 2.0" fill="#974338" fill-rule="evenodd" stroke="none"/>
    <path d="M0.9 2.15 Q0.9 2.1 0.85 2.05 L0.7 1.95 0.65 1.95 Q0.55 1.95 0.55 2.0 L0.5 2.1 0.4 2.1 0.35 2.05 0.35 1.95 Q0.3 1.9 0.2 1.85 L-0.05 1.9 0.0 1.9 0.05 2.0 -0.05 1.95 -0.1 1.85 Q0.0 1.8 0.15 1.8 0.25 1.85 0.35 1.9 L0.4 1.85 Q0.45 1.8 0.5 1.85 L0.6 1.9 0.85 2.0 Q0.95 2.1 0.9 2.2 L0.9 2.15" fill="#b2533e" fill-rule="evenodd" stroke="none"/>
    <path d="M1.0 2.2 L0.95 2.2 0.95 2.05 Q0.95 2.0 1.0 2.0 L1.15 1.95 1.25 2.0 1.35 2.0 1.4 2.05 1.25 2.05 1.1 2.05 1.0 2.1 1.0 2.2" fill="#e48445" fill-rule="evenodd" stroke="none"/>
    <path d="M1.6 1.65 L1.55 1.65 1.6 1.65 M1.1 1.6 L1.2 1.55 1.25 1.55 1.4 1.6 1.5 1.6 1.55 1.65 1.45 1.65 1.4 1.6 1.2 1.65 1.15 1.6 1.1 1.6" fill="#a3919e" fill-rule="evenodd" stroke="none"/>
    <path d="M1.6 1.7 L1.6 1.75 1.5 1.7 1.4 1.7 1.25 1.65 1.2 1.65 1.4 1.6 1.45 1.65 1.55 1.65 1.6 1.7" fill="#857f8e" fill-rule="evenodd" stroke="none"/>
    <path d="M1.0 1.5 L1.1 1.5 1.2 1.5 1.4 1.5 1.5 1.6 1.6 1.6 1.55 1.65 1.5 1.6 1.4 1.6 1.25 1.55 1.2 1.55 1.1 1.6 1.05 1.55 1.0 1.5" fill="#b6a7b2" fill-rule="evenodd" stroke="none"/>
    <path d="M1.8 2.2 L1.75 2.2 1.75 2.0 1.65 1.9 1.65 1.85 1.45 1.75 1.35 1.75 1.25 1.7 1.25 1.65 1.4 1.7 1.5 1.7 1.6 1.75 1.65 1.75 1.7 1.9 1.75 1.95 Q1.8 2.1 1.8 2.2" fill="#747075" fill-rule="evenodd" stroke="none"/>
    <path d="M1.75 1.75 L1.75 1.85 1.8 2.0 1.8 2.2 Q1.8 2.1 1.75 1.95 L1.7 1.9 1.65 1.75 1.75 1.75" fill="#4f6470" fill-rule="evenodd" stroke="none"/>
    <path d="M1.25 1.75 L1.2 1.7 1.1 1.6 1.15 1.6 1.2 1.65 1.25 1.65 1.25 1.7 1.25 1.75" fill="#b5756d" fill-rule="evenodd" stroke="none"/>
    <path d="M1.25 1.75 L1.25 1.7 1.35 1.75 1.45 1.75 1.65 1.85 1.65 1.9 1.6 1.85 1.5 1.8 1.4 1.8 1.3 1.8 1.25 1.75" fill="#7c5d5c" fill-rule="evenodd" stroke="none"/>
    <path d="M1.2 1.8 L1.2 1.75 1.25 1.75 1.3 1.8 1.4 1.8 1.5 1.8 1.6 1.85 1.55 1.9 1.5 1.95 Q1.45 2.0 1.4 2.0 L1.2 1.9 1.45 2.0 1.45 1.9 1.4 1.85 1.3 1.85 1.2 1.8" fill="#824e3d" fill-rule="evenodd" stroke="none"/>
    <path d="M1.2 1.9 L1.1 1.85 Q1.1 1.8 1.2 1.8 L1.3 1.85 1.4 1.85 1.45 1.9 1.45 2.0 1.2 1.9" fill="#70392e" fill-rule="evenodd" stroke="none"/>
    <path d="M1.5 2.2 L1.1 2.2 Q1.05 2.1 1.1 2.1 L1.2 2.1 1.25 2.1 1.3 2.1 1.3 2.05 1.35 2.05 1.5 2.05 1.55 2.0 1.55 2.05 1.5 2.1 Q1.45 2.15 1.5 2.2" fill="#fcbd59" fill-rule="evenodd" stroke="none"/>
    <path d="M1.1 2.2 L1.0 2.2 1.0 2.1 1.1 2.05 1.25 2.05 1.4 2.05 1.45 2.05 1.5 2.05 1.35 2.05 1.3 2.05 1.3 2.1 1.25 2.1 1.2 2.1 1.1 2.1 Q1.05 2.1 1.1 2.2" fill="#f39f4e" fill-rule="evenodd" stroke="none"/>
    <path d="M1.75 2.2 L1.7 2.2 1.7 2.05 1.65 2.0 1.6 1.95 1.55 2.0 1.5 2.05 1.45 2.05 1.55 2.0 1.6 1.95 Q1.65 1.9 1.7 2.0 L1.75 2.2" fill="#d2b169" fill-rule="evenodd" stroke="none"/>
    <path d="M1.15 1.9 L1.2 1.9 1.4 2.0 Q1.45 2.0 1.5 1.95 L1.55 1.9 1.6 1.85 1.65 1.9 1.6 1.9 1.6 1.95 1.55 2.0 1.45 2.05 1.4 2.05 1.35 2.0 1.15 1.9" fill="#ab7345" fill-rule="evenodd" stroke="none"/>
    <path d="M1.7 2.2 L1.5 2.2 Q1.45 2.15 1.5 2.1 L1.55 2.05 1.55 2.0 1.6 1.95 1.65 2.0 1.7 2.05 1.7 2.2" fill="#fad268" fill-rule="evenodd" stroke="none"/>
    <path d="M1.65 1.9 L1.75 2.0 1.75 2.2 1.7 2.0 Q1.65 1.9 1.6 1.95 L1.6 1.9 1.65 1.9" fill="#aa9a6f" fill-rule="evenodd" stroke="none"/>
    <path d="M-2.2 -1.8 L-2.2 -1.95 -2.05 -2.0 -1.95 -2.1 -1.8 -2.2 -1.6 -2.2 -1.8 -2.0 -2.05 -1.9 -2.1 -1.85 -2.1 -1.8 -2.1 -1.75 -2.1 -1.75 -2.2 -1.8" fill="#b4d4e2" fill-rule="evenodd" stroke="none"/>
    <path d="M-2.2 -1.95 L-2.2 -2.2 -1.8 -2.2 -1.95 -2.1 -2.05 -2.0 -2.2 -1.95" fill="#a3cee0" fill-rule="evenodd" stroke="none"/>
    <path d="M-1.6 -2.2 L-1.35 -2.2 Q-1.4 -2.1 -1.55 -2.1 L-1.65 -2.0 -1.8 -1.9 -1.9 -1.85 -2.05 -1.8 -2.05 -1.7 -2.1 -1.75 -2.1 -1.8 -2.1 -1.85 -2.05 -1.9 -1.8 -2.0 -1.6 -2.2" fill="#c4dce7" fill-rule="evenodd" stroke="none"/>
    <path d="M-1.35 -2.2 L-1.0 -2.2 -0.9 -2.1 Q-0.85 -2.05 -0.8 -2.05 L-0.65 -2.1 -0.55 -2.1 -0.4 -2.05 -0.25 -2.05 Q-0.2 -2.05 -0.2 -2.1 L-0.2 -2.2 -0.05 -2.2 -0.15 -2.05 -0.25 -2.0 -0.45 -2.0 Q-0.5 -2.0 -0.6 -2.05 L-0.7 -2.05 -0.85 -2.0 -0.95 -2.0 -1.0 -2.0 -1.1 -2.05 -1.25 -2.05 -1.4 -2.05 -1.55 -2.0 Q-1.6 -1.9 -1.7 -1.85 L-1.9 -1.75 -1.95 -1.7 -2.0 -1.65 -2.05 -1.7 -2.05 -1.8 -1.9 -1.85 -1.8 -1.9 -1.65 -2.0 -1.55 -2.1 Q-1.4 -2.1 -1.35 -2.2" fill="#d0e3eb" fill-rule="evenodd" stroke="none"/>
    <path d="M-2.1 -1.75 L-2.05 -1.7 -2.0 -1.65 -1.8 -1.3 -1.5 -1.05 -1.4 -0.95 -1.3 -0.85 -1.6 -1.05 -1.85 -1.35 -1.95 -1.45 -2.0 -1.6 -2.1 -1.75 -2.1 -1.75" fill="#dcc4bf" fill-rule="evenodd" stroke="none"/>
    <path d="M-2.2 -1.7 L-2.2 -1.75 -2.05 -1.6 -1.95 -1.45 -1.95 -1.4 -1.95 -1.4 -2.05 -1.55 -2.2 -1.7" fill="#8d7672" fill-rule="evenodd" stroke="none"/>
    <path d="M-2.2 -1.75 L-2.2 -1.8 -2.1 -1.75 -2.0 -1.6 -1.95 -1.45 -2.05 -1.6 -2.2 -1.75" fill="#ada1a0" fill-rule="evenodd" stroke="none"/>
    <path d="M-2.2 -1.7 L-2.2 -1.7 -2.05 -1.55 -1.95 -1.4 -1.95 -1.35 -2.05 -1.5 -2.1 -1.6 -2.2 -1.7 M-1.95 -1.4 L-1.95 -1.4" fill="#684d47" fill-rule="evenodd" stroke="none"/>
    <path d="M-2.2 -1.35 L-2.2 -1.7 -2.1 -1.6 -2.05 -1.5 -2.0 -1.4 -2.0 -1.35 -2.1 -1.35 -2.2 -1.35" fill="#332322" fill-rule="evenodd" stroke="none"/>
    <path d="M-2.2 -1.2 L-2.2 -1.25 -2.05 -1.25 -1.95 -1.2 -1.95 -1.05 Q-1.95 -1.0 -2.0 -1.0 L-2.05 -1.0 -2.05 -1.05 -2.1 -1.15 -2.2 -1.2" fill="#8f342c" fill-rule="evenodd" stroke="none"/>
    <path d="M-2.2 -0.8 L-2.2 -0.9 -2.15 -0.9 -2.1 -0.9 -2.1 -1.05 Q-2.1 -1.1 -2.2 -1.15 L-2.2 -1.2 -2.1 -1.15 -2.05 -1.05 -2.05 -1.0 -2.0 -1.0 Q-1.95 -1.0 -1.95 -1.05 L-1.95 -1.2 -2.05 -1.25 -2.2 -1.25 -2.2 -1.35 -2.1 -1.35 -2.0 -1.35 -2.0 -1.4 -2.05 -1.5 -1.95 -1.35 -1.95 -1.3 -1.85 -1.1 -1.75 -1.05 -1.7 -0.95 Q-1.7 -0.9 -1.75 -0.9 L-1.8 -0.9 -1.85 -0.9 -1.85 -0.75 -1.9 -0.7 -2.2 -0.8" fill="#5e2624" fill-rule="evenodd" stroke="none"/>
    <path d="M-2.2 -0.9 L-2.2 -1.15 Q-2.1 -1.1 -2.1 -1.05 L-2.1 -0.9 -2.15 -0.9 -2.2 -0.9" fill="#472220" fill-rule="evenodd" stroke="none"/>
    <path d="M-2.2 -0.65 L-2.2 -0.8 -1.9 -0.7 -1.85 -0.75 -1.85 -0.9 -1.8 -0.9 -1.75 -0.9 Q-1.7 -0.9 -1.7 -0.95 L-1.75 -1.05 -1.85 -1.1 -1.95 -1.3 Q-1.8 -1.0 -1.55 -0.95 L-1.65 -0.85 -1.75 -0.85 Q-1.8 -0.9 -1.85 -0.85 L-1.85 -0.75 Q-1.85 -0.7 -1.8 -0.7 L-1.75 -0.65 -1.75 -0.55 -1.75 -0.45 -1.7 -0.35 -1.65 -0.3 -1.65 -0.25 -1.7 -0.35 -1.75 -0.4 -1.8 -0.5 -1.85 -0.6 -2.0 -0.55 -2.2 -0.65" fill="#762b28" fill-rule="evenodd" stroke="none"/>
    <path d="M-2.2 -0.45 L-2.2 -0.55 -2.05 -0.5 -1.95 -0.5 Q-1.9 -0.5 -1.85 -0.45 L-1.8 -0.35 -1.75 -0.3 -1.7 -0.25 -1.75 -0.15 -1.7 -0.05 -1.65 0.05 -1.65 0.15 -1.65 0.25 -1.65 0.2 -1.7 0.15 -1.75 0.05 -1.8 -0.05 -1.8 -0.15 -1.85 -0.25 -1.9 -0.35 -2.1 -0.45 -2.2 -0.45" fill="#3b2826" fill-rule="evenodd" stroke="none"/>
    <path d="M-2.2 -0.55 L-2.2 -0.65 -2.0 -0.55 -1.85 -0.6 -1.8 -0.5 -1.75 -0.4 -1.7 -0.35 -1.65 -0.25 -1.7 -0.25 -1.75 -0.3 -1.8 -0.35 -1.85 -0.45 Q-1.9 -0.5 -1.95 -0.5 L-2.05 -0.5 -2.2 -0.55 M-1.65 -0.25 L-1.65 -0.25" fill="#592826" fill-rule="evenodd" stroke="none"/>
    <path d="M-2.2 -0.25 L-2.2 -0.45 -2.1 -0.45 -1.9 -0.35 -1.85 -0.25 -1.8 -0.15 -1.8 -0.05 -1.75 0.05 -1.7 0.15 -1.65 0.2 -1.65 0.25 -1.6 0.35 -1.65 0.3 -1.7 0.3 -1.8 0.2 -1.85 0.1 -1.9 0.0 -1.95 -0.05 -2.05 -0.2 -2.1 -0.25 -2.2 -0.25" fill="#242324" fill-rule="evenodd" stroke="none"/>
    <path d="M-2.2 0.4 L-2.2 -0.25 -2.1 -0.25 -2.05 -0.2 -1.95 -0.05 -1.9 0.0 -1.85 0.1 -1.8 0.2 -1.7 0.3 -1.7 0.4 Q-1.65 0.5 -1.75 0.45 L-1.8 0.55 -1.8 0.65 -1.85 0.6 -1.95 0.55 Q-2.0 0.55 -2.05 0.45 -2.1 0.4 -2.2 0.4" fill="#152025" fill-rule="evenodd" stroke="none"/>
    <path d="M-1.0 -2.2 L-0.2 -2.2 -0.2 -2.1 Q-0.2 -2.05 -0.25 -2.05 L-0.4 -2.05 -0.55 -2.1 -0.65 -2.1 -0.8 -2.05 Q-0.85 -2.05 -0.9 -2.1 L-1.0 -2.2" fill="#c1dee7" fill-rule="evenodd" stroke="none"/>
    <path d="M-0.35 -1.2 L-0.45 -1.15 -0.5 -1.05 -0.55 -1.0 -0.55 -0.95 -0.55 -1.0 -0.5 -1.1 Q-0.55 -1.2 -0.5 -1.3 L-0.35 -1.5 -0.35 -1.6 -0.3 -1.65 -0.25 -1.65 -0.3 -1.7 -0.35 -1.7 -0.4 -1.7 -0.6 -1.65 -0.8 -1.55 Q-0.85 -1.5 -0.9 -1.55 L-0.95 -1.6 -0.95 -1.6 -1.1 -1.6 -1.25 -1.5 -1.25 -1.45 -1.2 -1.4 -1.15 -1.3 -1.2 -1.25 -1.2 -1.1 -1.2 -0.9 Q-1.15 -0.8 -1.1 -0.8 -1.15 -0.8 -1.2 -0.85 L-1.25 -0.95 -1.25 -1.05 Q-1.25 -1.1 -1.25 -1.1 L-1.3 -1.2 -1.3 -1.3 -1.35 -1.3 -1.35 -1.2 Q-1.4 -1.15 -1.45 -1.15 L-1.55 -1.2 -1.6 -1.3 Q-1.65 -1.35 -1.65 -1.45 L-1.6 -1.5 -1.55 -1.6 -1.5 -1.6 -1.4 -1.6 -1.15 -1.7 -0.85 -1.75 -0.75 -1.75 -0.65 -1.75 Q-0.55 -1.75 -0.45 -1.8 L-0.3 -1.9 -0.1 -1.9 Q-0.05 -1.9 -0.05 -1.85 L-0.05 -1.65 -0.15 -1.55 -0.2 -1.5 -0.3 -1.45 -0.35 -1.4 -0.35 -1.3 -0.25 -1.3 -0.2 -1.25 -0.25 -1.25 -0.3 -1.25 -0.35 -1.25 -0.35 -1.2" fill="#f4f4f4" fill-rule="evenodd" stroke="none"/>
    <path d="M-1.95 -1.4 L-1.95 -1.4 -1.85 -1.3 -1.7 -1.15 -1.55 -1.0 -1.7 -1.1 -1.85 -1.25 -1.9 -1.3 -1.95 -1.4 -1.95 -1.4" fill="#c7705f" fill-rule="evenodd" stroke="none"/>
    <path d="M-1.95 -1.45 L-1.85 -1.35 -1.6 -1.05 -1.3 -0.85 -1.25 -0.8 -1.2 -0.8 -1.15 -0.8 -1.1 -0.75 -1.15 -0.75 -1.2 -0.75 -1.55 -1.0 -1.7 -1.15 -1.85 -1.3 -1.95 -1.4 -1.95 -1.45 M-1.1 -0.75 L-1.1 -0.75" fill="#d1988b" fill-rule="evenodd" stroke="none"/>
    <path d="M-1.95 -1.35 L-1.95 -1.4 -1.9 -1.3 -1.85 -1.25 -1.75 -1.1 Q-1.65 -1.0 -1.55 -1.0 L-1.45 -0.95 -1.4 -0.9 -1.4 -0.85 -1.45 -0.85 -1.5 -0.9 -1.55 -0.9 -1.6 -0.9 -1.6 -0.85 -1.65 -0.8 -1.7 -0.8 -1.75 -0.8 -1.8 -0.75 -1.75 -0.7 -1.7 -0.65 -1.7 -0.5 -1.65 -0.4 -1.55 -0.25 -1.6 -0.2 -1.6 -0.2 Q-1.6 -0.25 -1.65 -0.3 L-1.7 -0.35 -1.75 -0.45 -1.75 -0.55 -1.75 -0.65 -1.8 -0.7 Q-1.85 -0.7 -1.85 -0.75 L-1.85 -0.85 Q-1.8 -0.9 -1.75 -0.85 L-1.65 -0.85 -1.55 -0.95 Q-1.8 -1.0 -1.95 -1.3 L-1.95 -1.35" fill="#903832" fill-rule="evenodd" stroke="none"/>
    <path d="M-1.4 -0.9 L-1.4 -0.85 -1.45 -0.85 -1.55 -0.85 -1.5 -0.75 -1.4 -0.65 -1.45 -0.6 -1.5 -0.55 -1.55 -0.5 -1.55 -0.45 -1.6 -0.5 -1.65 -0.45 -1.6 -0.35 -1.55 -0.35 -1.5 -0.3 -1.55 -0.25 -1.65 -0.4 -1.7 -0.5 -1.7 -0.65 -1.75 -0.7 -1.8 -0.75 -1.75 -0.8 -1.7 -0.8 -1.65 -0.8 -1.6 -0.85 -1.6 -0.9 -1.55 -0.9 -1.5 -0.9 -1.45 -0.85 -1.4 -0.85 -1.4 -0.9 M-1.55 -0.25 L-1.55 -0.25" fill="#a23d38" fill-rule="evenodd" stroke="none"/>
    <path d="M-1.55 -1.0 L-1.2 -0.75 -1.15 -0.7 -1.15 -0.7 -1.3 -0.7 -1.4 -0.8 -1.4 -0.75 -1.35 -0.7 -1.3 -0.55 Q-1.3 -0.45 -1.35 -0.4 L-1.4 -0.45 -1.5 -0.5 -1.5 -0.4 -1.45 -0.35 -1.4 -0.3 -1.4 -0.25 -1.45 -0.2 -1.5 -0.2 -1.55 -0.1 -1.55 0.0 -1.6 -0.15 -1.55 -0.25 -1.5 -0.3 -1.55 -0.35 -1.6 -0.35 -1.65 -0.45 -1.6 -0.5 -1.55 -0.45 -1.55 -0.5 -1.5 -0.55 -1.45 -0.6 -1.4 -0.65 -1.5 -0.75 -1.55 -0.85 -1.45 -0.85 -1.4 -0.85 -1.4 -0.9 -1.45 -0.95 -1.55 -1.0 Q-1.65 -1.0 -1.75 -1.1 L-1.85 -1.25 -1.7 -1.1 -1.55 -1.0" fill="#aa4f44" fill-rule="evenodd" stroke="none"/>
    <path d="M-1.2 -0.75 L-1.15 -0.75 -1.1 -0.75 -1.05 -0.75 -1.0 -0.7 -0.95 -0.7 -0.9 -0.6 Q-0.95 -0.6 -1.0 -0.6 L-1.05 -0.65 -1.1 -0.65 -1.15 -0.6 -1.2 -0.55 -1.15 -0.5 -1.2 -0.5 -1.25 -0.5 -1.25 -0.4 -1.3 -0.35 -1.3 -0.3 -1.25 -0.25 -1.35 -0.2 -1.5 -0.15 Q-1.55 -0.1 -1.5 0.0 L-1.4 0.15 -1.4 0.2 -1.35 0.25 -1.4 0.25 -1.5 0.1 -1.55 0.0 -1.55 -0.1 -1.5 -0.2 -1.45 -0.2 -1.4 -0.25 -1.4 -0.3 -1.45 -0.35 -1.5 -0.4 -1.5 -0.5 -1.4 -0.45 -1.35 -0.4 Q-1.3 -0.45 -1.3 -0.55 L-1.35 -0.7 -1.4 -0.75 -1.4 -0.8 -1.3 -0.7 -1.15 -0.7 -1.15 -0.7 -1.2 -0.75" fill="#aa604e" fill-rule="evenodd" stroke="none"/>
    <path d="M-1.0 -0.7 L-1.05 -0.75 -1.1 -0.75 -1.05 -0.75 -1.0 -0.7" fill="#c4a6a1" fill-rule="evenodd" stroke="none"/>
    <path d="M-1.1 -0.75 L-1.1 -0.75 -1.05 -0.75 -1.1 -0.75" fill="#e0d9de" fill-rule="evenodd" stroke="none"/>
    <path d="M-1.35 0.25 L-1.4 0.2 -1.4 0.15 -1.5 0.0 Q-1.55 -0.1 -1.5 -0.15 L-1.35 -0.2 -1.25 -0.25 -1.3 -0.3 -1.3 -0.35 -1.25 -0.4 -1.25 -0.5 -1.2 -0.5 -1.15 -0.5 -1.2 -0.55 -1.15 -0.6 -1.1 -0.65 -1.05 -0.65 -1.0 -0.6 Q-0.95 -0.6 -0.9 -0.6 L-0.85 -0.6 -0.85 -0.55 -0.9 -0.55 -1.0 -0.6 -1.1 -0.55 Q-1.15 -0.5 -1.1 -0.45 L-1.1 -0.4 -1.1 -0.3 -1.05 -0.3 Q-1.05 -0.3 -1.05 -0.25 -1.05 -0.2 -1.05 -0.2 L-1.15 -0.15 -1.2 -0.15 -1.3 -0.2 -1.4 -0.1 -1.5 -0.05 -1.4 0.1 -1.35 0.2 -1.3 0.25 -1.2 0.25 -1.2 0.3 -1.25 0.3 -1.3 0.3 -1.35 0.35 -1.35 0.25 M-0.85 -0.55 L-0.85 -0.55" fill="#aa6c52" fill-rule="evenodd" stroke="none"/>
    <path d="M-1.65 -0.25 L-1.65 -0.25 -1.65 -0.3 Q-1.6 -0.25 -1.6 -0.2 -1.65 -0.1 -1.6 0.0 L-1.55 0.05 -1.5 0.15 -1.45 0.2 -1.4 0.3 -1.45 0.3 -1.45 0.25 Q-1.45 0.2 -1.5 0.2 L-1.6 0.15 -1.6 0.0 -1.65 -0.1 -1.65 -0.25 M-1.4 0.3 L-1.4 0.3" fill="#6d433c" fill-rule="evenodd" stroke="none"/>
    <path d="M-1.55 -0.25 L-1.55 -0.25 -1.6 -0.15 -1.55 0.0 -1.5 0.1 -1.4 0.25 -1.4 0.3 -1.4 0.3 -1.45 0.2 -1.5 0.15 -1.55 0.05 -1.6 0.0 Q-1.65 -0.1 -1.6 -0.2 L-1.6 -0.2 -1.55 -0.25" fill="#8e4e45" fill-rule="evenodd" stroke="none"/>
    <path d="M-1.65 0.15 L-1.65 0.05 -1.7 -0.05 -1.75 -0.15 -1.7 -0.25 -1.65 -0.25 -1.65 -0.1 -1.6 0.0 -1.6 0.15 -1.5 0.2 Q-1.45 0.2 -1.45 0.25 L-1.5 0.25 -1.55 0.2 -1.65 0.15" fill="#513834" fill-rule="evenodd" stroke="none"/>
    <path d="M-1.35 0.35 L-1.3 0.3 -1.25 0.3 -1.2 0.3 -1.2 0.25 -1.3 0.25 -1.35 0.2 -1.4 0.1 -1.5 -0.05 -1.4 -0.1 -1.3 -0.2 -1.2 -0.15 -1.15 -0.15 -1.05 -0.2 Q-1.05 -0.2 -1.05 -0.25 -1.05 -0.3 -1.05 -0.3 L-1.1 -0.3 -1.1 -0.4 -1.1 -0.45 Q-1.15 -0.5 -1.1 -0.55 L-1.0 -0.6 -0.9 -0.55 -0.85 -0.55 -0.75 -0.55 -0.7 -0.5 -0.65 -0.5 -0.65 -0.4 Q-0.6 -0.35 -0.65 -0.35 L-0.65 -0.3 -0.6 -0.25 -0.6 -0.35 -0.55 -0.4 -0.5 -0.35 Q-0.5 -0.35 -0.45 -0.4 L-0.45 -0.3 Q-0.45 -0.35 -0.5 -0.3 L-0.55 -0.25 -0.6 -0.2 -0.65 -0.2 -0.7 -0.15 -0.65 -0.1 -0.65 0.0 -0.7 0.05 -0.7 -0.05 -0.75 -0.1 -0.8 -0.2 -0.8 -0.25 Q-0.75 -0.25 -0.75 -0.3 L-0.8 -0.35 -0.8 -0.4 -0.75 -0.45 Q-0.85 -0.45 -0.9 -0.5 L-0.9 -0.55 -0.95 -0.55 -0.95 -0.45 Q-0.95 -0.4 -1.0 -0.35 L-1.0 -0.25 -0.95 -0.2 -0.95 -0.15 -1.0 -0.15 -1.05 -0.15 -1.1 -0.15 -1.1 -0.1 -1.15 -0.1 -1.2 -0.15 -1.25 -0.15 -1.3 -0.15 -1.35 -0.05 -1.3 0.05 -1.35 0.1 -1.3 0.2 -1.2 0.2 -1.15 0.25 -1.15 0.35 Q-1.1 0.4 -1.15 0.4 L-1.15 0.45 -1.1 0.5 -1.05 0.5 -1.0 0.5 -0.95 0.45 -0.9 0.55 -0.9 0.55 -0.85 0.55 -0.8 0.55 -0.8 0.5 -0.75 0.45 -0.7 0.45 -0.6 0.4 -0.55 0.4 Q-0.5 0.35 -0.55 0.3 L-0.6 0.35 -0.6 0.3 Q-0.6 0.25 -0.65 0.25 L-0.65 0.15 -0.75 0.15 -0.8 0.1 -0.75 0.1 -0.75 0.05 Q-0.7 0.2 -0.45 0.2 L-0.35 0.2 -0.4 0.3 -0.4 0.35 Q-0.35 0.4 -0.35 0.45 L-0.45 0.5 -0.45 0.4 -0.5 0.4 -0.5 0.5 -0.55 0.55 -0.6 0.6 -0.65 0.6 -0.7 0.6 -0.65 0.65 -0.65 0.75 -0.75 0.75 -0.85 0.75 -0.95 0.75 -1.0 0.75 -1.05 0.75 -1.05 0.7 -0.95 0.65 Q-0.95 0.6 -1.05 0.55 L-1.15 0.55 -1.35 0.45 -1.35 0.35 M-1.25 -0.15 L-1.25 -0.15 M-0.7 0.05 L-0.7 0.05 M-0.45 -0.3 L-0.45 -0.3" fill="#a9755a" fill-rule="evenodd" stroke="none"/>
    <path d="M-1.25 -0.15 L-1.25 -0.15 -1.2 -0.1 -1.15 -0.05 -1.1 -0.05 -1.05 -0.05 Q-1.0 -0.05 -0.95 -0.1 L-0.9 -0.15 -0.85 -0.1 -0.85 -0.1 -0.85 -0.15 -0.9 -0.15 -0.85 -0.2 -0.8 -0.25 -0.8 -0.2 Q-0.85 -0.05 -0.75 0.0 -0.75 0.0 -0.8 0.05 L-0.85 0.1 -0.85 0.1 -0.8 0.15 -0.7 0.2 -0.7 0.25 -0.75 0.3 -0.7 0.3 -0.7 0.45 -0.75 0.45 -0.8 0.5 -0.8 0.55 -0.85 0.55 -0.9 0.5 -0.9 0.4 Q-0.9 0.4 -0.95 0.4 L-1.05 0.35 -1.1 0.3 -1.15 0.2 -1.2 0.15 -1.25 0.2 -1.3 0.15 -1.25 0.1 -1.3 0.05 -1.3 0.0 Q-1.25 -0.05 -1.3 -0.1 L-1.25 -0.15 M-0.95 0.05 L-1.0 0.0 -1.05 -0.05 -1.1 0.0 -1.1 0.05 -1.1 0.2 -1.05 0.3 -1.0 0.3 -0.9 0.3 -0.9 0.35 -0.8 0.4 -0.8 0.35 -0.8 0.3 -0.75 0.25 -0.8 0.25 -0.75 0.2 -0.85 0.15 -0.9 0.15 -0.9 0.1 -0.95 0.05" fill="#a79779" fill-rule="evenodd" stroke="none"/>
    <path d="M-0.85 0.55 L-0.9 0.55 -0.9 0.55 -0.95 0.45 -1.0 0.5 -1.05 0.5 -1.1 0.5 -1.15 0.45 -1.15 0.4 Q-1.1 0.4 -1.15 0.35 L-1.15 0.25 -1.2 0.2 -1.3 0.2 -1.35 0.1 -1.3 0.05 -1.35 -0.05 -1.3 -0.15 -1.25 -0.15 -1.3 -0.1 Q-1.25 -0.05 -1.3 0.0 L-1.3 0.05 -1.25 0.1 -1.3 0.15 -1.25 0.2 -1.2 0.15 -1.15 0.2 -1.1 0.3 -1.05 0.35 -0.95 0.4 Q-0.9 0.4 -0.9 0.4 L-0.9 0.5 -0.85 0.55" fill="#a98967" fill-rule="evenodd" stroke="none"/>
    <path d="M-1.25 -0.15 L-1.2 -0.15 -1.15 -0.1 -1.1 -0.1 -1.1 -0.15 -1.05 -0.15 -1.0 -0.15 -0.95 -0.15 -0.95 -0.2 -1.0 -0.25 -1.0 -0.35 Q-0.95 -0.4 -0.95 -0.45 L-0.95 -0.55 -0.9 -0.55 -0.9 -0.5 Q-0.85 -0.45 -0.75 -0.45 L-0.8 -0.4 -0.8 -0.35 -0.75 -0.3 Q-0.75 -0.25 -0.8 -0.25 L-0.85 -0.2 -0.9 -0.15 -0.85 -0.15 -0.85 -0.1 -0.85 -0.1 -0.9 -0.15 -0.95 -0.1 Q-1.0 -0.05 -1.05 -0.05 L-1.1 -0.05 -1.15 -0.05 -1.2 -0.1 -1.25 -0.15" fill="#a98b69" fill-rule="evenodd" stroke="none"/>
    <path d="M-0.55 -0.4 L-0.6 -0.35 -0.6 -0.25 -0.65 -0.3 -0.65 -0.35 Q-0.6 -0.35 -0.65 -0.4 L-0.65 -0.5 -0.6 -0.55 -0.6 -0.45 -0.5 -0.45 -0.55 -0.4" fill="#87594e" fill-rule="evenodd" stroke="none"/>
    <path d="M-0.45 -0.4 Q-0.5 -0.35 -0.5 -0.35 L-0.55 -0.4 -0.5 -0.45 -0.5 -0.45 -0.45 -0.5 -0.45 -0.4 -0.45 -0.4" fill="#bcc6cf" fill-rule="evenodd" stroke="none"/>
    <path d="M-0.85 -0.55 L-0.85 -0.6 -0.85 -0.55" fill="#c5beba" fill-rule="evenodd" stroke="none"/>
    <path d="M-0.8 -0.2 L-0.75 -0.1 -0.7 -0.05 -0.7 0.05 -0.75 0.05 -0.75 0.1 -0.8 0.1 -0.75 0.15 -0.65 0.15 -0.65 0.25 Q-0.6 0.25 -0.6 0.3 L-0.6 0.35 -0.55 0.3 Q-0.5 0.35 -0.55 0.4 L-0.6 0.4 -0.7 0.45 -0.7 0.3 -0.75 0.3 -0.7 0.25 -0.7 0.2 -0.8 0.15 -0.85 0.1 -0.85 0.1 -0.8 0.05 Q-0.75 0.0 -0.75 0.0 -0.85 -0.05 -0.8 -0.2" fill="#a88667" fill-rule="evenodd" stroke="none"/>
    <path d="M-0.65 -0.1 L-0.7 -0.15 -0.65 -0.2 -0.6 -0.2 -0.55 -0.25 -0.55 -0.2 -0.5 -0.2 -0.55 -0.15 -0.6 -0.1 -0.65 -0.1" fill="#645753" fill-rule="evenodd" stroke="none"/>
    <path d="M-0.55 -0.25 L-0.5 -0.3 Q-0.45 -0.35 -0.45 -0.3 L-0.5 -0.25 -0.5 -0.25 -0.5 -0.2 -0.55 -0.2 -0.55 -0.25" fill="#3e4242" fill-rule="evenodd" stroke="none"/>
    <path d="M-0.5 -0.2 L-0.5 -0.25 -0.5 -0.05 -0.5 -0.1 -0.55 -0.15 -0.5 -0.2" fill="#df685a" fill-rule="evenodd" stroke="none"/>
    <path d="M-0.65 0.0 L-0.65 -0.1 -0.6 -0.1 -0.55 -0.15 -0.5 -0.1 -0.5 -0.05 -0.5 0.0 -0.55 0.0 -0.65 0.0" fill="#8c665c" fill-rule="evenodd" stroke="none"/>
    <path d="M-0.45 -0.3 L-0.45 -0.4 -0.45 -0.4 -0.45 -0.3 M-0.45 -0.4 L-0.45 -0.4" fill="#e6af73" fill-rule="evenodd" stroke="none"/>
    <path d="M-0.25 -0.2 L-0.25 -0.15 -0.2 -0.15 -0.1 -0.1 -0.1 0.0 -0.15 0.0 Q-0.15 0.0 -0.15 -0.05 -0.15 0.0 -0.2 0.0 L-0.25 -0.05 -0.15 -0.05 -0.3 -0.15 -0.3 -0.2 -0.25 -0.2" fill="#ffffc8" fill-rule="evenodd" stroke="none"/>
    <path d="M-0.25 -0.3 L-0.25 -0.25 -0.3 -0.25 -0.25 -0.3" fill="#ffffc5" fill-rule="evenodd" stroke="none"/>
    <path d="M-0.5 -0.25 L-0.5 -0.25 -0.45 -0.3 -0.5 -0.25" fill="#ed6b56" fill-rule="evenodd" stroke="none"/>
    <path d="M-0.3 0.0 L-0.35 0.0 -0.45 0.0 -0.45 -0.05 -0.4 -0.1 -0.4 -0.05 -0.35 -0.05 -0.35 0.0 -0.3 0.0 M-0.4 -0.1 L-0.4 -0.1" fill="#9d5f51" fill-rule="evenodd" stroke="none"/>
    <path d="M-0.25 0.0 L-0.25 0.0 -0.3 0.0 -0.35 0.0 -0.35 -0.05 -0.35 -0.1 -0.4 -0.1 Q-0.35 -0.2 -0.25 0.0 L-0.25 0.0 M-0.4 -0.1 L-0.4 -0.1" fill="#e87155" fill-rule="evenodd" stroke="none"/>
    <path d="M-0.35 -0.05 L-0.4 -0.05 -0.4 -0.1 -0.35 -0.1 -0.35 -0.05" fill="#5e433b" fill-rule="evenodd" stroke="none"/>
    <path d="M-0.1 0.05 L-0.1 0.05 -0.1 0.05" fill="#d86844" fill-rule="evenodd" stroke="none"/>
    <path d="M-0.15 0.05 Q-0.15 0.1 -0.2 0.1 L-0.25 0.0 -0.2 0.05 -0.2 0.05 -0.15 0.05 Q-0.15 0.0 -0.15 0.05" fill="#e4724e" fill-rule="evenodd" stroke="none"/>
    <path d="M-0.5 0.0 L-0.5 0.05 -0.3 0.15 -0.3 0.2 -0.35 0.25 -0.3 0.25 Q-0.25 0.2 -0.25 0.2 L-0.25 0.25 -0.2 0.3 -0.25 0.3 -0.3 0.35 -0.35 0.35 -0.35 0.25 -0.4 0.15 -0.5 0.15 -0.6 0.15 -0.65 0.1 -0.7 0.05 -0.65 0.0 -0.55 0.0 -0.5 0.0 -0.5 0.0" fill="#46403c" fill-rule="evenodd" stroke="none"/>
    <path d="M-0.15 0.35 L-0.05 0.4 Q-0.05 0.4 -0.05 0.45 L-0.25 0.45 -0.25 0.4 -0.3 0.4 -0.3 0.5 -0.3 0.6 -0.35 0.75 -0.35 0.9 -0.4 0.95 -0.5 1.0 -0.5 0.8 -0.55 0.8 -0.55 0.9 -0.6 1.0 -0.7 0.85 -0.85 0.85 -0.95 0.75 -0.85 0.75 -0.75 0.75 -0.65 0.75 -0.65 0.65 -0.7 0.6 -0.65 0.6 -0.6 0.6 -0.55 0.55 -0.5 0.5 -0.5 0.4 -0.45 0.4 -0.45 0.5 -0.35 0.45 Q-0.35 0.4 -0.4 0.35 L-0.4 0.3 -0.35 0.2 -0.45 0.2 -0.4 0.15 -0.35 0.25 -0.35 0.35 -0.3 0.35 -0.25 0.3 -0.2 0.35 -0.15 0.35" fill="#af5f4a" fill-rule="evenodd" stroke="none"/>
    <path d="M-0.7 0.05 L-0.7 0.05 -0.65 0.1 -0.6 0.15 -0.5 0.15 -0.4 0.15 -0.45 0.2 Q-0.7 0.2 -0.75 0.05 L-0.7 0.05" fill="#6e5950" fill-rule="evenodd" stroke="none"/>
    <path d="M-0.25 0.45 L-0.25 0.45 -0.25 0.5 -0.3 0.5 -0.3 0.4 -0.25 0.4 -0.25 0.45" fill="#684038" fill-rule="evenodd" stroke="none"/>
    <path d="M-0.25 0.45 L-0.2 0.5 -0.15 0.55 -0.15 0.8 -0.15 0.75 -0.1 0.7 -0.1 0.7 -0.05 0.75 -0.05 0.85 -0.15 0.85 -0.1 0.9 -0.15 1.1 -0.15 1.25 -0.1 1.25 -0.05 1.25 -0.05 1.35 -0.1 1.4 -0.1 1.5 -0.15 1.55 Q-0.15 1.65 -0.2 1.65 L-0.3 1.6 Q-0.35 1.55 -0.4 1.55 L-0.45 1.5 -0.45 1.45 -0.5 1.5 -0.5 1.5 -0.55 1.5 -0.55 1.45 -0.5 1.45 -0.5 1.4 -0.4 1.35 -0.35 1.4 -0.3 1.35 Q-0.25 1.4 -0.25 1.45 L-0.25 1.6 Q-0.25 1.65 -0.2 1.6 L-0.15 1.55 -0.15 1.3 -0.2 1.25 -0.2 1.2 -0.25 1.2 -0.3 1.15 Q-0.3 1.05 -0.35 1.05 -0.45 1.0 -0.5 1.05 L-0.5 1.0 -0.4 0.95 -0.35 0.9 -0.35 0.75 -0.3 0.6 -0.3 0.5 -0.25 0.5 -0.25 0.45 M-0.05 1.35 L-0.05 1.35" fill="#a9493f" fill-rule="evenodd" stroke="none"/>
    <path d="M-0.95 0.05 L-0.9 0.1 -0.9 0.15 -0.85 0.15 -0.75 0.2 -0.8 0.25 -0.75 0.25 -0.8 0.3 -0.8 0.35 -0.8 0.4 -0.9 0.35 -0.9 0.3 -1.0 0.3 -1.05 0.3 -1.1 0.2 -1.1 0.05 -1.1 0.0 -1.05 -0.05 -1.0 0.0 -0.95 0.05" fill="#a69f8a" fill-rule="evenodd" stroke="none"/>
    <path d="M-0.6 1.0 L-0.55 0.9 -0.55 0.8 -0.5 0.8 -0.5 1.0 -0.5 1.05 -0.5 1.15 -0.55 1.25 -0.55 1.1 -0.6 1.05 -0.6 1.0" fill="#c96c48" fill-rule="evenodd" stroke="none"/>
    <path d="M-0.95 0.75 L-0.85 0.85 -0.9 0.9 -0.95 0.9 -0.95 0.85 -0.95 0.8 -1.0 0.85 -1.0 0.8 -1.05 0.75 -1.0 0.75 -0.95 0.75 M-1.05 0.75 L-1.05 0.75 M-0.8 0.85 L-0.85 0.85 -0.8 0.85" fill="#87554d" fill-rule="evenodd" stroke="none"/>
    <path d="M-0.95 0.85 L-0.95 0.9 -0.9 0.95 -0.9 1.0 -0.85 1.0 -0.8 1.0 -0.75 1.1 -0.8 1.15 -1.05 1.25 -1.3 1.3 -1.55 1.45 -1.8 1.55 Q-1.85 1.6 -1.85 1.55 L-1.85 1.5 -1.9 1.45 -1.95 1.35 Q-2.0 1.25 -2.0 1.2 -1.95 1.15 -1.85 1.1 L-1.7 1.1 -1.65 1.05 -1.6 0.95 -1.4 1.05 -1.35 1.05 -1.3 1.05 -1.25 1.0 -1.15 0.95 -1.1 0.9 -1.05 0.85 -1.05 0.85 Q-1.0 0.85 -1.0 0.85 L-0.95 0.85 M-1.05 0.85 L-1.05 0.85 M-0.8 1.15 L-0.8 1.15" fill="#f5fefe" fill-rule="evenodd" stroke="none"/>
    <path d="M-0.95 0.85 L-0.95 0.9 -0.9 0.9 -0.9 0.95 -0.95 0.9 -0.95 0.85" fill="#b3b3b9" fill-rule="evenodd" stroke="none"/>
    <path d="M-1.0 0.85 L-0.95 0.8 -0.95 0.85 -1.0 0.85" fill="#ab9ea2" fill-rule="evenodd" stroke="none"/>
    <path d="M-1.0 0.8 L-1.0 0.85 Q-1.0 0.85 -1.05 0.85 L-1.0 0.8" fill="#9e9ea6" fill-rule="evenodd" stroke="none"/>
    <path d="M-0.9 0.9 L-0.85 0.85 -0.8 0.85 -0.75 0.95 -0.65 0.95 -0.6 1.0 -0.6 1.1 -0.6 1.3 -0.65 1.25 -0.65 1.2 -0.75 1.15 -0.75 1.15 -0.75 1.1 -0.8 1.0 -0.85 1.0 -0.9 1.0 -0.9 0.95 -0.9 0.9" fill="#573b36" fill-rule="evenodd" stroke="none"/>
    <path d="M-0.85 0.85 L-0.7 0.85 -0.6 1.0 -0.6 1.05 -0.55 1.1 -0.55 1.25 -0.55 1.35 -0.6 1.4 -0.6 1.35 -0.65 1.35 -0.6 1.3 -0.6 1.1 -0.6 1.0 -0.65 0.95 -0.75 0.95 -0.8 0.85 -0.85 0.85" fill="#a54c41" fill-rule="evenodd" stroke="none"/>
    <path d="M-0.8 1.0 L-0.85 1.0 -0.9 1.0 -0.85 1.0 -0.8 1.0" fill="#797575" fill-rule="evenodd" stroke="none"/>
    <path d="M-0.8 1.15 L-0.8 1.15 -0.8 1.35 -0.85 1.4 -0.85 1.45 -0.9 1.45 -0.95 1.4 -1.0 1.45 -1.0 1.55 -1.05 1.65 -1.05 1.75 -1.1 1.65 -1.05 1.55 -1.05 1.45 -1.0 1.4 -0.95 1.35 -0.9 1.25 -0.85 1.25 -0.8 1.2 -0.8 1.15" fill="#c8b39f" fill-rule="evenodd" stroke="none"/>
    <path d="M-1.3 1.05 L-1.35 1.05 -1.4 1.05 -1.6 0.95 -1.65 1.05 -1.7 1.1 -1.85 1.1 Q-1.95 1.15 -2.0 1.2 -2.0 1.25 -1.95 1.35 L-1.9 1.45 -1.85 1.5 -1.85 1.55 Q-1.85 1.6 -1.8 1.55 L-1.55 1.45 -1.3 1.3 -1.05 1.25 -0.8 1.15 -0.8 1.2 -1.0 1.3 -1.2 1.35 -1.3 1.4 -1.45 1.45 Q-1.5 1.5 -1.65 1.6 -1.8 1.7 -1.9 1.7 L-1.9 1.7 -1.95 1.7 -1.95 1.55 -2.0 1.45 -2.1 1.3 -2.1 1.15 -2.0 1.05 -1.9 1.0 -1.85 0.95 -1.7 0.9 -1.55 0.95 -1.3 1.05" fill="#e6f8fe" fill-rule="evenodd" stroke="none"/>
    <path d="M-0.8 1.15 L-0.75 1.15 -0.8 1.3 -0.75 1.45 -0.7 1.45 -0.7 1.4 -0.7 1.45 -0.75 1.5 -0.75 1.5 -0.8 1.55 -0.85 1.55 -0.85 1.5 -0.8 1.45 -0.8 1.35 -0.8 1.15 M-0.75 1.5 L-0.75 1.5 M-0.75 1.15 L-0.75 1.15" fill="#7c5642" fill-rule="evenodd" stroke="none"/>
    <path d="M-0.8 1.15 L-0.75 1.1 -0.75 1.15 -0.8 1.15" fill="#aba8ad" fill-rule="evenodd" stroke="none"/>
    <path d="M-0.7 1.4 L-0.7 1.45 -0.75 1.45 -0.8 1.3 -0.75 1.15 -0.65 1.2 -0.65 1.25 -0.6 1.3 -0.65 1.35 -0.7 1.4" fill="#3b2d2a" fill-rule="evenodd" stroke="none"/>
    <path d="M-0.55 1.25 L-0.5 1.15 -0.5 1.15 -0.45 1.2 Q-0.4 1.2 -0.45 1.3 L-0.45 1.35 -0.5 1.4 -0.55 1.45 -0.6 1.45 -0.6 1.4 -0.55 1.35 -0.55 1.25" fill="#723b34" fill-rule="evenodd" stroke="none"/>
    <path d="M-0.5 1.15 L-0.5 1.05 Q-0.45 1.0 -0.35 1.05 -0.3 1.05 -0.3 1.15 L-0.25 1.2 -0.2 1.2 -0.2 1.25 -0.15 1.3 -0.15 1.55 -0.2 1.6 Q-0.25 1.65 -0.25 1.6 L-0.25 1.45 Q-0.25 1.4 -0.3 1.35 L-0.35 1.4 -0.4 1.35 -0.5 1.4 -0.5 1.45 -0.55 1.45 -0.5 1.4 -0.45 1.35 -0.45 1.3 Q-0.4 1.2 -0.45 1.2 L-0.5 1.15 -0.5 1.15 M-0.55 1.45 L-0.55 1.45" fill="#903d37" fill-rule="evenodd" stroke="none"/>
    <path d="M-1.45 0.25 L-1.45 0.3 Q-1.5 0.35 -1.45 0.4 L-1.4 0.45 -1.4 0.5 -1.35 0.55 -1.3 0.6 -1.15 0.65 -1.1 0.7 -1.05 0.75 -1.0 0.8 -1.05 0.85 -1.05 0.85 Q-1.05 0.75 -1.15 0.7 L-1.3 0.7 -1.4 0.6 -1.45 0.5 Q-1.55 0.4 -1.5 0.25 L-1.45 0.25" fill="#4a4844" fill-rule="evenodd" stroke="none"/>
    <path d="M-1.35 0.25 L-1.35 0.35 -1.35 0.45 -1.15 0.55 -1.05 0.55 Q-0.95 0.6 -0.95 0.65 L-1.05 0.7 -1.1 0.65 -1.15 0.55 Q-1.25 0.6 -1.3 0.5 -1.4 0.4 -1.4 0.3 L-1.4 0.25 -1.35 0.25" fill="#996558" fill-rule="evenodd" stroke="none"/>
    <path d="M-1.4 0.3 L-1.4 0.3 Q-1.4 0.4 -1.3 0.5 -1.25 0.6 -1.15 0.55 L-1.1 0.65 -1.15 0.6 -1.25 0.6 -1.35 0.55 -1.4 0.45 -1.4 0.3 -1.4 0.3" fill="#796056" fill-rule="evenodd" stroke="none"/>
    <path d="M-1.45 0.3 L-1.4 0.3 -1.4 0.45 -1.35 0.55 -1.25 0.6 -1.15 0.6 -1.1 0.65 -1.05 0.7 -1.05 0.75 -1.05 0.75 -1.1 0.7 -1.15 0.65 -1.3 0.6 -1.35 0.55 -1.4 0.5 -1.4 0.45 -1.45 0.4 Q-1.5 0.35 -1.45 0.3" fill="#5e534d" fill-rule="evenodd" stroke="none"/>
    <path d="M-1.6 0.35 L-1.65 0.25 -1.65 0.15 -1.55 0.2 -1.5 0.25 Q-1.55 0.4 -1.45 0.5 L-1.4 0.6 -1.3 0.7 -1.15 0.7 Q-1.05 0.75 -1.05 0.85 L-1.1 0.85 -1.1 0.9 -1.15 0.9 -1.2 0.9 -1.15 0.9 Q-1.1 0.85 -1.15 0.8 -1.15 0.8 -1.2 0.75 L-1.3 0.75 -1.4 0.65 -1.5 0.55 -1.55 0.45 -1.6 0.35 -1.6 0.35" fill="#353b3a" fill-rule="evenodd" stroke="none"/>
    <path d="M-2.2 0.45 L-2.2 0.4 Q-2.1 0.4 -2.05 0.45 -2.0 0.55 -1.95 0.55 L-1.85 0.6 -1.8 0.65 -1.8 0.55 -1.75 0.45 Q-1.65 0.5 -1.7 0.4 L-1.7 0.3 -1.65 0.3 -1.6 0.35 -1.6 0.35 -1.55 0.5 -1.6 0.6 -1.65 0.65 -1.65 0.7 -1.6 0.7 -1.55 0.7 -1.45 0.7 -1.4 0.7 -1.4 0.75 -1.45 0.8 -1.6 0.8 -1.75 0.75 -2.05 0.55 -2.1 0.45 -2.2 0.45" fill="#172e33" fill-rule="evenodd" stroke="none"/>
    <path d="M-1.2 0.9 L-1.25 0.95 Q-1.3 1.0 -1.35 1.0 L-1.35 1.0 -1.4 0.95 -1.45 0.95 -1.5 0.9 -1.55 0.85 -1.6 0.85 -1.7 0.8 -1.75 0.75 -1.6 0.8 -1.45 0.8 -1.4 0.75 -1.4 0.7 -1.45 0.7 -1.55 0.7 -1.6 0.7 -1.65 0.7 -1.65 0.65 -1.6 0.6 -1.55 0.5 -1.6 0.35 -1.55 0.45 -1.5 0.55 -1.4 0.65 -1.3 0.75 -1.2 0.75 Q-1.15 0.8 -1.15 0.8 -1.1 0.85 -1.15 0.9 L-1.2 0.9" fill="#1d373b" fill-rule="evenodd" stroke="none"/>
    <path d="M-2.2 0.45 L-2.2 0.45 -2.1 0.45 -2.05 0.55 -1.75 0.75 -1.7 0.8 -1.6 0.85 -1.55 0.85 -1.5 0.9 -1.45 0.95 -1.4 0.95 -1.45 0.95 -1.5 0.95 Q-1.5 0.9 -1.6 0.85 L-1.7 0.8 -1.75 0.75 -1.9 0.65 -2.0 0.55 -2.2 0.45" fill="#425c65" fill-rule="evenodd" stroke="none"/>
    <path d="M-2.2 1.4 L-2.2 1.1 -2.1 1.05 -2.05 1.0 -2.1 0.9 -2.15 0.8 -2.1 0.7 Q-2.0 0.65 -1.95 0.7 L-1.8 0.8 -1.65 0.85 -1.6 0.9 Q-1.55 0.9 -1.55 0.95 L-1.7 0.9 -1.85 0.95 -1.9 1.0 -2.0 1.05 -2.1 1.15 -2.1 1.3 -2.0 1.45 -1.95 1.55 -1.95 1.7 -1.9 1.7 -1.9 1.7 Q-1.8 1.7 -1.65 1.6 -1.5 1.5 -1.45 1.45 L-1.3 1.4 -1.2 1.35 -1.0 1.3 -0.8 1.2 -0.85 1.25 -0.9 1.25 Q-0.95 1.35 -1.15 1.4 L-1.35 1.5 Q-1.5 1.5 -1.65 1.65 L-1.95 1.8 Q-2.05 1.85 -2.05 1.8 L-2.05 1.65 Q-2.0 1.6 -2.05 1.5 L-2.2 1.4" fill="#dcedf9" fill-rule="evenodd" stroke="none"/>
    <path d="M-2.2 0.55 L-2.2 0.5 -1.9 0.7 -1.55 0.9 -1.5 0.95 -1.5 0.95 -1.45 0.95 -1.35 1.0 Q-1.3 1.05 -1.25 1.0 L-1.3 1.05 -1.55 0.95 Q-1.55 0.9 -1.6 0.9 L-1.65 0.85 -1.8 0.8 -1.95 0.7 -2.0 0.65 -2.1 0.6 -2.15 0.55 Q-2.15 0.55 -2.2 0.55" fill="#a8bec8" fill-rule="evenodd" stroke="none"/>
    <path d="M-2.2 0.5 L-2.2 0.45 -2.0 0.55 -1.9 0.65 -1.75 0.75 -1.7 0.8 -1.6 0.85 Q-1.5 0.9 -1.5 0.95 L-1.5 0.95 -1.55 0.9 -1.9 0.7 -2.2 0.5" fill="#738d97" fill-rule="evenodd" stroke="none"/>
    <path d="M-2.2 1.1 L-2.2 0.55 Q-2.15 0.55 -2.15 0.55 L-2.1 0.6 -2.0 0.65 -1.95 0.7 Q-2.0 0.65 -2.1 0.7 L-2.15 0.8 -2.1 0.9 -2.05 1.0 -2.1 1.05 -2.2 1.1" fill="#d0e4f1" fill-rule="evenodd" stroke="none"/>
    <path d="M-1.1 0.9 L-1.15 0.95 -1.25 1.0 Q-1.3 1.05 -1.35 1.0 -1.3 1.0 -1.25 0.95 L-1.2 0.9 -1.15 0.9 -1.1 0.9 M-1.4 0.95 L-1.35 1.0 -1.35 1.0 -1.45 0.95 -1.4 0.95" fill="#748b91" fill-rule="evenodd" stroke="none"/>
    <path d="M-1.05 0.85 L-1.05 0.85 -1.1 0.9 -1.1 0.85 -1.05 0.85" fill="#919ea5" fill-rule="evenodd" stroke="none"/>
    <path d="M-2.2 1.95 L-2.2 1.95 -1.85 1.9 -1.55 1.7 -1.35 1.6 -1.1 1.55 -1.05 1.5 -1.05 1.45 -1.05 1.55 -1.1 1.65 -1.25 1.65 -1.3 1.65 -1.4 1.65 -1.5 1.7 -1.6 1.75 -1.85 1.9 -2.2 1.95" fill="#acc0d3" fill-rule="evenodd" stroke="none"/>
    <path d="M-2.2 1.95 L-2.2 1.9 Q-2.0 1.95 -1.8 1.85 L-1.65 1.7 -1.5 1.6 -1.35 1.55 -1.25 1.5 -1.0 1.4 -1.0 1.4 -1.05 1.45 -1.05 1.5 -1.1 1.55 -1.35 1.6 -1.55 1.7 -1.85 1.9 -2.2 1.95" fill="#b9cddf" fill-rule="evenodd" stroke="none"/>
    <path d="M-2.2 1.9 L-2.2 1.5 Q-2.1 1.55 -2.1 1.65 L-2.15 1.75 -2.15 1.8 -2.1 1.9 -2.0 1.9 -1.7 1.7 Q-1.5 1.55 -1.4 1.55 L-1.0 1.4 -1.25 1.5 -1.35 1.55 -1.5 1.6 -1.65 1.7 -1.8 1.85 Q-2.0 1.95 -2.2 1.9" fill="#c7d9ea" fill-rule="evenodd" stroke="none"/>
    <path d="M-2.2 2.1 L-2.2 2.05 -1.9 1.95 -1.6 1.9 -1.5 1.8 -1.4 1.75 -1.25 1.75 -1.1 1.8 -1.15 1.8 -1.25 1.8 -1.3 1.75 -1.4 1.8 Q-1.45 1.8 -1.5 1.85 L-1.55 1.9 -1.55 1.95 Q-1.85 1.95 -2.05 2.05 L-2.15 2.1 -2.2 2.1 M-1.1 1.8 L-1.1 1.8 -1.1 1.8" fill="#73a2c0" fill-rule="evenodd" stroke="none"/>
    <path d="M-2.2 2.05 L-2.2 2.0 Q-1.85 1.95 -1.6 1.85 -1.55 1.75 -1.45 1.7 -1.35 1.7 -1.25 1.7 L-1.2 1.75 -1.1 1.75 -1.1 1.8 -1.25 1.75 -1.4 1.75 -1.5 1.8 -1.6 1.9 -1.9 1.95 -2.2 2.05" fill="#85adc8" fill-rule="evenodd" stroke="none"/>
    <path d="M-2.2 2.0 L-2.2 1.95 -1.85 1.9 -1.6 1.75 -1.5 1.7 -1.4 1.65 -1.3 1.65 -1.25 1.65 -1.1 1.65 -1.1 1.75 -1.2 1.75 -1.25 1.7 Q-1.35 1.7 -1.45 1.7 -1.55 1.75 -1.6 1.85 -1.85 1.95 -2.2 2.0" fill="#99b7ce" fill-rule="evenodd" stroke="none"/>
    <path d="M-2.2 2.15 L-2.2 2.1 -2.15 2.1 -2.05 2.05 Q-1.85 1.95 -1.55 1.95 L-1.55 1.9 -1.5 1.85 Q-1.45 1.8 -1.4 1.8 L-1.3 1.75 -1.25 1.8 -1.15 1.8 -1.1 1.8 -1.1 1.8 -1.05 1.8 -1.1 1.85 -1.2 1.85 -1.35 1.8 -1.4 1.85 -1.5 1.95 Q-1.55 2.05 -1.65 2.05 L-1.8 2.0 -1.9 2.0 Q-1.95 2.0 -2.05 2.1 L-2.2 2.15" fill="#6397b8" fill-rule="evenodd" stroke="none"/>
    <path d="M-1.1 1.8 L-1.1 1.8 -1.1 1.8 -1.1 1.75 -1.1 1.65 -1.05 1.75 -1.05 1.8 -1.05 1.8 -1.1 1.8 M-1.05 1.8 L-1.05 1.8" fill="#a09f9c" fill-rule="evenodd" stroke="none"/>
    <path d="M-1.55 2.2 L-1.6 2.2 Q-1.6 2.1 -1.5 2.05 L-1.4 1.95 -1.35 1.9 -1.3 1.85 -1.25 1.85 -1.2 1.85 -1.1 1.9 -1.1 1.85 -1.05 1.8 -1.05 1.8 -1.05 1.85 -1.0 1.9 -1.0 2.0 -1.1 2.05 -1.15 2.05 -1.2 2.1 Q-1.25 2.1 -1.3 2.05 L-1.4 2.05 -1.5 2.1 -1.55 2.2" fill="#4f819f" fill-rule="evenodd" stroke="none"/>
    <path d="M-1.05 1.8 L-1.05 1.8 -0.85 1.85 Q-0.8 1.85 -0.8 1.85 L-0.9 1.85 -1.05 1.85 -1.05 1.8 M-0.8 1.85 L-0.8 1.85" fill="#8e7f68" fill-rule="evenodd" stroke="none"/>
    <path d="M-1.05 1.75 L-1.05 1.65 -1.0 1.55 -0.95 1.55 -0.95 1.55 -1.0 1.6 -1.0 1.7 Q-1.0 1.75 -0.95 1.8 L-0.85 1.8 -0.85 1.85 -1.05 1.8 -1.05 1.75 M-0.85 1.85 L-0.85 1.85" fill="#d5aa72" fill-rule="evenodd" stroke="none"/>
    <path d="M-1.6 2.2 L-1.85 2.2 -1.8 2.15 -1.8 2.1 -1.85 2.05 -1.9 2.05 Q-1.95 2.05 -2.0 2.1 L-2.1 2.2 -2.2 2.2 -2.2 2.15 -2.05 2.1 Q-1.95 2.0 -1.9 2.0 L-1.8 2.0 -1.65 2.05 Q-1.55 2.05 -1.5 1.95 L-1.4 1.85 -1.35 1.8 -1.2 1.85 -1.1 1.85 -1.1 1.9 -1.2 1.85 -1.25 1.85 -1.3 1.85 -1.35 1.9 -1.4 1.95 -1.5 2.05 Q-1.6 2.1 -1.6 2.2" fill="#538eb0" fill-rule="evenodd" stroke="none"/>
    <path d="M-2.2 1.5 L-2.2 1.4 -2.05 1.5 Q-2.0 1.6 -2.05 1.65 L-2.05 1.8 Q-2.05 1.85 -1.95 1.8 L-1.65 1.65 Q-1.5 1.5 -1.35 1.5 L-1.15 1.4 Q-0.95 1.35 -0.9 1.25 L-0.95 1.35 -1.0 1.4 -1.4 1.55 Q-1.5 1.55 -1.7 1.7 L-2.0 1.9 -2.1 1.9 -2.15 1.8 -2.15 1.75 -2.1 1.65 Q-2.1 1.55 -2.2 1.5 M-1.0 1.4 L-1.0 1.4" fill="#d1e2f2" fill-rule="evenodd" stroke="none"/>
    <path d="M-1.85 2.2 L-2.1 2.2 -2.0 2.1 Q-1.95 2.05 -1.9 2.05 L-1.85 2.05 -1.8 2.1 -1.8 2.15 -1.85 2.2" fill="#4484a4" fill-rule="evenodd" stroke="none"/>
    <path d="M-1.1 2.2 L-1.55 2.2 -1.5 2.1 -1.4 2.05 -1.3 2.05 Q-1.25 2.1 -1.2 2.1 L-1.15 2.05 -1.1 2.05 -1.1 2.2" fill="#3d7595" fill-rule="evenodd" stroke="none"/>
    <path d="M-1.0 2.2 L-1.1 2.2 -1.1 2.05 -1.0 2.0 -1.0 1.9 -1.05 1.85 -0.9 1.85 -0.85 1.95 -0.8 2.0 -0.9 2.0 -1.0 2.0 -1.0 2.2" fill="#506e7e" fill-rule="evenodd" stroke="none"/>
    <path d="M-0.1 1.4 L-0.1 1.7 -0.15 1.75 -0.25 1.75 Q-0.25 1.7 -0.3 1.7 -0.4 1.7 -0.4 1.75 L-0.5 1.8 -0.6 1.8 -0.65 1.8 -0.7 1.75 -0.8 1.75 Q-0.75 1.8 -0.75 1.8 L-0.8 1.85 Q-0.8 1.85 -0.85 1.85 L-0.8 1.8 -0.8 1.75 -0.85 1.7 -0.85 1.65 -0.7 1.7 -0.6 1.8 -0.5 1.8 -0.45 1.75 -0.4 1.7 -0.35 1.7 -0.3 1.65 -0.3 1.6 -0.35 1.6 -0.4 1.65 -0.65 1.6 -0.7 1.55 -0.7 1.5 Q-0.7 1.5 -0.75 1.5 L-0.75 1.5 -0.7 1.45 -0.7 1.4 -0.65 1.35 -0.6 1.35 -0.6 1.4 -0.6 1.45 -0.55 1.45 -0.55 1.45 -0.55 1.5 -0.6 1.45 Q-0.65 1.5 -0.6 1.55 L-0.5 1.55 -0.5 1.5 -0.5 1.5 -0.45 1.45 -0.45 1.5 -0.4 1.55 Q-0.35 1.55 -0.3 1.6 L-0.2 1.65 Q-0.15 1.65 -0.15 1.55 L-0.1 1.5 -0.1 1.4 M-0.85 1.5 L-0.85 1.55 -0.8 1.55 -0.75 1.5 Q-0.75 1.55 -0.8 1.55 L-0.85 1.6 -0.9 1.55 -0.9 1.55 -0.95 1.55 Q-0.9 1.45 -0.85 1.5 M-0.85 1.85 L-0.85 1.85" fill="#c87448" fill-rule="evenodd" stroke="none"/>
    <path d="M-0.75 1.5 L-0.75 1.5 Q-0.7 1.5 -0.7 1.5 L-0.7 1.55 -0.65 1.6 -0.4 1.65 -0.35 1.6 -0.3 1.6 -0.3 1.65 -0.35 1.7 -0.4 1.7 -0.45 1.75 -0.5 1.8 -0.6 1.8 -0.7 1.7 -0.85 1.65 -0.85 1.7 -0.8 1.75 -0.8 1.8 -0.85 1.85 -0.85 1.8 -0.85 1.75 -0.9 1.7 -0.9 1.6 Q-0.95 1.55 -1.0 1.6 L-0.95 1.55 -0.95 1.55 -0.95 1.55 -0.9 1.55 -0.9 1.55 -0.85 1.6 -0.8 1.55 Q-0.75 1.55 -0.75 1.5" fill="#f5a45a" fill-rule="evenodd" stroke="none"/>
    <path d="M-0.8 1.85 L-0.8 1.85 -0.75 1.8 Q-0.75 1.8 -0.8 1.75 L-0.7 1.75 -0.65 1.8 -0.6 1.8 -0.5 1.8 -0.4 1.75 Q-0.4 1.7 -0.3 1.7 -0.25 1.7 -0.25 1.75 L-0.3 1.8 -0.35 1.8 Q-0.45 1.85 -0.45 1.9 L-0.3 1.95 Q-0.2 2.0 -0.15 2.05 L-0.2 2.1 -0.35 2.05 -0.5 2.05 -0.4 2.05 -0.3 2.05 Q-0.3 2.0 -0.4 1.95 L-0.45 1.9 -0.45 1.9 -0.45 1.8 -0.5 1.8 -0.6 1.8 -0.7 1.8 -0.75 1.85 -0.8 1.85" fill="#a05238" fill-rule="evenodd" stroke="none"/>
    <path d="M-0.8 1.85 L-0.75 1.85 -0.7 1.8 -0.6 1.8 -0.5 1.8 -0.45 1.8 -0.45 1.9 -0.45 1.9 -0.4 1.95 Q-0.3 2.0 -0.3 2.05 L-0.4 2.05 -0.5 2.05 -0.55 2.05 -0.6 2.0 -0.6 1.95 -0.65 1.9 -0.7 1.9 -0.7 1.95 -0.75 2.0 -0.75 2.0 -0.75 1.9 -0.8 1.85 M-0.6 1.9 L-0.6 1.95 -0.4 2.05 Q-0.35 2.0 -0.4 2.0 L-0.45 1.95 -0.5 1.9 -0.5 1.85 -0.6 1.85 Q-0.65 1.85 -0.6 1.9" fill="#6b4030" fill-rule="evenodd" stroke="none"/>
    <path d="M-0.5 2.05 L-0.35 2.05 -0.2 2.1 -0.15 2.05 Q-0.2 2.0 -0.3 1.95 L-0.45 1.9 Q-0.45 1.85 -0.35 1.8 L-0.3 1.8 -0.25 1.75 -0.3 1.8 -0.4 1.85 -0.4 1.9 -0.35 1.9 -0.2 1.95 -0.1 2.05 -0.1 2.05 -0.15 2.1 -0.35 2.1 -0.6 2.05 -0.55 2.05 -0.5 2.05" fill="#cc7443" fill-rule="evenodd" stroke="none"/>
    <path d="M-0.55 1.5 L-0.5 1.5 -0.5 1.55 -0.6 1.55 Q-0.65 1.5 -0.6 1.45 L-0.55 1.5" fill="#eeaf62" fill-rule="evenodd" stroke="none"/>
    <path d="M-0.8 1.35 L-0.8 1.45 -0.85 1.5 Q-0.9 1.45 -0.95 1.55 L-1.0 1.55 -1.0 1.45 -0.95 1.4 -0.9 1.45 -0.85 1.45 -0.85 1.4 -0.8 1.35 M-0.95 1.55 L-0.95 1.55 -0.95 1.55" fill="#b08365" fill-rule="evenodd" stroke="none"/>
    <path d="M-1.0 1.6 Q-0.95 1.55 -0.9 1.6 L-0.9 1.7 -0.85 1.75 -0.85 1.8 -0.95 1.8 Q-1.0 1.75 -1.0 1.7 L-1.0 1.6" fill="#faca6f" fill-rule="evenodd" stroke="none"/>
    <path d="M-0.6 1.9 Q-0.65 1.85 -0.6 1.85 L-0.5 1.85 -0.5 1.9 -0.45 1.95 -0.4 2.0 Q-0.35 2.0 -0.4 2.05 L-0.6 1.95 -0.6 1.9" fill="#442d26" fill-rule="evenodd" stroke="none"/>
    <path d="M-0.75 2.0 L-0.7 1.95 -0.7 1.9 -0.65 1.9 -0.6 1.95 -0.6 2.0 -0.55 2.05 -0.6 2.05 Q-0.6 2.0 -0.7 2.0 L-0.75 2.0 -0.8 2.0 -0.75 2.0" fill="#a55b3b" fill-rule="evenodd" stroke="none"/>
    <path d="M-0.7 2.2 L-0.75 2.2 Q-0.75 2.1 -0.85 2.1 L-0.9 2.1 -0.95 2.1 Q-1.0 2.05 -0.9 2.05 L-0.8 2.0 -0.75 2.0 -0.7 2.0 Q-0.6 2.0 -0.6 2.05 L-0.65 2.05 -0.7 2.05 -0.75 2.1 -0.7 2.2" fill="#bf8151" fill-rule="evenodd" stroke="none"/>
    <path d="M0.0 2.2 L-0.4 2.2 -0.5 2.1 -0.55 2.1 -0.6 2.05 Q-0.65 2.05 -0.7 2.1 L-0.7 2.2 -0.7 2.2 -0.75 2.1 -0.7 2.05 -0.65 2.05 -0.6 2.05 -0.35 2.1 -0.15 2.1 -0.1 2.05 -0.1 2.05 -0.2 1.95 -0.35 1.9 -0.4 1.9 -0.4 1.85 -0.35 1.9 -0.25 1.9 -0.25 1.9 -0.2 1.9 -0.15 1.95 -0.1 2.0 -0.1 1.95 -0.15 1.9 Q-0.15 1.85 -0.1 1.85 L-0.1 1.9 -0.05 1.95 0.0 2.0 0.0 2.05 -0.05 2.1 0.0 2.2" fill="#ee9a4f" fill-rule="evenodd" stroke="none"/>
    <path d="M-0.4 2.2 L-0.7 2.2 -0.7 2.1 Q-0.65 2.05 -0.6 2.05 L-0.55 2.1 -0.5 2.1 -0.4 2.2" fill="#fac867" fill-rule="evenodd" stroke="none"/>
    <path d="M-0.9 1.85 L-0.8 1.85 -0.75 1.9 -0.75 2.0 -0.8 2.0 -0.8 2.0 -0.85 1.95 -0.9 1.85" fill="#474e52" fill-rule="evenodd" stroke="none"/>
    <path d="M-1.0 2.2 L-1.0 2.2 -1.0 2.0 -0.9 2.0 -0.8 2.0 -0.8 2.0 -0.75 2.0 -0.75 2.0 -0.8 2.0 -0.9 2.05 Q-1.0 2.05 -0.95 2.1 L-1.0 2.2" fill="#877b6c" fill-rule="evenodd" stroke="none"/>
    <path d="M-0.75 2.2 L-1.0 2.2 -0.95 2.1 -0.9 2.1 -0.85 2.1 Q-0.75 2.1 -0.75 2.2" fill="#966845" fill-rule="evenodd" stroke="none"/>
  </g>
</svg>
