<?xml version="1.0" encoding="UTF-8" standalone="no"?>
<svg xmlns:xlink="http://www.w3.org/1999/xlink" height="3.85px" width="4.2px" xmlns="http://www.w3.org/2000/svg">
  <g transform="matrix(1.0, 0.0, 0.0, 1.0, 2.2, 1.85)">
    <path d="M1.4 -1.75 L1.4 -1.75 1.4 -1.7 1.35 -1.75 1.35 -1.75 1.4 -1.75 M1.4 -1.7 L1.4 -1.65 1.5 -1.65 1.5 -1.7 1.55 -1.7 1.5 -1.75 1.55 -1.75 1.55 -1.75 1.6 -1.7 1.6 -1.65 Q1.6 -1.65 1.6 -1.6 L1.65 -1.6 1.75 -1.6 1.75 -1.6 1.75 -1.65 1.7 -1.75 1.75 -1.75 1.9 -1.65 1.8 -1.6 1.8 -1.5 1.8 -1.5 1.75 -1.45 1.75 -1.5 1.65 -1.5 1.65 -1.6 1.6 -1.6 1.6 -1.5 1.45 -1.55 1.4 -1.55 1.4 -1.55 1.3 -1.55 1.25 -1.6 1.25 -1.6 Q1.25 -1.6 1.3 -1.6 L1.35 -1.6 1.4 -1.65 1.35 -1.7 1.25 -1.65 1.25 -1.65 1.2 -1.65 1.2 -1.6 Q1.15 -1.55 1.2 -1.55 L1.25 -1.5 1.25 -1.5 1.2 -1.45 1.2 -1.4 1.15 -1.4 1.1 -1.4 Q1.15 -1.4 1.2 -1.45 L1.2 -1.5 1.15 -1.55 1.15 -1.6 1.2 -1.6 1.15 -1.65 1.25 -1.75 1.25 -1.7 1.35 -1.7 1.4 -1.65 1.4 -1.7 M1.15 -1.25 L1.15 -1.2 Q1.15 -1.15 1.1 -1.2 L1.05 -1.25 1.05 -1.25 1.0 -1.25 0.95 -1.3 0.95 -1.35 0.9 -1.35 0.9 -1.4 0.95 -1.4 0.95 -1.35 1.0 -1.4 1.0 -1.3 1.05 -1.3 1.05 -1.35 1.0 -1.4 1.0 -1.4 1.05 -1.4 1.0 -1.45 1.0 -1.5 1.0 -1.5 1.05 -1.5 1.05 -1.45 1.05 -1.4 1.1 -1.35 1.1 -1.35 1.15 -1.25 1.15 -1.25 M1.75 -1.3 L1.75 -1.2 1.7 -1.25 1.75 -1.3 M1.95 -1.55 L1.95 -1.5 1.85 -1.5 1.9 -1.5 1.95 -1.55 1.95 -1.55 M1.95 -1.35 L1.9 -1.15 1.85 -1.15 Q1.8 -1.2 1.8 -1.2 L1.9 -1.25 1.8 -1.35 1.75 -1.4 1.8 -1.45 1.85 -1.45 1.85 -1.4 1.95 -1.35 1.95 -1.35 M1.5 -1.2 L1.55 -1.2 1.65 -1.1 1.6 -1.1 Q1.55 -1.1 1.55 -1.1 L1.5 -1.2 M1.85 -1.5 L1.85 -1.5" fill="#877f72" fill-rule="evenodd" stroke="none"/>
    <path d="M1.05 -1.25 L-0.25 0.0 -0.25 0.0 -0.35 0.1 -0.4 0.15 -0.45 0.2 -0.5 0.25 -0.55 0.25 -0.55 0.2 -0.6 0.3 -0.6 0.35 -0.65 0.35 -0.65 0.35 -0.8 0.45 -0.65 0.3 -0.6 0.2 -0.55 0.2 -0.55 0.15 0.95 -1.35 0.95 -1.3 0.8 -1.15 0.55 -0.9 -0.25 -0.15 -0.25 -0.1 Q-0.2 -0.1 -0.15 -0.1 L-0.15 -0.15 -0.1 -0.15 0.65 -0.9 0.8 -1.05 1.0 -1.25 1.05 -1.25" fill="#663820" fill-rule="evenodd" stroke="none"/>
    <path d="M1.05 -1.25 L-2.2 2.0 -2.2 1.7 0.9 -1.35 0.95 -1.35 -0.55 0.15 -0.55 0.2 -0.6 0.2 -0.65 0.3 -0.8 0.45 -0.65 0.35 -0.65 0.35 -0.6 0.35 -0.6 0.3 -0.55 0.2 -0.55 0.25 -0.5 0.25 -0.45 0.2 -0.4 0.15 -0.35 0.1 -0.25 0.0 -0.25 0.0 1.05 -1.25 1.05 -1.25" fill="#54261d" fill-rule="evenodd" stroke="none"/>
    <path d="M1.0 -1.25 L0.8 -1.05 0.8 -1.1 0.8 -1.15 0.95 -1.3 1.0 -1.25 M0.65 -0.9 L-0.1 -0.15 -0.15 -0.15 -0.15 -0.1 Q-0.2 -0.1 -0.25 -0.1 L-0.25 -0.15 0.55 -0.9 0.6 -0.9 0.6 -0.9 0.65 -0.9" fill="#7b5026" fill-rule="evenodd" stroke="none"/>
    <path d="M1.4 -1.7 L1.4 -1.75 1.4 -1.75 1.55 -1.8 1.55 -1.8 1.65 -1.8 1.7 -1.75 1.75 -1.65 1.75 -1.6 1.75 -1.6 1.65 -1.6 1.6 -1.6 Q1.6 -1.65 1.6 -1.65 L1.6 -1.7 1.55 -1.75 1.55 -1.75 1.5 -1.75 1.55 -1.7 1.5 -1.7 1.5 -1.65 1.4 -1.65 1.4 -1.7 M1.15 -1.65 L1.2 -1.6 1.15 -1.6 1.15 -1.55 1.2 -1.5 1.2 -1.45 Q1.15 -1.4 1.1 -1.4 L1.1 -1.4 1.05 -1.45 1.05 -1.5 1.0 -1.5 1.0 -1.5 1.0 -1.45 1.05 -1.4 1.0 -1.4 1.0 -1.4 1.05 -1.35 1.05 -1.3 1.0 -1.3 1.0 -1.4 0.95 -1.35 0.95 -1.4 0.9 -1.4 0.9 -1.45 1.0 -1.5 1.05 -1.55 1.15 -1.65 M1.25 -1.65 L1.25 -1.65 1.35 -1.7 1.4 -1.65 1.35 -1.6 1.3 -1.6 Q1.25 -1.6 1.25 -1.6 L1.2 -1.6 1.25 -1.65 M1.8 -1.5 L1.8 -1.6 1.9 -1.65 1.95 -1.55 1.95 -1.55 1.9 -1.5 1.85 -1.5 1.85 -1.55 1.8 -1.5 M1.95 -1.5 L1.95 -1.35 1.95 -1.35 1.85 -1.4 1.85 -1.45 1.85 -1.5 1.95 -1.5 M1.55 -1.2 L1.55 -1.2 Q1.6 -1.25 1.6 -1.2 L1.65 -1.15 1.65 -1.1 1.55 -1.2" fill="#ded1bb" fill-rule="evenodd" stroke="none"/>
    <path d="M1.35 -1.75 L1.35 -1.75 1.4 -1.7 1.4 -1.65 1.35 -1.7 1.25 -1.7 1.25 -1.75 1.3 -1.75 1.35 -1.75 M1.1 -1.4 L1.15 -1.4 1.2 -1.4 1.2 -1.45 1.25 -1.5 1.25 -1.5 1.2 -1.55 Q1.15 -1.55 1.2 -1.6 L1.2 -1.65 1.25 -1.65 1.2 -1.6 1.25 -1.6 1.25 -1.6 1.3 -1.55 1.4 -1.55 Q1.35 -1.55 1.25 -1.5 L1.2 -1.45 1.2 -1.3 1.15 -1.25 1.15 -1.25 1.1 -1.35 1.1 -1.35 1.05 -1.4 1.05 -1.45 1.1 -1.4 1.1 -1.4 M1.6 -1.5 L1.6 -1.6 1.65 -1.6 1.65 -1.5 1.75 -1.5 1.75 -1.45 1.8 -1.5 1.8 -1.5 1.85 -1.55 1.85 -1.5 1.85 -1.5 1.85 -1.45 1.8 -1.45 1.75 -1.4 1.8 -1.35 1.9 -1.25 1.8 -1.2 Q1.8 -1.2 1.85 -1.15 L1.9 -1.15 1.8 -1.1 Q1.75 -1.05 1.7 -1.0 L1.5 -1.05 1.5 -1.1 Q1.5 -1.15 1.5 -1.2 L1.55 -1.1 Q1.55 -1.1 1.6 -1.1 L1.65 -1.1 1.65 -1.15 1.7 -1.3 1.7 -1.35 1.65 -1.45 1.6 -1.5 M1.75 -1.3 L1.7 -1.25 1.75 -1.2 1.75 -1.3" fill="#6b655a" fill-rule="evenodd" stroke="none"/>
    <path d="M0.8 -1.05 L0.65 -0.9 0.6 -0.9 0.6 -0.9 0.55 -0.9 0.8 -1.15 0.8 -1.1 0.8 -1.05" fill="#9c6530" fill-rule="evenodd" stroke="none"/>
    <path d="M1.4 -1.75 L1.35 -1.75 1.3 -1.75 1.25 -1.75 1.15 -1.65 1.05 -1.55 1.0 -1.5 0.9 -1.45 0.9 -1.4 0.9 -1.35 -2.2 1.7 M1.7 -1.75 L1.65 -1.8 1.55 -1.8 1.55 -1.8 1.4 -1.75 M1.4 -1.55 L1.4 -1.55 1.45 -1.55 1.6 -1.5 1.65 -1.45 1.7 -1.35 1.7 -1.3 1.65 -1.15 1.6 -1.2 Q1.6 -1.25 1.55 -1.2 L1.55 -1.2 1.5 -1.2 Q1.5 -1.15 1.5 -1.1 L1.5 -1.05 1.7 -1.0 Q1.75 -1.05 1.8 -1.1 L1.9 -1.15 1.95 -1.35 1.95 -1.5 1.95 -1.55 1.9 -1.65 1.75 -1.75 1.7 -1.75 M1.4 -1.55 Q1.35 -1.55 1.25 -1.5 L1.2 -1.45 1.2 -1.3 1.15 -1.25 1.15 -1.2 Q1.15 -1.15 1.1 -1.2 L1.05 -1.25 -2.2 2.0" fill="none" stroke="#000000" stroke-linecap="round" stroke-linejoin="round" stroke-opacity="0.4509804" stroke-width="1.0"/>
  </g>
</svg>
