<?xml version="1.0" encoding="UTF-8" standalone="no"?>
<svg xmlns:xlink="http://www.w3.org/1999/xlink" height="4.4px" width="4.25px" xmlns="http://www.w3.org/2000/svg">
  <g transform="matrix(1.0, 0.0, 0.0, 1.0, 2.2, 2.2)">
    <path d="M1.65 -1.6 L1.6 -1.6 1.6 -1.55 1.5 -1.5 1.4 -1.4 1.3 -1.3 1.3 -1.25 1.3 -1.3 1.4 -1.4 1.4 -1.45 1.4 -1.4 1.4 -1.4 1.45 -1.45 1.45 -1.45 1.45 -1.5 1.5 -1.5 1.5 -1.55 1.55 -1.55 1.55 -1.65 1.55 -1.6 1.55 -1.6 1.6 -1.6 1.6 -1.6 1.6 -1.6 1.65 -1.6 M1.05 -1.05 L0.05 0.0 -0.1 0.1 -2.1 2.1 -2.15 2.15 -2.15 2.15 -2.2 2.15 -2.15 2.1 -2.15 2.1 -2.1 2.05 -2.1 2.05 -2.05 2.0 -2.0 1.95 -2.0 1.95 -1.9 1.85 -1.9 1.85 -1.9 1.8 -1.85 1.8 -1.85 1.8 -1.8 1.75 -1.7 1.65 -1.7 1.65 -1.65 1.6 -1.6 1.55 -1.6 1.5 -1.55 1.5 -1.5 1.45 -1.45 1.35 -1.4 1.35 -1.4 1.35 -1.3 1.25 -1.25 1.2 -1.25 1.2 -1.2 1.15 -1.2 1.15 -1.15 1.1 -1.15 1.1 -1.1 1.05 -1.05 1.0 -1.0 0.95 -1.0 0.95 -0.95 0.9 -0.9 0.85 -0.9 0.8 -0.9 0.8 -0.85 0.8 -0.85 0.8 -0.8 0.75 -0.8 0.7 -0.75 0.7 -0.7 0.65 -0.65 0.6 -0.6 0.55 -0.55 0.5 -0.45 0.4 -0.4 0.35 -0.35 0.3 -0.35 0.3 -0.3 0.25 -0.25 0.2 -0.25 0.15 -0.2 0.15 -0.25 0.15 -0.3 0.15 -0.35 0.25 -0.4 0.25 -0.6 0.45 -0.6 0.45 -0.65 0.5 -0.65 0.55 -0.7 0.6 -0.85 0.7 -0.85 0.75 -0.9 0.75 -0.9 0.8 -0.95 0.85 -0.95 0.85 -0.95 0.85 -1.0 0.85 -1.05 0.95 -1.05 0.95 -1.1 1.0 -1.15 1.05 -1.2 1.1 -1.2 1.1 -1.3 1.15 -1.3 1.2 -1.35 1.25 -1.4 1.3 -1.4 1.3 -1.45 1.3 -1.45 1.35 -1.5 1.35 -1.55 1.4 -1.55 1.45 -1.6 1.5 -1.6 1.5 -1.65 1.55 -1.8 1.65 -1.85 1.75 -1.85 1.75 -1.9 1.8 -1.9 1.8 -1.95 1.8 -1.95 1.85 -2.0 1.9 -2.1 1.95 -2.15 2.05 -2.2 2.05 -2.2 2.05 -2.15 2.0 -2.15 1.95 -2.15 1.95 -0.2 0.0 -0.05 -0.1 0.95 -1.15 1.0 -1.15 1.0 -1.1 1.05 -1.05 1.05 -1.05 M1.45 -1.5 L1.5 -1.5 1.45 -1.5 M0.35 -0.4 L0.4 -0.5 0.45 -0.5 0.45 -0.5 0.5 -0.55 0.5 -0.55 0.6 -0.65 0.6 -0.65 0.65 -0.7 0.65 -0.75 0.7 -0.75 0.7 -0.8 0.75 -0.8 0.75 -0.85 0.8 -0.85 0.8 -0.85 0.85 -0.9 0.85 -0.9 0.9 -0.95 0.95 -1.0 0.95 -1.05 1.0 -1.05 1.0 -1.1 0.95 -1.05 0.9 -1.05 0.9 -1.05 0.85 -1.05 0.85 -1.0 0.8 -0.95 0.8 -0.95 0.7 -0.85 0.7 -0.85 0.65 -0.8 0.65 -0.8 0.55 -0.7 0.55 -0.7 0.45 -0.6 0.45 -0.55 0.4 -0.55 0.4 -0.55 0.35 -0.5 0.3 -0.45 0.15 -0.3 0.05 -0.2 0.05 -0.2 0.0 -0.15 0.0 -0.15 -0.05 -0.1 -0.05 -0.1 0.0 -0.05 0.05 -0.05 0.0 -0.05 0.05 -0.1 0.05 -0.1 0.1 -0.15 0.1 -0.2 0.15 -0.2 0.15 -0.25 0.2 -0.25 0.3 -0.35 0.3 -0.4 0.35 -0.4 0.35 -0.4 M0.4 -0.55 L0.4 -0.55 M-0.05 -0.05 L-0.05 -0.05 0.0 -0.05 -0.05 -0.1 -0.05 -0.05 -0.05 -0.05 -0.05 0.0 -0.05 -0.05" fill="#1c1c1c" fill-rule="evenodd" stroke="none"/>
    <path d="M1.5 -1.65 L1.5 -1.7 1.5 -1.65 1.5 -1.65 M1.55 -1.6 L1.6 -1.6 1.6 -1.6 1.55 -1.6 1.55 -1.6" fill="#43423e" fill-rule="evenodd" stroke="none"/>
    <path d="M1.1 -1.25 L1.1 -1.25 1.15 -1.25 1.15 -1.3 1.15 -1.35 1.15 -1.25 1.15 -1.25 1.1 -1.25" fill="#f6f3ee" fill-rule="evenodd" stroke="none"/>
    <path d="M1.2 -1.2 L1.15 -1.15 1.05 -1.05 1.05 -1.1 1.1 -1.1 1.1 -1.15 1.15 -1.15 1.1 -1.15 1.1 -1.15 1.05 -1.15 1.05 -1.15 1.0 -1.15 1.05 -1.15 1.05 -1.2 1.1 -1.2 1.1 -1.2 1.15 -1.2 1.2 -1.2 1.2 -1.2 M1.05 -1.05 L1.05 -1.05" fill="#1f1b18" fill-rule="evenodd" stroke="none"/>
    <path d="M0.0 -0.1 L0.05 -0.1 0.0 -0.05 0.05 -0.05 0.0 -0.05 -0.05 -0.1 -0.05 -0.1 0.0 -0.1 0.0 -0.15 0.0 -0.1 M-0.05 -0.05 L-0.05 -0.1 0.0 -0.05 -0.05 -0.05 -0.05 -0.05" fill="#f4efec" fill-rule="evenodd" stroke="none"/>
    <path d="M-1.4 1.3 L-1.4 1.3 -1.4 1.3 -1.4 1.3" fill="#e6e2e1" fill-rule="evenodd" stroke="none"/>
    <path d="M0.4 -0.55 L0.45 -0.55 0.45 -0.5 0.4 -0.5 0.4 -0.55 0.4 -0.55" fill="#9a928f" fill-rule="evenodd" stroke="none"/>
    <path d="M2.05 -2.15 L2.05 -2.1 2.05 -2.15" fill="#5c4143" fill-rule="evenodd" stroke="none"/>
    <path d="M2.0 -2.15 L2.05 -2.15 2.05 -2.1 2.05 -2.05 2.05 -2.05 2.0 -2.05 Q2.0 -2.0 1.95 -2.0 L1.9 -1.95 1.9 -1.95 1.85 -1.9 1.85 -1.9 1.85 -1.8 1.9 -1.85 1.9 -1.8 1.9 -1.75 1.9 -1.65 1.9 -1.65 1.85 -1.7 1.85 -1.7 1.85 -1.75 1.8 -1.7 1.8 -1.7 1.85 -1.75 1.85 -1.8 1.8 -1.95 1.8 -2.0 1.8 -2.0 1.85 -2.0 1.85 -2.0 1.9 -2.0 1.9 -2.0 1.9 -2.05 1.95 -2.1 1.95 -2.1 2.0 -2.1 2.0 -2.15 2.0 -2.1 2.0 -2.15 M1.9 -2.05 L1.9 -2.05 M1.9 -1.8 L1.9 -1.8" fill="#392223" fill-rule="evenodd" stroke="none"/>
    <path d="M2.05 -2.05 L2.0 -2.05 2.0 -2.0 1.95 -2.0 1.95 -1.65 1.85 -1.6 1.75 -1.6 1.8 -1.65 1.8 -1.65 1.85 -1.65 1.9 -1.65 1.9 -1.65 1.9 -1.75 1.9 -1.8 1.9 -1.8 1.9 -1.8 1.95 -1.8 1.95 -1.8 1.95 -1.85 1.9 -1.9 1.9 -1.95 1.9 -1.95 1.95 -2.0 Q2.0 -2.0 2.0 -2.05 L2.05 -2.05 2.05 -2.05" fill="#33312f" fill-rule="evenodd" stroke="none"/>
    <path d="M1.85 -1.9 L1.9 -1.9 1.85 -1.9 1.9 -1.95 1.9 -1.9 1.95 -1.85 1.95 -1.8 1.95 -1.8 1.9 -1.8 1.9 -1.8 1.9 -1.85 1.85 -1.9" fill="#423f3f" fill-rule="evenodd" stroke="none"/>
    <path d="M1.85 -1.9 L1.9 -1.9 1.85 -1.9 1.85 -1.9" fill="#857f7d" fill-rule="evenodd" stroke="none"/>
    <path d="M1.85 -1.9 L1.9 -1.85 1.85 -1.8 1.85 -1.9" fill="#837676" fill-rule="evenodd" stroke="none"/>
    <path d="M1.85 -1.7 L1.8 -1.7 1.85 -1.75 1.85 -1.7 1.85 -1.7" fill="#96706f" fill-rule="evenodd" stroke="none"/>
    <path d="M1.8 -1.65 L1.85 -1.7 1.9 -1.65 1.85 -1.65 1.8 -1.65 1.85 -1.65 1.8 -1.65" fill="#875f5f" fill-rule="evenodd" stroke="none"/>
    <path d="M1.8 -1.65 L1.8 -1.65 1.8 -1.65 1.85 -1.65 1.8 -1.65" fill="#e5bcba" fill-rule="evenodd" stroke="none"/>
    <path d="M1.5 -1.5 L1.5 -1.5 1.45 -1.5 1.5 -1.55 1.5 -1.55 1.55 -1.6 1.55 -1.6 1.5 -1.6 1.45 -1.55 1.45 -1.5 1.45 -1.5 1.4 -1.55 1.4 -1.6 1.45 -1.6 1.4 -1.6 1.45 -1.6 1.45 -1.65 1.5 -1.65 1.5 -1.65 1.55 -1.65 1.55 -1.65 1.55 -1.55 1.5 -1.55 1.5 -1.5 1.45 -1.5 1.45 -1.45 1.45 -1.45 1.4 -1.4 1.4 -1.4 1.4 -1.45 1.4 -1.4 1.3 -1.3 1.3 -1.25 1.25 -1.25 1.2 -1.2 1.2 -1.25 1.2 -1.3 1.2 -1.35 1.2 -1.35 1.2 -1.4 1.25 -1.4 1.3 -1.45 1.35 -1.45 1.3 -1.45 1.3 -1.45 1.35 -1.5 1.35 -1.5 1.4 -1.55 1.4 -1.6 1.4 -1.5 1.35 -1.5 1.35 -1.5 1.4 -1.45 1.4 -1.45 1.45 -1.45 1.45 -1.5 1.5 -1.5 M-2.2 2.15 L-2.2 2.05 -2.15 2.05 -2.1 1.95 -2.0 1.9 -1.95 1.85 -1.95 1.8 -1.9 1.8 -1.9 1.8 -1.85 1.75 -1.85 1.75 -1.8 1.65 -1.65 1.55 -1.6 1.5 -1.6 1.5 -1.55 1.45 -1.55 1.4 -1.5 1.35 -1.45 1.35 -1.45 1.3 -1.4 1.3 -1.4 1.3 -1.35 1.25 -1.3 1.2 -1.3 1.15 -1.2 1.1 -1.2 1.1 -1.15 1.05 -1.1 1.0 -1.05 0.95 -1.05 0.95 -1.0 0.85 -0.95 0.85 -0.95 0.85 -0.95 0.85 -0.9 0.8 -0.9 0.75 -0.85 0.75 -0.85 0.7 -0.7 0.6 -0.65 0.55 -0.65 0.5 -0.6 0.45 -0.6 0.45 -0.4 0.25 -0.35 0.25 -0.3 0.15 -0.25 0.15 -0.2 0.15 -0.25 0.15 -0.25 0.2 -0.3 0.25 -0.35 0.3 -0.35 0.3 -0.4 0.35 -0.45 0.4 -0.55 0.5 -0.6 0.55 -0.65 0.6 -0.7 0.65 -0.75 0.7 -0.8 0.7 -0.8 0.75 -0.85 0.8 -0.85 0.8 -0.9 0.8 -0.9 0.8 -0.9 0.85 -0.95 0.9 -1.0 0.95 -1.0 0.95 -1.05 1.0 -1.1 1.05 -1.15 1.1 -1.15 1.1 -1.2 1.15 -1.2 1.15 -1.25 1.2 -1.25 1.2 -1.3 1.25 -1.4 1.35 -1.4 1.35 -1.45 1.35 -1.5 1.45 -1.55 1.5 -1.6 1.5 -1.6 1.55 -1.65 1.6 -1.7 1.65 -1.7 1.65 -1.8 1.75 -1.85 1.8 -1.85 1.8 -1.9 1.8 -1.9 1.85 -1.9 1.85 -2.0 1.95 -2.0 1.95 -2.05 2.0 -2.1 2.05 -2.1 2.05 -2.15 2.1 -2.15 2.1 -2.2 2.15 M0.95 -1.15 L1.0 -1.15 0.95 -1.15 M1.65 -1.65 L1.65 -1.65 Q1.6 -1.65 1.6 -1.7 L1.6 -1.7 1.55 -1.7 1.55 -1.75 1.55 -1.8 1.55 -1.85 1.55 -1.9 1.6 -1.9 1.65 -1.95 1.65 -1.95 1.75 -1.95 1.8 -2.0 1.8 -1.95 1.85 -1.8 1.85 -1.75 1.8 -1.7 1.8 -1.7 1.85 -1.7 1.8 -1.65 Q1.8 -1.65 1.75 -1.65 L1.75 -1.65 1.65 -1.65 M1.8 -1.65 L1.8 -1.65 1.8 -1.65 1.8 -1.65 M1.65 -1.9 L1.65 -1.85 1.65 -1.9 1.65 -1.9 1.7 -1.85 1.7 -1.85 1.7 -1.75 1.7 -1.8 1.75 -1.8 1.75 -1.8 1.8 -1.75 1.8 -1.8 1.8 -1.9 1.75 -1.9 1.7 -1.95 1.7 -1.9 1.65 -1.9 M1.7 -1.75 L1.75 -1.75 1.7 -1.75 1.7 -1.8 1.65 -1.75 1.65 -1.7 1.7 -1.7 1.7 -1.75 M1.65 -1.75 L1.65 -1.75 M1.2 -1.2 L1.2 -1.2 M1.1 -1.2 L1.05 -1.25 1.1 -1.25 1.1 -1.25 1.1 -1.25 1.1 -1.2 1.1 -1.2 1.05 -1.2 1.05 -1.2 1.05 -1.15 1.0 -1.15 1.05 -1.15 1.05 -1.15 1.1 -1.15 1.1 -1.15 1.15 -1.15 1.1 -1.15 1.1 -1.1 1.05 -1.1 1.05 -1.05 1.05 -1.15 1.0 -1.15 1.0 -1.15 1.0 -1.2 1.05 -1.2 1.05 -1.2 1.1 -1.2 M1.25 -1.35 L1.25 -1.35 1.2 -1.3 1.2 -1.3 1.25 -1.3 1.25 -1.3 1.3 -1.35 1.3 -1.35 1.35 -1.4 1.35 -1.45 1.35 -1.4 1.3 -1.45 1.3 -1.4 1.25 -1.35 M0.4 -0.55 L0.45 -0.55 0.45 -0.6 0.55 -0.7 0.55 -0.7 0.65 -0.8 0.65 -0.8 0.7 -0.85 0.7 -0.85 0.8 -0.95 0.8 -0.95 0.85 -1.0 0.85 -1.05 0.9 -1.05 0.9 -1.05 0.95 -1.05 1.0 -1.1 1.0 -1.05 0.95 -1.05 0.95 -1.0 0.9 -0.95 0.85 -0.9 0.85 -0.9 0.8 -0.85 0.8 -0.85 0.75 -0.85 0.75 -0.8 0.7 -0.8 0.7 -0.75 0.65 -0.75 0.65 -0.7 0.6 -0.65 0.6 -0.65 0.5 -0.55 0.5 -0.55 0.45 -0.5 0.45 -0.5 0.4 -0.5 0.35 -0.4 0.3 -0.4 0.3 -0.35 0.2 -0.25 0.15 -0.25 0.15 -0.2 0.1 -0.2 0.1 -0.15 0.05 -0.1 0.05 -0.1 0.0 -0.1 0.05 -0.15 0.05 -0.15 0.1 -0.15 0.05 -0.2 0.05 -0.2 0.0 -0.15 0.0 -0.15 0.0 -0.15 0.0 -0.15 0.05 -0.2 0.05 -0.2 0.15 -0.3 0.3 -0.45 0.35 -0.5 0.4 -0.55 0.4 -0.55 0.4 -0.5 0.45 -0.5 0.45 -0.55 0.4 -0.55 M-0.05 0.0 L-0.05 -0.05 -0.05 -0.05 -0.05 0.0 M-1.4 1.3 L-1.4 1.3 -1.4 1.3 -1.4 1.3" fill="#5b292b" fill-rule="evenodd" stroke="none"/>
    <path d="M1.65 -1.9 L1.65 -1.9 1.7 -1.9 1.7 -1.95 1.75 -1.9 1.8 -1.9 1.8 -1.8 1.8 -1.75 1.75 -1.8 1.75 -1.8 1.7 -1.8 1.7 -1.75 1.7 -1.85 1.7 -1.85 1.65 -1.9" fill="#2d1717" fill-rule="evenodd" stroke="none"/>
    <path d="M1.7 -1.75 L1.75 -1.75 1.7 -1.75 1.7 -1.75 1.65 -1.75 1.7 -1.8 1.7 -1.75 M1.2 -1.35 L1.2 -1.3 1.2 -1.25 1.2 -1.2 1.15 -1.2 1.1 -1.2 1.1 -1.2 1.05 -1.2 1.05 -1.2 1.1 -1.2 1.1 -1.2 1.1 -1.25 1.1 -1.25 1.15 -1.25 1.15 -1.25 1.15 -1.35 1.15 -1.35 1.2 -1.35 1.2 -1.35 M1.4 -1.55 L1.45 -1.5 1.45 -1.5 1.45 -1.45 1.4 -1.45 1.4 -1.45 1.35 -1.5 1.35 -1.5 1.4 -1.5 1.4 -1.6 1.4 -1.55 M1.45 -1.5 L1.45 -1.55 1.5 -1.6 1.55 -1.6 1.55 -1.6 1.5 -1.55 1.5 -1.55 1.45 -1.5 M1.25 -1.35 L1.3 -1.4 1.3 -1.45 1.35 -1.4 1.35 -1.45 1.35 -1.4 1.3 -1.35 1.3 -1.35 1.25 -1.3 1.25 -1.3 1.2 -1.3 1.2 -1.3 1.25 -1.35 1.25 -1.35 M1.0 -1.15 L1.0 -1.15 1.05 -1.15 1.05 -1.05 1.0 -1.1 1.0 -1.15" fill="#a1767d" fill-rule="evenodd" stroke="none"/>
    <path d="M1.65 -1.65 L1.75 -1.65 1.75 -1.65 1.7 -1.65 1.65 -1.65" fill="#83555a" fill-rule="evenodd" stroke="none"/>
    <path d="M1.7 -1.75 L1.7 -1.7 1.65 -1.7 1.65 -1.75 1.7 -1.75" fill="#b46a6e" fill-rule="evenodd" stroke="none"/>
    <path d="M1.65 -1.75 L1.65 -1.75 1.7 -1.75 1.7 -1.75 1.65 -1.75" fill="#f2d5d7" fill-rule="evenodd" stroke="none"/>
    <path d="M1.85 -2.2 L1.85 -2.1 1.85 -2.1 1.8 -2.0 1.75 -1.95 1.65 -1.95 1.65 -1.95 1.6 -1.9 1.55 -1.9 1.55 -1.85 1.55 -1.8 1.55 -1.75 1.55 -1.7 1.6 -1.7 1.6 -1.7 Q1.6 -1.65 1.65 -1.65 L1.65 -1.65 1.7 -1.65 1.75 -1.65 Q1.8 -1.65 1.8 -1.65 L1.75 -1.6 1.65 -1.6 1.65 -1.6 1.6 -1.6 1.6 -1.6 1.55 -1.6 1.55 -1.65 1.55 -1.65 1.5 -1.65 1.5 -1.65 1.45 -1.65 1.45 -1.6 1.4 -1.6 1.45 -1.6 1.4 -1.6 1.4 -1.55 1.35 -1.5 1.35 -1.5 1.3 -1.45 1.3 -1.45 1.35 -1.45 1.3 -1.45 1.25 -1.4 1.2 -1.4 1.2 -1.35 1.2 -1.35 1.2 -1.35 1.15 -1.35 1.15 -1.35 1.15 -1.3 1.15 -1.25 1.1 -1.25 1.1 -1.25 1.1 -1.25 1.1 -1.25 1.05 -1.25 1.1 -1.2 1.05 -1.2 1.05 -1.2 1.0 -1.2 1.0 -1.15 1.05 -1.25 1.3 -1.5 1.4 -1.6 1.5 -1.65 1.5 -1.65 1.5 -1.7 1.5 -1.7 1.45 -1.8 1.5 -1.9 1.5 -1.9 1.5 -1.95 1.55 -1.95 Q1.65 -1.95 1.7 -2.05 L1.85 -2.2 M1.1 -1.25 L1.1 -1.25" fill="#272525" fill-rule="evenodd" stroke="none"/>
    <path d="M1.9 -1.8 L1.9 -1.75 1.9 -1.8" fill="#7f7074" fill-rule="evenodd" stroke="none"/>
    <path d="M2.0 -2.15 L2.0 -2.15 2.0 -2.1 2.0 -2.15 2.0 -2.15" fill="#87696a" fill-rule="evenodd" stroke="none"/>
    <path d="M1.85 -2.15 L1.85 -2.2 1.95 -2.2 2.0 -2.15 1.95 -2.1 1.95 -2.1 1.9 -2.1 1.9 -2.05 1.85 -2.05 1.85 -2.0 1.9 -2.0 1.9 -2.0 1.85 -2.0 1.85 -2.0 1.8 -2.0 1.8 -2.0 1.85 -2.1 1.85 -2.1 1.85 -2.15 M2.0 -2.15 L2.0 -2.15 M1.95 -2.1 L1.95 -2.1 M1.9 -2.05 L1.9 -2.05" fill="#593739" fill-rule="evenodd" stroke="none"/>
    <path d="M1.95 -2.1 L1.95 -2.1 2.0 -2.15 2.0 -2.1 1.95 -2.1" fill="#977e80" fill-rule="evenodd" stroke="none"/>
    <path d="M1.85 -2.2 L1.85 -2.15 1.85 -2.1 1.85 -2.2 1.85 -2.2" fill="#585452" fill-rule="evenodd" stroke="none"/>
    <path d="M1.9 -2.0 L1.85 -2.0 1.85 -2.05 1.9 -2.05 1.9 -2.0" fill="#80686b" fill-rule="evenodd" stroke="none"/>
    <path d="M1.9 -2.05 L1.9 -2.1 1.95 -2.1 1.9 -2.05" fill="#876d6f" fill-rule="evenodd" stroke="none"/>
    <path d="M1.85 -2.15 L1.85 -2.2 1.85 -2.15 M1.85 -2.2 L1.85 -2.2" fill="#bea4a1" fill-rule="evenodd" stroke="none"/>
    <path d="M1.85 -2.0 L1.85 -2.0 1.85 -2.0" fill="#9a8686" fill-rule="evenodd" stroke="none"/>
    <path d="M1.65 -1.9 L1.65 -1.85 1.65 -1.9" fill="#8b7070" fill-rule="evenodd" stroke="none"/>
    <path d="M0.0 -0.15 L0.0 -0.15 0.0 -0.15 0.05 -0.2 0.05 -0.2 0.1 -0.15 0.05 -0.15 0.05 -0.15 0.0 -0.1 0.0 -0.15 0.0 -0.1 -0.05 -0.1 0.0 -0.15" fill="#af4f52" fill-rule="evenodd" stroke="none"/>
    <path d="M1.95 -2.2 L2.0 -2.15 2.0 -2.15 2.05 -2.15 2.05 -2.1 2.05 -2.05 2.0 -2.05 2.0 -2.0 1.95 -2.0 1.95 -1.65 1.85 -1.6 1.75 -1.6 1.65 -1.6 1.65 -1.6 1.6 -1.6 1.6 -1.55 1.5 -1.5 1.5 -1.5 1.4 -1.4 1.3 -1.3 1.3 -1.25 1.25 -1.25 1.2 -1.2 1.15 -1.15 1.05 -1.05 0.05 0.0 -0.1 0.1 -2.1 2.1 -2.15 2.15 -2.15 2.15 M-2.2 2.05 L-2.15 2.0 -2.15 1.95 -2.15 1.95 -0.2 0.0 -0.05 -0.1 0.95 -1.15 1.0 -1.15 1.05 -1.25 1.3 -1.5 1.4 -1.6 1.5 -1.65 1.5 -1.7 1.5 -1.7 1.45 -1.8 1.5 -1.9 1.5 -1.9 1.5 -1.95 1.55 -1.95 Q1.65 -1.95 1.7 -2.05 L1.85 -2.2" fill="none" stroke="#000000" stroke-linecap="round" stroke-linejoin="round" stroke-opacity="0.4509804" stroke-width="1.0"/>
  </g>
</svg>
