<?xml version="1.0" encoding="UTF-8" standalone="no"?>
<svg xmlns:xlink="http://www.w3.org/1999/xlink" height="25.8px" width="8.4px" xmlns="http://www.w3.org/2000/svg">
  <g transform="matrix(1.0, 0.0, 0.0, 1.0, 4.25, -1.3)">
    <path d="M1.4 9.8 L1.4 9.95 1.3 10.0 1.4 9.8 M0.4 12.95 L0.15 12.8 0.25 12.8 0.4 12.95 M0.65 21.75 L0.55 21.7 0.6 21.55 0.7 21.65 0.65 21.75 M0.85 21.8 L0.9 21.85 0.9 21.9 Q0.9 21.85 0.8 21.85 L0.85 21.8 M-0.35 13.0 Q-0.55 13.1 -0.8 13.0 -1.0 12.95 -1.15 12.8 L-0.55 12.9 -0.55 12.9 -1.2 12.6 Q-1.35 12.45 -1.35 12.25 -1.2 12.2 -1.1 12.1 L-1.05 12.05 -1.0 12.05 Q-0.85 12.65 -0.65 12.65 -0.4 12.65 -0.25 12.45 L-0.15 12.2 -0.2 12.05 Q-0.2 11.95 -0.05 11.8 0.1 11.65 0.3 11.65 0.5 11.65 0.45 11.75 L0.45 11.8 0.3 11.8 0.25 11.85 Q0.0 11.85 0.0 12.05 L0.0 12.05 0.0 12.15 Q-0.1 12.2 -0.2 12.45 -0.35 12.7 -0.6 12.8 -0.45 12.85 -0.2 12.55 L0.0 12.35 Q0.0 12.5 -0.05 12.65 -0.25 12.75 -0.35 13.0 L-0.35 13.0 M-1.45 12.45 L-1.55 12.35 -1.55 12.3 -1.55 12.25 -1.55 12.25 -1.45 12.25 -1.45 12.45 M1.1 9.75 L0.95 9.7 Q0.9 9.7 0.85 9.85 L0.75 9.95 Q0.65 9.85 0.65 9.75 L0.75 9.55 Q0.85 9.45 0.95 9.45 L1.15 9.5 1.1 9.7 1.1 9.75 M0.9 14.1 L1.0 14.05 0.9 14.15 0.9 14.1 M0.0 22.2 L0.05 22.25 -0.1 22.35 -0.2 22.5 -0.15 22.65 0.0 22.45 0.1 22.25 Q0.1 22.15 0.0 21.95 -0.2 21.7 -0.4 21.8 L-0.3 21.75 -0.25 21.75 -0.2 21.75 Q-0.05 21.75 0.1 21.95 L0.1 22.1 0.15 22.3 0.2 22.4 Q0.15 22.55 -0.05 22.7 -0.35 22.9 -0.35 22.4 L-0.3 22.3 Q-0.25 22.2 -0.1 22.15 L0.0 22.2 0.0 22.2 M-0.25 11.35 L-0.2 11.35 -0.15 11.45 Q-0.15 11.7 -0.5 11.85 L-0.95 11.95 -0.95 11.7 -1.0 11.7 -1.15 11.75 -1.2 11.7 -1.15 11.55 -1.25 11.55 -1.35 11.6 -1.45 11.65 -1.65 11.6 -1.7 11.45 -1.6 11.3 -1.35 11.5 -1.25 11.5 -1.2 11.55 -1.2 11.55 -1.15 11.55 -1.15 11.6 -0.75 11.6 Q-0.75 11.6 -0.8 11.6 L-0.6 11.5 -0.5 11.45 -0.45 11.45 -0.25 11.35 M-1.05 14.15 L-1.05 14.1 Q-1.05 14.05 -0.85 14.0 L-1.05 14.15" fill="#5700ff" fill-rule="evenodd" stroke="none"/>
    <path d="M1.4 9.95 L1.4 10.0 1.35 10.25 1.3 10.15 1.25 10.15 1.25 10.1 1.3 10.0 1.4 9.95 M1.1 16.05 L1.1 16.15 1.05 16.15 1.05 16.1 1.1 16.05 M0.95 17.45 L0.95 17.65 0.85 17.55 0.95 17.45 M0.65 16.95 L0.6 16.8 0.6 16.75 0.7 16.6 Q0.8 16.65 0.8 16.85 L0.85 16.95 0.9 17.05 0.85 17.2 0.75 17.15 0.65 16.95 M0.45 16.0 L0.4 16.0 0.25 16.0 0.05 16.0 -0.2 16.05 -0.25 15.95 -0.2 15.95 -0.2 15.9 0.0 15.65 0.05 15.5 0.15 15.4 Q0.15 15.25 0.35 15.25 0.6 15.25 0.8 15.75 L0.75 15.8 0.55 15.85 0.5 15.9 0.45 16.0 M-0.5 17.75 L-0.45 17.9 -0.5 18.0 Q-0.5 18.1 -0.55 18.1 L-0.65 18.1 -0.65 18.1 -0.8 18.1 Q-0.7 18.1 -0.7 17.95 L-1.0 17.55 -1.0 17.55 -0.75 17.45 -0.55 17.4 -0.45 17.45 -0.45 17.55 -0.55 17.7 -0.5 17.75 M0.75 20.0 Q0.6 20.0 0.55 20.25 L0.55 20.15 0.55 20.0 0.6 19.95 0.75 20.0 M-0.75 20.75 L-0.75 20.8 -0.7 21.0 Q-0.6 21.1 -0.6 21.15 L-0.65 21.2 -0.65 21.25 Q-0.7 21.25 -0.8 21.15 L-0.95 21.05 -1.0 21.0 -1.05 20.7 -0.8 20.5 Q-0.75 20.55 -0.75 20.65 L-0.75 20.75 M-0.9 22.45 L-0.9 22.4 -0.95 22.35 -0.95 22.1 -0.9 22.05 Q-0.7 22.05 -0.65 22.25 L-0.65 22.45 -0.6 22.85 Q-0.7 22.85 -0.85 22.55 L-0.9 22.45 M-1.25 18.2 L-1.25 17.8 -1.2 17.7 -1.1 17.85 -0.8 18.1 -0.9 18.1 -1.1 18.2 -1.25 18.2 M-0.95 16.3 L-1.05 16.35 -1.1 16.25 -1.05 16.15 -1.2 16.1 -1.15 16.0 -0.8 16.05 -0.8 16.1 -0.8 16.15 Q-0.8 16.2 -0.85 16.25 L-0.95 16.3 M-1.25 15.0 L-1.25 14.65 Q-1.25 14.45 -1.15 14.45 L-1.0 14.5 -1.15 14.65 -1.1 14.8 -1.1 14.9 Q-1.1 15.1 -1.0 15.3 L-1.1 15.2 -1.25 15.0 M-1.15 12.8 Q-1.35 12.75 -1.45 12.6 L-1.45 12.45 -1.45 12.25 -1.35 12.25 Q-1.35 12.45 -1.2 12.6 L-0.55 12.9 -0.55 12.9 -1.15 12.8 M-1.7 10.55 L-1.75 10.4 -1.7 10.4 -1.7 10.4 -1.65 10.4 -1.7 10.5 -1.7 10.55 M-1.75 10.05 L-1.8 9.75 -1.6 10.05 -1.6 10.1 -1.65 10.1 -1.65 10.1 -1.75 10.05 M0.45 9.0 L0.5 8.85 0.5 8.8 0.55 8.7 0.65 8.6 Q0.75 8.55 0.8 8.55 L1.0 8.6 Q1.05 8.65 1.1 8.75 1.1 9.0 0.75 9.1 0.5 9.15 0.45 9.0 M-0.8 8.1 L-0.95 8.05 Q-1.0 7.85 -1.15 7.75 L-1.2 7.6 Q-1.25 7.4 -1.4 7.2 L-1.55 7.0 -1.5 6.8 Q-1.55 6.7 -1.45 6.75 L-1.35 6.8 Q-1.3 6.8 -1.15 6.7 L-1.05 6.6 Q-1.0 6.1 -0.7 6.1 -0.55 6.1 -0.55 6.3 L-0.55 6.35 -0.6 6.4 -0.65 6.3 Q-0.8 6.4 -0.85 6.65 L-0.85 6.75 Q-0.85 6.9 -0.9 7.05 L-1.0 7.35 -0.9 7.8 -0.8 8.1 M-0.1 5.65 L0.0 5.6 -0.1 5.7 -0.1 5.65 M-1.3 5.25 L-1.45 5.2 -1.4 5.15 Q-1.25 4.85 -0.95 4.85 -0.7 4.85 -0.6 4.95 -0.55 5.0 -0.55 5.05 L-0.65 5.15 -0.85 5.05 Q-1.05 5.05 -1.2 5.15 L-1.3 5.25 M1.2 4.8 Q1.35 4.8 1.4 4.85 L1.35 4.9 1.6 5.1 1.55 5.15 1.35 5.15 1.1 5.1 1.0 5.0 0.95 4.95 Q0.95 4.85 1.05 4.8 L1.2 4.8 M2.05 6.0 L2.0 6.0 1.9 5.6 Q1.85 5.35 1.65 5.3 L1.65 5.25 Q1.65 5.2 1.75 5.2 1.95 5.2 2.05 5.65 L2.05 6.0 M1.2 5.9 L1.3 5.95 1.25 6.05 1.1 6.05 1.15 5.9 1.2 5.9 M0.4 5.85 L0.5 5.95 0.45 6.0 Q0.25 5.9 0.25 5.9 -0.05 5.9 -0.15 6.0 L-0.25 6.1 Q-0.1 5.75 0.15 5.75 0.25 5.75 0.4 5.85 M0.0 6.6 L0.0 6.7 0.1 6.95 0.05 7.25 0.0 7.25 -0.1 6.8 Q-0.15 6.5 -0.4 6.5 L-0.45 6.45 -0.45 6.3 -0.45 6.3 -0.35 6.3 -0.3 6.3 Q-0.1 6.35 0.0 6.6 L0.0 6.6 M0.65 11.45 L0.8 11.4 0.95 11.5 0.95 11.55 1.0 11.7 Q1.0 11.85 0.85 11.9 L0.75 11.7 0.7 11.65 0.65 11.5 0.65 11.45 M0.05 12.2 L0.0 12.35 0.0 12.35 -0.2 12.55 Q-0.45 12.85 -0.6 12.8 -0.35 12.7 -0.2 12.45 -0.1 12.2 0.0 12.15 L0.05 12.2 M0.5 10.35 L0.6 10.4 0.85 10.45 0.9 10.55 Q0.9 10.7 0.7 10.65 0.7 10.7 0.7 10.8 L0.55 10.6 Q0.5 10.5 0.5 10.4 L0.5 10.35 M1.3 10.6 L1.3 10.55 1.3 10.6 M1.0 13.0 L1.0 13.05 Q1.0 13.15 0.95 13.25 0.95 13.45 1.0 13.5 L0.95 13.5 Q0.9 13.4 0.9 13.25 L0.9 13.1 Q0.9 13.05 1.0 13.0 M0.65 15.9 L0.7 15.85 0.75 15.9 0.75 15.95 0.8 16.05 0.7 16.05 0.65 16.05 0.65 15.9 M1.0 15.9 L1.05 15.95 0.95 16.1 0.8 16.05 Q0.8 15.95 0.85 15.9 L0.95 15.85 1.0 15.9 M0.75 17.45 L0.75 17.35 0.8 17.3 0.75 17.45 M-1.65 8.4 L-1.7 8.4 -1.85 8.3 -1.7 8.35 -1.65 8.4 M-0.65 11.35 L-0.55 11.35 -0.3 11.3 -0.25 11.3 -0.25 11.35 -0.45 11.45 -0.5 11.45 -0.65 11.35 M-1.05 11.45 L-0.9 11.45 -0.6 11.5 -0.8 11.6 Q-0.75 11.6 -0.75 11.6 L-1.15 11.6 -1.15 11.55 -1.2 11.55 -1.2 11.5 -1.15 11.45 -1.1 11.45 -1.05 11.45 M-1.65 11.6 L-1.45 11.65 -1.35 11.6 -1.25 11.55 -1.15 11.55 -1.2 11.7 -1.15 11.75 -1.2 11.75 Q-1.4 11.85 -1.6 11.85 L-1.65 11.8 -1.65 11.6 M-1.65 11.8 L-1.65 11.8 M-1.65 11.25 L-1.6 11.25 -1.6 11.3 -1.7 11.45 -1.7 11.3 -1.65 11.25 M-0.75 14.0 L-0.75 14.05 Q-1.0 14.25 -1.2 14.25 L-1.2 14.15 -1.15 14.0 -1.1 13.85 -1.0 13.6 Q-1.0 13.5 -0.9 13.5 -0.8 13.5 -0.65 13.55 -0.55 13.65 -0.55 13.7 -0.55 13.8 -0.7 14.0 L-0.75 14.0 M-1.05 14.15 L-0.85 14.0 Q-1.05 14.05 -1.05 14.1 L-1.05 14.15 M-0.85 21.6 L-0.85 21.5 Q-0.8 21.4 -0.7 21.4 L-0.6 21.4 -0.6 21.45 -0.65 21.65 Q-0.75 21.75 -0.85 21.75 L-0.85 21.6" fill="#bc9aff" fill-rule="evenodd" stroke="none"/>
    <path d="M2.0 6.6 L1.9 6.75 1.7 6.95 1.6 7.05 Q1.55 7.0 1.55 6.95 L1.85 6.55 1.9 6.35 Q1.95 6.2 2.0 6.2 L2.05 6.2 Q2.1 6.2 2.1 6.25 2.1 6.4 2.0 6.6 M1.9 7.45 L1.8 7.75 1.75 7.7 1.7 7.6 1.45 7.3 Q1.45 7.25 1.5 7.25 1.75 7.25 1.9 7.45 M0.7 13.3 L0.6 13.45 Q0.5 13.45 0.55 13.35 L0.45 13.1 0.4 12.95 0.25 12.8 0.15 12.8 Q-0.35 13.0 -0.35 13.9 L-0.3 14.1 -0.25 14.15 -0.25 14.15 Q-0.4 14.15 -0.45 13.95 L-0.45 13.95 -0.45 13.8 -0.5 13.5 -0.5 13.35 -0.35 13.0 -0.35 13.0 Q-0.25 12.75 -0.05 12.65 L0.1 12.6 0.15 12.6 Q0.5 12.6 0.65 12.85 L0.7 13.15 0.7 13.3 M0.9 19.9 L0.9 19.7 0.85 19.6 0.8 19.55 0.95 19.45 0.95 20.0 0.9 19.9 M-1.0 13.45 Q-1.2 13.45 -1.45 13.25 L-1.5 12.95 -1.45 13.05 Q-1.2 13.25 -0.85 13.4 L-0.8 13.4 Q-0.9 13.45 -1.0 13.45 M-1.55 12.35 L-1.6 12.45 -1.6 12.25 -1.55 12.25 -1.55 12.3 -1.55 12.35 M-1.7 10.95 L-1.7 10.55 -1.7 10.5 -1.65 10.4 -1.55 10.3 -1.5 10.3 Q-1.4 10.3 -1.4 10.35 L-1.4 10.35 Q-1.55 10.6 -1.55 10.75 -1.55 10.85 -1.45 11.0 L-1.7 10.95 M-0.75 9.65 Q-0.55 9.55 -0.5 9.2 L-0.45 8.95 -0.4 9.1 -0.4 9.15 -0.3 9.05 -0.25 9.0 -0.25 9.25 -0.3 9.3 -0.45 9.4 Q-0.5 9.6 -0.6 9.8 L-0.7 9.95 -0.75 10.0 -1.0 10.0 -0.8 9.75 -0.75 9.65 M0.25 9.45 L0.3 9.4 0.4 9.45 0.45 9.5 0.4 9.55 Q0.35 9.55 0.35 9.6 L0.3 9.8 Q0.3 10.0 0.6 10.15 L0.7 10.2 0.9 10.35 Q0.9 10.4 0.85 10.45 L0.6 10.4 0.5 10.35 0.25 10.2 Q0.15 10.05 0.15 9.8 0.2 9.55 0.25 9.45 M-0.4 8.8 L-0.4 8.7 -0.4 8.7 -0.4 8.8 M1.8 6.15 Q1.8 6.6 1.6 6.75 L1.65 6.6 1.6 6.3 1.6 6.2 1.55 5.95 Q1.55 5.85 1.65 5.85 1.85 5.85 1.8 6.15 M1.0 6.8 L1.0 6.75 1.05 6.8 1.0 6.8 M0.25 12.2 L0.2 12.2 0.05 12.2 0.0 12.15 0.0 12.05 0.25 11.85 0.3 11.8 0.45 11.8 0.55 12.0 Q0.55 12.15 0.25 12.2 M0.7 19.6 L0.7 19.55 0.75 19.55 0.7 19.6 M-1.2 11.15 L-1.05 11.25 -0.65 11.35 -0.5 11.45 -0.6 11.5 -0.9 11.45 -1.05 11.45 -1.4 11.3 -1.55 11.2 -1.2 11.2 -1.2 11.15 M-0.6 14.3 L-0.55 14.3 Q-0.45 14.3 -0.45 14.4 L-0.45 14.4 Q-0.45 14.45 -0.65 14.6 -0.85 14.75 -0.85 14.9 L-0.85 14.9 Q-0.85 15.05 -0.7 15.35 -0.55 15.65 -0.55 15.65 -0.55 15.85 -0.8 15.6 L-0.85 15.55 -1.0 15.3 Q-1.1 15.1 -1.1 14.9 L-1.1 14.8 -1.1 14.7 -1.05 14.55 Q-0.9 14.3 -0.6 14.3" fill="#e9deff" fill-rule="evenodd" stroke="none"/>
    <path d="M-1.45 5.2 L-1.5 5.15 -1.6 5.15 -1.6 4.9 -1.5 4.8 -1.5 4.75 Q-1.5 4.6 -1.4 4.4 L-1.35 4.55 Q-1.25 4.7 -1.1 4.7 -0.85 4.7 -0.7 4.6 L-0.3 4.65 -0.35 4.6 -0.4 4.6 Q-0.45 4.6 -0.45 4.5 L-0.6 4.45 -0.55 4.35 -0.55 4.3 -0.4 4.35 Q-0.25 4.35 -0.2 4.25 L-0.1 4.15 0.05 4.15 Q0.25 4.15 0.4 4.05 L0.5 3.95 0.65 3.85 0.95 3.85 Q1.35 3.95 1.45 4.05 L1.5 4.15 1.6 4.15 1.5 3.9 Q1.6 4.05 1.85 4.05 2.15 4.05 2.3 3.85 L2.35 3.8 2.35 3.85 2.4 3.85 2.4 3.75 2.45 3.6 Q2.45 3.1 1.95 3.3 1.6 3.45 1.5 3.65 1.5 2.6 2.2 2.4 L2.7 2.45 Q2.9 2.6 2.9 2.85 2.9 3.0 2.75 3.15 L2.6 3.3 2.65 3.6 2.7 3.9 Q2.7 4.1 2.55 4.2 L2.6 4.2 Q2.9 4.2 3.0 4.4 L3.05 4.65 Q3.05 4.95 3.0 5.15 L2.95 5.2 Q2.8 5.55 2.4 5.6 L2.3 5.6 2.3 5.45 2.5 5.35 2.65 5.15 2.7 5.1 2.65 4.65 2.6 4.65 Q2.55 4.35 2.2 4.25 1.85 4.1 1.85 4.5 L1.95 4.8 1.9 4.8 1.8 4.8 1.85 4.75 1.85 4.7 Q1.85 4.6 1.55 4.5 L1.5 4.5 1.45 4.45 1.35 4.5 Q1.25 4.5 1.25 4.4 L1.2 4.4 1.2 4.35 1.3 4.25 Q1.25 4.1 0.95 4.1 L0.9 4.1 1.0 4.2 1.15 4.35 1.15 4.4 Q1.15 4.5 1.05 4.5 1.0 4.5 0.9 4.45 L0.9 4.35 0.85 4.3 0.7 4.2 0.55 4.2 0.05 4.4 0.0 4.45 0.0 4.5 -0.05 4.65 -0.1 4.7 0.0 4.8 -0.25 4.9 -0.55 5.2 -0.6 5.2 Q-0.95 5.2 -1.2 5.35 -1.25 5.3 -1.3 5.25 L-1.2 5.15 Q-1.05 5.05 -0.85 5.05 L-0.65 5.15 -0.55 5.05 Q-0.55 5.0 -0.6 4.95 -0.7 4.85 -0.95 4.85 -1.25 4.85 -1.4 5.15 L-1.45 5.2 M1.7 6.95 Q1.9 7.0 2.05 7.05 L1.9 7.45 Q1.75 7.25 1.5 7.25 1.45 7.25 1.45 7.3 L1.7 7.6 1.7 8.0 Q1.65 8.5 1.35 8.7 L1.4 8.8 1.45 8.9 1.45 8.95 1.5 9.15 1.5 9.25 1.45 9.2 1.45 9.25 Q1.45 9.45 1.4 9.75 L1.4 9.8 1.3 10.0 1.25 10.1 1.1 10.25 1.1 10.3 1.25 10.2 1.25 10.15 1.3 10.15 1.35 10.25 1.35 10.45 1.2 10.55 Q1.2 10.65 1.05 10.8 L1.0 10.85 0.7 10.8 Q0.65 10.8 0.45 11.0 0.6 11.05 0.7 11.2 0.75 11.15 0.9 11.1 L0.9 11.15 1.0 11.2 1.1 11.1 Q1.2 11.1 1.25 11.15 L1.2 11.7 1.1 11.8 Q1.0 11.95 0.85 12.0 0.75 12.3 0.35 12.35 L0.3 12.35 0.45 12.5 0.5 12.6 Q0.5 12.45 0.75 12.45 L0.8 12.45 1.0 12.9 1.1 13.15 1.1 14.1 1.0 14.0 0.95 14.0 0.9 14.0 Q0.8 13.7 0.7 13.6 L0.7 13.3 0.7 13.15 0.65 12.85 Q0.5 12.6 0.15 12.6 L0.1 12.6 0.1 12.55 Q0.1 12.5 0.15 12.4 L0.2 12.4 0.0 12.35 0.05 12.2 0.2 12.2 0.25 12.2 Q0.5 12.2 0.6 12.0 L0.55 12.0 0.55 11.85 Q0.55 11.75 0.55 11.75 L0.7 11.7 0.7 11.65 0.75 11.7 0.85 11.9 Q1.0 11.85 1.0 11.7 L0.95 11.55 0.95 11.5 0.8 11.4 0.65 11.45 0.65 11.35 Q0.55 11.15 0.35 11.1 0.25 11.2 0.15 11.2 L0.05 11.2 0.05 11.25 0.0 11.25 0.0 11.15 -0.05 11.1 -0.05 10.95 Q-0.05 10.75 0.15 10.5 0.25 10.35 0.4 10.3 0.05 10.05 0.05 9.6 L0.05 9.5 Q-0.1 9.7 -0.15 9.95 -0.2 9.9 -0.3 9.9 -0.5 9.9 -0.55 10.0 L-0.6 9.8 Q-0.5 9.6 -0.45 9.4 L-0.3 9.3 -0.25 9.25 -0.2 9.3 Q-0.15 9.45 0.05 9.45 0.15 9.45 0.25 9.4 L0.25 9.45 Q0.2 9.55 0.15 9.8 0.15 10.05 0.25 10.2 L0.5 10.35 0.5 10.4 Q0.5 10.5 0.55 10.6 L0.7 10.8 Q0.7 10.7 0.7 10.65 0.9 10.7 0.9 10.55 L0.85 10.45 Q0.9 10.4 0.9 10.35 L0.7 10.2 1.05 10.25 1.05 10.2 Q1.05 10.1 1.1 9.75 L1.1 9.7 1.15 9.5 1.2 9.1 1.0 9.15 0.9 9.15 Q0.55 9.2 0.35 9.3 L0.4 9.2 0.45 9.0 Q0.5 9.15 0.75 9.1 1.1 9.0 1.1 8.75 1.05 8.65 1.0 8.6 L1.2 8.6 1.25 8.6 Q1.35 8.5 1.4 8.35 L1.5 8.1 1.4 8.05 1.05 7.65 Q0.9 7.65 0.85 7.6 L0.8 7.65 0.75 7.8 Q0.75 7.85 0.9 8.0 1.0 8.1 1.0 8.25 1.0 8.25 0.95 8.25 0.65 8.25 0.6 7.95 L0.55 7.95 0.4 8.05 Q0.25 8.05 0.2 7.8 0.15 7.65 0.2 7.55 0.0 7.75 -0.4 7.8 L-0.8 7.75 Q-0.65 8.15 -0.3 8.35 L0.0 8.45 0.0 8.4 Q0.05 8.35 0.1 8.35 L0.0 8.45 -0.05 8.5 -0.2 8.85 -0.2 8.85 -0.4 8.8 -0.4 8.7 -0.4 8.7 -0.4 8.7 Q-0.4 8.25 -0.75 8.1 L-0.8 8.1 -0.9 7.8 -1.0 7.35 -0.9 7.05 Q-0.85 6.9 -0.85 6.75 L-0.85 6.65 Q-0.8 6.4 -0.65 6.3 L-0.6 6.4 -0.55 6.35 -0.55 6.3 Q-0.55 6.1 -0.7 6.1 -1.0 6.1 -1.05 6.6 L-1.15 6.7 Q-1.3 6.8 -1.35 6.8 L-1.45 6.75 Q-1.55 6.7 -1.5 6.8 L-1.55 7.0 -1.4 7.2 Q-1.25 7.4 -1.2 7.6 L-1.15 7.75 Q-1.25 7.7 -1.3 7.7 L-1.35 7.3 -1.55 7.1 -1.95 6.6 -2.1 6.85 -2.15 7.25 Q-2.15 7.45 -1.95 7.7 L-2.0 7.8 Q-1.85 8.15 -1.65 8.3 L-1.65 8.3 Q-1.6 8.55 -1.35 8.55 L-1.1 8.45 -1.1 8.45 -1.05 8.5 -1.0 8.7 -1.05 8.85 -1.1 8.85 -1.6 8.8 -1.65 8.9 -1.65 9.05 Q-1.65 9.25 -1.4 9.2 -1.15 9.2 -1.15 9.35 -1.15 9.4 -1.25 9.45 L-1.35 9.5 Q-1.7 9.5 -1.85 9.3 -1.9 8.7 -2.0 8.2 L-2.3 7.95 Q-2.45 7.7 -2.45 7.25 L-2.4 6.85 -2.4 6.85 Q-2.3 6.85 -2.15 6.7 L-1.95 6.55 -1.9 6.4 -1.9 6.35 -1.9 6.2 Q-1.85 6.3 -1.75 6.3 L-1.55 6.15 Q-1.5 6.4 -1.3 6.7 L-1.3 6.7 -1.15 6.35 -1.1 6.2 -1.0 6.2 Q-0.85 6.2 -0.8 6.1 -0.7 6.0 -0.7 5.9 L-0.75 5.85 -0.45 5.7 -0.35 5.7 -0.1 5.65 -0.1 5.7 0.0 5.6 0.1 5.45 Q0.2 5.3 0.2 5.1 L0.25 5.15 0.25 5.65 Q0.7 5.65 0.9 5.9 1.0 6.05 1.0 6.2 0.95 6.3 0.95 6.45 L1.0 6.65 Q0.65 6.75 0.55 6.9 L0.4 6.85 0.4 6.9 0.35 7.05 0.4 7.05 0.5 6.95 0.5 7.0 0.55 7.05 0.7 7.1 0.6 7.15 0.75 7.3 Q0.9 7.2 1.1 7.2 1.3 7.2 1.45 7.3 1.3 7.05 1.0 7.0 L1.4 6.9 1.55 6.95 Q1.55 7.0 1.6 7.05 L1.7 6.95 M-0.3 14.1 L0.1 14.15 Q0.35 14.15 0.5 13.95 L0.55 14.05 0.55 14.1 Q0.15 14.35 0.15 14.5 L0.4 14.3 0.6 14.2 0.75 14.7 Q0.6 14.65 0.55 14.45 L0.3 14.55 0.3 14.6 0.35 14.9 Q0.4 15.15 0.6 15.4 0.65 15.1 0.75 14.9 0.85 14.75 1.0 14.65 L1.0 14.5 0.95 14.4 1.1 14.45 1.1 14.85 1.0 14.8 0.9 14.9 0.85 15.05 Q0.7 15.3 0.7 15.4 L0.75 15.55 0.9 15.7 0.9 15.65 Q0.9 15.5 1.0 15.35 L1.1 15.3 1.1 16.05 1.05 16.1 1.05 16.15 1.1 16.15 1.1 16.2 1.15 16.3 Q1.25 16.45 1.25 16.7 1.25 17.15 0.95 17.45 L0.85 17.55 0.95 17.65 0.95 18.0 0.8 17.75 0.6 17.95 0.55 17.75 0.45 17.75 Q0.3 17.75 0.3 17.5 L0.35 17.35 0.4 17.2 0.45 17.2 0.4 17.25 0.4 17.35 Q0.4 17.45 0.45 17.5 L0.45 17.55 Q0.65 17.2 0.65 16.95 L0.75 17.15 0.85 17.2 0.9 17.05 0.85 16.95 0.8 16.85 Q0.8 16.65 0.7 16.6 L0.6 16.75 0.55 16.6 0.45 16.2 0.45 16.1 0.55 16.05 0.45 16.0 0.5 15.9 0.55 15.85 0.75 15.8 0.8 15.75 Q0.6 15.25 0.35 15.25 0.15 15.25 0.15 15.4 L0.05 15.5 Q-0.1 15.25 -0.15 14.9 L-0.15 14.5 -0.45 14.4 -0.45 14.4 Q-0.45 14.3 -0.55 14.3 L-0.6 14.3 Q-0.75 14.2 -0.75 14.05 L-0.7 14.0 Q-0.55 13.8 -0.55 13.7 -0.55 13.65 -0.65 13.55 -0.8 13.5 -0.9 13.5 -1.0 13.5 -1.0 13.6 L-1.1 13.85 -1.15 14.0 -1.2 14.15 -1.2 14.25 Q-1.0 14.25 -0.75 14.05 L-0.75 14.0 -0.9 14.3 -1.1 14.7 -1.1 14.8 -1.15 14.65 -1.0 14.5 -1.15 14.45 Q-1.25 14.45 -1.25 14.65 L-1.3 14.25 -1.1 13.9 -1.35 13.85 -1.4 13.85 -1.4 13.6 -1.45 13.45 -1.25 13.45 -1.0 13.45 Q-0.9 13.45 -0.8 13.4 L-0.85 13.4 -0.7 13.35 -0.5 13.35 -0.5 13.5 -0.45 13.8 -0.5 13.85 -0.45 13.95 -0.45 13.95 Q-0.4 14.15 -0.25 14.15 L-0.25 14.15 -0.3 14.1 M0.25 16.0 L0.1 16.2 Q-0.1 16.3 -0.3 16.25 L-0.2 16.35 -0.15 16.55 Q-0.15 16.85 -0.2 17.1 L0.0 17.15 Q0.15 17.15 0.3 17.05 L0.45 16.85 0.35 16.7 Q0.25 16.55 0.15 16.55 0.05 16.55 -0.15 16.9 L-0.15 16.75 -0.1 16.5 Q-0.05 16.35 0.1 16.35 0.35 16.35 0.5 16.6 L0.55 16.8 Q0.55 17.15 0.15 17.25 -0.1 17.3 -0.25 17.2 -0.3 17.55 -0.5 17.75 L-0.55 17.7 -0.45 17.55 -0.45 17.45 -0.55 17.4 -0.75 17.45 Q-0.65 17.3 -0.6 17.05 -0.7 17.2 -0.95 17.35 L-1.1 17.35 -1.0 17.55 -1.0 17.55 -0.7 17.95 Q-0.7 18.1 -0.8 18.1 L-0.65 18.1 -0.55 18.1 Q-0.5 18.1 -0.5 18.0 L-0.35 18.05 0.05 17.95 0.05 17.9 Q0.05 17.65 0.15 17.55 L0.35 18.1 0.45 18.1 Q0.65 18.1 0.8 18.3 L0.65 18.35 Q0.2 18.45 0.2 18.75 0.1 18.55 0.05 18.3 L-0.05 18.3 0.0 18.35 -0.05 18.4 -0.2 18.35 -0.35 18.35 Q-0.5 18.35 -0.55 18.45 L-0.6 18.6 -0.6 18.8 -0.45 18.65 Q-0.4 18.6 -0.3 18.6 -0.05 18.6 0.05 18.85 0.05 19.2 -0.35 19.15 -0.75 19.15 -0.75 18.7 -0.75 18.3 -0.55 18.2 L-0.65 18.1 -0.85 18.35 Q-1.05 18.6 -1.05 18.8 -1.05 19.05 -0.95 19.25 -0.7 19.7 -0.25 19.65 0.0 19.55 0.05 19.35 L0.1 19.0 Q0.1 19.0 0.15 18.95 L0.3 19.1 0.3 19.3 Q0.3 19.5 0.2 19.65 L0.25 19.7 0.35 19.6 Q0.4 19.55 0.5 19.55 0.75 19.55 0.9 19.9 L0.95 20.0 0.95 20.1 0.9 20.1 0.75 20.0 0.6 19.95 0.55 20.0 Q0.5 19.7 0.2 19.8 0.15 19.8 0.1 19.85 L0.1 19.8 0.0 19.85 -0.35 19.95 Q-0.35 20.4 -0.65 20.7 L-0.75 20.75 -0.75 20.65 Q-0.75 20.55 -0.8 20.5 L-1.05 20.7 -1.05 20.65 Q-0.9 20.5 -0.8 20.15 L-0.7 19.9 -1.1 19.65 -1.15 19.05 -1.25 18.2 -1.1 18.2 -0.9 18.1 -0.8 18.1 -1.1 17.85 -1.2 17.7 -1.25 17.8 -1.25 17.65 Q-1.5 17.35 -1.5 17.0 -1.5 16.5 -1.15 16.5 -0.95 16.5 -0.85 16.65 L-0.9 16.7 -0.8 16.75 -0.7 16.9 -0.6 16.7 Q-0.6 16.55 -0.9 16.35 L-0.95 16.3 -0.85 16.25 -0.85 16.3 -0.55 16.5 -0.55 16.45 -0.5 16.25 -0.55 16.2 -0.8 16.1 -0.8 16.05 -1.15 16.0 -1.15 15.95 -1.0 15.95 -1.05 15.9 -1.2 15.8 -1.25 15.0 -1.1 15.2 -1.0 15.3 -0.85 15.55 -0.8 15.6 Q-0.65 15.8 -0.4 15.9 L-0.2 15.95 -0.25 15.95 -0.2 16.05 0.05 16.0 0.25 16.0 M0.55 20.25 L0.55 20.3 0.6 20.55 0.7 20.85 0.65 21.05 0.55 20.95 Q0.45 21.2 0.2 21.25 0.15 20.9 -0.2 20.95 L-0.25 21.0 -0.3 20.85 Q-0.3 20.75 -0.2 20.55 L-0.15 20.5 -0.1 20.6 -0.05 20.7 -0.1 20.8 Q-0.1 20.9 0.1 21.0 0.3 21.1 0.3 20.95 L0.25 20.75 Q0.35 20.7 0.45 20.45 L0.45 20.4 0.5 20.4 0.5 20.35 0.55 20.15 0.55 20.25 M-0.65 21.2 L-0.6 21.2 -0.5 21.2 -0.55 21.45 -0.55 21.5 -0.6 21.45 -0.6 21.55 -0.55 22.1 Q-0.45 22.9 0.1 22.9 0.35 22.9 0.8 22.45 L0.65 22.3 0.7 22.25 0.75 21.95 Q0.75 21.8 0.65 21.75 L0.7 21.65 0.75 21.45 0.9 21.45 1.0 21.45 0.85 21.8 0.8 21.85 Q0.9 21.85 0.9 21.9 L0.95 21.95 Q0.9 22.0 0.9 22.1 0.95 22.35 1.2 22.4 L1.2 22.65 Q1.2 22.95 1.0 23.15 1.15 22.95 1.15 22.8 1.15 22.3 0.7 22.6 0.3 22.85 0.3 23.15 L0.35 23.3 0.4 23.4 Q0.45 23.45 0.6 23.45 0.8 23.45 0.95 23.25 L1.0 23.65 0.8 23.8 0.5 24.05 0.3 24.0 Q0.1 24.0 0.0 24.2 L-0.4 24.2 -0.45 24.2 -0.45 24.3 Q-0.5 24.85 -0.3 24.85 -0.05 24.85 0.05 24.6 L0.15 24.7 0.05 24.85 Q-0.2 25.15 -0.4 25.05 -0.3 25.2 0.0 25.05 L0.3 24.75 Q0.45 24.75 0.55 24.6 0.55 25.1 -0.05 25.35 -0.65 25.55 -0.65 25.15 -0.65 25.05 -0.6 25.0 L-0.45 25.0 Q-0.6 24.9 -0.65 24.65 L-0.65 24.15 -0.9 24.0 -0.85 23.85 -0.9 23.05 Q-0.75 23.05 -0.75 22.8 L-0.85 22.65 -0.9 22.45 -0.85 22.55 Q-0.7 22.85 -0.6 22.85 L-0.65 22.45 -0.65 22.25 Q-0.7 22.05 -0.9 22.05 L-0.95 22.1 -1.0 21.75 -1.0 21.7 Q-1.0 21.35 -0.85 21.3 L-1.0 21.1 -1.0 21.0 -0.95 21.05 -0.8 21.15 Q-0.7 21.25 -0.65 21.25 L-0.65 21.2 M-0.9 22.4 L-0.95 22.4 -0.95 22.35 -0.9 22.4 M-1.1 16.25 L-1.2 16.25 -1.2 16.1 -1.05 16.15 -1.1 16.25 M-1.6 12.25 Q-1.9 12.25 -2.1 11.95 -2.2 11.75 -2.2 11.6 -2.2 11.3 -2.0 11.1 -1.9 10.95 -1.7 10.95 L-1.45 11.0 -1.2 11.05 -1.2 11.15 -1.2 11.2 -1.55 11.2 -1.65 11.2 -1.65 11.25 -1.7 11.3 -1.7 11.2 -1.8 11.35 -1.85 11.5 -1.75 11.7 -1.65 11.85 -1.65 11.8 -1.65 11.85 -1.6 11.85 -1.6 11.85 Q-1.4 11.85 -1.2 11.75 L-1.15 11.75 -1.0 11.7 -0.95 11.7 -0.95 11.95 -1.05 12.05 -1.1 12.1 Q-1.2 12.2 -1.35 12.25 L-1.45 12.25 -1.55 12.25 -1.55 12.25 -1.6 12.25 M-1.75 10.4 L-1.75 10.05 -1.65 10.1 -1.65 10.1 -1.6 10.1 -1.6 10.05 -1.8 9.75 -1.8 9.65 Q-1.6 9.85 -1.2 9.95 -1.05 9.85 -1.0 9.7 L-0.95 9.6 -0.8 9.65 -0.75 9.65 -0.8 9.75 -1.0 10.0 -0.75 10.0 -0.65 10.0 -0.55 10.0 Q-0.65 10.1 -0.65 10.3 L-0.6 10.4 -0.75 10.45 Q-1.0 10.5 -1.4 10.35 L-1.4 10.35 Q-1.4 10.3 -1.5 10.3 L-1.55 10.3 -1.6 10.3 -1.7 10.4 -1.7 10.4 -1.75 10.4 M0.5 8.8 L0.45 8.55 0.65 8.6 0.55 8.7 0.5 8.8 M0.3 3.1 Q0.45 3.25 0.5 3.45 L0.15 3.45 0.05 3.35 Q-0.1 3.2 -0.2 3.2 L-0.3 3.6 -0.3 3.7 -0.55 3.6 -0.6 3.6 Q-0.55 2.9 -0.05 2.9 0.15 2.9 0.3 3.1 M2.55 2.85 Q2.55 2.75 2.4 2.7 2.2 2.7 2.1 2.85 1.95 2.9 2.15 2.95 L2.35 3.0 2.5 3.0 2.55 2.9 2.55 2.85 M1.25 6.05 L1.3 5.95 1.2 5.9 1.55 5.9 1.5 6.15 Q1.45 6.05 1.3 6.05 L1.25 6.05 M1.1 6.05 L1.05 6.15 1.05 6.0 1.0 5.85 1.2 5.9 1.15 5.9 1.1 6.05 M0.4 5.85 Q0.25 5.75 0.15 5.75 -0.1 5.75 -0.25 6.1 L-0.15 6.0 Q-0.05 5.9 0.25 5.9 0.25 5.9 0.45 6.0 L0.5 5.95 0.4 5.85 M0.95 6.35 L0.85 6.4 Q0.7 6.4 0.6 6.3 L0.4 6.1 -0.15 6.1 Q0.1 6.2 0.25 6.5 L0.3 6.65 Q0.75 6.65 0.95 6.4 L0.95 6.35 M0.0 6.6 L0.05 6.6 0.1 6.65 0.15 6.65 Q0.0 6.3 -0.25 6.3 L-0.3 6.3 -0.35 6.3 -0.45 6.3 -0.45 6.3 -0.6 6.45 -0.6 6.75 Q-0.5 6.85 -0.2 6.75 L-0.15 6.8 Q-0.15 6.95 -0.45 6.95 -0.75 6.95 -0.8 6.8 L-0.8 6.75 -0.85 7.2 -0.85 7.55 Q-0.6 7.7 -0.3 7.7 0.0 7.7 0.1 7.3 L0.2 6.9 0.2 6.8 0.0 6.7 0.0 6.6 M1.1 7.45 L0.9 7.5 1.1 7.7 1.5 8.05 1.5 8.0 1.45 7.65 Q1.4 7.45 1.1 7.45 M1.25 11.0 L1.2 10.95 1.3 10.8 1.25 11.0 M1.0 13.0 Q0.9 13.05 0.9 13.1 L0.9 13.25 Q0.9 13.4 0.95 13.5 L1.0 13.5 Q0.95 13.45 0.95 13.25 1.0 13.15 1.0 13.05 L1.0 13.0 M0.65 15.9 L0.65 16.05 0.7 16.05 0.8 16.05 0.75 15.95 0.75 15.9 0.7 15.85 0.65 15.9 M1.0 15.9 L0.95 15.85 0.85 15.9 Q0.8 15.95 0.8 16.05 L0.95 16.1 1.05 15.95 1.0 15.9 M0.75 17.45 L0.8 17.3 0.75 17.35 0.75 17.45 M0.4 19.1 L0.45 19.1 0.45 19.15 0.4 19.1 M0.4 19.5 L0.4 19.4 0.45 19.3 0.5 19.4 0.55 19.5 0.4 19.5 M0.05 23.75 Q0.35 23.75 0.45 23.6 0.25 23.7 0.25 23.55 L0.3 23.35 Q0.3 22.95 -0.1 23.15 L-0.25 23.2 -0.45 23.1 Q-0.6 23.1 -0.75 23.45 -0.75 23.6 -0.55 23.7 L-0.5 23.75 -0.45 23.75 Q-0.4 23.9 -0.2 23.9 -0.1 23.9 0.05 23.75 M0.3 25.4 L0.3 25.5 0.2 25.8 Q0.1 26.05 -0.1 26.05 -0.25 26.05 -0.3 25.9 L-0.35 25.75 Q-0.35 25.5 -0.2 25.4 L0.25 25.4 0.3 25.4 M-3.3 4.65 Q-3.2 4.55 -3.15 4.55 -2.95 4.55 -2.9 4.65 L-2.9 4.8 -3.05 4.8 Q-3.1 4.85 -3.1 5.0 L-3.1 5.15 Q-3.05 5.55 -2.65 5.6 L-2.65 5.65 Q-2.6 5.85 -2.4 5.85 -2.2 5.85 -2.0 5.65 L-1.95 5.65 Q-1.8 5.65 -1.7 5.55 L-1.7 5.55 Q-1.95 5.8 -1.95 6.05 L-1.95 6.15 Q-2.0 6.05 -2.1 6.0 L-2.1 5.85 -2.2 5.9 -2.5 6.0 -2.5 6.05 -2.65 6.0 Q-2.8 6.0 -2.85 6.2 L-2.85 6.15 Q-2.85 5.95 -2.7 5.8 L-2.65 5.75 Q-3.15 5.55 -3.3 5.15 L-3.35 4.85 -3.3 4.65 M-2.25 4.15 L-2.0 4.1 Q-1.55 4.1 -1.55 4.55 -1.55 4.6 -1.6 4.7 L-1.65 4.75 -1.65 4.7 Q-1.6 4.55 -1.6 4.45 -1.6 4.15 -1.85 4.25 -2.0 4.25 -2.05 4.4 L-2.25 4.45 -2.2 4.3 Q-2.2 4.2 -2.25 4.15 M-0.9 4.05 L-1.0 4.05 -1.0 4.05 -0.9 4.0 -0.9 4.05 M-2.8 4.9 L-2.8 4.7 Q-2.8 4.5 -2.7 4.4 -2.7 4.55 -2.5 4.6 L-2.55 4.7 -2.55 4.75 Q-2.75 4.75 -2.8 4.9 M-2.5 5.4 L-2.7 5.2 -2.7 5.2 -2.45 5.25 -2.35 5.25 -2.3 5.25 Q-2.45 5.35 -2.5 5.4 M-1.65 8.4 L-1.7 8.35 -1.85 8.3 -1.7 8.4 -1.65 8.4 M-0.05 10.55 Q-0.05 10.95 -0.3 10.65 -0.15 10.65 -0.05 10.55 L-0.05 10.55 M-1.65 11.8 L-1.65 11.8 M-1.55 12.25 L-1.55 12.25 M-1.2 16.8 L-1.25 17.05 -1.2 17.2 -1.1 17.25 Q-0.8 17.3 -0.8 17.1 L-0.85 17.0 -0.95 16.85 -1.2 16.85 -1.2 16.8 M-0.4 18.85 L-0.5 18.95 -0.5 18.95 -0.15 19.0 Q-0.1 19.0 -0.1 18.9 L-0.2 18.8 -0.3 18.8 -0.4 18.85 M-0.85 21.6 L-0.85 21.75 Q-0.75 21.75 -0.65 21.65 L-0.6 21.45 -0.6 21.4 -0.7 21.4 Q-0.8 21.4 -0.85 21.5 L-0.85 21.6 M-0.1 25.45 L-0.15 25.45 -0.1 25.65 -0.05 25.65 0.0 25.5 -0.1 25.45" fill="#ffb55b" fill-rule="evenodd" stroke="none"/>
    <path d="M2.4 5.6 Q2.55 5.95 2.55 6.2 L2.5 6.45 2.25 6.7 Q2.15 6.65 2.0 6.6 2.1 6.4 2.1 6.25 2.1 6.2 2.05 6.2 L2.0 6.2 Q1.95 5.7 1.45 5.35 L1.55 5.55 1.55 5.8 Q1.15 5.7 0.9 5.6 L0.8 5.3 Q0.8 5.2 0.8 5.15 L0.85 5.1 0.9 5.05 Q0.55 4.9 0.15 4.8 0.15 4.65 0.25 4.5 0.45 4.3 0.75 4.3 L0.85 4.3 0.9 4.35 0.9 4.45 Q1.0 4.5 1.05 4.5 1.15 4.5 1.15 4.4 L1.15 4.35 1.2 4.4 1.25 4.4 Q1.25 4.5 1.35 4.5 L1.45 4.45 1.5 4.5 Q1.7 4.6 1.85 4.75 L1.8 4.8 1.9 4.8 2.15 5.15 2.2 5.2 2.3 5.45 2.3 5.6 2.4 5.6 M1.2 4.8 L1.05 4.8 Q0.95 4.85 0.95 4.95 L1.0 5.0 1.1 5.1 1.35 5.15 1.55 5.15 1.6 5.1 1.35 4.9 1.4 4.85 Q1.35 4.8 1.2 4.8 M2.05 6.0 L2.05 5.65 Q1.95 5.2 1.75 5.2 1.65 5.2 1.65 5.25 L1.65 5.3 Q1.85 5.35 1.9 5.6 L2.0 6.0 2.05 6.0" fill="#eeff5b" fill-rule="evenodd" stroke="none"/>
    <path d="M4.05 4.35 L4.05 4.4 Q3.8 4.75 3.25 4.8 3.45 5.2 3.45 5.45 L3.4 5.75 3.1 6.0 2.8 5.9 2.65 6.05 2.35 6.3 Q2.6 6.35 2.8 6.45 L2.6 6.85 2.5 7.2 2.45 7.15 2.35 7.0 2.35 7.45 Q2.3 7.95 1.9 8.2 L1.95 8.3 2.05 8.45 2.1 8.7 2.05 8.8 2.05 8.8 1.95 9.35 1.95 9.45 1.95 9.55 Q1.95 9.6 1.95 9.6 L1.9 9.9 1.85 10.1 Q1.8 10.2 1.7 10.2 1.7 10.3 1.5 10.5 L1.45 10.55 1.0 10.5 0.75 10.7 Q0.95 10.8 1.05 10.95 1.1 10.85 1.3 10.8 L1.35 10.9 1.45 10.95 1.55 10.8 Q1.7 10.85 1.75 10.9 L1.7 11.5 1.6 11.6 Q1.45 11.75 1.25 11.8 1.1 12.1 0.6 12.2 L0.55 12.2 0.7 12.3 0.75 12.45 Q0.8 12.3 1.1 12.3 L1.15 12.3 1.4 12.75 1.55 13.05 1.6 13.05 1.55 13.65 1.55 14.1 1.45 14.0 1.4 14.0 1.3 13.95 Q1.15 13.65 1.0 13.55 L1.05 13.35 1.05 13.25 Q1.0 13.4 0.9 13.4 0.75 13.4 0.85 13.25 L0.7 13.0 0.65 12.85 0.35 12.65 0.3 12.65 Q-0.3 12.9 -0.3 13.85 L-0.25 14.1 0.25 14.15 Q0.6 14.15 0.8 13.95 L0.85 14.05 0.85 14.1 Q0.35 14.35 0.35 14.55 L0.7 14.3 Q0.8 14.25 0.9 14.2 1.05 14.5 1.1 14.75 0.9 14.65 0.85 14.5 L0.5 14.55 0.5 14.65 Q0.5 14.8 0.55 15.0 0.7 15.25 0.9 15.5 1.0 15.2 1.1 15.0 1.25 14.8 1.4 14.7 L1.45 14.5 1.4 14.4 1.55 14.45 1.55 14.9 1.45 14.85 1.35 15.0 1.25 15.1 Q1.05 15.4 1.05 15.5 1.05 15.6 1.1 15.65 L1.3 15.85 1.3 15.75 Q1.3 15.65 1.45 15.45 L1.55 15.4 1.55 16.35 1.65 16.5 Q1.75 16.65 1.75 16.9 1.75 17.4 1.4 17.75 L1.4 18.3 1.15 18.05 0.9 18.25 0.85 18.1 0.7 18.1 Q0.5 18.05 0.5 17.8 L0.55 17.65 0.7 17.45 0.75 17.45 0.65 17.55 0.6 17.65 Q0.6 17.75 0.75 17.8 L0.75 17.85 Q0.95 17.5 0.95 17.2 L0.9 17.05 0.9 16.95 0.85 16.8 Q0.7 16.5 0.7 16.4 L0.7 16.25 Q0.75 16.2 0.85 16.2 L0.75 16.15 0.6 16.2 0.45 16.2 Q0.4 16.3 0.25 16.35 L-0.25 16.45 -0.15 16.55 Q-0.1 16.7 -0.1 16.8 -0.1 17.1 -0.15 17.35 -0.05 17.45 0.1 17.45 0.3 17.45 0.5 17.3 L0.7 17.1 0.6 16.9 Q0.45 16.75 0.3 16.75 0.15 16.75 -0.05 17.15 L-0.1 17.0 -0.05 16.75 Q0.05 16.55 0.3 16.55 0.55 16.55 0.75 16.8 L0.85 17.05 Q0.85 17.4 0.3 17.5 0.0 17.55 -0.2 17.45 -0.3 17.85 -0.55 18.05 -0.5 18.15 -0.5 18.25 L-0.5 18.35 -0.3 18.4 0.15 18.3 0.15 18.25 Q0.15 17.95 0.35 17.85 0.4 18.15 0.6 18.45 L0.7 18.45 Q1.0 18.45 1.2 18.7 L1.0 18.7 Q0.4 18.85 0.4 19.2 0.25 18.95 0.2 18.65 L0.05 18.7 0.15 18.75 0.05 18.8 Q0.05 18.75 -0.15 18.75 L-0.35 18.7 Q-0.5 18.7 -0.6 18.85 L-0.65 19.0 -0.65 19.2 -0.5 19.05 Q-0.4 18.95 -0.3 18.95 0.05 18.95 0.2 19.25 0.2 19.65 -0.35 19.6 -0.85 19.6 -0.85 19.1 -0.85 18.65 -0.6 18.55 L-0.7 18.45 -0.75 18.45 -1.0 18.7 Q-1.3 19.0 -1.3 19.2 -1.3 19.45 -1.1 19.7 -0.8 20.2 -0.2 20.1 0.1 20.0 0.15 19.8 L0.25 19.45 Q0.25 19.4 0.35 19.4 L0.5 19.55 0.5 19.75 Q0.5 20.0 0.4 20.15 L0.45 20.2 0.55 20.05 0.75 20.0 Q1.1 20.0 1.3 20.4 L1.3 20.2 1.25 20.1 1.2 20.05 1.4 19.95 1.4 20.1 1.35 20.5 1.35 20.6 Q1.2 20.55 1.1 20.55 0.9 20.5 0.85 20.8 L0.85 20.85 Q0.85 20.95 0.95 21.15 1.0 21.35 1.0 21.45 L0.95 21.7 0.85 21.55 Q0.7 21.85 0.35 21.85 0.35 21.5 -0.15 21.6 L-0.2 21.6 Q-0.25 21.5 -0.25 21.45 -0.25 21.3 -0.1 21.15 L-0.05 21.1 -0.05 21.2 0.05 21.3 0.0 21.4 Q0.0 21.5 0.25 21.6 0.55 21.7 0.55 21.6 0.55 21.5 0.45 21.35 0.6 21.25 0.7 21.05 L0.75 20.95 0.75 20.9 0.8 20.7 0.8 20.55 Q0.75 20.2 0.4 20.3 0.3 20.3 0.3 20.35 L0.25 20.3 0.15 20.4 Q-0.05 20.5 -0.3 20.5 -0.35 20.95 -0.75 21.3 L-0.9 21.35 -0.9 21.4 -0.8 21.6 -0.7 21.75 -0.7 21.8 -0.65 21.85 -0.55 21.85 -0.6 22.1 -0.6 22.15 -0.65 22.1 -0.65 22.2 -0.6 22.8 Q-0.5 23.65 0.3 23.65 0.55 23.65 1.15 23.2 L1.0 23.05 1.05 22.95 Q1.1 22.8 1.1 22.65 1.1 22.5 0.95 22.4 L0.85 22.35 0.9 22.2 1.0 22.3 1.1 22.1 1.35 22.1 1.45 22.1 Q1.4 22.35 1.25 22.5 L1.3 22.5 1.35 22.5 1.35 22.6 1.4 22.65 Q1.35 22.7 1.35 22.8 1.35 23.1 1.7 23.1 L1.7 23.4 Q1.7 23.7 1.45 23.95 1.65 23.7 1.65 23.55 1.65 23.05 1.05 23.35 0.5 23.65 0.5 23.95 L0.55 24.15 0.65 24.2 Q0.75 24.3 0.9 24.3 1.15 24.3 1.4 24.05 L1.45 24.5 1.15 24.7 0.75 24.9 0.55 24.85 Q0.25 24.9 0.15 25.1 L-0.45 25.1 -0.45 25.2 Q-0.5 25.8 -0.25 25.8 0.05 25.8 0.15 25.55 L0.35 25.65 0.2 25.8 Q-0.1 26.15 -0.4 26.0 -0.25 26.2 0.1 26.0 0.4 25.85 0.5 25.7 0.75 25.7 0.85 25.5 L0.85 25.55 Q0.85 26.1 0.05 26.35 -0.75 26.55 -0.75 26.1 -0.75 26.05 -0.65 26.0 L-0.45 26.0 Q-0.65 25.85 -0.7 25.6 L-0.7 25.2 -0.75 25.05 -1.05 24.85 -1.0 24.7 -1.05 23.85 Q-0.9 23.8 -0.9 23.55 L-0.95 23.4 -1.05 23.2 -1.1 23.15 -1.15 23.15 -1.15 22.8 -1.15 22.4 Q-1.15 22.0 -1.0 21.95 L-1.2 21.75 -1.2 21.6 -1.25 21.25 -1.25 21.2 Q-1.1 21.05 -0.95 20.65 L-0.8 20.4 Q-1.15 20.3 -1.35 20.15 L-1.4 19.5 -1.5 18.55 -1.5 18.1 -1.5 18.0 Q-1.85 17.6 -1.85 17.25 -1.85 16.7 -1.35 16.7 -1.15 16.7 -1.0 16.9 L-1.05 16.9 -0.95 17.0 -0.8 17.15 -0.65 16.9 Q-0.65 16.75 -1.05 16.55 L-1.15 16.5 -1.3 16.5 -1.3 16.45 -1.45 16.45 -1.45 16.25 -1.4 16.15 -1.4 16.1 -1.2 16.1 Q-1.25 16.05 -1.3 16.05 L-1.45 15.9 Q-1.45 15.55 -1.5 15.05 L-1.5 15.0 -1.55 14.7 -1.6 14.25 -1.35 13.9 -1.65 13.8 -1.7 13.8 -1.75 13.55 -1.75 13.35 -1.55 13.4 -1.2 13.4 Q-1.45 13.35 -1.8 13.2 L-1.85 12.85 -1.75 12.95 Q-1.5 13.15 -0.95 13.3 L-0.8 13.25 -0.5 13.3 -0.35 12.9 Q-0.6 13.0 -0.95 12.9 -1.2 12.85 -1.4 12.7 -1.65 12.6 -1.75 12.45 L-1.8 12.3 -1.9 12.15 -1.95 12.3 -2.0 12.1 Q-2.4 12.05 -2.6 11.75 -2.75 11.55 -2.75 11.35 -2.75 11.05 -2.5 10.8 -2.35 10.7 -2.1 10.65 L-2.15 10.25 -2.15 10.05 -2.2 9.65 -2.2 9.35 -2.25 9.25 Q-2.0 9.45 -1.45 9.55 -1.3 9.45 -1.2 9.3 L-1.15 9.2 -0.95 9.25 -0.85 9.25 Q-0.6 9.15 -0.5 8.75 L-0.45 8.5 -0.4 8.65 -0.4 8.65 -0.3 8.6 Q-0.25 8.55 -0.2 8.5 L-0.25 8.7 -0.2 8.8 -0.15 8.9 Q-0.05 9.05 0.15 9.05 L0.45 8.95 0.45 9.0 Q0.5 8.95 0.55 8.95 L0.65 9.0 0.75 9.1 0.6 9.15 Q0.55 9.15 0.55 9.2 L0.55 9.4 Q0.55 9.6 0.9 9.8 L1.05 9.85 1.5 9.9 1.5 9.85 1.6 9.35 1.4 9.3 1.25 9.45 1.1 9.55 Q1.0 9.45 1.0 9.35 1.0 9.25 1.1 9.15 1.2 9.0 1.4 9.0 L1.65 9.05 1.7 8.65 1.4 8.65 1.35 8.7 1.3 8.7 Q0.85 8.75 0.55 8.85 L0.65 8.75 0.75 8.55 0.75 8.35 0.7 8.05 0.75 8.05 1.0 8.1 1.15 8.05 1.45 8.1 1.7 8.1 1.75 8.1 Q1.9 8.0 2.0 7.8 L2.1 7.55 1.95 7.45 1.5 7.05 Q1.3 7.05 1.2 7.0 L1.15 7.05 1.15 7.2 Q1.15 7.3 1.3 7.45 1.45 7.55 1.45 7.7 L1.35 7.75 Q1.0 7.75 0.9 7.4 L0.85 7.4 Q0.75 7.5 0.65 7.5 0.45 7.5 0.4 7.2 L0.35 6.95 Q0.1 7.2 -0.4 7.2 L-0.9 7.2 Q-0.75 7.65 -0.3 7.8 L0.1 7.95 0.15 7.9 0.25 7.85 0.1 7.95 0.05 7.95 Q-0.05 8.05 -0.15 8.35 L-0.15 8.35 -0.45 8.3 -0.45 8.2 Q-0.45 7.7 -0.9 7.55 L-0.95 7.55 -1.15 7.5 Q-1.2 7.3 -1.4 7.2 L-1.6 7.1 -1.65 6.7 -1.95 6.45 -2.4 5.95 -2.65 6.15 Q-2.7 6.25 -2.7 6.6 -2.7 6.85 -2.45 7.1 L-2.5 7.2 Q-2.3 7.6 -2.05 7.8 L-2.05 7.8 Q-2.0 8.0 -1.65 8.0 -1.45 8.0 -1.35 7.95 L-1.3 7.95 -1.3 8.0 Q-1.2 8.15 -1.2 8.2 L-1.25 8.35 -1.3 8.4 -2.0 8.3 -2.05 8.4 -2.05 8.55 Q-2.05 8.8 -1.75 8.75 -1.4 8.75 -1.4 8.9 L-1.5 9.0 -1.65 9.05 Q-2.1 9.05 -2.3 8.85 -2.4 8.2 -2.5 7.65 L-2.9 7.35 Q-3.1 7.1 -3.1 6.6 L-3.05 6.15 -3.05 6.15 Q-2.9 6.15 -2.7 6.05 -2.55 6.0 -2.45 5.9 L-2.4 5.7 -2.4 5.65 -2.4 5.5 Q-2.35 5.6 -2.15 5.6 -2.05 5.6 -1.9 5.45 -1.85 5.7 -1.6 6.0 L-1.6 6.0 -1.4 5.65 -1.3 5.5 -1.2 5.5 Q-1.0 5.5 -0.9 5.35 -0.8 5.25 -0.8 5.15 L-0.85 5.05 Q-0.65 5.0 -0.45 4.9 L-0.3 4.95 0.0 4.9 0.1 4.85 0.3 4.65 Q0.4 4.5 0.4 4.25 L0.4 4.35 0.45 4.65 0.45 4.85 Q1.05 4.9 1.3 5.15 1.45 5.3 1.45 5.45 1.4 5.55 1.4 5.75 L1.4 6.0 Q1.0 6.1 0.85 6.25 L0.6 6.2 0.6 6.4 0.8 6.3 0.75 6.35 0.85 6.45 1.0 6.45 0.9 6.5 1.1 6.7 Q1.3 6.55 1.55 6.55 1.85 6.55 2.0 6.65 1.8 6.4 1.45 6.35 L1.95 6.25 2.15 6.25 2.55 5.85 2.6 5.65 Q2.65 5.5 2.75 5.45 2.65 4.9 2.05 4.55 L2.2 4.8 2.15 5.05 1.35 4.8 1.15 4.5 Q1.15 4.4 1.2 4.35 L1.25 4.3 1.3 4.2 0.3 3.95 Q0.3 3.75 0.45 3.6 0.7 3.45 1.1 3.45 L1.25 3.45 1.0 3.3 0.85 3.3 Q0.65 3.3 0.15 3.55 L0.1 3.55 0.1 3.6 0.05 3.75 -0.05 3.85 0.1 3.95 -0.2 4.05 -0.6 4.35 -0.65 4.35 Q-1.15 4.35 -1.45 4.55 L-1.75 4.35 -1.85 4.35 -2.0 4.35 -2.0 4.05 -1.85 3.95 -1.85 3.9 Q-1.85 3.7 -1.7 3.55 L-1.65 3.7 Q-1.55 3.85 -1.3 3.85 -0.95 3.85 -0.8 3.7 L-0.3 3.8 -0.3 3.7 -0.35 3.75 Q-0.5 3.75 -0.5 3.65 L-0.65 3.6 -0.65 3.45 -0.4 3.45 Q-0.2 3.45 -0.1 3.35 L-0.05 3.2 0.15 3.25 Q0.4 3.25 0.65 3.1 L0.75 3.05 1.0 2.95 1.4 2.95 Q1.85 3.05 2.0 3.15 L2.05 3.25 2.2 3.25 2.1 3.0 Q2.2 3.1 2.6 3.1 2.95 3.1 3.2 2.95 L3.25 2.85 3.2 2.9 3.25 2.9 3.3 2.85 3.35 2.65 Q3.35 2.1 2.7 2.35 2.2 2.5 2.1 2.7 2.15 1.55 3.0 1.35 L3.65 1.4 Q3.95 1.55 3.95 1.85 3.95 2.0 3.75 2.15 L3.55 2.3 3.6 2.65 3.65 3.0 Q3.65 3.15 3.5 3.3 L3.55 3.3 Q3.9 3.3 4.1 3.55 L4.15 3.8 Q4.15 4.15 4.05 4.35 M2.95 1.95 L3.2 2.0 3.4 1.95 3.5 1.9 3.5 1.8 Q3.5 1.7 3.3 1.65 3.05 1.65 2.85 1.85 2.7 1.9 2.95 1.95 M0.05 1.9 Q0.35 1.9 0.55 2.1 0.7 2.25 0.75 2.5 L0.35 2.45 0.2 2.35 Q0.0 2.2 -0.15 2.2 -0.3 2.5 -0.3 2.65 L-0.3 2.75 -0.6 2.65 -0.65 2.65 Q-0.6 1.85 0.05 1.9 M1.45 3.3 L1.6 3.45 1.7 3.5 1.7 3.45 1.8 3.35 Q1.75 3.2 1.35 3.15 L1.3 3.15 1.45 3.3 M2.1 3.6 Q2.35 3.7 2.5 3.9 L2.55 3.85 Q2.55 3.7 2.15 3.65 L2.1 3.6 M3.0 4.4 L3.2 4.65 3.4 4.55 3.6 4.35 3.65 4.25 3.6 3.8 3.55 3.8 Q3.5 3.45 3.05 3.35 2.55 3.2 2.55 3.6 L2.7 3.95 2.6 3.95 2.95 4.35 3.0 4.4 M2.15 5.4 Q2.0 5.3 1.8 5.3 L1.6 5.3 1.45 5.4 1.5 5.3 1.45 5.1 1.75 5.15 2.15 5.15 2.15 5.4 M2.2 5.25 Q2.2 5.1 2.3 5.1 2.5 5.1 2.5 5.45 2.5 5.9 2.2 6.1 L2.25 5.9 2.2 5.55 2.2 5.25 M2.05 7.05 Q1.95 6.8 1.55 6.8 L1.3 6.85 1.6 7.1 Q1.95 7.35 2.1 7.5 L2.1 7.4 2.05 7.05 M1.25 5.7 Q1.0 5.7 0.9 5.6 L0.65 5.4 -0.1 5.4 Q0.25 5.45 0.45 5.8 L0.55 6.0 Q1.1 6.0 1.35 5.65 L1.25 5.7 M1.5 6.15 L1.45 6.1 1.5 6.15 M0.15 5.9 L0.3 5.95 0.3 6.0 Q0.1 5.55 -0.2 5.55 L-0.25 5.55 Q-0.05 5.6 0.1 5.9 L0.1 5.95 0.15 5.9 M0.15 6.05 L0.25 6.25 Q0.15 6.5 0.15 6.6 L0.1 6.6 Q0.05 6.45 0.0 6.1 -0.1 5.85 -0.4 5.8 L-0.45 5.75 -0.45 5.6 -0.65 5.75 -0.65 6.05 Q-0.55 6.15 -0.15 6.05 L-0.05 6.15 Q-0.05 6.3 -0.5 6.3 -0.85 6.3 -0.95 6.1 L-0.95 6.05 -1.0 6.6 -0.95 6.95 Q-0.7 7.1 -0.3 7.1 0.1 7.1 0.3 6.65 L0.4 6.25 0.4 6.15 0.15 6.05 M0.2 9.2 L0.2 9.1 Q0.0 9.3 -0.05 9.55 L-0.3 9.5 Q-0.5 9.5 -0.6 9.6 L-0.65 9.4 -0.8 9.55 -0.9 9.6 -0.75 9.6 -0.65 9.65 Q-0.75 9.75 -0.75 9.95 L-0.7 10.1 -0.9 10.15 -1.7 10.0 Q-1.9 10.25 -1.9 10.45 -1.9 10.55 -1.8 10.7 L-1.45 10.8 -1.5 10.9 -0.75 11.1 -0.6 11.1 -0.3 11.05 -0.2 11.0 -0.2 11.05 -0.15 11.1 Q-0.1 11.15 -0.1 11.2 -0.1 11.5 -0.5 11.65 L-1.15 11.7 -1.25 11.85 -1.2 11.85 Q-0.95 12.5 -0.75 12.5 -0.4 12.5 -0.25 12.25 L-0.1 12.0 -0.1 11.85 Q-0.1 11.7 0.05 11.6 0.25 11.4 0.5 11.4 0.75 11.4 0.75 11.55 L0.75 11.6 0.7 11.6 0.8 11.8 Q0.8 11.95 0.45 12.0 0.75 12.0 0.9 11.8 L0.85 11.8 0.85 11.75 0.8 11.65 Q0.8 11.55 0.85 11.5 L1.05 11.5 1.05 11.4 0.95 11.25 Q0.95 11.2 1.0 11.2 L0.95 11.1 Q0.85 10.9 0.6 10.85 0.45 10.95 0.35 10.95 L0.2 10.95 0.2 11.0 0.15 10.95 0.1 10.9 0.05 10.85 0.05 10.65 Q0.05 10.45 0.35 10.15 0.45 10.0 0.6 9.95 0.2 9.7 0.2 9.2 M1.8 9.75 L1.6 9.9 1.55 9.9 1.6 9.95 1.75 9.85 1.8 9.75 M1.85 10.2 L1.85 10.25 1.8 10.25 1.85 10.2 M1.7 10.65 L1.8 10.5 1.8 10.7 1.7 10.65 M1.35 14.15 L1.3 14.05 1.45 14.05 1.35 14.15 M1.4 11.3 L1.35 11.25 1.4 11.3 M0.1 11.85 L0.1 11.9 0.4 11.6 Q0.1 11.65 0.1 11.85 M0.1 12.2 L0.05 12.5 0.25 12.45 0.25 12.4 Q0.25 12.35 0.3 12.25 L0.4 12.25 0.1 12.2 M0.05 10.2 L0.05 10.25 Q0.05 10.65 -0.25 10.3 -0.05 10.3 0.05 10.2 M0.2 15.65 Q0.0 15.35 -0.05 15.0 L-0.1 14.7 -0.1 14.55 -0.45 14.45 -0.5 14.4 -0.5 14.45 Q-0.5 14.5 -0.75 14.65 -1.0 14.8 -1.0 14.95 L-1.0 15.0 Q-1.0 15.15 -0.8 15.45 L-0.65 15.8 Q-0.65 16.0 -0.95 15.7 -0.7 15.95 -0.4 16.05 L-0.15 16.1 -0.15 16.05 0.1 15.75 0.2 15.65 M1.0 20.05 L1.1 20.05 1.05 20.1 1.0 20.05 M0.65 19.5 L0.7 19.55 0.7 19.6 0.65 19.5 M0.85 19.95 L0.7 20.0 0.65 19.95 Q0.6 19.95 0.6 19.9 L0.7 19.8 0.75 19.9 0.85 19.95 M0.2 24.65 Q0.55 24.6 0.75 24.45 0.45 24.55 0.4 24.4 L0.5 24.2 Q0.5 23.75 0.0 23.95 L-0.2 24.0 -0.5 23.9 Q-0.65 23.9 -0.9 24.3 -0.9 24.45 -0.6 24.55 L-0.5 24.6 -0.5 24.6 Q-0.4 24.8 -0.15 24.8 0.0 24.8 0.2 24.65 M0.25 22.65 L0.3 22.65 0.25 22.8 0.3 23.0 0.4 23.1 Q0.3 23.3 0.05 23.45 -0.3 23.7 -0.3 23.15 L-0.3 23.0 Q-0.2 22.9 -0.05 22.9 L0.15 22.9 0.15 22.95 0.0 23.1 -0.1 23.25 -0.05 23.4 0.15 23.2 0.25 23.0 Q0.25 22.85 0.1 22.65 -0.1 22.4 -0.4 22.5 L-0.3 22.45 -0.25 22.45 -0.1 22.4 Q0.1 22.45 0.25 22.65 M0.0 27.1 Q-0.2 27.1 -0.3 26.95 L-0.35 26.8 Q-0.35 26.55 -0.15 26.4 L0.45 26.4 0.5 26.4 0.5 26.55 Q0.5 26.7 0.4 26.85 0.25 27.1 0.0 27.1 M0.1 26.5 L0.0 26.5 -0.05 26.5 0.0 26.7 0.05 26.7 Q0.05 26.6 0.1 26.5 M-2.85 3.55 L-2.8 3.4 Q-2.8 3.3 -2.85 3.25 L-2.5 3.2 Q-1.95 3.2 -1.95 3.65 -1.95 3.75 -2.0 3.85 L-2.05 3.9 -2.05 3.8 Q-1.95 3.65 -1.95 3.55 -1.95 3.25 -2.3 3.35 -2.5 3.35 -2.6 3.55 L-2.85 3.55 M-3.45 3.5 Q-3.45 3.7 -3.2 3.7 L-3.25 3.85 -3.25 3.9 Q-3.5 3.9 -3.55 4.05 L-3.55 3.85 Q-3.55 3.65 -3.45 3.5 M-3.7 3.95 L-3.9 3.95 Q-3.95 4.0 -3.95 4.2 L-3.95 4.35 Q-3.85 4.75 -3.35 4.8 L-3.35 4.85 Q-3.3 5.1 -3.05 5.1 -2.8 5.1 -2.5 4.85 L-2.4 4.85 Q-2.25 4.85 -2.15 4.75 L-2.1 4.8 Q-2.4 5.0 -2.4 5.35 L-2.4 5.4 Q-2.5 5.3 -2.65 5.3 L-2.65 5.1 -2.8 5.15 -3.2 5.3 -3.2 5.3 -3.4 5.25 Q-3.55 5.25 -3.65 5.45 L-3.65 5.45 Q-3.65 5.25 -3.45 5.05 L-3.35 5.0 Q-4.0 4.8 -4.2 4.35 L-4.25 4.0 -4.2 3.8 -4.0 3.7 Q-3.75 3.7 -3.7 3.75 L-3.7 3.95 M-3.4 4.35 L-3.1 4.4 -2.95 4.4 -2.9 4.45 Q-3.1 4.55 -3.2 4.65 L-3.4 4.4 -3.4 4.35 M-1.2 3.15 L-1.05 3.05 -1.05 3.1 -1.15 3.1 -1.2 3.15 M-2.0 9.95 L-2.1 10.05 -2.05 10.05 Q-2.05 9.95 -1.95 9.95 L-2.0 9.95 M-1.95 10.95 L-2.05 10.95 -2.05 11.0 -2.0 11.0 -1.95 11.05 -1.95 11.05 Q-1.85 11.2 -1.65 11.25 L-1.5 11.25 -1.5 11.3 -1.45 11.3 -1.45 11.25 Q-1.45 11.2 -1.4 11.2 L-1.35 11.2 -1.25 11.2 -1.95 10.95 M-1.95 11.65 L-2.05 11.6 -2.05 11.65 -2.0 11.65 -1.95 11.65 M-1.9 12.1 L-1.9 12.1 -1.95 12.1 -1.9 12.1 M-2.1 10.95 L-2.25 11.1 -2.35 11.3 -2.2 11.5 -2.05 11.65 -2.05 11.35 -2.1 11.2 -2.1 10.95 M-1.05 14.35 Q-1.3 14.65 -1.35 14.75 L-1.25 14.6 Q-1.05 14.35 -0.65 14.3 -0.85 14.2 -0.85 14.05 L-0.8 13.95 -0.85 14.0 -1.05 14.35 M-0.5 13.75 L-0.55 13.8 -0.45 13.95 -0.5 13.75 M-1.15 17.05 L-1.5 17.1 -1.5 17.3 -1.45 17.5 -1.3 17.5 Q-0.95 17.55 -0.95 17.35 L-1.0 17.25 Q-1.1 17.1 -1.15 17.05 M-0.95 16.3 Q-0.95 16.4 -1.0 16.45 L-0.95 16.5 Q-0.75 16.6 -0.6 16.7 L-0.6 16.65 Q-0.6 16.5 -0.5 16.4 L-0.6 16.4 -0.95 16.25 -0.95 16.3 M-1.15 17.85 Q-1.0 17.75 -0.9 17.75 -0.7 17.6 -0.65 17.3 -0.8 17.5 -1.15 17.6 L-1.35 17.65 -1.15 17.85 M-0.5 19.4 L-0.05 19.4 0.0 19.3 Q0.0 19.3 -0.1 19.25 L-0.25 19.2 Q-0.35 19.2 -0.45 19.25 L-0.5 19.4 -0.5 19.4" fill="#ffb55b" fill-opacity="0.0" fill-rule="evenodd" stroke="none"/>
  </g>
</svg>
