<?xml version="1.0" encoding="UTF-8" standalone="no"?>
<svg xmlns:xlink="http://www.w3.org/1999/xlink" height="4.25px" width="4.25px" xmlns="http://www.w3.org/2000/svg">
  <g transform="matrix(1.0, 0.0, 0.0, 1.0, 2.2, 2.05)">
    <path d="M1.75 -2.0 L1.8 -2.0 1.85 -2.0 1.9 -2.0 1.95 -2.0 1.95 -2.0 1.95 -1.95 1.95 -1.9 1.95 -1.85 1.9 -1.85 1.9 -1.85 1.85 -1.85 1.8 -1.9 1.8 -1.95 1.8 -1.95 1.75 -1.95 1.75 -2.0" fill="#5d5d5d" fill-rule="evenodd" stroke="none"/>
    <path d="M1.7 -1.8 L1.7 -1.85 1.7 -1.9 1.75 -1.95 1.75 -2.0 1.75 -1.95 1.8 -1.95 1.8 -1.95 1.8 -1.9 1.8 -1.9 1.75 -1.8 1.75 -1.8 1.7 -1.8 M1.95 -1.95 L1.95 -1.95 2.0 -1.95 2.0 -1.85 1.95 -1.8 1.95 -1.8 1.9 -1.85 1.95 -1.85 1.95 -1.9 1.95 -1.95" fill="#9ba0a4" fill-rule="evenodd" stroke="none"/>
    <path d="M1.95 -2.0 L2.0 -1.85 2.0 -1.8 1.95 -1.75 1.9 -1.75 1.85 -1.75 1.85 -1.75 1.8 -1.8 1.8 -1.75 1.75 -1.8 1.75 -1.8 1.8 -1.9 1.8 -1.9 1.85 -1.85 1.9 -1.85 1.9 -1.85 1.95 -1.8 1.95 -1.8 2.0 -1.85 2.0 -1.95 1.95 -1.95 1.95 -1.95 1.95 -2.0" fill="#7c7879" fill-rule="evenodd" stroke="none"/>
    <path d="M1.95 -1.75 L1.95 -1.7 1.9 -1.7 1.85 -1.65 1.75 -1.65 1.8 -1.7 1.8 -1.75 1.8 -1.8 1.85 -1.75 1.85 -1.75 1.9 -1.75 1.95 -1.75 M1.65 -1.5 L1.6 -1.5 1.5 -1.35 1.4 -1.25 1.35 -1.15 1.2 -1.0 1.15 -1.0 1.0 -0.85 0.95 -0.8 0.95 -0.8 0.9 -0.75 0.85 -0.75 0.8 -0.8 0.85 -0.8 0.9 -0.85 0.9 -0.85 1.0 -0.95 1.0 -1.0 1.0 -1.05 1.05 -1.05 1.1 -1.05 1.15 -1.1 1.15 -1.1 1.25 -1.15 1.25 -1.2 1.3 -1.2 1.3 -1.25 1.3 -1.3 1.35 -1.35 1.35 -1.35 1.4 -1.35 1.4 -1.4 1.5 -1.4 1.5 -1.5 1.55 -1.5 1.6 -1.5 1.65 -1.5 M0.85 -0.75 L0.85 -0.75" fill="#433937" fill-rule="evenodd" stroke="none"/>
    <path d="M1.75 -1.65 L1.75 -1.65 1.65 -1.5 1.6 -1.5 1.55 -1.5 1.5 -1.5 1.5 -1.4 1.4 -1.4 1.4 -1.35 1.35 -1.35 1.35 -1.35 1.3 -1.3 1.3 -1.25 1.3 -1.2 1.25 -1.2 1.25 -1.15 1.15 -1.1 1.15 -1.1 1.1 -1.05 1.05 -1.05 1.0 -1.05 1.0 -1.0 1.0 -0.95 0.9 -0.85 0.9 -0.85 0.85 -0.8 0.8 -0.8 0.8 -0.8 0.7 -0.85 0.75 -0.9 0.8 -0.9 0.8 -0.95 0.9 -1.05 1.05 -1.2 1.05 -1.3 Q1.1 -1.3 1.1 -1.3 L1.25 -1.45 1.3 -1.5 1.4 -1.55 1.5 -1.65 1.6 -1.75 1.65 -1.75 1.65 -1.8 1.7 -1.8 1.75 -1.8 1.8 -1.75 1.8 -1.7 1.75 -1.65 M1.45 -1.55 L1.4 -1.55 1.4 -1.5 1.35 -1.5 1.3 -1.45 1.3 -1.4 1.25 -1.4 1.2 -1.35 1.2 -1.3 1.2 -1.3 1.25 -1.3 1.25 -1.35 1.3 -1.35 1.3 -1.35 1.35 -1.4 1.35 -1.4 1.4 -1.45 1.45 -1.5 1.45 -1.55 1.45 -1.55 M1.15 -1.25 L1.0 -1.1 Q1.0 -1.1 1.05 -1.1 L1.05 -1.1 1.05 -1.15 1.15 -1.2 1.15 -1.25 1.15 -1.25 M0.85 -0.95 L0.85 -0.9 0.8 -0.9 0.8 -0.85 0.85 -0.9 0.85 -0.9 0.95 -1.0 0.95 -1.0 0.9 -1.0 0.9 -1.0 0.85 -0.95 0.85 -0.95" fill="#87604d" fill-rule="evenodd" stroke="none"/>
    <path d="M0.75 -0.9 L0.75 -0.9 0.8 -0.95 0.8 -1.0 0.85 -1.0 0.9 -1.1 0.95 -1.15 1.0 -1.25 1.05 -1.3 1.05 -1.2 0.9 -1.05 0.8 -0.95 0.8 -0.9 0.75 -0.9 M1.15 -1.25 L1.15 -1.25 1.15 -1.2 1.05 -1.15 1.05 -1.1 1.05 -1.1 Q1.0 -1.1 1.0 -1.1 L1.15 -1.25 M1.45 -1.55 L1.45 -1.55 1.45 -1.5 1.4 -1.45 1.35 -1.4 1.35 -1.4 1.3 -1.35 1.3 -1.35 1.25 -1.35 1.25 -1.3 1.2 -1.3 1.2 -1.3 1.2 -1.35 1.25 -1.4 1.3 -1.4 1.3 -1.45 1.35 -1.5 1.4 -1.5 1.4 -1.55 1.45 -1.55 M0.85 -0.95 L0.85 -0.95 0.9 -1.0 0.9 -1.0 0.95 -1.0 0.95 -1.0 0.85 -0.9 0.85 -0.9 0.8 -0.85 0.8 -0.9 0.85 -0.9 0.85 -0.95" fill="#af896b" fill-rule="evenodd" stroke="none"/>
    <path d="M0.85 -0.65 L0.9 -0.6 0.95 -0.5 1.05 -0.4 1.1 -0.35 1.15 -0.3 1.15 -0.3 1.15 -0.25 Q1.2 -0.25 1.2 -0.25 L1.25 -0.25 1.25 -0.2 1.2 -0.2 1.15 -0.2 1.15 -0.25 1.1 -0.3 1.1 -0.3 Q1.05 -0.35 1.05 -0.35 L1.05 -0.4 Q1.0 -0.4 0.95 -0.4 L0.95 -0.45 0.9 -0.5 0.9 -0.55 0.85 -0.55 0.8 -0.55 0.8 -0.6 0.75 -0.65 0.75 -0.7 0.75 -0.75 0.7 -0.75 0.7 -0.75 0.7 -0.75 0.7 -0.8 0.65 -0.8 0.6 -0.85 0.6 -0.85 0.55 -0.85 0.55 -0.85 0.6 -0.8 0.65 -0.75 0.7 -0.75 0.65 -0.75 0.65 -0.75 0.6 -0.75 0.6 -0.75 0.55 -0.65 0.55 -0.65 0.5 -0.65 0.5 -0.7 0.55 -0.7 0.6 -0.8 0.6 -0.8 0.55 -0.8 0.55 -0.85 0.45 -0.95 0.35 -1.05 0.35 -1.05 0.25 -1.15 0.2 -1.2 0.15 -1.25 0.2 -1.3 0.25 -1.3 0.25 -1.25 0.2 -1.25 0.2 -1.2 0.25 -1.2 0.3 -1.2 0.3 -1.2 0.3 -1.15 0.3 -1.15 0.3 -1.1 0.35 -1.1 0.35 -1.1 0.45 -1.0 0.55 -0.95 0.65 -0.85 0.7 -0.85 0.7 -0.85 0.8 -0.8 0.8 -0.8 0.85 -0.75 0.8 -0.75 0.8 -0.75 0.75 -0.75 0.75 -0.75 0.8 -0.65 0.85 -0.65 M0.5 -0.65 L0.5 -0.65" fill="#808080" fill-rule="evenodd" stroke="none"/>
    <path d="M1.15 -0.3 L1.2 -0.25 Q1.2 -0.25 1.15 -0.25 L1.15 -0.3 M0.25 -1.25 L0.3 -1.25 0.3 -1.2 0.3 -1.2 0.25 -1.2 0.2 -1.2 0.2 -1.25 0.25 -1.25 M0.3 -1.15 L0.35 -1.15 0.35 -1.1 0.35 -1.1 0.3 -1.1 0.3 -1.15" fill="#c6c6c8" fill-rule="evenodd" stroke="none"/>
    <path d="M0.85 -0.75 L0.85 -0.65 0.8 -0.65 0.75 -0.75 0.75 -0.75 0.8 -0.75 0.8 -0.75 0.85 -0.75 0.85 -0.75 M0.95 -0.4 L0.9 -0.5 0.8 -0.55 0.8 -0.55 0.85 -0.55 0.9 -0.55 0.9 -0.5 0.95 -0.45 0.95 -0.4 M0.75 -0.65 L0.8 -0.6 0.8 -0.55 0.75 -0.55 0.75 -0.55 0.7 -0.55 0.65 -0.5 0.6 -0.5 0.55 -0.5 0.55 -0.5 0.5 -0.5 0.5 -0.5 0.5 -0.55 0.5 -0.65 0.55 -0.65 0.55 -0.65 0.55 -0.6 0.55 -0.6 0.6 -0.55 0.7 -0.55 0.75 -0.6 0.75 -0.65" fill="#5f4d4d" fill-rule="evenodd" stroke="none"/>
    <path d="M0.75 -0.7 L0.75 -0.65 0.75 -0.6 0.7 -0.55 0.6 -0.55 0.55 -0.6 0.55 -0.6 0.55 -0.65 0.6 -0.75 0.6 -0.75 0.65 -0.75 0.65 -0.75 0.7 -0.7 0.65 -0.7 0.65 -0.7 0.6 -0.65 0.65 -0.65 0.65 -0.65 0.65 -0.6 0.7 -0.6 0.7 -0.65 0.7 -0.65 0.7 -0.7 0.75 -0.7 M0.65 -0.7 L0.7 -0.7 0.7 -0.7 0.65 -0.7 0.65 -0.7 M0.6 -0.6 L0.6 -0.55 0.7 -0.6 0.6 -0.6 0.6 -0.6" fill="#805d42" fill-rule="evenodd" stroke="none"/>
    <path d="M0.55 -0.75 L0.55 -0.75 0.55 -0.8 0.6 -0.8 0.6 -0.8 0.55 -0.7 0.5 -0.7 0.55 -0.75 0.6 -0.8 0.55 -0.75 M0.5 -0.65 L0.5 -0.65 0.5 -0.65 0.5 -0.55 0.5 -0.5 0.4 -0.4 0.4 -0.45 0.45 -0.5 0.45 -0.5 0.45 -0.55 0.45 -0.6 0.5 -0.65 M0.75 -0.55 L0.75 -0.55 0.75 -0.55 0.7 -0.5 0.7 -0.5 0.65 -0.5 0.7 -0.55 0.75 -0.55 M0.55 -0.45 L0.55 -0.5 0.6 -0.5 0.6 -0.45 0.55 -0.45 0.55 -0.45" fill="#74746e" fill-rule="evenodd" stroke="none"/>
    <path d="M0.8 -0.55 L-2.05 2.2 -2.15 2.2 -2.15 2.15 -2.15 2.15 -2.1 2.1 -2.05 2.05 -2.05 2.05 -2.0 2.0 -2.0 1.95 -1.95 1.9 0.4 -0.4 0.5 -0.5 -0.75 0.8 0.55 -0.45 0.55 -0.45 0.6 -0.45 0.6 -0.5 0.65 -0.5 0.7 -0.5 0.7 -0.5 0.75 -0.55 0.8 -0.55 M0.75 -0.55 L0.75 -0.55 M0.5 -0.5 L0.5 -0.5" fill="#e4e9dc" fill-rule="evenodd" stroke="none"/>
    <path d="M0.7 -0.75 L0.65 -0.75 0.6 -0.8 0.55 -0.85 0.55 -0.85 0.6 -0.85 0.6 -0.85 0.65 -0.8 0.7 -0.8 0.7 -0.75 0.7 -0.75 0.7 -0.75" fill="#cac7d0" fill-rule="evenodd" stroke="none"/>
    <path d="M0.7 -0.75 L0.7 -0.75 0.75 -0.75 0.75 -0.7 0.7 -0.7 0.7 -0.65 0.7 -0.65 0.7 -0.6 0.65 -0.6 0.65 -0.65 0.65 -0.65 0.6 -0.65 0.65 -0.7 0.65 -0.7 0.7 -0.7 0.65 -0.75 0.7 -0.75 0.7 -0.75 M0.65 -0.7 L0.65 -0.7 0.7 -0.7 0.7 -0.7 0.65 -0.7" fill="#af974d" fill-rule="evenodd" stroke="none"/>
    <path d="M-2.15 2.15 L-2.2 2.15 -2.2 2.0 0.55 -0.75 0.5 -0.7 0.5 -0.65 0.5 -0.65 0.45 -0.6 0.45 -0.55 0.45 -0.5 0.45 -0.5 0.4 -0.45 0.4 -0.4 -1.95 1.9 -2.0 1.95 -2.0 2.0 -2.05 2.05 -2.05 2.05 -2.1 2.1 -2.15 2.15 -2.15 2.15 M0.5 -0.5 L0.55 -0.5 0.55 -0.5 0.55 -0.45 -0.75 0.8 0.5 -0.5" fill="#a2a39a" fill-rule="evenodd" stroke="none"/>
    <path d="M0.6 -0.6 L0.6 -0.6 0.7 -0.6 0.6 -0.55 0.6 -0.6" fill="#514d31" fill-rule="evenodd" stroke="none"/>
    <path d="M1.7 -1.8 L1.7 -1.85 1.7 -1.9 1.75 -1.95 1.75 -2.0 1.8 -2.0 1.85 -2.0 1.9 -2.0 1.95 -2.0 1.95 -2.0 2.0 -1.85 2.0 -1.8 1.95 -1.75 1.95 -1.7 1.9 -1.7 1.85 -1.65 1.75 -1.65 1.75 -1.65 1.65 -1.5 1.6 -1.5 1.5 -1.35 1.4 -1.25 1.35 -1.15 1.2 -1.0 1.15 -1.0 1.0 -0.85 0.95 -0.8 0.95 -0.8 0.9 -0.75 0.85 -0.75 0.85 -0.65 0.9 -0.6 0.95 -0.5 1.05 -0.4 1.1 -0.35 1.15 -0.3 1.15 -0.3 1.2 -0.25 1.25 -0.25 1.25 -0.2 1.2 -0.2 1.15 -0.2 1.15 -0.25 1.1 -0.3 1.1 -0.3 Q1.05 -0.35 1.05 -0.35 L1.05 -0.4 Q1.0 -0.4 0.95 -0.4 L0.9 -0.5 0.8 -0.55 0.8 -0.55 -2.05 2.2 M-2.2 2.0 L0.55 -0.75 0.55 -0.75 0.6 -0.8 0.55 -0.8 0.55 -0.85 0.45 -0.95 0.35 -1.05 0.35 -1.05 0.25 -1.15 0.2 -1.2 0.15 -1.25 0.2 -1.3 0.25 -1.3 0.25 -1.25 0.3 -1.25 0.3 -1.2 0.3 -1.15 0.3 -1.15 0.35 -1.15 0.35 -1.1 0.45 -1.0 0.55 -0.95 0.65 -0.85 0.7 -0.85 0.7 -0.85 0.75 -0.9 0.75 -0.9 0.8 -0.95 0.8 -1.0 0.85 -1.0 0.9 -1.1 0.95 -1.15 1.0 -1.25 1.05 -1.3 Q1.1 -1.3 1.1 -1.3 L1.25 -1.45 1.3 -1.5 1.4 -1.55 1.5 -1.65 1.6 -1.75 1.65 -1.75 1.65 -1.8 1.7 -1.8 M0.85 -0.65 L0.8 -0.65" fill="none" stroke="#000000" stroke-linecap="round" stroke-linejoin="round" stroke-opacity="0.4" stroke-width="1.0"/>
  </g>
</svg>
