<?xml version="1.0" encoding="UTF-8" standalone="no"?>
<svg xmlns:xlink="http://www.w3.org/1999/xlink" height="4.3px" width="4.05px" xmlns="http://www.w3.org/2000/svg">
  <g transform="matrix(1.0, 0.0, 0.0, 1.0, 2.2, 2.1)">
    <path d="M1.15 -1.5 L1.15 -1.65 1.15 -1.75 1.15 -1.8 1.3 -2.0 1.4 -2.05 1.55 -2.1 Q1.65 -2.05 1.75 -2.0 L1.8 -1.95 1.8 -1.9 1.75 -1.85 1.65 -1.8 1.6 -1.85 1.5 -1.9 1.45 -1.85 1.35 -1.85 1.3 -1.75 1.3 -1.65 1.35 -1.6 1.15 -1.5" fill="#80584e" fill-rule="evenodd" stroke="none"/>
    <path d="M1.8 -1.9 L1.8 -1.9 1.85 -1.85 Q1.85 -1.8 1.85 -1.8 L1.85 -1.7 1.8 -1.6 1.8 -1.5 1.75 -1.45 1.75 -1.5 1.65 -1.5 1.65 -1.5 Q1.7 -1.6 1.65 -1.65 L1.65 -1.8 1.75 -1.85 1.8 -1.9" fill="#5f3326" fill-rule="evenodd" stroke="none"/>
    <path d="M1.75 -1.45 L1.75 -1.45 1.6 -1.3 1.45 -1.2 1.45 -1.2 1.4 -1.15 0.1 0.15 -0.05 0.0 -0.2 -0.1 -0.05 -0.25 -0.05 -0.25 Q0.0 -0.25 0.0 -0.25 L0.05 -0.2 0.1 -0.2 Q0.15 -0.2 0.2 -0.3 L0.3 -0.35 0.35 -0.4 0.4 -0.4 0.45 -0.45 0.5 -0.5 0.55 -0.55 0.6 -0.6 0.65 -0.65 0.75 -0.75 Q0.75 -0.7 0.8 -0.7 L0.85 -0.75 0.9 -0.8 0.9 -0.8 0.95 -0.85 0.95 -0.95 1.0 -1.0 1.1 -1.0 1.1 -1.15 1.15 -1.2 1.2 -1.2 1.2 -1.3 1.25 -1.35 1.25 -1.4 1.3 -1.45 1.35 -1.45 Q1.4 -1.4 1.45 -1.45 L1.45 -1.45 1.5 -1.45 1.5 -1.45 1.55 -1.45 1.55 -1.45 Q1.6 -1.45 1.6 -1.5 L1.65 -1.5 1.65 -1.5 1.75 -1.5 1.75 -1.45" fill="#3d2a23" fill-rule="evenodd" stroke="none"/>
    <path d="M-0.05 -0.25 L0.1 -0.45 0.2 -0.4 Q0.25 -0.4 0.3 -0.45 L0.35 -0.5 0.35 -0.55 0.3 -0.6 0.4 -0.75 0.45 -0.7 0.55 -0.7 0.6 -0.7 0.65 -0.7 0.65 -0.75 0.65 -0.8 0.6 -0.85 0.55 -0.9 0.65 -0.95 Q0.65 -0.95 0.7 -0.95 L0.7 -0.9 Q0.75 -0.85 0.75 -0.85 L0.8 -0.9 0.8 -0.95 0.8 -1.0 0.85 -1.0 0.85 -1.05 0.9 -1.0 0.95 -1.05 0.95 -1.05 0.95 -1.15 1.0 -1.2 1.05 -1.2 1.05 -1.25 1.1 -1.3 1.15 -1.3 1.15 -1.35 1.05 -1.4 1.05 -1.4 1.1 -1.45 1.15 -1.5 1.15 -1.5 1.35 -1.6 1.35 -1.55 1.4 -1.5 1.45 -1.45 Q1.4 -1.4 1.35 -1.45 L1.3 -1.45 1.25 -1.4 1.25 -1.35 1.2 -1.3 1.2 -1.2 1.15 -1.2 1.1 -1.15 1.1 -1.0 1.0 -1.0 0.95 -0.95 0.95 -0.85 0.9 -0.8 0.9 -0.8 0.85 -0.75 0.8 -0.7 Q0.75 -0.7 0.75 -0.75 L0.65 -0.65 0.6 -0.6 0.55 -0.55 0.5 -0.5 0.45 -0.45 0.4 -0.4 0.35 -0.4 0.3 -0.35 0.2 -0.3 Q0.15 -0.2 0.1 -0.2 L0.05 -0.2 0.0 -0.25 Q0.0 -0.25 -0.05 -0.25 L-0.05 -0.25" fill="#9a4f4c" fill-rule="evenodd" stroke="none"/>
    <path d="M0.1 -0.45 L0.3 -0.6 0.35 -0.55 0.35 -0.5 0.3 -0.45 Q0.25 -0.4 0.2 -0.4 L0.1 -0.45 M0.4 -0.75 L0.55 -0.9 0.6 -0.85 0.65 -0.8 0.65 -0.75 0.65 -0.7 0.6 -0.7 0.55 -0.7 0.45 -0.7 0.4 -0.75 M0.65 -0.95 L1.05 -1.4 1.15 -1.35 1.15 -1.3 1.1 -1.3 1.05 -1.25 1.05 -1.2 1.0 -1.2 0.95 -1.15 0.95 -1.05 0.95 -1.05 0.9 -1.0 0.85 -1.05 0.85 -1.0 0.8 -1.0 0.8 -0.95 0.8 -0.9 0.75 -0.85 Q0.75 -0.85 0.7 -0.9 L0.7 -0.95 Q0.65 -0.95 0.65 -0.95" fill="#b88071" fill-rule="evenodd" stroke="none"/>
    <path d="M0.1 0.15 L0.3 0.35 0.15 0.5 0.05 0.35 0.0 0.3 -0.15 0.15 -0.25 0.1 -0.2 0.05 -0.2 0.05 -0.1 0.05 -0.05 0.0 0.1 0.15" fill="#2e1211" fill-rule="evenodd" stroke="none"/>
    <path d="M0.05 0.35 L-0.2 0.6 -0.15 0.65 -1.2 1.7 -1.25 1.65 Q-1.3 1.6 -1.35 1.6 L-1.4 1.6 -1.45 1.6 -1.3 1.5 -1.3 1.4 -1.25 1.35 -1.25 1.3 -1.2 1.3 -1.15 1.25 -1.05 1.2 -0.95 1.15 -0.9 1.1 -0.9 1.1 -0.7 0.95 -0.5 0.75 -0.3 0.5 -0.25 0.5 -0.15 0.4 0.0 0.3 0.05 0.35" fill="#979994" fill-rule="evenodd" stroke="none"/>
    <path d="M-1.85 1.15 L-0.65 -0.05 -0.6 0.05 -0.45 -0.1 -0.45 0.05 -0.45 0.1 -0.4 0.15 -0.35 0.2 -0.3 0.2 -0.2 0.2 -0.15 0.15 0.0 0.3 -0.15 0.4 -0.25 0.5 -0.3 0.5 -0.5 0.75 -0.7 0.95 -0.9 1.1 -0.9 1.1 -0.95 1.15 -1.05 1.2 -1.15 1.25 -1.2 1.3 -1.25 1.3 -1.25 1.35 -1.3 1.4 -1.3 1.5 -1.45 1.6 -1.5 1.55 -1.5 1.45 -1.6 1.45 -1.6 1.45 -1.65 1.35 -1.7 1.35 -1.8 1.3 -1.8 1.3 -1.85 1.15 M-0.45 -0.1 L-0.45 -0.1 M-1.45 1.6 L-1.45 1.6" fill="#413332" fill-rule="evenodd" stroke="none"/>
    <path d="M-0.45 -0.1 L-0.6 -0.3 -0.5 -0.4 -0.2 -0.1 -0.05 0.0 -0.1 0.05 -0.2 0.05 -0.2 0.05 -0.25 0.1 -0.45 -0.1 -0.45 -0.1" fill="#393431" fill-rule="evenodd" stroke="none"/>
    <path d="M-0.15 0.15 L-0.2 0.2 -0.3 0.2 -0.35 0.2 -0.4 0.15 -0.45 0.1 -0.45 0.05 -0.45 -0.1 -0.25 0.1 -0.15 0.15" fill="#514a44" fill-rule="evenodd" stroke="none"/>
    <path d="M-1.2 1.7 L-1.5 1.95 -1.7 2.2 -2.1 2.2 -2.05 2.15 -2.1 2.15 -2.05 2.1 -2.0 2.1 -1.9 2.0 -1.85 1.95 -1.8 1.95 Q-1.75 1.9 -1.75 1.85 -1.8 1.8 -1.7 1.75 L-1.65 1.7 -1.6 1.65 -1.5 1.6 -1.45 1.6 -1.45 1.6 -1.4 1.6 -1.35 1.6 Q-1.3 1.6 -1.25 1.65 L-1.2 1.7" fill="#6f716e" fill-rule="evenodd" stroke="none"/>
    <path d="M-2.2 2.1 L-2.2 1.45 -1.85 1.15 -1.8 1.3 -1.8 1.3 -1.7 1.35 -1.65 1.35 -1.6 1.45 -1.6 1.45 -1.5 1.45 -1.5 1.55 -1.45 1.6 -1.5 1.6 -1.6 1.65 -1.65 1.7 -1.7 1.75 Q-1.8 1.8 -1.75 1.85 -1.75 1.9 -1.8 1.95 L-1.85 1.95 -1.9 2.0 -2.0 2.1 -2.05 2.1 -2.1 2.15 -2.05 2.15 -2.1 2.15 -2.15 2.1 -2.2 2.1" fill="#404a49" fill-rule="evenodd" stroke="none"/>
    <path d="M-2.1 2.2 L-2.15 2.2 -2.15 2.15 -2.2 2.15 -2.2 2.1 -2.15 2.1 -2.1 2.15 -2.05 2.15 -2.1 2.2" fill="#3c4240" fill-rule="evenodd" stroke="none"/>
    <path d="M1.15 -1.5 L1.15 -1.65 1.15 -1.75 1.15 -1.8 1.3 -2.0 1.4 -2.05 1.55 -2.1 Q1.65 -2.05 1.75 -2.0 L1.8 -1.95 1.8 -1.9 1.8 -1.9 1.85 -1.85 Q1.85 -1.8 1.85 -1.8 L1.85 -1.7 1.8 -1.6 1.8 -1.5 1.75 -1.45 1.75 -1.45 1.6 -1.3 1.45 -1.2 1.45 -1.2 1.4 -1.15 0.1 0.15 0.3 0.35 0.15 0.5 0.05 0.35 -0.2 0.6 -0.15 0.65 -1.2 1.7 -1.5 1.95 -1.7 2.2 M-2.2 1.45 L-1.85 1.15 -0.65 -0.05 M-0.6 0.05 L-0.45 -0.1 -0.6 -0.3 -0.5 -0.4 -0.2 -0.1 -0.05 -0.25 0.1 -0.45 0.3 -0.6 0.4 -0.75 0.55 -0.9 0.65 -0.95 1.05 -1.4 1.05 -1.4 1.1 -1.45 1.15 -1.5 1.15 -1.5 M1.35 -1.6 L1.3 -1.65 1.3 -1.75 1.35 -1.85 1.45 -1.85 1.5 -1.9 1.6 -1.85 1.65 -1.8 1.65 -1.65 Q1.7 -1.6 1.65 -1.5 L1.6 -1.5 Q1.6 -1.45 1.55 -1.45 L1.55 -1.45 1.5 -1.45 1.5 -1.45 1.45 -1.45 1.45 -1.45 1.4 -1.5 1.35 -1.55 1.35 -1.6 Z" fill="none" stroke="#000000" stroke-linecap="round" stroke-linejoin="round" stroke-opacity="0.4" stroke-width="1.0"/>
  </g>
</svg>
