<?xml version="1.0" encoding="UTF-8" standalone="no"?>
<svg xmlns:xlink="http://www.w3.org/1999/xlink" height="4.4px" width="4.4px" xmlns="http://www.w3.org/2000/svg">
  <g transform="matrix(1.0, 0.0, 0.0, 1.0, 2.2, 2.2)">
    <path d="M0.5 -0.8 L0.5 -0.9 0.45 -0.95 0.4 -1.0 0.4 -1.0 0.35 -1.0 0.3 -1.0 0.3 -1.05 0.4 -1.0 0.5 -1.0 0.55 -1.0 0.6 -0.95 0.65 -0.95 0.7 -0.9 0.7 -0.9 0.65 -0.9 0.6 -0.95 0.55 -0.95 0.5 -0.95 0.5 -0.85 0.5 -0.8 0.5 -0.8 M0.45 -1.0 L0.5 -1.0 0.5 -1.0 0.45 -1.0 0.45 -1.0" fill="#977b6b" fill-rule="evenodd" stroke="none"/>
    <path d="M1.8 -2.2 L1.85 -2.2 1.85 -2.1 1.9 -2.2 1.9 -2.2 1.9 -2.15 1.85 -2.05 1.95 -2.15 1.95 -2.15 2.0 -2.15 2.0 -2.2 2.05 -2.2 2.1 -2.1 2.1 -2.05 2.15 -2.0 2.2 -1.95 2.2 -1.9 2.15 -1.9 2.1 -1.9 2.05 -1.9 1.95 -1.85 1.95 -1.8 1.9 -1.8 1.85 -1.8 1.8 -1.7 1.75 -1.65 1.55 -1.45 1.45 -1.35 1.35 -1.3 1.35 -1.25 1.3 -1.25 1.15 -1.1 1.05 -1.0 1.0 -0.95 1.0 -0.95 0.9 -0.85 0.9 -0.8 0.95 -0.75 0.95 -0.65 1.0 -0.5 1.0 -0.4 1.0 -0.4 0.95 -0.4 1.0 -0.4 1.0 -0.35 1.0 -0.35 0.95 -0.3 0.95 -0.3 0.9 -0.3 0.9 -0.3 0.8 -0.25 0.7 -0.25 0.65 -0.25 0.65 -0.3 0.6 -0.3 0.6 -0.35 0.6 -0.45 0.6 -0.45 0.6 -0.5 0.65 -0.5 0.65 -0.5 0.65 -0.55 0.6 -0.55 0.6 -0.55 0.55 -0.55 0.55 -0.55 0.55 -0.55 0.55 -0.6 0.6 -0.65 0.55 -0.65 0.55 -0.65 0.55 -0.65 0.5 -0.6 0.5 -0.65 0.5 -0.6 0.5 -0.6 0.55 -0.55 0.55 -0.5 0.6 -0.5 0.55 -0.45 0.55 -0.4 0.55 -0.35 0.6 -0.3 0.6 -0.3 0.55 -0.3 0.5 -0.3 0.5 -0.3 0.45 -0.35 0.45 -0.35 0.3 -0.35 0.25 -0.35 0.2 -0.35 0.2 -0.35 0.15 -0.35 0.15 -0.4 0.2 -0.4 0.2 -0.4 0.2 -0.4 0.25 -0.4 0.2 -0.45 0.2 -0.45 0.15 -0.45 0.15 -0.5 0.2 -0.5 0.2 -0.5 0.2 -0.5 0.25 -0.5 0.25 -0.45 0.25 -0.55 0.2 -0.6 0.2 -0.65 0.15 -0.75 0.15 -0.65 0.2 -0.6 0.15 -0.6 0.15 -0.65 0.1 -0.65 0.15 -0.65 0.1 -0.7 0.1 -0.7 0.15 -0.75 0.1 -0.75 0.1 -0.75 0.05 -0.75 0.05 -0.75 0.05 -0.8 0.1 -0.85 0.1 -0.85 0.05 -0.85 0.05 -0.9 0.1 -0.9 0.1 -0.9 0.1 -0.9 0.05 -0.95 0.05 -0.95 0.0 -0.95 0.05 -1.0 0.1 -1.0 0.1 -1.05 0.05 -1.1 0.0 -1.1 0.0 -1.1 0.0 -1.15 0.05 -1.15 0.05 -1.15 0.1 -1.2 0.1 -1.2 0.05 -1.2 0.0 -1.2 0.0 -1.25 -0.05 -1.25 -0.05 -1.25 -0.1 -1.25 -0.05 -1.3 -0.05 -1.3 0.0 -1.3 0.05 -1.3 0.1 -1.3 0.1 -1.2 0.15 -1.15 0.2 -1.15 0.25 -1.15 0.3 -1.15 0.3 -1.1 0.35 -1.1 0.4 -1.05 0.45 -1.05 0.55 -1.05 0.6 -1.05 0.6 -1.0 0.65 -1.0 0.7 -0.95 0.7 -0.95 0.75 -0.95 0.75 -1.0 0.8 -1.0 0.8 -1.05 0.95 -1.2 1.1 -1.3 1.1 -1.35 1.15 -1.35 1.15 -1.4 1.35 -1.55 1.55 -1.8 1.7 -1.9 1.75 -1.95 1.75 -2.0 1.8 -2.0 1.8 -2.2 M1.05 -0.4 L1.1 -0.35 1.05 -0.25 Q1.05 -0.2 1.05 -0.2 L1.1 -0.2 1.05 -0.15 1.05 -0.15 1.0 -0.15 1.0 -0.15 1.0 -0.1 1.05 -0.1 1.05 -0.05 1.0 -0.05 1.0 -0.05 0.95 -0.1 0.95 -0.1 0.9 -0.1 0.95 -0.15 0.95 -0.15 0.9 -0.1 0.85 -0.1 0.8 -0.15 0.75 -0.15 0.75 -0.15 0.7 -0.15 0.7 -0.15 0.65 -0.15 0.65 -0.15 0.6 -0.2 0.6 -0.2 0.65 -0.2 0.65 -0.2 0.7 -0.2 0.75 -0.2 0.75 -0.2 0.8 -0.2 0.8 -0.2 0.9 -0.25 0.9 -0.25 1.0 -0.3 1.0 -0.35 1.05 -0.35 1.05 -0.4 M1.1 -0.15 L1.15 -0.15 1.25 -0.15 1.25 -0.1 1.25 -0.05 1.2 -0.05 1.15 0.0 1.15 -0.05 1.15 -0.05 1.15 -0.1 1.1 -0.1 1.1 -0.15 1.1 -0.15 M0.25 0.2 L0.15 0.35 0.15 0.2 0.2 0.2 0.15 0.15 0.2 0.05 0.2 -0.05 0.2 -0.15 0.2 -0.2 0.2 -0.25 0.25 -0.25 0.25 -0.3 0.25 -0.35 0.3 -0.35 0.3 -0.35 0.35 -0.35 0.4 -0.3 0.4 -0.25 0.4 -0.2 0.4 -0.2 0.35 -0.2 0.35 -0.05 0.35 0.05 0.3 0.1 0.25 0.2 M1.95 -2.0 L2.0 -2.05 2.05 -2.1 2.05 -2.05 2.0 -2.0 1.95 -2.0 1.95 -1.95 2.1 -2.05 2.1 -2.0 2.05 -2.0 2.0 -1.9 2.0 -1.9 2.15 -2.0 2.1 -2.0 2.1 -2.05 2.1 -2.1 2.05 -2.1 2.0 -2.15 1.95 -2.1 1.9 -2.05 1.9 -2.0 1.95 -2.0 1.95 -2.0 M1.8 -2.0 L1.8 -1.95 1.85 -1.95 1.85 -1.95 1.8 -2.0 1.8 -2.0 M1.8 -1.85 L1.8 -1.9 1.8 -1.9 1.8 -1.9 1.8 -1.85 M1.25 -1.4 L1.2 -1.35 1.2 -1.3 1.1 -1.25 1.1 -1.25 1.05 -1.2 1.0 -1.1 0.95 -1.05 0.9 -1.0 0.9 -1.0 0.95 -1.0 1.0 -1.05 1.0 -1.1 1.05 -1.1 1.05 -1.1 1.1 -1.15 1.1 -1.15 1.15 -1.15 1.2 -1.2 1.2 -1.25 1.25 -1.25 1.3 -1.3 1.3 -1.35 1.35 -1.4 1.35 -1.4 1.3 -1.4 1.3 -1.4 1.25 -1.4 M1.75 -1.85 L1.75 -1.85 1.7 -1.85 1.7 -1.8 1.7 -1.8 1.75 -1.75 1.75 -1.85 M1.65 -1.7 L1.65 -1.75 1.65 -1.75 1.7 -1.75 1.7 -1.8 1.65 -1.8 1.65 -1.75 1.65 -1.7 1.6 -1.7 1.6 -1.7 1.55 -1.7 1.55 -1.65 1.55 -1.65 1.6 -1.65 1.6 -1.65 1.65 -1.65 1.65 -1.7 M0.5 -0.8 L0.5 -0.8 0.5 -0.85 0.5 -0.95 0.55 -0.95 0.6 -0.95 0.65 -0.9 0.7 -0.9 0.7 -0.9 0.65 -0.95 0.6 -0.95 0.55 -1.0 0.5 -1.0 0.4 -1.0 0.3 -1.05 0.3 -1.0 0.35 -1.0 0.4 -1.0 0.4 -1.0 0.45 -0.95 0.5 -0.9 0.5 -0.8 0.45 -0.8 0.45 -0.75 0.45 -0.7 0.5 -0.7 0.5 -0.7 0.55 -0.75 0.55 -0.75 0.5 -0.8 M0.7 -0.8 L0.7 -0.8 0.65 -0.75 0.65 -0.75 0.7 -0.75 0.7 -0.8 0.75 -0.75 0.8 -0.75 0.8 -0.7 0.85 -0.7 0.85 -0.65 0.85 -0.6 0.85 -0.6 0.75 -0.6 0.7 -0.6 0.75 -0.6 0.8 -0.55 0.85 -0.55 0.9 -0.5 0.9 -0.4 0.95 -0.4 0.95 -0.45 0.95 -0.55 0.95 -0.6 0.9 -0.65 0.9 -0.7 0.85 -0.75 0.85 -0.75 0.8 -0.75 0.8 -0.8 0.75 -0.8 0.75 -0.85 0.7 -0.85 0.7 -0.8 M0.6 -0.7 L0.6 -0.7 0.6 -0.65 0.65 -0.65 0.65 -0.7 0.65 -0.7 0.6 -0.7 0.6 -0.75 0.55 -0.75 0.55 -0.7 0.55 -0.7 0.6 -0.7 M0.7 -0.6 L0.65 -0.6 0.65 -0.65 0.6 -0.65 0.6 -0.6 0.6 -0.55 0.65 -0.55 0.65 -0.55 0.7 -0.55 0.7 -0.6 M0.65 -0.55 L0.65 -0.55 0.7 -0.45 0.75 -0.4 0.85 -0.35 0.85 -0.35 0.8 -0.4 0.75 -0.45 0.65 -0.55 M0.55 -0.5 L0.55 -0.5 0.55 -0.55 0.5 -0.55 0.5 -0.55 0.45 -0.55 0.45 -0.55 0.45 -0.55 0.45 -0.6 0.45 -0.6 0.4 -0.6 0.4 -0.6 0.45 -0.55 0.45 -0.55 0.4 -0.55 0.4 -0.5 0.35 -0.5 0.35 -0.45 0.3 -0.45 0.35 -0.4 0.4 -0.45 0.45 -0.5 0.5 -0.5 0.55 -0.5 M0.45 -0.5 L0.45 -0.5 M0.3 -1.1 L0.25 -1.15 0.25 -1.1 0.2 -1.0 0.15 -1.0 0.15 -0.95 0.2 -1.0 0.2 -1.05 0.3 -1.1 0.35 -1.05 0.3 -1.1 M0.3 -0.9 L0.3 -0.9 0.25 -0.95 0.2 -0.95 0.2 -1.0 0.25 -0.95 0.25 -0.9 0.3 -0.9 0.3 -0.85 0.35 -0.85 0.4 -0.8 0.4 -0.8 0.35 -0.85 0.35 -0.85 0.3 -0.9 0.3 -0.9 M0.15 -0.9 L0.15 -0.9 0.15 -0.9 0.15 -0.85 0.15 -0.85 0.15 -0.8 0.15 -0.85 0.15 -0.85 0.15 -0.9 M0.15 -0.45 L0.15 -0.45 0.15 -0.4 0.1 -0.4 0.15 -0.35 0.15 -0.3 0.2 -0.3 0.2 -0.3 0.15 -0.3 0.15 -0.3 0.0 -0.3 -0.05 -0.3 -0.05 -0.3 -0.1 -0.35 -0.15 -0.3 -0.2 -0.3 -0.2 -0.35 -0.15 -0.35 -0.1 -0.35 -0.05 -0.4 0.05 -0.4 0.1 -0.4 0.1 -0.4 0.1 -0.45 0.15 -0.45 M0.5 -0.3 L0.5 -0.3 M0.35 -0.7 L0.3 -0.7 0.2 -0.65 0.25 -0.65 0.25 -0.65 0.25 -0.65 0.35 -0.65 0.4 -0.65 0.45 -0.65 0.45 -0.7 0.45 -0.7 0.45 -0.75 0.4 -0.75 0.4 -0.7 0.35 -0.65 0.35 -0.7 M0.35 -0.3 L0.3 -0.3 0.3 -0.3 0.3 -0.25 0.3 -0.3 0.35 -0.25 0.3 -0.25 0.35 -0.25 0.35 -0.2 0.35 -0.25 0.35 -0.3" fill="#303030" fill-rule="evenodd" stroke="none"/>
    <path d="M0.0 -1.1 L-0.05 -1.15 -0.05 -1.15 -0.05 -1.15 -0.1 -1.2 -0.05 -1.2 -0.1 -1.2 -0.1 -1.25 -0.1 -1.25 -0.05 -1.25 -0.05 -1.25 0.0 -1.25 0.0 -1.2 0.05 -1.2 0.1 -1.2 0.1 -1.2 0.05 -1.15 0.05 -1.15 0.0 -1.15 0.0 -1.1" fill="#9b806f" fill-rule="evenodd" stroke="none"/>
    <path d="M0.05 -0.8 L0.0 -0.9 0.0 -0.95 0.05 -0.95 0.05 -0.95 0.1 -0.9 0.1 -0.9 0.1 -0.9 0.05 -0.9 0.05 -0.85 0.1 -0.85 0.1 -0.85 0.05 -0.8 M0.3 -1.1 L0.35 -1.05 0.3 -1.1 0.2 -1.05 0.2 -1.0 0.15 -0.95 0.15 -1.0 0.2 -1.0 0.25 -1.1 0.25 -1.15 0.3 -1.1 M0.3 -0.9 L0.3 -0.9 0.35 -0.85 0.35 -0.85 0.35 -0.8 0.3 -0.85 0.3 -0.9 0.25 -0.9 0.25 -0.95 0.3 -0.9 M0.15 -0.8 L0.15 -0.85 0.15 -0.85 0.15 -0.9 0.15 -0.85 0.15 -0.85 0.15 -0.8 M0.15 -0.9 L0.15 -0.9 0.15 -0.9" fill="#8f7366" fill-rule="evenodd" stroke="none"/>
    <path d="M0.1 -0.55 L0.1 -0.65 0.15 -0.65 0.15 -0.6 0.2 -0.6 0.2 -0.55 Q0.2 -0.55 0.2 -0.6 L0.15 -0.65 0.15 -0.75 0.2 -0.65 0.2 -0.6 0.25 -0.55 0.25 -0.45 0.25 -0.5 0.2 -0.5 0.2 -0.5 0.2 -0.5 0.15 -0.5 0.15 -0.45 0.15 -0.45 0.1 -0.5 0.1 -0.5 0.1 -0.55 M0.1 -0.7 L0.1 -0.75 0.05 -0.75 0.05 -0.75 0.05 -0.75 0.1 -0.75 0.1 -0.75 0.15 -0.75 0.1 -0.7" fill="#7e7066" fill-rule="evenodd" stroke="none"/>
    <path d="M0.45 -0.2 L0.5 -0.1 0.55 -0.05 0.25 0.2 0.3 0.1 0.35 0.05 0.35 -0.05 0.35 -0.2 0.4 -0.2 0.4 -0.2 0.45 -0.2 0.45 -0.2 M0.15 0.35 L0.1 0.35 0.0 0.4 -0.05 0.45 0.0 0.4 0.1 0.25 0.15 0.2 0.15 0.35 M0.0 0.5 L-1.2 1.55 -1.3 1.6 -1.35 1.65 -1.4 1.65 -1.45 1.7 -1.45 1.75 -1.5 1.75 -1.55 1.8 -1.55 1.8 -1.6 1.85 -1.7 1.95 -1.7 1.95 -1.75 2.0 -1.75 2.0 -1.8 2.0 -1.85 2.05 -1.85 2.1 -1.9 2.1 -1.9 2.1 -1.95 2.15 -2.0 2.15 -2.0 2.2 -2.15 2.2 -2.15 2.15 -2.2 2.15 -2.2 2.1 -2.15 2.1 -2.15 2.1 -2.1 2.05 -2.1 2.05 -2.05 2.0 -2.05 2.0 -2.0 2.0 -1.95 1.95 -1.95 1.9 -1.9 1.9 -1.9 1.85 -1.85 1.85 -1.85 1.75 -1.8 1.75 -1.75 1.75 -1.6 1.55 -1.6 1.5 -1.55 1.5 -1.55 1.5 -1.5 1.5 -1.45 1.45 -1.45 1.45 -1.45 1.35 -1.35 1.3 -1.2 1.25 -1.05 1.25 -0.95 1.2 -0.9 1.15 -0.85 1.15 -0.85 1.1 -0.8 1.05 -0.8 1.1 -0.95 1.25 -0.9 1.2 -0.8 1.15 -0.7 1.0 -0.65 0.95 -0.6 0.9 -0.55 0.9 -0.55 0.85 -0.5 0.85 -0.45 0.8 -0.4 0.75 -0.35 0.7 -0.3 0.65 -0.35 0.6 -0.3 0.6 -0.25 0.55 -0.15 0.55 -0.1 0.5 -0.05 0.5 0.0 0.5 M-0.45 -0.15 L0.0 -0.65 0.0 -0.6 0.05 -0.6 0.1 -0.55 0.1 -0.55 0.1 -0.5 0.1 -0.5 0.15 -0.45 0.15 -0.45 0.1 -0.45 0.1 -0.4 0.1 -0.4 0.05 -0.4 -0.05 -0.4 -0.1 -0.35 -0.15 -0.35 -0.2 -0.35 -0.2 -0.3 -0.15 -0.3 -0.1 -0.35 -0.05 -0.3 -0.05 -0.3 0.0 -0.3 0.15 -0.3 0.15 -0.25 0.15 -0.25 0.1 -0.3 0.1 -0.25 0.1 -0.25 0.1 -0.15 Q0.05 -0.05 0.1 -0.05 L0.1 0.0 0.05 0.05 0.0 0.15 -0.1 0.2 -0.15 0.25 -0.2 0.3 -0.2 0.3 -0.3 0.35 -0.35 0.35 -0.35 0.35 -0.4 0.35 -0.45 0.35 -0.45 0.3 -0.45 0.15 -0.45 0.1 -0.4 -0.05 -0.35 -0.1 -0.35 -0.1 -0.3 -0.15 -0.35 -0.15 -0.4 -0.1 -0.45 -0.05 -0.4 -0.1 -0.35 -0.15 -0.35 -0.15 -0.3 -0.15 -0.3 -0.2 -0.4 -0.15 -0.45 -0.1 -0.45 -0.05 -0.5 0.0 -0.5 0.1 -0.55 0.15 -0.55 0.3 -0.6 0.3 -0.75 0.3 -0.8 0.35 -0.8 0.35 -0.85 0.35 -0.8 0.35 -0.8 0.35 -0.75 0.35 -0.75 0.4 -0.75 0.4 -0.8 0.4 -0.85 0.35 -0.85 0.4 -0.9 0.45 -0.9 0.5 -0.9 0.55 -0.95 0.6 -0.95 0.65 -0.9 0.6 -0.9 0.7 -0.9 0.7 -0.95 0.7 -1.0 0.7 -1.0 0.7 -1.05 0.7 -1.05 0.7 -1.1 0.7 -1.15 0.7 -1.15 0.7 -1.2 0.75 -1.25 0.75 -1.3 0.85 -1.3 0.95 -1.35 0.95 -1.35 1.1 -1.4 1.25 -1.4 1.15 -1.4 1.0 -1.4 0.9 -1.35 0.9 -1.3 0.85 -1.3 0.8 -1.25 0.75 -1.25 0.75 -1.2 0.7 -1.15 0.65 -1.1 0.65 -1.1 0.65 -1.05 0.6 -1.05 0.55 -1.0 0.55 -1.0 0.5 -0.95 0.45 -0.9 0.35 -0.85 0.3 -0.8 0.25 -0.8 0.2 -0.7 0.15 -0.65 0.1 -0.6 0.05 -0.6 0.05 -0.6 0.2 -0.6 0.15 -0.55 0.05 -0.45 -0.15 M0.15 -0.45 L0.15 -0.45 M0.15 -0.2 L0.15 -0.2 Q0.15 -0.15 0.2 -0.2 L0.2 -0.1 0.15 0.0 0.15 -0.1 0.15 -0.15 0.15 -0.2 M-0.35 -0.05 L-0.35 0.0 -0.4 0.05 -0.4 0.1 -0.45 0.15 -0.45 0.2 -0.45 0.25 -0.45 0.25 -0.4 0.25 -0.4 0.35 -0.25 0.15 -0.15 0.05 0.05 -0.15 -0.05 -0.1 -0.1 -0.05 -0.1 0.0 -0.3 0.2 -0.3 0.2 -0.15 0.05 -0.05 -0.1 -0.05 -0.15 -0.15 -0.15 -0.15 -0.15 -0.2 -0.1 -0.25 -0.1 -0.35 -0.05 M-0.4 0.35 L-0.4 0.35 M-0.75 0.45 L-0.75 0.45 -0.65 0.45 -0.65 0.45 -0.7 0.5 -0.7 0.55 -0.75 0.55 -0.75 0.65 -0.7 0.65 -0.7 0.6 -0.65 0.55 -0.65 0.5 -0.6 0.45 -0.55 0.5 -0.55 0.5 -0.5 0.55 -0.5 0.6 -0.55 0.7 -0.55 0.6 -0.6 0.6 -0.6 0.6 -0.65 0.65 -0.7 0.7 -0.8 0.65 -0.8 0.6 -0.8 0.5 -0.75 0.45 M-0.5 0.65 L-0.45 0.7 -0.45 0.8 -0.5 0.8 -0.5 0.7 -0.5 0.65" fill="#87827d" fill-rule="evenodd" stroke="none"/>
    <path d="M-1.2 1.55 L-1.9 2.2 -2.0 2.2 -2.0 2.15 -1.95 2.15 -1.9 2.1 -1.9 2.1 -1.85 2.1 -1.85 2.05 -1.8 2.0 -1.75 2.0 -1.75 2.0 -1.7 2.0 -1.7 1.95 -1.7 1.95 -1.6 1.85 -1.55 1.8 -1.55 1.8 -1.5 1.75 -1.45 1.75 -1.45 1.7 -1.4 1.65 -1.35 1.65 -1.3 1.6 -1.2 1.55 M-2.2 2.1 L-2.2 1.75 -0.55 -0.05 -0.6 0.0 -0.6 0.05 -0.6 0.05 -0.65 0.1 -0.7 0.15 -0.8 0.2 -0.8 0.25 -0.85 0.3 -0.9 0.35 -0.95 0.45 -1.0 0.5 -1.0 0.55 -1.05 0.55 -1.05 0.6 -1.1 0.65 -1.1 0.65 -1.15 0.65 -1.2 0.7 -1.25 0.75 -1.25 0.75 -1.3 0.8 -1.3 0.85 -1.35 0.9 -1.4 0.9 -1.4 1.0 -1.4 1.15 -1.4 1.25 -1.35 1.1 -1.35 0.95 -1.3 0.95 -1.3 0.85 -1.25 0.75 -1.2 0.75 -1.15 0.7 -1.15 0.7 -1.1 0.7 -1.05 0.7 -1.05 0.7 -1.0 0.7 -1.0 0.7 -0.95 0.7 -0.9 0.7 -0.9 0.7 -0.9 0.6 -0.95 0.65 -0.95 0.6 -0.9 0.55 -0.9 0.5 -0.9 0.45 -0.85 0.4 -0.85 0.35 -0.8 0.4 -0.75 0.4 -0.75 0.4 -0.7 0.4 -0.65 0.4 -0.6 0.35 -0.55 0.35 -0.55 0.3 -0.55 0.15 -0.5 0.1 -0.5 0.0 -0.45 -0.05 -0.45 -0.1 -0.4 -0.15 -0.3 -0.2 -0.3 -0.15 -0.35 -0.15 -0.35 -0.15 -0.4 -0.1 -0.45 -0.05 -0.45 0.0 -0.5 0.05 -0.5 0.2 -0.55 0.35 -0.5 0.35 -0.5 0.4 -0.4 0.4 -0.25 0.4 -0.1 0.35 0.0 0.3 0.1 0.15 0.15 0.05 0.15 0.0 0.2 -0.1 0.2 -0.2 0.2 -0.15 0.2 -0.05 0.2 0.05 0.15 0.15 0.2 0.2 0.15 0.2 0.1 0.25 0.0 0.4 -0.05 0.45 -0.15 0.45 -0.3 0.5 -0.35 0.5 -0.4 0.5 -0.45 0.5 -0.45 0.55 -0.5 0.65 -0.5 0.65 -0.5 0.7 -0.5 0.8 -0.5 0.8 -0.55 0.85 -0.65 0.8 -0.65 0.8 -0.7 0.8 -0.75 0.8 -0.8 0.8 -0.8 1.05 -0.8 1.05 -0.85 1.1 -0.85 1.15 -0.9 1.15 -0.95 1.2 -1.05 1.25 -1.2 1.25 -1.35 1.3 -1.45 1.35 -1.45 1.45 -1.45 1.45 -1.5 1.5 -1.55 1.5 -1.55 1.5 -1.6 1.5 -1.6 1.55 -1.75 1.75 -1.8 1.75 -1.85 1.75 -1.85 1.85 -1.9 1.85 -1.9 1.9 -1.95 1.9 -1.95 1.95 -2.0 2.0 -2.05 2.0 -2.05 2.0 -2.1 2.05 -2.1 2.05 -2.15 2.05 -2.15 2.1 -2.15 2.1 -2.2 2.1 M0.2 -0.2 L0.2 -0.2 M-0.55 0.7 L-0.5 0.6 -0.5 0.55 -0.55 0.5 -0.55 0.5 -0.6 0.45 -0.65 0.5 -0.65 0.55 -0.7 0.6 -0.7 0.65 -0.75 0.65 -0.75 0.55 -0.7 0.55 -0.7 0.5 -0.65 0.45 -0.65 0.45 -0.75 0.45 -0.75 0.45 -0.8 0.45 -0.85 0.6 -0.85 0.7 -0.85 0.7 -0.8 0.75 -0.75 0.75 -0.55 0.7 -0.55 0.7 M-0.85 0.8 L-0.9 0.75 -1.0 0.75 -1.05 0.75 -1.1 0.75 -1.1 0.75 -1.15 0.8 -1.2 0.85 -1.2 0.85 -1.25 1.0 -1.3 1.1 -1.3 1.2 -1.25 1.2 -1.25 1.25 -1.1 1.2 -0.95 1.15 -0.9 1.1 -0.85 1.0 -0.8 0.95 -0.85 0.9 -0.85 0.8" fill="#d7d5d0" fill-rule="evenodd" stroke="none"/>
    <path d="M-0.55 -0.05 L-0.5 -0.15 -0.45 -0.15 -0.55 0.05 -0.6 0.15 -0.6 0.2 -0.6 0.05 -0.6 0.0 -0.55 -0.05 M-0.55 0.3 L-0.55 0.35 -0.6 0.35 -0.65 0.35 -0.7 0.4 -0.75 0.4 -0.75 0.35 -0.8 0.35 -0.8 0.35 -0.85 0.35 -0.8 0.35 -0.8 0.35 -0.75 0.3 -0.6 0.3 -0.55 0.3" fill="#4d4a45" fill-rule="evenodd" stroke="none"/>
    <path d="M1.85 -2.2 L1.9 -2.2 1.95 -2.2 1.95 -2.15 1.95 -2.15 1.85 -2.05 1.9 -2.15 1.9 -2.2 1.85 -2.1 1.85 -2.2 M1.8 -2.0 L1.8 -2.0 1.8 -2.0 1.85 -1.95 1.85 -1.95 1.8 -1.95 1.8 -2.0 M2.0 -2.15 L2.05 -2.1 2.05 -2.15 2.0 -2.15 2.0 -2.2 2.0 -2.15 2.05 -2.1 2.1 -2.1 2.1 -2.05 2.1 -2.0 2.15 -2.0 2.0 -1.9 2.0 -1.9 2.05 -2.0 2.1 -2.0 2.1 -2.05 1.95 -1.95 1.95 -2.0 2.0 -2.0 2.05 -2.05 2.05 -2.1 2.0 -2.05 1.95 -2.0 1.9 -2.0 1.9 -2.05 1.95 -2.1 2.0 -2.15 M1.95 -2.05 L2.0 -2.1 1.95 -2.05 1.9 -2.0 1.95 -2.0 1.95 -2.05" fill="#81796d" fill-rule="evenodd" stroke="none"/>
    <path d="M1.95 -2.2 L2.0 -2.2 2.0 -2.15 2.05 -2.15 2.05 -2.1 2.0 -2.15 1.95 -2.15 1.95 -2.2 M1.95 -2.05 L1.9 -2.0 1.95 -2.05 2.0 -2.1 1.95 -2.05" fill="#bbb2a2" fill-rule="evenodd" stroke="none"/>
    <path d="M1.8 -1.85 L1.8 -1.9 1.8 -1.9 1.8 -1.9 1.8 -1.85" fill="#88817f" fill-rule="evenodd" stroke="none"/>
    <path d="M1.75 -1.85 L1.75 -1.75 1.7 -1.8 1.7 -1.8 1.7 -1.85 1.75 -1.85 1.75 -1.85" fill="#7f655d" fill-rule="evenodd" stroke="none"/>
    <path d="M1.65 -1.7 L1.65 -1.75 1.65 -1.8 1.7 -1.8 1.7 -1.75 1.65 -1.75 1.65 -1.75 1.65 -1.7" fill="#827b78" fill-rule="evenodd" stroke="none"/>
    <path d="M1.65 -1.7 L1.65 -1.65 1.6 -1.65 1.6 -1.65 1.55 -1.65 1.55 -1.65 1.55 -1.7 1.6 -1.7 1.6 -1.7 1.65 -1.7" fill="#796056" fill-rule="evenodd" stroke="none"/>
    <path d="M1.25 -1.4 L1.3 -1.4 1.3 -1.4 1.35 -1.4 1.35 -1.4 1.3 -1.35 1.3 -1.3 1.25 -1.25 1.2 -1.25 1.2 -1.2 1.15 -1.15 1.1 -1.15 1.1 -1.15 1.05 -1.1 1.05 -1.1 1.0 -1.1 1.0 -1.05 0.95 -1.0 0.9 -1.0 0.9 -1.0 0.95 -1.05 1.0 -1.1 1.05 -1.2 1.1 -1.25 1.1 -1.25 1.2 -1.3 1.2 -1.35 1.25 -1.4" fill="#7f7976" fill-rule="evenodd" stroke="none"/>
    <path d="M1.1 -0.2 L1.1 -0.15 1.1 -0.15 1.1 -0.1 1.15 -0.1 1.15 -0.05 1.15 -0.05 1.15 0.0 1.15 0.0 1.05 0.0 1.0 -0.05 1.05 -0.05 1.05 -0.1 1.0 -0.1 1.0 -0.15 1.0 -0.15 1.05 -0.15 1.05 -0.15 1.1 -0.2" fill="#897368" fill-rule="evenodd" stroke="none"/>
    <path d="M0.45 -0.35 L0.5 -0.3 0.5 -0.3 0.55 -0.3 0.6 -0.3 0.6 -0.3 0.65 -0.25 0.65 -0.25 0.65 -0.25 0.6 -0.25 0.6 -0.25 0.55 -0.25 0.5 -0.25 0.45 -0.3 0.45 -0.35 M0.3 -0.3 L0.3 -0.3 0.35 -0.3 0.3 -0.3 0.3 -0.3 0.3 -0.3 M0.5 -0.3 L0.5 -0.3 M1.0 -0.35 L1.05 -0.35 1.05 -0.4 1.05 -0.35 1.0 -0.35" fill="#f2e1d0" fill-rule="evenodd" stroke="none"/>
    <path d="M1.0 -0.4 L1.05 -0.4 1.05 -0.35 1.0 -0.35 1.0 -0.35 1.0 -0.4 0.95 -0.4 1.0 -0.4 M0.6 -0.2 L0.55 -0.2 0.5 -0.2 0.5 -0.2 0.45 -0.2 0.45 -0.2 0.4 -0.2 0.4 -0.25 0.4 -0.3 0.35 -0.35 0.3 -0.35 0.3 -0.35 0.25 -0.35 0.25 -0.3 0.25 -0.25 0.2 -0.25 0.2 -0.2 Q0.15 -0.15 0.15 -0.2 L0.15 -0.2 0.1 -0.2 0.1 -0.2 0.1 -0.25 0.1 -0.25 0.1 -0.3 0.15 -0.25 0.15 -0.25 0.15 -0.3 0.15 -0.3 0.2 -0.3 0.2 -0.3 0.15 -0.3 0.15 -0.35 0.1 -0.4 0.15 -0.4 0.15 -0.45 0.2 -0.45 0.2 -0.45 0.25 -0.4 0.2 -0.4 0.2 -0.4 0.2 -0.4 0.15 -0.4 0.15 -0.35 0.2 -0.35 0.2 -0.35 0.25 -0.35 0.3 -0.35 0.45 -0.35 0.45 -0.35 0.45 -0.3 0.5 -0.25 0.55 -0.25 0.6 -0.25 0.6 -0.25 0.65 -0.25 0.65 -0.25 0.7 -0.25 0.8 -0.25 0.9 -0.3 0.9 -0.3 0.95 -0.3 0.95 -0.3 1.0 -0.35 1.0 -0.3 0.9 -0.25 0.9 -0.25 0.8 -0.2 0.8 -0.2 0.75 -0.2 0.75 -0.2 0.7 -0.2 0.65 -0.2 0.65 -0.2 0.6 -0.2 0.6 -0.2 M0.65 -0.55 L0.75 -0.45 0.8 -0.4 0.85 -0.35 0.85 -0.35 0.75 -0.4 0.7 -0.45 0.65 -0.55 M0.2 -0.2 L0.2 -0.2" fill="#947667" fill-rule="evenodd" stroke="none"/>
    <path d="M0.7 -0.8 L0.7 -0.85 0.75 -0.85 0.75 -0.8 0.8 -0.8 0.8 -0.75 0.85 -0.75 0.85 -0.75 0.9 -0.7 0.9 -0.65 0.95 -0.6 0.95 -0.55 0.95 -0.45 0.95 -0.4 0.9 -0.4 0.9 -0.5 0.85 -0.55 0.8 -0.55 0.75 -0.6 0.7 -0.6 0.75 -0.6 0.85 -0.6 0.85 -0.6 0.85 -0.65 0.85 -0.7 0.8 -0.7 0.8 -0.75 0.75 -0.75 0.7 -0.8 0.7 -0.75 0.65 -0.75 0.65 -0.75 0.7 -0.8 0.7 -0.8 M0.85 -0.7 L0.9 -0.65 0.9 -0.6 0.85 -0.55 0.9 -0.55 0.9 -0.55 0.9 -0.65 0.85 -0.7" fill="#917767" fill-rule="evenodd" stroke="none"/>
    <path d="M0.85 -0.7 L0.9 -0.65 0.9 -0.55 0.9 -0.55 0.85 -0.55 0.9 -0.6 0.9 -0.65 0.85 -0.7" fill="#ebcfb0" fill-rule="evenodd" stroke="none"/>
    <path d="M0.55 -0.7 L0.55 -0.75 0.6 -0.75 0.6 -0.7 0.65 -0.7 0.65 -0.7 0.65 -0.65 0.6 -0.65 0.6 -0.7 0.6 -0.7 0.6 -0.7 0.55 -0.7 0.55 -0.7" fill="#8c7a65" fill-rule="evenodd" stroke="none"/>
    <path d="M0.55 -0.7 L0.55 -0.7 0.6 -0.7 0.6 -0.7 0.55 -0.7 0.55 -0.7" fill="#e4d3af" fill-rule="evenodd" stroke="none"/>
    <path d="M0.55 -0.75 L0.55 -0.75 0.5 -0.7 0.5 -0.7 0.45 -0.7 0.5 -0.75 0.5 -0.75 0.55 -0.75" fill="#e2cbaa" fill-rule="evenodd" stroke="none"/>
    <path d="M0.55 -0.55 L0.5 -0.6 0.5 -0.6 0.5 -0.65 0.5 -0.6 0.55 -0.65 0.55 -0.65 0.55 -0.65 0.6 -0.65 0.55 -0.6 0.55 -0.55" fill="#9d8575" fill-rule="evenodd" stroke="none"/>
    <path d="M0.6 -0.55 L0.6 -0.6 0.6 -0.65 0.65 -0.65 0.65 -0.6 0.7 -0.6 0.65 -0.6 0.65 -0.6 0.6 -0.6 0.65 -0.55 0.65 -0.55 0.65 -0.55 0.65 -0.55 0.6 -0.55" fill="#9a8270" fill-rule="evenodd" stroke="none"/>
    <path d="M0.7 -0.6 L0.7 -0.55 0.65 -0.55 0.65 -0.55 0.6 -0.6 0.65 -0.6 0.65 -0.6 0.7 -0.6" fill="#e4cdaf" fill-rule="evenodd" stroke="none"/>
    <path d="M0.55 -0.55 L0.55 -0.55 0.55 -0.55 0.6 -0.55 0.6 -0.55 0.65 -0.55 0.65 -0.5 0.65 -0.5 0.6 -0.5 0.6 -0.45 0.6 -0.45 0.55 -0.4 0.55 -0.45 0.6 -0.5 0.55 -0.5 0.55 -0.55 0.55 -0.5 0.55 -0.5 0.55 -0.55 0.5 -0.55 0.5 -0.55 0.45 -0.5 0.45 -0.5 0.45 -0.55 0.4 -0.5 0.4 -0.5 0.35 -0.45 0.35 -0.5 0.4 -0.5 0.4 -0.55 0.45 -0.55 0.45 -0.55 0.4 -0.6 0.4 -0.6 0.45 -0.6 0.45 -0.6 0.45 -0.55 0.45 -0.55 0.45 -0.55 0.5 -0.55 0.5 -0.55 0.55 -0.55 M0.45 -0.6 L0.45 -0.6 0.45 -0.55 0.45 -0.6 M0.6 -0.5 L0.6 -0.5 0.6 -0.5 0.6 -0.5" fill="#937e6c" fill-rule="evenodd" stroke="none"/>
    <path d="M0.5 -0.8 L0.55 -0.75 0.5 -0.75 0.5 -0.75 0.45 -0.7 0.45 -0.75 0.45 -0.8 0.5 -0.8" fill="#8f7a6a" fill-rule="evenodd" stroke="none"/>
    <path d="M0.35 -0.7 L0.35 -0.65 0.4 -0.7 0.4 -0.75 0.45 -0.75 0.45 -0.7 0.45 -0.7 0.4 -0.7 Q0.4 -0.7 0.45 -0.65 L0.45 -0.65 0.4 -0.65 0.35 -0.65 0.25 -0.65 0.25 -0.65 0.3 -0.65 0.35 -0.7" fill="#8f7d6b" fill-rule="evenodd" stroke="none"/>
    <path d="M0.45 -0.7 L0.45 -0.7 0.45 -0.65 0.45 -0.65 Q0.4 -0.7 0.4 -0.7 L0.45 -0.7 0.45 -0.7" fill="#e6d5b2" fill-rule="evenodd" stroke="none"/>
    <path d="M0.2 -0.6 L0.2 -0.65 0.2 -0.6 Q0.2 -0.55 0.2 -0.55 L0.2 -0.6" fill="#eadbcc" fill-rule="evenodd" stroke="none"/>
    <path d="M0.6 -0.45 L0.6 -0.35 0.6 -0.3 0.55 -0.35 0.55 -0.4 0.6 -0.45 M0.45 -0.5 L0.4 -0.45 0.35 -0.4 0.3 -0.45 0.35 -0.45 0.4 -0.5 0.4 -0.5 0.45 -0.55 0.45 -0.5 M0.25 -0.65 L0.25 -0.65 0.2 -0.65 0.3 -0.7 0.35 -0.7 0.3 -0.65 0.25 -0.65 M0.45 -0.6 L0.45 -0.55 0.45 -0.6 0.45 -0.6" fill="#eadfca" fill-rule="evenodd" stroke="none"/>
    <path d="M0.55 -0.5 L0.5 -0.5 0.45 -0.5 0.5 -0.55 0.5 -0.55 0.55 -0.55 0.55 -0.5" fill="#e6cfa9" fill-rule="evenodd" stroke="none"/>
    <path d="M0.6 -0.5 L0.6 -0.5 0.6 -0.5 0.6 -0.5" fill="#deceb1" fill-rule="evenodd" stroke="none"/>
    <path d="M0.35 -0.3 L0.35 -0.25 0.35 -0.2 0.35 -0.25 0.3 -0.25 0.35 -0.25 0.3 -0.3 0.3 -0.25 0.3 -0.3 0.3 -0.3 0.3 -0.3 0.35 -0.3" fill="#9f8172" fill-rule="evenodd" stroke="none"/>
    <path d="M0.1 -0.25 L0.1 -0.2 0.1 -0.2 0.15 -0.2 0.15 -0.15 0.15 -0.1 0.15 0.0 0.15 0.05 0.1 0.15 0.0 0.3 -0.1 0.35 -0.25 0.4 -0.4 0.4 -0.5 0.4 -0.5 0.35 -0.55 0.35 -0.5 0.2 -0.5 0.05 -0.45 0.0 -0.45 -0.05 -0.4 -0.1 -0.35 -0.15 -0.3 -0.15 -0.35 -0.1 -0.35 -0.1 -0.4 -0.05 -0.45 0.1 -0.45 0.15 -0.45 0.3 -0.45 0.35 -0.4 0.35 -0.35 0.35 -0.35 0.35 -0.3 0.35 -0.2 0.3 -0.2 0.3 -0.15 0.25 -0.1 0.2 0.0 0.15 0.05 0.05 0.1 0.0 0.1 -0.05 Q0.05 -0.05 0.1 -0.15 L0.1 -0.25 M-0.4 0.35 L-0.4 0.35" fill="#423f3a" fill-rule="evenodd" stroke="none"/>
    <path d="M-0.35 -0.05 L-0.25 -0.1 -0.2 -0.1 -0.15 -0.15 -0.15 -0.15 -0.05 -0.15 -0.05 -0.1 -0.15 0.05 -0.3 0.2 -0.3 0.2 -0.1 0.0 -0.1 -0.05 -0.05 -0.1 0.05 -0.15 -0.15 0.05 -0.25 0.15 -0.4 0.35 -0.4 0.25 -0.45 0.25 -0.45 0.25 -0.45 0.2 -0.45 0.15 -0.4 0.1 -0.4 0.05 -0.35 0.0 -0.35 -0.05" fill="#ccc5bd" fill-rule="evenodd" stroke="none"/>
    <path d="M0.1 0.35 L0.0 0.5 -0.05 0.5 -0.1 0.5 -0.15 0.55 -0.25 0.55 -0.3 0.6 -0.35 0.6 -0.3 0.65 -0.35 0.7 -0.4 0.75 -0.45 0.8 -0.5 0.85 -0.55 0.85 -0.55 0.9 -0.6 0.9 -0.65 0.95 -0.7 1.0 -0.8 1.15 -0.9 1.2 -0.95 1.25 -0.8 1.1 -0.8 1.05 -0.8 1.05 -0.8 0.8 -0.75 0.8 -0.7 0.8 -0.65 0.8 -0.65 0.8 -0.55 0.85 -0.5 0.8 -0.5 0.8 -0.45 0.8 -0.45 0.7 -0.5 0.65 -0.5 0.65 -0.45 0.55 -0.45 0.5 -0.4 0.5 -0.35 0.5 -0.3 0.5 -0.15 0.45 -0.05 0.45 0.0 0.4 0.1 0.35" fill="#4c4742" fill-rule="evenodd" stroke="none"/>
    <path d="M-0.55 0.7 L-0.55 0.7 -0.75 0.75 -0.8 0.75 -0.85 0.7 -0.85 0.7 -0.85 0.6 -0.8 0.45 -0.75 0.45 -0.8 0.5 -0.8 0.6 -0.8 0.65 -0.7 0.7 -0.65 0.65 -0.6 0.6 -0.6 0.6 -0.55 0.6 -0.55 0.7 M-0.85 1.0 L-0.9 1.1 -0.95 1.15 -1.1 1.2 -1.25 1.25 -1.25 1.2 -1.3 1.2 -1.3 1.1 -1.25 1.0 -1.2 0.85 -1.2 0.85 -1.2 0.9 -1.2 0.95 -1.25 1.0 -1.25 1.15 -1.25 1.2 -1.25 1.2 -1.2 1.2 -1.15 1.2 -1.1 1.15 -0.95 1.05 -0.85 0.95 -0.85 1.0" fill="#44403b" fill-rule="evenodd" stroke="none"/>
    <path d="M-1.1 0.75 L-1.1 0.75 -1.05 0.75 -1.0 0.75 -0.9 0.75 -0.85 0.8 -0.9 0.8 -0.95 0.85 -1.0 0.95 -1.0 0.95 -1.05 1.0 -1.1 1.0 -1.1 1.05 -1.15 1.1 -1.2 1.15 -1.25 1.2 -1.25 1.15 -1.25 1.0 -1.2 0.95 -1.2 0.9 -1.2 0.85 -1.1 0.75" fill="#e6e1da" fill-rule="evenodd" stroke="none"/>
    <path d="M-0.85 0.8 L-0.85 0.9 -0.8 0.95 -0.85 1.0 -0.85 0.95 -0.95 1.05 -1.1 1.15 -1.15 1.2 -1.2 1.2 -1.25 1.2 -1.25 1.2 -1.2 1.15 -1.15 1.1 -1.1 1.05 -1.1 1.0 -1.05 1.0 -1.0 0.95 -1.0 0.95 -0.95 0.85 -0.9 0.8 -0.85 0.8" fill="#8c857e" fill-rule="evenodd" stroke="none"/>
    <path d="M2.05 -2.2 L2.1 -2.1 2.1 -2.05 2.15 -2.0 2.2 -1.95 2.2 -1.9 2.15 -1.9 2.1 -1.9 2.05 -1.9 1.95 -1.85 1.95 -1.8 1.9 -1.8 1.85 -1.8 1.8 -1.7 1.75 -1.65 1.55 -1.45 1.45 -1.35 1.35 -1.3 1.35 -1.25 1.3 -1.25 1.15 -1.1 1.05 -1.0 1.0 -0.95 1.0 -0.95 0.9 -0.85 0.9 -0.8 0.95 -0.75 0.95 -0.65 1.0 -0.5 1.0 -0.4 1.0 -0.4 1.05 -0.4 1.1 -0.35 1.05 -0.25 Q1.05 -0.2 1.05 -0.2 L1.1 -0.2 1.1 -0.15 1.15 -0.15 1.25 -0.15 1.25 -0.1 1.25 -0.05 1.2 -0.05 1.15 0.0 1.15 0.0 1.05 0.0 1.0 -0.05 1.0 -0.05 0.95 -0.1 0.95 -0.1 0.9 -0.1 0.95 -0.15 0.95 -0.15 0.9 -0.1 0.85 -0.1 0.8 -0.15 0.75 -0.15 0.75 -0.15 0.7 -0.15 0.7 -0.15 0.65 -0.15 0.65 -0.15 0.6 -0.2 0.55 -0.2 0.5 -0.2 0.5 -0.2 0.45 -0.2 0.5 -0.1 0.55 -0.05 0.25 0.2 0.15 0.35 0.1 0.35 0.0 0.5 -1.2 1.55 -1.9 2.2 M-2.2 1.75 L-0.55 -0.05 -0.5 -0.15 M-0.45 -0.15 L0.0 -0.65 0.0 -0.6 0.05 -0.6 0.1 -0.55 0.1 -0.55 0.1 -0.65 0.15 -0.65 0.1 -0.7 0.1 -0.7 0.1 -0.75 0.05 -0.75 0.05 -0.75 0.05 -0.8 0.0 -0.9 0.0 -0.95 0.05 -1.0 0.1 -1.0 0.1 -1.05 0.05 -1.1 0.0 -1.1 0.0 -1.1 -0.05 -1.15 -0.05 -1.15 -0.05 -1.15 -0.1 -1.2 -0.05 -1.2 -0.1 -1.2 -0.1 -1.25 -0.05 -1.3 -0.05 -1.3 0.0 -1.3 0.05 -1.3 0.1 -1.3 0.1 -1.2 0.15 -1.15 0.2 -1.15 0.25 -1.15 0.3 -1.15 0.3 -1.1 0.35 -1.1 0.4 -1.05 0.45 -1.05 0.55 -1.05 0.6 -1.05 0.6 -1.0 0.65 -1.0 0.7 -0.95 0.7 -0.95 0.75 -0.95 0.75 -1.0 0.8 -1.0 0.8 -1.05 0.95 -1.2 1.1 -1.3 1.1 -1.35 1.15 -1.35 1.15 -1.4 1.35 -1.55 1.55 -1.8 1.7 -1.9 1.75 -1.95 1.75 -2.0 1.8 -2.0 1.8 -2.0 1.8 -2.2" fill="none" stroke="#000000" stroke-linecap="round" stroke-linejoin="round" stroke-opacity="0.4" stroke-width="1.0"/>
  </g>
</svg>
