<?xml version="1.0" encoding="UTF-8" standalone="no"?>
<svg xmlns:xlink="http://www.w3.org/1999/xlink" height="6.35px" width="8.0px" xmlns="http://www.w3.org/2000/svg">
  <g transform="matrix(1.0, 0.0, 0.0, 1.0, 5.4, 2.6)">
    <path d="M1.75 -2.6 L1.7 -2.5 1.65 -2.5 1.65 -2.5 1.6 -2.45 1.5 -2.45 1.4 -2.45 1.0 -2.45 1.0 -2.45 0.95 -2.4 0.65 -2.4 0.3 -2.4 0.25 -2.4 0.05 -2.4 0.0 -2.35 -0.2 -2.35 -0.25 -2.35 -0.35 -2.35 -0.75 -2.35 -0.9 -2.35 -1.3 -2.35 -1.65 -2.4 -1.7 -2.4 -1.9 -2.4 -1.9 -2.4 -2.05 -2.4 -2.05 -2.45 -2.1 -2.45 -2.2 -2.5 -2.2 -2.5 -2.3 -2.55 -2.3 -2.55 -2.15 -2.6 1.75 -2.6 M-2.05 2.3 L-2.05 2.2 1.55 2.2 1.55 2.3 1.55 2.35 1.55 2.45 1.4 2.45 1.2 2.45 1.1 2.5 0.95 2.5 0.85 2.5 0.45 2.5 0.05 2.5 -0.3 2.5 -0.65 2.5 -0.85 2.5 -1.25 2.5 -1.65 2.5 -2.0 2.5 -2.05 2.5 -2.05 2.4 -2.05 2.3 -2.0 2.3 -2.05 2.3" fill="#f5efe8" fill-rule="evenodd" stroke="none"/>
    <path d="M-2.3 -2.55 L-2.3 -2.55 -2.2 -2.5 -2.2 -2.5 -2.1 -2.45 -2.05 -2.45 -2.05 -2.4 -1.9 -2.4 -1.9 -2.4 -1.7 -2.4 -1.65 -2.4 -1.3 -2.35 -0.9 -2.35 -0.75 -2.35 -0.35 -2.35 -0.25 -2.35 -0.2 -2.35 0.0 -2.35 0.05 -2.4 0.25 -2.4 0.3 -2.4 0.65 -2.4 0.95 -2.4 1.0 -2.45 1.0 -2.45 1.4 -2.45 1.5 -2.45 1.6 -2.45 1.65 -2.5 1.65 -2.5 1.7 -2.5 1.75 -2.6 2.15 -2.6 Q2.5 -2.6 2.55 -2.3 L-2.6 -2.3 Q-2.55 -2.5 -2.3 -2.55 M2.55 2.3 Q2.5 2.6 2.15 2.6 L-2.15 2.6 Q-2.5 2.6 -2.6 2.3 L-2.15 2.3 -2.05 2.3 -2.0 2.3 -2.05 2.3 -2.05 2.4 -2.05 2.5 -2.0 2.5 -1.65 2.5 -1.25 2.5 -0.85 2.5 -0.65 2.5 -0.3 2.5 0.05 2.5 0.45 2.5 0.85 2.5 0.95 2.5 1.1 2.5 1.2 2.45 1.4 2.45 1.55 2.45 1.55 2.35 1.55 2.3 2.15 2.3 2.55 2.3" fill="#cdc8c2" fill-rule="evenodd" stroke="none"/>
    <path d="M-2.6 -2.3 L2.55 -2.3 2.6 -2.15 2.6 -0.45 2.55 -0.4 2.55 -0.35 2.55 -0.3 2.55 -0.2 2.5 -0.15 2.5 -0.1 2.45 -0.05 2.45 0.05 2.4 0.1 2.4 0.2 2.3 0.3 2.3 -0.5 2.3 -1.05 2.35 -1.45 2.35 -2.0 2.25 -2.1 2.25 -2.1 2.2 -2.05 2.2 -2.05 2.2 -2.15 2.15 -2.2 -2.15 -2.2 -2.15 -2.15 -2.2 -2.15 -2.2 2.15 -2.15 2.2 -2.05 2.2 -2.05 2.3 -2.15 2.3 Q-2.3 2.25 -2.3 2.15 L-2.3 0.3 -2.3 0.3 -2.4 0.2 -2.45 0.15 -2.5 0.1 -2.5 0.05 -2.55 -0.05 -2.6 -0.1 -2.6 -2.3 M1.55 2.2 L2.1 2.2 2.15 2.25 2.2 2.25 2.15 2.3 1.55 2.3 1.55 2.2" fill="#d4d4d4" fill-opacity="0.5686275" fill-rule="evenodd" stroke="none"/>
    <path d="M2.2 -2.05 L2.2 -2.05 2.25 -2.1 2.25 -2.1 2.35 -2.0 2.35 -1.45 2.3 -1.05 2.3 -0.5 2.3 0.3 2.4 0.2 2.4 0.1 2.45 0.05 2.45 -0.05 2.5 -0.1 2.5 -0.15 2.55 -0.2 2.55 -0.3 2.55 -0.35 2.55 -0.4 2.6 -0.45 2.6 2.15 2.55 2.3 2.15 2.3 2.2 2.25 2.15 2.25 2.1 2.2 2.15 2.2 2.2 2.15 2.2 -2.05 M-2.6 2.3 L-2.6 -0.1 -2.55 -0.05 -2.5 0.05 -2.5 0.1 -2.45 0.15 -2.4 0.2 -2.3 0.3 -2.3 0.3 -2.3 2.15 Q-2.3 2.25 -2.15 2.3 L-2.6 2.3" fill="#989898" fill-opacity="0.5686275" fill-rule="evenodd" stroke="none"/>
    <path d="M-2.15 -2.2 L2.15 -2.2 2.2 -2.15 2.2 -2.05 2.2 2.15 2.15 2.2 2.1 2.2 1.55 2.2 -2.05 2.2 -2.15 2.2 -2.2 2.15 -2.2 -2.15 -2.15 -2.15 -2.15 -2.2" fill="url(#gradient0)" fill-rule="evenodd" stroke="none"/>
    <path d="M1.75 -2.6 L-2.15 -2.6 -2.3 -2.55 Q-2.55 -2.5 -2.6 -2.3 L-2.6 -0.1 -2.6 2.3 Q-2.5 2.6 -2.15 2.6 L2.15 2.6 Q2.5 2.6 2.55 2.3 L2.6 2.15 2.6 -0.45 2.6 -2.15 2.55 -2.3 Q2.5 -2.6 2.15 -2.6 L1.75 -2.6 M-2.15 -2.2 L2.15 -2.2 2.2 -2.15 2.2 -2.05 2.2 2.15 2.15 2.2 2.1 2.2 1.55 2.2 -2.05 2.2 -2.15 2.2 -2.2 2.15 -2.2 -2.15" fill="none" stroke="#000000" stroke-linecap="round" stroke-linejoin="round" stroke-opacity="0.4" stroke-width="1.0"/>
    <path d="M1.05 -2.2 L1.1 -2.2 1.05 -2.1 1.0 -1.95 1.0 -2.0 0.95 -2.0 0.9 -1.95 0.9 -1.9 0.9 -2.0 0.85 -1.9 0.8 -1.95 0.85 -2.05 0.85 -2.1 0.9 -2.15 0.95 -2.2 1.0 -2.2 Q1.0 -2.15 1.05 -2.15 L1.05 -2.2 M1.0 -1.95 L1.0 -1.95" fill="#321f20" fill-rule="evenodd" stroke="none"/>
    <path d="M1.05 -2.2 L1.05 -2.15 Q1.0 -2.15 1.0 -2.2 L1.05 -2.2" fill="#5f5658" fill-rule="evenodd" stroke="none"/>
    <path d="M1.0 -1.95 L1.0 -1.95 Q1.05 -1.95 1.05 -1.95 L1.0 -1.9 1.0 -1.9 Q1.0 -1.9 1.05 -1.9 L1.05 -1.8 Q1.0 -1.8 1.0 -1.8 L0.95 -1.8 Q0.9 -1.8 0.95 -1.85 L1.0 -1.85 1.0 -1.95" fill="#593e3e" fill-rule="evenodd" stroke="none"/>
    <path d="M0.8 -1.95 L0.85 -1.9 0.9 -2.0 0.9 -1.9 0.9 -1.95 0.95 -2.0 1.0 -2.0 1.0 -1.95 1.0 -1.85 0.95 -1.85 0.9 -1.85 0.9 -1.8 0.85 -1.85 0.85 -1.9 0.8 -1.85 0.8 -1.95" fill="#765b5a" fill-rule="evenodd" stroke="none"/>
    <path d="M0.85 -2.1 L0.85 -2.05 0.8 -1.95 Q0.8 -2.05 0.85 -2.1" fill="#6b5156" fill-rule="evenodd" stroke="none"/>
    <path d="M1.55 -1.85 L1.55 -1.9 1.5 -1.9 1.5 -1.8 Q1.55 -1.8 1.55 -1.85 M1.75 -1.95 L1.75 -1.95 1.8 -1.9 1.8 -1.9 1.75 -1.9 1.7 -1.85 1.65 -1.8 1.6 -1.75 Q1.6 -1.75 1.65 -1.75 L1.7 -1.75 1.7 -1.75 1.75 -1.7 1.7 -1.65 1.75 -1.6 1.7 -1.55 Q1.65 -1.55 1.7 -1.6 L1.65 -1.55 1.65 -1.55 1.6 -1.55 1.6 -1.55 1.55 -1.55 1.6 -1.6 1.6 -1.65 1.55 -1.65 1.55 -1.55 Q1.5 -1.55 1.45 -1.55 L1.45 -1.5 1.4 -1.55 Q1.35 -1.5 1.4 -1.5 L1.3 -1.45 1.35 -1.4 1.35 -1.35 Q1.4 -1.4 1.4 -1.35 L1.35 -1.3 1.35 -1.25 1.3 -1.25 1.25 -1.15 1.2 -1.05 1.2 -1.05 1.1 -1.0 1.0 -0.95 Q0.95 -0.9 0.95 -0.85 L0.9 -0.8 0.8 -0.65 0.75 -0.6 0.7 -0.6 Q0.7 -0.65 0.75 -0.7 L0.8 -0.75 0.8 -0.8 0.9 -0.85 0.95 -0.9 0.95 -0.9 1.0 -1.0 1.1 -1.1 1.15 -1.1 1.2 -1.15 1.2 -1.25 1.2 -1.3 1.15 -1.25 1.15 -1.25 1.2 -1.25 1.15 -1.2 Q1.1 -1.2 1.05 -1.2 L1.05 -1.15 1.0 -1.15 0.95 -1.1 0.85 -1.05 0.9 -1.0 Q0.85 -1.0 0.8 -1.0 L0.8 -0.95 0.85 -0.95 0.8 -0.9 0.8 -0.9 0.75 -0.95 0.7 -0.9 0.7 -0.85 0.65 -0.85 Q0.6 -0.85 0.6 -0.8 0.55 -0.75 0.6 -0.75 L0.55 -0.7 0.55 -0.7 0.5 -0.65 0.5 -0.7 0.45 -0.65 0.45 -0.65 0.45 -0.65 0.4 -0.6 0.45 -0.55 0.5 -0.45 0.5 -0.5 0.45 -0.5 0.45 -0.55 0.4 -0.55 0.35 -0.5 0.4 -0.65 0.4 -0.7 0.45 -0.7 0.55 -0.8 0.6 -0.85 0.65 -0.9 0.55 -0.85 0.6 -0.9 0.6 -0.95 0.65 -0.95 0.65 -1.0 0.7 -1.0 0.7 -1.05 0.8 -1.1 0.8 -1.2 Q0.8 -1.25 0.85 -1.25 L0.85 -1.2 0.9 -1.15 Q0.9 -1.25 0.95 -1.25 L1.0 -1.25 0.95 -1.3 1.0 -1.3 1.0 -1.35 1.0 -1.35 1.05 -1.4 1.1 -1.5 1.1 -1.5 1.1 -1.55 1.05 -1.55 1.15 -1.55 1.2 -1.55 1.15 -1.55 1.15 -1.65 1.1 -1.65 1.05 -1.6 1.05 -1.65 1.0 -1.65 1.0 -1.6 0.95 -1.65 0.95 -1.65 0.95 -1.65 0.9 -1.65 0.9 -1.65 0.85 -1.65 0.85 -1.7 0.85 -1.75 0.8 -1.8 0.8 -1.85 0.85 -1.9 0.85 -1.85 0.9 -1.8 0.9 -1.85 0.95 -1.85 Q0.9 -1.8 0.95 -1.8 L1.0 -1.8 Q1.0 -1.8 1.05 -1.8 L1.05 -1.9 Q1.0 -1.9 1.0 -1.9 L1.0 -1.9 1.05 -1.95 1.15 -1.95 1.25 -1.95 1.3 -2.0 Q1.35 -1.95 1.4 -2.0 L1.45 -2.05 1.45 -1.95 1.45 -1.95 Q1.45 -1.9 1.45 -1.95 L1.65 -1.95 1.65 -1.95 1.6 -1.9 1.65 -1.85 1.7 -1.9 1.75 -1.95 M1.3 -1.95 L1.3 -1.85 Q1.3 -1.8 1.35 -1.85 L1.35 -1.9 Q1.35 -2.0 1.3 -1.95 M1.45 -1.75 L1.4 -1.65 1.4 -1.65 1.35 -1.65 1.35 -1.6 Q1.4 -1.6 1.35 -1.55 L1.4 -1.6 1.4 -1.6 1.45 -1.65 1.45 -1.75 M1.3 -1.75 L1.3 -1.75 1.35 -1.7 1.35 -1.75 1.3 -1.75 M1.5 -1.6 L1.5 -1.7 1.5 -1.6 M1.4 -1.65 L1.4 -1.75 1.35 -1.75 Q1.3 -1.7 1.35 -1.65 L1.4 -1.65 M1.1 -1.5 L1.05 -1.5 1.05 -1.5 1.1 -1.55 1.1 -1.5 M0.5 -0.45 L0.5 -0.45 M0.75 -0.95 L0.8 -0.95 0.8 -1.0 0.75 -0.95 M1.25 -1.45 L1.2 -1.35 1.2 -1.3 1.25 -1.3 1.25 -1.35 1.3 -1.45 1.25 -1.45 M1.45 -1.55 L1.45 -1.55 M1.6 -1.8 Q1.55 -1.8 1.55 -1.75 L1.6 -1.75 1.6 -1.75 Q1.6 -1.75 1.6 -1.8 L1.6 -1.8 M1.6 -1.65 L1.6 -1.6 1.65 -1.65 1.6 -1.7 1.6 -1.65 M0.65 -1.0 L0.65 -1.0 0.6 -0.95 0.55 -0.95 0.55 -0.95 0.55 -1.0 0.6 -1.05 0.65 -1.0 M0.85 -1.05 L0.8 -1.05 0.8 -1.0 0.85 -1.05 0.85 -1.05 M0.7 -0.95 L0.75 -1.0 0.7 -0.95 0.7 -0.95" fill="#322021" fill-rule="evenodd" stroke="none"/>
    <path d="M0.95 -2.2 L0.9 -2.15 0.9 -2.2 0.95 -2.2" fill="#b1a2a2" fill-rule="evenodd" stroke="none"/>
    <path d="M0.8 -1.8 Q0.75 -1.8 0.75 -1.85 0.75 -1.85 0.8 -1.85 L0.8 -1.8" fill="#866c6d" fill-rule="evenodd" stroke="none"/>
    <path d="M0.15 -1.05 L0.1 -1.1 0.15 -1.1 0.15 -1.05" fill="#878382" fill-rule="evenodd" stroke="none"/>
    <path d="M0.35 -0.5 L0.4 -0.55 0.45 -0.55 0.4 -0.45 0.5 -0.45 0.45 -0.4 0.5 -0.4 0.45 -0.4 0.5 -0.35 0.55 -0.35 0.55 -0.45 0.55 -0.45 Q0.6 -0.5 0.6 -0.5 L0.65 -0.55 0.65 -0.6 0.7 -0.6 0.7 -0.6 0.75 -0.6 0.75 -0.55 0.7 -0.5 0.75 -0.5 0.8 -0.5 0.85 -0.55 Q0.9 -0.5 1.0 -0.55 L0.95 -0.45 1.0 -0.5 1.05 -0.5 1.1 -0.45 Q1.1 -0.4 1.15 -0.4 1.25 -0.35 1.55 -0.65 L1.65 -0.9 1.6 -1.0 1.65 -1.1 1.65 -1.1 1.7 -1.15 1.7 -0.85 1.65 -0.75 1.6 -0.75 1.6 -0.7 1.55 -0.6 1.5 -0.6 1.55 -0.55 1.65 -0.65 1.65 -0.7 1.7 -0.75 1.7 -0.75 1.75 -0.8 1.75 -0.85 1.7 -0.9 1.75 -0.9 Q1.8 -0.9 1.8 -0.9 L1.85 -0.9 1.85 -0.85 1.85 -0.85 1.9 -0.8 1.8 -0.75 1.85 -0.7 1.85 -0.7 1.9 -0.7 1.95 -0.7 2.0 -0.65 2.0 -0.6 1.9 -0.65 1.85 -0.65 1.8 -0.65 1.8 -0.6 1.75 -0.55 1.75 -0.6 1.7 -0.55 Q1.65 -0.5 1.7 -0.45 1.7 -0.4 1.75 -0.4 L1.75 -0.3 1.7 -0.35 1.7 -0.4 1.65 -0.4 1.6 -0.4 1.6 -0.4 1.55 -0.35 1.6 -0.45 1.55 -0.5 Q1.55 -0.45 1.55 -0.45 L1.5 -0.45 1.5 -0.45 1.45 -0.45 1.45 -0.45 Q1.45 -0.35 1.55 -0.2 L1.5 -0.2 1.5 -0.15 1.45 -0.15 1.4 -0.2 1.35 -0.25 Q1.35 -0.3 1.3 -0.25 L1.3 -0.25 1.35 -0.3 1.3 -0.35 1.3 -0.35 1.25 -0.35 1.25 -0.3 1.2 -0.3 1.15 -0.3 1.2 -0.1 1.1 -0.1 1.1 -0.1 1.05 -0.2 Q1.0 -0.2 0.95 -0.15 L1.0 -0.25 1.0 -0.25 1.05 -0.25 1.0 -0.3 0.95 -0.3 Q0.95 -0.25 1.0 -0.25 L0.9 -0.25 0.9 -0.1 0.85 -0.05 0.85 -0.1 0.8 -0.15 0.75 -0.05 0.7 -0.05 0.7 -0.1 0.7 -0.15 Q0.75 -0.25 0.7 -0.25 L0.65 -0.3 0.6 -0.25 0.6 -0.15 0.6 -0.2 0.55 -0.2 0.55 -0.25 0.5 -0.25 0.5 -0.25 0.4 -0.2 0.45 -0.2 0.5 -0.2 0.45 -0.15 0.45 -0.1 0.45 -0.05 0.35 -0.05 0.4 -0.05 0.4 0.0 0.4 0.05 0.35 0.05 Q0.35 0.1 0.4 0.1 L0.35 0.1 0.35 0.15 0.3 0.15 0.35 0.15 0.35 0.2 0.3 0.2 0.25 0.2 0.2 0.2 0.15 0.2 0.1 0.2 0.15 0.15 0.15 0.1 0.2 0.1 0.25 0.05 0.2 0.05 0.15 0.05 0.1 0.05 0.05 0.05 0.05 0.1 0.1 0.1 0.05 0.1 -0.05 0.15 0.0 0.05 0.0 0.05 -0.1 0.05 -0.15 0.05 -0.15 0.0 -0.2 0.0 -0.25 -0.1 -0.25 -0.1 -0.25 -0.25 -0.3 -0.3 -0.25 -0.3 -0.25 -0.35 -0.25 -0.3 -0.2 -0.2 -0.2 -0.1 Q-0.15 -0.1 -0.15 -0.1 L-0.1 -0.1 -0.05 -0.1 -0.1 -0.15 -0.15 -0.15 -0.15 -0.15 -0.1 -0.15 -0.05 -0.15 -0.05 -0.15 -0.1 -0.2 -0.1 -0.2 -0.05 -0.2 0.0 -0.2 0.05 -0.1 0.1 -0.05 0.1 -0.05 0.1 -0.15 0.05 -0.2 0.1 -0.2 0.1 -0.15 0.2 -0.1 0.2 -0.1 0.25 -0.1 0.2 -0.15 0.2 -0.15 0.2 -0.2 0.2 -0.25 0.2 -0.3 0.2 -0.3 0.15 -0.3 0.15 -0.35 Q0.1 -0.35 0.1 -0.4 L0.05 -0.45 0.1 -0.45 0.1 -0.45 0.05 -0.45 0.05 -0.35 Q0.0 -0.35 0.0 -0.4 L-0.05 -0.4 -0.05 -0.4 -0.05 -0.45 -0.1 -0.5 -0.1 -0.4 Q-0.1 -0.35 -0.15 -0.4 L-0.15 -0.4 Q-0.15 -0.35 -0.15 -0.3 -0.15 -0.3 -0.2 -0.3 -0.25 -0.25 -0.25 -0.3 L-0.2 -0.35 -0.15 -0.4 -0.2 -0.45 -0.15 -0.5 -0.15 -0.5 -0.1 -0.5 -0.1 -0.55 -0.15 -0.55 -0.2 -0.45 -0.25 -0.4 -0.25 -0.5 -0.3 -0.45 -0.35 -0.45 -0.35 -0.35 -0.4 -0.4 -0.45 -0.4 -0.45 -0.45 -0.4 -0.45 -0.35 -0.45 -0.35 -0.55 -0.4 -0.5 -0.45 -0.5 -0.4 -0.5 -0.35 -0.6 -0.35 -0.7 -0.35 -0.75 -0.3 -0.8 -0.3 -0.85 -0.3 -0.9 -0.25 -0.9 -0.2 -0.9 -0.15 -0.85 -0.15 -0.9 -0.15 -1.0 -0.1 -1.05 -0.05 -1.05 -0.05 -0.95 0.0 -0.95 0.05 -1.0 0.1 -1.1 0.15 -1.05 0.15 -1.0 0.15 -0.95 0.1 -0.95 0.1 -0.9 Q0.15 -0.9 0.1 -0.9 L0.05 -0.9 0.05 -0.8 0.1 -0.8 0.15 -0.8 0.15 -0.85 0.1 -0.85 0.15 -0.85 0.2 -0.85 0.2 -0.8 0.15 -0.7 0.2 -0.7 0.25 -0.7 0.2 -0.65 0.2 -0.65 Q0.1 -0.65 0.15 -0.6 L0.2 -0.55 Q0.2 -0.55 0.25 -0.55 L0.3 -0.6 0.35 -0.6 0.3 -0.65 0.25 -0.65 0.3 -0.7 0.35 -0.7 0.35 -0.6 Q0.35 -0.5 0.35 -0.5 M1.7 -1.5 L1.7 -1.55 1.8 -1.5 Q1.8 -1.45 1.95 -1.5 L1.85 -1.4 1.85 -1.4 1.9 -1.4 1.95 -1.35 1.85 -1.35 1.85 -1.25 1.9 -1.2 1.95 -1.2 1.95 -1.25 1.95 -1.25 2.0 -1.25 2.05 -1.25 2.1 -1.25 2.05 -1.2 2.05 -1.15 2.0 -1.15 2.0 -1.05 1.95 -1.0 1.95 -1.05 1.9 -1.05 1.9 -1.0 1.85 -1.0 1.85 -0.95 Q1.8 -0.95 1.75 -1.05 L1.75 -1.1 1.85 -1.2 1.8 -1.25 1.75 -1.25 1.7 -1.25 1.75 -1.3 1.75 -1.35 1.7 -1.35 1.6 -1.4 1.6 -1.4 1.7 -1.5 M2.0 -1.05 L2.0 -1.1 1.95 -1.05 2.0 -1.05 M-0.3 -0.9 L-0.3 -0.9 -0.3 -0.9 M-0.3 -0.85 L-0.3 -0.85 M-0.35 -0.3 L-0.35 -0.35 -0.35 -0.3 M0.15 -0.35 L0.15 -0.4 0.15 -0.35 M0.2 0.0 Q0.15 0.0 0.1 -0.05 L0.1 0.0 0.2 0.0 0.25 0.0 0.25 0.0 0.2 0.0 0.2 0.0 M0.05 -0.65 L0.05 -0.6 0.0 -0.6 0.0 -0.55 0.05 -0.6 0.1 -0.65 0.05 -0.7 0.05 -0.65 M0.4 -0.3 L0.45 -0.3 0.45 -0.3 0.4 -0.3 M0.45 -0.3 L0.5 -0.3 0.5 -0.35 0.45 -0.3 M0.3 -0.2 L0.3 -0.15 0.3 -0.2 M0.35 -0.1 L0.3 -0.1 0.25 -0.05 0.3 -0.05 0.35 -0.1 M0.85 -0.35 L0.9 -0.4 Q0.95 -0.35 0.95 -0.4 L0.95 -0.45 1.0 -0.5 0.95 -0.5 0.9 -0.5 0.9 -0.45 0.85 -0.4 0.8 -0.35 0.75 -0.35 0.75 -0.3 0.75 -0.3 0.8 -0.3 0.85 -0.35 0.85 -0.35 M0.8 -0.45 L0.8 -0.5 0.75 -0.5 Q0.75 -0.45 0.75 -0.45 0.7 -0.4 0.7 -0.4 L0.75 -0.35 0.75 -0.4 0.8 -0.4 0.8 -0.45 0.75 -0.4 0.75 -0.45 Q0.75 -0.45 0.8 -0.45 M0.65 0.3 L0.65 0.35 0.6 0.4 0.6 0.45 0.55 0.5 0.6 0.6 0.5 0.65 0.5 0.6 0.55 0.45 0.5 0.45 0.55 0.45 0.55 0.4 0.6 0.35 0.65 0.3 M-0.1 0.95 L-0.15 0.9 -0.15 1.0 -0.15 1.05 -0.2 1.05 -0.2 1.1 -0.25 1.1 -0.25 1.2 -0.2 1.2 -0.2 1.25 -0.25 1.25 -0.2 1.3 -0.15 1.3 -0.15 1.35 -0.2 1.35 -0.25 1.3 -0.3 1.3 -0.35 1.25 -0.4 1.2 -0.4 1.15 -0.35 1.15 -0.25 0.95 -0.2 0.9 -0.2 0.9 -0.15 0.9 -0.1 0.95 -0.1 0.9 -0.1 0.95 M-1.65 2.05 L-1.65 2.05 -1.6 2.0 -1.65 2.05 M-0.9 -0.2 L-1.0 -0.3 -1.0 -0.35 -1.05 -0.35 -1.0 -0.35 -0.95 -0.35 -0.9 -0.35 -0.9 -0.4 -0.95 -0.4 -0.95 -0.4 -1.0 -0.35 -1.0 -0.4 -1.05 -0.4 -1.1 -0.4 -1.05 -0.45 -1.0 -0.5 -1.0 -0.5 -1.05 -0.55 -1.05 -0.6 -1.0 -0.6 -0.95 -0.6 -0.95 -0.65 -0.95 -0.6 -0.9 -0.6 -0.9 -0.6 -0.85 -0.6 -0.8 -0.6 -0.8 -0.7 -0.85 -0.75 -0.85 -0.75 -0.8 -0.7 -0.8 -0.75 -0.75 -0.7 -0.75 -0.75 -0.7 -0.7 -0.6 -0.6 -0.55 -0.6 -0.5 -0.65 -0.5 -0.65 -0.45 -0.65 -0.4 -0.7 -0.35 -0.7 -0.35 -0.7 -0.4 -0.65 -0.4 -0.6 -0.45 -0.6 -0.5 -0.6 -0.55 -0.6 -0.6 -0.6 -0.65 -0.6 -0.65 -0.55 -0.65 -0.45 -0.65 -0.4 -0.7 -0.45 Q-0.7 -0.5 -0.75 -0.45 -0.75 -0.45 -0.8 -0.45 L-0.8 -0.45 -0.85 -0.4 -0.9 -0.4 -0.9 -0.35 -0.9 -0.3 Q-0.85 -0.3 -0.8 -0.35 L-0.8 -0.35 -0.75 -0.4 -0.7 -0.45 -0.75 -0.35 -0.8 -0.3 -0.8 -0.25 -0.85 -0.25 -0.9 -0.25 -0.9 -0.2 M-0.8 -0.8 L-0.8 -0.8 -0.85 -0.8 -0.8 -0.8 M0.1 0.05 L0.05 0.0 0.05 0.05 0.1 0.05 M-0.3 -0.75 L-0.3 -0.7 -0.3 -0.65 -0.3 -0.75 M0.0 -0.85 L0.05 -0.9 -0.05 -0.9 -0.05 -0.9 -0.1 -0.85 Q-0.1 -0.8 -0.1 -0.8 L-0.1 -0.85 -0.15 -0.8 -0.1 -0.75 -0.1 -0.8 Q-0.05 -0.8 -0.05 -0.8 L0.0 -0.8 0.0 -0.85 M-0.2 -0.65 L-0.2 -0.65 Q-0.15 -0.65 -0.15 -0.65 L-0.15 -0.7 -0.2 -0.65 -0.2 -0.65 M-0.25 -0.6 L-0.25 -0.6 -0.2 -0.6 -0.25 -0.6 M-0.05 -0.65 L-0.05 -0.6 0.0 -0.6 0.0 -0.6 -0.05 -0.65 M-0.5 -0.55 L-0.5 -0.5 Q-0.55 -0.45 -0.6 -0.45 L-0.6 -0.45 -0.6 -0.55 -0.55 -0.6 -0.5 -0.55 M-0.85 -0.5 L-0.9 -0.45 -0.85 -0.45 -0.8 -0.5 -0.85 -0.5 M-0.95 -0.35 L-0.95 -0.35 M-0.05 -0.05 L-0.05 0.0 0.0 0.0 0.0 -0.05 0.0 -0.05 -0.05 -0.05" fill="#2a1b1c" fill-rule="evenodd" stroke="none"/>
    <path d="M0.0 -0.95 L-0.05 -0.95 -0.05 -1.05 0.0 -1.1 0.0 -1.1 0.0 -0.95" fill="#514d4c" fill-rule="evenodd" stroke="none"/>
    <path d="M-0.15 -1.0 L-0.15 -0.9 -0.15 -0.85 -0.2 -0.9 -0.25 -0.9 -0.3 -0.9 -0.25 -0.9 -0.2 -0.95 -0.2 -0.95 -0.15 -1.0" fill="#7f7170" fill-rule="evenodd" stroke="none"/>
    <path d="M0.0 -0.85 L0.0 -0.8 -0.05 -0.8 Q-0.05 -0.8 -0.1 -0.8 L-0.1 -0.75 -0.15 -0.8 -0.1 -0.85 -0.1 -0.8 Q-0.1 -0.8 -0.1 -0.85 L-0.05 -0.9 -0.05 -0.9 0.05 -0.9 0.0 -0.85" fill="#4a3f3e" fill-rule="evenodd" stroke="none"/>
    <path d="M0.1 0.2 L0.15 0.2 0.2 0.2 0.25 0.2 0.3 0.2 0.35 0.2 0.4 0.15 0.45 0.1 0.5 0.1 0.45 0.15 0.4 0.25 Q0.4 0.3 0.5 0.25 L0.45 0.35 0.4 0.35 0.3 0.35 0.25 0.35 0.2 0.35 0.15 0.4 0.1 0.4 0.1 0.45 0.05 0.5 0.0 0.5 -0.05 0.5 -0.1 0.45 -0.25 0.45 -0.25 0.45 -0.45 0.5 -0.45 0.45 -0.4 0.45 -0.4 0.35 -0.35 0.35 -0.3 0.35 -0.4 0.4 -0.4 0.4 -0.35 0.4 -0.3 0.4 -0.3 0.4 -0.25 0.35 -0.2 0.4 -0.2 0.35 -0.15 0.25 -0.15 0.3 -0.1 0.3 -0.05 0.3 -0.05 0.3 0.05 0.3 0.05 0.25 0.1 0.2 M0.7 0.35 L0.75 0.4 0.75 0.45 0.8 0.45 0.8 0.5 0.75 0.55 0.8 0.55 0.85 0.55 0.85 0.45 0.85 0.5 0.95 0.5 1.05 0.55 1.0 0.55 1.0 0.6 1.05 0.6 1.1 0.55 1.15 0.55 1.15 0.6 1.1 0.6 1.05 0.65 0.9 0.65 0.8 0.65 0.75 0.6 0.7 0.6 0.7 0.5 0.65 0.5 0.65 0.4 0.7 0.35 M0.3 0.65 L0.3 0.7 0.45 0.8 0.5 0.85 0.55 0.85 0.55 0.9 0.9 1.1 0.95 1.1 1.05 1.15 0.95 1.2 Q0.95 1.2 1.0 1.25 L1.05 1.25 1.15 1.25 1.3 1.3 Q1.35 1.3 1.3 1.3 L1.2 1.35 1.15 1.35 1.1 1.35 1.05 1.3 Q1.0 1.4 0.75 1.3 L0.5 1.2 0.45 1.2 0.4 1.1 0.2 1.0 0.15 0.95 0.3 0.95 0.25 0.85 0.2 0.85 0.05 0.75 0.05 0.7 0.1 0.65 0.15 0.6 0.2 0.65 0.25 0.7 0.3 0.65 M-0.05 1.05 L0.05 1.15 0.05 1.2 0.0 1.2 0.0 1.3 0.0 1.3 0.1 1.3 0.15 1.35 0.1 1.35 0.15 1.4 0.15 1.35 0.2 1.35 0.2 1.3 0.4 1.4 0.45 1.4 0.4 1.45 0.45 1.5 0.5 1.5 0.4 1.5 0.35 1.5 0.3 1.4 0.25 1.4 0.15 1.4 0.05 1.35 0.0 1.3 -0.05 1.3 -0.05 1.3 -0.1 1.2 -0.15 1.15 -0.2 1.1 -0.15 1.1 -0.1 1.1 -0.1 1.05 -0.05 1.05 M-0.7 1.6 L-0.65 1.6 -0.6 1.65 -0.55 1.7 -0.5 1.75 -0.55 1.75 -0.55 1.8 -0.5 1.8 -0.55 1.8 -0.6 1.8 -0.6 1.8 -0.6 1.7 -0.7 1.7 -0.75 1.7 -0.8 1.65 -0.8 1.6 -0.75 1.6 -0.75 1.65 -0.75 1.65 -0.7 1.65 -0.7 1.6 M-1.45 2.05 L-1.45 2.05 -1.35 2.15 -1.3 2.15 -1.35 2.15 -1.35 2.2 -1.4 2.2 -1.4 2.15 -1.45 2.15 -1.5 2.1 -1.5 2.1 -1.55 2.05 -1.6 2.0 -1.55 2.0 -1.55 2.0 -1.55 2.05 -1.5 2.05 -1.5 2.1 -1.5 2.1 -1.5 2.1 -1.45 2.1 -1.45 2.05 M-1.05 -0.75 L-1.05 -0.8 -1.0 -0.85 -1.0 -0.85 -0.95 -0.85 -0.95 -0.85 -0.95 -0.8 -0.9 -0.65 -0.9 -0.65 -0.95 -0.65 -1.0 -0.65 -1.0 -0.75 -0.95 -0.75 -1.0 -0.75 -1.05 -0.75 M-0.6 -1.1 L-0.55 -1.0 -0.55 -0.9 -0.55 -0.9 -0.6 -0.9 -0.6 -0.9 -0.6 -0.8 -0.55 -0.85 -0.5 -0.85 -0.5 -0.85 -0.45 -0.8 -0.45 -0.75 -0.4 -0.75 -0.4 -0.75 -0.45 -0.7 -0.45 -0.7 -0.55 -0.7 -0.55 -0.7 -0.6 -0.75 -0.6 -0.75 -0.65 -0.75 -0.65 -0.85 -0.7 -0.85 -0.7 -0.95 -0.65 -1.1 -0.65 -1.15 -0.65 -1.2 -0.6 -1.2 -0.6 -1.15 -0.65 -1.1 -0.6 -1.05 -0.6 -1.1 M0.1 0.4 L0.15 0.35 0.15 0.3 0.1 0.3 0.05 0.35 0.05 0.45 Q0.05 0.4 0.1 0.4 M0.3 0.7 L0.35 0.75 0.35 0.85 0.3 0.85 0.3 0.9 0.4 1.0 0.45 1.0 0.5 1.0 0.55 1.0 0.5 0.95 0.5 0.85 0.35 0.75 0.3 0.7 M-1.0 -0.65 L-1.0 -0.65 M-0.85 -0.4 L-0.8 -0.45 -0.8 -0.35 -0.85 -0.35 -0.85 -0.4" fill="#593739" fill-rule="evenodd" stroke="none"/>
    <path d="M0.75 0.4 L0.8 0.45 0.85 0.45 0.85 0.55 0.8 0.55 0.75 0.55 0.8 0.5 0.8 0.45 0.75 0.45 0.75 0.4 M1.05 0.55 L1.1 0.55 1.25 0.5 1.3 0.5 1.3 0.55 1.2 0.6 1.15 0.65 1.1 0.6 1.15 0.6 1.15 0.55 1.1 0.55 1.05 0.6 1.0 0.6 1.0 0.55 1.05 0.55 M0.5 0.85 L0.55 0.85 0.5 0.85 0.5 0.95 0.55 1.0 0.5 1.0 0.45 1.0 0.4 1.0 0.3 0.9 0.3 0.85 0.35 0.85 0.35 0.75 0.3 0.7 0.35 0.75 0.5 0.85 M1.05 1.15 L1.1 1.15 1.15 1.2 1.6 1.3 1.4 1.4 1.3 1.45 1.15 1.35 1.2 1.35 1.3 1.3 Q1.35 1.3 1.3 1.3 L1.15 1.25 1.05 1.25 1.0 1.25 Q0.95 1.2 0.95 1.2 L1.05 1.15 M0.05 1.2 L0.1 1.2 0.2 1.3 0.2 1.35 0.15 1.35 0.15 1.4 0.1 1.35 0.15 1.35 0.1 1.3 0.0 1.3 0.0 1.3 0.0 1.2 0.05 1.2 M0.45 1.4 Q0.5 1.45 0.55 1.45 L0.7 1.45 0.5 1.5 0.45 1.5 0.4 1.45 0.45 1.4 M-0.7 1.55 L-0.7 1.6 -0.7 1.65 -0.75 1.65 -0.75 1.65 -0.75 1.6 -0.7 1.55 M-0.5 1.75 L-0.3 1.85 -0.55 1.8 -0.5 1.8 -0.55 1.8 -0.55 1.75 -0.5 1.75 M-1.5 2.0 L-1.45 2.05 -1.45 2.1 -1.5 2.1 -1.5 2.1 -1.5 2.1 -1.5 2.05 -1.55 2.05 -1.55 2.0 -1.5 2.0 M-1.3 2.15 L-1.3 2.2 -1.35 2.2 -1.35 2.15 -1.3 2.15 M-1.0 -0.85 L-1.0 -0.9 -0.95 -1.05 -0.95 -0.85 -0.95 -0.85 -1.0 -0.85 -1.0 -0.85 M-0.9 -0.65 L-0.9 -0.6 -0.95 -0.65 -0.9 -0.65 M-0.65 -1.2 L-0.65 -1.25 -0.6 -1.35 -0.55 -1.35 -0.55 -1.3 -0.6 -1.15 -0.6 -1.1 -0.6 -1.05 -0.65 -1.1 -0.6 -1.15 -0.6 -1.2 -0.65 -1.2 -0.65 -1.15 -0.65 -1.2 M-0.55 -0.9 L-0.5 -0.85 -0.5 -0.85 -0.5 -0.85 -0.55 -0.85 -0.6 -0.8 -0.6 -0.9 -0.6 -0.9 -0.55 -0.9 -0.55 -0.9 M-0.2 0.35 L-0.2 0.4 -0.25 0.35 -0.2 0.35 M-1.0 -0.65 L-0.95 -0.65 -1.0 -0.65" fill="#876d6f" fill-rule="evenodd" stroke="none"/>
    <path d="M0.0 0.05 L-0.05 0.15 Q0.0 0.2 0.05 0.2 L0.0 0.25 -0.05 0.2 -0.05 0.3 -0.1 0.25 -0.15 0.25 -0.2 0.35 -0.25 0.35 -0.3 0.35 -0.3 0.35 -0.35 0.35 -0.4 0.35 -0.4 0.35 -0.5 0.35 -0.4 0.45 -0.45 0.45 -0.45 0.5 -0.5 0.5 -0.55 0.45 -0.7 0.35 -0.75 0.3 -0.75 0.3 -0.95 0.35 -0.9 0.3 Q-0.85 0.3 -0.85 0.25 L-0.85 0.25 -0.85 0.2 -0.9 0.25 -0.95 0.25 -0.9 0.2 -0.85 0.15 -0.75 0.2 -0.7 0.2 -0.7 0.25 -0.65 0.25 -0.7 0.3 -0.65 0.35 -0.55 0.3 -0.55 0.35 -0.5 0.35 Q-0.5 0.35 -0.45 0.3 L-0.4 0.3 -0.35 0.3 -0.3 0.25 -0.3 0.25 -0.3 0.25 -0.25 0.2 -0.1 0.15 -0.05 0.1 0.0 0.05 M0.65 0.35 L0.7 0.35 0.65 0.4 0.65 0.5 0.7 0.5 0.7 0.6 0.75 0.6 0.8 0.65 0.9 0.65 1.05 0.65 1.1 0.6 1.15 0.65 1.1 0.65 1.05 0.7 1.0 0.65 0.95 0.7 0.85 0.7 0.8 0.7 0.65 0.65 0.6 0.6 0.55 0.5 0.6 0.45 0.6 0.4 0.65 0.35 M1.3 1.45 L1.2 1.45 1.05 1.45 1.0 1.45 0.85 1.45 0.65 1.35 0.45 1.3 0.05 1.05 0.05 1.0 -0.1 0.95 -0.1 0.9 0.0 0.95 0.0 0.95 0.05 0.95 0.05 0.75 0.2 0.85 0.25 0.85 0.3 0.95 0.15 0.95 0.2 1.0 0.4 1.1 0.45 1.2 0.5 1.2 0.75 1.3 Q1.0 1.4 1.05 1.3 L1.1 1.35 1.15 1.35 1.3 1.45 M-0.15 1.0 L-0.1 1.0 -0.05 1.05 -0.1 1.05 -0.1 1.1 -0.15 1.1 -0.2 1.1 -0.15 1.15 -0.1 1.2 -0.05 1.3 -0.05 1.3 0.0 1.3 0.05 1.35 0.15 1.4 0.25 1.4 0.3 1.4 0.35 1.5 -0.1 1.35 -0.15 1.35 -0.15 1.3 -0.2 1.3 -0.25 1.25 -0.2 1.25 -0.2 1.2 -0.25 1.2 -0.25 1.1 -0.2 1.1 -0.2 1.05 -0.15 1.05 -0.15 1.0 M-0.6 1.8 L-0.85 1.7 -0.85 1.65 -0.85 1.65 -0.85 1.65 -0.8 1.65 -0.8 1.65 -0.75 1.7 -0.7 1.7 -0.6 1.7 -0.6 1.8 M-1.4 2.2 L-1.55 2.1 Q-1.6 2.1 -1.65 2.05 L-1.65 2.05 -1.6 2.0 -1.6 2.0 -1.55 2.0 -1.6 2.0 -1.55 2.05 -1.5 2.1 -1.5 2.1 -1.45 2.15 -1.4 2.15 -1.4 2.2 M-1.05 -0.6 L-1.05 -0.75 -1.0 -0.75 -0.95 -0.75 -1.0 -0.75 -1.0 -0.65 -1.05 -0.6 M-0.7 -0.7 L-0.75 -0.85 -0.75 -1.0 -0.75 -1.1 -0.7 -1.15 -0.65 -1.2 -0.65 -1.15 -0.65 -1.1 -0.7 -0.95 -0.7 -0.85 -0.65 -0.85 -0.65 -0.75 -0.6 -0.75 -0.6 -0.75 -0.55 -0.7 -0.55 -0.7 -0.45 -0.7 -0.45 -0.7 -0.4 -0.75 -0.35 -0.7 -0.4 -0.7 -0.45 -0.65 -0.5 -0.65 -0.5 -0.65 -0.55 -0.6 -0.6 -0.6 -0.7 -0.7 M-0.8 -0.45 L-0.8 -0.45 Q-0.75 -0.45 -0.75 -0.45 L-0.7 -0.45 -0.75 -0.4 -0.8 -0.35 -0.8 -0.35 Q-0.85 -0.3 -0.9 -0.3 L-0.9 -0.35 Q-0.85 -0.35 -0.85 -0.35 L-0.8 -0.35 -0.8 -0.45 M-0.95 -0.35 L-0.95 -0.35 -0.95 -0.35 M-0.6 -0.6 L-0.6 -0.6" fill="#392223" fill-rule="evenodd" stroke="none"/>
    <path d="M-0.2 -0.65 L-0.2 -0.65 -0.15 -0.7 -0.15 -0.65 Q-0.15 -0.65 -0.2 -0.65 L-0.2 -0.65" fill="#7e6267" fill-rule="evenodd" stroke="none"/>
    <path d="M-0.3 -0.75 L-0.3 -0.65 -0.3 -0.7 -0.3 -0.75" fill="#85595b" fill-rule="evenodd" stroke="none"/>
    <path d="M-0.3 -0.85 L-0.3 -0.85 -0.3 -0.9 -0.3 -0.9 -0.3 -0.85" fill="#998b8e" fill-rule="evenodd" stroke="none"/>
    <path d="M-0.3 -0.85 L-0.3 -0.8 -0.35 -0.85 -0.35 -0.9 -0.3 -0.9 -0.3 -0.85" fill="#534546" fill-rule="evenodd" stroke="none"/>
    <path d="M-0.3 -0.9 L-0.3 -0.9 -0.3 -0.9 -0.3 -0.9 M0.5 0.6 L0.45 0.6 0.45 0.5 0.5 0.5 0.5 0.4 0.55 0.45 0.5 0.45 0.55 0.45 0.5 0.6 M-0.5 1.35 L-0.5 1.45 -0.6 1.45 -0.6 1.4 -0.6 1.35 -0.55 1.35 -0.5 1.35 M0.4 0.35 L0.45 0.35 0.45 0.55 0.4 0.6 0.4 0.55 0.35 0.55 0.3 0.45 0.4 0.35 M0.0 0.7 L0.05 0.7 0.05 0.75 0.05 0.95 0.0 0.95 0.0 0.95 -0.05 0.9 -0.05 0.8 0.0 0.8 0.0 0.7 M-0.55 -0.6 L-0.5 -0.6 -0.5 -0.55 -0.55 -0.6 M-0.5 -0.55 L-0.5 -0.55 M-0.45 -0.25 L-0.45 -0.25 -0.4 -0.15 -0.4 -0.15 -0.35 -0.05 -0.3 0.0 -0.3 0.0 -0.25 0.05 -0.25 0.05 -0.35 0.0 -0.35 0.1 -0.4 0.1 -0.4 0.1 -0.45 0.05 -0.45 0.0 -0.45 -0.2 -0.45 -0.25 M-0.55 1.3 L-0.5 1.2 -0.5 1.2 -0.45 1.2 -0.45 1.25 -0.5 1.3 -0.55 1.3" fill="#787a7e" fill-rule="evenodd" stroke="none"/>
    <path d="M-0.3 -0.9 L-0.3 -0.85 -0.3 -0.9 -0.3 -0.9 M0.6 -0.1 L0.7 0.1 0.8 0.2 0.85 0.25 0.85 0.3 Q0.75 0.25 0.7 0.25 L0.65 0.3 0.6 0.35 0.55 0.4 0.55 0.45 0.5 0.4 0.45 0.4 0.5 0.35 0.45 0.35 0.5 0.25 0.45 0.25 0.5 0.15 0.45 0.15 0.5 0.1 0.55 0.1 0.55 0.05 0.55 0.0 0.6 -0.1 M0.4 0.6 L0.45 0.65 0.35 0.6 0.25 0.6 0.25 0.6 0.2 0.6 0.15 0.6 0.1 0.65 0.05 0.7 0.05 0.75 0.05 0.7 0.0 0.7 0.0 0.7 -0.05 0.55 -0.05 0.55 -0.25 0.45 -0.1 0.45 0.0 0.5 0.05 0.5 0.1 0.45 0.1 0.4 0.15 0.4 0.2 0.35 0.25 0.35 0.3 0.35 0.4 0.35 0.3 0.45 0.35 0.55 0.4 0.55 0.4 0.6 M-0.5 -0.6 L-0.45 -0.6 -0.4 -0.6 -0.4 -0.65 -0.4 -0.6 -0.45 -0.55 -0.5 -0.55 -0.5 -0.6" fill="#585452" fill-rule="evenodd" stroke="none"/>
    <path d="M-0.3 -0.8 L-0.35 -0.75 -0.35 -0.7 -0.35 -0.6 -0.4 -0.5 -0.45 -0.5 -0.45 -0.55 -0.4 -0.6 -0.4 -0.65 -0.35 -0.7 -0.35 -0.7 -0.4 -0.75 -0.4 -0.75 Q-0.35 -0.75 -0.35 -0.8 L-0.3 -0.8 M-0.9 -0.8 L-0.85 -0.85 -0.8 -0.8 -0.85 -0.8 -0.9 -0.8 M-0.45 -0.5 L-0.45 -0.5" fill="#806566" fill-rule="evenodd" stroke="none"/>
    <path d="M-0.4 -0.8 L-0.4 -0.8 -0.35 -0.8 Q-0.35 -0.75 -0.4 -0.75 -0.4 -0.75 -0.4 -0.8 L-0.4 -0.8 M-0.45 -0.75 L-0.4 -0.75 -0.45 -0.75" fill="#584240" fill-rule="evenodd" stroke="none"/>
    <path d="M-0.45 -0.8 L-0.4 -0.8 -0.4 -0.8 Q-0.4 -0.75 -0.4 -0.75 L-0.45 -0.75 -0.45 -0.8" fill="#9a8a89" fill-rule="evenodd" stroke="none"/>
    <path d="M-0.25 -0.6 L-0.2 -0.6 -0.25 -0.6 -0.25 -0.6" fill="#5b4145" fill-rule="evenodd" stroke="none"/>
    <path d="M-0.45 -0.5 L-0.4 -0.5 -0.35 -0.55 -0.35 -0.45 -0.4 -0.45 -0.45 -0.45 -0.45 -0.5 -0.45 -0.5 M-0.85 -0.75 L-0.9 -0.75 -0.9 -0.8 -0.85 -0.8 -0.8 -0.8 -0.75 -0.75 -0.75 -0.7 -0.8 -0.75 -0.8 -0.7 -0.85 -0.75 -0.85 -0.75" fill="#664749" fill-rule="evenodd" stroke="none"/>
    <path d="M-1.3 2.0 L-1.4 2.0 -1.5 2.0 -1.55 2.0 -1.6 2.0 -1.6 2.0 -1.65 2.05 -1.75 2.1 -1.8 2.15 -1.8 2.1 -1.85 2.1 -1.85 2.05 -1.9 2.0 -1.9 1.95 -1.85 1.95 -1.85 2.0 Q-1.8 2.0 -1.75 1.95 L-1.75 1.75 -1.65 1.8 -1.6 1.8 -1.55 1.8 -1.5 1.75 -1.45 1.7 -1.4 1.7 -1.35 1.7 -1.3 1.7 -1.3 1.7 -1.25 1.65 -1.25 1.6 -1.2 1.6 -1.2 1.6 -1.25 1.85 Q-1.25 1.95 -1.3 2.0 M0.5 0.4 L0.5 0.5 0.45 0.5 0.45 0.55 0.45 0.35 0.5 0.35 0.45 0.4 0.5 0.4 M-0.45 0.5 L-0.25 0.45 -0.25 0.45 -0.05 0.55 -0.05 0.55 0.0 0.7 0.0 0.7 0.0 0.8 -0.05 0.8 -0.1 0.85 -0.15 0.8 -0.2 0.85 -0.3 0.85 -0.3 0.9 -0.35 1.0 -0.4 1.0 -0.45 1.1 -0.45 1.1 -0.5 1.1 -0.55 1.1 -0.55 1.05 -0.6 1.0 -0.65 1.0 Q-0.65 0.95 -0.7 0.95 L-0.75 1.0 -0.8 1.0 -0.85 0.95 -0.85 0.9 -0.85 0.9 -0.9 0.85 -0.8 0.8 -0.8 0.75 -0.75 0.75 -0.7 0.75 -0.65 0.65 -0.55 0.55 -0.45 0.5 M0.15 0.6 L0.2 0.6 0.25 0.6 0.25 0.6 0.25 0.65 0.2 0.65 0.15 0.6 M-0.5 -0.55 L-0.45 -0.55 -0.45 -0.5 -0.5 -0.55 -0.5 -0.55 M-1.05 0.3 L-1.05 0.35 -1.1 0.4 -1.1 0.45 -1.15 0.5 Q-1.2 0.6 -1.2 0.7 L-1.15 0.7 -1.15 0.75 -1.2 0.75 -1.2 0.7 -1.25 0.7 -1.25 0.7 -1.25 0.7 -1.3 0.65 -1.3 0.6 -1.35 0.6 -1.35 0.55 -1.4 0.55 -1.35 0.5 -1.3 0.45 -1.2 0.35 -1.05 0.3 M-1.0 0.85 L-1.0 0.85 -0.95 0.9 -0.95 0.95 -1.0 1.0 -1.0 1.0 -1.05 1.0 -1.05 0.95 -1.1 0.95 -1.1 0.95 -1.15 0.9 -1.15 0.9 -1.2 0.85 -1.15 0.85 -1.15 0.8 -1.1 0.8 -1.05 0.85 -1.05 0.85 -1.0 0.85 M-0.9 1.05 L-0.9 1.1 -0.95 1.1 -0.95 1.05 -0.9 1.05 -0.9 1.05 -0.9 1.05 M-0.8 1.1 L-0.75 1.15 -0.8 1.15 -0.8 1.15 -0.85 1.2 -0.85 1.15 -0.8 1.1 M-0.65 1.15 L-0.65 1.1 -0.6 1.1 -0.6 1.15 -0.65 1.15 M-1.15 1.0 L-1.1 1.0 -1.05 1.05 -1.0 1.05 -0.95 1.1 -0.95 1.1 -1.0 1.1 -1.05 1.15 -1.1 1.2 -1.15 1.25 -1.2 1.3 -1.25 1.35 -1.25 1.35 -1.2 1.3 -1.25 1.15 -1.3 1.15 -1.45 1.15 -1.45 1.0 Q-1.55 0.95 -1.55 1.0 L-1.55 1.0 -1.6 1.0 -1.6 1.0 -1.65 0.95 -1.65 0.95 -1.75 1.0 -1.85 1.0 Q-1.8 0.9 -1.7 0.8 L-1.6 0.75 -1.6 0.7 -1.55 0.75 -1.55 0.75 -1.55 0.75 -1.45 0.8 -1.4 0.8 -1.4 0.8 -1.35 0.8 -1.35 0.8 -1.3 0.75 -1.25 0.8 -1.25 0.8 -1.25 0.85 -1.25 0.95 -1.2 1.0 -1.15 1.0 M-1.35 0.8 L-1.35 0.8 M-1.85 1.0 L-1.85 1.0 M-1.35 1.4 L-1.25 1.35 -1.25 1.4 -1.25 1.45 -1.25 1.4 -1.3 1.4 -1.35 1.4 M-0.5 1.1 L-0.5 1.1 M-1.45 0.6 L-1.4 0.65 -1.4 0.65 -1.4 0.7 -1.4 0.75 -1.45 0.7 -1.5 0.7 -1.5 0.65 -1.45 0.6 M-1.3 0.65 L-1.3 0.65 M-1.95 2.1 L-1.9 2.15 -2.0 2.15 -2.0 2.1 -1.95 2.1 -1.95 2.1 M-1.55 2.0 L-1.55 2.0" fill="#272525" fill-rule="evenodd" stroke="none"/>
    <path d="M-0.45 -0.45 L-0.45 -0.4 -0.5 -0.45 -0.45 -0.45 M-0.1 -0.3 L-0.1 -0.3 -0.1 -0.3" fill="#807574" fill-rule="evenodd" stroke="none"/>
    <path d="M-0.45 -0.4 L-0.4 -0.4 -0.35 -0.35 -0.35 -0.3 -0.4 -0.3 -0.45 -0.25 -0.5 -0.3 -0.45 -0.25 -0.5 -0.2 -0.55 -0.2 -0.6 -0.25 -0.65 -0.25 -0.65 -0.25 -0.7 -0.25 -0.75 -0.25 -0.7 -0.3 -0.65 -0.4 -0.65 -0.35 -0.6 -0.35 -0.65 -0.45 -0.65 -0.55 -0.65 -0.6 -0.6 -0.6 -0.55 -0.6 -0.6 -0.55 -0.6 -0.45 -0.6 -0.45 Q-0.55 -0.45 -0.5 -0.5 L-0.5 -0.55 -0.45 -0.5 -0.45 -0.45 -0.5 -0.45 -0.45 -0.4 M-0.25 -0.4 L-0.2 -0.45 -0.15 -0.55 -0.1 -0.55 -0.1 -0.5 -0.15 -0.5 -0.15 -0.5 -0.2 -0.45 -0.15 -0.4 -0.2 -0.35 -0.25 -0.3 Q-0.25 -0.25 -0.2 -0.3 -0.15 -0.3 -0.15 -0.3 -0.15 -0.35 -0.15 -0.4 L-0.15 -0.4 -0.1 -0.35 -0.05 -0.4 -0.05 -0.4 0.0 -0.4 -0.05 -0.4 -0.05 -0.35 -0.1 -0.3 -0.1 -0.2 -0.1 -0.2 -0.05 -0.15 -0.05 -0.15 -0.1 -0.15 -0.15 -0.15 -0.15 -0.15 -0.1 -0.15 -0.05 -0.1 -0.1 -0.1 -0.15 -0.1 Q-0.15 -0.1 -0.2 -0.1 L-0.2 -0.2 -0.25 -0.3 -0.25 -0.35 -0.3 -0.35 -0.25 -0.4 M-0.55 -0.4 L-0.55 -0.4 -0.5 -0.4 -0.55 -0.4 M-0.1 -0.3 L-0.1 -0.3 M-0.15 -0.25 L-0.15 -0.25 -0.15 -0.25 M-0.6 -0.6 L-0.6 -0.6" fill="#422f30" fill-rule="evenodd" stroke="none"/>
    <path d="M-0.75 -0.45 Q-0.7 -0.5 -0.7 -0.45 L-0.65 -0.4 -0.65 -0.45 -0.6 -0.35 -0.65 -0.35 -0.65 -0.4 -0.7 -0.3 -0.75 -0.25 -0.8 -0.25 -0.8 -0.3 -0.75 -0.35 -0.7 -0.45 -0.75 -0.45" fill="#7e6668" fill-rule="evenodd" stroke="none"/>
    <path d="M-0.55 -0.4 L-0.5 -0.4 -0.55 -0.4 -0.55 -0.4 M-0.15 -0.25 L-0.15 -0.25 -0.15 -0.25" fill="#827778" fill-rule="evenodd" stroke="none"/>
    <path d="M-1.0 -0.65 L-1.0 -0.65 -0.95 -0.65 -0.95 -0.6 -1.0 -0.6 -1.05 -0.6 -1.0 -0.65" fill="#796362" fill-rule="evenodd" stroke="none"/>
    <path d="M-0.9 -0.6 Q-0.85 -0.65 -0.8 -0.7 L-0.8 -0.6 -0.85 -0.6 -0.9 -0.6 -0.9 -0.6 -0.95 -0.6 -0.95 -0.65 -0.9 -0.6" fill="#807576" fill-rule="evenodd" stroke="none"/>
    <path d="M-0.85 -0.5 L-0.8 -0.5 -0.85 -0.45 -0.9 -0.45 -0.85 -0.5" fill="#7a6365" fill-rule="evenodd" stroke="none"/>
    <path d="M-1.05 -0.4 L-1.0 -0.4 -1.0 -0.35 -1.05 -0.35 -1.05 -0.4" fill="#735b56" fill-rule="evenodd" stroke="none"/>
    <path d="M-1.0 -0.35 L-0.95 -0.4 -0.95 -0.4 -0.9 -0.4 -0.9 -0.35 -0.9 -0.4 -0.85 -0.4 -0.85 -0.35 Q-0.85 -0.35 -0.9 -0.35 L-0.95 -0.35 -1.0 -0.35 M-0.95 -0.35 L-0.95 -0.35" fill="#7c706e" fill-rule="evenodd" stroke="none"/>
    <path d="M-1.15 -0.5 L-1.1 -0.5 Q-1.05 -0.5 -1.05 -0.55 L-1.05 -0.55 -1.0 -0.5 -1.0 -0.5 -1.05 -0.45 -1.1 -0.4 -1.15 -0.45 -1.15 -0.5" fill="#433638" fill-rule="evenodd" stroke="none"/>
    <path d="M-1.15 -0.45 L-1.15 -0.5 -1.15 -0.45" fill="#999292" fill-rule="evenodd" stroke="none"/>
    <path d="M-0.35 -0.3 L-0.35 -0.35 -0.35 -0.25 -0.3 -0.15 -0.3 -0.1 -0.3 -0.05 -0.2 0.0 -0.15 0.0 -0.15 0.05 -0.1 0.05 0.0 0.05 0.0 0.05 -0.05 0.1 -0.1 0.15 -0.25 0.2 -0.3 0.25 -0.3 0.25 -0.3 0.25 -0.35 0.3 -0.4 0.3 -0.45 0.3 -0.5 0.3 -0.55 0.2 -0.6 0.15 -0.65 0.15 -0.7 0.15 -0.65 0.2 -0.7 0.25 -0.7 0.2 -0.75 0.2 -0.85 0.15 -0.9 0.2 -1.0 0.25 -1.05 0.3 -1.05 0.3 -1.2 0.35 -1.3 0.45 -1.35 0.5 -1.4 0.55 -1.4 0.55 -1.45 0.5 -1.5 0.5 -1.45 0.45 -1.25 0.3 -1.1 0.15 -1.1 0.1 -1.05 0.05 Q-1.0 0.0 -1.0 -0.05 L-1.05 -0.05 -1.1 -0.1 -1.0 -0.15 -0.9 -0.2 -0.9 -0.25 -0.85 -0.25 -0.8 -0.25 -0.75 -0.25 -0.7 -0.25 -0.65 -0.25 -0.65 -0.25 -0.6 -0.25 -0.55 -0.2 -0.5 -0.2 -0.45 -0.25 -0.5 -0.3 -0.45 -0.25 -0.4 -0.3 -0.35 -0.3 M0.2 0.0 L0.2 0.0 0.25 0.0 0.25 0.0 0.2 0.0 0.1 0.0 0.1 -0.05 0.2 0.0 M0.05 -0.1 L0.0 -0.2 -0.05 -0.2 -0.1 -0.2 -0.1 -0.3 -0.05 -0.35 -0.05 -0.4 0.0 -0.3 0.0 -0.3 0.05 -0.1 M-0.1 -0.3 L-0.1 -0.3 M0.45 0.6 L0.4 0.6 0.45 0.55 0.45 0.5 0.45 0.6 M0.35 0.6 L0.3 0.65 0.25 0.7 0.2 0.65 0.25 0.65 0.25 0.6 0.35 0.6 M-0.6 1.4 L-0.65 1.4 -0.6 1.35 -0.6 1.35 -0.6 1.4 M-1.15 1.65 L-1.15 1.8 -1.25 2.0 -1.3 2.0 Q-1.25 1.95 -1.25 1.85 L-1.2 1.6 -1.2 1.6 -1.15 1.65 -1.15 1.65 M-1.9 2.2 L-2.0 2.2 -2.0 2.15 -1.9 2.15 -1.9 2.2 M-2.2 1.25 L-2.2 1.15 -2.15 1.15 -2.15 1.15 -2.1 1.2 -2.2 1.25 M-2.1 1.05 L-1.75 0.7 -1.65 0.65 -1.6 0.7 -1.6 0.7 -1.6 0.75 -1.7 0.8 Q-1.8 0.9 -1.85 1.0 L-1.95 0.95 -1.95 1.05 -2.05 1.1 -2.1 1.05 M-0.45 -0.25 L-0.45 -0.2 -0.45 0.0 -0.45 0.05 -0.4 0.1 -0.4 0.1 -0.35 0.1 -0.35 0.0 -0.25 0.05 -0.25 0.05 -0.3 0.0 -0.3 0.0 -0.35 -0.05 -0.4 -0.15 -0.4 -0.15 -0.45 -0.25 -0.45 -0.25 M-0.05 0.8 L-0.05 0.9 0.0 0.95 -0.1 0.9 -0.1 0.95 -0.15 0.9 -0.2 0.9 -0.2 0.9 -0.25 0.95 -0.35 1.15 -0.4 1.15 -0.4 1.15 -0.45 1.15 -0.45 1.1 -0.45 1.1 -0.4 1.0 -0.35 1.0 -0.3 0.9 -0.3 0.85 -0.2 0.85 -0.15 0.8 -0.1 0.85 -0.05 0.8 M-0.7 1.15 L-0.65 1.15 -0.6 1.15 -0.6 1.15 -0.6 1.2 -0.6 1.25 -0.6 1.2 -0.65 1.2 -0.65 1.2 -0.7 1.15 M-0.85 1.2 L-0.85 1.2 -0.8 1.15 -0.8 1.15 -0.75 1.15 -0.75 1.25 -0.7 1.25 -0.65 1.3 -0.7 1.3 -0.75 1.3 -0.75 1.3 -0.8 1.25 -0.85 1.2 M-1.5 0.6 L-1.45 0.6 -1.5 0.65 -1.55 0.65 -1.55 0.65 -1.6 0.6 -1.55 0.55 -1.55 0.55 -1.5 0.55 -1.5 0.6 M-1.65 0.65 L-1.65 0.65 M-2.05 1.1 L-2.05 1.1 M-0.95 1.4 L-1.0 1.4 -0.95 1.35 -0.95 1.4" fill="#33312f" fill-rule="evenodd" stroke="none"/>
    <path d="M-2.2 1.65 L-2.2 1.45 -2.15 1.45 -2.1 1.45 -2.2 1.55 -2.1 1.65 -2.1 1.7 -2.15 1.7 -2.15 1.65 -2.2 1.65 M-1.85 1.0 L-1.75 1.0 -1.75 1.0 -1.8 1.0 -1.8 1.0 -1.85 1.0 -1.7 1.2 -1.65 1.3 -1.65 1.3 -1.7 1.3 -1.8 1.15 -1.85 1.05 -1.85 1.05 -1.9 1.05 -1.95 1.05 -1.95 1.0 -1.9 1.0 -1.85 1.0 M-1.6 1.0 L-1.6 1.0 -1.55 1.0 -1.65 1.1 -1.65 1.0 Q-1.65 1.0 -1.6 1.0 M-1.55 1.3 L-1.55 1.25 -1.5 1.25 -1.5 1.2 -1.45 1.2 -1.45 1.25 -1.4 1.35 -1.35 1.35 -1.4 1.35 -1.4 1.35 -1.45 1.3 -1.5 1.25 -1.55 1.3 -1.55 1.3 M-1.65 1.1 L-1.7 1.2 -1.65 1.1 M-1.85 1.2 L-1.85 1.15 -1.8 1.15 -1.85 1.25 -1.85 1.2 -1.85 1.2 M-2.0 1.1 L-2.05 1.1 -2.0 1.1 -1.95 1.1 -1.95 1.15 -2.0 1.1 M-2.1 1.2 L-2.1 1.2 -2.05 1.2 -2.1 1.25 -2.05 1.35 -2.0 1.3 -2.0 1.35 -1.95 1.35 -2.0 1.4 -2.0 1.35 -2.05 1.35 -2.15 1.3 -2.2 1.3 -2.1 1.2 M-1.55 1.5 L-1.6 1.55 -1.55 1.5 -1.6 1.45 -1.6 1.4 -1.55 1.45 -1.5 1.45 -1.55 1.5 M-1.65 1.6 L-1.75 1.7 -1.75 1.65 -1.7 1.6 -1.75 1.6 -1.65 1.6 M-1.95 1.85 L-1.95 1.85 -2.0 1.85 -2.05 1.8 -2.05 1.8 -2.05 1.75 -2.0 1.65 -1.9 1.6 -1.8 1.5 -1.8 1.45 -1.8 1.55 -1.9 1.6 -1.95 1.7 -2.0 1.7 -2.0 1.8 -1.95 1.85 M-1.85 1.4 L-1.85 1.4 -1.95 1.55 -2.0 1.5 -1.95 1.5 -1.9 1.45 -1.9 1.45 -1.9 1.45 -1.85 1.4 M-2.0 1.85 L-2.0 1.85 M-1.6 1.55 L-1.6 1.55" fill="#090507" fill-rule="evenodd" stroke="none"/>
    <path d="M-2.0 2.2 L-2.15 2.2 -2.15 2.15 -2.2 2.15 -2.2 2.05 -2.15 2.1 -2.1 2.1 -2.05 2.1 -2.05 2.1 -2.0 2.1 -2.0 2.15 -2.0 2.2 M-2.2 1.9 L-2.2 1.85 -2.15 1.85 -2.15 1.8 -2.15 1.85 -2.1 1.85 -2.1 1.9 -2.05 1.9 -2.0 1.95 -2.0 1.95 -2.05 2.0 -2.0 2.05 -2.05 2.05 -2.05 2.0 -2.1 2.0 -2.15 2.0 -2.15 1.95 -2.15 1.95 -2.2 1.9 M-2.2 1.3 L-2.2 1.25 -2.1 1.2 -2.1 1.2 -2.2 1.3 -2.15 1.3 -2.2 1.3 M-1.85 1.0 L-1.85 1.0 -1.9 1.0 -1.95 1.0 -1.95 1.05 -1.9 1.05 -1.9 1.1 -1.85 1.15 -1.95 1.15 -1.95 1.15 -1.95 1.1 -2.0 1.1 -2.05 1.1 -1.95 1.05 -1.95 0.95 -1.85 1.0 M-1.75 1.0 L-1.65 0.95 -1.65 0.95 -1.6 1.0 Q-1.65 1.0 -1.65 1.0 L-1.65 1.1 -1.7 1.1 -1.75 1.1 -1.75 1.1 -1.8 1.0 -1.75 1.0 -1.75 1.0 M-1.55 1.0 L-1.55 1.0 Q-1.55 0.95 -1.45 1.0 L-1.45 1.15 -1.3 1.15 -1.25 1.15 -1.2 1.3 -1.25 1.35 -1.35 1.4 -1.35 1.35 -1.4 1.35 -1.45 1.25 -1.45 1.2 -1.5 1.2 -1.5 1.25 -1.55 1.25 -1.55 1.25 -1.6 1.25 -1.6 1.15 -1.65 1.1 -1.55 1.0 M-1.35 1.35 L-1.35 1.35 M-1.5 1.4 L-1.5 1.45 -1.35 1.5 -1.35 1.55 -1.35 1.6 -1.4 1.6 -1.4 1.6 -1.45 1.6 -1.5 1.6 -1.55 1.55 -1.6 1.55 -1.55 1.5 -1.5 1.5 -1.5 1.4 M-1.45 1.7 L-1.5 1.75 -1.55 1.8 -1.6 1.8 -1.65 1.8 -1.75 1.75 -1.75 1.95 Q-1.8 2.0 -1.85 2.0 L-1.85 1.95 -1.9 1.95 -1.95 1.95 -1.95 1.9 -1.95 1.85 -1.95 1.75 -1.9 1.75 -1.9 1.7 -1.85 1.65 -1.8 1.65 -1.8 1.65 -1.75 1.65 -1.75 1.7 -1.65 1.6 -1.6 1.65 -1.55 1.7 -1.45 1.7 -1.45 1.7 M-1.95 1.85 L-1.95 1.85 M-2.05 1.75 L-2.05 1.8 -2.1 1.75 -2.15 1.75 -2.15 1.75 -2.1 1.7 -2.1 1.7 -2.1 1.65 -2.1 1.6 -2.05 1.6 -2.05 1.6 -2.0 1.6 -2.0 1.7 -2.05 1.75" fill="#1e1c1a" fill-rule="evenodd" stroke="none"/>
    <path d="M1.35 -1.4 L1.3 -1.45 1.4 -1.5 Q1.35 -1.5 1.4 -1.55 L1.45 -1.5 1.5 -1.5 1.45 -1.55 1.45 -1.55 1.55 -1.55 1.55 -1.55 1.6 -1.55 1.6 -1.55 Q1.5 -1.5 1.6 -1.45 L1.55 -1.35 1.5 -1.4 1.5 -1.4 1.5 -1.45 1.45 -1.45 1.4 -1.45 1.4 -1.45 1.35 -1.4 1.35 -1.4 M1.5 -1.4 L1.55 -1.4 1.55 -1.45 1.5 -1.4 M1.6 -1.55 L1.6 -1.55 M2.0 -1.05 L1.95 -1.05 2.0 -1.1 2.0 -1.05 2.05 -1.05 2.1 -0.95 2.15 -0.95 2.0 -0.9 2.05 -0.95 2.0 -0.95 2.0 -1.05 M2.05 -1.15 L2.05 -1.2 2.1 -1.25 2.05 -1.25 2.0 -1.25 1.95 -1.25 2.0 -1.25 2.05 -1.3 2.1 -1.25 2.2 -1.25 2.2 -1.25 2.05 -1.15 M1.9 -1.4 L1.85 -1.4 1.85 -1.4 1.95 -1.5 1.95 -1.5 2.15 -1.55 2.1 -1.45 2.05 -1.4 2.0 -1.4 1.95 -1.4 Q1.95 -1.4 1.9 -1.4 M0.85 -0.05 L0.9 -0.1 0.9 -0.25 1.0 -0.25 Q0.95 -0.25 0.95 -0.3 L1.0 -0.3 1.05 -0.25 1.0 -0.25 1.0 -0.25 0.95 -0.15 0.85 0.0 0.85 -0.05 M1.2 -0.1 L1.15 -0.3 1.2 -0.3 1.25 -0.3 1.25 -0.35 1.3 -0.35 1.3 -0.35 1.35 -0.3 1.3 -0.25 1.25 -0.25 1.25 -0.1 1.2 -0.1 M1.55 -0.2 Q1.45 -0.35 1.45 -0.45 L1.45 -0.45 1.5 -0.45 1.5 -0.45 1.55 -0.45 Q1.55 -0.45 1.55 -0.5 L1.6 -0.45 1.55 -0.35 1.55 -0.3 1.55 -0.2 M1.75 -0.4 Q1.7 -0.4 1.7 -0.45 1.65 -0.5 1.7 -0.55 L1.75 -0.6 1.75 -0.55 1.8 -0.5 1.75 -0.4 M2.0 -0.65 L1.95 -0.7 1.9 -0.7 1.85 -0.7 1.85 -0.7 1.8 -0.75 1.9 -0.8 1.85 -0.85 1.85 -0.85 1.9 -0.85 Q1.95 -0.8 1.95 -0.8 L1.95 -0.75 2.0 -0.65" fill="#695154" fill-rule="evenodd" stroke="none"/>
    <path d="M1.75 -1.95 L1.7 -2.0 1.65 -1.95 1.45 -1.95 Q1.45 -1.9 1.45 -1.95 L1.45 -1.95 1.55 -2.0 1.6 -2.0 1.75 -2.0 1.85 -1.85 1.8 -1.85 1.8 -1.9 1.8 -1.9 1.75 -1.95 1.75 -1.95" fill="#674a4a" fill-rule="evenodd" stroke="none"/>
    <path d="M1.15 -1.95 L1.2 -2.0 1.3 -2.0 1.3 -2.0 1.25 -1.95 1.15 -1.95" fill="#665b5a" fill-rule="evenodd" stroke="none"/>
    <path d="M1.3 -1.95 Q1.35 -2.0 1.35 -1.9 L1.35 -1.85 Q1.3 -1.8 1.3 -1.85 L1.3 -1.95" fill="#5a3c3e" fill-rule="evenodd" stroke="none"/>
    <path d="M1.8 -1.9 L1.8 -1.85 1.85 -1.85 1.8 -1.8 1.85 -1.8 1.85 -1.7 1.9 -1.65 1.75 -1.55 1.75 -1.6 1.7 -1.65 1.75 -1.7 1.7 -1.75 1.7 -1.75 1.7 -1.85 1.75 -1.9 1.8 -1.9 M1.85 -1.85 L1.85 -1.85 M1.65 -1.55 L1.65 -1.55 1.7 -1.6 Q1.65 -1.55 1.7 -1.55 L1.7 -1.5 1.6 -1.4 1.6 -1.4 1.7 -1.35 1.75 -1.35 1.75 -1.3 1.7 -1.25 1.75 -1.25 1.8 -1.25 1.85 -1.2 1.75 -1.1 1.75 -1.05 Q1.8 -0.95 1.85 -0.95 L1.8 -0.9 Q1.8 -0.9 1.75 -0.9 L1.7 -0.9 1.75 -0.85 1.75 -0.8 1.7 -0.75 1.7 -0.75 1.65 -0.7 1.65 -0.65 1.55 -0.55 1.5 -0.6 1.55 -0.6 1.6 -0.7 1.6 -0.75 1.65 -0.75 1.7 -0.85 1.7 -1.15 1.65 -1.1 1.65 -1.1 1.6 -1.15 1.6 -1.25 1.55 -1.35 1.6 -1.35 1.6 -1.45 1.6 -1.5 1.65 -1.5 1.65 -1.55" fill="#241718" fill-rule="evenodd" stroke="none"/>
    <path d="M1.65 -1.95 L1.7 -2.0 1.75 -1.95 1.7 -1.9 1.65 -1.85 1.6 -1.9 1.65 -1.95 1.65 -1.95" fill="#8a6163" fill-rule="evenodd" stroke="none"/>
    <path d="M1.6 -1.8 L1.6 -1.8 Q1.6 -1.75 1.6 -1.75 L1.6 -1.75 1.55 -1.75 Q1.55 -1.8 1.6 -1.8" fill="#604c4c" fill-rule="evenodd" stroke="none"/>
    <path d="M1.6 -1.65 L1.6 -1.7 1.65 -1.65 1.6 -1.6 1.6 -1.65" fill="#63534f" fill-rule="evenodd" stroke="none"/>
    <path d="M1.85 -1.8 L1.8 -1.8 1.85 -1.85 1.85 -1.8" fill="#5e4547" fill-rule="evenodd" stroke="none"/>
    <path d="M1.75 -1.6 L1.75 -1.55 1.7 -1.55 1.75 -1.6 M1.7 -1.55 L1.7 -1.5 1.7 -1.55" fill="#4c4a49" fill-rule="evenodd" stroke="none"/>
    <path d="M1.3 -1.25 L1.35 -1.25 1.35 -1.3 1.4 -1.35 Q1.4 -1.4 1.35 -1.35 L1.35 -1.4 1.4 -1.4 1.4 -1.45 1.45 -1.45 1.5 -1.45 1.5 -1.4 1.5 -1.4 1.55 -1.35 1.6 -1.45 1.6 -1.35 1.55 -1.35 1.55 -1.35 1.5 -1.3 1.4 -1.25 1.3 -1.2 1.3 -1.25 M1.6 -1.55 L1.65 -1.55 1.65 -1.5 1.6 -1.5 1.6 -1.45 1.6 -1.55 1.6 -1.55 M1.35 -1.4 L1.35 -1.4 M1.45 -1.35 L1.4 -1.3 1.45 -1.3 1.45 -1.35 M1.85 -0.95 L1.85 -1.0 1.9 -1.0 1.9 -1.05 1.95 -1.05 1.95 -1.0 2.0 -1.05 2.0 -0.95 2.05 -0.95 2.0 -0.9 1.95 -0.9 1.95 -0.8 Q1.95 -0.8 1.9 -0.85 L1.85 -0.85 1.85 -0.9 1.8 -0.9 1.85 -0.95 M1.95 -1.25 L1.95 -1.25 1.95 -1.2 1.9 -1.2 1.85 -1.25 1.85 -1.35 1.95 -1.35 1.9 -1.4 Q1.95 -1.4 1.95 -1.4 L2.0 -1.4 1.95 -1.35 2.0 -1.3 2.0 -1.3 2.05 -1.3 2.0 -1.25 1.95 -1.25" fill="#3d2325" fill-rule="evenodd" stroke="none"/>
    <path d="M1.45 -1.55 Q1.5 -1.55 1.55 -1.55 L1.55 -1.65 1.6 -1.65 1.6 -1.6 1.55 -1.55 1.55 -1.55 1.45 -1.55" fill="#876f71" fill-rule="evenodd" stroke="none"/>
    <path d="M1.6 -1.45 Q1.5 -1.5 1.6 -1.55 L1.6 -1.45" fill="#997f85" fill-rule="evenodd" stroke="none"/>
    <path d="M1.5 -1.3 L1.55 -1.35 1.55 -1.35 1.5 -1.3" fill="#8d6467" fill-rule="evenodd" stroke="none"/>
    <path d="M1.45 -1.35 L1.45 -1.3 1.4 -1.3 1.45 -1.35" fill="#8f6e72" fill-rule="evenodd" stroke="none"/>
    <path d="M1.05 -1.15 L1.05 -1.2 Q1.1 -1.2 1.15 -1.2 L1.2 -1.25 1.15 -1.25 1.15 -1.25 Q1.2 -1.25 1.2 -1.3 L1.2 -1.25 1.2 -1.15 1.15 -1.1 1.1 -1.1 1.0 -1.0 0.95 -0.9 0.95 -0.9 0.9 -0.85 0.8 -0.8 0.8 -0.85 0.85 -0.9 0.9 -0.95 0.9 -1.0 0.9 -1.05 1.0 -1.05 1.0 -1.15 1.05 -1.15 M0.85 -0.9 L0.85 -0.9" fill="#4c2f30" fill-rule="evenodd" stroke="none"/>
    <path d="M1.5 -1.6 L1.5 -1.7 1.5 -1.6" fill="#745859" fill-rule="evenodd" stroke="none"/>
    <path d="M1.45 -1.75 L1.45 -1.65 1.4 -1.6 1.4 -1.6 1.35 -1.55 Q1.4 -1.6 1.35 -1.6 L1.35 -1.65 1.4 -1.65 1.4 -1.65 1.45 -1.75 M1.4 -1.65 L1.35 -1.65 Q1.3 -1.7 1.35 -1.75 L1.4 -1.75 1.4 -1.65" fill="#6e5f60" fill-rule="evenodd" stroke="none"/>
    <path d="M1.3 -1.75 L1.35 -1.75 1.35 -1.7 1.3 -1.75 1.3 -1.75" fill="#6f6161" fill-rule="evenodd" stroke="none"/>
    <path d="M1.45 -1.5 L1.45 -1.55 1.5 -1.5 1.45 -1.5" fill="#ab979a" fill-rule="evenodd" stroke="none"/>
    <path d="M1.4 -1.45 L1.4 -1.4 1.35 -1.4 1.4 -1.45 1.4 -1.45" fill="#ae9596" fill-rule="evenodd" stroke="none"/>
    <path d="M0.95 -1.65 Q0.9 -1.65 0.9 -1.65 L0.95 -1.65 0.95 -1.65" fill="#827273" fill-rule="evenodd" stroke="none"/>
    <path d="M1.25 -1.45 L1.3 -1.45 1.25 -1.35 1.25 -1.45" fill="#c0b5b6" fill-rule="evenodd" stroke="none"/>
    <path d="M1.15 -1.25 L1.2 -1.3 1.2 -1.35 1.25 -1.45 1.25 -1.35 1.25 -1.3 1.2 -1.3 Q1.2 -1.25 1.15 -1.25" fill="#645658" fill-rule="evenodd" stroke="none"/>
    <path d="M1.0 -1.35 L1.0 -1.3 0.95 -1.3 1.0 -1.25 0.95 -1.25 0.95 -1.3 1.0 -1.35" fill="#5e5759" fill-rule="evenodd" stroke="none"/>
    <path d="M0.9 -1.0 L0.85 -1.05 0.95 -1.1 1.0 -1.15 1.05 -1.15 1.0 -1.15 1.0 -1.05 0.9 -1.05 0.9 -1.0" fill="#796565" fill-rule="evenodd" stroke="none"/>
    <path d="M0.95 -1.25 Q0.9 -1.25 0.9 -1.15 L0.85 -1.2 0.9 -1.25 0.95 -1.25" fill="#695e5f" fill-rule="evenodd" stroke="none"/>
    <path d="M0.8 -1.2 L0.8 -1.1 0.75 -1.15 0.8 -1.2" fill="#685e5f" fill-rule="evenodd" stroke="none"/>
    <path d="M0.85 -1.05 L0.85 -1.05 0.8 -1.0 0.8 -1.05 0.85 -1.05" fill="#694d4f" fill-rule="evenodd" stroke="none"/>
    <path d="M0.8 -1.1 L0.7 -1.05 0.7 -1.0 0.65 -1.0 0.65 -1.05 0.75 -1.1 0.75 -1.15 0.8 -1.1 M0.65 -1.0 L0.65 -1.0 0.65 -1.0 M0.7 -0.95 L0.7 -0.95 0.75 -1.0 0.7 -0.95" fill="#726363" fill-rule="evenodd" stroke="none"/>
    <path d="M0.8 -0.9 L0.85 -0.95 0.8 -0.95 0.8 -1.0 Q0.85 -1.0 0.9 -1.0 L0.9 -0.95 0.85 -0.9 0.85 -0.9 0.8 -0.9" fill="#775557" fill-rule="evenodd" stroke="none"/>
    <path d="M0.75 -0.95 L0.8 -1.0 0.8 -0.95 0.75 -0.95" fill="#745052" fill-rule="evenodd" stroke="none"/>
    <path d="M0.6 -0.75 Q0.55 -0.75 0.6 -0.8 0.6 -0.85 0.65 -0.85 0.65 -0.8 0.7 -0.85 L0.75 -0.85 0.7 -0.85 0.7 -0.9 0.75 -0.95 0.8 -0.9 0.8 -0.9 0.85 -0.9 0.8 -0.85 0.8 -0.8 0.75 -0.8 0.65 -0.8 0.65 -0.75 0.7 -0.7 0.65 -0.7 0.65 -0.65 0.6 -0.65 0.65 -0.7 0.6 -0.75 0.65 -0.75 0.65 -0.75 0.65 -0.8 0.6 -0.75" fill="#795958" fill-rule="evenodd" stroke="none"/>
    <path d="M0.85 -0.9 L0.85 -0.9 0.85 -0.9" fill="#b99596" fill-rule="evenodd" stroke="none"/>
    <path d="M0.8 -0.8 L0.8 -0.75 0.75 -0.7 Q0.7 -0.65 0.7 -0.6 L0.7 -0.6 0.65 -0.6 0.65 -0.55 0.6 -0.5 Q0.6 -0.5 0.55 -0.45 L0.5 -0.45 0.6 -0.55 0.6 -0.6 Q0.55 -0.6 0.55 -0.6 L0.55 -0.65 0.6 -0.6 0.6 -0.65 0.65 -0.65 0.65 -0.7 0.7 -0.7 0.65 -0.75 0.65 -0.8 0.75 -0.8 0.8 -0.8 M0.65 -0.75 L0.7 -0.75 0.65 -0.75 M0.7 -0.7 L0.65 -0.7 0.7 -0.7 0.7 -0.7" fill="#502a2b" fill-rule="evenodd" stroke="none"/>
    <path d="M0.65 -0.75 L0.6 -0.75 0.65 -0.8 0.65 -0.75" fill="#cfb4b2" fill-rule="evenodd" stroke="none"/>
    <path d="M0.65 -0.85 L0.7 -0.85 0.75 -0.85 0.7 -0.85 Q0.65 -0.8 0.65 -0.85" fill="#b19693" fill-rule="evenodd" stroke="none"/>
    <path d="M0.65 -1.0 L0.65 -0.95 0.6 -0.95 0.6 -0.9 0.55 -0.85 0.5 -0.85 0.45 -0.85 0.5 -0.9 0.55 -0.95 0.55 -0.95 0.6 -0.95 0.65 -1.0 0.65 -1.0" fill="#685d5c" fill-rule="evenodd" stroke="none"/>
    <path d="M0.45 -0.85 L0.5 -0.85 0.55 -0.85 0.55 -0.8 0.5 -0.75 0.45 -0.75 0.5 -0.8 0.45 -0.85" fill="#2d2423" fill-rule="evenodd" stroke="none"/>
    <path d="M0.55 -0.8 L0.45 -0.7 0.4 -0.7 0.4 -0.65 0.35 -0.5 Q0.35 -0.5 0.35 -0.6 L0.35 -0.7 0.3 -0.7 0.25 -0.65 0.3 -0.65 0.35 -0.6 0.2 -0.65 0.25 -0.7 0.2 -0.7 0.25 -0.7 0.3 -0.75 0.35 -0.8 0.4 -0.8 Q0.45 -0.8 0.45 -0.85 L0.5 -0.8 0.45 -0.75 0.5 -0.75 0.55 -0.8" fill="#645859" fill-rule="evenodd" stroke="none"/>
    <path d="M0.55 -0.85 L0.65 -0.9 0.6 -0.85 0.55 -0.8 0.55 -0.85" fill="#8e7676" fill-rule="evenodd" stroke="none"/>
    <path d="M0.65 -0.75 L0.7 -0.75 0.65 -0.75 0.65 -0.75" fill="#ba9494" fill-rule="evenodd" stroke="none"/>
    <path d="M0.45 -0.65 L0.5 -0.7 0.5 -0.65 0.55 -0.7 0.55 -0.7 0.6 -0.75 0.65 -0.7 0.6 -0.65 0.6 -0.6 0.55 -0.65 0.55 -0.6 0.55 -0.65 0.5 -0.6 0.5 -0.65 0.45 -0.65" fill="#a48988" fill-rule="evenodd" stroke="none"/>
    <path d="M0.85 -0.55 L0.8 -0.5 0.75 -0.45 Q0.75 -0.45 0.75 -0.5 L0.8 -0.5 0.8 -0.55 0.8 -0.55 0.85 -0.55" fill="#5e4b4c" fill-rule="evenodd" stroke="none"/>
    <path d="M0.8 -0.5 L0.75 -0.5 0.7 -0.5 0.75 -0.55 0.8 -0.55 0.8 -0.5" fill="#5a4849" fill-rule="evenodd" stroke="none"/>
    <path d="M0.8 -0.5 L0.8 -0.45 Q0.75 -0.45 0.75 -0.45 L0.8 -0.5" fill="#5d4c4d" fill-rule="evenodd" stroke="none"/>
    <path d="M0.8 -0.45 L0.8 -0.4 0.75 -0.4 0.75 -0.35 0.7 -0.4 Q0.7 -0.4 0.75 -0.45 L0.75 -0.4 0.8 -0.45" fill="#605151" fill-rule="evenodd" stroke="none"/>
    <path d="M0.85 -0.4 L0.85 -0.35 0.85 -0.35 0.8 -0.3 0.75 -0.3 0.75 -0.3 0.8 -0.3 0.75 -0.35 0.8 -0.35 0.85 -0.4" fill="#6d5a5d" fill-rule="evenodd" stroke="none"/>
    <path d="M0.85 -0.4 L0.9 -0.45 0.9 -0.5 0.95 -0.5 1.0 -0.5 0.95 -0.45 0.95 -0.4 Q0.95 -0.35 0.9 -0.4 L0.85 -0.35 0.85 -0.4" fill="#52393b" fill-rule="evenodd" stroke="none"/>
    <path d="M0.75 -0.3 L0.75 -0.35 0.8 -0.3 0.75 -0.3" fill="#cebec1" fill-rule="evenodd" stroke="none"/>
    <path d="M0.85 -0.35 L0.8 -0.3 0.85 -0.35" fill="#453135" fill-rule="evenodd" stroke="none"/>
    <path d="M0.45 -0.1 L0.45 -0.15 0.5 -0.2 0.45 -0.2 0.4 -0.2 0.5 -0.25 0.5 -0.2 0.55 -0.25 0.55 -0.2 0.6 -0.2 0.6 -0.15 0.55 -0.15 0.55 -0.1 0.6 -0.1 0.6 -0.15 0.6 -0.1 0.55 0.0 0.55 0.05 0.55 0.0 0.5 0.0 0.5 0.0 0.5 -0.05 0.45 -0.1" fill="#4e3334" fill-rule="evenodd" stroke="none"/>
    <path d="M0.6 -0.1 L0.6 -0.1 0.55 -0.1 0.55 -0.15 0.6 -0.15 0.6 -0.1" fill="#7b6768" fill-rule="evenodd" stroke="none"/>
    <path d="M0.7 -0.1 L0.7 -0.05 0.65 0.0 0.65 -0.1 0.7 -0.1" fill="#4e3032" fill-rule="evenodd" stroke="none"/>
    <path d="M0.5 -0.45 L0.5 -0.45 0.55 -0.45 0.55 -0.35 0.5 -0.35 0.45 -0.4 0.5 -0.4 0.45 -0.4 0.5 -0.45 M0.55 -0.45 L0.55 -0.45" fill="#665759" fill-rule="evenodd" stroke="none"/>
    <path d="M0.55 -0.45 L0.55 -0.45 0.55 -0.45" fill="#4e3538" fill-rule="evenodd" stroke="none"/>
    <path d="M0.5 -0.45 L0.45 -0.55 0.4 -0.6 0.45 -0.65 0.45 -0.65 0.45 -0.65 0.5 -0.65 0.5 -0.6 0.55 -0.65 0.55 -0.6 Q0.55 -0.6 0.6 -0.6 L0.6 -0.55 0.5 -0.45" fill="#79605d" fill-rule="evenodd" stroke="none"/>
    <path d="M0.45 -0.3 L0.5 -0.35 0.5 -0.3 0.45 -0.3" fill="#8c8783" fill-rule="evenodd" stroke="none"/>
    <path d="M0.5 -0.25 L0.5 -0.25 0.55 -0.25 0.5 -0.2 0.5 -0.25" fill="#9b797c" fill-rule="evenodd" stroke="none"/>
    <path d="M0.1 0.1 L0.05 0.1 0.05 0.05 0.1 0.05 0.15 0.05 0.2 0.05 0.25 0.05 0.2 0.1 0.15 0.1 0.1 0.1 M0.4 0.05 L0.4 0.0 0.4 -0.05 0.35 -0.05 0.45 -0.05 0.45 -0.1 0.5 -0.05 0.5 0.0 0.45 0.0 0.45 0.0 0.4 0.05 M0.45 0.0 L0.45 -0.05 0.4 0.0 0.45 0.0 M0.1 0.05 L0.05 0.05 0.05 0.0 0.1 0.05" fill="#846969" fill-rule="evenodd" stroke="none"/>
    <path d="M0.45 0.0 L0.4 0.0 0.45 -0.05 0.45 0.0" fill="#492d2f" fill-rule="evenodd" stroke="none"/>
    <path d="M0.3 -0.2 L0.3 -0.15 0.3 -0.2" fill="#90878a" fill-rule="evenodd" stroke="none"/>
    <path d="M0.2 -0.3 L0.2 -0.3 0.2 -0.25 0.2 -0.2 0.2 -0.15 0.2 -0.15 0.25 -0.1 0.2 -0.1 0.2 -0.1 0.1 -0.15 0.15 -0.2 Q0.1 -0.2 0.1 -0.25 L0.15 -0.25 Q0.15 -0.2 0.15 -0.25 L0.15 -0.25 Q0.1 -0.25 0.15 -0.3 L0.15 -0.3 0.2 -0.3" fill="#554143" fill-rule="evenodd" stroke="none"/>
    <path d="M-0.35 -0.35 L-0.35 -0.45 -0.3 -0.45 -0.25 -0.5 -0.25 -0.4 -0.3 -0.35 -0.25 -0.35 -0.25 -0.3 -0.3 -0.3 -0.25 -0.25 -0.25 -0.1 -0.25 -0.1 -0.2 0.0 -0.15 0.0 -0.2 0.0 -0.3 -0.05 -0.3 -0.1 -0.3 -0.15 -0.35 -0.25 -0.35 -0.35 M0.0 -0.4 Q0.0 -0.35 0.05 -0.35 L0.05 -0.35 Q0.05 -0.3 0.1 -0.3 L0.1 -0.25 0.15 -0.3 Q0.1 -0.25 0.15 -0.25 L0.15 -0.25 Q0.15 -0.2 0.15 -0.25 L0.1 -0.25 Q0.1 -0.2 0.15 -0.2 L0.1 -0.15 0.1 -0.2 0.05 -0.2 0.1 -0.15 0.1 -0.05 Q0.15 0.0 0.2 0.0 L0.1 -0.05 0.1 -0.05 0.05 -0.1 0.0 -0.3 0.0 -0.3 -0.05 -0.4 0.0 -0.4 M0.1 -0.4 L0.1 -0.35 0.05 -0.35 0.1 -0.4 M0.1 -0.25 L0.05 -0.3 0.05 -0.25 0.1 -0.25" fill="#725e5e" fill-rule="evenodd" stroke="none"/>
    <path d="M0.35 -0.1 L0.3 -0.05 0.25 -0.05 0.3 -0.1 0.35 -0.1 M-0.05 -0.05 L0.0 -0.05 0.0 -0.05 0.0 0.0 -0.05 0.0 -0.05 -0.05" fill="#776767" fill-rule="evenodd" stroke="none"/>
    <path d="M-0.05 0.15 L0.05 0.1 0.1 0.1 0.15 0.1 0.15 0.15 0.1 0.2 0.05 0.2 Q0.0 0.2 -0.05 0.15 M0.4 0.1 Q0.35 0.1 0.35 0.05 L0.4 0.05 0.45 0.0 0.45 0.1 0.4 0.1" fill="#5c4143" fill-rule="evenodd" stroke="none"/>
    <path d="M0.5 0.0 L0.5 0.0 0.55 0.0 0.55 0.05 0.55 0.1 0.5 0.1 0.45 0.1 0.45 0.0 0.5 0.0 0.5 0.0 M0.45 0.0 L0.45 0.0" fill="#341a1b" fill-rule="evenodd" stroke="none"/>
    <path d="M0.35 0.1 L0.4 0.1 0.45 0.1 0.4 0.15 0.35 0.1 M0.1 0.2 L0.05 0.25 0.05 0.2 0.1 0.2" fill="#ccacae" fill-rule="evenodd" stroke="none"/>
    <path d="M0.35 0.2 L0.35 0.15 0.3 0.15 0.35 0.15 0.35 0.1 0.4 0.15 0.35 0.2 M0.05 0.25 L0.05 0.3 -0.05 0.3 -0.05 0.2 0.0 0.25 0.05 0.2 0.05 0.25" fill="#87696a" fill-rule="evenodd" stroke="none"/>
    <path d="M0.45 0.15 L0.5 0.15 0.45 0.25 0.5 0.25 Q0.4 0.3 0.4 0.25 L0.45 0.15 M0.1 0.4 Q0.05 0.4 0.05 0.45 L0.05 0.35 0.1 0.3 0.15 0.3 0.15 0.35 0.1 0.4" fill="#301d1a" fill-rule="evenodd" stroke="none"/>
    <path d="M0.45 -0.55 L0.45 -0.5 0.5 -0.5 0.5 -0.45 0.4 -0.45 0.45 -0.55" fill="#756262" fill-rule="evenodd" stroke="none"/>
    <path d="M0.2 -0.55 L0.3 -0.6 0.25 -0.55 Q0.2 -0.55 0.2 -0.55" fill="#515252" fill-rule="evenodd" stroke="none"/>
    <path d="M0.1 -0.95 Q0.15 -0.95 0.15 -0.95 L0.15 -0.95 0.15 -1.0 0.2 -1.0 0.2 -0.95 0.2 -0.85 0.15 -0.85 0.1 -0.85 0.15 -0.85 0.15 -0.8 0.1 -0.8 0.05 -0.8 0.05 -0.9 0.1 -0.9 Q0.15 -0.9 0.1 -0.9 L0.1 -0.95" fill="#3f3534" fill-rule="evenodd" stroke="none"/>
    <path d="M0.15 -0.95 L0.15 -0.95 Q0.15 -0.95 0.1 -0.95 L0.15 -0.95" fill="#a49a98" fill-rule="evenodd" stroke="none"/>
    <path d="M0.05 -0.65 L0.05 -0.7 0.1 -0.65 0.05 -0.6 0.0 -0.55 0.0 -0.6 0.05 -0.6 0.05 -0.65" fill="#57464a" fill-rule="evenodd" stroke="none"/>
    <path d="M0.2 -0.65 L0.15 -0.6 0.15 -0.6 Q0.1 -0.65 0.2 -0.65" fill="#605a5a" fill-rule="evenodd" stroke="none"/>
    <path d="M-0.05 -0.65 L0.0 -0.6 0.0 -0.6 -0.05 -0.6 -0.05 -0.65" fill="#766566" fill-rule="evenodd" stroke="none"/>
    <path d="M-0.15 -0.4 Q-0.1 -0.35 -0.1 -0.4 L-0.1 -0.5 -0.05 -0.45 -0.05 -0.4 -0.1 -0.35 -0.15 -0.4" fill="#8a787a" fill-rule="evenodd" stroke="none"/>
    <path d="M0.15 -0.3 L0.2 -0.3 0.15 -0.3 0.15 -0.3 0.15 -0.3" fill="#c1a4a8" fill-rule="evenodd" stroke="none"/>
    <path d="M0.2 -0.25 L0.2 -0.2 0.2 -0.25" fill="#dbcbce" fill-rule="evenodd" stroke="none"/>
    <path d="M0.1 -0.4 Q0.1 -0.35 0.15 -0.35 L0.15 -0.3 0.1 -0.25 0.1 -0.3 0.1 -0.4 M0.15 -0.3 L0.15 -0.3" fill="#503b3c" fill-rule="evenodd" stroke="none"/>
    <path d="M0.15 -0.35 L0.15 -0.4 0.15 -0.35" fill="#aa9094" fill-rule="evenodd" stroke="none"/>
    <path d="M0.05 -0.35 L0.05 -0.45 0.1 -0.45 0.1 -0.45 0.05 -0.45 0.05 -0.35" fill="#7b6a6a" fill-rule="evenodd" stroke="none"/>
    <path d="M0.05 -0.45 L0.1 -0.4 0.05 -0.35 0.05 -0.45" fill="#cbb9b9" fill-rule="evenodd" stroke="none"/>
    <path d="M0.1 -0.3 Q0.05 -0.3 0.05 -0.35 L0.05 -0.35 0.1 -0.35 0.1 -0.4 0.1 -0.3" fill="#a89596" fill-rule="evenodd" stroke="none"/>
    <path d="M0.1 -0.25 L0.05 -0.25 0.05 -0.3 0.1 -0.25" fill="#372324" fill-rule="evenodd" stroke="none"/>
    <path d="M-0.45 0.3 Q-0.5 0.35 -0.5 0.35 L-0.55 0.35 -0.55 0.35 -0.55 0.3 -0.65 0.25 -0.7 0.25 -0.65 0.2 -0.7 0.15 -0.65 0.15 -0.6 0.15 -0.55 0.2 -0.5 0.3 -0.45 0.3" fill="#423f3f" fill-rule="evenodd" stroke="none"/>
    <path d="M-0.4 0.35 L-0.4 0.45 -0.5 0.35 -0.4 0.35 -0.4 0.35" fill="#9a8686" fill-rule="evenodd" stroke="none"/>
    <path d="M-0.55 0.35 L-0.55 0.35 -0.5 0.35 -0.55 0.35" fill="#857f7d" fill-rule="evenodd" stroke="none"/>
    <path d="M-0.05 0.3 L-0.05 0.3 -0.1 0.3 -0.15 0.3 -0.15 0.25 -0.1 0.25 -0.05 0.3" fill="#977e80" fill-rule="evenodd" stroke="none"/>
    <path d="M-0.25 0.35 L-0.3 0.4 -0.3 0.4 -0.35 0.4 -0.4 0.4 -0.4 0.4 -0.3 0.35 -0.3 0.35 -0.25 0.35" fill="#80686b" fill-rule="evenodd" stroke="none"/>
    <path d="M-0.1 0.45 L-0.05 0.5 0.0 0.5 -0.1 0.45" fill="#bea4a1" fill-rule="evenodd" stroke="none"/>
    <path d="M-0.9 0.3 L-0.95 0.35 -0.75 0.3 -0.75 0.3 -0.7 0.35 -0.55 0.45 -0.5 0.5 -0.45 0.5 -0.55 0.55 -0.65 0.65 -0.7 0.75 -0.75 0.75 -0.8 0.75 -0.8 0.8 -0.9 0.85 -0.9 0.85 -0.95 0.85 -0.95 0.8 -1.0 0.8 -1.0 0.75 -1.05 0.75 -1.15 0.75 -1.15 0.7 -1.2 0.7 Q-1.2 0.6 -1.15 0.5 L-1.1 0.45 -1.05 0.4 Q-1.0 0.35 -1.05 0.35 L-1.05 0.3 -1.0 0.3 -1.0 0.3 -0.95 0.3 -0.95 0.3 -0.95 0.25 -0.9 0.3 M-1.05 0.3 L-1.05 0.3 M-0.85 0.35 L-0.8 0.4 -0.75 0.45 Q-0.8 0.55 -0.85 0.55 L-0.85 0.5 -0.9 0.5 -0.85 0.6 -0.8 0.6 Q-0.75 0.6 -0.75 0.65 L-0.75 0.65 -0.65 0.6 -0.6 0.6 -0.6 0.55 -0.65 0.45 Q-0.65 0.45 -0.7 0.45 L-0.75 0.4 -0.75 0.35 -0.85 0.35 M-0.95 0.6 Q-0.9 0.6 -0.9 0.55 L-0.9 0.45 -0.95 0.5 Q-0.95 0.45 -1.0 0.5 L-1.0 0.55 -0.95 0.6 M-0.75 0.65 L-0.85 0.65 -0.85 0.7 -0.8 0.7 -0.75 0.65" fill="#5b292b" fill-rule="evenodd" stroke="none"/>
    <path d="M-0.65 0.25 L-0.55 0.3 -0.65 0.35 -0.7 0.3 -0.65 0.25" fill="#837676" fill-rule="evenodd" stroke="none"/>
    <path d="M-0.85 0.35 L-0.75 0.35 -0.75 0.4 -0.7 0.45 Q-0.65 0.45 -0.65 0.45 L-0.6 0.55 -0.6 0.6 -0.65 0.6 -0.75 0.65 -0.75 0.65 Q-0.75 0.6 -0.8 0.6 L-0.85 0.6 -0.9 0.5 -0.85 0.5 -0.85 0.55 Q-0.8 0.55 -0.75 0.45 L-0.8 0.4 -0.85 0.35" fill="#2d1717" fill-rule="evenodd" stroke="none"/>
    <path d="M-0.7 0.2 L-0.75 0.2 -0.7 0.2" fill="#7f7074" fill-rule="evenodd" stroke="none"/>
    <path d="M-0.9 0.3 L-0.95 0.25 -0.9 0.25 -0.85 0.2 -0.85 0.25 -0.85 0.25 Q-0.85 0.3 -0.9 0.3" fill="#96706f" fill-rule="evenodd" stroke="none"/>
    <path d="M-0.95 0.25 L-0.95 0.3 -0.95 0.25 -1.05 0.3 -1.0 0.25 -0.9 0.2 -0.95 0.25" fill="#875f5f" fill-rule="evenodd" stroke="none"/>
    <path d="M-0.95 0.3 L-0.95 0.3 -1.0 0.3 -1.0 0.3 -1.05 0.3 -0.95 0.25 -0.95 0.3" fill="#e5bcba" fill-rule="evenodd" stroke="none"/>
    <path d="M-1.0 0.55 L-1.0 0.5 Q-0.95 0.45 -0.95 0.5 L-1.0 0.55" fill="#b46a6e" fill-rule="evenodd" stroke="none"/>
    <path d="M-0.95 0.5 L-0.9 0.55 -0.95 0.6 -1.0 0.55 -0.95 0.5" fill="#f2d5d7" fill-rule="evenodd" stroke="none"/>
    <path d="M-1.05 0.35 Q-1.0 0.35 -1.05 0.4 L-1.1 0.45 -1.15 0.5 -1.1 0.45 -1.1 0.4 -1.05 0.35" fill="#83555a" fill-rule="evenodd" stroke="none"/>
    <path d="M-0.75 0.65 L-0.8 0.7 -0.85 0.7 -0.85 0.65 -0.75 0.65" fill="#8b7070" fill-rule="evenodd" stroke="none"/>
    <path d="M-0.95 0.5 L-0.9 0.45 -0.9 0.55 Q-0.9 0.6 -0.95 0.6 L-0.9 0.55 -0.95 0.5" fill="#a1767d" fill-rule="evenodd" stroke="none"/>
    <path d="M-2.2 1.75 L-2.2 1.65 -2.15 1.65 -2.15 1.7 -2.1 1.7 -2.1 1.7 -2.15 1.75 -2.2 1.75 M-2.2 1.45 L-2.2 1.45 -2.15 1.45 -2.2 1.45 M-2.2 1.3 L-2.2 1.3 -2.15 1.3 -2.2 1.3 M-1.65 1.3 L-1.7 1.2 -1.85 1.0 -1.8 1.0 -1.8 1.0 -1.75 1.1 -1.75 1.1 -1.7 1.1 -1.65 1.1 -1.6 1.15 -1.6 1.25 -1.55 1.25 -1.55 1.25 -1.55 1.3 -1.55 1.3 -1.65 1.3 M-1.9 1.05 L-1.85 1.05 -1.85 1.05 -1.8 1.15 -1.7 1.3 -1.75 1.3 -1.8 1.3 -1.85 1.3 -1.85 1.25 -1.8 1.15 -1.85 1.15 -1.85 1.2 -1.85 1.15 -1.9 1.15 -1.95 1.15 -1.95 1.15 -1.85 1.15 -1.9 1.1 -1.9 1.05 M-1.65 1.1 L-1.7 1.2 -1.65 1.1 M-1.75 1.3 L-1.75 1.3 M-2.05 1.2 L-2.0 1.25 -2.05 1.25 -2.0 1.3 -2.0 1.3 -2.05 1.35 -2.1 1.25 -2.05 1.2 M-1.55 1.4 L-1.5 1.4 -1.5 1.5 -1.55 1.5 -1.6 1.55 -1.6 1.5 -1.65 1.5 -1.7 1.45 -1.65 1.45 -1.6 1.45 -1.55 1.5 -1.5 1.45 -1.55 1.45 -1.6 1.4 -1.55 1.4 -1.55 1.4 M-1.45 1.3 L-1.5 1.3 -1.55 1.3 -1.5 1.25 -1.45 1.3 M-1.75 1.65 L-1.8 1.65 -1.8 1.65 -1.85 1.65 -1.9 1.7 -1.9 1.75 -1.95 1.75 -1.95 1.85 -2.0 1.8 -2.0 1.7 -1.95 1.7 -1.9 1.6 -1.8 1.55 -1.75 1.6 -1.7 1.6 -1.75 1.65 M-1.85 1.4 L-1.85 1.4 -1.8 1.4 -1.8 1.45 -1.8 1.5 -1.9 1.6 -2.0 1.65 -2.05 1.75 -2.0 1.7 -2.0 1.6 -2.05 1.6 -2.05 1.6 -2.1 1.6 -2.1 1.65 -2.2 1.55 -2.1 1.45 -2.1 1.45 -2.0 1.5 -1.95 1.5 -2.0 1.5 -1.95 1.55 -1.85 1.4 M-1.6 1.4 L-1.6 1.4 M-1.75 1.6 L-1.75 1.6 M-2.05 1.35 L-2.15 1.35 -2.15 1.35 -2.15 1.3 -2.05 1.35 M-5.35 3.7 L-5.4 3.7 -5.35 3.7 -5.35 3.7" fill="#191410" fill-rule="evenodd" stroke="none"/>
    <path d="M-0.35 1.25 L-0.35 1.3 -0.4 1.35 -0.45 1.35 -0.5 1.35 -0.45 1.35 -0.4 1.3 -0.45 1.3 -0.45 1.3 -0.5 1.3 -0.45 1.35 -0.5 1.35 -0.5 1.35 -0.5 1.3 -0.45 1.25 -0.45 1.25 -0.4 1.25 -0.4 1.25 -0.4 1.2 -0.35 1.25 M-0.7 1.55 L-0.7 1.55 -0.75 1.6 -0.8 1.6 -0.8 1.6 -0.85 1.6 -0.8 1.6 -0.85 1.65 -0.9 1.7 -0.9 1.7 -1.0 1.7 -1.0 1.7 -1.05 1.7 -1.1 1.65 -1.15 1.6 -1.15 1.65 -1.15 1.6 -1.15 1.6 -1.1 1.6 -1.15 1.55 -1.15 1.55 -1.1 1.5 -1.1 1.5 -1.05 1.55 -1.0 1.5 -0.95 1.5 -0.95 1.45 -0.95 1.45 -0.9 1.45 -0.9 1.45 -0.9 1.45 -0.9 1.4 -0.9 1.35 -0.9 1.35 -0.95 1.3 -0.95 1.3 -1.0 1.3 -1.0 1.25 -1.05 1.3 -1.05 1.25 -1.1 1.2 -1.1 1.2 -1.05 1.15 -1.05 1.2 -1.0 1.15 -0.95 1.25 -0.9 1.25 -0.9 1.2 -0.85 1.2 -0.9 1.2 -0.85 1.25 -0.9 1.25 -0.9 1.25 -0.9 1.25 -0.85 1.25 -0.85 1.3 -0.85 1.3 -0.9 1.3 -0.85 1.3 -0.85 1.35 -0.85 1.35 -0.8 1.45 -0.75 1.5 -0.75 1.5 -0.7 1.5 -0.7 1.55 M-0.9 0.95 L-0.85 0.9 -0.85 0.95 -0.9 0.95 M-0.9 1.05 L-0.9 1.05 -0.9 1.0 -0.95 1.0 -0.95 1.0 -1.0 1.0 -0.95 0.95 -0.9 1.0 -0.9 1.05 M-1.3 0.75 L-1.35 0.8 -1.35 0.8 -1.4 0.8 -1.35 0.8 -1.4 0.8 -1.45 0.8 -1.4 0.75 -1.4 0.75 -1.4 0.7 -1.35 0.7 -1.35 0.75 -1.35 0.75 -1.3 0.75 M-1.25 1.35 L-1.25 1.35 -1.2 1.3 -1.15 1.25 -1.1 1.25 -1.1 1.25 -1.05 1.3 -1.1 1.3 -1.05 1.3 -1.05 1.3 -1.0 1.3 -1.0 1.35 -0.95 1.35 -0.95 1.35 -1.0 1.4 -1.0 1.35 -1.0 1.4 -1.05 1.35 -1.05 1.4 -1.05 1.4 -1.0 1.45 -1.05 1.5 Q-1.1 1.5 -1.1 1.5 L-1.1 1.5 -1.15 1.45 -1.1 1.45 -1.15 1.45 -1.2 1.4 -1.2 1.45 -1.2 1.45 -1.25 1.4 -1.25 1.4 -1.2 1.4 -1.2 1.4 -1.2 1.4 -1.25 1.35 M-1.0 1.1 L-0.95 1.1 -0.95 1.1 -0.95 1.15 -1.0 1.1 M-0.5 1.1 L-0.5 1.1 -0.5 1.1 -0.5 1.1 M-0.95 1.05 L-0.95 1.05 -1.0 1.05 -0.95 1.0 -0.95 1.05 M-1.3 0.65 L-1.3 0.65 -1.3 0.65 -1.3 0.65 M-1.85 1.25 L-1.85 1.3 -1.85 1.25 -1.85 1.2 -1.85 1.25 M-2.05 1.1 L-2.05 1.1 -2.05 1.1 M-1.35 0.8 L-1.35 0.75 -1.35 0.75 -1.4 0.75 -1.4 0.75 -1.35 0.8 -1.35 0.8 M-1.1 1.4 L-1.1 1.4 -1.05 1.35 -1.05 1.35 -1.1 1.3 -1.1 1.4 -1.1 1.4 -1.1 1.45 -1.1 1.5 -1.1 1.5 -1.05 1.45 -1.1 1.45 -1.05 1.4 -1.05 1.4 -1.1 1.4 M-0.95 1.35 L-0.95 1.35 M-1.25 1.45 L-1.25 1.55 -1.2 1.5 -1.15 1.55 -1.15 1.55 -1.15 1.55 -1.2 1.55 -1.2 1.55 -1.2 1.55 -1.25 1.55 -1.2 1.55 -1.2 1.6 -1.25 1.6 -1.25 1.65 -1.3 1.7 -1.3 1.65 -1.25 1.65 -1.3 1.6 -1.3 1.6 -1.35 1.65 -1.35 1.6 -1.4 1.65 -1.4 1.6 -1.4 1.6 -1.35 1.6 -1.3 1.55 -1.3 1.5 -1.25 1.5 -1.25 1.5 -1.25 1.45 M-1.1 1.5 L-1.1 1.5 M-1.4 1.35 L-1.45 1.35 -1.45 1.3 -1.4 1.35 M-1.35 1.7 L-1.4 1.7 -1.35 1.65 -1.35 1.65 -1.3 1.7 -1.35 1.7 -1.3 1.7 -1.3 1.7 -1.3 1.7 -1.35 1.7 M-1.9 1.95 L-1.9 2.0 -1.95 2.0 -1.95 2.0 -1.9 1.95 M-1.4 1.6 L-1.4 1.65 -1.4 1.6 M-1.9 1.35 L-1.85 1.4 -1.9 1.45 -1.9 1.4 -1.9 1.4 -1.95 1.4 -1.95 1.4 -2.0 1.4 -2.0 1.4 -1.95 1.35 -1.95 1.35 -1.9 1.35 -1.9 1.35 -1.9 1.35 M-1.95 1.5 L-1.95 1.45 -1.9 1.45 -1.9 1.45 -1.9 1.45 -1.95 1.5 M-2.0 1.45 L-1.95 1.4 -1.95 1.45 -2.0 1.45 M-2.0 1.85 L-2.0 1.85 -2.0 1.85 -2.0 1.85 M-2.0 2.05 L-2.0 2.05 -1.95 2.1 -2.0 2.1 -2.0 2.1 -2.0 2.05 -2.05 2.05 -2.0 2.05 -2.0 2.05 M-2.05 2.0 L-2.05 2.05 -2.05 2.05 -2.05 2.0 M-2.05 2.05 L-2.05 2.1 -2.05 2.1 -2.0 2.1 -2.0 2.1 -2.05 2.1 -2.05 2.1 -2.05 2.1 -2.05 2.05 M-0.75 1.3 L-0.7 1.3 -0.7 1.35 -0.75 1.3 M-0.75 1.45 L-0.8 1.45 -0.75 1.45 M-0.8 1.35 L-0.8 1.35 -0.85 1.35 -0.8 1.3 -0.8 1.35 M-0.85 1.55 L-0.85 1.55 -0.85 1.55 M-0.85 1.65 L-0.85 1.65 -0.85 1.6 -0.85 1.65" fill="#312f2d" fill-rule="evenodd" stroke="none"/>
    <path d="M-0.65 1.4 L-0.6 1.45 -0.65 1.45 -0.6 1.45 -0.7 1.55 -0.7 1.5 -0.75 1.5 -0.7 1.45 -0.7 1.5 -0.65 1.45 -0.75 1.4 -0.75 1.35 -0.8 1.35 -0.8 1.3 -0.75 1.3 -0.75 1.3 -0.7 1.35 -0.7 1.3 -0.65 1.35 -0.65 1.4 -0.65 1.4 M-1.8 2.15 L-1.8 2.2 -1.8 2.2 -1.85 2.2 -1.9 2.2 -1.9 2.15 -1.85 2.2 -1.85 2.15 -1.8 2.2 -1.8 2.15 M-2.2 1.85 L-2.2 1.8 -2.15 1.75 -2.2 1.75 -2.15 1.75 -2.15 1.75 -2.1 1.75 -2.05 1.8 -2.05 1.8 -2.0 1.85 -1.95 1.85 -1.95 1.9 -2.0 1.9 -2.0 1.9 -2.05 1.85 -2.05 1.85 -2.05 1.85 -2.1 1.8 -2.15 1.8 -2.15 1.8 -2.15 1.85 -2.2 1.85 M-2.2 1.1 L-2.2 1.05 -2.15 1.05 -2.1 1.05 -2.05 1.1 -2.0 1.1 -2.0 1.15 -2.05 1.15 -2.05 1.15 -2.05 1.15 -2.1 1.1 -2.1 1.1 -2.15 1.1 -2.15 1.1 -2.2 1.1 M-1.65 0.65 L-1.7 0.6 -1.7 0.55 -1.65 0.6 -1.65 0.6 -1.6 0.55 -1.65 0.55 -1.6 0.55 -1.6 0.55 -1.55 0.55 -1.6 0.55 -1.6 0.6 -1.55 0.65 -1.6 0.65 -1.6 0.65 -1.65 0.65 -1.65 0.65 M-1.65 0.55 L-1.65 0.5 -1.6 0.5 -1.6 0.45 -1.55 0.45 -1.5 0.5 -1.5 0.5 -1.45 0.5 -1.4 0.55 -1.4 0.55 -1.45 0.55 -1.45 0.55 -1.5 0.55 -1.5 0.5 -1.55 0.55 -1.55 0.5 -1.55 0.5 -1.6 0.5 -1.65 0.55 -1.65 0.55 M-1.15 0.7 L-1.15 0.75 -1.05 0.75 -1.0 0.75 -1.0 0.8 -0.95 0.8 -0.95 0.85 -0.95 0.85 -1.0 0.8 -1.0 0.85 -1.0 0.8 -1.05 0.8 -1.05 0.8 -1.1 0.75 -1.1 0.8 -1.15 0.75 -1.15 0.7 M-0.8 1.0 L-0.8 1.0 -0.75 1.0 -0.7 0.95 Q-0.65 0.95 -0.65 1.0 L-0.6 1.0 -0.55 1.05 -0.55 1.1 -0.55 1.1 -0.6 1.1 -0.65 1.0 -0.65 1.0 -0.7 1.0 -0.65 1.0 -0.7 1.0 -0.7 1.0 -0.75 1.0 -0.75 1.0 -0.8 1.0 M-0.9 1.05 L-0.85 1.05 -0.9 1.05 -0.85 1.05 -0.85 1.05 -0.8 1.05 -0.8 1.1 -0.75 1.1 -0.7 1.1 -0.65 1.05 -0.65 1.1 -0.65 1.15 -0.7 1.15 -0.7 1.15 -0.75 1.15 -0.7 1.15 -0.7 1.15 -0.65 1.2 -0.7 1.2 -0.7 1.2 -0.75 1.25 -0.75 1.15 -0.8 1.15 -0.75 1.15 -0.75 1.15 -0.8 1.1 -0.85 1.05 -0.85 1.1 -0.85 1.15 -0.9 1.1 -0.9 1.1 -0.9 1.05 M-0.75 1.15 L-0.75 1.15 M-1.25 0.95 L-1.25 0.85 -1.25 0.85 -1.2 0.85 -1.2 0.85 -1.25 0.8 -1.25 0.8 -1.3 0.75 -1.3 0.75 -1.25 0.8 -1.25 0.75 -1.2 0.8 -1.15 0.75 -1.15 0.75 -1.15 0.8 -1.15 0.85 -1.2 0.85 -1.2 0.85 -1.2 0.85 -1.15 0.9 -1.15 0.9 -1.15 0.9 -1.2 0.95 -1.25 0.95 M-0.6 1.1 L-0.6 1.1 M-0.55 1.1 L-0.5 1.1 -0.55 1.1 -0.5 1.1 -0.55 1.1 -0.5 1.1 -0.45 1.1 -0.45 1.15 -0.5 1.15 -0.5 1.1 -0.5 1.1 -0.5 1.15 -0.55 1.1 M-0.9 1.25 L-1.0 1.15 -0.95 1.15 -0.9 1.15 -0.9 1.15 -0.85 1.15 -0.9 1.15 -0.9 1.2 -0.9 1.25 -0.9 1.25 -0.9 1.25 M-0.85 1.25 L-0.9 1.2 -0.85 1.2 -0.85 1.25 M-0.85 1.2 L-0.85 1.2 M-0.7 1.05 L-0.7 1.05 -0.75 1.05 -0.7 1.05 M-0.7 1.2 L-0.7 1.2 -0.7 1.2 M-0.5 1.1 L-0.5 1.1 M-0.55 1.3 L-0.55 1.2 -0.55 1.2 -0.5 1.15 -0.5 1.2 -0.5 1.2 -0.55 1.3 M-1.35 0.55 L-1.4 0.6 -1.4 0.55 -1.35 0.55 M-1.7 1.3 L-1.65 1.3 -1.65 1.3 -1.55 1.3 -1.55 1.3 -1.5 1.3 -1.45 1.3 -1.45 1.35 -1.4 1.35 -1.45 1.35 -1.45 1.4 -1.5 1.35 -1.55 1.35 -1.55 1.35 -1.6 1.35 -1.6 1.35 -1.65 1.35 -1.6 1.35 -1.6 1.4 -1.6 1.45 -1.65 1.45 -1.7 1.45 -1.75 1.45 -1.7 1.45 -1.65 1.5 -1.6 1.5 -1.65 1.55 -1.7 1.5 -1.7 1.55 -1.7 1.6 -1.75 1.55 -1.75 1.6 -1.8 1.55 -1.8 1.45 -1.8 1.45 -1.75 1.45 Q-1.75 1.45 -1.8 1.45 L-1.8 1.4 -1.85 1.4 -1.85 1.4 -1.9 1.35 -1.85 1.35 -1.85 1.35 -1.85 1.35 -1.8 1.35 -1.75 1.4 -1.75 1.4 -1.75 1.35 -1.7 1.35 -1.7 1.35 -1.7 1.4 -1.65 1.4 -1.7 1.4 -1.65 1.35 -1.65 1.35 -1.7 1.3 -1.7 1.3 -1.75 1.3 -1.7 1.3 M-2.05 1.1 L-2.05 1.1 M-1.35 0.75 L-1.35 0.7 -1.3 0.75 -1.35 0.75 -1.35 0.75 M-1.2 0.75 L-1.25 0.75 -1.25 0.75 -1.2 0.75 M-1.15 0.75 L-1.15 0.75 -1.15 0.75 M-1.35 1.35 L-1.4 1.4 -1.45 1.4 -1.4 1.35 -1.4 1.35 -1.35 1.35 M-1.55 1.3 L-1.55 1.3 M-1.95 2.1 L-1.95 2.1 -1.9 2.1 -1.9 2.15 -1.95 2.1 M-1.85 1.4 L-1.85 1.4 M-1.6 1.4 L-1.6 1.4 M-1.65 1.35 L-1.65 1.35 M-1.9 1.35 L-1.9 1.35 -1.9 1.35 M-2.0 1.85 L-2.0 1.85 -2.0 1.85 M-1.85 2.1 L-1.85 2.15 -1.85 2.1 M-0.75 1.3 L-0.75 1.3 M-2.15 1.8 L-2.15 1.8 -2.15 1.75 -2.15 1.8" fill="#7b7772" fill-rule="evenodd" stroke="none"/>
    <path d="M-1.1 1.65 L-1.15 1.65 -1.15 1.6 -1.1 1.65 M-2.2 1.95 L-2.2 1.9 -2.15 1.95 -2.15 1.95 -2.15 2.0 -2.2 1.95 M-2.2 1.8 L-2.2 1.75 -2.15 1.75 -2.2 1.8 M-2.2 1.35 L-2.2 1.35 -2.15 1.35 -2.15 1.35 -2.2 1.35 M-2.2 1.15 L-2.2 1.1 -2.15 1.1 -2.15 1.1 -2.1 1.1 -2.1 1.1 -2.05 1.15 -2.05 1.15 -2.05 1.15 -2.0 1.15 -2.0 1.1 -1.95 1.15 -1.95 1.15 -2.0 1.2 -2.05 1.2 -2.1 1.15 -2.1 1.15 -2.15 1.15 -2.15 1.15 -2.15 1.15 -2.2 1.15 M-1.7 0.55 L-1.65 0.55 -1.65 0.55 -1.6 0.5 -1.55 0.5 -1.55 0.5 -1.55 0.55 -1.5 0.5 -1.5 0.55 -1.45 0.55 -1.45 0.55 -1.4 0.55 -1.4 0.6 -1.35 0.55 -1.35 0.6 -1.4 0.6 -1.4 0.6 -1.45 0.55 -1.45 0.55 -1.5 0.6 -1.5 0.55 -1.55 0.55 -1.55 0.55 -1.6 0.55 -1.6 0.55 -1.65 0.55 -1.6 0.55 -1.65 0.6 -1.65 0.6 -1.7 0.55 M-0.95 0.85 L-0.9 0.85 -0.95 0.85 -0.95 0.85 -0.95 0.85 -1.0 0.85 -1.0 0.8 -0.95 0.85 M-1.15 0.75 L-1.1 0.8 -1.1 0.75 -1.05 0.8 -1.05 0.8 -1.0 0.8 -1.0 0.85 -1.0 0.85 -1.05 0.8 -1.05 0.8 -1.05 0.85 -1.05 0.85 -1.1 0.8 -1.15 0.8 -1.15 0.75 -1.2 0.8 -1.25 0.75 -1.25 0.8 -1.3 0.75 -1.3 0.75 -1.35 0.7 -1.35 0.75 -1.35 0.7 -1.35 0.7 -1.4 0.7 -1.35 0.65 -1.35 0.65 -1.3 0.7 -1.25 0.7 -1.25 0.7 -1.25 0.7 -1.2 0.7 -1.25 0.7 -1.2 0.7 -1.2 0.75 -1.15 0.75 -1.15 0.75 M-0.9 1.1 L-0.9 1.1 -0.85 1.15 -0.85 1.1 -0.85 1.05 -0.8 1.1 -0.8 1.05 -0.85 1.05 -0.85 1.05 -0.9 1.05 -0.9 1.05 -0.9 1.0 -0.9 1.0 -0.85 1.0 -0.8 1.0 -0.8 1.0 -0.75 1.0 -0.8 1.0 -0.75 1.0 -0.75 1.0 -0.7 1.0 -0.7 1.0 -0.65 1.0 -0.7 1.0 -0.65 1.0 -0.65 1.0 -0.6 1.1 -0.55 1.1 -0.55 1.1 -0.5 1.15 -0.5 1.1 -0.5 1.15 -0.45 1.15 -0.5 1.15 -0.5 1.15 -0.55 1.2 -0.55 1.2 -0.55 1.3 -0.6 1.25 -0.6 1.25 -0.55 1.25 -0.55 1.25 -0.6 1.2 -0.6 1.15 -0.6 1.15 -0.6 1.1 -0.6 1.1 -0.6 1.1 -0.6 1.1 -0.65 1.1 -0.65 1.05 -0.7 1.1 -0.75 1.1 -0.8 1.1 -0.85 1.15 -0.85 1.2 -0.9 1.2 -0.9 1.15 -0.85 1.15 -0.9 1.15 -0.9 1.15 -0.95 1.15 -1.0 1.15 -0.9 1.25 -0.85 1.25 -0.9 1.25 -0.9 1.25 -0.95 1.25 -1.0 1.15 -1.05 1.2 -1.05 1.15 -1.0 1.1 -0.95 1.15 -0.95 1.1 -0.9 1.1 M-0.75 1.15 L-0.75 1.15 -0.75 1.15 M-1.15 1.0 L-1.2 1.0 -1.25 0.95 -1.2 0.95 -1.15 0.9 -1.15 0.9 -1.1 0.95 -1.1 0.95 -1.1 0.95 -1.05 0.95 -1.1 1.0 -1.1 1.0 -1.15 0.95 -1.15 1.0 M-1.25 0.85 L-1.25 0.8 -1.2 0.85 -1.2 0.85 -1.25 0.85 -1.25 0.85 M-1.55 0.75 L-1.55 0.75 -1.6 0.7 -1.6 0.7 -1.65 0.65 -1.6 0.65 -1.6 0.65 -1.55 0.65 -1.55 0.65 -1.5 0.65 -1.55 0.7 -1.5 0.7 -1.55 0.7 -1.55 0.7 -1.55 0.75 M-1.25 1.45 L-1.25 1.4 -1.25 1.35 -1.2 1.4 -1.2 1.4 -1.2 1.4 -1.25 1.4 -1.25 1.4 -1.2 1.45 -1.2 1.45 -1.2 1.4 -1.15 1.45 -1.1 1.45 -1.15 1.45 -1.1 1.5 -1.1 1.5 -1.1 1.5 -1.15 1.55 -1.15 1.55 -1.1 1.6 -1.15 1.6 -1.15 1.6 -1.15 1.65 -1.15 1.65 -1.2 1.6 -1.2 1.6 -1.2 1.55 -1.25 1.55 -1.25 1.45 M-1.15 1.25 L-1.1 1.2 -1.1 1.2 -1.05 1.25 -1.05 1.3 -1.0 1.25 -1.0 1.3 -0.95 1.3 -0.95 1.3 -0.9 1.35 -0.9 1.35 -0.95 1.35 -0.95 1.35 -0.95 1.35 -1.0 1.35 -1.0 1.3 -1.05 1.3 -1.05 1.3 -1.1 1.3 -1.05 1.3 -1.1 1.25 -1.1 1.25 -1.15 1.25 M-0.85 1.25 L-0.85 1.2 -0.8 1.25 -0.75 1.3 -0.75 1.3 -0.8 1.3 -0.85 1.35 -0.8 1.35 -0.8 1.35 -0.75 1.35 -0.75 1.4 -0.65 1.45 -0.7 1.5 -0.7 1.45 -0.75 1.5 -0.75 1.5 -0.8 1.45 -0.75 1.45 -0.8 1.45 -0.85 1.35 -0.85 1.35 -0.85 1.3 -0.9 1.3 -0.85 1.3 -0.85 1.3 -0.85 1.25 M-0.75 1.25 L-0.7 1.2 -0.7 1.2 -0.65 1.2 -0.65 1.2 -0.6 1.2 -0.6 1.25 -0.65 1.25 -0.65 1.3 -0.7 1.25 -0.75 1.25 M-0.7 1.05 L-0.75 1.05 -0.7 1.05 -0.7 1.05 -0.75 1.05 -0.75 1.0 -0.75 1.05 -0.7 1.05 -0.65 1.05 -0.7 1.05 M-0.7 1.2 L-0.7 1.2 -0.7 1.2 M-0.55 1.3 L-0.55 1.3 M-0.5 1.15 L-0.5 1.15 M-0.65 1.1 L-0.6 1.1 -0.65 1.1 M-1.55 0.55 L-1.55 0.55 M-1.75 1.3 L-1.75 1.3 -1.75 1.3 -1.75 1.3 -1.75 1.3 -1.7 1.3 -1.7 1.3 -1.65 1.35 -1.65 1.35 -1.65 1.35 -1.65 1.35 -1.65 1.35 -1.7 1.4 -1.65 1.4 -1.7 1.4 -1.7 1.35 -1.7 1.35 -1.75 1.35 -1.75 1.4 -1.75 1.4 -1.8 1.35 -1.85 1.35 -1.85 1.35 -1.85 1.35 -1.9 1.35 -1.95 1.35 -1.9 1.35 -1.9 1.35 -1.9 1.35 -1.95 1.35 -1.95 1.3 -2.0 1.3 -2.0 1.3 -1.95 1.25 -1.95 1.25 -1.9 1.3 -1.9 1.25 -1.85 1.3 -1.85 1.3 -1.8 1.3 -1.8 1.3 -1.75 1.3 M-1.2 0.75 L-1.25 0.75 -1.25 0.75 -1.2 0.75 M-0.9 1.45 L-0.9 1.45 -0.95 1.45 -0.95 1.45 -0.9 1.45 -0.9 1.45 M-1.1 1.4 L-1.1 1.3 -1.05 1.35 -1.05 1.35 -1.1 1.4 -1.1 1.4 -1.1 1.4 -1.05 1.4 -1.05 1.4 -1.05 1.35 -1.0 1.4 -1.0 1.35 -1.0 1.4 -0.95 1.4 -1.0 1.45 -1.05 1.4 -1.05 1.4 -1.1 1.45 -1.05 1.45 -1.1 1.5 -1.1 1.5 -1.1 1.45 -1.1 1.4 M-1.25 1.55 L-1.2 1.55 -1.2 1.55 -1.2 1.55 -1.15 1.55 -1.15 1.55 -1.15 1.55 -1.2 1.5 -1.25 1.55 M-1.2 1.6 L-1.2 1.6 M-1.1 1.5 L-1.1 1.5 -1.1 1.5 M-1.35 1.35 L-1.35 1.35 -1.35 1.4 -1.4 1.4 -1.4 1.45 -1.45 1.4 -1.45 1.35 -1.4 1.35 -1.45 1.4 -1.4 1.4 -1.35 1.35 M-1.6 1.35 L-1.6 1.35 -1.55 1.35 -1.55 1.35 -1.5 1.35 -1.45 1.4 -1.5 1.4 -1.5 1.35 -1.55 1.4 -1.5 1.4 -1.55 1.4 -1.55 1.4 -1.6 1.4 -1.6 1.35 M-1.6 1.55 L-1.55 1.55 -1.55 1.6 -1.55 1.6 -1.6 1.6 -1.6 1.65 -1.6 1.65 -1.65 1.6 -1.75 1.6 -1.75 1.55 -1.7 1.6 -1.7 1.55 -1.7 1.5 -1.65 1.55 -1.6 1.5 -1.6 1.55 -1.6 1.55 M-1.85 2.1 L-1.8 2.1 -1.8 2.15 -1.8 2.2 -1.85 2.15 -1.85 2.2 -1.9 2.15 -1.9 2.1 -1.95 2.1 -1.95 2.1 -2.0 2.05 -2.0 2.05 -1.95 2.05 -2.0 2.0 -2.0 2.0 -1.95 2.05 -1.95 2.0 -1.9 2.05 -1.85 2.1 -1.85 2.1 -1.85 2.15 -1.85 2.1 -1.85 2.1 M-1.8 1.4 L-1.8 1.45 Q-1.75 1.45 -1.75 1.45 L-1.8 1.45 -1.8 1.45 -1.8 1.4 M-1.75 1.6 L-1.75 1.6 M-2.0 1.35 L-1.95 1.3 -1.95 1.35 -2.0 1.35 M-1.95 1.35 L-1.95 1.35 M-2.05 1.85 L-2.05 1.85 -2.0 1.9 -2.0 1.9 -1.95 1.9 -2.0 1.9 -2.0 1.9 -2.05 1.9 -2.0 1.9 -2.05 1.9 -2.05 1.85 -2.1 1.85 -2.05 1.85 -2.1 1.9 -2.1 1.85 -2.15 1.85 -2.15 1.8 -2.15 1.8 -2.15 1.8 -2.1 1.8 -2.05 1.85 M-1.95 2.1 L-1.95 2.1 M-0.65 1.3 L-0.65 1.3 M-0.85 1.65 L-0.8 1.6 -0.85 1.6 -0.8 1.6 -0.8 1.6 -0.8 1.65 -0.85 1.65 -0.8 1.65 -0.8 1.65 -0.85 1.65 -0.85 1.65 -0.85 1.6 -0.85 1.65 M-0.85 1.55 L-0.85 1.55 -0.85 1.55 M-0.9 1.25 L-0.9 1.25 M-2.15 1.35 L-2.15 1.35 -2.15 1.35 M-2.2 1.3 L-2.15 1.3 -2.2 1.3" fill="#585652" fill-rule="evenodd" stroke="none"/>
    <path d="M-0.65 1.4 L-0.65 1.4 -0.65 1.4 -0.65 1.35 -0.7 1.3 -0.65 1.3 -0.65 1.25 -0.6 1.25 -0.6 1.2 -0.6 1.15 -0.6 1.15 -0.6 1.15 -0.6 1.2 -0.55 1.25 -0.55 1.25 -0.6 1.25 -0.6 1.25 -0.55 1.3 -0.55 1.3 -0.5 1.3 -0.5 1.35 -0.5 1.35 -0.45 1.35 -0.5 1.3 -0.45 1.3 -0.45 1.3 -0.4 1.3 -0.45 1.35 -0.5 1.35 -0.55 1.35 -0.6 1.35 -0.6 1.35 -0.65 1.4 M-2.2 2.05 L-2.2 1.95 -2.15 2.0 -2.15 1.95 -2.15 2.0 -2.1 2.0 -2.05 2.0 -2.0 1.95 -2.0 1.95 -2.05 1.9 -2.1 1.9 -2.05 1.85 -2.1 1.85 -2.05 1.85 -2.05 1.9 -2.0 1.9 -2.05 1.9 -2.0 1.9 -2.0 1.9 -1.95 1.9 -1.95 1.95 -1.9 1.95 -1.95 2.0 -1.95 2.0 -1.9 2.0 -1.85 2.05 -1.85 2.1 -1.85 2.1 -1.9 2.05 -1.95 2.0 -1.95 2.05 -2.0 2.0 -2.0 2.0 -1.95 2.05 -2.0 2.05 -2.05 2.0 -2.05 2.05 -2.05 2.05 -2.0 2.05 -2.0 2.1 -2.0 2.1 -2.0 2.1 -2.05 2.1 -2.05 2.1 -2.05 2.05 -2.05 2.1 -2.05 2.1 -2.1 2.1 -2.15 2.1 -2.2 2.05 M-2.2 1.45 L-2.2 1.35 -2.2 1.3 -2.15 1.3 -2.15 1.35 -2.15 1.35 -2.05 1.35 -2.0 1.35 -2.0 1.4 -2.0 1.4 -1.95 1.4 -1.95 1.4 -1.9 1.4 -1.9 1.4 -1.9 1.45 -1.9 1.45 -1.95 1.45 -1.95 1.5 -2.0 1.5 -2.1 1.45 -2.1 1.45 -2.15 1.45 -2.2 1.45 M-0.95 0.85 L-0.9 0.85 -0.9 0.85 -0.95 0.85 -0.9 0.85 -0.85 0.9 -0.85 0.9 -0.9 0.95 -0.9 0.95 -0.95 0.95 -0.9 0.95 -0.9 0.95 -0.85 0.95 -0.8 1.0 -0.8 1.0 -0.8 1.0 -0.85 1.0 -0.9 1.0 -0.9 1.0 -0.9 1.05 -0.95 1.05 -0.95 1.1 -1.0 1.05 -1.05 1.05 -1.1 1.0 -1.15 1.0 -1.15 0.95 -1.1 1.0 -1.1 1.0 -1.05 0.95 -1.05 1.0 -1.0 1.0 -1.0 1.0 -0.95 1.0 -0.95 1.0 -0.9 1.0 -0.95 0.95 -0.95 0.9 -1.0 0.85 -1.0 0.85 -0.95 0.85 -0.95 0.85 M-1.0 0.85 L-1.0 0.85 -1.05 0.85 -1.05 0.8 -1.05 0.8 -1.0 0.85 M-1.35 0.8 L-1.35 0.8 -1.35 0.8 -1.4 0.75 -1.4 0.75 -1.35 0.75 -1.35 0.75 -1.35 0.8 -1.4 0.8 -1.4 0.8 -1.45 0.8 -1.55 0.75 -1.55 0.75 -1.55 0.7 -1.55 0.7 -1.5 0.7 -1.55 0.7 -1.5 0.65 -1.5 0.7 -1.45 0.7 -1.4 0.75 -1.4 0.75 -1.45 0.8 -1.4 0.8 -1.35 0.8 M-1.35 1.4 L-1.3 1.4 -1.25 1.4 -1.25 1.45 -1.25 1.5 -1.25 1.5 -1.3 1.5 -1.3 1.55 -1.35 1.6 -1.35 1.55 -1.35 1.5 -1.5 1.45 -1.5 1.4 -1.55 1.4 -1.5 1.35 -1.5 1.4 -1.45 1.4 -1.4 1.45 -1.4 1.4 -1.35 1.4 -1.35 1.35 -1.35 1.4 M-0.75 1.0 L-0.8 1.0 -0.75 1.0 M-0.6 1.1 L-0.6 1.1 -0.6 1.1 -0.6 1.15 -0.6 1.1 M-0.95 1.05 L-0.95 1.0 -1.0 1.05 -0.95 1.05 -0.95 1.05 M-0.9 1.0 L-0.9 1.0 -0.9 1.0 -0.9 1.05 -0.9 1.0 M-0.5 1.15 L-0.5 1.15 -0.5 1.15 -0.45 1.15 -0.4 1.15 -0.4 1.15 -0.4 1.2 -0.4 1.25 -0.4 1.25 -0.45 1.25 -0.45 1.25 -0.45 1.2 -0.5 1.2 -0.5 1.15 M-1.5 0.6 L-1.45 0.55 -1.45 0.55 -1.4 0.6 -1.4 0.6 -1.35 0.6 -1.3 0.6 -1.3 0.65 -1.35 0.65 -1.35 0.65 -1.4 0.65 -1.35 0.65 -1.35 0.65 -1.3 0.65 -1.3 0.65 -1.25 0.7 -1.25 0.7 -1.25 0.7 -1.3 0.7 -1.35 0.65 -1.35 0.65 -1.4 0.7 -1.35 0.7 -1.35 0.7 -1.4 0.7 -1.4 0.65 -1.4 0.65 -1.45 0.6 -1.5 0.6 M-1.95 1.15 L-1.9 1.15 -1.85 1.15 -1.85 1.2 -1.85 1.25 -1.9 1.25 Q-1.95 1.2 -2.0 1.2 L-2.0 1.25 -2.0 1.2 Q-1.95 1.2 -1.9 1.25 L-1.85 1.25 -1.85 1.3 -1.8 1.3 -1.75 1.3 -1.75 1.3 -1.8 1.3 -1.8 1.3 -1.85 1.3 -1.85 1.3 -1.9 1.25 -1.9 1.3 -1.95 1.25 -1.95 1.25 -2.0 1.3 -2.0 1.3 -1.95 1.3 -1.95 1.35 -1.95 1.3 -2.0 1.35 -2.0 1.3 -2.0 1.3 -2.05 1.25 -2.0 1.25 -2.05 1.2 -2.0 1.2 -1.95 1.15 -1.95 1.15 M-2.15 1.15 L-2.15 1.15 -2.1 1.15 -2.1 1.15 -2.05 1.2 -2.1 1.2 -2.1 1.2 -2.15 1.15 M-2.1 1.2 L-2.1 1.2 M-1.85 1.2 L-1.85 1.2 M-1.3 0.65 L-1.3 0.65 M-1.05 0.95 L-1.1 0.95 -1.1 0.95 -1.05 0.95 M-1.55 1.4 L-1.5 1.4 -1.55 1.4 M-1.55 1.55 L-1.5 1.6 -1.45 1.6 -1.4 1.6 -1.4 1.65 -1.35 1.6 -1.35 1.65 -1.3 1.6 -1.3 1.6 -1.25 1.65 -1.3 1.65 -1.3 1.7 -1.35 1.65 -1.35 1.65 -1.4 1.7 -1.35 1.7 -1.3 1.7 -1.3 1.7 -1.35 1.7 -1.4 1.7 -1.45 1.7 -1.45 1.7 -1.55 1.7 -1.6 1.65 -1.6 1.65 -1.6 1.6 -1.55 1.6 -1.55 1.6 -1.55 1.55 M-1.4 1.6 L-1.4 1.65 -1.4 1.6 M-2.2 1.35 L-2.15 1.35 -2.15 1.35 -2.2 1.35 M-1.9 1.45 L-1.9 1.45 M-2.0 1.45 L-1.95 1.45 -1.95 1.4 -2.0 1.45 M-2.05 1.85 L-2.05 1.85 M-1.95 2.0 L-2.0 1.95 -2.0 1.95 -2.0 1.95 -1.95 2.0 M-2.0 2.05 L-2.0 2.05 M-1.85 2.1 L-1.85 2.1 M-0.55 1.3 L-0.6 1.35 -0.55 1.3 M-0.65 1.3 L-0.65 1.3 -0.65 1.25 -0.65 1.3" fill="#3f3d3a" fill-rule="evenodd" stroke="none"/>
    <path d="M-0.9 1.35 L-0.9 1.4 -0.9 1.45 -0.9 1.45 -0.9 1.45 -0.95 1.45 -0.95 1.5 -1.0 1.5 -1.05 1.55 -1.1 1.5 Q-1.1 1.5 -1.05 1.5 L-1.0 1.45 -0.95 1.4 -0.95 1.35 -0.95 1.35 -0.95 1.35 -0.9 1.35 M-1.1 1.5 L-1.1 1.5" fill="#0e0805" fill-rule="evenodd" stroke="none"/>
    <path d="M1.55 -1.85 Q1.55 -1.8 1.5 -1.8 L1.5 -1.9 1.55 -1.9 1.55 -1.85 M1.85 -1.85 L1.75 -2.0 1.6 -2.0 1.55 -2.0 1.45 -1.95 1.45 -2.05 1.4 -2.0 Q1.35 -1.95 1.3 -2.0 L1.3 -2.0 1.2 -2.0 1.15 -1.95 1.05 -1.95 Q1.05 -1.95 1.0 -1.95 L1.05 -2.1 1.1 -2.2 M1.7 -1.85 L1.7 -1.75 1.65 -1.75 Q1.6 -1.75 1.6 -1.75 L1.65 -1.8 1.7 -1.85 M1.75 -1.55 L1.9 -1.65 1.85 -1.7 1.85 -1.8 1.85 -1.85 1.85 -1.85 M0.9 -2.15 L0.85 -2.1 Q0.8 -2.05 0.8 -1.95 L0.8 -1.85 Q0.75 -1.85 0.75 -1.85 0.75 -1.8 0.8 -1.8 L0.85 -1.75 0.85 -1.7 0.85 -1.65 0.9 -1.65 0.9 -1.65 Q0.9 -1.65 0.95 -1.65 L0.95 -1.65 1.0 -1.6 1.0 -1.65 1.05 -1.65 1.05 -1.6 1.1 -1.65 1.15 -1.65 1.15 -1.55 1.2 -1.55 1.15 -1.55 1.05 -1.55 1.1 -1.55 1.1 -1.5 1.1 -1.5 1.05 -1.4 1.0 -1.35 1.0 -1.35 0.95 -1.3 0.95 -1.25 0.9 -1.25 0.85 -1.2 0.85 -1.25 Q0.8 -1.25 0.8 -1.2 L0.75 -1.15 0.75 -1.1 0.65 -1.05 0.65 -1.0 0.6 -1.05 0.55 -1.0 0.55 -0.95 0.5 -0.9 0.45 -0.85 Q0.45 -0.8 0.4 -0.8 L0.35 -0.8 0.3 -0.75 0.25 -0.7 0.2 -0.7 0.15 -0.7 0.2 -0.8 0.2 -0.85 0.2 -0.95 0.2 -1.0 0.15 -1.0 0.15 -1.05 0.15 -1.1 0.1 -1.1 0.05 -1.0 0.0 -0.95 0.0 -1.1 0.0 -1.1 -0.05 -1.05 -0.1 -1.05 -0.15 -1.0 -0.2 -0.95 -0.2 -0.95 -0.25 -0.9 -0.3 -0.9 -0.3 -0.9 -0.3 -0.9 -0.3 -0.9 -0.35 -0.9 -0.35 -0.85 -0.3 -0.8 -0.35 -0.8 -0.4 -0.8 -0.4 -0.8 -0.45 -0.8 -0.5 -0.85 -0.5 -0.85 -0.55 -0.9 -0.55 -1.0 -0.6 -1.1 -0.6 -1.15 -0.55 -1.3 -0.55 -1.35 -0.6 -1.35 -0.65 -1.25 -0.65 -1.2 -0.7 -1.15 -0.75 -1.1 -0.75 -1.0 -0.75 -0.85 -0.7 -0.7 -0.75 -0.75 -0.8 -0.8 -0.8 -0.8 M0.75 -0.6 L0.8 -0.65 0.9 -0.8 0.95 -0.85 Q0.95 -0.9 1.0 -0.95 L1.1 -1.0 1.2 -1.05 1.2 -1.05 1.25 -1.15 1.3 -1.25 1.3 -1.2 1.4 -1.25 1.5 -1.3 1.55 -1.35 1.6 -1.25 1.6 -1.15 1.65 -1.1 1.6 -1.0 1.65 -0.9 1.55 -0.65 Q1.25 -0.35 1.15 -0.4 1.1 -0.4 1.1 -0.45 L1.05 -0.5 1.0 -0.5 0.95 -0.45 1.0 -0.55 Q0.9 -0.5 0.85 -0.55 L0.8 -0.55 0.8 -0.55 0.75 -0.55 0.75 -0.6 M2.0 -1.05 L2.0 -1.15 2.05 -1.15 2.2 -1.25 2.1 -1.25 2.05 -1.3 2.0 -1.3 2.0 -1.3 1.95 -1.35 2.0 -1.4 2.05 -1.4 2.1 -1.45 2.15 -1.55 1.95 -1.5 1.95 -1.5 Q1.8 -1.45 1.8 -1.5 L1.7 -1.55 1.75 -1.55 M0.9 -2.2 L0.9 -2.15 M0.2 -0.65 L0.35 -0.6 0.3 -0.6 0.2 -0.55 0.15 -0.6 0.15 -0.6 0.2 -0.65 0.2 -0.65 M0.6 -0.15 L0.6 -0.25 0.65 -0.3 0.7 -0.25 Q0.75 -0.25 0.7 -0.15 L0.7 -0.1 0.65 -0.1 0.65 0.0 0.7 -0.05 0.75 -0.05 0.8 -0.15 0.85 -0.1 0.85 -0.05 0.85 0.0 0.95 -0.15 Q1.0 -0.2 1.05 -0.2 L1.1 -0.1 1.1 -0.1 1.2 -0.1 1.25 -0.1 1.25 -0.25 1.3 -0.25 1.3 -0.25 Q1.35 -0.3 1.35 -0.25 L1.4 -0.2 1.45 -0.15 1.5 -0.15 1.5 -0.2 1.55 -0.2 1.55 -0.3 1.55 -0.35 1.6 -0.4 1.6 -0.4 1.65 -0.4 1.7 -0.4 1.7 -0.35 1.75 -0.3 1.75 -0.4 1.8 -0.5 1.75 -0.55 1.8 -0.6 1.8 -0.65 1.85 -0.65 1.9 -0.65 2.0 -0.6 2.0 -0.65 1.95 -0.75 1.95 -0.8 1.95 -0.9 2.0 -0.9 2.15 -0.95 2.1 -0.95 2.05 -1.05 2.0 -1.05 M0.6 -0.1 L0.6 -0.1 0.7 0.1 0.8 0.2 0.85 0.25 0.85 0.3 Q0.75 0.25 0.7 0.25 L0.65 0.3 0.65 0.35 0.7 0.35 0.75 0.4 0.8 0.45 0.85 0.45 0.85 0.5 0.95 0.5 1.05 0.55 1.1 0.55 1.25 0.5 1.3 0.5 1.3 0.55 1.2 0.6 1.15 0.65 1.1 0.65 1.05 0.7 1.0 0.65 0.95 0.7 0.85 0.7 0.8 0.7 0.65 0.65 0.6 0.6 0.5 0.65 0.5 0.6 0.45 0.6 0.4 0.6 0.45 0.65 0.35 0.6 0.3 0.65 0.3 0.7 0.45 0.8 0.5 0.85 0.55 0.85 0.55 0.9 0.9 1.1 0.95 1.1 1.05 1.15 1.1 1.15 1.15 1.2 1.6 1.3 1.4 1.4 1.3 1.45 1.2 1.45 1.05 1.45 1.0 1.45 0.85 1.45 0.65 1.35 0.45 1.3 0.05 1.05 0.05 1.0 -0.1 0.95 -0.15 0.9 -0.15 1.0 -0.1 1.0 -0.05 1.05 0.05 1.15 0.05 1.2 0.1 1.2 0.2 1.3 0.4 1.4 0.45 1.4 Q0.5 1.45 0.55 1.45 L0.7 1.45 0.5 1.5 0.4 1.5 0.35 1.5 -0.1 1.35 -0.15 1.35 -0.2 1.35 -0.25 1.3 -0.3 1.3 -0.35 1.25 -0.35 1.3 -0.4 1.35 -0.45 1.35 -0.5 1.35 -0.5 1.45 -0.6 1.45 -0.6 1.4 -0.65 1.4 -0.65 1.4 -0.6 1.45 -0.65 1.45 -0.6 1.45 -0.7 1.55 -0.7 1.55 -0.7 1.6 -0.65 1.6 -0.6 1.65 -0.55 1.7 -0.5 1.75 -0.3 1.85 -0.55 1.8 -0.6 1.8 -0.6 1.8 -0.85 1.7 -0.85 1.65 -0.9 1.7 -0.9 1.7 -1.0 1.7 -1.0 1.7 -1.05 1.7 -1.1 1.65 -1.15 1.65 -1.15 1.8 -1.25 2.0 -1.3 2.0 -1.4 2.0 -1.5 2.0 -1.45 2.05 -1.45 2.05 -1.35 2.15 -1.3 2.15 -1.3 2.2 M-1.4 2.2 L-1.55 2.1 Q-1.6 2.1 -1.65 2.05 L-1.65 2.05 -1.65 2.05 -1.75 2.1 -1.8 2.15 -1.8 2.2 M-2.2 1.05 L-2.15 1.05 -2.1 1.05 -1.75 0.7 -1.65 0.65 -1.7 0.6 -1.7 0.55 -1.65 0.55 -1.65 0.5 -1.6 0.5 -1.6 0.45 -1.55 0.45 -1.5 0.5 -1.5 0.5 -1.45 0.45 -1.25 0.3 -1.1 0.15 -1.1 0.1 -1.05 0.05 Q-1.0 0.0 -1.0 -0.05 L-1.05 -0.05 -1.1 -0.1 -1.0 -0.15 -0.9 -0.2 -1.0 -0.3 -1.0 -0.35 -1.05 -0.35 -1.15 -0.45 -1.15 -0.5 -1.1 -0.5 Q-1.05 -0.5 -1.05 -0.55 L-1.05 -0.6 -1.05 -0.75 -1.05 -0.8 -1.0 -0.85 -1.0 -0.9 -0.95 -1.05 -0.95 -0.85 -0.95 -0.8 -0.9 -0.65 -0.9 -0.65 -0.9 -0.6 Q-0.85 -0.65 -0.8 -0.7 L-0.85 -0.75 -0.9 -0.75 -0.9 -0.8 -0.85 -0.85 M0.6 -0.15 L0.6 -0.1 M-1.15 0.7 L-1.15 0.75 -1.05 0.75 -1.0 0.75 -1.0 0.8 -0.95 0.8 -0.95 0.85 -0.9 0.85 -0.9 0.85 -0.85 0.9 -0.85 0.9 -0.85 0.95 -0.9 0.95 -0.9 0.95 -0.95 0.95 -1.0 1.0 -1.0 1.0 -1.05 1.0 -1.05 0.95 -1.1 0.95 -1.1 0.95 -1.15 0.9 -1.15 0.9 -1.2 0.85 -1.2 0.85 -1.15 0.85 -1.15 0.8 -1.15 0.75 -1.15 0.75 -1.15 0.7 M-1.0 0.85 L-1.0 0.85 -0.95 0.9 -0.95 0.95 -0.9 1.0 -0.9 1.0 -0.9 1.05 -0.9 1.1 -0.95 1.1 -1.0 1.05 -1.05 1.05 -1.1 1.0 -1.15 1.0 -1.2 1.0 -1.25 0.95 -1.25 0.85 -1.25 0.8 -1.25 0.8 -1.3 0.75 -1.35 0.8 -1.35 0.8 -1.35 0.8 -1.4 0.8 -1.4 0.8 -1.45 0.8 -1.55 0.75 -1.55 0.75 -1.55 0.75 -1.6 0.7 -1.6 0.7 -1.65 0.65 -1.65 0.65 M-0.8 1.0 L-0.8 1.0 -0.85 0.95 M-0.55 1.1 L-0.55 1.05 -0.6 1.0 -0.65 1.0 Q-0.65 0.95 -0.7 0.95 L-0.75 1.0 -0.8 1.0 -0.75 1.0 -0.75 1.05 -0.7 1.05 -0.65 1.05 -0.65 1.1 -0.65 1.15 -0.7 1.15 -0.7 1.15 -0.75 1.15 -0.75 1.15 -0.75 1.25 -0.7 1.25 -0.65 1.3 -0.65 1.3 -0.7 1.3 -0.75 1.3 -0.75 1.3 -0.8 1.25 -0.85 1.2 -0.85 1.15 -0.8 1.1 -0.75 1.15 -0.8 1.15 -0.75 1.15 M-0.85 1.05 L-0.9 1.05 -0.9 1.05 -0.9 1.05 -0.95 1.05 -0.95 1.1 -0.95 1.1 -1.0 1.1 -1.05 1.15 -1.1 1.2 -1.15 1.25 -1.2 1.3 -1.25 1.35 -1.25 1.35 -1.25 1.4 -1.25 1.45 -1.25 1.4 -1.3 1.4 -1.35 1.4 -1.35 1.35 -1.35 1.35 -1.4 1.35 -1.4 1.35 -1.45 1.3 -1.5 1.3 -1.55 1.3 -1.55 1.3 -1.55 1.3 -1.65 1.3 -1.65 1.3 -1.7 1.3 -1.7 1.3 -1.65 1.35 -1.65 1.35 -1.6 1.35 -1.6 1.4 -1.6 1.4 -1.6 1.45 -1.65 1.45 -1.7 1.45 -1.65 1.5 -1.6 1.5 -1.6 1.55 -1.55 1.55 -1.5 1.6 -1.45 1.6 -1.4 1.6 -1.4 1.6 -1.35 1.6 -1.35 1.55 -1.35 1.5 -1.5 1.45 -1.5 1.4 -1.55 1.4 -1.55 1.4 -1.6 1.4 M-0.85 1.05 L-0.8 1.1 M-0.55 1.1 L-0.5 1.1 -0.55 1.1 -0.5 1.1 -0.5 1.1 -0.45 1.1 -0.45 1.15 -0.4 1.15 -0.4 1.15 -0.4 1.2 -0.35 1.25 M-0.85 1.2 L-0.85 1.2 M-0.65 1.2 L-0.7 1.15 M-0.65 1.2 L-0.65 1.2 -0.6 1.2 -0.6 1.25 -0.6 1.2 -0.6 1.15 -0.6 1.15 -0.6 1.1 -0.6 1.1 -0.65 1.1 -0.6 1.1 M-0.55 1.1 L-0.5 1.15 -0.5 1.15 -0.5 1.2 -0.5 1.2 -0.55 1.3 -0.5 1.3 -0.45 1.25 -0.45 1.2 -0.5 1.2 M-0.55 1.3 L-0.55 1.3 -0.6 1.35 -0.55 1.35 -0.5 1.35 M-1.5 0.5 L-1.45 0.5 -1.4 0.55 -1.4 0.55 -1.35 0.55 -1.35 0.6 -1.3 0.6 -1.3 0.65 -1.3 0.65 -1.25 0.7 -1.25 0.7 -1.2 0.7 -1.2 0.75 -1.15 0.75 -1.15 0.75 M-1.5 0.6 L-1.45 0.6 -1.4 0.65 -1.35 0.65 -1.35 0.65 -1.3 0.65 -1.3 0.65 M-1.5 0.6 L-1.5 0.55 -1.55 0.55 -1.55 0.55 -1.6 0.6 -1.55 0.65 -1.55 0.65 -1.5 0.65 -1.5 0.7 -1.45 0.7 -1.4 0.75 -1.4 0.7 -1.4 0.65 -1.4 0.65 M-1.55 0.55 L-1.6 0.55 -1.6 0.6 M-1.55 0.55 L-1.55 0.55 M-1.95 1.15 L-1.9 1.15 -1.85 1.15 -1.85 1.2 -1.85 1.2 -1.85 1.25 -1.85 1.3 -1.8 1.3 -1.75 1.3 -1.7 1.3 -1.75 1.3 -1.75 1.3 M-2.0 1.1 L-2.05 1.1 -2.1 1.05 M-2.0 1.1 L-1.95 1.15 M-2.05 1.1 L-2.05 1.1 M-2.15 1.15 L-2.1 1.2 -2.1 1.2 -2.1 1.2 -2.05 1.2 -2.0 1.25 -2.0 1.2 Q-1.95 1.2 -1.9 1.25 L-1.85 1.25 -1.85 1.3 M-1.35 0.7 L-1.35 0.75 -1.35 0.75 -1.3 0.75 M-1.2 0.85 L-1.25 0.8 M-1.0 0.85 L-1.05 0.85 -1.05 0.85 -1.1 0.8 -1.15 0.8 M-1.35 0.7 L-1.4 0.7 M-1.25 1.45 L-1.25 1.55 -1.2 1.55 -1.2 1.6 -1.2 1.6 -1.2 1.6 -1.15 1.65 -1.15 1.65 M-1.3 1.7 L-1.25 1.65 -1.25 1.6 -1.2 1.6 M-1.35 1.7 L-1.3 1.7 -1.3 1.7 M-1.35 1.7 L-1.4 1.7 -1.45 1.7 -1.45 1.7 -1.55 1.7 -1.6 1.65 -1.65 1.6 -1.75 1.6 -1.75 1.6 -1.8 1.55 -1.8 1.45 Q-1.75 1.45 -1.75 1.45 L-1.7 1.45 M-1.9 1.95 L-1.9 2.0 -1.85 2.05 -1.85 2.1 -1.8 2.1 -1.8 2.15 M-1.95 2.1 L-1.9 2.15 -1.9 2.2 M-1.95 1.85 L-1.95 1.9 -1.95 1.95 -1.9 1.95 M-1.95 2.0 L-1.95 2.0 -1.9 2.0 M-1.9 1.35 L-1.85 1.4 -1.85 1.4 -1.85 1.4 -1.8 1.4 -1.8 1.45 -1.8 1.4 M-2.0 1.35 L-1.95 1.35 -1.95 1.35 -1.9 1.35 -1.9 1.35 M-2.0 1.4 L-1.95 1.35 M-2.0 1.35 L-2.0 1.3 -2.0 1.3 -2.05 1.25 -2.0 1.25 M-2.0 1.4 L-2.0 1.35 -2.05 1.35 -2.15 1.35 -2.15 1.35 -2.15 1.3 -2.2 1.3 M-1.95 1.5 L-1.9 1.45 -1.9 1.45 -1.9 1.45 -1.85 1.4 M-2.1 1.45 L-2.1 1.45 -2.0 1.5 -1.95 1.5 M-2.05 1.8 L-2.05 1.8 -2.0 1.85 -2.0 1.85 -1.95 1.85 M-2.15 1.75 L-2.15 1.75 -2.1 1.75 -2.05 1.8 M-1.6 1.55 L-1.6 1.55 M-2.1 1.9 L-2.05 1.9 -2.0 1.95 -2.0 1.95 -1.95 2.0 M-2.0 2.05 L-2.05 2.0 -2.0 1.95 -2.0 1.95 M-2.0 2.05 L-2.0 2.05 -1.95 2.1 -1.95 2.1 -2.0 2.1 -2.05 2.1 -2.05 2.1 -2.1 2.1 -2.15 2.1 -2.2 2.05 M-2.0 2.05 L-2.0 2.05 -2.05 2.05 -2.05 2.0 -2.1 2.0 -2.15 2.0 -2.15 1.95 -2.15 1.95 -2.2 1.9 M-0.6 1.35 L-0.6 1.35 -0.65 1.4 M-0.65 1.25 L-0.6 1.25 M-0.65 1.25 L-0.65 1.3 M-0.75 1.45 L-0.8 1.45 M-0.85 1.65 L-0.85 1.65 -0.8 1.65 -0.8 1.6 -0.75 1.6 -0.7 1.55 M-0.85 1.65 L-0.85 1.65 M-2.15 1.15 L-2.15 1.15 -2.2 1.15 M-2.2 1.45 L-2.15 1.45 -2.1 1.45 M-2.15 1.75 L-2.2 1.75 -2.15 1.75 -2.15 1.8 -2.15 1.85 -2.2 1.85 M-2.15 1.8 L-2.15 1.8 -2.15 1.85 -2.1 1.85 -2.1 1.9 M-5.35 3.7 L-5.4 3.7 -5.35 3.7 Z" fill="none" stroke="#000000" stroke-linecap="round" stroke-linejoin="round" stroke-opacity="0.4" stroke-width="1.0"/>
  </g>
  <defs>
    <radialGradient cx="0" cy="0" gradientTransform="matrix(0.0038, 0.0, 0.0, 0.0038, 0.0, 0.0)" gradientUnits="userSpaceOnUse" id="gradient0" r="819.2" spreadMethod="pad">
      <stop offset="0.0" stop-color="#fa2b2b" stop-opacity="0.8784314"/>
      <stop offset="1.0" stop-color="#330b0b" stop-opacity="0.85882354"/>
    </radialGradient>
  </defs>
</svg>
