<?xml version="1.0" encoding="UTF-8" standalone="no"?>
<svg xmlns:xlink="http://www.w3.org/1999/xlink" height="4.4px" width="2.45px" xmlns="http://www.w3.org/2000/svg">
  <g transform="matrix(1.0, 0.0, 0.0, 1.0, 0.8, 2.2)">
    <path d="M1.5 -2.05 L1.55 -2.1 1.5 -1.85 1.5 -1.8 1.45 -1.75 1.45 -1.85 1.4 -1.85 1.4 -1.8 1.4 -1.9 1.4 -1.95 1.4 -2.05 1.45 -2.05 1.5 -2.05 M1.5 -1.6 L1.5 -1.5 1.5 -1.5 1.45 -1.45 1.45 -1.4 1.45 -1.35 1.45 -1.5 1.4 -1.55 1.45 -1.6 1.45 -1.6 1.5 -1.6 1.5 -1.6 M1.45 -1.35 L1.45 -1.35" fill="#624355" fill-rule="evenodd" stroke="none"/>
    <path d="M1.5 -2.05 L1.45 -2.05 1.4 -2.05 1.25 -2.05 1.35 -2.1 1.4 -2.1 1.4 -2.1 1.5 -2.1 1.5 -2.05 M-0.15 2.2 L-0.15 2.2 -0.2 2.1 -0.25 2.05 -0.4 1.85 -0.45 1.8 -0.6 1.6 Q-0.75 1.25 -0.8 0.7 -0.8 0.3 -0.7 -0.3 L-0.65 -0.5 Q-0.6 -0.65 -0.6 -0.85 -0.55 -1.1 -0.6 -1.3 L-0.6 -1.4 -0.65 -1.6 -0.6 -1.6 Q-0.45 -1.7 -0.2 -2.05 L-0.2 -2.05 -0.15 -2.15 -0.1 -2.2 -0.05 -2.2 -0.1 -2.1 -0.15 -2.05 -0.15 -2.05 Q-0.4 -1.65 -0.55 -1.6 L-0.6 -1.55 -0.55 -1.35 -0.55 -0.8 -0.6 -0.5 -0.65 -0.3 Q-0.75 0.3 -0.75 0.75 -0.75 1.3 -0.55 1.6 L-0.4 1.85 -0.35 1.85 -0.25 2.05 -0.2 2.1 -0.15 2.2 M0.75 -2.15 L0.75 -2.2 0.8 -2.2 0.75 -2.15 0.75 -2.15 M1.15 -2.1 L1.15 -2.1 1.2 -2.15 1.2 -2.1 1.2 -2.1 1.15 -2.1 1.15 -2.1 M1.25 -2.05 L1.25 -2.05 M1.3 -1.85 L1.3 -1.85 1.3 -1.8 1.3 -1.85 M1.4 -2.05 L1.4 -2.05 M1.35 -1.5 L1.35 -1.5 1.4 -1.5 1.35 -1.5 1.35 -1.5 M1.25 -1.4 L1.25 -1.45 1.3 -1.4 1.3 -1.45 1.3 -1.45 1.35 -1.45 1.35 -1.4 1.35 -1.4 1.3 -1.4 1.25 -1.4 M0.4 -2.05 L0.4 -2.05 0.4 -2.05 M0.1 -1.75 L0.1 -1.65 0.1 -1.65 0.05 -1.6 0.05 -1.6 0.05 -1.7 0.1 -1.75 M1.25 -0.35 L1.25 -0.45 1.25 -0.5 1.25 -0.4 1.25 -0.4 1.25 -0.35 M1.2 -0.8 L1.2 -0.8 1.2 -0.8 M1.25 -0.6 L1.25 -0.55 1.25 -0.6 M1.4 -0.9 L1.4 -0.9 1.4 -0.9 M0.0 -2.0 L0.0 -2.05 0.0 -2.0 M0.75 -1.0 L0.75 -1.0 0.75 -1.0 M0.35 -0.95 L0.35 -0.95 0.35 -0.95 M1.0 -0.4 L1.0 -0.4 1.0 -0.4 M1.4 -0.7 L1.4 -0.7 1.4 -0.7 1.4 -0.7 M1.5 -0.85 L1.5 -0.9 1.5 -0.85 1.5 -0.85 M1.15 -1.15 L1.15 -1.15 1.2 -1.1 1.2 -1.05 1.15 -1.05 1.15 -1.05 1.15 -1.05 1.15 -1.15 M1.25 0.15 L1.2 0.1 1.25 0.15 M1.15 0.55 L1.15 0.55 M-0.2 -1.8 L-0.2 -1.75 -0.2 -1.8 -0.2 -1.8 M-0.4 1.1 L-0.4 1.05 -0.4 1.1 M-0.05 2.0 L-0.05 1.95 0.0 1.95 0.0 1.95 -0.05 2.0" fill="#4d3442" fill-rule="evenodd" stroke="none"/>
    <path d="M1.4 -2.05 L1.4 -1.95 1.4 -1.9 1.4 -1.8 1.35 -1.8 1.3 -1.85 1.35 -1.9 1.35 -1.95 1.4 -2.05 1.4 -2.05 1.4 -2.05" fill="#ad7368" fill-rule="evenodd" stroke="none"/>
    <path d="M1.25 -2.0 L1.25 -2.05 1.4 -2.05 1.4 -2.05 1.35 -1.95 1.35 -1.9 1.3 -1.85 1.3 -1.9 1.25 -2.0 M1.3 -1.85 L1.3 -1.85" fill="#ddb079" fill-rule="evenodd" stroke="none"/>
    <path d="M1.4 -1.8 L1.4 -1.85 1.45 -1.85 1.45 -1.75 1.4 -1.6 1.45 -1.6 1.45 -1.6 1.4 -1.55 1.4 -1.6 1.35 -1.65 1.35 -1.65 1.3 -1.75 1.3 -1.8 1.3 -1.85 1.35 -1.8 1.4 -1.8" fill="#634456" fill-rule="evenodd" stroke="none"/>
    <path d="M0.8 -2.2 L1.1 -2.2 1.05 -2.15 1.05 -2.1 1.0 -2.05 0.95 -1.9 0.9 -1.75 0.9 -1.7 0.95 -1.75 1.0 -1.95 1.05 -2.0 1.05 -2.05 1.1 -2.1 1.1 -2.0 1.1 -1.9 1.05 -1.85 1.05 -1.85 1.1 -1.85 1.1 -1.85 1.15 -1.9 1.15 -1.95 1.2 -1.9 1.2 -1.95 1.2 -1.95 1.2 -2.0 1.25 -1.95 1.25 -2.0 1.3 -1.9 1.3 -1.85 1.3 -1.8 1.3 -1.75 1.35 -1.65 1.3 -1.65 1.25 -1.7 1.15 -1.7 1.1 -1.7 1.1 -1.7 1.05 -1.65 1.05 -1.65 1.1 -1.65 1.15 -1.65 1.2 -1.65 1.25 -1.65 1.25 -1.6 1.25 -1.6 1.2 -1.6 1.2 -1.6 1.15 -1.55 1.15 -1.55 1.2 -1.55 1.2 -1.5 1.2 -1.55 1.25 -1.55 1.25 -1.55 1.3 -1.5 1.3 -1.5 1.25 -1.5 1.25 -1.45 1.2 -1.45 1.2 -1.4 1.15 -1.35 1.2 -1.35 1.2 -1.3 1.2 -1.3 1.2 -1.2 1.25 -1.2 1.3 -1.2 1.3 -1.15 1.3 -1.1 1.35 -1.05 1.35 -1.0 1.35 -1.1 1.4 -1.15 1.4 -1.25 1.4 -1.35 1.4 -1.35 1.45 -1.35 1.4 -1.3 1.4 -1.15 1.4 -1.0 1.45 -0.95 1.4 -0.95 1.4 -0.95 1.4 -0.9 1.4 -0.9 1.35 -0.8 1.35 -0.7 1.3 -0.65 1.3 -0.6 1.25 -0.5 1.25 -0.5 1.25 -0.45 1.25 -0.35 1.25 -0.2 1.2 -0.2 1.2 -0.15 1.15 -0.1 1.15 0.05 1.1 0.1 1.1 0.15 1.05 0.2 1.05 0.25 1.05 0.3 1.0 0.45 1.0 0.5 0.95 0.6 0.95 0.65 0.9 0.65 0.9 0.55 0.9 0.4 0.95 0.35 0.95 0.2 0.95 0.1 0.95 0.0 0.9 -0.05 0.9 -0.05 0.9 -0.1 0.95 -0.15 0.95 -0.25 0.9 -0.25 0.9 -0.25 0.9 -0.3 0.9 -0.4 0.95 -0.4 0.95 -0.45 0.95 -0.4 0.95 -0.4 1.0 -0.4 1.0 -0.45 1.0 -0.45 1.05 -0.5 1.05 -0.6 1.05 -0.6 1.05 -0.65 1.05 -0.7 1.0 -0.7 1.0 -0.7 0.95 -0.65 0.95 -0.65 0.95 -0.7 0.9 -0.7 0.9 -0.7 0.9 -0.75 0.85 -0.75 0.85 -0.75 0.8 -0.7 0.8 -0.65 0.75 -0.6 0.75 -0.6 0.75 -0.75 0.7 -0.75 0.7 -0.8 0.7 -0.8 0.65 -0.75 0.65 -0.7 0.6 -0.7 0.6 -0.65 0.6 -0.7 0.6 -0.8 0.6 -0.8 0.6 -0.75 0.55 -0.75 0.55 -0.7 0.55 -0.7 Q0.5 -0.65 0.5 -0.7 0.45 -0.7 0.45 -0.65 L0.45 -0.6 0.4 -0.55 0.35 -0.45 0.35 -0.45 0.35 -0.4 0.35 -0.35 0.3 -0.25 0.25 -0.2 0.2 -0.05 0.2 0.0 0.2 0.1 0.15 0.1 0.15 0.15 0.15 0.0 0.15 -0.1 0.15 -0.15 0.15 -0.2 0.1 -0.25 0.05 -0.2 0.05 -0.15 0.0 -0.15 0.0 -0.1 -0.1 -0.1 -0.15 -0.05 -0.15 0.0 -0.1 0.0 Q-0.1 0.0 -0.05 -0.05 L-0.05 -0.05 -0.05 0.05 -0.15 0.1 -0.2 0.25 -0.25 0.25 -0.2 0.15 -0.2 0.05 -0.15 -0.1 Q-0.1 -0.15 -0.1 -0.15 L0.0 -0.25 0.05 -0.3 0.1 -0.4 0.15 -0.45 0.15 -0.5 0.15 -0.55 0.1 -0.5 0.1 -0.4 0.05 -0.3 -0.1 -0.2 -0.15 -0.15 -0.2 -0.1 -0.2 0.0 -0.25 0.05 -0.25 -0.05 -0.2 -0.15 -0.2 -0.2 -0.15 -0.25 -0.1 -0.35 -0.05 -0.4 0.0 -0.45 0.0 -0.55 0.05 -0.6 0.05 -0.65 0.0 -0.65 0.0 -0.65 0.0 -0.6 -0.05 -0.5 -0.1 -0.45 -0.15 -0.35 -0.2 -0.3 -0.2 -0.35 -0.15 -0.4 -0.15 -0.5 -0.1 -0.6 -0.05 -0.65 -0.05 -0.7 -0.05 -0.7 -0.1 -0.7 -0.1 -0.65 -0.15 -0.65 -0.15 -0.55 -0.2 -0.5 -0.2 -0.45 -0.2 -0.55 -0.2 -0.7 Q-0.15 -0.85 -0.1 -0.85 -0.05 -0.85 0.0 -0.9 L0.0 -0.95 0.05 -1.0 0.05 -1.0 0.0 -1.05 0.0 -1.0 0.0 -0.9 Q-0.05 -0.9 -0.1 -0.9 L-0.1 -0.9 -0.15 -0.9 -0.15 -0.9 -0.15 -0.95 -0.05 -1.05 0.0 -1.1 0.05 -1.2 0.0 -1.15 -0.1 -1.05 -0.1 -1.0 -0.15 -1.0 -0.2 -1.0 -0.15 -1.05 -0.15 -1.1 -0.15 -1.2 -0.1 -1.25 -0.1 -1.3 -0.05 -1.35 -0.05 -1.35 0.0 -1.4 0.05 -1.55 0.05 -1.6 0.05 -1.45 0.1 -1.4 0.1 -1.5 0.15 -1.55 0.15 -1.55 0.1 -1.6 0.1 -1.65 0.1 -1.65 0.1 -1.75 0.15 -1.8 0.15 -1.9 0.2 -1.85 0.2 -1.85 0.25 -1.85 0.25 -1.85 0.35 -1.75 0.4 -1.7 0.4 -1.6 0.45 -1.6 0.45 -1.6 0.45 -1.65 0.45 -1.65 0.4 -1.75 0.35 -1.8 0.3 -1.9 0.25 -1.9 0.2 -1.9 0.2 -1.95 0.25 -2.0 Q0.35 -2.0 0.35 -2.05 L0.4 -2.05 0.4 -2.05 0.45 -2.05 0.45 -2.0 0.5 -2.0 0.5 -1.95 0.55 -1.8 0.6 -1.7 0.65 -1.6 0.65 -1.7 0.6 -1.8 0.6 -1.8 0.55 -1.85 0.55 -1.9 0.55 -1.95 0.6 -1.95 0.6 -1.95 0.75 -1.85 0.7 -1.9 0.7 -1.95 0.65 -1.95 0.65 -2.0 0.7 -2.05 0.8 -1.95 0.8 -1.85 0.8 -1.95 0.8 -1.95 0.8 -2.15 0.75 -2.15 0.8 -2.2 M0.4 -2.05 L0.4 -2.05 M0.05 -1.6 L0.05 -1.6 0.05 -1.6 M0.85 0.55 L0.9 0.55 0.95 0.5 0.95 0.4 0.95 0.3 1.0 0.15 0.95 0.2 0.95 0.25 0.95 0.4 0.9 0.5 0.9 0.6 0.85 0.6 0.85 0.65 0.85 0.75 0.85 0.75 0.8 0.7 0.8 0.65 0.85 0.65 0.85 0.55 M1.2 -0.8 L1.2 -0.75 1.2 -0.7 1.25 -0.6 1.2 -0.6 1.2 -0.6 1.2 -0.55 1.25 -0.5 1.25 -0.55 1.25 -0.6 1.25 -0.65 1.25 -0.7 1.2 -0.75 1.2 -0.8 1.2 -0.8 1.2 -0.8 M1.4 -0.9 L1.4 -0.9 M0.65 -1.0 L0.65 -0.95 0.65 -1.0 0.65 -1.1 0.6 -1.1 0.6 -1.1 0.55 -1.1 0.55 -1.15 0.55 -1.25 0.5 -1.25 0.5 -1.25 0.5 -1.25 0.45 -1.25 0.45 -1.3 0.45 -1.35 0.4 -1.3 0.3 -1.3 0.25 -1.3 0.2 -1.3 0.2 -1.3 0.15 -1.3 0.15 -1.25 0.1 -1.25 0.1 -1.2 0.15 -1.2 0.15 -1.15 0.15 -1.2 0.2 -1.2 0.2 -1.15 0.2 -1.1 0.25 -1.1 0.25 -1.1 0.3 -1.05 0.3 -1.1 0.3 -1.1 0.35 -1.15 0.35 -1.15 0.35 -1.1 0.4 -1.1 0.45 -1.05 0.5 -1.05 0.5 -1.05 0.5 -0.8 0.55 -0.8 0.55 -0.75 0.6 -0.85 Q0.55 -0.85 0.6 -0.85 L0.6 -0.9 0.6 -0.95 0.65 -0.9 0.65 -1.0 M0.45 -1.4 L0.45 -1.4 0.5 -1.35 0.5 -1.25 0.55 -1.25 0.55 -1.2 0.6 -1.2 0.6 -1.15 0.6 -1.15 0.65 -1.15 0.65 -1.2 0.6 -1.3 0.6 -1.35 0.55 -1.35 0.55 -1.35 0.6 -1.4 0.6 -1.4 0.65 -1.35 0.65 -1.3 0.7 -1.3 0.7 -1.25 0.7 -1.25 0.75 -1.25 0.75 -1.3 0.75 -1.4 0.7 -1.45 0.7 -1.5 0.7 -1.55 0.7 -1.5 0.65 -1.5 0.65 -1.45 0.6 -1.45 0.6 -1.5 0.6 -1.5 0.55 -1.5 0.55 -1.5 0.5 -1.45 0.5 -1.45 0.5 -1.4 0.45 -1.4 M0.8 -1.75 L0.8 -1.45 0.85 -1.7 0.8 -1.75 M1.0 -0.8 L1.0 -0.8 1.05 -0.8 1.05 -0.75 1.1 -0.75 1.1 -0.8 1.15 -0.85 1.15 -0.85 1.15 -0.9 1.1 -0.9 1.1 -0.95 Q1.1 -0.95 1.1 -1.0 L1.1 -1.0 1.05 -1.05 1.05 -1.1 1.0 -1.1 1.0 -1.1 1.0 -1.1 0.95 -1.1 0.95 -1.05 0.9 -1.05 0.9 -1.05 0.9 -1.1 0.9 -1.15 0.95 -1.15 0.95 -1.2 0.95 -1.2 1.0 -1.2 1.0 -1.2 1.05 -1.2 1.05 -1.25 1.0 -1.25 1.0 -1.25 0.95 -1.25 0.95 -1.3 0.95 -1.35 0.9 -1.3 0.85 -1.3 0.85 -1.3 0.8 -1.25 0.8 -1.25 0.8 -1.2 0.85 -1.2 0.85 -1.2 0.85 -1.15 0.85 -1.15 0.8 -1.2 0.8 -1.15 0.8 -1.15 0.75 -1.1 0.75 -1.05 0.75 -1.05 0.7 -0.95 0.75 -0.95 0.7 -0.95 0.7 -0.9 0.75 -0.85 0.75 -0.85 0.8 -0.75 0.8 -0.8 0.85 -0.8 0.85 -0.85 0.85 -0.85 0.9 -0.85 0.9 -0.85 0.9 -0.8 0.9 -0.75 0.95 -0.75 1.0 -0.8 1.0 -0.8 M0.9 -0.85 L0.9 -0.85 M0.95 -0.6 L0.95 -0.6 1.0 -0.6 1.0 -0.6 1.0 -0.5 0.95 -0.5 0.95 -0.5 0.95 -0.45 0.9 -0.5 0.95 -0.55 0.95 -0.6 M0.35 -0.95 L0.35 -0.95 0.3 -1.0 0.3 -1.0 0.25 -0.95 0.3 -0.95 0.3 -0.9 0.3 -0.85 0.35 -0.8 0.35 -0.85 0.35 -0.8 0.4 -0.8 0.45 -0.8 0.45 -0.85 0.45 -0.9 0.45 -0.95 0.35 -0.95 0.35 -0.95 0.35 -0.95 M0.1 -1.0 L0.1 -0.95 0.05 -0.9 0.05 -0.8 0.05 -0.6 0.1 -0.55 0.1 -0.6 0.15 -0.65 0.15 -0.75 0.1 -0.75 0.1 -0.85 0.1 -0.9 0.15 -0.95 0.15 -0.95 0.15 -1.05 0.1 -1.05 0.1 -1.0 M0.25 -0.85 L0.25 -0.95 0.2 -0.9 0.2 -0.85 0.2 -0.9 0.2 -0.95 0.2 -0.95 0.15 -0.9 0.15 -0.75 0.15 -0.75 0.2 -0.7 0.25 -0.65 0.3 -0.65 0.3 -0.6 0.35 -0.6 0.35 -0.65 0.4 -0.65 0.4 -0.7 0.4 -0.75 0.35 -0.75 0.35 -0.75 Q0.35 -0.75 0.3 -0.8 L0.3 -0.8 0.3 -0.85 0.25 -0.85 M1.0 -0.4 L1.0 -0.35 1.05 -0.35 1.0 -0.35 1.05 -0.4 1.05 -0.4 1.05 -0.4 1.1 -0.5 1.05 -0.55 1.05 -0.5 1.0 -0.45 1.0 -0.4 1.0 -0.4 M1.0 -0.35 L0.95 -0.35 0.95 -0.3 1.0 -0.3 1.0 -0.35 M1.15 -1.05 L1.15 -1.05 1.15 -1.05 1.2 -1.05 1.2 -1.1 1.15 -1.15 1.15 -1.15 1.15 -1.1 1.15 -1.05 M1.15 -0.35 L1.1 -0.35 1.1 -0.2 1.1 -0.1 1.1 -0.25 1.15 -0.35 M0.7 0.7 L0.7 0.65 0.75 0.65 0.75 0.7 0.75 0.75 0.8 0.85 0.75 0.85 0.75 1.0 0.75 1.05 0.7 1.05 0.7 0.9 0.7 0.85 0.7 0.85 0.7 0.8 0.75 0.8 0.7 0.8 0.7 0.7 M0.7 1.1 L0.7 1.15 0.7 1.1" fill="#61424a" fill-rule="evenodd" stroke="none"/>
    <path d="M1.1 -2.15 L1.15 -2.1 1.15 -2.1 1.2 -2.1 1.2 -2.1 1.2 -2.1 1.25 -2.05 1.25 -2.0 1.25 -1.95 1.2 -2.0 1.2 -1.95 1.2 -1.95 1.2 -1.9 1.15 -1.95 1.15 -1.9 1.1 -1.85 1.1 -1.85 1.05 -1.85 1.05 -1.85 1.1 -1.9 1.1 -2.0 1.1 -2.1 1.05 -2.05 1.05 -2.1 1.1 -2.1 1.1 -2.15 M1.25 -2.05 L1.25 -2.05 M1.35 -1.65 L1.35 -1.65 1.4 -1.6 1.4 -1.55 1.45 -1.5 1.4 -1.4 1.4 -1.5 1.35 -1.5 1.35 -1.5 1.3 -1.5 1.3 -1.5 1.3 -1.5 1.25 -1.55 1.25 -1.55 1.2 -1.55 1.2 -1.5 1.2 -1.55 1.15 -1.55 1.15 -1.55 1.2 -1.6 1.2 -1.6 1.25 -1.6 1.25 -1.6 1.25 -1.65 1.2 -1.65 1.15 -1.65 1.1 -1.65 1.05 -1.65 1.05 -1.65 1.1 -1.7 1.1 -1.7 1.15 -1.7 1.25 -1.7 1.3 -1.65 1.35 -1.65 M0.7 -2.1 L0.7 -2.1 0.75 -2.05 0.75 -2.05 0.8 -1.95 0.8 -1.85 0.8 -1.95 0.7 -2.05 0.65 -2.0 0.65 -1.95 0.7 -1.95 0.7 -1.9 0.75 -1.85 0.6 -1.95 0.6 -1.95 0.55 -1.95 0.55 -1.9 0.55 -1.85 0.6 -1.8 0.6 -1.8 0.65 -1.7 0.65 -1.6 0.6 -1.7 0.55 -1.8 0.5 -1.95 0.5 -2.0 0.45 -2.0 0.45 -2.05 0.5 -2.05 0.6 -2.05 0.65 -2.1 0.65 -2.1 0.7 -2.1 0.7 -2.1 M0.8 -1.75 L0.85 -1.7 0.8 -1.45 0.8 -1.75" fill="#3a1f30" fill-rule="evenodd" stroke="none"/>
    <path d="M1.45 -1.75 L1.5 -1.8 1.5 -1.85 1.5 -1.6 1.5 -1.6 1.45 -1.6 1.45 -1.6 1.45 -1.6 1.4 -1.6 1.45 -1.75" fill="#b57667" fill-rule="evenodd" stroke="none"/>
    <path d="M0.8 -1.95 L0.75 -2.05 0.75 -2.05 0.7 -2.1 0.7 -2.1 0.75 -2.15 0.75 -2.15 0.8 -2.15 0.8 -1.95 0.8 -1.95" fill="#876575" fill-rule="evenodd" stroke="none"/>
    <path d="M0.4 -2.2 L0.7 -2.2 0.75 -2.15 0.75 -2.15 0.7 -2.1 0.7 -2.1 0.65 -2.1 0.65 -2.1 0.6 -2.05 0.5 -2.05 0.45 -2.05 0.4 -2.05 0.4 -2.05 0.4 -2.1 Q0.35 -2.1 0.35 -2.1 L0.4 -2.15 0.4 -2.2 M0.75 -2.15 L0.75 -2.15" fill="#f3d4c0" fill-rule="evenodd" stroke="none"/>
    <path d="M1.1 -2.2 L1.1 -2.15 1.1 -2.1 1.05 -2.1 1.05 -2.05 1.05 -2.0 1.0 -1.95 0.95 -1.75 0.9 -1.7 0.9 -1.75 0.95 -1.9 1.0 -2.05 1.05 -2.1 1.05 -2.15 1.1 -2.2" fill="#bda5a5" fill-rule="evenodd" stroke="none"/>
    <path d="M0.5 -1.05 L0.5 -1.05 0.45 -1.05 0.4 -1.1 0.35 -1.1 0.35 -1.15 0.35 -1.15 0.3 -1.1 0.3 -1.1 0.3 -1.05 0.25 -1.1 0.25 -1.1 0.2 -1.1 0.2 -1.15 0.2 -1.2 0.15 -1.2 0.15 -1.15 0.15 -1.2 0.1 -1.2 0.1 -1.25 0.15 -1.25 0.15 -1.3 0.2 -1.3 0.2 -1.3 0.25 -1.3 0.3 -1.3 0.4 -1.3 0.45 -1.35 0.45 -1.3 0.45 -1.25 0.5 -1.25 0.5 -1.25 0.5 -1.25 0.55 -1.25 0.55 -1.15 0.55 -1.1 0.6 -1.1 0.6 -1.1 0.65 -1.1 0.65 -1.0 0.65 -0.95 0.65 -1.0 0.6 -1.0 0.6 -1.0 0.55 -1.05 0.55 -1.1 0.5 -1.05 0.5 -1.05 M0.45 -1.4 L0.5 -1.4 0.5 -1.45 0.5 -1.45 0.55 -1.5 0.55 -1.5 0.6 -1.5 0.6 -1.5 0.6 -1.45 0.65 -1.45 0.65 -1.5 0.7 -1.5 0.7 -1.55 0.7 -1.5 0.7 -1.45 0.75 -1.4 0.75 -1.3 0.75 -1.25 0.7 -1.25 0.7 -1.25 0.7 -1.3 0.65 -1.3 0.65 -1.35 0.6 -1.4 0.6 -1.4 0.55 -1.35 0.55 -1.35 0.6 -1.35 0.6 -1.3 0.65 -1.2 0.65 -1.15 0.6 -1.15 0.6 -1.15 0.6 -1.2 0.55 -1.2 0.55 -1.25 0.5 -1.25 0.5 -1.35 0.45 -1.4 0.45 -1.4 M0.4 -1.2 L0.4 -1.25 0.4 -1.25 0.4 -1.25 0.35 -1.25 0.3 -1.25 0.3 -1.3 0.25 -1.25 0.3 -1.2 0.3 -1.2 0.35 -1.15 0.35 -1.15 0.4 -1.15 0.4 -1.15 0.45 -1.15 0.45 -1.2 0.45 -1.15 0.45 -1.15 0.5 -1.15 0.45 -1.2 0.45 -1.25 0.4 -1.2" fill="#aa6569" fill-rule="evenodd" stroke="none"/>
    <path d="M0.75 -0.95 L0.7 -0.95 0.75 -1.05 0.75 -1.05 0.75 -1.1 0.8 -1.15 0.8 -1.15 0.8 -1.2 0.85 -1.15 0.85 -1.15 0.85 -1.2 0.85 -1.2 0.8 -1.2 0.8 -1.25 0.8 -1.25 0.85 -1.3 0.85 -1.3 0.9 -1.3 0.95 -1.35 0.95 -1.3 0.95 -1.25 1.0 -1.25 1.0 -1.25 1.05 -1.25 1.05 -1.2 1.0 -1.2 1.0 -1.2 0.95 -1.2 0.95 -1.2 0.95 -1.15 0.9 -1.15 0.9 -1.1 0.9 -1.05 0.9 -1.05 0.95 -1.05 0.95 -1.1 1.0 -1.1 1.0 -1.1 1.0 -1.1 1.05 -1.1 1.05 -1.05 1.1 -1.0 1.1 -1.0 Q1.1 -0.95 1.1 -0.95 L1.1 -0.9 1.15 -0.9 1.15 -0.85 1.15 -0.85 1.1 -0.8 1.1 -0.75 1.05 -0.75 1.05 -0.8 1.0 -0.8 1.0 -0.8 1.0 -0.9 0.95 -0.9 0.95 -0.9 0.9 -0.9 0.9 -0.85 0.9 -0.85 0.85 -0.85 0.85 -0.85 0.85 -0.9 0.85 -0.95 0.9 -0.95 0.85 -1.0 0.85 -1.0 0.8 -0.95 0.8 -0.95 0.8 -0.95 0.75 -0.95 0.75 -1.0 0.75 -0.95 M0.75 -1.0 L0.75 -1.0 0.75 -1.0 M1.15 -1.05 L1.15 -1.1 1.15 -1.15 1.15 -1.05" fill="#b36058" fill-rule="evenodd" stroke="none"/>
    <path d="M1.5 -1.5 L1.55 -1.25 1.55 -1.2 1.55 -1.15 1.55 -1.1 1.5 -1.05 1.5 -1.05 1.5 -1.05 1.5 -1.1 1.5 -1.2 1.5 -1.3 1.45 -1.35 1.45 -1.4 1.45 -1.45 1.5 -1.5 1.5 -1.5" fill="#d0a18d" fill-rule="evenodd" stroke="none"/>
    <path d="M1.4 -1.4 L1.45 -1.5 1.4 -1.55 1.45 -1.5 1.45 -1.35 1.45 -1.4 1.4 -1.4" fill="#e0c3bf" fill-rule="evenodd" stroke="none"/>
    <path d="M1.3 -1.5 L1.3 -1.5 1.35 -1.5 1.35 -1.5 1.4 -1.5 1.4 -1.4 1.35 -1.4 1.35 -1.45 1.3 -1.45 1.3 -1.45 1.3 -1.45 1.25 -1.45 1.25 -1.4 1.25 -1.4 1.2 -1.4 1.2 -1.45 1.25 -1.45 1.25 -1.5 1.3 -1.5 M1.4 -1.35 L1.4 -1.4 1.45 -1.4 1.45 -1.35 1.4 -1.35 1.4 -1.35 M1.45 -1.35 L1.45 -1.35" fill="#f0dcd1" fill-rule="evenodd" stroke="none"/>
    <path d="M1.2 -1.45 L1.2 -1.4 1.25 -1.4 1.25 -1.4 1.25 -1.4 1.2 -1.3 1.2 -1.35 1.15 -1.35 1.2 -1.4 1.2 -1.45 M1.25 -1.45 L1.25 -1.5 1.3 -1.5 1.25 -1.5 1.25 -1.45" fill="#f3d7d6" fill-rule="evenodd" stroke="none"/>
    <path d="M1.2 -1.3 L1.25 -1.4 1.25 -1.4 1.3 -1.4 1.35 -1.4 1.35 -1.4 1.4 -1.4 1.4 -1.35 1.4 -1.25 1.4 -1.15 1.35 -1.1 1.35 -1.0 1.35 -1.05 1.3 -1.1 1.3 -1.15 1.3 -1.2 1.25 -1.2 1.2 -1.2 1.2 -1.3 1.2 -1.3 M1.3 -1.4 L1.3 -1.4" fill="#261e2d" fill-rule="evenodd" stroke="none"/>
    <path d="M1.45 -1.35 L1.45 -1.35 1.45 -1.35 1.5 -1.3 1.5 -1.2 1.5 -1.1 1.5 -1.05 1.5 -1.05 1.45 -1.0 1.4 -0.95 1.45 -0.95 1.4 -1.0 1.4 -1.15 1.4 -1.3 1.45 -1.35" fill="#624353" fill-rule="evenodd" stroke="none"/>
    <path d="M1.55 -1.2 L1.6 -1.0 1.65 -0.95 Q1.5 -0.85 1.35 -0.1 L1.3 0.2 1.25 0.25 1.25 0.15 1.3 0.1 1.3 0.0 1.3 -0.1 1.35 -0.15 1.3 -0.15 1.35 -0.2 1.35 -0.2 1.35 -0.3 1.3 -0.3 1.3 -0.3 1.3 -0.3 1.3 -0.4 1.25 -0.4 1.25 -0.4 1.25 -0.5 1.25 -0.5 1.3 -0.6 1.3 -0.65 1.35 -0.7 1.35 -0.8 1.4 -0.9 1.4 -0.9 1.4 -0.8 1.35 -0.7 1.35 -0.6 1.4 -0.65 1.4 -0.7 1.4 -0.75 1.45 -0.8 1.45 -0.9 1.5 -0.9 1.45 -0.95 1.45 -1.0 1.5 -1.05 1.5 -1.05 1.5 -1.05 1.5 -1.05 1.55 -1.1 1.55 -1.15 1.55 -1.2 M1.5 -0.8 L1.55 -0.8 1.55 -0.9 1.55 -0.9 1.55 -0.95 1.5 -0.9 1.5 -0.9 1.5 -0.9 1.5 -0.85 1.45 -0.85 1.45 -0.75 1.4 -0.75 1.4 -0.7 1.4 -0.65 1.4 -0.6 1.4 -0.65 1.45 -0.7 1.5 -0.75 1.5 -0.8 M1.4 -0.7 L1.4 -0.7 1.4 -0.7 M1.35 -0.5 L1.35 -0.5 1.3 -0.45 1.3 -0.4 1.3 -0.35 1.35 -0.35 1.35 -0.35 1.35 -0.3 1.35 -0.3 1.35 -0.4 1.4 -0.4 1.4 -0.5 1.35 -0.5 1.35 -0.5 M1.25 -0.5 L1.25 -0.5" fill="#a68e8c" fill-rule="evenodd" stroke="none"/>
    <path d="M1.4 -0.95 L1.45 -1.0 1.45 -0.95 1.5 -0.9 1.45 -0.9 1.45 -0.8 1.4 -0.75 1.4 -0.7 1.4 -0.7 1.4 -0.65 1.35 -0.6 1.35 -0.7 1.4 -0.8 1.4 -0.9 1.4 -0.9 1.4 -0.95 1.4 -0.95" fill="#da9c77" fill-rule="evenodd" stroke="none"/>
    <path d="M1.5 -0.9 L1.5 -0.9 1.5 -0.9 1.55 -0.95 1.55 -0.9 1.55 -0.9 1.55 -0.8 1.5 -0.8 1.5 -0.8 1.5 -0.85 1.5 -0.85 1.5 -0.9" fill="#6e5362" fill-rule="evenodd" stroke="none"/>
    <path d="M1.5 -0.8 L1.5 -0.75 1.45 -0.7 1.4 -0.65 1.4 -0.6 1.4 -0.65 1.4 -0.7 1.4 -0.75 1.45 -0.75 1.45 -0.85 1.5 -0.85 1.5 -0.85 1.5 -0.8 1.5 -0.8 M1.5 -0.85 L1.5 -0.85" fill="#a97d70" fill-rule="evenodd" stroke="none"/>
    <path d="M1.25 -0.45 L1.25 -0.5 1.2 -0.55 1.2 -0.6 1.2 -0.6 1.25 -0.6 1.2 -0.7 1.2 -0.75 1.2 -0.8 1.2 -0.75 1.25 -0.7 1.25 -0.65 1.25 -0.6 1.25 -0.55 1.25 -0.5 1.25 -0.5 1.25 -0.45" fill="#694851" fill-rule="evenodd" stroke="none"/>
    <path d="M1.0 -0.8 L0.95 -0.75 0.9 -0.75 0.9 -0.8 0.9 -0.85 0.9 -0.8 0.95 -0.8 1.0 -0.8 M1.15 -0.35 L1.1 -0.25 1.1 -0.1 1.1 -0.2 1.1 -0.35 1.15 -0.35" fill="#3b2742" fill-rule="evenodd" stroke="none"/>
    <path d="M1.0 -0.8 L1.0 -0.8 0.95 -0.8 0.9 -0.8 0.9 -0.85 0.9 -0.85 0.9 -0.9 0.95 -0.9 0.95 -0.9 1.0 -0.9 1.0 -0.8" fill="#e6c7b2" fill-rule="evenodd" stroke="none"/>
    <path d="M0.95 -0.65 L1.0 -0.7 1.0 -0.7 1.05 -0.7 1.05 -0.65 1.05 -0.6 1.05 -0.6 1.05 -0.5 1.0 -0.45 1.0 -0.45 1.0 -0.4 0.95 -0.4 0.95 -0.4 0.95 -0.45 0.95 -0.5 0.95 -0.5 1.0 -0.5 1.0 -0.6 1.0 -0.6 0.95 -0.6 0.95 -0.65 M1.0 -0.35 L1.0 -0.35 1.0 -0.35 1.0 -0.3 0.95 -0.3 0.95 -0.35 1.0 -0.35 M1.05 -0.4 L1.0 -0.4 1.0 -0.45 1.05 -0.5 1.05 -0.55 1.1 -0.5 1.05 -0.4 1.05 -0.4" fill="#b56157" fill-rule="evenodd" stroke="none"/>
    <path d="M0.85 -0.75 L0.9 -0.75 0.9 -0.7 0.9 -0.7 0.95 -0.7 0.95 -0.65 0.95 -0.65 0.9 -0.7 0.9 -0.7 0.85 -0.75 M0.9 -0.25 L0.9 -0.25 0.95 -0.25 0.95 -0.15 0.9 -0.1 0.9 -0.05 0.9 -0.15 0.85 -0.2 0.9 -0.25 M0.8 0.65 L0.8 0.7 0.85 0.75 0.85 0.75 0.85 0.65 0.85 0.6 0.9 0.6 0.9 0.5 0.95 0.4 0.95 0.25 0.95 0.3 0.95 0.5 0.9 0.55 0.9 0.65 0.95 0.65 0.95 0.7 0.9 0.75 0.9 0.85 0.9 0.95 0.85 0.95 0.8 1.0 0.75 1.05 0.75 1.0 0.75 0.85 0.8 0.85 0.75 0.75 0.75 0.7 0.8 0.7 0.8 0.65 M0.95 -0.6 L0.95 -0.65 0.95 -0.6 0.95 -0.6 M0.7 0.75 L0.7 0.7 0.7 0.8 0.7 0.75 M0.65 0.8 L0.7 0.8 0.7 0.85 0.65 0.8" fill="#372531" fill-rule="evenodd" stroke="none"/>
    <path d="M1.35 -0.5 L1.35 -0.5 1.4 -0.5 1.4 -0.4 1.35 -0.4 1.35 -0.3 1.35 -0.3 1.35 -0.35 1.35 -0.35 1.3 -0.35 1.3 -0.4 1.3 -0.45 1.35 -0.5 1.35 -0.5" fill="#cea593" fill-rule="evenodd" stroke="none"/>
    <path d="M0.85 -0.85 L0.85 -0.8 0.8 -0.8 0.8 -0.75 0.75 -0.85 0.75 -0.85 0.7 -0.9 0.7 -0.95 0.75 -0.95 0.75 -1.0 0.75 -0.95 0.8 -0.95 0.8 -0.95 0.8 -0.95 0.85 -1.0 0.85 -1.0 0.9 -0.95 0.85 -0.95 0.85 -0.9 0.85 -0.85" fill="#d7a894" fill-rule="evenodd" stroke="none"/>
    <path d="M0.65 -1.0 L0.65 -0.9 0.6 -0.95 0.6 -0.9 0.6 -0.85 Q0.55 -0.85 0.6 -0.85 L0.55 -0.75 0.55 -0.8 0.5 -0.8 0.5 -1.05 0.5 -1.05 0.55 -1.1 0.55 -1.05 0.6 -1.0 0.6 -1.0 0.65 -1.0" fill="#f0b992" fill-rule="evenodd" stroke="none"/>
    <path d="M0.15 0.15 L0.15 0.1 0.2 0.1 0.2 0.0 0.2 -0.05 0.25 -0.2 0.3 -0.25 0.35 -0.35 0.35 -0.4 0.35 -0.45 0.35 -0.45 0.4 -0.55 0.45 -0.6 0.45 -0.65 Q0.45 -0.7 0.5 -0.7 0.5 -0.65 0.55 -0.7 L0.55 -0.7 0.55 -0.75 0.6 -0.75 0.6 -0.8 0.6 -0.8 0.6 -0.7 0.6 -0.65 0.6 -0.7 0.65 -0.7 0.65 -0.75 0.7 -0.8 0.7 -0.8 0.7 -0.75 0.75 -0.75 0.75 -0.6 0.75 -0.6 0.8 -0.65 0.8 -0.7 0.85 -0.75 0.85 -0.75 0.9 -0.7 0.9 -0.7 0.95 -0.65 0.95 -0.6 0.95 -0.55 0.9 -0.5 0.95 -0.45 0.95 -0.4 0.9 -0.4 0.9 -0.3 0.9 -0.25 0.85 -0.2 0.9 -0.15 0.9 -0.05 0.9 -0.05 0.95 0.0 0.95 0.1 0.95 0.2 0.95 0.35 0.9 0.4 0.9 0.55 0.85 0.55 0.85 0.45 0.9 0.4 0.9 0.25 0.9 0.15 0.9 0.05 0.9 0.1 Q0.85 0.15 0.9 0.25 L0.85 0.25 0.85 0.15 0.85 0.05 0.8 0.0 0.8 0.0 0.85 -0.05 0.8 -0.05 0.8 -0.1 Q0.8 -0.1 0.8 -0.15 L0.8 -0.2 0.8 -0.25 0.75 -0.2 0.75 -0.2 0.7 -0.2 0.7 -0.2 0.65 -0.1 0.65 -0.15 0.65 -0.2 0.6 -0.25 0.6 -0.25 0.55 -0.25 0.55 -0.2 0.5 -0.15 0.5 -0.1 0.5 -0.05 0.5 -0.05 0.45 -0.05 0.45 0.0 0.45 -0.05 0.4 -0.05 0.4 -0.05 0.4 0.1 0.35 0.1 0.35 0.2 0.35 0.25 0.4 0.3 0.45 0.3 0.5 0.35 0.5 0.4 0.45 0.4 0.4 0.4 0.35 0.35 0.3 0.35 0.25 0.3 0.25 0.4 0.2 0.35 0.15 0.3 0.15 0.3 0.1 0.2 0.1 0.2 0.1 0.15 0.15 0.15 M0.95 0.3 L0.95 0.4 0.95 0.5 0.9 0.55 0.95 0.5 0.95 0.3 M0.8 0.25 L0.85 0.25 0.85 0.3 0.8 0.25 M0.7 0.85 L0.7 0.85" fill="#ac6361" fill-rule="evenodd" stroke="none"/>
    <path d="M0.3 -0.95 L0.3 -0.95 0.3 -0.95 M0.35 -0.85 L0.3 -0.85 0.3 -0.85 0.3 -0.9 0.35 -0.9 0.35 -0.9 0.35 -0.9 0.4 -0.85 0.4 -0.85 0.45 -0.85 0.45 -0.85 0.45 -0.8 0.4 -0.8 0.35 -0.8 0.35 -0.85" fill="#322738" fill-rule="evenodd" stroke="none"/>
    <path d="M0.3 -0.95 L0.3 -0.95 0.3 -0.95 0.25 -0.95 0.3 -1.0 0.3 -1.0 0.35 -0.95 0.35 -0.95 0.35 -0.95 0.45 -0.95 0.45 -0.9 0.45 -0.85 0.45 -0.85 0.4 -0.85 0.4 -0.85 0.35 -0.9 0.35 -0.9 0.35 -0.9 0.3 -0.9 0.3 -0.85 0.3 -0.85 0.35 -0.85 0.35 -0.8 0.3 -0.85 0.3 -0.9 0.3 -0.95 M0.35 -0.95 L0.35 -0.95" fill="#a37077" fill-rule="evenodd" stroke="none"/>
    <path d="M0.35 -0.75 L0.4 -0.75 0.4 -0.7 0.4 -0.65 0.35 -0.65 0.35 -0.6 0.3 -0.6 0.3 -0.65 0.25 -0.65 0.2 -0.7 0.15 -0.75 0.15 -0.75 0.15 -0.9 0.2 -0.95 0.2 -0.95 0.2 -0.9 0.2 -0.85 0.2 -0.9 0.25 -0.95 0.25 -0.85 0.25 -0.85 0.25 -0.8 0.25 -0.75 0.3 -0.7 0.3 -0.65 0.35 -0.7 0.35 -0.7 0.35 -0.75" fill="#9f6477" fill-rule="evenodd" stroke="none"/>
    <path d="M0.85 0.05 L0.8 0.05 0.75 0.05 0.7 0.05 0.7 0.15 0.65 0.1 0.65 0.0 0.6 0.0 0.6 -0.05 0.55 -0.05 0.5 -0.05 0.5 -0.1 0.5 -0.15 0.55 -0.2 0.55 -0.25 0.6 -0.25 0.6 -0.25 0.65 -0.2 0.65 -0.15 0.65 -0.1 0.7 -0.2 0.7 -0.2 0.75 -0.2 0.75 -0.2 0.8 -0.25 0.8 -0.2 0.8 -0.15 Q0.8 -0.1 0.8 -0.1 L0.8 -0.05 0.85 -0.05 0.8 0.0 0.8 0.0 0.85 0.05 M0.7 -0.1 L0.65 -0.05 0.65 -0.05 0.65 0.0 0.65 0.05 0.7 0.05 0.7 0.0 0.75 0.05 0.75 -0.05 0.75 -0.1 0.7 -0.1 0.7 -0.1" fill="#e5a77e" fill-rule="evenodd" stroke="none"/>
    <path d="M0.45 0.0 L0.45 -0.05 0.5 -0.05 0.5 -0.05 0.55 -0.05 0.6 -0.05 0.6 0.0 0.65 0.0 0.65 0.1 0.7 0.15 0.7 0.05 0.75 0.05 0.8 0.05 0.85 0.05 0.85 0.15 0.85 0.25 0.8 0.25 0.75 0.3 0.7 0.25 0.65 0.25 0.6 0.25 0.6 0.2 0.55 0.15 0.5 0.1 Q0.4 0.05 0.45 0.0 L0.45 0.0" fill="#f6e9d0" fill-rule="evenodd" stroke="none"/>
    <path d="M0.45 0.0 L0.45 0.0 Q0.4 0.05 0.5 0.1 L0.55 0.25 0.6 0.3 0.65 0.3 0.65 0.35 0.7 0.35 0.75 0.35 0.7 0.35 0.65 0.4 0.55 0.3 0.5 0.25 0.45 0.2 0.4 0.1 0.4 -0.05 0.4 -0.05 0.45 -0.05 0.45 0.0" fill="#a5737b" fill-rule="evenodd" stroke="none"/>
    <path d="M0.7 -0.1 L0.7 -0.1 0.75 -0.1 0.75 -0.05 0.75 0.05 0.7 0.0 0.7 0.05 0.65 0.05 0.65 0.0 0.65 -0.05 0.65 -0.05 0.7 -0.1" fill="#b87568" fill-rule="evenodd" stroke="none"/>
    <path d="M1.2 -0.2 L1.25 -0.2 1.25 -0.35 1.25 -0.4 1.3 -0.4 1.3 -0.3 1.3 -0.3 1.3 -0.3 1.3 -0.2 1.25 -0.15 1.25 -0.1 1.25 -0.1 1.2 -0.1 1.2 -0.05 1.2 -0.2 M1.3 -0.25 L1.3 -0.3 1.3 -0.2 1.3 -0.25 1.3 -0.25" fill="#6f5765" fill-rule="evenodd" stroke="none"/>
    <path d="M0.05 -2.0 L0.0 -2.0 0.0 -1.95 -0.05 -2.0 -0.05 -2.05 0.0 -2.1 0.0 -2.1 0.05 -2.05 0.05 -2.0 M0.0 -2.0 L0.0 -2.05 0.0 -2.0 M1.3 -0.3 L1.3 -0.3 1.35 -0.3 1.35 -0.2 1.35 -0.2 1.3 -0.15 1.3 -0.2 1.3 -0.3 1.3 -0.3 1.3 -0.25 1.3 -0.25 1.3 -0.2 1.3 -0.3 M1.2 0.1 L1.2 0.05 1.25 0.05 1.25 0.1 1.25 0.2 1.2 0.2 1.2 0.1 1.25 0.15 1.2 0.1 M1.3 -0.15 L1.3 -0.15 M1.1 0.6 L1.1 0.45 1.15 0.45 1.15 0.5 1.2 0.5 1.15 0.55 1.15 0.6 1.1 0.6 M1.15 0.55 L1.15 0.55 M0.3 2.05 L0.3 2.1 0.35 2.1 0.3 2.15 0.3 2.2 0.25 2.1 0.25 2.05 Q0.3 2.05 0.3 2.05 L0.3 2.05 M-0.2 -1.8 L-0.15 -1.8 -0.15 -1.75 -0.2 -1.7 -0.2 -1.7 -0.25 -1.75 -0.25 -1.8 -0.25 -1.8 -0.2 -1.85 -0.2 -1.8 -0.2 -1.8 -0.2 -1.75 -0.2 -1.8 M-0.4 -1.6 L-0.4 -1.55 -0.45 -1.5 -0.45 -1.55 -0.5 -1.6 -0.5 -1.6 -0.45 -1.6 -0.4 -1.6 M-0.45 -0.8 L-0.45 -0.9 -0.4 -0.9 -0.4 -0.85 -0.45 -0.9 -0.45 -0.85 -0.45 -0.8 -0.4 -0.8 -0.4 -0.85 -0.4 -0.8 -0.45 -0.75 -0.45 -0.8 M-0.45 -1.6 L-0.45 -1.55 -0.45 -1.6 M-0.35 -1.15 L-0.4 -1.1 -0.4 -1.1 -0.45 -1.15 -0.45 -1.2 -0.4 -1.25 -0.35 -1.2 -0.35 -1.15 M-0.4 -1.2 L-0.4 -1.2 -0.4 -1.15 -0.4 -1.2 M-0.45 -0.5 L-0.45 -0.4 -0.45 -0.35 -0.45 -0.35 -0.5 -0.35 -0.5 -0.4 -0.5 -0.5 -0.45 -0.5 M-0.5 -0.1 L-0.5 -0.05 -0.5 -0.05 -0.55 0.0 -0.55 -0.05 -0.55 -0.15 -0.5 -0.1 M-0.55 -0.1 L-0.55 -0.1 -0.55 -0.05 -0.55 -0.1 M-0.65 0.8 L-0.65 0.8 -0.65 0.7 -0.65 0.7 -0.6 0.7 -0.6 0.75 -0.6 0.8 -0.65 0.85 -0.65 0.8 -0.6 0.8 -0.6 0.75 -0.65 0.75 -0.65 0.8 M-0.6 0.4 L-0.65 0.35 -0.65 0.3 -0.6 0.25 -0.6 0.3 -0.55 0.35 -0.55 0.35 -0.6 0.4 -0.6 0.4 M-0.45 -0.45 L-0.45 -0.45 -0.5 -0.4 -0.45 -0.4 -0.45 -0.45 -0.5 -0.45 -0.45 -0.45 M-0.6 0.3 L-0.6 0.35 -0.6 0.3 M-0.45 1.5 L-0.5 1.45 -0.5 1.4 -0.45 1.35 -0.45 1.4 -0.4 1.4 -0.4 1.45 -0.45 1.5 -0.45 1.5 M-0.4 1.4 L-0.4 1.4 M-0.45 1.4 L-0.45 1.45 -0.45 1.4 M-0.3 1.7 L-0.3 1.65 -0.25 1.7 -0.25 1.75 -0.25 1.8 -0.3 1.8 -0.3 1.7 -0.3 1.7 -0.3 1.75 -0.25 1.75 -0.3 1.7 -0.3 1.7 M-0.1 1.95 L-0.1 2.0 Q-0.1 1.95 -0.1 1.95 L-0.1 1.95 M-0.05 1.95 L-0.05 2.0 -0.1 2.0 -0.1 2.05 -0.15 1.95 -0.15 1.9 -0.1 1.9 -0.05 1.95" fill="#6f5058" fill-rule="evenodd" stroke="none"/>
    <path d="M1.25 0.25 L1.2 0.5 1.2 0.6 1.15 0.6 1.15 0.6 1.15 0.55 1.2 0.5 1.15 0.5 1.15 0.45 1.15 0.35 1.2 0.35 1.2 0.2 1.25 0.2 1.25 0.1 1.25 0.05 Q1.25 0.05 1.25 0.0 L1.3 -0.05 1.3 -0.15 1.3 -0.15 1.35 -0.15 1.3 -0.1 1.3 0.0 1.3 0.1 1.25 0.15 1.25 0.25" fill="#e8d8bf" fill-rule="evenodd" stroke="none"/>
    <path d="M1.2 -0.05 L1.2 -0.1 1.25 -0.1 1.25 -0.1 1.25 -0.15 1.3 -0.2 1.3 -0.15 1.3 -0.05 1.25 0.0 Q1.25 0.05 1.25 0.05 L1.2 0.05 1.2 0.1 1.15 0.15 1.15 0.2 1.15 0.15 1.2 0.0 1.2 -0.05" fill="#c5a495" fill-rule="evenodd" stroke="none"/>
    <path d="M1.05 0.25 L1.05 0.2 1.1 0.15 1.1 0.1 1.15 0.05 1.15 -0.1 1.2 -0.15 1.2 -0.2 1.2 -0.05 1.2 0.0 1.15 0.15 1.15 0.2 1.1 0.25 1.05 0.25" fill="#c6a498" fill-rule="evenodd" stroke="none"/>
    <path d="M1.0 -0.35 L1.0 -0.4 1.05 -0.4 1.05 -0.4 1.0 -0.35 1.05 -0.35 1.0 -0.35 1.0 -0.35 1.0 -0.35 M1.0 -0.4 L1.0 -0.4" fill="#e8af78" fill-rule="evenodd" stroke="none"/>
    <path d="M0.85 0.55 L0.85 0.65 0.8 0.65 0.8 0.7 0.75 0.7 0.75 0.65 0.7 0.65 0.65 0.6 0.65 0.5 0.65 0.4 0.6 0.5 0.55 0.5 0.55 0.55 0.5 0.55 0.4 0.6 0.35 0.55 0.3 0.55 0.25 0.55 0.2 0.55 0.15 0.5 0.1 0.4 Q0.1 0.35 0.1 0.3 L0.1 0.2 0.1 0.2 0.15 0.3 0.15 0.3 0.2 0.35 0.25 0.4 0.25 0.3 0.3 0.35 0.35 0.35 0.4 0.4 0.45 0.4 0.5 0.4 0.5 0.35 0.45 0.3 0.4 0.3 0.35 0.25 0.35 0.2 0.4 0.2 Q0.45 0.2 0.45 0.2 L0.5 0.25 0.55 0.3 0.65 0.4 0.7 0.35 0.75 0.35 0.8 0.35 0.8 0.45 0.85 0.45 0.85 0.4 0.85 0.25 0.9 0.25 Q0.85 0.15 0.9 0.1 L0.9 0.05 0.9 0.15 0.9 0.25 0.9 0.4 0.85 0.45 0.85 0.55" fill="#604252" fill-rule="evenodd" stroke="none"/>
    <path d="M0.95 0.25 L0.95 0.2 1.0 0.15 0.95 0.3 0.95 0.25" fill="#624156" fill-rule="evenodd" stroke="none"/>
    <path d="M1.15 0.2 L1.15 0.15 1.2 0.1 1.2 0.2 1.15 0.3 1.15 0.2" fill="#78616b" fill-rule="evenodd" stroke="none"/>
    <path d="M1.1 0.35 L1.15 0.2 1.15 0.3 1.2 0.2 1.2 0.35 1.15 0.35 1.15 0.45 1.15 0.4 1.1 0.35" fill="#9d8988" fill-rule="evenodd" stroke="none"/>
    <path d="M1.2 0.6 L1.1 0.95 1.1 0.85 1.1 0.8 1.1 0.65 1.1 0.6 1.15 0.6 1.15 0.6 1.2 0.6" fill="#b89c90" fill-rule="evenodd" stroke="none"/>
    <path d="M1.1 0.35 L1.15 0.4 1.15 0.45 1.1 0.45 1.1 0.6 1.1 0.45 1.1 0.35 M0.9 1.1 L0.95 0.95 1.0 0.8 1.05 0.65 1.1 0.6 1.1 0.65 1.1 0.8 1.05 0.85 1.05 0.95 1.0 0.95 1.0 1.0 0.95 1.1 0.9 1.1" fill="#9d898b" fill-rule="evenodd" stroke="none"/>
    <path d="M1.1 0.95 L1.05 1.15 1.0 1.35 1.0 1.25 1.0 1.15 1.0 1.05 1.05 1.0 1.05 0.95 1.05 0.85 1.1 0.8 1.1 0.85 1.1 0.95" fill="#ded0c5" fill-rule="evenodd" stroke="none"/>
    <path d="M1.0 1.35 Q0.9 1.75 0.7 2.0 L0.65 2.05 0.55 2.15 0.5 2.2 0.45 2.2 0.5 2.15 0.55 2.1 0.6 2.05 0.65 2.05 0.65 1.95 0.7 1.9 0.7 1.85 0.7 1.75 0.75 1.65 0.8 1.45 0.8 1.4 0.85 1.3 0.9 1.15 0.9 1.1 0.95 1.1 1.0 1.0 1.0 0.95 1.05 0.95 1.05 1.0 1.0 1.05 1.0 1.15 1.0 1.25 1.0 1.35 M0.2 2.2 L0.0 2.2 0.05 2.15 0.0 2.05 0.0 1.95 0.0 1.9 0.05 2.0 0.1 2.05 0.15 2.05 0.2 2.05 0.2 2.0 0.25 2.0 0.45 1.9 0.55 1.85 0.55 1.95 0.55 2.0 0.5 2.0 0.45 2.0 0.4 2.0 0.35 2.05 0.3 2.05 Q0.3 2.05 0.25 2.05 L0.25 2.1 0.2 2.15 0.2 2.2" fill="#b58d83" fill-rule="evenodd" stroke="none"/>
    <path d="M0.95 0.65 L0.95 0.6 1.0 0.5 1.0 0.45 1.05 0.3 1.05 0.25 1.1 0.25 1.15 0.2 1.1 0.35 1.1 0.45 1.1 0.6 1.05 0.65 1.0 0.8 0.95 0.95 0.9 1.1 0.9 1.15 0.85 1.3 0.8 1.4 0.75 1.45 0.7 1.55 0.65 1.6 0.6 1.6 0.55 1.55 0.55 1.55 0.55 1.5 0.6 1.45 0.65 1.4 0.65 1.35 0.65 1.3 0.65 1.2 0.7 1.2 0.7 1.15 0.7 1.1 0.7 1.05 0.75 1.05 0.8 1.0 0.85 0.95 0.9 0.95 0.9 0.85 0.9 0.75 0.95 0.7 0.95 0.65" fill="#f1e7db" fill-rule="evenodd" stroke="none"/>
    <path d="M0.85 0.25 L0.85 0.4 0.8 0.4 0.8 0.35 0.75 0.35 0.75 0.3 0.8 0.3 0.85 0.3 0.85 0.25" fill="#f1e3c7" fill-rule="evenodd" stroke="none"/>
    <path d="M0.85 0.4 L0.85 0.45 0.8 0.45 0.8 0.35 0.8 0.4 0.85 0.4" fill="#c26d54" fill-rule="evenodd" stroke="none"/>
    <path d="M0.6 0.8 L0.65 0.8 0.65 0.9 0.65 0.85 0.6 0.85 0.6 0.8 M0.65 1.3 L0.65 1.35 0.65 1.3 0.6 1.25 0.65 1.15 0.65 1.3" fill="#a58d9a" fill-rule="evenodd" stroke="none"/>
    <path d="M0.5 1.6 L0.5 1.5 0.5 1.4 0.55 1.35 0.55 1.3 0.55 1.2 0.6 1.2 0.6 1.15 0.65 1.1 0.65 1.05 0.65 0.9 0.65 0.8 0.7 0.85 0.7 0.9 0.7 1.05 0.7 1.1 0.7 1.15 0.7 1.2 0.65 1.2 0.65 1.3 0.65 1.15 0.6 1.25 0.65 1.3 0.65 1.35 0.65 1.4 0.6 1.45 0.55 1.5 0.55 1.55 0.55 1.6 0.5 1.6" fill="#5f4352" fill-rule="evenodd" stroke="none"/>
    <path d="M-0.2 0.25 L-0.15 0.1 -0.05 0.05 -0.05 -0.05 -0.05 -0.05 Q-0.1 0.0 -0.1 0.0 L-0.15 0.0 -0.15 -0.05 -0.1 -0.1 0.0 -0.1 0.0 -0.15 0.05 -0.15 0.05 -0.2 0.1 -0.25 0.15 -0.2 0.15 -0.15 0.1 -0.15 0.1 -0.15 0.05 -0.15 0.05 -0.1 0.0 -0.1 0.0 -0.1 0.05 -0.05 0.05 -0.1 0.1 -0.1 0.1 0.0 0.05 0.05 0.05 0.1 0.1 0.1 0.05 0.15 Q0.0 0.15 0.0 0.2 L0.05 0.2 0.05 0.3 0.0 0.35 0.0 0.35 0.0 0.4 0.0 0.5 0.0 0.45 0.05 0.45 0.05 0.35 0.05 0.4 0.0 0.5 0.0 0.75 0.0 0.9 -0.05 0.95 -0.05 1.0 -0.1 1.05 -0.1 1.05 -0.1 1.0 -0.1 1.0 -0.1 1.0 -0.05 0.9 -0.05 0.7 -0.05 0.7 -0.1 0.7 -0.1 0.65 -0.05 0.6 -0.05 0.55 -0.05 0.5 -0.1 0.5 -0.1 0.45 -0.1 0.3 -0.1 0.25 -0.05 0.15 -0.05 0.05 -0.05 0.1 -0.1 0.15 -0.1 0.15 -0.15 0.15 -0.15 0.25 -0.15 0.4 -0.2 0.45 -0.25 0.45 -0.25 0.45 -0.2 0.4 -0.2 0.3 -0.2 0.25 M0.0 0.95 L0.0 0.75 0.0 0.65 0.05 0.6 0.05 0.5 0.05 0.55 0.1 0.55 0.1 0.45 0.1 0.4 0.15 0.5 0.2 0.55 0.2 0.65 0.25 0.65 0.3 0.7 0.35 0.75 0.4 0.75 0.45 0.75 0.55 0.8 0.6 0.8 0.55 0.85 0.5 0.9 0.45 1.0 0.45 1.05 0.4 1.1 0.4 1.25 Q0.4 1.2 0.4 1.1 L0.4 1.05 0.4 1.1 0.35 1.3 0.35 1.35 0.4 1.4 0.35 1.45 0.4 1.45 0.35 1.5 0.35 1.5 0.35 1.4 0.35 1.25 0.3 1.4 0.3 1.35 0.25 1.5 0.2 1.65 0.2 1.75 0.2 1.85 0.2 1.9 0.15 1.9 0.2 1.85 0.2 1.8 0.15 1.75 0.15 1.65 0.25 1.45 0.25 1.35 0.3 1.25 0.3 1.2 0.25 1.25 0.25 1.1 0.25 1.15 0.25 1.25 0.2 1.3 0.2 1.35 0.15 1.4 0.15 1.45 0.1 1.45 0.15 1.5 0.1 1.45 Q0.1 1.4 0.15 1.4 L0.15 1.35 0.2 1.25 0.2 1.05 0.15 1.05 0.15 0.95 0.15 1.0 0.1 1.05 0.1 1.15 0.05 1.15 0.05 1.35 0.0 1.5 0.0 1.55 -0.05 1.6 -0.05 1.65 -0.05 1.6 -0.05 1.6 0.0 1.45 0.0 1.35 0.05 1.3 0.05 1.15 0.05 1.0 0.05 1.0 0.0 1.05 0.0 1.0 0.0 0.95 M0.4 1.7 L0.35 1.65 0.35 1.6 0.4 1.65 0.4 1.7" fill="#614252" fill-rule="evenodd" stroke="none"/>
    <path d="M0.5 0.1 L0.55 0.15 0.6 0.2 0.6 0.25 0.65 0.25 0.7 0.25 0.75 0.3 0.8 0.25 0.85 0.3 0.8 0.3 0.75 0.3 0.75 0.35 0.7 0.35 0.65 0.35 0.65 0.3 0.6 0.3 0.55 0.25 0.5 0.1" fill="#74515b" fill-rule="evenodd" stroke="none"/>
    <path d="M-0.2 -1.0 L-0.15 -1.0 -0.1 -1.0 -0.1 -1.05 0.0 -1.15 0.05 -1.2 0.0 -1.1 -0.05 -1.05 -0.15 -0.95 -0.15 -0.9 -0.15 -0.9 -0.1 -0.9 -0.1 -0.9 Q-0.05 -0.9 0.0 -0.9 L0.0 -1.0 0.0 -1.05 0.05 -1.0 0.05 -1.0 0.0 -0.95 0.0 -0.9 Q-0.05 -0.85 -0.1 -0.85 -0.15 -0.85 -0.2 -0.7 L-0.2 -0.55 -0.2 -0.45 -0.2 -0.5 -0.15 -0.55 -0.15 -0.65 -0.1 -0.65 -0.1 -0.7 -0.05 -0.7 -0.05 -0.7 -0.05 -0.65 -0.1 -0.6 -0.15 -0.5 -0.15 -0.4 -0.2 -0.35 -0.2 -0.3 -0.15 -0.35 -0.1 -0.45 -0.05 -0.5 0.0 -0.6 0.0 -0.65 0.0 -0.65 0.05 -0.65 0.05 -0.6 0.0 -0.55 0.0 -0.45 -0.05 -0.4 -0.1 -0.35 -0.15 -0.25 -0.2 -0.2 -0.2 -0.15 -0.25 -0.05 -0.25 0.05 -0.2 0.0 -0.2 -0.1 -0.15 -0.15 -0.1 -0.2 0.05 -0.3 0.1 -0.4 0.1 -0.5 0.15 -0.55 0.15 -0.5 0.15 -0.45 0.1 -0.4 0.05 -0.3 0.0 -0.25 -0.1 -0.15 Q-0.1 -0.15 -0.15 -0.1 L-0.2 0.05 -0.2 0.15 -0.25 0.25 -0.2 0.25 -0.2 0.3 -0.2 0.4 -0.25 0.45 -0.25 0.45 -0.2 0.45 -0.15 0.4 -0.15 0.25 -0.15 0.15 -0.1 0.15 -0.1 0.15 -0.05 0.1 -0.05 0.05 -0.05 0.15 -0.1 0.25 -0.1 0.3 -0.1 0.45 -0.1 0.5 -0.05 0.5 -0.05 0.55 -0.05 0.6 -0.1 0.65 -0.1 0.7 -0.05 0.7 -0.05 0.7 -0.05 0.9 -0.1 1.0 -0.1 1.0 -0.1 0.95 -0.15 0.85 Q-0.15 0.8 -0.2 0.85 L-0.2 0.8 -0.2 0.7 -0.25 0.7 -0.3 0.75 -0.3 0.65 -0.3 0.65 -0.3 0.6 -0.35 0.55 -0.35 0.5 -0.35 0.45 -0.3 0.4 -0.25 0.3 Q-0.25 0.25 -0.25 0.25 L-0.3 0.1 -0.3 0.05 -0.35 0.0 -0.35 -0.1 -0.3 -0.2 -0.3 -0.2 -0.25 -0.3 -0.25 -0.4 -0.25 -0.5 -0.25 -0.65 -0.25 -0.75 -0.25 -0.85 -0.2 -0.9 -0.2 -1.0 M0.0 0.9 L0.0 0.95 0.0 1.0 0.0 1.05 0.0 0.9 M0.4 0.6 L0.5 0.55 0.55 0.55 0.55 0.5 0.6 0.5 0.65 0.4 0.65 0.5 0.65 0.6 0.7 0.65 0.7 0.7 0.7 0.75 0.65 0.75 0.6 0.7 0.55 0.7 0.5 0.7 0.5 0.65 0.45 0.65 0.45 0.6 0.4 0.6 M-0.1 1.5 L-0.1 1.5 -0.05 1.55 -0.05 1.6 -0.1 1.5 M-0.1 1.95 L-0.1 1.95 Q-0.1 1.95 -0.1 2.0 L-0.1 1.95" fill="#2b1f2c" fill-rule="evenodd" stroke="none"/>
    <path d="M0.45 0.2 Q0.45 0.2 0.4 0.2 L0.35 0.2 0.35 0.1 0.4 0.1 0.45 0.2" fill="#dbcdbd" fill-rule="evenodd" stroke="none"/>
    <path d="M0.15 -0.15 L0.15 -0.1 0.15 0.0 0.15 0.15 0.1 0.15 0.1 0.2 0.1 0.3 Q0.1 0.35 0.1 0.4 L0.1 0.45 0.1 0.55 0.05 0.55 0.05 0.5 0.05 0.6 0.0 0.65 0.0 0.75 0.0 0.95 0.0 0.9 0.0 0.75 0.0 0.5 0.05 0.4 0.05 0.35 0.05 0.45 0.0 0.45 0.0 0.5 0.0 0.4 0.0 0.35 0.0 0.35 0.05 0.3 0.05 0.2 0.0 0.2 Q0.0 0.15 0.05 0.15 L0.1 0.1 0.05 0.1 0.05 0.05 0.1 0.0 0.1 -0.1 0.05 -0.1 0.05 -0.05 0.0 -0.1 0.0 -0.1 0.05 -0.1 0.05 -0.15 0.1 -0.15 0.1 -0.15 0.15 -0.15 M0.0 0.9 L0.0 0.9" fill="#31283d" fill-rule="evenodd" stroke="none"/>
    <path d="M0.4 0.6 L0.45 0.6 0.45 0.65 0.5 0.65 0.5 0.7 0.55 0.7 0.6 0.7 0.55 0.7 0.5 0.7 0.45 0.7 0.4 0.7 0.35 0.7 0.3 0.7 0.3 0.65 0.25 0.65 0.2 0.65 0.2 0.55 0.25 0.55 0.3 0.55 0.35 0.55 0.4 0.6" fill="#934f56" fill-rule="evenodd" stroke="none"/>
    <path d="M0.6 0.7 L0.65 0.75 0.7 0.75 0.7 0.8 0.65 0.8 0.6 0.8 0.55 0.8 0.45 0.75 0.4 0.75 0.35 0.75 0.3 0.7 0.25 0.65 0.3 0.65 0.3 0.7 0.35 0.7 0.4 0.7 0.45 0.7 0.5 0.7 0.55 0.7 0.6 0.7 M0.7 0.8 L0.75 0.8 0.7 0.8" fill="#bfa6a1" fill-rule="evenodd" stroke="none"/>
    <path d="M0.55 1.3 L0.55 1.2 0.55 1.15 0.5 1.2 0.5 1.35 0.5 1.55 0.45 1.55 0.5 1.5 0.5 1.45 0.45 1.45 0.5 1.4 0.5 1.35 0.45 1.35 0.45 1.25 0.45 1.35 0.45 1.45 0.4 1.45 0.4 1.55 0.4 1.45 0.35 1.45 0.4 1.4 0.35 1.35 0.35 1.3 0.4 1.1 0.4 1.05 0.4 1.1 Q0.4 1.2 0.4 1.25 L0.4 1.1 0.45 1.05 0.45 1.0 0.5 0.9 0.55 0.85 0.6 0.9 0.65 0.9 0.65 0.95 0.65 1.05 0.6 1.05 0.55 1.2 0.55 1.3" fill="#815d67" fill-rule="evenodd" stroke="none"/>
    <path d="M0.0 0.9 L0.0 0.9 0.0 1.05 0.0 1.0 0.0 1.05 0.05 1.0 0.05 1.0 0.05 1.15 0.05 1.3 0.0 1.35 0.0 1.45 -0.05 1.6 -0.05 1.6 -0.05 1.55 -0.1 1.5 -0.1 1.5 -0.1 1.4 Q-0.1 1.4 -0.1 1.35 L-0.15 1.35 -0.15 1.35 -0.15 1.25 -0.15 1.15 -0.1 1.1 -0.1 1.05 -0.1 1.05 -0.05 1.0 -0.05 0.95 0.0 0.9 M-0.05 1.6 L-0.05 1.6 M-0.1 1.5 L-0.1 1.5" fill="#9b6062" fill-rule="evenodd" stroke="none"/>
    <path d="M-0.05 1.65 L-0.05 1.6 0.0 1.55 0.0 1.5 0.05 1.35 0.05 1.15 0.1 1.15 0.1 1.05 0.15 1.0 0.15 0.95 0.15 1.05 0.2 1.05 0.2 1.25 0.15 1.35 0.15 1.4 Q0.1 1.4 0.1 1.45 L0.15 1.5 0.1 1.45 0.15 1.45 0.15 1.4 0.2 1.35 0.2 1.3 0.25 1.25 0.25 1.15 0.25 1.1 0.25 1.25 0.3 1.2 0.3 1.25 0.25 1.35 0.25 1.45 0.15 1.65 0.15 1.75 0.2 1.8 0.2 1.85 0.15 1.9 0.2 1.9 0.2 1.85 0.2 1.75 0.2 1.65 0.25 1.5 0.3 1.35 0.3 1.4 0.35 1.25 0.35 1.4 0.35 1.5 0.35 1.5 0.4 1.45 0.4 1.55 0.4 1.45 0.45 1.45 0.45 1.35 0.45 1.25 0.45 1.35 0.5 1.35 0.5 1.4 0.45 1.45 0.5 1.45 0.5 1.5 0.45 1.55 0.5 1.55 0.5 1.35 0.5 1.2 0.55 1.15 0.55 1.2 0.55 1.3 0.55 1.35 0.5 1.4 0.5 1.5 0.5 1.6 0.5 1.65 0.45 1.7 0.4 1.75 0.35 1.8 0.3 1.8 0.3 1.85 0.2 1.9 0.15 1.95 0.1 1.95 0.1 1.9 0.05 1.8 0.0 1.75 0.0 1.7 -0.05 1.65 -0.05 1.65 M0.55 0.85 L0.6 0.8 0.6 0.85 0.65 0.85 0.65 0.9 0.6 0.9 0.55 0.85 M0.55 1.2 L0.6 1.05 0.65 1.05 0.65 0.95 0.65 0.9 0.65 1.05 0.65 1.1 0.6 1.15 0.6 1.2 0.55 1.2 M0.4 1.7 L0.4 1.65 0.35 1.6 0.35 1.65 0.4 1.7" fill="#9b5c64" fill-rule="evenodd" stroke="none"/>
    <path d="M-0.3 0.65 L-0.3 0.65 -0.3 0.75 -0.25 0.7 -0.2 0.7 -0.2 0.8 -0.2 0.85 Q-0.15 0.8 -0.15 0.85 L-0.1 0.95 -0.1 1.0 -0.1 1.0 -0.1 1.05 -0.1 1.1 -0.15 1.1 -0.15 1.15 -0.2 1.2 -0.15 1.25 -0.2 1.25 -0.15 1.25 -0.2 1.3 -0.2 1.35 -0.2 1.35 -0.25 1.35 -0.25 1.35 -0.3 1.3 -0.3 1.35 -0.35 1.35 -0.35 1.3 -0.4 1.25 -0.4 1.2 -0.45 1.15 -0.45 1.1 -0.4 1.1 -0.4 1.05 -0.45 1.05 -0.4 1.0 -0.4 0.9 -0.4 0.95 -0.45 1.0 -0.45 0.95 -0.5 0.95 -0.5 0.9 -0.5 0.8 -0.45 0.8 -0.4 0.85 -0.4 0.9 -0.35 0.9 -0.35 0.8 -0.35 0.7 -0.3 0.65 -0.3 0.65 M-0.15 1.7 L-0.15 1.65 -0.15 1.6 -0.15 1.55 -0.15 1.55 -0.15 1.55 -0.1 1.5 -0.1 1.5 -0.05 1.6 -0.1 1.6 -0.1 1.7 -0.1 1.75 -0.15 1.7 -0.15 1.7 M-0.4 1.1 L-0.35 1.15 -0.35 1.2 -0.3 1.25 -0.3 1.25 -0.25 1.15 -0.25 1.1 -0.25 1.0 -0.25 0.95 -0.3 0.9 -0.35 0.95 -0.4 1.05 -0.4 1.05 -0.4 1.1" fill="#a1949d" fill-rule="evenodd" stroke="none"/>
    <path d="M-0.55 0.75 L-0.55 0.75 -0.5 0.75 -0.5 0.8 -0.5 0.8 -0.5 0.9 -0.5 0.95 -0.45 0.95 -0.45 1.0 -0.4 0.95 -0.4 0.9 -0.4 1.0 -0.45 1.05 -0.4 1.05 -0.4 1.1 -0.45 1.1 -0.45 1.15 -0.4 1.2 -0.4 1.25 -0.35 1.3 -0.35 1.35 -0.3 1.35 -0.3 1.3 -0.25 1.35 -0.25 1.35 -0.2 1.35 -0.2 1.35 -0.2 1.3 -0.15 1.25 -0.2 1.25 -0.15 1.25 -0.2 1.2 -0.15 1.15 -0.15 1.1 -0.1 1.1 -0.15 1.15 -0.15 1.25 -0.15 1.35 -0.15 1.35 -0.1 1.35 Q-0.1 1.4 -0.1 1.4 L-0.1 1.5 -0.15 1.55 -0.15 1.55 -0.15 1.55 -0.15 1.6 -0.15 1.65 -0.15 1.7 -0.15 1.7 -0.25 1.55 -0.3 1.5 -0.35 1.4 -0.45 1.25 -0.5 1.1 -0.5 1.05 -0.5 1.05 -0.55 1.05 -0.55 1.0 -0.55 0.95 -0.55 0.85 -0.55 0.75" fill="#7a707b" fill-rule="evenodd" stroke="none"/>
    <path d="M-0.05 1.65 L-0.05 1.65 0.0 1.7 0.0 1.75 0.05 1.8 0.1 1.9 0.1 1.95 0.15 1.95 0.2 1.9 0.3 1.85 0.3 1.8 0.35 1.8 0.4 1.75 0.45 1.7 0.5 1.65 0.5 1.6 0.55 1.6 0.55 1.55 0.55 1.55 0.6 1.6 0.65 1.6 0.7 1.55 0.75 1.45 0.8 1.4 0.8 1.45 0.75 1.65 0.7 1.75 0.6 1.8 0.55 1.85 0.45 1.9 0.25 2.0 0.2 2.0 0.2 2.05 0.15 2.05 0.1 2.05 0.05 2.0 0.0 1.9 -0.05 1.85 -0.05 1.8 -0.1 1.8 -0.1 1.75 -0.1 1.7 -0.1 1.6 -0.05 1.6 -0.05 1.6 -0.05 1.65 M-0.1 1.75 L-0.1 1.75" fill="#b58f84" fill-rule="evenodd" stroke="none"/>
    <path d="M0.45 2.2 L0.3 2.2 0.2 2.2 0.2 2.15 0.25 2.1 0.25 2.05 0.25 2.1 0.3 2.2 0.3 2.15 0.35 2.1 0.3 2.1 0.3 2.05 0.35 2.05 0.4 2.0 0.45 2.0 0.5 2.0 0.55 2.0 0.55 1.95 0.55 1.85 0.6 1.8 0.7 1.75 0.7 1.85 0.7 1.9 0.65 1.95 0.65 2.05 0.6 2.05 0.55 2.1 0.5 2.15 0.45 2.2" fill="#eee0c6" fill-rule="evenodd" stroke="none"/>
    <path d="M0.3 2.05 L0.3 2.05" fill="#eed1d6" fill-rule="evenodd" stroke="none"/>
    <path d="M-0.55 -0.8 L-0.5 -0.8 -0.5 -0.8 -0.5 -0.65 -0.55 -0.55 -0.55 -0.45 -0.6 -0.25 -0.6 -0.25 -0.6 -0.15 -0.6 -0.2 -0.55 -0.2 -0.55 -0.2 -0.55 -0.25 -0.5 -0.3 -0.5 -0.3 -0.5 -0.35 -0.45 -0.35 -0.45 -0.35 -0.45 -0.4 -0.45 -0.5 -0.45 -0.5 -0.4 -0.6 -0.35 -0.7 -0.35 -0.85 -0.35 -0.85 -0.3 -0.8 -0.35 -0.65 Q-0.35 -0.65 -0.35 -0.6 L-0.4 -0.35 -0.4 -0.25 -0.45 -0.05 -0.45 0.05 -0.5 0.15 -0.5 0.2 -0.55 0.35 -0.55 0.35 -0.6 0.3 -0.6 0.25 -0.65 0.3 -0.65 0.35 -0.6 0.4 -0.6 0.4 -0.6 0.45 -0.6 0.55 -0.6 0.6 -0.6 0.5 -0.65 0.55 -0.65 0.6 -0.65 0.65 -0.65 0.7 -0.65 0.8 -0.65 0.8 -0.65 0.85 -0.7 0.9 -0.65 1.0 -0.65 1.15 -0.65 1.2 -0.6 1.25 -0.6 1.4 -0.55 1.5 -0.5 1.55 -0.5 1.55 -0.55 1.6 Q-0.75 1.3 -0.75 0.75 -0.75 0.3 -0.65 -0.3 L-0.6 -0.5 -0.55 -0.8 M-0.45 -0.85 L-0.45 -0.9 -0.4 -0.85 -0.4 -0.8 -0.45 -0.8 -0.45 -0.85 M-0.55 -0.55 L-0.55 -0.6 -0.55 -0.55 M-0.5 -0.1 L-0.55 -0.15 -0.55 -0.05 -0.55 0.0 -0.5 -0.05 -0.5 -0.05 -0.5 -0.1 M-0.55 -0.1 L-0.55 -0.05 -0.55 -0.1 -0.55 -0.1 M-0.65 -0.05 L-0.65 0.15 -0.7 0.35 -0.7 0.35 -0.65 0.3 -0.65 0.0 -0.6 -0.05 -0.65 -0.05 M-0.45 -0.45 L-0.5 -0.45 -0.45 -0.45 -0.45 -0.4 -0.5 -0.4 -0.45 -0.45 -0.45 -0.45 M-0.55 0.65 L-0.55 0.65 -0.55 0.65 -0.55 0.65 M-0.55 0.75 L-0.55 0.85 -0.55 0.95 -0.55 1.0 -0.55 1.05 -0.55 1.0 -0.55 0.95 -0.6 0.85 -0.6 0.8 -0.55 0.75 -0.55 0.75 M-0.1 1.75 L-0.1 1.75 -0.1 1.8 -0.15 1.9 -0.15 1.9 -0.2 1.95 -0.25 2.05 -0.35 1.85 -0.4 1.85 -0.4 1.8 -0.35 1.75 -0.35 1.65 -0.35 1.65 -0.3 1.65 -0.3 1.7 -0.3 1.7 -0.3 1.8 -0.25 1.8 -0.25 1.75 -0.25 1.7 -0.3 1.65 -0.3 1.6 -0.35 1.6 -0.3 1.6 -0.3 1.6 -0.25 1.6 -0.25 1.65 -0.2 1.65 -0.2 1.7 -0.15 1.7 -0.15 1.7 -0.15 1.7 -0.1 1.75" fill="#a79096" fill-rule="evenodd" stroke="none"/>
    <path d="M-0.1 2.2 L-0.15 2.2 -0.2 2.1 -0.25 2.05 -0.2 1.95 -0.15 1.9 -0.15 1.9 -0.1 1.8 -0.1 1.75 -0.1 1.8 -0.05 1.8 -0.05 1.85 0.0 1.9 0.0 1.95 0.0 1.95 -0.05 1.95 -0.05 2.0 -0.1 2.2 M-0.05 1.95 L-0.1 1.9 -0.15 1.9 -0.15 1.95 -0.1 2.05 -0.1 2.0 -0.05 2.0 -0.05 1.95" fill="#77636e" fill-rule="evenodd" stroke="none"/>
    <path d="M-0.5 1.05 L-0.5 1.1 -0.45 1.25 -0.35 1.4 -0.3 1.5 -0.25 1.55 -0.15 1.7 -0.15 1.7 -0.15 1.7 -0.2 1.7 -0.2 1.65 -0.25 1.65 -0.25 1.6 -0.3 1.6 -0.3 1.6 -0.35 1.6 -0.35 1.55 -0.35 1.5 -0.4 1.45 -0.4 1.4 -0.45 1.3 -0.5 1.15 -0.5 1.05 -0.5 1.05 M-0.4 1.05 L-0.4 1.05 -0.35 0.95 -0.3 0.9 -0.25 0.95 -0.25 1.0 -0.25 1.1 -0.25 1.15 -0.3 1.25 -0.3 1.25 -0.35 1.2 -0.35 1.15 -0.4 1.1 -0.4 1.05 M-0.4 1.4 L-0.4 1.4" fill="#e0dada" fill-rule="evenodd" stroke="none"/>
    <path d="M-0.5 -0.8 L-0.5 -0.8 -0.45 -0.8 -0.45 -0.75 -0.4 -0.8 -0.4 -0.85 -0.35 -0.85 -0.35 -0.85 -0.35 -0.7 -0.4 -0.6 -0.45 -0.5 -0.45 -0.5 -0.5 -0.5 -0.5 -0.4 -0.5 -0.35 -0.45 -0.35 -0.45 -0.35 -0.45 -0.35 -0.5 -0.35 -0.5 -0.3 -0.5 -0.3 -0.55 -0.25 -0.55 -0.2 -0.55 -0.2 -0.6 -0.2 -0.6 -0.15 -0.6 -0.25 -0.6 -0.25 -0.55 -0.45 -0.55 -0.55 -0.5 -0.65 -0.5 -0.8 M-0.55 -0.55 L-0.55 -0.55 M-0.65 -0.05 L-0.6 -0.05 -0.65 0.0 -0.65 0.3 -0.7 0.35 -0.7 0.35 -0.65 0.15 -0.65 -0.05 M-0.5 1.55 L-0.55 1.5 -0.6 1.4 -0.6 1.25 -0.65 1.2 -0.65 1.15 -0.65 1.0 -0.7 0.9 -0.65 0.85 -0.65 0.8 -0.65 0.85 -0.6 0.8 -0.6 0.75 -0.6 0.7 -0.65 0.7 -0.65 0.7 -0.65 0.65 -0.65 0.6 -0.65 0.55 -0.6 0.5 -0.6 0.6 -0.6 0.6 -0.55 0.65 -0.55 0.65 -0.55 0.65 -0.55 0.65 -0.55 0.75 -0.55 0.75 -0.6 0.8 -0.6 0.85 -0.55 0.95 -0.55 1.0 -0.55 1.05 -0.5 1.05 -0.5 1.05 -0.5 1.05 -0.5 1.15 -0.45 1.3 -0.4 1.4 -0.45 1.4 -0.45 1.35 -0.5 1.4 -0.5 1.45 -0.45 1.5 -0.4 1.45 -0.4 1.4 -0.4 1.45 -0.35 1.5 -0.35 1.55 -0.35 1.6 -0.4 1.55 -0.45 1.5 -0.45 1.5 -0.5 1.55 M-0.5 0.15 L-0.45 0.05 -0.5 0.15 -0.5 0.15 M-0.6 0.3 L-0.6 0.35 -0.6 0.3 M-0.65 0.75 L-0.6 0.75 -0.6 0.8 -0.65 0.8 -0.65 0.75 M-0.45 1.4 L-0.45 1.45 -0.45 1.4 M-0.35 1.65 L-0.35 1.6 -0.3 1.6 -0.3 1.65 -0.25 1.7 -0.3 1.65 -0.3 1.7 -0.3 1.7 -0.25 1.75 -0.3 1.75 -0.3 1.7 -0.3 1.65 -0.35 1.65 -0.35 1.65" fill="#816976" fill-rule="evenodd" stroke="none"/>
    <path d="M0.0 2.2 L-0.1 2.2 -0.05 2.0 0.0 1.95 0.0 2.05 0.05 2.15 0.0 2.2" fill="#ecded1" fill-rule="evenodd" stroke="none"/>
    <path d="M0.35 -2.2 L0.4 -2.2 0.4 -2.15 0.35 -2.2" fill="#e1b181" fill-rule="evenodd" stroke="none"/>
    <path d="M-0.05 -2.2 L0.05 -2.2 0.0 -2.15 -0.05 -2.2 M-0.1 -2.1 L-0.1 -2.0 -0.1 -1.95 -0.1 -1.85 -0.1 -1.85 -0.15 -1.8 -0.2 -1.8 -0.2 -1.85 -0.25 -1.8 -0.25 -1.8 -0.25 -1.8 -0.3 -1.8 -0.3 -1.8 -0.35 -1.75 -0.35 -1.75 -0.4 -1.7 -0.4 -1.6 -0.45 -1.6 -0.5 -1.6 -0.5 -1.6 -0.55 -1.6 Q-0.4 -1.65 -0.15 -2.05 L-0.15 -2.05 -0.1 -2.1" fill="#c09890" fill-rule="evenodd" stroke="none"/>
    <path d="M0.05 -2.2 L0.35 -2.2 0.4 -2.15 0.35 -2.1 Q0.35 -2.1 0.4 -2.1 L0.4 -2.05 0.35 -2.05 0.35 -2.05 0.3 -2.05 0.2 -2.1 0.2 -2.15 Q0.15 -2.15 0.15 -2.1 L0.1 -2.05 0.05 -1.95 0.05 -1.95 -0.05 -1.8 -0.2 -1.65 -0.25 -1.6 -0.3 -1.55 -0.3 -1.4 -0.3 -1.4 -0.35 -1.4 -0.45 -1.4 -0.55 -1.35 -0.6 -1.55 -0.55 -1.6 -0.5 -1.6 -0.45 -1.55 -0.45 -1.5 -0.4 -1.55 -0.4 -1.6 -0.4 -1.7 -0.35 -1.75 -0.35 -1.75 -0.3 -1.8 -0.3 -1.8 -0.25 -1.8 -0.25 -1.8 -0.25 -1.75 -0.2 -1.7 -0.2 -1.7 -0.15 -1.75 -0.15 -1.8 -0.2 -1.8 -0.15 -1.8 -0.1 -1.85 -0.1 -1.85 -0.1 -1.95 -0.1 -2.0 -0.1 -2.1 -0.05 -2.2 0.0 -2.15 0.05 -2.2 M0.4 -2.05 L0.4 -2.05 M0.05 -2.0 L0.05 -2.05 0.0 -2.1 0.0 -2.1 -0.05 -2.05 -0.05 -2.0 0.0 -1.95 0.0 -2.0 0.05 -2.0 M-0.45 -1.6 L-0.45 -1.55 -0.45 -1.6" fill="#a07274" fill-rule="evenodd" stroke="none"/>
    <path d="M-0.3 -1.4 L-0.3 -1.55 -0.25 -1.6 -0.2 -1.65 -0.05 -1.8 0.05 -1.95 0.05 -1.95 0.1 -2.05 0.15 -2.1 Q0.15 -2.15 0.2 -2.15 L0.2 -2.1 0.3 -2.05 0.35 -2.05 0.35 -2.05 0.4 -2.05 0.35 -2.05 Q0.35 -2.0 0.25 -2.0 L0.2 -1.95 0.2 -1.9 0.15 -1.9 0.15 -1.8 0.1 -1.75 0.05 -1.7 0.05 -1.6 0.05 -1.6 0.0 -1.55 Q-0.05 -1.55 -0.05 -1.55 L-0.1 -1.5 -0.1 -1.4 -0.15 -1.35 -0.15 -1.3 -0.2 -1.3 -0.2 -1.25 -0.25 -1.2 -0.25 -1.15 -0.3 -1.15 -0.25 -1.25 -0.3 -1.35 -0.3 -1.4" fill="#9c6b6e" fill-rule="evenodd" stroke="none"/>
    <path d="M0.05 -1.6 L0.05 -1.55 0.0 -1.4 -0.05 -1.35 -0.05 -1.35 -0.1 -1.3 -0.1 -1.25 -0.15 -1.2 -0.15 -1.1 -0.15 -1.05 -0.2 -1.0 -0.2 -0.9 -0.25 -0.85 -0.25 -0.75 -0.25 -0.65 -0.25 -0.5 -0.25 -0.4 -0.25 -0.3 -0.3 -0.2 -0.3 -0.2 -0.35 -0.1 -0.35 0.0 -0.3 0.05 -0.3 0.1 -0.25 0.25 Q-0.25 0.25 -0.25 0.3 L-0.3 0.4 -0.35 0.45 -0.35 0.5 -0.35 0.5 -0.4 0.5 -0.4 0.45 -0.4 0.4 -0.4 0.25 -0.4 0.15 -0.4 0.1 -0.4 -0.05 -0.45 0.0 -0.45 0.1 -0.5 0.15 -0.45 0.05 -0.45 -0.05 -0.4 -0.25 -0.4 -0.35 -0.35 -0.6 Q-0.35 -0.65 -0.35 -0.65 L-0.3 -0.8 -0.3 -0.9 -0.25 -1.05 -0.25 -1.15 -0.25 -1.2 -0.2 -1.25 -0.2 -1.3 -0.15 -1.3 -0.15 -1.35 -0.1 -1.4 -0.1 -1.5 -0.05 -1.55 Q-0.05 -1.55 0.0 -1.55 L0.05 -1.6" fill="#908492" fill-rule="evenodd" stroke="none"/>
    <path d="M0.2 -1.9 L0.25 -1.9 0.3 -1.9 0.35 -1.8 0.4 -1.75 0.45 -1.65 0.45 -1.65 0.45 -1.6 0.45 -1.6 0.4 -1.6 0.4 -1.7 0.35 -1.75 0.25 -1.85 0.25 -1.85 0.2 -1.85 0.2 -1.85 0.15 -1.9 0.2 -1.9" fill="#f5e9cf" fill-rule="evenodd" stroke="none"/>
    <path d="M0.1 -1.65 L0.1 -1.6 0.15 -1.55 0.15 -1.55 0.1 -1.5 0.1 -1.4 0.05 -1.45 0.05 -1.6 0.1 -1.65" fill="#efbd98" fill-rule="evenodd" stroke="none"/>
    <path d="M0.45 -1.2 L0.45 -1.15 0.4 -1.15 0.4 -1.15 0.35 -1.15 0.35 -1.15 0.3 -1.2 0.3 -1.2 0.25 -1.25 0.3 -1.3 0.3 -1.25 0.35 -1.25 0.4 -1.25 0.4 -1.25 0.4 -1.25 0.4 -1.2 0.45 -1.2 0.45 -1.2" fill="#7c4b5e" fill-rule="evenodd" stroke="none"/>
    <path d="M0.45 -1.2 L0.45 -1.2 0.4 -1.2 0.45 -1.25 0.45 -1.2 0.5 -1.15 0.45 -1.15 0.45 -1.15 0.45 -1.2" fill="#cd8f7b" fill-rule="evenodd" stroke="none"/>
    <path d="M0.1 -1.0 L0.1 -1.05 0.15 -1.05 0.15 -0.95 0.15 -0.95 0.1 -0.9 0.1 -0.85 0.1 -0.75 0.15 -0.75 0.15 -0.65 0.1 -0.6 0.1 -0.55 0.05 -0.6 0.05 -0.8 0.05 -0.9 0.1 -0.95 0.1 -1.0" fill="#925e72" fill-rule="evenodd" stroke="none"/>
    <path d="M0.35 -0.75 L0.35 -0.7 0.35 -0.7 0.3 -0.65 0.3 -0.7 0.25 -0.75 0.25 -0.8 0.25 -0.85 0.25 -0.85 0.3 -0.85 0.3 -0.8 0.3 -0.8 Q0.35 -0.75 0.35 -0.75 L0.35 -0.75" fill="#eecbac" fill-rule="evenodd" stroke="none"/>
    <path d="M-0.55 -1.35 L-0.45 -1.4 -0.35 -1.4 -0.3 -1.4 -0.3 -1.4 -0.3 -1.35 -0.25 -1.25 -0.3 -1.15 -0.25 -1.15 -0.25 -1.05 -0.3 -0.9 -0.3 -0.8 -0.35 -0.85 -0.35 -0.85 -0.35 -0.85 -0.4 -0.85 -0.4 -0.9 -0.45 -0.9 -0.45 -0.8 -0.5 -0.8 -0.5 -0.8 -0.5 -0.8 -0.55 -0.8 -0.55 -1.35 M-0.35 -1.15 L-0.35 -1.2 -0.4 -1.25 -0.45 -1.2 -0.45 -1.15 -0.4 -1.1 -0.4 -1.1 -0.35 -1.15 M-0.4 -1.2 L-0.4 -1.15 -0.4 -1.2 -0.4 -1.2 M-0.55 -0.55 L-0.55 -0.6 -0.55 -0.55 -0.55 -0.55" fill="#aa7e7d" fill-rule="evenodd" stroke="none"/>
    <path d="M-0.35 0.5 L-0.35 0.55 -0.3 0.6 -0.3 0.65 -0.3 0.65 -0.35 0.7 -0.35 0.8 -0.35 0.9 -0.4 0.9 -0.4 0.85 -0.45 0.8 -0.5 0.8 -0.5 0.8 -0.5 0.75 -0.55 0.75 -0.55 0.75 -0.55 0.65 -0.55 0.45 -0.5 0.25 -0.5 0.15 -0.45 0.1 -0.45 0.0 -0.4 -0.05 -0.4 0.1 -0.4 0.15 -0.4 0.25 -0.4 0.4 -0.4 0.45 -0.4 0.5 -0.35 0.5 -0.35 0.5" fill="#c7b9b6" fill-rule="evenodd" stroke="none"/>
    <path d="M-0.6 0.6 L-0.6 0.55 -0.6 0.45 -0.6 0.4 -0.6 0.4 -0.6 0.4 -0.55 0.35 -0.5 0.2 -0.5 0.15 -0.5 0.25 -0.55 0.45 -0.55 0.65 -0.6 0.6 -0.6 0.6 M-0.5 0.15 L-0.5 0.15 M-0.55 0.65 L-0.55 0.65 -0.55 0.65" fill="#8f818e" fill-rule="evenodd" stroke="none"/>
    <path d="M-0.55 1.6 L-0.5 1.55 -0.5 1.55 -0.45 1.5 -0.45 1.5 -0.4 1.55 -0.35 1.6 -0.35 1.65 -0.35 1.75 -0.4 1.8 -0.4 1.85 -0.55 1.6 M-0.45 1.5 L-0.45 1.5" fill="#e7d6c2" fill-rule="evenodd" stroke="none"/>
    <path d="M1.5 -1.85 L1.55 -2.1 1.5 -2.05 1.5 -2.1 1.4 -2.1 1.4 -2.1 1.35 -2.1 1.25 -2.05 1.2 -2.1 1.2 -2.1 1.2 -2.15 1.15 -2.1 1.15 -2.1 1.1 -2.15 1.1 -2.2 M1.5 -1.85 L1.5 -1.6 1.5 -1.5 1.55 -1.25 1.55 -1.2 1.6 -1.0 1.65 -0.95 Q1.5 -0.85 1.35 -0.1 L1.3 0.2 1.25 0.25 1.2 0.5 1.2 0.6 1.1 0.95 1.05 1.15 1.0 1.35 Q0.9 1.75 0.7 2.0 L0.65 2.05 0.55 2.15 0.5 2.2 M-0.15 2.2 L-0.2 2.1 -0.25 2.05 -0.4 1.85 -0.45 1.8 -0.6 1.6 Q-0.75 1.25 -0.8 0.7 -0.8 0.3 -0.7 -0.3 L-0.65 -0.5 Q-0.6 -0.65 -0.6 -0.85 -0.55 -1.1 -0.6 -1.3 L-0.6 -1.4 -0.65 -1.6 -0.6 -1.6 Q-0.45 -1.7 -0.2 -2.05 L-0.2 -2.05 -0.15 -2.15 -0.1 -2.2 M0.7 -2.2 L0.75 -2.15 0.75 -2.2" fill="none" stroke="#000000" stroke-linecap="round" stroke-linejoin="round" stroke-opacity="0.4509804" stroke-width="1.0"/>
  </g>
</svg>
