<?xml version="1.0" encoding="UTF-8" standalone="no"?>
<svg xmlns:xlink="http://www.w3.org/1999/xlink" height="4.05px" width="3.95px" xmlns="http://www.w3.org/2000/svg">
  <g transform="matrix(1.0, 0.0, 0.0, 1.0, 1.8, 2.2)">
    <path d="M-1.65 -2.2 L-1.6 -2.2 -1.2 -1.8 Q-1.25 -1.7 -1.25 -1.7 L-1.3 -1.8 -1.55 -2.05 -1.65 -2.2" fill="#a09582" fill-rule="evenodd" stroke="none"/>
    <path d="M1.25 0.15 L1.3 0.05 1.1 -0.05 1.0 -0.05 0.65 -0.3 Q0.55 -0.3 0.45 -0.4 L0.4 -0.5 0.35 -0.55 -0.1 -0.95 -0.2 -1.0 -0.7 -1.45 -0.75 -1.45 -0.8 -1.4 -0.75 -1.45 -0.7 -1.5 -1.1 -1.8 Q-1.15 -1.8 -1.15 -1.8 L-1.1 -1.85 -1.15 -1.9 -1.25 -1.95 -1.3 -2.0 -1.45 -2.2 -1.35 -2.2 -0.2 -1.15 -0.05 -1.0 0.7 -0.4 1.05 -0.2 Q1.25 -0.1 1.45 -0.1 1.45 0.0 1.3 0.15 L1.2 0.25 1.15 0.35 1.55 0.75 1.95 1.2 Q2.0 1.25 2.05 1.2 L2.15 1.15 2.15 1.2 2.15 1.35 2.1 1.3 2.05 1.25 Q2.0 1.3 1.95 1.25 L1.35 0.65 1.3 0.7 1.25 0.75 1.55 1.05 1.85 1.35 1.95 1.35 1.9 1.4 1.8 1.45 1.85 1.4 1.15 0.7 1.1 0.65 1.0 0.6 Q0.95 0.5 0.9 0.55 L1.05 0.4 1.2 0.25 1.25 0.15 M-0.8 -1.4 L-0.8 -1.4" fill="#453c31" fill-rule="evenodd" stroke="none"/>
    <path d="M-1.3 -2.0 L-1.25 -1.95 -1.15 -1.9 -1.1 -1.85 -1.15 -1.8 -1.45 -2.1 -1.55 -2.2 -1.5 -2.2 -1.3 -2.0" fill="#afa48e" fill-rule="evenodd" stroke="none"/>
    <path d="M-1.15 -1.8 Q-1.15 -1.8 -1.1 -1.8 L-1.0 -1.7 -0.9 -1.6 -0.85 -1.55 -0.85 -1.55 Q-0.8 -1.45 -0.75 -1.5 L-0.8 -1.45 -0.85 -1.4 -1.0 -1.55 -1.2 -1.75 -1.2 -1.8 -1.6 -2.2 -1.55 -2.2 -1.45 -2.1 -1.15 -1.8" fill="#f6efe0" fill-rule="evenodd" stroke="none"/>
    <path d="M-1.45 -2.2 L-1.3 -2.0 -1.5 -2.2 -1.45 -2.2" fill="#7b7462" fill-rule="evenodd" stroke="none"/>
    <path d="M-1.1 -1.8 L-0.7 -1.5 -0.75 -1.45 -0.8 -1.4 -0.85 -1.35 -0.9 -1.4 -0.95 -1.45 -1.05 -1.55 -1.2 -1.75 -1.0 -1.55 -0.85 -1.4 -0.8 -1.45 -0.75 -1.5 Q-0.8 -1.45 -0.85 -1.55 L-0.85 -1.55 -0.9 -1.6 -1.0 -1.7 -1.1 -1.8" fill="#aba490" fill-rule="evenodd" stroke="none"/>
    <path d="M-0.25 -0.9 L-0.2 -0.9 -0.05 -0.7 0.2 -0.5 0.3 -0.4 0.35 -0.35 0.45 -0.25 Q0.45 -0.2 0.45 -0.15 L-0.2 -0.8 -0.25 -0.85 -0.8 -1.4 -0.75 -1.4 -0.7 -1.4 -0.5 -1.2 -0.3 -0.95 -0.25 -0.95 -0.25 -0.95 -0.25 -0.9" fill="#fbf7e9" fill-rule="evenodd" stroke="none"/>
    <path d="M1.25 0.15 L1.2 0.25 1.15 0.15 1.15 0.1 1.0 0.15 0.85 0.1 0.55 -0.15 Q0.6 -0.35 0.5 -0.25 L0.15 -0.6 -0.2 -0.9 -0.25 -0.9 -0.25 -0.95 -0.3 -0.95 -0.5 -1.2 -0.7 -1.4 -0.75 -1.4 -0.8 -1.4 -0.25 -0.8 -0.2 -0.75 0.4 -0.15 Q0.4 -0.1 0.5 -0.1 L0.55 -0.1 0.55 -0.1 Q0.55 0.0 0.65 0.1 L0.75 0.2 0.85 0.25 0.9 0.3 0.9 0.35 0.85 0.45 0.9 0.5 Q0.9 0.55 0.85 0.55 L0.75 0.5 0.7 0.4 0.7 0.3 Q0.65 0.2 0.55 0.15 0.4 -0.05 0.05 -0.4 L-0.3 -0.8 -0.45 -1.0 -0.55 -1.1 -0.65 -1.2 -0.8 -1.4 -0.75 -1.45 -0.7 -1.45 -0.15 -0.9 -0.1 -0.85 0.55 -0.3 0.6 -0.3 0.6 -0.25 Q0.6 -0.2 0.7 -0.2 L0.75 -0.15 0.9 0.0 Q0.95 0.05 1.05 0.0 L1.15 0.05 1.25 0.15 Q1.3 0.05 1.25 0.15" fill="#a59c87" fill-rule="evenodd" stroke="none"/>
    <path d="M1.2 0.25 L1.05 0.4 0.9 0.55 0.8 0.65 0.7 0.7 Q0.6 0.85 0.5 0.85 0.45 0.5 0.2 0.05 L-0.35 -0.6 -0.4 -0.65 -0.9 -1.25 -0.95 -1.25 -1.0 -1.25 -1.1 -1.45 -1.25 -1.6 -1.8 -2.2 -1.65 -2.2 -1.55 -2.05 -1.3 -1.8 -1.25 -1.7 Q-1.25 -1.7 -1.2 -1.8 L-1.2 -1.75 -1.05 -1.55 -0.95 -1.45 -0.9 -1.4 -0.85 -1.35 -0.8 -1.4 -0.8 -1.4 -0.65 -1.2 -0.55 -1.1 -0.45 -1.0 -0.3 -0.8 0.05 -0.4 Q0.4 -0.05 0.55 0.15 0.65 0.2 0.7 0.3 L0.7 0.4 0.75 0.5 0.85 0.55 Q0.9 0.55 0.9 0.5 L1.2 0.25" fill="#605d50" fill-rule="evenodd" stroke="none"/>
    <path d="M-0.25 -0.95 L-0.25 -0.95 -0.3 -0.95 -0.25 -0.95" fill="#d8c9b1" fill-rule="evenodd" stroke="none"/>
    <path d="M-0.25 -0.9 L-0.2 -0.9 0.15 -0.6 0.5 -0.25 Q0.6 -0.35 0.55 -0.15 L0.85 0.1 1.0 0.15 1.15 0.1 1.15 0.15 1.2 0.25 0.9 0.5 0.85 0.45 0.9 0.35 0.9 0.3 0.85 0.25 0.75 0.2 0.65 0.1 Q0.55 0.0 0.55 -0.1 L0.55 -0.1 0.5 -0.1 Q0.4 -0.1 0.4 -0.15 L-0.2 -0.75 -0.25 -0.8 -0.8 -1.4 -0.25 -0.85 -0.2 -0.8 0.45 -0.15 Q0.45 -0.2 0.45 -0.25 L0.35 -0.35 0.3 -0.4 0.2 -0.5 -0.05 -0.7 -0.2 -0.9 -0.25 -0.9" fill="#e1d5bf" fill-rule="evenodd" stroke="none"/>
    <path d="M-0.7 -1.45 L-0.2 -1.0 -0.1 -0.95 0.35 -0.55 0.4 -0.5 0.45 -0.4 Q0.55 -0.3 0.65 -0.3 L1.0 -0.05 1.1 -0.05 1.3 0.05 1.25 0.15 Q1.3 0.05 1.25 0.15 L1.15 0.05 1.05 0.0 Q0.95 0.05 0.9 0.0 L0.75 -0.15 0.7 -0.2 Q0.6 -0.2 0.6 -0.25 L0.6 -0.3 0.55 -0.3 -0.1 -0.85 -0.15 -0.9 -0.7 -1.45" fill="#736c5b" fill-rule="evenodd" stroke="none"/>
    <path d="M1.9 1.4 L1.95 1.35 1.85 1.35 1.55 1.05 1.25 0.75 1.3 0.7 1.35 0.65 1.95 1.25 Q2.0 1.3 2.05 1.25 L2.1 1.3 2.15 1.35 2.15 1.45 2.1 1.4 Q2.05 1.3 2.05 1.25 L1.9 1.4 M1.3 0.7 L1.55 0.95 1.8 1.2 1.7 1.0 1.6 0.9 1.5 0.8 1.45 0.75 1.4 0.7 1.3 0.7" fill="#938571" fill-rule="evenodd" stroke="none"/>
    <path d="M1.15 0.7 L1.85 1.4 1.5 1.05 1.15 0.7" fill="#c2c2c1" fill-rule="evenodd" stroke="none"/>
    <path d="M2.15 1.65 L1.9 1.4 2.05 1.25 Q2.05 1.3 2.1 1.4 L2.15 1.45 2.15 1.65" fill="#faf3e4" fill-rule="evenodd" stroke="none"/>
    <path d="M1.8 1.45 L1.9 1.4 2.15 1.7 2.15 1.85 1.8 1.55 1.8 1.45" fill="#635b4d" fill-rule="evenodd" stroke="none"/>
    <path d="M2.15 1.65 L2.15 1.7 1.9 1.4 2.15 1.65" fill="#c7b79e" fill-rule="evenodd" stroke="none"/>
    <path d="M1.3 0.7 L1.4 0.7 1.45 0.75 1.5 0.8 1.6 0.9 1.7 1.0 1.8 1.2 1.55 0.95 1.3 0.7" fill="#d4c5b2" fill-rule="evenodd" stroke="none"/>
    <path d="M0.9 0.55 Q0.95 0.5 1.0 0.6 L1.1 0.65 1.15 0.7 1.5 1.05 1.85 1.4 1.8 1.45 1.8 1.55 2.15 1.85 M2.15 1.2 L2.15 1.15 2.05 1.2 Q2.0 1.25 1.95 1.2 L1.55 0.75 1.15 0.35 1.2 0.25 1.3 0.15 Q1.45 0.0 1.45 -0.1 1.25 -0.1 1.05 -0.2 L0.7 -0.4 -0.05 -1.0 -0.2 -1.15 -1.35 -2.2 M-1.8 -2.2 L-1.25 -1.6 -1.1 -1.45 -1.0 -1.25 -0.95 -1.25 -0.9 -1.25 -0.4 -0.65 -0.35 -0.6 0.2 0.05 Q0.45 0.5 0.5 0.85 0.6 0.85 0.7 0.7 L0.8 0.65 0.9 0.55" fill="none" stroke="#000000" stroke-linecap="round" stroke-linejoin="round" stroke-opacity="0.4509804" stroke-width="1.0"/>
  </g>
</svg>
