<?xml version="1.0" encoding="UTF-8" standalone="no"?>
<svg xmlns:xlink="http://www.w3.org/1999/xlink" height="4.0px" width="4.25px" xmlns="http://www.w3.org/2000/svg">
  <g transform="matrix(1.0, 0.0, 0.0, 1.0, 2.1, 2.2)">
    <path d="M-1.8 -1.9 L-2.1 -2.2 -2.0 -2.2 -1.95 -2.15 -1.85 -2.05 -1.75 -1.95 -1.8 -1.9" fill="#168820" fill-rule="evenodd" stroke="none"/>
    <path d="M-2.0 -2.2 L-1.9 -2.2 -1.8 -2.1 -1.75 -2.05 -1.7 -2.0 -1.75 -1.95 -1.85 -2.05 -1.95 -2.15 -2.0 -2.2" fill="#368b4e" fill-rule="evenodd" stroke="none"/>
    <path d="M-1.8 -2.2 L-1.7 -2.2 -1.6 -2.1 -1.65 -2.05 -1.8 -2.2" fill="#156f28" fill-rule="evenodd" stroke="none"/>
    <path d="M-1.7 -2.2 L-1.45 -2.2 -1.5 -2.1 -1.55 -2.1 -1.55 -2.05 -1.6 -2.1 -1.7 -2.2" fill="#5adb83" fill-rule="evenodd" stroke="none"/>
    <path d="M-1.9 -2.2 L-1.8 -2.2 -1.65 -2.05 -1.5 -1.9 -1.7 -2.0 -1.75 -2.05 -1.8 -2.1 -1.9 -2.2" fill="#54c078" fill-rule="evenodd" stroke="none"/>
    <path d="M-1.65 -1.75 L-1.7 -1.8 -1.8 -1.7 -1.8 -1.9 -1.75 -1.95 -1.7 -2.0 -1.5 -1.9 -1.5 -1.85 -1.55 -1.8 -1.55 -1.8 -1.65 -1.75 M-1.5 -1.9 L-1.5 -1.9 -1.5 -1.9" fill="#27332b" fill-rule="evenodd" stroke="none"/>
    <path d="M-1.3 -1.9 L-1.45 -1.95 -1.35 -1.8 -1.25 -1.7 -1.1 -1.6 -0.95 -1.45 -0.9 -1.35 -0.85 -1.2 -0.8 -1.2 -0.85 -1.2 -0.85 -1.15 -1.0 -1.3 -1.1 -1.5 -1.2 -1.6 -1.3 -1.7 -1.5 -1.9 -1.45 -1.95 -1.45 -2.0 -1.55 -2.0 -1.55 -2.05 -1.55 -2.1 -1.5 -2.1 -1.35 -2.0 -1.25 -2.1 -1.3 -2.1 -1.3 -2.05 -1.4 -2.0 -1.3 -1.9 M-1.5 -1.9 L-1.5 -1.9" fill="#33a350" fill-rule="evenodd" stroke="none"/>
    <path d="M0.55 -0.65 L0.55 -0.65 0.7 -0.6 0.9 -0.55 0.7 -0.55 Q0.65 -0.6 0.55 -0.65 M0.8 -0.25 L0.8 -0.25 0.7 -0.1 0.7 -0.3 0.8 -0.25 M-0.1 0.1 L-0.05 0.2 -0.05 0.25 Q0.0 0.25 0.0 0.3 L0.0 0.4 -0.1 0.2 -0.1 0.1 M-1.55 -2.05 L-1.55 -2.0 -1.45 -2.0 -1.45 -1.95 -1.5 -1.9 -1.5 -1.9 -1.65 -2.05 -1.6 -2.1 -1.55 -2.05 -1.55 -2.05" fill="#dcfbeb" fill-rule="evenodd" stroke="none"/>
    <path d="M-1.45 -2.2 L-1.25 -2.2 -1.2 -2.15 -1.25 -2.15 -1.25 -2.1 -1.35 -2.0 -1.5 -2.1 -1.45 -2.2" fill="#304036" fill-rule="evenodd" stroke="none"/>
    <path d="M-1.25 -2.15 L-1.1 -2.05 -0.95 -1.9 -0.85 -1.75 Q-1.0 -1.8 -1.15 -1.95 L-1.3 -2.05 -1.3 -2.1 -1.25 -2.1 -1.25 -2.15" fill="#1aaa2b" fill-rule="evenodd" stroke="none"/>
    <path d="M-1.1 -1.7 L-1.3 -1.85 -1.3 -1.9 -1.4 -2.0 -1.3 -2.05 -1.15 -1.95 -1.1 -1.9 -1.05 -1.8 -1.05 -1.75 -1.1 -1.7" fill="#67e88f" fill-rule="evenodd" stroke="none"/>
    <path d="M-0.95 -1.9 L-0.75 -1.7 -0.7 -1.65 -0.8 -1.5 -0.65 -1.35 -0.7 -1.35 -0.9 -1.55 -1.1 -1.7 -1.05 -1.75 -1.05 -1.8 -1.1 -1.9 -1.15 -1.95 Q-1.0 -1.8 -0.85 -1.75 L-0.95 -1.9" fill="#40c162" fill-rule="evenodd" stroke="none"/>
    <path d="M-0.85 -1.15 L-0.9 -1.1 -1.05 -1.25 -1.55 -1.8 -1.5 -1.85 -1.5 -1.9 -1.3 -1.7 -1.2 -1.6 -1.1 -1.5 -1.0 -1.3 -0.85 -1.15" fill="#61d286" fill-rule="evenodd" stroke="none"/>
    <path d="M-1.3 -1.85 L-1.15 -1.7 -1.0 -1.55 -0.7 -1.35 -0.65 -1.35 -0.75 -1.25 -0.8 -1.2 -0.85 -1.2 -0.9 -1.35 -0.95 -1.45 -1.1 -1.6 -1.25 -1.7 -1.35 -1.8 -1.45 -1.95 -1.3 -1.9 -1.3 -1.85" fill="#0d551a" fill-rule="evenodd" stroke="none"/>
    <path d="M-1.0 -1.0 L-1.25 -1.3 -1.1 -1.15 -1.25 -1.4 -1.4 -1.6 -1.55 -1.8 -1.55 -1.8 -1.05 -1.25 -0.9 -1.1 -1.0 -1.0" fill="#35834e" fill-rule="evenodd" stroke="none"/>
    <path d="M-1.25 -1.3 L-1.65 -1.75 -1.55 -1.8 -1.4 -1.6 -1.25 -1.4 -1.1 -1.15 -1.25 -1.3" fill="#1d792b" fill-rule="evenodd" stroke="none"/>
    <path d="M-0.7 -1.35 L-1.0 -1.55 -1.15 -1.7 -1.3 -1.85 -1.1 -1.7 -0.9 -1.55 -0.7 -1.35" fill="#27a449" fill-rule="evenodd" stroke="none"/>
    <path d="M0.05 -1.35 L0.15 -1.4 0.2 -1.4 0.05 -1.3 -0.1 -1.15 -0.05 -1.0 0.0 -1.0 0.1 -1.05 0.2 -1.15 0.2 -1.2 0.35 -1.25 0.4 -1.25 0.25 -1.1 0.1 -0.95 0.1 -0.95 0.15 -0.85 Q0.25 -0.85 0.3 -0.85 0.35 -0.9 0.35 -1.0 L0.5 -1.05 0.4 -0.9 0.3 -0.75 0.25 -0.75 0.15 -0.6 0.05 -0.5 -0.05 -0.4 -0.15 -0.3 -0.15 -0.2 -0.1 -0.1 -0.05 -0.05 0.0 -0.1 0.1 -0.2 0.05 0.0 0.15 -0.1 0.2 -0.2 0.2 -0.1 0.4 -0.1 0.35 -0.05 0.25 -0.05 0.15 0.0 Q0.05 0.05 0.1 0.2 L0.05 0.1 0.0 0.05 -0.05 0.05 -0.1 0.05 -0.15 0.1 -0.1 0.1 -0.1 0.2 -0.25 0.1 -0.1 0.0 -0.2 -0.15 -0.25 -0.1 -0.3 -0.2 -0.4 -0.1 -0.5 0.05 -0.5 -0.2 -0.4 -0.2 -0.35 -0.3 -0.45 -0.35 -0.45 -0.4 -0.6 -0.25 -0.75 -0.1 -0.75 -0.2 -0.7 -0.35 -0.65 -0.35 -0.6 -0.4 -0.55 -0.45 -0.5 -0.55 -0.65 -0.55 -0.8 -0.45 Q-0.9 -0.4 -0.9 -0.4 L-0.9 -0.5 -0.7 -0.65 -0.8 -0.75 -0.9 -0.85 -1.05 -0.75 -1.0 -0.9 -1.05 -0.95 -1.0 -1.0 -0.9 -1.1 -0.85 -1.15 -0.85 -1.2 -0.65 -1.0 -0.5 -1.1 -0.65 -1.35 -0.5 -1.5 -0.5 -1.55 -0.4 -1.5 -0.25 -1.6 -0.35 -1.45 -0.3 -1.35 -0.2 -1.25 -0.1 -1.2 Q-0.05 -1.25 0.0 -1.25 L0.05 -1.35 M0.15 -0.85 L0.0 -0.95 0.0 -0.95 -0.1 -0.95 -0.2 -0.9 -0.25 -0.8 -0.35 -0.7 -0.45 -0.6 -0.4 -0.5 -0.4 -0.45 -0.35 -0.35 -0.3 -0.4 -0.2 -0.45 -0.15 -0.45 -0.05 -0.45 0.2 -0.7 0.2 -0.8 0.15 -0.9 0.15 -0.85 M0.0 -0.1 L0.0 -0.1 M-0.1 -1.1 L-0.2 -1.2 -0.35 -1.2 -0.45 -1.15 -0.5 -1.1 -0.65 -0.95 -0.7 -0.9 -0.7 -0.7 -0.6 -0.6 -0.45 -0.75 -0.4 -0.75 Q-0.35 -0.75 -0.3 -0.8 L-0.15 -0.95 Q-0.1 -1.0 -0.1 -1.1" fill="#273e28" fill-rule="evenodd" stroke="none"/>
    <path d="M2.1 1.4 L2.15 1.6 2.1 1.55 2.0 1.45 2.1 1.4 M0.45 0.5 L0.55 0.45 0.6 0.5 0.5 0.55 0.45 0.5 M-0.65 -1.0 L-0.85 -1.2 -0.7 -1.3 -0.7 -1.15 -0.65 -1.15 -0.6 -1.2 -0.6 -1.15 -0.55 -1.1 -0.65 -1.0" fill="#dffdee" fill-rule="evenodd" stroke="none"/>
    <path d="M-0.75 -1.25 L-0.65 -1.35 -0.65 -1.35 -0.5 -1.1 -0.65 -1.0 -0.55 -1.1 -0.6 -1.15 -0.6 -1.2 -0.65 -1.15 -0.7 -1.15 -0.7 -1.3 -0.75 -1.25 M-0.5 -1.1 L-0.5 -1.1" fill="#466f53" fill-rule="evenodd" stroke="none"/>
    <path d="M-0.5 -1.1 L-0.45 -1.15 -0.35 -1.2 -0.2 -1.2 -0.1 -1.1 -0.25 -1.0 -0.35 -0.85 -0.45 -1.0 -0.5 -0.95 -0.35 -0.8 -0.4 -0.75 -0.45 -0.75 -0.5 -0.8 -0.6 -0.8 -0.65 -0.85 -0.65 -0.95 -0.5 -1.1 -0.5 -1.1" fill="#55db52" fill-rule="evenodd" stroke="none"/>
    <path d="M-0.45 -0.75 L-0.6 -0.6 -0.7 -0.7 -0.7 -0.9 -0.65 -0.95 -0.65 -0.85 -0.6 -0.8 -0.5 -0.8 -0.45 -0.75" fill="#3f983b" fill-rule="evenodd" stroke="none"/>
    <path d="M-0.75 -1.7 L-0.65 -1.6 -0.5 -1.5 -0.65 -1.35 -0.65 -1.35 -0.8 -1.5 -0.7 -1.65 -0.75 -1.7" fill="#5dde85" fill-rule="evenodd" stroke="none"/>
    <path d="M0.95 -0.65 L1.0 -0.65 1.05 -0.65 0.95 -0.6 1.0 -0.55 0.95 -0.5 0.85 -0.45 0.75 -0.4 0.6 -0.5 0.55 -0.55 0.55 -0.65 Q0.65 -0.6 0.7 -0.55 L0.9 -0.55 0.7 -0.6 0.85 -0.6 0.95 -0.65" fill="#669972" fill-rule="evenodd" stroke="none"/>
    <path d="M-0.3 -1.35 L-0.1 -1.35 0.05 -1.35 0.0 -1.25 Q-0.05 -1.25 -0.1 -1.2 L-0.2 -1.25 -0.3 -1.35" fill="#6eb47b" fill-rule="evenodd" stroke="none"/>
    <path d="M-0.1 -1.1 Q-0.1 -1.0 -0.15 -0.95 L-0.3 -0.8 Q-0.35 -0.75 -0.4 -0.75 L-0.35 -0.8 -0.35 -0.85 -0.25 -1.0 -0.1 -1.1" fill="#3d8538" fill-rule="evenodd" stroke="none"/>
    <path d="M-0.1 -1.15 L0.2 -1.2 0.2 -1.15 0.1 -1.05 0.0 -1.0 -0.05 -1.0 -0.1 -1.15" fill="#62b071" fill-rule="evenodd" stroke="none"/>
    <path d="M-0.25 -0.8 L-0.2 -0.9 -0.1 -0.95 0.0 -0.95 0.0 -0.95 0.15 -0.85 0.05 -0.9 -0.05 -0.9 -0.05 -0.85 -0.15 -0.8 -0.2 -0.7 -0.2 -0.7 -0.1 -0.5 -0.15 -0.5 -0.25 -0.5 -0.3 -0.5 -0.35 -0.55 -0.35 -0.6 -0.25 -0.6 Q-0.25 -0.6 -0.3 -0.65 L-0.35 -0.65 -0.25 -0.8" fill="#52d750" fill-rule="evenodd" stroke="none"/>
    <path d="M0.1 -0.95 L0.25 -1.0 0.35 -1.0 Q0.35 -0.9 0.3 -0.85 0.25 -0.85 0.15 -0.85 L0.1 -0.95 0.1 -0.95" fill="#61b26f" fill-rule="evenodd" stroke="none"/>
    <path d="M-0.2 -0.7 L-0.2 -0.7 -0.15 -0.8 -0.05 -0.85 -0.05 -0.9 0.05 -0.9 0.15 -0.85 0.05 -0.7 -0.05 -0.55 -0.2 -0.7" fill="#6ef571" fill-rule="evenodd" stroke="none"/>
    <path d="M0.15 -0.85 L0.15 -0.9 0.2 -0.8 0.2 -0.7 -0.05 -0.45 -0.15 -0.45 -0.2 -0.45 -0.3 -0.4 -0.35 -0.35 -0.4 -0.45 -0.4 -0.5 -0.45 -0.6 -0.35 -0.7 -0.25 -0.8 -0.35 -0.65 -0.3 -0.65 Q-0.25 -0.6 -0.25 -0.6 L-0.35 -0.6 -0.35 -0.55 -0.3 -0.5 -0.25 -0.5 -0.15 -0.5 -0.1 -0.5 -0.05 -0.55 0.05 -0.7 0.15 -0.85" fill="#449f3b" fill-rule="evenodd" stroke="none"/>
    <path d="M-0.35 -0.8 L-0.5 -0.95 -0.45 -1.0 -0.35 -0.85 -0.35 -0.8" fill="#7bf18f" fill-rule="evenodd" stroke="none"/>
    <path d="M-0.9 -0.5 L-0.8 -0.75 -0.7 -0.65 -0.9 -0.5" fill="#447b4f" fill-rule="evenodd" stroke="none"/>
    <path d="M-0.7 -0.35 L-0.65 -0.55 -0.5 -0.55 -0.55 -0.45 -0.6 -0.4 -0.65 -0.35 -0.7 -0.35" fill="#41794d" fill-rule="evenodd" stroke="none"/>
    <path d="M-0.1 -0.5 L-0.2 -0.7 -0.05 -0.55 -0.1 -0.5" fill="#94f7ab" fill-rule="evenodd" stroke="none"/>
    <path d="M0.25 -0.35 L0.15 -0.25 0.0 -0.1 0.0 -0.1 0.0 -0.1 -0.05 -0.15 -0.05 -0.25 0.0 -0.35 -0.05 -0.4 0.05 -0.5 Q0.2 -0.6 0.35 -0.65 L0.45 -0.6 Q0.35 -0.6 0.3 -0.5 L0.25 -0.35 M0.1 -0.4 L0.1 -0.4 0.15 -0.3 0.15 -0.35 0.1 -0.4" fill="#5df758" fill-rule="evenodd" stroke="none"/>
    <path d="M0.0 -0.1 L-0.05 -0.05 -0.1 -0.1 -0.15 -0.2 -0.15 -0.3 -0.05 -0.4 0.0 -0.35 -0.05 -0.25 -0.05 -0.15 0.0 -0.1 0.0 -0.1 0.0 -0.1" fill="#369633" fill-rule="evenodd" stroke="none"/>
    <path d="M0.1 -0.4 L0.15 -0.35 0.15 -0.3 0.1 -0.4 0.1 -0.4" fill="#a4f9c6" fill-rule="evenodd" stroke="none"/>
    <path d="M0.5 -0.8 L0.6 -0.75 0.7 -0.6 0.55 -0.65 0.55 -0.65 0.5 -0.7 0.45 -0.65 0.5 -0.6 0.55 -0.65 0.55 -0.55 0.6 -0.5 0.75 -0.4 1.0 -0.35 0.85 -0.2 0.8 -0.25 0.8 -0.35 0.65 -0.35 0.6 -0.4 0.55 -0.4 0.5 -0.3 0.5 -0.2 0.4 -0.1 0.35 -0.15 0.45 -0.35 0.3 -0.3 0.2 -0.2 0.15 -0.1 0.05 0.0 0.1 -0.2 0.0 -0.1 0.15 -0.25 0.25 -0.35 0.45 -0.55 0.45 -0.6 0.35 -0.65 Q0.2 -0.6 0.05 -0.5 L0.15 -0.6 0.25 -0.75 0.4 -0.65 0.5 -0.8 M0.8 -0.25 L0.8 -0.25" fill="#34962d" fill-rule="evenodd" stroke="none"/>
    <path d="M-0.25 0.1 L-0.25 0.0 -0.25 -0.1 -0.2 -0.15 -0.1 0.0 -0.25 0.1" fill="#378430" fill-rule="evenodd" stroke="none"/>
    <path d="M0.1 0.25 L0.05 0.2 0.05 0.45 -0.05 0.5 -0.05 0.45 -0.15 0.5 Q-0.15 0.3 -0.25 0.1 L-0.1 0.2 0.0 0.4 0.0 0.3 Q0.0 0.25 -0.05 0.25 L-0.05 0.2 -0.1 0.1 -0.15 0.1 -0.1 0.05 -0.05 0.05 0.0 0.05 0.05 0.1 0.1 0.25" fill="#6e9975" fill-rule="evenodd" stroke="none"/>
    <path d="M0.15 0.0 L0.25 -0.05 0.35 -0.05 0.25 0.05 0.4 0.2 0.15 0.15 0.1 0.1 0.15 0.0" fill="#41b339" fill-rule="evenodd" stroke="none"/>
    <path d="M0.2 0.4 L0.1 0.25 0.05 0.1 0.1 0.2 Q0.05 0.05 0.15 0.0 L0.1 0.1 0.15 0.15 0.2 0.2 0.25 0.3 0.2 0.4" fill="#377a36" fill-rule="evenodd" stroke="none"/>
    <path d="M0.2 -0.2 L0.3 -0.3 0.45 -0.35 0.35 -0.15 0.4 -0.1 0.2 -0.1 0.2 -0.2 M0.3 -0.3 L0.25 -0.2 0.35 -0.15 0.3 -0.3 M0.4 -0.1 L0.4 -0.1" fill="#7ea585" fill-rule="evenodd" stroke="none"/>
    <path d="M0.3 -0.3 L0.35 -0.15 0.25 -0.2 0.3 -0.3" fill="#d2ecdc" fill-rule="evenodd" stroke="none"/>
    <path d="M0.4 -0.1 L0.5 -0.2 0.5 -0.3 0.55 -0.4 0.6 -0.4 0.65 -0.35 0.8 -0.35 0.8 -0.25 0.7 -0.3 0.7 -0.1 0.7 -0.05 0.55 -0.05 0.4 -0.05 0.6 0.2 0.45 0.15 0.35 0.25 0.2 0.2 0.15 0.15 0.4 0.2 0.25 0.05 0.35 -0.05 0.4 -0.1 0.4 -0.1" fill="#61ec54" fill-rule="evenodd" stroke="none"/>
    <path d="M0.5 -0.7 L0.55 -0.65 0.5 -0.6 0.45 -0.65 0.5 -0.7" fill="#71df63" fill-rule="evenodd" stroke="none"/>
    <path d="M0.3 -0.75 L0.5 -0.8 0.4 -0.65 0.25 -0.75 0.3 -0.75" fill="#4fc549" fill-rule="evenodd" stroke="none"/>
    <path d="M0.45 -0.6 L0.45 -0.55 0.25 -0.35 0.3 -0.5 Q0.35 -0.6 0.45 -0.6" fill="#8ced8c" fill-rule="evenodd" stroke="none"/>
    <path d="M0.6 -0.75 L0.95 -0.65 0.85 -0.6 0.7 -0.6 0.6 -0.75" fill="#a8cdab" fill-rule="evenodd" stroke="none"/>
    <path d="M1.0 -0.35 L1.1 -0.3 1.2 -0.3 1.05 -0.25 0.9 -0.15 0.85 -0.05 0.8 0.1 0.7 0.15 0.7 -0.05 0.7 -0.1 0.8 -0.25 0.85 -0.2 1.0 -0.35" fill="#1d4e1c" fill-rule="evenodd" stroke="none"/>
    <path d="M0.8 0.1 L0.85 -0.05 0.95 -0.1 1.0 0.0 0.9 0.0 1.0 0.1 1.0 0.5 0.8 0.3 1.0 0.55 0.95 0.55 0.95 0.5 0.55 0.3 0.65 0.3 0.75 0.25 0.75 0.15 0.8 0.1" fill="#61f35a" fill-rule="evenodd" stroke="none"/>
    <path d="M0.9 -0.15 L1.15 0.0 1.05 0.0 1.0 0.0 0.95 -0.1 0.85 -0.05 0.9 -0.15" fill="#49b744" fill-rule="evenodd" stroke="none"/>
    <path d="M1.0 0.0 L1.05 0.0 1.0 0.1 0.9 0.0 1.0 0.0" fill="#9efbab" fill-rule="evenodd" stroke="none"/>
    <path d="M1.15 0.0 L1.3 0.0 Q1.2 0.05 1.05 0.15 L1.1 0.2 1.15 0.2 1.1 0.3 Q1.05 0.4 1.1 0.45 L1.35 0.7 1.4 0.7 1.6 0.95 1.85 1.15 2.05 1.35 2.15 1.35 2.1 1.4 2.0 1.45 1.85 1.3 1.7 1.2 1.55 1.05 1.4 0.9 1.3 0.8 1.05 0.55 1.0 0.5 1.0 0.1 1.05 0.0 1.15 0.0" fill="#2a4b33" fill-rule="evenodd" stroke="none"/>
    <path d="M1.3 0.0 L1.4 0.05 1.15 0.2 1.1 0.2 1.05 0.15 Q1.2 0.05 1.3 0.0" fill="#1b311d" fill-rule="evenodd" stroke="none"/>
    <path d="M0.7 -0.05 L0.7 0.15 0.6 0.05 0.45 -0.05 0.7 0.2 0.65 0.2 0.6 0.2 0.4 -0.05 0.55 -0.05 0.7 -0.05" fill="#6ffe6d" fill-rule="evenodd" stroke="none"/>
    <path d="M0.7 0.15 L0.75 0.25 0.7 0.25 0.7 0.25 0.7 0.2 0.45 -0.05 0.6 0.05 0.7 0.15" fill="#a0fcc2" fill-rule="evenodd" stroke="none"/>
    <path d="M0.4 0.45 L0.35 0.4 0.5 0.3 0.65 0.2 0.7 0.2 0.7 0.25 0.7 0.25 0.75 0.25 0.7 0.15 0.8 0.1 0.75 0.15 0.75 0.25 0.65 0.3 0.55 0.3 0.95 0.5 Q0.75 0.5 0.6 0.5 L0.55 0.45 0.45 0.5 0.4 0.45" fill="#45ab40" fill-rule="evenodd" stroke="none"/>
    <path d="M0.6 0.2 L0.35 0.25 0.45 0.15 0.6 0.2" fill="#3a9335" fill-rule="evenodd" stroke="none"/>
    <path d="M0.35 0.4 L0.3 0.55 0.25 0.65 0.2 0.5 0.2 0.4 0.25 0.3 0.35 0.25 0.6 0.2 0.65 0.2 0.5 0.3 0.35 0.4" fill="#162a16" fill-rule="evenodd" stroke="none"/>
    <path d="M0.35 0.25 L0.25 0.3 0.2 0.2 0.35 0.25" fill="#98eaa6" fill-rule="evenodd" stroke="none"/>
    <path d="M1.0 0.55 L0.9 0.55 0.8 0.6 0.7 0.75 0.6 0.9 0.4 0.45 0.45 0.5 0.5 0.55 0.6 0.5 Q0.75 0.5 0.95 0.5 L0.95 0.55 1.0 0.55" fill="#214b1d" fill-rule="evenodd" stroke="none"/>
    <path d="M2.05 1.65 L2.0 1.7 1.9 1.6 1.95 1.5 1.65 1.15 1.3 0.85 1.25 0.85 1.15 0.7 1.0 0.55 1.05 0.55 1.3 0.8 1.4 0.9 1.55 1.05 1.7 1.2 1.85 1.3 2.0 1.45 2.05 1.5 2.1 1.6 2.05 1.65" fill="#1f2e23" fill-rule="evenodd" stroke="none"/>
    <path d="M1.0 0.5 L1.05 0.55 1.0 0.55 0.8 0.3 1.0 0.5" fill="#a5f6c2" fill-rule="evenodd" stroke="none"/>
    <path d="M1.05 -0.65 L1.15 -0.7 1.3 -0.7 1.1 -0.55 Q1.05 -0.5 0.95 -0.5 L1.0 -0.55 0.95 -0.6 1.05 -0.65" fill="#415d41" fill-rule="evenodd" stroke="none"/>
    <path d="M2.15 1.35 L2.15 1.5 2.1 1.4 2.15 1.35" fill="#2e3a32" fill-rule="evenodd" stroke="none"/>
    <path d="M2.15 1.5 L2.15 1.6 2.15 1.5" fill="#57c84b" fill-rule="evenodd" stroke="none"/>
    <path d="M2.15 1.6 L2.15 1.8 2.05 1.65 2.1 1.6 2.05 1.5 2.1 1.55 2.15 1.6" fill="#2d7126" fill-rule="evenodd" stroke="none"/>
    <path d="M-0.5 -0.2 L-0.45 -0.35 -0.35 -0.3 -0.4 -0.2 -0.5 -0.2" fill="#477a52" fill-rule="evenodd" stroke="none"/>
    <path d="M0.05 0.45 L0.0 0.6 -0.15 0.75 -0.15 0.5 -0.05 0.45 -0.05 0.5 0.05 0.45" fill="#3a533a" fill-rule="evenodd" stroke="none"/>
    <path d="M0.05 -1.35 L0.15 -1.4 0.2 -1.4 0.05 -1.3 -0.1 -1.15 0.2 -1.2 0.35 -1.25 0.4 -1.25 0.25 -1.1 0.1 -0.95 0.25 -1.0 0.35 -1.0 0.5 -1.05 0.4 -0.9 0.3 -0.75 0.5 -0.8 0.6 -0.75 0.95 -0.65 1.0 -0.65 1.05 -0.65 1.15 -0.7 1.3 -0.7 1.1 -0.55 Q1.05 -0.5 0.95 -0.5 L0.85 -0.45 0.75 -0.4 1.0 -0.35 1.1 -0.3 1.2 -0.3 1.05 -0.25 0.9 -0.15 1.15 0.0 1.3 0.0 1.4 0.05 1.15 0.2 1.1 0.3 Q1.05 0.4 1.1 0.45 L1.35 0.7 1.4 0.7 1.6 0.95 1.85 1.15 2.05 1.35 2.15 1.35 M2.15 1.8 L2.05 1.65 2.0 1.7 1.9 1.6 1.95 1.5 1.65 1.15 1.3 0.85 1.25 0.85 1.15 0.7 1.0 0.55 0.9 0.55 0.8 0.6 0.7 0.75 0.6 0.9 0.4 0.45 0.35 0.4 0.3 0.55 0.25 0.65 0.2 0.5 0.2 0.4 0.1 0.25 0.05 0.2 0.05 0.45 0.0 0.6 -0.15 0.75 -0.15 0.5 Q-0.15 0.3 -0.25 0.1 L-0.25 0.0 -0.25 -0.1 -0.3 -0.2 -0.4 -0.1 -0.5 0.05 -0.5 -0.2 -0.45 -0.35 -0.45 -0.4 -0.6 -0.25 -0.75 -0.1 -0.75 -0.2 -0.7 -0.35 -0.65 -0.55 -0.8 -0.45 Q-0.9 -0.4 -0.9 -0.4 L-0.9 -0.5 -0.8 -0.75 -0.9 -0.85 -1.05 -0.75 -1.0 -0.9 -1.05 -0.95 -1.0 -1.0 -1.25 -1.3 -1.65 -1.75 -1.7 -1.8 -1.8 -1.7 -1.8 -1.9 -2.1 -2.2 M-1.25 -2.2 L-1.2 -2.15 -1.25 -2.15 -1.1 -2.05 -0.95 -1.9 -0.75 -1.7 -0.65 -1.6 -0.5 -1.5 -0.5 -1.55 -0.4 -1.5 -0.25 -1.6 -0.35 -1.45 -0.3 -1.35 -0.1 -1.35 0.05 -1.35 M0.4 0.45 L0.45 0.5" fill="none" stroke="#000000" stroke-linecap="round" stroke-linejoin="round" stroke-opacity="0.4509804" stroke-width="1.0"/>
  </g>
</svg>
