<?xml version="1.0" encoding="UTF-8" standalone="no"?>
<svg xmlns:xlink="http://www.w3.org/1999/xlink" height="3.4px" width="3.25px" xmlns="http://www.w3.org/2000/svg">
  <g transform="matrix(1.0, 0.0, 0.0, 1.0, 1.6, 1.8)">
    <path d="M1.3 -0.95 L1.35 -1.05 1.45 -0.95 1.45 -0.9 1.35 -0.9 1.35 -0.9 1.3 -0.95 1.3 -0.95" fill="#1c250f" fill-rule="evenodd" stroke="none"/>
    <path d="M1.3 -1.0 L1.3 -0.95 1.25 -0.95 1.3 -1.0 M0.9 -1.15 L0.9 -1.05 0.9 -1.15 M0.85 -1.05 L0.9 -1.05 0.9 -0.95 0.9 -0.95 0.85 -0.9 0.8 -0.9 0.85 -0.95 0.85 -1.05 M0.8 -0.9 L0.8 -0.9 M1.3 -0.95 L1.3 -0.95 1.3 -0.95" fill="#4f662b" fill-rule="evenodd" stroke="none"/>
    <path d="M1.05 -1.2 L1.05 -1.2 1.1 -1.2 1.1 -1.2 1.15 -1.2 1.2 -1.15 1.25 -1.1 1.3 -1.05 1.3 -1.0 1.25 -0.95 1.25 -0.9 1.15 -0.85 1.15 -0.9 1.15 -1.0 1.1 -1.05 1.05 -1.05 0.95 -1.0 0.95 -1.05 1.0 -1.15 1.0 -1.15 1.05 -1.2 M0.95 -0.9 L0.9 -0.9 0.95 -0.95 0.95 -0.9 M1.15 -0.85 L1.15 -0.85 1.15 -0.85 M1.25 -0.9 L1.25 -0.9" fill="#ff7263" fill-rule="evenodd" stroke="none"/>
    <path d="M1.1 -1.2 L1.15 -1.2 1.2 -1.2 1.3 -1.15 1.25 -1.1 1.2 -1.15 1.15 -1.2 1.1 -1.2" fill="#3e5022" fill-rule="evenodd" stroke="none"/>
    <path d="M1.45 -0.9 L1.5 -0.85 1.45 -0.75 1.4 -0.75 1.35 -0.7 1.35 -0.7 1.3 -0.75 1.3 -0.9 1.3 -0.9 1.35 -0.9 1.35 -0.9 1.45 -0.9 M-1.3 -1.0 L-1.25 -1.1 -1.2 -1.15 -1.15 -1.15 -1.05 -1.1 -1.1 -1.1 -1.1 -1.05 -1.2 -1.05 -1.2 -1.0 -1.25 -1.05 -1.3 -1.0 M0.15 -0.3 L0.25 -0.2 0.15 -0.15 0.1 -0.15 0.1 -0.25 0.15 -0.3 M1.0 0.0 L1.05 -0.05 1.05 -0.05 1.05 0.0 1.0 0.0 M1.3 -0.75 L1.3 -0.75 M1.1 -0.05 L1.15 -0.1 1.2 -0.05 1.25 0.0 1.25 0.05 1.2 0.1 1.15 0.15 1.05 0.1 1.0 0.05 1.05 0.0 1.1 -0.05 1.1 -0.05 M-1.1 -1.05 L-1.1 -1.05 M-0.25 -0.7 L-0.25 -0.7 -0.25 -0.65 -0.25 -0.7 M-0.3 -0.6 L-0.25 -0.65 -0.25 -0.6 -0.3 -0.6 M-0.25 -0.6 L-0.25 -0.6 M-0.2 0.3 L-0.15 0.35 -0.1 0.35 -0.1 0.35 -0.05 0.35 -0.05 0.35 -0.05 0.45 -0.1 0.45 -0.1 0.45 -0.15 0.45 -0.15 0.45 -0.2 0.4 -0.2 0.35 -0.2 0.3" fill="#2e3c19" fill-rule="evenodd" stroke="none"/>
    <path d="M-0.15 -1.65 L-0.1 -1.65 -0.1 -1.65 -0.15 -1.65 -0.15 -1.65 M-0.05 -1.55 L-0.05 -1.5 -0.05 -1.45 -0.1 -1.4 -0.05 -1.5 -0.05 -1.5 -0.1 -1.6 -0.1 -1.65 -0.05 -1.55 -0.05 -1.55 M1.25 -0.95 L1.3 -0.95 1.3 -0.9 1.3 -0.75 1.25 -0.7 1.2 -0.7 1.15 -0.65 1.15 -0.65 1.15 -0.7 1.2 -0.75 1.25 -0.85 1.25 -0.9 1.25 -0.95 M1.15 -0.65 L1.15 -0.65 M-0.05 -1.5 L-0.05 -1.5" fill="#c03c34" fill-rule="evenodd" stroke="none"/>
    <path d="M0.6 -1.25 L0.6 -1.25 0.55 -1.25 0.55 -1.25 0.65 -1.3 0.65 -1.3 0.6 -1.25 0.6 -1.25 M0.75 -1.2 L0.75 -1.15 0.75 -1.15 0.75 -1.2 M0.6 -1.2 L0.6 -1.15 0.55 -1.2 0.6 -1.2 0.6 -1.2 M0.55 -1.2 L0.55 -1.2 M1.3 -0.95 L1.3 -0.95 1.35 -0.9 1.3 -0.9 1.3 -0.9 1.3 -0.95 M1.25 -0.7 L1.3 -0.75 1.3 -0.7 1.25 -0.7 1.25 -0.7 1.25 -0.7 M1.3 -0.75 L1.3 -0.75 M1.05 0.1 L1.15 0.15 1.2 0.1 1.25 0.05 1.25 0.1 1.2 0.15 1.15 0.15 1.1 0.15 1.05 0.1 M0.8 0.3 L0.75 0.3 0.8 0.3 M-0.3 -0.6 L-0.25 -0.6 -0.25 -0.6 -0.2 -0.55 -0.2 -0.5 -0.15 -0.45 -0.15 -0.4 -0.15 -0.4 -0.15 -0.35 -0.2 -0.35 -0.25 -0.35 -0.3 -0.4 -0.2 -0.4 -0.2 -0.5 -0.25 -0.55 -0.3 -0.6 -0.3 -0.6" fill="#2c3918" fill-rule="evenodd" stroke="none"/>
    <path d="M1.25 -0.9 L1.25 -0.85 1.2 -0.75 1.2 -0.8 1.25 -0.85 1.25 -0.9 1.25 -0.9" fill="#df5348" fill-rule="evenodd" stroke="none"/>
    <path d="M1.15 -0.85 L1.25 -0.9 1.25 -0.85 1.2 -0.8 1.2 -0.85 1.15 -0.85 M-0.3 -1.6 L-0.3 -1.6 -0.25 -1.55 -0.25 -1.5 -0.25 -1.45 -0.3 -1.35 -0.3 -1.35 -0.35 -1.4 -0.4 -1.45 -0.4 -1.55 -0.35 -1.6 -0.3 -1.6 -0.3 -1.6 M-0.9 -0.5 L-0.9 -0.6 -0.85 -0.55 -0.9 -0.55 -0.9 -0.45 -0.9 -0.45 -0.9 -0.5" fill="#a5332d" fill-rule="evenodd" stroke="none"/>
    <path d="M1.2 -0.75 L1.15 -0.7 1.15 -0.85 1.15 -0.85 1.2 -0.85 1.2 -0.8 1.2 -0.75 M-1.1 -0.75 L-1.1 -0.75 -1.05 -0.75 -1.1 -0.75 -1.1 -0.75" fill="#cc3f37" fill-rule="evenodd" stroke="none"/>
    <path d="M-1.35 -0.6 L-1.35 -0.6 -1.4 -0.6 -1.4 -0.75 -1.35 -0.75 -1.3 -0.75 -1.3 -0.75 -1.25 -0.7 -1.25 -0.7 -1.2 -0.6 -1.2 -0.6 -1.15 -0.55 -1.15 -0.5 -1.15 -0.5 -1.2 -0.5 -1.2 -0.5 -1.25 -0.5 -1.25 -0.5 -1.35 -0.55 -1.35 -0.55 -1.35 -0.6 M0.9 -0.9 L0.9 -0.85 0.85 -0.85 0.85 -0.9 0.85 -0.9 0.9 -0.9 M0.5 -0.95 L0.55 -0.95 0.6 -0.9 0.6 -0.9 0.55 -0.8 0.55 -0.8 0.55 -0.85 0.45 -0.85 0.4 -0.85 0.4 -0.85 0.45 -0.9 0.45 -0.95 0.5 -0.95 M0.35 -0.8 L0.4 -0.85 0.35 -0.8 M0.45 -0.3 L0.45 -0.3 0.55 -0.3 0.55 -0.4 0.55 -0.45 0.55 -0.4 0.6 -0.35 0.6 -0.25 0.55 -0.25 0.45 -0.3 0.45 -0.3 M0.2 -0.15 L0.25 -0.15 0.25 -0.1 0.2 -0.15 M0.55 -0.4 L0.6 -0.4 0.6 -0.35 0.6 -0.3 0.6 -0.25 0.6 -0.35 0.6 -0.35 0.55 -0.4 M0.55 -0.45 L0.55 -0.45 M1.0 -0.2 L1.0 -0.2 1.0 -0.15 1.0 -0.2 M1.2 -0.7 L1.25 -0.7 1.25 -0.7 1.25 -0.7 1.2 -0.7 M1.25 -0.7 L1.25 -0.7 M-1.35 -0.75 L-1.35 -0.75 -1.35 -0.75 M-1.25 -0.7 L-1.25 -0.7" fill="#3d4f21" fill-rule="evenodd" stroke="none"/>
    <path d="M1.35 -0.65 L1.4 -0.6 1.4 -0.55 1.4 -0.55 1.35 -0.55 1.25 -0.55 1.25 -0.5 1.2 -0.55 1.2 -0.6 1.25 -0.65 1.25 -0.7 1.25 -0.7 1.25 -0.7 1.3 -0.7 1.35 -0.7 1.35 -0.65 M0.35 -1.05 L0.4 -1.1 0.5 -1.15 0.5 -1.1 0.55 -1.1 0.55 -0.95 0.5 -0.95 0.5 -1.1 0.4 -1.1 0.4 -1.05 0.35 -1.05 0.35 -1.05 0.35 -1.05 M0.55 -1.1 L0.55 -1.1 M0.45 -0.95 L0.5 -0.95 0.45 -0.95 M1.4 -0.6 L1.4 -0.6" fill="#57702f" fill-rule="evenodd" stroke="none"/>
    <path d="M-0.1 -1.65 L-0.05 -1.75 0.05 -1.65 0.05 -1.65 0.05 -1.55 0.05 -1.55 -0.05 -1.55 -0.05 -1.55 -0.1 -1.65 M0.7 -0.1 L0.7 -0.05 0.7 -0.1 M1.25 -0.7 L1.25 -0.7 1.25 -0.7 1.25 -0.7 1.25 -0.7" fill="#4d642a" fill-rule="evenodd" stroke="none"/>
    <path d="M-1.1 -0.8 L-1.1 -0.8 -1.1 -0.75 -1.1 -0.75 -1.1 -0.8" fill="#273315" fill-rule="evenodd" stroke="none"/>
    <path d="M0.25 -1.5 L0.25 -1.55 0.25 -1.5 M0.3 -1.55 L0.35 -1.55 0.35 -1.5 0.3 -1.55 M0.55 -0.8 L0.55 -0.75 0.55 -0.75 0.5 -0.65 0.45 -0.65 0.45 -0.65 0.35 -0.65 0.35 -0.7 0.35 -0.75 0.4 -0.85 0.45 -0.85 0.55 -0.85 0.55 -0.8 M0.55 -0.75 L0.55 -0.75 M1.15 -0.6 L1.15 -0.65 1.1 -0.6 1.15 -0.65 1.1 -0.65 1.15 -0.65 1.15 -0.65 1.15 -0.65 1.2 -0.7 1.25 -0.7 1.25 -0.65 1.2 -0.6 1.15 -0.6 1.2 -0.6 1.15 -0.6 M0.0 0.2 L0.0 0.15 0.0 0.2 M0.1 0.0 L0.1 0.0 0.1 0.0 0.1 0.0 M0.05 0.15 L0.0 0.15 0.05 0.15 M0.0 0.3 L-0.05 0.25 0.0 0.3 0.0 0.3" fill="#3f5222" fill-rule="evenodd" stroke="none"/>
    <path d="M1.25 -0.7 L1.25 -0.7 1.3 -0.7 1.3 -0.7 1.25 -0.7" fill="#1b240f" fill-rule="evenodd" stroke="none"/>
    <path d="M-1.35 -0.75 L-1.4 -0.75 -1.35 -0.8 -1.35 -0.75 -1.35 -0.75 -1.35 -0.75 M-1.0 -1.2 L-1.1 -1.2 -1.15 -1.3 -1.15 -1.4 -1.05 -1.4 -1.0 -1.4 -1.0 -1.35 -1.0 -1.2 M0.7 -1.2 L0.75 -1.2 0.75 -1.2 0.75 -1.2 0.75 -1.15 0.75 -1.1 0.7 -1.05 0.65 -1.1 0.65 -1.1 0.6 -1.2 0.65 -1.2 0.7 -1.2 M0.7 -1.05 L0.7 -1.05 M0.3 -0.95 L0.25 -0.95 0.25 -1.0 0.3 -0.95 M1.3 -0.7 L1.3 -0.75 1.35 -0.7 1.3 -0.7 1.3 -0.7 M1.35 -0.7 L1.35 -0.7 M0.75 0.25 L0.8 0.3 0.75 0.3 0.7 0.25 0.75 0.25 M-1.2 0.0 L-1.15 0.0 -1.05 0.0 -1.05 -0.05 -1.0 -0.05 -1.0 0.0 -1.05 0.1 -1.1 0.15 -1.15 0.15 -1.2 0.15 -1.25 0.15 -1.25 0.1 -1.25 0.05 -1.2 0.0 M-1.0 0.0 L-1.0 0.0 M-1.2 0.15 L-1.2 0.15" fill="#34431c" fill-rule="evenodd" stroke="none"/>
    <path d="M1.4 -0.75 L1.35 -0.7 1.35 -0.7 1.4 -0.75 M1.35 -0.7 L1.35 -0.7 1.35 -0.7" fill="#495e27" fill-rule="evenodd" stroke="none"/>
    <path d="M0.15 -0.4 L0.2 -0.4 0.2 -0.4 0.15 -0.4 0.15 -0.4 M0.2 -0.5 L0.2 -0.5 0.2 -0.5 0.2 -0.5 M0.35 -0.5 L0.4 -0.45 0.45 -0.45 0.55 -0.45 0.55 -0.4 0.55 -0.3 0.45 -0.3 0.45 -0.3 0.4 -0.35 0.35 -0.4 0.35 -0.5 M0.55 -0.4 L0.55 -0.4 M0.55 -0.45 L0.55 -0.45 M0.9 -0.05 L0.95 -0.05 0.95 -0.05 0.9 -0.05" fill="#222c12" fill-rule="evenodd" stroke="none"/>
    <path d="M1.35 -0.7 L1.35 -0.65 1.35 -0.7 1.35 -0.7" fill="#18200d" fill-rule="evenodd" stroke="none"/>
    <path d="M0.7 -1.5 L0.7 -1.45 0.7 -1.4 0.75 -1.35 0.7 -1.3 0.7 -1.3 0.65 -1.25 0.65 -1.2 0.65 -1.3 0.7 -1.4 0.7 -1.5 M0.65 -1.3 L0.65 -1.3" fill="#5e1d19" fill-rule="evenodd" stroke="none"/>
    <path d="M0.55 -1.65 L0.55 -1.65 0.7 -1.6 0.7 -1.5 0.7 -1.4 0.65 -1.3 0.7 -1.4 0.7 -1.4 0.65 -1.5 0.6 -1.55 0.6 -1.6 0.55 -1.65 0.55 -1.65" fill="#832923" fill-rule="evenodd" stroke="none"/>
    <path d="M0.6 -1.5 L0.6 -1.6 0.6 -1.55 0.65 -1.5 0.7 -1.4 0.7 -1.4 0.6 -1.45 0.6 -1.5" fill="#e15449" fill-rule="evenodd" stroke="none"/>
    <path d="M0.55 -1.45 L0.6 -1.45 0.6 -1.45 0.7 -1.4 0.65 -1.3 0.65 -1.3 0.55 -1.25 0.55 -1.25 0.55 -1.25 0.5 -1.3 0.5 -1.3 0.45 -1.3 0.45 -1.35 0.45 -1.4 0.5 -1.4 0.55 -1.4 0.55 -1.45 M0.55 -1.25 L0.55 -1.25 M0.65 -1.3 L0.65 -1.3" fill="#556f2e" fill-rule="evenodd" stroke="none"/>
    <path d="M0.7 -0.8 L0.7 -0.9 0.75 -0.8 0.7 -0.8 M-0.25 -1.1 L-0.2 -1.1 -0.15 -1.1 -0.1 -1.05 -0.1 -1.0 -0.15 -1.05 -0.2 -1.05 -0.2 -1.05 -0.25 -1.1 M-0.3 -0.9 L-0.25 -0.9 -0.25 -0.9 -0.2 -0.95 -0.2 -0.9 -0.2 -0.85 -0.25 -0.85 -0.25 -0.9 -0.3 -0.9" fill="#c83e36" fill-rule="evenodd" stroke="none"/>
    <path d="M0.7 -1.45 L0.8 -1.4 0.8 -1.3 0.8 -1.25 0.75 -1.2 0.75 -1.2 0.7 -1.2 0.7 -1.25 0.7 -1.3 0.7 -1.3 0.75 -1.35 0.7 -1.4 0.7 -1.45 M0.75 -1.2 L0.75 -1.2 M0.0 -0.95 L0.05 -0.95 0.05 -0.9 0.0 -0.9 -0.05 -0.9 -0.05 -0.95 0.0 -0.95 M0.25 -0.85 L0.25 -0.85 0.3 -0.8 0.25 -0.7 0.25 -0.7 0.15 -0.6 0.15 -0.6 0.1 -0.6 0.0 -0.65 0.0 -0.65 -0.05 -0.7 -0.05 -0.75 0.0 -0.75 0.0 -0.7 0.0 -0.7 0.1 -0.65 0.1 -0.65 0.15 -0.7 0.2 -0.7 0.2 -0.7 0.25 -0.75 0.25 -0.8 0.25 -0.85 M-0.05 -0.75 L-0.05 -0.75 M0.0 -0.7 L0.0 -0.7" fill="#ff594d" fill-rule="evenodd" stroke="none"/>
    <path d="M0.7 -1.3 L0.7 -1.25 0.7 -1.2 0.65 -1.2 0.65 -1.25 0.7 -1.3 M1.0 -0.2 L1.0 -0.25 1.05 -0.3 1.0 -0.2 1.0 -0.2 1.0 -0.2 1.0 -0.2 M1.05 -0.3 L1.05 -0.3 M-0.5 -0.8 L-0.5 -0.7 -0.55 -0.65 -0.55 -0.75 -0.5 -0.8" fill="#922d27" fill-rule="evenodd" stroke="none"/>
    <path d="M0.8 -1.3 L0.9 -1.35 0.95 -1.3 0.95 -1.25 0.9 -1.3 0.85 -1.25 0.85 -1.25 0.8 -1.3 M0.95 -1.25 L0.95 -1.25" fill="#263215" fill-rule="evenodd" stroke="none"/>
    <path d="M0.8 -1.3 L0.8 -1.3 0.85 -1.25 0.85 -1.25 0.85 -1.2 0.85 -1.15 0.8 -1.2 0.75 -1.2 0.8 -1.25 0.8 -1.3 M1.0 0.35 L1.05 0.3 1.0 0.35 0.9 0.4 0.85 0.4 0.8 0.35 0.85 0.35 0.9 0.35 0.95 0.4 1.0 0.35 M0.85 0.05 L0.9 0.05 0.8 0.15 0.8 0.1 0.85 0.05" fill="#862a24" fill-rule="evenodd" stroke="none"/>
    <path d="M0.35 -1.55 L0.4 -1.6 0.45 -1.65 0.55 -1.65 0.55 -1.65 0.6 -1.6 0.6 -1.5 0.6 -1.55 0.55 -1.55 0.5 -1.55 0.45 -1.55 0.4 -1.55 0.4 -1.5 0.4 -1.5 0.35 -1.4 0.35 -1.4 0.35 -1.45 0.35 -1.5 0.35 -1.55 M0.55 -1.65 L0.55 -1.65 M1.15 0.25 L1.2 0.15 1.2 0.2 1.2 0.25 1.15 0.25 1.1 0.3 1.15 0.25 M-1.1 -0.6 L-1.1 -0.6 -1.05 -0.6 -1.05 -0.6 -1.0 -0.6 -0.95 -0.5 -1.05 -0.6 -1.1 -0.6 M-1.15 -0.55 L-1.15 -0.5 -1.15 -0.55 -1.15 -0.55" fill="#a3332c" fill-rule="evenodd" stroke="none"/>
    <path d="M0.3 -1.55 L0.25 -1.55 0.25 -1.5 0.2 -1.5 0.15 -1.5 0.15 -1.5 0.1 -1.55 0.2 -1.6 0.25 -1.6 0.3 -1.55 M0.2 -1.5 L0.2 -1.5 M1.25 0.0 L1.3 0.0 1.35 -0.05 1.35 -0.05 1.4 0.0 1.45 0.0 1.45 0.0 1.35 0.05 1.3 0.1 1.25 0.05 1.25 0.0 M0.1 0.1 L0.1 0.15 0.15 0.2 0.2 0.25 0.15 0.25 0.15 0.3 0.1 0.3 0.05 0.3 0.0 0.3 -0.05 0.25 -0.05 0.25 0.0 0.2 0.0 0.15 0.05 0.15 0.1 0.15 0.1 0.1 M-0.05 0.25 L-0.05 0.25" fill="#263114" fill-rule="evenodd" stroke="none"/>
    <path d="M0.25 -1.55 L0.3 -1.55 0.3 -1.55 0.35 -1.5 0.35 -1.45 0.35 -1.4 0.35 -1.35 0.35 -1.3 0.3 -1.3 0.25 -1.25 0.2 -1.35 0.2 -1.35 0.2 -1.4 0.2 -1.4 0.2 -1.5 0.25 -1.5 0.25 -1.55 M0.25 -1.25 L0.25 -1.25 M0.2 -1.5 L0.2 -1.5 M-0.6 -0.4 L-0.6 -0.35 -0.6 -0.4 M-0.6 -0.35 L-0.6 -0.35" fill="#5e7933" fill-rule="evenodd" stroke="none"/>
    <path d="M0.4 -1.5 L0.4 -1.55 0.45 -1.55 0.5 -1.55 0.55 -1.55 0.6 -1.55 0.6 -1.5 0.6 -1.45 0.6 -1.45 0.55 -1.45 0.55 -1.5 0.5 -1.5 0.45 -1.55 0.4 -1.5 0.4 -1.5" fill="#ba3a32" fill-rule="evenodd" stroke="none"/>
    <path d="M0.15 -1.5 L0.15 -1.5 0.2 -1.5 0.2 -1.4 0.2 -1.4 0.15 -1.4 0.15 -1.45 0.05 -1.45 0.05 -1.45 0.0 -1.45 0.0 -1.5 0.1 -1.5 0.15 -1.5 M0.2 -1.5 L0.2 -1.5 M0.1 -1.25 L0.1 -1.25 0.1 -1.25 0.1 -1.25 0.1 -1.25 0.1 -1.25 0.1 -1.25 0.1 -1.25 M0.0 -1.45 L0.0 -1.45" fill="#822823" fill-rule="evenodd" stroke="none"/>
    <path d="M0.2 -1.5 L0.2 -1.5 0.2 -1.5 0.2 -1.5 M-0.05 0.6 L-0.05 0.6 -0.1 0.6 -0.1 0.55 -0.15 0.5 -0.15 0.45 -0.1 0.45 -0.1 0.55 -0.05 0.6" fill="#202a11" fill-rule="evenodd" stroke="none"/>
    <path d="M0.2 -1.35 L0.2 -1.35 0.25 -1.25 0.3 -1.3 0.3 -1.25 0.25 -1.25 0.2 -1.15 0.15 -1.1 0.1 -1.05 0.1 -1.15 0.1 -1.25 0.1 -1.3 0.15 -1.35 0.2 -1.35 M0.1 -1.25 L0.1 -1.25 M-0.25 0.55 L-0.25 0.6 -0.2 0.55 -0.25 0.55 M-0.85 -1.3 L-0.8 -1.3 -0.8 -1.25 -0.75 -1.2 -0.8 -1.15 -0.85 -1.2 -0.85 -1.3 M-0.8 -1.15 L-0.8 -1.15 M-1.3 -0.15 L-1.3 -0.15 -1.35 -0.15 -1.35 -0.1 -1.4 -0.15 -1.4 -0.15 -1.35 -0.15 -1.3 -0.15 M-1.4 -0.15 L-1.4 -0.15 M-0.35 0.45 L-0.35 0.5 -0.35 0.5 -0.3 0.55 -0.35 0.55 -0.35 0.45 -0.35 0.45 -0.35 0.45" fill="#4a6028" fill-rule="evenodd" stroke="none"/>
    <path d="M0.2 -1.4 L0.2 -1.35 0.15 -1.35 0.1 -1.3 0.1 -1.25 0.15 -1.35 0.1 -1.4 0.05 -1.45 0.05 -1.45 0.15 -1.45 0.15 -1.4 0.2 -1.4 M0.05 -1.45 L0.05 -1.45 0.05 -1.45 M0.1 -1.25 L0.1 -1.25 M0.45 -0.05 L0.55 -0.05 0.55 -0.05 0.6 0.0 0.65 -0.05 0.65 -0.05 0.65 0.0 0.6 0.05 0.55 0.05 0.45 0.0 0.45 -0.05 M0.65 -0.05 L0.65 -0.05" fill="#461613" fill-rule="evenodd" stroke="none"/>
    <path d="M0.05 -1.45 L0.1 -1.4 0.15 -1.35 0.1 -1.25 0.1 -1.25 0.1 -1.25 0.05 -1.25 0.05 -1.3 0.05 -1.3 0.1 -1.35 0.0 -1.4 0.05 -1.45" fill="#561b17" fill-rule="evenodd" stroke="none"/>
    <path d="M0.35 -1.45 L0.35 -1.4 0.35 -1.45 M0.35 -1.4 L0.35 -1.4" fill="#d7433a" fill-rule="evenodd" stroke="none"/>
    <path d="M0.35 -1.35 L0.35 -1.4 0.4 -1.4 0.4 -1.4 0.45 -1.3 0.4 -1.3 0.35 -1.3 0.35 -1.35 M0.35 -1.4 L0.35 -1.4 M0.35 -1.2 L0.35 -1.2 0.35 -1.2 0.35 -1.2 0.35 -1.2 M0.45 -1.3 L0.45 -1.3" fill="#1d2610" fill-rule="evenodd" stroke="none"/>
    <path d="M0.35 -1.4 L0.35 -1.4 0.4 -1.5 0.4 -1.5 0.4 -1.5 0.4 -1.4 0.4 -1.4 0.35 -1.4 M-0.35 -1.65 L-0.35 -1.65 -0.35 -1.65 -0.35 -1.7 -0.3 -1.7 -0.35 -1.7 -0.35 -1.65 M-0.25 -1.55 L-0.2 -1.5 -0.2 -1.5 -0.25 -1.5 -0.25 -1.55" fill="#8d2c26" fill-rule="evenodd" stroke="none"/>
    <path d="M0.3 -1.3 L0.35 -1.3 0.35 -1.35 0.35 -1.3 0.35 -1.2 0.3 -1.3 0.3 -1.25 0.3 -1.3 M0.35 -1.2 L0.35 -1.2 M-0.3 -0.05 L-0.2 -0.05 -0.25 -0.05 -0.3 -0.05" fill="#ff6154" fill-rule="evenodd" stroke="none"/>
    <path d="M0.4 -1.5 L0.45 -1.55 0.5 -1.5 0.55 -1.5 0.55 -1.45 0.55 -1.4 0.55 -1.5 0.45 -1.5 0.4 -1.45 0.4 -1.4 0.4 -1.5" fill="#421412" fill-rule="evenodd" stroke="none"/>
    <path d="M0.5 -1.4 L0.45 -1.45 0.4 -1.4 0.4 -1.4 0.4 -1.45 0.45 -1.5 0.55 -1.5 0.55 -1.4 0.5 -1.4 M0.4 -1.4 L0.4 -1.4 M-0.1 -0.85 L-0.15 -0.8 -0.15 -0.75 -0.2 -0.8 -0.2 -0.8 -0.15 -0.8 -0.1 -0.85" fill="#752420" fill-rule="evenodd" stroke="none"/>
    <path d="M0.4 -1.4 L0.4 -1.4 0.45 -1.45 0.5 -1.4 0.45 -1.4 0.45 -1.35 0.4 -1.4 0.4 -1.4 M0.75 -0.25 L0.8 -0.3 0.75 -0.3 0.75 -0.35 0.8 -0.35 0.8 -0.35 0.75 -0.25 M0.8 -0.35 L0.8 -0.35 M0.6 -0.4 L0.55 -0.4 0.6 -0.4 0.6 -0.4 0.6 -0.4" fill="#b33830" fill-rule="evenodd" stroke="none"/>
    <path d="M0.4 -1.4 L0.45 -1.35 0.45 -1.3 0.5 -1.3 0.45 -1.3 0.5 -1.3 0.55 -1.25 0.55 -1.15 0.5 -1.1 0.5 -1.15 0.4 -1.1 0.35 -1.05 0.35 -1.2 0.4 -1.25 0.45 -1.3 0.4 -1.4 M0.45 -1.3 L0.45 -1.3 0.45 -1.3 M0.35 -1.2 L0.35 -1.2 M0.35 -1.05 L0.35 -1.05 M0.55 -1.25 L0.55 -1.25 M0.4 -1.05 L0.4 -1.1 0.5 -1.1 0.5 -1.05 0.4 -1.05 0.4 -1.05" fill="#415423" fill-rule="evenodd" stroke="none"/>
    <path d="M0.45 -1.3 L0.45 -1.3 0.45 -1.3 0.45 -1.3 0.45 -1.3 0.45 -1.3 M0.55 -1.15 L0.6 -1.05 0.55 -1.15 M0.6 -1.05 L0.6 -1.05" fill="#ed4a40" fill-rule="evenodd" stroke="none"/>
    <path d="M0.35 -1.2 L0.35 -1.3 0.4 -1.3 0.45 -1.3 0.4 -1.25 0.35 -1.2 0.35 -1.2 M0.45 -1.3 L0.45 -1.3 M0.85 0.05 L0.8 0.1 0.8 0.05 0.85 0.05 M0.8 0.15 L0.8 0.1 0.8 0.15" fill="#232e13" fill-rule="evenodd" stroke="none"/>
    <path d="M0.45 -1.3 L0.5 -1.3 0.45 -1.3 0.45 -1.3 M0.55 -1.25 L0.5 -1.3 0.5 -1.3 0.55 -1.25 M0.65 -1.1 L0.65 -1.1 0.65 -1.05 0.6 -1.05 0.55 -1.15 0.6 -1.15 0.6 -1.2 0.65 -1.1" fill="#ff5b4f" fill-rule="evenodd" stroke="none"/>
    <path d="M0.35 -1.05 L0.35 -1.05 0.35 -1.05 0.35 -1.05 M0.5 -1.1 L0.55 -1.15 0.55 -1.25 0.6 -1.25 0.6 -1.25 0.55 -1.2 0.55 -1.2 0.55 -1.1 0.5 -1.1 M0.55 -1.25 L0.55 -1.25" fill="#566f2e" fill-rule="evenodd" stroke="none"/>
    <path d="M0.6 -1.25 L0.65 -1.3 0.65 -1.2 0.6 -1.2 0.6 -1.25 M0.6 -1.2 L0.6 -1.2" fill="#d14139" fill-rule="evenodd" stroke="none"/>
    <path d="M0.6 -1.25 L0.6 -1.25 0.6 -1.2 0.55 -1.2 0.6 -1.25 M0.0 -1.0 L0.05 -0.95 0.0 -0.95 0.0 -1.0 M-0.5 -1.4 L-0.45 -1.4 -0.4 -1.35 -0.3 -1.35 -0.25 -1.35 -0.2 -1.4 -0.2 -1.4 -0.25 -1.3 -0.35 -1.3 -0.4 -1.3 -0.45 -1.3 -0.45 -1.35 -0.45 -1.4 -0.5 -1.4 M-0.25 -1.55 L-0.3 -1.6 -0.2 -1.5 -0.25 -1.55 M-0.2 -1.5 L-0.2 -1.5 M-0.2 0.2 L-0.2 0.25 -0.2 0.25 -0.2 0.2 M-0.3 0.15 L-0.2 0.3 -0.25 0.35 -0.3 0.35 -0.4 0.3 -0.4 0.25 -0.45 0.2 -0.4 0.15 -0.4 0.15 -0.3 0.2 -0.3 0.15 -0.3 0.15 M-0.25 0.35 L-0.25 0.35" fill="#ae362f" fill-rule="evenodd" stroke="none"/>
    <path d="M0.6 -1.15 L0.55 -1.15 0.55 -1.1 0.55 -1.2 0.6 -1.15 M0.55 -1.1 L0.55 -1.1 M-0.2 -0.05 L-0.2 -0.05 -0.15 -0.05 -0.1 -0.05 -0.1 0.05 -0.15 0.1 -0.2 0.15 -0.2 0.15 -0.25 0.15 -0.3 0.15 -0.3 0.0 -0.25 0.0 -0.25 -0.05 -0.2 -0.05 M-0.4 -0.85 L-0.35 -0.85 -0.35 -0.9 -0.3 -0.8 -0.35 -0.75 -0.4 -0.8 -0.4 -0.8 -0.4 -0.85 M-0.25 -0.05 L-0.25 -0.05 M-0.3 0.15 L-0.3 0.15 M-1.0 0.05 L-1.0 0.15 -1.0 0.15 -1.0 0.2 -1.05 0.25 -1.1 0.3 -1.2 0.3 -1.2 0.15 -1.15 0.15 -1.1 0.15 -1.05 0.1 -1.0 0.05 -1.0 0.05" fill="#2d3b18" fill-rule="evenodd" stroke="none"/>
    <path d="M0.65 -1.1 L0.65 -1.1 0.65 -1.05 0.65 -1.1 0.65 -1.1 0.7 -1.05 0.65 -1.1 M-0.7 -0.7 L-0.65 -0.75 -0.65 -0.7 -0.6 -0.7 -0.6 -0.65 -0.65 -0.7 -0.7 -0.7 M-0.65 -0.45 L-0.6 -0.55 -0.6 -0.5 -0.65 -0.45" fill="#a4332c" fill-rule="evenodd" stroke="none"/>
    <path d="M0.5 -1.1 L0.5 -0.95 0.45 -0.95 0.45 -0.9 0.4 -0.85 0.4 -0.85 0.35 -0.85 0.3 -0.85 0.3 -0.9 0.3 -0.95 0.35 -1.05 0.35 -1.05 0.4 -1.05 0.4 -1.05 0.5 -1.05 0.5 -1.1 M0.3 -0.95 L0.3 -0.95 M0.35 -0.85 L0.35 -0.85" fill="#536b2d" fill-rule="evenodd" stroke="none"/>
    <path d="M-0.1 -1.4 L-0.05 -1.4 -0.05 -1.35 -0.1 -1.4 -0.1 -1.4 -0.1 -1.4 -0.1 -1.4 M0.55 -1.1 L0.55 -1.15 0.6 -1.05 0.55 -1.0 0.55 -0.95 0.55 -1.1 M0.5 -0.95 L0.55 -0.95 0.5 -0.95 M0.3 -0.95 L0.3 -0.9 0.3 -0.9 0.3 -0.95 M0.35 -0.85 L0.4 -0.85 0.35 -0.8 0.35 -0.85 M0.0 -0.5 L0.05 -0.5 0.05 -0.45 0.0 -0.4 -0.05 -0.45 0.0 -0.5 M-0.05 -0.45 L-0.05 -0.45 M0.0 -0.4 L0.0 -0.4 M-0.25 -1.25 L-0.25 -1.25 -0.25 -1.25 -0.25 -1.2 -0.25 -1.2 -0.2 -1.2 -0.25 -1.2 -0.25 -1.25 M-0.2 -1.2 L-0.2 -1.2 M-0.05 -0.05 L0.0 -0.1 0.0 0.0 -0.05 0.0 -0.1 0.05 -0.1 -0.05 -0.1 -0.05 -0.05 -0.05" fill="#8a2b25" fill-rule="evenodd" stroke="none"/>
    <path d="M0.75 -1.0 L0.75 -0.95 0.7 -0.95 0.7 -0.9 0.7 -0.85 0.65 -0.85 0.6 -0.9 0.6 -0.9 0.6 -0.9 0.55 -0.95 0.55 -1.0 0.6 -1.05 0.65 -1.05 0.65 -1.1 0.7 -1.05 0.75 -1.05 0.75 -1.0 M0.6 -1.05 L0.6 -1.05 M0.7 -1.05 L0.7 -1.05 M0.65 -1.05 L0.65 -1.05 M-0.15 -0.75 L-0.1 -0.75 -0.1 -0.7 -0.1 -0.65 -0.15 -0.65 -0.2 -0.6 -0.25 -0.65 -0.25 -0.7 -0.2 -0.7 -0.2 -0.8 -0.15 -0.75 M-0.1 -0.65 L-0.1 -0.65" fill="#32411b" fill-rule="evenodd" stroke="none"/>
    <path d="M0.65 -1.1 L0.65 -1.05 0.65 -1.1 M0.65 -1.05 L0.65 -1.05" fill="#d9443b" fill-rule="evenodd" stroke="none"/>
    <path d="M1.55 0.0 L1.55 0.05 1.5 0.05 1.5 0.1 1.45 0.15 1.4 0.15 1.35 0.1 1.4 0.1 1.5 0.1 1.5 0.05 1.5 0.0 1.55 0.0 M0.05 -1.65 L0.05 -1.6 0.05 -1.55 0.05 -1.65 M0.05 -1.55 L0.05 -1.55 M0.25 -1.25 L0.25 -1.25 0.3 -1.25 0.3 -1.3 0.35 -1.2 0.35 -1.05 0.3 -1.0 0.25 -1.0 0.25 -1.05 0.2 -1.1 0.15 -1.1 0.2 -1.15 0.25 -1.25 M1.0 -0.6 L1.0 -0.65 1.05 -0.6 1.05 -0.6 1.05 -0.6 1.05 -0.6 1.0 -0.6 1.0 -0.6 M0.35 -1.2 L0.35 -1.2 M-0.2 -0.05 L-0.2 -0.05 -0.25 -0.05 -0.2 -0.05 M0.4 0.4 L0.45 0.4 0.4 0.5 0.4 0.55 0.4 0.45 0.4 0.4" fill="#35451d" fill-rule="evenodd" stroke="none"/>
    <path d="M0.1 -1.15 L0.1 -1.05 0.15 -1.1 0.2 -1.1 0.25 -1.05 0.25 -1.0 0.25 -0.95 0.25 -0.95 0.2 -1.0 0.1 -1.0 0.1 -0.95 0.05 -0.95 0.05 -0.9 0.05 -0.95 0.0 -1.0 0.0 -1.05 0.05 -1.1 0.1 -1.15 M0.1 -0.95 L0.1 -0.95 M0.25 -0.85 L0.25 -0.95 0.25 -0.9 0.25 -0.85 0.25 -0.85 M0.7 0.15 L0.75 0.2 0.8 0.1 0.8 0.15 0.75 0.2 0.75 0.25 0.7 0.25 0.6 0.25 0.55 0.2 0.5 0.15 0.5 0.05 0.55 0.1 0.6 0.05 0.6 0.1 0.7 0.2 0.7 0.15" fill="#db443b" fill-rule="evenodd" stroke="none"/>
    <path d="M0.0 -1.45 L0.0 -1.4 0.1 -1.35 0.05 -1.3 0.05 -1.25 0.0 -1.2 0.0 -1.3 -0.05 -1.35 -0.05 -1.4 -0.1 -1.4 -0.05 -1.45 -0.05 -1.5 0.0 -1.5 0.0 -1.45 0.0 -1.45 M0.1 -0.95 L0.1 -0.95 0.1 -0.95 0.2 -1.0 0.25 -0.95 0.25 -0.85 0.25 -0.9 0.2 -0.95 0.2 -0.95 0.1 -0.95 M0.25 -0.8 L0.25 -0.85 0.25 -0.8 0.2 -0.75 0.25 -0.75 0.25 -0.8 M0.2 -0.75 L0.2 -0.75 0.2 -0.7 0.2 -0.7 0.15 -0.7 0.2 -0.75 M0.15 -0.7 L0.15 -0.7" fill="#af372f" fill-rule="evenodd" stroke="none"/>
    <path d="M0.1 -0.95 L0.1 -1.0 0.2 -1.0 0.1 -0.95 M0.9 0.35 L0.95 0.35 0.9 0.35" fill="#73241f" fill-rule="evenodd" stroke="none"/>
    <path d="M0.35 -1.05 L0.35 -1.05 0.35 -1.05 0.35 -1.05 0.3 -0.95 0.3 -0.95 0.3 -0.95 0.25 -1.0 0.3 -1.0 0.35 -1.05 M0.6 0.45 L0.6 0.4 0.65 0.45 0.6 0.45 M-0.75 0.15 L-0.8 0.15 -0.8 0.15 -0.75 0.15 M-0.85 0.1 L-0.8 0.15 -0.85 0.15 -0.85 0.1" fill="#303e1a" fill-rule="evenodd" stroke="none"/>
    <path d="M0.3 -0.95 L0.3 -0.95 0.25 -0.95 0.3 -0.95 M0.25 -0.95 L0.25 -0.95" fill="#658236" fill-rule="evenodd" stroke="none"/>
    <path d="M0.3 -0.95 L0.3 -0.95 0.3 -0.95 0.3 -0.95 0.3 -0.9 0.3 -0.95" fill="#ee4a40" fill-rule="evenodd" stroke="none"/>
    <path d="M0.3 -0.9 L0.3 -0.85 0.35 -0.85 0.3 -0.8 0.3 -0.75 0.3 -0.7 0.25 -0.65 0.25 -0.7 0.25 -0.7 0.3 -0.8 0.25 -0.85 0.25 -0.9 0.3 -0.95 0.3 -0.9 0.3 -0.9 M-1.1 -0.5 L-1.1 -0.5 -1.05 -0.5 -1.1 -0.5 M-1.2 -0.4 L-1.25 -0.3 -1.25 -0.4 -1.2 -0.4 M-1.25 -0.25 L-1.2 -0.1 -1.15 -0.05 -1.1 -0.05 -1.05 -0.1 -1.0 -0.15 -1.0 -0.1 -1.0 -0.05 -1.05 -0.05 -1.05 -0.05 -1.05 0.0 -1.15 0.0 -1.25 -0.15 -1.25 -0.15 -1.25 -0.2 -1.25 -0.25 M-1.25 -0.3 L-1.25 -0.3 M-1.25 -0.2 L-1.25 -0.2 M-1.0 -0.15 L-1.0 -0.15 -0.95 -0.2 -1.0 -0.15 -1.0 -0.15" fill="#ff6155" fill-rule="evenodd" stroke="none"/>
    <path d="M0.25 -0.95 L0.3 -0.95 0.3 -0.95 0.25 -0.9 0.25 -0.95 M0.2 0.05 L0.25 -0.05 0.35 -0.1 0.35 0.0 0.3 0.05 0.25 0.1 0.2 0.05 M0.6 0.05 L0.65 0.0 0.7 0.05 0.75 0.1 0.7 0.15 0.7 0.2 0.6 0.1 0.6 0.05 M-0.1 0.45 L-0.05 0.45 -0.05 0.45 -0.05 0.45 -0.05 0.45 -0.1 0.45" fill="#435724" fill-rule="evenodd" stroke="none"/>
    <path d="M-1.35 -0.6 L-1.4 -0.55 -1.45 -0.55 -1.55 -0.6 -1.6 -0.65 -1.55 -0.75 -1.45 -0.75 -1.4 -0.75 -1.4 -0.75 -1.4 -0.6 -1.35 -0.6 M0.35 -0.85 L0.35 -0.85 0.35 -0.8 0.3 -0.8 0.35 -0.85 M0.2 -0.5 L0.2 -0.55 0.25 -0.6 0.25 -0.6 0.25 -0.65 0.3 -0.7 0.3 -0.65 0.3 -0.6 0.3 -0.6 0.25 -0.55 0.25 -0.55 0.2 -0.5 0.2 -0.5 M0.3 -0.75 L0.3 -0.8 0.35 -0.75 0.35 -0.75 0.3 -0.75 0.3 -0.75 M0.35 -0.55 L0.35 -0.5 0.35 -0.5 0.35 -0.6 0.35 -0.55 M0.3 -0.7 L0.3 -0.7 M0.35 -0.3 L0.35 -0.3 0.4 -0.3 0.4 -0.3 0.45 -0.25 0.5 -0.2 0.5 -0.25 0.5 -0.2 0.5 -0.15 0.45 -0.1 0.35 -0.1 0.35 -0.15 0.3 -0.25 0.35 -0.3 M0.15 -0.15 L0.2 -0.1 0.15 -0.1 0.15 -0.15 M0.1 -0.1 L0.1 -0.15 0.15 -0.1 0.1 -0.1 M0.5 -0.2 L0.5 -0.2 M0.3 0.2 L0.35 0.2 0.35 0.25 0.3 0.3 0.25 0.35 0.25 0.4 0.2 0.4 0.25 0.3 0.25 0.2 0.3 0.2 M-1.25 -0.5 L-1.25 -0.45 -1.25 -0.45 -1.25 -0.5 M-1.0 -0.05 L-1.0 -0.05 -1.05 -0.05 -1.0 -0.05 M-1.05 -0.05 L-1.05 -0.05 M-1.0 0.0 L-1.0 0.0 -1.0 0.0 -1.0 0.0 M-0.4 -0.3 L-0.4 -0.3 -0.4 -0.3 -0.4 -0.3 -0.4 -0.3 -0.4 -0.3" fill="#394a1f" fill-rule="evenodd" stroke="none"/>
    <path d="M0.4 -0.85 L0.35 -0.75 0.3 -0.8 0.35 -0.8 0.4 -0.85" fill="#617d34" fill-rule="evenodd" stroke="none"/>
    <path d="M0.1 -0.95 L0.2 -0.95 0.2 -0.95 0.25 -0.9 0.25 -0.85 0.25 -0.8 0.25 -0.75 0.2 -0.75 0.15 -0.7 0.15 -0.7 0.1 -0.65 0.1 -0.65 0.0 -0.7 0.0 -0.7 0.1 -0.7 0.1 -0.75 0.15 -0.75 0.15 -0.85 0.1 -0.9 0.1 -0.95 M-0.05 -0.75 L0.0 -0.7 0.0 -0.75 -0.05 -0.75 -0.05 -0.75 M0.0 -0.7 L0.0 -0.7 M0.15 -0.7 L0.15 -0.7 M0.7 0.25 L0.75 0.25 0.7 0.25" fill="#d5423a" fill-rule="evenodd" stroke="none"/>
    <path d="M0.15 -0.85 L0.15 -0.75 0.1 -0.85 0.15 -0.85 M0.1 -0.75 L0.1 -0.7 0.0 -0.7 -0.05 -0.75 0.05 -0.75 0.1 -0.75 0.1 -0.75 M-0.15 -0.4 L-0.15 -0.25 -0.2 -0.25 -0.2 -0.25 -0.2 -0.2 -0.25 -0.2 -0.3 -0.2 -0.3 -0.25 -0.2 -0.2 -0.2 -0.35 -0.15 -0.35 -0.15 -0.4 -0.15 -0.4" fill="#762520" fill-rule="evenodd" stroke="none"/>
    <path d="M0.25 -0.85 L0.25 -0.8 0.25 -0.85 M0.0 -0.7 L0.0 -0.7 0.0 -0.7" fill="#3a4c20" fill-rule="evenodd" stroke="none"/>
    <path d="M0.35 -0.7 L0.35 -0.65 0.3 -0.65 0.3 -0.7 0.3 -0.75 0.35 -0.7 M0.2 -0.75 L0.2 -0.75 0.15 -0.7 0.15 -0.7 0.2 -0.75 M0.35 -0.55 L0.35 -0.55 0.35 -0.6 0.35 -0.55 M0.35 -0.6 L0.35 -0.6 M0.35 0.2 L0.35 0.25 0.35 0.2 M0.25 0.4 L0.3 0.3 0.35 0.25 0.35 0.35 0.3 0.4 0.25 0.4 M0.2 0.2 L0.25 0.2 0.3 0.2 0.25 0.2 0.25 0.25 0.2 0.25 0.2 0.2" fill="#3d5021" fill-rule="evenodd" stroke="none"/>
    <path d="M0.55 -0.75 L0.6 -0.75 0.65 -0.75 0.65 -0.7 0.55 -0.75 0.55 -0.75 0.55 -0.75 M0.55 -0.55 L0.6 -0.6 0.65 -0.7 0.7 -0.7 0.7 -0.65 0.6 -0.6 0.55 -0.55 M0.2 -0.75 L0.25 -0.8 0.25 -0.75 0.2 -0.7 0.2 -0.75 M1.2 -0.1 L1.15 -0.1 1.1 -0.2 1.1 -0.2 1.2 -0.2 1.2 -0.1 M-1.25 -0.5 L-1.25 -0.5 -1.25 -0.45 -1.3 -0.5 -1.25 -0.5 -1.25 -0.5" fill="#445825" fill-rule="evenodd" stroke="none"/>
    <path d="M0.2 -0.55 L0.15 -0.6 0.15 -0.6 0.15 -0.6 0.25 -0.7 0.25 -0.6 0.25 -0.6 0.2 -0.55" fill="#922d28" fill-rule="evenodd" stroke="none"/>
    <path d="M0.95 -1.15 L0.95 -1.25 0.95 -1.2 0.95 -1.15 0.95 -1.15" fill="#607c34" fill-rule="evenodd" stroke="none"/>
    <path d="M0.95 -1.15 L0.95 -1.15 0.95 -1.15 0.95 -1.15 1.0 -1.15 0.95 -1.15 M0.35 -0.75 L0.35 -0.7 0.3 -0.75 0.3 -0.7 0.3 -0.7 0.3 -0.75 0.3 -0.75 0.35 -0.75 0.35 -0.75 M0.35 -0.6 L0.35 -0.6 0.3 -0.6 0.3 -0.55 0.3 -0.6 0.3 -0.6 0.3 -0.6 0.3 -0.6 0.35 -0.6" fill="#2f3d19" fill-rule="evenodd" stroke="none"/>
    <path d="M0.3 -0.65 L0.35 -0.65 0.35 -0.6 0.3 -0.6 0.3 -0.6 0.3 -0.65 M0.3 -0.6 L0.3 -0.55 0.25 -0.55 0.3 -0.6 0.3 -0.6" fill="#33421c" fill-rule="evenodd" stroke="none"/>
    <path d="M0.35 -0.65 L0.45 -0.65 0.45 -0.65 0.5 -0.65 0.55 -0.6 0.55 -0.55 0.55 -0.5 0.55 -0.45 0.45 -0.45 0.4 -0.45 0.35 -0.5 0.35 -0.55 0.35 -0.65 M0.35 -0.55 L0.35 -0.55 M0.35 -0.5 L0.35 -0.5 M0.55 -0.45 L0.55 -0.45 M0.55 -0.5 L0.55 -0.5" fill="#32401b" fill-rule="evenodd" stroke="none"/>
    <path d="M0.25 -0.7 L0.25 -0.65 0.25 -0.6 0.25 -0.7" fill="#38481e" fill-rule="evenodd" stroke="none"/>
    <path d="M0.65 -0.85 L0.7 -0.85 0.65 -0.75 0.6 -0.75 0.55 -0.75 0.55 -0.8 0.55 -0.8 0.6 -0.9 0.6 -0.9 0.65 -0.85 M0.65 -0.75 L0.65 -0.75 M-0.25 0.6 L-0.3 0.55 -0.35 0.5 -0.35 0.5 -0.3 0.5 -0.2 0.5 -0.2 0.55 -0.25 0.6" fill="#425524" fill-rule="evenodd" stroke="none"/>
    <path d="M-0.55 -1.55 L-0.55 -1.6 -0.5 -1.6 -0.55 -1.5 -0.6 -1.5 -0.6 -1.5 -0.55 -1.55 M0.45 -0.65 L0.5 -0.65 0.55 -0.75 0.55 -0.75 0.55 -0.75 0.65 -0.7 0.6 -0.6 0.55 -0.55 0.55 -0.6 0.5 -0.65 0.45 -0.65 M-0.25 -0.6 L-0.25 -0.6 -0.2 -0.55 -0.25 -0.6 -0.25 -0.6 -0.25 -0.6 M-0.35 -0.4 L-0.3 -0.45 -0.3 -0.5 -0.3 -0.45 -0.2 -0.4 -0.3 -0.4 -0.25 -0.35 -0.2 -0.35 -0.2 -0.2 -0.3 -0.25 -0.35 -0.25 -0.35 -0.3 -0.4 -0.35 -0.35 -0.35 -0.35 -0.4 M-0.1 0.35 L-0.1 0.3 -0.1 0.35 -0.1 0.35" fill="#425624" fill-rule="evenodd" stroke="none"/>
    <path d="M0.7 -0.75 L0.65 -0.75 0.7 -0.85 0.65 -0.85 0.7 -0.85 0.7 -0.8 0.7 -0.75 M0.65 -0.75 L0.65 -0.75 M0.2 -0.1 L0.2 -0.15 0.25 -0.1 0.25 -0.1 0.2 0.0 0.2 0.0 0.2 0.0 0.1 -0.05 0.1 -0.1 0.1 -0.1 0.15 -0.1 0.2 -0.1 M-0.3 0.4 L-0.25 0.4 -0.25 0.45 -0.2 0.5 -0.3 0.5 -0.35 0.5 -0.35 0.45 -0.35 0.45 -0.3 0.4 M-0.2 0.5 L-0.2 0.5" fill="#37471e" fill-rule="evenodd" stroke="none"/>
    <path d="M-1.35 -0.8 L-1.4 -0.85 -1.35 -0.9 -1.3 -0.8 -1.25 -0.75 -1.25 -0.75 -1.25 -0.7 -1.3 -0.75 -1.3 -0.75 -1.35 -0.75 -1.35 -0.8 M0.65 -0.75 L0.65 -0.7 0.65 -0.75 0.65 -0.75 0.65 -0.75 M-0.05 -0.75 L-0.05 -0.75 -0.1 -0.75 -0.15 -0.75 -0.15 -0.8 -0.1 -0.85 -0.05 -0.9 -0.05 -0.95 -0.05 -0.9 0.0 -0.9 0.0 -0.85 -0.05 -0.8 -0.05 -0.75 -0.05 -0.75 M-0.05 -0.95 L-0.05 -0.95 M1.2 -0.45 L1.2 -0.35 1.2 -0.45 M-1.35 -0.75 L-1.35 -0.75 M-0.8 -0.1 L-0.75 -0.1 -0.7 -0.05 -0.7 -0.05 -0.65 -0.05 -0.6 -0.05 -0.6 0.0 -0.6 0.05 -0.65 0.05 -0.7 0.05 -0.7 0.05 -0.75 0.0 -0.75 0.0 -0.8 -0.05 -0.8 -0.1 M-0.15 -1.05 L-0.1 -1.0 -0.15 -0.95 -0.2 -0.9 -0.2 -0.95 -0.2 -0.95 -0.15 -1.0 -0.15 -1.05 M-0.7 0.05 L-0.7 0.05 M-0.65 0.05 L-0.65 0.05 M-0.6 0.05 L-0.6 0.05" fill="#455925" fill-rule="evenodd" stroke="none"/>
    <path d="M0.7 -0.85 L0.7 -0.9 0.7 -0.8 0.75 -0.75 0.65 -0.7 0.65 -0.75 0.7 -0.75 0.7 -0.85 M0.75 -0.75 L0.75 -0.75 M0.7 -0.9 L0.7 -0.9" fill="#d44c42" fill-rule="evenodd" stroke="none"/>
    <path d="M0.75 -0.95 L0.75 -0.95 0.75 -0.9 0.8 -0.9 0.75 -0.85 0.7 -0.95 0.75 -0.95 M0.65 -0.7 L0.75 -0.75 0.7 -0.8 0.75 -0.8 0.7 -0.9 0.75 -0.9 0.75 -0.85 0.75 -0.75 0.7 -0.75 0.65 -0.7 M-0.65 -0.4 L-0.65 -0.45 -0.65 -0.4 -0.65 -0.4" fill="#7c2722" fill-rule="evenodd" stroke="none"/>
    <path d="M0.9 -1.05 L0.95 -1.15 0.95 -1.15 1.0 -1.15 1.0 -1.15 1.0 -1.15 0.95 -1.05 0.95 -1.0 0.9 -1.0 0.95 -0.95 0.9 -0.9 0.95 -0.9 0.95 -0.85 1.0 -0.85 1.1 -0.85 1.15 -0.85 1.1 -0.85 1.0 -0.75 0.95 -0.8 0.9 -0.85 0.9 -0.95 0.9 -0.95 0.9 -1.05 M-0.6 -0.95 L-0.6 -0.95 -0.65 -0.95 -0.6 -0.95 M-0.75 -1.1 L-0.75 -1.1 -0.75 -1.1 -0.75 -1.1 M-0.7 0.05 L-0.65 0.05 -0.65 0.05 -0.65 0.1 -0.65 0.2 -0.7 0.15 -0.7 0.05 -0.7 0.05" fill="#ff554a" fill-rule="evenodd" stroke="none"/>
    <path d="M0.95 -1.25 L0.95 -1.2 1.0 -1.2 0.95 -1.2 0.95 -1.25 0.95 -1.25 M0.55 -0.45 L0.55 -0.5 0.6 -0.45 0.55 -0.45 0.55 -0.45 0.55 -0.45" fill="#253014" fill-rule="evenodd" stroke="none"/>
    <path d="M1.0 -1.2 L1.0 -1.2 0.95 -1.15 0.95 -1.2 1.0 -1.2 M0.0 0.0 L0.0 -0.05 0.0 -0.05 0.05 0.0 0.05 0.0 0.1 0.0 0.1 0.05 0.0 0.05 -0.05 0.1 -0.1 0.15 -0.15 0.15 -0.1 0.05 -0.05 0.0 0.0 0.0 M0.1 0.0 L0.1 0.0 M-1.25 -0.2 L-1.25 -0.25 -1.25 -0.2 M-1.25 -0.25 L-1.25 -0.25 M-0.45 -0.15 L-0.45 -0.15 -0.45 -0.15 -0.45 -0.15 M-0.55 0.05 L-0.55 0.05 -0.5 0.05 -0.55 0.1 -0.55 0.05 -0.55 0.05 M-0.1 0.05 L-0.1 0.05 M-1.0 0.05 L-1.05 0.1 -1.0 0.0 -1.0 0.05" fill="#2a3717" fill-rule="evenodd" stroke="none"/>
    <path d="M1.0 -1.2 L1.05 -1.2 1.0 -1.15 0.95 -1.15 0.95 -1.15 1.0 -1.2 M1.0 -1.15 L1.0 -1.15" fill="#546c2d" fill-rule="evenodd" stroke="none"/>
    <path d="M0.85 -1.25 L0.9 -1.3 0.95 -1.25 0.95 -1.15 0.95 -1.15 0.9 -1.05 0.9 -1.15 0.9 -1.2 0.85 -1.2 0.85 -1.25 M0.95 -1.15 L0.95 -1.15 M-0.45 -0.15 L-0.45 -0.25 -0.4 -0.25 -0.35 -0.2 -0.3 -0.15 -0.3 -0.05 -0.3 -0.05 -0.3 -0.05 -0.35 -0.05 -0.45 -0.15 -0.45 -0.15 -0.45 -0.15" fill="#3a4c1f" fill-rule="evenodd" stroke="none"/>
    <path d="M0.95 -0.8 L1.0 -0.75 1.1 -0.85 1.05 -0.75 1.0 -0.75 1.0 -0.75 0.95 -0.8 M0.95 -0.85 L0.95 -0.9 0.95 -0.95 0.9 -1.0 0.95 -1.0 1.05 -1.05 1.1 -1.05 1.15 -1.0 1.15 -0.9 1.1 -1.0 1.0 -1.0 0.95 -0.95 0.95 -0.85" fill="#b73932" fill-rule="evenodd" stroke="none"/>
    <path d="M1.15 -0.85 L1.1 -0.85 1.0 -0.85 0.95 -0.85 0.95 -0.95 1.0 -1.0 1.1 -1.0 1.15 -0.9 1.15 -0.85" fill="#cd564b" fill-rule="evenodd" stroke="none"/>
    <path d="M1.5 -0.25 L1.55 -0.2 1.5 -0.2 1.5 -0.25 1.5 -0.25 M-1.05 -1.1 L-1.0 -1.1 -1.0 -1.1 -1.1 -1.05 -1.1 -1.1 -1.05 -1.1 M0.85 -1.2 L0.9 -1.2 0.9 -1.15 0.9 -1.05 0.85 -1.05 0.9 -1.1 0.85 -1.15 0.85 -1.2 M0.35 -0.35 L0.35 -0.4 0.35 -0.35 M-1.1 -1.05 L-1.1 -1.05 M-1.0 -1.1 L-1.0 -1.1 M-0.75 0.15 L-0.75 0.15 -0.75 0.15" fill="#283416" fill-rule="evenodd" stroke="none"/>
    <path d="M0.75 -1.2 L0.75 -1.2 0.8 -1.2 0.85 -1.15 0.9 -1.1 0.85 -1.05 0.85 -0.95 0.8 -0.9 0.75 -0.95 0.75 -1.0 0.8 -1.1 0.75 -1.15 0.75 -1.2 0.75 -1.2 M0.9 -0.95 L0.9 -0.95 0.9 -0.85 0.9 -0.9 0.9 -0.95 0.9 -0.95 M0.9 -0.85 L0.9 -0.85 0.9 -0.85 M1.1 -0.85 L1.15 -0.85 1.15 -0.85 1.15 -0.7 1.15 -0.65 1.1 -0.65 1.1 -0.6 1.05 -0.6 1.0 -0.65 1.0 -0.7 1.0 -0.75 1.05 -0.75 1.1 -0.85 M0.75 -0.95 L0.75 -0.95" fill="#ff594e" fill-rule="evenodd" stroke="none"/>
    <path d="M1.15 -0.3 L1.15 -0.25 1.1 -0.25 1.1 -0.3 1.1 -0.4 1.15 -0.45 1.15 -0.35 1.15 -0.3 M1.2 0.2 L1.2 0.25 1.2 0.2 M-0.2 0.25 L-0.2 0.3 -0.3 0.15 -0.25 0.15 -0.2 0.25 -0.2 0.25 M-0.2 0.3 L-0.2 0.3 -0.2 0.35 -0.2 0.4 -0.25 0.4 -0.3 0.4 -0.25 0.35 -0.2 0.3 M-0.55 0.15 L-0.55 0.2 -0.55 0.15 M-0.35 0.45 L-0.3 0.4 -0.35 0.45 -0.35 0.45 -0.35 0.45" fill="#902d27" fill-rule="evenodd" stroke="none"/>
    <path d="M0.75 -1.15 L0.8 -1.1 0.75 -1.0 0.75 -1.05 0.7 -1.05 0.75 -1.1 0.75 -1.15 0.75 -1.15 M0.55 -0.55 L0.55 -0.6 0.55 -0.55 0.55 -0.55 M0.55 -0.15 L0.55 -0.2 0.55 -0.15 M0.35 0.25 L0.3 0.3 0.25 0.4 0.25 0.35 0.3 0.3 0.35 0.25 M0.2 0.2 L0.2 0.25 0.15 0.2 0.1 0.15 0.1 0.1 0.15 0.05 0.2 0.05 0.2 0.2 M0.25 0.45 L0.25 0.4 0.3 0.45 0.3 0.5 0.25 0.5 0.25 0.45 M-0.95 -1.15 L-0.9 -1.15 -0.95 -1.15 M-0.8 -1.15 L-0.8 -1.15 -0.8 -1.1 -0.85 -1.1 -0.85 -1.1 -0.9 -1.15 -0.9 -1.15 -0.85 -1.15 -0.8 -1.15 M-1.25 -0.75 L-1.25 -0.7 -1.25 -0.7 -1.25 -0.75" fill="#313f1a" fill-rule="evenodd" stroke="none"/>
    <path d="M0.9 -0.95 L0.9 -0.9 0.85 -0.9 0.85 -0.9 0.8 -0.9 0.85 -0.9 0.9 -0.95" fill="#4c6329" fill-rule="evenodd" stroke="none"/>
    <path d="M0.75 -0.95 L0.8 -0.9 0.8 -0.9 0.75 -0.9 0.75 -0.95 M0.75 -0.85 L0.8 -0.9 0.85 -0.9 0.85 -0.85 0.8 -0.85 0.8 -0.85 0.8 -0.85 0.75 -0.85 M-0.05 -0.4 L-0.1 -0.35 -0.1 -0.4 -0.15 -0.4 -0.1 -0.4 -0.1 -0.4 -0.05 -0.45 -0.05 -0.4 M0.8 0.35 L0.8 0.4 0.8 0.35 0.7 0.3 0.65 0.4 0.65 0.45 0.6 0.4 0.6 0.35 0.6 0.25 0.7 0.25 0.75 0.3 0.8 0.35 M-0.15 -0.4 L-0.15 -0.4" fill="#485e27" fill-rule="evenodd" stroke="none"/>
    <path d="M0.9 -0.85 L0.9 -0.85 0.8 -0.85 0.8 -0.85 0.8 -0.85 0.85 -0.85 0.9 -0.85 M1.05 -0.6 L1.05 -0.6 1.05 -0.6 1.05 -0.6" fill="#dd453c" fill-rule="evenodd" stroke="none"/>
    <path d="M0.7 -0.95 L0.75 -0.85 0.75 -0.9 0.7 -0.9 0.7 -0.9 0.7 -0.9 0.7 -0.95 M0.75 -0.7 L0.8 -0.8 0.75 -0.85 0.8 -0.85 0.8 -0.85 0.8 -0.7 0.75 -0.7 M0.8 -0.85 L0.8 -0.85 M0.7 -0.6 L0.7 -0.65 0.7 -0.6 0.7 -0.6 M0.7 -0.65 L0.7 -0.65 M-1.05 -0.5 L-1.05 -0.5 -1.0 -0.5 -1.05 -0.5 M-1.1 -0.5 L-1.1 -0.5 -1.1 -0.5 -1.1 -0.5 -1.1 -0.45 -1.15 -0.45 -1.1 -0.5 M-1.25 -0.45 L-1.2 -0.45 -1.2 -0.4 -1.25 -0.4 -1.25 -0.45 M-1.0 -0.5 L-1.0 -0.5" fill="#f34c42" fill-rule="evenodd" stroke="none"/>
    <path d="M0.7 -0.9 L0.7 -0.85 0.7 -0.9 0.7 -0.9 M0.7 -0.8 L0.7 -0.85 0.7 -0.8" fill="#bc483e" fill-rule="evenodd" stroke="none"/>
    <path d="M0.7 -0.85 L0.7 -0.75 0.7 -0.8 0.7 -0.85 M0.45 0.0 L0.45 0.05 0.45 0.0" fill="#842924" fill-rule="evenodd" stroke="none"/>
    <path d="M0.75 -0.75 L0.75 -0.75 0.75 -0.85 0.8 -0.8 0.75 -0.7 0.75 -0.65 0.7 -0.65 0.7 -0.7 0.65 -0.7 0.7 -0.75 0.75 -0.75 M0.7 -0.6 L0.7 -0.65 0.7 -0.6 M0.55 -0.05 L0.55 -0.05 0.6 -0.05 0.65 -0.1 0.65 -0.05 0.6 0.0 0.55 -0.05 M1.05 0.15 L1.05 0.2 1.15 0.25 1.1 0.25 1.05 0.3 1.05 0.15 M0.9 0.05 L1.0 0.05 1.0 0.15 1.0 0.1 0.95 0.1 0.95 0.05 0.9 0.05 0.85 0.15 0.85 0.2 0.8 0.25 0.8 0.3 0.8 0.3 0.8 0.15 0.9 0.05" fill="#eb4940" fill-rule="evenodd" stroke="none"/>
    <path d="M0.9 -0.85 L0.9 -0.85 0.95 -0.8 1.0 -0.75 1.0 -0.75 1.0 -0.7 1.0 -0.65 1.0 -0.6 0.95 -0.75 0.85 -0.75 0.85 -0.75 0.8 -0.75 0.8 -0.7 0.8 -0.85 0.9 -0.85 M0.8 -0.75 L0.8 -0.75 M0.95 -0.5 L1.0 -0.6 1.0 -0.55 0.95 -0.5 M1.0 -0.6 L1.0 -0.6 M-0.6 0.05 L-0.6 0.05 -0.6 0.0 -0.6 0.0 -0.55 0.0 -0.55 0.1 -0.55 0.15 -0.55 0.15 -0.6 0.15 -0.6 0.15 -0.65 0.1 -0.65 0.1 -0.6 0.05 M-0.55 0.2 L-0.55 0.15 -0.55 0.2 M-0.6 0.0 L-0.6 0.0" fill="#e9493f" fill-rule="evenodd" stroke="none"/>
    <path d="M0.7 -0.6 L0.7 -0.65 0.7 -0.6 0.7 -0.6 0.7 -0.6 M0.8 -0.4 L0.8 -0.4 0.9 -0.4 0.9 -0.4 0.9 -0.45 0.95 -0.5 1.0 -0.55 1.0 -0.5 0.9 -0.4 0.85 -0.4 0.85 -0.35 0.8 -0.35 0.8 -0.35 0.75 -0.4 0.7 -0.5 0.7 -0.5 0.75 -0.4 0.75 -0.4 0.8 -0.4 M0.7 -0.5 L0.7 -0.5 M-0.95 -0.5 L-0.95 -0.5 -0.9 -0.5 -0.9 -0.45 -0.9 -0.4 -0.9 -0.45 -1.0 -0.5 -1.0 -0.5 -0.95 -0.5 -0.95 -0.5 M-1.1 -0.5 L-1.1 -0.55 -1.05 -0.5 -1.1 -0.5 -1.1 -0.5 -1.1 -0.5 M-1.0 -0.5 L-1.05 -0.5 -1.0 -0.5 M-0.9 -0.4 L-0.9 -0.4 M-0.9 -0.45 L-0.9 -0.45" fill="#cf4038" fill-rule="evenodd" stroke="none"/>
    <path d="M0.75 -0.7 L0.8 -0.7 0.75 -0.65 0.75 -0.7 M0.75 -0.65 L0.75 -0.65 0.75 -0.65 M0.8 -0.75 L0.8 -0.7 0.8 -0.75 M-0.05 -0.25 L-0.05 -0.3 -0.05 -0.3 -0.05 -0.25" fill="#a7342d" fill-rule="evenodd" stroke="none"/>
    <path d="M0.75 -0.65 L0.75 -0.65 0.7 -0.6 0.7 -0.65 0.75 -0.65 M0.9 -0.6 L0.9 -0.5 0.8 -0.4 0.75 -0.4 0.7 -0.5 0.7 -0.5 0.75 -0.5 0.8 -0.45 0.8 -0.5 0.85 -0.5 0.9 -0.5 0.9 -0.6 M0.7 -0.5 L0.7 -0.5" fill="#5b1c19" fill-rule="evenodd" stroke="none"/>
    <path d="M0.7 -0.65 L0.75 -0.65 0.7 -0.65 0.7 -0.65 M0.8 -0.4 L0.9 -0.45 0.9 -0.5 0.9 -0.5 0.95 -0.65 0.9 -0.75 0.85 -0.75 0.85 -0.75 0.95 -0.75 1.0 -0.6 0.95 -0.5 0.9 -0.45 0.9 -0.4 0.8 -0.4 M0.75 -0.65 L0.75 -0.65 M0.85 -0.35 L0.85 -0.4 0.85 -0.35 M1.05 -0.35 L1.05 -0.4 1.05 -0.4 1.05 -0.45 1.15 -0.5 1.25 -0.5 1.25 -0.5 1.3 -0.4 1.35 -0.4 1.35 -0.3 1.3 -0.4 1.25 -0.45 1.2 -0.5 1.15 -0.45 1.15 -0.45 1.1 -0.4 1.1 -0.3 1.1 -0.25 1.1 -0.25 1.05 -0.25 1.05 -0.3 1.05 -0.35 M1.25 -0.5 L1.25 -0.5 M1.35 -0.3 L1.35 -0.3 1.35 -0.3 M1.1 -0.25 L1.1 -0.25 M-0.55 0.0 L-0.55 0.05 -0.55 0.15 -0.55 0.1 -0.55 0.0 M-0.55 0.05 L-0.55 0.05" fill="#792621" fill-rule="evenodd" stroke="none"/>
    <path d="M0.75 -0.65 L0.85 -0.7 0.9 -0.65 0.8 -0.65 0.75 -0.65 M0.8 -0.5 L0.8 -0.45 0.75 -0.5 0.8 -0.5 M1.1 -0.25 L1.15 -0.25 1.1 -0.25 1.1 -0.25 1.1 -0.25" fill="#5d1d19" fill-rule="evenodd" stroke="none"/>
    <path d="M0.7 -0.6 L0.75 -0.65 0.75 -0.65 0.8 -0.65 0.9 -0.65 0.9 -0.6 0.9 -0.5 0.85 -0.5 0.8 -0.5 0.75 -0.5 0.7 -0.5 0.7 -0.6 0.7 -0.6 M0.9 -0.75 L0.8 -0.75 0.8 -0.75 0.9 -0.75 M1.15 0.45 L1.15 0.5 1.1 0.6 0.9 0.6 0.85 0.55 0.85 0.5 0.8 0.45 0.8 0.4 0.9 0.5 1.0 0.45 1.05 0.4 1.05 0.35 1.05 0.3 1.1 0.3 1.15 0.4 1.15 0.45" fill="#bf3b34" fill-rule="evenodd" stroke="none"/>
    <path d="M0.75 -0.65 L0.8 -0.7 0.8 -0.75 0.9 -0.75 0.95 -0.6 0.9 -0.5 0.9 -0.6 0.9 -0.65 0.85 -0.7 0.75 -0.65 0.75 -0.65 M0.8 -0.4 L0.9 -0.5 0.9 -0.45 0.8 -0.4 0.8 -0.4 0.75 -0.4 0.75 -0.4 0.8 -0.4" fill="#fa4e44" fill-rule="evenodd" stroke="none"/>
    <path d="M0.9 -0.5 L0.95 -0.6 0.9 -0.75 0.8 -0.75 0.85 -0.75 0.9 -0.75 0.95 -0.65 0.9 -0.5 0.9 -0.5 M-0.45 -1.2 L-0.45 -1.25 -0.4 -1.3 -0.35 -1.25 -0.3 -1.25 -0.3 -1.2 -0.3 -1.2 -0.3 -1.2 -0.35 -1.15 -0.35 -1.2 -0.45 -1.2" fill="#872a25" fill-rule="evenodd" stroke="none"/>
    <path d="M-0.2 -1.1 L-0.1 -1.15 -0.1 -1.15 -0.05 -1.05 -0.05 -0.95 -0.05 -0.9 -0.1 -0.85 -0.15 -0.8 -0.2 -0.8 -0.2 -0.8 -0.25 -0.85 -0.2 -0.85 -0.2 -0.9 -0.15 -0.95 -0.1 -1.0 -0.1 -1.05 -0.15 -1.1 -0.2 -1.1 M1.15 -0.65 L1.15 -0.65 1.15 -0.65 1.1 -0.65 1.15 -0.65" fill="#ff5247" fill-rule="evenodd" stroke="none"/>
    <path d="M0.0 -1.2 L0.05 -1.25 0.05 -1.3 0.05 -1.3 0.05 -1.25 0.05 -1.2 0.0 -1.2 M1.1 -0.6 L1.05 -0.6 1.1 -0.6 1.1 -0.65 1.15 -0.65 1.1 -0.6 M1.05 -0.6 L1.05 -0.6 M-0.05 -1.5 L-0.1 -1.4 -0.1 -1.4 -0.1 -1.5 -0.1 -1.5 -0.05 -1.5 M-1.1 -0.55 L-1.1 -0.55 -1.1 -0.5 -1.1 -0.5 -1.15 -0.45 -1.2 -0.45 -1.2 -0.5 -1.2 -0.5 -1.15 -0.5 -1.1 -0.55 -1.0 -0.5 -1.05 -0.5 -1.05 -0.5 -1.1 -0.55 M-0.2 -0.5 L-0.15 -0.5 -0.15 -0.45 -0.2 -0.5 M-0.15 -0.4 L-0.15 -0.4 -0.15 -0.4 -0.15 -0.45 -0.15 -0.4" fill="#852924" fill-rule="evenodd" stroke="none"/>
    <path d="M1.0 -0.55 L1.0 -0.6 1.0 -0.6 1.05 -0.6 1.1 -0.6 1.15 -0.65 1.15 -0.6 1.2 -0.55 1.15 -0.55 1.05 -0.55 1.0 -0.45 0.95 -0.45 0.9 -0.4 1.0 -0.5 1.0 -0.55 M0.75 -0.3 L0.75 -0.25 0.65 -0.2 0.7 -0.25 0.65 -0.3 0.6 -0.3 0.6 -0.35 0.65 -0.35 0.65 -0.35 0.7 -0.35 0.75 -0.35 0.75 -0.3 M0.9 -0.4 L0.9 -0.4 M1.05 -0.6 L1.05 -0.6 1.05 -0.6 M1.05 -0.3 L1.05 -0.3 1.05 -0.3 1.05 -0.3 M1.25 -0.45 L1.3 -0.35 1.2 -0.25 1.15 -0.25 1.15 -0.3 1.15 -0.35 1.2 -0.35 1.2 -0.45 1.15 -0.45 1.2 -0.5 1.25 -0.45 M1.15 -0.25 L1.15 -0.25 M-0.35 -0.25 L-0.4 -0.25 -0.35 -0.25 -0.35 -0.25 M-0.4 -0.25 L-0.4 -0.25" fill="#8e2c26" fill-rule="evenodd" stroke="none"/>
    <path d="M-1.0 -1.6 L-1.0 -1.65 -0.9 -1.65 -0.85 -1.6 -0.85 -1.45 -0.85 -1.55 -0.9 -1.6 -1.0 -1.6 M1.2 -0.55 L1.15 -0.6 1.2 -0.6 1.15 -0.6 1.2 -0.6 1.2 -0.55 1.2 -0.55" fill="#1f2911" fill-rule="evenodd" stroke="none"/>
    <path d="M0.05 -1.45 L0.05 -1.45 0.0 -1.4 0.05 -1.45 M1.0 -0.6 L1.0 -0.6 1.0 -0.6 1.0 -0.6 1.05 -0.6 1.0 -0.6 M1.15 -0.45 L1.2 -0.45 1.2 -0.35 1.15 -0.35 1.15 -0.3 1.15 -0.35 1.15 -0.45 1.15 -0.45 M1.05 -0.6 L1.05 -0.6 M-0.55 -1.4 L-0.5 -1.45 -0.5 -1.4 -0.45 -1.4 -0.45 -1.35 -0.5 -1.3 -0.45 -1.25 -0.45 -1.25 -0.45 -1.2 -0.5 -1.2 -0.55 -1.2 -0.55 -1.3 -0.55 -1.4 M-0.55 -1.2 L-0.55 -1.2 M-1.1 -0.4 L-1.05 -0.45 -1.0 -0.45 -1.1 -0.4 M-1.0 -0.4 L-0.95 -0.4 -0.9 -0.4 -0.95 -0.4 -1.0 -0.4 M-0.3 -1.1 L-0.3 -1.05 -0.3 -1.1 M-0.35 -1.15 L-0.35 -1.15 -0.35 -1.15 -0.3 -1.2 -0.3 -1.15 -0.35 -1.15 M-0.3 -1.05 L-0.3 -1.05" fill="#772520" fill-rule="evenodd" stroke="none"/>
    <path d="M1.0 -0.45 L1.05 -0.55 1.15 -0.55 1.2 -0.55 1.1 -0.55 1.05 -0.45 1.0 -0.45 M0.85 0.0 L0.9 0.0 0.9 0.0 0.95 0.0 0.95 0.05 1.0 0.0 1.0 0.0 1.05 0.0 1.05 -0.05 1.1 -0.1 1.1 -0.05 1.05 0.0 1.0 0.05 0.9 0.05 0.85 0.05 0.85 0.0 M1.05 -0.3 L1.05 -0.3 1.05 -0.3 1.05 -0.3 1.05 -0.3 M1.05 -0.15 L1.1 -0.1 1.05 -0.15" fill="#802823" fill-rule="evenodd" stroke="none"/>
    <path d="M0.85 -0.3 L0.9 -0.4 0.95 -0.45 1.0 -0.45 1.05 -0.45 1.05 -0.4 1.05 -0.4 1.05 -0.35 1.05 -0.3 1.0 -0.25 1.0 -0.2 0.95 -0.2 0.95 -0.25 0.9 -0.3 0.85 -0.3 M0.85 -0.25 L0.9 -0.2 0.85 -0.2 0.85 -0.2 0.85 -0.25 M1.05 -0.3 L1.05 -0.3 1.05 -0.3 M1.05 -0.45 L1.05 -0.45 M1.35 -0.05 L1.35 -0.05 1.4 -0.1 1.5 -0.15 1.5 -0.15 1.5 -0.15 1.55 -0.05 1.55 -0.05 1.55 -0.05 1.5 0.0 1.45 0.0 1.45 0.0 1.4 0.0 1.35 -0.05 1.35 -0.05 M0.4 0.4 L0.4 0.45 0.4 0.4" fill="#3e5021" fill-rule="evenodd" stroke="none"/>
    <path d="M0.0 -0.6 L0.0 -0.6 -0.1 -0.65 -0.1 -0.65 -0.1 -0.65 -0.1 -0.7 0.0 -0.6 M0.8 -0.35 L0.85 -0.35 0.85 -0.35 0.8 -0.35 0.8 -0.35 M0.85 -0.4 L0.9 -0.4 0.85 -0.3 0.85 -0.35 0.85 -0.4 M0.85 -0.3 L0.85 -0.3 M0.9 -0.4 L0.9 -0.4 0.9 -0.4 M1.05 -0.4 L1.05 -0.45 1.05 -0.4 M-0.6 -0.45 L-0.6 -0.4 -0.65 -0.4 -0.65 -0.4 -0.65 -0.4 -0.6 -0.45 M-0.65 -0.4 L-0.65 -0.4" fill="#bb3a33" fill-rule="evenodd" stroke="none"/>
    <path d="M1.05 -0.3 L1.05 -0.35 1.05 -0.3 1.05 -0.3 M1.05 -0.45 L1.05 -0.45 1.1 -0.55 1.2 -0.55 1.25 -0.5 1.15 -0.5 1.05 -0.45 M1.25 -0.5 L1.3 -0.45 1.35 -0.4 1.35 -0.4 1.3 -0.4 1.25 -0.5 M1.25 -0.45 L1.3 -0.4 1.35 -0.3 1.35 -0.3 1.25 -0.25 1.3 -0.15 1.3 -0.1 1.25 -0.1 1.2 -0.1 1.2 -0.2 1.1 -0.2 1.1 -0.2 1.1 -0.25 1.15 -0.2 1.15 -0.25 1.2 -0.25 1.3 -0.35 1.25 -0.45 M1.1 -0.25 L1.1 -0.25 M1.2 -0.55 L1.2 -0.55" fill="#f94e44" fill-rule="evenodd" stroke="none"/>
    <path d="M0.7 -0.65 L0.7 -0.6 0.7 -0.6 0.7 -0.6 0.7 -0.5 0.7 -0.5 0.7 -0.5 0.65 -0.5 0.55 -0.5 0.55 -0.55 0.55 -0.55 0.6 -0.6 0.7 -0.65 M0.7 -0.6 L0.7 -0.6 M-0.75 0.0 L-0.7 0.05 -0.7 0.05 -0.75 0.1 -0.75 0.1 -0.8 0.05 -0.75 0.05 -0.75 0.0" fill="#35441c" fill-rule="evenodd" stroke="none"/>
    <path d="M0.7 -0.6 L0.7 -0.65 0.7 -0.6 0.7 -0.6 M0.55 -0.5 L0.55 -0.5 0.65 -0.5 0.7 -0.5 0.75 -0.4 0.8 -0.35 0.75 -0.35 0.7 -0.35 0.65 -0.35 0.6 -0.4 0.6 -0.45 0.55 -0.5 M0.35 -0.05 L0.35 -0.05 0.4 -0.05 0.4 -0.05 0.5 -0.05 0.5 -0.15 0.5 -0.15 0.5 -0.1 0.55 -0.05 0.55 -0.05 0.55 -0.05 0.45 -0.05 0.45 0.0 0.4 0.0 0.4 0.0 0.35 -0.05 M0.5 -0.2 L0.45 -0.25 0.4 -0.3 0.4 -0.3 0.45 -0.3 0.5 -0.25 0.5 -0.2 M0.4 -0.3 L0.4 -0.3 M0.55 -0.05 L0.55 -0.05 0.55 -0.05 M1.0 0.25 L1.05 0.3 1.0 0.35 1.0 0.25 M0.8 0.3 L0.8 0.3 0.8 0.25 0.85 0.2 0.85 0.25 0.9 0.3 0.95 0.35 0.9 0.35 0.85 0.35 0.8 0.35 0.85 0.4 0.8 0.3" fill="#a8342d" fill-rule="evenodd" stroke="none"/>
    <path d="M0.55 -0.45 L0.55 -0.45 0.55 -0.45 0.55 -0.45 M0.5 -0.15 L0.55 -0.15 0.55 -0.15 0.55 -0.2 0.55 -0.2 0.6 -0.2 0.65 -0.2 0.65 -0.2 0.75 -0.25 0.75 -0.3 0.8 -0.3 0.75 -0.25 0.75 -0.25 0.75 -0.15 0.75 -0.15 0.7 -0.1 0.65 -0.1 0.6 -0.05 0.55 -0.05 0.5 -0.1 0.5 -0.15 M0.55 -0.05 L0.55 -0.05 M0.7 -0.1 L0.7 -0.1" fill="#9c302a" fill-rule="evenodd" stroke="none"/>
    <path d="M0.8 -0.35 L0.8 -0.35 0.85 -0.35 0.85 -0.35 0.8 -0.35 0.8 -0.35 0.8 -0.35 M0.8 -0.3 L0.85 -0.3 0.85 -0.2 0.85 -0.15 0.8 -0.1 0.75 -0.15 0.75 -0.25 0.8 -0.25 0.8 -0.3" fill="#551a17" fill-rule="evenodd" stroke="none"/>
    <path d="M0.85 -0.35 L0.85 -0.3 0.8 -0.3 0.75 -0.25 0.8 -0.35 0.8 -0.35 0.85 -0.35 M0.75 -0.25 L0.75 -0.25 M0.85 -0.25 L0.85 -0.3 0.9 -0.3 0.9 -0.15 0.9 -0.2 0.85 -0.25 M-0.7 -1.25 L-0.7 -1.25 -0.65 -1.25 -0.65 -1.3 -0.55 -1.25 -0.6 -1.25 -0.6 -1.2 -0.7 -1.25" fill="#c33d35" fill-rule="evenodd" stroke="none"/>
    <path d="M0.85 -0.3 L0.85 -0.3 0.9 -0.3 0.95 -0.25 0.95 -0.2 0.95 -0.05 0.9 -0.05 0.9 0.0 0.85 0.0 0.85 0.05 0.75 0.05 0.7 -0.05 0.7 -0.05 0.7 -0.1 0.75 -0.15 0.8 -0.05 0.85 -0.05 0.9 -0.15 0.9 -0.3 0.85 -0.3 M0.7 -0.1 L0.7 -0.1 M-1.15 -0.05 L-1.2 -0.15 -1.2 -0.2 -1.2 -0.25 -1.1 -0.3 -1.0 -0.3 -1.0 -0.2 -1.05 -0.2 -1.1 -0.1 -1.05 -0.1 -1.1 -0.05 -1.15 -0.05 M-0.65 0.05 L-0.65 0.1 -0.65 0.05 M-0.65 0.25 L-0.55 0.35 -0.65 0.3 -0.65 0.25" fill="#c13c34" fill-rule="evenodd" stroke="none"/>
    <path d="M0.85 -0.3 L0.85 -0.25 0.85 -0.2 0.85 -0.3 M0.9 -0.2 L0.9 -0.15 0.85 -0.05 0.8 -0.05 0.75 -0.15 0.75 -0.15 0.8 -0.1 0.85 -0.15 0.85 -0.2 0.85 -0.2 0.9 -0.2" fill="#481613" fill-rule="evenodd" stroke="none"/>
    <path d="M0.55 -0.05 L0.55 -0.05 0.5 -0.1 0.55 -0.05 M0.65 -0.2 L0.65 -0.2 0.6 -0.2 0.6 -0.25 0.6 -0.3 0.65 -0.3 0.7 -0.25 0.65 -0.2 M0.75 -0.25 L0.8 -0.3 0.8 -0.25 0.75 -0.25 M0.6 -0.25 L0.6 -0.25" fill="#8c2c26" fill-rule="evenodd" stroke="none"/>
    <path d="M-0.15 -1.3 L-0.15 -1.25 -0.2 -1.2 -0.2 -1.25 -0.15 -1.3 M0.65 0.0 L0.65 -0.05 0.65 -0.05 0.7 -0.05 0.7 -0.05 0.75 0.05 0.85 0.05 0.85 0.0 0.85 0.05 0.8 0.05 0.75 0.1 0.7 0.05 0.65 0.0 M0.7 -0.1 L0.7 -0.1 0.7 -0.1 0.7 -0.05 0.7 -0.1" fill="#5a1c18" fill-rule="evenodd" stroke="none"/>
    <path d="M0.0 -0.6 L0.05 -0.5 0.0 -0.5 0.0 -0.5 -0.05 -0.45 -0.1 -0.45 -0.15 -0.5 -0.2 -0.5 -0.2 -0.55 -0.25 -0.6 -0.25 -0.6 -0.2 -0.6 -0.15 -0.65 -0.1 -0.65 -0.1 -0.65 0.0 -0.6 M-0.3 -0.2 L-0.3 -0.15 -0.2 -0.05 -0.2 -0.05 -0.3 -0.05 -0.3 -0.15 -0.35 -0.2 -0.35 -0.25 -0.35 -0.25 -0.3 -0.2 M-0.1 -0.65 L-0.1 -0.65 M-0.1 -0.45 L-0.1 -0.45 -0.1 -0.45 M-0.3 -0.05 L-0.3 -0.05" fill="#50682b" fill-rule="evenodd" stroke="none"/>
    <path d="M0.65 -0.1 L0.7 -0.1 0.7 -0.05 0.65 -0.05 0.65 -0.1 M0.6 0.05 L0.55 0.1 0.5 0.05 0.55 0.1 0.6 0.05" fill="#3b4d20" fill-rule="evenodd" stroke="none"/>
    <path d="M0.0 -0.5 L0.05 -0.5 0.0 -0.5 0.0 -0.5 M0.1 -0.45 L0.1 -0.4 0.1 -0.4 0.1 -0.45 M0.2 -0.5 L0.2 -0.5 0.25 -0.55 0.25 -0.55 0.3 -0.55 0.3 -0.6 0.35 -0.6 0.25 -0.5 0.2 -0.5 0.2 -0.5 M0.35 -0.6 L0.35 -0.6 M0.2 0.0 L0.2 0.05 0.15 0.05 0.1 0.1 0.05 0.1 0.0 0.15 0.0 0.15 0.0 0.2 -0.05 0.25 -0.05 0.2 -0.1 0.2 -0.1 0.15 -0.05 0.1 0.0 0.05 0.1 0.05 0.15 0.05 0.15 0.0 0.1 -0.05 0.2 0.0 0.2 0.0 M0.65 -0.05 L0.65 -0.05 0.7 -0.05 0.65 -0.05 M1.4 -0.3 L1.45 -0.3 1.5 -0.3 1.5 -0.3 1.5 -0.25 1.5 -0.2 1.5 -0.25 1.45 -0.3 1.4 -0.3 M1.3 -0.15 L1.25 -0.25 1.35 -0.3 1.35 -0.3 1.35 -0.25 1.3 -0.2 1.3 -0.15 M1.5 -0.2 L1.5 -0.2 M1.5 -0.25 L1.5 -0.25 M-0.9 -1.3 L-0.9 -1.35 -0.85 -1.35 -0.85 -1.3 -0.85 -1.2 -0.85 -1.15 -0.9 -1.15 -0.9 -1.3 M-1.0 -0.05 L-1.05 -0.05 -1.0 -0.05 -1.0 -0.05" fill="#2d3a18" fill-rule="evenodd" stroke="none"/>
    <path d="M0.35 -0.5 L0.35 -0.5 0.35 -0.5 0.35 -0.4 0.35 -0.35 0.4 -0.3 0.35 -0.3 0.3 -0.3 0.3 -0.3 0.25 -0.3 0.25 -0.35 0.25 -0.35 0.3 -0.4 0.35 -0.5 M0.35 -0.3 L0.35 -0.3 M0.9 0.0 L0.9 -0.05 0.95 -0.05 0.95 -0.05 0.95 -0.2 1.0 -0.2 1.0 -0.2 1.0 -0.15 1.05 -0.15 1.05 -0.15 1.05 -0.1 1.1 -0.1 1.05 -0.05 1.05 -0.05 1.0 0.0 0.95 0.0 0.9 0.0 0.9 0.0 M1.0 0.0 L1.0 0.0" fill="#641f1b" fill-rule="evenodd" stroke="none"/>
    <path d="M1.15 -0.25 L1.15 -0.25 1.15 -0.2 1.1 -0.25 1.1 -0.25 1.15 -0.25 M1.1 -0.25 L1.1 -0.25" fill="#3e1310" fill-rule="evenodd" stroke="none"/>
    <path d="M0.35 -0.05 L0.35 -0.05 0.4 -0.05 0.35 -0.05 M1.0 -0.2 L1.05 -0.3 1.05 -0.25 1.1 -0.25 1.1 -0.15 1.05 -0.2 1.0 -0.2 M1.05 -0.3 L1.05 -0.3 M-0.25 0.4 L-0.2 0.4 -0.2 0.35 -0.2 0.4 -0.2 0.5 -0.25 0.45 -0.25 0.4" fill="#293616" fill-rule="evenodd" stroke="none"/>
    <path d="M1.1 -0.3 L1.1 -0.25 1.1 -0.3 M1.1 -0.25 L1.1 -0.25 M-1.1 -0.5 L-1.1 -0.5 -1.1 -0.45 -1.1 -0.5 M-0.65 0.2 L-0.65 0.25 -0.65 0.3 -0.7 0.25 -0.75 0.15 -0.75 0.15 -0.8 0.15 -0.85 0.1 -0.8 0.05 -0.75 0.1 -0.75 0.1 -0.7 0.15 -0.7 0.15 -0.65 0.2" fill="#283415" fill-rule="evenodd" stroke="none"/>
    <path d="M0.05 -0.5 L0.05 -0.45 0.05 -0.5 M0.1 -0.4 L0.15 -0.4 0.2 -0.35 0.15 -0.35 0.15 -0.3 0.1 -0.4 0.1 -0.4 M0.0 -0.4 L0.05 -0.45 0.05 -0.45 0.0 -0.4 -0.05 -0.4 -0.05 -0.4 -0.05 -0.45 0.0 -0.4 M0.15 -0.4 L0.15 -0.4 M1.35 -0.3 L1.35 -0.3 1.4 -0.2 1.35 -0.05 1.3 0.0 1.25 0.0 1.2 -0.05 1.15 -0.1 1.1 -0.05 1.1 -0.15 1.1 -0.25 1.1 -0.2 1.15 -0.1 1.2 -0.1 1.25 -0.1 1.3 -0.1 1.3 -0.15 1.35 -0.2 1.35 -0.25 1.35 -0.3 1.35 -0.3 M1.1 -0.15 L1.1 -0.15 M1.35 -0.05 L1.35 -0.05" fill="#942e28" fill-rule="evenodd" stroke="none"/>
    <path d="M1.05 -0.15 L1.05 -0.15 1.0 -0.15 1.0 -0.2 1.05 -0.2 1.1 -0.15 1.05 -0.15" fill="#587230" fill-rule="evenodd" stroke="none"/>
    <path d="M1.0 -0.2 L1.0 -0.2 1.05 -0.2 1.0 -0.2" fill="#303f1a" fill-rule="evenodd" stroke="none"/>
    <path d="M1.6 -0.1 L1.6 -0.05 1.55 -0.05 1.6 -0.1 M0.25 -0.35 L0.25 -0.3 0.3 -0.3 0.3 -0.15 0.25 -0.15 0.25 -0.15 0.2 -0.15 0.2 -0.1 0.15 -0.15 0.25 -0.2 0.15 -0.3 0.2 -0.3 0.25 -0.35 0.25 -0.35 M1.1 -0.15 L1.1 -0.15 1.05 -0.2 1.1 -0.15 M1.55 -0.05 L1.55 -0.05 M-1.3 -0.75 L-1.35 -0.75 -1.35 -0.75 -1.3 -0.75 M-0.65 -0.05 L-0.65 -0.05 -0.7 -0.05 -0.65 -0.1 -0.65 -0.05" fill="#3c4e21" fill-rule="evenodd" stroke="none"/>
    <path d="M1.1 -0.1 L1.05 -0.1 1.05 -0.15 1.1 -0.1" fill="#6c221d" fill-rule="evenodd" stroke="none"/>
    <path d="M1.1 -0.15 L1.1 -0.05 1.1 -0.05 1.1 -0.1 1.05 -0.15 1.1 -0.15" fill="#405322" fill-rule="evenodd" stroke="none"/>
    <path d="M0.35 -0.5 L0.35 -0.5 0.35 -0.4 0.4 -0.35 0.4 -0.3 0.35 -0.35 0.35 -0.4 0.35 -0.5 M0.4 -0.3 L0.4 -0.3 0.4 -0.3 M-0.7 0.05 L-0.7 0.05 -0.7 0.05 -0.7 0.05" fill="#67201c" fill-rule="evenodd" stroke="none"/>
    <path d="M0.4 -0.3 L0.4 -0.3 0.4 -0.3 0.4 -0.3" fill="#e4473e" fill-rule="evenodd" stroke="none"/>
    <path d="M0.4 -0.35 L0.45 -0.3 0.4 -0.3 0.4 -0.35 M0.5 -0.2 L0.5 -0.25 0.45 -0.3 0.45 -0.3 0.55 -0.25 0.6 -0.25 0.6 -0.2 0.55 -0.2 0.5 -0.2" fill="#34441c" fill-rule="evenodd" stroke="none"/>
    <path d="M0.6 -0.4 L0.55 -0.4 0.55 -0.45 0.6 -0.45 0.6 -0.4 M-0.5 -0.9 L-0.5 -0.9 -0.5 -0.9 -0.5 -0.9" fill="#ff564b" fill-rule="evenodd" stroke="none"/>
    <path d="M0.6 -0.4 L0.6 -0.4 0.6 -0.4" fill="#37481e" fill-rule="evenodd" stroke="none"/>
    <path d="M0.6 -0.4 L0.6 -0.4 0.6 -0.4 0.65 -0.35 0.65 -0.35 0.6 -0.35 0.6 -0.4 M-0.65 -0.45 L-0.65 -0.45 -0.6 -0.45 -0.65 -0.4 -0.65 -0.4 -0.65 -0.45" fill="#74241f" fill-rule="evenodd" stroke="none"/>
    <path d="M0.55 -0.4 L0.55 -0.4 0.6 -0.35 0.6 -0.35 0.6 -0.25 0.6 -0.35 0.55 -0.4 M0.6 -0.25 L0.6 -0.25" fill="#263115" fill-rule="evenodd" stroke="none"/>
    <path d="M0.35 -0.65 L0.35 -0.55 0.35 -0.6 0.35 -0.65 M0.35 -0.6 L0.35 -0.6 M0.1 0.3 L0.15 0.3 0.1 0.35 0.1 0.3 M-0.05 0.25 L0.0 0.3 -0.05 0.3 -0.05 0.35 -0.05 0.25 M-0.05 0.35 L-0.05 0.35" fill="#5c7732" fill-rule="evenodd" stroke="none"/>
    <path d="M1.45 -0.5 L1.4 -0.4 1.4 -0.45 1.45 -0.5 M1.4 -0.55 L1.35 -0.5 1.3 -0.5 1.3 -0.5 1.25 -0.5 1.25 -0.55 1.35 -0.55 1.4 -0.55 1.4 -0.55 M1.25 -0.5 L1.25 -0.5" fill="#51692c" fill-rule="evenodd" stroke="none"/>
    <path d="M0.2 -0.4 L0.2 -0.45 0.2 -0.5 0.25 -0.5 0.35 -0.6 0.35 -0.5 0.35 -0.5 0.3 -0.4 0.25 -0.35 0.25 -0.35 0.25 -0.35 0.15 -0.3 0.15 -0.35 0.2 -0.35 0.15 -0.4 0.2 -0.4 0.2 -0.4 M0.25 -0.35 L0.25 -0.35" fill="#2c3a18" fill-rule="evenodd" stroke="none"/>
    <path d="M0.0 -0.65 L0.0 -0.65 0.1 -0.6 0.15 -0.6 0.15 -0.6 0.2 -0.55 0.2 -0.5 0.2 -0.45 0.2 -0.4 0.15 -0.4 0.1 -0.4 0.1 -0.45 0.05 -0.45 0.05 -0.5 0.0 -0.6 0.0 -0.65 M0.0 -0.6 L0.0 -0.6 M0.0 -0.5 L0.05 -0.5 0.0 -0.5 M0.05 -0.45 L0.05 -0.45 M0.2 -0.5 L0.2 -0.5 0.2 -0.5" fill="#6e8f3c" fill-rule="evenodd" stroke="none"/>
    <path d="M0.1 -0.15 L0.1 -0.25 0.15 -0.3 0.25 -0.35 0.25 -0.35 0.2 -0.3 0.15 -0.3 0.15 -0.35 0.15 -0.3 0.1 -0.25 0.1 -0.15 0.15 -0.15 0.15 -0.1 0.1 -0.15" fill="#475c26" fill-rule="evenodd" stroke="none"/>
    <path d="M1.0 0.05 L1.05 0.1 1.1 0.15 1.15 0.15 1.2 0.15 1.15 0.25 1.05 0.2 1.05 0.15 1.0 0.15 1.0 0.05 M0.55 0.2 L0.55 0.25 0.55 0.4 0.45 0.45 0.45 0.4 0.4 0.4 0.4 0.25 0.4 0.2 0.45 0.1 0.45 0.15 0.55 0.2 M-0.2 -1.2 L-0.2 -1.2 -0.2 -1.15 -0.2 -1.2 M-0.15 -0.4 L-0.15 -0.4 -0.15 -0.4 -0.1 -0.4 -0.1 -0.4 -0.15 -0.4 -0.15 -0.4" fill="#3b4c20" fill-rule="evenodd" stroke="none"/>
    <path d="M-1.5 -0.2 L-1.55 -0.25 -1.55 -0.4 -1.5 -0.4 -1.5 -0.4 -1.55 -0.4 -1.5 -0.3 -1.5 -0.3 -1.45 -0.25 -1.5 -0.2 -1.5 -0.2" fill="#37471d" fill-rule="evenodd" stroke="none"/>
    <path d="M0.35 -0.3 L0.4 -0.3 0.4 -0.3 0.35 -0.3 M0.4 -0.3 L0.4 -0.3" fill="#3f1311" fill-rule="evenodd" stroke="none"/>
    <path d="M0.3 -0.3 L0.3 -0.3 0.35 -0.3 0.3 -0.25 0.35 -0.15 0.35 -0.1 0.45 -0.1 0.5 -0.15 0.5 -0.15 0.5 -0.05 0.4 -0.05 0.4 -0.05 0.35 -0.05 0.3 -0.15 0.3 -0.3" fill="#526b2c" fill-rule="evenodd" stroke="none"/>
    <path d="M0.25 -0.15 L0.25 -0.15 0.3 -0.15 0.35 -0.05 0.35 0.0 0.35 -0.1 0.25 -0.05 0.2 0.05 0.2 0.0 0.2 0.0 0.25 -0.1 0.25 -0.1 0.25 -0.15 M0.35 -0.05 L0.35 -0.05 0.35 -0.05 M-1.1 -0.8 L-1.1 -0.8 -1.1 -0.8 -1.1 -0.75 -1.05 -0.65 -1.1 -0.6 -1.1 -0.55 -1.15 -0.55 -1.2 -0.6 -1.2 -0.6 -1.25 -0.7 -1.25 -0.7 -1.25 -0.75 -1.2 -0.85 -1.1 -0.8 M-1.25 -0.75 L-1.25 -0.75 M-1.1 -0.55 L-1.1 -0.55 M-1.1 -0.6 L-1.1 -0.6 M-1.1 -0.75 L-1.1 -0.75 -1.1 -0.75" fill="#202911" fill-rule="evenodd" stroke="none"/>
    <path d="M0.35 0.0 L0.35 -0.05 0.4 0.0 0.4 0.0 0.45 0.05 0.45 0.1 0.4 0.2 0.4 0.25 0.35 0.3 0.35 0.25 0.35 0.2 0.3 0.2 0.35 0.1 0.35 0.0 M0.05 0.6 L0.0 0.6 0.0 0.65 -0.05 0.6 -0.1 0.55 -0.1 0.45 -0.1 0.45 -0.05 0.45 -0.05 0.45 -0.05 0.5 0.0 0.5 0.05 0.5 0.05 0.6 M-0.2 -1.2 L-0.25 -1.2 -0.2 -1.2 -0.2 -1.2" fill="#1b230e" fill-rule="evenodd" stroke="none"/>
    <path d="M0.5 -0.2 L0.5 -0.2 0.55 -0.2 0.55 -0.15 0.55 -0.15 0.5 -0.15 0.5 -0.2 M0.5 -0.15 L0.5 -0.15 0.5 -0.15 M0.55 -0.2 L0.55 -0.2 M-0.6 -0.4 L-0.6 -0.4 -0.6 -0.4 -0.55 -0.35 -0.5 -0.35 -0.45 -0.4 -0.45 -0.3 -0.45 -0.25 -0.5 -0.25 -0.5 -0.3 -0.5 -0.3 -0.6 -0.35 -0.6 -0.4 M-0.5 -0.15 L-0.45 -0.2 -0.45 -0.25 -0.45 -0.15 -0.55 -0.05 -0.6 -0.05 -0.55 -0.05 -0.5 -0.15 M-0.65 -0.05 L-0.6 -0.05 -0.65 -0.05 -0.65 -0.05 M-0.45 -0.15 L-0.45 -0.15 -0.45 -0.15 M-0.45 -0.25 L-0.45 -0.25" fill="#993029" fill-rule="evenodd" stroke="none"/>
    <path d="M0.45 0.0 L0.45 -0.05 0.45 0.0 0.55 0.05 0.6 0.05 0.55 0.1 0.5 0.05 0.45 0.05 0.45 0.0 0.45 0.0" fill="#ef4b41" fill-rule="evenodd" stroke="none"/>
    <path d="M0.4 0.0 L0.45 0.0 0.45 0.05 0.4 0.0 M-0.4 0.55 L-0.45 0.55 -0.45 0.55 -0.45 0.4 -0.45 0.4 -0.4 0.45 -0.35 0.45 -0.35 0.45 -0.35 0.55 -0.4 0.55 M0.45 0.0 L0.45 0.0" fill="#50672b" fill-rule="evenodd" stroke="none"/>
    <path d="M0.2 0.25 L0.25 0.25 0.25 0.2 0.25 0.3 0.2 0.4 0.25 0.4 0.25 0.45 0.2 0.5 0.2 0.4 0.15 0.4 0.15 0.3 0.2 0.25 M-0.85 0.05 L-0.85 0.0 -0.8 -0.05 -0.75 0.0 -0.75 0.0 -0.75 0.05 -0.8 0.05 -0.85 0.1 -0.9 0.05 -0.85 0.05 M-0.8 -0.05 L-0.8 -0.05" fill="#3f5122" fill-rule="evenodd" stroke="none"/>
    <path d="M-1.0 -1.15 L-1.0 -1.2 -1.0 -1.35 -0.95 -1.4 -0.9 -1.4 -0.85 -1.4 -0.9 -1.35 -0.95 -1.25 -0.95 -1.15 -1.0 -1.15 M-0.8 -1.4 L-0.8 -1.4 -0.8 -1.4 -0.8 -1.4 M-1.55 -0.4 L-1.5 -0.4 -1.45 -0.4 -1.45 -0.45 -1.35 -0.4 -1.35 -0.35 -1.3 -0.3 -1.35 -0.3 -1.4 -0.35 -1.45 -0.2 -1.45 -0.25 -1.5 -0.3 -1.5 -0.3 -1.55 -0.4 M-1.25 -0.15 L-1.25 -0.15 -1.3 -0.15 -1.3 -0.2 -1.25 -0.15 M-1.3 -0.15 L-1.3 -0.15 M-0.3 -1.1 L-0.3 -1.1 -0.3 -1.05 -0.35 -1.05 -0.35 -1.15 -0.3 -1.1 M-0.35 -1.15 L-0.35 -1.15 M-0.35 -0.25 L-0.35 -0.25 -0.35 -0.25 -0.35 -0.25 -0.35 -0.25 -0.4 -0.3 -0.35 -0.25 M-0.4 -0.3 L-0.4 -0.3" fill="#36461d" fill-rule="evenodd" stroke="none"/>
    <path d="M-0.3 -0.2 L-0.3 -0.2 -0.35 -0.25 -0.35 -0.25 -0.3 -0.25 -0.3 -0.2 M0.5 0.05 L0.5 0.15 0.55 0.2 0.45 0.15 0.45 0.05 0.5 0.05 M-0.25 -0.6 L-0.25 -0.65 -0.2 -0.6 -0.25 -0.6 -0.25 -0.6 -0.25 -0.6 M-0.25 -0.65 L-0.25 -0.65 M-0.4 -0.3 L-0.4 -0.35 -0.35 -0.3 -0.35 -0.25 -0.4 -0.3 -0.4 -0.3 M-0.15 -0.4 L-0.15 -0.4 -0.15 -0.4 -0.15 -0.4 -0.15 -0.4 -0.15 -0.4" fill="#f24b42" fill-rule="evenodd" stroke="none"/>
    <path d="M0.55 0.2 L0.6 0.25 0.55 0.25 0.55 0.2 M0.45 0.15 L0.45 0.1 0.45 0.05 0.45 0.15 M0.45 0.05 L0.45 0.0 0.45 0.05" fill="#ee4a41" fill-rule="evenodd" stroke="none"/>
    <path d="M-1.35 -0.9 L-1.35 -0.9 -1.35 -0.95 -1.25 -0.95 -1.2 -0.95 -1.1 -0.95 -1.1 -0.9 -1.1 -0.85 -1.1 -0.8 -1.1 -0.8 -1.2 -0.85 -1.25 -0.75 -1.3 -0.8 -1.35 -0.9 M-0.75 -1.55 L-0.75 -1.6 -0.7 -1.65 -0.65 -1.65 -0.6 -1.65 -0.55 -1.55 -0.6 -1.5 -0.6 -1.5 -0.65 -1.5 -0.7 -1.55 -0.75 -1.55 M0.55 0.25 L0.6 0.25 0.6 0.35 0.6 0.4 0.6 0.45 0.6 0.35 0.55 0.25 0.55 0.2 0.55 0.25 M-0.65 -1.65 L-0.65 -1.65 M-1.1 -0.8 L-1.1 -0.8" fill="#1a220e" fill-rule="evenodd" stroke="none"/>
    <path d="M0.55 0.2 L0.55 0.25 0.55 0.2 M0.45 0.4 L0.45 0.45 0.55 0.4 0.55 0.25 0.6 0.35 0.6 0.45 0.55 0.5 0.5 0.55 0.45 0.45 0.45 0.4 M0.15 0.4 L0.2 0.4 0.15 0.4 0.15 0.35 0.15 0.4 M-0.25 -1.1 L-0.2 -1.05 -0.2 -1.05 -0.25 -0.95 -0.3 -0.9 -0.35 -0.9 -0.35 -0.95 -0.3 -0.95 -0.35 -1.05 -0.3 -1.05 -0.3 -1.05 -0.25 -1.1" fill="#273215" fill-rule="evenodd" stroke="none"/>
    <path d="M0.2 0.05 L0.25 0.1 0.3 0.05 0.35 0.0 0.35 0.1 0.3 0.2 0.25 0.2 0.2 0.2 0.2 0.05" fill="#31401a" fill-rule="evenodd" stroke="none"/>
    <path d="M0.05 -0.1 L0.1 -0.1 0.1 -0.15 0.1 -0.1 0.1 -0.1 0.1 -0.05 0.15 0.0 0.15 0.05 0.1 0.05 0.1 0.0 0.1 0.0 0.1 0.0 0.05 0.0 0.05 0.0 0.05 -0.1" fill="#465a26" fill-rule="evenodd" stroke="none"/>
    <path d="M0.1 0.05 L0.15 0.05 0.1 0.05" fill="#df453c" fill-rule="evenodd" stroke="none"/>
    <path d="M0.2 0.25 L0.15 0.3 0.15 0.4 0.15 0.35 0.15 0.3 0.15 0.25 0.2 0.25" fill="#212a12" fill-rule="evenodd" stroke="none"/>
    <path d="M0.4 0.25 L0.4 0.4 0.4 0.45 0.4 0.5 0.35 0.5 0.3 0.5 0.3 0.45 0.25 0.4 0.3 0.4 0.35 0.35 0.35 0.25 0.35 0.3 0.4 0.25" fill="#415523" fill-rule="evenodd" stroke="none"/>
    <path d="M0.1 0.3 L0.15 0.3 0.15 0.35 0.15 0.4 0.1 0.45 0.05 0.5 0.0 0.45 0.05 0.45 0.1 0.4 0.1 0.35 0.15 0.3 0.1 0.3" fill="#688638" fill-rule="evenodd" stroke="none"/>
    <path d="M0.95 0.0 L1.0 0.0 0.95 0.05 0.95 0.0 M0.2 0.4 L0.2 0.5 0.25 0.45 0.25 0.55 0.15 0.55 0.1 0.5 0.05 0.5 0.1 0.45 0.15 0.4 0.2 0.4" fill="#485d27" fill-rule="evenodd" stroke="none"/>
    <path d="M0.65 0.55 L0.6 0.55 0.55 0.5 0.6 0.5 0.6 0.45 0.65 0.45 0.65 0.55 M0.35 0.55 L0.05 0.6 0.05 0.5 0.1 0.5 0.15 0.55 0.25 0.55 0.25 0.45 0.25 0.5 0.3 0.5 0.35 0.5 0.4 0.5 0.35 0.55 M-0.1 0.6 L-0.25 0.55 -0.2 0.55 -0.2 0.5 -0.2 0.5 -0.15 0.5 -0.15 0.45 -0.15 0.5 -0.1 0.55 -0.1 0.6 M-0.3 0.55 L-0.4 0.55 -0.35 0.55 -0.3 0.55 M-0.45 0.55 L-0.85 0.5 -0.9 0.45 -0.95 0.45 -0.9 0.4 -0.9 0.35 -0.95 0.3 -0.9 0.3 -0.9 0.3 -0.85 0.3 -0.65 0.3 -0.65 0.5 -0.55 0.5 -0.5 0.45 -0.5 0.4 -0.45 0.4 -0.45 0.55" fill="#41301b" fill-rule="evenodd" stroke="none"/>
    <path d="M0.45 0.65 L0.4 0.65 0.35 0.55 0.4 0.5 0.4 0.45 0.4 0.55 0.45 0.6 0.45 0.65" fill="#455a25" fill-rule="evenodd" stroke="none"/>
    <path d="M0.55 0.5 L0.6 0.45 0.6 0.5 0.55 0.5" fill="#6c8c3b" fill-rule="evenodd" stroke="none"/>
    <path d="M1.45 -0.5 L1.5 -0.5 1.45 -0.45 1.4 -0.4 1.45 -0.5 1.45 -0.5 M0.8 0.5 L0.8 0.55 0.75 0.6 0.65 0.55 0.65 0.45 0.65 0.4 0.7 0.3 0.8 0.35 0.8 0.4 0.8 0.5 M1.2 0.15 L1.25 0.1 1.25 0.05 1.25 0.15 1.2 0.15 M0.0 0.15 L0.0 0.15 0.05 0.1 0.1 0.1 0.1 0.15 0.05 0.15 0.0 0.15 M-1.0 -1.1 L-1.0 -1.1 -1.0 -1.15 -0.95 -1.15 -1.0 -1.1 -1.0 -1.1 M-0.9 -1.15 L-0.9 -1.15 -0.85 -1.1 -0.85 -1.1 -0.9 -1.15 M-1.35 -0.75 L-1.35 -0.75 -1.35 -0.75 -1.35 -0.75 -1.35 -0.75 M-1.45 -0.4 L-1.45 -0.45 -1.4 -0.45 -1.35 -0.5 -1.3 -0.5 -1.3 -0.5 -1.25 -0.45 -1.25 -0.4 -1.25 -0.3 -1.25 -0.3 -1.3 -0.3 -1.35 -0.35 -1.35 -0.4 -1.45 -0.45 -1.45 -0.4 M-1.25 -0.45 L-1.25 -0.45 M-0.85 -1.1 L-0.85 -1.1" fill="#2b3817" fill-rule="evenodd" stroke="none"/>
    <path d="M1.4 -0.6 L1.45 -0.6 1.55 -0.6 1.5 -0.5 1.45 -0.5 1.5 -0.55 1.4 -0.6 1.4 -0.6 1.4 -0.6 M1.45 -0.45 L1.5 -0.5 1.5 -0.45 1.45 -0.45 M0.6 0.55 L0.6 0.6 0.55 0.7 0.45 0.65 0.45 0.6 0.4 0.55 0.4 0.5 0.45 0.4 0.45 0.45 0.5 0.55 0.55 0.5 0.6 0.55 M-1.3 -0.15 L-1.25 -0.15 -1.25 -0.15 -1.25 -0.15 -1.15 0.0 -1.2 0.0 -1.25 0.05 -1.3 0.05 -1.35 0.0 -1.4 -0.05 -1.35 -0.1 -1.35 -0.15 -1.3 -0.15" fill="#293516" fill-rule="evenodd" stroke="none"/>
    <path d="M1.4 0.15 L1.4 0.2 1.35 0.3 1.3 0.6 1.25 0.65 1.25 0.6 1.2 0.6 1.15 0.6 1.15 0.7 1.1 0.7 1.05 0.7 1.0 0.65 1.0 0.6 0.8 0.65 0.8 0.7 0.85 0.7 0.8 0.75 0.75 0.75 0.8 0.8 0.75 0.8 0.75 0.75 0.7 0.75 0.65 0.75 0.65 0.8 0.6 0.8 0.55 0.85 0.55 0.85 0.5 0.9 0.45 0.85 0.4 0.85 0.35 0.8 0.35 0.85 0.25 0.8 0.2 0.75 0.15 0.75 0.1 0.75 0.05 0.75 0.05 0.8 0.0 0.85 -0.05 0.8 -0.05 0.8 -0.1 0.8 -0.1 0.75 -0.15 0.7 -0.2 0.75 -0.3 0.75 -0.35 0.65 -0.35 0.7 -0.4 0.7 -0.45 0.65 -0.45 0.6 -0.5 0.6 -0.55 0.65 -0.55 0.65 -0.6 0.65 -0.6 0.65 -0.65 0.65 -0.65 0.65 -0.7 0.65 -0.75 0.7 -0.8 0.65 -0.85 0.6 -0.9 0.55 -0.95 0.5 -0.95 0.5 -1.0 0.55 -1.05 0.6 -1.1 0.55 -1.2 0.5 -1.2 0.5 -1.25 0.3 -0.9 0.45 -0.85 0.5 -0.45 0.55 -0.45 0.55 -0.4 0.55 -0.3 0.55 -0.25 0.6 -0.25 0.55 -0.1 0.6 -0.05 0.6 -0.05 0.6 0.0 0.65 0.0 0.6 0.05 0.6 0.35 0.55 0.4 0.65 0.45 0.65 0.55 0.7 0.6 0.6 0.6 0.55 0.65 0.55 0.75 0.6 0.8 0.55 0.8 0.5 0.85 0.5 0.85 0.55 0.9 0.6 1.1 0.6 1.15 0.5 1.15 0.45 1.25 0.35 1.2 0.25 1.2 0.2 1.25 0.25 1.35 0.15 1.35 0.1 1.4 0.15 M1.25 1.15 L1.25 1.3 1.1 1.4 1.1 1.3 1.2 1.2 1.25 1.15 M0.7 1.5 L0.15 1.55 0.15 1.4 0.7 1.4 0.7 1.5" fill="#231c12" fill-rule="evenodd" stroke="none"/>
    <path d="M1.0 0.25 L1.0 0.35 0.95 0.35 0.9 0.3 0.85 0.25 0.85 0.2 0.85 0.15 0.9 0.05 0.95 0.05 0.95 0.15 1.0 0.25" fill="#1e2610" fill-rule="evenodd" stroke="none"/>
    <path d="M0.95 0.1 L1.0 0.1 0.95 0.1 M0.95 0.35 L1.0 0.35 0.95 0.4 0.9 0.35 0.95 0.35" fill="#6c211d" fill-rule="evenodd" stroke="none"/>
    <path d="M-0.95 -1.4 L-1.0 -1.4 -1.0 -1.6 -0.9 -1.6 -0.85 -1.55 -0.85 -1.45 -0.85 -1.45 -0.85 -1.4 -0.9 -1.4 -0.95 -1.4 M0.95 0.05 L0.95 0.1 1.0 0.1 1.0 0.25 0.95 0.15 0.95 0.05 M-0.85 -1.4 L-0.85 -1.4 M-1.25 -0.3 L-1.25 -0.25 -1.3 -0.2 -1.3 -0.15 -1.35 -0.15 -1.4 -0.15 -1.45 -0.2 -1.45 -0.2 -1.4 -0.35 -1.35 -0.3 -1.3 -0.3 -1.25 -0.3 -1.25 -0.3 -1.25 -0.3 M-1.25 -0.25 L-1.25 -0.25" fill="#253114" fill-rule="evenodd" stroke="none"/>
    <path d="M1.0 0.15 L1.05 0.15 1.05 0.3 1.0 0.25 1.0 0.1 1.0 0.15 M1.0 0.35 L1.0 0.4 0.95 0.45 0.85 0.4 0.9 0.4 1.0 0.35 M0.8 0.25 L0.85 0.2 0.8 0.25 M-1.2 -0.6 L-1.15 -0.55 -1.15 -0.55 -1.15 -0.55 -1.2 -0.6 M-1.1 -0.6 L-1.05 -0.65 -1.1 -0.75 -1.05 -0.75 -0.95 -0.7 -0.9 -0.6 -0.9 -0.5 -0.95 -0.5 -0.95 -0.5 -0.95 -0.55 -0.95 -0.55 -1.0 -0.6 -1.05 -0.6 -1.05 -0.6 -1.1 -0.6 M-0.9 -0.6 L-0.9 -0.6 M-1.25 -0.5 L-1.25 -0.5 -1.25 -0.5 -1.2 -0.5 -1.2 -0.5 -1.2 -0.45 -1.25 -0.45 -1.25 -0.5 M-1.2 -0.5 L-1.2 -0.5" fill="#ac362f" fill-rule="evenodd" stroke="none"/>
    <path d="M1.2 0.25 L1.25 0.35 1.15 0.45 1.15 0.4 1.1 0.3 1.15 0.25 1.2 0.25 1.2 0.2 1.2 0.25 M-0.3 -0.05 L-0.3 -0.05 -0.25 0.0 -0.3 0.0 -0.3 -0.05" fill="#9e312b" fill-rule="evenodd" stroke="none"/>
    <path d="M1.05 0.3 L1.1 0.25 1.15 0.25 1.1 0.3 1.05 0.3 M-0.6 -0.4 L-0.5 -0.45 -0.5 -0.4 -0.5 -0.4 -0.55 -0.4 -0.6 -0.4" fill="#531a16" fill-rule="evenodd" stroke="none"/>
    <path d="M0.0 -0.25 L0.05 -0.25 0.05 -0.2 0.0 -0.1 -0.15 -0.05 -0.2 -0.05 -0.2 -0.05 -0.2 -0.05 -0.3 -0.15 -0.3 -0.2 -0.25 -0.2 -0.2 -0.2 -0.2 -0.25 -0.15 -0.25 -0.15 -0.25 -0.15 -0.4 -0.1 -0.4 -0.1 -0.35 -0.05 -0.35 -0.05 -0.3 -0.05 -0.25 0.0 -0.25 0.0 -0.25 M-0.3 -0.2 L-0.3 -0.2 M-0.2 -0.05 L-0.2 -0.05 M-0.75 -1.1 L-0.75 -1.1 -0.65 -1.15 -0.65 -1.1 -0.65 -1.05 -0.65 -1.0 -0.6 -1.0 -0.6 -1.0 -0.6 -0.95 -0.65 -0.95 -0.65 -1.0 -0.7 -1.0 -0.75 -1.1" fill="#cd4038" fill-rule="evenodd" stroke="none"/>
    <path d="M1.05 0.35 L1.0 0.4 1.0 0.35 1.05 0.3 1.05 0.35 M1.0 0.45 L0.9 0.5 0.8 0.4 0.8 0.35 0.8 0.3 0.75 0.25 0.75 0.2 0.8 0.15 0.8 0.1 0.8 0.15 0.8 0.3 0.85 0.4 0.95 0.45 1.0 0.45" fill="#ec4940" fill-rule="evenodd" stroke="none"/>
    <path d="M0.8 0.05 L0.8 0.1 0.75 0.2 0.7 0.15 0.75 0.1 0.8 0.05" fill="#4b6229" fill-rule="evenodd" stroke="none"/>
    <path d="M0.8 0.3 L0.8 0.35 0.75 0.3 0.8 0.3" fill="#19210d" fill-rule="evenodd" stroke="none"/>
    <path d="M0.85 0.55 L0.85 0.5 0.8 0.5 0.8 0.4 0.8 0.45 0.85 0.5 0.85 0.55" fill="#d04138" fill-rule="evenodd" stroke="none"/>
    <path d="M1.05 0.35 L1.05 0.4 1.0 0.45 1.0 0.4 1.05 0.35" fill="#491714" fill-rule="evenodd" stroke="none"/>
    <path d="M1.0 0.4 L1.0 0.45 0.95 0.45 1.0 0.4" fill="#5c1c19" fill-rule="evenodd" stroke="none"/>
    <path d="M1.3 0.6 L1.2 1.05 1.2 1.15 1.15 1.2 0.95 1.3 0.95 1.2 1.0 1.2 0.95 1.2 0.95 1.15 1.0 1.15 1.0 1.05 1.0 0.85 1.05 0.7 1.1 0.7 1.15 0.7 1.15 0.6 1.2 0.6 1.25 0.6 1.25 0.65 1.3 0.6 M1.1 1.4 L0.85 1.5 0.7 1.5 0.7 1.4 0.85 1.35 1.1 1.3 1.1 1.4 M0.15 1.55 L0.05 1.55 -0.75 1.5 Q-1.1 1.4 -1.15 1.3 L-1.15 1.2 -1.1 1.2 Q-1.05 1.3 -0.95 1.3 L0.05 1.4 0.15 1.4 0.15 1.55 M0.75 0.8 L0.8 0.85 0.8 0.9 0.75 0.9 0.75 1.0 0.75 1.1 0.75 1.2 0.75 1.25 0.7 1.25 0.75 1.3 0.05 1.35 -0.65 1.3 -0.6 1.3 -0.6 1.25 -0.6 1.25 -0.65 1.2 -0.65 1.15 -0.7 1.15 -0.75 1.05 -0.75 1.05 -0.7 1.05 -0.7 1.05 -0.75 1.0 Q-0.75 1.0 -0.8 0.95 L-0.85 0.95 -0.8 0.95 -0.8 0.95 -0.85 0.9 -0.8 0.85 -0.8 0.85 -0.8 0.8 -0.9 0.75 -0.9 0.7 Q-0.85 0.7 -0.85 0.75 L-0.8 0.75 -0.8 0.75 -0.9 0.65 -1.0 0.6 -1.05 0.6 -1.0 0.55 -0.95 0.5 -0.95 0.5 -0.9 0.55 -0.85 0.6 -0.8 0.65 -0.75 0.7 -0.7 0.65 -0.65 0.65 -0.65 0.65 -0.6 0.65 -0.6 0.65 -0.55 0.65 -0.55 0.65 -0.5 0.6 -0.45 0.6 -0.45 0.65 -0.4 0.7 -0.35 0.7 -0.35 0.65 -0.3 0.75 -0.2 0.75 -0.15 0.7 -0.1 0.75 -0.1 0.8 -0.05 0.8 -0.05 0.8 0.0 0.85 0.05 0.8 0.05 0.75 0.1 0.75 0.15 0.75 0.2 0.75 0.25 0.8 0.35 0.85 0.35 0.8 0.4 0.85 0.45 0.85 0.5 0.9 0.55 0.85 0.55 0.85 0.6 0.8 0.65 0.8 0.65 0.75 0.7 0.75 0.75 0.75 0.75 0.8" fill="#352b1c" fill-rule="evenodd" stroke="none"/>
    <path d="M1.45 -0.5 L1.45 -0.5 1.4 -0.45 1.4 -0.5 1.35 -0.5 1.4 -0.55 1.4 -0.6 1.4 -0.6 1.5 -0.55 1.45 -0.5 M1.4 -0.6 L1.4 -0.6 M1.3 -0.5 L1.25 -0.5 1.3 -0.5 M1.35 -0.3 L1.4 -0.35 1.45 -0.3 1.4 -0.3 1.35 -0.3 M1.25 -0.5 L1.25 -0.5 M1.4 -0.3 L1.4 -0.3" fill="#475c27" fill-rule="evenodd" stroke="none"/>
    <path d="M-1.5 -0.4 L-1.55 -0.5 -1.45 -0.55 -1.4 -0.55 -1.4 -0.5 -1.45 -0.5 -1.4 -0.45 -1.45 -0.45 -1.45 -0.4 -1.5 -0.4 -1.5 -0.4 M1.4 -0.4 L1.45 -0.45 1.5 -0.45 1.5 -0.4 1.55 -0.3 1.5 -0.3 1.5 -0.3 1.45 -0.3 1.4 -0.35 1.4 -0.4" fill="#556e2e" fill-rule="evenodd" stroke="none"/>
    <path d="M1.5 -0.5 L1.55 -0.5 1.55 -0.45 1.5 -0.4 1.5 -0.45 1.5 -0.5" fill="#232d13" fill-rule="evenodd" stroke="none"/>
    <path d="M1.55 -0.45 L1.55 -0.45 1.6 -0.4 1.6 -0.3 1.55 -0.25 1.5 -0.25 1.5 -0.3 1.55 -0.3 1.5 -0.4 1.55 -0.45 M1.45 0.0 L1.5 0.05 1.4 0.1 1.35 0.1 1.25 0.1 1.25 0.05 1.3 0.1 1.35 0.05 1.45 0.0 1.45 0.0 1.45 0.0" fill="#2c3817" fill-rule="evenodd" stroke="none"/>
    <path d="M1.4 -0.6 L1.4 -0.6 1.4 -0.6 1.4 -0.6 M-1.25 -0.15 L-1.3 -0.2 -1.25 -0.25 -1.25 -0.2 -1.25 -0.15 M-1.25 -0.2 L-1.25 -0.2" fill="#242f13" fill-rule="evenodd" stroke="none"/>
    <path d="M1.55 -0.05 L1.55 -0.05 1.5 -0.15 1.5 -0.15 1.5 -0.15 1.6 -0.1 1.55 -0.05 1.55 -0.05 1.55 -0.05 M1.35 -0.5 L1.4 -0.5 1.4 -0.45 1.4 -0.4 1.4 -0.35 1.35 -0.3 1.35 -0.4 1.35 -0.4 1.3 -0.45 1.25 -0.5 1.3 -0.5 1.3 -0.5 1.35 -0.5 M-0.1 0.15 L-0.1 0.2 -0.05 0.2 -0.05 0.25 -0.1 0.3 -0.1 0.3 -0.1 0.35 -0.15 0.35 -0.2 0.3 -0.2 0.25 -0.2 0.2 -0.2 0.15 -0.15 0.1 -0.1 0.05 -0.15 0.15 -0.1 0.15 M-0.05 0.25 L-0.05 0.25" fill="#36471d" fill-rule="evenodd" stroke="none"/>
    <path d="M1.4 -0.3 L1.4 -0.3 1.45 -0.3 1.5 -0.25 1.5 -0.2 1.5 -0.15 1.5 -0.15 1.4 -0.1 1.35 -0.05 1.4 -0.2 1.35 -0.3 1.4 -0.3 M1.35 -0.25 L1.35 -0.2 1.3 -0.15 1.3 -0.2 1.35 -0.25 M-0.1 -0.45 L-0.1 -0.45 -0.1 -0.45 -0.05 -0.45 -0.1 -0.4 -0.15 -0.4 -0.15 -0.4 -0.15 -0.45 -0.1 -0.45" fill="#38491e" fill-rule="evenodd" stroke="none"/>
    <path d="M-1.45 0.05 L-1.5 0.05 -1.6 0.0 -1.55 -0.1 -1.45 -0.15 -1.45 -0.15 -1.4 -0.15 -1.4 -0.15 -1.35 -0.1 -1.4 -0.05 -1.35 0.0 -1.35 0.05 -1.45 0.05 -1.45 0.05 M1.35 -0.3 L1.35 -0.3 1.4 -0.3 1.35 -0.3 1.35 -0.3" fill="#3c4e20" fill-rule="evenodd" stroke="none"/>
    <path d="M1.6 -0.3 L1.6 -0.25 1.55 -0.25 1.6 -0.3 M-0.85 -1.45 L-0.8 -1.5 -0.8 -1.5 -0.85 -1.45 -0.85 -1.45 -0.8 -1.4 -0.85 -1.4 -0.85 -1.45 M-0.8 -1.4 L-0.8 -1.4" fill="#212b12" fill-rule="evenodd" stroke="none"/>
    <path d="M1.55 -0.2 L1.6 -0.1 1.6 -0.1 1.5 -0.15 1.5 -0.15 1.5 -0.2 1.55 -0.2 M1.5 -0.2 L1.5 -0.2" fill="#171d0c" fill-rule="evenodd" stroke="none"/>
    <path d="M1.55 -0.05 L1.55 0.0 1.5 0.0 1.55 -0.05 1.55 -0.05 M-1.0 -1.1 L-1.0 -1.15 -1.0 -1.1 M-0.95 -1.15 L-0.95 -1.15 -1.0 -1.15 -0.95 -1.15 -0.95 -1.15" fill="#1e2710" fill-rule="evenodd" stroke="none"/>
    <path d="M-1.3 0.15 L-1.35 0.15 -1.4 0.15 -1.5 0.1 -1.45 0.05 -1.45 0.05 -1.35 0.05 -1.35 0.0 -1.3 0.05 -1.25 0.05 -1.2 0.0 -1.25 0.05 -1.25 0.1 -1.25 0.15 -1.3 0.15 M1.45 0.0 L1.5 0.0 1.5 0.05 1.5 0.1 1.4 0.1 1.5 0.05 1.45 0.0" fill="#283315" fill-rule="evenodd" stroke="none"/>
    <path d="M1.25 0.05 L1.25 0.1 1.35 0.1 1.35 0.15 1.25 0.25 1.2 0.2 1.2 0.15 1.25 0.15 1.25 0.05 M-0.85 0.1 L-0.85 0.15 -0.85 0.2 -0.85 0.25 -0.9 0.3 -0.9 0.3 -0.95 0.3 -1.0 0.25 -1.0 0.15 -1.0 0.05 -0.9 0.05 -0.85 0.1 M-1.0 0.15 L-1.0 0.15" fill="#33431c" fill-rule="evenodd" stroke="none"/>
    <path d="M-1.1 1.05 L-1.2 0.5 -1.1 0.55 -1.05 0.6 -1.0 0.6 -0.9 0.65 -0.8 0.75 -0.8 0.75 -0.85 0.75 Q-0.85 0.7 -0.9 0.7 L-0.9 0.75 -0.8 0.8 -0.8 0.85 -0.8 0.85 -0.85 0.9 -0.8 0.95 -0.8 0.95 -0.85 0.95 -0.8 0.95 Q-0.75 1.0 -0.75 1.0 L-0.7 1.05 -0.7 1.05 -0.75 1.05 -0.75 1.05 -0.7 1.15 -0.65 1.15 -0.65 1.2 -0.6 1.25 -0.6 1.25 -0.6 1.3 -0.65 1.3 -0.75 1.3 -0.85 1.3 Q-1.05 1.25 -1.05 1.2 L-1.1 1.15 -1.1 1.05 M-1.25 0.3 L-1.3 0.2 -1.3 0.15 -1.25 0.15 -1.2 0.15 -1.2 0.3 -1.1 0.3 -1.05 0.25 -1.0 0.2 -1.0 0.25 -0.95 0.3 -0.9 0.35 -0.9 0.4 -0.95 0.45 -0.9 0.45 -1.25 0.3 M1.2 0.2 L1.2 0.15 1.2 0.2 M1.05 0.7 L1.0 0.85 1.0 1.05 1.0 1.15 0.95 1.15 0.95 1.2 1.0 1.2 0.95 1.2 0.95 1.3 0.85 1.3 0.75 1.3 0.7 1.25 0.75 1.25 0.75 1.2 0.75 1.1 0.75 1.0 0.75 0.9 0.8 0.9 0.8 0.85 0.75 0.8 0.8 0.8 0.75 0.75 0.8 0.75 0.85 0.7 0.8 0.7 0.8 0.65 1.0 0.6 1.0 0.65 1.05 0.7 M-0.65 0.3 L-0.65 0.3 -0.65 0.25 -0.65 0.3 -0.85 0.3 -0.9 0.3 -0.85 0.25 -0.85 0.2 -0.7 0.25 -0.65 0.3 M-1.2 0.15 L-1.2 0.15" fill="#584125" fill-rule="evenodd" stroke="none"/>
    <path d="M1.2 0.2 L1.2 0.25 1.2 0.2 1.2 0.15 1.2 0.2" fill="#546d2e" fill-rule="evenodd" stroke="none"/>
    <path d="M1.2 1.05 L1.25 1.15 1.2 1.2 1.1 1.3 0.85 1.35 0.7 1.4 0.15 1.4 0.05 1.4 -0.95 1.3 -0.85 1.3 -0.75 1.3 -0.65 1.3 0.05 1.35 0.75 1.3 0.85 1.3 0.95 1.3 1.15 1.2 1.2 1.15 1.2 1.05 M-1.0 0.15 L-1.0 0.25 -1.0 0.2 -1.0 0.15" fill="#7e5d35" fill-rule="evenodd" stroke="none"/>
    <path d="M-0.4 -1.75 L-0.35 -1.75 -0.3 -1.8 -0.15 -1.75 -0.15 -1.65 -0.15 -1.65 -0.2 -1.75 -0.25 -1.75 -0.3 -1.75 -0.3 -1.7 -0.35 -1.7 -0.35 -1.65 -0.35 -1.65 -0.4 -1.65 -0.4 -1.75 M-0.95 -1.15 L-0.95 -1.15 -0.9 -1.15 -0.95 -1.15 M-1.1 -0.95 L-1.1 -1.0 -1.1 -0.95" fill="#cc4037" fill-rule="evenodd" stroke="none"/>
    <path d="M-0.3 -1.6 L-0.3 -1.6 -0.35 -1.65 -0.35 -1.7 -0.3 -1.7 -0.3 -1.75 -0.25 -1.75 -0.2 -1.75 -0.15 -1.65 -0.1 -1.65 -0.1 -1.6 -0.1 -1.65 -0.2 -1.65 -0.3 -1.6 M-0.1 -1.6 L-0.1 -1.6 M-0.45 -0.25 L-0.45 -0.25 -0.4 -0.3 -0.4 -0.25 -0.4 -0.25 -0.4 -0.25 -0.45 -0.25 M-0.4 -0.3 L-0.4 -0.3" fill="#b43831" fill-rule="evenodd" stroke="none"/>
    <path d="M-1.1 -0.75 L-1.1 -0.8 -1.1 -0.75" fill="#c53d35" fill-rule="evenodd" stroke="none"/>
    <path d="M-0.5 -1.7 L-0.5 -1.7 -0.4 -1.75 -0.4 -1.75 -0.4 -1.7 -0.5 -1.7 M0.1 -1.25 L0.1 -1.25 0.1 -1.15 0.05 -1.1 0.0 -1.15 0.05 -1.15 0.1 -1.25 M-0.1 -1.6 L-0.05 -1.5 -0.05 -1.5 -0.1 -1.5 -0.1 -1.5 -0.1 -1.6 -0.1 -1.6" fill="#ff5046" fill-rule="evenodd" stroke="none"/>
    <path d="M-0.5 -1.45 L-0.55 -1.45 -0.55 -1.45 -0.5 -1.55 -0.5 -1.6 -0.45 -1.65 -0.4 -1.65 -0.45 -1.55 -0.45 -1.45 -0.4 -1.35 -0.3 -1.35 -0.4 -1.35 -0.45 -1.4 -0.5 -1.4 -0.5 -1.45 M-0.35 -1.6 L-0.4 -1.65 -0.35 -1.65 -0.3 -1.6 -0.3 -1.6 -0.35 -1.6 M-0.3 -1.6 L-0.3 -1.6 -0.3 -1.6 M-0.35 -1.65 L-0.35 -1.65 M-0.75 -0.75 L-0.75 -0.75 -0.7 -0.7 -0.75 -0.7 -0.75 -0.75" fill="#ff5d51" fill-rule="evenodd" stroke="none"/>
    <path d="M-0.15 -1.3 L-0.15 -1.3 -0.2 -1.25 -0.25 -1.25 -0.3 -1.25 -0.35 -1.25 -0.4 -1.3 -0.35 -1.3 -0.25 -1.3 -0.2 -1.4 -0.2 -1.4 -0.2 -1.5 -0.3 -1.6 -0.3 -1.6 -0.3 -1.6 -0.2 -1.65 -0.1 -1.65 -0.1 -1.6 -0.1 -1.5 -0.1 -1.4 -0.1 -1.4 -0.15 -1.35 -0.15 -1.3 M-0.2 -1.25 L-0.2 -1.25" fill="#ff5146" fill-rule="evenodd" stroke="none"/>
    <path d="M-0.3 -1.35 L-0.4 -1.35 -0.45 -1.45 -0.45 -1.55 -0.4 -1.65 -0.35 -1.6 -0.35 -1.6 -0.4 -1.55 -0.4 -1.45 -0.35 -1.4 -0.3 -1.35 -0.3 -1.35 -0.25 -1.45 -0.25 -1.5 -0.2 -1.5 -0.2 -1.5 -0.2 -1.5 -0.2 -1.4 -0.25 -1.35 -0.3 -1.35 M-1.05 -0.5 L-1.0 -0.5 -0.9 -0.45 -0.9 -0.4 -0.95 -0.4 -1.0 -0.4 -1.0 -0.45 -1.05 -0.45 -1.1 -0.4 -1.1 -0.4 -1.2 -0.3 -1.2 -0.2 -1.2 -0.15 -1.15 -0.05 -1.2 -0.1 -1.25 -0.25 -1.25 -0.3 -1.2 -0.4 -1.2 -0.45 -1.15 -0.45 -1.1 -0.45 -1.1 -0.5 -1.05 -0.5 M-1.2 -0.45 L-1.2 -0.45 M-0.9 -0.4 L-0.9 -0.4" fill="#812823" fill-rule="evenodd" stroke="none"/>
    <path d="M-0.35 -1.6 L-0.3 -1.6 -0.35 -1.6 -0.35 -1.6 M-0.2 0.3 L-0.25 0.35 -0.25 0.35 -0.25 0.35 -0.3 0.4 -0.35 0.4 -0.35 0.4 -0.3 0.4 -0.25 0.35 -0.2 0.3 M-0.4 0.35 L-0.4 0.35 -0.35 0.35 -0.35 0.4 -0.4 0.35 -0.45 0.3 -0.4 0.35" fill="#651f1b" fill-rule="evenodd" stroke="none"/>
    <path d="M-0.05 -1.35 L0.0 -1.3 0.0 -1.2 0.0 -1.25 -0.1 -1.35 -0.15 -1.3 -0.15 -1.35 -0.1 -1.4 -0.1 -1.4 -0.05 -1.35 M-0.2 -1.2 L-0.2 -1.15 -0.2 -1.2 -0.2 -1.2 -0.25 -1.2 -0.25 -1.25 -0.2 -1.25 -0.2 -1.25 -0.2 -1.2 M-0.2 -1.15 L-0.2 -1.15" fill="#be3b33" fill-rule="evenodd" stroke="none"/>
    <path d="M0.1 -1.55 L0.15 -1.5 0.1 -1.5 0.0 -1.5 0.0 -1.45 0.0 -1.5 -0.05 -1.5 0.1 -1.55 0.1 -1.55 M0.05 -1.25 L0.1 -1.25 0.05 -1.2 0.05 -1.25 M0.05 -1.2 L0.05 -1.2 M-0.05 -1.5 L-0.05 -1.5" fill="#e6483e" fill-rule="evenodd" stroke="none"/>
    <path d="M0.05 -1.55 L0.1 -1.55 0.1 -1.55 -0.05 -1.5 -0.05 -1.55 0.05 -1.55 0.05 -1.55 0.05 -1.55 M0.1 -1.25 L0.1 -1.25 0.05 -1.15 0.0 -1.15 0.05 -1.2 0.1 -1.25 M0.0 -1.15 L0.0 -1.15" fill="#872a24" fill-rule="evenodd" stroke="none"/>
    <path d="M0.05 -1.45 L0.05 -1.45 0.0 -1.4 0.0 -1.45 0.05 -1.45 M0.1 -1.25 L0.1 -1.25 0.05 -1.25 0.1 -1.25 M0.05 -1.2 L0.0 -1.15 0.0 -1.2 0.05 -1.2 0.05 -1.2" fill="#6d221d" fill-rule="evenodd" stroke="none"/>
    <path d="M0.0 -1.15 L0.05 -1.1 0.0 -1.05 0.0 -1.05 -0.05 -0.95 -0.05 -1.05 -0.1 -1.15 -0.1 -1.15 -0.2 -1.1 -0.2 -1.15 -0.2 -1.2 -0.15 -1.25 -0.15 -1.3 -0.1 -1.35 0.0 -1.25 0.0 -1.2 0.0 -1.15 0.0 -1.15 M-0.15 -1.3 L-0.15 -1.3" fill="#6a211d" fill-rule="evenodd" stroke="none"/>
    <path d="M-0.65 -1.65 L-0.65 -1.65 -0.65 -1.65" fill="#161d0c" fill-rule="evenodd" stroke="none"/>
    <path d="M-0.5 -1.6 L-0.5 -1.7 -0.4 -1.7 -0.4 -1.75 -0.4 -1.65 -0.45 -1.65 -0.5 -1.6 -0.5 -1.55 -0.55 -1.45 -0.55 -1.45 -0.5 -1.45 -0.55 -1.4 -0.55 -1.5 -0.5 -1.6 M0.0 -0.65 L0.0 -0.65 0.0 -0.65 0.0 -0.65 M-0.4 -0.85 L-0.45 -0.85 -0.5 -0.9 -0.45 -0.85 -0.4 -0.85 -0.4 -0.8 -0.45 -0.85 -0.5 -0.9 -0.45 -0.9 -0.45 -0.9 -0.4 -0.85 M-0.55 -0.95 L-0.55 -0.95 -0.55 -0.95 -0.55 -0.95 -0.55 -0.95 -0.55 -0.9 -0.6 -0.95 -0.55 -0.95 M-0.6 -0.95 L-0.6 -0.95 M-0.75 -1.15 L-0.75 -1.1 -0.8 -1.1 -0.75 -1.15 M-0.75 -1.1 L-0.75 -1.1 M-0.45 0.2 L-0.4 0.25 -0.45 0.25 -0.45 0.2" fill="#a9352e" fill-rule="evenodd" stroke="none"/>
    <path d="M-0.8 -1.5 L-0.8 -1.5 -0.75 -1.55 -0.7 -1.55 -0.65 -1.5 -0.6 -1.5 -0.55 -1.45 -0.65 -1.35 -0.7 -1.35 -0.7 -1.35 -0.8 -1.35 -0.8 -1.4 -0.85 -1.45 -0.8 -1.5 M-0.05 0.45 L-0.05 0.45 -0.05 0.5 -0.05 0.45" fill="#405323" fill-rule="evenodd" stroke="none"/>
    <path d="M-0.75 -1.2 L-0.75 -1.2 -0.7 -1.25 -0.7 -1.15 -0.75 -1.15 -0.8 -1.1 -0.8 -1.15 -0.75 -1.2 M-0.7 -0.75 L-0.7 -0.7 -0.7 -0.75 M-0.8 -1.1 L-0.8 -1.1" fill="#242e13" fill-rule="evenodd" stroke="none"/>
    <path d="M-0.85 -1.4 L-0.9 -1.3 -0.9 -1.3 -0.9 -1.15 -0.95 -1.15 -0.95 -1.25 -0.9 -1.35 -0.85 -1.4 -0.85 -1.4 M-0.95 -1.15 L-0.95 -1.15" fill="#4a5f28" fill-rule="evenodd" stroke="none"/>
    <path d="M-0.85 -1.4 L-0.8 -1.4 -0.85 -1.35 -0.9 -1.35 -0.9 -1.3 -0.9 -1.3 -0.85 -1.4 M-0.8 -1.4 L-0.8 -1.4" fill="#1c240f" fill-rule="evenodd" stroke="none"/>
    <path d="M-0.85 -1.35 L-0.8 -1.4 -0.8 -1.35 -0.7 -1.35 -0.7 -1.3 -0.7 -1.25 -0.75 -1.2 -0.75 -1.2 -0.8 -1.25 -0.8 -1.3 -0.85 -1.3 -0.85 -1.35 M-0.7 -1.25 L-0.7 -1.25 M-0.8 -1.4 L-0.8 -1.4" fill="#536c2d" fill-rule="evenodd" stroke="none"/>
    <path d="M-0.7 -1.3 L-0.7 -1.35 -0.7 -1.35 -0.65 -1.35 -0.65 -1.35 -0.55 -1.3 -0.55 -1.3 -0.55 -1.25 -0.65 -1.3 -0.65 -1.25 -0.65 -1.3 -0.7 -1.3" fill="#2e3b19" fill-rule="evenodd" stroke="none"/>
    <path d="M-0.7 -1.25 L-0.7 -1.3 -0.65 -1.3 -0.65 -1.25 -0.7 -1.25" fill="#39491f" fill-rule="evenodd" stroke="none"/>
    <path d="M-1.45 -0.15 L-1.5 -0.15 -1.5 -0.2 -1.5 -0.2 -1.45 -0.25 -1.45 -0.2 -1.45 -0.2 -1.4 -0.15 -1.45 -0.15 M-0.55 -1.5 L-0.55 -1.4 -0.55 -1.3 -0.55 -1.3 -0.65 -1.35 -0.65 -1.35 -0.55 -1.45 -0.6 -1.5 -0.55 -1.5 M-0.85 -1.2 L-0.8 -1.15 -0.85 -1.15 -0.85 -1.2 M-0.55 -1.3 L-0.55 -1.3 M-1.1 -0.8 L-1.1 -0.8 -1.1 -0.8 -1.1 -0.8 M-1.4 -0.15 L-1.4 -0.15 M-0.55 0.35 L-0.55 0.35 -0.55 0.4 -0.5 0.4 -0.5 0.4 -0.5 0.45 -0.55 0.5 -0.65 0.5 -0.65 0.3 -0.55 0.35 M-0.65 0.3 L-0.65 0.3" fill="#3a4b1f" fill-rule="evenodd" stroke="none"/>
    <path d="M-0.55 -1.3 L-0.55 -1.3 -0.55 -1.2 -0.6 -1.2 -0.6 -1.25 -0.55 -1.25 -0.55 -1.3" fill="#b13730" fill-rule="evenodd" stroke="none"/>
    <path d="M-0.45 -1.3 L-0.4 -1.3 -0.45 -1.25 -0.45 -1.3 M-0.3 -1.25 L-0.25 -1.25 -0.3 -1.2 -0.3 -1.25 M-0.25 -1.25 L-0.25 -1.25" fill="#bd3b33" fill-rule="evenodd" stroke="none"/>
    <path d="M-0.45 -1.25 L-0.45 -1.25 -0.5 -1.3 -0.45 -1.35 -0.45 -1.3 -0.45 -1.25 M-0.75 -0.4 L-0.7 -0.55 -0.8 -0.6 -0.75 -0.65 -0.75 -0.6 -0.75 -0.6 -0.7 -0.55 -0.7 -0.45 -0.75 -0.4 -0.75 -0.4 M-0.2 0.4 L-0.15 0.45 -0.15 0.45 -0.15 0.5 -0.2 0.5 -0.2 0.4" fill="#212a11" fill-rule="evenodd" stroke="none"/>
    <path d="M-0.55 -1.2 L-0.5 -1.2 -0.45 -1.2 -0.35 -1.2 -0.35 -1.15 -0.35 -0.9 -0.4 -0.85 -0.45 -0.9 -0.45 -0.9 -0.4 -0.95 -0.45 -1.05 -0.45 -1.15 -0.45 -1.15 -0.5 -1.2 -0.5 -1.2 -0.55 -1.2 M-0.5 -0.9 L-0.55 -0.95 -0.5 -0.95 -0.5 -0.95 -0.45 -0.9 -0.5 -0.9" fill="#d8433a" fill-rule="evenodd" stroke="none"/>
    <path d="M0.0 -0.25 L0.0 -0.25 0.0 -0.25 -0.05 -0.25 -0.05 -0.3 -0.05 -0.3 -0.05 -0.35 0.0 -0.3 0.0 -0.25 M-0.45 -1.15 L-0.5 -1.2 -0.5 -1.2 -0.45 -1.15 -0.45 -1.05 -0.4 -0.95 -0.45 -0.9 -0.5 -0.95 -0.5 -0.95 -0.55 -0.95 -0.55 -0.95 -0.5 -0.95 -0.5 -1.0 -0.45 -1.05 -0.45 -1.15" fill="#b63931" fill-rule="evenodd" stroke="none"/>
    <path d="M-0.55 -1.2 L-0.55 -1.2 -0.5 -1.2 -0.45 -1.15 -0.45 -1.05 -0.5 -1.0 -0.55 -0.95 -0.55 -0.95 -0.6 -0.95 -0.6 -1.0 -0.6 -1.05 -0.65 -1.1 -0.65 -1.15 -0.75 -1.1 -0.75 -1.1 -0.75 -1.15 -0.7 -1.15 -0.7 -1.25 -0.6 -1.2 -0.55 -1.2 M-0.45 -1.15 L-0.45 -1.15 M-0.75 -1.1 L-0.75 -1.1" fill="#a6342d" fill-rule="evenodd" stroke="none"/>
    <path d="M-0.45 -0.9 L-0.45 -0.9 -0.45 -0.9 M-0.65 -1.1 L-0.6 -1.05 -0.6 -1.0 -0.65 -1.05 -0.65 -1.1 M-0.6 -1.0 L-0.6 -1.0" fill="#802822" fill-rule="evenodd" stroke="none"/>
    <path d="M-0.6 -1.0 L-0.65 -1.0 -0.65 -1.05 -0.6 -1.0" fill="#68201c" fill-rule="evenodd" stroke="none"/>
    <path d="M-0.55 -0.95 L-0.55 -0.95 -0.5 -1.0 -0.5 -0.95 -0.55 -0.95" fill="#b93a32" fill-rule="evenodd" stroke="none"/>
    <path d="M-0.85 -1.1 L-0.8 -1.1 -0.75 -1.1 -0.7 -1.0 -0.7 -0.95 -0.65 -0.95 -0.65 -0.95 -0.7 -0.95 -0.8 -1.05 -0.8 -1.05 -0.9 -1.1 -0.9 -1.05 -0.95 -1.05 -1.0 -1.0 -1.0 -0.95 -1.0 -0.9 -0.95 -0.85 -0.95 -0.85 -0.95 -0.8 -1.05 -0.9 -1.05 -0.95 -1.0 -1.05 -0.95 -1.1 -0.85 -1.1 -0.85 -1.1 M-0.75 -1.1 L-0.75 -1.1 M-0.8 -1.1 L-0.8 -1.1 M-1.0 -1.05 L-1.0 -1.05" fill="#70231e" fill-rule="evenodd" stroke="none"/>
    <path d="M-0.9 -0.8 L-0.9 -0.8 -0.95 -0.85 -0.95 -1.0 -0.95 -1.0 -0.8 -1.0 -0.8 -0.9 -0.8 -0.8 -0.85 -0.75 -0.9 -0.8 -0.9 -0.75 -0.9 -0.8 M-0.65 -0.95 L-0.65 -0.9 -0.7 -0.8 -0.75 -0.75 -0.8 -0.75 -0.8 -0.75 -0.75 -0.85 -0.75 -0.9 -0.8 -1.0 -0.8 -1.0 -0.85 -1.05 -0.9 -1.05 -0.9 -1.1 -0.8 -1.05 -0.8 -1.05 -0.7 -0.95 -0.65 -0.95 M-0.75 -0.75 L-0.75 -0.75 M-1.0 -0.95 L-0.95 -0.85 -0.95 -0.85 -1.0 -0.9 -1.0 -0.95" fill="#7a2621" fill-rule="evenodd" stroke="none"/>
    <path d="M-1.05 -0.95 L-1.05 -1.0 -1.0 -1.05 -1.05 -0.95 -1.05 -0.9 -0.95 -0.8 -0.95 -0.85 -0.9 -0.8 -0.9 -0.8 -0.95 -0.8 -1.0 -0.75 -1.0 -0.8 -1.05 -0.8 -1.05 -0.9 -1.05 -0.95 M-1.0 -1.05 L-1.0 -1.05 -1.0 -1.05 M-0.9 -1.05 L-0.85 -1.05 -0.8 -1.0 -0.95 -1.0 -0.95 -1.0 -0.95 -1.05 -0.9 -1.05 M-0.8 -0.9 L-0.8 -1.0 -0.8 -0.9" fill="#782520" fill-rule="evenodd" stroke="none"/>
    <path d="M-0.8 -1.0 L-0.8 -1.0 -0.75 -0.9 -0.75 -0.85 -0.8 -0.75 -0.8 -0.75 -0.85 -0.75 -0.9 -0.75 -0.9 -0.75 -0.9 -0.8 -0.85 -0.75 -0.8 -0.8 -0.8 -0.9 -0.8 -1.0 M-0.95 -1.05 L-0.95 -1.0 -0.95 -0.85 -1.0 -0.95 -1.0 -1.0 -0.95 -1.05" fill="#9b302a" fill-rule="evenodd" stroke="none"/>
    <path d="M-0.65 -0.95 L-0.65 -0.95 -0.7 -0.95 -0.7 -1.0 -0.65 -1.0 -0.65 -0.95" fill="#f94f45" fill-rule="evenodd" stroke="none"/>
    <path d="M-0.6 -0.95 L-0.55 -0.9 -0.55 -0.9 -0.5 -0.9 -0.45 -0.85 -0.5 -0.85 -0.5 -0.8 -0.55 -0.75 -0.55 -0.65 -0.6 -0.7 -0.65 -0.7 -0.65 -0.75 -0.7 -0.7 -0.7 -0.75 -0.75 -0.75 -0.7 -0.8 -0.65 -0.9 -0.65 -0.95 -0.6 -0.95 M-0.5 -0.9 L-0.5 -0.9 M-0.65 -0.95 L-0.65 -0.95 -0.65 -0.95 M-0.75 -0.75 L-0.75 -0.75 -0.75 -0.75 M-0.65 -0.7 L-0.65 -0.7" fill="#cb3f37" fill-rule="evenodd" stroke="none"/>
    <path d="M-1.0 -0.6 L-1.05 -0.6 -1.0 -0.6 -0.95 -0.55 -0.95 -0.55 -1.0 -0.6 -1.0 -0.6 M-0.55 -0.95 L-0.55 -0.9 -0.5 -0.9 -0.55 -0.9 -0.55 -0.9 -0.55 -0.95 M-0.75 -0.75 L-0.75 -0.75 -0.75 -0.75 -0.75 -0.7 -0.75 -0.75 M-0.75 -0.9 L-0.75 -0.85 -0.75 -0.9 M-0.5 -0.9 L-0.5 -0.9" fill="#9a302a" fill-rule="evenodd" stroke="none"/>
    <path d="M-1.0 -0.8 L-1.0 -0.75 -0.95 -0.8 -0.9 -0.8 -0.9 -0.75 -0.9 -0.75 -0.85 -0.75 -0.8 -0.75 -0.75 -0.75 -0.75 -0.7 -0.8 -0.7 -0.8 -0.65 -0.85 -0.7 -0.9 -0.7 -0.95 -0.75 -1.05 -0.75 -1.05 -0.8 -1.0 -0.8 M-0.9 -0.7 L-0.9 -0.7" fill="#4a1714" fill-rule="evenodd" stroke="none"/>
    <path d="M-0.9 -0.7 L-0.9 -0.7 -0.9 -0.7" fill="#d34239" fill-rule="evenodd" stroke="none"/>
    <path d="M-1.1 -1.05 L-1.0 -1.1 -1.0 -1.1 -0.95 -1.15 -0.9 -1.15 -0.85 -1.1 -0.95 -1.1 -1.0 -1.05 -1.05 -1.0 -1.05 -0.95 -1.05 -0.9 -1.1 -0.9 -1.05 -0.8 -1.05 -0.8 -1.1 -0.85 -1.1 -0.9 -1.1 -0.95 -1.1 -0.95 -1.1 -1.0 -1.1 -1.0 -1.1 -1.05 M-1.0 -1.05 L-1.0 -1.05 M-0.9 -0.65 L-0.9 -0.7 -0.9 -0.7 -0.85 -0.7 -0.8 -0.65 -0.8 -0.7 -0.75 -0.7 -0.7 -0.7 -0.65 -0.7 -0.65 -0.7 -0.6 -0.65 -0.6 -0.55 -0.65 -0.45 -0.65 -0.4 -0.7 -0.4 -0.75 -0.4 -0.7 -0.45 -0.7 -0.55 -0.75 -0.6 -0.75 -0.6 -0.75 -0.65 -0.8 -0.6 -0.7 -0.55 -0.75 -0.4 -0.75 -0.3 -0.8 -0.4 -0.8 -0.5 -0.85 -0.65 -0.9 -0.65 M-0.65 -0.45 L-0.65 -0.45 M-0.7 -0.7 L-0.7 -0.7" fill="#ab352e" fill-rule="evenodd" stroke="none"/>
    <path d="M-0.5 -0.8 L-0.5 -0.8 -0.45 -0.7 -0.5 -0.65 -0.55 -0.65 -0.5 -0.7 -0.5 -0.8 M-0.75 -0.75 L-0.7 -0.75 -0.7 -0.7 -0.75 -0.75 M-0.7 -0.7 L-0.7 -0.7" fill="#8c2b26" fill-rule="evenodd" stroke="none"/>
    <path d="M-0.35 -1.15 L-0.35 -1.05 -0.3 -0.95 -0.35 -0.95 -0.35 -0.9 -0.35 -1.15 -0.35 -1.15 M-0.4 -0.85 L-0.35 -0.9 -0.35 -0.85 -0.4 -0.85 -0.45 -0.85 -0.5 -0.9 -0.45 -0.85 -0.4 -0.85 M-0.55 -0.95 L-0.5 -0.9 -0.55 -0.9 -0.55 -0.95 -0.55 -0.95 M-0.5 -0.9 L-0.5 -0.9 M-0.35 -0.9 L-0.35 -0.9 M-0.45 0.3 L-0.4 0.35 -0.45 0.3 -0.45 0.3 M-0.35 0.35 L-0.35 0.4 -0.25 0.35 -0.3 0.4 -0.35 0.4 -0.35 0.4 -0.35 0.35" fill="#882a25" fill-rule="evenodd" stroke="none"/>
    <path d="M-0.35 -0.75 L-0.25 -0.7 -0.25 -0.65 -0.3 -0.6 -0.3 -0.5 -0.3 -0.45 -0.35 -0.4 -0.4 -0.55 -0.45 -0.65 -0.5 -0.65 -0.45 -0.7 -0.5 -0.8 -0.5 -0.8 -0.5 -0.85 -0.45 -0.85 -0.4 -0.8 -0.4 -0.8 -0.35 -0.75 M-0.3 -0.6 L-0.3 -0.6" fill="#ff6054" fill-rule="evenodd" stroke="none"/>
    <path d="M-0.55 -0.65 L-0.5 -0.65 -0.45 -0.65 -0.55 -0.6 -0.6 -0.55 -0.6 -0.65 -0.6 -0.7 -0.55 -0.65" fill="#c73e36" fill-rule="evenodd" stroke="none"/>
    <path d="M-0.05 -0.95 L0.0 -1.05 0.0 -1.05 0.0 -1.0 0.0 -0.95 -0.05 -0.95 -0.05 -0.95 M-0.8 -0.05 L-0.8 -0.1 -0.8 -0.05 -0.8 -0.05 M-0.75 -0.2 L-0.8 -0.35 -0.9 -0.4 -0.9 -0.45 -0.85 -0.4 -0.8 -0.4 -0.75 -0.3 -0.75 -0.2" fill="#aa352e" fill-rule="evenodd" stroke="none"/>
    <path d="M-0.25 -1.25 L-0.2 -1.25 -0.25 -1.25 -0.25 -1.25" fill="#6f221e" fill-rule="evenodd" stroke="none"/>
    <path d="M-0.2 -1.15 L-0.2 -1.1 -0.25 -1.1 -0.3 -1.05 -0.3 -1.1 -0.25 -1.15 -0.25 -1.2 -0.2 -1.2 -0.2 -1.15 -0.2 -1.15 M-0.3 -1.1 L-0.3 -1.1" fill="#982f29" fill-rule="evenodd" stroke="none"/>
    <path d="M-0.25 -1.2 L-0.25 -1.2 -0.25 -1.15 -0.3 -1.1 -0.35 -1.15 -0.3 -1.15 -0.3 -1.2 -0.25 -1.2 M-0.3 -1.2 L-0.3 -1.2" fill="#b53831" fill-rule="evenodd" stroke="none"/>
    <path d="M-0.3 -1.2 L-0.25 -1.25 -0.25 -1.2 -0.3 -1.2 -0.3 -1.2 M-1.1 -0.85 L-1.05 -0.8 -1.05 -0.8 -1.05 -0.75 -1.1 -0.75 -1.1 -0.8 -1.1 -0.85 M-1.05 -0.75 L-1.05 -0.75" fill="#66201b" fill-rule="evenodd" stroke="none"/>
    <path d="M-1.0 -0.1 L-1.0 -0.15 -1.0 -0.1 -1.0 -0.1 M-0.2 -1.05 L-0.2 -1.05 -0.15 -1.05 -0.15 -1.0 -0.2 -0.95 -0.2 -0.95 -0.25 -0.9 -0.25 -0.9 -0.3 -0.9 -0.25 -0.95 -0.2 -1.05 -0.2 -1.05 M-0.3 -0.9 L-0.3 -0.9" fill="#69201c" fill-rule="evenodd" stroke="none"/>
    <path d="M-1.4 -0.55 L-1.4 -0.55 -1.35 -0.6 -1.35 -0.55 -1.35 -0.55 -1.4 -0.5 -1.4 -0.55" fill="#33421b" fill-rule="evenodd" stroke="none"/>
    <path d="M-0.3 -0.9 L-0.3 -0.9 -0.25 -0.9 -0.25 -0.85 -0.2 -0.8 -0.2 -0.8 -0.2 -0.7 -0.25 -0.7 -0.25 -0.8 -0.3 -0.85 -0.35 -0.9 -0.35 -0.9 -0.3 -0.9 M-0.25 -0.7 L-0.25 -0.7 -0.25 -0.7 M-0.2 -0.8 L-0.2 -0.8" fill="#789b41" fill-rule="evenodd" stroke="none"/>
    <path d="M-0.35 -0.9 L-0.3 -0.85 -0.25 -0.8 -0.25 -0.7 -0.35 -0.75 -0.3 -0.8 -0.35 -0.9" fill="#5f7b33" fill-rule="evenodd" stroke="none"/>
    <path d="M-0.25 -0.7 L-0.25 -0.7 -0.25 -0.65 -0.25 -0.65 -0.25 -0.7 M-0.15 -0.5 L-0.1 -0.45 -0.15 -0.45 -0.15 -0.5" fill="#f14b41" fill-rule="evenodd" stroke="none"/>
    <path d="M0.05 -0.9 L0.05 -0.95 0.1 -0.95 0.1 -0.95 0.1 -0.9 0.1 -0.85 0.15 -0.75 0.1 -0.75 0.1 -0.75 0.05 -0.75 -0.05 -0.75 -0.05 -0.8 0.0 -0.85 0.0 -0.9 0.05 -0.9 M-0.25 0.35 L-0.3 0.4 -0.35 0.45 -0.4 0.45 -0.45 0.4 -0.45 0.4 -0.5 0.4 -0.5 0.35 -0.55 0.35 -0.55 0.2 -0.55 0.15 -0.55 0.05 -0.55 0.1 -0.5 0.05 -0.5 0.1 -0.45 0.15 -0.4 0.15 -0.4 0.15 -0.4 0.15 -0.45 0.2 -0.45 0.25 -0.45 0.3 -0.4 0.35 -0.35 0.4 -0.3 0.4 -0.25 0.35 M-0.55 0.15 L-0.55 0.15 M-0.55 0.35 L-0.55 0.35 M-0.5 0.4 L-0.5 0.4 M-0.45 0.3 L-0.45 0.3" fill="#c63e36" fill-rule="evenodd" stroke="none"/>
    <path d="M0.15 -0.85 L0.1 -0.85 0.1 -0.9 0.15 -0.85" fill="#57712f" fill-rule="evenodd" stroke="none"/>
    <path d="M-0.1 -0.75 L-0.05 -0.75 -0.05 -0.7 0.0 -0.65 0.0 -0.65 0.0 -0.6 -0.1 -0.7 -0.1 -0.75" fill="#892b25" fill-rule="evenodd" stroke="none"/>
    <path d="M-0.1 -0.65 L-0.1 -0.65 -0.1 -0.65 -0.1 -0.65 M-0.1 -0.45 L-0.1 -0.45 -0.1 -0.45 -0.1 -0.45" fill="#b03730" fill-rule="evenodd" stroke="none"/>
    <path d="M-1.35 -0.95 L-1.35 -0.95 -1.3 -1.0 -1.25 -1.05 -1.2 -1.0 -1.2 -1.0 -1.15 -1.0 -1.15 -0.95 -1.1 -0.95 -1.1 -0.95 -1.1 -0.9 -1.1 -0.95 -1.2 -0.95 -1.25 -0.95 -1.35 -0.95" fill="#2a3617" fill-rule="evenodd" stroke="none"/>
    <path d="M-1.1 -0.95 L-1.1 -0.95 -1.15 -0.95 -1.15 -1.0 -1.15 -1.0 -1.1 -1.0 -1.1 -0.95 -1.1 -0.95 M-1.1 -1.0 L-1.1 -1.0" fill="#405222" fill-rule="evenodd" stroke="none"/>
    <path d="M-1.15 -1.0 L-1.2 -1.0 -1.2 -1.0 -1.2 -1.05 -1.1 -1.05 -1.1 -1.0 -1.15 -1.0 -1.15 -1.0" fill="#597330" fill-rule="evenodd" stroke="none"/>
    <path d="M-1.1 -1.05 L-1.1 -1.05 -1.1 -1.05 -1.1 -1.0 -1.1 -1.05 M-0.4 0.15 L-0.4 0.1 -0.35 0.0 -0.4 -0.1 -0.45 -0.15 -0.35 -0.05 -0.3 -0.05 -0.3 0.0 -0.3 0.15 -0.3 0.2 -0.4 0.15 -0.4 0.15 -0.4 0.15" fill="#4c6229" fill-rule="evenodd" stroke="none"/>
    <path d="M-1.05 -0.9 L-1.05 -0.8 -1.0 -0.8 -1.05 -0.8 -1.1 -0.9 -1.05 -0.9" fill="#3d1310" fill-rule="evenodd" stroke="none"/>
    <path d="M-1.1 -0.75 L-1.1 -0.75 -1.05 -0.75 -1.1 -0.75" fill="#ff6d5f" fill-rule="evenodd" stroke="none"/>
    <path d="M-1.05 -0.75 L-1.05 -0.75 -1.1 -0.75 -1.05 -0.75 -0.95 -0.75 -0.9 -0.7 -0.9 -0.65 -0.9 -0.6 -0.95 -0.7 -1.05 -0.75" fill="#ff5a4e" fill-rule="evenodd" stroke="none"/>
    <path d="M-0.95 -0.55 L-0.95 -0.5 -1.0 -0.6 -1.0 -0.6 -0.95 -0.55 M-0.95 -0.5 L-0.95 -0.5" fill="#ba3d35" fill-rule="evenodd" stroke="none"/>
    <path d="M-1.15 -0.55 L-1.1 -0.55 -1.1 -0.6 -1.05 -0.6 -0.95 -0.5 -1.0 -0.5 -1.1 -0.55 -1.15 -0.5 -1.15 -0.55 -1.15 -0.55 M-1.15 -0.5 L-1.15 -0.5 M-1.2 -0.45 L-1.2 -0.5 -1.2 -0.45 -1.2 -0.45" fill="#f24c42" fill-rule="evenodd" stroke="none"/>
    <path d="M-1.2 -0.2 L-1.2 -0.3 -1.1 -0.4 -1.1 -0.4 -1.0 -0.45 -1.0 -0.4 -0.95 -0.4 -1.0 -0.35 -1.0 -0.35 -1.0 -0.3 -1.1 -0.3 -1.2 -0.25 -1.2 -0.2 M-1.0 -0.05 L-1.0 -0.1 -1.0 -0.05 -1.0 -0.05 M-1.0 -0.1 L-1.0 -0.1" fill="#df463c" fill-rule="evenodd" stroke="none"/>
    <path d="M-0.9 -0.4 L-0.9 -0.4 -0.8 -0.35 -0.75 -0.2 -0.75 -0.1 -0.8 -0.1 -0.8 -0.05 -0.85 0.0 -0.85 0.05 -0.95 0.05 -1.0 0.0 -1.0 -0.05 -1.0 -0.05 -1.0 -0.05 -1.0 -0.05 -0.95 0.0 -0.85 -0.05 -0.8 -0.2 -0.85 -0.35 -0.95 -0.4 -0.95 -0.35 -1.0 -0.35 -1.0 -0.35 -0.95 -0.4 -0.9 -0.4 -0.9 -0.4 M-1.0 -0.15 L-1.0 -0.15 -1.0 -0.15 -1.0 -0.15 M-1.0 0.0 L-1.0 0.0 M-1.0 -0.05 L-1.0 -0.05" fill="#9c312a" fill-rule="evenodd" stroke="none"/>
    <path d="M-1.0 -0.15 L-0.9 -0.25 -0.9 -0.3 -0.95 -0.35 -0.95 -0.35 -0.95 -0.4 -0.85 -0.35 -0.8 -0.2 -0.85 -0.05 -0.95 0.0 -1.0 -0.05 -1.0 -0.05 -1.0 -0.1 -1.0 -0.15 -1.0 -0.15 -0.95 -0.2 -1.0 -0.15 -1.0 -0.15" fill="#e3473d" fill-rule="evenodd" stroke="none"/>
    <path d="M-1.0 -0.15 L-1.0 -0.2 -1.0 -0.3 -1.0 -0.35 -0.95 -0.35 -0.95 -0.35 -0.9 -0.3 -0.9 -0.25 -1.0 -0.15" fill="#b84138" fill-rule="evenodd" stroke="none"/>
    <path d="M0.0 -0.1 L0.0 -0.1 0.05 -0.1 0.05 0.0 0.0 -0.05 0.0 -0.05 0.0 0.0 0.0 -0.1 M-1.4 -0.45 L-1.45 -0.5 -1.4 -0.5 -1.35 -0.55 -1.35 -0.55 -1.35 -0.55 -1.25 -0.5 -1.25 -0.5 -1.25 -0.5 -1.25 -0.5 -1.3 -0.5 -1.3 -0.5 -1.35 -0.5 -1.4 -0.45 M-0.45 -0.15 L-0.45 -0.15 -0.4 -0.1 -0.35 0.0 -0.4 0.1 -0.4 0.15 -0.45 0.15 -0.5 0.1 -0.5 0.05 -0.45 0.05 -0.45 -0.1 -0.45 -0.15 -0.45 -0.15 -0.45 -0.15" fill="#455a26" fill-rule="evenodd" stroke="none"/>
    <path d="M-1.25 -0.2 L-1.25 -0.2 -1.25 -0.2" fill="#5a7431" fill-rule="evenodd" stroke="none"/>
    <path d="M-1.0 -0.2 L-1.0 -0.15 -1.05 -0.1 -1.1 -0.1 -1.05 -0.2 -1.0 -0.2 M-1.0 -0.15 L-1.0 -0.15" fill="#581b18" fill-rule="evenodd" stroke="none"/>
    <path d="M-1.0 0.0 L-0.95 0.05 -0.85 0.05 -0.9 0.05 -1.0 0.05 -1.0 0.0 -1.0 0.0 M-1.0 0.05 L-1.0 0.05 -1.0 0.05" fill="#658337" fill-rule="evenodd" stroke="none"/>
    <path d="M-0.75 0.15 L-0.7 0.25 -0.85 0.2 -0.85 0.15 -0.8 0.15 -0.8 0.15 -0.75 0.15 -0.75 0.15 M-1.0 0.05 L-1.0 0.05 -1.0 0.15 -1.0 0.05" fill="#251e13" fill-rule="evenodd" stroke="none"/>
    <path d="M-1.3 0.15 L-1.3 0.15 -1.25 0.15 -1.25 0.1 -1.25 0.15 -1.2 0.15 -1.25 0.15 -1.3 0.15" fill="#1f2811" fill-rule="evenodd" stroke="none"/>
    <path d="M0.05 -0.45 L0.05 -0.45 0.05 -0.45 0.05 -0.4 0.05 -0.4 0.0 -0.4 -0.05 -0.4 0.0 -0.4 0.05 -0.45 M0.0 -0.4 L0.0 -0.4" fill="#3c1210" fill-rule="evenodd" stroke="none"/>
    <path d="M-0.05 -0.45 L-0.05 -0.45 -0.1 -0.45 -0.05 -0.45 M0.0 -0.35 L0.0 -0.35 0.05 -0.35 0.0 -0.35 0.0 -0.35 M0.05 -0.25 L0.0 -0.25 0.05 -0.25 M0.0 -0.25 L0.0 -0.25 M-0.1 -0.45 L-0.1 -0.45" fill="#4d1815" fill-rule="evenodd" stroke="none"/>
    <path d="M0.05 -0.45 L0.1 -0.45 0.1 -0.4 0.15 -0.3 0.1 -0.25 0.1 -0.15 0.1 -0.1 0.05 -0.1 0.0 -0.1 0.0 -0.1 0.05 -0.15 0.1 -0.25 0.05 -0.35 0.0 -0.35 0.0 -0.35 -0.1 -0.35 -0.05 -0.4 0.0 -0.4 0.05 -0.4 0.05 -0.4 0.05 -0.45 M-0.05 -0.4 L-0.05 -0.4 M0.0 -0.1 L0.0 -0.1 M-0.15 -0.25 L-0.15 -0.25 -0.2 -0.25 -0.2 -0.25 -0.15 -0.25" fill="#e2463d" fill-rule="evenodd" stroke="none"/>
    <path d="M-0.1 -0.35 L0.0 -0.35 0.0 -0.35 0.05 -0.35 0.1 -0.25 0.05 -0.15 0.0 -0.1 0.05 -0.2 0.05 -0.25 0.0 -0.25 0.0 -0.3 -0.05 -0.35 -0.1 -0.35 M-0.15 -0.05 L0.0 -0.1 -0.05 -0.1 -0.05 -0.05 -0.1 -0.05 -0.1 -0.05 -0.15 -0.05" fill="#621e1a" fill-rule="evenodd" stroke="none"/>
    <path d="M-0.3 -0.5 L-0.3 -0.6 -0.25 -0.55 -0.2 -0.5 -0.2 -0.4 -0.3 -0.45 -0.3 -0.5" fill="#75973f" fill-rule="evenodd" stroke="none"/>
    <path d="M-0.45 -0.65 L-0.4 -0.55 -0.35 -0.4 -0.35 -0.35 -0.4 -0.35 -0.4 -0.3 -0.45 -0.3 -0.45 -0.4 -0.5 -0.4 -0.5 -0.45 -0.6 -0.4 -0.6 -0.45 -0.6 -0.5 -0.6 -0.55 -0.55 -0.6 -0.45 -0.65 M-0.6 -0.4 L-0.6 -0.4 M-0.4 -0.3 L-0.4 -0.3 M-0.6 -0.35 L-0.5 -0.3 -0.5 -0.3 -0.5 -0.25 -0.55 -0.2 -0.55 -0.2 -0.6 -0.3 -0.6 -0.35 -0.6 -0.35" fill="#fc4e44" fill-rule="evenodd" stroke="none"/>
    <path d="M-0.35 -0.25 L-0.4 -0.25 -0.4 -0.3 -0.35 -0.25" fill="#ac352e" fill-rule="evenodd" stroke="none"/>
    <path d="M-0.65 0.05 L-0.6 0.05 -0.65 0.1 -0.65 0.05 M-0.6 0.0 L-0.6 -0.05 -0.6 0.0 -0.6 0.0 -0.6 0.0 M-0.35 -0.25 L-0.35 -0.2 -0.4 -0.25 -0.35 -0.25 -0.35 -0.25 M-0.4 -0.25 L-0.4 -0.25" fill="#cd4037" fill-rule="evenodd" stroke="none"/>
    <path d="M-0.3 -0.05 L-0.3 -0.05 -0.3 -0.05 -0.3 -0.05 -0.25 -0.05 -0.3 -0.05 M-0.25 -0.05 L-0.25 -0.05" fill="#7d2722" fill-rule="evenodd" stroke="none"/>
    <path d="M-0.7 -0.4 L-0.65 -0.4 -0.7 -0.4 M-0.65 -0.4 L-0.65 -0.4 M-0.3 -0.05 L-0.3 -0.05 -0.25 -0.05 -0.25 0.0 -0.3 -0.05" fill="#a0322b" fill-rule="evenodd" stroke="none"/>
    <path d="M0.0 -0.1 L0.0 -0.1 -0.05 -0.05 -0.05 -0.1 0.0 -0.1" fill="#5a7531" fill-rule="evenodd" stroke="none"/>
    <path d="M-0.1 0.05 L-0.1 0.05 -0.1 -0.05 -0.1 0.05" fill="#ff6e60" fill-rule="evenodd" stroke="none"/>
    <path d="M-0.6 -0.5 L-0.6 -0.45 -0.65 -0.45 -0.6 -0.5" fill="#571b17" fill-rule="evenodd" stroke="none"/>
    <path d="M-0.5 -0.4 L-0.45 -0.4 -0.5 -0.35 -0.55 -0.35 -0.6 -0.4 -0.55 -0.4 -0.5 -0.4 -0.5 -0.4" fill="#5f1d1a" fill-rule="evenodd" stroke="none"/>
    <path d="M-0.75 -0.1 L-0.75 -0.2 -0.75 -0.3 -0.75 -0.4 -0.75 -0.4 -0.7 -0.4 -0.65 -0.4 -0.6 -0.4 -0.6 -0.4 -0.6 -0.35 -0.65 -0.3 -0.6 -0.3 -0.55 -0.2 -0.55 -0.2 -0.5 -0.25 -0.45 -0.25 -0.45 -0.2 -0.5 -0.15 -0.5 -0.15 -0.55 -0.15 -0.6 -0.2 -0.6 -0.05 -0.65 -0.05 -0.65 -0.1 -0.7 -0.05 -0.7 -0.05 -0.75 -0.1 M-0.55 -0.15 L-0.55 -0.15" fill="#ff6659" fill-rule="evenodd" stroke="none"/>
    <path d="M-0.6 -0.35 L-0.6 -0.3 -0.65 -0.3 -0.6 -0.35" fill="#ff5147" fill-rule="evenodd" stroke="none"/>
    <path d="M-0.9 -0.6 L-0.9 -0.65 -0.85 -0.65 -0.8 -0.5 -0.8 -0.4 -0.85 -0.4 -0.9 -0.45 -0.85 -0.5 -0.9 -0.55 -0.85 -0.55 -0.9 -0.6 -0.9 -0.6 M-0.9 -0.45 L-0.9 -0.45 -0.9 -0.45" fill="#cf4138" fill-rule="evenodd" stroke="none"/>
    <path d="M-0.9 -0.55 L-0.85 -0.5 -0.9 -0.45 -0.9 -0.55" fill="#5b1c18" fill-rule="evenodd" stroke="none"/>
    <path d="M-0.45 -0.3 L-0.4 -0.3 -0.45 -0.25 -0.45 -0.3 M-0.4 -0.3 L-0.4 -0.3" fill="#35100e" fill-rule="evenodd" stroke="none"/>
    <path d="M-0.5 -0.3 L-0.5 -0.25 -0.5 -0.3 M-0.5 -0.25 L-0.5 -0.25" fill="#4c1714" fill-rule="evenodd" stroke="none"/>
    <path d="M-0.5 -0.25 L-0.45 -0.25 -0.5 -0.25 -0.5 -0.25 M-0.55 -0.15 L-0.55 -0.15 -0.55 -0.15" fill="#4a6128" fill-rule="evenodd" stroke="none"/>
    <path d="M-0.5 -0.15 L-0.55 -0.05 -0.6 -0.05 -0.55 -0.05 -0.45 -0.15 -0.45 -0.1 -0.45 0.05 -0.5 0.05 -0.55 0.05 -0.55 0.05 -0.55 0.0 -0.6 0.0 -0.6 0.0 -0.6 -0.05 -0.6 -0.2 -0.55 -0.15 -0.55 -0.15 -0.5 -0.15 -0.5 -0.15" fill="#4b6129" fill-rule="evenodd" stroke="none"/>
    <path d="M-0.2 0.3 L-0.2 0.3 -0.25 0.35 -0.2 0.3 M-0.4 0.15 L-0.4 0.15 -0.4 0.15 -0.4 0.15 M-0.4 0.25 L-0.4 0.3 -0.3 0.35 -0.25 0.35 -0.35 0.4 -0.35 0.35 -0.4 0.35 -0.4 0.35 -0.45 0.3 -0.45 0.25 -0.4 0.25 M-0.25 0.35 L-0.25 0.35" fill="#5f1d19" fill-rule="evenodd" stroke="none"/>
    <path d="M-0.6 0.05 L-0.6 0.0 -0.6 0.05 M-0.6 0.0 L-0.6 0.0" fill="#71231e" fill-rule="evenodd" stroke="none"/>
    <path d="M-0.65 0.05 L-0.65 0.05 -0.65 0.1 -0.65 0.1 -0.6 0.15 -0.6 0.15 -0.55 0.15 -0.55 0.2 -0.55 0.35 -0.5 0.35 -0.5 0.4 -0.55 0.4 -0.55 0.35 -0.65 0.25 -0.65 0.2 -0.65 0.1 -0.65 0.05 -0.65 0.05" fill="#e0463d" fill-rule="evenodd" stroke="none"/>
    <path d="M-0.7 0.05 L-0.7 0.05 -0.7 0.15 -0.7 0.15 -0.75 0.1 -0.7 0.05" fill="#ff5e52" fill-rule="evenodd" stroke="none"/>
    <path d="M-0.1 0.3 L-0.1 0.3 -0.05 0.25 -0.05 0.35 -0.1 0.35 -0.1 0.3 M-0.05 0.25 L-0.05 0.25" fill="#4e652a" fill-rule="evenodd" stroke="none"/>
    <path d="M0.1 0.35 L0.1 0.4 0.05 0.45 0.0 0.45 0.05 0.5 0.0 0.5 -0.05 0.5 -0.05 0.45 -0.05 0.35 -0.05 0.3 0.0 0.3 0.0 0.3 0.05 0.3 0.1 0.3 0.1 0.35 M-0.05 0.45 L-0.05 0.45" fill="#627f35" fill-rule="evenodd" stroke="none"/>
    <path d="M-0.25 0.15 L-0.2 0.15 -0.2 0.15 -0.2 0.2 -0.2 0.25 -0.25 0.15" fill="#7e2722" fill-rule="evenodd" stroke="none"/>
    <path d="M-1.15 1.2 L-1.15 1.15 -1.1 1.05 -1.1 1.15 -1.05 1.2 Q-1.05 1.25 -0.85 1.3 L-0.95 1.3 Q-1.05 1.3 -1.1 1.2 L-1.15 1.2" fill="#a17743" fill-rule="evenodd" stroke="none"/>
    <path d="M0.3 -1.55 L0.25 -1.6 0.2 -1.6 0.1 -1.55 0.1 -1.55 0.1 -1.55 0.05 -1.55 0.05 -1.6 0.05 -1.65 0.05 -1.65 -0.05 -1.75 -0.1 -1.65 -0.1 -1.65 -0.15 -1.65 -0.15 -1.75 -0.3 -1.8 -0.35 -1.75 -0.4 -1.75 -0.4 -1.75 -0.5 -1.7 -0.5 -1.7 -0.5 -1.6 -0.55 -1.6 -0.55 -1.55 -0.6 -1.65 -0.65 -1.65 -0.65 -1.65 -0.7 -1.65 -0.75 -1.6 -0.75 -1.55 -0.8 -1.5 -0.8 -1.5 -0.8 -1.5 -0.85 -1.45 -0.85 -1.6 -0.9 -1.65 -1.0 -1.65 -1.0 -1.6 -1.0 -1.4 -1.0 -1.35 -0.95 -1.4 -1.0 -1.4 -1.05 -1.4 -1.15 -1.4 -1.15 -1.3 -1.1 -1.2 -1.0 -1.2 -1.0 -1.15 -1.0 -1.1 -1.0 -1.1 -1.05 -1.1 -1.15 -1.15 -1.2 -1.15 -1.25 -1.1 -1.3 -1.0 -1.35 -0.95 -1.35 -0.95 -1.35 -0.9 -1.35 -0.9 -1.4 -0.85 -1.35 -0.8 -1.4 -0.75 -1.4 -0.75 -1.35 -0.75 -1.4 -0.75 -1.45 -0.75 -1.55 -0.75 -1.6 -0.65 -1.55 -0.6 -1.45 -0.55 -1.4 -0.55 -1.4 -0.55 -1.35 -0.6 -1.35 -0.6 -1.4 -0.55 -1.45 -0.55 -1.55 -0.5 -1.5 -0.4 -1.55 -0.4 -1.55 -0.25 -1.5 -0.2 -1.5 -0.15 -1.45 -0.15 -1.45 -0.15 -1.55 -0.1 -1.6 0.0 -1.5 0.05 -1.45 0.05 -1.5 0.1 -1.4 0.15 -1.35 0.15 -1.3 0.15 -1.3 0.15 -1.3 0.2 -1.25 0.3 -1.2 0.5 -1.2 0.5 -1.1 1.05 -1.15 1.15 -1.15 1.2 -1.15 1.3 Q-1.1 1.4 -0.75 1.5 L0.05 1.55 0.15 1.55 0.7 1.5 0.85 1.5 1.1 1.4 1.25 1.3 1.25 1.15 1.2 1.05 1.3 0.6 1.35 0.3 1.4 0.2 1.4 0.15 1.45 0.15 1.5 0.1 1.5 0.05 1.55 0.05 1.55 0.0 1.55 -0.05 1.55 -0.05 1.6 -0.05 1.6 -0.1 1.6 -0.1 1.55 -0.2 1.5 -0.25 1.55 -0.25 1.6 -0.25 1.6 -0.3 1.6 -0.4 1.55 -0.45 1.55 -0.45 1.55 -0.5 1.5 -0.5 1.55 -0.6 1.45 -0.6 1.4 -0.6 1.35 -0.65 1.35 -0.7 1.4 -0.75 1.45 -0.75 1.5 -0.85 1.45 -0.9 1.45 -0.95 1.35 -1.05 1.3 -0.95 1.3 -1.0 1.3 -1.05 1.25 -1.1 1.3 -1.15 1.2 -1.2 1.15 -1.2 1.1 -1.2 1.1 -1.2 1.05 -1.2 1.05 -1.2 1.0 -1.2 1.0 -1.2 0.95 -1.2 0.95 -1.25 0.95 -1.3 0.9 -1.35 0.8 -1.3 0.8 -1.3 0.8 -1.4 0.7 -1.45 0.7 -1.5 0.7 -1.6 0.55 -1.65 0.55 -1.65 0.55 -1.65 0.45 -1.65 0.4 -1.6 0.35 -1.55 0.3 -1.55 0.3 -1.55 Z" fill="none" stroke="#000000" stroke-linecap="round" stroke-linejoin="round" stroke-opacity="0.4509804" stroke-width="1.0"/>
  </g>
</svg>
