<?xml version="1.0" encoding="UTF-8" standalone="no"?>
<svg xmlns:xlink="http://www.w3.org/1999/xlink" height="3.8px" width="4.4px" xmlns="http://www.w3.org/2000/svg">
  <g transform="matrix(1.0, 0.0, 0.0, 1.0, 2.2, 1.9)">
    <path d="M1.9 -1.25 L1.9 -1.45 1.95 -1.4 1.95 -1.45 1.9 -1.45 Q1.9 -1.5 1.95 -1.5 L2.0 -1.5 2.0 -1.5 1.95 -1.55 1.95 -1.75 1.9 -1.8 1.85 -1.45 1.85 -1.55 1.85 -1.7 Q1.85 -1.85 1.95 -1.85 1.95 -1.8 2.0 -1.8 L2.1 -1.8 2.15 -1.8 2.15 -1.75 2.05 -1.75 2.1 -1.7 Q2.1 -1.75 2.15 -1.75 L2.15 -1.7 2.15 -1.55 Q2.1 -1.6 2.05 -1.55 L2.0 -1.4 1.95 -1.35 Q1.95 -1.3 1.95 -1.35 L1.9 -1.35 1.9 -1.35 1.95 -1.25 1.9 -1.25 M2.05 -1.4 L2.05 -1.45 2.1 -1.45 2.15 -1.5 2.15 -1.55 2.15 -1.45 2.15 -1.4 2.1 -1.4 2.05 -1.4 M2.15 -1.55 L2.15 -1.55" fill="#8c8277" fill-rule="evenodd" stroke="none"/>
    <path d="M2.1 -1.8 L2.0 -1.8 Q1.95 -1.8 1.95 -1.85 L2.1 -1.85 2.1 -1.8" fill="#bdb4a6" fill-rule="evenodd" stroke="none"/>
    <path d="M1.85 -1.45 L1.9 -1.8 1.95 -1.75 1.95 -1.55 2.0 -1.5 2.0 -1.5 1.95 -1.5 Q1.9 -1.5 1.9 -1.45 L1.95 -1.45 1.95 -1.4 1.9 -1.45 1.9 -1.25 1.85 -1.25 1.85 -1.2 1.8 -1.2 1.75 -1.2 1.8 -1.25 1.8 -1.3 1.85 -1.35 1.85 -1.35 1.85 -1.45 1.85 -1.45" fill="#beb7ae" fill-rule="evenodd" stroke="none"/>
    <path d="M1.85 -1.55 L1.85 -1.45 1.85 -1.45 1.85 -1.35 1.8 -1.45 1.85 -1.55" fill="#2e2d2c" fill-rule="evenodd" stroke="none"/>
    <path d="M1.9 -1.25 L1.95 -1.25 2.05 -1.3 2.05 -1.4 2.1 -1.4 2.15 -1.4 2.15 -1.35 2.15 -1.3 2.15 -1.15 2.1 -1.2 2.1 -1.25 2.05 -1.2 Q2.0 -1.15 1.95 -1.15 L1.95 -1.2 1.9 -1.2 1.85 -1.2 1.85 -1.25 1.9 -1.25 M2.15 -1.35 L2.15 -1.35" fill="#645a50" fill-rule="evenodd" stroke="none"/>
    <path d="M1.95 -1.25 L1.9 -1.35 1.9 -1.35 1.95 -1.35 Q1.95 -1.3 1.95 -1.35 L2.0 -1.4 2.05 -1.55 Q2.1 -1.6 2.15 -1.55 L2.15 -1.5 2.1 -1.45 2.05 -1.45 2.05 -1.4 2.05 -1.3 1.95 -1.25" fill="#c8bfb2" fill-rule="evenodd" stroke="none"/>
    <path d="M1.8 -1.25 L1.75 -1.2 1.75 -1.25 1.8 -1.25" fill="#69655e" fill-rule="evenodd" stroke="none"/>
    <path d="M1.95 -1.85 L2.0 -1.9 2.1 -1.85 1.95 -1.85" fill="#776e64" fill-rule="evenodd" stroke="none"/>
    <path d="M0.6 -0.65 L0.7 -0.65 0.75 -0.7 0.75 -0.7 0.85 -0.65 0.9 -0.7 0.95 -0.6 0.9 -0.6 0.85 -0.55 0.75 -0.55 0.65 -0.5 0.6 -0.55 0.6 -0.65 M0.95 -0.6 L0.95 -0.6" fill="#a19485" fill-rule="evenodd" stroke="none"/>
    <path d="M0.45 -0.65 L0.5 -0.65 0.6 -0.65 0.6 -0.55 0.5 -0.55 0.45 -0.5 0.4 -0.5 0.4 -0.55 0.45 -0.55 0.5 -0.55 0.5 -0.6 0.45 -0.65" fill="#877b6e" fill-rule="evenodd" stroke="none"/>
    <path d="M0.75 -0.7 L0.85 -0.7 0.9 -0.75 1.05 -0.75 1.05 -0.65 1.0 -0.6 1.05 -0.6 1.05 -0.65 Q1.05 -0.55 1.15 -0.5 L1.2 -0.35 1.15 -0.35 1.1 -0.4 1.1 -0.4 1.05 -0.4 1.0 -0.5 0.95 -0.6 0.95 -0.6 0.95 -0.7 1.0 -0.75 0.95 -0.75 Q0.9 -0.75 0.9 -0.7 L0.85 -0.65 0.75 -0.7" fill="#5d554c" fill-rule="evenodd" stroke="none"/>
    <path d="M0.95 -0.6 L0.9 -0.7 Q0.9 -0.75 0.95 -0.75 L1.0 -0.75 0.95 -0.7 0.95 -0.6" fill="#302c28" fill-rule="evenodd" stroke="none"/>
    <path d="M0.0 -0.6 L0.05 -0.65 0.05 -0.65 Q0.05 -0.65 0.05 -0.6 L0.1 -0.6 0.0 -0.55 0.0 -0.6" fill="#7e7364" fill-rule="evenodd" stroke="none"/>
    <path d="M0.05 -0.65 L0.25 -0.65 0.4 -0.65 0.45 -0.6 Q0.4 -0.6 0.4 -0.6 L0.35 -0.6 Q0.3 -0.6 0.35 -0.55 L0.25 -0.55 0.2 -0.5 0.2 -0.6 Q0.1 -0.6 0.05 -0.65 M0.2 -0.5 L0.2 -0.5" fill="#837868" fill-rule="evenodd" stroke="none"/>
    <path d="M0.4 -0.65 L0.45 -0.65 0.5 -0.6 0.5 -0.55 0.45 -0.55 0.4 -0.55 0.4 -0.6 Q0.4 -0.6 0.45 -0.6 L0.4 -0.65" fill="#c2b9ae" fill-rule="evenodd" stroke="none"/>
    <path d="M0.6 -0.55 L0.65 -0.5 0.6 -0.4 0.6 -0.35 0.55 -0.35 0.5 -0.4 0.45 -0.35 Q0.4 -0.4 0.4 -0.35 L0.35 -0.4 0.3 -0.5 0.35 -0.45 0.35 -0.4 0.45 -0.4 0.5 -0.45 0.4 -0.5 0.35 -0.55 Q0.3 -0.6 0.35 -0.6 L0.4 -0.6 0.4 -0.55 0.4 -0.5 0.45 -0.5 0.5 -0.55 0.6 -0.55 M0.35 -0.55 L0.35 -0.55 M0.65 -0.5 L0.65 -0.5" fill="#544a40" fill-rule="evenodd" stroke="none"/>
    <path d="M0.3 -0.5 L0.35 -0.55 0.4 -0.5 0.5 -0.45 0.45 -0.4 0.35 -0.4 0.35 -0.45 0.3 -0.5" fill="#9a8977" fill-rule="evenodd" stroke="none"/>
    <path d="M0.2 -0.5 L0.25 -0.55 0.35 -0.55 0.3 -0.5 0.25 -0.45 0.25 -0.4 0.2 -0.5 M0.35 -0.55 L0.35 -0.55" fill="#b9ab9b" fill-rule="evenodd" stroke="none"/>
    <path d="M0.3 -0.35 L0.3 -0.3 0.35 -0.3 0.3 -0.3 0.25 -0.25 0.2 -0.15 0.15 0.0 0.0 0.0 0.0 -0.1 0.05 -0.2 -0.05 -0.2 -0.1 -0.15 -0.1 -0.05 -0.05 0.0 Q-0.1 0.0 -0.2 -0.1 L-0.3 -0.2 -0.35 -0.2 -0.35 -0.15 -0.45 -0.15 -0.5 -0.15 -0.5 -0.1 -0.6 -0.1 -0.65 -0.05 -0.65 0.15 -0.7 0.15 -0.75 0.2 -0.7 0.2 -0.7 0.3 -0.75 0.35 -0.8 0.35 -0.75 0.3 Q-0.75 0.25 -0.8 0.25 L-0.85 0.3 -0.8 0.35 -0.85 0.35 -0.85 0.25 -0.9 0.25 -0.9 0.3 -0.95 0.3 -0.9 0.35 -1.0 0.35 -1.1 0.3 -1.0 0.3 -0.95 0.2 -1.05 0.2 -1.05 0.2 -1.1 0.2 -1.1 0.25 -1.15 0.25 -1.15 0.2 -1.2 0.15 -1.2 0.25 -1.25 0.2 -1.25 0.15 -1.3 0.2 -1.35 0.15 Q-1.35 0.1 -1.4 0.15 L-1.45 0.15 -1.45 0.1 -1.5 0.05 -1.55 -0.05 Q-1.6 0.0 -1.55 0.05 L-1.55 0.1 -1.5 0.15 -1.5 0.2 Q-1.55 0.15 -1.6 0.15 L-1.7 0.1 -1.7 0.05 -1.65 0.0 -1.7 0.0 -1.7 -0.1 -1.7 -0.15 Q-1.65 -0.15 -1.6 -0.2 -1.55 -0.25 -1.6 -0.3 L-1.6 -0.3 -1.55 -0.3 -1.5 -0.25 -1.5 -0.3 -1.55 -0.35 -1.5 -0.45 -1.5 -0.4 Q-1.45 -0.35 -1.4 -0.4 L-1.4 -0.35 -1.35 -0.35 -1.35 -0.4 -1.3 -0.4 Q-1.25 -0.4 -1.3 -0.45 L-1.35 -0.45 -1.4 -0.5 -1.45 -0.55 -1.4 -0.55 Q-1.4 -0.5 -1.3 -0.5 -1.25 -0.55 -1.25 -0.6 -1.15 -0.6 -1.2 -0.65 -1.2 -0.7 -1.3 -0.7 -1.25 -0.65 -1.3 -0.65 L-1.35 -0.6 -1.35 -0.65 -1.4 -0.65 -1.4 -0.7 -1.35 -0.75 -1.4 -0.8 Q-1.4 -0.85 -1.35 -0.85 L-1.35 -0.9 -1.3 -0.9 -1.3 -0.8 Q-1.35 -0.75 -1.25 -0.8 L-1.25 -0.75 -1.2 -0.7 -1.15 -0.7 -1.15 -0.6 -1.1 -0.65 -1.05 -0.65 -1.05 -0.6 -1.05 -0.55 -1.1 -0.55 -1.15 -0.55 -1.15 -0.5 -1.15 -0.45 -1.2 -0.4 -1.2 -0.3 -1.1 -0.2 Q-1.05 -0.2 -1.0 -0.2 L-0.95 -0.2 Q-1.0 -0.1 -0.9 -0.1 L-0.75 -0.1 Q-0.6 -0.15 -0.6 -0.25 -0.6 -0.35 -0.7 -0.45 L-0.7 -0.5 -0.65 -0.45 -0.6 -0.4 -0.55 -0.4 -0.5 -0.35 Q-0.45 -0.35 -0.55 -0.35 L-0.55 -0.35 -0.5 -0.25 -0.5 -0.2 -0.45 -0.25 -0.25 -0.2 -0.2 -0.25 -0.25 -0.3 -0.2 -0.35 0.15 -0.4 Q0.1 -0.35 0.15 -0.35 L0.25 -0.35 0.3 -0.35 M-1.7 -0.15 L-1.7 -0.15 M-1.15 -0.15 L-1.25 -0.2 -1.2 -0.15 Q-1.2 -0.15 -1.2 -0.1 -1.25 -0.05 -1.2 -0.05 L-1.1 -0.1 -1.15 -0.15 M-1.1 -0.05 L-1.15 -0.05 -1.1 0.0 -1.1 0.05 Q-1.05 0.05 -1.05 0.05 -1.0 0.0 -1.0 -0.05 -1.05 -0.1 -1.1 -0.05 M-0.9 -0.05 L-0.95 -0.05 -1.0 0.05 -0.9 0.1 -0.85 0.0 -0.9 -0.05 M-0.7 0.1 Q-0.65 0.05 -0.7 0.05 -0.7 0.0 -0.75 0.0 L-0.8 0.05 -0.8 0.1 -0.75 0.1 -0.7 0.1 M-1.0 0.15 L-1.0 0.1 -1.05 0.1 -1.0 0.15 -1.0 0.15 M-1.2 0.05 L-1.25 0.1 -1.2 0.15 -1.2 0.1 Q-1.15 0.1 -1.1 0.15 -1.05 0.1 -1.1 0.1 L-1.2 0.05" fill="#453a31" fill-rule="evenodd" stroke="none"/>
    <path d="M0.35 -0.3 L0.3 -0.3 0.3 -0.35 0.4 -0.35 0.4 -0.25 0.35 -0.1 Q0.3 -0.1 0.35 -0.1 L0.45 0.0 0.5 0.05 Q0.55 0.05 0.55 0.0 L0.6 0.05 0.55 0.15 0.5 0.1 0.4 0.1 0.35 0.0 0.3 0.05 0.25 0.15 Q0.3 0.1 0.25 0.1 L0.2 0.1 0.15 0.15 Q0.1 0.2 0.15 0.25 0.2 0.3 0.25 0.3 L0.15 0.3 0.1 0.25 0.1 0.15 -0.1 0.15 -0.1 0.05 0.0 0.05 0.05 0.1 0.2 0.1 0.25 0.0 0.3 -0.15 0.35 -0.3" fill="#52483f" fill-rule="evenodd" stroke="none"/>
    <path d="M0.1 0.25 L0.15 0.3 0.25 0.3 0.3 0.25 Q0.3 0.2 0.35 0.2 L0.4 0.2 0.4 0.1 0.5 0.1 0.55 0.15 0.5 0.15 0.45 0.15 0.45 0.3 0.55 0.25 0.55 0.15 0.6 0.05 0.55 0.0 0.45 -0.05 Q0.4 -0.1 0.35 -0.1 L0.4 -0.25 0.4 -0.35 Q0.4 -0.4 0.45 -0.35 L0.45 -0.3 Q0.45 -0.3 0.5 -0.3 L0.55 -0.3 0.55 -0.35 0.6 -0.35 0.65 -0.25 0.65 -0.15 0.7 -0.1 Q0.75 -0.05 0.8 -0.05 L0.9 -0.05 1.0 -0.15 Q1.0 -0.25 1.1 -0.25 L1.15 -0.3 1.15 -0.25 1.15 -0.2 1.1 -0.2 1.1 -0.15 1.15 -0.1 Q1.15 -0.1 1.2 -0.1 L1.2 -0.15 1.25 -0.1 1.3 -0.1 1.3 -0.1 1.35 -0.1 1.35 -0.15 1.25 -0.1 1.3 -0.15 1.3 -0.2 1.4 -0.15 1.4 -0.1 1.35 -0.05 1.35 0.0 1.3 0.05 1.25 0.0 1.2 -0.05 1.15 -0.05 1.1 0.0 1.15 0.05 Q1.2 0.15 1.05 0.1 L1.05 0.15 0.95 0.15 0.9 0.15 0.9 0.1 0.85 0.05 0.8 0.05 0.75 0.1 0.75 0.15 0.8 0.15 0.85 0.15 0.8 0.2 0.75 0.25 0.65 0.3 0.6 0.3 0.55 0.35 0.5 0.35 Q0.5 0.35 0.45 0.4 L0.4 0.45 0.35 0.5 0.3 0.6 Q0.35 0.65 0.25 0.7 L0.2 0.75 0.15 0.75 0.1 0.8 0.1 0.75 0.05 0.7 0.0 0.7 0.0 0.6 0.0 0.6 0.05 0.55 0.05 0.6 0.1 0.65 0.15 0.65 0.2 0.6 0.15 0.55 0.1 0.5 0.2 0.5 0.3 0.5 0.3 0.45 0.25 0.4 0.15 0.35 0.1 0.35 0.05 0.4 -0.05 0.4 0.0 0.35 0.05 0.35 0.1 0.3 0.1 0.25 M0.45 -0.2 L0.45 -0.15 Q0.45 -0.1 0.5 -0.1 0.55 -0.05 0.55 -0.1 L0.55 -0.25 0.45 -0.2 M0.6 -0.35 L0.6 -0.35 M1.0 -0.1 L0.95 -0.05 0.95 0.05 Q0.9 0.05 0.95 0.1 L1.05 0.05 1.05 0.0 1.0 -0.1 M0.7 0.1 L0.6 0.1 Q0.6 0.15 0.6 0.2 0.65 0.2 0.7 0.15 0.75 0.1 0.7 0.1 M0.4 0.3 L0.35 0.25 0.3 0.3 Q0.3 0.35 0.3 0.35 L0.35 0.4 0.4 0.4 0.4 0.3" fill="#38312a" fill-rule="evenodd" stroke="none"/>
    <path d="M0.45 -0.35 L0.5 -0.4 0.55 -0.35 0.55 -0.3 0.5 -0.3 Q0.45 -0.3 0.45 -0.3 L0.45 -0.35" fill="#9e9184" fill-rule="evenodd" stroke="none"/>
    <path d="M0.3 -0.35 L0.25 -0.35 0.2 -0.4 0.2 -0.4 0.25 -0.4 0.25 -0.45 0.3 -0.5 0.35 -0.4 0.4 -0.35 0.3 -0.35" fill="#928376" fill-rule="evenodd" stroke="none"/>
    <path d="M0.05 -0.65 Q0.1 -0.6 0.2 -0.6 L0.2 -0.5 0.1 -0.55 0.0 -0.5 -0.05 -0.55 -0.1 -0.5 -0.1 -0.55 -0.15 -0.6 -0.15 -0.65 -0.1 -0.6 0.0 -0.6 0.0 -0.55 0.1 -0.6 0.05 -0.6 Q0.05 -0.65 0.05 -0.65 M-0.1 -0.5 L-0.1 -0.5" fill="#beb5a7" fill-rule="evenodd" stroke="none"/>
    <path d="M0.2 -0.5 L0.2 -0.5 0.25 -0.4 0.2 -0.4 0.2 -0.4 0.15 -0.4 0.1 -0.45 0.05 -0.5 0.0 -0.5 0.1 -0.55 0.2 -0.5" fill="#e5e4e1" fill-rule="evenodd" stroke="none"/>
    <path d="M0.0 -0.5 L0.05 -0.5 0.1 -0.45 0.0 -0.5 -0.1 -0.5 -0.05 -0.55 0.0 -0.5" fill="#819091" fill-rule="evenodd" stroke="none"/>
    <path d="M0.25 -0.35 L0.15 -0.35 Q0.1 -0.35 0.15 -0.4 L-0.2 -0.35 -0.15 -0.45 -0.1 -0.5 0.0 -0.5 0.1 -0.45 0.15 -0.4 0.2 -0.4 0.25 -0.35 M-0.1 -0.5 L-0.1 -0.5" fill="#52595a" fill-rule="evenodd" stroke="none"/>
    <path d="M-0.3 -0.2 L-0.2 -0.1 Q-0.1 0.0 -0.05 0.0 L-0.1 -0.05 -0.1 -0.15 -0.05 -0.2 0.05 -0.2 0.0 -0.1 0.0 0.0 0.15 0.0 0.2 -0.15 0.25 -0.25 0.3 -0.3 0.35 -0.3 0.3 -0.15 0.25 0.0 0.2 0.1 0.05 0.1 0.0 0.05 -0.1 0.05 -0.2 0.0 -0.25 0.0 -0.3 -0.1 -0.3 -0.2" fill="#332824" fill-rule="evenodd" stroke="none"/>
    <path d="M0.55 0.0 Q0.55 0.05 0.5 0.05 L0.45 0.0 0.35 -0.1 Q0.3 -0.1 0.35 -0.1 0.4 -0.1 0.45 -0.05 L0.55 0.0" fill="#8c7b6b" fill-rule="evenodd" stroke="none"/>
    <path d="M0.45 -0.2 L0.55 -0.25 0.55 -0.1 Q0.55 -0.05 0.5 -0.1 0.45 -0.1 0.45 -0.15 L0.45 -0.2" fill="#958170" fill-rule="evenodd" stroke="none"/>
    <path d="M0.9 -0.6 L0.95 -0.6 1.0 -0.5 1.05 -0.4 1.05 -0.35 1.0 -0.35 0.95 -0.3 0.8 -0.35 Q0.75 -0.35 0.7 -0.3 0.65 -0.25 0.65 -0.2 L0.75 -0.1 0.75 -0.1 0.8 -0.05 Q0.75 -0.05 0.7 -0.1 L0.65 -0.15 0.65 -0.25 0.6 -0.35 0.65 -0.4 0.75 -0.4 0.8 -0.45 Q0.9 -0.45 0.9 -0.6 M0.9 -0.4 Q0.9 -0.35 0.95 -0.4 L0.95 -0.45 0.9 -0.45 Q0.85 -0.45 0.9 -0.4" fill="#4d453e" fill-rule="evenodd" stroke="none"/>
    <path d="M0.85 -0.55 L0.9 -0.6 Q0.9 -0.45 0.8 -0.45 L0.75 -0.4 0.65 -0.4 0.7 -0.45 0.8 -0.5 0.8 -0.5 0.85 -0.55" fill="#807063" fill-rule="evenodd" stroke="none"/>
    <path d="M0.65 -0.5 L0.75 -0.55 0.85 -0.55 0.8 -0.5 0.8 -0.5 0.65 -0.45 0.65 -0.5 0.65 -0.5" fill="#d2c8ba" fill-rule="evenodd" stroke="none"/>
    <path d="M0.7 -0.3 Q0.7 -0.25 0.75 -0.3 L0.8 -0.35 0.85 -0.3 0.9 -0.3 Q0.95 -0.3 0.9 -0.25 L0.85 -0.15 0.8 -0.15 0.75 -0.1 0.65 -0.2 Q0.65 -0.25 0.7 -0.3" fill="#7a7d7c" fill-rule="evenodd" stroke="none"/>
    <path d="M0.75 -0.1 L0.8 -0.15 0.85 -0.15 0.9 -0.25 Q0.95 -0.3 0.9 -0.3 L0.85 -0.3 0.8 -0.35 0.75 -0.3 Q0.7 -0.25 0.7 -0.3 0.75 -0.35 0.8 -0.35 L0.95 -0.3 1.0 -0.35 1.05 -0.35 1.05 -0.25 Q1.0 -0.2 1.0 -0.15 L0.9 -0.05 0.8 -0.05 0.75 -0.1 0.75 -0.1" fill="#98938b" fill-rule="evenodd" stroke="none"/>
    <path d="M0.9 -0.4 Q0.85 -0.45 0.9 -0.45 L0.95 -0.45 0.95 -0.4 Q0.9 -0.35 0.9 -0.4" fill="#9c8f83" fill-rule="evenodd" stroke="none"/>
    <path d="M0.6 -0.35 L0.6 -0.4 0.65 -0.5 0.65 -0.45 0.8 -0.5 0.7 -0.45 0.65 -0.4 0.6 -0.35 0.6 -0.35" fill="#a89886" fill-rule="evenodd" stroke="none"/>
    <path d="M1.0 -0.1 L1.05 0.0 1.05 0.05 0.95 0.1 Q0.9 0.05 0.95 0.05 L0.95 -0.05 1.0 -0.1" fill="#96816f" fill-rule="evenodd" stroke="none"/>
    <path d="M1.85 -1.0 L1.85 -1.05 1.8 -1.1 1.85 -1.15 1.9 -1.2 1.95 -1.2 1.95 -1.15 2.05 -1.15 Q2.05 -1.05 2.0 -1.05 L1.85 -1.0" fill="#bbb6ab" fill-rule="evenodd" stroke="none"/>
    <path d="M1.75 -1.2 L1.8 -1.2 1.85 -1.2 1.9 -1.2 1.85 -1.15 1.8 -1.1 1.85 -1.05 1.85 -1.0 1.8 -1.0 1.8 -1.05 1.75 -1.05 1.7 -1.15 1.75 -1.2 1.75 -1.2" fill="#8e847a" fill-rule="evenodd" stroke="none"/>
    <path d="M1.8 -1.0 L1.85 -1.0 Q1.85 -0.95 1.8 -0.9 L1.7 -0.95 1.65 -1.0 1.65 -1.05 1.7 -1.0 Q1.75 -1.0 1.8 -1.0" fill="#5a5249" fill-rule="evenodd" stroke="none"/>
    <path d="M1.7 -1.15 L1.75 -1.05 1.8 -1.05 1.8 -1.0 Q1.75 -1.0 1.7 -1.0 L1.65 -1.05 1.65 -1.0 1.7 -0.95 1.65 -0.9 1.65 -0.9 1.55 -0.9 1.5 -0.95 1.55 -1.0 1.6 -1.05 1.6 -1.05 1.65 -1.1 1.7 -1.15 M1.65 -0.9 L1.65 -0.9" fill="#beb5a9" fill-rule="evenodd" stroke="none"/>
    <path d="M1.95 -1.15 Q2.0 -1.15 2.05 -1.2 L2.1 -1.25 2.1 -1.2 2.15 -1.15 2.15 -1.05 2.15 -1.0 2.15 -0.7 2.1 -0.75 Q2.1 -0.8 2.1 -0.85 L2.15 -0.95 2.1 -1.0 Q2.1 -0.95 2.0 -0.95 L1.9 -0.95 1.85 -0.9 1.8 -0.8 1.8 -0.9 1.65 -0.9 1.65 -0.9 1.7 -0.95 1.8 -0.9 Q1.85 -0.95 1.85 -1.0 L2.0 -1.05 Q2.05 -1.05 2.05 -1.15 L1.95 -1.15" fill="#968a7d" fill-rule="evenodd" stroke="none"/>
    <path d="M1.85 -0.9 L1.9 -0.95 2.0 -0.95 Q2.1 -0.95 2.1 -1.0 L2.15 -0.95 2.1 -0.85 2.05 -0.8 2.05 -0.75 2.0 -0.75 1.9 -0.8 1.85 -0.9" fill="#3a3530" fill-rule="evenodd" stroke="none"/>
    <path d="M1.75 -1.2 L1.7 -1.15 1.75 -1.2 M1.65 -1.1 L1.7 -1.15 1.65 -1.1" fill="#4d4843" fill-rule="evenodd" stroke="none"/>
    <path d="M1.5 -1.0 L1.6 -1.05 1.5 -1.0 M1.6 -1.05 L1.6 -1.05" fill="#403b36" fill-rule="evenodd" stroke="none"/>
    <path d="M1.5 -0.95 L1.5 -1.0 1.6 -1.05 1.55 -1.0 1.5 -0.95" fill="#897f74" fill-rule="evenodd" stroke="none"/>
    <path d="M1.35 -0.9 L1.4 -0.95 Q1.45 -0.95 1.5 -0.95 L1.55 -0.9 1.65 -0.9 1.6 -0.85 1.4 -0.95 1.5 -0.8 1.45 -0.8 1.4 -0.75 1.4 -0.85 1.35 -0.9" fill="#746b5f" fill-rule="evenodd" stroke="none"/>
    <path d="M1.65 -0.9 L1.8 -0.9 1.8 -0.8 1.8 -0.7 1.7 -0.65 Q1.65 -0.65 1.6 -0.7 1.55 -0.7 1.55 -0.75 L1.6 -0.85 1.65 -0.9 1.65 -0.9" fill="#d6d9c9" fill-rule="evenodd" stroke="none"/>
    <path d="M1.6 -0.85 L1.55 -0.75 1.5 -0.8 1.4 -0.95 1.6 -0.85" fill="#c2b7a9" fill-rule="evenodd" stroke="none"/>
    <path d="M1.8 -0.8 L1.85 -0.9 1.9 -0.8 2.0 -0.75 2.0 -0.7 1.95 -0.75 1.9 -0.7 1.9 -0.75 1.85 -0.75 Q1.85 -0.65 1.75 -0.6 1.7 -0.55 1.6 -0.6 L1.55 -0.65 1.45 -0.75 1.5 -0.8 1.55 -0.75 Q1.55 -0.7 1.6 -0.7 1.65 -0.65 1.7 -0.65 L1.8 -0.7 1.8 -0.8" fill="#7a7968" fill-rule="evenodd" stroke="none"/>
    <path d="M1.5 -0.8 L1.45 -0.75 1.55 -0.65 1.6 -0.6 Q1.7 -0.55 1.75 -0.6 1.85 -0.65 1.85 -0.75 L1.9 -0.75 1.9 -0.7 1.9 -0.7 1.95 -0.6 Q2.0 -0.5 2.05 -0.5 L2.1 -0.5 2.1 -0.5 2.05 -0.45 2.0 -0.45 1.95 -0.5 1.9 -0.5 1.9 -0.35 1.95 -0.4 2.0 -0.35 1.85 -0.3 Q1.8 -0.35 1.8 -0.45 L1.75 -0.45 1.65 -0.45 Q1.6 -0.45 1.55 -0.35 L1.5 -0.3 1.45 -0.25 1.5 -0.3 1.55 -0.25 1.65 -0.3 1.65 -0.35 1.7 -0.3 1.65 -0.25 1.65 -0.15 1.75 -0.15 1.75 -0.3 1.8 -0.25 1.85 -0.25 2.0 -0.25 2.0 -0.2 Q1.95 -0.15 2.05 -0.1 L1.95 -0.05 Q2.0 -0.1 1.95 -0.15 L1.9 -0.1 1.85 -0.05 1.75 -0.05 1.65 -0.05 1.65 0.0 1.75 0.0 1.8 0.0 Q1.9 0.0 1.9 -0.1 L1.95 -0.05 1.95 0.0 1.85 0.05 1.8 0.1 Q1.7 0.2 1.65 0.15 L1.45 0.2 1.3 0.25 1.3 0.3 1.15 0.35 0.9 0.4 0.9 0.35 0.85 0.35 0.8 0.35 0.75 0.35 0.75 0.45 0.7 0.4 0.65 0.4 Q0.6 0.45 0.55 0.4 L0.5 0.35 0.55 0.35 0.6 0.35 0.6 0.3 0.65 0.3 0.75 0.25 0.8 0.2 0.85 0.15 0.8 0.15 0.75 0.15 0.8 0.1 0.85 0.15 0.9 0.1 0.9 0.15 0.95 0.15 1.05 0.15 1.05 0.1 Q1.2 0.15 1.15 0.05 L1.2 0.05 1.25 0.0 1.3 0.05 Q1.25 0.05 1.25 0.1 L1.25 0.15 1.3 0.05 1.35 0.0 1.35 -0.05 1.4 -0.1 1.4 -0.15 1.3 -0.2 1.25 -0.2 1.2 -0.15 1.2 -0.1 1.2 -0.2 1.2 -0.25 1.25 -0.3 1.2 -0.3 1.15 -0.25 1.15 -0.3 1.1 -0.25 Q1.05 -0.35 1.1 -0.4 L1.15 -0.35 1.2 -0.35 1.15 -0.5 Q1.05 -0.55 1.05 -0.65 L1.1 -0.55 Q1.15 -0.55 1.15 -0.55 L1.1 -0.65 Q1.05 -0.75 1.15 -0.75 L1.15 -0.65 1.2 -0.6 1.2 -0.7 1.2 -0.7 1.25 -0.7 Q1.3 -0.75 1.35 -0.75 1.4 -0.75 1.4 -0.75 L1.45 -0.8 1.5 -0.8 M2.0 -0.35 L2.0 -0.35 M1.45 -0.45 L1.45 -0.35 Q1.5 -0.35 1.5 -0.45 L1.5 -0.55 1.55 -0.55 1.55 -0.6 1.5 -0.6 1.5 -0.6 1.45 -0.6 1.5 -0.65 1.45 -0.7 1.35 -0.7 1.3 -0.7 1.3 -0.6 1.35 -0.6 1.35 -0.65 1.4 -0.65 1.4 -0.6 1.35 -0.6 Q1.35 -0.55 1.35 -0.5 L1.3 -0.5 1.35 -0.45 1.4 -0.45 1.45 -0.45 M1.35 -0.45 L1.3 -0.4 1.35 -0.4 1.35 -0.45 M1.25 -0.45 Q1.2 -0.5 1.15 -0.5 L1.25 -0.4 Q1.3 -0.35 1.3 -0.45 L1.25 -0.45 M1.45 -0.25 L1.4 -0.25 1.45 -0.2 1.45 -0.25 M1.5 -0.1 L1.5 -0.1 1.6 -0.05 1.6 -0.1 Q1.65 -0.15 1.6 -0.2 L1.5 -0.2 1.5 -0.1 M1.75 -0.5 L1.7 -0.55 Q1.65 -0.5 1.7 -0.5 L1.75 -0.5 1.75 -0.5 M1.9 -0.2 L1.8 -0.2 1.8 -0.15 1.75 -0.1 1.8 -0.1 1.85 -0.15 1.9 -0.15 1.9 -0.2 Q1.95 -0.25 1.9 -0.2 M1.65 0.1 Q1.7 0.15 1.7 0.1 L1.65 0.05 1.55 0.05 1.55 0.1 1.5 0.15 1.6 0.1 1.65 0.1" fill="#4d443c" fill-rule="evenodd" stroke="none"/>
    <path d="M1.9 -0.7 L1.95 -0.75 2.0 -0.7 2.1 -0.7 2.15 -0.65 Q2.1 -0.6 2.1 -0.6 L2.0 -0.65 2.05 -0.6 2.05 -0.5 Q2.0 -0.5 1.95 -0.6 L1.9 -0.7 1.9 -0.7" fill="#a89787" fill-rule="evenodd" stroke="none"/>
    <path d="M2.1 -0.85 Q2.1 -0.8 2.1 -0.75 L2.15 -0.7 2.15 -0.65 2.15 -0.65 2.1 -0.7 2.0 -0.7 2.0 -0.75 2.05 -0.75 2.05 -0.8 2.1 -0.85 M2.0 -0.2 L2.0 -0.25 2.0 -0.35 2.0 -0.35 Q2.0 -0.35 2.05 -0.35 L2.05 -0.4 2.1 -0.5 2.1 -0.5 2.05 -0.5 2.05 -0.6 2.0 -0.65 2.1 -0.6 Q2.1 -0.6 2.15 -0.65 L2.15 -0.6 2.15 -0.45 2.15 -0.45 2.1 -0.4 2.1 -0.3 2.05 -0.3 2.0 -0.2" fill="#5e534b" fill-rule="evenodd" stroke="none"/>
    <path d="M1.05 -0.75 L1.15 -0.8 1.3 -0.85 1.2 -0.8 1.15 -0.75 Q1.2 -0.7 1.2 -0.7 L1.2 -0.7 1.2 -0.6 1.15 -0.65 1.15 -0.75 Q1.05 -0.75 1.1 -0.65 L1.15 -0.55 Q1.15 -0.55 1.1 -0.55 L1.05 -0.65 1.05 -0.6 1.0 -0.6 1.05 -0.65 1.05 -0.75" fill="#807568" fill-rule="evenodd" stroke="none"/>
    <path d="M1.4 -0.75 Q1.4 -0.75 1.35 -0.75 1.3 -0.75 1.25 -0.7 L1.2 -0.7 Q1.2 -0.7 1.15 -0.75 L1.2 -0.8 1.3 -0.85 1.3 -0.8 1.35 -0.85 1.35 -0.9 1.4 -0.85 1.4 -0.75" fill="#b9aea1" fill-rule="evenodd" stroke="none"/>
    <path d="M1.3 -0.85 L1.3 -0.9 1.35 -0.9 1.35 -0.85 1.3 -0.8 1.3 -0.85" fill="#6e655c" fill-rule="evenodd" stroke="none"/>
    <path d="M1.35 -0.5 Q1.35 -0.55 1.35 -0.6 L1.4 -0.6 1.4 -0.65 1.35 -0.65 1.35 -0.6 1.3 -0.6 1.3 -0.7 1.35 -0.7 1.45 -0.7 1.5 -0.65 1.45 -0.6 1.5 -0.6 1.5 -0.6 1.55 -0.6 1.55 -0.55 1.5 -0.55 1.5 -0.45 Q1.5 -0.35 1.45 -0.35 L1.45 -0.45 1.5 -0.55 1.45 -0.5 1.35 -0.5" fill="#958476" fill-rule="evenodd" stroke="none"/>
    <path d="M1.45 -0.45 L1.4 -0.45 1.35 -0.45 1.3 -0.5 1.35 -0.5 1.45 -0.5 1.5 -0.55 1.45 -0.45 M1.35 -0.45 L1.35 -0.45" fill="#2f2823" fill-rule="evenodd" stroke="none"/>
    <path d="M1.35 -0.45 L1.35 -0.4 1.3 -0.4 1.35 -0.45 1.35 -0.45" fill="#877d72" fill-rule="evenodd" stroke="none"/>
    <path d="M1.25 -0.45 L1.3 -0.45 Q1.3 -0.35 1.25 -0.4 L1.15 -0.5 Q1.2 -0.5 1.25 -0.45" fill="#877b72" fill-rule="evenodd" stroke="none"/>
    <path d="M1.0 -0.15 Q1.0 -0.2 1.05 -0.25 L1.05 -0.35 1.05 -0.4 1.1 -0.4 1.1 -0.4 Q1.05 -0.35 1.1 -0.25 1.0 -0.25 1.0 -0.15" fill="#7c6f63" fill-rule="evenodd" stroke="none"/>
    <path d="M1.2 -0.2 L1.2 -0.1 Q1.15 -0.1 1.15 -0.1 L1.1 -0.15 1.1 -0.2 1.15 -0.2 1.2 -0.2" fill="#a29183" fill-rule="evenodd" stroke="none"/>
    <path d="M1.15 -0.25 L1.2 -0.3 1.25 -0.3 1.2 -0.25 1.2 -0.2 1.15 -0.2 1.15 -0.25" fill="#796b5e" fill-rule="evenodd" stroke="none"/>
    <path d="M1.2 -0.15 L1.25 -0.2 1.3 -0.2 1.3 -0.15 1.25 -0.1 1.35 -0.15 1.35 -0.1 1.3 -0.1 1.3 -0.1 1.25 -0.1 1.2 -0.15" fill="#776a5d" fill-rule="evenodd" stroke="none"/>
    <path d="M1.25 0.0 L1.2 0.05 1.15 0.05 1.1 0.0 1.15 -0.05 1.2 -0.05 1.25 0.0" fill="#89796a" fill-rule="evenodd" stroke="none"/>
    <path d="M2.0 -0.25 L1.85 -0.25 1.8 -0.25 1.75 -0.3 1.75 -0.15 1.65 -0.15 1.65 -0.25 1.7 -0.3 1.65 -0.35 1.65 -0.3 1.55 -0.25 1.5 -0.3 1.45 -0.25 1.5 -0.3 1.55 -0.35 Q1.6 -0.45 1.65 -0.45 L1.75 -0.45 1.8 -0.45 Q1.8 -0.35 1.85 -0.3 L2.0 -0.35 2.0 -0.25" fill="#9d8775" fill-rule="evenodd" stroke="none"/>
    <path d="M1.45 -0.25 L1.45 -0.2 1.4 -0.25 1.45 -0.25" fill="#877b73" fill-rule="evenodd" stroke="none"/>
    <path d="M1.5 -0.1 L1.5 -0.2 1.6 -0.2 Q1.65 -0.15 1.6 -0.1 L1.6 -0.05 1.5 -0.1 1.5 -0.1" fill="#786c61" fill-rule="evenodd" stroke="none"/>
    <path d="M2.0 -0.35 L1.95 -0.4 1.9 -0.35 1.9 -0.5 1.95 -0.5 2.0 -0.45 2.05 -0.45 2.1 -0.5 2.05 -0.4 2.05 -0.35 Q2.0 -0.35 2.0 -0.35" fill="#938476" fill-rule="evenodd" stroke="none"/>
    <path d="M1.75 -0.5 L1.75 -0.5 1.7 -0.5 Q1.65 -0.5 1.7 -0.55 L1.75 -0.5" fill="#7b7068" fill-rule="evenodd" stroke="none"/>
    <path d="M1.95 0.0 L1.95 -0.05 1.9 -0.1 Q1.9 0.0 1.8 0.0 L1.75 0.0 1.65 0.0 1.65 -0.05 1.75 -0.05 1.85 -0.05 1.9 -0.1 1.95 -0.15 Q2.0 -0.1 1.95 -0.05 L1.95 0.0 1.95 0.0" fill="#8b7d71" fill-rule="evenodd" stroke="none"/>
    <path d="M1.9 -0.2 Q1.95 -0.25 1.9 -0.2 L1.9 -0.15 1.85 -0.15 1.8 -0.1 1.75 -0.1 1.8 -0.15 1.8 -0.2 1.9 -0.2" fill="#917f71" fill-rule="evenodd" stroke="none"/>
    <path d="M1.3 0.3 L1.3 0.25 1.45 0.2 1.65 0.15 Q1.7 0.2 1.8 0.1 L1.85 0.05 1.95 0.0 1.85 0.15 Q1.75 0.2 1.65 0.2 1.65 0.15 1.6 0.2 L1.55 0.25 1.45 0.25 1.35 0.3 1.3 0.3 M1.95 0.0 L1.95 0.0" fill="#72695f" fill-rule="evenodd" stroke="none"/>
    <path d="M2.15 -1.55 L2.15 -1.55 2.15 -1.55 M2.15 -1.7 L2.15 -1.75 Q2.1 -1.75 2.1 -1.7 L2.05 -1.75 2.15 -1.75 2.15 -1.7 M2.15 -1.35 L2.15 -1.35 2.15 -1.35" fill="#aea293" fill-rule="evenodd" stroke="none"/>
    <path d="M2.15 -1.4 L2.15 -1.45 2.15 -1.35 2.15 -1.4 M2.15 -1.35 L2.15 -1.35" fill="#d6cec4" fill-rule="evenodd" stroke="none"/>
    <path d="M2.15 -1.0 L2.15 -1.05 2.15 -1.0" fill="#695c51" fill-rule="evenodd" stroke="none"/>
    <path d="M2.15 -0.65 L2.15 -0.65 2.15 -0.6 2.15 -0.65" fill="#8c7c6d" fill-rule="evenodd" stroke="none"/>
    <path d="M2.05 -0.1 Q1.95 -0.15 2.0 -0.2 L2.05 -0.3 2.1 -0.3 2.1 -0.4 2.15 -0.45 2.15 -0.45 2.15 -0.35 2.15 -0.25 2.1 -0.2 2.05 -0.1" fill="#918375" fill-rule="evenodd" stroke="none"/>
    <path d="M2.15 -0.35 L2.15 -0.25 2.15 -0.35" fill="#4c4238" fill-rule="evenodd" stroke="none"/>
    <path d="M1.65 0.1 L1.6 0.1 1.5 0.15 1.55 0.1 1.55 0.05 1.65 0.05 1.7 0.1 Q1.7 0.15 1.65 0.1" fill="#91867b" fill-rule="evenodd" stroke="none"/>
    <path d="M1.35 0.0 L1.3 0.05 1.25 0.15 1.25 0.1 Q1.25 0.05 1.3 0.05 L1.35 0.0" fill="#726255" fill-rule="evenodd" stroke="none"/>
    <path d="M0.9 0.1 L0.85 0.15 0.8 0.1 0.75 0.15 0.75 0.1 0.8 0.05 0.85 0.05 0.9 0.1" fill="#a89484" fill-rule="evenodd" stroke="none"/>
    <path d="M0.55 0.15 L0.6 0.05 0.55 0.15 0.55 0.25 0.45 0.3 0.45 0.15 0.5 0.15 0.55 0.15" fill="#968779" fill-rule="evenodd" stroke="none"/>
    <path d="M0.7 0.1 Q0.75 0.1 0.7 0.15 0.65 0.2 0.6 0.2 0.6 0.15 0.6 0.1 L0.7 0.1" fill="#a59588" fill-rule="evenodd" stroke="none"/>
    <path d="M0.55 0.4 Q0.6 0.45 0.65 0.4 L0.7 0.4 0.75 0.45 0.75 0.35 0.8 0.35 0.85 0.35 0.9 0.35 0.9 0.4 Q0.85 0.4 0.75 0.45 L0.65 0.55 0.55 0.55 0.55 0.4" fill="#72685d" fill-rule="evenodd" stroke="none"/>
    <path d="M0.6 0.3 L0.6 0.35 0.55 0.35 0.6 0.3" fill="#8a7e73" fill-rule="evenodd" stroke="none"/>
    <path d="M0.5 0.35 L0.55 0.4 0.55 0.55 0.65 0.55 0.6 0.6 0.55 0.6 Q0.65 0.65 0.6 0.75 L0.55 0.7 0.5 0.7 0.45 0.7 0.4 0.7 Q0.35 0.75 0.35 0.7 0.35 0.65 0.35 0.65 0.4 0.6 0.45 0.6 L0.5 0.6 0.4 0.5 0.4 0.45 0.45 0.4 Q0.5 0.35 0.5 0.35" fill="#595249" fill-rule="evenodd" stroke="none"/>
    <path d="M0.35 0.4 L0.3 0.35 Q0.3 0.35 0.3 0.3 L0.35 0.25 0.4 0.3 0.35 0.4" fill="#9a8c80" fill-rule="evenodd" stroke="none"/>
    <path d="M0.25 0.3 Q0.2 0.3 0.15 0.25 0.1 0.2 0.15 0.15 L0.2 0.1 0.25 0.1 Q0.3 0.1 0.25 0.15 L0.3 0.05 0.35 0.0 0.4 0.1 0.4 0.2 0.35 0.2 Q0.3 0.2 0.3 0.25 L0.25 0.3" fill="#685b50" fill-rule="evenodd" stroke="none"/>
    <path d="M-0.1 0.15 L0.1 0.15 0.1 0.25 0.05 0.2 Q0.0 0.2 0.0 0.25 L-0.05 0.35 -0.05 0.2 -0.1 0.25 -0.1 0.3 -0.1 0.15 M0.1 0.3 L0.1 0.25 0.1 0.3" fill="#77685b" fill-rule="evenodd" stroke="none"/>
    <path d="M-0.05 0.35 L0.0 0.25 Q0.0 0.2 0.05 0.2 L0.1 0.25 0.1 0.3 0.05 0.3 0.0 0.35 -0.05 0.35" fill="#a69486" fill-rule="evenodd" stroke="none"/>
    <path d="M0.1 0.5 L0.15 0.45 0.15 0.35 0.25 0.4 0.2 0.4 Q0.15 0.45 0.2 0.5 L0.3 0.5 0.2 0.5 0.1 0.5" fill="#716357" fill-rule="evenodd" stroke="none"/>
    <path d="M0.15 0.35 L0.15 0.45 0.1 0.5 0.15 0.55 0.2 0.6 0.15 0.65 0.1 0.65 0.05 0.6 0.05 0.55 0.0 0.6 0.0 0.6 -0.1 0.65 -0.15 0.6 Q-0.2 0.6 -0.15 0.7 L-0.15 0.75 Q-0.25 0.65 -0.15 0.6 -0.1 0.55 0.0 0.5 L-0.05 0.5 Q-0.05 0.45 -0.05 0.4 L-0.1 0.35 -0.05 0.35 -0.05 0.4 0.05 0.4 0.1 0.35 0.15 0.35" fill="#938071" fill-rule="evenodd" stroke="none"/>
    <path d="M-0.7 0.3 L-0.7 0.2 Q-0.65 0.2 -0.65 0.25 L-0.65 0.3 -0.55 0.25 -0.45 0.25 -0.4 0.2 -0.45 0.15 -0.4 0.1 -0.45 0.1 -0.5 0.15 -0.55 0.25 -0.6 0.2 -0.7 0.15 -0.65 0.15 -0.6 0.15 -0.55 0.1 -0.55 0.0 -0.5 -0.1 -0.5 -0.15 -0.5 0.0 -0.45 0.05 -0.4 -0.05 Q-0.35 -0.1 -0.35 -0.15 L-0.3 -0.05 -0.35 0.0 -0.4 0.1 -0.35 0.15 -0.3 0.15 Q-0.2 0.15 -0.25 0.1 L-0.3 0.0 -0.3 0.0 -0.25 0.0 -0.2 0.0 -0.25 0.05 -0.2 0.05 -0.15 0.1 -0.2 0.15 -0.2 0.3 -0.1 0.3 -0.1 0.25 -0.05 0.2 -0.05 0.35 -0.1 0.35 -0.05 0.4 Q-0.05 0.45 -0.05 0.5 L0.0 0.5 Q-0.1 0.55 -0.15 0.6 -0.25 0.65 -0.15 0.75 L-0.15 0.7 Q-0.2 0.6 -0.15 0.6 L-0.1 0.65 0.0 0.6 0.0 0.7 0.0 0.7 -0.05 0.75 -0.05 0.8 0.0 0.8 0.05 0.8 0.1 0.75 0.1 0.8 0.15 0.75 0.2 0.75 0.25 0.7 Q0.35 0.65 0.3 0.6 L0.35 0.55 0.4 0.5 0.5 0.6 0.45 0.6 Q0.4 0.6 0.35 0.65 0.35 0.65 0.35 0.7 0.35 0.75 0.4 0.7 L0.4 0.75 0.35 0.8 Q0.3 0.65 0.25 0.75 L0.2 0.85 Q0.15 0.95 0.25 0.95 L0.2 1.0 0.25 1.05 0.25 0.95 0.3 1.0 0.4 1.0 0.35 1.0 0.4 1.05 0.35 1.1 0.3 1.1 0.25 1.1 Q0.2 1.05 0.2 1.1 0.15 1.15 0.2 1.15 L0.25 1.15 0.3 1.2 0.2 1.2 0.15 1.3 0.0 1.3 Q0.0 1.35 0.05 1.4 L0.2 1.4 0.1 1.45 0.05 1.45 -0.05 1.4 0.0 1.35 Q0.0 1.3 -0.05 1.3 L-0.1 1.4 -0.15 1.5 -0.3 1.6 -0.3 1.55 -0.35 1.55 -0.4 1.6 -0.4 1.7 -0.45 1.7 -0.5 1.65 Q-0.45 1.6 -0.4 1.6 -0.4 1.55 -0.4 1.5 -0.35 1.4 -0.25 1.4 L-0.25 1.45 -0.2 1.45 -0.15 1.4 -0.1 1.35 -0.25 1.35 -0.25 1.3 -0.2 1.3 -0.15 1.3 -0.1 1.25 -0.1 1.15 -0.15 1.15 -0.15 1.1 -0.2 1.05 Q-0.15 1.0 -0.25 1.05 L-0.3 1.05 Q-0.35 1.05 -0.4 1.0 L-0.4 1.0 -0.45 1.0 -0.4 0.9 -0.35 0.9 -0.3 0.85 -0.25 0.9 -0.25 0.9 Q-0.25 0.9 -0.35 0.9 L-0.4 1.0 -0.3 1.0 -0.25 0.95 Q-0.2 1.0 -0.15 1.0 -0.1 1.0 -0.1 0.95 L-0.2 0.95 Q-0.2 0.95 -0.2 0.9 L-0.15 0.85 Q-0.2 0.85 -0.2 0.85 -0.15 0.75 -0.3 0.75 L-0.25 0.7 -0.3 0.7 -0.3 0.65 Q-0.3 0.6 -0.3 0.6 L-0.35 0.6 -0.4 0.65 -0.4 0.6 -0.35 0.5 Q-0.4 0.5 -0.4 0.55 L-0.5 0.55 -0.45 0.5 -0.45 0.45 -0.5 0.45 -0.55 0.5 -0.5 0.4 -0.6 0.4 Q-0.6 0.3 -0.7 0.35 L-0.7 0.3 M-0.05 0.4 L-0.05 0.35 0.0 0.35 0.0 0.35 -0.05 0.4 M0.1 0.9 L0.05 0.9 0.05 0.95 0.1 0.95 0.1 0.9 M0.1 1.0 L0.15 1.0 0.1 0.95 0.1 1.0 M0.1 1.05 L0.05 1.1 0.1 1.2 0.1 1.1 Q0.1 1.05 0.1 1.05 M0.05 1.2 L0.05 1.15 0.0 1.1 0.0 1.3 0.05 1.3 Q0.1 1.3 0.1 1.25 L0.05 1.25 0.05 1.2 M-0.25 0.3 L-0.25 0.25 Q-0.3 0.25 -0.3 0.25 -0.35 0.25 -0.35 0.3 -0.35 0.4 -0.3 0.4 -0.25 0.4 -0.25 0.35 L-0.25 0.3 M-0.15 0.5 L-0.1 0.45 Q-0.1 0.4 -0.1 0.4 -0.15 0.35 -0.2 0.35 L-0.2 0.4 -0.25 0.5 -0.15 0.5 M-0.15 1.1 Q-0.1 1.1 -0.1 1.1 L-0.05 1.1 Q-0.05 1.1 -0.05 1.05 L-0.1 1.0 -0.15 1.0 -0.15 1.1" fill="#473f37" fill-rule="evenodd" stroke="none"/>
    <path d="M0.0 0.35 L0.0 0.35 0.05 0.3 0.1 0.3 0.05 0.35 0.0 0.35" fill="#7b6f65" fill-rule="evenodd" stroke="none"/>
    <path d="M0.3 0.5 L0.2 0.5 Q0.15 0.45 0.2 0.4 L0.25 0.4 0.3 0.45 0.3 0.5" fill="#b5a699" fill-rule="evenodd" stroke="none"/>
    <path d="M0.4 0.3 L0.4 0.4 0.35 0.4 0.4 0.3" fill="#60564e" fill-rule="evenodd" stroke="none"/>
    <path d="M0.4 0.45 L0.4 0.5 0.35 0.55 0.3 0.6 0.35 0.5 0.4 0.45" fill="#7d7165" fill-rule="evenodd" stroke="none"/>
    <path d="M0.4 0.7 L0.45 0.7 0.5 0.7 0.55 0.85 0.45 0.8 0.35 0.8 0.4 0.75 0.4 0.7" fill="#201d1a" fill-rule="evenodd" stroke="none"/>
    <path d="M0.6 0.75 L0.65 0.8 0.75 0.85 0.7 0.9 0.7 0.95 0.65 0.95 Q0.6 1.0 0.65 1.05 L0.7 1.1 0.7 1.2 0.65 1.2 Q0.6 1.2 0.6 1.15 L0.6 1.1 0.55 1.15 0.4 1.05 0.45 1.0 0.4 1.0 0.4 0.9 0.35 0.8 0.45 0.8 0.55 0.85 0.5 0.7 0.55 0.7 0.6 0.75 M0.6 0.9 Q0.6 0.85 0.55 0.85 L0.6 0.95 0.6 0.9" fill="#423e38" fill-rule="evenodd" stroke="none"/>
    <path d="M0.35 0.8 L0.4 0.9 0.3 0.85 0.25 0.95 0.25 1.05 0.2 1.0 0.25 0.95 Q0.15 0.95 0.2 0.85 L0.25 0.75 Q0.3 0.65 0.35 0.8" fill="#655c52" fill-rule="evenodd" stroke="none"/>
    <path d="M0.25 0.95 L0.3 0.85 0.4 0.9 0.4 1.0 0.3 1.0 0.25 0.95" fill="#1d1916" fill-rule="evenodd" stroke="none"/>
    <path d="M0.1 0.75 L0.05 0.8 0.0 0.8 -0.05 0.8 -0.05 0.75 0.0 0.7 0.0 0.7 0.05 0.7 0.1 0.75" fill="#a59688" fill-rule="evenodd" stroke="none"/>
    <path d="M0.1 0.9 L0.1 0.95 0.05 0.95 0.05 0.9 0.1 0.9" fill="#7e7467" fill-rule="evenodd" stroke="none"/>
    <path d="M0.1 1.05 Q0.1 1.05 0.1 1.1 L0.1 1.2 0.05 1.1 0.1 1.05" fill="#6f6358" fill-rule="evenodd" stroke="none"/>
    <path d="M0.1 1.0 L0.1 0.95 0.15 1.0 0.1 1.0" fill="#85796c" fill-rule="evenodd" stroke="none"/>
    <path d="M0.05 1.2 L0.05 1.25 0.1 1.25 Q0.1 1.3 0.05 1.3 L0.0 1.3 0.0 1.1 0.05 1.15 0.05 1.2" fill="#796d5f" fill-rule="evenodd" stroke="none"/>
    <path d="M0.65 1.25 L0.6 1.3 0.55 1.25 0.5 1.25 Q0.45 1.2 0.45 1.25 L0.45 1.3 0.4 1.3 0.35 1.2 0.4 1.35 0.35 1.45 0.35 1.6 0.25 1.6 Q0.25 1.65 0.3 1.65 L0.25 1.65 Q0.2 1.65 0.2 1.6 L0.3 1.55 Q0.35 1.5 0.3 1.45 L0.25 1.4 0.2 1.4 0.05 1.4 Q0.0 1.35 0.0 1.3 L0.15 1.3 0.2 1.2 0.3 1.2 0.25 1.15 0.2 1.15 Q0.15 1.15 0.2 1.1 0.2 1.05 0.25 1.1 L0.3 1.1 0.35 1.1 0.4 1.05 0.55 1.15 0.55 1.2 0.65 1.25" fill="#2a2724" fill-rule="evenodd" stroke="none"/>
    <path d="M0.4 1.0 L0.45 1.0 0.4 1.05 0.35 1.0 0.4 1.0 M0.35 1.1 L0.4 1.05 0.35 1.1" fill="#6b645c" fill-rule="evenodd" stroke="none"/>
    <path d="M0.75 0.85 Q0.8 0.8 0.85 0.9 L0.9 0.95 0.85 1.0 0.85 0.95 0.8 1.0 0.8 0.95 0.75 0.9 0.75 0.95 0.7 1.0 0.7 0.95 0.7 0.9 0.75 0.85" fill="#726b63" fill-rule="evenodd" stroke="none"/>
    <path d="M0.6 0.9 L0.6 0.95 0.55 0.85 Q0.6 0.85 0.6 0.9" fill="#635e57" fill-rule="evenodd" stroke="none"/>
    <path d="M0.85 1.0 L0.8 1.05 0.7 1.0 0.75 0.95 0.75 0.9 0.8 0.95 0.8 1.0 0.85 0.95 0.85 1.0" fill="#9b9081" fill-rule="evenodd" stroke="none"/>
    <path d="M0.7 1.1 Q0.75 1.1 0.75 1.2 L0.65 1.25 0.55 1.2 0.55 1.15 0.6 1.1 0.6 1.15 Q0.6 1.2 0.65 1.2 L0.7 1.2 0.7 1.1" fill="#786f64" fill-rule="evenodd" stroke="none"/>
    <path d="M0.6 1.3 L0.65 1.35 0.6 1.4 0.5 1.45 0.45 1.4 0.4 1.5 0.3 1.65 Q0.25 1.65 0.25 1.6 L0.35 1.6 0.35 1.45 0.4 1.35 0.35 1.2 0.4 1.3 0.45 1.3 0.45 1.25 Q0.45 1.2 0.5 1.25 L0.55 1.25 0.6 1.3" fill="#655f57" fill-rule="evenodd" stroke="none"/>
    <path d="M0.2 1.6 L0.2 1.55 0.2 1.45 0.3 1.45 Q0.35 1.5 0.3 1.55 L0.2 1.6" fill="#8c8278" fill-rule="evenodd" stroke="none"/>
    <path d="M0.2 1.4 L0.25 1.4 0.2 1.45 0.15 1.5 0.05 1.45 0.1 1.45 0.2 1.4" fill="#93897b" fill-rule="evenodd" stroke="none"/>
    <path d="M0.2 1.55 L0.1 1.6 Q0.05 1.7 0.1 1.75 0.0 1.65 -0.05 1.7 -0.05 1.7 -0.1 1.7 L-0.1 1.7 -0.1 1.6 -0.05 1.45 Q0.0 1.45 -0.05 1.45 L-0.05 1.6 0.05 1.6 0.1 1.55 0.15 1.5 0.2 1.45 0.25 1.4 0.3 1.45 0.2 1.45 0.2 1.55" fill="#443f3a" fill-rule="evenodd" stroke="none"/>
    <path d="M-0.05 1.45 L-0.05 1.4 0.05 1.45 0.15 1.5 0.1 1.55 0.05 1.6 -0.05 1.6 -0.05 1.45 Q0.0 1.45 -0.05 1.45" fill="#060605" fill-rule="evenodd" stroke="none"/>
    <path d="M0.1 1.75 Q0.15 1.8 0.1 1.85 L-0.05 1.85 -0.1 1.85 -0.1 1.7 -0.1 1.7 Q-0.05 1.7 -0.05 1.7 0.0 1.65 0.1 1.75" fill="#6f6962" fill-rule="evenodd" stroke="none"/>
    <path d="M-2.1 -1.65 Q-2.2 -1.6 -2.1 -1.6 L-2.1 -1.55 -2.15 -1.5 -2.2 -1.45 -2.2 -1.6 -2.15 -1.7 -2.1 -1.65 M-2.2 -1.4 Q-2.15 -1.45 -2.15 -1.4 L-2.2 -1.4 -2.2 -1.4" fill="#a28f77" fill-rule="evenodd" stroke="none"/>
    <path d="M-1.95 -1.65 L-2.0 -1.7 -2.05 -1.65 -2.1 -1.65 -2.15 -1.7 -2.1 -1.75 Q-2.05 -1.8 -2.05 -1.8 L-1.95 -1.8 Q-2.05 -1.8 -2.05 -1.75 L-1.95 -1.65 -1.9 -1.55 -1.95 -1.6 -1.95 -1.65 M-1.8 -1.3 Q-1.8 -1.35 -1.85 -1.35 -1.8 -1.45 -1.85 -1.55 L-1.9 -1.7 -1.95 -1.8 -1.85 -1.75 -1.75 -1.5 -1.65 -1.25 -1.55 -1.15 -1.45 -1.1 Q-1.45 -1.05 -1.5 -1.05 L-1.5 -1.0 -1.45 -1.0 -1.4 -1.05 -1.4 -1.0 -1.5 -0.95 -1.5 -0.85 -1.5 -0.8 -1.55 -0.8 -1.6 -0.9 -1.85 -0.85 -1.85 -0.95 -1.75 -0.95 -1.6 -0.95 -1.55 -1.0 -1.5 -1.1 Q-1.5 -1.1 -1.55 -1.1 L-1.6 -1.1 -1.65 -1.15 -1.65 -1.2 Q-1.75 -1.2 -1.7 -1.1 -1.65 -1.05 -1.6 -1.05 L-1.6 -1.0 -1.65 -1.0 -1.7 -1.0 -1.7 -1.05 -1.75 -1.05 -1.8 -1.1 -1.8 -1.15 -1.75 -1.2 -1.75 -1.2 -1.75 -1.25 -1.7 -1.25 -1.75 -1.3 Q-1.8 -1.35 -1.8 -1.3 L-1.8 -1.3 M-0.75 -0.7 L-0.7 -0.7 Q-0.65 -0.65 -0.65 -0.65 L-0.55 -0.7 -0.55 -0.65 -0.5 -0.6 -0.5 -0.65 -0.45 -0.65 Q-0.45 -0.6 -0.45 -0.6 L-0.5 -0.55 -0.6 -0.55 Q-0.65 -0.55 -0.6 -0.6 L-0.7 -0.55 -0.75 -0.55 -0.75 -0.7 M-1.65 -1.25 L-1.65 -1.25" fill="#b1a493" fill-rule="evenodd" stroke="none"/>
    <path d="M-2.0 -1.55 Q-2.1 -1.5 -2.1 -1.55 L-2.05 -1.65 -2.0 -1.7 -1.95 -1.65 -2.0 -1.6 -2.0 -1.55" fill="#524334" fill-rule="evenodd" stroke="none"/>
    <path d="M-2.05 -1.65 L-2.1 -1.55 Q-2.1 -1.5 -2.0 -1.55 L-2.1 -1.45 Q-2.1 -1.45 -2.05 -1.4 L-2.1 -1.35 -2.15 -1.3 -2.2 -1.3 -2.2 -1.4 -2.2 -1.45 -2.15 -1.5 -2.1 -1.55 -2.1 -1.6 Q-2.2 -1.6 -2.1 -1.65 L-2.05 -1.65 M-2.2 -1.4 L-2.15 -1.4 Q-2.15 -1.45 -2.2 -1.4 M-2.05 -1.4 L-2.05 -1.4" fill="#7e6954" fill-rule="evenodd" stroke="none"/>
    <path d="M-2.05 -1.4 Q-2.1 -1.45 -2.1 -1.45 L-2.0 -1.55 -1.95 -1.5 -1.95 -1.45 -1.9 -1.4 Q-1.9 -1.4 -1.9 -1.45 L-1.9 -1.5 Q-1.85 -1.55 -1.85 -1.45 L-1.9 -1.4 -1.95 -1.35 -2.0 -1.35 Q-2.05 -1.4 -2.05 -1.4" fill="#b5a38e" fill-rule="evenodd" stroke="none"/>
    <path d="M-2.2 -1.3 L-2.15 -1.3 -2.1 -1.35 -2.05 -1.4 -2.05 -1.3 -2.1 -1.25 -2.15 -1.2 -2.2 -1.2 -2.2 -1.3" fill="#a5927d" fill-rule="evenodd" stroke="none"/>
    <path d="M-2.05 -1.4 L-2.05 -1.4 Q-2.05 -1.4 -2.0 -1.35 L-1.95 -1.35 -1.9 -1.35 -1.95 -1.25 -1.9 -1.25 -1.85 -1.25 -1.8 -1.3 -1.75 -1.25 -1.75 -1.2 -1.85 -1.2 -1.85 -1.15 -1.95 -1.2 Q-1.95 -1.25 -2.0 -1.25 L-2.05 -1.15 -2.1 -1.0 -2.1 -0.95 -2.15 -0.9 Q-2.1 -0.9 -2.05 -0.8 -2.05 -0.75 -2.1 -0.75 L-2.15 -0.7 -2.1 -0.65 -2.15 -0.65 -2.15 -0.65 -2.2 -0.65 -2.2 -0.95 -2.15 -1.0 Q-2.1 -1.05 -2.15 -1.1 L-2.15 -1.1 -2.2 -1.1 -2.2 -1.2 -2.15 -1.2 -2.1 -1.25 -2.05 -1.3 -2.05 -1.4 M-1.75 -1.2 L-1.75 -1.2 M-1.8 -1.3 L-1.8 -1.3" fill="#605040" fill-rule="evenodd" stroke="none"/>
    <path d="M-2.2 -1.1 L-2.15 -1.1 -2.15 -1.1 Q-2.1 -1.05 -2.15 -1.0 L-2.2 -0.95 -2.2 -1.1" fill="#9d8a78" fill-rule="evenodd" stroke="none"/>
    <path d="M-2.1 -0.65 L-2.15 -0.7 -2.1 -0.75 Q-2.05 -0.75 -2.05 -0.8 -2.1 -0.9 -2.15 -0.9 L-2.1 -0.95 -2.1 -1.0 -1.95 -1.05 Q-1.9 -1.05 -1.85 -1.15 L-1.85 -1.2 -1.75 -1.2 -1.8 -1.15 -1.8 -1.1 -1.95 -0.95 Q-2.0 -0.9 -2.1 -0.95 L-2.05 -0.9 Q-2.05 -0.85 -2.0 -0.85 L-1.95 -0.8 -1.85 -0.8 Q-1.85 -0.75 -1.9 -0.75 L-2.0 -0.75 -2.05 -0.7 -2.1 -0.65 -2.1 -0.65" fill="#907156" fill-rule="evenodd" stroke="none"/>
    <path d="M-2.1 -1.0 L-2.05 -1.15 -2.0 -1.25 Q-1.95 -1.25 -1.95 -1.2 L-1.85 -1.15 Q-1.9 -1.05 -1.95 -1.05 L-2.1 -1.0" fill="#b99562" fill-rule="evenodd" stroke="none"/>
    <path d="M-1.7 -0.15 L-1.7 -0.15 -1.75 -0.15 -1.75 0.0 Q-1.75 0.0 -1.7 -0.05 L-1.7 -0.1 -1.7 0.0 -1.7 0.05 -1.7 0.1 -1.85 0.0 Q-1.8 0.0 -1.8 -0.05 L-1.8 -0.05 Q-1.8 -0.1 -1.85 -0.1 L-1.9 -0.2 Q-1.95 -0.25 -1.95 -0.2 -2.0 -0.15 -2.0 -0.2 L-2.05 -0.2 -2.05 -0.2 -2.05 -0.25 -2.1 -0.3 Q-2.05 -0.35 -2.05 -0.4 L-2.15 -0.45 -2.15 -0.5 -2.2 -0.55 -2.2 -0.65 -2.15 -0.65 -2.15 -0.65 -2.1 -0.65 -2.1 -0.65 -2.05 -0.7 -2.0 -0.75 -1.9 -0.75 Q-1.85 -0.75 -1.85 -0.8 L-1.95 -0.8 -2.0 -0.85 Q-2.05 -0.85 -2.05 -0.9 L-2.1 -0.95 Q-2.0 -0.9 -1.95 -0.95 L-1.8 -1.1 -1.75 -1.05 -1.7 -1.05 -1.7 -1.0 -1.65 -1.0 -1.6 -1.0 -1.6 -1.05 -1.55 -1.05 Q-1.55 -1.05 -1.55 -1.0 L-1.6 -0.95 -1.75 -0.95 -1.75 -1.0 Q-1.75 -1.05 -1.8 -1.05 L-1.85 -0.95 -1.85 -0.85 -1.85 -0.85 -1.8 -0.8 Q-1.75 -0.8 -1.8 -0.75 -1.8 -0.65 -1.65 -0.65 -1.55 -0.65 -1.5 -0.7 L-1.5 -0.8 -1.45 -0.8 -1.45 -0.75 -1.45 -0.65 Q-1.45 -0.65 -1.45 -0.6 L-1.5 -0.55 Q-1.55 -0.5 -1.55 -0.5 L-1.7 -0.5 Q-1.75 -0.5 -1.8 -0.55 L-1.8 -0.55 -1.85 -0.55 -1.8 -0.5 -1.8 -0.45 -1.85 -0.45 -1.85 -0.35 -1.8 -0.4 -1.75 -0.35 Q-1.8 -0.3 -1.8 -0.25 -1.8 -0.25 -1.75 -0.25 L-1.7 -0.3 -1.65 -0.3 -1.65 -0.25 -1.7 -0.15 M-2.05 -0.35 L-2.05 -0.3 -2.0 -0.25 -1.95 -0.2 -1.95 -0.25 -2.0 -0.3 -2.05 -0.35 M-1.95 -0.7 L-2.0 -0.65 -2.05 -0.6 Q-2.0 -0.55 -1.95 -0.6 L-1.95 -0.65 -1.9 -0.6 -1.85 -0.55 -1.85 -0.6 -1.9 -0.65 -1.85 -0.65 -1.85 -0.7 -1.95 -0.7 M-1.95 -0.55 L-1.95 -0.5 -1.9 -0.45 -1.9 -0.55 -1.95 -0.55 M-1.45 -0.6 L-1.45 -0.6" fill="#4c4035" fill-rule="evenodd" stroke="none"/>
    <path d="M-2.1 -0.3 L-2.2 -0.4 -2.2 -0.55 -2.15 -0.5 -2.15 -0.45 -2.05 -0.4 Q-2.05 -0.35 -2.1 -0.3" fill="#867463" fill-rule="evenodd" stroke="none"/>
    <path d="M-1.7 0.1 L-1.6 0.15 Q-1.55 0.15 -1.5 0.2 L-1.45 0.25 Q-1.4 0.25 -1.4 0.3 L-1.65 0.2 -1.7 0.15 -1.9 0.0 -2.05 -0.2 -2.05 -0.2 -2.0 -0.2 Q-2.0 -0.15 -1.95 -0.2 -1.95 -0.25 -1.9 -0.2 L-1.85 -0.1 Q-1.8 -0.1 -1.8 -0.05 L-1.8 -0.05 Q-1.8 0.0 -1.85 0.0 L-1.7 0.1" fill="#7f7366" fill-rule="evenodd" stroke="none"/>
    <path d="M-2.05 -0.35 L-2.0 -0.3 -1.95 -0.25 -1.95 -0.2 -2.0 -0.25 -2.05 -0.3 -2.05 -0.35" fill="#95897b" fill-rule="evenodd" stroke="none"/>
    <path d="M-1.85 -1.75 L-1.95 -1.8 -1.9 -1.8 -1.85 -1.75" fill="#615950" fill-rule="evenodd" stroke="none"/>
    <path d="M-2.0 -1.55 L-2.0 -1.6 -1.95 -1.65 -1.95 -1.6 -1.9 -1.55 -1.95 -1.65 -2.05 -1.75 Q-2.05 -1.8 -1.95 -1.8 L-1.9 -1.7 -1.85 -1.55 Q-1.8 -1.45 -1.85 -1.35 -1.8 -1.35 -1.8 -1.3 L-1.9 -1.35 -1.95 -1.35 -1.9 -1.4 -1.85 -1.45 Q-1.85 -1.55 -1.9 -1.5 L-1.9 -1.45 Q-1.9 -1.4 -1.9 -1.4 L-1.95 -1.45 -1.95 -1.5 -2.0 -1.55" fill="#7a6956" fill-rule="evenodd" stroke="none"/>
    <path d="M-1.95 -1.8 L-2.05 -1.8 -2.0 -1.85 -1.95 -1.8" fill="#4a443b" fill-rule="evenodd" stroke="none"/>
    <path d="M-1.9 -1.35 L-1.8 -1.3 -1.85 -1.25 -1.9 -1.25 -1.95 -1.25 -1.9 -1.35" fill="#ac9e90" fill-rule="evenodd" stroke="none"/>
    <path d="M-1.75 -1.2 L-1.75 -1.25 -1.8 -1.3 Q-1.8 -1.35 -1.75 -1.3 L-1.7 -1.25 -1.75 -1.25 -1.75 -1.2" fill="#948371" fill-rule="evenodd" stroke="none"/>
    <path d="M-1.65 -1.25 L-1.65 -1.25 -1.65 -1.25" fill="#534e48" fill-rule="evenodd" stroke="none"/>
    <path d="M-1.45 -1.1 L-1.35 -1.0 -1.4 -0.95 -1.4 -1.0 -1.4 -1.05 -1.45 -1.0 -1.5 -1.0 -1.5 -1.05 Q-1.45 -1.05 -1.45 -1.1" fill="#867867" fill-rule="evenodd" stroke="none"/>
    <path d="M-1.5 -0.85 L-1.5 -0.95 -1.4 -1.0 -1.4 -0.95 -1.45 -0.9 Q-1.45 -0.85 -1.5 -0.85" fill="#5d4c3c" fill-rule="evenodd" stroke="none"/>
    <path d="M-1.25 -0.8 Q-1.35 -0.75 -1.3 -0.8 L-1.3 -0.9 -1.35 -0.9 -1.35 -0.85 -1.4 -0.85 -1.45 -0.9 -1.4 -0.95 -1.35 -1.0 -1.15 -0.9 Q-1.15 -0.85 -1.2 -0.85 L-1.25 -0.8" fill="#a29585" fill-rule="evenodd" stroke="none"/>
    <path d="M-1.35 -0.85 Q-1.4 -0.85 -1.4 -0.8 L-1.35 -0.75 -1.4 -0.7 -1.4 -0.65 -1.45 -0.6 Q-1.45 -0.65 -1.45 -0.65 L-1.45 -0.75 -1.45 -0.8 -1.5 -0.8 -1.5 -0.85 Q-1.45 -0.85 -1.45 -0.9 L-1.4 -0.85 -1.35 -0.85 M-1.5 -0.8 L-1.5 -0.8" fill="#8b7863" fill-rule="evenodd" stroke="none"/>
    <path d="M-1.5 -0.8 L-1.5 -0.8 -1.5 -0.7 Q-1.55 -0.8 -1.65 -0.75 L-1.7 -0.75 -1.8 -0.75 Q-1.75 -0.8 -1.8 -0.8 L-1.85 -0.85 -1.85 -0.85 -1.6 -0.9 -1.55 -0.8 -1.5 -0.8" fill="#648875" fill-rule="evenodd" stroke="none"/>
    <path d="M-1.4 -0.65 L-1.35 -0.65 -1.35 -0.6 -1.3 -0.65 Q-1.25 -0.65 -1.3 -0.7 -1.2 -0.7 -1.2 -0.65 -1.15 -0.6 -1.25 -0.6 -1.25 -0.55 -1.3 -0.5 -1.4 -0.5 -1.4 -0.55 L-1.4 -0.6 -1.45 -0.6 -1.45 -0.6 -1.4 -0.65" fill="#a6907b" fill-rule="evenodd" stroke="none"/>
    <path d="M-1.05 -0.55 L-1.05 -0.6 Q-1.0 -0.55 -1.0 -0.6 L-1.1 -0.7 -1.05 -0.75 -1.1 -0.8 Q-1.05 -0.8 -1.05 -0.8 L-1.1 -0.9 -1.0 -0.85 -0.95 -0.8 -0.95 -0.7 -0.9 -0.7 -0.9 -0.65 -1.0 -0.55 -1.05 -0.55" fill="#645649" fill-rule="evenodd" stroke="none"/>
    <path d="M-1.15 -0.7 L-1.2 -0.7 -1.25 -0.75 -1.15 -0.8 -1.1 -0.9 -1.1 -0.9 -1.05 -0.8 Q-1.05 -0.8 -1.1 -0.8 L-1.15 -0.75 -1.15 -0.7" fill="#a79887" fill-rule="evenodd" stroke="none"/>
    <path d="M-1.25 -0.75 L-1.25 -0.8 -1.2 -0.85 Q-1.15 -0.85 -1.15 -0.9 L-1.15 -0.9 -1.1 -0.9 -1.15 -0.8 -1.25 -0.75" fill="#72675b" fill-rule="evenodd" stroke="none"/>
    <path d="M-1.05 -0.6 L-1.05 -0.65 -1.1 -0.65 -1.15 -0.6 -1.15 -0.7 -1.15 -0.75 -1.1 -0.8 -1.05 -0.75 -1.1 -0.7 -1.0 -0.6 Q-1.0 -0.55 -1.05 -0.6" fill="#8e7c6a" fill-rule="evenodd" stroke="none"/>
    <path d="M-1.55 -1.0 Q-1.55 -1.05 -1.55 -1.05 L-1.6 -1.05 Q-1.65 -1.05 -1.7 -1.1 -1.75 -1.2 -1.65 -1.2 L-1.65 -1.15 -1.6 -1.1 -1.55 -1.1 Q-1.5 -1.1 -1.5 -1.1 L-1.55 -1.0" fill="#7e6d58" fill-rule="evenodd" stroke="none"/>
    <path d="M-1.85 -0.95 L-1.8 -1.05 Q-1.75 -1.05 -1.75 -1.0 L-1.75 -0.95 -1.85 -0.95" fill="#756556" fill-rule="evenodd" stroke="none"/>
    <path d="M-1.95 -0.7 L-1.85 -0.7 -1.85 -0.65 -1.9 -0.65 -1.85 -0.6 -1.85 -0.55 -1.9 -0.6 -1.95 -0.65 -1.95 -0.6 Q-2.0 -0.55 -2.05 -0.6 L-2.0 -0.65 -1.95 -0.7" fill="#88705d" fill-rule="evenodd" stroke="none"/>
    <path d="M-1.5 -0.7 Q-1.55 -0.65 -1.65 -0.65 -1.8 -0.65 -1.8 -0.75 L-1.7 -0.75 -1.65 -0.75 Q-1.55 -0.8 -1.5 -0.7" fill="#3a5c4e" fill-rule="evenodd" stroke="none"/>
    <path d="M-1.8 -0.45 L-1.75 -0.45 -1.7 -0.4 -1.7 -0.35 -1.75 -0.35 -1.8 -0.4 -1.85 -0.35 -1.85 -0.45 -1.8 -0.45" fill="#6e5a4b" fill-rule="evenodd" stroke="none"/>
    <path d="M-1.5 -0.45 L-1.55 -0.35 -1.5 -0.3 -1.5 -0.25 -1.55 -0.3 Q-1.55 -0.35 -1.6 -0.35 -1.65 -0.35 -1.7 -0.3 L-1.75 -0.25 Q-1.8 -0.25 -1.8 -0.25 -1.8 -0.3 -1.75 -0.35 L-1.7 -0.35 -1.7 -0.4 -1.75 -0.45 -1.8 -0.45 -1.8 -0.5 -1.85 -0.55 -1.8 -0.55 -1.8 -0.55 Q-1.75 -0.5 -1.7 -0.5 L-1.55 -0.5 -1.55 -0.5 -1.5 -0.45" fill="#a58b75" fill-rule="evenodd" stroke="none"/>
    <path d="M-1.55 -0.3 L-1.6 -0.3 -1.6 -0.3 Q-1.55 -0.25 -1.6 -0.2 -1.65 -0.15 -1.7 -0.15 L-1.65 -0.25 -1.65 -0.3 -1.7 -0.3 Q-1.65 -0.35 -1.6 -0.35 -1.55 -0.35 -1.55 -0.3" fill="#7d6b5c" fill-rule="evenodd" stroke="none"/>
    <path d="M-1.4 -0.55 L-1.45 -0.55 -1.4 -0.5 -1.35 -0.45 -1.3 -0.45 Q-1.25 -0.4 -1.3 -0.4 L-1.35 -0.4 -1.35 -0.35 -1.4 -0.35 -1.4 -0.4 Q-1.45 -0.35 -1.5 -0.4 L-1.5 -0.45 -1.55 -0.5 -1.55 -0.5 Q-1.55 -0.5 -1.5 -0.55 L-1.45 -0.6 -1.4 -0.6 -1.4 -0.55" fill="#7f6a56" fill-rule="evenodd" stroke="none"/>
    <path d="M-1.95 -0.55 L-1.9 -0.55 -1.9 -0.45 -1.95 -0.5 -1.95 -0.55" fill="#917966" fill-rule="evenodd" stroke="none"/>
    <path d="M-1.7 -0.15 L-1.7 -0.1 -1.7 -0.05 Q-1.75 0.0 -1.75 0.0 L-1.75 -0.15 -1.7 -0.15" fill="#8e8279" fill-rule="evenodd" stroke="none"/>
    <path d="M-1.15 -0.55 L-1.1 -0.55 -1.05 -0.55 -1.0 -0.55 -0.9 -0.65 -0.85 -0.45 -1.0 -0.5 Q-1.1 -0.5 -1.15 -0.55" fill="#847463" fill-rule="evenodd" stroke="none"/>
    <path d="M-0.25 -0.3 L-0.2 -0.25 -0.25 -0.2 -0.45 -0.25 -0.4 -0.3 -0.45 -0.35 -0.45 -0.45 -0.6 -0.5 Q-0.7 -0.55 -0.7 -0.5 L-0.7 -0.45 -0.75 -0.4 -0.85 -0.35 -0.95 -0.45 -1.1 -0.45 -1.15 -0.5 -1.15 -0.55 Q-1.1 -0.5 -1.0 -0.5 L-0.85 -0.45 -0.8 -0.45 -0.8 -0.45 -0.75 -0.5 -0.8 -0.55 -0.85 -0.55 -0.75 -0.55 -0.7 -0.55 -0.6 -0.6 Q-0.65 -0.55 -0.6 -0.55 L-0.5 -0.55 -0.45 -0.6 -0.45 -0.55 -0.4 -0.5 -0.4 -0.45 Q-0.4 -0.4 -0.35 -0.4 L-0.3 -0.5 -0.25 -0.5 Q-0.2 -0.5 -0.2 -0.55 -0.15 -0.6 -0.2 -0.65 L-0.25 -0.65 -0.3 -0.65 -0.15 -0.65 -0.15 -0.6 -0.1 -0.55 -0.25 -0.45 -0.3 -0.3 -0.25 -0.3 M-0.85 -0.35 L-0.85 -0.35" fill="#554a3f" fill-rule="evenodd" stroke="none"/>
    <path d="M-1.1 -0.2 L-1.2 -0.3 -1.2 -0.4 -1.15 -0.45 -1.15 -0.4 -1.1 -0.35 Q-1.05 -0.3 -1.05 -0.35 -1.15 -0.4 -1.05 -0.4 L-1.0 -0.35 -0.95 -0.3 -1.0 -0.3 -1.05 -0.3 -1.05 -0.2 -1.1 -0.2" fill="#5f5245" fill-rule="evenodd" stroke="none"/>
    <path d="M-1.15 -0.45 L-1.15 -0.5 -1.1 -0.45 -1.05 -0.4 Q-1.15 -0.4 -1.05 -0.35 -1.05 -0.3 -1.1 -0.35 L-1.15 -0.4 -1.15 -0.45" fill="#827362" fill-rule="evenodd" stroke="none"/>
    <path d="M-1.05 -0.4 L-1.1 -0.45 -0.95 -0.45 -0.85 -0.35 Q-0.95 -0.3 -0.9 -0.25 -0.9 -0.15 -0.85 -0.15 -0.9 -0.1 -0.9 -0.15 L-0.95 -0.3 -1.0 -0.35 -1.05 -0.4" fill="#9d9584" fill-rule="evenodd" stroke="none"/>
    <path d="M-0.7 -0.45 Q-0.6 -0.35 -0.6 -0.25 -0.6 -0.15 -0.75 -0.1 L-0.9 -0.1 Q-1.0 -0.1 -0.95 -0.2 L-1.0 -0.2 Q-1.05 -0.2 -1.1 -0.2 L-1.05 -0.2 -1.05 -0.3 -1.0 -0.3 -0.95 -0.3 -0.9 -0.15 Q-0.9 -0.1 -0.85 -0.15 L-0.75 -0.15 -0.7 -0.2 Q-0.6 -0.3 -0.7 -0.35 L-0.75 -0.35 -0.8 -0.35 -0.85 -0.35 -0.85 -0.35 -0.75 -0.4 -0.7 -0.45" fill="#757465" fill-rule="evenodd" stroke="none"/>
    <path d="M-1.15 -0.15 L-1.1 -0.1 -1.2 -0.05 Q-1.25 -0.05 -1.2 -0.1 -1.2 -0.15 -1.2 -0.15 L-1.25 -0.2 -1.15 -0.15" fill="#978575" fill-rule="evenodd" stroke="none"/>
    <path d="M-1.1 -0.05 Q-1.05 -0.1 -1.0 -0.05 -1.0 0.0 -1.05 0.05 -1.05 0.05 -1.1 0.05 L-1.1 0.0 -1.15 -0.05 -1.1 -0.05" fill="#b8a697" fill-rule="evenodd" stroke="none"/>
    <path d="M-0.35 -0.65 L-0.3 -0.65 -0.25 -0.65 -0.2 -0.65 Q-0.15 -0.6 -0.2 -0.55 -0.2 -0.5 -0.25 -0.5 L-0.3 -0.55 -0.25 -0.6 -0.35 -0.65" fill="#ada192" fill-rule="evenodd" stroke="none"/>
    <path d="M-0.35 -0.65 L-0.35 -0.65 -0.3 -0.65 -0.35 -0.65 -0.35 -0.65" fill="#635c51" fill-rule="evenodd" stroke="none"/>
    <path d="M-0.4 -0.65 L-0.35 -0.65 -0.35 -0.65 -0.35 -0.55 Q-0.35 -0.5 -0.3 -0.5 L-0.35 -0.4 Q-0.4 -0.4 -0.4 -0.45 L-0.4 -0.5 -0.45 -0.6 -0.4 -0.65" fill="#aa9c8d" fill-rule="evenodd" stroke="none"/>
    <path d="M-0.45 -0.65 L-0.4 -0.65 -0.45 -0.6 -0.4 -0.5 -0.45 -0.55 -0.45 -0.6 Q-0.45 -0.6 -0.45 -0.65" fill="#7b6e60" fill-rule="evenodd" stroke="none"/>
    <path d="M-0.15 -0.65 L-0.05 -0.65 0.0 -0.6 -0.1 -0.6 -0.15 -0.65" fill="#7d7465" fill-rule="evenodd" stroke="none"/>
    <path d="M-1.0 -0.85 L-0.9 -0.85 -0.85 -0.8 -0.75 -0.75 -0.8 -0.7 -0.85 -0.65 -0.85 -0.7 -0.9 -0.7 -0.95 -0.7 -0.95 -0.8 -1.0 -0.85" fill="#453e37" fill-rule="evenodd" stroke="none"/>
    <path d="M-0.75 -0.75 L-0.75 -0.7 -0.75 -0.55 -0.85 -0.55 -0.8 -0.55 -0.75 -0.5 -0.8 -0.45 -0.8 -0.45 -0.85 -0.45 -0.9 -0.65 -0.9 -0.7 -0.85 -0.7 -0.85 -0.65 -0.8 -0.7 -0.75 -0.75 -0.75 -0.75" fill="#9a8c7c" fill-rule="evenodd" stroke="none"/>
    <path d="M-0.9 -0.85 L-0.85 -0.8 -0.75 -0.75 -0.85 -0.8 -0.9 -0.85 M-0.75 -0.75 L-0.75 -0.75" fill="#6e6860" fill-rule="evenodd" stroke="none"/>
    <path d="M-0.7 -0.7 L-0.65 -0.7 -0.65 -0.65 Q-0.65 -0.65 -0.7 -0.7" fill="#534d45" fill-rule="evenodd" stroke="none"/>
    <path d="M-0.55 -0.65 L-0.5 -0.65 -0.5 -0.6 -0.55 -0.65" fill="#60584c" fill-rule="evenodd" stroke="none"/>
    <path d="M-0.7 -0.35 L-0.75 -0.3 -0.8 -0.25 -0.85 -0.3 -0.8 -0.35 -0.75 -0.35 -0.7 -0.35" fill="#c6cec3" fill-rule="evenodd" stroke="none"/>
    <path d="M-0.8 -0.35 L-0.85 -0.3 -0.8 -0.25 -0.75 -0.3 -0.7 -0.35 Q-0.6 -0.3 -0.7 -0.2 L-0.75 -0.15 -0.85 -0.15 Q-0.9 -0.15 -0.9 -0.25 -0.95 -0.3 -0.85 -0.35 L-0.85 -0.35 -0.8 -0.35 M-0.85 -0.35 L-0.85 -0.35" fill="#aeb7a7" fill-rule="evenodd" stroke="none"/>
    <path d="M-0.55 -0.4 L-0.6 -0.4 -0.65 -0.45 -0.55 -0.4" fill="#907f70" fill-rule="evenodd" stroke="none"/>
    <path d="M-0.5 -0.25 L-0.55 -0.35 -0.55 -0.35 Q-0.45 -0.35 -0.5 -0.35 L-0.55 -0.4 -0.5 -0.4 Q-0.45 -0.4 -0.45 -0.45 L-0.45 -0.35 -0.5 -0.25" fill="#8c7e70" fill-rule="evenodd" stroke="none"/>
    <path d="M-0.65 -0.45 L-0.7 -0.5 Q-0.7 -0.55 -0.6 -0.5 L-0.45 -0.45 Q-0.45 -0.4 -0.5 -0.4 L-0.55 -0.4 -0.65 -0.45" fill="#d0c8bd" fill-rule="evenodd" stroke="none"/>
    <path d="M-0.9 -0.05 L-0.85 0.0 -0.9 0.1 -1.0 0.05 -0.95 -0.05 -0.9 -0.05" fill="#ad9d90" fill-rule="evenodd" stroke="none"/>
    <path d="M-0.65 0.15 L-0.65 -0.05 -0.6 -0.1 -0.5 -0.1 -0.55 0.0 -0.55 0.1 -0.6 0.15 -0.65 0.15" fill="#8f7a68" fill-rule="evenodd" stroke="none"/>
    <path d="M-0.2 -0.35 L-0.25 -0.3 -0.3 -0.3 -0.25 -0.45 -0.1 -0.55 -0.1 -0.5 -0.15 -0.45 -0.2 -0.35" fill="#a79c93" fill-rule="evenodd" stroke="none"/>
    <path d="M-0.25 -0.5 L-0.3 -0.5 Q-0.35 -0.5 -0.35 -0.55 L-0.35 -0.65 -0.25 -0.6 -0.3 -0.55 -0.25 -0.5" fill="#726859" fill-rule="evenodd" stroke="none"/>
    <path d="M-0.35 -0.15 L-0.35 -0.2 -0.3 -0.2 -0.3 -0.1 -0.25 0.0 -0.3 0.0 -0.3 0.0 Q-0.35 0.0 -0.35 0.05 L-0.35 0.15 -0.3 0.15 -0.3 0.15 -0.35 0.15 -0.4 0.1 -0.35 0.0 -0.3 -0.05 -0.35 -0.15" fill="#6f6053" fill-rule="evenodd" stroke="none"/>
    <path d="M-0.45 -0.25 L-0.5 -0.2 -0.5 -0.25 -0.45 -0.35 -0.4 -0.3 -0.45 -0.25" fill="#b7a897" fill-rule="evenodd" stroke="none"/>
    <path d="M-0.5 -0.15 L-0.45 -0.15 Q-0.4 -0.15 -0.4 -0.1 L-0.45 0.0 -0.45 0.05 -0.5 0.0 -0.5 -0.15" fill="#a38d7a" fill-rule="evenodd" stroke="none"/>
    <path d="M-0.45 -0.15 L-0.35 -0.15 Q-0.35 -0.1 -0.4 -0.05 L-0.45 0.05 -0.45 0.0 -0.4 -0.1 Q-0.4 -0.15 -0.45 -0.15" fill="#796656" fill-rule="evenodd" stroke="none"/>
    <path d="M-0.1 0.05 L-0.1 0.15 -0.15 0.15 -0.15 0.1 -0.2 0.05 -0.25 0.05 -0.2 0.0 -0.1 0.05" fill="#6c5f53" fill-rule="evenodd" stroke="none"/>
    <path d="M-0.1 0.3 L-0.2 0.3 -0.2 0.15 -0.15 0.1 -0.15 0.15 -0.1 0.15 -0.1 0.3" fill="#9f8e7e" fill-rule="evenodd" stroke="none"/>
    <path d="M-0.3 0.0 L-0.25 0.1 Q-0.2 0.15 -0.3 0.15 L-0.3 0.15 -0.35 0.15 -0.35 0.05 Q-0.35 0.0 -0.3 0.0" fill="#a99280" fill-rule="evenodd" stroke="none"/>
    <path d="M-0.7 0.2 L-0.75 0.2 -0.7 0.15 -0.6 0.2 -0.55 0.25 -0.5 0.15 -0.45 0.1 -0.4 0.1 -0.45 0.15 -0.4 0.2 -0.45 0.25 -0.55 0.25 -0.65 0.3 -0.65 0.25 Q-0.65 0.2 -0.7 0.2" fill="#918070" fill-rule="evenodd" stroke="none"/>
    <path d="M-0.3 0.4 Q-0.35 0.4 -0.35 0.3 -0.35 0.25 -0.3 0.25 -0.3 0.25 -0.25 0.25 L-0.25 0.3 -0.3 0.35 -0.3 0.4" fill="#a49484" fill-rule="evenodd" stroke="none"/>
    <path d="M-0.25 0.3 L-0.25 0.35 Q-0.25 0.4 -0.3 0.4 L-0.3 0.35 -0.25 0.3" fill="#766657" fill-rule="evenodd" stroke="none"/>
    <path d="M-0.4 0.7 L-0.5 0.6 -0.6 0.5 -0.6 0.4 -0.5 0.4 -0.55 0.5 -0.5 0.45 -0.45 0.45 -0.45 0.5 -0.5 0.55 -0.4 0.55 Q-0.4 0.5 -0.35 0.5 L-0.4 0.6 -0.4 0.65 -0.35 0.6 -0.3 0.6 Q-0.3 0.6 -0.3 0.65 L-0.3 0.7 -0.25 0.7 -0.3 0.75 -0.35 0.75 -0.4 0.75 -0.4 0.7" fill="#847768" fill-rule="evenodd" stroke="none"/>
    <path d="M-0.1 0.4 Q-0.1 0.4 -0.1 0.45 L-0.15 0.5 -0.15 0.45 -0.1 0.4" fill="#74665b" fill-rule="evenodd" stroke="none"/>
    <path d="M-0.15 0.5 L-0.25 0.5 -0.2 0.4 -0.2 0.35 Q-0.15 0.35 -0.1 0.4 L-0.15 0.45 -0.15 0.5" fill="#a19387" fill-rule="evenodd" stroke="none"/>
    <path d="M-0.7 0.1 L-0.75 0.1 -0.8 0.1 -0.8 0.05 -0.75 0.0 Q-0.7 0.0 -0.7 0.05 -0.65 0.05 -0.7 0.1" fill="#968274" fill-rule="evenodd" stroke="none"/>
    <path d="M-1.35 0.15 L-1.3 0.2 -1.25 0.15 -1.25 0.2 -1.2 0.25 -1.2 0.15 -1.15 0.2 -1.15 0.25 -1.1 0.25 -1.1 0.2 -1.05 0.2 -1.05 0.2 -0.95 0.2 -1.0 0.3 -1.1 0.3 -1.2 0.3 -1.3 0.3 -1.35 0.2 -1.35 0.15" fill="#8f8071" fill-rule="evenodd" stroke="none"/>
    <path d="M-0.9 0.35 L-0.95 0.3 -0.9 0.3 -0.9 0.25 -0.85 0.25 -0.85 0.35 -0.8 0.35 -0.85 0.3 -0.8 0.25 Q-0.75 0.25 -0.75 0.3 L-0.8 0.35 -0.75 0.35 -0.7 0.3 -0.7 0.35 Q-0.7 0.35 -0.7 0.4 L-0.7 0.45 -0.9 0.35" fill="#887d70" fill-rule="evenodd" stroke="none"/>
    <path d="M-1.0 0.15 L-1.0 0.15 -1.05 0.1 -1.0 0.1 -1.0 0.15" fill="#8e8075" fill-rule="evenodd" stroke="none"/>
    <path d="M-0.6 0.5 L-0.65 0.45 -0.7 0.45 -0.7 0.4 Q-0.7 0.35 -0.7 0.35 -0.6 0.3 -0.6 0.4 L-0.6 0.5" fill="#665f56" fill-rule="evenodd" stroke="none"/>
    <path d="M-0.7 1.0 L-0.8 1.05 -0.85 1.05 -0.85 0.95 -0.8 0.95 -0.7 1.0" fill="#b1a693" fill-rule="evenodd" stroke="none"/>
    <path d="M-0.4 0.9 L-0.55 0.95 -0.6 1.0 -0.7 1.0 Q-0.75 0.9 -0.8 0.95 L-0.85 0.95 -0.85 1.05 -0.9 0.95 Q-0.9 0.9 -0.85 0.85 L-0.65 0.85 Q-0.55 0.85 -0.5 0.75 L-0.45 0.8 -0.4 0.9" fill="#4a4842" fill-rule="evenodd" stroke="none"/>
    <path d="M-0.7 1.0 L-0.7 1.0 -0.8 0.95 Q-0.75 0.9 -0.7 1.0" fill="#827869" fill-rule="evenodd" stroke="none"/>
    <path d="M-0.6 1.35 L-0.65 1.35 -0.65 1.2 -0.6 1.2 Q-0.6 1.2 -0.6 1.25 L-0.65 1.3 -0.6 1.3 -0.6 1.25 -0.55 1.3 -0.5 1.3 -0.55 1.3 -0.6 1.35" fill="#776f64" fill-rule="evenodd" stroke="none"/>
    <path d="M-0.35 1.2 L-0.4 1.2 -0.45 1.25 -0.5 1.2 Q-0.55 1.2 -0.6 1.25 L-0.6 1.3 -0.65 1.3 -0.6 1.25 Q-0.6 1.2 -0.6 1.2 L-0.6 1.2 -0.55 1.2 -0.55 1.1 -0.5 1.05 Q-0.55 1.1 -0.5 1.15 L-0.45 1.15 -0.4 1.2 -0.35 1.15 -0.35 1.1 -0.35 1.2" fill="#4e4a44" fill-rule="evenodd" stroke="none"/>
    <path d="M-0.3 0.75 Q-0.15 0.75 -0.2 0.85 -0.2 0.85 -0.15 0.85 L-0.2 0.9 Q-0.2 0.95 -0.2 0.95 L-0.1 0.95 Q-0.1 1.0 -0.15 1.0 -0.2 1.0 -0.25 0.95 L-0.25 0.9 -0.25 0.9 -0.3 0.85 -0.35 0.8 -0.35 0.75 -0.3 0.75" fill="#6e6456" fill-rule="evenodd" stroke="none"/>
    <path d="M-0.4 0.9 L-0.4 0.9 -0.45 0.8 -0.5 0.75 -0.45 0.75 -0.4 0.7 -0.4 0.75 -0.35 0.75 -0.35 0.8 -0.3 0.85 -0.35 0.9 -0.4 0.9" fill="#2c2a24" fill-rule="evenodd" stroke="none"/>
    <path d="M-0.35 1.1 L-0.3 1.05 -0.25 1.1 -0.2 1.05 -0.15 1.1 -0.15 1.15 -0.1 1.15 -0.1 1.25 -0.15 1.3 -0.2 1.3 -0.25 1.2 -0.25 1.15 -0.3 1.15 Q-0.3 1.1 -0.35 1.1" fill="#292722" fill-rule="evenodd" stroke="none"/>
    <path d="M-0.2 1.05 L-0.25 1.1 -0.3 1.05 -0.25 1.05 Q-0.15 1.0 -0.2 1.05" fill="#6d665e" fill-rule="evenodd" stroke="none"/>
    <path d="M-0.25 1.3 L-0.3 1.25 -0.35 1.2 -0.35 1.1 -0.35 1.1 Q-0.3 1.1 -0.3 1.15 L-0.25 1.15 -0.25 1.2 -0.2 1.3 -0.25 1.3" fill="#71695f" fill-rule="evenodd" stroke="none"/>
    <path d="M-0.25 0.9 L-0.25 0.95 -0.3 1.0 -0.4 1.0 -0.35 0.9 Q-0.25 0.9 -0.25 0.9" fill="#1f1e1b" fill-rule="evenodd" stroke="none"/>
    <path d="M-0.15 1.1 L-0.15 1.0 -0.1 1.0 -0.05 1.05 Q-0.05 1.1 -0.05 1.1 L-0.1 1.1 Q-0.1 1.1 -0.15 1.1" fill="#796c5a" fill-rule="evenodd" stroke="none"/>
    <path d="M-1.2 0.05 L-1.1 0.1 Q-1.05 0.1 -1.1 0.15 -1.15 0.1 -1.2 0.1 L-1.2 0.15 -1.25 0.1 -1.2 0.05" fill="#95887c" fill-rule="evenodd" stroke="none"/>
    <path d="M-1.5 0.2 L-1.5 0.15 -1.5 0.05 -1.45 0.1 -1.45 0.15 -1.4 0.15 Q-1.35 0.1 -1.35 0.15 L-1.35 0.2 -1.3 0.3 -1.35 0.3 -1.4 0.3 Q-1.4 0.25 -1.45 0.25 L-1.5 0.2" fill="#5c5145" fill-rule="evenodd" stroke="none"/>
    <path d="M-1.5 0.15 L-1.55 0.1 -1.55 0.05 Q-1.6 0.0 -1.55 -0.05 L-1.5 0.05 -1.5 0.15" fill="#a4988a" fill-rule="evenodd" stroke="none"/>
    <path d="M-1.7 0.0 L-1.65 0.0 -1.7 0.05 -1.7 0.0" fill="#82786e" fill-rule="evenodd" stroke="none"/>
    <path d="M-0.25 1.4 L-0.25 1.35 -0.1 1.35 -0.15 1.4 -0.2 1.45 -0.25 1.45 -0.25 1.4" fill="#201d19" fill-rule="evenodd" stroke="none"/>
    <path d="M-0.45 1.25 L-0.45 1.3 -0.5 1.35 -0.6 1.35 -0.55 1.3 -0.5 1.3 -0.55 1.3 -0.6 1.25 Q-0.55 1.2 -0.5 1.2 L-0.45 1.25" fill="#a19687" fill-rule="evenodd" stroke="none"/>
    <path d="M-0.3 1.6 L-0.35 1.7 -0.4 1.7 -0.4 1.6 -0.35 1.55 -0.3 1.55 -0.3 1.6" fill="#867c6e" fill-rule="evenodd" stroke="none"/>
    <path d="M-0.5 1.65 Q-0.55 1.6 -0.5 1.55 -0.45 1.5 -0.4 1.5 -0.4 1.55 -0.4 1.6 -0.45 1.6 -0.5 1.65" fill="#78726c" fill-rule="evenodd" stroke="none"/>
    <path d="M-0.65 1.35 L-0.7 1.3 -0.65 1.2 -0.65 1.35" fill="#39352f" fill-rule="evenodd" stroke="none"/>
    <path d="M2.15 -1.45 L2.15 -1.55 2.15 -1.7 2.15 -1.75 2.15 -1.8 2.1 -1.8 2.1 -1.85 2.0 -1.9 1.95 -1.85 Q1.85 -1.85 1.85 -1.7 L1.85 -1.55 1.8 -1.45 1.85 -1.35 1.85 -1.35 1.8 -1.3 1.8 -1.25 1.75 -1.25 1.75 -1.2 1.75 -1.2 1.7 -1.15 1.65 -1.1 1.6 -1.05 1.5 -1.0 1.5 -0.95 Q1.45 -0.95 1.4 -0.95 L1.35 -0.9 1.3 -0.9 1.3 -0.85 1.15 -0.8 1.05 -0.75 0.9 -0.75 0.85 -0.7 0.75 -0.7 0.75 -0.7 0.7 -0.65 0.6 -0.65 0.5 -0.65 0.45 -0.65 0.4 -0.65 0.25 -0.65 0.05 -0.65 0.05 -0.65 0.0 -0.6 -0.05 -0.65 -0.15 -0.65 -0.3 -0.65 -0.35 -0.65 -0.35 -0.65 -0.4 -0.65 -0.45 -0.65 -0.5 -0.65 -0.55 -0.65 -0.55 -0.7 -0.65 -0.65 -0.65 -0.7 -0.7 -0.7 -0.75 -0.7 -0.75 -0.75 -0.85 -0.8 -0.9 -0.85 -1.0 -0.85 -1.1 -0.9 -1.1 -0.9 -1.15 -0.9 -1.15 -0.9 -1.35 -1.0 -1.45 -1.1 -1.55 -1.15 -1.65 -1.25 -1.65 -1.25 -1.75 -1.5 -1.85 -1.75 -1.9 -1.8 -1.95 -1.8 -2.0 -1.85 -2.05 -1.8 Q-2.05 -1.8 -2.1 -1.75 L-2.15 -1.7 -2.2 -1.6 -2.2 -1.45 -2.2 -1.4 -2.2 -1.3 -2.2 -1.2 -2.2 -1.1 -2.2 -0.95 -2.2 -0.65 -2.2 -0.55 -2.2 -0.4 -2.1 -0.3 -2.05 -0.25 -2.05 -0.2 -1.9 0.0 -1.7 0.15 -1.65 0.2 -1.4 0.3 -1.35 0.3 -1.3 0.3 -1.2 0.3 -1.1 0.3 -1.0 0.35 -0.9 0.35 -0.7 0.45 -0.65 0.45 -0.6 0.5 -0.5 0.6 -0.4 0.7 -0.45 0.75 -0.5 0.75 Q-0.55 0.85 -0.65 0.85 L-0.85 0.85 Q-0.9 0.9 -0.9 0.95 L-0.85 1.05 -0.8 1.05 -0.7 1.0 -0.7 1.0 -0.6 1.0 -0.55 0.95 -0.4 0.9 -0.4 0.9 -0.45 1.0 -0.4 1.0 -0.4 1.0 Q-0.35 1.05 -0.3 1.05 L-0.35 1.1 -0.35 1.1 -0.35 1.15 -0.4 1.2 -0.45 1.25 -0.45 1.3 -0.5 1.35 -0.6 1.35 -0.65 1.35 -0.7 1.3 -0.65 1.2 -0.6 1.2 -0.6 1.2 -0.55 1.2 -0.55 1.1 -0.5 1.05 Q-0.55 1.1 -0.5 1.15 L-0.45 1.15 -0.4 1.2 -0.35 1.2 -0.3 1.25 -0.25 1.3 -0.25 1.35 -0.25 1.4 Q-0.35 1.4 -0.4 1.5 -0.45 1.5 -0.5 1.55 -0.55 1.6 -0.5 1.65 L-0.45 1.7 -0.4 1.7 -0.35 1.7 -0.3 1.6 -0.15 1.5 -0.1 1.4 -0.05 1.3 Q0.0 1.3 0.0 1.35 L-0.05 1.4 -0.05 1.45 -0.1 1.6 -0.1 1.7 -0.1 1.85 -0.05 1.85 0.1 1.85 Q0.15 1.8 0.1 1.75 0.05 1.7 0.1 1.6 L0.2 1.55 0.2 1.6 Q0.2 1.65 0.25 1.65 L0.3 1.65 0.4 1.5 0.45 1.4 0.5 1.45 0.6 1.4 0.65 1.35 0.6 1.3 0.65 1.25 0.75 1.2 Q0.75 1.1 0.7 1.1 L0.65 1.05 Q0.6 1.0 0.65 0.95 L0.7 0.95 0.7 1.0 0.8 1.05 0.85 1.0 0.9 0.95 0.85 0.9 Q0.8 0.8 0.75 0.85 L0.65 0.8 0.6 0.75 Q0.65 0.65 0.55 0.6 L0.6 0.6 0.65 0.55 0.75 0.45 Q0.85 0.4 0.9 0.4 L1.15 0.35 1.3 0.3 1.35 0.3 1.45 0.25 1.55 0.25 1.6 0.2 Q1.65 0.15 1.65 0.2 1.75 0.2 1.85 0.15 L1.95 0.0 1.95 -0.05 2.05 -0.1 2.1 -0.2 2.15 -0.25 2.15 -0.35 2.15 -0.45 2.15 -0.6 2.15 -0.65 2.15 -0.7 2.15 -1.0 2.15 -1.05 2.15 -1.15 2.15 -1.3 2.15 -1.35 2.15 -1.45 M2.15 -1.55 L2.15 -1.55 M-2.2 -1.4 L-2.2 -1.4 Z" fill="none" stroke="#000000" stroke-linecap="round" stroke-linejoin="round" stroke-opacity="0.4509804" stroke-width="1.0"/>
  </g>
</svg>
