<?xml version="1.0" encoding="UTF-8" standalone="no"?>
<svg xmlns:xlink="http://www.w3.org/1999/xlink" height="3.9px" width="3.65px" xmlns="http://www.w3.org/2000/svg">
  <g transform="matrix(1.0, 0.0, 0.0, 1.0, 1.7, 1.9)">
    <path d="M0.45 -1.65 L0.45 -1.65 0.5 -1.6 0.55 -1.5 0.6 -1.2 0.6 -0.95 0.6 -0.85 0.6 -0.8 0.65 -0.6 0.65 -0.2 0.65 -0.15 0.7 -0.1 0.7 0.1 0.65 0.5 0.7 0.55 0.7 0.65 0.7 0.75 0.65 0.75 Q0.6 0.7 0.55 0.7 L0.5 0.75 Q0.45 0.8 0.45 0.8 L0.5 0.85 0.45 0.9 0.45 0.95 0.4 0.9 0.4 0.8 Q0.35 0.8 0.35 0.7 L0.35 0.65 0.35 0.55 0.35 0.45 0.3 0.4 0.3 0.3 0.35 0.3 0.4 0.3 0.45 0.3 0.4 0.3 0.4 0.35 0.35 0.35 Q0.35 0.4 0.4 0.4 0.45 0.4 0.45 0.4 L0.5 0.45 0.45 0.5 Q0.4 0.5 0.45 0.55 L0.5 0.55 0.55 0.55 0.6 0.5 0.6 0.45 0.55 0.4 0.55 0.35 0.55 0.25 0.6 0.2 0.65 0.2 0.6 0.1 0.65 0.05 0.65 -0.05 0.65 -0.1 0.6 -0.1 0.6 -0.05 0.55 0.1 0.5 0.0 Q0.5 0.0 0.45 0.0 L0.45 -0.05 0.4 -0.05 Q0.35 -0.1 0.4 -0.15 L0.45 -0.2 0.45 -0.2 0.5 -0.2 0.45 -0.25 0.45 -0.25 0.4 -0.25 0.3 -0.25 0.3 -0.25 0.3 -0.35 0.3 -0.35 0.3 -0.4 0.25 -0.45 0.25 -0.45 0.2 -0.45 0.2 -0.45 0.2 -0.5 0.15 -0.55 0.15 -0.55 0.15 -0.85 0.15 -0.95 Q0.1 -1.05 0.1 -1.15 L0.1 -1.25 0.15 -1.4 0.1 -1.45 0.1 -1.45 0.1 -1.55 0.1 -1.6 0.1 -1.65 0.15 -1.65 0.2 -1.65 0.45 -1.65 M0.8 0.75 L0.8 0.55 0.7 0.2 0.75 0.15 0.75 0.1 0.7 -0.05 0.75 -0.1 0.7 -0.25 0.7 -0.45 0.7 -0.6 0.65 -0.6 0.65 -0.6 0.7 -0.7 0.7 -0.8 0.65 -0.9 0.65 -1.15 0.65 -1.2 0.7 -1.25 0.65 -1.35 0.65 -1.4 0.8 -1.65 0.8 -1.7 0.85 -1.7 0.85 -1.7 0.85 -1.65 0.9 -1.6 0.9 -1.6 0.85 -1.6 0.85 -1.55 0.8 -1.55 0.75 -1.5 Q0.65 -1.45 0.65 -1.4 L0.75 -1.3 0.7 -1.25 0.7 -1.2 0.75 -1.05 0.7 -0.95 0.75 -0.8 0.75 -0.75 0.8 -0.75 0.8 -0.75 0.8 -0.6 0.8 -0.6 0.85 -0.6 0.85 -0.6 0.85 -0.45 0.85 -0.35 0.85 -0.3 0.85 -0.2 0.85 -0.2 0.8 -0.15 0.8 -0.05 0.85 0.0 0.85 0.05 0.85 0.2 0.85 0.35 0.9 0.4 0.9 0.45 Q0.85 0.45 0.85 0.45 0.85 0.45 0.85 0.5 L0.85 0.55 0.9 0.6 0.9 0.7 0.85 0.7 0.8 0.75 M0.25 -1.3 L0.3 -1.25 0.3 -1.25 0.4 -1.3 0.4 -1.45 0.3 -1.5 0.25 -1.5 0.25 -1.45 0.2 -1.4 Q0.2 -1.35 0.25 -1.3 M0.45 -0.7 L0.45 -0.7 0.5 -0.7 0.5 -0.65 0.55 -0.6 0.55 -0.6 0.6 -0.7 0.6 -0.7 0.55 -0.8 0.55 -0.9 0.55 -1.1 0.55 -1.15 0.5 -1.25 0.5 -1.25 0.45 -1.3 0.45 -1.3 0.4 -1.3 0.4 -1.25 0.35 -1.25 Q0.35 -1.2 0.3 -1.2 0.25 -1.2 0.25 -1.15 L0.25 -1.15 0.25 -1.1 0.3 -1.0 0.35 -1.0 0.4 -1.05 0.4 -1.05 Q0.4 -1.0 0.45 -1.0 L0.45 -1.0 0.45 -0.95 0.45 -0.95 Q0.4 -0.95 0.35 -0.9 L0.35 -0.85 0.35 -0.8 0.3 -0.85 0.3 -0.8 0.25 -0.8 0.2 -0.75 0.2 -0.75 0.25 -0.7 0.25 -0.65 0.3 -0.6 0.35 -0.6 Q0.35 -0.6 0.4 -0.65 L0.45 -0.7 M-0.85 -1.45 L-0.75 -1.6 -0.75 -1.65 -0.7 -1.65 -0.7 -1.65 -0.7 -1.65 -0.65 -1.65 -0.65 -1.65 -0.65 -1.55 -0.7 -1.55 -0.7 -1.55 -0.75 -1.5 -0.8 -1.5 -0.85 -1.45 M-1.1 -1.65 L-1.1 -1.65 -1.05 -1.6 -1.0 -1.55 -1.0 -1.2 -1.05 -1.05 -1.05 -0.95 -1.05 -0.8 -1.05 -0.5 -1.1 -0.2 -1.1 -0.1 -1.1 0.15 -1.15 0.45 -1.15 0.6 -1.15 0.7 -1.2 0.8 -1.2 0.85 -1.25 0.9 -1.25 0.85 -1.2 0.8 Q-1.2 0.75 -1.25 0.75 L-1.25 0.7 Q-1.25 0.7 -1.3 0.7 L-1.35 0.7 -1.35 0.7 -1.4 0.8 -1.4 0.85 -1.35 0.9 -1.35 0.9 -1.4 0.95 -1.45 0.95 -1.5 0.95 -1.5 0.9 -1.5 0.85 -1.5 0.75 -1.55 0.65 -1.5 0.6 -1.5 0.55 -1.5 0.4 -1.5 0.25 -1.5 0.25 -1.45 0.25 -1.4 0.25 -1.4 0.25 -1.4 0.3 -1.45 0.3 -1.45 0.35 -1.4 0.35 Q-1.4 0.35 -1.35 0.4 L-1.35 0.45 Q-1.45 0.5 -1.4 0.55 L-1.35 0.55 -1.3 0.55 -1.3 0.55 -1.2 0.5 -1.2 0.45 -1.25 0.45 -1.25 0.4 Q-1.25 0.35 -1.3 0.35 L-1.3 0.35 -1.3 0.3 -1.25 0.25 -1.2 0.2 -1.15 0.15 -1.15 0.0 -1.15 -0.05 -1.15 -0.1 -1.15 -0.05 -1.2 0.05 -1.2 0.1 -1.25 0.05 -1.25 0.0 -1.3 -0.05 -1.3 -0.05 -1.35 -0.1 Q-1.4 -0.15 -1.3 -0.2 L-1.3 -0.2 -1.25 -0.25 -1.3 -0.25 -1.3 -0.25 Q-1.35 -0.25 -1.35 -0.25 L-1.4 -0.3 -1.45 -0.3 -1.45 -0.3 -1.45 -0.4 -1.4 -0.45 -1.4 -0.45 -1.45 -0.5 -1.45 -0.5 -1.5 -0.5 -1.55 -0.55 -1.55 -0.55 -1.55 -0.65 -1.5 -0.75 -1.5 -0.9 -1.5 -1.05 -1.5 -1.25 -1.45 -1.35 -1.45 -1.45 -1.45 -1.55 -1.45 -1.6 -1.45 -1.65 -1.45 -1.7 -1.4 -1.7 -1.35 -1.7 -1.35 -1.7 -1.25 -1.7 -1.1 -1.65 M-1.05 1.05 L-1.05 0.95 -1.05 0.9 -1.05 0.85 -1.1 0.6 -1.1 0.2 -1.1 0.15 -1.05 0.15 -1.05 0.0 -1.05 -0.25 -1.0 -0.35 -1.0 -0.55 -1.0 -0.6 -1.0 -0.6 -0.95 -0.65 -0.95 -0.8 -1.0 -0.9 -1.0 -0.95 -0.95 -1.1 -0.95 -1.2 -0.9 -1.25 -0.95 -1.35 -0.9 -1.4 -0.9 -1.4 -0.85 -1.3 -0.9 -1.25 -0.9 -1.05 -0.9 -0.75 -0.9 -0.7 -0.85 -0.7 -0.85 -0.6 -0.9 -0.6 -0.9 -0.55 -0.85 -0.55 -0.85 -0.55 -0.85 -0.4 -0.9 -0.35 -0.9 -0.3 -0.85 -0.3 -0.85 -0.25 Q-0.85 -0.2 -0.9 -0.15 L-0.9 -0.15 -0.9 -0.2 -0.95 -0.1 -0.95 -0.05 -0.95 0.0 -0.95 0.1 -0.95 0.2 Q-0.95 0.25 -0.95 0.3 L-0.95 0.45 -0.95 0.45 -0.95 0.45 -1.0 0.45 -1.0 0.55 -1.0 0.6 -0.95 0.65 -0.95 0.6 -0.95 0.7 -1.0 0.7 -0.95 0.7 -0.95 0.75 -0.95 0.8 -1.0 0.8 -1.0 0.85 -1.0 0.95 -1.0 1.0 -1.05 1.05 M-0.7 -1.65 L-0.7 -1.65 M-1.25 0.9 L-1.25 0.9 M-1.3 -1.55 L-1.35 -1.5 -1.35 -1.35 Q-1.3 -1.3 -1.3 -1.3 L-1.2 -1.35 -1.15 -1.4 -1.2 -1.5 -1.25 -1.55 -1.3 -1.55 M-1.25 -0.75 L-1.2 -0.75 -1.2 -0.75 -1.15 -0.7 -1.15 -0.6 -1.1 -0.6 -1.1 -0.7 -1.1 -0.9 -1.05 -1.0 -1.1 -1.1 -1.05 -1.15 -1.05 -1.15 -1.1 -1.25 -1.1 -1.3 -1.15 -1.3 -1.15 -1.3 Q-1.2 -1.3 -1.2 -1.3 L-1.2 -1.25 Q-1.25 -1.2 -1.3 -1.25 L-1.35 -1.2 -1.35 -1.2 -1.35 -1.15 -1.3 -1.05 -1.3 -1.05 -1.25 -1.1 -1.2 -1.05 -1.2 -1.05 Q-1.15 -1.05 -1.15 -1.0 L-1.15 -0.95 Q-1.15 -0.95 -1.2 -0.95 L-1.2 -0.95 -1.3 -0.95 -1.3 -0.9 -1.3 -0.85 -1.3 -0.85 -1.35 -0.85 -1.4 -0.85 -1.45 -0.8 -1.45 -0.75 -1.4 -0.7 -1.35 -0.65 -1.25 -0.7 -1.25 -0.75" fill="#c2b89a" fill-rule="evenodd" stroke="none"/>
    <path d="M0.7 0.75 L0.7 0.65 0.7 0.55 0.65 0.5 0.7 0.1 0.7 -0.1 0.65 -0.15 0.65 -0.2 0.65 -0.6 0.6 -0.8 0.6 -0.85 0.6 -0.95 0.6 -1.2 0.55 -1.5 0.5 -1.6 0.45 -1.65 0.45 -1.65 0.45 -1.65 0.5 -1.65 0.5 -1.65 0.6 -1.65 0.7 -1.65 0.75 -1.7 0.8 -1.7 0.8 -1.65 0.65 -1.4 0.65 -1.35 0.7 -1.25 0.65 -1.2 0.65 -1.15 0.65 -0.9 0.7 -0.8 0.7 -0.7 0.65 -0.6 0.65 -0.6 0.7 -0.6 0.7 -0.45 0.7 -0.25 0.75 -0.1 0.7 -0.05 0.75 0.1 0.75 0.15 0.7 0.2 0.8 0.55 0.8 0.75 0.75 0.75 0.7 0.75 M-0.7 -1.65 L-0.7 -1.65 -0.75 -1.65 -0.75 -1.6 -0.85 -1.45 -0.9 -1.4 -0.95 -1.35 -0.9 -1.25 -0.95 -1.2 -0.95 -1.1 -1.0 -0.95 -1.0 -0.9 -0.95 -0.8 -0.95 -0.65 -1.0 -0.6 -1.0 -0.6 -1.0 -0.55 -1.0 -0.35 -1.05 -0.25 -1.05 0.0 -1.05 0.15 -1.1 0.15 -1.1 0.2 -1.1 0.6 -1.05 0.85 -1.05 0.9 -1.05 0.95 -1.05 1.05 -1.05 1.0 -1.2 0.9 -1.25 0.9 -1.2 0.85 -1.2 0.8 -1.15 0.7 -1.15 0.6 -1.15 0.45 -1.1 0.15 -1.1 -0.1 -1.1 -0.2 -1.05 -0.5 -1.05 -0.8 -1.05 -0.95 -1.05 -1.05 -1.0 -1.2 -1.0 -1.55 -1.05 -1.6 -1.1 -1.65 -1.1 -1.65 -1.1 -1.65 -1.0 -1.65 -0.9 -1.65 -0.75 -1.65 -0.75 -1.65 -0.7 -1.65 M-1.05 1.1 L-1.05 1.05 -1.05 1.1 M-1.5 0.95 L-1.45 0.95 -1.45 1.0 -1.5 1.05 -1.5 0.95 -1.5 0.95" fill="#938b74" fill-rule="evenodd" stroke="none"/>
    <path d="M0.45 0.0 Q0.5 0.0 0.5 0.0 L0.55 0.1 0.5 0.15 0.45 0.2 0.4 0.2 0.35 0.15 0.3 0.1 Q0.3 0.05 0.35 0.0 L0.35 0.0 0.4 0.0 0.45 -0.05 0.45 0.0 M0.5 0.85 L0.45 0.8 Q0.45 0.8 0.5 0.75 L0.55 0.7 Q0.6 0.7 0.65 0.75 L0.55 0.8 0.5 0.85 M0.25 -1.8 Q0.15 -1.75 0.1 -1.65 L0.1 -1.8 0.65 -1.85 Q0.8 -1.85 0.9 -1.8 L0.85 -1.8 0.85 -1.7 0.85 -1.7 0.8 -1.7 0.75 -1.8 0.65 -1.85 0.3 -1.8 0.25 -1.8 M0.9 -1.5 L0.9 -1.45 0.95 -1.4 0.95 -1.35 0.9 -1.3 0.9 -1.4 0.9 -1.5 0.9 -1.5 M0.85 -0.8 L0.9 -0.8 0.9 -0.65 0.85 -0.6 0.85 -0.6 0.8 -0.6 0.8 -0.6 0.8 -0.75 0.8 -0.75 0.85 -0.75 0.85 -0.8 M0.85 -0.2 L0.85 -0.15 0.9 -0.15 0.85 0.0 0.8 -0.05 0.8 -0.15 0.85 -0.2 0.85 -0.2 M0.9 0.45 L0.95 0.5 0.95 0.55 0.9 0.6 0.85 0.55 0.85 0.5 Q0.85 0.45 0.85 0.45 0.85 0.45 0.9 0.45 M0.25 -1.3 Q0.2 -1.35 0.2 -1.4 L0.25 -1.45 0.25 -1.5 0.3 -1.5 0.4 -1.45 0.4 -1.3 0.3 -1.25 0.3 -1.25 0.25 -1.3 M0.45 -0.7 L0.4 -0.65 Q0.35 -0.6 0.35 -0.6 L0.3 -0.6 0.25 -0.65 0.25 -0.7 0.2 -0.75 0.2 -0.75 0.25 -0.8 0.3 -0.8 0.3 -0.85 0.35 -0.8 0.4 -0.8 0.45 -0.75 0.45 -0.7 M-0.65 -1.65 L-0.7 -1.65 -0.7 -1.65 -0.75 -1.8 -0.9 -1.85 -1.35 -1.7 -1.35 -1.7 -1.4 -1.7 -1.45 -1.7 -1.4 -1.8 -0.85 -1.85 -0.75 -1.85 -0.65 -1.8 -0.65 -1.65 M-0.85 -0.7 L-0.85 -0.75 -0.8 -0.75 -0.75 -0.75 -0.75 -0.7 -0.8 -0.6 -0.85 -0.55 -0.85 -0.55 -0.9 -0.55 -0.9 -0.6 -0.85 -0.6 -0.85 -0.7 M-0.7 -1.25 L-0.7 -1.25 -0.65 -1.35 -0.65 -1.45 -0.65 -1.35 -0.65 -1.3 -0.7 -1.25 M-0.65 -1.45 L-0.65 -1.45 M-1.3 -0.05 L-1.25 0.0 -1.25 0.05 -1.3 0.15 -1.35 0.15 -1.35 0.15 -1.4 0.15 -1.45 0.1 -1.45 0.05 -1.4 -0.05 -1.4 -0.05 -1.35 -0.05 -1.3 -0.05 M-1.35 0.9 L-1.35 0.9 -1.4 0.85 -1.4 0.8 -1.35 0.7 -1.35 0.7 -1.3 0.7 Q-1.25 0.7 -1.25 0.7 L-1.25 0.75 Q-1.2 0.75 -1.2 0.8 L-1.25 0.85 -1.25 0.9 -1.35 0.9 M-1.3 -1.55 L-1.25 -1.55 -1.2 -1.5 -1.15 -1.4 -1.2 -1.35 -1.3 -1.3 Q-1.3 -1.3 -1.35 -1.35 L-1.35 -1.5 -1.3 -1.55 M-1.25 -0.75 L-1.25 -0.7 -1.35 -0.65 -1.4 -0.7 -1.45 -0.75 -1.45 -0.8 -1.4 -0.85 -1.35 -0.85 -1.3 -0.85 -1.3 -0.85 -1.25 -0.85 -1.25 -0.75 M-0.9 -0.15 L-0.9 -0.15 -0.85 -0.1 -0.95 0.0 -0.95 -0.05 -0.95 -0.1 -0.9 -0.2 -0.9 -0.15 M-0.95 0.45 L-0.9 0.5 -0.9 0.55 -0.9 0.6 -0.95 0.6 -0.95 0.65 -1.0 0.6 -1.0 0.55 -1.0 0.45 -0.95 0.45 -0.95 0.45" fill="#4a433b" fill-rule="evenodd" stroke="none"/>
    <path d="M0.2 -0.45 L0.2 -0.45 0.25 -0.45 0.25 -0.45 0.3 -0.4 0.3 -0.35 0.3 -0.35 0.3 -0.25 0.3 -0.25 0.4 -0.25 0.45 -0.25 0.45 -0.25 0.5 -0.2 0.45 -0.2 0.45 -0.2 0.4 -0.15 Q0.35 -0.1 0.4 -0.05 L0.45 -0.05 0.45 0.0 0.45 -0.05 0.4 0.0 0.35 0.0 0.35 0.0 Q0.3 0.05 0.3 0.1 L0.35 0.15 0.4 0.2 0.45 0.2 0.5 0.15 0.55 0.1 0.6 -0.05 0.6 -0.1 0.65 -0.1 0.65 -0.05 0.65 0.05 0.6 0.1 0.65 0.2 0.6 0.2 0.55 0.25 0.55 0.35 0.55 0.4 0.6 0.45 0.6 0.5 0.55 0.55 0.5 0.55 0.45 0.55 Q0.4 0.5 0.45 0.5 L0.5 0.45 0.45 0.4 Q0.45 0.4 0.4 0.4 0.35 0.4 0.35 0.35 L0.4 0.35 0.4 0.3 0.45 0.3 0.4 0.3 0.35 0.3 0.3 0.3 0.3 0.2 0.25 0.15 0.25 -0.05 0.25 -0.15 0.25 -0.2 0.2 -0.3 0.2 -0.35 0.15 -0.4 0.2 -0.45 M0.9 -1.3 L0.9 -1.2 0.9 -1.1 0.9 -1.05 Q0.85 -1.0 0.85 -0.95 L0.85 -0.85 0.85 -0.8 0.85 -0.75 0.8 -0.75 0.8 -0.75 0.8 -0.75 0.75 -0.75 0.75 -0.8 0.7 -0.95 0.75 -1.05 0.7 -1.2 0.7 -1.25 0.75 -1.3 0.65 -1.4 Q0.65 -1.45 0.75 -1.5 L0.8 -1.55 0.85 -1.55 0.85 -1.6 0.9 -1.6 0.85 -1.55 0.9 -1.5 0.9 -1.4 0.9 -1.3 M0.35 -0.8 L0.35 -0.85 0.35 -0.9 Q0.4 -0.95 0.45 -0.95 L0.45 -0.95 0.45 -1.0 0.45 -1.0 Q0.4 -1.0 0.4 -1.05 L0.4 -1.05 0.35 -1.0 0.3 -1.0 0.25 -1.1 0.25 -1.15 0.25 -1.15 Q0.25 -1.2 0.3 -1.2 0.35 -1.2 0.35 -1.25 L0.4 -1.25 0.4 -1.3 0.45 -1.3 0.45 -1.3 0.5 -1.25 0.5 -1.25 0.55 -1.15 0.55 -1.1 0.55 -0.9 0.55 -0.8 0.6 -0.7 0.6 -0.7 0.55 -0.6 0.55 -0.6 0.5 -0.65 0.5 -0.7 0.45 -0.7 0.45 -0.7 0.45 -0.75 0.4 -0.8 0.35 -0.8 M-0.9 -1.4 L-0.85 -1.45 -0.8 -1.5 -0.75 -1.5 -0.7 -1.55 -0.7 -1.55 -0.65 -1.55 -0.65 -1.45 -0.65 -1.35 -0.7 -1.25 -0.7 -1.25 -0.7 -1.15 -0.7 -1.05 -0.75 -1.05 -0.75 -0.95 -0.8 -0.8 -0.8 -0.8 -0.8 -0.75 -0.85 -0.75 -0.85 -0.7 -0.9 -0.7 -0.9 -0.75 -0.9 -1.05 -0.9 -1.25 -0.85 -1.3 -0.9 -1.4 -0.9 -1.4 M-1.55 -0.55 L-1.5 -0.5 -1.45 -0.5 -1.45 -0.5 -1.4 -0.45 -1.4 -0.45 -1.45 -0.4 -1.45 -0.3 -1.45 -0.3 -1.4 -0.3 -1.35 -0.25 Q-1.35 -0.25 -1.3 -0.25 L-1.3 -0.25 -1.25 -0.25 -1.3 -0.2 -1.3 -0.2 Q-1.4 -0.15 -1.35 -0.1 L-1.3 -0.05 -1.3 -0.05 -1.35 -0.05 -1.4 -0.05 -1.4 -0.05 -1.45 0.05 -1.45 0.1 -1.4 0.15 -1.35 0.15 -1.35 0.15 -1.3 0.15 -1.25 0.05 -1.2 0.1 -1.2 0.05 -1.15 -0.05 -1.15 -0.1 -1.15 -0.05 -1.15 0.0 -1.15 0.15 -1.2 0.2 -1.25 0.25 -1.3 0.3 -1.3 0.35 -1.3 0.35 Q-1.25 0.35 -1.25 0.4 L-1.25 0.45 -1.2 0.45 -1.2 0.5 -1.3 0.55 -1.3 0.55 -1.35 0.55 -1.4 0.55 Q-1.45 0.5 -1.35 0.45 L-1.35 0.4 Q-1.4 0.35 -1.4 0.35 L-1.45 0.35 -1.45 0.3 -1.4 0.3 -1.4 0.25 -1.4 0.25 -1.45 0.25 -1.5 0.25 -1.5 0.25 -1.5 0.2 -1.5 0.15 -1.5 0.1 -1.5 -0.1 -1.5 -0.2 -1.5 -0.25 -1.55 -0.35 -1.55 -0.4 -1.55 -0.55 M-1.3 -0.85 L-1.3 -0.9 -1.3 -0.95 -1.2 -0.95 -1.2 -0.95 Q-1.15 -0.95 -1.15 -0.95 L-1.15 -1.0 Q-1.15 -1.05 -1.2 -1.05 L-1.2 -1.05 -1.25 -1.1 -1.3 -1.05 -1.3 -1.05 -1.35 -1.15 -1.35 -1.2 -1.35 -1.2 -1.3 -1.25 Q-1.25 -1.2 -1.2 -1.25 L-1.2 -1.3 Q-1.2 -1.3 -1.15 -1.3 L-1.15 -1.3 -1.1 -1.3 -1.1 -1.25 -1.05 -1.15 -1.05 -1.15 -1.1 -1.1 -1.05 -1.0 -1.1 -0.9 -1.1 -0.7 -1.1 -0.6 -1.15 -0.6 -1.15 -0.7 -1.2 -0.75 -1.2 -0.75 -1.25 -0.75 -1.25 -0.85 -1.3 -0.85" fill="#d7d4c5" fill-rule="evenodd" stroke="none"/>
    <path d="M0.9 -1.6 L0.9 -1.5 0.85 -1.55 0.9 -1.6 M0.9 -1.5 L0.9 -1.5 M-0.65 -1.45 L-0.65 -1.55 -0.65 -1.45 -0.65 -1.45" fill="#dadfc1" fill-rule="evenodd" stroke="none"/>
    <path d="M0.7 0.75 L0.75 0.75 0.8 0.75 0.85 0.7 0.9 0.7 0.95 0.7 0.95 0.75 0.9 0.75 0.85 0.8 0.75 0.9 0.7 0.9 Q0.65 0.9 0.65 0.9 L0.65 0.95 0.6 0.95 0.5 0.9 0.45 0.9 0.5 0.85 0.55 0.8 0.65 0.75 0.7 0.75 M0.75 1.25 Q0.75 1.25 0.75 1.2 L0.8 1.2 0.75 1.2 0.8 1.2 0.85 1.15 0.9 1.2 0.95 1.2 0.95 1.25 0.9 1.25 0.85 1.25 0.8 1.25 0.75 1.25 M1.0 1.4 L0.95 1.35 0.9 1.35 0.85 1.35 0.8 1.35 0.8 1.3 0.9 1.3 0.95 1.3 1.0 1.3 1.0 1.4 M0.75 1.3 L0.8 1.3 0.75 1.3 M-1.45 0.95 L-1.4 1.0 -1.4 1.0 -1.4 1.05 -1.35 1.05 -1.4 1.1 -1.4 1.05 -1.45 1.05 -1.45 1.0 -1.45 0.95 M-1.4 1.1 L-1.4 1.1" fill="#413531" fill-rule="evenodd" stroke="none"/>
    <path d="M0.95 0.75 L1.0 0.75 1.0 0.8 0.95 0.8 Q0.95 0.85 0.95 0.9 L0.95 0.95 0.9 1.0 0.85 0.95 0.75 0.9 0.85 0.8 0.9 0.75 0.95 0.75 M0.45 0.9 L0.5 0.9 0.6 0.95 0.65 0.95 0.6 0.95 0.6 1.0 0.55 1.0 0.6 1.0 0.55 1.0 0.55 1.05 0.5 1.05 0.45 1.05 0.45 1.0 0.45 0.9 M-1.4 1.1 L-1.4 1.1 -1.35 1.1 -1.35 1.1 -1.3 1.1 -1.3 1.1 -1.25 1.1 -1.2 1.1 -1.15 1.1 -1.1 1.1 -1.1 1.1 -1.15 1.1 -1.15 1.15 -1.1 1.15 -1.1 1.2 -1.1 1.2 -1.15 1.2 -1.15 1.15 -1.2 1.15 -1.2 1.15 -1.25 1.1 -1.35 1.15 -1.4 1.15 -1.4 1.1 -1.4 1.1 -1.4 1.1" fill="#8e7a52" fill-rule="evenodd" stroke="none"/>
    <path d="M1.0 0.75 L1.15 0.85 1.25 0.95 1.3 1.0 1.25 0.95 1.15 0.9 1.1 0.85 1.05 0.85 1.05 0.8 1.0 0.8 1.0 0.75 M1.4 1.05 L1.45 1.1 1.55 1.15 1.6 1.15 1.65 1.2 1.7 1.2 1.75 1.2 1.8 1.2 1.85 1.25 1.9 1.3 1.95 1.35 1.95 1.4 1.85 1.45 1.8 1.45 1.75 1.45 1.65 1.5 1.55 1.45 1.5 1.4 1.5 1.35 1.5 1.25 1.45 1.2 1.35 1.15 1.3 1.1 1.1 1.0 1.05 1.0 1.1 1.0 1.15 1.0 1.2 1.0 1.25 1.05 1.3 1.05 1.35 1.1 1.45 1.1 1.4 1.05 M-1.45 1.4 L-1.45 1.4 -1.4 1.4 -1.4 1.4 -1.35 1.45 -1.35 1.5 -1.35 1.5 -1.3 1.55 -1.3 1.55 -1.3 1.55 -1.25 1.55 -1.2 1.55 -1.2 1.5 -1.2 1.45 -1.15 1.45 -1.15 1.4 -1.15 1.45 -1.1 1.5 -1.1 1.55 -1.1 1.65 -1.1 1.7 -1.1 1.8 -1.15 1.8 -1.15 1.85 -1.2 1.85 -1.25 1.85 -1.25 1.85 -1.3 1.85 -1.3 1.85 -1.4 1.85 -1.4 1.85 -1.45 1.8 -1.45 1.8 -1.5 1.8 -1.5 1.75 -1.55 1.75 -1.55 1.7 -1.55 1.65 -1.55 1.6 -1.5 1.55 -1.5 1.55 -1.5 1.45 -1.45 1.4" fill="#5c4b43" fill-rule="evenodd" stroke="none"/>
    <path d="M1.3 1.0 L1.35 1.0 1.4 1.05 1.45 1.1 1.35 1.1 1.3 1.05 1.25 1.05 1.2 1.0 1.15 1.0 1.1 1.0 1.05 1.0 1.0 0.95 0.95 0.95 0.95 0.9 Q0.95 0.85 0.95 0.8 L1.0 0.8 1.05 0.8 1.05 0.85 1.1 0.85 1.15 0.9 1.25 0.95 1.3 1.0 M-1.4 1.15 L-1.4 1.15 -1.35 1.15 -1.25 1.1 -1.2 1.15 -1.2 1.15 -1.15 1.15 -1.15 1.2 -1.15 1.35 -1.15 1.4 -1.15 1.45 -1.2 1.45 -1.2 1.5 -1.2 1.55 -1.25 1.55 -1.3 1.55 -1.3 1.55 -1.3 1.55 -1.35 1.5 -1.35 1.5 -1.35 1.45 -1.4 1.4 -1.4 1.4 -1.45 1.4 -1.45 1.4 -1.45 1.2 -1.4 1.2 -1.4 1.15" fill="#887a70" fill-rule="evenodd" stroke="none"/>
    <path d="M0.4 1.3 L0.4 1.2 0.4 1.15 0.45 1.15 0.5 1.15 0.55 1.2 0.6 1.25 0.65 1.25 0.7 1.25 0.75 1.25 0.75 1.3 0.8 1.3 0.65 1.35 0.5 1.35 0.45 1.3 0.4 1.3 M1.5 1.4 L1.55 1.45 1.45 1.45 1.35 1.45 1.3 1.45 1.2 1.45 1.1 1.4 1.05 1.35 1.0 1.35 1.0 1.3 0.95 1.3 0.95 1.25 1.0 1.25 1.05 1.3 1.1 1.35 1.15 1.4 1.25 1.4 1.4 1.45 1.4 1.4 1.45 1.4 1.5 1.4 M1.05 1.0 L1.0 1.0 0.9 1.0 0.95 0.95 1.0 0.95 1.05 1.0 M-0.95 1.8 L-1.0 1.85 -0.95 1.8 M-1.7 1.65 L-1.65 1.5 -1.65 1.55 -1.6 1.6 -1.6 1.6 -1.6 1.65 -1.6 1.65 -1.55 1.65 -1.55 1.7 -1.55 1.75 -1.5 1.75 -1.5 1.8 -1.45 1.8 -1.45 1.8 -1.4 1.85 -1.4 1.85 -1.3 1.85 -1.3 1.85 -1.25 1.85 -1.25 1.85 -1.2 1.85 -1.15 1.85 -1.15 1.8 -1.1 1.8 -1.05 1.8 -1.05 1.85 -1.0 1.85 -1.0 1.9 -1.05 1.85 -1.05 1.9 -1.1 1.9 -1.1 1.85 -1.15 1.85 -1.15 1.9 -1.2 1.9 -1.25 1.9 -1.25 1.9 -1.3 1.9 -1.3 1.9 -1.35 1.9 Q-1.4 1.85 -1.4 1.85 L-1.4 1.85 -1.45 1.85 -1.45 1.85 -1.5 1.85 -1.5 1.8 Q-1.5 1.8 -1.55 1.8 L-1.55 1.8 -1.6 1.75 -1.6 1.75 -1.65 1.7 -1.65 1.7 -1.65 1.65 -1.7 1.65 -1.7 1.65" fill="#231b17" fill-rule="evenodd" stroke="none"/>
    <path d="M0.45 0.95 L0.45 0.9 0.45 1.0 0.45 1.05 0.5 1.05 0.55 1.05 0.55 1.0 0.6 1.0 0.55 1.0 0.6 1.0 0.6 1.05 0.6 1.1 0.6 1.15 0.65 1.15 0.75 1.2 0.8 1.2 0.75 1.2 Q0.75 1.25 0.75 1.25 L0.7 1.2 0.65 1.2 0.6 1.2 0.6 1.15 0.55 1.15 0.5 1.15 0.45 1.15 0.4 1.15 0.4 1.05 0.4 0.95 0.45 0.95 M0.9 1.0 L0.95 1.05 0.95 1.15 0.95 1.25 0.95 1.2 0.9 1.2 0.85 1.15 0.85 1.1 0.9 1.05 0.9 1.0 M-1.25 0.9 L-1.2 0.9 -1.05 1.0 -1.05 1.05 -1.05 1.1 -1.05 1.1 -1.0 1.15 -1.0 1.15 -1.0 1.15 -1.0 1.4 -1.0 1.4 -1.05 1.35 -1.05 1.35 -1.05 1.25 -1.1 1.25 -1.1 1.2 -1.1 1.2 -1.1 1.15 -1.15 1.15 -1.15 1.1 -1.1 1.1 -1.1 1.1 -1.15 1.1 -1.2 1.1 -1.25 1.1 -1.3 1.1 -1.3 1.1 -1.35 1.1 -1.35 1.1 -1.4 1.1 -1.4 1.1 -1.35 1.05 -1.4 1.05 -1.4 1.0 -1.4 1.0 -1.45 0.95 -1.4 0.95 -1.35 0.9 -1.25 0.9 -1.25 0.9 M-1.5 1.1 L-1.5 1.05 -1.45 1.0 -1.45 1.05 -1.4 1.05 -1.4 1.1 -1.4 1.1 -1.4 1.15 -1.5 1.2 -1.5 1.25 -1.55 1.25 -1.55 1.2 -1.5 1.1 M-1.4 1.15 L-1.4 1.15" fill="#624d40" fill-rule="evenodd" stroke="none"/>
    <path d="M0.6 1.0 L0.6 0.95 0.65 0.95 0.65 0.9 Q0.65 0.9 0.7 0.9 L0.75 0.9 0.85 0.95 0.9 1.0 0.9 1.05 0.85 1.1 0.85 1.15 0.8 1.2 0.75 1.2 0.65 1.15 0.6 1.15 0.6 1.1 0.6 1.05 0.6 1.0 M0.8 0.95 L0.75 0.95 0.65 0.95 0.65 1.05 0.65 1.1 0.7 1.15 0.75 1.15 0.8 1.1 0.85 1.05 0.85 1.0 0.8 0.95 M-1.0 1.15 L-1.0 1.15 Q-0.95 1.15 -0.95 1.2 L-0.95 1.3 -0.95 1.4 -0.95 1.4 -1.0 1.45 -1.0 1.4 -1.0 1.15 M-1.6 1.35 L-1.6 1.2 -1.55 1.2 -1.55 1.15 -1.55 1.1 -1.55 1.05 -1.5 1.1 -1.55 1.2 -1.55 1.25 -1.6 1.35" fill="#413e3b" fill-rule="evenodd" stroke="none"/>
    <path d="M0.65 1.05 L0.65 0.95 0.75 0.95 0.8 0.95 0.8 1.05 0.75 1.05 0.75 1.1 0.7 1.1 0.7 1.0 0.65 1.0 0.65 1.05" fill="#f7efe7" fill-rule="evenodd" stroke="none"/>
    <path d="M0.8 0.95 L0.85 1.0 0.85 1.05 0.8 1.1 0.75 1.15 0.7 1.15 0.65 1.1 0.65 1.05 0.65 1.0 0.7 1.0 0.7 1.1 0.75 1.1 0.75 1.05 0.8 1.05 0.8 0.95" fill="#c4bdb2" fill-rule="evenodd" stroke="none"/>
    <path d="M0.6 1.1 L0.6 1.05 0.6 1.1" fill="#c9ac74" fill-rule="evenodd" stroke="none"/>
    <path d="M1.95 1.4 L1.95 1.5 1.85 1.55 1.7 1.6 1.6 1.6 1.55 1.6 1.5 1.6 1.4 1.6 1.35 1.6 1.3 1.55 1.25 1.55 1.2 1.55 1.15 1.55 1.15 1.5 1.1 1.5 1.05 1.45 1.0 1.45 1.0 1.4 1.0 1.3 1.0 1.35 1.05 1.35 1.1 1.4 1.2 1.45 1.3 1.45 1.35 1.45 1.45 1.45 1.55 1.45 1.65 1.5 1.75 1.45 1.8 1.45 1.85 1.45 1.95 1.4 M0.85 1.45 L0.8 1.45 0.75 1.45 0.7 1.45 0.65 1.45 0.55 1.45 0.5 1.45 0.45 1.4 0.45 1.35 0.4 1.35 0.4 1.3 0.45 1.3 0.5 1.35 0.65 1.35 0.8 1.3 0.8 1.35 0.85 1.4 0.85 1.45 M1.05 1.0 L1.1 1.0 1.3 1.1 1.35 1.15 1.45 1.2 1.5 1.25 1.5 1.35 1.5 1.4 1.45 1.4 1.4 1.4 1.4 1.45 1.25 1.4 1.15 1.4 1.1 1.35 1.05 1.3 1.0 1.25 0.95 1.25 0.95 1.15 0.95 1.05 0.9 1.0 1.0 1.0 1.05 1.0 M0.5 1.15 L0.55 1.15 0.6 1.15 0.6 1.2 0.65 1.2 0.7 1.2 0.75 1.25 0.7 1.25 0.65 1.25 0.6 1.25 0.55 1.2 0.5 1.15 M-1.0 1.4 L-1.0 1.45 -1.0 1.45 -0.95 1.55 -0.95 1.8 -1.0 1.85 -1.05 1.85 -1.05 1.8 -1.1 1.8 -1.15 1.8 -1.1 1.8 -1.1 1.7 -1.1 1.65 -1.1 1.55 -1.1 1.5 -1.15 1.45 -1.15 1.4 -1.15 1.35 -1.15 1.2 -1.15 1.15 -1.15 1.2 -1.1 1.2 -1.1 1.2 -1.1 1.2 -1.1 1.25 -1.05 1.25 -1.05 1.35 -1.05 1.35 -1.0 1.4 -1.0 1.4 M-1.0 1.85 L-1.0 1.95 Q-1.05 2.0 -1.15 2.0 L-1.55 1.9 Q-1.7 1.85 -1.7 1.75 L-1.7 1.65 -1.7 1.65 -1.65 1.65 -1.65 1.7 -1.65 1.7 -1.6 1.75 -1.6 1.75 -1.55 1.8 -1.55 1.8 Q-1.5 1.8 -1.5 1.8 L-1.5 1.85 -1.45 1.85 -1.45 1.85 -1.4 1.85 -1.4 1.85 Q-1.4 1.85 -1.35 1.9 L-1.3 1.9 -1.3 1.9 -1.25 1.9 -1.25 1.9 -1.2 1.9 -1.15 1.9 -1.15 1.85 -1.1 1.85 -1.1 1.9 -1.05 1.9 -1.05 1.85 -1.0 1.9 -1.0 1.85 M-1.65 1.5 L-1.6 1.35 -1.55 1.25 -1.5 1.25 -1.5 1.2 -1.4 1.15 -1.4 1.2 -1.45 1.2 -1.45 1.4 -1.5 1.45 -1.5 1.55 -1.5 1.55 -1.55 1.6 -1.55 1.65 -1.55 1.7 -1.55 1.65 -1.6 1.65 -1.6 1.65 -1.6 1.6 -1.6 1.6 -1.65 1.55 -1.65 1.5" fill="#392f2e" fill-rule="evenodd" stroke="none"/>
    <path d="M0.95 1.25 L0.95 1.3 1.0 1.3 0.95 1.3 0.9 1.3 0.8 1.3 0.75 1.3 0.75 1.25 0.8 1.25 0.85 1.25 0.9 1.25 0.95 1.25" fill="#332926" fill-rule="evenodd" stroke="none"/>
    <path d="M1.0 1.45 L0.95 1.4 0.9 1.4 0.85 1.4 0.85 1.45 0.85 1.4 0.8 1.35 0.85 1.35 0.9 1.35 0.95 1.35 1.0 1.4 1.0 1.45" fill="#584842" fill-rule="evenodd" stroke="none"/>
    <path d="M0.8 -1.7 L0.75 -1.7 0.7 -1.65 0.6 -1.75 0.4 -1.75 0.4 -1.75 0.25 -1.8 0.3 -1.8 0.65 -1.85 0.75 -1.8 0.8 -1.7 M-0.7 -1.65 L-0.75 -1.65 -0.85 -1.75 Q-0.9 -1.85 -1.0 -1.85 L-1.15 -1.75 -1.25 -1.7 -1.35 -1.7 -0.9 -1.85 -0.75 -1.8 -0.7 -1.65 -0.7 -1.65" fill="#332e29" fill-rule="evenodd" stroke="none"/>
    <path d="M0.7 -1.65 L0.6 -1.65 0.5 -1.65 0.5 -1.65 0.45 -1.65 0.45 -1.65 0.2 -1.65 0.15 -1.65 0.1 -1.65 Q0.15 -1.75 0.25 -1.8 L0.4 -1.75 0.4 -1.75 0.6 -1.75 0.7 -1.65 M-0.75 -1.65 L-0.75 -1.65 -0.9 -1.65 -1.0 -1.65 -1.1 -1.65 -1.1 -1.65 -1.25 -1.7 -1.15 -1.75 -1.0 -1.85 Q-0.9 -1.85 -0.85 -1.75 L-0.75 -1.65" fill="#231f1c" fill-rule="evenodd" stroke="none"/>
    <path d="M0.1 -1.65 L0.1 -1.6 0.1 -1.55 0.1 -1.45 0.1 -1.45 0.15 -1.4 0.1 -1.25 0.1 -1.15 Q0.1 -1.05 0.15 -0.95 L0.15 -0.85 0.15 -0.55 0.15 -0.55 0.2 -0.5 0.2 -0.45 0.15 -0.4 0.2 -0.35 0.2 -0.3 0.25 -0.2 0.25 -0.15 0.25 -0.05 0.25 0.15 0.3 0.2 0.3 0.3 0.3 0.4 0.35 0.45 0.35 0.55 0.35 0.65 0.35 0.7 Q0.35 0.8 0.4 0.8 L0.4 0.9 0.45 0.95 0.4 0.95 0.4 1.05 0.4 1.15 0.4 1.2 0.4 1.3 0.4 1.35 0.45 1.35 0.45 1.4 0.5 1.45 0.55 1.45 0.65 1.45 0.7 1.45 0.75 1.45 0.8 1.45 0.85 1.45 0.85 1.4 0.9 1.4 0.95 1.4 1.0 1.45 1.05 1.45 1.1 1.5 1.15 1.5 1.15 1.55 1.2 1.55 1.25 1.55 1.3 1.55 1.35 1.6 1.4 1.6 1.5 1.6 1.55 1.6 1.6 1.6 1.7 1.6 1.85 1.55 1.95 1.5 1.95 1.4 1.95 1.35 1.9 1.3 1.85 1.25 1.8 1.2 1.75 1.2 1.7 1.2 1.65 1.2 1.6 1.15 1.55 1.15 1.45 1.1 1.4 1.05 1.35 1.0 1.3 1.0 1.25 0.95 1.15 0.85 1.0 0.75 0.95 0.75 0.95 0.7 0.9 0.7 0.9 0.6 0.95 0.55 0.95 0.5 0.9 0.45 0.9 0.4 0.85 0.35 0.85 0.2 0.85 0.05 0.85 0.0 0.9 -0.15 0.85 -0.15 0.85 -0.2 0.85 -0.3 0.85 -0.35 0.85 -0.45 0.85 -0.6 0.9 -0.65 0.9 -0.8 0.85 -0.8 0.85 -0.85 0.85 -0.95 Q0.85 -1.0 0.9 -1.05 L0.9 -1.1 0.9 -1.2 0.9 -1.3 0.95 -1.35 0.95 -1.4 0.9 -1.45 0.9 -1.5 0.9 -1.6 0.9 -1.6 0.85 -1.65 0.85 -1.7 0.85 -1.8 0.9 -1.8 Q0.8 -1.85 0.65 -1.85 L0.1 -1.8 0.1 -1.65 M-1.05 1.1 L-1.05 1.05 -1.0 1.0 -1.0 0.95 -1.0 0.85 -1.0 0.8 -0.95 0.8 -0.95 0.75 -0.95 0.7 -1.0 0.7 -0.95 0.7 -0.95 0.6 -0.9 0.6 -0.9 0.55 -0.9 0.5 -0.95 0.45 -0.95 0.45 -0.95 0.3 Q-0.95 0.25 -0.95 0.2 L-0.95 0.1 -0.95 0.0 -0.85 -0.1 -0.9 -0.15 -0.9 -0.15 -0.9 -0.15 Q-0.85 -0.2 -0.85 -0.25 L-0.85 -0.3 -0.9 -0.3 -0.9 -0.35 -0.85 -0.4 -0.85 -0.55 -0.8 -0.6 -0.75 -0.7 -0.75 -0.75 -0.8 -0.75 -0.8 -0.8 -0.8 -0.8 -0.75 -0.95 -0.75 -1.05 -0.7 -1.05 -0.7 -1.15 -0.7 -1.25 -0.65 -1.3 -0.65 -1.35 -0.65 -1.45 -0.65 -1.55 -0.65 -1.65 -0.65 -1.65 -0.65 -1.8 -0.75 -1.85 -0.85 -1.85 -1.4 -1.8 -1.45 -1.7 -1.45 -1.65 -1.45 -1.6 -1.45 -1.55 -1.45 -1.45 -1.45 -1.35 -1.5 -1.25 -1.5 -1.05 -1.5 -0.9 -1.5 -0.75 -1.55 -0.65 -1.55 -0.55 -1.55 -0.55 -1.55 -0.4 -1.55 -0.35 -1.5 -0.25 -1.5 -0.2 -1.5 -0.1 -1.5 0.1 -1.5 0.15 -1.5 0.2 -1.5 0.25 -1.5 0.4 -1.5 0.55 -1.5 0.6 -1.55 0.65 -1.5 0.75 -1.5 0.85 -1.5 0.9 -1.5 0.95 -1.5 0.95 -1.5 1.05 -1.5 1.1 -1.55 1.05 -1.55 1.1 -1.55 1.15 -1.55 1.2 -1.6 1.2 -1.6 1.35 -1.65 1.5 -1.7 1.65 -1.7 1.75 Q-1.7 1.85 -1.55 1.9 L-1.15 2.0 Q-1.05 2.0 -1.0 1.95 L-1.0 1.85 -0.95 1.8 -0.95 1.55 -1.0 1.45 -0.95 1.4 -0.95 1.4 -0.95 1.3 -0.95 1.2 Q-0.95 1.15 -1.0 1.15 L-1.0 1.15 -1.0 1.15 -1.0 1.15 -1.05 1.1 -1.05 1.1 M-1.0 1.45 L-1.0 1.45 Z" fill="none" stroke="#000000" stroke-linecap="round" stroke-linejoin="round" stroke-opacity="0.4509804" stroke-width="1.0"/>
  </g>
</svg>
