<?xml version="1.0" encoding="UTF-8" standalone="no"?>
<svg xmlns:xlink="http://www.w3.org/1999/xlink" height="5.2px" width="5.2px" xmlns="http://www.w3.org/2000/svg">
  <g transform="matrix(1.0, 0.0, 0.0, 1.0, 2.6, 2.6)">
    <path d="M1.75 -2.6 L1.7 -2.5 1.65 -2.5 1.65 -2.5 1.6 -2.45 1.5 -2.45 1.4 -2.45 1.0 -2.45 1.0 -2.45 0.95 -2.4 0.65 -2.4 0.3 -2.4 0.25 -2.4 0.05 -2.4 0.0 -2.35 -0.2 -2.35 -0.25 -2.35 -0.35 -2.35 -0.75 -2.35 -0.9 -2.35 -1.3 -2.35 -1.65 -2.4 -1.7 -2.4 -1.9 -2.4 -1.9 -2.4 -2.05 -2.4 -2.05 -2.45 -2.1 -2.45 -2.2 -2.5 -2.2 -2.5 -2.3 -2.55 -2.3 -2.55 -2.15 -2.6 1.75 -2.6 M-2.05 2.3 L-2.05 2.2 1.55 2.2 1.55 2.3 1.55 2.35 1.55 2.45 1.4 2.45 1.2 2.45 1.1 2.5 0.95 2.5 0.85 2.5 0.45 2.5 0.05 2.5 -0.3 2.5 -0.65 2.5 -0.85 2.5 -1.25 2.5 -1.65 2.5 -2.0 2.5 -2.05 2.5 -2.05 2.4 -2.05 2.3 -2.0 2.3 -2.05 2.3" fill="#f5efe8" fill-rule="evenodd" stroke="none"/>
    <path d="M-2.3 -2.55 L-2.3 -2.55 -2.2 -2.5 -2.2 -2.5 -2.1 -2.45 -2.05 -2.45 -2.05 -2.4 -1.9 -2.4 -1.9 -2.4 -1.7 -2.4 -1.65 -2.4 -1.3 -2.35 -0.9 -2.35 -0.75 -2.35 -0.35 -2.35 -0.25 -2.35 -0.2 -2.35 0.0 -2.35 0.05 -2.4 0.25 -2.4 0.3 -2.4 0.65 -2.4 0.95 -2.4 1.0 -2.45 1.0 -2.45 1.4 -2.45 1.5 -2.45 1.6 -2.45 1.65 -2.5 1.65 -2.5 1.7 -2.5 1.75 -2.6 2.15 -2.6 Q2.4 -2.6 2.5 -2.45 L2.55 -2.3 -2.6 -2.3 -2.5 -2.45 -2.3 -2.55 M2.55 2.3 Q2.5 2.6 2.15 2.6 L-2.15 2.6 Q-2.5 2.6 -2.6 2.3 L-2.15 2.3 -2.05 2.3 -2.0 2.3 -2.05 2.3 -2.05 2.4 -2.05 2.5 -2.0 2.5 -1.65 2.5 -1.25 2.5 -0.85 2.5 -0.65 2.5 -0.3 2.5 0.05 2.5 0.45 2.5 0.85 2.5 0.95 2.5 1.1 2.5 1.2 2.45 1.4 2.45 1.55 2.45 1.55 2.35 1.55 2.3 2.15 2.3 2.55 2.3" fill="#cdc8c2" fill-rule="evenodd" stroke="none"/>
    <path d="M-2.6 -2.3 L2.55 -2.3 2.6 -2.15 2.6 -0.45 2.55 -0.4 2.55 -0.35 2.55 -0.3 2.55 -0.2 2.5 -0.15 2.5 -0.1 2.45 -0.05 2.45 0.05 2.4 0.1 2.4 0.2 2.3 0.3 2.3 -0.5 2.3 -1.05 2.35 -1.45 2.35 -2.0 2.25 -2.1 2.25 -2.1 2.2 -2.05 2.2 -2.05 2.2 -2.15 2.15 -2.2 -2.15 -2.2 -2.15 -2.15 -2.2 -2.15 -2.2 2.15 -2.15 2.2 -2.05 2.2 -2.05 2.3 -2.15 2.3 Q-2.3 2.25 -2.3 2.15 L-2.3 0.3 -2.3 0.3 -2.4 0.2 -2.45 0.15 -2.5 0.1 -2.5 0.05 -2.55 -0.05 -2.6 -0.1 -2.6 -2.3 M1.55 2.2 L2.1 2.2 2.15 2.25 2.2 2.25 2.15 2.3 1.55 2.3 1.55 2.2" fill="#d4d4d4" fill-opacity="0.5686275" fill-rule="evenodd" stroke="none"/>
    <path d="M2.2 -2.05 L2.2 -2.05 2.25 -2.1 2.25 -2.1 2.35 -2.0 2.35 -1.45 2.3 -1.05 2.3 -0.5 2.3 0.3 2.4 0.2 2.4 0.1 2.45 0.05 2.45 -0.05 2.5 -0.1 2.5 -0.15 2.55 -0.2 2.55 -0.3 2.55 -0.35 2.55 -0.4 2.6 -0.45 2.6 2.15 2.55 2.3 2.15 2.3 2.2 2.25 2.15 2.25 2.1 2.2 2.15 2.2 2.2 2.15 2.2 -2.05 M-2.6 2.3 L-2.6 -0.1 -2.55 -0.05 -2.5 0.05 -2.5 0.1 -2.45 0.15 -2.4 0.2 -2.3 0.3 -2.3 0.3 -2.3 2.15 Q-2.3 2.25 -2.15 2.3 L-2.6 2.3" fill="#989898" fill-opacity="0.5686275" fill-rule="evenodd" stroke="none"/>
    <path d="M-2.05 2.2 L-2.15 2.2 -2.2 2.15 -2.2 -2.15 -2.15 -2.15 -2.15 -2.2 2.15 -2.2 2.2 -2.15 2.2 -2.05 2.2 2.15 2.15 2.2 2.1 2.2 1.55 2.2 -2.05 2.2" fill="url(#gradient0)" fill-rule="evenodd" stroke="none"/>
    <path d="M1.75 -2.6 L-2.15 -2.6 -2.3 -2.55 -2.5 -2.45 M2.5 -2.45 Q2.4 -2.6 2.15 -2.6 L1.75 -2.6" fill="none" stroke="#000000" stroke-linecap="round" stroke-linejoin="round" stroke-opacity="0.4" stroke-width="1.0"/>
  </g>
  <defs>
    <radialGradient cx="0" cy="0" gradientTransform="matrix(0.0038, 0.0, 0.0, 0.0038, 0.0, 0.0)" gradientUnits="userSpaceOnUse" id="gradient0" r="819.2" spreadMethod="pad">
      <stop offset="0.0" stop-color="#a1481d" stop-opacity="0.64705884"/>
      <stop offset="1.0" stop-color="#133836"/>
    </radialGradient>
  </defs>
</svg>
