<?xml version="1.0" encoding="UTF-8" standalone="no"?>
<svg xmlns:xlink="http://www.w3.org/1999/xlink" height="4.05px" width="3.35px" xmlns="http://www.w3.org/2000/svg">
  <g transform="matrix(1.0, 0.0, 0.0, 1.0, 1.75, 2.1)">
    <path d="M1.45 -1.4 L1.4 -1.45 1.45 -1.5 1.4 -1.6 1.45 -1.7 1.4 -1.75 1.35 -1.85 Q1.4 -1.85 1.4 -1.8 L1.45 -1.8 1.5 -1.85 1.5 -1.85 1.6 -1.85 1.5 -1.7 Q1.45 -1.6 1.45 -1.55 L1.45 -1.4" fill="#977e58" fill-rule="evenodd" stroke="none"/>
    <path d="M1.35 -1.85 L1.25 -1.85 1.35 -1.85 1.5 -1.85 1.45 -1.8 1.4 -1.8 Q1.4 -1.85 1.35 -1.85" fill="#6a563a" fill-rule="evenodd" stroke="none"/>
    <path d="M1.35 -1.85 L1.4 -1.75 1.45 -1.7 1.4 -1.6 1.45 -1.5 1.4 -1.45 1.45 -1.4 1.45 -1.4 1.4 -1.4 1.35 -1.5 1.2 -1.5 1.2 -1.55 1.15 -1.55 1.15 -1.5 1.1 -1.5 1.1 -1.55 1.05 -1.5 1.1 -1.55 1.05 -1.55 1.05 -1.55 1.05 -1.7 1.1 -1.75 1.15 -1.75 1.2 -1.7 1.15 -1.75 Q1.15 -1.8 1.15 -1.85 L1.25 -1.85 1.35 -1.85" fill="#a7976f" fill-rule="evenodd" stroke="none"/>
    <path d="M1.15 -1.85 Q1.15 -1.8 1.15 -1.75 L1.2 -1.7 1.15 -1.75 1.1 -1.75 1.05 -1.7 1.05 -1.55 1.05 -1.55 1.05 -1.55 1.0 -1.55 1.0 -1.6 0.95 -1.6 0.9 -1.6 0.9 -1.55 0.9 -1.55 0.85 -1.55 0.85 -1.7 0.9 -1.75 0.85 -1.8 0.85 -1.8 0.9 -1.8 1.15 -1.85" fill="#9d8e68" fill-rule="evenodd" stroke="none"/>
    <path d="M1.05 -1.55 L1.1 -1.55 1.05 -1.5 1.1 -1.55 1.1 -1.5 1.15 -1.5 1.15 -1.55 1.2 -1.55 1.2 -1.5 1.2 -1.5 1.2 -1.5 1.1 -1.5 1.05 -1.4 1.05 -1.5 1.0 -1.5 1.0 -1.5 0.95 -1.5 1.0 -1.55 1.05 -1.55 1.05 -1.55" fill="#6b6551" fill-rule="evenodd" stroke="none"/>
    <path d="M1.2 -1.5 L1.35 -1.5 1.4 -1.4 Q1.4 -1.25 1.3 -1.15 L1.25 -1.2 1.25 -1.25 1.2 -1.3 1.15 -1.3 1.15 -1.2 1.1 -1.25 1.05 -1.25 Q1.05 -1.2 1.0 -1.2 L0.95 -1.25 0.95 -1.25 Q0.9 -1.25 0.95 -1.2 L0.95 -1.15 0.9 -1.2 0.9 -1.25 0.9 -1.3 1.0 -1.3 1.0 -1.35 0.95 -1.4 0.9 -1.5 0.9 -1.55 0.9 -1.6 0.95 -1.6 1.0 -1.6 1.0 -1.55 0.95 -1.5 1.0 -1.5 1.0 -1.5 1.05 -1.5 1.05 -1.4 1.1 -1.5 1.2 -1.5 1.2 -1.5 1.2 -1.5 M0.9 -1.25 L0.9 -1.25" fill="#aea481" fill-rule="evenodd" stroke="none"/>
    <path d="M0.9 -1.25 L0.9 -1.2 0.95 -1.15 0.95 -1.2 Q0.9 -1.25 0.95 -1.25 L0.95 -1.25 1.0 -1.2 Q1.05 -1.2 1.05 -1.25 L1.1 -1.25 1.15 -1.2 1.15 -1.3 1.2 -1.3 1.25 -1.25 1.25 -1.2 1.3 -1.15 1.2 -1.0 1.15 -0.85 1.1 -0.9 1.1 -0.9 1.05 -0.85 1.0 -0.8 Q0.95 -0.8 0.95 -0.8 0.95 -0.85 1.0 -0.85 L0.95 -0.9 0.85 -0.85 0.8 -0.85 0.75 -0.8 0.75 -0.8 0.7 -0.85 0.7 -0.85 0.65 -0.8 0.6 -0.8 0.55 -0.75 0.5 -0.8 0.45 -0.8 0.45 -0.8 0.45 -0.85 0.4 -0.8 0.35 -0.85 0.35 -0.8 0.3 -0.85 0.3 -0.85 0.25 -0.95 0.15 -0.95 0.25 -1.0 0.3 -1.0 0.35 -1.05 0.4 -1.0 0.4 -1.05 0.4 -1.1 0.35 -1.15 Q0.3 -1.25 0.35 -1.25 L0.4 -1.25 0.4 -1.3 0.45 -1.25 0.5 -1.3 0.5 -1.25 0.55 -1.3 0.55 -1.25 0.6 -1.3 0.6 -1.25 0.6 -1.2 Q0.55 -1.25 0.55 -1.2 L0.6 -1.2 0.65 -1.2 0.7 -1.2 0.8 -1.25 0.85 -1.25 0.9 -1.25 M0.6 -1.25 L0.6 -1.25 M0.4 -1.0 L0.45 -1.0 0.45 -1.05 0.5 -1.0 0.55 -1.05 0.45 -1.05 Q0.4 -1.05 0.4 -1.1 L0.4 -1.0 M0.9 -0.95 L0.85 -0.95 0.9 -0.95 0.95 -1.0 1.0 -1.1 0.95 -1.05 Q0.9 -1.0 0.9 -1.05 L0.85 -1.0 Q0.85 -0.95 0.9 -1.0 L0.9 -0.95 M0.65 -1.0 L0.7 -1.0 Q0.75 -1.0 0.75 -0.95 L0.75 -0.95 0.8 -1.0 0.8 -1.0 0.8 -1.05 0.75 -1.0 0.75 -1.05 0.65 -1.0 0.7 -1.05 0.65 -1.05 0.65 -1.0" fill="#b5ae91" fill-rule="evenodd" stroke="none"/>
    <path d="M0.9 -1.25 L0.85 -1.25 0.8 -1.25 0.7 -1.2 0.65 -1.2 0.6 -1.2 0.55 -1.2 Q0.55 -1.25 0.6 -1.2 L0.6 -1.25 0.6 -1.3 0.65 -1.35 0.7 -1.4 0.65 -1.4 0.6 -1.35 0.6 -1.35 0.55 -1.3 0.45 -1.3 0.4 -1.3 0.45 -1.35 0.4 -1.35 0.4 -1.3 0.4 -1.4 0.35 -1.35 0.3 -1.3 0.35 -1.35 0.35 -1.4 0.3 -1.4 0.3 -1.25 0.3 -1.2 Q0.3 -1.15 0.25 -1.2 L0.25 -1.25 0.2 -1.2 0.1 -1.2 0.05 -1.25 0.1 -1.35 0.1 -1.35 0.05 -1.35 0.0 -1.4 0.0 -1.35 -0.05 -1.35 -0.1 -1.35 -0.1 -1.5 -0.05 -1.5 Q0.0 -1.5 0.0 -1.45 0.05 -1.45 0.05 -1.45 L0.05 -1.5 0.05 -1.55 0.1 -1.5 0.2 -1.5 0.2 -1.55 0.2 -1.6 0.2 -1.7 Q0.15 -1.75 0.15 -1.75 L0.15 -1.85 0.2 -1.85 0.25 -1.85 0.3 -1.85 0.35 -1.75 0.3 -1.65 0.25 -1.55 0.2 -1.45 0.25 -1.5 0.3 -1.55 Q0.3 -1.5 0.35 -1.5 L0.4 -1.5 0.4 -1.5 0.45 -1.5 0.5 -1.5 0.55 -1.45 0.6 -1.45 0.65 -1.45 0.7 -1.5 0.75 -1.45 0.75 -1.5 0.8 -1.5 0.8 -1.5 Q0.8 -1.5 0.85 -1.5 L0.9 -1.5 0.95 -1.4 1.0 -1.35 1.0 -1.3 0.9 -1.3 0.85 -1.25 Q0.85 -1.25 0.9 -1.25 L0.9 -1.25 0.9 -1.25 M0.3 -1.4 L0.25 -1.35 0.2 -1.25 0.3 -1.3 0.3 -1.4 0.25 -1.4 0.2 -1.35 Q0.25 -1.35 0.3 -1.4 M0.8 -1.25 L0.8 -1.3 0.75 -1.3 0.7 -1.25 0.8 -1.3 0.75 -1.25 Q0.75 -1.25 0.8 -1.25 M0.6 -1.25 L0.65 -1.25 0.65 -1.35 0.6 -1.25" fill="#a79d77" fill-rule="evenodd" stroke="none"/>
    <path d="M0.3 -1.65 L0.35 -1.75 0.3 -1.85 0.6 -1.85 0.65 -1.85 0.7 -1.85 0.65 -1.75 Q0.6 -1.7 0.55 -1.7 L0.5 -1.65 0.5 -1.6 0.5 -1.55 0.45 -1.5 0.55 -1.5 0.6 -1.55 0.6 -1.55 0.6 -1.6 0.65 -1.65 0.65 -1.65 0.7 -1.55 Q0.65 -1.55 0.65 -1.5 L0.7 -1.5 0.65 -1.45 0.6 -1.45 0.55 -1.45 0.5 -1.5 0.45 -1.5 0.4 -1.5 0.4 -1.5 0.4 -1.6 0.35 -1.55 0.3 -1.55 0.25 -1.5 0.2 -1.45 0.25 -1.55 Q0.25 -1.55 0.3 -1.6 L0.3 -1.65" fill="#9b8a60" fill-rule="evenodd" stroke="none"/>
    <path d="M0.3 -1.55 L0.35 -1.55 0.4 -1.6 0.4 -1.5 0.35 -1.5 Q0.3 -1.5 0.3 -1.55" fill="#6b5f43" fill-rule="evenodd" stroke="none"/>
    <path d="M0.3 -1.65 L0.3 -1.6 Q0.25 -1.55 0.25 -1.55 L0.3 -1.65" fill="#5e5640" fill-rule="evenodd" stroke="none"/>
    <path d="M0.2 -1.85 L0.15 -1.85 -0.1 -1.85 0.05 -1.85 0.2 -1.85" fill="#514934" fill-rule="evenodd" stroke="none"/>
    <path d="M0.15 -1.85 L0.15 -1.75 Q0.15 -1.75 0.2 -1.7 L0.2 -1.6 0.2 -1.55 0.15 -1.55 0.15 -1.55 0.1 -1.6 Q0.05 -1.6 0.05 -1.6 L0.05 -1.65 0.0 -1.6 -0.05 -1.55 0.05 -1.5 0.05 -1.45 Q0.05 -1.45 0.0 -1.45 0.0 -1.5 -0.05 -1.5 L-0.1 -1.5 -0.1 -1.55 -0.1 -1.8 -0.1 -1.8 -0.1 -1.85 0.15 -1.85" fill="#a18f65" fill-rule="evenodd" stroke="none"/>
    <path d="M0.2 -1.55 L0.2 -1.5 0.1 -1.5 0.05 -1.55 0.05 -1.5 -0.05 -1.55 0.0 -1.6 0.05 -1.65 0.05 -1.6 Q0.05 -1.6 0.1 -1.6 L0.15 -1.55 0.15 -1.55 0.2 -1.55" fill="#716948" fill-rule="evenodd" stroke="none"/>
    <path d="M0.35 -1.25 Q0.3 -1.25 0.35 -1.15 L0.4 -1.1 0.4 -1.05 0.35 -1.1 0.3 -1.1 0.3 -1.1 0.25 -1.0 0.3 -1.05 0.3 -1.0 0.25 -1.0 0.15 -0.95 0.25 -0.95 0.3 -0.85 0.2 -0.85 Q0.15 -0.85 0.15 -0.8 L0.15 -0.75 0.2 -0.7 0.25 -0.7 0.2 -0.65 0.15 -0.65 0.1 -0.65 0.1 -0.6 0.05 -0.6 0.0 -0.6 0.05 -0.65 0.05 -0.7 -0.05 -0.65 -0.15 -0.6 -0.15 -0.65 -0.2 -0.6 -0.2 -0.55 -0.2 -0.6 -0.25 -0.6 -0.2 -0.65 -0.25 -0.65 -0.25 -0.7 -0.35 -0.6 -0.3 -0.6 -0.3 -0.6 -0.3 -0.55 -0.4 -0.6 -0.5 -0.6 -0.55 -0.55 -0.6 -0.45 -0.6 -0.65 -0.55 -0.7 Q-0.55 -0.75 -0.6 -0.7 L-0.65 -0.75 Q-0.7 -0.8 -0.7 -0.8 -0.7 -0.8 -0.65 -0.85 L-0.65 -0.85 -0.65 -0.9 -0.6 -0.85 -0.55 -0.85 -0.5 -0.85 -0.5 -0.9 -0.45 -0.95 Q-0.4 -1.0 -0.45 -1.0 L-0.4 -1.0 -0.4 -0.95 -0.35 -0.95 -0.35 -0.9 -0.35 -0.9 -0.4 -0.9 -0.45 -0.85 -0.45 -0.8 -0.4 -0.85 -0.35 -0.85 -0.35 -0.8 -0.3 -0.85 -0.25 -0.85 -0.2 -0.8 -0.2 -0.85 -0.15 -0.85 -0.15 -0.85 -0.15 -0.8 -0.1 -0.8 -0.1 -0.85 -0.05 -0.85 -0.05 -0.8 0.0 -0.8 0.05 -0.8 0.05 -0.8 0.1 -0.8 Q0.1 -0.8 0.15 -0.85 L0.15 -0.85 0.1 -0.85 0.1 -0.85 0.05 -0.85 Q0.0 -0.85 0.05 -0.9 L0.05 -0.95 0.1 -0.95 0.15 -0.95 0.1 -0.95 0.05 -1.0 Q0.1 -0.95 0.15 -1.0 L0.15 -1.1 Q0.1 -1.1 0.15 -1.1 L0.2 -1.2 0.1 -1.15 0.05 -1.1 0.0 -1.1 -0.05 -1.05 0.0 -1.1 0.0 -1.05 0.0 -1.05 -0.05 -1.05 -0.05 -1.2 -0.05 -1.25 -0.15 -1.3 -0.1 -1.3 -0.05 -1.35 -0.05 -1.3 0.0 -1.3 0.0 -1.25 -0.05 -1.25 Q-0.05 -1.2 0.0 -1.25 L0.05 -1.25 0.1 -1.2 0.2 -1.2 0.25 -1.25 0.25 -1.2 Q0.3 -1.15 0.3 -1.2 L0.3 -1.25 0.35 -1.3 0.35 -1.25 M-0.15 -0.85 L-0.15 -0.85 M-0.65 -0.4 L-0.65 -0.4 -0.6 -0.45 -0.6 -0.35 -0.55 -0.4 -0.5 -0.45 -0.5 -0.4 -0.55 -0.4 -0.6 -0.35 -0.65 -0.25 -0.6 -0.2 -0.55 -0.2 -0.55 -0.1 -0.65 0.0 -0.6 0.05 -0.55 0.05 -0.65 0.05 -0.65 0.1 -0.7 0.1 -0.75 0.15 -0.65 0.2 -0.6 0.25 -0.6 0.3 -0.7 0.3 -0.8 0.3 -0.8 0.25 -0.9 0.25 -0.9 0.1 -0.9 0.1 -0.85 0.1 -0.8 0.05 -0.75 0.05 -0.75 0.1 -0.7 0.05 -0.65 0.0 -0.7 0.0 Q-0.7 0.05 -0.75 0.05 L-0.75 0.05 -0.8 0.05 -0.75 0.0 -0.75 -0.05 -0.8 0.0 -0.85 0.05 -0.9 -0.05 -0.9 -0.05 -0.85 -0.1 -0.75 -0.1 -0.65 -0.15 -0.7 -0.1 -0.7 -0.1 -0.65 -0.1 -0.6 -0.15 -0.55 -0.2 -0.6 -0.2 -0.7 -0.2 -0.7 -0.3 -0.65 -0.4 M-0.9 0.25 L-0.9 0.25 -0.9 0.25 -0.9 0.25 M0.25 -1.05 L0.25 -1.05 0.25 -1.05 M-0.5 -0.65 L-0.45 -0.6 -0.4 -0.6 -0.4 -0.65 -0.4 -0.6 -0.35 -0.65 -0.35 -0.65 -0.4 -0.65 -0.4 -0.65 -0.4 -0.75 -0.45 -0.7 -0.5 -0.65 -0.5 -0.7 -0.55 -0.65 -0.5 -0.65 -0.5 -0.65 -0.5 -0.65" fill="#aba384" fill-rule="evenodd" stroke="none"/>
    <path d="M-0.1 -1.35 L-0.05 -1.35 0.0 -1.35 0.0 -1.4 0.05 -1.35 0.1 -1.35 0.1 -1.35 0.05 -1.25 0.0 -1.25 Q-0.05 -1.2 -0.05 -1.25 L0.0 -1.25 0.0 -1.3 -0.05 -1.3 -0.05 -1.35 -0.1 -1.3 -0.15 -1.3 -0.15 -1.25 -0.1 -1.35" fill="#756f55" fill-rule="evenodd" stroke="none"/>
    <path d="M0.3 -1.4 L0.3 -1.3 0.2 -1.25 0.25 -1.35 0.3 -1.4" fill="#767059" fill-rule="evenodd" stroke="none"/>
    <path d="M0.3 -0.85 L0.3 -0.85 0.35 -0.8 0.35 -0.85 0.4 -0.8 0.35 -0.75 0.3 -0.7 0.3 -0.75 0.3 -0.75 0.35 -0.8 0.3 -0.75 0.25 -0.8 0.25 -0.8 0.2 -0.8 0.15 -0.75 0.15 -0.8 Q0.15 -0.85 0.2 -0.85 L0.3 -0.85 M0.3 -1.4 Q0.25 -1.35 0.2 -1.35 L0.25 -1.4 0.3 -1.4" fill="#6b664f" fill-rule="evenodd" stroke="none"/>
    <path d="M0.4 -1.3 L0.4 -1.25 0.35 -1.25 0.35 -1.3 0.3 -1.25 0.3 -1.4 0.35 -1.4 0.35 -1.35 0.3 -1.3 0.35 -1.35 0.4 -1.4 0.4 -1.3 0.4 -1.35 0.45 -1.35 0.4 -1.3" fill="#706c55" fill-rule="evenodd" stroke="none"/>
    <path d="M0.6 -1.3 L0.55 -1.25 0.55 -1.3 0.5 -1.25 0.5 -1.3 0.45 -1.25 0.4 -1.3 0.45 -1.3 0.55 -1.3 0.6 -1.35 0.6 -1.35 0.65 -1.4 0.7 -1.4 0.65 -1.35 0.6 -1.3" fill="#706a54" fill-rule="evenodd" stroke="none"/>
    <path d="M0.6 -1.55 L0.6 -1.55 0.55 -1.5 0.45 -1.5 0.5 -1.55 0.5 -1.6 0.5 -1.55 0.55 -1.6 0.6 -1.65 0.6 -1.6 0.55 -1.6 0.55 -1.55 0.6 -1.55" fill="#615238" fill-rule="evenodd" stroke="none"/>
    <path d="M0.9 -1.55 L0.9 -1.5 0.85 -1.5 Q0.8 -1.5 0.8 -1.5 L0.8 -1.5 0.75 -1.5 0.7 -1.55 0.7 -1.55 0.75 -1.6 0.8 -1.65 0.75 -1.6 0.7 -1.55 0.65 -1.65 0.65 -1.65 0.6 -1.6 0.6 -1.55 0.55 -1.55 0.55 -1.6 0.6 -1.6 0.6 -1.65 0.55 -1.6 0.5 -1.55 0.5 -1.6 0.5 -1.65 0.55 -1.7 Q0.6 -1.7 0.65 -1.75 L0.7 -1.85 0.8 -1.8 0.85 -1.85 0.9 -1.8 0.85 -1.8 0.85 -1.8 0.9 -1.75 0.85 -1.7 0.85 -1.55 0.9 -1.55 0.9 -1.55 M0.8 -1.55 L0.8 -1.55 0.75 -1.55 0.75 -1.55 Q0.75 -1.5 0.8 -1.55 L0.8 -1.55" fill="#8b7752" fill-rule="evenodd" stroke="none"/>
    <path d="M0.8 -1.55 L0.8 -1.55 Q0.75 -1.5 0.75 -1.55 L0.75 -1.55 0.8 -1.55 0.8 -1.55" fill="#534a38" fill-rule="evenodd" stroke="none"/>
    <path d="M0.7 -1.5 L0.65 -1.5 Q0.65 -1.55 0.7 -1.55 L0.7 -1.55 0.75 -1.5 0.75 -1.45 0.7 -1.5" fill="#5d523b" fill-rule="evenodd" stroke="none"/>
    <path d="M0.6 -1.25 L0.6 -1.25 0.65 -1.35 0.65 -1.25 0.6 -1.25" fill="#6f6752" fill-rule="evenodd" stroke="none"/>
    <path d="M0.8 -1.25 Q0.75 -1.25 0.75 -1.25 L0.8 -1.3 0.7 -1.25 0.75 -1.3 0.8 -1.3 0.8 -1.25" fill="#625a48" fill-rule="evenodd" stroke="none"/>
    <path d="M0.9 -1.3 L0.9 -1.25 0.9 -1.25 Q0.85 -1.25 0.85 -1.25 L0.9 -1.3 M-1.5 1.2 L-1.55 1.25 -1.55 1.2 -1.6 1.2 -1.55 1.15 -1.5 1.15 -1.55 1.2 -1.55 1.2 -1.5 1.15 -1.45 1.15 -1.5 1.2" fill="#6b6451" fill-rule="evenodd" stroke="none"/>
    <path d="M0.7 -1.55 L0.75 -1.6 0.8 -1.65 0.75 -1.6 0.7 -1.55" fill="#5e5038" fill-rule="evenodd" stroke="none"/>
    <path d="M0.65 -1.0 L0.75 -1.05 0.75 -1.0 0.8 -1.05 0.8 -1.0 0.8 -1.0 0.75 -0.95 0.75 -0.95 Q0.75 -1.0 0.7 -1.0 L0.65 -1.0" fill="#736f5e" fill-rule="evenodd" stroke="none"/>
    <path d="M0.9 -0.95 L0.9 -1.0 Q0.85 -0.95 0.85 -1.0 L0.9 -1.05 Q0.9 -1.0 0.95 -1.05 L1.0 -1.1 0.95 -1.0 0.9 -0.95 0.85 -0.95 0.9 -0.95" fill="#716d5b" fill-rule="evenodd" stroke="none"/>
    <path d="M0.65 -1.0 L0.65 -1.05 0.7 -1.05 0.65 -1.0" fill="#636051" fill-rule="evenodd" stroke="none"/>
    <path d="M0.55 -0.75 L0.6 -0.8 0.65 -0.8 0.7 -0.85 0.7 -0.85 0.75 -0.8 0.75 -0.8 0.8 -0.85 0.85 -0.85 0.8 -0.8 0.75 -0.75 0.7 -0.75 0.7 -0.75 0.65 -0.75 0.65 -0.75 0.6 -0.75 0.55 -0.75 0.55 -0.75" fill="#726d5a" fill-rule="evenodd" stroke="none"/>
    <path d="M0.5 -0.8 L0.55 -0.75 0.55 -0.75 0.6 -0.75 0.65 -0.75 0.65 -0.75 0.7 -0.75 0.7 -0.75 0.75 -0.75 0.8 -0.8 0.85 -0.75 Q0.8 -0.7 0.85 -0.75 L0.9 -0.75 0.9 -0.65 1.0 -0.6 1.05 -0.55 1.05 -0.5 0.9 -0.6 0.8 -0.6 0.75 -0.6 0.75 -0.55 0.7 -0.5 0.7 -0.45 0.65 -0.45 0.65 -0.5 0.6 -0.5 0.65 -0.5 Q0.7 -0.55 0.65 -0.55 L0.55 -0.55 0.45 -0.6 Q0.4 -0.65 0.45 -0.7 L0.45 -0.75 0.5 -0.8" fill="#9c9478" fill-rule="evenodd" stroke="none"/>
    <path d="M0.75 -0.8 L0.8 -0.85 0.85 -0.85 0.95 -0.9 1.0 -0.85 Q0.95 -0.85 0.95 -0.8 0.95 -0.8 1.0 -0.8 L1.05 -0.85 1.1 -0.9 1.1 -0.9 1.15 -0.85 1.1 -0.55 1.0 -0.3 Q1.0 -0.35 1.0 -0.4 L1.05 -0.5 1.05 -0.55 1.0 -0.6 0.9 -0.65 0.9 -0.75 0.9 -0.8 0.85 -0.75 0.8 -0.8 0.85 -0.85 0.8 -0.85 0.75 -0.8" fill="#a9a083" fill-rule="evenodd" stroke="none"/>
    <path d="M0.85 -0.75 L0.9 -0.8 0.9 -0.75 0.85 -0.75 Q0.8 -0.7 0.85 -0.75" fill="#696453" fill-rule="evenodd" stroke="none"/>
    <path d="M0.4 -1.05 L0.4 -1.0 0.35 -1.05 0.3 -1.0 0.3 -1.05 0.25 -1.0 0.3 -1.1 0.3 -1.1 0.35 -1.1 0.4 -1.05" fill="#6d6854" fill-rule="evenodd" stroke="none"/>
    <path d="M0.4 -1.0 L0.4 -1.1 Q0.4 -1.05 0.45 -1.05 L0.55 -1.05 0.5 -1.0 0.45 -1.05 0.45 -1.0 0.4 -1.0" fill="#706c5b" fill-rule="evenodd" stroke="none"/>
    <path d="M0.0 -1.05 L0.0 -1.1 -0.05 -1.05 0.0 -1.1 0.05 -1.1 0.1 -1.15 0.2 -1.2 0.15 -1.1 Q0.1 -1.1 0.15 -1.1 L0.15 -1.0 Q0.1 -0.95 0.05 -1.0 L0.1 -1.0 0.1 -1.05 0.05 -1.05 0.0 -1.05" fill="#78735d" fill-rule="evenodd" stroke="none"/>
    <path d="M-0.05 -1.05 L0.0 -1.05 0.0 -1.05 0.05 -1.05 0.1 -1.05 0.1 -1.0 0.05 -1.0 0.1 -0.95 0.15 -0.95 0.1 -0.95 0.05 -0.95 0.0 -0.9 0.0 -0.9 Q0.0 -0.9 -0.05 -0.85 L-0.1 -0.85 -0.1 -0.8 -0.15 -0.8 -0.15 -0.85 -0.15 -0.85 -0.2 -0.85 -0.2 -0.95 -0.25 -0.9 -0.35 -0.9 -0.35 -0.95 -0.4 -0.95 -0.4 -1.0 -0.45 -1.0 -0.4 -1.05 -0.4 -1.05 -0.35 -1.05 -0.4 -1.05 -0.35 -1.05 -0.35 -1.1 -0.3 -1.1 -0.3 -1.1 -0.25 -1.05 -0.25 -1.05 -0.2 -1.1 -0.2 -1.05 -0.15 -1.1 -0.15 -1.0 Q-0.2 -1.0 -0.15 -1.0 L-0.1 -1.05 -0.05 -1.05 M-0.45 -1.0 L-0.5 -0.95 -0.55 -0.95 -0.55 -1.0 -0.45 -1.0 M-0.15 -0.85 L-0.1 -0.9 -0.1 -0.9 -0.15 -0.85" fill="#bdb492" fill-rule="evenodd" stroke="none"/>
    <path d="M0.25 -1.05 L0.25 -1.05 0.25 -1.05" fill="#5f5a4a" fill-rule="evenodd" stroke="none"/>
    <path d="M0.05 -0.95 L0.05 -0.9 Q0.0 -0.85 0.05 -0.85 L0.1 -0.85 0.1 -0.85 0.15 -0.85 0.15 -0.85 Q0.1 -0.8 0.1 -0.8 L0.05 -0.8 0.05 -0.8 0.0 -0.8 -0.05 -0.8 -0.05 -0.85 -0.1 -0.85 -0.05 -0.85 Q0.0 -0.9 0.0 -0.9 L0.0 -0.9 0.05 -0.95" fill="#746f5a" fill-rule="evenodd" stroke="none"/>
    <path d="M0.1 -0.6 L0.1 -0.65 0.15 -0.65 0.2 -0.65 0.25 -0.7 0.2 -0.7 0.15 -0.75 0.2 -0.8 0.25 -0.8 0.25 -0.8 0.3 -0.75 0.35 -0.8 0.3 -0.75 0.3 -0.75 0.25 -0.7 0.25 -0.65 0.2 -0.6 0.15 -0.6 0.1 -0.6 0.1 -0.6" fill="#999372" fill-rule="evenodd" stroke="none"/>
    <path d="M-0.25 -0.6 L-0.2 -0.6 -0.2 -0.55 -0.15 -0.6 -0.15 -0.6 -0.05 -0.65 0.05 -0.7 0.05 -0.65 0.0 -0.6 Q-0.1 -0.65 -0.1 -0.55 L0.15 -0.55 0.2 -0.45 0.2 -0.4 0.15 -0.35 0.1 -0.4 0.05 -0.4 0.1 -0.4 0.1 -0.45 0.1 -0.45 -0.05 -0.45 -0.1 -0.4 -0.1 -0.35 -0.15 -0.35 -0.15 -0.4 -0.1 -0.45 -0.15 -0.4 -0.2 -0.4 -0.25 -0.35 -0.25 -0.35 -0.2 -0.35 -0.2 -0.3 -0.3 -0.35 -0.25 -0.35 -0.25 -0.4 -0.3 -0.4 -0.35 -0.4 -0.35 -0.45 -0.3 -0.55 Q-0.3 -0.55 -0.25 -0.55 L-0.25 -0.6" fill="#b7b194" fill-rule="evenodd" stroke="none"/>
    <path d="M0.4 -0.8 L0.45 -0.85 0.45 -0.8 0.45 -0.75 0.45 -0.7 Q0.4 -0.65 0.45 -0.6 L0.55 -0.55 0.65 -0.55 Q0.7 -0.55 0.65 -0.5 L0.65 -0.45 0.7 -0.45 0.7 -0.5 0.7 -0.5 0.75 -0.55 0.75 -0.45 0.7 -0.4 0.75 -0.4 0.75 -0.35 0.7 -0.35 0.7 -0.4 0.65 -0.35 0.6 -0.25 0.6 -0.15 0.5 -0.1 0.4 -0.1 0.4 -0.1 0.35 -0.05 0.35 -0.1 0.35 -0.2 Q0.3 -0.25 0.25 -0.25 L0.25 -0.25 0.3 -0.3 0.3 -0.35 0.35 -0.4 0.3 -0.45 0.25 -0.45 0.2 -0.5 0.2 -0.5 0.2 -0.55 0.2 -0.6 0.25 -0.65 0.25 -0.65 0.25 -0.7 0.3 -0.75 0.3 -0.7 0.35 -0.75 0.4 -0.8 M0.35 -0.6 L0.3 -0.65 0.3 -0.6 0.25 -0.5 0.3 -0.55 0.35 -0.6 0.35 -0.6 M0.3 -0.3 L0.3 -0.25 0.4 -0.25 0.45 -0.3 0.4 -0.3 0.35 -0.3 0.3 -0.3 M0.6 -0.25 Q0.55 -0.3 0.55 -0.3 0.55 -0.35 0.6 -0.35 L0.55 -0.35 0.5 -0.3 0.5 -0.3 0.45 -0.25 0.55 -0.25 Q0.55 -0.25 0.6 -0.25 M0.6 -0.5 L0.65 -0.5 0.6 -0.55 Q0.55 -0.55 0.55 -0.55 0.55 -0.5 0.55 -0.5 L0.6 -0.5 M0.45 -0.5 Q0.45 -0.6 0.4 -0.55 L0.35 -0.55 0.3 -0.5 0.35 -0.55 0.35 -0.5 Q0.35 -0.5 0.4 -0.5 L0.4 -0.5 0.45 -0.5 0.45 -0.5 Q0.45 -0.5 0.5 -0.5 L0.55 -0.55 0.5 -0.55 0.45 -0.5" fill="#897f62" fill-rule="evenodd" stroke="none"/>
    <path d="M0.45 -0.8 L0.45 -0.8 0.5 -0.8 0.45 -0.75 0.45 -0.8" fill="#4f4b3d" fill-rule="evenodd" stroke="none"/>
    <path d="M0.35 -0.6 L0.35 -0.6 0.3 -0.55 0.25 -0.5 0.3 -0.6 0.3 -0.65 0.35 -0.6" fill="#504c38" fill-rule="evenodd" stroke="none"/>
    <path d="M0.25 -0.65 L0.25 -0.65 0.2 -0.6 0.2 -0.55 0.2 -0.5 0.15 -0.55 0.15 -0.6 0.2 -0.6 0.25 -0.65" fill="#5a5743" fill-rule="evenodd" stroke="none"/>
    <path d="M0.45 -0.5 L0.5 -0.55 0.55 -0.55 0.5 -0.5 Q0.45 -0.5 0.45 -0.5" fill="#4b4636" fill-rule="evenodd" stroke="none"/>
    <path d="M0.45 -0.5 L0.45 -0.5 0.4 -0.5 0.4 -0.5 Q0.35 -0.5 0.35 -0.5 L0.35 -0.55 0.3 -0.5 0.35 -0.55 0.4 -0.55 Q0.45 -0.6 0.45 -0.5" fill="#544f3d" fill-rule="evenodd" stroke="none"/>
    <path d="M0.35 -0.4 L0.3 -0.35 0.3 -0.3 0.25 -0.25 0.25 -0.25 0.25 -0.35 0.35 -0.4 M0.25 -0.25 L0.25 -0.25" fill="#5e5642" fill-rule="evenodd" stroke="none"/>
    <path d="M0.2 -0.5 L0.2 -0.5 0.25 -0.45 0.3 -0.45 0.35 -0.4 0.25 -0.35 0.25 -0.25 0.2 -0.2 0.2 -0.2 0.2 -0.25 0.15 -0.3 Q0.1 -0.3 0.1 -0.3 L0.15 -0.3 0.2 -0.35 0.2 -0.4 0.2 -0.45 0.15 -0.55 0.2 -0.5 M0.15 -0.55 L0.15 -0.55" fill="#948c71" fill-rule="evenodd" stroke="none"/>
    <path d="M0.3 -0.3 L0.35 -0.3 0.4 -0.3 0.45 -0.3 0.4 -0.25 0.3 -0.25 0.3 -0.3" fill="#5d543e" fill-rule="evenodd" stroke="none"/>
    <path d="M0.0 -0.6 L0.05 -0.6 0.1 -0.6 0.1 -0.6 0.15 -0.6 0.15 -0.55 0.15 -0.55 -0.1 -0.55 Q-0.1 -0.65 0.0 -0.6" fill="#7d7962" fill-rule="evenodd" stroke="none"/>
    <path d="M0.25 -0.25 Q0.3 -0.25 0.35 -0.2 L0.35 -0.1 0.3 -0.1 0.3 -0.05 0.2 -0.1 0.15 0.0 0.2 -0.05 0.2 0.0 0.25 0.0 0.2 0.0 0.15 0.05 0.1 0.0 0.0 0.05 -0.05 0.1 -0.05 0.0 -0.1 0.05 -0.2 0.05 Q-0.15 0.05 -0.15 0.0 L-0.15 -0.05 -0.15 -0.1 -0.1 -0.1 -0.1 -0.05 -0.05 -0.05 -0.1 0.0 -0.05 0.0 0.0 -0.05 0.05 -0.05 0.05 -0.05 0.1 -0.05 0.1 -0.1 0.05 -0.1 0.05 -0.05 0.05 -0.1 Q0.05 -0.05 0.05 -0.1 L0.0 -0.1 -0.05 -0.1 -0.15 -0.1 -0.2 -0.05 Q-0.2 -0.05 -0.25 -0.05 L-0.2 -0.1 -0.2 -0.15 -0.25 -0.15 -0.2 -0.2 -0.2 -0.25 -0.1 -0.3 -0.1 -0.4 -0.05 -0.45 0.1 -0.45 0.1 -0.45 0.1 -0.4 0.05 -0.4 0.0 -0.35 -0.05 -0.35 -0.05 -0.3 0.0 -0.3 0.05 -0.3 0.1 -0.3 0.1 -0.3 Q0.1 -0.3 0.15 -0.3 L0.2 -0.25 0.2 -0.2 0.2 -0.2 0.25 -0.25 0.25 -0.25 M-0.2 0.05 L-0.2 0.05 M-0.05 0.1 L-0.05 0.1" fill="#a59e84" fill-rule="evenodd" stroke="none"/>
    <path d="M0.05 -0.4 L0.1 -0.4 0.15 -0.35 0.1 -0.35 0.1 -0.35 0.05 -0.35 0.05 -0.4" fill="#989279" fill-rule="evenodd" stroke="none"/>
    <path d="M0.2 -0.4 L0.2 -0.35 0.15 -0.3 0.1 -0.3 0.1 -0.3 0.05 -0.3 0.0 -0.3 -0.05 -0.3 -0.05 -0.35 0.0 -0.35 0.05 -0.4 0.1 -0.4 0.05 -0.4 0.05 -0.35 0.1 -0.35 0.1 -0.35 0.15 -0.35 0.2 -0.4" fill="#6c6755" fill-rule="evenodd" stroke="none"/>
    <path d="M0.05 -0.05 L0.05 -0.1 0.1 -0.1 0.1 -0.05 0.05 -0.05 0.05 -0.05" fill="#726d5c" fill-rule="evenodd" stroke="none"/>
    <path d="M0.05 -0.05 L0.0 -0.05 -0.05 0.0 -0.1 0.0 -0.05 -0.05 -0.1 -0.05 -0.1 -0.1 -0.15 -0.1 -0.15 -0.05 -0.15 -0.1 -0.05 -0.1 0.0 -0.1 0.05 -0.1 Q0.05 -0.05 0.05 -0.1 L0.05 -0.05" fill="#6a6656" fill-rule="evenodd" stroke="none"/>
    <path d="M0.25 0.0 L0.2 0.0 0.2 -0.05 0.15 0.0 0.2 -0.1 0.3 -0.05 0.3 0.0 0.25 0.0 0.25 0.0 0.25 0.0" fill="#6c6655" fill-rule="evenodd" stroke="none"/>
    <path d="M0.6 -0.25 Q0.55 -0.25 0.55 -0.25 L0.45 -0.25 0.5 -0.3 0.5 -0.3 0.55 -0.35 0.6 -0.35 Q0.55 -0.35 0.55 -0.3 0.55 -0.3 0.6 -0.25 L0.6 -0.25" fill="#5c5340" fill-rule="evenodd" stroke="none"/>
    <path d="M0.35 -0.1 L0.35 -0.05 0.35 0.0 0.4 0.0 0.4 0.05 Q0.4 0.1 0.45 0.1 L0.45 0.05 0.45 0.0 Q0.5 0.05 0.5 0.05 L0.55 0.05 0.6 0.0 0.6 0.05 Q0.65 0.05 0.65 0.0 L0.7 -0.05 0.75 0.0 0.7 0.05 0.7 0.1 0.65 0.15 0.65 0.2 0.6 0.15 0.55 0.15 0.5 0.2 0.45 0.15 0.4 0.2 0.4 0.25 0.35 0.25 0.35 0.3 0.4 0.3 0.35 0.35 0.3 0.35 0.35 0.4 0.4 0.45 0.35 0.5 0.35 0.45 0.3 0.45 0.25 0.45 0.2 0.45 0.2 0.4 0.15 0.45 0.1 0.45 0.1 0.4 0.05 0.4 0.0 0.35 0.0 0.35 0.0 0.25 0.05 0.25 0.0 0.25 0.0 0.25 0.0 0.2 0.05 0.25 Q0.1 0.15 0.05 0.15 L0.1 0.15 0.15 0.15 0.1 0.25 0.15 0.25 0.15 0.2 0.2 0.2 0.15 0.2 0.15 0.1 0.2 0.1 0.25 0.15 0.25 0.2 0.2 0.2 0.2 0.25 Q0.2 0.3 0.15 0.3 0.15 0.35 0.2 0.3 L0.25 0.25 0.3 0.25 0.3 0.2 0.4 0.2 0.4 0.1 0.35 0.05 0.25 0.0 0.25 0.0 0.3 0.0 0.3 -0.05 0.3 -0.1 0.35 -0.1" fill="#a09679" fill-rule="evenodd" stroke="none"/>
    <path d="M0.35 -0.05 L0.4 -0.1 0.4 -0.1 0.4 -0.05 0.4 0.0 0.35 0.0 0.35 -0.05" fill="#595341" fill-rule="evenodd" stroke="none"/>
    <path d="M1.05 -0.5 L1.0 -0.4 Q1.0 -0.35 1.0 -0.3 L1.05 -0.25 0.95 -0.25 Q0.9 -0.25 0.95 -0.3 L0.95 -0.3 0.9 -0.35 Q0.85 -0.35 0.85 -0.3 L0.9 -0.2 0.85 -0.2 0.8 -0.15 0.8 -0.1 0.75 0.0 0.7 -0.05 0.7 -0.1 0.65 -0.05 0.6 0.0 0.55 0.0 0.5 0.0 0.55 -0.05 0.5 -0.05 0.5 0.0 Q0.45 0.05 0.5 0.05 0.5 0.05 0.45 0.0 L0.45 0.05 0.45 0.1 Q0.4 0.1 0.4 0.05 L0.4 0.0 0.4 -0.05 0.4 -0.1 0.5 -0.1 0.6 -0.15 0.6 -0.25 0.65 -0.35 0.7 -0.4 0.7 -0.35 0.75 -0.35 0.75 -0.4 0.7 -0.4 0.75 -0.45 0.8 -0.5 0.8 -0.55 0.75 -0.55 0.75 -0.55 0.75 -0.6 0.8 -0.6 0.9 -0.6 1.05 -0.5 M0.7 -0.25 L0.7 -0.2 0.75 -0.2 0.75 -0.2 0.8 -0.2 0.8 -0.25 0.85 -0.35 0.85 -0.3 0.8 -0.3 0.75 -0.25 0.75 -0.25 0.7 -0.25 0.7 -0.25 0.65 -0.25 0.65 -0.25 0.7 -0.3 0.65 -0.25 0.65 -0.2 Q0.7 -0.2 0.7 -0.25 M0.6 -0.25 L0.6 -0.25 M0.75 0.0 L0.75 0.0" fill="#968b6d" fill-rule="evenodd" stroke="none"/>
    <path d="M0.7 -0.05 L0.65 0.0 Q0.65 0.05 0.6 0.05 L0.6 0.0 0.55 0.05 0.5 0.05 Q0.45 0.05 0.5 0.0 L0.5 -0.05 0.55 -0.05 0.5 0.0 0.55 0.0 0.6 0.0 0.65 -0.05 0.7 -0.1 0.7 -0.05" fill="#635c4a" fill-rule="evenodd" stroke="none"/>
    <path d="M0.75 -0.45 L0.75 -0.55 0.7 -0.5 0.7 -0.5 0.75 -0.55 0.75 -0.55 0.8 -0.55 0.8 -0.5 0.75 -0.45" fill="#5a5542" fill-rule="evenodd" stroke="none"/>
    <path d="M0.7 -0.25 L0.75 -0.25 0.75 -0.25 0.8 -0.3 0.85 -0.3 0.85 -0.35 0.8 -0.25 0.8 -0.2 0.75 -0.2 0.75 -0.2 0.7 -0.2 0.7 -0.25" fill="#5b523d" fill-rule="evenodd" stroke="none"/>
    <path d="M0.65 0.15 L0.7 0.1 0.7 0.05 0.75 0.05 0.8 0.0 0.75 0.0 0.75 0.0 0.8 -0.1 0.8 -0.15 0.85 -0.2 0.9 -0.2 0.85 -0.3 Q0.85 -0.35 0.9 -0.35 L0.95 -0.3 0.95 -0.3 Q0.9 -0.25 0.95 -0.25 L1.05 -0.25 0.95 -0.15 Q0.9 -0.1 0.95 -0.05 L0.95 0.0 1.0 0.0 0.95 0.1 0.95 0.2 0.9 0.2 0.9 0.25 0.95 0.25 0.9 0.4 0.9 0.55 0.85 0.5 0.8 0.5 0.75 0.45 0.75 0.4 0.7 0.45 0.65 0.45 0.6 0.45 0.7 0.4 0.75 0.3 0.8 0.3 0.8 0.25 0.85 0.25 0.9 0.25 0.7 0.2 0.65 0.15 M1.05 -0.25 L1.05 -0.25" fill="#8e8265" fill-rule="evenodd" stroke="none"/>
    <path d="M0.6 -0.5 L0.55 -0.5 Q0.55 -0.5 0.55 -0.55 0.55 -0.55 0.6 -0.55 L0.65 -0.5 0.6 -0.5" fill="#5c5743" fill-rule="evenodd" stroke="none"/>
    <path d="M0.7 -0.25 Q0.7 -0.2 0.65 -0.2 L0.65 -0.25 0.7 -0.3 0.65 -0.25 0.65 -0.25 0.7 -0.25 0.7 -0.25" fill="#625945" fill-rule="evenodd" stroke="none"/>
    <path d="M0.7 0.05 L0.75 0.0 0.75 0.0 0.75 0.0 0.8 0.0 0.75 0.05 0.7 0.05" fill="#5e5846" fill-rule="evenodd" stroke="none"/>
    <path d="M1.0 0.0 L0.95 0.0 0.95 -0.05 Q0.9 -0.1 0.95 -0.15 L1.05 -0.25 1.1 -0.1 1.0 0.0" fill="#7e7259" fill-rule="evenodd" stroke="none"/>
    <path d="M0.4 0.45 L0.35 0.4 0.3 0.35 0.35 0.35 0.4 0.3 0.35 0.3 0.35 0.25 0.4 0.25 0.4 0.2 0.45 0.15 0.5 0.2 0.55 0.15 0.6 0.15 0.65 0.2 0.6 0.25 0.6 0.3 Q0.65 0.35 0.65 0.25 L0.7 0.2 0.9 0.25 0.85 0.25 0.8 0.25 0.8 0.3 0.75 0.3 0.7 0.4 0.6 0.45 0.65 0.45 0.7 0.45 0.75 0.4 0.75 0.45 0.8 0.5 0.85 0.5 0.9 0.55 0.8 0.5 0.7 0.5 0.65 0.5 0.65 0.55 0.6 0.55 0.55 0.6 0.45 0.55 0.4 0.55 Q0.4 0.55 0.45 0.55 0.45 0.55 0.45 0.5 L0.5 0.55 0.55 0.55 0.5 0.5 0.45 0.5 0.4 0.5 0.45 0.45 0.45 0.4 0.4 0.45 M0.55 0.15 L0.55 0.2 0.5 0.25 Q0.45 0.3 0.5 0.3 L0.55 0.25 0.55 0.15 M0.45 0.3 L0.5 0.25 0.5 0.2 0.4 0.2 0.4 0.25 Q0.45 0.25 0.45 0.3" fill="#998c6e" fill-rule="evenodd" stroke="none"/>
    <path d="M0.95 0.25 L0.9 0.25 0.9 0.2 0.95 0.2 0.95 0.25" fill="#948870" fill-rule="evenodd" stroke="none"/>
    <path d="M0.55 0.15 L0.55 0.25 0.5 0.3 Q0.45 0.3 0.5 0.25 L0.55 0.2 0.55 0.15" fill="#5c5443" fill-rule="evenodd" stroke="none"/>
    <path d="M0.65 0.2 L0.65 0.15 0.7 0.2 0.65 0.25 Q0.65 0.35 0.6 0.3 L0.6 0.25 0.65 0.2" fill="#5f5745" fill-rule="evenodd" stroke="none"/>
    <path d="M0.45 0.55 Q0.4 0.55 0.4 0.55 L0.45 0.55 0.55 0.6 0.6 0.55 0.65 0.55 0.65 0.5 0.7 0.5 0.8 0.5 0.9 0.55 0.85 0.6 0.85 0.65 0.8 0.6 Q0.75 0.55 0.75 0.6 L0.7 0.65 0.65 0.7 0.6 0.75 0.55 0.75 0.55 0.8 0.5 0.75 0.45 0.8 0.4 0.75 0.45 0.7 0.4 0.75 0.35 0.8 0.35 0.75 Q0.35 0.75 0.3 0.8 L0.35 0.85 0.3 0.9 0.25 0.95 0.15 0.95 0.1 0.95 0.1 0.9 0.05 0.85 0.0 0.9 -0.05 0.85 0.0 0.8 0.0 0.85 0.05 0.8 0.05 0.75 0.1 0.75 0.15 0.7 0.1 0.75 0.15 0.75 0.2 0.7 0.1 0.7 Q0.1 0.7 0.05 0.75 L0.05 0.7 Q0.05 0.7 0.05 0.75 L0.05 0.7 0.0 0.65 -0.05 0.65 -0.1 0.65 -0.05 0.65 0.0 0.65 0.0 0.55 -0.05 0.5 -0.05 0.5 -0.1 0.45 -0.05 0.45 0.05 0.5 0.1 0.5 0.2 0.5 0.25 0.5 0.3 0.55 0.35 0.5 0.35 0.55 0.4 0.55 0.4 0.5 0.45 0.5 0.45 0.55 M0.3 0.75 L0.2 0.7 0.15 0.75 0.2 0.8 0.25 0.8 0.3 0.75 M0.0 0.9 L0.0 0.9" fill="#a5987a" fill-rule="evenodd" stroke="none"/>
    <path d="M0.45 0.5 L0.5 0.5 0.55 0.55 0.5 0.55 0.45 0.5 Q0.45 0.55 0.45 0.55 L0.45 0.5" fill="#675d4a" fill-rule="evenodd" stroke="none"/>
    <path d="M0.85 0.7 L0.85 0.75 0.8 0.75 0.7 0.8 0.65 0.8 0.6 0.75 0.65 0.7 0.7 0.65 0.75 0.6 Q0.75 0.55 0.8 0.6 L0.85 0.65 0.85 0.7" fill="#9c8b6b" fill-rule="evenodd" stroke="none"/>
    <path d="M0.3 0.2 L0.3 0.25 0.25 0.25 0.2 0.3 Q0.15 0.35 0.15 0.3 0.2 0.3 0.2 0.25 L0.2 0.2 0.25 0.2 0.3 0.2" fill="#6c6554" fill-rule="evenodd" stroke="none"/>
    <path d="M-0.05 0.1 L0.0 0.05 0.1 0.0 0.15 0.05 0.2 0.0 0.25 0.0 0.35 0.05 0.4 0.1 0.4 0.2 0.3 0.2 0.25 0.2 0.25 0.15 0.2 0.1 0.15 0.1 0.15 0.15 0.1 0.15 0.05 0.15 0.0 0.2 0.0 0.25 0.0 0.25 0.05 0.25 0.0 0.25 0.0 0.35 0.0 0.35 0.05 0.4 0.0 0.4 -0.05 0.4 -0.1 0.4 -0.15 0.45 -0.1 0.4 -0.1 0.35 -0.1 0.2 -0.1 0.2 -0.05 0.2 -0.05 0.1 M0.25 0.0 L0.25 0.0" fill="#b2a98d" fill-rule="evenodd" stroke="none"/>
    <path d="M0.45 0.3 Q0.45 0.25 0.4 0.25 L0.4 0.2 0.5 0.2 0.5 0.25 0.45 0.3" fill="#5c5645" fill-rule="evenodd" stroke="none"/>
    <path d="M0.35 0.25 L0.4 0.25 0.35 0.25" fill="#565042" fill-rule="evenodd" stroke="none"/>
    <path d="M0.05 0.15 Q0.1 0.15 0.05 0.25 L0.0 0.2 0.0 0.25 0.0 0.2 0.05 0.15" fill="#676251" fill-rule="evenodd" stroke="none"/>
    <path d="M0.15 0.1 L0.15 0.2 0.2 0.2 0.15 0.2 0.15 0.25 0.1 0.25 0.15 0.15 0.15 0.1" fill="#5c5648" fill-rule="evenodd" stroke="none"/>
    <path d="M0.05 0.4 L0.1 0.4 0.1 0.45 0.15 0.45 0.2 0.4 0.2 0.45 0.25 0.45 0.3 0.45 0.35 0.45 0.35 0.5 0.3 0.55 0.25 0.5 0.2 0.5 0.1 0.5 0.05 0.5 -0.05 0.45 -0.1 0.45 -0.1 0.45 -0.15 0.45 -0.15 0.4 -0.1 0.35 -0.1 0.4 -0.15 0.45 -0.1 0.4 -0.05 0.4 0.0 0.4 0.05 0.4" fill="#706754" fill-rule="evenodd" stroke="none"/>
    <path d="M0.35 0.5 L0.4 0.45 0.45 0.4 0.45 0.45 0.4 0.5 0.4 0.55 0.35 0.55 0.35 0.5" fill="#6d6450" fill-rule="evenodd" stroke="none"/>
    <path d="M0.3 0.9 L0.35 0.85 0.3 0.8 Q0.35 0.75 0.35 0.75 L0.35 0.8 0.4 0.75 0.45 0.7 0.4 0.75 0.4 0.85 0.3 0.9" fill="#615847" fill-rule="evenodd" stroke="none"/>
    <path d="M0.3 0.9 L0.4 0.85 0.4 0.75 0.45 0.8 Q0.45 0.85 0.5 0.8 L0.5 0.85 0.55 0.8 0.55 0.85 0.6 0.85 0.65 0.85 0.55 1.0 Q0.55 1.1 0.6 1.15 L0.55 1.2 0.5 1.2 0.45 1.15 0.35 1.2 0.3 1.25 0.25 1.25 0.25 1.2 0.2 1.25 0.15 1.25 0.2 1.2 Q0.2 1.15 0.15 1.2 L0.1 1.25 0.0 1.2 0.0 1.2 -0.05 1.2 Q-0.1 1.25 -0.05 1.2 L-0.05 1.15 -0.05 1.15 -0.05 1.05 -0.1 1.0 -0.2 1.0 -0.15 0.9 -0.05 0.95 -0.1 0.95 -0.1 1.0 -0.05 0.95 -0.05 1.0 Q-0.05 1.05 0.0 1.0 L0.05 0.95 0.0 0.95 0.0 0.9 0.05 0.85 0.1 0.9 0.1 0.95 0.15 0.95 0.25 0.95 0.3 0.9 M0.15 1.05 Q0.2 1.05 0.2 1.05 L0.25 1.05 0.3 1.0 0.25 1.05 0.3 1.05 0.35 1.0 Q0.3 1.05 0.3 0.95 L0.25 1.0 0.2 1.0 0.1 0.95 0.1 1.05 Q0.15 1.0 0.15 1.05" fill="#938267" fill-rule="evenodd" stroke="none"/>
    <path d="M0.65 0.7 L0.6 0.75 0.65 0.8 0.7 0.8 0.7 0.85 0.65 0.85 0.6 0.85 0.55 0.85 0.55 0.8 0.5 0.85 0.5 0.8 Q0.45 0.85 0.45 0.8 L0.5 0.75 0.55 0.8 0.55 0.75 0.6 0.75 0.65 0.7" fill="#5e5644" fill-rule="evenodd" stroke="none"/>
    <path d="M0.3 0.75 L0.25 0.8 0.2 0.8 0.15 0.75 0.2 0.7 0.3 0.75" fill="#6e6655" fill-rule="evenodd" stroke="none"/>
    <path d="M-0.1 0.65 L-0.05 0.65 0.0 0.65 0.05 0.7 0.05 0.75 Q0.05 0.7 0.05 0.7 L0.05 0.75 Q0.1 0.7 0.1 0.7 L0.2 0.7 0.15 0.75 0.1 0.75 0.15 0.7 0.1 0.75 0.05 0.75 0.0 0.75 -0.05 0.75 -0.1 0.75 -0.2 0.8 -0.15 0.75 -0.15 0.7 -0.15 0.65 -0.1 0.65" fill="#6b6453" fill-rule="evenodd" stroke="none"/>
    <path d="M-0.15 0.7 L-0.15 0.75 -0.2 0.8 -0.1 0.75 -0.05 0.75 0.0 0.75 0.05 0.75 0.05 0.8 0.0 0.85 0.0 0.8 -0.05 0.85 0.0 0.9 -0.05 0.95 -0.05 0.95 -0.15 0.9 -0.2 1.0 -0.1 1.0 -0.05 1.05 -0.05 1.15 -0.1 1.2 -0.1 1.2 -0.15 1.15 Q-0.15 1.15 -0.15 1.2 L-0.2 1.15 -0.2 1.2 -0.25 1.2 -0.25 1.2 Q-0.25 1.15 -0.25 1.15 L-0.3 1.2 -0.35 1.2 -0.35 1.2 -0.35 1.15 -0.3 1.1 -0.35 1.15 -0.4 1.2 Q-0.4 1.25 -0.35 1.25 L-0.3 1.25 -0.4 1.3 -0.5 1.3 -0.55 1.3 -0.6 1.25 Q-0.65 1.2 -0.65 1.25 L-0.8 1.25 -0.95 1.25 -1.05 1.3 -1.05 1.25 -1.1 1.25 -1.05 1.2 -1.05 1.15 -1.0 1.15 -0.95 1.2 -0.95 1.2 -0.9 1.2 -0.85 1.2 -0.85 1.2 -0.8 1.2 -0.75 1.2 -0.7 1.15 -0.6 1.1 -0.6 1.1 -0.55 1.15 -0.5 1.15 -0.45 1.15 -0.4 1.1 -0.5 1.1 -0.65 1.1 -0.65 1.0 Q-0.6 0.95 -0.65 0.9 L-0.7 0.85 -0.65 0.85 -0.65 0.9 -0.6 0.8 -0.55 0.85 -0.55 0.9 -0.45 0.9 Q-0.45 0.9 -0.4 0.85 L-0.4 0.9 -0.4 0.9 -0.35 0.9 -0.3 0.95 -0.3 0.95 Q-0.25 0.95 -0.3 1.0 L-0.3 1.0 -0.2 0.9 -0.25 0.9 -0.25 0.85 -0.25 0.8 -0.2 0.75 -0.2 0.7 -0.2 0.7 -0.15 0.7" fill="#ac9e83" fill-rule="evenodd" stroke="none"/>
    <path d="M0.0 0.9 L0.0 0.9 0.0 0.95 0.05 0.95 0.0 1.0 Q-0.05 1.05 -0.05 1.0 L-0.05 0.95 -0.1 1.0 -0.1 0.95 -0.05 0.95 -0.05 0.95 0.0 0.9" fill="#635948" fill-rule="evenodd" stroke="none"/>
    <path d="M0.15 1.05 Q0.15 1.0 0.1 1.05 L0.1 0.95 0.2 1.0 0.25 1.0 0.3 0.95 Q0.3 1.05 0.35 1.0 L0.3 1.05 0.25 1.05 0.3 1.0 0.25 1.05 0.2 1.05 Q0.2 1.05 0.15 1.05" fill="#625543" fill-rule="evenodd" stroke="none"/>
    <path d="M0.0 1.2 L0.1 1.25 0.15 1.2 Q0.2 1.15 0.2 1.2 L0.15 1.25 0.15 1.3 Q0.1 1.35 0.1 1.3 0.1 1.3 0.05 1.3 L0.05 1.3 0.0 1.25 0.0 1.2" fill="#6b5d48" fill-rule="evenodd" stroke="none"/>
    <path d="M-0.05 1.15 L-0.05 1.15 -0.05 1.2 Q-0.1 1.25 -0.05 1.2 L0.0 1.2 0.0 1.2 -0.05 1.25 -0.05 1.25 -0.1 1.25 -0.1 1.25 -0.15 1.25 -0.15 1.2 -0.25 1.3 -0.25 1.25 -0.2 1.2 -0.2 1.15 -0.15 1.2 Q-0.15 1.15 -0.15 1.15 L-0.1 1.2 -0.1 1.2 -0.05 1.15" fill="#635745" fill-rule="evenodd" stroke="none"/>
    <path d="M0.25 1.25 L0.3 1.25 0.35 1.2 0.45 1.15 0.5 1.2 0.55 1.2 Q0.6 1.2 0.6 1.25 L0.55 1.35 0.6 1.35 Q0.65 1.35 0.65 1.45 L0.5 1.45 0.35 1.45 0.35 1.35 0.3 1.35 0.25 1.35 0.3 1.35 0.3 1.3 0.25 1.3 Q0.25 1.3 0.25 1.35 L0.2 1.35 0.25 1.3 0.25 1.25" fill="#8a795d" fill-rule="evenodd" stroke="none"/>
    <path d="M0.2 1.25 L0.25 1.2 0.25 1.25 0.25 1.3 0.2 1.35 0.15 1.3 0.2 1.25" fill="#5e5341" fill-rule="evenodd" stroke="none"/>
    <path d="M0.85 0.6 L0.9 0.65 0.85 0.7 0.85 0.65 0.85 0.6" fill="#524939" fill-rule="evenodd" stroke="none"/>
    <path d="M0.85 0.75 L0.8 0.95 0.7 1.1 Q0.7 1.05 0.7 1.1 L0.65 1.15 Q0.6 1.15 0.6 1.15 0.55 1.1 0.55 1.0 L0.65 0.85 0.7 0.85 0.7 0.8 0.8 0.75 0.85 0.75" fill="#857359" fill-rule="evenodd" stroke="none"/>
    <path d="M0.65 0.8 L0.7 0.8 0.65 0.8" fill="#83765c" fill-rule="evenodd" stroke="none"/>
    <path d="M0.7 1.1 Q0.65 1.4 0.7 1.65 L0.7 1.75 0.65 1.8 Q0.65 1.75 0.6 1.8 L0.55 1.85 Q0.55 1.9 0.55 1.9 L0.4 1.95 0.25 1.9 0.3 1.85 0.25 1.8 0.25 1.7 0.3 1.65 0.3 1.6 0.35 1.5 0.3 1.55 0.25 1.6 0.25 1.65 0.25 1.7 0.2 1.7 0.15 1.65 0.1 1.65 0.05 1.55 0.1 1.55 0.1 1.5 0.05 1.5 0.1 1.5 0.1 1.4 0.15 1.4 0.15 1.45 0.25 1.35 0.3 1.35 0.35 1.35 0.35 1.45 0.5 1.45 0.65 1.45 Q0.65 1.35 0.6 1.35 L0.55 1.35 0.6 1.25 Q0.6 1.2 0.55 1.2 L0.6 1.15 Q0.6 1.15 0.65 1.15 L0.7 1.1 Q0.7 1.05 0.7 1.1 M0.25 1.6 L0.25 1.6 M0.55 1.65 L0.6 1.55 0.5 1.6 0.45 1.7 0.55 1.65 M0.45 1.55 L0.45 1.5 0.4 1.6 0.35 1.7 0.4 1.65 0.45 1.6 0.45 1.55 M0.15 1.55 L0.1 1.55 0.1 1.6 0.15 1.6 0.2 1.6 0.25 1.55 0.2 1.55 0.15 1.55 M0.5 1.6 L0.5 1.55 0.45 1.6 0.45 1.65 0.5 1.6" fill="#8e8268" fill-rule="evenodd" stroke="none"/>
    <path d="M-0.1 0.65 L-0.15 0.65 -0.15 0.7 -0.15 0.65 -0.2 0.65 -0.2 0.65 -0.25 0.65 -0.25 0.7 -0.2 0.7 -0.2 0.75 -0.25 0.8 -0.25 0.85 Q-0.3 0.85 -0.3 0.9 L-0.35 0.9 -0.4 0.9 -0.4 0.85 -0.45 0.85 -0.55 0.9 -0.55 0.85 -0.6 0.8 -0.55 0.8 Q-0.55 0.8 -0.6 0.75 L-0.5 0.75 Q-0.45 0.75 -0.45 0.8 L-0.4 0.75 -0.35 0.75 -0.4 0.7 -0.45 0.65 -0.4 0.65 -0.35 0.65 -0.4 0.65 -0.35 0.65 -0.3 0.65 -0.3 0.65 -0.25 0.55 -0.2 0.55 -0.15 0.55 -0.15 0.45 -0.1 0.45 -0.1 0.45 -0.05 0.5 -0.05 0.5 0.0 0.55 0.0 0.65 -0.05 0.65 -0.1 0.65" fill="#baaf93" fill-rule="evenodd" stroke="none"/>
    <path d="M0.65 1.8 L0.6 1.85 0.55 1.9 Q0.55 1.9 0.55 1.85 L0.6 1.8 Q0.65 1.75 0.65 1.8" fill="#b8ac91" fill-rule="evenodd" stroke="none"/>
    <path d="M0.55 1.65 L0.45 1.7 0.5 1.6 0.6 1.55 0.55 1.65" fill="#454033" fill-rule="evenodd" stroke="none"/>
    <path d="M0.3 1.3 L0.3 1.35 0.25 1.35 Q0.25 1.3 0.25 1.3 L0.3 1.3" fill="#574c3b" fill-rule="evenodd" stroke="none"/>
    <path d="M0.45 1.55 L0.45 1.6 0.4 1.65 0.35 1.7 0.4 1.6 0.45 1.5 0.45 1.55" fill="#4a4538" fill-rule="evenodd" stroke="none"/>
    <path d="M0.15 1.25 L0.2 1.25 0.15 1.3 0.2 1.35 0.25 1.35 0.15 1.45 0.15 1.4 0.1 1.4 0.0 1.55 -0.05 1.55 0.0 1.45 0.05 1.4 0.0 1.45 -0.05 1.5 -0.05 1.45 -0.1 1.45 -0.15 1.45 -0.1 1.4 -0.15 1.3 Q-0.1 1.3 -0.05 1.25 L-0.05 1.25 0.0 1.2 0.0 1.25 0.05 1.3 0.05 1.3 Q0.1 1.3 0.1 1.3 0.1 1.35 0.15 1.3 L0.15 1.25" fill="#a79577" fill-rule="evenodd" stroke="none"/>
    <path d="M-0.1 1.45 L-0.05 1.45 -0.05 1.5 0.0 1.45 0.05 1.4 0.0 1.45 -0.05 1.55 -0.05 1.5 -0.1 1.5 -0.1 1.5 -0.1 1.5 -0.15 1.5 -0.2 1.5 -0.2 1.5 -0.25 1.5 -0.3 1.5 -0.35 1.5 -0.4 1.5 -0.35 1.45 Q-0.35 1.4 -0.35 1.45 L-0.3 1.4 -0.3 1.45 -0.25 1.4 -0.2 1.35 -0.2 1.45 -0.2 1.45 -0.15 1.45 Q-0.15 1.5 -0.1 1.45" fill="#625948" fill-rule="evenodd" stroke="none"/>
    <path d="M0.1 1.4 L0.1 1.5 0.05 1.5 0.1 1.5 0.1 1.55 0.05 1.55 Q0.05 1.55 0.0 1.55 L0.1 1.4" fill="#5f5747" fill-rule="evenodd" stroke="none"/>
    <path d="M0.15 1.55 L0.2 1.55 0.25 1.55 0.2 1.6 0.15 1.6 0.1 1.6 0.1 1.55 0.15 1.55" fill="#575040" fill-rule="evenodd" stroke="none"/>
    <path d="M0.25 1.9 L0.15 1.85 0.0 1.85 0.0 1.75 -0.05 1.7 0.0 1.7 0.05 1.7 0.05 1.6 0.0 1.6 -0.05 1.6 -0.05 1.6 Q-0.05 1.55 -0.1 1.55 L-0.15 1.6 -0.15 1.6 -0.2 1.55 -0.25 1.55 -0.25 1.6 Q-0.25 1.65 -0.25 1.7 L-0.3 1.65 -0.3 1.6 -0.35 1.6 -0.4 1.55 -0.4 1.55 Q-0.4 1.5 -0.45 1.5 -0.45 1.45 -0.5 1.5 L-0.5 1.55 -0.55 1.55 -0.55 1.6 -0.55 1.65 -0.6 1.7 -0.8 1.6 -1.0 1.55 -1.05 1.5 -1.1 1.5 -1.05 1.45 -0.95 1.45 Q-0.9 1.4 -1.05 1.4 L-1.05 1.3 -1.1 1.3 -1.1 1.35 -1.15 1.35 -1.2 1.35 -1.2 1.3 -1.15 1.3 -1.15 1.35 -1.1 1.3 -1.1 1.25 -1.1 1.25 -1.05 1.25 -1.05 1.3 -1.0 1.3 Q-0.95 1.3 -1.0 1.35 L-1.0 1.4 -0.95 1.4 -0.9 1.35 -0.9 1.3 -0.95 1.25 -0.8 1.25 -0.65 1.25 Q-0.65 1.2 -0.6 1.25 L-0.55 1.3 -0.5 1.3 -0.4 1.3 -0.3 1.25 -0.35 1.25 Q-0.4 1.25 -0.4 1.2 L-0.35 1.2 -0.35 1.2 -0.3 1.2 -0.3 1.2 -0.25 1.2 -0.25 1.2 -0.2 1.2 -0.25 1.25 -0.25 1.3 -0.15 1.2 -0.15 1.25 -0.1 1.25 -0.1 1.25 -0.05 1.25 Q-0.1 1.3 -0.15 1.3 L-0.1 1.4 -0.15 1.45 -0.1 1.45 Q-0.15 1.5 -0.15 1.45 L-0.2 1.45 -0.2 1.45 -0.2 1.35 -0.25 1.4 -0.3 1.45 -0.3 1.4 -0.35 1.45 Q-0.35 1.4 -0.35 1.45 L-0.4 1.5 -0.35 1.5 -0.3 1.5 -0.25 1.5 -0.2 1.5 -0.2 1.5 -0.15 1.5 -0.1 1.5 -0.1 1.5 -0.1 1.5 -0.05 1.5 -0.05 1.55 0.0 1.55 Q0.05 1.55 0.05 1.55 L0.1 1.65 0.15 1.65 0.2 1.7 0.25 1.7 0.25 1.65 0.3 1.65 0.25 1.7 0.25 1.8 0.3 1.85 0.25 1.9 M-0.65 1.25 L-0.7 1.3 -0.8 1.3 -0.85 1.35 -0.7 1.4 -0.6 1.35 -0.6 1.4 -0.55 1.4 -0.55 1.45 -0.6 1.45 Q-0.55 1.5 -0.5 1.45 L-0.45 1.35 -0.5 1.35 -0.5 1.35 -0.6 1.35 -0.65 1.35 -0.65 1.3 -0.65 1.25 M-0.45 1.45 L-0.4 1.4 Q-0.35 1.35 -0.4 1.35 L-0.4 1.4 -0.45 1.45" fill="#96896f" fill-rule="evenodd" stroke="none"/>
    <path d="M0.0 1.85 L0.0 1.85 -0.1 1.85 -0.15 1.85 -0.4 1.8 -0.6 1.7 -0.55 1.65 -0.55 1.6 -0.55 1.55 -0.5 1.55 -0.5 1.5 Q-0.45 1.45 -0.45 1.5 -0.4 1.5 -0.4 1.55 L-0.4 1.55 -0.35 1.6 -0.3 1.6 -0.3 1.65 -0.25 1.7 Q-0.25 1.65 -0.25 1.6 L-0.25 1.55 -0.2 1.55 -0.15 1.6 -0.15 1.6 -0.1 1.55 Q-0.05 1.55 -0.05 1.6 L-0.05 1.6 0.0 1.6 0.05 1.6 0.05 1.7 0.0 1.7 -0.05 1.7 0.0 1.75 0.0 1.85" fill="#a19578" fill-rule="evenodd" stroke="none"/>
    <path d="M0.5 1.6 L0.45 1.65 0.45 1.6 0.5 1.55 0.5 1.6" fill="#332f25" fill-rule="evenodd" stroke="none"/>
    <path d="M0.25 1.6 L0.25 1.6" fill="#3c372b" fill-rule="evenodd" stroke="none"/>
    <path d="M0.25 1.65 L0.25 1.6 0.3 1.55 0.35 1.5 0.3 1.6 0.3 1.65 0.25 1.65" fill="#5a5342" fill-rule="evenodd" stroke="none"/>
    <path d="M-1.1 -1.35 Q-1.25 -1.65 -1.1 -1.8 L-1.0 -1.9 -0.85 -2.0 -0.75 -2.05 -0.6 -2.1 -0.35 -2.0 -0.25 -1.9 Q-0.15 -1.85 -0.1 -1.8 L-0.1 -1.8 -0.1 -1.55 -0.1 -1.6 -0.1 -1.65 -0.15 -1.6 -0.2 -1.5 -0.2 -1.7 Q-0.2 -1.8 -0.25 -1.85 L-0.3 -1.9 -0.4 -1.9 -0.55 -1.95 -0.7 -1.95 Q-0.9 -1.9 -1.0 -1.8 L-1.1 -1.7 Q-1.15 -1.65 -1.1 -1.65 L-1.1 -1.45 -1.05 -1.4 -1.0 -1.3 -0.9 -1.2 -0.75 -1.15 -0.85 -1.15 -1.05 -1.25 -1.1 -1.35" fill="#98272c" fill-rule="evenodd" stroke="none"/>
    <path d="M-1.0 -1.15 L-1.05 -1.25 -1.1 -1.35 -1.05 -1.25 -0.85 -1.15 -0.75 -1.15 -0.9 -1.2 -1.0 -1.3 -1.05 -1.4 -1.1 -1.45 -1.05 -1.5 -1.05 -1.5 -1.0 -1.45 -1.0 -1.45 -1.05 -1.45 -1.0 -1.4 -0.9 -1.35 -0.85 -1.35 -0.85 -1.3 -0.8 -1.3 -0.75 -1.3 -0.7 -1.3 -0.5 -1.3 -0.4 -1.4 -0.35 -1.4 Q-0.4 -1.45 -0.35 -1.45 L-0.35 -1.5 -0.3 -1.5 -0.25 -1.55 Q-0.25 -1.65 -0.3 -1.65 L-0.4 -1.65 -0.45 -1.65 -0.45 -1.6 -0.45 -1.55 -0.5 -1.6 -0.5 -1.55 -0.55 -1.5 -0.6 -1.45 -0.65 -1.4 -0.65 -1.45 -0.6 -1.5 -0.65 -1.5 -0.7 -1.5 -0.65 -1.6 -0.7 -1.55 -0.75 -1.55 -0.75 -1.5 -0.75 -1.5 -0.8 -1.6 -0.7 -1.65 -0.6 -1.65 -0.6 -1.65 -0.65 -1.6 -0.6 -1.55 -0.5 -1.6 -0.4 -1.7 -0.4 -1.75 Q-0.35 -1.75 -0.35 -1.8 L-0.45 -1.9 -0.4 -1.9 -0.4 -1.9 -0.3 -1.9 -0.25 -1.85 Q-0.2 -1.8 -0.2 -1.7 L-0.2 -1.5 -0.15 -1.6 -0.1 -1.65 -0.1 -1.6 -0.15 -1.45 -0.25 -1.35 -0.25 -1.3 -0.3 -1.2 Q-0.35 -1.15 -0.4 -1.2 L-0.3 -1.25 -0.25 -1.35 -0.3 -1.3 -0.35 -1.25 -0.5 -1.2 -0.7 -1.15 -0.6 -1.15 -0.5 -1.15 -0.5 -1.1 -0.45 -1.1 -0.55 -1.05 -0.7 -1.05 -0.75 -1.1 -0.85 -1.15 -0.9 -1.15 -1.0 -1.15 -1.0 -1.15 M-0.65 -1.4 L-0.65 -1.4 M-1.05 -1.5 L-1.05 -1.5 M-0.25 -1.5 L-0.35 -1.35 -0.4 -1.25 -0.3 -1.35 -0.25 -1.45 -0.25 -1.5" fill="#91141c" fill-rule="evenodd" stroke="none"/>
    <path d="M-0.4 -1.9 L-0.4 -1.9 -0.45 -1.9 -0.5 -1.9 -0.6 -1.9 -0.8 -1.85 -1.0 -1.7 -1.05 -1.6 -1.05 -1.5 -1.1 -1.45 -1.1 -1.65 Q-1.15 -1.65 -1.1 -1.7 L-1.0 -1.8 Q-0.9 -1.9 -0.7 -1.95 L-0.55 -1.95 -0.4 -1.9" fill="#6b1117" fill-rule="evenodd" stroke="none"/>
    <path d="M-0.45 -1.9 L-0.35 -1.8 Q-0.35 -1.75 -0.4 -1.75 L-0.5 -1.7 -0.6 -1.65 -0.7 -1.65 -0.8 -1.6 -0.75 -1.5 -0.75 -1.5 -0.75 -1.55 -0.7 -1.55 -0.65 -1.6 -0.7 -1.5 -0.7 -1.4 Q-0.7 -1.35 -0.65 -1.4 L-0.65 -1.35 Q-0.55 -1.4 -0.55 -1.5 L-0.5 -1.55 -0.5 -1.6 -0.45 -1.55 -0.45 -1.6 -0.4 -1.6 -0.35 -1.6 -0.4 -1.55 -0.35 -1.55 -0.3 -1.6 -0.3 -1.65 Q-0.25 -1.65 -0.25 -1.55 L-0.3 -1.5 -0.35 -1.5 -0.35 -1.45 Q-0.4 -1.45 -0.35 -1.4 L-0.4 -1.4 -0.5 -1.3 -0.7 -1.3 -0.75 -1.3 -0.8 -1.3 -0.85 -1.3 -0.85 -1.35 -0.9 -1.35 -1.0 -1.4 -1.05 -1.45 -1.0 -1.45 -1.0 -1.45 -0.9 -1.6 -0.85 -1.65 Q-0.85 -1.7 -0.85 -1.7 L-0.7 -1.75 -0.75 -1.65 -0.8 -1.6 Q-0.75 -1.6 -0.65 -1.65 L-0.65 -1.7 -0.65 -1.75 -0.7 -1.8 -0.6 -1.8 Q-0.5 -1.8 -0.45 -1.85 L-0.5 -1.9 -0.6 -1.9 -0.5 -1.9 -0.45 -1.9 M-0.65 -1.4 L-0.65 -1.4 M-0.85 -1.45 Q-0.9 -1.4 -0.8 -1.4 L-0.8 -1.55 -0.85 -1.45 M-0.95 -1.45 L-0.95 -1.45 -0.9 -1.5 -0.85 -1.55 Q-0.85 -1.55 -0.9 -1.55 L-0.95 -1.45" fill="#9e2027" fill-rule="evenodd" stroke="none"/>
    <path d="M-1.05 -1.5 L-1.05 -1.5 -1.05 -1.6 -1.0 -1.7 -0.8 -1.85 -0.6 -1.9 -0.5 -1.9 -0.45 -1.85 Q-0.5 -1.8 -0.6 -1.8 L-0.7 -1.8 -0.7 -1.8 -0.85 -1.8 -0.95 -1.75 -0.95 -1.7 -0.9 -1.65 -0.9 -1.65 Q-0.95 -1.6 -0.95 -1.65 L-1.05 -1.6 -1.05 -1.5" fill="#a12c31" fill-rule="evenodd" stroke="none"/>
    <path d="M-1.0 -1.45 L-1.0 -1.45 -1.05 -1.5 -1.05 -1.5 -1.05 -1.6 -0.95 -1.65 Q-0.95 -1.6 -0.9 -1.65 L-0.9 -1.65 -0.95 -1.7 -0.95 -1.75 -0.85 -1.8 -0.7 -1.8 -0.7 -1.8 -0.65 -1.75 -0.65 -1.7 -0.65 -1.65 Q-0.75 -1.6 -0.8 -1.6 L-0.75 -1.65 -0.7 -1.75 -0.85 -1.7 Q-0.85 -1.7 -0.85 -1.65 L-0.9 -1.6 -1.0 -1.45 -1.0 -1.45" fill="#610f14" fill-rule="evenodd" stroke="none"/>
    <path d="M-0.4 -1.75 L-0.4 -1.7 -0.5 -1.6 -0.6 -1.55 -0.65 -1.6 -0.6 -1.65 -0.6 -1.65 -0.5 -1.7 -0.4 -1.75" fill="#621016" fill-rule="evenodd" stroke="none"/>
    <path d="M-0.85 -1.45 L-0.8 -1.55 -0.8 -1.4 Q-0.9 -1.4 -0.85 -1.45" fill="#730c15" fill-rule="evenodd" stroke="none"/>
    <path d="M-0.95 -1.45 L-0.9 -1.55 Q-0.85 -1.55 -0.85 -1.55 L-0.9 -1.5 -0.95 -1.45 -0.95 -1.45" fill="#c04240" fill-rule="evenodd" stroke="none"/>
    <path d="M-0.65 -1.4 L-0.6 -1.45 -0.55 -1.5 Q-0.55 -1.4 -0.65 -1.35 L-0.65 -1.4" fill="#cc4a49" fill-rule="evenodd" stroke="none"/>
    <path d="M-0.7 -1.5 L-0.65 -1.5 -0.6 -1.5 -0.65 -1.45 -0.65 -1.4 Q-0.7 -1.35 -0.7 -1.4 L-0.7 -1.5" fill="#6b0b11" fill-rule="evenodd" stroke="none"/>
    <path d="M-0.1 -1.5 L-0.1 -1.35 -0.15 -1.25 -0.2 -1.2 -0.25 -1.15 -0.3 -1.1 -0.35 -1.1 -0.4 -1.05 -0.4 -1.05 -0.45 -1.0 -0.7 -1.0 -0.85 -1.05 Q-0.95 -1.1 -1.0 -1.15 L-0.9 -1.15 -0.85 -1.15 -0.75 -1.1 -0.7 -1.05 -0.55 -1.05 -0.45 -1.1 -0.5 -1.1 -0.5 -1.15 -0.45 -1.15 -0.4 -1.2 Q-0.35 -1.15 -0.3 -1.2 L-0.25 -1.3 -0.25 -1.35 -0.15 -1.45 -0.1 -1.6 -0.1 -1.55 -0.1 -1.5" fill="#7d151a" fill-rule="evenodd" stroke="none"/>
    <path d="M-0.45 -1.6 L-0.45 -1.65 -0.4 -1.65 -0.3 -1.65 -0.3 -1.6 -0.35 -1.55 -0.4 -1.55 -0.35 -1.6 -0.4 -1.6 -0.45 -1.6" fill="#6e0f15" fill-rule="evenodd" stroke="none"/>
    <path d="M-0.4 -1.2 L-0.45 -1.15 -0.5 -1.15 -0.6 -1.15 -0.7 -1.15 -0.5 -1.2 -0.35 -1.25 -0.3 -1.3 -0.25 -1.35 -0.3 -1.25 -0.4 -1.2" fill="#ab373b" fill-rule="evenodd" stroke="none"/>
    <path d="M-0.25 -1.5 L-0.25 -1.45 -0.3 -1.35 -0.4 -1.25 -0.35 -1.35 -0.25 -1.5" fill="#b0252d" fill-rule="evenodd" stroke="none"/>
    <path d="M-0.15 -1.3 L-0.05 -1.25 -0.05 -1.2 -0.1 -1.1 -0.15 -1.1 -0.15 -1.1 -0.15 -1.1 -0.2 -1.1 -0.2 -1.15 -0.25 -1.1 -0.25 -1.15 -0.2 -1.2 -0.15 -1.25 -0.15 -1.3" fill="#c2b998" fill-rule="evenodd" stroke="none"/>
    <path d="M-0.6 -0.85 L-0.65 -0.9 -0.65 -1.0 -0.7 -0.95 -0.75 -0.95 -0.75 -0.95 -0.8 -0.95 -0.8 -0.9 -0.75 -0.9 -0.65 -0.85 -0.65 -0.85 Q-0.7 -0.8 -0.7 -0.8 -0.7 -0.8 -0.65 -0.75 L-0.6 -0.7 Q-0.6 -0.7 -0.65 -0.7 L-0.7 -0.7 -0.7 -0.7 -0.7 -0.8 -0.75 -0.8 -0.8 -0.75 -0.8 -0.7 -0.85 -0.75 -0.9 -0.7 -0.95 -0.7 -0.9 -0.65 -0.9 -0.5 -1.0 -0.45 -1.05 -0.4 -0.95 -0.4 -0.9 -0.45 -0.85 -0.4 -0.8 -0.4 -0.75 -0.45 -0.75 -0.5 -0.85 -0.5 -0.8 -0.55 -0.8 -0.6 -0.7 -0.6 -0.65 -0.6 -0.6 -0.65 -0.6 -0.45 -0.65 -0.45 -0.7 -0.45 -0.7 -0.4 -0.65 -0.4 -0.7 -0.3 -0.7 -0.2 -0.75 -0.2 -0.75 -0.2 -0.75 -0.2 -0.8 -0.2 -0.8 -0.15 -0.7 -0.15 -0.65 -0.15 -0.65 -0.15 -0.75 -0.1 -0.85 -0.1 -0.9 -0.05 -0.9 -0.05 Q-0.95 0.0 -1.0 0.0 L-1.05 0.0 -1.05 0.05 -1.0 0.05 Q-1.0 0.0 -1.0 0.05 L-0.95 0.05 -0.9 0.05 -0.9 0.05 -0.9 0.05 -0.85 0.1 -0.9 0.1 -0.9 0.1 -0.95 0.2 -1.0 0.25 Q-1.0 0.25 -1.1 0.25 L-1.25 0.2 -1.25 0.2 -1.3 0.25 -1.3 0.2 -1.25 0.15 Q-1.25 0.1 -1.3 0.1 L-1.25 -0.05 -1.25 -0.2 -1.15 -0.35 -1.05 -0.5 -1.0 -0.65 -1.0 -0.85 -1.0 -1.05 -1.0 -1.15 Q-0.95 -1.1 -0.85 -1.05 L-0.7 -1.0 -0.65 -1.0 -0.55 -1.0 -0.55 -0.95 -0.6 -0.9 -0.6 -0.85 M-1.1 0.0 L-1.15 0.0 -1.2 0.0 -1.2 0.05 -1.15 0.0 -1.15 0.05 -1.1 0.05 Q-1.05 0.0 -1.1 0.0 M-0.95 -0.2 L-0.9 -0.2 -0.85 -0.15 -0.75 -0.3 -0.8 -0.25 -0.85 -0.2 -0.9 -0.25 -0.9 -0.25 -1.0 -0.3 -1.05 -0.35 -1.1 -0.25 Q-1.1 -0.2 -1.1 -0.2 L-1.0 -0.15 -0.95 -0.2 M-1.0 -1.15 L-1.0 -1.15 M-0.6 -0.65 L-0.6 -0.65" fill="#999175" fill-rule="evenodd" stroke="none"/>
    <path d="M-1.1 0.0 Q-1.05 0.0 -1.1 0.05 L-1.15 0.05 -1.15 0.0 -1.2 0.05 -1.2 0.0 -1.15 0.0 -1.1 0.0" fill="#65604d" fill-rule="evenodd" stroke="none"/>
    <path d="M-0.95 -0.2 L-1.0 -0.2 -1.1 -0.2 -1.1 -0.25 -1.05 -0.25 -1.05 -0.25 -1.0 -0.3 -1.0 -0.25 -0.9 -0.25 -0.9 -0.25 -0.85 -0.2 -0.8 -0.25 -0.75 -0.3 -0.85 -0.15 -0.9 -0.2 -0.95 -0.2" fill="#605b48" fill-rule="evenodd" stroke="none"/>
    <path d="M-0.9 -0.25 L-1.0 -0.25 -1.0 -0.3 -1.05 -0.25 -1.05 -0.25 -1.1 -0.25 -1.1 -0.2 -1.0 -0.2 -0.95 -0.2 -1.0 -0.15 -1.1 -0.2 Q-1.1 -0.2 -1.1 -0.25 L-1.05 -0.35 -1.0 -0.3 -0.9 -0.25" fill="#817a64" fill-rule="evenodd" stroke="none"/>
    <path d="M-0.05 -1.2 L-0.05 -1.05 -0.1 -1.05 -0.15 -1.0 Q-0.2 -1.0 -0.15 -1.0 L-0.15 -1.1 -0.1 -1.1 -0.05 -1.2" fill="#746f5c" fill-rule="evenodd" stroke="none"/>
    <path d="M-0.2 -1.1 L-0.15 -1.1 -0.15 -1.1 -0.15 -1.1 -0.2 -1.05 -0.2 -1.1 -0.2 -1.1" fill="#746f5d" fill-rule="evenodd" stroke="none"/>
    <path d="M-0.3 -1.1 L-0.25 -1.15 -0.25 -1.1 -0.2 -1.15 -0.2 -1.1 -0.25 -1.05 -0.25 -1.05 -0.3 -1.1 -0.3 -1.1 M-0.2 -1.1 L-0.2 -1.1" fill="#817a65" fill-rule="evenodd" stroke="none"/>
    <path d="M-0.45 -1.0 Q-0.4 -1.0 -0.45 -0.95 L-0.5 -0.9 -0.5 -0.85 -0.55 -0.85 -0.6 -0.85 -0.6 -0.9 -0.55 -0.95 -0.5 -0.95 -0.45 -1.0" fill="#726e57" fill-rule="evenodd" stroke="none"/>
    <path d="M-0.4 -1.05 L-0.35 -1.1 -0.35 -1.05 -0.4 -1.05 -0.35 -1.05 -0.4 -1.05" fill="#80705f" fill-rule="evenodd" stroke="none"/>
    <path d="M-0.2 -0.85 L-0.2 -0.8 -0.25 -0.85 -0.3 -0.85 -0.35 -0.8 -0.35 -0.85 -0.4 -0.85 -0.45 -0.8 -0.45 -0.85 -0.4 -0.9 -0.35 -0.9 -0.35 -0.9 -0.25 -0.9 -0.2 -0.95 -0.2 -0.85" fill="#757058" fill-rule="evenodd" stroke="none"/>
    <path d="M-0.5 -0.65 L-0.45 -0.7 -0.4 -0.75 -0.4 -0.65 -0.4 -0.65 -0.35 -0.65 -0.35 -0.65 -0.4 -0.6 -0.4 -0.65 -0.4 -0.6 -0.45 -0.6 -0.5 -0.65" fill="#706a57" fill-rule="evenodd" stroke="none"/>
    <path d="M-0.15 -0.85 L-0.15 -0.85 -0.1 -0.9 -0.1 -0.9 -0.15 -0.85" fill="#5f5b4b" fill-rule="evenodd" stroke="none"/>
    <path d="M-0.3 -0.55 L-0.3 -0.6 -0.3 -0.6 -0.35 -0.6 -0.25 -0.7 -0.25 -0.65 -0.2 -0.65 -0.25 -0.6 -0.25 -0.55 Q-0.3 -0.55 -0.3 -0.55 L-0.3 -0.55" fill="#716c5a" fill-rule="evenodd" stroke="none"/>
    <path d="M-0.2 -0.55 L-0.2 -0.6 -0.15 -0.65 -0.15 -0.6 -0.15 -0.6 -0.2 -0.55" fill="#716c55" fill-rule="evenodd" stroke="none"/>
    <path d="M-0.65 -0.9 L-0.65 -0.85 -0.75 -0.9 -0.8 -0.9 -0.8 -0.95 -0.75 -0.95 -0.75 -0.95 -0.7 -0.95 -0.65 -1.0 -0.65 -0.9" fill="#69654d" fill-rule="evenodd" stroke="none"/>
    <path d="M-0.7 -1.0 L-0.45 -1.0 -0.55 -1.0 -0.65 -1.0 -0.7 -1.0" fill="#845b4e" fill-rule="evenodd" stroke="none"/>
    <path d="M-1.0 -0.85 L-1.0 -1.05 -1.0 -0.85" fill="#635e4c" fill-rule="evenodd" stroke="none"/>
    <path d="M-0.9 -0.7 L-0.85 -0.75 -0.8 -0.7 -0.8 -0.75 -0.75 -0.8 -0.8 -0.7 Q-0.8 -0.65 -0.85 -0.7 L-0.9 -0.65 -0.9 -0.7" fill="#5e5946" fill-rule="evenodd" stroke="none"/>
    <path d="M-0.9 -0.5 L-0.9 -0.65 -0.95 -0.7 -0.9 -0.7 -0.9 -0.65 -0.85 -0.7 Q-0.8 -0.65 -0.8 -0.7 L-0.75 -0.8 -0.7 -0.8 -0.7 -0.7 -0.75 -0.7 -0.7 -0.65 -0.65 -0.65 -0.65 -0.65 -0.6 -0.65 -0.65 -0.6 -0.7 -0.6 -0.8 -0.6 -0.8 -0.55 -0.85 -0.5 -0.75 -0.5 -0.8 -0.45 -0.8 -0.4 -0.85 -0.45 -0.9 -0.5" fill="#8a8267" fill-rule="evenodd" stroke="none"/>
    <path d="M-0.6 -0.7 Q-0.55 -0.75 -0.55 -0.7 L-0.6 -0.65 -0.65 -0.65 -0.65 -0.65 -0.7 -0.65 -0.75 -0.7 -0.7 -0.7 -0.7 -0.7 -0.65 -0.7 Q-0.6 -0.7 -0.6 -0.7 M-0.6 -0.65 L-0.6 -0.65" fill="#645f4b" fill-rule="evenodd" stroke="none"/>
    <path d="M-0.5 -0.65 L-0.5 -0.65 -0.5 -0.65 -0.55 -0.65 -0.5 -0.7 -0.5 -0.65" fill="#6a6551" fill-rule="evenodd" stroke="none"/>
    <path d="M-0.6 -0.45 L-0.65 -0.4 -0.65 -0.4 -0.7 -0.4 -0.7 -0.45 -0.65 -0.45 -0.6 -0.45" fill="#686353" fill-rule="evenodd" stroke="none"/>
    <path d="M-0.55 0.05 L-0.6 0.05 -0.65 0.0 -0.55 -0.1 -0.55 -0.2 -0.6 -0.2 -0.65 -0.25 -0.6 -0.35 -0.55 -0.4 -0.5 -0.4 -0.5 -0.45 -0.55 -0.4 -0.55 -0.45 -0.6 -0.45 -0.55 -0.55 -0.5 -0.6 -0.4 -0.6 -0.3 -0.55 -0.35 -0.45 -0.35 -0.45 -0.4 -0.4 -0.45 -0.4 -0.45 -0.35 -0.4 -0.35 -0.35 -0.35 -0.4 -0.3 Q-0.4 -0.3 -0.35 -0.3 L-0.35 -0.35 -0.3 -0.35 -0.2 -0.3 -0.2 -0.25 -0.2 -0.2 -0.25 -0.15 -0.3 -0.15 -0.3 -0.2 -0.35 -0.15 -0.35 -0.1 -0.3 -0.1 -0.3 -0.1 -0.3 0.0 -0.25 0.0 -0.25 0.0 Q-0.2 0.05 -0.2 0.05 L-0.25 0.1 -0.3 0.15 -0.25 0.15 -0.25 0.15 -0.2 0.15 -0.2 0.2 -0.15 0.2 -0.1 0.2 -0.1 0.35 -0.15 0.4 -0.15 0.45 -0.15 0.55 -0.2 0.55 -0.25 0.55 -0.3 0.6 -0.3 0.6 -0.35 0.6 -0.45 0.6 -0.4 0.55 -0.45 0.6 -0.45 0.55 -0.5 0.6 -0.55 0.55 -0.55 0.55 -0.6 0.5 -0.65 0.5 -0.65 0.5 -0.6 0.45 -0.55 0.35 -0.55 0.3 -0.55 0.3 -0.55 0.25 -0.5 0.25 Q-0.45 0.2 -0.5 0.15 L-0.45 0.1 -0.5 0.1 -0.55 0.05 M-0.15 -0.35 L-0.15 -0.3 -0.2 -0.3 Q-0.15 -0.3 -0.15 -0.35 M-0.3 -0.55 L-0.3 -0.55 M-0.4 -0.2 Q-0.45 -0.2 -0.45 -0.2 L-0.5 -0.2 -0.5 -0.1 -0.4 -0.15 -0.4 -0.15 -0.4 -0.2 M-0.35 0.15 Q-0.3 0.1 -0.35 0.1 L-0.35 0.05 -0.4 0.1 -0.4 0.15 -0.4 0.15 -0.35 0.15 M-0.35 0.45 L-0.35 0.4 -0.3 0.35 Q-0.3 0.35 -0.35 0.35 L-0.4 0.4 -0.4 0.45 -0.35 0.45 M-0.4 0.35 L-0.45 0.4 -0.4 0.35 M-0.2 0.35 L-0.25 0.4 -0.25 0.45 -0.2 0.4 -0.2 0.35 M-0.45 0.3 L-0.5 0.35 -0.5 0.4 -0.5 0.4 -0.45 0.35 Q-0.4 0.3 -0.45 0.3" fill="#c9c0a4" fill-rule="evenodd" stroke="none"/>
    <path d="M-0.55 -0.4 L-0.6 -0.35 -0.6 -0.45 -0.55 -0.45 -0.55 -0.4" fill="#6f6a5b" fill-rule="evenodd" stroke="none"/>
    <path d="M-0.75 -0.5 L-0.75 -0.45 -0.8 -0.4 -0.85 -0.4 -0.9 -0.45 -0.95 -0.4 -1.05 -0.4 -1.0 -0.45 -0.9 -0.5 -0.85 -0.45 -0.8 -0.4 -0.8 -0.45 -0.75 -0.5" fill="#64604f" fill-rule="evenodd" stroke="none"/>
    <path d="M-0.7 -0.2 L-0.6 -0.2 -0.55 -0.2 -0.6 -0.15 -0.65 -0.1 -0.7 -0.1 -0.7 -0.1 -0.65 -0.15 -0.65 -0.15 -0.7 -0.15 -0.8 -0.15 -0.8 -0.2 -0.75 -0.2 -0.75 -0.2 -0.75 -0.2 -0.7 -0.2" fill="#6a6451" fill-rule="evenodd" stroke="none"/>
    <path d="M-0.2 -0.3 L-0.2 -0.35 -0.25 -0.35 -0.25 -0.35 -0.2 -0.4 -0.15 -0.4 -0.1 -0.45 -0.15 -0.4 -0.15 -0.35 Q-0.15 -0.3 -0.2 -0.3" fill="#777362" fill-rule="evenodd" stroke="none"/>
    <path d="M-0.15 -0.35 L-0.1 -0.35 -0.1 -0.4 -0.1 -0.3 -0.2 -0.25 -0.2 -0.3 -0.15 -0.3 -0.15 -0.35" fill="#74705e" fill-rule="evenodd" stroke="none"/>
    <path d="M-0.3 -0.35 L-0.35 -0.35 -0.35 -0.3 Q-0.4 -0.3 -0.4 -0.3 L-0.35 -0.35 -0.4 -0.35 -0.45 -0.35 -0.45 -0.4 -0.4 -0.4 -0.35 -0.45 -0.35 -0.45 -0.35 -0.4 -0.3 -0.4 -0.25 -0.4 -0.25 -0.35 -0.3 -0.35" fill="#868270" fill-rule="evenodd" stroke="none"/>
    <path d="M-0.4 -0.2 L-0.4 -0.15 -0.4 -0.15 -0.5 -0.1 -0.5 -0.2 -0.45 -0.2 Q-0.45 -0.2 -0.4 -0.2" fill="#807a68" fill-rule="evenodd" stroke="none"/>
    <path d="M-0.25 -0.15 L-0.2 -0.15 -0.2 -0.1 -0.25 -0.05 -0.25 -0.1 -0.3 -0.1 -0.3 -0.1 -0.3 -0.1 -0.35 -0.1 -0.35 -0.15 -0.3 -0.2 -0.3 -0.15 -0.25 -0.15" fill="#7e7966" fill-rule="evenodd" stroke="none"/>
    <path d="M-0.15 -0.05 L-0.15 0.0 Q-0.15 0.05 -0.2 0.05 -0.2 0.05 -0.25 0.0 L-0.25 0.0 -0.3 0.0 -0.3 -0.1 -0.3 -0.1 -0.25 -0.1 -0.25 -0.05 Q-0.2 -0.05 -0.2 -0.05 L-0.15 -0.1 -0.15 -0.05 M-0.2 0.05 L-0.2 0.05" fill="#b8b294" fill-rule="evenodd" stroke="none"/>
    <path d="M-0.2 0.05 L-0.2 0.05 -0.2 0.05 -0.2 0.1 Q-0.2 0.15 -0.15 0.15 -0.1 0.15 -0.1 0.15 L-0.05 0.1 -0.05 0.1 -0.05 0.2 -0.1 0.2 -0.1 0.2 -0.15 0.2 -0.2 0.2 -0.2 0.15 -0.25 0.15 -0.25 0.15 -0.3 0.15 -0.25 0.1 -0.2 0.05" fill="#7e7866" fill-rule="evenodd" stroke="none"/>
    <path d="M-0.2 0.05 L-0.1 0.05 -0.05 0.0 -0.05 0.1 -0.1 0.15 Q-0.1 0.15 -0.15 0.15 -0.2 0.15 -0.2 0.1 L-0.2 0.05" fill="#bdb498" fill-rule="evenodd" stroke="none"/>
    <path d="M-0.35 0.15 L-0.4 0.15 -0.4 0.15 -0.4 0.1 -0.35 0.05 -0.35 0.1 Q-0.3 0.1 -0.35 0.15" fill="#87816e" fill-rule="evenodd" stroke="none"/>
    <path d="M-0.65 0.1 L-0.65 0.05 -0.55 0.05 -0.5 0.1 -0.45 0.1 -0.5 0.15 -0.55 0.15 Q-0.6 0.1 -0.6 0.1 L-0.6 0.1 -0.65 0.1" fill="#7e7865" fill-rule="evenodd" stroke="none"/>
    <path d="M-0.35 0.45 L-0.4 0.45 -0.4 0.4 -0.35 0.35 Q-0.3 0.35 -0.3 0.35 L-0.35 0.4 -0.35 0.45" fill="#7c7665" fill-rule="evenodd" stroke="none"/>
    <path d="M-0.4 0.35 L-0.45 0.4 -0.4 0.35" fill="#86806d" fill-rule="evenodd" stroke="none"/>
    <path d="M-0.25 0.55 L-0.3 0.65 -0.3 0.65 -0.35 0.65 -0.4 0.65 -0.35 0.65 -0.4 0.65 -0.45 0.65 Q-0.45 0.65 -0.5 0.65 L-0.55 0.65 -0.55 0.65 -0.6 0.65 -0.65 0.65 -0.7 0.7 -0.65 0.6 -0.6 0.55 -0.6 0.6 -0.55 0.55 -0.5 0.6 -0.45 0.55 -0.45 0.6 -0.4 0.55 -0.45 0.6 -0.35 0.6 -0.3 0.6 -0.3 0.6 -0.25 0.55 M-0.45 0.3 Q-0.4 0.3 -0.45 0.35 L-0.5 0.4 -0.5 0.4 -0.5 0.35 -0.45 0.3" fill="#827b68" fill-rule="evenodd" stroke="none"/>
    <path d="M-0.2 0.35 L-0.2 0.4 -0.25 0.45 -0.25 0.4 -0.2 0.35" fill="#7a7564" fill-rule="evenodd" stroke="none"/>
    <path d="M-0.6 0.3 L-0.6 0.25 -0.65 0.2 -0.75 0.15 -0.7 0.1 -0.65 0.1 -0.6 0.1 -0.6 0.1 Q-0.6 0.1 -0.55 0.15 L-0.5 0.15 Q-0.45 0.2 -0.5 0.25 L-0.55 0.25 -0.55 0.3 -0.6 0.3 -0.6 0.3" fill="#b8af92" fill-rule="evenodd" stroke="none"/>
    <path d="M-0.9 -0.05 L-0.85 0.05 -0.8 0.0 -0.75 -0.05 -0.75 0.0 -0.8 0.05 -0.75 0.05 -0.75 0.05 Q-0.7 0.05 -0.7 0.0 L-0.65 0.0 -0.7 0.05 -0.75 0.1 -0.75 0.05 -0.8 0.05 -0.85 0.1 -0.9 0.05 -0.9 0.05 -0.9 0.05 -0.95 0.05 -1.0 0.05 Q-1.0 0.0 -1.0 0.05 L-1.05 0.05 -1.05 0.0 -1.0 0.0 Q-0.95 0.0 -0.9 -0.05" fill="#6d6856" fill-rule="evenodd" stroke="none"/>
    <path d="M-0.9 0.1 L-0.9 0.25 -0.9 0.25 -0.95 0.3 -0.9 0.25 -0.9 0.35 -0.95 0.35 -1.0 0.35 -1.05 0.4 -1.1 0.4 -1.05 0.45 -1.0 0.5 -1.05 0.5 -1.1 0.5 -1.1 0.5 Q-1.15 0.5 -1.1 0.45 L-1.15 0.45 -1.15 0.5 -1.3 0.45 -1.4 0.5 -1.4 0.55 -1.35 0.5 -1.3 0.5 Q-1.3 0.55 -1.25 0.5 L-1.25 0.5 -1.2 0.5 -1.15 0.55 -1.15 0.55 -1.1 0.55 -1.0 0.55 -1.0 0.55 -1.0 0.6 -1.05 0.6 -1.05 0.55 -1.1 0.6 -1.05 0.7 Q-1.1 0.75 -1.15 0.75 L-1.25 0.7 -1.3 0.7 -1.25 0.65 -1.3 0.7 -1.35 0.7 -1.4 0.7 -1.45 0.75 -1.4 0.75 -1.4 0.75 -1.35 0.75 -1.35 0.75 Q-1.35 0.7 -1.35 0.75 L-1.35 0.75 -1.3 0.75 -1.25 0.8 -1.2 0.8 -1.15 0.75 Q-1.1 0.75 -1.1 0.8 L-1.15 0.8 -1.2 0.85 -1.2 0.9 -1.1 0.95 -1.1 0.95 -1.15 0.95 -1.15 1.0 -1.2 0.95 -1.25 1.0 -1.25 1.0 -1.2 1.0 -1.2 1.05 -1.25 1.05 -1.35 1.1 -1.35 1.1 -1.4 1.1 -1.35 1.05 -1.35 1.05 -1.4 1.0 -1.45 1.05 -1.45 1.15 Q-1.45 1.2 -1.5 1.2 L-1.45 1.15 -1.5 1.15 -1.55 1.2 -1.55 1.2 -1.5 1.15 -1.55 1.15 -1.6 1.2 -1.55 1.15 -1.55 1.05 -1.55 1.0 -1.6 0.95 -1.55 0.85 -1.55 0.6 -1.5 0.45 -1.4 0.3 -1.3 0.1 Q-1.25 0.1 -1.25 0.15 L-1.3 0.2 -1.3 0.25 -1.3 0.3 -1.15 0.3 -1.0 0.3 -1.0 0.25 -0.95 0.2 -0.9 0.1" fill="#9e947b" fill-rule="evenodd" stroke="none"/>
    <path d="M-0.9 0.25 L-0.9 0.25 -0.9 0.25 -0.95 0.3 -0.9 0.25" fill="#706a58" fill-rule="evenodd" stroke="none"/>
    <path d="M-1.0 0.25 L-1.0 0.3 -1.15 0.3 -1.3 0.3 -1.3 0.25 -1.25 0.2 -1.25 0.2 -1.1 0.25 Q-1.0 0.25 -1.0 0.25" fill="#68624f" fill-rule="evenodd" stroke="none"/>
    <path d="M-0.9 0.25 L-0.8 0.25 -0.8 0.3 -0.7 0.3 -0.6 0.3 -0.6 0.3 -0.55 0.3 -0.55 0.3 -0.55 0.35 -0.65 0.4 -0.7 0.35 -0.75 0.35 -0.8 0.4 -0.75 0.35 -0.75 0.3 -0.8 0.35 -0.8 0.3 -0.85 0.35 -0.85 0.3 -0.9 0.35 -0.9 0.25" fill="#756f5d" fill-rule="evenodd" stroke="none"/>
    <path d="M-0.9 0.35 L-0.85 0.3 -0.85 0.35 -0.8 0.3 -0.8 0.35 -0.75 0.3 -0.75 0.35 -0.8 0.4 -0.75 0.35 -0.7 0.35 -0.65 0.4 -0.55 0.35 -0.6 0.45 -0.65 0.5 Q-0.65 0.4 -0.7 0.45 L-0.8 0.5 Q-0.85 0.5 -0.8 0.5 L-0.75 0.55 -0.75 0.55 -0.8 0.55 -0.8 0.55 -0.85 0.55 -0.85 0.55 -0.85 0.6 -0.85 0.6 -0.85 0.6 -0.9 0.6 Q-0.95 0.6 -1.0 0.65 L-1.0 0.8 -0.95 0.8 -0.95 0.8 -0.95 0.8 -0.9 0.8 -0.9 0.75 -0.85 0.8 -0.9 0.85 -0.85 0.8 Q-0.8 0.8 -0.8 0.85 L-0.8 0.85 -0.75 0.8 -0.7 0.8 -0.8 0.85 -0.7 0.85 -0.65 0.9 Q-0.6 0.95 -0.65 1.0 L-0.65 1.1 -0.7 1.1 -0.75 1.2 -0.8 1.2 -0.85 1.2 -0.85 1.2 -0.9 1.2 -0.95 1.2 -0.95 1.2 -1.0 1.15 -1.05 1.15 -1.05 1.2 -1.1 1.25 -1.15 1.25 -1.2 1.3 -1.2 1.25 -1.2 1.2 -1.2 1.2 -1.25 1.15 -1.3 1.15 -1.3 1.05 -1.25 1.05 -1.25 1.1 -1.25 1.15 -1.2 1.15 -1.2 1.1 -1.15 1.05 -1.1 1.05 -1.05 1.05 -1.0 1.05 -1.0 1.0 -1.05 1.0 Q-1.1 1.0 -1.1 1.0 L-1.05 0.9 -1.1 0.95 -1.2 0.9 -1.2 0.85 -1.15 0.8 -1.1 0.8 -1.1 0.75 -1.05 0.7 -1.05 0.7 -1.1 0.6 -1.05 0.55 -1.05 0.6 -1.0 0.6 -0.95 0.45 -1.0 0.55 -1.0 0.5 -1.05 0.45 -1.1 0.4 -1.05 0.4 -1.0 0.35 -0.95 0.35 -0.9 0.35 M-1.0 0.55 L-1.0 0.55 M-1.1 1.25 L-1.1 1.25 M-0.9 0.75 L-0.95 0.8 -0.95 0.75 -0.9 0.75 M-1.0 0.8 L-1.0 0.8 -1.05 0.8 -1.05 0.8 -1.0 0.8 M-0.9 0.85 L-0.9 0.9 -0.85 0.85 -0.85 0.8 -0.9 0.85 M-0.85 1.05 L-0.85 1.05 -0.9 1.05 -0.9 1.0 -0.85 0.95 -0.9 0.95 -0.95 1.0 -0.95 1.1 Q-0.9 1.05 -0.9 1.1 L-0.9 1.15 -0.95 1.15 -0.9 1.15 -0.85 1.05 M-0.8 1.1 L-0.8 1.1 -0.75 1.1 -0.75 1.05 -0.8 1.05 -0.8 1.1" fill="#b5a98e" fill-rule="evenodd" stroke="none"/>
    <path d="M-1.0 0.5 L-1.0 0.55 -1.1 0.55 -1.15 0.55 -1.15 0.55 -1.2 0.5 -1.25 0.5 -1.25 0.5 Q-1.3 0.55 -1.3 0.5 L-1.35 0.5 -1.4 0.55 -1.4 0.5 -1.3 0.45 -1.15 0.5 -1.15 0.45 -1.1 0.45 Q-1.15 0.5 -1.1 0.5 L-1.1 0.5 -1.05 0.5 -1.0 0.5" fill="#6a6454" fill-rule="evenodd" stroke="none"/>
    <path d="M-1.0 0.55 L-0.95 0.45 -1.0 0.6 -1.0 0.55" fill="#736c59" fill-rule="evenodd" stroke="none"/>
    <path d="M-0.85 0.6 L-0.85 0.6 -0.85 0.55 -0.85 0.55 -0.8 0.55 -0.8 0.55 -0.8 0.6 -0.85 0.6" fill="#7b7461" fill-rule="evenodd" stroke="none"/>
    <path d="M-0.45 0.65 L-0.4 0.7 -0.35 0.75 -0.4 0.75 -0.45 0.8 Q-0.45 0.75 -0.5 0.75 L-0.6 0.75 -0.65 0.8 -0.7 0.8 -0.75 0.8 -0.8 0.8 -0.85 0.8 -0.9 0.75 -0.95 0.75 -0.95 0.8 -1.0 0.8 -1.0 0.8 -1.0 0.65 Q-0.95 0.6 -0.9 0.6 L-0.85 0.6 -0.85 0.6 -0.8 0.6 -0.8 0.55 -0.75 0.55 -0.75 0.55 -0.8 0.5 Q-0.85 0.5 -0.8 0.5 L-0.7 0.45 Q-0.65 0.4 -0.65 0.5 L-0.65 0.5 -0.6 0.5 -0.55 0.55 -0.55 0.55 -0.6 0.6 -0.6 0.55 -0.65 0.6 -0.7 0.7 -0.65 0.65 -0.6 0.65 -0.55 0.65 -0.55 0.65 -0.5 0.65 Q-0.45 0.65 -0.45 0.65 M-0.7 0.6 L-0.65 0.55 Q-0.65 0.55 -0.7 0.55 L-0.75 0.6 -0.7 0.6 M-0.9 0.75 L-0.9 0.75" fill="#d3c9ab" fill-rule="evenodd" stroke="none"/>
    <path d="M-0.7 0.6 L-0.75 0.6 -0.7 0.55 Q-0.65 0.55 -0.65 0.55 L-0.7 0.6" fill="#87816f" fill-rule="evenodd" stroke="none"/>
    <path d="M-0.6 0.75 Q-0.55 0.8 -0.55 0.8 L-0.6 0.8 -0.65 0.9 -0.65 0.85 -0.7 0.85 -0.8 0.85 -0.7 0.8 -0.65 0.8 -0.6 0.75" fill="#7d7665" fill-rule="evenodd" stroke="none"/>
    <path d="M-0.9 0.75 L-0.9 0.8 -0.95 0.8 -0.9 0.75 -0.9 0.75" fill="#777162" fill-rule="evenodd" stroke="none"/>
    <path d="M-0.95 0.8 L-0.95 0.8 -0.95 0.8 -1.0 0.8 -0.95 0.8" fill="#6d6a5a" fill-rule="evenodd" stroke="none"/>
    <path d="M-0.9 0.85 L-0.85 0.8 -0.85 0.85 -0.9 0.9 -0.9 0.85" fill="#777060" fill-rule="evenodd" stroke="none"/>
    <path d="M-0.75 0.8 L-0.8 0.85 -0.8 0.85 Q-0.8 0.8 -0.85 0.8 L-0.9 0.85 -0.85 0.8 -0.8 0.8 -0.75 0.8" fill="#797363" fill-rule="evenodd" stroke="none"/>
    <path d="M-0.85 1.05 L-0.9 1.15 -0.95 1.15 -0.9 1.15 -0.9 1.1 Q-0.9 1.05 -0.95 1.1 L-0.95 1.0 -0.9 0.95 -0.85 0.95 -0.9 1.0 -0.9 1.05 -0.85 1.05 -0.85 1.05" fill="#79715d" fill-rule="evenodd" stroke="none"/>
    <path d="M-1.05 1.0 L-1.0 1.0 -1.0 1.05 -1.05 1.05 -1.05 1.0" fill="#827862" fill-rule="evenodd" stroke="none"/>
    <path d="M-0.8 1.1 L-0.8 1.05 -0.75 1.05 -0.75 1.1 -0.8 1.1 -0.8 1.1" fill="#7b7361" fill-rule="evenodd" stroke="none"/>
    <path d="M-0.75 1.2 L-0.7 1.1 -0.65 1.1 -0.5 1.1 -0.4 1.1 -0.45 1.15 -0.5 1.15 -0.55 1.15 -0.6 1.1 -0.6 1.1 -0.7 1.15 -0.75 1.2" fill="#746a59" fill-rule="evenodd" stroke="none"/>
    <path d="M-0.2 0.7 L-0.25 0.7 -0.25 0.65 -0.2 0.65 -0.2 0.65 -0.15 0.65 -0.15 0.7 -0.2 0.7 -0.2 0.7" fill="#7d7664" fill-rule="evenodd" stroke="none"/>
    <path d="M-0.4 0.9 L-0.35 0.9 -0.3 0.9 Q-0.3 0.85 -0.25 0.85 L-0.25 0.9 -0.2 0.9 -0.3 1.0 -0.3 1.0 Q-0.25 0.95 -0.3 0.95 L-0.3 0.95 -0.35 0.9 -0.4 0.9 -0.4 0.9" fill="#736a59" fill-rule="evenodd" stroke="none"/>
    <path d="M-0.55 0.9 L-0.45 0.85 -0.4 0.85 Q-0.45 0.9 -0.45 0.9 L-0.55 0.9" fill="#7d7361" fill-rule="evenodd" stroke="none"/>
    <path d="M-0.25 1.2 L-0.3 1.2 -0.3 1.2 -0.25 1.15 Q-0.25 1.15 -0.25 1.2" fill="#615948" fill-rule="evenodd" stroke="none"/>
    <path d="M-0.35 1.2 L-0.4 1.2 -0.35 1.15 -0.3 1.1 -0.35 1.15 -0.35 1.2" fill="#686050" fill-rule="evenodd" stroke="none"/>
    <path d="M-1.1 1.5 L-1.15 1.5 -1.2 1.5 -1.3 1.5 -1.4 1.5 -1.5 1.35 -1.6 1.3 -1.65 1.3 -1.7 1.25 -1.75 1.2 -1.7 1.05 -1.6 0.95 -1.55 1.0 -1.55 1.05 -1.55 1.15 -1.6 1.2 -1.55 1.2 -1.55 1.25 -1.5 1.2 Q-1.45 1.2 -1.45 1.15 L-1.45 1.05 -1.4 1.0 -1.35 1.05 -1.35 1.05 -1.4 1.1 -1.35 1.1 -1.35 1.1 -1.25 1.05 -1.2 1.05 -1.1 1.05 -1.05 1.0 -1.05 1.05 -1.1 1.05 -1.15 1.05 -1.2 1.1 -1.2 1.15 -1.25 1.15 -1.25 1.1 -1.25 1.05 -1.3 1.05 -1.3 1.15 -1.25 1.15 -1.2 1.2 -1.2 1.2 -1.25 1.2 -1.25 1.25 -1.2 1.25 -1.2 1.3 -1.15 1.25 -1.15 1.3 -1.2 1.3 -1.2 1.35 -1.15 1.35 -1.1 1.35 -1.1 1.3 -1.05 1.3 -1.05 1.4 Q-0.9 1.4 -0.95 1.45 L-1.05 1.45 -1.1 1.5 M-1.3 1.2 L-1.4 1.25 -1.4 1.2 Q-1.35 1.2 -1.4 1.2 L-1.4 1.2 -1.4 1.25 -1.35 1.25 -1.35 1.25 -1.3 1.2" fill="#a69a7f" fill-rule="evenodd" stroke="none"/>
    <path d="M-1.05 0.7 L-1.05 0.7 -1.1 0.75 -1.1 0.8 Q-1.1 0.75 -1.15 0.75 L-1.2 0.8 -1.25 0.8 -1.3 0.75 -1.35 0.75 -1.35 0.75 Q-1.35 0.7 -1.35 0.75 L-1.35 0.75 -1.4 0.75 -1.4 0.75 -1.45 0.75 -1.4 0.7 -1.35 0.7 -1.3 0.7 -1.25 0.65 -1.3 0.7 -1.25 0.7 -1.15 0.75 Q-1.1 0.75 -1.05 0.7" fill="#686253" fill-rule="evenodd" stroke="none"/>
    <path d="M-1.0 0.8 L-1.05 0.8 -1.05 0.8 -1.0 0.8" fill="#78745e" fill-rule="evenodd" stroke="none"/>
    <path d="M-1.3 1.2 L-1.35 1.25 -1.35 1.25 -1.4 1.25 -1.4 1.2 -1.4 1.2 Q-1.35 1.2 -1.4 1.2 L-1.4 1.25 -1.3 1.2" fill="#726b59" fill-rule="evenodd" stroke="none"/>
    <path d="M-1.1 0.95 L-1.05 0.9 -1.1 1.0 Q-1.1 1.0 -1.05 1.0 L-1.1 1.05 -1.2 1.05 -1.2 1.0 -1.25 1.0 -1.25 1.0 -1.2 0.95 -1.15 1.0 -1.15 0.95 -1.1 0.95 -1.1 0.95" fill="#706857" fill-rule="evenodd" stroke="none"/>
    <path d="M-1.2 1.2 L-1.2 1.25 -1.25 1.25 -1.25 1.2 -1.2 1.2" fill="#666050" fill-rule="evenodd" stroke="none"/>
    <path d="M-0.95 1.25 L-0.9 1.3 -0.9 1.35 -0.95 1.4 -1.0 1.4 -1.0 1.35 Q-0.95 1.3 -1.0 1.3 L-1.05 1.3 -1.05 1.25 -1.05 1.3 -0.95 1.25" fill="#665d4b" fill-rule="evenodd" stroke="none"/>
    <path d="M-1.15 1.25 L-1.1 1.25 -1.1 1.3 -1.15 1.35 -1.15 1.3 -1.15 1.25" fill="#6d6552" fill-rule="evenodd" stroke="none"/>
    <path d="M-1.2 1.5 L-1.25 1.5 -1.3 1.5 -1.4 1.5 -1.3 1.5 -1.2 1.5" fill="#61594b" fill-rule="evenodd" stroke="none"/>
    <path d="M-1.5 1.35 L-1.6 1.35 -1.65 1.3 -1.6 1.3 -1.5 1.35" fill="#736b58" fill-rule="evenodd" stroke="none"/>
    <path d="M-0.65 1.25 L-0.65 1.3 -0.65 1.35 -0.6 1.35 -0.5 1.35 -0.5 1.35 -0.45 1.35 -0.5 1.45 Q-0.55 1.5 -0.6 1.45 L-0.55 1.45 -0.55 1.4 -0.6 1.4 -0.6 1.35 -0.7 1.4 -0.85 1.35 -0.8 1.3 -0.7 1.3 -0.65 1.25" fill="#645b49" fill-rule="evenodd" stroke="none"/>
    <path d="M-0.45 1.45 L-0.4 1.4 -0.4 1.35 Q-0.35 1.35 -0.4 1.4 L-0.45 1.45" fill="#5d5443" fill-rule="evenodd" stroke="none"/>
    <path d="M0.0 1.85 L-0.05 1.85 -0.15 1.85 -0.1 1.85 0.0 1.85" fill="#67604e" fill-rule="evenodd" stroke="none"/>
    <path d="M1.25 -1.85 L1.15 -1.85 0.9 -1.8 0.85 -1.85 0.8 -1.8 0.7 -1.85 0.65 -1.85 0.6 -1.85 0.3 -1.85 0.25 -1.85 0.2 -1.85 0.05 -1.85 -0.1 -1.85 -0.1 -1.8 Q-0.15 -1.85 -0.25 -1.9 L-0.35 -2.0 -0.6 -2.1 -0.75 -2.05 -0.85 -2.0 -1.0 -1.9 -1.1 -1.8 Q-1.25 -1.65 -1.1 -1.35 L-1.05 -1.25 -1.0 -1.15 -1.0 -1.05 -1.0 -0.85 -1.0 -0.65 -1.05 -0.5 -1.15 -0.35 -1.25 -0.2 -1.25 -0.05 -1.3 0.1 -1.4 0.3 -1.5 0.45 -1.55 0.6 -1.55 0.85 -1.6 0.95 -1.7 1.05 -1.75 1.2 -1.7 1.25 -1.65 1.3 -1.6 1.35 -1.5 1.35 -1.4 1.5 -1.3 1.5 -1.25 1.5 -1.2 1.5 -1.15 1.5 -1.1 1.5 -1.05 1.5 -1.0 1.55 -0.8 1.6 -0.6 1.7 -0.4 1.8 -0.15 1.85 -0.05 1.85 0.0 1.85 0.0 1.85 0.15 1.85 0.25 1.9 0.4 1.95 0.55 1.9 0.6 1.85 0.65 1.8 0.7 1.75 0.7 1.65 Q0.65 1.4 0.7 1.1 L0.8 0.95 0.85 0.75 0.85 0.7 0.9 0.65 0.85 0.6 0.9 0.55 0.9 0.4 0.95 0.25 0.95 0.2 0.95 0.1 1.0 0.0 1.1 -0.1 1.05 -0.25 1.0 -0.3 1.1 -0.55 1.15 -0.85 1.2 -1.0 1.3 -1.15 Q1.4 -1.25 1.4 -1.4 L1.45 -1.4 1.45 -1.4 1.45 -1.55 Q1.45 -1.6 1.5 -1.7 L1.6 -1.85 1.5 -1.85 1.5 -1.85 1.35 -1.85 1.25 -1.85 M1.05 -0.25 L1.05 -0.25 Z" fill="none" stroke="#000000" stroke-linecap="round" stroke-linejoin="round" stroke-opacity="0.4509804" stroke-width="1.0"/>
  </g>
</svg>
