<?xml version="1.0" encoding="UTF-8" standalone="no"?>
<svg xmlns:xlink="http://www.w3.org/1999/xlink" height="3.5px" width="3.1px" xmlns="http://www.w3.org/2000/svg">
  <g transform="matrix(1.0, 0.0, 0.0, 1.0, 1.55, 1.75)">
    <path d="M1.55 -1.35 L1.5 -1.35 Q1.5 -1.4 1.5 -1.4 L1.45 -1.5 1.5 -1.6 1.4 -1.65 1.3 -1.65 1.3 -1.65 1.3 -1.7 1.35 -1.65 Q1.4 -1.65 1.4 -1.7 L1.45 -1.7 1.5 -1.65 1.5 -1.65 1.55 -1.6 1.55 -1.35" fill="#a97d49" fill-rule="evenodd" stroke="none"/>
    <path d="M1.55 -1.6 L1.5 -1.65 1.5 -1.65 1.45 -1.7 1.4 -1.7 1.45 -1.7 1.5 -1.7 1.55 -1.65 1.55 -1.6" fill="#503b20" fill-rule="evenodd" stroke="none"/>
    <path d="M1.4 -1.7 Q1.4 -1.65 1.35 -1.65 L1.3 -1.7 1.25 -1.7 1.2 -1.75 1.3 -1.7 1.35 -1.7 1.4 -1.7" fill="#43321d" fill-rule="evenodd" stroke="none"/>
    <path d="M1.55 -1.05 L1.5 -1.05 1.45 -1.05 1.4 -1.05 1.35 -1.1 1.25 -1.15 1.2 -1.15 1.2 -1.2 1.25 -1.2 1.25 -1.35 1.2 -1.35 1.15 -1.4 1.15 -1.45 1.2 -1.5 1.25 -1.55 1.3 -1.55 1.3 -1.55 1.25 -1.55 Q1.2 -1.5 1.25 -1.5 L1.35 -1.5 1.4 -1.5 1.45 -1.5 Q1.45 -1.55 1.4 -1.5 L1.35 -1.5 1.35 -1.55 Q1.4 -1.55 1.35 -1.6 L1.3 -1.6 1.3 -1.65 1.4 -1.65 1.5 -1.6 1.45 -1.5 1.5 -1.4 Q1.5 -1.4 1.5 -1.35 L1.55 -1.35 1.55 -1.05" fill="#c19259" fill-rule="evenodd" stroke="none"/>
    <path d="M1.3 -1.65 L1.25 -1.7 1.25 -1.7 1.2 -1.7 1.2 -1.7 1.2 -1.75 1.25 -1.7 1.3 -1.7 1.3 -1.65" fill="#735837" fill-rule="evenodd" stroke="none"/>
    <path d="M1.3 -1.65 L1.3 -1.6 1.35 -1.6 Q1.4 -1.55 1.35 -1.55 L1.35 -1.5 1.4 -1.5 Q1.45 -1.55 1.45 -1.5 L1.4 -1.5 1.35 -1.5 1.25 -1.5 Q1.2 -1.5 1.25 -1.55 L1.3 -1.55 1.3 -1.55 1.25 -1.55 1.2 -1.5 1.15 -1.45 1.15 -1.4 1.2 -1.35 1.25 -1.35 1.25 -1.2 1.2 -1.2 1.2 -1.15 1.25 -1.15 1.35 -1.1 1.4 -1.05 1.45 -1.05 1.5 -1.05 1.55 -1.05 1.55 -0.65 Q1.45 -0.7 1.45 -0.6 L1.4 -0.7 1.3 -0.7 1.3 -0.7 1.25 -0.7 1.2 -0.75 1.2 -0.9 1.25 -0.9 1.2 -0.95 1.2 -1.0 1.15 -1.05 1.1 -1.0 Q1.05 -0.95 1.05 -0.95 L1.05 -1.1 1.1 -1.1 1.1 -1.15 1.15 -1.2 1.15 -1.3 1.1 -1.35 1.05 -1.35 0.95 -1.4 0.9 -1.45 0.9 -1.5 0.95 -1.55 0.95 -1.55 1.0 -1.5 1.05 -1.5 1.05 -1.6 1.1 -1.6 1.1 -1.65 1.15 -1.65 1.15 -1.7 1.2 -1.7 1.25 -1.7 1.25 -1.7 1.3 -1.65 1.3 -1.65" fill="#cb985e" fill-rule="evenodd" stroke="none"/>
    <path d="M1.15 -1.65 L1.1 -1.65 1.1 -1.6 1.05 -1.65 1.0 -1.65 0.95 -1.65 0.95 -1.65 0.9 -1.65 Q0.9 -1.65 0.9 -1.7 L1.05 -1.65 1.15 -1.65" fill="#5b462b" fill-rule="evenodd" stroke="none"/>
    <path d="M1.05 -1.6 L1.05 -1.5 1.0 -1.5 0.95 -1.55 0.95 -1.55 0.9 -1.5 0.9 -1.45 0.95 -1.4 1.05 -1.35 1.1 -1.35 1.15 -1.3 1.15 -1.2 1.1 -1.15 1.1 -1.1 1.05 -1.1 1.0 -1.2 0.35 -1.4 0.35 -1.45 0.45 -1.4 Q0.5 -1.4 0.55 -1.4 L0.5 -1.4 0.45 -1.45 0.45 -1.45 0.5 -1.45 0.6 -1.5 0.6 -1.5 0.65 -1.5 0.65 -1.45 0.7 -1.45 0.75 -1.5 0.7 -1.5 0.7 -1.6 0.7 -1.65 0.75 -1.7 0.8 -1.7 Q0.8 -1.65 0.85 -1.7 L0.85 -1.65 0.9 -1.65 0.95 -1.65 0.95 -1.65 1.0 -1.65 0.95 -1.65 0.95 -1.65 1.0 -1.6 1.05 -1.6" fill="#d09e63" fill-rule="evenodd" stroke="none"/>
    <path d="M0.55 -1.7 L0.55 -1.7 0.6 -1.7 0.65 -1.7 0.65 -1.7 0.7 -1.75 0.75 -1.75 0.75 -1.7 0.7 -1.65 0.7 -1.6 0.7 -1.5 0.75 -1.5 0.7 -1.45 0.65 -1.45 0.65 -1.5 0.6 -1.5 0.6 -1.5 0.5 -1.45 0.45 -1.45 0.45 -1.45 0.5 -1.4 0.55 -1.4 Q0.5 -1.4 0.45 -1.4 L0.35 -1.45 0.35 -1.4 0.2 -1.4 0.05 -1.4 -0.35 -1.4 -0.5 -1.35 -0.55 -1.4 -0.5 -1.4 -0.45 -1.4 -0.4 -1.45 -0.3 -1.5 -0.15 -1.5 0.0 -1.45 0.0 -1.5 0.05 -1.5 0.15 -1.5 0.3 -1.5 0.25 -1.5 0.2 -1.5 0.25 -1.55 0.3 -1.55 0.25 -1.6 0.2 -1.6 0.2 -1.65 0.35 -1.65 0.5 -1.65 0.55 -1.7" fill="#cb995c" fill-rule="evenodd" stroke="none"/>
    <path d="M0.2 -1.75 L0.25 -1.7 0.3 -1.7 0.4 -1.7 0.55 -1.7 0.5 -1.65 0.4 -1.65 0.25 -1.65 0.2 -1.7 0.2 -1.75" fill="#4e3b24" fill-rule="evenodd" stroke="none"/>
    <path d="M0.25 -1.65 L0.4 -1.65 0.5 -1.65 0.35 -1.65 0.2 -1.65 0.2 -1.65 0.25 -1.65" fill="#8e6b41" fill-rule="evenodd" stroke="none"/>
    <path d="M0.25 -1.65 L0.2 -1.65 0.2 -1.65 0.2 -1.6 0.25 -1.6 0.3 -1.55 0.25 -1.55 0.2 -1.5 0.1 -1.5 0.0 -1.5 0.0 -1.5 0.05 -1.5 0.0 -1.5 0.0 -1.45 -0.15 -1.5 -0.3 -1.5 -0.4 -1.45 -0.45 -1.4 -0.5 -1.4 -0.55 -1.4 -0.5 -1.35 -0.6 -1.35 -0.7 -1.3 -0.7 -1.35 -0.75 -1.35 -0.7 -1.4 -0.65 -1.4 Q-0.6 -1.45 -0.55 -1.45 -0.55 -1.4 -0.55 -1.4 L-0.5 -1.45 -0.5 -1.5 -0.45 -1.55 Q-0.5 -1.55 -0.4 -1.6 L-0.35 -1.55 -0.25 -1.55 -0.25 -1.5 -0.2 -1.55 -0.2 -1.6 -0.25 -1.6 -0.3 -1.6 -0.35 -1.6 -0.4 -1.65 Q-0.4 -1.65 -0.35 -1.65 L-0.3 -1.65 -0.3 -1.65 Q-0.25 -1.6 -0.25 -1.7 L-0.2 -1.7 -0.15 -1.7 -0.15 -1.75 -0.15 -1.75 0.15 -1.75 0.2 -1.7 0.2 -1.7 0.25 -1.65" fill="#c08f54" fill-rule="evenodd" stroke="none"/>
    <path d="M0.15 -1.75 L0.2 -1.75 0.2 -1.7 0.2 -1.7 0.15 -1.75 M0.3 -1.4 L0.0 -1.4 -0.3 -1.4 -0.3 -1.35 -0.25 -1.35 -0.25 -1.35 -0.3 -1.35 -0.35 -1.25 -0.35 -1.15 -0.35 -1.35 -0.35 -1.4 0.3 -1.4" fill="#88663e" fill-rule="evenodd" stroke="none"/>
    <path d="M0.05 -1.5 L0.0 -1.5 0.0 -1.5 0.1 -1.5 0.2 -1.5 0.25 -1.5 0.3 -1.5 0.15 -1.5 0.05 -1.5" fill="#957044" fill-rule="evenodd" stroke="none"/>
    <path d="M0.0 -1.35 L0.05 -1.35 0.0 -1.35 -0.05 -1.35 -0.05 -1.35 -0.25 -1.35 -0.25 -1.35 -0.3 -1.35 -0.3 -1.4 0.0 -1.4 0.3 -1.4 0.3 -1.35 0.25 -1.35 0.2 -1.35 0.3 -1.35 0.2 -1.35 0.1 -1.3 0.05 -1.35 0.0 -1.35" fill="#b88b54" fill-rule="evenodd" stroke="none"/>
    <path d="M0.0 -1.35 L0.05 -1.35 0.1 -1.3 0.2 -1.35 0.3 -1.35 0.25 -1.25 0.25 -1.15 0.0 -1.15 0.0 -1.2 0.0 -1.35" fill="#cf9d5f" fill-rule="evenodd" stroke="none"/>
    <path d="M0.3 -1.35 L0.2 -1.35 0.25 -1.35 0.3 -1.35 0.3 -1.4 0.3 -1.15 Q0.3 -1.15 0.3 -1.25 L0.3 -1.35" fill="#86663c" fill-rule="evenodd" stroke="none"/>
    <path d="M0.3 -1.15 L0.3 -1.4 0.6 -1.3 Q0.6 -1.25 0.6 -1.25 L0.5 -1.25 0.5 -1.25 0.45 -1.3 0.45 -1.25 0.4 -1.2 Q0.4 -1.15 0.4 -1.15 L0.3 -1.15 0.3 -1.15" fill="#c39359" fill-rule="evenodd" stroke="none"/>
    <path d="M-0.05 -1.35 L0.0 -1.3 0.0 -1.2 0.0 -1.15 0.25 -1.15 0.25 -1.25 0.3 -1.35 0.3 -1.25 Q0.3 -1.15 0.3 -1.15 L0.0 -1.15 -0.25 -1.15 -0.55 -1.15 -0.8 -1.15 -0.7 -1.15 -0.7 -1.2 -0.85 -1.2 -1.0 -1.15 -0.85 -1.15 -1.0 -1.15 -1.0 -1.05 -1.0 -1.2 -0.7 -1.3 -0.35 -1.4 -0.35 -1.35 -0.65 -1.25 -0.65 -1.15 -0.35 -1.15 -0.35 -1.15 -0.35 -1.25 -0.3 -1.35 -0.3 -1.15 -0.05 -1.15 0.0 -1.2 0.0 -1.2 -0.05 -1.2 -0.05 -1.35 M0.3 -1.15 L0.3 -1.15" fill="#ac7d49" fill-rule="evenodd" stroke="none"/>
    <path d="M0.4 -1.15 Q0.4 -1.15 0.4 -1.2 L0.45 -1.25 0.45 -1.3 0.5 -1.25 0.5 -1.25 0.55 -1.25 0.6 -1.25 0.6 -1.15 0.4 -1.15" fill="#d7a467" fill-rule="evenodd" stroke="none"/>
    <path d="M0.3 -1.15 L0.4 -1.15 0.6 -1.15 0.6 -1.25 0.55 -1.25 0.5 -1.25 0.6 -1.25 Q0.6 -1.25 0.6 -1.3 L0.65 -1.3 0.65 -1.25 Q0.65 -1.25 0.7 -1.25 L0.75 -1.2 0.7 -1.2 0.65 -1.2 0.65 -1.15 0.45 -1.15 0.3 -1.15" fill="#9a7448" fill-rule="evenodd" stroke="none"/>
    <path d="M-0.7 -1.3 L-0.6 -1.35 -0.5 -1.35 -0.35 -1.4 0.05 -1.4 0.2 -1.4 0.35 -1.4 1.0 -1.2 1.0 -1.05 1.0 -1.1 1.0 -1.15 1.0 -1.15 0.95 -1.2 0.65 -1.3 0.6 -1.3 0.3 -1.4 -0.35 -1.4 -0.7 -1.3 -1.0 -1.2 -1.0 -1.05 -1.0 -1.0 -1.0 -1.0 -1.05 -0.85 -1.05 -0.85 -1.05 -1.15 -1.0 -1.2 -0.95 -1.25 -0.9 -1.25 -0.85 -1.25 -0.75 -1.3 -0.7 -1.3" fill="#312415" fill-rule="evenodd" stroke="none"/>
    <path d="M0.8 -1.7 L0.85 -1.75 0.9 -1.7 0.85 -1.7 0.8 -1.7 0.8 -1.7" fill="#36291a" fill-rule="evenodd" stroke="none"/>
    <path d="M0.9 -1.7 Q0.9 -1.65 0.9 -1.65 L0.85 -1.65 0.85 -1.7 0.9 -1.7 0.9 -1.7" fill="#8e6d45" fill-rule="evenodd" stroke="none"/>
    <path d="M1.1 -1.6 L1.05 -1.6 1.0 -1.6 0.95 -1.65 0.95 -1.65 1.0 -1.65 1.05 -1.65 1.1 -1.6" fill="#957347" fill-rule="evenodd" stroke="none"/>
    <path d="M0.75 -1.75 L0.75 -1.75 0.8 -1.7 0.8 -1.7 0.85 -1.7 Q0.8 -1.65 0.8 -1.7 L0.75 -1.7 0.75 -1.75 M0.05 0.0 L0.05 0.0 0.1 0.0 0.0 0.0 0.0 0.05 -0.05 0.05 0.0 0.0 0.0 -0.05 0.0 0.0 0.05 0.0 M-0.05 0.0 L-0.05 0.0 -0.1 0.05 -0.15 0.05 -0.2 0.0 Q-0.2 0.0 -0.25 0.0 L-0.25 0.0 -0.3 0.05 -0.1 0.05 0.05 0.1 -0.05 0.1 -0.2 0.1 -0.25 0.1 -0.3 0.05 -0.3 0.05 -0.3 -0.05 Q-0.3 -0.1 -0.25 -0.05 L-0.25 0.0 -0.2 0.0 -0.15 0.0 -0.1 0.0 -0.1 -0.05 -0.1 0.0 -0.05 0.0 -0.05 0.0" fill="#8b6a43" fill-rule="evenodd" stroke="none"/>
    <path d="M0.55 -1.7 L0.6 -1.75 0.65 -1.7 0.7 -1.75 0.65 -1.7 0.65 -1.7 0.6 -1.7 0.55 -1.7" fill="#6c5232" fill-rule="evenodd" stroke="none"/>
    <path d="M0.65 -1.15 L0.65 -1.2 0.7 -1.2 0.75 -1.2 0.7 -1.25 Q0.65 -1.25 0.65 -1.25 L0.65 -1.3 0.95 -1.2 1.0 -1.15 1.0 -1.15 0.9 -1.15 0.9 -1.15 0.95 -1.15 0.8 -1.15 0.65 -1.15" fill="#c2935c" fill-rule="evenodd" stroke="none"/>
    <path d="M0.65 -1.15 L0.8 -1.15 0.95 -1.15 0.9 -1.15 0.9 -1.15 1.0 -1.15 1.0 -1.1 1.0 -1.05 0.95 -1.05 0.95 -1.1 0.8 -1.15 0.65 -1.15 M0.9 -1.05 L0.95 -1.05 0.9 -1.05" fill="#a17a4c" fill-rule="evenodd" stroke="none"/>
    <path d="M1.05 -1.1 L1.05 -0.95 1.05 -0.9 1.0 -0.85 1.0 -1.05 1.0 -1.2 1.05 -1.1" fill="#997449" fill-rule="evenodd" stroke="none"/>
    <path d="M0.9 -1.05 L0.9 -1.05 0.9 -1.05 0.9 -1.05 0.95 -1.05 0.9 -1.1 0.8 -1.1 0.75 -1.1 0.75 -1.1 0.75 -1.1 0.7 -1.1 0.7 -1.1 0.65 -1.1 0.6 -1.1 0.6 -1.1 0.55 -1.1 0.55 -1.1 0.55 -1.1 0.5 -1.1 0.5 -1.1 0.5 -1.05 0.55 -1.05 Q0.55 -1.05 0.6 -1.05 0.65 -1.05 0.65 -1.05 L0.65 -1.05 0.7 -1.05 0.7 -1.1 0.7 -1.05 0.7 -1.05 0.75 -1.1 0.75 -1.05 0.8 -1.05 0.8 -1.05 0.85 -1.05 0.85 -1.05 0.9 -1.05 M0.65 -1.15 L0.8 -1.15 0.95 -1.1 0.95 -1.05 0.95 -1.0 0.6 -1.0 0.45 -1.0 0.25 -1.0 0.25 -0.9 0.25 -1.0 0.1 -1.0 -0.1 -1.05 -0.25 -1.05 -0.25 -1.05 -0.2 -1.05 Q-0.2 -1.05 -0.15 -1.05 L-0.1 -1.05 -0.05 -1.05 -0.05 -1.05 -0.05 -1.1 -0.1 -1.1 -0.15 -1.1 -0.2 -1.1 -0.2 -1.1 -0.25 -1.15 0.0 -1.15 0.3 -1.15 0.45 -1.15 0.65 -1.15 M-0.2 -1.1 L-0.2 -1.1 M-0.15 -1.1 L-0.15 -1.05 -0.15 -1.1 M-0.1 -1.05 L-0.1 -1.05 M-0.2 -1.05 L-0.2 -1.05 -0.2 -1.05 M-0.25 -1.05 L-0.25 -1.05 -0.25 -1.0 -0.3 -1.0 -0.3 -1.05 -0.25 -1.05 M0.25 -0.8 L0.2 -0.85 0.15 -0.9 Q0.2 -0.9 0.15 -0.95 L0.2 -0.95 0.2 -0.9 0.25 -0.9 0.25 -0.8 M0.95 -1.05 L0.95 -1.05 M0.65 -1.05 L0.65 -1.05 M0.55 -1.05 L0.55 -1.05 M0.6 -1.05 L0.6 -1.1 0.6 -1.05 M0.45 -1.1 L0.45 -1.1 0.45 -1.05 0.5 -1.05 0.5 -1.05 0.45 -1.1 M0.4 -1.05 L0.4 -1.05 0.4 -1.05 0.45 -1.05 0.4 -1.1 0.4 -1.1 0.4 -1.1 0.35 -1.1 0.3 -1.1 0.2 -1.1 0.15 -1.1 0.1 -1.1 0.1 -1.1 0.05 -1.05 0.1 -1.05 0.1 -1.05 Q0.1 -1.05 0.15 -1.05 L0.15 -1.05 0.2 -1.05 0.2 -1.1 0.2 -1.05 Q0.2 -1.0 0.25 -1.05 L0.25 -1.05 Q0.25 -1.05 0.3 -1.05 L0.35 -1.05 0.35 -1.05 0.35 -1.05 0.4 -1.05 M0.1 -1.05 L0.1 -1.05 M0.0 -1.1 Q-0.05 -1.05 0.0 -1.05 L0.05 -1.05 0.05 -1.05 0.05 -1.1 0.0 -1.1 0.0 -1.1 M0.1 -1.1 L0.1 -1.1" fill="#6a5031" fill-rule="evenodd" stroke="none"/>
    <path d="M0.9 -1.05 L0.9 -1.1 0.9 -1.05 0.9 -1.05 0.9 -1.05" fill="#b28656" fill-rule="evenodd" stroke="none"/>
    <path d="M0.9 -1.05 L0.9 -1.1 0.9 -1.05 0.9 -1.05 0.85 -1.1 0.85 -1.05 0.8 -1.1 0.8 -1.05 0.75 -1.05 0.75 -1.1 0.75 -1.1 0.8 -1.1 0.9 -1.1 0.95 -1.05 0.9 -1.05" fill="#392b1a" fill-rule="evenodd" stroke="none"/>
    <path d="M0.95 -1.05 L0.95 -1.05 1.0 -1.05 1.0 -1.1 1.0 -1.05 1.0 -0.85 1.0 -0.9 1.0 -1.0 0.95 -1.05" fill="#453421" fill-rule="evenodd" stroke="none"/>
    <path d="M0.95 -1.0 L0.95 -1.05 1.0 -1.0 1.0 -0.9 1.0 -0.85 1.0 -0.6 0.95 -0.6 0.95 -1.0 0.9 -1.0 0.95 -1.0 M1.0 -0.6 L1.0 -0.6" fill="#8c6841" fill-rule="evenodd" stroke="none"/>
    <path d="M0.8 -1.05 L0.8 -1.1 0.85 -1.05 0.85 -1.1 0.9 -1.05 0.85 -1.05 0.85 -1.05 0.8 -1.05 0.8 -1.05" fill="#b38753" fill-rule="evenodd" stroke="none"/>
    <path d="M0.9 -1.0 L0.95 -1.0 0.95 -0.6 0.9 -0.6 0.85 -0.55 0.75 -0.55 0.75 -1.0 0.9 -1.0 M0.9 -0.95 L0.85 -1.0 Q0.8 -0.95 0.85 -0.9 L0.85 -0.85 0.8 -0.9 0.8 -0.85 0.85 -0.8 0.85 -0.8 0.9 -0.8 0.9 -0.8 0.9 -0.9 0.9 -0.9 0.9 -0.95 M0.85 -0.7 L0.85 -0.75 0.8 -0.7 0.8 -0.6 Q0.8 -0.6 0.8 -0.65 L0.8 -0.65 0.85 -0.65 0.85 -0.65 0.9 -0.65 0.9 -0.7 Q0.9 -0.7 0.85 -0.7" fill="#cb975e" fill-rule="evenodd" stroke="none"/>
    <path d="M0.9 -0.95 L0.9 -0.9 0.9 -0.9 0.9 -0.8 0.9 -0.8 0.85 -0.8 0.85 -0.8 0.8 -0.85 0.8 -0.9 0.85 -0.85 0.85 -0.9 Q0.8 -0.95 0.85 -1.0 L0.9 -0.95" fill="#b28651" fill-rule="evenodd" stroke="none"/>
    <path d="M0.6 -1.0 L0.95 -1.0 0.9 -1.0 0.75 -1.0 0.75 -0.55 0.85 -0.55 0.9 -0.6 0.9 -0.55 0.85 -0.55 0.8 -0.55 0.75 -0.55 0.85 -0.55 0.9 -0.5 0.8 -0.5 0.7 -0.5 0.7 -0.55 0.75 -0.55 0.75 -1.0 0.6 -1.0 0.6 -1.0 M0.65 -0.5 L0.65 -0.5 0.65 -0.5 0.7 -0.5 0.7 -0.5 0.65 -0.5 M0.7 -0.5 L0.7 -0.5" fill="#a37a4b" fill-rule="evenodd" stroke="none"/>
    <path d="M0.7 -1.1 L0.7 -1.1 0.75 -1.1 0.75 -1.1 0.7 -1.1" fill="#1c160d" fill-rule="evenodd" stroke="none"/>
    <path d="M0.6 -1.1 L0.6 -1.1 0.65 -1.1 0.7 -1.1 0.7 -1.05 0.7 -1.05 0.65 -1.1 0.65 -1.05 0.65 -1.05 0.65 -1.05 0.6 -1.1 0.6 -1.05 0.6 -1.1 0.55 -1.1 0.55 -1.05 0.55 -1.1 0.5 -1.1 0.5 -1.1 0.55 -1.1 0.55 -1.1 0.55 -1.1 0.6 -1.1 M0.55 -1.05 L0.55 -1.05" fill="#3a2c1b" fill-rule="evenodd" stroke="none"/>
    <path d="M0.65 -1.05 Q0.65 -1.05 0.6 -1.05 0.55 -1.05 0.55 -1.05 L0.55 -1.1 0.6 -1.1 0.6 -1.05 0.6 -1.1 0.65 -1.05 0.65 -1.05" fill="#bb8d58" fill-rule="evenodd" stroke="none"/>
    <path d="M0.7 -1.05 L0.65 -1.05 0.65 -1.05 0.65 -1.1 0.7 -1.05" fill="#b18652" fill-rule="evenodd" stroke="none"/>
    <path d="M0.7 -1.05 L0.7 -1.1 0.75 -1.1 0.7 -1.05 0.7 -1.05 0.7 -1.05" fill="#ba8c56" fill-rule="evenodd" stroke="none"/>
    <path d="M0.25 -0.9 L0.25 -1.0 0.45 -1.0 0.6 -1.0 0.6 -1.0 0.6 -1.0 0.55 -1.0 Q0.5 -1.0 0.5 -1.0 L0.5 -0.95 0.45 -0.95 0.4 -0.95 0.35 -0.95 0.35 -0.9 0.3 -0.9 0.25 -0.9 0.25 -0.9" fill="#ca975c" fill-rule="evenodd" stroke="none"/>
    <path d="M0.75 -1.1 L0.75 -1.05 0.75 -1.1" fill="#b78a54" fill-rule="evenodd" stroke="none"/>
    <path d="M0.25 -0.8 L0.25 -0.9 0.25 -0.9 0.3 -0.9 0.35 -0.9 0.35 -0.95 0.4 -0.95 0.45 -0.95 0.5 -0.95 0.5 -1.0 Q0.5 -1.0 0.55 -1.0 L0.6 -1.0 0.6 -1.0 0.75 -1.0 0.75 -0.55 0.7 -0.55 0.55 -0.55 0.55 -0.6 0.6 -0.6 0.7 -0.6 0.7 -0.7 0.7 -0.8 0.65 -0.85 Q0.6 -0.9 0.55 -0.8 L0.55 -0.7 0.5 -0.75 0.45 -0.75 0.45 -0.7 0.45 -0.7 0.4 -0.85 0.35 -0.85 0.3 -0.75 0.3 -0.6 0.2 -0.6 0.15 -0.6 0.25 -0.6 0.25 -0.65 0.25 -0.8 M0.55 -0.65 L0.55 -0.6 0.55 -0.65" fill="#d7a265" fill-rule="evenodd" stroke="none"/>
    <path d="M0.55 -0.8 Q0.6 -0.9 0.65 -0.85 L0.7 -0.8 0.7 -0.7 0.65 -0.7 0.65 -0.75 0.65 -0.75 0.6 -0.8 0.6 -0.75 0.55 -0.75 0.55 -0.8 0.6 -0.8 0.55 -0.8" fill="#876741" fill-rule="evenodd" stroke="none"/>
    <path d="M0.7 -0.7 L0.7 -0.6 0.6 -0.6 0.55 -0.6 0.55 -0.55 0.45 -0.55 0.3 -0.55 0.4 -0.55 0.5 -0.65 0.5 -0.65 0.45 -0.7 0.45 -0.75 0.5 -0.75 0.55 -0.7 0.55 -0.8 0.6 -0.8 0.55 -0.8 0.55 -0.75 0.6 -0.75 0.6 -0.8 0.65 -0.75 0.65 -0.75 0.65 -0.7 0.7 -0.7 M0.3 -0.55 L0.3 -0.55 M0.55 -0.55 L0.5 -0.55 0.45 -0.55 0.5 -0.55 0.55 -0.55 M0.55 -0.65 L0.55 -0.6 0.55 -0.65" fill="#a0784b" fill-rule="evenodd" stroke="none"/>
    <path d="M0.85 -0.7 Q0.9 -0.7 0.9 -0.7 L0.9 -0.65 0.85 -0.65 0.85 -0.65 0.8 -0.65 0.8 -0.65 Q0.8 -0.6 0.8 -0.6 L0.8 -0.7 0.85 -0.75 0.85 -0.7" fill="#b08151" fill-rule="evenodd" stroke="none"/>
    <path d="M1.05 -0.95 Q1.05 -0.95 1.1 -1.0 L1.15 -1.05 1.2 -1.0 1.2 -0.95 1.25 -0.9 1.2 -0.9 1.2 -0.75 1.25 -0.7 1.25 -0.65 1.3 -0.6 1.3 -0.55 1.35 -0.5 1.3 -0.5 Q1.25 -0.5 1.25 -0.5 L1.2 -0.5 1.2 -0.55 1.2 -0.55 Q1.15 -0.6 1.15 -0.5 L1.15 -0.45 1.2 -0.4 1.2 -0.4 1.15 -0.4 1.15 -0.35 1.2 -0.35 1.25 -0.4 1.35 -0.45 1.4 -0.45 1.45 -0.4 1.45 -0.35 1.5 -0.3 1.55 -0.25 1.55 -0.15 1.45 -0.15 1.45 -0.1 1.4 -0.1 1.4 0.0 1.35 0.0 1.3 0.05 1.3 0.0 1.25 0.0 1.25 -0.05 1.2 0.0 Q1.15 0.0 1.15 0.0 1.1 0.0 1.05 0.05 L1.1 -0.05 1.2 -0.1 Q1.2 -0.1 1.25 -0.1 L1.3 -0.05 1.35 -0.1 1.35 -0.2 1.35 -0.3 1.4 -0.3 1.4 -0.4 1.4 -0.4 1.35 -0.45 1.3 -0.4 1.3 -0.35 1.25 -0.35 1.2 -0.3 1.15 -0.35 1.05 -0.35 1.05 -0.35 1.1 -0.3 1.1 -0.25 1.05 -0.25 1.0 -0.35 1.05 -0.4 1.0 -0.45 1.0 -0.45 1.05 -0.55 1.0 -0.6 1.0 -0.6 1.0 -0.85 1.05 -0.9 1.05 -0.95" fill="#d59c5f" fill-rule="evenodd" stroke="none"/>
    <path d="M0.4 -1.05 L0.4 -1.1 0.35 -1.1 0.35 -1.05 0.35 -1.1 0.3 -1.1 0.3 -1.1 0.3 -1.1 0.25 -1.1 0.25 -1.05 0.2 -1.1 0.3 -1.1 0.35 -1.1 0.4 -1.1 0.4 -1.1 0.4 -1.05 0.4 -1.05 M0.25 -1.05 L0.25 -1.05 M0.35 -1.05 L0.35 -1.05" fill="#463420" fill-rule="evenodd" stroke="none"/>
    <path d="M0.35 -1.05 L0.35 -1.1 0.4 -1.1 0.4 -1.05 0.35 -1.05 0.35 -1.05" fill="#a17a4a" fill-rule="evenodd" stroke="none"/>
    <path d="M0.45 -1.1 L0.5 -1.05 0.5 -1.05 0.45 -1.05 0.45 -1.1 0.45 -1.1" fill="#ae8553" fill-rule="evenodd" stroke="none"/>
    <path d="M0.4 -1.05 L0.4 -1.1 0.4 -1.1 0.45 -1.05 0.4 -1.05 0.4 -1.05" fill="#b78b56" fill-rule="evenodd" stroke="none"/>
    <path d="M0.55 -1.05 L0.5 -1.05 0.5 -1.1 0.55 -1.1 0.55 -1.05" fill="#bf915b" fill-rule="evenodd" stroke="none"/>
    <path d="M0.1 -1.1 L0.1 -1.1 0.15 -1.1 0.15 -1.05 0.1 -1.1 0.1 -1.05 0.1 -1.05 0.1 -1.1" fill="#3f2f1d" fill-rule="evenodd" stroke="none"/>
    <path d="M0.15 -1.1 L0.2 -1.1 0.2 -1.05 0.15 -1.05 0.15 -1.05 0.15 -1.1" fill="#b08551" fill-rule="evenodd" stroke="none"/>
    <path d="M0.15 -1.05 L0.15 -1.05 Q0.1 -1.05 0.1 -1.05 L0.1 -1.1 0.15 -1.05 0.15 -1.05" fill="#a77f4c" fill-rule="evenodd" stroke="none"/>
    <path d="M0.1 -1.05 L0.1 -1.05 0.05 -1.05 0.05 -1.05 0.1 -1.1 0.1 -1.1 0.1 -1.05 M0.05 -1.05 L0.05 -1.05" fill="#a9804c" fill-rule="evenodd" stroke="none"/>
    <path d="M-0.3 -1.0 L-0.25 -1.0 -0.25 -0.85 -0.25 -0.8 -0.2 -0.7 -0.25 -0.75 -0.25 -0.8 -0.2 -0.85 -0.2 -0.8 -0.15 -0.85 -0.15 -0.85 -0.15 -0.85 -0.05 -0.85 Q0.0 -0.9 -0.05 -0.9 L-0.05 -0.95 -0.1 -0.95 -0.1 -0.85 -0.2 -0.95 -0.15 -0.95 -0.15 -1.0 -0.2 -1.0 Q-0.25 -1.0 -0.25 -1.05 L-0.1 -1.05 0.1 -1.0 0.05 -1.0 0.05 -1.0 Q0.1 -0.95 0.1 -1.0 L0.15 -1.0 0.2 -1.0 0.15 -0.95 0.1 -0.95 0.1 -0.9 Q0.05 -0.9 0.1 -0.85 L0.1 -0.8 0.05 -0.8 0.05 -0.85 -0.05 -0.85 -0.15 -0.8 -0.15 -0.8 -0.15 -0.7 Q-0.2 -0.7 -0.2 -0.7 L-0.2 -0.6 -0.25 -0.6 -0.25 -0.65 -0.3 -0.85 -0.3 -1.0 M-0.1 -1.0 L-0.1 -1.0 -0.15 -1.0 -0.1 -1.0 -0.1 -1.0" fill="#946d42" fill-rule="evenodd" stroke="none"/>
    <path d="M0.1 -1.0 L0.25 -1.0 0.25 -0.9 0.2 -0.9 0.2 -0.95 0.15 -0.95 Q0.2 -0.9 0.15 -0.9 L0.2 -0.85 0.25 -0.8 0.25 -0.65 0.2 -0.65 0.15 -0.65 0.1 -0.7 0.1 -0.7 0.05 -0.65 0.05 -0.7 0.05 -0.65 0.0 -0.65 0.1 -0.65 0.15 -0.6 0.0 -0.6 -0.15 -0.6 -0.2 -0.6 -0.2 -0.6 -0.2 -0.7 Q-0.2 -0.7 -0.15 -0.7 L-0.15 -0.8 -0.15 -0.8 -0.1 -0.8 -0.05 -0.8 0.0 -0.8 Q0.05 -0.8 0.0 -0.75 L0.1 -0.75 0.1 -0.8 0.1 -0.85 Q0.05 -0.9 0.1 -0.9 L0.1 -0.95 0.15 -0.95 0.2 -1.0 0.15 -1.0 0.1 -1.0 Q0.1 -0.95 0.05 -1.0 L0.05 -1.0 0.1 -1.0 M0.15 -0.85 L0.15 -0.85 Q0.15 -0.8 0.15 -0.8 L0.15 -0.85 M0.1 -0.8 L0.1 -0.8 M0.0 -0.7 L0.0 -0.75 0.05 -0.75 0.0 -0.75 -0.05 -0.75 -0.1 -0.75 -0.1 -0.7 -0.05 -0.7 -0.05 -0.7 0.0 -0.7 0.0 -0.7 M0.2 -0.75 L0.2 -0.75 0.2 -0.75 0.15 -0.8 0.15 -0.75 0.15 -0.75 0.15 -0.75 0.15 -0.7 0.2 -0.7 0.2 -0.75 M-0.1 -0.75 L0.0 -0.75 -0.05 -0.8 -0.15 -0.8 -0.1 -0.75 -0.1 -0.75 M-0.2 -0.6 L-0.2 -0.6" fill="#b38550" fill-rule="evenodd" stroke="none"/>
    <path d="M0.2 -1.1 L0.25 -1.05 Q0.2 -1.0 0.2 -1.05 L0.2 -1.1" fill="#b08450" fill-rule="evenodd" stroke="none"/>
    <path d="M0.25 -1.05 L0.25 -1.1 0.3 -1.1 0.3 -1.1 0.3 -1.1 0.35 -1.1 0.35 -1.05 0.3 -1.05 Q0.25 -1.05 0.25 -1.05" fill="#a9804e" fill-rule="evenodd" stroke="none"/>
    <path d="M-0.15 -0.8 L-0.05 -0.85 0.05 -0.85 0.05 -0.8 0.1 -0.8 0.05 -0.8 0.0 -0.85 -0.1 -0.8 -0.15 -0.8 M0.1 -0.8 L0.1 -0.8" fill="#493621" fill-rule="evenodd" stroke="none"/>
    <path d="M0.15 -0.85 L0.15 -0.8 Q0.15 -0.8 0.15 -0.85 L0.15 -0.85" fill="#594329" fill-rule="evenodd" stroke="none"/>
    <path d="M0.2 -0.75 L0.2 -0.75 0.2 -0.75" fill="#6b5131" fill-rule="evenodd" stroke="none"/>
    <path d="M-0.1 -0.8 L0.0 -0.85 0.05 -0.8 0.1 -0.8 0.1 -0.75 0.0 -0.75 Q0.05 -0.8 0.0 -0.8 L-0.05 -0.8 -0.1 -0.8" fill="#916b42" fill-rule="evenodd" stroke="none"/>
    <path d="M0.15 -0.6 L0.1 -0.65 0.0 -0.65 0.05 -0.65 0.05 -0.7 0.05 -0.65 0.1 -0.7 0.1 -0.7 0.15 -0.65 0.2 -0.65 0.25 -0.65 0.25 -0.6 0.15 -0.6 0.2 -0.6 0.3 -0.6 0.3 -0.75 0.35 -0.85 0.4 -0.85 0.45 -0.7 0.45 -0.7 0.45 -0.6 0.4 -0.6 0.35 -0.6 0.3 -0.55 0.3 -0.55 0.25 -0.55 0.25 -0.5 0.25 -0.45 0.15 -0.45 0.15 -0.55 0.2 -0.55 0.2 -0.5 0.25 -0.5 0.25 -0.6 0.2 -0.55 Q0.15 -0.55 0.15 -0.6 L0.1 -0.6 0.15 -0.55 0.1 -0.55 0.1 -0.55 0.1 -0.55 -0.05 -0.55 -0.2 -0.55 -0.1 -0.6 -0.05 -0.6 -0.1 -0.6 -0.2 -0.6 -0.2 -0.6 -0.15 -0.6 0.0 -0.6 0.15 -0.6 M0.1 -0.55 L0.1 -0.55" fill="#8f6b41" fill-rule="evenodd" stroke="none"/>
    <path d="M0.15 -0.75 L0.15 -0.8 0.2 -0.75 0.2 -0.7 0.15 -0.7 0.15 -0.75" fill="#7b5e38" fill-rule="evenodd" stroke="none"/>
    <path d="M0.45 -0.7 L0.5 -0.65 0.5 -0.65 0.4 -0.55 0.3 -0.55 0.3 -0.55 0.35 -0.6 0.4 -0.6 0.45 -0.6 0.45 -0.7 M0.3 -0.55 L0.3 -0.55" fill="#cf9a5e" fill-rule="evenodd" stroke="none"/>
    <path d="M0.55 -0.55 L0.5 -0.55 0.45 -0.55 0.5 -0.55 0.55 -0.55" fill="#cd995e" fill-rule="evenodd" stroke="none"/>
    <path d="M0.3 -0.4 L0.3 -0.45 0.35 -0.45 0.4 -0.45 0.45 -0.45 0.35 -0.45 0.35 -0.3 0.4 -0.25 0.35 -0.25 0.35 -0.25 0.35 -0.05 0.35 -0.35 0.3 -0.35 0.3 -0.4" fill="#a77d4d" fill-rule="evenodd" stroke="none"/>
    <path d="M0.35 -0.45 L0.5 -0.45 0.65 -0.45 0.55 -0.45 0.5 -0.45 0.45 -0.35 0.4 -0.3 0.35 -0.3 0.35 -0.45 0.45 -0.45 0.4 -0.45 0.35 -0.45" fill="#88643d" fill-rule="evenodd" stroke="none"/>
    <path d="M0.65 -0.45 L0.65 -0.4 0.6 -0.45 0.6 -0.45 0.5 -0.45 Q0.5 -0.4 0.5 -0.4 L0.55 -0.35 0.5 -0.3 0.55 -0.3 0.6 -0.3 0.6 -0.3 0.55 -0.3 0.55 -0.2 0.5 -0.2 0.5 -0.2 0.45 -0.15 0.45 -0.25 0.45 -0.3 0.35 -0.3 0.4 -0.3 0.45 -0.35 0.5 -0.45 0.55 -0.45 0.65 -0.45" fill="#a67b4b" fill-rule="evenodd" stroke="none"/>
    <path d="M0.65 -0.4 L0.65 -0.35 0.65 -0.3 Q0.6 -0.25 0.6 -0.3 L0.6 -0.3 0.55 -0.3 0.5 -0.3 0.55 -0.35 0.5 -0.4 Q0.5 -0.4 0.5 -0.45 L0.6 -0.45 0.6 -0.45 0.65 -0.4 M0.65 -0.3 L0.65 -0.3" fill="#82613b" fill-rule="evenodd" stroke="none"/>
    <path d="M0.7 -0.55 L0.7 -0.5 0.5 -0.5 0.3 -0.55 0.45 -0.55 0.55 -0.55 0.7 -0.55 M0.3 -0.55 L0.3 -0.55" fill="#6f5333" fill-rule="evenodd" stroke="none"/>
    <path d="M0.3 -0.55 L0.3 -0.55 0.3 -0.55 0.3 -0.5 0.65 -0.5 0.65 -0.45 0.7 -0.35 0.7 -0.35 0.65 -0.35 0.65 -0.4 0.65 -0.45 0.5 -0.45 0.35 -0.45 0.3 -0.45 0.3 -0.4 0.3 -0.45 0.25 -0.5 0.25 -0.55 0.3 -0.55 0.3 -0.55 M0.65 -0.3 L0.65 -0.35 0.65 -0.45 0.65 -0.3 M0.65 -0.5 L0.65 -0.5" fill="#352718" fill-rule="evenodd" stroke="none"/>
    <path d="M0.65 -0.5 L0.3 -0.5 0.3 -0.55 0.5 -0.5 0.7 -0.5 0.65 -0.5 0.65 -0.5" fill="#bb8b55" fill-rule="evenodd" stroke="none"/>
    <path d="M0.1 -0.55 L0.1 -0.55 0.15 -0.55 0.1 -0.6 0.15 -0.6 Q0.15 -0.55 0.2 -0.55 L0.25 -0.6 0.25 -0.5 0.2 -0.5 0.2 -0.55 0.15 -0.55 0.15 -0.45 0.15 -0.5 0.1 -0.5 0.1 -0.55 0.1 -0.55 0.1 -0.55 0.05 -0.5 0.0 -0.5 -0.05 -0.5 -0.05 -0.55 -0.05 -0.5 -0.15 -0.5 -0.15 -0.55 -0.2 -0.5 -0.25 -0.55 -0.2 -0.55 -0.05 -0.55 0.1 -0.55 0.1 -0.55 M0.15 -0.5 L0.15 -0.5 M0.15 -0.45 L0.15 -0.45 0.15 -0.45 0.2 -0.4 0.2 -0.4 0.15 -0.4 0.15 -0.45 M0.15 -0.4 L0.15 -0.4 M-0.25 -0.55 Q-0.3 -0.55 -0.25 -0.55" fill="#3d2d1c" fill-rule="evenodd" stroke="none"/>
    <path d="M0.25 -0.5 L0.3 -0.45 0.3 -0.35 Q0.3 -0.3 0.35 -0.35 L0.35 -0.05 0.35 0.05 0.3 0.05 0.25 0.05 0.25 -0.05 0.25 0.0 0.2 0.0 0.2 0.0 0.15 0.0 0.2 0.0 0.2 -0.15 0.15 -0.2 0.2 -0.25 0.2 -0.25 0.2 -0.15 Q0.2 -0.15 0.25 -0.15 L0.25 -0.25 0.25 -0.45 0.25 -0.5 M0.15 -0.2 L0.15 -0.2" fill="#d8a467" fill-rule="evenodd" stroke="none"/>
    <path d="M0.1 -0.55 L0.1 -0.55 0.1 -0.5 0.15 -0.5 0.15 -0.45 0.0 -0.45 -0.2 -0.45 -0.25 -0.45 -0.25 -0.45 -0.25 -0.55 -0.2 -0.5 -0.15 -0.55 -0.15 -0.5 -0.05 -0.5 -0.05 -0.55 -0.05 -0.5 0.0 -0.5 0.05 -0.5 0.1 -0.55 0.1 -0.55 0.1 -0.55 M0.15 -0.5 Q0.1 -0.5 0.1 -0.5 L0.0 -0.5 -0.05 -0.5 -0.1 -0.5 0.05 -0.5 0.15 -0.5" fill="#715433" fill-rule="evenodd" stroke="none"/>
    <path d="M0.15 -0.5 L0.15 -0.5 0.05 -0.5 -0.1 -0.5 -0.05 -0.5 0.0 -0.5 0.1 -0.5 Q0.1 -0.5 0.15 -0.5" fill="#9b7447" fill-rule="evenodd" stroke="none"/>
    <path d="M0.25 -0.45 L0.25 -0.25 0.25 -0.15 Q0.2 -0.15 0.2 -0.15 L0.2 -0.25 0.2 -0.25 0.15 -0.35 0.1 -0.35 0.15 -0.35 0.15 -0.2 0.15 -0.05 Q0.15 0.0 0.15 -0.05 L0.15 0.0 0.1 0.0 0.1 -0.05 0.1 -0.35 0.0 -0.3 -0.15 -0.3 -0.15 -0.25 -0.1 -0.2 0.0 -0.2 0.0 -0.15 0.05 -0.05 0.05 0.0 0.0 0.0 0.0 -0.05 0.0 0.0 -0.05 0.0 -0.05 0.0 -0.05 0.0 -0.1 0.0 -0.1 -0.05 -0.1 0.0 -0.15 0.0 -0.2 0.0 -0.25 0.0 -0.25 -0.05 -0.25 -0.2 -0.25 -0.25 -0.3 -0.3 -0.25 -0.35 -0.3 -0.35 -0.25 -0.35 -0.25 -0.45 -0.25 -0.45 -0.2 -0.45 0.0 -0.4 0.15 -0.45 0.15 -0.4 0.2 -0.4 0.2 -0.4 0.15 -0.45 0.25 -0.45 M0.15 -0.2 L0.15 -0.2 M0.15 -0.4 L-0.05 -0.4 -0.25 -0.4 -0.15 -0.35 0.0 -0.35 0.05 -0.35 0.1 -0.35 Q0.15 -0.35 0.15 -0.4 M0.05 -0.05 L0.05 -0.05 M-0.2 -0.35 L-0.2 -0.3 -0.2 -0.35 M-0.3 -0.35 L-0.3 -0.35 M-0.2 -0.2 L-0.25 -0.2 -0.25 -0.15 -0.25 -0.05 -0.25 -0.05 -0.2 -0.05 -0.2 -0.05 -0.2 -0.2 -0.2 -0.2 -0.2 -0.2 M-0.15 -0.05 L-0.15 -0.25 -0.15 -0.05" fill="#b48855" fill-rule="evenodd" stroke="none"/>
    <path d="M0.15 -0.45 L0.15 -0.45 0.0 -0.4 -0.2 -0.45 0.15 -0.45" fill="#d8a162" fill-rule="evenodd" stroke="none"/>
    <path d="M0.15 -0.4 L0.15 -0.4 Q0.15 -0.35 0.1 -0.35 L0.05 -0.35 0.0 -0.35 -0.15 -0.35 -0.25 -0.4 -0.05 -0.4 0.15 -0.4" fill="#553f27" fill-rule="evenodd" stroke="none"/>
    <path d="M0.15 -0.45 L0.15 -0.45 -0.2 -0.45 0.0 -0.45 0.15 -0.45" fill="#a27949" fill-rule="evenodd" stroke="none"/>
    <path d="M0.2 -0.25 L0.15 -0.2 0.15 -0.35 0.1 -0.35 0.15 -0.35 0.2 -0.25" fill="#5e462b" fill-rule="evenodd" stroke="none"/>
    <path d="M0.3 -0.45 L0.3 -0.4 0.3 -0.35 0.35 -0.35 Q0.3 -0.3 0.3 -0.35 L0.3 -0.45" fill="#60472c" fill-rule="evenodd" stroke="none"/>
    <path d="M0.15 -0.2 L0.2 -0.15 0.2 0.0 0.15 0.0 0.2 0.0 0.2 0.0 0.25 0.0 0.25 -0.05 0.25 0.05 0.3 0.05 0.35 0.05 0.3 0.05 0.25 0.05 0.15 0.05 0.1 0.0 0.15 0.0 0.15 -0.05 Q0.15 0.0 0.15 -0.05 L0.15 -0.2 M0.1 0.0 L0.1 0.0" fill="#7a5d3b" fill-rule="evenodd" stroke="none"/>
    <path d="M0.05 -0.2 L0.05 -0.15 0.05 -0.1 0.1 -0.05 0.1 -0.05 0.05 -0.05 0.05 -0.2 M0.05 -0.05 L0.05 -0.05" fill="#16110a" fill-rule="evenodd" stroke="none"/>
    <path d="M0.1 -0.05 L0.05 -0.1 0.05 -0.15 0.05 -0.2 0.0 -0.25 -0.05 -0.25 -0.15 -0.25 -0.1 -0.2 -0.15 -0.25 -0.15 -0.3 0.0 -0.3 0.1 -0.35 0.1 -0.05 0.1 -0.05 0.1 0.0 0.1 0.0 0.05 0.0 0.05 0.0 0.05 -0.05 0.1 -0.05" fill="#3f301d" fill-rule="evenodd" stroke="none"/>
    <path d="M0.35 0.05 L0.35 -0.05 0.35 -0.25 0.35 -0.25 0.4 -0.25 0.35 -0.3 0.45 -0.3 0.45 -0.25 0.45 -0.15 0.5 -0.2 0.5 -0.2 0.55 -0.2 0.55 -0.3 0.6 -0.3 Q0.6 -0.25 0.65 -0.3 L0.65 0.0 0.65 0.05 0.45 0.1 0.25 0.05 0.3 0.05 0.35 0.05 0.4 0.0 0.45 0.0 0.45 0.0 0.4 -0.05 0.35 0.0 0.35 0.05 0.65 0.05 0.5 0.05 0.35 0.05" fill="#be9058" fill-rule="evenodd" stroke="none"/>
    <path d="M0.65 0.05 L0.35 0.05 0.35 0.0 0.4 -0.05 0.45 0.0 0.45 0.0 0.4 0.0 0.35 0.05 0.5 0.05 0.65 0.05" fill="#d7a567" fill-rule="evenodd" stroke="none"/>
    <path d="M0.95 -0.6 L1.0 -0.6 1.0 -0.55 1.0 -0.45 1.0 -0.55 0.95 -0.5 Q0.9 -0.5 0.95 -0.45 L0.95 -0.4 0.9 -0.35 0.9 -0.5 0.85 -0.55 0.75 -0.55 0.8 -0.55 0.85 -0.55 0.9 -0.55 0.9 -0.6 0.95 -0.6 M1.0 -0.45 L1.0 -0.45 M1.0 -0.6 L1.0 -0.6 1.0 -0.6" fill="#5e452b" fill-rule="evenodd" stroke="none"/>
    <path d="M1.0 -0.6 L1.0 -0.6 1.05 -0.55 1.0 -0.45 1.0 -0.6" fill="#a4784a" fill-rule="evenodd" stroke="none"/>
    <path d="M1.0 -0.45 L1.0 -0.55 1.0 -0.6 1.0 -0.45 1.0 -0.45 1.0 -0.45" fill="#2a1f13" fill-rule="evenodd" stroke="none"/>
    <path d="M0.95 -0.45 Q0.9 -0.5 0.95 -0.5 L1.0 -0.55 1.0 -0.45 1.0 0.05 0.95 0.05 0.95 -0.3 0.95 -0.45 0.95 -0.45" fill="#cb945a" fill-rule="evenodd" stroke="none"/>
    <path d="M0.9 -0.35 L0.95 -0.4 0.95 -0.45 0.95 -0.45 0.95 -0.3 0.9 -0.3 0.9 -0.05 0.95 -0.05 0.95 -0.1 0.95 -0.3 0.95 0.05 0.9 0.05 0.9 -0.35" fill="#ad7e4c" fill-rule="evenodd" stroke="none"/>
    <path d="M0.9 -0.4 L0.9 -0.5 0.9 -0.35 0.9 0.05 0.9 -0.4 M0.7 0.1 L0.8 0.1 0.9 0.05 0.9 0.1 1.0 0.1 1.05 0.1 1.05 0.15 0.9 0.15 0.7 0.15 0.7 0.1" fill="#392a19" fill-rule="evenodd" stroke="none"/>
    <path d="M1.0 -0.45 L1.0 -0.45 1.0 -0.45 1.05 -0.4 1.0 -0.35 1.05 -0.25 1.05 -0.05 1.05 0.0 1.05 0.05 1.05 0.1 1.0 0.1 1.0 0.05 0.95 0.05 1.0 0.05 1.0 -0.45" fill="#a17748" fill-rule="evenodd" stroke="none"/>
    <path d="M1.05 -0.25 L1.1 -0.25 1.1 -0.3 1.05 -0.35 1.05 -0.35 1.15 -0.35 1.2 -0.3 1.25 -0.35 1.3 -0.35 1.3 -0.4 1.35 -0.45 1.4 -0.4 1.4 -0.4 1.4 -0.3 1.35 -0.3 1.35 -0.2 1.35 -0.1 1.3 -0.05 1.25 -0.1 Q1.2 -0.1 1.2 -0.1 L1.1 -0.05 1.05 0.05 1.05 0.0 1.05 -0.05 1.05 -0.25" fill="#dfa464" fill-rule="evenodd" stroke="none"/>
    <path d="M0.7 -0.5 L0.8 -0.5 0.9 -0.5 0.9 -0.4 0.9 0.05 0.8 0.05 0.7 0.05 0.65 0.05 0.65 -0.3 0.7 -0.4 0.7 -0.45 0.7 -0.5 0.7 -0.5" fill="#dda465" fill-rule="evenodd" stroke="none"/>
    <path d="M0.7 -0.35 L0.65 -0.45 0.65 -0.5 0.7 -0.5 0.7 -0.5 0.7 -0.45 0.7 -0.35" fill="#684d2f" fill-rule="evenodd" stroke="none"/>
    <path d="M0.65 -0.3 L0.65 -0.45 0.65 -0.35 0.65 0.05 0.65 0.0 0.65 -0.3 0.65 -0.3" fill="#765835" fill-rule="evenodd" stroke="none"/>
    <path d="M0.65 -0.35 L0.7 -0.35 0.7 -0.35 0.7 -0.45 0.7 -0.4 0.65 -0.3 0.65 0.05 0.7 0.05 0.8 0.05 0.9 0.05 0.8 0.1 0.7 0.1 0.65 0.05 0.65 -0.35" fill="#a67d4b" fill-rule="evenodd" stroke="none"/>
    <path d="M0.95 -0.3 L0.95 -0.1 0.95 -0.05 0.9 -0.05 0.9 -0.3 0.95 -0.3" fill="#c99258" fill-rule="evenodd" stroke="none"/>
    <path d="M1.05 -0.05 L1.05 0.0 1.05 -0.05" fill="#d6a061" fill-rule="evenodd" stroke="none"/>
    <path d="M0.9 0.05 L0.9 -0.4 0.9 0.05" fill="#ac7d4b" fill-rule="evenodd" stroke="none"/>
    <path d="M1.25 -0.7 L1.3 -0.7 1.3 -0.7 1.4 -0.7 1.45 -0.6 Q1.45 -0.7 1.55 -0.65 L1.55 -0.25 1.5 -0.3 1.45 -0.35 1.45 -0.4 1.4 -0.45 1.35 -0.45 1.25 -0.4 1.2 -0.35 1.15 -0.35 1.15 -0.4 1.2 -0.4 1.2 -0.4 1.15 -0.45 1.15 -0.5 Q1.15 -0.6 1.2 -0.55 L1.2 -0.55 1.2 -0.5 1.25 -0.5 Q1.25 -0.5 1.3 -0.5 L1.35 -0.5 1.3 -0.55 1.3 -0.6 1.25 -0.65 1.25 -0.7" fill="#d29457" fill-rule="evenodd" stroke="none"/>
    <path d="M1.05 0.05 Q1.1 0.0 1.15 0.0 1.15 0.0 1.2 0.0 L1.25 -0.05 1.25 0.0 1.3 0.0 1.3 0.05 1.35 0.0 1.4 0.0 1.4 -0.1 1.45 -0.1 1.45 -0.15 1.55 -0.15 1.55 0.15 1.5 0.15 1.45 0.1 Q1.45 0.1 1.4 0.1 L1.35 0.05 1.35 0.2 1.4 0.3 Q1.35 0.3 1.35 0.35 L1.3 0.35 1.3 0.4 1.3 0.45 1.35 0.5 1.4 0.6 1.4 0.65 Q1.4 0.7 1.45 0.7 L1.45 0.9 1.5 0.9 1.5 1.0 1.5 0.95 1.45 0.95 1.45 1.05 1.35 1.05 1.3 1.05 1.2 1.05 1.15 1.05 Q1.05 1.05 1.05 1.1 L1.0 1.15 1.0 1.2 1.0 1.3 1.0 1.35 0.95 1.35 0.95 1.3 0.75 1.2 0.7 1.2 0.75 1.15 0.7 1.15 0.8 1.05 0.85 0.95 0.9 0.9 0.85 0.9 0.8 0.9 0.85 0.9 0.8 0.95 0.8 0.9 0.75 0.9 0.7 0.9 0.65 0.9 0.65 0.95 0.6 0.95 0.6 1.05 0.45 1.15 0.4 1.2 0.45 1.25 0.4 1.25 0.35 1.3 0.3 1.3 0.25 1.25 0.3 1.2 0.35 1.2 0.35 1.15 0.3 1.15 0.25 1.15 0.15 1.1 0.05 1.1 0.0 1.15 Q-0.05 1.15 -0.1 1.15 L-0.1 1.1 -0.15 1.1 -0.15 1.15 -0.15 1.1 -0.2 1.15 -0.2 1.15 -0.25 1.2 -0.3 1.15 Q-0.3 1.15 -0.35 1.15 L-0.4 1.1 Q-0.4 1.15 -0.4 1.15 L-0.45 1.15 -0.4 1.1 Q-0.4 1.05 -0.35 1.05 L-0.3 1.1 -0.25 1.05 -0.25 1.0 -0.2 1.0 Q-0.15 1.0 -0.15 0.95 L-0.1 0.95 -0.15 0.9 -0.15 0.85 -0.05 0.85 -0.05 0.8 0.0 0.8 0.1 0.8 0.1 0.85 0.2 0.85 Q0.3 0.85 0.35 0.9 L0.4 0.85 0.45 0.9 0.45 0.85 0.5 0.85 0.55 0.8 0.55 0.85 0.6 0.85 0.6 0.8 0.65 0.75 Q0.7 0.7 0.7 0.75 L0.75 0.75 Q0.8 0.7 0.75 0.65 L0.8 0.65 0.85 0.65 0.85 0.65 0.85 0.6 0.9 0.6 Q0.95 0.55 0.9 0.55 L0.85 0.55 0.9 0.5 0.9 0.4 0.85 0.4 0.85 0.45 0.8 0.4 0.85 0.4 0.85 0.35 0.85 0.35 Q0.85 0.35 0.9 0.35 L0.9 0.3 0.95 0.25 Q0.95 0.15 0.9 0.15 L1.05 0.15 1.05 0.1 1.05 0.05 M-1.55 0.0 L-1.55 -0.1 -1.5 -0.15 -1.5 -0.2 -1.5 -0.1 -1.55 0.0 M-1.5 -0.2 L-1.5 -0.2 M1.2 0.4 L1.2 0.4 1.2 0.4 M1.1 0.35 L1.05 0.35 1.1 0.35 M1.0 0.4 L1.0 0.4 M1.1 0.65 L1.15 0.7 1.15 0.6 1.1 0.7 1.1 0.65 1.05 0.7 1.1 0.65 M1.3 0.4 Q1.25 0.4 1.25 0.45 L1.3 0.4 M1.3 0.65 L1.25 0.7 1.3 0.65 M1.3 0.7 L1.3 0.7 M1.35 0.65 L1.35 0.65 M1.1 0.9 L1.1 0.85 1.05 0.9 1.05 0.95 1.1 0.9 M1.2 0.9 L1.15 0.9 1.15 0.95 1.2 0.9 1.15 0.95 1.2 0.95 1.2 0.9 M1.2 1.0 L1.2 1.0 M1.25 0.95 L1.2 0.95 1.25 0.95 1.25 0.95 M0.3 0.9 L0.3 0.9 0.25 0.95 0.3 0.95 0.3 0.9 M0.25 0.9 L0.25 0.9 M0.45 0.9 L0.5 0.9 0.45 0.9 0.45 0.9 M0.05 0.9 L0.0 0.9 0.0 0.95 0.05 0.9 M0.0 0.9 L0.0 0.85 0.0 0.9 -0.05 0.9 -0.05 0.95 0.0 0.9 0.0 0.9 M0.15 0.9 L0.15 0.9 0.1 0.95 0.15 0.9 M0.05 0.95 L0.05 0.95 M0.7 0.95 L0.7 0.9 0.7 0.95 M0.75 1.2 L0.8 1.15 0.8 1.1 0.75 1.15 0.75 1.2 M0.5 0.9 L0.5 0.9 M0.95 0.65 L0.95 0.7 0.9 0.75 0.95 0.7 0.95 0.65 M0.95 0.9 L0.95 0.9 M0.9 0.9 L0.95 0.85 0.9 0.9 Q0.85 0.95 0.9 0.95 L0.9 0.9 M0.55 0.9 L0.55 0.9 M0.95 1.2 L0.95 1.15 Q0.95 1.15 0.95 1.2 L1.0 1.15 0.95 1.2 M0.9 1.25 L0.9 1.2 0.9 1.25 M-0.1 1.15 L-0.1 1.15 -0.1 1.2 -0.1 1.15 M-0.1 1.2 L-0.1 1.25 -0.1 1.2" fill="#b48650" fill-rule="evenodd" stroke="none"/>
    <path d="M1.55 0.4 L1.5 0.5 1.5 0.6 1.5 0.55 1.45 0.5 1.45 0.7 Q1.4 0.7 1.4 0.65 L1.4 0.6 1.35 0.5 1.3 0.45 1.3 0.4 1.35 0.35 Q1.35 0.3 1.4 0.3 L1.35 0.2 1.35 0.05 1.4 0.1 Q1.45 0.1 1.45 0.1 L1.5 0.15 1.55 0.15 1.55 0.25 1.5 0.35 1.45 0.4 1.5 0.4 1.55 0.4 M1.35 0.4 L1.35 0.4 1.35 0.4 M1.35 0.45 L1.4 0.4 Q1.35 0.4 1.35 0.45" fill="#9a7243" fill-rule="evenodd" stroke="none"/>
    <path d="M1.3 0.4 L1.3 0.35 1.35 0.35 1.3 0.4" fill="#312311" fill-rule="evenodd" stroke="none"/>
    <path d="M1.3 0.4 L1.25 0.45 Q1.25 0.4 1.3 0.4" fill="#483419" fill-rule="evenodd" stroke="none"/>
    <path d="M1.35 0.4 L1.35 0.4 1.35 0.4" fill="#2d2010" fill-rule="evenodd" stroke="none"/>
    <path d="M1.2 0.4 L1.2 0.4 1.2 0.4" fill="#5b4324" fill-rule="evenodd" stroke="none"/>
    <path d="M1.15 0.6 L1.15 0.7 1.1 0.65 1.15 0.6" fill="#856137" fill-rule="evenodd" stroke="none"/>
    <path d="M1.5 0.35 L1.55 0.35 1.55 0.4 1.5 0.4 1.45 0.4 1.5 0.35" fill="#61482a" fill-rule="evenodd" stroke="none"/>
    <path d="M1.35 0.45 Q1.35 0.4 1.4 0.4 L1.35 0.45" fill="#261b0d" fill-rule="evenodd" stroke="none"/>
    <path d="M1.5 0.6 L1.45 0.7 1.45 0.85 1.5 0.85 1.5 0.9 1.55 0.9 1.55 1.0 1.5 1.0 1.5 1.1 1.45 0.95 1.5 0.95 1.5 1.0 1.5 0.9 1.45 0.9 1.45 0.7 1.45 0.5 1.5 0.55 1.5 0.6" fill="#563f26" fill-rule="evenodd" stroke="none"/>
    <path d="M1.35 0.65 L1.35 0.65" fill="#664c2d" fill-rule="evenodd" stroke="none"/>
    <path d="M1.3 0.7 L1.3 0.7" fill="#5a4427" fill-rule="evenodd" stroke="none"/>
    <path d="M1.3 0.65 L1.25 0.7 1.3 0.65" fill="#47341e" fill-rule="evenodd" stroke="none"/>
    <path d="M1.1 0.65 L1.1 0.7 1.15 0.6 1.1 0.65" fill="#3d2b18" fill-rule="evenodd" stroke="none"/>
    <path d="M-1.0 -1.65 L-1.0 -1.7 -0.95 -1.75 -0.95 -1.65 -1.0 -1.7 -1.0 -1.65 M1.2 0.9 L1.15 0.95 1.15 0.9 1.2 0.9" fill="#65492a" fill-rule="evenodd" stroke="none"/>
    <path d="M1.05 1.1 Q1.05 1.05 1.15 1.05 L1.2 1.05 1.3 1.05 1.35 1.05 1.45 1.05 1.4 1.1 1.35 1.1 1.3 1.1 Q1.25 1.15 1.2 1.15 L1.1 1.15 1.05 1.15 1.05 1.2 1.05 1.15 1.05 1.1" fill="#a27342" fill-rule="evenodd" stroke="none"/>
    <path d="M1.2 1.0 L1.2 1.0" fill="#af7b47" fill-rule="evenodd" stroke="none"/>
    <path d="M1.15 0.95 L1.2 0.9 1.2 0.95 1.15 0.95" fill="#614628" fill-rule="evenodd" stroke="none"/>
    <path d="M1.1 1.2 L1.15 1.15 1.15 1.2 1.1 1.2" fill="#302010" fill-rule="evenodd" stroke="none"/>
    <path d="M-0.05 1.65 L-0.05 1.65 -0.05 1.7 0.0 1.6 0.05 1.55 Q0.0 1.55 0.05 1.5 0.05 1.5 0.1 1.5 0.1 1.5 0.1 1.55 L0.15 1.55 0.2 1.5 0.25 1.5 0.3 1.5 0.3 1.45 0.35 1.4 0.4 1.4 0.45 1.4 0.55 1.35 0.6 1.3 0.65 1.3 0.75 1.35 0.8 1.35 0.85 1.35 0.9 1.35 1.0 1.4 1.15 1.35 1.15 1.25 1.1 1.25 1.1 1.2 Q1.1 1.15 1.05 1.2 L1.05 1.25 1.0 1.25 1.05 1.2 1.05 1.15 1.1 1.15 1.2 1.15 Q1.25 1.15 1.3 1.1 L1.35 1.1 1.4 1.1 1.45 1.05 1.45 0.95 1.5 1.1 1.5 1.15 1.45 1.2 1.45 1.2 1.45 1.25 1.5 1.3 1.45 1.3 1.4 1.35 1.4 1.4 1.35 1.45 1.3 1.4 Q1.3 1.4 1.3 1.45 L1.2 1.5 1.15 1.45 1.1 1.5 1.1 1.45 1.05 1.4 1.0 1.4 0.9 1.45 0.75 1.45 0.75 1.5 0.7 1.5 0.65 1.5 0.65 1.4 0.65 1.35 0.6 1.45 0.6 1.5 0.55 1.5 Q0.55 1.45 0.55 1.5 L0.5 1.5 0.45 1.45 0.4 1.45 0.35 1.45 0.3 1.55 0.25 1.55 0.2 1.55 0.25 1.6 0.25 1.7 0.15 1.65 0.1 1.65 0.05 1.65 0.0 1.65 -0.05 1.65 M1.1 1.2 L1.15 1.2 1.15 1.15 1.1 1.2" fill="#8c6337" fill-rule="evenodd" stroke="none"/>
    <path d="M-0.1 1.7 L-0.15 1.7 Q-0.1 1.65 -0.15 1.65 L-0.2 1.65 -0.15 1.6 -0.1 1.6 -0.1 1.55 -0.15 1.55 -0.1 1.5 -0.15 1.5 -0.15 1.45 -0.1 1.45 -0.05 1.45 Q0.0 1.45 0.0 1.45 L0.0 1.55 0.05 1.5 0.1 1.45 0.2 1.45 0.25 1.45 0.3 1.4 Q0.35 1.35 0.4 1.35 L0.4 1.3 0.45 1.3 0.45 1.4 0.5 1.35 0.5 1.3 0.6 1.25 0.7 1.25 0.75 1.2 0.95 1.3 0.95 1.35 1.0 1.35 1.0 1.3 1.0 1.2 1.0 1.25 1.05 1.25 1.05 1.2 Q1.1 1.15 1.1 1.2 L1.1 1.25 1.15 1.25 1.15 1.35 1.0 1.4 0.9 1.35 0.85 1.35 0.8 1.35 0.75 1.35 0.65 1.3 0.6 1.3 0.55 1.35 0.45 1.4 0.4 1.4 0.35 1.4 0.3 1.45 0.3 1.5 0.25 1.5 0.2 1.5 0.15 1.55 0.1 1.55 Q0.1 1.5 0.1 1.5 0.05 1.5 0.05 1.5 0.0 1.55 0.05 1.55 L0.0 1.6 -0.05 1.7 -0.1 1.7" fill="#9d6c3a" fill-rule="evenodd" stroke="none"/>
    <path d="M1.25 0.95 L1.25 0.95 1.2 0.95 1.25 0.95" fill="#4f371e" fill-rule="evenodd" stroke="none"/>
    <path d="M1.5 1.1 L1.5 1.25 1.5 1.3 1.55 1.35 1.5 1.35 1.5 1.3 1.45 1.25 1.45 1.2 1.45 1.2 1.5 1.15 1.5 1.1" fill="#3f2e1b" fill-rule="evenodd" stroke="none"/>
    <path d="M1.0 0.1 L0.9 0.1 0.9 0.05 0.95 0.05 1.0 0.05 1.0 0.1" fill="#795d37" fill-rule="evenodd" stroke="none"/>
    <path d="M0.9 0.15 Q0.95 0.15 0.95 0.25 L0.9 0.3 0.9 0.35 Q0.85 0.35 0.85 0.35 L0.85 0.35 0.8 0.4 0.85 0.45 0.85 0.4 0.9 0.4 0.9 0.5 0.85 0.55 0.9 0.55 Q0.95 0.55 0.9 0.6 L0.85 0.6 0.85 0.65 0.8 0.65 0.75 0.65 Q0.8 0.7 0.75 0.75 L0.7 0.75 Q0.7 0.7 0.65 0.75 L0.6 0.8 0.6 0.85 0.55 0.85 0.55 0.8 0.5 0.85 0.45 0.85 0.45 0.9 0.4 0.85 0.35 0.9 Q0.3 0.85 0.2 0.85 L0.1 0.85 0.1 0.8 0.0 0.8 -0.05 0.8 -0.05 0.85 -0.15 0.85 -0.15 0.9 -0.15 0.95 -0.15 0.95 -0.15 0.95 -0.2 0.95 -0.25 0.95 -0.3 1.0 -0.35 1.05 -0.45 1.0 -0.5 1.05 -0.55 1.0 -0.6 1.05 -0.65 1.05 -0.75 1.05 -0.8 1.05 Q-0.8 1.05 -0.85 1.05 L-0.85 1.05 -0.9 1.05 -0.95 1.0 -0.9 1.0 -0.9 0.95 Q-0.85 0.95 -0.9 0.95 L-0.85 0.9 -0.9 0.9 -0.95 0.9 -0.95 0.9 -0.9 0.8 -0.85 0.7 -0.8 0.65 -0.85 0.6 -0.9 0.55 -0.9 0.45 -0.85 0.35 -0.9 0.4 -0.9 0.4 -0.9 0.35 -0.95 0.35 -0.9 0.3 -0.85 0.3 -0.9 0.25 -0.9 0.2 -0.8 0.2 -0.7 0.2 -0.7 0.2 -0.75 0.15 -0.65 0.15 -0.6 0.15 Q-0.6 0.15 -0.6 0.2 L-0.55 0.2 -0.45 0.15 -0.4 0.15 0.7 0.15 0.9 0.15 M-0.75 0.6 L-0.8 0.65 -0.8 0.7 Q-0.75 0.7 -0.75 0.65 L-0.8 0.7 -0.8 0.7 -0.75 0.6 -0.75 0.55 -0.75 0.6 M-0.75 0.65 L-0.75 0.65 M0.75 0.7 L0.75 0.65 0.7 0.65 0.65 0.65 0.6 0.65 0.65 0.7 0.7 0.7 0.75 0.7 M0.6 0.65 L0.6 0.65 0.55 0.65 0.55 0.7 0.6 0.65 M0.65 0.7 L0.65 0.65 0.65 0.7 M0.8 0.4 L0.8 0.4 M0.65 0.4 L0.7 0.4 0.7 0.35 0.65 0.4 M0.7 0.4 L0.7 0.45 0.75 0.4 0.75 0.35 0.7 0.4 M0.55 0.4 L0.55 0.35 0.5 0.45 Q0.5 0.45 0.55 0.4 M0.5 0.4 L0.5 0.35 0.55 0.35 0.5 0.35 0.45 0.35 Q0.5 0.35 0.45 0.35 L0.45 0.4 0.5 0.4 M0.75 0.4 L0.75 0.35 0.75 0.4 M0.15 0.4 L0.15 0.4 Q0.15 0.35 0.1 0.4 L0.1 0.45 0.15 0.4 M0.2 0.4 L0.25 0.4 0.25 0.35 0.2 0.4 0.2 0.4 0.15 0.45 0.2 0.4 M0.1 0.35 L0.1 0.35 M0.05 0.4 L0.05 0.35 0.0 0.4 0.0 0.4 0.05 0.4 M0.0 0.4 L0.0 0.4 0.0 0.4 M0.05 0.35 L0.05 0.45 0.05 0.35 M0.35 0.4 L0.35 0.35 Q0.3 0.35 0.3 0.4 L0.35 0.4 M0.25 0.4 L0.25 0.4 M0.4 0.65 L0.35 0.7 0.4 0.7 0.4 0.65 M0.35 0.65 L0.35 0.65 0.3 0.6 0.3 0.65 Q0.25 0.65 0.25 0.65 0.25 0.65 0.25 0.7 L0.3 0.7 0.35 0.65 M0.2 0.65 L0.2 0.65 M0.15 0.65 L0.15 0.65 0.1 0.65 0.05 0.7 0.1 0.65 0.15 0.65 M0.2 0.7 L0.25 0.65 0.2 0.7 M0.05 0.7 L0.05 0.7 0.0 0.75 0.05 0.7 M-0.25 0.35 L-0.3 0.4 -0.3 0.45 -0.25 0.4 -0.25 0.35 M-0.25 0.4 L-0.25 0.4 -0.25 0.4 M-0.4 0.4 L-0.45 0.4 -0.4 0.4 -0.4 0.4 -0.4 0.4 -0.4 0.4 M-0.45 0.4 L-0.45 0.4 -0.45 0.4 M-0.45 0.55 L-0.45 0.55 -0.5 0.65 -0.5 0.75 -0.45 0.65 -0.45 0.55 M-0.05 0.35 L-0.1 0.4 -0.05 0.4 -0.05 0.35 M-0.25 0.45 L-0.2 0.4 -0.2 0.35 -0.25 0.45 M-0.15 0.45 L-0.15 0.35 -0.15 0.45 -0.2 0.45 -0.2 0.5 -0.15 0.45 -0.15 0.45 M-0.65 0.3 L-0.65 0.3 -0.7 0.3 -0.75 0.3 -0.75 0.35 -0.8 0.4 -0.8 0.45 -0.75 0.4 -0.75 0.4 -0.75 0.4 -0.7 0.4 -0.7 0.4 -0.7 0.35 -0.65 0.3 -0.65 0.3 M-0.7 0.35 L-0.7 0.35 M-0.75 0.3 L-0.75 0.3 M-0.6 0.4 L-0.6 0.35 -0.65 0.4 -0.65 0.45 -0.6 0.4 -0.6 0.4 -0.6 0.4 M-0.7 0.4 L-0.65 0.4 -0.65 0.4 -0.7 0.4 M-0.55 0.65 L-0.55 0.65 Q-0.5 0.6 -0.55 0.65 M-0.55 0.7 L-0.5 0.65 -0.5 0.65 -0.55 0.7 M-0.7 0.7 L-0.7 0.65 -0.7 0.7 -0.65 0.65 -0.65 0.65 -0.7 0.7 M-0.65 0.9 L-0.65 0.9 -0.65 0.9 -0.65 0.9 -0.7 0.95 -0.65 0.9 M-0.7 0.9 L-0.65 0.85 -0.7 0.9 -0.75 0.95 -0.7 0.9 M-0.6 0.9 L-0.6 0.95 -0.6 0.9 M-0.6 0.95 L-0.55 0.95 -0.55 0.9 -0.6 0.95 M-0.5 0.9 L-0.55 0.95 -0.5 0.9 -0.5 0.9 -0.5 0.95 -0.45 0.9 -0.45 0.9 -0.5 0.9 M-0.75 0.9 L-0.8 0.95 -0.75 0.9 M-0.1 0.7 L-0.05 0.65 -0.05 0.55 -0.1 0.7 M-0.05 0.65 L-0.05 0.7 -0.05 0.65 M-0.15 0.65 L-0.15 0.7 -0.1 0.65 -0.1 0.6 -0.15 0.65 -0.15 0.6 -0.2 0.65 -0.2 0.65 -0.15 0.65 M-0.25 0.7 L-0.2 0.65 -0.2 0.65 -0.25 0.7 M-0.25 0.65 L-0.25 0.65 -0.25 0.65 M-0.3 0.65 L-0.3 0.65 -0.3 0.65 M-0.35 0.65 L-0.35 0.7 -0.35 0.65 -0.35 0.55 -0.4 0.7 -0.35 0.65 M-0.4 0.9 Q-0.4 0.85 -0.4 0.9 L-0.45 0.95 -0.4 0.95 -0.4 0.95 -0.35 0.85 -0.35 0.9 -0.4 0.9 M-0.3 0.9 Q-0.35 0.9 -0.35 0.95 L-0.3 0.9" fill="#dca766" fill-rule="evenodd" stroke="none"/>
    <path d="M0.65 0.05 L0.65 0.0 0.65 0.05 0.7 0.1 0.7 0.15 -0.4 0.15 -0.35 0.1 -0.25 0.1 -0.2 0.1 -0.05 0.1 0.05 0.1 0.15 0.1 0.25 0.05 0.45 0.1 0.65 0.05 M-0.4 0.15 L-0.4 0.15 -0.4 0.15" fill="#534028" fill-rule="evenodd" stroke="none"/>
    <path d="M0.75 0.4 L0.75 0.35 0.75 0.4" fill="#5d4426" fill-rule="evenodd" stroke="none"/>
    <path d="M0.8 0.4 L0.8 0.4" fill="#584122" fill-rule="evenodd" stroke="none"/>
    <path d="M0.7 0.4 L0.75 0.35 0.75 0.4 0.7 0.45 0.7 0.4" fill="#604628" fill-rule="evenodd" stroke="none"/>
    <path d="M0.65 0.4 L0.7 0.35 0.7 0.4 0.65 0.4" fill="#584124" fill-rule="evenodd" stroke="none"/>
    <path d="M1.1 0.35 L1.05 0.35 1.1 0.35 M-0.35 0.65 L-0.35 0.7 -0.35 0.65" fill="#332514" fill-rule="evenodd" stroke="none"/>
    <path d="M1.0 0.4 L1.0 0.4" fill="#47351f" fill-rule="evenodd" stroke="none"/>
    <path d="M0.8 0.4 L0.85 0.35 0.85 0.4 0.8 0.4" fill="#302314" fill-rule="evenodd" stroke="none"/>
    <path d="M0.9 0.4 L0.85 0.4 0.85 0.45 0.85 0.4 0.9 0.4" fill="#4e3a20" fill-rule="evenodd" stroke="none"/>
    <path d="M0.1 0.0 L0.15 0.05 0.25 0.05 0.15 0.1 0.05 0.1 -0.1 0.05 -0.3 0.05 -0.25 0.0 -0.25 0.0 Q-0.2 0.0 -0.2 0.0 L-0.15 0.05 -0.1 0.05 -0.05 0.0 -0.05 0.0 -0.05 0.0 0.0 0.0 -0.05 0.05 0.0 0.05 0.0 0.0 0.1 0.0" fill="#ae8454" fill-rule="evenodd" stroke="none"/>
    <path d="M0.25 0.4 L0.25 0.4" fill="#5a4228" fill-rule="evenodd" stroke="none"/>
    <path d="M0.35 0.4 L0.3 0.4 Q0.3 0.35 0.35 0.35 L0.35 0.4" fill="#81613e" fill-rule="evenodd" stroke="none"/>
    <path d="M0.2 0.4 L0.25 0.35 0.25 0.4 0.2 0.4" fill="#6a4e2f" fill-rule="evenodd" stroke="none"/>
    <path d="M0.15 0.4 L0.15 0.4" fill="#554127" fill-rule="evenodd" stroke="none"/>
    <path d="M0.1 0.45 L0.1 0.4 Q0.15 0.35 0.15 0.4 L0.1 0.45" fill="#604a2d" fill-rule="evenodd" stroke="none"/>
    <path d="M0.2 0.4 L0.15 0.45 0.2 0.4 0.2 0.4" fill="#554027" fill-rule="evenodd" stroke="none"/>
    <path d="M0.45 0.35 L0.5 0.35 0.55 0.35 0.5 0.35 0.5 0.4 0.45 0.4 0.45 0.35" fill="#b88e58" fill-rule="evenodd" stroke="none"/>
    <path d="M0.45 0.4 L0.45 0.35 Q0.5 0.35 0.45 0.35 L0.45 0.4" fill="#42321e" fill-rule="evenodd" stroke="none"/>
    <path d="M0.5 0.4 L0.45 0.4 0.5 0.4" fill="#61492d" fill-rule="evenodd" stroke="none"/>
    <path d="M0.55 0.4 Q0.5 0.45 0.5 0.45 L0.55 0.35 0.55 0.4" fill="#654b2d" fill-rule="evenodd" stroke="none"/>
    <path d="M0.6 0.65 L0.55 0.7 0.55 0.65 0.6 0.65" fill="#5a4426" fill-rule="evenodd" stroke="none"/>
    <path d="M0.35 0.65 L0.35 0.65" fill="#473522" fill-rule="evenodd" stroke="none"/>
    <path d="M0.4 0.65 L0.4 0.7 0.35 0.7 0.4 0.65" fill="#83633f" fill-rule="evenodd" stroke="none"/>
    <path d="M0.45 0.9 L0.45 0.9 0.5 0.9 0.45 0.9" fill="#5c4628" fill-rule="evenodd" stroke="none"/>
    <path d="M0.5 0.9 L0.5 0.9" fill="#4c3920" fill-rule="evenodd" stroke="none"/>
    <path d="M0.55 0.9 L0.55 0.9" fill="#382916" fill-rule="evenodd" stroke="none"/>
    <path d="M0.25 0.65 Q0.25 0.65 0.3 0.65 L0.25 0.65" fill="#3d2d1a" fill-rule="evenodd" stroke="none"/>
    <path d="M0.3 0.65 L0.3 0.6 0.35 0.65 0.3 0.7 0.25 0.7 Q0.25 0.65 0.25 0.65 L0.3 0.65" fill="#ab8355" fill-rule="evenodd" stroke="none"/>
    <path d="M0.2 0.7 L0.25 0.65 0.2 0.7" fill="#634c2d" fill-rule="evenodd" stroke="none"/>
    <path d="M0.15 0.65 L0.15 0.65" fill="#5f492b" fill-rule="evenodd" stroke="none"/>
    <path d="M0.1 0.65 L0.15 0.65 0.1 0.65" fill="#604929" fill-rule="evenodd" stroke="none"/>
    <path d="M0.1 0.65 L0.05 0.7 0.1 0.65" fill="#664e2c" fill-rule="evenodd" stroke="none"/>
    <path d="M0.15 0.9 L0.1 0.95 0.15 0.9 0.15 0.9" fill="#40301c" fill-rule="evenodd" stroke="none"/>
    <path d="M0.3 0.9 L0.3 0.9" fill="#43321c" fill-rule="evenodd" stroke="none"/>
    <path d="M0.25 0.9 L0.25 0.9 M0.05 0.95 L0.05 0.95" fill="#46341e" fill-rule="evenodd" stroke="none"/>
    <path d="M0.2 0.65 L0.2 0.65" fill="#463520" fill-rule="evenodd" stroke="none"/>
    <path d="M0.25 0.95 L0.3 0.9 0.3 0.95 0.25 0.95" fill="#392a18" fill-rule="evenodd" stroke="none"/>
    <path d="M0.75 1.2 L0.7 1.25 0.6 1.25 0.5 1.3 0.5 1.35 0.45 1.4 0.45 1.3 0.4 1.3 0.4 1.35 Q0.35 1.35 0.3 1.4 L0.25 1.45 0.2 1.45 0.1 1.45 0.05 1.5 0.0 1.55 0.0 1.45 Q0.0 1.45 -0.05 1.45 L-0.1 1.45 -0.15 1.45 -0.15 1.5 -0.1 1.5 -0.15 1.55 -0.2 1.55 -0.25 1.55 -0.3 1.45 -0.35 1.35 -0.35 1.3 -0.4 1.25 -0.45 1.25 -0.5 1.2 -0.45 1.15 -0.4 1.15 Q-0.4 1.15 -0.4 1.1 L-0.35 1.15 Q-0.3 1.15 -0.3 1.15 L-0.25 1.2 -0.2 1.15 -0.2 1.15 -0.15 1.1 -0.15 1.15 -0.15 1.2 -0.1 1.15 -0.15 1.2 -0.1 1.2 -0.1 1.25 -0.1 1.2 -0.05 1.2 -0.1 1.15 Q-0.05 1.15 0.0 1.15 L0.05 1.1 0.15 1.1 0.25 1.15 0.3 1.15 0.3 1.2 0.25 1.25 0.3 1.3 0.35 1.3 0.4 1.25 0.45 1.25 0.4 1.2 0.45 1.15 0.6 1.05 0.6 0.95 0.65 0.95 0.65 0.9 0.7 0.9 0.75 0.9 0.8 0.9 0.85 0.9 0.9 0.9 0.85 0.9 0.85 0.95 0.8 1.05 0.7 1.15 0.75 1.15 0.7 1.2 0.75 1.2 M0.1 1.2 L0.1 1.15 0.05 1.2 0.05 1.25 0.1 1.2 0.1 1.25 0.15 1.2 0.15 1.15 0.1 1.2 M0.05 1.2 L0.05 1.2 M0.15 1.2 L0.2 1.15 0.15 1.2 M0.85 0.9 L0.8 0.9 0.8 0.95 0.85 0.9 M0.25 1.15 L0.2 1.2 0.25 1.2 0.25 1.15 M0.45 1.2 L0.5 1.15 0.45 1.15 0.45 1.2 0.45 1.25 0.45 1.2 M0.5 1.15 L0.5 1.15 0.55 1.15 0.55 1.15 Q0.6 1.1 0.55 1.15 L0.5 1.15 M0.7 0.9 L0.7 0.95 0.7 0.9 M0.6 1.2 L0.6 1.2 0.55 1.2 0.6 1.2 0.6 1.25 0.6 1.2 M-0.4 1.15 L-0.4 1.2 -0.35 1.2 -0.35 1.15 -0.4 1.15 M-0.1 1.15 L-0.1 1.15 M-0.35 1.2 L-0.35 1.15 -0.35 1.2 M-0.3 1.15 L-0.3 1.2 -0.3 1.15 M-0.2 1.15 L-0.2 1.25 -0.2 1.15" fill="#a87540" fill-rule="evenodd" stroke="none"/>
    <path d="M0.1 1.2 L0.15 1.15 0.15 1.2 0.1 1.25 0.1 1.2" fill="#493218" fill-rule="evenodd" stroke="none"/>
    <path d="M0.15 1.2 L0.2 1.15 0.15 1.2" fill="#4a3319" fill-rule="evenodd" stroke="none"/>
    <path d="M0.1 1.2 L0.05 1.25 0.05 1.2 0.1 1.15 0.1 1.2" fill="#493117" fill-rule="evenodd" stroke="none"/>
    <path d="M0.25 1.15 L0.25 1.2 0.2 1.2 0.25 1.15" fill="#4c371c" fill-rule="evenodd" stroke="none"/>
    <path d="M0.35 1.2 L0.3 1.2 0.35 1.2" fill="#392815" fill-rule="evenodd" stroke="none"/>
    <path d="M0.3 1.15 L0.35 1.15 0.35 1.2 0.3 1.2 0.3 1.15" fill="#916b3d" fill-rule="evenodd" stroke="none"/>
    <path d="M0.3 1.15 L0.3 1.2 0.3 1.15" fill="#3b2a17" fill-rule="evenodd" stroke="none"/>
    <path d="M0.5 1.15 L0.55 1.15 Q0.6 1.1 0.55 1.15 L0.55 1.15 0.5 1.15 0.5 1.15" fill="#4f381b" fill-rule="evenodd" stroke="none"/>
    <path d="M0.45 1.2 L0.45 1.15 0.5 1.15 0.45 1.2" fill="#3d2b16" fill-rule="evenodd" stroke="none"/>
    <path d="M0.45 1.2 L0.45 1.25 0.45 1.2" fill="#412f19" fill-rule="evenodd" stroke="none"/>
    <path d="M1.1 0.65 L1.05 0.7 1.1 0.65" fill="#513a23" fill-rule="evenodd" stroke="none"/>
    <path d="M0.6 0.65 L0.6 0.65 M0.95 0.65 L0.95 0.7 0.9 0.75 0.95 0.7 0.95 0.65 M-0.65 0.9 L-0.7 0.95 -0.65 0.9 -0.65 0.9" fill="#44321c" fill-rule="evenodd" stroke="none"/>
    <path d="M0.85 0.65 L0.85 0.65" fill="#41301b" fill-rule="evenodd" stroke="none"/>
    <path d="M0.9 0.9 L0.9 0.95 Q0.85 0.95 0.9 0.9 L0.95 0.85 0.9 0.9" fill="#533c22" fill-rule="evenodd" stroke="none"/>
    <path d="M0.9 0.9 L0.85 0.95 0.85 0.9 0.9 0.9" fill="#342616" fill-rule="evenodd" stroke="none"/>
    <path d="M0.8 0.95 L0.85 0.9 0.8 0.95" fill="#402e1a" fill-rule="evenodd" stroke="none"/>
    <path d="M0.95 0.9 L0.95 0.9" fill="#5f4529" fill-rule="evenodd" stroke="none"/>
    <path d="M0.8 0.65 L0.85 0.65 0.8 0.65" fill="#382917" fill-rule="evenodd" stroke="none"/>
    <path d="M0.75 0.65 L0.75 0.7 0.75 0.65" fill="#4e3920" fill-rule="evenodd" stroke="none"/>
    <path d="M0.75 0.65 L0.7 0.7 0.7 0.65 0.75 0.65 M-0.45 0.9 L-0.45 0.9 -0.5 0.95 -0.5 0.9 -0.45 0.9" fill="#46341c" fill-rule="evenodd" stroke="none"/>
    <path d="M0.75 0.7 L0.7 0.7 0.65 0.7 0.65 0.65 0.7 0.65 0.75 0.65 0.7 0.65 0.7 0.7 0.75 0.65 0.75 0.7" fill="#b98f55" fill-rule="evenodd" stroke="none"/>
    <path d="M0.65 0.65 L0.7 0.65 0.65 0.65" fill="#392c18" fill-rule="evenodd" stroke="none"/>
    <path d="M0.65 0.7 L0.6 0.65 0.65 0.65 0.65 0.7" fill="#ac854e" fill-rule="evenodd" stroke="none"/>
    <path d="M0.7 0.9 L0.7 0.95 0.7 0.9" fill="#3d2c17" fill-rule="evenodd" stroke="none"/>
    <path d="M0.8 0.9 L0.8 0.95 0.8 0.9" fill="#44311b" fill-rule="evenodd" stroke="none"/>
    <path d="M0.6 0.95 L0.65 0.95 0.65 0.9 0.65 0.95 0.6 0.95" fill="#372714" fill-rule="evenodd" stroke="none"/>
    <path d="M0.7 0.95 L0.7 0.9 0.7 0.95" fill="#47331c" fill-rule="evenodd" stroke="none"/>
    <path d="M0.6 1.25 L0.6 1.2 0.6 1.25" fill="#3d2a15" fill-rule="evenodd" stroke="none"/>
    <path d="M0.75 1.2 L0.75 1.15 0.8 1.1 0.8 1.15 0.75 1.2" fill="#3a2916" fill-rule="evenodd" stroke="none"/>
    <path d="M0.95 1.2 Q0.95 1.15 0.95 1.15 L0.95 1.2" fill="#49321c" fill-rule="evenodd" stroke="none"/>
    <path d="M0.9 1.25 L0.9 1.2 0.9 1.25" fill="#4d351e" fill-rule="evenodd" stroke="none"/>
    <path d="M1.05 1.1 L1.05 1.15 1.0 1.2 1.0 1.15 1.05 1.1" fill="#312111" fill-rule="evenodd" stroke="none"/>
    <path d="M1.05 1.15 L1.05 1.2 1.0 1.2 1.05 1.15" fill="#865e36" fill-rule="evenodd" stroke="none"/>
    <path d="M1.05 1.15 L1.05 1.2 1.05 1.15 M1.0 1.25 L1.0 1.2 1.05 1.2 1.0 1.25" fill="#2a1c0d" fill-rule="evenodd" stroke="none"/>
    <path d="M0.95 1.2 L1.0 1.15 0.95 1.2" fill="#6e4c2b" fill-rule="evenodd" stroke="none"/>
    <path d="M1.1 0.9 L1.05 0.95 1.05 0.9 1.1 0.85 1.1 0.9" fill="#302212" fill-rule="evenodd" stroke="none"/>
    <path d="M0.95 1.7 L0.95 1.65 0.9 1.55 0.85 1.55 0.8 1.55 0.8 1.5 0.95 1.5 1.05 1.55 1.1 1.55 1.1 1.6 1.05 1.65 1.0 1.7 0.95 1.7" fill="#6e4c25" fill-rule="evenodd" stroke="none"/>
    <path d="M1.4 1.7 L1.35 1.7 1.35 1.75 1.35 1.7 1.3 1.7 1.3 1.65 Q1.3 1.65 1.25 1.7 L1.2 1.65 1.15 1.65 1.1 1.65 1.1 1.7 1.05 1.7 1.0 1.7 1.05 1.65 1.1 1.6 1.1 1.55 1.05 1.55 0.95 1.5 0.8 1.5 0.8 1.55 0.65 1.55 0.55 1.6 Q0.5 1.6 0.5 1.6 L0.45 1.65 0.4 1.6 Q0.35 1.6 0.35 1.65 L0.35 1.7 0.3 1.65 0.3 1.7 0.25 1.7 0.2 1.7 0.15 1.7 0.15 1.65 0.25 1.7 0.25 1.6 0.2 1.55 0.25 1.55 0.3 1.55 0.35 1.45 0.4 1.45 0.45 1.45 0.5 1.5 0.55 1.5 Q0.55 1.45 0.55 1.5 L0.6 1.5 0.6 1.45 0.65 1.35 0.65 1.4 0.65 1.5 0.7 1.5 0.75 1.5 0.75 1.45 0.9 1.45 1.0 1.4 1.05 1.4 1.1 1.45 1.1 1.5 1.15 1.45 1.2 1.5 1.3 1.45 Q1.3 1.4 1.3 1.4 L1.35 1.45 1.4 1.4 1.4 1.35 1.45 1.3 1.5 1.3 1.5 1.35 1.45 1.35 1.45 1.45 1.4 1.5 1.35 1.5 1.3 1.55 1.2 1.55 1.25 1.6 1.3 1.6 1.4 1.6 1.45 1.65 1.4 1.65 Q1.4 1.65 1.4 1.7" fill="#7c572e" fill-rule="evenodd" stroke="none"/>
    <path d="M0.95 1.65 L0.9 1.65 0.9 1.6 Q0.85 1.6 0.85 1.6 L0.85 1.55 0.8 1.55 0.8 1.65 0.7 1.7 0.65 1.65 0.7 1.65 0.75 1.65 0.75 1.6 0.8 1.55 0.85 1.55 0.9 1.55 0.95 1.65" fill="#322210" fill-rule="evenodd" stroke="none"/>
    <path d="M0.65 1.65 L0.65 1.7 0.6 1.7 0.5 1.7 0.45 1.7 0.45 1.65 0.5 1.6 Q0.5 1.6 0.55 1.6 L0.65 1.55 0.8 1.55 0.75 1.6 0.75 1.65 0.7 1.65 0.65 1.65" fill="#6c4a24" fill-rule="evenodd" stroke="none"/>
    <path d="M1.05 1.7 L1.0 1.7 0.95 1.7 1.0 1.7 1.05 1.7" fill="#362916" fill-rule="evenodd" stroke="none"/>
    <path d="M1.15 1.65 L1.1 1.75 1.05 1.75 1.05 1.7 1.1 1.7 1.1 1.65 1.15 1.65 M-0.75 0.4 L-0.75 0.4 -0.8 0.45 -0.75 0.4" fill="#543e22" fill-rule="evenodd" stroke="none"/>
    <path d="M0.35 1.65 L0.35 1.7 0.3 1.7 0.3 1.65 0.35 1.7 0.35 1.65" fill="#372715" fill-rule="evenodd" stroke="none"/>
    <path d="M0.2 1.7 L0.15 1.75 0.15 1.7 0.05 1.65 0.0 1.65 0.0 1.65 -0.05 1.65 0.0 1.65 0.05 1.65 0.1 1.65 0.15 1.65 0.15 1.7 0.2 1.7" fill="#3e2c18" fill-rule="evenodd" stroke="none"/>
    <path d="M0.45 1.65 L0.4 1.65 0.35 1.65 Q0.35 1.6 0.4 1.6 L0.45 1.65" fill="#6d4d27" fill-rule="evenodd" stroke="none"/>
    <path d="M0.45 1.7 L0.4 1.7 0.35 1.65 0.4 1.65 0.45 1.65 0.45 1.7" fill="#382814" fill-rule="evenodd" stroke="none"/>
    <path d="M0.65 1.7 L0.6 1.75 0.5 1.7 0.6 1.7 0.65 1.7" fill="#312312" fill-rule="evenodd" stroke="none"/>
    <path d="M1.55 1.35 L1.55 1.55 1.45 1.7 1.45 1.6 1.45 1.65 1.4 1.6 1.3 1.6 1.25 1.6 1.2 1.55 1.3 1.55 1.35 1.5 1.4 1.5 1.45 1.45 1.45 1.35 1.5 1.35 1.55 1.35" fill="#714e28" fill-rule="evenodd" stroke="none"/>
    <path d="M1.35 1.75 Q1.3 1.75 1.3 1.75 L1.3 1.7 1.25 1.7 Q1.3 1.65 1.3 1.65 L1.3 1.7 1.35 1.7 1.35 1.75" fill="#372815" fill-rule="evenodd" stroke="none"/>
    <path d="M1.25 1.7 L1.2 1.7 1.15 1.65 1.2 1.65 1.25 1.7" fill="#271d0f" fill-rule="evenodd" stroke="none"/>
    <path d="M1.45 1.7 L1.4 1.7 Q1.4 1.65 1.4 1.65 L1.45 1.65 1.45 1.6 1.45 1.7" fill="#2d2112" fill-rule="evenodd" stroke="none"/>
    <path d="M-0.25 -1.7 Q-0.25 -1.6 -0.3 -1.65 L-0.3 -1.65 -0.35 -1.65 Q-0.4 -1.65 -0.4 -1.65 L-0.4 -1.7 -0.45 -1.7 -0.45 -1.75 -0.4 -1.75 -0.35 -1.7 -0.35 -1.7 Q-0.35 -1.65 -0.3 -1.7 L-0.3 -1.7 -0.25 -1.7 -0.25 -1.7 M-0.6 -1.75 L-0.5 -1.7 -0.45 -1.7 -0.5 -1.65 -0.55 -1.7 -0.6 -1.75" fill="#6b4f2f" fill-rule="evenodd" stroke="none"/>
    <path d="M-0.4 -1.65 L-0.35 -1.6 -0.3 -1.6 -0.25 -1.6 -0.2 -1.6 -0.2 -1.55 -0.25 -1.5 -0.25 -1.55 -0.35 -1.55 -0.4 -1.6 Q-0.5 -1.55 -0.45 -1.55 L-0.5 -1.5 -0.5 -1.45 -0.55 -1.4 Q-0.55 -1.4 -0.55 -1.45 -0.6 -1.45 -0.65 -1.4 L-0.7 -1.4 -0.75 -1.35 -0.7 -1.35 -0.7 -1.3 -0.75 -1.3 -0.85 -1.25 -0.9 -1.3 -0.9 -1.4 -0.85 -1.4 -0.85 -1.45 -0.85 -1.5 -0.9 -1.5 -0.9 -1.45 -0.95 -1.5 Q-0.95 -1.55 -0.95 -1.6 L-0.95 -1.65 Q-0.9 -1.7 -0.95 -1.75 L-0.85 -1.75 -0.8 -1.65 -0.7 -1.65 -0.65 -1.7 -0.6 -1.75 -0.6 -1.75 -0.55 -1.7 -0.5 -1.65 -0.45 -1.7 -0.45 -1.7 -0.4 -1.7 -0.4 -1.65 M-0.7 -1.55 L-0.7 -1.45 -0.65 -1.45 -0.65 -1.45 -0.65 -1.55 -0.7 -1.55" fill="#cf9859" fill-rule="evenodd" stroke="none"/>
    <path d="M-0.65 -1.7 L-0.65 -1.7 -0.6 -1.75 -0.65 -1.7" fill="#7a5a34" fill-rule="evenodd" stroke="none"/>
    <path d="M-0.8 -1.75 L-0.75 -1.7 -0.65 -1.7 -0.7 -1.65 -0.75 -1.7 -0.8 -1.75" fill="#564026" fill-rule="evenodd" stroke="none"/>
    <path d="M-0.85 -1.75 L-0.8 -1.75 -0.75 -1.7 -0.7 -1.65 -0.8 -1.65 -0.85 -1.75" fill="#a07545" fill-rule="evenodd" stroke="none"/>
    <path d="M-0.7 -1.55 L-0.65 -1.55 -0.65 -1.45 -0.65 -1.45 -0.7 -1.45 -0.7 -1.55" fill="#c08245" fill-rule="evenodd" stroke="none"/>
    <path d="M-1.0 -1.65 L-1.0 -1.65 -1.0 -1.7 -0.95 -1.65 -0.95 -1.75 -0.95 -1.65 -0.95 -1.6 Q-0.95 -1.55 -0.95 -1.5 L-0.9 -1.45 -0.9 -1.5 -0.85 -1.5 -0.85 -1.45 -0.85 -1.4 -0.9 -1.4 -0.9 -1.3 -0.85 -1.25 -0.9 -1.25 -0.9 -1.25 -0.95 -1.25 -0.95 -1.35 -1.0 -1.4 Q-0.95 -1.45 -1.0 -1.5 L-1.05 -1.5 -1.1 -1.55 -1.1 -1.6 -1.05 -1.6 -1.05 -1.65 -1.0 -1.65 M-0.95 -1.75 L-0.95 -1.75" fill="#c0894e" fill-rule="evenodd" stroke="none"/>
    <path d="M-1.05 -1.65 L-1.05 -1.65 -1.05 -1.6 -1.1 -1.6 -1.1 -1.55 -1.05 -1.5 -1.0 -1.5 Q-0.95 -1.45 -1.0 -1.4 L-0.95 -1.35 -0.95 -1.25 -0.9 -1.25 -0.9 -1.25 -0.95 -1.25 -1.0 -1.2 -1.05 -1.15 -1.1 -1.1 -1.15 -1.05 -1.2 -1.05 -1.25 -1.1 -1.25 -1.05 -1.2 -1.0 -1.2 -0.95 -1.2 -0.9 -1.15 -0.85 -1.1 -0.8 Q-1.15 -0.8 -1.15 -0.75 L-1.15 -0.7 -1.1 -0.7 -1.05 -0.7 -1.05 -0.6 -1.05 -0.45 -1.05 -0.35 -1.1 -0.4 -1.1 -0.4 -1.2 -0.4 -1.3 -0.45 -1.3 -0.5 -1.35 -0.55 -1.45 -0.6 -1.45 -0.65 -1.5 -0.65 -1.5 -0.7 -1.4 -0.7 -1.35 -0.6 -1.3 -0.55 -1.3 -0.55 -1.25 -0.5 -1.25 -0.45 -1.25 -0.55 -1.2 -0.45 -1.15 -0.45 -1.15 -0.7 -1.2 -0.7 -1.25 -0.7 -1.25 -0.75 -1.2 -0.75 -1.2 -0.85 -1.25 -0.9 -1.25 -0.95 -1.3 -1.0 -1.3 -1.05 -1.35 -1.05 Q-1.35 -1.1 -1.4 -1.1 L-1.4 -1.15 -1.35 -1.2 -1.3 -1.2 Q-1.3 -1.2 -1.3 -1.15 L-1.3 -1.15 -1.25 -1.15 -1.25 -1.2 -1.2 -1.2 -1.2 -1.15 -1.15 -1.15 -1.1 -1.15 -1.1 -1.25 -1.1 -1.4 -1.05 -1.4 -1.1 -1.45 -1.1 -1.5 -1.15 -1.55 -1.15 -1.65 -1.1 -1.65 -1.1 -1.65 Q-1.05 -1.65 -1.05 -1.65" fill="#aa7943" fill-rule="evenodd" stroke="none"/>
    <path d="M-0.15 -1.75 L-0.15 -1.7 -0.2 -1.7 -0.2 -1.7 -0.15 -1.75" fill="#7b5d36" fill-rule="evenodd" stroke="none"/>
    <path d="M-0.25 -1.35 L-0.05 -1.35 -0.05 -1.2 0.0 -1.2 0.0 -1.2 -0.05 -1.15 -0.3 -1.15 -0.3 -1.35 -0.25 -1.35" fill="#d19c5e" fill-rule="evenodd" stroke="none"/>
    <path d="M-0.05 -1.35 L-0.05 -1.35 0.0 -1.35 0.05 -1.35 0.0 -1.35 0.0 -1.2 0.0 -1.3 -0.05 -1.35" fill="#755836" fill-rule="evenodd" stroke="none"/>
    <path d="M-0.35 -1.35 L-0.35 -1.15 -0.35 -1.15 -0.65 -1.15 -0.65 -1.25 -0.35 -1.35" fill="#d19a5c" fill-rule="evenodd" stroke="none"/>
    <path d="M-1.55 -0.95 L-1.55 -1.1 -1.5 -1.2 -1.5 -1.15 -1.5 -1.3 -1.5 -1.45 -1.45 -1.45 Q-1.45 -1.45 -1.45 -1.5 L-1.45 -1.45 -1.4 -1.45 -1.4 -1.4 -1.45 -1.45 -1.45 -1.3 -1.45 -1.25 -1.5 -1.05 -1.5 -0.85 -1.5 -0.9 -1.55 -0.95" fill="#5f4528" fill-rule="evenodd" stroke="none"/>
    <path d="M-1.5 -1.25 L-1.5 -1.55 -1.45 -1.5 -1.45 -1.5 Q-1.45 -1.45 -1.45 -1.45 L-1.5 -1.45 -1.5 -1.3 -1.5 -1.25" fill="#281d11" fill-rule="evenodd" stroke="none"/>
    <path d="M-1.4 -1.45 L-1.4 -1.45 Q-1.4 -1.45 -1.35 -1.45 L-1.35 -1.45 -1.35 -1.5 -1.3 -1.55 -1.3 -1.45 -1.3 -1.6 -1.25 -1.6 -1.25 -1.6 -1.2 -1.55 -1.2 -1.4 -1.15 -1.35 -1.15 -1.25 -1.2 -1.15 Q-1.1 -1.15 -1.1 -1.2 L-1.15 -1.35 -1.1 -1.4 -1.1 -1.5 -1.1 -1.45 -1.05 -1.4 -1.1 -1.4 -1.1 -1.25 -1.1 -1.15 -1.15 -1.15 -1.2 -1.15 -1.2 -1.2 -1.25 -1.2 -1.25 -1.15 -1.3 -1.15 -1.3 -1.15 Q-1.3 -1.2 -1.3 -1.2 L-1.35 -1.2 -1.4 -1.15 -1.4 -1.1 Q-1.35 -1.1 -1.35 -1.05 L-1.3 -1.05 -1.3 -1.0 -1.25 -0.95 -1.25 -0.9 -1.2 -0.85 -1.2 -0.75 -1.25 -0.75 -1.25 -0.7 -1.2 -0.7 -1.15 -0.7 -1.15 -0.45 -1.2 -0.45 -1.25 -0.55 -1.25 -0.45 -1.25 -0.5 -1.3 -0.55 -1.3 -0.55 -1.35 -0.6 -1.4 -0.7 -1.5 -0.7 -1.5 -0.85 -1.5 -1.05 -1.45 -1.25 -1.45 -1.3 -1.45 -1.45 -1.4 -1.4 -1.4 -1.45" fill="#9a7141" fill-rule="evenodd" stroke="none"/>
    <path d="M-1.5 -1.2 L-1.5 -1.25 -1.5 -1.3 -1.5 -1.15 -1.5 -1.2" fill="#8b653c" fill-rule="evenodd" stroke="none"/>
    <path d="M-1.3 -1.65 L-1.3 -1.7 -1.25 -1.7 -1.25 -1.75 -1.2 -1.7 -1.15 -1.7 -1.15 -1.65 -1.1 -1.7 -1.05 -1.65 Q-1.05 -1.65 -1.1 -1.65 L-1.1 -1.65 -1.15 -1.65 -1.2 -1.65 -1.15 -1.65 -1.15 -1.6 -1.2 -1.65 -1.2 -1.65 -1.25 -1.7 -1.25 -1.65 -1.25 -1.65 -1.3 -1.65 -1.3 -1.65" fill="#513c22" fill-rule="evenodd" stroke="none"/>
    <path d="M-1.3 -1.65 L-1.3 -1.65 -1.3 -1.65 -1.25 -1.65 -1.25 -1.65 -1.25 -1.7 -1.2 -1.65 -1.2 -1.65 -1.15 -1.6 -1.15 -1.65 -1.2 -1.65 -1.15 -1.65 -1.15 -1.55 -1.1 -1.5 -1.1 -1.4 -1.15 -1.35 -1.1 -1.2 Q-1.1 -1.15 -1.2 -1.15 L-1.15 -1.25 -1.15 -1.35 -1.2 -1.4 -1.2 -1.55 -1.25 -1.6 -1.25 -1.6 -1.3 -1.6 -1.3 -1.65" fill="#906839" fill-rule="evenodd" stroke="none"/>
    <path d="M-1.05 -1.65 L-1.05 -1.65 -1.0 -1.65 -1.05 -1.65 -1.05 -1.6 -1.05 -1.65" fill="#573e22" fill-rule="evenodd" stroke="none"/>
    <path d="M-0.95 -1.75 L-0.95 -1.75 Q-0.9 -1.7 -0.95 -1.65 L-0.95 -1.75" fill="#846239" fill-rule="evenodd" stroke="none"/>
    <path d="M-1.4 -1.45 L-1.4 -1.5 -1.35 -1.55 Q-1.35 -1.55 -1.35 -1.6 L-1.35 -1.6 -1.3 -1.6 -1.3 -1.6 -1.35 -1.6 -1.35 -1.65 -1.35 -1.65 -1.3 -1.65 -1.3 -1.6 -1.3 -1.45 -1.3 -1.55 -1.35 -1.5 -1.35 -1.45 -1.35 -1.45 Q-1.4 -1.45 -1.4 -1.45" fill="#4e3922" fill-rule="evenodd" stroke="none"/>
    <path d="M-0.25 -1.15 L-0.2 -1.1 -0.2 -1.05 -0.25 -1.05 -0.25 -1.05 -0.3 -1.05 -0.55 -1.05 -0.65 -1.05 -1.0 -1.0 -1.0 -1.05 -1.0 -1.15 -0.85 -1.15 -0.8 -1.15 -0.55 -1.15 -0.25 -1.15 M-0.55 -1.05 L-0.55 -1.1 Q-0.55 -1.05 -0.55 -1.05 L-0.6 -1.1 -0.6 -1.05 -0.55 -1.05 M-0.25 -1.05 L-0.25 -1.1 -0.25 -1.05 M-0.4 -1.1 L-0.4 -1.05 -0.4 -1.05 -0.35 -1.05 -0.4 -1.1 M-0.45 -1.1 L-0.45 -1.1 -0.45 -1.05 -0.45 -1.1 -0.5 -1.1 -0.5 -1.05 -0.45 -1.1 M-0.3 -1.05 L-0.3 -1.1 -0.3 -1.05 M-0.35 -1.05 L-0.35 -1.1 -0.35 -1.05 M-0.7 -1.05 L-0.7 -1.05 -0.65 -1.05 -0.7 -1.1 -0.7 -1.05 -0.75 -1.1 -0.75 -1.05 -0.7 -1.05 M-0.65 -1.05 L-0.65 -1.05 Q-0.6 -1.05 -0.6 -1.05 L-0.65 -1.1 -0.65 -1.05 M-0.95 -1.05 L-0.9 -1.05 -0.9 -1.1 -0.95 -1.1 -0.95 -1.05 -0.95 -1.1 -1.0 -1.1 -1.0 -1.05 -0.95 -1.05 M-0.85 -1.05 L-0.8 -1.05 -0.8 -1.1 -0.85 -1.1 -0.85 -1.1 -0.9 -1.1 -0.9 -1.05 -0.85 -1.05 M-0.8 -1.05 L-0.75 -1.05 -0.75 -1.05 -0.8 -1.1 -0.8 -1.05" fill="#533c23" fill-rule="evenodd" stroke="none"/>
    <path d="M-1.05 -0.7 L-1.1 -0.7 -1.15 -0.7 -1.15 -0.75 Q-1.15 -0.8 -1.1 -0.8 L-1.15 -0.85 -1.2 -0.9 -1.2 -0.95 -1.2 -1.0 -1.25 -1.05 -1.25 -1.1 -1.2 -1.05 -1.15 -1.05 -1.1 -1.1 -1.05 -1.15 -1.05 -0.85 -1.05 -0.7" fill="#bd874c" fill-rule="evenodd" stroke="none"/>
    <path d="M-0.95 -1.05 L-1.0 -1.05 -1.0 -1.1 -0.95 -1.1 -0.95 -1.05" fill="#b07c43" fill-rule="evenodd" stroke="none"/>
    <path d="M-0.3 -1.05 L-0.3 -1.0 -0.5 -1.0 -0.75 -1.0 -0.75 -1.0 -0.8 -0.9 -0.8 -1.0 -0.9 -1.0 -1.0 -1.0 -0.65 -1.05 -0.55 -1.05 -0.3 -1.05 M-1.0 -1.0 L-1.0 -1.0 -1.0 -1.0 M-0.55 -1.05 L-0.55 -1.05" fill="#92693c" fill-rule="evenodd" stroke="none"/>
    <path d="M-1.0 -1.0 L-1.0 -1.0 -1.0 -0.75 Q-1.05 -0.75 -1.05 -0.8 L-1.05 -0.85 -1.0 -1.0" fill="#73502b" fill-rule="evenodd" stroke="none"/>
    <path d="M-0.95 -1.05 L-0.95 -1.1 -0.9 -1.1 -0.9 -1.05 -0.95 -1.05" fill="#ab7b45" fill-rule="evenodd" stroke="none"/>
    <path d="M-1.05 -0.6 L-1.05 -0.7 -1.05 -0.85 -1.05 -0.8 Q-1.05 -0.75 -1.0 -0.75 L-1.0 -0.6 -1.0 -0.6 -1.05 -0.6 M-1.05 -0.85 L-1.05 -0.85" fill="#986939" fill-rule="evenodd" stroke="none"/>
    <path d="M-1.0 -1.0 L-0.9 -1.0 -0.8 -1.0 -0.8 -0.9 -0.75 -1.0 -0.75 -0.55 -0.95 -0.55 -0.85 -0.55 -0.95 -0.6 -0.95 -0.6 -1.0 -0.6 -1.0 -0.75 -1.0 -1.0" fill="#be864b" fill-rule="evenodd" stroke="none"/>
    <path d="M-1.55 0.05 L-1.55 0.0 -1.5 -0.1 -1.5 -0.2 -1.5 -0.3 -1.5 -0.65 -1.45 -0.65 Q-1.45 -0.45 -1.45 -0.25 -1.45 -0.1 -1.55 0.05" fill="#7b5a37" fill-rule="evenodd" stroke="none"/>
    <path d="M-1.5 -0.3 L-1.5 -0.7 -1.55 -0.85 -1.55 -0.95 -1.5 -0.9 -1.5 -0.85 -1.5 -0.7 -1.5 -0.65 -1.5 -0.3" fill="#382818" fill-rule="evenodd" stroke="none"/>
    <path d="M-1.55 -0.1 L-1.55 -0.15 -1.5 -0.2 -1.5 -0.15 -1.55 -0.1" fill="#322517" fill-rule="evenodd" stroke="none"/>
    <path d="M-1.45 1.2 L-1.45 1.2 -1.45 1.15 -1.5 1.15 -1.55 1.1 -1.55 0.05 -1.5 0.05 -1.45 0.0 -1.45 0.0 Q-1.3 -0.05 -1.3 -0.1 L-1.25 -0.1 -1.25 -0.15 Q-1.2 -0.2 -1.25 -0.25 L-1.25 -0.2 -1.3 -0.2 -1.4 -0.25 -1.45 -0.25 Q-1.45 -0.45 -1.45 -0.65 L-1.45 -0.6 -1.35 -0.55 -1.3 -0.5 -1.3 -0.45 -1.2 -0.4 -1.1 -0.4 -1.1 -0.4 -1.05 -0.35 -1.05 0.1 -1.1 0.1 -1.1 0.15 -1.0 0.15 -0.9 0.15 -0.95 0.2 -1.0 0.2 -0.95 0.25 -0.9 0.3 -0.95 0.35 -0.95 0.35 -0.9 0.35 -0.9 0.4 -0.9 0.45 -0.9 0.55 -0.95 0.6 -0.95 0.7 -0.9 0.7 -1.0 0.75 -1.0 0.9 -1.05 0.9 -1.05 0.75 -1.05 0.75 -1.05 0.7 -1.0 0.7 -1.05 0.65 -1.0 0.65 -1.0 0.6 -1.0 0.6 -1.0 0.65 -1.05 0.6 -1.05 0.6 -1.05 0.65 -1.1 0.6 -1.1 0.65 -1.15 0.65 -1.15 0.7 -1.1 0.75 -1.1 0.8 -1.1 0.9 -1.15 0.9 -1.15 0.95 -1.15 0.95 Q-1.1 0.95 -1.1 1.0 L-1.1 1.0 -1.1 1.05 -1.15 1.05 -1.2 1.05 -1.2 1.05 -1.25 1.05 -1.3 1.1 -1.35 1.1 -1.35 1.15 -1.4 1.15 -1.4 1.25 -1.35 1.25 -1.4 1.25 -1.45 1.25 -1.45 1.25 -1.45 1.2 M-0.95 0.3 L-1.0 0.35 -1.0 0.35 -0.95 0.3 M-1.0 0.6 L-1.0 0.6 M-1.35 0.3 L-1.35 0.3 -1.4 0.3 -1.4 0.35 -1.35 0.3 M-1.3 0.35 L-1.3 0.35 -1.3 0.35 M-1.0 0.35 L-1.0 0.35 -1.05 0.35 -1.05 0.35 -1.1 0.4 -1.1 0.45 -1.05 0.4 -1.05 0.35 -1.05 0.45 -1.0 0.35 M-1.1 0.35 L-1.15 0.4 -1.15 0.4 -1.1 0.4 -1.1 0.35 M-1.2 0.4 L-1.2 0.4 -1.2 0.4 M-1.15 0.4 L-1.15 0.4 -1.15 0.4 M-1.25 0.35 L-1.25 0.4 -1.2 0.35 -1.2 0.3 -1.25 0.35 M-1.25 0.95 L-1.3 1.0 -1.25 1.0 -1.2 1.0 -1.2 0.95 -1.15 0.95 -1.15 0.9 -1.2 0.9 Q-1.15 0.85 -1.2 0.9 L-1.25 0.95 -1.25 0.95 -1.3 0.9 -1.25 0.9 -1.3 0.9 -1.35 0.9 -1.35 0.95 -1.3 0.95 -1.25 0.95 M-1.15 0.65 L-1.15 0.65 -1.2 0.7 -1.15 0.65 M-1.35 0.7 L-1.35 0.65 -1.35 0.7 M-1.4 0.7 L-1.35 0.65 -1.35 0.65 -1.4 0.7" fill="#b07f4c" fill-rule="evenodd" stroke="none"/>
    <path d="M-1.55 0.05 L-1.55 0.05 Q-1.45 -0.1 -1.45 -0.25 L-1.4 -0.25 -1.3 -0.2 -1.25 -0.2 -1.25 -0.25 Q-1.2 -0.2 -1.25 -0.15 L-1.25 -0.1 -1.3 -0.1 Q-1.3 -0.05 -1.45 0.0 L-1.45 0.0 -1.5 0.05 -1.55 0.05" fill="#c79457" fill-rule="evenodd" stroke="none"/>
    <path d="M-1.0 -0.5 L-1.0 -0.6 -0.95 -0.6 -0.95 -0.6 -0.95 -0.55 -0.95 -0.5 -0.95 -0.5 -1.0 -0.5 M-1.0 -0.6 L-1.0 -0.6" fill="#5a4023" fill-rule="evenodd" stroke="none"/>
    <path d="M-0.75 -0.55 L-0.75 -0.55 -0.7 -0.55 -0.8 -0.55 -0.9 -0.55 -0.95 -0.5 -0.95 -0.55 -0.95 -0.6 -0.85 -0.55 -0.95 -0.55 -0.75 -0.55" fill="#8e663b" fill-rule="evenodd" stroke="none"/>
    <path d="M-1.05 -0.45 L-1.05 -0.6 -1.0 -0.6 -1.0 -0.5 -1.0 -0.4 -1.0 -0.45 -1.0 -0.55 -1.05 -0.5 -1.05 -0.5 Q-1.0 -0.45 -1.05 -0.45" fill="#352514" fill-rule="evenodd" stroke="none"/>
    <path d="M-1.05 -0.35 L-1.05 -0.45 Q-1.0 -0.45 -1.05 -0.5 L-1.05 -0.5 -1.0 -0.55 -1.0 -0.45 -1.0 0.05 -1.05 0.05 -1.05 0.1 -1.05 -0.35" fill="#986c3c" fill-rule="evenodd" stroke="none"/>
    <path d="M-1.0 -0.4 L-1.0 -0.5 -0.95 -0.5 -0.95 -0.45 -0.95 0.05 -0.8 0.05 -0.65 0.05 -0.7 0.05 -0.7 0.05 -0.8 0.05 -1.0 0.1 -1.0 0.05 -1.0 -0.4 M-0.8 0.05 L-0.8 0.05" fill="#996e40" fill-rule="evenodd" stroke="none"/>
    <path d="M-0.9 -0.55 L-0.75 -0.55 -0.75 -0.45 Q-0.75 -0.4 -0.8 -0.4 L-0.9 -0.4 -0.95 -0.45 -0.95 -0.5 -0.9 -0.55 M-0.95 -0.5 L-0.95 -0.5" fill="#ce9658" fill-rule="evenodd" stroke="none"/>
    <path d="M-1.05 0.1 L-1.05 0.05 -1.0 0.05 -1.0 -0.45 -1.0 -0.4 -1.0 0.05 -1.0 0.1 -0.8 0.05 -0.6 0.1 -0.4 0.1 -0.4 0.05 -0.4 0.05 -0.35 0.05 -0.35 0.1 -0.3 0.05 -0.3 0.05 -0.3 0.05 -0.25 0.1 -0.35 0.1 -0.4 0.15 -1.1 0.15 -1.1 0.1 -1.05 0.1 M-0.4 -0.45 L-0.4 -0.45 -0.35 -0.4 -0.35 -0.35 -0.4 -0.15 -0.4 0.05 -0.4 -0.15 -0.4 -0.45 M-0.3 0.05 L-0.3 0.05" fill="#483520" fill-rule="evenodd" stroke="none"/>
    <path d="M-0.75 -0.45 L-0.75 -0.4 -0.7 -0.35 -0.65 -0.3 -0.7 -0.25 -0.7 -0.05 -0.65 -0.05 -0.65 -0.05 -0.65 -0.25 Q-0.65 -0.25 -0.65 -0.15 L-0.65 -0.05 -0.65 -0.3 -0.55 -0.3 -0.55 -0.2 -0.6 -0.2 -0.6 -0.15 -0.55 -0.15 -0.55 0.0 -0.55 0.05 -0.5 0.05 -0.8 0.05 -0.7 0.05 -0.7 0.05 -0.65 0.05 -0.8 0.05 -0.95 0.05 -0.95 -0.45 -0.9 -0.4 -0.8 -0.4 Q-0.75 -0.4 -0.75 -0.45" fill="#b3834e" fill-rule="evenodd" stroke="none"/>
    <path d="M0.0 -1.1 L0.0 -1.1 0.05 -1.1 0.05 -1.05 0.05 -1.1 0.05 -1.05 0.0 -1.05 0.0 -1.1 M0.05 -1.05 L0.05 -1.05 0.05 -1.05" fill="#40301e" fill-rule="evenodd" stroke="none"/>
    <path d="M0.05 -1.05 L0.05 -1.05 0.0 -1.05 Q-0.05 -1.05 0.0 -1.1 L0.0 -1.05 0.05 -1.05 0.05 -1.1 0.05 -1.05 0.05 -1.05" fill="#b18651" fill-rule="evenodd" stroke="none"/>
    <path d="M-0.15 -1.1 L-0.1 -1.1 -0.05 -1.1 -0.1 -1.05 -0.15 -1.1 M-0.1 -1.05 L-0.1 -1.05" fill="#362818" fill-rule="evenodd" stroke="none"/>
    <path d="M-0.05 -1.1 L-0.05 -1.05 -0.05 -1.05 -0.1 -1.05 -0.05 -1.1" fill="#b58752" fill-rule="evenodd" stroke="none"/>
    <path d="M-0.15 -1.1 L-0.15 -1.05 -0.15 -1.1 -0.1 -1.05 -0.15 -1.05 Q-0.2 -1.05 -0.2 -1.05 L-0.15 -1.1" fill="#b78855" fill-rule="evenodd" stroke="none"/>
    <path d="M-0.25 -1.0 L-0.25 -1.05 Q-0.25 -1.0 -0.2 -1.0 L-0.15 -1.0 -0.15 -0.95 -0.2 -0.95 -0.1 -0.85 -0.1 -0.95 -0.05 -0.95 -0.05 -0.9 Q0.0 -0.9 -0.05 -0.85 L-0.15 -0.85 -0.15 -0.85 -0.15 -0.85 -0.2 -0.8 -0.2 -0.85 -0.25 -0.8 -0.25 -0.85 -0.25 -1.0 M-0.2 -0.85 L-0.2 -0.85 -0.15 -0.9 -0.2 -0.9 -0.2 -0.95 -0.25 -0.95 -0.25 -0.9 -0.25 -0.85 -0.25 -0.85 -0.2 -0.85 M-0.1 -1.0 L-0.1 -1.0 -0.15 -1.0 -0.1 -1.0 -0.1 -1.0" fill="#bc8b55" fill-rule="evenodd" stroke="none"/>
    <path d="M-0.2 -1.1 L-0.2 -1.1 -0.15 -1.1 -0.2 -1.05 -0.2 -1.1 M-0.2 -1.05 L-0.2 -1.05" fill="#382a1b" fill-rule="evenodd" stroke="none"/>
    <path d="M-0.2 -1.1 L-0.2 -1.1 -0.2 -1.05 -0.2 -1.05 -0.2 -1.1" fill="#c1925b" fill-rule="evenodd" stroke="none"/>
    <path d="M-0.4 -1.1 L-0.35 -1.05 -0.4 -1.05 -0.4 -1.05 -0.4 -1.1" fill="#ab7e4c" fill-rule="evenodd" stroke="none"/>
    <path d="M-0.35 -1.05 L-0.35 -1.1 -0.35 -1.05" fill="#ab7e4d" fill-rule="evenodd" stroke="none"/>
    <path d="M-0.3 -1.05 L-0.3 -1.1 -0.3 -1.05" fill="#a87d4c" fill-rule="evenodd" stroke="none"/>
    <path d="M-0.25 -1.05 L-0.25 -1.05 -0.25 -1.1 -0.25 -1.05" fill="#b38652" fill-rule="evenodd" stroke="none"/>
    <path d="M-0.25 -0.9 L-0.25 -0.95 -0.2 -0.95 -0.2 -0.9 -0.15 -0.9 -0.2 -0.85 -0.2 -0.85 -0.25 -0.9" fill="#926c42" fill-rule="evenodd" stroke="none"/>
    <path d="M-0.2 -0.85 L-0.25 -0.85 -0.25 -0.9 -0.2 -0.85" fill="#3f2e1d" fill-rule="evenodd" stroke="none"/>
    <path d="M-0.25 -0.85 L-0.25 -0.8 -0.25 -0.75 -0.2 -0.7 -0.25 -0.8 -0.25 -0.85 -0.25 -0.85" fill="#573f27" fill-rule="evenodd" stroke="none"/>
    <path d="M-0.3 -0.8 L-0.35 -0.8 -0.4 -0.85 -0.45 -0.8 -0.45 -0.75 -0.45 -0.85 -0.4 -0.85 -0.35 -0.85 -0.3 -0.8" fill="#9e7446" fill-rule="evenodd" stroke="none"/>
    <path d="M-0.75 -1.0 L-0.75 -1.0 -0.5 -1.0 -0.3 -1.0 -0.3 -0.85 -0.25 -0.65 Q-0.25 -0.6 -0.3 -0.6 L-0.3 -0.6 -0.3 -0.8 -0.35 -0.85 -0.4 -0.85 -0.45 -0.85 -0.45 -0.75 -0.45 -0.6 -0.5 -0.65 -0.5 -0.75 -0.55 -0.8 Q-0.55 -0.75 -0.55 -0.8 L-0.55 -0.8 -0.6 -0.85 -0.65 -0.85 -0.7 -0.85 -0.75 -0.8 -0.75 -0.75 -0.75 -0.6 -0.6 -0.6 Q-0.55 -0.55 -0.6 -0.55 L-0.7 -0.55 -0.75 -0.55 -0.75 -0.55 -0.75 -1.0" fill="#d2995c" fill-rule="evenodd" stroke="none"/>
    <path d="M-0.2 -0.55 L-0.25 -0.55 -0.3 -0.6 -0.35 -0.6 -0.35 -0.65 -0.4 -0.65 -0.4 -0.7 -0.35 -0.7 -0.35 -0.75 Q-0.35 -0.8 -0.4 -0.75 L-0.4 -0.75 -0.45 -0.75 -0.45 -0.7 -0.4 -0.6 -0.35 -0.6 -0.35 -0.6 -0.4 -0.6 -0.45 -0.6 -0.45 -0.75 -0.45 -0.8 -0.4 -0.85 -0.35 -0.8 -0.3 -0.8 -0.3 -0.6 -0.3 -0.6 Q-0.25 -0.6 -0.25 -0.65 L-0.25 -0.6 -0.2 -0.6 -0.1 -0.6 -0.05 -0.6 -0.1 -0.6 -0.2 -0.55 M-0.5 -0.6 L-0.45 -0.6 -0.5 -0.55 -0.5 -0.6 M-0.35 -0.6 L-0.35 -0.6 M-0.2 -0.6 L-0.2 -0.6" fill="#7e5c38" fill-rule="evenodd" stroke="none"/>
    <path d="M-0.45 -0.6 L-0.4 -0.6 -0.35 -0.6 -0.35 -0.6 -0.4 -0.6 -0.45 -0.7 -0.45 -0.75 -0.4 -0.75 -0.4 -0.75 Q-0.35 -0.8 -0.35 -0.75 L-0.35 -0.7 -0.4 -0.7 -0.4 -0.65 -0.35 -0.65 -0.35 -0.6 -0.35 -0.6 -0.4 -0.6 -0.45 -0.55 -0.45 -0.6 M-0.45 -0.55 L-0.45 -0.55" fill="#9d7345" fill-rule="evenodd" stroke="none"/>
    <path d="M-0.1 -0.75 L-0.1 -0.75 -0.15 -0.8 -0.05 -0.8 0.0 -0.75 -0.1 -0.75" fill="#906a40" fill-rule="evenodd" stroke="none"/>
    <path d="M0.0 -0.7 L0.0 -0.7 -0.05 -0.7 -0.05 -0.7 -0.1 -0.7 -0.1 -0.75 -0.05 -0.75 0.0 -0.75 0.05 -0.75 0.0 -0.75 0.0 -0.7" fill="#977143" fill-rule="evenodd" stroke="none"/>
    <path d="M-0.15 -0.6 L0.0 -0.6 0.15 -0.6 0.0 -0.6 -0.15 -0.6" fill="#d69d5f" fill-rule="evenodd" stroke="none"/>
    <path d="M-0.45 -1.1 L-0.45 -1.05 -0.45 -1.1 -0.45 -1.1" fill="#b38451" fill-rule="evenodd" stroke="none"/>
    <path d="M-0.65 -1.05 L-0.65 -1.1 -0.6 -1.05 Q-0.6 -1.05 -0.65 -1.05 L-0.65 -1.05" fill="#ad7d48" fill-rule="evenodd" stroke="none"/>
    <path d="M-0.55 -1.05 L-0.6 -1.05 -0.6 -1.1 -0.55 -1.05 Q-0.55 -1.05 -0.55 -1.1 L-0.55 -1.05 -0.55 -1.05" fill="#b78752" fill-rule="evenodd" stroke="none"/>
    <path d="M-0.5 -1.05 L-0.5 -1.1 -0.45 -1.1 -0.5 -1.05" fill="#b18350" fill-rule="evenodd" stroke="none"/>
    <path d="M-0.85 -1.15 L-1.0 -1.15 -0.85 -1.2 -0.7 -1.2 -0.7 -1.15 -0.8 -1.15 -0.85 -1.15" fill="#ce9456" fill-rule="evenodd" stroke="none"/>
    <path d="M-0.85 -1.05 L-0.9 -1.05 -0.9 -1.1 -0.85 -1.1 -0.85 -1.1 -0.8 -1.1 -0.8 -1.05 -0.85 -1.05" fill="#ab7947" fill-rule="evenodd" stroke="none"/>
    <path d="M-0.8 -1.05 L-0.8 -1.1 -0.75 -1.05 -0.75 -1.05 -0.8 -1.05" fill="#bd8852" fill-rule="evenodd" stroke="none"/>
    <path d="M-0.7 -1.05 L-0.75 -1.05 -0.75 -1.1 -0.7 -1.05 -0.7 -1.1 -0.65 -1.05 -0.7 -1.05 -0.7 -1.05" fill="#ab7b47" fill-rule="evenodd" stroke="none"/>
    <path d="M-0.55 -0.8 L-0.6 -0.8 -0.65 -0.75 -0.7 -0.75 -0.75 -0.8 -0.7 -0.85 -0.65 -0.85 -0.6 -0.85 -0.55 -0.8" fill="#92683d" fill-rule="evenodd" stroke="none"/>
    <path d="M-0.75 -0.8 L-0.7 -0.75 -0.65 -0.75 -0.6 -0.8 -0.55 -0.8 -0.6 -0.7 -0.6 -0.6 -0.6 -0.65 -0.6 -0.7 -0.65 -0.75 -0.65 -0.7 -0.7 -0.75 -0.75 -0.75 -0.75 -0.8 M-0.55 -0.8 L-0.55 -0.8" fill="#795734" fill-rule="evenodd" stroke="none"/>
    <path d="M-0.75 -0.75 L-0.7 -0.75 -0.65 -0.7 -0.65 -0.75 -0.6 -0.7 -0.6 -0.65 -0.6 -0.6 -0.75 -0.6 -0.75 -0.75" fill="#926b41" fill-rule="evenodd" stroke="none"/>
    <path d="M-0.45 -0.6 L-0.5 -0.6 -0.5 -0.65 -0.55 -0.7 -0.55 -0.65 Q-0.6 -0.6 -0.55 -0.6 L-0.55 -0.55 -0.45 -0.55 -0.6 -0.55 -0.7 -0.55 -0.6 -0.55 Q-0.55 -0.55 -0.6 -0.6 L-0.6 -0.7 -0.55 -0.8 Q-0.55 -0.75 -0.55 -0.8 L-0.5 -0.75 -0.5 -0.65 -0.45 -0.6 M-0.7 -0.55 L-0.7 -0.55 -0.7 -0.55" fill="#9e7447" fill-rule="evenodd" stroke="none"/>
    <path d="M-0.5 -0.6 L-0.5 -0.55 -0.45 -0.6 -0.45 -0.55 -0.55 -0.55 -0.55 -0.6 Q-0.6 -0.6 -0.55 -0.65 L-0.55 -0.7 -0.5 -0.65 -0.5 -0.6" fill="#c5925a" fill-rule="evenodd" stroke="none"/>
    <path d="M-0.7 -0.55 L-0.6 -0.55 -0.45 -0.55 -0.45 -0.55 -0.35 -0.55 -0.4 -0.55 -0.55 -0.5 -0.7 -0.55" fill="#6a4d2f" fill-rule="evenodd" stroke="none"/>
    <path d="M-0.7 -0.35 L-0.7 -0.45 -0.55 -0.45 -0.4 -0.45 -0.5 -0.45 -0.5 -0.25 -0.5 -0.15 -0.5 -0.05 -0.55 0.0 -0.55 -0.15 -0.6 -0.15 -0.6 -0.2 -0.55 -0.2 -0.55 -0.3 -0.55 -0.45 -0.6 -0.45 -0.65 -0.45 -0.65 -0.3 -0.65 -0.05 -0.65 -0.15 Q-0.65 -0.25 -0.65 -0.25 L-0.65 -0.05 -0.65 -0.05 -0.7 -0.05 -0.7 -0.25 -0.65 -0.3 -0.7 -0.35 M-0.4 -0.45 L-0.4 -0.45" fill="#8f6a40" fill-rule="evenodd" stroke="none"/>
    <path d="M-0.65 -0.3 L-0.65 -0.45 -0.6 -0.45 -0.55 -0.45 -0.55 -0.3 -0.65 -0.3" fill="#6d5030" fill-rule="evenodd" stroke="none"/>
    <path d="M-0.5 -0.25 L-0.5 -0.45 -0.4 -0.45 -0.4 -0.15 -0.4 -0.3 -0.5 -0.25" fill="#725534" fill-rule="evenodd" stroke="none"/>
    <path d="M-0.7 -0.55 L-0.7 -0.55 -0.55 -0.5 -0.4 -0.55 -0.35 -0.55 -0.35 -0.5 -0.5 -0.5 -0.7 -0.5 -0.7 -0.55" fill="#bf8b54" fill-rule="evenodd" stroke="none"/>
    <path d="M-0.7 -0.55 L-0.7 -0.55 -0.7 -0.5 -0.7 -0.45 -0.7 -0.35 -0.75 -0.4 -0.75 -0.45 -0.75 -0.55 -0.9 -0.55 -0.8 -0.55 -0.7 -0.55" fill="#4e3921" fill-rule="evenodd" stroke="none"/>
    <path d="M-0.25 -0.55 Q-0.3 -0.55 -0.25 -0.55 L-0.25 -0.45 Q-0.3 -0.45 -0.3 -0.45 L-0.3 -0.35 -0.3 -0.35 -0.3 -0.25 -0.25 -0.2 -0.25 -0.05 Q-0.3 -0.1 -0.3 -0.05 L-0.3 0.05 -0.3 0.05 -0.3 0.0 -0.3 -0.25 -0.3 -0.3 -0.3 -0.45 -0.35 -0.4 -0.35 -0.35 -0.35 -0.4 -0.4 -0.45 -0.55 -0.45 -0.7 -0.45 -0.7 -0.5 -0.5 -0.5 -0.35 -0.5 -0.35 -0.55 -0.4 -0.55 -0.35 -0.55 -0.35 -0.6 -0.3 -0.6 -0.25 -0.55 M-0.25 -0.2 L-0.3 -0.2 -0.3 -0.15 -0.25 -0.2" fill="#251c11" fill-rule="evenodd" stroke="none"/>
    <path d="M-0.55 0.0 L-0.5 -0.05 -0.5 -0.15 -0.5 -0.25 -0.4 -0.3 -0.4 -0.15 -0.4 0.05 -0.5 0.05 -0.55 0.05 -0.55 0.0 M-0.4 0.05 L-0.4 0.05 -0.4 0.05" fill="#a47c4d" fill-rule="evenodd" stroke="none"/>
    <path d="M-0.35 -0.6 L-0.35 -0.6 -0.35 -0.6 -0.35 -0.55 -0.45 -0.55 -0.4 -0.6 -0.35 -0.6" fill="#d09d60" fill-rule="evenodd" stroke="none"/>
    <path d="M-0.3 -0.3 L-0.35 -0.35 -0.35 -0.15 -0.35 0.05 -0.3 0.05 -0.35 0.1 -0.35 0.05 -0.4 0.05 -0.4 -0.15 -0.35 -0.35 -0.35 -0.4 -0.3 -0.45 -0.3 -0.3 M-0.4 0.05 L-0.4 0.05" fill="#84643e" fill-rule="evenodd" stroke="none"/>
    <path d="M-0.3 0.05 L-0.35 0.05 -0.35 -0.15 -0.35 -0.35 -0.3 -0.3 -0.3 -0.25 -0.3 0.0 -0.3 0.05 -0.3 0.05" fill="#be915b" fill-rule="evenodd" stroke="none"/>
    <path d="M-0.3 -0.35 L-0.3 -0.45 Q-0.3 -0.45 -0.25 -0.45 L-0.25 -0.35 -0.3 -0.35" fill="#684d30" fill-rule="evenodd" stroke="none"/>
    <path d="M-0.3 -0.35 L-0.25 -0.35 -0.3 -0.3 -0.25 -0.25 -0.25 -0.2 -0.3 -0.25 -0.3 -0.35" fill="#745837" fill-rule="evenodd" stroke="none"/>
    <path d="M-0.2 -0.35 L-0.2 -0.3 -0.2 -0.35 M-0.2 -0.2 L-0.2 -0.2 -0.2 -0.2 -0.2 -0.05 -0.2 -0.05 -0.25 -0.05 -0.25 -0.05 -0.25 -0.1 -0.2 -0.2" fill="#d4a266" fill-rule="evenodd" stroke="none"/>
    <path d="M-0.25 -0.15 L-0.25 -0.2 -0.2 -0.2 -0.25 -0.1 -0.25 -0.15" fill="#7f623d" fill-rule="evenodd" stroke="none"/>
    <path d="M-0.25 -0.2 L-0.3 -0.15 -0.3 -0.2 -0.25 -0.2" fill="#8c6c43" fill-rule="evenodd" stroke="none"/>
    <path d="M-0.3 0.0 L-0.3 -0.25 -0.3 0.0" fill="#745938" fill-rule="evenodd" stroke="none"/>
    <path d="M-0.25 -0.05 L-0.25 -0.15 -0.25 -0.1 -0.25 -0.05" fill="#261d12" fill-rule="evenodd" stroke="none"/>
    <path d="M-0.1 -0.2 L-0.15 -0.25 -0.05 -0.25 0.0 -0.25 0.05 -0.2 0.0 -0.2 -0.1 -0.2" fill="#0d0a06" fill-rule="evenodd" stroke="none"/>
    <path d="M0.05 -0.2 L0.05 -0.05 0.0 -0.15 0.0 -0.2 0.05 -0.2" fill="#83643d" fill-rule="evenodd" stroke="none"/>
    <path d="M-0.15 -0.05 L-0.15 -0.25 -0.15 -0.05" fill="#d7a568" fill-rule="evenodd" stroke="none"/>
    <path d="M-0.4 0.15 L-0.65 0.15 -0.9 0.15 -1.0 0.15 -1.1 0.15 -0.4 0.15 -0.4 0.15" fill="#6c5130" fill-rule="evenodd" stroke="none"/>
    <path d="M-0.4 0.15 L-0.45 0.15 -0.55 0.2 -0.6 0.2 Q-0.6 0.15 -0.6 0.15 L-0.65 0.15 -0.75 0.15 -0.7 0.2 -0.7 0.2 -0.8 0.2 -0.9 0.2 -0.9 0.25 -0.85 0.3 -0.9 0.3 -0.95 0.25 -1.0 0.2 -0.95 0.2 -0.9 0.15 -0.65 0.15 -0.4 0.15 -0.4 0.15 M-0.9 0.3 L-0.9 0.3" fill="#c79458" fill-rule="evenodd" stroke="none"/>
    <path d="M-0.8 0.05 L-0.5 0.05 -0.4 0.05 -0.4 0.1 -0.6 0.1 -0.8 0.05 -0.8 0.05" fill="#674d2f" fill-rule="evenodd" stroke="none"/>
    <path d="M-0.25 0.35 L-0.25 0.4 -0.3 0.45 -0.3 0.4 -0.25 0.35" fill="#644c2d" fill-rule="evenodd" stroke="none"/>
    <path d="M-0.25 0.4 L-0.25 0.4 -0.25 0.4" fill="#5f482a" fill-rule="evenodd" stroke="none"/>
    <path d="M-0.25 0.45 L-0.2 0.35 -0.2 0.4 -0.25 0.45" fill="#45341d" fill-rule="evenodd" stroke="none"/>
    <path d="M-0.4 0.4 L-0.4 0.4 -0.4 0.4" fill="#6f5432" fill-rule="evenodd" stroke="none"/>
    <path d="M-0.15 0.45 L-0.15 0.45 -0.2 0.5 -0.2 0.45 -0.15 0.45 M-0.7 0.9 L-0.75 0.95 -0.7 0.9 -0.65 0.85 -0.7 0.9" fill="#49351d" fill-rule="evenodd" stroke="none"/>
    <path d="M0.05 0.4 L0.0 0.4 0.0 0.4 0.05 0.35 0.05 0.4" fill="#574328" fill-rule="evenodd" stroke="none"/>
    <path d="M0.0 0.4 L0.0 0.4 0.0 0.4" fill="#644d2d" fill-rule="evenodd" stroke="none"/>
    <path d="M0.05 0.35 L0.05 0.45 0.05 0.35" fill="#6c5432" fill-rule="evenodd" stroke="none"/>
    <path d="M-0.15 0.45 L-0.15 0.35 -0.15 0.45" fill="#44341e" fill-rule="evenodd" stroke="none"/>
    <path d="M-0.05 0.35 L-0.05 0.4 -0.1 0.4 -0.05 0.35" fill="#8a6b41" fill-rule="evenodd" stroke="none"/>
    <path d="M-0.75 0.3 L-0.7 0.3 -0.65 0.3 -0.65 0.3 -0.7 0.35 -0.7 0.4 -0.7 0.4 -0.75 0.4 -0.75 0.4 -0.75 0.35 -0.75 0.3 -0.75 0.3 M-0.8 0.45 L-0.8 0.4 -0.75 0.4 -0.8 0.45 M-0.7 0.35 L-0.7 0.35" fill="#c09057" fill-rule="evenodd" stroke="none"/>
    <path d="M-0.9 0.3 L-0.95 0.35 -0.95 0.35 -0.9 0.3 -0.9 0.3" fill="#4a331a" fill-rule="evenodd" stroke="none"/>
    <path d="M-0.7 0.35 L-0.7 0.35 -0.7 0.35" fill="#392916" fill-rule="evenodd" stroke="none"/>
    <path d="M-0.75 0.3 L-0.75 0.3 -0.75 0.3" fill="#49351f" fill-rule="evenodd" stroke="none"/>
    <path d="M-0.8 0.4 L-0.75 0.35 -0.75 0.4 -0.8 0.4" fill="#41301a" fill-rule="evenodd" stroke="none"/>
    <path d="M-0.9 0.4 L-0.9 0.4 -0.85 0.35 -0.9 0.45 -0.9 0.4" fill="#50381e" fill-rule="evenodd" stroke="none"/>
    <path d="M-0.9 0.55 L-0.85 0.6 -0.8 0.65 -0.8 0.7 -0.8 0.7 -0.75 0.65 Q-0.75 0.7 -0.8 0.7 L-0.8 0.65 -0.85 0.65 -0.85 0.7 -0.9 0.8 -0.95 0.9 -0.95 0.9 -0.9 0.9 -0.9 0.9 -0.9 0.95 Q-0.85 0.95 -0.9 0.95 L-0.9 1.0 -0.95 1.0 -0.9 1.05 -0.85 1.05 -0.85 1.05 Q-0.8 1.05 -0.8 1.05 L-0.75 1.05 -0.65 1.05 -0.6 1.05 -0.55 1.0 -0.5 1.05 -0.45 1.0 -0.35 1.05 -0.3 1.0 -0.25 0.95 -0.2 0.95 -0.15 0.95 -0.15 0.95 -0.15 0.95 Q-0.15 1.0 -0.2 1.0 L-0.25 1.0 -0.25 1.05 -0.3 1.1 -0.35 1.05 Q-0.4 1.05 -0.4 1.1 L-0.45 1.1 -0.5 1.15 -0.55 1.15 -0.6 1.15 -0.6 1.1 -0.65 1.15 -0.65 1.15 -0.65 1.15 -0.7 1.15 -0.75 1.15 -0.75 1.15 -0.8 1.2 -0.8 1.15 -0.85 1.15 -0.85 1.15 -0.9 1.15 -0.95 1.15 -1.0 1.1 -1.1 1.05 -1.1 1.0 -1.1 0.95 -1.1 0.9 -1.05 0.95 -1.0 0.95 -1.0 0.9 -1.0 0.75 -0.9 0.7 -0.95 0.7 -0.95 0.6 -0.9 0.55 M-0.85 0.65 L-0.85 0.65 Q-0.85 0.6 -0.85 0.65 L-0.85 0.65 M-0.85 1.2 L-0.85 1.15 -0.85 1.2 -0.85 1.2 M-0.7 1.2 L-0.7 1.2 -0.65 1.15 Q-0.6 1.15 -0.65 1.2 L-0.65 1.2 -0.6 1.2 -0.55 1.2 Q-0.5 1.25 -0.55 1.25 L-0.6 1.3 -0.65 1.35 -0.7 1.35 -0.75 1.3 -0.8 1.25 -0.75 1.25 -0.7 1.2 M-0.55 1.2 L-0.55 1.2 M-0.6 1.1 L-0.6 1.1 -0.6 1.1 M-0.75 0.65 L-0.75 0.65" fill="#c4894a" fill-rule="evenodd" stroke="none"/>
    <path d="M-0.6 0.4 L-0.65 0.45 -0.65 0.4 -0.6 0.35 -0.6 0.4" fill="#614728" fill-rule="evenodd" stroke="none"/>
    <path d="M-0.6 0.4 L-0.6 0.4 -0.6 0.4" fill="#64492a" fill-rule="evenodd" stroke="none"/>
    <path d="M-0.7 0.4 L-0.65 0.4 -0.65 0.4 -0.7 0.4" fill="#5a4226" fill-rule="evenodd" stroke="none"/>
    <path d="M-0.45 0.55 L-0.45 0.65 -0.5 0.75 -0.5 0.65 -0.45 0.55 -0.45 0.55" fill="#4c3820" fill-rule="evenodd" stroke="none"/>
    <path d="M-0.65 0.3 L-0.65 0.3 -0.7 0.35 -0.65 0.3" fill="#533b21" fill-rule="evenodd" stroke="none"/>
    <path d="M-0.55 0.65 Q-0.5 0.6 -0.55 0.65 L-0.55 0.65" fill="#5f4527" fill-rule="evenodd" stroke="none"/>
    <path d="M-0.55 0.7 L-0.5 0.65 -0.5 0.65 -0.55 0.7" fill="#604728" fill-rule="evenodd" stroke="none"/>
    <path d="M-0.7 0.7 L-0.65 0.65 -0.65 0.65 -0.7 0.7" fill="#543e23" fill-rule="evenodd" stroke="none"/>
    <path d="M-0.65 0.9 L-0.65 0.9 -0.65 0.9" fill="#4d381e" fill-rule="evenodd" stroke="none"/>
    <path d="M-0.6 0.9 L-0.6 0.95 -0.6 0.9" fill="#694c2c" fill-rule="evenodd" stroke="none"/>
    <path d="M-0.5 0.9 L-0.5 0.9 -0.55 0.95 -0.5 0.9" fill="#594225" fill-rule="evenodd" stroke="none"/>
    <path d="M-0.7 0.7 L-0.7 0.65 -0.7 0.7" fill="#5c4527" fill-rule="evenodd" stroke="none"/>
    <path d="M-0.8 0.65 L-0.75 0.6 -0.8 0.7 -0.8 0.65" fill="#47341d" fill-rule="evenodd" stroke="none"/>
    <path d="M-0.75 0.65 L-0.75 0.65 -0.75 0.65" fill="#523d21" fill-rule="evenodd" stroke="none"/>
    <path d="M-0.8 0.65 L-0.85 0.7 -0.85 0.65 -0.8 0.65" fill="#362613" fill-rule="evenodd" stroke="none"/>
    <path d="M-0.85 0.65 L-0.85 0.65 Q-0.85 0.6 -0.85 0.65 L-0.85 0.65" fill="#4f371b" fill-rule="evenodd" stroke="none"/>
    <path d="M-0.95 0.9 L-0.9 0.9 -0.9 0.9 -0.95 0.9" fill="#382613" fill-rule="evenodd" stroke="none"/>
    <path d="M-0.9 0.9 L-0.85 0.9 -0.9 0.95 -0.9 0.9" fill="#543b1f" fill-rule="evenodd" stroke="none"/>
    <path d="M-0.75 0.9 L-0.8 0.95 -0.75 0.9" fill="#614626" fill-rule="evenodd" stroke="none"/>
    <path d="M-0.85 1.2 L-0.85 1.2 -0.85 1.15 -0.85 1.15 -0.8 1.15 -0.8 1.2 -0.75 1.15 -0.75 1.15 -0.75 1.2 -0.7 1.15 -0.65 1.15 -0.65 1.15 -0.7 1.15 -0.7 1.2 -0.75 1.25 -0.8 1.25 -0.75 1.3 -0.7 1.35 -0.65 1.35 -0.6 1.3 -0.55 1.25 Q-0.5 1.25 -0.55 1.2 L-0.55 1.15 Q-0.5 1.15 -0.5 1.2 L-0.5 1.15 -0.5 1.2 -0.55 1.2 -0.5 1.2 -0.45 1.25 -0.4 1.25 -0.35 1.3 -0.35 1.35 -0.3 1.45 -0.25 1.55 -0.2 1.55 -0.15 1.55 -0.25 1.65 -0.25 1.6 -0.25 1.5 -0.3 1.5 Q-0.35 1.45 -0.35 1.45 -0.35 1.4 -0.4 1.35 L-0.55 1.3 Q-0.55 1.3 -0.55 1.35 L-0.55 1.4 -0.6 1.4 -0.65 1.4 -0.7 1.35 -0.7 1.4 -0.8 1.35 -0.85 1.35 -0.85 1.45 -0.9 1.4 -0.95 1.4 -0.9 1.35 Q-0.85 1.35 -0.9 1.3 L-0.95 1.25 -0.9 1.15 -0.9 1.2 -0.85 1.2 M-0.9 1.15 L-0.95 1.25 -0.9 1.2 -0.9 1.15" fill="#a66c39" fill-rule="evenodd" stroke="none"/>
    <path d="M-0.9 1.15 L-0.85 1.15 -0.85 1.2 -0.9 1.2 -0.9 1.15" fill="#513418" fill-rule="evenodd" stroke="none"/>
    <path d="M-0.9 1.15 L-0.9 1.2 -0.95 1.25 -0.9 1.15" fill="#452912" fill-rule="evenodd" stroke="none"/>
    <path d="M-0.85 1.2 L-0.85 1.15 -0.85 1.2" fill="#3c2510" fill-rule="evenodd" stroke="none"/>
    <path d="M-0.8 1.15 L-0.8 1.2 -0.8 1.15" fill="#462c14" fill-rule="evenodd" stroke="none"/>
    <path d="M-0.75 1.15 L-0.7 1.15 -0.75 1.2 -0.75 1.15" fill="#412914" fill-rule="evenodd" stroke="none"/>
    <path d="M-0.65 1.15 L-0.7 1.2 -0.7 1.2 -0.7 1.15 -0.65 1.15" fill="#462e17" fill-rule="evenodd" stroke="none"/>
    <path d="M-0.6 0.95 L-0.55 0.9 -0.55 0.95 -0.6 0.95" fill="#523b21" fill-rule="evenodd" stroke="none"/>
    <path d="M-0.65 1.15 L-0.65 1.15 -0.6 1.1 -0.6 1.15 -0.65 1.15" fill="#432c16" fill-rule="evenodd" stroke="none"/>
    <path d="M-0.55 1.2 L-0.6 1.2 -0.65 1.2 -0.65 1.2 Q-0.6 1.15 -0.65 1.15 L-0.6 1.15 -0.55 1.15 -0.5 1.15 -0.45 1.1 -0.4 1.1 -0.45 1.15 -0.5 1.15 -0.5 1.2 Q-0.5 1.15 -0.55 1.15 -0.55 1.15 -0.55 1.2 L-0.55 1.2 M-0.5 1.2 L-0.5 1.2" fill="#a4703e" fill-rule="evenodd" stroke="none"/>
    <path d="M-0.55 1.2 L-0.55 1.2 -0.55 1.2 Q-0.55 1.15 -0.55 1.15 L-0.55 1.2" fill="#3d2713" fill-rule="evenodd" stroke="none"/>
    <path d="M-0.5 1.2 L-0.5 1.2 -0.55 1.2 -0.5 1.2" fill="#352110" fill-rule="evenodd" stroke="none"/>
    <path d="M-0.5 1.15 L-0.45 1.15 -0.5 1.2 -0.5 1.15" fill="#2e1d0e" fill-rule="evenodd" stroke="none"/>
    <path d="M0.05 0.7 L0.0 0.75 0.05 0.7 0.05 0.7" fill="#554123" fill-rule="evenodd" stroke="none"/>
    <path d="M-0.05 0.65 L-0.05 0.7 -0.05 0.65" fill="#42311b" fill-rule="evenodd" stroke="none"/>
    <path d="M-0.15 0.65 L-0.1 0.6 -0.1 0.65 -0.15 0.7 -0.15 0.65" fill="#533e23" fill-rule="evenodd" stroke="none"/>
    <path d="M-0.1 0.7 L-0.05 0.55 -0.05 0.65 -0.1 0.7" fill="#533e22" fill-rule="evenodd" stroke="none"/>
    <path d="M0.0 0.9 L0.0 0.9 -0.05 0.95 -0.05 0.9 0.0 0.9" fill="#43311b" fill-rule="evenodd" stroke="none"/>
    <path d="M0.0 0.9 L0.0 0.85 0.0 0.9" fill="#382a17" fill-rule="evenodd" stroke="none"/>
    <path d="M0.05 0.9 L0.0 0.95 0.0 0.9 0.05 0.9" fill="#41311b" fill-rule="evenodd" stroke="none"/>
    <path d="M-0.2 0.65 L-0.15 0.6 -0.15 0.65 -0.2 0.65 -0.2 0.65" fill="#48361f" fill-rule="evenodd" stroke="none"/>
    <path d="M-0.25 0.7 L-0.2 0.65 -0.2 0.65 -0.25 0.7" fill="#503c21" fill-rule="evenodd" stroke="none"/>
    <path d="M-0.25 0.65 L-0.25 0.65 -0.25 0.65" fill="#564024" fill-rule="evenodd" stroke="none"/>
    <path d="M-0.3 0.65 L-0.3 0.65 -0.3 0.65" fill="#574125" fill-rule="evenodd" stroke="none"/>
    <path d="M-0.4 0.7 L-0.35 0.55 -0.35 0.65 -0.4 0.7" fill="#42311c" fill-rule="evenodd" stroke="none"/>
    <path d="M-0.4 0.95 L-0.4 0.95 -0.45 0.95 -0.4 0.9 Q-0.4 0.85 -0.4 0.9 L-0.4 0.95" fill="#a9804b" fill-rule="evenodd" stroke="none"/>
    <path d="M-0.4 0.9 L-0.35 0.9 -0.35 0.85 -0.4 0.95 -0.4 0.9" fill="#574124" fill-rule="evenodd" stroke="none"/>
    <path d="M-0.3 0.9 L-0.35 0.95 Q-0.35 0.9 -0.3 0.9" fill="#8e6a3d" fill-rule="evenodd" stroke="none"/>
    <path d="M-0.4 1.15 L-0.35 1.15 -0.35 1.2 -0.4 1.2 -0.4 1.15" fill="#3f2915" fill-rule="evenodd" stroke="none"/>
    <path d="M-0.35 1.2 L-0.35 1.15 -0.35 1.2" fill="#402a15" fill-rule="evenodd" stroke="none"/>
    <path d="M-0.2 1.15 L-0.2 1.25 -0.2 1.15" fill="#3e2a16" fill-rule="evenodd" stroke="none"/>
    <path d="M-0.15 0.95 L-0.15 0.9 -0.1 0.95 -0.15 0.95" fill="#5b4325" fill-rule="evenodd" stroke="none"/>
    <path d="M-0.15 1.15 L-0.15 1.1 -0.1 1.1 -0.1 1.15 -0.15 1.2 -0.15 1.15" fill="#322311" fill-rule="evenodd" stroke="none"/>
    <path d="M-0.1 1.15 L-0.1 1.2 -0.15 1.2 -0.1 1.15" fill="#332411" fill-rule="evenodd" stroke="none"/>
    <path d="M-0.1 1.2 L-0.1 1.15 -0.05 1.2 -0.1 1.2" fill="#322312" fill-rule="evenodd" stroke="none"/>
    <path d="M0.05 1.2 L0.05 1.2" fill="#35230f" fill-rule="evenodd" stroke="none"/>
    <path d="M-1.35 0.3 L-1.4 0.35 -1.4 0.3 -1.35 0.3 -1.35 0.3" fill="#4b351f" fill-rule="evenodd" stroke="none"/>
    <path d="M-1.2 0.4 L-1.2 0.4 -1.2 0.4" fill="#432f1a" fill-rule="evenodd" stroke="none"/>
    <path d="M-1.25 0.35 L-1.2 0.3 -1.2 0.35 -1.25 0.4 -1.25 0.35" fill="#2d1f10" fill-rule="evenodd" stroke="none"/>
    <path d="M-1.3 0.35 L-1.3 0.35 -1.3 0.35" fill="#2f2011" fill-rule="evenodd" stroke="none"/>
    <path d="M-1.0 0.35 L-1.05 0.45 -1.05 0.35 -1.05 0.4 -1.1 0.45 -1.1 0.4 -1.05 0.35 -1.05 0.35 -1.0 0.35 -1.0 0.35" fill="#53391d" fill-rule="evenodd" stroke="none"/>
    <path d="M-0.95 0.3 L-1.0 0.35 -1.0 0.35 -0.95 0.3" fill="#432e17" fill-rule="evenodd" stroke="none"/>
    <path d="M-1.15 0.4 L-1.15 0.4 -1.15 0.4" fill="#51381d" fill-rule="evenodd" stroke="none"/>
    <path d="M-1.1 0.35 L-1.1 0.4 -1.15 0.4 -1.15 0.4 -1.1 0.35" fill="#493119" fill-rule="evenodd" stroke="none"/>
    <path d="M-1.0 0.6 L-1.0 0.6 -1.0 0.6" fill="#372612" fill-rule="evenodd" stroke="none"/>
    <path d="M-1.0 0.6 L-1.0 0.6 -1.0 0.65 -1.0 0.6 -1.0 0.6" fill="#614625" fill-rule="evenodd" stroke="none"/>
    <path d="M-1.45 1.2 L-1.5 1.15 -1.5 1.15 -1.45 1.15 -1.45 1.2" fill="#563c21" fill-rule="evenodd" stroke="none"/>
    <path d="M-1.5 1.25 L-1.5 1.25 -1.45 1.2 -1.45 1.25 -1.45 1.25 -1.5 1.3 -1.5 1.25" fill="#4b3620" fill-rule="evenodd" stroke="none"/>
    <path d="M-1.0 0.65 L-1.05 0.65 -1.05 0.7 -1.0 0.65 -1.0 0.6 -1.0 0.65" fill="#3d2b14" fill-rule="evenodd" stroke="none"/>
    <path d="M-1.05 0.65 L-1.0 0.7 -1.05 0.7 -1.05 0.75 -1.05 0.75 -1.05 0.9 -1.0 0.9 -1.0 0.95 -1.05 0.95 -1.1 0.9 -1.1 0.8 -1.1 0.75 -1.15 0.7 -1.1 0.65 -1.1 0.65 -1.1 0.6 -1.05 0.65 -1.1 0.7 -1.05 0.65 -1.05 0.6 -1.05 0.6 -1.0 0.65 -1.05 0.7 -1.05 0.65 M-1.1 0.95 L-1.1 1.0 -1.1 1.0 Q-1.1 0.95 -1.15 0.95 L-1.2 0.95 -1.2 1.0 -1.25 1.0 -1.3 1.0 -1.25 0.95 -1.2 0.95 -1.2 0.95 -1.15 0.95 -1.15 0.95 -1.1 0.9 -1.1 0.95 M-1.15 0.95 L-1.15 0.95 M-1.2 0.95 L-1.2 0.95 M-1.25 0.95 L-1.25 0.95 M-1.05 0.9 L-1.05 0.95 -1.05 0.9" fill="#a0703b" fill-rule="evenodd" stroke="none"/>
    <path d="M-1.05 0.65 L-1.05 0.6 -1.05 0.65 -1.1 0.7 -1.05 0.65" fill="#4d3619" fill-rule="evenodd" stroke="none"/>
    <path d="M-1.1 0.65 L-1.1 0.65 -1.15 0.7 -1.15 0.65 -1.1 0.65" fill="#3d2b17" fill-rule="evenodd" stroke="none"/>
    <path d="M-1.15 0.65 L-1.2 0.7 -1.15 0.65 -1.15 0.65" fill="#573f25" fill-rule="evenodd" stroke="none"/>
    <path d="M-1.1 0.9 L-1.15 0.95 -1.15 0.95 -1.15 0.9 -1.1 0.9" fill="#3d2a16" fill-rule="evenodd" stroke="none"/>
    <path d="M-1.1 0.9 L-1.1 0.95 -1.1 0.9" fill="#4c2f15" fill-rule="evenodd" stroke="none"/>
    <path d="M-1.15 0.95 L-1.2 0.95 -1.2 0.9 -1.15 0.9 -1.15 0.95" fill="#3a2917" fill-rule="evenodd" stroke="none"/>
    <path d="M-1.15 0.9 L-1.2 0.9 -1.15 0.9 M-1.2 0.95 L-1.2 0.9 -1.2 0.95" fill="#9b7044" fill-rule="evenodd" stroke="none"/>
    <path d="M-1.35 0.7 L-1.35 0.65 -1.35 0.7" fill="#3a2919" fill-rule="evenodd" stroke="none"/>
    <path d="M-1.4 0.7 L-1.35 0.65 -1.35 0.65 -1.4 0.7" fill="#312314" fill-rule="evenodd" stroke="none"/>
    <path d="M-1.25 0.9 L-1.3 0.9 -1.25 0.95 -1.3 0.95 -1.35 0.95 -1.35 0.9 -1.3 0.9 -1.25 0.9" fill="#75522e" fill-rule="evenodd" stroke="none"/>
    <path d="M-1.2 0.95 L-1.2 0.95 -1.25 0.95 -1.2 0.9 Q-1.15 0.85 -1.2 0.9 L-1.2 0.95" fill="#372615" fill-rule="evenodd" stroke="none"/>
    <path d="M-1.25 0.95 L-1.25 0.95 -1.25 0.95" fill="#312113" fill-rule="evenodd" stroke="none"/>
    <path d="M-0.95 1.15 L-1.0 1.25 -1.0 1.2 Q-1.0 1.15 -1.05 1.15 L-1.15 1.1 -1.25 1.1 -1.3 1.1 -1.25 1.1 -1.25 1.05 -1.2 1.05 -1.2 1.05 -1.15 1.05 -1.1 1.05 -1.0 1.1 -0.95 1.15" fill="#a96e3a" fill-rule="evenodd" stroke="none"/>
    <path d="M-1.25 1.05 L-1.25 1.1 -1.3 1.1 -1.25 1.1 -1.15 1.1 -1.05 1.15 -1.05 1.2 -1.1 1.2 -1.1 1.2 -1.15 1.2 -1.15 1.1 -1.2 1.15 -1.25 1.15 -1.25 1.25 -1.3 1.25 -1.3 1.3 -1.35 1.35 -1.45 1.35 -1.45 1.3 -1.45 1.3 -1.5 1.3 -1.45 1.25 -1.45 1.25 -1.45 1.25 -1.4 1.25 -1.35 1.25 -1.4 1.25 -1.4 1.15 -1.35 1.15 -1.35 1.1 -1.3 1.1 -1.25 1.05 M-1.3 1.2 L-1.3 1.2 -1.3 1.2 -1.3 1.15 -1.35 1.25 -1.3 1.2" fill="#855a32" fill-rule="evenodd" stroke="none"/>
    <path d="M-1.35 1.1 L-1.35 1.15 -1.4 1.15 -1.35 1.15 -1.35 1.1" fill="#25180b" fill-rule="evenodd" stroke="none"/>
    <path d="M-1.3 1.15 L-1.3 1.2 -1.35 1.25 -1.3 1.15" fill="#2c1c0d" fill-rule="evenodd" stroke="none"/>
    <path d="M-1.3 1.2 L-1.3 1.2 -1.3 1.2" fill="#24170a" fill-rule="evenodd" stroke="none"/>
    <path d="M-1.0 1.65 L-1.0 1.75 -1.05 1.75 -1.05 1.65 -1.1 1.65 -1.1 1.65 -1.15 1.65 -1.2 1.6 -1.2 1.65 -1.2 1.65 -1.25 1.65 -1.3 1.7 -1.3 1.65 -1.3 1.6 -1.25 1.6 -1.25 1.6 -1.3 1.55 -1.2 1.55 -1.1 1.55 -1.1 1.4 -1.15 1.35 -1.25 1.35 -1.3 1.35 -1.3 1.4 -1.35 1.45 -1.4 1.45 -1.4 1.4 -1.45 1.35 -1.35 1.35 -1.3 1.3 -1.3 1.25 -1.25 1.25 -1.25 1.15 -1.2 1.15 -1.15 1.1 -1.15 1.2 -1.1 1.2 -1.1 1.2 -1.05 1.2 -1.05 1.15 Q-1.0 1.15 -1.0 1.2 L-1.0 1.25 -0.95 1.15 -0.9 1.15 -0.95 1.25 -1.0 1.25 -1.0 1.35 -1.0 1.45 -1.0 1.5 -0.95 1.55 -0.95 1.55 -1.0 1.6 -1.0 1.6 Q-1.0 1.6 -1.0 1.65 L-1.0 1.65" fill="#704624" fill-rule="evenodd" stroke="none"/>
    <path d="M-1.2 0.95 L-1.2 0.95 -1.2 0.9 -1.2 0.95" fill="#a77948" fill-rule="evenodd" stroke="none"/>
    <path d="M-1.0 1.25 L-0.95 1.3 -1.0 1.35 -0.95 1.35 -0.95 1.4 -0.95 1.5 -0.9 1.5 Q-0.85 1.55 -0.85 1.5 L-0.85 1.45 -0.8 1.45 -0.75 1.5 Q-0.7 1.5 -0.7 1.45 L-0.6 1.45 -0.55 1.45 -0.55 1.4 -0.5 1.45 -0.45 1.5 -0.4 1.55 -0.3 1.55 -0.35 1.6 -0.35 1.55 -0.45 1.55 -0.5 1.55 Q-0.6 1.55 -0.65 1.6 L-0.75 1.55 -0.85 1.55 -0.9 1.55 -0.9 1.55 -0.95 1.55 -1.0 1.5 -1.0 1.45 -1.0 1.35 -1.0 1.25" fill="#86552a" fill-rule="evenodd" stroke="none"/>
    <path d="M-0.3 1.55 L-0.4 1.55 -0.45 1.5 -0.5 1.45 -0.55 1.4 -0.55 1.45 -0.6 1.45 -0.7 1.45 Q-0.7 1.5 -0.75 1.5 L-0.8 1.45 -0.85 1.45 -0.85 1.5 Q-0.85 1.55 -0.9 1.5 L-0.95 1.5 -0.95 1.4 -0.95 1.35 -1.0 1.35 -0.95 1.3 -1.0 1.25 -0.95 1.25 -0.9 1.3 Q-0.85 1.35 -0.9 1.35 L-0.95 1.4 -0.9 1.4 -0.85 1.45 -0.85 1.35 -0.8 1.35 -0.7 1.4 -0.7 1.35 -0.65 1.4 -0.6 1.4 -0.55 1.4 -0.55 1.35 Q-0.55 1.3 -0.55 1.3 L-0.4 1.35 Q-0.35 1.4 -0.35 1.45 -0.35 1.45 -0.3 1.5 L-0.25 1.5 -0.25 1.6 -0.3 1.6 -0.3 1.55 -0.3 1.5 -0.3 1.55" fill="#956232" fill-rule="evenodd" stroke="none"/>
    <path d="M-1.4 1.45 L-1.35 1.45 -1.3 1.4 -1.3 1.35 -1.25 1.35 -1.15 1.35 -1.1 1.4 -1.1 1.55 -1.2 1.55 -1.3 1.55 -1.25 1.6 -1.25 1.6 -1.3 1.6 -1.3 1.65 -1.3 1.65 -1.35 1.6 -1.35 1.6 -1.3 1.55 -1.35 1.55 Q-1.45 1.55 -1.4 1.45" fill="#52351a" fill-rule="evenodd" stroke="none"/>
    <path d="M-1.3 1.65 L-1.35 1.7 -1.4 1.75 -1.4 1.7 -1.45 1.7 -1.45 1.65 -1.45 1.6 -1.4 1.6 Q-1.4 1.55 -1.4 1.55 L-1.5 1.55 -1.5 1.5 -1.45 1.45 -1.45 1.4 -1.45 1.35 Q-1.5 1.3 -1.5 1.35 L-1.55 1.3 -1.55 1.3 -1.5 1.3 -1.5 1.25 -1.5 1.3 -1.45 1.3 -1.45 1.3 -1.45 1.35 -1.4 1.4 -1.4 1.45 Q-1.45 1.55 -1.35 1.55 L-1.3 1.55 -1.35 1.6 -1.35 1.6 -1.3 1.65 -1.3 1.65" fill="#392714" fill-rule="evenodd" stroke="none"/>
    <path d="M-1.3 1.7 L-1.3 1.7 -1.35 1.7 -1.3 1.65 -1.3 1.7" fill="#352513" fill-rule="evenodd" stroke="none"/>
    <path d="M-1.45 1.7 L-1.45 1.7 -1.5 1.75 -1.5 1.75 -1.55 1.65 Q-1.55 1.6 -1.5 1.65 L-1.5 1.7 -1.45 1.65 -1.45 1.65 -1.45 1.7" fill="#1c140b" fill-rule="evenodd" stroke="none"/>
    <path d="M-0.9 1.55 L-0.95 1.55 -0.95 1.6 -1.0 1.65 -1.0 1.65 Q-1.0 1.6 -1.0 1.6 L-1.0 1.6 -0.95 1.55 -0.95 1.55 -0.9 1.55" fill="#3f2613" fill-rule="evenodd" stroke="none"/>
    <path d="M-1.05 1.75 L-1.1 1.75 -1.1 1.65 -1.15 1.65 -1.2 1.65 -1.2 1.6 -1.15 1.65 -1.1 1.65 -1.1 1.65 -1.05 1.65 -1.05 1.75" fill="#372412" fill-rule="evenodd" stroke="none"/>
    <path d="M-0.3 1.5 L-0.3 1.55 -0.3 1.5" fill="#9c6a36" fill-rule="evenodd" stroke="none"/>
    <path d="M-0.15 1.7 L-0.2 1.65 -0.2 1.7 Q-0.25 1.7 -0.25 1.65 L-0.3 1.6 -0.25 1.6 -0.25 1.65 -0.25 1.65 -0.2 1.65 -0.15 1.65 Q-0.1 1.65 -0.15 1.7" fill="#352614" fill-rule="evenodd" stroke="none"/>
    <path d="M-0.3 1.6 L-0.35 1.6 -0.35 1.55 -0.35 1.6 -0.3 1.55 -0.3 1.6" fill="#342414" fill-rule="evenodd" stroke="none"/>
    <path d="M-0.15 1.55 L-0.1 1.55 -0.1 1.6 -0.15 1.6 -0.2 1.65 -0.25 1.65 -0.25 1.65 -0.15 1.55" fill="#a97740" fill-rule="evenodd" stroke="none"/>
    <path d="M-0.35 1.55 L-0.4 1.6 -0.45 1.6 -0.45 1.55 -0.5 1.6 -0.5 1.55 -0.45 1.55 -0.35 1.55" fill="#2b1c0f" fill-rule="evenodd" stroke="none"/>
    <path d="M-0.05 1.65 L-0.05 1.7 -0.1 1.7 -0.1 1.7 -0.05 1.7 -0.05 1.65" fill="#3b2b17" fill-rule="evenodd" stroke="none"/>
    <path d="M-0.5 1.6 L-0.55 1.6 -0.6 1.65 -0.65 1.65 -0.65 1.6 -0.7 1.6 -0.7 1.6 -0.75 1.6 -0.75 1.6 -0.8 1.6 Q-0.8 1.55 -0.8 1.55 L-0.85 1.55 -0.75 1.55 -0.65 1.6 Q-0.6 1.55 -0.5 1.55 L-0.5 1.6" fill="#654122" fill-rule="evenodd" stroke="none"/>
    <path d="M-0.8 1.6 L-0.85 1.6 -0.85 1.6 -0.9 1.6 -0.9 1.55 -0.9 1.55 -0.85 1.55 -0.8 1.55 Q-0.8 1.55 -0.8 1.6" fill="#3a2312" fill-rule="evenodd" stroke="none"/>
    <path d="M-0.55 1.6 L-0.55 1.65 -0.6 1.7 -0.6 1.65 -0.65 1.65 -0.65 1.6 -0.65 1.65 -0.6 1.65 -0.55 1.6" fill="#3a2816" fill-rule="evenodd" stroke="none"/>
    <path d="M1.55 -1.05 L1.55 -1.35 1.55 -1.6 1.55 -1.65 1.5 -1.7 1.45 -1.7 1.4 -1.7 1.35 -1.7 1.3 -1.7 1.2 -1.75 1.2 -1.7 1.2 -1.7 1.15 -1.7 1.15 -1.65 1.05 -1.65 0.9 -1.7 0.9 -1.7 0.85 -1.75 0.8 -1.7 0.75 -1.75 0.75 -1.75 0.7 -1.75 0.65 -1.7 0.6 -1.75 0.55 -1.7 0.55 -1.7 0.4 -1.7 0.3 -1.7 0.25 -1.7 0.2 -1.75 0.15 -1.75 -0.15 -1.75 -0.15 -1.75 -0.2 -1.7 -0.25 -1.7 -0.25 -1.7 -0.3 -1.7 -0.3 -1.7 Q-0.35 -1.65 -0.35 -1.7 L-0.35 -1.7 -0.4 -1.75 -0.45 -1.75 -0.45 -1.7 -0.45 -1.7 -0.5 -1.7 -0.6 -1.75 -0.6 -1.75 -0.65 -1.7 -0.65 -1.7 -0.75 -1.7 -0.8 -1.75 -0.85 -1.75 -0.95 -1.75 -0.95 -1.75 -0.95 -1.75 -1.0 -1.7 -1.0 -1.65 -1.0 -1.65 -1.05 -1.65 -1.05 -1.65 -1.05 -1.65 -1.1 -1.7 -1.15 -1.65 -1.15 -1.7 -1.2 -1.7 -1.25 -1.75 -1.25 -1.7 -1.3 -1.7 -1.3 -1.65 -1.3 -1.65 -1.35 -1.65 -1.35 -1.65 -1.35 -1.6 -1.35 -1.6 -1.3 -1.6 -1.3 -1.6 -1.35 -1.6 Q-1.35 -1.55 -1.35 -1.55 L-1.4 -1.5 -1.4 -1.45 -1.4 -1.45 -1.45 -1.45 -1.45 -1.5 -1.45 -1.5 -1.5 -1.55 -1.5 -1.25 -1.5 -1.2 -1.55 -1.1 -1.55 -0.95 -1.55 -0.85 -1.5 -0.7 -1.5 -0.3 -1.5 -0.2 -1.5 -0.2 -1.55 -0.15 -1.55 -0.1 -1.55 0.0 -1.55 0.05 -1.55 0.05 -1.55 1.1 -1.5 1.15 -1.5 1.15 -1.45 1.2 -1.45 1.2 -1.5 1.25 -1.5 1.25 -1.5 1.3 -1.55 1.3 -1.55 1.3 -1.5 1.35 Q-1.5 1.3 -1.45 1.35 L-1.45 1.4 -1.45 1.45 -1.5 1.5 -1.5 1.55 -1.4 1.55 Q-1.4 1.55 -1.4 1.6 L-1.45 1.6 -1.45 1.65 -1.45 1.65 -1.5 1.7 -1.5 1.65 Q-1.55 1.6 -1.55 1.65 L-1.5 1.75 -1.5 1.75 -1.45 1.7 -1.45 1.7 -1.4 1.7 -1.4 1.75 -1.35 1.7 -1.3 1.65 -1.35 1.7 -1.3 1.7 -1.3 1.7 -1.25 1.65 -1.2 1.65 -1.2 1.65 -1.15 1.65 -1.1 1.65 -1.1 1.75 -1.05 1.75 -1.0 1.75 -1.0 1.65 -0.95 1.6 -0.95 1.55 -0.9 1.55 -0.9 1.6 -0.85 1.6 -0.85 1.6 -0.8 1.6 -0.75 1.6 -0.75 1.6 -0.7 1.6 -0.7 1.6 -0.65 1.6 -0.65 1.65 -0.6 1.65 -0.6 1.7 -0.55 1.65 -0.55 1.6 -0.5 1.6 -0.45 1.55 -0.45 1.6 -0.4 1.6 -0.35 1.55 -0.35 1.6 -0.3 1.6 -0.25 1.65 Q-0.25 1.7 -0.2 1.7 L-0.2 1.65 -0.15 1.7 -0.1 1.7 -0.1 1.7 -0.05 1.7 -0.05 1.65 -0.05 1.65 0.0 1.65 0.0 1.65 0.05 1.65 0.15 1.7 0.15 1.75 0.2 1.7 0.25 1.7 0.3 1.7 0.35 1.7 0.35 1.65 0.4 1.7 0.45 1.7 0.5 1.7 0.6 1.75 0.65 1.7 0.65 1.65 0.7 1.7 0.8 1.65 0.8 1.55 0.85 1.55 0.85 1.6 Q0.85 1.6 0.9 1.6 L0.9 1.65 0.95 1.65 0.95 1.7 1.0 1.7 1.05 1.7 1.05 1.75 1.1 1.75 1.15 1.65 1.2 1.7 1.25 1.7 1.3 1.7 1.3 1.75 Q1.3 1.75 1.35 1.75 L1.35 1.7 1.4 1.7 1.45 1.7 1.55 1.55 1.55 1.35 1.5 1.3 1.5 1.25 1.5 1.1 1.5 1.0 1.55 1.0 1.55 0.9 1.5 0.9 1.5 0.85 1.45 0.85 1.45 0.7 1.5 0.6 1.5 0.5 1.55 0.4 1.55 0.35 1.5 0.35 1.55 0.25 1.55 0.15 1.55 -0.15 1.55 -0.25 1.55 -0.65 1.55 -1.05 M-0.2 -1.7 L-0.2 -1.7 Z" fill="none" stroke="#000000" stroke-linecap="round" stroke-linejoin="round" stroke-opacity="0.4509804" stroke-width="1.0"/>
  </g>
</svg>
