<?xml version="1.0" encoding="UTF-8" standalone="no"?>
<svg xmlns:xlink="http://www.w3.org/1999/xlink" height="2.75px" width="3.25px" xmlns="http://www.w3.org/2000/svg">
  <g transform="matrix(1.0, 0.0, 0.0, 1.0, 1.55, 1.45)">
    <path d="M1.15 -1.3 L1.1 -1.3 1.1 -1.3 1.05 -1.3 1.0 -1.3 0.9 -1.2 0.8 -1.15 0.8 -1.1 0.75 -1.15 0.75 -1.2 0.8 -1.2 0.8 -1.2 0.7 -1.25 0.65 -1.15 0.6 -1.15 Q0.55 -1.2 0.55 -1.2 L0.5 -1.2 0.45 -1.15 0.5 -1.15 0.45 -1.15 0.4 -1.1 0.35 -1.15 0.3 -1.15 Q0.25 -1.15 0.3 -1.15 L0.35 -1.2 0.3 -1.2 0.25 -1.2 0.25 -1.2 0.2 -1.2 0.1 -1.2 0.05 -1.15 0.0 -1.1 0.05 -1.15 0.05 -1.15 -0.05 -1.1 -0.15 -1.05 -0.15 -1.1 -0.1 -1.1 -0.15 -1.15 -0.4 -1.1 -0.5 -1.1 Q-0.55 -1.05 -0.55 -1.05 L-0.55 -1.0 -0.6 -1.0 -0.65 -1.0 -0.55 -1.05 -0.5 -1.1 -0.6 -1.1 -0.65 -1.05 -0.6 -1.05 -0.65 -1.05 -0.65 -1.05 -0.7 -1.05 -0.7 -1.05 -0.75 -1.0 -0.7 -1.0 -0.7 -0.95 -0.75 -0.95 -0.85 -0.95 -0.9 -0.95 -0.9 -1.0 -0.85 -1.05 Q-0.85 -1.0 -0.9 -1.0 L-1.0 -1.0 -0.95 -1.05 -0.9 -1.05 -0.85 -1.05 -0.8 -1.1 -0.8 -1.15 -0.75 -1.15 -0.65 -1.2 -0.65 -1.2 -0.55 -1.3 -0.45 -1.35 -0.3 -1.35 -0.15 -1.35 -0.15 -1.35 -0.1 -1.35 0.0 -1.35 0.1 -1.3 0.2 -1.35 0.3 -1.35 0.3 -1.35 0.35 -1.35 0.4 -1.35 0.45 -1.35 0.5 -1.35 0.55 -1.3 0.65 -1.35 0.75 -1.35 0.75 -1.3 0.9 -1.35 0.95 -1.35 1.0 -1.35 1.05 -1.35 1.15 -1.35 1.15 -1.3" fill="#67432f" fill-rule="evenodd" stroke="none"/>
    <path d="M-0.7 -0.95 L-0.7 -1.0 -0.75 -1.0 -0.7 -1.05 -0.7 -1.05 -0.65 -1.05 -0.65 -1.05 -0.6 -1.05 -0.65 -1.05 -0.6 -1.1 -0.5 -1.1 -0.55 -1.05 -0.65 -1.0 -0.6 -1.0 -0.55 -1.0 -0.55 -1.05 Q-0.55 -1.05 -0.5 -1.1 L-0.4 -1.1 -0.15 -1.15 -0.1 -1.1 -0.15 -1.1 -0.15 -1.05 -0.05 -1.1 0.05 -1.15 0.05 -1.15 0.0 -1.1 0.05 -1.15 0.1 -1.2 0.2 -1.2 0.25 -1.2 0.25 -1.2 0.3 -1.2 0.35 -1.2 0.3 -1.15 Q0.25 -1.15 0.3 -1.15 L0.35 -1.15 0.4 -1.1 0.45 -1.15 0.5 -1.15 0.45 -1.15 0.5 -1.2 0.55 -1.2 Q0.55 -1.2 0.6 -1.15 L0.65 -1.15 0.7 -1.25 0.8 -1.2 0.8 -1.2 0.75 -1.2 0.75 -1.15 0.8 -1.1 0.8 -1.15 0.9 -1.2 1.0 -1.3 1.05 -1.3 1.1 -1.3 1.1 -1.3 1.15 -1.3 1.15 -1.3 1.15 -1.3 1.2 -1.25 Q1.1 -1.25 1.05 -1.15 L1.05 -1.15 1.1 -1.15 1.1 -1.05 1.15 -1.05 1.05 -1.0 1.0 -1.05 0.95 -1.05 0.9 -1.05 0.9 -0.95 0.9 -1.05 0.85 -1.1 0.8 -1.1 0.8 -1.0 0.75 -1.0 0.7 -0.95 0.7 -1.0 0.65 -1.05 0.6 -1.0 0.45 -1.0 0.35 -1.0 0.25 -0.95 0.2 -0.95 0.2 -0.9 0.2 -0.85 0.2 -0.85 0.15 -0.85 0.15 -0.85 0.05 -0.85 0.05 -0.85 0.0 -0.9 0.0 -0.95 0.05 -0.95 -0.15 -0.95 -0.35 -0.95 -0.45 -0.95 -0.55 -0.95 -0.65 -0.95 -0.7 -0.95" fill="#5c3823" fill-rule="evenodd" stroke="none"/>
    <path d="M1.15 -1.3 L1.15 -1.35 1.05 -1.35 1.0 -1.35 0.95 -1.35 0.9 -1.35 0.75 -1.3 0.75 -1.35 0.65 -1.35 0.55 -1.3 0.5 -1.35 0.45 -1.35 0.4 -1.35 0.35 -1.35 0.3 -1.35 0.3 -1.35 0.2 -1.35 0.1 -1.3 0.0 -1.35 -0.1 -1.35 -0.15 -1.35 -0.15 -1.35 -0.3 -1.35 -0.45 -1.35 -0.55 -1.3 -0.65 -1.2 -0.65 -1.2 -0.75 -1.15 -0.8 -1.15 -0.8 -1.1 -0.85 -1.05 -0.9 -1.05 -0.95 -1.05 -1.0 -1.0 -0.9 -1.0 Q-0.85 -1.0 -0.85 -1.05 L-0.9 -1.0 -0.9 -0.95 -0.95 -0.95 -0.95 -0.95 -1.0 -0.95 -1.0 -0.95 -1.05 -0.95 -1.05 -1.0 -1.0 -1.1 -0.95 -1.15 -0.9 -1.1 -0.9 -1.1 Q-0.85 -1.1 -0.85 -1.15 L-0.85 -1.15 Q-0.9 -1.15 -0.9 -1.2 L-0.75 -1.25 -0.6 -1.35 -0.55 -1.4 -0.55 -1.45 -0.5 -1.45 -0.4 -1.4 -0.35 -1.4 -0.3 -1.4 0.35 -1.4 0.95 -1.4 1.1 -1.4 1.3 -1.35 1.25 -1.3 1.2 -1.25 1.15 -1.3 1.15 -1.3 1.15 -1.3" fill="#2f1f11" fill-rule="evenodd" stroke="none"/>
    <path d="M1.15 -1.05 L1.1 -1.05 1.1 -1.15 1.05 -1.15 1.05 -1.15 Q1.1 -1.25 1.2 -1.25 L1.25 -1.3 1.3 -1.35 1.1 -1.4 0.95 -1.4 0.35 -1.4 -0.3 -1.4 -0.25 -1.45 -0.3 -1.45 -0.4 -1.45 0.45 -1.45 1.3 -1.45 1.4 -1.45 1.5 -1.45 1.5 -1.4 1.45 -1.4 1.45 -1.35 1.45 -1.35 1.5 -1.35 1.45 -1.3 1.5 -1.35 1.55 -1.35 1.5 -1.3 1.4 -1.25 1.35 -1.2 Q1.35 -1.15 1.3 -1.15 L1.3 -1.25 1.25 -1.25 Q1.15 -1.15 1.2 -1.1 L1.15 -1.05 1.15 -1.05" fill="#8d5b26" fill-rule="evenodd" stroke="none"/>
    <path d="M0.05 -0.85 L0.15 -0.85 0.15 -0.85 0.2 -0.85 0.2 -0.85 0.25 -0.85 0.25 -0.85 0.3 -0.85 0.35 -0.85 0.4 -0.8 0.5 -0.8 Q0.55 -0.75 0.6 -0.75 L0.65 -0.75 0.7 -0.8 0.85 -0.85 0.85 -0.9 0.9 -0.9 1.0 -0.95 1.05 -1.0 1.15 -1.05 1.15 -1.05 1.2 -1.1 1.25 -1.1 1.3 -1.15 Q1.35 -1.15 1.35 -1.2 L1.4 -1.25 1.5 -1.3 1.55 -1.35 1.6 -1.35 1.6 -1.45 1.5 -1.45 1.4 -1.45 1.3 -1.45 1.5 -1.45 1.65 -1.45 1.65 -0.9 1.6 -0.9 1.6 -0.9 Q1.55 -0.9 1.55 -0.95 L1.55 -1.0 1.6 -1.0 1.6 -1.05 1.55 -1.05 1.5 -1.1 1.5 -1.05 1.45 -1.0 1.4 -0.95 1.35 -0.9 1.35 -0.35 1.3 -0.35 1.3 -0.9 1.25 -0.9 1.2 -0.85 1.2 -0.85 1.15 -0.85 1.15 -0.8 1.1 -0.8 1.05 -0.75 1.0 -0.75 Q0.95 -0.7 1.0 -0.7 L1.0 -0.65 0.95 -0.65 0.95 -0.5 0.95 -0.5 0.9 -0.5 0.9 -0.5 0.85 -0.5 0.85 -0.1 0.85 0.75 0.7 0.8 0.7 0.75 Q0.7 0.7 0.7 0.7 L0.65 0.7 0.65 0.65 Q0.7 0.6 0.65 0.5 0.65 0.45 0.65 0.45 L0.7 0.4 0.7 0.35 0.7 0.25 0.65 0.15 0.7 0.15 0.7 0.1 0.75 0.05 Q0.75 0.0 0.7 0.0 L0.7 -0.1 0.7 -0.15 0.7 -0.2 0.75 -0.1 0.75 -0.2 0.7 -0.25 Q0.65 -0.35 0.65 -0.4 L0.65 -0.55 0.7 -0.6 0.65 -0.6 0.65 -0.6 0.65 -0.65 0.6 -0.7 0.55 -0.55 0.45 -0.5 Q0.4 -0.45 0.4 -0.35 L0.4 -0.2 0.4 0.95 0.4 0.1 0.4 -0.4 0.35 -0.35 0.3 -0.45 0.35 -0.5 0.35 -0.6 0.4 -0.65 0.5 -0.7 0.4 -0.75 0.35 -0.7 0.3 -0.7 0.25 -0.7 0.2 -0.65 0.2 -0.65 0.15 -0.65 0.1 -0.65 0.05 -0.65 0.0 -0.65 0.0 -0.35 0.0 0.05 0.0 1.15 -0.05 1.15 -0.05 0.0 -0.05 -0.65 -0.15 -0.65 -0.25 -0.65 -0.25 0.0 -0.25 0.55 -0.25 1.1 -0.25 1.05 -0.25 0.05 -0.25 -0.65 -0.35 -0.65 -0.45 -0.65 -0.45 0.25 -0.45 0.3 -0.5 0.35 -0.5 -0.65 -0.6 -0.65 -0.7 -0.65 -0.7 0.05 -0.7 1.15 -0.7 0.1 -0.7 -0.7 -0.75 -0.7 -0.8 -0.65 Q-0.8 -0.7 -0.85 -0.7 L-0.9 -0.7 -0.9 -0.7 -0.9 0.0 -0.9 0.25 -0.9 1.15 -0.9 0.15 -0.95 -0.25 -0.95 -0.65 -1.0 -0.7 -1.05 -0.7 -1.05 -0.65 -1.1 -0.65 -1.15 -0.65 -1.15 -0.45 -1.15 -0.5 -1.25 -0.5 -1.35 -0.55 -1.35 -0.6 -1.35 0.1 -1.35 0.5 -1.35 0.95 -1.4 0.95 -1.45 0.95 -1.45 0.9 -1.4 0.9 -1.45 0.8 -1.4 0.7 -1.45 0.65 -1.45 0.45 -1.45 0.2 -1.45 0.0 -1.45 -0.05 -1.4 -0.05 -1.4 0.0 -1.35 -0.05 -1.4 -0.1 -1.4 -0.1 -1.45 -0.15 -1.45 -0.25 -1.4 -0.25 -1.4 -0.2 -1.4 -0.15 -1.35 -0.25 -1.45 -0.25 -1.4 -0.3 -1.4 -0.35 -1.4 -0.4 -1.45 -0.4 -1.45 -0.45 -1.45 -0.65 -1.4 -0.8 -1.25 -0.85 -1.1 -0.9 -1.1 -0.95 -1.05 -0.95 -1.1 -0.9 -1.1 -0.9 -1.05 -0.9 -1.0 -0.85 -0.95 -0.85 -0.85 -0.85 -0.8 -0.85 -0.75 -0.85 -0.7 -0.85 -0.5 -0.85 -0.45 -0.8 -0.45 -0.8 -0.3 -0.8 -0.05 -0.8 0.05 -0.85 M0.95 -0.5 L0.95 -0.5 M1.15 -0.8 L1.15 -0.8 M-0.9 1.15 L-0.9 1.15 M-0.7 1.15 L-0.7 1.15 M-0.05 -0.8 L-0.05 -0.8" fill="#2f1d0e" fill-rule="evenodd" stroke="none"/>
    <path d="M1.55 -1.35 L1.5 -1.35 1.45 -1.3 1.5 -1.35 1.45 -1.35 1.45 -1.35 1.45 -1.4 1.5 -1.4 1.5 -1.45 1.6 -1.45 1.6 -1.35 1.55 -1.35" fill="#b38137" fill-rule="evenodd" stroke="none"/>
    <path d="M0.6 -1.0 L0.65 -1.05 0.7 -1.0 0.7 -0.95 0.75 -1.0 0.8 -1.0 0.8 -1.1 0.85 -1.1 0.9 -1.05 0.9 -0.95 0.9 -1.05 0.95 -1.05 1.0 -1.05 1.05 -1.0 1.0 -0.95 0.9 -0.9 0.9 -0.95 0.85 -0.95 0.8 -0.95 0.75 -1.0 0.7 -0.9 Q0.7 -0.9 0.65 -0.95 L0.65 -1.0 0.6 -1.0" fill="#815122" fill-rule="evenodd" stroke="none"/>
    <path d="M0.2 -0.85 L0.2 -0.9 0.2 -0.95 0.25 -0.95 0.35 -1.0 0.45 -1.0 0.6 -1.0 0.65 -1.0 0.65 -0.95 Q0.7 -0.9 0.7 -0.9 L0.75 -1.0 0.8 -0.95 0.85 -0.95 0.9 -0.95 0.9 -0.9 0.85 -0.9 0.85 -0.85 0.8 -0.9 0.8 -0.95 Q0.8 -0.9 0.75 -0.85 L0.65 -0.85 0.65 -0.8 0.7 -0.8 0.65 -0.75 0.65 -0.8 0.6 -0.75 0.55 -0.85 0.45 -0.9 0.4 -0.85 0.35 -0.85 0.3 -0.85 0.25 -0.85 0.3 -0.9 0.45 -0.9 0.6 -0.85 0.6 -0.9 0.55 -0.95 0.5 -0.95 0.45 -0.95 0.4 -0.95 0.35 -0.95 0.3 -0.95 0.25 -0.9 0.25 -0.85 0.25 -0.85 0.2 -0.85" fill="#b98235" fill-rule="evenodd" stroke="none"/>
    <path d="M0.7 -0.8 L0.65 -0.8 0.65 -0.85 0.75 -0.85 Q0.8 -0.9 0.8 -0.95 L0.8 -0.9 0.85 -0.85 0.7 -0.8" fill="#885524" fill-rule="evenodd" stroke="none"/>
    <path d="M0.45 -0.95 L0.5 -0.95 0.55 -0.95 0.6 -0.9 0.6 -0.85 0.45 -0.9 0.3 -0.9 0.25 -0.9 0.35 -0.95 0.45 -0.95" fill="#efefc2" fill-rule="evenodd" stroke="none"/>
    <path d="M0.35 -0.85 L0.4 -0.85 0.45 -0.9 0.55 -0.85 0.6 -0.75 0.65 -0.8 0.65 -0.75 0.6 -0.75 Q0.55 -0.75 0.5 -0.8 L0.4 -0.8 0.35 -0.85" fill="#855324" fill-rule="evenodd" stroke="none"/>
    <path d="M0.4 0.1 L0.4 0.95 0.4 -0.2 0.4 -0.35 Q0.4 -0.45 0.45 -0.5 L0.55 -0.55 0.6 -0.7 0.65 -0.65 0.65 -0.6 0.65 -0.6 0.7 -0.6 0.65 -0.55 0.65 -0.4 Q0.65 -0.35 0.7 -0.25 L0.75 -0.2 0.75 -0.1 0.7 -0.2 0.7 -0.15 0.65 -0.25 0.6 -0.3 0.6 -0.3 0.55 -0.3 0.65 -0.2 0.65 -0.15 Q0.65 -0.1 0.7 -0.1 L0.7 0.0 Q0.75 0.0 0.75 0.05 L0.7 0.1 0.7 0.15 0.65 0.15 0.7 0.25 0.7 0.35 0.7 0.4 0.65 0.45 Q0.65 0.45 0.65 0.5 0.7 0.6 0.65 0.65 L0.65 0.7 0.7 0.7 Q0.7 0.7 0.7 0.75 L0.7 0.8 0.85 0.75 0.85 -0.1 0.9 0.05 0.9 0.2 0.95 -0.15 0.95 -0.5 0.95 -0.5 0.95 0.05 0.95 0.2 1.0 0.1 1.05 -0.05 1.05 -0.2 1.05 -0.05 1.1 0.0 1.1 0.1 1.15 0.15 1.15 -0.8 1.15 -0.8 1.15 -0.2 1.15 -0.25 Q1.15 -0.25 1.15 -0.3 L1.15 -0.35 1.2 -0.3 1.2 -0.55 1.2 -0.8 1.25 -0.8 1.25 -0.45 1.25 -0.2 1.25 -0.25 1.3 -0.15 1.3 -0.15 1.35 -0.2 1.3 -0.25 1.25 -0.25 1.3 -0.3 1.3 -0.35 1.35 -0.35 1.35 -0.35 1.35 -0.3 1.4 -0.3 1.35 -0.45 1.4 -0.6 1.4 -0.5 1.4 -0.7 1.4 -0.45 1.45 -0.25 1.5 -0.3 1.45 -0.35 1.45 -0.4 1.5 -0.4 1.5 -0.5 Q1.45 -0.5 1.45 -0.55 L1.5 -0.6 1.45 -0.85 1.5 -0.85 1.5 -0.85 1.5 -0.95 Q1.5 -1.0 1.5 -0.95 L1.5 -0.75 Q1.5 -0.65 1.5 -0.6 L1.55 -0.7 1.55 -0.8 1.6 -0.8 1.6 -0.8 1.6 -0.6 1.6 -0.5 Q1.6 -0.45 1.65 -0.45 L1.65 -0.4 1.6 -0.4 1.65 -0.3 1.6 -0.25 1.65 -0.2 1.6 -0.15 1.6 -0.05 1.65 -0.05 1.65 -0.05 1.65 -0.05 1.65 0.0 1.6 0.05 Q1.55 0.1 1.6 0.15 L1.6 0.25 1.65 0.25 1.6 0.3 1.6 0.55 1.6 0.6 1.65 0.65 1.6 0.65 Q1.55 0.65 1.55 0.7 L1.45 0.65 1.45 0.7 1.4 0.7 1.35 0.75 1.3 0.75 1.2 0.8 1.15 0.8 1.1 0.85 1.1 0.9 Q1.05 0.95 1.1 0.95 L1.05 1.0 0.95 1.0 1.0 0.95 1.0 0.9 1.05 0.9 1.0 0.8 Q1.0 0.75 0.95 0.75 L0.9 0.9 Q0.8 0.95 0.75 0.9 L0.75 0.8 0.7 0.85 0.65 0.85 0.65 0.9 Q0.6 0.9 0.6 1.0 L0.55 0.95 0.6 0.95 0.5 0.95 0.5 1.0 0.45 1.05 0.5 1.05 0.55 1.1 0.5 1.15 0.45 1.1 0.35 1.15 0.35 1.2 0.25 1.2 0.15 1.2 0.2 1.2 0.25 1.2 0.3 1.15 0.2 1.15 0.15 1.15 0.0 1.15 0.0 0.05 0.0 0.05 0.05 0.05 0.05 0.1 0.1 0.15 0.15 0.15 0.1 0.1 0.15 0.1 0.1 0.05 0.1 -0.15 0.15 -0.15 0.15 0.0 0.2 0.05 0.2 -0.6 0.2 -0.65 0.25 -0.65 0.3 -0.6 0.3 -0.6 0.25 -0.6 0.2 -0.6 0.2 -0.1 0.2 0.3 0.25 0.1 0.3 0.1 0.3 0.15 0.3 0.25 0.35 0.3 0.35 0.15 Q0.35 0.1 0.35 0.1 0.4 0.05 0.4 0.1 M1.6 0.55 L1.6 0.45 1.55 0.5 1.5 0.55 1.5 0.6 1.55 0.6 Q1.55 0.55 1.55 0.55 L1.6 0.55 M0.6 -0.5 L0.6 -0.55 0.55 -0.5 Q0.5 -0.45 0.55 -0.45 L0.6 -0.5 M0.7 0.0 L0.65 -0.05 0.65 0.0 0.6 0.05 Q0.55 0.05 0.55 0.1 L0.6 0.05 0.65 0.0 0.7 0.0 M1.15 -0.2 L1.15 -0.1 1.15 -0.2 M0.7 0.1 L0.7 0.05 0.65 0.1 0.55 0.15 0.55 0.2 0.7 0.1" fill="#5a3721" fill-rule="evenodd" stroke="none"/>
    <path d="M0.95 -0.5 L0.95 -0.65 1.0 -0.65 1.0 -0.7 Q0.95 -0.7 1.0 -0.75 L1.05 -0.75 1.1 -0.8 1.15 -0.8 1.15 0.15 1.1 0.1 1.1 0.0 1.05 -0.05 1.05 -0.2 1.05 -0.05 1.0 0.1 0.95 0.2 0.95 0.05 0.95 -0.5" fill="#694734" fill-rule="evenodd" stroke="none"/>
    <path d="M0.3 -0.9 L0.25 -0.85 0.25 -0.9 0.3 -0.95 0.35 -0.95 0.4 -0.95 0.45 -0.95 0.35 -0.95 0.25 -0.9 0.3 -0.9" fill="#d6cd60" fill-rule="evenodd" stroke="none"/>
    <path d="M-0.55 -0.95 L-0.45 -0.95 -0.35 -0.95 -0.15 -0.95 0.05 -0.95 0.0 -0.95 0.0 -0.9 0.05 -0.85 0.05 -0.85 -0.05 -0.8 -0.3 -0.8 -0.45 -0.8 -0.4 -0.85 -0.35 -0.85 -0.3 -0.85 -0.2 -0.9 -0.15 -0.95 -0.2 -0.95 -0.2 -0.95 -0.5 -0.85 -0.5 -0.85 -0.7 -0.85 -0.65 -0.9 -0.6 -0.9 -0.5 -0.9 -0.55 -0.95 -0.55 -0.95 M-0.05 -0.8 L-0.05 -0.85 -0.05 -0.9 -0.1 -0.9 -0.1 -0.85 -0.1 -0.85 -0.05 -0.8" fill="#8b5926" fill-rule="evenodd" stroke="none"/>
    <path d="M0.0 0.05 L0.0 -0.35 0.0 -0.65 0.05 -0.65 0.1 -0.65 0.15 -0.65 0.2 -0.65 0.2 -0.6 0.2 0.05 0.15 0.0 0.15 -0.15 0.1 -0.15 0.1 0.05 0.15 0.1 0.1 0.1 0.15 0.15 0.1 0.15 0.05 0.1 0.05 0.05 0.0 0.05 0.0 0.05 M0.2 -0.65 L0.2 -0.65" fill="#68432f" fill-rule="evenodd" stroke="none"/>
    <path d="M0.2 -0.65 L0.2 -0.65 0.25 -0.7 0.3 -0.7 0.35 -0.7 0.4 -0.75 0.5 -0.7 0.4 -0.65 0.35 -0.6 0.3 -0.6 0.3 -0.6 0.25 -0.65 0.2 -0.65 0.2 -0.65" fill="#92622c" fill-rule="evenodd" stroke="none"/>
    <path d="M0.35 -0.6 L0.35 -0.5 0.3 -0.45 0.35 -0.35 0.4 -0.4 0.4 0.1 Q0.4 0.05 0.35 0.1 0.35 0.1 0.35 0.15 L0.35 0.3 0.3 0.25 0.3 0.15 0.3 0.1 0.25 0.1 0.2 0.3 0.2 -0.1 0.2 -0.6 0.25 -0.6 0.3 -0.6 0.3 -0.6 0.3 -0.6 0.35 -0.6" fill="#67432d" fill-rule="evenodd" stroke="none"/>
    <path d="M0.85 -0.1 L0.85 -0.5 0.9 -0.5 0.9 -0.5 0.95 -0.5 0.95 -0.5 0.95 -0.15 0.9 0.2 0.9 0.05 0.85 -0.1" fill="#724c34" fill-rule="evenodd" stroke="none"/>
    <path d="M0.6 -0.5 L0.55 -0.45 Q0.5 -0.45 0.55 -0.5 L0.6 -0.55 0.6 -0.5" fill="#ad863c" fill-rule="evenodd" stroke="none"/>
    <path d="M0.7 -0.15 L0.7 -0.1 Q0.65 -0.1 0.65 -0.15 L0.65 -0.2 0.55 -0.3 0.6 -0.3 0.6 -0.3 0.65 -0.25 0.7 -0.15" fill="#936c2e" fill-rule="evenodd" stroke="none"/>
    <path d="M0.7 0.0 L0.65 0.0 0.6 0.05 0.55 0.1 Q0.55 0.05 0.6 0.05 L0.65 0.0 0.65 -0.05 0.7 0.0" fill="#bd9e4f" fill-rule="evenodd" stroke="none"/>
    <path d="M1.35 -0.35 L1.35 -0.9 1.4 -0.95 1.45 -1.0 1.5 -1.05 1.5 -1.1 1.55 -1.05 1.6 -1.05 1.6 -1.0 1.55 -1.0 1.55 -0.95 Q1.55 -0.9 1.6 -0.9 L1.6 -0.9 1.65 -0.9 1.65 -0.9 1.6 -0.8 1.6 -0.8 1.55 -0.8 1.55 -0.7 1.5 -0.6 Q1.5 -0.65 1.5 -0.75 L1.5 -0.95 Q1.5 -1.0 1.5 -0.95 L1.5 -0.85 1.5 -0.85 1.45 -0.85 1.5 -0.6 1.45 -0.55 Q1.45 -0.5 1.5 -0.5 L1.5 -0.4 1.45 -0.4 1.45 -0.35 1.5 -0.3 1.45 -0.25 1.4 -0.45 1.4 -0.7 1.4 -0.5 1.4 -0.6 1.35 -0.45 1.4 -0.3 1.35 -0.3 1.35 -0.35 1.35 -0.35" fill="#68442e" fill-rule="evenodd" stroke="none"/>
    <path d="M1.65 -0.9 L1.65 -0.45 Q1.6 -0.45 1.6 -0.5 L1.6 -0.6 1.6 -0.8 1.65 -0.9" fill="#36230f" fill-rule="evenodd" stroke="none"/>
    <path d="M1.3 -1.15 L1.25 -1.1 1.2 -1.1 Q1.15 -1.15 1.25 -1.25 L1.3 -1.25 1.3 -1.15" fill="#c08834" fill-rule="evenodd" stroke="none"/>
    <path d="M1.15 -0.8 L1.15 -0.85 1.2 -0.85 1.2 -0.85 1.25 -0.9 1.3 -0.9 1.3 -0.35 1.3 -0.3 1.25 -0.25 1.3 -0.25 1.35 -0.2 1.3 -0.15 1.3 -0.15 1.25 -0.25 1.25 -0.2 1.25 -0.45 1.25 -0.8 1.2 -0.8 1.2 -0.55 1.2 -0.3 1.15 -0.35 1.15 -0.3 Q1.15 -0.25 1.15 -0.25 L1.15 -0.2 1.15 -0.8 M1.15 -0.2 L1.15 -0.1 1.15 -0.2" fill="#664331" fill-rule="evenodd" stroke="none"/>
    <path d="M1.65 -0.4 L1.65 -0.05 1.65 0.15 1.7 0.7 1.6 0.75 1.5 0.75 1.45 0.75 1.45 0.8 1.4 0.85 1.35 0.85 1.25 0.85 1.5 0.7 1.55 0.7 Q1.55 0.65 1.6 0.65 L1.65 0.65 1.6 0.6 1.6 0.55 1.6 0.3 1.65 0.25 1.6 0.25 1.6 0.15 Q1.55 0.1 1.6 0.05 L1.65 0.0 1.65 -0.05 1.65 -0.05 1.6 -0.05 1.6 -0.15 1.65 -0.2 1.6 -0.25 1.65 -0.3 1.6 -0.4 1.65 -0.4" fill="#301f0d" fill-rule="evenodd" stroke="none"/>
    <path d="M1.6 0.55 L1.55 0.55 Q1.55 0.55 1.55 0.6 L1.5 0.6 1.5 0.55 1.55 0.5 1.6 0.45 1.6 0.55" fill="#bb9044" fill-rule="evenodd" stroke="none"/>
    <path d="M1.1 0.95 Q1.05 0.95 1.1 0.9 L1.1 0.85 1.15 0.8 1.2 0.8 1.3 0.75 1.35 0.75 1.4 0.7 1.45 0.7 1.45 0.65 1.55 0.7 1.5 0.7 Q1.5 0.65 1.5 0.7 L1.25 0.85 1.2 0.9 1.1 0.95" fill="#9e672b" fill-rule="evenodd" stroke="none"/>
    <path d="M1.5 0.7 Q1.5 0.65 1.5 0.7 L1.55 0.7 1.5 0.7" fill="#e3db94" fill-rule="evenodd" stroke="none"/>
    <path d="M1.4 0.85 L1.1 1.05 0.75 1.25 Q0.7 1.25 0.65 1.25 L0.55 1.25 0.55 1.2 0.6 1.15 0.65 1.1 0.75 1.1 0.8 1.05 0.8 1.0 0.85 0.95 0.9 1.0 0.95 1.0 1.05 1.0 1.1 0.95 1.2 0.9 1.25 0.85 1.35 0.85 1.4 0.85" fill="#170f06" fill-rule="evenodd" stroke="none"/>
    <path d="M0.6 1.0 Q0.6 0.9 0.65 0.9 L0.65 0.85 0.7 0.85 0.75 0.8 0.75 0.9 Q0.8 0.95 0.9 0.9 L0.95 0.75 Q1.0 0.75 1.0 0.8 L1.05 0.9 1.0 0.9 1.0 0.95 0.95 1.0 0.9 1.0 0.85 0.95 0.8 1.0 0.8 1.05 Q0.8 1.0 0.75 0.95 L0.6 1.0" fill="#3e2711" fill-rule="evenodd" stroke="none"/>
    <path d="M0.7 0.1 L0.55 0.2 0.55 0.15 0.65 0.1 0.7 0.05 0.7 0.1" fill="#ab7c35" fill-rule="evenodd" stroke="none"/>
    <path d="M0.0 1.2 L-0.05 1.2 -0.1 1.2 -0.1 1.15 -0.05 1.15 0.05 1.15 0.1 1.15 0.05 1.2 0.0 1.2 0.0 1.2" fill="#f3f3d0" fill-rule="evenodd" stroke="none"/>
    <path d="M0.55 1.25 L-1.5 1.25 -1.5 1.25 -1.4 1.15 -1.35 1.1 -1.35 1.05 -1.3 1.0 -1.25 1.0 Q-1.2 0.95 -1.2 1.0 L-1.2 1.15 -1.25 1.15 -1.3 1.15 -1.35 1.2 -1.35 1.2 -1.25 1.2 -1.15 1.2 -1.05 1.2 -0.9 1.2 -0.8 1.2 -0.4 1.2 0.0 1.2 0.0 1.2 0.05 1.2 0.1 1.2 0.15 1.2 0.25 1.2 0.35 1.2 0.45 1.2 0.5 1.15 0.6 1.1 0.65 1.1 0.6 1.15 0.55 1.2 0.55 1.25" fill="#2c1d0c" fill-rule="evenodd" stroke="none"/>
    <path d="M0.15 1.15 L0.2 1.15 0.3 1.15 0.25 1.2 0.2 1.2 0.15 1.2 0.1 1.2 0.05 1.2 0.1 1.15 0.15 1.15" fill="#a56d2d" fill-rule="evenodd" stroke="none"/>
    <path d="M0.0 1.15 L0.15 1.15 0.1 1.15 0.05 1.15 -0.05 1.15 -0.1 1.15 -0.1 1.2 -0.15 1.15 -0.1 1.15 -0.05 1.15 0.0 1.15" fill="#d3c45f" fill-rule="evenodd" stroke="none"/>
    <path d="M0.35 1.2 L0.35 1.15 0.45 1.1 0.5 1.15 0.55 1.1 0.5 1.05 0.45 1.05 0.5 1.0 0.5 0.95 0.6 0.95 0.55 0.95 0.6 1.0 0.6 1.1 0.5 1.15 0.45 1.2 0.35 1.2" fill="#a77332" fill-rule="evenodd" stroke="none"/>
    <path d="M0.6 1.1 L0.6 1.0 0.75 0.95 Q0.8 1.0 0.8 1.05 L0.75 1.1 0.65 1.1 0.6 1.1" fill="#774e20" fill-rule="evenodd" stroke="none"/>
    <path d="M-0.55 -1.45 L-0.55 -1.4 -0.6 -1.35 -0.75 -1.25 -0.9 -1.2 -0.9 -1.15 -0.95 -1.15 -1.0 -1.1 -1.05 -1.0 -1.1 -1.0 -1.1 -0.95 Q-1.15 -0.95 -1.2 -0.95 L-1.2 -1.0 -1.0 -1.15 -0.8 -1.3 -0.65 -1.4 -0.55 -1.45" fill="#caa646" fill-rule="evenodd" stroke="none"/>
    <path d="M-0.3 -1.4 L-0.35 -1.4 -0.4 -1.4 -0.5 -1.45 -0.45 -1.45 -0.4 -1.45 -0.4 -1.45 -0.3 -1.45 -0.25 -1.45 -0.3 -1.4" fill="#c19f3f" fill-rule="evenodd" stroke="none"/>
    <path d="M-1.05 -1.0 L-1.05 -0.95 -1.0 -0.95 -1.0 -0.95 -1.0 -0.95 -0.95 -0.9 -0.95 -0.9 -0.95 -0.85 -1.0 -0.85 -1.05 -0.9 -1.1 -0.9 -1.1 -0.9 -1.05 -0.95 -1.1 -0.95 -1.1 -0.9 -1.25 -0.85 -1.4 -0.8 Q-1.4 -0.8 -1.45 -0.8 L-1.5 -0.85 -0.8 -1.3 -1.0 -1.15 -1.2 -1.0 -1.2 -0.95 Q-1.15 -0.95 -1.1 -0.95 L-1.1 -1.0 -1.05 -1.0" fill="#a0672c" fill-rule="evenodd" stroke="none"/>
    <path d="M-1.5 -0.4 L-1.5 -0.85 -1.45 -0.8 Q-1.4 -0.8 -1.4 -0.8 L-1.45 -0.65 -1.45 -0.45 -1.45 -0.4 -1.4 -0.4 -1.4 -0.35 -1.4 -0.3 -1.45 -0.25 -1.35 -0.25 -1.4 -0.15 -1.4 -0.2 -1.4 -0.25 -1.45 -0.25 -1.45 -0.25 -1.45 -0.35 -1.5 -0.4" fill="#704b20" fill-rule="evenodd" stroke="none"/>
    <path d="M-1.35 0.1 L-1.35 -0.6 -1.35 -0.55 -1.25 -0.5 -1.15 -0.5 -1.15 -0.45 -1.15 -0.65 -1.1 -0.65 -1.05 -0.65 -1.05 -0.7 -1.0 -0.7 -0.95 -0.65 -0.95 -0.25 -0.9 0.15 -0.95 0.15 -0.95 0.15 -1.0 0.15 -1.0 0.2 -1.05 0.2 -1.05 0.2 -1.05 0.3 -1.1 0.3 -1.1 0.3 -1.15 0.3 -1.15 -0.05 -1.15 -0.4 -1.15 -0.45 -1.15 0.2 -1.2 0.2 -1.2 0.15 -1.15 0.15 -1.2 0.15 -1.2 0.1 -1.25 0.1 -1.25 0.15 Q-1.25 0.2 -1.25 0.2 L-1.3 0.15 -1.35 0.1 -1.35 0.1" fill="#744e37" fill-rule="evenodd" stroke="none"/>
    <path d="M-1.5 1.25 L-1.5 -0.15 -1.5 -0.2 -1.45 -0.2 -1.5 -0.25 -1.5 -0.25 -1.5 -0.25 -1.45 -0.25 -1.45 -0.15 -1.4 -0.1 -1.4 -0.1 -1.35 -0.05 -1.4 0.0 -1.4 -0.05 -1.45 -0.05 -1.45 0.0 -1.45 0.2 -1.45 0.45 -1.45 0.65 -1.4 0.7 -1.45 0.8 -1.4 0.9 -1.45 0.9 -1.45 0.95 -1.4 0.95 -1.35 0.95 -1.35 0.5 -1.35 0.1 -1.35 0.1 -1.3 0.15 -1.25 0.2 Q-1.25 0.2 -1.25 0.15 L-1.25 0.1 -1.2 0.1 -1.2 0.15 -1.15 0.15 -1.2 0.15 -1.2 0.2 -1.15 0.2 -1.15 1.15 -1.15 1.15 -1.15 1.2 -1.25 1.2 -1.35 1.2 -1.35 1.2 -1.3 1.15 -1.25 1.15 -1.2 1.15 -1.2 1.0 Q-1.2 0.95 -1.25 1.0 L-1.25 0.9 -1.35 0.95 -1.4 1.0 -1.4 1.0 Q-1.35 1.0 -1.35 1.0 L-1.4 1.05 -1.4 1.05 -1.35 1.05 -1.35 1.05 -1.35 1.1 -1.4 1.15 -1.5 1.25 M-1.45 -0.25 L-1.45 -0.25 M-1.35 0.1 L-1.35 0.2 -1.35 0.2 -1.35 0.1" fill="#623d23" fill-rule="evenodd" stroke="none"/>
    <path d="M-1.5 -0.25 L-1.5 -0.4 -1.45 -0.35 -1.45 -0.25 -1.5 -0.25 M-1.45 -0.25 L-1.45 -0.25" fill="#caa94e" fill-rule="evenodd" stroke="none"/>
    <path d="M-1.5 -0.15 L-1.5 -0.25 -1.5 -0.25 -1.45 -0.2 -1.5 -0.2 -1.5 -0.15" fill="#be8d3a" fill-rule="evenodd" stroke="none"/>
    <path d="M-1.15 0.2 L-1.15 -0.45 -1.15 -0.4 -1.15 -0.05 -1.15 0.3 -1.15 1.15 -1.15 1.15 -1.15 0.2" fill="#35170a" fill-rule="evenodd" stroke="none"/>
    <path d="M-1.45 -0.25 L-1.45 -0.25 -1.45 -0.25 -1.45 -0.25" fill="#9d6a2b" fill-rule="evenodd" stroke="none"/>
    <path d="M-0.5 -0.85 L-0.5 -0.85 -0.2 -0.95 -0.2 -0.95 -0.15 -0.95 -0.2 -0.9 -0.3 -0.85 -0.35 -0.85 -0.4 -0.85 -0.45 -0.8 -0.45 -0.8 -0.5 -0.85" fill="#c5943a" fill-rule="evenodd" stroke="none"/>
    <path d="M-0.45 0.25 L-0.45 -0.65 -0.35 -0.65 -0.25 -0.65 -0.25 0.05 -0.25 0.05 -0.3 0.0 Q-0.3 0.0 -0.35 0.05 L-0.35 0.0 Q-0.35 -0.05 -0.4 0.0 L-0.45 0.05 -0.45 0.25" fill="#664432" fill-rule="evenodd" stroke="none"/>
    <path d="M-0.05 -0.8 L-0.1 -0.85 -0.1 -0.85 -0.1 -0.9 -0.05 -0.9 -0.05 -0.85 -0.05 -0.8 -0.05 -0.8" fill="#cea846" fill-rule="evenodd" stroke="none"/>
    <path d="M-0.25 0.0 L-0.25 -0.65 -0.15 -0.65 -0.05 -0.65 -0.05 0.0 -0.05 0.05 -0.1 0.05 -0.15 0.05 -0.1 0.0 -0.15 0.0 -0.2 0.05 -0.25 0.0" fill="#6a4633" fill-rule="evenodd" stroke="none"/>
    <path d="M-0.75 -0.95 L-0.7 -0.95 -0.65 -0.95 -0.55 -0.95 -0.55 -0.95 -0.5 -0.9 -0.6 -0.9 -0.65 -0.9 -0.7 -0.85 -0.75 -0.85 -0.75 -0.95" fill="#b98133" fill-rule="evenodd" stroke="none"/>
    <path d="M-0.9 -1.2 Q-0.9 -1.15 -0.85 -1.15 L-0.85 -1.15 Q-0.85 -1.1 -0.9 -1.1 L-0.9 -1.1 -0.95 -1.15 -0.9 -1.15 -0.9 -1.2" fill="#615939" fill-rule="evenodd" stroke="none"/>
    <path d="M-0.9 -0.95 L-0.85 -0.95 -0.75 -0.95 -0.75 -0.85 -0.8 -0.85 -0.9 -0.9 -0.95 -0.95 -0.95 -0.95 -0.9 -0.95" fill="#8d5826" fill-rule="evenodd" stroke="none"/>
    <path d="M-1.0 -0.95 L-0.95 -0.95 -0.9 -0.9 -0.8 -0.85 -0.85 -0.85 -0.95 -0.85 -0.95 -0.9 -0.95 -0.9 -1.0 -0.95 -1.0 -0.95" fill="#cdad4d" fill-rule="evenodd" stroke="none"/>
    <path d="M-0.9 0.25 L-0.9 0.0 -0.9 -0.7 -0.9 -0.7 -0.85 -0.7 Q-0.8 -0.7 -0.8 -0.65 L-0.75 -0.7 -0.7 -0.7 -0.7 0.1 -0.75 0.15 -0.8 0.2 -0.85 0.15 -0.85 0.15 -0.9 0.2 -0.9 0.25" fill="#714e39" fill-rule="evenodd" stroke="none"/>
    <path d="M-0.7 0.05 L-0.7 -0.65 -0.6 -0.65 -0.5 -0.65 -0.5 0.35 -0.5 0.4 -0.5 0.0 -0.55 -0.05 -0.55 -0.15 -0.6 -0.1 -0.6 -0.15 -0.65 -0.1 -0.65 -0.1 -0.6 -0.05 -0.65 0.0 -0.65 0.1 -0.65 0.1 -0.7 0.05" fill="#6f4d38" fill-rule="evenodd" stroke="none"/>
    <path d="M-0.7 1.15 L-0.7 0.05 -0.65 0.1 -0.65 0.1 -0.65 0.0 -0.6 -0.05 -0.65 -0.1 -0.65 -0.1 -0.6 -0.15 -0.6 -0.1 -0.55 -0.15 -0.55 -0.05 -0.5 0.0 -0.5 0.4 -0.5 0.35 -0.45 0.3 -0.45 0.25 -0.45 0.05 -0.4 0.0 Q-0.35 -0.05 -0.35 0.0 L-0.35 0.05 Q-0.3 0.0 -0.3 0.0 L-0.25 0.05 -0.25 0.05 -0.25 1.05 -0.25 1.1 -0.25 0.55 -0.25 0.0 -0.2 0.05 -0.15 0.0 -0.1 0.0 -0.15 0.05 -0.1 0.05 -0.05 0.05 -0.05 0.0 -0.05 1.15 -0.1 1.15 -0.15 1.15 -0.2 1.15 -0.25 1.15 -0.35 1.15 -0.45 1.15 -0.45 1.15 -0.55 1.15 -0.65 1.15 -0.7 1.15" fill="#583525" fill-rule="evenodd" stroke="none"/>
    <path d="M-0.9 1.15 L-0.9 0.25 -0.9 0.2 -0.85 0.15 -0.85 0.15 -0.8 0.2 -0.75 0.15 -0.7 0.1 -0.7 1.15 -0.8 1.15 -0.9 1.15" fill="#5e3926" fill-rule="evenodd" stroke="none"/>
    <path d="M-0.9 0.15 L-0.9 1.15 -1.05 1.15 -1.15 1.15 -1.15 0.3 -1.1 0.3 -1.1 0.3 -1.05 0.3 -1.05 0.2 -1.05 0.2 -1.0 0.2 -1.0 0.15 -0.95 0.15 -0.95 0.15 -0.9 0.15" fill="#623a25" fill-rule="evenodd" stroke="none"/>
    <path d="M-0.8 1.2 L-0.9 1.2 Q-0.9 1.15 -0.85 1.15 L-0.8 1.2 -0.8 1.2" fill="#7d4c21" fill-rule="evenodd" stroke="none"/>
    <path d="M-0.9 1.15 L-0.9 1.15 -0.8 1.15 -0.7 1.15 -0.7 1.15 -0.7 1.2 -0.65 1.2 -0.6 1.15 -0.35 1.2 -0.4 1.15 -0.4 1.15 -0.45 1.15 -0.35 1.15 -0.25 1.15 -0.2 1.15 -0.15 1.15 -0.1 1.2 -0.05 1.2 0.0 1.2 -0.4 1.2 -0.8 1.2 -0.8 1.2 -0.85 1.15 Q-0.9 1.15 -0.9 1.2 L-1.05 1.2 -1.15 1.2 -1.15 1.15 -1.05 1.15 -0.9 1.15 M-0.65 1.15 L-0.7 1.15 -0.65 1.15" fill="#a26f2e" fill-rule="evenodd" stroke="none"/>
    <path d="M-0.45 1.15 L-0.4 1.15 -0.4 1.15 -0.35 1.2 -0.6 1.15 -0.65 1.2 -0.7 1.2 -0.7 1.15 -0.65 1.15 -0.55 1.15 -0.45 1.15 -0.45 1.15" fill="#e0dc8e" fill-rule="evenodd" stroke="none"/>
    <path d="M-1.35 0.1 L-1.35 0.2 -1.35 0.2 -1.35 0.1" fill="#6e4732" fill-rule="evenodd" stroke="none"/>
    <path d="M-1.25 1.0 L-1.3 1.0 -1.35 1.05 -1.35 1.05 -1.4 1.05 -1.4 1.05 -1.35 1.0 Q-1.35 1.0 -1.4 1.0 L-1.4 1.0 -1.35 0.95 -1.25 0.9 -1.25 1.0" fill="#a16e33" fill-rule="evenodd" stroke="none"/>
    <path d="M-0.5 -1.45 L-0.55 -1.45 -0.65 -1.4 -0.8 -1.3 -1.5 -0.85 -1.5 -0.4 -1.5 -0.25 -1.5 -0.25 -1.5 -0.15 -1.5 1.25 -1.5 1.25 0.55 1.25 0.65 1.25 Q0.7 1.25 0.75 1.25 L1.1 1.05 1.4 0.85 1.45 0.8 1.45 0.75 1.5 0.75 1.6 0.75 1.7 0.7 1.65 0.15 1.65 -0.05 1.65 -0.05 1.65 -0.4 1.65 -0.45 1.65 -0.9 1.65 -1.45 1.5 -1.45 1.3 -1.45 0.45 -1.45 -0.4 -1.45 -0.4 -1.45 -0.45 -1.45 -0.5 -1.45 M1.65 -0.9 L1.65 -0.9 Z" fill="none" stroke="#000000" stroke-linecap="round" stroke-linejoin="round" stroke-opacity="0.4509804" stroke-width="1.0"/>
  </g>
</svg>
