<?xml version="1.0" encoding="UTF-8" standalone="no"?>
<svg xmlns:xlink="http://www.w3.org/1999/xlink" height="5.2px" width="5.2px" xmlns="http://www.w3.org/2000/svg">
  <g transform="matrix(1.0, 0.0, 0.0, 1.0, 2.6, 2.6)">
    <path d="M1.75 -2.6 L1.7 -2.5 1.65 -2.5 1.65 -2.5 1.6 -2.45 1.5 -2.45 1.4 -2.45 1.0 -2.45 1.0 -2.45 0.95 -2.4 0.65 -2.4 0.3 -2.4 0.25 -2.4 0.05 -2.4 0.0 -2.35 -0.2 -2.35 -0.25 -2.35 -0.35 -2.35 -0.75 -2.35 -0.9 -2.35 -1.3 -2.35 -1.65 -2.4 -1.7 -2.4 -1.9 -2.4 -1.9 -2.4 -2.05 -2.4 -2.05 -2.45 -2.1 -2.45 -2.2 -2.5 -2.2 -2.5 -2.3 -2.55 -2.3 -2.55 -2.15 -2.6 1.75 -2.6 M-2.05 2.3 L-2.05 2.2 1.55 2.2 1.55 2.3 1.55 2.35 1.55 2.45 1.4 2.45 1.2 2.45 1.1 2.5 0.95 2.5 0.85 2.5 0.45 2.5 0.05 2.5 -0.3 2.5 -0.65 2.5 -0.85 2.5 -1.25 2.5 -1.65 2.5 -2.0 2.5 -2.05 2.5 -2.05 2.4 -2.05 2.3 -2.0 2.3 -2.05 2.3" fill="#f5efe8" fill-rule="evenodd" stroke="none"/>
    <path d="M-2.3 -2.55 L-2.3 -2.55 -2.2 -2.5 -2.2 -2.5 -2.1 -2.45 -2.05 -2.45 -2.05 -2.4 -1.9 -2.4 -1.9 -2.4 -1.7 -2.4 -1.65 -2.4 -1.3 -2.35 -0.9 -2.35 -0.75 -2.35 -0.35 -2.35 -0.25 -2.35 -0.2 -2.35 0.0 -2.35 0.05 -2.4 0.25 -2.4 0.3 -2.4 0.65 -2.4 0.95 -2.4 1.0 -2.45 1.0 -2.45 1.4 -2.45 1.5 -2.45 1.6 -2.45 1.65 -2.5 1.65 -2.5 1.7 -2.5 1.75 -2.6 2.15 -2.6 Q2.5 -2.6 2.55 -2.3 L-2.6 -2.3 Q-2.55 -2.5 -2.3 -2.55 M2.55 2.3 Q2.5 2.6 2.15 2.6 L-2.15 2.6 Q-2.5 2.6 -2.6 2.3 L-2.15 2.3 -2.05 2.3 -2.0 2.3 -2.05 2.3 -2.05 2.4 -2.05 2.5 -2.0 2.5 -1.65 2.5 -1.25 2.5 -0.85 2.5 -0.65 2.5 -0.3 2.5 0.05 2.5 0.45 2.5 0.85 2.5 0.95 2.5 1.1 2.5 1.2 2.45 1.4 2.45 1.55 2.45 1.55 2.35 1.55 2.3 2.15 2.3 2.55 2.3" fill="#cdc8c2" fill-rule="evenodd" stroke="none"/>
    <path d="M-2.6 -2.3 L2.55 -2.3 2.6 -2.15 2.6 -0.45 2.55 -0.4 2.55 -0.35 2.55 -0.3 2.55 -0.2 2.5 -0.15 2.5 -0.1 2.45 -0.05 2.45 0.05 2.4 0.1 2.4 0.2 2.3 0.3 2.3 -0.5 2.3 -1.05 2.35 -1.45 2.35 -2.0 2.25 -2.1 2.25 -2.1 2.2 -2.05 2.2 -2.05 2.2 -2.15 2.15 -2.2 -2.15 -2.2 -2.15 -2.15 -2.2 -2.15 -2.2 2.15 -2.15 2.2 -2.05 2.2 -2.05 2.3 -2.15 2.3 Q-2.3 2.25 -2.3 2.15 L-2.3 0.3 -2.3 0.3 -2.4 0.2 -2.45 0.15 -2.5 0.1 -2.5 0.05 -2.55 -0.05 -2.6 -0.1 -2.6 -2.3 M1.55 2.3 L1.55 2.2 2.1 2.2 2.15 2.25 2.2 2.25 2.15 2.3 1.55 2.3" fill="#d4d4d4" fill-opacity="0.5686275" fill-rule="evenodd" stroke="none"/>
    <path d="M2.2 -2.05 L2.2 -2.05 2.25 -2.1 2.25 -2.1 2.35 -2.0 2.35 -1.45 2.3 -1.05 2.3 -0.5 2.3 0.3 2.4 0.2 2.4 0.1 2.45 0.05 2.45 -0.05 2.5 -0.1 2.5 -0.15 2.55 -0.2 2.55 -0.3 2.55 -0.35 2.55 -0.4 2.6 -0.45 2.6 2.15 2.55 2.3 2.15 2.3 2.2 2.25 2.15 2.25 2.1 2.2 2.15 2.2 2.2 2.15 2.2 -2.05 M-2.6 2.3 L-2.6 -0.1 -2.55 -0.05 -2.5 0.05 -2.5 0.1 -2.45 0.15 -2.4 0.2 -2.3 0.3 -2.3 0.3 -2.3 2.15 Q-2.3 2.25 -2.15 2.3 L-2.6 2.3" fill="#989898" fill-opacity="0.5686275" fill-rule="evenodd" stroke="none"/>
    <path d="M-2.15 -2.2 L2.15 -2.2 2.2 -2.15 2.2 -2.05 2.2 2.15 2.15 2.2 2.1 2.2 1.55 2.2 -2.05 2.2 -2.15 2.2 -2.2 2.15 -2.2 -2.15 -2.15 -2.15 -2.15 -2.2" fill="url(#gradient0)" fill-rule="evenodd" stroke="none"/>
    <path d="M1.75 -2.6 L-2.15 -2.6 -2.3 -2.55 Q-2.55 -2.5 -2.6 -2.3 L-2.6 -0.1 -2.6 2.3 Q-2.5 2.6 -2.15 2.6 L2.15 2.6 Q2.5 2.6 2.55 2.3 L2.6 2.15 2.6 -0.45 2.6 -2.15 2.55 -2.3 Q2.5 -2.6 2.15 -2.6 L1.75 -2.6 M-2.15 -2.2 L2.15 -2.2 2.2 -2.15 2.2 -2.05 2.2 2.15 2.15 2.2 2.1 2.2 1.55 2.2 M-2.05 2.2 L-2.15 2.2 -2.2 2.15 -2.2 -2.15" fill="none" stroke="#000000" stroke-linecap="round" stroke-linejoin="round" stroke-opacity="0.4" stroke-width="1.0"/>
    <path d="M1.55 2.2 L-2.05 2.2" fill="none" stroke="#000000" stroke-linecap="round" stroke-linejoin="round" stroke-opacity="0.4509804" stroke-width="1.0"/>
    <path d="M1.55 -1.9 L1.55 -1.9 1.5 -1.95 1.5 -1.9 1.55 -1.9 M1.45 -1.95 L1.55 -1.95 1.6 -1.9 1.55 -1.85 1.5 -1.8 1.45 -1.8 1.45 -1.85 1.45 -1.95 M1.45 -1.85 L1.45 -1.85" fill="#a8865d" fill-rule="evenodd" stroke="none"/>
    <path d="M1.55 -1.9 L1.5 -1.9 1.5 -1.95 1.55 -1.9 1.55 -1.9" fill="#dbcaaf" fill-rule="evenodd" stroke="none"/>
    <path d="M1.0 -1.95 L1.15 -1.95 1.3 -1.95 1.25 -1.95 1.2 -1.9 1.3 -1.85 1.2 -1.85 1.2 -1.8 1.15 -1.85 1.15 -1.8 1.15 -1.85 1.1 -1.8 1.05 -1.8 1.0 -1.8 1.05 -1.85 1.1 -1.85 1.1 -1.9 1.05 -1.95 1.0 -1.9 0.95 -1.9 1.0 -1.95" fill="#ad703c" fill-rule="evenodd" stroke="none"/>
    <path d="M0.85 -1.95 L0.85 -1.95 Q0.9 -1.9 0.9 -1.9 L1.0 -1.95 1.0 -1.95 0.95 -1.9 1.0 -1.9 1.05 -1.95 1.1 -1.9 1.1 -1.85 0.95 -1.85 0.8 -1.85 0.85 -1.9 0.9 -1.9 0.85 -1.9 0.85 -1.95" fill="#c3944c" fill-rule="evenodd" stroke="none"/>
    <path d="M1.3 -1.95 L1.4 -1.95 1.35 -1.95 1.3 -1.9 1.3 -1.85 1.2 -1.9 1.25 -1.95 1.3 -1.95 M1.2 -1.85 L1.3 -1.85 1.25 -1.8 1.25 -1.85 1.2 -1.85 M1.35 -1.85 L1.3 -1.85 1.3 -1.85 1.35 -1.85 1.35 -1.85" fill="#c98e57" fill-rule="evenodd" stroke="none"/>
    <path d="M1.45 -1.85 L1.45 -1.85 1.35 -1.85 1.3 -1.85 1.3 -1.9 1.4 -1.9 1.45 -1.85" fill="#f6dfa7" fill-rule="evenodd" stroke="none"/>
    <path d="M1.45 -1.85 L1.45 -1.8 1.4 -1.8 1.4 -1.85 1.4 -1.8 1.4 -1.8 1.35 -1.8 1.35 -1.85 1.3 -1.85 1.3 -1.85 1.35 -1.85 1.45 -1.85" fill="#e8c06a" fill-rule="evenodd" stroke="none"/>
    <path d="M1.45 -1.95 L1.45 -1.85 1.4 -1.9 1.3 -1.9 1.35 -1.95 1.4 -1.95 1.45 -1.95" fill="#dcb684" fill-rule="evenodd" stroke="none"/>
    <path d="M1.45 -1.8 L1.5 -1.8 1.45 -1.75 1.35 -1.75 1.25 -1.65 1.25 -1.65 1.3 -1.75 1.3 -1.75 1.25 -1.75 1.0 -1.8 1.05 -1.8 1.1 -1.8 1.1 -1.8 1.15 -1.8 1.15 -1.8 1.15 -1.85 1.2 -1.8 Q1.2 -1.8 1.25 -1.8 L1.25 -1.85 1.25 -1.8 1.3 -1.85 1.35 -1.85 1.35 -1.8 1.4 -1.8 1.4 -1.8 1.45 -1.8 M1.1 -1.85 L1.05 -1.85 1.0 -1.8 0.85 -1.8 0.75 -1.8 0.7 -1.8 0.7 -1.85 0.8 -1.85 0.95 -1.85 1.1 -1.85 M1.5 -1.8 L1.5 -1.8 M0.7 -1.85 L0.7 -1.85" fill="#5a3f25" fill-rule="evenodd" stroke="none"/>
    <path d="M1.35 -1.8 L1.35 -1.85 1.35 -1.8 M1.35 -1.85 L1.35 -1.85" fill="#fef6b9" fill-rule="evenodd" stroke="none"/>
    <path d="M1.25 -1.75 L1.3 -1.75 1.3 -1.75 1.25 -1.65 1.25 -1.65 1.35 -1.75 1.45 -1.75 1.45 -1.7 1.4 -1.65 1.35 -1.6 1.3 -1.6 1.25 -1.55 1.2 -1.5 1.1 -1.55 1.0 -1.5 0.9 -1.45 0.75 -1.45 0.7 -1.45 0.75 -1.5 0.75 -1.5 0.65 -1.55 0.55 -1.55 0.6 -1.6 0.55 -1.65 0.6 -1.7 Q0.65 -1.7 0.6 -1.75 L0.55 -1.7 Q0.5 -1.75 0.55 -1.75 L0.75 -1.75 0.75 -1.75 0.8 -1.75 0.8 -1.75 0.75 -1.7 0.8 -1.65 0.85 -1.6 1.05 -1.65 Q1.2 -1.7 1.25 -1.75 M0.75 -1.45 L0.75 -1.45 M1.3 -1.6 L1.3 -1.6 1.3 -1.6" fill="#705f36" fill-rule="evenodd" stroke="none"/>
    <path d="M1.3 -1.6 L1.3 -1.6 Q1.35 -1.55 1.4 -1.55 L1.45 -1.55 1.45 -1.5 1.35 -1.55 1.25 -1.5 1.25 -1.45 1.25 -1.4 1.2 -1.45 1.3 -1.6" fill="#8a6835" fill-rule="evenodd" stroke="none"/>
    <path d="M1.3 -1.6 L1.3 -1.6 1.35 -1.6 1.4 -1.6 1.35 -1.6 1.4 -1.65 1.45 -1.7 1.45 -1.6 1.45 -1.55 1.4 -1.55 Q1.35 -1.55 1.3 -1.6" fill="#aa7e3d" fill-rule="evenodd" stroke="none"/>
    <path d="M1.3 -1.6 L1.35 -1.6 1.4 -1.6 1.35 -1.6 1.3 -1.6" fill="#231b0b" fill-rule="evenodd" stroke="none"/>
    <path d="M1.45 -1.55 L1.45 -1.6 1.5 -1.45 1.5 -1.3 1.45 -1.4 1.45 -1.5 1.45 -1.55" fill="#3b2716" fill-rule="evenodd" stroke="none"/>
    <path d="M1.45 -1.7 L1.45 -1.75 1.5 -1.8 1.55 -1.75 1.55 -1.15 1.55 -0.95 1.55 -0.9 1.55 -0.85 1.55 -0.75 1.55 -0.5 1.55 -0.45 1.55 -0.3 1.55 -0.25 1.55 0.0 1.55 0.05 1.55 0.2 1.55 0.3 1.55 0.45 1.55 0.7 1.55 0.85 1.55 0.9 1.55 1.05 1.55 1.1 1.55 1.3 1.55 1.5 1.55 1.6 1.55 1.8 1.5 1.85 1.35 1.85 1.25 1.85 1.1 1.85 0.4 1.85 -0.3 1.85 -0.35 1.85 -0.6 1.85 -0.95 1.85 -1.0 1.85 -1.05 1.85 -1.25 1.85 -1.4 1.85 -1.45 1.8 -0.85 1.8 -0.2 1.8 -0.2 1.8 -0.05 1.8 0.1 1.8 0.25 1.8 0.3 1.8 0.45 1.8 0.65 1.8 0.7 1.8 1.1 1.8 1.45 1.8 1.5 1.7 1.5 1.6 1.5 1.5 1.45 1.4 1.5 1.35 1.5 1.3 1.5 1.25 1.45 1.2 1.5 1.05 1.5 0.8 1.5 0.55 1.45 0.45 1.45 0.4 1.5 0.35 1.45 0.25 1.45 0.2 1.5 0.2 1.5 -0.05 1.5 -0.45 1.5 -0.5 1.45 -0.55 1.45 -0.6 1.45 -0.75 1.45 -0.75 1.5 -0.85 1.45 -0.9 1.45 -1.05 1.5 -1.15 1.5 -1.3 1.5 -1.3 1.5 -1.45 1.45 -1.6 1.45 -1.7" fill="#0f0b07" fill-rule="evenodd" stroke="none"/>
    <path d="M1.2 -1.8 L1.2 -1.85 1.25 -1.85 1.25 -1.8 Q1.2 -1.8 1.2 -1.8" fill="#fbe5b8" fill-rule="evenodd" stroke="none"/>
    <path d="M1.1 -1.8 L1.15 -1.85 1.15 -1.8 1.15 -1.8 1.1 -1.8" fill="#f9dcae" fill-rule="evenodd" stroke="none"/>
    <path d="M1.05 -1.8 L1.1 -1.8 1.1 -1.8 1.05 -1.8" fill="#e9b05a" fill-rule="evenodd" stroke="none"/>
    <path d="M1.25 -1.75 Q1.2 -1.7 1.05 -1.65 L0.85 -1.6 0.8 -1.65 0.75 -1.7 0.8 -1.75 0.8 -1.75 0.85 -1.75 1.0 -1.8 1.25 -1.75" fill="#9f783c" fill-rule="evenodd" stroke="none"/>
    <path d="M0.75 -1.45 L0.9 -1.45 1.0 -1.5 1.1 -1.55 1.2 -1.5 1.15 -1.45 1.1 -1.45 1.05 -1.4 1.05 -1.4 1.0 -1.4 0.95 -1.4 0.9 -1.4 Q0.9 -1.35 0.85 -1.35 L0.9 -1.4 0.85 -1.4 Q0.85 -1.45 0.75 -1.45" fill="#83773e" fill-rule="evenodd" stroke="none"/>
    <path d="M1.2 -1.5 L1.25 -1.55 1.3 -1.6 1.2 -1.45 1.15 -1.35 1.1 -1.25 1.1 -1.35 1.15 -1.45 1.2 -1.5" fill="#150f06" fill-rule="evenodd" stroke="none"/>
    <path d="M1.25 -1.45 L1.25 -1.5 1.35 -1.55 1.45 -1.5 1.45 -1.4 1.5 -1.3 1.45 -1.2 1.45 -1.15 1.4 -1.15 1.35 -1.2 1.3 -1.2 Q1.25 -1.25 1.25 -1.25 1.25 -1.3 1.25 -1.35 L1.3 -1.35 1.3 -1.35 1.25 -1.4 1.25 -1.45 M1.5 -1.3 L1.5 -1.3" fill="#b9843f" fill-rule="evenodd" stroke="none"/>
    <path d="M1.25 -1.45 L1.25 -1.4 1.3 -1.35 1.3 -1.35 1.25 -1.35 Q1.25 -1.3 1.25 -1.25 1.25 -1.25 1.3 -1.2 L1.35 -1.2 1.4 -1.15 1.45 -1.15 1.5 -1.15 1.45 -1.05 1.45 -0.9 1.45 -0.75 1.45 -0.7 1.4 -0.7 1.4 -0.7 1.35 -0.75 Q1.3 -0.8 1.35 -0.85 L1.3 -0.9 1.25 -0.85 1.25 -0.85 1.2 -0.9 1.15 -0.9 1.05 -0.9 1.1 -0.9 1.15 -0.9 Q1.2 -1.0 1.15 -1.05 L1.0 -1.15 1.0 -1.05 0.95 -1.0 Q0.9 -1.0 0.9 -1.05 L0.9 -1.1 0.95 -1.15 1.0 -1.2 1.0 -1.25 1.05 -1.4 1.1 -1.45 1.15 -1.45 1.1 -1.35 1.1 -1.25 1.15 -1.35 1.2 -1.45 1.25 -1.4 1.25 -1.45 M1.45 -0.75 L1.45 -0.75" fill="#aa6f38" fill-rule="evenodd" stroke="none"/>
    <path d="M1.05 -1.4 L1.0 -1.25 1.0 -1.35 1.05 -1.4 1.05 -1.4" fill="#100b03" fill-rule="evenodd" stroke="none"/>
    <path d="M1.5 -1.8 L1.55 -1.85 1.6 -1.9 1.65 -1.85 1.65 -1.8 1.6 -1.75 1.55 -1.75 1.5 -1.8 1.5 -1.8" fill="#deb574" fill-rule="evenodd" stroke="none"/>
    <path d="M1.65 -1.8 L1.65 -1.35 Q1.6 -1.35 1.6 -1.3 L1.55 -1.25 1.55 -1.15 1.55 -1.75 1.6 -1.75 1.65 -1.8" fill="#a28059" fill-rule="evenodd" stroke="none"/>
    <path d="M1.65 -1.3 L1.65 -1.15 Q1.6 -1.1 1.6 -1.15 L1.6 -1.3 1.65 -1.3" fill="#ecd3a3" fill-rule="evenodd" stroke="none"/>
    <path d="M1.65 -1.35 L1.65 -1.3 1.6 -1.3 1.6 -1.15 Q1.6 -1.1 1.65 -1.15 L1.65 -1.05 Q1.6 -1.1 1.55 -1.05 L1.55 -0.95 1.55 -1.15 1.55 -1.25 1.6 -1.3 Q1.6 -1.35 1.65 -1.35" fill="#d5b378" fill-rule="evenodd" stroke="none"/>
    <path d="M0.5 -1.85 L0.45 -1.9 0.45 -1.95 0.5 -1.9 0.55 -1.85 0.55 -1.85 0.5 -1.85 0.5 -1.85" fill="#cc9f5b" fill-rule="evenodd" stroke="none"/>
    <path d="M-0.2 -1.95 L0.25 -1.95 0.75 -1.95 0.75 -1.85 Q0.7 -1.9 0.65 -1.9 L0.6 -1.9 0.6 -1.85 0.55 -1.85 0.5 -1.9 0.45 -1.95 0.45 -1.9 0.5 -1.85 0.4 -1.85 0.35 -1.85 0.2 -1.85 0.1 -1.85 0.05 -1.85 -0.05 -1.85 -0.15 -1.85 -0.15 -1.9 -0.2 -1.9 -0.2 -1.95 M-0.15 -1.85 L-0.15 -1.85" fill="#9d7a49" fill-rule="evenodd" stroke="none"/>
    <path d="M0.5 -1.85 L0.55 -1.85 0.55 -1.85 0.6 -1.85 0.6 -1.9 0.65 -1.9 0.65 -1.85 0.5 -1.85" fill="#efcb7f" fill-rule="evenodd" stroke="none"/>
    <path d="M0.6 -1.9 L0.65 -1.9 Q0.7 -1.9 0.75 -1.85 L0.7 -1.85 0.7 -1.85 0.65 -1.85 0.65 -1.9 0.6 -1.9" fill="#b9905f" fill-rule="evenodd" stroke="none"/>
    <path d="M0.75 -1.95 L0.8 -1.95 0.85 -1.95 0.85 -1.9 0.9 -1.9 0.85 -1.9 0.8 -1.85 0.7 -1.85 0.75 -1.85 0.75 -1.95" fill="#eec973" fill-rule="evenodd" stroke="none"/>
    <path d="M0.85 -1.95 L0.9 -1.95 1.0 -1.95 0.9 -1.9 Q0.9 -1.9 0.85 -1.95" fill="#91663e" fill-rule="evenodd" stroke="none"/>
    <path d="M-1.55 -1.0 L-1.55 -1.15 -1.45 -1.1 Q-1.4 -1.1 -1.45 -1.15 L-1.45 -1.2 -1.45 -1.35 -1.45 -1.4 -1.45 -1.45 -1.45 -1.6 -1.45 -1.8 -1.35 -1.8 Q-1.3 -1.8 -1.25 -1.85 L-1.05 -1.85 -0.8 -1.85 Q-0.8 -1.8 -0.75 -1.8 L-0.7 -1.8 -0.5 -1.8 -0.35 -1.8 -0.2 -1.8 Q-0.15 -1.8 -0.15 -1.85 L-0.05 -1.85 0.05 -1.85 Q0.1 -1.8 0.2 -1.8 L0.25 -1.8 0.35 -1.8 0.35 -1.85 0.4 -1.85 0.5 -1.85 0.5 -1.85 0.65 -1.85 0.7 -1.85 0.7 -1.8 0.75 -1.8 0.85 -1.8 1.0 -1.8 0.85 -1.75 0.8 -1.75 0.75 -1.75 0.75 -1.75 0.55 -1.75 0.2 -1.75 -0.3 -1.75 -0.5 -1.75 -0.85 -1.75 -0.9 -1.75 -1.1 -1.75 -1.25 -1.75 -1.4 -1.75 -1.4 -1.35 -1.4 -1.05 -1.4 -0.95 -1.45 -0.95 -1.45 -1.05 -1.5 -1.05 -1.55 -1.0" fill="#2a2113" fill-rule="evenodd" stroke="none"/>
    <path d="M0.75 -1.45 L0.75 -1.45 Q0.85 -1.45 0.85 -1.4 L0.85 -1.35 0.8 -1.4 0.8 -1.35 Q0.8 -1.4 0.75 -1.35 L0.75 -1.35 Q0.7 -1.35 0.7 -1.4 L0.7 -1.4 Q0.6 -1.3 0.6 -1.25 L0.65 -1.25 0.6 -1.2 0.6 -1.2 0.55 -1.2 0.5 -1.2 Q0.6 -1.3 0.6 -1.4 L0.55 -1.35 0.55 -1.25 0.5 -1.3 0.45 -1.3 0.5 -1.35 0.5 -1.4 0.45 -1.35 0.45 -1.35 0.4 -1.35 0.4 -1.4 0.45 -1.4 0.35 -1.35 Q0.3 -1.3 0.35 -1.25 L0.35 -1.2 0.3 -1.25 0.25 -1.2 Q0.25 -1.2 0.25 -1.25 L0.3 -1.3 0.3 -1.4 0.25 -1.35 0.2 -1.3 0.2 -1.35 0.15 -1.35 0.1 -1.3 0.15 -1.35 0.05 -1.25 0.05 -1.3 0.0 -1.35 -0.05 -1.35 -0.1 -1.4 -0.05 -1.5 0.0 -1.6 0.0 -1.6 -0.05 -1.6 0.0 -1.6 -0.1 -1.45 -0.2 -1.35 -0.25 -1.35 -0.1 -1.6 -0.25 -1.45 -0.3 -1.2 -0.45 -1.15 -0.6 -1.1 -0.6 -1.15 -0.55 -1.15 -0.55 -1.2 -0.6 -1.2 -0.55 -1.3 -0.55 -1.25 -0.5 -1.2 -0.5 -1.3 -0.45 -1.35 -0.4 -1.4 -0.4 -1.35 -0.45 -1.35 -0.45 -1.4 -0.5 -1.4 -0.5 -1.4 -0.4 -1.6 -0.45 -1.55 -0.45 -1.6 -0.5 -1.6 -0.5 -1.6 -0.55 -1.65 -0.55 -1.65 -0.5 -1.7 Q-0.5 -1.65 -0.5 -1.7 L-0.45 -1.75 -0.45 -1.65 Q-0.4 -1.65 -0.4 -1.65 L-0.35 -1.7 -0.3 -1.75 0.2 -1.75 0.25 -1.75 0.35 -1.75 0.45 -1.75 0.5 -1.7 0.4 -1.7 Q0.35 -1.7 0.35 -1.65 0.35 -1.65 0.45 -1.65 L0.5 -1.65 0.55 -1.6 0.45 -1.6 0.3 -1.6 0.3 -1.55 0.4 -1.55 0.45 -1.5 0.55 -1.55 0.6 -1.5 0.35 -1.5 0.35 -1.45 0.4 -1.45 0.6 -1.45 0.75 -1.45 M-0.55 -1.3 L-0.55 -1.3 M-0.3 -1.2 L-0.3 -1.2 M0.05 -1.6 L0.1 -1.6 0.1 -1.6 0.05 -1.6 0.05 -1.6 M-0.3 -1.6 L-0.35 -1.6 -0.35 -1.6 -0.3 -1.6 -0.3 -1.6 M-0.3 -1.45 L-0.3 -1.5 -0.3 -1.45 -0.3 -1.45 M-0.4 -1.3 L-0.4 -1.25 -0.35 -1.3 -0.35 -1.4 -0.4 -1.3" fill="#b9843d" fill-rule="evenodd" stroke="none"/>
    <path d="M0.55 -1.75 Q0.5 -1.75 0.55 -1.7 L0.6 -1.75 Q0.65 -1.7 0.6 -1.7 L0.55 -1.65 0.6 -1.6 0.55 -1.55 0.65 -1.55 0.75 -1.5 0.75 -1.5 0.7 -1.45 0.75 -1.45 0.6 -1.45 0.4 -1.45 0.35 -1.45 0.35 -1.5 0.6 -1.5 0.55 -1.55 0.45 -1.5 0.4 -1.55 0.3 -1.55 0.3 -1.6 0.45 -1.6 0.55 -1.6 0.5 -1.65 0.45 -1.65 Q0.35 -1.65 0.35 -1.65 0.35 -1.7 0.4 -1.7 L0.5 -1.7 0.45 -1.75 0.35 -1.75 0.25 -1.75 0.2 -1.75 0.55 -1.75" fill="#8a723a" fill-rule="evenodd" stroke="none"/>
    <path d="M0.35 -1.85 L0.35 -1.8 0.25 -1.8 0.2 -1.8 Q0.1 -1.8 0.05 -1.85 L0.1 -1.85 0.2 -1.85 0.35 -1.85" fill="#4c3725" fill-rule="evenodd" stroke="none"/>
    <path d="M0.05 -1.6 L0.05 -1.6 0.1 -1.6 0.1 -1.6 0.05 -1.6" fill="#1b1206" fill-rule="evenodd" stroke="none"/>
    <path d="M-0.6 -1.2 L-0.55 -1.2 -0.55 -1.15 -0.6 -1.15 -0.6 -1.1 -0.45 -1.15 -0.3 -1.2 -0.25 -1.25 -0.2 -1.25 -0.15 -1.3 -0.1 -1.3 0.0 -1.35 0.05 -1.3 0.05 -1.25 0.05 -1.2 0.05 -1.05 Q0.05 -0.95 -0.05 -0.95 L0.0 -1.0 -0.1 -0.9 -0.15 -0.8 -0.1 -0.85 -0.05 -0.9 0.05 -0.9 0.0 -0.85 0.0 -0.8 0.05 -0.85 0.1 -0.85 0.05 -0.8 Q0.05 -0.8 0.1 -0.8 L0.15 -0.8 0.15 -0.85 0.2 -0.85 0.2 -0.85 0.2 -0.8 0.25 -0.85 0.25 -0.9 0.25 -0.9 0.3 -0.9 0.25 -0.85 0.25 -0.8 0.3 -0.75 0.35 -0.8 0.4 -0.9 0.45 -0.9 0.55 -0.9 0.6 -0.9 0.55 -0.8 0.65 -0.9 0.7 -0.9 0.7 -0.9 0.65 -0.85 0.65 -0.85 0.7 -0.9 0.7 -0.8 0.75 -0.9 0.8 -0.85 0.85 -0.9 0.85 -0.9 0.8 -0.8 0.85 -0.85 0.85 -0.85 0.85 -0.8 Q0.85 -0.75 0.9 -0.8 L0.95 -0.8 1.05 -0.65 0.95 -0.55 0.85 -0.45 0.7 -0.45 0.6 -0.45 0.6 -0.4 0.6 -0.35 0.65 -0.35 0.65 -0.35 0.7 -0.4 0.75 -0.4 0.8 -0.4 0.8 -0.45 0.85 -0.4 0.9 -0.4 0.95 -0.45 Q0.95 -0.5 1.0 -0.5 L0.95 -0.4 0.9 -0.3 Q0.9 -0.25 0.95 -0.25 L1.0 -0.2 0.9 -0.2 Q0.85 -0.2 0.85 -0.2 L0.85 -0.25 0.85 -0.35 0.8 -0.35 0.8 -0.25 0.75 -0.3 0.7 -0.3 0.6 -0.15 0.6 -0.1 0.65 -0.1 Q0.6 -0.1 0.6 0.0 L0.6 0.1 0.55 0.1 0.5 0.15 0.55 0.15 0.55 0.2 0.5 0.2 0.5 0.15 0.45 0.1 0.4 0.1 0.3 0.1 0.25 0.05 0.25 -0.05 0.2 0.0 0.2 0.1 0.15 0.15 Q0.1 0.2 0.05 0.2 L0.05 0.15 0.1 0.1 0.0 0.05 Q-0.05 0.05 -0.1 0.1 L-0.2 0.1 Q-0.25 0.05 -0.25 0.0 L-0.2 -0.05 -0.25 -0.1 -0.3 -0.1 -0.3 -0.15 -0.25 -0.2 -0.2 -0.25 -0.15 -0.3 -0.1 -0.3 -0.05 -0.35 0.0 -0.4 0.0 -0.35 0.05 -0.4 0.05 -0.4 Q0.05 -0.35 0.05 -0.35 L0.1 -0.45 0.15 -0.45 0.2 -0.4 0.25 -0.35 0.25 -0.4 0.3 -0.4 0.35 -0.4 0.35 -0.4 0.4 -0.4 Q0.4 -0.35 0.4 -0.35 L0.45 -0.4 Q0.45 -0.35 0.45 -0.35 L0.5 -0.4 0.5 -0.45 0.45 -0.4 0.5 -0.45 0.55 -0.55 0.55 -0.6 Q0.4 -0.6 0.3 -0.65 L0.2 -0.6 0.1 -0.6 0.1 -0.6 0.05 -0.6 0.05 -0.55 0.0 -0.55 -0.05 -0.55 -0.05 -0.55 -0.1 -0.6 -0.2 -0.6 -0.3 -0.6 -0.4 -0.6 -0.45 -0.65 -0.5 -0.65 -0.6 -0.6 -0.65 -0.6 -0.7 -0.6 -0.75 -0.55 Q-0.75 -0.5 -0.8 -0.5 L-0.85 -0.6 -0.85 -0.7 -0.85 -0.75 -0.8 -0.85 -0.8 -0.9 -0.75 -0.85 -0.75 -0.8 Q-0.75 -0.75 -0.7 -0.7 -0.7 -0.7 -0.65 -0.75 L-0.6 -0.75 Q-0.6 -0.75 -0.6 -0.8 L-0.6 -0.8 -0.55 -0.95 -0.45 -0.95 -0.35 -0.9 -0.4 -0.8 -0.45 -0.7 -0.35 -0.85 -0.3 -1.0 -0.25 -1.0 -0.3 -1.0 -0.3 -1.0 -0.35 -0.95 -0.5 -0.95 -0.55 -1.0 -0.55 -1.05 -0.6 -1.05 -0.65 -1.1 -0.75 -1.15 -0.7 -1.2 -0.65 -1.25 -0.6 -1.2 M0.55 -0.8 L0.55 -0.75 0.5 -0.7 0.55 -0.75 0.55 -0.8 M0.55 -0.9 L0.5 -0.85 0.5 -0.8 0.55 -0.85 0.55 -0.9 M0.3 -0.75 Q0.25 -0.75 0.3 -0.7 L0.3 -0.75 M0.8 -0.85 L0.75 -0.8 0.75 -0.8 0.8 -0.8 0.8 -0.85 M0.0 -0.4 L0.0 -0.4 M-0.1 0.1 L-0.1 0.1 M0.85 -0.4 L0.85 -0.4 M0.8 -0.4 L0.75 -0.35 0.8 -0.35 0.8 -0.4 M0.8 -0.55 L0.8 -0.6 0.75 -0.65 0.75 -0.55 Q0.75 -0.55 0.8 -0.55 M0.5 -0.35 L0.55 -0.4 0.55 -0.45 0.5 -0.35 M-0.25 -0.85 L-0.25 -0.8 -0.2 -0.85 Q-0.2 -0.9 -0.2 -0.9 L-0.25 -0.85 M-0.35 -0.8 L-0.3 -0.85 -0.3 -0.85 -0.35 -0.8 M-0.05 -0.9 L-0.05 -0.8 -0.05 -0.9 M-0.2 -0.8 L-0.15 -0.85 Q-0.1 -0.9 -0.15 -0.9 L-0.2 -0.85 -0.2 -0.8 -0.25 -0.7 -0.2 -0.75 -0.2 -0.8 M-0.6 -0.6 L-0.6 -0.6" fill="#c79246" fill-rule="evenodd" stroke="none"/>
    <path d="M0.05 -1.25 L0.15 -1.35 0.1 -1.3 0.1 -1.25 Q0.05 -1.2 0.05 -1.2 L0.05 -1.25" fill="#1a1206" fill-rule="evenodd" stroke="none"/>
    <path d="M1.0 -1.2 L0.95 -1.15 0.9 -1.1 0.9 -1.05 Q0.9 -1.0 0.95 -1.0 L1.0 -1.05 1.0 -1.15 1.15 -1.05 Q1.2 -1.0 1.15 -0.9 L1.1 -0.9 1.05 -0.9 1.15 -0.9 1.2 -0.9 1.2 -0.75 1.15 -0.7 1.05 -0.75 1.0 -0.85 1.0 -0.9 0.9 -0.9 0.85 -0.9 0.8 -0.85 0.8 -0.9 0.75 -0.9 0.7 -0.95 0.5 -0.95 0.4 -0.95 0.3 -0.95 0.25 -0.95 0.15 -0.95 0.1 -0.95 0.1 -0.95 0.05 -0.95 0.05 -0.9 -0.05 -0.9 -0.05 -0.95 Q0.05 -0.95 0.05 -1.05 L0.05 -1.2 Q0.05 -1.2 0.1 -1.25 L0.1 -1.3 0.15 -1.35 0.2 -1.35 0.15 -1.3 0.15 -1.2 0.2 -1.25 0.2 -1.3 0.25 -1.35 0.3 -1.4 0.25 -1.3 0.25 -1.25 Q0.25 -1.2 0.25 -1.2 L0.3 -1.25 0.35 -1.2 0.35 -1.25 0.35 -1.3 0.4 -1.35 0.45 -1.35 0.4 -1.25 0.45 -1.25 0.45 -1.3 0.5 -1.3 0.55 -1.25 0.5 -1.25 Q0.5 -1.2 0.5 -1.2 L0.55 -1.2 0.6 -1.2 0.6 -1.2 0.65 -1.25 0.65 -1.3 0.7 -1.4 0.7 -1.4 Q0.7 -1.35 0.75 -1.35 L0.75 -1.35 0.7 -1.3 0.7 -1.25 0.75 -1.3 0.8 -1.35 0.8 -1.4 0.85 -1.35 0.8 -1.3 0.8 -1.25 0.85 -1.35 Q0.9 -1.35 0.9 -1.4 L0.95 -1.4 0.9 -1.25 0.95 -1.3 1.0 -1.4 1.05 -1.4 1.0 -1.35 0.95 -1.3 0.95 -1.25 1.0 -1.25 1.0 -1.2 M1.0 -0.9 L1.0 -0.9" fill="#c58c41" fill-rule="evenodd" stroke="none"/>
    <path d="M0.2 -1.35 L0.2 -1.3 0.2 -1.25 0.15 -1.2 0.15 -1.3 0.2 -1.35" fill="#1c1306" fill-rule="evenodd" stroke="none"/>
    <path d="M0.3 -1.4 L0.3 -1.3 0.25 -1.25 0.25 -1.3 0.3 -1.4" fill="#1b1207" fill-rule="evenodd" stroke="none"/>
    <path d="M0.35 -1.25 Q0.3 -1.3 0.35 -1.35 L0.45 -1.4 0.4 -1.4 0.4 -1.35 0.35 -1.3 0.35 -1.25" fill="#241709" fill-rule="evenodd" stroke="none"/>
    <path d="M0.45 -1.35 L0.45 -1.35 0.5 -1.4 0.5 -1.35 0.45 -1.3 0.45 -1.25 0.4 -1.25 0.45 -1.35" fill="#1d1307" fill-rule="evenodd" stroke="none"/>
    <path d="M0.55 -1.25 L0.55 -1.35 0.6 -1.4 Q0.6 -1.3 0.5 -1.2 0.5 -1.2 0.5 -1.25 L0.55 -1.25" fill="#201207" fill-rule="evenodd" stroke="none"/>
    <path d="M0.65 -1.25 L0.6 -1.25 Q0.6 -1.3 0.7 -1.4 L0.65 -1.3 0.65 -1.25 M-0.05 -0.45 L-0.1 -0.4 Q-0.1 -0.35 -0.1 -0.4 L-0.05 -0.45" fill="#191005" fill-rule="evenodd" stroke="none"/>
    <path d="M0.85 -1.35 L0.85 -1.4 0.9 -1.4 0.85 -1.35 0.8 -1.25 0.8 -1.3 0.85 -1.35" fill="#201508" fill-rule="evenodd" stroke="none"/>
    <path d="M0.75 -1.35 Q0.8 -1.4 0.8 -1.35 L0.75 -1.3 0.7 -1.25 0.7 -1.3 0.75 -1.35" fill="#231709" fill-rule="evenodd" stroke="none"/>
    <path d="M1.0 -1.25 L1.0 -1.2 1.0 -1.25 0.95 -1.25 0.95 -1.3 1.0 -1.35 1.0 -1.25" fill="#754f23" fill-rule="evenodd" stroke="none"/>
    <path d="M0.95 -1.4 L1.0 -1.4 0.95 -1.3 0.9 -1.25 0.95 -1.4 M0.75 -0.9 L0.7 -0.8 0.7 -0.9 0.75 -0.9 0.75 -0.9" fill="#241909" fill-rule="evenodd" stroke="none"/>
    <path d="M0.7 -0.9 L0.65 -0.85 0.65 -0.85 0.7 -0.9 0.7 -0.9" fill="#291c0a" fill-rule="evenodd" stroke="none"/>
    <path d="M0.7 -0.9 L0.7 -0.9 0.65 -0.9 0.6 -0.9 0.55 -0.9 0.45 -0.9 0.4 -0.9 0.35 -0.85 0.35 -0.8 0.3 -0.75 0.25 -0.8 0.3 -0.85 0.3 -0.9 0.25 -0.9 0.25 -0.9 0.2 -0.85 0.2 -0.85 0.15 -0.85 0.2 -0.9 0.15 -0.85 0.15 -0.8 0.1 -0.8 Q0.05 -0.8 0.05 -0.8 L0.1 -0.85 0.1 -0.85 0.05 -0.85 0.1 -0.95 0.15 -0.9 0.15 -0.95 0.25 -0.95 0.3 -0.95 0.4 -0.95 0.5 -0.95 0.7 -0.95 0.75 -0.9 0.8 -0.9 0.8 -0.85 0.75 -0.9 0.75 -0.9 0.7 -0.9 0.7 -0.9 M0.1 -0.95 L0.1 -0.95 M0.55 -0.9 L0.55 -0.9 M0.3 -0.75 L0.3 -0.75" fill="#ac803c" fill-rule="evenodd" stroke="none"/>
    <path d="M0.65 -0.9 L0.55 -0.8 0.6 -0.9 0.65 -0.9" fill="#2a1e0a" fill-rule="evenodd" stroke="none"/>
    <path d="M0.55 -0.9 L0.55 -0.85 0.5 -0.8 0.5 -0.85 0.55 -0.9 0.55 -0.9" fill="#3a2b11" fill-rule="evenodd" stroke="none"/>
    <path d="M0.55 -0.8 L0.55 -0.75 0.5 -0.7 0.55 -0.75 0.55 -0.8" fill="#30230d" fill-rule="evenodd" stroke="none"/>
    <path d="M1.0 -0.9 L0.95 -0.8 0.9 -0.8 Q0.85 -0.75 0.85 -0.8 L0.9 -0.85 0.9 -0.85 0.85 -0.85 0.85 -0.9 0.9 -0.9 1.0 -0.9 M0.85 -0.9 L0.85 -0.9 M0.85 -0.85 L0.85 -0.85" fill="#a97638" fill-rule="evenodd" stroke="none"/>
    <path d="M0.95 -0.8 L1.0 -0.9 0.95 -0.8 M1.0 -0.9 L1.0 -0.9" fill="#2f1e0b" fill-rule="evenodd" stroke="none"/>
    <path d="M0.95 -0.8 L1.0 -0.9 1.0 -0.85 1.05 -0.75 1.15 -0.7 1.1 -0.55 1.1 -0.6 1.05 -0.65 0.95 -0.8" fill="#986036" fill-rule="evenodd" stroke="none"/>
    <path d="M0.85 -0.85 L0.9 -0.85 0.9 -0.85 0.85 -0.8 0.85 -0.85 M-0.85 -0.75 L-0.85 -0.85 -0.8 -0.95 -0.8 -0.9 -0.8 -0.85 -0.85 -0.75" fill="#2b1d0c" fill-rule="evenodd" stroke="none"/>
    <path d="M0.8 -0.85 L0.8 -0.9 0.8 -0.85 0.8 -0.8 0.75 -0.8 0.75 -0.8 0.8 -0.85" fill="#2b200c" fill-rule="evenodd" stroke="none"/>
    <path d="M0.85 -0.9 L0.85 -0.85 0.8 -0.8 0.85 -0.9" fill="#2b1e0b" fill-rule="evenodd" stroke="none"/>
    <path d="M0.05 -0.85 L0.0 -0.8 0.0 -0.85 0.05 -0.9 0.05 -0.95 0.1 -0.95 0.05 -0.85" fill="#30230e" fill-rule="evenodd" stroke="none"/>
    <path d="M0.15 -0.95 L0.15 -0.9 0.1 -0.95 0.15 -0.95" fill="#583e19" fill-rule="evenodd" stroke="none"/>
    <path d="M0.25 -0.9 L0.25 -0.85 0.2 -0.8 0.2 -0.85 0.25 -0.9" fill="#32230d" fill-rule="evenodd" stroke="none"/>
    <path d="M0.15 -0.85 L0.15 -0.8 0.15 -0.85 0.2 -0.9 0.15 -0.85" fill="#372710" fill-rule="evenodd" stroke="none"/>
    <path d="M0.05 -0.8 L0.1 -0.85 0.1 -0.85 0.05 -0.8" fill="#271c0a" fill-rule="evenodd" stroke="none"/>
    <path d="M0.25 -0.8 L0.25 -0.85 0.3 -0.9 0.3 -0.85 0.25 -0.8" fill="#291d0b" fill-rule="evenodd" stroke="none"/>
    <path d="M0.4 -0.9 L0.35 -0.8 0.35 -0.85 0.4 -0.9" fill="#271b0a" fill-rule="evenodd" stroke="none"/>
    <path d="M0.3 -0.75 L0.3 -0.7 Q0.25 -0.75 0.3 -0.75 L0.3 -0.75" fill="#2e230e" fill-rule="evenodd" stroke="none"/>
    <path d="M0.4 -0.5 L0.4 -0.45 0.3 -0.45 Q0.25 -0.45 0.25 -0.5 L0.35 -0.5 0.4 -0.5" fill="#af7b41" fill-rule="evenodd" stroke="none"/>
    <path d="M0.4 -0.5 L0.45 -0.55 0.45 -0.6 0.4 -0.5 0.35 -0.4 0.4 -0.45 0.4 -0.5 M0.35 -0.4 L0.35 -0.4" fill="#23150a" fill-rule="evenodd" stroke="none"/>
    <path d="M0.35 -0.4 L0.4 -0.5 0.45 -0.6 0.45 -0.55 0.4 -0.5 0.35 -0.5 0.25 -0.5 Q0.25 -0.45 0.3 -0.45 L0.4 -0.45 0.35 -0.4 0.3 -0.4 0.25 -0.4 0.25 -0.45 0.2 -0.4 0.15 -0.45 0.1 -0.45 0.1 -0.45 0.05 -0.4 0.05 -0.45 0.0 -0.5 0.05 -0.5 0.1 -0.5 0.1 -0.6 0.2 -0.6 0.3 -0.65 Q0.4 -0.6 0.55 -0.6 L0.55 -0.55 0.5 -0.45 0.45 -0.4 0.4 -0.4 0.4 -0.4 0.35 -0.4 M0.05 -0.4 L0.05 -0.4 M0.35 -0.45 L0.3 -0.45 0.3 -0.4 0.35 -0.45" fill="#985e37" fill-rule="evenodd" stroke="none"/>
    <path d="M0.35 -0.45 L0.3 -0.4 0.3 -0.45 0.35 -0.45" fill="#462919" fill-rule="evenodd" stroke="none"/>
    <path d="M0.45 -0.4 L0.5 -0.45 0.5 -0.4 0.45 -0.35 Q0.45 -0.35 0.45 -0.4" fill="#3f2a12" fill-rule="evenodd" stroke="none"/>
    <path d="M0.4 -0.4 L0.4 -0.4 0.45 -0.4 0.4 -0.35 Q0.4 -0.35 0.4 -0.4" fill="#1c1006" fill-rule="evenodd" stroke="none"/>
    <path d="M0.1 -0.6 L0.1 -0.5 0.05 -0.5 0.0 -0.5 0.05 -0.45 0.0 -0.4 0.0 -0.4 0.0 -0.45 -0.05 -0.45 -0.05 -0.45 -0.1 -0.4 -0.15 -0.35 Q-0.2 -0.3 -0.15 -0.3 L-0.1 -0.35 -0.1 -0.3 -0.15 -0.3 -0.2 -0.25 -0.25 -0.2 -0.3 -0.15 -0.3 -0.1 -0.25 -0.1 Q-0.25 -0.05 -0.25 -0.05 -0.3 0.0 -0.3 -0.05 L-0.35 -0.1 -0.4 -0.05 -0.5 0.05 -0.6 0.15 -0.6 0.15 -0.65 0.15 -0.65 0.15 -0.75 0.2 Q-0.8 0.2 -0.75 0.15 L-0.75 0.1 -0.8 0.05 -0.8 -0.05 -0.85 0.0 -0.9 0.0 -0.85 -0.05 -0.8 -0.15 -0.85 -0.15 -0.85 -0.2 Q-0.8 -0.25 -0.9 -0.3 L-1.0 -0.3 -1.0 -0.5 -0.95 -0.5 -0.95 -0.55 Q-0.9 -0.5 -0.95 -0.5 L-1.0 -0.45 Q-0.95 -0.4 -0.9 -0.4 L-0.85 -0.4 -0.8 -0.4 -0.8 -0.35 -0.75 -0.4 -0.75 -0.35 -0.75 -0.25 -0.7 -0.2 -0.75 -0.1 Q-0.8 -0.05 -0.7 0.0 -0.75 0.05 -0.7 0.05 L-0.55 0.05 -0.5 -0.05 -0.45 -0.1 -0.4 -0.15 Q-0.35 -0.15 -0.35 -0.2 L-0.3 -0.25 -0.3 -0.3 -0.3 -0.35 -0.25 -0.35 -0.2 -0.45 -0.15 -0.45 -0.05 -0.5 -0.1 -0.55 -0.15 -0.55 -0.2 -0.6 -0.2 -0.6 -0.1 -0.6 -0.05 -0.55 -0.05 -0.55 0.0 -0.55 0.05 -0.55 0.05 -0.6 0.1 -0.6 0.1 -0.6 M-0.3 -0.35 L-0.3 -0.35 -0.3 -0.35 M-0.75 -0.4 L-0.75 -0.4" fill="#b17c3f" fill-rule="evenodd" stroke="none"/>
    <path d="M0.05 -0.4 L0.1 -0.45 0.1 -0.45 0.05 -0.35 Q0.05 -0.35 0.05 -0.4" fill="#2c1d0b" fill-rule="evenodd" stroke="none"/>
    <path d="M0.05 -0.45 L0.05 -0.4 0.0 -0.35 0.0 -0.4 0.05 -0.45" fill="#2c1d0c" fill-rule="evenodd" stroke="none"/>
    <path d="M0.2 -0.4 L0.25 -0.45 0.25 -0.4 0.25 -0.35 0.2 -0.4" fill="#1d1108" fill-rule="evenodd" stroke="none"/>
    <path d="M0.8 -0.55 Q0.75 -0.55 0.75 -0.55 L0.75 -0.65 0.8 -0.6 0.8 -0.55" fill="#a4683e" fill-rule="evenodd" stroke="none"/>
    <path d="M0.8 -0.4 L0.8 -0.35 0.75 -0.35 0.8 -0.4 0.8 -0.4" fill="#2c1c0b" fill-rule="evenodd" stroke="none"/>
    <path d="M0.8 -0.45 L0.8 -0.4 0.75 -0.4 0.7 -0.4 0.7 -0.45 0.65 -0.4 0.65 -0.35 0.65 -0.35 0.6 -0.35 0.65 -0.4 Q0.65 -0.45 0.6 -0.4 L0.6 -0.45 0.7 -0.45 0.85 -0.45 0.85 -0.45 0.8 -0.45 M0.8 -0.4 L0.8 -0.4" fill="#966236" fill-rule="evenodd" stroke="none"/>
    <path d="M0.65 -0.1 L0.6 -0.1 0.6 -0.15 0.7 -0.3 0.75 -0.3 0.8 -0.25 0.8 -0.35 0.85 -0.35 0.85 -0.25 0.85 -0.2 Q0.85 -0.2 0.9 -0.2 L1.0 -0.2 0.95 -0.25 Q0.9 -0.25 0.9 -0.3 L0.95 -0.4 1.0 -0.5 Q1.1 -0.5 1.05 -0.4 L1.05 -0.4 1.0 -0.35 1.05 -0.25 1.1 -0.25 1.15 -0.2 1.1 -0.15 1.0 -0.15 0.95 -0.05 Q0.95 -0.05 0.95 0.0 L0.9 0.05 Q0.8 0.05 0.8 0.1 L0.9 0.1 1.0 0.1 Q1.05 0.1 1.05 0.15 L1.15 0.25 1.15 0.2 1.1 0.15 Q1.1 0.15 1.15 0.1 L1.1 0.05 1.05 0.0 1.15 0.0 1.2 0.05 1.3 0.0 1.45 -0.05 1.45 0.0 1.45 0.2 1.45 0.25 1.45 0.4 1.45 0.45 Q1.35 0.45 1.3 0.55 L1.25 0.55 1.2 0.5 1.2 0.55 1.2 0.65 Q1.15 0.75 1.2 0.8 L1.1 0.8 1.05 0.75 1.05 0.65 1.0 0.6 1.0 0.65 0.95 0.6 0.95 0.5 0.9 0.4 Q0.85 0.4 0.9 0.45 L0.9 0.5 0.85 0.5 0.85 0.45 0.85 0.25 0.9 0.2 0.8 0.2 0.8 0.25 0.75 0.25 0.75 0.15 0.7 0.15 0.65 0.05 0.65 -0.1 M1.2 0.55 L1.15 0.5 1.2 0.5 1.2 0.4 1.15 0.3 1.1 0.25 1.05 0.25 Q1.0 0.2 1.0 0.25 0.95 0.3 0.95 0.35 L1.0 0.4 1.0 0.45 Q0.95 0.55 1.0 0.6 L1.1 0.55 1.2 0.55" fill="#ce9b4d" fill-rule="evenodd" stroke="none"/>
    <path d="M1.2 -0.9 L1.25 -0.85 1.25 -0.85 1.3 -0.9 1.35 -0.85 Q1.3 -0.8 1.35 -0.75 L1.4 -0.7 1.4 -0.7 1.45 -0.7 1.45 -0.75 1.45 -0.6 1.45 -0.65 1.35 -0.55 Q1.35 -0.5 1.4 -0.45 L1.3 -0.45 1.3 -0.4 1.35 -0.4 1.35 -0.35 1.3 -0.35 1.25 -0.35 1.25 -0.3 1.3 -0.25 1.25 -0.25 Q1.2 -0.3 1.25 -0.35 L1.2 -0.4 1.15 -0.4 1.1 -0.4 1.1 -0.35 1.15 -0.35 1.2 -0.35 1.2 -0.25 Q1.25 -0.2 1.3 -0.2 L1.25 -0.15 1.25 -0.05 1.3 -0.05 1.35 -0.05 1.45 -0.05 1.3 0.0 1.2 0.05 1.15 0.0 1.05 0.0 1.1 0.05 1.15 0.1 Q1.1 0.15 1.1 0.15 L1.15 0.2 1.15 0.25 1.05 0.15 Q1.05 0.1 1.0 0.1 L0.9 0.1 0.8 0.1 Q0.8 0.05 0.9 0.05 L0.95 0.0 Q0.95 -0.05 0.95 -0.05 L1.0 -0.15 1.1 -0.15 1.15 -0.2 1.1 -0.25 1.05 -0.25 1.0 -0.35 1.05 -0.4 1.05 -0.4 Q1.1 -0.45 1.15 -0.45 L1.2 -0.4 1.2 -0.5 1.15 -0.5 Q1.1 -0.5 1.1 -0.55 L1.05 -0.55 1.0 -0.5 Q0.95 -0.5 0.95 -0.45 L0.9 -0.4 0.85 -0.4 0.8 -0.45 0.85 -0.45 0.85 -0.45 0.95 -0.55 1.05 -0.65 1.1 -0.6 1.1 -0.55 1.15 -0.7 1.2 -0.75 1.2 -0.9 M0.85 -0.4 L0.9 -0.45 0.85 -0.4 M1.25 -0.75 L1.2 -0.7 Q1.2 -0.7 1.2 -0.65 L1.2 -0.6 1.25 -0.55 Q1.3 -0.55 1.3 -0.55 L1.35 -0.55 1.35 -0.65 1.3 -0.65 Q1.3 -0.7 1.3 -0.7 L1.25 -0.75 M1.25 -0.05 L1.2 -0.1 1.15 -0.15 1.15 -0.05 Q1.1 0.0 1.15 0.0 L1.25 0.0 Q1.25 0.0 1.25 -0.05" fill="#b87d3f" fill-rule="evenodd" stroke="none"/>
    <path d="M0.85 -0.4 L0.85 -0.4 0.9 -0.45 0.85 -0.4" fill="#38230e" fill-rule="evenodd" stroke="none"/>
    <path d="M0.6 -0.35 L0.6 -0.4 Q0.65 -0.45 0.65 -0.4 L0.6 -0.35" fill="#35210e" fill-rule="evenodd" stroke="none"/>
    <path d="M0.5 -0.35 L0.55 -0.45 0.55 -0.4 0.5 -0.35" fill="#37260f" fill-rule="evenodd" stroke="none"/>
    <path d="M0.7 -0.4 L0.65 -0.35 0.65 -0.4 0.7 -0.45 0.7 -0.4" fill="#2c1b0c" fill-rule="evenodd" stroke="none"/>
    <path d="M0.6 0.1 L0.6 0.0 Q0.6 -0.1 0.65 -0.1 L0.65 0.05 0.7 0.15 Q0.65 0.15 0.6 0.2 L0.6 0.25 0.55 0.3 0.5 0.25 Q0.5 0.2 0.6 0.2 L0.6 0.1" fill="#96743e" fill-rule="evenodd" stroke="none"/>
    <path d="M1.65 -1.05 L1.65 -0.9 1.6 -0.9 1.55 -0.9 1.55 -0.95 1.55 -1.05 Q1.6 -1.1 1.65 -1.05" fill="#efd99c" fill-rule="evenodd" stroke="none"/>
    <path d="M1.65 -0.9 L1.65 -0.9 1.6 -0.9 1.55 -0.85 1.55 -0.9 1.6 -0.9 1.65 -0.9" fill="#bb9c6b" fill-rule="evenodd" stroke="none"/>
    <path d="M1.65 -0.9 L1.65 -0.7 1.6 -0.7 1.6 -0.75 1.55 -0.75 1.55 -0.75 1.55 -0.85 1.6 -0.9 1.65 -0.9" fill="#886647" fill-rule="evenodd" stroke="none"/>
    <path d="M1.65 -0.7 L1.6 -0.65 Q1.6 -0.65 1.65 -0.65 L1.65 -0.5 1.6 -0.55 1.6 -0.45 1.65 -0.45 1.65 -0.45 1.6 -0.45 Q1.55 -0.45 1.6 -0.5 L1.6 -0.5 1.55 -0.5 1.55 -0.75 1.55 -0.75 1.6 -0.75 1.6 -0.7 1.65 -0.7" fill="#9f7f5c" fill-rule="evenodd" stroke="none"/>
    <path d="M1.45 -1.15 L1.45 -1.2 1.5 -1.3 1.5 -1.15 1.45 -1.15" fill="#462f18" fill-rule="evenodd" stroke="none"/>
    <path d="M1.25 -0.75 L1.3 -0.7 Q1.3 -0.7 1.3 -0.65 L1.35 -0.65 1.35 -0.55 1.3 -0.55 Q1.3 -0.55 1.25 -0.55 L1.2 -0.6 1.2 -0.65 Q1.2 -0.7 1.2 -0.7 L1.25 -0.75" fill="#ab6d3a" fill-rule="evenodd" stroke="none"/>
    <path d="M1.45 -0.75 L1.45 -0.9 1.5 -0.85 1.45 -0.75" fill="#472b1d" fill-rule="evenodd" stroke="none"/>
    <path d="M1.4 -0.45 Q1.35 -0.5 1.35 -0.55 L1.45 -0.65 1.45 -0.6 1.45 -0.55 1.45 -0.4 1.4 -0.4 1.4 -0.45" fill="#ca954a" fill-rule="evenodd" stroke="none"/>
    <path d="M1.45 -0.55 L1.5 -0.5 1.5 -0.45 1.5 -0.05 1.45 -0.05 1.45 -0.15 1.45 -0.35 1.45 -0.4 1.45 -0.55" fill="#372917" fill-rule="evenodd" stroke="none"/>
    <path d="M1.45 -0.35 L1.45 -0.15 1.4 -0.2 1.4 -0.1 1.35 -0.15 1.35 -0.1 1.3 -0.05 1.25 -0.05 1.25 -0.15 1.3 -0.2 1.35 -0.2 1.3 -0.25 1.25 -0.3 1.25 -0.35 1.3 -0.35 1.35 -0.35 1.4 -0.35 1.45 -0.35" fill="#c59549" fill-rule="evenodd" stroke="none"/>
    <path d="M1.45 -0.4 L1.45 -0.35 1.4 -0.35 1.35 -0.35 1.35 -0.4 1.3 -0.4 1.3 -0.45 1.4 -0.45 1.4 -0.4 1.45 -0.4" fill="#9e6e3c" fill-rule="evenodd" stroke="none"/>
    <path d="M1.0 -0.5 L1.05 -0.55 1.1 -0.55 Q1.1 -0.5 1.15 -0.5 L1.2 -0.5 1.2 -0.4 1.15 -0.45 Q1.1 -0.45 1.05 -0.4 1.1 -0.5 1.0 -0.5" fill="#c78f49" fill-rule="evenodd" stroke="none"/>
    <path d="M1.3 -0.2 Q1.25 -0.2 1.2 -0.25 L1.2 -0.35 1.15 -0.35 1.1 -0.35 1.1 -0.4 1.15 -0.4 1.2 -0.4 1.25 -0.35 Q1.2 -0.3 1.25 -0.25 L1.3 -0.25 1.35 -0.2 1.3 -0.2" fill="#a46b39" fill-rule="evenodd" stroke="none"/>
    <path d="M1.25 -0.05 Q1.25 0.0 1.25 0.0 L1.15 0.0 Q1.1 0.0 1.15 -0.05 L1.15 -0.15 1.2 -0.1 1.25 -0.05" fill="#9e6137" fill-rule="evenodd" stroke="none"/>
    <path d="M1.45 -0.15 L1.45 -0.05 1.35 -0.05 1.3 -0.05 1.35 -0.1 1.35 -0.15 1.4 -0.1 1.4 -0.2 1.45 -0.15 M1.45 0.0 L1.45 -0.05 1.45 0.0" fill="#99753f" fill-rule="evenodd" stroke="none"/>
    <path d="M1.45 -0.05 L1.5 -0.05 1.5 0.2 1.45 0.2 1.45 0.0 1.45 -0.05" fill="#645023" fill-rule="evenodd" stroke="none"/>
    <path d="M1.65 -0.45 L1.65 -0.4 1.6 -0.35 1.6 -0.35 1.55 -0.4 1.55 -0.45 1.55 -0.5 1.6 -0.5 1.6 -0.5 Q1.55 -0.45 1.6 -0.45 L1.65 -0.45" fill="#e6c591" fill-rule="evenodd" stroke="none"/>
    <path d="M1.65 -0.5 L1.65 -0.45 1.6 -0.45 1.6 -0.55 1.65 -0.5" fill="#dbc69e" fill-rule="evenodd" stroke="none"/>
    <path d="M1.65 -0.4 L1.65 -0.3 1.6 -0.25 1.6 -0.3 1.55 -0.3 1.55 -0.45 1.55 -0.4 1.6 -0.35 1.6 -0.35 1.65 -0.4" fill="#a58569" fill-rule="evenodd" stroke="none"/>
    <path d="M1.65 -0.3 L1.65 -0.15 1.6 0.0 1.6 0.05 1.65 0.05 1.65 0.15 1.6 0.15 1.55 0.2 1.55 0.05 1.6 0.05 1.6 0.0 1.55 0.0 1.55 -0.25 1.6 -0.2 Q1.65 -0.2 1.6 -0.25 L1.65 -0.3" fill="#8f6b4c" fill-rule="evenodd" stroke="none"/>
    <path d="M1.55 -0.25 L1.55 -0.3 1.6 -0.3 1.6 -0.25 Q1.65 -0.2 1.6 -0.2 L1.55 -0.25" fill="#dcc092" fill-rule="evenodd" stroke="none"/>
    <path d="M1.55 0.05 L1.55 0.0 1.6 0.0 1.6 0.05 1.55 0.05" fill="#f3daa8" fill-rule="evenodd" stroke="none"/>
    <path d="M1.65 0.15 L1.65 0.25 1.6 0.3 1.55 0.35 1.55 0.45 1.55 0.3 1.6 0.25 1.6 0.15 1.65 0.15" fill="#b3906a" fill-rule="evenodd" stroke="none"/>
    <path d="M1.55 0.3 L1.55 0.2 1.6 0.15 1.6 0.25 1.55 0.3" fill="#e6c794" fill-rule="evenodd" stroke="none"/>
    <path d="M1.6 0.3 L1.65 0.35 1.6 0.4 1.55 0.4 1.55 0.45 Q1.6 0.45 1.6 0.5 L1.65 0.5 1.65 0.7 1.55 0.7 1.55 0.45 1.55 0.35 1.6 0.3" fill="#755a41" fill-rule="evenodd" stroke="none"/>
    <path d="M1.6 0.4 L1.65 0.45 1.65 0.5 1.6 0.5 Q1.6 0.45 1.55 0.45 L1.55 0.4 1.6 0.4" fill="#987a61" fill-rule="evenodd" stroke="none"/>
    <path d="M1.2 0.55 L1.1 0.55 1.0 0.6 Q0.95 0.55 1.0 0.45 L1.0 0.4 0.95 0.35 Q0.95 0.3 1.0 0.25 1.0 0.2 1.05 0.25 L1.1 0.25 1.15 0.3 1.2 0.4 1.2 0.5 1.15 0.5 1.2 0.55" fill="#d6aa58" fill-rule="evenodd" stroke="none"/>
    <path d="M1.2 0.55 L1.2 0.5 1.25 0.55 1.3 0.55 Q1.35 0.45 1.45 0.45 L1.45 0.5 1.35 0.5 1.35 0.6 Q1.25 0.6 1.25 0.65 L1.35 0.7 Q1.4 0.7 1.45 0.65 L1.45 1.15 1.3 1.15 Q1.25 1.15 1.25 1.25 L1.2 1.25 1.2 1.1 1.15 1.05 1.1 1.0 1.1 0.95 1.05 1.05 1.05 1.1 1.05 1.2 1.1 1.25 1.05 1.3 1.05 1.35 0.95 1.35 0.9 1.35 1.0 1.25 Q1.0 1.2 0.95 1.2 L0.85 1.25 0.8 1.25 0.8 1.2 0.75 1.15 0.8 1.1 0.8 1.15 Q0.8 1.2 0.85 1.2 L0.9 1.2 0.95 1.2 1.0 1.1 Q1.05 1.05 1.0 1.0 L0.95 1.0 0.9 1.0 0.95 0.95 1.0 0.95 Q1.0 0.9 1.0 0.85 L1.0 0.75 1.0 0.65 1.0 0.6 1.05 0.65 1.05 0.75 1.1 0.8 1.2 0.8 Q1.15 0.75 1.2 0.65 L1.2 0.55" fill="#be904b" fill-rule="evenodd" stroke="none"/>
    <path d="M1.45 0.25 L1.5 0.35 1.45 0.4 1.45 0.25" fill="#482f1f" fill-rule="evenodd" stroke="none"/>
    <path d="M1.45 0.5 L1.45 0.65 Q1.4 0.7 1.35 0.7 L1.25 0.65 Q1.25 0.6 1.35 0.6 L1.35 0.5 1.45 0.5" fill="#b3753e" fill-rule="evenodd" stroke="none"/>
    <path d="M1.45 0.45 L1.5 0.55 1.5 0.8 1.5 1.05 1.45 1.2 1.45 1.15 1.45 0.65 1.45 0.5 1.45 0.45" fill="#44331e" fill-rule="evenodd" stroke="none"/>
    <path d="M1.05 1.35 L1.05 1.3 1.1 1.25 1.05 1.2 1.05 1.1 1.05 1.05 1.1 0.95 1.1 1.0 1.15 1.05 1.2 1.1 1.2 1.25 1.15 1.25 1.15 1.35 Q1.15 1.45 1.2 1.5 L1.2 1.45 Q1.25 1.4 1.25 1.4 L1.3 1.4 1.3 1.35 1.35 1.4 1.35 1.5 Q1.3 1.5 1.35 1.55 L1.35 1.6 1.3 1.6 1.25 1.6 1.2 1.6 Q1.2 1.55 1.15 1.6 L1.1 1.6 1.1 1.65 1.25 1.65 1.45 1.65 1.45 1.8 1.25 1.8 1.1 1.8 Q1.05 1.75 1.05 1.65 L1.15 1.55 1.1 1.5 1.15 1.45 1.15 1.4 1.1 1.35 1.1 1.3 1.05 1.35" fill="#caa65c" fill-rule="evenodd" stroke="none"/>
    <path d="M1.45 1.2 L1.5 1.25 1.45 1.25 1.35 1.2 Q1.3 1.2 1.25 1.25 1.25 1.3 1.3 1.3 L1.4 1.3 1.45 1.3 1.5 1.3 1.5 1.35 Q1.45 1.3 1.45 1.35 L1.45 1.4 1.45 1.6 1.45 1.65 1.25 1.65 1.1 1.65 1.1 1.6 1.15 1.6 Q1.2 1.55 1.2 1.6 L1.25 1.6 1.3 1.6 1.35 1.6 1.35 1.55 Q1.3 1.5 1.35 1.5 L1.35 1.4 1.3 1.35 1.3 1.4 1.25 1.4 Q1.25 1.4 1.2 1.45 L1.2 1.5 Q1.15 1.45 1.15 1.35 L1.15 1.25 1.2 1.25 1.25 1.25 Q1.25 1.15 1.3 1.15 L1.45 1.15 1.45 1.2" fill="#ac874a" fill-rule="evenodd" stroke="none"/>
    <path d="M1.5 1.25 L1.5 1.3 1.45 1.3 1.4 1.3 1.3 1.3 Q1.25 1.3 1.25 1.25 1.3 1.2 1.35 1.2 L1.45 1.25 1.5 1.25" fill="#906d3b" fill-rule="evenodd" stroke="none"/>
    <path d="M1.55 0.85 L1.55 0.7 1.65 0.7 Q1.6 0.7 1.55 0.75 L1.55 0.85" fill="#c09c64" fill-rule="evenodd" stroke="none"/>
    <path d="M1.65 0.7 L1.65 0.9 1.55 0.9 1.55 0.85 1.55 0.75 Q1.6 0.7 1.65 0.7" fill="#e4c68b" fill-rule="evenodd" stroke="none"/>
    <path d="M1.65 0.9 L1.65 1.0 1.55 1.0 1.55 1.05 1.55 0.9 1.65 0.9" fill="#a08254" fill-rule="evenodd" stroke="none"/>
    <path d="M1.65 1.0 L1.65 1.1 1.55 1.1 1.55 1.05 1.55 1.0 1.65 1.0" fill="#cfb66d" fill-rule="evenodd" stroke="none"/>
    <path d="M1.65 1.1 L1.6 1.15 1.65 1.15 1.6 1.2 1.6 1.25 1.65 1.3 1.65 1.35 1.6 1.3 1.6 1.25 1.55 1.25 1.55 1.3 1.55 1.1 1.65 1.1" fill="#95815d" fill-rule="evenodd" stroke="none"/>
    <path d="M0.75 0.25 L0.8 0.25 0.8 0.2 0.9 0.2 0.85 0.25 0.85 0.45 0.85 0.5 0.9 0.5 0.85 0.6 Q0.8 0.6 0.8 0.5 L0.8 0.4 0.8 0.35 0.75 0.4 Q0.7 0.45 0.65 0.4 L0.65 0.3 0.7 0.25 0.75 0.25" fill="#b38b48" fill-rule="evenodd" stroke="none"/>
    <path d="M0.25 0.05 L0.3 0.1 0.4 0.1 0.45 0.1 0.5 0.15 0.5 0.2 0.55 0.2 0.55 0.15 0.5 0.15 0.55 0.1 0.6 0.1 0.6 0.2 Q0.5 0.2 0.5 0.25 L0.55 0.3 Q0.5 0.3 0.5 0.35 L0.4 0.4 0.35 0.35 Q0.3 0.3 0.25 0.3 L0.25 0.25 0.25 0.05" fill="#b08542" fill-rule="evenodd" stroke="none"/>
    <path d="M0.55 0.3 L0.6 0.25 0.6 0.2 Q0.65 0.15 0.7 0.15 L0.75 0.15 0.75 0.25 0.7 0.25 0.65 0.3 0.6 0.35 0.6 0.4 0.55 0.4 0.5 0.45 0.4 0.4 0.5 0.35 Q0.5 0.3 0.55 0.3 M0.65 0.25 L0.7 0.25 0.7 0.2 0.65 0.2 Q0.6 0.2 0.65 0.25" fill="#332412" fill-rule="evenodd" stroke="none"/>
    <path d="M0.65 0.25 Q0.6 0.2 0.65 0.2 L0.7 0.2 0.7 0.25 0.65 0.25" fill="#0a0804" fill-rule="evenodd" stroke="none"/>
    <path d="M0.5 0.45 L0.55 0.4 0.6 0.4 0.6 0.35 0.65 0.3 0.65 0.4 Q0.7 0.45 0.75 0.4 L0.8 0.35 0.8 0.4 0.8 0.5 Q0.8 0.6 0.85 0.6 L0.9 0.65 0.85 0.7 0.8 0.6 0.8 0.55 Q0.75 0.55 0.75 0.6 L0.7 0.55 0.65 0.55 0.55 0.55 0.5 0.45" fill="#846438" fill-rule="evenodd" stroke="none"/>
    <path d="M0.6 0.65 L0.6 0.6 0.55 0.55 0.65 0.55 0.7 0.55 0.75 0.6 0.75 0.65 Q0.7 0.65 0.7 0.65 L0.65 0.65 0.6 0.65" fill="#a97c3f" fill-rule="evenodd" stroke="none"/>
    <path d="M0.4 0.4 L0.5 0.45 0.55 0.55 0.6 0.6 0.6 0.65 0.5 0.55 0.45 0.5 0.4 0.4 0.3 0.35 0.25 0.3 Q0.3 0.3 0.35 0.35 L0.4 0.4 M-0.1 0.6 L-0.05 0.7 0.05 0.8 0.0 0.8 -0.05 0.75 -0.05 0.85 -0.05 0.85 -0.1 0.8 -0.3 0.6 -0.35 0.55 -0.3 0.5 Q-0.3 0.5 -0.3 0.45 L-0.25 0.5 -0.2 0.55 -0.1 0.6" fill="#120d07" fill-rule="evenodd" stroke="none"/>
    <path d="M1.0 0.65 L1.0 0.75 Q0.95 0.7 0.95 0.65 L0.95 0.55 0.9 0.5 0.9 0.45 Q0.85 0.4 0.9 0.4 L0.95 0.5 0.95 0.6 1.0 0.65" fill="#9c7740" fill-rule="evenodd" stroke="none"/>
    <path d="M1.0 0.75 L1.0 0.85 Q1.0 0.9 1.0 0.95 L0.95 0.95 0.9 1.0 0.85 1.05 0.75 1.1 0.65 1.1 Q0.6 1.1 0.6 1.15 L0.55 1.1 0.5 1.1 0.45 1.1 0.35 1.1 0.2 0.95 Q0.25 0.9 0.2 0.85 0.2 0.85 0.15 0.85 L0.15 0.8 0.25 0.8 Q0.3 0.85 0.3 0.85 L0.3 0.95 0.4 0.95 0.45 0.85 0.5 0.85 0.5 0.8 0.55 0.8 0.6 0.8 0.65 0.8 0.65 0.75 Q0.6 0.7 0.65 0.7 L0.65 0.65 0.7 0.65 Q0.7 0.65 0.75 0.65 L0.75 0.6 Q0.75 0.55 0.8 0.55 L0.8 0.6 0.85 0.7 0.9 0.65 0.85 0.6 0.9 0.5 0.95 0.55 0.95 0.65 Q0.95 0.7 1.0 0.75" fill="#684e32" fill-rule="evenodd" stroke="none"/>
    <path d="M0.25 0.25 L0.25 0.3 0.2 0.25 Q0.25 0.25 0.25 0.25" fill="#0e0b05" fill-rule="evenodd" stroke="none"/>
    <path d="M0.2 0.0 L0.25 -0.05 0.25 0.05 0.25 0.25 Q0.25 0.25 0.2 0.25 L0.15 0.35 0.05 0.45 0.05 0.5 0.0 0.5 0.05 0.4 0.1 0.35 0.15 0.3 0.2 0.2 0.2 0.05 0.2 0.0" fill="#8e6938" fill-rule="evenodd" stroke="none"/>
    <path d="M-0.1 0.1 Q-0.05 0.05 0.0 0.05 L0.1 0.1 0.05 0.15 0.05 0.2 Q0.1 0.2 0.15 0.15 L0.2 0.1 0.2 0.0 0.2 0.05 0.2 0.2 0.15 0.3 0.1 0.35 Q0.05 0.35 0.05 0.3 L0.1 0.25 0.05 0.25 0.0 0.25 -0.05 0.2 -0.05 0.1 Q0.0 0.1 -0.05 0.1 L-0.1 0.1" fill="#b98442" fill-rule="evenodd" stroke="none"/>
    <path d="M-0.1 0.1 L-0.1 0.1 -0.05 0.1 Q0.0 0.1 -0.05 0.1 L-0.05 0.2 0.0 0.25 0.05 0.25 0.1 0.25 0.05 0.3 Q0.05 0.35 0.1 0.35 L0.05 0.4 0.0 0.5 0.05 0.5 0.05 0.45 0.15 0.35 0.2 0.25 0.25 0.3 0.3 0.35 0.4 0.4 0.35 0.45 0.25 0.55 Q0.25 0.5 0.2 0.5 L0.1 0.55 0.05 0.6 -0.05 0.65 -0.05 0.6 -0.1 0.6 -0.2 0.55 -0.15 0.5 -0.1 0.5 -0.1 0.35 -0.2 0.3 Q-0.25 0.3 -0.25 0.35 L-0.35 0.4 -0.4 0.35 -0.5 0.3 -0.55 0.25 -0.55 0.15 -0.5 0.15 -0.5 0.15 Q-0.45 0.1 -0.3 0.1 L-0.2 0.1 -0.1 0.1 M0.25 0.4 L0.2 0.3 Q0.2 0.35 0.2 0.4 L0.2 0.45 0.25 0.5 0.25 0.4 M-0.2 0.3 L-0.15 0.3 -0.15 0.25 -0.2 0.25 -0.2 0.3 -0.2 0.3" fill="#ac763d" fill-rule="evenodd" stroke="none"/>
    <path d="M0.25 0.4 L0.25 0.5 0.2 0.45 0.2 0.4 Q0.2 0.35 0.2 0.3 L0.25 0.4" fill="#7b5d35" fill-rule="evenodd" stroke="none"/>
    <path d="M-0.1 0.6 L-0.05 0.6 -0.05 0.65 0.05 0.6 0.1 0.55 0.2 0.5 Q0.25 0.5 0.25 0.55 L0.2 0.6 0.15 0.6 Q0.1 0.6 0.1 0.6 0.05 0.65 0.05 0.7 L0.1 0.7 0.05 0.8 Q0.1 0.85 0.15 0.85 0.2 0.85 0.2 0.85 0.25 0.9 0.2 0.95 L0.15 0.9 0.05 0.8 -0.05 0.7 -0.1 0.6" fill="#856c3f" fill-rule="evenodd" stroke="none"/>
    <path d="M0.15 0.85 Q0.1 0.85 0.05 0.8 L0.1 0.7 0.2 0.6 0.25 0.55 0.35 0.45 Q0.35 0.55 0.45 0.5 L0.3 0.65 0.15 0.8 0.15 0.85 M0.15 0.75 L0.1 0.8 0.15 0.8 0.15 0.75" fill="#110e07" fill-rule="evenodd" stroke="none"/>
    <path d="M0.1 0.7 L0.05 0.7 Q0.05 0.65 0.1 0.6 0.1 0.6 0.15 0.6 L0.2 0.6 0.1 0.7" fill="#ba9851" fill-rule="evenodd" stroke="none"/>
    <path d="M0.35 0.45 L0.4 0.4 0.45 0.5 Q0.35 0.55 0.35 0.45" fill="#48371c" fill-rule="evenodd" stroke="none"/>
    <path d="M0.15 0.8 L0.3 0.65 0.45 0.5 0.5 0.55 0.5 0.65 0.4 0.7 Q0.4 0.7 0.35 0.75 L0.3 0.85 0.35 0.85 0.4 0.9 0.45 0.85 0.4 0.95 0.3 0.95 0.3 0.85 Q0.3 0.85 0.25 0.8 L0.15 0.8" fill="#7b643b" fill-rule="evenodd" stroke="none"/>
    <path d="M0.4 0.7 L0.5 0.65 0.5 0.55 0.6 0.65 0.55 0.7 Q0.5 0.75 0.45 0.75 L0.4 0.7" fill="#ba7c3e" fill-rule="evenodd" stroke="none"/>
    <path d="M0.4 0.9 L0.35 0.85 0.3 0.85 0.35 0.75 Q0.4 0.7 0.4 0.7 L0.45 0.75 Q0.5 0.75 0.55 0.7 L0.6 0.65 0.65 0.7 Q0.6 0.7 0.65 0.75 L0.65 0.8 0.6 0.8 0.55 0.8 0.5 0.8 0.5 0.85 0.45 0.85 0.45 0.8 0.4 0.85 0.4 0.9" fill="#9a723e" fill-rule="evenodd" stroke="none"/>
    <path d="M0.45 0.85 L0.4 0.9 0.4 0.85 0.45 0.8 0.45 0.85" fill="#ba984f" fill-rule="evenodd" stroke="none"/>
    <path d="M0.05 0.8 L0.15 0.9 0.1 0.9 0.15 0.95 0.1 0.95 0.05 0.9 Q0.0 0.85 0.0 0.9 L-0.05 0.85 -0.05 0.85 -0.05 0.75 0.0 0.8 0.05 0.8 M-0.05 0.85 L-0.05 0.85" fill="#2f2717" fill-rule="evenodd" stroke="none"/>
    <path d="M0.15 0.75 L0.15 0.8 0.1 0.8 0.15 0.75" fill="#624727" fill-rule="evenodd" stroke="none"/>
    <path d="M0.15 0.9 L0.2 0.95 0.35 1.1 0.45 1.2 0.5 1.3 0.35 1.15 0.5 1.35 0.65 1.5 0.5 1.4 0.45 1.35 0.4 1.3 0.3 1.2 0.2 1.1 0.1 1.0 Q0.05 0.9 0.0 0.9 0.0 0.85 0.05 0.9 L0.1 0.95 0.15 0.95 0.1 0.9 0.15 0.9 M0.0 0.9 L0.0 0.9 M0.7 1.5 L0.5 1.3 0.6 1.4 0.7 1.5" fill="#0d0a06" fill-rule="evenodd" stroke="none"/>
    <path d="M0.0 0.9 Q0.05 0.9 0.1 1.0 L0.2 1.1 0.1 1.1 0.05 1.05 0.0 1.0 0.0 0.95 -0.05 0.9 0.0 0.9" fill="#705335" fill-rule="evenodd" stroke="none"/>
    <path d="M0.3 1.2 L0.4 1.3 0.45 1.35 0.45 1.4 0.4 1.45 0.35 1.5 0.3 1.5 Q0.25 1.5 0.25 1.55 L0.25 1.6 0.2 1.7 0.25 1.7 0.3 1.7 Q0.4 1.7 0.35 1.75 L0.3 1.75 0.35 1.75 0.4 1.8 0.3 1.8 0.3 1.75 0.15 1.75 0.05 1.75 Q0.05 1.7 0.1 1.7 L0.15 1.7 0.1 1.65 0.05 1.6 0.05 1.45 Q0.05 1.4 0.1 1.4 L0.2 1.35 0.15 1.35 0.05 1.35 Q0.05 1.35 0.05 1.3 L0.0 1.25 0.0 1.4 Q-0.05 1.4 -0.05 1.45 L-0.1 1.6 -0.1 1.6 Q-0.15 1.6 -0.2 1.55 L-0.35 1.5 -0.4 1.5 -0.45 1.55 -0.35 1.6 Q-0.25 1.6 -0.25 1.65 L-0.35 1.65 -0.45 1.65 -0.45 1.7 -0.5 1.65 -0.45 1.65 Q-0.45 1.6 -0.45 1.6 L-0.5 1.5 -0.45 1.5 -0.5 1.45 -0.25 1.2 0.0 1.0 0.05 1.05 0.0 1.05 -0.05 1.1 0.05 1.15 0.1 1.1 0.2 1.1 0.2 1.2 0.3 1.2 M-0.5 1.45 L-0.5 1.45" fill="#c0954d" fill-rule="evenodd" stroke="none"/>
    <path d="M-0.05 0.9 L0.0 0.95 0.0 1.0 -0.25 1.2 -0.5 1.45 -0.55 1.5 -0.3 1.2 -0.05 0.95 -0.3 1.2 -0.6 1.5 -0.6 1.5 -0.5 1.35 -0.35 1.2 -0.3 1.15 -0.25 1.05 -0.15 0.95 -0.1 0.9 -0.05 0.9" fill="#0c0905" fill-rule="evenodd" stroke="none"/>
    <path d="M0.05 1.05 L0.1 1.1 0.2 1.1 0.1 1.1 0.05 1.15 -0.05 1.1 0.0 1.05 0.05 1.05" fill="#9b7d47" fill-rule="evenodd" stroke="none"/>
    <path d="M0.2 1.1 L0.3 1.2 0.2 1.2 0.2 1.1" fill="#947c48" fill-rule="evenodd" stroke="none"/>
    <path d="M0.5 1.3 L0.45 1.2 0.35 1.1 0.45 1.1 0.5 1.1 0.55 1.1 0.6 1.15 0.55 1.2 0.55 1.25 0.5 1.3" fill="#956f3e" fill-rule="evenodd" stroke="none"/>
    <path d="M0.6 0.65 L0.65 0.65 0.65 0.7 0.6 0.65" fill="#130d06" fill-rule="evenodd" stroke="none"/>
    <path d="M0.5 1.4 L0.65 1.5 0.7 1.55 0.7 1.5 0.6 1.4 0.5 1.3 0.55 1.25 0.55 1.2 0.6 1.2 0.65 1.25 0.7 1.25 0.75 1.2 Q0.7 1.25 0.7 1.3 L0.75 1.45 0.8 1.5 0.85 1.5 0.85 1.55 0.8 1.6 0.65 1.6 0.6 1.65 0.55 1.6 Q0.55 1.55 0.6 1.5 L0.55 1.45 0.5 1.4" fill="#cba156" fill-rule="evenodd" stroke="none"/>
    <path d="M0.9 1.0 L0.95 1.0 1.0 1.0 Q1.05 1.05 1.0 1.1 L0.95 1.2 0.9 1.2 0.85 1.2 Q0.8 1.2 0.8 1.15 L0.8 1.1 0.75 1.15 0.8 1.2 0.75 1.2 0.7 1.25 0.65 1.25 0.6 1.2 0.55 1.2 0.6 1.15 Q0.6 1.1 0.65 1.1 L0.75 1.1 0.85 1.05 0.9 1.0" fill="#a1834b" fill-rule="evenodd" stroke="none"/>
    <path d="M0.95 1.2 Q1.0 1.2 1.0 1.25 L0.9 1.35 0.95 1.35 1.05 1.35 1.1 1.3 1.1 1.35 1.15 1.4 1.15 1.45 1.1 1.5 1.15 1.55 1.05 1.65 Q1.05 1.75 1.1 1.8 L1.0 1.8 1.0 1.65 1.05 1.65 1.05 1.5 1.0 1.45 0.95 1.5 0.9 1.5 0.85 1.5 0.8 1.5 0.75 1.45 0.7 1.3 Q0.7 1.25 0.75 1.2 L0.8 1.2 0.8 1.25 0.85 1.25 0.95 1.2" fill="#d9ba6b" fill-rule="evenodd" stroke="none"/>
    <path d="M0.95 1.5 L1.0 1.45 1.05 1.5 1.05 1.65 1.0 1.65 0.95 1.6 0.95 1.55 1.0 1.55 1.0 1.5 0.95 1.5" fill="#cba75e" fill-rule="evenodd" stroke="none"/>
    <path d="M0.85 1.5 L0.9 1.5 0.95 1.5 1.0 1.5 1.0 1.55 0.95 1.55 0.95 1.6 1.0 1.65 1.05 1.65 1.0 1.65 0.95 1.65 0.95 1.7 1.0 1.7 1.0 1.75 0.95 1.75 Q0.9 1.8 0.9 1.75 L0.85 1.7 0.75 1.7 0.65 1.7 0.7 1.75 0.55 1.75 0.4 1.75 0.45 1.7 0.5 1.7 Q0.45 1.65 0.55 1.6 L0.5 1.55 0.5 1.5 Q0.45 1.45 0.5 1.4 L0.55 1.45 0.6 1.5 Q0.55 1.55 0.55 1.6 L0.6 1.65 0.65 1.6 0.8 1.6 0.85 1.55 0.85 1.5 M0.8 1.6 Q0.75 1.65 0.8 1.65 L0.9 1.65 0.9 1.55 0.85 1.6 0.8 1.6" fill="#bd934f" fill-rule="evenodd" stroke="none"/>
    <path d="M0.65 1.5 L0.5 1.35 0.35 1.15 0.5 1.3 0.7 1.5 0.7 1.55 0.65 1.5" fill="#6b512a" fill-rule="evenodd" stroke="none"/>
    <path d="M1.0 1.65 L1.0 1.8 0.95 1.8 0.7 1.8 0.75 1.8 0.8 1.8 0.8 1.75 0.75 1.75 0.7 1.75 0.65 1.7 0.75 1.7 0.85 1.7 0.9 1.75 Q0.9 1.8 0.95 1.75 L1.0 1.75 1.0 1.7 0.95 1.7 0.95 1.65 1.0 1.65" fill="#caa55a" fill-rule="evenodd" stroke="none"/>
    <path d="M0.45 1.35 L0.5 1.4 Q0.45 1.45 0.5 1.5 L0.5 1.55 0.55 1.6 Q0.45 1.65 0.5 1.7 L0.45 1.7 0.4 1.75 0.35 1.75 Q0.4 1.7 0.3 1.7 L0.25 1.7 0.2 1.7 0.25 1.6 0.25 1.55 Q0.25 1.5 0.3 1.5 L0.35 1.5 0.4 1.45 0.35 1.5 0.3 1.6 0.35 1.55 0.4 1.5 0.4 1.55 0.35 1.6 Q0.4 1.6 0.45 1.55 0.5 1.5 0.45 1.5 L0.45 1.4 0.45 1.35" fill="#b48546" fill-rule="evenodd" stroke="none"/>
    <path d="M0.7 1.8 L0.65 1.8 0.5 1.8 0.4 1.8 0.35 1.75 0.3 1.75 0.35 1.75 0.4 1.75 0.55 1.75 0.7 1.75 0.75 1.75 0.8 1.75 0.8 1.8 0.75 1.8 0.7 1.8" fill="#9d8048" fill-rule="evenodd" stroke="none"/>
    <path d="M1.45 1.8 L1.1 1.8 0.7 1.8 0.95 1.8 1.2 1.8 1.45 1.8" fill="#4d3e25" fill-rule="evenodd" stroke="none"/>
    <path d="M0.65 1.8 L0.45 1.8 0.3 1.8 0.4 1.8 0.5 1.8 0.65 1.8" fill="#432c25" fill-rule="evenodd" stroke="none"/>
    <path d="M0.8 1.6 L0.85 1.6 0.9 1.55 0.9 1.65 0.8 1.65 Q0.75 1.65 0.8 1.6" fill="#967745" fill-rule="evenodd" stroke="none"/>
    <path d="M0.4 1.45 L0.45 1.4 0.45 1.5 Q0.5 1.5 0.45 1.55 0.4 1.6 0.35 1.6 L0.4 1.55 0.4 1.5 0.35 1.55 0.3 1.6 0.35 1.5 0.4 1.45" fill="#8c6b3b" fill-rule="evenodd" stroke="none"/>
    <path d="M-0.05 1.8 L-0.2 1.8 -0.6 1.8 -0.95 1.8 -1.0 1.75 -1.05 1.75 -1.1 1.7 -1.1 1.6 -1.15 1.5 -1.1 1.4 -1.1 1.5 -1.1 1.6 -1.05 1.7 -0.95 1.7 -0.9 1.75 -0.85 1.75 -0.85 1.75 -0.8 1.75 -0.75 1.7 Q-0.75 1.65 -0.7 1.7 L-0.65 1.7 -0.6 1.7 Q-0.6 1.7 -0.6 1.65 L-0.6 1.6 Q-0.55 1.55 -0.6 1.5 L-0.55 1.5 -0.5 1.45 -0.55 1.55 -0.5 1.6 -0.5 1.5 -0.45 1.6 Q-0.45 1.6 -0.45 1.65 L-0.5 1.65 -0.45 1.7 -0.45 1.65 -0.35 1.65 -0.25 1.65 Q-0.25 1.6 -0.35 1.6 L-0.45 1.55 -0.4 1.5 -0.35 1.5 -0.2 1.55 Q-0.15 1.6 -0.1 1.6 L-0.1 1.6 -0.05 1.55 -0.05 1.5 0.0 1.45 0.05 1.4 Q0.0 1.4 0.0 1.4 L-0.05 1.45 Q-0.05 1.4 0.0 1.4 L0.0 1.25 0.05 1.3 Q0.05 1.35 0.05 1.35 L0.15 1.35 0.2 1.35 0.1 1.4 Q0.05 1.4 0.05 1.45 L0.05 1.6 -0.05 1.65 -0.1 1.7 0.0 1.7 0.05 1.7 0.1 1.7 Q0.05 1.7 0.05 1.75 L0.0 1.8 -0.05 1.8 M-0.5 1.45 L-0.5 1.45" fill="#b18648" fill-rule="evenodd" stroke="none"/>
    <path d="M0.05 1.6 L0.1 1.65 0.15 1.7 0.1 1.7 0.05 1.7 0.0 1.7 -0.1 1.7 -0.05 1.65 0.05 1.6" fill="#9c7942" fill-rule="evenodd" stroke="none"/>
    <path d="M0.3 1.8 L0.25 1.8 0.15 1.8 0.0 1.8 0.05 1.75 0.15 1.75 0.3 1.75 0.3 1.8" fill="#947848" fill-rule="evenodd" stroke="none"/>
    <path d="M0.25 1.8 L0.1 1.8 -0.05 1.8 0.0 1.8 0.15 1.8 0.25 1.8" fill="#301d16" fill-rule="evenodd" stroke="none"/>
    <path d="M1.15 1.95 L0.85 1.95 0.55 1.95 Q0.55 1.9 0.6 1.9 L0.7 1.9 0.75 1.9 0.75 1.95 0.85 1.9 Q0.9 1.9 0.95 1.9 L1.0 1.9 1.1 1.85 1.25 1.85 1.3 1.9 Q1.2 1.9 1.15 1.95" fill="#422f1e" fill-rule="evenodd" stroke="none"/>
    <path d="M0.55 1.95 L-0.3 1.95 -0.3 1.9 Q-0.25 1.9 -0.3 1.85 L0.4 1.85 1.1 1.85 1.0 1.9 0.95 1.9 Q0.9 1.9 0.85 1.9 L0.75 1.95 0.75 1.9 0.7 1.9 0.6 1.9 Q0.55 1.9 0.55 1.95" fill="#5c452d" fill-rule="evenodd" stroke="none"/>
    <path d="M1.65 1.35 L1.65 1.55 1.6 1.5 1.6 1.45 1.55 1.45 1.55 1.5 1.55 1.3 1.55 1.25 1.6 1.25 1.6 1.3 1.65 1.35" fill="#6f5d3f" fill-rule="evenodd" stroke="none"/>
    <path d="M1.65 1.55 L1.65 1.6 1.6 1.65 1.6 1.6 1.55 1.6 1.55 1.5 1.55 1.45 1.6 1.45 1.6 1.5 1.65 1.55" fill="#a08754" fill-rule="evenodd" stroke="none"/>
    <path d="M1.65 1.6 L1.65 1.85 1.6 1.8 1.55 1.8 1.55 1.6 1.6 1.6 1.6 1.65 1.65 1.6" fill="#5d4b2e" fill-rule="evenodd" stroke="none"/>
    <path d="M1.5 1.85 L1.55 1.8 1.6 1.8 1.65 1.85 1.55 1.85 1.5 1.85" fill="#906b42" fill-rule="evenodd" stroke="none"/>
    <path d="M1.5 1.35 L1.45 1.4 1.45 1.35 Q1.45 1.3 1.5 1.35" fill="#d0c098" fill-rule="evenodd" stroke="none"/>
    <path d="M1.45 1.4 L1.5 1.5 1.5 1.6 1.45 1.6 1.45 1.4" fill="#433720" fill-rule="evenodd" stroke="none"/>
    <path d="M1.5 1.6 L1.5 1.7 1.45 1.8 1.45 1.65 1.45 1.6 1.5 1.6 M1.0 1.8 L1.1 1.8 1.25 1.8 1.45 1.8 1.2 1.8 0.95 1.8 1.0 1.8" fill="#87673a" fill-rule="evenodd" stroke="none"/>
    <path d="M1.65 1.85 L1.6 1.95 1.5 1.95 1.55 1.95 1.45 1.95 1.4 1.95 1.35 1.95 1.3 1.95 1.25 1.95 1.15 1.95 Q1.2 1.9 1.3 1.9 L1.25 1.85 1.35 1.85 1.5 1.85 1.55 1.85 1.65 1.85 M1.3 1.9 L1.4 1.9 1.35 1.9 1.3 1.9" fill="#58462f" fill-rule="evenodd" stroke="none"/>
    <path d="M1.3 1.9 L1.35 1.9 1.4 1.9 1.3 1.9" fill="#8a7547" fill-rule="evenodd" stroke="none"/>
    <path d="M-0.55 -1.95 L-0.4 -1.95 -0.2 -1.95 -0.2 -1.9 -0.15 -1.9 -0.15 -1.85 -0.2 -1.85 -0.2 -1.9 -0.25 -1.9 Q-0.3 -1.85 -0.3 -1.85 L-0.35 -1.9 -0.4 -1.9 -0.45 -1.85 -0.5 -1.85 -0.55 -1.9 -0.55 -1.95" fill="#806340" fill-rule="evenodd" stroke="none"/>
    <path d="M-0.45 -1.85 L-0.4 -1.9 -0.35 -1.9 -0.3 -1.85 Q-0.3 -1.85 -0.25 -1.9 L-0.2 -1.9 -0.2 -1.85 -0.45 -1.85" fill="#ac834c" fill-rule="evenodd" stroke="none"/>
    <path d="M-0.65 -1.95 L-0.55 -1.95 -0.55 -1.9 -0.5 -1.85 -0.65 -1.85 -0.7 -1.9 -0.7 -1.9 -0.65 -1.9 -0.65 -1.95" fill="#a97a3d" fill-rule="evenodd" stroke="none"/>
    <path d="M-1.05 -1.95 L-0.65 -1.95 -0.65 -1.9 -0.7 -1.9 -0.7 -1.9 -0.65 -1.85 -0.8 -1.85 -1.05 -1.85 -1.1 -1.85 -1.05 -1.9 -1.05 -1.9 -1.05 -1.95" fill="#72522d" fill-rule="evenodd" stroke="none"/>
    <path d="M-0.15 -1.85 Q-0.15 -1.8 -0.2 -1.8 L-0.35 -1.8 -0.5 -1.8 -0.7 -1.8 -0.75 -1.8 Q-0.8 -1.8 -0.8 -1.85 L-0.65 -1.85 -0.5 -1.85 -0.45 -1.85 -0.2 -1.85 -0.15 -1.85 -0.15 -1.85" fill="#45351f" fill-rule="evenodd" stroke="none"/>
    <path d="M-0.7 -1.55 L-0.75 -1.55 -0.75 -1.55 -0.8 -1.55 -0.75 -1.55 -0.7 -1.55" fill="#282211" fill-rule="evenodd" stroke="none"/>
    <path d="M-0.5 -1.75 Q-0.45 -1.75 -0.55 -1.75 L-0.65 -1.75 -0.7 -1.65 -0.7 -1.55 -0.75 -1.55 -0.8 -1.55 -0.75 -1.55 -0.75 -1.55 -0.8 -1.55 -0.8 -1.5 -0.9 -1.45 -1.0 -1.4 Q-1.05 -1.45 -1.0 -1.5 L-1.0 -1.65 -0.95 -1.65 -0.95 -1.65 -0.95 -1.55 -0.85 -1.65 -0.85 -1.75 -0.5 -1.75" fill="#6c6132" fill-rule="evenodd" stroke="none"/>
    <path d="M-0.7 -1.55 L-0.65 -1.55 -0.65 -1.5 Q-0.7 -1.55 -0.7 -1.5 L-0.75 -1.45 -0.75 -1.35 -0.8 -1.3 Q-0.9 -1.3 -0.9 -1.35 L-0.85 -1.4 Q-0.8 -1.4 -0.85 -1.4 L-0.8 -1.45 -0.8 -1.5 -0.8 -1.55 -0.75 -1.55 -0.7 -1.55" fill="#81723d" fill-rule="evenodd" stroke="none"/>
    <path d="M-0.3 -1.75 L-0.35 -1.7 -0.4 -1.65 Q-0.4 -1.65 -0.45 -1.65 L-0.45 -1.75 -0.5 -1.7 Q-0.5 -1.65 -0.5 -1.7 L-0.55 -1.65 -0.55 -1.65 -0.5 -1.6 -0.5 -1.6 -0.45 -1.6 -0.45 -1.55 -0.55 -1.4 -0.6 -1.3 -0.65 -1.25 -0.7 -1.2 -0.75 -1.2 -0.8 -1.2 Q-0.7 -1.25 -0.65 -1.3 L-0.6 -1.5 Q-0.6 -1.5 -0.6 -1.55 L-0.6 -1.6 -0.65 -1.6 -0.65 -1.55 -0.7 -1.55 -0.7 -1.65 -0.65 -1.75 -0.55 -1.75 Q-0.45 -1.75 -0.5 -1.75 L-0.3 -1.75 M-0.8 -1.2 L-0.8 -1.2" fill="#a16c35" fill-rule="evenodd" stroke="none"/>
    <path d="M-0.65 -1.55 L-0.65 -1.6 -0.6 -1.6 -0.6 -1.55 Q-0.6 -1.5 -0.6 -1.5 L-0.65 -1.4 -0.7 -1.45 -0.75 -1.45 -0.7 -1.5 Q-0.7 -1.55 -0.65 -1.5 L-0.65 -1.55" fill="#ba8740" fill-rule="evenodd" stroke="none"/>
    <path d="M-0.95 -1.65 L-0.95 -1.7 -0.9 -1.7 Q-0.85 -1.7 -0.85 -1.75 L-0.9 -1.75 -0.85 -1.75 -0.85 -1.65 -0.95 -1.55 -0.95 -1.65 -0.95 -1.65" fill="#876a35" fill-rule="evenodd" stroke="none"/>
    <path d="M-0.9 -1.75 L-0.85 -1.75 Q-0.85 -1.7 -0.9 -1.7 L-0.95 -1.7 -0.95 -1.65 -1.0 -1.65 -1.05 -1.4 Q-1.05 -1.4 -1.1 -1.45 L-1.1 -1.35 Q-1.05 -1.3 -1.1 -1.3 L-1.15 -1.3 -1.15 -1.45 Q-1.1 -1.5 -1.15 -1.55 L-1.15 -1.65 -1.1 -1.75 -0.9 -1.75 M-1.35 -1.3 L-1.3 -1.35 -1.25 -1.35 -1.3 -1.4 -1.35 -1.4 -1.3 -1.45 -1.25 -1.45 -1.25 -1.6 -1.25 -1.35 -1.2 -1.3 -1.15 -1.3 -1.2 -1.3 -1.25 -1.25 Q-1.3 -1.25 -1.3 -1.3 L-1.35 -1.3" fill="#a37439" fill-rule="evenodd" stroke="none"/>
    <path d="M-1.15 -1.3 L-1.1 -1.3 Q-1.05 -1.3 -1.1 -1.35 L-1.1 -1.45 Q-1.05 -1.4 -1.05 -1.4 L-1.0 -1.65 -1.0 -1.5 Q-1.05 -1.45 -1.0 -1.4 L-1.0 -1.3 -1.0 -1.25 Q-1.0 -1.2 -1.05 -1.15 L-1.05 -1.15 -1.1 -1.2 -1.15 -1.3" fill="#8b6935" fill-rule="evenodd" stroke="none"/>
    <path d="M-0.8 -1.5 L-0.8 -1.45 -0.9 -1.4 -1.0 -1.3 -1.0 -1.4 -0.9 -1.45 -0.8 -1.5" fill="#141409" fill-rule="evenodd" stroke="none"/>
    <path d="M-0.8 -1.45 L-0.85 -1.4 Q-0.8 -1.4 -0.85 -1.4 L-0.9 -1.35 Q-0.9 -1.3 -0.8 -1.3 L-0.75 -1.3 -0.85 -1.3 -0.9 -1.25 -0.9 -1.2 -0.95 -1.2 -0.95 -1.1 -1.0 -1.05 -0.95 -1.05 -0.9 -1.05 -0.95 -0.95 -1.05 -0.95 -1.05 -1.0 -1.1 -0.95 -1.15 -0.95 -1.15 -1.1 -1.2 -1.15 Q-1.25 -1.2 -1.25 -1.25 L-1.15 -1.25 -1.1 -1.2 -1.05 -1.15 -1.05 -1.15 Q-1.0 -1.2 -1.0 -1.25 L-1.0 -1.3 -0.9 -1.4 -0.8 -1.45" fill="#5b562f" fill-rule="evenodd" stroke="none"/>
    <path d="M-0.8 -1.3 L-0.75 -1.35 -0.75 -1.45 -0.7 -1.45 -0.75 -1.35 -0.75 -1.3 -0.8 -1.3" fill="#231809" fill-rule="evenodd" stroke="none"/>
    <path d="M-0.9 -1.25 L-0.85 -1.3 -0.75 -1.3 Q-0.8 -1.2 -0.9 -1.25 M-0.65 -1.4 L-0.75 -1.3 -0.75 -1.35 -0.7 -1.45 -0.65 -1.4" fill="#996d36" fill-rule="evenodd" stroke="none"/>
    <path d="M-0.5 -1.3 L-0.5 -1.2 -0.55 -1.25 -0.55 -1.3 -0.5 -1.3" fill="#30210d" fill-rule="evenodd" stroke="none"/>
    <path d="M-0.5 -1.4 L-0.5 -1.4 -0.45 -1.4 -0.45 -1.35 -0.4 -1.35 -0.4 -1.4 -0.45 -1.35 -0.5 -1.3 -0.55 -1.3 -0.5 -1.4 M-0.55 -1.3 L-0.55 -1.3" fill="#765128" fill-rule="evenodd" stroke="none"/>
    <path d="M-0.6 -1.5 L-0.65 -1.3 Q-0.7 -1.25 -0.8 -1.2 L-0.9 -1.2 -0.9 -1.25 Q-0.8 -1.2 -0.75 -1.3 L-0.65 -1.4 -0.6 -1.5" fill="#100a04" fill-rule="evenodd" stroke="none"/>
    <path d="M-0.8 -1.2 L-0.75 -1.2 -0.7 -1.2 -0.65 -1.25 -0.6 -1.3 -0.65 -1.25 -0.7 -1.2 -0.75 -1.15 -0.65 -1.1 -0.6 -1.05 -0.55 -1.05 -0.55 -1.0 -0.5 -0.95 -0.35 -0.95 -0.35 -0.9 -0.45 -0.95 -0.55 -0.95 -0.6 -0.9 -0.6 -0.8 -0.6 -0.8 -0.6 -0.8 Q-0.6 -0.75 -0.6 -0.75 L-0.65 -0.75 Q-0.7 -0.7 -0.7 -0.7 -0.75 -0.75 -0.75 -0.8 L-0.7 -0.85 -0.65 -0.9 -0.75 -0.95 -0.8 -0.95 -0.8 -0.95 -0.85 -0.95 -0.9 -1.0 -0.8 -1.0 Q-0.7 -1.0 -0.75 -1.05 L-0.7 -1.05 -0.65 -1.0 Q-0.6 -1.0 -0.55 -1.0 L-0.6 -1.05 -0.65 -1.05 -0.7 -1.1 -0.8 -1.05 -0.8 -1.1 Q-0.8 -1.15 -0.8 -1.15 L-0.85 -1.15 -0.9 -1.15 -0.85 -1.2 -0.8 -1.2 M-0.65 -0.9 L-0.65 -0.85 -0.65 -0.9" fill="#b3823f" fill-rule="evenodd" stroke="none"/>
    <path d="M-0.45 -1.55 L-0.4 -1.6 -0.5 -1.4 -0.55 -1.3 -0.6 -1.2 -0.65 -1.25 -0.6 -1.3 -0.55 -1.4 -0.45 -1.55" fill="#1b1006" fill-rule="evenodd" stroke="none"/>
    <path d="M-0.2 -1.35 L-0.1 -1.45 0.0 -1.6 -0.05 -1.6 0.0 -1.6 0.0 -1.6 -0.05 -1.5 -0.1 -1.4 -0.15 -1.3 -0.2 -1.25 -0.2 -1.35" fill="#181106" fill-rule="evenodd" stroke="none"/>
    <path d="M-0.3 -1.6 L-0.3 -1.6 -0.35 -1.6 -0.35 -1.6 -0.3 -1.6" fill="#36210d" fill-rule="evenodd" stroke="none"/>
    <path d="M-0.3 -1.45 L-0.3 -1.45 -0.3 -1.5 -0.3 -1.45" fill="#33240f" fill-rule="evenodd" stroke="none"/>
    <path d="M-0.45 -1.4 L-0.45 -1.35 -0.45 -1.4" fill="#040201" fill-rule="evenodd" stroke="none"/>
    <path d="M-0.4 -1.3 L-0.35 -1.4 -0.35 -1.3 -0.4 -1.25 -0.4 -1.3" fill="#1a1207" fill-rule="evenodd" stroke="none"/>
    <path d="M-0.3 -1.2 L-0.3 -1.2 -0.25 -1.35 -0.2 -1.35 -0.2 -1.25 -0.25 -1.25 -0.3 -1.2" fill="#977036" fill-rule="evenodd" stroke="none"/>
    <path d="M-0.1 -1.4 L-0.05 -1.35 0.0 -1.35 -0.1 -1.3 -0.15 -1.3 -0.1 -1.4" fill="#936f37" fill-rule="evenodd" stroke="none"/>
    <path d="M-0.3 -1.2 L-0.25 -1.45 -0.1 -1.6 -0.25 -1.35 -0.3 -1.2" fill="#160f05" fill-rule="evenodd" stroke="none"/>
    <path d="M-1.55 -1.8 Q-1.55 -1.9 -1.45 -1.95 L-1.3 -1.95 -1.3 -1.85 -1.3 -1.85 -1.25 -1.85 Q-1.3 -1.8 -1.35 -1.8 L-1.45 -1.8 -1.5 -1.8 -1.55 -1.8" fill="#4a3a24" fill-rule="evenodd" stroke="none"/>
    <path d="M-1.3 -1.95 L-1.15 -1.95 Q-1.2 -1.9 -1.2 -1.9 L-1.3 -1.85 -1.3 -1.95" fill="#72573a" fill-rule="evenodd" stroke="none"/>
    <path d="M-1.15 -1.95 L-1.1 -1.95 -1.05 -1.95 -1.05 -1.9 -1.05 -1.9 -1.1 -1.85 -1.05 -1.85 -1.25 -1.85 -1.3 -1.85 -1.3 -1.85 -1.2 -1.9 Q-1.2 -1.9 -1.15 -1.95 M-1.1 -1.9 L-1.1 -1.9 -1.15 -1.9 -1.2 -1.85 -1.1 -1.85 -1.1 -1.9" fill="#a98459" fill-rule="evenodd" stroke="none"/>
    <path d="M-1.1 -1.9 L-1.1 -1.85 -1.2 -1.85 -1.15 -1.9 -1.1 -1.9 -1.1 -1.9" fill="#e5c485" fill-rule="evenodd" stroke="none"/>
    <path d="M-1.55 -1.15 L-1.55 -1.45 -1.55 -1.35 -1.5 -1.3 -1.45 -1.15 Q-1.4 -1.1 -1.45 -1.1 L-1.55 -1.15" fill="#745a31" fill-rule="evenodd" stroke="none"/>
    <path d="M-1.55 -1.45 L-1.55 -1.7 -1.55 -1.65 -1.5 -1.6 -1.5 -1.6 -1.45 -1.6 -1.45 -1.45 Q-1.45 -1.5 -1.5 -1.45 L-1.5 -1.4 -1.45 -1.4 -1.45 -1.35 Q-1.5 -1.4 -1.5 -1.3 L-1.45 -1.2 -1.45 -1.15 -1.5 -1.3 -1.55 -1.35 -1.55 -1.45" fill="#9e7e50" fill-rule="evenodd" stroke="none"/>
    <path d="M-1.55 -1.7 L-1.55 -1.8 -1.5 -1.8 -1.45 -1.8 -1.45 -1.6 -1.5 -1.6 -1.5 -1.6 -1.55 -1.65 -1.55 -1.7" fill="#6b5339" fill-rule="evenodd" stroke="none"/>
    <path d="M-1.1 -1.75 L-1.15 -1.65 -1.15 -1.55 Q-1.1 -1.5 -1.15 -1.45 L-1.15 -1.3 -1.2 -1.3 -1.25 -1.35 -1.25 -1.6 -1.25 -1.45 -1.3 -1.45 -1.35 -1.4 -1.3 -1.4 -1.25 -1.35 -1.3 -1.35 -1.35 -1.3 -1.4 -1.35 -1.4 -1.75 -1.25 -1.75 -1.1 -1.75" fill="#ad8442" fill-rule="evenodd" stroke="none"/>
    <path d="M-1.45 -1.35 L-1.45 -1.2 -1.5 -1.3 Q-1.5 -1.4 -1.45 -1.35" fill="#ceaa68" fill-rule="evenodd" stroke="none"/>
    <path d="M-0.8 -1.2 L-0.8 -1.2 -0.85 -1.2 -0.9 -1.15 -0.85 -1.15 -0.8 -1.15 Q-0.8 -1.1 -0.85 -1.1 L-0.9 -1.1 -0.9 -1.0 -0.95 -0.9 -1.05 -0.9 Q-1.1 -0.9 -1.15 -0.95 L-1.1 -0.95 -1.05 -1.0 -1.05 -0.95 -0.95 -0.95 -0.9 -1.05 -0.95 -1.05 -1.0 -1.05 -0.95 -1.1 -0.95 -1.2 -0.9 -1.2 -0.8 -1.2 M-1.35 -1.3 L-1.3 -1.3 Q-1.3 -1.25 -1.25 -1.25 L-1.2 -1.3 -1.15 -1.3 -1.1 -1.2 -1.15 -1.25 -1.25 -1.25 Q-1.25 -1.2 -1.2 -1.15 L-1.15 -1.1 -1.15 -0.95 -1.2 -1.0 -1.3 -1.05 -1.4 -1.05 -1.4 -1.35 -1.35 -1.3" fill="#6d6839" fill-rule="evenodd" stroke="none"/>
    <path d="M-1.45 -1.45 L-1.45 -1.4 -1.5 -1.4 -1.5 -1.45 Q-1.45 -1.5 -1.45 -1.45" fill="#ccae7e" fill-rule="evenodd" stroke="none"/>
    <path d="M-1.4 -1.05 L-1.3 -1.05 -1.2 -1.0 -1.15 -0.95 -1.15 -0.85 -1.2 -0.95 -1.2 -0.95 -1.2 -0.95 -1.4 -0.95 -1.4 -1.05" fill="#9b874b" fill-rule="evenodd" stroke="none"/>
    <path d="M-1.4 -0.95 L-1.2 -0.95 -1.2 -0.95 -1.2 -0.95 -1.15 -0.85 -1.15 -0.8 -1.15 -0.75 -1.15 -0.65 -1.15 -0.6 -1.2 -0.55 -1.2 -0.65 -1.25 -0.6 -1.3 -0.55 -1.35 -0.6 -1.35 -0.6 -1.4 -0.65 -1.4 -0.95 -1.4 -0.95" fill="#b79853" fill-rule="evenodd" stroke="none"/>
    <path d="M-1.55 -0.85 L-1.55 -1.0 -1.5 -1.05 -1.45 -1.05 -1.45 -0.95 -1.4 -0.95 Q-1.4 -0.9 -1.45 -0.9 L-1.45 -0.85 -1.55 -0.85 M-1.4 -0.95 L-1.4 -0.95" fill="#4e3a24" fill-rule="evenodd" stroke="none"/>
    <path d="M-1.45 -0.8 L-1.45 -0.85 -1.45 -0.9 Q-1.4 -0.9 -1.4 -0.95 L-1.4 -0.65 -1.4 -0.45 -1.4 0.65 -1.4 0.65 -1.45 0.6 -1.45 0.55 Q-1.45 0.55 -1.45 0.5 -1.45 0.45 -1.45 0.4 L-1.5 0.3 -1.45 0.3 -1.45 0.15 -1.45 -0.1 -1.45 -0.25 -1.45 -0.4 -1.45 -0.5 -1.5 -0.55 Q-1.45 -0.55 -1.45 -0.6 L-1.45 -0.8 M-1.4 -0.45 L-1.4 -0.45 M-1.4 0.1 L-1.45 0.15 -1.4 0.15 -1.4 0.1" fill="#2d2013" fill-rule="evenodd" stroke="none"/>
    <path d="M-1.55 -0.35 L-1.55 -0.6 -1.55 -0.55 Q-1.55 -0.55 -1.5 -0.55 L-1.5 -0.6 -1.55 -0.65 -1.55 -0.85 -1.45 -0.85 -1.45 -0.8 -1.5 -0.75 -1.55 -0.65 -1.45 -0.6 Q-1.45 -0.55 -1.5 -0.55 L-1.45 -0.5 -1.45 -0.4 Q-1.55 -0.4 -1.5 -0.35 L-1.45 -0.25 -1.45 -0.1 -1.5 -0.1 -1.5 -0.25 -1.55 -0.35" fill="#624d3b" fill-rule="evenodd" stroke="none"/>
    <path d="M-1.4 -0.45 L-1.4 -0.65 -1.35 -0.6 -1.35 -0.6 -1.3 -0.55 -1.25 -0.55 -1.25 -0.5 -1.3 -0.45 -1.4 -0.45" fill="#9e663a" fill-rule="evenodd" stroke="none"/>
    <path d="M-1.4 -0.45 L-1.4 -0.45 -1.3 -0.45 -1.25 -0.5 -1.25 -0.55 -1.3 -0.55 -1.25 -0.6 -1.2 -0.65 -1.2 -0.55 -1.15 -0.6 -1.15 -0.65 -1.15 -0.75 -1.15 -0.7 -1.1 -0.8 -1.05 -0.9 -0.9 -0.9 -0.85 -0.85 -0.85 -0.75 -0.85 -0.7 -0.85 -0.6 -0.8 -0.5 Q-0.75 -0.5 -0.75 -0.55 L-0.7 -0.6 -0.65 -0.6 -0.6 -0.6 -0.65 -0.6 -0.7 -0.55 -0.7 -0.5 -0.75 -0.5 -0.85 -0.5 -0.9 -0.6 -0.9 -0.7 -0.9 -0.8 -0.95 -0.75 -1.0 -0.8 -1.05 -0.8 -1.0 -0.65 -0.95 -0.55 Q-0.95 -0.6 -1.0 -0.6 L-1.05 -0.6 -1.05 -0.5 Q-1.05 -0.45 -1.1 -0.45 L-1.1 -0.3 -1.05 -0.25 -1.1 -0.2 -1.15 -0.05 -1.15 -0.05 -1.2 -0.05 -1.2 -0.1 -1.2 -0.2 Q-1.2 -0.3 -1.25 -0.3 L-1.25 -0.45 -1.35 -0.4 -1.4 -0.45" fill="#b28243" fill-rule="evenodd" stroke="none"/>
    <path d="M-1.15 -0.85 L-1.15 -0.95 Q-1.1 -0.9 -1.05 -0.9 L-0.95 -0.9 -0.9 -1.0 -0.9 -1.1 -0.85 -1.1 Q-0.8 -1.1 -0.8 -1.15 -0.8 -1.15 -0.8 -1.1 L-0.8 -1.05 -0.7 -1.1 -0.65 -1.05 -0.6 -1.05 -0.55 -1.0 Q-0.6 -1.0 -0.65 -1.0 L-0.7 -1.05 -0.75 -1.05 Q-0.7 -1.0 -0.8 -1.0 L-0.9 -1.0 -0.85 -0.95 -0.8 -0.95 -0.85 -0.85 -0.9 -0.9 -1.05 -0.9 -1.1 -0.8 -1.15 -0.7 -1.15 -0.75 -1.15 -0.8 -1.15 -0.85" fill="#987039" fill-rule="evenodd" stroke="none"/>
    <path d="M-1.45 -0.8 L-1.45 -0.6 -1.55 -0.65 -1.5 -0.75 -1.45 -0.8" fill="#8b6f4e" fill-rule="evenodd" stroke="none"/>
    <path d="M-1.55 0.0 L-1.55 -0.1 -1.5 -0.1 -1.5 -0.05 -1.55 0.0" fill="#a79268" fill-rule="evenodd" stroke="none"/>
    <path d="M-1.55 0.15 L-1.55 0.0 -1.5 -0.05 -1.5 -0.1 -1.55 -0.1 -1.55 -0.35 -1.5 -0.25 -1.5 -0.1 -1.45 -0.1 -1.45 0.15 -1.5 0.1 -1.5 0.05 -1.55 0.1 -1.55 0.15" fill="#816a4b" fill-rule="evenodd" stroke="none"/>
    <path d="M-1.4 0.65 L-1.4 -0.45 -1.35 -0.4 -1.25 -0.45 -1.25 -0.3 Q-1.2 -0.3 -1.2 -0.2 L-1.2 -0.1 -1.2 -0.05 -1.15 -0.05 -1.15 -0.05 -1.1 -0.2 -1.05 -0.25 -1.0 -0.25 -1.0 -0.3 -0.9 -0.3 Q-0.8 -0.25 -0.85 -0.2 L-0.85 -0.15 -0.8 -0.15 -0.85 -0.05 -0.9 0.0 -0.85 0.0 -0.8 -0.05 -0.8 0.05 -0.75 0.1 -0.75 0.15 Q-0.8 0.2 -0.75 0.2 L-0.65 0.15 -0.65 0.25 -0.75 0.25 -0.85 0.2 -0.9 0.3 -0.95 0.35 Q-0.95 0.4 -1.05 0.45 L-1.05 0.5 -1.05 0.6 -1.1 0.65 -1.1 0.35 -1.0 0.35 Q-0.95 0.35 -0.95 0.3 L-1.05 0.25 -1.1 0.2 -1.1 0.15 -1.15 0.15 -1.2 0.1 -1.2 0.1 -1.25 0.1 -1.35 0.25 -1.3 0.25 -1.25 0.2 -1.2 0.25 -1.15 0.3 -1.15 0.35 -1.2 0.4 -1.25 0.4 -1.25 0.45 -1.15 0.5 -1.15 0.6 -1.1 0.65 -1.1 0.7 -1.15 0.7 -1.2 0.7 -1.25 0.85 -1.4 0.9 -1.4 0.65 M-0.85 -0.2 L-0.9 -0.25 -0.9 -0.25 -0.95 -0.25 -1.0 -0.25 -1.05 -0.2 -1.05 -0.15 -1.0 -0.05 Q-1.0 -0.05 -0.95 -0.05 L-0.9 -0.1 -0.85 -0.1 -0.85 -0.2 M-1.0 0.15 L-1.0 0.05 -1.05 0.0 -1.1 0.05 -1.1 0.15 -1.05 0.15 -1.0 0.15" fill="#a26b3b" fill-rule="evenodd" stroke="none"/>
    <path d="M-1.05 -0.25 L-1.1 -0.3 -1.1 -0.45 Q-1.05 -0.45 -1.05 -0.5 L-1.05 -0.6 -1.0 -0.6 Q-0.95 -0.6 -0.95 -0.55 L-0.95 -0.5 -1.0 -0.5 -1.0 -0.3 -1.0 -0.25 -1.05 -0.25 M-0.95 -0.55 L-0.95 -0.55" fill="#bf9f57" fill-rule="evenodd" stroke="none"/>
    <path d="M-0.85 -0.2 L-0.85 -0.1 -0.9 -0.1 -0.95 -0.05 Q-1.0 -0.05 -1.0 -0.05 L-1.05 -0.15 -1.05 -0.2 -1.0 -0.25 -0.95 -0.25 -0.9 -0.25 -0.9 -0.25 -0.85 -0.2" fill="#764a2f" fill-rule="evenodd" stroke="none"/>
    <path d="M-1.45 -0.4 L-1.45 -0.25 -1.5 -0.35 Q-1.55 -0.4 -1.45 -0.4" fill="#a08563" fill-rule="evenodd" stroke="none"/>
    <path d="M-0.05 -0.9 L-0.1 -0.85 -0.15 -0.8 -0.1 -0.9 0.0 -1.0 -0.05 -0.95 -0.05 -0.9" fill="#291e0c" fill-rule="evenodd" stroke="none"/>
    <path d="M-0.3 -1.0 L-0.35 -0.85 -0.45 -0.7 -0.4 -0.8 -0.35 -0.9 -0.35 -0.95 -0.3 -1.0" fill="#322510" fill-rule="evenodd" stroke="none"/>
    <path d="M-0.25 -0.85 L-0.2 -0.9 Q-0.2 -0.9 -0.2 -0.85 L-0.25 -0.8 -0.25 -0.85" fill="#30240e" fill-rule="evenodd" stroke="none"/>
    <path d="M-0.35 -0.8 L-0.3 -0.85 -0.3 -0.85 -0.35 -0.8" fill="#3f3115" fill-rule="evenodd" stroke="none"/>
    <path d="M-0.6 -0.6 L-0.5 -0.65 -0.45 -0.65 -0.4 -0.6 -0.3 -0.6 -0.2 -0.6 -0.25 -0.55 -0.25 -0.5 -0.25 -0.45 -0.3 -0.45 -0.3 -0.45 -0.35 -0.45 -0.3 -0.5 -0.3 -0.55 Q-0.35 -0.6 -0.45 -0.6 L-0.5 -0.6 -0.6 -0.6" fill="#ba7d3f" fill-rule="evenodd" stroke="none"/>
    <path d="M-0.05 -0.9 L-0.05 -0.8 -0.05 -0.9" fill="#201607" fill-rule="evenodd" stroke="none"/>
    <path d="M-0.2 -0.8 L-0.2 -0.85 -0.15 -0.9 Q-0.1 -0.9 -0.15 -0.85 L-0.2 -0.8" fill="#281d0b" fill-rule="evenodd" stroke="none"/>
    <path d="M-0.25 -0.7 L-0.2 -0.8 -0.2 -0.75 -0.25 -0.7" fill="#31240e" fill-rule="evenodd" stroke="none"/>
    <path d="M-0.75 -0.85 L-0.8 -0.9 -0.8 -0.95 -0.8 -0.95 -0.75 -0.95 -0.65 -0.9 -0.65 -0.9 -0.7 -0.85 -0.7 -0.9 -0.75 -0.85" fill="#956e37" fill-rule="evenodd" stroke="none"/>
    <path d="M-0.95 -0.55 L-0.95 -0.55 -1.0 -0.65 -1.05 -0.8 -1.0 -0.8 -0.95 -0.75 -0.9 -0.8 -0.9 -0.7 -0.9 -0.6 -0.85 -0.5 -0.75 -0.5 -0.7 -0.5 -0.8 -0.4 -0.85 -0.4 -0.9 -0.4 Q-0.95 -0.4 -1.0 -0.45 L-0.95 -0.5 Q-0.9 -0.5 -0.95 -0.55" fill="#a76a37" fill-rule="evenodd" stroke="none"/>
    <path d="M-0.55 -0.95 L-0.6 -0.8 -0.6 -0.8 -0.6 -0.9 -0.55 -0.95" fill="#100b04" fill-rule="evenodd" stroke="none"/>
    <path d="M-0.65 -0.9 L-0.65 -0.9 -0.65 -0.85 -0.65 -0.9" fill="#332711" fill-rule="evenodd" stroke="none"/>
    <path d="M-0.75 -0.8 L-0.75 -0.85 -0.7 -0.9 -0.7 -0.85 -0.75 -0.8" fill="#1e1508" fill-rule="evenodd" stroke="none"/>
    <path d="M-0.6 -0.45 L-0.55 -0.5 -0.55 -0.55 -0.5 -0.5 -0.45 -0.45 -0.5 -0.45 -0.5 -0.4 -0.5 -0.35 -0.65 -0.3 -0.7 -0.35 -0.7 -0.4 -0.65 -0.35 -0.6 -0.4 -0.6 -0.4 -0.55 -0.45 -0.6 -0.45" fill="#895131" fill-rule="evenodd" stroke="none"/>
    <path d="M-0.7 -0.55 L-0.65 -0.6 -0.6 -0.6 -0.5 -0.6 -0.45 -0.6 Q-0.35 -0.6 -0.3 -0.55 L-0.3 -0.5 -0.35 -0.45 -0.35 -0.4 -0.3 -0.45 -0.3 -0.45 -0.25 -0.45 -0.3 -0.35 -0.3 -0.35 -0.35 -0.35 -0.35 -0.35 -0.5 -0.3 -0.65 -0.25 -0.65 -0.3 -0.5 -0.35 -0.5 -0.4 -0.5 -0.45 -0.45 -0.45 -0.5 -0.5 -0.55 -0.55 -0.55 -0.5 -0.6 -0.45 -0.6 -0.4 -0.65 -0.35 -0.65 -0.4 Q-0.6 -0.45 -0.65 -0.45 L-0.7 -0.5 -0.7 -0.55 M-0.6 -0.6 L-0.6 -0.6 M-0.4 -0.45 L-0.45 -0.4 -0.45 -0.35 -0.4 -0.4 -0.4 -0.45" fill="#a26236" fill-rule="evenodd" stroke="none"/>
    <path d="M-0.7 -0.5 L-0.7 -0.55 -0.7 -0.5 -0.75 -0.4 -0.8 -0.35 -0.8 -0.4 -0.7 -0.5" fill="#2a1a0b" fill-rule="evenodd" stroke="none"/>
    <path d="M-0.75 -0.35 L-0.75 -0.4 -0.7 -0.45 Q-0.7 -0.35 -0.75 -0.35" fill="#2e1f0c" fill-rule="evenodd" stroke="none"/>
    <path d="M-0.3 -0.35 L-0.3 -0.3 -0.3 -0.25 -0.35 -0.2 Q-0.35 -0.15 -0.4 -0.15 L-0.45 -0.1 -0.5 -0.05 -0.55 0.05 -0.7 0.05 Q-0.75 0.05 -0.7 0.0 -0.8 -0.05 -0.75 -0.1 L-0.7 -0.2 -0.75 -0.25 -0.75 -0.35 Q-0.7 -0.35 -0.7 -0.45 L-0.75 -0.4 -0.75 -0.4 -0.7 -0.5 -0.65 -0.45 -0.7 -0.4 -0.7 -0.35 -0.65 -0.3 -0.65 -0.25 -0.5 -0.3 -0.35 -0.35 -0.35 -0.35 -0.3 -0.35" fill="#c28d45" fill-rule="evenodd" stroke="none"/>
    <path d="M-0.65 -0.35 L-0.7 -0.4 -0.65 -0.45 Q-0.6 -0.45 -0.65 -0.4 L-0.65 -0.35" fill="#291b0b" fill-rule="evenodd" stroke="none"/>
    <path d="M-0.6 -0.45 L-0.55 -0.45 -0.6 -0.4 -0.6 -0.4 -0.6 -0.45" fill="#331d0d" fill-rule="evenodd" stroke="none"/>
    <path d="M-0.2 -0.6 L-0.2 -0.6 -0.15 -0.55 -0.1 -0.55 -0.05 -0.5 -0.15 -0.45 -0.2 -0.45 -0.25 -0.35 -0.3 -0.35 -0.25 -0.45 -0.2 -0.55 -0.25 -0.5 -0.25 -0.55 -0.2 -0.6" fill="#9b6037" fill-rule="evenodd" stroke="none"/>
    <path d="M-0.3 -0.35 L-0.3 -0.35 -0.25 -0.45 -0.25 -0.5 -0.2 -0.55 -0.25 -0.45 -0.3 -0.35" fill="#27180b" fill-rule="evenodd" stroke="none"/>
    <path d="M-0.05 -0.35 L-0.1 -0.3 -0.1 -0.35 -0.15 -0.3 Q-0.2 -0.3 -0.15 -0.35 L-0.1 -0.4 Q-0.1 -0.35 -0.1 -0.4 L-0.05 -0.45 -0.05 -0.45 0.0 -0.45 -0.05 -0.4 -0.05 -0.35" fill="#8e6834" fill-rule="evenodd" stroke="none"/>
    <path d="M0.0 -0.4 L-0.05 -0.35 -0.05 -0.4 0.0 -0.45 0.0 -0.4" fill="#2a1c0b" fill-rule="evenodd" stroke="none"/>
    <path d="M-0.5 -0.35 L-0.5 -0.4 -0.5 -0.35" fill="#22130a" fill-rule="evenodd" stroke="none"/>
    <path d="M-0.4 -0.45 L-0.4 -0.4 -0.45 -0.35 -0.45 -0.4 -0.4 -0.45" fill="#341c0d" fill-rule="evenodd" stroke="none"/>
    <path d="M-0.3 -0.45 L-0.35 -0.4 -0.35 -0.45 -0.3 -0.45" fill="#2b160b" fill-rule="evenodd" stroke="none"/>
    <path d="M-0.25 -0.1 L-0.2 -0.05 -0.25 0.0 Q-0.25 0.05 -0.2 0.1 L-0.1 0.1 -0.2 0.1 -0.3 0.1 Q-0.45 0.1 -0.5 0.15 L-0.5 0.15 -0.55 0.15 -0.6 0.15 -0.6 0.15 -0.5 0.05 -0.4 -0.05 -0.35 -0.1 -0.3 -0.05 Q-0.3 0.0 -0.25 -0.05 -0.25 -0.05 -0.25 -0.1" fill="#c08541" fill-rule="evenodd" stroke="none"/>
    <path d="M-0.2 0.3 L-0.2 0.25 -0.15 0.25 -0.15 0.3 -0.2 0.3" fill="#110b06" fill-rule="evenodd" stroke="none"/>
    <path d="M-0.2 0.3 L-0.2 0.3 -0.25 0.35 -0.3 0.45 -0.35 0.45 -0.3 0.5 -0.35 0.5 -0.4 0.5 -0.45 0.6 -0.55 0.65 -0.5 0.55 -0.4 0.45 -0.35 0.4 -0.25 0.35 Q-0.25 0.3 -0.2 0.3" fill="#1a1209" fill-rule="evenodd" stroke="none"/>
    <path d="M-0.3 0.45 L-0.3 0.45 Q-0.3 0.5 -0.3 0.5 L-0.35 0.55 -0.4 0.5 -0.35 0.5 -0.3 0.5 -0.35 0.45 -0.3 0.45" fill="#704f27" fill-rule="evenodd" stroke="none"/>
    <path d="M-0.2 0.3 L-0.1 0.35 -0.1 0.5 -0.15 0.5 -0.2 0.55 -0.25 0.5 -0.3 0.45 -0.25 0.35 -0.2 0.3 M-0.3 0.45 L-0.3 0.45" fill="#bd8644" fill-rule="evenodd" stroke="none"/>
    <path d="M-0.4 0.5 L-0.35 0.55 -0.3 0.6 -0.3 0.65 -0.25 0.75 Q-0.35 0.75 -0.35 0.8 L-0.35 0.9 -0.35 0.95 Q-0.4 0.9 -0.45 0.95 L-0.5 0.95 -0.55 0.95 -0.55 0.95 -0.6 1.0 -0.6 0.95 -0.65 0.95 -0.65 0.9 -0.7 0.85 -0.7 0.85 -0.75 0.9 -0.75 0.9 -0.8 0.85 Q-0.85 0.85 -0.85 0.85 L-0.85 0.85 -0.9 0.9 -0.9 0.9 -1.0 0.9 -0.95 0.85 -0.9 0.85 -0.9 0.7 -0.85 0.75 -0.8 0.75 -0.8 0.65 Q-0.8 0.6 -0.85 0.55 L-0.9 0.6 -0.9 0.65 -0.95 0.65 Q-1.0 0.7 -1.0 0.6 L-0.95 0.5 -0.95 0.45 -0.9 0.35 -0.85 0.4 -0.85 0.45 -0.75 0.4 -0.75 0.3 -0.7 0.3 -0.65 0.25 -0.6 0.3 -0.5 0.35 -0.45 0.4 -0.4 0.45 -0.5 0.55 -0.55 0.65 -0.45 0.6 -0.4 0.5 M-0.55 0.65 L-0.55 0.7 -0.55 0.65" fill="#c39249" fill-rule="evenodd" stroke="none"/>
    <path d="M-0.6 0.15 L-0.55 0.15 -0.55 0.25 -0.5 0.3 -0.4 0.35 -0.35 0.4 -0.4 0.45 -0.45 0.4 -0.5 0.35 -0.6 0.3 -0.65 0.25 -0.65 0.15 -0.65 0.15 -0.6 0.15 M-0.65 0.25 L-0.65 0.25 -0.6 0.25 Q-0.55 0.25 -0.55 0.2 L-0.6 0.2 -0.65 0.25" fill="#362613" fill-rule="evenodd" stroke="none"/>
    <path d="M-0.65 0.25 L-0.7 0.3 -0.75 0.3 -0.75 0.4 -0.85 0.45 -0.85 0.4 -0.9 0.35 -0.95 0.45 -0.95 0.5 -1.0 0.6 Q-1.0 0.7 -0.95 0.65 L-0.9 0.65 -0.9 0.6 -0.85 0.55 Q-0.8 0.6 -0.8 0.65 L-0.8 0.75 -0.85 0.75 -0.9 0.7 -0.9 0.85 -0.95 0.85 -1.0 0.9 -1.0 1.0 -1.05 0.95 -1.1 0.9 -1.15 0.9 Q-1.2 0.85 -1.2 0.85 L-1.2 0.75 -1.15 0.7 -1.1 0.75 -1.1 0.7 -1.1 0.65 -1.05 0.6 -1.05 0.5 -1.05 0.45 Q-0.95 0.4 -0.95 0.35 L-0.9 0.3 -0.85 0.2 -0.75 0.25 -0.65 0.25 -0.65 0.25 M-1.1 0.65 L-1.1 0.65" fill="#b68848" fill-rule="evenodd" stroke="none"/>
    <path d="M-0.6 0.25 L-0.65 0.25 -0.6 0.2 -0.55 0.2 Q-0.55 0.25 -0.6 0.25" fill="#0b0804" fill-rule="evenodd" stroke="none"/>
    <path d="M-1.0 0.15 L-1.05 0.15 -1.1 0.15 -1.1 0.05 -1.05 0.0 -1.0 0.05 -1.0 0.15" fill="#b58a4c" fill-rule="evenodd" stroke="none"/>
    <path d="M-1.1 0.65 L-1.15 0.6 -1.15 0.5 -1.25 0.45 -1.25 0.4 -1.2 0.4 -1.15 0.35 -1.15 0.3 -1.2 0.25 -1.25 0.2 -1.3 0.25 -1.35 0.25 -1.25 0.1 -1.2 0.1 -1.2 0.1 -1.15 0.15 -1.1 0.15 -1.1 0.2 -1.05 0.25 -0.95 0.3 Q-0.95 0.35 -1.0 0.35 L-1.1 0.35 -1.1 0.65 -1.1 0.65" fill="#945d37" fill-rule="evenodd" stroke="none"/>
    <path d="M-0.55 0.65 L-0.55 0.7 -0.55 0.65" fill="#161108" fill-rule="evenodd" stroke="none"/>
    <path d="M-0.6 1.5 Q-0.55 1.55 -0.6 1.6 L-0.6 1.65 Q-0.6 1.7 -0.6 1.7 L-0.65 1.7 -0.7 1.7 Q-0.75 1.65 -0.75 1.7 L-0.8 1.75 -0.85 1.75 -0.85 1.75 -0.9 1.75 -0.95 1.7 -1.05 1.7 -1.1 1.6 -1.1 1.5 -1.1 1.4 -1.05 1.4 -1.1 1.4 -1.1 1.3 -1.25 1.3 -1.25 1.2 -1.2 1.1 -1.1 1.1 -1.1 1.2 -1.05 1.15 -1.05 1.05 -1.0 1.0 -0.95 1.05 -0.95 1.0 -1.0 1.0 -1.0 0.9 -0.9 0.9 -0.9 0.9 -0.85 0.85 -0.85 0.85 Q-0.85 0.85 -0.8 0.85 L-0.75 0.9 -0.75 0.9 -0.7 0.85 -0.7 0.85 -0.65 0.9 -0.65 0.95 -0.6 0.95 -0.6 1.0 -0.55 1.05 -0.5 1.05 -0.45 1.05 -0.35 1.1 -0.25 1.05 -0.3 1.15 -0.35 1.2 -0.45 1.2 -0.55 1.25 -0.55 1.25 -0.6 1.2 -0.65 1.15 -0.75 1.05 -0.8 1.05 -0.85 1.05 -0.85 1.1 -0.8 1.1 -0.85 1.1 -0.9 1.1 Q-1.0 1.05 -1.0 1.15 L-0.95 1.2 -0.9 1.15 -0.8 1.15 -0.8 1.2 Q-0.85 1.2 -0.9 1.25 L-0.95 1.35 -0.95 1.4 -0.9 1.45 -0.95 1.5 -1.0 1.5 -1.0 1.55 -0.95 1.6 -0.85 1.55 Q-0.85 1.5 -0.85 1.5 -0.8 1.45 -0.85 1.45 L-0.9 1.4 -0.85 1.4 -0.75 1.45 -0.75 1.25 -0.7 1.35 -0.65 1.35 Q-0.6 1.3 -0.65 1.25 L-0.7 1.2 -0.6 1.25 -0.55 1.3 Q-0.6 1.3 -0.65 1.4 L-0.75 1.45 -0.7 1.5 -0.65 1.5 -0.65 1.55 -0.6 1.5" fill="#ba9854" fill-rule="evenodd" stroke="none"/>
    <path d="M-0.8 1.1 L-0.85 1.1 -0.85 1.05 -0.8 1.05 -0.75 1.05 -0.65 1.15 -0.6 1.2 -0.55 1.25 -0.55 1.25 -0.45 1.2 -0.35 1.2 -0.5 1.35 -0.6 1.5 -0.65 1.5 -0.7 1.5 -0.75 1.45 -0.65 1.4 Q-0.6 1.3 -0.55 1.3 L-0.6 1.25 -0.7 1.2 -0.7 1.2 -0.75 1.15 -0.8 1.1" fill="#ab884b" fill-rule="evenodd" stroke="none"/>
    <path d="M-1.1 1.4 L-1.15 1.5 -1.1 1.6 -1.1 1.7 -1.05 1.75 -1.0 1.75 -0.95 1.8 -1.1 1.8 -1.1 1.7 Q-1.15 1.65 -1.15 1.65 -1.3 1.75 -1.4 1.7 L-1.4 1.5 -1.35 1.55 -1.35 1.6 -1.3 1.55 -1.25 1.5 -1.3 1.45 -1.3 1.35 -1.4 1.35 -1.4 0.9 -1.25 0.85 -1.2 0.7 -1.15 0.7 -1.1 0.7 -1.1 0.75 -1.15 0.7 -1.2 0.75 -1.2 0.85 Q-1.2 0.85 -1.15 0.9 L-1.1 0.9 -1.05 0.95 -1.0 1.0 -0.95 1.0 -0.95 1.05 -1.0 1.0 -1.05 1.05 -1.05 1.15 -1.1 1.2 -1.1 1.1 -1.2 1.1 -1.25 1.2 -1.25 1.3 -1.1 1.3 -1.1 1.4 -1.05 1.4 -1.1 1.4" fill="#a67b45" fill-rule="evenodd" stroke="none"/>
    <path d="M-0.8 1.1 L-0.75 1.15 -0.7 1.2 -0.7 1.2 -0.65 1.25 Q-0.6 1.3 -0.65 1.35 L-0.7 1.35 -0.75 1.25 -0.75 1.45 -0.85 1.4 -0.9 1.4 -0.95 1.4 -0.95 1.35 -0.9 1.25 Q-0.85 1.2 -0.8 1.2 L-0.8 1.15 -0.9 1.15 -0.95 1.2 -1.0 1.15 Q-1.0 1.05 -0.9 1.1 L-0.85 1.1 -0.8 1.1" fill="#c0a35b" fill-rule="evenodd" stroke="none"/>
    <path d="M-0.6 1.0 L-0.55 0.95 -0.55 0.95 -0.5 0.95 -0.45 0.95 Q-0.4 0.9 -0.35 0.95 L-0.35 0.9 -0.35 0.8 Q-0.35 0.75 -0.25 0.75 L-0.3 0.65 -0.3 0.6 -0.1 0.8 -0.15 0.85 -0.2 0.8 -0.2 0.9 -0.15 0.95 -0.25 1.05 -0.35 1.1 -0.45 1.05 -0.5 1.05 -0.55 1.05 -0.6 1.0" fill="#b38344" fill-rule="evenodd" stroke="none"/>
    <path d="M0.0 0.9 L0.0 0.9 -0.05 0.9 -0.1 0.9 -0.15 0.95 -0.2 0.9 -0.2 0.8 -0.15 0.85 -0.1 0.8 -0.05 0.85 -0.05 0.85 -0.05 0.85 0.0 0.9" fill="#9d6c3b" fill-rule="evenodd" stroke="none"/>
    <path d="M-0.55 1.5 L-0.6 1.5 -0.6 1.5 -0.3 1.2 -0.05 0.95 -0.3 1.2 -0.55 1.5 M-0.65 1.5 L-0.6 1.5 -0.65 1.55 -0.65 1.5" fill="#6b542c" fill-rule="evenodd" stroke="none"/>
    <path d="M-1.4 0.1 L-1.4 0.15 -1.45 0.15 -1.4 0.1" fill="#694133" fill-rule="evenodd" stroke="none"/>
    <path d="M-1.55 0.45 L-1.55 0.15 -1.55 0.1 -1.5 0.05 -1.5 0.1 -1.45 0.15 -1.45 0.3 -1.5 0.3 -1.45 0.4 Q-1.45 0.45 -1.45 0.5 L-1.5 0.45 -1.55 0.45" fill="#624e38" fill-rule="evenodd" stroke="none"/>
    <path d="M-0.3 1.95 L-1.5 1.95 -1.5 1.95 -1.45 1.9 -1.5 1.85 -1.55 1.85 -1.55 1.8 -1.5 1.75 -1.45 1.75 -1.45 1.55 -1.45 0.9 -1.55 0.9 -1.55 0.45 -1.5 0.45 -1.45 0.5 Q-1.45 0.55 -1.45 0.55 L-1.45 0.6 -1.4 0.65 -1.4 0.65 -1.4 0.9 -1.4 1.35 -1.4 1.5 -1.4 1.7 -1.4 1.8 -1.1 1.8 -0.95 1.8 -0.6 1.8 -0.2 1.8 -0.2 1.8 -0.85 1.8 -1.45 1.8 -1.4 1.85 -1.25 1.85 -1.05 1.85 -0.95 1.9 -0.9 1.9 -0.95 1.9 -0.95 1.85 -0.6 1.85 Q-0.6 1.9 -0.55 1.9 L-0.45 1.9 Q-0.4 1.9 -0.35 1.85 L-0.3 1.85 Q-0.25 1.9 -0.3 1.9 L-0.3 1.95" fill="#3c2a19" fill-rule="evenodd" stroke="none"/>
    <path d="M-1.55 1.4 L-1.55 0.9 -1.45 0.9 -1.45 1.55 -1.5 1.55 -1.55 1.55 -1.55 1.5 -1.5 1.45 -1.55 1.4" fill="#71542d" fill-rule="evenodd" stroke="none"/>
    <path d="M-1.4 1.35 L-1.3 1.35 -1.3 1.45 -1.25 1.5 -1.3 1.55 -1.35 1.6 -1.35 1.55 -1.4 1.5 -1.4 1.35" fill="#8c653b" fill-rule="evenodd" stroke="none"/>
    <path d="M-1.4 1.7 Q-1.3 1.75 -1.15 1.65 -1.15 1.65 -1.1 1.7 L-1.1 1.8 -1.4 1.8 -1.4 1.7" fill="#9d6b3d" fill-rule="evenodd" stroke="none"/>
    <path d="M-1.5 1.95 L-1.55 1.9 -1.55 1.6 -1.55 1.4 -1.5 1.45 -1.55 1.5 -1.55 1.55 -1.5 1.55 -1.45 1.55 -1.45 1.75 -1.5 1.75 -1.55 1.8 -1.55 1.85 -1.5 1.85 -1.45 1.9 -1.5 1.95" fill="#513b22" fill-rule="evenodd" stroke="none"/>
    <path d="M-0.05 1.45 L0.0 1.4 Q0.0 1.4 0.05 1.4 L0.0 1.45 -0.05 1.5 -0.05 1.55 -0.1 1.6 -0.05 1.45" fill="#967340" fill-rule="evenodd" stroke="none"/>
    <path d="M-0.5 1.5 L-0.5 1.6 -0.55 1.55 -0.5 1.45 -0.45 1.5 -0.5 1.5" fill="#8e7441" fill-rule="evenodd" stroke="none"/>
    <path d="M-0.95 1.4 L-0.9 1.4 -0.85 1.45 Q-0.8 1.45 -0.85 1.5 -0.85 1.5 -0.85 1.55 L-0.95 1.6 -1.0 1.55 -1.0 1.5 -0.95 1.5 -0.9 1.45 -0.95 1.4" fill="#96804a" fill-rule="evenodd" stroke="none"/>
    <path d="M-0.6 1.85 L-0.35 1.85 Q-0.4 1.9 -0.45 1.9 L-0.55 1.9 Q-0.6 1.9 -0.6 1.85" fill="#5b4632" fill-rule="evenodd" stroke="none"/>
    <path d="M-1.05 1.85 L-1.0 1.85 -0.95 1.85 -0.95 1.9 -0.9 1.9 -0.95 1.9 -1.05 1.85" fill="#745c3f" fill-rule="evenodd" stroke="none"/>
    <path d="M1.6 -1.9 L1.55 -1.95 1.45 -1.95 1.4 -1.95 1.3 -1.95 1.15 -1.95 1.0 -1.95 1.0 -1.95 0.9 -1.95 0.85 -1.95 0.85 -1.95 0.8 -1.95 0.75 -1.95 0.25 -1.95 -0.2 -1.95 -0.4 -1.95 -0.55 -1.95 -0.65 -1.95 -1.05 -1.95 -1.1 -1.95 -1.15 -1.95 -1.3 -1.95 -1.45 -1.95 Q-1.55 -1.9 -1.55 -1.8 L-1.55 -1.7 -1.55 -1.45 -1.55 -1.15 -1.55 -1.0 -1.55 -0.85 -1.55 -0.65 -1.5 -0.6 -1.5 -0.55 Q-1.55 -0.55 -1.55 -0.55 L-1.55 -0.6 -1.55 -0.35 -1.55 -0.1 -1.55 0.0 -1.55 0.15 -1.55 0.45 -1.55 0.9 -1.55 1.4 -1.55 1.6 -1.55 1.9 -1.5 1.95 -1.5 1.95 -0.3 1.95 0.55 1.95 0.85 1.95 1.15 1.95 1.25 1.95 1.3 1.95 1.35 1.95 1.4 1.95 1.45 1.95 1.55 1.95 1.5 1.95 1.6 1.95 1.65 1.85 1.65 1.6 1.65 1.55 1.65 1.35 1.65 1.3 1.6 1.25 1.6 1.2 1.65 1.15 1.6 1.15 1.65 1.1 1.65 1.0 1.65 0.9 1.65 0.7 1.65 0.5 1.65 0.45 1.6 0.4 1.65 0.35 1.6 0.3 1.65 0.25 1.65 0.15 1.65 0.05 1.6 0.05 1.6 0.0 1.65 -0.15 1.65 -0.3 1.65 -0.4 1.65 -0.45 1.65 -0.45 1.65 -0.5 1.65 -0.65 Q1.6 -0.65 1.6 -0.65 L1.65 -0.7 1.65 -0.9 1.65 -0.9 1.65 -1.05 1.65 -1.15 1.65 -1.3 1.65 -1.35 1.65 -1.8 1.65 -1.85 1.6 -1.9 Z" fill="none" stroke="#000000" stroke-linecap="round" stroke-linejoin="round" stroke-opacity="0.4509804" stroke-width="1.0"/>
  </g>
  <defs>
    <radialGradient cx="0" cy="0" gradientTransform="matrix(0.0038, 0.0, 0.0, 0.0038, 0.0, 0.0)" gradientUnits="userSpaceOnUse" id="gradient0" r="819.2" spreadMethod="pad">
      <stop offset="0.0" stop-color="#29c6c2"/>
      <stop offset="1.0" stop-color="#1a3f46"/>
    </radialGradient>
  </defs>
</svg>
