<?xml version="1.0" encoding="UTF-8" standalone="no"?>
<svg xmlns:xlink="http://www.w3.org/1999/xlink" height="4.9px" width="4.8px" xmlns="http://www.w3.org/2000/svg">
  <g transform="matrix(1.0, 0.0, 0.0, 1.0, 2.4, 2.45)">
    <path d="M-1.45 1.6 L-1.5 1.6 -1.45 1.6 -1.45 1.6" fill="#164b23" fill-rule="evenodd" stroke="none"/>
    <path d="M0.0 -0.05 L0.15 -0.1 0.25 -0.1 0.3 -0.05 0.35 -0.05 0.4 0.1 0.4 0.3 0.35 0.35 0.25 0.4 0.2 0.4 0.05 0.35 Q-0.05 0.25 -0.05 0.15 -0.05 0.05 0.0 -0.05 M0.05 0.15 L0.2 0.25 0.25 0.2 0.3 0.15 0.25 0.1 0.2 0.05 0.15 0.05 Q0.1 0.05 0.05 0.15" fill="#171614" fill-rule="evenodd" stroke="none"/>
    <path d="M2.05 -2.1 L1.9 -1.9 0.8 -1.95 -0.55 -1.95 -1.9 -1.95 -1.9 -1.95 -2.4 -2.45 2.4 -2.45 2.05 -2.1 M0.85 -1.45 L1.25 -1.35 1.25 -1.2 1.25 -1.2 1.25 -1.05 1.1 -1.05 0.85 -1.0 0.75 -1.0 0.55 -0.95 0.65 -1.15 0.8 -1.3 0.8 -1.4 0.85 -1.45 M0.15 -1.55 L0.45 -1.5 0.4 -1.4 0.4 -1.35 0.3 -1.2 0.15 -1.0 0.1 -1.25 0.15 -1.4 0.15 -1.55 M0.3 -0.8 L0.35 -0.8 Q0.5 -0.8 0.5 -0.65 L0.5 -0.6 0.45 -0.55 0.45 -0.55 0.35 -0.5 Q0.25 -0.5 0.25 -0.55 L0.2 -0.65 0.25 -0.75 0.3 -0.8 M0.0 -0.05 Q-0.05 0.05 -0.05 0.15 -0.05 0.25 0.05 0.35 L0.2 0.4 0.25 0.4 0.35 0.35 0.4 0.3 0.4 0.1 0.35 -0.05 0.3 -0.05 0.25 -0.1 0.15 -0.1 0.0 -0.05 M1.25 -0.2 L1.15 -0.2 0.9 -0.2 0.65 -0.3 0.6 -0.4 Q0.7 -0.75 0.9 -0.75 1.05 -0.75 1.3 -0.6 L1.25 -0.2 M0.35 -0.3 L0.4 -0.25 Q0.55 -0.05 0.55 0.15 L0.5 0.35 0.4 0.5 0.05 0.5 Q-0.1 0.5 -0.2 0.4 -0.35 0.25 -0.35 0.15 L-0.3 -0.05 -0.2 -0.2 Q-0.05 -0.4 0.1 -0.4 0.25 -0.4 0.35 -0.3 M1.25 0.35 L1.25 0.75 1.2 0.8 1.1 0.8 0.85 0.75 Q0.65 0.65 0.65 0.55 0.65 0.5 0.8 0.4 L1.2 0.35 1.25 0.35 M1.3 1.25 L1.3 1.4 1.05 1.35 1.05 1.45 1.1 1.5 0.75 1.45 0.5 1.45 0.5 1.4 0.45 1.1 0.75 1.2 0.8 1.25 1.05 1.3 1.2 1.3 1.3 1.25 M0.05 0.15 Q0.1 0.05 0.15 0.05 L0.2 0.05 0.25 0.1 0.3 0.15 0.25 0.2 0.2 0.25 0.05 0.15 M-0.2 1.45 L-0.2 1.3 Q-0.15 1.0 -0.05 0.95 0.1 1.1 0.2 1.4 L0.2 1.45 -0.2 1.45 M0.3 0.7 L0.35 0.6 0.4 0.65 0.5 0.65 0.55 0.75 0.5 0.8 0.5 0.85 0.4 0.85 0.3 0.85 0.25 0.75 0.25 0.7 0.3 0.7 M-1.7 -0.9 L-1.7 -0.95 Q-1.7 -1.2 -1.75 -1.35 L-1.7 -1.35 -1.65 -1.35 -1.6 -1.3 -1.55 -1.3 -1.5 -1.3 -1.3 -1.25 -1.35 -1.5 -0.8 -1.55 -0.85 -1.45 -0.85 -1.05 -0.85 -1.0 -0.7 -0.7 -0.7 -0.7 -1.0 -0.9 -1.0 -0.9 -1.3 -0.95 -1.7 -0.9 M-0.3 -1.55 L-0.3 -1.45 -0.3 -1.25 -0.3 -0.95 Q-0.4 -0.9 -0.45 -0.9 -0.5 -0.9 -0.6 -1.0 L-0.7 -1.15 -0.7 -1.25 -0.6 -1.45 -0.55 -1.5 -0.5 -1.55 -0.35 -1.55 -0.3 -1.55 M-1.8 -0.05 L-1.75 -0.25 -1.7 -0.5 -1.7 -0.5 -1.5 -0.55 -1.1 -0.45 Q-0.8 -0.3 -0.65 -0.15 L-0.7 -0.1 -1.4 -0.1 -1.8 -0.05 M-1.8 0.1 L-1.4 0.05 -1.25 0.05 -0.65 0.1 -0.8 0.4 -0.95 0.55 -0.95 0.6 -1.1 0.65 -1.05 0.55 -1.3 0.5 -1.45 0.5 -1.7 0.4 -1.75 0.35 -1.8 0.1 M-0.4 0.45 Q-0.25 0.45 -0.25 0.6 L-0.25 0.65 -0.25 0.65 -0.3 0.7 -0.35 0.7 -0.4 0.7 -0.5 0.7 -0.55 0.6 -0.5 0.5 Q-0.5 0.45 -0.4 0.45 M-0.35 -0.65 L-0.25 -0.65 -0.2 -0.55 -0.2 -0.4 -0.25 -0.4 -0.35 -0.4 -0.45 -0.4 Q-0.5 -0.45 -0.5 -0.55 -0.5 -0.65 -0.35 -0.65 M-1.75 0.8 L-1.7 0.8 -1.4 0.8 -1.0 0.8 -0.6 0.6 Q-0.85 0.75 -0.95 1.1 L-1.05 1.45 -0.85 1.2 -0.85 1.2 Q-0.7 1.0 -0.55 0.95 L-0.55 1.4 -0.6 1.5 -0.95 1.5 -1.05 1.5 -1.05 1.5 -1.35 1.5 -1.3 1.1 -1.3 1.1 -1.7 1.15 -1.7 1.15 -1.75 0.95 -1.75 0.8" fill="#1c3026" fill-rule="evenodd" stroke="none"/>
    <path d="M1.9 -1.9 L1.9 -0.55 1.7 -0.85 Q1.55 -1.0 1.25 -1.05 L1.25 -1.2 1.3 -1.2 1.5 -1.2 1.6 -1.2 1.75 -1.25 1.7 -1.4 1.75 -1.7 1.7 -1.7 1.25 -1.6 1.25 -1.4 1.25 -1.35 0.85 -1.45 0.85 -1.7 0.8 -1.95 1.9 -1.9 M1.9 0.95 L1.9 1.9 1.9 1.95 0.5 1.95 0.5 1.75 0.5 1.45 0.75 1.45 1.1 1.5 1.15 1.85 1.7 1.8 1.65 1.6 1.6 1.35 1.55 1.4 1.4 1.4 1.3 1.4 1.3 1.25 Q1.55 1.2 1.8 1.05 L1.9 0.95 M0.15 -1.55 Q0.2 -1.75 0.35 -1.75 0.5 -1.75 0.5 -1.6 L0.45 -1.5 0.15 -1.55 M1.25 -0.2 L1.3 -0.6 1.4 -0.55 1.65 -0.35 1.55 -0.3 1.25 -0.2 M1.25 0.35 L1.3 0.35 1.5 0.35 1.6 0.4 1.45 0.65 Q1.35 0.75 1.25 0.75 L1.25 0.35 M-0.2 1.45 L0.2 1.45 0.2 1.55 0.25 1.75 -0.1 1.75 -0.25 1.7 -0.2 1.5 -0.2 1.45 M-2.4 -0.2 L-2.4 -2.45 -1.9 -1.95 -1.9 -1.95 -0.55 -1.95 -0.6 -1.9 Q-0.7 -1.85 -0.8 -1.65 L-0.8 -1.55 -1.35 -1.5 -1.35 -1.6 Q-1.4 -1.7 -1.7 -1.7 L-2.1 -1.75 -2.1 -1.35 -1.8 -1.35 -1.75 -1.35 Q-1.7 -1.2 -1.7 -0.95 L-1.7 -0.9 -1.8 -0.85 -2.05 -0.7 Q-2.35 -0.5 -2.4 -0.2 M-0.3 -1.55 L-0.35 -1.55 -0.5 -1.55 -0.35 -1.65 -0.3 -1.55 M-1.7 -0.5 L-1.7 -0.5 -1.75 -0.25 -1.8 -0.05 -1.85 -0.05 -1.85 -0.05 -1.9 -0.1 -1.8 -0.4 -1.7 -0.5 M-1.8 0.1 L-1.75 0.35 -1.85 0.25 -1.9 0.15 -1.85 0.15 -1.8 0.1 M-0.6 1.5 L-0.6 1.7 Q-0.95 1.7 -1.05 1.5 L-1.05 1.95 -1.9 1.95 -2.4 2.45 -2.4 0.0 -2.35 0.3 Q-2.35 0.4 -2.15 0.6 L-1.8 0.75 -1.75 0.8 -1.75 0.95 -1.7 1.15 -2.0 1.15 -2.0 1.4 -2.05 1.55 -2.05 1.65 -2.05 1.65 -1.95 1.65 -1.8 1.65 -1.45 1.6 -1.35 1.65 -1.35 1.5 -1.05 1.5 -0.95 1.5 -0.6 1.5" fill="#0f1e1d" fill-rule="evenodd" stroke="none"/>
    <path d="M1.9 -0.55 L1.9 0.95 1.8 1.05 Q1.55 1.2 1.3 1.25 L1.2 1.3 1.05 1.3 0.8 1.25 0.75 1.2 0.45 1.1 0.5 1.4 0.5 1.45 0.5 1.75 0.5 1.95 1.9 1.95 1.9 1.9 2.0 2.0 2.4 2.4 2.4 2.45 -2.4 2.45 -1.9 1.95 -1.05 1.95 -1.05 1.5 Q-0.95 1.7 -0.6 1.7 L-0.6 1.5 -0.55 1.4 -0.55 0.95 Q-0.7 1.0 -0.85 1.2 L-0.85 1.2 -1.05 1.45 -0.95 1.1 Q-0.85 0.75 -0.6 0.6 L-1.0 0.8 -1.4 0.8 -1.7 0.8 -1.75 0.8 -1.8 0.75 -2.15 0.6 Q-2.35 0.4 -2.35 0.3 L-2.4 0.0 -2.4 -0.2 Q-2.35 -0.5 -2.05 -0.7 L-1.8 -0.85 -1.7 -0.9 -1.3 -0.95 -1.0 -0.9 -1.0 -0.9 -0.7 -0.7 -0.7 -0.7 -0.85 -1.0 -0.85 -1.05 -0.85 -1.45 -0.8 -1.55 -0.8 -1.65 Q-0.7 -1.85 -0.6 -1.9 L-0.55 -1.95 0.8 -1.95 0.85 -1.7 0.85 -1.45 0.8 -1.4 0.8 -1.3 0.65 -1.15 0.55 -0.95 0.75 -1.0 0.85 -1.0 1.1 -1.05 1.25 -1.05 Q1.55 -1.0 1.7 -0.85 L1.9 -0.55 M1.25 -1.35 L1.25 -1.4 1.25 -1.6 1.7 -1.7 1.75 -1.7 1.7 -1.4 1.75 -1.25 1.6 -1.2 1.5 -1.2 1.3 -1.2 1.25 -1.2 1.25 -1.2 1.25 -1.35 M0.45 -1.5 L0.5 -1.6 Q0.5 -1.75 0.35 -1.75 0.2 -1.75 0.15 -1.55 L0.15 -1.4 0.1 -1.25 0.15 -1.0 0.3 -1.2 0.4 -1.35 0.4 -1.4 0.45 -1.5 M0.3 -0.8 L0.25 -0.75 0.2 -0.65 0.25 -0.55 Q0.25 -0.5 0.35 -0.5 L0.45 -0.55 0.45 -0.55 0.5 -0.6 0.5 -0.65 Q0.5 -0.8 0.35 -0.8 L0.3 -0.8 M0.35 -0.3 Q0.25 -0.4 0.1 -0.4 -0.05 -0.4 -0.2 -0.2 L-0.3 -0.05 -0.35 0.15 Q-0.35 0.25 -0.2 0.4 -0.1 0.5 0.05 0.5 L0.4 0.5 0.5 0.35 0.55 0.15 Q0.55 -0.05 0.4 -0.25 L0.35 -0.3 M1.3 -0.6 Q1.05 -0.75 0.9 -0.75 0.7 -0.75 0.6 -0.4 L0.65 -0.3 0.9 -0.2 1.15 -0.2 1.25 -0.2 1.55 -0.3 1.65 -0.35 1.4 -0.55 1.3 -0.6 M1.25 0.75 Q1.35 0.75 1.45 0.65 L1.6 0.4 1.5 0.35 1.3 0.35 1.25 0.35 1.2 0.35 0.8 0.4 Q0.65 0.5 0.65 0.55 0.65 0.65 0.85 0.75 L1.1 0.8 1.2 0.8 1.25 0.75 M1.3 1.4 L1.4 1.4 1.55 1.4 1.6 1.35 1.65 1.6 1.7 1.8 1.15 1.85 1.1 1.5 1.05 1.45 1.05 1.35 1.3 1.4 M0.3 0.7 L0.25 0.7 0.25 0.75 0.3 0.85 0.4 0.85 0.5 0.85 0.5 0.8 0.55 0.75 0.5 0.65 0.4 0.65 0.35 0.6 0.3 0.7 M0.2 1.45 L0.2 1.4 Q0.1 1.1 -0.05 0.95 -0.15 1.0 -0.2 1.3 L-0.2 1.45 -0.2 1.5 -0.25 1.7 -0.1 1.75 0.25 1.75 0.2 1.55 0.2 1.45 M-1.75 -1.35 L-1.8 -1.35 -2.1 -1.35 -2.1 -1.75 -1.7 -1.7 Q-1.4 -1.7 -1.35 -1.6 L-1.35 -1.5 -1.3 -1.25 -1.5 -1.3 -1.55 -1.3 -1.6 -1.3 -1.65 -1.35 -1.7 -1.35 -1.75 -1.35 M-0.5 -1.55 L-0.55 -1.5 -0.6 -1.45 -0.7 -1.25 -0.7 -1.15 -0.6 -1.0 Q-0.5 -0.9 -0.45 -0.9 -0.4 -0.9 -0.3 -0.95 L-0.3 -1.25 -0.3 -1.45 -0.3 -1.55 -0.35 -1.65 -0.5 -1.55 M-1.7 -0.5 L-1.8 -0.4 -1.9 -0.1 -1.85 -0.05 -1.85 -0.05 -1.8 -0.05 -1.4 -0.1 -0.7 -0.1 -0.65 -0.15 Q-0.8 -0.3 -1.1 -0.45 L-1.5 -0.55 -1.7 -0.5 M-0.35 -0.65 Q-0.5 -0.65 -0.5 -0.55 -0.5 -0.45 -0.45 -0.4 L-0.35 -0.4 -0.25 -0.4 -0.2 -0.4 -0.2 -0.55 -0.25 -0.65 -0.35 -0.65 M-0.4 0.45 Q-0.5 0.45 -0.5 0.5 L-0.55 0.6 -0.5 0.7 -0.4 0.7 -0.35 0.7 -0.3 0.7 -0.25 0.65 -0.25 0.65 -0.25 0.6 Q-0.25 0.45 -0.4 0.45 M-1.75 0.35 L-1.7 0.4 -1.45 0.5 -1.3 0.5 -1.05 0.55 -1.1 0.65 -0.95 0.6 -0.95 0.55 -0.8 0.4 -0.65 0.1 -1.25 0.05 -1.4 0.05 -1.8 0.1 -1.85 0.15 -1.9 0.15 -1.85 0.25 -1.75 0.35 M-1.05 1.5 L-1.05 1.5 M-1.7 1.15 L-1.7 1.15 -1.3 1.1 -1.3 1.1 -1.35 1.5 -1.35 1.65 -1.45 1.6 -1.8 1.65 -1.95 1.65 -2.05 1.65 -2.05 1.65 -2.05 1.55 -2.0 1.4 -2.0 1.15 -1.7 1.15 M-1.45 1.6 L-1.45 1.6 -1.5 1.6 -1.45 1.6" fill="#08100f" fill-rule="evenodd" stroke="none"/>
    <path d="M1.9 -0.55 L1.9 -1.9 2.05 -2.1 2.15 -1.95 2.2 -1.75 2.2 -0.5 2.15 1.2 2.15 1.8 2.0 2.0 1.9 1.9 1.9 0.95 1.9 -0.55" fill="#2f5140" fill-rule="evenodd" stroke="none"/>
    <path d="M2.0 2.0 L2.15 1.8 2.15 1.2 2.2 -0.5 2.2 -1.75 2.15 -1.95 2.05 -2.1 2.4 -2.45 2.4 2.4 2.0 2.0" fill="#455d54" fill-rule="evenodd" stroke="none"/>
    <path d="M2.4 2.4 L2.4 -2.45 -2.4 -2.45 -2.4 2.45 2.4 2.45 2.4 2.4 Z" fill="none" stroke="#000000" stroke-linecap="round" stroke-linejoin="round" stroke-opacity="0.4509804" stroke-width="1.0"/>
  </g>
</svg>
