<?xml version="1.0" encoding="UTF-8" standalone="no"?>
<svg xmlns:xlink="http://www.w3.org/1999/xlink" height="3.95px" width="4.1px" xmlns="http://www.w3.org/2000/svg">
  <g transform="matrix(1.0, 0.0, 0.0, 1.0, 1.9, 1.85)">
    <path d="M-1.05 -1.55 L-1.05 -1.45 -1.1 -1.4 -1.15 -1.45 -1.15 -1.35 -1.2 -1.3 -1.25 -1.3 -1.3 -1.35 -1.45 -1.5 -1.7 -1.6 -1.75 -1.5 -1.85 -1.4 -1.9 -1.25 Q-1.9 -1.15 -1.85 -1.1 -1.7 -1.0 -1.5 -0.95 L-1.4 -0.85 -1.25 -0.75 Q-1.2 -0.75 -1.2 -0.8 L-1.1 -0.85 -1.05 -0.95 -0.95 -1.05 -0.95 -1.1 -1.0 -1.05 -1.1 -1.15 -1.1 -1.25 -1.05 -1.25 -0.95 -1.3 -0.9 -1.35 -0.8 -1.25 Q-0.75 -1.2 -0.7 -1.25 L-0.75 -1.2 -0.65 -1.3 -0.65 -1.25 -0.65 -1.2 -0.7 -1.15 -0.75 -1.2 -0.85 -1.2 -0.85 -1.2 -0.95 -1.15 -0.9 -1.1 -0.85 -1.15 -0.85 -1.15 Q-0.85 -1.05 -0.8 -0.95 L-0.85 -0.95 -0.9 -1.05 -1.05 -0.9 -1.15 -0.8 -1.2 -0.75 -1.25 -0.7 -1.25 -0.7 Q-1.4 -0.9 -1.55 -0.95 -1.6 -0.95 -1.7 -1.0 -1.8 -1.05 -1.8 -1.05 L-1.9 -1.2 -1.9 -1.35 -1.8 -1.5 Q-1.7 -1.6 -1.7 -1.65 L-1.65 -1.65 -1.65 -1.7 -1.55 -1.85 -1.45 -1.8 -1.4 -1.8 -1.2 -1.7 -1.05 -1.55 M-1.25 -1.3 Q-1.2 -1.35 -1.25 -1.35 L-1.25 -1.3 M-1.2 -1.3 L-1.2 -1.3 M-1.55 -1.8 L-1.6 -1.75 -1.6 -1.7 -1.55 -1.75 -1.55 -1.8 M-1.55 -1.6 L-1.5 -1.6 -1.45 -1.65 -1.6 -1.6 -1.55 -1.6 M-0.95 -0.95 L-0.95 -1.0 -0.9 -0.95 -0.95 -0.95" fill="#070608" fill-rule="evenodd" stroke="none"/>
    <path d="M-1.05 -1.55 L-1.0 -1.45 -0.9 -1.35 -1.0 -1.4 -1.05 -1.45 -1.05 -1.55" fill="#696564" fill-rule="evenodd" stroke="none"/>
    <path d="M-0.65 -1.0 L-0.6 -0.95 -0.5 -0.85 -0.15 -0.55 -0.1 -0.5 0.0 -0.35 0.05 -0.3 0.1 -0.3 0.45 0.05 0.55 0.2 0.7 0.3 1.15 0.8 1.2 0.85 1.4 1.05 1.7 1.3 1.7 1.4 1.9 1.55 2.15 1.8 2.2 1.85 2.2 1.9 2.05 1.8 1.95 1.7 1.85 1.55 1.5 1.2 1.45 1.2 1.4 1.15 1.3 1.05 0.75 0.45 0.65 0.4 0.7 0.45 0.6 0.4 0.6 0.35 0.4 0.15 0.35 0.1 0.45 0.15 0.05 -0.25 0.05 -0.3 0.0 -0.3 0.0 -0.35 -0.15 -0.45 -0.2 -0.5 -0.4 -0.7 -0.55 -0.8 -0.65 -0.9 -0.65 -0.9 -0.7 -0.9 -0.7 -0.85 -0.75 -0.9 -0.7 -0.9 -0.65 -1.0 -0.65 -1.0 M-1.15 -1.35 L-1.15 -1.45 -1.1 -1.4 -1.1 -1.35 -1.15 -1.35" fill="#a8a5a6" fill-rule="evenodd" stroke="none"/>
    <path d="M-1.05 -1.45 L-1.0 -1.4 -0.9 -1.35 -0.9 -1.35 -0.95 -1.3 -1.0 -1.35 -1.05 -1.35 -1.05 -1.25 -1.1 -1.25 -1.1 -1.15 -1.15 -1.2 -1.15 -1.25 -1.2 -1.2 -1.25 -1.25 -1.3 -1.35 -1.25 -1.3 -1.2 -1.3 -1.15 -1.35 -1.1 -1.35 -1.1 -1.4 -1.05 -1.45 M-1.2 -1.3 L-1.2 -1.25 Q-1.2 -1.25 -1.2 -1.3 M-1.25 -1.3 L-1.25 -1.3" fill="#342f2e" fill-rule="evenodd" stroke="none"/>
    <path d="M-1.05 -1.25 L-1.05 -1.35 -1.0 -1.35 -0.95 -1.3 -1.05 -1.25 M-0.85 -0.95 L-0.8 -0.95 -0.8 -0.9 -0.85 -0.9 -0.85 -0.95" fill="#f1f1f2" fill-rule="evenodd" stroke="none"/>
    <path d="M-0.6 -1.1 L-0.6 -1.0 -0.65 -1.0 -0.7 -1.1 -0.75 -1.1 -0.7 -0.9 -0.75 -0.9 -0.8 -0.9 -0.8 -0.85 -0.85 -0.9 -0.95 -0.95 -0.9 -0.95 -0.95 -1.0 -0.95 -0.95 -1.0 -0.9 -1.05 -0.9 -0.9 -1.05 -0.85 -0.95 -0.85 -0.9 -0.8 -0.9 -0.8 -0.95 Q-0.85 -1.05 -0.85 -1.15 L-0.85 -1.15 -0.85 -1.2 -0.75 -1.2 -0.7 -1.15 -0.6 -1.1 M-0.65 -1.0 L-0.65 -1.0" fill="#544e4e" fill-rule="evenodd" stroke="none"/>
    <path d="M-0.7 -1.25 L-0.6 -1.35 -0.45 -1.4 -0.4 -1.35 -0.45 -1.35 -0.55 -1.35 -0.55 -1.35 -0.6 -1.3 -0.65 -1.25 -0.65 -1.3 -0.75 -1.2 -0.7 -1.25" fill="#817f80" fill-rule="evenodd" stroke="none"/>
    <path d="M-0.55 -1.35 L-0.55 -1.3 -0.6 -1.3 -0.55 -1.35 -0.55 -1.35" fill="#1b1718" fill-rule="evenodd" stroke="none"/>
    <path d="M-0.7 -0.9 L-0.75 -1.1 -0.7 -1.1 -0.65 -1.0 -0.7 -0.9" fill="#edeef1" fill-rule="evenodd" stroke="none"/>
    <path d="M-0.6 -1.1 L-0.5 -0.95 -0.3 -0.8 -0.15 -0.6 -0.05 -0.55 0.05 -0.4 0.1 -0.35 2.2 1.8 2.2 1.85 2.15 1.8 1.9 1.55 1.7 1.4 1.7 1.3 1.4 1.05 1.2 0.85 1.15 0.8 0.7 0.3 0.55 0.2 0.45 0.05 0.1 -0.3 0.05 -0.3 0.0 -0.35 -0.1 -0.5 -0.15 -0.55 -0.5 -0.85 -0.6 -0.95 -0.65 -1.0 -0.6 -1.0 -0.6 -1.1" fill="#666160" fill-rule="evenodd" stroke="none"/>
    <path d="M-0.7 -0.85 L-0.7 -0.9 -0.65 -0.9 -0.65 -0.9 -0.55 -0.8 -0.4 -0.7 -0.2 -0.5 -0.15 -0.45 0.0 -0.35 0.0 -0.3 0.05 -0.3 0.05 -0.25 0.45 0.15 0.35 0.1 0.4 0.15 0.6 0.35 0.6 0.4 0.7 0.45 0.65 0.4 0.75 0.45 1.3 1.05 1.4 1.15 1.45 1.2 1.5 1.2 1.85 1.55 1.95 1.7 2.05 1.8 2.2 1.9 2.2 2.05 1.8 1.65 1.75 1.65 1.75 1.6 1.7 1.6 1.7 1.55 1.65 1.5 1.6 1.45 1.4 1.25 1.25 1.1 1.15 1.05 1.1 1.0 0.95 0.8 0.9 0.75 0.8 0.7 0.75 0.65 0.7 0.55 0.6 0.5 0.5 0.4 0.4 0.25 0.25 0.1 0.05 -0.1 -0.05 -0.2 -0.05 -0.2 -0.1 -0.3 -0.25 -0.35 -0.4 -0.55 -0.7 -0.85" fill="#e3e7eb" fill-rule="evenodd" stroke="none"/>
    <path d="M-1.55 -1.8 L-1.55 -1.75 -1.6 -1.7 -1.6 -1.75 -1.55 -1.8" fill="#dadadd" fill-rule="evenodd" stroke="none"/>
    <path d="M-1.55 -1.6 L-1.6 -1.6 -1.45 -1.65 -1.5 -1.6 -1.55 -1.6" fill="#695e74" fill-rule="evenodd" stroke="none"/>
    <path d="M-1.25 -1.3 L-1.25 -1.35 Q-1.2 -1.35 -1.25 -1.3 L-1.25 -1.3" fill="#b2b4b6" fill-rule="evenodd" stroke="none"/>
    <path d="M-1.2 -1.3 L-1.2 -1.3 Q-1.2 -1.25 -1.2 -1.25 L-1.2 -1.3" fill="#888191" fill-rule="evenodd" stroke="none"/>
    <path d="M-0.8 -0.85 L-0.8 -0.9 -0.75 -0.9 -0.7 -0.85 -0.4 -0.55 -0.25 -0.35 -0.1 -0.3 -0.05 -0.2 -0.05 -0.2 0.05 -0.1 0.25 0.1 0.4 0.25 0.5 0.4 0.6 0.5 0.7 0.55 0.75 0.65 0.8 0.7 0.9 0.75 0.95 0.8 1.1 1.0 1.15 1.05 1.25 1.1 1.4 1.25 1.6 1.45 1.65 1.5 1.7 1.55 1.7 1.6 1.75 1.6 1.75 1.65 1.8 1.65 2.2 2.05 2.2 2.1 -0.15 -0.25 -0.25 -0.35 -0.4 -0.45 -0.75 -0.8 -0.8 -0.85 -0.8 -0.85" fill="#171516" fill-rule="evenodd" stroke="none"/>
    <path d="M2.2 1.8 L0.1 -0.35 0.05 -0.4 -0.05 -0.55 -0.15 -0.6 -0.3 -0.8 -0.5 -0.95 -0.6 -1.1 -0.7 -1.15 -0.65 -1.2 -0.65 -1.25 -0.6 -1.3 -0.55 -1.3 -0.55 -1.35 -0.45 -1.35 -0.4 -1.35 -0.45 -1.4 -0.6 -1.35 -0.7 -1.25 Q-0.75 -1.2 -0.8 -1.25 L-0.9 -1.35 -1.0 -1.45 -1.05 -1.55 -1.2 -1.7 -1.4 -1.8 -1.45 -1.8 -1.55 -1.85 -1.65 -1.7 -1.65 -1.65 -1.7 -1.65 Q-1.7 -1.6 -1.8 -1.5 L-1.9 -1.35 -1.9 -1.2 -1.8 -1.05 Q-1.8 -1.05 -1.7 -1.0 -1.6 -0.95 -1.55 -0.95 -1.4 -0.9 -1.25 -0.7 L-1.25 -0.7 -1.2 -0.75 -1.15 -0.8 -1.05 -0.9 -1.0 -0.9 -0.95 -0.95 -0.85 -0.9 -0.8 -0.85 -0.8 -0.85 -0.75 -0.8 -0.4 -0.45 -0.25 -0.35 -0.15 -0.25 2.2 2.1 M-0.9 -1.35 L-0.9 -1.35 M-1.1 -1.15 L-1.0 -1.05 -0.95 -1.1 -0.95 -1.05 -1.05 -0.95 -1.1 -0.85 -1.2 -0.8 Q-1.2 -0.75 -1.25 -0.75 L-1.4 -0.85 -1.5 -0.95 Q-1.7 -1.0 -1.85 -1.1 -1.9 -1.15 -1.9 -1.25 L-1.85 -1.4 -1.75 -1.5 -1.7 -1.6 -1.45 -1.5 -1.3 -1.35 -1.25 -1.25 -1.2 -1.2 -1.15 -1.25 -1.15 -1.2 -1.1 -1.15 M-0.85 -1.15 L-0.9 -1.1 -0.95 -1.15 -0.85 -1.2 -0.85 -1.2 -0.85 -1.15 Z" fill="none" stroke="#000000" stroke-linecap="round" stroke-linejoin="round" stroke-opacity="0.4509804" stroke-width="1.0"/>
  </g>
</svg>
