<?xml version="1.0" encoding="UTF-8" standalone="no"?>
<svg xmlns:xlink="http://www.w3.org/1999/xlink" height="3.85px" width="3.8px" xmlns="http://www.w3.org/2000/svg">
  <g transform="matrix(1.0, 0.0, 0.0, 1.0, 1.8, 1.85)">
    <path d="M-1.1 -1.15 Q-0.6 -1.65 0.1 -1.65 0.8 -1.65 1.3 -1.15 L1.4 -1.05 Q1.7 -0.7 1.8 -0.2 L1.8 0.05 Q1.8 0.75 1.3 1.25 L1.25 1.3 Q0.75 1.75 0.1 1.75 -0.6 1.75 -1.1 1.25 -1.6 0.75 -1.6 0.05 L-1.55 -0.2 Q-1.5 -0.75 -1.1 -1.15 M1.3 0.05 L1.25 -0.2 Q1.2 -0.5 1.0 -0.75 L0.95 -0.8 Q0.6 -1.1 0.1 -1.1 -0.2 -1.1 -0.4 -1.0 L-0.75 -0.8 -0.75 -0.75 Q-1.0 -0.55 -1.05 -0.2 L-1.1 0.05 -1.1 0.1 Q-1.05 0.55 -0.75 0.9 -0.5 1.15 -0.2 1.2 L0.1 1.25 0.15 1.25 Q0.6 1.25 0.9 0.9 L0.95 0.9 0.95 0.85 1.15 0.6 1.25 0.2 1.3 0.1 1.3 0.05" fill="url(#gradient0)" fill-rule="evenodd" stroke="none"/>
    <path d="M-1.1 0.05 L-1.05 -0.2 Q-1.0 -0.55 -0.75 -0.75 L-0.75 -0.8 -0.4 -1.0 Q-0.2 -1.1 0.1 -1.1 0.6 -1.1 0.95 -0.8 L1.0 -0.75 Q1.2 -0.5 1.25 -0.2 L1.3 0.05 1.25 -0.2 Q1.2 -0.45 1.0 -0.7 L0.95 -0.75 Q0.6 -1.1 0.1 -1.1 L-0.4 -0.95 -0.75 -0.75 Q-0.95 -0.5 -1.05 -0.2 L-1.1 0.05 M-0.15 0.4 L-0.2 0.4 -0.2 0.35 -0.15 0.4 M-0.15 0.6 L-0.1 0.6 -0.05 0.6 0.05 0.6 0.05 0.65 0.0 0.65 -0.1 0.6 -0.15 0.6 M0.15 0.75 L0.15 0.6 0.3 0.55 0.4 0.45 0.45 0.35 0.5 0.25 0.45 0.1 0.4 0.0 0.35 -0.05 0.4 0.05 0.5 0.15 0.5 0.4 0.45 0.5 0.35 0.6 0.2 0.6 0.2 0.75 0.15 0.75 M0.2 -0.1 L0.15 -0.1 0.15 -0.4 0.3 -0.4 0.4 -0.35 0.45 -0.5 0.45 -0.35 0.4 -0.35 0.3 -0.4 0.2 -0.4 0.2 -0.1 M0.15 -0.6 L0.15 -0.65 0.2 -0.65 0.2 -0.6 0.15 -0.6 M0.0 -0.15 L0.0 -0.2 -0.05 -0.3 -0.05 -0.35 0.0 -0.4 0.05 -0.4 0.05 -0.4 0.0 -0.35 0.0 -0.25 0.0 -0.15 M0.05 -0.4 L0.05 -0.4 M0.15 0.15 L0.2 0.2 0.2 0.45 0.15 0.45 0.15 0.15" fill="#ffeab8" fill-rule="evenodd" stroke="none"/>
    <path d="M1.3 0.05 L1.3 0.1 1.25 0.2 1.15 0.6 0.95 0.85 0.95 0.9 0.9 0.9 Q0.6 1.25 0.15 1.25 L0.1 1.25 -0.2 1.2 Q-0.5 1.15 -0.75 0.9 -1.05 0.55 -1.1 0.1 L-1.1 0.05 -1.05 -0.2 Q-0.95 -0.5 -0.75 -0.75 L-0.4 -0.95 0.1 -1.1 Q0.6 -1.1 0.95 -0.75 L1.0 -0.7 Q1.2 -0.45 1.25 -0.2 L1.3 0.05 M1.1 -0.45 L1.1 -0.45 1.1 -0.5 1.05 -0.5 1.05 -0.5 0.9 -0.7 0.9 -0.75 Q0.55 -1.05 0.1 -1.05 L-0.4 -0.95 -0.65 -0.75 -0.7 -0.75 Q-0.9 -0.5 -0.95 -0.2 L-1.0 0.05 Q-1.0 0.4 -0.8 0.7 L-0.8 0.7 -0.75 0.75 -0.75 0.75 -0.75 0.8 -0.65 0.9 Q-0.35 1.2 0.15 1.2 0.6 1.2 0.9 0.9 L0.95 0.85 Q1.25 0.5 1.25 0.1 L1.2 -0.2 1.15 -0.4 1.1 -0.45" fill="url(#gradient1)" fill-rule="evenodd" stroke="none"/>
    <path d="M-0.75 0.75 L-0.75 0.75 -0.8 0.7 -0.8 0.7 Q-1.0 0.4 -1.0 0.05 L-0.95 -0.2 Q-0.9 -0.5 -0.7 -0.75 L-0.65 -0.75 -0.4 -0.95 0.1 -1.05 Q0.55 -1.05 0.9 -0.75 L0.9 -0.7 1.05 -0.5 1.05 -0.5 1.1 -0.5 1.1 -0.45 1.1 -0.45 1.2 -0.2 1.2 0.05 Q1.2 0.5 0.95 0.8 L0.9 0.85 Q0.55 1.15 0.1 1.15 -0.35 1.15 -0.7 0.85 L-0.75 0.75 M0.15 -0.7 L0.15 -0.7 0.05 -0.7 0.05 -0.55 -0.1 -0.5 -0.2 -0.45 -0.25 -0.35 -0.25 -0.2 -0.25 -0.1 -0.15 -0.05 -0.05 0.05 -0.05 0.05 0.0 0.1 0.05 0.1 0.05 0.45 -0.05 0.45 -0.1 0.4 -0.15 0.4 -0.2 0.35 -0.2 0.35 -0.25 0.35 -0.3 0.5 -0.25 0.55 -0.25 0.55 -0.2 0.6 -0.15 0.6 -0.1 0.6 0.0 0.65 0.05 0.65 0.05 0.7 0.05 0.75 0.15 0.75 0.2 0.75 0.2 0.6 0.35 0.6 0.45 0.5 0.5 0.4 0.5 0.15 0.4 0.05 0.35 -0.05 0.3 -0.05 0.25 -0.1 0.25 -0.1 0.2 -0.1 0.2 -0.4 0.3 -0.4 0.4 -0.35 0.45 -0.35 0.45 -0.5 0.45 -0.55 0.4 -0.55 0.4 -0.55 0.25 -0.55 0.2 -0.6 0.2 -0.65 0.15 -0.65 0.15 -0.7 M0.0 -0.15 L0.0 -0.25 0.0 -0.35 0.05 -0.4 0.05 -0.4 0.05 -0.15 0.0 -0.15 M0.2 0.2 L0.25 0.2 0.25 0.35 0.2 0.45 0.2 0.2" fill="url(#gradient2)" fill-rule="evenodd" stroke="none"/>
    <path d="M1.1 -0.45 L1.15 -0.4 1.2 -0.2 1.25 0.1 Q1.25 0.5 0.95 0.85 L0.9 0.9 Q0.6 1.2 0.15 1.2 -0.35 1.2 -0.65 0.9 L-0.75 0.8 -0.75 0.75 -0.7 0.85 Q-0.35 1.15 0.1 1.15 0.55 1.15 0.9 0.85 L0.95 0.8 Q1.2 0.5 1.2 0.05 L1.2 -0.2 1.1 -0.45 M0.15 -0.7 L0.05 -0.7 0.05 -0.55 -0.05 -0.5 -0.15 -0.45 -0.2 -0.35 -0.25 -0.25 -0.25 -0.2 -0.2 -0.1 -0.1 0.0 -0.05 0.05 -0.15 -0.05 -0.25 -0.1 -0.25 -0.2 -0.25 -0.35 -0.2 -0.45 -0.1 -0.5 0.05 -0.55 0.05 -0.7 0.15 -0.7 0.15 -0.7 M0.05 0.1 L0.05 0.45 0.0 0.45 -0.1 0.45 -0.15 0.4 -0.1 0.4 -0.05 0.45 0.05 0.45 0.05 0.1 M-0.2 0.35 L-0.25 0.55 -0.3 0.5 -0.25 0.35 -0.2 0.35 M0.05 0.6 L0.05 0.7 0.05 0.65 0.05 0.6 M0.35 -0.05 L0.25 -0.05 0.25 -0.1 0.25 -0.1 0.3 -0.05 0.35 -0.05 M0.4 -0.55 L0.3 -0.55 0.15 -0.55 0.15 -0.6 0.2 -0.6 0.25 -0.55 0.4 -0.55 0.4 -0.55 M0.05 -0.4 L0.05 -0.4 0.05 -0.15 Q0.05 -0.15 0.0 -0.15 L0.05 -0.15 0.05 -0.4 M0.15 0.15 L0.25 0.2 0.3 0.3 0.25 0.4 0.25 0.45 0.2 0.45 0.15 0.45 0.2 0.45 0.25 0.35 0.25 0.2 0.2 0.2 0.15 0.15" fill="#6b3b31" fill-rule="evenodd" stroke="none"/>
    <path d="M-0.05 0.05 L-0.1 0.0 -0.2 -0.1 -0.25 -0.2 -0.25 -0.25 -0.2 -0.35 -0.15 -0.45 -0.05 -0.5 0.05 -0.55 0.05 -0.7 0.15 -0.7 0.15 -0.65 0.15 -0.6 0.15 -0.55 0.3 -0.55 0.4 -0.55 0.45 -0.55 0.45 -0.5 0.4 -0.35 0.3 -0.4 0.15 -0.4 0.15 -0.1 0.2 -0.1 0.25 -0.1 0.25 -0.05 0.35 -0.05 0.4 0.0 0.45 0.1 0.5 0.25 0.45 0.35 0.4 0.45 0.3 0.55 0.15 0.6 0.15 0.75 0.05 0.75 0.05 0.7 0.05 0.6 -0.05 0.6 -0.1 0.6 -0.15 0.6 -0.2 0.6 -0.25 0.55 -0.25 0.55 -0.2 0.35 -0.2 0.4 -0.15 0.4 -0.1 0.45 0.0 0.45 0.05 0.45 0.05 0.1 0.0 0.1 -0.05 0.05 -0.05 0.05 M-0.2 0.35 L-0.2 0.35 M0.05 -0.4 L0.0 -0.4 -0.05 -0.35 -0.05 -0.3 0.0 -0.2 0.0 -0.15 Q0.05 -0.15 0.05 -0.15 L0.05 -0.4 M0.15 0.45 L0.2 0.45 0.25 0.45 0.25 0.4 0.3 0.3 0.25 0.2 0.15 0.15 0.15 0.45" fill="#312d28" fill-opacity="0.7490196" fill-rule="evenodd" stroke="none"/>
    <path d="M-1.15 -1.2 Q-1.55 -0.75 -1.65 -0.2 L-1.65 0.05 Q-1.65 0.8 -1.15 1.3 -0.6 1.85 0.1 1.85 0.8 1.85 1.25 1.35 L1.35 1.3 Q1.85 0.8 1.85 0.05 L1.85 -0.2 Q1.8 -0.7 1.45 -1.1 L1.35 -1.2 Q0.85 -1.7 0.1 -1.7 -0.6 -1.7 -1.15 -1.2 M-1.25 -1.3 Q-0.7 -1.85 0.1 -1.85 0.9 -1.85 1.45 -1.3 L1.55 -1.2 Q1.95 -0.75 2.0 -0.2 L2.0 0.05 Q2.0 0.85 1.45 1.4 L1.4 1.5 0.85 1.85 Q0.5 2.0 0.1 2.0 -0.25 2.0 -0.6 1.85 -0.95 1.7 -1.25 1.4 -1.8 0.85 -1.8 0.05 L-1.8 -0.2 Q-1.7 -0.8 -1.25 -1.3" fill="#000000" fill-rule="evenodd" stroke="none"/>
    <path d="M-1.15 -1.2 Q-0.6 -1.7 0.1 -1.7 0.85 -1.7 1.35 -1.2 L1.45 -1.1 Q1.8 -0.7 1.85 -0.2 L1.85 0.05 Q1.85 0.8 1.35 1.3 L1.25 1.35 Q0.8 1.85 0.1 1.85 -0.6 1.85 -1.15 1.3 -1.65 0.8 -1.65 0.05 L-1.65 -0.2 Q-1.55 -0.75 -1.15 -1.2 M-1.1 -1.15 Q-1.5 -0.75 -1.55 -0.2 L-1.6 0.05 Q-1.6 0.75 -1.1 1.25 -0.6 1.75 0.1 1.75 0.75 1.75 1.25 1.3 L1.3 1.25 Q1.8 0.75 1.8 0.05 L1.8 -0.2 Q1.7 -0.7 1.4 -1.05 L1.3 -1.15 Q0.8 -1.65 0.1 -1.65 -0.6 -1.65 -1.1 -1.15" fill="url(#gradient3)" fill-rule="evenodd" stroke="none"/>
  </g>
  <defs>
    <linearGradient gradientTransform="matrix(0.0016, -0.0013, 0.0013, 0.0016, 0.1, 0.05)" gradientUnits="userSpaceOnUse" id="gradient0" spreadMethod="pad" x1="-819.2" x2="819.2">
      <stop offset="0.0" stop-color="#c78142"/>
      <stop offset="1.0" stop-color="#fcca32"/>
    </linearGradient>
    <linearGradient gradientTransform="matrix(-4.0E-4, -0.0014, 0.0014, -4.0E-4, 0.1, 0.05)" gradientUnits="userSpaceOnUse" id="gradient1" spreadMethod="pad" x1="-819.2" x2="819.2">
      <stop offset="0.0" stop-color="#e29142"/>
      <stop offset="0.9921568627450981" stop-color="#ffcf31"/>
    </linearGradient>
    <linearGradient gradientTransform="matrix(-4.0E-4, -0.0013, 0.0013, -4.0E-4, 0.1, 0.05)" gradientUnits="userSpaceOnUse" id="gradient2" spreadMethod="pad" x1="-819.2" x2="819.2">
      <stop offset="0.0" stop-color="#a36a36"/>
      <stop offset="1.0" stop-color="#fcca32"/>
    </linearGradient>
    <linearGradient gradientTransform="matrix(0.0686, 0.0, 0.0, 0.0686, -18.2, -29.45)" gradientUnits="userSpaceOnUse" id="gradient3" spreadMethod="pad" x1="-819.2" x2="819.2">
      <stop offset="0.0" stop-color="#595650"/>
      <stop offset="1.0" stop-color="#ffb65d"/>
    </linearGradient>
  </defs>
</svg>
