<?xml version="1.0" encoding="UTF-8" standalone="no"?>
<svg xmlns:xlink="http://www.w3.org/1999/xlink" height="4.2px" width="4.15px" xmlns="http://www.w3.org/2000/svg">
  <g transform="matrix(1.0, 0.0, 0.0, 1.0, 1.95, 2.2)">
    <path d="M-1.5 -2.05 L-1.5 -2.05 -1.45 -2.0 -1.45 -2.0 -1.5 -2.0 -1.5 -2.05 M-1.45 -2.0 Q-1.4 -1.95 -1.45 -1.9 L-1.55 -1.85 -1.55 -1.85 -1.6 -1.8 -1.6 -1.8 -1.55 -1.8 -1.55 -1.85 -1.5 -1.85 -1.5 -1.85 -1.4 -1.9 Q-1.4 -1.9 -1.4 -2.0 L-1.45 -2.05 -1.45 -2.05 -1.4 -1.95 Q-1.35 -1.9 -1.4 -1.85 L-1.45 -1.85 -1.5 -1.8 -1.5 -1.75 -1.5 -1.8 -1.55 -1.8 -1.6 -1.8 -1.6 -1.75 -1.65 -1.75 -1.75 -1.75 -1.8 -1.8 -1.85 -1.85 -1.85 -1.85 -1.85 -1.7 -1.9 -1.95 -1.9 -2.05 -1.95 -2.2 -1.9 -2.1 -1.9 -2.2 -1.85 -2.1 -1.85 -2.0 -1.85 -2.05 -1.85 -2.05 -1.85 -1.9 -1.8 -1.85 -1.8 -1.85 -1.75 -1.8 -1.75 -1.8 -1.7 -1.8 -1.7 -1.8 -1.7 -1.8 -1.65 -1.85 -1.65 -1.85 -1.55 -1.9 -1.6 -1.85 -1.6 -1.85 -1.55 -1.85 -1.55 -1.85 -1.45 -1.9 -1.45 -2.0 M-1.55 -1.9 L-1.55 -1.9 M-1.9 -2.2 L-1.9 -2.2 M-1.65 -1.9 L-1.65 -1.9 -1.7 -1.9 -1.7 -1.9 -1.75 -1.9 -1.75 -1.95 -1.75 -2.0 -1.7 -2.0 -1.7 -2.0 -1.7 -1.95 -1.7 -1.95 -1.7 -2.0 -1.65 -2.0 -1.65 -2.0 -1.65 -1.9 -1.65 -1.9 M-1.7 -2.05 L-1.7 -2.05 -1.65 -2.05 -1.65 -2.05 -1.7 -2.05 M-1.6 -2.15 L-1.6 -2.1 -1.65 -2.1 -1.65 -2.15 -1.65 -2.2 -1.6 -2.2 -1.6 -2.15 -1.6 -2.2 -1.6 -2.15 M-1.9 -2.1 L-1.9 -1.9 -1.85 -1.9 -1.85 -2.0 -1.9 -2.1 -1.9 -2.1 M-1.55 -1.75 L-1.5 -1.75 -1.55 -1.7 -1.55 -1.7 -1.55 -1.75 M-1.8 -1.7 L-1.75 -1.7 -1.75 -1.7 -1.7 -1.7 -1.65 -1.7 -1.65 -1.7 -1.7 -1.7 -1.6 -1.7 -1.55 -1.7 -1.75 -1.65 -1.8 -1.65 -1.8 -1.7 M-1.65 -1.8 L-1.7 -1.75 -1.75 -1.75 -1.7 -1.75 -1.65 -1.75 -1.65 -1.8 M-0.55 -0.4 L-0.55 -0.45 -0.5 -0.4 -0.45 -0.4 -0.45 -0.35 Q-0.4 -0.35 -0.45 -0.25 L-0.45 -0.15 -0.55 -0.2 -0.5 -0.1 -0.45 -0.05 -0.45 -0.05 -0.45 -0.05 -0.45 0.0 -0.45 0.1 -0.45 0.05 -0.5 0.05 -0.5 0.0 -0.55 -0.1 -0.55 -0.1 -0.5 -0.1 -0.5 -0.1 -0.6 -0.15 -0.65 -0.15 -0.65 -0.1 -0.65 -0.15 -0.6 -0.15 -0.6 -0.15 -0.6 -0.25 -0.65 -0.3 -0.65 -0.3 -0.6 -0.3 -0.55 -0.3 -0.55 -0.2 -0.55 -0.25 -0.5 -0.25 -0.5 -0.3 -0.5 -0.35 -0.55 -0.4 -0.55 -0.4 -0.5 -0.35 -0.5 -0.35 -0.5 -0.4 -0.55 -0.4 -0.55 -0.4 -0.55 -0.35 -0.55 -0.3 -0.55 -0.3 -0.6 -0.35 -0.6 -0.4 -0.6 -0.4 -0.55 -0.4 M-0.65 -0.3 L-0.6 -0.25 -0.6 -0.25 -0.6 -0.3 -0.65 -0.3 M-0.45 0.05 L-0.45 0.0 -0.5 -0.1 -0.5 -0.05 -0.5 0.0 -0.45 0.05 M-0.45 -0.1 L-0.45 -0.1 -0.45 -0.15 -0.4 -0.15 -0.3 -0.15 -0.3 -0.1 -0.35 -0.1 -0.35 -0.1 -0.35 -0.1 -0.4 -0.1 -0.3 0.0 Q-0.3 0.1 -0.35 0.15 L-0.4 0.15 -0.35 0.1 -0.35 0.0 -0.35 -0.05 -0.4 -0.05 -0.35 0.05 -0.35 0.05 -0.4 0.05 -0.35 0.05 -0.4 0.05 -0.4 0.0 -0.4 -0.05 -0.45 -0.1 -0.45 -0.1 M-0.35 -0.1 L-0.35 -0.1 -0.35 -0.15 -0.35 -0.1 M-0.4 -0.15 L-0.45 -0.15 -0.4 -0.15 -0.4 -0.15 -0.4 -0.15 -0.4 -0.15 -0.4 -0.15 M-0.7 0.1 L-0.65 0.15 -0.65 0.15 -0.6 0.15 -0.6 0.1 -0.55 0.05 -0.5 0.1 -0.5 0.1 -0.5 0.1 -0.5 0.15 -0.45 0.1 -0.4 0.15 -0.4 0.1 -0.4 0.2 -0.4 0.25 -0.4 0.3 -0.45 0.25 -0.45 0.25 -0.5 0.25 -0.5 0.25 -0.45 0.3 -0.45 0.35 -0.5 0.3 -0.5 0.35 -0.55 0.35 -0.55 0.3 -0.5 0.25 -0.5 0.25 -0.45 0.25 -0.45 0.2 -0.55 0.2 -0.55 0.25 -0.55 0.25 -0.5 0.2 -0.5 0.2 -0.55 0.2 -0.55 0.2 -0.55 0.15 -0.5 0.15 -0.5 0.15 -0.5 0.15 -0.55 0.1 -0.55 0.1 -0.6 0.1 -0.6 0.15 -0.65 0.2 -0.65 0.2 -0.7 0.15 -0.7 0.1 -0.7 0.2 -0.75 0.2 -0.75 0.25 -0.7 0.25 -0.7 0.25 -0.75 0.25 -0.8 0.25 -0.8 0.15 -0.8 0.15 -0.8 0.2 -0.75 0.2 -0.7 0.2 -0.7 0.2 Q-0.75 0.15 -0.75 0.1 L-0.7 0.1 M-0.5 -0.2 L-0.5 -0.25 -0.55 -0.25 -0.55 -0.2 -0.5 -0.2 -0.5 -0.15 -0.45 -0.15 -0.45 -0.25 -0.45 -0.35 -0.45 -0.25 -0.5 -0.2 M-0.55 -0.1 L-0.6 -0.1 -0.65 -0.1 -0.65 -0.1 -0.6 -0.1 -0.55 -0.1 M-0.2 0.25 L-0.2 0.25 -0.15 0.35 -0.15 0.4 -0.15 0.4 -0.2 0.35 -0.2 0.3 -0.25 0.3 -0.3 0.25 -0.25 0.25 -0.25 0.25 -0.25 0.25 -0.2 0.25 -0.25 0.25 -0.25 0.25 -0.25 0.2 -0.3 0.2 -0.35 0.2 -0.35 0.15 -0.4 0.15 -0.4 0.1 -0.4 0.15 -0.35 0.2 -0.3 0.25 -0.3 0.25 -0.3 0.25 -0.35 0.25 -0.3 0.25 Q-0.35 0.25 -0.4 0.3 L-0.4 0.3 -0.4 0.35 -0.4 0.45 -0.4 0.45 -0.35 0.45 -0.35 0.45 -0.3 0.45 -0.3 0.45 -0.25 0.45 -0.25 0.4 -0.3 0.4 -0.35 0.4 -0.35 0.4 -0.35 0.4 -0.35 0.4 -0.35 0.35 -0.3 0.35 -0.3 0.35 -0.3 0.3 -0.35 0.3 -0.35 0.3 -0.35 0.35 -0.4 0.35 -0.4 0.3 -0.35 0.3 -0.3 0.3 -0.3 0.3 -0.25 0.3 -0.25 0.35 -0.25 0.35 -0.25 0.35 -0.25 0.35 -0.2 0.35 -0.15 0.4 -0.2 0.4 -0.25 0.4 -0.25 0.4 -0.25 0.4 -0.2 0.45 -0.1 0.45 -0.1 0.4 -0.15 0.4 -0.15 0.4 -0.15 0.4 Q-0.1 0.35 0.0 0.35 L0.1 0.4 0.15 0.4 0.1 0.35 0.15 0.35 Q0.2 0.4 0.15 0.45 L0.25 0.45 0.35 0.45 0.4 0.5 0.4 0.55 0.45 0.6 0.4 0.6 0.35 0.65 0.3 0.6 0.3 0.55 0.35 0.55 0.35 0.6 0.4 0.6 0.35 0.55 0.35 0.5 0.3 0.5 0.25 0.55 0.2 0.55 0.2 0.6 0.25 0.6 0.3 0.6 0.3 0.65 0.3 0.7 0.25 0.65 0.2 0.65 0.15 0.6 0.15 0.7 0.1 0.7 0.1 0.6 0.0 0.5 -0.05 0.5 -0.05 0.5 Q-0.05 0.5 0.0 0.5 L0.05 0.55 0.1 0.5 0.0 0.5 -0.05 0.5 -0.1 0.45 -0.15 0.45 -0.1 0.45 -0.05 0.45 0.0 0.45 0.0 0.45 0.05 0.45 0.05 0.5 0.1 0.5 0.2 0.6 0.15 0.5 0.1 0.45 0.1 0.5 0.1 0.45 0.05 0.45 0.0 0.45 0.0 0.45 Q0.0 0.4 0.0 0.4 L-0.05 0.4 -0.05 0.4 -0.05 0.4 0.05 0.4 0.0 0.35 0.0 0.35 -0.1 0.4 -0.15 0.4 -0.1 0.4 -0.1 0.45 -0.1 0.5 -0.15 0.5 -0.1 0.5 Q-0.2 0.4 -0.25 0.45 L-0.2 0.45 -0.2 0.5 -0.25 0.5 -0.25 0.55 -0.3 0.6 -0.35 0.55 -0.35 0.55 -0.3 0.55 -0.3 0.5 -0.35 0.5 -0.4 0.45 -0.35 0.5 -0.4 0.5 -0.4 0.5 -0.4 0.5 -0.4 0.6 -0.4 0.6 -0.4 0.6 -0.35 0.55 -0.35 0.55 -0.3 0.6 -0.35 0.6 -0.35 0.6 -0.4 0.6 -0.35 0.6 -0.35 0.65 -0.4 0.65 -0.4 0.65 -0.45 0.6 -0.4 0.55 -0.45 0.45 -0.55 0.4 -0.6 0.45 -0.6 0.4 -0.6 0.35 -0.55 0.4 -0.55 0.35 -0.55 0.4 -0.6 0.4 -0.6 0.4 -0.55 0.4 -0.55 0.4 -0.5 0.4 -0.45 0.4 -0.45 0.4 -0.5 0.4 -0.5 0.35 -0.45 0.4 -0.45 0.35 -0.45 0.35 -0.45 0.35 -0.4 0.3 -0.4 0.3 -0.4 0.3 -0.35 0.25 -0.4 0.2 -0.4 0.15 -0.35 0.15 -0.3 0.15 Q-0.25 0.15 -0.25 0.2 L-0.2 0.25 -0.2 0.25 M1.7 1.6 L1.75 1.55 1.8 1.5 1.85 1.5 1.85 1.45 Q1.9 1.4 1.95 1.4 2.0 1.4 2.05 1.45 L2.0 1.45 1.9 1.45 1.85 1.5 1.85 1.55 1.8 1.6 1.8 1.55 1.75 1.55 1.75 1.6 1.7 1.6 1.7 1.7 1.7 1.7 1.7 1.8 1.7 1.85 1.65 1.85 1.65 1.8 1.7 1.6 M2.05 1.5 L2.05 1.55 2.0 1.55 2.0 1.5 2.05 1.5 M2.0 1.45 L1.95 1.5 1.9 1.5 1.85 1.55 1.9 1.5 2.0 1.45 M1.9 1.65 L1.9 1.7 1.95 1.7 2.0 1.7 1.95 1.7 1.95 1.75 2.0 1.75 1.95 1.75 1.9 1.75 1.9 1.65 M2.05 1.65 L2.05 1.7 2.05 1.65 M2.15 1.6 L2.2 1.6 2.2 1.65 2.15 1.7 2.1 1.7 2.1 1.65 2.15 1.6 2.2 1.6 2.15 1.6 M2.2 1.9 L2.2 1.95 2.05 1.95 2.0 1.95 1.95 1.95 1.7 1.85 1.8 1.85 1.85 1.9 1.85 1.85 1.8 1.85 1.75 1.8 1.75 1.65 1.8 1.65 1.85 1.55 1.85 1.65 1.9 1.6 1.85 1.65 1.85 1.7 1.8 1.7 1.8 1.8 1.85 1.8 1.9 1.85 1.85 1.85 1.9 1.85 1.95 1.9 2.05 1.9 2.1 1.9 2.05 1.9 2.05 1.85 2.0 1.85 2.1 1.9 2.2 1.9 M-0.1 0.75 L-0.1 0.75 -0.2 0.75 -0.2 0.8 -0.2 0.8 -0.15 0.8 -0.15 0.85 -0.2 0.85 -0.25 0.8 -0.25 0.75 -0.25 0.75 -0.35 0.75 -0.4 0.75 -0.4 0.7 -0.35 0.7 -0.3 0.65 -0.35 0.6 -0.3 0.65 -0.3 0.7 -0.35 0.7 -0.35 0.75 -0.3 0.75 -0.3 0.75 -0.25 0.7 -0.25 0.8 -0.2 0.8 -0.2 0.75 -0.2 0.75 -0.1 0.75 -0.1 0.7 -0.15 0.7 -0.2 0.7 -0.2 0.65 -0.15 0.65 -0.15 0.65 -0.1 0.6 -0.1 0.55 -0.15 0.55 -0.15 0.5 -0.15 0.55 -0.15 0.6 -0.2 0.6 -0.2 0.55 -0.2 0.55 -0.25 0.6 -0.25 0.6 -0.2 0.55 -0.2 0.5 -0.1 0.5 -0.1 0.55 -0.1 0.55 -0.05 0.55 Q-0.05 0.6 -0.1 0.65 L-0.15 0.65 -0.15 0.7 -0.1 0.75 M-0.6 0.35 L-0.65 0.3 -0.7 0.35 -0.7 0.4 -0.75 0.4 -0.75 0.35 -0.7 0.25 -0.65 0.25 -0.7 0.3 -0.7 0.35 -0.7 0.35 -0.65 0.3 -0.65 0.3 -0.6 0.3 -0.6 0.35 M-0.45 0.1 L-0.45 0.2 -0.4 0.25 Q-0.4 0.2 -0.45 0.1 M-0.4 0.25 L-0.35 0.25 -0.4 0.25 M-0.35 0.45 L-0.35 0.5 -0.3 0.5 -0.25 0.5 -0.25 0.5 -0.25 0.45 -0.3 0.45 -0.35 0.45 -0.35 0.45 M-0.45 0.45 L-0.45 0.4 -0.45 0.45 M-0.55 0.3 L-0.55 0.35 -0.55 0.3 M-0.65 0.3 L-0.65 0.25 -0.65 0.25 -0.6 0.25 -0.6 0.25 -0.65 0.3 M-0.25 0.6 L-0.25 0.65 -0.25 0.7 -0.3 0.65 -0.25 0.65 -0.25 0.6 M2.1 1.95 L2.0 1.9 1.9 1.9 2.0 1.95 2.1 1.95 2.2 1.95 2.1 1.95 M0.15 0.45 L0.15 0.4 0.1 0.45 0.15 0.45 M0.4 0.6 L0.4 0.5 0.35 0.5 0.35 0.55 0.4 0.55 0.4 0.6 M0.2 0.5 L0.25 0.5 0.3 0.5 0.35 0.5 0.25 0.45 0.15 0.5 0.2 0.5 M0.25 0.55 L0.2 0.55 0.25 0.55 M0.1 0.6 L0.1 0.7 0.15 0.7 0.15 0.6 0.1 0.55 0.1 0.6 M0.3 0.65 L0.25 0.6 0.25 0.65 0.3 0.65 M1.75 1.7 L1.75 1.75 1.8 1.7 1.75 1.7" fill="#73664d" fill-rule="evenodd" stroke="none"/>
    <path d="M-1.45 -2.0 L-1.5 -2.05 -1.5 -2.05 -1.5 -2.05 -1.45 -2.05 -1.45 -2.05 -1.4 -2.0 Q-1.4 -1.9 -1.4 -1.9 L-1.5 -1.85 -1.5 -1.85 -1.55 -1.85 -1.55 -1.8 -1.6 -1.8 -1.6 -1.8 -1.55 -1.85 -1.55 -1.85 -1.45 -1.9 Q-1.4 -1.95 -1.45 -2.0 L-1.45 -2.0 M-1.6 -1.8 L-1.6 -1.8 M-1.9 -2.2 L-1.9 -2.1 -1.95 -2.2 -1.9 -2.2 M-1.85 -1.7 L-1.85 -1.85 -1.85 -1.85 -1.8 -1.8 -1.75 -1.75 -1.65 -1.75 -1.6 -1.75 -1.55 -1.75 -1.55 -1.75 -1.55 -1.7 -1.6 -1.7 -1.7 -1.7 -1.65 -1.7 -1.65 -1.7 -1.7 -1.7 -1.75 -1.7 -1.75 -1.7 -1.8 -1.7 -1.8 -1.7 -1.85 -1.7 M-1.7 -2.0 L-1.7 -2.05 -1.65 -2.05 -1.65 -2.0 -1.6 -2.0 -1.65 -2.0 -1.65 -2.0 -1.65 -2.0 -1.7 -2.0 -1.7 -1.95 -1.7 -1.95 -1.7 -2.0 M-1.9 -2.1 L-1.9 -2.1 -1.85 -2.0 -1.85 -1.9 -1.9 -1.9 -1.9 -2.1 M-1.65 -1.8 L-1.65 -1.75 -1.7 -1.75 -1.75 -1.75 -1.7 -1.75 -1.65 -1.8 M-0.55 -0.4 L-0.5 -0.4 -0.5 -0.35 -0.5 -0.35 -0.55 -0.4 -0.55 -0.4 -0.55 -0.4 -0.6 -0.4 -0.6 -0.4 -0.55 -0.4 M-0.65 -0.3 L-0.6 -0.3 -0.6 -0.25 -0.6 -0.25 -0.65 -0.3 -0.65 -0.3 -0.65 -0.3 -0.65 -0.3 M-0.65 -0.1 L-0.65 -0.15 -0.6 -0.15 -0.5 -0.1 -0.5 -0.1 -0.55 -0.1 -0.55 -0.1 -0.6 -0.1 -0.65 -0.1 M-0.45 0.05 L-0.5 0.0 -0.5 -0.05 -0.5 -0.1 -0.45 0.0 -0.45 0.05 M-0.45 0.1 L-0.45 0.0 -0.45 -0.05 -0.45 -0.05 -0.45 -0.1 -0.45 -0.1 -0.4 -0.05 -0.4 0.0 -0.4 0.05 -0.35 0.05 -0.4 0.05 -0.35 0.05 -0.35 0.05 -0.4 -0.05 -0.35 -0.05 -0.35 0.0 -0.35 0.1 -0.4 0.15 -0.4 0.1 -0.4 0.15 -0.45 0.1 -0.45 0.1 Q-0.4 0.2 -0.4 0.25 L-0.45 0.2 -0.45 0.1 M-0.35 -0.1 L-0.35 -0.15 -0.35 -0.1 -0.35 -0.1 -0.35 -0.1 M-0.4 -0.15 L-0.4 -0.15 -0.4 -0.15 -0.4 -0.15 -0.4 -0.15 M-0.5 -0.2 L-0.55 -0.2 -0.55 -0.25 -0.5 -0.25 -0.5 -0.2 -0.45 -0.25 -0.45 -0.35 -0.45 -0.25 -0.45 -0.15 -0.5 -0.15 -0.5 -0.2 M-0.25 0.25 L-0.25 0.25 -0.3 0.25 -0.25 0.3 -0.2 0.3 -0.2 0.35 -0.15 0.4 -0.15 0.4 -0.2 0.35 -0.25 0.35 -0.25 0.35 -0.25 0.35 -0.25 0.3 -0.3 0.3 -0.3 0.3 -0.35 0.3 -0.4 0.3 -0.4 0.35 -0.35 0.35 -0.35 0.3 -0.35 0.3 -0.3 0.3 -0.3 0.35 -0.3 0.35 -0.35 0.35 -0.35 0.4 -0.35 0.4 -0.35 0.4 -0.35 0.4 -0.3 0.4 -0.25 0.4 -0.25 0.45 -0.3 0.45 -0.3 0.45 -0.35 0.45 -0.35 0.45 -0.4 0.45 -0.4 0.45 -0.4 0.35 -0.4 0.3 -0.4 0.3 Q-0.35 0.25 -0.3 0.25 L-0.3 0.25 -0.3 0.25 -0.35 0.2 -0.4 0.15 -0.35 0.15 -0.35 0.2 -0.3 0.2 -0.25 0.2 -0.25 0.25 M0.1 0.4 L0.1 0.35 0.15 0.4 0.1 0.4 M2.05 1.45 L2.05 1.5 2.0 1.5 2.0 1.45 2.05 1.45 M2.0 1.7 L2.0 1.65 2.05 1.65 2.05 1.7 2.0 1.75 1.95 1.75 1.95 1.7 2.0 1.7 M-0.7 0.25 L-0.75 0.25 -0.75 0.2 -0.7 0.2 -0.7 0.1 -0.7 0.15 -0.65 0.2 -0.65 0.2 -0.6 0.15 -0.6 0.1 -0.55 0.1 -0.55 0.1 -0.5 0.15 -0.5 0.15 -0.5 0.15 -0.55 0.15 -0.55 0.2 -0.45 0.2 -0.45 0.25 -0.5 0.25 -0.5 0.25 -0.55 0.3 -0.55 0.35 -0.5 0.35 -0.5 0.3 -0.45 0.35 -0.45 0.4 -0.5 0.4 -0.55 0.4 -0.55 0.4 -0.6 0.4 -0.6 0.4 -0.55 0.4 -0.55 0.35 -0.55 0.3 -0.55 0.25 -0.55 0.2 -0.55 0.2 -0.6 0.25 -0.65 0.25 -0.65 0.25 -0.65 0.3 -0.65 0.3 -0.7 0.35 -0.7 0.35 -0.7 0.3 -0.65 0.25 -0.7 0.25 M-0.4 0.3 L-0.4 0.25 -0.35 0.25 -0.4 0.3 M-0.25 0.35 L-0.25 0.35 M-0.3 0.25 L-0.3 0.25 -0.3 0.25 M-0.45 0.4 L-0.5 0.35 -0.5 0.4 -0.45 0.4 -0.45 0.4 M-0.3 0.6 L-0.35 0.55 -0.35 0.55 -0.4 0.6 -0.4 0.6 -0.4 0.6 -0.4 0.5 -0.4 0.5 -0.4 0.5 -0.35 0.5 -0.4 0.45 -0.35 0.5 -0.3 0.5 -0.3 0.55 -0.35 0.55 -0.35 0.55 -0.3 0.6 -0.25 0.55 -0.25 0.5 -0.2 0.5 -0.2 0.55 -0.25 0.6 -0.3 0.6 M-0.2 0.6 L-0.15 0.6 -0.15 0.55 -0.15 0.5 -0.15 0.55 -0.1 0.55 -0.1 0.6 -0.15 0.65 -0.15 0.65 -0.2 0.65 -0.2 0.7 -0.15 0.7 -0.1 0.7 -0.1 0.75 -0.2 0.75 -0.2 0.75 -0.2 0.8 -0.25 0.8 -0.25 0.7 -0.3 0.75 -0.3 0.75 -0.35 0.75 -0.35 0.7 -0.3 0.7 -0.3 0.65 -0.25 0.7 -0.25 0.65 -0.25 0.6 -0.2 0.6 -0.2 0.6 M-0.1 0.45 L-0.15 0.45 -0.1 0.45 -0.1 0.4 -0.15 0.4 -0.1 0.4 0.0 0.35 0.0 0.35 0.05 0.4 -0.05 0.4 -0.05 0.4 -0.05 0.4 0.0 0.4 Q0.0 0.4 0.0 0.45 L0.0 0.45 0.05 0.45 0.1 0.45 0.1 0.5 0.05 0.5 0.05 0.45 0.0 0.45 0.0 0.45 -0.05 0.45 -0.1 0.45 -0.1 0.45 M-0.2 0.5 L-0.2 0.45 -0.25 0.45 Q-0.2 0.4 -0.1 0.5 L-0.2 0.5 M-0.05 0.5 L0.0 0.5 0.1 0.5 0.05 0.55 0.0 0.5 Q-0.05 0.5 -0.05 0.5 M-0.6 0.3 L-0.65 0.3 -0.6 0.3 M-0.3 0.65 L-0.3 0.65 M2.1 1.95 L2.0 1.95 1.9 1.9 2.0 1.9 2.1 1.95 2.2 1.95 2.1 1.95 M0.15 0.45 L0.1 0.45 0.15 0.4 0.15 0.45 M0.1 0.6 L0.1 0.55 0.15 0.6 0.15 0.7 0.1 0.7 0.1 0.6 M0.25 0.55 L0.2 0.55 0.25 0.55 M0.2 0.5 L0.15 0.5 0.25 0.45 0.35 0.5 0.3 0.5 0.25 0.5 0.2 0.5 M0.4 0.6 L0.4 0.55 0.35 0.55 0.35 0.5 0.4 0.5 0.4 0.6 M0.3 0.65 L0.25 0.65 0.25 0.6 0.3 0.65 M1.8 1.6 L1.85 1.55 1.85 1.5 1.9 1.45 2.0 1.45 1.9 1.5 1.85 1.55 1.8 1.65 1.8 1.6 M1.75 1.65 L1.75 1.8 1.8 1.85 1.85 1.85 1.85 1.9 1.8 1.85 1.7 1.85 1.7 1.8 1.7 1.7 1.7 1.7 1.7 1.6 1.75 1.6 1.75 1.65 M1.75 1.7 L1.8 1.7 1.75 1.75 1.75 1.7" fill="#be8d4f" fill-rule="evenodd" stroke="none"/>
    <path d="M-1.6 -1.8 L-1.6 -1.8 -1.55 -1.8 -1.5 -1.8 -1.5 -1.75 -1.55 -1.75 -1.55 -1.75 -1.6 -1.75 -1.6 -1.8 M-1.55 -1.85 L-1.55 -1.85 -1.6 -1.85 -1.6 -1.85 -1.55 -1.9 -1.65 -1.85 -1.65 -1.85 -1.7 -1.8 -1.7 -1.8 -1.7 -1.8 -1.75 -1.8 -1.75 -1.8 -1.8 -1.85 -1.8 -1.85 -1.85 -1.9 -1.85 -2.05 -1.85 -2.05 -1.85 -2.0 -1.85 -2.1 -1.9 -2.2 -1.75 -2.2 -1.75 -2.15 -1.7 -2.15 -1.7 -2.15 -1.75 -2.15 -1.75 -2.1 -1.7 -2.1 -1.65 -2.1 -1.65 -2.15 -1.65 -2.1 -1.6 -2.1 -1.6 -2.15 -1.6 -2.1 -1.65 -2.1 -1.7 -2.05 -1.7 -2.05 -1.7 -2.0 -1.7 -2.0 -1.75 -2.0 -1.75 -1.95 -1.75 -1.9 -1.7 -1.9 -1.7 -1.9 -1.65 -1.9 -1.65 -1.9 -1.6 -1.9 -1.6 -1.95 -1.55 -2.0 -1.55 -2.0 -1.5 -1.95 -1.5 -1.95 -1.55 -1.9 -1.55 -1.9 -1.55 -1.85 M-1.7 -2.05 L-1.7 -2.05 M-0.5 0.05 L-0.45 0.05 -0.45 0.1 -0.5 0.15 -0.5 0.1 -0.5 0.05 -0.5 0.05 M-0.45 -0.05 L-0.45 -0.05 -0.5 -0.1 -0.55 -0.2 -0.45 -0.15 -0.45 -0.1 -0.45 -0.1 -0.45 -0.05 M-0.4 0.15 L-0.35 0.15 -0.4 0.15 -0.45 0.1 -0.45 0.1 -0.4 0.15 -0.4 0.2 -0.35 0.25 -0.4 0.25 -0.4 0.2 -0.4 0.1 -0.4 0.15 M-0.15 0.4 L-0.15 0.4 -0.15 0.4 -0.1 0.4 -0.1 0.45 -0.2 0.45 -0.25 0.4 -0.25 0.4 -0.25 0.4 -0.2 0.4 -0.15 0.4 M-0.05 0.5 L-0.05 0.5 -0.05 0.5 -0.1 0.5 -0.1 0.5 -0.15 0.5 -0.1 0.5 -0.1 0.45 -0.1 0.45 -0.05 0.5 M1.85 1.55 L1.9 1.6 1.95 1.6 1.9 1.6 1.95 1.55 2.0 1.55 2.0 1.6 1.95 1.65 1.9 1.65 1.9 1.75 1.95 1.75 2.0 1.75 2.05 1.7 2.05 1.75 2.1 1.7 2.1 1.6 2.15 1.6 2.1 1.65 2.1 1.7 2.15 1.7 2.1 1.7 2.1 1.75 2.15 1.8 2.15 1.8 2.2 1.8 2.2 1.9 2.1 1.9 2.0 1.85 2.05 1.85 2.05 1.9 2.1 1.9 2.05 1.9 1.95 1.9 1.9 1.85 1.85 1.85 1.9 1.85 1.85 1.8 1.8 1.8 1.8 1.7 1.85 1.7 1.85 1.65 1.9 1.6 1.85 1.65 1.85 1.55 M-0.35 0.6 L-0.35 0.6 -0.3 0.6 -0.25 0.6 -0.25 0.6 -0.2 0.55 -0.2 0.55 -0.2 0.6 -0.2 0.6 -0.25 0.6 -0.25 0.65 -0.3 0.65 -0.3 0.65 -0.35 0.6 M-0.55 0.35 L-0.6 0.35 -0.6 0.3 -0.65 0.3 -0.6 0.25 -0.6 0.25 -0.55 0.2 -0.55 0.2 -0.55 0.2 -0.5 0.2 -0.5 0.2 -0.55 0.25 -0.55 0.25 -0.55 0.3 -0.55 0.35 M-0.45 0.35 L-0.45 0.3 -0.5 0.25 -0.5 0.25 -0.45 0.25 -0.45 0.25 -0.4 0.3 -0.45 0.35 M-0.35 0.45 L-0.35 0.45 -0.3 0.45 -0.25 0.45 -0.25 0.5 -0.25 0.5 -0.3 0.5 -0.35 0.5 -0.35 0.45 M0.05 0.5 L0.1 0.5 0.1 0.45 0.15 0.5 0.2 0.6 0.1 0.5 0.05 0.5 M1.75 1.55 L1.8 1.55 1.8 1.6 1.8 1.65 1.75 1.65 1.75 1.6 1.75 1.55" fill="#4f4635" fill-rule="evenodd" stroke="none"/>
    <path d="M-1.65 -1.5 L-1.6 -1.55 -1.5 -1.55 -1.45 -1.45 -1.5 -1.4 -1.5 -1.4 -1.5 -1.4 -1.6 -1.5 -1.6 -1.5 -1.55 -1.45 -1.55 -1.4 -1.6 -1.5 -1.65 -1.5 -1.55 -1.35 -1.6 -1.35 -1.7 -1.5 -1.65 -1.5 M-1.4 -1.2 L-1.35 -1.25 -1.2 -0.95 -1.2 -0.9 -1.25 -0.9 -1.3 -0.95 -1.35 -1.0 -1.3 -1.0 -1.3 -1.05 -1.4 -1.15 -1.4 -1.1 -1.35 -1.1 -1.35 -1.1 -1.4 -1.2 -1.4 -1.2 M-1.35 -1.0 L-1.35 -1.05 -1.35 -1.0 M-1.1 -0.65 L-1.05 -0.7 -0.85 -0.4 -0.9 -0.35 -0.95 -0.3 -1.15 -0.6 -1.15 -0.6 -1.1 -0.6 -1.05 -0.5 -0.95 -0.35 -0.95 -0.35 -0.9 -0.35 -0.95 -0.4 -0.95 -0.45 -1.0 -0.5 -1.0 -0.5 -1.05 -0.55 -1.05 -0.6 -1.1 -0.65 M-0.85 -0.1 L-0.8 -0.1 -0.65 0.1 -0.65 0.15 Q-0.6 0.1 -0.7 0.0 L-0.75 -0.05 -0.75 -0.1 -0.8 -0.15 -0.75 -0.15 -0.75 -0.1 -0.65 0.0 -0.6 0.05 -0.6 0.05 -0.55 0.0 -0.55 0.05 -0.5 0.05 -0.5 0.05 -0.5 0.1 -0.5 0.1 -0.5 0.1 -0.55 0.05 -0.6 0.1 -0.6 0.15 -0.65 0.15 -0.65 0.15 -0.7 0.1 -0.8 -0.05 -0.8 -0.05 -0.85 -0.1 M-0.05 0.5 L-0.05 0.55 0.0 0.6 -0.05 0.6 -0.05 0.65 0.0 0.65 0.1 0.75 0.1 0.8 0.15 0.8 0.1 0.8 0.05 0.75 0.0 0.7 -0.15 0.7 -0.1 0.7 0.1 0.85 0.05 0.8 -0.1 0.75 -0.15 0.7 -0.15 0.65 -0.1 0.65 Q-0.05 0.6 -0.05 0.55 L-0.1 0.55 -0.1 0.55 -0.1 0.5 -0.1 0.5 -0.05 0.5 M0.4 0.9 L0.7 1.05 0.65 1.1 0.6 1.05 0.55 1.05 0.5 1.05 0.5 1.0 0.45 0.95 0.4 0.95 0.35 0.95 0.35 1.0 0.5 1.05 0.6 1.15 0.6 1.2 0.3 0.95 0.35 0.95 0.4 0.9 M0.95 1.2 L1.25 1.4 1.2 1.45 1.2 1.4 1.1 1.4 1.15 1.45 1.05 1.35 1.0 1.35 1.0 1.4 0.95 1.35 0.9 1.3 0.9 1.25 0.95 1.2 M1.45 1.5 L1.55 1.55 1.55 1.65 1.5 1.65 1.5 1.6 1.4 1.55 1.45 1.6 1.5 1.65 1.5 1.6 1.4 1.55 1.4 1.5 1.45 1.5 M1.5 1.7 L1.35 1.6 Q1.4 1.6 1.5 1.7 M1.0 1.4 L1.05 1.4 1.0 1.4" fill="#393b39" fill-rule="evenodd" stroke="none"/>
    <path d="M-1.75 -1.65 L-1.55 -1.7 -1.5 -1.55 -1.6 -1.55 -1.65 -1.5 -1.7 -1.5 -1.75 -1.65 M-1.5 -1.4 L-1.5 -1.4 -1.45 -1.45 -1.4 -1.4 -1.35 -1.25 -1.4 -1.2 -1.5 -1.2 -1.55 -1.25 -1.6 -1.35 -1.55 -1.35 -1.5 -1.4 M-1.65 -1.5 L-1.65 -1.5 M-1.25 -0.9 L-1.2 -0.9 -1.2 -0.95 -1.1 -0.75 -1.05 -0.7 -1.1 -0.65 -1.2 -0.65 -1.3 -0.85 -1.3 -0.85 -1.25 -0.9 M-0.95 -0.3 L-0.9 -0.35 -0.85 -0.4 -0.7 -0.15 -0.75 -0.15 -0.8 -0.15 -0.8 -0.1 -0.85 -0.1 -0.95 -0.3 M0.15 0.75 L0.4 0.9 0.35 0.95 0.3 0.95 0.1 0.85 0.1 0.8 0.15 0.8 0.15 0.75 M0.7 1.05 L0.75 1.1 0.95 1.2 0.9 1.25 0.9 1.3 0.85 1.3 0.85 1.35 0.65 1.2 0.65 1.1 0.7 1.05 M1.25 1.4 L1.4 1.45 1.45 1.5 1.4 1.5 1.4 1.55 1.35 1.6 1.25 1.55 1.2 1.55 1.2 1.45 1.25 1.4 M1.55 1.55 L1.7 1.6 1.65 1.8 1.5 1.7 1.5 1.65 1.55 1.65 1.55 1.55" fill="#181917" fill-rule="evenodd" stroke="none"/>
    <path d="M-1.65 -1.5 L-1.6 -1.5 -1.55 -1.4 -1.55 -1.45 -1.6 -1.5 -1.6 -1.5 -1.5 -1.4 -1.5 -1.4 -1.55 -1.35 -1.65 -1.5 -1.65 -1.5 M-1.5 -1.2 L-1.4 -1.2 -1.4 -1.2 -1.35 -1.1 -1.35 -1.1 -1.4 -1.1 -1.4 -1.15 -1.3 -1.05 -1.3 -1.0 -1.35 -1.0 -1.3 -0.95 -1.25 -0.9 -1.3 -0.85 -1.3 -0.85 -1.5 -1.2 M-1.35 -1.0 L-1.35 -1.05 -1.35 -1.0 M-1.2 -0.65 L-1.1 -0.65 -1.05 -0.6 -1.05 -0.55 -1.0 -0.5 -1.0 -0.5 -0.95 -0.45 -0.95 -0.4 -0.9 -0.35 -0.95 -0.35 -0.95 -0.35 -1.05 -0.5 -1.1 -0.6 -1.15 -0.6 -1.15 -0.6 -1.2 -0.65 M-0.8 -0.1 L-0.8 -0.15 -0.75 -0.1 -0.75 -0.05 -0.7 0.0 Q-0.6 0.1 -0.65 0.15 L-0.65 0.1 -0.8 -0.1 M-0.75 -0.15 L-0.7 -0.15 -0.7 -0.1 -0.6 0.0 -0.55 0.0 -0.6 0.05 -0.6 0.05 -0.65 0.0 -0.75 -0.1 -0.75 -0.15 M0.0 0.6 L0.0 0.65 0.1 0.7 0.15 0.75 0.15 0.8 0.1 0.8 0.1 0.75 0.0 0.65 -0.05 0.65 -0.05 0.6 0.0 0.6 M1.2 1.55 L0.85 1.35 0.85 1.3 0.9 1.3 0.95 1.35 1.0 1.4 1.0 1.35 1.05 1.35 1.15 1.45 1.1 1.4 1.2 1.4 1.2 1.45 1.2 1.55 M0.65 1.2 L0.6 1.2 0.6 1.15 0.5 1.05 0.35 1.0 0.35 0.95 0.4 0.95 0.45 0.95 0.5 1.0 0.5 1.05 0.55 1.05 0.6 1.05 0.65 1.1 0.65 1.2 M0.1 0.85 L-0.1 0.7 -0.15 0.7 0.0 0.7 0.05 0.75 0.1 0.8 0.15 0.8 0.1 0.8 0.1 0.85 M1.5 1.65 L1.5 1.7 Q1.4 1.6 1.35 1.6 L1.4 1.55 1.5 1.6 1.5 1.65 1.45 1.6 1.4 1.55 1.5 1.6 1.5 1.65 M1.0 1.4 L1.05 1.4 1.0 1.4" fill="#565a5e" fill-rule="evenodd" stroke="none"/>
    <path d="M-1.5 -2.05 L-1.5 -2.0 -1.45 -2.0 -1.45 -2.0 -1.45 -2.0 -1.45 -1.9 -1.55 -1.85 -1.55 -1.9 -1.55 -1.9 -1.55 -1.9 -1.5 -1.95 -1.5 -1.95 -1.55 -2.0 -1.55 -2.0 -1.6 -1.95 -1.6 -1.9 -1.65 -1.9 -1.65 -1.9 -1.65 -2.0 -1.6 -2.0 -1.65 -2.0 -1.65 -2.0 -1.65 -2.05 -1.65 -2.05 -1.7 -2.05 -1.7 -2.05 -1.65 -2.1 -1.6 -2.1 -1.6 -2.15 -1.6 -2.2 M-1.45 -2.05 L-1.45 -2.05 -1.5 -2.05 -1.5 -2.05 M-1.5 -1.75 L-1.5 -1.8 -1.45 -1.85 -1.4 -1.85 Q-1.35 -1.9 -1.4 -1.95 L-1.45 -2.05 -1.45 -2.05 M-1.95 -2.2 L-1.9 -2.05 -1.9 -1.95 -1.85 -1.7 -1.8 -1.7 -1.8 -1.65 -1.75 -1.65 -1.7 -1.5 -1.6 -1.35 -1.55 -1.25 -1.5 -1.2 -1.3 -0.85 -1.2 -0.65 -1.15 -0.6 -0.95 -0.3 -0.85 -0.1 -0.8 -0.05 -0.8 -0.05 -0.7 0.1 -0.75 0.1 Q-0.75 0.15 -0.7 0.2 L-0.7 0.2 -0.75 0.2 -0.8 0.2 -0.8 0.15 -0.8 0.15 -0.8 0.25 -0.75 0.25 -0.7 0.25 -0.7 0.25 -0.75 0.35 -0.75 0.4 -0.7 0.4 -0.7 0.35 -0.65 0.3 -0.6 0.35 -0.55 0.4 -0.55 0.35 -0.6 0.35 -0.6 0.4 -0.6 0.45 -0.55 0.4 -0.45 0.45 -0.4 0.55 -0.45 0.6 -0.4 0.65 -0.4 0.65 -0.35 0.65 -0.35 0.6 -0.35 0.6 -0.35 0.6 -0.4 0.6 -0.35 0.6 -0.3 0.65 -0.35 0.7 -0.4 0.7 -0.4 0.75 -0.35 0.75 -0.25 0.75 -0.25 0.75 -0.25 0.8 -0.2 0.85 -0.15 0.85 -0.15 0.8 -0.2 0.8 -0.2 0.8 -0.2 0.75 -0.1 0.75 -0.1 0.75 0.05 0.8 0.1 0.85 0.3 0.95 0.6 1.2 0.65 1.2 0.85 1.35 1.2 1.55 1.25 1.55 1.35 1.6 1.5 1.7 1.65 1.8 1.65 1.85 1.7 1.85 1.95 1.95 2.0 1.95 2.05 1.95 2.2 1.95 M-1.65 -2.15 L-1.65 -2.1 -1.7 -2.1 -1.75 -2.1 -1.75 -2.15 -1.7 -2.15 -1.7 -2.15 -1.75 -2.15 -1.75 -2.2 M-1.65 -2.2 L-1.65 -2.15 M-1.55 -1.7 L-1.55 -1.7 -1.5 -1.75 M-1.8 -1.7 L-1.8 -1.7 M-1.45 -1.45 L-1.5 -1.55 -1.55 -1.7 M-1.35 -1.25 L-1.4 -1.4 -1.45 -1.45 M-1.2 -0.95 L-1.35 -1.25 M-1.05 -0.7 L-1.1 -0.75 -1.2 -0.95 M-0.45 -0.15 L-0.45 -0.25 Q-0.4 -0.35 -0.45 -0.35 L-0.45 -0.4 -0.5 -0.4 -0.55 -0.45 -0.55 -0.4 -0.5 -0.35 -0.5 -0.3 -0.5 -0.25 -0.55 -0.25 -0.55 -0.2 -0.55 -0.3 -0.6 -0.3 -0.65 -0.3 -0.65 -0.3 -0.6 -0.25 -0.6 -0.15 -0.6 -0.15 -0.65 -0.15 -0.65 -0.1 -0.65 -0.1 -0.6 -0.1 -0.55 -0.1 -0.5 0.0 -0.5 0.05 -0.5 0.05 -0.55 0.05 -0.55 0.0 -0.6 0.0 -0.7 -0.1 -0.7 -0.15 -0.85 -0.4 -1.05 -0.7 M-0.35 0.15 Q-0.3 0.1 -0.3 0.0 L-0.4 -0.1 -0.35 -0.1 -0.35 -0.1 -0.35 -0.1 -0.3 -0.1 -0.3 -0.15 -0.4 -0.15 -0.45 -0.15 -0.4 -0.15 -0.4 -0.15 M-0.55 -0.4 L-0.6 -0.4 -0.6 -0.35 -0.55 -0.3 -0.55 -0.3 -0.55 -0.35 -0.55 -0.4 M-0.65 -0.3 L-0.65 -0.3 M-0.35 -0.1 L-0.35 -0.1 M-0.15 0.4 L-0.15 0.35 -0.2 0.25 -0.2 0.25 -0.25 0.25 -0.25 0.25 -0.25 0.25 -0.3 0.25 -0.3 0.25 -0.35 0.25 -0.4 0.3 -0.45 0.35 -0.45 0.35 -0.45 0.4 -0.45 0.45 M-0.15 0.4 Q-0.1 0.35 0.0 0.35 L0.1 0.4 0.1 0.35 0.15 0.35 Q0.2 0.4 0.15 0.45 L0.25 0.45 0.35 0.45 0.4 0.5 0.4 0.55 0.45 0.6 0.4 0.6 0.35 0.65 0.3 0.6 0.3 0.55 0.35 0.55 0.35 0.6 0.4 0.6 0.35 0.55 0.35 0.5 0.3 0.5 0.25 0.55 0.2 0.55 0.2 0.6 0.25 0.6 0.3 0.6 0.3 0.65 0.3 0.7 0.25 0.65 0.2 0.65 0.15 0.6 0.15 0.7 0.1 0.7 0.1 0.6 0.0 0.5 -0.05 0.5 -0.05 0.5 -0.05 0.55 0.0 0.6 0.0 0.65 0.1 0.7 0.15 0.75 0.4 0.9 0.7 1.05 0.75 1.1 0.95 1.2 1.25 1.4 1.4 1.45 1.45 1.5 1.55 1.55 1.7 1.6 1.75 1.55 1.8 1.5 1.85 1.5 1.85 1.45 Q1.9 1.4 1.95 1.4 2.0 1.4 2.05 1.45 L2.05 1.5 2.05 1.55 2.0 1.55 2.0 1.5 2.0 1.45 1.95 1.5 1.9 1.5 1.85 1.55 1.9 1.6 1.95 1.6 1.9 1.6 1.95 1.55 2.0 1.55 2.0 1.6 1.95 1.65 1.9 1.65 1.9 1.7 1.95 1.7 2.0 1.7 2.0 1.65 2.05 1.65 2.05 1.7 2.05 1.75 2.1 1.7 2.1 1.6 2.15 1.6 2.2 1.6 M2.2 1.65 L2.15 1.7 2.1 1.7 2.1 1.75 2.15 1.8 2.15 1.8 2.2 1.8 M-0.35 0.15 L-0.3 0.15 Q-0.25 0.15 -0.25 0.2 L-0.2 0.25 -0.2 0.25 M-0.5 0.05 L-0.5 0.05 M-0.4 0.3 L-0.4 0.3 M-0.25 0.35 L-0.25 0.35 M-0.45 0.4 L-0.45 0.4 Z" fill="none" stroke="#000000" stroke-linecap="round" stroke-linejoin="round" stroke-opacity="0.4509804" stroke-width="1.0"/>
  </g>
</svg>
