<?xml version="1.0" encoding="UTF-8" standalone="no"?>
<svg xmlns:xlink="http://www.w3.org/1999/xlink" height="5.2px" width="5.2px" xmlns="http://www.w3.org/2000/svg">
  <g transform="matrix(1.0, 0.0, 0.0, 1.0, 2.6, 2.6)">
    <path d="M1.75 -2.6 L1.7 -2.5 1.65 -2.5 1.65 -2.5 1.6 -2.45 1.5 -2.45 1.4 -2.45 1.0 -2.45 1.0 -2.45 0.95 -2.4 0.65 -2.4 0.3 -2.4 0.25 -2.4 0.05 -2.4 0.0 -2.35 -0.2 -2.35 -0.25 -2.35 -0.35 -2.35 -0.75 -2.35 -0.9 -2.35 -1.3 -2.35 -1.65 -2.4 -1.7 -2.4 -1.9 -2.4 -1.9 -2.4 -2.05 -2.4 -2.05 -2.45 -2.1 -2.45 -2.2 -2.5 -2.2 -2.5 -2.3 -2.55 -2.3 -2.55 -2.15 -2.6 1.75 -2.6 M1.55 2.3 L1.55 2.35 1.55 2.45 1.4 2.45 1.2 2.45 1.1 2.5 0.95 2.5 0.85 2.5 0.45 2.5 0.05 2.5 -0.3 2.5 -0.65 2.5 -0.85 2.5 -1.25 2.5 -1.65 2.5 -2.0 2.5 -2.05 2.5 -2.05 2.4 -2.05 2.3 -2.0 2.3 -2.05 2.3 -2.05 2.2 1.55 2.2 1.55 2.3" fill="#f5efe8" fill-rule="evenodd" stroke="none"/>
    <path d="M-2.3 -2.55 L-2.3 -2.55 -2.2 -2.5 -2.2 -2.5 -2.1 -2.45 -2.05 -2.45 -2.05 -2.4 -1.9 -2.4 -1.9 -2.4 -1.7 -2.4 -1.65 -2.4 -1.3 -2.35 -0.9 -2.35 -0.75 -2.35 -0.35 -2.35 -0.25 -2.35 -0.2 -2.35 0.0 -2.35 0.05 -2.4 0.25 -2.4 0.3 -2.4 0.65 -2.4 0.95 -2.4 1.0 -2.45 1.0 -2.45 1.4 -2.45 1.5 -2.45 1.6 -2.45 1.65 -2.5 1.65 -2.5 1.7 -2.5 1.75 -2.6 2.15 -2.6 Q2.5 -2.6 2.55 -2.3 L-2.6 -2.3 Q-2.55 -2.5 -2.3 -2.55 M2.55 2.3 Q2.5 2.6 2.15 2.6 L-2.15 2.6 Q-2.5 2.6 -2.6 2.3 L-2.15 2.3 -2.05 2.3 -2.0 2.3 -2.05 2.3 -2.05 2.4 -2.05 2.5 -2.0 2.5 -1.65 2.5 -1.25 2.5 -0.85 2.5 -0.65 2.5 -0.3 2.5 0.05 2.5 0.45 2.5 0.85 2.5 0.95 2.5 1.1 2.5 1.2 2.45 1.4 2.45 1.55 2.45 1.55 2.35 1.55 2.3 2.15 2.3 2.55 2.3" fill="#cdc8c2" fill-rule="evenodd" stroke="none"/>
    <path d="M-2.6 -2.3 L2.55 -2.3 2.6 -2.15 2.6 -0.45 2.55 -0.4 2.55 -0.35 2.55 -0.3 2.55 -0.2 2.5 -0.15 2.5 -0.1 2.45 -0.05 2.45 0.05 2.4 0.1 2.4 0.2 2.3 0.3 2.3 -0.5 2.3 -1.05 2.35 -1.45 2.35 -2.0 2.25 -2.1 2.25 -2.1 2.2 -2.05 2.2 -2.05 2.2 -2.15 2.15 -2.2 -2.15 -2.2 -2.15 -2.15 -2.2 -2.15 -2.2 2.15 -2.15 2.2 -2.05 2.2 -2.05 2.3 -2.15 2.3 Q-2.3 2.25 -2.3 2.15 L-2.3 0.3 -2.3 0.3 -2.4 0.2 -2.45 0.15 -2.5 0.1 -2.5 0.05 -2.55 -0.05 -2.6 -0.1 -2.6 -2.3 M2.1 2.2 L2.15 2.25 2.2 2.25 2.15 2.3 1.55 2.3 1.55 2.2 2.1 2.2" fill="#d4d4d4" fill-opacity="0.5686275" fill-rule="evenodd" stroke="none"/>
    <path d="M2.2 -2.05 L2.2 -2.05 2.25 -2.1 2.25 -2.1 2.35 -2.0 2.35 -1.45 2.3 -1.05 2.3 -0.5 2.3 0.3 2.4 0.2 2.4 0.1 2.45 0.05 2.45 -0.05 2.5 -0.1 2.5 -0.15 2.55 -0.2 2.55 -0.3 2.55 -0.35 2.55 -0.4 2.6 -0.45 2.6 2.15 2.55 2.3 2.15 2.3 2.2 2.25 2.15 2.25 2.1 2.2 2.15 2.2 2.2 2.15 2.2 -2.05 M-2.6 2.3 L-2.6 -0.1 -2.55 -0.05 -2.5 0.05 -2.5 0.1 -2.45 0.15 -2.4 0.2 -2.3 0.3 -2.3 0.3 -2.3 2.15 Q-2.3 2.25 -2.15 2.3 L-2.6 2.3" fill="#989898" fill-opacity="0.5686275" fill-rule="evenodd" stroke="none"/>
    <path d="M-2.15 -2.2 L2.15 -2.2 2.2 -2.15 2.2 -2.05 2.2 2.15 2.15 2.2 2.1 2.2 1.55 2.2 -2.05 2.2 -2.15 2.2 -2.2 2.15 -2.2 -2.15 -2.15 -2.15 -2.15 -2.2" fill="url(#gradient0)" fill-rule="evenodd" stroke="none"/>
    <path d="M1.75 -2.6 L-2.15 -2.6 -2.3 -2.55 Q-2.55 -2.5 -2.6 -2.3 L-2.6 -0.1 -2.6 2.3 Q-2.5 2.6 -2.15 2.6 L2.15 2.6 Q2.5 2.6 2.55 2.3 L2.6 2.15 2.6 -0.45 2.6 -2.15 2.55 -2.3 Q2.5 -2.6 2.15 -2.6 L1.75 -2.6 M-2.15 -2.2 L2.15 -2.2 2.2 -2.15 2.2 -2.05 2.2 2.15 2.15 2.2 2.1 2.2 1.55 2.2 -2.05 2.2 -2.15 2.2 -2.2 2.15 -2.2 -2.15" fill="none" stroke="#000000" stroke-linecap="round" stroke-linejoin="round" stroke-opacity="0.4" stroke-width="1.0"/>
    <path d="M2.2 1.8 L2.15 1.8 2.1 1.85 1.65 1.7 1.65 1.65 1.6 1.65 1.6 1.65 1.55 1.65 1.6 1.65 1.55 1.65 1.55 1.6 1.6 1.65 1.65 1.65 1.7 1.7 1.75 1.7 1.7 1.7 1.75 1.75 1.85 1.7 1.85 1.75 1.9 1.75 1.95 1.75 2.0 1.75 2.05 1.8 2.1 1.8 2.2 1.8 M1.05 1.4 L1.0 1.4 0.95 1.35 0.95 1.3 1.0 1.35 1.05 1.4 M0.85 1.25 L0.75 1.15 0.8 1.15 0.8 1.2 0.85 1.2 0.8 1.2 0.8 1.15 0.85 1.15 0.85 1.2 0.9 1.2 0.9 1.25 0.85 1.25 M-1.35 -1.15 L-1.4 -1.25 -1.4 -1.3 -1.4 -1.3 -1.35 -1.3 -1.35 -1.3 -1.3 -1.25 -1.3 -1.2 -1.35 -1.2 -1.35 -1.2 -1.35 -1.2 -1.3 -1.15 -1.3 -1.15 -1.3 -1.15 -1.35 -1.15 M-1.5 -1.35 L-1.5 -1.45 -1.5 -1.45 -1.5 -1.5 -1.5 -1.5 -1.5 -1.5 -1.5 -1.55 -1.45 -1.55 -1.45 -1.5 -1.45 -1.5 -1.45 -1.45 -1.5 -1.45 -1.5 -1.4 -1.45 -1.4 -1.5 -1.35 M-1.8 -2.1 L-1.8 -2.2 -1.8 -2.15 -1.75 -2.15 -1.75 -2.1 -1.75 -2.05 -1.75 -2.05 -1.7 -2.0 -1.7 -2.0 -1.7 -2.0 -1.75 -2.0 -1.75 -2.05 -1.75 -2.05 -1.8 -2.05 -1.75 -2.05 -1.75 -2.1 -1.8 -2.1 M-1.7 -1.9 L-1.7 -1.9 -1.7 -1.9 -1.7 -1.9 -1.65 -1.85 -1.7 -1.85 -1.7 -1.8 -1.7 -1.85 -1.7 -1.85 -1.7 -1.9 M-1.6 -1.75 L-1.6 -1.7 -1.55 -1.7 -1.6 -1.7 -1.6 -1.7 Q-1.6 -1.7 -1.6 -1.75 L-1.6 -1.75 M-1.6 -1.65 L-1.55 -1.65 -1.55 -1.6 -1.55 -1.6 -1.6 -1.6 -1.6 -1.65 M-1.65 -1.75 L-1.65 -1.8 -1.65 -1.75 M1.35 1.5 L1.3 1.5 1.3 1.45 1.35 1.5 M1.15 1.35 L1.1 1.35 1.05 1.35 1.05 1.3 1.1 1.35 1.1 1.3 1.15 1.35 1.15 1.35 M1.2 1.45 L1.25 1.45 1.2 1.45 1.15 1.4 1.2 1.4 1.2 1.45 M1.4 1.6 L1.45 1.6 1.5 1.6 1.45 1.6 1.45 1.6 1.4 1.6" fill="#626455" fill-rule="evenodd" stroke="none"/>
    <path d="M-1.35 -1.45 L-1.3 -1.4 -1.3 -1.35 -1.3 -1.4 -1.3 -1.35 -1.3 -1.35 -1.35 -1.35 -1.35 -1.35 -1.35 -1.4 -1.4 -1.4 -1.4 -1.45 -1.4 -1.45 -1.4 -1.5 -1.4 -1.45 -1.45 -1.45 -1.45 -1.45 -1.45 -1.5 -1.4 -1.5 -1.4 -1.5 -1.4 -1.5 -1.35 -1.45 -1.35 -1.45 -1.35 -1.45 M0.95 1.15 L1.0 1.15 1.1 1.2 1.05 1.2 1.05 1.25 1.1 1.25 1.05 1.25 1.1 1.25 1.1 1.3 1.05 1.3 1.05 1.25 1.0 1.25 1.0 1.2 0.95 1.2 0.95 1.15 1.0 1.15 0.95 1.15 M1.8 1.65 L2.2 1.8 2.1 1.8 2.05 1.8 2.0 1.75 1.85 1.7 1.8 1.7 1.75 1.65 1.8 1.65" fill="#a2a080" fill-rule="evenodd" stroke="none"/>
    <path d="M-1.8 -2.2 L-1.7 -2.2 -1.65 -2.05 -1.65 -2.0 -1.55 -1.85 -1.55 -1.8 -1.55 -1.85 -1.6 -1.85 -1.6 -1.85 -1.6 -1.85 -1.6 -1.85 -1.65 -1.9 -1.65 -1.85 -1.6 -1.8 -1.6 -1.75 -1.6 -1.75 Q-1.6 -1.7 -1.6 -1.7 L-1.6 -1.7 -1.55 -1.7 -1.55 -1.7 -1.55 -1.7 -1.5 -1.6 -1.45 -1.55 -1.45 -1.55 -1.5 -1.55 -1.5 -1.5 -1.5 -1.5 -1.5 -1.5 -1.5 -1.45 -1.45 -1.45 -1.45 -1.5 -1.45 -1.5 -1.45 -1.45 Q-1.5 -1.45 -1.5 -1.45 L-1.5 -1.45 -1.55 -1.45 -1.75 -1.95 -1.8 -2.1 -1.75 -2.1 -1.75 -2.05 -1.8 -2.05 -1.75 -2.05 -1.75 -2.05 -1.75 -2.0 -1.7 -2.0 -1.7 -2.0 -1.7 -2.0 -1.75 -2.05 -1.75 -2.05 -1.75 -2.1 -1.75 -2.15 -1.8 -2.15 -1.8 -2.2 M-1.1 -1.15 L-1.05 -1.05 -0.95 -0.95 -0.9 -0.85 -0.9 -0.85 -0.9 -0.85 -0.95 -0.85 -0.95 -0.85 -0.95 -0.8 -0.95 -0.8 -1.0 -0.8 -0.95 -0.8 -0.95 -0.75 -0.9 -0.75 -0.95 -0.7 -0.9 -0.65 -0.9 -0.6 -0.9 -0.6 -0.9 -0.6 -0.95 -0.6 -0.95 -0.6 -0.95 -0.55 -0.95 -0.55 -1.0 -0.5 -1.0 -0.55 -1.0 -0.55 -1.0 -0.55 -1.0 -0.55 -1.0 -0.6 -1.0 -0.6 -1.0 -0.65 -1.0 -0.7 -1.05 -0.7 -1.05 -0.75 -1.05 -0.8 -1.1 -0.8 -1.1 -0.8 -1.1 -0.8 -1.1 -0.85 -1.05 -0.8 -1.05 -0.85 -1.05 -0.9 -1.1 -0.9 -1.1 -0.9 -1.1 -0.95 -1.15 -0.95 -1.15 -0.9 -1.15 -0.85 -1.15 -0.85 -1.15 -0.85 -1.15 -0.9 -1.15 -0.95 -1.15 -0.95 -1.15 -1.0 -1.2 -1.0 -1.2 -0.9 -1.2 -0.9 -1.2 -0.95 -1.2 -0.95 -1.2 -0.95 -1.25 -0.95 -1.25 -1.0 -1.3 -1.05 -1.3 -1.05 -1.25 -1.1 -1.25 -1.1 -1.3 -1.1 -1.3 -1.15 -1.3 -1.15 -1.35 -1.2 -1.35 -1.2 -1.35 -1.2 -1.3 -1.2 -1.3 -1.25 -1.35 -1.3 -1.35 -1.3 -1.4 -1.3 -1.4 -1.3 -1.4 -1.25 -1.5 -1.35 -1.45 -1.4 -1.5 -1.4 -1.5 -1.45 -1.45 -1.4 -1.45 -1.45 -1.45 -1.45 -1.4 -1.45 -1.4 -1.4 -1.4 -1.4 -1.35 -1.3 -1.3 -1.3 -1.3 -1.25 -1.25 -1.25 -1.25 -1.2 -1.15 -1.1 -1.15 -1.1 -1.15 -1.1 -1.1 -1.1 -1.1 -1.1 -1.15 -1.1 -1.1 -1.1 -1.1 -1.15 M0.5 0.75 L0.55 0.8 0.7 0.9 0.75 0.95 0.75 1.0 0.7 0.95 0.75 1.0 0.7 1.0 0.75 1.0 0.75 1.05 0.8 1.1 0.85 1.15 0.9 1.15 1.0 1.25 1.05 1.25 1.05 1.3 1.1 1.3 1.1 1.35 1.05 1.3 1.05 1.35 1.1 1.35 1.15 1.35 1.2 1.4 1.3 1.45 1.3 1.5 1.35 1.5 1.4 1.5 1.4 1.55 1.45 1.55 1.45 1.45 1.4 1.45 1.45 1.45 1.75 1.65 1.8 1.65 1.75 1.65 1.8 1.7 1.85 1.7 2.0 1.75 1.95 1.75 1.9 1.75 1.85 1.75 1.85 1.7 1.75 1.75 1.7 1.7 1.75 1.7 1.7 1.7 1.65 1.65 1.6 1.65 1.55 1.6 1.55 1.65 1.6 1.65 1.55 1.65 1.6 1.65 1.6 1.65 1.65 1.65 1.65 1.7 1.4 1.6 1.05 1.4 1.05 1.35 1.0 1.35 1.05 1.35 1.0 1.35 0.95 1.3 0.95 1.35 0.85 1.25 0.9 1.25 0.9 1.2 0.85 1.2 0.85 1.15 0.8 1.15 0.8 1.2 0.85 1.2 0.8 1.2 0.8 1.15 0.75 1.15 0.7 1.15 0.7 1.1 0.65 1.1 0.7 1.05 0.65 1.05 0.6 1.1 0.6 1.05 0.55 1.05 0.6 1.05 0.65 1.05 0.65 1.05 0.6 1.05 0.55 1.05 0.55 1.0 0.5 1.0 0.45 1.0 0.45 0.95 0.45 0.95 0.4 0.9 0.4 0.95 0.4 0.9 0.45 0.9 0.45 0.95 0.5 0.9 0.5 0.95 0.55 0.95 Q0.55 0.95 0.55 1.0 L0.55 0.95 0.55 0.95 0.5 0.9 0.45 0.9 0.45 0.85 0.4 0.85 0.35 0.85 0.4 0.85 0.45 0.85 0.45 0.8 0.4 0.8 0.35 0.8 0.3 0.8 0.35 0.8 0.3 0.8 0.25 0.8 0.25 0.85 0.2 0.85 0.2 0.8 0.25 0.8 0.2 0.8 0.15 0.85 0.15 0.8 0.2 0.75 0.25 0.8 0.25 0.7 0.3 0.7 0.35 0.75 0.4 0.75 0.4 0.8 0.45 0.8 0.45 0.75 0.5 0.8 0.45 0.75 0.5 0.75 M0.5 1.0 L0.55 1.0 0.6 1.0 0.65 1.0 0.6 1.0 0.6 1.0 0.55 1.0 0.5 1.0 0.5 0.95 0.45 0.95 0.5 1.0 M0.4 0.9 L0.35 0.9 0.35 0.85 0.4 0.9 0.45 0.9 0.4 0.9 M0.05 0.8 L0.05 0.85 0.0 0.75 -0.05 0.65 -0.05 0.65 0.0 0.65 0.0 0.65 0.0 0.65 0.05 0.65 0.05 0.8 M-0.1 0.75 L-0.1 0.8 -0.1 0.85 -0.15 0.85 -0.15 0.8 -0.15 0.65 -0.15 0.6 -0.1 0.65 -0.1 0.7 -0.1 0.75 M-0.4 0.45 L-0.45 0.45 -0.45 0.4 -0.4 0.4 -0.35 0.4 -0.35 0.45 -0.4 0.45 M-0.7 0.15 L-0.7 0.05 -0.7 0.0 -0.65 0.0 -0.65 0.0 -0.65 0.15 -0.7 0.15 M-0.9 0.0 L-0.85 -0.05 -0.85 -0.05 -0.8 -0.1 -0.8 -0.1 -0.8 -0.05 -0.85 0.0 -0.85 0.0 -0.9 0.0 -0.9 0.0 M-1.05 -0.25 L-1.05 -0.25 -1.0 -0.25 -0.95 -0.25 -0.9 -0.25 -0.9 -0.25 -0.85 -0.25 -0.85 -0.2 -0.85 -0.2 -0.95 -0.2 -1.0 -0.25 -1.05 -0.25 M-1.05 -0.45 L-1.05 -0.45 -1.0 -0.45 -1.0 -0.45 -0.95 -0.4 -0.85 -0.4 -0.85 -0.35 -1.05 -0.45 M-1.05 -0.55 L-1.05 -0.6 -1.0 -0.6 -1.05 -0.55 M-1.7 -1.9 L-1.7 -1.85 -1.7 -1.85 -1.7 -1.8 -1.7 -1.85 -1.65 -1.85 -1.7 -1.9 -1.7 -1.9 -1.7 -1.9 -1.7 -1.9 M-1.65 -1.75 L-1.65 -1.8 -1.65 -1.75 M-1.6 -1.65 L-1.6 -1.6 -1.55 -1.6 -1.55 -1.6 -1.55 -1.65 -1.6 -1.65 M-1.5 -1.45 L-1.5 -1.45 M-1.2 -1.0 L-1.2 -1.0 -1.15 -1.0 -1.2 -1.05 -1.2 -1.05 -1.2 -1.0 -1.2 -1.0 -1.2 -0.95 -1.2 -1.0 M-1.25 -1.0 L-1.2 -1.05 -1.25 -1.05 -1.25 -1.0 M-1.25 -0.95 Q-1.2 -0.95 -1.2 -0.95 -1.2 -0.95 -1.25 -0.95 M-1.1 -0.85 L-1.1 -0.85 -1.1 -0.8 -1.1 -0.8 -1.1 -0.85 M-1.05 -0.75 L-1.05 -0.75 -1.05 -0.8 -1.05 -0.8 -1.05 -0.75 -1.05 -0.75 -1.05 -0.7 -1.0 -0.7 -1.0 -0.7 -1.0 -0.7 -0.95 -0.7 -0.95 -0.75 -1.0 -0.75 -1.0 -0.8 -1.0 -0.8 Q-1.0 -0.75 -1.05 -0.75 L-1.05 -0.75 -1.05 -0.7 -1.05 -0.75 M-1.1 -1.05 L-1.1 -1.0 -1.05 -1.0 -1.05 -1.05 -1.1 -1.05 -1.1 -1.05 M-1.15 -0.85 L-1.15 -0.85 M-1.05 -0.7 L-1.05 -0.7 M-0.25 0.55 L-0.25 0.6 -0.3 0.6 -0.35 0.65 -0.4 0.65 -0.35 0.6 -0.35 0.6 -0.3 0.55 -0.25 0.55 -0.25 0.55 M0.3 0.85 L0.35 0.85 0.3 0.85 M0.65 0.9 L0.65 0.9 0.7 0.95 0.65 0.9 0.6 0.9 0.65 0.9 M1.3 1.4 L1.25 1.4 1.3 1.4 M1.4 1.6 L1.45 1.6 1.45 1.6 1.5 1.6 1.45 1.6 1.4 1.6 M1.2 1.45 L1.2 1.4 1.15 1.4 1.2 1.45 1.25 1.45 1.2 1.45 M0.0 0.65 L0.0 0.65 0.0 0.65" fill="#7b7d61" fill-rule="evenodd" stroke="none"/>
    <path d="M-1.55 -1.8 L-1.55 -1.8 -1.55 -1.8 -1.55 -1.75 -1.55 -1.8 -1.55 -1.75 -1.6 -1.75 -1.6 -1.8 -1.6 -1.8 -1.65 -1.85 -1.65 -1.9 -1.6 -1.85 -1.6 -1.85 -1.6 -1.85 -1.6 -1.85 -1.55 -1.85 -1.55 -1.8 M-1.45 -1.65 L-1.45 -1.65 -1.45 -1.6 -1.45 -1.6 -1.5 -1.6 -1.45 -1.65 -1.5 -1.65 -1.5 -1.7 -1.45 -1.65 M1.4 1.4 L1.4 1.45 1.35 1.45 1.4 1.45 1.4 1.4 M-1.15 -1.1 L-1.15 -1.15 -1.15 -1.1 M-1.2 -1.15 L-1.15 -1.15 -1.15 -1.15 -1.2 -1.15 M0.75 1.0 L0.75 1.0 0.75 1.05 0.75 1.0 M1.4 1.5 L1.4 1.45 1.45 1.45 1.45 1.55 1.4 1.55 1.4 1.5 M1.25 1.35 L1.2 1.35 1.2 1.35 1.25 1.35" fill="#b4b79e" fill-rule="evenodd" stroke="none"/>
    <path d="M-1.55 -1.8 L-1.5 -1.7 -1.45 -1.7 -1.5 -1.7 -1.45 -1.65 -1.45 -1.6 -1.4 -1.55 -1.35 -1.45 -1.35 -1.45 -1.35 -1.45 -1.4 -1.5 -1.4 -1.5 -1.4 -1.5 -1.45 -1.5 -1.45 -1.45 -1.45 -1.5 -1.45 -1.55 -1.45 -1.55 -1.5 -1.6 -1.55 -1.7 -1.55 -1.7 -1.55 -1.7 -1.6 -1.7 -1.6 -1.75 -1.55 -1.75 -1.55 -1.8 -1.55 -1.75 -1.55 -1.8 -1.55 -1.8 M-1.25 -1.35 L-1.2 -1.3 -1.1 -1.15 -1.1 -1.1 -1.15 -1.1 -1.1 -1.1 -1.1 -1.1 -1.15 -1.1 -1.15 -1.1 -1.15 -1.1 -1.25 -1.2 -1.25 -1.3 -1.25 -1.3 -1.25 -1.35 M-0.85 -0.75 L-0.8 -0.75 -0.8 -0.7 -0.75 -0.65 -0.7 -0.6 -0.75 -0.6 -0.75 -0.6 -0.8 -0.6 -0.8 -0.65 -0.85 -0.65 -0.85 -0.7 -0.85 -0.75 -0.85 -0.75 M0.3 0.55 L0.35 0.6 0.4 0.65 0.35 0.65 0.3 0.65 0.3 0.6 0.25 0.6 0.25 0.55 0.3 0.55 M0.75 0.95 L0.9 1.05 0.95 1.1 0.9 1.15 0.9 1.1 0.85 1.1 0.8 1.1 0.75 1.05 0.75 1.0 0.75 1.0 0.7 1.0 0.75 1.0 0.7 0.95 0.75 1.0 0.75 0.95 M1.1 1.2 L1.15 1.25 1.2 1.3 1.25 1.35 1.3 1.35 1.4 1.4 1.4 1.45 1.35 1.45 1.4 1.45 1.4 1.5 1.35 1.5 1.3 1.45 1.2 1.4 1.15 1.35 1.15 1.35 1.1 1.3 1.1 1.25 1.05 1.25 1.1 1.25 1.05 1.25 1.05 1.2 1.1 1.2 M-1.6 -1.8 L-1.6 -1.8 -1.6 -1.75 -1.6 -1.8 M-1.45 -1.65 L-1.5 -1.7 -1.5 -1.65 -1.45 -1.65 -1.5 -1.6 -1.45 -1.6 -1.45 -1.6 -1.45 -1.65 M-1.4 -1.45 L-1.4 -1.5 -1.4 -1.45 M-1.2 -1.15 L-1.15 -1.15 -1.15 -1.15 -1.2 -1.15 M-1.15 -1.1 L-1.15 -1.15 -1.15 -1.1 M-1.1 -1.05 L-1.1 -1.05 -1.05 -1.05 -1.05 -1.0 -1.1 -1.0 -1.1 -1.05 M0.65 0.9 L0.6 0.9 0.65 0.9 0.7 0.95 0.65 0.9 0.65 0.9 M1.3 1.4 L1.25 1.4 1.3 1.4 M1.25 1.35 L1.2 1.35 1.2 1.35 1.25 1.35" fill="#9da184" fill-rule="evenodd" stroke="none"/>
    <path d="M0.75 1.15 L0.7 1.15 0.7 1.1 0.7 1.15 0.75 1.15 M-1.3 -1.05 L-1.3 -1.1 -1.35 -1.15 -1.3 -1.15 -1.3 -1.15 -1.3 -1.1 -1.25 -1.1 -1.25 -1.1 -1.3 -1.05 M-1.5 -1.45 L-1.5 -1.45 Q-1.5 -1.45 -1.45 -1.45 L-1.45 -1.4 -1.5 -1.45 -1.5 -1.4 -1.5 -1.45 M1.0 1.35 L1.05 1.35 1.0 1.35 1.05 1.35 1.05 1.4 1.0 1.35" fill="#51524c" fill-rule="evenodd" stroke="none"/>
    <path d="M-1.3 -1.35 L-1.25 -1.35 -1.25 -1.3 -1.25 -1.3 -1.25 -1.2 -1.25 -1.25 -1.3 -1.25 -1.3 -1.3 -1.35 -1.3 -1.4 -1.4 -1.4 -1.4 -1.4 -1.45 -1.4 -1.45 -1.4 -1.4 -1.35 -1.4 -1.35 -1.35 -1.35 -1.35 -1.3 -1.35 -1.3 -1.35 -1.3 -1.4 -1.3 -1.35 M-0.9 -0.85 L-0.9 -0.85 -0.85 -0.8 -0.85 -0.75 -0.85 -0.75 -0.85 -0.7 -0.9 -0.7 -0.9 -0.75 -0.95 -0.8 -0.95 -0.8 -0.95 -0.85 -0.95 -0.85 -0.9 -0.85 -0.9 -0.85 -0.9 -0.85 M0.4 0.65 L0.45 0.65 0.5 0.7 0.5 0.75 0.45 0.75 0.5 0.8 0.45 0.75 0.4 0.75 0.4 0.7 0.35 0.7 0.35 0.65 0.4 0.65 M0.95 1.1 L0.95 1.15 1.0 1.15 0.95 1.15 0.95 1.2 1.0 1.2 1.0 1.25 0.9 1.15 0.85 1.15 0.8 1.1 0.85 1.1 0.9 1.1 0.9 1.15 0.95 1.1 M1.05 1.25 L1.0 1.25 1.05 1.25" fill="#86855f" fill-rule="evenodd" stroke="none"/>
    <path d="M0.65 1.1 L0.6 1.1 0.65 1.05 0.7 1.05 0.65 1.1 M0.6 1.05 L0.55 1.05 0.6 1.05 M0.55 1.0 L0.5 1.0 0.55 1.0 M0.4 0.95 L0.4 0.9 0.45 0.9 0.4 0.9 0.4 0.95 M0.35 0.9 L0.3 0.85 0.35 0.85 0.35 0.9 M0.25 0.85 L0.25 0.8 0.2 0.75 0.2 0.7 Q0.2 0.7 0.25 0.7 L0.25 0.65 0.3 0.65 0.35 0.7 0.4 0.7 0.4 0.75 0.45 0.75 0.45 0.8 0.4 0.8 0.4 0.75 0.35 0.75 0.3 0.7 0.25 0.7 0.25 0.8 0.3 0.8 0.35 0.8 0.3 0.8 0.25 0.85 M0.2 0.85 L0.2 0.8 0.2 0.85 M-0.15 0.85 L-0.15 0.7 -0.15 0.7 -0.2 0.65 -0.15 0.6 -0.15 0.6 -0.1 0.6 -0.1 0.65 -0.1 0.7 -0.1 0.65 -0.15 0.6 -0.15 0.65 -0.15 0.8 -0.15 0.85 M-0.35 0.65 L-0.4 0.65 -0.4 0.65 -0.35 0.6 -0.35 0.6 -0.35 0.6 -0.4 0.65 -0.35 0.65 M-0.45 0.45 L-0.5 0.45 -0.5 0.4 -0.4 0.4 -0.4 0.4 -0.45 0.4 -0.45 0.45 M-0.65 0.05 L-0.65 0.15 -0.7 0.15 -0.7 0.15 -0.65 0.15 -0.65 0.0 -0.65 0.0 -0.7 0.0 -0.65 0.0 -0.65 0.0 -0.6 0.0 -0.6 0.0 -0.6 0.05 -0.65 0.05 M-0.85 0.0 L-0.85 0.0 Q-0.9 0.05 -0.9 0.05 L-0.9 0.05 -0.9 0.0 -0.9 0.0 -0.85 0.0 -0.85 0.0 -0.8 -0.05 -0.8 -0.1 -0.8 -0.1 -0.75 -0.1 -0.75 -0.05 -0.8 -0.05 -0.85 0.0 M-0.95 -0.2 L-0.95 -0.2 -1.0 -0.2 -1.05 -0.25 -1.0 -0.25 -0.95 -0.2 -0.85 -0.2 -0.85 -0.2 -0.85 -0.25 -0.9 -0.25 -0.9 -0.25 -0.85 -0.25 -0.85 -0.25 -0.8 -0.2 -0.8 -0.2 -0.85 -0.2 -0.95 -0.2 M-1.0 -0.55 Q-1.0 -0.55 -1.0 -0.6 L-1.05 -0.55 -1.0 -0.6 -1.0 -0.6 -1.05 -0.65 -1.0 -0.65 -1.0 -0.7 -1.0 -0.65 -1.0 -0.6 -1.0 -0.6 -1.0 -0.55 M-1.05 -0.7 L-1.05 -0.7 -1.05 -0.75 -1.05 -0.7 -1.05 -0.7 M-1.05 -0.75 L-1.1 -0.75 -1.1 -0.75 -1.1 -0.8 -1.15 -0.85 -1.15 -0.85 -1.1 -0.85 -1.1 -0.85 -1.1 -0.8 -1.1 -0.8 -1.1 -0.8 -1.05 -0.8 -1.05 -0.75 -1.05 -0.75 -1.05 -0.75 -1.05 -0.75 M-1.15 -0.9 L-1.15 -0.9 -1.2 -0.9 -1.15 -0.95 -1.15 -0.95 -1.15 -0.9 M-1.2 -0.95 L-1.2 -0.95 -1.2 -1.0 -1.2 -1.0 -1.2 -0.95 M-1.25 -1.0 L-1.25 -1.0 -1.25 -1.05 -1.2 -1.05 -1.25 -1.0 M-1.2 -0.9 L-1.2 -0.9 M-1.15 -0.85 L-1.15 -0.85 M-1.1 -0.75 L-1.1 -0.8 -1.1 -0.75 M-0.95 -0.8 L-0.95 -0.8 -0.9 -0.75 -0.9 -0.7 -0.85 -0.7 -0.85 -0.7 -0.85 -0.6 -0.85 -0.6 -0.9 -0.6 -0.9 -0.65 -0.95 -0.7 -0.9 -0.75 -0.95 -0.75 -0.95 -0.8 -1.0 -0.8 -0.95 -0.8 -0.95 -0.8 M-0.8 -0.5 L-0.9 -0.5 -0.85 -0.55 -0.85 -0.55 Q-0.85 -0.55 -0.8 -0.55 L-0.8 -0.5 M-0.85 -0.55 L-0.9 -0.6 -0.85 -0.55 -0.85 -0.6 -0.85 -0.55 -0.85 -0.55 M-0.95 -0.55 L-0.95 -0.6 -0.95 -0.6 -0.9 -0.6 -0.9 -0.6 -0.9 -0.6 -0.9 -0.55 -0.95 -0.6 -0.95 -0.55 M-0.35 0.35 L-0.35 0.4 -0.35 0.45 -0.35 0.45 -0.35 0.4 -0.4 0.4 -0.4 0.35 -0.35 0.35 M-0.3 0.55 L-0.25 0.55 -0.25 0.55 -0.25 0.55 -0.25 0.55 -0.3 0.55 -0.35 0.6 -0.3 0.55 M0.15 0.6 L0.2 0.6 0.2 0.65 0.15 0.65 Q0.15 0.65 0.15 0.6 M0.5 0.95 L0.45 0.95 0.5 0.95 M0.2 0.65 L0.2 0.65 M0.25 0.8 L0.2 0.8 0.25 0.8" fill="#5f624e" fill-rule="evenodd" stroke="none"/>
    <path d="M0.3 0.85 L0.25 0.85 0.3 0.8 0.35 0.8 0.4 0.8 0.45 0.8 0.45 0.85 0.4 0.85 0.35 0.85 0.4 0.85 0.45 0.85 0.45 0.9 0.5 0.9 0.55 0.95 0.55 0.95 0.55 1.0 Q0.55 0.95 0.55 0.95 L0.5 0.95 0.5 1.0 0.45 0.95 0.45 0.9 0.4 0.9 0.35 0.85 0.3 0.85 M-1.05 -0.65 L-1.0 -0.7 -1.0 -0.7 -1.0 -0.7 -1.05 -0.7 -1.05 -0.75 -1.05 -0.8 -1.05 -0.8 -1.05 -0.75 -1.05 -0.75 Q-1.0 -0.75 -1.0 -0.8 L-1.0 -0.8 -1.0 -0.75 -0.95 -0.75 -0.95 -0.7 -1.0 -0.7 -1.0 -0.65 -1.05 -0.65 M-1.1 -0.8 L-1.1 -0.8 -1.1 -0.8 -1.1 -0.85 -1.1 -0.85 -1.1 -0.8 -1.1 -0.8 -1.1 -0.8 -1.1 -0.8 -1.1 -0.8 M-1.2 -1.0 L-1.2 -1.0 -1.2 -1.05 -1.2 -1.05 -1.15 -1.0 -1.2 -1.0 -1.2 -1.0 -1.2 -1.0 -1.15 -1.0 -1.15 -0.95 -1.15 -0.95 -1.15 -0.95 -1.2 -0.9 -1.2 -1.0 M-1.15 -0.85 L-1.15 -0.85 -1.15 -0.9 -1.15 -0.95 -1.1 -0.95 -1.1 -0.9 -1.1 -0.9 -1.05 -0.9 -1.05 -0.85 -1.05 -0.8 -1.1 -0.85 -1.1 -0.85 -1.15 -0.85 M-1.05 -0.75 L-1.05 -0.7 -1.05 -0.75 -1.05 -0.75 M0.45 0.9 L0.4 0.9 0.45 0.9 M0.5 0.95 L0.5 0.9 0.45 0.95 0.5 0.95 M0.65 1.05 L0.6 1.05 0.65 1.05 0.65 1.05 M0.55 1.0 L0.6 1.0 0.6 1.0 0.65 1.0 0.6 1.0 0.55 1.0" fill="#8c8f77" fill-rule="evenodd" stroke="none"/>
    <path d="M-0.75 -0.65 L-0.7 -0.65 -0.7 -0.55 -0.7 -0.55 -0.75 -0.5 -0.8 -0.5 -0.7 -0.5 -0.65 -0.5 -0.65 -0.45 -0.55 -0.5 -0.55 -0.5 -0.5 -0.45 -0.6 -0.45 -0.65 -0.4 -0.7 -0.4 -0.75 -0.45 -0.75 -0.45 -0.75 -0.45 -0.85 -0.45 -0.95 -0.45 -0.95 -0.45 -0.9 -0.5 -0.9 -0.5 -0.95 -0.5 -1.0 -0.5 -1.0 -0.5 -0.95 -0.55 -0.95 -0.55 -0.95 -0.6 -0.9 -0.55 -0.9 -0.6 -0.85 -0.6 -0.85 -0.6 -0.85 -0.7 -0.85 -0.7 -0.9 -0.7 -0.85 -0.7 -0.85 -0.65 -0.8 -0.65 -0.8 -0.6 -0.75 -0.6 -0.75 -0.6 -0.7 -0.6 -0.75 -0.65 M0.1 0.45 L0.1 0.4 0.15 0.35 0.15 0.45 0.15 0.6 0.15 0.65 0.2 0.65 0.2 0.6 0.15 0.6 0.15 0.55 0.2 0.5 0.25 0.5 0.3 0.5 0.3 0.55 0.25 0.55 0.25 0.6 0.3 0.6 0.3 0.65 0.35 0.65 0.35 0.7 0.3 0.65 0.25 0.65 0.25 0.7 Q0.2 0.7 0.2 0.7 L0.2 0.75 0.15 0.8 0.15 0.7 0.1 0.7 0.1 0.75 0.05 0.75 0.1 0.65 0.1 0.55 0.1 0.5 0.05 0.5 0.1 0.45 M-0.9 -0.5 L-0.9 -0.5 -0.8 -0.5 -0.8 -0.55 Q-0.85 -0.55 -0.85 -0.55 L-0.85 -0.55 -0.9 -0.5 M-0.7 -0.6 L-0.7 -0.6 -0.7 -0.6 M-0.85 -0.55 L-0.85 -0.55 -0.85 -0.6 -0.85 -0.55 -0.9 -0.6 -0.85 -0.55 M0.25 0.5 L0.25 0.55 0.25 0.5 M0.2 0.65 L0.2 0.65" fill="#474a39" fill-rule="evenodd" stroke="none"/>
    <path d="M-0.65 -0.35 L-0.6 -0.35 -0.65 -0.3 -0.65 -0.3 -0.7 -0.3 -0.7 -0.3 -0.7 -0.3 -0.65 -0.3 -0.7 -0.35 -0.7 -0.35 -0.75 -0.35 -0.7 -0.35 -0.7 -0.35 -0.65 -0.35 -0.65 -0.35 -0.65 -0.35 -0.65 -0.35 -0.7 -0.35 -0.65 -0.4 -0.65 -0.4 -0.65 -0.35 M-0.5 -0.1 L-0.45 -0.1 -0.45 -0.15 -0.45 -0.1 -0.4 -0.05 -0.4 -0.05 -0.4 -0.05 -0.35 0.0 -0.35 0.0 -0.4 0.05 -0.4 0.05 -0.4 -0.05 -0.4 -0.05 -0.45 0.0 -0.45 0.05 -0.45 0.0 -0.4 -0.05 -0.4 -0.05 -0.4 0.05 -0.4 0.05 -0.4 0.0 -0.45 0.0 -0.45 0.05 -0.4 0.05 -0.4 0.05 -0.35 0.1 -0.35 0.1 -0.35 0.05 -0.3 0.1 -0.2 0.1 -0.2 0.1 -0.25 0.1 -0.25 0.15 -0.3 0.15 -0.25 0.15 -0.25 0.2 -0.2 0.2 -0.2 0.2 -0.2 0.25 -0.25 0.25 -0.25 0.25 -0.25 0.3 -0.3 0.3 -0.25 0.25 -0.25 0.2 -0.3 0.2 -0.3 0.2 -0.35 0.2 -0.4 0.25 -0.4 0.2 -0.35 0.2 -0.35 0.2 -0.35 0.15 -0.35 0.15 -0.35 0.15 -0.4 0.2 -0.45 0.2 -0.4 0.2 -0.4 0.15 -0.35 0.1 -0.35 0.1 -0.3 0.15 -0.35 0.1 -0.4 0.1 -0.4 0.1 -0.45 0.1 -0.45 0.15 -0.45 0.1 -0.55 0.05 -0.55 0.1 -0.55 0.1 -0.6 0.1 -0.6 0.05 -0.65 0.1 -0.65 0.05 -0.6 0.05 -0.6 0.0 -0.6 0.0 -0.55 0.05 -0.55 0.05 -0.55 0.05 -0.5 0.0 -0.55 0.0 -0.55 -0.05 -0.5 -0.1 -0.5 -0.1 M0.0 0.4 L0.0 0.4 0.0 0.4 0.0 0.45 0.05 0.45 0.0 0.45 0.0 0.5 0.0 0.5 0.0 0.45 -0.05 0.5 -0.05 0.5 -0.05 0.45 -0.05 0.4 0.0 0.4 M0.05 0.75 L0.05 0.8 0.05 0.65 0.0 0.65 0.05 0.65 0.05 0.55 0.05 0.5 0.0 0.55 0.0 0.5 0.05 0.45 0.05 0.5 0.1 0.5 0.1 0.55 0.1 0.65 0.05 0.75 0.1 0.65 0.1 0.55 0.05 0.55 0.05 0.65 0.05 0.75 M0.05 0.85 L0.0 0.75 0.05 0.85 M-0.05 0.75 L-0.05 0.8 -0.1 0.75 -0.1 0.75 -0.1 0.7 -0.1 0.7 -0.05 0.7 -0.05 0.7 -0.1 0.65 -0.1 0.65 -0.1 0.6 -0.05 0.65 -0.05 0.65 -0.05 0.65 -0.05 0.7 -0.05 0.75 -0.05 0.75 M-0.2 0.7 L-0.2 0.7 -0.25 0.7 -0.25 0.7 -0.25 0.65 -0.25 0.6 -0.2 0.6 -0.2 0.6 -0.2 0.6 -0.2 0.65 -0.2 0.7 M-0.35 0.55 L-0.35 0.55 -0.4 0.55 -0.4 0.5 -0.4 0.5 -0.35 0.5 -0.4 0.45 -0.35 0.45 -0.3 0.45 -0.3 0.45 -0.35 0.45 -0.35 0.45 -0.35 0.5 -0.3 0.5 -0.3 0.55 -0.35 0.55 -0.35 0.55 -0.35 0.55 M-0.4 0.4 L-0.4 0.4 -0.4 0.35 -0.45 0.3 -0.4 0.3 -0.4 0.3 -0.35 0.25 -0.35 0.25 -0.3 0.2 -0.3 0.25 -0.3 0.25 -0.3 0.3 -0.35 0.3 -0.35 0.3 -0.35 0.3 -0.4 0.3 -0.4 0.35 -0.35 0.35 -0.4 0.35 -0.4 0.4 M-0.75 0.05 L-0.8 0.05 -0.75 0.05 -0.8 0.0 -0.8 0.0 -0.8 0.0 -0.75 0.0 -0.75 -0.05 -0.75 -0.05 -0.7 -0.05 -0.7 -0.05 -0.7 0.0 -0.75 0.0 -0.7 0.0 -0.7 -0.05 -0.7 0.05 -0.75 0.0 -0.75 0.05 M-0.9 -0.1 L-0.95 -0.1 -0.95 -0.15 -0.9 -0.2 -0.9 -0.15 -0.9 -0.15 -0.85 -0.15 -0.85 -0.15 -0.85 -0.15 -0.8 -0.15 -0.85 -0.1 -0.85 -0.1 -0.85 -0.1 -0.9 -0.1 -0.9 -0.1 M-0.95 -0.25 L-0.95 -0.3 -1.0 -0.3 -1.0 -0.3 -0.95 -0.3 -0.95 -0.3 -0.95 -0.3 -0.9 -0.3 -0.9 -0.3 -0.95 -0.35 -1.05 -0.45 -0.85 -0.35 -0.85 -0.4 -0.95 -0.4 -1.0 -0.45 -0.95 -0.4 -0.95 -0.45 -0.85 -0.4 -0.85 -0.4 -0.8 -0.4 -0.75 -0.4 -0.85 -0.4 -0.85 -0.4 -0.85 -0.3 -0.9 -0.3 -0.95 -0.3 -0.95 -0.3 -0.9 -0.25 -0.95 -0.25 -0.95 -0.25 M-0.75 -0.45 L-0.75 -0.45 -0.7 -0.4 -0.7 -0.4 -0.75 -0.4 -0.75 -0.45 -0.85 -0.45 -0.95 -0.45 -0.85 -0.45 -0.75 -0.45 M-0.7 -0.35 L-0.75 -0.35 -0.7 -0.4 -0.7 -0.4 -0.65 -0.4 -0.7 -0.35 M-0.9 -0.25 L-0.9 -0.25 -0.9 -0.3 -0.9 -0.3 -0.85 -0.3 -0.85 -0.25 -0.9 -0.25 M-0.55 0.0 L-0.55 0.0 M-0.6 -0.25 L-0.6 -0.25 -0.6 -0.2 -0.65 -0.2 -0.65 -0.2 -0.65 -0.25 -0.6 -0.25 -0.6 -0.25 -0.65 -0.25 -0.65 -0.25 -0.65 -0.25 -0.7 -0.25 -0.65 -0.25 -0.7 -0.3 -0.7 -0.3 -0.65 -0.3 -0.65 -0.3 -0.6 -0.3 -0.6 -0.25 -0.55 -0.2 -0.55 -0.2 -0.55 -0.2 -0.55 -0.15 -0.55 -0.1 -0.55 -0.1 -0.6 -0.15 -0.6 -0.15 -0.6 -0.2 -0.6 -0.2 -0.6 -0.25 M-0.45 0.05 L-0.45 0.0 -0.45 -0.05 -0.5 -0.05 -0.5 0.0 -0.5 0.0 -0.45 0.0 -0.5 0.0 -0.5 0.0 -0.55 0.05 -0.55 0.05 -0.45 0.05 -0.45 0.05 -0.5 0.05 -0.5 0.05 -0.55 0.05 -0.5 0.1 -0.5 0.1 -0.45 0.1 -0.45 0.1 -0.45 0.1 -0.45 0.05 M-0.75 -0.4 L-0.7 -0.4 -0.75 -0.35 -0.75 -0.4 M-0.3 0.1 L-0.25 0.1 -0.25 0.1 -0.3 0.1 -0.3 0.1 M-0.3 0.15 L-0.3 0.15 -0.3 0.15 M-0.3 0.5 L-0.3 0.5 M-0.1 0.35 L-0.15 0.4 -0.2 0.4 -0.2 0.35 -0.25 0.35 -0.25 0.3 -0.2 0.3 -0.15 0.3 -0.15 0.35 -0.15 0.3 -0.1 0.35 -0.15 0.35 -0.1 0.35 -0.1 0.35 -0.1 0.35 -0.1 0.4 -0.1 0.4 -0.05 0.4 -0.05 0.4 -0.05 0.4 -0.05 0.45 -0.05 0.45 -0.1 0.45 -0.1 0.45 -0.1 0.45 -0.15 0.45 -0.15 0.4 -0.1 0.35 M-0.55 0.05 L-0.55 0.05 -0.55 0.05 M0.05 0.5 L0.05 0.55 0.0 0.55 0.05 0.5 M-0.05 0.65 L0.0 0.75 -0.05 0.65" fill="#43412c" fill-rule="evenodd" stroke="none"/>
    <path d="M-0.7 -0.55 L-0.65 -0.6 -0.6 -0.6 -0.6 -0.6 -0.65 -0.55 -0.65 -0.5 -0.7 -0.5 -0.8 -0.5 -0.9 -0.5 -0.9 -0.5 -0.8 -0.5 -0.75 -0.5 -0.7 -0.55 M-0.65 -0.4 L-0.65 -0.4 -0.65 -0.35 -0.65 -0.35 -0.65 -0.35 -0.65 -0.35 -0.7 -0.35 -0.7 -0.35 -0.75 -0.35 -0.7 -0.35 -0.7 -0.35 -0.65 -0.3 -0.7 -0.3 -0.7 -0.3 -0.7 -0.3 -0.65 -0.3 -0.65 -0.3 -0.6 -0.35 -0.6 -0.3 -0.5 -0.2 -0.5 -0.1 -0.5 -0.1 -0.5 -0.1 -0.55 -0.05 -0.55 0.0 -0.6 -0.05 -0.6 -0.05 -0.6 -0.1 -0.7 -0.15 -0.75 -0.2 -0.75 -0.3 -0.8 -0.35 -0.85 -0.35 -0.85 -0.4 -0.85 -0.4 -0.75 -0.4 -0.8 -0.4 -0.85 -0.4 -0.85 -0.4 -0.95 -0.45 -0.85 -0.45 -0.75 -0.45 -0.75 -0.4 -0.7 -0.4 -0.7 -0.4 -0.65 -0.4 -0.7 -0.4 -0.7 -0.4 -0.75 -0.35 -0.7 -0.35 -0.65 -0.4 -0.65 -0.4 -0.7 -0.35 -0.65 -0.35 -0.65 -0.4 M-0.45 -0.15 L-0.4 -0.15 -0.4 -0.05 -0.45 -0.1 -0.45 -0.15 M-0.35 0.0 L-0.35 0.05 -0.35 0.1 -0.35 0.1 -0.35 0.1 -0.35 0.1 -0.35 0.1 -0.4 0.05 -0.35 0.0 M-0.3 0.15 L-0.3 0.15 -0.3 0.15 -0.3 0.15 M-0.25 0.15 L-0.2 0.15 -0.2 0.2 -0.2 0.2 -0.25 0.2 -0.25 0.15 M-0.25 0.25 L-0.2 0.25 -0.2 0.3 -0.15 0.3 -0.15 0.3 -0.05 0.4 0.0 0.4 0.05 0.4 0.05 0.45 0.1 0.45 0.05 0.5 0.05 0.55 0.05 0.65 0.0 0.6 0.0 0.6 -0.05 0.55 -0.1 0.5 -0.2 0.45 -0.25 0.4 -0.25 0.35 -0.3 0.35 -0.3 0.3 -0.25 0.3 -0.25 0.25 -0.25 0.25 -0.3 0.3 -0.3 0.25 -0.3 0.25 -0.3 0.2 -0.35 0.25 -0.35 0.25 -0.4 0.3 -0.4 0.25 -0.45 0.2 -0.4 0.2 -0.35 0.15 -0.35 0.15 -0.35 0.15 -0.35 0.2 -0.35 0.2 -0.4 0.2 -0.4 0.25 -0.35 0.2 -0.3 0.2 -0.3 0.2 -0.25 0.2 -0.25 0.25 M0.15 0.45 L0.2 0.4 0.25 0.4 0.25 0.45 0.2 0.5 0.15 0.55 0.15 0.6 0.15 0.45 M0.0 0.75 L0.0 0.75 -0.05 0.75 -0.05 0.75 -0.05 0.7 -0.05 0.65 -0.05 0.65 0.0 0.75 M-0.1 0.75 L-0.1 0.75 -0.1 0.7 -0.1 0.65 -0.1 0.65 -0.05 0.7 -0.05 0.7 -0.1 0.7 -0.1 0.7 -0.1 0.75 M-0.15 0.7 L-0.2 0.7 -0.2 0.7 -0.2 0.65 -0.2 0.6 -0.2 0.65 -0.15 0.7 M-0.25 0.7 L-0.3 0.65 -0.25 0.65 -0.3 0.65 -0.3 0.65 -0.35 0.65 -0.3 0.6 -0.25 0.6 -0.25 0.6 -0.2 0.6 -0.25 0.6 -0.25 0.65 -0.25 0.7 M-0.35 0.6 L-0.35 0.55 -0.35 0.55 -0.35 0.55 -0.3 0.55 -0.3 0.5 -0.35 0.5 -0.35 0.45 -0.35 0.45 -0.3 0.45 -0.3 0.5 -0.3 0.55 -0.35 0.6 M-0.4 0.5 L-0.4 0.45 -0.35 0.45 -0.3 0.45 -0.35 0.45 -0.4 0.45 -0.35 0.5 -0.4 0.5 -0.4 0.5 M-0.4 0.4 L-0.45 0.35 -0.4 0.35 -0.4 0.3 -0.35 0.3 -0.35 0.3 -0.35 0.3 -0.3 0.3 Q-0.35 0.3 -0.35 0.35 L-0.35 0.35 -0.4 0.35 -0.4 0.4 M-0.4 0.2 L-0.45 0.15 -0.45 0.15 -0.45 0.1 -0.4 0.1 -0.4 0.1 -0.35 0.1 -0.4 0.15 -0.4 0.2 M-0.6 0.1 L-0.6 0.1 -0.65 0.1 -0.6 0.05 -0.6 0.1 M-0.7 0.05 L-0.75 0.05 -0.75 0.05 -0.75 0.0 -0.7 0.05 -0.7 -0.05 -0.7 -0.05 -0.65 0.0 -0.7 0.0 -0.75 0.0 -0.7 0.0 -0.7 -0.05 -0.7 0.0 -0.7 0.05 M-0.8 0.0 L-0.85 0.0 -0.8 -0.05 -0.75 -0.05 -0.75 0.0 -0.8 0.0 -0.8 0.0 -0.8 0.0 M-0.85 -0.05 L-0.85 -0.05 -0.9 -0.1 -0.9 -0.1 -0.9 -0.1 -0.85 -0.1 -0.85 -0.1 -0.85 -0.1 -0.85 -0.1 -0.8 -0.1 -0.85 -0.05 -0.85 -0.05 M-0.9 -0.2 L-0.95 -0.2 -0.85 -0.2 -0.85 -0.15 -0.85 -0.15 -0.9 -0.15 -0.9 -0.15 -0.9 -0.2 M-0.95 -0.25 L-0.95 -0.25 -0.95 -0.25 -0.9 -0.25 -0.95 -0.3 -0.95 -0.3 -0.9 -0.3 -0.9 -0.25 -0.9 -0.25 -0.85 -0.25 -0.9 -0.25 -0.95 -0.25 M-0.95 -0.3 L-0.95 -0.35 -1.0 -0.35 -0.95 -0.35 -0.9 -0.3 -0.9 -0.3 -0.95 -0.3 -0.95 -0.3 -0.95 -0.3 M-0.9 -0.3 L-0.9 -0.3 M-0.75 -0.45 L-0.75 -0.45 M-0.6 0.0 L-0.6 0.0 -0.55 0.0 -0.55 0.0 -0.55 0.0 -0.5 0.0 -0.55 0.05 -0.55 0.05 -0.55 0.05 -0.6 0.0 M-0.85 -0.15 L-0.85 -0.15 M-0.6 -0.25 L-0.65 -0.25 -0.65 -0.2 -0.65 -0.2 -0.6 -0.2 -0.6 -0.25 -0.6 -0.25 -0.6 -0.2 -0.6 -0.2 -0.6 -0.15 -0.6 -0.15 -0.55 -0.1 -0.55 -0.1 -0.55 -0.15 -0.55 -0.2 -0.55 -0.2 -0.55 -0.2 -0.6 -0.25 -0.6 -0.25 -0.6 -0.3 -0.65 -0.3 -0.65 -0.3 -0.7 -0.3 -0.7 -0.3 -0.65 -0.25 -0.7 -0.25 -0.65 -0.25 -0.65 -0.25 -0.65 -0.25 -0.6 -0.25 M-0.55 0.05 L-0.55 0.05 -0.5 0.0 -0.5 0.0 -0.45 0.0 -0.5 0.0 -0.5 0.0 -0.5 -0.05 -0.45 -0.05 -0.45 0.0 -0.45 0.05 -0.45 0.05 -0.55 0.05 -0.5 0.05 -0.5 0.05 -0.45 0.05 -0.45 0.0 -0.4 0.0 -0.4 0.05 -0.4 0.05 -0.45 0.05 -0.45 0.1 -0.45 0.1 -0.45 0.1 -0.5 0.1 -0.5 0.1 -0.55 0.05 M-0.75 -0.4 L-0.75 -0.35 -0.7 -0.4 -0.75 -0.4 M-0.3 0.1 L-0.3 0.1 -0.25 0.1 -0.25 0.1 -0.3 0.1 M-0.1 0.65 L-0.1 0.65 M-0.35 0.45 L-0.35 0.45 M-0.1 0.35 L-0.15 0.4 -0.15 0.45 -0.1 0.45 -0.1 0.45 -0.1 0.45 -0.05 0.45 -0.05 0.45 -0.05 0.4 -0.05 0.4 -0.05 0.4 -0.1 0.4 -0.1 0.4 -0.1 0.35 -0.1 0.35 -0.1 0.35 -0.15 0.35 -0.1 0.35 -0.15 0.3 -0.15 0.35 -0.15 0.3 -0.2 0.3 -0.25 0.3 -0.25 0.35 -0.2 0.35 -0.2 0.4 -0.15 0.4 -0.1 0.35 M0.0 0.4 L-0.05 0.4 -0.05 0.45 -0.05 0.5 -0.05 0.5 0.0 0.45 0.0 0.5 0.0 0.5 0.0 0.45 0.05 0.45 0.0 0.45 0.0 0.4 0.0 0.4 M-0.2 0.6 L-0.2 0.6 M0.05 0.45 L0.0 0.5 0.0 0.55 0.05 0.5 0.05 0.45 M0.05 0.5 L0.0 0.55 0.05 0.55 0.05 0.5 M0.1 0.55 L0.1 0.65 0.05 0.75 0.05 0.65 0.05 0.55 0.1 0.55 M0.15 0.65 L0.15 0.6 Q0.15 0.65 0.15 0.65" fill="#292a22" fill-rule="evenodd" stroke="none"/>
    <path d="M-1.7 -2.2 L-1.65 -2.05 -1.65 -2.0 -1.55 -1.85 M-1.55 -1.8 L-1.55 -1.8 -1.5 -1.7 -1.45 -1.7 -1.5 -1.7 -1.45 -1.65 -1.45 -1.65 -1.45 -1.6 -1.4 -1.55 -1.35 -1.45 -1.3 -1.4 -1.3 -1.35 -1.25 -1.35 -1.2 -1.3 -1.1 -1.15 -1.05 -1.05 -0.95 -0.95 -0.9 -0.85 -0.9 -0.85 -0.85 -0.8 -0.85 -0.75 -0.8 -0.75 -0.8 -0.7 -0.75 -0.65 -0.7 -0.6 -0.7 -0.6 M-0.7 -0.65 L-0.7 -0.55 -0.7 -0.55 -0.65 -0.6 -0.6 -0.6 -0.6 -0.6 -0.65 -0.55 -0.65 -0.5 -0.65 -0.45 -0.55 -0.5 -0.55 -0.5 -0.5 -0.45 -0.6 -0.45 -0.65 -0.4 -0.65 -0.4 -0.65 -0.35 -0.6 -0.35 -0.6 -0.3 -0.5 -0.2 -0.5 -0.1 -0.5 -0.1 -0.45 -0.1 -0.45 -0.15 -0.4 -0.15 -0.4 -0.05 -0.4 -0.05 -0.4 -0.05 -0.35 0.0 -0.35 0.0 -0.35 0.05 -0.3 0.1 -0.2 0.1 -0.2 0.1 -0.25 0.1 -0.25 0.15 -0.3 0.15 -0.3 0.15 -0.25 0.15 -0.2 0.15 -0.2 0.2 -0.2 0.25 -0.25 0.25 -0.2 0.25 -0.2 0.3 -0.15 0.3 -0.15 0.3 -0.05 0.4 0.0 0.4 0.0 0.4 0.05 0.4 0.05 0.45 0.1 0.45 0.1 0.4 0.15 0.35 0.15 0.45 0.2 0.4 0.25 0.4 0.25 0.45 0.2 0.5 0.25 0.5 0.3 0.5 M0.3 0.55 L0.35 0.6 0.4 0.65 0.45 0.65 0.5 0.7 0.5 0.75 0.55 0.8 0.7 0.9 0.75 0.95 0.9 1.05 0.95 1.1 0.95 1.15 1.0 1.15 1.1 1.2 1.15 1.25 1.2 1.3 1.25 1.35 1.3 1.35 1.4 1.4 1.4 1.45 M1.45 1.45 L1.75 1.65 M1.8 1.65 L2.2 1.8 2.15 1.8 2.1 1.85 1.65 1.7 1.4 1.6 1.05 1.4 1.0 1.4 0.95 1.35 0.85 1.25 0.75 1.15 0.7 1.15 0.7 1.1 0.65 1.1 0.6 1.1 0.6 1.05 0.55 1.05 0.55 1.0 0.5 1.0 0.55 1.0 0.5 1.0 0.45 1.0 0.45 0.95 0.45 0.95 0.4 0.9 0.4 0.95 0.4 0.9 0.35 0.9 0.3 0.85 0.25 0.85 0.25 0.8 M0.25 0.85 L0.2 0.85 0.2 0.8 0.15 0.85 0.15 0.8 0.15 0.7 0.1 0.7 0.1 0.75 0.05 0.75 0.05 0.8 0.05 0.85 0.0 0.75 0.0 0.75 -0.05 0.75 -0.05 0.8 -0.1 0.75 -0.1 0.75 -0.1 0.75 -0.1 0.8 -0.1 0.85 -0.15 0.85 -0.15 0.7 -0.15 0.7 -0.2 0.7 -0.2 0.7 -0.2 0.7 -0.25 0.7 -0.25 0.7 -0.3 0.65 -0.25 0.65 -0.3 0.65 -0.3 0.65 -0.35 0.65 -0.4 0.65 -0.4 0.65 -0.35 0.6 -0.35 0.6 -0.35 0.55 -0.35 0.55 -0.4 0.55 -0.4 0.5 -0.4 0.45 -0.45 0.45 -0.5 0.45 -0.5 0.4 -0.4 0.4 -0.4 0.4 -0.4 0.4 -0.45 0.35 -0.4 0.35 -0.45 0.3 -0.4 0.3 -0.4 0.3 -0.4 0.25 -0.45 0.2 -0.4 0.2 -0.45 0.15 -0.45 0.15 -0.45 0.1 -0.55 0.05 -0.55 0.1 -0.55 0.1 -0.6 0.1 -0.6 0.1 -0.65 0.1 -0.65 0.05 -0.65 0.15 -0.7 0.15 -0.7 0.15 -0.7 0.05 -0.75 0.05 -0.75 0.05 -0.8 0.05 -0.75 0.05 -0.8 0.0 -0.85 0.0 -0.85 0.0 Q-0.9 0.05 -0.9 0.05 L-0.9 0.05 -0.9 0.0 -0.85 -0.05 -0.85 -0.05 -0.9 -0.1 -0.9 -0.1 -0.95 -0.1 -0.95 -0.15 -0.9 -0.2 -0.95 -0.2 -0.95 -0.2 -1.0 -0.2 -1.05 -0.25 -1.05 -0.25 -1.0 -0.25 -0.95 -0.25 -0.95 -0.25 -0.95 -0.3 -1.0 -0.3 -1.0 -0.3 -0.95 -0.3 -0.95 -0.35 -1.0 -0.35 -0.95 -0.35 -1.05 -0.45 -1.0 -0.45 -1.0 -0.45 -0.95 -0.4 -0.95 -0.45 -0.95 -0.45 -0.9 -0.5 -0.9 -0.5 -0.95 -0.5 -1.0 -0.5 -1.0 -0.5 -1.0 -0.55 -1.0 -0.55 -1.0 -0.55 Q-1.0 -0.55 -1.0 -0.6 L-1.05 -0.55 -1.05 -0.6 M-1.0 -0.6 L-1.05 -0.65 -1.0 -0.7 -1.05 -0.7 -1.05 -0.7 -1.05 -0.75 -1.1 -0.75 -1.1 -0.75 -1.1 -0.8 -1.1 -0.8 -1.1 -0.8 -1.15 -0.85 -1.15 -0.85 -1.15 -0.85 -1.15 -0.9 -1.15 -0.9 -1.2 -0.9 -1.2 -0.95 -1.2 -0.95 -1.2 -0.95 Q-1.2 -0.95 -1.25 -0.95 L-1.25 -1.0 -1.25 -1.0 -1.3 -1.05 -1.3 -1.05 -1.3 -1.1 -1.35 -1.15 -1.4 -1.25 -1.5 -1.35 -1.5 -1.45 -1.55 -1.45 -1.75 -1.95 -1.8 -2.1 -1.8 -2.2 M-1.1 -0.8 L-1.1 -0.8 M-0.9 -0.3 L-0.9 -0.3 -0.9 -0.3 -0.85 -0.3 -0.85 -0.25 -0.9 -0.25 -0.85 -0.25 -0.85 -0.25 -0.8 -0.2 -0.8 -0.2 -0.85 -0.2 -0.85 -0.15 -0.85 -0.15 -0.8 -0.15 -0.85 -0.1 -0.85 -0.1 -0.8 -0.1 -0.8 -0.1 -0.8 -0.1 -0.75 -0.1 -0.75 -0.05 -0.8 -0.05 -0.75 -0.05 -0.75 -0.05 -0.7 -0.05 -0.7 -0.05 -0.7 -0.05 -0.65 0.0 -0.65 0.0 -0.6 0.0 -0.6 0.0 -0.6 0.0 -0.6 0.0 -0.55 0.0 -0.55 0.0 -0.55 0.0 -0.6 -0.05 -0.6 -0.05 -0.6 -0.1 -0.7 -0.15 -0.75 -0.2 -0.75 -0.3 -0.8 -0.35 -0.85 -0.35 -0.85 -0.4 -0.85 -0.3 -0.9 -0.3 M-0.85 -0.05 L-0.85 -0.05 M-0.55 0.05 L-0.45 0.05 -0.45 0.05 -0.45 0.0 -0.4 -0.05 -0.4 -0.05 -0.4 0.05 -0.4 0.05 -0.35 0.1 -0.35 0.1 -0.35 0.1 -0.3 0.15 -0.3 0.15 M-0.3 0.3 L-0.3 0.35 -0.25 0.35 -0.25 0.4 -0.2 0.45 -0.1 0.5 -0.05 0.55 0.0 0.6 0.0 0.6 0.05 0.65 0.0 0.65 0.0 0.65 0.0 0.65 -0.05 0.65 -0.05 0.65 -0.05 0.65 -0.05 0.65 -0.05 0.65 -0.1 0.6 -0.1 0.65 -0.1 0.65 -0.1 0.6 -0.15 0.6 -0.15 0.6 -0.2 0.65 -0.2 0.6 -0.2 0.6 -0.2 0.6 -0.25 0.6 -0.25 0.6 -0.25 0.55 -0.25 0.55 -0.25 0.55 -0.3 0.55 -0.3 0.5 -0.3 0.5 -0.3 0.45 -0.3 0.45 -0.35 0.45 -0.35 0.4 -0.35 0.35 -0.35 0.35 Q-0.35 0.3 -0.3 0.3 L-0.35 0.3 M-0.3 0.25 L-0.3 0.2 M-0.55 0.05 L-0.55 0.05 M-0.3 0.6 L-0.35 0.65 M0.25 0.55 L0.25 0.5 M0.25 0.55 L0.3 0.55" fill="none" stroke="#000000" stroke-linecap="round" stroke-linejoin="round" stroke-opacity="0.4509804" stroke-width="1.0"/>
  </g>
  <defs>
    <radialGradient cx="0" cy="0" gradientTransform="matrix(0.0038, 0.0, 0.0, 0.0038, 0.0, 0.0)" gradientUnits="userSpaceOnUse" id="gradient0" r="819.2" spreadMethod="pad">
      <stop offset="0.0" stop-color="#5ca62a" stop-opacity="0.64705884"/>
      <stop offset="1.0" stop-color="#0f2f5b" stop-opacity="0.64705884"/>
    </radialGradient>
  </defs>
</svg>
