<?xml version="1.0" encoding="UTF-8" standalone="no"?>
<svg xmlns:xlink="http://www.w3.org/1999/xlink" height="7.2px" width="35.3px" xmlns="http://www.w3.org/2000/svg">
  <g transform="matrix(1.0, 0.0, 0.0, 1.0, 17.65, 3.6)">
    <path d="M12.2 -3.6 Q12.05 -3.3 11.85 -3.25 L11.25 -3.1 11.05 -3.05 10.75 -3.05 10.7 -3.05 10.45 -3.05 10.45 -3.05 10.0 -3.15 9.3 -3.25 8.85 -3.25 8.65 -3.2 8.5 -3.2 8.5 -3.2 8.25 -3.2 -10.15 -3.15 -11.3 -3.15 -11.45 -3.15 -11.45 -3.15 -11.85 -3.2 -12.05 -3.3 -12.3 -3.35 -12.35 -3.6 12.2 -3.6" fill="#c4c6c6" fill-rule="evenodd" stroke="none"/>
    <path d="M-11.45 -3.15 L-11.3 -3.15 -10.15 -3.15 8.25 -3.2 8.5 -3.2 8.5 -3.2 8.65 -3.2 8.85 -3.25 9.3 -3.25 10.0 -3.15 10.45 -3.05 10.45 -3.05 10.7 -3.05 10.75 -3.05 11.05 -3.05 11.25 -3.1 11.85 -3.25 Q12.05 -3.3 12.2 -3.6 L12.6 -3.6 12.65 -3.55 Q12.45 -3.3 12.15 -3.2 L11.7 -3.05 11.6 -3.05 Q11.5 -2.95 11.4 -2.95 L-10.95 -2.95 -11.25 -3.05 -11.3 -3.1 -11.45 -3.15 M-12.35 -3.6 L-12.3 -3.35 -12.05 -3.3 -11.85 -3.2 -12.05 -3.25 -12.35 -3.25 -12.45 -3.2 Q-12.5 -3.15 -12.55 -3.15 -12.6 -3.25 -12.65 -3.35 L-12.8 -3.55 -12.8 -3.6 -12.35 -3.6" fill="#aeafaf" fill-rule="evenodd" stroke="none"/>
    <path d="M-11.85 -3.2 L-11.45 -3.15 -11.45 -3.15 -11.3 -3.1 -11.25 -3.05 -10.95 -2.95 -12.4 -2.95 Q-12.5 -3.0 -12.6 -3.05 L-12.7 -3.2 Q-12.75 -3.35 -13.0 -3.35 -13.15 -3.35 -13.25 -3.25 -13.35 -3.15 -13.45 -3.15 L-13.6 -3.25 -13.75 -3.4 -13.8 -3.35 -13.8 -3.3 Q-13.85 -3.25 -13.9 -3.25 L-14.15 -3.5 -14.2 -3.6 -12.8 -3.6 -12.8 -3.55 -12.65 -3.35 Q-12.6 -3.25 -12.55 -3.15 -12.5 -3.15 -12.45 -3.2 L-12.35 -3.25 -12.05 -3.25 -11.85 -3.2 M11.4 -2.95 Q11.5 -2.95 11.6 -3.05 L11.7 -3.05 12.15 -3.2 Q12.45 -3.3 12.65 -3.55 L12.6 -3.6 13.35 -3.6 Q13.45 -3.5 13.55 -3.25 L13.3 -3.15 13.0 -3.15 13.0 -3.35 12.9 -3.25 12.8 -3.15 12.8 -3.2 Q12.75 -3.25 12.65 -3.25 L12.55 -3.05 12.45 -2.95 12.4 -2.95 11.4 -2.95 M11.95 3.35 L11.9 3.35 11.85 3.35 Q11.85 3.3 11.8 3.3 L11.6 3.25 11.3 3.25 11.1 3.2 Q11.05 3.1 11.0 3.1 L10.9 3.1 10.7 3.05 10.05 3.1 Q10.0 3.1 9.95 3.2 L9.9 3.25 9.8 3.2 9.7 3.1 9.55 2.95 13.3 2.95 13.3 3.0 13.15 3.0 13.0 3.0 12.8 3.2 12.75 3.2 12.6 3.2 12.55 3.2 12.5 3.25 12.3 3.3 11.95 3.35 M9.25 2.95 L9.05 3.0 8.8 3.15 8.5 3.3 8.35 3.3 8.25 3.25 7.95 3.25 6.35 3.35 5.15 3.3 4.8 3.3 0.65 3.2 -2.4 3.1 -9.75 3.1 -10.25 3.1 -10.35 3.1 -10.55 3.1 Q-10.65 3.1 -10.85 3.0 L-10.95 3.15 Q-11.0 3.2 -11.1 3.2 L-11.3 3.05 -11.4 3.1 -11.5 3.1 Q-11.7 3.1 -11.85 3.0 L-11.85 2.95 9.25 2.95" fill="#9a9b9b" fill-rule="evenodd" stroke="none"/>
    <path d="M14.75 -3.6 L14.8 -3.55 14.95 -3.5 15.0 -3.5 15.0 -3.45 15.05 -3.4 15.05 -3.35 14.95 -3.3 14.8 -3.25 14.65 -3.25 Q14.6 -3.25 14.5 -3.15 14.45 -3.05 14.4 -3.05 14.3 -3.05 14.3 -3.1 L14.2 -3.2 14.1 -3.15 14.0 -3.15 13.95 -3.2 13.9 -3.25 13.65 -3.05 13.6 -3.0 13.5 -2.95 12.4 -2.95 12.45 -2.95 12.55 -3.05 12.65 -3.25 Q12.75 -3.25 12.8 -3.2 L12.8 -3.15 12.9 -3.25 13.0 -3.35 13.0 -3.15 13.3 -3.15 13.55 -3.25 Q13.45 -3.5 13.35 -3.6 L14.75 -3.6 M17.55 -2.95 L17.45 -3.05 Q17.3 -3.2 17.15 -3.2 L16.9 -3.25 16.75 -3.25 16.6 -3.35 16.1 -3.4 16.05 -3.4 15.95 -3.4 15.8 -3.4 15.75 -3.6 16.75 -3.6 Q17.35 -3.6 17.55 -2.95 M-16.6 -3.6 L-16.55 -3.35 -16.75 -3.35 Q-16.9 -3.35 -17.05 -3.25 L-17.2 -3.05 -17.3 -2.85 -17.35 -2.85 -17.55 -2.4 -17.65 -2.2 Q-17.65 -2.65 -17.55 -2.95 -17.4 -3.4 -17.05 -3.5 L-16.75 -3.6 -16.75 -3.6 -16.6 -3.6 M14.5 2.95 L14.45 3.05 14.25 3.15 14.05 3.2 13.9 3.35 13.75 3.45 13.65 3.4 13.6 3.35 13.55 3.35 13.5 3.35 13.35 3.55 13.2 3.45 13.0 3.4 12.7 3.45 12.55 3.45 12.45 3.45 12.05 3.35 11.95 3.35 12.3 3.3 12.5 3.25 12.55 3.2 12.6 3.2 12.75 3.2 12.8 3.2 13.0 3.0 13.15 3.0 13.3 3.0 13.3 2.95 14.5 2.95 M11.85 3.35 L11.6 3.3 11.35 3.35 11.3 3.35 11.0 3.45 10.85 3.45 10.8 3.4 10.7 3.35 10.6 3.35 10.4 3.35 10.35 3.4 Q10.25 3.45 10.25 3.35 L10.15 3.3 9.8 3.25 9.55 3.25 9.05 3.3 9.0 3.3 Q8.85 3.25 8.8 3.35 L8.75 3.4 8.6 3.5 8.5 3.55 8.5 3.5 8.25 3.5 0.25 3.4 -4.3 3.4 -6.3 3.3 -10.25 3.3 -10.35 3.3 -10.65 3.3 -11.55 3.3 -14.6 3.1 -14.95 3.2 -15.1 3.15 -15.1 3.15 -15.3 3.05 -15.4 3.05 -15.45 3.05 -15.6 3.05 -15.7 2.95 -11.85 2.95 -11.85 3.0 Q-11.7 3.1 -11.5 3.1 L-11.4 3.1 -11.3 3.05 -11.1 3.2 Q-11.0 3.2 -10.95 3.15 L-10.85 3.0 Q-10.65 3.1 -10.55 3.1 L-10.35 3.1 -10.25 3.1 -9.75 3.1 -2.4 3.1 0.65 3.2 4.8 3.3 5.15 3.3 6.35 3.35 7.95 3.25 8.25 3.25 8.35 3.3 8.5 3.3 8.8 3.15 9.05 3.0 9.25 2.95 9.55 2.95 9.7 3.1 9.8 3.2 9.9 3.25 9.95 3.2 Q10.0 3.1 10.05 3.1 L10.7 3.05 10.9 3.1 11.0 3.1 Q11.05 3.1 11.1 3.2 L11.3 3.25 11.6 3.25 11.8 3.3 Q11.85 3.3 11.85 3.35 M-13.9 -2.95 Q-14.0 -3.05 -14.15 -3.05 L-14.45 -3.05 -14.45 -3.05 -14.5 -3.05 -14.55 -3.1 Q-14.65 -3.2 -14.75 -3.2 L-14.95 -3.4 -15.4 -3.15 -15.5 -3.25 -15.55 -3.4 Q-15.65 -3.35 -15.8 -3.35 -15.85 -3.35 -15.9 -3.55 L-15.9 -3.6 -14.2 -3.6 -14.15 -3.5 -13.9 -3.25 Q-13.85 -3.25 -13.8 -3.3 L-13.8 -3.35 -13.75 -3.4 -13.6 -3.25 -13.45 -3.15 Q-13.35 -3.15 -13.25 -3.25 -13.15 -3.35 -13.0 -3.35 -12.75 -3.35 -12.7 -3.2 L-12.6 -3.05 Q-12.5 -3.0 -12.4 -2.95 L-13.9 -2.95" fill="#767877" fill-rule="evenodd" stroke="none"/>
    <path d="M13.5 -2.95 L13.6 -3.0 13.65 -3.05 13.9 -3.25 13.95 -3.2 14.0 -3.15 14.1 -3.15 14.2 -3.2 14.3 -3.1 Q14.3 -3.05 14.4 -3.05 14.45 -3.05 14.5 -3.15 14.6 -3.25 14.65 -3.25 L14.8 -3.25 14.95 -3.3 15.05 -3.35 15.05 -3.4 15.0 -3.45 15.0 -3.5 14.95 -3.5 14.8 -3.55 14.75 -3.6 15.75 -3.6 15.8 -3.4 15.95 -3.4 16.05 -3.4 16.1 -3.4 16.6 -3.35 16.75 -3.25 16.9 -3.25 17.15 -3.2 Q17.3 -3.2 17.45 -3.05 L17.55 -2.95 Q17.65 -2.65 17.65 -2.2 L17.65 -1.35 17.65 -1.25 17.65 -0.95 17.65 0.2 17.3 0.2 17.25 0.45 17.25 -0.1 Q17.35 -0.4 17.35 -0.55 L17.4 -1.25 17.4 -1.25 17.4 -1.7 17.4 -2.25 Q17.35 -2.65 17.15 -3.05 L16.9 -3.05 16.8 -3.05 16.6 -3.05 16.05 -3.2 15.95 -3.15 15.8 -3.05 Q15.75 -3.05 15.7 -3.1 L15.6 -3.15 15.5 -3.05 15.4 -3.05 Q15.3 -3.0 15.2 -2.95 L13.5 -2.95 M-17.65 -2.2 L-17.55 -2.4 -17.35 -2.85 -17.3 -2.85 -17.2 -3.05 -17.05 -3.25 Q-16.9 -3.35 -16.75 -3.35 L-16.55 -3.35 -16.6 -3.6 -15.9 -3.6 -15.9 -3.55 Q-15.85 -3.35 -15.8 -3.35 -15.65 -3.35 -15.55 -3.4 L-15.5 -3.25 -15.4 -3.15 -14.95 -3.4 -14.75 -3.2 Q-14.65 -3.2 -14.55 -3.1 L-14.5 -3.05 -14.45 -3.05 -14.45 -3.05 -14.15 -3.05 Q-14.0 -3.05 -13.9 -2.95 L-15.35 -2.95 -15.3 -2.95 -15.7 -3.05 -16.4 -3.25 -16.7 -3.15 -16.85 -3.05 -17.05 -2.85 -17.2 -2.6 -17.3 -2.35 -17.35 -1.95 -17.35 -1.7 -17.4 -1.45 -17.4 -1.25 -17.35 -1.25 -17.3 -1.15 -17.3 -1.15 -17.2 -1.05 -17.2 2.2 Q-17.2 2.55 -17.1 2.7 -17.0 2.95 -16.75 2.95 L-15.7 2.95 -15.6 3.05 -15.45 3.05 -15.4 3.05 -15.3 3.05 -15.1 3.15 -15.1 3.15 -14.95 3.2 -14.6 3.1 -11.55 3.3 -10.65 3.3 -10.35 3.3 -10.25 3.3 -6.3 3.3 -4.3 3.4 0.25 3.4 8.25 3.5 8.5 3.5 8.5 3.55 8.6 3.5 8.75 3.4 8.8 3.35 Q8.85 3.25 9.0 3.3 L9.05 3.3 9.55 3.25 9.8 3.25 10.15 3.3 10.25 3.35 Q10.25 3.45 10.35 3.4 L10.4 3.35 10.6 3.35 10.7 3.35 10.8 3.4 10.85 3.45 11.0 3.45 11.3 3.35 11.35 3.35 11.6 3.3 11.85 3.35 11.9 3.35 11.95 3.35 12.05 3.35 12.45 3.45 12.55 3.45 12.7 3.45 13.0 3.4 13.2 3.45 13.35 3.55 13.5 3.35 13.55 3.35 13.6 3.35 13.65 3.4 13.75 3.45 13.9 3.35 14.05 3.2 14.25 3.15 14.45 3.05 14.5 2.95 16.75 2.95 16.6 3.05 16.3 3.3 15.95 3.35 15.9 3.35 15.85 3.4 15.75 3.45 15.6 3.4 15.55 3.35 15.5 3.35 15.4 3.35 Q15.35 3.4 15.25 3.45 L15.15 3.6 -12.05 3.6 -12.9 3.35 -12.95 3.35 -13.25 3.3 -13.55 3.35 -13.65 3.4 -13.85 3.4 -13.9 3.35 -14.0 3.35 -14.1 3.35 -14.2 3.4 Q-14.2 3.55 -14.3 3.6 L-15.5 3.6 -15.5 3.45 -15.6 3.35 -15.6 3.35 Q-15.75 3.3 -15.8 3.3 L-16.05 3.35 -16.05 3.35 -16.15 3.35 -16.3 3.4 -16.5 3.3 Q-16.55 3.35 -16.7 3.35 -17.05 3.35 -17.1 3.1 -17.1 2.95 -17.15 3.0 L-17.15 3.0 -17.25 3.0 -17.3 2.95 -17.4 2.8 -17.45 2.05 -17.45 1.65 -17.45 1.4 -17.4 1.3 -17.4 0.8 -17.45 0.75 -17.45 0.2 -17.4 0.2 -17.45 -0.4 -17.5 -0.7 -17.55 -0.8 -17.65 -1.1 -17.65 -2.2" fill="#525655" fill-rule="evenodd" stroke="none"/>
    <path d="M15.2 -2.95 Q15.3 -3.0 15.4 -3.05 L15.5 -3.05 15.6 -3.15 15.7 -3.1 Q15.75 -3.05 15.8 -3.05 L15.95 -3.15 16.05 -3.2 16.6 -3.05 16.8 -3.05 16.9 -3.05 17.15 -3.05 Q17.35 -2.65 17.4 -2.25 L17.4 -1.7 17.4 -1.25 17.4 -1.25 17.35 -0.55 Q17.35 -0.4 17.25 -0.1 L17.25 -2.2 Q17.25 -2.9 16.8 -2.95 L16.75 -2.95 15.2 -2.95 M17.25 0.45 L17.3 0.2 17.65 0.2 17.65 -0.95 17.65 2.2 Q17.65 2.95 17.4 3.3 L17.35 3.35 Q17.1 3.6 16.75 3.6 L15.15 3.6 15.25 3.45 Q15.35 3.4 15.4 3.35 L15.5 3.35 15.55 3.35 15.6 3.4 15.75 3.45 15.85 3.4 15.9 3.35 15.95 3.35 16.3 3.3 16.6 3.05 16.75 2.95 16.95 2.9 17.05 2.85 Q17.25 2.7 17.25 2.25 L17.25 0.45 M-17.65 -1.1 L-17.55 -0.8 -17.5 -0.7 -17.45 -0.4 -17.4 0.2 -17.45 0.2 -17.45 0.75 -17.4 0.8 -17.4 1.3 -17.45 1.4 -17.45 1.65 -17.45 2.05 -17.4 2.8 -17.3 2.95 -17.25 3.0 -17.15 3.0 -17.15 3.0 Q-17.1 2.95 -17.1 3.1 -17.05 3.35 -16.7 3.35 -16.55 3.35 -16.5 3.3 L-16.3 3.4 -16.15 3.35 -16.05 3.35 -16.05 3.35 -15.8 3.3 Q-15.75 3.3 -15.6 3.35 L-15.6 3.35 -15.5 3.45 -15.5 3.6 -16.75 3.6 Q-17.1 3.6 -17.3 3.4 L-17.45 3.2 Q-17.65 2.85 -17.65 2.2 L-17.65 -1.1 M-14.3 3.6 Q-14.2 3.55 -14.2 3.4 L-14.1 3.35 -14.0 3.35 -13.9 3.35 -13.85 3.4 -13.65 3.4 -13.55 3.35 -13.25 3.3 -12.95 3.35 -12.9 3.35 -12.05 3.6 -14.3 3.6 M-17.2 -1.05 L-17.3 -1.15 -17.3 -1.15 -17.35 -1.25 -17.4 -1.25 -17.4 -1.45 -17.35 -1.7 -17.35 -1.95 -17.3 -2.35 -17.2 -2.6 -17.05 -2.85 -16.85 -3.05 -16.7 -3.15 -16.4 -3.25 -15.7 -3.05 -15.3 -2.95 -15.35 -2.95 -16.75 -2.95 Q-16.9 -2.95 -17.05 -2.85 -17.2 -2.65 -17.2 -2.2 L-17.2 -1.05" fill="#2e3231" fill-rule="evenodd" stroke="none"/>
    <path d="M17.35 3.35 L17.4 3.3 17.4 3.35 17.35 3.35" fill="#0b1918" fill-rule="evenodd" stroke="none"/>
    <path d="M-10.95 -2.95 L11.4 -2.95 12.4 -2.95 13.5 -2.95 15.2 -2.95 16.75 -2.95 16.8 -2.95 Q17.25 -2.9 17.25 -2.2 L17.25 -0.1 17.25 0.45 17.25 2.25 Q17.25 2.7 17.05 2.85 L16.95 2.9 16.75 2.95 14.5 2.95 13.3 2.95 9.55 2.95 9.25 2.95 -11.85 2.95 -15.7 2.95 -16.75 2.95 Q-17.0 2.95 -17.1 2.7 -17.2 2.55 -17.2 2.2 L-17.2 -1.05 -17.2 -2.2 Q-17.2 -2.65 -17.05 -2.85 -16.9 -2.95 -16.75 -2.95 L-15.35 -2.95 -13.9 -2.95 -12.4 -2.95 -10.95 -2.95" fill="#0b1918" fill-opacity="0.8392157" fill-rule="evenodd" stroke="none"/>
    <path d="M12.2 -3.6 L-12.35 -3.6 -12.8 -3.6 -14.2 -3.6 -15.9 -3.6 -16.6 -3.6 -16.75 -3.6 -16.75 -3.6 -17.05 -3.5 Q-17.4 -3.4 -17.55 -2.95 -17.65 -2.65 -17.65 -2.2 L-17.65 -1.1 -17.65 2.2 Q-17.65 2.85 -17.45 3.2 L-17.3 3.4 Q-17.1 3.6 -16.75 3.6 L-15.5 3.6 -14.3 3.6 -12.05 3.6 15.15 3.6 16.75 3.6 Q17.1 3.6 17.35 3.35 L17.4 3.35 17.4 3.3 Q17.65 2.95 17.65 2.2 L17.65 -0.95 17.65 -1.25 M12.6 -3.6 L12.2 -3.6 M17.65 -1.35 L17.65 -2.2 Q17.65 -2.65 17.55 -2.95 17.35 -3.6 16.75 -3.6 L15.75 -3.6 14.75 -3.6 13.35 -3.6 12.6 -3.6" fill="none" stroke="#000000" stroke-linecap="round" stroke-linejoin="round" stroke-opacity="0.24705882" stroke-width="1.0"/>
    <path d="M-17.65 -1.1 L-17.55 -0.8 -17.5 -0.7 -17.45 -0.4 -17.4 0.2 -17.45 0.2 -17.45 0.75 -17.4 0.8 -17.4 1.3 -17.45 1.4 -17.45 1.65 -17.45 2.05 -17.4 2.8 -17.3 2.95 -17.25 3.0 -17.15 3.0 -17.15 3.0 Q-17.1 2.95 -17.1 3.1 -17.05 3.35 -16.7 3.35 -16.55 3.35 -16.5 3.3 L-16.3 3.4 -16.15 3.35 -16.05 3.35 -16.05 3.35 -15.8 3.3 Q-15.75 3.3 -15.6 3.35 L-15.6 3.35 -15.5 3.45 -15.5 3.6" fill="none" stroke="#000000" stroke-linecap="round" stroke-linejoin="round" stroke-opacity="0.4" stroke-width="1.0"/>
  </g>
</svg>
