<?xml version="1.0" encoding="UTF-8" standalone="no"?>
<svg xmlns:xlink="http://www.w3.org/1999/xlink" height="10.7px" width="2.95px" xmlns="http://www.w3.org/2000/svg">
  <g transform="matrix(1.0, 0.0, 0.0, 1.0, 1.0, 5.35)">
    <path d="M0.5 -5.2 L0.5 -5.0 Q0.5 -4.85 0.6 -4.6 L0.7 -4.35 Q0.7 -3.25 0.5 -3.0 L0.15 -2.25 Q0.15 -2.15 0.2 -1.9 L0.15 -1.4 0.15 -1.35 0.05 -1.2 -0.2 -0.75 0.0 -0.3 Q0.2 0.2 0.2 0.3 0.2 0.6 0.0 1.0 -0.2 1.35 -0.45 1.35 L-0.55 1.4 -0.65 1.6 -0.7 1.8 -0.7 0.8 -0.7 0.7 -0.65 -0.15 -0.65 -1.45 -0.6 -2.1 -0.55 -2.6 -0.5 -3.25 -0.5 -3.35 -0.4 -4.3 -0.4 -4.35 0.0 -5.35 0.5 -5.2 M-0.6 -4.75 L-0.6 -4.3 Q-0.6 -4.05 -0.6 -3.85 L-0.65 -3.45 -0.7 -3.15 -0.75 -2.8 -0.75 -2.2 -0.75 -1.8 -0.8 -1.55 -0.8 -1.1 -0.85 -0.25 -0.85 0.1 -0.95 -0.2 -1.0 -0.5 -0.95 -1.55 -0.95 -1.75 -0.75 -3.65 -0.7 -4.15 -0.7 -4.25 -0.6 -4.65 -0.6 -4.75" fill="#baa085" fill-rule="evenodd" stroke="none"/>
    <path d="M0.15 -1.35 L0.15 -1.35 0.2 -1.2 0.2 -0.95 0.25 -0.6 Q0.3 -0.5 0.55 -0.4 L0.75 -0.3 0.7 -0.2 0.8 0.1 0.75 0.3 0.7 0.35 0.75 0.45 0.75 0.65 0.6 0.8 Q0.5 0.95 0.5 1.05 0.5 1.2 0.55 1.3 L0.5 1.55 0.55 1.65 Q0.5 1.7 0.55 1.8 L0.55 1.85 Q0.55 2.25 0.65 2.25 L0.7 2.3 0.7 2.75 0.65 2.85 0.6 2.9 0.45 3.0 Q0.25 3.2 0.2 3.2 L0.0 3.2 Q-0.1 3.2 -0.1 3.35 L-0.05 3.45 Q0.0 3.5 0.0 3.55 0.0 3.65 -0.05 3.8 L-0.2 4.05 -0.4 4.0 -0.55 3.9 Q-0.6 3.8 -0.6 3.5 L-0.6 3.45 -0.65 3.4 -0.65 3.05 -0.7 2.85 -0.75 2.55 -0.75 2.2 -0.7 2.05 -0.7 1.8 -0.65 1.6 -0.55 1.4 -0.45 1.35 Q-0.2 1.35 0.0 1.0 0.2 0.6 0.2 0.3 0.2 0.2 0.0 -0.3 L-0.2 -0.75 0.05 -1.2 0.15 -1.35 M-0.85 0.1 L-0.9 0.25 -0.9 0.55 -0.95 0.8 -0.9 0.9 -0.9 1.2 -0.95 1.3 -1.0 1.45 -1.0 0.25 -1.0 -0.5 -0.95 -0.2 -0.85 0.1" fill="#a98c6e" fill-rule="evenodd" stroke="none"/>
    <path d="M0.15 -1.35 L0.15 -1.4 0.2 -1.9 Q0.15 -2.15 0.15 -2.25 L0.5 -3.0 Q0.7 -3.25 0.7 -4.35 L0.6 -4.6 Q0.5 -4.85 0.5 -5.0 L0.5 -5.2 0.9 -5.15 0.9 -5.15 1.15 -4.95 1.7 -4.35 1.85 -3.55 Q1.95 -2.75 1.95 -2.2 L1.8 -1.2 1.6 -0.25 Q1.3 1.3 1.3 1.9 L1.35 3.3 Q1.35 4.1 1.05 4.65 L0.85 4.9 0.6 5.2 Q0.35 5.35 0.0 5.35 -0.15 5.35 -0.3 5.25 -0.55 5.2 -0.55 5.05 -0.6 4.9 -0.65 4.8 L-0.65 4.75 -0.7 4.6 -0.75 4.55 -0.75 4.45 -0.7 4.25 -0.7 4.1 Q-0.7 3.95 -0.75 3.55 L-0.85 2.65 -1.0 1.45 -0.95 1.3 -0.9 1.2 -0.9 0.9 -0.95 0.8 -0.9 0.55 -0.9 0.25 -0.85 0.1 -0.85 -0.25 -0.8 -1.1 -0.8 -1.55 -0.75 -1.8 -0.75 -2.2 -0.75 -2.8 -0.7 -3.15 -0.65 -3.45 -0.6 -3.85 Q-0.6 -4.05 -0.6 -4.3 L-0.6 -4.75 -0.4 -5.3 -0.2 -5.35 0.0 -5.35 -0.4 -4.35 -0.4 -4.3 -0.5 -3.35 -0.5 -3.25 -0.55 -2.6 -0.6 -2.1 -0.65 -1.45 -0.65 -0.15 -0.7 0.7 -0.7 0.8 -0.7 1.8 -0.7 2.05 -0.75 2.2 -0.75 2.55 -0.7 2.85 -0.65 3.05 -0.65 3.4 -0.6 3.45 -0.6 3.5 Q-0.6 3.8 -0.55 3.9 L-0.4 4.0 -0.2 4.05 -0.05 3.8 Q0.0 3.65 0.0 3.55 0.0 3.5 -0.05 3.45 L-0.1 3.35 Q-0.1 3.2 0.0 3.2 L0.2 3.2 Q0.25 3.2 0.45 3.0 L0.6 2.9 0.65 2.85 0.7 2.75 0.7 2.3 0.65 2.25 Q0.55 2.25 0.55 1.85 L0.55 1.8 Q0.5 1.7 0.55 1.65 L0.5 1.55 0.55 1.3 Q0.5 1.2 0.5 1.05 0.5 0.95 0.6 0.8 L0.75 0.65 0.75 0.45 0.7 0.35 0.75 0.3 0.8 0.1 0.7 -0.2 0.75 -0.3 0.55 -0.4 Q0.3 -0.5 0.25 -0.6 L0.2 -0.95 0.2 -1.2 0.15 -1.35 0.15 -1.35" fill="#967757" fill-rule="evenodd" stroke="none"/>
    <path d="M0.0 -5.35 L-0.2 -5.35 -0.4 -5.3 -0.6 -4.75 -0.6 -4.65 -0.7 -4.25 -0.7 -4.15 -0.75 -3.65 -0.95 -1.75 -0.95 -1.55 -1.0 -0.5 -1.0 0.25 -1.0 1.45 -0.85 2.65 -0.75 3.55 Q-0.7 3.95 -0.7 4.1 L-0.7 4.25 -0.75 4.45 -0.75 4.55 -0.7 4.6 M0.85 4.9 L1.05 4.65 Q1.35 4.1 1.35 3.3 L1.3 1.9 Q1.3 1.3 1.6 -0.25 L1.8 -1.2 1.95 -2.2 Q1.95 -2.75 1.85 -3.55 L1.7 -4.35 1.15 -4.95 0.9 -5.15 0.9 -5.15 0.5 -5.2 0.0 -5.35" fill="none" stroke="#000000" stroke-linecap="round" stroke-linejoin="round" stroke-opacity="0.4509804" stroke-width="1.0"/>
  </g>
</svg>
