<?xml version="1.0" encoding="UTF-8" standalone="no"?>
<svg xmlns:xlink="http://www.w3.org/1999/xlink" height="4.0px" width="4.0px" xmlns="http://www.w3.org/2000/svg">
  <g transform="matrix(1.0, 0.0, 0.0, 1.0, -10.4, -0.55)">
    <path d="M13.0 1.2 Q13.25 1.4 13.25 1.7 13.25 1.9 13.15 2.05 L12.95 2.3 12.65 2.55 Q12.5 2.7 12.4 2.8 12.35 2.9 12.35 3.0 12.35 3.25 12.2 3.25 12.1 3.25 12.05 3.15 L12.0 3.15 12.0 2.95 Q12.0 2.8 12.05 2.65 12.15 2.5 12.35 2.25 L12.65 1.95 12.7 1.7 Q12.7 1.55 12.6 1.45 12.5 1.35 12.4 1.35 12.2 1.35 12.1 1.45 12.0 1.5 12.0 1.65 L12.05 1.75 12.05 1.8 12.1 1.8 12.15 1.8 12.25 1.8 12.3 1.8 Q12.35 1.9 12.35 2.0 12.4 2.1 12.25 2.2 L12.05 2.25 Q11.9 2.25 11.75 2.1 11.6 1.95 11.6 1.65 11.6 1.4 11.8 1.2 12.05 0.95 12.35 0.95 12.7 0.95 13.0 1.2 M12.65 3.75 Q12.65 3.9 12.55 4.0 12.4 4.1 12.25 4.1 12.1 4.1 12.0 3.95 11.9 3.85 11.9 3.7 11.9 3.55 12.0 3.45 12.1 3.35 12.25 3.35 12.45 3.35 12.55 3.45 12.65 3.55 12.65 3.75" fill="#000000" fill-rule="evenodd" stroke="none"/>
    <path d="M12.65 3.75 Q12.65 3.55 12.55 3.45 12.45 3.35 12.25 3.35 12.1 3.35 12.0 3.45 11.9 3.55 11.9 3.7 11.9 3.85 12.0 3.95 12.1 4.1 12.25 4.1 12.4 4.1 12.55 4.0 12.65 3.9 12.65 3.75 M13.0 1.2 Q12.7 0.95 12.35 0.95 12.05 0.95 11.8 1.2 11.6 1.4 11.6 1.65 11.6 1.95 11.75 2.1 11.9 2.25 12.05 2.25 L12.25 2.2 Q12.4 2.1 12.35 2.0 12.35 1.9 12.3 1.8 L12.25 1.8 12.15 1.8 12.1 1.8 12.05 1.8 12.05 1.75 12.0 1.65 Q12.0 1.5 12.1 1.45 12.2 1.35 12.4 1.35 12.5 1.35 12.6 1.45 12.7 1.55 12.7 1.7 L12.65 1.95 12.35 2.25 Q12.15 2.5 12.05 2.65 12.0 2.8 12.0 2.95 L12.0 3.15 12.05 3.15 Q12.1 3.25 12.2 3.25 12.35 3.25 12.35 3.0 12.35 2.9 12.4 2.8 12.5 2.7 12.65 2.55 L12.95 2.3 13.15 2.05 Q13.25 1.9 13.25 1.7 13.25 1.4 13.0 1.2 M14.3 4.05 Q14.3 4.45 13.95 4.45 L10.9 4.45 Q10.5 4.45 10.5 4.05 L10.5 1.0 Q10.5 0.65 10.9 0.65 L13.95 0.65 Q14.3 0.65 14.3 1.0 L14.3 4.05" fill="url(#gradient0)" fill-rule="evenodd" stroke="none"/>
    <path d="M10.5 2.5 L10.5 1.0 Q10.5 0.65 10.9 0.65 L13.95 0.65 Q14.3 0.65 14.3 1.0 L14.3 2.5 Q12.4 1.95 10.5 2.5" fill="#ffffff" fill-opacity="0.34901962" fill-rule="evenodd" stroke="none"/>
    <path d="M14.3 2.5 L14.3 4.05 Q14.3 4.45 13.95 4.45 L10.9 4.45 Q10.5 4.45 10.5 4.05 L10.5 2.5 10.5 1.0 Q10.5 0.65 10.9 0.65 L13.95 0.65 Q14.3 0.65 14.3 1.0 L14.3 2.5 Z" fill="none" stroke="#000000" stroke-linecap="round" stroke-linejoin="round" stroke-opacity="0.4" stroke-width="0.2"/>
  </g>
  <defs>
    <linearGradient gradientTransform="matrix(0.0, 0.0023, -0.0023, 0.0, 8.1, 2.55)" gradientUnits="userSpaceOnUse" id="gradient0" spreadMethod="pad" x1="-819.2" x2="819.2">
      <stop offset="0.0" stop-color="#9f988c"/>
      <stop offset="0.0" stop-color="#7b766d"/>
      <stop offset="1.0" stop-color="#fff6e0"/>
    </linearGradient>
  </defs>
</svg>
