<?xml version="1.0" encoding="UTF-8" standalone="no"?>
<svg xmlns:xlink="http://www.w3.org/1999/xlink" height="37.85px" width="30.95px" xmlns="http://www.w3.org/2000/svg">
  <g transform="matrix(1.0, 0.0, 0.0, 1.0, -1.2, -9.05)">
    <path d="M31.3 9.05 L31.25 9.1 31.2 9.15 Q31.15 9.15 31.15 9.15 L31.1 9.2 30.95 9.2 30.55 9.2 30.5 9.2 30.25 9.2 29.85 9.2 29.8 9.2 29.6 9.25 29.35 9.25 29.3 9.3 29.2 9.3 28.8 9.3 28.65 9.3 28.25 9.3 27.95 9.25 27.85 9.25 27.65 9.25 27.65 9.2 27.55 9.2 27.5 9.2 27.35 9.15 27.25 9.05 27.45 9.05 31.3 9.05 M27.5 13.8 L31.1 13.8 31.1 13.9 31.1 13.95 31.1 14.1 30.95 14.1 30.75 14.1 30.65 14.1 30.5 14.1 30.4 14.1 30.0 14.15 29.65 14.15 29.3 14.15 28.9 14.15 28.7 14.15 28.3 14.1 27.95 14.1 27.55 14.1 27.5 14.05 27.5 14.0 27.55 13.9 27.5 13.85 27.5 13.8" fill="#f5efe8" fill-rule="evenodd" stroke="none"/>
    <path d="M27.25 9.05 L27.35 9.15 27.5 9.2 27.55 9.2 27.65 9.2 27.65 9.25 27.85 9.25 27.95 9.25 28.25 9.3 28.65 9.3 28.8 9.3 29.2 9.3 29.3 9.3 29.35 9.25 29.6 9.25 29.8 9.2 29.85 9.2 30.25 9.2 30.5 9.2 30.55 9.2 30.95 9.2 31.1 9.2 31.15 9.15 Q31.15 9.15 31.2 9.15 L31.25 9.1 31.3 9.05 31.7 9.05 Q32.05 9.05 32.15 9.35 L27.0 9.35 Q27.05 9.1 27.25 9.05 M32.15 13.9 Q32.05 14.2 31.7 14.2 L27.45 14.2 Q27.05 14.2 27.0 13.9 L27.4 13.9 27.55 13.9 27.5 14.0 27.5 14.05 27.55 14.1 27.95 14.1 28.3 14.1 28.7 14.15 28.9 14.15 29.3 14.15 29.65 14.15 30.0 14.15 30.4 14.1 30.5 14.1 30.65 14.1 30.75 14.1 30.95 14.1 31.1 14.1 31.1 13.95 31.1 13.9 31.7 13.9 32.15 13.9" fill="#cdc8c2" fill-rule="evenodd" stroke="none"/>
    <path d="M27.0 9.35 L32.15 9.35 32.15 11.2 32.15 11.25 32.1 11.25 32.1 11.35 32.1 11.45 32.05 11.5 32.05 11.55 32.0 11.65 32.0 11.75 31.95 11.85 31.85 11.9 31.85 11.15 31.85 10.75 31.9 10.55 31.9 10.0 31.9 9.6 Q31.9 9.55 31.85 9.55 L31.8 9.55 31.75 9.55 31.75 9.5 31.7 9.45 27.4 9.45 27.4 9.5 27.4 13.75 27.45 13.8 27.5 13.8 27.5 13.85 27.55 13.9 27.4 13.9 Q27.3 13.9 27.3 13.75 L27.3 11.95 27.25 11.95 27.25 11.9 27.15 11.8 27.1 11.75 27.1 11.7 27.05 11.7 27.0 11.55 26.95 11.5 26.95 9.5 27.0 9.35 M31.1 13.8 L31.65 13.8 31.75 13.9 31.7 13.9 31.1 13.9 31.1 13.8" fill="#d4d4d4" fill-opacity="0.5686275" fill-rule="evenodd" stroke="none"/>
    <path d="M31.65 13.8 L31.7 13.8 31.75 13.75 31.75 9.55 31.8 9.55 31.85 9.55 Q31.9 9.55 31.9 9.6 L31.9 10.0 31.9 10.55 31.85 10.75 31.85 11.15 31.85 11.9 31.95 11.85 32.0 11.75 32.0 11.65 32.05 11.55 32.05 11.5 32.1 11.45 32.1 11.35 32.1 11.25 32.15 11.25 32.15 11.2 32.15 13.9 31.7 13.9 31.75 13.9 31.65 13.8 M27.0 13.9 L26.95 13.75 26.95 11.5 27.0 11.55 27.05 11.7 27.1 11.7 27.1 11.75 27.15 11.8 27.25 11.9 27.25 11.95 27.3 11.95 27.3 13.75 Q27.3 13.9 27.4 13.9 L27.0 13.9" fill="#989898" fill-opacity="0.5686275" fill-rule="evenodd" stroke="none"/>
    <path d="M27.4 9.5 L27.4 9.45 31.7 9.45 31.75 9.5 31.75 9.55 31.75 13.75 31.7 13.8 31.65 13.8 31.1 13.8 27.5 13.8 27.45 13.8 27.4 13.75 27.4 9.5" fill="url(#gradient0)" fill-rule="evenodd" stroke="none"/>
    <path d="M21.4 45.75 Q21.4 45.55 21.25 45.45 21.15 45.35 21.05 45.35 L20.95 45.3 3.65 45.3 3.65 45.2 20.95 45.2 21.05 45.2 21.25 45.3 Q21.4 45.45 21.4 45.65 L21.4 45.75 M1.85 45.35 Q1.7 45.35 1.6 45.45 1.5 45.55 1.5 45.75 L1.5 45.65 Q1.5 45.45 1.6 45.3 L1.7 45.25 1.8 45.2 1.8 45.25 1.85 45.35" fill="#4086a6" fill-rule="evenodd" stroke="none"/>
    <path d="M3.65 45.3 L1.95 45.3 1.85 45.35 1.8 45.25 1.8 45.2 1.95 45.2 3.65 45.2 3.65 45.3" fill="#74b5d4" fill-rule="evenodd" stroke="none"/>
    <path d="M1.2 45.75 L1.2 45.65 Q1.2 45.35 1.4 45.1 L1.5 45.05 1.55 45.0 1.6 44.95 1.65 45.0 1.7 45.05 Q1.6 45.05 1.55 45.15 L1.4 45.2 1.4 45.25 Q1.2 45.45 1.2 45.75 M18.4 46.6 L18.4 46.7 14.35 46.7 14.55 46.7 14.6 46.7 14.7 46.6 18.4 46.6 M19.9 46.7 L19.95 46.7 20.05 46.6 20.95 46.6 Q21.15 46.6 21.25 46.45 21.4 46.35 21.4 46.2 L21.4 46.3 Q21.4 46.45 21.25 46.6 21.15 46.7 20.95 46.7 L19.9 46.7 M1.5 46.2 Q1.5 46.35 1.6 46.45 1.75 46.6 1.95 46.6 L2.8 46.6 2.9 46.7 2.95 46.7 1.95 46.7 Q1.75 46.7 1.6 46.6 1.5 46.45 1.5 46.3 L1.5 46.2" fill="#525655" fill-rule="evenodd" stroke="none"/>
    <path d="M3.15 45.0 L3.25 44.95 3.25 44.9 17.1 44.9 17.0 45.0 3.15 45.0 M1.6 44.95 L1.75 44.9 1.8 44.95 1.85 45.0 1.7 45.05 1.65 45.0 1.6 44.95 M18.4 46.6 L20.05 46.6 19.95 46.7 19.9 46.7 18.4 46.7 18.4 46.6 M2.8 46.6 L14.7 46.6 14.6 46.7 14.55 46.7 14.35 46.7 2.95 46.7 2.9 46.7 2.8 46.6" fill="#9a9b9b" fill-rule="evenodd" stroke="none"/>
    <path d="M17.0 45.0 L20.95 45.0 21.05 45.0 21.15 45.05 Q21.25 45.05 21.35 45.15 L21.45 45.2 21.45 45.25 Q21.7 45.45 21.7 45.75 L21.7 46.2 Q21.7 46.45 21.45 46.7 21.25 46.9 20.95 46.9 L1.95 46.9 Q1.65 46.9 1.4 46.7 1.2 46.45 1.2 46.2 L1.2 45.75 Q1.2 45.45 1.4 45.25 L1.4 45.2 1.55 45.15 Q1.6 45.05 1.7 45.05 L1.85 45.0 1.95 45.0 3.15 45.0 17.0 45.0 M18.4 46.7 L19.9 46.7 20.95 46.7 Q21.15 46.7 21.25 46.6 21.4 46.45 21.4 46.3 L21.4 46.2 21.4 45.75 21.4 45.65 Q21.4 45.45 21.25 45.3 L21.05 45.2 20.95 45.2 3.65 45.2 1.95 45.2 1.8 45.2 1.7 45.25 1.6 45.3 Q1.5 45.45 1.5 45.65 L1.5 45.75 1.5 46.2 1.5 46.3 Q1.5 46.45 1.6 46.6 1.75 46.7 1.95 46.7 L2.95 46.7 14.35 46.7 18.4 46.7" fill="#2e3231" fill-rule="evenodd" stroke="none"/>
    <path d="M20.05 46.6 L18.4 46.6 14.7 46.6 2.8 46.6 1.95 46.6 Q1.75 46.6 1.6 46.45 1.5 46.35 1.5 46.2 L1.5 45.75 Q1.5 45.55 1.6 45.45 1.7 45.35 1.85 45.35 L1.95 45.3 3.65 45.3 20.95 45.3 21.05 45.35 Q21.15 45.35 21.25 45.45 21.4 45.55 21.4 45.75 L21.4 46.2 Q21.4 46.35 21.25 46.45 21.15 46.6 20.95 46.6 L20.05 46.6" fill="url(#gradient1)" fill-rule="evenodd" stroke="none"/>
    <path d="M27.25 9.05 Q27.05 9.1 27.0 9.35 L26.95 9.5 26.95 11.5 26.95 13.75 27.0 13.9 Q27.05 14.2 27.45 14.2 L31.7 14.2 Q32.05 14.2 32.15 13.9 L32.15 11.2 32.15 9.35 Q32.05 9.05 31.7 9.05 L31.3 9.05 27.45 9.05 27.25 9.05 M27.4 9.5 L27.4 13.75 27.45 13.8 27.5 13.8 M31.1 13.8 L31.65 13.8 31.7 13.8 31.75 13.75 31.75 9.55 31.75 9.5 31.7 9.45 27.4 9.45" fill="none" stroke="#000000" stroke-linecap="round" stroke-linejoin="round" stroke-opacity="0.4" stroke-width="1.0"/>
    <path d="M27.5 13.8 L31.1 13.8" fill="none" stroke="#000000" stroke-linecap="round" stroke-linejoin="round" stroke-opacity="0.4509804" stroke-width="1.0"/>
  </g>
  <defs>
    <radialGradient cx="0" cy="0" gradientTransform="matrix(0.0038, 0.0, 0.0, 0.0038, 29.55, 11.65)" gradientUnits="userSpaceOnUse" id="gradient0" r="819.2" spreadMethod="pad">
      <stop offset="0.0" stop-color="#354e70" stop-opacity="0.64705884"/>
      <stop offset="1.0" stop-color="#362f54" stop-opacity="0.64705884"/>
    </radialGradient>
    <radialGradient cx="0" cy="0" gradientTransform="matrix(0.0122, 0.0, 0.0, 0.0122, 11.45, 45.95)" gradientUnits="userSpaceOnUse" id="gradient1" r="819.2" spreadMethod="pad">
      <stop offset="0.0" stop-color="#49a8bf"/>
      <stop offset="1.0" stop-color="#2f4679"/>
    </radialGradient>
  </defs>
</svg>
