<?xml version="1.0" encoding="UTF-8" standalone="no"?>
<svg xmlns:xlink="http://www.w3.org/1999/xlink" height="5.2px" width="5.2px" xmlns="http://www.w3.org/2000/svg">
  <g transform="matrix(1.0, 0.0, 0.0, 1.0, -17.3, -37.45)">
    <path d="M21.65 37.45 L21.6 37.5 21.55 37.55 Q21.5 37.55 21.5 37.55 L21.45 37.6 21.3 37.6 20.9 37.6 20.85 37.6 20.6 37.6 20.2 37.6 20.15 37.6 19.95 37.65 19.7 37.65 19.65 37.7 19.55 37.7 19.15 37.7 19.0 37.7 18.6 37.7 18.3 37.65 18.2 37.65 18.0 37.65 18.0 37.6 17.9 37.6 17.85 37.6 17.7 37.55 17.6 37.45 17.8 37.45 21.65 37.45 M17.9 42.3 L17.85 42.25 17.85 42.2 21.45 42.2 21.45 42.3 21.45 42.45 21.45 42.5 21.3 42.5 21.1 42.5 21.0 42.5 20.85 42.5 20.75 42.5 20.35 42.55 20.0 42.55 19.65 42.55 19.25 42.55 19.05 42.55 18.65 42.5 18.3 42.5 17.9 42.5 17.85 42.45 17.85 42.4 17.9 42.3" fill="#f5efe8" fill-rule="evenodd" stroke="none"/>
    <path d="M17.6 37.45 L17.7 37.55 17.85 37.6 17.9 37.6 18.0 37.6 18.0 37.65 18.2 37.65 18.3 37.65 18.6 37.7 19.0 37.7 19.15 37.7 19.55 37.7 19.65 37.7 19.7 37.65 19.95 37.65 20.15 37.6 20.2 37.6 20.6 37.6 20.85 37.6 20.9 37.6 21.3 37.6 21.45 37.6 21.5 37.55 Q21.5 37.55 21.55 37.55 L21.6 37.5 21.65 37.45 22.05 37.45 Q22.4 37.45 22.5 37.75 L17.35 37.75 Q17.4 37.5 17.6 37.45 M17.75 42.3 L17.9 42.3 17.85 42.4 17.85 42.45 17.9 42.5 18.3 42.5 18.65 42.5 19.05 42.55 19.25 42.55 19.65 42.55 20.0 42.55 20.35 42.55 20.75 42.5 20.85 42.5 21.0 42.5 21.1 42.5 21.3 42.5 21.45 42.5 21.45 42.45 21.45 42.3 22.05 42.3 22.5 42.3 Q22.4 42.6 22.05 42.6 L17.8 42.6 Q17.4 42.6 17.35 42.3 L17.75 42.3" fill="#cdc8c2" fill-rule="evenodd" stroke="none"/>
    <path d="M17.35 37.75 L22.5 37.75 22.5 39.6 22.5 39.65 22.45 39.65 22.45 39.7 22.45 39.85 22.4 39.9 22.4 39.95 22.35 40.05 22.35 40.15 22.3 40.25 22.2 40.3 22.2 39.95 22.2 39.15 22.25 38.95 22.25 38.6 22.25 38.0 Q22.25 37.95 22.2 37.95 L22.15 37.95 22.1 37.95 22.1 37.9 Q22.1 37.85 22.05 37.85 L17.75 37.85 17.75 37.9 17.75 42.15 17.8 42.2 17.85 42.2 17.85 42.25 17.9 42.3 17.75 42.3 Q17.65 42.3 17.65 42.15 L17.65 40.35 17.6 40.35 17.6 40.3 17.5 40.2 17.45 40.15 17.45 40.1 17.4 40.1 17.35 39.95 17.3 39.9 17.3 37.9 17.35 37.75 M22.0 42.2 L22.1 42.3 22.05 42.3 21.45 42.3 21.45 42.2 22.0 42.2" fill="#d4d4d4" fill-opacity="0.5686275" fill-rule="evenodd" stroke="none"/>
    <path d="M17.3 39.9 L17.35 39.95 17.4 40.1 17.45 40.1 17.45 40.15 17.5 40.2 17.6 40.3 17.6 40.35 17.65 40.35 17.65 42.15 Q17.65 42.3 17.75 42.3 L17.35 42.3 17.3 42.15 17.3 39.9 M22.1 37.95 L22.15 37.95 22.2 37.95 Q22.25 37.95 22.25 38.0 L22.25 38.6 22.25 38.95 22.2 39.15 22.2 39.95 22.2 40.3 22.3 40.25 22.35 40.15 22.35 40.05 22.4 39.95 22.4 39.9 22.45 39.85 22.45 39.7 22.45 39.65 22.5 39.65 22.5 39.6 22.5 42.3 22.05 42.3 22.1 42.3 22.0 42.2 22.05 42.2 22.1 42.15 22.1 37.95" fill="#989898" fill-opacity="0.5686275" fill-rule="evenodd" stroke="none"/>
    <path d="M20.35 39.4 L20.3 39.25 20.3 39.15 20.4 39.2 20.4 39.15 20.35 39.1 20.3 39.15 20.3 39.1 20.35 39.1 20.4 39.05 20.4 39.0 20.35 39.05 20.25 39.05 20.2 38.95 Q20.15 38.9 20.2 38.85 L20.25 38.9 20.3 38.9 20.3 38.8 20.35 38.9 20.4 38.9 20.4 38.85 20.45 38.85 20.5 38.95 20.55 38.95 20.55 39.05 20.7 39.05 20.65 39.1 20.7 39.15 20.55 39.15 20.6 39.2 20.5 39.2 20.4 39.2 20.5 39.35 20.5 39.5 20.35 39.4" fill="#a57c4a" fill-rule="evenodd" stroke="none"/>
    <path d="M20.55 38.95 L20.5 38.95 20.45 38.85 20.4 38.85 20.4 38.9 20.35 38.9 20.3 38.8 20.3 38.9 20.25 38.9 20.2 38.85 Q20.15 38.9 20.2 38.95 L20.25 39.05 20.35 39.05 20.4 39.0 20.4 39.05 20.35 39.1 20.3 39.1 20.3 39.15 20.35 39.1 20.4 39.15 20.4 39.2 20.3 39.15 20.3 39.25 20.35 39.4 20.25 39.35 20.05 39.35 20.0 39.35 19.9 39.4 19.9 39.35 20.15 38.8 20.2 38.6 20.3 38.4 20.4 38.15 20.75 38.25 20.7 38.25 Q20.65 38.25 20.65 38.25 L20.7 38.4 Q20.65 38.45 20.65 38.55 L20.55 38.55 Q20.55 38.5 20.5 38.5 L20.55 38.6 20.5 38.65 20.55 38.75 20.45 38.75 20.55 38.95" fill="#805b2e" fill-rule="evenodd" stroke="none"/>
    <path d="M20.55 38.95 L20.45 38.75 20.55 38.75 20.5 38.65 20.55 38.6 20.5 38.5 Q20.55 38.5 20.55 38.55 L20.65 38.55 Q20.65 38.45 20.7 38.4 L20.65 38.25 Q20.65 38.25 20.7 38.25 L20.75 38.25 20.9 38.3 20.9 38.35 20.8 38.45 20.75 38.6 20.7 38.65 20.65 38.7 20.55 38.95" fill="#634121" fill-rule="evenodd" stroke="none"/>
    <path d="M20.5 39.5 L20.5 39.35 20.4 39.2 20.5 39.2 20.6 39.2 20.55 39.15 20.7 39.15 20.65 39.1 20.7 39.05 20.55 39.05 20.55 38.95 20.65 38.7 20.7 38.65 20.75 38.6 20.8 38.45 20.9 38.35 20.9 38.3 20.9 38.2 21.1 38.3 21.5 38.6 21.55 38.6 21.55 38.7 21.3 38.85 21.25 38.95 Q21.2 38.9 21.2 38.9 L21.15 38.9 21.1 38.85 21.05 38.85 21.1 39.1 21.15 39.15 21.05 39.1 21.0 39.05 20.95 39.05 20.95 39.15 21.0 39.3 20.9 39.3 20.9 39.25 20.8 39.2 20.75 39.2 20.85 39.35 20.75 39.35 20.75 39.3 20.65 39.3 20.7 39.35 Q20.65 39.4 20.7 39.4 L20.85 39.45 20.8 39.55 20.75 39.55 20.75 39.65 20.7 39.7 20.55 39.5 20.5 39.5 M21.65 39.25 L21.6 39.15 21.5 39.2 21.55 39.15 21.45 39.15 Q21.4 39.1 21.45 39.05 L21.5 39.05 21.55 38.95 Q21.55 38.9 21.6 38.9 L21.65 38.9 21.7 38.8 21.85 38.95 21.8 39.0 21.65 39.25" fill="#c5a278" fill-rule="evenodd" stroke="none"/>
    <path d="M20.7 39.7 L20.75 39.65 20.75 39.55 20.8 39.55 20.85 39.45 20.7 39.4 Q20.65 39.4 20.7 39.35 L20.65 39.3 20.75 39.3 20.75 39.35 20.85 39.35 20.75 39.2 20.8 39.2 20.9 39.25 20.9 39.3 21.0 39.3 20.95 39.15 20.95 39.05 21.0 39.05 21.05 39.1 21.15 39.15 21.1 39.1 21.05 38.85 21.1 38.85 21.15 38.9 21.2 38.9 Q21.2 38.9 21.25 38.95 L21.3 38.85 21.55 38.7 21.55 38.6 21.7 38.8 21.65 38.9 21.6 38.9 Q21.55 38.9 21.55 38.95 L21.5 39.05 21.45 39.05 Q21.4 39.1 21.45 39.15 L21.55 39.15 21.5 39.2 21.6 39.15 21.65 39.25 21.5 39.35 21.35 39.5 20.95 39.75 Q20.85 39.8 20.75 39.85 L20.7 39.7" fill="#dab685" fill-rule="evenodd" stroke="none"/>
    <path d="M20.0 39.35 L20.05 39.35 20.2 39.4 20.35 39.4 20.5 39.5 20.55 39.5 20.7 39.7 20.75 39.85 20.75 39.95 20.7 40.0 20.7 40.05 20.55 40.15 20.3 40.35 20.2 40.35 20.1 40.35 20.05 40.3 20.0 40.3 19.95 40.25 19.9 40.25 19.7 40.15 19.6 40.05 19.55 40.0 Q19.5 39.9 19.55 39.85 L19.55 39.8 19.65 39.7 19.6 39.75 19.6 39.85 19.65 39.85 19.65 39.8 19.7 39.8 19.75 39.9 19.8 40.0 19.9 40.05 19.95 40.05 20.05 40.1 20.05 40.05 20.0 40.05 19.95 40.05 19.9 40.0 19.8 39.95 Q19.7 39.8 19.75 39.75 L19.8 39.85 19.85 39.85 19.8 39.75 Q19.8 39.7 19.8 39.65 L19.85 39.55 19.95 39.5 19.95 39.6 20.0 39.6 20.0 39.65 19.9 39.7 19.95 39.75 20.0 39.8 Q19.95 39.8 19.95 39.85 19.9 39.9 19.95 39.95 L20.0 39.95 20.05 39.95 20.1 40.05 20.15 40.1 20.35 40.15 Q20.4 40.15 20.45 40.1 L20.45 40.05 20.5 40.0 20.45 40.0 20.4 40.0 20.35 40.1 20.25 40.1 Q20.35 39.95 20.2 39.9 20.05 39.85 20.1 39.8 L20.1 39.75 20.1 39.65 20.15 39.7 20.25 39.6 20.35 39.65 20.3 39.75 Q20.25 39.9 20.35 39.95 L20.35 39.85 20.4 39.85 20.4 39.8 20.45 39.85 20.5 39.9 20.6 39.85 Q20.65 39.75 20.55 39.7 L20.45 39.7 20.45 39.6 20.15 39.55 20.15 39.5 20.05 39.55 20.05 39.45 Q20.0 39.4 20.0 39.35 M19.55 39.55 L19.55 39.5 Q19.55 39.5 19.6 39.45 L19.75 39.45 19.8 39.35 19.8 39.55 19.75 39.55 19.7 39.55 19.65 39.55 19.6 39.55 19.55 39.55 M21.15 39.8 L21.3 39.75 21.45 39.75 21.5 39.75 21.45 39.85 Q21.5 39.85 21.55 39.85 L21.5 39.95 Q21.5 40.0 20.9 40.15 L21.3 40.1 21.3 40.15 21.2 40.2 21.3 40.25 21.4 40.25 20.8 40.3 20.9 40.35 21.1 40.35 21.0 40.35 21.0 40.4 21.3 40.4 21.5 40.4 21.5 40.45 21.35 40.5 21.15 40.55 20.95 40.55 20.8 40.5 20.75 40.45 21.0 40.5 Q21.0 40.4 20.75 40.3 L20.65 40.25 20.75 40.25 20.85 40.25 21.0 40.25 21.0 40.2 20.95 40.2 20.7 40.2 20.65 40.15 20.85 40.1 20.8 40.05 21.05 40.05 Q21.2 40.0 21.2 39.95 L21.25 39.95 21.2 39.9 21.0 39.9 20.95 39.85 21.15 39.8 M20.65 40.35 L20.8 40.75 20.8 40.8 20.7 40.8 Q20.65 40.75 20.65 40.7 L20.6 40.55 20.55 40.55 20.55 40.85 20.45 40.6 20.45 40.35 20.5 40.35 20.6 40.35 20.6 40.3 20.65 40.35 M19.95 40.8 L20.0 40.8 20.05 40.6 20.1 40.7 20.15 40.6 20.2 40.8 20.15 40.45 20.2 40.45 20.25 40.55 20.25 40.4 20.4 40.45 20.4 40.55 20.35 40.55 20.45 40.75 20.55 40.95 20.5 41.0 20.4 40.9 20.4 40.8 20.35 40.8 20.35 40.95 20.3 40.9 20.3 41.05 20.2 40.9 20.15 40.9 20.15 41.05 20.05 41.0 20.0 40.85 19.95 40.8" fill="#123458" fill-rule="evenodd" stroke="none"/>
    <path d="M19.9 39.4 L20.0 39.35 Q20.0 39.4 20.05 39.45 L20.05 39.55 20.15 39.5 20.15 39.55 20.45 39.6 20.45 39.7 20.55 39.7 Q20.65 39.75 20.6 39.85 L20.5 39.9 20.45 39.85 20.4 39.8 20.4 39.85 20.35 39.85 20.35 39.95 Q20.25 39.9 20.3 39.75 L20.35 39.65 20.25 39.6 20.15 39.7 20.1 39.65 20.1 39.75 20.1 39.8 Q20.05 39.85 20.2 39.9 20.35 39.95 20.25 40.1 L20.35 40.1 20.4 40.0 20.45 40.0 20.5 40.0 20.45 40.05 20.45 40.1 Q20.4 40.15 20.35 40.15 L20.15 40.1 20.1 40.05 20.05 39.95 20.0 39.95 19.95 39.95 Q19.9 39.9 19.95 39.85 19.95 39.8 20.0 39.8 L19.95 39.75 19.9 39.7 20.0 39.65 20.0 39.6 19.95 39.6 19.95 39.5 19.85 39.55 19.8 39.65 Q19.8 39.7 19.8 39.75 L19.85 39.85 19.8 39.85 19.75 39.75 Q19.7 39.8 19.8 39.95 L19.9 40.0 19.95 40.05 20.0 40.05 20.05 40.05 20.05 40.1 19.95 40.05 19.9 40.05 19.8 40.0 19.75 39.9 19.7 39.8 19.65 39.8 19.65 39.85 19.6 39.85 19.6 39.75 19.65 39.7 19.7 39.65 19.85 39.5 19.9 39.4 M20.05 39.35 L20.25 39.35 20.35 39.4 20.2 39.4 20.05 39.35 M21.15 39.8 L21.55 39.7 21.65 39.9 21.6 40.1 21.55 40.15 21.6 40.2 21.6 40.3 21.5 40.35 21.5 40.4 21.3 40.4 21.0 40.4 21.0 40.35 21.1 40.35 20.9 40.35 20.8 40.3 21.4 40.25 21.3 40.25 21.2 40.2 21.3 40.15 21.3 40.1 20.9 40.15 Q21.5 40.0 21.5 39.95 L21.55 39.85 Q21.5 39.85 21.45 39.85 L21.5 39.75 21.45 39.75 21.3 39.75 21.15 39.8 M20.8 40.8 Q20.85 41.1 20.8 41.2 L20.7 41.2 20.55 41.2 20.55 41.25 20.5 41.25 20.45 41.25 Q20.4 41.35 20.35 41.3 L20.3 41.2 20.2 41.25 20.15 41.25 20.05 41.15 20.0 41.1 19.95 41.1 Q19.9 41.05 19.95 40.85 L19.95 40.8 20.0 40.85 20.05 41.0 20.15 41.05 20.15 40.9 20.2 40.9 20.3 41.05 20.3 40.9 20.35 40.95 20.35 40.8 20.4 40.8 20.4 40.9 20.5 41.0 20.55 40.95 20.45 40.75 20.35 40.55 20.4 40.55 20.45 40.6 20.55 40.85 20.55 40.55 20.6 40.55 20.65 40.7 Q20.65 40.75 20.7 40.8 L20.8 40.8" fill="#1b4b80" fill-rule="evenodd" stroke="none"/>
    <path d="M19.9 39.35 L19.9 39.4 19.85 39.5 19.7 39.65 19.65 39.7 19.55 39.8 19.55 39.85 19.5 39.85 19.45 39.75 19.45 39.65 19.55 39.6 19.55 39.55 19.6 39.55 19.65 39.55 19.7 39.55 19.75 39.55 19.8 39.55 19.8 39.35 Q19.8 39.3 19.85 39.35 L19.9 39.35 M20.75 40.45 L20.7 40.4 20.65 40.35 20.6 40.3 20.6 40.35 20.5 40.35 20.45 40.35 20.45 40.6 20.4 40.55 20.4 40.45 20.25 40.4 20.25 40.55 20.2 40.45 20.15 40.45 20.2 40.8 20.15 40.6 20.1 40.7 20.05 40.6 20.2 40.35 20.3 40.35 20.55 40.15 20.7 40.05 20.7 40.0 20.75 39.95 Q20.75 39.9 20.95 39.85 L21.0 39.9 21.2 39.9 21.25 39.95 21.2 39.95 Q21.2 40.0 21.05 40.05 L20.8 40.05 20.85 40.1 20.65 40.15 20.7 40.2 20.95 40.2 21.0 40.2 21.0 40.25 20.85 40.25 20.75 40.25 20.65 40.25 20.75 40.3 Q21.0 40.4 21.0 40.5 L20.75 40.45" fill="#0c233c" fill-rule="evenodd" stroke="none"/>
    <path d="M18.8 41.75 L18.8 41.7 18.7 41.6 18.6 41.6 18.55 41.5 18.5 41.45 18.4 41.4 18.35 41.25 18.4 41.25 18.45 41.25 18.45 41.35 18.7 41.3 18.7 41.45 18.65 41.5 18.65 41.55 18.75 41.6 Q18.8 41.5 18.85 41.5 L18.9 41.5 18.9 41.6 18.8 41.65 Q18.8 41.65 18.8 41.75 M18.55 40.75 L18.6 40.65 18.75 40.5 18.9 40.35 18.95 40.35 19.0 40.4 18.95 40.4 18.9 40.5 Q18.9 40.55 18.95 40.55 L18.95 40.6 18.85 40.7 18.6 40.75 18.55 40.75 M19.0 40.5 L19.2 40.2 19.25 40.1 19.3 40.15 19.45 40.1 19.6 40.05 19.55 40.1 Q19.5 40.2 19.5 40.25 L19.55 40.25 19.6 40.25 19.7 40.3 19.65 40.35 19.4 40.6 19.3 40.55 19.2 40.55 19.15 40.55 19.1 40.5 19.0 40.5 M18.8 41.3 L18.75 41.15 19.0 41.15 19.0 41.2 Q18.95 41.2 18.9 41.25 L18.85 41.35 18.75 41.3 18.8 41.3" fill="#69502e" fill-rule="evenodd" stroke="none"/>
    <path d="M18.3 41.1 L18.3 41.0 18.55 40.75 18.6 40.75 18.85 40.7 18.95 40.6 18.95 40.55 19.0 40.5 19.1 40.5 19.15 40.55 19.2 40.55 19.3 40.55 19.4 40.6 19.25 40.7 19.15 40.75 19.15 40.8 19.2 40.9 19.15 40.95 19.0 41.15 Q19.15 41.2 19.2 41.2 L19.25 41.25 19.3 41.35 19.3 41.4 19.25 41.4 19.15 41.3 19.1 41.35 19.1 41.5 Q19.1 41.55 19.2 41.65 L18.85 41.45 18.9 41.5 18.85 41.5 Q18.8 41.5 18.75 41.6 L18.65 41.55 18.65 41.5 18.7 41.45 18.7 41.3 18.6 41.2 18.55 41.1 18.6 41.05 18.55 41.05 18.45 41.0 18.35 41.05 18.3 41.1 M19.6 40.05 L19.7 40.15 19.7 40.3 19.6 40.25 19.55 40.25 19.5 40.25 Q19.5 40.2 19.55 40.1 L19.6 40.05 M18.8 41.3 L18.75 41.3 18.85 41.35 18.9 41.25 Q18.95 41.2 19.0 41.2 L19.0 41.15 18.75 41.15 18.8 41.3" fill="#7e6341" fill-rule="evenodd" stroke="none"/>
    <path d="M19.5 39.85 L19.55 39.85 Q19.5 39.9 19.55 40.0 L19.6 40.05 19.45 40.1 19.3 40.15 19.25 40.1 19.2 40.2 19.0 40.5 18.95 40.55 Q18.9 40.55 18.9 40.5 L18.95 40.4 19.0 40.4 18.95 40.35 19.5 39.85 M19.45 41.9 L19.4 41.9 19.1 41.9 18.85 41.85 18.8 41.75 Q18.8 41.65 18.8 41.65 L18.9 41.6 18.9 41.5 18.85 41.45 19.2 41.65 Q19.1 41.55 19.1 41.5 L19.1 41.35 19.15 41.3 19.25 41.4 19.3 41.4 19.3 41.35 19.35 41.5 19.35 41.55 Q19.45 41.75 19.45 41.9" fill="#603814" fill-rule="evenodd" stroke="none"/>
    <path d="M19.7 40.3 L19.7 40.15 19.9 40.25 19.95 40.25 20.0 40.3 19.9 40.35 19.85 40.4 19.85 40.35 19.75 40.45 19.7 40.5 19.7 40.65 19.6 40.7 19.5 40.65 19.45 40.65 19.45 40.8 19.4 40.85 19.45 40.9 19.4 41.0 19.35 41.0 19.3 41.05 19.3 41.15 19.2 41.2 Q19.15 41.2 19.0 41.15 L19.15 40.95 19.2 40.9 19.15 40.8 19.15 40.75 19.25 40.7 19.4 40.6 19.65 40.35 19.7 40.3" fill="#be9e75" fill-rule="evenodd" stroke="none"/>
    <path d="M19.6 41.5 L19.45 41.9 Q19.45 41.75 19.35 41.55 L19.35 41.5 19.3 41.35 19.25 41.25 19.2 41.2 19.3 41.15 19.3 41.05 19.35 41.0 19.4 41.0 19.45 40.9 19.4 40.85 19.45 40.8 19.45 40.65 19.5 40.65 19.6 40.7 19.7 40.65 19.7 40.5 19.75 40.45 19.85 40.35 19.85 40.4 19.9 40.35 20.0 40.3 20.05 40.3 20.1 40.35 19.95 40.5 19.85 40.6 19.9 40.65 19.9 40.75 19.8 40.65 19.75 40.65 Q19.7 40.65 19.7 40.7 L19.65 40.8 19.6 40.85 19.6 41.0 19.55 41.0 19.55 41.1 19.65 41.3 19.5 41.3 19.6 41.45 19.6 41.5" fill="#d1b388" fill-rule="evenodd" stroke="none"/>
    <path d="M20.05 40.6 L20.0 40.75 19.95 40.8 19.95 40.85 Q19.8 41.15 19.6 41.5 L19.6 41.45 19.5 41.3 19.65 41.3 19.55 41.1 19.55 41.0 19.6 41.0 19.6 40.85 19.65 40.8 19.7 40.7 Q19.7 40.65 19.75 40.65 L19.8 40.65 19.9 40.75 19.9 40.65 19.85 40.6 19.95 40.5 20.1 40.35 20.2 40.35 20.05 40.6" fill="#e7c997" fill-rule="evenodd" stroke="none"/>
    <path d="M18.35 41.25 L18.35 41.2 18.3 41.1 18.35 41.05 18.45 41.0 18.55 41.05 18.6 41.05 18.55 41.1 18.6 41.2 18.7 41.3 18.45 41.35 18.45 41.25 18.4 41.25 18.35 41.25" fill="#3e2311" fill-rule="evenodd" stroke="none"/>
    <path d="M17.85 42.2 L17.8 42.2 17.75 42.15 17.75 37.9 17.75 37.85 22.05 37.85 Q22.1 37.85 22.1 37.9 L22.1 37.95 22.1 42.15 22.05 42.2 22.0 42.2 21.45 42.2 17.85 42.2 M20.75 38.25 L20.4 38.15 20.3 38.4 20.2 38.6 20.15 38.8 19.9 39.35 19.85 39.35 Q19.8 39.3 19.8 39.35 L19.75 39.45 19.6 39.45 Q19.55 39.5 19.55 39.5 L19.55 39.55 19.55 39.6 19.45 39.65 19.45 39.75 19.5 39.85 18.95 40.35 18.9 40.35 18.75 40.5 18.6 40.65 18.55 40.75 18.3 41.0 18.3 41.1 18.35 41.2 18.35 41.25 18.4 41.4 18.5 41.45 18.55 41.5 18.6 41.6 18.7 41.6 18.8 41.7 18.8 41.75 18.85 41.85 19.1 41.9 19.4 41.9 19.45 41.9 19.6 41.5 Q19.8 41.15 19.95 40.85 L19.95 40.8 20.0 40.75 20.05 40.6 20.0 40.8 19.95 40.8 19.95 40.85 Q19.9 41.05 19.95 41.1 L20.0 41.1 20.05 41.15 20.15 41.25 20.2 41.25 20.3 41.2 20.35 41.3 Q20.4 41.35 20.45 41.25 L20.5 41.25 20.55 41.25 20.55 41.2 20.7 41.2 20.8 41.2 Q20.85 41.1 20.8 40.8 L20.8 40.75 20.65 40.35 20.7 40.4 20.75 40.45 20.8 40.5 20.95 40.55 21.15 40.55 21.35 40.5 21.5 40.45 21.5 40.4 21.5 40.35 21.6 40.3 21.6 40.2 21.55 40.15 21.6 40.1 21.65 39.9 21.55 39.7 21.15 39.8 20.95 39.85 Q20.75 39.9 20.75 39.95 L20.75 39.85 Q20.85 39.8 20.95 39.75 L21.35 39.5 21.5 39.35 21.65 39.25 21.8 39.0 21.85 38.95 21.7 38.8 21.55 38.6 21.5 38.6 21.1 38.3 20.9 38.2 20.9 38.3 20.75 38.25" fill="url(#gradient0)" fill-rule="evenodd" stroke="none"/>
    <path d="M21.45 42.2 L17.85 42.2" fill="none" stroke="#000000" stroke-linecap="round" stroke-linejoin="round" stroke-opacity="0.4509804" stroke-width="1.0"/>
    <path d="M21.65 37.45 L17.8 37.45 17.6 37.45 Q17.4 37.5 17.35 37.75 L17.3 37.9 17.3 39.9 17.3 42.15 17.35 42.3 Q17.4 42.6 17.8 42.6 L22.05 42.6 Q22.4 42.6 22.5 42.3 L22.5 39.6 22.5 37.75 Q22.4 37.45 22.05 37.45 L21.65 37.45 M17.85 42.2 L17.8 42.2 17.75 42.15 17.75 37.9 M17.75 37.85 L22.05 37.85 Q22.1 37.85 22.1 37.9 L22.1 37.95 22.1 42.15 22.05 42.2 22.0 42.2 21.45 42.2 M20.75 38.25 L20.4 38.15 20.3 38.4 20.2 38.6 20.15 38.8 19.9 39.35 19.85 39.35 Q19.8 39.3 19.8 39.35 L19.75 39.45 19.6 39.45 Q19.55 39.5 19.55 39.5 L19.55 39.55 19.55 39.6 19.45 39.65 19.45 39.75 19.5 39.85 18.95 40.35 18.9 40.35 18.75 40.5 18.6 40.65 18.55 40.75 18.3 41.0 18.3 41.1 18.35 41.2 18.35 41.25 18.4 41.4 18.5 41.45 18.55 41.5 18.6 41.6 18.7 41.6 18.8 41.7 18.8 41.75 18.85 41.85 19.1 41.9 19.4 41.9 19.45 41.9 19.6 41.5 Q19.8 41.15 19.95 40.85 L19.95 40.8 20.0 40.8 20.05 40.6 20.0 40.75 19.95 40.8 19.95 40.85 Q19.9 41.05 19.95 41.1 L20.0 41.1 20.05 41.15 20.15 41.25 20.2 41.25 20.3 41.2 20.35 41.3 Q20.4 41.35 20.45 41.25 L20.5 41.25 20.55 41.25 20.55 41.2 20.7 41.2 20.8 41.2 Q20.85 41.1 20.8 40.8 L20.8 40.75 20.65 40.35 20.7 40.4 20.75 40.45 20.8 40.5 20.95 40.55 21.15 40.55 21.35 40.5 21.5 40.45 21.5 40.4 21.5 40.35 21.6 40.3 21.6 40.2 21.55 40.15 21.6 40.1 21.65 39.9 21.55 39.7 21.15 39.8 20.95 39.85 Q20.75 39.9 20.75 39.95 L20.75 39.85 Q20.85 39.8 20.95 39.75 L21.35 39.5 21.5 39.35 21.65 39.25 21.8 39.0 21.85 38.95 21.7 38.8 21.55 38.6 21.5 38.6 21.1 38.3 20.9 38.2 20.9 38.3 20.75 38.25 Z" fill="none" stroke="#000000" stroke-linecap="round" stroke-linejoin="round" stroke-opacity="0.4" stroke-width="1.0"/>
  </g>
  <defs>
    <radialGradient cx="0" cy="0" gradientTransform="matrix(0.0038, 0.0, 0.0, 0.0038, 19.9, 40.05)" gradientUnits="userSpaceOnUse" id="gradient0" r="819.2" spreadMethod="pad">
      <stop offset="0.0" stop-color="#a19b8c" stop-opacity="0.64705884"/>
      <stop offset="1.0" stop-color="#171713" stop-opacity="0.64705884"/>
    </radialGradient>
  </defs>
</svg>
