<?xml version="1.0" encoding="UTF-8" standalone="no"?>
<svg xmlns:xlink="http://www.w3.org/1999/xlink" height="3.35px" width="2.6px" xmlns="http://www.w3.org/2000/svg">
  <g transform="matrix(1.0, 0.0, 0.0, 1.0, 1.3, 1.5)">
    <path d="M0.4 -0.05 Q0.6 0.1 0.8 0.1 L1.3 0.15 0.7 0.2 Q0.5 0.2 0.35 0.3 0.35 0.45 0.45 0.55 L0.7 0.8 0.2 0.45 Q0.15 0.55 0.1 0.75 0.1 1.0 0.05 1.85 L0.0 0.75 Q-0.05 0.55 -0.1 0.45 L-0.25 0.55 -0.8 1.1 -0.25 0.5 -0.2 0.35 Q-0.35 0.2 -0.65 0.2 L-1.3 0.15 -0.7 0.1 Q-0.5 0.05 -0.3 -0.1 L-0.35 -0.1 -0.7 -0.45 -0.35 -0.2 -0.25 -0.15 Q-0.1 -0.3 -0.05 -0.5 0.05 -0.75 0.1 -1.5 0.1 -0.7 0.2 -0.45 L0.3 -0.2 0.85 -0.7 Q0.55 -0.3 0.4 -0.05" fill="#ffffff" fill-rule="evenodd" stroke="none"/>
  </g>
</svg>
