<?xml version="1.0" encoding="UTF-8" standalone="no"?>
<svg xmlns:xlink="http://www.w3.org/1999/xlink" height="3.15px" width="5.4px" xmlns="http://www.w3.org/2000/svg">
  <g transform="matrix(1.0, 0.0, 0.0, 1.0, 2.7, 1.55)">
    <path d="M1.15 -1.55 L1.2 -1.55 1.35 -1.55 1.45 -1.55 Q1.55 -1.55 1.85 -1.4 L2.15 -1.2 2.2 -1.15 2.2 -1.05 Q2.2 -0.9 2.1 -0.85 L1.95 -0.8 1.8 -0.65 1.6 -0.4 1.35 -0.25 1.1 -0.2 0.95 -0.2 0.85 -0.35 0.8 -0.5 0.7 -0.55 0.5 -0.55 0.35 -0.55 0.25 -0.7 0.2 -0.8 0.85 -1.4 0.95 -1.45 1.15 -1.55" fill="#693223" fill-rule="evenodd" stroke="none"/>
    <path d="M0.2 -0.8 L0.25 -0.7 0.35 -0.55 0.5 -0.55 0.7 -0.55 0.8 -0.5 0.85 -0.35 0.95 -0.2 1.1 -0.2 1.35 -0.25 1.6 -0.4 1.8 -0.65 1.95 -0.8 2.1 -0.85 Q2.2 -0.9 2.2 -1.05 L2.2 -1.15 2.45 -1.0 2.45 -0.95 2.6 -0.75 2.65 -0.5 2.7 -0.1 2.7 -0.1 2.1 0.1 1.9 0.15 1.5 0.25 1.25 0.35 1.0 0.4 0.6 0.45 0.4 0.45 0.2 0.35 Q0.1 0.3 0.0 0.1 L-0.05 -0.05 -0.1 -0.1 -0.2 -0.15 -0.25 -0.25 -0.4 -0.3 0.2 -0.75 0.2 -0.8" fill="#582a1d" fill-rule="evenodd" stroke="none"/>
    <path d="M2.7 -0.1 L2.7 0.55 2.65 0.7 2.6 0.8 2.45 0.85 2.3 0.9 2.2 0.9 2.05 0.95 1.9 1.0 1.7 1.0 1.6 1.0 1.55 1.0 1.45 1.0 1.3 1.0 0.9 1.05 0.5 1.05 Q0.2 1.1 0.1 1.15 L-0.35 1.35 -0.45 1.4 -0.55 1.45 -0.65 1.45 -1.75 1.55 -2.05 1.55 -2.5 1.45 -2.55 1.45 -2.65 1.35 -2.7 1.25 -2.6 1.1 -2.5 1.0 -2.45 0.95 -2.4 0.9 -2.35 0.8 -2.2 0.7 Q-2.15 0.7 -2.1 0.65 L-2.0 0.6 -1.5 0.35 -0.4 -0.3 -0.25 -0.25 -0.2 -0.15 -0.1 -0.1 -0.05 -0.05 0.0 0.1 Q0.1 0.3 0.2 0.35 L0.4 0.45 0.6 0.45 1.0 0.4 1.25 0.35 1.5 0.25 1.9 0.15 2.1 0.1 2.7 -0.1" fill="#2e160f" fill-rule="evenodd" stroke="none"/>
    <path d="M1.15 -1.55 L0.95 -1.45 0.85 -1.4 0.2 -0.8 0.2 -0.75 -0.4 -0.3 -1.5 0.35 -2.0 0.6 -2.1 0.65 Q-2.15 0.7 -2.2 0.7 L-2.35 0.8 -2.4 0.9 -2.45 0.95 -2.5 1.0 -2.6 1.1 -2.7 1.25 -2.65 1.35 -2.55 1.45 -2.5 1.45 -2.05 1.55 -1.75 1.55 -0.65 1.45 -0.55 1.45 -0.45 1.4 -0.35 1.35 0.1 1.15 Q0.2 1.1 0.5 1.05 L0.9 1.05 1.3 1.0 1.45 1.0 1.55 1.0 1.6 1.0 1.7 1.0 1.9 1.0 2.05 0.95 2.2 0.9 2.3 0.9 2.45 0.85 2.6 0.8 2.65 0.7 2.7 0.55 2.7 -0.1 2.7 -0.1 2.65 -0.5 2.6 -0.75 2.45 -0.95" fill="none" stroke="#000000" stroke-linecap="round" stroke-linejoin="round" stroke-opacity="0.4509804" stroke-width="1.0"/>
  </g>
</svg>
