<?xml version="1.0" encoding="UTF-8" standalone="no"?>
<svg xmlns:xlink="http://www.w3.org/1999/xlink" height="2.6px" width="2.2px" xmlns="http://www.w3.org/2000/svg">
  <g transform="matrix(1.0, 0.0, 0.0, 1.0, 1.1, 1.3)">
    <path d="M-1.0 0.65 L-0.9 0.6 -0.7 0.65 -0.4 0.55 -0.25 0.65 -0.35 0.8 -0.2 0.9 -0.1 0.85 -0.15 0.75 -0.05 0.75 0.05 0.85 Q0.15 0.9 0.25 0.9 0.5 0.9 0.45 0.6 0.65 0.65 0.85 0.5 L0.7 0.6 0.6 0.75 0.55 0.95 Q0.4 0.9 0.3 1.1 0.2 1.3 0.05 1.3 -0.5 0.9 -0.7 0.9 -0.95 0.9 -1.0 0.85 L-1.0 0.65" fill="#0e3246" fill-rule="evenodd" stroke="none"/>
    <path d="M0.1 -1.3 L0.2 -1.25 0.55 -0.9 0.55 -0.9 0.9 -0.7 1.0 -0.45 1.05 -0.15 1.1 0.05 Q0.85 0.25 0.85 0.45 L0.85 0.5 Q0.65 0.65 0.45 0.6 0.5 0.9 0.25 0.9 0.15 0.9 0.05 0.85 L-0.05 0.75 -0.15 0.75 -0.1 0.85 -0.2 0.9 -0.35 0.8 -0.25 0.65 -0.4 0.55 -0.7 0.65 -0.9 0.6 -1.0 0.65 -1.0 0.1 -1.05 -0.15 -1.1 -0.4 Q-1.1 -0.55 -0.95 -0.75 -0.8 -0.9 -0.6 -1.0 -0.2 -1.3 0.05 -1.3 L0.1 -1.3" fill="#13445f" fill-rule="evenodd" stroke="none"/>
    <path d="M0.85 0.5 L0.85 0.45 Q0.85 0.25 1.1 0.05 L1.05 -0.15 1.0 -0.45 0.9 -0.7 0.55 -0.9 0.55 -0.9 0.2 -1.25 0.1 -1.3 M-0.95 -0.75 Q-1.1 -0.55 -1.1 -0.4 L-1.05 -0.15 -1.0 0.1 -1.0 0.65 -1.0 0.85 Q-0.95 0.9 -0.7 0.9 -0.5 0.9 0.05 1.3 0.2 1.3 0.3 1.1 0.4 0.9 0.55 0.95 L0.6 0.75 0.7 0.6 0.85 0.5" fill="none" stroke="#000000" stroke-linecap="round" stroke-linejoin="round" stroke-opacity="0.4" stroke-width="1.0"/>
  </g>
</svg>
