<?xml version="1.0" encoding="UTF-8" standalone="no"?>
<svg xmlns:xlink="http://www.w3.org/1999/xlink" height="7.35px" width="7.35px" xmlns="http://www.w3.org/2000/svg">
  <g transform="matrix(1.0, 0.0, 0.0, 1.0, -18.15, -20.75)">
    <path d="M24.3 20.8 L24.25 20.85 24.15 20.9 24.15 20.95 Q24.05 20.95 24.05 20.95 L23.95 21.0 23.8 21.0 23.25 21.0 23.2 21.0 23.15 21.0 22.75 21.0 22.25 21.0 22.2 21.0 21.9 21.05 21.85 21.1 21.55 21.1 21.5 21.1 21.3 21.15 20.75 21.15 20.55 21.15 19.55 21.05 19.45 21.05 19.15 21.05 19.1 21.05 18.95 21.0 18.9 21.0 18.6 20.8 18.55 20.8 18.85 20.8 24.3 20.8 M24.0 27.5 L24.0 27.65 24.0 27.75 24.0 27.9 23.8 27.9 23.5 27.9 23.35 27.9 23.2 27.95 23.05 27.95 22.5 27.95 21.95 27.95 21.45 27.95 20.9 27.95 20.65 27.95 20.1 27.95 19.55 27.95 19.0 27.95 18.95 27.95 Q18.9 27.9 18.95 27.8 L18.95 27.65 18.95 27.5 24.0 27.5" fill="#f5efe8" fill-rule="evenodd" stroke="none"/>
    <path d="M24.3 20.8 L24.85 20.8 Q25.3 20.8 25.45 21.15 L25.45 21.2 18.2 21.2 Q18.25 20.9 18.55 20.8 L18.6 20.8 18.9 21.0 18.95 21.0 19.1 21.05 19.15 21.05 19.45 21.05 19.55 21.05 20.55 21.15 20.75 21.15 21.3 21.15 21.5 21.1 21.55 21.1 21.85 21.1 21.9 21.05 22.2 21.0 22.25 21.0 22.75 21.0 23.15 21.0 23.2 21.0 23.25 21.0 23.8 21.0 23.95 21.0 24.05 20.95 Q24.05 20.95 24.15 20.95 L24.15 20.9 24.25 20.85 24.3 20.8 M25.45 27.65 Q25.35 28.0 25.0 28.05 L24.85 28.1 18.85 28.1 Q18.3 28.1 18.2 27.65 L18.8 27.65 18.95 27.65 18.95 27.8 Q18.9 27.9 18.95 27.95 L19.0 27.95 19.55 27.95 20.1 27.95 20.65 27.95 20.9 27.95 21.45 27.95 21.95 27.95 22.5 27.95 23.05 27.95 23.2 27.95 23.35 27.9 23.5 27.9 23.8 27.9 24.0 27.9 24.0 27.75 24.0 27.65 24.85 27.65 25.45 27.65" fill="#cdc8c2" fill-rule="evenodd" stroke="none"/>
    <path d="M18.2 21.2 L25.45 21.2 25.5 21.4 25.5 23.8 25.45 23.85 25.45 23.9 25.4 24.0 25.4 24.15 25.35 24.2 25.35 24.3 25.3 24.35 25.3 24.45 25.25 24.5 25.25 24.6 25.2 24.7 25.1 24.85 25.1 23.75 25.1 22.95 25.15 22.4 25.15 21.6 Q25.15 21.5 25.05 21.5 L25.0 21.5 24.95 21.5 24.9 21.5 24.9 21.4 Q24.9 21.35 24.85 21.35 L18.8 21.35 18.75 21.35 18.75 21.4 18.75 27.45 Q18.75 27.5 18.85 27.5 L18.95 27.5 18.95 27.65 18.8 27.65 Q18.6 27.65 18.6 27.45 L18.6 24.85 18.55 24.8 18.45 24.7 18.35 24.6 18.35 24.55 18.3 24.5 18.2 24.35 18.2 24.25 18.2 21.2 M24.8 27.5 L24.9 27.6 24.9 27.65 24.85 27.65 24.0 27.65 24.0 27.5 24.8 27.5" fill="#d4d4d4" fill-opacity="0.5686275" fill-rule="evenodd" stroke="none"/>
    <path d="M25.5 23.8 L25.5 27.45 25.45 27.65 24.85 27.65 24.9 27.65 24.9 27.6 24.8 27.5 24.85 27.5 24.9 27.45 24.9 21.5 24.95 21.5 25.0 21.5 25.05 21.5 Q25.15 21.5 25.15 21.6 L25.15 22.4 25.1 22.95 25.1 23.75 25.1 24.85 25.2 24.7 25.25 24.6 25.25 24.5 25.3 24.45 25.3 24.35 25.35 24.3 25.35 24.2 25.4 24.15 25.4 24.0 25.45 23.9 25.45 23.85 25.5 23.8 M18.2 27.65 L18.2 24.25 18.2 24.35 18.3 24.5 18.35 24.55 18.35 24.6 18.45 24.7 18.55 24.8 18.6 24.85 18.6 27.45 Q18.6 27.65 18.8 27.65 L18.2 27.65" fill="#989898" fill-opacity="0.5686275" fill-rule="evenodd" stroke="none"/>
    <path d="M20.2 21.7 L20.25 21.7 20.35 21.7 20.3 21.7 20.35 21.75 Q20.4 21.75 20.35 21.8 L20.3 21.8 20.3 21.85 20.05 21.85 20.0 21.85 20.0 21.8 20.1 21.8 20.2 21.7 M20.3 21.75 L20.25 21.7 20.2 21.75 20.15 21.8 20.3 21.8 20.3 21.75" fill="#a98459" fill-rule="evenodd" stroke="none"/>
    <path d="M19.65 21.9 Q19.65 21.75 19.75 21.7 19.9 21.65 20.0 21.7 L20.0 21.75 Q19.95 21.8 20.0 21.8 L20.0 21.85 20.05 21.85 Q20.0 21.9 19.95 21.9 L19.75 21.9 19.7 21.85 19.65 21.9" fill="#4a3a24" fill-rule="evenodd" stroke="none"/>
    <path d="M20.0 21.7 L20.2 21.7 20.1 21.8 20.0 21.8 Q19.95 21.8 20.0 21.75 L20.0 21.7" fill="#72573a" fill-rule="evenodd" stroke="none"/>
    <path d="M22.7 21.85 L22.8 21.85 22.8 21.9 22.85 21.9 23.05 21.9 23.25 21.9 23.0 21.95 22.9 21.95 22.85 21.95 22.6 21.95 22.1 21.95 21.4 21.95 21.1 21.95 20.65 21.95 20.55 21.95 20.25 21.95 20.05 21.95 19.9 21.95 19.85 22.25 19.85 22.5 19.85 23.0 19.85 23.05 19.75 23.05 19.75 22.95 19.7 22.95 19.65 23.0 19.65 22.85 19.75 22.85 Q19.85 22.9 19.8 22.85 L19.75 22.7 19.75 22.5 19.75 22.4 19.75 22.15 19.75 21.9 19.95 21.9 Q20.0 21.9 20.05 21.85 L20.3 21.85 20.7 21.85 Q20.7 21.9 20.75 21.85 L20.85 21.9 21.1 21.9 Q21.3 21.85 21.35 21.9 L21.5 21.9 Q21.6 21.9 21.6 21.85 L21.75 21.85 21.9 21.85 Q21.95 21.9 22.1 21.9 L22.2 21.9 22.3 21.9 22.3 21.85 22.4 21.85 22.5 21.85 22.55 21.85 22.7 21.85" fill="#2a2113" fill-rule="evenodd" stroke="none"/>
    <path d="M20.3 21.75 L20.3 21.8 20.15 21.8 20.2 21.75 20.25 21.7 20.3 21.75" fill="#e5c485" fill-rule="evenodd" stroke="none"/>
    <path d="M20.35 21.7 L20.9 21.7 20.95 21.75 20.85 21.75 Q20.8 21.75 20.85 21.8 L20.9 21.85 20.7 21.85 20.3 21.85 20.3 21.8 20.35 21.8 Q20.4 21.75 20.35 21.75 L20.3 21.7 20.35 21.7" fill="#72522d" fill-rule="evenodd" stroke="none"/>
    <path d="M20.25 21.95 L20.2 22.05 Q20.2 22.15 20.2 22.2 20.25 22.35 20.2 22.4 20.15 22.4 20.2 22.5 L20.2 22.6 20.15 22.55 20.1 22.55 20.1 22.15 Q20.05 22.2 20.05 22.25 L20.05 22.4 20.0 22.35 Q19.95 22.35 19.95 22.45 L20.0 22.45 20.05 22.5 20.0 22.55 19.95 22.55 19.85 22.5 19.85 22.25 19.9 21.95 20.05 21.95 20.25 21.95" fill="#ad8442" fill-rule="evenodd" stroke="none"/>
    <path d="M20.55 21.95 L20.6 22.0 20.55 22.0 20.5 22.0 20.45 22.1 Q20.35 22.3 20.4 22.45 20.35 22.5 20.25 22.4 20.25 22.45 20.25 22.45 L20.3 22.5 20.3 22.6 20.2 22.6 20.2 22.5 Q20.15 22.4 20.2 22.4 20.25 22.35 20.2 22.2 20.2 22.15 20.2 22.05 L20.25 21.95 20.55 21.95 M19.95 22.55 L20.0 22.55 20.05 22.5 20.0 22.45 19.95 22.45 Q19.95 22.35 20.0 22.35 L20.05 22.4 20.05 22.25 Q20.05 22.2 20.1 22.15 L20.1 22.55 20.15 22.55 20.2 22.6 20.1 22.6 20.05 22.65 20.0 22.6 19.95 22.55" fill="#a37439" fill-rule="evenodd" stroke="none"/>
    <path d="M19.65 22.4 L19.65 22.0 Q19.65 22.0 19.65 22.05 L19.7 22.15 19.75 22.15 19.75 22.4 Q19.75 22.35 19.7 22.4 19.65 22.45 19.7 22.45 L19.75 22.5 Q19.7 22.5 19.7 22.6 19.7 22.65 19.75 22.7 L19.8 22.85 Q19.7 22.75 19.7 22.6 L19.65 22.5 19.65 22.4" fill="#9e7e50" fill-rule="evenodd" stroke="none"/>
    <path d="M19.65 22.0 L19.65 21.9 19.7 21.85 19.75 21.9 19.75 22.15 19.7 22.15 19.65 22.05 Q19.65 22.0 19.65 22.0" fill="#6b5339" fill-rule="evenodd" stroke="none"/>
    <path d="M19.65 22.85 L19.65 22.4 19.65 22.5 19.7 22.6 Q19.7 22.75 19.8 22.85 19.85 22.9 19.75 22.85 L19.65 22.85" fill="#745a31" fill-rule="evenodd" stroke="none"/>
    <path d="M20.45 22.1 L20.45 22.2 20.4 22.3 Q20.4 22.4 20.45 22.5 L20.45 22.6 20.45 22.7 20.4 22.8 20.3 22.8 20.25 22.7 20.2 22.6 20.3 22.6 20.3 22.5 20.25 22.45 Q20.25 22.45 20.25 22.4 20.35 22.5 20.4 22.45 20.35 22.3 20.45 22.1" fill="#8b6935" fill-rule="evenodd" stroke="none"/>
    <path d="M19.75 22.4 L19.75 22.5 19.7 22.45 Q19.65 22.45 19.7 22.4 19.75 22.35 19.75 22.4" fill="#ccae7e" fill-rule="evenodd" stroke="none"/>
    <path d="M20.55 22.7 L20.7 22.7 20.65 22.75 20.6 22.8 Q20.55 22.8 20.65 22.8 L20.7 22.85 20.65 22.9 20.55 22.9 20.55 23.0 20.5 23.15 20.35 23.15 20.2 23.1 Q20.15 23.1 20.1 23.0 L20.0 22.95 19.85 23.0 19.85 22.5 19.95 22.55 20.0 22.6 20.05 22.65 20.1 22.6 20.2 22.6 20.25 22.7 20.2 22.7 20.1 22.7 Q20.05 22.75 20.1 22.8 L20.2 22.9 20.2 23.0 20.25 23.05 20.3 23.05 20.35 23.0 20.35 23.1 20.5 23.05 20.55 23.0 20.5 23.0 20.45 22.95 Q20.45 22.9 20.5 22.85 L20.5 22.75 20.55 22.7" fill="#6d6839" fill-rule="evenodd" stroke="none"/>
    <path d="M20.2 23.1 L20.2 23.25 Q20.2 23.15 20.15 23.1 L20.1 23.1 19.85 23.05 19.85 23.0 20.0 22.95 20.1 23.0 Q20.15 23.1 20.2 23.1" fill="#9b874b" fill-rule="evenodd" stroke="none"/>
    <path d="M20.7 22.6 L20.75 22.6 20.65 22.6 20.6 22.7 20.55 22.7 20.5 22.75 20.5 22.85 Q20.45 22.9 20.45 22.95 L20.5 23.0 20.55 23.0 20.5 23.05 20.35 23.1 20.35 23.0 20.3 23.05 20.25 23.05 20.2 23.0 20.2 22.9 20.1 22.8 Q20.05 22.75 20.1 22.7 L20.2 22.7 20.25 22.7 20.3 22.8 20.4 22.8 20.45 22.7 20.45 22.6 20.55 22.45 Q20.6 22.35 20.7 22.35 L20.65 22.45 20.6 22.5 Q20.55 22.6 20.7 22.6" fill="#5b562f" fill-rule="evenodd" stroke="none"/>
    <path d="M19.75 22.5 L19.75 22.7 Q19.7 22.65 19.7 22.6 19.7 22.5 19.75 22.5" fill="#ceaa68" fill-rule="evenodd" stroke="none"/>
    <path d="M19.65 23.25 L19.65 23.0 19.7 22.95 19.75 22.95 19.75 23.05 19.85 23.05 19.85 23.1 19.8 23.15 19.8 23.25 19.65 23.25" fill="#4e3a24" fill-rule="evenodd" stroke="none"/>
    <path d="M21.2 21.85 Q21.2 21.8 21.25 21.8 L21.3 21.75 21.4 21.8 21.45 21.75 21.5 21.75 21.55 21.85 21.2 21.85" fill="#ac834c" fill-rule="evenodd" stroke="none"/>
    <path d="M21.5 21.7 L21.55 21.75 21.65 21.75 21.6 21.85 21.55 21.85 21.5 21.75 21.45 21.75 21.4 21.8 21.3 21.75 21.25 21.8 Q21.2 21.8 21.2 21.85 L21.1 21.85 21.05 21.75 21.1 21.7 21.3 21.7 21.5 21.7" fill="#806340" fill-rule="evenodd" stroke="none"/>
    <path d="M22.1 21.95 L22.2 22.0 22.35 21.95 22.45 21.95 22.5 22.05 22.4 22.05 Q22.35 22.05 22.3 22.05 22.35 22.15 22.5 22.15 L22.55 22.15 22.6 22.15 22.45 22.2 22.3 22.15 Q22.25 22.15 22.25 22.2 L22.25 22.25 22.4 22.25 22.5 22.3 22.6 22.25 Q22.65 22.25 22.65 22.35 L22.35 22.3 Q22.3 22.35 22.35 22.35 L22.4 22.35 22.65 22.4 22.85 22.4 22.9 22.4 Q23.0 22.4 23.05 22.45 L23.0 22.5 22.95 22.5 Q22.95 22.45 22.9 22.5 L22.85 22.5 22.8 22.45 Q22.75 22.45 22.8 22.5 22.7 22.6 22.7 22.7 L22.7 22.65 Q22.75 22.7 22.7 22.7 L22.65 22.75 22.6 22.75 22.55 22.7 Q22.65 22.6 22.65 22.45 L22.6 22.55 22.6 22.65 22.55 22.6 22.5 22.6 22.5 22.5 22.5 22.5 22.45 22.55 22.4 22.5 22.45 22.45 Q22.4 22.45 22.35 22.55 22.3 22.6 22.3 22.7 L22.25 22.65 22.2 22.7 Q22.2 22.75 22.15 22.7 L22.25 22.6 22.25 22.45 22.2 22.5 22.1 22.6 22.15 22.5 Q22.15 22.5 22.1 22.5 L22.05 22.5 22.0 22.6 22.0 22.5 21.9 22.65 21.9 22.6 Q21.85 22.5 21.8 22.55 L21.75 22.5 21.65 22.5 21.75 22.35 21.85 22.2 21.8 22.15 Q21.75 22.1 21.75 22.15 L21.8 22.2 21.65 22.35 21.55 22.55 21.45 22.55 21.7 22.2 Q21.55 22.25 21.5 22.4 21.4 22.55 21.4 22.7 L21.2 22.8 20.95 22.85 21.0 22.8 21.05 22.8 21.0 22.75 21.0 22.7 21.05 22.55 21.05 22.6 21.1 22.6 Q21.1 22.55 21.2 22.55 L21.3 22.5 21.25 22.5 21.2 22.5 21.2 22.45 21.15 22.45 21.1 22.45 21.25 22.2 21.2 22.25 21.2 22.2 21.15 22.15 Q21.15 22.15 21.1 22.15 L21.05 22.1 21.05 22.05 21.1 22.05 21.15 22.05 21.2 22.0 21.2 22.05 21.3 22.1 21.35 22.05 21.4 21.95 22.1 21.95 M21.1 22.6 L21.1 22.6 M21.35 22.15 L21.4 22.2 21.4 22.15 Q21.3 22.15 21.3 22.15 L21.35 22.15 M21.95 22.15 L21.9 22.15 21.95 22.2 21.95 22.15 M21.35 22.5 L21.3 22.6 21.25 22.7 21.3 22.65 21.35 22.55 21.35 22.5 M21.45 22.35 L21.4 22.35 21.4 22.4 21.45 22.35" fill="#b9843d" fill-rule="evenodd" stroke="none"/>
    <path d="M21.4 21.95 L21.35 22.05 21.3 22.1 21.2 22.05 21.2 22.0 21.15 22.05 21.1 22.05 21.05 22.05 21.05 22.1 21.1 22.15 Q21.15 22.15 21.15 22.15 L21.2 22.2 21.2 22.25 21.05 22.45 20.95 22.6 20.9 22.65 20.85 22.7 20.75 22.75 20.7 22.7 Q20.8 22.7 20.9 22.55 L21.0 22.3 21.0 22.25 20.95 22.2 20.95 22.15 20.9 22.2 20.85 22.25 20.85 22.1 20.9 21.95 21.1 21.95 Q21.2 22.0 21.1 21.95 L21.4 21.95" fill="#a16c35" fill-rule="evenodd" stroke="none"/>
    <path d="M22.9 21.8 L22.75 21.75 22.65 21.75 22.65 21.8 22.6 21.8 22.55 21.75 Q22.5 21.7 22.5 21.7 22.45 21.75 22.45 21.8 L22.5 21.85 22.4 21.85 22.3 21.85 22.15 21.8 21.95 21.85 21.9 21.85 21.75 21.85 21.6 21.85 21.65 21.75 21.55 21.75 21.5 21.7 22.2 21.7 22.85 21.7 22.9 21.75 22.9 21.8" fill="#9d7a49" fill-rule="evenodd" stroke="none"/>
    <path d="M20.7 21.85 L20.9 21.85 21.1 21.85 21.2 21.85 21.55 21.85 21.6 21.85 Q21.6 21.9 21.5 21.9 L21.35 21.9 Q21.3 21.85 21.1 21.9 L20.85 21.9 20.75 21.85 Q20.7 21.9 20.7 21.85" fill="#45351f" fill-rule="evenodd" stroke="none"/>
    <path d="M20.9 21.7 L21.1 21.7 21.05 21.75 21.1 21.85 20.9 21.85 20.85 21.8 Q20.8 21.75 20.85 21.75 L20.95 21.75 20.9 21.7" fill="#a97a3d" fill-rule="evenodd" stroke="none"/>
    <path d="M20.55 21.95 L20.65 21.95 20.6 22.1 20.5 22.25 20.5 22.1 20.45 22.1 20.5 22.0 20.55 22.0 20.6 22.0 20.55 21.95" fill="#876a35" fill-rule="evenodd" stroke="none"/>
    <path d="M20.65 21.95 L21.1 21.95 Q21.2 22.0 21.1 21.95 L20.9 21.95 20.85 22.1 20.85 22.25 20.75 22.2 20.7 22.25 20.75 22.25 20.8 22.25 20.75 22.25 20.7 22.35 20.55 22.35 Q20.5 22.4 20.45 22.5 20.4 22.4 20.4 22.3 L20.45 22.2 20.45 22.1 20.5 22.1 20.5 22.25 20.6 22.1 20.65 21.95" fill="#6c6132" fill-rule="evenodd" stroke="none"/>
    <path d="M20.9 22.2 L20.95 22.15 20.95 22.2 21.0 22.25 21.0 22.3 20.9 22.45 20.8 22.4 Q20.75 22.35 20.8 22.3 20.85 22.25 20.95 22.3 20.95 22.3 20.95 22.25 L20.9 22.2" fill="#ba8740" fill-rule="evenodd" stroke="none"/>
    <path d="M20.7 22.35 L20.75 22.25 20.8 22.25 20.85 22.25 20.9 22.2 20.95 22.25 Q20.95 22.3 20.95 22.3 20.85 22.25 20.8 22.3 20.75 22.35 20.8 22.4 L20.75 22.5 20.7 22.6 Q20.55 22.6 20.6 22.5 L20.65 22.45 20.7 22.35" fill="#81723d" fill-rule="evenodd" stroke="none"/>
    <path d="M20.8 22.25 L20.75 22.25 20.7 22.25 20.75 22.2 20.85 22.25 20.8 22.25" fill="#282211" fill-rule="evenodd" stroke="none"/>
    <path d="M20.8 22.4 L20.9 22.45 20.8 22.6 Q20.7 22.7 20.6 22.7 L20.65 22.6 20.75 22.6 20.8 22.5 20.8 22.4" fill="#996d36" fill-rule="evenodd" stroke="none"/>
    <path d="M20.7 22.6 L20.75 22.5 20.8 22.4 20.8 22.5 20.75 22.6 20.7 22.6" fill="#231809" fill-rule="evenodd" stroke="none"/>
    <path d="M21.1 22.45 L21.15 22.45 21.2 22.45 21.2 22.5 21.25 22.5 21.3 22.5 21.2 22.55 Q21.1 22.55 21.1 22.6 L21.05 22.6 21.05 22.55 21.1 22.45" fill="#765128" fill-rule="evenodd" stroke="none"/>
    <path d="M21.2 22.25 L21.25 22.2 21.1 22.45 21.05 22.55 21.0 22.7 20.95 22.7 20.95 22.6 21.05 22.45 21.2 22.25" fill="#1b1006" fill-rule="evenodd" stroke="none"/>
    <path d="M21.0 22.3 L20.9 22.55 Q20.8 22.7 20.7 22.7 L20.55 22.7 20.6 22.7 Q20.7 22.7 20.8 22.6 L20.9 22.45 21.0 22.3" fill="#100a04" fill-rule="evenodd" stroke="none"/>
    <path d="M20.45 22.5 Q20.5 22.4 20.55 22.35 L20.7 22.35 Q20.6 22.35 20.55 22.45 L20.45 22.6 20.45 22.5" fill="#141409" fill-rule="evenodd" stroke="none"/>
    <path d="M20.7 22.7 L20.75 22.75 20.85 22.7 20.9 22.65 20.95 22.6 20.95 22.7 Q20.9 22.7 20.85 22.75 L20.8 22.85 20.9 22.9 21.0 22.9 21.05 22.95 21.05 23.0 21.15 23.05 21.35 23.05 21.35 23.15 21.2 23.1 21.05 23.1 Q21.0 23.1 21.0 23.2 L20.95 23.3 20.95 23.35 21.0 23.3 21.0 23.35 20.95 23.35 20.9 23.4 Q20.85 23.45 20.8 23.4 20.75 23.4 20.75 23.35 L20.85 23.2 Q20.85 23.15 20.9 23.2 L20.9 23.25 20.9 23.15 20.8 23.1 Q20.75 23.05 20.7 23.05 L20.65 23.1 20.7 23.1 20.6 23.1 Q20.55 23.05 20.6 23.0 L20.75 23.0 20.8 22.95 Q20.85 22.95 20.85 22.95 L20.9 23.0 Q21.0 23.05 21.0 23.0 L21.0 22.95 20.9 22.95 20.85 22.9 20.75 22.9 20.7 22.9 20.7 22.85 20.65 22.8 Q20.55 22.8 20.6 22.8 L20.65 22.75 20.7 22.7" fill="#b3823f" fill-rule="evenodd" stroke="none"/>
    <path d="M20.7 22.85 L20.7 22.9 20.75 22.9 20.85 22.9 20.9 22.95 21.0 22.95 21.0 23.0 Q21.0 23.05 20.9 23.0 L20.85 22.95 Q20.85 22.95 20.8 22.95 L20.75 23.0 20.6 23.0 Q20.55 23.05 20.6 23.1 L20.7 23.1 20.65 23.2 Q20.65 23.15 20.55 23.15 L20.4 23.2 20.3 23.3 20.25 23.4 20.25 23.35 20.2 23.3 20.2 23.25 20.2 23.1 20.35 23.15 20.5 23.15 20.55 23.0 20.55 22.9 20.65 22.9 20.7 22.85" fill="#987039" fill-rule="evenodd" stroke="none"/>
    <path d="M21.1 22.6 L21.1 22.6" fill="#30210d" fill-rule="evenodd" stroke="none"/>
    <path d="M21.0 22.7 L21.0 22.75 21.05 22.8 21.0 22.8 20.95 22.85 21.2 22.8 21.4 22.7 21.5 22.7 Q21.5 22.65 21.55 22.7 L21.55 22.65 21.6 22.6 21.7 22.6 21.8 22.55 Q21.85 22.5 21.9 22.6 L21.9 22.65 21.9 22.7 21.85 22.8 21.9 22.95 Q21.9 23.1 21.8 23.05 L21.8 23.0 21.7 23.15 21.65 23.35 21.7 23.25 21.75 23.15 21.9 23.15 21.85 23.25 21.8 23.35 21.85 23.25 21.85 23.2 21.95 23.25 21.9 23.25 Q21.9 23.35 21.95 23.35 L22.0 23.35 22.05 23.25 22.1 23.25 22.1 23.2 22.1 23.3 22.15 23.25 22.15 23.15 22.2 23.15 22.25 23.15 22.2 23.25 22.2 23.3 22.2 23.35 22.25 23.35 22.3 23.25 22.4 23.15 22.5 23.15 22.6 23.15 22.55 23.25 Q22.5 23.3 22.5 23.35 L22.6 23.25 22.65 23.15 22.65 23.3 22.7 23.15 22.8 23.15 22.85 23.2 22.8 23.25 22.9 23.15 22.95 23.2 23.0 23.15 23.0 23.2 22.95 23.35 23.05 23.25 23.05 23.3 Q23.05 23.35 23.1 23.35 L23.15 23.3 23.3 23.5 23.15 23.65 23.05 23.75 22.85 23.75 22.65 23.8 22.7 23.85 Q22.65 23.85 22.65 23.9 L22.75 23.95 22.75 23.9 22.8 23.9 22.85 23.85 22.95 23.85 22.95 23.8 23.0 23.85 23.0 23.9 23.05 23.9 23.1 23.85 23.15 23.8 Q23.2 23.7 23.25 23.75 23.2 23.8 23.15 23.9 L23.15 24.0 Q23.1 24.05 23.2 24.1 23.25 24.1 23.2 24.15 L23.1 24.15 Q23.05 24.15 23.0 24.1 L23.0 24.05 23.05 24.0 23.0 23.95 22.95 23.95 22.95 24.1 22.85 24.0 Q22.85 24.0 22.8 24.0 L22.65 24.25 22.7 24.25 22.75 24.25 Q22.65 24.3 22.65 24.4 L22.7 24.6 Q22.65 24.55 22.6 24.6 L22.55 24.65 22.6 24.65 22.6 24.7 22.55 24.7 22.5 24.7 22.5 24.6 22.4 24.6 22.3 24.6 Q22.2 24.5 22.15 24.5 L22.15 24.4 Q22.1 24.35 22.1 24.45 L22.1 24.55 22.05 24.65 Q21.95 24.75 21.85 24.7 L21.95 24.65 22.0 24.55 Q21.9 24.5 21.85 24.5 21.75 24.5 21.7 24.55 L21.65 24.55 21.55 24.55 Q21.45 24.5 21.5 24.45 L21.55 24.35 21.5 24.3 21.45 24.25 21.4 24.2 21.5 24.15 21.55 24.1 21.65 24.05 21.7 24.0 21.75 23.95 21.8 23.9 21.85 23.9 Q21.8 23.95 21.85 23.95 L21.85 23.9 Q21.9 23.85 21.9 23.9 21.9 23.95 21.95 23.9 L21.95 23.8 22.05 23.8 22.15 23.9 22.2 23.9 22.25 23.9 22.3 23.9 22.3 23.95 22.35 23.9 22.4 23.9 Q22.35 23.95 22.4 23.9 L22.45 23.85 22.55 23.75 22.6 23.7 22.65 23.6 22.6 23.55 22.25 23.5 22.1 23.55 22.0 23.6 21.95 23.55 21.9 23.55 21.9 23.6 21.85 23.7 21.75 23.65 21.75 23.6 21.7 23.6 21.5 23.6 21.4 23.55 21.3 23.55 21.2 23.55 21.15 23.5 Q21.05 23.5 21.0 23.55 L20.9 23.55 20.85 23.55 Q20.75 23.55 20.8 23.6 20.8 23.7 20.7 23.7 20.6 23.7 20.6 23.6 20.55 23.55 20.6 23.5 L20.65 23.4 20.65 23.35 20.65 23.25 20.7 23.15 20.8 23.2 20.8 23.25 20.75 23.35 Q20.75 23.4 20.8 23.4 20.85 23.45 20.9 23.4 L20.95 23.35 21.0 23.35 21.0 23.3 21.05 23.1 21.2 23.1 21.35 23.15 21.25 23.3 21.2 23.45 21.3 23.25 21.4 23.05 21.35 23.05 21.15 23.05 21.05 23.0 21.05 22.95 21.0 22.9 20.9 22.9 20.8 22.85 20.85 22.75 Q20.9 22.7 20.95 22.7 L21.0 22.7 M21.6 23.2 Q21.65 23.15 21.6 23.15 L21.55 23.2 21.55 23.25 21.6 23.2 M21.4 23.05 L21.45 23.0 21.4 23.0 21.4 23.05 M21.35 23.35 L21.4 23.25 21.4 23.25 Q21.35 23.3 21.35 23.35 M21.45 23.25 Q21.45 23.3 21.45 23.3 L21.5 23.2 21.55 23.15 21.45 23.25 M21.75 23.25 L21.75 23.25 21.8 23.2 21.75 23.25 M21.55 23.35 L21.55 23.3 21.5 23.45 21.55 23.35 M22.25 23.35 Q22.2 23.4 22.2 23.4 L22.25 23.35 M22.95 23.85 L22.9 23.95 22.95 23.9 22.95 23.85 M22.8 23.15 L22.75 23.2 22.7 23.3 22.75 23.25 22.8 23.15 M22.65 23.3 L22.6 23.35 22.55 23.45 22.6 23.35 22.65 23.3 M22.95 23.2 L22.9 23.25 22.85 23.35 22.95 23.25 22.95 23.2 M22.85 23.6 Q22.9 23.7 22.95 23.65 23.0 23.6 22.95 23.55 L22.85 23.5 22.85 23.6 M22.5 23.9 L22.5 23.9 22.55 23.8 22.5 23.9 M22.55 23.95 L22.6 23.9 22.65 23.8 22.55 23.95" fill="#c79246" fill-rule="evenodd" stroke="none"/>
    <path d="M21.55 22.55 L21.65 22.35 21.8 22.2 21.75 22.15 Q21.75 22.1 21.8 22.15 L21.85 22.2 21.75 22.35 21.65 22.5 21.6 22.6 21.55 22.65 21.55 22.7 21.55 22.55" fill="#181106" fill-rule="evenodd" stroke="none"/>
    <path d="M21.65 22.5 L21.75 22.5 21.8 22.55 21.7 22.6 21.6 22.6 21.65 22.5" fill="#936f37" fill-rule="evenodd" stroke="none"/>
    <path d="M21.4 22.7 Q21.4 22.55 21.5 22.4 21.55 22.25 21.7 22.2 L21.45 22.55 Q21.4 22.65 21.4 22.7" fill="#160f05" fill-rule="evenodd" stroke="none"/>
    <path d="M21.35 22.15 L21.3 22.15 Q21.3 22.15 21.4 22.15 L21.4 22.2 21.35 22.15" fill="#36210d" fill-rule="evenodd" stroke="none"/>
    <path d="M21.45 22.35 L21.4 22.4 21.4 22.35 21.45 22.35" fill="#33240f" fill-rule="evenodd" stroke="none"/>
    <path d="M21.2 22.45 L21.2 22.5 21.2 22.45" fill="#040201" fill-rule="evenodd" stroke="none"/>
    <path d="M21.35 22.5 L21.35 22.55 21.3 22.65 21.25 22.7 21.3 22.6 21.35 22.5" fill="#1a1207" fill-rule="evenodd" stroke="none"/>
    <path d="M21.45 22.55 L21.55 22.55 21.55 22.7 Q21.5 22.65 21.5 22.7 L21.4 22.7 Q21.4 22.65 21.45 22.55" fill="#977036" fill-rule="evenodd" stroke="none"/>
    <path d="M23.2 21.7 L23.25 21.7 23.2 21.75 23.25 21.75 23.3 21.7 23.35 21.75 23.4 21.85 23.15 21.85 22.95 21.85 23.0 21.8 23.1 21.75 23.05 21.7 23.0 21.7 23.05 21.7 23.15 21.7 23.2 21.7" fill="#c3944c" fill-rule="evenodd" stroke="none"/>
    <path d="M22.8 21.85 L22.9 21.8 22.9 21.75 22.85 21.7 22.95 21.7 23.0 21.7 23.05 21.7 23.1 21.75 23.0 21.8 22.95 21.85 22.8 21.85" fill="#eec973" fill-rule="evenodd" stroke="none"/>
    <path d="M23.05 21.7 L23.15 21.7 23.2 21.7 23.15 21.7 23.05 21.7" fill="#91663e" fill-rule="evenodd" stroke="none"/>
    <path d="M22.65 21.75 L22.75 21.75 22.9 21.8 22.8 21.85 22.7 21.85 22.7 21.8 22.65 21.75" fill="#b9905f" fill-rule="evenodd" stroke="none"/>
    <path d="M23.4 21.85 L23.3 21.85 23.25 21.85 Q23.25 21.9 23.25 21.9 L23.3 21.9 23.35 21.9 23.4 21.9 Q23.45 21.9 23.45 21.9 L23.45 21.85 23.5 21.85 Q23.5 21.9 23.55 21.9 L23.6 21.85 23.6 21.9 Q23.6 21.85 23.7 21.85 L23.7 21.9 23.75 21.9 23.75 21.85 23.8 21.9 23.85 21.9 23.95 21.85 23.95 21.9 23.9 21.95 Q23.8 21.9 23.75 21.95 L23.6 22.15 23.55 22.15 23.55 22.1 Q23.6 22.0 23.65 22.0 L23.65 21.95 23.6 21.95 23.25 21.9 23.05 21.9 22.85 21.9 22.8 21.9 22.8 21.85 22.95 21.85 23.15 21.85 23.4 21.85" fill="#5a3f25" fill-rule="evenodd" stroke="none"/>
    <path d="M22.5 21.85 L22.45 21.8 Q22.45 21.75 22.5 21.7 22.5 21.7 22.55 21.75 L22.6 21.8 Q22.55 21.8 22.55 21.85 L22.5 21.85" fill="#cc9f5b" fill-rule="evenodd" stroke="none"/>
    <path d="M22.65 21.75 L22.7 21.8 22.7 21.85 22.55 21.85 Q22.55 21.8 22.6 21.8 L22.65 21.8 22.65 21.75" fill="#efcb7f" fill-rule="evenodd" stroke="none"/>
    <path d="M22.9 22.4 L22.85 22.4 22.85 22.35 22.9 22.3 22.75 22.25 22.65 22.25 22.65 22.15 22.6 22.05 22.7 22.05 Q22.75 22.0 22.7 21.95 L22.6 22.0 Q22.55 22.0 22.6 21.95 L22.85 21.95 22.9 21.95 23.0 21.95 22.95 21.95 22.9 22.0 22.95 22.1 23.0 22.2 23.35 22.15 Q23.5 22.05 23.6 21.95 L23.65 21.95 23.65 22.0 Q23.6 22.0 23.55 22.1 L23.55 22.15 23.6 22.15 23.75 21.95 Q23.8 21.9 23.9 21.95 L23.9 22.05 23.8 22.05 23.7 22.15 23.7 22.2 23.6 22.2 23.55 22.3 23.4 22.25 Q23.3 22.25 23.25 22.3 23.2 22.35 23.1 22.35 L22.9 22.4" fill="#705f36" fill-rule="evenodd" stroke="none"/>
    <path d="M22.85 22.4 L22.65 22.4 22.4 22.35 22.35 22.35 Q22.3 22.35 22.35 22.3 L22.65 22.35 Q22.65 22.25 22.6 22.25 L22.5 22.3 22.4 22.25 22.25 22.25 22.25 22.2 Q22.25 22.15 22.3 22.15 L22.45 22.2 22.6 22.15 22.55 22.15 22.5 22.15 Q22.35 22.15 22.3 22.05 22.35 22.05 22.4 22.05 L22.5 22.05 22.45 21.95 22.35 21.95 22.2 22.0 22.1 21.95 22.6 21.95 Q22.55 22.0 22.6 22.0 L22.7 21.95 Q22.75 22.0 22.7 22.05 L22.6 22.05 22.65 22.15 22.65 22.25 22.75 22.25 22.9 22.3 22.85 22.35 22.85 22.4" fill="#8a723a" fill-rule="evenodd" stroke="none"/>
    <path d="M23.25 21.7 L23.45 21.7 23.65 21.7 23.6 21.7 23.55 21.7 23.65 21.8 23.55 21.8 Q23.5 21.8 23.55 21.85 L23.5 21.85 23.45 21.85 23.4 21.85 23.4 21.9 Q23.35 21.85 23.3 21.9 L23.25 21.9 Q23.25 21.9 23.25 21.85 L23.3 21.85 23.4 21.85 23.35 21.75 23.3 21.7 23.25 21.75 23.2 21.75 23.25 21.7" fill="#ad703c" fill-rule="evenodd" stroke="none"/>
    <path d="M23.0 21.95 L23.25 21.9 23.6 21.95 Q23.5 22.05 23.35 22.15 L23.0 22.2 22.95 22.1 22.9 22.0 22.95 21.95 23.0 21.95" fill="#9f783c" fill-rule="evenodd" stroke="none"/>
    <path d="M21.9 21.85 L21.95 21.85 22.15 21.8 22.3 21.85 22.3 21.9 22.2 21.9 22.1 21.9 Q21.95 21.9 21.9 21.85" fill="#4c3725" fill-rule="evenodd" stroke="none"/>
    <path d="M22.25 22.45 L22.25 22.6 22.15 22.7 Q22.15 22.65 22.2 22.55 L22.25 22.45" fill="#1b1207" fill-rule="evenodd" stroke="none"/>
    <path d="M22.45 22.55 L22.5 22.5 22.5 22.5 22.5 22.6 22.45 22.65 22.4 22.7 22.45 22.55" fill="#1d1307" fill-rule="evenodd" stroke="none"/>
    <path d="M22.3 22.7 Q22.3 22.6 22.35 22.55 22.4 22.45 22.45 22.45 L22.4 22.5 22.35 22.6 22.3 22.7" fill="#241709" fill-rule="evenodd" stroke="none"/>
    <path d="M22.0 22.6 L22.05 22.5 22.1 22.5 22.05 22.6 22.0 22.7 22.1 22.65 22.1 22.6 22.2 22.5 22.25 22.45 22.2 22.55 Q22.15 22.65 22.15 22.7 22.2 22.75 22.2 22.7 L22.25 22.65 22.3 22.7 22.35 22.6 22.4 22.5 22.45 22.55 22.4 22.7 22.45 22.65 22.5 22.6 22.55 22.6 22.6 22.65 22.55 22.7 22.6 22.75 22.65 22.75 22.7 22.7 Q22.75 22.7 22.7 22.65 L22.75 22.55 22.8 22.5 Q22.75 22.45 22.8 22.45 L22.85 22.5 22.9 22.5 22.85 22.6 22.8 22.7 22.9 22.6 22.95 22.5 23.0 22.5 22.95 22.55 Q22.95 22.6 22.95 22.65 L23.05 22.5 Q23.1 22.5 23.15 22.45 23.1 22.55 23.05 22.7 L23.15 22.6 23.2 22.45 23.3 22.45 23.25 22.55 23.2 22.6 23.15 22.65 23.2 22.7 23.2 22.75 23.15 22.8 23.1 22.85 Q23.05 22.9 23.1 22.95 L23.2 23.0 23.25 22.9 23.25 22.8 23.4 22.95 Q23.5 23.05 23.5 23.15 L23.4 23.15 Q23.35 23.15 23.35 23.15 L23.45 23.2 23.55 23.2 23.55 23.35 Q23.5 23.45 23.4 23.45 L23.3 23.35 23.25 23.25 23.25 23.15 23.2 23.15 23.1 23.15 Q23.05 23.1 23.0 23.15 L22.95 23.2 22.95 23.15 22.85 23.15 22.8 23.05 22.55 23.1 22.4 23.1 22.25 23.1 22.15 23.1 22.05 23.05 22.0 23.1 21.95 23.1 21.9 23.1 21.9 23.15 21.75 23.15 21.8 23.05 Q21.9 23.1 21.9 22.95 L21.85 22.8 21.9 22.7 21.95 22.65 22.0 22.6" fill="#c58c41" fill-rule="evenodd" stroke="none"/>
    <path d="M21.95 22.15 L21.95 22.2 21.9 22.15 21.95 22.15" fill="#1b1206" fill-rule="evenodd" stroke="none"/>
    <path d="M22.1 22.5 Q22.15 22.5 22.15 22.5 L22.1 22.6 22.1 22.65 22.0 22.7 22.05 22.6 22.1 22.5" fill="#1c1306" fill-rule="evenodd" stroke="none"/>
    <path d="M21.9 22.65 L22.0 22.5 22.0 22.6 21.95 22.65 21.9 22.7 21.9 22.65" fill="#1a1206" fill-rule="evenodd" stroke="none"/>
    <path d="M23.0 22.5 L23.05 22.45 23.05 22.5 22.95 22.65 Q22.95 22.6 22.95 22.55 L23.0 22.5" fill="#201508" fill-rule="evenodd" stroke="none"/>
    <path d="M23.05 22.45 Q23.0 22.4 22.9 22.4 L23.1 22.35 Q23.2 22.35 23.25 22.3 23.3 22.25 23.4 22.25 L23.55 22.3 23.45 22.4 23.4 22.4 23.35 22.45 23.3 22.45 23.2 22.45 23.15 22.45 Q23.1 22.5 23.05 22.5 L23.05 22.45" fill="#83773e" fill-rule="evenodd" stroke="none"/>
    <path d="M23.2 22.45 L23.15 22.6 23.05 22.7 Q23.1 22.55 23.15 22.45 L23.2 22.45 M22.85 23.2 L22.85 23.15 22.9 23.15 22.8 23.25 22.85 23.2" fill="#241909" fill-rule="evenodd" stroke="none"/>
    <path d="M22.6 22.65 L22.6 22.55 22.65 22.45 Q22.65 22.6 22.55 22.7 L22.6 22.65" fill="#201207" fill-rule="evenodd" stroke="none"/>
    <path d="M22.7 22.65 L22.7 22.7 Q22.7 22.6 22.8 22.5 L22.75 22.55 22.7 22.65 M21.65 23.9 L21.75 23.8 21.7 23.9 Q21.65 23.9 21.65 23.9" fill="#191005" fill-rule="evenodd" stroke="none"/>
    <path d="M22.9 22.5 Q22.95 22.45 22.95 22.5 L22.9 22.6 22.8 22.7 22.85 22.6 22.9 22.5" fill="#231709" fill-rule="evenodd" stroke="none"/>
    <path d="M23.2 22.75 L23.2 22.7 23.15 22.65 23.2 22.6 23.25 22.55 23.2 22.6 23.25 22.7 23.2 22.75" fill="#754f23" fill-rule="evenodd" stroke="none"/>
    <path d="M23.55 23.2 L23.45 23.2 23.35 23.15 Q23.35 23.15 23.4 23.15 L23.5 23.15 Q23.5 23.05 23.4 22.95 L23.25 22.8 23.25 22.9 23.2 23.0 23.1 22.95 Q23.05 22.9 23.1 22.85 L23.15 22.8 23.2 22.75 23.25 22.7 23.35 22.45 23.4 22.4 23.45 22.4 23.4 22.55 23.35 22.7 23.4 22.55 23.5 22.4 23.6 22.45 23.6 22.35 23.6 22.45 23.65 22.5 23.65 22.55 23.6 22.55 Q23.55 22.6 23.6 22.65 L23.65 22.7 Q23.75 22.75 23.75 22.75 L23.8 22.85 23.9 22.8 23.9 22.85 Q23.9 22.9 23.9 23.0 L23.9 23.15 23.9 23.35 23.85 23.45 23.8 23.45 23.75 23.4 23.7 23.35 Q23.65 23.25 23.7 23.2 23.65 23.2 23.6 23.25 L23.55 23.25 23.55 23.2" fill="#aa6f38" fill-rule="evenodd" stroke="none"/>
    <path d="M23.25 22.55 L23.3 22.45 23.35 22.45 23.25 22.7 23.2 22.6 23.25 22.55" fill="#100b03" fill-rule="evenodd" stroke="none"/>
    <path d="M23.85 21.7 L24.0 21.7 24.1 21.75 24.05 21.85 Q24.0 21.9 23.95 21.85 L23.85 21.9 23.85 21.85 23.9 21.85 23.9 21.8 23.85 21.7 M24.0 21.7 L23.95 21.7 23.95 21.75 24.0 21.75 24.0 21.7" fill="#a8865d" fill-rule="evenodd" stroke="none"/>
    <path d="M24.0 21.7 L24.0 21.75 23.95 21.75 23.95 21.7 24.0 21.7" fill="#dbcaaf" fill-rule="evenodd" stroke="none"/>
    <path d="M24.15 21.9 L24.15 22.5 Q24.05 22.5 24.05 22.55 L24.05 22.75 24.0 22.8 24.0 22.0 24.05 22.0 24.15 21.9" fill="#a28059" fill-rule="evenodd" stroke="none"/>
    <path d="M24.1 21.75 L24.15 21.85 24.15 21.9 24.05 22.0 24.0 22.0 23.95 21.9 23.95 21.85 Q24.0 21.9 24.05 21.85 L24.1 21.75" fill="#deb574" fill-rule="evenodd" stroke="none"/>
    <path d="M23.8 21.7 L23.85 21.7 23.9 21.8 23.8 21.75 23.7 21.75 23.75 21.7 23.8 21.7" fill="#dcb684" fill-rule="evenodd" stroke="none"/>
    <path d="M23.65 21.7 L23.8 21.7 23.75 21.7 23.7 21.75 Q23.65 21.75 23.7 21.8 L23.75 21.85 23.7 21.85 Q23.6 21.85 23.6 21.9 L23.6 21.85 23.55 21.85 Q23.5 21.8 23.55 21.8 L23.65 21.8 23.55 21.7 23.6 21.7 23.65 21.7" fill="#c98e57" fill-rule="evenodd" stroke="none"/>
    <path d="M23.5 21.85 L23.55 21.85 23.6 21.85 23.55 21.9 Q23.5 21.9 23.5 21.85" fill="#fbe5b8" fill-rule="evenodd" stroke="none"/>
    <path d="M23.4 21.9 L23.4 21.85 23.45 21.85 23.45 21.9 Q23.45 21.9 23.4 21.9" fill="#f9dcae" fill-rule="evenodd" stroke="none"/>
    <path d="M23.3 21.9 Q23.35 21.85 23.4 21.9 L23.35 21.9 23.3 21.9" fill="#e9b05a" fill-rule="evenodd" stroke="none"/>
    <path d="M23.7 21.75 L23.8 21.75 23.9 21.8 23.9 21.85 23.85 21.85 23.75 21.8 23.7 21.8 Q23.65 21.75 23.7 21.75" fill="#f6dfa7" fill-rule="evenodd" stroke="none"/>
    <path d="M23.85 21.9 L23.8 21.9 23.75 21.85 23.75 21.9 23.75 21.85 23.7 21.8 23.75 21.8 23.85 21.85 23.85 21.9 23.85 21.85 23.8 21.85 Q23.8 21.85 23.8 21.9 L23.85 21.9" fill="#e8c06a" fill-rule="evenodd" stroke="none"/>
    <path d="M23.75 21.9 L23.7 21.9 23.7 21.85 23.75 21.85 23.75 21.9" fill="#fef6b9" fill-rule="evenodd" stroke="none"/>
    <path d="M23.9 22.2 L23.75 22.25 Q23.7 22.25 23.7 22.2 L23.7 22.15 23.8 22.05 23.9 22.05 23.9 22.2 M23.7 22.15 L23.7 22.15" fill="#aa7e3d" fill-rule="evenodd" stroke="none"/>
    <path d="M23.9 21.95 L23.95 21.9 24.0 22.0 24.0 22.8 24.0 23.1 24.0 23.15 24.0 23.25 24.0 23.35 24.0 23.7 24.0 23.8 24.0 24.0 24.0 24.1 24.0 24.45 24.0 24.55 24.0 24.7 24.0 24.85 24.0 25.05 24.0 25.4 24.0 25.65 24.0 25.7 24.0 25.9 24.0 26.0 24.0 26.25 24.0 26.55 24.0 26.7 24.0 27.0 23.95 27.05 23.75 27.05 23.6 27.05 23.55 27.05 23.35 27.05 22.4 27.05 21.4 27.05 21.3 27.05 20.95 27.05 20.5 27.05 20.4 27.05 20.35 27.05 20.1 27.05 19.85 27.05 19.75 27.0 20.65 27.0 21.5 27.0 21.55 26.95 21.75 26.95 21.95 27.0 22.15 27.0 22.2 27.0 22.5 27.0 22.75 27.0 22.8 27.0 23.35 27.0 23.9 27.0 23.9 26.65 23.95 26.55 23.9 26.4 23.9 26.35 23.9 26.25 23.9 26.2 23.9 26.1 23.9 25.7 23.95 25.55 23.9 25.4 23.95 25.2 Q23.95 25.1 23.9 25.1 L23.9 25.0 23.95 24.9 23.9 24.8 23.9 24.7 23.9 24.35 23.9 23.8 23.9 23.6 23.9 23.35 23.95 23.25 23.9 23.15 23.9 23.0 Q23.9 22.9 23.9 22.85 L23.9 22.6 23.9 22.2 23.9 22.05 23.9 21.95" fill="#0f0b07" fill-rule="evenodd" stroke="none"/>
    <path d="M23.9 22.3 L23.9 22.2 23.9 22.6 Q23.85 22.55 23.9 22.45 L23.9 22.3" fill="#3b2716" fill-rule="evenodd" stroke="none"/>
    <path d="M23.7 22.2 Q23.7 22.25 23.75 22.25 L23.9 22.2 23.9 22.3 23.75 22.25 23.6 22.3 23.7 22.2 M23.6 22.35 L23.6 22.45 23.5 22.4 23.6 22.3 23.6 22.35" fill="#8a6835" fill-rule="evenodd" stroke="none"/>
    <path d="M23.7 22.15 L23.7 22.15" fill="#231b0b" fill-rule="evenodd" stroke="none"/>
    <path d="M23.6 22.3 L23.75 22.25 23.9 22.3 23.9 22.45 Q23.85 22.55 23.9 22.6 23.9 22.65 23.9 22.7 L23.9 22.8 23.8 22.85 23.75 22.75 Q23.75 22.75 23.65 22.7 L23.6 22.65 Q23.55 22.6 23.6 22.55 L23.65 22.55 23.65 22.5 23.6 22.45 23.6 22.35 23.6 22.3" fill="#b9843f" fill-rule="evenodd" stroke="none"/>
    <path d="M23.7 22.2 L23.6 22.3 23.5 22.4 23.4 22.55 23.35 22.7 23.4 22.55 23.45 22.4 23.55 22.3 23.6 22.2 23.7 22.2" fill="#150f06" fill-rule="evenodd" stroke="none"/>
    <path d="M23.9 22.8 L23.9 22.7 Q23.9 22.65 23.9 22.6 L23.9 22.85 23.9 22.8" fill="#462f18" fill-rule="evenodd" stroke="none"/>
    <path d="M24.15 22.5 L24.15 22.6 24.1 22.6 24.1 22.7 24.05 22.8 Q24.05 22.85 24.15 22.85 L24.15 22.95 Q24.05 22.9 24.05 23.0 L24.0 23.1 24.0 22.8 24.05 22.75 24.05 22.55 Q24.05 22.5 24.15 22.5" fill="#d5b378" fill-rule="evenodd" stroke="none"/>
    <path d="M24.15 22.6 L24.15 22.85 Q24.05 22.85 24.05 22.8 L24.1 22.7 24.1 22.6 24.15 22.6" fill="#ecd3a3" fill-rule="evenodd" stroke="none"/>
    <path d="M24.15 22.95 L24.15 23.15 24.05 23.15 24.0 23.15 24.0 23.1 24.05 23.0 Q24.05 22.9 24.15 22.95" fill="#efd99c" fill-rule="evenodd" stroke="none"/>
    <path d="M24.15 23.15 L24.15 23.2 24.05 23.2 Q24.0 23.2 24.0 23.25 L24.0 23.15 24.05 23.15 24.15 23.15" fill="#bb9c6b" fill-rule="evenodd" stroke="none"/>
    <path d="M24.15 23.2 L24.15 23.45 24.1 23.45 24.1 23.4 Q24.1 23.3 24.05 23.35 L24.05 23.4 24.0 23.35 24.0 23.25 Q24.0 23.2 24.05 23.2 L24.15 23.2" fill="#886647" fill-rule="evenodd" stroke="none"/>
    <path d="M24.15 23.45 L24.1 23.5 24.15 23.55 24.15 23.7 24.1 23.65 24.1 23.75 24.15 23.8 24.05 23.8 24.05 23.75 Q24.1 23.7 24.05 23.7 L24.0 23.7 24.0 23.35 24.05 23.4 24.05 23.35 Q24.1 23.3 24.1 23.4 L24.1 23.45 24.15 23.45" fill="#9f7f5c" fill-rule="evenodd" stroke="none"/>
    <path d="M24.15 23.7 L24.15 23.8 24.1 23.75 24.1 23.65 24.15 23.7" fill="#dbc69e" fill-rule="evenodd" stroke="none"/>
    <path d="M24.15 23.8 L24.15 23.9 24.1 23.9 24.05 23.9 24.05 23.85 Q24.05 23.8 24.0 23.8 L24.0 23.7 24.05 23.7 Q24.1 23.7 24.05 23.75 L24.05 23.8 24.15 23.8" fill="#e6c591" fill-rule="evenodd" stroke="none"/>
    <path d="M24.15 23.9 L24.15 24.05 24.05 24.1 24.05 24.0 24.0 24.0 24.0 23.8 Q24.05 23.8 24.05 23.85 L24.05 23.9 24.1 23.9 24.15 23.9" fill="#a58569" fill-rule="evenodd" stroke="none"/>
    <path d="M23.9 23.35 L23.9 23.15 23.95 23.25 23.9 23.35" fill="#472b1d" fill-rule="evenodd" stroke="none"/>
    <path d="M23.4 23.45 Q23.5 23.45 23.55 23.35 L23.55 23.2 23.55 23.25 23.6 23.25 Q23.65 23.2 23.7 23.2 23.65 23.25 23.7 23.35 L23.75 23.4 23.8 23.45 23.85 23.45 23.9 23.35 23.9 23.6 23.85 23.55 23.85 23.5 Q23.75 23.55 23.75 23.65 23.75 23.7 23.8 23.8 L23.7 23.8 Q23.65 23.8 23.65 23.85 L23.7 23.9 23.75 23.95 23.65 23.95 23.6 23.95 23.6 24.0 23.65 24.1 23.6 24.05 Q23.55 24.0 23.55 23.95 L23.5 23.9 23.45 23.85 Q23.4 23.85 23.4 23.9 L23.35 23.95 23.45 23.95 23.5 23.95 23.55 24.1 23.65 24.15 23.6 24.25 23.6 24.35 23.65 24.35 23.75 24.4 23.85 24.4 23.7 24.4 Q23.6 24.45 23.55 24.5 L23.45 24.45 23.35 24.45 23.4 24.5 23.5 24.55 23.4 24.6 Q23.4 24.6 23.4 24.65 L23.45 24.7 23.4 24.75 23.35 24.65 Q23.3 24.6 23.2 24.6 L23.1 24.55 22.95 24.55 23.1 24.5 Q23.2 24.45 23.2 24.45 23.15 24.4 23.2 24.35 L23.25 24.25 23.4 24.25 23.45 24.15 23.4 24.1 23.35 24.1 23.25 23.95 23.3 23.9 23.35 23.85 Q23.35 23.75 23.4 23.8 L23.5 23.85 23.55 23.8 23.55 23.7 23.45 23.7 Q23.4 23.7 23.4 23.65 L23.3 23.65 23.25 23.75 Q23.2 23.7 23.15 23.8 L23.1 23.85 23.05 23.9 23.1 23.8 23.0 23.85 22.95 23.8 Q22.95 23.8 23.0 23.8 L23.05 23.75 23.15 23.65 23.3 23.5 23.35 23.55 23.4 23.6 23.4 23.45 M23.7 23.5 L23.65 23.4 23.6 23.35 23.55 23.4 Q23.5 23.45 23.55 23.5 L23.55 23.6 23.6 23.6 23.7 23.65 23.7 23.6 23.75 23.55 23.7 23.5 M23.6 24.35 L23.55 24.25 23.45 24.25 23.45 24.35 Q23.4 24.4 23.45 24.45 L23.55 24.4 Q23.6 24.4 23.6 24.35" fill="#b87d3f" fill-rule="evenodd" stroke="none"/>
    <path d="M23.7 23.5 L23.75 23.55 23.7 23.6 23.7 23.65 23.6 23.6 23.55 23.6 23.55 23.5 Q23.5 23.45 23.55 23.4 L23.6 23.35 23.65 23.4 23.7 23.5" fill="#ab6d3a" fill-rule="evenodd" stroke="none"/>
    <path d="M23.25 23.15 L23.25 23.25 23.3 23.35 23.4 23.45 23.4 23.6 23.35 23.55 23.3 23.5 23.15 23.3 23.25 23.15" fill="#986036" fill-rule="evenodd" stroke="none"/>
    <path d="M23.35 23.85 Q23.4 23.7 23.25 23.75 L23.3 23.65 23.4 23.65 Q23.4 23.7 23.45 23.7 L23.55 23.7 23.55 23.8 23.5 23.85 23.4 23.8 Q23.35 23.75 23.35 23.85" fill="#c78f49" fill-rule="evenodd" stroke="none"/>
    <path d="M23.65 24.1 L23.7 24.15 23.65 24.15 23.55 24.1 23.5 23.95 23.45 23.95 23.35 23.95 23.4 23.9 Q23.4 23.85 23.45 23.85 L23.5 23.9 23.55 23.95 Q23.55 24.0 23.6 24.05 L23.65 24.1" fill="#a46b39" fill-rule="evenodd" stroke="none"/>
    <path d="M23.8 23.8 Q23.75 23.7 23.75 23.65 23.75 23.55 23.85 23.5 L23.85 23.55 23.9 23.6 23.9 23.85 23.8 23.85 Q23.8 23.85 23.8 23.8" fill="#ca954a" fill-rule="evenodd" stroke="none"/>
    <path d="M23.8 23.8 Q23.8 23.85 23.8 23.85 L23.9 23.85 23.9 23.95 23.8 23.95 23.75 23.95 23.7 23.9 23.65 23.85 Q23.65 23.8 23.7 23.8 L23.8 23.8" fill="#9e6e3c" fill-rule="evenodd" stroke="none"/>
    <path d="M23.9 23.85 L23.9 23.6 23.9 23.8 23.9 24.35 23.9 24.2 23.9 23.95 23.9 23.85" fill="#372917" fill-rule="evenodd" stroke="none"/>
    <path d="M23.9 23.95 L23.9 24.2 23.85 24.15 23.85 24.2 23.8 24.25 23.75 24.25 Q23.7 24.25 23.7 24.25 L23.65 24.35 23.6 24.35 23.6 24.25 23.65 24.15 23.7 24.15 23.65 24.1 23.6 24.0 23.6 23.95 23.65 23.95 23.75 23.95 23.8 23.95 23.9 23.95" fill="#c59549" fill-rule="evenodd" stroke="none"/>
    <path d="M23.9 24.4 L23.85 24.4 23.75 24.4 23.65 24.35 23.7 24.25 Q23.7 24.25 23.75 24.25 L23.8 24.25 23.85 24.2 23.85 24.15 23.9 24.2 23.9 24.35 23.9 24.4" fill="#99753f" fill-rule="evenodd" stroke="none"/>
    <path d="M22.75 24.25 L22.7 24.25 22.65 24.25 22.8 24.0 Q22.85 24.0 22.85 24.0 L22.95 24.1 22.95 23.95 23.0 23.95 23.05 24.0 23.0 24.05 23.0 24.1 Q23.05 24.15 23.1 24.15 L23.2 24.15 Q23.25 24.1 23.2 24.1 23.1 24.05 23.15 24.0 L23.15 23.9 Q23.2 23.8 23.25 23.75 23.4 23.7 23.35 23.85 L23.3 23.9 23.25 23.95 23.35 24.1 23.4 24.1 23.45 24.15 23.4 24.25 23.25 24.25 23.2 24.35 Q23.15 24.4 23.2 24.45 23.2 24.45 23.1 24.5 L22.95 24.55 23.1 24.55 23.2 24.6 Q23.3 24.6 23.35 24.65 L23.4 24.75 23.45 24.7 23.4 24.65 Q23.4 24.6 23.4 24.6 L23.5 24.55 23.4 24.5 23.35 24.45 23.45 24.45 23.55 24.5 Q23.6 24.45 23.7 24.4 L23.85 24.4 23.9 24.4 23.9 24.7 23.9 24.8 23.9 25.0 23.9 25.1 Q23.7 25.05 23.7 25.2 L23.65 25.2 23.6 25.2 23.5 25.1 23.5 25.2 Q23.55 25.25 23.5 25.35 23.45 25.5 23.5 25.55 L23.4 25.55 23.3 25.5 Q23.25 25.5 23.3 25.35 L23.25 25.3 23.2 25.3 23.15 25.25 23.15 25.15 Q23.2 25.0 23.15 24.95 23.05 25.0 23.1 25.05 L23.1 25.1 23.15 25.15 23.05 25.1 23.0 25.05 23.0 24.9 Q22.95 24.8 23.0 24.8 23.05 24.75 23.05 24.75 L23.1 24.7 23.0 24.7 22.95 24.8 Q22.9 24.85 22.9 24.8 L22.85 24.75 22.85 24.65 22.8 24.65 22.75 24.45 22.75 24.25 M23.5 25.2 L23.5 25.1 23.5 24.8 23.4 24.8 23.3 24.8 Q23.25 24.75 23.2 24.8 23.15 24.85 23.2 24.9 L23.2 25.1 Q23.2 25.2 23.25 25.25 L23.4 25.25 23.5 25.2" fill="#ce9b4d" fill-rule="evenodd" stroke="none"/>
    <path d="M23.6 24.35 Q23.6 24.4 23.55 24.4 L23.45 24.45 Q23.4 24.4 23.45 24.35 L23.45 24.25 23.55 24.25 23.6 24.35" fill="#9e6137" fill-rule="evenodd" stroke="none"/>
    <path d="M23.9 24.7 L23.9 24.4 23.9 24.35 23.9 24.7" fill="#645023" fill-rule="evenodd" stroke="none"/>
    <path d="M24.0 24.1 L24.0 24.0 24.05 24.0 24.05 24.1 Q24.15 24.15 24.05 24.15 L24.0 24.1" fill="#dcc092" fill-rule="evenodd" stroke="none"/>
    <path d="M24.15 24.05 L24.15 24.25 24.1 24.45 24.1 24.5 24.15 24.5 24.15 24.65 24.1 24.6 24.05 24.6 Q24.05 24.7 24.0 24.7 L24.0 24.55 24.05 24.5 24.05 24.4 24.0 24.45 24.0 24.1 24.05 24.15 Q24.15 24.15 24.05 24.1 L24.15 24.05" fill="#8f6b4c" fill-rule="evenodd" stroke="none"/>
    <path d="M24.0 24.55 L24.0 24.45 24.05 24.4 24.05 24.5 24.0 24.55" fill="#f3daa8" fill-rule="evenodd" stroke="none"/>
    <path d="M24.15 24.65 L24.15 24.75 24.1 24.85 24.05 24.85 Q24.05 24.9 24.0 24.9 L24.05 25.0 24.0 25.05 24.0 24.85 24.05 24.8 24.05 24.75 24.1 24.7 24.1 24.65 24.05 24.6 24.1 24.6 24.15 24.65" fill="#b3906a" fill-rule="evenodd" stroke="none"/>
    <path d="M24.05 24.6 L24.1 24.65 24.1 24.7 24.05 24.75 24.05 24.8 24.0 24.85 24.0 24.7 Q24.05 24.7 24.05 24.6" fill="#e6c794" fill-rule="evenodd" stroke="none"/>
    <path d="M23.2 23.15 L23.25 23.15 23.15 23.3 Q23.15 23.25 23.2 23.15" fill="#2f1e0b" fill-rule="evenodd" stroke="none"/>
    <path d="M23.0 23.15 Q23.05 23.1 23.1 23.15 L23.2 23.15 Q23.15 23.25 23.15 23.3 L23.1 23.35 Q23.05 23.35 23.05 23.3 L23.1 23.25 23.1 23.2 23.05 23.25 23.0 23.2 23.0 23.15" fill="#a97638" fill-rule="evenodd" stroke="none"/>
    <path d="M20.65 23.2 L20.7 23.1 Q20.75 23.1 20.75 23.1 L20.7 23.15 20.65 23.25 20.65 23.35 Q20.6 23.35 20.6 23.3 L20.65 23.2 M23.05 23.3 L23.05 23.25 23.1 23.2 23.1 23.25 23.05 23.3" fill="#2b1d0c" fill-rule="evenodd" stroke="none"/>
    <path d="M21.95 23.1 L22.0 23.1 22.05 23.15 22.05 23.05 22.15 23.1 22.25 23.1 22.4 23.1 22.55 23.1 22.8 23.05 22.85 23.15 22.95 23.15 22.95 23.2 22.9 23.15 22.85 23.15 22.85 23.2 22.8 23.15 22.7 23.15 22.65 23.15 22.6 23.15 22.5 23.15 22.4 23.15 22.3 23.2 22.3 23.25 22.25 23.35 22.2 23.35 22.2 23.3 22.25 23.2 Q22.3 23.15 22.25 23.15 L22.2 23.15 22.15 23.15 22.1 23.2 22.1 23.25 22.05 23.25 22.1 23.15 22.05 23.25 22.0 23.35 21.95 23.35 Q21.9 23.35 21.9 23.25 21.95 23.3 21.95 23.25 L22.0 23.15 21.95 23.25 21.85 23.2 21.95 23.1" fill="#ac803c" fill-rule="evenodd" stroke="none"/>
    <path d="M22.95 23.15 L22.95 23.2 22.95 23.15 M22.95 23.2 L22.95 23.25 22.85 23.35 22.9 23.25 22.95 23.2" fill="#2b200c" fill-rule="evenodd" stroke="none"/>
    <path d="M23.05 23.25 L22.95 23.35 23.0 23.2 23.05 23.25" fill="#2b1e0b" fill-rule="evenodd" stroke="none"/>
    <path d="M22.8 23.15 L22.75 23.25 22.7 23.3 22.75 23.2 22.8 23.15" fill="#291c0a" fill-rule="evenodd" stroke="none"/>
    <path d="M22.6 23.15 L22.65 23.15 22.6 23.25 22.5 23.35 Q22.5 23.3 22.55 23.25 L22.6 23.15" fill="#3a2b11" fill-rule="evenodd" stroke="none"/>
    <path d="M22.65 23.15 L22.7 23.15 22.65 23.3 22.65 23.15" fill="#2a1e0a" fill-rule="evenodd" stroke="none"/>
    <path d="M22.65 23.3 L22.6 23.35 22.55 23.45 22.6 23.35 22.65 23.3" fill="#30230d" fill-rule="evenodd" stroke="none"/>
    <path d="M22.85 23.6 L22.85 23.5 22.95 23.55 Q23.0 23.6 22.95 23.65 22.9 23.7 22.85 23.6" fill="#a4683e" fill-rule="evenodd" stroke="none"/>
    <path d="M21.9 23.8 Q21.9 23.75 21.85 23.7 21.85 23.7 21.95 23.7 L22.0 23.7 22.0 23.6 22.1 23.55 22.25 23.5 22.6 23.55 22.65 23.6 22.6 23.7 22.55 23.75 22.45 23.85 Q22.45 23.8 22.4 23.85 L22.4 23.9 22.35 23.9 22.4 23.75 22.5 23.6 22.45 23.65 22.4 23.7 22.3 23.7 Q22.2 23.7 22.2 23.7 22.2 23.8 22.25 23.8 L22.4 23.75 22.3 23.9 22.25 23.9 22.2 23.9 22.2 23.8 22.15 23.9 22.05 23.8 21.95 23.8 21.9 23.9 Q21.9 23.85 21.85 23.9 L21.9 23.8 M22.3 23.8 L22.25 23.85 22.3 23.85 22.3 23.8" fill="#985e37" fill-rule="evenodd" stroke="none"/>
    <path d="M22.65 23.9 Q22.65 23.85 22.7 23.85 22.75 23.75 22.7 23.85 L22.65 23.9" fill="#35210e" fill-rule="evenodd" stroke="none"/>
    <path d="M22.95 23.8 L22.95 23.85 22.85 23.85 22.8 23.9 22.8 23.85 22.85 23.8 Q22.8 23.8 22.75 23.85 L22.75 23.9 22.75 23.95 22.65 23.9 22.7 23.85 Q22.75 23.75 22.7 23.85 L22.65 23.8 22.85 23.75 23.05 23.75 23.0 23.8 Q22.95 23.8 22.95 23.8" fill="#966236" fill-rule="evenodd" stroke="none"/>
    <path d="M22.55 23.95 L22.65 23.8 22.6 23.9 22.55 23.95" fill="#37260f" fill-rule="evenodd" stroke="none"/>
    <path d="M22.8 23.9 L22.75 23.9 22.75 23.85 Q22.8 23.8 22.85 23.8 L22.8 23.85 22.8 23.9" fill="#2c1b0c" fill-rule="evenodd" stroke="none"/>
    <path d="M22.95 23.85 L22.95 23.9 22.9 23.95 22.95 23.85" fill="#2c1c0b" fill-rule="evenodd" stroke="none"/>
    <path d="M23.05 23.9 L23.0 23.9 23.0 23.85 23.1 23.8 23.05 23.9" fill="#38230e" fill-rule="evenodd" stroke="none"/>
    <path d="M22.25 23.15 Q22.3 23.15 22.25 23.2 L22.2 23.3 22.2 23.25 22.25 23.15" fill="#291d0b" fill-rule="evenodd" stroke="none"/>
    <path d="M22.25 23.35 L22.2 23.4 Q22.2 23.4 22.25 23.35" fill="#2e230e" fill-rule="evenodd" stroke="none"/>
    <path d="M22.3 23.25 L22.3 23.2 22.4 23.15 22.3 23.25" fill="#271b0a" fill-rule="evenodd" stroke="none"/>
    <path d="M22.15 23.15 L22.15 23.25 22.1 23.3 22.1 23.2 22.15 23.15" fill="#32230d" fill-rule="evenodd" stroke="none"/>
    <path d="M22.0 23.1 L22.05 23.05 22.05 23.15 22.0 23.1" fill="#583e19" fill-rule="evenodd" stroke="none"/>
    <path d="M21.9 23.15 L21.9 23.1 21.95 23.1 21.85 23.2 21.85 23.25 21.8 23.35 21.85 23.25 21.9 23.15" fill="#30230e" fill-rule="evenodd" stroke="none"/>
    <path d="M21.9 23.25 L21.95 23.25 22.0 23.15 21.95 23.25 Q21.95 23.3 21.9 23.25" fill="#271c0a" fill-rule="evenodd" stroke="none"/>
    <path d="M22.05 23.25 L22.0 23.35 22.05 23.25 22.1 23.15 22.05 23.25" fill="#372710" fill-rule="evenodd" stroke="none"/>
    <path d="M20.5 23.65 Q20.55 23.7 20.5 23.75 L20.45 23.8 Q20.45 23.9 20.55 23.9 L20.65 23.85 20.7 23.9 20.75 23.85 20.8 23.9 20.75 23.95 20.75 24.1 20.8 24.15 20.75 24.3 Q20.75 24.35 20.8 24.4 20.8 24.5 20.85 24.5 L21.0 24.5 Q21.0 24.4 21.1 24.35 L21.2 24.25 21.3 24.2 21.35 24.15 21.45 24.05 21.45 24.0 21.4 24.0 21.4 23.95 21.5 23.9 21.55 23.8 Q21.55 23.8 21.6 23.75 L21.75 23.7 21.7 23.65 21.6 23.65 Q21.6 23.6 21.55 23.6 L21.5 23.6 21.7 23.6 21.75 23.6 21.75 23.65 21.85 23.7 21.9 23.6 21.9 23.55 21.95 23.55 22.0 23.6 22.0 23.7 21.95 23.7 Q21.85 23.7 21.85 23.7 21.9 23.75 21.9 23.8 L21.85 23.9 21.8 23.9 21.8 23.8 21.75 23.8 21.65 23.9 21.6 23.95 Q21.55 24.0 21.6 24.0 21.65 23.95 21.65 23.95 L21.7 24.0 21.65 24.05 21.55 24.1 21.5 24.15 21.4 24.2 21.45 24.25 21.5 24.3 21.45 24.35 Q21.4 24.4 21.4 24.35 L21.35 24.3 Q21.3 24.3 21.3 24.35 L21.15 24.5 21.0 24.65 20.95 24.65 Q20.9 24.65 20.9 24.65 L20.8 24.7 Q20.7 24.7 20.75 24.65 L20.75 24.6 20.75 24.45 20.65 24.35 20.6 24.45 20.55 24.45 Q20.55 24.4 20.6 24.35 L20.7 24.25 20.65 24.2 20.65 24.1 Q20.7 24.05 20.6 24.05 L20.4 24.0 20.4 23.75 20.45 23.7 20.5 23.65" fill="#b17c3f" fill-rule="evenodd" stroke="none"/>
    <path d="M21.85 23.9 L21.9 23.8 21.85 23.9 21.85 23.95 Q21.8 23.95 21.85 23.9" fill="#2c1d0c" fill-rule="evenodd" stroke="none"/>
    <path d="M21.9 23.9 L21.95 23.8 21.95 23.9 Q21.9 23.95 21.9 23.9" fill="#2c1d0b" fill-rule="evenodd" stroke="none"/>
    <path d="M22.15 23.9 L22.2 23.8 22.2 23.9 22.15 23.9" fill="#1d1108" fill-rule="evenodd" stroke="none"/>
    <path d="M22.4 23.7 L22.45 23.65 22.5 23.6 22.4 23.75 22.35 23.9 22.3 23.95 22.3 23.9 22.4 23.75 22.4 23.7" fill="#23150a" fill-rule="evenodd" stroke="none"/>
    <path d="M22.3 23.8 L22.3 23.85 22.25 23.85 22.3 23.8" fill="#462919" fill-rule="evenodd" stroke="none"/>
    <path d="M22.4 23.75 L22.25 23.8 Q22.2 23.8 22.2 23.7 22.2 23.7 22.3 23.7 L22.4 23.7 22.4 23.75" fill="#af7b41" fill-rule="evenodd" stroke="none"/>
    <path d="M22.5 23.9 L22.55 23.8 22.5 23.9 22.5 23.9" fill="#3f2a12" fill-rule="evenodd" stroke="none"/>
    <path d="M22.4 23.9 L22.4 23.85 Q22.45 23.8 22.45 23.85 L22.4 23.9 Q22.35 23.95 22.4 23.9" fill="#1c1006" fill-rule="evenodd" stroke="none"/>
    <path d="M21.95 24.9 Q21.9 24.9 21.9 24.85 L21.95 24.75 21.85 24.8 21.8 24.8 21.8 24.7 Q21.75 24.65 21.8 24.6 L21.75 24.55 21.7 24.55 Q21.75 24.5 21.85 24.5 21.9 24.5 22.0 24.55 L21.95 24.65 21.85 24.7 Q21.95 24.75 22.05 24.65 L22.1 24.55 22.1 24.45 22.1 24.6 Q22.05 24.65 22.1 24.7 L22.05 24.8 21.95 24.9" fill="#b98442" fill-rule="evenodd" stroke="none"/>
    <path d="M22.1 24.8 L22.0 24.95 21.95 25.05 21.9 25.1 21.85 25.15 Q21.8 25.05 21.85 25.0 L21.95 24.9 22.05 24.8 22.1 24.7 Q22.05 24.65 22.1 24.6 L22.1 24.45 Q22.1 24.35 22.15 24.4 L22.15 24.5 22.2 24.65 22.15 24.75 22.2 24.75 Q22.15 24.75 22.1 24.8" fill="#8e6938" fill-rule="evenodd" stroke="none"/>
    <path d="M22.15 24.5 Q22.2 24.5 22.3 24.6 L22.4 24.6 22.5 24.6 22.5 24.7 22.55 24.7 22.6 24.7 22.6 24.65 22.55 24.65 22.6 24.6 Q22.65 24.55 22.7 24.6 L22.7 24.65 22.65 24.7 Q22.55 24.7 22.55 24.75 L22.5 24.8 22.6 24.8 22.6 24.85 Q22.55 24.85 22.5 24.9 L22.4 25.0 22.3 24.9 22.2 24.85 22.2 24.75 22.15 24.75 22.2 24.65 22.15 24.5" fill="#b08542" fill-rule="evenodd" stroke="none"/>
    <path d="M22.7 24.6 L22.65 24.4 Q22.65 24.3 22.75 24.25 L22.75 24.45 22.8 24.65 Q22.75 24.65 22.7 24.7 L22.65 24.8 22.6 24.8 22.5 24.8 22.55 24.75 Q22.55 24.7 22.65 24.7 L22.7 24.65 22.7 24.6" fill="#96743e" fill-rule="evenodd" stroke="none"/>
    <path d="M22.4 25.0 L22.5 24.9 Q22.55 24.85 22.6 24.85 L22.6 24.8 22.65 24.8 22.7 24.7 Q22.75 24.65 22.8 24.65 L22.85 24.65 22.85 24.75 22.85 24.8 22.75 24.85 22.65 24.9 Q22.65 24.95 22.65 25.0 L22.6 24.95 22.55 25.05 22.5 25.1 22.4 25.0 M22.85 24.7 L22.75 24.7 Q22.7 24.7 22.75 24.75 L22.75 24.8 22.8 24.8 22.85 24.7" fill="#332412" fill-rule="evenodd" stroke="none"/>
    <path d="M22.85 24.7 L22.8 24.8 22.75 24.8 22.75 24.75 Q22.7 24.7 22.75 24.7 L22.85 24.7" fill="#0a0804" fill-rule="evenodd" stroke="none"/>
    <path d="M22.85 24.75 L22.9 24.8 Q22.9 24.85 22.95 24.8 L23.0 24.7 23.1 24.7 23.05 24.75 Q23.05 24.75 23.0 24.8 22.95 24.8 23.0 24.9 L23.0 25.05 23.05 25.1 23.15 25.15 23.05 25.25 Q22.95 25.25 22.95 25.15 L23.0 25.05 23.0 24.95 22.95 24.95 22.85 25.0 Q22.8 25.05 22.75 25.0 L22.75 24.85 22.85 24.8 22.85 24.75" fill="#b38b48" fill-rule="evenodd" stroke="none"/>
    <path d="M23.5 25.2 L23.4 25.25 23.25 25.25 Q23.2 25.2 23.2 25.1 L23.2 24.9 Q23.15 24.85 23.2 24.8 23.25 24.75 23.3 24.8 L23.4 24.8 23.5 24.8 23.5 25.1 23.5 25.2" fill="#d6aa58" fill-rule="evenodd" stroke="none"/>
    <path d="M22.75 24.85 L22.75 25.0 Q22.8 25.05 22.85 25.0 L22.95 24.95 23.0 24.95 23.0 25.05 22.95 25.15 Q22.95 25.25 23.05 25.25 23.1 25.25 23.05 25.35 L23.0 25.4 22.95 25.3 22.95 25.2 Q22.9 25.2 22.85 25.25 L22.85 25.3 22.85 25.25 22.8 25.25 22.8 25.2 22.75 25.2 22.6 25.2 22.5 25.1 22.55 25.05 22.6 24.95 22.65 25.0 Q22.65 24.95 22.65 24.9 L22.75 24.85" fill="#846438" fill-rule="evenodd" stroke="none"/>
    <path d="M23.15 25.15 L23.1 25.1 23.1 25.05 Q23.05 25.0 23.15 24.95 23.2 25.0 23.15 25.15 L23.15 25.25 23.2 25.3 Q23.25 25.3 23.25 25.35 L23.25 25.45 Q23.15 25.45 23.15 25.3 L23.15 25.15" fill="#9c7740" fill-rule="evenodd" stroke="none"/>
    <path d="M22.85 25.3 L22.85 25.35 22.8 25.35 22.75 25.35 22.7 25.3 22.65 25.25 22.6 25.2 22.75 25.2 22.8 25.2 22.8 25.25 22.85 25.25 22.85 25.3" fill="#a97c3f" fill-rule="evenodd" stroke="none"/>
    <path d="M23.05 25.25 L23.15 25.15 23.15 25.3 Q23.15 25.45 23.25 25.45 L23.2 25.6 23.25 25.75 23.15 25.8 Q23.15 25.8 23.1 25.85 L23.05 25.95 22.9 25.95 22.75 26.0 22.65 26.0 22.6 26.0 22.55 26.0 22.45 26.0 22.3 26.0 22.1 25.75 Q22.2 25.7 22.15 25.65 22.1 25.6 22.0 25.6 L22.05 25.55 22.3 25.65 22.2 25.7 22.25 25.8 22.4 25.75 22.5 25.65 22.5 25.6 22.55 25.55 22.6 25.55 22.7 25.55 22.75 25.55 22.75 25.45 Q22.65 25.45 22.7 25.4 L22.75 25.35 22.8 25.35 22.85 25.35 22.85 25.3 22.85 25.25 Q22.9 25.2 22.95 25.2 L22.95 25.3 23.0 25.4 23.05 25.35 Q23.1 25.25 23.05 25.25" fill="#684e32" fill-rule="evenodd" stroke="none"/>
    <path d="M21.55 25.2 L21.65 25.3 21.8 25.45 21.9 25.55 21.85 25.6 21.75 25.5 21.8 25.6 21.75 25.6 21.7 25.55 21.4 25.25 21.3 25.2 21.4 25.15 21.4 25.05 21.5 25.15 21.55 25.2 M22.35 25.0 L22.3 24.95 22.2 24.85 22.3 24.9 22.4 25.0 22.5 25.1 22.6 25.2 22.65 25.25 22.7 25.3 22.55 25.2 22.45 25.1 22.35 25.0" fill="#120d07" fill-rule="evenodd" stroke="none"/>
    <path d="M22.75 25.35 L22.7 25.4 22.7 25.35 22.7 25.3 22.75 25.35" fill="#130d06" fill-rule="evenodd" stroke="none"/>
    <path d="M22.7 25.3 L22.7 25.35 Q22.7 25.45 22.6 25.45 22.55 25.5 22.5 25.5 22.45 25.45 22.4 25.4 L22.5 25.3 22.55 25.2 22.7 25.3" fill="#ba7c3e" fill-rule="evenodd" stroke="none"/>
    <path d="M22.7 25.4 Q22.65 25.45 22.75 25.45 L22.75 25.55 22.7 25.55 22.6 25.55 22.55 25.55 22.5 25.6 22.5 25.55 22.45 25.55 22.4 25.6 22.4 25.65 22.35 25.65 22.3 25.6 22.3 25.5 Q22.35 25.4 22.4 25.4 22.45 25.45 22.5 25.5 22.55 25.5 22.6 25.45 22.7 25.45 22.7 25.35 L22.7 25.4" fill="#9a723e" fill-rule="evenodd" stroke="none"/>
    <path d="M23.2 25.3 L23.25 25.3 23.3 25.35 Q23.25 25.5 23.3 25.5 L23.4 25.55 23.5 25.55 Q23.45 25.5 23.5 25.35 23.55 25.25 23.5 25.2 L23.5 25.1 23.6 25.2 23.65 25.2 23.7 25.2 Q23.7 25.05 23.9 25.1 L23.9 25.15 Q23.8 25.1 23.75 25.15 L23.7 25.25 Q23.6 25.25 23.6 25.3 L23.7 25.4 23.9 25.35 23.9 26.05 23.7 26.05 Q23.6 26.05 23.55 26.15 L23.55 26.2 23.5 26.15 23.5 26.0 Q23.5 25.95 23.4 25.9 L23.4 25.85 23.35 25.75 Q23.3 25.8 23.3 25.9 L23.3 26.0 23.3 26.1 23.35 26.2 23.3 26.25 23.3 26.3 23.2 26.35 23.1 26.35 Q23.1 26.2 23.25 26.15 23.2 26.1 23.15 26.1 23.1 26.1 23.05 26.15 L23.0 26.15 22.95 26.1 22.85 26.0 22.95 26.0 23.0 26.0 Q22.95 26.1 23.05 26.1 L23.1 26.1 23.15 26.1 23.25 26.0 Q23.3 25.9 23.2 25.85 L23.15 25.85 23.1 25.85 Q23.15 25.8 23.15 25.8 L23.25 25.75 23.2 25.6 23.25 25.45 23.25 25.35 Q23.25 25.3 23.2 25.3" fill="#be904b" fill-rule="evenodd" stroke="none"/>
    <path d="M22.35 25.1 L22.35 25.0 22.45 25.1 22.45 25.15 Q22.35 25.2 22.35 25.1" fill="#48371c" fill-rule="evenodd" stroke="none"/>
    <path d="M22.5 25.65 L22.4 25.75 22.25 25.8 22.2 25.7 22.3 25.65 22.05 25.55 22.25 25.35 22.45 25.15 22.45 25.1 22.55 25.2 22.5 25.3 22.4 25.4 Q22.35 25.4 22.3 25.5 L22.3 25.6 22.35 25.65 22.4 25.65 Q22.45 25.65 22.5 25.65" fill="#7b643b" fill-rule="evenodd" stroke="none"/>
    <path d="M22.2 25.25 L22.35 25.1 Q22.35 25.2 22.45 25.15 L22.25 25.35 22.05 25.55 22.0 25.6 21.9 25.55 Q21.9 25.5 21.95 25.45 L22.15 25.25 22.2 25.25 M22.05 25.55 L22.05 25.45 Q22.0 25.5 21.95 25.55 L22.05 25.55" fill="#110e07" fill-rule="evenodd" stroke="none"/>
    <path d="M21.05 24.65 L21.1 24.65 21.15 24.65 Q21.2 24.55 21.4 24.55 L21.55 24.6 21.65 24.55 21.7 24.55 21.75 24.55 21.8 24.6 Q21.75 24.65 21.8 24.7 L21.8 24.8 21.85 24.8 21.95 24.75 21.9 24.85 Q21.9 24.9 21.95 24.9 L21.85 25.0 Q21.8 25.05 21.85 25.15 L21.9 25.1 21.95 25.05 22.0 24.95 22.1 24.8 22.2 24.85 22.3 24.95 22.35 25.0 22.35 25.1 22.2 25.25 Q22.15 25.15 22.1 25.15 L21.95 25.2 21.9 25.25 21.8 25.3 21.75 25.3 21.65 25.3 21.55 25.2 21.6 25.15 21.65 25.1 21.65 24.95 Q21.65 24.85 21.55 24.85 L21.45 24.9 21.35 25.0 21.25 24.9 21.15 24.8 21.1 24.75 21.05 24.65 M21.55 24.85 L21.6 24.8 Q21.6 24.75 21.55 24.8 21.55 24.8 21.55 24.85 M22.15 25.0 L22.15 24.85 Q22.1 24.9 22.1 25.0 L22.1 25.1 22.15 25.1 22.15 25.0" fill="#ac763d" fill-rule="evenodd" stroke="none"/>
    <path d="M22.15 25.0 L22.15 25.1 22.1 25.1 22.1 25.0 Q22.1 24.9 22.15 24.85 L22.15 25.0" fill="#7b5d35" fill-rule="evenodd" stroke="none"/>
    <path d="M22.2 24.85 L22.1 24.8 Q22.15 24.75 22.2 24.75 L22.2 24.85" fill="#0e0b05" fill-rule="evenodd" stroke="none"/>
    <path d="M21.95 25.45 L21.9 25.4 Q21.85 25.35 21.95 25.3 L22.05 25.25 22.15 25.25 21.95 25.45" fill="#ba9851" fill-rule="evenodd" stroke="none"/>
    <path d="M21.65 25.3 L21.75 25.3 21.8 25.3 21.9 25.25 21.95 25.2 22.1 25.15 Q22.15 25.15 22.2 25.25 L22.15 25.25 22.05 25.25 21.95 25.3 Q21.85 25.35 21.9 25.4 L21.95 25.45 Q21.9 25.5 21.9 25.55 L22.0 25.6 Q22.1 25.6 22.15 25.65 22.2 25.7 22.1 25.75 L22.05 25.7 21.9 25.55 21.8 25.45 21.65 25.3" fill="#856c3f" fill-rule="evenodd" stroke="none"/>
    <path d="M22.05 25.55 L21.95 25.55 Q22.0 25.5 22.05 25.45 L22.05 25.55" fill="#624727" fill-rule="evenodd" stroke="none"/>
    <path d="M22.5 25.6 L22.5 25.65 Q22.45 25.65 22.4 25.65 L22.4 25.6 22.45 25.55 22.5 25.55 22.5 25.6" fill="#ba984f" fill-rule="evenodd" stroke="none"/>
    <path d="M22.3 26.0 L22.45 26.0 22.55 26.0 22.6 26.0 22.65 26.0 22.65 26.1 22.6 26.15 22.6 26.2 22.55 26.25 22.45 26.1 22.3 26.0" fill="#956f3e" fill-rule="evenodd" stroke="none"/>
    <path d="M22.1 25.75 L22.3 26.0 22.45 26.1 22.55 26.25 22.65 26.35 22.8 26.5 22.55 26.3 22.3 26.05 22.5 26.3 22.75 26.55 22.55 26.4 22.5 26.35 22.4 26.25 22.25 26.15 22.15 26.0 22.1 26.0 22.1 25.95 21.95 25.8 21.8 25.7 21.8 25.65 Q21.85 25.6 21.95 25.7 L21.95 25.75 22.05 25.8 22.0 25.7 22.05 25.7 22.1 25.75" fill="#0d0a06" fill-rule="evenodd" stroke="none"/>
    <path d="M21.75 25.6 L21.8 25.6 21.75 25.5 21.85 25.6 21.9 25.55 22.05 25.7 22.0 25.7 22.05 25.8 21.95 25.75 21.95 25.7 Q21.85 25.6 21.8 25.65 L21.75 25.65 21.75 25.6" fill="#2f2717" fill-rule="evenodd" stroke="none"/>
    <path d="M22.1 26.0 L22.0 26.0 21.85 26.05 21.75 25.95 21.85 25.9 21.95 25.9 22.0 25.95 22.1 25.95 22.1 26.0" fill="#9b7d47" fill-rule="evenodd" stroke="none"/>
    <path d="M22.45 26.45 L22.35 26.5 22.3 26.5 22.25 26.55 Q22.15 26.55 22.15 26.65 L22.15 26.7 22.1 26.8 22.2 26.8 22.25 26.8 Q22.4 26.8 22.35 26.85 L22.3 26.9 22.35 26.9 Q22.4 26.95 22.35 26.95 L22.25 26.95 22.25 26.9 22.05 26.9 21.9 26.9 21.9 26.85 Q21.9 26.85 21.95 26.85 L22.05 26.85 22.05 26.8 21.95 26.75 21.9 26.7 21.9 26.45 22.0 26.4 22.1 26.35 Q22.1 26.3 22.05 26.3 L21.95 26.35 Q21.9 26.35 21.9 26.25 L21.85 26.2 21.85 26.3 21.8 26.4 Q21.75 26.4 21.75 26.5 21.65 26.6 21.7 26.65 L21.7 26.7 21.5 26.65 21.35 26.55 21.25 26.55 21.2 26.6 Q21.25 26.65 21.35 26.65 21.45 26.7 21.45 26.75 L21.35 26.8 21.2 26.75 21.2 26.8 21.15 26.8 21.15 26.75 21.2 26.65 21.15 26.55 21.1 26.5 21.1 26.45 21.5 26.15 21.85 25.8 Q21.9 25.8 21.95 25.9 L21.85 25.9 21.75 25.95 21.85 26.05 22.0 26.0 22.1 26.0 22.15 26.0 22.1 26.15 22.25 26.15 22.4 26.25 22.5 26.35 22.45 26.45" fill="#c0954d" fill-rule="evenodd" stroke="none"/>
    <path d="M21.95 25.9 Q21.9 25.8 21.85 25.8 L21.85 25.75 21.8 25.7 21.95 25.8 22.1 25.95 22.0 25.95 21.95 25.9" fill="#705335" fill-rule="evenodd" stroke="none"/>
    <path d="M20.25 26.45 L20.25 26.55 20.3 26.65 20.3 26.7 Q20.3 26.8 20.35 26.85 20.4 26.8 20.5 26.85 L20.55 26.9 20.6 26.9 20.65 26.9 20.7 26.9 20.75 26.85 Q20.75 26.8 20.85 26.8 L20.95 26.85 21.0 26.8 21.0 26.65 Q21.05 26.6 21.0 26.55 L21.1 26.45 21.1 26.5 21.05 26.6 Q21.05 26.65 21.1 26.65 L21.15 26.55 21.2 26.65 21.15 26.75 21.15 26.8 21.2 26.8 21.2 26.75 21.35 26.8 21.45 26.75 Q21.45 26.7 21.35 26.65 21.25 26.65 21.2 26.6 L21.25 26.55 21.35 26.55 21.5 26.65 21.7 26.7 21.7 26.65 Q21.75 26.65 21.75 26.65 L21.75 26.55 21.8 26.5 21.9 26.4 21.8 26.45 21.75 26.5 Q21.75 26.4 21.8 26.4 L21.85 26.3 21.85 26.2 21.9 26.25 Q21.9 26.35 21.95 26.35 L22.05 26.3 Q22.1 26.3 22.1 26.35 L22.0 26.4 21.9 26.45 21.9 26.7 Q21.85 26.7 21.8 26.75 L21.7 26.8 Q21.7 26.85 21.8 26.85 L21.85 26.85 21.95 26.85 Q21.9 26.85 21.9 26.85 L21.9 26.9 21.85 26.95 21.75 26.95 21.55 26.95 21.0 26.95 20.45 26.95 Q20.5 26.9 20.4 26.9 20.4 26.9 20.3 26.9 L20.3 26.8 20.25 26.7 20.25 26.55 Q20.2 26.45 20.25 26.45" fill="#b18648" fill-rule="evenodd" stroke="none"/>
    <path d="M22.55 26.4 L22.5 26.4 Q22.45 26.45 22.5 26.55 L22.55 26.65 22.6 26.7 Q22.5 26.75 22.5 26.8 L22.45 26.8 22.4 26.85 22.35 26.85 Q22.4 26.8 22.25 26.8 L22.2 26.8 22.1 26.8 22.15 26.7 22.15 26.65 Q22.15 26.55 22.25 26.55 L22.3 26.5 22.35 26.5 22.3 26.55 22.3 26.65 22.35 26.65 22.4 26.55 Q22.4 26.55 22.4 26.6 L22.35 26.7 Q22.4 26.7 22.45 26.65 22.5 26.55 22.45 26.5 L22.45 26.45 22.5 26.35 22.55 26.4" fill="#b48546" fill-rule="evenodd" stroke="none"/>
    <path d="M22.35 26.5 L22.45 26.45 22.45 26.5 Q22.5 26.55 22.45 26.65 22.4 26.7 22.35 26.7 L22.4 26.6 Q22.4 26.55 22.4 26.55 L22.35 26.65 22.3 26.65 22.3 26.55 22.35 26.5" fill="#8c6b3b" fill-rule="evenodd" stroke="none"/>
    <path d="M22.85 26.15 Q22.8 26.2 22.85 26.3 L22.85 26.45 22.95 26.55 23.05 26.55 23.05 26.65 22.95 26.7 Q22.85 26.65 22.75 26.7 L22.65 26.75 22.65 26.55 22.6 26.5 22.5 26.4 22.55 26.4 22.75 26.55 22.85 26.6 22.8 26.5 22.65 26.35 22.55 26.25 22.6 26.2 22.6 26.15 22.7 26.15 22.75 26.2 22.85 26.15" fill="#cba156" fill-rule="evenodd" stroke="none"/>
    <path d="M22.25 26.15 L22.1 26.15 22.15 26.0 22.25 26.15" fill="#947c48" fill-rule="evenodd" stroke="none"/>
    <path d="M22.8 26.5 L22.85 26.6 22.75 26.55 22.5 26.3 22.3 26.05 22.55 26.3 22.8 26.5" fill="#6b512a" fill-rule="evenodd" stroke="none"/>
    <path d="M22.65 26.0 L22.75 26.0 22.9 25.95 23.05 25.95 23.1 25.85 23.15 25.85 23.2 25.85 Q23.3 25.9 23.25 26.0 L23.15 26.1 23.1 26.1 23.05 26.1 Q22.95 26.1 23.0 26.0 L22.95 26.0 22.85 26.0 22.95 26.1 22.85 26.15 22.75 26.2 22.7 26.15 22.6 26.15 22.65 26.1 22.65 26.0" fill="#a1834b" fill-rule="evenodd" stroke="none"/>
    <path d="M23.3 26.3 L23.35 26.25 23.4 26.3 23.45 26.35 23.4 26.45 23.4 26.6 23.35 26.75 Q23.3 26.85 23.35 26.95 L23.25 26.95 23.25 26.8 23.3 26.75 23.3 26.55 23.25 26.5 Q23.2 26.5 23.15 26.55 L23.1 26.55 23.05 26.55 22.95 26.55 22.85 26.45 22.85 26.3 Q22.8 26.2 22.85 26.15 L22.95 26.1 23.0 26.15 23.05 26.15 Q23.1 26.1 23.15 26.1 23.2 26.1 23.25 26.15 23.1 26.2 23.1 26.35 L23.2 26.35 23.3 26.3" fill="#d9ba6b" fill-rule="evenodd" stroke="none"/>
    <path d="M23.05 26.55 L23.1 26.55 23.15 26.55 23.2 26.55 23.25 26.6 23.15 26.65 Q23.1 26.65 23.15 26.7 23.15 26.75 23.2 26.75 23.25 26.75 23.3 26.75 L23.25 26.8 23.2 26.75 Q23.15 26.8 23.15 26.8 L23.2 26.8 23.25 26.85 23.2 26.9 23.15 26.9 23.1 26.9 23.05 26.8 22.9 26.8 22.75 26.8 Q22.7 26.8 22.75 26.85 L22.8 26.9 22.6 26.9 22.4 26.85 22.45 26.8 22.5 26.8 Q22.5 26.75 22.6 26.7 L22.55 26.65 22.5 26.55 Q22.45 26.45 22.5 26.4 L22.6 26.5 22.65 26.55 22.65 26.75 22.75 26.7 Q22.85 26.65 22.95 26.7 L23.05 26.65 23.05 26.55 M22.95 26.7 Q22.9 26.75 23.0 26.8 L23.1 26.75 23.1 26.65 23.05 26.65 22.95 26.7" fill="#bd934f" fill-rule="evenodd" stroke="none"/>
    <path d="M24.1 24.85 L24.15 24.9 24.1 25.0 24.05 25.0 24.0 25.1 Q24.05 25.05 24.05 25.1 L24.15 25.15 24.15 25.4 24.0 25.4 24.0 25.05 24.05 25.0 24.0 24.9 Q24.05 24.9 24.05 24.85 L24.1 24.85" fill="#755a41" fill-rule="evenodd" stroke="none"/>
    <path d="M24.1 25.0 L24.15 25.1 24.15 25.15 24.05 25.1 Q24.05 25.05 24.0 25.1 L24.05 25.0 24.1 25.0" fill="#987a61" fill-rule="evenodd" stroke="none"/>
    <path d="M24.15 25.4 L24.15 25.7 24.0 25.7 24.0 25.65 24.05 25.55 24.05 25.5 Q24.05 25.4 24.15 25.4" fill="#e4c68b" fill-rule="evenodd" stroke="none"/>
    <path d="M24.0 25.65 L24.0 25.4 24.15 25.4 Q24.05 25.4 24.05 25.5 L24.05 25.55 24.0 25.65" fill="#c09c64" fill-rule="evenodd" stroke="none"/>
    <path d="M23.9 25.0 L23.9 24.8 23.95 24.9 23.9 25.0" fill="#482f1f" fill-rule="evenodd" stroke="none"/>
    <path d="M23.9 25.15 L23.9 25.35 23.7 25.4 23.6 25.3 Q23.6 25.25 23.7 25.25 L23.75 25.15 Q23.8 25.1 23.9 25.15" fill="#b3753e" fill-rule="evenodd" stroke="none"/>
    <path d="M23.9 25.15 L23.9 25.1 Q23.95 25.1 23.95 25.2 L23.9 25.4 23.95 25.55 23.9 25.7 23.9 26.1 23.9 26.05 23.9 25.35 23.9 25.15" fill="#44331e" fill-rule="evenodd" stroke="none"/>
    <path d="M23.9 26.05 L23.9 26.1 23.9 26.2 23.9 26.15 23.75 26.15 Q23.65 26.15 23.6 26.2 23.6 26.25 23.7 26.25 L23.85 26.25 23.9 26.25 23.9 26.35 Q23.9 26.25 23.9 26.3 L23.9 26.4 Q23.85 26.55 23.9 26.65 L23.9 26.75 23.6 26.8 23.35 26.75 23.4 26.7 23.45 26.65 Q23.5 26.65 23.55 26.7 L23.6 26.7 Q23.65 26.7 23.7 26.7 L23.75 26.7 23.75 26.6 Q23.7 26.55 23.75 26.5 L23.75 26.4 Q23.75 26.35 23.7 26.35 L23.65 26.4 23.6 26.45 23.55 26.45 23.5 26.5 23.5 26.35 23.45 26.15 23.5 26.15 23.55 26.2 23.55 26.15 Q23.6 26.05 23.7 26.05 L23.9 26.05" fill="#ac874a" fill-rule="evenodd" stroke="none"/>
    <path d="M23.3 26.3 L23.3 26.25 23.35 26.2 23.3 26.1 23.3 26.0 23.3 25.9 Q23.3 25.8 23.35 25.75 L23.4 25.85 23.4 25.9 Q23.5 25.95 23.5 26.0 L23.5 26.15 23.45 26.15 23.5 26.35 23.5 26.5 23.55 26.45 23.6 26.45 23.65 26.4 23.7 26.35 Q23.75 26.35 23.75 26.4 L23.75 26.5 Q23.7 26.55 23.75 26.6 L23.75 26.7 23.7 26.7 Q23.65 26.7 23.6 26.7 L23.55 26.7 Q23.5 26.65 23.45 26.65 L23.4 26.7 23.35 26.75 23.6 26.8 23.9 26.75 23.9 26.95 23.6 26.95 23.35 26.95 Q23.3 26.85 23.35 26.75 L23.4 26.6 23.4 26.45 23.45 26.35 23.4 26.3 23.35 26.25 23.3 26.3" fill="#caa65c" fill-rule="evenodd" stroke="none"/>
    <path d="M23.9 26.25 L23.85 26.25 23.7 26.25 Q23.6 26.25 23.6 26.2 23.65 26.15 23.75 26.15 L23.9 26.15 23.9 26.2 23.9 26.25" fill="#906d3b" fill-rule="evenodd" stroke="none"/>
    <path d="M23.9 26.4 L23.9 26.3 Q23.9 26.25 23.9 26.35 L23.9 26.4" fill="#d0c098" fill-rule="evenodd" stroke="none"/>
    <path d="M24.15 25.7 L24.15 25.8 24.05 25.85 24.0 25.9 24.0 25.7 24.15 25.7" fill="#a08254" fill-rule="evenodd" stroke="none"/>
    <path d="M24.15 25.8 L24.15 25.95 24.0 26.0 24.0 25.9 24.05 25.85 24.15 25.8" fill="#cfb66d" fill-rule="evenodd" stroke="none"/>
    <path d="M24.15 25.95 L24.1 26.05 24.15 26.1 24.1 26.1 24.1 26.15 24.15 26.25 24.15 26.35 24.05 26.25 24.05 26.2 24.0 26.25 24.0 26.0 24.15 25.95" fill="#95815d" fill-rule="evenodd" stroke="none"/>
    <path d="M24.15 26.35 L24.15 26.65 Q24.05 26.65 24.05 26.55 L24.05 26.45 24.0 26.45 24.05 26.5 24.0 26.55 24.0 26.25 24.05 26.2 24.05 26.25 24.15 26.35" fill="#6f5d3f" fill-rule="evenodd" stroke="none"/>
    <path d="M24.15 26.65 L24.15 26.7 24.1 26.75 24.05 26.7 24.05 26.65 24.0 26.7 24.0 26.55 24.05 26.5 24.0 26.45 24.05 26.45 24.05 26.55 Q24.05 26.65 24.15 26.65" fill="#a08754" fill-rule="evenodd" stroke="none"/>
    <path d="M24.15 26.7 L24.15 27.0 24.05 27.0 24.0 27.0 24.0 26.7 24.05 26.65 24.05 26.7 24.1 26.75 24.15 26.7" fill="#5d4b2e" fill-rule="evenodd" stroke="none"/>
    <path d="M24.15 27.05 L24.05 27.15 Q24.0 27.2 23.95 27.15 23.9 27.15 23.95 27.15 L24.0 27.2 23.9 27.2 Q23.85 27.15 23.85 27.15 L23.75 27.2 23.7 27.2 23.6 27.2 23.5 27.2 Q23.55 27.15 23.65 27.15 L23.65 27.1 23.6 27.05 23.75 27.05 23.95 27.05 24.05 27.05 24.15 27.05 M23.75 27.1 L23.7 27.1 Q23.65 27.1 23.7 27.1 L23.75 27.1" fill="#58462f" fill-rule="evenodd" stroke="none"/>
    <path d="M24.15 27.0 L24.15 27.05 24.05 27.05 23.95 27.05 24.0 27.0 24.05 27.0 24.15 27.0" fill="#906b42" fill-rule="evenodd" stroke="none"/>
    <path d="M23.35 26.95 L23.6 26.95 23.9 26.95 23.9 26.75 23.9 26.65 23.9 27.0 23.55 27.0 23.2 26.95 23.25 26.95 23.35 26.95" fill="#87673a" fill-rule="evenodd" stroke="none"/>
    <path d="M23.9 26.4 L23.95 26.55 23.9 26.65 Q23.85 26.55 23.9 26.4" fill="#433720" fill-rule="evenodd" stroke="none"/>
    <path d="M23.15 26.55 Q23.2 26.5 23.25 26.5 L23.3 26.55 23.3 26.75 Q23.25 26.75 23.2 26.75 23.15 26.75 23.15 26.7 23.1 26.65 23.15 26.65 L23.25 26.6 23.2 26.55 23.15 26.55" fill="#cba75e" fill-rule="evenodd" stroke="none"/>
    <path d="M23.5 27.2 L23.05 27.2 22.6 27.2 Q22.6 27.1 22.65 27.1 L22.85 27.1 Q22.85 27.1 22.85 27.15 L22.9 27.15 23.0 27.15 23.15 27.1 23.25 27.1 Q23.35 27.15 23.35 27.05 L23.55 27.05 23.6 27.05 23.65 27.1 23.65 27.15 Q23.55 27.15 23.5 27.2" fill="#422f1e" fill-rule="evenodd" stroke="none"/>
    <path d="M23.75 27.1 L23.7 27.1 Q23.65 27.1 23.7 27.1 L23.75 27.1" fill="#8a7547" fill-rule="evenodd" stroke="none"/>
    <path d="M22.85 26.95 L23.2 26.95 23.55 27.0 23.9 27.0 23.35 27.0 22.8 27.0 22.85 26.95" fill="#4d3e25" fill-rule="evenodd" stroke="none"/>
    <path d="M22.95 26.7 L23.05 26.65 23.1 26.65 23.1 26.75 23.0 26.8 Q22.9 26.75 22.95 26.7" fill="#967745" fill-rule="evenodd" stroke="none"/>
    <path d="M23.25 26.8 L23.25 26.95 23.2 26.95 22.85 26.95 22.95 26.95 22.95 26.9 22.9 26.85 22.8 26.9 22.75 26.85 Q22.7 26.8 22.75 26.8 L22.9 26.8 23.05 26.8 23.1 26.9 23.15 26.9 23.2 26.9 23.25 26.85 23.2 26.8 23.15 26.8 Q23.15 26.8 23.2 26.75 L23.25 26.8" fill="#caa55a" fill-rule="evenodd" stroke="none"/>
    <path d="M22.35 26.95 Q22.4 26.95 22.35 26.9 L22.3 26.9 22.35 26.85 22.4 26.85 22.6 26.9 22.8 26.9 22.9 26.85 22.95 26.9 22.95 26.95 22.85 26.95 22.8 27.0 22.75 27.0 22.55 26.95 22.35 26.95" fill="#9d8048" fill-rule="evenodd" stroke="none"/>
    <path d="M22.25 26.95 L22.35 26.95 22.55 26.95 22.75 27.0 22.5 27.0 22.2 27.0 22.25 26.95" fill="#432c25" fill-rule="evenodd" stroke="none"/>
    <path d="M22.6 27.2 L21.4 27.2 Q21.4 27.2 21.4 27.15 21.45 27.1 21.4 27.05 L22.4 27.05 23.35 27.05 Q23.35 27.15 23.25 27.1 L23.15 27.1 23.0 27.15 22.9 27.15 22.85 27.15 Q22.85 27.1 22.85 27.1 L22.65 27.1 Q22.6 27.1 22.6 27.2" fill="#5c452d" fill-rule="evenodd" stroke="none"/>
    <path d="M21.9 26.7 L21.95 26.75 22.05 26.8 22.05 26.85 21.95 26.85 21.85 26.85 21.8 26.85 Q21.7 26.85 21.7 26.8 L21.8 26.75 Q21.85 26.7 21.9 26.7" fill="#9c7942" fill-rule="evenodd" stroke="none"/>
    <path d="M21.9 26.9 L22.05 26.9 22.25 26.9 22.25 26.95 22.2 27.0 22.15 27.0 22.0 26.95 21.85 26.95 21.9 26.9" fill="#947848" fill-rule="evenodd" stroke="none"/>
    <path d="M22.15 27.0 L21.95 27.0 21.75 26.95 21.85 26.95 22.0 26.95 22.15 27.0" fill="#301d16" fill-rule="evenodd" stroke="none"/>
    <path d="M21.75 23.15 L21.7 23.25 21.65 23.35 21.7 23.15 21.8 23.0 21.8 23.05 21.75 23.15" fill="#291e0c" fill-rule="evenodd" stroke="none"/>
    <path d="M21.6 23.2 L21.55 23.25 21.55 23.2 21.6 23.15 Q21.65 23.15 21.6 23.2" fill="#281d0b" fill-rule="evenodd" stroke="none"/>
    <path d="M21.45 23.25 L21.55 23.15 21.5 23.2 21.45 23.3 Q21.45 23.3 21.45 23.25" fill="#30240e" fill-rule="evenodd" stroke="none"/>
    <path d="M21.55 23.35 L21.5 23.45 21.55 23.3 21.55 23.35" fill="#31240e" fill-rule="evenodd" stroke="none"/>
    <path d="M21.75 23.25 L21.8 23.2 21.75 23.25 21.75 23.25" fill="#201607" fill-rule="evenodd" stroke="none"/>
    <path d="M21.35 23.15 L21.35 23.05 21.4 23.05 21.3 23.25 21.2 23.45 21.25 23.3 21.35 23.15" fill="#322510" fill-rule="evenodd" stroke="none"/>
    <path d="M21.35 23.35 Q21.35 23.3 21.4 23.25 L21.4 23.25 21.35 23.35" fill="#3f3115" fill-rule="evenodd" stroke="none"/>
    <path d="M21.35 23.8 L21.4 23.75 21.4 23.65 Q21.35 23.6 21.2 23.55 L21.1 23.55 21.0 23.55 Q21.05 23.5 21.15 23.5 L21.2 23.55 21.3 23.55 21.4 23.55 21.5 23.6 Q21.45 23.6 21.45 23.6 L21.5 23.7 21.45 23.8 21.4 23.8 21.35 23.8" fill="#ba7d3f" fill-rule="evenodd" stroke="none"/>
    <path d="M20.85 23.65 L20.9 23.6 21.0 23.55 21.1 23.55 21.2 23.55 Q21.35 23.6 21.4 23.65 L21.4 23.75 21.35 23.8 Q21.3 23.9 21.3 23.95 L21.35 23.9 21.4 23.8 21.45 23.8 21.4 23.95 21.35 23.95 21.1 24.0 20.9 24.05 20.9 24.0 21.1 23.95 21.15 23.9 21.15 23.85 21.15 23.8 Q21.15 23.8 21.2 23.8 L21.15 23.7 21.05 23.65 Q21.0 23.65 21.05 23.7 L21.0 23.8 20.95 23.9 20.9 23.95 20.95 23.85 Q20.95 23.8 20.95 23.8 L20.85 23.75 20.85 23.65 M21.2 23.85 Q21.15 23.9 21.2 23.95 L21.25 23.85 21.25 23.8 21.2 23.85" fill="#a26236" fill-rule="evenodd" stroke="none"/>
    <path d="M21.2 23.85 L21.25 23.8 21.25 23.85 21.2 23.95 Q21.15 23.9 21.2 23.85" fill="#341c0d" fill-rule="evenodd" stroke="none"/>
    <path d="M21.0 23.8 L21.05 23.7 Q21.0 23.65 21.05 23.65 L21.15 23.7 21.2 23.8 Q21.15 23.8 21.15 23.8 L21.15 23.85 21.1 23.95 20.9 24.0 20.85 23.95 20.85 23.9 20.9 23.95 20.95 23.9 20.95 23.95 21.0 23.9 21.0 23.8" fill="#895131" fill-rule="evenodd" stroke="none"/>
    <path d="M21.35 23.8 L21.4 23.8 21.35 23.9 21.3 23.95 Q21.3 23.9 21.35 23.8" fill="#2b160b" fill-rule="evenodd" stroke="none"/>
    <path d="M21.5 23.7 L21.45 23.6 Q21.45 23.6 21.5 23.6 L21.55 23.6 Q21.6 23.6 21.6 23.65 L21.7 23.65 21.75 23.7 21.6 23.75 Q21.55 23.8 21.55 23.8 L21.5 23.9 21.4 23.95 Q21.4 23.9 21.5 23.8 L21.55 23.6 21.5 23.7" fill="#9b6037" fill-rule="evenodd" stroke="none"/>
    <path d="M21.7 24.0 L21.65 23.95 Q21.65 23.95 21.6 24.0 21.55 24.0 21.6 23.95 L21.65 23.9 Q21.65 23.9 21.7 23.9 L21.75 23.8 21.8 23.8 Q21.75 23.85 21.75 23.9 L21.75 23.95 21.7 24.0" fill="#8e6834" fill-rule="evenodd" stroke="none"/>
    <path d="M21.8 23.8 L21.8 23.9 21.75 23.95 21.75 23.9 Q21.75 23.85 21.8 23.8" fill="#2a1c0b" fill-rule="evenodd" stroke="none"/>
    <path d="M21.45 23.8 L21.5 23.7 21.55 23.6 21.5 23.8 Q21.4 23.9 21.4 23.95 L21.45 23.8" fill="#27180b" fill-rule="evenodd" stroke="none"/>
    <path d="M21.0 23.3 L20.95 23.35 20.95 23.3 21.0 23.2 Q21.0 23.1 21.05 23.1 L21.0 23.3" fill="#100b04" fill-rule="evenodd" stroke="none"/>
    <path d="M20.9 23.15 L20.9 23.25 20.9 23.2 20.9 23.15" fill="#332711" fill-rule="evenodd" stroke="none"/>
    <path d="M20.7 23.1 L20.65 23.1 20.7 23.05 Q20.75 23.05 20.8 23.1 L20.9 23.15 20.9 23.2 Q20.85 23.15 20.85 23.2 L20.85 23.15 20.8 23.2 20.7 23.15 20.75 23.1 Q20.75 23.1 20.7 23.1" fill="#956e37" fill-rule="evenodd" stroke="none"/>
    <path d="M20.85 23.2 L20.75 23.35 20.8 23.25 20.8 23.2 20.85 23.15 20.85 23.2" fill="#1e1508" fill-rule="evenodd" stroke="none"/>
    <path d="M20.5 23.65 Q20.5 23.55 20.4 23.5 L20.35 23.35 Q20.35 23.3 20.4 23.35 L20.5 23.35 20.55 23.35 20.6 23.35 20.55 23.45 20.55 23.55 20.65 23.7 20.75 23.75 20.8 23.7 20.7 23.9 20.65 23.85 20.55 23.9 Q20.45 23.9 20.45 23.8 L20.5 23.75 Q20.55 23.7 20.5 23.65" fill="#a76a37" fill-rule="evenodd" stroke="none"/>
    <path d="M20.25 23.35 L20.25 23.4 20.3 23.3 20.4 23.2 20.55 23.15 Q20.65 23.15 20.65 23.2 L20.6 23.3 Q20.6 23.35 20.65 23.35 L20.65 23.4 20.6 23.5 Q20.55 23.55 20.6 23.6 20.6 23.7 20.7 23.7 20.8 23.7 20.8 23.6 20.75 23.55 20.85 23.55 L20.9 23.55 21.0 23.55 20.9 23.6 20.85 23.65 20.8 23.7 20.75 23.75 20.65 23.7 20.55 23.55 20.55 23.45 20.6 23.35 20.55 23.35 20.5 23.35 20.4 23.35 Q20.35 23.3 20.35 23.35 L20.4 23.5 Q20.5 23.55 20.5 23.65 20.45 23.6 20.4 23.6 20.35 23.55 20.3 23.6 L20.35 23.7 Q20.35 23.8 20.25 23.8 L20.25 24.0 Q20.3 24.1 20.35 24.05 L20.25 24.15 Q20.2 24.25 20.25 24.35 L20.2 24.35 20.15 24.4 20.1 24.35 20.1 24.3 20.15 24.15 Q20.15 24.0 20.05 24.0 L20.05 23.8 19.95 23.85 19.85 23.8 19.85 23.75 20.0 23.75 20.1 23.75 20.1 23.65 20.0 23.65 20.1 23.6 20.1 23.55 20.15 23.55 20.15 23.65 20.2 23.6 20.2 23.45 20.25 23.35" fill="#b28243" fill-rule="evenodd" stroke="none"/>
    <path d="M20.35 24.05 Q20.3 24.1 20.25 24.0 L20.25 23.8 Q20.35 23.8 20.35 23.7 L20.3 23.6 Q20.35 23.55 20.4 23.6 20.45 23.6 20.5 23.65 L20.45 23.7 20.4 23.75 20.4 24.0 20.4 24.05 20.35 24.05" fill="#bf9f57" fill-rule="evenodd" stroke="none"/>
    <path d="M20.7 23.9 L20.8 23.7 20.85 23.65 20.85 23.75 20.75 23.85 20.7 23.9" fill="#2a1a0b" fill-rule="evenodd" stroke="none"/>
    <path d="M20.85 23.9 L20.85 23.95 20.9 24.0 20.9 24.05 21.1 24.0 21.35 23.95 21.4 23.95 21.4 24.0 21.45 24.0 21.45 24.05 21.35 24.15 21.3 24.2 21.2 24.25 21.1 24.35 Q21.0 24.4 21.0 24.5 L20.85 24.5 Q20.8 24.5 20.8 24.4 20.75 24.35 20.75 24.3 L20.8 24.15 20.75 24.1 20.75 23.95 Q20.85 23.9 20.85 23.8 L20.8 23.9 20.75 23.85 20.85 23.75 20.95 23.8 20.85 23.9" fill="#c28d45" fill-rule="evenodd" stroke="none"/>
    <path d="M21.0 23.8 L21.0 23.9 20.95 23.95 20.95 23.9 21.0 23.8" fill="#331d0d" fill-rule="evenodd" stroke="none"/>
    <path d="M20.9 23.95 L20.85 23.9 20.95 23.8 Q20.95 23.8 20.95 23.85 L20.9 23.95" fill="#291b0b" fill-rule="evenodd" stroke="none"/>
    <path d="M20.75 23.95 L20.8 23.9 20.85 23.8 Q20.85 23.9 20.75 23.95" fill="#2e1f0c" fill-rule="evenodd" stroke="none"/>
    <path d="M20.35 24.05 L20.4 24.05 20.4 24.0 20.6 24.05 Q20.7 24.05 20.65 24.1 L20.65 24.2 20.7 24.25 20.6 24.35 Q20.55 24.4 20.55 24.45 L20.6 24.45 20.65 24.35 20.75 24.45 20.75 24.6 20.75 24.65 Q20.7 24.7 20.8 24.7 L20.9 24.65 20.9 24.75 20.75 24.75 20.65 24.7 20.6 24.8 Q20.5 24.85 20.5 24.9 20.5 25.0 20.35 25.05 L20.35 25.1 20.4 25.2 20.4 25.3 20.3 25.35 20.25 25.15 Q20.25 25.05 20.3 24.95 L20.4 24.95 Q20.5 24.9 20.45 24.85 L20.35 24.8 20.25 24.7 20.25 24.65 20.2 24.6 20.1 24.6 20.1 24.55 20.05 24.55 Q19.95 24.65 19.95 24.75 19.95 24.8 20.0 24.75 20.05 24.7 20.05 24.7 L20.15 24.8 20.2 24.9 20.2 24.95 20.1 24.95 20.05 25.0 20.1 25.1 Q20.15 25.15 20.2 25.15 L20.2 25.3 Q20.2 25.35 20.3 25.35 L20.3 25.4 20.2 25.4 20.15 25.4 20.05 25.65 19.85 25.7 19.85 25.35 19.85 23.8 19.95 23.85 20.05 23.8 20.05 24.0 Q20.15 24.0 20.15 24.15 L20.1 24.3 20.1 24.35 20.15 24.4 20.2 24.35 20.25 24.35 Q20.2 24.25 20.25 24.15 L20.35 24.05 M20.65 24.1 L20.6 24.05 Q20.55 24.05 20.55 24.1 L20.5 24.1 20.4 24.1 Q20.35 24.1 20.35 24.15 L20.3 24.25 20.4 24.35 Q20.4 24.4 20.5 24.35 L20.55 24.3 20.6 24.25 20.6 24.2 20.65 24.1 M20.35 24.45 L20.25 24.5 Q20.2 24.55 20.25 24.6 L20.3 24.65 20.4 24.65 20.4 24.55 20.45 24.5 20.35 24.45" fill="#a26b3b" fill-rule="evenodd" stroke="none"/>
    <path d="M20.65 24.1 L20.6 24.2 20.6 24.25 20.55 24.3 20.5 24.35 Q20.4 24.4 20.4 24.35 L20.3 24.25 20.35 24.15 Q20.35 24.1 20.4 24.1 L20.5 24.1 20.55 24.1 Q20.55 24.05 20.6 24.05 L20.65 24.1" fill="#764a2f" fill-rule="evenodd" stroke="none"/>
    <path d="M20.35 24.45 L20.45 24.5 20.4 24.55 20.4 24.65 20.3 24.65 20.25 24.6 Q20.2 24.55 20.25 24.5 L20.35 24.45" fill="#b58a4c" fill-rule="evenodd" stroke="none"/>
    <path d="M20.9 24.65 Q20.9 24.65 20.95 24.65 L21.0 24.65 21.05 24.65 21.1 24.75 21.15 24.8 21.25 24.9 21.35 25.0 21.25 25.1 21.2 25.0 21.1 24.95 21.0 24.85 20.9 24.8 20.9 24.75 20.9 24.65 M21.0 24.7 L20.95 24.7 Q20.9 24.7 20.95 24.75 L21.0 24.8 Q21.05 24.75 21.0 24.7" fill="#362613" fill-rule="evenodd" stroke="none"/>
    <path d="M21.0 24.65 L21.15 24.5 21.3 24.35 Q21.3 24.3 21.35 24.3 L21.4 24.35 Q21.4 24.4 21.45 24.35 L21.5 24.3 21.55 24.35 21.5 24.45 Q21.45 24.5 21.55 24.55 L21.65 24.55 21.55 24.6 21.4 24.55 Q21.2 24.55 21.15 24.65 L21.1 24.65 21.05 24.65 21.0 24.65" fill="#c08541" fill-rule="evenodd" stroke="none"/>
    <path d="M21.0 24.7 Q21.05 24.75 21.0 24.8 L20.95 24.75 Q20.9 24.7 20.95 24.7 L21.0 24.7" fill="#0b0804" fill-rule="evenodd" stroke="none"/>
    <path d="M21.1 23.95 L21.15 23.85 21.15 23.9 21.1 23.95" fill="#22130a" fill-rule="evenodd" stroke="none"/>
    <path d="M20.2 23.25 L20.2 23.3 20.25 23.35 20.2 23.45 20.2 23.6 20.15 23.65 20.15 23.55 20.1 23.55 20.1 23.6 20.0 23.65 Q19.95 23.7 19.95 23.6 L19.95 23.55 19.85 23.55 19.85 23.1 19.85 23.05 20.1 23.1 20.15 23.1 Q20.2 23.15 20.2 23.25" fill="#b79853" fill-rule="evenodd" stroke="none"/>
    <path d="M19.85 23.8 L19.85 25.35 19.85 25.3 19.8 25.3 Q19.75 25.3 19.8 25.25 L19.75 25.15 Q19.8 25.05 19.75 25.0 19.7 24.9 19.75 24.85 L19.8 24.9 19.8 24.75 19.75 24.6 19.75 24.3 19.75 24.05 19.8 23.9 19.8 23.75 19.75 23.6 19.75 23.55 19.75 23.3 19.8 23.25 19.8 23.15 19.85 23.1 19.85 23.55 19.85 23.75 19.85 23.8 M19.8 24.65 L19.85 24.6 19.85 24.55 Q19.8 24.6 19.8 24.65" fill="#2d2013" fill-rule="evenodd" stroke="none"/>
    <path d="M19.65 23.95 L19.65 23.6 19.65 23.65 19.7 23.65 19.7 23.55 19.65 23.5 19.65 23.25 19.8 23.25 19.75 23.3 19.7 23.35 Q19.65 23.4 19.65 23.5 L19.75 23.55 19.75 23.6 19.8 23.75 19.8 23.9 Q19.65 23.85 19.7 23.9 L19.75 24.05 19.75 24.3 19.75 24.15 19.7 24.05 19.65 23.95" fill="#624d3b" fill-rule="evenodd" stroke="none"/>
    <path d="M19.85 23.55 L19.95 23.55 19.95 23.6 Q19.95 23.7 20.0 23.65 L20.1 23.65 20.1 23.75 20.0 23.75 19.85 23.75 19.85 23.55" fill="#9e663a" fill-rule="evenodd" stroke="none"/>
    <path d="M19.75 23.55 L19.65 23.5 Q19.65 23.4 19.7 23.35 L19.75 23.3 19.75 23.55" fill="#8b6f4e" fill-rule="evenodd" stroke="none"/>
    <path d="M19.65 24.45 L19.65 24.3 19.7 24.3 19.75 24.3 19.7 24.4 19.65 24.45" fill="#a79268" fill-rule="evenodd" stroke="none"/>
    <path d="M19.65 24.65 L19.65 24.45 19.7 24.4 19.75 24.3 19.7 24.3 19.65 24.3 19.65 23.95 19.7 24.05 19.75 24.15 19.75 24.3 19.75 24.6 19.7 24.55 Q19.65 24.55 19.65 24.6 L19.65 24.65" fill="#816a4b" fill-rule="evenodd" stroke="none"/>
    <path d="M19.65 25.1 L19.65 24.65 19.65 24.6 Q19.65 24.55 19.7 24.55 L19.75 24.6 19.8 24.75 19.8 24.9 19.75 24.85 Q19.7 24.9 19.75 25.0 19.8 25.05 19.75 25.15 L19.7 25.1 19.65 25.1" fill="#624e38" fill-rule="evenodd" stroke="none"/>
    <path d="M19.8 24.65 Q19.8 24.6 19.85 24.55 L19.85 24.6 19.8 24.65" fill="#694133" fill-rule="evenodd" stroke="none"/>
    <path d="M20.3 25.35 Q20.2 25.35 20.2 25.3 L20.2 25.15 Q20.15 25.15 20.1 25.1 L20.05 25.0 20.1 24.95 20.2 24.95 20.2 24.9 20.15 24.8 20.05 24.7 Q20.05 24.7 20.0 24.75 19.95 24.8 19.95 24.75 19.95 24.65 20.05 24.55 L20.1 24.55 20.1 24.6 20.2 24.6 20.25 24.65 20.25 24.7 20.35 24.8 20.45 24.85 Q20.5 24.9 20.4 24.95 L20.3 24.95 Q20.25 25.05 20.25 25.15 L20.3 25.35" fill="#945d37" fill-rule="evenodd" stroke="none"/>
    <path d="M19.8 23.9 L19.75 24.05 19.7 23.9 Q19.65 23.85 19.8 23.9" fill="#a08563" fill-rule="evenodd" stroke="none"/>
    <path d="M20.3 25.35 L20.4 25.3 20.4 25.2 20.35 25.1 20.35 25.05 Q20.5 25.0 20.5 24.9 20.5 24.85 20.6 24.8 L20.65 24.7 20.75 24.75 20.9 24.75 20.9 24.8 20.85 24.85 20.8 24.85 20.75 24.95 20.65 25.1 20.65 25.0 Q20.6 24.95 20.55 24.95 20.5 25.0 20.5 25.05 L20.5 25.15 20.45 25.3 Q20.4 25.4 20.5 25.35 L20.55 25.35 20.55 25.25 Q20.55 25.2 20.6 25.25 20.7 25.25 20.7 25.35 L20.65 25.4 20.65 25.5 20.6 25.45 20.55 25.45 20.55 25.65 20.5 25.65 20.4 25.7 20.4 25.8 20.3 25.8 Q20.3 25.8 20.3 25.7 L20.2 25.7 20.15 25.65 20.15 25.5 Q20.15 25.45 20.2 25.45 L20.25 25.45 20.3 25.5 20.3 25.4 20.3 25.35" fill="#b68848" fill-rule="evenodd" stroke="none"/>
    <path d="M21.4 27.2 L19.75 27.2 19.75 27.05 19.65 27.0 19.65 26.95 19.7 26.9 Q19.7 26.9 19.75 26.9 L19.75 26.75 19.8 26.6 19.8 26.15 19.75 25.7 19.65 25.7 19.65 25.1 19.7 25.1 19.75 25.15 19.8 25.25 Q19.75 25.3 19.8 25.3 L19.85 25.3 19.85 25.35 19.85 25.7 19.85 26.3 19.85 26.55 19.85 26.8 19.9 26.95 20.25 26.95 20.45 26.95 21.0 26.95 21.55 26.95 21.5 27.0 20.65 27.0 19.75 27.0 19.85 27.05 20.1 27.05 20.35 27.05 20.5 27.1 20.55 27.1 20.5 27.1 20.5 27.05 20.95 27.05 21.05 27.1 21.2 27.1 21.3 27.05 21.4 27.05 Q21.45 27.1 21.4 27.15 21.4 27.2 21.4 27.2" fill="#3c2a19" fill-rule="evenodd" stroke="none"/>
    <path d="M19.85 25.7 L20.05 25.65 20.15 25.4 20.2 25.4 20.3 25.4 20.3 25.5 20.25 25.45 20.2 25.45 Q20.15 25.45 20.15 25.5 L20.15 25.65 20.2 25.7 20.3 25.7 Q20.3 25.8 20.3 25.8 L20.4 25.8 20.45 25.8 20.5 25.9 20.4 25.85 Q20.35 25.85 20.35 25.9 L20.35 26.05 20.3 26.1 20.25 25.95 Q20.2 26.0 20.1 26.0 L20.05 26.1 20.1 26.25 20.25 26.25 20.25 26.35 20.3 26.4 20.25 26.45 Q20.2 26.45 20.25 26.55 L20.25 26.7 20.3 26.8 20.3 26.9 Q20.4 26.9 20.4 26.9 20.5 26.9 20.45 26.95 L20.25 26.95 20.25 26.85 20.2 26.75 Q20.0 26.9 19.85 26.8 L19.85 26.55 Q19.95 26.55 19.95 26.6 L19.95 26.65 20.0 26.6 20.05 26.55 20.0 26.45 Q19.95 26.4 20.0 26.35 L19.85 26.3 19.85 25.7" fill="#a67b45" fill-rule="evenodd" stroke="none"/>
    <path d="M19.65 26.35 L19.65 25.7 19.75 25.7 19.8 26.15 19.8 26.6 19.7 26.6 19.65 26.6 19.65 26.55 19.7 26.45 19.65 26.35" fill="#71542d" fill-rule="evenodd" stroke="none"/>
    <path d="M19.75 27.2 L19.65 27.1 Q19.6 27.05 19.65 27.0 L19.65 26.35 19.7 26.45 19.65 26.55 19.65 26.6 19.7 26.6 19.8 26.6 19.75 26.75 19.75 26.9 Q19.7 26.9 19.7 26.9 L19.65 26.95 19.65 27.0 19.75 27.05 19.75 27.2" fill="#513b22" fill-rule="evenodd" stroke="none"/>
    <path d="M20.4 25.8 L20.4 25.7 20.55 25.7 20.6 25.65 20.65 25.65 20.7 25.65 20.75 25.7 20.8 25.7 20.8 25.65 20.85 25.6 20.9 25.65 20.9 25.75 20.95 25.8 21.0 25.8 Q21.0 25.85 21.05 25.9 L21.15 25.9 21.2 25.95 Q21.25 26.0 21.35 26.0 L21.5 25.95 21.4 26.0 21.3 26.1 21.2 26.1 21.1 26.2 21.0 26.15 21.0 26.1 20.9 26.0 Q20.8 26.0 20.75 25.95 L20.7 25.9 20.65 25.9 20.65 26.0 20.6 26.0 20.55 25.95 Q20.45 25.95 20.45 26.0 L20.5 26.1 20.55 26.1 20.65 26.1 20.75 26.15 Q20.65 26.15 20.6 26.2 L20.5 26.35 20.45 26.4 20.5 26.45 20.55 26.5 20.5 26.5 20.45 26.55 20.45 26.65 Q20.45 26.65 20.5 26.65 20.55 26.7 20.6 26.65 L20.6 26.5 Q20.7 26.5 20.65 26.45 L20.55 26.4 Q20.6 26.35 20.65 26.4 L20.8 26.45 20.75 26.35 Q20.75 26.25 20.8 26.2 L20.85 26.3 Q20.85 26.35 20.9 26.35 20.95 26.25 20.95 26.2 L20.85 26.1 20.95 26.15 21.05 26.25 20.9 26.35 20.8 26.5 20.85 26.55 20.95 26.55 20.95 26.6 21.0 26.55 Q21.05 26.6 21.0 26.65 L21.0 26.8 20.95 26.85 20.85 26.8 Q20.75 26.8 20.75 26.85 L20.7 26.9 20.65 26.9 20.6 26.9 20.55 26.9 20.5 26.85 Q20.4 26.8 20.35 26.85 20.3 26.8 20.3 26.7 L20.3 26.65 20.25 26.55 20.25 26.45 20.3 26.4 20.25 26.35 20.25 26.25 20.1 26.25 20.05 26.1 20.1 26.0 Q20.2 26.0 20.25 25.95 L20.3 26.1 20.35 26.05 20.35 25.9 Q20.35 25.85 20.4 25.85 L20.5 25.9 20.45 25.8 20.4 25.8" fill="#ba9854" fill-rule="evenodd" stroke="none"/>
    <path d="M19.85 26.3 L20.0 26.35 Q19.95 26.4 20.0 26.45 L20.05 26.55 20.0 26.6 19.95 26.65 19.95 26.6 Q19.95 26.55 19.85 26.55 L19.85 26.3" fill="#8c653b" fill-rule="evenodd" stroke="none"/>
    <path d="M21.35 25.0 L21.45 24.9 21.55 24.85 21.45 24.95 21.4 25.05 21.35 25.1 21.4 25.1 21.35 25.15 21.25 25.15 21.2 25.25 Q21.1 25.3 21.1 25.3 21.1 25.25 21.15 25.2 L21.25 25.1 21.35 25.0" fill="#1a1209" fill-rule="evenodd" stroke="none"/>
    <path d="M21.55 24.85 Q21.65 24.85 21.65 24.95 L21.65 25.1 21.6 25.15 21.55 25.2 21.5 25.15 21.4 25.05 21.45 24.95 21.55 24.85" fill="#bd8644" fill-rule="evenodd" stroke="none"/>
    <path d="M21.55 24.85 Q21.55 24.8 21.55 24.8 21.6 24.75 21.6 24.8 L21.55 24.85" fill="#110b06" fill-rule="evenodd" stroke="none"/>
    <path d="M21.25 25.15 L21.35 25.15 21.4 25.1 21.35 25.1 21.4 25.05 21.4 25.15 21.3 25.2 21.25 25.15" fill="#704f27" fill-rule="evenodd" stroke="none"/>
    <path d="M20.4 25.7 L20.5 25.65 20.55 25.65 20.55 25.45 20.6 25.45 20.65 25.5 20.65 25.4 20.7 25.35 Q20.7 25.25 20.6 25.25 20.55 25.2 20.55 25.25 L20.55 25.35 20.5 25.35 Q20.4 25.4 20.45 25.3 L20.5 25.15 20.5 25.05 Q20.5 25.0 20.55 24.95 20.6 24.95 20.65 25.0 L20.65 25.1 20.75 24.95 20.8 24.85 20.85 24.85 20.9 24.8 21.0 24.85 21.1 24.95 21.2 25.0 21.25 25.1 21.15 25.2 Q21.1 25.25 21.1 25.3 21.1 25.3 21.2 25.25 L21.25 25.15 21.3 25.2 21.4 25.25 21.4 25.35 21.45 25.5 Q21.35 25.5 21.3 25.55 21.3 25.65 21.35 25.7 L21.35 25.75 21.3 25.75 Q21.25 25.7 21.2 25.75 L21.15 25.75 21.1 25.75 21.0 25.75 21.0 25.8 20.95 25.8 20.9 25.75 20.9 25.65 20.85 25.6 20.8 25.65 20.8 25.7 20.75 25.7 20.7 25.65 20.65 25.65 20.6 25.65 20.55 25.7 20.4 25.7 M21.1 25.3 L21.0 25.35 21.0 25.4 21.05 25.35 21.1 25.3" fill="#c39249" fill-rule="evenodd" stroke="none"/>
    <path d="M21.5 25.95 L21.35 26.0 Q21.25 26.0 21.2 25.95 L21.15 25.9 21.05 25.9 Q21.0 25.85 21.0 25.8 L21.0 25.75 21.1 25.75 21.15 25.75 21.2 25.75 Q21.25 25.7 21.3 25.75 L21.35 25.75 21.35 25.7 Q21.3 25.65 21.3 25.55 21.35 25.5 21.45 25.5 L21.4 25.35 21.4 25.25 21.7 25.55 21.65 25.65 21.5 25.6 Q21.5 25.65 21.55 25.7 L21.65 25.75 21.5 25.95" fill="#b38344" fill-rule="evenodd" stroke="none"/>
    <path d="M21.7 25.55 L21.75 25.6 21.75 25.65 21.8 25.65 21.8 25.7 Q21.75 25.65 21.7 25.7 L21.65 25.75 21.55 25.7 Q21.5 25.65 21.5 25.6 L21.65 25.65 21.7 25.55" fill="#9d6c3b" fill-rule="evenodd" stroke="none"/>
    <path d="M21.1 25.3 L21.05 25.35 21.0 25.4 21.0 25.35 21.1 25.3" fill="#161108" fill-rule="evenodd" stroke="none"/>
    <path d="M20.85 26.1 L20.95 26.2 Q20.95 26.25 20.9 26.35 20.85 26.35 20.85 26.3 L20.8 26.2 Q20.75 26.25 20.75 26.35 L20.8 26.45 20.65 26.4 Q20.6 26.35 20.55 26.4 L20.5 26.45 20.45 26.4 20.5 26.35 20.6 26.2 Q20.65 26.15 20.75 26.15 L20.65 26.1 20.55 26.1 20.5 26.1 20.45 26.0 Q20.45 25.95 20.55 25.95 L20.6 26.0 20.65 26.0 20.85 26.1" fill="#c0a35b" fill-rule="evenodd" stroke="none"/>
    <path d="M20.95 26.55 L20.85 26.55 20.8 26.5 20.9 26.35 21.05 26.25 20.95 26.15 20.85 26.1 20.65 26.0 20.65 25.9 20.7 25.9 20.75 25.95 Q20.8 26.0 20.9 26.0 L21.0 26.1 21.0 26.15 21.1 26.2 21.2 26.1 21.3 26.1 21.15 26.3 20.95 26.5 20.95 26.55" fill="#ab884b" fill-rule="evenodd" stroke="none"/>
    <path d="M20.55 26.4 L20.65 26.45 Q20.7 26.5 20.6 26.5 L20.6 26.65 Q20.55 26.7 20.5 26.65 20.45 26.65 20.45 26.65 L20.45 26.55 20.5 26.5 20.55 26.5 20.5 26.45 20.55 26.4" fill="#96804a" fill-rule="evenodd" stroke="none"/>
    <path d="M21.3 26.1 L21.4 26.0 21.5 25.95 21.65 25.75 21.7 25.7 Q21.75 25.65 21.8 25.7 L21.85 25.75 21.85 25.8 21.5 26.15 21.1 26.45 21.0 26.55 21.4 26.15 21.75 25.75 21.4 26.15 21.0 26.5 20.95 26.5 21.15 26.3 21.3 26.1" fill="#0c0905" fill-rule="evenodd" stroke="none"/>
    <path d="M21.7 26.65 Q21.65 26.6 21.75 26.5 L21.8 26.45 21.9 26.4 21.8 26.5 21.75 26.55 21.75 26.65 Q21.75 26.65 21.7 26.65" fill="#967340" fill-rule="evenodd" stroke="none"/>
    <path d="M21.0 26.55 L20.95 26.6 20.95 26.55 20.95 26.5 21.0 26.5 21.4 26.15 21.75 25.75 21.4 26.15 21.0 26.55" fill="#6b542c" fill-rule="evenodd" stroke="none"/>
    <path d="M21.1 26.5 L21.15 26.55 21.1 26.65 Q21.05 26.65 21.05 26.6 L21.1 26.5" fill="#8e7441" fill-rule="evenodd" stroke="none"/>
    <path d="M20.95 27.05 L21.3 27.05 21.2 27.1 21.05 27.1 20.95 27.05" fill="#5b4632" fill-rule="evenodd" stroke="none"/>
    <path d="M20.35 27.05 L20.4 27.05 20.5 27.05 20.5 27.1 20.55 27.1 20.5 27.1 20.35 27.05" fill="#745c3f" fill-rule="evenodd" stroke="none"/>
    <path d="M19.85 26.8 Q20.0 26.9 20.2 26.75 L20.25 26.85 20.25 26.95 19.9 26.95 19.85 26.8" fill="#9d6b3d" fill-rule="evenodd" stroke="none"/>
    <path d="M18.8 21.35 L24.85 21.35 Q24.9 21.35 24.9 21.4 L24.9 21.5 24.9 27.45 24.85 27.5 24.8 27.5 24.0 27.5 18.95 27.5 18.85 27.5 Q18.75 27.5 18.75 27.45 L18.75 21.4 18.75 21.35 18.8 21.35 M22.85 21.7 L22.2 21.7 21.5 21.7 21.3 21.7 21.1 21.7 20.9 21.7 20.35 21.7 20.25 21.7 20.2 21.7 20.0 21.7 Q19.9 21.65 19.75 21.7 19.65 21.75 19.65 21.9 L19.65 22.0 19.65 22.4 19.65 22.85 19.65 23.0 19.65 23.25 19.65 23.5 19.7 23.55 19.7 23.65 19.65 23.65 19.65 23.6 19.65 23.95 19.65 24.3 19.65 24.45 19.65 24.65 19.65 25.1 19.65 25.7 19.65 26.35 19.65 27.0 Q19.6 27.05 19.65 27.1 L19.75 27.2 21.4 27.2 22.6 27.2 23.05 27.2 23.5 27.2 23.6 27.2 23.7 27.2 23.75 27.2 23.85 27.15 Q23.85 27.15 23.9 27.2 L24.0 27.2 23.95 27.15 Q23.9 27.15 23.95 27.15 24.0 27.2 24.05 27.15 L24.15 27.05 24.15 27.0 24.15 26.7 24.15 26.65 24.15 26.35 24.15 26.25 24.1 26.15 24.1 26.1 24.15 26.1 24.1 26.05 24.15 25.95 24.15 25.8 24.15 25.7 24.15 25.4 24.15 25.15 24.15 25.1 24.1 25.0 24.15 24.9 24.1 24.85 24.15 24.75 24.15 24.65 24.15 24.5 24.1 24.5 24.1 24.45 24.15 24.25 24.15 24.05 24.15 23.9 24.15 23.8 24.15 23.7 24.15 23.55 24.1 23.5 24.15 23.45 24.15 23.2 24.15 23.15 24.15 22.95 24.15 22.85 24.15 22.6 24.15 22.5 24.15 21.9 24.15 21.85 24.1 21.75 24.0 21.7 23.85 21.7 23.8 21.7 23.65 21.7 23.45 21.7 23.25 21.7 23.2 21.7 23.15 21.7 23.05 21.7 23.0 21.7 22.95 21.7 22.85 21.7 M23.8 21.9 Q23.8 21.85 23.8 21.85 L23.85 21.85 23.85 21.9 23.8 21.9 M21.4 23.05 L21.4 23.0 21.45 23.0 21.4 23.05 M21.75 25.65 L21.75 25.6 21.75 25.65" fill="url(#gradient0)" fill-rule="evenodd" stroke="none"/>
    <path d="M25.45 21.2 L25.45 21.15 Q25.3 20.8 24.85 20.8 L24.3 20.8 18.85 20.8 18.55 20.8 Q18.25 20.9 18.2 21.2 L18.2 24.25 18.2 27.65 Q18.3 28.1 18.85 28.1 L24.85 28.1 25.0 28.05 Q25.35 28.0 25.45 27.65 L25.5 27.45 25.5 23.8 25.5 21.4 25.45 21.2 M18.8 21.35 L24.85 21.35 Q24.9 21.35 24.9 21.4 L24.9 21.5 24.9 27.45 24.85 27.5 24.8 27.5 24.0 27.5 M18.95 27.5 L18.85 27.5 Q18.75 27.5 18.75 27.45 L18.75 21.4" fill="none" stroke="#000000" stroke-linecap="round" stroke-linejoin="round" stroke-opacity="0.4" stroke-width="1.0"/>
    <path d="M22.85 21.7 L22.2 21.7 21.5 21.7 21.3 21.7 21.1 21.7 20.9 21.7 20.35 21.7 20.25 21.7 20.2 21.7 20.0 21.7 Q19.9 21.65 19.75 21.7 19.65 21.75 19.65 21.9 L19.65 22.0 19.65 22.4 19.65 22.85 19.65 23.0 19.65 23.25 19.65 23.5 19.7 23.55 19.7 23.65 19.65 23.65 19.65 23.6 19.65 23.95 19.65 24.3 19.65 24.45 19.65 24.65 19.65 25.1 19.65 25.7 19.65 26.35 19.65 27.0 Q19.6 27.05 19.65 27.1 L19.75 27.2 21.4 27.2 22.6 27.2 23.05 27.2 23.5 27.2 23.6 27.2 23.7 27.2 23.75 27.2 23.85 27.15 Q23.85 27.15 23.9 27.2 L24.0 27.2 23.95 27.15 Q23.9 27.15 23.95 27.15 24.0 27.2 24.05 27.15 L24.15 27.05 24.15 27.0 24.15 26.7 24.15 26.65 24.15 26.35 24.15 26.25 24.1 26.15 24.1 26.1 24.15 26.1 24.1 26.05 24.15 25.95 24.15 25.8 24.15 25.7 24.15 25.4 24.15 25.15 24.15 25.1 24.1 25.0 24.15 24.9 24.1 24.85 24.15 24.75 24.15 24.65 24.15 24.5 24.1 24.5 24.1 24.45 24.15 24.25 24.15 24.05 24.15 23.9 24.15 23.8 24.15 23.7 24.15 23.55 24.1 23.5 24.15 23.45 24.15 23.2 24.15 23.15 24.15 22.95 24.15 22.85 24.15 22.6 24.15 22.5 24.15 21.9 24.15 21.85 24.1 21.75 24.0 21.7 23.85 21.7 23.8 21.7 23.65 21.7 23.45 21.7 23.25 21.7 23.2 21.7 23.15 21.7 23.05 21.7 23.0 21.7 22.95 21.7 22.85 21.7 M24.0 27.5 L18.95 27.5" fill="none" stroke="#000000" stroke-linecap="round" stroke-linejoin="round" stroke-opacity="0.4509804" stroke-width="1.0"/>
  </g>
  <defs>
    <radialGradient cx="0" cy="0" gradientTransform="matrix(0.0054, 0.0, 0.0, 0.0054, 21.85, 24.45)" gradientUnits="userSpaceOnUse" id="gradient0" r="819.2" spreadMethod="pad">
      <stop offset="0.0" stop-color="#29c6c2"/>
      <stop offset="1.0" stop-color="#1a3f46"/>
    </radialGradient>
  </defs>
</svg>
