<?xml version="1.0" encoding="UTF-8" standalone="no"?>
<svg xmlns:xlink="http://www.w3.org/1999/xlink" height="4.7px" width="8.75px" xmlns="http://www.w3.org/2000/svg">
  <g transform="matrix(1.0, 0.0, 0.0, 1.0, 4.25, 2.4)">
    <path d="M2.15 -2.4 Q3.1 -2.4 3.8 -1.7 4.5 -1.0 4.5 -0.05 4.5 0.9 3.8 1.6 3.1 2.3 2.15 2.3 1.2 2.3 0.5 1.6 -0.15 0.9 -0.15 -0.05 -0.15 -1.0 0.5 -1.7 1.2 -2.4 2.15 -2.4" fill="#ffb600" fill-opacity="0.6784314" fill-rule="evenodd" stroke="none"/>
    <path d="M-1.95 -2.35 Q-1.0 -2.35 -0.3 -1.7 0.4 -1.0 0.4 -0.05 0.4 0.9 -0.3 1.6 -1.0 2.25 -1.95 2.25 -2.9 2.25 -3.6 1.6 -4.25 0.9 -4.25 -0.05 -4.25 -1.0 -3.6 -1.7 -2.9 -2.35 -1.95 -2.35" fill="#ffb600" fill-opacity="0.6784314" fill-rule="evenodd" stroke="none"/>
  </g>
</svg>
