<?xml version="1.0" encoding="UTF-8" standalone="no"?>
<svg xmlns:xlink="http://www.w3.org/1999/xlink" height="143.8px" width="53.1px" xmlns="http://www.w3.org/2000/svg">
  <g transform="matrix(1.0, 0.0, 0.0, 1.0, -92.35, 122.25)">
    <path d="M139.15 -121.6 Q142.5 -120.9 143.65 -119.25 144.6 -117.9 144.55 -114.85 144.25 -110.7 144.25 -107.95 144.35 -99.4 144.25 -96.6 143.85 -94.25 143.45 -87.6 143.05 -81.85 143.05 -80.2 143.05 -75.4 143.45 -71.8 L144.25 -65.6 Q145.45 -56.55 145.45 -40.0 L145.15 -15.0 Q144.9 6.85 144.85 14.1 141.55 15.6 138.35 16.7 L137.25 17.1 Q137.0 17.75 136.4 18.1 L135.65 18.4 135.55 18.4 135.5 18.45 135.65 18.45 135.2 19.15 135.05 19.35 133.1 19.2 Q132.5 19.2 131.8 19.8 131.05 20.4 130.6 20.4 130.05 20.4 129.65 20.05 L129.2 19.5 Q128.4 20.7 126.8 21.0 L123.65 21.1 122.95 21.35 Q122.25 21.55 121.85 21.55 L121.05 20.55 Q120.3 20.55 118.65 20.8 L116.35 21.1 111.5 20.7 Q111.35 20.7 110.9 20.9 L110.45 21.1 107.7 21.0 Q106.5 21.0 106.0 20.8 105.5 20.65 105.05 20.15 103.65 18.2 101.45 16.05 L100.9 15.95 Q100.5 15.9 100.25 15.3 L99.65 13.35 Q99.5 13.05 98.95 12.15 L98.3 11.3 Q98.3 11.3 98.2 9.95 L98.15 8.25 Q96.2 7.2 95.65 6.75 94.35 5.65 93.95 3.5 93.55 1.45 93.5 -3.7 L93.55 -17.65 93.55 -23.85 93.45 -29.65 Q93.4 -34.0 93.55 -35.8 94.45 -44.8 96.35 -55.85 97.1 -60.0 97.35 -62.45 97.75 -65.9 97.75 -69.75 L95.05 -82.8 Q92.35 -96.3 92.35 -99.0 92.35 -113.8 107.3 -119.25 115.4 -122.25 128.45 -122.25 135.7 -122.25 139.15 -121.6" fill="#f5f5f5" fill-rule="evenodd" stroke="none"/>
  </g>
</svg>
