<?xml version="1.0" encoding="UTF-8" standalone="no"?>
<svg xmlns:xlink="http://www.w3.org/1999/xlink" height="143.8px" width="53.1px" xmlns="http://www.w3.org/2000/svg">
  <g transform="matrix(1.0, 0.0, 0.0, 1.0, -112.05, 145.15)">
    <path d="M164.2 -137.75 Q163.95 -133.6 163.95 -130.85 164.0 -122.3 163.95 -119.5 163.55 -117.15 163.15 -110.5 162.75 -104.75 162.75 -103.1 162.75 -98.3 163.15 -94.7 L163.95 -88.5 Q165.15 -79.45 165.15 -62.9 L164.85 -37.9 Q164.6 -16.05 164.55 -8.8 161.2 -7.3 158.05 -6.2 L156.95 -5.8 Q156.7 -5.15 156.05 -4.8 155.8 -4.65 155.35 -4.5 L155.25 -4.5 155.2 -4.45 155.35 -4.45 154.9 -3.75 154.75 -3.55 152.8 -3.7 Q152.2 -3.7 151.45 -3.1 150.75 -2.5 150.3 -2.5 149.75 -2.5 149.35 -2.85 L148.85 -3.4 Q148.1 -2.2 146.5 -1.9 L143.35 -1.8 142.6 -1.55 Q141.95 -1.35 141.55 -1.35 L140.75 -2.35 138.35 -2.1 136.05 -1.8 131.2 -2.2 Q131.05 -2.2 130.6 -2.0 L130.15 -1.8 127.4 -1.9 Q126.2 -1.9 125.7 -2.1 125.2 -2.25 124.7 -2.75 123.35 -4.7 121.15 -6.85 L120.6 -6.95 Q120.2 -7.0 119.95 -7.6 L119.35 -9.55 Q119.2 -9.85 118.6 -10.75 L118.0 -11.6 Q117.95 -11.6 117.9 -12.95 L117.85 -14.65 Q115.9 -15.7 115.35 -16.15 114.05 -17.25 113.6 -19.4 113.25 -21.45 113.2 -26.6 L113.25 -40.55 113.25 -46.75 113.15 -52.55 Q113.1 -56.9 113.25 -58.7 114.1 -67.7 116.05 -78.75 116.8 -82.9 117.05 -85.35 117.45 -88.8 117.45 -92.65 L114.75 -105.7 Q112.05 -119.2 112.05 -121.9 112.05 -136.7 126.95 -142.15 135.1 -145.15 148.1 -145.15 155.4 -145.15 158.8 -144.5 162.2 -143.8 163.35 -142.15 164.3 -140.8 164.2 -137.75" fill="#f5f5f5" fill-rule="evenodd" stroke="none"/>
  </g>
</svg>
