<?xml version="1.0" encoding="UTF-8" standalone="no"?>
<svg xmlns:xlink="http://www.w3.org/1999/xlink" height="143.8px" width="53.1px" xmlns="http://www.w3.org/2000/svg">
  <g transform="matrix(1.0, 0.0, 0.0, 1.0, -79.55, 152.55)">
    <path d="M130.85 -149.55 Q131.8 -148.2 131.75 -145.15 131.45 -141.0 131.45 -138.25 131.55 -129.7 131.45 -126.9 131.05 -124.55 130.65 -117.9 130.25 -112.1 130.25 -110.5 130.25 -105.7 130.65 -102.1 L131.45 -95.9 Q132.65 -86.85 132.65 -70.3 L132.35 -45.3 Q132.1 -23.45 132.05 -16.15 128.75 -14.7 125.55 -13.55 125.0 -13.35 124.45 -13.2 124.2 -12.5 123.6 -12.2 123.3 -12.05 122.85 -11.9 L122.75 -11.85 122.7 -11.85 122.85 -11.85 122.4 -11.15 122.25 -10.95 120.3 -11.1 Q119.7 -11.1 119.0 -10.5 118.25 -9.9 117.8 -9.9 117.25 -9.9 116.85 -10.25 L116.4 -10.8 Q115.6 -9.6 114.0 -9.3 L110.85 -9.2 110.15 -8.95 Q109.45 -8.75 109.05 -8.75 L108.25 -9.75 105.85 -9.45 Q104.25 -9.2 103.55 -9.2 L98.7 -9.6 Q98.55 -9.6 98.1 -9.4 L97.65 -9.2 96.25 -9.25 93.2 -9.45 Q92.7 -9.65 92.25 -10.15 90.85 -12.1 88.65 -14.25 L88.1 -14.35 Q87.7 -14.4 87.45 -15.0 L86.85 -16.9 Q86.7 -17.25 86.15 -18.15 L85.5 -19.0 Q85.5 -19.0 85.4 -20.35 L85.35 -22.05 Q83.4 -23.1 82.85 -23.55 81.55 -24.65 81.15 -26.8 80.75 -28.8 80.7 -34.0 L80.75 -47.95 80.75 -54.15 80.65 -59.9 Q80.6 -64.3 80.75 -66.1 81.65 -75.1 83.55 -86.15 84.3 -90.3 84.55 -92.75 84.95 -96.2 84.95 -100.05 L82.25 -113.1 Q79.55 -126.55 79.55 -129.3 79.55 -144.05 94.5 -149.55 102.6 -152.55 115.65 -152.55 122.9 -152.55 126.35 -151.85 129.7 -151.2 130.85 -149.55" fill="#f5f5f5" fill-rule="evenodd" stroke="none"/>
  </g>
</svg>
