<?xml version="1.0" encoding="UTF-8" standalone="no"?>
<svg xmlns:xlink="http://www.w3.org/1999/xlink" height="19.7px" width="19.7px" xmlns="http://www.w3.org/2000/svg">
  <g transform="matrix(1.0, 0.0, 0.0, 1.0, 35.2, 8.05)">
    <path d="M-28.6 -7.55 Q-26.7 -8.2 -24.5 -8.0 L-24.5 -7.95 -24.55 -7.75 Q-24.75 -7.65 -24.95 -7.55 L-25.45 -7.55 -25.65 -7.5 -25.65 -7.65 -25.7 -7.75 Q-25.9 -7.4 -25.95 -7.05 L-26.1 -7.0 -26.1 -7.35 Q-26.15 -7.55 -26.35 -7.6 L-26.8 -7.5 -27.25 -7.3 -27.8 -7.05 -28.3 -6.8 -28.5 -6.4 -28.5 -6.6 -28.65 -6.6 -28.85 -6.65 -28.9 -6.65 -28.85 -6.3 Q-28.6 -6.15 -28.4 -5.8 L-28.55 -5.75 -28.6 -5.75 -28.75 -5.95 Q-28.6 -5.95 -28.65 -6.05 -28.75 -6.2 -28.85 -6.05 L-29.1 -5.8 -29.2 -6.0 -29.05 -6.25 -29.3 -6.15 -29.55 -6.05 Q-29.65 -6.2 -29.55 -6.45 L-29.4 -6.85 -29.3 -6.3 -29.1 -6.45 Q-28.9 -6.45 -28.95 -6.55 -28.95 -6.7 -29.1 -6.6 L-29.05 -6.75 -28.65 -6.8 Q-28.7 -7.2 -28.6 -7.55" fill="#9c7648" fill-rule="evenodd" stroke="none"/>
    <path d="M-24.5 -7.95 L-24.45 -8.0 Q-23.85 -8.0 -23.2 -7.85 L-23.6 -7.45 -23.95 -7.0 -25.45 -7.2 -25.45 -7.55 -24.95 -7.55 -25.1 -7.15 Q-24.6 -7.4 -24.25 -7.75 L-24.55 -7.75 -24.5 -7.95" fill="#c69559" fill-rule="evenodd" stroke="none"/>
    <path d="M-24.95 -7.55 Q-24.75 -7.65 -24.55 -7.75 L-24.25 -7.75 Q-24.6 -7.4 -25.1 -7.15 L-24.95 -7.55" fill="#f6ba71" fill-rule="evenodd" stroke="none"/>
    <path d="M-23.2 -7.85 Q-22.5 -7.7 -21.7 -7.4 L-22.1 -7.0 -22.55 -7.25 -22.75 -6.9 -22.45 -6.7 -23.05 -6.75 -23.1 -6.8 -23.55 -6.95 -23.95 -7.0 -23.6 -7.45 -23.2 -7.85" fill="#e2ac68" fill-rule="evenodd" stroke="none"/>
    <path d="M-26.1 -7.0 L-25.95 -7.05 Q-25.9 -7.4 -25.7 -7.75 L-25.65 -7.65 -25.65 -7.5 -25.6 -7.4 -25.6 -7.2 -25.45 -7.2 -23.95 -7.0 -23.55 -6.95 -23.1 -6.8 -23.8 -6.8 -24.9 -6.95 -25.35 -6.95 Q-26.8 -6.8 -27.7 -6.5 L-28.1 -6.3 -28.45 -6.1 -28.35 -5.85 -28.4 -5.8 Q-28.6 -6.15 -28.85 -6.3 L-28.9 -6.65 -28.85 -6.65 -28.75 -6.65 -28.65 -6.45 -28.5 -6.4 -28.3 -6.8 -28.1 -6.7 -27.8 -6.65 -26.95 -6.85 -26.1 -7.0" fill="#836340" fill-rule="evenodd" stroke="none"/>
    <path d="M-26.1 -7.0 L-26.95 -6.85 -27.8 -6.65 -28.1 -6.7 -28.3 -6.8 -27.8 -7.05 -27.25 -7.3 -26.8 -7.5 -26.35 -7.6 Q-26.15 -7.55 -26.1 -7.35 L-26.1 -7.0" fill="#b08453" fill-rule="evenodd" stroke="none"/>
    <path d="M-25.45 -7.2 L-25.6 -7.2 -25.6 -7.4 -25.65 -7.5 -25.45 -7.55 -25.45 -7.2" fill="#f9da78" fill-rule="evenodd" stroke="none"/>
    <path d="M-30.3 -6.75 Q-29.7 -7.1 -28.6 -7.55 -28.7 -7.2 -28.65 -6.8 L-29.05 -6.75 -29.1 -6.6 -29.1 -6.45 -29.3 -6.3 -29.4 -6.85 -29.55 -6.45 Q-29.65 -6.2 -29.55 -6.05 L-29.5 -6.0 -29.95 -6.0 -29.85 -6.35 -30.3 -6.3 -30.3 -6.75" fill="#7f613c" fill-rule="evenodd" stroke="none"/>
    <path d="M-21.7 -7.4 L-20.25 -6.65 -20.8 -6.45 -20.65 -6.1 -20.75 -6.15 -20.8 -5.75 -21.4 -6.2 Q-21.75 -6.4 -22.1 -6.35 L-22.15 -6.35 Q-22.25 -6.65 -22.45 -6.7 L-22.75 -6.9 -22.55 -7.25 -22.1 -7.0 -21.7 -7.4" fill="#fcc37c" fill-rule="evenodd" stroke="none"/>
    <path d="M-31.7 -4.0 Q-31.8 -4.05 -31.85 -4.1 -31.9 -4.15 -31.85 -4.2 -31.8 -4.3 -31.75 -4.2 -31.7 -4.1 -31.7 -4.05 L-31.7 -4.0 M-18.0 -4.75 L-17.95 -4.8 -17.95 -4.65 -18.25 -4.25 Q-18.4 -4.0 -18.4 -3.8 L-18.15 -3.4 -17.95 -3.0 Q-17.75 -2.4 -17.15 -1.8 -16.75 -1.25 -16.65 -1.0 L-16.65 -0.3 Q-16.6 0.1 -16.55 0.4 L-16.4 0.85 -16.2 1.25 -16.15 1.55 -16.75 1.0 -16.55 1.75 -16.55 2.05 -16.5 2.35 -16.6 2.6 -16.6 2.75 -16.55 3.55 Q-16.6 3.8 -16.8 3.95 L-16.95 4.45 -16.95 4.85 Q-17.15 4.95 -17.2 5.05 L-17.75 5.9 -18.3 6.75 Q-18.4 6.8 -18.35 6.95 L-18.25 7.15 Q-18.15 7.4 -18.2 7.75 L-18.35 8.3 -18.4 7.85 Q-18.45 7.55 -18.5 7.35 -18.7 7.2 -18.85 7.2 -19.1 7.15 -19.25 7.25 -18.45 6.4 -17.95 5.35 -17.45 4.3 -17.25 3.2 -17.05 1.8 -17.25 0.4 -17.5 -1.05 -18.2 -2.25 -19.05 -3.65 -20.35 -4.7 -21.7 -5.75 -23.25 -6.15 -24.5 -6.45 -25.8 -6.35 -27.15 -6.3 -28.35 -5.85 L-28.45 -6.1 -28.1 -6.3 -27.7 -6.5 Q-26.8 -6.8 -25.35 -6.95 L-24.9 -6.95 -23.8 -6.8 -23.1 -6.8 -23.05 -6.75 Q-22.9 -6.6 -22.6 -6.5 L-22.15 -6.35 -22.1 -6.35 Q-21.75 -6.4 -21.4 -6.2 L-20.8 -5.75 -20.75 -6.15 -20.65 -6.1 -20.6 -5.8 Q-20.55 -5.55 -20.3 -5.4 L-19.8 -5.1 -19.55 -4.8 Q-19.4 -4.6 -19.25 -4.55 -19.0 -4.35 -18.55 -4.1 L-18.0 -4.75 M-21.2 -5.65 Q-21.1 -5.8 -21.25 -5.8 -21.35 -5.7 -21.2 -5.65" fill="#624b31" fill-rule="evenodd" stroke="none"/>
    <path d="M-22.15 -6.35 L-22.6 -6.5 Q-22.9 -6.6 -23.05 -6.75 L-22.45 -6.7 Q-22.25 -6.65 -22.15 -6.35" fill="#957149" fill-rule="evenodd" stroke="none"/>
    <path d="M-29.1 -6.6 Q-28.95 -6.7 -28.95 -6.55 -28.9 -6.45 -29.1 -6.45 L-29.1 -6.6" fill="#f6d47d" fill-rule="evenodd" stroke="none"/>
    <path d="M-28.5 -6.4 L-28.65 -6.45 -28.75 -6.65 -28.65 -6.6 -28.5 -6.6 -28.5 -6.4" fill="#edc17d" fill-rule="evenodd" stroke="none"/>
    <path d="M-31.9 -3.75 L-31.7 -4.0 -31.7 -4.05 -31.35 -3.85 -31.7 -3.8 -31.85 -3.65 -31.9 -3.75 M-32.55 -2.15 L-32.8 -2.4 -32.45 -2.35 -32.55 -2.15 M-20.25 -6.65 L-19.2 -5.9 -19.45 -5.6 Q-19.6 -5.4 -19.8 -5.35 -20.0 -5.4 -20.2 -5.55 L-20.6 -5.8 -20.65 -6.1 -20.8 -6.45 -20.25 -6.65 M-30.85 -5.8 Q-30.75 -5.8 -30.7 -5.65 L-30.7 -5.45 -30.8 -5.6 -30.85 -5.8 M-29.3 -6.15 L-29.05 -6.25 -29.2 -6.0 -29.2 -6.0 -29.25 -6.05 -29.3 -6.15" fill="#ffe392" fill-rule="evenodd" stroke="none"/>
    <path d="M-30.3 -6.1 L-30.3 -6.15 -30.15 -6.15 Q-30.05 -6.1 -30.15 -6.05 -30.25 -6.0 -30.3 -6.1" fill="#f8be75" fill-rule="evenodd" stroke="none"/>
    <path d="M-29.1 -5.5 L-29.5 -6.0 -29.55 -6.05 -29.3 -6.15 -29.25 -6.05 -29.2 -6.0 -29.2 -6.0 -29.1 -5.8 -28.85 -6.05 -28.75 -5.95 -28.6 -5.75 -28.7 -5.7 -29.1 -5.5" fill="#6a5135" fill-rule="evenodd" stroke="none"/>
    <path d="M-28.85 -6.05 Q-28.75 -6.2 -28.65 -6.05 -28.6 -5.95 -28.75 -5.95 L-28.85 -6.05" fill="#fdde8b" fill-rule="evenodd" stroke="none"/>
    <path d="M-19.2 -5.9 L-19.0 -5.75 Q-19.4 -5.5 -19.65 -5.05 L-19.25 -4.55 Q-19.4 -4.6 -19.55 -4.8 L-19.8 -5.1 -20.3 -5.4 Q-20.55 -5.55 -20.6 -5.8 L-20.2 -5.55 Q-20.0 -5.4 -19.8 -5.35 -19.6 -5.4 -19.45 -5.6 L-19.2 -5.9" fill="#b98d58" fill-rule="evenodd" stroke="none"/>
    <path d="M-16.05 -1.55 Q-15.7 -0.45 -15.55 0.85 -15.85 1.1 -16.2 1.25 L-16.4 0.85 -16.55 0.4 Q-16.6 0.1 -16.65 -0.3 L-16.65 -1.0 -16.05 -1.55 M-21.2 -5.65 Q-21.35 -5.7 -21.25 -5.8 -21.1 -5.8 -21.2 -5.65" fill="#ffed9b" fill-rule="evenodd" stroke="none"/>
    <path d="M-17.7 -4.4 Q-16.6 -3.1 -16.05 -1.55 L-16.65 -1.0 Q-16.75 -1.25 -17.15 -1.8 L-17.35 -2.25 -17.55 -2.75 -17.75 -3.15 -18.05 -3.55 Q-18.15 -3.7 -18.1 -3.95 L-17.95 -4.35 -17.7 -4.4" fill="#fffea3" fill-rule="evenodd" stroke="none"/>
    <path d="M-17.95 -4.65 L-17.7 -4.4 -17.95 -4.35 -18.1 -3.95 Q-18.15 -3.7 -18.05 -3.55 L-17.75 -3.15 -17.55 -2.75 -17.95 -3.0 -18.15 -3.4 -18.4 -3.8 Q-18.4 -4.0 -18.25 -4.25 L-17.95 -4.65" fill="#ffcd7e" fill-rule="evenodd" stroke="none"/>
    <path d="M-19.0 -5.75 Q-18.4 -5.2 -18.0 -4.75 L-18.55 -4.1 Q-19.0 -4.35 -19.25 -4.55 L-19.65 -5.05 Q-19.4 -5.5 -19.0 -5.75" fill="#fff69c" fill-rule="evenodd" stroke="none"/>
    <path d="M-17.55 -2.75 L-17.35 -2.25 -17.15 -1.8 Q-17.75 -2.4 -17.95 -3.0 L-17.55 -2.75" fill="#be9261" fill-rule="evenodd" stroke="none"/>
    <path d="M-32.55 -3.85 Q-32.6 -3.8 -32.65 -3.9 -32.7 -4.0 -32.65 -4.05 -32.6 -4.1 -32.5 -4.0 -32.45 -3.95 -32.55 -3.85 M-15.55 0.85 Q-15.45 1.95 -15.55 3.1 L-16.2 3.3 -16.35 2.95 -16.15 2.9 -16.15 2.75 -16.6 2.6 -16.5 2.35 -16.25 2.7 -16.15 1.9 -16.4 2.15 -16.55 1.75 -16.75 1.0 -16.15 1.55 -16.2 1.25 Q-15.85 1.1 -15.55 0.85" fill="#ffd187" fill-rule="evenodd" stroke="none"/>
    <path d="M-31.2 -4.3 L-31.6 -4.1 -31.7 -4.3 -31.4 -4.4 -31.2 -4.3 M-21.2 8.85 L-21.0 8.75 -20.95 8.9 -20.65 9.7 -20.95 9.85 Q-21.15 9.4 -21.2 8.85" fill="#ffffb2" fill-rule="evenodd" stroke="none"/>
    <path d="M-30.45 -5.25 Q-30.5 -5.35 -30.45 -5.4 -30.45 -5.5 -30.35 -5.5 -30.3 -5.45 -30.3 -5.35 -30.35 -5.25 -30.45 -5.25" fill="#dfac6d" fill-rule="evenodd" stroke="none"/>
    <path d="M-29.6 -5.25 L-29.65 -5.6 -29.15 -5.45 -29.6 -5.25" fill="#6d5336" fill-rule="evenodd" stroke="none"/>
    <path d="M-30.3 -5.6 Q-30.4 -5.65 -30.35 -5.75 -30.3 -5.85 -30.2 -5.8 -30.1 -5.7 -30.15 -5.65 -30.2 -5.55 -30.3 -5.6" fill="#f4d181" fill-rule="evenodd" stroke="none"/>
    <path d="M-32.05 -4.45 Q-31.95 -4.55 -31.9 -4.4 -31.9 -4.25 -32.05 -4.3 L-32.05 -4.45" fill="#ffcd7d" fill-rule="evenodd" stroke="none"/>
    <path d="M-32.1 -3.95 Q-32.1 -3.85 -32.2 -3.8 L-32.35 -3.85 Q-32.35 -3.95 -32.25 -4.0 -32.15 -4.05 -32.1 -3.95" fill="#ffe69c" fill-rule="evenodd" stroke="none"/>
    <path d="M-31.05 -5.2 Q-31.0 -5.25 -30.9 -5.15 -30.85 -5.1 -30.95 -5.05 -31.0 -4.95 -31.05 -5.05 -31.15 -5.15 -31.05 -5.2" fill="#fad28f" fill-rule="evenodd" stroke="none"/>
    <path d="M-30.55 -5.05 Q-30.5 -4.95 -30.55 -4.9 L-30.7 -4.9 Q-30.8 -5.0 -30.75 -5.05 -30.65 -5.15 -30.55 -5.05" fill="#e5b575" fill-rule="evenodd" stroke="none"/>
    <path d="M-31.3 -4.6 L-31.25 -4.8 -31.0 -4.6 Q-30.85 -4.5 -30.85 -4.35 L-31.3 -4.6" fill="#fde591" fill-rule="evenodd" stroke="none"/>
    <path d="M-32.15 -3.25 Q-32.2 -3.3 -32.25 -3.4 -32.25 -3.5 -32.2 -3.55 -32.1 -3.6 -32.05 -3.45 -32.05 -3.3 -32.15 -3.25" fill="#e5b170" fill-rule="evenodd" stroke="none"/>
    <path d="M-32.9 -3.25 L-32.7 -3.25 -32.5 -3.2 -32.3 -3.0 -32.15 -2.8 -32.45 -2.35 -32.8 -2.4 -32.55 -2.15 -33.0 -1.15 -33.1 -0.95 -33.1 -0.85 Q-33.3 -1.0 -33.6 -0.95 L-33.65 -1.5 -33.45 -1.6 -33.5 -1.85 Q-33.3 -2.15 -32.9 -2.5 L-32.85 -2.55 -32.85 -2.8 -32.8 -2.85 -32.65 -2.95 -32.7 -3.05 -32.75 -3.05 -32.75 -3.1 -32.8 -3.15 -32.85 -3.2 -32.9 -3.25 M-33.65 -0.5 L-33.95 -0.4 -34.0 -0.95 -33.6 -0.95 -33.15 -0.8 -33.25 -0.4 -33.4 -0.35 -33.7 -0.8 -33.65 -0.5" fill="#cb9c64" fill-rule="evenodd" stroke="none"/>
    <path d="M-32.75 -3.1 L-32.75 -3.05 -32.7 -3.05 -32.65 -2.95 -32.8 -2.85 -32.9 -2.75 -33.0 -2.65 -32.9 -2.5 Q-33.3 -2.15 -33.5 -1.85 L-33.45 -2.1 -33.35 -2.35 Q-33.2 -2.45 -33.0 -2.5 L-33.2 -2.9 -32.8 -3.15 -32.75 -3.1" fill="#957449" fill-rule="evenodd" stroke="none"/>
    <path d="M-32.85 -2.8 L-32.85 -2.55 -32.9 -2.5 -33.0 -2.65 -32.9 -2.75 -32.85 -2.8" fill="#efc37d" fill-rule="evenodd" stroke="none"/>
    <path d="M-33.6 -0.95 Q-33.3 -1.0 -33.1 -0.85 L-33.15 -0.8 -33.6 -0.95" fill="#ffd793" fill-rule="evenodd" stroke="none"/>
    <path d="M-33.95 -0.4 L-33.65 -0.5 -33.6 -0.3 -33.9 -0.15 -33.45 0.05 Q-33.9 0.15 -34.2 0.4 -34.25 0.2 -34.15 0.0 L-33.95 -0.4" fill="#9d7d52" fill-rule="evenodd" stroke="none"/>
    <path d="M-33.75 1.5 L-33.9 1.5 Q-33.95 1.4 -33.9 1.35 L-33.75 1.35 Q-33.7 1.45 -33.75 1.5" fill="#92744b" fill-rule="evenodd" stroke="none"/>
    <path d="M-22.25 9.75 L-21.65 10.25 -22.2 10.1 Q-22.3 10.05 -22.35 9.95 L-22.4 9.7 -22.25 9.75 M-34.05 2.9 L-33.8 2.85 Q-33.95 2.65 -34.05 2.3 L-34.2 1.75 -33.55 1.85 Q-33.55 1.35 -33.55 0.8 L-33.5 0.75 Q-33.6 2.1 -33.45 3.1 L-34.05 2.9" fill="#fffbac" fill-rule="evenodd" stroke="none"/>
    <path d="M-34.2 0.4 Q-33.9 0.15 -33.45 0.05 L-33.9 -0.15 -33.6 -0.3 -33.65 -0.5 -33.7 -0.8 -33.4 -0.35 -33.25 -0.4 -33.5 0.75 -33.55 0.8 Q-33.55 1.35 -33.55 1.85 L-34.2 1.75 -34.35 1.3 -33.85 1.15 Q-34.05 0.8 -34.2 0.4 M-32.45 7.1 L-32.65 7.6 -32.65 6.75 -32.5 6.8 -32.45 7.1 M-33.75 1.5 Q-33.7 1.45 -33.75 1.35 L-33.9 1.35 Q-33.95 1.4 -33.9 1.5 L-33.75 1.5" fill="#ffd38d" fill-rule="evenodd" stroke="none"/>
    <path d="M-16.55 1.75 L-16.4 2.15 -16.15 1.9 -16.25 2.7 -16.5 2.35 -16.55 2.05 -16.55 1.75" fill="#9f7a53" fill-rule="evenodd" stroke="none"/>
    <path d="M-16.55 3.55 L-16.05 3.9 -16.35 4.05 -16.15 4.3 -16.4 4.35 -16.3 4.75 -16.75 4.85 -16.95 4.45 -16.8 3.95 Q-16.6 3.8 -16.55 3.55" fill="#f6c07e" fill-rule="evenodd" stroke="none"/>
    <path d="M-15.55 3.1 Q-15.8 4.4 -16.1 5.25 -16.5 5.2 -16.85 4.95 L-16.95 4.85 -16.95 4.45 -16.75 4.85 -16.3 4.75 -16.4 4.35 -16.15 4.3 -16.35 4.05 -16.05 3.9 -16.55 3.55 -16.6 2.75 -16.35 2.95 -16.2 3.3 -15.55 3.1" fill="#dead73" fill-rule="evenodd" stroke="none"/>
    <path d="M-16.6 2.6 L-16.15 2.75 -16.15 2.9 -16.35 2.95 -16.6 2.75 -16.6 2.6" fill="#fff6a5" fill-rule="evenodd" stroke="none"/>
    <path d="M-16.75 6.5 L-16.9 6.85 Q-17.7 8.2 -19.1 9.4 L-19.25 9.25 Q-19.05 9.25 -19.1 9.1 -19.25 9.0 -19.35 9.15 L-19.5 9.1 -19.2 9.0 -18.95 8.9 Q-18.85 8.75 -18.8 8.55 L-18.7 8.15 -18.45 8.1 -18.45 7.6 -18.85 7.6 -18.95 7.6 -19.25 7.75 -19.15 7.55 -18.5 7.35 Q-18.45 7.55 -18.4 7.85 L-18.35 8.3 -18.2 7.75 Q-18.15 7.4 -18.25 7.15 L-17.95 6.55 -17.85 7.1 -17.7 6.55 Q-17.5 6.6 -17.25 6.55 L-16.75 6.5" fill="#a27d56" fill-rule="evenodd" stroke="none"/>
    <path d="M-19.1 9.4 L-19.6 9.8 Q-19.5 9.35 -19.65 8.75 L-19.6 8.8 -19.6 8.8 -19.5 8.8 -19.35 8.8 -19.15 8.85 -19.0 8.4 -19.0 8.0 Q-19.0 7.75 -18.95 7.6 L-18.95 7.6 -18.85 7.6 Q-18.65 7.9 -18.7 8.15 L-18.8 8.55 Q-18.85 8.75 -18.95 8.9 L-19.2 9.0 -19.5 9.1 -19.35 9.15 -19.25 9.25 -19.1 9.4" fill="#665136" fill-rule="evenodd" stroke="none"/>
    <path d="M-18.95 7.6 L-18.95 7.6 Q-19.0 7.75 -19.0 8.0 L-19.0 8.4 -19.4 8.15 Q-19.3 7.95 -19.25 7.75 L-18.95 7.6" fill="#fff8b5" fill-rule="evenodd" stroke="none"/>
    <path d="M-19.75 9.9 L-20.05 10.1 -20.1 9.1 -20.0 8.7 -19.95 8.3 -20.1 8.55 -20.35 8.25 Q-19.75 7.8 -19.25 7.25 -19.1 7.15 -18.85 7.2 -18.7 7.2 -18.5 7.35 L-19.15 7.55 -19.25 7.75 Q-19.3 7.95 -19.4 8.15 L-19.65 8.5 Q-19.75 8.7 -19.8 8.9 -19.95 9.3 -19.75 9.9" fill="#675237" fill-rule="evenodd" stroke="none"/>
    <path d="M-16.95 4.85 L-16.85 4.95 Q-17.25 5.4 -17.4 5.7 -17.65 6.15 -17.7 6.55 L-17.85 7.1 -17.95 6.55 -18.25 7.15 -18.35 6.95 Q-18.4 6.8 -18.3 6.75 L-17.75 5.9 -17.2 5.05 Q-17.15 4.95 -16.95 4.85" fill="#846647" fill-rule="evenodd" stroke="none"/>
    <path d="M-18.85 7.6 L-18.45 7.6 -18.45 8.1 -18.7 8.15 Q-18.65 7.9 -18.85 7.6" fill="#fdc887" fill-rule="evenodd" stroke="none"/>
    <path d="M-16.1 5.25 Q-16.25 5.6 -16.55 6.35 -16.95 6.3 -17.5 6.05 L-17.45 6.3 -17.7 6.55 Q-17.65 6.15 -17.4 5.7 -17.25 5.4 -16.85 4.95 -16.5 5.2 -16.1 5.25" fill="#c99c67" fill-rule="evenodd" stroke="none"/>
    <path d="M-16.55 6.35 L-16.65 6.4 -16.75 6.5 -17.25 6.55 Q-17.5 6.6 -17.7 6.55 L-17.45 6.3 -17.5 6.05 Q-16.95 6.3 -16.55 6.35" fill="#fdcb87" fill-rule="evenodd" stroke="none"/>
    <path d="M-19.6 8.8 L-19.6 8.8 -19.65 8.75 Q-19.75 8.6 -19.6 8.6 -19.55 8.65 -19.55 8.65 -19.55 8.7 -19.6 8.8" fill="#ffef9c" fill-rule="evenodd" stroke="none"/>
    <path d="M-20.3 9.1 L-20.4 8.35 -20.35 8.25 -20.1 8.55 -19.95 8.3 -20.0 8.7 -20.1 9.1 -20.3 9.1" fill="#fdce8c" fill-rule="evenodd" stroke="none"/>
    <path d="M-20.4 8.35 L-20.4 8.65 Q-20.4 9.15 -20.35 9.5 L-20.65 9.2 -20.95 8.9 -21.0 8.75 -20.4 8.35 M-29.7 8.9 Q-29.4 9.15 -29.35 9.25 L-29.75 9.15 -29.7 8.9" fill="#685437" fill-rule="evenodd" stroke="none"/>
    <path d="M-20.05 10.1 L-20.05 10.1 -20.25 9.7 -20.6 9.7 -20.65 9.7 -20.95 8.9 -20.65 9.2 -20.35 9.5 Q-20.4 9.15 -20.4 8.65 L-20.3 9.1 -20.1 9.1 -20.05 10.1" fill="#9c7e53" fill-rule="evenodd" stroke="none"/>
    <path d="M-20.05 10.1 L-20.85 10.6 -21.25 10.3 Q-21.2 10.2 -21.25 10.15 L-21.35 10.0 -21.3 9.75 Q-21.3 9.25 -21.5 9.05 L-21.55 9.1 -21.55 9.2 -21.4 9.8 -21.55 9.85 -21.75 9.6 -22.2 9.35 -21.7 9.1 -21.2 8.85 Q-21.15 9.4 -20.95 9.85 L-20.7 10.4 -20.55 10.3 -20.6 9.7 -20.25 9.7 -20.05 10.1" fill="#705a3b" fill-rule="evenodd" stroke="none"/>
    <path d="M-19.5 8.7 Q-19.5 8.35 -19.3 8.25 -19.25 8.55 -19.5 8.7" fill="#725b3d" fill-rule="evenodd" stroke="none"/>
    <path d="M-33.55 6.05 Q-33.5 6.15 -33.6 6.15 L-33.7 6.1 Q-33.75 6.0 -33.7 5.95 -33.6 5.9 -33.55 6.05" fill="#b29165" fill-rule="evenodd" stroke="none"/>
    <path d="M-33.05 6.35 L-33.45 5.7 Q-33.65 5.3 -33.7 4.95 L-33.3 5.45 -32.85 5.9 -33.15 6.15 -33.05 6.35" fill="#a8845a" fill-rule="evenodd" stroke="none"/>
    <path d="M-32.65 6.6 L-32.9 6.5 -33.05 6.35 -33.15 6.15 -32.85 5.9 Q-32.6 6.15 -32.65 6.6" fill="#f8c585" fill-rule="evenodd" stroke="none"/>
    <path d="M-31.9 7.75 Q-32.3 7.5 -32.45 7.1 L-32.5 6.8 Q-32.0 6.95 -31.9 7.75" fill="#987b57" fill-rule="evenodd" stroke="none"/>
    <path d="M-27.4 10.45 Q-27.9 10.4 -28.65 10.1 L-29.8 9.65 -30.0 9.4 Q-30.1 9.3 -30.2 9.25 L-31.0 8.9 -30.9 8.6 -30.6 8.7 -29.85 8.95 -30.0 9.15 -29.5 9.65 -29.25 9.35 -29.05 9.65 -28.75 9.9 Q-28.15 10.25 -27.5 10.25 L-27.45 10.35 -27.4 10.45" fill="#957954" fill-rule="evenodd" stroke="none"/>
    <path d="M-30.8 8.45 Q-30.9 8.35 -30.9 8.2 -30.9 8.05 -30.75 8.0 -30.75 8.25 -30.8 8.45" fill="#a8885f" fill-rule="evenodd" stroke="none"/>
    <path d="M-20.6 9.7 L-20.55 10.3 -20.7 10.4 -20.95 9.85 -20.65 9.7 -20.6 9.7" fill="#c9a06b" fill-rule="evenodd" stroke="none"/>
    <path d="M-19.35 9.15 Q-19.25 9.0 -19.1 9.1 -19.05 9.25 -19.25 9.25 L-19.35 9.15" fill="#dfb379" fill-rule="evenodd" stroke="none"/>
    <path d="M-27.25 10.65 L-27.35 10.5 -27.4 10.45 -27.45 10.35 -27.5 10.25 Q-27.55 10.05 -27.6 9.65 L-27.35 9.75 Q-27.25 10.05 -27.05 10.5 L-27.0 10.55 -27.25 10.65" fill="#fffeb7" fill-rule="evenodd" stroke="none"/>
    <path d="M-21.4 9.8 L-21.55 9.2 -21.55 9.1 -21.5 9.05 Q-21.3 9.25 -21.3 9.75 L-21.4 9.8" fill="#fcefad" fill-rule="evenodd" stroke="none"/>
    <path d="M-21.4 10.0 Q-21.85 9.85 -22.25 9.75 L-22.4 9.7 -22.7 9.55 -22.2 9.35 -21.75 9.6 -21.55 9.85 -21.4 9.8 -21.3 9.75 -21.35 10.0 -21.4 10.0" fill="#af8e5d" fill-rule="evenodd" stroke="none"/>
    <path d="M-24.1 9.9 L-23.55 9.8 -23.6 9.8 Q-23.65 9.9 -23.6 10.0 L-23.5 10.15 -24.1 9.9" fill="#735c3d" fill-rule="evenodd" stroke="none"/>
    <path d="M-22.8 9.85 L-21.95 10.7 -22.05 10.85 Q-22.6 10.55 -23.5 10.6 L-23.15 10.5 -22.95 10.45 -22.8 9.85" fill="#7d6444" fill-rule="evenodd" stroke="none"/>
    <path d="M-23.6 9.8 Q-23.5 9.85 -23.4 9.95 -23.35 10.1 -23.5 10.15 L-23.6 10.0 Q-23.65 9.9 -23.6 9.8" fill="#efce89" fill-rule="evenodd" stroke="none"/>
    <path d="M-23.5 10.6 L-23.55 10.6 -23.3 10.2 -23.15 10.5 -23.5 10.6" fill="#fddf96" fill-rule="evenodd" stroke="none"/>
    <path d="M-23.65 10.25 Q-23.55 10.3 -23.6 10.4 -23.65 10.5 -23.75 10.4 -23.85 10.35 -23.8 10.25 -23.75 10.15 -23.65 10.25" fill="#e6ba7b" fill-rule="evenodd" stroke="none"/>
    <path d="M-21.25 10.3 L-21.4 10.15 -21.4 10.0 -21.35 10.0 -21.25 10.15 Q-21.2 10.2 -21.25 10.3" fill="#e9ce87" fill-rule="evenodd" stroke="none"/>
    <path d="M-26.25 9.95 L-26.0 10.05 Q-25.9 10.15 -25.7 10.05 L-25.45 10.0 -25.4 10.15 -26.0 10.45 -26.25 10.4 -26.7 9.85 -26.25 9.95" fill="#f1c284" fill-rule="evenodd" stroke="none"/>
    <path d="M-25.5 10.7 L-26.05 10.7 -26.55 10.75 -26.8 10.4 -27.0 10.05 Q-27.0 10.5 -26.7 10.9 L-27.25 10.65 -27.0 10.55 -27.05 10.5 -27.1 9.8 -26.8 9.85 Q-26.75 10.25 -26.5 10.55 L-26.25 10.4 -26.0 10.45 Q-25.75 10.5 -25.5 10.7" fill="#9b7e55" fill-rule="evenodd" stroke="none"/>
    <path d="M-26.8 9.85 L-26.7 9.85 -26.25 10.4 -26.5 10.55 Q-26.75 10.25 -26.8 9.85" fill="#fffebb" fill-rule="evenodd" stroke="none"/>
    <path d="M-25.25 10.75 L-25.3 10.75 -25.35 10.75 -25.05 10.5 -24.8 10.75 -25.25 10.75" fill="#edc68a" fill-rule="evenodd" stroke="none"/>
    <path d="M-25.45 10.0 Q-24.95 9.9 -24.4 10.4 -24.65 10.65 -24.8 10.75 L-25.05 10.5 -25.35 10.75 -25.5 10.7 Q-25.75 10.5 -26.0 10.45 L-25.4 10.15 -25.45 10.0" fill="#c49e6a" fill-rule="evenodd" stroke="none"/>
    <path d="M-27.35 9.75 L-27.1 9.8 -27.05 10.5 Q-27.25 10.05 -27.35 9.75" fill="#ddb479" fill-rule="evenodd" stroke="none"/>
    <path d="M-32.55 -3.85 Q-32.45 -3.95 -32.5 -4.0 -32.6 -4.1 -32.65 -4.05 -32.7 -4.0 -32.65 -3.9 -32.6 -3.8 -32.55 -3.85 M-30.95 -4.15 L-31.15 -4.25 -31.15 -4.25 -31.2 -4.3 -31.45 -4.45 -31.5 -4.45 -31.55 -4.5 -32.05 -4.55 -32.05 -4.45 -32.05 -4.3 -31.9 -3.75 -31.85 -3.65 -31.9 -3.55 -32.05 -3.5 -32.1 -3.95 Q-32.15 -4.05 -32.25 -4.0 -32.35 -3.95 -32.35 -3.85 -32.45 -3.45 -32.95 -3.3 L-32.9 -3.25 -32.85 -3.2 -32.8 -3.15 -32.8 -3.15 -33.2 -2.9 -33.0 -2.5 Q-33.2 -2.45 -33.35 -2.35 L-33.45 -2.1 -33.5 -1.85 -33.45 -1.6 -33.65 -1.5 -33.6 -0.95 -34.0 -0.95 -33.95 -0.4 -34.15 0.0 Q-34.25 0.2 -34.2 0.4 -34.05 0.8 -33.85 1.15 L-34.35 1.3 -34.2 1.75 -34.05 2.3 Q-33.95 2.65 -33.8 2.85 L-34.05 2.9 -33.9 3.95 -33.7 4.95 Q-33.65 5.3 -33.45 5.7 L-33.05 6.35 -32.9 6.5 -32.65 6.6 -32.65 6.75 -32.65 7.6 -32.45 7.1 Q-32.3 7.5 -31.9 7.75 L-31.6 8.0 Q-31.45 8.15 -31.35 8.35 L-31.15 8.15 -31.0 8.9 -30.2 9.25 Q-30.1 9.3 -30.0 9.4 L-29.8 9.65 -28.65 10.1 Q-27.9 10.4 -27.4 10.45 L-27.35 10.5 -27.25 10.65 -26.7 10.9 Q-27.0 10.5 -27.0 10.05 L-26.8 10.4 -26.55 10.75 -26.05 10.7 -25.5 10.7 -25.3 10.75 -25.25 10.75 -25.15 10.8 -24.95 10.85 -24.7 10.85 -24.4 10.7 Q-24.2 10.6 -24.1 10.6 L-23.85 10.55 -23.55 10.6 -23.5 10.6 Q-22.6 10.55 -22.05 10.85 L-21.95 10.7 -22.8 9.85 -23.05 9.65 -22.7 9.55 -22.4 9.7 -22.35 9.95 Q-22.3 10.05 -22.2 10.1 L-21.65 10.25 -22.25 9.75 Q-21.85 9.85 -21.4 10.0 L-21.4 10.15 -21.25 10.3 -20.85 10.6 Q-22.7 11.55 -24.9 11.65 -27.05 11.75 -29.0 10.95 -30.8 10.25 -32.3 8.75 -33.55 7.5 -34.25 6.1 -34.9 4.7 -35.1 3.1 -35.3 1.55 -35.0 -0.05 -34.65 -2.1 -33.4 -3.9 -32.15 -5.65 -30.3 -6.75 L-30.3 -6.3 -30.3 -6.15 -30.3 -6.1 -30.45 -5.8 Q-30.45 -5.65 -30.35 -5.5 -30.45 -5.5 -30.45 -5.4 -30.5 -5.35 -30.45 -5.25 L-31.1 -5.35 -31.1 -4.9 -31.6 -4.8 -31.3 -4.6 -30.85 -4.35 -30.8 -4.3 -30.95 -4.15 M-30.85 -5.8 L-30.8 -5.6 -30.7 -5.45 -30.7 -5.65 Q-30.75 -5.8 -30.85 -5.8 M-33.55 6.05 Q-33.6 5.9 -33.7 5.95 -33.75 6.0 -33.7 6.1 L-33.6 6.15 Q-33.5 6.15 -33.55 6.05" fill="#655237" fill-rule="evenodd" stroke="none"/>
    <path d="M-31.05 -5.2 Q-31.15 -5.15 -31.05 -5.05 -31.0 -4.95 -30.95 -5.05 -30.85 -5.1 -30.9 -5.15 -31.0 -5.25 -31.05 -5.2 M-30.55 -5.05 Q-30.65 -5.15 -30.75 -5.05 -30.8 -5.0 -30.7 -4.9 L-30.55 -4.9 Q-30.5 -4.95 -30.55 -5.05 M-30.35 -5.5 Q-30.45 -5.65 -30.45 -5.8 L-30.3 -6.1 Q-30.25 -6.0 -30.15 -6.05 -30.05 -6.1 -30.15 -6.15 L-30.3 -6.15 -30.3 -6.3 -29.85 -6.35 -29.95 -6.0 -29.5 -6.0 -29.1 -5.5 -29.15 -5.45 -29.65 -5.6 -29.6 -5.25 Q-30.2 -4.85 -30.8 -4.3 L-30.85 -4.35 Q-30.85 -4.5 -31.0 -4.6 L-31.25 -4.8 -31.3 -4.6 -31.6 -4.8 -31.1 -4.9 -31.1 -5.35 -30.45 -5.25 Q-30.35 -5.25 -30.3 -5.35 -30.3 -5.45 -30.35 -5.5 M-30.3 -5.6 Q-30.2 -5.55 -30.15 -5.65 -30.1 -5.7 -30.2 -5.8 -30.3 -5.85 -30.35 -5.75 -30.4 -5.65 -30.3 -5.6" fill="#99744a" fill-rule="evenodd" stroke="none"/>
    <path d="M-32.15 -2.8 L-32.3 -3.0 -32.5 -3.2 -32.7 -3.25 -32.9 -3.25 -32.95 -3.3 Q-32.45 -3.45 -32.35 -3.85 L-32.2 -3.8 Q-32.1 -3.85 -32.1 -3.95 L-32.05 -3.5 -31.9 -3.55 -31.85 -3.65 -31.7 -3.8 -31.35 -3.85 -31.7 -4.05 Q-31.7 -4.1 -31.75 -4.2 -31.8 -4.3 -31.85 -4.2 -31.9 -4.15 -31.85 -4.1 -31.8 -4.05 -31.7 -4.0 L-31.9 -3.75 -32.05 -4.3 Q-31.9 -4.25 -31.9 -4.4 -31.95 -4.55 -32.05 -4.45 L-32.05 -4.55 -31.55 -4.5 -31.5 -4.45 -31.45 -4.45 -31.4 -4.4 -31.7 -4.3 -31.6 -4.1 -31.2 -4.3 -31.15 -4.25 -31.15 -4.25 -30.95 -4.15 Q-31.55 -3.6 -32.15 -2.8 M-32.15 -3.25 Q-32.05 -3.3 -32.05 -3.45 -32.1 -3.6 -32.2 -3.55 -32.25 -3.5 -32.25 -3.4 -32.2 -3.3 -32.15 -3.25" fill="#9a764c" fill-rule="evenodd" stroke="none"/>
    <path d="M-19.6 9.8 L-19.75 9.9 Q-19.95 9.3 -19.8 8.9 -19.75 8.7 -19.65 8.5 L-19.4 8.15 -19.0 8.4 -19.15 8.85 -19.35 8.8 -19.5 8.8 -19.6 8.8 Q-19.55 8.7 -19.55 8.65 -19.55 8.65 -19.6 8.6 -19.75 8.6 -19.65 8.75 -19.5 9.35 -19.6 9.8 M-19.5 8.7 Q-19.25 8.55 -19.3 8.25 -19.5 8.35 -19.5 8.7" fill="#caa06a" fill-rule="evenodd" stroke="none"/>
    <path d="M-31.0 8.9 L-31.15 8.15 -31.35 8.35 Q-31.45 8.15 -31.6 8.0 L-31.9 7.75 Q-32.0 6.95 -32.5 6.8 L-32.65 6.75 -32.65 6.6 Q-32.6 6.15 -32.85 5.9 L-33.3 5.45 -33.7 4.95 -33.9 3.95 -34.05 2.9 -33.45 3.1 Q-33.3 3.75 -33.15 4.3 -32.75 5.6 -31.85 6.75 -31.0 7.8 -29.85 8.65 L-30.55 8.6 -30.6 8.7 -30.9 8.6 -31.0 8.9 M-30.8 8.45 Q-30.75 8.25 -30.75 8.0 -30.9 8.05 -30.9 8.2 -30.9 8.35 -30.8 8.45" fill="#ffffbb" fill-rule="evenodd" stroke="none"/>
    <path d="M-30.6 8.7 L-30.55 8.6 -29.85 8.65 Q-28.85 9.3 -27.6 9.65 -27.55 10.05 -27.5 10.25 -28.15 10.25 -28.75 9.9 L-29.05 9.65 -29.25 9.35 -29.5 9.65 -30.0 9.15 -29.85 8.95 -30.6 8.7 M-29.7 8.9 L-29.75 9.15 -29.35 9.25 Q-29.4 9.15 -29.7 8.9" fill="#fcce8d" fill-rule="evenodd" stroke="none"/>
    <path d="M-23.05 9.65 L-22.8 9.85 -22.95 10.45 -23.15 10.5 -23.3 10.2 -23.55 10.6 -23.85 10.55 -24.1 10.6 Q-24.2 10.6 -24.4 10.7 L-24.7 10.85 -24.95 10.85 -25.15 10.8 -25.25 10.75 -24.8 10.75 Q-24.65 10.65 -24.4 10.4 -24.95 9.9 -25.45 10.0 L-25.7 10.05 Q-25.9 10.15 -26.0 10.05 L-26.25 9.95 -25.2 9.95 -24.1 9.9 -23.5 10.15 Q-23.35 10.1 -23.4 9.95 -23.5 9.85 -23.6 9.8 L-23.55 9.8 -23.05 9.65 M-23.65 10.25 Q-23.75 10.15 -23.8 10.25 -23.85 10.35 -23.75 10.4 -23.65 10.5 -23.6 10.4 -23.55 10.3 -23.65 10.25" fill="#a8875a" fill-rule="evenodd" stroke="none"/>
    <path d="M-28.6 -5.75 L-28.55 -5.75 -28.7 -5.7 -28.6 -5.75 M-26.7 9.85 L-26.8 9.85 -27.1 9.8 -27.35 9.75 -27.6 9.65 -26.25 9.95 -26.7 9.85" fill="#e7dfc7" fill-rule="evenodd" stroke="none"/>
    <path d="M-32.15 -2.8 Q-31.55 -3.6 -30.95 -4.15 L-30.8 -4.3 Q-30.2 -4.85 -29.6 -5.25 L-29.15 -5.45 -29.1 -5.5 -28.7 -5.7 -28.55 -5.75 -28.4 -5.8 -28.35 -5.85 Q-27.15 -6.3 -25.8 -6.35 -24.5 -6.45 -23.25 -6.15 -21.7 -5.75 -20.35 -4.7 -19.05 -3.65 -18.2 -2.25 -17.5 -1.05 -17.25 0.4 -17.05 1.8 -17.25 3.2 -17.45 4.3 -17.95 5.35 -18.45 6.4 -19.25 7.25 -19.75 7.8 -20.35 8.25 L-20.4 8.35 -21.0 8.75 -21.2 8.85 -21.7 9.1 -22.2 9.35 -22.7 9.55 -23.05 9.65 -23.55 9.8 -24.1 9.9 -25.2 9.95 -26.25 9.95 -27.6 9.65 -27.35 9.75 -27.1 9.8 -26.8 9.85 -26.7 9.85 -26.25 9.95 M-33.1 -0.85 L-33.1 -0.95 -33.0 -1.15 -32.55 -2.15 -32.45 -2.35 -32.15 -2.8 M-33.25 -0.4 L-33.15 -0.8 -33.1 -0.85 M-20.85 10.6 Q-22.7 11.55 -24.9 11.65 -27.05 11.75 -29.0 10.95 -30.8 10.25 -32.3 8.75 -33.55 7.5 -34.25 6.1 -34.9 4.7 -35.1 3.1 -35.3 1.55 -35.0 -0.05 -34.65 -2.1 -33.4 -3.9 -32.15 -5.65 -30.3 -6.75 -29.7 -7.1 -28.6 -7.55 -26.7 -8.2 -24.5 -8.0 L-24.5 -7.95 -24.45 -8.0 Q-23.85 -8.0 -23.2 -7.85 -22.5 -7.7 -21.7 -7.4 L-20.25 -6.65 -19.2 -5.9 -19.0 -5.75 Q-18.4 -5.2 -18.0 -4.75 L-17.95 -4.8 -17.95 -4.65 -17.7 -4.4 Q-16.6 -3.1 -16.05 -1.55 -15.7 -0.45 -15.55 0.85 -15.45 1.95 -15.55 3.1 -15.8 4.4 -16.1 5.25 -16.25 5.6 -16.55 6.35 L-16.65 6.4 -16.75 6.5 -16.9 6.85 Q-17.7 8.2 -19.1 9.4 L-19.6 9.8 -19.75 9.9 -20.05 10.1 -20.05 10.1 -20.85 10.6 M-28.6 -5.75 L-28.55 -5.75 M-28.6 -5.75 L-28.7 -5.7 M-29.85 8.65 Q-31.0 7.8 -31.85 6.75 -32.75 5.6 -33.15 4.3 -33.3 3.75 -33.45 3.1 -33.6 2.1 -33.5 0.75 L-33.25 -0.4 M-29.85 8.65 Q-28.85 9.3 -27.6 9.65" fill="none" stroke="#000000" stroke-linecap="round" stroke-linejoin="round" stroke-opacity="0.4509804" stroke-width="1.0"/>
  </g>
</svg>
