<?xml version="1.0" encoding="UTF-8" standalone="no"?>
<svg xmlns:xlink="http://www.w3.org/1999/xlink" height="8.7px" width="39.5px" xmlns="http://www.w3.org/2000/svg">
  <g transform="matrix(1.0, 0.0, 0.0, 1.0, 19.75, 4.35)">
    <path d="M3.4 -2.65 L3.8 -2.65 3.9 -2.1 4.65 -2.15 4.8 -2.2 4.85 -2.2 4.9 -2.2 5.1 -2.2 5.15 -2.65 5.2 -2.7 5.4 -2.65 5.4 -2.65 5.4 -2.2 5.65 -1.8 5.6 -0.25 5.3 -0.25 4.95 -0.25 4.75 0.0 4.5 0.25 Q4.55 0.15 4.65 -0.1 L4.45 0.0 4.55 -0.15 4.8 -0.3 Q4.85 -0.8 4.8 -1.2 L4.5 -1.2 4.4 -1.4 4.7 -1.6 4.9 -1.55 4.7 -1.9 4.35 -1.5 4.35 -1.6 4.4 -2.0 3.95 -2.0 Q3.7 -2.0 3.55 -1.9 3.35 -1.6 3.35 -1.05 L3.35 3.7 2.7 3.7 Q2.65 3.15 2.7 2.15 L2.7 -2.2 3.5 -2.2 3.4 -2.65 M4.95 -0.3 L4.95 -0.85 Q4.95 -1.15 4.9 -1.35 4.85 -1.15 4.85 -0.85 L4.85 -0.3 4.95 -0.3" fill="#ffff87" fill-rule="evenodd" stroke="none"/>
    <path d="M2.25 4.3 Q2.15 4.2 2.15 4.1 L2.15 0.6 2.15 -2.7 2.2 -2.65 2.6 -2.25 2.6 3.75 2.6 3.8 2.45 3.8 2.25 3.8 2.25 4.3" fill="#c0974c" fill-rule="evenodd" stroke="none"/>
    <path d="M2.2 -2.65 L2.5 -2.65 2.7 -2.2 2.7 2.15 Q2.65 3.15 2.7 3.7 L3.35 3.7 3.35 3.8 2.6 3.75 2.6 -2.25 2.2 -2.65 M-0.35 3.3 L-0.25 3.2 -0.3 3.65 0.0 3.7 0.25 3.8 -0.6 3.85 -1.45 3.85 -1.3 3.75 -0.4 3.75 Q-0.55 3.6 -0.85 3.5 -0.5 3.55 -0.35 3.3 M4.2 -2.45 Q4.3 -2.55 4.4 -2.6 L4.55 -2.2 4.1 -2.2 4.2 -2.45 M14.9 1.5 L15.0 1.5 14.9 2.0 Q14.8 2.25 14.85 2.45 L14.35 2.15 14.4 2.75 Q14.4 3.05 14.3 3.25 L14.15 3.25 14.15 3.05 14.15 2.55 14.1 2.0 13.9 1.5 14.05 1.5 14.15 2.0 14.85 2.0 14.9 1.5" fill="#ffd56f" fill-rule="evenodd" stroke="none"/>
    <path d="M2.5 -2.65 L3.4 -2.65 3.5 -2.2 2.7 -2.2 2.5 -2.65" fill="#8d713d" fill-rule="evenodd" stroke="none"/>
    <path d="M-0.25 -2.7 L0.95 -2.55 0.95 -2.5 Q0.9 -2.1 1.05 -1.9 L0.75 -2.15 Q0.75 -2.7 0.35 -2.65 L0.45 -2.2 0.25 -2.25 Q0.0 -2.35 -0.1 -2.4 -0.25 -2.55 -0.25 -2.7" fill="#dba952" fill-rule="evenodd" stroke="none"/>
    <path d="M4.35 -1.6 L4.0 -1.55 Q3.9 -1.5 3.9 -1.4 L3.85 -1.15 3.85 4.25 3.1 4.25 2.3 4.25 2.6 3.9 2.45 3.8 2.6 3.8 2.6 3.75 3.35 3.8 3.35 3.7 3.35 -1.05 Q3.35 -1.6 3.55 -1.9 3.7 -2.0 3.95 -2.0 L4.4 -2.0 4.35 -1.6 M0.95 -2.5 Q1.3 -2.4 1.5 -2.1 1.75 -1.8 1.75 -1.4 L1.75 1.3 -0.5 1.3 -0.5 3.05 -0.35 3.3 Q-0.5 3.55 -0.85 3.5 -1.05 3.0 -1.05 2.65 L-1.05 1.9 Q-1.05 1.45 -0.95 1.2 -0.95 1.0 -0.75 0.9 -0.6 0.85 -0.35 0.85 L1.25 0.85 1.25 -1.45 1.05 -1.9 Q0.9 -2.1 0.95 -2.5" fill="#4d3d1f" fill-rule="evenodd" stroke="none"/>
    <path d="M-1.5 4.1 L-1.8 3.95 Q-1.9 3.75 -1.75 3.7 L-1.45 3.6 -1.65 3.25 Q-1.65 3.4 -1.8 3.5 -1.9 3.55 -2.05 3.6 L-2.2 3.05 -1.85 3.1 Q-1.75 2.75 -1.75 2.55 L-1.75 -1.35 -1.7 -1.5 -1.55 -1.65 -1.7 -1.6 -1.6 -1.9 Q-1.5 -2.0 -1.55 -2.15 L-1.7 -2.4 -1.2 -2.6 -0.95 -2.25 -1.0 -2.1 -0.85 -2.1 -0.6 -2.2 0.25 -2.25 0.45 -2.2 0.35 -2.65 Q0.75 -2.7 0.75 -2.15 L1.05 -1.9 1.25 -1.45 Q0.9 -1.3 0.6 -1.25 L0.5 -1.35 0.45 0.2 0.4 0.15 0.4 -0.05 0.45 -1.25 0.05 -1.15 0.05 -1.45 0.3 -1.7 0.55 -1.5 0.3 -1.9 0.0 -1.5 -0.05 -1.65 0.0 -2.0 -0.75 -2.0 Q-0.95 -1.75 -1.0 -1.45 L-1.2 -0.95 -1.25 -1.4 -1.65 -1.3 -1.7 0.55 -1.7 2.35 Q-1.7 2.55 -1.6 2.65 L-1.35 2.85 -1.05 2.65 Q-1.05 3.0 -0.85 3.5 L-1.3 3.75 -1.45 3.85 -1.5 4.1 M-1.3 -2.0 Q-1.4 -2.0 -1.5 -1.9 -1.6 -1.8 -1.6 -1.7 -1.5 -1.7 -1.4 -1.8 -1.3 -1.9 -1.3 -2.0" fill="#ffff7d" fill-rule="evenodd" stroke="none"/>
    <path d="M0.45 0.2 L0.5 -1.35 0.6 -1.25 0.6 -0.45 0.55 0.35 0.45 0.2" fill="#7a6133" fill-rule="evenodd" stroke="none"/>
    <path d="M0.0 -1.5 L0.3 -1.9 0.55 -1.5 0.3 -1.7 0.05 -1.45 0.05 -1.15 0.05 -0.6 Q0.05 -0.25 0.05 -0.05 L0.4 -0.05 0.4 0.15 Q0.4 0.35 0.35 0.4 L0.1 0.45 0.05 0.3 0.05 -0.6 Q0.05 -1.15 0.0 -1.5" fill="#604c2a" fill-rule="evenodd" stroke="none"/>
    <path d="M0.05 -1.15 L0.45 -1.25 0.4 -0.05 0.05 -0.05 Q0.05 -0.25 0.05 -0.6 L0.05 -1.15" fill="#c39b49" fill-rule="evenodd" stroke="none"/>
    <path d="M0.6 -1.25 Q0.9 -1.3 1.25 -1.45 L1.25 0.85 -0.35 0.85 Q-0.6 0.85 -0.75 0.9 -0.95 1.0 -0.95 1.2 -1.05 1.45 -1.05 1.9 L-1.05 2.65 -1.35 2.85 -1.6 2.65 Q-1.7 2.55 -1.7 2.35 L-1.7 0.55 -1.65 -1.3 -1.25 -1.4 -1.2 -0.95 -1.0 -1.45 -1.05 -0.1 -1.0 0.25 Q-0.95 0.45 -0.8 0.55 -0.55 0.65 -0.3 0.3 L0.05 0.3 0.1 0.45 0.35 0.4 Q0.4 0.35 0.4 0.15 L0.45 0.2 0.55 0.35 0.6 -0.45 0.6 -1.25 M0.5 0.5 Q0.3 0.45 0.3 0.65 0.5 0.7 0.5 0.5 M-14.6 -0.65 L-13.95 -0.55 -13.95 -0.1 Q-13.95 0.25 -13.9 0.4 -13.8 0.65 -13.55 0.55 -13.3 0.5 -13.3 0.3 L-13.15 0.3 -13.35 0.75 -13.85 0.7 -13.65 0.9 Q-14.0 1.1 -13.95 1.5 L-14.6 1.5 -14.6 1.35 -14.6 -0.65 M-13.15 0.3 L-13.15 0.3 -13.3 0.3 -13.15 0.3" fill="#ffff92" fill-rule="evenodd" stroke="none"/>
    <path d="M3.8 -2.65 L4.05 -2.55 4.5 -2.7 4.65 -2.15 3.9 -2.1 3.8 -2.65 M4.2 -2.45 L4.1 -2.2 4.55 -2.2 4.4 -2.6 Q4.3 -2.55 4.2 -2.45 M-13.7 -2.15 Q-14.25 -2.05 -14.55 -1.6 L-14.7 -1.6 -14.65 -1.7 -14.3 -1.95 -13.9 -2.2 -13.7 -2.15 M-6.15 0.65 L-6.4 0.25 Q-6.05 0.25 -5.9 0.0 L-5.7 0.3 -6.0 0.4 Q-6.15 0.45 -6.15 0.65" fill="#9e7131" fill-rule="evenodd" stroke="none"/>
    <path d="M7.6 -3.95 L7.65 -3.9 7.65 -3.8 6.95 -3.8 6.95 -2.0 6.95 -1.8 6.95 -1.2 6.95 0.3 6.95 0.65 6.95 0.8 6.95 1.75 6.95 3.7 6.85 3.7 6.85 -3.8 6.45 -3.9 6.45 -4.2 6.95 -3.8 6.85 -4.1 6.85 -4.15 7.6 -3.95" fill="#654e28" fill-rule="evenodd" stroke="none"/>
    <path d="M7.6 -3.95 L7.65 -4.3 7.9 -4.3 7.8 -4.1 7.65 -3.9 7.6 -3.95" fill="#f1cf76" fill-rule="evenodd" stroke="none"/>
    <path d="M7.65 -3.9 L7.8 -4.1 7.9 -4.3 8.1 -4.35 8.1 -0.7 8.2 -0.75 8.15 -0.3 8.4 -0.3 8.65 -0.35 8.65 -0.3 Q8.6 -0.2 8.4 -0.15 L8.15 -0.15 8.15 -0.15 8.05 -0.15 8.1 -0.5 7.75 -0.3 7.6 -0.5 7.6 -1.75 7.6 -1.9 7.6 -2.45 Q7.6 -3.35 7.65 -3.8 L7.65 -3.9" fill="#4a391d" fill-rule="evenodd" stroke="none"/>
    <path d="M7.65 -4.3 L7.6 -3.95 6.85 -4.15 6.75 -4.3 7.65 -4.3" fill="#96763b" fill-rule="evenodd" stroke="none"/>
    <path d="M6.75 -4.3 L6.85 -4.15 6.85 -4.1 6.95 -3.8 6.45 -4.2 6.45 -3.9 6.85 -3.8 6.85 3.7 6.8 3.75 Q6.75 3.15 6.75 2.15 L6.75 -1.2 6.7 -2.95 6.65 -2.55 Q6.65 -2.3 6.55 -2.15 L6.45 -3.0 6.4 -3.85 6.45 -4.3 6.75 -4.3" fill="#c19951" fill-rule="evenodd" stroke="none"/>
    <path d="M6.4 -3.85 L6.45 -3.0 6.55 -2.15 Q6.65 -2.3 6.65 -2.55 L6.7 -2.95 6.75 -1.2 6.75 2.15 Q6.75 3.15 6.8 3.75 L6.5 3.85 Q6.55 3.95 6.55 4.1 L6.5 4.3 Q6.4 4.2 6.4 3.95 L6.4 -0.1 6.4 -3.85" fill="#bc8f4b" fill-rule="evenodd" stroke="none"/>
    <path d="M6.95 -2.0 L6.95 -3.8 7.65 -3.8 Q7.6 -3.35 7.6 -2.45 7.4 -2.25 7.05 -2.2 L6.95 -2.0" fill="#ffff8f" fill-rule="evenodd" stroke="none"/>
    <path d="M4.5 -2.7 L4.85 -2.75 5.2 -2.7 5.15 -2.65 5.0 -2.65 Q4.85 -2.65 4.9 -2.5 L4.9 -2.2 4.85 -2.2 4.8 -2.2 4.65 -2.15 4.5 -2.7 M-1.8 3.95 L-2.05 3.6 Q-1.9 3.55 -1.8 3.5 -1.65 3.4 -1.65 3.25 L-1.45 3.6 -1.75 3.7 Q-1.9 3.75 -1.8 3.95 M-16.45 -4.1 Q-15.9 -3.85 -15.7 -3.5 -15.55 -3.2 -15.55 -2.8 L-15.55 -1.5 Q-15.55 -1.15 -15.7 -0.95 -15.85 -0.75 -16.1 -0.55 L-16.55 -0.35 Q-16.15 -0.2 -15.9 0.0 -15.55 0.25 -15.5 0.6 L-15.5 2.1 -15.5 2.7 Q-15.5 3.1 -15.6 3.35 -15.85 3.75 -16.3 4.0 -16.75 4.25 -17.25 4.25 L-19.65 4.25 -19.5 4.1 Q-19.45 3.95 -19.55 3.85 L-19.4 4.0 -19.25 3.8 -18.3 3.8 -17.35 3.75 Q-16.9 3.75 -16.55 3.55 -16.15 3.3 -16.05 2.95 -16.0 2.5 -16.0 1.9 L-16.0 0.85 Q-16.0 0.65 -16.1 0.45 L-16.35 0.15 -16.65 0.05 Q-16.85 0.0 -16.9 -0.2 -16.95 -0.35 -16.9 -0.55 -16.85 -0.75 -16.7 -0.85 L-16.3 -1.1 Q-16.1 -1.3 -16.05 -1.5 -16.0 -1.85 -16.05 -2.85 -16.05 -3.1 -16.2 -3.3 L-16.45 -3.7 -16.45 -4.1 M-17.6 -0.55 L-17.55 -0.5 -17.35 -0.4 -17.75 -0.4 -17.45 -0.2 -17.45 0.1 -17.45 0.15 -17.9 0.1 -17.9 1.65 Q-17.9 2.6 -17.85 3.2 L-17.8 3.15 -17.8 3.2 Q-17.85 3.3 -18.0 3.4 -18.15 3.45 -18.25 3.35 -18.4 3.1 -18.4 2.75 L-18.4 0.35 Q-18.4 0.1 -18.3 -0.2 -18.2 -0.3 -18.05 -0.3 L-17.8 -0.35 -17.75 -0.7 -17.6 -0.55 M-10.3 3.7 L-10.3 -2.2 -10.75 -2.3 -10.75 -2.6 -10.25 -2.2 -10.35 -2.45 -9.9 -2.35 Q-9.65 -2.3 -9.5 -2.2 L-10.25 -2.2 -10.25 0.5 -10.25 3.7 -10.3 3.7 M-1.3 -2.0 Q-1.3 -1.9 -1.4 -1.8 -1.5 -1.7 -1.6 -1.7 -1.6 -1.8 -1.5 -1.9 -1.4 -2.0 -1.3 -2.0" fill="#4f4125" fill-rule="evenodd" stroke="none"/>
    <path d="M4.9 -2.2 L4.9 -2.5 Q4.85 -2.65 5.0 -2.65 L5.15 -2.65 5.1 -2.2 4.9 -2.2 M13.65 0.3 L13.85 0.4 Q13.95 0.45 14.0 0.35 L14.1 0.25 14.05 0.45 Q13.9 0.7 13.5 0.65 L13.45 0.3 13.65 0.3" fill="#ffc658" fill-rule="evenodd" stroke="none"/>
    <path d="M5.4 -2.65 Q5.7 -2.5 5.9 -2.3 6.1 -2.1 6.1 -1.8 L6.1 0.2 5.25 0.25 4.35 0.25 4.45 0.0 4.65 -0.1 Q4.55 0.15 4.5 0.25 L4.75 0.0 4.95 -0.25 5.3 -0.25 5.6 -0.25 5.65 -1.8 5.4 -2.2 5.4 -2.65" fill="#4c3c1e" fill-rule="evenodd" stroke="none"/>
    <path d="M4.45 0.0 L4.4 0.1 4.4 -1.45 4.4 -1.4 4.5 -1.2 4.8 -1.2 Q4.85 -0.8 4.8 -0.3 L4.55 -0.15 4.45 0.0" fill="#c99f50" fill-rule="evenodd" stroke="none"/>
    <path d="M4.4 -1.45 L4.35 -1.5 4.7 -1.9 4.9 -1.55 4.7 -1.6 4.4 -1.4 4.4 -1.45" fill="#886c33" fill-rule="evenodd" stroke="none"/>
    <path d="M4.95 -0.3 L4.85 -0.3 4.85 -0.85 Q4.85 -1.15 4.9 -1.35 4.95 -1.15 4.95 -0.85 L4.95 -0.3" fill="#735b31" fill-rule="evenodd" stroke="none"/>
    <path d="M6.95 -1.8 L6.95 -2.0 7.05 -2.2 Q7.4 -2.25 7.6 -2.45 L7.6 -1.9 6.95 -1.8" fill="#ffff75" fill-rule="evenodd" stroke="none"/>
    <path d="M6.95 -1.2 L6.95 -1.8 7.6 -1.9 7.6 -1.75 Q7.35 -1.4 6.95 -1.2" fill="#fffb9e" fill-rule="evenodd" stroke="none"/>
    <path d="M6.95 0.3 L6.95 -1.2 Q7.35 -1.4 7.6 -1.75 L7.6 -0.5 7.35 -0.45 Q7.2 -0.4 7.15 -0.3 7.05 -0.05 6.95 0.3" fill="#fff778" fill-rule="evenodd" stroke="none"/>
    <path d="M6.95 0.65 L6.95 0.3 Q7.05 -0.05 7.15 -0.3 7.2 -0.4 7.35 -0.45 L7.6 -0.5 7.75 -0.3 8.1 -0.5 8.05 -0.15 8.15 -0.15 8.2 -0.1 8.25 -0.1 8.3 -0.05 8.6 0.1 8.65 0.3 8.25 0.45 Q8.45 0.7 8.85 0.95 L8.35 0.9 7.95 0.35 7.75 0.5 Q7.65 0.75 7.5 0.9 7.4 0.75 7.3 0.65 L6.95 0.65" fill="#ffed87" fill-rule="evenodd" stroke="none"/>
    <path d="M6.95 0.8 L6.95 0.65 7.3 0.65 Q7.4 0.75 7.5 0.9 7.65 0.75 7.75 0.5 L7.95 0.35 8.35 0.9 8.85 0.95 Q8.45 0.7 8.25 0.45 L8.65 0.3 8.6 0.1 8.3 -0.05 8.25 -0.1 8.2 -0.1 8.15 -0.15 8.15 -0.15 8.4 -0.15 Q8.6 -0.2 8.65 -0.3 L8.8 -0.45 8.65 -0.8 8.8 -0.75 Q8.75 -0.95 8.85 -1.3 L9.0 -1.15 9.1 -1.5 9.0 -1.7 9.25 -1.65 Q9.1 -1.85 9.25 -2.2 L9.0 -2.65 9.25 -2.65 9.35 -2.3 9.4 -2.2 9.95 -2.2 10.1 -2.35 10.3 -2.65 10.5 -2.65 10.15 -2.3 Q9.95 -2.1 9.9 -1.9 L9.25 -0.35 9.1 0.15 Q9.0 0.45 9.1 0.65 L9.9 2.5 9.35 2.65 9.25 2.35 9.0 2.45 8.85 2.15 8.8 2.05 8.8 2.0 Q8.65 1.75 8.5 1.6 L8.55 1.3 8.55 1.2 7.5 1.25 Q7.4 1.25 7.3 1.1 L7.15 0.9 7.0 0.85 6.95 0.85 6.95 0.8" fill="#ffe774" fill-rule="evenodd" stroke="none"/>
    <path d="M10.5 -2.65 L10.8 -2.65 9.55 0.35 11.2 4.25 Q9.85 4.25 9.15 4.25 L9.55 3.75 10.4 3.75 10.35 3.7 10.1 3.0 9.9 2.5 9.1 0.65 Q9.0 0.45 9.1 0.15 L9.25 -0.35 9.9 -1.9 Q9.95 -2.1 10.15 -2.3 L10.5 -2.65 M17.55 -2.45 L17.85 -2.6 17.8 -2.25 18.15 -2.15 17.55 -2.1 17.55 -2.45" fill="#463218" fill-rule="evenodd" stroke="none"/>
    <path d="M8.35 -1.05 L8.7 -1.85 8.95 -2.65 9.0 -2.65 9.25 -2.2 Q9.1 -1.85 9.25 -1.65 L9.0 -1.7 9.1 -1.5 9.0 -1.15 8.85 -1.3 Q8.75 -0.95 8.8 -0.75 L8.65 -0.8 8.8 -0.45 8.4 -0.6 Q8.35 -0.9 8.35 -1.05" fill="#513c1f" fill-rule="evenodd" stroke="none"/>
    <path d="M10.1 -2.35 L9.95 -2.2 9.4 -2.2 9.35 -2.3 Q9.5 -2.4 9.7 -2.4 L9.75 -2.4 10.05 -2.35 10.1 -2.35" fill="#614623" fill-rule="evenodd" stroke="none"/>
    <path d="M9.25 -2.65 L10.3 -2.65 10.1 -2.35 10.05 -2.35 9.75 -2.4 9.7 -2.4 Q9.5 -2.4 9.35 -2.3 L9.25 -2.65" fill="#916937" fill-rule="evenodd" stroke="none"/>
    <path d="M8.65 -0.3 L8.65 -0.35 8.4 -0.3 8.15 -0.3 8.2 -0.75 8.35 -1.05 Q8.35 -0.9 8.4 -0.6 L8.8 -0.45 8.65 -0.3" fill="#ffca69" fill-rule="evenodd" stroke="none"/>
    <path d="M12.4 -2.6 Q12.55 -2.5 12.75 -2.25 L12.1 -1.9 11.95 -2.4 12.4 -2.6" fill="#ffcd62" fill-rule="evenodd" stroke="none"/>
    <path d="M11.95 -2.4 L12.1 -1.9 12.75 -2.25 Q12.55 -2.5 12.4 -2.6 L12.8 -2.65 13.1 -2.35 12.95 -2.15 Q12.4 -2.1 12.0 -1.6 L11.95 -1.75 11.95 -2.0 11.65 -2.1 11.95 -2.4" fill="#a07437" fill-rule="evenodd" stroke="none"/>
    <path d="M11.95 -1.75 L12.0 -1.6 Q12.4 -2.1 12.95 -2.15 L13.1 -2.1 12.85 -1.95 Q12.7 -1.85 12.7 -1.7 12.5 -0.75 12.65 0.5 L12.45 0.85 12.65 1.05 12.3 1.3 11.8 1.0 11.8 -0.95 Q11.8 -1.05 11.9 -1.3 11.95 -1.55 11.95 -1.7 L11.95 -1.75" fill="#ffdb67" fill-rule="evenodd" stroke="none"/>
    <path d="M11.65 -2.1 L11.95 -2.0 11.95 -1.75 11.95 -1.7 11.7 -1.4 11.4 -1.55 Q11.5 -1.8 11.65 -2.1" fill="#553c20" fill-rule="evenodd" stroke="none"/>
    <path d="M11.4 -1.55 L11.7 -1.4 11.95 -1.7 Q11.95 -1.55 11.9 -1.3 11.8 -1.05 11.8 -0.95 L11.8 1.0 11.8 2.8 11.4 2.55 11.4 -1.55" fill="#a97835" fill-rule="evenodd" stroke="none"/>
    <path d="M15.85 -2.65 L16.1 -2.65 16.3 -2.2 17.1 -2.2 17.1 -2.65 17.5 -2.65 17.55 -2.45 17.55 -2.1 18.15 -2.15 17.8 -2.25 17.85 -2.6 17.9 -2.65 18.2 -2.2 18.5 -2.2 18.7 -2.15 18.4 -1.85 18.25 -1.8 18.15 -1.65 Q18.05 -1.6 18.0 -1.65 L18.0 -1.95 17.65 -2.0 17.3 -2.0 Q17.15 -1.9 17.1 -1.75 17.0 -1.6 17.0 -1.45 L17.0 1.2 16.9 1.15 16.65 1.6 Q16.5 1.55 16.25 1.45 L16.25 2.5 16.55 2.6 Q16.7 2.65 16.8 2.8 L16.45 3.1 16.55 3.25 16.35 3.7 17.0 3.7 17.0 3.75 16.7 3.75 16.35 3.8 16.2 3.9 16.0 4.1 16.0 3.85 15.85 4.15 15.8 4.15 15.8 3.85 16.15 3.8 16.2 1.95 16.2 0.05 16.7 -0.15 16.85 -0.55 Q16.7 -0.8 16.65 -0.95 16.6 -1.2 16.7 -1.45 L16.5 -2.0 16.2 -1.9 Q16.25 -2.15 16.15 -2.35 L15.85 -2.65" fill="#ffba31" fill-rule="evenodd" stroke="none"/>
    <path d="M15.8 0.15 Q15.75 -1.85 15.8 -2.7 L15.85 -2.65 16.15 -2.35 Q16.25 -2.15 16.2 -1.9 L16.2 -1.35 15.95 -1.3 Q16.1 -1.0 16.05 -0.6 16.0 -0.2 15.8 0.15" fill="#a36f35" fill-rule="evenodd" stroke="none"/>
    <path d="M12.95 -2.15 L13.1 -2.35 12.8 -2.65 13.35 -2.75 13.85 -2.7 13.3 -2.65 13.5 -2.25 13.3 -2.2 12.95 -2.15" fill="#503a1b" fill-rule="evenodd" stroke="none"/>
    <path d="M13.3 -2.2 L13.5 -2.25 13.3 -2.65 13.85 -2.7 13.9 -2.2 13.3 -2.2" fill="#b9833b" fill-rule="evenodd" stroke="none"/>
    <path d="M12.65 0.5 Q12.5 -0.75 12.7 -1.7 12.7 -1.85 12.85 -1.95 L13.1 -2.1 13.6 -2.0 13.65 -1.55 13.9 -1.9 14.1 -1.65 13.9 -1.7 13.7 -1.4 13.7 -1.15 13.65 -0.1 13.95 -0.05 14.0 0.35 Q13.95 0.45 13.85 0.4 L13.65 0.3 13.65 -0.55 Q13.6 -1.15 13.65 -1.45 L13.4 -1.65 13.2 -1.55 Q13.1 -1.45 13.1 -1.35 L13.1 0.3 13.3 0.3 Q13.2 0.45 13.0 0.55 L12.65 0.5" fill="#453219" fill-rule="evenodd" stroke="none"/>
    <path d="M13.1 -2.1 L12.95 -2.15 13.3 -2.2 13.9 -2.2 13.85 -2.7 14.55 -2.55 14.5 -2.1 14.8 -1.7 14.6 -1.6 14.45 -1.45 14.65 -0.95 Q14.7 -0.7 14.7 -0.5 14.5 0.05 14.15 0.3 L14.15 0.15 Q14.1 -0.6 14.15 -1.25 L13.7 -1.15 13.7 -1.15 13.7 -1.4 13.9 -1.7 14.1 -1.65 13.9 -1.9 13.65 -1.55 13.6 -2.0 13.1 -2.1 M14.1 -1.5 Q13.95 -1.3 14.15 -1.25 14.25 -1.45 14.1 -1.5" fill="#ffdb74" fill-rule="evenodd" stroke="none"/>
    <path d="M14.1 -1.5 Q14.25 -1.45 14.15 -1.25 13.95 -1.3 14.1 -1.5" fill="#705130" fill-rule="evenodd" stroke="none"/>
    <path d="M14.0 0.35 L13.95 -0.05 13.65 -0.1 13.7 -1.15 13.7 -1.15 14.15 -1.25 Q14.1 -0.6 14.15 0.15 L14.15 0.2 14.1 0.25 14.0 0.35" fill="#ab7b49" fill-rule="evenodd" stroke="none"/>
    <path d="M15.8 3.85 L15.8 0.15 Q16.0 -0.2 16.05 -0.6 16.1 -1.0 15.95 -1.3 L16.2 -1.35 16.2 0.05 16.2 1.95 16.15 3.8 15.8 3.85" fill="#9e6a1e" fill-rule="evenodd" stroke="none"/>
    <path d="M14.8 -1.7 L14.5 -2.1 14.55 -2.55 Q14.9 -2.4 15.1 -2.1 15.35 -1.8 15.35 -1.45 L15.35 1.3 13.1 1.3 13.1 3.0 Q13.15 3.15 13.2 3.2 L13.3 3.25 13.15 3.45 Q13.05 3.6 12.95 3.55 12.7 3.5 12.65 3.15 12.5 2.05 12.65 1.05 12.95 0.85 13.45 0.85 L14.3 0.85 14.85 0.85 14.85 -0.45 Q14.85 -1.2 14.8 -1.7" fill="#433015" fill-rule="evenodd" stroke="none"/>
    <path d="M11.8 1.0 L12.3 1.3 12.65 1.05 Q12.5 2.05 12.65 3.15 12.7 3.5 12.95 3.55 13.05 3.6 13.15 3.45 L13.3 3.25 13.4 3.3 13.25 3.7 13.45 3.7 13.4 3.75 12.4 3.8 12.4 3.6 11.9 3.1 11.85 3.45 11.5 3.5 11.5 3.35 11.55 3.25 11.8 3.1 11.8 2.8 11.8 1.0 M14.15 0.3 Q14.5 0.05 14.7 -0.5 14.7 -0.7 14.65 -0.95 L14.45 -1.45 14.6 -1.6 14.8 -1.7 Q14.85 -1.2 14.85 -0.45 L14.85 0.85 14.3 0.85 14.1 0.55 14.15 0.3" fill="#ffce5c" fill-rule="evenodd" stroke="none"/>
    <path d="M19.05 -2.6 L19.1 -2.65 Q19.7 -2.3 19.75 -1.85 L19.75 0.25 18.15 0.2 18.45 -0.05 18.35 -0.2 18.45 -0.25 19.25 -0.25 19.25 -0.95 19.25 -1.5 Q19.25 -1.65 19.1 -2.05 18.95 -2.4 19.05 -2.6 M0.5 0.5 Q0.5 0.7 0.3 0.65 0.3 0.45 0.5 0.5" fill="#3d270c" fill-rule="evenodd" stroke="none"/>
    <path d="M17.9 -2.65 L18.35 -2.7 18.8 -2.7 18.7 -2.7 18.5 -2.7 18.5 -2.2 18.2 -2.2 17.9 -2.65" fill="#623f18" fill-rule="evenodd" stroke="none"/>
    <path d="M18.5 -2.2 L18.5 -2.7 18.7 -2.7 18.7 -2.15 18.5 -2.2" fill="#ae6f30" fill-rule="evenodd" stroke="none"/>
    <path d="M18.8 -2.7 L19.05 -2.6 Q18.95 -2.4 19.1 -2.05 19.25 -1.65 19.25 -1.5 L19.0 -1.75 Q18.9 -1.85 18.75 -1.8 18.7 -1.5 18.7 -1.35 L19.25 -0.95 19.25 -0.25 18.45 -0.25 18.45 -1.2 18.05 -1.1 18.05 -1.45 18.35 -1.65 18.55 -1.25 18.4 -1.85 18.7 -2.15 18.7 -2.7 18.8 -2.7" fill="#ffae48" fill-rule="evenodd" stroke="none"/>
    <path d="M18.05 -1.45 L17.85 -1.55 Q17.7 -1.65 17.6 -1.55 17.5 -1.5 17.5 -1.35 L17.5 4.25 15.75 4.25 15.85 4.15 16.0 3.85 16.0 4.1 16.2 3.9 16.35 3.8 16.7 3.75 17.0 3.75 17.0 3.7 17.0 2.45 17.0 2.05 17.0 1.2 17.0 -1.45 Q17.0 -1.6 17.1 -1.75 17.15 -1.9 17.3 -2.0 L17.65 -2.0 18.0 -1.95 18.0 -1.65 Q18.05 -1.6 18.15 -1.65 L18.25 -1.8 18.4 -1.85 18.55 -1.25 18.35 -1.65 18.05 -1.45 M14.15 0.15 L14.15 0.3 14.1 0.55 Q13.9 0.7 13.65 0.75 L13.15 0.7 13.35 0.55 13.35 0.3 13.45 0.3 13.5 0.65 Q13.9 0.7 14.05 0.45 L14.1 0.25 14.15 0.2 14.15 0.15 M-12.95 -1.5 L-12.6 -1.9 Q-12.45 -1.65 -12.4 -1.4 L-12.6 -1.75 -12.9 -1.4 -12.95 -1.5 M-8.5 -1.45 L-8.6 -1.45 -8.25 -1.85 Q-8.1 -1.7 -8.05 -1.4 L-8.25 -1.7 -8.5 -1.45" fill="#3f2a0d" fill-rule="evenodd" stroke="none"/>
    <path d="M16.2 -1.35 L16.2 -1.9 16.5 -2.0 16.7 -1.45 Q16.6 -1.2 16.65 -0.95 16.7 -0.8 16.85 -0.55 L16.7 -0.15 16.2 0.05 16.2 -1.35" fill="#ffbc51" fill-rule="evenodd" stroke="none"/>
    <path d="M16.1 -2.65 L17.1 -2.65 17.1 -2.2 16.3 -2.2 16.1 -2.65" fill="#764f17" fill-rule="evenodd" stroke="none"/>
    <path d="M18.05 -0.2 L18.05 -1.1 18.45 -1.2 18.45 -0.25 18.35 -0.2 18.05 -0.2" fill="#9c6623" fill-rule="evenodd" stroke="none"/>
    <path d="M19.25 -0.95 L18.7 -1.35 Q18.7 -1.5 18.75 -1.8 18.9 -1.85 19.0 -1.75 L19.25 -1.5 19.25 -0.95" fill="#ffb61c" fill-rule="evenodd" stroke="none"/>
    <path d="M18.15 0.2 L18.05 0.3 18.05 -0.2 18.35 -0.2 18.45 -0.05 18.15 0.2" fill="#c37c15" fill-rule="evenodd" stroke="none"/>
    <path d="M-19.3 -4.25 L-18.45 -4.25 -17.65 -4.3 -16.8 -4.2 -17.1 -4.2 -17.0 -3.85 -17.2 -3.85 -17.65 -4.15 -18.4 -4.15 -19.15 -4.15 -19.3 -4.25" fill="#faca5f" fill-rule="evenodd" stroke="none"/>
    <path d="M-16.8 -4.2 L-16.45 -4.1 -16.45 -3.7 -16.2 -3.3 Q-16.05 -3.1 -16.05 -2.85 -16.0 -1.85 -16.05 -1.5 -16.1 -1.3 -16.3 -1.1 L-16.7 -0.85 Q-16.85 -0.75 -16.9 -0.55 -16.95 -0.35 -16.9 -0.2 -16.85 0.0 -16.65 0.05 L-16.35 0.15 -16.1 0.45 Q-16.0 0.65 -16.0 0.85 L-16.0 1.9 Q-16.0 2.5 -16.05 2.95 -16.15 3.3 -16.55 3.55 -16.9 3.75 -17.35 3.75 L-18.3 3.8 -19.25 3.8 -19.4 4.0 -19.55 3.85 Q-19.45 3.95 -19.5 4.1 L-19.65 4.25 -19.7 4.3 -19.75 3.85 -19.5 3.75 Q-19.35 3.75 -19.35 3.6 L-19.35 -3.8 Q-19.35 -3.95 -19.45 -4.1 L-19.65 -4.3 -19.45 -4.3 -19.2 -3.8 -17.2 -3.85 -17.0 -3.85 -17.1 -4.2 -16.8 -4.2 M-17.4 -3.05 L-17.5 -3.1 -17.45 -3.35 Q-17.4 -3.5 -17.55 -3.55 L-18.1 -3.6 Q-18.35 -3.5 -18.4 -3.05 L-18.4 -1.25 Q-18.4 -0.8 -18.2 -0.6 L-18.0 -0.6 -17.8 -0.7 -17.85 -0.8 -17.85 -0.8 -17.75 -0.7 -17.8 -0.35 -18.05 -0.3 Q-18.2 -0.3 -18.3 -0.2 -18.4 0.1 -18.4 0.35 L-18.4 2.75 Q-18.4 3.1 -18.25 3.35 -18.15 3.45 -18.0 3.4 -17.85 3.3 -17.8 3.2 L-17.75 3.25 -17.8 3.6 -17.35 3.55 -17.6 3.45 Q-17.65 3.35 -17.55 3.2 L-17.45 3.05 -17.1 3.4 -17.35 3.5 Q-17.15 3.55 -17.0 3.4 -16.9 3.25 -16.9 3.05 L-17.0 3.25 -17.1 3.1 -17.0 3.05 -16.95 2.8 -16.95 2.85 -16.8 2.85 Q-16.7 2.7 -16.85 2.65 L-16.8 2.5 Q-16.75 2.1 -16.8 1.6 L-16.8 0.65 -16.8 0.4 -16.85 0.4 -16.9 0.55 -17.05 0.5 -17.25 0.5 -17.3 0.3 -17.05 0.05 -16.85 0.3 Q-16.9 0.05 -17.05 -0.05 -17.2 -0.1 -17.3 0.1 L-17.45 0.1 -17.45 -0.2 -17.75 -0.4 -17.35 -0.4 -17.55 -0.5 -17.55 -0.9 -17.35 -0.75 Q-17.2 -0.65 -17.2 -0.55 L-17.2 -0.5 -16.95 -0.6 -17.1 -0.8 Q-17.0 -1.0 -16.95 -1.2 L-16.95 -1.15 Q-16.85 -1.0 -16.8 -1.15 -16.7 -1.25 -16.8 -1.35 -16.85 -1.9 -16.8 -2.6 -16.75 -2.65 -16.75 -2.8 -16.75 -2.9 -16.85 -2.9 -16.95 -2.75 -16.85 -2.6 L-17.3 -2.6 -17.35 -2.95 -17.05 -3.2 -16.85 -3.05 -17.05 -3.35 -17.2 -3.35 -17.4 -3.05 M-17.85 -0.8 L-17.85 -0.8" fill="#ffff9e" fill-rule="evenodd" stroke="none"/>
    <path d="M-19.45 -4.3 L-19.3 -4.25 -19.15 -4.15 -18.4 -4.15 -17.65 -4.15 -17.2 -3.85 -19.2 -3.8 -19.45 -4.3" fill="#685431" fill-rule="evenodd" stroke="none"/>
    <path d="M-17.5 -3.1 L-17.9 -3.2 -17.9 -2.0 -17.85 -0.85 -17.85 -0.8 -17.85 -0.8 -17.8 -0.7 -18.0 -0.6 -18.2 -0.6 Q-18.4 -0.8 -18.4 -1.25 L-18.4 -3.05 Q-18.35 -3.5 -18.1 -3.6 L-17.55 -3.55 Q-17.4 -3.5 -17.45 -3.35 L-17.5 -3.1" fill="#4e4024" fill-rule="evenodd" stroke="none"/>
    <path d="M-17.45 -0.95 Q-17.3 -1.2 -17.3 -1.5 L-17.35 -2.1 -17.35 -2.55 Q-17.35 -2.85 -17.4 -3.05 L-17.2 -3.35 -17.05 -3.35 -16.85 -3.05 -17.05 -3.2 -17.35 -2.95 -17.3 -2.6 Q-17.3 -2.35 -17.3 -2.0 L-17.3 -1.4 -17.0 -1.4 -17.0 -1.3 -16.95 -1.2 Q-17.0 -1.0 -17.1 -0.8 L-17.45 -0.95" fill="#655432" fill-rule="evenodd" stroke="none"/>
    <path d="M-16.8 -2.6 L-16.85 -2.6 Q-16.95 -2.75 -16.85 -2.9 -16.75 -2.9 -16.75 -2.8 -16.75 -2.65 -16.8 -2.6" fill="#937942" fill-rule="evenodd" stroke="none"/>
    <path d="M-16.85 -2.6 L-16.8 -2.6 Q-16.85 -1.9 -16.8 -1.35 L-16.95 -1.15 -16.95 -1.2 -17.0 -1.3 -17.0 -1.4 -17.3 -1.4 -17.3 -2.0 Q-17.3 -2.35 -17.3 -2.6 L-16.85 -2.6" fill="#c5a261" fill-rule="evenodd" stroke="none"/>
    <path d="M-19.75 3.85 L-19.75 -3.6 -19.7 -4.35 -19.65 -4.3 -19.45 -4.1 Q-19.35 -3.95 -19.35 -3.8 L-19.35 3.6 Q-19.35 3.75 -19.5 3.75 L-19.75 3.85" fill="#bf9d58" fill-rule="evenodd" stroke="none"/>
    <path d="M-17.85 -0.85 L-17.45 -0.95 -17.1 -0.8 -16.95 -0.6 -17.2 -0.5 -17.2 -0.55 Q-17.2 -0.65 -17.35 -0.75 L-17.55 -0.9 -17.55 -0.5 -17.6 -0.55 -17.85 -0.8 -17.85 -0.85" fill="#bfa266" fill-rule="evenodd" stroke="none"/>
    <path d="M-16.95 -1.15 L-16.8 -1.35 Q-16.7 -1.25 -16.8 -1.15 -16.85 -1.0 -16.95 -1.15" fill="#8b7345" fill-rule="evenodd" stroke="none"/>
    <path d="M-12.95 -2.7 L-12.65 -2.2 -13.3 -2.2 -13.1 -2.3 -13.25 -2.65 -12.95 -2.7" fill="#b6985b" fill-rule="evenodd" stroke="none"/>
    <path d="M-12.6 -2.65 L-12.95 -2.7 -13.25 -2.65 -13.1 -2.3 -13.3 -2.2 -13.55 -2.2 -13.6 -2.45 -13.7 -2.65 Q-13.15 -2.75 -12.6 -2.65" fill="#55462b" fill-rule="evenodd" stroke="none"/>
    <path d="M-12.95 -2.7 L-12.6 -2.65 -12.05 -2.55 -12.1 -2.2 -11.8 -1.75 Q-11.65 -1.5 -11.65 -1.25 L-11.65 0.85 -12.65 0.85 -13.65 0.9 -13.85 0.7 -13.35 0.75 -12.5 0.65 Q-12.45 0.5 -12.5 0.3 L-12.55 -0.05 Q-12.45 -0.65 -12.55 -1.25 L-12.9 -1.05 -12.9 -1.4 -12.6 -1.75 -12.4 -1.4 Q-12.45 -1.65 -12.6 -1.9 L-12.95 -1.5 -13.0 -1.65 -12.9 -1.95 Q-13.15 -2.05 -13.4 -2.05 -13.65 -2.05 -13.8 -1.85 -13.95 -1.6 -13.95 -1.25 L-13.95 -0.55 -14.6 -0.65 Q-14.6 -1.15 -14.65 -1.35 L-14.7 -1.5 -14.7 -1.6 -14.55 -1.6 Q-14.25 -2.05 -13.7 -2.15 L-13.55 -2.2 -13.55 -2.2 -13.3 -2.2 -12.65 -2.2 -12.95 -2.7" fill="#ffffaa" fill-rule="evenodd" stroke="none"/>
    <path d="M-13.55 -2.2 L-13.55 -2.2 -13.7 -2.15 -13.9 -2.2 -14.15 -2.6 -13.7 -2.65 -13.6 -2.45 -13.55 -2.2" fill="#c8a664" fill-rule="evenodd" stroke="none"/>
    <path d="M-14.7 -2.3 L-14.4 -2.1 -14.55 -1.9 -14.85 -2.2 -14.7 -2.3" fill="#af9056" fill-rule="evenodd" stroke="none"/>
    <path d="M-14.55 -1.9 L-14.4 -2.1 -14.7 -2.3 Q-14.5 -2.45 -14.15 -2.6 L-13.9 -2.2 -14.3 -1.95 -14.65 -1.7 -14.55 -1.9" fill="#ffffa7" fill-rule="evenodd" stroke="none"/>
    <path d="M-14.7 -1.5 L-14.65 -1.35 -14.7 -1.25 -14.75 -1.2 -15.15 -1.45 -15.15 -1.6 -14.7 -1.5" fill="#917747" fill-rule="evenodd" stroke="none"/>
    <path d="M-14.7 -1.6 L-14.7 -1.5 -15.15 -1.6 -14.85 -2.2 -14.55 -1.9 -14.65 -1.7 -14.7 -1.6" fill="#604f32" fill-rule="evenodd" stroke="none"/>
    <path d="M-14.65 -1.35 Q-14.6 -1.15 -14.6 -0.65 L-14.6 1.35 -14.6 1.5 -14.6 3.15 Q-14.7 2.9 -14.7 2.65 L-14.7 -1.25 -14.65 -1.35" fill="#675430" fill-rule="evenodd" stroke="none"/>
    <path d="M-14.75 -1.2 L-14.7 -1.25 -14.7 2.65 Q-14.7 2.9 -14.6 3.15 L-14.4 3.6 -14.85 3.85 -15.1 3.45 -14.8 3.4 Q-14.65 3.35 -14.65 3.2 L-15.1 3.25 -15.15 3.25 -15.15 2.75 -14.8 2.95 Q-14.75 2.2 -14.75 0.85 L-14.75 -1.2" fill="#ffd479" fill-rule="evenodd" stroke="none"/>
    <path d="M-15.15 -1.45 L-14.75 -1.2 -14.75 0.85 Q-14.75 2.2 -14.8 2.95 L-15.15 2.75 -15.15 -1.45" fill="#c4a15b" fill-rule="evenodd" stroke="none"/>
    <path d="M-13.95 -0.55 L-13.95 -1.25 Q-13.95 -1.6 -13.8 -1.85 -13.65 -2.05 -13.4 -2.05 -13.15 -2.05 -12.9 -1.95 L-13.0 -1.65 -13.25 -1.6 Q-13.4 -1.55 -13.4 -1.4 L-13.45 -0.6 -13.45 0.25 -13.3 0.3 Q-13.3 0.5 -13.55 0.55 -13.8 0.65 -13.9 0.4 -13.95 0.25 -13.95 -0.1 L-13.95 -0.55 M-13.65 0.9 L-12.65 0.85 -11.65 0.85 -11.65 -1.25 Q-11.65 -1.5 -11.8 -1.75 L-12.1 -2.2 -12.05 -2.55 Q-11.7 -2.45 -11.45 -2.15 -11.2 -1.8 -11.2 -1.45 L-11.2 1.3 -13.45 1.3 -13.45 2.95 -13.4 3.15 -13.25 3.3 -13.45 3.45 Q-13.55 3.55 -13.65 3.55 -13.95 3.4 -13.95 2.85 L-13.95 1.5 Q-14.0 1.1 -13.65 0.9" fill="#4d3f26" fill-rule="evenodd" stroke="none"/>
    <path d="M-12.9 -1.05 L-12.55 -1.25 Q-12.45 -0.65 -12.55 -0.05 L-12.9 -0.05 -12.9 -0.55 -12.9 -0.05 -12.9 -0.55 -12.9 -1.05 M-12.9 -0.05 L-12.9 -0.05" fill="#c7a768" fill-rule="evenodd" stroke="none"/>
    <path d="M-12.55 -0.05 L-12.5 0.3 Q-12.45 0.5 -12.5 0.65 L-13.35 0.75 -13.15 0.3 -13.1 0.3 -13.05 0.7 -12.7 0.65 Q-12.5 0.55 -12.5 0.4 L-12.7 0.4 -12.85 0.45 -12.9 0.3 -12.9 -0.05 -12.9 -0.05 -12.55 -0.05 M-12.9 0.3 L-12.9 -0.05 -12.9 0.3 M-13.15 0.3 L-13.1 0.3 -13.15 0.3 -13.15 0.3 M-13.1 0.3 L-13.1 0.3" fill="#665434" fill-rule="evenodd" stroke="none"/>
    <path d="M-9.1 -2.65 L-8.85 -2.55 -8.5 -2.65 -8.15 -2.7 -8.0 -2.2 -8.5 -2.15 -9.05 -2.1 -9.0 -2.4 -9.1 -2.65 M-8.4 -2.2 L-8.45 -2.45 Q-8.5 -2.6 -8.6 -2.6 -8.75 -2.55 -8.75 -2.4 L-8.8 -2.15 -8.4 -2.2" fill="#7b663c" fill-rule="evenodd" stroke="none"/>
    <path d="M-7.95 -2.7 L-7.5 -2.65 -7.5 -2.6 -7.55 -2.2 -7.4 -1.9 Q-7.3 -1.75 -7.3 -1.65 L-7.3 -0.25 -8.0 -0.25 -8.35 0.2 Q-8.45 0.15 -8.4 0.05 L-8.2 -0.15 -8.5 0.1 -8.5 -0.2 -8.15 -0.3 Q-8.1 -0.8 -8.15 -1.3 L-8.55 -1.2 -8.5 -1.45 -8.25 -1.7 -8.05 -1.4 Q-8.1 -1.7 -8.25 -1.85 L-8.6 -1.45 -8.6 -1.6 -8.55 -2.0 -9.3 -2.0 -9.55 -2.05 -9.3 -2.15 -9.4 -2.65 -9.1 -2.65 -9.0 -2.4 -9.05 -2.1 -8.5 -2.15 -8.0 -2.2 -7.8 -2.25 -7.95 -2.7" fill="#ffffa6" fill-rule="evenodd" stroke="none"/>
    <path d="M-9.45 -2.7 L-9.4 -2.65 -9.3 -2.15 -9.55 -2.05 -9.3 -2.0 Q-9.6 -1.65 -9.55 -1.35 L-9.55 0.95 -10.25 0.5 -10.25 -2.2 -9.5 -2.2 -9.45 -2.2 -9.45 -2.7" fill="#ffff9b" fill-rule="evenodd" stroke="none"/>
    <path d="M-10.45 -2.65 L-9.95 -2.65 -9.45 -2.7 -9.45 -2.2 -9.5 -2.2 Q-9.65 -2.3 -9.9 -2.35 L-10.35 -2.45 -10.45 -2.65" fill="#9a7e43" fill-rule="evenodd" stroke="none"/>
    <path d="M-10.8 -2.3 L-10.75 -2.65 -10.45 -2.65 -10.35 -2.45 -10.25 -2.2 -10.75 -2.6 -10.75 -2.3 -10.8 -2.3" fill="#ffeb8a" fill-rule="evenodd" stroke="none"/>
    <path d="M-10.8 3.85 L-10.8 -2.3 -10.75 -2.3 -10.3 -2.2 -10.3 3.7 -10.8 3.85" fill="#c3a161" fill-rule="evenodd" stroke="none"/>
    <path d="M2.3 4.25 L2.25 4.3 2.25 3.8 2.45 3.8 2.6 3.9 2.3 4.25 M-8.4 -2.2 L-8.8 -2.15 -8.75 -2.4 Q-8.75 -2.55 -8.6 -2.6 -8.5 -2.6 -8.45 -2.45 L-8.4 -2.2 M-5.4 1.5 L-4.95 1.45 -5.35 1.9 -5.2 1.5 -5.4 1.5" fill="#ffe782" fill-rule="evenodd" stroke="none"/>
    <path d="M-8.6 -1.6 Q-9.1 -1.6 -9.05 -1.35 L-9.05 1.45 -9.1 4.25 -9.85 4.25 -10.65 4.25 Q-10.5 4.1 -10.35 3.8 L-9.55 3.8 -9.55 0.95 -9.55 -1.35 Q-9.6 -1.65 -9.3 -2.0 L-8.55 -2.0 -8.6 -1.6" fill="#4d3e27" fill-rule="evenodd" stroke="none"/>
    <path d="M-8.5 -0.2 L-8.55 -1.2 -8.15 -1.3 Q-8.1 -0.8 -8.15 -0.3 L-8.5 -0.2" fill="#cba664" fill-rule="evenodd" stroke="none"/>
    <path d="M-5.75 -2.5 Q-5.55 -2.55 -5.45 -2.45 -5.35 -2.35 -5.3 -2.2 L-5.25 -2.1 -5.1 -2.1 -4.85 -2.2 -4.65 -2.2 -4.05 -2.2 -4.25 -2.7 -4.05 -2.65 -3.75 -2.65 Q-3.6 -2.6 -3.55 -2.45 -3.5 -2.35 -3.5 -2.15 L-3.35 -2.0 Q-3.1 -1.75 -3.1 -1.25 L-3.1 -0.4 -3.7 -0.4 -3.7 -0.9 Q-3.7 -1.25 -3.7 -1.4 L-3.8 -1.05 -4.15 -1.0 -4.2 -1.2 -4.25 -1.35 -4.25 -1.4 -3.95 -1.7 -3.75 -1.45 Q-3.85 -1.65 -4.0 -1.9 L-4.3 -1.45 -4.35 -1.6 -4.3 -2.0 -4.65 -2.05 -5.0 -2.0 Q-5.3 -1.8 -5.3 -1.35 L-5.3 -0.6 Q-5.25 -0.2 -5.05 0.05 L-4.75 0.35 -3.8 0.85 Q-3.45 1.0 -3.3 1.2 -3.05 1.5 -3.0 2.0 -3.0 2.3 -3.05 2.85 -3.05 3.2 -3.3 3.5 -3.6 3.75 -3.95 3.8 L-4.9 3.85 -5.8 3.8 -5.2 3.75 -4.6 3.75 -4.05 3.65 -4.5 3.6 -4.45 3.25 -4.35 3.15 -4.2 3.4 -3.95 3.25 -3.85 3.2 -3.8 3.2 -3.8 3.15 -3.9 2.25 -4.25 2.35 Q-4.3 2.1 -4.4 1.65 L-4.2 1.45 -3.9 1.45 -4.2 1.35 -4.45 1.65 -4.55 1.5 -4.6 1.25 -4.85 1.3 -5.15 1.2 -5.4 1.05 -4.9 1.0 Q-5.15 0.8 -5.65 0.6 L-6.0 0.7 -6.15 0.65 Q-6.15 0.45 -6.0 0.4 L-5.7 0.3 -5.9 0.0 Q-6.05 0.25 -6.4 0.25 L-6.45 0.05 -6.45 0.0 -6.45 -0.1 -6.45 -0.2 -6.45 -0.2 -6.45 -0.1 -6.45 -0.2 -6.1 0.0 Q-5.95 -0.25 -5.95 -0.65 L-6.05 -1.3 -6.05 -1.45 -5.75 -1.75 -5.55 -2.0 -5.95 -1.7 -5.8 -2.0 -6.05 -2.3 -5.75 -2.5 M-4.3 -1.45 L-4.35 -1.6 -4.3 -1.45 -4.3 -1.45 M-4.2 -1.2 L-4.25 -1.4 -4.2 -1.2 M-4.15 -0.05 L-4.05 -0.3 Q-3.9 -0.45 -3.8 -0.3 L-3.8 -0.15 -3.95 -0.35 Q-4.05 -0.2 -3.95 0.0 L-4.15 -0.05 M-3.8 1.85 Q-4.0 1.9 -3.85 2.05 -3.7 2.0 -3.8 1.85 M-3.9 3.55 Q-3.85 3.4 -3.95 3.4 L-4.05 3.6 Q-3.95 3.65 -3.9 3.55 M-6.45 -0.2 L-6.45 0.0 -6.45 -0.2" fill="#ffff96" fill-rule="evenodd" stroke="none"/>
    <path d="M-4.85 -2.2 L-5.05 -2.65 Q-4.45 -2.75 -3.95 -2.65 L-4.05 -2.65 -4.25 -2.7 -4.65 -2.65 -4.45 -2.25 -4.65 -2.2 -4.85 -2.2" fill="#544525" fill-rule="evenodd" stroke="none"/>
    <path d="M-4.65 -2.2 L-4.45 -2.25 -4.65 -2.65 -4.25 -2.7 -4.05 -2.2 -4.65 -2.2" fill="#aa8a4d" fill-rule="evenodd" stroke="none"/>
    <path d="M-5.75 -2.5 Q-5.45 -2.6 -5.05 -2.65 L-4.85 -2.2 -5.1 -2.1 -5.2 -2.2 -5.3 -2.2 Q-5.35 -2.35 -5.45 -2.45 -5.55 -2.55 -5.75 -2.5" fill="#d1a95b" fill-rule="evenodd" stroke="none"/>
    <path d="M-7.5 -2.6 Q-7.25 -2.5 -7.05 -2.3 -6.85 -2.1 -6.8 -1.8 -6.8 -0.45 -6.85 0.25 -7.2 0.2 -7.7 0.25 L-8.55 0.25 -8.5 0.1 -8.2 -0.15 -8.4 0.05 Q-8.45 0.15 -8.35 0.2 L-8.0 -0.25 -7.3 -0.25 -7.3 -1.65 Q-7.3 -1.75 -7.4 -1.9 L-7.55 -2.2 -7.5 -2.6" fill="#4e4025" fill-rule="evenodd" stroke="none"/>
    <path d="M-8.15 -2.7 L-7.95 -2.7 -7.8 -2.25 -8.0 -2.2 -8.15 -2.7" fill="#cdad67" fill-rule="evenodd" stroke="none"/>
    <path d="M-6.45 -0.2 L-6.45 -0.3 -6.05 -0.3 -6.05 -1.3 -5.95 -0.65 Q-5.95 -0.25 -6.1 0.0 L-6.45 -0.2 -6.45 -0.25 -6.45 -0.2 -6.45 -0.2" fill="#f6c872" fill-rule="evenodd" stroke="none"/>
    <path d="M-6.45 -0.1 L-6.45 0.1 -6.5 -0.75 -6.45 -1.6 Q-6.15 -1.55 -5.75 -1.75 L-6.05 -1.45 -6.05 -1.3 -6.15 -1.1 -6.4 -1.3 Q-6.5 -0.9 -6.45 -0.3 L-6.45 -0.2 -6.45 -0.1" fill="#9a7d48" fill-rule="evenodd" stroke="none"/>
    <path d="M-6.45 -0.3 Q-6.5 -0.9 -6.4 -1.3 L-6.15 -1.1 -6.05 -1.3 -6.05 -0.3 -6.45 -0.3" fill="#c29b5b" fill-rule="evenodd" stroke="none"/>
    <path d="M-4.25 0.2 Q-4.0 0.25 -3.7 0.4 L-3.25 0.65 Q-2.9 0.85 -2.7 1.2 -2.5 1.6 -2.55 2.0 L-2.55 2.9 Q-2.55 3.45 -2.8 3.75 -3.25 4.35 -4.45 4.35 -5.2 4.35 -5.85 4.15 L-5.85 4.1 -5.85 4.05 -5.8 3.8 -4.9 3.85 -3.95 3.8 Q-3.6 3.75 -3.3 3.5 -3.05 3.2 -3.05 2.85 -3.0 2.3 -3.0 2.0 -3.05 1.5 -3.3 1.2 -3.45 1.0 -3.8 0.85 L-4.75 0.35 -5.05 0.05 Q-5.25 -0.2 -5.3 -0.6 L-5.3 -1.35 Q-5.3 -1.8 -5.0 -2.0 L-4.65 -2.05 -4.3 -2.0 -4.35 -1.6 -4.6 -1.6 Q-4.75 -1.55 -4.75 -1.4 -4.85 -1.0 -4.8 -0.65 -4.75 -0.25 -4.5 0.0 L-4.35 0.1 -4.25 0.2" fill="#4c3b21" fill-rule="evenodd" stroke="none"/>
    <path d="M-4.25 -1.35 L-4.3 -1.45 -4.0 -1.9 Q-3.85 -1.65 -3.75 -1.45 L-3.95 -1.7 -4.25 -1.4 -4.25 -1.35 M-4.3 -1.45 L-4.25 -1.4 -4.3 -1.45 -4.3 -1.45 M-17.3 0.3 L-17.3 0.1 Q-17.2 -0.1 -17.05 -0.05 -16.9 0.05 -16.85 0.3 L-17.05 0.05 -17.3 0.3" fill="#442f16" fill-rule="evenodd" stroke="none"/>
    <path d="M-5.3 -2.2 L-5.2 -2.2 -5.1 -2.1 -5.25 -2.1 -5.3 -2.2" fill="#886e3f" fill-rule="evenodd" stroke="none"/>
    <path d="M-6.45 -1.6 Q-6.35 -2.0 -6.05 -2.3 L-5.8 -2.0 -5.95 -1.7 -5.55 -2.0 -5.75 -1.75 Q-6.15 -1.55 -6.45 -1.6" fill="#63502d" fill-rule="evenodd" stroke="none"/>
    <path d="M-4.2 0.05 L-4.25 0.2 -4.35 0.1 -4.5 0.0 -4.2 0.1 Q-4.2 -0.8 -4.25 -1.25 L-4.2 -1.2 -4.15 -1.0 -3.8 -1.05 -3.7 -1.4 Q-3.7 -1.25 -3.7 -0.9 L-3.7 -0.4 -3.8 -0.3 Q-3.9 -0.45 -4.05 -0.3 L-4.15 -0.05 -4.2 0.05" fill="#bc9655" fill-rule="evenodd" stroke="none"/>
    <path d="M-0.75 -2.65 L-0.25 -2.7 Q-0.25 -2.55 -0.1 -2.4 0.0 -2.35 0.25 -2.25 L-0.6 -2.2 -0.75 -2.65 -0.75 -2.65 -0.25 -2.7 -0.75 -2.65" fill="#614c22" fill-rule="evenodd" stroke="none"/>
    <path d="M-1.2 -2.6 L-0.75 -2.65 -1.2 -2.6 -0.75 -2.65 -0.75 -2.65 -0.6 -2.2 -0.85 -2.1 -0.95 -2.25 -1.2 -2.6" fill="#b58e48" fill-rule="evenodd" stroke="none"/>
    <path d="M-3.75 -2.65 L-3.35 -2.55 -3.35 -2.5 -3.35 -2.0 -3.5 -2.15 Q-3.5 -2.35 -3.55 -2.45 -3.6 -2.6 -3.75 -2.65" fill="#c49f5c" fill-rule="evenodd" stroke="none"/>
    <path d="M8.5 2.65 L8.3 2.3 8.5 1.7 8.5 1.6 Q8.65 1.75 8.8 2.0 L8.55 1.8 Q8.5 2.35 8.5 2.65 M-3.35 -2.5 Q-3.05 -2.4 -2.8 -2.1 -2.6 -1.85 -2.6 -1.5 -2.55 -1.0 -2.55 0.05 L-4.2 0.05 -4.15 -0.05 -3.95 0.0 Q-4.05 -0.2 -3.95 -0.35 L-3.8 -0.15 -3.8 -0.3 -3.7 -0.4 -3.1 -0.4 -3.1 -1.25 Q-3.1 -1.75 -3.35 -2.0 L-3.35 -2.5" fill="#4e3e23" fill-rule="evenodd" stroke="none"/>
    <path d="M-0.95 -2.25 L-0.85 -2.1 -1.0 -2.1 -0.95 -2.25" fill="#886b34" fill-rule="evenodd" stroke="none"/>
    <path d="M-0.3 0.3 Q-0.55 0.65 -0.8 0.55 -0.95 0.45 -1.0 0.25 L-1.05 -0.1 -1.0 -1.45 Q-0.95 -1.75 -0.75 -2.0 L0.0 -2.0 -0.05 -1.65 -0.3 -1.6 Q-0.5 -1.55 -0.5 -1.4 L-0.5 0.3 -0.3 0.3" fill="#4d3e22" fill-rule="evenodd" stroke="none"/>
    <path d="M-2.2 -1.55 L-2.0 -2.1 -1.6 -1.9 -1.7 -1.6 -2.2 -1.55" fill="#5b482a" fill-rule="evenodd" stroke="none"/>
    <path d="M-2.0 -2.1 L-1.7 -2.4 -1.55 -2.15 Q-1.5 -2.0 -1.6 -1.9 L-2.0 -2.1" fill="#a18143" fill-rule="evenodd" stroke="none"/>
    <path d="M-2.2 3.05 Q-2.2 2.25 -2.2 0.75 L-2.2 -1.55 -1.7 -1.6 -1.55 -1.65 -1.7 -1.5 -1.75 -1.35 -1.75 2.55 Q-1.75 2.75 -1.85 3.1 L-2.2 3.05" fill="#bc9652" fill-rule="evenodd" stroke="none"/>
    <path d="M-3.8 1.85 Q-3.7 2.0 -3.85 2.05 -4.0 1.9 -3.8 1.85" fill="#997b44" fill-rule="evenodd" stroke="none"/>
    <path d="M-3.85 3.2 L-3.8 3.15 -3.8 3.2 -3.85 3.2" fill="#4f3f24" fill-rule="evenodd" stroke="none"/>
    <path d="M-3.85 3.2 L-3.95 3.25 -3.9 2.8 -4.25 2.8 -4.25 2.35 -3.9 2.25 -3.8 3.15 -3.85 3.2" fill="#b99550" fill-rule="evenodd" stroke="none"/>
    <path d="M-4.25 2.8 L-3.9 2.8 -3.95 3.25 -4.2 3.4 -4.35 3.15 -4.25 2.8" fill="#5d4b20" fill-rule="evenodd" stroke="none"/>
    <path d="M-6.05 3.75 L-6.35 3.7 -6.4 3.55 -6.0 3.45 -6.05 3.05 -5.7 3.6 -6.05 3.75 -6.05 3.75 M-3.9 3.55 Q-3.95 3.65 -4.05 3.6 L-3.95 3.4 Q-3.85 3.4 -3.9 3.55" fill="#9f7032" fill-rule="evenodd" stroke="none"/>
    <path d="M-0.25 3.2 L-0.2 3.3 -0.1 3.65 Q0.3 3.6 0.45 3.35 0.1 3.45 -0.05 3.2 L0.05 2.95 Q0.15 2.85 0.4 2.75 L0.4 3.05 0.5 3.4 Q0.25 3.65 0.0 3.7 L-0.3 3.65 -0.25 3.2" fill="#5d4923" fill-rule="evenodd" stroke="none"/>
    <path d="M-0.2 3.3 L-0.05 3.2 Q0.1 3.45 0.45 3.35 0.3 3.6 -0.1 3.65 L-0.2 3.3" fill="#f9d96f" fill-rule="evenodd" stroke="none"/>
    <path d="M0.5 1.5 L0.55 1.55 0.65 1.8 1.25 1.85 1.35 1.9 1.4 1.5 1.75 1.5 1.75 3.2 Q1.7 3.65 1.35 3.95 1.0 4.2 0.6 4.25 -0.6 4.45 -1.5 4.15 L-1.5 4.1 -1.45 3.85 -0.6 3.85 0.25 3.8 Q0.6 3.75 0.85 3.6 1.15 3.4 1.25 3.1 L1.25 2.0 0.6 2.0 0.55 3.0 Q0.5 2.7 0.5 2.25 L0.5 1.5" fill="#4c3b1e" fill-rule="evenodd" stroke="none"/>
    <path d="M-1.3 3.75 L-0.85 3.5 Q-0.55 3.6 -0.4 3.75 L-1.3 3.75" fill="#fffe9a" fill-rule="evenodd" stroke="none"/>
    <path d="M-5.4 1.05 L-6.0 0.7 -5.65 0.6 Q-5.15 0.8 -4.9 1.0 L-5.4 1.05" fill="#e4b863" fill-rule="evenodd" stroke="none"/>
    <path d="M-6.25 1.45 Q-5.6 1.45 -5.4 1.5 L-5.2 1.5 -5.35 1.9 -4.95 1.45 -4.85 1.3 -4.6 1.25 -4.55 1.5 -4.85 1.35 -4.85 2.3 Q-4.85 2.9 -4.75 3.2 L-4.45 3.25 -4.5 3.6 -4.05 3.65 -4.6 3.75 Q-4.6 3.4 -4.7 3.25 -4.7 3.45 -4.85 3.5 L-5.1 3.5 Q-5.3 3.25 -5.3 2.75 -5.25 2.2 -5.3 1.95 L-6.05 1.95 -6.05 1.85 -5.3 1.7 Q-5.45 1.55 -5.7 1.5 L-6.2 1.5 -6.25 1.45" fill="#4b3c24" fill-rule="evenodd" stroke="none"/>
    <path d="M-5.85 4.1 Q-6.1 4.0 -6.25 3.8 L-6.05 3.75 -6.05 3.75 -5.7 3.6 -6.05 3.05 -6.0 3.45 -6.4 3.55 -6.55 3.05 -6.15 3.05 -6.1 2.0 Q-6.15 1.85 -6.25 1.7 L-6.5 1.45 -6.55 1.45 -6.25 1.45 -6.2 1.5 -6.05 1.85 -6.05 1.95 -5.3 1.95 Q-5.25 2.2 -5.3 2.75 -5.3 3.25 -5.1 3.5 L-4.85 3.5 Q-4.7 3.45 -4.7 3.25 -4.6 3.4 -4.6 3.75 L-5.2 3.75 -5.8 3.8 -5.85 4.05 -5.85 4.1" fill="#ffff93" fill-rule="evenodd" stroke="none"/>
    <path d="M-6.2 1.5 L-5.7 1.5 Q-5.45 1.55 -5.3 1.7 L-6.05 1.85 -6.2 1.5" fill="#91763f" fill-rule="evenodd" stroke="none"/>
    <path d="M-6.55 3.05 L-6.55 1.85 -6.1 2.0 -6.15 3.05 -6.55 3.05" fill="#c39f5b" fill-rule="evenodd" stroke="none"/>
    <path d="M-6.55 1.85 L-6.5 1.45 -6.25 1.7 Q-6.15 1.85 -6.1 2.0 L-6.55 1.85" fill="#6e5936" fill-rule="evenodd" stroke="none"/>
    <path d="M-10.65 4.25 L-10.75 4.3 -10.8 3.85 -10.3 3.7 -10.25 3.7 -10.25 0.5 -9.55 0.95 -9.55 3.8 -10.35 3.8 Q-10.5 4.1 -10.65 4.25" fill="#ffffb2" fill-rule="evenodd" stroke="none"/>
    <path d="M-11.7 1.85 L-11.55 1.9 Q-11.55 1.7 -11.6 1.5 L-11.2 1.5 -11.2 2.4 Q-11.15 2.95 -11.25 3.3 -11.3 3.75 -11.7 4.0 -12.0 4.25 -12.45 4.3 -13.7 4.45 -14.5 4.1 L-14.35 3.8 -13.15 3.85 Q-12.5 3.85 -12.05 3.6 -11.7 3.35 -11.65 2.85 L-11.65 2.0 -12.4 2.0 -12.45 1.8 -11.7 1.85" fill="#4d3f27" fill-rule="evenodd" stroke="none"/>
    <path d="M-11.6 1.5 Q-11.55 1.7 -11.55 1.9 L-11.7 1.85 -11.65 1.5 -11.6 1.5" fill="#fffca9" fill-rule="evenodd" stroke="none"/>
    <path d="M-11.7 1.85 L-12.45 1.8 -12.5 1.5 -11.65 1.5 -11.7 1.85" fill="#816942" fill-rule="evenodd" stroke="none"/>
    <path d="M-12.45 1.8 L-12.4 2.0 -11.65 2.0 -11.65 2.85 Q-11.7 3.35 -12.05 3.6 -12.5 3.85 -13.15 3.85 L-14.35 3.8 -14.5 4.1 -14.85 3.85 -14.4 3.6 -14.6 3.15 -14.6 1.5 -13.95 1.5 -13.95 2.85 Q-13.95 3.4 -13.65 3.55 -13.55 3.55 -13.45 3.45 L-13.25 3.3 -13.2 3.2 -13.25 3.7 -12.75 3.65 Q-12.5 3.55 -12.4 3.35 -12.55 3.0 -12.55 2.8 -12.5 2.25 -12.5 2.0 L-12.65 1.5 -12.5 1.5 -12.45 1.8" fill="#ffffa2" fill-rule="evenodd" stroke="none"/>
    <path d="M-13.1 0.3 L-12.9 0.3 -12.85 0.45 -12.7 0.4 -12.5 0.4 Q-12.5 0.55 -12.7 0.65 L-13.05 0.7 -13.1 0.3 -13.1 0.3 -12.9 0.3 -13.1 0.3" fill="#ffe68f" fill-rule="evenodd" stroke="none"/>
    <path d="M-12.65 1.5 L-12.5 2.0 -12.9 1.9 -12.9 1.5 -12.65 1.5" fill="#745f39" fill-rule="evenodd" stroke="none"/>
    <path d="M-12.9 1.9 L-12.5 2.0 Q-12.5 2.25 -12.55 2.8 L-12.9 2.8 -12.9 1.9" fill="#c39f60" fill-rule="evenodd" stroke="none"/>
    <path d="M-15.1 3.25 L-14.65 3.2 Q-14.65 3.35 -14.8 3.4 L-15.1 3.45 -15.1 3.25" fill="#ffffa9" fill-rule="evenodd" stroke="none"/>
    <path d="M-13.0 3.2 L-12.8 3.4 -12.45 3.2 -12.7 3.6 -13.05 3.6 -13.05 3.25 -13.0 3.2" fill="#ffec8e" fill-rule="evenodd" stroke="none"/>
    <path d="M-12.55 2.8 Q-12.55 3.0 -12.4 3.35 -12.5 3.55 -12.75 3.65 L-13.25 3.7 -13.2 3.2 -13.05 3.25 -13.05 3.6 -12.7 3.6 -12.45 3.2 -12.8 3.4 -13.0 3.2 Q-12.9 3.05 -12.9 2.8 L-12.55 2.8" fill="#695530" fill-rule="evenodd" stroke="none"/>
    <path d="M-16.8 0.65 L-16.9 0.55 -16.85 0.4 -16.8 0.4 -16.8 0.65" fill="#806b3f" fill-rule="evenodd" stroke="none"/>
    <path d="M-17.45 0.15 L-17.45 0.1 -17.3 0.1 -17.3 0.3 -17.25 0.5 -17.05 0.5 -16.9 0.55 -16.8 0.65 -16.8 1.6 Q-16.75 2.1 -16.8 2.5 L-16.9 1.65 Q-16.9 1.1 -16.95 0.8 L-17.3 1.25 -17.3 0.7 Q-17.35 0.35 -17.45 0.15" fill="#ffd877" fill-rule="evenodd" stroke="none"/>
    <path d="M-17.3 1.25 L-16.95 0.8 Q-16.9 1.1 -16.9 1.65 L-16.8 2.5 -16.85 2.65 -16.95 2.85 -16.95 2.8 -17.0 2.5 -17.3 2.6 -17.3 1.25" fill="#bd9e57" fill-rule="evenodd" stroke="none"/>
    <path d="M-17.8 3.2 L-17.8 3.15 Q-17.55 3.1 -17.45 2.95 -17.3 2.8 -17.3 2.6 L-17.0 2.5 -16.95 2.8 -17.0 3.05 -17.1 3.1 -17.0 3.25 -16.9 3.05 Q-16.9 3.25 -17.0 3.4 -17.15 3.55 -17.35 3.5 L-17.1 3.4 -17.45 3.05 -17.55 3.2 Q-17.65 3.35 -17.6 3.45 L-17.35 3.55 -17.8 3.6 -17.75 3.25 -17.8 3.2" fill="#67552f" fill-rule="evenodd" stroke="none"/>
    <path d="M-16.95 2.85 L-16.85 2.65 Q-16.7 2.7 -16.8 2.85 L-16.95 2.85" fill="#8b7344" fill-rule="evenodd" stroke="none"/>
    <path d="M17.0 3.7 L16.35 3.7 16.55 3.25 16.45 3.1 16.8 2.8 Q16.7 2.65 16.55 2.6 L16.25 2.5 16.25 1.45 Q16.5 1.55 16.65 1.6 L16.9 1.15 17.0 1.2 17.0 2.05 16.35 2.1 16.5 2.45 16.95 2.4 17.0 2.45 17.0 3.7" fill="#ffb242" fill-rule="evenodd" stroke="none"/>
    <path d="M17.0 2.05 L17.0 2.45 16.95 2.4 16.5 2.45 16.35 2.1 17.0 2.05" fill="#ffb41d" fill-rule="evenodd" stroke="none"/>
    <path d="M15.0 1.5 L15.35 1.5 15.35 3.2 Q15.3 3.65 14.95 3.95 14.65 4.2 14.15 4.3 12.9 4.45 12.05 4.1 L12.25 3.9 Q12.35 3.8 12.45 3.85 L13.15 3.9 13.8 3.85 Q14.15 3.8 14.4 3.65 14.7 3.5 14.8 3.2 L14.85 2.85 14.85 2.45 Q14.8 2.25 14.9 2.0 L15.0 1.5" fill="#412d11" fill-rule="evenodd" stroke="none"/>
    <path d="M14.9 1.5 L14.85 2.0 14.15 2.0 14.05 1.5 14.9 1.5" fill="#6e4c25" fill-rule="evenodd" stroke="none"/>
    <path d="M14.85 2.45 L14.85 2.85 14.8 3.2 Q14.7 3.5 14.4 3.65 14.15 3.8 13.8 3.85 L13.5 3.75 Q13.85 3.7 14.05 3.5 L14.0 3.2 14.05 3.2 14.15 3.25 14.3 3.25 Q14.4 3.05 14.4 2.75 L14.35 2.15 14.85 2.45" fill="#ffc842" fill-rule="evenodd" stroke="none"/>
    <path d="M12.65 1.05 L12.45 0.85 12.65 0.5 13.0 0.55 Q13.2 0.45 13.3 0.3 L13.35 0.3 13.35 0.55 13.15 0.7 13.65 0.75 Q13.9 0.7 14.1 0.55 L14.3 0.85 13.45 0.85 Q12.95 0.85 12.65 1.05" fill="#ffd17c" fill-rule="evenodd" stroke="none"/>
    <path d="M13.3 3.25 L13.2 3.2 13.5 3.25 Q13.45 3.4 13.55 3.55 L13.8 3.55 13.55 3.25 Q13.65 3.05 13.65 2.85 L13.65 1.5 13.9 1.5 14.1 2.0 13.65 1.9 Q13.65 2.35 13.7 2.8 L13.95 2.8 14.0 3.2 14.05 3.5 Q13.85 3.7 13.5 3.75 L13.45 3.7 13.25 3.7 13.4 3.3 13.3 3.25" fill="#563d1e" fill-rule="evenodd" stroke="none"/>
    <path d="M14.05 3.2 L14.0 3.2 13.95 2.8 13.7 2.8 Q13.65 2.35 13.65 1.9 L14.1 2.0 14.15 2.55 14.15 3.05 14.1 3.05 14.05 3.2" fill="#a97733" fill-rule="evenodd" stroke="none"/>
    <path d="M14.15 3.25 L14.05 3.2 14.1 3.05 14.15 3.05 14.15 3.25" fill="#654826" fill-rule="evenodd" stroke="none"/>
    <path d="M13.5 3.25 L13.55 3.25 13.8 3.55 13.55 3.55 Q13.45 3.4 13.5 3.25" fill="#fac243" fill-rule="evenodd" stroke="none"/>
    <path d="M12.05 4.1 L11.75 3.8 11.5 3.5 11.85 3.45 11.9 3.1 12.4 3.6 12.4 3.8 13.4 3.75 13.45 3.7 13.5 3.75 13.8 3.85 13.15 3.9 12.45 3.85 Q12.35 3.8 12.25 3.9 L12.05 4.1" fill="#e9a53c" fill-rule="evenodd" stroke="none"/>
    <path d="M8.3 2.05 L8.1 1.85 8.1 4.25 6.55 4.25 6.85 3.8 7.25 3.75 7.6 3.75 7.6 2.8 Q7.6 2.15 7.65 1.8 7.65 1.5 8.1 1.45 8.25 1.55 8.25 1.7 L8.3 2.05" fill="#48351b" fill-rule="evenodd" stroke="none"/>
    <path d="M6.85 3.7 L6.95 3.7 6.95 1.75 7.55 1.5 8.2 1.4 8.5 1.7 8.3 2.3 8.3 2.05 8.25 1.7 Q8.25 1.55 8.1 1.45 7.65 1.5 7.65 1.8 7.6 2.15 7.6 2.8 L7.6 3.75 7.25 3.75 6.85 3.8 6.55 4.25 6.5 4.3 6.55 4.1 Q6.55 3.95 6.5 3.85 L6.8 3.75 6.85 3.7" fill="#ffec77" fill-rule="evenodd" stroke="none"/>
    <path d="M6.95 1.75 L6.95 0.8 6.95 0.85 7.0 0.85 7.15 0.9 7.3 1.1 Q7.4 1.25 7.5 1.25 L8.55 1.2 8.55 1.3 8.5 1.7 8.2 1.4 7.55 1.5 6.95 1.75" fill="#fff08b" fill-rule="evenodd" stroke="none"/>
    <path d="M8.8 2.05 L8.85 2.15 9.0 2.45 9.25 3.05 9.45 3.65 9.4 3.6 9.4 3.55 9.05 2.8 Q8.85 2.4 8.8 2.05" fill="#432e14" fill-rule="evenodd" stroke="none"/>
    <path d="M9.15 4.25 Q9.05 4.1 9.15 4.0 L9.35 3.8 9.05 3.95 8.75 3.3 8.5 2.65 Q8.5 2.35 8.55 1.8 L8.8 2.0 8.8 2.05 Q8.85 2.4 9.05 2.8 L9.4 3.55 9.4 3.6 9.45 3.65 9.5 3.7 9.55 3.75 9.15 4.25" fill="#ffc062" fill-rule="evenodd" stroke="none"/>
    <path d="M9.0 2.45 L9.25 2.35 9.35 2.65 9.9 2.5 10.1 3.0 9.55 3.1 9.6 3.4 10.0 3.55 Q10.25 3.6 10.35 3.7 L10.4 3.75 9.55 3.75 9.5 3.7 9.45 3.65 9.25 3.05 9.0 2.45" fill="#ffdf5e" fill-rule="evenodd" stroke="none"/>
    <path d="M10.1 3.0 L10.35 3.7 Q10.25 3.6 10.0 3.55 L9.6 3.4 9.55 3.1 10.1 3.0" fill="#ffd07c" fill-rule="evenodd" stroke="none"/>
    <path d="M11.55 3.25 L11.45 3.4 Q11.4 2.95 11.4 2.55 L11.8 2.8 11.8 3.1 11.55 3.25" fill="#de9f4e" fill-rule="evenodd" stroke="none"/>
    <path d="M0.55 1.55 Q0.9 1.5 1.3 1.5 L1.25 1.85 0.65 1.8 0.55 1.55" fill="#806530" fill-rule="evenodd" stroke="none"/>
    <path d="M0.05 2.95 L0.05 1.5 0.1 1.5 0.1 1.9 0.45 2.05 0.4 2.75 Q0.15 2.85 0.05 2.95" fill="#bf9749" fill-rule="evenodd" stroke="none"/>
    <path d="M0.1 1.5 L0.25 1.55 0.45 2.05 0.1 1.9 0.1 1.5" fill="#655028" fill-rule="evenodd" stroke="none"/>
    <path d="M0.25 1.55 L0.5 1.5 0.5 2.25 Q0.5 2.7 0.55 3.0 L0.6 3.15 0.4 3.05 0.4 2.75 0.45 2.05 0.25 1.55" fill="#ffd061" fill-rule="evenodd" stroke="none"/>
    <path d="M1.3 1.5 L1.4 1.5 1.35 1.9 1.25 1.85 1.3 1.5" fill="#e9ce64" fill-rule="evenodd" stroke="none"/>
    <path d="M0.4 3.05 L0.6 3.15 0.55 3.0 0.6 2.0 1.25 2.0 1.25 3.1 Q1.15 3.4 0.85 3.6 0.6 3.75 0.25 3.8 L0.0 3.7 Q0.25 3.65 0.5 3.4 L0.4 3.05" fill="#ffff82" fill-rule="evenodd" stroke="none"/>
    <path d="M2.5 -2.65 L3.4 -2.65 3.8 -2.65 4.05 -2.55 4.5 -2.7 4.85 -2.75 5.2 -2.7 5.4 -2.65 5.4 -2.65 Q5.7 -2.5 5.9 -2.3 6.1 -2.1 6.1 -1.8 L6.1 0.2 5.25 0.25 4.35 0.25 4.45 0.0 4.4 0.1 4.4 -1.45 4.35 -1.5 4.35 -1.6 4.0 -1.55 Q3.9 -1.5 3.9 -1.4 L3.85 -1.15 3.85 4.25 3.1 4.25 2.3 4.25 2.25 4.3 Q2.15 4.2 2.15 4.1 L2.15 0.6 2.15 -2.7 2.2 -2.65 2.5 -2.65 M-0.25 -2.7 L0.95 -2.55 0.95 -2.5 Q1.3 -2.4 1.5 -2.1 1.75 -1.8 1.75 -1.4 L1.75 1.3 -0.5 1.3 -0.5 3.05 -0.35 3.3 -0.25 3.2 -0.2 3.3 -0.05 3.2 0.05 2.95 0.05 1.5 0.1 1.5 0.25 1.55 0.5 1.5 0.55 1.55 Q0.9 1.5 1.3 1.5 L1.4 1.5 1.75 1.5 1.75 3.2 Q1.7 3.65 1.35 3.95 1.0 4.2 0.6 4.25 -0.6 4.45 -1.5 4.15 L-1.5 4.1 -1.8 3.95 -2.05 3.6 -2.2 3.05 Q-2.2 2.25 -2.2 0.75 L-2.2 -1.55 -2.0 -2.1 -1.7 -2.4 -1.2 -2.6 -0.75 -2.65 -0.25 -2.7 M7.9 -4.3 L7.65 -4.3 6.75 -4.3 6.45 -4.3 6.4 -3.85 6.4 -0.1 6.4 3.95 Q6.4 4.2 6.5 4.3 L6.55 4.25 8.1 4.25 8.1 1.85 8.3 2.05 8.3 2.3 8.5 2.65 8.75 3.3 9.05 3.95 9.35 3.8 9.15 4.0 Q9.05 4.1 9.15 4.25 9.85 4.25 11.2 4.25 L9.55 0.35 10.8 -2.65 10.5 -2.65 10.3 -2.65 9.25 -2.65 9.0 -2.65 8.95 -2.65 8.7 -1.85 8.35 -1.05 8.2 -0.75 8.1 -0.7 8.1 -4.35 7.9 -4.3 M12.4 -2.6 L11.95 -2.4 11.65 -2.1 Q11.5 -1.8 11.4 -1.55 L11.4 2.55 Q11.4 2.95 11.45 3.4 L11.55 3.25 11.5 3.35 11.5 3.5 11.75 3.8 12.05 4.1 Q12.9 4.45 14.15 4.3 14.65 4.2 14.95 3.95 15.3 3.65 15.35 3.2 L15.35 1.5 15.0 1.5 14.9 1.5 14.05 1.5 13.65 1.5 13.65 2.85 Q13.65 3.05 13.55 3.25 L13.5 3.25 13.2 3.2 Q13.15 3.15 13.1 3.0 L13.1 1.3 15.35 1.3 15.35 -1.45 Q15.35 -1.8 15.1 -2.1 14.9 -2.4 14.55 -2.55 L13.85 -2.7 13.35 -2.75 12.8 -2.65 12.4 -2.6 M15.8 0.15 Q15.75 -1.85 15.8 -2.7 L15.85 -2.65 16.1 -2.65 17.1 -2.65 17.5 -2.65 17.55 -2.45 17.85 -2.6 17.9 -2.65 18.35 -2.7 18.8 -2.7 19.05 -2.6 19.1 -2.65 Q19.7 -2.3 19.75 -1.85 L19.75 0.25 18.15 0.2 18.05 0.3 18.05 -0.2 18.05 -1.1 18.05 -1.45 17.85 -1.55 Q17.7 -1.65 17.6 -1.55 17.5 -1.5 17.5 -1.35 L17.5 4.25 15.75 4.25 15.85 4.15 15.8 4.15 15.8 3.85 15.8 0.15 M13.3 0.3 L13.1 0.3 13.1 -1.35 Q13.1 -1.45 13.2 -1.55 L13.4 -1.65 13.65 -1.45 Q13.6 -1.15 13.65 -0.55 L13.65 0.3 13.45 0.3 13.35 0.3 13.3 0.3 M0.0 -1.5 Q0.05 -1.15 0.05 -0.6 L0.05 0.3 -0.5 0.3 -0.5 -1.4 Q-0.5 -1.55 -0.3 -1.6 L-0.05 -1.65 0.0 -1.5 M-16.8 -4.2 L-16.45 -4.1 Q-15.9 -3.85 -15.7 -3.5 -15.55 -3.2 -15.55 -2.8 L-15.55 -1.5 Q-15.55 -1.15 -15.7 -0.95 -15.85 -0.75 -16.1 -0.55 L-16.55 -0.35 Q-16.15 -0.2 -15.9 0.0 -15.55 0.25 -15.5 0.6 L-15.5 2.1 -15.5 2.7 Q-15.5 3.1 -15.6 3.35 -15.85 3.75 -16.3 4.0 -16.75 4.25 -17.25 4.25 L-19.65 4.25 -19.7 4.3 -19.75 3.85 -19.75 -3.6 -19.7 -4.35 -19.65 -4.3 -19.45 -4.3 -19.3 -4.25 -18.45 -4.25 -17.65 -4.3 -16.8 -4.2 M-17.5 -3.1 L-17.9 -3.2 -17.9 -2.0 -17.85 -0.85 -17.45 -0.95 Q-17.3 -1.2 -17.3 -1.5 L-17.35 -2.1 -17.35 -2.55 Q-17.35 -2.85 -17.4 -3.05 L-17.5 -3.1 M-17.85 -0.8 L-17.85 -0.85 -17.85 -0.8 -17.85 -0.8 M-17.8 3.15 L-17.85 3.2 Q-17.9 2.6 -17.9 1.65 L-17.9 0.1 -17.45 0.15 Q-17.35 0.35 -17.3 0.7 L-17.3 1.25 -17.3 2.6 Q-17.3 2.8 -17.45 2.95 -17.55 3.1 -17.8 3.15 M-13.0 -1.65 L-12.95 -1.5 -12.9 -1.4 -12.9 -1.05 -12.9 -0.55 -12.9 -0.05 -12.9 0.3 -13.1 0.3 -13.15 0.3 -13.3 0.3 -13.45 0.25 -13.45 -0.6 -13.4 -1.4 Q-13.4 -1.55 -13.25 -1.6 L-13.0 -1.65 M-12.05 -2.55 L-12.6 -2.65 Q-13.15 -2.75 -13.7 -2.65 L-14.15 -2.6 Q-14.5 -2.45 -14.7 -2.3 L-14.85 -2.2 -15.15 -1.6 -15.15 -1.45 -15.15 2.75 -15.15 3.25 -15.1 3.25 -15.1 3.45 -14.85 3.85 -14.5 4.1 Q-13.7 4.45 -12.45 4.3 -12.0 4.25 -11.7 4.0 -11.3 3.75 -11.25 3.3 -11.15 2.95 -11.2 2.4 L-11.2 1.5 -11.6 1.5 -11.65 1.5 -12.5 1.5 -12.65 1.5 -12.9 1.5 -12.9 1.9 -12.9 2.8 Q-12.9 3.05 -13.0 3.2 L-13.05 3.25 -13.2 3.2 -13.25 3.3 -13.4 3.15 -13.45 2.95 -13.45 1.3 -11.2 1.3 -11.2 -1.45 Q-11.2 -1.8 -11.45 -2.15 -11.7 -2.45 -12.05 -2.55 M-9.1 -2.65 L-8.85 -2.55 -8.5 -2.65 -8.15 -2.7 -7.95 -2.7 -7.5 -2.65 -7.5 -2.6 Q-7.25 -2.5 -7.05 -2.3 -6.85 -2.1 -6.8 -1.8 -6.8 -0.45 -6.85 0.25 -7.2 0.2 -7.7 0.25 L-8.55 0.25 -8.5 0.1 -8.5 -0.2 -8.55 -1.2 -8.5 -1.45 -8.6 -1.45 -8.6 -1.6 Q-9.1 -1.6 -9.05 -1.35 L-9.05 1.45 -9.1 4.25 -9.85 4.25 -10.65 4.25 -10.75 4.3 -10.8 3.85 -10.8 -2.3 -10.75 -2.65 -10.45 -2.65 -9.95 -2.65 -9.45 -2.7 -9.4 -2.65 -9.1 -2.65 M-5.05 -2.65 Q-5.45 -2.6 -5.75 -2.5 L-6.05 -2.3 Q-6.35 -2.0 -6.45 -1.6 L-6.5 -0.75 -6.45 0.1 -6.45 -0.1 -6.45 -0.2 -6.45 -0.25 M-5.05 -2.65 Q-4.45 -2.75 -3.95 -2.65 L-4.05 -2.65 -3.75 -2.65 -3.35 -2.55 -3.35 -2.5 Q-3.05 -2.4 -2.8 -2.1 -2.6 -1.85 -2.6 -1.5 -2.55 -1.0 -2.55 0.05 L-4.2 0.05 -4.25 0.2 Q-4.0 0.25 -3.7 0.4 L-3.25 0.65 Q-2.9 0.85 -2.7 1.2 -2.5 1.6 -2.55 2.0 L-2.55 2.9 Q-2.55 3.45 -2.8 3.75 -3.25 4.35 -4.45 4.35 -5.2 4.35 -5.85 4.15 L-5.85 4.1 Q-6.1 4.0 -6.25 3.8 L-6.05 3.75 -6.35 3.7 -6.4 3.55 -6.55 3.05 -6.55 1.85 -6.5 1.45 -6.55 1.45 -6.25 1.45 Q-5.6 1.45 -5.4 1.5 L-4.95 1.45 -4.85 1.3 -5.15 1.2 -5.4 1.05 -6.0 0.7 -6.15 0.65 -6.4 0.25 -6.45 0.05 -6.45 0.0 -6.45 -0.2 M-4.35 -1.6 L-4.6 -1.6 Q-4.75 -1.55 -4.75 -1.4 -4.85 -1.0 -4.8 -0.65 -4.75 -0.25 -4.5 0.0 L-4.2 0.1 Q-4.2 -0.8 -4.25 -1.25 L-4.2 -1.2 -4.25 -1.4 -4.3 -1.45 -4.35 -1.6 M-4.25 2.35 L-4.25 2.8 -4.35 3.15 -4.45 3.25 -4.75 3.2 Q-4.85 2.9 -4.85 2.3 L-4.85 1.35 -4.55 1.5 -4.45 1.65 -4.2 1.35 -3.9 1.45 -4.2 1.45 -4.4 1.65 Q-4.3 2.1 -4.25 2.35 Z" fill="none" stroke="#000000" stroke-linecap="round" stroke-linejoin="round" stroke-opacity="0.4509804" stroke-width="1.0"/>
  </g>
</svg>
