<?xml version="1.0" encoding="UTF-8" standalone="no"?>
<svg xmlns:xlink="http://www.w3.org/1999/xlink" height="9.15px" width="32.35px" xmlns="http://www.w3.org/2000/svg">
  <g transform="matrix(1.0, 0.0, 0.0, 1.0, 18.8, 4.6)">
    <path d="M3.65 3.95 Q3.65 2.85 3.65 0.9 L3.65 -2.2 Q3.7 -2.35 3.65 -2.5 L3.45 -2.75 4.3 -2.8 5.1 -2.75 4.75 -2.45 4.2 -2.45 3.7 -2.4 3.7 0.7 3.7 1.2 3.75 1.45 3.7 2.7 3.7 3.1 3.7 3.25 3.7 3.95 3.65 3.95" fill="#80591e" fill-rule="evenodd" stroke="none"/>
    <path d="M3.45 -2.75 L3.65 -2.5 Q3.7 -2.35 3.65 -2.2 L3.65 0.9 Q3.65 2.85 3.65 3.95 L3.4 4.2 3.4 -2.8 3.45 -2.75" fill="#3b280d" fill-rule="evenodd" stroke="none"/>
    <path d="M3.4 -2.8 L3.4 4.2 3.35 4.3 Q3.3 2.85 3.35 0.75 L3.35 -2.75 3.4 -2.8" fill="#4a2745" fill-rule="evenodd" stroke="none"/>
    <path d="M2.65 -2.75 L2.65 -2.65 2.35 -2.35 2.3 -2.4 2.3 -2.45 2.65 -2.75" fill="#ffff4f" fill-rule="evenodd" stroke="none"/>
    <path d="M0.9 -2.75 L1.75 -2.8 2.65 -2.75 2.3 -2.45 1.7 -2.45 Q1.3 -2.5 1.15 -2.4 L1.15 0.25 1.2 2.85 1.15 3.1 1.1 0.45 1.1 -2.25 Q1.15 -2.4 1.1 -2.55 L0.9 -2.75" fill="#714d18" fill-rule="evenodd" stroke="none"/>
    <path d="M0.5 3.25 Q0.7 3.2 0.75 3.05 0.85 2.9 0.8 2.75 L0.85 -0.05 0.85 -2.8 0.9 -2.75 1.1 -2.55 Q1.15 -2.4 1.1 -2.25 L1.1 0.45 1.15 3.1 1.05 3.3 0.95 3.5 0.6 3.5 0.5 3.25" fill="#39270c" fill-rule="evenodd" stroke="none"/>
    <path d="M0.15 -2.75 L0.2 -2.8 0.2 -2.6 -0.05 -2.35 -0.05 -0.25 Q-0.25 -0.1 -0.2 -0.4 -0.15 -0.8 -0.2 -0.8 -0.05 -0.95 -0.25 -1.2 L-0.35 -1.35 Q-0.35 -1.4 -0.2 -1.45 -0.2 -1.75 -0.2 -2.4 L-0.2 -2.45 0.15 -2.75" fill="#ffef71" fill-rule="evenodd" stroke="none"/>
    <path d="M0.8 2.75 Q0.75 1.6 0.8 0.0 L0.8 -2.75 0.85 -2.8 0.85 -0.05 0.8 2.75" fill="#562468" fill-rule="evenodd" stroke="none"/>
    <path d="M1.2 2.85 L1.15 0.25 1.15 -2.4 1.25 -2.4 1.25 0.25 Q1.25 1.85 1.2 2.85" fill="#ffba3e" fill-rule="evenodd" stroke="none"/>
    <path d="M2.3 -2.45 L2.3 -2.4 1.25 -2.4 1.15 -2.4 Q1.3 -2.5 1.7 -2.45 L2.3 -2.45" fill="#c48832" fill-rule="evenodd" stroke="none"/>
    <path d="M2.65 -2.65 L2.7 0.8 2.65 4.3 Q2.45 4.15 2.35 3.9 L2.35 3.35 Q2.4 3.2 2.3 2.95 L2.35 2.45 2.35 2.2 2.35 1.45 2.35 0.6 2.35 0.5 2.35 -0.7 2.35 -0.95 2.35 -1.0 2.4 -1.15 2.3 -1.35 2.3 -1.4 2.35 -2.35 2.65 -2.65" fill="#d08d29" fill-rule="evenodd" stroke="none"/>
    <path d="M2.35 -1.0 L2.3 -1.25 2.3 -1.35 2.4 -1.15 2.35 -1.0 M2.3 2.95 Q2.4 3.2 2.35 3.35 2.15 3.2 2.3 2.95" fill="#ffffd9" fill-rule="evenodd" stroke="none"/>
    <path d="M2.3 -2.4 L2.35 -2.35 2.3 -1.4 Q2.3 -1.6 2.3 -1.9 L2.3 -2.4" fill="#ffffd7" fill-rule="evenodd" stroke="none"/>
    <path d="M2.65 4.3 L1.75 4.35 0.8 4.3 Q1.0 4.25 1.15 3.9 L1.15 3.7 0.95 3.7 0.95 3.5 1.05 3.3 1.15 3.1 1.2 2.85 Q1.25 1.85 1.25 0.25 L1.25 -2.4 2.3 -2.4 2.3 -1.9 Q2.3 -1.6 2.3 -1.4 L2.35 -0.95 2.35 -0.7 2.3 -0.1 Q2.25 0.25 2.35 0.5 L2.35 0.6 2.3 1.0 Q2.3 1.25 2.35 1.45 L2.35 2.2 Q2.25 2.25 2.25 2.3 L2.35 2.45 2.3 2.95 Q2.15 3.2 2.35 3.35 L2.35 3.9 Q2.45 4.15 2.65 4.3 M1.3 3.95 Q1.35 4.05 1.5 4.05 1.65 4.05 1.65 3.95 L1.5 3.95 1.3 3.95" fill="#fff451" fill-rule="evenodd" stroke="none"/>
    <path d="M2.35 0.5 Q2.25 0.25 2.3 -0.1 L2.35 -0.7 2.35 0.5" fill="#ffffb3" fill-rule="evenodd" stroke="none"/>
    <path d="M6.25 -2.9 L6.3 -2.8 6.0 -2.35 5.95 -2.4 Q6.05 -2.7 6.25 -2.9" fill="#fbf2a1" fill-rule="evenodd" stroke="none"/>
    <path d="M4.75 -2.45 L5.1 -2.75 Q5.3 -2.8 5.2 -2.65 L5.15 -2.65 Q5.0 -2.6 4.9 -2.4 4.8 -2.25 4.8 -2.05 4.8 -1.9 4.9 -1.8 5.0 -1.75 5.15 -1.9 L5.1 -1.75 Q4.85 -1.5 4.8 -1.85 L4.75 -2.4 4.75 -2.45" fill="#fef7c2" fill-rule="evenodd" stroke="none"/>
    <path d="M5.95 -2.4 L6.0 -2.35 6.0 -0.75 5.6 -0.65 Q5.3 -0.6 5.55 -0.7 L5.95 -0.85 5.9 -2.35 5.95 -2.4 M12.65 -3.55 Q12.3 -3.5 12.2 -3.6 L12.7 -3.65 13.1 -3.55 12.65 -3.55" fill="#fffffb" fill-rule="evenodd" stroke="none"/>
    <path d="M5.25 -1.5 L5.35 -1.55 5.65 -1.95 Q5.8 -2.2 5.9 -2.35 L5.95 -0.85 5.55 -0.7 Q5.3 -0.6 5.6 -0.65 5.15 -0.45 5.0 -0.1 5.05 -0.25 5.0 -0.5 L4.9 -1.0 Q4.85 -1.25 4.95 -1.4 5.0 -1.5 5.25 -1.5" fill="#fffd82" fill-rule="evenodd" stroke="none"/>
    <path d="M6.25 -2.9 Q6.05 -2.7 5.95 -2.4 L5.9 -2.35 Q5.8 -2.2 5.65 -1.95 L5.35 -1.55 5.25 -1.5 5.15 -1.55 Q5.05 -1.6 5.1 -1.75 L5.15 -1.9 Q5.35 -2.3 5.6 -2.55 5.9 -2.85 6.25 -2.9" fill="#503a20" fill-rule="evenodd" stroke="none"/>
    <path d="M3.7 0.7 L3.7 -2.4 4.75 -2.4 4.8 -1.85 Q4.85 -1.5 5.1 -1.75 5.05 -1.6 5.15 -1.55 L5.25 -1.5 Q5.0 -1.5 4.95 -1.4 4.85 -1.25 4.9 -1.0 L5.0 -0.5 Q5.05 -0.25 5.0 -0.1 L5.0 0.05 4.9 -0.05 Q4.85 0.2 4.85 0.55 L4.85 1.15 Q4.65 1.2 4.6 1.05 4.55 0.85 4.45 0.8 L4.3 0.4 Q4.2 0.15 4.0 0.3 4.1 0.5 4.0 0.7 3.9 0.9 3.7 0.7" fill="#fffd63" fill-rule="evenodd" stroke="none"/>
    <path d="M3.7 -2.4 L4.2 -2.45 4.75 -2.45 4.75 -2.4 3.7 -2.4" fill="#d8983f" fill-rule="evenodd" stroke="none"/>
    <path d="M5.15 -1.9 Q5.0 -1.75 4.9 -1.8 4.8 -1.9 4.8 -2.05 4.8 -2.25 4.9 -2.4 5.0 -2.6 5.15 -2.65 L5.15 -1.9" fill="#dca847" fill-rule="evenodd" stroke="none"/>
    <path d="M6.3 -0.45 L6.0 -0.4 5.75 -0.4 5.6 -0.65 6.0 -0.75 6.3 -0.45" fill="#fcdd65" fill-rule="evenodd" stroke="none"/>
    <path d="M5.75 -0.4 Q5.35 -0.15 5.25 0.15 L5.2 0.35 4.95 0.35 4.95 0.2 5.0 0.05 5.0 -0.1 Q5.15 -0.45 5.6 -0.65 L5.75 -0.4" fill="#a97732" fill-rule="evenodd" stroke="none"/>
    <path d="M6.0 -2.35 L6.3 -2.8 6.35 -1.55 6.3 -0.45 6.0 -0.75 6.0 -2.35" fill="#e8af4f" fill-rule="evenodd" stroke="none"/>
    <path d="M7.05 -0.4 L7.0 -0.4 7.05 -1.1 7.05 -0.4" fill="#9d792f" fill-rule="evenodd" stroke="none"/>
    <path d="M7.05 -0.4 L7.05 -1.1 Q7.05 -1.6 7.45 -2.05 7.8 -2.4 8.35 -2.55 L8.75 -2.55 9.15 -2.45 Q9.65 -2.4 9.85 -2.75 L10.0 -2.65 10.1 -2.55 Q9.95 -2.35 10.15 -2.0 10.45 -1.55 10.4 -1.4 L10.5 -1.7 10.6 -2.0 10.7 -1.85 10.75 -1.65 Q10.45 -1.6 10.5 -1.35 10.4 -0.95 10.45 -0.3 10.55 -0.3 10.55 -0.55 L10.5 -0.9 10.55 0.05 10.55 2.25 10.45 2.25 10.35 2.0 Q10.3 1.85 10.5 1.85 L10.5 1.35 Q10.45 1.05 10.15 1.1 10.1 0.85 10.15 0.75 10.15 0.5 10.4 0.6 10.55 0.55 10.45 0.45 L10.2 0.35 Q10.15 0.25 10.3 0.2 10.45 0.15 10.45 0.05 L10.0 0.0 Q9.8 0.05 9.9 0.35 L9.85 0.8 Q9.75 1.1 9.55 1.0 9.3 0.85 9.6 0.35 L9.05 0.25 Q9.3 0.0 9.35 -0.2 9.45 -0.65 9.35 -1.2 L9.25 -1.6 Q9.25 -1.75 9.1 -1.7 L8.85 -1.6 Q9.05 -1.8 8.9 -2.0 8.75 -2.2 8.5 -2.05 8.05 -1.9 8.0 -1.35 L8.0 -0.45 7.55 -0.4 7.05 -0.4" fill="#fffd8b" fill-rule="evenodd" stroke="none"/>
    <path d="M7.05 -1.1 L7.0 -0.4 6.65 -0.1 6.65 -0.6 Q6.65 -0.9 6.7 -1.1 6.75 -1.2 6.7 -1.4 6.8 -1.95 7.3 -2.4 7.75 -2.85 8.35 -2.85 L8.45 -2.6 8.35 -2.55 Q7.8 -2.4 7.45 -2.05 7.05 -1.6 7.05 -1.1" fill="#4d3b1c" fill-rule="evenodd" stroke="none"/>
    <path d="M7.0 -0.4 L7.05 -0.4 7.55 -0.35 8.1 -0.35 8.4 -0.05 7.45 0.0 6.65 -0.1 7.0 -0.4" fill="#ffff99" fill-rule="evenodd" stroke="none"/>
    <path d="M8.1 -0.35 L7.55 -0.35 7.05 -0.4 7.55 -0.4 8.0 -0.45 8.0 -1.35 Q8.05 -1.9 8.5 -2.05 8.75 -2.2 8.9 -2.0 9.05 -1.8 8.85 -1.6 L8.7 -1.65 Q8.75 -1.9 8.65 -1.95 8.5 -2.05 8.35 -1.9 8.15 -1.75 8.15 -1.55 8.05 -1.1 8.1 -0.35" fill="#fffff7" fill-rule="evenodd" stroke="none"/>
    <path d="M11.55 -3.3 L11.55 -3.9 Q11.5 -4.3 11.65 -4.35 L11.95 -4.0 11.95 -3.95 Q12.0 -3.75 11.85 -3.55 L11.55 -3.3" fill="#4f3824" fill-rule="evenodd" stroke="none"/>
    <path d="M11.65 -4.35 L12.55 -4.35 13.4 -4.35 13.1 -4.0 11.95 -4.0 11.65 -4.35" fill="#86662c" fill-rule="evenodd" stroke="none"/>
    <path d="M11.95 -3.95 L11.95 -4.0 13.1 -4.0 Q12.95 -3.9 12.55 -3.95 L11.95 -3.95" fill="#e8af4d" fill-rule="evenodd" stroke="none"/>
    <path d="M13.4 -4.35 Q13.55 -4.4 13.5 -4.25 13.2 -4.05 13.2 -3.75 13.15 -3.4 13.45 -3.25 L12.45 -3.2 11.55 -3.3 11.85 -3.55 Q12.0 -3.75 11.95 -3.95 L12.55 -3.95 Q12.95 -3.9 13.1 -4.0 L13.4 -4.35 M12.65 -3.55 L13.1 -3.55 12.7 -3.65 12.2 -3.6 Q12.3 -3.5 12.65 -3.55" fill="#fffc8e" fill-rule="evenodd" stroke="none"/>
    <path d="M11.6 -2.8 L11.7 -2.75 11.85 -2.5 Q11.9 -2.35 11.85 -2.2 L11.85 0.9 11.9 3.95 11.75 4.1 11.65 4.2 11.6 0.7 11.6 -2.8" fill="#3e2b10" fill-rule="evenodd" stroke="none"/>
    <path d="M11.55 4.3 L11.55 -2.75 11.6 -2.8 11.6 0.7 11.65 4.2 11.55 4.3" fill="#4d2a46" fill-rule="evenodd" stroke="none"/>
    <path d="M11.7 -2.75 L12.55 -2.8 13.4 -2.75 13.1 -2.45 12.5 -2.45 Q12.05 -2.5 11.95 -2.4 L11.95 -1.5 11.95 2.0 Q11.9 2.2 11.95 3.0 12.0 3.6 11.9 3.95 L11.85 0.9 11.85 -2.2 Q11.9 -2.35 11.85 -2.5 L11.7 -2.75" fill="#825a20" fill-rule="evenodd" stroke="none"/>
    <path d="M9.85 -2.75 Q9.65 -2.4 9.15 -2.45 L8.75 -2.55 8.35 -2.55 8.45 -2.6 9.0 -2.55 Q9.35 -2.55 9.25 -2.85 L9.6 -2.8 Q9.8 -2.8 9.85 -2.75" fill="#e8b74e" fill-rule="evenodd" stroke="none"/>
    <path d="M8.35 -2.85 L8.8 -2.9 Q9.2 -2.95 9.25 -2.85 9.35 -2.55 9.0 -2.55 L8.45 -2.6 8.35 -2.85" fill="#957838" fill-rule="evenodd" stroke="none"/>
    <path d="M8.4 -0.05 L8.1 -0.35 Q8.05 -1.1 8.15 -1.55 8.1 -1.3 8.4 -1.35 L8.45 -0.65 Q8.45 -0.15 8.4 -0.05" fill="#edb94a" fill-rule="evenodd" stroke="none"/>
    <path d="M8.55 -1.7 L8.4 -1.35 Q8.1 -1.3 8.15 -1.55 8.15 -1.75 8.35 -1.9 8.5 -1.85 8.55 -1.7" fill="#b59142" fill-rule="evenodd" stroke="none"/>
    <path d="M8.85 -1.6 L9.1 -1.7 Q9.25 -1.75 9.25 -1.6 L8.95 -1.55 8.85 -1.6" fill="#d0a24d" fill-rule="evenodd" stroke="none"/>
    <path d="M8.7 -1.65 L8.55 -1.7 Q8.5 -1.85 8.35 -1.9 8.5 -2.05 8.65 -1.95 8.75 -1.9 8.7 -1.65" fill="#ffec76" fill-rule="evenodd" stroke="none"/>
    <path d="M9.35 -1.2 Q9.45 -0.65 9.35 -0.2 L9.35 -1.2" fill="#c89640" fill-rule="evenodd" stroke="none"/>
    <path d="M9.25 -1.6 L9.35 -1.2 9.35 -0.2 Q9.3 0.0 9.05 0.25 8.9 0.4 8.5 0.55 L7.9 0.8 Q7.2 1.15 7.05 1.65 L6.95 2.5 Q6.95 3.0 7.05 3.35 7.1 3.7 6.85 3.8 6.65 3.45 6.65 2.75 L6.7 1.65 Q6.75 1.0 7.5 0.6 7.65 0.55 8.15 0.3 L8.7 0.0 Q9.05 -0.2 9.05 -0.7 L8.95 -1.55 9.25 -1.6" fill="#4c381a" fill-rule="evenodd" stroke="none"/>
    <path d="M11.95 -1.5 L11.95 -2.4 13.0 -2.35 Q13.15 -2.05 12.8 -1.85 L12.25 -1.85 Q12.15 -1.55 11.95 -1.5" fill="#ffff56" fill-rule="evenodd" stroke="none"/>
    <path d="M10.6 -2.0 L10.5 -1.7 10.4 -1.4 Q10.45 -1.55 10.15 -2.0 9.95 -2.35 10.1 -2.55 L10.4 -2.35 Q10.55 -2.15 10.6 -2.0" fill="#fefce4" fill-rule="evenodd" stroke="none"/>
    <path d="M10.55 0.05 L10.5 -0.9 10.5 -1.35 Q10.45 -1.6 10.75 -1.65 10.85 -1.2 10.85 -0.8 L10.85 0.05 10.55 0.05" fill="#f3b046" fill-rule="evenodd" stroke="none"/>
    <path d="M10.5 -0.9 L10.55 -0.55 Q10.55 -0.3 10.45 -0.3 10.4 -0.95 10.5 -1.35 L10.5 -0.9" fill="#fffff9" fill-rule="evenodd" stroke="none"/>
    <path d="M13.5 -4.25 L13.5 -3.7 Q13.55 -3.3 13.45 -3.25 13.15 -3.4 13.2 -3.75 13.2 -4.05 13.5 -4.25" fill="#e6a955" fill-rule="evenodd" stroke="none"/>
    <path d="M13.5 -2.65 L13.5 4.35 13.45 4.35 13.45 4.3 13.45 -2.6 13.5 -2.65" fill="#c87e6a" fill-rule="evenodd" stroke="none"/>
    <path d="M13.4 -2.75 Q13.55 -2.8 13.5 -2.65 L13.45 -2.6 Q13.25 -2.45 13.2 -2.2 13.15 -2.05 13.2 -1.75 12.95 -1.85 12.7 -1.7 L12.35 -1.35 12.65 -0.85 Q12.85 -0.55 13.05 -0.4 13.0 -0.65 13.05 -1.0 L13.15 -1.55 13.2 0.6 13.15 2.75 Q13.1 2.65 13.1 2.3 13.1 2.05 12.95 1.95 13.15 1.8 13.1 1.55 13.1 1.25 12.8 1.45 12.95 1.6 12.85 1.75 12.8 1.9 12.6 2.0 L12.2 2.1 Q12.0 2.1 11.95 2.0 L11.95 -1.5 Q12.15 -1.55 12.25 -1.85 L12.8 -1.85 Q13.15 -2.05 13.0 -2.35 L13.1 -2.45 13.4 -2.75" fill="#fffe6f" fill-rule="evenodd" stroke="none"/>
    <path d="M13.45 -2.6 L13.45 4.3 Q13.15 4.1 13.15 3.55 L13.2 3.15 13.15 2.75 13.2 0.6 13.15 -1.55 13.2 -1.75 Q13.15 -2.05 13.2 -2.2 13.25 -2.45 13.45 -2.6" fill="#d28f33" fill-rule="evenodd" stroke="none"/>
    <path d="M13.2 -1.75 L13.15 -1.55 13.05 -1.0 Q13.0 -0.65 13.05 -0.4 12.85 -0.55 12.65 -0.85 L12.35 -1.35 12.7 -1.7 Q12.95 -1.85 13.2 -1.75" fill="#ffff55" fill-rule="evenodd" stroke="none"/>
    <path d="M11.95 -2.4 Q12.05 -2.5 12.5 -2.45 L13.1 -2.45 13.0 -2.35 11.95 -2.4" fill="#dd9838" fill-rule="evenodd" stroke="none"/>
    <path d="M13.45 4.35 L12.45 4.35 11.55 4.3 11.65 4.2 11.75 4.1 11.9 3.95 Q12.0 3.6 11.95 3.0 11.9 2.2 11.95 2.0 12.0 2.1 12.2 2.1 L12.6 2.0 Q12.8 1.9 12.85 1.75 12.95 1.6 12.8 1.45 13.1 1.25 13.1 1.55 13.15 1.8 12.95 1.95 13.1 2.05 13.1 2.3 13.1 2.65 13.15 2.75 L13.2 3.15 13.15 3.55 Q13.15 4.1 13.45 4.3 L13.45 4.35" fill="#fff956" fill-rule="evenodd" stroke="none"/>
    <path d="M9.05 0.25 L9.6 0.35 Q9.3 0.85 9.55 1.0 9.75 1.1 9.85 0.8 L9.9 0.35 Q9.8 0.05 10.0 0.0 L10.45 0.05 Q10.45 0.15 10.3 0.2 10.15 0.25 10.2 0.35 L10.45 0.45 Q10.55 0.55 10.4 0.6 10.15 0.5 10.15 0.75 10.1 0.85 10.15 1.1 10.45 1.05 10.5 1.35 L10.5 1.85 Q10.3 1.85 10.35 2.0 L10.45 2.25 10.2 2.2 10.0 2.05 10.1 2.4 Q10.1 2.55 10.05 2.7 L9.7 2.65 Q9.55 2.6 9.4 2.7 L9.4 1.8 Q9.4 1.25 9.35 0.95 9.3 0.8 9.2 0.85 L9.0 1.0 9.1 0.8 Q9.1 0.65 9.0 0.6 L9.05 0.25" fill="#fffe6e" fill-rule="evenodd" stroke="none"/>
    <path d="M10.55 2.25 L10.55 0.05 10.85 0.05 10.85 2.15 10.8 4.3 Q10.6 4.15 10.6 3.9 L10.55 3.4 10.55 2.25" fill="#d69337" fill-rule="evenodd" stroke="none"/>
    <path d="M10.45 2.25 L10.55 2.25 10.55 3.4 Q10.45 3.45 10.5 3.7 10.5 3.9 10.35 3.95 10.3 3.95 10.25 3.9 L10.25 3.7 Q10.2 3.5 9.9 3.7 L9.65 3.7 Q9.45 3.75 9.45 3.9 9.4 3.7 9.3 3.65 9.2 3.6 9.05 3.75 L9.0 3.75 9.0 3.6 8.8 3.6 8.75 3.55 8.75 3.5 9.15 3.4 Q9.35 3.3 9.35 3.05 L9.4 2.7 Q9.55 2.6 9.7 2.65 L10.05 2.7 Q10.1 2.55 10.1 2.4 L10.0 2.05 10.2 2.2 10.45 2.25" fill="#fefb5b" fill-rule="evenodd" stroke="none"/>
    <path d="M10.85 -0.8 Q10.9 0.15 10.9 1.75 L10.9 4.35 10.85 4.35 10.8 4.3 10.85 2.15 10.85 0.05 10.85 -0.8" fill="#ca7f76" fill-rule="evenodd" stroke="none"/>
    <path d="M9.0 1.0 L9.2 0.85 Q9.3 0.8 9.35 0.95 9.3 2.2 9.35 3.05 9.35 3.3 9.15 3.4 L8.75 3.5 8.75 3.25 Q8.95 3.15 9.0 3.0 L9.0 1.0" fill="#463214" fill-rule="evenodd" stroke="none"/>
    <path d="M7.05 1.65 Q7.2 1.15 7.9 0.8 L8.5 0.55 Q8.9 0.4 9.05 0.25 L9.0 0.6 Q8.8 0.6 8.65 0.7 8.45 0.8 8.5 1.0 L8.25 1.4 Q8.15 1.65 8.15 1.85 L8.1 1.85 Q8.1 1.7 8.05 1.65 L8.0 2.3 8.1 3.0 Q8.05 3.3 8.25 3.4 8.45 3.45 8.65 3.2 L8.5 3.45 Q8.5 3.55 8.7 3.55 8.5 3.95 8.0 4.05 L7.2 4.2 7.05 4.15 7.0 4.1 Q7.15 3.95 7.15 3.75 7.15 3.55 7.05 3.35 L7.05 1.65" fill="#fffd84" fill-rule="evenodd" stroke="none"/>
    <path d="M9.0 0.6 Q9.1 0.65 9.1 0.8 L9.0 1.0 8.95 1.0 Q9.0 0.65 8.8 0.7 8.65 0.75 8.5 1.0 8.45 0.8 8.65 0.7 8.8 0.6 9.0 0.6" fill="#fdfbda" fill-rule="evenodd" stroke="none"/>
    <path d="M8.5 1.0 Q8.65 0.75 8.8 0.7 9.0 0.65 8.95 1.0 8.45 1.4 8.4 1.85 L8.15 1.85 Q8.15 1.65 8.25 1.4 L8.5 1.0" fill="#aa8136" fill-rule="evenodd" stroke="none"/>
    <path d="M8.4 1.85 L8.4 2.9 8.25 2.9 8.1 2.75 8.1 2.55 8.1 1.85 8.15 1.85 8.4 1.85" fill="#eeba43" fill-rule="evenodd" stroke="none"/>
    <path d="M9.35 0.95 Q9.4 1.25 9.4 1.8 L9.4 2.7 9.35 3.05 Q9.3 2.2 9.35 0.95" fill="#b27d32" fill-rule="evenodd" stroke="none"/>
    <path d="M8.4 2.9 L8.5 3.1 8.25 3.15 Q8.15 3.1 8.1 3.0 L8.1 2.75 8.25 2.9 8.4 2.9" fill="#fdf075" fill-rule="evenodd" stroke="none"/>
    <path d="M8.5 3.1 L8.65 3.2 Q8.45 3.45 8.25 3.4 8.05 3.3 8.1 3.0 8.15 3.1 8.25 3.15 L8.5 3.1" fill="#fcf9f1" fill-rule="evenodd" stroke="none"/>
    <path d="M7.75 4.45 Q7.35 4.35 7.2 4.2 L8.0 4.05 Q8.5 3.95 8.7 3.55 L8.75 3.55 8.8 3.6 8.35 4.1 8.15 4.15 Q7.7 4.0 7.75 4.45" fill="#fdfae2" fill-rule="evenodd" stroke="none"/>
    <path d="M8.75 3.25 L8.75 3.5 8.75 3.55 8.7 3.55 Q8.5 3.55 8.5 3.45 L8.65 3.2 8.75 3.25" fill="#ca9834" fill-rule="evenodd" stroke="none"/>
    <path d="M9.0 3.75 Q8.8 4.3 8.4 4.35 L8.35 4.1 8.8 3.6 9.0 3.6 9.0 3.75" fill="#a07438" fill-rule="evenodd" stroke="none"/>
    <path d="M8.4 4.35 Q8.4 4.4 8.3 4.45 L8.1 4.5 8.15 4.15 8.35 4.1 8.4 4.35" fill="#f0b657" fill-rule="evenodd" stroke="none"/>
    <path d="M8.1 4.5 L7.75 4.45 Q7.7 4.0 8.15 4.15 L8.1 4.5" fill="#fffc7e" fill-rule="evenodd" stroke="none"/>
    <path d="M9.1 4.3 L9.05 3.75 Q9.2 3.6 9.3 3.65 9.4 3.7 9.45 3.9 L9.45 3.95 9.1 4.3" fill="#60441b" fill-rule="evenodd" stroke="none"/>
    <path d="M10.85 4.35 L10.0 4.35 9.2 4.35 Q9.25 4.15 9.7 4.0 L9.85 3.95 9.45 3.95 9.45 3.9 Q9.45 3.75 9.65 3.7 L9.9 3.7 Q10.2 3.5 10.25 3.7 L10.25 3.9 Q10.3 3.95 10.35 3.95 10.5 3.9 10.5 3.7 10.45 3.45 10.55 3.4 L10.6 3.9 Q10.6 4.15 10.8 4.3 L10.85 4.35" fill="#fffe72" fill-rule="evenodd" stroke="none"/>
    <path d="M9.2 4.35 L9.1 4.3 9.45 3.95 9.85 3.95 9.7 4.0 Q9.25 4.15 9.2 4.35 M-12.3 -1.75 Q-12.3 -2.05 -11.9 -2.05 L-11.6 -2.0 Q-11.5 -1.95 -11.5 -1.8 -11.6 -1.65 -11.75 -1.85 -11.9 -2.05 -12.0 -1.95 L-12.3 -1.75" fill="#ffffc3" fill-rule="evenodd" stroke="none"/>
    <path d="M8.1 1.85 L8.1 2.55 8.1 3.0 8.0 2.3 8.05 1.65 Q8.1 1.7 8.1 1.85" fill="#fffff6" fill-rule="evenodd" stroke="none"/>
    <path d="M5.2 0.35 L5.25 0.6 5.2 2.5 5.2 4.35 5.15 4.3 Q4.9 4.1 4.9 3.6 L4.9 2.8 4.9 2.0 4.9 1.85 4.9 1.1 Q4.9 0.65 4.95 0.35 L5.2 0.35" fill="#d39230" fill-rule="evenodd" stroke="none"/>
    <path d="M4.95 0.35 Q4.9 0.65 4.9 1.1 L4.9 1.85 4.85 1.45 4.85 1.15 4.85 0.55 Q4.85 0.2 4.9 -0.05 L5.0 0.05 4.95 0.2 4.95 0.35" fill="#ffffc5" fill-rule="evenodd" stroke="none"/>
    <path d="M3.7 1.2 L3.7 0.7 Q3.9 0.9 4.0 0.7 4.1 0.5 4.0 0.3 4.2 0.15 4.3 0.4 L4.45 0.8 Q4.55 0.85 4.6 1.05 4.65 1.2 4.85 1.15 L4.85 1.45 Q4.55 1.45 4.5 1.75 L4.45 2.0 4.3 2.2 Q4.1 2.2 4.0 2.0 3.95 1.75 4.2 1.75 4.35 1.7 4.25 1.55 4.1 1.4 4.2 1.35 4.3 1.15 4.05 1.15 3.9 1.1 3.7 1.2" fill="#fffc41" fill-rule="evenodd" stroke="none"/>
    <path d="M4.9 2.0 L4.9 2.8 Q4.8 2.65 4.85 2.4 L4.9 2.0" fill="#ffffb2" fill-rule="evenodd" stroke="none"/>
    <path d="M3.65 3.95 L3.7 3.95 Q3.8 3.9 4.0 3.85 4.15 3.75 4.2 3.65 L3.85 3.65 3.8 3.55 3.9 3.45 4.2 3.4 Q4.45 3.3 4.3 3.15 L4.0 3.2 3.7 3.25 3.7 3.1 3.7 2.7 Q3.8 2.65 4.0 2.65 L4.3 2.55 Q4.35 2.4 4.15 2.4 L3.8 2.4 Q3.9 2.2 3.85 1.9 L3.75 1.45 3.7 1.2 Q3.9 1.1 4.05 1.15 4.3 1.15 4.2 1.35 4.1 1.4 4.25 1.55 4.35 1.7 4.2 1.75 3.95 1.75 4.0 2.0 4.1 2.2 4.3 2.2 L4.45 2.0 4.5 1.75 Q4.55 1.45 4.85 1.45 L4.9 1.85 4.9 2.0 4.85 2.4 Q4.8 2.65 4.9 2.8 L4.9 3.6 Q4.9 4.1 5.15 4.3 L4.2 4.35 3.35 4.3 3.4 4.2 3.65 3.95" fill="#fff858" fill-rule="evenodd" stroke="none"/>
    <path d="M3.7 3.95 L3.7 3.25 4.0 3.2 4.3 3.15 Q4.45 3.3 4.2 3.4 L3.9 3.45 3.8 3.55 3.85 3.65 4.2 3.65 Q4.15 3.75 4.0 3.85 3.8 3.9 3.7 3.95" fill="#ffef2b" fill-rule="evenodd" stroke="none"/>
    <path d="M7.05 3.35 Q6.95 3.0 6.95 2.5 L7.05 1.65 7.05 3.35" fill="#a07728" fill-rule="evenodd" stroke="none"/>
    <path d="M6.85 3.8 Q7.1 3.7 7.05 3.35 7.15 3.55 7.15 3.75 7.15 3.95 7.0 4.1 L6.9 3.95 6.85 3.8" fill="#d0953d" fill-rule="evenodd" stroke="none"/>
    <path d="M3.7 2.7 L3.75 1.45 3.85 1.9 Q3.9 2.2 3.8 2.4 L4.15 2.4 Q4.35 2.4 4.3 2.55 L4.0 2.65 Q3.8 2.65 3.7 2.7" fill="#ffe733" fill-rule="evenodd" stroke="none"/>
    <path d="M2.35 0.6 L2.35 1.45 Q2.3 1.25 2.3 1.0 L2.35 0.6" fill="#ffffb0" fill-rule="evenodd" stroke="none"/>
    <path d="M2.35 2.2 L2.35 2.45 2.25 2.3 Q2.25 2.25 2.35 2.2" fill="#ffffdb" fill-rule="evenodd" stroke="none"/>
    <path d="M0.2 -2.6 L0.2 0.15 Q0.2 1.8 0.25 2.85 L0.25 3.05 Q-0.05 3.2 -0.05 2.85 -0.05 2.4 -0.1 2.25 L-0.05 1.0 -0.05 -0.25 -0.05 -2.35 0.2 -2.6" fill="#bb7e2a" fill-rule="evenodd" stroke="none"/>
    <path d="M0.8 3.8 L0.75 3.85 Q0.8 3.5 0.55 3.65 0.4 3.75 0.2 3.95 0.35 3.55 0.0 3.65 0.0 3.35 -0.1 3.05 -0.2 2.75 -0.4 2.55 L-0.25 2.2 Q-0.1 2.0 -0.1 2.25 -0.05 2.4 -0.05 2.85 -0.05 3.2 0.25 3.05 L0.35 3.15 0.4 3.2 0.25 3.55 0.6 3.5 0.95 3.5 0.95 3.7 0.8 3.8" fill="#fef17b" fill-rule="evenodd" stroke="none"/>
    <path d="M0.4 3.2 L0.5 3.25 0.6 3.5 0.25 3.55 0.4 3.2" fill="#c8862d" fill-rule="evenodd" stroke="none"/>
    <path d="M0.75 3.85 Q0.65 4.05 0.45 4.2 0.3 4.35 0.05 4.4 L-0.05 4.15 0.15 4.0 0.2 3.95 Q0.4 3.75 0.55 3.65 0.8 3.5 0.75 3.85" fill="#905d25" fill-rule="evenodd" stroke="none"/>
    <path d="M-1.25 4.15 L-1.25 4.1 Q-1.1 4.0 -1.05 3.85 -1.05 3.7 -1.15 3.55 L-1.2 3.25 -1.25 3.0 -1.25 -2.4 -0.2 -2.4 Q-0.2 -1.75 -0.2 -1.45 -0.35 -1.4 -0.35 -1.35 L-0.25 -1.2 Q-0.05 -0.95 -0.2 -0.8 -0.15 -0.8 -0.2 -0.4 -0.25 -0.1 -0.05 -0.25 L-0.05 1.0 -0.1 2.25 Q-0.1 2.0 -0.25 2.2 L-0.4 2.55 Q-0.2 2.75 -0.1 3.05 0.0 3.35 0.0 3.65 0.35 3.55 0.2 3.95 L0.15 4.0 Q0.0 4.05 -0.55 4.0 -1.0 3.95 -1.25 4.15" fill="#ffde49" fill-rule="evenodd" stroke="none"/>
    <path d="M0.8 4.3 L0.8 3.8 0.95 3.7 1.15 3.7 1.15 3.9 Q1.0 4.25 0.8 4.3" fill="#513616" fill-rule="evenodd" stroke="none"/>
    <path d="M1.3 3.95 L1.5 3.95 1.65 3.95 Q1.65 4.05 1.5 4.05 1.35 4.05 1.3 3.95" fill="#ffffd2" fill-rule="evenodd" stroke="none"/>
    <path d="M-16.25 -4.45 Q-16.2 -4.2 -16.45 -4.2 L-16.9 -4.2 Q-16.95 -4.45 -16.7 -4.5 L-16.3 -4.5 -16.25 -4.45" fill="#7a5316" fill-rule="evenodd" stroke="none"/>
    <path d="M-16.9 -4.2 L-17.1 -4.15 -17.35 -4.1 Q-17.8 -4.0 -18.1 -3.6 -18.4 -3.25 -18.45 -2.8 L-18.5 -2.05 Q-18.5 -1.6 -18.4 -1.3 L-18.4 -1.2 Q-18.4 -1.1 -18.5 -1.05 L-18.65 -1.0 Q-18.75 -1.05 -18.8 -1.3 L-18.8 -2.65 Q-18.85 -3.6 -18.05 -4.15 -17.25 -4.7 -16.3 -4.5 L-16.7 -4.5 Q-16.95 -4.45 -16.9 -4.2" fill="#472e13" fill-rule="evenodd" stroke="none"/>
    <path d="M-16.25 -4.1 L-17.1 -4.15 -16.9 -4.2 -16.45 -4.2 Q-16.2 -4.2 -16.25 -4.45 L-16.05 -4.45 -15.85 -4.4 Q-16.0 -4.1 -16.25 -4.1" fill="#b87b25" fill-rule="evenodd" stroke="none"/>
    <path d="M-17.1 -4.15 L-16.25 -4.1 Q-16.0 -4.0 -15.85 -4.0 -15.6 -4.05 -15.5 -4.25 L-15.2 -4.15 Q-15.05 -4.05 -15.0 -3.95 -15.25 -3.95 -15.25 -3.75 -15.2 -3.65 -15.05 -3.45 L-14.75 -3.6 Q-14.65 -3.6 -14.7 -3.4 -14.9 -3.25 -14.9 -3.05 -14.95 -2.5 -14.95 -2.2 -14.8 -2.1 -14.85 -2.35 L-14.85 -2.7 -14.85 -2.2 Q-14.8 -1.9 -14.55 -1.8 L-14.55 -1.75 -16.3 -1.75 -16.3 -1.8 -16.0 -2.1 -15.95 -2.1 -15.9 -2.45 -15.95 -2.8 Q-15.95 -2.95 -16.05 -3.05 -16.1 -3.4 -16.45 -3.0 -16.35 -3.3 -16.45 -3.45 -16.5 -3.6 -16.85 -3.5 -17.1 -3.45 -17.25 -3.65 -17.35 -3.85 -17.35 -4.1 L-17.1 -4.15 M-15.65 -2.05 L-15.4 -2.05 Q-15.35 -2.2 -15.6 -2.15 L-15.9 -2.1 -15.65 -2.05" fill="#fffc5d" fill-rule="evenodd" stroke="none"/>
    <path d="M-18.4 -1.2 L-18.4 -1.3 -18.4 -2.55 Q-18.25 -2.55 -18.15 -2.8 -18.05 -3.0 -17.9 -2.95 -17.7 -2.95 -17.7 -2.6 L-17.7 -2.4 -17.55 -2.35 Q-17.4 -2.35 -17.35 -2.7 L-17.35 -2.85 Q-17.35 -2.9 -17.3 -2.75 L-17.3 -2.55 -17.3 -2.15 Q-17.3 -1.85 -17.2 -1.75 -17.1 -1.6 -16.9 -1.8 L-16.9 -1.7 Q-17.05 -1.6 -17.0 -1.55 L-16.8 -1.5 -16.65 -1.4 Q-16.85 -1.35 -17.2 -1.45 -17.15 -1.2 -16.9 -1.1 -16.6 -1.0 -16.5 -1.25 L-15.8 -0.85 Q-15.45 -0.55 -15.2 -0.3 L-15.4 -0.35 Q-15.5 -0.35 -15.55 -0.25 -15.35 -0.05 -15.2 0.2 L-14.9 0.7 -14.85 0.45 Q-14.8 0.3 -14.7 0.25 -14.6 0.3 -14.6 0.45 L-14.55 0.65 -14.65 0.8 -14.8 1.0 Q-14.85 1.25 -14.75 1.6 -14.9 1.7 -15.25 1.7 -15.6 1.75 -15.7 1.85 -15.75 1.95 -15.65 2.0 L-15.5 2.0 Q-15.5 2.15 -15.35 2.4 -15.2 2.6 -15.2 2.75 L-15.6 2.9 -15.55 2.5 Q-15.5 2.3 -15.7 2.25 -15.85 2.15 -15.8 2.35 -15.8 2.7 -15.85 2.75 L-15.85 2.0 Q-15.9 1.65 -16.0 1.35 -16.0 1.1 -16.2 1.1 -16.35 1.1 -16.45 1.3 L-16.8 1.0 -17.1 0.7 Q-16.95 0.6 -16.95 0.5 -16.95 0.35 -17.15 0.4 -17.3 0.25 -17.25 0.15 L-17.15 0.0 -17.05 -0.1 Q-17.05 -0.2 -17.2 -0.3 -17.35 -0.4 -17.45 -0.35 L-17.5 -0.15 Q-17.5 0.0 -17.55 0.0 -17.6 0.05 -17.8 -0.05 -17.75 -0.25 -17.9 -0.3 -18.05 -0.3 -18.15 -0.1 -18.25 -0.15 -18.3 -0.25 -18.1 -0.3 -18.05 -0.45 -18.05 -0.6 -18.2 -0.75 L-18.4 -1.2" fill="#fffd70" fill-rule="evenodd" stroke="none"/>
    <path d="M-17.35 -4.1 Q-17.35 -3.85 -17.25 -3.65 -17.1 -3.45 -16.85 -3.5 L-16.65 -3.4 Q-16.55 -3.35 -16.6 -3.2 -16.65 -3.45 -16.95 -3.35 -17.1 -3.25 -17.15 -3.05 L-17.3 -2.75 Q-17.35 -2.9 -17.35 -2.85 L-17.35 -2.7 Q-17.4 -2.35 -17.55 -2.35 L-17.7 -2.4 -17.7 -2.6 Q-17.7 -2.95 -17.9 -2.95 -18.05 -3.0 -18.15 -2.8 -18.25 -2.55 -18.4 -2.55 L-18.45 -2.8 Q-18.4 -3.25 -18.1 -3.6 -17.8 -4.0 -17.35 -4.1" fill="#fef243" fill-rule="evenodd" stroke="none"/>
    <path d="M-17.3 -2.15 L-17.3 -2.55 -17.0 -2.65 -17.0 -2.05 -17.3 -2.15" fill="#cb8442" fill-rule="evenodd" stroke="none"/>
    <path d="M-17.3 -2.55 L-17.3 -2.75 -17.15 -3.05 Q-17.1 -3.25 -16.95 -3.35 L-16.75 -3.1 -16.9 -2.9 -17.0 -2.65 -17.3 -2.55" fill="#906124" fill-rule="evenodd" stroke="none"/>
    <path d="M-16.85 -3.5 Q-16.5 -3.6 -16.45 -3.45 -16.35 -3.3 -16.45 -3.0 L-16.65 -3.1 -16.6 -3.2 Q-16.55 -3.35 -16.65 -3.4 L-16.85 -3.5" fill="#fefda3" fill-rule="evenodd" stroke="none"/>
    <path d="M-16.75 -3.1 L-16.95 -3.35 Q-16.65 -3.45 -16.6 -3.2 L-16.65 -3.1 -16.75 -3.1" fill="#e6a73f" fill-rule="evenodd" stroke="none"/>
    <path d="M-16.45 -3.0 Q-16.1 -3.4 -16.05 -3.05 L-16.4 -2.95 -16.45 -3.0" fill="#cd8c2a" fill-rule="evenodd" stroke="none"/>
    <path d="M-16.0 -2.1 L-16.3 -1.8 -16.3 -2.3 Q-16.35 -2.6 -16.35 -2.85 L-16.4 -2.95 -16.05 -3.05 -16.05 -2.9 Q-16.05 -2.8 -15.95 -2.8 L-16.0 -2.1" fill="#4a3311" fill-rule="evenodd" stroke="none"/>
    <path d="M-18.4 -1.3 Q-18.5 -1.6 -18.5 -2.05 L-18.45 -2.8 -18.4 -2.55 -18.4 -1.3" fill="#d49234" fill-rule="evenodd" stroke="none"/>
    <path d="M-18.3 -0.25 L-18.4 -0.35 -18.45 -0.5 -18.3 -0.6 Q-18.2 -0.65 -18.2 -0.75 -18.05 -0.6 -18.05 -0.45 -18.1 -0.3 -18.3 -0.25" fill="#f0b054" fill-rule="evenodd" stroke="none"/>
    <path d="M-18.65 -1.0 L-18.5 -1.05 Q-18.4 -1.1 -18.4 -1.2 L-18.2 -0.75 Q-18.2 -0.65 -18.3 -0.6 L-18.45 -0.5 -18.6 -0.7 Q-18.65 -0.85 -18.65 -1.0" fill="#996a2d" fill-rule="evenodd" stroke="none"/>
    <path d="M-16.9 -1.7 Q-16.75 -1.65 -16.8 -1.5 L-17.0 -1.55 Q-17.05 -1.6 -16.9 -1.7" fill="#f2e6e6" fill-rule="evenodd" stroke="none"/>
    <path d="M-16.9 -1.8 Q-17.1 -1.6 -17.2 -1.75 -17.3 -1.85 -17.3 -2.15 L-17.0 -2.05 -16.9 -1.8" fill="#f8b83f" fill-rule="evenodd" stroke="none"/>
    <path d="M-16.65 -1.4 Q-16.55 -1.35 -16.5 -1.25 -16.6 -1.0 -16.9 -1.1 -17.15 -1.2 -17.2 -1.45 -16.85 -1.35 -16.65 -1.4" fill="#fdfcb9" fill-rule="evenodd" stroke="none"/>
    <path d="M-17.1 0.7 Q-17.7 0.3 -18.15 -0.1 -18.05 -0.3 -17.9 -0.3 -17.75 -0.25 -17.8 -0.05 -17.6 0.05 -17.55 0.0 -17.5 0.0 -17.5 -0.15 L-17.45 -0.35 Q-17.35 -0.4 -17.2 -0.3 -17.05 -0.2 -17.05 -0.1 L-17.15 0.0 -17.25 0.15 Q-17.3 0.25 -17.15 0.4 -16.95 0.35 -16.95 0.5 -16.95 0.6 -17.1 0.7" fill="#fdfb90" fill-rule="evenodd" stroke="none"/>
    <path d="M-14.75 -3.6 L-15.05 -3.45 Q-15.2 -3.65 -15.25 -3.75 -15.25 -3.95 -15.0 -3.95 L-14.8 -3.8 -14.75 -3.6" fill="#fdfbc5" fill-rule="evenodd" stroke="none"/>
    <path d="M-16.25 -4.1 Q-16.0 -4.1 -15.85 -4.4 L-15.65 -4.4 -15.5 -4.25 Q-15.6 -4.05 -15.85 -4.0 -16.0 -4.0 -16.25 -4.1" fill="#f4ac3f" fill-rule="evenodd" stroke="none"/>
    <path d="M-16.05 -3.05 Q-15.95 -2.95 -15.95 -2.8 -16.05 -2.8 -16.05 -2.9 L-16.05 -3.05" fill="#b8802c" fill-rule="evenodd" stroke="none"/>
    <path d="M-14.55 -1.8 Q-14.8 -1.9 -14.85 -2.2 L-14.85 -2.7 -14.9 -3.05 Q-14.9 -3.25 -14.7 -3.4 -14.6 -3.4 -14.6 -3.15 L-14.55 -2.75 -14.55 -1.8" fill="#e8a53d" fill-rule="evenodd" stroke="none"/>
    <path d="M-14.85 -2.7 L-14.85 -2.35 Q-14.8 -2.1 -14.95 -2.2 -14.95 -2.5 -14.9 -3.05 L-14.85 -2.7" fill="#ffffe4" fill-rule="evenodd" stroke="none"/>
    <path d="M-15.65 -2.05 L-15.9 -2.1 -15.6 -2.15 Q-15.35 -2.2 -15.4 -2.05 L-15.65 -2.05" fill="#fffff8" fill-rule="evenodd" stroke="none"/>
    <path d="M-15.95 -2.8 L-15.9 -2.45 -15.95 -2.1 -16.0 -2.1 -15.95 -2.8" fill="#d9953f" fill-rule="evenodd" stroke="none"/>
    <path d="M-15.2 -0.3 L-14.9 -0.05 Q-14.7 0.1 -14.7 0.25 -14.8 0.3 -14.85 0.45 L-14.9 0.7 -15.2 0.2 Q-15.35 -0.05 -15.55 -0.25 -15.5 -0.35 -15.4 -0.35 L-15.2 -0.3" fill="#fefcce" fill-rule="evenodd" stroke="none"/>
    <path d="M-13.0 -2.1 Q-12.9 -1.95 -12.8 -1.6 -12.7 -1.35 -12.45 -1.25 L-12.45 -0.45 -13.45 -0.4 -13.45 -1.1 -13.45 -1.2 Q-13.35 -1.25 -13.35 -1.35 L-13.4 -1.45 -13.25 -1.8 -13.0 -2.1" fill="#fffd6f" fill-rule="evenodd" stroke="none"/>
    <path d="M-12.3 -1.75 L-12.35 -1.45 -12.4 -1.5 Q-12.45 -1.55 -12.45 -1.45 L-12.45 -1.25 Q-12.7 -1.35 -12.8 -1.6 -12.9 -1.95 -13.0 -2.1 -12.6 -2.45 -12.15 -2.55 L-11.3 -2.5 -10.85 -2.4 Q-10.6 -2.4 -10.55 -2.65 L-10.45 -2.65 -10.35 -2.4 Q-10.3 -2.25 -10.4 -2.2 L-10.15 -1.8 Q-10.05 -1.8 -10.05 -1.9 -10.0 -2.05 -9.95 -2.1 -9.75 -1.95 -9.75 -1.7 -10.1 -1.6 -10.0 -1.1 L-9.95 -0.65 Q-9.9 -0.4 -9.95 -0.25 -10.15 -0.15 -10.15 0.1 L-10.0 0.55 Q-10.2 0.65 -10.15 0.85 L-10.05 1.2 Q-10.4 1.45 -10.6 1.1 -10.7 0.95 -10.7 0.8 -10.7 0.6 -10.6 0.5 -10.8 0.35 -10.85 0.6 -11.0 0.95 -11.1 1.0 L-11.15 0.95 Q-11.25 0.8 -11.4 0.9 L-11.4 0.85 -11.35 0.75 Q-11.05 0.8 -11.1 0.55 -11.15 0.25 -11.35 0.2 L-11.25 0.0 -11.15 -0.2 -11.1 -0.8 Q-11.05 -1.1 -11.15 -1.35 L-11.2 -1.6 Q-11.25 -1.8 -11.4 -1.75 -11.5 -1.75 -11.6 -1.6 L-11.85 -1.7 -11.9 -1.85 Q-11.9 -1.95 -12.0 -1.95 -11.9 -2.05 -11.75 -1.85 -11.6 -1.65 -11.5 -1.8 -11.5 -1.95 -11.6 -2.0 L-11.9 -2.05 Q-12.3 -2.05 -12.3 -1.75" fill="#fef858" fill-rule="evenodd" stroke="none"/>
    <path d="M-12.35 -1.45 L-12.3 -1.75 -12.0 -1.95 Q-11.9 -1.95 -11.9 -1.85 L-11.85 -1.7 Q-12.1 -1.55 -12.1 -1.2 -12.25 -1.25 -12.25 -1.3 -12.35 -1.35 -12.35 -1.45" fill="#aa7328" fill-rule="evenodd" stroke="none"/>
    <path d="M-12.4 -1.5 L-12.35 -1.45 Q-12.35 -1.35 -12.25 -1.3 -12.25 -1.25 -12.1 -1.2 L-12.05 -0.55 Q-12.05 -0.1 -12.1 -0.05 L-12.4 -0.35 -12.4 -1.5" fill="#d59441" fill-rule="evenodd" stroke="none"/>
    <path d="M-12.45 -1.25 L-12.45 -1.45 Q-12.45 -1.55 -12.4 -1.5 L-12.4 -0.35 -12.9 -0.35 -13.45 -0.4 -12.45 -0.45 -12.45 -1.25" fill="#ffffe8" fill-rule="evenodd" stroke="none"/>
    <path d="M-13.4 -1.45 L-13.35 -1.35 Q-13.35 -1.25 -13.45 -1.2 -13.5 -1.35 -13.4 -1.45" fill="#bf8338" fill-rule="evenodd" stroke="none"/>
    <path d="M-12.15 -2.55 Q-12.6 -2.45 -13.0 -2.1 L-13.25 -1.8 -13.4 -1.45 Q-13.5 -1.35 -13.45 -1.2 L-13.45 -1.1 Q-13.5 -0.7 -13.5 -0.4 L-13.8 -0.1 Q-14.05 -1.05 -13.6 -1.9 -13.1 -2.8 -12.1 -2.85 -11.95 -2.75 -11.95 -2.6 L-12.15 -2.55" fill="#462f16" fill-rule="evenodd" stroke="none"/>
    <path d="M-13.8 -0.1 L-13.5 -0.4 -13.45 -0.4 -12.9 -0.35 -12.4 -0.35 -12.1 -0.05 -13.0 0.0 -13.8 -0.1" fill="#fffd7b" fill-rule="evenodd" stroke="none"/>
    <path d="M-13.45 -1.1 L-13.45 -0.4 -13.5 -0.4 Q-13.5 -0.7 -13.45 -1.1" fill="#a17230" fill-rule="evenodd" stroke="none"/>
    <path d="M-8.95 4.2 L-8.95 -2.8 -8.9 -2.75 -8.6 -2.45 Q-8.7 -1.15 -8.7 0.75 L-8.65 3.95 -8.95 4.2" fill="#3b2a10" fill-rule="evenodd" stroke="none"/>
    <path d="M-12.1 -2.85 L-11.7 -2.9 Q-11.3 -2.95 -11.25 -2.85 -11.25 -2.6 -11.5 -2.55 L-11.95 -2.6 Q-11.95 -2.75 -12.1 -2.85" fill="#7c5026" fill-rule="evenodd" stroke="none"/>
    <path d="M-11.3 -2.5 L-12.15 -2.55 -11.95 -2.6 -11.5 -2.55 Q-11.25 -2.6 -11.25 -2.85 L-11.05 -2.85 Q-10.9 -2.85 -10.9 -2.75 -10.9 -2.6 -11.05 -2.55 L-11.3 -2.5" fill="#b67628" fill-rule="evenodd" stroke="none"/>
    <path d="M-10.55 -2.65 Q-10.6 -2.4 -10.85 -2.4 L-11.3 -2.5 -11.05 -2.55 Q-10.9 -2.6 -10.9 -2.75 -10.55 -2.75 -10.55 -2.65" fill="#f3a934" fill-rule="evenodd" stroke="none"/>
    <path d="M-9.95 -2.1 Q-10.0 -2.05 -10.05 -1.9 -10.05 -1.8 -10.15 -1.8 L-10.4 -2.2 Q-10.3 -2.25 -10.35 -2.4 L-10.45 -2.65 -10.15 -2.4 Q-9.95 -2.25 -9.95 -2.1" fill="#fcf98e" fill-rule="evenodd" stroke="none"/>
    <path d="M-11.6 -1.6 Q-11.5 -1.75 -11.4 -1.75 -11.25 -1.8 -11.2 -1.6 L-11.55 -1.55 -11.6 -1.6" fill="#cc8637" fill-rule="evenodd" stroke="none"/>
    <path d="M-11.2 -1.6 L-11.15 -1.35 -11.15 -0.2 -11.25 0.0 -11.35 0.2 Q-11.55 0.35 -11.95 0.55 L-12.6 0.8 Q-13.35 1.15 -13.45 1.7 L-13.5 2.55 Q-13.55 3.0 -13.45 3.35 L-13.45 3.4 Q-13.4 3.55 -13.5 3.6 L-13.7 3.7 Q-13.85 2.9 -13.85 2.4 -13.9 1.6 -13.65 1.1 -13.35 0.75 -12.6 0.45 -11.85 0.1 -11.55 -0.2 -11.35 -0.7 -11.55 -1.55 L-11.2 -1.6" fill="#473118" fill-rule="evenodd" stroke="none"/>
    <path d="M-11.15 -1.35 Q-11.05 -1.1 -11.1 -0.8 L-11.15 -0.2 -11.15 -1.35" fill="#bb802a" fill-rule="evenodd" stroke="none"/>
    <path d="M-9.95 -0.25 Q-9.9 -0.4 -9.95 -0.65 L-10.0 -1.1 Q-10.1 -1.6 -9.75 -1.7 -9.65 -1.3 -9.65 -0.75 L-9.65 1.75 -9.7 4.3 Q-10.0 3.9 -9.95 3.1 L-9.9 2.45 Q-9.9 2.1 -9.95 1.85 -9.9 1.15 -9.95 -0.25" fill="#da9838" fill-rule="evenodd" stroke="none"/>
    <path d="M-8.6 -2.4 L-8.6 -2.45 -8.1 -2.45 -7.55 -2.45 -7.6 -2.4 -8.1 -2.4 -8.6 -2.4" fill="#cf8d2e" fill-rule="evenodd" stroke="none"/>
    <path d="M-8.65 3.95 L-8.7 0.75 Q-8.7 -1.15 -8.6 -2.45 L-8.6 -2.4 -8.6 1.3 -8.6 3.95 -8.65 3.95" fill="#805a20" fill-rule="evenodd" stroke="none"/>
    <path d="M-8.9 -2.75 L-8.05 -2.8 -7.25 -2.75 -7.55 -2.45 -8.1 -2.45 -8.6 -2.45 -8.9 -2.75" fill="#795118" fill-rule="evenodd" stroke="none"/>
    <path d="M-5.45 -2.75 L-5.3 -2.75 Q-5.2 -2.7 -5.2 -2.65 -5.3 -2.4 -5.25 -2.15 -5.15 -1.85 -4.9 -1.9 L-4.7 -1.85 -4.65 -1.8 Q-4.85 -1.8 -4.95 -1.6 -5.05 -1.4 -5.05 -1.15 L-5.05 -0.9 -5.1 -0.9 -5.1 -1.05 Q-5.1 -1.15 -5.15 -1.15 L-5.15 0.0 -5.1 1.15 -5.1 1.35 -5.15 1.75 -5.1 2.15 -5.1 3.9 -5.75 4.0 -5.8 4.0 -6.15 3.95 -6.15 1.4 Q-6.1 -0.05 -6.2 -1.1 L-6.25 -1.4 -6.35 -1.65 Q-6.35 -1.8 -6.45 -1.75 L-6.65 -1.6 -6.9 -1.7 Q-6.9 -1.85 -7.05 -1.85 L-7.4 -1.85 -7.2 -1.95 Q-6.95 -1.9 -6.65 -2.15 -6.35 -2.5 -6.15 -2.5 L-5.95 -2.5 -5.95 -2.5 -5.75 -2.55 Q-5.55 -2.6 -5.45 -2.75" fill="#fff04c" fill-rule="evenodd" stroke="none"/>
    <path d="M-5.9 -2.9 L-5.65 -2.85 Q-5.5 -2.85 -5.45 -2.75 -5.55 -2.6 -5.75 -2.55 L-5.95 -2.5 -5.9 -2.55 -5.9 -2.55 -5.85 -2.6 Q-5.8 -2.7 -5.9 -2.9" fill="#c58131" fill-rule="evenodd" stroke="none"/>
    <path d="M-7.15 -2.1 L-7.1 -2.25 Q-6.9 -2.55 -6.6 -2.75 -6.25 -2.95 -5.9 -2.9 -5.8 -2.7 -5.85 -2.6 L-5.9 -2.55 -5.9 -2.55 -5.95 -2.5 -5.95 -2.5 -6.15 -2.5 Q-6.35 -2.5 -6.65 -2.15 -6.95 -1.9 -7.2 -1.95 L-7.15 -2.1" fill="#4d3214" fill-rule="evenodd" stroke="none"/>
    <path d="M-7.25 -2.75 L-7.2 -2.8 -7.2 -2.65 -7.4 -2.45 Q-7.55 -2.3 -7.45 -2.2 -7.45 -2.05 -7.45 -2.0 L-7.5 -2.05 Q-7.65 -2.25 -7.6 -2.4 L-7.55 -2.45 -7.25 -2.75" fill="#fff69d" fill-rule="evenodd" stroke="none"/>
    <path d="M-6.6 -1.55 L-6.65 -1.6 -6.45 -1.75 Q-6.35 -1.8 -6.35 -1.65 L-6.6 -1.55" fill="#b57929" fill-rule="evenodd" stroke="none"/>
    <path d="M-6.5 4.2 L-6.5 1.55 Q-6.5 -0.15 -6.55 -1.15 L-6.6 -1.55 -6.35 -1.65 -6.25 -1.4 -6.25 4.0 -6.5 4.2" fill="#3c290c" fill-rule="evenodd" stroke="none"/>
    <path d="M-6.9 -1.7 Q-7.1 -1.55 -7.2 -1.25 L-7.4 -1.3 Q-7.45 -1.3 -7.5 -1.4 L-7.5 -1.5 Q-7.3 -1.85 -7.05 -1.85 -6.9 -1.85 -6.9 -1.7" fill="#9b6b25" fill-rule="evenodd" stroke="none"/>
    <path d="M-7.2 -2.3 L-7.2 -2.2 -7.45 -2.2 Q-7.55 -2.3 -7.4 -2.45 L-7.2 -2.65 -7.2 -2.3" fill="#d68e36" fill-rule="evenodd" stroke="none"/>
    <path d="M-7.2 -2.2 L-7.15 -2.1 -7.2 -1.95 -7.4 -1.85 Q-7.5 -1.7 -7.5 -1.5 L-7.5 -1.4 -7.5 -1.35 Q-7.65 -0.8 -7.5 -0.4 L-7.5 -0.1 Q-7.6 0.4 -7.5 0.9 L-7.5 1.15 -7.8 1.25 -7.95 1.05 Q-8.05 0.9 -8.15 0.95 L-8.35 1.15 -8.6 1.3 -8.6 -2.4 -8.1 -2.4 -7.6 -2.4 Q-7.65 -2.25 -7.5 -2.05 L-7.45 -2.0 Q-7.45 -2.05 -7.45 -2.2 L-7.2 -2.2" fill="#fffd46" fill-rule="evenodd" stroke="none"/>
    <path d="M-7.2 -1.25 Q-7.15 2.1 -7.2 4.3 L-7.5 3.9 Q-7.5 2.75 -7.5 1.8 L-7.5 1.15 -7.5 0.9 -7.5 -0.1 -7.5 -0.4 -7.5 -1.35 -7.5 -1.4 Q-7.45 -1.3 -7.4 -1.3 L-7.2 -1.25" fill="#d5942d" fill-rule="evenodd" stroke="none"/>
    <path d="M-7.4 -1.85 L-7.05 -1.85 Q-7.3 -1.85 -7.5 -1.5 -7.5 -1.7 -7.4 -1.85" fill="#fffea7" fill-rule="evenodd" stroke="none"/>
    <path d="M-6.25 -1.4 L-6.2 -1.1 -6.2 3.95 -6.2 4.0 -6.25 4.0 -6.25 -1.4" fill="#634316" fill-rule="evenodd" stroke="none"/>
    <path d="M-7.5 -1.35 L-7.5 -0.4 Q-7.65 -0.8 -7.5 -1.35" fill="#ffffa3" fill-rule="evenodd" stroke="none"/>
    <path d="M-4.8 -2.1 L-4.8 -2.1 -4.7 -1.9 -4.7 -1.85 -4.9 -1.9 -4.8 -2.1" fill="#a46e26" fill-rule="evenodd" stroke="none"/>
    <path d="M-5.2 -2.65 Q-5.1 -2.6 -4.95 -2.4 L-4.8 -2.1 -4.9 -1.9 Q-5.15 -1.85 -5.25 -2.15 -5.3 -2.4 -5.2 -2.65" fill="#fdfaa2" fill-rule="evenodd" stroke="none"/>
    <path d="M-3.05 -2.75 Q-2.85 -2.75 -2.8 -2.65 -3.2 -2.5 -2.8 -2.0 L-2.75 -0.75 Q-2.7 -0.05 -2.85 0.45 L-3.15 0.65 Q-3.3 0.75 -3.05 0.85 -3.15 0.85 -3.2 0.95 L-3.35 1.15 Q-3.45 1.4 -3.7 1.3 L-3.7 0.0 Q-3.7 -0.8 -3.75 -1.3 L-3.85 -1.6 Q-3.85 -1.8 -4.0 -1.75 L-4.25 -1.6 Q-4.4 -1.65 -4.5 -1.7 L-4.55 -1.7 -4.65 -1.8 -4.7 -1.85 -4.7 -1.9 Q-4.5 -1.95 -4.25 -2.2 -4.0 -2.45 -3.8 -2.5 L-3.35 -2.55 Q-3.15 -2.55 -3.05 -2.75" fill="#fed742" fill-rule="evenodd" stroke="none"/>
    <path d="M-4.8 -2.1 Q-4.6 -2.4 -4.35 -2.6 -4.05 -2.85 -3.7 -2.9 L-3.65 -2.6 -3.8 -2.5 Q-4.0 -2.45 -4.25 -2.2 -4.5 -1.95 -4.7 -1.9 L-4.8 -2.1" fill="#422915" fill-rule="evenodd" stroke="none"/>
    <path d="M-4.5 -1.7 Q-4.7 -1.55 -4.7 -1.2 L-4.75 -1.15 -5.05 -1.15 Q-5.05 -1.4 -4.95 -1.6 -4.85 -1.8 -4.65 -1.8 L-4.55 -1.7 -4.5 -1.7" fill="#94631d" fill-rule="evenodd" stroke="none"/>
    <path d="M-4.2 -1.55 L-4.25 -1.6 -4.0 -1.75 Q-3.85 -1.8 -3.85 -1.6 L-4.2 -1.55" fill="#ba7c27" fill-rule="evenodd" stroke="none"/>
    <path d="M-4.1 4.3 L-4.1 1.45 Q-4.1 -0.35 -4.15 -1.35 L-4.2 -1.55 -3.85 -1.6 -3.75 -1.3 -3.8 1.35 -3.8 3.95 -4.1 4.3" fill="#38260b" fill-rule="evenodd" stroke="none"/>
    <path d="M-5.1 1.15 L-5.15 0.0 -5.15 -1.15 Q-5.1 -1.15 -5.1 -1.05 L-5.1 -0.9 -5.1 1.15" fill="#ffffac" fill-rule="evenodd" stroke="none"/>
    <path d="M-4.75 -1.15 L-4.75 4.3 -5.0 4.1 -5.05 1.6 -5.05 -0.9 -5.05 -1.15 -4.75 -1.15" fill="#bc8127" fill-rule="evenodd" stroke="none"/>
    <path d="M-5.1 3.9 L-5.1 2.15 -5.1 1.35 -5.1 1.15 -5.1 -0.9 -5.05 -0.9 -5.05 1.6 -5.0 4.1 -5.1 4.0 -5.1 3.9" fill="#ffc53d" fill-rule="evenodd" stroke="none"/>
    <path d="M-1.55 3.55 Q-1.65 3.25 -1.65 2.75 L-1.65 -2.8 -1.6 -2.75 Q-1.35 -2.55 -1.3 -2.4 L-1.3 2.95 Q-1.25 3.25 -1.3 3.35 -1.35 3.55 -1.55 3.55" fill="#38250c" fill-rule="evenodd" stroke="none"/>
    <path d="M-1.6 -2.75 L-0.7 -2.8 0.15 -2.75 -0.2 -2.45 -0.7 -2.45 -1.25 -2.4 -1.3 -2.4 Q-1.35 -2.55 -1.6 -2.75" fill="#6b4416" fill-rule="evenodd" stroke="none"/>
    <path d="M-3.3 -2.85 L-3.15 -2.85 Q-3.05 -2.85 -3.05 -2.75 -3.15 -2.55 -3.35 -2.55 L-3.8 -2.5 -3.65 -2.6 Q-3.25 -2.5 -3.3 -2.85" fill="#c18122" fill-rule="evenodd" stroke="none"/>
    <path d="M-3.7 -2.9 L-3.3 -2.85 Q-3.25 -2.5 -3.65 -2.6 L-3.7 -2.9" fill="#79501d" fill-rule="evenodd" stroke="none"/>
    <path d="M-2.4 -2.0 Q-2.35 -1.9 -2.35 -1.75 L-2.35 1.4 -2.35 4.3 Q-2.6 4.1 -2.65 3.9 -2.6 3.4 -2.6 2.7 L-2.6 1.45 -2.6 1.3 -2.6 -0.2 -2.65 -1.65 Q-2.8 -1.9 -2.7 -1.95 L-2.4 -2.0" fill="#bc7e28" fill-rule="evenodd" stroke="none"/>
    <path d="M-2.5 -2.25 Q-2.4 -2.15 -2.4 -2.0 L-2.7 -1.95 Q-2.8 -1.9 -2.65 -1.65 L-2.6 -0.2 -2.6 1.3 -2.8 1.0 Q-2.9 0.85 -3.05 0.85 -3.3 0.75 -3.15 0.65 L-2.85 0.45 Q-2.7 -0.05 -2.75 -0.75 L-2.8 -2.0 Q-2.7 -2.3 -2.5 -2.25" fill="#fff263" fill-rule="evenodd" stroke="none"/>
    <path d="M-2.8 -2.65 Q-2.6 -2.5 -2.5 -2.25 -2.7 -2.3 -2.8 -2.0 -3.2 -2.5 -2.8 -2.65" fill="#fbf8be" fill-rule="evenodd" stroke="none"/>
    <path d="M-3.75 -1.3 Q-3.7 -0.8 -3.7 0.0 L-3.7 1.3 -3.7 3.95 -3.8 3.95 -3.8 1.35 -3.75 -1.3" fill="#9f6b21" fill-rule="evenodd" stroke="none"/>
    <path d="M-0.2 -2.4 L-1.25 -2.4 -0.7 -2.45 -0.2 -2.45 -0.2 -2.4" fill="#b47524" fill-rule="evenodd" stroke="none"/>
    <path d="M-1.25 -2.4 L-1.25 3.0 -1.3 2.95 -1.3 -2.4 -1.25 -2.4" fill="#af7226" fill-rule="evenodd" stroke="none"/>
    <path d="M-2.35 4.3 L-2.35 4.35 -3.15 4.35 -4.0 4.35 Q-3.85 4.1 -3.55 4.0 L-2.95 4.0 Q-3.0 3.9 -3.3 3.95 L-3.7 3.95 -3.7 1.3 Q-3.45 1.4 -3.35 1.15 L-3.2 0.95 Q-3.15 0.85 -3.05 0.85 -2.9 0.85 -2.8 1.0 L-2.6 1.3 -2.6 1.45 Q-2.7 1.65 -2.95 1.7 -3.25 1.75 -3.35 1.85 L-3.0 1.8 Q-2.95 1.8 -2.95 1.95 L-3.0 2.15 Q-3.0 2.3 -2.85 2.3 -2.7 2.35 -2.7 2.6 -2.7 2.8 -2.85 2.85 L-3.1 2.6 Q-3.2 2.45 -3.35 2.6 -3.3 2.75 -3.0 3.0 -2.75 3.2 -2.7 3.35 -2.8 3.25 -3.0 3.25 -3.1 3.25 -3.1 3.3 L-3.05 3.4 Q-2.75 3.3 -2.75 3.55 L-2.75 3.75 Q-2.75 3.85 -2.65 3.9 -2.6 4.1 -2.35 4.3" fill="#ffe63f" fill-rule="evenodd" stroke="none"/>
    <path d="M-2.65 3.9 Q-2.75 3.85 -2.75 3.75 L-2.75 3.55 Q-2.75 3.3 -3.05 3.4 L-3.1 3.3 Q-3.1 3.25 -3.0 3.25 -2.8 3.25 -2.7 3.35 -2.75 3.2 -3.0 3.0 -3.3 2.75 -3.35 2.6 -3.2 2.45 -3.1 2.6 L-2.85 2.85 Q-2.7 2.8 -2.7 2.6 -2.7 2.35 -2.85 2.3 -3.0 2.3 -3.0 2.15 L-2.95 1.95 Q-2.95 1.8 -3.0 1.8 L-3.35 1.85 Q-3.25 1.75 -2.95 1.7 -2.7 1.65 -2.6 1.45 L-2.6 2.7 Q-2.6 3.4 -2.65 3.9" fill="#ffee69" fill-rule="evenodd" stroke="none"/>
    <path d="M-4.0 4.35 L-4.1 4.3 -3.8 3.95 -3.7 3.95 -3.3 3.95 Q-3.0 3.9 -2.95 4.0 L-3.55 4.0 Q-3.85 4.1 -4.0 4.35" fill="#fff599" fill-rule="evenodd" stroke="none"/>
    <path d="M-1.45 3.9 L-1.55 3.55 Q-1.35 3.55 -1.3 3.35 -1.25 3.25 -1.3 2.95 L-1.25 3.0 -1.2 3.25 -1.15 3.55 Q-1.15 3.65 -1.25 3.75 L-1.45 3.9" fill="#764d1c" fill-rule="evenodd" stroke="none"/>
    <path d="M-1.25 4.1 L-1.35 4.0 -1.45 3.9 -1.25 3.75 Q-1.15 3.65 -1.15 3.55 -1.05 3.7 -1.05 3.85 -1.1 4.0 -1.25 4.1" fill="#c18230" fill-rule="evenodd" stroke="none"/>
    <path d="M0.05 4.4 L-0.3 4.45 Q-0.5 4.05 -0.05 4.15 L0.05 4.4" fill="#ecaa37" fill-rule="evenodd" stroke="none"/>
    <path d="M-0.3 4.45 Q-0.8 4.5 -1.25 4.15 -1.0 3.95 -0.55 4.0 0.0 4.05 0.15 4.0 L-0.05 4.15 Q-0.5 4.05 -0.3 4.45" fill="#fdf67b" fill-rule="evenodd" stroke="none"/>
    <path d="M-5.1 2.15 L-5.15 1.75 -5.1 1.35 -5.1 2.15" fill="#ffffcb" fill-rule="evenodd" stroke="none"/>
    <path d="M-7.5 1.15 L-7.5 1.8 -7.6 2.85 -7.55 3.9 -7.8 3.95 Q-7.75 3.95 -7.75 4.05 -7.8 4.1 -7.85 4.2 L-8.0 4.2 -8.3 3.95 Q-8.45 3.85 -8.6 3.95 L-8.6 1.3 -8.35 1.15 -8.15 0.95 Q-8.05 0.9 -7.95 1.05 L-7.8 1.25 -7.5 1.15 M-7.85 3.95 L-7.8 3.95 Q-7.8 3.9 -7.85 3.9 -7.9 3.9 -8.1 4.0 L-7.85 3.95" fill="#fffe67" fill-rule="evenodd" stroke="none"/>
    <path d="M-7.5 -0.1 L-7.5 0.9 Q-7.6 0.4 -7.5 -0.1" fill="#ffffa5" fill-rule="evenodd" stroke="none"/>
    <path d="M-7.2 4.3 L-8.1 4.35 -9.0 4.3 -8.95 4.2 -8.65 3.95 -8.6 3.95 Q-8.45 3.85 -8.3 3.95 L-8.0 4.2 -7.85 4.2 Q-7.8 4.1 -7.75 4.05 -7.75 3.95 -7.8 3.95 L-7.55 3.9 -7.5 3.9 -7.2 4.3 M-7.85 3.95 L-8.1 4.0 Q-7.9 3.9 -7.85 3.9 -7.8 3.9 -7.8 3.95 L-7.85 3.95" fill="#fffa90" fill-rule="evenodd" stroke="none"/>
    <path d="M-7.5 1.8 Q-7.5 2.75 -7.5 3.9 L-7.55 3.9 -7.6 2.85 -7.5 1.8" fill="#ffffe3" fill-rule="evenodd" stroke="none"/>
    <path d="M-6.15 3.95 L-5.8 4.0 -6.2 4.0 -6.2 3.95 -6.15 3.95" fill="#ffffb7" fill-rule="evenodd" stroke="none"/>
    <path d="M-6.2 -1.1 Q-6.1 -0.05 -6.15 1.4 L-6.15 3.95 -6.2 3.95 -6.2 -1.1" fill="#f8a939" fill-rule="evenodd" stroke="none"/>
    <path d="M-4.75 4.3 L-4.75 4.35 -6.55 4.35 -6.5 4.2 -6.25 4.0 -6.2 4.0 -5.8 4.0 -5.75 4.0 -5.45 4.0 -5.1 4.0 -5.0 4.1 -4.75 4.3" fill="#fdf560" fill-rule="evenodd" stroke="none"/>
    <path d="M-5.75 4.0 L-5.1 3.9 -5.1 4.0 -5.45 4.0 -5.75 4.0" fill="#ffffcc" fill-rule="evenodd" stroke="none"/>
    <path d="M-10.0 3.95 Q-9.95 3.8 -10.05 3.35 -10.1 3.05 -10.0 2.85 -9.95 2.7 -10.15 2.65 -10.4 2.6 -10.4 2.45 -10.35 2.35 -10.2 2.35 -10.05 2.4 -10.0 2.3 L-10.0 2.05 -9.95 1.85 Q-9.9 2.1 -9.9 2.45 L-9.95 3.1 Q-10.0 3.9 -9.7 4.3 L-9.65 4.35 -10.6 4.35 -11.4 4.3 -11.1 3.95 -11.05 3.95 -10.45 4.05 Q-10.1 4.1 -10.0 3.95" fill="#ffffa0" fill-rule="evenodd" stroke="none"/>
    <path d="M-11.1 1.0 Q-11.0 0.95 -10.85 0.6 -10.8 0.35 -10.6 0.5 -10.7 0.6 -10.7 0.8 -10.7 0.95 -10.6 1.1 -10.4 1.45 -10.05 1.2 L-10.15 0.85 Q-10.2 0.65 -10.0 0.55 L-10.15 0.1 Q-10.15 -0.15 -9.95 -0.25 -9.9 1.15 -9.95 1.85 L-10.0 2.05 -10.0 2.3 Q-10.05 2.4 -10.2 2.35 -10.35 2.35 -10.4 2.45 -10.4 2.6 -10.15 2.65 -9.95 2.7 -10.0 2.85 -10.1 3.05 -10.05 3.35 -9.95 3.8 -10.0 3.95 L-11.05 3.95 -11.1 3.95 Q-11.05 3.75 -11.15 3.65 -11.3 3.6 -11.4 3.75 L-11.35 3.55 -11.5 3.55 -11.7 3.6 -11.7 3.55 -11.7 3.5 Q-11.45 3.5 -11.3 3.4 -11.15 3.25 -11.15 3.05 -11.1 2.65 -11.1 2.0 L-11.1 1.0" fill="#fffd7c" fill-rule="evenodd" stroke="none"/>
    <path d="M-11.15 0.95 L-11.1 1.0 -11.1 2.0 Q-11.1 2.65 -11.15 3.05 -11.2 1.7 -11.15 0.95" fill="#ae7b35" fill-rule="evenodd" stroke="none"/>
    <path d="M-11.35 0.75 L-11.4 0.85 -11.4 0.9 -11.45 0.95 -11.5 1.05 -11.55 1.0 -11.55 0.7 Q-11.8 0.75 -12.0 0.95 L-12.3 1.4 Q-12.3 1.3 -12.2 1.1 -12.1 0.9 -11.95 0.75 -11.55 0.4 -11.35 0.75" fill="#fefabf" fill-rule="evenodd" stroke="none"/>
    <path d="M-12.3 1.4 L-12.0 0.95 Q-11.8 0.75 -11.55 0.7 L-11.55 1.0 Q-11.8 1.2 -11.9 1.4 -12.05 1.65 -12.1 1.95 L-12.35 1.9 -12.3 1.4" fill="#a07134" fill-rule="evenodd" stroke="none"/>
    <path d="M-11.35 0.2 Q-11.15 0.25 -11.1 0.55 -11.05 0.8 -11.35 0.75 -11.55 0.4 -11.95 0.75 -12.1 0.9 -12.2 1.1 -12.3 1.3 -12.3 1.4 L-12.35 1.9 -12.4 1.85 Q-12.4 1.8 -12.4 1.7 L-12.5 1.65 Q-12.6 1.6 -12.45 2.0 L-12.5 2.6 Q-12.5 3.0 -12.35 3.2 -12.3 3.35 -12.05 3.45 -12.0 3.55 -11.8 3.6 -11.95 3.85 -12.25 4.0 L-12.85 4.0 Q-13.3 3.9 -13.45 4.15 L-13.5 4.1 -13.35 3.85 Q-13.25 3.75 -13.35 3.6 L-13.45 3.4 -13.45 3.35 -13.45 1.7 Q-13.35 1.15 -12.6 0.8 L-11.95 0.55 Q-11.55 0.35 -11.35 0.2" fill="#fffc7d" fill-rule="evenodd" stroke="none"/>
    <path d="M-11.85 3.25 Q-11.7 3.25 -11.6 3.2 -11.55 3.15 -11.5 3.0 -11.5 2.6 -11.5 2.0 L-11.5 1.05 -11.15 0.95 Q-11.2 1.7 -11.15 3.05 -11.15 3.25 -11.3 3.4 -11.45 3.5 -11.7 3.5 L-11.8 3.4 -11.85 3.25" fill="#433015" fill-rule="evenodd" stroke="none"/>
    <path d="M-12.05 2.95 L-12.0 3.1 -12.35 3.2 -12.35 2.95 -12.05 2.95" fill="#fce986" fill-rule="evenodd" stroke="none"/>
    <path d="M-11.9 3.2 L-11.85 3.25 -11.8 3.4 -11.7 3.5 -11.7 3.55 -11.8 3.6 Q-12.0 3.55 -12.05 3.45 L-11.9 3.2" fill="#ecbf5c" fill-rule="evenodd" stroke="none"/>
    <path d="M-12.0 3.1 L-11.9 3.2 -12.05 3.45 Q-12.3 3.35 -12.35 3.2 L-12.0 3.1" fill="#fbf8e9" fill-rule="evenodd" stroke="none"/>
    <path d="M-11.7 3.55 L-11.7 3.6 -11.9 3.85 -12.15 4.1 -12.55 4.15 Q-12.75 4.25 -12.65 4.45 L-13.1 4.35 Q-13.3 4.3 -13.45 4.15 -13.3 3.9 -12.85 4.0 L-12.25 4.0 Q-11.95 3.85 -11.8 3.6 L-11.7 3.55" fill="#fdfbea" fill-rule="evenodd" stroke="none"/>
    <path d="M-11.5 3.55 L-11.35 3.55 -11.4 3.75 -11.45 3.8 -11.5 3.8 -11.5 3.55" fill="#f8f2e6" fill-rule="evenodd" stroke="none"/>
    <path d="M-12.15 4.1 L-11.9 3.85 -11.7 3.6 -11.5 3.55 -11.5 3.8 Q-11.6 4.05 -11.75 4.2 L-12.15 4.4 -12.15 4.1" fill="#a4773c" fill-rule="evenodd" stroke="none"/>
    <path d="M-11.1 3.95 L-11.4 4.3 -11.45 3.8 -11.4 3.75 Q-11.3 3.6 -11.15 3.65 -11.05 3.75 -11.1 3.95" fill="#5f4620" fill-rule="evenodd" stroke="none"/>
    <path d="M-10.0 3.95 Q-10.1 4.1 -10.45 4.05 L-11.05 3.95 -10.0 3.95" fill="#fffffe" fill-rule="evenodd" stroke="none"/>
    <path d="M-9.65 4.35 L-9.7 4.3 -9.65 1.75 -9.65 -0.75 Q-9.55 0.2 -9.6 1.75 L-9.6 4.35 -9.65 4.35" fill="#ca8274" fill-rule="evenodd" stroke="none"/>
    <path d="M-12.1 1.95 L-12.05 2.95 -12.35 2.95 -12.4 2.4 -12.4 1.85 -12.35 1.9 -12.1 1.95" fill="#e7a94b" fill-rule="evenodd" stroke="none"/>
    <path d="M-12.35 3.2 Q-12.5 3.0 -12.5 2.6 L-12.45 2.0 Q-12.6 1.6 -12.5 1.65 L-12.4 1.7 Q-12.4 1.8 -12.4 1.85 L-12.4 2.4 -12.35 2.95 -12.35 3.2" fill="#fffff4" fill-rule="evenodd" stroke="none"/>
    <path d="M-14.55 0.65 Q-14.4 0.95 -14.4 1.55 -14.35 2.05 -14.35 2.55 -14.4 2.7 -14.5 2.7 L-14.7 2.65 -14.7 2.6 -14.7 1.8 Q-14.7 1.35 -14.8 1.0 L-14.65 0.8 -14.55 0.65" fill="#ecad4d" fill-rule="evenodd" stroke="none"/>
    <path d="M-18.0 4.1 L-18.25 3.9 -18.4 3.7 Q-18.2 3.65 -18.15 3.5 -18.15 3.35 -18.25 3.15 -18.25 2.95 -18.35 2.85 L-18.35 2.75 -18.35 1.6 -17.85 1.6 -17.35 1.6 -17.35 2.4 Q-17.3 2.95 -17.25 2.25 L-17.25 2.75 Q-17.35 3.05 -17.15 3.2 -16.95 3.4 -16.75 3.15 -16.9 3.35 -16.75 3.45 L-16.35 3.45 Q-16.15 3.35 -16.05 3.15 L-15.85 2.75 Q-15.8 2.7 -15.8 2.35 -15.85 2.15 -15.7 2.25 -15.5 2.3 -15.55 2.5 L-15.6 2.9 -15.2 2.75 Q-15.2 2.6 -15.35 2.4 -15.5 2.15 -15.5 2.0 L-15.65 2.0 Q-15.75 1.95 -15.7 1.85 -15.6 1.75 -15.25 1.7 -14.9 1.7 -14.75 1.6 L-14.75 2.1 -14.7 2.6 -14.7 2.65 -14.75 3.0 -14.75 2.8 Q-14.75 2.75 -14.8 2.75 -14.9 2.9 -14.75 3.1 L-14.8 3.3 Q-14.8 3.1 -14.9 3.25 L-15.05 3.5 Q-15.35 3.9 -15.9 4.05 L-16.95 4.15 -17.25 4.05 Q-17.4 4.0 -17.5 3.95 -17.85 3.85 -18.0 4.1" fill="#fffe8f" fill-rule="evenodd" stroke="none"/>
    <path d="M-16.65 3.1 Q-16.5 3.15 -16.4 3.0 -16.3 2.9 -16.25 2.75 L-16.2 2.3 Q-16.15 2.05 -16.25 1.85 L-16.3 1.65 -16.3 1.4 -16.0 1.35 Q-15.9 1.65 -15.85 2.0 L-15.85 2.75 -16.05 3.15 Q-16.15 3.35 -16.35 3.45 -16.7 3.5 -16.65 3.1" fill="#553e1c" fill-rule="evenodd" stroke="none"/>
    <path d="M-14.75 1.6 Q-14.85 1.25 -14.8 1.0 -14.7 1.35 -14.7 1.8 L-14.7 2.6 -14.75 2.1 -14.75 1.6" fill="#ffffe7" fill-rule="evenodd" stroke="none"/>
    <path d="M-16.3 1.4 Q-16.4 1.4 -16.45 1.3 -16.35 1.1 -16.2 1.1 -16.0 1.1 -16.0 1.35 L-16.3 1.4" fill="#dfa441" fill-rule="evenodd" stroke="none"/>
    <path d="M-14.35 2.55 Q-14.35 3.15 -14.6 3.6 -14.9 4.15 -15.4 4.25 L-15.5 4.0 -15.1 3.7 Q-14.9 3.5 -14.8 3.3 L-14.75 3.1 -14.75 3.0 -14.7 2.65 -14.5 2.7 Q-14.4 2.7 -14.35 2.55" fill="#ac8141" fill-rule="evenodd" stroke="none"/>
    <path d="M-14.75 3.1 Q-14.9 2.9 -14.8 2.75 -14.75 2.75 -14.75 2.8 L-14.75 3.0 -14.75 3.1" fill="#fffffa" fill-rule="evenodd" stroke="none"/>
    <path d="M-16.7 4.55 Q-17.55 4.5 -18.0 4.1 -17.85 3.85 -17.5 3.95 -17.4 4.0 -17.25 4.05 L-16.95 4.15 -15.9 4.05 Q-15.35 3.9 -15.05 3.5 L-14.9 3.25 Q-14.8 3.1 -14.8 3.3 -14.9 3.5 -15.1 3.7 L-15.5 4.0 -15.95 4.15 -16.4 4.2 -16.9 4.2 Q-16.9 4.4 -16.7 4.55" fill="#fdfbf0" fill-rule="evenodd" stroke="none"/>
    <path d="M-15.4 4.25 Q-15.55 4.35 -15.7 4.45 L-16.0 4.45 -15.95 4.15 -15.5 4.0 -15.4 4.25" fill="#ecbb5c" fill-rule="evenodd" stroke="none"/>
    <path d="M-16.0 4.45 Q-16.1 4.6 -16.35 4.55 L-16.7 4.55 Q-16.9 4.4 -16.9 4.2 L-16.4 4.2 -15.95 4.15 -16.0 4.45" fill="#fefb9d" fill-rule="evenodd" stroke="none"/>
    <path d="M-13.45 3.35 Q-13.55 3.0 -13.5 2.55 L-13.45 1.7 -13.45 3.35" fill="#b07d32" fill-rule="evenodd" stroke="none"/>
    <path d="M-13.7 3.7 L-13.5 3.6 Q-13.4 3.55 -13.45 3.4 L-13.35 3.6 -13.45 3.8 -13.6 3.95 Q-13.65 3.95 -13.65 3.85 L-13.7 3.7" fill="#9d7441" fill-rule="evenodd" stroke="none"/>
    <path d="M-13.35 3.6 Q-13.25 3.75 -13.35 3.85 L-13.5 4.1 -13.6 3.95 -13.45 3.8 -13.35 3.6" fill="#e9b159" fill-rule="evenodd" stroke="none"/>
    <path d="M-12.65 4.45 Q-12.75 4.25 -12.55 4.15 L-12.15 4.1 -12.15 4.4 Q-12.2 4.5 -12.4 4.5 L-12.65 4.45" fill="#fbe37c" fill-rule="evenodd" stroke="none"/>
    <path d="M-17.0 1.25 L-16.95 1.2 -17.0 1.35 Q-17.4 1.55 -17.25 2.25 -17.3 2.95 -17.35 2.4 L-17.35 1.6 -17.35 1.55 -17.0 1.25" fill="#ffffdf" fill-rule="evenodd" stroke="none"/>
    <path d="M-17.35 1.6 L-17.85 1.6 -18.35 1.6 -18.35 2.75 Q-18.4 2.5 -18.4 2.15 L-18.4 1.55 -17.35 1.55 -17.35 1.6" fill="#e5af4b" fill-rule="evenodd" stroke="none"/>
    <path d="M-17.0 1.35 L-16.95 2.05 -16.9 2.75 -16.9 2.8 Q-17.05 2.9 -17.25 2.9 L-17.25 2.75 -17.25 2.25 Q-17.4 1.55 -17.0 1.35" fill="#ebb047" fill-rule="evenodd" stroke="none"/>
    <path d="M-18.7 1.2 L-17.85 1.2 -17.0 1.25 -17.35 1.55 -18.4 1.55 -18.7 1.2" fill="#86622f" fill-rule="evenodd" stroke="none"/>
    <path d="M-18.55 3.35 Q-18.65 3.25 -18.7 2.9 L-18.75 2.4 -18.75 1.2 -18.7 1.2 -18.4 1.55 -18.4 2.15 Q-18.4 2.5 -18.35 2.75 L-18.35 2.85 Q-18.4 3.1 -18.25 3.15 L-18.55 3.35" fill="#513d1c" fill-rule="evenodd" stroke="none"/>
    <path d="M-18.4 3.7 Q-18.55 3.5 -18.55 3.35 L-18.25 3.15 Q-18.15 3.35 -18.15 3.5 -18.2 3.65 -18.4 3.7" fill="#bd8d4a" fill-rule="evenodd" stroke="none"/>
    <path d="M-18.35 2.85 Q-18.25 2.95 -18.25 3.15 -18.4 3.1 -18.35 2.85" fill="#d29d42" fill-rule="evenodd" stroke="none"/>
    <path d="M-16.9 2.8 L-16.9 2.9 Q-16.95 3.0 -17.05 3.05 -17.2 3.05 -17.25 2.9 -17.05 2.9 -16.9 2.8" fill="#fef88d" fill-rule="evenodd" stroke="none"/>
    <path d="M-16.9 2.9 L-16.7 3.1 -16.75 3.1 -16.75 3.15 -16.75 3.15 Q-16.95 3.4 -17.15 3.2 -17.35 3.05 -17.25 2.75 L-17.25 2.9 Q-17.2 3.05 -17.05 3.05 -16.95 3.0 -16.9 2.9" fill="#fbf7ed" fill-rule="evenodd" stroke="none"/>
    <path d="M-16.7 3.1 L-16.65 3.1 Q-16.7 3.5 -16.35 3.45 L-16.75 3.45 Q-16.9 3.35 -16.75 3.15 L-16.75 3.15 -16.75 3.1 -16.7 3.1" fill="#e9b650" fill-rule="evenodd" stroke="none"/>
    <path d="M5.1 -2.75 L4.3 -2.8 3.45 -2.75 3.4 -2.8 3.35 -2.75 3.35 0.75 Q3.3 2.85 3.35 4.3 L4.2 4.35 5.15 4.3 5.2 4.35 5.2 2.5 5.25 0.6 5.2 0.35 5.25 0.15 Q5.35 -0.15 5.75 -0.4 L6.0 -0.4 6.3 -0.45 6.35 -1.55 6.3 -2.8 6.25 -2.9 Q5.9 -2.85 5.6 -2.55 5.35 -2.3 5.15 -1.9 L5.15 -2.65 5.2 -2.65 Q5.3 -2.8 5.1 -2.75 M2.65 -2.75 L2.65 -2.65 2.7 0.8 2.65 4.3 1.75 4.35 0.8 4.3 0.8 3.8 0.75 3.85 Q0.65 4.05 0.45 4.2 0.3 4.35 0.05 4.4 L-0.3 4.45 Q-0.8 4.5 -1.25 4.15 L-1.25 4.1 -1.35 4.0 -1.45 3.9 -1.55 3.55 Q-1.65 3.25 -1.65 2.75 L-1.65 -2.8 -1.6 -2.75 -0.7 -2.8 0.15 -2.75 0.2 -2.8 0.2 -2.6 0.2 0.15 Q0.2 1.8 0.25 2.85 L0.25 3.05 0.35 3.15 0.4 3.2 0.5 3.25 Q0.7 3.2 0.75 3.05 0.85 2.9 0.8 2.75 0.75 1.6 0.8 0.0 L0.8 -2.75 0.85 -2.8 0.9 -2.75 1.75 -2.8 2.65 -2.75 M2.35 -1.0 L2.3 -1.25 2.3 -1.35 2.3 -1.4 2.35 -0.95 2.35 -1.0 M6.65 -0.1 L7.45 0.0 8.4 -0.05 Q8.45 -0.15 8.45 -0.65 L8.4 -1.35 8.55 -1.7 8.7 -1.65 8.85 -1.6 8.95 -1.55 9.05 -0.7 Q9.05 -0.2 8.7 0.0 L8.15 0.3 Q7.65 0.55 7.5 0.6 6.75 1.0 6.7 1.65 L6.65 2.75 Q6.65 3.45 6.85 3.8 L6.9 3.95 7.0 4.1 7.05 4.15 7.2 4.2 Q7.35 4.35 7.75 4.45 L8.1 4.5 8.3 4.45 Q8.4 4.4 8.4 4.35 8.8 4.3 9.0 3.75 L9.05 3.75 9.1 4.3 9.2 4.35 10.0 4.35 10.85 4.35 10.9 4.35 10.9 1.75 Q10.9 0.15 10.85 -0.8 10.85 -1.2 10.75 -1.65 L10.7 -1.85 10.6 -2.0 Q10.55 -2.15 10.4 -2.35 L10.1 -2.55 10.0 -2.65 9.85 -2.75 Q9.8 -2.8 9.6 -2.8 L9.25 -2.85 Q9.2 -2.95 8.8 -2.9 L8.35 -2.85 Q7.75 -2.85 7.3 -2.4 6.8 -1.95 6.7 -1.4 6.75 -1.2 6.7 -1.1 6.65 -0.9 6.65 -0.6 L6.65 -0.1 M11.55 -3.3 L11.55 -3.9 Q11.5 -4.3 11.65 -4.35 L12.55 -4.35 13.4 -4.35 Q13.55 -4.4 13.5 -4.25 L13.5 -3.7 Q13.55 -3.3 13.45 -3.25 L12.45 -3.2 11.55 -3.3 M11.6 -2.8 L11.7 -2.75 12.55 -2.8 13.4 -2.75 Q13.55 -2.8 13.5 -2.65 L13.5 4.35 13.45 4.35 12.45 4.35 11.55 4.3 11.55 -2.75 11.6 -2.8 M8.95 1.0 L9.0 1.0 9.0 3.0 Q8.95 3.15 8.75 3.25 L8.65 3.2 8.5 3.1 8.4 2.9 8.4 1.85 Q8.45 1.4 8.95 1.0 M-15.85 -4.4 L-16.05 -4.45 -16.25 -4.45 -16.3 -4.5 Q-17.25 -4.7 -18.05 -4.15 -18.85 -3.6 -18.8 -2.65 L-18.8 -1.3 Q-18.75 -1.05 -18.65 -1.0 -18.65 -0.85 -18.6 -0.7 L-18.45 -0.5 -18.4 -0.35 -18.3 -0.25 Q-18.25 -0.15 -18.15 -0.1 -17.7 0.3 -17.1 0.7 L-16.8 1.0 -16.45 1.3 Q-16.4 1.4 -16.3 1.4 L-16.3 1.65 -16.25 1.85 Q-16.15 2.05 -16.2 2.3 L-16.25 2.75 Q-16.3 2.9 -16.4 3.0 -16.5 3.15 -16.65 3.1 L-16.7 3.1 -16.9 2.9 -16.9 2.8 -16.9 2.75 -16.95 2.05 -17.0 1.35 -16.95 1.2 -17.0 1.25 -17.85 1.2 -18.7 1.2 -18.75 1.2 -18.75 2.4 -18.7 2.9 Q-18.65 3.25 -18.55 3.35 -18.55 3.5 -18.4 3.7 L-18.25 3.9 -18.0 4.1 Q-17.55 4.5 -16.7 4.55 L-16.35 4.55 Q-16.1 4.6 -16.0 4.45 L-15.7 4.45 Q-15.55 4.35 -15.4 4.25 -14.9 4.15 -14.6 3.6 -14.35 3.15 -14.35 2.55 -14.35 2.05 -14.4 1.55 -14.4 0.95 -14.55 0.65 L-14.6 0.45 Q-14.6 0.3 -14.7 0.25 -14.7 0.1 -14.9 -0.05 L-15.2 -0.3 Q-15.45 -0.55 -15.8 -0.85 L-16.5 -1.25 Q-16.55 -1.35 -16.65 -1.4 L-16.8 -1.5 Q-16.75 -1.65 -16.9 -1.7 L-16.9 -1.8 -17.0 -2.05 -17.0 -2.65 -16.9 -2.9 -16.75 -3.1 -16.65 -3.1 -16.45 -3.0 -16.4 -2.95 -16.35 -2.85 Q-16.35 -2.6 -16.3 -2.3 L-16.3 -1.8 -16.3 -1.75 -14.55 -1.75 -14.55 -1.8 -14.55 -2.75 -14.6 -3.15 Q-14.6 -3.4 -14.7 -3.4 -14.65 -3.6 -14.75 -3.6 L-14.8 -3.8 -15.0 -3.95 Q-15.05 -4.05 -15.2 -4.15 L-15.5 -4.25 -15.65 -4.4 -15.85 -4.4 M-11.85 -1.7 L-11.6 -1.6 -11.55 -1.55 Q-11.35 -0.7 -11.55 -0.2 -11.85 0.1 -12.6 0.45 -13.35 0.75 -13.65 1.1 -13.9 1.6 -13.85 2.4 -13.85 2.9 -13.7 3.7 L-13.65 3.85 Q-13.65 3.95 -13.6 3.95 L-13.5 4.1 -13.45 4.15 Q-13.3 4.3 -13.1 4.35 L-12.65 4.45 -12.4 4.5 Q-12.2 4.5 -12.15 4.4 L-11.75 4.2 Q-11.6 4.05 -11.5 3.8 L-11.45 3.8 -11.4 4.3 -10.6 4.35 -9.65 4.35 -9.6 4.35 -9.6 1.75 Q-9.55 0.2 -9.65 -0.75 -9.65 -1.3 -9.75 -1.7 -9.75 -1.95 -9.95 -2.1 -9.95 -2.25 -10.15 -2.4 L-10.45 -2.65 -10.55 -2.65 Q-10.55 -2.75 -10.9 -2.75 -10.9 -2.85 -11.05 -2.85 L-11.25 -2.85 Q-11.3 -2.95 -11.7 -2.9 L-12.1 -2.85 Q-13.1 -2.8 -13.6 -1.9 -14.05 -1.05 -13.8 -0.1 L-13.0 0.0 -12.1 -0.05 Q-12.05 -0.1 -12.05 -0.55 L-12.1 -1.2 Q-12.1 -1.55 -11.85 -1.7 M-11.4 0.9 Q-11.25 0.8 -11.15 0.95 L-11.5 1.05 -11.45 0.95 -11.4 0.9 M-8.95 4.2 L-8.95 -2.8 -8.9 -2.75 -8.05 -2.8 -7.25 -2.75 -7.2 -2.8 -7.2 -2.3 -7.2 -2.2 -7.15 -2.1 -7.1 -2.25 Q-6.9 -2.55 -6.6 -2.75 -6.25 -2.95 -5.9 -2.9 L-5.65 -2.85 Q-5.5 -2.85 -5.45 -2.75 L-5.3 -2.75 Q-5.2 -2.7 -5.2 -2.65 -5.1 -2.6 -4.95 -2.4 L-4.8 -2.1 -4.8 -2.1 Q-4.6 -2.4 -4.35 -2.6 -4.05 -2.85 -3.7 -2.9 L-3.3 -2.85 -3.15 -2.85 Q-3.05 -2.85 -3.05 -2.75 -2.85 -2.75 -2.8 -2.65 -2.6 -2.5 -2.5 -2.25 -2.4 -2.15 -2.4 -2.0 -2.35 -1.9 -2.35 -1.75 L-2.35 1.4 -2.35 4.3 -2.35 4.35 -3.15 4.35 -4.0 4.35 -4.1 4.3 -4.1 1.45 Q-4.1 -0.35 -4.15 -1.35 L-4.2 -1.55 -4.25 -1.6 Q-4.4 -1.65 -4.5 -1.7 -4.7 -1.55 -4.7 -1.2 L-4.75 -1.15 -4.75 4.3 -4.75 4.35 -6.55 4.35 -6.5 4.2 -6.5 1.55 Q-6.5 -0.15 -6.55 -1.15 L-6.6 -1.55 -6.65 -1.6 -6.9 -1.7 Q-7.1 -1.55 -7.2 -1.25 -7.15 2.1 -7.2 4.3 L-8.1 4.35 -9.0 4.3 -8.95 4.2 M-11.55 1.0 L-11.5 1.05 -11.5 2.0 Q-11.5 2.6 -11.5 3.0 -11.55 3.15 -11.6 3.2 -11.7 3.25 -11.85 3.25 L-11.9 3.2 -12.0 3.1 -12.05 2.95 -12.1 1.95 Q-12.05 1.65 -11.9 1.4 -11.8 1.2 -11.55 1.0 Z" fill="none" stroke="#000000" stroke-linecap="round" stroke-linejoin="round" stroke-opacity="0.4509804" stroke-width="1.0"/>
  </g>
</svg>
