<?xml version="1.0" encoding="UTF-8" standalone="no"?>
<svg xmlns:xlink="http://www.w3.org/1999/xlink" height="73.05px" width="128.8px" xmlns="http://www.w3.org/2000/svg">
  <g transform="matrix(1.0, 0.0, 0.0, 1.0, 5.8, 0.0)">
    <path d="M96.75 12.15 L96.6 12.15 91.55 12.15 24.2 12.15 -4.8 12.15 -4.7 11.85 -4.65 11.8 2.1 11.8 2.1 11.85 Q2.05 12.05 2.3 12.15 L35.3 12.15 39.05 12.15 82.75 12.15 90.55 12.15 96.75 12.15 M-5.45 12.65 L-5.45 72.5 -5.4 72.65 -5.35 72.65 -5.3 72.7 -2.1 72.7 -2.05 72.7 11.4 72.7 11.85 72.7 16.2 72.7 24.85 72.7 24.95 72.65 25.0 72.55 25.0 72.35 25.0 72.05 25.0 12.95 25.0 12.8 -4.8 12.8 -4.8 72.05 -4.8 72.05 2.85 72.05 Q2.85 72.2 2.95 72.25 L3.1 72.35 3.0 72.35 2.95 72.35 2.9 72.35 -5.0 72.35 -5.1 72.3 -5.1 72.3 -5.15 72.2 -5.15 12.8 Q-4.95 12.8 -4.8 12.55 L-4.75 12.55 -4.7 12.45 -3.1 12.45 -2.25 12.45 17.35 12.45 24.2 12.65 25.1 12.8 25.35 12.8 25.35 72.55 25.3 72.7 25.2 72.85 Q25.1 73.0 24.95 73.0 L24.85 73.0 16.2 73.0 -5.3 73.0 Q-5.5 73.0 -5.65 72.85 -5.8 72.7 -5.8 72.5 L-5.8 12.75 -5.6 12.7 -5.5 12.7 -5.45 12.65 M96.7 12.45 L122.2 12.45 Q122.25 12.45 122.3 12.5 L122.35 12.6 122.35 53.3 122.05 53.3 122.35 53.3 122.35 72.2 122.3 72.3 122.25 72.35 122.2 72.35 116.95 72.35 116.7 72.35 117.1 72.05 122.0 72.05 122.0 53.3 122.05 53.3 122.0 53.3 122.0 43.95 122.0 43.8 122.0 12.8 96.0 12.8 96.7 12.45 M25.65 72.05 L25.65 12.8 26.0 12.8 26.0 43.8 26.0 43.95 26.0 72.05 25.65 72.05 M-5.8 12.25 L-5.8 0.95 -5.45 0.85 -5.45 11.85 -5.65 11.95 -5.75 12.15 -5.8 12.25 M-4.65 0.0 L15.75 0.0 15.9 0.35 14.5 0.35 8.3 0.35 8.25 0.35 7.25 0.35 4.1 0.35 -4.8 0.35 -4.65 0.0 M16.9 0.95 L16.9 11.8 16.55 11.8 16.55 0.85 16.9 0.95 M116.9 11.8 L120.9 11.8 Q121.05 12.0 121.25 12.15 L116.65 12.15 116.5 12.15 116.9 11.8 M123.0 12.3 L123.0 53.3 122.65 53.3 122.65 12.3 122.85 12.35 123.0 12.3 M108.05 72.7 L122.5 72.7 122.65 72.65 122.65 53.3 123.0 53.3 123.0 72.5 Q123.0 72.7 122.85 72.85 122.7 73.0 122.5 73.0 L106.35 73.0 Q107.3 72.9 108.05 72.7 M33.8 73.0 L25.65 73.0 25.65 72.7 31.5 72.7 32.95 72.85 33.3 72.85 33.8 73.0 M-5.15 11.8 L-5.15 1.0 -5.1 1.0 Q-4.9 0.95 -4.8 0.75 L-4.75 0.75 -4.7 0.65 -3.0 0.65 -1.15 0.65 15.8 0.65 15.85 0.75 Q16.0 0.95 16.15 1.0 L16.2 1.0 16.2 11.8 15.9 11.8 15.9 1.0 5.55 1.0 4.95 1.0 -4.8 1.0 -4.8 11.8 -5.1 11.8 -5.15 11.8 M8.3 0.35 L8.55 0.35 14.5 0.35 8.55 0.35 8.3 0.35" fill="#2e3231" fill-rule="evenodd" stroke="none"/>
    <path d="M116.5 12.15 L113.65 12.15 113.2 12.15 112.5 12.15 111.75 12.15 110.65 12.15 105.7 12.15 96.75 12.15 90.55 12.15 92.15 11.9 104.65 11.9 105.7 11.8 116.9 11.8 116.5 12.15 M-4.8 12.15 L-5.15 12.15 -5.15 11.85 -5.1 11.8 -4.8 11.8 -4.65 11.8 -4.7 11.85 -4.8 12.15 M-5.45 12.3 L-5.45 12.65 -5.5 12.7 -5.6 12.7 -5.8 12.75 -5.8 12.25 -5.75 12.15 -5.45 12.3 M25.0 72.35 L4.4 72.35 4.1 72.35 3.85 72.35 3.3 72.35 3.25 72.35 3.1 72.35 2.95 72.25 Q2.85 72.2 2.85 72.05 L25.0 72.05 25.0 72.35 M-5.15 12.8 L-5.15 12.6 -5.1 12.5 -5.05 12.45 -5.0 12.45 -4.7 12.45 -4.75 12.55 -4.8 12.55 Q-4.95 12.8 -5.15 12.8 M17.35 12.45 L26.05 12.45 29.0 12.65 89.05 12.65 89.55 12.6 89.85 12.6 Q90.25 12.55 90.25 12.45 L96.7 12.45 96.0 12.8 74.05 12.8 73.5 12.8 26.0 12.8 25.65 12.8 25.35 12.8 25.1 12.8 24.2 12.65 17.35 12.45 M116.45 72.35 L113.2 72.35 113.2 72.4 111.75 72.4 111.45 72.4 106.5 72.4 25.65 72.35 25.65 72.05 26.0 72.05 28.1 72.05 33.6 72.25 92.45 72.2 93.0 72.15 105.4 72.15 106.55 72.05 117.1 72.05 116.7 72.35 116.45 72.35 M-5.8 0.95 L-5.8 0.5 -5.75 0.35 -5.45 0.5 -5.45 0.85 -5.8 0.95 M-5.1 0.0 L-4.65 0.0 -4.8 0.35 -5.15 0.35 -5.15 0.05 -5.1 0.0 M15.75 0.0 L16.2 0.0 16.2 0.35 15.9 0.35 15.75 0.0 M16.85 0.35 L16.9 0.5 16.9 0.95 16.55 0.85 16.55 0.5 16.85 0.35 M16.9 11.8 L27.3 11.8 35.3 12.15 2.3 12.15 Q2.05 12.05 2.1 11.85 L2.1 11.8 4.95 11.8 5.55 11.8 15.9 11.8 16.2 11.8 16.55 11.8 16.9 11.8 M120.9 11.8 L122.5 11.8 Q122.7 11.8 122.85 11.95 123.0 12.1 123.0 12.3 L122.85 12.35 122.65 12.3 Q122.65 12.2 122.65 12.2 L122.5 12.15 121.25 12.15 Q121.05 12.0 120.9 11.8 M41.05 72.7 L42.2 72.85 62.6 72.75 63.95 72.85 64.3 72.85 90.25 72.85 91.4 72.8 92.0 72.7 108.05 72.7 Q107.3 72.9 106.35 73.0 L33.8 73.0 33.3 72.85 32.95 72.85 31.5 72.7 40.45 72.7 40.5 72.7 40.7 72.7 41.05 72.7 M-5.15 1.0 L-5.15 0.8 -5.1 0.7 -5.05 0.65 -5.0 0.65 -4.7 0.65 -4.75 0.75 -4.8 0.75 Q-4.9 0.95 -5.1 1.0 L-5.15 1.0 M15.8 0.65 L16.05 0.65 16.15 0.65 16.15 0.7 16.2 0.8 16.2 1.0 16.15 1.0 Q16.0 0.95 15.85 0.75 L15.8 0.65" fill="#525655" fill-rule="evenodd" stroke="none"/>
    <path d="M-5.15 12.15 L-5.3 12.15 Q-5.35 12.15 -5.4 12.2 L-5.45 12.3 -5.75 12.15 -5.65 11.95 -5.45 11.85 -5.3 11.8 -5.15 11.8 -5.1 11.8 -5.15 11.85 -5.15 12.15 M26.05 12.45 L90.25 12.45 Q90.25 12.55 89.85 12.6 L89.55 12.6 89.05 12.65 29.0 12.65 26.05 12.45 M-5.75 0.35 L-5.65 0.15 Q-5.5 0.0 -5.3 0.0 L-5.1 0.0 -5.15 0.05 -5.15 0.35 -5.3 0.35 Q-5.35 0.35 -5.4 0.4 L-5.45 0.5 -5.75 0.35 M16.2 0.0 L16.4 0.0 Q16.6 0.0 16.7 0.15 L16.85 0.35 16.55 0.5 16.5 0.4 16.4 0.35 16.2 0.35 16.2 0.0 M27.3 11.8 L29.15 11.8 36.9 11.8 37.3 11.8 37.35 11.8 36.9 11.8 37.35 11.8 39.05 12.15 35.3 12.15 27.3 11.8 M90.4 11.8 L105.7 11.8 104.65 11.9 92.15 11.9 90.55 12.15 82.75 12.15 90.4 11.8 M106.55 72.05 L105.4 72.15 93.0 72.15 92.45 72.2 33.6 72.25 28.1 72.05 38.15 72.05 38.8 72.15 88.2 72.15 91.25 72.05 106.55 72.05 M41.05 72.7 L91.25 72.7 Q91.45 72.6 91.85 72.7 L92.0 72.7 91.4 72.8 90.25 72.85 64.3 72.85 63.95 72.85 62.6 72.75 42.2 72.85 41.05 72.7" fill="#9a9b9b" fill-rule="evenodd" stroke="none"/>
    <path d="M37.3 11.8 L37.8 11.8 37.85 11.8 38.0 11.8 90.4 11.8 82.75 12.15 39.05 12.15 37.35 11.8 37.3 11.8 M91.25 72.05 L88.2 72.15 38.8 72.15 38.15 72.05 91.25 72.05 M37.8 11.8 L37.35 11.8 37.8 11.8" fill="#c4c6c6" fill-rule="evenodd" stroke="none"/>
    <path d="M73.5 12.8 L74.05 12.8 74.05 43.8 73.5 43.8 73.5 12.8" fill="#1e1e1e" fill-opacity="0.54901963" fill-rule="evenodd" stroke="none"/>
    <path d="M2.1 11.8 L-4.65 11.8 -4.8 11.8 -4.8 1.0 4.95 1.0 4.95 11.8 2.1 11.8 M73.5 12.8 L73.5 43.8 26.0 43.8 26.0 12.8 73.5 12.8 M74.05 43.8 L74.05 12.8 96.0 12.8 122.0 12.8 122.0 43.8 74.05 43.8 M122.0 43.95 L122.0 53.3 122.05 53.3 122.0 53.3 122.0 72.05 117.1 72.05 106.55 72.05 91.25 72.05 38.15 72.05 28.1 72.05 26.0 72.05 26.0 43.95 122.0 43.95 M25.0 12.95 L25.0 72.05 2.85 72.05 -4.8 72.05 -4.8 12.95 25.0 12.95 M5.55 1.0 L15.9 1.0 15.9 11.8 5.55 11.8 5.55 1.0" fill="#111212" fill-opacity="0.8" fill-rule="evenodd" stroke="none"/>
    <path d="M73.5 43.8 L74.05 43.8 122.0 43.8 122.0 43.95 26.0 43.95 26.0 43.8 73.5 43.8 M-4.8 12.8 L25.0 12.8 25.0 12.95 -4.8 12.95 -4.8 12.8" fill="#d5d7d5" fill-opacity="0.8" fill-rule="evenodd" stroke="none"/>
    <path d="M11.4 72.7 L11.85 72.7 11.4 72.7" fill="#b9bbbb" fill-rule="evenodd" stroke="none"/>
    <path d="M116.5 12.15 L113.65 12.15 113.2 12.15 112.5 12.15 111.75 12.15 110.65 12.15 105.7 12.15 96.75 12.15 96.6 12.15 91.55 12.15 24.2 12.15 -4.8 12.15 -5.15 12.15 -5.3 12.15 Q-5.35 12.15 -5.4 12.2 L-5.45 12.3 -5.45 12.65 -5.45 72.5 -5.4 72.65 -5.35 72.65 -5.3 72.7 -2.1 72.7 -2.05 72.7 11.4 72.7 11.85 72.7 16.2 72.7 24.85 72.7 24.95 72.65 25.0 72.55 25.0 72.35 4.4 72.35 M4.1 72.35 L3.85 72.35 3.3 72.35 3.25 72.35 3.0 72.35 2.95 72.35 2.9 72.35 -5.0 72.35 -5.1 72.3 -5.1 72.3 -5.15 72.2 -5.15 12.8 -5.15 12.6 -5.1 12.5 -5.05 12.45 -5.0 12.45 -4.7 12.45 -3.1 12.45 -2.25 12.45 17.35 12.45 26.05 12.45 90.25 12.45 96.7 12.45 122.2 12.45 Q122.25 12.45 122.3 12.5 L122.35 12.6 122.35 53.3 122.05 53.3 122.35 53.3 122.35 72.2 122.3 72.3 122.25 72.35 122.2 72.35 116.95 72.35 116.45 72.35 113.2 72.35 113.2 72.4 111.75 72.4 111.45 72.4 106.5 72.4 25.65 72.35 M25.65 72.05 L25.65 12.8 25.35 12.8 25.35 72.55 25.3 72.7 25.2 72.85 Q25.1 73.0 24.95 73.0 L24.85 73.0 16.2 73.0 -5.3 73.0 Q-5.5 73.0 -5.65 72.85 -5.8 72.7 -5.8 72.5 L-5.8 12.75 -5.8 12.25 -5.8 0.95 -5.8 0.5 -5.75 0.35 -5.65 0.15 Q-5.5 0.0 -5.3 0.0 L-5.1 0.0 -4.65 0.0 15.75 0.0 16.2 0.0 16.4 0.0 Q16.6 0.0 16.7 0.15 L16.85 0.35 16.9 0.5 16.9 0.95 16.9 11.8 27.3 11.8 29.15 11.8 36.9 11.8 37.35 11.8 37.8 11.8 37.85 11.8 38.0 11.8 90.4 11.8 105.7 11.8 116.9 11.8 120.9 11.8 122.5 11.8 Q122.7 11.8 122.85 11.95 123.0 12.1 123.0 12.3 L123.0 53.3 122.65 53.3 122.65 12.3 Q122.65 12.2 122.65 12.2 L122.5 12.15 121.25 12.15 116.65 12.15 116.5 12.15 M2.1 11.8 L-4.65 11.8 -4.8 11.8 -4.8 1.0 4.95 1.0 5.55 1.0 15.9 1.0 15.9 11.8 16.2 11.8 16.55 11.8 16.55 0.85 16.55 0.5 16.5 0.4 16.4 0.35 16.2 0.35 15.9 0.35 14.5 0.35 8.3 0.35 8.25 0.35 7.25 0.35 4.1 0.35 -4.8 0.35 -5.15 0.35 -5.3 0.35 Q-5.35 0.35 -5.4 0.4 L-5.45 0.5 -5.45 0.85 -5.45 11.85 -5.3 11.8 -5.15 11.8 -5.15 1.0 -5.15 0.8 -5.1 0.7 -5.05 0.65 -5.0 0.65 -4.7 0.65 -3.0 0.65 -1.15 0.65 15.8 0.65 16.05 0.65 16.15 0.65 16.15 0.7 16.2 0.8 16.2 1.0 16.2 11.8 M74.05 12.8 L73.5 12.8 26.0 12.8 26.0 43.8 26.0 43.95 26.0 72.05 28.1 72.05 38.15 72.05 91.25 72.05 106.55 72.05 117.1 72.05 122.0 72.05 122.0 53.3 122.05 53.3 122.0 53.3 122.0 43.95 122.0 43.8 122.0 12.8 96.0 12.8 74.05 12.8 M92.0 72.7 L91.85 72.7 Q91.45 72.6 91.25 72.7 L41.05 72.7 M92.0 72.7 L108.05 72.7 122.5 72.7 122.65 72.65 122.65 53.3 123.0 53.3 123.0 72.5 Q123.0 72.7 122.85 72.85 122.7 73.0 122.5 73.0 L106.35 73.0 33.8 73.0 25.65 73.0 M25.65 72.7 L31.5 72.7 40.45 72.7 40.5 72.7 40.7 72.7 M116.7 72.35 L116.95 72.35 M116.7 72.35 L116.45 72.35 M16.9 11.8 L16.55 11.8 M-4.8 12.8 L25.0 12.8 25.0 12.95 25.0 72.05 25.0 72.35 M14.5 0.35 L8.55 0.35 8.3 0.35 M5.55 11.8 L4.95 11.8 2.1 11.8 M5.55 11.8 L15.9 11.8 M11.4 72.7 L11.85 72.7 M2.85 72.05 L25.0 72.05 M-5.75 12.15 L-5.65 11.95 -5.45 11.85 M-5.8 12.25 L-5.75 12.15 M-5.1 11.8 L-5.15 11.8 M-5.1 11.8 L-4.8 11.8 M-4.8 12.8 L-4.8 72.05 -4.8 72.05 2.85 72.05" fill="none" stroke="#000000" stroke-linecap="round" stroke-linejoin="round" stroke-opacity="0.4" stroke-width="1.0"/>
  </g>
</svg>
