<?xml version="1.0" encoding="UTF-8" standalone="no"?>
<svg xmlns:xlink="http://www.w3.org/1999/xlink" height="27.15px" width="21.2px" xmlns="http://www.w3.org/2000/svg">
  <g transform="matrix(1.0, 0.0, 0.0, 1.0, 10.6, 13.6)">
    <path d="M-0.85 -12.6 L1.2 -11.9 1.7 -11.7 1.85 -11.55 Q1.85 -11.4 1.8 -11.35 L1.7 -11.25 1.6 -11.15 1.65 -11.15 1.55 -11.1 1.35 -11.05 Q1.25 -11.0 1.1 -11.0 1.0 -11.05 0.9 -11.15 0.8 -11.25 1.0 -11.4 L0.7 -11.4 0.6 -11.35 0.35 -11.35 0.15 -11.5 Q0.0 -11.6 -0.1 -11.55 L-0.4 -11.55 -0.6 -11.65 -0.95 -11.7 -1.25 -11.7 Q-1.35 -11.85 -1.3 -12.0 -1.2 -12.15 -1.1 -12.2 L-1.05 -12.2 -1.2 -12.25 -1.15 -12.35 -0.9 -12.4 -0.85 -12.6 M3.65 -9.9 L3.7 -9.9 Q3.75 -9.8 4.0 -9.75 4.2 -9.6 4.55 -9.5 L5.65 -9.15 5.55 -8.7 Q5.5 -8.3 5.55 -8.2 6.0 -7.8 6.3 -7.8 L6.45 -7.6 Q6.3 -7.6 6.25 -7.4 L6.2 -7.15 5.9 -7.25 5.85 -7.3 5.25 -7.6 Q5.15 -7.65 5.15 -7.7 L5.2 -7.9 Q5.15 -8.0 5.2 -8.15 L5.3 -8.35 5.0 -8.75 4.95 -8.9 4.75 -9.15 4.65 -9.2 4.55 -9.2 4.4 -9.2 4.2 -9.2 Q4.15 -9.15 4.25 -8.85 4.4 -8.45 4.35 -8.05 L4.15 -8.25 3.7 -8.75 3.6 -9.0 3.5 -9.25 Q3.2 -9.4 3.0 -9.6 2.65 -9.9 2.8 -10.05 3.0 -9.9 3.35 -9.9 L3.65 -9.9" fill="#61584f" fill-rule="evenodd" stroke="none"/>
    <path d="M1.65 -11.15 Q1.75 -11.05 2.4 -10.8 L2.5 -10.75 3.3 -10.55 3.65 -10.45 Q3.75 -10.35 3.65 -10.15 L3.65 -10.1 Q3.65 -10.0 3.65 -9.9 L3.35 -9.9 Q3.0 -9.9 2.8 -10.05 2.65 -9.9 3.0 -9.6 3.2 -9.4 3.5 -9.25 L3.6 -9.0 3.7 -8.75 4.15 -8.25 4.35 -8.05 Q4.4 -8.45 4.25 -8.85 4.15 -9.15 4.2 -9.2 L4.4 -9.2 4.55 -9.2 4.65 -9.2 4.75 -9.15 4.95 -8.9 5.0 -8.75 5.3 -8.35 5.2 -8.15 Q5.15 -8.0 5.2 -7.9 L5.15 -7.7 Q5.15 -7.65 5.25 -7.6 L5.85 -7.3 5.9 -7.25 6.2 -7.15 6.15 -7.0 6.1 -6.95 6.0 -6.65 6.0 -6.65 5.95 -6.65 6.45 -6.0 6.85 -5.35 7.2 -4.7 7.35 -4.45 7.65 -4.05 Q7.8 -3.75 7.65 -3.6 L7.5 -3.6 Q7.4 -3.6 7.3 -3.7 L7.3 -3.65 Q7.6 -3.45 7.85 -2.65 8.05 -1.95 8.1 -1.25 8.1 -1.0 8.15 -0.55 8.25 0.0 8.4 0.4 L8.5 0.85 8.6 1.4 Q8.7 2.05 8.85 2.35 L9.15 3.25 9.1 3.25 Q9.1 3.25 9.05 3.25 L9.05 3.3 Q9.0 3.55 8.95 3.6 8.85 3.65 8.75 3.65 L8.7 3.55 8.65 3.4 8.55 3.25 8.35 3.15 8.25 3.25 8.2 3.4 8.15 3.55 Q7.95 3.5 7.85 3.35 L7.65 2.95 7.4 2.45 Q7.3 2.35 7.15 2.3 L7.25 2.7 Q7.35 3.2 7.55 3.95 L8.0 5.25 Q8.1 5.0 8.05 4.6 8.0 4.25 8.05 4.2 L8.15 4.3 8.1 4.35 Q8.15 4.5 8.2 4.65 8.3 4.85 8.4 4.9 8.3 5.0 8.25 5.05 8.2 5.1 8.25 5.4 L8.4 5.9 8.5 6.35 Q8.55 6.7 8.65 6.85 L8.75 7.0 8.95 6.8 Q9.0 6.8 9.1 6.75 L9.2 6.7 Q9.25 6.65 9.15 6.4 L9.0 6.0 Q9.15 5.95 9.25 6.05 L9.4 6.2 9.4 5.95 9.7 7.3 9.8 7.95 Q10.15 9.65 10.55 10.5 L10.1 10.55 9.45 10.55 Q9.05 10.5 8.7 10.25 8.45 10.05 8.25 10.25 L7.6 11.35 7.3 11.75 6.85 12.4 6.6 12.65 6.35 12.55 5.9 13.0 5.8 13.2 5.8 13.3 5.75 13.35 5.55 13.55 5.5 13.55 Q5.45 13.55 5.4 13.5 L5.2 13.05 4.95 12.6 4.65 13.05 4.55 13.15 4.45 13.2 4.4 13.0 Q4.4 12.8 4.3 12.7 4.2 12.6 4.1 12.65 4.0 12.65 3.95 12.6 3.75 12.4 3.75 12.25 L3.65 11.8 Q3.6 11.7 3.65 11.35 3.7 11.0 3.65 10.85 3.3 9.7 3.15 9.4 L3.3 9.25 3.55 9.3 Q3.6 8.95 3.8 8.75 L4.0 8.65 4.1 8.6 4.2 8.3 Q4.3 8.0 4.35 7.95 4.55 7.7 4.4 7.4 4.4 7.35 4.4 7.25 L4.45 7.05 4.55 6.75 4.7 6.45 Q4.8 6.35 4.95 6.35 L5.15 6.35 5.3 6.3 5.55 6.15 5.7 6.05 Q5.8 5.95 5.9 5.95 L6.2 6.05 6.35 5.95 6.45 5.85 6.8 6.4 6.8 6.45 Q6.7 6.35 6.3 6.15 L6.25 6.15 6.2 6.2 Q6.05 6.3 6.0 6.3 5.9 6.4 5.9 6.65 L5.85 7.1 5.85 7.45 5.8 7.7 Q5.65 8.05 5.7 8.3 L5.65 8.75 5.6 8.7 5.55 8.5 5.4 8.1 5.25 7.6 Q5.25 7.35 5.1 7.15 5.05 7.15 5.05 7.3 L5.0 7.55 4.9 7.75 4.8 7.9 4.65 8.1 Q4.6 8.2 4.6 8.5 L4.6 8.55 Q4.55 8.9 4.4 9.25 L4.15 9.9 Q4.1 10.0 4.15 10.15 L4.25 10.45 4.2 10.8 Q4.2 11.05 4.25 11.15 4.3 11.3 4.45 11.4 4.55 11.5 4.55 11.7 L4.55 11.95 4.6 12.2 4.65 12.2 4.75 11.95 4.9 11.7 Q4.95 11.65 4.95 11.65 L5.1 11.65 5.15 11.9 5.2 12.1 Q5.25 12.2 5.35 12.15 L5.5 12.2 5.5 12.35 Q5.45 12.5 5.5 12.55 L5.65 12.5 5.8 12.3 5.9 12.15 Q5.9 12.1 6.05 12.1 L6.2 12.0 6.3 11.75 6.4 11.55 6.5 11.45 6.45 11.25 6.35 10.95 6.4 10.45 6.5 10.3 6.6 10.15 6.7 9.9 6.9 9.3 7.05 8.85 7.15 8.95 Q7.25 9.1 7.4 9.1 L7.6 9.1 Q7.95 9.1 8.3 9.5 L8.5 9.65 8.85 9.7 Q9.15 9.7 9.35 9.5 9.5 9.35 9.55 9.0 L9.6 8.55 9.6 8.3 9.45 8.05 9.4 8.0 9.2 7.9 8.85 7.8 8.75 7.7 8.25 7.4 8.2 7.15 8.0 6.9 8.15 6.9 8.15 6.85 Q7.75 6.5 7.65 6.1 L7.55 5.85 7.45 5.6 Q7.25 5.45 7.0 5.4 6.75 5.4 6.6 5.5 L6.55 5.35 6.5 5.25 Q6.45 5.35 6.25 5.4 L6.2 5.4 6.15 5.4 6.0 5.4 5.95 5.35 5.7 5.15 Q5.6 5.05 5.5 5.15 5.4 5.25 5.35 5.4 L5.2 5.6 5.05 5.7 4.85 5.75 4.75 5.7 4.65 5.6 4.15 5.65 4.0 5.75 3.6 6.05 3.5 6.15 3.4 6.2 3.3 6.15 Q3.2 6.1 3.15 6.15 3.1 6.2 3.15 6.35 L3.15 6.55 Q3.1 6.7 2.9 6.85 2.7 7.0 2.7 7.15 L2.6 7.3 Q2.55 7.4 2.35 7.3 L2.05 7.2 1.85 7.25 1.7 7.3 1.4 7.35 1.2 7.3 Q1.15 7.25 1.1 7.15 1.1 7.0 1.0 6.9 L0.85 6.9 0.7 6.95 0.65 7.05 0.7 7.3 0.5 7.2 Q0.35 7.15 0.25 7.2 L0.15 7.35 Q0.05 7.35 0.05 7.4 L-0.2 7.3 -0.3 7.3 -0.35 7.35 -0.55 7.3 -0.65 7.2 -0.75 7.05 Q-0.75 6.95 -0.7 6.9 -0.6 6.8 -0.45 6.75 -0.2 6.75 -0.1 6.85 L-0.1 6.8 -0.3 6.6 -0.5 6.45 -0.85 6.5 -1.0 6.5 -1.1 6.45 -1.65 6.1 -1.7 6.0 -1.75 5.75 -1.85 5.6 -1.9 5.4 -1.65 5.3 -1.45 5.15 Q-1.35 5.1 -1.4 5.0 L-1.5 4.85 -1.55 4.8 -1.45 4.75 Q-1.4 4.7 -1.35 4.55 -1.3 4.45 -1.35 4.4 -1.25 4.4 -1.2 4.35 -1.1 4.25 -1.15 4.1 L-1.2 4.0 Q-1.25 3.95 -1.3 3.9 L-1.4 3.9 -1.6 3.85 -1.65 3.95 -1.8 3.95 -1.8 3.95 Q-1.85 3.95 -1.85 3.9 -1.95 3.8 -1.95 3.65 L-1.95 3.5 -2.1 3.45 -2.2 3.35 Q-2.25 3.3 -2.4 3.4 L-2.4 3.45 -2.4 3.45 -2.5 3.35 -2.75 3.15 Q-2.9 3.0 -2.8 2.85 -2.7 2.55 -2.7 2.3 L-2.75 2.2 Q-2.9 1.5 -3.15 1.25 L-3.1 1.25 -3.05 1.25 -2.65 1.3 -2.4 1.25 -2.15 1.2 -2.0 1.0 -1.9 0.85 -1.9 0.7 -2.0 0.5 -2.1 0.35 Q-2.45 0.6 -2.55 0.75 L-2.6 0.8 -2.75 0.8 -2.75 0.75 -2.85 0.75 -3.05 0.75 -3.25 0.7 Q-3.35 0.7 -3.35 0.7 L-3.4 0.7 -3.75 0.6 Q-3.8 0.65 -3.85 0.7 -3.9 0.7 -3.85 0.85 L-3.75 1.0 -3.6 1.15 -3.75 1.2 Q-3.8 1.25 -3.8 1.35 L-3.7 1.55 -3.65 1.65 -3.6 1.9 -3.55 1.95 Q-3.5 1.95 -3.45 2.0 -3.45 2.0 -3.4 2.15 L-3.35 2.35 -3.5 2.35 -3.7 2.4 -3.8 2.5 -3.55 2.6 -3.4 2.6 -3.25 2.65 -3.25 2.7 -3.3 2.8 Q-3.55 3.1 -3.75 3.05 -3.95 3.05 -4.1 2.8 L-4.25 2.95 -4.25 3.2 -4.2 3.35 -4.2 3.45 -4.3 3.55 -4.45 3.7 -4.65 3.9 -4.9 4.05 Q-5.0 4.05 -5.1 3.95 L-5.15 3.85 Q-5.15 3.75 -5.2 3.7 L-5.35 3.55 Q-5.4 3.45 -5.35 3.4 -5.3 3.35 -5.2 3.3 L-5.1 3.25 Q-5.1 3.2 -5.05 3.2 L-4.95 3.2 -4.8 3.25 -4.7 3.15 -4.55 2.95 -4.6 2.85 -4.6 2.75 -4.5 2.5 Q-4.45 2.4 -4.5 2.35 -4.6 2.2 -4.8 2.15 L-5.1 2.15 -5.1 2.2 -5.15 2.35 Q-5.1 2.4 -5.1 2.55 -5.15 2.7 -5.15 2.7 L-5.5 2.7 -5.6 2.5 -5.75 2.3 -6.05 2.4 Q-6.1 2.45 -6.05 2.75 -6.05 3.0 -6.15 3.1 L-6.4 3.1 -7.4 2.15 -7.45 2.05 -7.45 2.0 -7.3 1.8 -7.15 1.75 Q-7.05 1.75 -7.0 1.8 -6.95 1.85 -6.95 2.05 L-6.8 2.3 -6.65 2.35 -6.4 2.3 Q-6.4 2.2 -6.45 2.25 L-6.45 1.95 -6.4 1.7 Q-6.35 1.55 -6.4 1.5 L-6.55 1.45 -6.65 1.45 -6.85 1.4 -6.95 1.25 -6.8 1.0 -6.7 0.95 -6.65 1.05 -6.6 1.1 -6.5 1.2 -6.25 1.25 -6.2 1.15 -6.2 1.0 Q-6.15 1.0 -6.05 1.05 L-5.85 1.2 -5.65 1.0 Q-5.55 0.9 -5.65 0.7 L-5.75 0.5 -5.75 0.5 -5.65 0.45 -5.55 0.4 -5.5 0.25 Q-5.5 0.15 -5.55 0.1 L-5.8 0.1 -5.95 0.15 -6.05 0.1 Q-6.2 -0.1 -6.05 -0.3 -5.85 -0.5 -6.05 -0.65 L-6.15 -0.75 -6.25 -0.65 Q-6.4 -0.1 -6.55 0.0 L-6.7 0.15 Q-6.85 0.2 -6.9 0.1 L-7.05 -0.15 -7.35 -0.15 -7.7 -0.2 Q-7.75 -0.25 -7.65 -0.4 -7.6 -0.6 -7.65 -0.7 L-7.4 -0.65 -7.1 -0.85 -7.1 -0.9 -7.0 -0.9 Q-6.8 -0.95 -6.75 -1.05 -6.65 -1.15 -6.6 -1.15 L-6.4 -1.15 Q-6.35 -1.2 -6.35 -1.35 L-6.3 -1.6 -5.7 -1.3 -5.65 -1.2 Q-5.65 -1.1 -5.6 -1.0 L-5.45 -0.9 -5.35 -1.0 Q-5.05 -1.25 -5.4 -1.65 L-5.5 -1.7 -5.7 -1.65 -5.9 -1.7 Q-5.95 -1.7 -6.0 -1.75 L-6.2 -2.05 -6.35 -2.25 -5.7 -2.15 -5.5 -2.5 Q-5.4 -2.65 -5.5 -2.75 L-5.6 -2.8 -5.55 -2.9 Q-5.55 -3.15 -5.65 -3.2 L-5.8 -3.3 Q-5.95 -3.35 -6.0 -3.25 L-6.15 -3.0 -6.1 -2.75 -6.2 -2.7 Q-6.3 -2.7 -6.35 -2.75 L-6.55 -3.0 -6.8 -3.3 -6.6 -3.4 Q-6.45 -3.5 -6.4 -3.5 L-6.2 -3.4 -6.05 -3.4 Q-6.0 -3.45 -6.0 -3.55 L-6.1 -3.65 -6.25 -3.65 -6.35 -3.65 Q-6.45 -3.7 -6.4 -3.8 L-6.35 -3.9 -6.25 -3.95 -6.1 -3.9 -5.95 -4.0 -5.85 -4.1 Q-5.75 -4.1 -5.6 -3.95 -5.5 -3.8 -5.4 -3.9 -5.3 -4.0 -5.3 -4.25 -5.3 -4.5 -5.35 -4.55 L-5.55 -4.6 Q-5.75 -4.65 -5.8 -4.7 -5.9 -4.55 -6.0 -4.45 L-6.2 -4.25 -6.35 -4.35 -6.35 -4.35 -6.5 -4.45 Q-6.55 -4.5 -6.5 -4.6 L-6.4 -4.85 Q-6.3 -5.0 -6.3 -5.3 L-6.2 -5.45 -6.15 -5.6 -6.1 -5.65 Q-6.1 -5.75 -6.15 -5.8 L-6.4 -5.75 -6.7 -5.7 -6.8 -5.75 -6.95 -5.6 -7.0 -5.55 -7.0 -5.55 -6.95 -5.45 -6.75 -5.35 -6.8 -5.3 -7.0 -4.65 Q-7.05 -4.4 -7.1 -4.35 L-7.25 -4.15 -7.4 -4.05 -7.55 -3.75 -7.75 -3.45 -7.85 -3.35 -8.0 -3.3 Q-8.05 -3.2 -8.1 -3.05 L-8.25 -2.7 -8.35 -2.55 -8.45 -2.45 -8.6 -2.3 -8.45 -2.25 -8.45 -2.25 -8.3 -2.1 -8.0 -2.4 Q-7.9 -2.55 -7.85 -2.5 -7.8 -2.45 -7.8 -2.35 L-7.75 -2.2 -7.8 -2.1 -7.8 -2.0 -7.7 -1.95 Q-7.6 -2.0 -7.6 -2.05 L-7.4 -2.3 -7.3 -2.4 -7.2 -2.35 -7.1 -2.15 Q-7.05 -2.05 -7.1 -1.95 L-7.2 -1.8 Q-7.25 -1.7 -7.25 -1.6 L-7.15 -1.45 Q-7.1 -1.4 -7.25 -1.25 L-7.3 -1.15 -7.4 -1.15 -7.65 -1.2 -7.8 -1.05 -7.9 -1.05 -7.95 -1.05 -8.1 -1.25 -8.15 -1.35 -8.3 -1.25 -8.6 -1.2 -8.85 -1.1 -9.05 -1.0 -9.15 -0.9 -9.2 -0.75 Q-9.25 -0.7 -9.35 -0.7 L-9.55 -0.85 -9.65 -1.05 -9.7 -1.1 -9.8 -1.35 -9.85 -1.4 -10.1 -1.05 Q-10.25 -0.8 -10.2 -0.65 L-10.55 -1.05 -10.05 -2.05 Q-9.65 -2.65 -9.1 -3.75 L-8.95 -3.95 -8.95 -3.8 Q-8.95 -3.4 -8.9 -3.35 -8.8 -3.25 -8.75 -3.3 L-8.6 -3.4 -8.5 -3.55 -8.4 -3.65 -8.25 -3.8 -8.1 -3.95 Q-7.85 -4.1 -7.8 -4.4 L-7.75 -4.75 -7.75 -4.8 Q-7.55 -5.75 -7.2 -6.35 L-7.05 -6.65 Q-7.0 -6.8 -7.05 -6.85 L-7.05 -7.35 Q-7.05 -7.75 -7.0 -8.0 L-6.8 -8.5 -6.8 -8.6 -6.75 -8.7 Q-6.75 -8.8 -6.8 -9.0 L-6.8 -9.0 Q-6.85 -9.2 -6.75 -9.3 L-6.55 -9.5 Q-6.4 -9.65 -6.35 -10.05 L-6.2 -10.45 -6.05 -10.55 Q-6.0 -10.6 -6.0 -10.8 L-5.9 -11.25 -5.85 -11.45 -5.75 -11.6 Q-5.65 -11.55 -5.5 -11.35 L-5.25 -11.55 -5.1 -11.55 -5.0 -11.45 -4.95 -11.45 -4.95 -11.45 -4.85 -11.5 -4.75 -11.6 -4.65 -11.55 -4.6 -11.55 Q-4.45 -11.5 -4.4 -11.55 L-4.35 -11.65 -4.3 -11.8 -4.25 -11.95 -4.25 -12.0 -4.05 -12.05 -3.85 -12.1 Q-3.85 -12.1 -3.9 -12.3 L-3.8 -12.35 Q-3.75 -12.4 -3.75 -12.55 L-3.65 -12.8 -3.55 -12.85 -3.55 -12.85 -3.5 -12.85 Q-3.5 -12.75 -3.55 -12.65 L-3.5 -12.55 -3.25 -12.55 Q-3.15 -12.6 -3.05 -12.65 L-2.95 -13.0 Q-2.9 -13.05 -2.6 -12.9 L-2.6 -12.9 -2.45 -12.8 Q-2.6 -12.4 -2.8 -12.2 -2.85 -12.15 -2.95 -12.15 L-3.05 -12.1 -3.1 -12.0 -3.15 -11.95 -3.35 -11.85 -3.5 -11.8 -3.55 -11.65 -3.65 -11.5 -3.8 -11.35 -3.85 -11.3 -4.35 -11.3 Q-4.65 -11.35 -4.75 -11.2 L-4.8 -11.05 -4.85 -10.85 -4.85 -10.8 -4.7 -10.6 Q-4.65 -10.5 -4.75 -10.4 -4.8 -10.3 -5.1 -10.5 L-5.15 -10.55 -5.5 -10.55 -5.6 -10.5 -5.7 -10.3 Q-5.7 -10.15 -5.65 -10.1 L-5.65 -10.05 Q-5.6 -10.0 -5.45 -10.0 L-5.25 -10.05 Q-5.25 -10.0 -5.2 -10.05 -5.15 -10.1 -5.05 -10.15 L-4.85 -10.2 -4.85 -10.2 -4.5 -10.05 -4.05 -9.95 -4.1 -9.85 -4.15 -9.75 Q-4.2 -9.7 -4.4 -9.65 L-4.85 -9.75 -4.9 -9.75 -5.0 -9.65 -5.1 -9.6 -5.45 -9.55 -5.6 -9.55 -6.0 -9.5 -6.0 -9.45 -6.05 -9.35 -6.15 -9.2 Q-6.15 -9.2 -6.3 -9.15 L-6.45 -9.05 -6.4 -8.95 -6.35 -8.95 -6.2 -8.95 -6.0 -8.95 Q-5.95 -8.85 -5.95 -8.8 L-6.05 -8.6 -6.05 -8.45 -6.15 -8.3 -6.3 -8.2 -6.5 -8.15 -6.6 -8.15 -6.75 -8.1 Q-6.8 -8.05 -6.8 -7.95 L-6.7 -7.8 -6.8 -7.55 Q-6.7 -7.5 -6.7 -7.4 L-6.75 -7.2 -6.75 -7.1 -6.7 -7.05 -6.7 -7.0 -6.65 -6.95 -6.6 -6.85 -6.55 -6.85 -6.4 -6.95 -6.4 -6.9 -6.35 -6.95 Q-6.35 -6.85 -6.5 -6.65 L-6.5 -6.6 -6.65 -6.35 -6.8 -6.1 -6.85 -6.0 -6.95 -5.9 -6.95 -5.85 -6.8 -5.8 -6.65 -5.85 Q-6.6 -5.9 -6.6 -6.0 -6.65 -6.1 -6.55 -6.15 L-6.35 -6.2 -6.35 -6.2 -6.1 -6.2 -6.05 -6.35 -6.0 -6.45 -5.95 -6.5 -5.85 -6.55 -5.85 -6.7 Q-5.85 -6.9 -6.0 -6.95 L-5.85 -7.25 Q-5.75 -7.5 -5.75 -7.55 L-5.6 -7.95 -5.35 -8.2 -5.3 -8.35 -5.3 -8.45 -5.25 -8.45 -5.1 -8.45 -4.85 -8.35 -5.1 -8.1 Q-5.2 -7.9 -5.15 -7.85 -5.05 -7.75 -4.9 -7.8 -4.75 -7.85 -4.65 -7.95 L-4.65 -8.05 -4.6 -8.1 -4.55 -8.15 -4.45 -8.2 -4.35 -8.3 -4.25 -8.35 -3.75 -8.2 Q-3.7 -8.2 -3.55 -8.1 -3.5 -8.05 -3.4 -8.15 -3.3 -8.25 -3.35 -8.5 -3.4 -8.75 -3.35 -8.8 L-2.75 -8.95 Q-2.75 -8.95 -2.75 -9.0 L-2.7 -9.05 -2.55 -9.0 Q-2.45 -8.95 -2.45 -8.95 -2.3 -8.95 -2.25 -9.05 L-2.15 -9.1 -2.25 -9.3 -2.15 -9.35 -1.9 -9.15 -1.85 -8.9 -1.85 -8.9 -1.8 -8.8 -1.75 -8.75 -1.8 -8.65 -1.8 -8.6 -1.85 -8.55 -2.0 -8.4 -2.0 -8.3 -1.95 -8.2 Q-1.9 -8.15 -1.95 -8.0 L-2.0 -7.95 -2.05 -7.8 Q-2.05 -7.7 -2.15 -7.6 L-2.35 -7.55 -2.35 -7.4 -2.25 -7.25 -2.15 -7.15 Q-2.1 -7.15 -2.05 -7.2 L-1.9 -7.4 -1.85 -7.3 -1.65 -7.2 -1.55 -7.1 -1.5 -7.05 -1.45 -6.9 Q-1.2 -7.05 -1.2 -7.4 -1.2 -7.7 -1.3 -7.9 L-1.3 -8.1 -1.35 -8.35 -1.35 -8.4 Q-1.45 -8.55 -1.4 -8.65 L-1.3 -8.8 Q-1.1 -9.0 -1.05 -9.0 L-0.8 -8.8 -0.65 -8.75 -0.65 -8.75 -0.6 -8.6 -0.6 -8.45 Q-0.55 -8.4 -0.5 -8.4 L-0.35 -8.45 -0.35 -7.8 -0.15 -7.75 0.15 -7.55 Q0.2 -7.55 0.25 -7.6 0.3 -7.65 0.3 -7.9 0.25 -8.15 0.3 -8.2 L0.45 -8.2 0.6 -8.15 0.65 -8.0 0.8 -7.8 1.0 -7.6 0.9 -7.45 0.8 -7.3 0.8 -7.3 0.75 -7.35 Q0.75 -7.15 0.85 -7.05 0.95 -6.85 0.85 -6.75 L0.5 -6.75 0.25 -6.9 0.2 -6.65 Q0.2 -6.45 0.2 -6.35 L0.2 -6.0 Q0.2 -5.8 0.25 -5.75 0.3 -5.7 0.75 -5.9 L0.8 -6.05 0.75 -6.05 0.9 -5.9 1.0 -5.75 Q1.05 -5.7 1.15 -5.7 1.2 -5.7 1.3 -5.8 1.35 -5.9 1.4 -6.15 L1.5 -6.45 1.65 -6.45 1.8 -6.3 1.95 -6.15 2.05 -5.85 2.15 -5.75 2.2 -5.75 2.25 -5.8 Q2.3 -5.85 2.3 -6.2 L2.25 -6.55 2.5 -6.6 2.75 -6.65 2.8 -6.8 2.75 -7.15 2.7 -7.35 2.6 -7.55 Q2.5 -7.7 2.45 -7.95 2.4 -8.2 2.35 -8.25 L2.25 -8.3 2.15 -8.25 Q2.0 -8.1 2.1 -7.75 2.15 -7.5 2.3 -7.3 L2.2 -7.2 2.05 -7.2 Q1.95 -7.25 1.85 -7.3 L1.75 -7.45 Q1.7 -7.6 1.7 -7.75 L1.55 -8.05 1.25 -8.55 1.1 -8.9 1.05 -9.05 1.05 -9.15 1.0 -9.35 0.9 -9.55 0.8 -9.55 0.65 -9.55 0.6 -9.55 0.45 -9.6 0.4 -9.7 0.1 -9.7 -0.05 -9.55 -0.1 -9.6 -0.15 -9.7 -0.2 -9.9 -0.25 -10.0 -0.35 -10.05 Q-0.45 -10.15 -0.4 -10.3 L-0.4 -10.3 Q-0.35 -10.4 -0.25 -10.5 L-0.45 -10.7 -0.85 -11.05 Q-0.95 -11.1 -1.05 -11.15 L-1.25 -11.2 -1.25 -11.0 -1.3 -10.9 -1.35 -10.8 -1.5 -10.85 Q-1.7 -10.85 -1.8 -10.75 L-1.75 -10.85 -1.8 -10.9 Q-1.9 -11.0 -2.05 -11.0 -2.2 -11.0 -2.3 -11.1 L-2.4 -11.2 -2.65 -11.35 Q-2.75 -11.4 -2.85 -11.3 L-3.0 -11.1 -3.7 -11.25 -3.55 -11.55 -3.45 -11.6 -3.35 -11.6 -3.15 -11.6 -2.95 -11.7 -2.9 -11.7 Q-2.7 -11.85 -2.6 -11.8 L-2.25 -11.8 -2.15 -11.85 -1.85 -12.1 -1.65 -12.2 -1.3 -12.25 -1.2 -12.25 -1.05 -12.2 -1.1 -12.2 Q-1.2 -12.15 -1.3 -12.0 -1.35 -11.85 -1.25 -11.7 L-0.95 -11.7 -0.6 -11.65 -0.4 -11.55 -0.1 -11.55 Q0.0 -11.6 0.15 -11.5 L0.35 -11.35 0.6 -11.35 0.7 -11.4 1.0 -11.4 Q0.8 -11.25 0.9 -11.15 1.0 -11.05 1.1 -11.0 1.25 -11.0 1.35 -11.05 L1.55 -11.1 1.65 -11.15 M-9.7 -0.15 L-10.1 -0.6 -9.85 -0.6 Q-9.65 -0.65 -9.55 -0.55 L-9.45 -0.45 -9.6 -0.35 -9.7 -0.2 -9.7 -0.15 M4.65 -7.15 L4.8 -7.3 4.85 -7.6 Q4.85 -7.85 4.75 -7.95 L4.55 -8.05 4.35 -8.0 Q4.25 -7.95 4.3 -7.65 4.3 -7.4 4.2 -7.3 L4.1 -7.25 4.1 -7.25 4.0 -7.25 3.85 -7.2 3.5 -7.0 3.25 -6.85 3.3 -6.8 3.3 -6.7 3.6 -6.6 Q3.7 -6.5 3.75 -6.5 L3.85 -6.55 4.2 -6.7 4.35 -6.75 4.4 -6.7 4.7 -6.3 4.8 -5.95 4.9 -5.7 5.05 -5.5 5.15 -5.2 Q5.3 -4.9 5.35 -4.85 L5.45 -4.75 5.55 -4.75 5.25 -5.75 5.15 -6.05 Q5.0 -6.35 4.8 -6.55 L4.55 -6.75 4.5 -6.75 4.45 -6.75 4.45 -6.75 4.45 -6.75 4.6 -7.05 4.65 -7.15 M4.2 -6.85 L4.1 -6.85 4.15 -6.9 4.2 -6.85 4.25 -6.85 4.25 -6.85 4.2 -6.85 M4.2 -6.05 Q4.05 -6.2 3.75 -6.3 L3.55 -6.35 3.45 -6.2 3.35 -6.0 3.4 -5.9 Q3.45 -5.85 3.4 -5.8 L3.25 -5.75 3.15 -5.7 Q3.1 -5.65 3.15 -5.45 3.2 -5.35 3.3 -5.25 3.45 -5.1 3.75 -5.0 L3.85 -5.0 4.0 -4.85 4.25 -4.55 4.3 -4.5 4.55 -4.15 Q4.7 -4.0 4.75 -3.85 4.8 -3.65 4.9 -3.55 4.95 -3.5 5.15 -3.45 5.25 -3.6 4.95 -4.25 L4.8 -4.7 4.8 -4.8 4.75 -4.95 4.75 -5.1 Q4.5 -5.7 4.2 -6.05 M6.3 -1.25 L6.35 -1.3 Q6.5 -1.4 6.45 -1.65 6.45 -1.95 6.5 -2.0 L6.75 -2.15 Q6.85 -2.15 6.9 -2.2 7.0 -2.3 6.95 -2.7 L6.85 -3.2 6.85 -3.95 6.75 -4.15 6.6 -4.35 Q6.5 -4.5 6.5 -4.6 L6.4 -5.1 6.25 -5.35 6.1 -5.55 5.95 -5.7 5.9 -5.7 Q5.85 -5.6 5.9 -5.4 L6.1 -4.95 6.15 -4.65 Q6.2 -4.6 6.15 -4.5 6.05 -4.4 5.8 -4.35 L5.6 -4.35 Q5.45 -4.15 5.7 -3.8 L6.05 -3.3 6.05 -3.25 6.15 -2.9 6.1 -2.7 6.1 -2.5 Q6.05 -2.45 5.95 -2.5 L5.85 -2.6 5.75 -2.55 5.8 -2.25 6.05 -2.25 6.35 -2.2 Q6.45 -2.1 6.3 -1.95 L6.2 -1.9 6.05 -1.9 5.8 -2.0 5.6 -2.15 5.35 -2.15 Q5.3 -2.1 5.3 -1.95 5.2 -2.0 5.1 -2.05 4.9 -2.1 4.7 -2.3 4.5 -2.45 4.4 -2.35 4.25 -2.25 4.65 -1.8 L4.85 -1.7 4.85 -1.65 5.0 -1.65 5.1 -1.6 5.3 -1.45 5.9 -0.85 6.0 -0.95 6.05 -1.05 6.15 -1.1 6.25 -1.2 6.3 -1.25 M3.25 -8.8 L3.25 -9.0 3.2 -9.15 3.2 -9.15 3.15 -9.2 3.1 -9.25 2.8 -9.55 2.75 -9.55 2.5 -9.55 Q2.5 -9.5 2.55 -9.25 L2.65 -9.1 2.75 -8.9 Q2.75 -8.85 2.65 -8.7 2.6 -8.55 2.5 -8.55 L2.55 -8.45 2.6 -8.35 Q2.65 -8.3 2.8 -8.3 2.95 -8.3 3.05 -8.25 L3.15 -8.0 Q3.2 -7.75 3.25 -7.7 L3.3 -7.7 3.35 -7.65 3.45 -7.7 3.4 -8.05 3.3 -8.5 3.25 -8.8 M2.5 -4.6 Q2.45 -4.85 2.35 -4.95 2.2 -5.1 2.1 -5.05 L1.9 -4.85 Q1.8 -4.8 1.6 -4.8 L1.3 -4.7 Q1.25 -4.65 1.3 -4.3 L1.2 -4.25 1.1 -4.35 1.1 -4.45 1.05 -4.5 1.0 -4.5 0.9 -4.5 0.85 -4.55 Q0.8 -4.6 0.75 -4.8 L0.65 -5.05 0.5 -5.05 0.2 -5.1 0.1 -5.1 -0.05 -5.0 Q-0.15 -4.9 -0.15 -4.85 L-0.05 -4.5 -0.1 -4.4 Q-0.15 -4.3 -0.1 -4.25 L0.55 -4.05 Q0.55 -3.95 0.6 -3.9 0.7 -3.8 1.15 -3.7 L1.3 -3.6 1.35 -3.55 1.4 -3.6 1.5 -3.6 1.55 -3.6 1.55 -3.6 1.45 -3.5 1.45 -3.35 Q1.45 -3.25 1.5 -3.2 L2.0 -3.2 2.45 -3.55 2.55 -3.7 2.7 -3.6 Q2.95 -3.35 3.0 -3.45 3.1 -3.5 3.05 -3.7 L3.0 -3.9 3.0 -4.1 3.1 -4.3 3.1 -4.3 3.45 -3.7 3.55 -3.45 Q3.75 -3.05 4.0 -2.6 L4.05 -2.5 4.1 -2.5 Q4.1 -2.5 4.15 -2.55 4.25 -2.7 4.05 -3.2 L3.7 -3.8 3.7 -3.95 3.65 -4.15 Q3.55 -4.45 3.25 -4.7 3.1 -4.85 3.05 -5.0 L2.95 -5.2 2.7 -5.2 2.55 -4.8 2.5 -4.6 M0.05 -4.0 Q-0.05 -4.1 -0.15 -4.1 L-0.3 -3.95 Q-0.45 -3.8 -0.35 -3.55 -0.25 -3.3 -0.45 -3.1 -0.5 -3.0 -0.7 -3.25 L-0.95 -3.55 -1.0 -3.65 -1.1 -3.8 -1.2 -3.85 -1.25 -3.8 Q-1.4 -3.65 -1.4 -3.45 -1.4 -3.25 -1.25 -3.05 L-1.1 -2.7 -1.1 -2.55 -1.0 -2.45 Q-0.95 -2.35 -0.8 -2.4 -0.65 -2.4 -0.6 -2.5 L-0.55 -2.55 -0.5 -2.6 -0.5 -2.7 -0.15 -2.65 -0.15 -2.8 -0.15 -2.85 -0.1 -3.0 0.0 -3.2 Q0.05 -3.25 0.2 -3.15 L0.4 -2.85 Q0.4 -2.8 0.45 -2.8 L0.55 -2.8 0.75 -2.85 Q0.8 -2.9 0.7 -3.05 L0.65 -3.1 0.4 -3.45 Q0.35 -3.5 0.2 -3.75 L0.05 -4.0 M1.65 -1.85 L1.65 -1.85 Q1.6 -1.75 1.65 -1.6 L1.65 -1.55 Q1.7 -1.45 1.8 -1.4 L2.0 -1.05 2.2 -0.75 2.2 -0.7 2.25 -0.5 2.3 -0.55 2.35 -0.65 2.4 -0.7 2.4 -0.9 Q2.45 -1.1 2.4 -1.15 L2.3 -1.2 2.25 -1.2 2.2 -1.35 2.15 -1.5 Q2.0 -1.6 1.95 -1.9 L1.85 -2.0 1.65 -1.85 M0.05 -2.05 L0.05 -2.05 -0.05 -2.3 -0.05 -2.35 -0.1 -2.3 Q-0.15 -2.25 -0.1 -2.0 L-0.1 -1.9 Q-0.1 -1.7 -0.15 -1.65 L-0.2 -1.6 -0.3 -1.55 -0.4 -1.6 -0.4 -1.65 Q-0.55 -1.8 -0.45 -1.95 -0.35 -2.1 -0.45 -2.15 -0.5 -2.25 -0.6 -2.25 L-0.7 -2.2 Q-0.85 -2.1 -0.85 -2.0 -0.85 -1.85 -0.75 -1.65 -0.7 -1.5 -0.7 -1.35 L-0.7 -1.3 Q-0.7 -1.2 -0.6 -1.15 -0.55 -1.05 -0.4 -1.1 -0.25 -1.15 -0.2 -1.25 -0.15 -1.2 -0.15 -1.1 L-0.1 -0.95 -0.05 -0.9 0.15 -1.05 0.2 -1.1 0.3 -1.2 0.3 -1.55 0.2 -1.65 0.15 -1.7 Q0.1 -1.7 0.05 -2.05 M1.1 -0.7 L1.1 -0.75 1.05 -0.75 Q0.9 -0.9 0.8 -0.75 L0.75 -0.75 Q0.7 -0.65 0.8 -0.2 L0.85 0.0 0.85 0.2 0.75 0.45 0.75 0.65 0.8 0.75 0.75 0.7 Q0.7 0.7 0.55 0.65 L0.4 0.65 0.35 0.75 0.3 0.9 0.05 0.65 -0.1 0.8 -0.1 0.95 0.0 1.1 Q0.05 1.2 0.2 1.2 L0.25 1.3 Q0.35 1.35 0.45 1.4 L0.65 1.4 0.85 1.5 0.95 1.45 Q1.05 1.3 1.1 0.9 L1.1 0.7 Q1.1 0.55 1.1 0.5 L1.2 0.0 1.2 -0.05 1.3 0.05 Q1.4 0.15 1.55 0.1 L1.85 0.15 1.85 0.05 1.8 -0.05 1.75 -0.15 1.65 -0.2 1.5 -0.75 1.5 -0.8 1.35 -0.85 1.2 -0.95 1.15 -0.75 1.1 -0.7 M3.1 -1.0 L3.15 -0.95 3.15 -0.9 3.25 -0.65 Q3.3 -0.6 3.4 -0.55 3.45 -0.65 3.45 -0.8 L3.4 -0.85 3.35 -1.1 3.35 -1.5 Q3.4 -1.7 3.25 -1.85 L3.15 -1.95 3.0 -2.0 Q2.95 -1.95 2.95 -1.85 L2.95 -1.75 2.75 -1.95 Q2.7 -1.75 2.8 -1.45 L3.0 -1.0 3.0 -0.95 3.05 -0.9 3.1 -0.95 3.1 -1.0 M2.65 -1.2 L2.65 -1.15 2.6 -1.05 2.45 -0.7 2.45 -0.65 2.4 -0.45 2.4 -0.3 2.3 0.05 Q2.2 0.25 2.3 0.35 L2.45 0.45 2.6 0.5 2.75 0.6 2.8 0.65 3.0 0.85 Q3.1 0.95 3.2 0.9 L3.25 0.7 3.25 0.55 3.15 0.55 3.0 0.5 2.95 0.4 2.95 0.25 3.05 0.0 3.15 -0.25 Q3.2 -0.45 3.1 -0.5 L3.0 -0.5 2.9 -0.45 2.8 -0.2 2.75 0.0 2.55 0.0 Q2.45 -0.1 2.55 -0.3 L2.75 -0.6 2.8 -0.65 Q2.85 -0.7 2.8 -1.0 L2.8 -1.1 2.75 -1.2 2.65 -1.2 M4.15 0.05 L4.05 -0.05 Q4.0 -0.1 4.05 -0.4 L4.05 -0.6 4.0 -0.7 3.9 -0.85 3.85 -0.9 3.75 -0.85 3.7 -0.75 3.6 -0.55 3.55 -0.4 3.55 -0.2 3.5 0.0 Q3.45 0.15 3.5 0.45 3.55 0.75 3.65 0.8 L3.8 0.9 3.95 1.05 Q4.0 1.3 4.1 1.45 4.2 1.55 4.3 1.5 4.45 1.45 4.55 1.55 L4.7 1.3 4.8 1.25 Q4.9 1.15 4.9 1.05 L4.85 0.85 4.85 0.7 4.95 0.6 5.0 -0.05 5.15 -0.15 5.25 -0.05 5.5 0.3 5.7 0.55 Q5.75 0.65 6.0 0.65 L6.3 0.6 6.35 0.6 6.3 0.5 Q6.4 0.45 6.5 0.35 L6.55 0.3 6.7 0.15 6.75 -0.05 Q6.75 -0.25 6.55 -0.5 6.4 -0.6 6.3 -0.55 L6.05 -0.55 Q5.9 -0.55 5.85 -0.65 L5.75 -0.7 Q5.7 -0.6 5.75 -0.4 L5.9 -0.15 5.85 -0.15 5.75 -0.2 Q5.7 -0.25 5.65 -0.45 L5.6 -0.65 5.5 -0.7 5.45 -0.65 5.35 -1.0 Q5.3 -1.15 5.15 -1.3 L4.8 -1.65 4.75 -1.7 4.7 -1.65 Q4.6 -1.55 4.6 -1.4 L4.65 -1.2 Q4.8 -0.85 4.75 -0.8 4.7 -0.65 4.7 -0.4 L4.65 -0.35 4.7 -0.3 Q4.7 -0.1 4.6 0.0 4.45 0.1 4.25 0.1 L4.15 0.05 M-5.75 -11.65 L-5.75 -11.65 -5.8 -11.65 -5.75 -11.65 M-5.5 -11.8 L-5.5 -11.75 -5.65 -11.7 -5.6 -11.75 -5.5 -11.8 M-3.7 -7.8 Q-3.75 -7.75 -3.75 -7.55 L-3.75 -7.35 -3.55 -7.35 -3.4 -7.3 -3.2 -7.0 Q-3.15 -6.9 -3.05 -6.95 -2.95 -6.95 -2.8 -7.1 L-2.95 -7.25 -3.0 -7.35 -3.05 -7.45 -3.15 -7.6 -3.15 -7.6 -3.45 -7.75 -3.7 -7.8 M-2.65 -6.6 Q-2.6 -6.45 -2.5 -6.35 -2.3 -6.2 -2.25 -6.0 -2.2 -5.9 -2.2 -5.65 -2.2 -5.4 -2.15 -5.35 -2.1 -5.3 -1.95 -5.3 -1.85 -5.3 -1.8 -5.35 -1.7 -5.45 -1.7 -5.65 -1.7 -5.8 -1.75 -5.9 L-1.9 -6.25 -2.05 -6.45 Q-2.15 -6.55 -2.45 -6.65 L-2.65 -6.75 -2.65 -6.6 M-3.9 -6.9 L-4.05 -6.7 Q-4.1 -6.65 -4.2 -6.6 -4.3 -6.6 -4.35 -6.55 L-4.35 -6.5 -4.3 -6.5 -4.25 -6.45 -4.05 -6.45 Q-3.95 -6.5 -3.9 -6.5 L-3.85 -6.6 Q-3.7 -6.7 -3.7 -6.8 -3.7 -6.9 -3.75 -6.95 L-3.8 -6.95 -3.9 -6.9 M-3.85 -5.6 L-3.95 -5.85 -4.05 -6.15 Q-4.1 -6.2 -4.2 -6.15 -4.0 -5.8 -4.0 -5.5 L-4.05 -5.2 Q-4.0 -5.0 -3.85 -4.9 L-3.75 -4.85 -3.65 -4.9 -3.7 -5.25 -3.85 -5.6 M-2.4 -5.05 L-2.7 -4.9 -2.7 -4.75 -2.65 -4.65 -2.45 -4.6 -2.15 -4.7 -2.15 -4.65 -2.05 -4.6 -2.0 -4.55 -1.95 -4.55 -1.95 -4.5 -2.0 -4.4 -2.05 -4.35 -2.15 -4.3 Q-2.25 -4.25 -2.15 -4.1 -2.1 -4.0 -2.3 -3.9 -2.1 -3.75 -1.85 -4.05 -1.7 -4.15 -1.65 -4.35 L-1.55 -4.6 -1.75 -4.75 -1.85 -4.85 -2.2 -5.0 -2.3 -5.0 -2.4 -5.05 M-0.5 -7.15 Q-0.65 -7.2 -0.75 -7.1 L-0.65 -6.85 Q-0.65 -6.75 -0.7 -6.65 L-0.7 -6.5 Q-0.6 -6.45 -0.45 -6.5 L-0.15 -6.65 Q0.05 -6.85 -0.05 -7.0 L-0.25 -7.1 -0.5 -7.15 M-1.6 -6.35 Q-1.75 -6.2 -1.55 -6.05 -1.4 -5.9 -1.25 -5.8 L-1.05 -5.8 -0.95 -5.9 -0.9 -6.05 -0.9 -6.2 Q-1.15 -6.2 -1.35 -6.3 L-1.6 -6.35 M-0.15 -6.05 L-0.3 -6.05 -0.5 -6.1 Q-0.8 -5.75 -0.6 -5.55 -0.5 -5.45 -0.4 -5.5 -0.3 -5.5 -0.2 -5.55 -0.1 -5.65 -0.15 -5.9 L-0.15 -6.05 M-5.05 -6.25 L-5.05 -6.3 -5.1 -6.35 -5.35 -6.3 -5.65 -6.2 -5.7 -6.1 -5.7 -5.9 -5.65 -5.8 -5.6 -5.8 -5.55 -5.8 -5.5 -5.95 -5.35 -6.0 Q-5.2 -5.95 -5.2 -5.95 L-5.1 -5.85 Q-5.1 -5.75 -5.15 -5.7 L-5.2 -5.65 -5.25 -5.65 -4.85 -5.25 Q-4.8 -5.2 -4.45 -5.1 L-4.45 -5.45 -4.35 -5.65 -4.4 -5.8 -4.45 -5.9 -4.65 -5.95 -4.75 -6.0 Q-4.85 -6.0 -4.95 -6.1 L-5.0 -6.2 -5.05 -6.25 M-5.7 -5.25 Q-5.75 -5.15 -5.75 -5.1 L-5.7 -5.0 -5.6 -4.95 -5.4 -4.75 -5.15 -4.55 Q-5.05 -4.7 -5.05 -4.85 L-5.05 -4.95 -5.3 -5.0 -5.55 -5.15 -5.65 -5.3 -5.7 -5.25 M-3.75 -2.8 L-4.05 -2.7 Q-4.15 -2.6 -4.25 -2.6 L-4.5 -2.6 -4.9 -2.5 -5.05 -2.5 -5.15 -2.1 -5.15 -1.8 Q-5.1 -1.75 -5.05 -1.75 -5.0 -1.75 -4.95 -1.8 L-4.75 -2.05 Q-4.65 -2.2 -4.7 -2.25 L-4.65 -2.3 -4.4 -2.1 Q-4.3 -2.0 -4.2 -2.0 L-4.05 -2.05 -3.95 -2.2 -3.9 -2.2 -3.75 -2.3 -3.6 -2.35 -3.5 -2.6 -3.45 -2.85 -3.75 -2.8 -3.75 -2.8 M-3.1 -0.5 L-3.05 -0.55 Q-3.0 -0.65 -3.05 -0.8 L-3.25 -1.05 -3.65 -0.65 -3.75 -0.7 -3.8 -0.75 -4.0 -0.75 Q-4.05 -0.8 -4.05 -0.95 L-3.95 -1.25 Q-3.9 -1.3 -3.95 -1.4 L-4.0 -1.55 -4.2 -1.7 -4.45 -1.65 -4.45 -1.4 -4.4 -1.15 -4.45 -1.0 -4.5 -0.9 Q-4.55 -0.85 -4.65 -0.85 L-4.75 -0.9 -4.8 -0.95 -4.8 -1.0 -4.9 -0.95 -4.95 -0.8 Q-5.0 -0.65 -4.9 -0.55 -4.85 -0.5 -4.8 -0.5 L-4.7 -0.5 Q-4.6 -0.4 -4.65 -0.3 -4.7 -0.15 -4.65 -0.1 L-4.5 -0.1 -4.35 -0.15 -4.2 -0.2 -4.15 -0.05 -4.1 0.0 -4.0 0.15 -3.85 0.25 -3.85 0.25 -3.75 0.35 Q-3.7 0.35 -3.6 0.5 -3.5 0.65 -3.35 0.6 -3.2 0.6 -3.15 0.55 -3.1 0.5 -3.3 0.25 L-3.3 0.2 -3.35 0.15 Q-3.4 0.1 -3.8 -0.1 L-3.95 -0.15 -4.1 -0.25 -4.05 -0.25 -3.9 -0.2 -3.6 -0.3 Q-3.45 -0.3 -3.3 -0.4 L-3.3 -0.25 -3.2 -0.1 -3.1 -0.05 -3.05 0.0 -3.0 -0.15 -3.0 -0.3 -3.1 -0.5 -3.1 -0.5 M-4.95 -0.3 L-5.1 -0.15 Q-5.15 -0.05 -5.05 0.15 L-5.0 0.25 -4.95 0.4 Q-4.9 0.5 -4.95 0.55 L-5.0 0.6 -5.1 0.65 -5.2 0.85 -5.25 1.0 -5.1 1.0 -5.0 1.0 Q-4.85 1.15 -5.05 1.4 -5.25 1.6 -5.15 1.7 L-5.1 1.75 Q-5.05 1.75 -4.95 1.7 L-4.8 1.55 -4.75 1.45 -4.75 1.35 Q-4.7 1.25 -4.7 1.1 L-4.7 0.85 -4.65 0.65 -4.65 0.4 -4.75 0.3 -4.75 0.2 -4.95 -0.3 M-2.9 -2.5 L-2.9 -2.55 -3.0 -2.7 -3.05 -2.75 -3.1 -2.7 -3.15 -2.55 -3.15 -2.35 Q-3.15 -2.25 -3.2 -2.2 L-3.3 -2.15 Q-3.35 -2.1 -3.3 -2.0 L-3.15 -1.9 Q-3.05 -1.8 -2.9 -1.75 -2.75 -1.75 -2.55 -1.55 -2.25 -1.3 -2.1 -1.45 L-2.0 -1.6 -1.9 -1.95 -2.1 -1.9 -2.2 -1.9 Q-2.35 -1.85 -2.4 -1.95 -2.45 -1.95 -2.4 -2.1 L-2.3 -2.25 -2.25 -2.3 -2.2 -2.35 -2.1 -2.4 Q-2.05 -2.4 -2.05 -2.5 L-2.0 -2.65 -2.15 -2.75 Q-2.2 -2.75 -2.3 -2.65 L-2.4 -2.55 -2.4 -2.55 -2.45 -2.45 Q-2.5 -2.4 -2.6 -2.4 L-2.65 -2.25 Q-2.7 -2.35 -2.7 -2.4 L-2.65 -2.4 -2.7 -2.45 -2.9 -2.5 M-2.75 -0.35 L-2.8 -0.35 Q-2.9 -0.25 -2.85 0.0 L-2.75 0.3 -2.7 0.3 -2.6 0.25 Q-2.5 0.15 -2.45 -0.05 L-2.4 -0.15 -2.45 -0.3 -2.5 -0.4 -2.5 -0.5 -2.6 -0.4 -2.75 -0.35 M-0.95 -0.4 L-0.9 -0.35 Q-0.75 -0.2 -0.5 -0.15 L-0.25 -0.15 -0.2 -0.2 -0.4 -0.45 Q-0.55 -0.55 -0.65 -0.6 L-0.9 -0.6 -0.9 -0.6 -1.0 -0.6 -1.05 -0.65 -1.1 -0.65 -1.15 -0.75 -1.65 -1.25 -1.75 -1.2 Q-1.8 -1.15 -1.8 -1.05 L-1.8 -1.0 -1.75 -0.95 -1.65 -0.75 Q-1.55 -0.65 -1.65 -0.6 L-1.65 -0.6 -1.8 -0.55 -1.85 -0.55 Q-1.85 -0.45 -1.8 -0.3 L-1.75 -0.25 -1.7 -0.15 -1.45 0.0 -1.4 -0.05 -1.35 -0.5 -1.15 -0.4 -0.95 -0.4 M-0.45 0.8 L-0.35 0.8 Q-0.4 0.65 -0.5 0.5 -0.6 0.4 -0.7 0.4 -0.85 0.35 -0.9 0.45 L-0.95 0.45 -1.0 0.6 -1.1 0.45 -1.1 0.45 -1.35 0.35 -1.4 0.35 Q-1.45 0.45 -1.35 0.6 L-1.2 0.75 -1.15 0.8 -1.15 0.8 -0.9 1.0 -0.55 1.2 Q-0.45 1.3 -0.35 1.2 -0.25 1.1 -0.45 0.8 M-0.45 3.0 L-0.45 3.0 -0.55 2.95 -0.7 2.7 -0.85 2.25 Q-1.1 1.7 -1.15 1.65 L-1.25 1.6 -1.2 1.8 -1.1 2.05 -1.0 2.65 -0.85 3.05 -0.8 3.25 Q-0.7 3.3 -0.6 3.3 L-0.45 3.3 -0.4 3.35 -0.35 3.3 -0.35 3.25 -0.25 3.3 -0.2 3.3 -0.05 3.3 0.1 3.2 0.2 2.95 Q0.2 2.8 0.15 2.7 -0.25 2.55 -0.3 2.65 L-0.35 2.75 -0.4 2.95 -0.45 3.0 M-1.05 3.65 L-1.05 3.7 -1.0 3.75 -0.8 3.85 -0.8 3.85 -0.75 3.85 -0.55 3.75 -0.45 3.75 -0.4 3.75 -0.35 3.85 -0.35 3.9 -0.25 3.85 -0.2 3.75 -0.15 3.65 -0.2 3.5 -0.2 3.45 -0.35 3.4 -0.4 3.45 Q-0.5 3.45 -0.6 3.5 L-0.65 3.5 -0.75 3.5 -0.85 3.5 -0.9 3.4 -0.95 3.25 -1.05 3.05 -1.05 3.0 -1.1 2.9 -1.15 2.8 -1.15 2.75 -1.2 2.65 Q-1.3 2.6 -1.4 2.6 L-1.55 2.55 -1.5 2.75 -1.45 3.0 -1.45 3.2 Q-1.45 3.3 -1.35 3.45 L-1.25 3.5 Q-1.15 3.55 -1.15 3.55 L-1.05 3.65 M7.25 2.7 L7.2 2.65 7.05 2.4 6.9 2.25 6.75 2.1 6.65 2.15 6.55 2.15 Q6.5 2.15 6.45 2.2 6.45 2.2 6.4 2.5 L6.3 2.8 6.15 2.9 Q6.05 2.95 6.0 3.0 5.9 3.1 5.85 3.35 5.8 3.55 5.85 3.65 5.95 3.65 6.15 3.55 L6.35 3.35 6.45 3.45 6.4 3.8 Q6.4 3.9 6.45 4.0 L6.55 4.15 6.6 4.3 6.6 4.45 6.6 4.5 Q6.75 4.6 6.9 4.45 L7.1 4.2 7.25 4.2 7.45 4.15 Q7.55 4.0 7.45 3.65 L7.25 3.15 7.25 2.7 M4.55 2.35 L4.25 2.65 4.35 2.9 4.55 3.2 4.9 3.35 5.4 3.85 5.3 3.5 Q5.2 3.05 5.05 2.9 L4.8 2.7 Q4.65 2.6 4.6 2.35 L4.55 2.35 M4.7 1.25 L4.7 1.2 4.7 1.25 M4.3 4.8 L4.6 5.0 4.6 5.05 4.0 3.65 3.55 3.3 3.5 3.2 3.5 3.45 3.7 3.75 3.85 4.0 Q3.95 4.1 4.05 4.4 4.2 4.7 4.3 4.8 M2.2 4.75 L2.15 4.65 Q2.2 4.5 2.05 4.4 L1.95 4.2 1.8 4.0 1.65 3.8 1.45 3.6 1.3 3.45 1.25 3.35 Q1.15 3.25 1.1 3.3 L1.15 3.4 1.3 3.6 1.5 4.0 Q1.6 4.25 1.9 4.6 L1.9 4.65 1.95 4.75 1.95 4.85 2.0 5.15 Q2.1 5.4 2.15 5.5 2.25 5.6 2.35 5.6 L2.45 5.6 2.5 5.5 2.45 5.4 2.3 5.1 2.2 4.8 2.2 4.75 M1.15 4.8 L1.1 4.8 0.95 4.6 Q0.85 4.5 0.75 4.3 L0.5 4.0 0.4 3.95 Q0.5 4.25 0.75 4.7 L0.8 4.85 Q1.0 5.25 1.15 5.4 L1.25 5.45 1.35 5.55 1.5 5.75 1.5 5.7 1.45 5.3 Q1.45 5.15 1.4 5.1 L1.3 5.0 1.15 4.8 M2.75 3.8 L2.5 3.5 1.9 3.0 2.15 3.35 2.35 3.65 2.4 3.7 2.45 3.75 2.5 3.9 2.5 4.05 2.55 4.2 2.9 4.7 3.25 5.2 3.25 5.25 2.85 4.1 2.75 3.8 M2.3 7.15 Q2.35 7.1 2.2 6.7 L1.95 6.1 1.85 5.9 1.75 5.75 1.7 5.7 1.7 5.65 1.65 5.7 1.65 5.8 1.75 6.0 1.6 5.95 1.55 5.95 1.45 5.9 Q1.4 5.95 1.45 6.05 L1.55 6.15 1.8 6.3 2.0 6.65 2.05 6.7 2.1 6.85 2.15 7.0 2.3 7.15 M0.6 5.3 L0.3 5.15 Q0.25 5.25 0.4 5.45 L0.6 5.65 0.75 6.0 0.9 6.2 1.0 6.25 Q1.1 6.2 0.85 5.7 L0.8 5.6 0.7 5.45 0.6 5.3" fill="#362d28" fill-rule="evenodd" stroke="none"/>
    <path d="M4.1 -7.25 L4.2 -7.3 Q4.3 -7.4 4.3 -7.65 4.25 -7.95 4.35 -8.0 L4.55 -8.05 4.75 -7.95 Q4.85 -7.85 4.85 -7.6 L4.8 -7.3 4.65 -7.15 4.6 -7.25 Q4.5 -7.35 4.4 -7.3 L4.1 -7.25" fill="#625142" fill-rule="evenodd" stroke="none"/>
    <path d="M4.65 -7.15 L4.6 -7.05 4.45 -6.75 4.45 -6.75 4.25 -6.85 4.25 -6.85 4.2 -6.85 4.25 -6.85 4.3 -6.8 4.35 -6.75 4.2 -6.7 3.85 -6.55 3.75 -6.5 Q3.7 -6.5 3.6 -6.6 L3.3 -6.7 3.3 -6.8 3.25 -6.85 3.5 -7.0 3.85 -7.2 4.0 -7.25 4.1 -7.25 4.1 -7.25 4.4 -7.3 Q4.5 -7.35 4.6 -7.25 L4.65 -7.15 M4.2 -6.85 L4.15 -6.9 4.1 -6.85 4.2 -6.85" fill="#a0886f" fill-rule="evenodd" stroke="none"/>
    <path d="M4.45 -6.75 L4.45 -6.75 4.5 -6.75 4.55 -6.75 4.8 -6.55 Q5.0 -6.35 5.15 -6.05 L5.25 -5.75 5.55 -4.75 5.45 -4.75 5.35 -4.85 Q5.3 -4.9 5.15 -5.2 L5.05 -5.5 4.9 -5.7 4.8 -5.95 4.7 -6.3 4.4 -6.7 4.35 -6.75 4.3 -6.8 4.25 -6.85 4.45 -6.75" fill="#231c18" fill-rule="evenodd" stroke="none"/>
    <path d="M4.2 -6.05 Q4.5 -5.7 4.75 -5.1 L4.75 -4.95 4.8 -4.8 4.8 -4.7 4.95 -4.25 Q5.25 -3.6 5.15 -3.45 4.95 -3.5 4.9 -3.55 4.8 -3.65 4.75 -3.85 4.7 -4.0 4.55 -4.15 L4.3 -4.5 4.25 -4.55 4.0 -4.85 3.85 -5.0 3.75 -5.0 Q3.45 -5.1 3.3 -5.25 3.2 -5.35 3.15 -5.45 3.1 -5.65 3.15 -5.7 L3.25 -5.75 3.4 -5.8 Q3.45 -5.85 3.4 -5.9 L3.35 -6.0 3.45 -6.2 3.55 -6.35 3.75 -6.3 Q4.05 -6.2 4.2 -6.05" fill="#1f1a15" fill-rule="evenodd" stroke="none"/>
    <path d="M5.1 -1.6 L5.0 -1.65 4.85 -1.65 4.85 -1.7 4.65 -1.8 Q4.25 -2.25 4.4 -2.35 4.5 -2.45 4.7 -2.3 4.9 -2.1 5.1 -2.05 5.2 -2.0 5.3 -1.95 5.3 -2.1 5.35 -2.15 L5.6 -2.15 5.8 -2.0 6.05 -1.9 6.2 -1.9 6.3 -1.95 Q6.45 -2.1 6.35 -2.2 L6.05 -2.25 5.8 -2.25 5.75 -2.55 5.85 -2.6 5.95 -2.5 Q6.05 -2.45 6.1 -2.5 L6.1 -2.7 6.15 -2.9 6.05 -3.25 6.05 -3.3 5.7 -3.8 Q5.45 -4.15 5.6 -4.35 L5.8 -4.35 Q6.05 -4.4 6.15 -4.5 6.2 -4.6 6.15 -4.65 L6.1 -4.95 5.9 -5.4 Q5.85 -5.6 5.9 -5.7 L5.95 -5.7 6.1 -5.55 6.25 -5.35 6.4 -5.1 6.5 -4.6 Q6.5 -4.5 6.6 -4.35 L6.75 -4.15 6.85 -3.95 6.85 -3.2 6.95 -2.7 Q7.0 -2.3 6.9 -2.2 6.85 -2.15 6.75 -2.15 L6.5 -2.0 Q6.45 -1.95 6.45 -1.65 6.5 -1.4 6.35 -1.3 L6.3 -1.25 6.3 -1.3 6.2 -1.4 6.05 -1.5 Q5.85 -1.55 5.8 -1.6 L5.65 -1.75 5.5 -1.75 5.35 -1.7 5.15 -1.6 5.1 -1.6" fill="#624f3d" fill-rule="evenodd" stroke="none"/>
    <path d="M2.65 -9.1 L2.55 -9.25 Q2.5 -9.5 2.5 -9.55 L2.75 -9.55 2.8 -9.55 3.1 -9.25 3.15 -9.2 3.2 -9.15 3.2 -9.15 3.25 -9.0 3.25 -8.8 3.2 -8.85 Q2.85 -9.25 2.65 -9.1" fill="#595048" fill-rule="evenodd" stroke="none"/>
    <path d="M2.65 -9.1 Q2.85 -9.25 3.2 -8.85 L3.25 -8.8 3.3 -8.5 3.4 -8.05 3.45 -7.7 3.35 -7.65 3.3 -7.7 3.25 -7.7 Q3.2 -7.75 3.15 -8.0 L3.05 -8.25 Q2.95 -8.3 2.8 -8.3 2.65 -8.3 2.6 -8.35 L2.55 -8.45 2.5 -8.55 Q2.6 -8.55 2.65 -8.7 2.75 -8.85 2.75 -8.9 L2.65 -9.1" fill="#8c7564" fill-rule="evenodd" stroke="none"/>
    <path d="M3.15 9.4 L3.05 9.25 Q2.9 9.05 2.7 9.05 2.4 9.0 2.15 8.9 L1.55 8.65 0.95 8.75 0.6 8.8 0.25 8.85 -0.35 8.8 -0.7 8.85 -6.4 3.1 -6.15 3.1 Q-6.05 3.0 -6.05 2.75 -6.1 2.45 -6.05 2.4 L-5.75 2.3 -5.6 2.5 -5.5 2.7 -5.15 2.7 Q-5.15 2.7 -5.1 2.55 -5.1 2.4 -5.15 2.35 L-5.1 2.2 -5.1 2.15 -4.8 2.15 Q-4.6 2.2 -4.5 2.35 -4.45 2.4 -4.5 2.5 L-4.6 2.75 -4.6 2.85 -4.55 2.95 -4.7 3.15 -4.8 3.25 -4.95 3.2 -5.05 3.2 Q-5.1 3.2 -5.1 3.25 L-5.2 3.3 Q-5.3 3.35 -5.35 3.4 -5.4 3.45 -5.35 3.55 L-5.2 3.7 Q-5.15 3.75 -5.15 3.85 L-5.1 3.95 Q-5.0 4.05 -4.9 4.05 L-4.65 3.9 -4.45 3.7 -4.3 3.55 -4.2 3.45 -4.2 3.35 -4.25 3.2 -4.25 2.95 -4.1 2.8 Q-3.95 3.05 -3.75 3.05 -3.55 3.1 -3.3 2.8 L-3.25 2.7 -3.25 2.65 -3.4 2.6 -3.55 2.6 -3.8 2.5 -3.7 2.4 -3.5 2.35 -3.35 2.35 -3.4 2.15 Q-3.45 2.0 -3.45 2.0 -3.5 1.95 -3.55 1.95 L-3.6 1.9 -3.65 1.65 -3.7 1.55 -3.8 1.35 Q-3.8 1.25 -3.75 1.2 L-3.6 1.15 -3.45 1.15 -3.2 1.2 -3.15 1.25 Q-2.9 1.5 -2.75 2.2 L-2.7 2.3 Q-2.7 2.55 -2.8 2.85 -2.9 3.0 -2.75 3.15 L-2.5 3.35 -2.4 3.45 -2.4 3.45 -2.35 3.6 -2.3 3.7 -2.25 3.8 -2.15 3.8 -2.05 3.85 -2.0 4.0 -1.95 4.2 -1.7 4.3 -1.65 4.3 Q-1.45 4.25 -1.4 4.35 L-1.35 4.4 Q-1.3 4.45 -1.35 4.55 -1.4 4.7 -1.45 4.75 L-1.55 4.8 -1.5 4.85 -1.4 5.0 Q-1.35 5.1 -1.45 5.15 L-1.65 5.3 -1.9 5.4 -1.85 5.6 -1.75 5.75 -1.7 6.0 -1.65 6.1 -1.1 6.45 -1.0 6.5 -0.85 6.5 -0.5 6.45 -0.3 6.6 -0.1 6.8 -0.1 6.85 Q-0.2 6.75 -0.45 6.75 -0.6 6.8 -0.7 6.9 -0.75 6.95 -0.75 7.05 L-0.65 7.2 -0.55 7.3 -0.35 7.35 -0.3 7.3 -0.2 7.3 0.05 7.4 Q0.05 7.35 0.15 7.35 L0.25 7.2 Q0.35 7.15 0.5 7.2 L0.7 7.3 0.65 7.05 0.7 6.95 0.85 6.9 1.0 6.9 Q1.1 7.0 1.1 7.15 1.15 7.25 1.2 7.3 L1.4 7.35 1.7 7.3 1.85 7.25 2.05 7.2 2.35 7.3 Q2.55 7.4 2.6 7.3 L2.7 7.15 Q2.7 7.0 2.9 6.85 3.1 6.7 3.15 6.55 L3.15 6.35 Q3.1 6.2 3.15 6.15 3.2 6.1 3.3 6.15 L3.4 6.2 3.5 6.15 3.6 6.05 4.0 5.75 4.15 5.65 4.65 5.6 4.75 5.7 4.85 5.75 5.05 5.7 5.2 5.6 5.35 5.4 Q5.4 5.25 5.5 5.15 5.6 5.05 5.7 5.15 L5.95 5.35 6.0 5.4 6.15 5.4 6.2 5.4 6.25 5.4 Q6.45 5.35 6.5 5.25 L6.55 5.35 6.6 5.5 Q6.75 5.4 7.0 5.4 7.25 5.45 7.45 5.6 L7.55 5.85 7.65 6.1 Q7.75 6.5 8.15 6.85 L8.15 6.9 8.0 6.9 8.2 7.15 8.25 7.4 8.75 7.7 8.85 7.8 9.2 7.9 9.4 8.0 9.45 8.05 9.6 8.3 9.6 8.55 9.55 9.0 Q9.5 9.35 9.35 9.5 9.15 9.7 8.85 9.7 L8.5 9.65 8.3 9.5 Q7.95 9.1 7.6 9.1 L7.4 9.1 Q7.25 9.1 7.15 8.95 L7.05 8.85 7.05 8.75 7.1 8.45 7.05 8.15 6.9 7.75 Q6.9 7.65 6.9 7.55 L6.95 7.4 6.95 7.15 7.0 6.95 Q7.0 6.75 6.9 6.6 L6.8 6.45 6.8 6.4 6.45 5.85 6.35 5.95 6.2 6.05 5.9 5.95 Q5.8 5.95 5.7 6.05 L5.55 6.15 5.3 6.3 5.15 6.35 4.95 6.35 Q4.8 6.35 4.7 6.45 L4.55 6.75 4.45 7.05 4.4 7.25 Q4.4 7.35 4.4 7.4 4.55 7.7 4.35 7.95 4.3 8.0 4.2 8.3 L4.1 8.6 4.0 8.65 3.8 8.75 Q3.6 8.95 3.55 9.3 L3.3 9.25 3.15 9.4 M-7.4 2.15 L-9.7 -0.15 -9.7 -0.2 -9.6 -0.35 -9.45 -0.45 -9.55 -0.55 Q-9.65 -0.65 -9.85 -0.6 L-10.1 -0.6 -10.2 -0.65 Q-10.25 -0.8 -10.1 -1.05 L-9.85 -1.4 -9.8 -1.35 -9.7 -1.1 -9.65 -1.05 -9.55 -0.85 -9.35 -0.7 Q-9.25 -0.7 -9.2 -0.75 L-9.15 -0.9 -9.05 -1.0 -8.85 -1.1 -8.6 -1.2 -8.3 -1.25 -8.15 -1.35 -8.1 -1.25 -7.95 -1.05 -7.9 -1.05 -7.8 -1.05 -7.65 -1.2 -7.4 -1.15 -7.3 -1.15 -7.3 -1.05 -7.25 -0.95 Q-7.2 -0.85 -7.1 -0.9 L-7.1 -0.85 -7.4 -0.65 -7.65 -0.7 Q-7.6 -0.6 -7.65 -0.4 -7.75 -0.25 -7.7 -0.2 L-7.35 -0.15 -7.05 -0.15 -6.9 0.1 Q-6.85 0.2 -6.7 0.15 L-6.55 0.0 Q-6.4 -0.1 -6.25 -0.65 L-6.15 -0.75 -6.05 -0.65 Q-5.85 -0.5 -6.05 -0.3 -6.2 -0.1 -6.05 0.1 L-5.95 0.15 -5.8 0.1 -5.55 0.1 Q-5.5 0.15 -5.5 0.25 L-5.55 0.4 -5.65 0.45 -5.75 0.5 -5.75 0.5 -5.65 0.7 Q-5.55 0.9 -5.65 1.0 L-5.85 1.2 -6.05 1.05 Q-6.15 1.0 -6.2 1.0 L-6.2 1.15 -6.25 1.25 -6.5 1.2 -6.6 1.1 -6.65 1.05 -6.7 0.95 -6.8 1.0 -6.95 1.25 -6.85 1.4 -6.65 1.45 -6.55 1.45 -6.4 1.5 Q-6.35 1.55 -6.4 1.7 L-6.45 1.95 -6.45 2.25 Q-6.4 2.2 -6.4 2.3 L-6.65 2.35 -6.8 2.3 -6.95 2.05 Q-6.95 1.85 -7.0 1.8 -7.05 1.75 -7.15 1.75 L-7.3 1.8 -7.45 2.0 -7.45 2.05 -7.4 2.15 M-3.7 -11.25 L-3.0 -11.1 -2.85 -11.3 Q-2.75 -11.4 -2.65 -11.35 L-2.4 -11.2 -2.3 -11.1 Q-2.2 -11.0 -2.05 -11.0 -1.9 -11.0 -1.8 -10.9 L-1.75 -10.85 -1.8 -10.75 Q-1.7 -10.85 -1.5 -10.85 L-1.35 -10.8 -1.3 -10.9 -1.25 -11.0 -1.25 -11.2 -1.05 -11.15 Q-0.95 -11.1 -0.85 -11.05 L-0.45 -10.7 -0.25 -10.5 Q-0.35 -10.4 -0.4 -10.3 L-0.4 -10.3 Q-0.45 -10.15 -0.35 -10.05 L-0.25 -10.0 -0.2 -9.9 -0.15 -9.7 -0.1 -9.6 -0.05 -9.55 0.1 -9.7 0.4 -9.7 0.45 -9.6 0.6 -9.55 0.65 -9.55 0.8 -9.55 0.9 -9.55 1.0 -9.35 1.05 -9.15 1.05 -9.05 1.1 -8.9 1.25 -8.55 1.55 -8.05 1.7 -7.75 Q1.7 -7.6 1.75 -7.45 L1.85 -7.3 Q1.95 -7.25 2.05 -7.2 L2.2 -7.2 2.3 -7.3 Q2.15 -7.5 2.1 -7.75 2.0 -8.1 2.15 -8.25 L2.25 -8.3 2.35 -8.25 Q2.4 -8.2 2.45 -7.95 2.5 -7.7 2.6 -7.55 L2.7 -7.35 2.75 -7.15 2.8 -6.8 2.75 -6.65 2.5 -6.6 2.25 -6.55 2.3 -6.2 Q2.3 -5.85 2.25 -5.8 L2.2 -5.75 2.15 -5.75 2.05 -5.85 1.95 -6.15 1.8 -6.3 1.65 -6.45 1.5 -6.45 1.4 -6.15 Q1.35 -5.9 1.3 -5.8 1.2 -5.7 1.15 -5.7 1.05 -5.7 1.0 -5.75 L0.9 -5.9 0.75 -6.05 0.8 -6.05 0.75 -5.9 Q0.3 -5.7 0.25 -5.75 0.2 -5.8 0.2 -6.0 L0.2 -6.35 Q0.2 -6.45 0.2 -6.65 L0.25 -6.9 0.5 -6.75 0.85 -6.75 Q0.95 -6.85 0.85 -7.05 0.75 -7.15 0.75 -7.35 L0.8 -7.3 0.8 -7.3 0.9 -7.45 1.0 -7.6 0.8 -7.8 0.65 -8.0 0.6 -8.15 0.45 -8.2 0.3 -8.2 Q0.25 -8.15 0.3 -7.9 0.3 -7.65 0.25 -7.6 0.2 -7.55 0.15 -7.55 L-0.15 -7.75 -0.35 -7.8 -0.35 -8.45 -0.5 -8.4 Q-0.55 -8.4 -0.6 -8.45 L-0.6 -8.6 -0.65 -8.75 -0.65 -8.75 -0.8 -8.8 -1.05 -9.0 Q-1.1 -9.0 -1.3 -8.8 L-1.4 -8.65 Q-1.45 -8.55 -1.35 -8.4 L-1.35 -8.35 -1.3 -8.1 -1.3 -7.9 Q-1.2 -7.7 -1.2 -7.4 -1.2 -7.05 -1.45 -6.9 L-1.5 -7.05 -1.55 -7.1 -1.65 -7.2 -1.85 -7.3 -1.9 -7.4 -1.75 -7.6 Q-1.6 -7.85 -1.55 -7.95 L-1.5 -8.15 -1.5 -8.25 -1.8 -8.6 -1.8 -8.6 -1.8 -8.65 -1.75 -8.75 -1.8 -8.8 -1.85 -8.9 -1.85 -8.9 -1.9 -9.15 -2.15 -9.35 -2.25 -9.3 -2.15 -9.1 -2.25 -9.05 Q-2.3 -8.95 -2.45 -8.95 -2.45 -8.95 -2.55 -9.0 L-2.7 -9.05 -2.75 -9.0 Q-2.75 -8.95 -2.75 -8.95 L-3.35 -8.8 Q-3.4 -8.75 -3.35 -8.5 -3.3 -8.25 -3.4 -8.15 -3.5 -8.05 -3.55 -8.1 -3.7 -8.2 -3.75 -8.2 L-4.25 -8.35 -4.35 -8.3 -4.45 -8.2 -4.55 -8.15 -4.6 -8.1 -4.65 -8.05 -4.65 -7.95 Q-4.75 -7.85 -4.9 -7.8 -5.05 -7.75 -5.15 -7.85 -5.2 -7.9 -5.1 -8.1 L-4.85 -8.35 -5.1 -8.45 -5.25 -8.45 -5.3 -8.45 -5.3 -8.35 -5.35 -8.2 -5.6 -7.95 -5.75 -7.55 Q-5.75 -7.5 -5.85 -7.25 L-6.0 -6.95 Q-5.85 -6.9 -5.85 -6.7 L-5.85 -6.55 -5.95 -6.5 -6.0 -6.45 -6.05 -6.35 -6.1 -6.2 -6.35 -6.2 -6.35 -6.2 -6.55 -6.15 Q-6.65 -6.1 -6.6 -6.0 -6.6 -5.9 -6.65 -5.85 L-6.8 -5.8 -6.95 -5.85 -6.95 -5.9 -6.85 -6.0 -6.8 -6.1 -6.65 -6.35 -6.5 -6.6 -6.5 -6.65 Q-6.35 -6.85 -6.35 -6.95 L-6.4 -6.9 -6.4 -6.95 -6.55 -6.85 -6.6 -6.85 -6.65 -6.95 -6.7 -7.0 -6.7 -7.05 -6.75 -7.1 -6.75 -7.2 -6.7 -7.4 Q-6.7 -7.5 -6.8 -7.55 L-6.7 -7.8 -6.8 -7.95 Q-6.8 -8.05 -6.75 -8.1 L-6.6 -8.15 -6.5 -8.15 -6.3 -8.2 -6.15 -8.3 -6.05 -8.45 -6.05 -8.6 -5.95 -8.8 Q-5.95 -8.85 -6.0 -8.95 L-6.2 -8.95 -6.35 -8.95 -6.4 -8.95 -6.45 -9.05 -6.3 -9.15 Q-6.15 -9.2 -6.15 -9.2 L-6.05 -9.35 -6.0 -9.45 -6.0 -9.5 -5.6 -9.55 -5.45 -9.55 -5.1 -9.6 -5.0 -9.65 -4.9 -9.75 -4.85 -9.75 -4.4 -9.65 Q-4.2 -9.7 -4.15 -9.75 L-4.1 -9.85 -4.05 -9.95 -4.5 -10.05 -4.85 -10.2 -4.85 -10.2 -5.05 -10.15 Q-5.15 -10.1 -5.2 -10.05 -5.25 -10.0 -5.25 -10.05 L-5.45 -10.0 Q-5.6 -10.0 -5.65 -10.05 L-5.65 -10.1 Q-5.7 -10.15 -5.7 -10.3 L-5.6 -10.5 -5.5 -10.55 -5.15 -10.55 -5.1 -10.5 Q-4.8 -10.3 -4.75 -10.4 -4.65 -10.5 -4.7 -10.6 L-4.85 -10.8 -4.85 -10.85 -4.8 -11.05 -4.75 -11.2 Q-4.65 -11.35 -4.35 -11.3 L-3.85 -11.3 -3.85 -11.25 -3.7 -11.25" fill="#1d1816" fill-rule="evenodd" stroke="none"/>
    <path d="M0.55 -4.05 L-0.1 -4.25 Q-0.15 -4.3 -0.1 -4.4 L-0.05 -4.5 -0.15 -4.85 Q-0.15 -4.9 -0.05 -5.0 L0.1 -5.1 0.2 -5.1 0.5 -5.05 0.65 -5.05 0.75 -4.8 Q0.8 -4.6 0.85 -4.55 L0.9 -4.5 1.0 -4.5 1.05 -4.5 1.1 -4.45 1.1 -4.35 1.2 -4.25 1.3 -4.3 Q1.25 -4.65 1.3 -4.7 L1.6 -4.8 Q1.8 -4.8 1.9 -4.85 L2.1 -5.05 Q2.2 -5.1 2.35 -4.95 2.45 -4.85 2.5 -4.6 L2.5 -4.35 2.5 -4.4 2.3 -4.5 2.1 -4.55 1.8 -4.4 Q1.7 -4.4 1.6 -4.5 L1.55 -4.4 1.4 -4.15 1.35 -4.0 Q1.2 -3.85 1.05 -4.0 0.9 -4.1 0.9 -4.25 L0.8 -4.45 0.7 -4.5 0.6 -4.45 Q0.5 -4.35 0.5 -4.15 L0.55 -4.05 M-0.15 -6.05 L-0.15 -5.9 Q-0.1 -5.65 -0.2 -5.55 -0.3 -5.5 -0.4 -5.5 -0.5 -5.45 -0.6 -5.55 -0.8 -5.75 -0.5 -6.1 L-0.3 -6.05 -0.15 -6.05" fill="#594a44" fill-rule="evenodd" stroke="none"/>
    <path d="M2.5 -4.35 L2.5 -4.6 2.55 -4.8 2.7 -5.2 2.95 -5.2 3.05 -5.0 Q3.1 -4.85 3.25 -4.7 3.55 -4.45 3.65 -4.15 L3.7 -3.95 3.7 -3.8 4.05 -3.2 Q4.25 -2.7 4.15 -2.55 4.1 -2.5 4.1 -2.5 L4.05 -2.5 4.0 -2.6 Q3.75 -3.05 3.55 -3.45 L3.45 -3.7 3.1 -4.3 3.1 -4.3 3.0 -4.1 3.0 -3.9 3.05 -3.7 Q3.1 -3.5 3.0 -3.45 2.95 -3.35 2.7 -3.6 L2.55 -3.7 2.6 -3.95 Q2.65 -4.25 2.5 -4.35" fill="#221c19" fill-rule="evenodd" stroke="none"/>
    <path d="M0.55 -4.05 L0.5 -4.15 Q0.5 -4.35 0.6 -4.45 L0.7 -4.5 0.8 -4.45 0.9 -4.25 Q0.9 -4.1 1.05 -4.0 1.2 -3.85 1.35 -4.0 L1.4 -4.15 1.55 -4.4 1.6 -4.5 Q1.7 -4.4 1.8 -4.4 L2.1 -4.55 2.3 -4.5 2.5 -4.4 2.5 -4.35 Q2.65 -4.25 2.6 -3.95 L2.55 -3.7 2.45 -3.55 2.0 -3.2 1.5 -3.2 Q1.45 -3.25 1.45 -3.35 L1.45 -3.5 1.55 -3.6 1.55 -3.6 1.65 -3.55 1.85 -3.55 Q1.95 -3.55 2.0 -3.6 L2.05 -3.55 2.1 -3.5 2.2 -3.55 2.25 -3.65 2.3 -3.8 2.3 -3.85 2.35 -4.0 2.3 -4.15 2.0 -4.35 1.9 -4.05 Q1.8 -4.1 1.7 -4.1 1.55 -4.1 1.45 -3.95 1.3 -3.8 1.35 -3.7 L1.4 -3.6 1.35 -3.55 1.3 -3.6 1.15 -3.7 Q0.7 -3.8 0.6 -3.9 0.55 -3.95 0.55 -4.05" fill="#a89381" fill-rule="evenodd" stroke="none"/>
    <path d="M1.9 -4.05 L2.0 -4.35 2.3 -4.15 2.35 -4.0 2.3 -3.85 2.3 -3.8 2.25 -3.65 2.2 -3.55 2.1 -3.5 2.05 -3.55 2.0 -3.6 2.05 -3.6 Q2.15 -3.7 1.9 -4.0 L1.9 -4.05" fill="#6e5942" fill-rule="evenodd" stroke="none"/>
    <path d="M1.55 -3.6 L1.5 -3.6 1.4 -3.6 1.35 -3.7 Q1.3 -3.8 1.45 -3.95 1.55 -4.1 1.7 -4.1 1.8 -4.1 1.9 -4.05 L1.9 -4.0 Q2.15 -3.7 2.05 -3.6 L2.0 -3.6 Q1.95 -3.55 1.85 -3.55 L1.65 -3.55 1.55 -3.6" fill="#d8bea9" fill-rule="evenodd" stroke="none"/>
    <path d="M0.05 -4.0 L0.2 -3.75 Q0.35 -3.5 0.4 -3.45 L0.65 -3.1 0.7 -3.05 Q0.8 -2.9 0.75 -2.85 L0.55 -2.8 0.45 -2.8 Q0.4 -2.8 0.4 -2.85 L0.2 -3.15 Q0.05 -3.25 0.0 -3.2 L-0.1 -3.0 -0.15 -2.85 -0.15 -2.8 -0.15 -2.65 -0.5 -2.7 -0.5 -2.6 -0.55 -2.55 -0.6 -2.5 Q-0.65 -2.4 -0.8 -2.4 -0.95 -2.35 -1.0 -2.45 L-1.1 -2.55 -1.1 -2.7 -1.25 -3.05 Q-1.4 -3.25 -1.4 -3.45 -1.4 -3.65 -1.25 -3.8 L-1.2 -3.85 -1.1 -3.8 -1.0 -3.65 -0.95 -3.55 -0.7 -3.25 Q-0.5 -3.0 -0.45 -3.1 -0.25 -3.3 -0.35 -3.55 -0.45 -3.8 -0.3 -3.95 L-0.15 -4.1 Q-0.05 -4.1 0.05 -4.0" fill="#725f51" fill-rule="evenodd" stroke="none"/>
    <path d="M1.65 -1.85 L1.85 -2.0 1.95 -1.9 Q2.0 -1.6 2.15 -1.5 L2.2 -1.35 2.25 -1.2 2.3 -1.2 2.4 -1.15 Q2.45 -1.1 2.4 -0.9 L2.4 -0.7 2.35 -0.65 2.3 -0.55 2.25 -0.5 2.2 -0.7 2.2 -0.75 2.0 -1.05 1.8 -1.4 Q1.7 -1.45 1.65 -1.55 L1.65 -1.6 Q1.6 -1.75 1.65 -1.85 L1.65 -1.85" fill="#6e5e54" fill-rule="evenodd" stroke="none"/>
    <path d="M0.05 -2.05 Q0.1 -1.7 0.15 -1.7 L0.2 -1.65 0.3 -1.55 0.3 -1.2 0.2 -1.1 0.15 -1.05 -0.05 -0.9 -0.1 -0.95 -0.15 -1.1 Q-0.15 -1.2 -0.2 -1.25 -0.25 -1.15 -0.4 -1.1 -0.55 -1.05 -0.6 -1.15 -0.7 -1.2 -0.7 -1.3 L-0.7 -1.35 Q-0.7 -1.5 -0.75 -1.65 -0.85 -1.85 -0.85 -2.0 -0.85 -2.1 -0.7 -2.2 L-0.6 -2.25 Q-0.5 -2.25 -0.45 -2.15 -0.35 -2.1 -0.45 -1.95 -0.55 -1.8 -0.4 -1.65 L-0.4 -1.6 -0.3 -1.55 -0.2 -1.6 -0.15 -1.65 Q-0.1 -1.7 -0.1 -1.9 L-0.1 -2.0 Q-0.15 -2.25 -0.1 -2.3 L-0.05 -2.35 -0.05 -2.3 0.05 -2.05 0.05 -2.05" fill="#64564e" fill-rule="evenodd" stroke="none"/>
    <path d="M0.8 0.75 L0.75 0.65 0.75 0.45 0.85 0.2 0.85 0.0 0.8 -0.2 Q0.7 -0.65 0.75 -0.75 L0.8 -0.75 Q0.9 -0.9 1.05 -0.75 L1.1 -0.75 1.1 -0.7 Q1.0 -0.35 1.2 -0.05 L1.2 0.0 1.1 0.5 Q1.1 0.55 1.1 0.7 L1.1 0.9 Q1.05 1.3 0.95 1.45 L0.85 1.5 0.65 1.4 0.45 1.4 Q0.35 1.35 0.25 1.3 L0.2 1.2 Q0.15 1.1 0.25 1.05 0.35 0.9 0.5 1.0 0.6 1.1 0.75 0.95 L0.8 0.8 0.8 0.75" fill="#241b16" fill-rule="evenodd" stroke="none"/>
    <path d="M1.2 -0.05 Q1.0 -0.35 1.1 -0.7 L1.15 -0.75 1.2 -0.95 1.35 -0.85 1.5 -0.8 1.5 -0.75 1.65 -0.2 1.75 -0.15 1.8 -0.05 1.85 0.05 1.85 0.15 1.55 0.1 Q1.4 0.15 1.3 0.05 L1.2 -0.05 M2.45 3.75 L2.4 3.7 2.35 3.65 2.15 3.35 1.9 3.0 2.5 3.5 2.75 3.8 2.6 3.8 2.45 3.75" fill="#584b40" fill-rule="evenodd" stroke="none"/>
    <path d="M2.95 -1.75 L2.95 -1.85 Q2.95 -1.95 3.0 -2.0 L3.15 -1.95 3.25 -1.85 Q3.4 -1.7 3.35 -1.5 L3.35 -1.1 3.4 -0.85 3.45 -0.8 Q3.45 -0.65 3.4 -0.55 3.3 -0.6 3.25 -0.65 L3.15 -0.9 3.15 -0.95 3.1 -1.0 Q3.25 -1.15 3.05 -1.6 L2.95 -1.75" fill="#7f6e60" fill-rule="evenodd" stroke="none"/>
    <path d="M2.95 -1.75 L3.05 -1.6 Q3.25 -1.15 3.1 -1.0 L3.1 -0.95 3.05 -0.9 3.0 -0.95 3.0 -1.0 2.8 -1.45 Q2.7 -1.75 2.75 -1.95 L2.95 -1.75" fill="#322216" fill-rule="evenodd" stroke="none"/>
    <path d="M2.65 -1.2 L2.75 -1.2 2.8 -1.1 2.8 -1.0 Q2.85 -0.7 2.8 -0.65 L2.75 -0.6 2.55 -0.3 Q2.45 -0.1 2.55 0.0 L2.75 0.0 2.8 -0.2 2.9 -0.45 3.0 -0.5 3.1 -0.5 Q3.2 -0.45 3.15 -0.25 L3.05 0.0 2.95 0.25 2.95 0.4 3.0 0.5 3.15 0.55 3.25 0.55 3.25 0.7 3.2 0.9 Q3.1 0.95 3.0 0.85 L2.8 0.65 2.75 0.6 2.6 0.5 2.45 0.45 2.3 0.35 Q2.2 0.25 2.3 0.05 L2.4 -0.3 2.4 -0.45 2.45 -0.65 2.45 -0.7 2.6 -1.05 2.65 -1.15 2.65 -1.2" fill="#54463d" fill-rule="evenodd" stroke="none"/>
    <path d="M3.95 1.05 L3.8 0.9 3.65 0.8 Q3.55 0.75 3.5 0.45 3.45 0.15 3.5 0.0 L3.55 -0.2 3.55 -0.4 3.6 -0.55 3.7 -0.75 3.75 -0.85 3.85 -0.9 3.9 -0.85 4.0 -0.7 4.05 -0.6 4.05 -0.4 Q4.0 -0.1 4.05 -0.05 L4.15 0.05 4.35 0.15 Q4.4 0.25 4.35 0.35 4.4 0.45 4.3 0.6 L4.25 0.7 4.05 0.45 Q3.95 0.55 3.95 0.9 L3.95 1.05" fill="#b09175" fill-rule="evenodd" stroke="none"/>
    <path d="M5.1 -1.6 L5.15 -1.6 5.35 -1.7 5.5 -1.75 5.65 -1.75 5.8 -1.6 Q5.85 -1.55 6.05 -1.5 L6.2 -1.4 6.3 -1.3 6.3 -1.25 6.25 -1.2 6.15 -1.1 6.05 -1.05 6.0 -0.95 5.9 -0.85 5.3 -1.45 5.1 -1.6" fill="#caae8f" fill-rule="evenodd" stroke="none"/>
    <path d="M4.25 0.7 L4.3 0.6 Q4.4 0.45 4.35 0.35 4.4 0.25 4.35 0.15 L4.15 0.05 4.25 0.1 Q4.45 0.1 4.6 0.0 4.7 -0.1 4.7 -0.3 L4.65 -0.35 4.7 -0.4 Q4.7 -0.65 4.75 -0.8 4.8 -0.85 4.65 -1.2 L4.6 -1.4 Q4.6 -1.55 4.7 -1.65 L4.75 -1.7 4.8 -1.65 5.15 -1.3 Q5.3 -1.15 5.35 -1.0 L5.45 -0.65 5.5 -0.7 5.6 -0.65 5.65 -0.45 Q5.7 -0.25 5.75 -0.2 L5.85 -0.15 5.9 -0.15 5.75 -0.4 Q5.7 -0.6 5.75 -0.7 L5.85 -0.65 Q5.9 -0.55 6.05 -0.55 L6.3 -0.55 Q6.4 -0.6 6.55 -0.5 6.75 -0.25 6.75 -0.05 L6.7 0.15 6.55 0.3 6.5 0.35 Q6.4 0.45 6.3 0.5 L6.25 0.4 6.05 0.3 Q5.95 0.25 5.85 0.2 L5.75 0.05 5.7 -0.1 5.5 -0.35 Q5.25 -0.6 5.1 -0.65 5.0 -0.55 5.05 -0.35 L5.1 -0.2 5.15 -0.15 5.0 -0.05 4.95 0.6 4.85 0.7 4.85 0.85 4.9 1.05 Q4.9 1.15 4.8 1.25 L4.7 1.3 4.7 1.25 4.7 1.2 4.55 0.95 4.5 0.95 4.4 0.9 4.35 0.75 4.25 0.7" fill="#685440" fill-rule="evenodd" stroke="none"/>
    <path d="M6.3 0.5 L6.35 0.6 6.3 0.6 6.0 0.65 Q5.75 0.65 5.7 0.55 L5.5 0.3 5.25 -0.05 5.15 -0.15 5.1 -0.2 5.05 -0.35 Q5.0 -0.55 5.1 -0.65 5.25 -0.6 5.5 -0.35 L5.7 -0.1 5.75 0.05 5.85 0.2 Q5.95 0.25 6.05 0.3 L6.25 0.4 6.3 0.5" fill="#cdb58f" fill-rule="evenodd" stroke="none"/>
    <path d="M9.15 3.25 L9.15 3.4 9.4 4.95 9.1 4.55 8.6 4.2 Q8.55 4.1 8.3 4.1 8.1 4.1 8.0 4.15 L8.05 4.2 Q8.0 4.25 8.05 4.6 8.1 5.0 8.0 5.25 L7.55 3.95 Q7.35 3.2 7.25 2.7 L7.15 2.3 Q7.3 2.35 7.4 2.45 L7.65 2.95 7.85 3.35 Q7.95 3.5 8.15 3.55 L8.2 3.4 8.25 3.25 8.35 3.15 8.55 3.25 8.65 3.4 8.7 3.55 8.75 3.65 Q8.85 3.65 8.95 3.6 9.0 3.55 9.05 3.3 L9.05 3.25 Q9.1 3.25 9.1 3.25 L9.15 3.25" fill="#5e5046" fill-rule="evenodd" stroke="none"/>
    <path d="M8.15 4.3 L8.65 4.7 8.85 4.85 9.05 5.1 Q9.1 5.35 9.2 5.45 L9.4 5.75 9.4 5.95 9.4 6.2 9.25 6.05 Q9.15 5.95 9.0 6.0 L9.15 6.4 Q9.25 6.65 9.2 6.7 L9.1 6.75 Q9.0 6.8 8.95 6.8 L8.75 7.0 8.65 6.85 Q8.55 6.7 8.5 6.35 L8.4 5.9 8.25 5.4 Q8.2 5.1 8.25 5.05 8.3 5.0 8.4 4.9 8.3 4.85 8.2 4.65 8.15 4.5 8.1 4.35 L8.15 4.3" fill="#624b37" fill-rule="evenodd" stroke="none"/>
    <path d="M7.25 2.7 L7.25 3.15 7.45 3.65 Q7.55 4.0 7.45 4.15 L7.25 4.2 7.1 4.2 6.9 4.45 Q6.75 4.6 6.6 4.5 L6.6 4.45 6.6 4.3 6.55 4.15 6.45 4.0 Q6.4 3.9 6.4 3.8 L6.45 3.45 6.35 3.35 6.15 3.55 Q5.95 3.65 5.85 3.65 5.8 3.55 5.85 3.35 5.9 3.1 6.0 3.0 6.05 2.95 6.15 2.9 L6.3 2.8 6.4 2.5 Q6.45 2.2 6.45 2.2 6.5 2.15 6.55 2.15 L6.65 2.15 6.75 2.1 6.9 2.25 7.05 2.4 7.2 2.65 7.25 2.7 M7.1 2.95 Q7.05 2.8 6.9 2.65 L6.65 2.4 6.6 2.8 6.6 3.25 Q6.5 3.35 6.6 3.65 6.7 3.9 6.8 4.0 6.85 4.1 6.95 4.05 L7.15 3.9 Q7.35 3.75 7.3 3.55 L7.1 2.95" fill="#64503e" fill-rule="evenodd" stroke="none"/>
    <path d="M3.95 1.05 L3.95 0.9 Q3.95 0.55 4.05 0.45 L4.25 0.7 4.35 0.75 4.4 0.9 4.5 0.95 4.55 0.95 4.7 1.2 4.7 1.25 4.7 1.3 4.55 1.55 Q4.45 1.45 4.3 1.5 4.2 1.55 4.1 1.45 4.0 1.3 3.95 1.05" fill="#ae9276" fill-rule="evenodd" stroke="none"/>
    <path d="M4.55 2.35 L4.6 2.35 Q4.65 2.6 4.8 2.7 L5.05 2.9 Q5.2 3.05 5.3 3.5 L5.4 3.85 4.9 3.35 4.55 3.2 4.35 2.9 4.25 2.65 4.55 2.35" fill="#53453b" fill-rule="evenodd" stroke="none"/>
    <path d="M4.3 4.8 Q4.2 4.7 4.05 4.4 3.95 4.1 3.85 4.0 L3.7 3.75 3.5 3.45 3.5 3.2 3.55 3.3 4.0 3.65 4.6 5.05 4.6 5.0 4.3 4.8" fill="#786d61" fill-rule="evenodd" stroke="none"/>
    <path d="M7.1 2.95 L7.3 3.55 Q7.35 3.75 7.15 3.9 L6.95 4.05 Q6.85 4.1 6.8 4.0 6.7 3.9 6.6 3.65 6.5 3.35 6.6 3.25 L6.6 2.8 6.65 2.4 6.9 2.65 Q7.05 2.8 7.1 2.95" fill="#9c8466" fill-rule="evenodd" stroke="none"/>
    <path d="M0.8 0.75 L0.8 0.8 0.75 0.95 Q0.6 1.1 0.5 1.0 0.35 0.9 0.25 1.05 0.15 1.1 0.2 1.2 0.05 1.2 0.0 1.1 L-0.1 0.95 -0.1 0.8 0.05 0.65 0.3 0.9 0.35 0.75 0.4 0.65 0.55 0.65 Q0.7 0.7 0.75 0.7 L0.8 0.75" fill="#74685d" fill-rule="evenodd" stroke="none"/>
    <path d="M1.9 4.6 Q1.6 4.25 1.5 4.0 L1.3 3.6 1.15 3.4 1.1 3.3 Q1.15 3.25 1.25 3.35 L1.3 3.45 1.45 3.6 1.65 3.8 1.8 4.0 1.95 4.2 2.05 4.4 Q2.2 4.5 2.15 4.65 L2.2 4.75 2.15 4.7 2.0 4.55 1.95 4.6 1.9 4.6" fill="#5c5045" fill-rule="evenodd" stroke="none"/>
    <path d="M-0.35 3.25 L-0.35 3.2 Q-0.35 3.1 -0.4 3.05 L-0.45 3.0 -0.4 2.95 -0.35 2.75 -0.3 2.65 Q-0.25 2.55 0.15 2.7 0.2 2.8 0.2 2.95 L0.1 3.2 -0.05 3.3 -0.2 3.3 -0.25 3.3 -0.35 3.25" fill="#2a1f19" fill-rule="evenodd" stroke="none"/>
    <path d="M0.8 4.85 L0.75 4.7 Q0.5 4.25 0.4 3.95 L0.5 4.0 0.75 4.3 Q0.85 4.5 0.95 4.6 L1.1 4.8 1.15 4.8 1.1 4.8 1.05 4.9 0.95 4.95 0.8 4.85" fill="#605348" fill-rule="evenodd" stroke="none"/>
    <path d="M0.8 4.85 L0.95 4.95 1.05 4.9 1.1 4.8 1.15 4.8 1.3 5.0 1.4 5.1 Q1.45 5.15 1.45 5.3 L1.5 5.7 1.5 5.75 1.35 5.55 1.25 5.45 1.15 5.4 Q1.0 5.25 0.8 4.85" fill="#a6917b" fill-rule="evenodd" stroke="none"/>
    <path d="M1.9 4.6 L1.95 4.6 2.0 4.55 2.15 4.7 2.2 4.75 2.2 4.8 2.3 5.1 2.45 5.4 2.5 5.5 2.45 5.6 2.35 5.6 Q2.25 5.6 2.15 5.5 2.1 5.4 2.0 5.15 L1.95 4.85 1.95 4.75 1.9 4.65 1.9 4.6" fill="#7d6f61" fill-rule="evenodd" stroke="none"/>
    <path d="M2.45 3.75 L2.6 3.8 2.75 3.8 2.85 4.1 3.25 5.25 3.25 5.2 2.9 4.7 2.55 4.2 2.5 4.05 2.5 3.9 2.45 3.75" fill="#6d6254" fill-rule="evenodd" stroke="none"/>
    <path d="M2.3 7.15 L2.15 7.0 2.1 6.85 2.05 6.7 2.0 6.65 1.8 6.3 1.55 6.15 1.45 6.05 Q1.4 5.95 1.45 5.9 L1.55 5.95 1.6 5.95 1.75 6.0 1.65 5.8 1.65 5.7 1.7 5.65 1.7 5.7 1.75 5.75 1.85 5.9 1.95 6.1 2.2 6.7 Q2.35 7.1 2.3 7.15" fill="#56493f" fill-rule="evenodd" stroke="none"/>
    <path d="M0.6 5.3 L0.7 5.45 0.8 5.6 0.85 5.7 Q1.1 6.2 1.0 6.25 L0.9 6.2 0.75 6.0 0.6 5.65 0.4 5.45 Q0.25 5.25 0.3 5.15 L0.6 5.3" fill="#564a44" fill-rule="evenodd" stroke="none"/>
    <path d="M7.05 8.85 L6.9 9.3 6.7 9.9 6.6 10.15 6.5 10.3 6.4 10.45 6.35 10.95 6.45 11.25 6.5 11.45 6.4 11.55 6.3 11.75 6.2 12.0 6.05 12.1 Q5.9 12.1 5.9 12.15 L5.8 12.3 5.65 12.5 5.5 12.55 Q5.45 12.5 5.5 12.35 L5.5 12.2 5.35 12.15 Q5.25 12.2 5.2 12.1 L5.15 11.9 5.1 11.65 4.95 11.65 Q4.95 11.65 4.9 11.7 L4.75 11.95 4.65 12.2 4.6 12.2 4.55 11.95 4.55 11.7 Q4.55 11.5 4.45 11.4 4.3 11.3 4.25 11.15 4.2 11.05 4.2 10.8 L4.25 10.45 4.15 10.15 Q4.1 10.0 4.15 9.9 L4.4 9.25 Q4.55 8.9 4.6 8.55 L4.75 8.85 4.8 9.1 4.85 9.25 4.85 9.3 4.85 9.35 4.7 9.65 4.55 9.7 Q4.5 9.7 4.45 9.7 4.4 9.8 4.45 10.0 L4.6 10.35 4.75 10.5 Q4.85 10.7 4.85 10.8 L4.95 11.1 5.05 11.25 5.1 11.35 5.1 11.5 Q5.15 11.65 5.15 11.7 L5.2 11.7 5.2 9.5 5.3 9.65 5.35 9.8 5.35 9.95 5.4 10.05 5.5 10.35 5.6 10.55 5.6 10.6 5.65 9.45 5.6 8.7 5.65 8.75 5.7 8.3 Q5.65 8.05 5.8 7.7 L5.85 7.45 5.85 7.1 5.9 6.65 Q5.9 6.4 6.0 6.3 6.05 6.3 6.2 6.2 L6.25 6.15 6.3 6.15 Q6.7 6.35 6.8 6.45 L6.9 6.6 Q7.0 6.75 7.0 6.95 L6.95 7.15 6.95 7.4 6.9 7.55 Q6.9 7.65 6.9 7.75 L7.05 8.15 7.1 8.45 7.05 8.75 7.05 8.85 M6.25 7.05 L6.15 6.9 6.15 7.05 6.05 7.4 Q6.05 7.55 6.05 7.7 L6.1 8.0 6.0 8.5 Q5.9 8.85 5.95 9.0 L6.05 9.2 6.15 9.5 6.1 10.1 6.1 10.4 6.05 10.75 Q6.0 11.15 5.95 11.2 L6.0 11.25 6.1 11.15 6.15 10.75 6.2 10.65 6.3 10.15 Q6.35 10.0 6.5 9.75 L6.65 9.4 Q6.7 9.1 6.85 8.75 6.9 8.55 6.85 8.3 L6.8 8.1 6.8 8.05 6.7 7.8 6.6 7.6 6.55 7.35 6.25 7.05" fill="#7f6e63" fill-rule="evenodd" stroke="none"/>
    <path d="M6.25 7.05 L6.55 7.35 6.6 7.6 6.7 7.8 6.8 8.05 6.8 8.1 6.85 8.3 Q6.9 8.55 6.85 8.75 6.7 9.1 6.65 9.4 L6.5 9.75 Q6.35 10.0 6.3 10.15 L6.2 10.65 6.15 10.75 6.1 11.15 6.0 11.25 5.95 11.2 Q6.0 11.15 6.05 10.75 L6.1 10.4 6.1 10.1 6.15 9.5 6.05 9.2 5.95 9.0 Q5.9 8.85 6.0 8.5 L6.1 8.0 6.05 7.7 Q6.05 7.55 6.05 7.4 L6.15 7.05 6.15 6.9 6.25 7.05" fill="#dbc7aa" fill-rule="evenodd" stroke="none"/>
    <path d="M4.6 8.55 L4.6 8.5 Q4.6 8.2 4.65 8.1 L4.8 7.9 4.9 7.75 5.0 7.55 5.05 7.3 Q5.05 7.15 5.1 7.15 5.25 7.35 5.25 7.6 L5.4 8.1 5.55 8.5 5.6 8.7 5.65 9.45 5.6 10.6 5.6 10.55 5.5 10.35 5.4 10.05 5.35 9.95 5.35 9.8 5.3 9.65 5.2 9.5 5.2 9.3 Q5.25 8.85 5.1 8.7 L4.95 8.5 4.9 8.55 Q4.85 8.65 4.85 8.75 L4.9 8.95 4.85 9.3 4.85 9.25 4.8 9.1 4.75 8.85 4.6 8.55" fill="#5f5148" fill-rule="evenodd" stroke="none"/>
    <path d="M4.85 9.3 L4.9 8.95 4.85 8.75 Q4.85 8.65 4.9 8.55 L4.95 8.5 5.1 8.7 Q5.25 8.85 5.2 9.3 L5.2 9.5 5.2 11.7 5.15 11.7 Q5.15 11.65 5.1 11.5 L5.1 11.35 5.05 11.25 4.95 11.1 4.85 10.8 Q4.85 10.7 4.75 10.5 L4.6 10.35 4.45 10.0 Q4.4 9.8 4.45 9.7 4.5 9.7 4.55 9.7 L4.7 9.65 4.85 9.35 4.85 9.3" fill="#bda79b" fill-rule="evenodd" stroke="none"/>
    <path d="M-5.65 -12.8 L-5.6 -12.85 -5.1 -13.2 -4.85 -13.3 -4.8 -13.3 Q-4.7 -13.2 -4.75 -12.95 -4.85 -12.7 -4.8 -12.65 -4.65 -12.55 -4.6 -12.65 L-4.45 -12.8 -4.4 -12.7 Q-4.35 -12.65 -4.3 -12.65 L-4.25 -12.65 Q-4.1 -12.65 -4.05 -12.6 L-3.9 -12.3 Q-3.85 -12.1 -3.85 -12.1 L-4.05 -12.05 -4.25 -12.0 -4.25 -11.95 -4.3 -11.8 -4.35 -11.65 -4.4 -11.55 Q-4.45 -11.5 -4.6 -11.55 L-4.65 -11.55 -4.75 -11.6 -4.75 -11.7 -4.8 -11.75 -4.8 -11.9 -4.75 -12.05 Q-4.7 -12.15 -4.7 -12.2 L-4.95 -12.45 -5.2 -12.15 -5.2 -12.15 -5.3 -12.0 -5.65 -11.9 -5.7 -11.85 -5.7 -11.85 -5.75 -11.65 -5.8 -11.8 -5.75 -11.9 Q-5.75 -12.1 -5.65 -12.2 L-5.5 -12.25 -5.35 -12.35 -5.3 -12.45 -5.3 -12.5 -5.45 -12.55 -5.6 -12.65 -5.65 -12.8" fill="#756761" fill-rule="evenodd" stroke="none"/>
    <path d="M-8.95 -3.95 L-8.6 -4.35 -8.45 -4.6 Q-7.95 -5.2 -7.8 -5.85 L-7.75 -5.95 -7.35 -8.15 -7.25 -8.6 -7.05 -9.65 -6.9 -10.5 -6.7 -11.25 -6.6 -11.6 Q-6.5 -11.8 -6.2 -12.2 L-6.15 -12.25 -5.65 -12.8 -5.6 -12.65 -5.45 -12.55 -5.3 -12.5 -5.3 -12.45 -5.35 -12.35 -5.5 -12.25 -5.65 -12.2 Q-5.75 -12.1 -5.75 -11.9 L-5.8 -11.8 -5.75 -11.65 -5.7 -11.85 -5.7 -11.85 -5.65 -11.9 -5.3 -12.0 -5.2 -12.15 -5.2 -12.15 -4.95 -12.45 -4.7 -12.2 Q-4.7 -12.15 -4.75 -12.05 L-4.8 -11.9 -4.8 -11.75 -4.75 -11.7 -4.75 -11.6 -4.85 -11.5 -4.95 -11.45 -4.95 -11.45 -5.0 -11.45 -5.1 -11.55 -5.25 -11.55 -5.5 -11.35 Q-5.65 -11.55 -5.75 -11.6 L-5.85 -11.45 -5.9 -11.25 -6.0 -10.8 Q-6.0 -10.6 -6.05 -10.55 L-6.2 -10.45 -6.35 -10.05 Q-6.4 -9.65 -6.55 -9.5 L-6.75 -9.3 Q-6.85 -9.2 -6.8 -9.0 L-6.8 -9.0 Q-6.75 -8.8 -6.75 -8.7 L-6.8 -8.6 -6.8 -8.5 -7.0 -8.0 Q-7.05 -7.75 -7.05 -7.35 L-7.05 -6.85 Q-7.0 -6.8 -7.05 -6.65 L-7.2 -6.35 Q-7.55 -5.75 -7.75 -4.8 L-7.75 -4.75 -7.8 -4.4 Q-7.85 -4.1 -8.1 -3.95 L-8.25 -3.8 -8.4 -3.65 -8.5 -3.55 -8.6 -3.4 -8.75 -3.3 Q-8.8 -3.25 -8.9 -3.35 -8.95 -3.4 -8.95 -3.8 L-8.95 -3.95 M-4.6 -13.4 Q-4.35 -13.5 -4.0 -13.55 L-3.7 -13.55 -3.8 -13.45 -3.9 -13.35 -4.0 -13.3 -4.0 -13.2 Q-4.0 -13.15 -4.0 -13.1 L-4.1 -13.1 -4.1 -13.2 -4.25 -13.2 -4.45 -13.25 -4.6 -13.4 M-2.7 -13.25 L-2.3 -13.05 -2.3 -13.1 -2.4 -12.9 -2.45 -12.8 -2.6 -12.9 -2.6 -12.9 Q-2.9 -13.05 -2.95 -13.0 L-3.05 -12.65 Q-3.15 -12.6 -3.25 -12.55 L-3.5 -12.55 -3.55 -12.65 Q-3.5 -12.75 -3.5 -12.85 L-3.55 -12.85 -3.55 -12.85 -3.65 -12.8 -3.75 -12.55 Q-3.75 -12.4 -3.8 -12.35 L-3.9 -12.3 -4.05 -12.6 Q-4.1 -12.65 -4.25 -12.65 L-4.3 -12.65 Q-4.35 -12.65 -4.4 -12.7 L-4.4 -12.95 -4.4 -12.95 -4.1 -13.1 -4.1 -13.0 Q-4.1 -12.9 -4.05 -12.8 L-4.0 -12.8 -3.9 -12.75 Q-3.85 -12.75 -3.8 -12.8 L-3.6 -13.05 -3.55 -13.1 -3.4 -13.2 -3.2 -13.4 -2.85 -13.25 -2.7 -13.25 M-5.75 -11.65 L-5.8 -11.65 -5.75 -11.65 -5.75 -11.65 M-5.5 -11.8 L-5.6 -11.75 -5.65 -11.7 -5.5 -11.75 -5.5 -11.8" fill="#5d544d" fill-rule="evenodd" stroke="none"/>
    <path d="M-4.85 -13.3 L-4.65 -13.4 -4.6 -13.4 -4.45 -13.25 -4.25 -13.2 -4.1 -13.2 -4.1 -13.1 -4.4 -12.95 -4.4 -12.95 -4.4 -12.7 -4.45 -12.8 -4.6 -12.65 Q-4.65 -12.55 -4.8 -12.65 -4.85 -12.7 -4.75 -12.95 -4.7 -13.2 -4.8 -13.3 L-4.85 -13.3" fill="#403835" fill-rule="evenodd" stroke="none"/>
    <path d="M-3.7 -13.55 L-3.5 -13.55 -2.7 -13.25 -2.85 -13.25 -3.2 -13.4 -3.4 -13.2 -3.55 -13.1 -3.6 -13.05 -3.8 -12.8 Q-3.85 -12.75 -3.9 -12.75 L-4.0 -12.8 -4.05 -12.8 Q-4.1 -12.9 -4.1 -13.0 L-4.1 -13.1 -4.0 -13.1 Q-4.0 -13.15 -4.0 -13.2 L-4.0 -13.3 -3.9 -13.35 -3.8 -13.45 -3.7 -13.55" fill="#aea394" fill-rule="evenodd" stroke="none"/>
    <path d="M-2.0 -12.95 L-1.8 -12.9 -1.85 -12.75 -1.85 -12.55 -1.8 -12.4 -1.7 -12.3 Q-1.65 -12.25 -1.65 -12.2 L-1.85 -12.1 -2.15 -11.85 -2.2 -11.95 -2.15 -12.25 -2.15 -12.5 -2.15 -12.7 -2.05 -12.9 -2.0 -12.95" fill="#66554d" fill-rule="evenodd" stroke="none"/>
    <path d="M-1.8 -12.9 L-1.55 -12.8 -1.55 -12.8 -0.95 -12.65 -0.95 -12.65 -0.9 -12.6 -0.85 -12.6 -0.9 -12.4 -1.15 -12.35 -1.2 -12.25 -1.3 -12.25 -1.65 -12.2 Q-1.65 -12.25 -1.7 -12.3 L-1.8 -12.4 -1.85 -12.55 -1.85 -12.75 -1.8 -12.9" fill="#8a7c6f" fill-rule="evenodd" stroke="none"/>
    <path d="M-2.3 -13.1 Q-2.15 -13.0 -2.0 -12.95 L-2.05 -12.9 -2.15 -12.7 -2.15 -12.5 -2.15 -12.25 -2.2 -11.95 -2.15 -11.85 -2.25 -11.8 -2.6 -11.8 Q-2.7 -11.85 -2.9 -11.7 L-2.95 -11.7 -3.15 -11.6 -3.35 -11.6 -3.45 -11.6 -3.55 -11.55 -3.7 -11.25 -3.85 -11.25 -3.85 -11.3 -3.8 -11.35 -3.65 -11.5 -3.55 -11.65 -3.5 -11.8 -3.35 -11.85 -3.15 -11.95 -3.1 -12.0 -3.05 -12.1 -2.95 -12.15 Q-2.85 -12.15 -2.8 -12.2 -2.6 -12.4 -2.45 -12.8 L-2.4 -12.9 -2.3 -13.1" fill="#8e8173" fill-rule="evenodd" stroke="none"/>
    <path d="M-7.3 -1.15 L-7.25 -1.25 Q-7.1 -1.4 -7.15 -1.45 L-7.25 -1.6 Q-7.25 -1.7 -7.2 -1.8 L-7.1 -1.95 Q-7.05 -2.05 -7.1 -2.15 L-7.2 -2.35 -7.3 -2.4 -7.4 -2.3 -7.6 -2.05 Q-7.6 -2.0 -7.7 -1.95 L-7.8 -2.0 -7.8 -2.1 -7.75 -2.2 -7.8 -2.35 Q-7.8 -2.45 -7.85 -2.5 -7.9 -2.55 -8.0 -2.4 L-8.3 -2.1 -8.45 -2.25 -8.45 -2.25 -8.6 -2.3 -8.45 -2.45 -8.35 -2.55 -8.25 -2.7 -8.1 -3.05 Q-8.05 -3.2 -8.0 -3.3 L-7.85 -3.35 -7.75 -3.45 -7.55 -3.75 -7.4 -4.05 -7.25 -4.15 -7.1 -4.35 Q-7.05 -4.4 -7.0 -4.65 L-6.8 -5.3 -6.75 -5.35 -6.95 -5.45 -7.0 -5.55 -7.0 -5.55 -6.95 -5.6 -6.8 -5.75 -6.7 -5.7 -6.4 -5.75 -6.15 -5.8 Q-6.1 -5.75 -6.1 -5.65 L-6.15 -5.6 -6.2 -5.45 -6.3 -5.3 Q-6.3 -5.0 -6.4 -4.85 L-6.5 -4.6 Q-6.55 -4.5 -6.5 -4.45 L-6.35 -4.35 -6.35 -4.35 -6.2 -4.25 -6.0 -4.45 Q-5.9 -4.55 -5.8 -4.7 -5.75 -4.65 -5.55 -4.6 L-5.35 -4.55 Q-5.3 -4.5 -5.3 -4.25 -5.3 -4.0 -5.4 -3.9 -5.5 -3.8 -5.6 -3.95 -5.75 -4.1 -5.85 -4.1 L-5.95 -4.0 -6.1 -3.9 -6.25 -3.95 -6.35 -3.9 -6.4 -3.8 Q-6.45 -3.7 -6.35 -3.65 L-6.25 -3.65 -6.1 -3.65 -6.0 -3.55 Q-6.0 -3.45 -6.05 -3.4 L-6.2 -3.4 -6.4 -3.5 Q-6.45 -3.5 -6.6 -3.4 L-6.8 -3.3 -6.55 -3.0 -6.35 -2.75 Q-6.3 -2.7 -6.2 -2.7 L-6.1 -2.75 -6.1 -2.65 -6.0 -2.55 Q-5.95 -2.55 -5.75 -2.75 -5.65 -2.8 -5.6 -2.8 L-5.5 -2.75 Q-5.4 -2.65 -5.5 -2.5 L-5.7 -2.15 -6.35 -2.25 -6.2 -2.05 -6.0 -1.75 Q-5.95 -1.7 -5.9 -1.7 L-5.7 -1.65 -5.5 -1.7 -5.4 -1.65 Q-5.05 -1.25 -5.35 -1.0 L-5.45 -0.9 -5.6 -1.0 Q-5.65 -1.1 -5.65 -1.2 L-5.7 -1.3 -6.3 -1.6 -6.35 -1.35 Q-6.35 -1.2 -6.4 -1.15 L-6.6 -1.15 Q-6.65 -1.15 -6.75 -1.05 -6.8 -0.95 -7.0 -0.9 L-7.1 -0.9 Q-7.2 -0.85 -7.25 -0.95 L-7.3 -1.05 -7.3 -1.15 M-3.85 -5.6 L-3.7 -5.25 -3.65 -4.9 -3.75 -4.85 -3.85 -4.9 Q-4.0 -5.0 -4.05 -5.2 L-4.0 -5.5 Q-4.0 -5.8 -4.2 -6.15 -4.1 -6.2 -4.05 -6.15 L-3.95 -5.85 -3.85 -5.6 M-5.05 -6.25 L-5.0 -6.2 -4.95 -6.1 Q-4.85 -6.0 -4.75 -6.0 L-4.65 -5.95 -4.45 -5.9 -4.4 -5.8 -4.35 -5.65 -4.45 -5.45 -4.45 -5.1 Q-4.8 -5.2 -4.85 -5.25 L-5.25 -5.65 -5.2 -5.65 -5.15 -5.7 Q-5.1 -5.75 -5.1 -5.85 L-5.2 -5.95 Q-5.2 -5.95 -5.35 -6.0 L-5.5 -5.95 -5.55 -5.8 -5.6 -5.8 -5.65 -5.8 -5.7 -5.9 -5.7 -6.1 -5.65 -6.2 -5.35 -6.3 -5.1 -6.35 -5.05 -6.3 -5.05 -6.25 M-5.7 -5.25 L-5.65 -5.3 -5.55 -5.15 -5.3 -5.0 -5.05 -4.95 -5.05 -4.85 Q-5.05 -4.7 -5.15 -4.55 L-5.4 -4.75 -5.6 -4.95 -5.7 -5.0 -5.75 -5.1 Q-5.75 -5.15 -5.7 -5.25" fill="#1f1a18" fill-rule="evenodd" stroke="none"/>
    <path d="M-1.8 -8.6 L-1.8 -8.6 -1.5 -8.25 -1.5 -8.15 -1.55 -7.95 Q-1.6 -7.85 -1.75 -7.6 L-1.9 -7.4 -2.05 -7.2 Q-2.1 -7.15 -2.15 -7.15 L-2.25 -7.25 -2.35 -7.4 -2.35 -7.55 -2.15 -7.6 Q-2.05 -7.7 -2.05 -7.8 L-2.0 -7.95 -1.95 -8.0 Q-1.9 -8.15 -1.95 -8.2 L-2.0 -8.3 -2.0 -8.4 -1.85 -8.55 -1.8 -8.6" fill="#5d534d" fill-rule="evenodd" stroke="none"/>
    <path d="M-3.7 -7.8 L-3.45 -7.75 -3.15 -7.6 -3.15 -7.6 -3.05 -7.45 -3.0 -7.35 -2.95 -7.25 -2.8 -7.1 Q-2.95 -6.95 -3.05 -6.95 -3.15 -6.9 -3.2 -7.0 L-3.4 -7.3 -3.55 -7.35 -3.75 -7.35 -3.75 -7.55 Q-3.75 -7.75 -3.7 -7.8 M-2.65 -6.6 L-2.65 -6.75 -2.45 -6.65 Q-2.15 -6.55 -2.05 -6.45 L-1.9 -6.25 -1.75 -5.9 Q-1.7 -5.8 -1.7 -5.65 -1.7 -5.45 -1.8 -5.35 -1.85 -5.3 -1.95 -5.3 -2.1 -5.3 -2.15 -5.35 -2.2 -5.4 -2.2 -5.65 -2.2 -5.9 -2.25 -6.0 -2.3 -6.2 -2.5 -6.35 -2.6 -6.45 -2.65 -6.6 M-1.6 -6.35 L-1.35 -6.3 Q-1.15 -6.2 -0.9 -6.2 L-0.9 -6.05 -0.95 -5.9 -1.05 -5.8 -1.25 -5.8 Q-1.4 -5.9 -1.55 -6.05 -1.75 -6.2 -1.6 -6.35" fill="#251c1b" fill-rule="evenodd" stroke="none"/>
    <path d="M-3.9 -6.9 L-3.8 -6.95 -3.75 -6.95 Q-3.7 -6.9 -3.7 -6.8 -3.7 -6.7 -3.85 -6.6 L-3.9 -6.5 Q-3.95 -6.5 -4.05 -6.45 L-4.25 -6.45 -4.3 -6.5 -4.35 -6.5 -4.35 -6.55 Q-4.3 -6.6 -4.2 -6.6 -4.1 -6.65 -4.05 -6.7 L-3.9 -6.9" fill="#524642" fill-rule="evenodd" stroke="none"/>
    <path d="M-2.4 -5.05 L-2.3 -5.0 -2.2 -5.0 -1.85 -4.85 -1.75 -4.75 -1.55 -4.6 -1.65 -4.35 Q-1.7 -4.15 -1.85 -4.05 -2.1 -3.75 -2.3 -3.9 -2.1 -4.0 -2.15 -4.1 -2.25 -4.25 -2.15 -4.3 L-2.05 -4.35 -2.0 -4.4 -1.95 -4.5 -1.95 -4.55 -2.0 -4.55 -2.05 -4.6 -2.15 -4.65 -2.15 -4.7 -2.45 -4.6 -2.65 -4.65 -2.7 -4.75 -2.7 -4.9 -2.4 -5.05" fill="#574c49" fill-rule="evenodd" stroke="none"/>
    <path d="M-0.5 -7.15 L-0.25 -7.1 -0.05 -7.0 Q0.05 -6.85 -0.15 -6.65 L-0.45 -6.5 Q-0.6 -6.45 -0.7 -6.5 L-0.7 -6.65 Q-0.65 -6.75 -0.65 -6.85 L-0.75 -7.1 Q-0.65 -7.2 -0.5 -7.15" fill="#867968" fill-rule="evenodd" stroke="none"/>
    <path d="M-5.6 -2.8 Q-5.65 -2.8 -5.75 -2.75 -5.95 -2.55 -6.0 -2.55 L-6.1 -2.65 -6.1 -2.75 -6.15 -3.0 -6.0 -3.25 Q-5.95 -3.35 -5.8 -3.3 L-5.65 -3.2 Q-5.55 -3.15 -5.55 -2.9 L-5.6 -2.8" fill="#4e4947" fill-rule="evenodd" stroke="none"/>
    <path d="M-3.9 -2.2 L-3.95 -2.2 -4.05 -2.05 -4.2 -2.0 Q-4.3 -2.0 -4.4 -2.1 L-4.65 -2.3 -4.7 -2.25 Q-4.65 -2.2 -4.75 -2.05 L-4.95 -1.8 Q-5.0 -1.75 -5.05 -1.75 -5.1 -1.75 -5.15 -1.8 L-5.15 -2.1 -5.05 -2.5 -4.9 -2.5 -4.5 -2.6 -4.25 -2.6 Q-4.15 -2.6 -4.05 -2.7 L-3.75 -2.8 Q-3.95 -2.6 -3.95 -2.3 L-3.9 -2.2" fill="#5c4e46" fill-rule="evenodd" stroke="none"/>
    <path d="M-4.2 -0.2 L-4.35 -0.15 -4.5 -0.1 -4.65 -0.1 Q-4.7 -0.15 -4.65 -0.3 -4.6 -0.4 -4.7 -0.5 L-4.8 -0.5 Q-4.85 -0.5 -4.9 -0.55 -5.0 -0.65 -4.95 -0.8 L-4.9 -0.95 -4.8 -1.0 -4.8 -0.95 -4.75 -0.9 -4.65 -0.85 Q-4.55 -0.85 -4.5 -0.9 L-4.45 -1.0 -4.4 -1.15 -4.45 -1.4 -4.45 -1.65 -4.2 -1.7 -4.0 -1.55 -3.95 -1.4 Q-3.9 -1.3 -3.95 -1.25 L-4.05 -0.95 Q-4.05 -0.8 -4.0 -0.75 L-3.8 -0.75 -3.75 -0.7 -3.65 -0.65 -3.25 -1.05 -3.05 -0.8 Q-3.0 -0.65 -3.05 -0.55 L-3.1 -0.5 -3.3 -0.6 -3.3 -0.4 Q-3.45 -0.3 -3.6 -0.3 L-3.9 -0.2 -4.05 -0.25 -4.1 -0.25 -4.15 -0.25 -4.2 -0.2 M-4.95 -0.3 L-4.75 0.2 -4.75 0.3 -4.65 0.4 -4.65 0.65 -4.7 0.85 -4.7 1.1 Q-4.7 1.25 -4.75 1.35 L-4.75 1.45 -4.8 1.55 -4.95 1.7 Q-5.05 1.75 -5.1 1.75 L-5.15 1.7 Q-5.25 1.6 -5.05 1.4 -4.85 1.15 -5.0 1.0 L-5.1 1.0 -5.25 1.0 -5.2 0.85 -5.1 0.65 -5.0 0.6 -4.95 0.55 Q-4.9 0.5 -4.95 0.4 L-5.0 0.25 -5.05 0.15 Q-5.15 -0.05 -5.1 -0.15 L-4.95 -0.3" fill="#231d19" fill-rule="evenodd" stroke="none"/>
    <path d="M-4.2 -0.2 L-4.15 -0.25 -4.1 -0.25 -3.95 -0.15 -3.8 -0.1 Q-3.4 0.1 -3.35 0.15 L-3.3 0.2 -3.55 0.1 Q-3.6 0.05 -3.65 0.1 L-3.75 0.15 -3.85 0.25 -3.85 0.25 -4.0 0.15 -4.1 0.0 -4.15 -0.05 -4.2 -0.2" fill="#625545" fill-rule="evenodd" stroke="none"/>
    <path d="M-2.4 -2.1 Q-2.45 -1.95 -2.4 -1.95 -2.35 -1.85 -2.2 -1.9 L-2.1 -1.9 -1.9 -1.95 -2.0 -1.6 -2.1 -1.45 Q-2.25 -1.3 -2.55 -1.55 -2.75 -1.75 -2.9 -1.75 -3.05 -1.8 -3.15 -1.9 L-3.3 -2.0 Q-3.35 -2.1 -3.3 -2.15 L-3.2 -2.2 Q-3.15 -2.25 -3.15 -2.35 L-3.15 -2.55 -3.1 -2.7 -3.05 -2.75 -3.0 -2.7 -2.9 -2.55 -2.9 -2.5 -3.05 -2.35 Q-3.2 -2.1 -3.1 -2.05 -3.05 -1.95 -2.9 -1.95 -2.75 -1.95 -2.7 -2.0 L-2.65 -2.2 -2.65 -2.25 -2.6 -2.2 -2.4 -2.1" fill="#5e4e40" fill-rule="evenodd" stroke="none"/>
    <path d="M-3.9 -2.2 L-3.95 -2.3 Q-3.95 -2.6 -3.75 -2.8 L-3.75 -2.8 -3.45 -2.85 -3.5 -2.6 -3.6 -2.35 -3.75 -2.3 -3.9 -2.2" fill="#877467" fill-rule="evenodd" stroke="none"/>
    <path d="M-2.4 -2.1 L-2.6 -2.2 -2.65 -2.25 -2.65 -2.2 -2.7 -2.0 Q-2.75 -1.95 -2.9 -1.95 -3.05 -1.95 -3.1 -2.05 -3.2 -2.1 -3.05 -2.35 L-2.9 -2.5 -2.7 -2.45 -2.65 -2.4 -2.7 -2.4 Q-2.7 -2.35 -2.65 -2.25 L-2.6 -2.4 Q-2.5 -2.4 -2.45 -2.45 L-2.4 -2.55 -2.4 -2.55 -2.3 -2.65 Q-2.2 -2.75 -2.15 -2.75 L-2.0 -2.65 -2.05 -2.5 Q-2.05 -2.4 -2.1 -2.4 L-2.2 -2.35 -2.25 -2.3 -2.3 -2.25 -2.4 -2.1" fill="#ac9d8c" fill-rule="evenodd" stroke="none"/>
    <path d="M-3.3 -0.4 L-3.3 -0.6 -3.1 -0.5 -3.1 -0.5 -3.0 -0.3 -3.0 -0.15 -3.05 0.0 -3.1 -0.05 -3.2 -0.1 -3.3 -0.25 -3.3 -0.4" fill="#4d433d" fill-rule="evenodd" stroke="none"/>
    <path d="M-2.75 -0.35 L-2.6 -0.4 -2.5 -0.5 -2.5 -0.4 -2.45 -0.3 -2.4 -0.15 -2.45 -0.05 Q-2.5 0.15 -2.6 0.25 L-2.7 0.3 -2.75 0.3 -2.85 0.0 Q-2.9 -0.25 -2.8 -0.35 L-2.75 -0.35" fill="#b1a290" fill-rule="evenodd" stroke="none"/>
    <path d="M-1.1 -0.65 L-1.1 -0.6 -0.95 -0.4 -1.15 -0.4 -1.35 -0.5 -1.4 -0.05 -1.45 0.0 -1.7 -0.15 -1.75 -0.25 -1.8 -0.3 Q-1.85 -0.45 -1.85 -0.55 L-1.8 -0.55 -1.65 -0.6 -1.65 -0.6 Q-1.55 -0.65 -1.65 -0.75 L-1.75 -0.95 -1.8 -1.0 -1.8 -1.05 Q-1.8 -1.15 -1.75 -1.2 L-1.65 -1.25 -1.15 -0.75 -1.1 -0.65" fill="#231c1a" fill-rule="evenodd" stroke="none"/>
    <path d="M-1.1 -0.65 L-1.05 -0.65 -1.0 -0.6 -0.9 -0.6 -0.9 -0.6 -0.65 -0.6 Q-0.55 -0.55 -0.4 -0.45 L-0.2 -0.2 -0.25 -0.15 -0.5 -0.15 Q-0.75 -0.2 -0.9 -0.35 L-0.95 -0.4 -1.1 -0.6 -1.1 -0.65" fill="#554d45" fill-rule="evenodd" stroke="none"/>
    <path d="M-1.0 0.6 L-0.95 0.45 -0.9 0.45 Q-0.85 0.35 -0.7 0.4 -0.6 0.4 -0.5 0.5 -0.4 0.65 -0.35 0.8 L-0.45 0.8 -0.65 0.8 Q-0.85 0.7 -0.95 0.6 L-0.95 0.6 -1.0 0.6" fill="#64574f" fill-rule="evenodd" stroke="none"/>
    <path d="M-1.0 0.6 L-0.95 0.6 -0.95 0.6 Q-0.85 0.7 -0.65 0.8 L-0.45 0.8 Q-0.25 1.1 -0.35 1.2 -0.45 1.3 -0.55 1.2 L-0.9 1.0 -1.15 0.8 -1.15 0.8 -1.2 0.75 -1.35 0.6 Q-1.45 0.45 -1.4 0.35 L-1.35 0.35 -1.1 0.45 -1.1 0.45 -1.0 0.6" fill="#271d17" fill-rule="evenodd" stroke="none"/>
    <path d="M-2.85 0.75 L-2.75 0.75 -2.75 0.8 -2.6 0.8 -2.55 0.75 Q-2.45 0.6 -2.1 0.35 L-2.0 0.5 -1.9 0.7 -1.9 0.85 -2.0 1.0 -2.15 1.2 -2.4 1.25 -2.65 1.3 -3.05 1.25 -3.1 1.25 -3.15 1.15 -3.15 1.05 -2.9 0.85 -2.85 0.75" fill="#dac2a9" fill-rule="evenodd" stroke="none"/>
    <path d="M-0.35 3.25 L-0.35 3.3 -0.4 3.35 -0.45 3.3 -0.6 3.3 Q-0.7 3.3 -0.8 3.25 L-0.85 3.05 -1.0 2.65 -1.1 2.05 -1.2 1.8 -1.25 1.6 -1.15 1.65 Q-1.1 1.7 -0.85 2.25 L-0.7 2.7 -0.55 2.95 -0.45 3.0 -0.45 3.0 -0.4 3.05 Q-0.35 3.1 -0.35 3.2 L-0.35 3.25" fill="#4d4038" fill-rule="evenodd" stroke="none"/>
    <path d="M-2.85 0.75 L-2.9 0.85 -3.15 1.05 -3.15 1.15 -3.1 1.25 -3.15 1.25 -3.2 1.2 -3.45 1.15 -3.6 1.15 -3.75 1.0 -3.85 0.85 Q-3.9 0.7 -3.85 0.7 -3.8 0.65 -3.75 0.6 L-3.4 0.7 -3.35 0.7 Q-3.35 0.7 -3.25 0.7 L-3.05 0.75 -2.85 0.75" fill="#9c8d7e" fill-rule="evenodd" stroke="none"/>
    <path d="M-3.85 0.25 L-3.75 0.15 -3.65 0.1 Q-3.6 0.05 -3.55 0.1 L-3.3 0.2 -3.3 0.25 Q-3.1 0.5 -3.15 0.55 -3.2 0.6 -3.35 0.6 -3.5 0.65 -3.6 0.5 -3.7 0.35 -3.75 0.35 L-3.85 0.25" fill="#918372" fill-rule="evenodd" stroke="none"/>
    <path d="M-2.4 3.45 L-2.4 3.4 Q-2.25 3.3 -2.2 3.35 L-2.1 3.45 -1.95 3.5 -1.95 3.65 Q-1.95 3.8 -1.85 3.9 -1.85 3.95 -1.8 3.95 L-1.85 3.95 Q-1.85 4.05 -1.75 4.2 L-1.7 4.3 -1.95 4.2 -2.0 4.0 -2.05 3.85 -2.15 3.8 -2.25 3.8 -2.3 3.7 -2.35 3.6 -2.4 3.45" fill="#5f574f" fill-rule="evenodd" stroke="none"/>
    <path d="M-1.05 3.05 L-0.95 3.25 -0.9 3.4 -0.85 3.5 -0.75 3.5 -0.65 3.5 -0.6 3.5 Q-0.5 3.45 -0.4 3.45 L-0.35 3.4 -0.2 3.45 -0.2 3.5 -0.15 3.65 -0.2 3.75 -0.25 3.85 -0.35 3.9 -0.35 3.85 -0.4 3.75 -0.45 3.75 -0.55 3.75 -0.75 3.85 -0.8 3.85 -0.8 3.85 -1.0 3.75 -1.05 3.7 -1.05 3.65 -1.05 3.3 -1.05 3.05" fill="#857261" fill-rule="evenodd" stroke="none"/>
    <path d="M-1.05 3.05 L-1.05 3.3 -1.05 3.65 -1.15 3.55 Q-1.15 3.55 -1.25 3.5 L-1.35 3.45 Q-1.45 3.3 -1.45 3.2 L-1.45 3.0 -1.5 2.75 -1.55 2.55 -1.4 2.6 Q-1.3 2.6 -1.2 2.65 L-1.15 2.75 -1.15 2.8 -1.1 2.9 -1.05 3.0 -1.05 3.05" fill="#8f7c6a" fill-rule="evenodd" stroke="none"/>
    <path d="M-1.8 3.95 L-1.8 3.95 -1.65 3.95 -1.6 3.85 -1.4 3.9 -1.3 3.9 Q-1.25 3.95 -1.2 4.0 L-1.15 4.1 Q-1.1 4.25 -1.2 4.35 -1.25 4.4 -1.35 4.4 L-1.4 4.35 Q-1.45 4.25 -1.65 4.3 L-1.7 4.3 -1.75 4.2 Q-1.85 4.05 -1.85 3.95 L-1.8 3.95" fill="#927f6a" fill-rule="evenodd" stroke="none"/>
    <path d="M-0.85 -12.6 L1.2 -11.9 1.7 -11.7 1.85 -11.55 Q1.85 -11.4 1.8 -11.35 L1.7 -11.25 1.6 -11.15 1.65 -11.15 Q1.75 -11.05 2.4 -10.8 L2.5 -10.75 3.3 -10.55 3.65 -10.45 Q3.75 -10.35 3.65 -10.15 L3.65 -10.1 Q3.65 -10.0 3.65 -9.9 L3.7 -9.9 Q3.75 -9.8 4.0 -9.75 4.2 -9.6 4.55 -9.5 L5.65 -9.15 5.55 -8.7 Q5.5 -8.3 5.55 -8.2 6.0 -7.8 6.3 -7.8 L6.45 -7.6 Q6.3 -7.6 6.25 -7.4 L6.2 -7.15 6.15 -7.0 6.1 -6.95 6.0 -6.65 6.0 -6.65 5.95 -6.65 6.45 -6.0 6.85 -5.35 7.2 -4.7 7.35 -4.45 7.65 -4.05 Q7.8 -3.75 7.65 -3.6 L7.5 -3.6 Q7.4 -3.6 7.3 -3.7 L7.3 -3.65 Q7.6 -3.45 7.85 -2.65 8.05 -1.95 8.1 -1.25 8.1 -1.0 8.15 -0.55 8.25 0.0 8.4 0.4 L8.5 0.85 8.6 1.4 Q8.7 2.05 8.85 2.35 L9.15 3.25 9.15 3.4 9.4 4.95 9.1 4.55 8.6 4.2 Q8.55 4.1 8.3 4.1 8.1 4.1 8.0 4.15 L8.05 4.2 8.15 4.3 8.65 4.7 8.85 4.85 9.05 5.1 Q9.1 5.35 9.2 5.45 L9.4 5.75 9.4 5.95 9.7 7.3 9.8 7.95 Q10.15 9.65 10.55 10.5 L10.1 10.55 9.45 10.55 Q9.05 10.5 8.7 10.25 8.45 10.05 8.25 10.25 L7.6 11.35 7.3 11.75 6.85 12.4 6.6 12.65 6.35 12.55 5.9 13.0 5.8 13.2 5.8 13.3 5.75 13.35 5.55 13.55 5.5 13.55 Q5.45 13.55 5.4 13.5 L5.2 13.05 4.95 12.6 4.65 13.05 4.55 13.15 4.45 13.2 4.4 13.0 Q4.4 12.8 4.3 12.7 4.2 12.6 4.1 12.65 4.0 12.65 3.95 12.6 3.75 12.4 3.75 12.25 L3.65 11.8 Q3.6 11.7 3.65 11.35 3.7 11.0 3.65 10.85 3.3 9.7 3.15 9.4 L3.05 9.25 Q2.9 9.05 2.7 9.05 2.4 9.0 2.15 8.9 L1.55 8.65 0.95 8.75 0.6 8.8 0.25 8.85 -0.35 8.8 -0.7 8.85 M-10.55 -1.05 L-10.05 -2.05 Q-9.65 -2.65 -9.1 -3.75 L-8.95 -3.95 -8.6 -4.35 -8.45 -4.6 Q-7.95 -5.2 -7.8 -5.85 L-7.75 -5.95 -7.35 -8.15 -7.25 -8.6 -7.05 -9.65 -6.9 -10.5 -6.7 -11.25 -6.6 -11.6 Q-6.5 -11.8 -6.2 -12.2 L-6.15 -12.25 -5.65 -12.8 -5.6 -12.85 -5.1 -13.2 -4.85 -13.3 -4.65 -13.4 -4.6 -13.4 Q-4.35 -13.5 -4.0 -13.55 L-3.7 -13.55 -3.5 -13.55 -2.7 -13.25 -2.3 -13.05 -2.3 -13.1 Q-2.15 -13.0 -2.0 -12.95 L-1.8 -12.9 -1.55 -12.8 -1.55 -12.8 -0.95 -12.65 -0.95 -12.65 -0.9 -12.6 -0.85 -12.6" fill="none" stroke="#000000" stroke-linecap="round" stroke-linejoin="round" stroke-opacity="0.4509804" stroke-width="1.0"/>
  </g>
</svg>
