<?xml version="1.0" encoding="UTF-8" standalone="no"?>
<svg xmlns:xlink="http://www.w3.org/1999/xlink" height="12.9px" width="46.95px" xmlns="http://www.w3.org/2000/svg">
  <g transform="matrix(1.0, 0.0, 0.0, 1.0, -7.15, -15.6)">
    <path d="M48.85 20.1 L48.9 20.1 49.3 20.3 49.55 20.3 49.85 20.2 49.9 20.3 Q49.75 20.4 49.6 20.45 L49.55 20.45 49.2 20.45 48.85 20.45 48.7 20.45 Q48.65 20.4 48.65 20.3 L48.75 20.15 48.85 20.1 M52.35 15.9 Q52.15 15.8 52.0 15.6 L53.6 15.6 Q53.8 15.6 53.95 15.75 54.1 15.9 54.1 16.1 L53.95 16.1 53.75 16.1 53.7 15.95 Q53.65 15.9 53.6 15.9 L52.35 15.9 M48.0 15.6 L47.6 15.9 45.1 15.95 44.75 15.95 44.05 15.95 44.75 15.95 45.1 15.95 44.05 15.95 43.3 15.95 43.15 15.95 42.9 15.95 42.85 15.95 42.5 15.95 42.15 15.95 41.5 15.95 40.6 15.95 40.6 15.9 40.6 15.7 40.8 15.6 40.85 15.6 41.05 15.6 40.8 15.6 41.05 15.6 41.2 15.6 45.1 15.6 48.0 15.6 M40.6 16.45 L40.6 16.55 18.75 16.55 18.25 16.25 19.0 16.25 19.8 16.45 40.6 16.45 M48.2 27.55 L47.8 27.85 47.55 27.85 45.1 27.85 43.75 27.85 43.0 27.9 43.75 27.85 45.1 27.85 45.1 27.9 43.0 27.9 42.8 27.9 42.4 27.9 41.05 27.9 40.6 27.9 31.55 27.9 25.35 27.9 14.15 27.85 13.55 27.85 13.25 27.85 12.7 27.85 13.25 27.85 12.95 27.85 12.7 27.85 12.6 27.85 Q12.5 27.75 12.55 27.55 L19.55 27.55 21.05 27.75 31.55 27.75 33.15 27.75 33.25 27.75 40.6 27.7 40.6 27.65 40.75 27.65 40.8 27.65 41.05 27.55 48.2 27.55 M8.15 15.9 L7.85 15.9 7.85 15.6 8.3 15.6 8.15 15.9 M7.5 16.1 L7.5 16.45 7.2 16.55 7.2 15.9 7.5 16.1 M20.5 28.2 L22.35 28.2 22.65 28.2 22.75 28.2 23.05 28.2 23.35 28.35 31.55 28.3 33.5 28.3 33.5 28.25 33.7 28.25 34.05 28.35 34.15 28.35 40.6 28.35 40.6 28.2 41.4 28.2 41.45 28.2 41.3 28.3 41.0 28.5 21.1 28.5 20.95 28.35 20.9 28.35 20.5 28.2 M39.05 20.0 L39.1 20.0 39.2 20.05 39.3 20.15 39.55 20.05 39.6 20.0 39.75 20.05 39.9 20.15 Q40.05 20.3 40.25 20.3 40.65 20.3 41.3 20.1 L41.35 20.1 41.8 19.8 42.1 19.45 Q42.25 19.35 42.6 19.25 L42.95 19.2 Q42.55 19.5 42.25 19.8 42.1 19.9 42.05 20.15 L42.0 20.2 Q41.95 20.4 41.6 20.4 41.45 20.4 41.15 20.55 40.85 20.65 40.65 20.65 40.25 20.65 39.65 20.45 39.05 20.2 39.05 20.05 L39.05 20.0 M47.4 23.4 Q47.4 23.55 47.55 23.6 L47.7 23.7 47.9 23.7 47.95 23.85 Q47.75 24.0 47.55 24.0 L47.45 24.0 47.2 23.95 Q47.0 23.8 47.0 23.65 47.0 23.55 47.2 23.5 L47.4 23.4 M50.9 25.9 L50.95 25.9 51.45 26.0 Q51.55 26.0 51.65 25.9 L51.7 26.05 Q51.7 26.1 51.5 26.25 L51.25 26.35 51.0 26.25 Q50.75 26.15 50.75 26.1 L50.85 25.95 50.9 25.9 M19.35 15.6 L21.5 15.9 12.4 15.9 Q12.3 15.8 12.3 15.6 L19.35 15.6 M8.25 16.25 L8.25 16.35 8.2 16.35 Q8.05 16.6 7.85 16.55 L7.85 16.4 7.9 16.3 7.95 16.25 8.0 16.25 8.25 16.25 M14.05 19.8 Q14.2 20.0 14.25 20.15 14.1 20.3 13.9 20.3 L13.45 20.3 13.4 20.35 Q13.1 20.6 12.95 20.6 L12.75 20.5 12.7 20.5 12.95 20.2 12.9 20.1 12.8 19.95 12.85 19.9 Q13.05 20.0 13.3 20.0 13.65 20.0 14.0 19.85 L14.05 19.8 M11.95 20.45 L11.9 20.4 Q11.85 20.3 11.75 20.15 11.7 20.0 11.6 19.95 11.05 19.75 10.95 19.65 10.9 19.6 10.9 19.3 L10.9 19.05 Q10.95 18.85 11.15 18.85 L11.25 18.85 11.2 19.0 Q11.2 19.3 11.5 19.6 11.75 19.8 12.05 19.85 L12.0 19.9 12.05 20.05 12.1 20.25 12.05 20.35 11.95 20.45 M14.95 20.05 L15.1 20.15 15.55 20.35 15.6 20.35 15.9 20.2 Q15.9 20.45 15.7 20.55 L15.6 20.6 15.3 20.65 Q14.65 20.65 14.65 20.35 L14.65 20.3 Q14.65 20.25 14.95 20.05 M15.7 22.1 Q15.75 21.75 16.0 21.75 L16.25 22.0 16.3 22.0 16.55 22.25 16.55 22.35 16.25 22.4 16.1 22.4 15.95 22.35 Q15.7 22.15 15.7 22.1 M15.25 23.45 Q15.25 23.6 15.0 23.7 L14.55 23.85 Q14.05 23.7 14.05 23.5 14.05 23.4 14.1 23.35 L14.2 23.3 Q14.35 23.5 14.5 23.5 L14.75 23.45 14.85 23.4 14.85 23.35 14.9 23.4 Q15.1 23.55 15.15 23.55 L15.25 23.45 M10.35 21.2 Q10.5 21.25 10.6 21.25 L10.7 21.25 10.9 21.05 11.0 20.95 11.15 21.0 Q11.25 21.05 11.25 21.25 11.25 21.35 11.1 21.4 L10.95 21.45 10.7 21.35 10.6 21.35 10.35 21.2" fill="#525655" fill-rule="evenodd" stroke="none"/>
    <path d="M52.0 15.6 Q52.15 15.8 52.35 15.9 L47.75 15.9 47.6 15.9 48.0 15.6 52.0 15.6 M53.75 16.1 L53.95 16.1 54.1 16.1 54.1 28.0 Q54.1 28.2 53.95 28.35 53.8 28.5 53.6 28.5 L41.0 28.5 41.3 28.3 41.45 28.2 41.55 28.2 53.6 28.2 53.7 28.15 53.75 28.0 53.75 16.1 M40.6 16.25 L53.25 16.25 53.3 16.25 53.4 16.3 53.45 16.4 53.45 27.7 53.4 27.8 53.35 27.85 53.25 27.85 48.05 27.85 47.8 27.85 48.2 27.55 53.1 27.55 53.1 16.55 40.6 16.55 40.6 16.45 40.6 16.25 M40.6 15.9 L40.6 15.95 33.5 15.95 32.1 15.95 8.15 15.9 8.3 15.6 12.3 15.6 Q12.3 15.8 12.4 15.9 L21.5 15.9 22.5 15.9 39.1 15.9 40.6 15.9 M7.5 16.45 L7.5 28.0 7.55 28.15 7.6 28.15 7.65 28.2 20.1 28.2 20.2 28.2 20.25 28.2 20.5 28.2 20.9 28.35 20.95 28.35 21.1 28.5 7.65 28.5 Q7.5 28.5 7.35 28.35 7.2 28.2 7.2 28.0 L7.2 16.55 7.5 16.45 M12.55 27.55 Q12.5 27.75 12.6 27.85 L12.55 27.85 12.45 27.85 12.3 27.85 8.0 27.85 7.9 27.8 7.85 27.7 7.85 16.55 Q8.05 16.6 8.2 16.35 L8.25 16.35 8.25 16.25 9.85 16.25 10.75 16.25 18.25 16.25 18.75 16.55 8.15 16.55 8.15 27.55 12.55 27.55" fill="#2e3231" fill-rule="evenodd" stroke="none"/>
    <path d="M49.85 20.2 L50.1 20.05 50.1 19.95 49.95 19.8 Q49.85 19.65 49.65 19.55 49.5 19.4 49.3 19.4 L49.25 19.4 49.2 19.4 Q48.55 19.45 48.55 19.9 L48.85 20.1 48.75 20.15 48.65 20.3 Q48.65 20.4 48.7 20.45 L48.85 20.45 49.2 20.45 49.55 20.45 49.6 20.45 Q49.75 20.4 49.9 20.3 L49.85 20.2 M40.6 16.55 L53.1 16.55 53.1 27.55 48.2 27.55 41.05 27.55 40.6 27.55 22.25 27.55 19.55 27.55 12.55 27.55 8.15 27.55 8.15 16.55 18.75 16.55 40.6 16.55 M42.95 19.2 L43.0 19.15 43.35 18.9 43.35 18.85 43.6 18.65 43.75 18.4 Q41.65 18.8 40.15 19.25 39.25 19.55 38.35 20.0 L38.1 20.1 38.6 20.15 38.85 20.05 39.0 20.0 39.05 20.0 39.05 20.05 Q39.05 20.2 39.65 20.45 40.25 20.65 40.65 20.65 40.85 20.65 41.15 20.55 41.45 20.4 41.6 20.4 41.95 20.4 42.0 20.2 L42.05 20.15 Q42.1 19.9 42.25 19.8 42.55 19.5 42.95 19.2 M47.9 23.7 Q48.05 23.65 48.05 23.35 48.05 23.1 48.05 23.05 48.0 22.95 47.8 22.95 L47.55 23.05 Q47.35 23.15 47.35 23.25 L47.4 23.4 47.2 23.5 Q47.0 23.55 47.0 23.65 47.0 23.8 47.2 23.95 L47.45 24.0 47.55 24.0 Q47.75 24.0 47.95 23.85 L47.9 23.7 M51.65 25.9 L51.7 25.9 51.75 25.85 51.8 25.8 Q51.55 25.15 51.25 25.15 L51.2 25.1 Q51.1 25.1 50.9 25.35 50.75 25.55 50.75 25.6 50.75 25.8 50.9 25.9 L50.85 25.95 50.75 26.1 Q50.75 26.15 51.0 26.25 L51.25 26.35 51.5 26.25 Q51.7 26.1 51.7 26.05 L51.65 25.9 M14.05 19.35 L14.15 19.25 Q14.3 19.15 14.3 19.1 L14.3 19.05 Q14.3 18.95 14.15 18.75 L13.9 18.5 13.85 18.25 13.7 17.95 Q13.55 17.65 13.2 17.45 12.9 17.3 12.6 17.3 12.45 17.3 12.35 17.1 12.3 16.95 12.2 16.95 11.9 16.95 11.6 17.5 L11.5 17.6 11.15 17.75 Q10.85 17.85 10.85 18.05 10.85 18.3 10.95 18.5 11.1 18.75 11.4 18.7 L11.35 18.75 11.25 18.85 11.15 18.85 Q10.95 18.85 10.9 19.05 L10.9 19.3 Q10.9 19.6 10.95 19.65 11.05 19.75 11.6 19.95 11.7 20.0 11.75 20.15 11.85 20.3 11.9 20.4 L11.95 20.45 12.05 20.45 12.2 20.5 12.35 20.45 12.5 20.4 Q12.55 20.4 12.7 20.5 L12.75 20.5 12.95 20.6 Q13.1 20.6 13.4 20.35 L13.45 20.3 13.9 20.3 Q14.1 20.3 14.25 20.15 14.2 20.0 14.05 19.8 L14.3 19.6 14.05 19.35 M15.9 20.2 Q16.1 20.1 16.2 20.1 L15.75 19.65 Q15.35 19.3 15.25 19.3 15.05 19.3 14.9 19.55 14.8 19.75 14.8 19.85 14.8 19.95 14.95 20.05 14.65 20.25 14.65 20.3 L14.65 20.35 Q14.65 20.65 15.3 20.65 L15.6 20.6 15.7 20.55 Q15.9 20.45 15.9 20.2 M15.7 22.1 Q15.7 22.15 15.95 22.35 L16.1 22.4 16.25 22.4 16.55 22.35 16.55 22.25 16.3 22.0 16.25 22.0 16.0 21.75 Q15.75 21.75 15.7 22.1 M14.2 23.3 L14.1 23.35 Q14.05 23.4 14.05 23.5 14.05 23.7 14.55 23.85 L15.0 23.7 Q15.25 23.6 15.25 23.45 15.55 23.3 15.6 23.15 L15.45 23.05 15.3 22.9 15.0 22.75 Q14.75 22.6 14.65 22.6 14.45 22.6 14.3 22.8 14.1 23.0 14.05 23.05 L14.2 23.3 M11.0 20.95 L11.15 20.8 11.1 20.8 10.75 20.65 Q10.7 20.65 10.45 20.8 L10.2 21.0 10.25 21.1 10.35 21.2 10.6 21.35 10.7 21.35 10.95 21.45 11.1 21.4 Q11.25 21.35 11.25 21.25 11.25 21.05 11.15 21.0 L11.0 20.95 M12.05 25.25 L12.05 25.15 Q11.95 24.9 11.7 24.9 L11.55 24.95 11.3 25.05 Q11.1 25.05 11.15 25.2 L11.3 25.5 Q11.3 25.55 11.55 25.6 L11.9 25.65 12.05 25.55 12.1 25.45 12.05 25.25" fill="#202020" fill-rule="evenodd" stroke="none"/>
    <path d="M40.6 16.25 L40.6 16.45 19.8 16.45 19.0 16.25 40.6 16.25 M40.85 15.6 L40.8 15.6 40.6 15.6 40.8 15.6 40.6 15.7 40.6 15.9 39.1 15.9 40.6 15.7 40.6 15.6 40.85 15.6 M7.85 15.9 L7.65 15.9 Q7.6 15.9 7.55 15.95 7.5 16.0 7.5 16.1 L7.2 15.9 Q7.25 15.8 7.35 15.75 7.5 15.6 7.65 15.6 L7.85 15.6 7.85 15.9 M23.05 28.2 L23.45 28.2 23.75 28.2 25.55 28.2 25.65 28.2 40.6 28.2 40.6 28.35 34.15 28.35 34.05 28.35 33.7 28.25 33.5 28.25 33.5 28.3 31.55 28.3 23.35 28.35 23.05 28.2 M41.4 28.2 Q41.45 28.1 41.55 28.2 L41.45 28.2 41.4 28.2 M22.05 15.6 L22.5 15.9 21.5 15.9 19.35 15.6 19.7 15.6 19.85 15.6 21.8 15.6 22.05 15.6 21.8 15.6 22.05 15.6 M40.6 27.65 L40.6 27.55 41.05 27.55 40.8 27.65 40.75 27.65 40.6 27.65 40.6 27.7 33.25 27.75 33.15 27.75 31.55 27.75 21.05 27.75 19.55 27.55 22.25 27.55 22.45 27.65 40.6 27.65" fill="#9a9b9b" fill-rule="evenodd" stroke="none"/>
    <path d="M40.6 15.6 L40.6 15.7 39.1 15.9 22.5 15.9 22.05 15.6 40.6 15.6 22.05 15.6 22.3 15.6 22.05 15.6 22.3 15.6 40.6 15.6 M40.6 27.55 L40.6 27.65 22.45 27.65 22.25 27.55 40.6 27.55" fill="#c4c6c6" fill-rule="evenodd" stroke="none"/>
    <path d="M11.4 18.7 Q11.1 18.75 10.95 18.5 10.85 18.3 10.85 18.05 10.85 17.85 11.15 17.75 L11.5 17.6 11.6 17.5 Q11.9 16.95 12.2 16.95 12.3 16.95 12.35 17.1 12.45 17.3 12.6 17.3 12.9 17.3 13.2 17.45 13.55 17.65 13.7 17.95 L13.85 18.25 13.9 18.5 14.15 18.75 Q14.3 18.95 14.3 19.05 L14.3 19.1 Q14.3 19.15 14.15 19.25 L14.05 19.35 13.9 19.25 13.75 19.05 Q13.65 18.9 13.6 18.7 13.6 18.55 13.4 18.1 13.15 17.6 12.85 17.6 L12.35 17.7 Q11.85 17.8 11.75 17.9 L11.75 17.95 Q11.7 18.05 11.7 18.25 11.65 18.5 11.6 18.55 L11.4 18.7 M14.95 20.05 Q14.8 19.95 14.8 19.85 14.8 19.75 14.9 19.55 15.05 19.3 15.25 19.3 15.35 19.3 15.75 19.65 L16.2 20.1 Q16.1 20.1 15.9 20.2 L15.6 20.35 15.55 20.35 15.1 20.15 14.95 20.05 M10.35 21.2 L10.25 21.1 10.2 21.0 10.45 20.8 Q10.7 20.65 10.75 20.65 L11.1 20.8 11.15 20.8 11.0 20.95 10.9 21.05 10.7 21.25 10.6 21.25 Q10.5 21.25 10.35 21.2 M11.15 25.2 Q11.1 25.05 11.3 25.05 L11.55 24.95 11.7 24.9 Q11.95 24.9 12.05 25.15 L12.05 25.25 11.95 25.25 Q11.9 25.25 11.75 25.15 L11.65 25.1 11.55 25.1 11.25 25.2 11.15 25.2" fill="#171717" fill-rule="evenodd" stroke="none"/>
    <path d="M12.7 20.5 Q12.55 20.4 12.5 20.4 L12.35 20.45 12.2 20.5 12.05 20.45 11.95 20.45 12.05 20.35 12.1 20.25 12.05 20.05 12.0 19.9 12.05 19.85 12.1 19.85 12.3 19.8 12.5 19.75 Q12.65 19.75 12.85 19.9 L12.8 19.95 12.9 20.1 12.95 20.2 12.7 20.5" fill="#6b706e" fill-rule="evenodd" stroke="none"/>
    <path d="M49.85 20.2 L50.1 20.05 50.1 19.95 49.95 19.8 Q49.85 19.65 49.65 19.55 49.5 19.4 49.3 19.4 L49.25 19.4 49.2 19.4 Q48.55 19.45 48.55 19.9 L48.85 20.1 48.9 20.1 49.3 20.3 49.55 20.3 49.85 20.2 M52.35 15.9 L53.6 15.9 Q53.65 15.9 53.7 15.95 L53.75 16.1 53.75 28.0 53.7 28.15 53.6 28.2 41.55 28.2 Q41.45 28.1 41.4 28.2 L41.45 28.2 41.55 28.2 M54.1 16.1 Q54.1 15.9 53.95 15.75 53.8 15.6 53.6 15.6 L52.0 15.6 48.0 15.6 45.1 15.6 41.2 15.6 41.05 15.6 40.85 15.6 40.6 15.6 40.8 15.6 41.05 15.6 M47.6 15.9 L47.75 15.9 52.35 15.9 M47.8 27.85 L48.05 27.85 53.25 27.85 53.35 27.85 53.4 27.8 53.45 27.7 53.45 16.4 53.4 16.3 53.3 16.25 53.25 16.25 40.6 16.25 19.0 16.25 18.25 16.25 10.75 16.25 9.85 16.25 8.25 16.25 8.0 16.25 7.95 16.25 7.9 16.3 7.85 16.4 7.85 16.55 7.85 27.7 7.9 27.8 8.0 27.85 12.3 27.85 12.45 27.85 12.55 27.85 M40.6 16.55 L53.1 16.55 53.1 27.55 48.2 27.55 41.05 27.55 40.6 27.55 22.25 27.55 19.55 27.55 12.55 27.55 8.15 27.55 8.15 16.55 18.75 16.55 40.6 16.55 M47.8 27.85 L47.55 27.85 48.05 27.85 M40.6 15.95 L41.5 15.95 42.15 15.95 42.5 15.95 42.85 15.95 42.9 15.95 43.15 15.95 43.3 15.95 44.05 15.95 44.75 15.95 45.1 15.95 47.6 15.9 M40.6 15.95 L33.5 15.95 32.1 15.95 8.15 15.9 7.85 15.9 7.65 15.9 Q7.6 15.9 7.55 15.95 7.5 16.0 7.5 16.1 L7.5 16.45 7.5 28.0 7.55 28.15 7.6 28.15 7.65 28.2 20.1 28.2 20.2 28.2 20.25 28.2 20.5 28.2 22.35 28.2 22.65 28.2 22.75 28.2 23.05 28.2 23.45 28.2 23.75 28.2 25.55 28.2 25.65 28.2 40.6 28.2 41.4 28.2 M40.6 15.6 L22.05 15.6 22.3 15.6 22.05 15.6 19.7 15.6 19.35 15.6 12.3 15.6 8.3 15.6 7.85 15.6 7.65 15.6 Q7.5 15.6 7.35 15.75 7.25 15.8 7.2 15.9 L7.2 16.55 7.2 28.0 Q7.2 28.2 7.35 28.35 7.5 28.5 7.65 28.5 L21.1 28.5 41.0 28.5 53.6 28.5 Q53.8 28.5 53.95 28.35 54.1 28.2 54.1 28.0 L54.1 16.1 M42.95 19.2 L43.0 19.15 43.35 18.9 43.35 18.85 43.6 18.65 43.75 18.4 Q41.65 18.8 40.15 19.25 39.25 19.55 38.35 20.0 L38.1 20.1 38.6 20.15 38.85 20.05 39.0 20.0 39.05 20.0 39.1 20.0 39.2 20.05 39.3 20.15 39.55 20.05 39.6 20.0 39.75 20.05 39.9 20.15 Q40.05 20.3 40.25 20.3 40.65 20.3 41.3 20.1 L41.35 20.1 41.8 19.8 42.1 19.45 Q42.25 19.35 42.6 19.25 L42.95 19.2 M44.05 15.95 L45.1 15.95 M47.4 23.4 Q47.4 23.55 47.55 23.6 L47.7 23.7 47.9 23.7 M12.7 27.85 L13.25 27.85 13.55 27.85 14.15 27.85 25.35 27.9 31.55 27.9 40.6 27.9 41.05 27.9 42.4 27.9 42.8 27.9 43.0 27.9 43.75 27.85 45.1 27.85 47.55 27.85 M43.0 27.9 L45.1 27.9 M51.65 25.9 L51.7 25.9 51.75 25.85 51.8 25.8 Q51.55 25.15 51.25 25.15 L51.2 25.1 Q51.1 25.1 50.9 25.35 50.75 25.55 50.75 25.6 50.75 25.8 50.9 25.9 L50.95 25.9 51.45 26.0 Q51.55 26.0 51.65 25.9 M21.8 15.6 L19.85 15.6 19.7 15.6 M21.8 15.6 L22.05 15.6 M14.05 19.35 L14.3 19.6 14.05 19.8 14.0 19.85 Q13.65 20.0 13.3 20.0 13.05 20.0 12.85 19.9 12.65 19.75 12.5 19.75 L12.3 19.8 12.1 19.85 12.05 19.85 Q11.75 19.8 11.5 19.6 11.2 19.3 11.2 19.0 L11.25 18.85 11.35 18.75 11.4 18.7 11.6 18.55 Q11.65 18.5 11.7 18.25 11.7 18.05 11.75 17.95 L11.75 17.9 Q11.85 17.8 12.35 17.7 L12.85 17.6 Q13.15 17.6 13.4 18.1 13.6 18.55 13.6 18.7 13.65 18.9 13.75 19.05 L13.9 19.25 14.05 19.35 M15.25 23.45 L15.15 23.55 Q15.1 23.55 14.9 23.4 L14.85 23.35 14.85 23.4 14.75 23.45 14.5 23.5 Q14.35 23.5 14.2 23.3 L14.05 23.05 Q14.1 23.0 14.3 22.8 14.45 22.6 14.65 22.6 14.75 22.6 15.0 22.75 L15.3 22.9 15.45 23.05 15.6 23.15 Q15.55 23.3 15.25 23.45 M12.05 25.25 L12.1 25.45 12.05 25.55 11.9 25.65 11.55 25.6 Q11.3 25.55 11.3 25.5 L11.15 25.2 M12.45 27.85 L12.7 27.85 M12.95 27.85 L13.25 27.85 M40.6 15.6 L22.3 15.6" fill="none" stroke="#000000" stroke-linecap="round" stroke-linejoin="round" stroke-opacity="0.4" stroke-width="1.0"/>
  </g>
</svg>
