<?xml version="1.0" encoding="UTF-8" standalone="no"?>
<svg xmlns:xlink="http://www.w3.org/1999/xlink" height="1.8px" width="2.2px" xmlns="http://www.w3.org/2000/svg">
  <g transform="matrix(1.0, 0.0, 0.0, 1.0, 1.15, 1.55)">
    <path d="M0.05 -1.4 L0.1 -1.4 0.2 -1.3 Q0.1 -1.2 0.15 -1.1 L0.15 -1.0 0.2 -0.95 Q0.1 -0.95 0.1 -0.9 L0.1 -0.9 0.0 -1.0 -0.1 -1.05 -0.15 -1.05 -0.25 -1.1 -0.35 -1.05 -0.45 -1.05 Q-0.55 -1.05 -0.55 -1.15 L-0.5 -1.15 -0.45 -1.15 -0.4 -1.15 -0.5 -1.25 Q-0.55 -1.25 -0.65 -1.3 L-0.65 -1.35 -0.6 -1.35 Q-0.5 -1.25 -0.45 -1.25 L-0.4 -1.25 -0.6 -1.35 Q-0.7 -1.4 -0.7 -1.45 -0.65 -1.55 -0.45 -1.55 -0.2 -1.55 0.05 -1.4 M0.9 -0.55 L0.9 -0.5 Q0.9 -0.35 0.9 -0.3 0.85 -0.25 0.65 -0.25 0.5 -0.25 0.35 -0.4 0.2 -0.5 0.2 -0.65 0.2 -0.8 0.3 -0.8 L0.35 -0.8 0.35 -0.7 Q0.35 -0.6 0.45 -0.6 L0.55 -0.65 0.65 -0.6 0.65 -0.5 Q0.65 -0.45 0.7 -0.45 0.85 -0.45 0.9 -0.55 M-1.05 -0.5 L-1.05 -0.6 -0.95 -0.85 -0.9 -0.8 Q-0.8 -0.75 -0.8 -0.7 L-0.8 -0.6 -0.75 -0.6 -0.7 -0.7 -0.65 -0.8 -0.65 -0.85 -0.6 -0.8 -0.65 -0.4 -0.65 -0.4 Q-0.6 -0.4 -0.6 -0.4 L-0.6 -0.5 -0.5 -0.35 -0.45 -0.3 -0.35 -0.3 Q-0.35 -0.3 -0.3 -0.3 L-0.3 -0.25 -0.35 -0.2 -0.35 -0.15 -0.4 -0.15 -0.45 -0.2 -0.5 -0.1 -0.45 -0.05 -0.7 -0.15 -0.7 -0.2 Q-1.0 -0.35 -1.05 -0.5 M-0.3 -0.55 L-0.25 -0.4 -0.1 -0.55 Q-0.05 -0.55 0.05 -0.45 L0.1 -0.4 -0.15 -0.1 -0.45 -0.5 -0.45 -0.6 -0.3 -0.55" fill="#1f2425" fill-rule="evenodd" stroke="none"/>
    <path d="M0.2 -1.3 L0.3 -1.25 0.9 -0.55 Q0.85 -0.45 0.7 -0.45 0.65 -0.45 0.65 -0.5 L0.65 -0.6 0.55 -0.65 0.45 -0.6 Q0.35 -0.6 0.35 -0.7 L0.35 -0.8 0.4 -0.8 0.4 -0.85 0.3 -0.95 0.2 -1.0 0.2 -0.95 0.15 -1.0 0.15 -1.1 Q0.1 -1.2 0.2 -1.3 M-0.95 -0.85 L-0.9 -1.15 -0.85 -1.2 -0.8 -1.3 -0.75 -1.4 -0.75 -1.45 -0.7 -1.45 Q-0.7 -1.4 -0.6 -1.35 L-0.4 -1.25 -0.45 -1.25 Q-0.5 -1.25 -0.6 -1.35 L-0.65 -1.35 -0.65 -1.3 Q-0.55 -1.25 -0.5 -1.25 L-0.4 -1.15 -0.45 -1.15 -0.5 -1.15 -0.55 -1.15 Q-0.55 -1.05 -0.45 -1.05 L-0.35 -1.05 -0.25 -1.1 -0.15 -1.05 -0.2 -0.9 Q-0.2 -0.85 -0.1 -0.75 L-0.25 -0.7 Q-0.3 -0.65 -0.3 -0.55 L-0.45 -0.6 -0.45 -0.5 -0.15 -0.1 0.1 -0.4 0.15 -0.3 Q0.2 -0.15 0.1 -0.05 0.0 0.0 -0.15 0.0 L-0.4 -0.05 -0.45 -0.05 -0.5 -0.1 -0.45 -0.2 -0.4 -0.15 -0.35 -0.15 -0.35 -0.2 -0.3 -0.25 -0.3 -0.3 Q-0.35 -0.3 -0.35 -0.3 L-0.45 -0.3 -0.5 -0.35 -0.6 -0.5 -0.6 -0.4 Q-0.6 -0.4 -0.65 -0.4 L-0.65 -0.4 -0.6 -0.8 -0.6 -0.8 -0.5 -0.75 -0.55 -0.7 -0.5 -0.6 -0.4 -0.7 -0.35 -0.85 -0.3 -0.85 -0.3 -0.9 -0.35 -1.0 -0.4 -1.0 -0.4 -0.95 -0.45 -0.95 -0.5 -1.05 -0.5 -1.05 -0.6 -0.95 -0.7 -1.0 -0.8 -1.1 -0.85 -1.1 -0.85 -1.05 -0.7 -0.9 -0.65 -0.8 -0.7 -0.7 -0.75 -0.6 -0.8 -0.6 -0.8 -0.7 Q-0.8 -0.75 -0.9 -0.8 L-0.95 -0.85" fill="#2c3335" fill-rule="evenodd" stroke="none"/>
    <path d="M0.9 -0.5 L0.95 -0.5 1.0 -0.35 0.9 -0.25 Q0.85 -0.15 0.8 -0.15 L0.45 -0.2 Q0.35 -0.25 0.2 -0.4 L0.2 -0.35 0.25 -0.25 0.2 -0.05 Q0.15 0.0 0.15 0.05 L0.15 0.15 -0.05 0.2 -0.35 0.15 -0.3 0.05 Q-0.35 0.0 -0.4 0.0 L-0.4 -0.05 -0.15 0.0 Q0.0 0.0 0.1 -0.05 0.2 -0.15 0.15 -0.3 L0.1 -0.4 0.05 -0.45 Q-0.05 -0.55 -0.1 -0.55 L-0.25 -0.4 -0.3 -0.55 Q-0.3 -0.65 -0.25 -0.7 L-0.1 -0.75 Q-0.2 -0.85 -0.2 -0.9 L-0.15 -1.05 -0.1 -1.05 0.0 -1.0 0.1 -0.9 0.1 -0.9 Q0.1 -0.95 0.2 -0.95 L0.2 -1.0 0.3 -0.95 0.4 -0.85 0.4 -0.8 0.35 -0.8 0.3 -0.8 Q0.2 -0.8 0.2 -0.65 0.2 -0.5 0.35 -0.4 0.5 -0.25 0.65 -0.25 0.85 -0.25 0.9 -0.3 0.9 -0.35 0.9 -0.5 M-0.7 0.0 Q-1.05 -0.1 -1.05 -0.25 L-1.05 -0.45 -1.05 -0.5 Q-1.0 -0.35 -0.7 -0.2 L-0.7 -0.15 -0.7 0.0" fill="#692b27" fill-rule="evenodd" stroke="none"/>
    <path d="M1.0 -0.35 L1.0 -0.35 Q1.0 -0.25 0.9 -0.15 0.85 -0.05 0.7 -0.05 0.6 -0.05 0.55 -0.1 L0.4 -0.15 0.25 0.0 0.15 0.15 0.15 0.05 Q0.15 0.0 0.2 -0.05 L0.25 -0.25 0.2 -0.35 0.2 -0.4 Q0.35 -0.25 0.45 -0.2 L0.8 -0.15 Q0.85 -0.15 0.9 -0.25 L1.0 -0.35 M-0.35 0.15 L-0.55 0.1 -0.7 0.0 -0.7 -0.15 -0.45 -0.05 -0.4 -0.05 -0.4 0.0 Q-0.35 0.0 -0.3 0.05 L-0.35 0.15" fill="#4d1f1c" fill-rule="evenodd" stroke="none"/>
    <path d="M-0.65 -0.8 L-0.7 -0.9 -0.85 -1.05 -0.85 -1.1 -0.8 -1.1 -0.7 -1.0 -0.6 -0.95 -0.5 -1.05 -0.5 -1.05 -0.45 -0.95 -0.4 -0.95 -0.4 -1.0 -0.35 -1.0 -0.3 -0.9 -0.3 -0.85 -0.35 -0.85 -0.4 -0.7 -0.5 -0.6 -0.55 -0.7 -0.5 -0.75 -0.6 -0.8 -0.6 -0.8 -0.65 -0.85 -0.65 -0.8" fill="#585e5f" fill-rule="evenodd" stroke="none"/>
    <path d="M0.05 -1.4 L0.1 -1.4 0.2 -1.3 0.3 -1.25 0.9 -0.55 0.9 -0.5 0.95 -0.5 1.0 -0.35 1.0 -0.35 Q1.0 -0.25 0.9 -0.15 0.85 -0.05 0.7 -0.05 0.6 -0.05 0.55 -0.1 L0.4 -0.15 0.25 0.0 0.15 0.15 -0.05 0.2 -0.35 0.15 -0.55 0.1 -0.7 0.0 Q-1.05 -0.1 -1.05 -0.25 L-1.05 -0.45 -1.05 -0.5 -1.05 -0.6 -0.95 -0.85 -0.9 -1.15 -0.85 -1.2 -0.8 -1.3 -0.75 -1.4" fill="none" stroke="#000000" stroke-linecap="round" stroke-linejoin="round" stroke-opacity="0.4509804" stroke-width="0.1"/>
  </g>
</svg>
