<?xml version="1.0" encoding="UTF-8" standalone="no"?>
<svg xmlns:xlink="http://www.w3.org/1999/xlink" height="75.15px" width="62.95px" xmlns="http://www.w3.org/2000/svg">
  <g transform="matrix(1.0, 0.0, 0.0, 1.0, 38.95, 4.25)">
    <path d="M0.4 -2.65 L0.45 -2.4 0.5 -2.1 0.5 -1.95 0.55 -1.85 0.5 -1.75 Q0.4 -1.7 0.4 -1.6 L0.4 -1.5 Q0.35 -1.4 0.25 -1.4 0.15 -1.4 0.1 -1.5 0.0 -1.4 -0.05 -1.4 -0.2 -1.4 -0.25 -1.7 L-0.25 -2.0 -0.3 -2.3 Q-0.3 -2.45 -0.35 -2.5 L-0.4 -2.6 -0.35 -2.65 -0.45 -2.75 -0.55 -3.15 -0.55 -4.15 Q-0.5 -4.25 -0.15 -4.25 L0.2 -4.2 Q0.3 -4.15 0.35 -3.85 L0.35 -2.8 0.4 -2.65" fill="#ffb500" fill-rule="evenodd" stroke="none"/>
    <path d="M-10.85 -0.5 Q-11.25 -0.55 -11.5 -0.9 -11.7 -1.2 -11.7 -1.45 -11.7 -2.7 -10.7 -2.5 -10.35 -2.4 -10.05 -2.15 -9.7 -1.9 -9.7 -1.7 -9.7 -1.65 -9.8 -1.5 L-9.85 -1.3 -9.8 -1.15 -9.75 -1.05 -9.8 -0.9 Q-9.5 -0.75 -9.5 -0.05 -9.5 0.15 -9.65 0.35 -9.9 0.6 -10.3 0.6 -10.75 0.6 -11.0 0.4 -11.15 0.25 -11.15 0.05 -11.15 -0.15 -10.9 -0.45 L-10.85 -0.5 M-31.85 17.35 L-31.75 17.6 Q-31.75 17.8 -32.05 18.25 -32.4 18.8 -32.7 18.8 L-33.35 18.7 Q-34.25 18.7 -34.5 17.8 -34.6 17.55 -34.6 16.75 -34.6 16.3 -34.15 16.25 -33.75 16.2 -33.6 16.8 L-33.3 16.7 Q-33.2 16.7 -32.85 16.9 -32.5 17.15 -32.2 17.15 -31.95 17.15 -31.85 17.35" fill="#ffb500" fill-rule="evenodd" stroke="none"/>
    <path d="M-38.3 37.0 Q-38.7 37.0 -38.85 36.7 -38.95 36.55 -38.95 36.35 -38.95 35.95 -38.65 35.8 -38.3 35.6 -37.3 35.6 L-36.4 35.5 Q-36.05 35.3 -35.35 35.4 -34.95 35.4 -34.5 35.9 -34.1 36.35 -34.1 36.55 -34.1 36.8 -34.55 37.25 -35.05 37.7 -35.45 37.7 -36.05 37.7 -36.45 37.0 L-36.95 37.05 -37.4 36.85 -37.85 36.9 -38.3 37.0" fill="#ffb500" fill-rule="evenodd" stroke="none"/>
    <path d="M-29.6 53.4 L-29.65 53.3 Q-29.65 52.95 -29.3 52.95 -28.95 53.0 -28.85 53.4 -28.45 54.25 -28.45 54.3 -29.15 55.1 -29.25 55.1 L-29.55 55.1 -30.05 55.65 Q-30.7 56.35 -30.95 56.35 -31.3 56.35 -31.3 56.05 -31.3 55.45 -30.35 54.75 L-30.0 54.5 -30.05 54.1 Q-29.9 53.5 -29.6 53.4" fill="#ffb500" fill-rule="evenodd" stroke="none"/>
    <path d="M-11.5 69.1 Q-11.15 69.25 -11.15 69.35 -11.15 69.45 -11.3 69.55 -11.5 69.65 -11.75 69.65 -12.0 69.65 -12.25 69.5 L-12.45 69.35 -13.25 69.25 -13.35 69.7 Q-13.45 70.05 -13.6 70.05 -13.8 70.05 -13.95 69.5 L-13.8 68.95 -13.8 68.8 Q-13.8 68.6 -13.5 68.6 -13.15 68.6 -12.55 68.8 L-12.15 68.95 -12.05 68.9 Q-11.85 68.9 -11.5 69.1" fill="#ffb500" fill-rule="evenodd" stroke="none"/>
    <path d="M12.75 68.2 Q12.75 67.8 13.15 67.8 13.55 67.8 13.6 68.25 13.7 68.6 13.95 68.8 14.2 69.0 14.2 69.25 14.2 69.45 14.1 69.6 14.25 69.85 14.25 70.4 14.25 70.6 14.2 70.7 14.1 70.9 13.85 70.9 13.55 70.9 13.35 70.6 13.25 70.45 13.25 70.35 13.25 70.0 13.3 69.75 13.1 69.6 12.9 69.05 L12.75 68.2 M23.6 64.15 Q23.6 64.3 23.5 64.45 L23.45 64.45 Q24.0 64.85 24.0 65.45 24.0 66.0 23.55 66.0 23.3 66.0 22.8 64.7 22.8 64.55 22.8 64.45 22.65 64.4 22.5 64.2 22.35 63.95 22.35 63.85 22.35 63.65 22.55 63.3 22.8 62.95 23.05 63.2 L23.35 63.65 23.6 64.15" fill="#ffb500" fill-rule="evenodd" stroke="none"/>
  </g>
</svg>
