<?xml version="1.0" encoding="UTF-8" standalone="no"?>
<svg xmlns:xlink="http://www.w3.org/1999/xlink" height="8.3px" width="6.4px" xmlns="http://www.w3.org/2000/svg">
  <g transform="matrix(1.0, 0.0, 0.0, 1.0, 3.2, 4.15)">
    <path d="M0.05 -2.55 L-0.05 -2.5 0.0 -2.35 0.5 -2.6 0.55 -2.45 0.65 -2.45 0.65 -2.45 0.6 -2.35 0.6 -2.3 0.55 -2.3 Q0.5 -2.15 0.2 -1.95 L0.7 -1.0 Q0.75 -0.85 0.65 -0.75 L0.55 -0.7 Q0.45 -0.45 0.3 -0.45 L0.15 -0.5 0.05 -0.5 Q0.0 -0.5 -0.05 -0.5 L-0.05 -0.55 0.1 -0.7 0.0 -0.8 0.3 -0.95 0.35 -1.0 0.3 -1.05 -0.1 -1.85 -0.1 -1.8 -0.85 -1.55 -0.95 -1.5 Q-1.0 -1.45 -1.2 -1.35 -1.45 -1.25 -1.6 -1.25 -1.65 -1.25 -1.65 -1.35 L-1.6 -1.4 -1.65 -1.55 -0.25 -2.2 -0.45 -2.55 -0.15 -2.65 Q-0.05 -2.7 -0.1 -2.65 L0.05 -2.65 0.05 -2.55 M-0.3 -3.95 Q-0.3 -3.6 -0.7 -3.6 L-0.75 -3.55 -0.95 -3.35 -1.55 -3.0 Q-1.95 -2.75 -2.0 -2.75 L-2.1 -2.75 -2.1 -2.75 -2.3 -2.95 Q-1.8 -3.2 -1.4 -3.5 L-0.95 -3.85 -0.75 -4.0 -0.7 -3.95 Q-0.6 -4.1 -0.5 -4.1 -0.4 -4.25 -0.35 -4.15 -0.3 -4.05 -0.3 -3.95 M-1.2 -3.05 Q-1.05 -3.0 -0.8 -2.75 L-0.75 -2.85 -0.7 -2.75 -0.65 -2.65 -0.7 -2.45 Q-0.75 -2.3 -0.85 -2.3 -1.05 -2.3 -1.15 -2.4 L-1.2 -2.5 -1.15 -2.6 -1.4 -2.8 -1.2 -3.05 M-0.3 -3.55 L-0.25 -3.5 -0.2 -3.5 Q-0.1 -3.5 -0.2 -3.4 -0.15 -3.05 -0.25 -2.7 -0.25 -2.7 -0.3 -2.7 L-0.3 -2.7 -0.55 -2.75 -0.55 -3.5 -0.35 -3.5 Q-0.35 -3.6 -0.3 -3.55 M-2.55 -3.0 L-1.05 0.1 -1.3 0.25 -1.5 -0.15 -1.7 -0.55 -1.85 -0.8 -1.95 -0.65 Q-2.1 -0.45 -2.15 -0.4 -2.15 -0.3 -2.25 -0.35 L-2.3 -0.4 Q-2.45 -0.4 -2.45 -0.55 L-2.55 -0.6 -2.05 -1.2 -2.9 -2.95 -2.65 -3.05 Q-2.5 -3.1 -2.55 -3.0 M-2.95 -2.25 L-2.7 -2.1 -2.5 -1.85 -2.35 -1.65 -2.45 -1.6 -2.45 -1.55 Q-2.45 -1.45 -2.5 -1.45 L-2.55 -1.5 -2.65 -1.4 -2.75 -1.6 Q-2.85 -1.6 -3.0 -1.85 L-3.1 -2.0 -3.15 -2.05 -3.15 -2.05 -3.2 -2.15 Q-3.2 -2.4 -2.95 -2.25 L-2.95 -2.25 M-0.55 -1.35 L-0.55 -1.35 -0.25 -1.2 -0.3 -1.1 -0.3 -0.95 -0.25 -0.85 Q-0.25 -0.75 -0.4 -0.75 -0.7 -0.75 -0.9 -0.9 -1.05 -1.05 -1.05 -1.1 L-1.05 -1.2 -0.95 -1.2 -0.85 -1.45 -0.55 -1.35 M-1.35 -2.05 L-1.35 -2.1 -1.5 -1.95 -1.95 -2.4 -1.75 -2.65 Q-1.5 -2.55 -1.25 -2.2 L-1.25 -2.15 -1.25 -2.1 -1.35 -2.05 M-1.4 1.5 L-0.85 1.25 -0.2 0.9 Q0.15 0.6 0.25 0.65 1.15 0.2 1.5 0.1 L1.65 0.0 1.7 0.05 1.75 0.05 1.7 0.1 2.0 0.7 2.0 0.85 Q2.0 1.0 1.9 1.0 1.8 1.0 1.7 0.85 L1.7 0.8 1.6 0.9 1.65 0.95 1.35 1.1 0.7 1.45 0.75 1.6 1.0 1.5 1.35 1.3 Q1.7 1.1 1.8 1.15 1.9 1.2 1.95 1.4 L2.0 1.75 2.05 1.8 Q2.15 1.8 2.15 1.85 L2.05 1.9 Q2.15 2.1 2.25 2.2 L2.3 2.3 2.3 2.55 2.25 2.6 2.15 2.65 Q2.1 2.65 2.05 2.6 L2.05 2.55 1.45 2.95 1.45 3.0 2.9 2.3 3.15 2.15 3.2 2.25 Q3.2 2.3 3.0 2.45 L3.0 2.5 2.6 2.75 2.45 2.8 1.6 3.3 1.8 3.75 1.85 3.95 1.85 4.0 1.8 4.05 1.6 3.85 1.55 3.9 1.45 3.7 1.35 3.55 1.2 3.5 0.55 3.8 Q-0.2 4.15 -0.3 4.15 -0.4 4.15 -0.4 4.05 L-0.25 3.95 -0.3 3.9 1.05 3.2 1.05 3.15 Q0.5 3.4 0.2 3.4 L0.15 3.45 0.1 3.45 Q0.0 3.45 -0.2 2.95 L-0.2 2.95 Q-0.3 2.95 -0.3 2.85 L-0.25 2.75 -0.4 2.4 -0.45 2.25 -0.45 2.2 -0.5 2.05 -0.45 2.0 -0.5 2.0 -0.55 2.0 -0.6 2.05 -0.7 1.8 0.15 1.4 0.15 1.25 0.1 1.1 0.1 1.05 -0.3 1.25 -0.95 1.65 -0.75 2.05 -0.8 2.1 -0.8 2.15 Q-0.8 2.25 -0.9 2.25 L-1.0 2.2 -1.05 2.2 -1.1 2.0 Q-1.2 2.0 -1.3 1.75 L-1.35 1.8 Q-1.45 1.8 -1.45 1.65 L-1.35 1.55 -1.4 1.5 M1.2 0.85 Q1.55 0.65 1.65 0.7 L1.5 0.35 0.4 0.9 0.55 1.2 1.05 0.95 1.2 0.85 M0.0 1.8 L0.05 1.8 0.3 1.7 0.3 1.65 0.0 1.8 M1.0 2.1 L1.1 2.05 1.65 1.75 1.55 1.5 0.85 1.85 1.0 2.1 M0.5 2.05 Q0.2 2.2 -0.05 2.3 L0.05 2.55 Q0.1 2.45 0.6 2.25 L0.5 2.05 M1.8 2.0 L1.1 2.35 1.2 2.55 1.9 2.2 1.8 2.0 M0.75 2.5 L0.2 2.8 0.3 3.0 0.85 2.75 0.75 2.5" fill="#0007cb" fill-rule="evenodd" stroke="none"/>
  </g>
</svg>
