<?xml version="1.0" encoding="UTF-8" standalone="no"?>
<svg xmlns:xlink="http://www.w3.org/1999/xlink" height="7.05px" width="2.95px" xmlns="http://www.w3.org/2000/svg">
  <g transform="matrix(1.0, 0.0, 0.0, 1.0, 1.4, 3.5)">
    <path d="M-1.25 -0.5 L-1.25 -1.0 -1.3 -1.35 -1.3 -1.95 Q-1.3 -2.55 -0.95 -3.0 -0.6 -3.45 -0.05 -3.45 0.05 -3.45 0.15 -3.3 0.25 -3.1 0.35 -3.0 0.5 -2.85 0.65 -2.5 L0.7 -2.2 0.7 -2.1 Q0.75 -2.05 0.8 -2.0 L0.85 -2.0 1.05 -1.7 1.2 -1.45 1.15 -1.45 0.95 -1.25 Q0.8 -1.05 0.65 -1.1 0.55 -0.95 0.3 -0.95 L-0.4 -0.9 -1.0 -0.7 -1.25 -0.5 M1.25 1.05 L1.2 1.5 1.1 1.55 0.85 1.45 Q0.75 1.45 0.6 1.55 L0.4 1.6 0.35 1.6 0.35 1.8 0.4 1.9 0.35 2.0 0.4 2.1 0.35 2.15 0.3 2.2 0.4 2.3 0.3 2.45 Q0.4 2.45 0.4 2.5 L0.35 2.55 0.3 2.65 0.4 2.8 Q0.3 2.8 0.3 2.85 L0.35 3.0 0.45 3.1 0.55 3.05 0.6 3.05 0.65 3.05 Q0.65 3.0 0.8 2.9 L0.95 2.75 0.9 2.55 Q0.9 2.5 0.9 2.45 L0.95 2.35 1.05 2.3 1.15 2.25 1.15 2.3 1.2 2.75 1.15 3.05 Q1.1 3.15 0.95 3.3 L0.65 3.4 0.3 3.45 0.1 3.45 0.0 3.3 -0.05 3.3 Q-0.1 3.2 -0.2 3.2 L-0.3 3.05 -0.3 2.85 -0.2 2.85 Q-0.2 2.9 0.0 2.95 L0.1 2.8 0.15 2.75 0.1 2.55 0.15 2.5 0.2 2.4 0.2 2.15 0.25 1.8 0.2 1.7 0.15 1.7 -0.05 1.9 0.0 2.0 -0.15 2.1 -0.2 2.2 -0.35 2.15 -0.35 2.1 -0.5 1.55 -0.5 1.55 -0.35 1.45 -0.25 1.45 Q-0.15 1.4 -0.15 1.35 L-0.15 1.25 -0.1 1.2 -0.05 1.2 0.05 1.1 Q0.15 1.0 0.2 1.0 L0.3 1.05 0.2 1.1 0.1 1.25 0.15 1.25 0.2 1.25 0.25 1.25 0.3 1.25 Q0.4 1.25 0.45 1.2 0.5 1.1 0.6 1.1 L0.7 1.15 0.95 1.2 Q1.05 1.2 1.25 1.05" fill="#493f3d" fill-rule="evenodd" stroke="none"/>
    <path d="M-1.25 -0.5 L-1.0 -0.7 -0.4 -0.9 0.3 -0.95 Q0.55 -0.95 0.65 -1.1 0.8 -1.05 0.95 -1.25 L1.15 -1.45 1.2 -1.45 1.25 -1.4 1.35 -1.15 1.1 -1.0 Q1.1 -1.0 1.1 -0.9 1.1 -0.8 0.95 -0.8 L0.65 -0.85 0.55 -0.8 0.45 -0.75 0.3 -0.75 0.05 -0.65 -0.05 -0.65 -0.15 -0.65 -0.25 -0.5 -0.25 -0.5 Q-0.3 -0.35 -0.35 -0.3 L-0.5 -0.25 Q-0.6 -0.15 -0.65 -0.15 L-0.8 -0.3 -0.75 -0.35 -0.8 -0.4 Q-0.9 -0.4 -1.05 -0.25 -1.15 -0.25 -1.3 -0.15 L-1.35 -0.25 -1.25 -0.5" fill="#8e7155" fill-rule="evenodd" stroke="none"/>
    <path d="M1.35 -1.15 L1.35 -1.15 1.4 -1.1 1.45 -0.65 1.2 -0.6 1.0 -0.7 0.85 -0.6 0.75 -0.45 0.75 -0.4 Q0.4 -0.25 0.4 -0.15 L0.4 -0.1 0.6 -0.1 0.75 -0.05 0.9 0.05 0.85 0.1 0.75 0.1 Q0.7 0.1 0.7 0.15 L0.7 0.2 0.75 0.2 0.8 0.2 0.85 0.25 1.0 0.2 Q1.1 0.2 1.1 0.25 1.1 0.35 1.2 0.4 L1.25 0.4 1.1 0.45 Q1.05 0.45 1.05 0.5 L1.0 0.55 0.85 0.6 Q0.8 0.6 0.75 0.65 L0.7 0.6 0.65 0.4 Q0.6 0.35 0.55 0.35 0.35 0.45 0.3 0.45 L0.15 0.35 0.2 0.25 0.2 0.2 0.15 0.15 0.0 0.2 Q-0.1 0.1 -0.15 0.1 L-0.15 0.05 Q-0.15 0.0 -0.15 0.0 L-0.15 -0.05 -0.05 -0.35 -0.1 -0.45 -0.2 -0.5 -0.25 -0.5 -0.25 -0.5 -0.15 -0.65 -0.05 -0.65 0.05 -0.65 0.3 -0.75 0.45 -0.75 0.55 -0.8 0.65 -0.85 0.95 -0.8 Q1.1 -0.8 1.1 -0.9 1.1 -1.0 1.1 -1.0 L1.35 -1.15" fill="#464139" fill-rule="evenodd" stroke="none"/>
    <path d="M1.45 -0.65 L1.5 -0.45 Q1.5 -0.2 1.4 0.1 L1.35 0.4 1.3 0.5 1.25 0.7 Q1.2 0.8 1.0 0.85 L0.85 0.75 0.75 0.65 Q0.8 0.6 0.85 0.6 L1.0 0.55 1.05 0.5 Q1.05 0.45 1.1 0.45 L1.25 0.4 1.2 0.4 Q1.1 0.35 1.1 0.25 1.1 0.2 1.0 0.2 L0.85 0.25 0.8 0.2 0.75 0.2 0.7 0.2 0.7 0.15 Q0.7 0.1 0.75 0.1 L0.85 0.1 0.9 0.05 0.75 -0.05 0.6 -0.1 0.4 -0.1 0.4 -0.15 Q0.4 -0.25 0.75 -0.4 L0.75 -0.45 0.85 -0.6 1.0 -0.7 1.2 -0.6 1.45 -0.65 M-0.85 0.55 L-0.85 0.45 -0.95 0.3 -1.1 0.1 -1.05 0.05 -0.9 0.0 -0.85 0.05 -0.7 0.0 Q-0.65 0.0 -0.6 0.05 L-0.5 0.1 -0.35 0.05 -0.25 0.0 -0.15 0.0 Q-0.15 0.0 -0.15 0.05 L-0.15 0.1 Q-0.15 0.2 -0.2 0.2 L-0.4 0.3 -0.6 0.5 Q-0.65 0.55 -0.75 0.55 L-0.85 0.55" fill="#3c2c25" fill-rule="evenodd" stroke="none"/>
    <path d="M1.3 0.5 L1.25 0.7 1.25 1.05 Q1.05 1.2 0.95 1.2 L0.7 1.15 0.6 1.1 Q0.5 1.1 0.45 1.2 0.4 1.25 0.3 1.25 L0.25 1.25 0.2 1.25 0.15 1.25 0.1 1.25 0.2 1.1 0.3 1.05 0.2 1.0 Q0.15 1.0 0.05 1.1 L-0.05 1.2 -0.1 1.2 -0.15 1.25 -0.15 1.35 Q-0.15 1.4 -0.25 1.45 L-0.35 1.45 -0.5 1.55 -0.5 1.55 -0.6 1.1 0.05 0.8 0.15 0.8 0.25 0.7 Q0.3 0.6 0.35 0.6 L0.4 0.6 Q0.4 0.85 0.65 0.85 L1.0 0.85 Q1.2 0.8 1.25 0.7 L1.3 0.5" fill="#392f2e" fill-rule="evenodd" stroke="none"/>
    <path d="M-0.6 1.1 L-0.6 1.1 -0.85 0.55 -0.75 0.55 Q-0.65 0.55 -0.6 0.5 L-0.4 0.3 -0.2 0.2 Q-0.15 0.2 -0.15 0.1 -0.1 0.1 0.0 0.2 L0.15 0.15 0.2 0.2 0.2 0.25 0.15 0.35 0.3 0.45 Q0.35 0.45 0.55 0.35 0.6 0.35 0.65 0.4 L0.7 0.6 0.75 0.65 0.85 0.75 1.0 0.85 0.65 0.85 Q0.4 0.85 0.4 0.6 L0.35 0.6 Q0.3 0.6 0.25 0.7 L0.15 0.8 0.05 0.8 -0.6 1.1" fill="#46332b" fill-rule="evenodd" stroke="none"/>
    <path d="M1.2 1.5 L1.2 1.55 1.15 2.25 1.05 2.3 0.95 2.35 0.9 2.45 Q0.9 2.5 0.9 2.55 L0.95 2.75 0.8 2.9 Q0.65 3.0 0.65 3.05 L0.6 3.05 0.55 3.05 0.45 3.1 0.35 3.0 0.3 2.85 Q0.3 2.8 0.4 2.8 L0.3 2.65 0.35 2.55 0.4 2.5 Q0.4 2.45 0.3 2.45 L0.4 2.3 0.3 2.2 0.35 2.15 0.4 2.1 0.35 2.0 0.4 1.9 0.35 1.8 0.35 1.6 0.4 1.6 0.6 1.55 Q0.75 1.45 0.85 1.45 L1.1 1.55 1.2 1.5 M-0.3 2.85 L-0.35 2.15 -0.2 2.2 -0.15 2.1 0.0 2.0 -0.05 1.9 0.15 1.7 0.2 1.7 0.25 1.8 0.2 2.15 0.2 2.4 0.15 2.5 0.1 2.55 0.15 2.75 0.1 2.8 0.0 2.95 Q-0.2 2.9 -0.2 2.85 L-0.3 2.85" fill="#574c4a" fill-rule="evenodd" stroke="none"/>
    <path d="M-1.1 0.1 L-1.25 -0.1 -1.3 -0.15 Q-1.15 -0.25 -1.05 -0.25 -0.9 -0.4 -0.8 -0.4 L-0.75 -0.35 -0.8 -0.3 -0.65 -0.15 Q-0.6 -0.15 -0.5 -0.25 L-0.35 -0.3 Q-0.3 -0.35 -0.25 -0.5 L-0.2 -0.5 -0.1 -0.45 -0.05 -0.35 -0.15 -0.05 -0.15 0.0 -0.25 0.0 -0.35 0.05 -0.5 0.1 -0.6 0.05 Q-0.65 0.0 -0.7 0.0 L-0.85 0.05 -0.9 0.0 -1.05 0.05 -1.1 0.1" fill="#594137" fill-rule="evenodd" stroke="none"/>
    <path d="M1.2 -1.45 L1.05 -1.7 0.85 -2.0 0.8 -2.0 Q0.75 -2.05 0.7 -2.1 L0.7 -2.2 0.65 -2.5 Q0.5 -2.85 0.35 -3.0 0.25 -3.1 0.15 -3.3 0.05 -3.45 -0.05 -3.45 -0.6 -3.45 -0.95 -3.0 -1.3 -2.55 -1.3 -1.95 L-1.3 -1.35 -1.25 -1.0 -1.25 -0.5 -1.35 -0.25 -1.3 -0.15 -1.25 -0.1 -1.1 0.1 -0.95 0.3 -0.85 0.45 -0.85 0.55 -0.6 1.1 -0.6 1.1 -0.5 1.55 -0.35 2.1 -0.35 2.15 -0.3 2.85 -0.3 3.05 -0.2 3.2 Q-0.1 3.2 -0.05 3.3 L0.0 3.3 0.1 3.45 0.3 3.45 0.65 3.4 0.95 3.3 Q1.1 3.15 1.15 3.05 L1.2 2.75 1.15 2.3 1.15 2.25 1.2 1.55 1.2 1.5 1.25 1.05 1.25 0.7 1.3 0.5 1.35 0.4 1.4 0.1 Q1.5 -0.2 1.5 -0.45 L1.45 -0.65 1.4 -1.1 1.35 -1.15 1.35 -1.15 1.25 -1.4 1.2 -1.45 Z" fill="none" stroke="#000000" stroke-linecap="round" stroke-linejoin="round" stroke-opacity="0.4509804" stroke-width="0.1"/>
  </g>
</svg>
