<?xml version="1.0" encoding="UTF-8" standalone="no"?>
<svg xmlns:xlink="http://www.w3.org/1999/xlink" height="7.0px" width="2.9px" xmlns="http://www.w3.org/2000/svg">
  <g transform="matrix(1.0, 0.0, 0.0, 1.0, 1.45, 3.45)">
    <path d="M0.55 -2.7 L0.5 -2.75 0.45 -2.65 Q0.45 -2.5 0.55 -2.35 0.65 -2.25 0.75 -2.2 L0.8 -2.2 0.8 -2.15 0.85 -2.15 0.85 -2.05 0.85 -1.9 0.8 -1.85 0.75 -1.8 0.75 -1.7 0.7 -1.6 0.95 -1.25 1.05 -0.9 1.0 -0.85 0.95 -0.75 0.95 -0.75 1.0 -0.75 1.1 -0.7 1.05 -0.65 1.05 -0.6 Q1.1 -0.4 1.2 -0.25 L1.2 -0.2 1.2 -0.15 Q1.1 -0.1 1.1 -0.05 L1.15 0.05 1.05 0.15 1.1 0.25 Q1.05 0.25 1.0 0.25 L0.95 0.35 1.05 0.45 1.05 0.5 Q1.05 0.6 1.15 0.7 L1.05 1.0 1.05 1.05 Q1.05 1.25 0.95 1.3 0.9 1.35 0.9 1.4 L0.95 1.5 1.0 1.6 1.0 1.8 Q0.95 1.9 0.95 2.0 L0.95 2.05 1.0 2.15 1.0 2.2 0.95 2.35 1.0 2.5 0.95 2.5 0.9 2.5 Q0.85 2.5 0.85 2.55 L0.95 2.65 Q1.0 2.7 1.0 2.8 L0.7 3.0 Q0.5 3.0 0.55 2.75 L0.4 2.65 0.35 2.55 0.5 2.35 Q0.5 2.25 0.4 2.2 L0.55 2.15 0.6 2.05 0.6 1.9 Q0.35 1.9 0.35 1.8 L0.4 1.7 0.45 1.65 0.4 1.5 Q0.4 1.45 0.5 1.4 L0.55 1.25 Q0.55 1.2 0.45 1.1 0.35 1.05 0.35 0.95 L0.4 0.8 0.4 0.7 0.35 0.6 0.55 0.4 Q0.55 0.35 0.45 0.3 L0.4 0.25 Q0.4 0.15 0.7 -0.05 L0.6 -0.1 0.25 0.05 0.2 0.0 0.15 0.0 Q0.15 -0.1 0.2 -0.1 L0.25 -0.15 0.2 -0.3 0.15 -0.4 Q0.15 -0.7 0.05 -0.75 -0.1 -0.85 -0.1 -0.95 L-0.05 -1.05 0.0 -1.15 Q0.0 -1.3 -0.15 -1.3 -0.25 -1.3 -0.25 -1.4 L-0.2 -1.6 -0.25 -1.75 -0.2 -1.9 -0.15 -2.05 -0.25 -2.15 -0.3 -2.25 -0.35 -2.5 -0.25 -2.6 Q-0.15 -2.7 -0.15 -2.75 L-0.2 -2.85 -0.3 -2.9 -0.25 -3.0 Q-0.1 -3.0 0.05 -3.15 L0.2 -3.25 Q0.35 -3.05 0.55 -2.7 M-0.2 3.15 Q-0.3 2.95 -0.4 2.4 L-0.4 2.2 -0.6 1.25 -0.65 1.1 Q-0.7 1.0 -0.95 0.5 L-1.05 0.25 -1.25 -0.15 -1.35 -1.4 Q-1.35 -1.85 -1.3 -2.2 L-1.2 -2.1 Q-1.1 -2.0 -1.1 -1.95 L-1.15 -1.85 -1.15 -1.75 -1.1 -1.6 Q-1.05 -1.5 -1.05 -1.4 L-1.1 -1.0 Q-1.1 -0.55 -0.85 -0.55 L-0.75 -0.45 -0.7 -0.45 -0.6 -0.3 -0.65 -0.25 -0.75 -0.2 -0.7 -0.05 -0.6 -0.05 -0.6 -0.05 -0.5 0.0 -0.45 0.05 -0.5 0.1 -0.6 0.25 -0.6 0.25 -0.55 0.35 -0.6 0.5 -0.3 1.0 -0.35 1.1 -0.45 1.2 -0.3 1.35 -0.2 1.3 Q-0.25 1.4 -0.1 1.5 L-0.2 1.65 -0.25 1.65 -0.2 1.7 Q-0.35 1.9 -0.35 2.05 L-0.25 2.25 -0.25 2.3 -0.2 2.35 -0.25 2.4 Q0.1 2.55 0.1 2.65 L0.05 2.7 0.0 2.8 0.05 2.95 Q-0.05 2.9 -0.15 3.05 L-0.2 3.15" fill="#d7d4c5" fill-rule="evenodd" stroke="none"/>
    <path d="M0.8 -2.2 L0.75 -2.2 Q0.65 -2.25 0.55 -2.35 0.45 -2.5 0.45 -2.65 L0.5 -2.75 0.55 -2.7 0.8 -2.45 0.85 -2.2 0.8 -2.2 0.8 -2.2 M1.0 2.15 L0.95 2.05 0.95 2.0 Q0.95 1.9 1.0 1.8 L1.05 1.75 1.1 1.75 1.15 1.8 Q1.25 1.85 1.3 1.95 L1.35 2.05 Q1.3 2.15 1.15 2.2 L1.15 2.25 1.0 2.15 M1.15 0.7 Q1.05 0.6 1.05 0.5 1.05 0.4 1.2 0.35 L1.25 0.35 1.3 0.35 1.4 0.45 1.4 0.6 1.2 0.8 1.15 0.8 1.15 0.7 M1.2 -0.2 L1.2 -0.25 Q1.1 -0.4 1.05 -0.6 L1.05 -0.65 1.1 -0.7 1.15 -0.75 1.15 -0.75 1.25 -0.8 1.25 -0.8 1.25 -0.85 1.3 -0.8 Q1.4 -0.55 1.4 -0.3 L1.4 -0.2 1.3 -0.1 1.3 -0.15 1.25 -0.15 1.2 -0.2 M0.95 -1.85 L1.0 -1.9 Q1.0 -1.8 1.1 -1.7 L1.2 -1.6 1.25 -1.45 1.25 -1.4 Q1.2 -1.3 1.15 -1.3 L1.15 -1.3 1.1 -1.3 0.95 -1.4 Q0.8 -1.5 0.8 -1.65 L0.8 -1.7 0.9 -1.85 0.95 -1.85 M-0.25 2.25 Q-0.25 2.15 -0.15 2.05 -0.1 2.0 0.0 2.0 L0.0 2.0 0.05 2.0 Q0.1 2.0 0.2 2.05 0.25 2.15 0.25 2.25 0.25 2.35 0.2 2.4 L0.05 2.5 0.0 2.5 Q-0.1 2.5 -0.15 2.4 L-0.2 2.35 -0.25 2.3 -0.25 2.25 M-0.6 -2.05 Q-0.7 -1.95 -0.75 -1.95 L-0.8 -1.95 Q-0.9 -1.95 -0.95 -2.05 -1.05 -2.15 -1.05 -2.25 L-0.95 -2.4 Q-0.9 -2.5 -0.8 -2.5 L-0.6 -2.4 -0.55 -2.25 Q-0.55 -2.15 -0.6 -2.05 M-0.95 -0.75 Q-1.05 -0.8 -1.05 -0.9 L-0.95 -1.1 Q-0.9 -1.15 -0.8 -1.15 L-0.75 -1.15 Q-0.7 -1.15 -0.6 -1.1 L-0.55 -0.9 Q-0.55 -0.8 -0.6 -0.75 -0.65 -0.65 -0.75 -0.65 L-0.8 -0.65 Q-0.9 -0.65 -0.95 -0.75 M-0.3 0.4 L-0.2 0.35 Q-0.1 0.35 0.0 0.45 0.05 0.5 0.05 0.6 0.05 0.75 0.0 0.8 L-0.05 0.85 -0.2 0.9 Q-0.3 0.9 -0.35 0.8 -0.45 0.75 -0.45 0.6 -0.45 0.5 -0.35 0.45 L-0.3 0.4" fill="#4a433b" fill-rule="evenodd" stroke="none"/>
    <path d="M0.2 -3.25 L0.05 -3.15 Q-0.1 -3.0 -0.25 -3.0 L-0.3 -2.9 -0.2 -2.85 -0.15 -2.75 Q-0.15 -2.7 -0.25 -2.6 L-0.35 -2.5 -0.3 -2.25 -0.25 -2.15 -0.15 -2.05 -0.2 -1.9 -0.25 -1.75 -0.2 -1.6 -0.25 -1.4 Q-0.25 -1.3 -0.15 -1.3 0.0 -1.3 0.0 -1.15 L-0.05 -1.05 -0.1 -0.95 Q-0.1 -0.85 0.05 -0.75 0.15 -0.7 0.15 -0.4 L0.2 -0.3 0.25 -0.15 0.2 -0.1 Q0.15 -0.1 0.15 0.0 L0.1 -0.15 0.05 -0.45 -0.1 -0.65 Q-0.2 -0.75 -0.2 -0.9 L-0.2 -1.15 -0.35 -1.65 -0.3 -2.0 -0.4 -2.5 -0.45 -2.75 Q-0.45 -2.95 -0.35 -3.05 -0.3 -3.15 -0.3 -3.25 L-0.4 -3.4 -0.15 -3.4 Q0.0 -3.4 0.2 -3.25 M0.2 0.0 L0.25 0.05 0.6 -0.1 0.7 -0.05 Q0.4 0.15 0.4 0.25 L0.45 0.3 Q0.55 0.35 0.55 0.4 L0.35 0.6 0.4 0.7 0.4 0.8 0.35 0.95 Q0.35 1.05 0.45 1.1 0.55 1.2 0.55 1.25 L0.5 1.4 Q0.4 1.45 0.4 1.5 L0.45 1.65 0.4 1.7 0.35 1.8 Q0.35 1.9 0.6 1.9 L0.6 2.05 0.55 2.15 0.4 2.2 Q0.5 2.25 0.5 2.35 L0.35 2.55 0.4 2.65 0.55 2.75 Q0.5 3.0 0.7 3.0 L1.0 2.8 Q1.0 2.7 0.95 2.65 L0.85 2.55 Q0.85 2.5 0.9 2.5 L0.95 2.5 1.0 2.5 0.95 2.35 1.0 2.2 1.0 2.15 1.15 2.25 1.15 2.2 1.2 2.85 Q1.2 3.05 0.8 3.3 0.45 3.45 0.2 3.45 -0.05 3.45 -0.2 3.15 L-0.2 3.15 -0.15 3.05 Q-0.05 2.9 0.05 2.95 L0.0 2.8 0.05 2.7 0.1 2.65 Q0.1 2.55 -0.25 2.4 L-0.2 2.35 -0.15 2.4 Q-0.1 2.5 0.0 2.5 L0.05 2.5 0.2 2.4 Q0.25 2.35 0.25 2.25 0.25 2.15 0.2 2.05 0.1 2.0 0.05 2.0 L0.0 2.0 0.0 2.0 Q-0.1 2.0 -0.15 2.05 -0.25 2.15 -0.25 2.25 L-0.35 2.05 Q-0.35 1.9 -0.2 1.7 L-0.25 1.65 -0.2 1.65 -0.1 1.5 Q-0.25 1.4 -0.2 1.3 L-0.3 1.35 -0.45 1.2 -0.35 1.1 -0.3 1.0 -0.6 0.5 -0.55 0.35 -0.6 0.25 -0.6 0.25 -0.5 0.1 -0.45 0.05 -0.5 0.0 -0.6 -0.05 -0.6 -0.05 -0.7 -0.05 -0.75 -0.2 -0.65 -0.25 -0.6 -0.3 -0.7 -0.45 -0.75 -0.45 -0.85 -0.55 Q-1.1 -0.55 -1.1 -1.0 L-1.05 -1.4 Q-1.05 -1.5 -1.1 -1.6 L-1.15 -1.75 -1.15 -1.85 -1.1 -1.95 Q-1.1 -2.0 -1.2 -2.1 L-1.3 -2.2 Q-1.2 -2.75 -0.95 -3.05 L-0.85 -2.95 -0.55 -2.75 -0.45 -2.5 -0.45 -2.4 -0.35 -2.05 Q-0.35 -1.95 -0.45 -1.75 L-0.6 -1.6 -0.5 -1.45 -0.45 -1.35 -0.3 -0.95 -0.35 -0.8 -0.4 -0.6 -0.35 -0.45 -0.2 -0.2 -0.15 -0.25 0.0 0.0 0.15 0.25 0.15 0.85 0.1 0.95 0.15 1.1 0.05 1.25 0.15 1.4 0.25 1.55 0.2 1.75 0.35 2.05 0.4 2.05 0.4 2.0 0.35 1.85 Q0.25 1.75 0.3 1.65 L0.3 1.3 0.25 0.6 0.3 0.45 0.35 0.3 0.25 0.1 0.2 0.0 M1.0 1.8 L1.0 1.6 0.95 1.5 0.9 1.4 Q0.9 1.35 0.95 1.3 1.05 1.25 1.05 1.05 L1.05 1.0 1.15 0.7 1.15 0.8 1.2 0.8 1.15 1.8 1.1 1.75 1.05 1.75 1.0 1.8 M1.05 0.5 L1.05 0.45 0.95 0.35 1.0 0.25 Q1.05 0.25 1.1 0.25 L1.05 0.15 1.15 0.05 1.1 -0.05 Q1.1 -0.1 1.2 -0.15 L1.2 -0.2 1.25 -0.15 1.3 -0.15 1.3 -0.15 1.25 0.35 1.2 0.35 Q1.05 0.4 1.05 0.5 M1.1 -0.7 L1.0 -0.75 0.95 -0.75 0.95 -0.75 1.0 -0.85 1.05 -0.9 0.95 -1.25 0.7 -1.6 0.75 -1.7 0.75 -1.8 0.8 -1.85 0.85 -1.9 0.85 -2.05 0.85 -2.15 0.85 -2.05 0.95 -1.85 0.9 -1.85 0.8 -1.7 0.8 -1.65 Q0.8 -1.5 0.95 -1.4 L1.1 -1.3 1.15 -1.3 1.2 -1.05 1.25 -0.9 1.25 -0.8 1.25 -0.8 1.15 -0.75 1.15 -0.75 1.1 -0.7 M-0.6 -2.05 Q-0.55 -2.15 -0.55 -2.25 L-0.6 -2.4 -0.8 -2.5 Q-0.9 -2.5 -0.95 -2.4 L-1.05 -2.25 Q-1.05 -2.15 -0.95 -2.05 -0.9 -1.95 -0.8 -1.95 L-0.75 -1.95 Q-0.7 -1.95 -0.6 -2.05 M-0.3 0.4 L-0.35 0.45 Q-0.45 0.5 -0.45 0.6 -0.45 0.75 -0.35 0.8 -0.3 0.9 -0.2 0.9 L-0.05 0.85 0.0 0.8 Q0.05 0.75 0.05 0.6 0.05 0.5 0.0 0.45 -0.1 0.35 -0.2 0.35 L-0.3 0.4 M-0.95 -0.75 Q-0.9 -0.65 -0.8 -0.65 L-0.75 -0.65 Q-0.65 -0.65 -0.6 -0.75 -0.55 -0.8 -0.55 -0.9 L-0.6 -1.1 Q-0.7 -1.15 -0.75 -1.15 L-0.8 -1.15 Q-0.9 -1.15 -0.95 -1.1 L-1.05 -0.9 Q-1.05 -0.8 -0.95 -0.75" fill="#c2b89a" fill-rule="evenodd" stroke="none"/>
    <path d="M-0.95 -3.05 Q-0.7 -3.3 -0.4 -3.4 L-0.3 -3.25 Q-0.3 -3.15 -0.35 -3.05 -0.45 -2.95 -0.45 -2.75 L-0.4 -2.5 -0.3 -2.0 -0.35 -1.65 -0.2 -1.15 -0.2 -0.9 Q-0.2 -0.75 -0.1 -0.65 L0.05 -0.45 0.1 -0.15 0.15 0.0 0.15 0.0 0.2 0.0 0.25 0.1 0.35 0.3 0.3 0.45 0.25 0.6 0.3 1.3 0.3 1.65 Q0.25 1.75 0.35 1.85 L0.4 2.0 0.4 2.05 0.35 2.05 0.2 1.75 0.25 1.55 0.15 1.4 0.05 1.25 0.15 1.1 0.1 0.95 0.15 0.85 0.15 0.25 0.0 0.0 -0.15 -0.25 -0.2 -0.2 -0.35 -0.45 -0.4 -0.6 -0.35 -0.8 -0.3 -0.95 -0.45 -1.35 -0.5 -1.45 -0.6 -1.6 -0.45 -1.75 Q-0.35 -1.95 -0.35 -2.05 L-0.45 -2.4 -0.45 -2.5 -0.55 -2.75 -0.85 -2.95 -0.95 -3.05" fill="#938b74" fill-rule="evenodd" stroke="none"/>
    <path d="M0.15 0.0 L0.2 0.0 0.15 0.0 0.15 0.0" fill="#d2d0c9" fill-rule="evenodd" stroke="none"/>
    <path d="M0.55 -2.7 Q0.35 -3.05 0.2 -3.25 0.0 -3.4 -0.15 -3.4 L-0.4 -3.4 Q-0.7 -3.3 -0.95 -3.05 -1.2 -2.75 -1.3 -2.2 -1.35 -1.85 -1.35 -1.4 L-1.25 -0.15 -1.05 0.25 -0.95 0.5 Q-0.7 1.0 -0.65 1.1 L-0.6 1.25 -0.4 2.2 -0.4 2.4 Q-0.3 2.95 -0.2 3.15 L-0.2 3.15 Q-0.05 3.45 0.2 3.45 0.45 3.45 0.8 3.3 1.2 3.05 1.2 2.85 L1.15 2.2 Q1.3 2.15 1.35 2.05 L1.3 1.95 Q1.25 1.85 1.15 1.8 L1.1 1.75 1.15 1.8 1.2 0.8 1.4 0.6 1.4 0.45 1.3 0.35 1.25 0.35 1.3 -0.15 1.3 -0.15 1.3 -0.1 1.4 -0.2 1.4 -0.3 Q1.4 -0.55 1.3 -0.8 L1.25 -0.85 1.25 -0.8 1.25 -0.9 1.2 -1.05 1.15 -1.3 1.15 -1.3 Q1.2 -1.3 1.25 -1.4 L1.25 -1.45 1.2 -1.6 1.1 -1.7 Q1.0 -1.8 1.0 -1.9 L0.95 -1.85 0.85 -2.05 0.85 -2.15 0.8 -2.15 0.8 -2.2 0.8 -2.2 0.85 -2.2 0.8 -2.45 0.55 -2.7 Z" fill="none" stroke="#000000" stroke-linecap="round" stroke-linejoin="round" stroke-opacity="0.4509804" stroke-width="0.1"/>
  </g>
</svg>
