<?xml version="1.0" encoding="UTF-8" standalone="no"?>
<svg xmlns:xlink="http://www.w3.org/1999/xlink" height="2.7px" width="4.45px" xmlns="http://www.w3.org/2000/svg">
  <g transform="matrix(1.0, 0.0, 0.0, 1.0, 2.2, 1.35)">
    <path d="M0.2 -0.15 L0.25 -0.1 0.85 0.15 0.85 0.2 0.9 0.2 0.95 0.2 1.05 0.2 1.1 0.2 1.15 0.15 Q1.2 0.1 1.25 0.1 L1.45 0.2 1.5 0.25 1.55 0.3 1.6 0.3 1.8 0.5 1.85 0.5 1.9 0.6 1.95 0.6 Q1.95 0.8 2.1 0.95 L2.15 1.0 2.15 1.1 Q2.25 1.2 2.25 1.3 L1.95 1.35 1.85 1.35 1.6 1.3 1.55 1.3 1.3 1.25 1.2 1.25 1.1 1.25 0.8 1.25 0.6 1.2 0.55 1.2 0.4 1.15 0.35 1.15 0.25 1.1 0.25 1.05 0.2 1.0 0.15 0.95 0.05 0.95 0.0 0.95 -0.05 0.95 -0.1 0.95 -0.2 0.9 -0.25 0.9 -0.45 0.8 -0.5 0.8 -0.65 0.75 -0.7 0.75 -0.9 0.75 -0.95 0.75 -1.2 0.75 -1.25 0.75 -1.75 0.65 -1.8 0.65 -2.05 0.6 -2.1 0.55 Q-2.2 0.55 -2.2 0.4 L-2.2 0.4 -2.2 0.05 -2.15 -0.1 -2.15 -0.35 -2.15 -0.5 -2.15 -0.6 -2.1 -0.75 -2.05 -0.95 -2.05 -0.95 -1.95 -1.05 -1.85 -1.1 -1.75 -1.2 -1.6 -1.3 -1.55 -1.3 -1.4 -1.35 -1.35 -1.35 -0.9 -1.35 -0.9 -1.35 -0.6 -1.3 -0.55 -1.3 -0.45 -1.15 -0.45 -1.1 -0.4 -1.05 -0.35 -0.95 -0.3 -0.85 -0.3 -0.85 -0.3 -0.75 -0.25 -0.7 -0.2 -0.6 -0.15 -0.5 0.0 -0.3 0.05 -0.3 Q0.1 -0.2 0.2 -0.15" fill="#808080" fill-rule="evenodd" stroke="none"/>
  </g>
</svg>
