<?xml version="1.0" encoding="UTF-8" standalone="no"?>
<svg xmlns:xlink="http://www.w3.org/1999/xlink" height="3.05px" width="4.8px" xmlns="http://www.w3.org/2000/svg">
  <g transform="matrix(1.0, 0.0, 0.0, 1.0, 2.45, 1.55)">
    <path d="M-0.35 -1.25 L-0.3 -1.2 -0.3 -1.1 -0.2 -0.95 -0.15 -0.85 -0.1 -0.75 0.0 -0.6 Q0.05 -0.5 0.15 -0.5 L0.2 -0.4 0.25 -0.4 0.3 -0.35 Q0.35 -0.3 0.35 -0.3 L0.35 -0.3 0.4 -0.3 0.45 -0.25 0.5 -0.3 0.55 -0.3 0.6 -0.3 0.55 -0.25 0.45 -0.1 0.4 -0.05 0.25 0.0 0.15 0.0 0.1 -0.05 0.05 -0.05 0.0 -0.2 0.0 -0.35 Q0.0 -0.4 -0.25 -0.5 L-0.3 -0.7 -0.35 -0.8 -0.45 -0.9 -0.7 -1.0 -0.8 -1.15 -0.75 -1.15 -0.45 -1.15 Q-0.4 -1.2 -0.35 -1.25 M1.05 -0.1 L1.05 -0.1 1.1 -0.1 1.1 -0.1 1.15 -0.1 1.15 -0.1 1.25 -0.05 1.3 -0.05 1.35 -0.05 1.4 0.0 1.55 0.05 1.65 0.15 1.75 0.25 1.8 0.25 1.65 0.4 1.4 0.25 1.05 -0.1 M1.9 0.45 L2.0 0.55 2.0 0.6 2.05 0.65 2.15 0.8 2.25 1.0 2.25 1.2 2.3 1.35 2.3 1.4 2.25 1.3 2.15 1.0 1.95 0.65 1.85 0.5 1.9 0.45 M-1.3 -0.3 L-1.25 -0.45 -1.2 -0.25 -1.05 -0.1 -0.95 0.0 -0.8 0.15 -1.05 0.15 -1.25 0.0 -1.3 -0.3" fill="#91867e" fill-rule="evenodd" stroke="none"/>
    <path d="M0.75 -0.2 L0.75 -0.15 0.8 -0.1 0.9 -0.05 1.0 -0.05 1.0 -0.05 1.05 -0.1 1.4 0.25 1.65 0.4 1.6 0.5 1.35 0.8 Q1.25 0.95 1.25 1.05 L1.25 1.2 1.1 1.15 Q1.0 1.15 0.8 1.05 L0.55 0.9 0.5 0.9 0.4 0.85 Q0.35 0.8 0.35 0.7 0.35 0.6 0.45 0.3 L0.65 -0.05 0.75 -0.2 M2.3 1.4 L2.25 1.4 2.2 1.4 2.1 1.4 2.0 1.45 1.95 1.45 1.9 1.45 1.85 1.45 1.8 1.4 1.5 1.25 1.5 1.1 1.55 1.05 Q1.55 1.0 1.8 0.55 L1.85 0.5 1.95 0.65 2.15 1.0 2.25 1.3 2.3 1.4 M1.05 1.4 L1.1 1.45 0.9 1.4 0.75 1.4 0.7 1.4 0.65 1.35 0.5 1.35 0.45 1.35 0.35 1.3 0.2 1.25 0.0 0.95 Q-0.05 0.9 -0.2 0.85 L-0.75 0.6 -0.95 0.55 -1.1 0.55 -1.1 0.55 -1.15 0.5 -1.2 0.5 -1.25 0.45 -1.35 0.45 -1.6 0.35 -1.85 0.2 Q-1.75 0.25 -1.75 0.25 -1.65 0.35 -1.6 0.3 L-1.35 0.4 -1.15 0.45 -1.1 0.45 -0.65 0.55 -0.15 0.75 -0.05 0.85 Q0.05 0.9 0.15 0.9 L0.2 0.95 0.25 0.95 0.3 1.05 0.4 1.2 0.65 1.25 Q0.9 1.3 1.05 1.4 M-0.8 -1.15 L-0.7 -1.0 -0.45 -0.9 -0.35 -0.8 -0.3 -0.7 -0.25 -0.5 Q0.0 -0.4 0.0 -0.35 L0.0 -0.2 0.05 -0.05 0.1 -0.05 0.15 0.0 0.25 0.0 0.4 -0.05 0.35 0.05 0.25 0.2 0.2 0.4 Q0.15 0.5 0.15 0.65 L0.0 0.55 0.0 0.55 -0.25 0.5 -0.55 0.3 Q-0.8 0.2 -0.85 0.2 L-1.05 0.15 -1.1 0.1 -1.35 0.0 -1.55 0.1 -1.6 -0.05 -1.5 -0.4 -1.35 -0.85 -1.25 -0.95 -1.1 -1.05 -0.8 -1.15 M-1.3 -0.3 L-1.25 0.0 -1.05 0.15 -0.8 0.15 -0.95 0.0 -1.05 -0.1 -1.2 -0.25 -1.25 -0.45 -1.3 -0.3" fill="#5c5b4c" fill-rule="evenodd" stroke="none"/>
    <path d="M0.6 -0.3 L0.65 -0.3 0.65 -0.35 0.7 -0.35 0.7 -0.3 0.7 -0.3 0.75 -0.2 0.65 -0.05 0.45 0.3 Q0.35 0.6 0.35 0.7 0.35 0.8 0.4 0.85 L0.5 0.9 0.55 0.9 0.8 1.05 Q1.0 1.15 1.1 1.15 L1.25 1.2 1.25 1.05 Q1.25 0.95 1.35 0.8 L1.6 0.5 1.65 0.4 1.8 0.25 1.9 0.4 1.9 0.45 1.85 0.5 1.8 0.55 Q1.55 1.0 1.55 1.05 L1.5 1.1 1.5 1.25 1.8 1.4 1.85 1.45 1.8 1.45 1.55 1.4 1.3 1.4 1.05 1.4 Q0.9 1.3 0.65 1.25 L0.4 1.2 0.3 1.05 0.25 0.95 0.2 0.95 0.15 0.9 Q0.05 0.9 -0.05 0.85 L-0.15 0.75 -0.65 0.55 -1.1 0.45 -1.15 0.45 -1.35 0.4 -1.6 0.3 Q-1.65 0.35 -1.75 0.25 -1.75 0.25 -1.85 0.2 L-1.6 0.35 -1.35 0.45 -1.25 0.45 -1.2 0.5 -1.15 0.5 -1.1 0.55 -1.1 0.55 -0.95 0.55 -0.75 0.6 -0.2 0.85 Q-0.05 0.9 0.0 0.95 L0.2 1.25 0.35 1.3 0.3 1.3 0.25 1.3 0.2 1.3 0.15 1.25 0.1 1.25 0.1 1.2 0.05 1.05 0.0 1.0 -0.1 0.95 -0.15 0.95 -0.15 0.95 -0.25 0.9 -0.3 0.9 -0.35 0.9 -0.5 0.9 -0.55 0.9 -0.65 0.9 -0.7 0.9 -0.8 0.9 -1.0 0.85 -1.05 0.8 -1.25 0.75 -1.65 0.75 -2.0 0.75 Q-2.3 0.75 -2.35 0.65 L-2.35 -0.3 -2.3 -0.7 -2.3 -0.75 -2.25 -0.8 -2.25 -0.95 -2.15 -1.1 -2.15 -1.15 -2.1 -1.2 -2.05 -1.35 -2.05 -1.35 -1.9 -1.45 -1.55 -1.5 -1.15 -1.5 -0.9 -1.5 -0.85 -1.45 -0.75 -1.45 -0.65 -1.45 Q-0.65 -1.45 -0.6 -1.4 L-0.55 -1.35 Q-0.5 -1.4 -0.35 -1.25 L-0.3 -1.25 -0.35 -1.25 Q-0.4 -1.2 -0.45 -1.15 L-0.75 -1.15 -0.8 -1.15 -1.1 -1.05 -1.25 -0.95 -1.35 -0.85 -1.5 -0.4 -1.6 -0.05 -1.55 0.1 -1.35 0.0 -1.1 0.1 -1.05 0.15 -0.85 0.2 Q-0.8 0.2 -0.55 0.3 L-0.25 0.5 0.0 0.55 0.0 0.55 0.15 0.65 Q0.15 0.5 0.2 0.4 L0.25 0.2 0.35 0.05 0.4 -0.05 0.45 -0.1 0.55 -0.25 0.6 -0.3 M0.9 1.4 L0.8 1.4 0.75 1.4 0.7 1.4 0.75 1.4 0.9 1.4 M0.65 1.35 L0.6 1.35 0.45 1.35 0.5 1.35 0.65 1.35" fill="#3b3e2d" fill-rule="evenodd" stroke="none"/>
    <path d="M-0.35 -1.25 L-0.3 -1.2 -0.3 -1.1 -0.2 -0.95 -0.15 -0.85 -0.1 -0.75 0.0 -0.6 Q0.05 -0.5 0.15 -0.5 L0.2 -0.4 0.25 -0.4 0.3 -0.35 Q0.35 -0.3 0.35 -0.3 L0.35 -0.3 0.4 -0.3 0.45 -0.25 0.5 -0.3 0.55 -0.3 0.6 -0.3 0.65 -0.3 0.65 -0.35 0.7 -0.35 0.7 -0.3 0.7 -0.3 0.75 -0.2 0.75 -0.15 0.8 -0.1 0.9 -0.05 1.0 -0.05 1.0 -0.05 1.05 -0.1 1.05 -0.1 1.1 -0.1 1.1 -0.1 1.15 -0.1 1.15 -0.1 1.25 -0.05 1.3 -0.05 1.35 -0.05 1.4 0.0 1.55 0.05 1.65 0.15 1.75 0.25 1.8 0.25 1.9 0.4 1.9 0.45 2.0 0.55 2.0 0.6 2.05 0.65 2.15 0.8 2.25 1.0 2.25 1.2 2.3 1.35 2.3 1.4 2.25 1.4 2.2 1.4 2.1 1.4 2.0 1.45 1.95 1.45 1.9 1.45 1.85 1.45 1.8 1.45 1.55 1.4 1.3 1.4 1.05 1.4 1.1 1.45 0.9 1.4 0.8 1.4 0.75 1.4 0.7 1.4 0.65 1.35 0.6 1.35 0.45 1.35 0.35 1.3 0.3 1.3 0.25 1.3 0.2 1.3 0.15 1.25 0.1 1.25 0.1 1.2 0.05 1.05 0.0 1.0 -0.1 0.95 -0.15 0.95 -0.15 0.95 -0.25 0.9 -0.3 0.9 -0.35 0.9 -0.5 0.9 -0.55 0.9 -0.65 0.9 -0.7 0.9 -0.8 0.9 -1.0 0.85 -1.05 0.8 -1.25 0.75 -1.65 0.75 -2.0 0.75 Q-2.3 0.75 -2.35 0.65 L-2.35 -0.3 -2.3 -0.7 -2.3 -0.75 -2.25 -0.8 -2.25 -0.95 -2.15 -1.1 -2.15 -1.15 -2.1 -1.2 -2.05 -1.35 -2.05 -1.35 M-0.85 -1.45 L-0.75 -1.45 -0.65 -1.45 Q-0.65 -1.45 -0.6 -1.4 L-0.55 -1.35 Q-0.5 -1.4 -0.35 -1.25 L-0.3 -1.25 -0.35 -1.25" fill="none" stroke="#000000" stroke-linecap="round" stroke-linejoin="round" stroke-opacity="0.4509804" stroke-width="0.1"/>
  </g>
</svg>
