<?xml version="1.0" encoding="UTF-8" standalone="no"?>
<svg xmlns:xlink="http://www.w3.org/1999/xlink" height="3.4px" width="5.3px" xmlns="http://www.w3.org/2000/svg">
  <g transform="matrix(1.0, 0.0, 0.0, 1.0, 2.4, 1.9)">
    <path d="M-0.4 -1.2 L-0.4 -1.2 -0.35 -1.15 -0.3 -1.1 -0.25 -1.05 -0.25 -1.0 -0.2 -1.0 -0.2 -0.9 -0.15 -0.85 -0.15 -0.8 -0.15 -0.75 -0.1 -0.75 -0.05 -0.6 0.0 -0.5 0.0 -0.5 0.05 -0.5 0.05 -0.45 0.1 -0.4 0.15 -0.3 0.15 -0.3 0.2 -0.25 0.2 -0.2 0.25 -0.15 0.25 -0.15 0.3 -0.15 0.35 -0.1 0.35 -0.1 0.4 -0.1 0.45 -0.1 0.45 -0.05 0.55 0.0 0.55 0.0 0.6 0.0 0.65 0.0 0.75 0.05 0.85 0.05 0.95 0.05 1.0 0.05 1.05 0.05 1.1 0.1 1.3 0.2 Q1.45 0.3 1.55 0.3 L1.55 0.2 1.55 0.15 1.6 0.2 1.65 0.25 1.7 0.25 1.7 0.3 1.75 0.3 2.0 0.35 2.15 0.35 2.55 0.3 2.6 0.25 Q2.55 0.45 2.4 0.45 2.3 0.45 2.3 0.4 2.2 0.45 2.2 0.5 L2.3 0.65 2.35 0.75 Q2.35 0.95 2.2 0.95 L1.95 0.8 Q1.85 0.8 1.85 0.85 L1.9 0.95 Q1.9 1.05 1.65 1.05 L1.55 1.05 1.5 1.05 1.45 0.95 1.4 0.85 1.3 0.7 1.25 0.6 1.2 0.6 1.15 0.55 0.75 0.3 Q0.7 0.4 0.75 0.55 0.75 0.65 0.9 0.75 L1.0 0.85 1.1 0.85 1.15 0.85 1.1 0.9 1.1 0.95 Q0.95 1.0 0.9 1.0 L0.8 1.05 0.7 1.05 Q0.55 1.05 0.6 1.15 L0.85 1.15 Q1.0 1.15 0.9 1.25 L0.85 1.35 0.8 1.3 0.65 1.3 0.8 1.25 Q0.8 1.2 0.7 1.2 L0.55 1.2 0.4 1.2 0.3 1.15 Q0.4 1.15 0.45 1.05 L0.4 1.05 0.3 1.05 0.25 1.0 0.3 0.95 0.4 0.8 0.3 0.85 0.15 0.85 -0.05 0.8 Q-0.05 0.75 0.1 0.75 0.25 0.7 0.25 0.65 0.25 0.65 0.35 0.6 L0.45 0.6 0.55 0.55 0.55 0.5 0.4 0.5 Q0.25 0.55 0.2 0.5 L0.0 0.45 -0.2 0.45 Q-0.3 0.5 -0.3 0.6 L-0.25 0.65 -0.25 0.75 Q-0.4 0.7 -0.45 0.6 L-0.5 0.4 -0.75 0.5 -0.95 0.6 Q-1.0 0.45 -1.15 0.25 L-1.35 -0.05 -1.55 -0.15 -1.75 -0.3 Q-1.95 -0.45 -2.05 -0.55 L-2.05 -0.7 -2.1 -0.8 -2.1 -0.8 -2.05 -1.05 -2.0 -1.2 -1.95 -1.2 -1.95 -1.2 Q-2.0 -1.05 -1.85 -1.1 L-1.75 -1.1 -1.65 -1.2 -1.55 -1.4 -1.5 -1.45 -1.45 -1.45 -1.35 -1.45 -1.25 -1.45 -1.25 -1.45 -1.2 -1.35 -1.15 -1.0 -1.15 -0.95 -1.1 -0.8 -1.15 -0.8 -1.2 -0.9 Q-1.25 -1.0 -1.3 -1.0 L-1.35 -1.0 -1.35 -1.0 -1.3 -1.05 -1.35 -1.05 -1.35 -1.1 -1.35 -1.15 -1.35 -1.15 -1.4 -1.15 -1.4 -1.2 -1.45 -1.2 -1.45 -1.25 -1.5 -1.25 -1.55 -1.2 -1.55 -1.15 -1.6 -1.1 -1.6 -1.05 -1.55 -0.95 -1.55 -0.95 -1.5 -0.95 -1.45 -0.9 -1.45 -0.9 -1.5 -0.8 -1.55 -0.65 Q-1.6 -0.55 -1.65 -0.5 L-1.6 -0.4 Q-1.65 -0.35 -1.75 -0.35 L-1.35 -0.1 -1.05 0.2 -0.9 0.15 -0.85 0.15 -0.85 0.15 -0.8 0.15 -0.8 0.2 -0.75 0.2 -0.75 0.2 -0.65 0.15 -0.6 0.15 -0.6 0.1 -0.6 0.05 -0.65 0.0 -0.65 0.0 -0.65 0.0 -0.65 -0.05 -0.7 -0.1 -0.75 -0.1 -0.75 -0.1 -0.8 -0.1 -0.85 -0.1 -0.85 -0.05 -0.9 0.0 -0.9 -0.05 Q-0.9 -0.2 -0.95 -0.2 -1.05 -0.25 -1.1 -0.35 L-1.1 -0.4 -1.1 -0.45 Q-1.05 -0.5 -0.95 -0.55 L-0.85 -0.4 -0.85 -0.4 -0.8 -0.35 -0.6 -0.15 Q-0.5 -0.35 -0.35 -0.4 L-0.25 -0.45 -0.2 -0.5 -0.15 -0.5 Q-0.1 -0.5 -0.1 -0.55 L-0.1 -0.6 -0.15 -0.65 -0.15 -0.65 -0.2 -0.7 -0.15 -0.7 -0.3 -0.95 -0.3 -1.0 -0.4 -1.15 -0.4 -1.05 -0.5 -1.15 -0.5 -1.15 Q-0.45 -1.2 -0.5 -1.2 L-0.55 -1.2 -0.65 -1.2 -0.6 -1.25 -0.45 -1.25 -0.45 -1.25 -0.4 -1.2 M-0.45 -1.0 L-0.45 -0.95 -0.4 -0.9 -0.55 -0.85 -0.65 -0.8 -0.75 -0.75 -0.75 -0.65 Q-0.75 -0.6 -0.8 -0.6 L-0.8 -0.6 -0.95 -0.85 -0.85 -0.8 Q-0.75 -0.8 -0.7 -0.85 -0.7 -0.9 -0.55 -0.95 L-0.45 -1.0 M-0.35 -0.75 L-0.4 -0.75 -0.55 -0.7 -0.6 -0.75 -0.5 -0.8 -0.35 -0.85 -0.35 -0.75 M1.25 1.15 L1.35 1.05 Q1.3 1.15 1.25 1.15" fill="#3c2125" fill-rule="evenodd" stroke="none"/>
    <path d="M1.05 0.05 L1.1 0.0 1.15 0.0 1.15 0.0 1.2 0.0 1.2 0.05 1.25 0.05 1.3 0.05 1.35 0.1 Q1.4 0.1 1.45 0.15 L1.55 0.15 1.55 0.2 1.55 0.3 Q1.45 0.3 1.3 0.2 L1.1 0.1 1.05 0.05 M2.6 0.25 Q2.7 0.1 2.75 -0.1 L2.85 0.05 2.85 0.25 Q2.85 0.65 2.65 1.0 L2.6 1.0 2.6 1.05 2.45 1.2 2.4 1.3 2.35 1.3 2.35 1.35 2.25 1.35 2.2 1.4 2.25 1.4 2.2 1.4 2.15 1.4 2.1 1.4 2.05 1.4 2.0 1.4 1.95 1.4 1.9 1.4 1.85 1.4 1.8 1.4 1.7 1.4 1.6 1.4 1.5 1.45 1.45 1.4 1.3 1.4 1.25 1.4 1.2 1.4 1.15 1.4 1.1 1.35 0.95 1.35 0.85 1.3 0.85 1.35 0.9 1.25 Q1.0 1.15 0.85 1.15 L0.6 1.15 Q0.55 1.05 0.7 1.05 L0.8 1.05 0.9 1.0 Q0.95 1.0 1.1 0.95 L1.1 0.9 1.15 0.85 1.1 0.85 1.0 0.85 0.9 0.75 Q0.75 0.65 0.75 0.55 0.7 0.4 0.75 0.3 L1.15 0.55 1.2 0.6 1.25 0.6 1.3 0.7 1.4 0.85 1.45 0.95 1.5 1.05 1.55 1.05 1.65 1.05 Q1.9 1.05 1.9 0.95 L1.85 0.85 Q1.85 0.8 1.95 0.8 L2.2 0.95 Q2.35 0.95 2.35 0.75 L2.3 0.65 2.2 0.5 Q2.2 0.45 2.3 0.4 2.3 0.45 2.4 0.45 2.55 0.45 2.6 0.25 M0.65 1.3 L0.6 1.3 0.55 1.3 0.4 1.3 0.45 1.2 0.25 1.25 0.2 1.2 0.15 1.15 0.05 1.05 0.05 1.0 0.1 1.0 0.05 0.9 -0.25 0.85 -0.6 0.7 -0.65 0.75 -0.7 0.8 -0.6 0.85 -0.4 0.85 Q-0.35 0.9 -0.35 0.95 L-0.4 0.95 -0.55 0.85 -0.6 0.85 -0.7 0.85 -0.75 0.85 Q-0.85 0.65 -1.1 0.65 L-1.75 0.55 -2.0 0.5 -2.1 0.4 -2.15 0.3 -2.2 0.2 -2.3 0.2 Q-2.3 -0.05 -2.25 -0.3 L-2.1 -0.8 -2.05 -0.7 -2.05 -0.55 Q-1.95 -0.45 -1.75 -0.3 L-1.55 -0.15 -1.35 -0.05 -1.15 0.25 Q-1.0 0.45 -0.95 0.6 L-0.75 0.5 -0.5 0.4 -0.45 0.6 Q-0.4 0.7 -0.25 0.75 L-0.25 0.65 -0.3 0.6 Q-0.3 0.5 -0.2 0.45 L0.0 0.45 0.2 0.5 Q0.25 0.55 0.4 0.5 L0.55 0.5 0.55 0.55 0.45 0.6 0.35 0.6 Q0.25 0.65 0.25 0.65 0.25 0.7 0.1 0.75 -0.05 0.75 -0.05 0.8 L0.15 0.85 0.3 0.85 0.4 0.8 0.3 0.95 0.25 1.0 0.3 1.05 0.4 1.05 0.45 1.05 Q0.4 1.15 0.3 1.15 L0.4 1.2 0.55 1.2 0.7 1.2 Q0.8 1.2 0.8 1.25 L0.65 1.3 M-2.05 -1.05 L-2.1 -1.2 -2.35 -1.35 -2.05 -1.4 Q-2.0 -1.45 -2.05 -1.5 L-2.15 -1.55 -2.05 -1.6 -1.9 -1.55 -1.9 -1.55 -1.95 -1.65 -1.85 -1.7 -1.8 -1.65 -1.7 -1.55 -1.65 -1.6 -1.7 -1.7 -1.7 -1.75 -1.5 -1.65 -1.5 -1.65 Q-1.5 -1.8 -1.4 -1.85 L-1.3 -1.65 -1.25 -1.65 -1.15 -1.8 Q-1.05 -1.8 -1.05 -1.75 L-1.1 -1.7 -1.05 -1.6 -0.85 -1.85 -0.8 -1.8 -0.8 -1.7 Q-0.85 -1.7 -0.8 -1.6 L-0.75 -1.7 -0.65 -1.7 Q-0.55 -1.7 -0.4 -1.6 L-0.4 -1.55 Q-0.55 -1.55 -0.6 -1.5 L-0.65 -1.4 -0.65 -1.4 -0.6 -1.35 -0.6 -1.35 -0.55 -1.35 -0.55 -1.3 -0.5 -1.3 -0.5 -1.3 Q-0.45 -1.3 -0.45 -1.3 L-0.45 -1.25 -0.4 -1.2 -0.45 -1.25 -0.45 -1.25 -0.6 -1.25 -0.65 -1.2 -0.55 -1.2 -0.5 -1.2 Q-0.45 -1.2 -0.5 -1.15 L-0.5 -1.15 -0.7 -1.2 -0.8 -1.2 -0.85 -1.2 -0.95 -1.2 -0.95 -1.1 -1.1 -1.0 -1.15 -1.0 -1.2 -1.35 -1.25 -1.45 -1.25 -1.45 -1.35 -1.45 -1.45 -1.45 -1.5 -1.45 -1.55 -1.4 -1.65 -1.2 -1.75 -1.1 -1.85 -1.1 Q-2.0 -1.05 -1.95 -1.2 L-1.95 -1.2 -2.0 -1.2 -2.05 -1.05 M-0.95 -0.55 Q-1.05 -0.5 -1.1 -0.45 L-1.1 -0.45 -1.1 -0.5 -1.1 -0.5 -1.15 -0.5 -1.15 -0.55 -1.2 -0.55 -1.25 -0.6 -1.3 -0.6 -1.3 -0.55 -1.35 -0.5 -1.35 -0.45 -1.4 -0.4 -1.3 -0.3 -1.3 -0.3 -1.25 -0.3 Q-1.25 -0.25 -1.2 -0.25 L-1.1 -0.3 -1.1 -0.35 Q-1.05 -0.25 -0.95 -0.2 -0.9 -0.2 -0.9 -0.05 L-0.9 0.0 -0.9 0.0 -0.9 0.05 -0.85 0.15 -0.9 0.15 -1.05 0.2 -1.35 -0.1 -1.75 -0.35 Q-1.65 -0.35 -1.6 -0.4 L-1.65 -0.5 Q-1.6 -0.55 -1.55 -0.65 L-1.5 -0.8 -1.45 -0.9 -1.35 -0.95 -1.35 -1.0 -1.3 -1.0 Q-1.25 -1.0 -1.2 -0.9 L-1.15 -0.8 -1.1 -0.8 -0.95 -0.55 M-0.8 -1.4 L-0.8 -1.45 -0.9 -1.45 -0.9 -1.45 -1.0 -1.45 -0.85 -1.4 -0.75 -1.4 -0.75 -1.4 -0.8 -1.4 M-0.65 -1.3 L-0.7 -1.35 -0.65 -1.4 -0.7 -1.35 -0.65 -1.3 M-1.0 -0.95 L-1.0 -0.95 -0.55 -1.05 -0.45 -1.0 -0.55 -0.95 Q-0.7 -0.9 -0.7 -0.85 -0.75 -0.8 -0.85 -0.8 L-0.95 -0.85 -1.0 -0.95 M-1.65 -0.1 L-1.75 -0.2 -2.0 -0.2 -2.05 -0.05 -2.1 0.1 Q-2.1 0.35 -1.95 0.4 L-1.7 0.5 -1.4 0.55 Q-1.25 0.5 -1.25 0.35 -1.3 0.25 -1.4 0.15 L-1.5 0.05 Q-1.55 0.0 -1.55 -0.05 L-1.65 -0.1 M1.25 1.15 Q1.3 1.15 1.35 1.05 L1.25 1.15" fill="#2a1c21" fill-rule="evenodd" stroke="none"/>
    <path d="M-0.8 -1.4 L-0.75 -1.4 -0.75 -1.4 -0.85 -1.4 -1.0 -1.45 -0.9 -1.45 -0.9 -1.45 -0.8 -1.45 -0.8 -1.4" fill="#36373d" fill-rule="evenodd" stroke="none"/>
    <path d="M-0.4 -1.05 L-0.4 -1.15 -0.3 -1.0 -0.3 -0.95 -0.15 -0.7 -0.2 -0.7 -0.15 -0.65 -0.15 -0.65 -0.1 -0.6 -0.1 -0.55 Q-0.1 -0.5 -0.15 -0.5 L-0.2 -0.5 -0.25 -0.45 -0.35 -0.4 Q-0.5 -0.35 -0.6 -0.15 L-0.8 -0.35 -0.85 -0.4 -0.85 -0.4 -0.95 -0.55 -1.1 -0.8 -1.15 -0.95 -1.15 -1.0 -1.1 -1.0 -1.1 -0.95 -1.05 -0.95 -1.05 -0.95 -1.0 -0.95 -1.0 -0.95 -0.95 -0.85 -0.8 -0.6 -0.8 -0.5 -0.75 -0.5 -0.7 -0.5 -0.7 -0.5 -0.6 -0.45 -0.55 -0.5 -0.55 -0.5 Q-0.5 -0.5 -0.45 -0.5 L-0.4 -0.55 -0.4 -0.6 -0.35 -0.6 -0.3 -0.6 -0.35 -0.75 -0.35 -0.85 -0.4 -0.85 -0.4 -0.9 -0.35 -0.9 -0.35 -0.95 -0.35 -0.95 -0.3 -1.0 -0.4 -1.05" fill="#171010" fill-rule="evenodd" stroke="none"/>
    <path d="M-0.5 -1.15 L-0.4 -1.05 -0.3 -1.0 -0.35 -0.95 -0.35 -0.95 -0.35 -0.9 -0.4 -0.9 -0.4 -0.85 -0.35 -0.85 -0.5 -0.8 -0.6 -0.75 -0.55 -0.7 -0.4 -0.75 -0.35 -0.75 -0.3 -0.6 -0.35 -0.6 -0.4 -0.6 -0.4 -0.55 -0.45 -0.5 Q-0.5 -0.5 -0.55 -0.5 L-0.55 -0.5 -0.6 -0.45 -0.7 -0.5 -0.7 -0.5 -0.75 -0.5 -0.8 -0.5 -0.8 -0.6 -0.8 -0.6 Q-0.75 -0.6 -0.75 -0.65 L-0.75 -0.75 -0.65 -0.8 -0.55 -0.85 -0.4 -0.9 -0.45 -0.95 -0.45 -1.0 -0.55 -1.05 -1.0 -0.95 -1.0 -0.95 -1.0 -0.95 -1.05 -0.95 -1.05 -0.95 -1.1 -0.95 -1.1 -1.0 -0.95 -1.1 -0.9 -1.15 -0.8 -1.2 -0.7 -1.2 -0.5 -1.15" fill="#27201f" fill-rule="evenodd" stroke="none"/>
    <path d="M-1.1 -0.45 L-1.1 -0.4 -1.1 -0.35 -1.1 -0.3 -1.2 -0.25 Q-1.25 -0.25 -1.25 -0.3 L-1.3 -0.3 -1.3 -0.3 -1.4 -0.4 -1.35 -0.45 -1.35 -0.5 -1.3 -0.55 -1.3 -0.6 -1.25 -0.6 -1.2 -0.55 -1.15 -0.55 -1.15 -0.5 -1.1 -0.5 -1.1 -0.5 -1.1 -0.45 -1.1 -0.45 M-0.9 0.0 L-0.85 -0.05 -0.85 -0.1 -0.8 -0.1 -0.75 -0.1 -0.75 -0.1 -0.7 -0.1 -0.65 -0.05 -0.65 0.0 -0.65 0.0 -0.65 0.0 -0.6 0.05 -0.6 0.1 -0.6 0.15 -0.65 0.15 -0.75 0.2 -0.75 0.2 -0.8 0.2 -0.8 0.15 -0.85 0.15 -0.85 0.15 -0.9 0.05 -0.9 0.0 -0.9 0.0 M-1.45 -0.9 L-1.45 -0.9 -1.5 -0.95 -1.55 -0.95 -1.55 -0.95 -1.6 -1.05 -1.6 -1.1 -1.55 -1.15 -1.55 -1.2 -1.5 -1.25 -1.45 -1.25 -1.45 -1.2 -1.4 -1.2 -1.4 -1.15 -1.35 -1.15 -1.35 -1.15 -1.35 -1.1 -1.35 -1.05 -1.3 -1.05 -1.35 -1.0 -1.35 -1.0 -1.35 -0.95 -1.45 -0.9" fill="#2e1719" fill-rule="evenodd" stroke="none"/>
    <path d="M0.05 1.05 L0.05 1.0 0.0 1.0 0.0 1.0 -0.1 1.0 -0.1 1.0 -0.2 1.0 -0.25 1.0 -0.3 1.0 -0.35 0.95 Q-0.35 0.9 -0.4 0.85 L-0.6 0.85 -0.7 0.8 -0.65 0.75 -0.6 0.7 -0.25 0.85 0.05 0.9 0.1 1.0 0.05 1.0 0.05 1.05 M-0.7 0.85 L-0.8 0.85 -0.8 0.9 -0.95 0.85 -1.0 0.9 -1.05 0.85 -1.05 0.85 -1.2 0.85 -1.25 0.85 -1.25 0.85 -1.3 0.8 -1.35 0.8 -1.5 0.8 -1.5 0.8 -1.7 0.75 -1.8 0.75 -1.9 0.7 -1.95 0.7 -2.0 0.7 -2.05 0.7 -2.25 0.6 -2.3 0.6 -2.3 0.5 -2.3 0.2 -2.2 0.2 -2.15 0.3 -2.1 0.4 -2.0 0.5 -1.75 0.55 -1.1 0.65 Q-0.85 0.65 -0.75 0.85 L-0.7 0.85 M-1.65 -0.1 L-1.55 -0.05 Q-1.55 0.0 -1.5 0.05 L-1.4 0.15 Q-1.3 0.25 -1.25 0.35 -1.25 0.5 -1.4 0.55 L-1.7 0.5 -1.95 0.4 Q-2.1 0.35 -2.1 0.1 L-2.05 -0.05 -2.0 -0.2 -1.75 -0.2 -1.65 -0.1" fill="#1e1417" fill-rule="evenodd" stroke="none"/>
    <path d="M-0.8 -1.2 L-0.9 -1.15 -0.95 -1.1 -0.95 -1.2 -0.85 -1.2 -0.8 -1.2" fill="#392f2e" fill-rule="evenodd" stroke="none"/>
    <path d="M0.1 1.15 L0.05 1.15 0.05 1.1 0.1 1.15" fill="#71cd93" fill-rule="evenodd" stroke="none"/>
    <path d="M0.4 1.3 L0.3 1.25 0.25 1.25 0.45 1.2 0.4 1.3" fill="#141919" fill-rule="evenodd" stroke="none"/>
    <path d="M1.3 1.4 L1.25 1.4 1.2 1.4 1.25 1.4 1.3 1.4" fill="#444046" fill-rule="evenodd" stroke="none"/>
    <path d="M-0.4 -1.2 L-0.4 -1.2 -0.35 -1.15 -0.3 -1.1 -0.25 -1.05 -0.25 -1.0 -0.2 -1.0 -0.2 -0.9 -0.15 -0.85 -0.15 -0.8 -0.15 -0.75 -0.1 -0.75 -0.05 -0.6 0.0 -0.5 0.0 -0.5 0.05 -0.5 0.05 -0.45 0.1 -0.4 0.15 -0.3 0.15 -0.3 0.2 -0.25 0.2 -0.2 0.25 -0.15 0.25 -0.15 0.3 -0.15 0.35 -0.1 0.35 -0.1 0.4 -0.1 0.45 -0.1 0.45 -0.05 0.55 0.0 0.55 0.0 0.6 0.0 0.65 0.0 0.75 0.05 0.85 0.05 0.95 0.05 1.0 0.05 1.05 0.05 1.1 0.0 1.15 0.0 1.15 0.0 1.2 0.0 1.2 0.05 1.25 0.05 1.3 0.05 1.35 0.1 Q1.4 0.1 1.45 0.15 L1.55 0.15 1.6 0.2 1.65 0.25 1.7 0.25 1.7 0.3 1.75 0.3 2.0 0.35 2.15 0.35 2.55 0.3 2.6 0.25 Q2.7 0.1 2.75 -0.1 L2.85 0.05 2.85 0.25 Q2.85 0.65 2.65 1.0 L2.6 1.0 2.6 1.05 2.45 1.2 2.4 1.3 2.35 1.3 2.35 1.35 2.25 1.35 2.2 1.4 2.25 1.4 2.2 1.4 2.15 1.4 2.1 1.4 2.05 1.4 2.0 1.4 1.95 1.4 1.9 1.4 1.85 1.4 1.8 1.4 1.7 1.4 1.6 1.4 1.5 1.45 1.45 1.4 1.3 1.4 1.25 1.4 1.2 1.4 1.15 1.4 1.1 1.35 0.95 1.35 0.85 1.3 0.85 1.35 0.8 1.3 0.65 1.3 0.6 1.3 0.55 1.3 0.4 1.3 0.3 1.25 0.25 1.25 0.2 1.2 0.15 1.15 0.05 1.05 0.05 1.0 0.0 1.0 0.0 1.0 -0.1 1.0 -0.1 1.0 -0.2 1.0 -0.25 1.0 -0.3 1.0 -0.35 0.95 -0.4 0.95 -0.55 0.85 -0.6 0.85 -0.7 0.85 -0.8 0.85 -0.8 0.9 -0.95 0.85 -1.0 0.9 -1.05 0.85 -1.05 0.85 -1.2 0.85 -1.25 0.85 -1.25 0.85 -1.3 0.8 -1.35 0.8 -1.5 0.8 -1.5 0.8 -1.7 0.75 -1.8 0.75 -1.9 0.7 -1.95 0.7 -2.0 0.7 -2.05 0.7 -2.25 0.6 -2.3 0.6 -2.3 0.5 -2.3 0.2 Q-2.3 -0.05 -2.25 -0.3 L-2.1 -0.8 -2.1 -0.8 -2.05 -1.05 -2.1 -1.2 -2.35 -1.35 -2.05 -1.4 Q-2.0 -1.45 -2.05 -1.5 L-2.15 -1.55 -2.05 -1.6 -1.9 -1.55 -1.9 -1.55 -1.95 -1.65 -1.85 -1.7 -1.8 -1.65 -1.7 -1.55 -1.65 -1.6 -1.7 -1.7 -1.7 -1.75 -1.5 -1.65 -1.5 -1.65 Q-1.5 -1.8 -1.4 -1.85 L-1.3 -1.65 -1.25 -1.65 -1.15 -1.8 Q-1.05 -1.8 -1.05 -1.75 L-1.1 -1.7 -1.05 -1.6 -0.85 -1.85 -0.8 -1.8 -0.8 -1.7 Q-0.85 -1.7 -0.8 -1.6 L-0.75 -1.7 -0.65 -1.7 Q-0.55 -1.7 -0.4 -1.6 L-0.4 -1.55 Q-0.55 -1.55 -0.6 -1.5 L-0.65 -1.4 -0.65 -1.4 -0.6 -1.35 -0.6 -1.35 -0.55 -1.35 -0.55 -1.3 -0.5 -1.3 -0.5 -1.3 Q-0.45 -1.3 -0.45 -1.3 L-0.45 -1.25 -0.4 -1.2 M-0.65 -1.4 L-0.7 -1.35 -0.65 -1.3" fill="none" stroke="#000000" stroke-linecap="round" stroke-linejoin="round" stroke-opacity="0.4509804" stroke-width="0.1"/>
  </g>
</svg>
