<?xml version="1.0" encoding="UTF-8" standalone="no"?>
<svg xmlns:xlink="http://www.w3.org/1999/xlink" height="3.05px" width="4.8px" xmlns="http://www.w3.org/2000/svg">
  <g transform="matrix(1.0, 0.0, 0.0, 1.0, 2.35, 1.5)">
    <path d="M0.15 -0.25 L0.15 -0.25 0.25 -0.2 0.35 -0.2 0.4 -0.2 0.6 -0.05 0.65 -0.05 0.4 0.35 0.35 0.35 0.35 0.3 0.25 0.3 0.15 0.45 0.1 0.5 Q0.2 0.55 0.3 0.55 L0.7 0.65 0.8 0.6 1.05 0.65 1.2 0.2 1.2 0.05 Q1.35 0.05 1.5 0.15 1.65 0.25 1.8 0.4 L1.7 0.5 1.5 0.7 1.4 0.7 1.3 0.7 Q1.2 0.75 1.15 0.85 L1.15 0.9 1.2 0.9 Q1.25 0.9 1.3 0.9 1.4 1.05 1.55 1.05 L1.7 1.0 1.8 1.05 2.15 0.95 2.25 1.05 Q2.05 1.25 1.45 1.25 L1.3 1.2 1.25 1.2 1.2 1.3 1.0 1.2 1.0 1.1 Q0.95 1.05 0.85 1.05 L0.7 1.05 0.35 0.95 0.3 0.95 0.3 1.05 0.15 0.95 0.1 0.95 0.05 0.9 Q-0.1 0.8 -0.2 0.75 -0.45 0.65 -0.6 0.65 L-0.75 0.7 -1.1 0.6 -1.35 0.6 Q-1.5 0.55 -1.5 0.5 L-1.55 0.65 -1.75 0.5 Q-1.85 0.45 -1.95 0.45 L-2.15 0.45 -2.25 0.35 -2.25 0.3 -2.25 -0.05 -2.25 -0.25 -2.15 -0.7 -2.1 -0.9 -1.9 -1.15 -1.9 -1.15 -1.4 -1.35 -0.9 -1.5 Q-0.75 -1.5 -0.55 -1.35 L-0.65 -1.2 Q-0.85 -0.95 -0.9 -0.95 L-1.05 -1.0 Q-1.15 -1.0 -1.25 -0.85 -1.4 -0.7 -1.55 -0.7 L-1.7 -0.7 -1.8 -0.65 -1.7 -0.55 -1.5 -0.25 Q-1.4 -0.1 -1.25 -0.15 L-1.35 -0.05 -1.45 0.05 Q-1.45 0.15 -1.3 0.2 L-1.0 0.25 Q-0.65 0.5 -0.5 0.5 L-0.15 0.4 -0.1 0.4 -0.05 0.4 0.0 0.35 0.0 0.3 0.1 0.2 0.15 -0.1 0.15 -0.25" fill="#25201a" fill-rule="evenodd" stroke="none"/>
    <path d="M0.65 -0.05 L0.9 0.05 1.05 0.05 1.2 0.05 1.2 0.2 1.05 0.65 0.8 0.6 0.7 0.65 0.3 0.55 Q0.2 0.55 0.1 0.5 L0.15 0.45 0.25 0.3 0.35 0.3 0.35 0.35 0.4 0.35 0.65 -0.05 M1.8 0.4 L1.85 0.5 2.15 0.95 1.8 1.05 1.7 1.0 1.55 1.05 Q1.4 1.05 1.3 0.9 1.25 0.9 1.2 0.9 L1.15 0.9 1.15 0.85 Q1.2 0.75 1.3 0.7 L1.4 0.7 1.5 0.7 1.7 0.5 1.8 0.4 M2.25 1.05 L2.3 1.2 2.35 1.25 2.35 1.35 Q2.35 1.4 2.2 1.45 L2.0 1.45 1.95 1.45 1.85 1.45 1.75 1.45 1.65 1.45 1.45 1.5 1.0 1.4 Q0.75 1.4 0.25 1.2 L-0.25 1.0 -0.3 1.0 -1.2 0.8 Q-1.3 0.8 -1.4 0.95 -1.45 1.05 -1.6 1.05 L-1.75 1.05 -1.95 1.0 -2.15 0.7 -2.25 0.45 -2.25 0.35 -2.15 0.45 -1.95 0.45 Q-1.85 0.45 -1.75 0.5 L-1.55 0.65 -1.5 0.5 Q-1.5 0.55 -1.35 0.6 L-1.1 0.6 -0.75 0.7 -0.6 0.65 Q-0.45 0.65 -0.2 0.75 -0.1 0.8 0.05 0.9 L0.1 0.95 0.15 0.95 0.3 1.05 0.3 0.95 0.35 0.95 0.7 1.05 0.85 1.05 Q0.95 1.05 1.0 1.1 L1.0 1.2 1.2 1.3 1.25 1.2 1.3 1.2 1.45 1.25 Q2.05 1.25 2.25 1.05 M-0.55 -1.35 L-0.55 -1.3 -0.3 -1.05 -0.15 -0.7 -0.1 -0.65 0.05 -0.35 0.1 -0.3 0.15 -0.25 0.15 -0.1 0.1 0.2 0.0 0.3 0.0 0.35 -0.05 0.4 -0.1 0.4 -0.15 0.4 -0.5 0.5 Q-0.65 0.5 -1.0 0.25 L-1.3 0.2 Q-1.45 0.15 -1.45 0.05 L-1.35 -0.05 -1.25 -0.15 Q-1.4 -0.1 -1.5 -0.25 L-1.7 -0.55 -1.8 -0.65 -1.7 -0.7 -1.55 -0.7 Q-1.4 -0.7 -1.25 -0.85 -1.15 -1.0 -1.05 -1.0 L-0.9 -0.95 Q-0.85 -0.95 -0.65 -1.2 L-0.55 -1.35" fill="#2e2821" fill-rule="evenodd" stroke="none"/>
    <path d="M0.15 -0.25 L0.15 -0.25 0.25 -0.2 0.35 -0.2 0.4 -0.2 0.6 -0.05 0.65 -0.05 0.9 0.05 1.05 0.05 1.2 0.05 Q1.35 0.05 1.5 0.15 1.65 0.25 1.8 0.4 L1.85 0.5 2.15 0.95 2.25 1.05 2.3 1.2 2.35 1.25 2.35 1.35 Q2.35 1.4 2.2 1.45 L2.0 1.45 1.95 1.45 1.85 1.45 1.75 1.45 1.65 1.45 1.45 1.5 1.0 1.4 Q0.75 1.4 0.25 1.2 L-0.25 1.0 -0.3 1.0 -1.2 0.8 Q-1.3 0.8 -1.4 0.95 -1.45 1.05 -1.6 1.05 L-1.75 1.05 -1.95 1.0 -2.15 0.7 -2.25 0.45 -2.25 0.3 -2.25 -0.05 -2.25 -0.25 -2.15 -0.7 -2.1 -0.9 M-0.55 -1.3 L-0.3 -1.05 -0.15 -0.7 -0.1 -0.65 0.05 -0.35 0.1 -0.3 0.15 -0.25" fill="none" stroke="#000000" stroke-linecap="round" stroke-linejoin="round" stroke-opacity="0.4509804" stroke-width="0.1"/>
  </g>
</svg>
