<?xml version="1.0" encoding="UTF-8" standalone="no"?>
<svg xmlns:xlink="http://www.w3.org/1999/xlink" height="75.15px" width="62.95px" xmlns="http://www.w3.org/2000/svg">
  <g transform="matrix(1.0, 0.0, 0.0, 1.0, 38.95, 4.25)">
    <path d="M0.35 -3.85 L0.35 -2.8 0.4 -2.65 0.45 -2.4 0.5 -2.1 0.5 -1.95 0.55 -1.85 0.5 -1.75 0.45 -1.7 Q0.5 -1.5 0.5 -1.05 L0.45 -0.75 0.35 -0.6 Q0.3 -0.5 0.2 -0.5 0.05 -0.5 0.05 -0.65 L-0.15 -0.75 -0.2 -0.95 -0.2 -1.5 -0.2 -1.55 -0.25 -1.7 -0.25 -2.0 -0.3 -2.3 Q-0.3 -2.45 -0.35 -2.5 L-0.4 -2.6 -0.35 -2.65 -0.45 -2.75 -0.55 -3.15 -0.55 -4.15 Q-0.5 -4.25 -0.15 -4.25 L0.2 -4.2 Q0.3 -4.15 0.35 -3.85" fill="#ffb500" fill-rule="evenodd" stroke="none"/>
    <path d="M-11.5 -0.9 Q-11.7 -1.2 -11.7 -1.45 -11.7 -2.7 -10.7 -2.5 -10.35 -2.4 -10.05 -2.15 -9.7 -1.9 -9.7 -1.7 -9.7 -1.65 -9.8 -1.5 L-9.85 -1.3 -9.8 -1.15 -9.75 -1.05 -9.8 -0.9 Q-9.5 -0.75 -9.5 -0.05 -9.5 0.15 -9.65 0.35 L-9.8 0.45 Q-9.05 0.6 -9.05 1.0 -9.05 1.2 -9.35 1.45 -9.65 1.65 -9.95 1.65 -10.65 1.65 -10.9 1.4 -11.05 1.25 -11.05 1.0 -11.05 0.65 -10.8 0.5 L-11.0 0.4 Q-11.15 0.25 -11.15 0.05 -11.15 -0.15 -10.9 -0.45 L-10.85 -0.5 Q-11.25 -0.55 -11.5 -0.9 M-31.35 18.4 Q-31.35 18.6 -31.55 18.85 -31.75 19.15 -32.0 19.15 L-32.8 18.8 Q-33.65 18.45 -33.85 18.45 -34.35 18.45 -34.55 17.75 L-34.65 17.0 Q-34.65 16.5 -34.15 16.2 -33.6 15.9 -33.7 16.95 L-33.7 16.95 Q-33.65 16.95 -33.5 16.85 L-33.3 16.75 Q-32.45 16.75 -31.85 17.4 -31.35 17.95 -31.35 18.4" fill="#ffb500" fill-rule="evenodd" stroke="none"/>
    <path d="M-38.3 37.0 Q-38.7 37.0 -38.85 36.7 -38.95 36.55 -38.95 36.35 -38.95 35.95 -38.65 35.8 -38.3 35.6 -37.3 35.6 L-36.4 35.5 Q-36.05 35.3 -35.35 35.4 L-35.3 35.4 Q-35.15 34.25 -34.4 34.55 -34.05 34.7 -33.8 35.15 -33.5 35.6 -33.5 36.05 -33.5 36.4 -33.65 36.75 -33.9 37.3 -34.5 37.3 L-34.65 37.3 Q-35.05 37.7 -35.45 37.7 -36.05 37.7 -36.45 37.0 L-36.95 37.05 -37.4 36.85 -37.85 36.9 -38.3 37.0" fill="#ffb500" fill-rule="evenodd" stroke="none"/>
    <path d="M-28.15 54.1 L-28.4 54.3 -28.45 54.35 Q-29.15 55.1 -29.25 55.1 L-29.55 55.1 -30.05 55.65 Q-30.7 56.35 -30.95 56.35 -31.3 56.35 -31.3 56.05 -31.3 55.45 -30.35 54.75 L-30.0 54.5 -30.05 54.1 Q-29.9 53.5 -29.6 53.4 L-29.65 53.3 Q-29.65 53.05 -29.5 53.0 L-29.25 52.65 Q-29.15 52.5 -28.85 52.6 L-28.4 52.7 Q-28.1 52.7 -28.0 53.15 -27.95 53.35 -27.95 53.6 L-27.95 53.85 Q-28.0 54.05 -28.15 54.1" fill="#ffb500" fill-rule="evenodd" stroke="none"/>
    <path d="M-12.15 68.95 L-12.05 68.9 Q-11.85 68.9 -11.5 69.1 L-11.45 69.1 -11.4 69.05 Q-11.15 68.9 -10.65 68.9 L-10.25 68.45 Q-10.1 68.3 -9.95 68.35 -9.85 68.4 -9.85 68.55 -9.85 68.95 -9.95 69.2 -10.25 69.7 -11.0 69.7 -11.35 69.7 -11.45 69.6 L-11.75 69.65 Q-12.0 69.65 -12.25 69.5 L-12.45 69.35 -13.25 69.25 -13.35 69.7 Q-13.45 70.05 -13.6 70.05 -13.8 70.05 -13.95 69.5 L-13.8 68.95 -13.8 68.8 Q-13.8 68.6 -13.5 68.6 -13.15 68.6 -12.55 68.8 L-12.15 68.95" fill="#ffb500" fill-rule="evenodd" stroke="none"/>
    <path d="M13.55 67.95 L13.5 68.0 13.6 68.25 Q13.7 68.6 13.95 68.8 14.2 69.0 14.2 69.25 14.2 69.45 14.1 69.6 14.25 69.85 14.25 70.4 14.25 70.6 14.2 70.7 14.1 70.9 13.85 70.9 13.55 70.9 13.35 70.6 13.25 70.45 13.25 70.35 13.25 70.0 13.3 69.75 13.1 69.6 12.9 69.05 L12.75 68.2 12.75 68.15 12.7 68.15 Q12.45 68.15 12.35 68.0 12.3 67.85 12.3 67.75 L12.35 67.45 12.4 67.0 Q12.4 66.3 13.05 66.7 13.7 67.1 13.7 67.6 13.7 67.75 13.55 67.95 M21.9 62.6 Q21.9 61.95 22.5 62.2 23.1 62.45 23.1 62.85 L23.0 63.15 23.05 63.2 23.35 63.65 23.6 64.15 Q23.6 64.3 23.5 64.45 L23.45 64.45 Q24.0 64.85 24.0 65.45 24.0 66.0 23.55 66.0 23.3 66.0 22.8 64.7 22.8 64.55 22.8 64.45 22.65 64.4 22.5 64.2 22.35 63.95 22.35 63.85 22.35 63.75 22.4 63.6 22.15 63.55 22.0 63.1 L21.9 62.6" fill="#ffb500" fill-rule="evenodd" stroke="none"/>
  </g>
</svg>
