<?xml version="1.0" encoding="UTF-8" standalone="no"?>
<svg xmlns:xlink="http://www.w3.org/1999/xlink" height="8.2px" width="4.1px" xmlns="http://www.w3.org/2000/svg">
  <g transform="matrix(1.0, 0.0, 0.0, 1.0, 2.05, 4.15)">
    <path d="M0.15 -3.95 L0.2 -3.95 0.25 -3.95 0.25 -3.95 0.4 -3.85 0.4 -3.8 0.5 -3.7 0.55 -3.55 0.6 -3.55 0.6 -3.5 0.65 -3.45 0.7 -3.4 0.7 -3.35 0.75 -3.3 0.75 -3.25 0.8 -3.2 0.8 -3.15 -0.4 -3.55 -0.45 -3.55 -0.1 -3.75 0.15 -3.95 M0.85 -3.1 L0.85 -3.05 0.9 -2.9 0.9 -2.8 0.95 -2.45 0.95 -2.45 1.05 -2.15 1.05 -2.05 0.05 -2.55 0.15 -2.6 0.8 -3.05 0.85 -3.1 M1.1 -1.95 L1.15 -1.9 1.0 -1.85 1.1 -1.95 M1.65 -0.7 L1.7 -0.6 1.75 -0.5 1.8 -0.5 1.8 -0.4 1.85 -0.35 1.85 -0.15 1.8 -0.05 1.75 -0.05 1.7 0.05 1.6 0.1 1.55 0.15 1.45 0.3 1.55 0.35 1.6 0.35 1.7 0.35 1.65 0.4 1.6 0.5 1.6 0.6 1.55 0.6 1.5 0.6 Q1.45 0.65 1.45 0.7 L1.45 0.75 1.4 0.8 1.35 0.8 1.3 0.75 1.25 0.75 1.25 0.7 1.2 0.65 1.15 0.6 1.2 0.55 1.35 0.45 1.4 0.35 1.45 0.3 Q1.35 0.25 1.25 0.2 L1.2 0.2 1.2 0.15 1.15 0.15 1.1 0.1 1.0 0.1 1.0 0.05 0.9 0.0 0.9 0.0 0.8 0.05 0.65 0.15 0.65 0.2 0.6 0.2 0.55 0.25 0.5 0.3 0.45 0.3 0.3 0.4 0.15 0.55 -0.05 0.45 -0.1 0.4 -0.2 0.4 -0.25 0.35 -0.35 0.3 -0.35 0.25 -0.4 0.25 -0.4 0.25 -0.5 0.2 -0.55 0.15 -0.6 0.15 -0.6 0.15 -0.7 0.3 -0.7 0.35 -0.8 0.4 -0.85 0.45 -0.9 0.5 -0.9 0.5 -0.6 0.7 -0.55 0.7 -0.55 0.75 -0.5 0.75 -0.45 0.8 -0.4 0.85 -0.35 0.85 -0.3 0.85 -0.3 0.9 -0.35 0.95 -0.4 0.95 -0.45 1.0 -0.5 1.05 -0.75 0.9 -0.75 0.9 -0.8 0.9 -0.85 0.85 -0.85 0.85 -0.95 0.75 -0.95 0.75 -1.0 0.7 -1.0 0.6 -1.0 0.6 -0.95 0.55 -0.9 0.5 -0.95 0.5 -1.0 0.5 -1.0 0.5 -1.05 0.5 -1.05 0.45 -1.1 0.45 Q-1.15 0.4 -1.2 0.4 L-1.2 0.4 -1.25 0.35 -1.3 0.25 -1.35 0.15 -1.45 0.0 -1.5 -0.05 -1.55 -0.2 -1.55 -0.2 -1.6 -0.25 -1.55 -0.3 -1.55 -0.25 -1.4 -0.15 -1.35 -0.15 -1.3 -0.15 -0.75 0.1 -0.7 0.1 -0.65 0.1 -0.6 0.15 -0.55 0.15 -0.55 0.15 -0.4 0.05 -0.35 0.0 -0.05 -0.2 0.05 -0.35 0.15 -0.4 0.15 -0.4 0.2 -0.35 0.5 -0.2 0.55 -0.15 0.65 -0.15 0.65 -0.15 0.75 -0.05 0.8 -0.05 0.85 0.0 0.95 -0.1 1.0 -0.15 1.25 -0.35 1.3 -0.4 1.6 -0.65 1.6 -0.65 1.65 -0.7 M1.9 0.4 L1.95 0.45 1.9 0.45 1.9 0.4 M-1.95 -2.3 L-1.9 -2.45 -1.9 -2.5 Q-1.85 -2.6 -1.85 -2.7 L-1.8 -2.75 -1.5 -2.95 -1.25 -3.1 0.05 -2.55 -0.4 -2.25 -1.0 -1.9 -1.25 -2.05 -1.95 -2.3 M-1.65 -3.3 L-1.55 -3.6 -1.45 -3.75 -1.45 -3.75 -1.3 -3.9 -0.45 -3.55 -0.7 -3.4 -0.95 -3.3 -1.15 -3.15 -1.25 -3.1 -1.3 -3.15 -1.65 -3.3 M0.0 -1.5 L0.0 -1.3 -0.05 -1.3 -0.1 -1.25 -0.1 -1.15 -0.15 -1.1 -0.25 -1.1 -0.65 -1.05 -0.7 -1.25 -0.7 -1.3 -0.8 -1.65 -1.1 -1.7 -1.3 -1.65 -1.3 -1.7 -1.35 -1.65 -1.4 -1.65 -1.25 -1.75 Q-1.2 -1.8 -1.0 -1.9 L-1.0 -1.9 0.0 -1.5 M-0.1 -1.15 L-0.1 -1.15 M0.65 0.75 L0.6 0.8 0.6 0.85 0.55 0.85 0.5 0.9 Q0.45 0.9 0.4 0.95 L0.35 0.95 Q0.25 0.9 0.2 0.85 L0.2 0.8 0.1 0.75 0.05 0.75 0.05 0.7 0.0 0.65 0.1 0.6 0.1 0.55 0.15 0.55 Q0.2 0.6 0.25 0.6 L0.3 0.65 0.35 0.65 0.55 0.75 0.6 0.75 0.65 0.75 M1.15 1.3 L1.25 1.15 1.3 1.1 1.35 1.05 1.45 1.05 1.5 1.1 1.45 1.15 1.4 1.2 1.4 1.25 1.35 1.3 1.35 1.35 1.3 1.35 1.2 1.3 1.15 1.3 M-0.3 1.25 L-0.3 1.3 -0.3 1.3 -0.35 1.4 Q-0.35 1.45 -0.4 1.45 L-0.45 1.5 -0.5 1.55 -0.5 1.55 -0.55 1.5 -0.55 1.5 -0.6 1.45 -0.65 1.45 -0.65 1.4 -0.7 1.35 -0.75 1.35 -0.8 1.35 -0.85 1.3 -0.85 1.3 -0.75 1.2 -0.7 1.2 -0.7 1.15 -0.65 1.15 -0.65 1.15 -0.6 1.15 -0.5 1.15 -0.35 1.2 -0.35 1.25 -0.3 1.25" fill="#293943" fill-rule="evenodd" stroke="none"/>
    <path d="M0.15 -3.95 L-0.1 -3.75 -0.45 -3.55 -0.4 -3.55 0.8 -3.15 0.85 -3.1 0.8 -3.05 0.15 -2.6 0.05 -2.55 1.05 -2.05 1.1 -1.95 1.0 -1.85 0.3 -1.75 -0.05 -1.7 0.0 -1.5 -1.0 -1.9 -1.0 -1.9 Q-1.2 -1.8 -1.25 -1.75 L-1.4 -1.65 -1.95 -1.75 -1.95 -2.05 -1.95 -2.3 -1.25 -2.05 -1.0 -1.9 -0.4 -2.25 0.05 -2.55 -1.25 -3.1 -1.5 -2.95 -1.8 -2.75 -1.75 -3.1 -1.75 -3.15 -1.7 -3.25 -1.65 -3.3 -1.3 -3.15 -1.25 -3.1 -1.15 -3.15 -0.95 -3.3 -0.7 -3.4 -0.45 -3.55 -1.3 -3.9 -1.25 -3.95 -1.1 -4.0 -0.8 -4.05 -0.7 -4.05 Q-0.55 -4.05 -0.35 -4.05 L-0.3 -4.05 -0.15 -4.05 -0.1 -4.0 0.15 -3.95 M1.85 -0.15 L1.85 -0.05 1.9 0.0 1.9 0.4 1.9 0.45 1.85 0.45 1.7 0.35 1.6 0.35 1.55 0.35 1.45 0.3 1.55 0.15 1.6 0.1 1.7 0.05 1.75 -0.05 1.8 -0.05 1.85 -0.15 M-1.1 0.75 L-1.15 0.5 -1.2 0.45 -1.2 0.4 Q-1.15 0.4 -1.1 0.45 L-1.05 0.45 -1.05 0.5 -1.0 0.5 -1.0 0.5 -0.95 0.5 -0.9 0.5 -0.95 0.55 -1.0 0.6 -1.0 0.6 -1.05 0.65 -1.1 0.7 -1.1 0.75 M0.2 -0.4 L0.25 -0.4 0.35 -0.4 0.45 -0.45 0.55 -0.45 0.55 -0.45 0.75 -0.5 1.0 -0.5 1.3 -0.6 1.55 -0.65 1.6 -0.65 1.6 -0.65 1.6 -0.65 1.3 -0.4 1.25 -0.35 1.0 -0.15 0.95 -0.1 0.85 0.0 0.8 -0.05 0.75 -0.05 0.65 -0.15 0.65 -0.15 0.55 -0.15 0.5 -0.2 0.2 -0.35 0.15 -0.4 0.2 -0.4 0.2 -0.4 M-0.3 0.9 L-0.25 0.85 -0.2 0.9 -0.1 0.95 -0.1 0.95 -0.05 0.95 0.0 1.0 0.05 1.1 0.0 1.15 -0.05 1.2 -0.05 1.2 -0.1 1.2 -0.1 1.3 -0.2 1.3 -0.25 1.25 -0.3 1.25 -0.35 1.25 -0.35 1.2 -0.5 1.15 -0.6 1.15 -0.65 1.15 -0.65 1.15 -0.65 1.1 -0.6 1.1 -0.5 1.05 -0.45 1.0 -0.4 0.95 -0.35 0.95 -0.3 0.9 M1.2 0.2 L1.2 0.25 1.15 0.3 1.1 0.35 1.1 0.4 1.05 0.4 1.05 0.45 1.0 0.5 0.95 0.55 0.9 0.55 0.85 0.6 0.75 0.5 0.7 0.5 0.65 0.5 0.6 0.45 Q0.55 0.4 0.55 0.3 L0.5 0.3 0.55 0.25 0.6 0.2 0.65 0.2 0.65 0.15 0.8 0.05 0.9 0.0 0.9 0.0 1.0 0.05 1.0 0.1 1.1 0.1 1.15 0.15 1.2 0.15 1.2 0.2 M-0.1 0.4 L-0.15 0.45 -0.35 0.5 -0.5 0.5 -0.55 0.45 -0.65 0.4 -0.7 0.35 -0.7 0.35 -0.7 0.3 -0.6 0.15 -0.6 0.15 -0.55 0.15 -0.5 0.2 -0.4 0.25 -0.4 0.25 -0.35 0.25 -0.35 0.3 -0.25 0.35 -0.2 0.4 -0.1 0.4 M0.05 -0.35 L-0.05 -0.2 -0.35 0.0 -0.4 0.05 -0.55 0.15 -0.55 0.15 -0.6 0.15 -0.65 0.1 -0.7 0.1 -0.75 0.1 -1.3 -0.15 -1.35 -0.15 -1.4 -0.15 -1.55 -0.25 -1.4 -0.25 -1.3 -0.25 -1.25 -0.3 -1.2 -0.3 -1.05 -0.25 -0.95 -0.25 -0.9 -0.25 -0.85 -0.25 -0.75 -0.25 -0.7 -0.25 -0.65 -0.2 -0.55 -0.25 -0.5 -0.3 -0.3 -0.35 -0.1 -0.35 -0.05 -0.35 0.05 -0.35 M-0.75 1.2 L-0.75 1.2 -0.8 1.15 -0.8 1.15 -0.85 1.1 -0.85 1.1 -0.75 1.1 -0.7 1.15 -0.65 1.15 -0.7 1.15 -0.7 1.2 -0.75 1.2" fill="#2d7077" fill-rule="evenodd" stroke="none"/>
    <path d="M1.2 -1.75 L1.25 -1.55 1.3 -1.5 1.3 -1.4 1.2 -1.35 1.05 -1.3 0.95 -1.3 0.8 -1.25 0.7 -1.25 0.65 -1.25 0.6 -1.25 0.55 -1.25 0.55 -1.3 0.55 -1.3 0.45 -1.3 0.45 -1.35 0.35 -1.35 0.35 -1.35 0.3 -1.35 0.3 -1.35 0.3 -1.45 0.3 -1.45 0.4 -1.45 0.4 -1.5 0.45 -1.5 0.5 -1.5 0.55 -1.55 0.6 -1.55 0.7 -1.5 Q0.8 -1.5 0.8 -1.55 L0.9 -1.65 0.95 -1.7 1.0 -1.7 1.2 -1.75 M-1.9 -1.15 L-1.9 -1.25 -1.95 -1.3 -1.95 -1.35 -2.0 -1.55 -1.95 -1.6 -1.95 -1.6 -1.9 -1.55 -1.8 -1.5 -1.8 -1.45 -1.7 -1.45 -1.65 -1.4 -1.6 -1.4 -1.55 -1.4 -1.5 -1.4 -1.45 -1.4 -1.35 -1.4 -1.3 -1.35 -1.25 -1.35 Q-1.2 -1.3 -1.2 -1.25 L-1.25 -1.25 -1.25 -1.2 -1.2 -1.15 -1.15 -1.15 -1.05 -1.15 -0.95 -1.1 -0.95 -1.05 -0.9 -1.05 -0.85 -1.05 -1.05 -1.05 -1.35 -1.05 -1.55 -1.05 -1.8 -1.1 -1.9 -1.15" fill="#4f423c" fill-rule="evenodd" stroke="none"/>
    <path d="M1.3 -1.4 Q1.35 -1.3 1.4 -1.25 L1.5 -1.05 1.55 -0.95 1.55 -0.9 1.65 -0.7 1.65 -0.7 1.6 -0.65 1.6 -0.65 1.55 -0.65 1.3 -0.6 1.0 -0.5 0.75 -0.5 0.55 -0.45 0.55 -0.45 0.45 -0.45 0.35 -0.4 0.25 -0.4 0.2 -0.4 0.1 -0.4 0.1 -0.4 0.0 -0.4 -0.2 -0.4 -0.5 -0.4 -0.65 -0.4 -0.8 -0.4 -0.8 -0.4 -0.95 -0.4 -1.1 -0.45 -1.25 -0.4 -1.55 -0.5 -1.7 -0.5 -1.7 -0.55 -1.75 -0.6 -1.65 -0.6 -1.6 -0.6 -1.55 -0.65 -1.45 -0.7 -1.4 -0.65 -1.3 -0.65 -1.2 -0.6 -1.1 -0.6 -0.7 -0.55 -0.55 -0.55 -0.2 -0.6 0.0 -0.55 0.1 -0.55 0.1 -0.55 0.15 -0.55 0.2 -0.5 0.3 -0.5 0.3 -0.5 0.45 -0.5 0.5 -0.5 0.5 -0.5 0.6 -0.5 0.65 -0.55 0.7 -0.6 0.7 -0.6 0.75 -0.6 0.8 -0.65 0.95 -0.65 0.95 -0.65 1.35 -0.75 1.45 -0.85 1.45 -0.9 1.35 -0.9 1.25 -0.85 1.05 -0.85 0.75 -0.8 0.7 -0.8 0.65 -0.9 0.7 -0.9 Q0.75 -0.9 0.8 -0.95 L0.8 -0.95 0.75 -0.95 0.7 -0.95 0.65 -0.95 0.65 -1.05 0.6 -1.15 0.6 -1.2 0.55 -1.25 0.6 -1.25 0.65 -1.25 0.7 -1.25 0.8 -1.25 0.95 -1.3 1.05 -1.3 1.2 -1.35 1.3 -1.4 M1.95 1.7 L1.95 1.95 1.9 1.95 1.7 2.0 1.6 2.05 1.4 2.1 1.4 2.05 1.45 2.05 1.35 2.0 1.3 2.05 1.25 1.95 1.25 1.85 1.2 1.85 1.2 1.8 1.3 1.8 1.6 1.75 1.9 1.7 1.95 1.7 M1.95 2.05 L1.9 2.25 1.85 2.25 Q1.7 2.35 1.3 2.4 L1.35 2.3 1.35 2.25 1.4 2.25 1.65 2.15 1.85 2.1 1.9 2.1 1.95 2.05 M0.2 -1.1 L0.25 -1.1 0.35 -1.1 0.35 -1.1 0.4 -1.1 0.4 -1.05 0.45 -1.05 0.45 -1.05 0.5 -1.05 0.55 -0.95 0.5 -0.95 0.5 -0.95 0.45 -0.95 0.4 -0.95 0.4 -0.95 0.35 -0.95 0.35 -0.95 0.25 -0.9 0.25 -0.9 0.2 -0.9 0.15 -0.9 0.15 -0.9 0.2 -0.85 0.2 -0.85 0.35 -0.85 0.4 -0.9 0.55 -0.9 0.55 -0.85 0.6 -0.75 0.5 -0.75 0.4 -0.75 0.35 -0.75 0.25 -0.75 0.25 -0.75 Q0.2 -0.75 0.15 -0.8 L0.1 -0.9 0.1 -0.9 0.1 -1.0 0.1 -1.1 0.15 -1.1 0.15 -1.1 0.2 -1.1 0.2 -1.1 M0.55 -0.55 L0.55 -0.55 0.5 -0.55 0.45 -0.55 0.35 -0.55 0.25 -0.55 0.2 -0.55 0.25 -0.55 0.35 -0.55 0.5 -0.55 0.55 -0.55 M-0.05 -1.05 L0.0 -0.75 -0.55 -0.75 -0.7 -0.75 -0.85 -0.75 -0.95 -0.8 -1.05 -0.8 -1.05 -0.8 -0.8 -0.85 -0.75 -0.85 -0.5 -0.9 -0.2 -1.0 -0.05 -1.05 M0.9 1.85 L0.9 1.9 0.95 1.9 1.0 1.9 1.0 1.95 1.05 1.95 1.1 1.85 1.15 1.9 1.2 2.05 1.15 2.05 1.1 2.05 1.05 2.05 1.0 2.05 0.9 2.1 0.8 2.1 0.85 2.15 1.0 2.1 1.05 2.1 1.2 2.1 0.75 2.15 0.7 2.05 0.7 1.95 0.7 1.9 0.9 1.85 M0.3 2.5 L0.25 2.5 0.15 2.45 -0.1 2.4 Q-0.3 2.35 -0.35 2.3 L-0.3 2.3 -0.25 2.3 -0.15 2.35 0.0 2.35 0.1 2.35 0.15 2.35 0.25 2.35 0.45 2.35 0.7 2.35 0.7 2.4 0.75 2.45 0.8 2.45 0.65 2.5 0.55 2.5 0.4 2.5 0.3 2.5 M0.65 2.15 L0.6 2.15 0.4 2.15 0.25 2.15 -0.1 2.1 -0.35 2.1 -0.45 2.05 -0.5 2.0 -0.35 2.0 -0.2 2.0 0.1 1.95 0.35 1.95 0.45 1.95 0.55 1.95 0.6 1.95 0.65 2.15 M1.2 2.25 L1.25 2.3 1.15 2.35 1.1 2.35 1.05 2.3 1.0 2.3 0.95 2.35 0.85 2.3 0.95 2.25 1.2 2.25" fill="#7e655f" fill-rule="evenodd" stroke="none"/>
    <path d="M1.15 -1.9 L1.2 -1.75 1.0 -1.7 0.95 -1.7 0.9 -1.65 0.8 -1.55 Q0.8 -1.5 0.7 -1.5 L0.6 -1.55 0.55 -1.55 0.5 -1.5 0.45 -1.5 0.4 -1.5 0.4 -1.45 0.3 -1.45 0.3 -1.45 0.3 -1.35 0.1 -1.35 0.0 -1.3 0.0 -1.5 -0.05 -1.7 0.3 -1.75 1.0 -1.85 1.15 -1.9 M1.9 2.25 L1.9 2.3 1.85 2.6 1.8 2.6 Q1.7 2.7 1.6 2.7 L1.5 2.75 1.35 2.75 1.25 2.75 1.05 2.75 1.0 2.75 1.0 2.65 0.95 2.6 0.95 2.5 1.1 2.5 1.15 2.5 1.25 2.5 1.3 2.45 1.3 2.4 Q1.7 2.35 1.85 2.25 L1.9 2.25 M-0.4 2.8 L-0.4 2.75 -0.45 2.75 -0.55 2.6 -0.6 2.6 -0.6 2.55 -0.65 2.35 -0.65 2.4 -0.55 2.4 -0.5 2.45 -0.45 2.45 -0.45 2.45 -0.4 2.45 -0.35 2.5 -0.05 2.5 0.3 2.5 0.4 2.5 0.45 2.6 0.5 2.85 0.35 2.85 0.2 2.85 0.15 2.85 0.1 2.9 -0.3 2.85 -0.4 2.8 M-1.95 -1.6 L-1.95 -1.75 -1.4 -1.65 -1.35 -1.65 -1.3 -1.7 -1.3 -1.65 -1.1 -1.7 -0.8 -1.65 -0.7 -1.3 -0.7 -1.25 -0.65 -1.05 -0.85 -1.05 -0.9 -1.05 -0.95 -1.05 -0.95 -1.1 -1.05 -1.15 -1.15 -1.15 -1.2 -1.15 -1.25 -1.2 -1.25 -1.25 -1.2 -1.25 Q-1.2 -1.3 -1.25 -1.35 L-1.3 -1.35 -1.35 -1.4 -1.45 -1.4 -1.5 -1.4 -1.55 -1.4 -1.6 -1.4 -1.65 -1.4 -1.7 -1.45 -1.8 -1.45 -1.8 -1.5 -1.9 -1.55 -1.95 -1.6 -1.95 -1.6 M0.8 1.75 L0.85 1.75 0.95 1.75 0.85 1.75 0.8 1.75 M1.0 2.45 L0.95 2.45 1.15 2.45 1.2 2.4 1.2 2.45 1.15 2.45 1.1 2.45 1.0 2.45" fill="#706862" fill-rule="evenodd" stroke="none"/>
    <path d="M-0.1 -1.15 L-0.05 -1.15 0.0 -1.15 0.0 -1.2 0.0 -1.2 0.2 -1.25 0.2 -1.25 0.3 -1.25 0.35 -1.25 0.35 -1.25 0.4 -1.3 0.45 -1.25 0.45 -1.2 0.5 -1.15 0.5 -1.15 0.6 -1.15 0.65 -1.05 0.65 -0.95 0.7 -0.95 0.75 -0.95 0.8 -0.95 0.8 -0.95 0.75 -0.9 0.7 -0.95 0.7 -0.9 0.4 -0.9 0.4 -0.95 0.4 -0.95 0.45 -0.95 0.5 -0.95 0.5 -0.95 0.55 -0.95 0.5 -1.05 0.45 -1.05 0.45 -1.05 0.4 -1.05 0.4 -1.1 0.35 -1.1 0.35 -1.1 0.25 -1.1 0.2 -1.1 0.15 -1.1 0.15 -1.1 0.1 -1.1 0.1 -1.1 0.1 -1.0 0.1 -0.9 0.1 -0.9 0.15 -0.8 Q0.2 -0.75 0.25 -0.75 L0.25 -0.75 0.35 -0.75 0.35 -0.7 0.4 -0.75 0.45 -0.7 0.5 -0.7 0.5 -0.65 0.6 -0.65 0.6 -0.65 0.6 -0.6 0.55 -0.55 0.5 -0.55 0.35 -0.55 0.25 -0.55 0.2 -0.55 0.15 -0.6 0.15 -0.6 0.1 -0.7 0.1 -0.75 0.05 -0.9 0.05 -0.95 0.0 -1.05 -0.05 -1.1 -0.05 -1.1 -0.05 -1.1 -0.1 -1.15 -0.1 -1.15 M0.55 1.85 L0.6 1.85 0.65 1.85 0.65 1.75 0.75 1.75 0.8 1.75 0.85 1.75 0.95 1.75 1.0 1.7 1.05 1.7 1.1 1.75 1.1 1.85 1.15 1.85 1.2 1.85 1.25 1.85 1.25 1.95 1.3 2.05 1.35 2.0 1.45 2.05 1.4 2.05 1.35 2.05 1.35 2.1 1.05 2.1 1.0 2.05 1.05 2.05 1.1 2.05 1.15 2.05 1.2 2.05 1.15 1.9 1.1 1.85 1.05 1.95 1.0 1.95 1.0 1.9 0.95 1.9 0.9 1.9 0.9 1.85 0.85 1.85 0.8 1.8 0.75 1.85 Q0.7 1.85 0.7 1.85 L0.7 1.9 0.7 1.95 0.7 2.05 0.75 2.15 0.8 2.2 0.8 2.25 0.85 2.25 0.85 2.3 0.95 2.35 1.0 2.3 1.05 2.3 1.1 2.35 1.15 2.35 1.25 2.3 1.35 2.25 1.35 2.3 1.3 2.4 1.3 2.45 1.25 2.5 1.15 2.5 1.1 2.5 0.95 2.5 0.9 2.5 0.8 2.5 0.8 2.45 0.75 2.45 0.7 2.4 0.7 2.35 0.65 2.3 0.65 2.15 0.6 1.95 0.6 1.9 0.55 1.85 M1.0 2.45 L1.1 2.45 1.15 2.45 1.2 2.45 1.2 2.4 1.15 2.45 0.95 2.45 1.0 2.45" fill="#ded5c1" fill-rule="evenodd" stroke="none"/>
    <path d="M0.0 -1.3 L0.1 -1.35 0.3 -1.35 0.3 -1.35 0.35 -1.35 0.35 -1.35 0.45 -1.35 0.45 -1.3 0.55 -1.3 0.55 -1.3 0.55 -1.25 0.6 -1.2 0.6 -1.15 0.5 -1.15 0.5 -1.15 0.45 -1.2 0.45 -1.25 0.4 -1.3 0.35 -1.25 0.35 -1.25 0.3 -1.25 0.2 -1.25 0.2 -1.25 0.0 -1.2 0.0 -1.2 0.0 -1.15 -0.05 -1.15 -0.1 -1.15 -0.1 -1.25 -0.05 -1.3 0.0 -1.3 M0.55 -1.25 L0.55 -1.25 M0.55 1.75 L0.6 1.7 0.65 1.7 0.75 1.65 0.9 1.65 0.95 1.65 1.05 1.65 1.1 1.65 1.15 1.7 1.2 1.7 1.2 1.8 1.2 1.85 1.15 1.85 1.1 1.85 1.1 1.75 1.05 1.7 1.0 1.7 0.95 1.75 0.85 1.75 0.8 1.75 0.75 1.75 0.65 1.75 0.65 1.85 0.6 1.85 0.55 1.85 0.55 1.75" fill="#fcf9f0" fill-rule="evenodd" stroke="none"/>
    <path d="M2.0 1.6 L1.95 1.7 1.9 1.7 1.6 1.75 1.3 1.8 1.2 1.8 1.2 1.7 1.15 1.7 1.45 1.65 1.65 1.65 1.95 1.6 2.0 1.6 M1.95 1.95 L1.95 2.05 1.9 2.1 1.85 2.1 1.65 2.15 1.4 2.25 1.35 2.25 1.3 2.1 1.35 2.1 1.4 2.1 1.6 2.05 1.7 2.0 1.9 1.95 1.95 1.95 M-0.65 2.35 L-0.7 2.35 -0.75 2.35 -0.75 2.25 Q-0.8 2.2 -0.85 2.15 L-0.9 2.0 -1.0 1.8 -0.95 1.8 -0.9 1.8 -0.8 1.8 -0.8 1.8 -0.6 1.8 -0.35 1.85 -0.2 1.85 -0.1 1.85 0.05 1.85 0.2 1.8 0.25 1.8 0.3 1.8 0.5 1.75 0.55 1.75 0.55 1.85 0.6 1.9 0.6 1.95 0.55 1.95 0.45 1.95 0.35 1.95 0.1 1.95 -0.2 2.0 -0.35 2.0 -0.5 2.0 -0.45 2.05 -0.35 2.1 -0.1 2.1 0.25 2.15 0.4 2.15 0.6 2.15 0.65 2.15 0.65 2.3 0.7 2.35 0.45 2.35 0.25 2.35 0.15 2.35 0.1 2.35 0.0 2.35 -0.15 2.35 -0.25 2.3 -0.3 2.3 -0.35 2.3 Q-0.3 2.35 -0.1 2.4 L0.15 2.45 0.25 2.5 0.3 2.5 -0.05 2.5 -0.35 2.5 -0.4 2.45 -0.45 2.45 -0.45 2.45 -0.5 2.45 -0.55 2.4 -0.65 2.4 -0.65 2.35 M-1.6 -0.25 L-1.65 -0.4 -1.65 -0.45 -1.7 -0.5 -1.55 -0.5 -1.25 -0.4 -1.1 -0.45 -0.95 -0.4 -0.8 -0.4 -0.8 -0.4 -0.65 -0.4 -0.5 -0.4 -0.2 -0.4 0.0 -0.4 0.1 -0.4 0.1 -0.4 0.2 -0.4 0.2 -0.4 0.15 -0.4 0.15 -0.4 0.05 -0.35 -0.05 -0.35 -0.1 -0.35 -0.3 -0.35 -0.5 -0.3 -0.55 -0.25 -0.65 -0.2 -0.7 -0.25 -0.75 -0.25 -0.85 -0.25 -0.9 -0.25 -0.95 -0.25 -1.05 -0.25 -1.2 -0.3 -1.25 -0.3 -1.3 -0.25 -1.4 -0.25 -1.55 -0.25 -1.55 -0.3 -1.6 -0.25 M-1.75 -0.6 L-1.75 -0.8 -1.8 -0.95 -1.9 -1.15 -1.8 -1.1 -1.55 -1.05 -1.35 -1.05 -1.05 -1.05 -0.85 -1.05 -0.65 -1.05 -0.25 -1.1 -0.15 -1.1 -0.1 -1.15 -0.05 -1.1 -0.05 -1.1 -0.05 -1.05 -0.2 -1.0 -0.5 -0.9 -0.75 -0.85 -0.8 -0.85 -1.05 -0.8 -1.05 -0.8 -0.95 -0.8 -0.85 -0.75 -0.7 -0.75 -0.55 -0.75 0.0 -0.75 0.0 -0.7 0.05 -0.65 0.05 -0.6 0.1 -0.55 0.0 -0.55 -0.2 -0.6 -0.55 -0.55 -0.7 -0.55 -1.1 -0.6 -1.2 -0.6 -1.3 -0.65 -1.4 -0.65 -1.45 -0.7 -1.55 -0.65 -1.6 -0.6 -1.65 -0.6 -1.75 -0.6 M0.55 -1.25 L0.55 -1.25 0.6 -1.25 0.65 -1.25 0.7 -1.25 0.65 -1.25 0.6 -1.25 0.55 -1.25 M0.7 -0.8 L0.75 -0.8 1.05 -0.85 1.25 -0.85 1.35 -0.9 1.45 -0.9 1.45 -0.85 1.35 -0.75 0.95 -0.65 0.95 -0.65 0.8 -0.65 0.75 -0.6 0.7 -0.6 0.7 -0.65 0.7 -0.75 0.7 -0.8 M0.2 -1.1 L0.2 -1.1 0.15 -1.1 0.15 -1.1 0.1 -1.1 0.1 -1.1 0.15 -1.1 0.15 -1.1 0.2 -1.1 M0.35 -0.75 L0.4 -0.75 0.5 -0.75 0.6 -0.75 0.6 -0.7 0.6 -0.65 0.6 -0.65 0.5 -0.65 0.5 -0.7 0.45 -0.7 0.4 -0.75 0.35 -0.7 0.35 -0.75 M0.7 1.9 L0.7 1.85 Q0.7 1.85 0.75 1.85 L0.8 1.8 0.85 1.85 0.9 1.85 0.7 1.9 M1.2 2.1 L1.2 2.25 0.95 2.25 0.85 2.3 0.85 2.25 0.8 2.25 0.8 2.2 0.75 2.15 1.2 2.1" fill="#3c2f28" fill-rule="evenodd" stroke="none"/>
    <path d="M0.8 -0.95 Q0.75 -0.9 0.7 -0.9 L0.65 -0.9 0.7 -0.8 0.7 -0.75 0.7 -0.65 0.7 -0.6 0.7 -0.6 0.65 -0.55 0.6 -0.5 0.5 -0.5 0.5 -0.5 0.45 -0.5 0.3 -0.5 0.3 -0.5 0.2 -0.5 0.15 -0.55 0.1 -0.55 0.1 -0.55 0.05 -0.6 0.05 -0.65 0.0 -0.7 0.0 -0.75 -0.05 -1.05 -0.05 -1.1 -0.05 -1.1 0.0 -1.05 0.05 -0.95 0.05 -0.9 0.1 -0.75 0.1 -0.7 0.15 -0.6 0.15 -0.6 0.2 -0.55 0.25 -0.55 0.35 -0.55 0.45 -0.55 0.5 -0.55 0.55 -0.55 0.55 -0.55 0.6 -0.6 0.6 -0.65 0.6 -0.7 0.6 -0.75 0.55 -0.85 0.55 -0.9 0.4 -0.9 0.35 -0.85 0.2 -0.85 0.2 -0.85 0.15 -0.9 0.15 -0.9 0.2 -0.9 0.25 -0.9 0.25 -0.9 0.35 -0.95 0.35 -0.95 0.4 -0.95 0.4 -0.9 0.7 -0.9 0.7 -0.95 0.75 -0.9 0.8 -0.95 M1.0 2.05 L1.05 2.1 1.35 2.1 1.35 2.05 1.4 2.05 1.4 2.1 1.35 2.1 1.3 2.1 1.35 2.25 1.25 2.3 1.2 2.25 1.2 2.1 1.05 2.1 1.0 2.1 0.85 2.15 0.8 2.1 0.9 2.1 1.0 2.05" fill="#958f82" fill-rule="evenodd" stroke="none"/>
    <path d="M2.0 1.3 L2.0 1.6 1.95 1.6 1.65 1.65 1.45 1.65 1.4 1.6 1.35 1.6 1.3 1.55 1.0 1.45 1.15 1.3 1.2 1.3 1.3 1.35 1.35 1.35 1.35 1.3 1.4 1.25 1.4 1.2 1.45 1.15 1.5 1.1 1.65 1.15 1.7 1.15 2.0 1.3 M1.9 3.0 L1.9 3.05 1.7 3.3 1.45 3.6 1.35 3.7 1.0 3.5 0.55 3.35 0.45 3.35 1.1 3.0 1.4 2.8 1.25 2.75 1.35 2.75 1.5 2.75 1.4 2.8 Q1.55 2.85 1.8 2.95 L1.9 3.0 M1.7 3.8 L1.65 3.9 Q1.6 3.9 1.55 3.95 L1.45 4.05 1.4 4.05 1.25 4.05 1.15 4.05 0.95 4.05 0.85 4.05 Q1.1 3.85 1.15 3.8 L1.3 3.7 1.35 3.7 1.45 3.75 1.7 3.8 M0.05 3.55 L0.0 3.5 -0.15 3.2 -0.15 3.15 -0.2 3.1 -0.2 3.1 0.45 3.35 0.3 3.4 0.05 3.55 M-0.95 1.8 L-1.0 1.75 -1.0 1.55 -1.05 1.4 -1.0 1.4 -0.85 1.3 -0.85 1.3 -0.8 1.35 -0.75 1.35 -0.7 1.35 -0.65 1.4 -0.65 1.45 -0.6 1.45 -0.55 1.5 -0.55 1.5 -0.5 1.55 -0.5 1.55 -0.45 1.5 -0.4 1.45 Q-0.35 1.45 -0.35 1.4 L-0.3 1.3 -0.3 1.3 -0.3 1.25 -0.25 1.25 -0.2 1.3 -0.1 1.3 -0.05 1.3 0.15 1.35 0.15 1.4 0.25 1.45 0.4 1.3 0.5 1.2 0.6 1.25 0.65 1.25 0.75 1.3 0.95 1.4 1.0 1.45 0.95 1.5 0.85 1.6 0.8 1.65 0.85 1.65 0.9 1.65 0.75 1.65 0.65 1.7 0.6 1.6 0.55 1.55 0.25 1.45 0.2 1.45 0.15 1.55 0.1 1.55 0.05 1.65 -0.05 1.75 -0.2 1.85 -0.35 1.85 -0.6 1.8 -0.8 1.8 -0.8 1.8 -0.9 1.8 -0.95 1.8 M-1.05 1.05 L-1.05 0.95 -1.1 0.8 -1.1 0.75 -1.1 0.75 -1.1 0.7 -1.05 0.65 -1.0 0.6 -1.0 0.7 -0.95 0.75 -0.95 0.75 -0.85 0.85 -0.85 0.85 -0.8 0.9 -0.75 0.9 -0.75 0.9 -0.5 1.05 -0.6 1.1 -0.65 1.1 -0.65 1.15 -0.7 1.15 -0.75 1.1 -0.85 1.1 -0.85 1.1 -0.95 1.05 -1.05 1.05 M1.15 0.6 L1.2 0.65 1.25 0.7 1.25 0.75 1.3 0.75 1.35 0.8 1.4 0.8 1.45 0.75 1.45 0.7 Q1.45 0.65 1.5 0.6 L1.55 0.6 1.6 0.6 1.6 0.5 1.65 0.4 1.7 0.35 1.85 0.45 1.9 0.45 1.85 0.5 1.6 0.75 1.55 0.8 1.45 0.95 1.35 1.05 1.3 1.05 1.3 1.0 1.25 1.0 1.1 0.95 1.1 0.9 0.95 0.85 0.9 0.85 0.85 0.9 0.8 0.9 0.8 0.95 0.65 1.1 0.55 1.2 0.5 1.2 0.4 1.15 0.35 1.15 0.0 1.0 -0.05 0.95 -0.1 0.95 -0.1 0.95 -0.2 0.9 -0.25 0.85 -0.3 0.9 -0.3 0.85 -0.3 0.85 -0.25 0.85 -0.25 0.8 -0.2 0.8 -0.1 0.75 0.0 0.65 0.05 0.7 0.05 0.75 0.1 0.75 0.2 0.8 0.2 0.85 Q0.25 0.9 0.35 0.95 L0.4 0.95 Q0.45 0.9 0.5 0.9 L0.55 0.85 0.6 0.85 0.6 0.8 0.65 0.75 0.8 0.8 0.85 0.8 0.95 0.8 1.0 0.75 1.05 0.7 1.1 0.7 1.15 0.6 M0.8 2.45 L0.8 2.5 0.9 2.5 0.95 2.5 0.95 2.6 1.0 2.65 0.95 2.6 0.55 2.5 0.65 2.5 0.8 2.45" fill="#182127" fill-rule="evenodd" stroke="none"/>
    <path d="M1.95 0.45 L1.95 0.6 1.95 0.75 1.95 0.85 2.0 1.05 2.0 1.25 2.0 1.3 1.7 1.15 1.65 1.15 1.5 1.1 1.45 1.05 1.35 1.05 1.3 1.1 1.25 1.15 1.15 1.3 1.0 1.45 1.3 1.55 1.35 1.6 1.4 1.6 1.45 1.65 1.15 1.7 1.1 1.65 1.05 1.65 0.95 1.65 0.9 1.65 0.85 1.65 0.8 1.65 0.85 1.6 0.95 1.5 1.0 1.45 0.95 1.4 0.75 1.3 0.65 1.25 0.6 1.25 0.5 1.2 0.4 1.3 0.25 1.45 0.15 1.4 0.15 1.35 -0.05 1.3 -0.1 1.3 -0.1 1.2 -0.05 1.2 -0.05 1.2 0.0 1.15 0.05 1.1 0.0 1.0 0.35 1.15 0.4 1.15 0.5 1.2 0.55 1.2 0.65 1.1 0.8 0.95 0.8 0.9 0.85 0.9 0.9 0.85 0.95 0.85 1.1 0.9 1.1 0.95 1.25 1.0 1.3 1.0 1.3 1.05 1.35 1.05 1.45 0.95 1.55 0.8 1.6 0.75 1.85 0.5 1.9 0.45 1.95 0.45 M1.85 2.6 L1.8 2.85 1.9 3.0 1.8 2.95 Q1.55 2.85 1.4 2.8 L1.5 2.75 1.6 2.7 Q1.7 2.7 1.8 2.6 L1.85 2.6 M1.9 3.05 L1.9 3.1 1.95 3.15 1.9 3.4 1.85 3.5 1.85 3.65 1.8 3.7 1.75 3.8 1.7 3.8 1.45 3.75 1.35 3.7 1.3 3.7 1.15 3.8 Q1.1 3.85 0.85 4.05 L0.75 4.0 Q0.45 3.9 0.2 3.75 L0.15 3.7 0.15 3.65 0.1 3.6 0.05 3.55 0.3 3.4 0.45 3.35 -0.2 3.1 -0.2 3.05 -0.25 2.95 -0.35 2.85 -0.4 2.8 -0.3 2.85 0.1 2.9 0.15 2.85 0.2 2.85 0.35 2.85 0.5 2.85 0.45 2.6 0.4 2.5 0.55 2.5 0.95 2.6 1.0 2.65 1.0 2.75 1.05 2.75 1.25 2.75 1.4 2.8 1.1 3.0 0.45 3.35 0.55 3.35 1.0 3.5 1.35 3.7 1.45 3.6 1.7 3.3 1.9 3.05 M-1.05 1.4 L-1.05 1.05 -0.95 1.05 -0.85 1.1 -0.85 1.1 -0.85 1.1 -0.8 1.15 -0.8 1.15 -0.75 1.2 -0.75 1.2 -0.85 1.3 -1.0 1.4 -1.05 1.4 M1.15 0.6 L1.1 0.7 1.05 0.7 1.0 0.75 0.95 0.8 0.85 0.8 0.8 0.8 0.65 0.75 0.6 0.75 0.55 0.75 0.35 0.65 0.3 0.65 0.25 0.6 Q0.2 0.6 0.15 0.55 L0.1 0.55 0.1 0.6 0.0 0.65 -0.1 0.75 -0.2 0.8 -0.25 0.8 -0.25 0.85 -0.3 0.85 -0.3 0.85 -0.35 0.85 -0.4 0.85 -0.45 0.8 -0.5 0.75 -0.55 0.75 -0.55 0.7 -0.6 0.7 -0.9 0.5 -0.9 0.5 -0.85 0.45 -0.8 0.4 -0.7 0.35 -0.7 0.35 -0.65 0.4 -0.55 0.45 -0.5 0.5 -0.35 0.5 -0.15 0.45 -0.1 0.4 -0.05 0.45 0.15 0.55 0.3 0.4 0.45 0.3 0.5 0.3 0.55 0.3 Q0.55 0.4 0.6 0.45 L0.65 0.5 0.7 0.5 0.75 0.5 0.85 0.6 0.9 0.55 0.95 0.55 1.0 0.5 1.05 0.45 1.05 0.4 1.1 0.4 1.1 0.35 1.15 0.3 1.2 0.25 1.2 0.2 1.25 0.2 Q1.35 0.25 1.45 0.3 L1.4 0.35 1.35 0.45 1.2 0.55 1.15 0.6 M-0.2 1.85 L-0.05 1.75 0.05 1.65 0.1 1.55 0.15 1.55 0.2 1.45 0.25 1.45 0.55 1.55 0.6 1.6 0.65 1.7 0.6 1.7 0.55 1.75 0.5 1.75 0.3 1.8 0.25 1.8 0.2 1.8 0.05 1.85 -0.1 1.85 -0.2 1.85" fill="#215358" fill-rule="evenodd" stroke="none"/>
    <path d="M0.8 -3.15 L0.8 -3.2 0.75 -3.25 0.75 -3.3 0.7 -3.35 0.7 -3.4 0.65 -3.45 0.6 -3.5 0.6 -3.55 0.55 -3.55 0.5 -3.7 0.4 -3.8 0.4 -3.85 0.25 -3.95 0.25 -3.95 0.2 -3.95 0.15 -3.95 -0.1 -4.0 -0.15 -4.05 -0.3 -4.05 -0.35 -4.05 Q-0.55 -4.05 -0.7 -4.05 L-0.8 -4.05 -1.1 -4.0 -1.25 -3.95 -1.3 -3.9 -1.45 -3.75 -1.45 -3.75 -1.55 -3.6 -1.65 -3.3 -1.7 -3.25 -1.75 -3.15 -1.75 -3.1 -1.8 -2.75 -1.85 -2.7 Q-1.85 -2.6 -1.9 -2.5 L-1.9 -2.45 -1.95 -2.3 -1.95 -2.05 -1.95 -1.75 -1.95 -1.6 -2.0 -1.55 -1.95 -1.35 -1.95 -1.3 -1.9 -1.25 -1.9 -1.15 -1.8 -0.95 -1.75 -0.8 -1.75 -0.6 -1.7 -0.55 -1.7 -0.5 -1.65 -0.45 -1.65 -0.4 -1.6 -0.25 -1.55 -0.2 -1.55 -0.2 -1.5 -0.05 -1.45 0.0 -1.35 0.15 -1.3 0.25 -1.25 0.35 -1.2 0.4 -1.2 0.4 -1.2 0.45 -1.15 0.5 -1.1 0.75 -1.1 0.75 -1.1 0.8 -1.05 0.95 -1.05 1.05 -1.05 1.4 -1.0 1.55 -1.0 1.75 -0.95 1.8 -1.0 1.8 -0.9 2.0 -0.85 2.15 Q-0.8 2.2 -0.75 2.25 L-0.75 2.35 -0.7 2.35 -0.65 2.35 -0.6 2.55 -0.6 2.6 -0.55 2.6 -0.45 2.75 -0.4 2.75 -0.4 2.8 -0.35 2.85 -0.25 2.95 -0.2 3.05 -0.2 3.1 -0.2 3.1 -0.15 3.15 -0.15 3.2 0.0 3.5 0.05 3.55 0.1 3.6 0.15 3.65 M0.8 -3.15 L0.85 -3.1 0.85 -3.05 0.9 -2.9 0.9 -2.8 0.95 -2.45 0.95 -2.45 1.05 -2.15 1.05 -2.05 1.1 -1.95 1.15 -1.9 1.2 -1.75 1.25 -1.55 1.3 -1.5 1.3 -1.4 Q1.35 -1.3 1.4 -1.25 L1.5 -1.05 1.55 -0.95 1.55 -0.9 1.65 -0.7 1.65 -0.7 1.7 -0.6 1.75 -0.5 1.8 -0.5 1.8 -0.4 1.85 -0.35 1.85 -0.15 1.85 -0.05 1.9 0.0 1.9 0.4 1.95 0.45 1.95 0.6 1.95 0.75 1.95 0.85 2.0 1.05 2.0 1.25 2.0 1.3 2.0 1.6 1.95 1.7 1.95 1.95 1.95 2.05 1.9 2.25 1.9 2.3 1.85 2.6 1.8 2.85 1.9 3.0 1.9 3.05 1.9 3.1 1.95 3.15 1.9 3.4 1.85 3.5 1.85 3.65" fill="none" stroke="#000000" stroke-linecap="round" stroke-linejoin="round" stroke-opacity="0.4509804" stroke-width="0.1"/>
  </g>
</svg>
