<?xml version="1.0" encoding="UTF-8" standalone="no"?>
<svg xmlns:xlink="http://www.w3.org/1999/xlink" height="58.2px" width="42.45px" xmlns="http://www.w3.org/2000/svg">
  <g transform="matrix(1.0, 0.0, 0.0, 1.0, 1.45, 6.1)">
    <path d="M1.0 -2.15 L0.9 -1.65 0.9 -1.6 Q1.35 -1.25 1.35 -0.9 1.35 -0.55 1.1 -0.3 0.8 0.0 0.25 0.0 -0.75 0.0 -1.2 -0.65 -1.4 -0.95 -1.45 -1.3 -1.45 -1.95 -1.0 -2.15 L-1.0 -2.2 Q-1.1 -2.8 -1.0 -3.5 -1.0 -4.75 -0.7 -5.5 -0.4 -6.15 0.0 -6.1 0.4 -6.1 0.7 -5.4 1.0 -4.65 1.0 -3.45 1.1 -2.75 1.0 -2.15 M16.1 -2.15 Q16.65 -2.0 17.1 -1.55 17.55 -1.1 17.55 -0.6 16.85 0.45 16.4 0.9 16.55 1.1 16.55 1.35 16.55 1.75 16.2 2.0 15.85 2.35 15.05 2.35 14.5 2.35 14.25 1.9 14.1 1.65 14.1 1.4 14.1 0.95 14.5 0.65 14.75 0.45 15.05 0.4 L14.95 0.2 Q14.65 -0.5 14.65 -0.85 14.65 -1.7 15.1 -2.0 15.5 -2.3 16.1 -2.15 M34.4 14.1 Q35.05 14.25 35.55 14.8 36.05 15.4 36.05 16.2 36.05 16.6 35.75 16.85 35.45 17.05 34.75 17.05 34.65 17.05 34.45 17.15 34.25 17.25 34.15 17.25 33.35 17.25 32.95 16.3 32.75 15.7 32.75 15.2 32.75 14.45 33.25 14.15 33.7 13.9 34.4 14.1 M37.75 32.65 Q37.75 32.3 38.5 31.65 39.25 30.95 39.65 30.95 41.0 30.95 41.0 32.45 41.0 32.95 40.7 33.4 40.35 34.0 39.6 34.0 38.55 34.0 38.05 33.45 37.75 33.15 37.75 32.65 M36.25 52.1 Q34.1 52.1 34.1 50.6 34.1 49.9 34.55 49.55 35.0 49.2 35.65 49.25 36.3 49.25 36.75 49.65 37.25 50.05 37.25 50.65 37.25 51.1 37.05 51.5 36.8 52.1 36.25 52.1" fill="#ffb500" fill-rule="evenodd" stroke="none"/>
  </g>
</svg>
