<?xml version="1.0" encoding="UTF-8" standalone="no"?>
<svg xmlns:xlink="http://www.w3.org/1999/xlink" height="21.0px" width="3.5px" xmlns="http://www.w3.org/2000/svg">
  <g transform="matrix(1.0, 0.0, 0.0, 1.0, 2.85, 11.25)">
    <path d="M-2.65 -9.8 Q-2.55 -10.15 -2.3 -10.35 -2.1 -10.6 -1.75 -10.7 L-1.6 -10.75 -1.4 -10.85 -1.25 -11.05 -1.0 -11.2 -0.7 -11.0 Q-0.6 -10.95 -0.55 -10.85 L-0.45 -10.6 -0.4 -9.45 -0.35 -8.55 -0.35 -8.25 -0.45 -8.3 -0.4 -8.55 -0.4 -8.6 Q-0.4 -8.8 -0.5 -8.9 L-0.5 -8.3 -0.45 -8.15 -0.75 -8.15 -0.7 -8.1 -0.85 -8.0 -0.95 -7.95 -1.25 -8.0 -1.15 -8.05 -1.0 -8.1 -0.9 -8.15 -1.05 -8.15 -1.2 -8.2 -1.15 -8.2 -1.2 -8.2 -1.2 -8.2 -1.15 -8.2 -1.1 -8.25 -0.85 -8.2 -0.6 -8.2 -0.85 -8.25 -0.85 -8.25 -0.8 -8.35 -0.85 -8.35 -1.05 -8.4 -1.15 -8.4 -1.3 -8.4 -1.25 -9.1 -1.25 -9.8 -1.25 -10.05 Q-1.25 -10.15 -1.3 -10.25 L-1.35 -10.4 -1.45 -10.6 Q-1.8 -10.5 -2.05 -10.3 -2.35 -10.15 -2.5 -9.85 L-2.65 -9.8 M-1.2 -10.95 L-1.05 -10.7 -0.8 -10.8 -1.0 -10.85 -0.9 -10.95 -1.2 -10.95" fill="#3a1d0c" fill-rule="evenodd" stroke="none"/>
    <path d="M-1.25 -9.8 Q-1.25 -10.2 -1.45 -10.4 -1.8 -10.3 -2.0 -10.2 -2.15 -10.1 -2.3 -9.95 L-2.5 -9.6 -2.5 -9.85 Q-2.35 -10.15 -2.05 -10.3 -1.8 -10.5 -1.45 -10.6 L-1.35 -10.4 -1.3 -10.25 Q-1.25 -10.15 -1.25 -10.05 L-1.25 -9.8" fill="#b4907d" fill-rule="evenodd" stroke="none"/>
    <path d="M-1.2 -10.95 L-0.9 -10.95 -1.0 -10.85 -0.8 -10.8 -1.05 -10.7 -1.2 -10.95" fill="#875b4e" fill-rule="evenodd" stroke="none"/>
    <path d="M-1.15 -8.4 L-1.05 -8.4 Q-1.05 -8.35 -1.1 -8.35 L-1.15 -8.35 -1.15 -8.4" fill="#af9087" fill-rule="evenodd" stroke="none"/>
    <path d="M-1.5 -7.05 Q-1.75 -7.1 -2.0 -7.2 L-1.85 -7.35 -2.0 -7.5 -1.85 -7.55 -2.3 -7.8 -2.4 -8.05 Q-2.25 -7.9 -2.0 -7.85 L-2.25 -8.15 -2.55 -8.4 -2.6 -8.7 Q-2.45 -8.45 -2.1 -8.4 L-1.7 -8.4 -1.3 -8.4 -1.15 -8.4 -1.15 -8.35 -1.1 -8.35 Q-1.05 -8.35 -1.05 -8.4 L-0.85 -8.35 -0.8 -8.35 -0.85 -8.25 -1.1 -8.25 -1.15 -8.2 -1.2 -8.2 -1.2 -8.2 -1.35 -8.15 -1.15 -8.05 -1.25 -8.0 -0.95 -7.95 -1.05 -7.85 -1.35 -7.9 -1.4 -8.0 -1.3 -8.05 -1.55 -8.1 -2.1 -8.15 -1.8 -7.9 -1.6 -8.05 -1.55 -8.0 -1.7 -7.7 -1.4 -7.75 -1.45 -7.7 -1.5 -7.65 -1.5 -7.55 -1.5 -7.55 -1.55 -7.6 -1.65 -7.6 -1.6 -7.55 -1.55 -7.5 -1.3 -7.15 -1.45 -7.1 -1.45 -7.05 -1.5 -7.05 M-1.9 -7.7 L-1.75 -7.6 -1.8 -7.75 -1.9 -7.7 M-1.6 -7.45 Q-1.65 -7.5 -1.65 -7.45 -1.65 -7.35 -1.6 -7.45" fill="#582e14" fill-rule="evenodd" stroke="none"/>
    <path d="M0.05 -7.5 L0.15 -7.6 Q0.15 -7.7 0.1 -7.75 0.0 -7.8 -0.15 -7.8 L-0.15 -7.8 Q-0.3 -7.8 -0.4 -7.75 L-0.2 -7.7 -0.15 -7.7 -0.05 -7.65 -0.05 -7.55 -0.15 -7.55 -0.35 -7.6 -0.4 -7.45 -0.15 -7.45 -0.15 -7.45 0.05 -7.5 M-0.35 -8.25 L-0.2 -8.2 Q0.0 -8.15 0.1 -8.05 0.35 -7.85 0.3 -7.55 L0.2 -7.4 0.25 -7.4 0.25 -7.35 0.15 -7.2 0.05 -7.3 -0.05 -7.35 -0.15 -7.3 -0.2 -7.25 -0.35 -7.1 -0.2 -7.05 -0.35 -6.95 -0.45 -6.8 Q-0.45 -6.85 -0.45 -6.95 L-0.45 -7.2 -0.8 -7.2 -1.15 -7.2 -1.2 -7.0 -1.45 -7.05 -1.45 -7.1 -1.3 -7.15 -1.55 -7.5 -1.5 -7.55 -1.3 -7.6 -1.45 -7.7 -1.4 -7.75 Q-1.4 -7.9 -1.55 -8.0 L-1.6 -8.05 -1.55 -8.1 -1.3 -8.05 -1.4 -8.0 -1.35 -7.9 -1.05 -7.85 -0.95 -7.95 -0.85 -8.0 -0.7 -8.1 -0.75 -8.15 -0.45 -8.15 -0.5 -8.3 -0.45 -8.3 -0.35 -8.25 M-1.5 -7.55 L-1.5 -7.55" fill="#2b1108" fill-rule="evenodd" stroke="none"/>
    <path d="M-0.45 -8.3 L-0.5 -8.3 -0.5 -8.9 Q-0.4 -8.8 -0.4 -8.6 L-0.4 -8.55 -0.45 -8.3" fill="#745033" fill-rule="evenodd" stroke="none"/>
    <path d="M-2.0 -7.2 Q-2.45 -7.4 -2.65 -8.05 L-2.75 -8.5 -2.8 -8.95 Q-2.85 -9.4 -2.65 -9.8 L-2.5 -9.85 -2.5 -9.6 -2.65 -9.15 Q-2.7 -8.9 -2.6 -8.7 L-2.55 -8.4 -2.5 -8.2 -2.4 -8.05 -2.3 -7.8 -2.2 -7.65 -2.0 -7.5 -1.85 -7.35 -2.0 -7.2" fill="#755036" fill-rule="evenodd" stroke="none"/>
    <path d="M0.45 -6.75 L0.3 -6.75 0.2 -6.85 0.15 -6.95 0.15 -7.0 0.1 -7.0 -0.15 -7.0 -0.35 -6.95 -0.2 -7.05 -0.35 -7.1 -0.2 -7.25 -0.15 -7.3 -0.05 -7.35 0.05 -7.3 0.15 -7.2 0.25 -7.1 0.45 -7.05 0.35 -6.9 0.45 -6.75" fill="#4d280d" fill-rule="evenodd" stroke="none"/>
    <path d="M0.15 -6.95 L0.1 -6.95 -0.15 -6.95 -0.15 -6.95 -0.35 -6.95 -0.4 -6.3 -0.4 -5.55 -0.4 -5.4 -0.4 -5.25 Q-0.4 -5.1 -0.4 -5.0 L-0.45 -5.15 -0.45 -5.55 -0.45 -6.15 Q-0.45 -6.25 -0.5 -6.3 L-0.65 -6.4 -0.45 -6.35 -0.5 -6.7 -0.45 -6.8 -0.35 -6.95 -0.15 -7.0 0.1 -7.0 0.15 -7.0 0.15 -6.95" fill="#8f6026" fill-rule="evenodd" stroke="none"/>
    <path d="M-1.15 -6.2 L-1.2 -6.45 -1.2 -6.7 Q-1.2 -6.8 -1.3 -6.9 L-1.5 -7.05 -1.45 -7.05 -1.2 -7.0 -1.2 -6.95 -1.1 -7.05 -0.95 -7.1 -0.8 -7.1 -0.55 -7.15 -0.55 -7.05 -0.65 -7.0 -0.75 -6.95 -0.8 -6.95 -0.85 -6.95 -0.85 -6.75 -1.15 -6.7 -1.15 -6.45 -1.15 -6.3 -0.95 -6.35 -0.9 -6.35 -0.9 -5.55 -0.95 -5.9 Q-1.0 -6.1 -1.15 -6.2" fill="#c6a98c" fill-rule="evenodd" stroke="none"/>
    <path d="M-1.2 -7.0 L-1.15 -7.2 -0.8 -7.2 -0.45 -7.2 -0.45 -6.95 Q-0.65 -6.8 -0.8 -6.75 L-0.8 -6.75 -0.85 -6.75 -0.85 -6.95 -0.8 -6.95 -0.75 -6.95 -0.65 -7.0 -0.55 -7.05 -0.55 -7.15 -0.8 -7.1 -0.95 -7.1 -1.1 -7.05 -1.2 -6.95 -1.2 -7.0" fill="#a57749" fill-rule="evenodd" stroke="none"/>
    <path d="M-0.45 -6.95 Q-0.45 -6.85 -0.45 -6.8 L-0.5 -6.7 -0.65 -6.6 -0.75 -6.65 -0.7 -6.75 -0.8 -6.75 -0.8 -6.75 Q-0.65 -6.8 -0.45 -6.95" fill="#c29d78" fill-rule="evenodd" stroke="none"/>
    <path d="M-0.85 -6.75 L-0.8 -6.75 -0.7 -6.75 -0.75 -6.65 -0.65 -6.6 -0.5 -6.7 -0.45 -6.35 -0.65 -6.4 -0.75 -6.35 -0.75 -6.35 -0.85 -6.35 -0.9 -6.35 -0.95 -6.35 -1.15 -6.45 -1.15 -6.7 -0.85 -6.75 M-0.8 -6.6 L-0.95 -6.7 -0.95 -6.4 -0.9 -6.6 -0.7 -6.55 -0.8 -6.6 M-0.45 -4.2 L-0.5 -4.5 -0.5 -4.75 Q-0.45 -4.5 -0.45 -4.05 L-0.45 -4.2" fill="#f1deca" fill-rule="evenodd" stroke="none"/>
    <path d="M-0.8 -6.6 L-0.7 -6.55 -0.9 -6.6 -0.95 -6.4 -0.95 -6.7 -0.8 -6.6" fill="#c3a680" fill-rule="evenodd" stroke="none"/>
    <path d="M-0.7 -6.15 L-0.85 -6.25 -0.75 -6.3 -0.7 -6.35 -0.75 -6.35 -0.85 -6.35 -0.75 -6.35 -0.75 -6.35 -0.65 -6.4 -0.5 -6.3 Q-0.45 -6.25 -0.45 -6.15 L-0.6 -6.15 -0.7 -6.15" fill="#b09482" fill-rule="evenodd" stroke="none"/>
    <path d="M-0.85 -6.35 L-0.75 -6.35 -0.7 -6.35 -0.75 -6.3 -0.85 -6.25 -0.7 -6.15 -0.75 -6.05 -0.75 -5.95 -0.75 -5.55 -0.75 -5.45 Q-0.8 -4.9 -0.8 -4.45 L-0.8 -4.1 -0.75 -3.75 Q-0.7 -3.15 -0.75 -2.6 L-0.75 -2.1 -0.8 -2.55 -0.85 -2.8 -0.85 -2.9 Q-0.8 -3.2 -0.85 -3.35 L-0.85 -4.0 -0.9 -5.4 -0.9 -5.55 -0.9 -6.35 -0.85 -6.35" fill="#764f1f" fill-rule="evenodd" stroke="none"/>
    <path d="M-1.15 -6.45 L-0.95 -6.35 -1.15 -6.3 -1.15 -6.45" fill="#663610" fill-rule="evenodd" stroke="none"/>
    <path d="M-1.15 -5.15 L-1.15 -5.6 -1.15 -6.2 Q-1.0 -6.1 -0.95 -5.9 L-0.9 -5.55 -0.9 -5.4 -0.95 -5.4 -1.0 -5.4 -1.1 -5.4 -1.1 -5.05 -0.95 -5.05 -0.95 -4.95 -1.1 -4.8 -1.15 -5.15" fill="#cbb9c1" fill-rule="evenodd" stroke="none"/>
    <path d="M-1.1 -3.55 L-1.15 -3.8 -1.15 -4.05 -1.1 -4.25 -1.1 -4.2 -1.0 -4.55 Q-0.95 -4.8 -0.95 -4.95 L-0.95 -5.05 -0.95 -5.4 -0.9 -5.4 -0.85 -4.0 -0.85 -3.35 -0.9 -3.45 -1.0 -3.4 -1.05 -3.75 -1.1 -3.55" fill="#fcf7ef" fill-rule="evenodd" stroke="none"/>
    <path d="M-0.95 -5.05 L-1.1 -5.05 -1.1 -5.4 -1.0 -5.4 -0.95 -5.4 -0.95 -5.05" fill="#b4978b" fill-rule="evenodd" stroke="none"/>
    <path d="M-0.7 -6.15 L-0.6 -6.15 -0.65 -5.55 -0.65 -5.1 -0.6 -4.75 -0.55 -4.4 -0.55 -4.25 -0.55 -4.2 -0.55 -4.0 -0.55 -4.0 -0.55 -3.7 -0.6 -3.4 -0.65 -3.1 -0.7 -3.45 -0.75 -3.75 -0.8 -4.1 -0.8 -4.45 Q-0.8 -4.9 -0.75 -5.45 L-0.75 -5.55 -0.75 -5.95 -0.75 -6.05 -0.7 -6.15" fill="#fdfcfa" fill-rule="evenodd" stroke="none"/>
    <path d="M-0.6 -6.15 L-0.45 -6.15 -0.45 -5.55 -0.45 -5.15 -0.55 -5.3 -0.6 -5.0 -0.6 -4.7 -0.55 -4.4 -0.6 -4.75 -0.65 -5.1 -0.65 -5.55 -0.6 -6.15" fill="#cbc4e5" fill-rule="evenodd" stroke="none"/>
    <path d="M-0.4 -5.0 Q-0.4 -4.95 -0.4 -4.8 L-0.4 -4.3 -0.4 -4.0 -0.45 -3.95 -0.55 -4.0 -0.55 -4.2 -0.45 -4.2 -0.45 -4.05 Q-0.45 -4.5 -0.5 -4.75 L-0.55 -5.1 -0.55 -4.25 -0.55 -4.4 -0.6 -4.7 -0.6 -5.0 -0.55 -5.3 -0.45 -5.15 -0.4 -5.0" fill="#bb977d" fill-rule="evenodd" stroke="none"/>
    <path d="M-0.25 1.45 L-0.2 1.5 0.05 5.35 0.2 6.75 0.4 9.3 0.35 9.3 0.3 8.3 0.25 7.8 0.2 7.25 Q0.15 7.0 0.15 6.55 L0.05 5.85 0.0 5.35 0.0 4.85 -0.05 4.5 -0.1 3.9 -0.15 3.3 -0.15 2.7 -0.2 2.1 -0.25 1.75 -0.25 1.4 -0.25 1.45 M-0.5 -4.75 L-0.5 -4.5 -0.45 -4.2 -0.55 -4.2 -0.55 -4.25 -0.55 -5.1 -0.5 -4.75" fill="#814d18" fill-rule="evenodd" stroke="none"/>
    <path d="M-1.1 -4.25 L-1.15 -4.7 -1.15 -5.15 -1.1 -4.8 -0.95 -4.95 Q-0.95 -4.8 -1.0 -4.55 L-1.1 -4.2 -1.1 -4.25" fill="#ead3c3" fill-rule="evenodd" stroke="none"/>
    <path d="M-1.05 -2.95 L-1.1 -3.55 -1.05 -3.75 -1.0 -3.4 -0.9 -3.45 -0.85 -3.35 Q-0.8 -3.2 -0.85 -2.9 L-0.9 -3.25 -1.0 -3.25 -1.05 -2.95" fill="#c2ab95" fill-rule="evenodd" stroke="none"/>
    <path d="M-0.55 -4.0 L-0.45 -3.95 -0.5 -3.8 -0.45 -3.65 -0.4 -2.85 -0.4 -1.85 -0.45 -1.6 -0.5 -2.1 Q-0.45 -2.3 -0.5 -2.5 L-0.55 -2.9 -0.55 -3.3 Q-0.55 -3.45 -0.55 -3.65 L-0.55 -4.0 -0.55 -4.0" fill="#7b512a" fill-rule="evenodd" stroke="none"/>
    <path d="M-0.4 -4.0 Q-0.35 -3.75 -0.4 -3.6 L-0.45 -3.8 -0.45 -3.65 -0.5 -3.8 -0.45 -3.95 -0.4 -4.0" fill="#b89a6e" fill-rule="evenodd" stroke="none"/>
    <path d="M-0.4 -3.6 L-0.35 -3.2 -0.35 -2.8 -0.3 -2.0 -0.3 -1.15 -0.25 -0.45 -0.25 0.45 -0.3 -0.15 Q-0.35 -0.5 -0.4 -0.75 L-0.45 -1.2 -0.45 -1.6 -0.4 -1.85 -0.4 -2.85 -0.45 -3.65 -0.45 -3.8 -0.4 -3.6" fill="#e2c9a8" fill-rule="evenodd" stroke="none"/>
    <path d="M-0.75 -2.6 Q-0.7 -3.15 -0.75 -3.75 L-0.7 -3.45 -0.65 -3.1 -0.6 -3.4 -0.55 -3.7 -0.55 -4.0 -0.55 -3.65 Q-0.55 -3.45 -0.55 -3.3 L-0.55 -2.9 -0.5 -2.5 Q-0.45 -2.3 -0.5 -2.1 L-0.55 -2.35 -0.55 -2.6 -0.65 -2.6 -0.7 -2.3 -0.75 -2.6" fill="#dbcbc1" fill-rule="evenodd" stroke="none"/>
    <path d="M-1.05 -2.65 L-1.05 -2.95 -1.0 -3.25 -0.9 -3.25 -0.85 -2.9 -0.85 -2.8 -0.9 -2.6 -0.9 -2.4 -1.0 -2.35 -1.05 -2.65" fill="#a0866d" fill-rule="evenodd" stroke="none"/>
    <path d="M-1.05 -1.65 L-1.05 -1.85 -1.05 -2.65 -1.0 -2.35 -0.9 -2.4 -0.9 -2.6 -0.85 -2.8 -0.8 -2.55 -0.85 -2.35 -0.85 -2.2 -0.9 -2.1 -0.95 -2.0 -1.0 -1.95 -1.0 -1.55 -1.05 -1.65" fill="#ccb497" fill-rule="evenodd" stroke="none"/>
    <path d="M-0.8 -2.55 L-0.75 -2.1 -0.75 -2.6 -0.7 -2.3 -0.7 -1.9 -0.7 -0.95 -0.6 -0.05 -0.65 0.25 -0.65 0.75 -0.7 0.3 -0.8 -1.95 -0.85 -2.35 -0.8 -2.55" fill="#a97e4c" fill-rule="evenodd" stroke="none"/>
    <path d="M-1.0 -0.5 L-1.05 -1.65 -1.0 -1.55 -1.0 -1.95 -0.95 -2.0 -0.9 -2.1 -0.85 -2.2 -0.85 -2.35 -0.8 -1.95 -0.7 0.3 -0.9 0.1 -0.9 0.05 -0.9 0.05 -0.75 0.1 -0.8 -0.05 -0.9 -0.15 -0.9 -0.45 -0.95 -0.7 -1.0 -0.5 M-0.85 0.85 L-0.65 0.8 -0.65 1.75 -0.7 1.55 -0.75 1.35 -0.85 0.85" fill="#d1ba9f" fill-rule="evenodd" stroke="none"/>
    <path d="M-0.5 -2.1 L-0.45 -1.6 -0.45 -1.2 -0.4 -0.75 -0.45 -0.4 Q-0.45 -0.15 -0.45 -0.05 L-0.5 0.0 -0.6 -0.05 -0.7 -0.95 -0.7 -1.9 -0.7 -2.3 -0.65 -2.6 -0.55 -2.6 -0.55 -2.35 -0.5 -2.1" fill="#fdfdfb" fill-rule="evenodd" stroke="none"/>
    <path d="M0.25 -7.35 L0.4 -7.3 0.5 -7.2 0.5 -7.2 0.45 -7.05 0.25 -7.1 0.15 -7.2 0.25 -7.35 M0.45 -7.05 L0.45 -7.05" fill="#80542a" fill-rule="evenodd" stroke="none"/>
    <path d="M0.45 -7.05 L0.55 -7.0 0.55 -6.8 0.5 -6.8 0.45 -6.75 0.35 -6.9 0.45 -7.05 0.45 -7.05" fill="#bd9b7e" fill-rule="evenodd" stroke="none"/>
    <path d="M-0.9 0.0 L-0.95 -0.2 -0.95 -0.35 -1.0 -0.5 -1.0 -0.5 -0.95 -0.7 -0.9 -0.45 -0.9 -0.15 -0.8 -0.05 -0.75 0.1 -0.9 0.05 -0.9 0.05 -0.9 0.0" fill="#f8e8d6" fill-rule="evenodd" stroke="none"/>
    <path d="M-0.25 0.45 L-0.25 1.05 -0.2 1.25 -0.25 1.45 -0.25 1.4 -0.25 1.05 Q-0.25 0.8 -0.3 0.6 L-0.35 0.65 -0.4 0.7 -0.4 0.8 -0.35 0.85 -0.5 0.85 -0.5 0.75 -0.6 0.7 -0.6 0.6 -0.55 0.7 -0.5 0.65 -0.55 0.4 -0.4 0.35 -0.45 0.5 -0.3 0.55 -0.3 0.35 -0.35 0.1 -0.45 -0.05 Q-0.45 -0.15 -0.45 -0.4 L-0.4 -0.75 Q-0.35 -0.5 -0.3 -0.15 L-0.25 0.45" fill="#8e704b" fill-rule="evenodd" stroke="none"/>
    <path d="M-0.6 -0.05 L-0.5 0.0 -0.45 -0.05 -0.35 0.1 -0.4 0.35 -0.4 0.1 -0.5 0.1 -0.6 0.15 -0.6 0.35 -0.5 0.3 -0.4 0.35 -0.55 0.4 -0.5 0.65 -0.55 0.7 -0.6 0.6 -0.65 0.25 -0.6 -0.05" fill="#c0ad8c" fill-rule="evenodd" stroke="none"/>
    <path d="M-0.4 0.35 L-0.5 0.3 -0.6 0.35 -0.6 0.15 -0.5 0.1 -0.4 0.1 -0.4 0.35" fill="#f7eddb" fill-rule="evenodd" stroke="none"/>
    <path d="M-0.4 0.35 L-0.35 0.1 -0.3 0.35 -0.3 0.55 -0.45 0.5 -0.4 0.35" fill="#7c5225" fill-rule="evenodd" stroke="none"/>
    <path d="M-0.35 0.85 L-0.4 0.8 -0.4 0.7 -0.35 0.65 -0.3 0.6 Q-0.25 0.8 -0.25 1.05 L-0.3 1.0 Q-0.3 1.15 -0.35 1.25 L-0.4 1.05 -0.35 0.85" fill="#6f3c15" fill-rule="evenodd" stroke="none"/>
    <path d="M-0.85 0.85 L-0.9 0.65 -0.9 0.25 -0.9 0.0 -0.9 0.05 -0.9 0.1 -0.85 0.3 -0.8 0.5 -0.85 0.55 -0.8 0.65 Q-0.75 0.7 -0.75 0.75 L-0.8 0.8 -0.85 0.85 -0.85 0.85" fill="#b49260" fill-rule="evenodd" stroke="none"/>
    <path d="M-0.9 0.1 L-0.7 0.3 -0.65 0.75 -0.65 0.8 -0.85 0.85 -0.8 0.8 -0.75 0.75 Q-0.75 0.7 -0.8 0.65 L-0.85 0.55 -0.8 0.5 -0.85 0.3 -0.9 0.1" fill="#e9d7bf" fill-rule="evenodd" stroke="none"/>
    <path d="M-0.5 3.3 L-0.7 3.2 -0.7 2.95 -0.6 3.0 -0.65 2.9 -0.75 2.8 -0.8 2.45 -0.8 2.1 -0.6 2.1 -0.6 1.85 -0.6 1.8 -0.65 1.75 -0.65 0.8 -0.65 0.75 -0.65 0.25 -0.6 0.6 -0.6 0.7 -0.6 0.9 -0.55 1.05 -0.55 1.5 -0.5 1.9 -0.45 2.75 -0.45 2.9 -0.4 3.1 -0.35 3.15 -0.3 3.2 -0.35 3.25 -0.4 3.35 -0.5 3.3" fill="#6b4d28" fill-rule="evenodd" stroke="none"/>
    <path d="M-0.5 1.9 L-0.55 1.5 -0.55 1.05 -0.6 0.9 -0.6 0.7 -0.5 0.75 -0.5 0.85 -0.35 0.85 -0.4 1.05 -0.35 1.25 -0.4 1.35 -0.35 1.45 -0.35 1.75 -0.5 1.9" fill="#ad9977" fill-rule="evenodd" stroke="none"/>
    <path d="M-0.8 2.1 L-0.85 1.6 -0.9 1.1 -0.85 0.85 -0.85 0.85 -0.75 1.35 -0.7 1.55 -0.65 1.75 -0.6 1.8 Q-0.7 1.75 -0.7 1.8 L-0.6 1.85 -0.6 2.1 -0.8 2.1" fill="#846843" fill-rule="evenodd" stroke="none"/>
    <path d="M-0.65 3.85 L-0.7 3.25 -0.5 3.3 -0.4 3.35 -0.35 3.25 -0.3 3.2 -0.35 3.15 -0.4 3.1 -0.35 3.05 -0.3 2.9 -0.3 2.45 -0.35 2.15 Q-0.35 1.95 -0.35 1.75 L-0.35 1.45 -0.4 1.35 -0.35 1.25 Q-0.3 1.15 -0.3 1.0 L-0.25 1.05 -0.25 1.4 -0.25 1.75 -0.2 2.1 -0.15 2.7 -0.15 3.3 -0.1 3.9 -0.05 4.5 0.0 4.85 -0.2 5.0 Q-0.3 4.7 -0.1 4.4 -0.2 4.35 -0.3 4.35 L-0.45 4.25 -0.5 4.05 -0.5 3.9 -0.65 3.85 M-0.6 3.35 L-0.6 3.45 -0.5 3.5 -0.5 3.4 Q-0.5 3.35 -0.6 3.35 M-0.25 3.4 L-0.4 3.4 -0.35 3.7 Q-0.25 3.6 -0.25 3.4" fill="#493013" fill-rule="evenodd" stroke="none"/>
    <path d="M-0.35 1.75 Q-0.35 1.95 -0.35 2.15 L-0.4 2.35 -0.4 2.7 -0.35 3.05 -0.4 3.1 -0.45 2.9 -0.45 2.75 -0.5 1.9 -0.35 1.75" fill="#88744f" fill-rule="evenodd" stroke="none"/>
    <path d="M-0.35 2.15 L-0.3 2.45 -0.3 2.9 -0.35 3.05 -0.4 2.7 -0.4 2.35 -0.35 2.15" fill="#684f29" fill-rule="evenodd" stroke="none"/>
    <path d="M-0.6 1.8 L-0.6 1.85 -0.7 1.8 Q-0.7 1.75 -0.6 1.8" fill="#b7a48b" fill-rule="evenodd" stroke="none"/>
    <path d="M-0.6 3.35 Q-0.5 3.35 -0.5 3.4 L-0.5 3.5 -0.6 3.45 -0.6 3.35" fill="#6e4e31" fill-rule="evenodd" stroke="none"/>
    <path d="M-0.55 5.35 L-0.6 5.0 -0.65 4.4 -0.65 3.85 -0.5 3.9 -0.5 4.05 -0.45 4.25 -0.3 4.35 Q-0.2 4.35 -0.1 4.4 -0.3 4.7 -0.2 5.0 L-0.15 5.05 -0.25 5.1 -0.35 4.9 -0.4 4.75 -0.45 4.75 -0.5 4.8 -0.55 5.05 -0.55 5.35" fill="#58391b" fill-rule="evenodd" stroke="none"/>
    <path d="M-0.25 3.4 Q-0.25 3.6 -0.35 3.7 L-0.4 3.4 -0.25 3.4" fill="#664824" fill-rule="evenodd" stroke="none"/>
    <path d="M-0.5 6.0 L-0.55 5.35 -0.55 5.05 -0.5 4.8 -0.45 4.75 -0.4 4.75 -0.35 4.9 -0.25 5.1 -0.15 5.05 Q-0.15 5.2 -0.25 5.25 L-0.35 5.4 -0.4 5.6 -0.45 5.8 -0.5 6.0" fill="#3a291a" fill-rule="evenodd" stroke="none"/>
    <path d="M0.35 9.3 L0.35 9.4 Q0.2 9.3 0.15 9.2 L0.05 8.75 -0.05 8.3 -0.15 8.05 -0.3 7.8 -0.35 7.45 -0.4 7.1 -0.45 6.55 -0.5 6.0 -0.45 5.8 -0.4 5.6 -0.35 5.4 -0.25 5.25 Q-0.15 5.2 -0.15 5.05 L-0.2 5.0 0.0 4.85 0.0 5.35 0.05 5.85 0.15 6.55 Q0.15 7.0 0.2 7.25 L0.25 7.8 0.3 8.3 0.35 9.3" fill="#251a0f" fill-rule="evenodd" stroke="none"/>
    <path d="M0.35 9.4 L0.3 9.55 0.25 9.7 0.15 9.7 0.05 9.5 -0.05 9.25 Q-0.25 8.35 -0.3 7.8 L-0.15 8.05 -0.05 8.3 0.05 8.75 0.15 9.2 Q0.2 9.3 0.35 9.4" fill="#494138" fill-rule="evenodd" stroke="none"/>
    <path d="M0.05 -7.5 L-0.15 -7.45 -0.15 -7.45 -0.4 -7.45 -0.35 -7.6 -0.15 -7.55 -0.05 -7.55 -0.05 -7.65 -0.15 -7.7 -0.2 -7.7 -0.4 -7.75 Q-0.3 -7.8 -0.15 -7.8 L-0.15 -7.8 Q0.0 -7.8 0.1 -7.75 0.15 -7.7 0.15 -7.6 L0.05 -7.5 M-0.35 -8.25 L-0.2 -8.2 Q0.0 -8.15 0.1 -8.05 0.35 -7.85 0.3 -7.55 L0.2 -7.4 0.25 -7.4 0.25 -7.35 0.4 -7.3 0.5 -7.2 0.5 -7.2 0.45 -7.05 0.55 -7.0 0.55 -6.8 0.5 -6.8 0.45 -6.75 0.3 -6.75 0.2 -6.85 0.15 -6.95 0.1 -6.95 -0.15 -6.95 -0.15 -6.95 -0.35 -6.95 -0.4 -6.3 -0.4 -5.55 -0.4 -5.4 -0.4 -5.25 Q-0.4 -5.1 -0.4 -5.0 -0.4 -4.95 -0.4 -4.8 L-0.4 -4.3 -0.4 -4.0 Q-0.35 -3.75 -0.4 -3.6 L-0.35 -3.2 -0.35 -2.8 -0.3 -2.0 -0.3 -1.15 -0.25 -0.45 -0.25 0.45 -0.25 1.05 -0.2 1.25 -0.25 1.45 -0.2 1.5 0.05 5.35 0.2 6.75 0.4 9.3 0.35 9.3 0.35 9.4 0.3 9.55 0.25 9.7 0.15 9.7 0.05 9.5 -0.05 9.25 Q-0.25 8.35 -0.3 7.8 L-0.35 7.45 -0.4 7.1 -0.45 6.55 -0.5 6.0 -0.55 5.35 -0.6 5.0 -0.65 4.4 -0.65 3.85 -0.7 3.25 -0.5 3.3 -0.7 3.2 -0.7 2.95 -0.6 3.0 -0.65 2.9 -0.75 2.8 -0.8 2.45 -0.8 2.1 -0.85 1.6 -0.9 1.1 -0.85 0.85 -0.9 0.65 -0.9 0.25 -0.9 0.0 -0.95 -0.2 -0.95 -0.35 -1.0 -0.5 -1.05 -1.65 -1.05 -1.85 -1.05 -2.65 -1.05 -2.95 -1.1 -3.55 -1.15 -3.8 -1.15 -4.05 -1.1 -4.25 -1.15 -4.7 -1.15 -5.15 -1.15 -5.6 -1.15 -6.2 -1.2 -6.45 -1.2 -6.7 Q-1.2 -6.8 -1.3 -6.9 L-1.5 -7.05 Q-1.75 -7.1 -2.0 -7.2 -2.45 -7.4 -2.65 -8.05 L-2.75 -8.5 -2.8 -8.95 Q-2.85 -9.4 -2.65 -9.8 -2.55 -10.15 -2.3 -10.35 -2.1 -10.6 -1.75 -10.7 L-1.6 -10.75 -1.4 -10.85 -1.25 -11.05 -1.0 -11.2 -0.7 -11.0 Q-0.6 -10.95 -0.55 -10.85 L-0.45 -10.6 -0.4 -9.45 -0.35 -8.55 -0.35 -8.25 M-1.55 -8.1 L-1.6 -8.05 -1.8 -7.9 -2.1 -8.15 -1.55 -8.1 M-1.55 -8.0 Q-1.4 -7.9 -1.4 -7.75 L-1.7 -7.7 -1.55 -8.0 M-1.45 -7.7 L-1.3 -7.6 -1.5 -7.55 -1.55 -7.5 -1.6 -7.55 -1.65 -7.6 -1.55 -7.6 -1.5 -7.55 -1.5 -7.65 -1.45 -7.7 M-2.5 -9.6 L-2.3 -9.95 Q-2.15 -10.1 -2.0 -10.2 -1.8 -10.3 -1.45 -10.4 -1.25 -10.2 -1.25 -9.8 L-1.25 -9.1 -1.3 -8.4 -1.7 -8.4 -2.1 -8.4 Q-2.45 -8.45 -2.6 -8.7 -2.7 -8.9 -2.65 -9.15 L-2.5 -9.6 M-0.85 -8.25 L-0.85 -8.25 -0.6 -8.2 -0.85 -8.2 -1.1 -8.25 -1.15 -8.2 -1.2 -8.2 -1.05 -8.15 -0.9 -8.15 -1.0 -8.1 -1.15 -8.05 -1.35 -8.15 -1.2 -8.2 -1.2 -8.2 -1.15 -8.2 M-2.3 -7.8 L-1.85 -7.55 -2.0 -7.5 -2.2 -7.65 -2.3 -7.8 M-1.6 -7.45 Q-1.65 -7.35 -1.65 -7.45 -1.65 -7.5 -1.6 -7.45 M-1.9 -7.7 L-1.8 -7.75 -1.75 -7.6 -1.9 -7.7 M-0.85 -8.25 L-1.1 -8.25 M-2.4 -8.05 L-2.5 -8.2 -2.55 -8.4 -2.25 -8.15 -2.0 -7.85 Q-2.25 -7.9 -2.4 -8.05 Z" fill="none" stroke="#000000" stroke-linecap="round" stroke-linejoin="round" stroke-opacity="0.4" stroke-width="0.1"/>
  </g>
</svg>
