<?xml version="1.0" encoding="UTF-8" standalone="no"?>
<svg xmlns:xlink="http://www.w3.org/1999/xlink" height="20.2px" width="5.8px" xmlns="http://www.w3.org/2000/svg">
  <g transform="matrix(1.0, 0.0, 0.0, 1.0, 3.25, 10.8)">
    <path d="M-0.25 -7.5 L-0.4 -7.45 0.0 -7.4 -0.1 -7.3 -0.2 -7.25 -0.4 -7.2 -0.4 -7.35 Q-0.6 -7.45 -0.65 -7.6 L-0.7 -7.7 -0.9 -7.75 -1.0 -7.6 -0.75 -7.55 -0.75 -7.55 Q-1.05 -7.35 -1.1 -7.05 L-1.2 -7.15 -1.15 -7.45 -1.8 -7.45 -2.15 -7.45 -2.5 -7.45 -2.6 -7.45 Q-2.7 -7.5 -2.65 -7.55 -2.65 -8.25 -2.8 -8.7 L-3.0 -9.1 -3.15 -9.5 Q-3.2 -9.75 -3.1 -10.0 -3.0 -10.25 -2.75 -10.35 -2.6 -10.45 -2.2 -10.45 -1.8 -10.5 -1.6 -10.6 L-1.5 -10.5 -1.4 -10.7 -0.85 -10.7 Q-0.85 -10.55 -0.7 -10.45 L-0.55 -10.25 Q-0.55 -9.95 -0.45 -9.6 L-0.45 -8.9 -0.55 -8.75 -0.85 -8.7 -0.85 -8.85 -1.1 -8.7 -1.25 -8.65 -1.25 -8.7 -1.3 -8.8 Q-1.2 -8.8 -1.2 -8.9 -1.25 -8.95 -1.35 -8.9 L-1.4 -9.0 Q-1.3 -9.35 -1.3 -9.7 -1.35 -10.05 -1.7 -10.4 L-2.1 -10.35 -2.5 -10.3 Q-2.75 -10.3 -2.95 -10.1 -3.1 -9.9 -3.1 -9.65 -3.05 -9.25 -2.75 -8.6 -2.65 -8.4 -2.6 -8.1 L-2.55 -7.6 Q-2.45 -7.5 -2.3 -7.5 L-2.0 -7.55 -1.6 -7.55 -1.2 -7.6 -1.15 -7.7 -1.35 -7.7 -1.4 -8.1 -1.35 -8.2 -1.3 -8.25 Q-1.3 -8.35 -1.2 -8.3 L-1.0 -8.25 Q-0.85 -8.15 -0.65 -8.1 L-0.45 -8.1 -0.45 -7.75 Q-0.4 -7.55 -0.25 -7.5 M-1.4 -7.3 L-1.45 -7.35 Q-1.45 -7.4 -1.35 -7.4 -1.3 -7.4 -1.35 -7.3 L-1.4 -7.3 M-1.1 -10.1 L-1.4 -10.3 Q-1.45 -10.2 -1.4 -10.1 L-1.25 -9.95 -1.1 -10.1 M-1.1 -10.5 Q-0.95 -10.45 -0.95 -10.55 L-1.15 -10.7 -1.25 -10.5 -1.1 -10.5 M-1.1 -9.85 Q-1.2 -9.95 -1.25 -9.85 -1.15 -9.75 -1.1 -9.85" fill="#070608" fill-rule="evenodd" stroke="none"/>
    <path d="M-1.1 -10.5 L-1.25 -10.5 -1.15 -10.7 -0.95 -10.55 Q-0.95 -10.45 -1.1 -10.5" fill="#dadadd" fill-rule="evenodd" stroke="none"/>
    <path d="M-1.1 -10.1 L-1.25 -9.95 -1.4 -10.1 Q-1.45 -10.2 -1.4 -10.3 L-1.1 -10.1" fill="#695e74" fill-rule="evenodd" stroke="none"/>
    <path d="M-0.45 -8.15 L-0.4 -8.1 -0.45 -8.1 -0.65 -8.1 -0.7 -8.4 -0.85 -8.45 -1.0 -8.25 -1.2 -8.3 Q-1.3 -8.35 -1.3 -8.25 L-1.35 -8.2 -1.4 -8.1 Q-1.45 -8.2 -1.4 -8.3 L-1.25 -8.45 -1.45 -8.35 -1.45 -8.7 -1.4 -9.0 -1.35 -8.9 -1.3 -8.8 -1.25 -8.7 Q-1.4 -8.75 -1.35 -8.65 -1.35 -8.55 -1.25 -8.65 L-1.1 -8.7 -0.9 -8.6 -0.85 -8.7 -0.55 -8.75 -0.6 -8.45 Q-0.55 -8.25 -0.45 -8.15" fill="#342f2e" fill-rule="evenodd" stroke="none"/>
    <path d="M-0.45 -8.9 L-0.4 -8.5 Q-0.4 -8.3 -0.45 -8.15 -0.55 -8.25 -0.6 -8.45 L-0.55 -8.75 -0.45 -8.9" fill="#696564" fill-rule="evenodd" stroke="none"/>
    <path d="M-1.1 -9.85 Q-1.15 -9.75 -1.25 -9.85 -1.2 -9.95 -1.1 -9.85" fill="#736f7d" fill-rule="evenodd" stroke="none"/>
    <path d="M0.55 3.85 Q0.6 4.3 0.8 4.95 L1.15 6.15 Q1.3 6.8 1.65 7.9 L1.85 8.3 2.0 8.7 2.2 9.2 2.2 9.25 2.1 9.2 1.75 8.9 1.4 8.7 1.15 8.4 1.25 8.35 1.2 8.3 1.1 8.25 0.95 7.9 0.8 7.5 0.6 6.7 0.45 6.35 Q0.4 6.2 0.45 6.05 L0.2 5.3 0.2 5.15 0.0 4.5 -0.2 3.75 -0.35 2.95 -0.45 2.55 -0.6 1.7 -0.6 1.7 -0.8 0.2 -0.9 -0.2 -0.9 -0.6 -0.75 -0.65 -0.55 0.85 -0.45 1.65 -0.4 1.8 -0.3 2.4 -0.25 2.55 -0.2 2.8 0.05 3.2 0.1 3.1 Q0.25 3.8 0.55 3.85 M2.1 8.35 L2.15 8.4 2.45 9.1 2.5 9.35 2.45 9.35 2.35 9.1 2.1 8.35 M-1.35 -8.9 Q-1.25 -8.95 -1.2 -8.9 -1.2 -8.8 -1.3 -8.8 L-1.35 -8.9" fill="#b2b4b6" fill-rule="evenodd" stroke="none"/>
    <path d="M-1.25 -8.7 L-1.25 -8.65 Q-1.35 -8.55 -1.35 -8.65 -1.4 -8.75 -1.25 -8.7" fill="#888191" fill-rule="evenodd" stroke="none"/>
    <path d="M0.5 -7.0 L0.55 -6.95 0.45 -6.8 0.55 -6.6 Q0.45 -6.7 0.45 -6.8 0.45 -6.9 0.5 -7.0 M-0.35 -6.9 L-0.6 -6.7 -0.65 -6.7 -0.5 -7.05 -0.65 -7.2 -0.95 -6.75 -1.05 -6.75 -1.1 -6.75 -1.2 -6.8 -1.2 -6.8 -1.3 -6.8 -1.35 -7.05 Q-1.35 -7.25 -1.4 -7.3 L-1.35 -7.3 Q-1.3 -7.4 -1.35 -7.4 -1.45 -7.4 -1.45 -7.35 L-1.65 -7.3 -1.8 -7.45 -1.15 -7.45 -1.2 -7.15 -1.25 -7.05 -1.2 -6.9 -1.15 -6.95 -1.1 -7.05 Q-1.05 -7.35 -0.75 -7.55 L-0.75 -7.55 -0.65 -7.6 Q-0.6 -7.45 -0.4 -7.35 L-0.4 -7.2 -0.35 -6.9" fill="#544e4e" fill-rule="evenodd" stroke="none"/>
    <path d="M-1.0 -8.25 L-0.85 -8.45 -0.7 -8.4 -0.65 -8.1 Q-0.85 -8.15 -1.0 -8.25 M-1.2 -7.15 L-1.1 -7.05 -1.15 -6.95 -1.2 -6.9 -1.25 -7.05 -1.2 -7.15" fill="#f1f1f2" fill-rule="evenodd" stroke="none"/>
    <path d="M-0.25 -7.5 L0.25 -7.5 Q0.5 -7.4 0.7 -7.25 L0.65 -7.0 0.5 -7.15 0.35 -7.25 0.3 -7.35 0.2 -7.35 -0.1 -7.3 0.0 -7.4 -0.4 -7.45 -0.25 -7.5" fill="#817f80" fill-rule="evenodd" stroke="none"/>
    <path d="M-0.6 -6.7 L-0.55 -6.55 Q-0.5 -6.25 -0.55 -6.05 -0.6 -5.3 -0.5 -4.55 -0.5 -4.25 -0.5 -3.85 L-0.5 -3.1 -0.45 -2.55 Q-0.4 -2.25 -0.4 -2.05 -0.5 -2.35 -0.55 -2.85 L-0.6 -3.65 -0.7 -4.6 -0.75 -5.55 -0.8 -6.05 -0.75 -6.55 -0.75 -6.55 -0.95 -6.6 -1.05 -6.55 -1.1 -6.5 -1.1 -6.75 -1.05 -6.75 -0.95 -6.75 -0.65 -6.7 -0.6 -6.7 M-1.1 -8.7 L-0.85 -8.85 -0.9 -8.6 -1.1 -8.7" fill="#a8a5a6" fill-rule="evenodd" stroke="none"/>
    <path d="M-0.65 -6.7 L-0.95 -6.75 -0.65 -7.2 -0.5 -7.05 -0.65 -6.7" fill="#edeef1" fill-rule="evenodd" stroke="none"/>
    <path d="M-0.4 -2.05 L-0.35 -1.45 -0.3 -1.0 -0.25 -0.5 0.2 2.2 0.3 2.55 0.5 3.7 0.5 3.75 0.55 3.85 Q0.25 3.8 0.1 3.1 L0.05 3.2 -0.2 2.8 -0.25 2.55 -0.3 2.4 -0.4 1.8 -0.45 1.65 -0.55 0.85 -0.75 -0.65 -0.85 -1.95 -0.95 -3.25 -1.0 -3.6 -1.0 -3.95 -1.1 -5.25 -1.1 -6.5 -1.05 -6.55 -0.95 -6.6 -0.75 -6.55 -0.75 -6.55 -0.8 -6.05 -0.75 -5.55 -0.7 -4.6 -0.6 -3.65 -0.55 -2.85 Q-0.5 -2.35 -0.4 -2.05" fill="#e3e7eb" fill-rule="evenodd" stroke="none"/>
    <path d="M-0.35 -6.9 L-0.4 -6.4 -0.4 -5.55 -0.35 -4.7 Q-0.25 -1.1 0.25 1.75 L0.4 2.55 Q0.65 3.7 1.0 5.1 L1.3 6.1 1.15 6.15 0.8 4.95 Q0.6 4.3 0.55 3.85 L0.5 3.75 0.5 3.7 0.3 2.55 0.2 2.2 -0.25 -0.5 -0.3 -1.0 -0.35 -1.45 -0.4 -2.05 Q-0.4 -2.25 -0.45 -2.55 L-0.5 -3.1 -0.5 -3.85 Q-0.5 -4.25 -0.5 -4.55 -0.6 -5.3 -0.55 -6.05 -0.5 -6.25 -0.55 -6.55 L-0.6 -6.7 -0.35 -6.9" fill="#666160" fill-rule="evenodd" stroke="none"/>
    <path d="M-1.15 -3.25 L-1.25 -5.0 -1.3 -6.55 -1.3 -6.8 -1.2 -6.8 -1.2 -6.8 -1.1 -6.75 -1.1 -6.5 -1.1 -5.25 -1.0 -3.95 -1.0 -3.6 -0.95 -3.25 -1.15 -3.25" fill="#171516" fill-rule="evenodd" stroke="none"/>
    <path d="M-0.9 -0.6 L-1.05 -2.3 -1.1 -2.75 -1.15 -3.25 -0.95 -3.25 -0.85 -1.95 -0.75 -0.65 -0.9 -0.6" fill="#727172" fill-rule="evenodd" stroke="none"/>
    <path d="M0.2 -7.35 L0.3 -7.35 0.35 -7.25 0.25 -7.3 0.2 -7.35" fill="#1b1718" fill-rule="evenodd" stroke="none"/>
    <path d="M1.15 6.15 L1.3 6.1 1.45 6.45 1.6 6.85 1.85 7.6 2.0 8.0 2.1 8.35 2.35 9.1 2.45 9.35 2.2 9.25 2.2 9.2 2.0 8.7 1.85 8.3 1.65 7.9 Q1.3 6.8 1.15 6.15" fill="#9d9999" fill-rule="evenodd" stroke="none"/>
    <path d="M0.35 -7.25 L0.5 -7.15 0.65 -7.0 0.7 -7.25 Q0.5 -7.4 0.25 -7.5 L-0.25 -7.5 Q-0.4 -7.55 -0.45 -7.75 L-0.45 -8.1 -0.4 -8.1 -0.45 -8.15 Q-0.4 -8.3 -0.4 -8.5 L-0.45 -8.9 -0.45 -9.6 Q-0.55 -9.95 -0.55 -10.25 L-0.7 -10.45 Q-0.85 -10.55 -0.85 -10.7 L-1.4 -10.7 -1.5 -10.5 -1.6 -10.6 Q-1.8 -10.5 -2.2 -10.45 -2.6 -10.45 -2.75 -10.35 -3.0 -10.25 -3.1 -10.0 -3.2 -9.75 -3.15 -9.5 L-3.0 -9.1 -2.8 -8.7 Q-2.65 -8.25 -2.65 -7.55 -2.7 -7.5 -2.6 -7.45 L-2.5 -7.45 -2.15 -7.45 -1.8 -7.45 -1.65 -7.3 -1.45 -7.35 -1.4 -7.3 Q-1.35 -7.25 -1.35 -7.05 L-1.3 -6.8 -1.3 -6.55 -1.25 -5.0 -1.15 -3.25 -1.1 -2.75 -1.05 -2.3 -0.9 -0.6 -0.9 -0.2 -0.8 0.2 -0.6 1.7 -0.6 1.7 -0.45 2.55 -0.35 2.95 -0.2 3.75 0.0 4.5 0.2 5.15 0.2 5.3 0.45 6.05 Q0.4 6.2 0.45 6.35 L0.6 6.7 0.8 7.5 0.95 7.9 1.1 8.25 1.2 8.3 1.25 8.35 1.15 8.4 1.4 8.7 1.75 8.9 2.1 9.2 2.2 9.25 2.45 9.35 2.5 9.35 2.45 9.1 2.15 8.4 2.1 8.35 2.0 8.0 1.85 7.6 1.6 6.85 1.45 6.45 1.3 6.1 1.0 5.1 Q0.65 3.7 0.4 2.55 L0.25 1.75 Q-0.25 -1.1 -0.35 -4.7 L-0.4 -5.55 -0.4 -6.4 -0.35 -6.9 -0.4 -7.2 -0.2 -7.25 -0.1 -7.3 0.2 -7.35 0.25 -7.3 0.35 -7.25 M-1.4 -9.0 Q-1.3 -9.35 -1.3 -9.7 -1.35 -10.05 -1.7 -10.4 L-2.1 -10.35 -2.5 -10.3 Q-2.75 -10.3 -2.95 -10.1 -3.1 -9.9 -3.1 -9.65 -3.05 -9.25 -2.75 -8.6 -2.65 -8.4 -2.6 -8.1 L-2.55 -7.6 Q-2.45 -7.5 -2.3 -7.5 L-2.0 -7.55 -1.6 -7.55 -1.2 -7.6 -1.15 -7.7 -1.35 -7.7 -1.4 -8.1 Q-1.45 -8.2 -1.4 -8.3 L-1.25 -8.45 -1.45 -8.35 -1.45 -8.7 -1.4 -9.0 Z" fill="none" stroke="#000000" stroke-linecap="round" stroke-linejoin="round" stroke-opacity="0.4509804" stroke-width="0.1"/>
  </g>
</svg>
