<?xml version="1.0" encoding="UTF-8" standalone="no"?>
<svg xmlns:xlink="http://www.w3.org/1999/xlink" height="20.65px" width="4.0px" xmlns="http://www.w3.org/2000/svg">
  <g transform="matrix(1.0, 0.0, 0.0, 1.0, 1.9, 11.0)">
    <path d="M0.4 -9.05 L0.35 -8.9 0.3 -8.7 0.2 -8.5 0.1 -8.35 0.2 -8.1 0.15 -8.05 0.05 -7.95 Q-0.15 -7.95 -0.25 -8.4 L-0.15 -8.6 -0.15 -8.6 -0.25 -8.65 -0.3 -8.7 -0.4 -8.75 -0.35 -8.55 Q-0.35 -8.45 -0.45 -8.35 -0.5 -8.2 -0.65 -8.2 -0.85 -8.2 -0.95 -8.45 L-1.0 -8.75 -0.95 -8.9 -0.95 -9.0 -1.0 -9.2 Q-1.0 -9.4 -0.8 -9.35 -0.6 -9.35 -0.5 -9.2 L-0.5 -9.2 Q-0.5 -9.3 -0.35 -9.45 -0.2 -9.55 -0.05 -9.55 L0.1 -9.7 Q0.3 -9.8 0.3 -9.55 L0.25 -9.2 0.25 -9.2 Q0.4 -9.35 0.4 -9.05 M0.8 -8.25 Q0.9 -8.15 0.9 -8.05 0.9 -7.95 0.8 -7.9 0.7 -7.85 0.6 -7.85 0.5 -7.85 0.4 -7.9 0.35 -7.95 0.35 -8.05 0.35 -8.15 0.4 -8.25 0.5 -8.3 0.6 -8.3 0.7 -8.3 0.8 -8.25 M0.1 -7.6 L-0.05 -7.55 Q-0.25 -7.55 -0.2 -7.75 -0.2 -7.95 -0.05 -7.95 0.15 -7.9 0.15 -7.7 L0.1 -7.6 M0.05 -6.2 L0.1 -6.15 0.05 -6.05 -0.05 -6.0 -0.15 -6.05 -0.15 -6.05 Q-0.25 -6.05 -0.3 -6.15 -0.35 -6.1 -0.4 -6.1 -0.6 -6.1 -0.55 -6.35 L-0.75 -6.5 -0.75 -6.75 Q-0.8 -6.7 -0.9 -6.7 -1.1 -6.7 -1.15 -7.15 -1.15 -7.8 -0.8 -7.8 -0.45 -7.75 -0.45 -7.3 L-0.5 -7.1 -0.45 -7.05 -0.45 -7.05 Q-0.2 -7.0 -0.2 -6.45 L-0.2 -6.4 -0.1 -6.45 Q0.1 -6.5 0.1 -6.3 L0.05 -6.2 M0.15 -7.25 L0.1 -7.15 Q0.05 -7.05 -0.05 -7.05 -0.25 -7.05 -0.25 -7.25 -0.25 -7.4 0.0 -7.4 0.15 -7.4 0.15 -7.25 M0.15 4.7 L0.8 4.55 0.65 5.25 0.55 5.25 0.45 5.4 Q0.55 5.45 0.6 5.55 L0.6 5.5 0.7 5.6 0.65 5.9 0.45 6.0 0.5 6.2 0.55 6.1 0.65 6.2 0.65 6.4 0.55 6.45 0.55 6.6 Q0.55 6.9 0.4 6.9 0.25 6.9 0.25 6.7 L0.05 6.75 -0.1 6.7 -0.15 6.6 -0.1 6.5 0.05 6.45 Q0.15 6.45 0.2 6.5 L0.2 6.1 Q-0.1 6.1 -0.15 5.9 -0.4 5.9 -0.55 5.65 L-0.55 5.45 -0.35 5.5 -0.15 5.7 -0.15 5.65 -0.35 5.4 -0.3 5.3 -0.15 5.2 -0.25 5.0 Q-0.25 4.9 -0.2 4.85 L-0.45 4.6 -0.55 4.4 -0.55 4.3 0.15 4.7 M0.25 3.1 L0.15 3.05 0.2 2.85 Q0.35 2.35 0.6 2.45 L0.25 3.1 M0.45 3.65 L0.55 2.9 0.8 2.9 Q0.85 3.2 0.75 3.5 L0.65 3.65 0.55 3.8 0.45 3.65 M0.4 0.85 Q0.25 1.1 0.0 1.2 L-0.1 1.15 -0.05 0.95 Q0.1 0.6 0.45 0.55 0.45 0.7 0.4 0.85 M0.15 1.75 L0.5 1.4 Q0.55 1.7 0.25 1.95 L0.1 2.05 0.0 1.95 0.15 1.75 M0.3 -2.3 L0.25 -2.2 0.1 -2.15 Q0.05 -2.15 0.0 -2.2 L-0.05 -2.3 0.0 -2.4 Q0.05 -2.45 0.1 -2.45 L0.25 -2.4 0.3 -2.3 M0.15 -1.2 L0.3 -1.0 0.05 -0.65 -0.1 -0.7 -0.05 -0.9 Q0.0 -1.1 0.15 -1.2 M0.3 -0.35 L0.45 -0.25 0.15 0.1 0.0 0.0 0.3 -0.35 M0.05 -3.65 Q0.15 -3.85 0.15 -4.15 L0.55 -4.45 Q0.6 -3.75 0.2 -3.15 L0.1 -3.15 -0.05 -2.75 -0.15 -2.7 -0.25 -2.9 Q-0.35 -2.8 -0.45 -2.75 L-0.5 -2.85 -0.5 -2.95 -0.7 -3.1 -0.7 -3.5 -0.35 -3.75 -0.05 -3.5 0.05 -3.65 M0.35 4.35 Q0.25 4.45 0.15 4.45 -0.2 4.45 -0.2 4.05 L-0.2 3.95 -0.25 3.95 Q-0.6 3.85 -0.7 3.5 L-0.6 3.45 Q-0.4 3.45 -0.2 3.7 L-0.15 3.75 Q-0.05 3.65 0.1 3.6 0.4 3.55 0.4 4.15 L0.35 4.35 M0.4 7.55 L0.4 7.7 0.3 7.75 -0.05 7.55 0.05 7.45 0.3 7.45 0.4 7.55 M1.1 7.45 L1.1 7.65 0.65 7.9 0.65 8.15 0.4 8.05 0.6 7.9 0.6 7.75 0.75 7.6 Q0.9 7.5 1.1 7.45 M1.2 8.2 L1.3 8.35 1.05 8.9 0.7 8.85 0.75 8.65 0.9 8.65 0.85 8.55 1.2 8.2 M0.45 7.2 L0.45 7.1 0.8 6.65 Q0.95 6.7 0.9 6.9 0.8 7.15 0.55 7.3 L0.45 7.2 M0.25 6.95 L0.3 7.05 0.25 7.15 0.1 7.2 Q0.05 7.2 0.0 7.15 L-0.05 7.05 0.0 6.95 Q0.05 6.9 0.1 6.9 0.2 6.9 0.25 6.95 M-0.4 -8.95 L-0.45 -9.05 -0.4 -8.9 -0.4 -8.95 M-1.15 -8.15 Q-1.05 -8.15 -1.0 -8.1 -0.95 -8.05 -0.95 -8.0 -0.95 -7.9 -1.0 -7.85 -1.05 -7.8 -1.15 -7.8 L-1.25 -7.85 -1.3 -8.0 -1.25 -8.1 -1.15 -8.15 M-0.35 -7.75 Q-0.55 -7.75 -0.55 -7.95 -0.55 -8.15 -0.35 -8.2 -0.2 -8.2 -0.2 -8.0 -0.2 -7.95 -0.2 -7.85 -0.25 -7.75 -0.35 -7.75 M-0.45 2.15 L-0.25 2.25 -0.15 2.5 -0.25 2.55 -0.35 2.5 Q-0.45 2.4 -0.5 2.25 L-0.45 2.15 M-0.35 0.35 L-0.3 0.45 -0.15 0.75 -0.25 0.9 -0.3 0.95 -0.2 1.1 -0.1 1.25 -0.05 1.4 0.0 1.75 -0.5 1.05 -0.5 0.9 -0.6 0.5 -0.65 0.15 -0.45 0.3 -0.35 0.35 M-0.6 -0.3 L-0.75 -0.45 -0.85 -0.7 -0.4 -0.5 -0.3 -0.3 -0.45 -0.25 -0.6 -0.3 M-1.0 -1.25 L-0.9 -1.35 -0.45 -1.0 -0.45 -0.9 -0.6 -0.85 -1.0 -1.25 M-1.2 -2.6 L-1.2 -2.75 -0.9 -2.75 Q-0.9 -3.2 -0.75 -3.1 L-0.7 -3.1 Q-0.6 -3.0 -0.6 -2.85 L-0.45 -2.55 -0.5 -2.45 Q-0.6 -2.3 -0.7 -2.3 L-0.55 -2.05 -0.25 -2.65 -0.15 -2.3 Q-0.1 -2.1 -0.25 -1.95 L-0.45 -1.85 -0.4 -1.75 -0.45 -1.6 -0.4 -1.6 -0.45 -1.3 -0.8 -1.45 -0.75 -1.6 -0.7 -1.6 Q-0.9 -1.8 -1.2 -2.6 M-0.9 -4.35 Q-0.5 -4.25 -0.45 -3.85 -0.95 -3.8 -1.1 -4.35 L-0.9 -4.35 M-0.55 -4.8 L-0.55 -4.65 -0.75 -4.6 -0.9 -4.6 -1.0 -4.7 -1.1 -4.85 -1.1 -5.0 -0.55 -4.8 M-0.4 -4.7 L-0.3 -4.65 -0.25 -4.55 -0.3 -4.45 Q-0.35 -4.45 -0.4 -4.45 L-0.5 -4.45 -0.5 -4.65 -0.4 -4.7 M-0.9 -6.3 Q-0.8 -6.3 -0.7 -6.2 L-0.65 -6.1 -0.65 -6.1 Q-0.45 -6.1 -0.4 -6.0 L-0.35 -5.8 Q-0.35 -5.55 -0.6 -5.55 -0.8 -5.55 -0.9 -5.85 L-0.9 -5.85 Q-1.0 -5.85 -1.05 -5.9 -1.1 -5.95 -1.1 -6.05 -1.1 -6.15 -1.05 -6.2 -1.0 -6.3 -0.9 -6.3 M-0.35 2.7 L-0.35 2.7 Q-0.2 2.75 -0.15 2.85 -0.1 2.8 -0.05 2.8 0.1 2.75 0.1 2.95 0.1 3.15 -0.05 3.15 L-0.1 3.1 -0.1 3.2 -0.2 3.35 Q-0.25 3.45 -0.4 3.45 -0.6 3.45 -0.6 3.25 L-0.5 3.1 -0.65 3.05 -0.9 2.9 -0.9 2.8 Q-0.9 2.65 -0.7 2.55 -0.45 2.45 -0.35 2.7 L-0.35 2.7" fill="#ff3c7c" fill-rule="evenodd" stroke="none"/>
    <path d="M0.5 -10.8 Q0.5 -10.65 0.45 -10.4 0.7 -10.6 0.7 -10.3 L0.65 -10.1 0.5 -9.9 0.35 -9.65 0.25 -9.5 Q0.4 -9.3 0.4 -9.25 L0.35 -9.15 Q0.25 -9.05 0.15 -9.05 -0.15 -9.05 -0.25 -9.5 L-0.15 -9.75 -0.2 -9.75 -0.35 -9.8 -0.4 -9.9 -0.5 -9.95 -0.45 -9.75 Q-0.45 -9.6 -0.55 -9.45 -0.7 -9.3 -0.9 -9.3 -1.2 -9.3 -1.35 -9.6 -1.4 -9.75 -1.45 -9.9 L-1.35 -10.05 -1.35 -10.2 -1.45 -10.4 Q-1.45 -10.65 -1.1 -10.6 -0.85 -10.55 -0.7 -10.4 L-0.7 -10.45 Q-0.7 -10.55 -0.45 -10.7 -0.2 -10.8 0.0 -10.8 L0.25 -11.0 Q0.5 -11.1 0.5 -10.8 M1.3 -9.35 Q1.4 -9.3 1.4 -9.15 1.4 -9.05 1.3 -9.0 1.15 -8.9 1.0 -8.9 0.85 -8.9 0.7 -9.0 0.6 -9.05 0.6 -9.15 0.6 -9.3 0.7 -9.35 0.85 -9.45 1.0 -9.45 L1.3 -9.35 M0.3 -8.8 Q0.3 -8.7 0.2 -8.65 L0.05 -8.6 Q-0.25 -8.6 -0.2 -8.8 -0.2 -9.05 0.05 -9.0 0.3 -9.0 0.3 -8.8 M0.3 -8.25 L0.25 -8.15 Q0.15 -8.05 -0.05 -8.05 -0.25 -8.05 -0.25 -8.25 -0.25 -8.45 0.1 -8.45 0.3 -8.45 0.3 -8.25 M0.0 -6.85 Q-0.05 -6.85 -0.1 -6.9 L-0.15 -6.9 Q-0.3 -6.9 -0.35 -7.05 -0.4 -6.95 -0.5 -6.95 -0.85 -6.95 -0.75 -7.3 -0.95 -7.35 -1.0 -7.45 L-1.05 -7.55 -1.0 -7.7 Q-1.15 -7.65 -1.25 -7.65 -1.6 -7.65 -1.7 -8.15 -1.7 -8.85 -1.15 -8.85 -0.6 -8.85 -0.6 -8.35 -0.6 -8.25 -0.65 -8.1 L-0.65 -8.05 -0.6 -8.05 Q-0.2 -7.95 -0.2 -7.35 L-0.2 -7.3 -0.05 -7.4 Q0.25 -7.45 0.25 -7.2 L0.2 -7.1 0.2 -7.0 0.15 -6.9 0.0 -6.85 M0.3 3.15 L0.35 2.95 Q0.6 2.4 1.0 2.5 L0.45 3.25 0.3 3.15 M1.3 3.0 Q1.35 3.35 1.2 3.65 L1.05 3.85 0.9 4.0 0.75 3.85 0.95 3.0 1.3 3.0 M0.05 1.95 L0.3 1.7 0.85 1.35 Q0.9 1.7 0.5 1.9 L0.25 2.05 0.05 1.95 M0.0 0.85 Q0.25 0.45 0.75 0.35 0.8 0.55 0.65 0.75 0.45 1.0 0.1 1.1 L-0.1 1.05 0.0 0.85 M0.5 -1.35 L0.15 -0.95 -0.1 -1.0 -0.05 -1.2 Q0.1 -1.4 0.3 -1.55 L0.5 -1.35 M0.05 -0.2 L0.55 -0.65 0.75 -0.5 0.3 -0.1 0.05 -0.2 M0.5 -2.8 Q0.5 -2.75 0.45 -2.65 L0.25 -2.65 0.05 -2.65 -0.05 -2.8 0.05 -2.9 0.25 -2.95 0.45 -2.9 Q0.5 -2.85 0.5 -2.8 M0.15 -4.25 Q0.35 -4.5 0.3 -4.8 L0.95 -5.15 Q0.95 -4.4 0.4 -3.75 L0.25 -3.7 0.05 -3.25 -0.2 -3.2 -0.3 -3.4 -0.6 -3.25 -0.7 -3.4 -0.7 -3.5 -1.0 -3.65 -0.95 -4.1 -0.45 -4.35 0.0 -4.1 0.15 -4.25 M0.0 3.25 L-0.1 3.25 -0.1 3.35 Q-0.1 3.4 -0.2 3.5 -0.3 3.6 -0.5 3.6 -0.85 3.6 -0.8 3.4 L-0.7 3.25 -1.15 3.1 -1.25 3.0 -1.3 2.9 Q-1.3 2.75 -0.95 2.6 -0.6 2.5 -0.45 2.75 L-0.45 2.8 -0.4 2.8 Q-0.25 2.8 -0.15 2.9 L0.0 2.85 Q0.25 2.85 0.25 3.05 0.25 3.25 0.0 3.25 M0.7 4.4 L0.6 4.6 Q0.45 4.7 0.35 4.7 -0.2 4.7 -0.2 4.25 L-0.2 4.15 -0.35 4.15 Q-0.85 4.05 -1.0 3.65 L-0.8 3.6 Q-0.5 3.6 -0.25 3.85 L-0.1 3.95 Q0.0 3.8 0.25 3.8 0.7 3.7 0.7 4.4 M0.9 5.6 Q0.85 5.7 0.75 5.75 L0.95 5.9 1.0 5.9 1.15 6.0 1.05 6.35 0.8 6.4 Q0.85 6.5 0.85 6.7 L0.9 6.55 1.05 6.65 1.05 6.9 0.9 6.95 0.95 7.1 Q0.95 7.45 0.65 7.45 0.5 7.45 0.45 7.2 L0.15 7.25 -0.05 7.2 Q-0.2 7.15 -0.2 7.1 -0.2 7.05 -0.05 7.0 L0.15 6.95 0.35 7.0 0.35 6.75 Q0.35 6.6 0.4 6.55 L0.35 6.55 Q-0.05 6.55 -0.15 6.3 -0.55 6.35 -0.7 6.05 L-0.75 6.0 -0.75 5.8 -0.45 5.85 -0.15 6.1 -0.2 6.05 -0.45 5.8 -0.35 5.65 Q-0.3 5.55 -0.2 5.55 L-0.35 5.35 Q-0.35 5.2 -0.2 5.15 L-0.8 4.7 -0.75 4.55 0.3 5.0 1.3 4.8 1.1 5.6 0.9 5.6 M1.7 9.65 L1.1 9.6 1.2 9.4 1.45 9.4 1.35 9.25 1.9 8.85 2.1 9.0 1.7 9.65 M0.7 8.3 Q0.6 8.35 0.55 8.35 L0.0 8.15 0.15 8.0 0.5 8.05 0.65 8.15 0.7 8.3 M0.25 7.75 L0.05 7.7 -0.05 7.6 0.05 7.45 Q0.15 7.4 0.25 7.4 L0.45 7.45 Q0.5 7.5 0.5 7.6 0.5 7.65 0.45 7.7 L0.25 7.75 M0.9 7.85 L0.8 7.8 0.8 7.65 1.3 7.15 Q1.55 7.2 1.45 7.45 1.25 7.75 0.9 7.85 M1.75 8.3 L1.1 8.55 1.1 8.85 0.65 8.7 0.95 8.55 0.95 8.35 Q1.05 8.3 1.2 8.2 L1.75 8.05 1.75 8.3 M-0.6 -10.3 L-0.55 -10.1 -0.5 -10.15 -0.6 -10.3 M-0.25 -8.95 Q-0.35 -8.8 -0.5 -8.8 -0.75 -8.8 -0.7 -9.05 -0.7 -9.25 -0.45 -9.3 -0.2 -9.35 -0.2 -9.1 L-0.25 -8.95 M-0.6 2.2 L-0.25 2.25 -0.15 2.55 -0.3 2.6 Q-0.35 2.55 -0.45 2.55 -0.65 2.45 -0.7 2.25 L-0.6 2.2 M-0.45 0.15 Q-0.35 0.2 -0.35 0.3 L-0.15 0.6 -0.25 0.8 -0.4 0.85 -0.2 1.0 -0.1 1.2 Q-0.05 1.25 0.0 1.35 L0.1 1.75 -0.7 0.9 -0.65 0.75 Q-0.8 0.55 -0.85 0.35 -0.9 0.15 -0.9 -0.05 L-0.45 0.15 M-1.0 -0.7 L-1.25 -0.95 -0.55 -0.8 -0.35 -0.55 -0.6 -0.5 -0.85 -0.55 -1.0 -0.7 M-1.45 -1.6 L-1.3 -1.75 -0.65 -1.35 -0.65 -1.2 -0.8 -1.2 -1.45 -1.6 M-1.75 -3.1 Q-1.75 -3.2 -1.7 -3.25 L-1.3 -3.3 Q-1.3 -3.75 -1.05 -3.65 L-1.0 -3.65 Q-0.8 -3.55 -0.8 -3.35 -0.65 -3.1 -0.65 -3.05 -0.65 -3.0 -0.7 -2.9 -0.8 -2.8 -0.95 -2.75 L-0.75 -2.45 -0.3 -3.15 -0.15 -2.75 Q-0.1 -2.55 -0.25 -2.35 L-0.65 -2.25 -0.55 -2.15 Q-0.55 -2.05 -0.6 -2.0 L-0.55 -2.0 -0.55 -1.65 -1.1 -1.8 -1.05 -2.0 -0.95 -2.0 Q-1.3 -2.2 -1.75 -3.1 M-0.65 -5.4 L-0.5 -5.4 -0.35 -5.4 Q-0.3 -5.35 -0.3 -5.3 -0.3 -5.2 -0.35 -5.2 -0.45 -5.15 -0.5 -5.15 L-0.65 -5.2 Q-0.7 -5.2 -0.7 -5.3 L-0.65 -5.4 M-1.6 -5.05 L-1.3 -5.05 Q-0.7 -4.95 -0.55 -4.5 -1.35 -4.45 -1.6 -5.05 M-1.55 -5.6 L-1.6 -5.75 -0.8 -5.55 -0.8 -5.4 -1.05 -5.3 -1.25 -5.35 -1.4 -5.45 -1.55 -5.6 M-1.0 -7.1 L-0.95 -7.0 -0.85 -7.0 Q-0.55 -7.0 -0.5 -6.85 -0.45 -6.8 -0.45 -6.65 -0.45 -6.4 -0.8 -6.4 -1.1 -6.4 -1.25 -6.7 L-1.25 -6.7 Q-1.4 -6.7 -1.5 -6.75 -1.6 -6.85 -1.6 -6.95 -1.6 -7.05 -1.5 -7.1 -1.4 -7.2 -1.25 -7.2 -1.1 -7.2 -1.0 -7.1 M-1.35 -9.05 Q-1.35 -9.0 -1.45 -8.9 -1.55 -8.85 -1.65 -8.85 -1.75 -8.85 -1.85 -8.9 -1.9 -9.0 -1.9 -9.05 -1.9 -9.15 -1.85 -9.2 -1.75 -9.3 -1.65 -9.3 L-1.45 -9.2 Q-1.35 -9.15 -1.35 -9.05" fill="#ff3c7c" fill-opacity="0.0" fill-rule="evenodd" stroke="none"/>
  </g>
</svg>
