<?xml version="1.0" encoding="UTF-8" standalone="no"?>
<svg xmlns:xlink="http://www.w3.org/1999/xlink" height="23.1px" width="7.8px" xmlns="http://www.w3.org/2000/svg">
  <g transform="matrix(1.0, 0.0, 0.0, 1.0, 4.15, 15.2)">
    <path d="M0.75 -7.8 Q0.9 -7.55 0.9 -7.25 L0.85 -7.0 Q1.2 -7.15 1.2 -6.7 1.2 -6.5 1.0 -6.1 0.85 -5.7 0.85 -5.3 L0.9 -3.95 Q0.9 -3.8 0.8 -3.7 0.7 -3.55 0.55 -3.55 L0.5 -3.55 Q0.65 -3.5 0.65 -3.25 L0.6 -3.15 Q0.85 -3.1 0.85 -2.75 0.85 -2.65 0.65 -2.4 0.45 -2.1 0.25 -2.1 0.05 -2.1 -0.05 -2.25 L-0.1 -2.45 -0.1 -2.5 -0.15 -2.5 Q-0.4 -2.5 -0.5 -2.7 L-0.55 -2.9 Q-0.55 -3.25 -0.15 -3.25 L-0.15 -3.25 Q-0.15 -3.55 0.25 -3.6 L0.4 -3.6 Q0.2 -3.7 0.15 -4.2 0.1 -4.55 0.15 -4.9 0.15 -5.9 0.2 -6.25 L0.25 -6.3 -0.1 -6.25 -0.15 -6.25 -0.15 -6.2 Q-0.25 -6.05 -0.45 -6.05 -0.75 -6.05 -0.85 -6.25 L-0.9 -6.45 -0.9 -6.5 -1.1 -6.8 -1.25 -7.35 -1.2 -7.45 Q-1.2 -7.75 -1.0 -7.95 -0.7 -8.3 -0.2 -8.3 L0.25 -8.2 Q0.6 -8.1 0.75 -7.8 M1.45 -1.65 Q1.45 -1.55 1.35 -1.45 1.25 -1.3 1.05 -1.3 0.8 -1.3 0.7 -1.5 L0.65 -1.7 Q0.65 -1.85 0.7 -1.95 0.85 -2.05 1.0 -2.05 1.3 -2.05 1.4 -1.85 L1.45 -1.65 M0.1 -0.1 L0.15 0.15 0.05 0.35 Q-0.05 0.5 -0.2 0.5 -0.45 0.5 -0.55 0.3 L-0.65 0.2 -0.8 0.05 -0.85 -0.15 Q-0.85 -0.25 -0.8 -0.35 L-0.8 -0.5 Q-0.8 -0.9 -0.45 -0.85 -0.15 -0.85 -0.1 -0.55 0.1 -0.5 0.1 -0.2 0.1 -0.6 0.5 -0.55 0.9 -0.45 0.9 -0.1 L0.8 0.15 Q0.7 0.25 0.55 0.25 0.2 0.25 0.1 -0.2 L0.1 -0.1 M0.4 -0.6 Q0.1 -0.6 -0.05 -0.85 L-0.1 -1.1 Q-0.1 -1.5 0.3 -1.45 0.7 -1.35 0.7 -0.95 L0.65 -0.75 Q0.55 -0.6 0.4 -0.6 M1.9 1.0 Q1.9 1.15 1.8 1.3 1.7 1.45 1.5 1.45 1.3 1.45 1.2 1.3 L1.15 1.05 Q1.15 0.65 1.55 0.65 1.9 0.65 1.9 1.0 M0.7 1.8 Q0.6 1.95 0.4 1.95 0.2 1.95 0.1 1.75 L0.05 1.6 Q0.05 1.2 0.4 1.2 0.75 1.2 0.75 1.6 L0.7 1.8 M1.8 2.65 Q1.8 2.2 2.2 2.2 2.6 2.15 2.6 2.55 2.6 2.7 2.5 2.85 2.35 3.0 2.15 3.0 1.95 3.0 1.85 2.8 L1.8 2.65 M1.1 3.15 L0.95 3.2 Q0.65 3.2 0.5 2.95 L0.4 2.7 Q0.4 2.25 0.85 2.35 L1.15 2.5 1.3 2.45 Q1.65 2.4 1.65 2.8 1.65 2.9 1.55 3.05 1.45 3.2 1.25 3.2 L1.1 3.15 M0.65 3.45 Q0.65 3.7 0.45 3.8 0.35 4.1 -0.2 4.1 -0.55 4.1 -0.65 3.9 L-0.7 3.7 Q-0.7 3.45 -0.1 3.2 0.1 3.1 0.2 3.1 L0.25 3.1 Q0.65 3.1 0.65 3.45 M1.35 4.25 L1.3 4.0 Q1.3 3.6 1.7 3.65 2.1 3.75 2.1 4.15 L2.05 4.35 Q1.95 4.5 1.75 4.5 1.45 4.5 1.35 4.25 M1.6 4.8 Q1.6 4.95 1.2 5.4 0.75 5.85 0.5 5.85 0.3 5.85 0.2 5.65 L0.15 5.5 Q0.15 5.15 0.9 4.65 1.6 4.15 1.6 4.8 M2.4 4.55 Q2.85 4.65 2.85 4.95 2.85 5.3 2.45 5.3 2.15 5.3 2.0 5.1 L1.95 4.9 Q1.95 4.5 2.4 4.55 M2.45 6.65 Q2.15 7.05 2.0 7.05 1.7 7.05 1.5 6.45 1.5 5.95 2.1 5.8 2.75 5.65 2.75 6.15 2.75 6.3 2.45 6.65 M-2.05 -5.1 L-2.45 -5.05 Q-2.7 -5.05 -2.85 -5.25 L-2.9 -5.5 Q-2.9 -5.8 -2.35 -5.9 -2.45 -6.0 -2.45 -6.25 -2.45 -6.85 -2.0 -7.0 -1.55 -7.15 -1.55 -6.65 -1.55 -6.55 -1.7 -6.2 L-1.85 -5.95 Q-1.45 -5.95 -1.45 -5.55 -1.45 -5.45 -1.5 -5.35 L-1.3 -5.2 -1.25 -5.0 Q-1.25 -4.9 -1.35 -4.8 -1.45 -4.65 -1.6 -4.65 -1.9 -4.65 -2.0 -4.85 L-2.05 -5.05 -2.05 -5.1 M-0.8 -5.3 Q-0.8 -5.65 -0.45 -5.6 -0.1 -5.6 -0.1 -5.3 -0.1 -5.15 -0.15 -5.05 -0.25 -4.9 -0.45 -4.9 -0.65 -4.9 -0.75 -5.1 L-0.8 -5.3 M-0.75 -4.0 Q-0.85 -3.85 -1.05 -3.85 -1.25 -3.85 -1.3 -4.0 L-1.45 -3.85 -1.45 -3.8 Q-1.05 -3.7 -1.05 -3.45 -1.05 -3.2 -1.5 -3.05 -1.85 -2.95 -2.3 -2.95 -2.7 -2.95 -2.8 -3.1 L-2.85 -3.35 Q-2.85 -3.85 -2.1 -3.9 L-2.15 -4.1 Q-2.15 -4.45 -1.7 -4.5 -1.5 -4.5 -1.35 -4.4 -1.3 -4.6 -1.05 -4.65 -0.65 -4.65 -0.65 -4.25 -0.65 -4.15 -0.75 -4.0 M-2.55 -2.1 L-2.6 -2.25 Q-2.6 -2.6 -2.05 -2.65 -1.55 -2.7 -1.5 -2.4 L-1.35 -2.4 Q-0.95 -2.45 -0.95 -2.05 L-1.0 -1.95 -0.75 -2.05 Q-0.4 -2.05 -0.4 -1.65 -0.4 -1.55 -0.45 -1.45 -0.55 -1.3 -0.75 -1.3 -0.95 -1.3 -1.05 -1.45 L-1.1 -1.65 -1.1 -1.8 Q-1.25 -1.65 -1.35 -1.65 -1.6 -1.65 -1.7 -1.85 L-1.7 -1.95 -2.15 -1.9 Q-2.45 -1.9 -2.55 -2.1 M-2.65 -0.35 L-2.7 -0.6 Q-1.05 -2.05 -1.05 -0.9 -1.05 -0.7 -1.2 -0.45 -1.4 -0.1 -1.65 -0.1 L-1.95 -0.15 -2.3 -0.15 Q-2.55 -0.15 -2.65 -0.35 M-2.0 0.75 L-2.05 0.6 Q-2.05 0.2 -1.6 0.2 -1.15 0.2 -1.15 0.6 -1.15 0.95 -1.6 0.95 -1.9 0.95 -2.0 0.75 M-1.3 1.45 Q-1.25 1.2 -0.95 1.2 -0.5 1.25 -0.5 1.6 L-0.5 1.6 Q-0.25 1.8 -0.25 2.15 -0.25 2.35 -0.45 2.45 -0.6 2.55 -0.85 2.55 -1.8 2.55 -1.8 1.85 -1.8 1.5 -1.3 1.45" fill="#be0f15" fill-rule="evenodd" stroke="none"/>
    <path d="M0.45 -14.5 Q0.55 -14.3 0.55 -14.15 0.55 -13.9 0.4 -13.75 0.2 -13.45 -0.1 -13.45 -0.6 -13.45 -0.8 -13.8 L-0.9 -14.2 -0.85 -14.25 Q-0.85 -14.45 -0.7 -14.6 -0.55 -14.8 -0.2 -14.8 L0.1 -14.75 Q0.3 -14.7 0.45 -14.5" fill="#e21018" fill-rule="evenodd" stroke="none"/>
    <path d="M0.45 -14.5 Q0.45 -14.3 0.3 -14.05 0.05 -13.8 -0.4 -13.8 -1.1 -13.8 -1.35 -14.15 L-1.45 -14.55 -1.4 -14.65 Q-1.4 -14.85 -1.2 -15.0 -0.95 -15.2 -0.5 -15.2 L-0.1 -15.15 Q0.2 -15.1 0.35 -14.9 0.45 -14.7 0.45 -14.5 M0.05 -6.2 L-0.35 -6.15 -0.45 -6.15 -0.45 -6.1 Q-0.6 -5.95 -0.85 -5.95 -1.25 -5.95 -1.4 -6.15 L-1.45 -6.4 -1.45 -6.4 -1.75 -6.75 -1.95 -7.35 -1.9 -7.45 Q-1.85 -7.75 -1.6 -8.0 -1.2 -8.3 -0.5 -8.3 L0.1 -8.25 Q0.55 -8.15 0.8 -7.85 0.95 -7.55 0.95 -7.25 L0.9 -6.95 Q1.35 -7.1 1.35 -6.65 1.35 -6.45 1.15 -6.0 0.9 -5.6 0.9 -5.2 L0.95 -3.75 Q0.95 -3.6 0.85 -3.45 0.7 -3.35 0.45 -3.35 L0.4 -3.35 Q0.6 -3.25 0.6 -3.0 L0.6 -2.85 Q0.9 -2.85 0.9 -2.5 0.9 -2.35 0.65 -2.1 0.35 -1.8 0.1 -1.8 -0.2 -1.8 -0.3 -1.95 L-0.35 -2.15 -0.35 -2.2 -0.45 -2.2 Q-0.8 -2.2 -0.95 -2.4 L-1.0 -2.6 Q-1.0 -3.0 -0.45 -3.0 L-0.45 -3.0 Q-0.45 -3.3 0.1 -3.35 L0.3 -3.35 Q0.0 -3.5 -0.05 -4.05 -0.1 -4.4 -0.05 -4.75 -0.05 -5.8 0.05 -6.15 L0.05 -6.2 M1.65 -1.55 L1.7 -1.3 Q1.7 -1.2 1.6 -1.1 1.45 -0.9 1.2 -0.9 0.8 -0.9 0.65 -1.15 L0.6 -1.35 Q0.6 -1.5 0.7 -1.6 0.85 -1.75 1.15 -1.75 1.45 -1.75 1.65 -1.55 M0.65 -0.35 Q0.5 -0.2 0.25 -0.2 -0.1 -0.2 -0.3 -0.5 L-0.35 -0.7 Q-0.35 -1.15 0.2 -1.1 0.7 -1.0 0.7 -0.6 0.7 -0.45 0.65 -0.35 M2.2 1.8 Q2.05 2.0 1.8 2.0 1.5 2.0 1.35 1.8 1.3 1.7 1.3 1.55 1.3 1.1 1.8 1.1 2.35 1.1 2.35 1.5 2.35 1.65 2.2 1.8 M0.7 2.35 Q0.55 2.5 0.3 2.5 0.0 2.5 -0.1 2.3 L-0.2 2.1 Q-0.2 1.7 0.3 1.7 0.75 1.7 0.75 2.1 L0.7 2.35 M0.85 0.6 Q0.7 0.7 0.5 0.7 0.05 0.7 -0.1 0.25 L-0.15 0.3 Q-0.05 0.45 -0.05 0.6 -0.05 0.7 -0.15 0.85 -0.3 0.95 -0.5 0.95 -0.85 0.95 -1.0 0.75 L-1.1 0.65 Q-1.25 0.6 -1.35 0.45 L-1.4 0.3 Q-1.4 0.15 -1.3 0.05 L-1.35 -0.1 Q-1.35 -0.5 -0.85 -0.5 -0.45 -0.45 -0.35 -0.15 -0.1 -0.1 -0.1 0.2 -0.1 -0.2 0.45 -0.1 0.95 -0.05 0.95 0.35 0.95 0.45 0.85 0.6 M1.5 3.0 Q2.0 2.95 2.0 3.4 2.0 3.5 1.85 3.65 1.7 3.8 1.45 3.8 L1.25 3.8 1.05 3.8 Q0.65 3.8 0.45 3.55 L0.3 3.25 Q0.3 2.8 0.9 2.9 L1.35 3.05 1.5 3.0 M0.1 3.7 Q0.6 3.7 0.6 4.1 0.6 4.35 0.35 4.45 0.2 4.8 -0.55 4.8 -1.0 4.8 -1.15 4.55 L-1.2 4.35 Q-1.2 4.05 -0.4 3.8 L0.05 3.7 0.1 3.7 M1.5 4.65 Q1.5 4.2 2.05 4.3 2.6 4.4 2.6 4.8 2.6 4.9 2.5 5.05 2.4 5.2 2.1 5.2 1.7 5.2 1.6 4.9 L1.5 4.65 M3.25 3.15 Q3.25 3.3 3.1 3.45 2.95 3.6 2.7 3.6 2.4 3.6 2.25 3.4 L2.2 3.2 Q2.2 2.8 2.7 2.75 3.25 2.7 3.25 3.15 M2.45 5.8 L2.4 5.6 Q2.4 5.2 3.0 5.25 3.65 5.3 3.65 5.7 3.65 6.05 3.05 6.05 2.6 6.05 2.45 5.8 M3.45 6.95 Q3.45 7.05 3.1 7.45 2.65 7.9 2.45 7.9 2.05 7.9 1.75 7.25 1.75 6.75 2.6 6.55 3.45 6.4 3.45 6.95 M0.0 6.45 L-0.05 6.25 Q-0.05 5.9 0.95 5.35 1.95 4.8 1.95 5.5 1.95 5.7 1.35 6.15 0.75 6.6 0.45 6.6 0.15 6.6 0.0 6.45 M-2.2 -5.45 Q-2.2 -5.35 -2.25 -5.25 -2.1 -5.2 -2.0 -5.1 -1.95 -4.95 -1.95 -4.85 -1.95 -4.75 -2.05 -4.6 -2.15 -4.45 -2.45 -4.45 -2.85 -4.45 -2.95 -4.65 L-3.0 -4.9 -3.0 -4.95 -3.5 -4.9 Q-3.9 -4.9 -4.05 -5.15 L-4.15 -5.35 Q-4.15 -5.7 -3.4 -5.8 -3.55 -5.9 -3.55 -6.15 -3.55 -6.8 -2.95 -6.95 -2.3 -7.1 -2.3 -6.6 -2.3 -6.45 -2.55 -6.1 L-2.75 -5.85 Q-2.2 -5.85 -2.2 -5.45 M-0.35 -5.15 Q-0.35 -5.0 -0.45 -4.9 -0.6 -4.75 -0.85 -4.75 -1.15 -4.75 -1.25 -4.95 L-1.35 -5.15 Q-1.35 -5.55 -0.85 -5.5 -0.35 -5.45 -0.35 -5.15 M-1.15 -4.05 Q-1.15 -3.95 -1.25 -3.8 -1.4 -3.65 -1.65 -3.65 -1.9 -3.65 -2.0 -3.8 L-2.2 -3.6 -2.2 -3.6 Q-1.65 -3.5 -1.65 -3.2 -1.65 -2.95 -2.25 -2.8 L-3.35 -2.7 Q-3.9 -2.7 -4.0 -2.85 -4.05 -2.9 -4.05 -3.1 -4.05 -3.65 -3.1 -3.65 L-3.15 -3.9 Q-3.15 -4.25 -2.55 -4.3 -2.25 -4.3 -2.1 -4.2 -2.0 -4.45 -1.65 -4.45 -1.15 -4.5 -1.15 -4.05 M-2.5 -1.5 L-2.55 -1.65 -3.15 -1.6 Q-3.55 -1.6 -3.65 -1.75 L-3.75 -1.95 Q-3.75 -2.35 -3.0 -2.4 -2.35 -2.45 -2.25 -2.1 L-2.05 -2.1 Q-1.55 -2.15 -1.55 -1.75 L-1.55 -1.65 -1.25 -1.7 Q-0.75 -1.75 -0.75 -1.3 -0.75 -1.2 -0.85 -1.1 -1.0 -0.9 -1.25 -0.9 -1.55 -0.9 -1.7 -1.1 L-1.75 -1.3 -1.75 -1.45 Q-1.9 -1.3 -2.1 -1.3 -2.4 -1.3 -2.5 -1.5 M-1.9 0.0 Q-2.15 0.3 -2.5 0.3 L-2.9 0.3 -3.35 0.25 Q-3.65 0.25 -3.8 0.05 L-3.9 -0.2 Q-1.65 -1.75 -1.65 -0.5 -1.65 -0.3 -1.9 0.0 M-1.5 1.7 Q-0.95 1.75 -0.95 2.1 L-0.95 2.15 Q-0.6 2.3 -0.6 2.7 -0.6 2.9 -0.85 3.0 -1.05 3.15 -1.4 3.15 -2.7 3.15 -2.7 2.4 -2.7 2.0 -2.0 2.0 -1.95 1.7 -1.5 1.7 M-2.95 1.25 L-3.0 1.05 Q-3.0 0.65 -2.4 0.65 -1.8 0.65 -1.8 1.05 -1.8 1.45 -2.4 1.45 -2.85 1.45 -2.95 1.25" fill="#e21018" fill-opacity="0.0" fill-rule="evenodd" stroke="none"/>
  </g>
</svg>
