<?xml version="1.0" encoding="UTF-8" standalone="no"?>
<svg xmlns:xlink="http://www.w3.org/1999/xlink" height="23.65px" width="5.9px" xmlns="http://www.w3.org/2000/svg">
  <g transform="matrix(1.0, 0.0, 0.0, 1.0, 3.95, 12.35)">
    <path d="M-0.6 -7.0 L-0.75 -6.85 -0.8 -6.85 -0.85 -6.9 -0.95 -6.9 Q-0.95 -6.75 -1.15 -6.6 L-1.25 -6.55 -1.6 -6.35 -1.65 -6.4 -1.7 -6.4 -1.7 -6.45 -1.7 -6.45 -1.7 -6.55 -1.6 -6.65 -1.75 -7.4 -1.8 -7.9 -1.75 -8.45 -1.7 -9.0 -1.75 -9.15 -1.75 -9.35 -1.7 -9.55 Q-1.65 -9.7 -1.65 -9.8 -1.5 -9.55 -1.3 -9.55 -1.2 -9.55 -1.05 -9.65 L-0.95 -9.7 -0.9 -9.6 -0.9 -9.55 -0.9 -9.5 Q-0.9 -9.45 -0.9 -9.45 L-0.95 -9.35 -0.85 -9.15 Q-0.75 -9.0 -0.75 -8.9 L-0.75 -8.0 -0.65 -7.6 -0.6 -7.25 -0.65 -7.1 -0.65 -7.1 -0.6 -7.05 -0.6 -7.0 M-0.15 -6.1 L-0.2 -6.1 Q-0.45 -6.1 -0.95 -5.8 L-1.0 -5.8 -1.4 -5.55 -1.5 -5.5 Q-1.55 -5.5 -1.55 -5.55 L-1.6 -5.55 -0.95 -6.0 -0.55 -6.35 -0.55 -6.35 -0.2 -6.75 0.15 -6.45 0.45 -6.1 0.45 -6.1 0.5 -6.1 0.5 -6.05 0.45 -6.05 0.4 -6.05 -0.15 -6.1 M0.4 -6.05 L0.5 -6.1 0.4 -6.05 M-2.5 -10.1 L-2.5 -10.3 -2.4 -10.3 -2.25 -10.25 -2.25 -10.1 -2.3 -10.05 -2.35 -10.05 -2.45 -10.1 -2.5 -10.1 M-1.75 -10.4 L-1.7 -10.45 -1.6 -10.5 -1.55 -10.5 -1.1 -10.45 -0.95 -10.35 -0.8 -10.2 -0.85 -10.05 Q-0.95 -9.7 -1.1 -9.7 -1.2 -9.7 -1.3 -9.8 -1.4 -9.85 -1.4 -10.0 L-1.3 -10.1 -1.15 -10.2 -1.15 -10.3 -1.3 -10.3 -1.35 -10.35 -1.45 -10.3 -1.55 -10.2 Q-1.55 -10.3 -1.7 -10.35 L-1.75 -10.4 M-1.6 -10.55 L-1.65 -10.85 -1.45 -10.85 -1.3 -10.8 -1.05 -10.85 -0.85 -10.75 -0.9 -10.75 -0.95 -10.75 -1.0 -10.7 Q-1.0 -10.65 -1.05 -10.65 L-1.15 -10.65 -1.2 -10.65 -1.45 -10.6 -1.6 -10.55 M-1.45 -10.95 L-1.3 -11.35 -1.3 -11.35 -1.2 -11.4 -1.15 -11.35 -1.1 -11.35 -1.1 -11.35 -1.05 -11.4 -1.0 -11.35 -0.95 -11.35 -0.9 -11.4 -0.65 -11.05 -0.65 -10.8 -0.6 -10.8 -0.65 -10.75 -0.65 -10.75 -0.7 -10.8 -0.95 -11.0 -1.05 -10.95 -1.15 -10.9 -1.3 -10.9 -1.45 -10.95 M-0.55 -10.15 L-0.1 -9.8 -0.45 -9.7 -0.7 -9.8 -0.55 -10.15 M-2.8 -9.65 L-2.5 -9.35 -2.4 -9.3 -2.4 -9.25 Q-2.4 -9.2 -2.4 -9.15 L-2.5 -9.25 -2.65 -9.4 -2.75 -9.4 Q-2.75 -9.2 -2.8 -9.15 L-3.05 -9.3 -3.2 -9.35 Q-3.05 -9.35 -2.95 -9.4 -2.85 -9.5 -2.8 -9.65 M-2.1 -9.75 L-2.1 -10.15 -2.05 -10.2 -1.85 -10.1 Q-1.75 -10.05 -1.75 -10.05 L-1.6 -10.05 -1.65 -9.9 -1.65 -9.85 -1.7 -9.8 -1.75 -9.9 -1.95 -9.8 -2.1 -9.75 M-1.0 -12.15 Q-0.7 -12.0 -0.7 -11.8 L-0.85 -11.7 -1.1 -11.55 -1.15 -11.55 -1.15 -11.9 -1.2 -12.2 -1.0 -12.15 M-0.4 -11.9 L-0.35 -11.8 -0.45 -11.7 -0.55 -11.55 -0.65 -11.7 -0.6 -11.8 -0.45 -11.9 -0.4 -11.9 M-0.95 -9.0 L-0.9 -9.05 -1.05 -9.25 -1.25 -9.4 Q-1.35 -9.4 -1.35 -9.3 L-1.3 -9.25 -1.3 -9.15 -1.35 -9.05 -1.35 -9.0 -1.3 -8.95 Q-1.3 -8.9 -1.35 -8.9 L-1.4 -8.85 -1.35 -8.75 -1.3 -8.65 -1.2 -8.6 Q-1.15 -8.55 -1.15 -8.5 L-1.0 -8.45 -1.0 -8.5 -0.95 -8.45 -0.95 -8.45 Q-0.9 -8.45 -0.9 -8.5 L-0.9 -8.6 -0.95 -8.65 -0.9 -8.7 -0.85 -8.7 -0.85 -8.85 -0.9 -8.9 -0.9 -8.9 -0.95 -8.9 Q-1.0 -8.9 -1.0 -8.9 L-1.05 -8.95 -1.05 -9.0 -1.0 -8.95 -1.0 -8.95 -0.95 -9.0 M-1.05 -8.45 L-1.15 -8.45 -1.15 -8.45 Q-1.2 -8.4 -1.25 -8.4 L-1.45 -8.35 -1.45 -8.3 -1.4 -8.3 -1.4 -8.3 -1.25 -8.05 Q-1.1 -8.05 -1.1 -7.95 -1.1 -7.9 -1.2 -7.9 L-1.3 -7.85 -1.25 -7.75 -1.25 -7.75 -1.25 -7.7 -1.15 -7.7 -0.8 -7.75 -0.95 -7.85 -0.95 -7.9 -0.85 -7.9 -0.8 -7.95 -0.85 -8.0 -0.9 -8.05 -0.9 -8.05 -0.85 -8.1 -0.9 -8.15 -0.95 -8.2 -1.05 -8.15 -1.1 -8.15 -1.2 -8.15 -1.15 -8.2 Q-1.15 -8.2 -1.05 -8.25 L-0.9 -8.3 -0.9 -8.35 -1.0 -8.35 -1.0 -8.45 -1.05 -8.45 M-1.15 -7.6 L-1.05 -7.65 -1.0 -7.6 -0.9 -7.6 -0.75 -7.6 -0.7 -7.65 -0.75 -7.7 -0.8 -7.75 -0.8 -7.7 -0.85 -7.75 -0.9 -7.7 -1.1 -7.65 -1.15 -7.65 -1.15 -7.6 -1.15 -7.55 -1.25 -7.55 -1.2 -7.45 -1.15 -7.45 -1.1 -7.45 -1.1 -7.45 -1.05 -7.45 -0.95 -7.45 -0.8 -7.45 -0.8 -7.5 -0.7 -7.5 -0.7 -7.6 -0.9 -7.55 -1.0 -7.55 -1.05 -7.6 -1.15 -7.6 M-0.9 -7.45 L-1.0 -7.45 -1.0 -7.4 -1.15 -7.3 Q-1.3 -7.25 -1.35 -7.2 L-1.3 -7.15 -1.3 -7.15 -1.15 -7.2 -0.9 -7.25 -0.8 -7.3 -0.7 -7.3 -0.7 -7.4 Q-0.75 -7.4 -0.8 -7.45 L-0.9 -7.45 M-3.2 -8.85 L-3.15 -8.85 -3.05 -8.85 Q-3.0 -8.85 -3.0 -8.9 L-2.95 -8.95 -2.7 -8.8 -2.75 -8.6 -3.3 -8.65 -3.2 -8.85 M-2.45 -8.9 L-2.55 -9.0 Q-2.65 -9.0 -2.65 -9.15 L-2.65 -9.25 -2.55 -9.1 -2.5 -9.05 -2.45 -8.9 M-3.35 -8.35 L-3.3 -8.35 -2.85 -8.2 -2.85 -8.05 -2.8 -8.05 -2.8 -8.0 Q-2.85 -7.95 -2.9 -7.95 L-2.95 -7.95 -2.95 -7.85 -3.1 -7.9 Q-3.2 -7.75 -3.3 -7.75 L-3.35 -7.8 -3.4 -7.8 Q-3.35 -7.85 -3.35 -7.85 L-3.35 -7.9 -3.35 -8.1 -3.3 -8.2 -3.35 -8.25 -3.4 -8.3 -3.35 -8.35 M-3.1 -7.3 L-3.05 -7.35 -2.95 -7.45 -2.95 -7.6 -2.9 -7.65 -2.85 -7.65 -2.7 -7.75 Q-2.6 -7.75 -2.65 -7.65 L-2.65 -7.55 -3.05 -7.1 -3.1 -7.3 M-2.7 -6.95 L-2.45 -7.15 -2.4 -7.15 -2.4 -7.0 -2.45 -7.0 -2.55 -6.95 -2.55 -6.95 -2.6 -6.85 -2.6 -6.7 Q-2.6 -6.6 -2.65 -6.55 L-2.75 -6.55 -2.7 -6.6 -2.65 -6.7 -2.65 -6.75 -2.85 -6.65 -2.95 -6.55 -2.95 -6.6 -3.0 -6.7 -2.7 -6.95 M-2.3 -6.8 L-2.3 -6.7 -2.2 -6.65 Q-2.35 -6.45 -2.55 -6.0 L-2.7 -6.0 Q-2.65 -6.1 -2.7 -6.15 L-2.75 -6.2 -2.7 -6.3 -2.7 -6.35 -2.6 -6.45 Q-2.55 -6.4 -2.45 -6.55 L-2.4 -6.65 -2.4 -6.65 -2.35 -6.7 -2.3 -6.8 M-0.65 -7.3 L-0.9 -7.25 -0.8 -7.2 -1.05 -7.1 -1.3 -6.95 -1.15 -6.95 -1.15 -6.95 -1.0 -6.95 -0.95 -7.05 -0.8 -6.95 -0.8 -7.1 -0.8 -7.2 -0.75 -7.15 -0.7 -7.2 -0.65 -7.3 -0.65 -7.3 M-1.3 -6.9 L-1.3 -6.85 -1.25 -6.75 -1.15 -6.65 -1.05 -6.85 -1.0 -6.9 -1.1 -6.9 -1.25 -6.9 -1.3 -6.9 M-0.95 -6.7 L-1.0 -6.55 -1.05 -6.5 -1.0 -6.4 Q-1.0 -6.35 -1.45 -6.05 -1.9 -5.8 -2.1 -5.75 -1.8 -6.15 -1.75 -6.35 L-1.75 -6.4 -1.7 -6.4 -1.65 -6.35 -1.65 -6.3 -1.6 -6.25 Q-1.6 -6.25 -1.55 -6.3 L-1.25 -6.45 -1.15 -6.55 -0.95 -6.7 -0.95 -6.7" fill="#292a22" fill-rule="evenodd" stroke="none"/>
    <path d="M-0.75 -6.85 L-0.9 -6.65 Q-1.05 -6.2 -1.35 -5.9 -1.75 -5.55 -2.1 -5.6 L-2.15 -5.7 -2.45 -5.4 -2.2 -5.75 -2.2 -5.8 Q-1.85 -6.3 -1.85 -6.4 -1.85 -6.45 -1.95 -6.55 -2.05 -6.65 -2.15 -6.6 L-2.45 -5.85 -2.85 -5.05 -2.85 -5.0 Q-2.8 -5.15 -2.55 -6.0 L-2.55 -6.0 Q-2.35 -6.45 -2.2 -6.65 -2.1 -6.75 -2.05 -6.75 L-1.85 -6.6 -1.75 -6.4 -1.75 -6.4 -1.7 -6.45 -1.7 -6.4 -1.65 -6.4 -1.6 -6.35 -1.25 -6.55 -1.15 -6.6 Q-0.95 -6.75 -0.95 -6.9 L-0.85 -6.9 -0.8 -6.85 -0.75 -6.85 M-2.55 -9.95 L-2.45 -10.0 -2.5 -10.1 -2.45 -10.1 -2.35 -10.05 -2.3 -10.05 -2.25 -10.1 -2.25 -10.25 -2.25 -10.5 -1.85 -10.3 -1.75 -10.4 -1.7 -10.35 Q-1.55 -10.3 -1.55 -10.2 L-1.45 -10.3 -1.35 -10.35 -1.3 -10.3 -1.15 -10.3 -1.15 -10.2 -1.3 -10.1 -1.4 -10.0 Q-1.4 -9.85 -1.3 -9.8 -1.2 -9.7 -1.1 -9.7 -0.95 -9.7 -0.85 -10.05 L-0.8 -10.2 -0.95 -10.35 -1.1 -10.45 -1.55 -10.5 -1.6 -10.5 -1.6 -10.55 -1.45 -10.6 -1.2 -10.65 -1.15 -10.65 -1.05 -10.65 Q-1.0 -10.65 -1.0 -10.7 L-0.95 -10.75 -0.9 -10.75 -0.85 -10.75 -1.05 -10.85 -1.3 -10.8 -1.45 -10.85 -1.65 -10.85 -1.65 -10.95 -1.45 -10.9 -1.45 -10.95 -1.3 -10.9 -1.15 -10.9 -1.05 -10.95 -0.95 -11.0 -0.7 -10.8 -0.65 -10.75 -0.65 -10.75 -0.6 -10.8 -0.55 -10.65 Q-0.55 -10.55 -0.65 -10.4 L-0.7 -10.25 -0.65 -10.25 -0.55 -10.15 -0.7 -9.8 -0.45 -9.7 -0.55 -9.7 Q-0.75 -9.65 -0.9 -9.55 L-0.9 -9.6 -0.95 -9.7 -1.05 -9.65 Q-1.2 -9.55 -1.3 -9.55 -1.5 -9.55 -1.65 -9.8 L-1.65 -9.85 -1.65 -9.9 -1.6 -10.05 -1.75 -10.05 Q-1.75 -10.05 -1.85 -10.1 L-2.05 -10.2 -2.1 -10.15 -2.1 -9.75 -2.15 -9.7 -2.25 -9.85 -2.55 -9.95 M-1.3 -11.35 Q-1.25 -11.55 -1.25 -11.65 L-1.3 -12.2 -1.3 -12.35 Q-1.05 -12.3 -0.8 -12.1 L-0.6 -11.95 -0.35 -12.0 -0.15 -12.05 -0.15 -12.0 -0.1 -12.0 -0.05 -12.0 -0.05 -11.95 Q-0.25 -11.9 -0.45 -11.55 L-0.65 -11.05 -0.9 -11.4 -0.95 -11.35 -1.0 -11.35 -1.05 -11.4 -1.1 -11.35 -1.1 -11.35 -1.15 -11.35 -1.2 -11.4 -1.3 -11.35 M-0.4 -11.9 L-0.45 -11.9 -0.6 -11.8 -0.65 -11.7 -0.55 -11.55 -0.45 -11.7 -0.35 -11.8 -0.4 -11.9 M-1.0 -12.15 L-1.2 -12.2 -1.15 -11.9 -1.15 -11.55 -1.1 -11.55 -0.85 -11.7 -0.7 -11.8 Q-0.7 -12.0 -1.0 -12.15 M-0.95 -9.0 L-1.0 -8.95 -1.0 -8.95 -1.05 -9.0 -1.05 -8.95 -1.0 -8.9 Q-1.0 -8.9 -0.95 -8.9 L-0.9 -8.9 -0.9 -8.9 -0.85 -8.85 -0.85 -8.7 -0.9 -8.7 -0.95 -8.65 -0.9 -8.6 -0.9 -8.5 Q-0.9 -8.45 -0.95 -8.45 L-0.95 -8.45 -1.0 -8.5 -1.0 -8.45 -1.15 -8.5 Q-1.15 -8.55 -1.2 -8.6 L-1.3 -8.65 -1.35 -8.75 -1.4 -8.85 -1.35 -8.9 Q-1.3 -8.9 -1.3 -8.95 L-1.35 -9.0 -1.35 -9.05 -1.3 -9.15 -1.3 -9.25 -1.35 -9.3 Q-1.35 -9.4 -1.25 -9.4 L-1.05 -9.25 -0.9 -9.05 -0.95 -9.0 M-1.05 -8.45 L-1.0 -8.45 -1.0 -8.35 -0.9 -8.35 -0.9 -8.3 -1.05 -8.25 Q-1.15 -8.2 -1.15 -8.2 L-1.2 -8.15 -1.1 -8.15 -1.05 -8.15 -0.95 -8.2 -0.9 -8.15 -0.85 -8.1 -0.9 -8.05 -0.9 -8.05 -0.85 -8.0 -0.8 -7.95 -0.85 -7.9 -0.95 -7.9 -0.95 -7.85 -0.8 -7.75 -1.15 -7.7 -1.25 -7.7 -1.25 -7.75 -1.25 -7.75 -1.3 -7.85 -1.2 -7.9 Q-1.1 -7.9 -1.1 -7.95 -1.1 -8.05 -1.25 -8.05 L-1.4 -8.3 -1.4 -8.3 -1.45 -8.3 -1.45 -8.35 -1.25 -8.4 Q-1.2 -8.4 -1.15 -8.45 L-1.15 -8.45 -1.05 -8.45 M-1.15 -7.6 L-1.15 -7.65 -1.1 -7.65 -0.9 -7.7 -0.85 -7.75 -0.8 -7.7 -0.8 -7.75 -0.75 -7.7 -0.7 -7.65 -0.75 -7.6 -0.9 -7.6 -1.0 -7.6 -1.05 -7.65 -1.15 -7.6 -1.05 -7.6 -1.0 -7.55 -0.9 -7.55 -0.7 -7.6 -0.7 -7.5 -0.8 -7.5 -0.8 -7.45 -0.95 -7.45 -1.05 -7.45 -1.1 -7.45 -1.1 -7.45 -1.15 -7.45 -1.2 -7.45 -1.25 -7.55 -1.15 -7.55 -1.15 -7.6 M-0.9 -7.45 L-0.8 -7.45 Q-0.75 -7.4 -0.7 -7.4 L-0.7 -7.3 -0.8 -7.3 -0.9 -7.25 -1.15 -7.2 -1.3 -7.15 -1.3 -7.15 -1.35 -7.2 Q-1.3 -7.25 -1.15 -7.3 L-1.0 -7.4 -1.0 -7.45 -0.9 -7.45 M-3.2 -9.35 L-3.05 -9.3 -2.8 -9.15 Q-2.75 -9.2 -2.75 -9.4 L-2.65 -9.4 -2.5 -9.25 -2.4 -9.15 -2.4 -9.05 -2.5 -9.05 -2.55 -9.1 -2.65 -9.25 -2.65 -9.15 Q-2.65 -9.0 -2.55 -9.0 L-2.45 -8.9 -2.45 -8.85 Q-2.6 -8.9 -2.7 -8.8 L-2.7 -8.8 -2.95 -8.95 -3.0 -8.9 Q-3.0 -8.85 -3.05 -8.85 L-3.15 -8.85 -3.2 -8.85 -3.15 -8.9 -3.1 -9.1 -3.15 -9.25 -3.2 -9.35 M-3.4 -7.8 L-3.35 -7.8 -3.3 -7.75 Q-3.2 -7.75 -3.1 -7.9 L-2.95 -7.85 -2.95 -7.95 -2.9 -7.95 Q-2.85 -7.95 -2.8 -8.0 L-2.8 -8.05 -2.6 -8.0 -2.6 -8.0 Q-2.6 -7.9 -2.7 -7.8 L-2.7 -7.75 -2.85 -7.65 -2.9 -7.65 -2.95 -7.6 -2.95 -7.45 -3.05 -7.35 -3.1 -7.3 -3.25 -7.5 Q-3.4 -7.6 -3.6 -7.7 L-3.4 -7.8 -3.4 -7.8 M-2.4 -7.0 Q-2.35 -7.0 -2.35 -7.05 L-2.2 -7.05 -2.3 -6.85 -2.3 -6.8 -2.35 -6.7 -2.4 -6.65 -2.4 -6.65 -2.45 -6.55 Q-2.55 -6.4 -2.6 -6.45 L-2.7 -6.35 -2.7 -6.3 -2.75 -6.2 -2.8 -6.25 -3.1 -6.1 -3.0 -6.35 -2.9 -6.5 -2.95 -6.55 -2.85 -6.65 -2.65 -6.75 -2.65 -6.7 -2.7 -6.6 -2.75 -6.55 -2.65 -6.55 Q-2.6 -6.6 -2.6 -6.7 L-2.6 -6.85 -2.55 -6.95 -2.55 -6.95 -2.45 -7.0 -2.4 -7.0 M-0.65 -7.3 L-0.65 -7.3 -0.7 -7.2 -0.75 -7.15 -0.8 -7.2 -0.8 -7.1 -0.8 -6.95 -0.95 -7.05 -1.0 -6.95 -1.15 -6.95 -1.15 -6.95 -1.3 -6.95 -1.05 -7.1 -0.8 -7.2 -0.9 -7.25 -0.65 -7.3 M-0.95 -6.7 L-0.95 -6.7 -1.15 -6.55 -1.25 -6.45 -1.55 -6.3 Q-1.6 -6.25 -1.6 -6.25 L-1.65 -6.3 -1.65 -6.35 -1.7 -6.4 -1.75 -6.4 -1.75 -6.35 Q-1.8 -6.15 -2.1 -5.75 -1.9 -5.8 -1.45 -6.05 -1.0 -6.35 -1.0 -6.4 L-1.05 -6.5 -1.0 -6.55 -0.95 -6.7 M-1.3 -6.9 L-1.25 -6.9 -1.1 -6.9 -1.0 -6.9 -1.05 -6.85 -1.15 -6.65 -1.25 -6.75 -1.3 -6.85 -1.3 -6.9" fill="#43412c" fill-rule="evenodd" stroke="none"/>
    <path d="M-1.6 -4.85 L-1.65 -4.9 -1.6 -4.9 -1.6 -4.9 -1.45 -4.85 Q-1.4 -4.85 -1.4 -4.9 L-1.3 -5.0 -1.1 -4.8 -0.95 -5.0 -0.9 -4.95 -0.8 -4.9 -0.7 -4.75 Q-0.6 -4.6 -0.55 -4.15 L-0.55 -3.85 -0.55 -3.65 -0.5 -3.45 -0.45 -3.4 Q-0.65 -3.4 -0.6 -3.25 L-0.7 -3.25 Q-0.7 -3.35 -0.75 -3.5 L-0.75 -3.65 -0.7 -3.7 -0.75 -3.8 -0.8 -3.85 -0.75 -3.9 -0.75 -3.9 -0.7 -3.85 -0.65 -3.8 -0.65 -3.95 Q-0.75 -4.05 -0.85 -4.2 -0.9 -4.4 -1.0 -4.5 L-1.0 -4.5 -0.95 -4.5 -0.9 -4.5 Q-0.95 -4.65 -1.05 -4.75 L-1.05 -4.75 -1.15 -4.75 -1.15 -4.7 -1.25 -4.7 -1.25 -4.7 -1.45 -4.5 Q-1.4 -4.65 -1.5 -4.7 -1.6 -4.75 -1.6 -4.85 L-1.6 -4.85 M-0.95 -5.8 Q-0.95 -5.7 -1.0 -5.6 -1.0 -5.4 -1.1 -5.4 -1.2 -5.4 -1.25 -5.45 L-1.4 -5.55 -1.0 -5.8 -0.95 -5.8 M-1.55 -0.8 L-1.5 -0.85 -1.4 -0.95 -1.45 -1.05 -1.45 -1.1 -1.25 -0.95 -1.15 -0.7 -1.4 -0.75 Q-1.5 -0.75 -1.55 -0.8 M-1.55 -1.25 L-1.55 -1.3 -1.5 -1.35 -1.4 -1.45 -1.3 -1.35 -1.2 -1.25 -1.25 -1.25 -1.3 -1.3 -1.35 -1.3 -1.45 -1.3 -1.5 -1.3 -1.55 -1.25 M-1.55 -1.75 L-1.5 -1.85 -1.4 -2.0 -1.25 -1.75 -1.2 -1.7 -1.4 -1.75 -1.55 -1.75 M-1.6 -2.35 L-1.5 -2.5 -1.4 -2.6 -1.3 -2.45 -1.2 -2.3 -1.2 -2.25 -1.25 -2.25 -1.25 -2.25 -1.35 -2.3 -1.4 -2.35 -1.45 -2.35 -1.6 -2.35 M-1.65 -2.95 L-1.55 -3.1 -1.45 -3.25 -1.4 -3.2 -1.35 -3.15 -1.2 -2.9 -1.35 -2.9 -1.4 -2.9 -1.45 -2.95 -1.55 -2.95 -1.6 -2.95 -1.65 -2.95 M-1.65 -3.5 L-1.65 -3.55 -1.55 -3.7 -1.55 -3.75 -1.45 -3.6 -1.25 -3.45 -1.35 -3.45 Q-1.35 -3.45 -1.35 -3.5 L-1.45 -3.5 -1.45 -3.5 -1.55 -3.55 -1.65 -3.5 -1.65 -3.5 M-1.7 -4.05 L-1.7 -4.1 Q-1.55 -4.2 -1.55 -4.35 -1.45 -4.3 -1.35 -4.25 L-1.2 -4.0 -1.2 -4.0 -1.3 -4.05 -1.35 -4.05 -1.5 -4.05 -1.65 -4.05 -1.7 -4.05 M-2.1 -4.45 L-2.1 -4.45 -1.95 -4.55 -1.85 -4.65 -1.75 -4.6 Q-1.65 -4.55 -1.55 -4.5 -1.6 -4.4 -1.8 -4.4 L-2.1 -4.45 M-3.05 -10.05 L-3.1 -10.15 Q-3.0 -10.3 -3.0 -10.35 L-2.65 -10.05 -2.55 -9.95 -2.25 -9.85 -2.15 -9.7 -2.1 -9.55 Q-2.1 -9.5 -2.25 -9.4 -2.35 -9.3 -2.4 -9.3 L-2.4 -9.3 -2.4 -9.3 -2.5 -9.35 -2.35 -9.45 -2.25 -9.55 Q-2.25 -9.65 -2.55 -9.9 L-2.95 -10.15 -2.95 -10.15 -3.05 -10.05 M-3.75 -8.5 L-3.95 -8.55 -3.9 -8.55 -3.9 -8.7 -3.8 -8.7 -3.3 -8.65 -2.75 -8.6 -2.55 -8.6 -2.55 -8.5 -2.5 -8.4 -2.55 -8.25 -2.7 -8.2 -2.7 -8.2 -2.65 -8.25 -2.65 -8.45 -3.0 -8.55 -3.3 -8.55 -3.5 -8.6 -3.65 -8.6 -3.75 -8.55 -3.75 -8.5 M-2.65 -7.55 L-2.5 -7.7 -2.3 -7.55 Q-2.25 -7.45 -2.25 -7.3 L-2.45 -7.15 -2.7 -6.95 -2.75 -7.1 -2.55 -7.2 Q-2.45 -7.3 -2.45 -7.4 L-2.5 -7.45 -2.55 -7.45 -3.0 -7.0 -3.65 -6.35 -3.65 -6.35 Q-3.65 -6.45 -3.1 -7.1 L-3.05 -7.1 -2.65 -7.55 M-1.2 -5.3 L-1.05 -5.25 -1.0 -5.2 -0.95 -5.25 -0.95 -5.15 -0.95 -5.1 Q-1.1 -5.05 -1.1 -5.15 L-1.15 -5.15 -1.15 -5.15 -1.2 -5.3" fill="#5f624e" fill-rule="evenodd" stroke="none"/>
    <path d="M-2.1 -4.95 L-1.7 -4.85 -1.7 -4.8 -1.65 -4.85 -1.6 -4.85 -1.6 -4.85 Q-1.6 -4.75 -1.5 -4.7 -1.4 -4.65 -1.45 -4.5 L-1.25 -4.7 -1.25 -4.7 -1.15 -4.7 -1.15 -4.75 -1.05 -4.75 -1.05 -4.75 Q-0.95 -4.65 -0.9 -4.5 L-0.95 -4.5 -1.0 -4.5 -1.0 -4.5 Q-0.9 -4.4 -0.85 -4.2 -0.75 -4.05 -0.65 -3.95 L-0.65 -3.8 -0.7 -3.85 -0.75 -3.9 -0.75 -3.9 -0.8 -3.85 -0.75 -3.8 -0.7 -3.7 -0.75 -3.65 -0.75 -3.5 Q-0.7 -3.35 -0.7 -3.25 L-0.6 -3.25 Q-0.65 -3.4 -0.45 -3.4 L-0.45 -3.25 -0.5 -2.75 -0.55 -2.2 -0.55 -1.9 -0.5 -1.75 -0.5 -1.65 Q-0.5 -1.5 -0.5 -1.35 L-0.5 -1.35 -0.55 -0.95 -0.6 -0.9 -0.6 -0.7 -0.6 0.25 -0.6 0.55 -0.55 0.7 -0.55 1.05 -0.6 1.25 -0.55 1.85 -0.55 2.25 -0.55 2.5 -0.55 2.65 -0.55 2.75 -0.55 2.75 -0.6 2.75 -0.65 2.75 Q-0.65 2.7 -0.7 2.7 L-0.65 2.6 -0.7 2.6 -0.7 2.55 Q-0.8 2.5 -0.8 2.6 L-0.85 2.75 -0.8 2.85 -0.7 3.0 -0.7 2.95 Q-0.65 3.0 -0.6 3.05 L-0.6 3.1 -0.55 3.1 -0.5 3.1 -0.5 3.25 -0.4 3.25 -0.4 3.15 -0.35 3.3 -0.4 3.85 -0.35 4.5 -0.3 4.55 -0.35 4.55 -0.4 4.5 -0.6 4.75 -0.55 4.8 -0.55 4.85 Q-0.45 4.8 -0.4 4.9 L-0.35 5.0 -0.35 5.0 -0.25 5.3 -0.2 5.35 -0.15 5.55 -0.05 5.85 0.0 6.05 0.0 6.0 0.05 5.75 0.15 5.65 0.15 5.5 0.2 5.5 0.2 5.65 Q0.25 5.65 0.3 5.55 L0.3 5.6 0.3 5.75 0.35 5.75 0.35 5.65 0.3 5.4 0.25 5.2 0.3 5.2 0.35 5.2 0.35 5.25 0.35 5.3 0.4 5.3 0.65 6.75 0.9 8.15 0.95 8.2 0.85 8.25 0.8 8.2 0.75 8.05 0.75 8.1 0.75 8.25 0.8 8.3 0.75 8.4 0.7 8.55 0.7 8.6 0.9 9.0 Q1.15 9.4 1.2 9.8 L1.05 9.65 0.9 9.45 0.9 9.4 0.95 9.35 Q0.9 9.3 0.85 9.25 L0.7 9.2 0.7 8.95 0.75 8.9 0.3 8.35 0.25 8.2 0.35 8.2 0.35 8.0 0.25 7.9 0.25 7.65 0.3 7.55 0.3 7.5 0.2 7.45 0.1 7.35 0.1 7.3 0.15 7.25 0.1 7.2 0.1 6.95 0.05 6.95 0.0 6.9 0.0 7.05 -0.05 7.05 -0.1 7.05 -0.15 7.2 -0.1 7.2 0.0 7.3 -0.15 7.35 Q-0.15 7.45 -0.05 7.5 L0.05 7.45 0.1 7.5 0.1 7.55 0.05 7.65 -0.05 7.75 -0.05 7.75 -0.5 6.85 -1.2 3.0 -1.2 2.75 -1.15 2.7 -1.15 2.8 -1.1 2.85 -1.1 2.9 -1.0 2.9 -0.95 3.0 -0.95 2.85 -0.9 2.6 -0.9 2.5 -0.95 2.5 -0.95 2.5 -1.0 2.5 -0.95 2.6 -1.05 2.6 -1.05 2.4 -1.1 2.4 -1.1 2.35 -1.1 2.15 -1.15 2.1 -1.15 2.2 -1.2 2.15 -1.25 2.15 -1.3 1.0 -1.15 1.2 -1.05 1.45 -1.0 1.45 -1.0 1.4 -1.0 1.25 -1.05 1.1 -0.9 0.6 -0.9 0.55 -0.95 0.5 -0.9 0.35 Q-1.0 0.35 -1.0 0.55 -1.05 0.7 -1.1 0.65 L-1.1 0.85 -1.2 0.85 -1.25 0.7 -1.2 0.35 -1.15 0.05 Q-1.15 -0.05 -1.2 -0.05 L-1.2 -0.05 -1.3 -0.1 Q-1.35 -0.15 -1.3 -0.2 L-1.25 -0.35 -1.3 -0.4 -1.3 -0.45 -1.35 -0.45 -1.45 -0.45 -1.45 -0.6 -1.55 -0.65 -1.55 -0.8 Q-1.5 -0.75 -1.4 -0.75 L-1.15 -0.7 -1.25 -0.95 -1.45 -1.1 -1.45 -1.05 -1.5 -1.05 -1.6 -1.25 -1.6 -1.25 -1.55 -1.25 -1.55 -1.25 -1.5 -1.3 -1.45 -1.3 -1.35 -1.3 -1.35 -1.3 -1.3 -1.05 -1.1 -1.0 Q-1.0 -0.95 -1.0 -0.8 L-0.95 -1.0 -0.95 -1.1 Q-1.0 -1.15 -0.95 -1.2 L-1.15 -1.2 Q-1.2 -1.2 -1.25 -1.25 L-1.2 -1.25 -1.3 -1.35 -1.4 -1.45 -1.45 -1.5 -1.5 -1.55 -1.5 -1.6 -1.6 -1.65 -1.6 -1.7 -1.55 -1.75 -1.4 -1.75 -1.3 -1.55 -1.15 -1.35 -0.9 -1.35 -0.9 -1.45 -0.95 -1.65 -1.0 -1.7 Q-1.0 -1.65 -1.1 -1.65 L-1.15 -1.7 Q-1.2 -1.75 -1.25 -1.75 L-1.4 -2.0 -1.4 -2.0 -1.5 -2.15 -1.6 -2.3 -1.6 -2.35 -1.45 -2.35 -1.45 -2.35 -1.4 -2.25 -1.4 -2.05 -1.35 -2.1 -1.35 -2.1 -1.2 -1.95 -1.15 -1.75 -1.05 -1.75 -1.0 -1.8 -1.0 -1.95 -0.95 -2.05 -1.0 -2.2 -1.05 -2.25 -1.0 -2.25 Q-1.05 -2.35 -1.0 -2.4 L-0.95 -2.5 Q-0.95 -2.6 -1.0 -2.6 L-1.1 -2.8 -1.1 -2.85 -1.2 -2.75 -1.3 -2.85 -1.35 -2.9 -1.2 -2.9 -1.35 -3.15 -1.25 -3.05 -1.15 -2.9 -1.1 -2.9 -1.1 -3.15 -1.15 -3.25 -1.2 -3.4 -1.3 -3.35 -1.3 -3.4 -1.35 -3.5 Q-1.35 -3.45 -1.35 -3.45 L-1.25 -3.45 -1.45 -3.6 -1.55 -3.75 -1.5 -3.8 -1.45 -3.8 Q-1.3 -3.7 -1.35 -3.6 L-1.2 -3.5 Q-1.1 -3.4 -1.1 -3.25 L-1.0 -3.25 -0.9 -3.15 -0.8 -3.15 -0.85 -3.35 -0.9 -3.55 -0.9 -3.8 -1.0 -3.8 Q-1.05 -3.8 -1.05 -3.9 L-1.05 -3.95 Q-1.1 -3.85 -1.15 -3.8 L-1.2 -3.8 Q-1.3 -3.8 -1.3 -3.9 L-1.3 -4.05 -1.2 -4.0 -1.2 -4.0 -1.35 -4.25 Q-1.45 -4.3 -1.55 -4.35 L-1.55 -4.35 -1.6 -4.4 -1.45 -4.5 -1.9 -4.25 -2.0 -4.3 -2.1 -4.45 -1.8 -4.4 Q-1.6 -4.4 -1.55 -4.5 -1.65 -4.55 -1.75 -4.6 L-1.85 -4.65 -1.85 -4.65 -1.9 -4.7 -1.95 -4.65 -2.1 -4.75 -2.2 -4.85 -2.1 -4.95 M-1.4 -2.6 L-1.4 -2.65 -1.5 -2.8 -1.65 -2.9 -1.65 -2.95 -1.6 -2.95 -1.55 -2.95 -1.45 -2.95 -1.4 -2.75 -1.35 -2.55 Q-1.3 -2.65 -1.2 -2.5 L-1.1 -2.35 -1.15 -2.3 -1.2 -2.25 -1.25 -2.25 -1.2 -2.25 -1.2 -2.3 -1.3 -2.45 -1.4 -2.6 M-1.45 -3.25 L-1.4 -3.25 -1.55 -3.4 -1.65 -3.5 -1.65 -3.5 -1.55 -3.55 -1.45 -3.5 -1.4 -3.2 -1.45 -3.25 M-3.05 -10.05 L-2.95 -10.15 -2.95 -10.15 -2.55 -9.9 Q-2.25 -9.65 -2.25 -9.55 L-2.35 -9.45 -2.5 -9.35 -2.8 -9.65 -2.8 -9.7 -3.05 -10.05 M-3.75 -8.5 L-3.75 -8.55 -3.65 -8.6 -3.5 -8.6 -3.3 -8.55 -3.0 -8.55 -2.65 -8.45 -2.65 -8.25 -2.7 -8.2 -2.85 -8.2 -3.3 -8.35 -3.35 -8.35 -3.75 -8.5 M-3.65 -6.35 L-3.0 -7.0 -2.55 -7.45 -2.5 -7.45 -2.45 -7.4 Q-2.45 -7.3 -2.55 -7.2 L-2.75 -7.1 -2.7 -6.95 -3.0 -6.7 -3.5 -6.3 -3.55 -6.25 -3.55 -6.25 -3.65 -6.3 -3.65 -6.35 M-2.85 -5.05 L-2.45 -5.85 -2.15 -6.6 Q-2.05 -6.65 -1.95 -6.55 -1.85 -6.45 -1.85 -6.4 -1.85 -6.3 -2.2 -5.8 L-2.2 -5.75 -2.45 -5.4 -2.85 -5.05 M-0.6 -0.7 L-0.6 -0.7 M-0.6 4.0 L-0.65 3.95 -0.65 3.85 -0.75 3.85 -0.75 3.9 -0.8 4.0 -0.8 3.95 Q-0.8 3.9 -0.9 3.9 -0.65 4.25 -0.6 4.4 -0.55 4.4 -0.55 4.35 L-0.55 4.25 -0.5 4.15 -0.55 4.05 -0.6 4.0 M-0.1 4.5 L-0.1 4.5 -0.15 4.6 -0.15 4.5 -0.15 4.4 -0.2 4.35 Q-0.2 4.25 -0.15 4.3 L-0.1 4.4 -0.1 4.5 M-0.5 5.35 L-0.5 5.35 -0.5 5.25 -0.55 5.3 -0.6 5.35 -0.5 5.4 -0.5 5.35 M-0.6 5.9 L-0.55 6.05 -0.45 6.15 -0.45 6.2 -0.5 6.3 -0.4 6.35 Q-0.3 6.35 -0.3 6.4 L-0.25 6.4 -0.25 6.3 -0.25 6.15 -0.3 6.05 -0.3 5.95 -0.4 6.0 -0.4 5.9 -0.45 5.9 -0.45 5.9 -0.5 5.8 -0.55 5.75 -0.55 5.85 -0.6 5.9 M-0.25 6.55 L-0.15 6.6 -0.2 6.5 -0.25 6.5 -0.25 6.55 M-0.5 5.95 L-0.45 5.9 -0.45 6.0 -0.5 5.95 M0.15 4.55 L0.1 4.55 0.05 4.5 Q0.05 4.45 0.1 4.4 L0.15 4.5 0.15 4.55" fill="#7b7d61" fill-rule="evenodd" stroke="none"/>
    <path d="M-0.6 -7.0 L-0.3 -7.1 0.5 -7.3 0.5 -7.2 0.55 -7.15 -0.15 -6.8 -0.2 -6.75 -0.55 -6.35 -0.55 -6.35 -0.95 -6.0 -1.6 -5.55 -1.55 -5.55 Q-1.55 -5.5 -1.5 -5.5 L-1.4 -5.55 -1.25 -5.45 Q-1.2 -5.4 -1.1 -5.4 -1.0 -5.4 -1.0 -5.6 -0.95 -5.7 -0.95 -5.8 -0.45 -6.1 -0.2 -6.1 L-0.15 -6.1 -0.15 -5.95 -0.1 -5.8 0.0 -5.6 0.0 -5.5 0.0 -5.6 -0.1 -5.8 -0.1 -5.8 -0.05 -5.75 0.0 -5.7 0.15 -5.45 0.0 -5.4 0.0 -5.5 -0.1 -5.55 -0.3 -5.55 -0.35 -5.45 -0.45 -5.25 -0.4 -5.2 -0.4 -5.15 -0.35 -5.1 -0.4 -4.8 -0.5 -4.5 -0.45 -4.4 -0.45 -4.35 -0.55 -4.15 Q-0.6 -4.6 -0.7 -4.75 L-0.8 -4.9 -0.9 -4.95 -0.95 -5.0 -1.1 -4.8 -1.3 -5.0 -1.4 -4.9 Q-1.4 -4.85 -1.45 -4.85 L-1.6 -4.9 -1.6 -4.9 -1.65 -4.9 -1.6 -4.85 -1.65 -4.85 -1.7 -4.85 -2.1 -4.95 -2.0 -5.05 -1.8 -5.15 Q-1.6 -5.3 -1.6 -5.55 L-1.6 -5.6 -1.65 -5.6 -1.85 -5.55 -2.0 -5.5 -2.1 -5.6 Q-1.75 -5.55 -1.35 -5.9 -1.05 -6.2 -0.9 -6.65 L-0.75 -6.85 -0.6 -7.0 M-1.2 -5.3 L-1.15 -5.15 -1.15 -5.15 -1.1 -5.15 Q-1.1 -5.05 -0.95 -5.1 L-0.95 -5.15 -0.95 -5.25 -1.0 -5.2 -1.05 -5.25 -1.2 -5.3" fill="#474a39" fill-rule="evenodd" stroke="none"/>
    <path d="M-0.45 -4.4 L-0.5 -4.5 -0.4 -4.8 -0.35 -5.1 -0.4 -5.15 -0.4 -5.2 -0.45 -5.25 -0.35 -5.45 -0.3 -5.55 -0.1 -5.55 0.0 -5.5 0.0 -5.4 0.0 -4.45 0.0 -4.0 -0.05 -4.0 -0.05 -4.15 -0.15 -4.25 -0.2 -4.25 -0.25 -4.15 -0.35 -4.35 -0.45 -4.4 M-0.05 -3.25 L0.0 -2.8 0.0 -2.7 0.0 -2.65 -0.05 -2.7 Q-0.05 -2.75 -0.15 -2.75 L-0.1 -2.65 -0.1 -2.5 Q-0.15 -2.55 -0.25 -2.55 L-0.2 -2.35 Q-0.3 -2.35 -0.35 -2.25 L-0.35 -2.35 -0.45 -2.35 -0.45 -2.25 -0.4 -2.15 -0.45 -2.15 Q-0.45 -2.15 -0.5 -2.15 -0.55 -2.15 -0.55 -2.2 L-0.5 -2.75 -0.45 -3.25 Q-0.35 -3.25 -0.35 -3.35 L-0.3 -3.4 -0.25 -3.4 -0.25 -3.3 -0.2 -3.4 -0.15 -3.35 -0.1 -3.2 -0.05 -3.25 M-0.05 -0.8 L-0.1 0.45 -0.05 1.0 Q-0.15 0.95 -0.25 0.95 L-0.25 0.8 -0.3 0.75 -0.3 0.7 -0.2 0.7 -0.2 0.55 -0.4 0.5 -0.5 0.3 -0.45 0.3 Q-0.45 0.3 -0.45 0.25 L-0.45 0.2 -0.5 0.25 -0.6 0.25 -0.6 -0.7 -0.6 -0.9 -0.55 -0.95 -0.5 -0.9 -0.4 -0.7 Q-0.35 -0.75 -0.35 -0.8 L-0.3 -0.95 -0.25 -0.9 Q-0.25 -0.85 -0.25 -0.75 L-0.2 -0.8 -0.15 -0.85 -0.05 -0.8 -0.05 -0.8 M-0.05 2.25 L-0.05 2.9 0.05 3.45 0.05 3.55 0.0 3.55 -0.05 3.5 Q-0.1 3.5 -0.1 3.65 L-0.1 3.7 -0.05 3.8 -0.1 3.85 -0.1 3.95 -0.05 4.05 0.05 4.05 Q0.0 3.95 0.05 3.9 L0.05 3.95 0.1 4.0 0.1 3.95 0.1 4.0 0.15 4.05 0.15 4.2 0.3 4.95 0.25 4.95 Q0.25 4.95 0.2 4.9 L0.15 4.9 Q0.1 4.9 0.1 4.95 L0.05 4.85 0.0 4.8 0.0 4.9 0.05 4.95 0.05 5.05 0.0 4.95 -0.05 4.95 -0.05 5.15 0.0 5.2 0.1 5.2 0.1 5.3 -0.1 5.35 -0.2 5.35 -0.25 5.3 -0.35 5.0 -0.35 5.0 -0.35 4.75 -0.3 4.55 -0.35 4.5 -0.4 3.85 -0.35 3.3 -0.4 3.15 -0.4 3.05 -0.55 2.75 -0.55 2.65 -0.4 2.75 -0.3 2.85 -0.25 2.8 -0.2 2.75 -0.25 2.6 -0.3 2.5 -0.3 2.45 -0.25 2.45 -0.25 2.5 -0.2 2.55 -0.15 2.5 -0.2 2.5 -0.2 2.4 -0.2 2.3 -0.2 2.25 -0.2 2.25 -0.15 2.3 Q-0.1 2.25 -0.1 2.2 L-0.05 2.25 M-0.5 -1.65 L-0.45 -1.7 -0.45 -1.8 -0.4 -1.8 Q-0.4 -1.75 -0.35 -1.75 L-0.35 -1.75 -0.3 -1.65 -0.25 -1.5 -0.3 -1.45 -0.35 -1.4 -0.4 -1.5 -0.5 -1.5 -0.5 -1.35 Q-0.5 -1.5 -0.5 -1.65 M-0.6 -0.7 L-0.55 -0.55 -0.45 -0.4 -0.45 -0.5 -0.45 -0.6 -0.5 -0.7 -0.55 -0.7 -0.6 -0.7 M-0.1 4.5 L-0.1 4.4 -0.15 4.3 Q-0.2 4.25 -0.2 4.35 L-0.15 4.4 -0.15 4.5 -0.15 4.6 -0.1 4.5 -0.1 4.5 M0.15 4.55 L0.15 4.5 0.1 4.4 Q0.05 4.45 0.05 4.5 L0.1 4.55 0.15 4.55" fill="#9da184" fill-rule="evenodd" stroke="none"/>
    <path d="M-0.55 -4.15 L-0.45 -4.35 -0.45 -4.4 -0.35 -4.35 -0.25 -4.15 -0.2 -4.25 -0.15 -4.25 -0.05 -4.15 -0.05 -4.0 0.0 -4.0 -0.05 -3.5 -0.05 -3.25 -0.1 -3.2 -0.15 -3.35 -0.2 -3.4 -0.25 -3.3 -0.25 -3.4 -0.3 -3.4 -0.35 -3.35 Q-0.35 -3.25 -0.45 -3.25 L-0.45 -3.4 -0.5 -3.45 -0.55 -3.65 -0.55 -3.85 -0.55 -4.15 M-0.05 1.0 L-0.05 1.3 -0.1 1.35 -0.15 1.4 -0.2 1.35 -0.25 1.3 -0.3 1.45 Q-0.3 1.5 -0.4 1.5 L-0.4 1.5 -0.45 1.5 -0.3 1.5 -0.3 1.75 Q-0.4 1.75 -0.45 1.85 L-0.5 2.05 -0.5 2.1 -0.45 2.1 Q-0.45 2.25 -0.5 2.25 L-0.55 2.25 -0.55 1.85 -0.6 1.25 -0.55 1.05 -0.55 0.7 -0.6 0.55 -0.6 0.25 -0.5 0.25 -0.45 0.2 -0.45 0.25 Q-0.45 0.3 -0.45 0.3 L-0.5 0.3 -0.4 0.5 -0.2 0.55 -0.2 0.7 -0.3 0.7 -0.3 0.75 -0.25 0.8 -0.25 0.95 Q-0.15 0.95 -0.05 1.0" fill="#86855f" fill-rule="evenodd" stroke="none"/>
    <path d="M-1.5 -3.8 L-1.5 -3.9 -1.7 -4.05 -1.65 -4.05 -1.5 -4.05 -1.35 -4.05 -1.3 -4.05 -1.3 -3.9 Q-1.3 -3.8 -1.2 -3.8 L-1.15 -3.8 Q-1.1 -3.85 -1.05 -3.95 L-1.05 -3.9 Q-1.05 -3.8 -1.0 -3.8 L-0.9 -3.8 -0.9 -3.55 -0.85 -3.35 -0.8 -3.15 -0.9 -3.15 -1.0 -3.25 -1.1 -3.25 Q-1.1 -3.4 -1.2 -3.5 L-1.35 -3.6 Q-1.3 -3.7 -1.45 -3.8 L-1.5 -3.8 M-1.45 -3.5 L-1.45 -3.5 -1.35 -3.5 -1.3 -3.4 -1.3 -3.35 -1.2 -3.4 -1.15 -3.25 -1.1 -3.15 -1.1 -2.9 -1.15 -2.9 -1.25 -3.05 -1.35 -3.15 -1.4 -3.2 -1.45 -3.5 M-1.35 -2.9 L-1.3 -2.85 -1.2 -2.75 -1.1 -2.85 -1.1 -2.8 -1.0 -2.6 Q-0.95 -2.6 -0.95 -2.5 L-1.0 -2.4 Q-1.05 -2.35 -1.0 -2.25 L-1.05 -2.25 -1.0 -2.2 -0.95 -2.05 -1.0 -1.95 -1.0 -1.8 -1.05 -1.75 -1.15 -1.75 -1.2 -1.95 -1.35 -2.1 -1.35 -2.1 -1.4 -2.05 -1.4 -2.25 -1.45 -2.35 -1.45 -2.35 -1.4 -2.35 -1.35 -2.3 -1.25 -2.25 -1.25 -2.25 -1.2 -2.25 -1.15 -2.3 -1.1 -2.35 -1.2 -2.5 Q-1.3 -2.65 -1.35 -2.55 L-1.4 -2.75 -1.45 -2.95 -1.4 -2.9 -1.35 -2.9 M-1.25 -1.75 Q-1.2 -1.75 -1.15 -1.7 L-1.1 -1.65 Q-1.0 -1.65 -1.0 -1.7 L-0.95 -1.65 -0.9 -1.45 -0.9 -1.35 -1.15 -1.35 -1.3 -1.55 -1.4 -1.75 -1.2 -1.7 -1.25 -1.75 M-1.25 -1.25 Q-1.2 -1.2 -1.15 -1.2 L-0.95 -1.2 Q-1.0 -1.15 -0.95 -1.1 L-0.95 -1.0 -1.0 -0.8 Q-1.0 -0.95 -1.1 -1.0 L-1.3 -1.05 -1.35 -1.3 -1.35 -1.3 -1.3 -1.3 -1.25 -1.25" fill="#8c8f77" fill-rule="evenodd" stroke="none"/>
    <path d="M0.0 -2.7 L-0.05 -1.5 -0.05 -0.8 -0.05 -0.8 -0.15 -0.85 -0.2 -0.8 -0.25 -0.75 Q-0.25 -0.85 -0.25 -0.9 L-0.3 -0.95 -0.35 -0.8 Q-0.35 -0.75 -0.4 -0.7 L-0.5 -0.9 -0.55 -0.95 -0.5 -1.35 -0.5 -1.35 -0.5 -1.5 -0.4 -1.5 -0.35 -1.4 -0.3 -1.45 -0.25 -1.5 -0.3 -1.65 -0.35 -1.75 -0.35 -1.75 Q-0.4 -1.75 -0.4 -1.8 L-0.45 -1.8 -0.45 -1.7 -0.5 -1.65 -0.5 -1.75 -0.55 -1.9 -0.55 -2.2 Q-0.55 -2.15 -0.5 -2.15 -0.45 -2.15 -0.45 -2.15 L-0.4 -2.15 -0.45 -2.25 -0.45 -2.35 -0.35 -2.35 -0.35 -2.25 Q-0.3 -2.35 -0.2 -2.35 L-0.25 -2.55 Q-0.15 -2.55 -0.1 -2.5 L-0.1 -2.65 -0.15 -2.75 Q-0.05 -2.75 -0.05 -2.7 L0.0 -2.65 0.0 -2.7 M0.05 3.55 L0.1 3.8 0.1 3.95 0.1 4.0 0.05 3.95 0.05 3.9 Q0.0 3.95 0.05 4.05 L-0.05 4.05 -0.1 3.95 -0.1 3.85 -0.05 3.8 -0.1 3.7 -0.1 3.65 Q-0.1 3.5 -0.05 3.5 L0.0 3.55 0.05 3.55 M0.3 4.95 L0.35 5.15 0.35 5.2 0.3 5.2 0.25 5.2 0.3 5.4 0.35 5.65 0.35 5.75 0.3 5.75 0.3 5.6 0.3 5.55 Q0.25 5.65 0.2 5.65 L0.2 5.5 0.15 5.5 0.15 5.65 0.05 5.75 0.0 6.0 0.0 6.05 -0.05 5.85 -0.15 5.55 -0.2 5.35 -0.1 5.35 0.1 5.3 0.1 5.2 0.0 5.2 -0.05 5.15 -0.05 4.95 0.0 4.95 0.05 5.05 0.05 4.95 0.0 4.9 0.0 4.8 0.05 4.85 0.1 4.95 Q0.1 4.9 0.15 4.9 L0.2 4.9 Q0.25 4.95 0.25 4.95 L0.3 4.95 M-0.6 -0.7 L-0.55 -0.7 -0.5 -0.7 -0.45 -0.6 -0.45 -0.5 -0.45 -0.4 -0.55 -0.55 -0.6 -0.7 -0.6 -0.7" fill="#b4b79e" fill-rule="evenodd" stroke="none"/>
    <path d="M-0.05 1.3 L-0.05 2.25 -0.1 2.2 Q-0.1 2.25 -0.15 2.3 L-0.2 2.25 -0.2 2.25 -0.2 2.3 -0.2 2.4 -0.2 2.5 -0.15 2.5 -0.2 2.55 -0.25 2.5 -0.25 2.45 -0.3 2.45 -0.3 2.5 -0.25 2.6 -0.2 2.75 -0.25 2.8 -0.3 2.85 -0.4 2.75 -0.55 2.65 -0.55 2.5 -0.55 2.25 -0.5 2.25 Q-0.45 2.25 -0.45 2.1 L-0.5 2.1 -0.5 2.05 -0.45 1.85 Q-0.4 1.75 -0.3 1.75 L-0.3 1.5 -0.45 1.5 -0.4 1.5 -0.4 1.5 Q-0.3 1.5 -0.3 1.45 L-0.25 1.3 -0.2 1.35 -0.15 1.4 -0.1 1.35 -0.05 1.3 M0.95 8.2 L0.95 8.25 0.95 8.3 1.0 8.4 1.95 11.25 1.9 11.25 1.6 10.65 1.45 10.35 Q1.4 10.35 1.35 10.15 1.3 9.95 1.15 9.9 L1.2 9.8 Q1.15 9.4 0.9 9.0 L0.7 8.6 0.7 8.55 0.75 8.4 0.8 8.3 0.75 8.25 0.75 8.1 0.75 8.05 0.8 8.2 0.85 8.25 0.95 8.2" fill="#a2a080" fill-rule="evenodd" stroke="none"/>
    <path d="M1.9 11.25 L1.85 11.2 1.35 10.75 -0.05 7.8 -0.05 7.75 0.05 7.65 0.1 7.55 0.1 7.5 0.05 7.45 -0.05 7.5 Q-0.15 7.45 -0.15 7.35 L0.0 7.3 -0.1 7.2 -0.15 7.2 -0.1 7.05 -0.05 7.05 0.0 7.05 0.0 6.9 0.05 6.95 0.1 6.95 0.1 7.2 0.15 7.25 0.1 7.3 0.1 7.35 0.2 7.45 0.3 7.5 0.3 7.55 0.25 7.65 0.25 7.9 0.35 8.0 0.35 8.2 0.25 8.2 0.3 8.35 0.75 8.9 0.7 8.95 0.7 9.2 0.85 9.25 Q0.9 9.3 0.95 9.35 L0.9 9.4 0.9 9.45 1.05 9.65 1.2 9.8 1.15 9.9 Q1.3 9.95 1.35 10.15 1.4 10.35 1.45 10.35 L1.6 10.65 1.9 11.25 M-1.2 2.75 L-1.25 2.15 -1.2 2.15 -1.15 2.2 -1.15 2.1 -1.1 2.15 -1.1 2.35 -1.1 2.4 -1.1 2.85 -1.15 2.8 -1.15 2.7 -1.2 2.75 M-1.3 1.0 L-1.4 0.1 -1.25 0.1 Q-1.15 0.05 -1.2 -0.05 L-1.2 -0.05 Q-1.15 -0.05 -1.15 0.05 L-1.2 0.35 -1.25 0.7 -1.2 0.85 -1.1 0.85 -1.1 0.65 Q-1.05 0.7 -1.0 0.55 -1.0 0.35 -0.9 0.35 L-0.95 0.5 -0.9 0.55 -0.9 0.6 -1.05 1.1 -1.0 1.25 -1.0 1.4 -1.0 1.45 -1.05 1.45 -1.15 1.2 -1.3 1.0 M-0.55 2.75 L-0.4 3.05 -0.4 3.15 -0.4 3.25 -0.5 3.25 -0.5 3.1 -0.55 3.1 -0.6 3.1 -0.6 3.05 Q-0.65 3.0 -0.7 2.95 L-0.7 3.0 -0.8 2.85 -0.85 2.75 -0.8 2.6 Q-0.8 2.5 -0.7 2.55 L-0.7 2.6 -0.65 2.6 -0.7 2.7 Q-0.65 2.7 -0.65 2.75 L-0.6 2.75 -0.55 2.75 -0.55 2.75 M-0.3 4.55 L-0.35 4.75 -0.35 5.0 -0.4 4.9 Q-0.45 4.8 -0.55 4.85 L-0.55 4.8 -0.6 4.75 -0.4 4.5 -0.35 4.55 -0.3 4.55 M-0.6 4.0 L-0.55 4.05 -0.5 4.15 -0.55 4.25 -0.55 4.35 Q-0.55 4.4 -0.6 4.4 -0.65 4.25 -0.9 3.9 -0.8 3.9 -0.8 3.95 L-0.8 4.0 -0.75 3.9 -0.75 3.85 -0.65 3.85 -0.65 3.95 -0.6 4.0 M-0.5 5.35 L-0.5 5.4 -0.6 5.35 -0.55 5.3 -0.5 5.25 -0.5 5.35 -0.5 5.35 M-0.6 5.9 L-0.55 5.85 -0.55 5.75 -0.5 5.8 -0.45 5.9 -0.45 5.9 -0.4 5.9 -0.4 6.0 -0.3 5.95 -0.3 6.05 -0.25 6.15 -0.25 6.3 -0.25 6.4 -0.3 6.4 Q-0.3 6.35 -0.4 6.35 L-0.5 6.3 -0.45 6.2 -0.45 6.15 -0.55 6.05 -0.6 5.9 M-0.5 5.95 L-0.45 6.0 -0.45 5.9 -0.5 5.95 M-0.25 6.55 L-0.25 6.5 -0.2 6.5 -0.15 6.6 -0.25 6.55" fill="#626455" fill-rule="evenodd" stroke="none"/>
    <path d="M-1.4 0.1 L-1.4 -0.1 -1.45 -0.45 -1.35 -0.45 -1.3 -0.45 -1.3 -0.4 -1.25 -0.35 -1.3 -0.2 Q-1.35 -0.15 -1.3 -0.1 L-1.2 -0.05 Q-1.15 0.05 -1.25 0.1 L-1.4 0.1 M-1.1 2.4 L-1.05 2.4 -1.05 2.6 -0.95 2.6 -1.0 2.5 -0.95 2.5 -0.95 2.5 -0.9 2.5 -0.9 2.6 -0.95 2.85 -0.95 3.0 -1.0 2.9 -1.1 2.9 -1.1 2.85 -1.1 2.4" fill="#51524c" fill-rule="evenodd" stroke="none"/>
    <path d="M-0.2 -6.75 L-0.15 -6.8 0.55 -7.15 0.5 -7.2 0.5 -7.3 -0.3 -7.1 -0.6 -7.0 -0.6 -7.05 -0.65 -7.1 -0.65 -7.1 -0.6 -7.25 -0.65 -7.6 -0.75 -8.0 -0.75 -8.9 Q-0.75 -9.0 -0.85 -9.15 L-0.95 -9.35 -0.9 -9.45 Q-0.9 -9.45 -0.9 -9.5 L-0.9 -9.55 Q-0.75 -9.65 -0.55 -9.7 L-0.45 -9.7 -0.1 -9.8 -0.55 -10.15 -0.65 -10.25 -0.7 -10.25 -0.65 -10.4 Q-0.55 -10.55 -0.55 -10.65 L-0.6 -10.8 -0.65 -10.8 -0.65 -11.05 -0.45 -11.55 Q-0.25 -11.9 -0.05 -11.95 L-0.05 -12.0 -0.1 -12.0 -0.15 -12.0 -0.15 -12.05 -0.35 -12.0 -0.6 -11.95 -0.8 -12.1 Q-1.05 -12.3 -1.3 -12.35 L-1.3 -12.2 -1.25 -11.65 Q-1.25 -11.55 -1.3 -11.35 L-1.3 -11.35 -1.45 -10.95 -1.45 -10.9 -1.65 -10.95 -1.65 -10.85 -1.6 -10.55 -1.6 -10.5 -1.7 -10.45 -1.75 -10.4 -1.85 -10.3 -2.25 -10.5 -2.25 -10.25 -2.4 -10.3 -2.5 -10.3 -2.5 -10.1 -2.45 -10.0 -2.55 -9.95 -2.65 -10.05 -3.0 -10.35 Q-3.0 -10.3 -3.1 -10.15 L-3.05 -10.05 -2.8 -9.7 -2.8 -9.65 Q-2.85 -9.5 -2.95 -9.4 -3.05 -9.35 -3.2 -9.35 L-3.15 -9.25 -3.1 -9.1 -3.15 -8.9 -3.2 -8.85 -3.3 -8.65 -3.8 -8.7 -3.9 -8.7 -3.9 -8.55 -3.95 -8.55 -3.75 -8.5 -3.35 -8.35 -3.4 -8.3 -3.35 -8.25 -3.3 -8.2 -3.35 -8.1 -3.35 -7.9 -3.35 -7.85 Q-3.35 -7.85 -3.4 -7.8 L-3.4 -7.8 -3.6 -7.7 Q-3.4 -7.6 -3.25 -7.5 L-3.1 -7.3 -3.05 -7.1 -3.1 -7.1 Q-3.65 -6.45 -3.65 -6.35 L-3.65 -6.35 -3.65 -6.3 -3.55 -6.25 -3.55 -6.25 -3.5 -6.3 -3.0 -6.7 -2.95 -6.6 -2.95 -6.55 -2.9 -6.5 -3.0 -6.35 -3.1 -6.1 -2.8 -6.25 -2.75 -6.2 -2.7 -6.15 Q-2.65 -6.1 -2.7 -6.0 L-2.55 -6.0 -2.55 -6.0 Q-2.8 -5.15 -2.85 -5.0 L-2.85 -5.05 -2.45 -5.4 -2.15 -5.7 -2.1 -5.6 -2.0 -5.5 -1.85 -5.55 -1.65 -5.6 -1.6 -5.6 -1.6 -5.55 Q-1.6 -5.3 -1.8 -5.15 L-2.0 -5.05 -2.1 -4.95 -2.2 -4.85 -2.1 -4.75 -1.95 -4.65 M0.0 -5.5 L0.0 -5.6 -0.1 -5.8 -0.15 -5.95 -0.15 -6.1 0.4 -6.05 0.45 -6.05 M-0.2 -6.75 L0.15 -6.45 0.45 -6.1 0.5 -6.1 0.5 -6.05 M0.5 -6.1 L0.4 -6.05 M0.0 -5.4 L0.0 -4.45 0.0 -4.0 -0.05 -3.5 -0.05 -3.25 0.0 -2.8 0.0 -2.7 -0.05 -1.5 -0.05 -0.8 -0.1 0.45 -0.05 1.0 -0.05 1.3 -0.05 2.25 -0.05 2.9 0.05 3.45 0.05 3.55 0.1 3.8 0.1 3.95 0.1 4.0 0.15 4.05 0.15 4.2 0.3 4.95 0.35 5.15 M0.35 5.25 L0.35 5.3 0.4 5.3 0.65 6.75 0.9 8.15 M0.95 8.25 L0.95 8.3 1.0 8.4 1.95 11.25 1.9 11.25 1.85 11.2 1.35 10.75 -0.05 7.8 -0.05 7.75 -0.05 7.75 -0.5 6.85 -1.2 3.0 -1.2 2.75 -1.25 2.15 -1.3 1.0 -1.4 0.1 -1.4 -0.1 -1.45 -0.45 -1.45 -0.6 -1.55 -0.65 -1.55 -0.8 -1.5 -0.85 -1.4 -0.95 -1.45 -1.05 -1.5 -1.05 -1.6 -1.25 -1.6 -1.25 -1.55 -1.25 -1.55 -1.25 -1.55 -1.3 -1.5 -1.35 -1.4 -1.45 -1.45 -1.5 -1.5 -1.55 -1.5 -1.6 -1.6 -1.65 -1.6 -1.7 -1.55 -1.75 -1.5 -1.85 -1.4 -2.0 -1.4 -2.0 -1.5 -2.15 -1.6 -2.3 -1.6 -2.35 -1.5 -2.5 -1.4 -2.6 -1.4 -2.65 -1.5 -2.8 -1.65 -2.9 -1.65 -2.95 -1.55 -3.1 -1.45 -3.25 -1.4 -3.25 -1.55 -3.4 -1.65 -3.5 -1.65 -3.55 -1.55 -3.7 -1.55 -3.75 -1.5 -3.8 -1.5 -3.9 -1.7 -4.05 -1.7 -4.1 Q-1.55 -4.2 -1.55 -4.35 L-1.55 -4.35 -1.6 -4.4 M-1.9 -4.25 L-2.0 -4.3 -2.1 -4.45 -2.1 -4.45 -1.95 -4.55 -1.85 -4.65 -1.85 -4.65 -1.9 -4.7 M0.0 -5.4 L0.0 -5.5 M-2.4 -9.3 L-2.4 -9.3 -2.4 -9.3 Q-2.35 -9.3 -2.25 -9.4 -2.1 -9.5 -2.1 -9.55 L-2.15 -9.7 -2.1 -9.75 -1.95 -9.8 -1.75 -9.9 -1.7 -9.8 -1.65 -9.85 -1.65 -9.8 Q-1.65 -9.7 -1.7 -9.55 L-1.75 -9.35 -1.75 -9.15 -1.7 -9.0 -1.75 -8.45 -1.8 -7.9 -1.75 -7.4 -1.6 -6.65 -1.7 -6.55 -1.7 -6.45 -1.7 -6.45 -1.75 -6.4 -1.75 -6.4 -1.85 -6.6 -2.05 -6.75 Q-2.1 -6.75 -2.2 -6.65 L-2.3 -6.7 -2.3 -6.8 -2.3 -6.85 -2.2 -7.05 -2.35 -7.05 Q-2.35 -7.0 -2.4 -7.0 L-2.4 -7.15 -2.45 -7.15 -2.25 -7.3 Q-2.25 -7.45 -2.3 -7.55 L-2.5 -7.7 -2.65 -7.55 -2.65 -7.65 Q-2.6 -7.75 -2.7 -7.75 L-2.7 -7.8 Q-2.6 -7.9 -2.6 -8.0 L-2.6 -8.0 -2.8 -8.05 -2.85 -8.05 -2.85 -8.2 -2.7 -8.2 -2.7 -8.2 -2.55 -8.25 -2.5 -8.4 -2.55 -8.5 -2.55 -8.6 -2.75 -8.6 -2.7 -8.8 -2.7 -8.8 Q-2.6 -8.9 -2.45 -8.85 L-2.45 -8.9 -2.5 -9.05 -2.4 -9.05 -2.4 -9.15 Q-2.4 -9.2 -2.4 -9.25 L-2.4 -9.3 M-0.1 -5.8 L-0.05 -5.75 0.0 -5.7 0.15 -5.45 M-0.6 -0.7 L-0.6 -0.7 -0.6 -0.7 Z" fill="none" stroke="#000000" stroke-linecap="round" stroke-linejoin="round" stroke-opacity="0.4509804" stroke-width="1.0"/>
  </g>
</svg>
