<?xml version="1.0" encoding="UTF-8" standalone="no"?>
<svg xmlns:xlink="http://www.w3.org/1999/xlink" height="33.8px" width="9.0px" xmlns="http://www.w3.org/2000/svg">
  <g transform="matrix(1.0, 0.0, 0.0, 1.0, 5.8, 16.05)">
    <path d="M0.75 -14.3 Q0.7 -14.6 0.4 -14.85 L0.15 -15.0 0.15 -15.0 Q-0.1 -15.15 -0.45 -15.2 -0.95 -15.3 -1.3 -15.05 -1.7 -14.8 -1.7 -14.2 -1.7 -13.8 -1.5 -13.5 -1.2 -12.95 -0.5 -12.95 0.0 -12.95 0.35 -13.2 L0.3 -13.1 Q0.15 -12.9 -0.1 -12.75 0.2 -12.6 0.35 -12.3 0.55 -11.9 0.55 -11.45 0.55 -10.3 -0.95 -10.3 -1.7 -10.3 -2.0 -10.95 -2.2 -11.3 -2.2 -11.65 -2.2 -12.2 -2.05 -12.45 -1.9 -12.65 -1.65 -12.8 -2.0 -12.9 -2.2 -13.15 -2.45 -13.4 -2.5 -13.7 L-2.5 -13.9 -2.5 -14.0 Q-2.5 -14.35 -2.2 -14.8 -1.75 -15.45 -0.75 -15.45 L-0.25 -15.35 Q0.05 -15.4 0.25 -15.3 0.8 -15.05 0.8 -14.5 L0.75 -14.3 M0.5 -14.25 L0.55 -14.0 Q0.55 -13.85 0.4 -13.65 0.25 -13.4 -0.05 -13.3 L-0.05 -13.3 Q0.15 -13.55 0.2 -13.7 L0.25 -14.05 0.2 -14.6 0.45 -14.3 0.45 -14.2 0.5 -14.25 M-0.55 -14.05 Q-0.6 -13.9 -0.8 -13.95 L-0.75 -13.95 -0.65 -14.0 -0.55 -14.05 -0.55 -14.05 M-0.75 -14.25 L-0.75 -14.25 Q-0.85 -14.15 -0.95 -14.15 -1.0 -14.15 -1.1 -14.2 L-1.15 -14.3 Q-1.15 -14.4 -1.05 -14.5 L-1.05 -14.5 -1.0 -14.35 Q-0.95 -14.25 -0.75 -14.25 M-0.2 -14.25 L-0.2 -14.3 Q-0.1 -14.1 -0.2 -13.9 -0.35 -13.65 -0.65 -13.65 L-0.85 -13.65 -0.7 -13.65 Q-0.4 -13.7 -0.3 -13.95 -0.2 -14.05 -0.2 -14.25 M-1.8 -14.8 L-1.8 -14.8 Q-2.0 -14.7 -2.15 -14.4 -2.25 -14.15 -2.25 -14.0 -2.25 -13.45 -1.75 -13.15 L-2.0 -13.6 -2.05 -14.05 -2.0 -14.4 -1.8 -14.8 M-0.8 -12.65 Q-1.15 -12.65 -1.4 -12.4 -1.65 -12.15 -1.65 -11.65 L-1.55 -11.1 Q-1.35 -10.6 -0.85 -10.6 -0.4 -10.6 -0.1 -11.0 0.05 -11.25 0.05 -11.45 0.05 -12.6 -0.8 -12.65 M-0.35 -12.2 L-0.8 -12.3 Q-1.05 -12.3 -1.35 -12.05 L-1.35 -12.05 Q-1.25 -12.3 -0.9 -12.3 -0.55 -12.35 -0.35 -12.2 M-0.5 -11.15 Q-0.4 -11.2 -0.35 -11.35 -0.3 -11.55 -0.2 -11.55 L-0.3 -11.35 Q-0.35 -11.2 -0.5 -11.15 L-0.5 -11.15 M-0.9 -11.4 L-0.95 -11.45 -0.85 -11.45 -0.85 -11.4 -0.9 -11.4 M-0.3 -11.8 L-0.35 -11.8 -0.4 -11.9 Q-0.35 -11.9 -0.3 -11.8" fill="#8e8128" fill-rule="evenodd" stroke="none"/>
    <path d="M0.35 -13.2 Q0.0 -12.95 -0.5 -12.95 -1.2 -12.95 -1.5 -13.5 -1.7 -13.8 -1.7 -14.2 -1.7 -14.8 -1.3 -15.05 -0.95 -15.3 -0.45 -15.2 -0.1 -15.15 0.15 -15.0 L0.15 -15.0 0.4 -14.85 Q0.7 -14.6 0.75 -14.3 L0.8 -14.0 Q0.8 -13.65 0.55 -13.35 L0.35 -13.2 M0.5 -14.25 L0.45 -14.3 0.2 -14.6 0.25 -14.05 0.2 -13.7 Q0.15 -13.55 -0.05 -13.3 L-0.05 -13.3 Q0.25 -13.4 0.4 -13.65 0.55 -13.85 0.55 -14.0 L0.5 -14.25 M-0.2 -14.25 Q-0.2 -14.05 -0.3 -13.95 -0.4 -13.7 -0.7 -13.65 L-0.85 -13.65 -0.65 -13.65 Q-0.35 -13.65 -0.2 -13.9 -0.1 -14.1 -0.2 -14.3 L-0.2 -14.25 M-0.75 -14.25 Q-0.95 -14.25 -1.0 -14.35 L-1.05 -14.5 -1.05 -14.5 Q-1.15 -14.4 -1.15 -14.3 L-1.1 -14.2 Q-1.0 -14.15 -0.95 -14.15 -0.85 -14.15 -0.75 -14.25 L-0.75 -14.25 M-0.55 -14.05 L-0.55 -14.05 -0.65 -14.0 -0.75 -13.95 -0.8 -13.95 Q-0.6 -13.9 -0.55 -14.05 M-0.8 -12.65 Q0.05 -12.6 0.05 -11.45 0.05 -11.25 -0.1 -11.0 -0.4 -10.6 -0.85 -10.6 -1.35 -10.6 -1.55 -11.1 L-1.65 -11.65 Q-1.65 -12.15 -1.4 -12.4 -1.15 -12.65 -0.8 -12.65 M-0.3 -11.8 Q-0.35 -11.9 -0.4 -11.9 L-0.35 -11.8 -0.3 -11.8 M-0.9 -11.4 L-0.85 -11.4 -0.85 -11.45 -0.95 -11.45 -0.9 -11.4 M-0.5 -11.15 L-0.5 -11.15 Q-0.35 -11.2 -0.3 -11.35 L-0.2 -11.55 Q-0.3 -11.55 -0.35 -11.35 -0.4 -11.2 -0.5 -11.15 M-0.35 -12.2 Q-0.55 -12.35 -0.9 -12.3 -1.25 -12.3 -1.35 -12.05 L-1.35 -12.05 Q-1.05 -12.3 -0.8 -12.3 L-0.35 -12.2" fill="#bfae36" fill-rule="evenodd" stroke="none"/>
    <path d="M2.7 -15.15 L2.75 -14.75 2.75 -14.2 Q2.65 -13.65 2.45 -13.65 2.35 -13.65 2.25 -13.8 L2.15 -14.0 Q1.75 -14.0 1.6 -14.7 1.5 -15.1 1.5 -15.6 1.5 -16.0 1.6 -16.05 L1.7 -15.75 1.8 -15.45 1.8 -15.4 1.9 -15.45 Q1.9 -15.35 1.95 -15.15 L1.95 -14.95 1.9 -14.95 1.85 -15.25 Q1.75 -15.45 1.6 -15.45 1.55 -15.45 1.55 -15.3 1.55 -15.25 1.6 -15.1 L1.75 -14.85 Q1.9 -14.65 2.35 -14.4 L2.45 -14.5 2.5 -14.35 Q2.55 -14.2 2.65 -14.2 2.7 -14.2 2.7 -14.25 L2.7 -14.65 2.7 -15.15 M2.2 -15.45 L2.35 -15.55 2.35 -15.55 2.3 -15.5 2.25 -15.4 2.2 -15.45 M2.35 -14.95 Q2.35 -15.1 2.45 -15.35 2.5 -15.3 2.55 -14.9 L2.55 -14.55 2.35 -14.95" fill="#5b1f71" fill-rule="evenodd" stroke="none"/>
    <path d="M-2.5 -13.9 L-2.5 -13.7 Q-2.5 -13.55 -2.55 -13.4 L-2.55 -13.35 Q-2.5 -13.4 -2.5 -13.2 L-2.5 -12.65 -2.5 -12.5 Q-2.55 -12.55 -2.65 -12.6 -2.7 -12.65 -2.75 -12.7 L-2.75 -12.95 -2.65 -13.2 -2.65 -13.2 -2.7 -13.45 -2.8 -13.45 -3.0 -13.75 Q-3.0 -13.95 -2.75 -14.0 -2.55 -14.0 -2.5 -13.9 M1.9 -15.45 L1.9 -15.45 Q1.9 -15.65 2.05 -15.55 L2.2 -15.45 2.25 -15.4 2.3 -15.5 2.35 -15.55 2.4 -15.55 Q2.6 -15.55 2.7 -15.15 L2.7 -15.15 2.7 -14.65 2.7 -14.25 Q2.7 -14.2 2.65 -14.2 2.55 -14.2 2.5 -14.35 L2.45 -14.5 2.35 -14.4 Q1.9 -14.65 1.75 -14.85 L1.6 -15.1 Q1.55 -15.25 1.55 -15.3 1.55 -15.45 1.6 -15.45 1.75 -15.45 1.85 -15.25 L1.9 -14.95 1.95 -14.95 1.95 -15.15 Q1.9 -15.35 1.9 -15.45 M2.35 -14.95 L2.55 -14.55 2.55 -14.9 Q2.5 -15.3 2.45 -15.35 2.35 -15.1 2.35 -14.95 M2.7 -11.65 L2.65 -11.6 Q3.1 -11.7 3.1 -11.55 L2.75 -10.65 Q2.45 -10.65 2.35 -10.95 L2.3 -11.3 Q2.3 -11.35 2.4 -11.45 2.25 -11.5 2.25 -11.6 2.25 -11.7 2.75 -11.9 3.2 -12.1 3.2 -11.95 3.2 -11.9 3.0 -11.8 L2.7 -11.65" fill="#7e2b9c" fill-rule="evenodd" stroke="none"/>
    <path d="M0.45 -3.05 L0.4 -3.75 0.5 -3.75 0.5 -3.7 0.6 -3.1 0.45 -3.05 M0.85 -3.1 L1.65 -3.7 1.7 -3.7 1.7 -3.65 Q1.7 -3.55 1.3 -2.95 L1.1 -2.8 1.05 -2.95 Q1.0 -3.1 0.85 -3.1 M0.85 -2.7 L0.85 -2.7 0.65 -2.6 0.7 -2.3 0.75 -2.0 Q0.95 -2.1 0.95 -1.9 L0.9 -1.65 0.8 -1.5 0.85 -1.0 0.75 -1.05 0.7 -1.1 0.65 -1.15 0.65 -1.1 0.6 -1.1 0.55 -1.3 0.55 -1.3 Q0.5 -1.3 0.45 -1.4 L0.4 -1.55 0.5 -1.7 0.5 -1.75 0.5 -1.85 0.5 -2.25 0.45 -2.55 0.3 -2.5 Q0.2 -2.5 0.15 -2.55 L0.75 -2.85 0.85 -2.7 M0.85 0.15 L0.7 0.6 0.7 0.55 0.75 0.25 0.75 0.2 0.85 0.15 M0.6 -0.8 L0.7 -0.8 0.75 0.0 0.7 0.05 0.6 -0.8 M0.7 -0.75 Q0.85 -0.7 0.85 -0.55 L0.85 -0.55 0.85 -0.35 0.75 -0.05 0.7 -0.75 M-0.05 8.85 L-0.15 9.75 Q-0.25 10.5 -0.45 10.5 L-0.5 10.5 -0.55 10.4 -0.5 10.35 -0.5 10.45 -0.5 10.4 -0.45 10.35 -0.4 10.2 Q-0.25 9.9 -0.2 9.55 L-0.05 8.8 -0.05 8.85 M-0.45 11.4 L-0.4 11.3 -0.4 11.6 -0.45 11.4 M-0.4 12.2 L-0.4 12.35 -0.35 12.9 Q-0.35 13.35 -0.75 14.05 -0.8 13.55 -0.9 13.25 L-0.7 12.55 -0.55 11.8 -0.6 12.2 -0.6 12.75 Q-0.6 12.65 -0.5 12.4 L-0.4 12.2 M-0.85 14.25 L-1.2 14.85 Q-1.75 15.7 -2.05 15.95 -1.9 15.75 -1.85 15.4 L-1.8 15.15 -1.35 14.5 -1.3 14.45 Q-1.5 14.4 -1.6 14.2 -1.75 14.0 -1.95 13.9 L-2.05 13.75 -2.25 13.55 -2.25 13.55 -2.25 13.55 -2.3 13.55 -2.3 13.5 Q-2.3 13.55 -2.25 13.55 L-1.7 13.8 -1.35 13.8 Q-1.2 13.8 -1.1 13.6 -1.05 13.85 -1.05 14.1 L-1.05 14.5 -0.95 14.15 -0.9 14.05 -0.85 14.25 M-2.35 16.0 L-2.4 15.9 -2.2 15.65 Q-2.25 15.85 -2.35 16.0 M-2.55 13.6 L-2.6 13.6 -2.7 13.55 -2.65 13.35 -2.45 13.45 -2.45 13.5 -2.55 13.5 -2.6 13.6 -2.55 13.6 M-2.75 13.5 Q-2.9 13.4 -2.9 13.3 L-2.9 13.25 -2.8 13.3 -2.75 13.5" fill="#9f9878" fill-rule="evenodd" stroke="none"/>
    <path d="M1.45 -9.1 L1.75 -9.1 Q2.4 -8.95 2.4 -8.55 L2.45 -8.3 Q2.45 -8.2 2.3 -8.05 2.15 -7.9 1.95 -7.85 L1.8 -7.75 Q1.55 -7.75 1.45 -7.95 1.35 -8.0 1.25 -8.15 1.15 -8.35 1.15 -8.5 1.15 -8.8 1.25 -8.95 L1.3 -8.95 Q1.45 -8.95 1.45 -9.1 M1.4 -6.95 L1.4 -6.95 M1.25 -6.45 Q1.0 -6.45 0.9 -6.65 L0.85 -6.85 0.85 -7.15 Q0.85 -7.35 1.35 -7.45 1.85 -7.55 1.85 -7.15 1.85 -7.0 1.75 -6.75 1.55 -6.45 1.25 -6.45 M0.5 -5.55 Q0.45 -5.55 0.4 -5.65 L0.35 -5.7 0.4 -5.75 0.25 -5.8 0.25 -5.85 Q0.25 -5.9 0.35 -6.05 0.5 -6.2 0.65 -6.2 0.9 -6.2 0.9 -5.9 0.9 -5.55 0.65 -5.55 L0.55 -5.6 0.5 -5.55 M0.05 -5.1 L0.05 -5.05 Q0.0 -4.95 -0.1 -4.95 -0.2 -4.95 -0.3 -5.1 L-0.45 -5.3 Q-0.45 -5.6 -0.1 -5.6 0.2 -5.55 0.2 -5.35 0.2 -5.25 0.15 -5.15 L0.05 -5.1 M0.4 -3.75 L0.4 -3.95 Q0.4 -4.5 0.5 -4.55 L0.5 -3.75 0.4 -3.75 M-2.85 -9.15 Q-3.0 -9.15 -3.05 -9.35 L-3.05 -9.4 -3.1 -9.55 Q-3.1 -9.8 -2.85 -9.85 -2.7 -9.85 -2.65 -9.7 -2.55 -9.6 -2.55 -9.4 -2.55 -9.15 -2.85 -9.15 M-3.35 -8.3 L-3.45 -8.55 Q-3.45 -8.85 -3.15 -8.75 -2.9 -8.65 -2.9 -8.4 -2.9 -8.1 -3.1 -8.1 -3.25 -8.1 -3.35 -8.3 M-2.85 -7.55 Q-2.9 -7.4 -3.0 -7.4 -3.2 -7.4 -3.2 -7.6 -3.2 -7.85 -3.0 -7.9 -2.8 -7.9 -2.8 -7.7 L-2.85 -7.55 M-2.9 -6.75 L-2.8 -7.1 Q-2.8 -7.45 -2.45 -6.95 L-2.45 -6.7 Q-2.5 -6.55 -2.65 -6.55 -2.85 -6.55 -2.9 -6.75 M-2.1 -5.7 Q-1.75 -5.65 -1.75 -5.3 -1.75 -5.2 -1.85 -5.1 -1.95 -4.95 -2.05 -4.95 -2.25 -4.95 -2.4 -5.35 -2.4 -5.75 -2.1 -5.7 M-2.5 -5.9 Q-2.55 -5.8 -2.7 -5.8 -2.85 -5.8 -2.9 -5.85 L-2.95 -5.9 -3.0 -6.0 -2.95 -6.15 Q-2.9 -6.35 -2.7 -6.35 -2.45 -6.3 -2.45 -6.05 L-2.5 -5.9 M-0.95 -5.05 L-0.85 -4.8 -0.85 -4.7 -0.95 -4.55 Q-1.05 -4.5 -1.15 -4.5 -1.4 -4.5 -1.5 -4.65 L-1.6 -4.8 Q-1.5 -5.3 -1.3 -5.25 -1.1 -5.25 -0.95 -5.05" fill="#bb4040" fill-rule="evenodd" stroke="none"/>
    <path d="M1.25 -8.95 Q0.95 -8.95 0.55 -9.15 0.05 -9.4 0.05 -9.65 L0.1 -9.85 Q0.25 -9.35 0.75 -9.3 1.35 -9.25 1.45 -9.15 L1.45 -9.1 Q1.45 -8.95 1.3 -8.95 L1.25 -8.95 M-1.45 -3.15 Q-1.1 -3.7 -0.3 -4.4 0.9 -5.5 1.2 -5.5 1.35 -5.5 1.35 -5.3 1.35 -5.1 1.1 -4.6 L1.1 -4.6 1.15 -5.15 1.15 -5.25 -0.25 -4.1 Q-0.8 -3.6 -1.25 -3.05 L-1.3 -3.1 -1.45 -3.15 M-0.75 -2.6 L-0.05 -2.85 0.45 -3.05 0.6 -3.1 0.75 -3.15 0.85 -3.1 Q1.0 -3.1 1.05 -2.95 L1.1 -2.8 1.15 -2.35 1.1 -2.2 0.95 -2.05 0.95 -2.45 0.85 -2.7 0.75 -2.85 0.15 -2.55 -0.15 -2.4 -0.7 -2.25 -0.7 -2.4 -0.75 -2.6 M0.85 -1.0 Q1.1 -0.85 1.1 -0.4 1.1 -0.2 0.9 0.05 L0.85 0.15 0.75 0.2 Q0.65 0.25 0.55 0.25 L0.7 0.05 0.75 0.0 0.75 -0.05 0.85 -0.35 0.9 -0.45 0.85 -0.55 0.85 -0.55 Q0.85 -0.7 0.7 -0.75 L0.7 -0.8 0.6 -0.8 0.3 -0.85 -0.35 -0.8 -1.2 -1.0 Q-1.25 -1.15 -1.45 -1.4 L-1.65 -1.6 -1.7 -1.8 -1.7 -2.0 -1.5 -1.95 Q-1.5 -1.3 -0.8 -1.15 L0.25 -1.1 0.6 -1.1 0.65 -1.1 0.7 -1.1 0.75 -1.05 0.85 -1.0 M0.7 0.6 L0.7 0.75 0.65 1.0 0.65 1.1 Q0.45 0.1 -0.25 0.1 L-0.35 0.15 Q-0.15 0.35 -0.15 0.6 -0.15 0.85 -0.25 1.05 L-0.2 1.1 Q0.0 1.3 0.45 1.35 0.8 1.45 0.95 1.65 1.25 1.95 1.25 2.65 1.25 3.5 0.55 3.95 0.25 4.2 -0.1 4.25 -0.15 5.2 -0.7 5.55 L-0.9 5.7 Q-0.95 5.65 -1.0 5.65 -1.3 5.65 -1.5 5.8 L-1.8 5.65 -1.85 5.7 -1.75 6.05 -1.8 6.2 -1.85 6.1 Q-2.15 5.45 -2.3 5.25 -2.55 4.9 -3.0 4.95 -3.4 5.05 -3.65 4.7 -4.05 4.25 -4.05 3.2 -4.1 2.2 -3.55 1.95 L-2.75 1.85 -2.35 1.75 -1.95 1.65 Q-2.8 1.55 -3.2 0.75 -3.35 1.0 -3.4 1.3 L-3.4 1.3 -3.45 1.0 Q-3.45 -0.05 -3.05 -0.25 L-2.7 -0.3 -2.75 -0.45 -3.0 -0.8 Q-3.5 -1.45 -3.8 -1.7 L-3.75 -1.75 -3.65 -1.8 Q-3.4 -1.8 -2.75 -1.1 L-2.65 -0.95 -2.55 -1.05 -3.1 -1.75 Q-4.05 -2.9 -3.7 -2.9 -3.45 -2.9 -2.7 -2.0 -2.3 -1.5 -2.1 -1.15 L-2.0 -1.15 -1.9 -1.0 -2.05 -1.0 -2.05 -1.0 Q-1.95 -0.85 -1.95 -0.75 L-2.0 -0.65 Q-2.0 -0.6 -2.0 -0.6 L-2.05 -0.55 -2.1 -0.55 Q-2.15 -0.55 -2.45 -0.9 L-2.5 -0.8 -2.2 -0.35 -1.7 -0.45 -1.65 -0.45 -1.5 -0.2 -1.75 -0.2 -2.1 -0.15 -2.0 -0.05 -1.45 0.0 -1.4 0.0 -1.5 0.2 -1.8 0.15 -1.75 0.25 -1.85 0.35 -2.05 0.15 -2.05 0.25 -2.1 0.25 -2.15 0.3 -2.4 0.0 -2.45 -0.05 Q-3.25 0.0 -2.95 0.75 -2.7 1.5 -1.95 1.5 -1.6 1.5 -1.3 1.4 -1.0 0.95 -0.6 0.95 L-0.55 0.95 Q-0.45 0.8 -0.45 0.6 -0.45 0.35 -0.65 0.15 L-0.85 0.2 -0.85 0.15 Q-0.85 -0.2 -1.15 -0.2 L-1.3 -0.15 -1.45 -0.15 -1.5 -0.45 Q-1.2 -0.4 -0.8 -0.25 L-0.5 -0.05 -0.2 -0.1 Q0.05 -0.1 0.35 0.1 0.65 0.3 0.7 0.55 L0.7 0.6 M-0.35 6.9 L-0.1 7.05 Q0.25 6.7 0.25 5.9 L0.2 5.35 Q0.1 4.95 0.05 4.85 0.2 4.95 0.35 5.3 0.45 5.6 0.45 5.95 0.45 6.75 0.0 7.1 L0.0 7.15 Q0.7 7.65 0.85 7.9 L0.7 8.1 Q0.35 7.55 -0.1 7.2 -0.25 7.3 -0.4 7.35 L-0.75 7.3 -0.7 7.3 Q-0.45 7.3 -0.2 7.15 L-0.2 7.15 -0.45 6.95 -0.35 6.9 M-1.1 7.2 L-1.15 7.4 -1.2 7.2 -1.1 7.2 -1.1 7.2 M-1.25 7.0 L-1.4 6.85 -1.4 6.85 -1.4 6.8 -1.35 6.8 -1.2 7.0 Q-1.25 6.85 -1.3 6.75 L-1.4 6.75 -1.4 6.65 -1.5 6.6 -1.45 6.65 -1.45 6.65 Q-1.6 6.55 -1.6 6.35 L-1.6 6.35 -1.6 6.4 -1.4 6.45 -1.2 6.55 -1.05 6.5 Q-0.9 6.5 -0.55 6.75 L-0.65 6.9 -1.05 6.75 -1.05 6.95 -1.2 7.0 -1.25 7.0 M-1.85 6.55 L-1.85 6.55 -2.55 6.7 -3.3 6.9 Q-3.2 6.6 -2.6 6.5 L-1.9 6.4 -1.8 6.4 -1.85 6.55 M-2.05 -1.55 L-2.85 -2.7 Q-3.5 -3.45 -4.05 -3.45 -4.05 -3.6 -3.9 -3.7 L-3.65 -3.75 Q-3.4 -3.75 -2.65 -2.9 L-2.65 -2.85 Q-2.65 -2.65 -2.5 -2.45 L-2.25 -2.25 Q-2.2 -2.15 -2.15 -2.0 L-2.1 -2.15 -2.1 -2.15 -1.9 -1.7 -2.05 -1.55 M-2.25 -3.3 L-3.6 -4.65 -3.55 -4.5 -3.8 -4.85 Q-3.95 -5.05 -3.95 -5.15 -3.95 -5.15 -3.9 -5.2 L-3.85 -5.25 Q-3.35 -5.25 -2.25 -4.05 -1.85 -3.6 -1.6 -3.2 -1.85 -3.35 -2.0 -3.35 L-2.25 -3.3 M-0.8 -2.0 L-0.3 -1.7 Q-0.45 -1.7 -0.8 -1.95 L-0.85 -1.95 -0.8 -2.0 M-3.4 -10.6 L-3.45 -10.75 -3.4 -11.0 Q-3.2 -10.9 -2.95 -10.2 L-3.0 -10.2 -3.3 -10.9 -3.35 -10.95 -3.4 -10.7 -3.4 -10.6 M-2.65 -11.0 Q-2.4 -10.6 -1.65 -10.1 -0.95 -9.6 -0.6 -9.6 L-0.35 -9.7 -0.1 -9.75 -0.05 -9.75 -0.05 -9.65 -0.4 -9.4 Q-0.8 -9.2 -1.05 -9.15 L-0.75 -9.1 -0.65 -9.05 -1.35 -8.9 Q-1.55 -8.9 -2.2 -9.45 -2.0 -9.35 -1.95 -9.35 L-1.75 -9.4 -1.6 -9.45 Q-1.85 -9.6 -2.25 -10.0 -2.75 -10.55 -2.75 -10.85 L-2.7 -10.95 -2.65 -11.0 M-2.2 -10.1 L-1.75 -9.75 -1.3 -9.5 -0.9 -9.5 -1.55 -9.75 Q-2.0 -9.95 -2.2 -10.15 L-2.2 -10.1 M-2.0 -3.0 L-1.95 -3.0 Q-1.9 -3.0 -1.85 -2.95 L-1.9 -2.9 -1.9 -2.9 -2.0 -3.0 M-1.1 -2.55 L-1.1 -2.5 -1.1 -2.45 Q-1.1 -2.4 -1.2 -2.3 -1.3 -2.25 -1.35 -2.25 L-1.7 -2.65 -1.5 -2.7 Q-1.15 -2.7 -1.1 -2.55 M-2.8 -0.1 L-3.05 0.1 -2.8 -0.1 -2.8 -0.1 M-1.1 0.2 L-1.1 0.2 -1.25 0.2 -1.15 0.05 -1.1 0.1 -1.1 0.1 -1.1 0.2 M-1.85 -1.4 L-1.85 -1.45 -1.85 -1.4 M-1.45 1.65 L-1.7 1.7 -1.45 1.75 -1.45 1.65 M-0.75 2.05 L-0.65 2.15 Q-0.55 2.3 -0.3 3.0 -0.05 3.7 -0.05 3.95 L-0.05 4.15 0.45 3.85 Q1.05 3.4 1.05 2.55 1.05 1.95 0.65 1.7 L0.15 1.5 0.2 1.75 Q0.15 1.55 0.0 1.55 L-0.3 1.55 -0.35 1.5 -0.15 1.4 -0.05 1.35 -0.3 1.15 Q-0.5 1.35 -0.85 1.5 L-1.35 1.65 -1.4 1.75 -1.2 1.85 Q-1.3 1.95 -1.3 2.05 L-1.5 2.05 -1.5 2.25 -1.4 2.3 Q-1.2 2.45 -1.1 2.75 L-1.2 2.75 -1.35 2.75 -1.5 2.6 -1.45 2.75 -1.55 2.8 -1.6 2.6 -1.6 2.5 -1.85 2.35 Q-2.25 2.1 -2.6 2.1 -2.65 2.1 -2.9 2.35 L-3.2 2.75 Q-3.1 2.75 -2.9 2.9 L-2.55 3.1 -2.55 3.15 Q-3.0 3.0 -3.2 2.9 -3.35 3.7 -2.85 4.15 -2.55 4.45 -2.1 4.45 L-1.8 4.2 -1.75 4.3 -1.5 4.6 -1.4 4.7 -1.95 4.7 -1.95 5.2 Q-1.95 5.6 -1.35 5.65 -1.05 5.7 -0.75 5.5 -0.35 5.25 -0.25 4.55 -0.15 4.4 -0.15 4.0 -0.15 3.4 -0.55 3.0 L-0.65 2.95 Q-0.7 2.65 -0.85 2.5 L-0.8 2.3 -0.75 2.05 M-1.75 4.3 L-1.8 4.35 -1.8 4.35 -1.75 4.3 M-1.55 2.0 L-2.05 2.0 -1.55 2.2 -1.55 2.0 M-1.1 2.15 L-1.0 1.95 -1.0 1.95 -0.95 2.0 -0.95 2.3 -1.1 2.15 M-3.1 2.05 L-3.5 2.2 Q-3.85 2.35 -3.85 2.8 L-3.85 2.9 Q-3.65 2.8 -3.45 2.55 L-3.1 2.1 -3.1 2.05 M-2.0 3.3 L-2.1 3.45 -2.3 3.6 -2.35 3.6 -2.2 3.35 Q-2.1 3.2 -2.1 3.1 -2.1 3.05 -2.15 3.05 L-2.3 2.95 -2.1 2.95 -2.0 3.0 -2.0 3.0 -1.95 3.1 -1.95 3.2 -2.0 3.3 M-3.95 3.5 L-3.95 3.75 Q-3.95 4.3 -3.55 4.6 -3.3 4.8 -3.1 4.8 L-2.8 4.8 -2.75 4.8 -3.4 4.2 Q-3.75 3.85 -3.9 3.5 L-3.95 3.5 M-3.75 3.3 L-3.45 3.75 -3.4 3.75 -3.55 2.9 Q-3.9 3.0 -3.75 3.3 M-2.4 4.65 Q-2.5 4.6 -2.65 4.6 L-2.45 4.7 -2.4 4.65 M-2.15 4.75 Q-2.4 4.85 -2.45 4.9 L-2.15 5.2 -2.15 4.8 -2.15 4.75 M-1.0 3.5 L-0.65 3.4 -0.65 3.4 Q-0.5 3.55 -0.45 3.85 L-0.6 4.1 -0.7 4.1 Q-0.85 4.1 -1.05 3.85 -1.3 3.6 -1.1 3.35 L-1.1 3.4 Q-1.1 3.55 -1.0 3.6 L-1.0 3.5 M-1.5 3.15 L-1.5 3.1 -1.45 3.1 -1.5 3.15 M-1.3 3.4 L-1.3 3.4 -1.35 3.4 Q-1.35 3.4 -1.35 3.55 L-1.4 3.45 -1.35 3.4 -1.3 3.4 M-1.35 3.65 Q-1.35 3.85 -1.25 4.0 L-1.3 4.1 -1.5 3.85 -1.35 3.65 M-1.05 4.2 L-1.1 4.25 -1.1 4.2 -1.05 4.2 M-1.05 3.85 L-0.85 4.0 Q-0.75 3.8 -0.7 3.6 -0.9 3.55 -1.1 3.8 L-1.05 3.85 M-1.0 4.55 L-1.1 4.55 -1.05 4.55 -1.0 4.55 -1.0 4.55 M-1.9 9.2 Q-2.05 9.05 -2.1 9.05 -2.25 9.05 -2.5 9.2 L-2.45 9.1 -3.25 9.3 -3.25 9.3 -2.65 9.0 Q-2.15 8.75 -2.1 8.75 -1.85 8.6 -1.8 8.6 L-1.7 8.6 -1.7 8.6 -1.65 8.7 Q-1.65 8.85 -2.0 8.95 -1.9 9.0 -1.85 9.05 L-1.9 9.2 M-1.4 9.6 L-1.2 9.85 -1.15 9.9 -1.2 10.1 Q-1.2 10.2 -1.15 10.15 L-1.15 10.15 -1.05 10.05 Q-0.85 10.4 -0.7 10.65 -0.5 11.0 -0.45 11.4 L-0.4 11.6 -0.4 12.2 -0.5 12.4 Q-0.6 12.65 -0.6 12.75 L-0.6 12.2 -0.55 11.8 Q-0.55 11.5 -0.6 11.25 L-0.65 11.3 Q-0.7 11.1 -1.05 10.55 L-1.25 10.4 Q-1.5 10.2 -1.9 10.15 L-1.95 10.15 Q-2.1 10.15 -2.15 10.3 L-2.35 10.2 -3.85 10.05 -3.85 10.0 -3.4 9.9 -2.2 10.0 -1.65 9.95 -1.35 10.05 -1.55 9.75 -1.4 9.6 M-0.85 9.1 L-1.0 8.85 -0.95 8.85 -0.8 9.0 -0.85 9.1 M-0.75 7.9 Q-0.6 7.95 -0.4 8.1 0.25 8.6 0.25 9.1 L0.2 9.2 0.15 9.3 0.05 9.35 Q0.05 9.1 -0.05 8.85 L-0.05 8.8 Q-0.2 8.45 -0.5 8.2 L-0.65 8.15 -0.75 7.9 M-0.5 10.45 Q-0.45 9.9 -0.75 9.3 L-0.7 9.15 Q-0.35 9.75 -0.35 10.1 L-0.4 10.2 -0.45 10.35 -0.45 10.35 -0.5 10.4 -0.5 10.45 M-0.75 14.05 L-0.7 14.6 -0.85 14.25 -0.9 14.05 -0.95 14.15 -1.05 14.5 -1.05 14.1 Q-1.05 13.85 -1.1 13.6 L-1.1 13.45 Q-1.35 12.8 -1.6 12.8 L-2.05 12.95 Q-2.1 12.8 -2.25 12.7 L-2.3 12.7 -1.55 12.55 Q-1.4 12.55 -1.25 12.65 L-1.3 12.65 -1.6 11.7 -1.6 11.65 -1.65 12.0 -1.65 12.0 -1.7 11.75 Q-1.65 11.55 -1.6 11.5 -1.45 11.75 -1.2 12.35 L-1.05 12.95 -0.9 13.25 Q-0.8 13.55 -0.75 14.05 M-2.05 15.95 Q-2.2 16.15 -2.4 16.2 L-2.5 16.2 -2.55 16.15 Q-2.45 16.1 -2.35 16.0 -2.25 15.85 -2.2 15.65 L-2.15 15.45 Q-2.05 15.05 -2.05 14.7 -2.05 14.3 -2.25 14.0 L-2.35 13.9 Q-2.45 14.15 -2.6 14.4 -2.5 14.25 -2.5 14.15 L-2.5 14.05 -2.4 13.85 -2.55 13.6 -2.6 13.6 -2.55 13.5 -2.45 13.5 -2.45 13.6 -2.4 13.6 -2.3 13.55 -2.25 13.55 -2.25 13.55 -2.2 13.45 -2.25 13.55 -2.25 13.55 -2.05 13.75 -1.95 13.9 Q-1.8 14.15 -1.8 14.45 L-1.8 15.15 -1.85 15.4 Q-1.9 15.75 -2.05 15.95 M-2.95 14.85 L-3.0 14.9 -3.0 15.05 -2.55 14.55 Q-2.6 14.8 -2.9 15.25 -2.95 15.1 -3.1 15.0 L-3.1 15.0 Q-3.2 14.9 -3.3 14.9 L-3.15 14.75 -3.15 14.65 Q-3.3 14.9 -3.8 14.9 L-5.1 14.75 -5.1 14.75 -4.7 14.65 -4.35 14.5 -3.95 14.6 -3.35 14.5 -3.2 14.55 -3.1 14.55 -3.05 14.7 -2.95 14.55 -2.85 14.5 -3.0 14.85 -2.95 14.85 M-2.95 15.75 L-3.0 15.9 -3.0 15.8 -2.95 15.75 M-3.55 16.0 L-3.8 16.25 Q-3.6 16.15 -3.45 16.15 -3.4 16.15 -3.35 16.25 L-3.3 16.35 Q-3.3 16.65 -3.8 16.85 -4.2 16.95 -4.7 16.95 L-4.7 16.95 -4.35 16.8 Q-4.25 16.9 -4.15 16.9 -4.0 16.85 -4.0 16.7 -4.0 16.65 -4.0 16.6 L-4.0 16.55 -3.95 16.6 -3.85 16.65 -3.75 16.5 -3.75 16.45 -3.6 16.4 -3.6 16.35 -3.7 16.35 -3.7 16.35 -3.8 16.25 -3.8 16.2 Q-3.85 16.15 -3.95 16.15 L-3.8 15.9 -3.55 16.0 M-4.8 16.9 L-5.1 17.1 Q-5.5 17.4 -5.8 17.45 -5.7 17.25 -5.2 16.9 L-4.8 16.6 Q-4.85 16.75 -4.8 16.9 M-3.9 15.7 L-4.1 15.75 -5.15 15.95 -5.2 15.9 Q-5.0 15.7 -4.6 15.6 L-4.0 15.4 -4.2 15.45 Q-4.25 15.4 -4.0 15.15 L-4.1 15.3 -3.9 15.2 -3.85 15.2 -3.9 15.45 -3.9 15.7 M-3.45 14.35 L-3.5 14.3 Q-3.65 14.15 -3.65 14.05 L-3.65 13.95 -3.6 14.0 -3.4 14.2 -3.45 14.35 M-3.3 14.1 Q-3.4 13.75 -3.5 13.65 L-3.5 13.6 Q-3.4 13.7 -3.25 14.05 L-3.3 14.1 M-2.8 13.15 L-4.0 13.35 Q-4.5 13.35 -4.75 13.2 L-3.0 12.85 -2.75 12.8 -2.8 13.05 -2.8 13.15 M-1.5 10.45 Q-1.2 10.85 -1.2 11.45 L-1.25 11.7 -1.3 11.7 Q-1.4 11.15 -1.6 10.8 -1.5 10.7 -1.5 10.45 M-2.1 11.2 Q-2.0 11.25 -2.0 11.3 L-2.05 11.3 Q-2.2 11.3 -2.3 11.5 L-2.3 11.55 -2.95 11.65 -4.4 11.8 -4.45 11.85 -4.45 11.75 Q-4.45 11.35 -3.65 11.35 L-2.25 11.4 -2.2 11.3 -3.1 10.9 Q-3.65 10.65 -4.1 10.6 L-4.15 10.55 -4.1 10.45 Q-3.45 10.6 -2.8 10.85 -2.4 11.0 -2.2 11.1 L-2.15 11.25 -2.15 11.25 -2.1 11.2 M-2.7 7.6 Q-2.1 7.3 -1.8 7.3 -1.7 7.3 -1.6 7.45 -1.8 7.6 -2.45 7.85 -3.05 8.15 -3.4 8.4 -3.45 7.95 -2.7 7.6 M-1.35 8.45 L-1.3 8.45 Q-1.2 8.5 -1.1 8.6 -1.25 8.6 -1.35 8.45 M-1.6 9.3 L-1.55 9.35 -1.6 9.4 -1.65 9.45 -1.6 9.3 M-1.95 10.4 L-1.95 10.35 -1.9 10.35 -1.95 10.45 -1.95 10.4 M-2.55 13.05 L-2.45 12.9 -2.35 12.95 -2.3 13.0 -2.55 13.05 M-2.6 12.4 L-2.6 12.4 -2.55 12.5 Q-2.55 12.75 -4.2 12.85 L-4.9 12.75 -4.9 12.7 Q-3.9 12.55 -3.3 12.55 L-2.7 12.4 -2.6 12.4 M-4.95 17.75 Q-4.7 17.5 -4.3 17.3 L-3.55 16.95 -3.55 16.95 -3.9 17.1 -3.95 17.1 -3.7 16.9 -3.4 16.8 -3.3 16.8 -3.3 16.9 Q-3.6 17.25 -4.05 17.45 L-4.85 17.75 -4.95 17.75 M-3.7 15.6 L-3.65 15.35 -3.5 15.35 -3.45 15.35 Q-3.5 15.45 -3.7 15.6 M-3.5 15.55 L-3.55 15.75 -3.6 15.75 -3.65 15.75 -3.5 15.55 M-3.2 15.6 L-3.1 15.3 -3.1 15.5 -3.15 15.55 -3.2 15.6" fill="#8d00ff" fill-rule="evenodd" stroke="none"/>
    <path d="M-1.25 -3.05 Q-0.85 -2.85 -0.75 -2.6 L-0.7 -2.4 -0.7 -2.25 Q-0.7 -2.1 -0.8 -2.0 L-0.85 -1.95 Q-0.95 -1.9 -1.1 -1.9 L-1.5 -1.95 -1.7 -2.0 Q-1.9 -2.05 -2.1 -2.15 L-2.1 -2.15 -2.15 -2.0 Q-2.2 -2.15 -2.25 -2.25 L-2.5 -2.45 Q-2.65 -2.65 -2.65 -2.85 L-2.65 -2.9 Q-2.6 -3.15 -2.35 -3.25 L-2.25 -3.3 -2.0 -3.35 Q-1.85 -3.35 -1.6 -3.2 L-1.45 -3.15 -1.3 -3.1 -1.25 -3.05 M-0.9 5.7 Q-0.75 5.75 -0.55 5.95 -0.25 6.3 -0.25 6.55 -0.25 6.75 -0.35 6.9 L-0.45 6.95 -0.65 7.1 -1.0 7.2 -1.1 7.2 -1.1 7.2 -1.2 7.2 -1.35 7.15 -1.4 7.05 -1.25 7.0 -1.2 7.0 -1.05 6.95 -0.8 6.9 -0.65 6.9 -0.55 6.75 Q-0.5 6.65 -0.5 6.55 -0.5 6.3 -0.75 6.1 -0.95 5.9 -1.05 5.9 L-1.35 6.0 Q-1.6 6.1 -1.6 6.35 L-1.6 6.35 Q-1.6 6.55 -1.45 6.65 L-1.45 6.65 -1.4 6.8 -1.4 6.85 -1.4 6.85 -1.45 6.9 Q-1.8 6.9 -1.85 6.55 L-1.8 6.4 -1.8 6.2 -1.75 6.05 Q-1.65 5.85 -1.5 5.8 -1.3 5.65 -1.0 5.65 -0.95 5.65 -0.9 5.7 M-2.0 -1.15 L-2.0 -1.2 -2.05 -1.55 -1.9 -1.7 -1.85 -1.75 Q-1.8 -1.75 -1.65 -1.6 L-1.45 -1.4 Q-1.25 -1.15 -1.2 -1.0 L-1.15 -0.9 Q-1.15 -0.65 -1.3 -0.6 L-1.5 -0.55 -1.5 -0.45 -1.45 -0.15 -1.45 -0.1 -1.4 -0.05 -1.4 -0.05 -1.3 -0.15 -1.15 -0.2 Q-0.85 -0.2 -0.85 0.15 L-0.85 0.2 -0.95 0.4 -1.05 0.55 -1.15 0.55 -1.1 0.35 -1.1 0.2 -1.1 0.1 -1.1 0.1 -1.15 0.05 -1.25 0.2 -1.25 0.35 Q-1.3 0.65 -1.35 0.7 L-1.5 0.6 -1.5 0.2 -1.4 0.0 -1.4 0.0 -1.5 -0.2 -1.65 -0.45 -1.9 -1.0 -2.0 -1.15 M-1.9 -2.9 L-1.85 -2.95 Q-1.9 -3.0 -1.95 -3.0 L-2.0 -3.0 -2.15 -3.0 -2.15 -2.85 -2.05 -2.7 -2.05 -2.65 -1.9 -2.9 M-1.1 -2.5 L-1.1 -2.55 Q-1.15 -2.7 -1.5 -2.7 L-1.7 -2.65 Q-1.9 -2.6 -1.9 -2.45 -1.85 -2.25 -1.45 -2.25 L-1.4 -2.25 -1.4 -2.25 -1.35 -2.25 Q-1.3 -2.25 -1.2 -2.3 -1.1 -2.4 -1.1 -2.45 L-1.1 -2.5 M-1.85 -1.45 L-1.85 -1.4 -1.8 -1.25 -1.65 -1.05 -1.65 -1.05 -1.6 -1.2 Q-1.6 -1.3 -1.7 -1.35 L-1.8 -1.5 -1.8 -1.5 -1.85 -1.45 M-1.2 1.85 L-1.0 1.6 Q-0.95 1.6 -0.85 1.75 L-0.75 2.0 -0.75 2.05 -0.8 2.3 -0.85 2.5 Q-0.85 2.65 -0.9 2.65 -1.0 2.55 -1.0 2.4 L-0.95 2.3 -0.95 2.0 -1.0 1.95 -1.0 1.95 -1.1 2.15 -1.2 2.3 Q-1.3 2.2 -1.3 2.05 -1.3 1.95 -1.2 1.85 M-0.65 2.95 L-0.55 3.0 Q-0.15 3.4 -0.15 4.0 -0.15 4.4 -0.25 4.55 L-0.45 4.65 -1.0 4.55 -0.45 4.7 -0.4 4.7 -0.4 4.8 Q-0.4 4.9 -0.45 4.9 L-0.7 4.9 Q-1.05 4.9 -1.4 4.7 L-1.5 4.6 -1.75 4.3 -1.8 4.2 -2.0 3.85 Q-2.05 3.55 -2.0 3.3 L-1.95 3.2 -1.95 3.1 Q-1.8 2.85 -1.55 2.8 L-1.45 2.75 -1.35 2.75 -1.2 2.75 -1.1 2.75 Q-0.85 2.75 -0.65 2.95 M-0.65 3.4 L-0.9 3.25 -1.0 3.5 -1.0 3.6 Q-1.1 3.55 -1.1 3.4 L-1.1 3.35 Q-1.3 3.6 -1.05 3.85 -0.85 4.1 -0.7 4.1 L-0.6 4.1 Q-0.45 4.05 -0.45 3.9 L-0.45 3.85 Q-0.5 3.55 -0.65 3.4 L-0.65 3.4 M-1.5 3.1 L-1.65 3.2 Q-1.75 3.35 -1.75 3.5 L-1.75 3.55 Q-1.65 3.25 -1.5 3.15 L-1.45 3.1 -1.5 3.1 M-1.3 3.4 L-1.3 3.4 -1.35 3.4 -1.4 3.45 -1.5 3.8 -1.5 3.85 -1.3 4.1 -1.1 4.25 -1.05 4.2 -1.05 4.15 -1.25 4.0 Q-1.35 3.85 -1.35 3.65 L-1.35 3.55 Q-1.35 3.4 -1.35 3.4 L-1.3 3.4 M-1.75 4.3 L-1.75 4.3 M-1.0 4.55 L-1.05 4.55 -1.1 4.55 -1.0 4.55 M-1.85 9.05 L-1.85 9.05 Q-1.65 8.8 -1.4 8.8 -1.3 8.8 -1.25 8.85 -1.2 8.9 -1.2 9.0 -1.2 9.3 -1.4 9.55 L-1.4 9.6 -1.55 9.75 -1.6 9.75 -1.75 9.7 Q-1.8 9.6 -1.85 9.55 L-1.95 9.7 Q-2.0 9.75 -2.0 9.65 -2.0 9.4 -1.9 9.2 L-1.85 9.05 M-1.15 9.9 L-1.0 9.6 -0.85 9.1 -0.8 9.0 -0.75 8.75 -0.95 8.85 -1.0 8.85 -1.05 8.9 -1.35 8.8 Q-1.65 8.65 -1.65 8.4 -1.65 8.0 -1.55 7.85 -1.45 7.85 -1.4 7.75 -1.55 7.8 -1.7 8.05 L-2.15 8.7 Q-2.2 8.2 -1.9 7.8 -1.65 7.5 -1.45 7.5 -1.1 7.5 -0.9 7.7 L-0.75 7.9 -0.65 8.15 Q-0.6 8.25 -0.6 8.4 -0.6 8.8 -0.7 9.15 L-0.75 9.3 -0.8 9.5 -1.05 10.05 -1.15 10.15 -1.15 10.15 Q-1.2 10.2 -1.2 10.1 L-1.15 9.9 M-2.6 14.4 L-2.7 14.55 -2.95 14.9 -2.95 14.85 -3.0 14.85 -2.85 14.5 -2.95 14.55 -3.0 14.6 -3.1 14.55 -3.2 14.55 -3.35 14.5 -3.45 14.5 Q-3.55 14.5 -3.5 14.5 L-3.45 14.35 -3.4 14.2 -3.3 14.1 -3.25 14.05 -3.25 14.0 Q-3.0 13.8 -2.85 13.8 L-2.65 13.9 -2.5 14.05 -2.5 14.15 Q-2.5 14.25 -2.6 14.4 M-2.9 15.25 Q-2.85 15.35 -2.85 15.45 -2.85 15.6 -2.95 15.75 L-3.0 15.8 -3.35 16.0 -3.55 16.0 -3.8 15.9 Q-3.9 15.85 -3.9 15.7 L-3.9 15.45 -3.85 15.2 Q-3.75 14.85 -3.4 14.85 L-3.3 14.9 Q-3.2 14.9 -3.1 15.0 -2.95 15.1 -2.9 15.25 M-3.8 16.25 L-3.8 16.25 -3.7 16.35 -3.7 16.35 -3.75 16.45 -3.75 16.5 -3.85 16.65 -3.95 16.6 -4.0 16.55 -4.0 16.4 -4.1 16.45 -4.0 16.6 Q-4.0 16.65 -4.0 16.7 -4.0 16.85 -4.15 16.9 -4.25 16.9 -4.35 16.8 L-4.45 16.65 -4.6 16.8 -4.75 16.95 -4.8 16.9 Q-4.85 16.75 -4.8 16.6 -4.7 16.45 -4.5 16.35 -4.2 16.15 -3.95 16.15 L-3.95 16.15 Q-3.85 16.15 -3.8 16.2 L-3.8 16.25 M-2.7 13.55 L-2.75 13.6 -2.75 13.5 -2.8 13.3 -2.8 13.15 -2.8 13.05 -2.75 12.8 Q-2.7 12.65 -2.5 12.65 L-2.3 12.7 -2.25 12.7 Q-2.1 12.8 -2.05 12.95 L-2.05 13.05 Q-2.05 13.3 -2.3 13.5 L-2.3 13.55 -2.4 13.6 -2.45 13.6 -2.45 13.5 -2.45 13.45 Q-2.3 13.25 -2.3 13.1 L-2.3 13.0 -2.35 12.95 -2.45 12.9 -2.55 13.05 -2.6 13.2 -2.65 13.35 -2.7 13.55 M-1.9 10.15 L-1.7 10.25 Q-1.5 10.35 -1.5 10.4 L-1.5 10.45 Q-1.5 10.7 -1.6 10.8 L-1.7 10.9 -1.95 10.85 -2.1 11.2 -2.15 11.25 -2.15 11.25 -2.2 11.1 -2.25 10.6 -2.15 10.3 Q-2.1 10.15 -1.95 10.15 L-1.9 10.15 M-2.0 11.3 Q-1.9 11.35 -1.85 11.6 L-1.8 12.0 -1.85 12.3 -1.95 12.3 -2.0 12.25 Q-2.05 12.2 -2.1 12.2 L-2.3 12.1 Q-2.35 12.1 -2.35 12.15 L-2.4 12.15 -2.3 11.55 -2.3 11.5 Q-2.2 11.3 -2.05 11.3 L-2.0 11.3 M-1.1 8.6 L-1.1 8.6 Q-1.0 8.6 -0.95 8.55 -0.85 8.45 -0.85 8.35 -0.85 8.1 -0.95 8.0 -1.05 7.9 -1.15 7.9 -1.45 7.9 -1.4 8.25 L-1.35 8.45 Q-1.25 8.6 -1.1 8.6 M-1.55 9.35 L-1.55 9.15 -1.6 9.3 -1.65 9.45 -1.6 9.4 -1.55 9.35 M-1.95 10.45 L-1.9 10.35 -1.95 10.35 -1.95 10.4 -2.0 10.5 -2.0 10.5 -1.95 10.45 M-2.1 11.7 L-2.05 11.75 Q-2.05 11.7 -2.1 11.55 L-2.1 11.7 M-3.1 14.3 L-3.05 14.3 -2.95 14.25 -2.9 14.15 -3.15 14.3 -3.1 14.3 M-3.1 15.0 L-3.1 15.0 M-3.45 15.35 L-3.5 15.35 -3.65 15.35 -3.7 15.6 -3.7 15.65 -3.65 15.75 -3.65 15.75 -3.6 15.75 -3.55 15.75 -3.5 15.55 -3.45 15.35 -3.45 15.35 M-3.15 15.55 L-3.1 15.5 -3.1 15.3 -3.2 15.6 -3.2 15.7 -3.15 15.55" fill="#cf91ff" fill-rule="evenodd" stroke="none"/>
  </g>
</svg>
