<?xml version="1.0" encoding="UTF-8" standalone="no"?>
<svg xmlns:xlink="http://www.w3.org/1999/xlink" height="6.9px" width="4.65px" xmlns="http://www.w3.org/2000/svg">
  <g transform="matrix(1.0, 0.0, 0.0, 1.0, 2.6, 1.7)">
    <path d="M-0.35 -1.5 Q-0.5 -1.25 -0.3 -1.0 L-0.15 -0.75 0.0 -0.5 0.1 -0.3 Q0.15 -0.2 0.2 -0.1 0.25 0.1 0.4 0.4 0.2 0.35 0.0 -0.05 -0.2 -0.45 -0.4 -0.55 L-0.35 0.5 -0.3 1.5 -0.05 1.45 Q0.1 1.4 0.15 1.55 L-0.1 1.6 -0.7 1.5 Q-0.6 1.35 -0.45 1.4 L-0.5 0.95 -0.5 0.5 Q-0.7 0.25 -0.65 -0.15 L-0.55 -0.8 -0.5 -1.1 Q-0.5 -1.3 -0.6 -1.35 -0.6 -1.45 -0.65 -1.45 L-0.75 -1.35 Q-0.8 -1.45 -0.75 -1.55 L-0.6 -1.65 -0.45 -1.65 Q-0.35 -1.6 -0.35 -1.5 L-0.35 -1.5" fill="#c4bdad" fill-rule="evenodd" stroke="none"/>
    <path d="M-2.5 3.2 L-2.45 3.1 -2.4 2.85 Q-2.35 2.85 -2.25 2.75 L-2.1 2.6 -1.95 2.5 -2.1 2.8 Q-2.25 3.0 -2.5 3.2 M-1.15 -0.55 L-0.9 -0.95 Q-0.75 -1.2 -0.75 -1.35 L-0.65 -1.45 Q-0.6 -1.45 -0.6 -1.35 L-0.7 -0.95 -0.8 -0.55 -0.95 0.05 Q-1.0 0.4 -1.1 0.65 L-1.1 1.05 Q-1.05 1.3 -1.15 1.45 L-1.0 1.45 -1.0 1.5 -1.1 1.55 -1.15 1.45 Q-1.25 1.4 -1.2 1.5 -1.2 1.65 -1.1 1.65 L-0.9 1.7 Q-0.85 1.75 -0.85 1.8 -0.9 1.9 -1.0 1.95 L-1.1 2.0 -1.2 2.0 -1.55 2.05 Q-1.75 2.05 -1.75 1.85 L-1.7 1.7 -1.45 1.7 Q-1.35 1.7 -1.35 1.55 -1.5 1.4 -1.55 1.1 -1.6 0.7 -1.65 0.6 L-1.35 0.05 Q-1.15 -0.3 -1.15 -0.55" fill="#655c58" fill-rule="evenodd" stroke="none"/>
    <path d="M-0.35 -1.5 Q-0.35 -1.4 -0.25 -1.3 L-0.1 -1.15 0.45 -0.6 0.95 0.0 0.85 0.3 Q0.8 0.5 0.8 0.65 0.75 0.65 0.75 0.5 L0.65 0.3 0.45 0.1 0.2 -0.1 Q0.15 -0.2 0.1 -0.3 L0.0 -0.5 -0.15 -0.75 -0.3 -1.0 Q-0.5 -1.25 -0.35 -1.5" fill="#979089" fill-rule="evenodd" stroke="none"/>
    <path d="M-0.8 -0.55 L-0.7 -0.95 -0.6 -1.35 Q-0.5 -1.3 -0.5 -1.1 L-0.55 -0.8 -0.65 -0.15 Q-0.7 0.25 -0.5 0.5 L-0.5 0.95 -0.45 1.4 Q-0.6 1.35 -0.7 1.5 -0.75 1.5 -0.7 1.35 -0.65 1.2 -0.7 1.15 L-0.8 0.8 Q-0.8 0.55 -0.95 0.45 -0.8 0.3 -0.8 0.0 L-0.8 -0.55" fill="#a29f99" fill-rule="evenodd" stroke="none"/>
    <path d="M-1.85 1.7 L-1.85 1.35 -1.9 1.0 Q-1.9 0.55 -1.7 0.3 L-1.4 -0.1 Q-1.25 -0.4 -1.15 -0.55 -1.15 -0.3 -1.35 0.05 L-1.65 0.6 Q-1.6 0.7 -1.55 1.1 -1.5 1.4 -1.35 1.55 -1.35 1.7 -1.45 1.7 L-1.7 1.7 -1.85 1.7" fill="#a59b95" fill-rule="evenodd" stroke="none"/>
    <path d="M-0.8 -0.55 L-0.8 0.0 Q-0.8 0.3 -0.95 0.45 -0.8 0.55 -0.8 0.8 L-0.7 1.15 Q-0.65 1.2 -0.7 1.35 -0.75 1.5 -0.7 1.5 L-0.1 1.6 Q-0.25 1.65 -0.25 1.75 L-0.05 1.9 -0.4 1.95 -0.8 2.0 -0.55 2.05 -0.35 2.05 -0.5 2.15 -0.5 2.2 -0.55 2.2 -0.6 2.3 -0.65 2.2 Q-0.7 2.15 -0.8 2.25 L-0.85 2.3 Q-0.85 2.3 -0.85 2.2 -0.95 2.1 -0.95 2.3 L-1.0 2.55 Q-1.05 2.65 -1.15 2.7 -1.25 2.75 -1.25 2.55 L-1.25 2.75 -1.15 2.9 -1.3 2.85 -1.45 2.85 -1.45 2.7 Q-1.45 2.65 -1.45 2.55 L-1.45 2.4 Q-1.45 2.25 -1.2 2.3 -1.1 2.3 -1.05 2.15 -1.05 2.05 -1.1 2.0 L-1.0 1.95 Q-0.9 1.9 -0.85 1.8 -0.85 1.75 -0.9 1.7 L-1.1 1.65 Q-1.2 1.65 -1.2 1.5 -1.25 1.4 -1.15 1.45 L-1.1 1.55 -1.0 1.5 -1.0 1.45 -1.15 1.45 Q-1.05 1.3 -1.1 1.05 L-1.1 0.65 Q-1.0 0.4 -0.95 0.05 L-0.8 -0.55" fill="#878582" fill-rule="evenodd" stroke="none"/>
    <path d="M0.15 1.55 Q0.1 1.4 -0.05 1.45 L-0.3 1.5 -0.35 0.5 -0.4 -0.55 Q-0.2 -0.45 0.0 -0.05 0.2 0.35 0.4 0.4 L0.35 0.9 Q0.35 1.15 0.55 1.25 L0.45 1.4 0.55 1.5 0.3 1.55 0.15 1.55" fill="#e2dab9" fill-rule="evenodd" stroke="none"/>
    <path d="M0.2 -0.1 L0.45 0.1 0.65 0.3 0.75 0.5 Q0.75 0.65 0.8 0.65 L0.85 0.85 0.9 1.0 1.0 1.15 1.0 1.35 1.0 1.4 0.8 1.5 0.55 1.5 0.45 1.4 0.55 1.25 0.6 0.8 Q0.6 0.55 0.4 0.4 0.25 0.1 0.2 -0.1" fill="#aca79b" fill-rule="evenodd" stroke="none"/>
    <path d="M0.8 0.65 Q0.8 0.5 0.85 0.3 L0.95 0.0 Q1.15 0.15 1.2 0.25 L1.0 0.2 Q0.95 0.3 1.0 0.6 1.0 0.9 0.9 1.0 L0.85 0.85 0.8 0.65" fill="#827670" fill-rule="evenodd" stroke="none"/>
    <path d="M1.2 0.25 Q1.3 0.4 1.35 0.65 L1.35 1.0 1.35 1.05 Q1.3 1.2 1.15 1.2 1.15 1.35 1.0 1.35 L1.0 1.15 0.9 1.0 Q1.0 0.9 1.0 0.6 0.95 0.3 1.0 0.2 L1.2 0.25" fill="#695f59" fill-rule="evenodd" stroke="none"/>
    <path d="M0.55 1.25 Q0.35 1.15 0.35 0.9 L0.4 0.4 Q0.6 0.55 0.6 0.8 L0.55 1.25" fill="#c7c1af" fill-rule="evenodd" stroke="none"/>
    <path d="M-0.05 1.9 L-0.25 1.75 Q-0.25 1.65 -0.1 1.6 L0.15 1.55 0.3 1.55 0.45 1.55 Q0.6 1.6 0.55 1.75 0.5 1.85 0.4 1.85 L0.35 1.85 0.15 1.85 Q0.0 1.85 -0.05 1.9" fill="#a9a49b" fill-rule="evenodd" stroke="none"/>
    <path d="M0.8 1.85 L0.4 1.85 Q0.5 1.85 0.55 1.75 0.6 1.6 0.45 1.55 L0.55 1.5 0.8 1.5 1.0 1.4 1.35 1.45 1.2 1.5 1.0 1.55 Q0.75 1.65 0.8 1.85" fill="#796f65" fill-rule="evenodd" stroke="none"/>
    <path d="M1.4 1.5 L1.65 1.65 Q1.8 1.8 1.95 1.8 2.05 1.9 1.9 1.95 L1.7 1.95 1.6 1.85 1.55 1.85 1.5 1.85 1.05 1.85 0.8 1.85 Q0.75 1.65 1.0 1.55 L1.2 1.5 1.35 1.45 1.4 1.5 M1.6 2.6 L1.6 2.7 1.55 2.75 Q1.35 2.8 1.35 2.65 1.3 2.5 1.35 2.25 L1.35 2.15 1.45 2.45 Q1.5 2.6 1.6 2.6 M1.15 2.2 L1.1 1.9 1.1 1.95 1.45 1.95 1.35 2.1 Q1.3 2.05 1.15 2.0 L1.15 2.2" fill="#615851" fill-rule="evenodd" stroke="none"/>
    <path d="M-1.85 2.25 L-2.45 2.25 Q-2.4 2.1 -2.2 1.95 L-1.85 1.7 -1.7 1.7 -1.75 1.85 Q-1.8 1.85 -1.85 2.0 -1.9 2.15 -2.0 2.15 L-2.05 2.15 -1.95 2.15 Q-1.75 2.15 -1.85 2.25" fill="#8a7f7a" fill-rule="evenodd" stroke="none"/>
    <path d="M-2.35 3.9 L-2.4 3.8 -2.4 3.75 -2.35 3.7 -2.5 3.65 -2.45 3.6 -2.55 3.35 -2.5 3.2 Q-2.25 3.0 -2.1 2.8 L-1.95 2.5 -1.85 2.25 Q-1.75 2.15 -1.95 2.15 L-2.05 2.15 -2.0 2.15 Q-1.9 2.15 -1.85 2.0 -1.8 1.85 -1.75 1.85 -1.75 2.05 -1.55 2.05 L-1.2 2.0 -1.1 2.0 Q-1.05 2.05 -1.05 2.15 -1.1 2.3 -1.2 2.3 -1.45 2.25 -1.45 2.4 L-1.45 2.55 Q-1.45 2.65 -1.45 2.7 L-1.6 2.85 Q-1.55 2.9 -1.55 3.0 L-1.65 3.05 Q-1.8 3.15 -1.75 3.3 L-1.85 3.25 -1.95 3.25 Q-2.0 3.3 -1.95 3.4 L-1.95 3.6 Q-2.0 3.5 -2.15 3.55 -2.25 3.6 -2.35 3.6 L-2.2 3.65 Q-2.1 3.7 -2.15 3.8 L-2.35 3.9 M-1.6 2.85 Q-1.65 2.7 -1.75 2.8 L-1.85 3.0 -1.7 2.9 -1.6 2.85" fill="#6e6766" fill-rule="evenodd" stroke="none"/>
    <path d="M-0.35 2.05 L-0.55 2.05 -0.8 2.0 -0.4 1.95 -0.05 1.9 Q0.0 1.85 0.15 1.85 L0.35 1.85 0.4 1.85 0.8 1.85 1.05 1.85 1.5 1.85 1.45 1.95 1.1 1.95 1.1 1.9 1.05 1.85 0.9 1.9 0.75 1.95 0.7 1.95 0.4 1.95 0.15 1.95 -0.15 2.0 -0.35 2.05 -0.35 2.05 M1.05 1.85 L1.1 1.9 1.05 1.85" fill="#d6cebf" fill-rule="evenodd" stroke="none"/>
    <path d="M1.35 2.1 L1.35 2.15 1.35 2.25 Q1.25 2.35 1.15 2.2 L1.15 2.0 Q1.3 2.05 1.35 2.1" fill="#877b6b" fill-rule="evenodd" stroke="none"/>
    <path d="M1.45 1.95 L1.5 2.2 1.55 2.3 1.6 2.6 Q1.5 2.6 1.45 2.45 L1.35 2.15 1.35 2.1 1.45 1.95" fill="#b2a9a0" fill-rule="evenodd" stroke="none"/>
    <path d="M1.35 1.0 L1.4 1.5 1.35 1.45 1.0 1.4 1.0 1.35 Q1.15 1.35 1.15 1.2 1.3 1.2 1.35 1.05 L1.35 1.0" fill="#564a40" fill-rule="evenodd" stroke="none"/>
    <path d="M1.7 1.95 L1.45 1.95 1.5 1.85 1.55 1.85 1.6 1.85 1.7 1.95" fill="#8e8a85" fill-rule="evenodd" stroke="none"/>
    <path d="M-0.6 2.75 L-0.6 2.85 -0.75 2.7 Q-0.7 2.6 -0.65 2.65 L-0.6 2.75 M-0.6 2.85 L-0.6 2.85" fill="#d2d3d3" fill-rule="evenodd" stroke="none"/>
    <path d="M-0.6 2.75 L-0.65 2.65 Q-0.7 2.6 -0.75 2.7 L-0.8 2.7 Q-0.85 2.6 -0.65 2.55 L-0.55 2.55 -0.6 2.75 M-0.6 2.85 L-0.6 2.85 -0.6 2.85 -0.6 2.85" fill="#737473" fill-rule="evenodd" stroke="none"/>
    <path d="M-1.0 2.55 L-0.95 2.3 Q-0.95 2.1 -0.85 2.2 -0.85 2.3 -0.85 2.3 L-0.8 2.25 Q-0.7 2.15 -0.65 2.2 L-0.6 2.3 -0.55 2.2 -0.5 2.2 -0.55 2.55 -0.65 2.55 Q-0.85 2.6 -0.8 2.7 -0.9 2.8 -0.9 2.75 L-0.9 2.7 Q-0.85 2.55 -1.0 2.55" fill="#b8b8b7" fill-rule="evenodd" stroke="none"/>
    <path d="M-1.6 2.85 L-1.7 2.9 -1.85 3.0 -1.75 2.8 Q-1.65 2.7 -1.6 2.85" fill="#b5b2af" fill-rule="evenodd" stroke="none"/>
    <path d="M1.55 2.75 L1.65 2.7 1.5 2.8 Q1.35 2.9 1.35 3.1 L1.3 3.05 1.3 2.85 Q1.3 2.7 1.2 2.65 L1.15 2.7 1.15 2.2 Q1.25 2.35 1.35 2.25 1.3 2.5 1.35 2.65 1.35 2.8 1.55 2.75" fill="#b8a99a" fill-rule="evenodd" stroke="none"/>
    <path d="M1.1 3.35 L1.1 3.25 1.15 2.8 1.15 2.7 1.2 2.65 Q1.3 2.7 1.3 2.85 L1.3 3.05 Q1.2 3.1 1.2 3.2 L1.15 3.35 1.1 3.35" fill="#e2d1c3" fill-rule="evenodd" stroke="none"/>
    <path d="M0.2 3.95 L0.3 4.0 0.25 4.05 0.2 3.95 M1.0 3.65 L1.0 3.6 1.0 3.65" fill="#7b736a" fill-rule="evenodd" stroke="none"/>
    <path d="M-1.7 4.15 Q-1.9 4.0 -2.0 3.95 -2.1 3.8 -1.9 3.65 -1.95 3.8 -1.95 3.85 L-1.8 3.9 Q-1.7 3.9 -1.7 3.85 L-1.7 4.15" fill="#6e6a6a" fill-rule="evenodd" stroke="none"/>
    <path d="M-1.25 3.5 L-1.55 3.5 Q-1.6 3.35 -1.45 3.35 L-1.2 3.35 -1.25 3.5" fill="#6c6b6d" fill-rule="evenodd" stroke="none"/>
    <path d="M-1.1 4.25 L-1.15 4.2 Q-1.1 4.05 -1.2 4.1 -1.3 4.2 -1.35 4.2 -1.35 4.1 -1.4 4.0 -1.45 3.85 -1.45 4.0 -1.35 4.25 -1.5 4.25 L-1.7 4.15 -1.6 4.1 Q-1.55 4.1 -1.55 4.0 -1.6 3.9 -1.5 3.75 -1.4 3.65 -1.3 3.65 L-1.25 3.75 Q-1.2 3.75 -1.2 3.65 -1.0 3.6 -0.9 3.7 -0.8 3.8 -1.0 3.9 -1.1 3.95 -1.1 4.05 L-1.1 4.25" fill="#757272" fill-rule="evenodd" stroke="none"/>
    <path d="M-0.45 3.95 Q-0.6 4.1 -0.55 4.2 -0.7 4.2 -0.65 4.05 L-0.5 3.8 Q-0.4 3.8 -0.4 3.85 L-0.45 3.95" fill="#bfbebc" fill-rule="evenodd" stroke="none"/>
    <path d="M-0.45 3.3 L-0.4 3.45 -0.5 3.45 -0.6 3.3 -0.45 3.3" fill="#737270" fill-rule="evenodd" stroke="none"/>
    <path d="M-1.0 3.9 L-0.95 4.2 Q-0.95 4.3 -1.1 4.25 L-1.1 4.05 Q-1.1 3.95 -1.0 3.9" fill="#c9c6c3" fill-rule="evenodd" stroke="none"/>
    <path d="M1.35 3.1 Q1.3 3.2 1.3 3.45 L1.3 3.65 1.15 3.45 1.25 3.35 Q1.3 3.2 1.3 3.05 L1.35 3.1" fill="#887a72" fill-rule="evenodd" stroke="none"/>
    <path d="M0.3 4.0 L0.35 4.0 0.45 4.0 Q0.45 4.1 0.55 4.05 L0.7 4.05 0.55 4.15 0.4 4.15 Q0.35 4.05 0.25 4.15 L0.2 4.2 0.25 4.05 0.3 4.0 M0.7 3.95 Q0.8 3.9 0.9 3.8 L1.0 3.65 Q1.1 3.8 1.0 3.9 0.95 3.95 0.9 3.8 0.95 4.0 0.9 4.0 L0.7 3.95" fill="#aea8a5" fill-rule="evenodd" stroke="none"/>
    <path d="M-0.3 3.6 L-0.15 3.7 -0.2 3.8 Q-0.3 3.85 -0.3 3.7 L-0.3 3.6" fill="#7e7d7b" fill-rule="evenodd" stroke="none"/>
    <path d="M0.55 4.0 L0.7 3.95 0.7 4.05 0.55 4.05 0.55 4.0" fill="#e6dddb" fill-rule="evenodd" stroke="none"/>
    <path d="M0.45 4.0 L0.55 4.0 0.55 4.05 Q0.45 4.1 0.45 4.0" fill="#645d5a" fill-rule="evenodd" stroke="none"/>
    <path d="M1.3 3.65 L1.35 3.75 1.3 3.85 1.35 4.0 1.4 4.05 1.45 4.1 1.45 4.15 Q1.25 4.05 1.2 3.9 L1.1 4.1 Q1.0 4.2 1.0 4.25 0.9 4.3 0.95 4.35 L1.0 4.5 0.9 4.5 Q0.85 4.45 0.7 4.45 0.55 4.45 0.6 4.35 L0.55 4.3 0.55 4.35 Q0.55 4.55 0.4 4.5 L0.4 4.3 0.35 4.2 0.4 4.15 0.55 4.15 0.7 4.05 0.7 3.95 0.9 4.0 Q0.95 4.0 0.9 3.8 0.95 3.95 1.0 3.9 1.1 3.8 1.0 3.65 L1.0 3.6 1.05 3.55 1.15 3.45 1.3 3.65" fill="#5c5450" fill-rule="evenodd" stroke="none"/>
    <path d="M1.45 4.15 L1.4 4.35 1.2 4.55 1.15 4.65 Q1.0 4.5 1.05 4.7 L0.95 4.75 0.9 4.8 0.85 4.65 0.9 4.6 0.9 4.5 1.0 4.5 Q1.1 4.5 1.05 4.4 L1.0 4.25 Q1.0 4.2 1.1 4.1 L1.2 3.9 Q1.25 4.05 1.45 4.15" fill="#766d67" fill-rule="evenodd" stroke="none"/>
    <path d="M-1.9 4.45 L-1.9 4.4 Q-1.9 4.35 -2.0 4.3 L-1.95 4.1 Q-1.95 4.05 -1.9 4.1 L-1.85 4.25 -1.85 4.35 Q-1.75 4.25 -1.7 4.3 -1.55 4.3 -1.7 4.5 -1.75 4.45 -1.9 4.45" fill="#565250" fill-rule="evenodd" stroke="none"/>
    <path d="M-1.2 4.3 L-1.0 4.4 Q-0.9 4.45 -1.05 4.55 -1.05 4.5 -1.15 4.45 L-1.4 4.35 -1.35 4.2 -1.3 4.3 Q-1.2 4.4 -1.2 4.3" fill="#66615f" fill-rule="evenodd" stroke="none"/>
    <path d="M-1.15 4.2 L-1.2 4.3 Q-1.2 4.4 -1.3 4.3 L-1.35 4.2 Q-1.3 4.2 -1.2 4.1 -1.1 4.05 -1.15 4.2" fill="#b4b1ae" fill-rule="evenodd" stroke="none"/>
    <path d="M1.0 4.5 L0.95 4.35 Q0.9 4.3 1.0 4.25 L1.05 4.4 Q1.1 4.5 1.0 4.5" fill="#ada6a3" fill-rule="evenodd" stroke="none"/>
    <path d="M0.3 4.3 L0.4 4.3 0.4 4.5 Q0.45 4.6 0.55 4.75 L0.3 4.65 0.3 4.3" fill="#b0aba9" fill-rule="evenodd" stroke="none"/>
    <path d="M0.3 4.65 L0.2 4.45 Q0.15 4.4 0.1 4.55 0.0 4.6 -0.05 4.5 -0.05 4.45 0.0 4.35 0.05 4.25 0.1 4.25 0.2 4.2 0.3 4.3 L0.3 4.65" fill="#625c5b" fill-rule="evenodd" stroke="none"/>
    <path d="M-0.55 4.8 Q-0.65 4.9 -0.75 4.65 L-0.75 4.55 Q-0.7 4.55 -0.65 4.65 -0.55 4.7 -0.5 4.55 -0.5 4.45 -0.4 4.5 -0.35 4.6 -0.4 4.7 L-0.55 4.8" fill="#c2bfba" fill-rule="evenodd" stroke="none"/>
    <path d="M0.4 4.95 L0.35 4.95 0.3 4.95 0.3 4.9 0.4 4.9 0.4 4.95" fill="#706254" fill-rule="evenodd" stroke="none"/>
    <path d="M-0.85 5.05 L-0.9 5.05 -0.95 5.0 -0.95 5.0 Q-0.95 4.85 -0.85 4.8 -0.85 4.75 -0.9 4.7 -0.95 4.6 -0.95 4.55 -0.75 4.6 -0.8 4.8 L-0.85 5.05" fill="#bebcb8" fill-rule="evenodd" stroke="none"/>
    <path d="M1.15 4.65 L1.05 4.7 Q1.0 4.5 1.15 4.65" fill="#d2cecb" fill-rule="evenodd" stroke="none"/>
    <path d="M0.9 4.8 L0.95 4.8 0.85 4.9 0.85 4.8 0.7 4.7 Q0.55 4.65 0.6 4.55 L0.85 4.65 0.9 4.8" fill="#c7c5c3" fill-rule="evenodd" stroke="none"/>
    <path d="M-0.6 5.1 L-0.6 5.1 -0.65 5.1 -0.7 5.0 -0.75 4.9 Q-0.65 4.85 -0.65 4.95 L-0.6 5.1" fill="#ddddd7" fill-rule="evenodd" stroke="none"/>
    <path d="M-1.0 5.0 L-1.15 4.9 Q-1.15 4.75 -1.1 4.65 -1.0 4.7 -1.0 4.95 L-1.0 5.0" fill="#c9c7c6" fill-rule="evenodd" stroke="none"/>
    <path d="M-0.3 5.05 L-0.4 5.05 -0.4 5.05 -0.45 5.0 Q-0.55 4.9 -0.55 4.8 -0.4 4.8 -0.3 5.05 L-0.3 5.05" fill="#ceccc4" fill-rule="evenodd" stroke="none"/>
    <path d="M0.3 4.95 L0.3 5.0 Q0.2 5.05 0.2 4.95 0.2 4.85 0.3 4.9 L0.3 4.95" fill="#d3d2c8" fill-rule="evenodd" stroke="none"/>
    <path d="M0.55 4.9 L0.55 4.95 0.45 4.95 0.4 4.95 0.4 4.9 0.5 4.85 0.55 4.9" fill="#d1d0ca" fill-rule="evenodd" stroke="none"/>
    <path d="M0.1 4.95 L0.1 5.0 0.0 5.0 Q-0.1 5.0 -0.05 4.9 -0.2 4.85 -0.2 4.95 L-0.2 5.0 Q-0.2 5.05 -0.25 5.05 L-0.3 5.0 -0.25 4.85 -0.2 4.7 Q-0.05 4.7 0.0 4.8 L0.1 4.95" fill="#d9d7cc" fill-rule="evenodd" stroke="none"/>
    <path d="M-0.6 2.85 L-0.5 3.15 -0.45 3.3 -0.6 3.3 -0.5 3.45 -0.4 3.45 -0.35 3.5 -0.3 3.6 -0.3 3.7 Q-0.3 3.85 -0.2 3.8 L-0.15 3.7 -0.05 3.8 -0.05 3.85 0.0 3.95 -0.05 4.05 -0.15 4.05 -0.2 3.8 Q-0.25 4.15 -0.35 3.9 -0.45 3.65 -0.4 3.5 -0.5 3.45 -0.5 3.55 -0.5 3.7 -0.55 3.7 -0.65 3.65 -0.65 3.8 -0.65 3.95 -0.75 3.9 L-0.75 3.65 -0.8 3.75 Q-0.85 4.0 -1.0 3.9 -0.8 3.8 -0.9 3.7 -1.0 3.6 -1.2 3.65 L-1.25 3.5 -1.2 3.35 -1.05 3.5 -0.95 3.45 Q-1.0 3.55 -0.9 3.6 L-0.75 3.6 -0.6 3.65 Q-0.6 3.45 -0.65 3.3 -0.75 3.1 -0.85 3.35 -0.9 3.25 -0.8 3.1 L-0.6 2.85 -0.6 2.85 M0.05 3.9 L0.2 3.95 0.25 4.05 Q0.1 4.1 0.1 3.95 L0.05 3.9 M1.0 3.6 L1.1 3.35 1.15 3.35 1.2 3.2 Q1.2 3.1 1.3 3.05 1.3 3.2 1.25 3.35 L1.15 3.45 1.05 3.55 1.0 3.6" fill="#bdb9b4" fill-rule="evenodd" stroke="none"/>
    <path d="M-1.15 4.9 L-1.15 4.9 -1.35 4.8 -1.4 4.85 Q-1.5 4.85 -1.65 4.65 L-1.8 4.55 -1.9 4.45 Q-1.75 4.45 -1.7 4.5 -1.55 4.3 -1.7 4.3 -1.75 4.25 -1.85 4.35 L-1.85 4.25 -1.9 4.1 Q-1.95 4.05 -1.95 4.1 L-2.0 4.3 -2.05 4.3 Q-2.15 4.2 -2.15 4.15 -2.15 4.1 -2.2 4.1 L-2.25 4.1 -2.4 3.95 -2.35 3.9 -2.15 3.8 Q-2.1 3.7 -2.2 3.65 L-2.35 3.6 Q-2.25 3.6 -2.15 3.55 -2.0 3.5 -1.95 3.6 L-1.95 3.4 Q-2.0 3.3 -1.95 3.25 L-1.85 3.25 -1.75 3.3 Q-1.8 3.15 -1.65 3.05 L-1.55 3.0 Q-1.55 2.9 -1.6 2.85 L-1.45 2.7 -1.45 2.85 -1.3 2.85 -1.15 2.9 -1.25 2.75 -1.25 2.55 Q-1.25 2.75 -1.15 2.7 -1.05 2.65 -1.0 2.55 -0.85 2.55 -0.9 2.7 L-0.9 2.75 Q-0.9 2.8 -0.8 2.7 L-0.75 2.7 -0.6 2.85 -0.8 3.1 Q-0.9 3.25 -0.85 3.35 -0.75 3.1 -0.65 3.3 -0.6 3.45 -0.6 3.65 L-0.75 3.6 -0.9 3.6 Q-1.0 3.55 -0.95 3.45 L-1.05 3.5 -1.2 3.35 -1.45 3.35 Q-1.6 3.35 -1.55 3.5 L-1.25 3.5 -1.2 3.65 Q-1.2 3.75 -1.25 3.75 L-1.3 3.65 Q-1.4 3.65 -1.5 3.75 -1.6 3.9 -1.55 4.0 -1.55 4.1 -1.6 4.1 L-1.7 4.15 -1.5 4.25 Q-1.35 4.25 -1.45 4.0 -1.45 3.85 -1.4 4.0 -1.35 4.1 -1.35 4.2 L-1.4 4.35 -1.15 4.45 Q-1.05 4.5 -1.05 4.55 L-1.1 4.65 Q-1.15 4.75 -1.15 4.9 M-2.4 3.75 L-2.45 3.7 -2.5 3.65 -2.5 3.65 -2.35 3.7 -2.4 3.75 M-1.7 4.15 L-1.7 3.85 Q-1.7 3.9 -1.8 3.9 L-1.95 3.85 Q-1.95 3.8 -1.9 3.65 -2.1 3.8 -2.0 3.95 -1.9 4.0 -1.7 4.15" fill="#979394" fill-rule="evenodd" stroke="none"/>
    <path d="M0.85 4.8 L0.7 4.8 0.65 4.75 Q0.65 4.75 0.55 4.75 0.55 4.85 0.6 4.85 L0.55 4.9 0.5 4.85 0.4 4.9 0.3 4.9 Q0.2 4.85 0.2 4.95 L0.1 4.9 0.1 4.95 0.0 4.8 Q-0.05 4.7 -0.2 4.7 L-0.25 4.85 -0.3 5.0 -0.25 5.05 -0.3 5.05 -0.3 5.05 Q-0.4 4.8 -0.55 4.8 L-0.4 4.7 Q-0.35 4.6 -0.4 4.5 -0.5 4.45 -0.5 4.55 -0.55 4.7 -0.65 4.65 -0.7 4.55 -0.75 4.55 L-0.75 4.65 Q-0.65 4.9 -0.55 4.8 -0.55 4.9 -0.45 5.0 L-0.4 5.05 -0.45 5.1 -0.55 5.1 -0.6 5.1 -0.65 4.95 Q-0.65 4.85 -0.75 4.9 L-0.7 5.0 -0.65 5.1 -0.65 5.05 Q-0.75 5.0 -0.8 5.0 L-0.85 5.05 -0.8 4.8 Q-0.75 4.6 -0.95 4.55 -0.95 4.6 -0.9 4.7 -0.85 4.75 -0.85 4.8 -0.95 4.85 -0.95 5.0 L-0.95 5.0 -1.0 5.0 -1.0 4.95 Q-1.0 4.7 -1.1 4.65 L-1.05 4.55 Q-0.9 4.45 -1.0 4.4 L-1.2 4.3 -1.15 4.2 -1.1 4.25 Q-0.95 4.3 -0.95 4.2 L-1.0 3.9 Q-0.85 4.0 -0.8 3.75 L-0.75 3.65 -0.75 3.9 Q-0.65 3.95 -0.65 3.8 -0.65 3.65 -0.55 3.7 -0.5 3.7 -0.5 3.55 -0.5 3.45 -0.4 3.5 -0.45 3.65 -0.35 3.9 -0.25 4.15 -0.2 3.8 L-0.15 4.05 -0.05 4.05 0.0 3.95 -0.05 3.85 0.05 3.9 0.1 3.95 Q0.1 4.1 0.25 4.05 L0.2 4.2 0.25 4.15 Q0.35 4.05 0.4 4.15 L0.35 4.2 0.4 4.3 0.3 4.3 Q0.2 4.2 0.1 4.25 0.05 4.25 0.0 4.35 -0.05 4.45 -0.05 4.5 0.0 4.6 0.1 4.55 0.15 4.4 0.2 4.45 L0.3 4.65 0.55 4.75 Q0.45 4.6 0.4 4.5 0.55 4.55 0.55 4.35 L0.55 4.3 0.6 4.35 Q0.55 4.45 0.7 4.45 0.85 4.45 0.9 4.5 L0.9 4.6 0.85 4.65 0.6 4.55 Q0.55 4.65 0.7 4.7 L0.85 4.8 M0.0 5.0 L-0.05 5.0 -0.15 4.95 -0.2 5.0 -0.2 4.95 Q-0.2 4.85 -0.05 4.9 -0.1 5.0 0.0 5.0 M-0.45 3.95 L-0.4 3.85 Q-0.4 3.8 -0.5 3.8 L-0.65 4.05 Q-0.7 4.2 -0.55 4.2 -0.6 4.1 -0.45 3.95" fill="#888581" fill-rule="evenodd" stroke="none"/>
    <path d="M0.95 0.0 L0.45 -0.6 -0.1 -1.15 -0.25 -1.3 Q-0.35 -1.4 -0.35 -1.5 L-0.35 -1.5 Q-0.35 -1.6 -0.45 -1.65 L-0.6 -1.65 -0.75 -1.55 Q-0.8 -1.45 -0.75 -1.35 -0.75 -1.2 -0.9 -0.95 L-1.15 -0.55 Q-1.25 -0.4 -1.4 -0.1 L-1.7 0.3 Q-1.9 0.55 -1.9 1.0 L-1.85 1.35 -1.85 1.7 -2.2 1.95 Q-2.4 2.1 -2.45 2.25 L-1.85 2.25 -1.95 2.5 -2.1 2.6 -2.25 2.75 Q-2.35 2.85 -2.4 2.85 L-2.45 3.1 -2.5 3.2 -2.55 3.35 -2.45 3.6 -2.5 3.65 -2.5 3.65 -2.45 3.7 -2.4 3.75 -2.4 3.8 -2.35 3.9 -2.4 3.95 -2.25 4.1 -2.2 4.1 Q-2.15 4.1 -2.15 4.15 -2.15 4.2 -2.05 4.3 L-2.0 4.3 Q-1.9 4.35 -1.9 4.4 L-1.9 4.45 -1.8 4.55 -1.65 4.65 Q-1.5 4.85 -1.4 4.85 L-1.35 4.8 -1.15 4.9 -1.15 4.9 -1.0 5.0 -0.95 5.0 -0.9 5.05 -0.85 5.05 -0.8 5.0 Q-0.75 5.0 -0.65 5.05 L-0.65 5.1 -0.6 5.1 -0.6 5.1 -0.55 5.1 -0.45 5.1 -0.4 5.05 -0.4 5.05 -0.3 5.05 -0.25 5.05 Q-0.2 5.05 -0.2 5.0 L-0.15 4.95 -0.05 5.0 0.0 5.0 0.1 5.0 0.1 4.95 0.1 4.9 0.2 4.95 Q0.2 5.05 0.3 5.0 L0.3 4.95 0.35 4.95 0.4 4.95 0.45 4.95 0.55 4.95 0.55 4.9 0.6 4.85 Q0.55 4.85 0.55 4.75 0.65 4.75 0.65 4.75 L0.7 4.8 0.85 4.8 0.85 4.9 0.95 4.8 0.9 4.8 0.95 4.75 1.05 4.7 1.15 4.65 1.2 4.55 1.4 4.35 1.45 4.15 1.45 4.1 1.4 4.05 1.35 4.0 1.3 3.85 1.35 3.75 1.3 3.65 1.3 3.45 Q1.3 3.2 1.35 3.1 1.35 2.9 1.5 2.8 L1.65 2.7 1.55 2.75 1.6 2.7 1.6 2.6 1.55 2.3 1.5 2.2 1.45 1.95 1.7 1.95 1.9 1.95 Q2.05 1.9 1.95 1.8 1.8 1.8 1.65 1.65 L1.4 1.5 1.35 1.0 1.35 0.65 Q1.3 0.4 1.2 0.25 1.15 0.15 0.95 0.0 M-0.5 2.2 L-0.5 2.15 -0.35 2.05 -0.35 2.05 -0.15 2.0 0.15 1.95 0.4 1.95 0.7 1.95 0.75 1.95 0.9 1.9 1.05 1.85 1.1 1.9 1.05 1.85 M-0.6 2.85 L-0.6 2.75 -0.55 2.55 -0.5 2.2 M-0.6 2.85 L-0.6 2.85 -0.5 3.15 -0.45 3.3 -0.4 3.45 -0.35 3.5 -0.3 3.6 -0.15 3.7 -0.05 3.8 -0.05 3.85 0.05 3.9 0.2 3.95 0.3 4.0 0.35 4.0 0.45 4.0 0.55 4.0 0.7 3.95 Q0.8 3.9 0.9 3.8 L1.0 3.65 1.0 3.6 1.1 3.35 1.1 3.25 1.15 2.8 1.15 2.7 1.15 2.2 1.1 1.9" fill="none" stroke="#000000" stroke-linecap="round" stroke-linejoin="round" stroke-opacity="0.4509804" stroke-width="0.1"/>
  </g>
</svg>
