<?xml version="1.0" encoding="UTF-8" standalone="no"?>
<svg xmlns:xlink="http://www.w3.org/1999/xlink" height="4.2px" width="3.35px" xmlns="http://www.w3.org/2000/svg">
  <g transform="matrix(1.0, 0.0, 0.0, 1.0, 1.95, 0.45)">
    <path d="M1.05 3.0 L1.0 3.1 0.85 3.4 0.8 3.35 Q0.75 3.25 0.75 3.15 L0.75 3.0 0.85 3.05 0.9 3.0 1.0 3.0 0.95 2.85 0.95 2.8 1.0 2.8 0.95 2.75 0.95 2.65 1.0 2.65 1.05 2.65 1.1 2.6 1.05 2.8 1.0 2.9 1.05 3.0 M0.35 3.35 L0.3 3.3 Q0.05 3.0 -0.15 2.95 L-0.2 2.9 Q-0.45 2.65 -0.65 2.7 -0.65 2.6 -0.55 2.6 L-0.6 2.55 -0.75 2.6 -0.8 2.6 -0.6 2.4 -0.65 2.4 -0.95 2.55 -1.2 2.6 -1.2 2.55 -1.05 2.45 -1.05 2.45 -1.3 2.45 Q-1.4 2.45 -1.45 2.3 -1.4 2.2 -1.35 2.2 L-1.7 1.7 Q-1.6 1.7 -1.5 1.6 L-1.6 1.5 Q-1.6 1.45 -1.65 1.4 L-1.65 1.3 -1.6 1.2 -1.5 1.05 -1.4 0.9 -1.35 0.85 -1.35 0.85 -1.25 0.75 -1.1 0.95 -1.15 1.0 -1.15 1.2 -1.4 1.4 -1.35 1.5 -1.4 1.65 -1.15 1.8 -1.15 1.85 -1.25 1.9 -1.3 2.0 Q-1.3 2.1 -1.05 2.25 -0.8 2.35 -0.7 2.35 L-0.6 2.3 -0.65 2.25 -0.65 2.15 -0.6 2.15 -0.55 2.2 Q-0.45 2.2 -0.45 2.0 L-0.15 2.0 -0.05 2.15 -0.2 2.1 -0.3 2.1 Q-0.4 2.1 -0.4 2.2 -0.4 2.35 -0.45 2.4 L-0.25 2.55 -0.2 2.6 Q-0.15 2.7 -0.05 2.7 L0.0 2.7 -0.05 2.75 -0.05 2.75 0.5 3.2 0.5 3.1 0.4 2.6 0.3 2.35 0.05 1.75 Q0.05 1.7 0.1 1.65 L0.1 1.55 0.2 1.7 0.15 1.85 0.2 1.9 0.25 1.85 0.3 1.8 0.5 2.55 Q0.65 2.95 0.65 3.15 L0.65 3.3 0.5 3.4 0.35 3.3 0.35 3.35 M-1.0 0.4 L-1.0 0.25 -0.9 0.2 -0.8 0.15 Q-0.75 0.15 -0.7 0.25 -0.65 0.3 -0.6 0.3 L-0.65 0.15 Q-0.5 0.25 -0.4 0.45 L-0.35 0.65 -0.6 0.4 -0.65 0.45 -0.8 0.6 -0.95 0.45 -1.0 0.4 M-0.3 -0.3 L0.05 -0.2 0.05 0.15 0.1 0.3 -0.1 0.05 -0.3 -0.3 M1.0 2.15 L0.95 1.95 1.05 1.75 1.1 1.65 1.1 1.7 1.15 1.95 1.1 2.05 1.05 2.1 1.0 2.15" fill="#2a334d" fill-rule="evenodd" stroke="none"/>
    <path d="M0.4 -0.05 L0.65 0.2 Q0.85 0.5 1.05 0.95 L1.25 1.8 1.3 2.4 1.2 2.7 1.05 3.0 1.0 2.9 1.05 2.8 1.1 2.6 1.2 2.5 1.2 2.3 1.15 2.25 1.15 2.2 1.1 2.05 1.15 1.95 1.1 1.7 1.1 1.65 1.05 1.55 1.0 1.45 0.85 1.3 0.9 1.25 0.8 0.8 0.65 0.55 Q0.45 0.2 0.4 -0.05 M0.85 3.4 L0.75 3.65 0.7 3.7 0.35 3.35 0.35 3.3 0.5 3.4 0.65 3.3 0.65 3.15 Q0.65 2.95 0.5 2.55 L0.3 1.8 0.25 1.85 0.2 1.9 0.15 1.85 0.2 1.7 0.1 1.55 0.1 1.5 -0.2 0.8 -0.25 0.85 -0.25 0.85 -0.3 0.85 -0.35 0.65 -0.4 0.45 Q-0.5 0.25 -0.65 0.15 L-0.6 0.3 Q-0.65 0.3 -0.7 0.25 -0.75 0.15 -0.8 0.15 L-0.9 0.2 -1.0 0.25 -1.0 0.1 Q-1.0 -0.3 -0.9 -0.4 L-0.3 -0.3 -0.1 0.05 0.1 0.3 0.25 0.45 0.3 0.55 Q0.5 0.85 0.6 1.25 L0.65 1.35 0.75 1.9 0.65 1.8 0.6 1.9 0.65 2.45 0.65 2.5 0.7 2.75 0.75 2.95 0.75 3.0 0.75 3.15 Q0.75 3.25 0.8 3.35 L0.85 3.4 M-0.15 2.95 L-0.55 2.85 -0.7 2.9 -1.0 2.95 -1.25 3.0 -1.4 3.0 -1.8 2.5 Q-1.85 2.35 -1.85 2.0 L-1.85 1.7 -1.75 1.45 -1.7 1.3 Q-1.65 1.1 -1.4 0.9 L-1.5 1.05 -1.6 1.2 -1.65 1.3 -1.65 1.4 Q-1.6 1.45 -1.6 1.5 L-1.5 1.6 Q-1.6 1.7 -1.7 1.7 L-1.35 2.2 Q-1.4 2.2 -1.45 2.3 -1.4 2.45 -1.3 2.45 L-1.05 2.45 -1.05 2.45 -1.2 2.55 -1.2 2.6 -0.95 2.55 -0.65 2.4 -0.6 2.4 -0.8 2.6 -0.75 2.6 -0.6 2.55 -0.55 2.6 Q-0.65 2.6 -0.65 2.7 -0.45 2.65 -0.2 2.9 L-0.15 2.95 M-0.2 2.1 Q-0.3 2.25 -0.3 2.4 L-0.25 2.55 -0.45 2.4 Q-0.4 2.35 -0.4 2.2 -0.4 2.1 -0.3 2.1 L-0.2 2.1" fill="#16191a" fill-rule="evenodd" stroke="none"/>
    <path d="M0.05 -0.2 L0.2 -0.15 0.2 0.0 0.1 0.2 0.25 0.4 0.25 0.45 0.1 0.3 0.05 0.15 0.05 -0.2 M-1.25 0.75 L-1.2 0.7 -1.05 0.85 Q-1.0 0.95 -1.0 1.15 L-1.0 1.2 -1.05 1.3 Q-1.1 1.4 -1.15 1.4 L-1.2 1.35 -1.25 1.5 -1.05 1.55 -1.0 1.65 -1.2 1.75 -1.15 1.8 -1.4 1.65 -1.35 1.5 -1.4 1.4 -1.15 1.2 -1.15 1.0 -1.1 0.95 -1.25 0.75 M-1.0 0.5 L-1.0 0.4 -0.95 0.45 -0.8 0.6 -0.65 0.45 -0.6 0.4 -0.35 0.65 -0.3 0.85 -0.25 0.85 -0.25 0.85 -0.2 0.8 0.1 1.5 0.1 1.55 0.1 1.65 Q0.05 1.7 0.05 1.75 L0.3 2.35 0.4 2.6 0.5 3.1 0.5 3.2 -0.05 2.75 -0.05 2.75 0.0 2.7 Q0.2 2.7 0.2 2.5 L0.2 2.45 Q0.2 2.3 0.1 2.2 L-0.05 2.15 -0.15 2.0 -0.45 2.0 Q-0.45 2.2 -0.55 2.2 L-0.6 2.15 -0.65 2.15 -0.65 2.25 -0.6 2.3 -0.7 2.35 Q-0.8 2.35 -1.05 2.25 -1.3 2.1 -1.3 2.0 L-1.25 1.9 -1.15 1.85 Q-1.05 1.9 -1.0 1.9 L-0.85 2.15 -0.8 2.1 -0.75 2.0 -0.6 2.0 -0.45 1.85 -0.35 1.85 -0.4 1.8 -0.4 1.8 -0.3 1.75 Q-0.25 1.75 -0.2 1.8 L-0.15 1.85 Q0.0 1.85 -0.05 1.75 L-0.15 1.7 -0.05 1.6 Q-0.25 1.25 -0.4 1.2 -0.3 1.1 -0.35 1.0 L-0.5 0.8 Q-0.9 0.75 -1.0 0.5 M0.65 1.35 L0.65 1.45 Q0.75 1.3 0.75 1.15 L0.75 0.9 Q0.75 0.85 0.8 0.8 L0.9 1.25 0.85 1.3 1.0 1.45 1.05 1.55 1.1 1.65 1.05 1.75 0.95 1.95 1.0 2.15 Q0.85 2.3 0.85 2.35 L0.85 2.5 0.95 2.65 0.95 2.75 1.0 2.8 0.95 2.8 0.95 2.85 1.0 3.0 0.9 3.0 0.85 3.05 0.75 3.0 0.75 2.95 0.7 2.75 0.65 2.5 0.65 2.45 0.6 1.9 0.65 1.8 0.75 1.9 0.65 1.35" fill="#303636" fill-rule="evenodd" stroke="none"/>
    <path d="M0.2 -0.15 Q0.3 -0.1 0.4 -0.05 0.45 0.2 0.65 0.55 L0.8 0.8 Q0.75 0.85 0.75 0.9 L0.75 1.15 Q0.75 1.3 0.65 1.45 L0.65 1.35 0.6 1.25 Q0.5 0.85 0.3 0.55 L0.25 0.45 0.25 0.4 0.1 0.2 0.2 0.0 0.2 -0.15 M-1.2 0.7 L-1.0 0.5 Q-0.9 0.75 -0.5 0.8 L-0.35 1.0 Q-0.3 1.1 -0.4 1.2 -0.25 1.25 -0.05 1.6 L-0.15 1.7 -0.05 1.75 Q0.0 1.85 -0.15 1.85 L-0.2 1.8 Q-0.25 1.75 -0.3 1.75 L-0.4 1.8 -0.4 1.8 -0.35 1.85 -0.45 1.85 -0.6 2.0 -0.75 2.0 -0.8 2.1 -0.85 2.15 -1.0 1.9 Q-1.05 1.9 -1.15 1.85 L-1.15 1.8 -1.2 1.75 -1.0 1.65 -1.05 1.55 -1.25 1.5 -1.2 1.35 -1.15 1.4 Q-1.1 1.4 -1.05 1.3 L-1.0 1.2 -1.0 1.15 Q-1.0 0.95 -1.05 0.85 L-1.2 0.7 M-0.8 1.1 L-0.9 1.2 -0.95 1.3 -0.9 1.45 -0.95 1.5 -0.9 1.6 -0.8 1.75 -0.65 1.7 -0.55 1.7 -0.4 1.6 -0.3 1.55 -0.4 1.45 -0.45 1.5 -0.5 1.35 -0.55 1.25 -0.65 1.1 -0.6 1.0 -0.85 0.75 -0.85 0.85 -0.8 1.1" fill="#4a3926" fill-rule="evenodd" stroke="none"/>
    <path d="M-0.8 1.1 L-0.85 0.85 -0.85 0.75 -0.6 1.0 -0.65 1.1 -0.55 1.25 -0.5 1.35 -0.45 1.5 -0.4 1.45 -0.3 1.55 -0.4 1.6 -0.55 1.7 -0.65 1.7 -0.8 1.75 -0.9 1.6 -0.95 1.5 -0.9 1.45 -0.95 1.3 -0.9 1.2 -0.8 1.1" fill="#6b5a3a" fill-rule="evenodd" stroke="none"/>
    <path d="M0.05 -0.2 L0.2 -0.15 Q0.3 -0.1 0.4 -0.05 L0.65 0.2 Q0.85 0.5 1.05 0.95 L1.25 1.8 1.3 2.4 1.2 2.7 1.05 3.0 1.0 3.1 0.85 3.4 0.75 3.65 0.7 3.7 0.35 3.35 0.3 3.3 Q0.05 3.0 -0.15 2.95 L-0.55 2.85 -0.7 2.9 -1.0 2.95 -1.25 3.0 -1.4 3.0 -1.8 2.5 Q-1.85 2.35 -1.85 2.0 L-1.85 1.7 -1.75 1.45 -1.7 1.3 Q-1.65 1.1 -1.4 0.9 L-1.35 0.85 -1.35 0.85 -1.25 0.75 -1.2 0.7 -1.0 0.5 -1.0 0.4 -1.0 0.25 -1.0 0.1 Q-1.0 -0.3 -0.9 -0.4 L-0.3 -0.3 0.05 -0.2 M0.95 2.65 L0.85 2.5 0.85 2.35 Q0.85 2.3 1.0 2.15 L1.05 2.1 1.1 2.05 1.15 2.2 1.15 2.25 1.2 2.3 1.2 2.5 1.1 2.6 1.05 2.65 1.0 2.65 0.95 2.65 M0.0 2.7 Q0.2 2.7 0.2 2.5 L0.2 2.45 Q0.2 2.3 0.1 2.2 L-0.05 2.15 -0.2 2.1 Q-0.3 2.25 -0.3 2.4 L-0.25 2.55 -0.2 2.6 Q-0.15 2.7 -0.05 2.7 L0.0 2.7 Z" fill="none" stroke="#000000" stroke-linecap="round" stroke-linejoin="round" stroke-opacity="0.4509804" stroke-width="0.1"/>
  </g>
</svg>
