<?xml version="1.0" encoding="UTF-8" standalone="no"?>
<svg xmlns:xlink="http://www.w3.org/1999/xlink" height="2.7px" width="3.05px" xmlns="http://www.w3.org/2000/svg">
  <g transform="matrix(1.0, 0.0, 0.0, 1.0, 1.55, 1.35)">
    <path d="M1.0 -1.25 L0.95 -0.9 Q0.95 -0.5 1.15 -0.1 L1.15 -0.45 Q1.15 -0.65 1.15 -0.7 L1.35 -0.95 1.3 -0.75 1.25 -0.6 1.3 -0.1 1.35 0.35 1.35 0.55 1.4 0.3 1.4 -0.3 1.5 -1.0 1.5 -0.75 1.5 0.3 Q1.5 0.6 1.25 0.85 L1.25 0.95 1.2 1.1 Q1.15 1.35 0.75 1.35 0.4 1.35 0.2 1.15 0.05 1.0 0.05 0.9 0.05 0.7 0.25 0.5 L0.25 0.15 Q0.25 -0.1 0.5 -1.15 L0.5 -1.15 0.55 -0.95 0.55 -0.8 0.45 -0.35 Q0.35 0.0 0.35 0.2 L0.4 0.4 0.45 0.3 0.4 0.1 0.5 -0.2 0.6 -0.35 Q0.6 -0.5 0.6 -0.6 L0.6 -0.85 Q0.55 -0.9 0.55 -0.95 0.7 -0.95 0.7 -0.8 L0.7 -0.55 0.75 -0.5 0.8 -0.35 0.75 -0.25 0.8 -0.2 0.8 -0.25 0.8 -0.45 0.85 -0.8 0.85 -0.9 0.85 -1.15 Q0.85 -1.25 0.95 -1.3 1.0 -1.4 1.0 -1.25 M0.8 -0.15 L0.8 -0.15 0.85 -0.1 0.8 -0.15 M1.0 -0.1 L1.1 0.4 1.1 0.45 1.15 0.25 1.0 -0.15 Q0.95 -0.3 0.9 -0.4 L1.0 -0.1 M1.15 0.65 L1.2 0.6 1.15 0.65 M0.95 0.35 L0.9 0.15 0.9 0.3 0.95 0.35 M0.75 0.2 L0.7 -0.05 0.6 0.15 0.65 0.2 0.75 0.25 0.75 0.2 M0.7 1.0 Q0.9 1.0 0.9 0.75 0.9 0.55 0.7 0.55 0.6 0.55 0.5 0.65 L0.5 0.8 Q0.55 1.0 0.7 1.0 M-1.1 -0.95 Q-1.1 -0.75 -0.95 -0.6 -0.8 -0.45 -0.8 -0.35 L-0.85 -0.2 -0.8 -0.2 -0.8 -0.1 -0.85 0.0 -0.95 0.1 -0.95 0.1 Q-0.6 0.25 -0.45 0.45 -0.3 0.6 -0.3 0.8 -0.3 0.95 -0.45 1.1 -0.65 1.25 -0.95 1.25 -1.35 1.25 -1.45 0.9 L-1.55 0.5 Q-1.55 0.35 -1.35 0.2 L-1.2 0.0 Q-1.2 -0.25 -1.3 -0.4 L-1.45 -0.55 -1.4 -0.7 -1.4 -0.65 Q-1.4 -0.55 -1.3 -0.5 -1.15 -0.4 -1.1 -0.3 L-1.05 -0.15 Q-1.0 -0.25 -1.0 -0.3 -1.0 -0.5 -1.1 -0.6 -1.2 -0.7 -1.2 -0.95 L-1.2 -1.05 Q-1.15 -1.1 -1.1 -1.15 L-1.05 -1.1 -1.1 -0.95 M-0.45 0.9 Q-0.4 0.8 -0.4 0.7 -0.4 0.45 -0.8 0.3 -1.0 0.2 -1.2 0.4 -1.35 0.55 -1.35 0.65 L-1.35 0.75 -1.3 0.85 -1.15 1.0 Q-1.0 1.1 -0.85 1.1 -0.6 1.1 -0.45 0.9" fill="#0007cb" fill-rule="evenodd" stroke="none"/>
    <path d="M0.7 1.0 Q0.55 1.0 0.5 0.8 L0.5 0.65 Q0.6 0.55 0.7 0.55 0.9 0.55 0.9 0.75 0.9 1.0 0.7 1.0 M-0.45 0.9 Q-0.6 1.1 -0.85 1.1 -1.0 1.1 -1.15 1.0 L-1.3 0.85 -1.35 0.75 -1.35 0.65 Q-1.35 0.55 -1.2 0.4 -1.0 0.2 -0.8 0.3 -0.4 0.45 -0.4 0.7 -0.4 0.8 -0.45 0.9" fill="#8200ff" fill-rule="evenodd" stroke="none"/>
  </g>
</svg>
