<?xml version="1.0" encoding="UTF-8" standalone="no"?>
<svg xmlns:xlink="http://www.w3.org/1999/xlink" height="129.1px" width="108.0px" xmlns="http://www.w3.org/2000/svg">
  <g transform="matrix(1.0, 0.0, 0.0, 1.0, 44.5, 68.25)">
    <path d="M39.75 -63.2 L40.15 -63.4 39.95 -63.25 39.75 -63.15 39.55 -63.05 39.3 -63.0 39.1 -62.85 38.45 -62.5 38.3 -62.3 38.15 -62.1 37.9 -62.05 37.65 -62.0 37.5 -61.9 37.65 -62.0 37.9 -62.05 38.15 -62.1 38.3 -62.3 38.45 -62.5 39.1 -62.85 39.3 -63.05 39.55 -63.05 39.75 -63.2 M36.4 -61.25 L36.15 -61.25 35.9 -61.15 35.65 -61.15 35.5 -61.0 35.65 -61.15 35.9 -61.15 36.15 -61.25 36.4 -61.3 36.6 -61.4 36.75 -61.55 37.35 -61.8 37.0 -61.65 36.75 -61.55 36.6 -61.4 36.4 -61.25 M34.25 -60.25 L34.4 -60.4 34.65 -60.45 34.85 -60.6 35.05 -60.8 35.3 -60.85 35.45 -60.95 35.3 -60.85 35.05 -60.8 34.85 -60.6 34.65 -60.45 34.45 -60.4 34.25 -60.2 34.0 -60.2 33.85 -60.0 33.7 -59.9 33.85 -60.0 34.0 -60.2 34.25 -60.25 M33.0 -59.5 L32.5 -59.45 32.3 -59.3 32.1 -59.25 32.5 -59.45 33.0 -59.5 33.6 -59.85 33.0 -59.5 M40.15 -63.4 L40.25 -63.65 40.5 -63.75 40.8 -64.1 41.05 -64.15 41.45 -64.85 41.65 -65.0 41.45 -64.85 41.1 -64.15 40.85 -64.1 40.5 -63.75 40.3 -63.65 40.15 -63.4 M58.7 -50.15 L58.65 -49.95 58.45 -49.75 58.45 -49.8 58.65 -49.95 58.7 -50.15 58.9 -50.65 59.1 -50.8 59.25 -51.0 59.45 -51.15 59.7 -51.15 60.15 -51.3 59.7 -51.15 59.45 -51.15 59.25 -51.0 59.1 -50.8 58.9 -50.65 58.7 -50.15 M44.15 -66.7 L43.85 -66.5 43.6 -66.4 43.4 -66.3 43.6 -66.4 43.85 -66.5 44.15 -66.7 M42.5 -65.9 L42.35 -65.7 42.5 -65.9 42.75 -65.95 42.95 -66.1 43.2 -66.15 43.4 -66.3 43.2 -66.15 42.95 -66.1 42.75 -65.95 42.5 -65.9 M45.4 -67.65 L45.6 -68.05 45.75 -68.25 45.6 -68.05 45.4 -67.65 M44.95 -67.0 L44.7 -66.95 44.95 -67.0 45.1 -67.15 45.2 -67.4 45.3 -67.55 45.1 -67.15 44.95 -67.0 M53.95 -40.95 L54.0 -41.2 54.0 -41.2 53.95 -40.95 53.95 -40.7 53.8 -40.5 53.75 -40.05 53.65 -39.8 53.45 -39.65 53.4 -39.4 53.4 -39.1 53.35 -38.9 53.15 -38.7 53.05 -38.5 52.75 -38.1 52.55 -37.95 52.35 -37.75 52.25 -37.55 52.05 -37.4 52.05 -37.15 51.95 -36.9 51.95 -36.65 52.0 -36.4 51.95 -36.2 52.0 -36.4 51.95 -36.65 51.95 -36.9 52.05 -37.4 52.35 -37.8 52.55 -37.95 53.05 -38.5 53.1 -38.7 53.3 -38.9 53.4 -39.1 53.4 -39.4 53.45 -39.65 53.65 -39.8 53.75 -40.05 53.8 -40.5 53.9 -40.75 53.95 -40.95 M54.4 -42.05 L54.25 -41.9 54.1 -41.7 54.0 -41.45 54.1 -41.7 54.25 -41.9 54.4 -42.05 M54.8 -42.95 L54.8 -42.95 54.7 -42.7 54.65 -42.5 54.5 -42.3 54.65 -42.5 54.7 -42.7 54.8 -42.95 M54.95 -44.35 L54.85 -44.15 54.9 -43.9 54.8 -43.65 54.8 -43.65 54.9 -43.9 54.85 -44.15 54.95 -44.35 54.95 -44.35 M55.35 -45.5 L55.25 -45.25 54.95 -44.9 54.95 -44.65 54.9 -44.9 55.25 -45.25 55.35 -45.5 M56.3 -46.55 L56.1 -46.4 55.7 -46.15 55.65 -45.9 55.5 -45.7 55.65 -45.9 55.7 -46.15 56.3 -46.55 56.45 -46.75 56.75 -47.1 56.85 -47.35 56.75 -47.1 56.3 -46.55 M30.4 -57.85 L30.55 -58.05 30.4 -57.85 30.35 -57.6 29.95 -57.3 29.75 -57.15 29.7 -56.9 29.75 -57.15 29.9 -57.35 30.35 -57.6 30.4 -57.85 M31.65 -59.0 L31.85 -59.15 32.05 -59.2 31.85 -59.15 31.65 -59.0 31.45 -58.85 31.3 -58.65 31.05 -58.6 30.85 -58.45 30.7 -58.25 30.85 -58.45 31.05 -58.6 31.3 -58.7 31.45 -58.85 31.65 -59.0 M56.85 -47.35 L57.0 -47.55 57.15 -47.75 57.3 -47.9 57.05 -47.55 56.85 -47.35 M57.7 -48.85 L57.6 -48.6 57.55 -48.35 57.35 -48.2 57.35 -48.2 57.55 -48.35 57.6 -48.6 57.7 -48.85 57.85 -49.0 57.7 -48.85 M58.0 -49.2 L58.2 -49.4 58.4 -49.5 58.0 -49.2 M29.7 -56.9 L29.65 -56.65 29.55 -56.45 29.35 -56.3 29.2 -55.8 28.95 -55.45 28.65 -54.75 28.7 -54.5 28.55 -54.3 28.55 -53.55 28.45 -53.35 28.3 -52.85 28.25 -52.65 28.0 -52.2 27.9 -51.95 27.9 -51.7 27.85 -51.5 27.7 -51.3 27.5 -51.1 27.35 -50.65 27.0 -50.3 26.9 -50.1 26.9 -49.85 26.7 -49.4 26.6 -49.2 26.3 -48.8 26.2 -48.55 26.1 -48.35 26.05 -47.85 26.05 -47.6 26.0 -47.35 25.8 -46.95 25.75 -46.45 25.55 -46.0 25.4 -45.8 25.25 -45.3 25.05 -45.15 24.95 -44.95 24.9 -44.7 24.5 -44.4 24.25 -44.3 24.05 -44.2 23.9 -43.95 23.4 -43.95 23.15 -43.8 22.9 -43.8 22.65 -43.7 22.5 -43.55 22.3 -43.35 22.05 -43.4 21.8 -43.3 21.55 -43.3 21.3 -43.3 21.05 -43.25 20.9 -43.1 20.65 -43.0 20.4 -43.0 20.2 -42.8 19.95 -42.75 19.75 -42.65 19.5 -42.6 19.3 -42.45 19.1 -42.35 18.8 -42.0 18.55 -41.85 18.45 -41.65 18.25 -41.5 18.15 -41.3 17.95 -41.15 17.7 -41.05 17.4 -40.4 17.55 -40.15 17.45 -39.9 17.55 -39.65 17.4 -39.45 17.35 -39.2 17.25 -39.0 17.2 -38.75 17.2 -38.5 17.4 -37.75 17.35 -37.55 17.55 -37.4 17.85 -37.0 17.95 -36.8 18.1 -36.6 18.05 -36.3 18.05 -36.1 18.3 -35.65 18.3 -35.45 19.65 -36.75 20.45 -38.5 21.0 -39.3 21.65 -40.05 22.05 -40.3 23.0 -41.4 24.75 -42.3 25.2 -42.5 25.5 -42.9 25.95 -43.1 26.4 -43.25 26.8 -43.5 27.4 -44.3 28.3 -44.65 28.7 -44.9 29.2 -45.05 29.45 -45.05 29.5 -45.1 29.7 -45.25 30.2 -45.35 30.4 -45.45 30.65 -45.5 30.85 -45.65 31.1 -45.6 31.6 -45.4 31.85 -45.5 32.05 -45.45 32.05 -45.45 31.85 -45.45 31.6 -45.4 31.35 -45.45 31.1 -45.6 30.85 -45.65 30.65 -45.5 30.4 -45.45 30.2 -45.3 29.7 -45.25 29.5 -45.1 29.45 -45.05 29.7 -45.05 29.7 -45.0 29.4 -45.0 29.35 -44.9 29.1 -44.9 28.95 -44.65 28.7 -44.6 28.5 -44.5 28.15 -44.1 28.05 -43.85 27.8 -43.8 27.7 -43.55 27.65 -43.3 27.5 -43.1 27.5 -42.85 27.3 -42.7 26.85 -42.1 26.85 -41.85 26.7 -41.65 26.5 -41.45 26.4 -41.25 26.15 -41.1 26.15 -40.85 25.95 -40.4 25.5 -40.1 25.35 -39.65 25.2 -39.45 25.0 -39.3 24.85 -39.15 24.6 -39.0 24.4 -38.3 24.2 -38.1 24.15 -37.9 24.05 -37.65 24.0 -37.4 23.95 -37.15 23.7 -36.75 23.3 -36.45 23.05 -36.0 22.8 -35.9 22.65 -35.75 22.55 -35.5 22.2 -35.15 22.0 -35.05 21.8 -34.9 21.65 -34.65 21.45 -34.55 21.3 -34.3 21.2 -34.1 21.15 -33.85 21.05 -33.65 20.65 -33.35 20.55 -33.1 20.45 -32.85 20.45 -32.8 21.0 -33.25 21.25 -33.3 21.5 -33.4 21.7 -33.5 21.85 -33.7 22.3 -33.95 22.45 -34.1 22.7 -34.2 22.9 -34.35 23.35 -34.5 23.55 -34.65 23.75 -34.75 23.95 -34.8 24.0 -34.8 24.25 -34.75 24.45 -34.85 24.7 -34.9 24.95 -34.85 25.2 -34.95 25.45 -34.95 25.85 -35.25 26.05 -35.35 26.3 -35.4 26.55 -35.4 26.7 -35.65 26.9 -35.75 27.4 -35.85 27.65 -35.85 27.85 -36.05 28.1 -36.0 28.3 -36.1 28.55 -36.1 28.75 -36.2 29.0 -36.35 29.25 -36.25 29.5 -36.35 29.7 -36.35 29.5 -36.35 29.25 -36.25 29.0 -36.3 28.75 -36.2 28.55 -36.05 28.3 -36.1 28.1 -36.0 27.85 -36.05 27.65 -35.85 27.4 -35.85 26.9 -35.75 26.7 -35.6 26.55 -35.4 26.3 -35.4 26.05 -35.35 25.85 -35.2 25.45 -34.95 25.2 -34.9 24.95 -34.85 24.7 -34.9 24.45 -34.85 24.25 -34.75 24.0 -34.8 23.75 -34.75 23.55 -34.6 23.35 -34.45 22.9 -34.35 22.7 -34.15 22.45 -34.1 22.3 -33.95 21.85 -33.7 21.7 -33.5 21.5 -33.35 21.25 -33.25 21.0 -33.25 20.65 -32.9 20.45 -32.75 20.4 -32.6 20.25 -32.4 20.1 -32.25 20.05 -32.0 19.95 -31.8 19.8 -31.6 19.7 -31.4 19.55 -30.9 19.5 -30.7 19.35 -30.5 19.1 -30.35 19.1 -30.1 18.9 -29.95 18.75 -29.75 18.55 -29.6 18.35 -29.45 18.1 -29.3 17.9 -28.9 17.65 -28.8 17.45 -28.6 17.35 -28.35 17.15 -28.2 17.05 -27.95 16.8 -27.9 16.55 -27.9 16.3 -27.85 16.05 -27.75 15.8 -27.7 15.35 -27.6 15.1 -27.5 14.85 -27.55 14.6 -27.45 14.35 -27.45 14.2 -27.25 13.95 -27.15 13.8 -27.0 13.25 -26.5 13.0 -26.4 13.0 -26.15 13.2 -26.0 13.35 -25.8 13.35 -25.55 13.3 -25.25 13.35 -25.05 13.4 -24.8 13.45 -24.55 13.55 -24.35 13.7 -24.1 13.6 -23.85 13.55 -23.4 13.65 -23.15 13.55 -22.9 13.65 -22.65 13.65 -22.6 13.95 -22.45 14.2 -22.45 14.45 -22.55 14.95 -22.55 15.2 -22.65 15.45 -22.45 15.95 -22.65 16.15 -22.65 16.15 -22.65 15.95 -22.6 15.45 -22.45 15.2 -22.6 14.95 -22.55 14.45 -22.55 14.2 -22.45 13.95 -22.45 13.65 -22.6 13.7 -22.45 13.75 -22.2 13.75 -21.95 13.8 -21.7 13.85 -21.25 13.95 -21.0 14.05 -20.55 13.95 -21.0 13.85 -21.25 13.8 -21.7 13.7 -21.95 13.7 -22.45 13.65 -22.6 13.5 -22.65 12.75 -22.5 12.5 -22.6 12.3 -22.6 12.5 -22.65 12.75 -22.5 13.5 -22.65 13.6 -22.6 13.5 -22.9 13.65 -23.15 13.5 -23.4 13.6 -23.85 13.7 -24.1 13.55 -24.35 13.45 -24.55 13.35 -24.8 13.35 -25.05 13.3 -25.25 13.35 -25.55 13.3 -25.8 13.2 -26.0 13.0 -26.15 13.0 -26.35 12.9 -26.2 12.75 -26.0 12.3 -25.75 12.15 -25.6 11.85 -25.15 11.5 -24.75 11.0 -24.75 10.8 -24.6 10.55 -24.65 10.3 -24.55 10.05 -24.6 9.6 -24.5 9.1 -24.5 8.9 -24.35 8.7 -24.3 8.45 -24.15 8.25 -24.1 8.4 -23.95 8.65 -24.0 9.3 -23.6 9.55 -23.55 9.8 -23.6 10.2 -23.3 11.1 -22.85 11.3 -22.8 11.55 -22.8 11.75 -22.6 12.0 -22.5 12.15 -22.55 12.0 -22.5 11.75 -22.6 11.55 -22.75 11.05 -22.85 10.2 -23.25 9.8 -23.6 9.5 -23.55 9.3 -23.55 8.65 -23.95 8.4 -23.9 8.2 -24.1 8.0 -24.0 7.3 -23.9 7.05 -24.0 6.8 -23.9 6.55 -23.9 6.3 -23.85 6.1 -23.7 5.65 -23.55 5.15 -23.6 4.9 -23.6 4.65 -23.5 4.45 -23.45 3.9 -23.5 3.45 -23.45 3.05 -23.2 2.8 -23.05 2.55 -23.05 2.3 -23.05 2.1 -22.95 1.6 -22.95 1.35 -23.05 0.85 -23.0 0.65 -22.9 -0.05 -22.65 -0.55 -22.85 -0.8 -22.75 -1.25 -22.75 -1.5 -22.8 -1.75 -22.75 -2.0 -22.85 -2.15 -22.85 -0.65 -22.05 0.25 -21.75 1.25 -21.65 1.7 -21.45 3.6 -21.15 4.1 -21.25 5.5 -20.95 6.0 -21.1 7.85 -20.65 8.7 -20.2 10.55 -19.7 11.0 -19.6 12.4 -19.15 12.85 -19.25 13.85 -19.1 13.85 -19.15 14.0 -19.35 14.1 -19.6 14.2 -19.8 14.1 -20.45 14.25 -19.8 14.1 -19.6 14.0 -19.35 13.9 -19.15 13.9 -19.1 14.3 -19.15 14.8 -19.1 15.25 -19.15 16.2 -19.05 16.65 -18.9 17.5 -18.4 17.75 -17.95 18.1 -17.6 18.25 -17.15 18.35 -16.15 18.6 -15.8 18.6 -15.75 18.3 -16.15 18.2 -17.1 18.05 -17.55 17.75 -17.95 17.5 -18.35 16.65 -18.85 16.2 -19.0 15.25 -19.1 14.8 -19.05 14.3 -19.1 13.85 -19.05 13.85 -18.65 13.8 -18.4 13.85 -18.15 13.85 -17.9 13.8 -17.65 13.65 -17.45 13.6 -17.2 13.55 -16.95 13.35 -16.8 13.55 -16.1 13.45 -15.85 13.4 -15.1 13.3 -14.9 13.35 -14.4 13.15 -14.2 13.15 -13.95 13.05 -13.7 13.05 -13.2 12.85 -13.0 12.8 -12.8 12.9 -12.3 12.8 -12.05 12.8 -11.8 12.75 -11.55 12.65 -11.35 12.6 -11.1 12.5 -10.85 12.4 -10.65 12.4 -10.4 12.25 -10.2 12.2 -9.95 12.15 -9.75 12.1 -9.5 12.0 -9.3 11.8 -8.85 11.75 -8.35 12.0 -7.65 11.95 -7.25 12.05 -7.25 12.55 -7.3 12.7 -7.25 13.1 -7.5 13.45 -7.85 13.95 -8.0 14.75 -8.5 15.15 -8.8 16.45 -9.35 16.9 -9.6 17.4 -9.6 17.85 -9.7 18.3 -9.9 18.75 -10.0 19.9 -11.6 20.8 -11.9 20.8 -11.9 19.9 -11.55 19.65 -11.15 18.8 -10.0 17.85 -9.65 17.4 -9.55 16.9 -9.55 16.5 -9.3 15.6 -8.95 15.15 -8.75 14.8 -8.45 13.95 -7.95 13.5 -7.8 13.15 -7.45 12.8 -7.2 13.5 -7.05 13.95 -7.1 14.4 -6.9 16.35 -7.0 17.2 -7.45 18.2 -7.6 18.65 -7.8 19.1 -7.75 20.05 -7.9 20.9 -8.45 21.25 -8.75 21.65 -9.0 22.25 -9.75 22.75 -9.9 23.25 -9.95 25.65 -9.45 26.0 -9.15 26.45 -8.95 26.8 -8.6 27.25 -8.45 27.6 -8.15 28.15 -7.3 28.8 -6.55 29.6 -6.05 30.05 -5.9 30.45 -5.65 30.9 -5.05 31.2 -5.05 31.45 -5.05 31.65 -5.0 31.9 -5.0 32.15 -4.9 32.35 -4.75 32.55 -4.55 32.7 -4.5 33.4 -4.6 33.75 -4.45 33.95 -4.55 34.2 -4.45 34.2 -4.45 33.95 -4.55 33.8 -4.45 33.85 -4.4 35.05 -4.2 35.3 -4.15 35.45 -3.95 35.95 -3.8 36.2 -3.8 36.4 -3.65 36.6 -3.55 37.0 -3.25 37.5 -3.15 37.8 -2.75 38.0 -2.7 38.2 -2.55 38.45 -2.5 38.65 -2.4 38.85 -2.25 38.9 -2.25 39.05 -2.55 39.1 -3.0 39.05 -3.5 39.25 -3.95 39.35 -4.9 39.65 -5.85 39.95 -6.2 40.2 -6.6 40.55 -6.95 40.8 -7.35 40.9 -7.85 41.15 -8.25 41.55 -8.55 41.8 -8.95 42.15 -9.3 42.55 -9.5 42.35 -10.25 42.45 -10.45 42.5 -10.7 42.65 -10.9 42.7 -11.15 42.85 -11.35 42.9 -11.6 42.95 -11.85 43.2 -12.25 43.25 -12.5 43.25 -12.75 43.4 -12.95 43.55 -13.15 43.6 -13.4 43.5 -13.65 43.5 -13.9 43.6 -14.35 43.6 -14.6 43.75 -14.8 43.95 -15.0 44.05 -15.2 44.45 -15.55 44.55 -15.8 44.65 -16.0 44.7 -16.25 45.2 -17.15 45.3 -17.35 45.4 -17.55 45.7 -17.95 46.2 -18.05 46.35 -18.3 46.8 -18.5 47.0 -18.95 47.2 -19.1 47.95 -19.25 48.2 -19.3 48.45 -19.4 48.6 -19.55 48.8 -19.7 49.05 -19.75 49.2 -20.0 49.25 -20.25 49.6 -20.6 49.8 -21.0 49.75 -21.55 49.8 -22.05 49.95 -22.25 49.95 -22.5 50.2 -22.95 50.2 -23.2 50.25 -23.45 50.55 -23.85 50.7 -24.0 50.85 -24.2 51.25 -24.5 51.25 -25.05 51.4 -25.25 51.55 -25.45 51.6 -25.7 51.6 -25.9 51.7 -26.15 51.75 -26.4 51.75 -26.65 52.0 -27.1 52.0 -27.3 52.15 -28.05 52.1 -28.2 52.2 -28.05 52.0 -27.3 52.0 -27.05 51.75 -26.65 51.75 -26.15 51.6 -25.9 51.6 -25.7 51.55 -25.45 51.4 -25.25 51.25 -25.0 51.3 -24.75 51.25 -24.5 50.85 -24.15 50.75 -23.95 50.55 -23.8 50.25 -23.45 50.2 -23.2 50.2 -22.95 50.0 -22.5 50.0 -22.25 49.8 -22.05 49.8 -21.55 49.85 -21.0 49.6 -20.6 49.25 -20.2 49.2 -19.95 49.1 -19.75 48.8 -19.7 48.6 -19.55 48.45 -19.4 48.25 -19.3 47.95 -19.25 47.2 -19.05 47.0 -18.95 46.8 -18.5 46.35 -18.25 46.2 -18.05 45.7 -17.95 45.45 -17.55 45.35 -17.3 45.2 -17.1 44.75 -16.25 44.65 -16.0 44.55 -15.8 44.45 -15.55 44.1 -15.2 44.0 -14.95 43.75 -14.8 43.6 -14.6 43.65 -14.35 43.6 -14.1 43.55 -13.9 43.55 -13.65 43.65 -13.4 43.55 -13.15 43.4 -12.95 43.3 -12.75 43.25 -12.5 43.2 -12.25 43.0 -11.8 42.95 -11.55 42.85 -11.35 42.7 -11.15 42.65 -10.9 42.55 -10.7 42.5 -10.45 42.4 -10.25 42.6 -9.55 43.0 -9.8 43.3 -10.15 44.2 -10.6 44.6 -10.85 44.85 -11.25 44.9 -11.25 44.6 -10.8 44.2 -10.55 43.35 -10.15 43.0 -9.75 42.6 -9.5 41.85 -8.95 41.6 -8.5 41.2 -8.2 40.9 -7.8 40.85 -7.35 40.55 -6.95 40.25 -6.6 40.0 -6.2 39.7 -5.85 39.4 -4.9 39.3 -3.9 39.1 -3.5 39.1 -2.5 38.95 -2.2 39.1 -2.2 39.2 -1.95 39.5 -1.95 39.7 -1.9 40.6 -1.45 40.85 -1.4 41.1 -1.4 41.55 -1.3 41.8 -1.3 42.05 -1.25 42.3 -1.3 42.5 -1.15 42.75 -1.2 43.05 -1.25 43.95 -1.0 44.15 -0.8 44.35 -0.7 44.6 -0.7 44.8 -0.55 45.05 -0.55 45.25 -0.4 45.5 -0.4 45.75 -0.3 45.95 -0.3 46.1 -0.05 46.3 0.1 47.05 0.25 47.25 0.4 47.5 0.45 47.65 0.65 47.5 0.45 47.2 0.4 47.0 0.3 46.55 0.15 46.3 0.1 46.1 -0.05 45.95 -0.25 45.7 -0.3 45.5 -0.4 45.25 -0.4 45.05 -0.55 44.8 -0.55 44.6 -0.7 44.35 -0.7 44.1 -0.8 43.95 -0.95 43.05 -1.25 42.75 -1.2 42.5 -1.15 42.3 -1.3 42.05 -1.2 41.8 -1.3 41.55 -1.3 41.1 -1.4 40.85 -1.4 40.6 -1.45 39.7 -1.9 39.45 -1.95 39.2 -1.9 39.1 -2.15 38.95 -2.2 38.9 -2.05 38.75 -1.6 38.5 -1.2 38.0 -0.65 38.4 -0.55 38.8 -0.2 39.25 -0.05 39.6 0.25 40.05 0.5 40.3 0.9 40.65 1.2 41.1 1.4 41.5 1.7 41.65 1.75 41.75 1.75 42.2 2.0 42.4 2.1 42.6 2.15 42.9 2.15 43.05 2.3 43.25 2.45 43.3 2.5 43.7 2.7 44.15 2.7 45.95 3.45 46.3 3.75 46.95 4.55 47.2 4.95 47.15 4.95 46.3 3.8 45.9 3.5 44.15 2.75 43.65 2.7 43.35 2.55 43.55 2.85 44.25 3.1 44.4 3.35 44.65 3.45 44.7 3.7 44.9 3.85 45.3 4.05 45.55 4.1 45.8 4.2 45.95 4.4 46.15 4.5 46.35 4.7 46.55 4.75 46.75 4.9 46.35 4.7 46.15 4.55 45.95 4.45 45.8 4.2 45.55 4.1 45.3 4.1 45.1 3.95 44.9 3.85 44.7 3.7 44.6 3.45 44.4 3.35 44.25 3.15 43.8 2.95 43.55 2.9 43.3 2.55 42.8 2.3 42.3 2.2 41.6 1.8 41.5 1.85 41.3 1.7 40.8 1.65 40.35 1.5 40.15 1.35 39.9 1.3 39.65 1.2 39.45 1.05 39.2 1.1 38.95 1.2 38.7 1.15 38.25 0.95 37.5 0.95 37.25 0.85 37.0 0.8 36.85 0.65 36.55 0.9 36.1 1.1 35.6 1.1 35.1 1.15 34.65 1.3 34.2 1.35 33.7 1.3 32.3 1.6 31.9 1.9 30.5 2.3 30.1 2.5 29.3 3.05 28.8 3.15 28.35 3.1 27.45 3.55 27.0 3.5 26.1 3.9 25.65 4.0 24.8 4.5 24.35 4.65 23.95 4.9 23.6 5.2 22.8 5.75 21.5 6.25 21.65 6.4 21.8 6.55 22.05 7.0 22.3 6.95 22.75 7.15 23.0 7.15 23.15 7.35 23.4 7.35 23.85 7.5 24.1 7.45 24.35 7.55 24.6 7.55 24.8 7.5 25.05 7.5 25.3 7.4 25.7 7.1 25.95 7.1 26.4 7.05 26.65 7.1 26.9 7.1 27.15 7.05 27.35 6.9 27.6 6.85 27.8 6.7 28.0 6.55 28.75 6.4 28.95 6.3 29.2 6.25 29.7 6.25 29.9 6.1 30.4 6.1 30.6 6.15 30.9 6.15 31.3 6.4 31.55 6.4 31.75 6.55 32.0 6.6 32.4 6.9 32.9 7.0 33.1 7.1 33.85 7.15 34.5 7.4 35.2 7.7 35.4 7.85 35.65 7.9 35.9 7.85 36.15 7.9 36.35 8.1 36.6 8.1 36.85 8.0 37.6 7.95 37.85 8.05 38.1 8.1 38.75 8.45 39.0 8.35 39.25 8.4 40.1 8.85 40.45 9.2 40.65 9.35 40.8 9.55 41.05 9.6 41.3 9.6 41.5 9.75 41.75 9.75 42.0 9.85 42.25 9.85 42.45 9.9 42.7 9.75 43.15 9.7 43.4 9.6 43.65 9.5 44.1 9.5 44.35 9.4 44.6 9.35 44.85 9.3 45.3 9.45 45.55 9.4 45.8 9.3 46.05 9.3 46.25 9.2 46.45 9.05 46.7 9.0 47.2 8.95 47.7 9.0 48.3 8.6 48.5 8.5 48.75 8.4 49.0 8.35 49.45 8.15 49.55 7.95 49.8 7.8 49.85 7.6 50.1 7.45 50.4 7.1 50.5 6.85 51.1 6.4 51.25 6.2 51.45 6.05 51.65 5.95 51.9 5.85 52.1 5.7 52.2 5.45 52.4 5.3 52.55 5.1 52.95 4.9 53.15 4.75 53.45 4.7 53.75 4.35 54.0 4.25 54.2 4.1 54.4 4.0 54.6 3.85 55.1 3.75 55.25 3.6 55.4 3.45 55.65 3.3 55.8 3.15 55.9 2.9 56.15 2.45 56.3 2.3 56.55 2.25 56.95 1.9 57.0 1.7 57.2 1.5 57.25 1.25 57.4 1.1 57.65 1.0 57.8 0.8 57.85 0.55 57.95 0.45 57.85 0.55 57.8 0.8 57.65 1.0 57.45 1.1 57.25 1.3 57.2 1.5 57.05 1.7 56.95 1.9 56.6 2.25 56.3 2.3 56.15 2.5 55.9 2.9 55.85 3.15 55.65 3.3 55.45 3.45 55.25 3.6 55.1 3.8 54.6 3.85 54.4 4.05 Q54.3 4.1 54.2 4.1 L54.0 4.3 53.75 4.35 53.45 4.75 53.2 4.75 53.0 4.9 Q52.75 5.0 52.55 5.1 L52.4 5.3 52.25 5.5 52.1 5.7 51.95 5.85 51.65 5.95 51.45 6.05 51.25 6.2 51.1 6.4 50.5 6.85 50.4 7.1 50.1 7.45 49.9 7.6 49.8 7.85 49.6 7.95 49.45 8.15 Q49.2 8.3 49.0 8.4 L48.75 8.45 48.5 8.55 48.3 8.6 48.1 8.75 47.7 9.0 47.2 8.95 46.7 9.0 46.45 9.1 46.25 9.25 46.05 9.35 45.8 9.35 45.55 9.45 45.3 9.5 44.85 9.3 44.6 9.4 44.35 9.4 44.1 9.5 43.65 9.55 43.4 9.6 43.2 9.75 42.7 9.8 42.45 9.9 42.25 9.85 42.0 9.85 41.75 9.8 41.5 9.8 41.3 9.6 40.8 9.55 40.65 9.4 40.45 9.2 40.1 8.85 39.65 8.65 39.45 8.55 39.25 8.4 39.0 8.35 38.75 8.45 38.05 8.15 37.8 8.1 37.6 8.0 37.1 8.0 36.6 8.1 36.3 8.1 36.1 7.95 35.9 7.9 35.65 7.9 35.4 7.85 35.2 7.7 34.3 7.4 33.85 7.15 33.1 7.1 32.4 6.9 32.2 6.8 32.0 6.65 31.75 6.6 31.55 6.45 31.3 6.4 30.85 6.2 30.6 6.2 30.4 6.15 29.9 6.15 29.7 6.25 29.45 6.3 29.2 6.3 28.95 6.35 28.75 6.45 28.0 6.6 27.8 6.75 27.6 6.9 27.35 6.95 27.15 7.1 26.95 7.15 26.7 7.15 26.4 7.15 26.2 7.15 25.95 7.2 25.7 7.2 25.3 7.45 25.05 7.55 24.8 7.55 24.6 7.6 24.35 7.6 24.1 7.5 23.6 7.55 23.4 7.4 23.15 7.4 22.95 7.25 22.25 7.0 22.0 7.05 21.75 6.6 21.6 6.45 21.45 6.3 20.95 6.35 20.15 6.85 18.65 7.05 18.2 7.05 17.25 6.9 16.3 7.05 15.4 6.65 14.95 6.55 14.45 6.7 14.0 6.75 13.85 6.75 14.05 7.05 14.15 7.25 14.3 7.45 14.5 7.55 14.6 7.8 15.45 8.35 15.5 8.6 15.7 8.75 15.8 8.95 16.55 9.15 16.8 9.1 17.0 9.2 17.25 9.1 17.5 9.2 17.75 9.1 18.5 9.2 18.75 9.1 18.95 9.25 19.2 9.3 19.7 9.3 19.95 9.3 20.2 9.25 20.4 9.4 20.65 9.45 20.85 9.6 21.3 9.75 21.45 9.95 21.7 10.05 21.9 10.2 22.05 10.4 22.2 10.55 22.45 10.65 22.7 10.65 22.85 10.85 23.35 11.05 23.55 11.2 23.7 11.35 23.8 11.6 23.9 11.85 23.75 11.65 23.7 11.4 23.55 11.2 23.35 11.05 23.1 10.95 22.85 10.9 22.7 10.7 22.45 10.65 22.2 10.55 22.05 10.4 21.9 10.2 21.7 10.05 21.45 9.95 21.3 9.8 20.85 9.6 20.65 9.45 20.4 9.4 20.2 9.25 19.95 9.3 19.7 9.3 19.2 9.3 18.95 9.25 18.75 9.15 18.5 9.2 17.75 9.1 17.5 9.2 17.25 9.15 17.0 9.2 16.8 9.15 16.55 9.15 15.8 8.95 15.95 9.2 16.05 9.65 16.05 9.9 16.25 10.1 16.4 10.55 16.4 10.8 16.5 11.0 16.55 11.25 16.65 11.5 16.6 12.0 16.6 12.25 16.65 12.45 16.8 12.65 16.85 12.9 16.95 13.1 17.0 13.2 17.1 13.25 17.35 13.25 17.6 13.3 18.3 14.0 18.75 14.25 18.85 14.45 19.0 14.65 19.3 14.7 19.4 14.95 19.65 14.95 20.15 15.05 20.4 15.05 20.65 15.05 20.85 15.25 21.35 15.35 22.1 15.55 22.25 15.7 22.75 15.9 22.9 16.15 23.3 16.4 23.3 16.95 23.45 17.4 23.55 17.6 23.6 17.9 23.95 17.85 24.8 18.35 25.0 18.5 25.45 18.5 25.7 18.5 25.9 18.7 26.35 18.9 26.6 18.9 27.1 19.05 27.25 19.2 27.5 19.25 27.7 19.4 28.4 19.65 28.6 19.8 28.85 19.85 29.05 20.05 29.25 20.05 29.55 20.0 29.75 20.15 30.0 20.15 30.2 20.25 30.45 20.2 30.9 20.4 31.15 20.45 31.4 20.45 31.85 20.7 32.1 20.7 32.3 20.85 32.55 20.95 32.8 20.95 33.0 21.05 33.25 21.1 33.4 21.3 33.7 21.25 33.9 21.35 34.3 21.7 34.45 21.9 34.65 22.1 34.9 22.15 35.1 22.25 35.25 22.45 35.5 22.55 35.7 22.7 35.9 22.8 36.05 23.0 36.15 23.25 36.15 23.5 36.3 23.7 36.35 23.9 36.4 24.45 36.5 24.7 36.7 24.8 36.8 25.05 37.45 25.8 37.65 25.9 37.85 26.1 37.95 26.3 38.05 26.5 38.25 26.65 38.4 26.85 38.5 27.1 38.55 27.35 38.7 27.55 38.85 27.75 38.9 28.0 38.95 28.15 38.85 28.0 38.8 27.75 38.7 27.55 38.5 27.35 38.45 27.1 38.35 26.9 38.25 26.7 38.05 26.55 37.95 26.3 37.8 26.1 37.65 25.9 37.45 25.8 36.8 25.05 36.7 24.8 36.45 24.7 36.4 24.45 36.35 23.9 36.25 23.7 36.15 23.5 36.1 23.25 36.05 23.0 35.9 22.8 35.5 22.55 35.25 22.45 35.1 22.25 34.85 22.15 34.6 22.1 34.45 21.95 34.3 21.7 33.9 21.4 33.7 21.3 33.4 21.3 33.25 21.15 33.0 21.1 32.8 21.0 32.3 20.9 32.1 20.75 31.6 20.65 31.4 20.5 31.15 20.5 30.9 20.45 30.45 20.25 30.2 20.25 30.0 20.15 29.75 20.2 29.5 20.05 29.25 20.1 29.0 20.05 28.85 19.85 28.6 19.8 28.4 19.65 27.65 19.45 27.5 19.25 27.25 19.2 27.05 19.05 26.6 18.9 26.35 18.95 25.7 18.55 25.45 18.5 24.95 18.55 24.8 18.35 23.95 17.9 23.6 17.9 23.6 18.1 23.75 18.3 23.8 18.55 23.9 18.75 24.05 18.95 24.3 19.65 24.5 20.1 24.6 20.3 24.9 20.7 24.95 20.95 25.05 21.45 25.1 21.7 25.1 22.2 25.35 22.6 25.45 22.8 25.45 23.55 25.55 23.8 25.5 24.0 25.8 24.05 26.6 24.6 27.1 24.7 27.25 24.9 27.45 25.0 27.6 25.25 27.8 25.35 28.0 25.55 28.2 25.65 28.55 26.0 29.05 26.1 29.25 26.25 29.5 26.25 29.7 26.35 30.0 26.35 30.35 26.55 30.0 26.35 29.7 26.35 29.5 26.25 29.25 26.25 29.05 26.15 28.55 26.05 28.2 25.65 28.0 25.55 27.8 25.35 27.6 25.25 27.45 25.05 27.25 24.9 27.1 24.7 26.6 24.6 25.8 24.05 25.55 24.0 25.5 24.0 25.45 24.3 25.45 24.8 25.25 24.95 25.25 25.2 25.05 25.4 24.95 25.6 24.9 25.85 24.8 26.05 24.75 26.35 24.3 26.55 24.2 26.8 24.05 27.0 23.85 27.45 23.75 28.0 23.85 27.45 24.05 27.0 24.2 26.8 24.25 26.55 24.75 26.35 24.8 26.05 24.9 25.85 24.9 25.6 25.05 25.4 25.2 25.2 25.25 24.95 25.45 24.75 25.45 24.3 25.5 24.0 25.3 23.95 25.15 23.75 24.9 23.7 24.7 23.6 24.45 23.6 24.25 23.4 24.0 23.4 23.8 23.2 23.7 22.95 23.55 22.75 22.85 22.55 22.7 22.3 22.45 22.25 22.35 22.0 22.2 21.85 21.95 21.75 21.55 21.5 21.4 21.25 20.75 20.95 20.6 20.75 20.4 20.6 20.25 20.45 19.85 20.3 19.85 21.35 19.65 21.8 19.8 22.2 20.05 22.65 20.25 23.1 20.25 23.6 20.4 24.05 20.7 24.4 20.95 24.85 20.95 25.35 21.15 25.8 21.25 26.25 21.75 27.05 22.55 27.65 22.85 28.0 23.1 28.45 23.4 28.8 25.1 29.7 25.9 30.3 26.2 30.65 27.05 31.15 27.45 31.3 27.45 31.35 26.15 30.7 25.85 30.35 23.8 29.05 23.35 28.85 23.05 28.5 22.8 28.05 22.5 27.7 22.15 27.4 22.1 27.65 22.1 27.9 22.0 28.1 22.05 28.35 22.3 28.85 22.45 29.3 22.55 29.75 22.95 30.4 22.95 30.65 23.15 30.85 23.2 31.05 23.3 31.3 23.3 31.55 23.35 32.1 23.35 32.35 23.4 32.55 23.55 32.8 23.7 33.25 23.85 33.4 23.9 33.7 24.0 33.9 24.95 34.75 25.0 34.95 25.2 35.15 25.45 35.25 25.6 35.4 25.7 35.65 26.1 35.95 26.15 36.2 26.3 36.4 26.3 36.65 26.5 36.85 26.55 37.1 26.55 37.35 26.5 37.6 26.35 37.85 26.45 38.1 26.4 38.3 26.25 38.55 26.25 38.8 26.1 39.0 26.1 39.5 26.2 40.0 26.15 40.2 26.1 40.45 25.8 41.15 25.75 41.35 25.6 41.6 25.65 41.85 25.4 42.3 25.4 42.55 25.2 42.7 25.1 42.9 25.0 43.15 24.85 43.35 24.45 43.95 24.5 44.2 24.35 44.4 24.4 44.65 24.3 44.9 24.15 45.1 24.2 45.85 24.4 46.0 24.4 46.5 24.9 47.05 25.1 47.2 25.05 47.2 24.9 47.05 24.4 46.5 24.35 46.3 24.4 46.0 24.2 45.85 24.1 45.1 24.3 44.9 24.4 44.65 24.35 44.4 24.45 44.2 24.45 43.95 24.8 43.35 25.0 43.15 25.1 42.9 25.2 42.7 25.4 42.55 25.4 42.25 25.6 41.85 25.6 41.6 25.75 41.35 25.8 41.15 26.1 40.45 26.1 40.2 26.2 40.0 26.1 39.5 26.05 39.0 26.2 38.75 26.25 38.55 26.4 38.3 26.45 38.1 26.35 37.85 26.45 37.6 26.5 37.35 26.55 37.1 26.45 36.85 26.3 36.65 26.25 36.4 26.15 36.2 26.1 35.95 25.7 35.65 25.6 35.45 25.4 35.25 25.15 35.15 25.0 35.0 24.9 34.75 24.35 34.25 24.2 34.1 24.0 33.9 23.85 33.7 23.85 33.45 23.65 33.25 23.5 32.8 23.35 32.55 23.3 32.3 23.3 32.05 23.25 31.55 23.25 31.3 23.15 31.1 23.1 30.85 22.95 30.65 22.95 30.4 22.55 29.75 22.45 29.3 22.25 28.85 22.0 28.35 22.0 28.1 22.1 27.9 22.05 27.65 22.1 27.4 21.75 27.1 21.2 26.3 21.1 25.8 20.9 25.35 20.9 24.9 20.65 24.45 20.35 24.05 20.2 23.6 20.2 23.1 20.0 22.65 19.75 22.25 19.6 21.75 19.8 21.35 19.75 20.35 19.75 20.25 19.55 20.1 19.5 19.85 19.15 19.5 18.95 19.35 18.8 19.2 18.55 19.15 18.3 19.05 18.05 19.0 17.85 18.85 17.35 18.75 17.2 18.55 17.1 18.3 16.95 18.1 16.6 17.8 16.5 17.55 16.25 17.45 16.1 17.3 15.4 17.0 15.05 16.7 14.75 16.3 14.2 16.25 13.8 16.05 13.35 15.85 13.2 15.65 12.95 15.65 12.7 15.5 12.2 15.55 12.0 15.65 11.8 15.85 11.55 15.8 11.3 15.85 11.05 15.85 10.55 15.75 10.1 15.8 9.85 15.9 9.45 16.2 10.3 16.6 10.65 16.95 10.95 17.3 11.35 17.55 11.65 17.95 12.45 18.55 12.75 18.9 13.2 19.1 14.4 19.95 14.85 20.1 15.25 20.45 15.65 20.7 15.6 20.7 15.2 20.45 14.85 20.15 13.55 19.45 13.2 19.15 12.75 18.95 12.4 18.55 11.65 18.0 11.35 17.6 10.9 17.35 10.6 16.95 10.25 16.65 8.95 16.0 8.2 15.4 7.8 14.5 7.5 14.1 7.05 13.25 6.95 12.75 6.75 12.3 6.75 11.85 6.55 11.4 6.45 10.9 6.6 10.45 6.6 9.95 6.7 9.5 6.6 9.05 6.5 8.1 6.25 7.55 5.9 7.45 5.5 7.15 4.5 6.95 4.3 6.8 4.15 6.6 3.9 6.5 3.75 6.3 3.2 6.25 3.0 6.15 2.8 6.0 2.65 5.8 2.4 5.75 2.25 5.55 2.15 5.4 1.85 5.45 -0.1 5.4 -0.55 5.25 -2.0 5.3 -2.45 5.1 -3.4 5.05 -4.75 4.45 -5.25 4.4 -6.15 4.05 -6.9 3.45 -7.2 3.05 -7.95 2.4 -8.15 1.95 -8.45 1.55 -8.55 1.1 -8.75 0.85 -8.75 1.15 -8.65 1.4 -8.55 1.65 -8.45 1.85 -8.4 2.1 -8.3 2.35 -8.3 2.6 -8.15 2.8 -8.15 3.05 -8.0 3.25 -7.85 3.7 -7.85 3.95 -7.8 4.7 -7.65 4.9 -7.75 5.4 -7.75 5.65 -7.6 6.1 -7.55 6.35 -7.35 6.8 -7.2 7.0 -7.1 7.2 -6.9 7.35 -6.95 7.65 -6.9 7.9 -6.6 8.25 -6.25 8.9 -6.1 9.05 -5.9 9.2 -5.7 9.65 -5.55 9.85 -5.3 9.95 -4.55 10.55 -4.4 10.7 -4.3 10.95 -4.05 11.1 -3.9 11.55 -3.75 11.75 -3.6 12.75 -3.45 12.95 -3.35 13.15 -3.3 13.4 -3.3 13.65 -3.25 13.9 -3.4 14.4 -3.35 14.65 -3.45 14.9 -3.4 15.15 -3.6 15.6 -3.7 15.85 -3.65 16.1 -3.75 16.55 -3.75 17.05 -3.95 17.25 -4.2 17.65 -4.3 17.85 -4.9 18.65 -5.05 18.85 -5.3 19.0 -5.65 19.35 -5.75 19.55 -5.9 19.8 -5.85 20.05 -5.8 20.3 -5.9 20.55 -5.75 20.75 -5.7 21.25 -5.6 21.45 -5.55 21.95 -5.55 22.45 -5.35 22.6 -5.25 22.85 -5.15 23.05 -4.95 23.25 -4.95 23.5 -4.75 23.9 -4.55 24.1 -4.35 24.25 -4.3 24.5 -4.3 25.25 -4.25 25.5 -4.15 25.75 -4.1 26.45 -4.1 26.75 -3.9 26.95 -3.95 27.2 -3.95 27.45 -3.9 27.65 -4.05 28.15 -4.15 28.4 -4.2 28.65 -4.15 28.85 -4.2 29.05 -3.85 29.3 -3.4 29.5 -3.0 29.8 -2.7 30.2 -1.9 30.7 -1.9 30.75 -2.75 30.25 -3.05 29.85 -3.4 29.55 -3.85 29.35 -4.2 29.1 -4.15 29.35 -4.25 29.55 -4.2 29.8 -4.3 30.05 -4.4 30.3 -4.35 30.55 -4.4 30.75 -4.45 31.0 -4.6 31.2 -4.8 31.65 -4.9 31.9 -4.85 32.15 -5.05 32.6 -5.15 33.3 -5.25 33.55 -5.35 33.75 -5.45 34.0 -5.4 34.25 -5.45 34.5 -5.5 34.7 -5.7 34.9 -5.8 35.15 -5.8 35.4 -5.95 35.6 -5.9 35.85 -6.05 36.05 -6.0 36.3 -6.1 36.55 -6.2 36.75 -6.3 37.0 -6.3 37.25 -6.45 37.7 -6.45 38.2 -6.45 38.65 -6.55 38.9 -6.5 39.15 -6.4 39.4 -6.3 39.85 -6.5 40.3 -6.45 40.6 -6.65 41.05 -6.8 41.25 -6.95 41.45 -6.85 41.65 -6.9 41.9 -6.9 42.15 -7.1 42.6 -7.1 43.1 -7.05 43.35 -6.8 43.8 -6.85 44.05 -6.6 44.45 -6.4 44.65 -6.4 44.65 -6.6 44.45 -6.85 44.05 -6.85 43.8 -6.95 43.55 -7.05 43.35 -7.1 43.1 -7.1 42.6 -6.9 42.15 -6.9 41.65 -6.95 41.4 -6.8 41.25 -6.45 40.55 -6.55 40.3 -6.3 39.85 -6.4 39.4 -6.5 39.15 -6.55 38.9 -6.45 38.65 -6.45 38.2 -6.5 37.95 -6.5 37.7 -6.35 37.25 -6.35 37.0 -6.2 36.75 -6.15 36.55 -6.0 36.3 -6.05 36.05 -5.95 35.85 -5.95 35.6 -5.85 35.35 -5.8 35.15 -5.75 34.9 -5.55 34.7 -5.45 34.5 -5.4 34.25 -5.45 34.0 -5.4 33.75 -5.25 33.55 -5.2 33.3 -5.15 33.05 -5.1 32.8 -5.1 32.6 -4.85 32.15 -4.95 31.9 -4.8 31.65 -4.65 31.2 -4.5 31.0 -4.4 30.75 -4.35 30.55 -4.45 30.3 -4.25 29.8 -4.3 29.55 -4.2 29.35 -4.25 29.1 -4.25 29.1 -4.6 28.75 -5.1 28.7 -5.5 28.4 -6.15 27.7 -6.95 27.2 -7.4 27.05 -7.8 26.8 -8.3 26.8 -8.8 26.75 -10.55 25.9 -10.9 25.55 -11.8 25.35 -13.1 24.65 -13.6 24.55 -15.6 23.2 -15.85 22.75 -16.2 22.45 -16.5 22.05 -16.95 21.85 -17.35 20.95 -18.35 19.45 -18.3 19.55 -18.4 19.8 -18.4 20.05 -18.55 20.25 -18.55 20.5 -18.5 20.75 -18.65 20.95 -18.75 21.2 -18.75 21.4 -18.9 21.65 -19.0 21.85 -19.0 22.1 -19.15 22.6 -19.3 22.8 -19.4 24.05 -19.65 24.45 -19.85 24.6 -20.05 25.05 -20.1 25.3 -20.2 25.5 -20.3 25.55 -20.25 25.65 -20.1 26.15 -20.15 26.65 -20.3 27.1 -20.35 27.35 -20.15 27.85 -20.15 28.05 -20.25 28.55 -20.25 28.8 -20.5 29.2 -20.4 29.45 -20.4 29.7 -20.6 30.2 -20.55 30.45 -20.65 30.65 -21.0 31.0 -21.05 31.25 -21.3 31.35 -21.55 31.8 -21.7 31.95 -21.95 32.4 -22.2 32.5 -22.4 32.65 -22.6 32.75 -22.75 32.95 -22.85 33.2 -23.0 33.35 -23.1 33.6 -23.7 34.05 -23.85 34.25 -23.9 34.45 -24.05 34.65 -24.05 34.9 -24.1 34.95 -24.1 35.15 -24.2 35.4 -24.2 35.65 -24.25 35.75 -24.2 36.1 -24.25 36.35 -24.25 36.55 -23.95 37.0 -24.0 37.25 -23.9 37.5 -24.0 37.9 -23.9 37.5 -24.05 37.25 -24.0 37.0 -24.25 36.6 -24.3 36.35 -24.2 36.1 -24.3 35.8 -24.3 35.85 -24.25 36.1 -24.35 36.3 -24.35 36.55 -24.5 36.8 -24.4 37.0 -24.45 37.25 -24.35 37.75 -24.3 37.95 -24.4 38.2 -24.45 38.7 -24.5 38.95 -24.5 39.2 -24.35 39.65 -24.35 39.85 -24.15 39.6 -24.1 39.4 -24.2 39.15 -24.3 38.9 -24.3 38.65 -24.05 38.05 -24.25 38.65 -24.3 38.9 -24.2 39.15 -24.1 39.35 -24.15 39.6 -24.35 39.9 -24.35 39.9 -24.25 40.15 -24.3 40.35 -24.3 40.6 -24.35 40.85 -24.3 41.35 -24.2 41.6 -24.05 41.8 -24.05 42.05 -23.9 42.25 -23.85 42.45 -23.3 43.3 -23.35 43.6 -23.35 43.35 -23.85 42.45 -23.9 42.25 -24.05 42.05 -24.1 41.8 -24.2 41.6 -24.3 41.35 -24.4 40.85 -24.3 40.6 -24.3 40.35 -24.25 40.15 -24.35 39.9 -24.45 40.05 -24.5 40.25 -24.7 40.5 -24.7 41.0 -24.75 41.25 -24.9 41.4 -25.0 41.65 -25.05 41.85 -25.15 42.1 -25.1 42.35 -25.3 42.8 -25.35 43.05 -25.45 43.25 -25.6 43.45 -25.65 43.7 -25.7 43.9 -25.9 44.1 -25.95 44.35 -26.05 44.8 -26.0 45.05 -26.1 45.55 -26.15 45.8 -26.1 46.0 -25.95 46.25 -25.9 46.5 -26.0 46.75 -25.95 47.0 -25.8 47.45 -25.6 47.65 -25.5 47.85 -25.5 48.1 -25.35 48.3 -25.4 48.8 -25.45 49.05 -25.45 49.3 -25.4 49.55 -25.25 49.75 -25.2 50.0 -25.15 50.25 -25.15 50.5 -25.05 50.7 -25.05 50.95 -24.6 51.6 -24.45 52.05 -24.45 52.3 -24.05 52.6 -23.95 52.85 -23.95 52.8 -24.1 52.6 -24.15 52.35 -24.1 52.1 -24.0 51.85 -24.0 51.65 -23.9 51.4 -23.75 51.2 -23.7 50.95 -23.85 50.5 -23.85 50.2 -23.8 50.0 -23.65 49.8 -23.55 49.55 -23.5 49.3 -23.45 49.1 -23.4 48.85 -23.35 48.35 -23.3 48.1 -23.25 47.85 -23.35 47.65 -23.4 47.4 -23.4 47.15 -23.2 46.7 -23.2 46.45 -23.0 46.25 -23.05 46.0 -23.0 45.75 -23.0 45.55 -23.05 45.3 -23.25 44.85 -23.2 44.55 -23.3 44.35 -23.3 44.1 -23.3 44.35 -23.2 44.55 -23.25 44.8 -23.05 45.3 -23.0 45.55 -23.0 45.75 -23.05 46.0 -23.0 46.25 -23.15 46.45 -23.15 46.7 -23.35 47.15 -23.35 47.65 -23.25 47.85 -23.3 48.1 -23.35 48.6 -23.35 48.85 -23.45 49.1 -23.55 49.55 -23.65 49.8 -23.8 50.0 -23.85 50.25 -23.85 50.5 -23.7 50.95 -23.75 51.2 -23.9 51.4 -24.0 51.65 -24.0 51.85 -24.1 52.1 -24.15 52.35 -24.05 52.6 -23.95 52.8 -23.95 52.85 -23.7 53.1 -23.95 52.85 -24.0 53.05 -23.95 53.3 -23.95 53.8 -23.95 54.05 -24.1 54.25 -24.3 54.7 -24.45 54.9 -24.4 55.15 -24.55 55.4 -24.55 55.65 -24.6 56.1 -24.55 55.65 -24.55 55.4 -24.45 55.15 -24.45 54.9 -24.3 54.7 -24.15 54.25 -23.95 54.05 -23.95 53.55 -23.95 53.3 -24.05 53.05 -24.0 52.85 -24.1 52.65 -24.5 52.3 -24.5 52.05 -24.65 51.6 -25.05 50.95 -25.05 50.7 -25.2 50.5 -25.15 50.25 -25.25 50.0 -25.3 49.75 -25.45 49.55 -25.5 49.3 -25.5 49.05 -25.45 48.8 -25.4 48.3 -25.5 48.1 -25.5 47.85 -25.65 47.65 -25.8 47.45 -26.0 47.0 -26.0 46.75 -25.95 46.5 -25.95 46.25 -26.1 46.0 -26.2 45.8 -26.1 45.55 -26.05 45.05 -26.05 44.8 -26.0 44.6 -25.95 44.35 -25.9 44.1 -25.75 43.9 -25.65 43.7 -25.6 43.45 -25.45 43.25 -25.35 43.05 -25.35 42.75 -25.15 42.35 -25.15 42.1 -25.05 41.85 -25.0 41.6 -24.9 41.4 -24.75 41.2 -24.7 40.95 -24.7 40.45 -24.55 40.25 -24.45 40.0 -24.35 39.9 -24.4 39.65 -24.55 39.2 -24.5 38.95 -24.45 38.7 -24.45 38.2 -24.35 37.95 -24.35 37.75 -24.5 37.25 -24.45 37.0 -24.5 36.8 -24.4 36.55 -24.35 36.3 -24.25 36.1 -24.35 35.85 -24.3 35.75 -24.35 35.6 -24.25 35.35 -24.2 35.1 -24.1 34.95 -24.05 34.65 -24.05 34.4 -23.85 34.2 -23.85 34.2 -24.25 33.25 -24.2 33.0 -24.45 32.55 -24.45 32.05 -24.65 31.85 -24.75 31.65 -25.0 30.9 -25.0 30.65 -24.85 30.45 -24.85 30.2 -25.0 29.95 -25.05 29.75 -25.05 29.5 -25.25 29.0 -25.15 28.75 -25.15 28.55 -25.05 28.3 -25.05 28.05 -24.6 27.45 -24.35 27.35 -24.2 27.15 -23.95 27.0 -23.7 26.95 -23.45 27.0 -22.8 26.75 -22.5 26.8 -22.3 26.65 -21.55 26.55 -21.15 26.3 -20.6 25.8 -20.45 25.6 Q-20.4 25.6 -20.35 25.55 L-20.4 25.45 -20.5 25.3 -20.7 24.8 -20.7 24.55 -20.8 24.35 -20.95 24.1 -21.1 23.9 -21.25 23.45 -21.4 23.25 -21.5 23.0 -21.4 22.75 -21.5 22.3 -21.4 22.05 -21.45 21.8 -21.4 21.55 -21.25 21.35 -21.15 21.15 -21.05 20.9 -21.05 20.65 -20.95 20.4 -20.6 20.1 -20.35 20.0 -20.2 19.8 -19.85 19.5 -19.8 19.25 -19.7 19.05 -19.7 18.8 -19.55 18.55 -19.6 18.3 -19.5 18.1 -19.45 17.85 -19.6 17.65 -19.65 17.4 -19.6 17.15 -19.6 16.9 -19.55 16.8 -19.6 16.7 -19.65 16.2 -19.9 15.8 -19.9 14.85 -20.45 13.5 -20.7 13.05 -21.1 12.2 -21.35 11.75 -21.45 11.3 -21.3 10.8 -21.3 10.3 -21.4 9.8 -21.15 9.4 -21.05 8.95 -21.2 7.95 -21.15 7.5 -21.0 7.05 -20.95 6.55 -20.55 5.2 -20.45 4.7 -20.4 3.25 -20.65 1.85 -20.85 1.4 -20.9 0.45 -21.1 0.0 -21.2 -0.45 -21.75 -1.8 -22.0 -2.25 -22.65 -2.95 -23.1 -3.8 -23.7 -5.15 -23.8 -5.65 -23.75 -6.1 -23.85 -6.6 -23.85 -7.05 -23.9 -8.05 -24.25 -8.9 -24.5 -9.3 -24.7 -9.8 -24.75 -10.25 -24.9 -10.75 -25.6 -11.95 -25.95 -12.9 -26.2 -13.3 -26.3 -13.8 -26.3 -14.25 -26.15 -15.2 -26.2 -15.65 -26.35 -16.1 -26.65 -16.5 -27.15 -17.35 -27.25 -17.8 -27.8 -18.6 -27.95 -19.05 -28.15 -19.15 -28.5 -19.45 -29.0 -19.55 -29.35 -19.9 -29.65 -20.3 -30.3 -20.95 -30.75 -21.2 -31.1 -21.55 -31.6 -22.35 -32.95 -23.65 -33.75 -24.2 -34.2 -24.4 -35.4 -25.25 -35.4 -25.3 -37.15 -25.6 -37.45 -25.9 -38.05 -25.95 -38.2 -25.8 -38.3 -25.95 -38.3 -25.95 -43.2 -26.1 -43.2 -25.9 -44.15 -26.05 -44.15 -26.05 -43.95 -25.75 -44.1 -25.4 -44.4 -25.65 -44.35 -25.7 -44.5 -25.9 -44.45 -26.15 -44.45 -26.15 -44.3 -26.5 -43.95 -26.55 -44.0 -26.45 -43.5 -26.35 -43.5 -26.65 -43.1 -26.75 -43.1 -26.5 -37.75 -26.3 -37.5 -26.45 -37.0 -26.55 -36.6 -26.8 -35.7 -27.15 -35.35 -27.5 -34.9 -27.75 -34.45 -27.85 -33.95 -27.7 -33.45 -27.75 -32.5 -27.65 -31.15 -28.1 -30.8 -28.35 -30.3 -28.55 -29.35 -28.75 -28.9 -28.8 -27.9 -28.75 -27.45 -28.55 -26.95 -28.65 -26.5 -28.6 -25.6 -29.05 -25.15 -29.1 -24.8 -29.45 -24.4 -29.7 -24.05 -30.05 -23.15 -30.45 -22.85 -30.8 -22.4 -30.95 -21.9 -31.05 -20.95 -31.3 -20.45 -31.35 -20.0 -31.55 -19.5 -31.65 -18.55 -31.45 -17.65 -31.05 -17.35 -30.7 -16.65 -29.4 -16.35 -28.95 -16.2 -28.5 -15.55 -27.8 -15.25 -27.4 -14.55 -26.75 -14.1 -26.6 -13.75 -26.3 -13.1 -25.55 -11.35 -23.85 -9.4 -23.65 -8.5 -23.3 -8.05 -23.3 -7.55 -23.45 -7.3 -23.35 -7.0 -23.5 -6.5 -23.5 -5.05 -23.6 -4.15 -24.0 -3.65 -24.1 -3.2 -24.25 -2.85 -24.55 -1.85 -24.55 -0.4 -24.25 0.1 -24.35 0.5 -24.6 1.45 -24.85 2.7 -25.45 3.7 -25.7 4.1 -25.9 4.6 -26.0 5.05 -26.2 5.5 -26.3 5.95 -26.45 6.3 -26.8 7.1 -27.35 7.5 -27.55 8.0 -27.7 8.4 -27.95 9.0 -28.7 9.4 -28.95 10.05 -29.7 10.25 -30.1 11.0 -30.75 11.75 -31.35 12.1 -31.7 12.85 -32.3 13.35 -32.45 15.0 -33.45 15.35 -33.75 15.8 -33.95 16.15 -34.3 16.55 -34.55 17.5 -34.85 17.9 -35.1 18.25 -35.4 18.25 -35.65 18.15 -35.85 18.0 -36.05 18.1 -36.6 17.9 -36.75 17.8 -36.95 17.5 -37.35 17.3 -37.55 17.35 -37.8 17.15 -38.5 17.15 -38.75 17.2 -39.0 17.35 -39.2 17.35 -39.45 17.5 -39.65 17.4 -39.9 17.5 -40.15 17.35 -40.4 17.65 -41.05 17.9 -41.15 18.1 -41.3 18.25 -41.5 18.4 -41.65 18.55 -41.9 18.75 -42.0 19.05 -42.4 19.3 -42.45 19.5 -42.6 19.75 -42.65 19.95 -42.8 20.2 -42.85 20.35 -43.0 20.65 -43.05 20.85 -43.1 21.05 -43.3 21.3 -43.35 21.55 -43.3 21.8 -43.35 22.05 -43.45 22.3 -43.4 22.45 -43.6 22.65 -43.75 22.9 -43.8 23.15 -43.85 23.35 -43.95 23.9 -44.0 24.05 -44.2 24.25 -44.35 24.5 -44.4 24.65 -44.55 24.9 -44.7 24.9 -44.95 25.05 -45.15 25.25 -45.3 25.35 -45.8 25.5 -46.0 25.75 -46.45 25.75 -46.95 25.95 -47.35 26.0 -47.6 26.0 -47.85 26.1 -48.35 26.15 -48.55 26.3 -48.8 26.6 -49.2 26.75 -49.65 26.9 -49.85 26.9 -50.1 27.0 -50.3 27.35 -50.65 27.5 -51.1 27.7 -51.3 27.85 -51.5 27.9 -51.75 27.9 -52.0 27.95 -52.2 28.2 -52.65 28.25 -52.85 28.4 -53.35 28.5 -53.55 28.5 -54.3 28.65 -54.55 28.6 -54.8 28.9 -55.45 29.2 -55.8 29.35 -56.3 29.55 -56.45 29.65 -56.65 29.7 -56.9 M31.8 -36.8 L31.65 -36.65 31.35 -36.65 31.15 -36.5 30.9 -36.5 30.7 -36.45 30.9 -36.5 31.15 -36.5 31.35 -36.65 31.65 -36.65 31.8 -36.8 32.1 -36.8 32.3 -36.9 32.55 -36.9 32.3 -36.9 32.1 -36.8 31.8 -36.8 M24.0 -37.4 L24.05 -37.7 24.15 -37.9 24.2 -38.1 24.35 -38.3 24.6 -39.05 24.85 -39.15 25.0 -39.3 25.2 -39.45 25.35 -39.65 25.5 -40.15 25.95 -40.4 26.1 -40.85 26.15 -41.1 26.35 -41.3 26.5 -41.45 26.7 -41.65 26.8 -41.85 26.85 -42.1 27.25 -42.7 27.45 -42.85 27.5 -43.1 27.6 -43.35 27.65 -43.6 27.8 -43.8 28.05 -43.9 28.15 -44.1 28.5 -44.5 28.7 -44.6 28.95 -44.65 29.1 -44.9 29.35 -44.95 29.4 -45.0 29.2 -45.0 28.75 -44.9 28.3 -44.6 27.45 -44.25 26.85 -43.5 26.45 -43.2 26.0 -43.05 25.55 -42.85 25.25 -42.45 24.8 -42.3 23.05 -41.35 22.1 -40.3 21.7 -40.0 20.75 -38.9 20.5 -38.45 19.7 -36.7 17.95 -35.05 17.5 -34.8 16.6 -34.5 16.2 -34.25 15.85 -33.9 15.4 -33.7 15.05 -33.4 13.35 -32.4 12.9 -32.25 12.15 -31.65 11.8 -31.3 11.0 -30.7 10.3 -30.05 10.1 -29.65 9.45 -28.85 9.05 -28.65 8.45 -27.9 8.05 -27.65 7.55 -27.5 7.15 -27.3 6.35 -26.75 6.0 -26.4 5.55 -26.2 5.05 -26.1 4.65 -25.9 4.15 -25.8 3.7 -25.6 2.75 -25.4 1.95 -25.0 2.2 -25.0 2.45 -25.1 2.7 -25.15 2.95 -25.05 3.15 -25.1 3.65 -25.0 4.1 -25.15 4.35 -25.25 4.6 -25.3 5.1 -25.25 5.5 -25.05 5.8 -25.1 6.25 -25.0 6.65 -24.65 6.85 -24.55 7.1 -24.5 7.35 -24.55 7.6 -24.5 8.0 -24.3 8.2 -24.15 8.2 -24.15 8.45 -24.2 8.65 -24.35 8.9 -24.4 9.1 -24.55 9.6 -24.55 10.05 -24.65 10.3 -24.6 10.55 -24.7 10.8 -24.65 11.0 -24.8 11.5 -24.8 11.85 -25.15 12.1 -25.6 12.3 -25.8 12.7 -26.05 12.85 -26.2 12.95 -26.4 12.95 -26.65 12.8 -26.85 12.75 -27.1 12.8 -27.35 12.95 -27.55 13.0 -27.75 13.25 -27.95 13.2 -28.2 13.3 -28.45 13.3 -28.65 13.55 -28.8 13.85 -29.15 14.05 -29.6 14.2 -29.8 14.6 -30.05 14.8 -30.15 14.95 -30.35 15.15 -30.5 15.4 -30.6 15.55 -30.85 15.75 -30.95 16.0 -31.0 16.2 -31.15 16.4 -31.3 16.65 -31.3 16.8 -31.5 17.05 -31.6 17.25 -31.7 17.45 -31.9 17.7 -31.9 17.9 -31.95 18.1 -32.15 18.85 -32.2 19.1 -32.15 19.6 -32.25 19.95 -32.65 20.2 -32.65 20.4 -32.8 20.4 -32.9 20.55 -33.1 20.6 -33.35 21.05 -33.65 21.15 -33.85 21.2 -34.1 21.3 -34.35 21.45 -34.55 21.65 -34.7 21.75 -34.9 21.95 -35.05 22.2 -35.15 22.55 -35.5 22.65 -35.75 22.8 -35.95 23.05 -36.05 23.3 -36.45 23.7 -36.75 23.95 -37.15 24.0 -37.4 M33.95 -37.8 L34.1 -38.0 34.3 -38.15 34.55 -38.15 34.3 -38.15 34.1 -38.0 33.95 -37.8 33.85 -37.55 33.6 -37.45 33.85 -37.6 33.95 -37.8 M34.95 -38.3 L34.75 -38.25 34.55 -38.15 34.95 -38.3 M35.7 -38.4 L35.45 -38.5 35.2 -38.45 35.1 -38.4 35.2 -38.45 35.45 -38.5 35.7 -38.4 35.9 -38.5 36.15 -38.5 35.9 -38.5 35.7 -38.4 M52.4 -34.85 L52.3 -35.0 52.4 -34.85 52.5 -34.6 52.55 -34.4 52.65 -34.15 52.7 -33.9 52.55 -33.7 52.45 -33.45 52.5 -33.2 52.5 -32.95 52.4 -32.75 52.3 -32.25 52.35 -32.0 52.55 -31.55 52.5 -31.3 52.5 -31.05 52.4 -30.8 52.35 -30.6 52.3 -30.35 52.4 -30.1 52.3 -29.9 52.25 -29.65 52.3 -29.15 52.2 -28.9 51.95 -28.5 52.05 -28.3 51.95 -28.5 52.05 -28.7 52.2 -28.9 52.3 -29.15 52.25 -29.65 52.25 -29.9 52.4 -30.1 52.3 -30.35 52.35 -30.6 52.35 -30.85 52.5 -31.05 52.5 -31.3 52.55 -31.55 52.35 -32.0 52.3 -32.25 52.4 -32.75 52.5 -32.95 52.5 -33.2 52.45 -33.45 52.5 -33.7 52.65 -33.9 52.6 -34.15 52.55 -34.4 52.5 -34.6 52.4 -34.85 M51.9 -36.1 L51.85 -35.95 51.85 -35.7 52.0 -35.5 52.05 -35.25 52.15 -35.15 52.05 -35.25 52.0 -35.45 51.85 -35.7 51.85 -35.95 51.9 -36.1 M32.4 -4.5 L32.15 -4.55 31.65 -4.45 31.55 -4.45 32.15 -3.85 32.95 -3.35 34.0 -2.35 34.9 -1.95 35.2 -1.6 36.5 -0.9 37.0 -0.8 37.95 -0.65 38.45 -1.25 38.7 -1.65 38.85 -2.1 38.9 -2.2 38.85 -2.25 38.65 -2.4 38.45 -2.5 38.2 -2.55 38.0 -2.7 37.8 -2.7 37.6 -2.9 37.5 -3.15 37.2 -3.15 37.0 -3.25 36.6 -3.55 36.2 -3.75 35.9 -3.8 35.45 -3.9 35.3 -4.15 35.05 -4.2 33.85 -4.4 33.75 -4.45 33.45 -4.35 33.2 -4.3 33.0 -4.45 32.75 -4.45 32.7 -4.5 32.65 -4.45 32.4 -4.5 32.65 -4.5 32.65 -4.5 32.55 -4.55 32.35 -4.75 32.15 -4.9 31.9 -5.0 31.65 -5.0 31.4 -5.05 31.15 -5.0 30.95 -5.05 30.9 -5.05 31.05 -4.85 31.45 -4.6 31.55 -4.5 31.65 -4.5 32.15 -4.6 32.4 -4.5 M29.0 -5.2 L28.75 -5.2 28.5 -5.25 28.25 -5.25 28.05 -5.2 27.95 -5.15 28.2 -5.1 28.7 -5.1 28.85 -4.95 29.3 -4.75 29.55 -4.7 29.8 -4.75 30.0 -4.7 30.25 -4.55 30.5 -4.6 30.95 -4.5 31.2 -4.65 31.4 -4.5 31.45 -4.5 31.45 -4.55 31.0 -4.8 30.85 -5.05 30.7 -5.0 29.95 -5.2 29.75 -5.2 29.45 -5.15 29.0 -5.2 29.45 -5.15 29.75 -5.2 29.95 -5.2 30.45 -5.1 30.7 -5.0 30.85 -5.05 30.75 -5.2 30.45 -5.6 30.0 -5.85 29.55 -6.0 28.7 -6.55 28.1 -7.25 27.55 -8.05 27.2 -8.4 26.75 -8.55 26.4 -8.9 26.0 -9.1 25.6 -9.4 23.7 -9.7 23.25 -9.9 22.75 -9.85 22.3 -9.7 21.7 -8.95 20.1 -7.85 19.15 -7.7 18.65 -7.7 18.2 -7.55 17.7 -7.4 17.25 -7.35 16.35 -6.9 14.4 -6.8 13.95 -7.0 13.45 -6.95 12.7 -7.15 12.3 -6.95 12.0 -6.65 11.5 -6.5 11.0 -6.45 10.05 -6.25 9.6 -6.0 9.15 -5.9 8.65 -5.9 7.3 -6.35 6.35 -6.5 6.0 -6.35 6.15 -6.2 6.35 -6.15 6.55 -6.0 6.8 -5.95 7.1 -5.9 7.2 -5.7 7.45 -5.55 7.6 -5.35 8.3 -5.1 8.45 -4.9 8.7 -4.85 8.8 -4.6 9.3 -4.35 9.3 -4.1 9.5 -3.95 9.65 -3.75 9.85 -3.6 10.1 -3.2 10.45 -2.9 11.25 -2.75 11.75 -2.65 12.2 -2.55 12.45 -2.45 12.8 -2.1 13.0 -1.9 13.25 -1.95 13.45 -1.85 14.15 -1.7 14.2 -1.75 14.45 -1.85 14.65 -2.0 14.9 -2.05 15.1 -2.5 15.3 -2.65 15.5 -2.75 15.75 -2.85 15.95 -3.0 16.15 -3.15 16.35 -3.3 16.6 -3.35 16.8 -3.5 17.05 -3.55 17.3 -3.55 17.75 -3.65 18.45 -3.3 18.7 -3.35 18.95 -3.3 19.65 -3.2 19.95 -3.1 20.2 -3.1 20.4 -3.2 20.65 -3.2 21.05 -3.45 21.3 -3.5 21.75 -3.75 22.0 -3.75 22.25 -3.75 22.75 -3.9 23.0 -3.9 23.25 -4.0 23.5 -4.0 23.95 -3.9 24.0 -3.95 24.0 -4.1 24.0 -4.55 24.5 -5.15 24.7 -5.3 24.95 -5.25 25.15 -5.4 25.35 -5.5 25.65 -5.45 25.85 -5.55 26.1 -5.55 26.3 -5.65 26.55 -5.7 26.8 -5.65 27.95 -5.2 27.95 -5.2 28.05 -5.25 28.25 -5.3 28.75 -5.2 29.0 -5.2 M23.85 -3.4 L23.9 -3.15 24.1 -2.65 24.15 -2.4 24.15 -2.2 24.05 -1.95 24.1 -1.7 24.0 -1.2 24.05 -0.95 24.05 -0.7 23.95 -0.2 23.5 0.05 23.15 0.4 22.75 1.0 22.65 1.25 22.5 1.45 22.15 1.75 21.9 1.8 21.65 1.9 21.45 2.0 21.2 2.05 20.25 2.1 20.0 2.0 19.75 2.0 19.5 2.1 19.05 2.05 18.8 2.15 18.55 2.15 17.85 1.95 17.6 1.95 17.1 1.85 16.9 2.0 16.75 2.2 16.0 2.25 15.8 2.3 15.55 2.3 15.05 2.45 14.8 2.45 14.1 2.2 13.85 2.2 13.6 2.1 13.35 2.15 13.1 2.1 12.65 2.15 12.45 2.35 12.25 2.5 11.8 2.65 11.6 2.85 11.35 2.85 11.15 2.95 11.0 3.15 10.75 3.25 10.6 3.4 10.4 3.85 10.4 4.1 10.0 4.75 9.95 5.05 10.15 5.05 10.4 5.05 10.6 5.2 10.85 5.15 11.35 5.15 11.6 5.2 11.8 5.2 12.25 5.5 12.45 5.7 12.7 5.7 12.9 5.85 13.15 5.85 13.4 6.0 13.7 6.4 13.8 6.6 13.8 6.65 13.95 6.65 14.45 6.6 14.9 6.45 15.4 6.55 16.3 6.95 17.25 6.8 18.2 6.95 18.7 6.95 20.1 6.8 20.95 6.3 21.4 6.2 22.75 5.7 23.55 5.15 23.9 4.8 24.3 4.55 24.75 4.4 25.6 3.95 26.1 3.85 27.0 3.45 27.45 3.5 28.3 3.05 28.8 3.05 29.3 3.0 29.7 2.75 30.05 2.45 30.5 2.25 31.9 1.85 32.3 1.55 33.7 1.25 34.2 1.3 34.65 1.25 35.1 1.1 35.6 1.05 36.1 1.05 36.5 0.85 36.75 0.65 36.35 0.55 35.6 0.75 35.15 0.95 34.9 1.05 34.7 1.15 34.45 1.15 34.25 1.0 34.0 1.05 33.75 0.95 33.1 0.65 32.85 0.6 32.7 0.4 32.25 0.2 32.1 0.0 31.8 0.0 31.6 -0.1 31.35 -0.15 31.15 -0.3 30.9 -0.3 30.7 -0.4 30.45 -0.45 30.1 -0.8 29.65 -1.05 29.35 -1.45 29.2 -1.6 28.95 -1.75 28.8 -1.9 28.55 -2.0 28.45 -2.25 28.3 -2.45 27.85 -2.65 27.75 -2.9 27.6 -3.1 27.45 -3.25 26.95 -3.35 26.75 -3.45 26.25 -3.55 26.0 -3.65 25.85 -3.85 25.35 -3.9 25.1 -3.9 25.0 -4.0 24.9 -3.95 24.7 -3.9 24.45 -3.75 24.25 -3.7 24.0 -3.65 23.95 -3.65 23.85 -3.4 M24.2 -4.0 L24.0 -3.9 23.95 -3.7 24.0 -3.65 24.25 -3.7 24.45 -3.8 24.65 -3.9 24.9 -4.0 25.0 -4.0 24.9 -4.05 24.65 -4.0 24.2 -4.0 24.65 -4.05 24.9 -4.1 25.05 -4.0 25.15 -4.05 25.4 -4.05 25.65 -4.1 25.8 -4.25 26.05 -4.3 26.75 -4.5 26.9 -4.75 27.1 -4.85 27.35 -4.95 27.6 -4.95 27.75 -5.05 27.6 -4.9 27.35 -4.9 27.1 -4.85 26.9 -4.7 26.8 -4.5 26.1 -4.25 25.85 -4.25 25.65 -4.05 25.4 -4.05 25.15 -4.05 25.05 -4.0 25.15 -3.95 25.4 -3.95 25.85 -3.85 26.05 -3.65 26.25 -3.55 26.75 -3.45 27.2 -3.35 27.45 -3.25 27.65 -3.1 27.85 -2.65 28.1 -2.6 28.35 -2.45 28.5 -2.25 28.6 -2.05 28.8 -1.95 29.0 -1.75 29.2 -1.65 29.4 -1.5 29.7 -1.1 30.1 -0.85 30.45 -0.5 30.7 -0.45 30.9 -0.3 31.2 -0.3 31.35 -0.2 31.6 -0.15 31.85 0.0 32.1 0.0 32.5 0.3 32.75 0.35 32.85 0.55 33.1 0.6 33.3 0.75 33.55 0.85 33.8 0.9 34.0 1.0 34.25 1.0 34.45 1.15 34.7 1.15 34.9 1.0 35.15 0.95 35.6 0.7 35.85 0.7 36.35 0.55 36.8 0.65 36.9 0.55 37.2 0.2 37.45 -0.2 37.8 -0.5 37.9 -0.6 37.45 -0.7 36.5 -0.85 35.2 -1.55 34.85 -1.9 33.95 -2.3 32.9 -3.3 32.1 -3.85 31.5 -4.5 31.4 -4.5 31.2 -4.6 30.95 -4.5 30.7 -4.5 30.5 -4.6 30.25 -4.55 29.8 -4.75 29.55 -4.7 29.3 -4.7 28.65 -5.1 28.15 -5.1 27.95 -5.15 27.85 -5.1 27.95 -5.15 27.75 -5.3 26.8 -5.65 26.55 -5.65 26.35 -5.6 26.1 -5.5 25.85 -5.55 25.65 -5.4 25.4 -5.5 25.15 -5.4 24.95 -5.25 24.7 -5.25 24.5 -5.15 24.0 -4.55 24.0 -4.3 24.05 -4.05 24.0 -3.95 24.2 -4.0 M16.2 -3.1 L15.8 -2.8 15.35 -2.6 15.15 -2.45 14.9 -2.0 14.65 -1.95 14.45 -1.75 14.25 -1.7 14.2 -1.65 14.4 -1.65 14.65 -1.6 15.25 -1.15 15.45 -1.05 15.7 -1.05 15.9 -0.9 16.4 -0.85 16.85 -1.0 17.1 -1.0 17.3 -1.1 17.55 -1.1 17.75 -1.3 18.25 -1.4 18.45 -1.55 18.7 -1.6 18.9 -1.7 19.55 -2.05 20.05 -2.05 20.3 -2.15 20.4 -2.35 20.65 -2.45 20.8 -2.65 21.0 -2.75 21.25 -2.8 21.5 -2.95 21.7 -2.95 21.95 -3.0 22.2 -3.05 22.85 -3.5 23.1 -3.45 23.3 -3.65 23.55 -3.65 23.75 -3.75 23.9 -3.7 23.95 -3.85 24.0 -3.9 23.95 -3.9 23.5 -3.95 23.25 -3.95 23.0 -3.9 22.75 -3.85 22.2 -3.7 22.0 -3.7 21.75 -3.75 21.3 -3.45 21.1 -3.45 20.65 -3.15 20.4 -3.15 20.2 -3.05 18.7 -3.3 18.45 -3.25 17.75 -3.6 17.3 -3.5 17.05 -3.5 16.8 -3.45 16.6 -3.3 16.35 -3.3 16.2 -3.1 M10.35 -0.4 L10.2 -0.2 9.95 -0.15 9.55 0.1 9.35 0.3 9.15 0.4 9.0 0.6 8.75 0.65 8.55 0.85 8.3 0.85 8.05 0.85 7.9 1.05 7.65 1.1 7.4 1.15 7.2 1.3 7.0 1.4 6.75 1.4 6.55 1.55 6.3 1.6 6.1 1.7 5.9 1.9 5.65 1.95 5.45 2.05 5.25 2.2 5.0 2.2 4.75 2.25 4.65 2.3 5.4 2.4 5.6 2.55 5.8 2.55 6.05 2.65 6.0 2.7 5.8 2.6 5.55 2.6 5.35 2.45 4.85 2.45 4.65 2.35 4.4 2.4 4.25 2.3 4.05 2.45 3.55 2.45 3.35 2.55 3.55 2.6 4.25 3.35 4.65 3.6 5.35 4.25 6.6 5.05 6.85 5.1 7.05 5.05 7.5 5.15 7.75 5.1 8.0 5.0 8.25 5.0 8.4 4.95 8.25 4.8 8.1 4.55 7.95 4.4 7.8 4.2 7.7 3.95 7.55 3.45 7.35 3.35 7.2 3.15 6.5 2.95 6.05 2.7 6.05 2.65 6.95 3.05 7.25 3.1 7.4 3.3 7.6 3.4 7.85 4.15 7.95 4.35 8.15 4.5 8.3 4.75 8.45 4.9 9.2 4.85 9.9 5.05 9.9 4.95 9.95 4.7 10.35 4.1 10.35 3.85 10.55 3.4 10.7 3.2 10.95 3.1 11.1 2.9 11.35 2.8 11.6 2.8 11.75 2.6 12.0 2.5 12.25 2.5 12.4 2.3 12.65 2.1 13.1 2.05 13.35 2.1 13.6 2.05 13.85 2.15 14.1 2.15 14.8 2.4 15.05 2.4 15.55 2.25 15.75 2.25 16.0 2.2 16.75 2.2 16.9 1.95 17.1 1.8 17.6 1.95 17.85 1.9 18.55 2.1 18.8 2.1 19.05 2.0 19.5 2.05 19.75 1.95 20.0 1.95 20.25 2.1 21.2 2.0 21.65 1.85 21.85 1.75 22.1 1.75 22.5 1.45 22.65 1.25 22.7 1.0 23.1 0.35 23.45 0.05 23.9 -0.25 24.05 -0.7 24.0 -0.95 23.95 -1.2 24.1 -1.7 24.05 -1.95 24.1 -2.2 24.1 -2.4 24.05 -2.65 23.85 -3.15 23.8 -3.4 23.9 -3.65 23.75 -3.75 23.55 -3.65 23.3 -3.6 23.1 -3.45 22.85 -3.45 22.2 -3.0 21.95 -3.0 21.75 -2.95 21.5 -2.9 21.25 -2.8 21.05 -2.7 20.8 -2.65 20.65 -2.45 20.4 -2.35 20.3 -2.1 20.05 -2.05 19.55 -2.0 18.9 -1.7 18.7 -1.55 18.45 -1.5 18.25 -1.4 17.75 -1.25 17.55 -1.1 17.3 -1.1 17.1 -1.0 16.85 -1.0 16.4 -0.85 15.9 -0.85 15.7 -1.0 15.2 -1.15 14.65 -1.6 14.15 -1.65 14.05 -1.5 13.85 -1.4 13.65 -1.2 13.45 -1.15 13.2 -1.0 12.5 -1.1 12.25 -1.1 12.0 -1.1 11.75 -1.05 11.25 -1.2 10.6 -0.85 10.35 -0.4 M12.3 -7.0 L12.6 -7.2 12.55 -7.2 12.05 -7.15 11.95 -7.2 11.85 -6.9 11.95 -6.7 12.3 -7.0 M0.1 -0.4 L0.0 -0.6 -0.2 -0.7 -0.3 -0.95 -0.45 -1.15 -0.6 -1.35 -0.75 -1.55 -0.85 -1.8 -1.0 -2.0 -1.2 -2.1 -1.25 -2.4 -1.35 -2.6 -1.75 -2.9 -1.8 -3.15 -1.95 -3.35 -2.2 -3.8 -2.4 -3.95 -2.55 -4.1 -2.6 -4.4 -3.5 -4.85 -3.65 -5.05 -3.85 -5.2 -4.3 -5.4 -4.4 -5.6 -4.9 -6.15 -5.05 -6.35 -5.2 -6.55 -5.25 -6.8 -5.4 -7.0 -5.6 -7.15 -5.85 -7.25 -6.4 -8.0 -6.8 -7.8 -7.75 -6.7 -8.5 -6.1 -8.65 -6.05 -7.8 -5.3 -7.05 -4.45 -5.25 -3.45 -5.4 -3.1 -6.25 -3.5 -6.0 -3.25 -5.8 -2.8 -5.55 -2.4 -5.1 -2.15 -5.2 -2.1 -5.05 -1.9 -4.9 -1.65 -4.8 -1.45 -4.6 -1.3 -4.35 -1.25 -4.2 -1.05 -3.95 -0.6 -3.3 -0.35 -3.1 -0.15 -2.9 -0.05 -2.5 0.0 -2.95 -0.3 -3.4 -0.4 -4.9 -1.7 -4.8 -1.8 -3.35 -0.55 -2.85 -0.4 -2.0 0.05 -2.1 0.15 -1.95 0.25 -1.75 0.2 -1.55 0.4 -1.3 0.5 -1.15 0.7 -0.9 0.75 -0.65 0.75 -0.6 0.85 -0.3 0.9 -0.35 1.0 -0.25 1.05 -0.05 1.25 0.2 1.3 0.35 1.45 0.45 1.55 0.5 1.45 0.6 1.2 0.6 0.95 0.45 0.25 0.45 0.0 0.3 -0.2 0.1 -0.4 M0.7 -1.65 L0.15 -2.4 -0.55 -3.05 -1.35 -3.6 -2.2 -4.15 -2.7 -5.0 -2.7 -5.95 -2.8 -6.45 -2.8 -6.9 -3.35 -7.75 -3.55 -7.85 -3.9 -8.2 -4.2 -8.4 -4.6 -8.45 -5.5 -8.45 -5.95 -8.25 -6.4 -8.0 -5.95 -7.5 -5.8 -7.3 -5.4 -7.0 -5.2 -6.8 -5.15 -6.55 -5.05 -6.35 -4.85 -6.2 -4.4 -5.65 -4.25 -5.45 -3.8 -5.25 -3.6 -5.05 -3.45 -4.85 -2.55 -4.4 -2.5 -4.15 -2.35 -3.95 -2.2 -3.8 -1.95 -3.35 -1.8 -3.2 -1.75 -2.9 -1.5 -2.75 -1.35 -2.6 -1.2 -2.4 -1.2 -2.15 -0.95 -2.0 -0.8 -1.8 -0.75 -1.55 -0.55 -1.4 -0.45 -1.15 -0.3 -0.95 -0.2 -0.75 0.05 -0.6 0.15 -0.4 0.35 -0.25 0.5 -0.05 0.45 0.25 0.65 0.95 0.6 1.2 0.55 1.45 0.75 1.75 1.2 1.9 1.25 1.95 1.5 2.0 2.05 1.8 1.95 1.45 0.95 -0.2 0.95 -0.7 0.7 -1.65 M0.25 -9.65 L0.05 -9.8 0.0 -10.05 -0.2 -10.2 -0.35 -10.4 -0.6 -10.55 -0.75 -10.7 -1.0 -10.8 -1.15 -11.0 -1.35 -11.15 -1.45 -11.4 -1.65 -11.55 -2.1 -11.7 -2.5 -12.0 -2.65 -12.25 -2.85 -12.35 -3.0 -12.6 -3.35 -12.85 -3.65 -12.9 -3.85 -13.0 -4.35 -13.1 -4.5 -13.3 -4.7 -13.4 -5.3 -13.8 -5.8 -14.0 -5.95 -14.15 -6.15 -14.3 -6.3 -14.55 -6.65 -14.9 -6.7 -15.1 -6.85 -15.3 -6.9 -15.55 -7.1 -15.7 -7.6 -15.8 -7.8 -15.95 -7.9 -15.95 -7.65 -15.7 -7.1 -14.9 -6.95 -14.45 -6.7 -14.0 -6.4 -13.7 -5.85 -12.9 -5.45 -12.55 -5.3 -12.1 -4.85 -11.25 -4.55 -10.85 -4.45 -10.4 -4.2 -10.0 -3.85 -9.05 -3.7 -8.6 -3.65 -8.5 -3.6 -8.5 -3.15 -8.5 -2.7 -8.65 -1.75 -8.7 -1.25 -8.85 -0.3 -8.95 0.2 -8.9 0.65 -9.1 0.9 -9.15 0.85 -9.25 0.7 -9.45 0.25 -9.65 M6.0 -6.3 L5.9 -6.3 5.4 -6.2 3.5 -6.35 2.55 -6.6 -0.85 -6.75 -1.25 -7.0 -3.15 -7.7 -2.7 -6.95 -2.7 -6.45 -2.6 -6.0 -2.65 -5.0 -2.1 -4.2 -1.75 -3.9 -1.3 -3.7 -0.5 -3.15 0.2 -2.45 0.5 -2.1 0.75 -1.7 1.0 -0.75 1.0 -0.25 2.0 1.4 2.1 1.75 2.3 1.75 2.55 1.9 2.8 1.9 3.05 1.95 3.25 2.05 3.45 2.25 3.95 2.2 4.2 2.2 4.25 2.25 4.5 2.25 4.75 2.15 4.95 2.1 5.2 2.15 5.4 1.95 5.65 1.85 5.85 1.8 6.05 1.65 6.25 1.55 6.5 1.45 6.7 1.3 6.95 1.3 7.2 1.25 7.35 1.05 7.6 1.05 7.85 1.0 8.05 0.8 8.3 0.75 8.55 0.75 8.7 0.55 8.95 0.5 9.1 0.35 9.3 0.2 9.5 0.05 9.9 -0.2 10.15 -0.3 10.35 -0.45 10.55 -0.9 11.2 -1.25 11.75 -1.15 12.0 -1.2 12.25 -1.15 12.45 -1.2 12.7 -1.1 13.2 -1.05 13.4 -1.2 13.65 -1.25 13.8 -1.45 14.0 -1.6 14.1 -1.65 13.45 -1.8 13.25 -1.95 12.95 -1.9 12.75 -2.05 12.4 -2.45 12.2 -2.55 11.95 -2.55 11.7 -2.65 11.45 -2.65 10.45 -2.85 10.1 -3.2 9.8 -3.55 9.6 -3.7 9.45 -3.9 9.3 -4.1 9.25 -4.35 8.8 -4.55 8.65 -4.8 8.4 -4.85 8.3 -5.1 7.55 -5.35 7.4 -5.55 7.2 -5.65 7.05 -5.85 6.55 -5.95 6.35 -6.1 6.1 -6.15 6.0 -6.3 M5.25 -6.55 L5.5 -6.5 5.95 -6.4 5.95 -6.4 6.3 -6.55 7.3 -6.4 8.7 -5.95 9.15 -5.95 9.6 -6.05 10.05 -6.3 11.95 -6.65 11.85 -6.9 11.9 -7.2 11.6 -7.25 11.1 -7.45 10.75 -7.7 10.3 -7.8 9.35 -7.5 8.9 -7.5 8.45 -7.3 7.95 -7.25 6.95 -7.3 5.5 -7.2 4.05 -7.6 3.65 -7.85 3.15 -7.95 2.8 -8.3 Q2.4 -8.55 2.0 -8.8 L1.55 -8.9 1.1 -9.1 1.05 -9.05 1.65 -8.7 1.85 -8.55 1.9 -8.3 2.0 -8.05 2.15 -7.85 Q2.35 -7.7 2.55 -7.6 L2.8 -7.6 3.0 -7.45 3.25 -7.45 4.35 -6.95 4.85 -6.85 5.25 -6.55 M5.45 -6.5 L5.2 -6.5 4.8 -6.8 4.6 -6.9 4.35 -6.9 3.25 -7.4 3.0 -7.4 2.8 -7.55 2.55 -7.55 2.1 -7.8 1.95 -8.0 1.85 -8.25 1.8 -8.5 1.65 -8.7 1.4 -8.75 1.0 -9.0 0.95 -9.05 0.2 -8.8 -0.3 -8.8 -1.25 -8.7 -1.7 -8.6 -2.65 -8.55 -3.15 -8.35 -3.6 -8.35 -3.5 -8.15 -3.2 -7.8 -1.7 -7.2 -1.2 -7.1 -0.8 -6.8 -0.35 -6.7 2.55 -6.65 3.5 -6.4 5.4 -6.25 5.9 -6.35 5.9 -6.35 5.45 -6.5 M1.2 -21.6 L-0.7 -21.95 -1.1 -22.25 -2.3 -22.85 -2.75 -22.8 -3.0 -22.7 -3.2 -22.65 -3.3 -22.55 -4.05 -22.5 -4.5 -22.3 -5.0 -22.3 -5.2 -22.4 -5.7 -22.25 -5.95 -22.25 -6.4 -22.1 -6.6 -21.95 -6.85 -21.95 -7.15 -22.05 -7.35 -21.9 -7.55 -21.85 -8.35 -21.95 -8.8 -21.95 -9.1 -21.9 -9.55 -22.05 -9.8 -22.1 -9.95 -22.3 -10.2 -22.4 -10.45 -22.45 -10.95 -22.55 -11.05 -22.8 -11.2 -23.0 -11.4 -23.1 -11.6 -23.15 -11.75 -23.15 -12.6 -23.0 -13.1 -23.0 -14.45 -22.5 -14.95 -22.4 -15.8 -22.05 -16.15 -21.7 -17.75 -20.55 -18.6 -20.15 -19.1 -20.1 -19.55 -19.9 -20.35 -19.45 -20.85 -19.3 -21.25 -19.1 -21.95 -18.45 -22.35 -18.25 -22.7 -18.0 -22.8 -17.75 -22.1 -17.8 -21.25 -17.35 -20.4 -17.15 -19.1 -17.4 -17.75 -17.95 -17.3 -18.05 -16.85 -18.25 -16.5 -18.55 -16.0 -18.7 -15.55 -18.8 -14.25 -19.35 -13.7 -19.4 -13.25 -19.25 -12.75 -19.2 -12.25 -19.05 -11.45 -18.55 -10.95 -18.45 -10.5 -18.25 -10.15 -17.9 -9.75 -17.6 -9.3 -17.45 -8.95 -17.15 -8.35 -16.35 -8.0 -16.05 -7.75 -16.05 -7.55 -15.9 -7.05 -15.8 -6.85 -15.65 -6.8 -15.35 -6.65 -15.15 -6.55 -14.95 -6.25 -14.6 -6.1 -14.35 -5.9 -14.25 -5.75 -14.05 -5.25 -13.9 -4.7 -13.45 -4.45 -13.4 -4.3 -13.15 -4.05 -13.15 -3.6 -12.95 -3.35 -12.9 -2.95 -12.65 -2.8 -12.45 -2.6 -12.3 -2.45 -12.05 -2.25 -11.95 -2.1 -11.75 -1.85 -11.7 -1.6 -11.6 -1.4 -11.45 -1.3 -11.2 -1.1 -11.05 -0.95 -10.85 -0.7 -10.75 -0.55 -10.6 -0.3 -10.45 -0.15 -10.25 0.05 -10.1 0.1 -9.85 0.3 -9.7 0.75 -9.5 0.9 -9.3 0.95 -9.15 1.1 -9.2 2.05 -8.95 3.25 -8.05 3.7 -7.95 4.15 -7.7 5.5 -7.3 6.95 -7.4 7.95 -7.35 8.4 -7.4 8.85 -7.6 9.35 -7.6 10.25 -7.9 10.75 -7.85 11.15 -7.55 11.6 -7.35 11.9 -7.3 12.0 -7.65 11.8 -8.1 11.7 -8.35 11.7 -8.6 11.75 -8.85 12.0 -9.3 12.1 -9.75 12.15 -10.0 12.2 -10.2 12.35 -10.45 12.35 -10.65 12.5 -10.9 12.6 -11.1 12.6 -11.35 12.7 -11.6 12.8 -11.8 12.75 -12.05 12.85 -12.3 12.8 -12.8 12.85 -13.05 13.0 -13.2 13.05 -13.45 13.0 -13.75 13.1 -13.95 13.15 -14.2 13.3 -14.4 13.3 -14.9 13.4 -15.15 13.4 -15.85 13.5 -16.1 13.35 -16.8 13.55 -16.95 13.55 -17.2 13.6 -17.45 13.75 -17.65 13.8 -17.9 13.85 -18.15 13.8 -18.4 13.85 -18.65 13.8 -18.95 13.85 -19.05 12.85 -19.2 12.4 -19.1 11.0 -19.55 10.55 -19.65 8.7 -20.15 7.85 -20.6 6.0 -21.05 5.5 -20.9 4.1 -21.15 3.6 -21.1 1.65 -21.4 1.2 -21.6 M0.55 -24.5 L0.1 -24.25 -0.4 -24.2 -1.85 -24.45 -2.8 -24.45 -3.2 -24.15 -3.65 -24.0 -4.1 -23.9 Q-4.55 -23.7 -5.0 -23.5 L-5.85 -23.45 -5.75 -23.4 -5.5 -23.4 -5.3 -23.3 -4.8 -23.2 -4.55 -23.2 -4.3 -23.1 -4.25 -23.05 -3.8 -23.2 -2.8 -23.0 -2.75 -23.05 -2.55 -23.2 -1.75 -23.25 -1.55 -23.3 -1.15 -23.65 -0.85 -23.65 -0.65 -23.75 -0.5 -23.95 -0.25 -24.0 -0.05 -24.15 0.2 -24.15 0.4 -24.35 0.6 -24.45 0.7 -24.55 0.55 -24.5 M1.45 -24.75 L1.25 -24.7 1.55 -24.75 1.7 -24.85 1.45 -24.75 M4.35 -25.25 L4.1 -25.15 3.65 -25.0 3.4 -25.0 3.15 -25.1 2.95 -25.05 2.7 -25.15 2.45 -25.05 2.2 -24.95 1.95 -24.95 1.75 -24.85 1.55 -24.7 1.1 -24.65 0.8 -24.55 0.4 -24.3 0.2 -24.15 0.0 -24.1 -0.25 -24.0 -0.45 -23.9 -0.65 -23.75 -0.85 -23.6 -1.15 -23.6 -1.55 -23.3 -1.75 -23.2 -2.5 -23.15 -2.7 -23.05 -2.75 -23.0 -2.35 -22.95 -2.3 -22.9 -2.25 -22.9 -2.0 -22.9 -1.75 -22.8 -1.5 -22.85 -1.25 -22.85 -0.8 -22.85 -0.55 -22.9 -0.05 -22.7 0.65 -23.0 0.85 -23.05 1.4 -23.1 1.6 -23.0 2.1 -23.0 2.3 -23.1 2.55 -23.15 2.8 -23.15 3.0 -23.25 3.4 -23.5 4.4 -23.5 4.65 -23.55 4.9 -23.65 5.1 -23.65 5.65 -23.6 6.1 -23.75 6.3 -23.9 6.55 -23.95 6.8 -23.95 7.0 -24.05 7.25 -23.95 8.0 -24.05 8.2 -24.15 7.55 -24.5 7.35 -24.5 7.05 -24.45 6.6 -24.65 6.25 -24.95 5.8 -25.1 5.5 -25.0 5.05 -25.25 4.85 -25.25 4.35 -25.25 M20.2 -32.65 L19.95 -32.65 19.6 -32.25 19.1 -32.15 18.85 -32.2 18.1 -32.15 17.9 -31.95 17.7 -31.9 17.45 -31.85 17.25 -31.7 17.05 -31.55 16.8 -31.5 16.65 -31.3 16.4 -31.3 16.2 -31.15 16.0 -31.0 15.75 -30.95 15.55 -30.85 15.4 -30.6 15.15 -30.5 14.95 -30.35 14.85 -30.15 14.6 -30.05 14.2 -29.75 14.05 -29.6 13.85 -29.15 13.55 -28.8 13.3 -28.65 13.3 -28.4 13.2 -28.2 13.25 -27.95 13.05 -27.75 12.95 -27.55 12.8 -27.35 12.75 -27.1 12.8 -26.85 12.95 -26.65 13.0 -26.4 13.0 -26.45 13.2 -26.55 13.75 -27.0 13.95 -27.2 14.2 -27.25 14.35 -27.5 14.6 -27.45 14.85 -27.55 15.1 -27.55 15.8 -27.75 16.05 -27.8 16.25 -27.85 16.8 -27.9 17.0 -28.0 17.15 -28.2 17.35 -28.4 17.45 -28.6 17.6 -28.8 17.85 -28.9 18.1 -29.35 18.55 -29.6 18.75 -29.75 18.85 -29.95 19.05 -30.1 19.1 -30.35 19.3 -30.5 19.45 -30.7 19.55 -30.95 19.65 -31.4 19.75 -31.6 19.95 -31.8 20.0 -32.0 20.05 -32.3 20.25 -32.45 20.4 -32.65 20.4 -32.75 20.2 -32.65 M30.45 -36.4 L30.6 -36.4 30.45 -36.4 30.25 -36.3 30.45 -36.4 M33.25 -37.15 L33.45 -37.3 33.05 -36.95 33.25 -37.15 M33.05 -36.95 L32.85 -36.85 32.8 -36.85 33.05 -36.95 M63.15 -2.55 L63.35 -2.65 63.5 -2.85 63.5 -2.85 63.35 -2.65 63.15 -2.5 62.9 -2.45 62.7 -2.35 62.5 -2.2 62.3 -2.1 62.05 -2.1 62.3 -2.15 62.5 -2.2 62.7 -2.35 62.9 -2.45 63.15 -2.55 M60.6 -1.85 L60.05 -1.9 59.85 -1.75 59.6 -1.7 59.4 -1.6 59.2 -1.45 59.4 -1.6 59.6 -1.75 59.85 -1.75 60.05 -1.95 60.6 -1.85 60.85 -1.85 61.05 -1.95 61.05 -1.95 60.85 -1.85 60.6 -1.85 M58.45 -0.5 L58.6 -0.7 58.8 -0.9 59.05 -0.95 59.1 -1.1 59.05 -0.95 58.8 -0.85 58.6 -0.7 58.45 -0.5 58.35 -0.3 58.3 -0.05 58.1 0.3 58.3 -0.05 58.3 -0.3 58.45 -0.5 M38.4 -0.5 L37.95 -0.6 37.85 -0.45 37.5 -0.2 37.25 0.25 36.85 0.65 37.05 0.8 37.5 0.95 38.3 0.9 38.95 1.2 39.2 1.1 39.45 1.05 39.65 1.2 39.9 1.3 40.15 1.35 40.35 1.45 40.6 1.5 40.8 1.6 41.3 1.7 41.5 1.8 41.55 1.8 41.45 1.75 41.05 1.45 40.6 1.25 40.25 0.95 40.0 0.55 39.2 0.0 38.75 -0.15 38.4 -0.5 M33.7 -4.45 L33.75 -4.45 33.4 -4.6 32.7 -4.5 32.75 -4.45 33.0 -4.45 33.2 -4.35 33.45 -4.35 33.7 -4.45 M61.35 -1.9 L61.55 -2.0 62.05 -2.1 61.55 -2.0 61.35 -1.9 M40.2 30.75 L40.2 30.75 40.25 31.0 40.2 31.25 40.25 31.5 40.2 31.75 40.25 32.0 40.25 32.25 40.3 32.5 40.25 32.7 40.2 32.7 40.25 32.5 40.2 32.25 40.2 31.75 40.2 31.25 40.25 31.0 40.2 30.75 M40.2 30.45 L40.2 30.0 40.0 29.85 39.85 29.7 40.2 30.0 40.2 30.45 M39.0 28.2 L39.15 28.4 39.3 28.55 39.45 28.75 39.5 29.0 39.65 29.2 39.65 29.45 39.75 29.55 39.65 29.45 39.6 29.2 39.5 29.0 39.45 28.75 39.3 28.55 39.1 28.4 39.0 28.2 M35.35 29.6 L35.2 29.4 35.0 29.2 34.9 29.0 34.65 28.7 34.9 29.0 35.05 29.2 35.2 29.35 35.35 29.6 35.55 29.75 35.55 30.0 35.7 30.2 35.75 30.45 36.1 30.75 36.35 30.85 36.1 30.75 35.7 30.45 35.65 30.2 35.55 30.0 35.5 29.75 35.35 29.6 M33.5 28.1 L34.0 28.05 34.2 28.3 34.4 28.5 34.15 28.3 34.0 28.1 33.5 28.1 33.25 28.0 33.05 28.1 32.8 28.05 32.55 27.95 32.1 27.9 31.9 27.7 31.2 27.55 31.0 27.35 30.9 27.15 30.7 27.0 30.5 26.75 30.7 27.0 30.9 27.1 31.05 27.35 31.2 27.5 31.9 27.7 32.1 27.9 32.55 27.95 32.8 28.05 33.05 28.1 33.25 28.0 33.5 28.1 M42.9 2.15 L42.6 2.2 42.4 2.15 42.2 2.0 41.75 1.75 41.65 1.8 42.35 2.15 42.8 2.25 43.25 2.5 43.25 2.45 43.05 2.35 42.9 2.15 M36.6 30.9 L36.8 31.05 37.3 31.6 37.4 31.8 37.65 32.25 38.1 32.45 38.55 32.65 38.65 32.8 38.55 32.7 38.1 32.45 37.85 32.4 37.65 32.25 37.4 31.8 37.3 31.6 36.8 31.05 36.6 30.9 M40.2 33.55 L40.0 33.45 39.75 33.45 40.0 33.45 40.2 33.55 40.7 33.75 41.2 33.75 41.4 33.8 41.5 33.9 41.4 33.8 41.2 33.75 40.65 33.75 40.2 33.55 M38.9 33.0 L39.15 33.05 39.3 33.25 39.55 33.3 39.75 33.45 39.3 33.25 39.1 33.1 38.9 33.05 38.75 32.9 38.9 33.0 M43.2 35.75 L42.95 35.3 42.8 35.15 42.75 34.9 42.55 34.7 42.75 34.85 42.8 35.15 43.0 35.3 43.2 35.75 43.25 36.0 43.3 36.25 43.45 36.45 43.5 36.65 43.65 36.85 43.5 36.65 43.4 36.45 43.3 36.25 43.2 36.0 43.2 35.75 M42.4 34.5 L42.4 34.5 42.55 34.7 42.4 34.5 M43.65 36.85 L43.8 37.05 44.05 37.45 43.65 36.85 M26.1 47.6 L26.25 47.65 26.75 47.75 26.95 47.9 27.15 47.95 27.45 47.95 27.6 48.15 27.8 48.25 27.9 48.5 28.1 48.7 28.3 48.8 28.6 49.2 28.8 49.35 28.9 49.6 29.15 49.65 29.35 49.8 29.6 49.85 29.8 50.0 29.95 50.25 30.45 50.35 30.85 50.6 31.1 50.6 31.35 50.7 31.45 50.95 31.65 51.05 31.8 51.25 32.0 51.4 32.1 51.65 32.45 51.95 32.55 52.2 32.75 52.65 32.8 52.9 32.95 53.1 32.8 52.9 32.75 52.65 32.5 52.2 32.45 51.95 32.1 51.65 31.95 51.45 31.8 51.3 31.65 51.05 31.45 50.95 31.3 50.7 31.1 50.6 30.85 50.6 30.4 50.35 29.95 50.25 29.75 50.05 29.6 49.85 29.35 49.8 28.9 49.6 28.8 49.35 28.55 49.2 28.3 48.85 28.05 48.7 27.9 48.55 27.8 48.3 27.6 48.15 27.45 47.95 27.15 47.95 26.95 47.9 26.75 47.75 26.5 47.7 26.1 47.6 M2.35 5.4 L2.15 5.4 2.45 5.7 2.7 5.8 2.85 6.0 3.0 6.15 3.25 6.25 3.75 6.3 3.9 6.5 4.15 6.55 4.3 6.75 4.5 6.95 5.5 7.15 5.7 7.3 6.25 7.55 6.1 7.25 5.95 7.1 5.25 6.95 4.85 6.7 4.45 6.35 4.05 6.1 3.7 5.8 2.35 5.4 M0.3 1.55 L0.15 1.35 0.0 1.35 0.0 1.35 -0.05 1.3 -0.15 1.3 -0.3 1.15 -0.5 1.05 -1.3 0.75 -1.25 0.7 -1.35 0.6 -1.6 0.5 -1.75 0.3 -2.0 0.35 -2.2 0.2 -2.95 0.05 -3.15 -0.05 -3.35 -0.25 -4.05 -0.5 -4.2 -0.7 -4.3 -0.95 -4.45 -1.15 -4.65 -1.2 -4.85 -1.35 -5.0 -1.6 -5.1 -1.8 -5.3 -2.0 -5.6 -2.3 -5.65 -2.35 -5.95 -2.7 -6.15 -3.15 -6.45 -3.55 -6.55 -3.7 -7.3 -4.15 -8.05 -5.0 -12.6 -8.95 -12.2 -8.25 -12.15 -7.75 -11.9 -7.3 -11.8 -6.85 -10.95 -5.1 -10.65 -4.75 -10.6 -3.75 -10.3 -2.85 -10.1 -2.4 -9.75 -2.05 -9.3 -0.65 -9.25 -0.65 -9.25 -0.6 -9.1 -0.2 -8.9 0.2 -8.75 0.7 -8.45 1.0 -8.35 1.5 -8.05 1.9 -7.85 2.3 -7.15 2.95 -6.85 3.35 -6.1 3.95 -5.2 4.3 -4.75 4.35 -3.4 4.9 -2.4 5.0 -1.95 5.2 -0.55 5.15 -0.05 5.3 2.05 5.3 2.0 5.15 1.85 4.95 1.75 4.75 1.4 4.4 1.1 4.0 0.95 3.8 1.1 3.05 1.0 2.8 1.0 2.55 0.85 2.35 0.7 1.9 0.65 1.8 0.3 1.55 M2.55 2.4 L2.15 2.2 1.45 2.1 1.4 2.15 1.2 2.05 1.25 2.05 1.15 2.0 0.8 1.85 0.75 1.9 0.9 2.35 1.05 2.55 1.05 2.8 1.15 3.05 0.95 3.8 1.15 4.0 1.4 4.4 1.8 4.7 1.9 4.95 2.0 5.15 2.1 5.3 2.35 5.3 3.75 5.7 4.1 6.05 4.55 6.3 4.9 6.6 5.3 6.85 5.75 6.95 5.7 6.9 5.4 6.55 5.0 6.25 4.7 5.9 4.3 5.6 3.65 4.85 3.45 4.4 3.1 4.05 2.65 2.65 2.55 2.4 M2.1 1.9 L2.05 1.85 1.65 2.05 1.7 2.05 2.2 2.05 2.35 2.15 2.1 1.9 M2.35 1.85 L2.15 1.85 2.5 2.2 2.55 2.3 2.6 2.35 3.3 2.5 3.55 2.35 4.0 2.35 4.15 2.3 3.45 2.3 3.0 2.0 2.75 1.95 2.5 1.95 2.35 1.85 M11.9 8.1 L12.0 8.1 11.9 7.95 11.9 8.1 11.9 8.2 12.0 8.4 12.3 8.8 12.5 9.25 12.5 9.5 12.6 9.7 12.75 9.95 12.85 10.15 12.85 10.4 12.9 10.65 13.05 10.8 13.45 11.1 13.65 11.3 13.75 11.5 13.9 11.7 14.0 11.9 14.4 12.2 14.8 12.4 15.25 12.6 15.5 12.65 15.7 12.8 15.85 12.85 15.85 12.5 15.6 12.05 15.55 11.6 15.3 11.15 14.55 9.95 14.25 9.55 13.1 8.7 12.25 8.25 12.05 8.1 11.9 8.1 M8.85 5.8 L6.55 5.15 6.1 4.9 4.55 3.7 4.15 3.45 3.5 2.75 2.65 2.45 2.75 2.65 3.2 4.0 3.5 4.4 3.7 4.8 4.35 5.55 4.75 5.8 5.05 6.2 5.45 6.5 5.75 6.85 5.9 7.0 6.2 7.15 7.15 7.25 7.65 7.25 8.1 7.1 8.6 7.2 9.1 7.2 9.4 6.8 9.65 6.4 9.65 6.25 8.85 5.8 M9.6 5.8 L9.35 5.7 9.25 5.5 9.05 5.3 8.6 5.15 8.45 5.0 8.25 5.1 8.0 5.1 7.75 5.2 7.55 5.2 7.05 5.15 7.0 5.15 7.05 5.15 7.5 5.35 8.9 5.7 9.7 6.1 9.65 5.9 9.65 5.85 9.6 5.8 M9.85 5.1 L9.2 4.95 8.5 5.0 8.6 5.1 9.1 5.25 9.25 5.45 9.4 5.65 9.65 5.75 9.85 5.2 9.85 5.1 M10.3 6.45 L10.15 6.25 9.7 5.85 9.7 5.9 9.75 6.1 9.8 6.15 10.2 6.4 10.15 6.5 9.75 6.25 9.7 6.4 9.3 7.05 9.15 7.2 9.55 7.35 10.05 7.4 10.95 7.7 11.65 7.8 11.55 7.55 10.9 7.15 10.55 6.85 10.5 6.6 10.5 6.55 10.3 6.45 M10.55 6.6 L10.6 6.8 10.95 7.15 11.4 7.35 11.6 7.5 11.65 7.75 11.75 7.85 11.9 7.9 12.2 8.1 12.3 8.1 12.55 8.05 12.8 8.1 13.0 8.05 13.5 8.3 13.75 8.35 14.2 8.35 14.45 8.4 15.35 8.9 15.75 8.95 15.65 8.75 15.45 8.65 15.4 8.4 15.2 8.2 14.75 8.0 14.6 7.85 14.5 7.6 14.25 7.5 14.1 7.3 14.0 7.05 13.8 6.75 13.05 6.9 12.55 6.9 12.05 6.9 10.55 6.6 M11.8 5.3 L11.55 5.3 11.1 5.25 10.6 5.3 10.4 5.15 10.15 5.1 9.95 5.1 9.9 5.2 9.85 5.45 9.75 5.8 10.2 6.2 10.3 6.4 12.05 6.8 12.55 6.8 13.0 6.8 13.75 6.7 13.65 6.45 13.35 6.05 13.15 5.9 12.85 5.9 12.7 5.75 12.45 5.75 12.25 5.55 11.8 5.3 M16.6 14.25 L16.4 13.8 16.1 13.4 15.9 13.0 15.85 12.9 15.7 12.85 15.5 12.7 15.25 12.65 14.8 12.45 14.6 12.3 14.35 12.25 14.15 12.1 14.0 11.95 13.85 11.75 13.7 11.55 13.6 11.3 13.45 11.15 13.05 10.85 12.85 10.65 12.8 10.15 12.7 9.95 12.55 9.75 12.45 9.5 12.45 9.3 12.25 8.85 11.95 8.4 11.9 8.2 11.85 8.1 11.8 8.1 11.1 8.35 11.8 8.1 11.85 8.1 11.85 7.95 11.8 7.95 10.0 7.45 9.55 7.45 9.1 7.25 8.6 7.25 8.15 7.2 7.15 7.35 6.2 7.25 6.15 7.2 6.3 7.55 6.35 7.6 6.85 7.55 7.1 7.65 7.35 7.65 7.55 7.8 7.8 7.8 8.0 7.9 8.25 7.9 8.95 8.1 9.2 8.1 9.45 8.15 9.7 8.15 10.35 8.4 10.6 8.4 10.85 8.4 11.1 8.35 10.85 8.45 10.6 8.4 10.35 8.4 10.15 8.3 9.65 8.2 9.2 8.1 8.7 8.1 8.45 8.05 8.25 7.9 8.0 7.9 7.8 7.8 7.55 7.8 7.3 7.7 7.05 7.7 6.85 7.55 6.35 7.6 6.55 8.05 6.65 9.05 6.8 9.5 6.65 9.95 6.65 10.45 6.5 10.9 6.6 11.35 6.8 11.8 6.8 12.3 7.0 12.75 7.1 13.2 7.55 14.1 7.85 14.45 8.25 15.35 9.4 16.2 9.4 16.15 9.85 15.85 10.05 15.75 10.55 15.75 11.05 15.85 11.3 15.85 11.55 15.75 11.8 15.8 12.0 15.65 Q12.1 15.6 12.2 15.5 L12.7 15.5 12.95 15.6 13.2 15.6 13.35 15.8 13.55 15.95 13.8 16.0 14.25 16.2 14.75 16.3 15.05 16.65 15.45 16.95 15.9 17.15 16.3 17.45 16.5 17.55 16.6 17.8 16.75 17.95 16.95 18.1 17.15 18.3 17.25 18.5 17.4 18.75 17.9 18.85 18.1 19.0 18.35 19.0 18.55 19.15 18.8 19.2 18.95 19.35 19.2 19.45 19.35 19.6 19.5 19.8 19.6 20.05 19.75 20.25 19.8 20.25 19.8 19.4 19.65 18.9 19.65 18.45 19.4 18.05 18.85 16.7 18.25 16.0 18.0 15.55 17.25 14.95 16.6 14.25 M17.0 13.35 L16.95 13.2 16.85 13.2 16.1 13.1 15.95 12.95 16.15 13.4 16.45 13.75 16.65 14.2 17.3 14.9 18.05 15.5 18.3 15.95 18.9 16.7 19.45 18.0 19.75 18.4 19.75 18.9 19.85 19.35 19.85 20.25 20.25 20.4 20.4 20.6 20.6 20.75 20.75 20.95 21.45 21.25 21.6 21.45 21.95 21.75 22.2 21.85 22.4 22.0 22.45 22.25 22.75 22.3 22.85 22.5 23.55 22.75 23.7 22.95 23.8 23.2 24.0 23.4 24.25 23.4 24.45 23.55 24.7 23.55 24.9 23.7 25.15 23.75 25.3 23.95 25.5 23.95 25.5 23.8 25.45 23.55 25.4 23.35 25.45 22.8 25.35 22.6 25.05 22.2 25.1 21.95 25.1 21.7 25.0 21.45 24.95 20.95 24.85 20.75 24.55 20.3 24.5 20.1 24.25 19.65 24.05 19.0 23.9 18.8 23.75 18.55 23.75 18.35 23.55 18.15 23.55 17.9 23.4 17.9 23.2 17.75 23.05 17.55 22.9 17.4 22.75 17.2 22.35 16.9 22.1 16.85 21.6 16.95 21.4 16.8 20.9 16.7 20.75 16.5 20.5 16.4 20.35 16.2 20.15 16.05 19.9 16.05 19.65 15.95 19.4 15.95 19.15 15.95 19.0 15.75 18.8 15.6 18.65 15.35 18.5 15.2 18.4 14.95 18.25 14.8 17.95 14.75 17.8 14.55 17.6 14.4 17.5 14.2 17.3 14.05 17.25 13.8 17.0 13.35 M17.55 13.35 L17.35 13.3 17.1 13.3 17.0 13.25 17.05 13.35 17.3 13.75 17.35 14.0 17.55 14.15 17.65 14.4 17.85 14.55 18.0 14.75 18.25 14.75 18.4 14.95 18.5 15.2 18.7 15.35 18.8 15.6 19.0 15.7 19.2 15.9 19.45 15.95 19.7 15.9 19.9 16.0 20.15 16.0 20.55 16.35 20.75 16.45 20.9 16.65 21.6 16.9 22.15 16.85 22.4 16.85 22.75 17.15 22.9 17.4 23.1 17.55 23.25 17.75 23.45 17.9 23.55 17.9 23.55 17.6 23.45 17.4 23.3 16.95 23.25 16.4 22.85 16.15 22.75 15.95 22.25 15.75 22.05 15.6 21.3 15.4 21.1 15.3 20.85 15.25 20.65 15.1 20.4 15.05 20.15 15.1 19.4 14.95 19.25 14.75 19.0 14.7 18.85 14.5 18.75 14.25 18.3 14.0 17.55 13.35 M16.35 10.8 L16.35 10.55 16.2 10.1 16.0 9.9 16.0 9.7 15.9 9.2 15.75 9.0 15.75 8.95 15.35 8.9 14.45 8.4 14.2 8.35 13.7 8.35 13.0 8.1 12.8 8.15 12.55 8.1 12.3 8.15 12.25 8.15 12.3 8.15 13.15 8.6 13.9 9.25 14.3 9.5 14.6 9.9 15.1 10.75 15.4 11.15 15.6 11.55 15.65 12.05 15.9 12.5 15.95 12.9 16.1 13.05 16.9 13.15 16.8 12.95 16.8 12.65 16.6 12.5 16.55 12.25 16.55 12.0 16.6 11.5 16.5 11.25 16.45 11.05 16.35 10.8 M44.35 39.6 L44.3 39.35 44.35 39.6 44.35 39.85 44.5 40.05 44.35 39.85 44.35 39.6 M44.2 38.15 L44.2 38.15 44.35 38.35 44.3 38.6 44.3 38.85 44.35 39.1 44.3 38.85 44.3 38.6 44.35 38.35 44.2 38.15 M44.5 40.05 L44.5 40.3 44.7 40.7 44.85 40.95 44.9 41.2 44.9 41.2 44.85 40.95 44.7 40.75 44.5 40.3 44.5 40.05 M34.8 54.4 L34.55 54.4 34.85 54.4 35.0 54.6 35.25 54.65 35.5 54.65 35.7 54.85 35.85 55.05 36.0 55.2 35.8 55.05 35.65 54.85 35.5 54.7 35.0 54.6 34.8 54.4 M33.35 53.65 L33.1 53.6 33.05 53.4 33.1 53.55 33.35 53.65 33.45 53.9 33.7 54.0 33.85 54.2 34.05 54.3 34.05 54.35 33.85 54.2 33.7 54.0 33.45 53.9 33.35 53.65 M45.75 41.9 L45.85 41.9 46.05 42.05 46.2 42.25 46.05 42.05 45.85 41.9 45.75 41.9 M36.0 55.2 L36.45 55.45 36.65 55.6 36.9 55.6 37.6 55.8 38.0 56.1 38.25 56.2 38.5 56.15 38.65 56.35 38.95 56.3 39.35 56.6 40.05 56.8 40.2 57.0 40.7 57.1 40.85 57.25 41.1 57.3 41.55 57.6 41.55 57.6 41.1 57.35 40.85 57.25 40.7 57.1 40.2 57.0 40.05 56.8 39.35 56.6 38.9 56.35 38.65 56.35 38.5 56.15 38.2 56.2 38.0 56.15 37.6 55.8 36.9 55.6 36.65 55.6 36.45 55.45 36.2 55.35 36.0 55.2 M44.5 58.55 L44.5 58.55 44.5 58.55 M44.0 58.4 L44.25 58.4 44.0 58.4 44.0 58.4 M42.15 57.9 L42.4 57.95 42.6 58.1 42.85 58.1 43.35 58.1 42.85 58.1 42.6 58.1 42.4 57.95 42.15 57.9 M44.7 58.6 L44.9 58.75 45.1 58.95 45.05 58.95 44.9 58.75 44.7 58.6 M46.75 59.35 L46.95 59.4 47.15 59.6 47.15 59.6 46.95 59.4 46.75 59.35 46.75 59.35 M46.25 59.2 L46.25 59.2 46.0 59.2 46.0 59.2 46.25 59.2 M-44.2 -26.05 L-44.2 -26.1 -44.2 -26.05 M-23.0 -17.05 L-23.0 -17.15 -23.4 -17.25 -23.85 -17.2 -24.35 -17.0 -24.45 -16.8 -23.3 -15.9 -23.25 -16.15 -23.0 -17.05 M-22.85 -17.65 L-22.9 -17.55 -22.9 -17.25 -22.45 -17.2 -21.95 -17.2 -20.75 -17.1 -22.15 -17.65 -22.85 -17.65 M-23.9 -17.35 L-23.4 -17.4 -23.05 -17.3 -23.05 -17.55 -23.0 -17.65 -23.1 -17.65 -24.4 -18.3 -25.35 -18.5 -25.4 -18.5 -24.25 -17.25 -24.3 -17.2 -23.9 -17.35 M-17.95 -16.95 L-19.35 -16.75 -20.3 -17.0 -20.5 -16.95 -21.95 -17.05 -22.45 -17.05 -22.85 -17.1 -22.85 -17.05 -23.1 -16.1 -23.2 -15.8 -18.9 -12.55 -18.55 -12.0 -14.9 -10.5 -14.9 -10.55 -13.65 -9.6 -13.8 -9.45 -13.05 -9.35 -13.1 -9.4 -12.9 -9.45 -12.9 -9.45 -12.75 -9.6 -8.75 -6.15 -8.6 -6.2 -7.85 -6.8 -6.9 -7.9 -6.45 -8.15 -6.5 -8.3 -6.8 -8.7 -6.8 -8.95 -7.0 -9.4 -7.1 -9.65 -7.3 -9.75 -7.8 -10.3 -8.45 -10.7 -8.6 -10.9 -8.65 -11.15 -8.85 -11.3 -9.0 -11.5 -9.9 -13.25 -10.55 -14.0 -10.8 -14.1 -11.0 -14.85 -11.1 -15.05 -11.5 -15.3 -12.4 -15.55 -13.25 -16.0 -15.15 -16.3 -17.95 -16.95 M-16.8 -18.1 L-18.15 -17.65 -19.05 -17.25 -20.1 -17.05 -19.35 -16.85 -18.45 -17.05 -17.95 -17.05 -15.55 -16.55 -13.7 -16.2 -12.35 -15.6 -11.9 -15.55 -11.05 -15.1 -10.7 -14.75 -10.5 -14.3 -10.05 -14.1 -9.3 -13.5 -8.45 -13.0 -8.15 -12.6 -7.35 -12.1 -6.65 -11.4 -6.2 -11.25 -5.6 -10.5 -5.15 -9.6 -4.8 -9.3 -4.25 -8.55 -3.8 -8.5 -3.8 -8.55 -3.9 -9.05 -4.3 -9.95 -4.55 -10.35 -4.65 -10.8 -4.95 -11.2 -5.4 -12.05 -5.55 -12.5 -5.9 -12.8 -6.45 -13.6 -6.8 -13.95 -7.2 -14.85 -7.75 -15.65 -8.05 -16.0 -8.45 -16.3 -9.0 -17.05 -9.4 -17.35 -10.25 -17.8 -10.55 -18.15 -11.0 -18.35 -11.45 -18.45 -12.3 -18.95 -12.75 -19.1 -13.25 -19.15 -13.7 -19.3 -14.15 -19.25 -15.5 -18.65 -15.95 -18.6 -16.4 -18.45 -16.8 -18.1 M-28.8 -20.8 L-28.5 -20.45 -28.3 -19.95 -27.85 -19.15 -27.8 -19.1 -27.65 -19.05 -27.2 -19.05 -26.3 -18.7 -26.25 -18.8 -26.55 -19.15 -27.75 -20.0 -28.95 -21.1 -28.8 -20.8 M-3.0 -22.8 L-2.75 -22.85 -2.45 -22.9 -2.8 -22.95 -2.9 -22.85 -3.15 -22.75 -3.0 -22.8 M-4.2 -23.0 L-4.1 -22.95 -3.9 -22.9 -3.7 -22.7 -3.45 -22.7 -3.15 -22.75 -3.15 -22.8 -2.9 -22.85 -2.8 -22.95 -3.8 -23.15 -4.2 -23.0 M-5.3 -23.2 L-5.5 -23.35 -5.75 -23.3 -6.0 -23.45 -6.45 -23.4 -6.95 -23.4 -7.15 -23.3 -6.6 -23.15 -6.2 -22.95 -5.7 -22.95 -5.25 -23.0 -4.4 -23.05 -4.55 -23.15 -4.8 -23.1 -5.3 -23.2 M-11.6 -23.2 L-11.35 -23.15 -11.15 -23.05 -10.9 -22.6 -10.65 -22.55 -10.4 -22.45 -10.15 -22.4 -9.9 -22.3 -9.75 -22.15 -9.5 -22.1 -9.05 -21.9 -8.8 -22.0 -8.35 -22.0 -7.6 -21.85 -7.35 -21.95 -7.15 -22.1 -6.9 -22.0 -6.6 -22.0 -6.4 -22.15 -5.95 -22.3 -5.7 -22.3 -5.2 -22.45 -5.0 -22.35 -4.75 -22.35 -4.5 -22.35 -4.05 -22.55 -3.3 -22.55 -3.2 -22.65 -3.75 -22.65 -3.9 -22.85 -4.15 -22.9 -4.3 -23.0 -5.25 -22.95 -5.7 -22.85 -6.2 -22.9 -7.25 -23.3 -7.8 -23.0 -8.8 -22.9 -10.7 -23.25 -11.2 -23.25 -11.6 -23.2 M-15.5 -24.95 L-15.75 -25.0 -15.95 -25.15 -16.25 -25.55 -16.5 -25.65 -16.7 -25.8 -16.9 -25.9 -17.15 -25.9 -17.35 -26.05 -17.6 -26.1 -17.8 -26.05 -18.55 -26.15 -19.0 -25.9 -19.25 -26.0 -19.5 -26.0 -19.75 -25.55 -19.9 -25.35 -20.1 -25.2 -20.35 -25.15 -20.75 -24.85 -21.25 -24.65 -21.5 -24.6 -21.9 -24.35 -22.0 -24.1 -22.15 -23.95 -22.2 -23.7 -22.45 -23.55 -22.6 -23.35 -22.85 -23.35 -23.0 -23.15 -23.05 -22.9 -23.4 -22.6 -23.45 -22.35 -23.6 -22.15 -23.75 -21.95 -24.0 -21.85 -24.25 -21.8 -24.4 -21.6 -24.6 -21.45 -24.85 -21.4 -24.95 -21.2 -25.0 -20.95 -25.3 -20.55 -25.35 -20.35 -25.35 -20.05 -25.45 -19.8 -25.65 -19.65 -25.9 -19.25 -26.0 -19.1 -25.55 -18.6 -25.35 -18.6 -24.35 -18.4 -23.05 -17.75 -22.95 -17.75 -22.9 -18.0 -22.45 -18.35 -22.0 -18.55 -21.35 -19.2 -20.9 -19.45 -20.4 -19.55 -19.6 -20.05 -19.15 -20.2 -18.65 -20.25 -17.8 -20.7 -16.25 -21.8 -15.9 -22.15 -14.95 -22.55 -14.5 -22.6 -13.1 -23.1 -12.65 -23.15 -11.95 -23.25 -12.05 -23.35 -12.3 -23.45 -12.4 -23.7 -13.1 -23.95 -13.4 -24.4 -13.65 -24.45 -13.8 -24.6 -14.05 -24.7 -14.3 -24.7 -14.55 -24.75 -14.8 -24.7 -15.0 -24.85 -15.5 -24.95 M-33.4 -24.95 L-35.1 -25.25 -34.1 -24.55 -32.9 -23.8 -31.5 -22.45 -31.0 -21.6 -30.65 -21.3 -30.25 -21.05 -29.55 -20.4 -29.3 -20.0 -28.9 -19.7 -28.45 -19.55 -28.1 -19.25 -28.05 -19.25 -28.45 -19.9 -28.6 -20.35 -28.9 -20.75 -29.25 -21.4 -29.3 -21.45 -29.75 -21.55 -29.75 -21.55 -30.25 -21.95 -32.35 -24.55 -33.4 -24.95 M-33.95 -27.55 L-34.4 -27.7 -34.85 -27.6 Q-35.05 -27.5 -35.25 -27.35 L-35.6 -27.05 -36.55 -26.65 -36.95 -26.4 -37.4 -26.3 -37.35 -26.3 -37.05 -25.95 -33.3 -25.35 -32.25 -24.9 -30.0 -22.25 -29.5 -21.85 -29.45 -21.85 -29.0 -21.75 -26.3 -19.4 -26.1 -19.2 -26.0 -19.3 -25.75 -19.7 -25.55 -19.9 -25.45 -20.1 -25.45 -20.35 -25.4 -20.6 -25.1 -21.0 -25.05 -21.25 -24.9 -21.45 -24.65 -21.55 -24.45 -21.7 -24.3 -21.9 -24.05 -21.95 -23.8 -22.05 -23.65 -22.2 -23.55 -22.4 -23.45 -22.65 -23.3 -22.8 -23.1 -22.95 -23.05 -23.2 -22.9 -23.4 -22.65 -23.45 -22.5 -23.65 Q-22.35 -23.7 -22.25 -23.75 L-22.2 -24.0 -22.05 -24.15 -21.95 -24.4 -21.55 -24.7 -21.25 -24.7 -20.8 -24.9 -20.4 -25.2 -19.95 -25.4 -19.8 -25.6 -19.65 -25.8 -19.5 -26.05 -19.25 -26.05 -19.0 -26.0 -18.75 -26.1 -18.55 -26.25 -17.85 -26.15 -17.6 -26.15 -17.35 -26.15 -17.15 -25.95 -16.85 -25.95 -16.65 -25.85 -16.45 -25.7 -16.25 -25.6 -15.7 -25.05 -15.5 -25.0 -15.0 -24.9 -14.8 -24.75 -14.55 -24.8 -14.3 -24.75 -14.0 -24.75 -13.8 -24.65 -13.6 -24.5 -13.35 -24.45 -13.1 -24.0 -12.35 -23.75 -12.25 -23.5 -12.0 -23.4 -11.9 -23.25 -11.2 -23.4 -8.8 -23.0 -7.85 -23.1 -7.4 -23.3 -7.55 -23.35 -8.05 -23.25 -8.55 -23.2 -9.0 -23.35 -9.4 -23.6 -9.9 -23.6 -11.4 -23.8 -11.7 -24.15 -13.2 -25.5 -13.75 -26.25 -14.15 -26.55 -14.65 -26.7 -15.35 -27.35 -15.6 -27.75 -16.25 -28.45 -16.45 -28.95 -16.75 -29.3 -17.4 -30.6 -17.7 -31.0 -19.05 -31.5 -19.5 -31.55 -20.0 -31.45 -20.45 -31.25 -20.95 -31.2 -21.85 -30.95 -22.35 -30.85 -22.8 -30.7 -23.1 -30.35 -24.0 -29.95 -24.35 -29.6 -24.75 -29.35 -25.1 -29.0 -25.6 -28.9 -26.0 -28.65 -26.45 -28.45 -26.95 -28.5 -27.45 -28.45 -27.9 -28.6 -28.9 -28.65 -29.35 -28.6 -30.3 -28.4 -30.7 -28.25 -31.1 -27.95 -32.05 -27.6 -32.5 -27.5 -33.45 -27.65 -33.95 -27.55 M-18.9 -12.15 L-24.7 -16.5 -24.55 -16.95 -24.75 -16.9 -24.8 -17.05 -24.65 -17.1 -26.0 -18.55 -27.2 -18.9 -27.7 -18.95 -27.75 -18.95 -27.65 -18.7 -27.15 -17.85 -27.0 -17.4 -26.5 -16.55 -26.2 -16.2 -26.0 -15.25 -26.2 -14.25 -26.2 -13.8 -26.1 -13.35 -25.8 -12.95 -25.5 -12.05 -24.75 -10.8 -24.6 -9.8 -24.4 -9.4 -24.15 -9.0 -23.75 -8.1 -23.75 -6.6 -23.6 -6.15 -23.65 -5.65 -23.6 -5.2 -23.0 -3.85 -22.55 -3.0 -21.9 -2.3 -21.7 -1.85 -21.1 -0.5 -21.0 -0.05 -20.8 0.4 -20.75 1.4 -20.55 1.85 -20.3 3.25 -20.4 4.7 -20.45 5.2 -20.75 6.1 -20.9 6.55 -20.9 7.05 -21.05 7.55 -21.15 8.0 -20.95 8.95 -21.1 9.4 -21.3 9.85 -21.2 10.3 -21.25 10.8 -21.35 11.3 -21.25 11.75 -21.0 12.15 -20.6 13.05 -20.35 13.45 -19.85 14.8 -19.85 15.3 -19.65 15.45 -19.55 15.95 -19.4 16.15 -19.45 16.4 -19.45 16.65 -19.5 16.75 -19.4 17.15 -19.15 17.55 -19.05 18.0 -18.9 18.2 -18.85 18.45 -18.7 18.65 -18.65 18.75 -17.3 20.9 -16.9 21.8 -16.45 22.0 -15.8 22.75 -15.55 23.15 -14.8 23.75 -13.55 24.5 -13.1 24.6 -11.8 25.3 -10.85 25.5 -10.5 25.85 -8.75 26.7 -8.3 26.75 -7.8 26.75 -7.4 27.0 -6.95 27.15 -6.15 27.65 -5.45 28.35 -5.1 28.65 -4.6 28.75 -4.25 29.0 -4.2 28.85 -4.25 28.6 -4.05 28.15 -3.95 27.7 -4.0 27.45 -4.0 27.2 -3.95 26.95 -4.1 26.75 -4.2 25.75 -4.3 25.5 -4.35 25.25 -4.35 24.3 -4.8 23.95 -4.95 23.5 -5.0 23.25 -5.15 23.05 -5.35 22.6 -5.6 22.45 -5.55 21.95 -5.65 21.45 -5.75 21.25 -5.8 20.75 -5.9 20.55 -5.85 20.3 -5.9 20.05 -5.9 19.8 -5.8 19.55 -5.7 19.35 -5.35 18.95 -5.1 18.8 -4.95 18.65 -4.7 18.25 -4.5 18.05 -4.35 17.85 -4.25 17.6 -4.0 17.2 -3.8 17.0 -3.8 16.55 -3.75 16.3 -3.7 16.1 -3.75 15.85 -3.7 15.6 -3.45 15.15 -3.5 14.9 -3.4 14.65 -3.45 14.4 -3.3 13.9 -3.4 13.7 -3.35 13.45 -3.4 13.2 -3.5 12.95 -3.65 12.8 -3.75 12.25 -3.8 12.0 -3.8 11.75 -3.95 11.55 -4.1 11.1 -4.3 11.0 -4.45 10.75 -4.6 10.6 -5.35 10.0 -5.6 9.9 -5.75 9.7 -5.95 9.25 -6.35 8.95 -6.65 8.3 -6.95 7.9 -7.0 7.65 -7.0 7.4 -7.15 7.2 -7.3 7.0 -7.45 6.8 -7.6 6.35 -7.65 6.1 -7.85 5.65 -7.85 5.4 -7.75 4.9 -7.9 4.7 -7.9 4.45 -7.95 3.75 -8.1 3.25 -8.25 3.05 -8.25 2.8 -8.4 2.6 -8.4 2.35 -8.5 2.1 -8.55 1.9 -8.75 1.45 -8.85 1.2 -8.85 0.95 -8.9 0.75 -9.05 0.5 -9.05 0.25 -9.2 0.05 -9.3 -0.15 -9.3 -0.35 -9.9 -2.0 -10.2 -2.35 -10.45 -2.8 -10.75 -3.7 -10.8 -4.65 -11.1 -5.05 -11.95 -6.8 -12.05 -7.25 -12.3 -7.7 -12.3 -8.15 -13.0 -9.3 -13.2 -9.0 -14.35 -9.2 -14.1 -9.4 -15.15 -10.25 -15.15 -10.2 -18.55 -11.6 -18.9 -12.15 M-26.2 -18.7 L-26.2 -18.7 -26.15 -18.7 -26.2 -18.7 M-24.1 35.0 L-24.2 35.1 -24.25 35.35 -24.3 35.6 -24.3 35.75 -24.25 35.6 -24.2 35.4 -24.15 35.15 -24.1 35.0 M-24.05 34.9 L-24.05 34.9 -24.05 34.9 M-23.9 34.45 L-23.9 34.25 -24.05 34.4 -24.05 34.65 -23.9 34.45 M-20.35 25.55 L-20.45 25.65 -21.1 26.35 -21.55 26.55 -22.3 26.7 -22.5 26.85 -22.75 26.8 -23.0 26.9 -23.25 26.95 -23.45 27.05 -23.7 27.0 -23.95 27.05 -24.15 27.2 -24.3 27.35 -24.55 27.5 -25.0 28.05 -25.0 28.3 -25.15 28.55 -25.15 28.75 -25.2 29.0 -25.0 29.5 -25.05 29.75 -24.95 29.95 -24.8 30.2 -24.85 30.45 -24.95 30.65 -24.95 30.9 -24.75 31.65 -24.6 31.85 -24.45 32.05 -24.4 32.55 -24.2 33.0 -24.25 33.25 -23.9 33.95 -23.85 34.2 -23.7 34.05 -23.1 33.55 -23.05 33.35 -22.85 33.15 -22.75 32.95 -22.65 32.7 -22.4 32.65 -22.2 32.45 -21.95 32.4 -21.75 31.95 -21.55 31.8 -21.3 31.35 -21.1 31.25 -21.0 31.0 -20.65 30.65 -20.6 30.45 -20.6 30.15 -20.4 29.7 -20.45 29.45 -20.5 29.2 -20.25 28.8 -20.3 28.55 -20.15 28.05 -20.15 27.85 -20.4 27.35 -20.35 27.1 -20.2 26.65 -20.15 26.15 -20.25 25.7 -20.35 25.55 M-18.65 18.9 L-18.65 18.9 -18.6 19.1 -18.45 19.25 -18.65 18.9 M-19.0 18.15 L-18.9 18.4 -18.95 18.25 -19.0 18.15 M-19.45 17.15 L-19.55 16.9 -19.55 17.15 -19.6 17.4 -19.55 17.65 -19.4 17.85 -19.45 18.1 -19.55 18.3 -19.5 18.6 -19.65 18.8 -19.65 19.05 -19.75 19.25 -19.8 19.5 -20.2 19.85 -20.35 20.05 -20.6 20.1 -20.95 20.45 -21.0 20.65 -21.0 20.9 -21.1 21.15 -21.2 21.35 -21.35 21.6 -21.4 21.8 -21.35 22.05 -21.45 22.3 -21.35 22.75 -21.45 23.0 -21.35 23.25 -21.2 23.45 -21.05 23.9 -20.75 24.3 -20.7 24.55 -20.65 24.8 -20.5 25.25 -20.35 25.45 -20.3 25.5 -20.25 25.5 -20.15 25.25 -20.1 25.0 -19.9 24.6 -19.7 24.45 -19.45 24.0 -19.35 22.8 -19.2 22.6 -19.05 22.1 -19.05 21.85 -18.95 21.6 -18.8 21.4 -18.75 21.15 -18.7 20.95 -18.55 20.75 -18.6 20.5 -18.6 20.25 -18.45 20.05 -18.45 19.8 -18.35 19.55 -18.45 19.35 -18.65 19.15 -18.7 18.9 -18.75 18.65 -18.85 18.45 -18.95 18.5 -19.1 18.05 -19.2 17.6 -19.45 17.15 M-19.7 15.5 L-19.85 15.35 -19.85 15.8 -19.55 16.15 -19.5 16.65 -19.5 16.7 -19.45 16.15 -19.6 15.95 -19.65 15.75 -19.7 15.5 M-3.6 -8.1 L-3.7 -8.35 -4.05 -8.4 -3.85 -8.25 -3.5 -7.9 -3.45 -7.9 -3.6 -8.1 M-7.95 -10.45 L-7.75 -10.35 -7.3 -9.8 -7.05 -9.65 -6.95 -9.45 -6.75 -8.95 -6.75 -8.7 -6.45 -8.3 -6.45 -8.15 -6.05 -8.4 -5.6 -8.55 -4.55 -8.6 -4.35 -8.6 -4.85 -9.25 -5.2 -9.55 -5.65 -10.45 -6.25 -11.15 -6.7 -11.35 -7.4 -12.05 -7.8 -12.25 -8.2 -12.55 -8.5 -12.9 -9.35 -13.4 -10.1 -14.05 -10.55 -14.25 -10.75 -14.7 -10.9 -14.85 -10.9 -14.65 -10.75 -14.15 -10.5 -14.05 -9.85 -13.3 -9.4 -12.45 -9.15 -12.0 -9.05 -11.8 -8.95 -11.55 -8.6 -11.2 -8.55 -10.9 -8.4 -10.75 -7.95 -10.45 M-24.5 56.35 L-24.5 56.6 -24.65 56.85 -24.65 56.85 -24.55 56.6 -24.55 56.35 -24.6 56.15 -24.5 56.35 M-22.25 56.5 L-22.25 56.55 -22.4 56.3 -22.45 56.1 -22.4 56.3 -22.25 56.5 M-23.55 53.25 L-23.4 53.35 -23.35 53.6 -23.35 54.1 -23.3 54.35 -23.1 54.55 -23.05 54.75 -22.85 54.95 -22.8 55.15 -22.75 55.5 -22.8 55.15 -22.9 54.95 -23.05 54.75 -23.15 54.55 -23.3 54.35 -23.35 54.1 -23.35 53.6 -23.4 53.35 -23.55 53.25 M-24.8 57.55 L-24.7 57.8 -24.65 58.3 -24.75 58.55 -24.75 58.8 -24.8 59.05 -24.75 59.3 -24.95 59.5 -24.95 59.75 -25.15 59.95 -25.25 60.15 -25.3 60.4 -25.5 60.55 -25.3 60.35 -25.25 60.15 -25.15 59.9 -24.95 59.75 -24.95 59.5 -24.8 59.3 -24.8 59.0 -24.75 58.8 -24.75 58.55 -24.65 58.3 -24.7 57.8 -24.8 57.55 -24.6 57.1 -24.6 57.1 -24.8 57.55 M-22.45 56.1 L-22.7 55.9 -22.7 55.9 -22.45 56.1 M-21.6 58.05 L-21.7 57.85 -21.7 57.55 -21.7 57.55 -21.7 57.85 -21.6 58.05 -21.4 58.2 -21.25 58.4 -21.2 58.65 -21.05 58.85 -21.0 59.1 -21.05 58.85 -21.2 58.65 -21.3 58.4 -21.4 58.2 -21.6 58.05 M-22.15 57.0 L-22.1 57.25 -22.0 57.35 -22.1 57.25 -22.15 57.0 -22.3 56.8 -22.25 56.55 -22.3 56.8 -22.15 57.0 M-21.0 59.1 L-20.8 59.25 -20.7 59.45 -20.5 59.65 -20.5 59.9 -20.55 60.4 -20.55 60.65 -20.4 60.85 -20.45 60.85 -20.55 60.65 -20.55 60.15 -20.5 59.9 -20.5 59.65 -20.7 59.45 -21.0 59.1" fill="#ffffff" fill-rule="evenodd" stroke="none"/>
  </g>
</svg>
