<?xml version="1.0" encoding="UTF-8" standalone="no"?>
<svg xmlns:xlink="http://www.w3.org/1999/xlink" height="143.6px" width="142.9px" xmlns="http://www.w3.org/2000/svg">
  <g transform="matrix(1.0, 0.0, 0.0, 1.0, 53.4, 80.55)">
    <path d="M36.65 -64.8 L36.85 -64.85 36.65 -64.75 36.4 -64.75 36.65 -64.8 M37.3 -65.05 L37.1 -64.95 37.3 -65.05 37.3 -65.05 M36.4 -64.75 L36.2 -64.6 36.2 -64.6 35.95 -64.6 35.7 -64.5 35.5 -64.3 35.3 -64.25 35.05 -64.2 34.8 -64.2 34.55 -64.15 34.35 -64.0 34.1 -64.0 33.85 -63.9 33.65 -63.8 33.4 -63.85 33.15 -63.8 32.9 -63.75 32.25 -63.45 32.05 -63.3 31.95 -63.25 32.25 -63.45 32.45 -63.55 32.9 -63.8 33.15 -63.8 33.35 -63.85 33.65 -63.8 34.1 -64.0 34.35 -64.0 34.55 -64.15 34.75 -64.2 35.05 -64.2 35.3 -64.25 35.5 -64.3 35.7 -64.5 35.9 -64.6 36.2 -64.6 36.35 -64.75 36.4 -64.75 M23.8 -60.7 L23.55 -60.7 23.8 -60.7 23.8 -60.7 M18.1 -61.15 L17.65 -60.9 17.4 -60.85 17.2 -60.7 16.95 -60.65 16.75 -60.55 16.5 -60.6 16.25 -60.55 16.0 -60.6 15.75 -60.6 15.55 -60.45 15.35 -60.3 15.1 -60.4 14.9 -60.25 14.4 -60.25 14.2 -60.1 13.95 -60.05 13.75 -59.9 13.5 -59.85 13.0 -59.8 12.75 -59.8 12.6 -59.65 12.35 -59.55 12.15 -59.5 11.95 -59.3 11.7 -59.25 11.55 -59.05 11.3 -59.0 11.05 -58.95 10.85 -58.75 10.65 -58.75 10.4 -58.7 10.15 -58.65 9.95 -58.5 9.7 -58.4 9.35 -58.05 9.15 -57.9 8.9 -57.8 8.65 -57.9 8.45 -57.85 8.2 -57.75 7.95 -57.75 7.7 -57.75 7.45 -57.7 7.2 -57.7 6.55 -57.4 6.3 -57.4 5.85 -57.2 5.6 -57.3 5.35 -57.25 5.0 -56.9 4.75 -56.9 4.5 -56.85 4.25 -56.8 4.05 -56.6 3.85 -56.5 3.6 -56.5 3.4 -56.4 3.2 -56.25 3.0 -56.05 2.8 -56.0 2.6 -55.8 2.4 -55.65 1.65 -55.55 1.4 -55.55 1.2 -55.4 0.95 -55.45 0.75 -55.35 0.5 -55.25 0.0 -55.2 -0.5 -55.25 -0.75 -55.15 -1.45 -54.95 -1.7 -55.05 -2.2 -55.1 -2.45 -55.05 -2.7 -55.1 -2.95 -55.05 -3.15 -55.05 -3.4 -54.95 -3.9 -55.05 -4.15 -55.0 -4.35 -54.9 -4.6 -54.9 -4.8 -54.75 -5.05 -54.65 -5.25 -54.55 -5.35 -54.35 -5.75 -54.0 -5.75 -53.7 -6.1 -53.35 -6.25 -53.15 -6.25 -52.9 -6.45 -52.5 -6.45 -52.25 -6.6 -52.05 -6.6 -51.8 -6.75 -51.55 -6.75 -51.4 -6.3 -51.45 -5.85 -51.65 -5.4 -51.7 -4.95 -51.9 -3.5 -52.1 -3.0 -52.0 -2.15 -51.55 -1.8 -51.2 -1.4 -50.95 -0.45 -50.8 0.45 -50.45 1.85 -50.25 2.3 -50.3 2.75 -50.5 3.25 -50.4 3.7 -50.5 4.6 -50.85 5.1 -50.95 5.95 -51.35 6.9 -51.6 7.25 -51.9 8.5 -52.65 8.75 -53.1 9.15 -53.35 9.5 -53.65 9.9 -53.9 10.35 -54.1 11.3 -54.25 12.2 -54.6 12.95 -55.2 13.7 -55.65 12.2 -54.55 11.3 -54.2 10.35 -54.05 9.5 -53.65 9.15 -53.3 8.75 -53.05 8.5 -52.65 7.3 -51.85 6.9 -51.55 6.0 -51.3 5.1 -50.9 4.65 -50.8 3.75 -50.45 3.25 -50.35 2.75 -50.45 2.3 -50.25 1.85 -50.15 0.45 -50.4 -0.45 -50.75 -1.45 -50.9 -1.85 -51.15 -2.2 -51.5 -3.05 -51.95 -3.5 -52.05 -4.95 -51.85 -5.35 -51.65 -5.85 -51.6 -6.3 -51.4 -6.75 -51.3 -6.75 -51.3 -8.65 -50.9 -9.05 -50.6 -10.3 -49.85 -11.25 -49.7 -11.65 -49.5 -12.05 -49.2 -12.45 -49.0 -12.8 -48.75 -12.7 -48.65 -12.45 -48.55 -12.05 -48.35 -11.85 -48.2 -11.6 -48.15 -11.35 -48.15 -10.85 -48.0 -10.65 -47.85 -10.5 -47.65 -10.25 -47.7 -10.05 -47.5 -9.65 -47.25 -9.5 -47.0 -9.35 -46.8 -8.8 -46.4 -8.55 -46.5 -8.1 -46.35 -7.85 -46.4 -7.6 -46.55 -6.85 -46.35 -6.4 -46.35 -6.15 -46.3 -5.65 -46.45 -5.4 -46.4 -5.15 -46.45 -4.95 -46.5 -4.7 -46.55 -4.25 -46.8 -3.75 -46.8 -3.5 -46.85 -3.25 -46.95 -2.5 -46.8 -2.15 -47.15 -1.9 -47.2 -1.65 -47.25 -1.25 -47.5 -1.05 -47.65 -0.85 -47.8 -0.6 -47.8 -0.4 -47.95 0.0 -48.25 0.25 -48.3 0.45 -48.4 0.65 -48.6 0.9 -48.65 1.35 -48.65 1.85 -48.8 2.1 -48.75 2.35 -48.75 2.6 -48.7 2.8 -48.75 3.05 -48.8 3.3 -48.9 3.45 -49.05 3.75 -49.0 3.95 -49.1 4.45 -49.1 4.7 -49.2 4.95 -49.15 5.15 -49.3 5.7 -49.35 6.4 -49.5 6.65 -49.6 6.95 -49.95 7.15 -50.1 7.45 -50.5 7.85 -50.8 8.0 -51.0 8.2 -51.15 8.65 -51.35 8.75 -51.55 8.95 -51.7 9.2 -51.8 9.4 -51.95 9.6 -52.05 9.85 -52.1 10.05 -52.25 10.3 -52.25 10.75 -52.45 11.25 -52.35 11.75 -52.55 12.0 -52.6 12.25 -52.5 12.95 -52.3 13.15 -52.15 13.4 -52.05 13.65 -52.05 13.85 -51.9 14.35 -51.9 14.5 -51.7 14.5 -51.65 14.3 -51.85 13.85 -51.9 13.65 -52.05 13.4 -52.05 13.15 -52.15 12.95 -52.3 12.45 -52.45 12.2 -52.45 12.0 -52.55 11.75 -52.5 11.25 -52.35 10.75 -52.4 10.3 -52.25 10.05 -52.2 9.85 -52.05 9.6 -52.05 9.4 -51.95 9.2 -51.8 8.95 -51.7 8.8 -51.55 8.65 -51.35 8.2 -51.15 8.0 -51.0 7.85 -50.8 7.5 -50.45 7.2 -50.05 6.95 -49.95 6.65 -49.55 5.95 -49.35 5.15 -49.25 4.95 -49.15 4.7 -49.15 4.5 -49.1 3.95 -49.05 3.75 -48.95 3.5 -49.05 3.3 -48.85 3.05 -48.75 2.8 -48.75 2.6 -48.7 2.35 -48.75 2.1 -48.75 1.85 -48.8 1.35 -48.65 0.65 -48.55 0.5 -48.35 0.25 -48.25 0.0 -48.2 -0.4 -47.95 -0.55 -47.75 -0.85 -47.75 -1.05 -47.65 -1.2 -47.45 -1.65 -47.25 -1.9 -47.15 -2.15 -47.15 -2.3 -46.9 -2.5 -46.75 -3.25 -46.9 -3.5 -46.8 -3.75 -46.75 -4.25 -46.8 -4.65 -46.5 -4.9 -46.5 -5.4 -46.35 -5.65 -46.4 -6.1 -46.25 -6.4 -46.3 -6.85 -46.3 -7.6 -46.5 -7.85 -46.35 -8.1 -46.3 -8.55 -46.45 -8.8 -46.35 -9.4 -46.75 -9.55 -46.95 -9.65 -47.2 -10.05 -47.45 -10.25 -47.65 -10.55 -47.6 -10.7 -47.8 -10.9 -47.95 -11.35 -48.1 -11.6 -48.1 -11.85 -48.15 -12.05 -48.3 -12.5 -48.5 -12.85 -48.7 -14.05 -47.85 -14.5 -47.75 -14.8 -47.6 -14.85 -47.6 -14.8 -47.35 -14.9 -47.1 -15.3 -46.5 -15.45 -46.3 -15.65 -46.15 -15.9 -46.05 -16.0 -45.85 -16.25 -45.75 -16.55 -45.35 -16.85 -45.0 -16.95 -44.8 -17.1 -44.6 -17.3 -44.45 -17.45 -44.2 -17.5 -43.95 -17.7 -43.8 -17.8 -43.55 -18.0 -43.4 -18.15 -43.2 -18.35 -43.05 -18.85 -42.9 -19.0 -42.7 -19.15 -42.5 -19.85 -42.3 -20.05 -42.15 -20.3 -42.15 -20.95 -41.85 -21.0 -41.85 -21.45 -41.0 -21.8 -40.65 -22.4 -39.3 -22.65 -38.9 -22.95 -38.5 -23.35 -38.25 -24.25 -37.85 -24.65 -37.75 -24.3 -37.65 -24.0 -37.7 -23.55 -37.5 -23.3 -37.45 -22.9 -37.1 -22.65 -37.1 -22.45 -37.0 -22.25 -36.85 -22.1 -36.65 -21.9 -36.45 -21.75 -36.25 -21.6 -36.1 -21.45 -35.9 -21.3 -35.8 -20.05 -35.55 -19.2 -35.05 -18.85 -34.7 -18.55 -34.35 -18.4 -34.3 -18.15 -34.3 -17.95 -34.2 -17.7 -34.15 -17.45 -34.2 -16.95 -34.1 -16.7 -34.15 -16.5 -34.05 -16.25 -34.1 -16.0 -33.95 -15.75 -33.85 -15.3 -33.8 -14.8 -33.9 -14.55 -33.85 -14.3 -33.75 -14.1 -33.75 -13.8 -33.8 -13.6 -33.8 -13.35 -33.7 -13.1 -33.7 -12.85 -33.75 -12.15 -33.45 -11.45 -33.5 -11.2 -33.4 -10.7 -33.35 -10.45 -33.4 -10.25 -33.3 -10.0 -33.25 -9.75 -33.3 -9.25 -33.35 -9.0 -33.2 -8.35 -32.95 -7.85 -33.0 -7.65 -32.85 -7.0 -32.5 -6.75 -32.45 -6.1 -32.1 -5.85 -32.1 -5.65 -32.0 -5.4 -32.0 -5.2 -31.9 -4.35 -31.4 -4.2 -31.2 -3.55 -30.8 -3.4 -30.6 -3.2 -30.5 -2.7 -30.45 -2.45 -30.5 -1.75 -30.25 -1.55 -30.05 -1.05 -30.05 -0.85 -29.9 -0.4 -29.75 -0.2 -29.6 0.3 -29.5 0.55 -29.05 0.55 -29.05 0.3 -29.5 -0.2 -29.6 -0.85 -29.9 -1.05 -30.05 -1.55 -30.05 -1.75 -30.2 -2.45 -30.45 -2.7 -30.4 -3.2 -30.45 -3.4 -30.6 -3.6 -30.8 -3.75 -30.95 -3.75 -30.95 -4.2 -31.2 -4.35 -31.4 -5.2 -31.9 -5.4 -31.95 -5.65 -31.95 -5.9 -32.1 -6.15 -32.05 -6.55 -32.35 -7.0 -32.5 -7.65 -32.8 -7.85 -32.95 -8.35 -32.9 -8.6 -33.05 -9.25 -33.3 -9.75 -33.3 -10.0 -33.25 -10.25 -33.25 -10.45 -33.4 -10.7 -33.3 -10.95 -33.35 -11.2 -33.35 -11.45 -33.45 -12.15 -33.4 -12.4 -33.55 -12.85 -33.7 -13.1 -33.65 -13.6 -33.75 -13.85 -33.75 -14.1 -33.7 -14.3 -33.75 -14.8 -33.85 -15.3 -33.75 -16.25 -34.05 -16.5 -34.05 -16.75 -34.15 -17.0 -34.05 -17.45 -34.15 -17.7 -34.1 -17.95 -34.15 -18.15 -34.25 -18.4 -34.25 -18.5 -34.3 -18.15 -34.0 -16.6 -32.85 -16.3 -32.5 -13.75 -31.15 -12.85 -30.85 -12.35 -30.8 -11.9 -30.85 -11.4 -30.7 -10.45 -30.7 -8.1 -30.15 -6.75 -29.55 -6.25 -29.45 -5.85 -29.25 -5.45 -28.9 -5.05 -28.65 -4.8 -28.25 -4.5 -27.85 -4.3 -27.4 -3.95 -27.0 -3.8 -26.9 -3.65 -26.7 -3.45 -26.55 -3.3 -26.3 -2.9 -26.2 -2.5 -25.9 -2.05 -25.7 -1.45 -24.95 -0.7 -24.35 -0.45 -23.9 0.3 -23.3 1.25 -22.2 1.5 -21.8 1.9 -21.5 4.2 -20.8 5.15 -20.85 5.15 -20.85 4.2 -20.75 1.85 -21.45 1.5 -21.75 0.25 -23.25 -0.5 -23.9 -0.75 -24.3 -1.5 -24.9 -1.6 -25.05 -1.5 -24.85 -1.35 -24.65 -1.15 -24.25 -1.0 -24.0 -0.9 -23.8 -0.7 -23.65 -0.55 -23.15 -0.15 -22.85 0.15 -22.45 0.35 -22.25 0.35 -22.0 0.55 -21.8 0.6 -21.6 0.75 -21.4 0.8 -21.15 1.15 -20.75 1.1 -20.5 1.15 -20.25 1.2 -20.05 1.3 -19.55 1.4 -19.3 1.3 -19.1 1.25 -18.6 1.35 -18.35 1.3 -18.1 1.4 -17.9 1.35 -17.65 1.45 -17.4 1.55 -16.95 1.4 -16.7 1.4 -16.45 1.45 -15.95 1.4 -15.5 1.25 -15.25 1.25 -15.25 1.4 -15.35 1.65 -15.7 2.05 -16.0 2.3 -16.4 3.65 -17.8 4.2 -17.85 6.15 -17.65 7.05 -17.25 8.0 -17.15 8.4 -16.8 9.25 -16.35 9.9 -15.65 10.2 -15.25 10.9 -14.55 11.0 -14.05 11.25 -13.65 11.4 -13.2 11.65 -12.75 11.75 -11.75 11.7 -11.25 12.2 -8.4 12.25 -7.95 12.65 -7.1 12.7 -7.0 12.75 -7.15 13.05 -7.5 13.65 -8.85 14.3 -9.55 15.1 -10.15 17.2 -11.4 17.55 -11.7 18.75 -12.5 19.25 -12.65 19.75 -12.7 20.15 -12.85 20.65 -12.9 21.65 -12.9 22.6 -12.8 23.05 -12.65 23.55 -12.65 24.05 -12.7 25.0 -12.55 25.45 -12.55 26.45 -12.6 27.9 -12.35 28.35 -12.45 28.85 -12.5 29.3 -12.6 29.8 -12.65 30.25 -12.85 30.75 -12.8 31.65 -12.45 32.05 -12.2 32.55 -12.15 33.0 -12.0 34.1 -11.05 34.55 -10.2 34.9 -9.25 34.95 -8.8 35.1 -8.3 35.15 -7.85 35.05 -7.35 34.8 -6.4 34.55 -5.95 34.45 -5.85 34.95 -5.8 35.15 -5.9 36.1 -5.95 36.6 -5.95 37.0 -6.15 37.5 -6.3 37.95 -6.35 38.4 -6.55 38.85 -6.7 39.35 -6.7 39.8 -6.9 40.15 -7.2 41.1 -7.45 41.55 -7.6 42.65 -8.55 43.1 -8.75 43.55 -9.0 44.0 -9.2 45.4 -9.4 46.25 -9.9 46.6 -10.25 47.45 -10.65 47.45 -10.85 47.5 -11.1 47.4 -11.6 47.4 -12.1 47.55 -12.6 47.75 -12.7 47.95 -12.9 48.45 -13.0 48.8 -13.35 49.05 -13.4 49.25 -13.45 49.45 -13.6 49.7 -13.7 49.9 -13.8 50.05 -14.0 50.2 -14.2 50.5 -14.6 50.75 -14.65 50.9 -14.9 51.9 -15.1 52.05 -15.25 52.25 -15.4 52.5 -15.45 52.65 -15.65 52.9 -15.75 53.05 -15.95 53.3 -16.0 53.45 -16.2 53.7 -16.3 53.95 -16.35 54.15 -16.5 54.9 -16.4 55.1 -16.5 55.3 -16.65 55.5 -16.75 55.7 -16.95 55.9 -17.05 56.1 -17.15 56.3 -17.3 56.6 -17.75 56.95 -18.05 57.15 -18.2 57.55 -18.5 58.0 -18.75 58.15 -18.95 58.6 -19.05 58.85 -19.05 59.3 -19.2 59.5 -19.35 59.75 -19.4 59.95 -19.55 60.35 -19.8 60.6 -19.75 60.85 -19.8 61.1 -19.9 61.6 -19.85 61.8 -20.0 62.05 -20.0 62.25 -20.1 62.5 -20.15 62.75 -20.1 63.0 -20.15 63.7 -19.95 63.95 -20.0 64.85 -19.55 65.1 -19.55 65.8 -19.75 66.05 -19.75 66.3 -19.65 66.5 -19.75 66.75 -19.8 67.0 -19.65 67.45 -19.75 67.95 -19.75 68.2 -19.8 68.7 -19.7 69.6 -19.3 69.85 -19.25 70.1 -19.35 70.3 -19.2 70.8 -19.3 71.3 -19.2 71.5 -19.2 71.3 -19.15 71.05 -19.25 70.8 -19.3 70.3 -19.2 70.1 -19.35 69.85 -19.25 69.35 -19.35 68.65 -19.7 68.2 -19.8 67.95 -19.75 67.45 -19.75 67.0 -19.65 66.75 -19.75 66.5 -19.7 66.3 -19.6 66.05 -19.7 65.8 -19.75 65.1 -19.55 64.85 -19.5 63.95 -19.95 63.7 -19.9 63.25 -20.1 63.0 -20.1 62.75 -20.05 62.5 -20.1 62.25 -20.1 62.05 -20.0 61.8 -19.95 61.6 -19.8 61.1 -19.85 60.85 -19.75 60.6 -19.75 60.35 -19.8 59.95 -19.55 59.75 -19.4 59.5 -19.35 59.35 -19.15 58.9 -19.0 58.65 -19.05 58.15 -18.9 58.0 -18.7 57.55 -18.5 57.2 -18.15 57.0 -18.05 56.6 -17.7 56.3 -17.3 56.15 -17.1 55.9 -17.05 55.7 -16.9 55.55 -16.7 55.3 -16.6 55.1 -16.45 54.9 -16.35 54.15 -16.45 53.95 -16.3 53.7 -16.25 53.5 -16.15 53.3 -16.0 53.05 -15.9 52.9 -15.7 52.7 -15.6 52.5 -15.4 52.3 -15.35 52.1 -15.25 51.9 -15.05 51.15 -14.9 50.9 -14.85 50.8 -14.6 50.55 -14.6 50.2 -14.2 50.1 -13.95 49.95 -13.75 49.75 -13.65 49.5 -13.55 49.3 -13.45 49.05 -13.35 48.8 -13.3 48.45 -12.95 47.95 -12.85 47.8 -12.7 47.6 -12.55 47.45 -12.1 47.45 -11.6 47.55 -11.1 47.5 -10.85 47.5 -10.65 48.0 -10.65 48.85 -11.05 49.55 -11.7 50.0 -11.9 50.35 -12.2 50.85 -12.35 51.35 -12.25 51.85 -12.4 52.3 -12.35 53.2 -12.05 54.65 -11.9 55.05 -11.6 55.9 -11.15 56.3 -10.85 56.3 -10.85 56.45 -10.65 56.9 -10.45 57.1 -10.3 57.2 -10.1 57.55 -9.7 57.8 -9.65 58.0 -9.55 58.25 -9.5 58.65 -9.25 58.75 -9.0 59.25 -8.9 59.4 -8.65 59.85 -8.45 60.0 -8.25 60.05 -7.7 59.95 -7.2 60.0 -6.95 60.15 -6.75 60.15 -6.25 60.35 -6.1 60.35 -5.8 60.5 -5.65 60.7 -5.45 60.75 -5.2 60.7 -4.95 60.6 -4.7 60.6 -4.5 60.45 -4.25 60.45 -4.0 60.55 -3.55 60.4 -3.3 60.4 -3.25 60.5 -3.25 60.7 -3.15 60.95 -3.15 61.45 -3.05 61.6 -2.85 61.8 -2.75 62.05 -2.75 62.3 -2.7 62.7 -2.4 62.95 -2.35 63.2 -2.4 63.4 -2.25 63.65 -2.15 63.9 -2.1 64.35 -2.3 64.6 -2.4 65.05 -2.35 65.3 -2.25 65.55 -2.3 65.8 -2.4 66.0 -2.25 66.25 -2.15 66.45 -2.25 66.7 -2.15 66.95 -2.2 67.2 -2.05 67.65 -1.95 67.9 -2.0 68.15 -2.0 68.4 -1.95 68.6 -2.0 68.85 -2.05 69.05 -2.2 69.35 -2.2 69.5 -2.35 69.75 -2.5 69.85 -2.7 70.25 -2.95 70.35 -3.2 70.7 -3.85 70.9 -4.05 70.95 -4.25 70.95 -4.55 71.05 -4.75 71.15 -5.0 71.15 -5.45 71.25 -5.7 71.1 -5.95 71.05 -6.15 70.9 -6.4 70.95 -6.65 70.9 -6.85 70.9 -7.1 70.8 -7.35 70.7 -7.8 70.5 -8.3 70.5 -8.5 70.55 -8.8 70.55 -8.8 70.5 -8.5 70.5 -8.3 70.7 -7.85 70.8 -7.35 70.9 -7.1 70.9 -6.9 70.95 -6.65 70.9 -6.4 71.1 -6.15 71.15 -5.95 71.25 -5.7 71.15 -5.45 71.2 -5.2 71.15 -4.95 71.1 -4.75 70.95 -4.55 70.95 -4.25 70.9 -4.0 70.7 -3.85 70.3 -2.95 69.85 -2.7 69.75 -2.45 69.5 -2.35 69.35 -2.2 69.1 -2.15 68.9 -2.05 68.65 -2.0 68.4 -1.9 68.15 -1.95 67.65 -1.9 66.95 -2.15 66.7 -2.15 66.5 -2.2 66.25 -2.15 66.0 -2.2 65.8 -2.35 65.55 -2.25 65.3 -2.25 64.6 -2.35 63.9 -2.1 63.4 -2.2 63.2 -2.35 62.95 -2.35 62.7 -2.35 62.3 -2.65 62.05 -2.75 61.8 -2.7 61.6 -2.8 61.45 -3.05 61.2 -3.05 60.95 -3.1 60.7 -3.1 60.45 -3.2 60.4 -3.2 60.4 -3.1 60.5 -2.85 60.5 -2.6 60.45 -2.35 60.4 -2.1 60.55 -1.9 60.55 -1.65 60.6 -1.45 60.6 -1.2 60.5 -0.75 60.6 -0.4 60.85 0.0 61.0 0.35 61.2 0.5 61.5 0.9 61.75 0.95 61.95 1.1 62.1 1.35 62.3 1.45 62.45 1.6 63.05 2.05 63.55 2.0 63.8 1.95 64.05 2.05 64.3 2.05 64.5 2.2 64.75 2.2 65.0 2.25 65.2 2.4 65.65 2.55 66.05 2.85 66.55 2.95 66.75 3.1 67.0 3.1 67.1 3.35 67.35 3.45 67.45 3.7 67.65 3.8 67.75 4.05 68.0 4.2 68.1 4.4 68.3 4.55 68.55 5.0 68.75 5.1 68.85 5.35 69.0 5.55 69.45 5.8 69.55 6.0 69.7 6.15 70.15 6.45 70.25 6.65 70.35 6.9 70.55 7.05 70.55 7.3 70.75 7.5 70.9 7.95 70.95 8.2 71.05 8.4 71.25 8.55 71.45 8.75 71.55 8.95 71.6 9.2 71.9 9.6 71.9 9.85 72.0 10.1 72.0 10.1 71.9 9.85 71.9 9.65 71.6 9.2 71.55 8.95 71.45 8.75 71.25 8.55 71.05 8.4 70.95 8.2 70.9 7.95 70.7 7.5 70.55 7.3 70.55 7.05 70.35 6.9 70.15 6.45 69.7 6.15 69.55 6.0 69.45 5.8 69.2 5.7 69.0 5.55 68.85 5.35 68.75 5.15 68.55 5.0 68.3 4.55 68.05 4.4 67.95 4.2 67.75 4.05 67.65 3.8 67.45 3.7 67.35 3.45 67.1 3.35 67.0 3.1 66.7 3.1 66.55 2.95 66.05 2.9 65.65 2.55 65.4 2.45 65.2 2.45 65.0 2.3 64.5 2.2 64.3 2.05 64.05 2.05 63.8 1.95 63.55 2.0 63.05 2.05 62.45 1.65 62.3 1.45 62.05 1.35 61.95 1.15 61.75 1.0 61.5 0.9 61.2 0.55 61.05 0.4 61.05 0.45 61.3 0.85 61.25 0.9 61.0 0.45 60.95 0.35 60.7 0.0 60.5 -0.4 60.45 -0.65 60.45 -0.7 60.25 -1.3 59.6 -2.6 59.25 -2.95 59.15 -3.45 58.85 -3.8 58.25 -4.45 58.4 -4.05 58.4 -3.35 58.35 -3.1 58.4 -2.85 58.3 -2.65 58.3 -2.4 58.35 -2.15 58.65 -1.4 58.65 -1.15 58.75 -0.95 58.6 -0.7 58.55 -0.45 58.45 -0.25 58.5 0.0 58.65 0.2 58.75 0.45 58.9 0.6 58.95 0.85 59.35 1.2 59.3 1.45 59.45 1.65 59.45 1.9 59.65 2.35 59.7 2.85 59.7 3.1 59.8 3.35 59.95 3.8 60.1 4.05 60.1 4.15 60.25 4.35 60.45 4.45 60.65 4.6 60.95 5.0 61.3 5.35 61.45 5.55 61.85 5.85 61.95 6.05 62.35 6.35 62.7 6.7 62.9 7.15 63.0 7.4 63.5 7.6 63.75 7.65 63.8 7.9 64.05 8.0 64.5 8.2 64.6 8.45 65.0 8.75 65.15 8.95 65.4 9.35 65.55 9.55 65.65 9.75 65.85 9.95 66.0 10.4 66.25 10.8 66.3 11.05 66.4 11.3 66.65 11.4 67.1 11.95 67.3 12.05 67.45 12.3 67.45 12.3 67.3 12.1 67.1 11.95 66.6 11.4 66.4 11.3 66.25 11.05 66.25 10.8 66.0 10.4 65.85 9.95 65.65 9.8 65.55 9.55 65.4 9.35 65.25 9.15 65.0 8.75 64.8 8.65 64.6 8.45 64.5 8.25 64.3 8.1 64.05 8.05 63.8 7.95 63.7 7.7 63.45 7.6 63.0 7.4 62.9 7.15 62.7 6.7 62.35 6.35 62.15 6.25 61.95 6.05 61.8 5.85 61.65 5.7 61.45 5.6 61.3 5.35 60.95 5.05 60.8 4.85 60.45 4.45 60.25 4.35 60.1 4.15 60.1 4.1 60.05 4.25 60.15 4.5 60.15 4.75 60.2 5.2 60.2 5.45 60.3 5.7 60.35 5.9 60.35 6.15 60.3 6.4 60.35 6.65 60.5 6.85 60.5 7.1 60.6 7.35 60.55 7.6 60.6 8.05 60.6 8.55 60.55 8.85 60.55 9.15 60.65 9.25 60.75 9.5 60.9 9.7 61.0 9.9 61.2 10.05 61.35 10.25 61.55 10.4 61.65 10.6 61.85 10.8 61.9 11.05 62.15 11.5 62.55 11.8 62.7 11.95 62.55 11.8 62.15 11.55 61.9 11.05 61.85 10.8 61.65 10.65 61.5 10.45 61.35 10.25 61.2 10.1 60.95 9.95 60.9 9.7 60.75 9.5 60.65 9.25 60.55 9.15 60.5 9.3 60.45 9.55 60.75 10.25 60.8 10.5 60.95 10.7 61.1 10.9 61.15 11.4 61.3 11.6 61.35 11.85 61.25 12.1 61.15 12.3 61.2 12.55 61.3 12.8 61.25 13.05 61.35 13.25 61.45 13.5 61.4 13.75 61.5 13.95 61.7 14.4 61.7 14.65 61.65 14.9 61.6 15.15 61.55 15.35 61.6 15.6 61.75 15.85 61.75 16.1 61.85 16.3 61.9 16.5 62.05 16.7 62.1 16.95 62.25 17.15 62.35 17.4 62.8 17.6 63.0 17.8 63.15 18.0 63.25 18.2 63.25 18.2 63.0 17.8 62.8 17.6 62.35 17.4 62.25 17.15 62.1 16.95 62.05 16.7 61.9 16.55 61.85 16.3 61.75 16.1 61.7 15.85 61.55 15.6 61.55 15.35 61.6 15.15 61.6 14.9 61.7 14.65 61.65 14.4 61.5 13.95 61.4 13.75 61.4 13.5 61.35 13.25 61.25 13.05 61.25 12.8 61.15 12.55 61.15 12.3 61.2 12.05 61.35 11.85 61.25 11.6 61.15 11.4 61.1 10.9 60.95 10.7 60.75 10.5 60.7 10.25 60.45 9.55 60.45 9.3 60.5 9.15 60.5 9.1 60.3 8.95 60.1 8.75 60.0 8.55 59.75 8.45 59.6 8.25 59.4 8.15 59.05 7.75 58.95 7.5 58.7 7.45 58.4 7.0 57.75 6.75 57.45 6.35 57.3 6.15 57.1 6.0 56.95 5.8 56.65 5.4 56.2 5.2 56.05 5.0 55.85 4.9 55.1 4.7 54.7 4.45 54.55 4.25 54.25 3.85 54.25 3.85 54.55 4.25 54.7 4.4 54.9 4.55 55.6 4.85 55.85 4.85 56.05 5.0 56.2 5.2 56.7 5.4 57.0 5.75 57.1 5.95 57.3 6.1 57.45 6.35 57.75 6.7 58.45 7.0 58.7 7.45 59.0 7.5 59.1 7.75 59.4 8.1 59.6 8.25 59.75 8.45 60.0 8.55 60.3 8.95 60.5 9.1 60.55 9.05 60.5 8.85 60.6 8.6 60.6 8.05 60.5 7.6 60.55 7.35 60.5 7.1 60.5 6.85 60.35 6.65 60.25 6.4 60.35 6.15 60.35 5.95 60.25 5.7 60.15 5.45 60.2 5.2 60.1 4.75 60.15 4.5 60.0 4.25 60.05 4.1 60.0 3.95 59.75 3.85 59.65 3.6 59.4 3.5 59.2 3.35 58.7 3.2 58.0 2.9 57.95 2.65 56.9 1.95 56.75 1.75 56.65 1.5 56.5 1.35 56.4 1.1 56.2 0.95 56.05 0.75 55.85 0.65 55.4 0.45 55.2 0.3 55.05 0.1 54.85 0.0 54.55 -0.45 54.35 -0.6 54.2 -0.8 53.95 -0.8 53.6 -1.2 53.1 -1.25 52.85 -1.2 Q52.75 -1.25 52.65 -1.3 L52.35 -1.25 52.15 -1.25 51.7 -1.4 Q51.55 -1.45 51.45 -1.55 L51.2 -1.45 50.7 -1.55 50.25 -1.75 49.8 -1.75 49.3 -1.65 48.6 -1.6 48.35 -1.45 48.1 -1.45 47.85 -1.45 47.45 -1.35 47.55 -1.3 47.95 -1.0 48.1 -0.85 48.1 -0.85 48.3 -0.65 48.55 -0.55 48.75 -0.55 49.05 -0.6 49.25 -0.45 49.35 -0.25 49.55 -0.2 49.65 -0.2 50.05 0.1 50.3 0.1 50.5 0.25 50.8 0.65 51.0 0.75 51.25 0.8 51.5 0.9 51.9 1.15 52.05 1.35 52.2 1.85 52.55 2.15 53.05 2.35 53.2 2.85 53.5 3.25 53.65 3.45 53.9 3.5 54.0 3.75 53.85 3.55 53.65 3.45 53.45 3.3 53.2 2.85 53.0 2.35 52.55 2.2 52.15 1.85 52.0 1.4 51.85 1.2 51.5 0.9 51.25 0.8 51.0 0.8 50.8 0.65 50.5 0.25 50.3 0.1 50.05 0.15 49.65 -0.15 49.6 -0.15 49.6 -0.15 49.55 -0.2 49.35 -0.2 49.35 -0.25 48.65 -0.35 48.25 -0.6 48.05 -0.8 47.85 -0.85 47.65 -1.05 47.4 -1.05 47.15 -1.05 46.95 -1.25 46.7 -1.2 46.25 -1.15 46.05 -1.05 45.75 -1.1 45.55 -1.1 45.3 -1.0 44.4 -1.45 43.9 -1.55 43.7 -1.7 43.55 -1.9 43.4 -2.05 43.1 -3.0 42.75 -3.4 42.75 -3.65 42.55 -3.9 42.6 -3.9 42.15 -4.1 41.7 -4.2 40.85 -4.6 40.45 -4.9 40.0 -5.1 39.55 -5.15 39.05 -5.15 38.6 -4.95 37.65 -4.8 37.15 -4.9 35.9 -5.65 35.4 -5.75 35.05 -5.75 34.7 -5.6 34.3 -5.7 34.3 -5.6 34.5 -5.4 34.4 -4.9 34.45 -4.4 34.5 -4.15 34.7 -4.0 34.85 -3.75 35.05 -3.3 35.15 -3.1 35.35 -3.0 35.45 -2.75 35.45 -2.5 35.65 -2.3 35.75 -2.05 35.9 -1.9 35.95 -1.65 36.0 -1.4 35.95 -1.15 36.0 -0.9 36.15 -0.75 36.3 -0.55 36.5 -0.1 36.7 0.05 36.75 0.3 36.9 0.5 37.25 1.2 37.4 1.4 37.6 1.5 37.9 1.95 38.55 2.2 38.65 2.45 38.7 2.7 38.85 2.9 38.95 3.4 39.05 3.6 39.2 4.05 39.45 4.5 39.55 4.7 39.75 4.9 39.8 5.1 40.05 5.25 40.1 5.5 40.25 5.7 40.5 5.85 40.55 6.1 40.7 6.3 41.05 6.6 41.1 6.85 41.3 7.3 41.3 7.55 41.65 8.2 41.85 8.35 41.85 8.65 42.25 8.95 42.3 9.2 43.0 9.55 43.3 9.95 43.45 10.15 43.65 10.25 43.75 10.45 43.95 11.2 43.95 11.2 43.85 10.95 43.75 10.5 43.65 10.25 43.45 10.15 43.25 9.95 43.0 9.6 42.55 9.3 42.3 9.2 42.2 8.95 42.0 8.8 41.85 8.65 41.8 8.4 41.6 8.2 41.25 7.55 41.25 7.3 41.1 6.85 41.05 6.65 40.65 6.3 40.5 6.1 40.45 5.85 40.25 5.7 40.1 5.55 40.0 5.3 39.8 5.15 39.75 4.9 39.55 4.7 39.45 4.5 39.15 4.1 39.05 3.6 38.9 3.4 38.8 2.9 38.7 2.7 38.65 2.45 38.55 2.25 38.1 2.1 37.85 1.95 37.6 1.55 37.4 1.4 37.25 1.25 36.85 0.55 36.7 0.35 36.65 0.05 36.45 -0.05 36.3 -0.5 35.95 -0.9 35.9 -1.15 36.0 -1.4 35.95 -1.65 35.85 -1.85 35.7 -2.05 35.6 -2.3 35.4 -2.45 35.4 -2.75 35.35 -2.95 35.1 -3.1 34.8 -3.75 34.65 -3.95 34.45 -4.15 34.35 -4.85 34.45 -5.4 34.3 -5.6 34.25 -5.65 33.9 -5.25 33.55 -4.95 33.0 -4.15 32.6 -3.85 32.3 -3.5 32.05 -3.05 31.25 -2.5 31.3 -2.25 31.25 -2.05 31.2 -1.8 31.1 -1.55 31.1 -1.05 30.7 -0.7 30.6 -0.5 30.25 -0.15 30.05 0.0 29.9 0.2 28.95 0.65 28.75 0.95 28.8 1.0 29.45 1.35 29.6 1.6 29.9 1.95 30.15 2.0 30.7 2.5 30.8 2.75 30.95 2.9 31.05 3.15 31.25 3.35 31.25 3.6 31.5 3.75 32.0 4.25 32.1 4.5 32.3 4.65 32.4 4.9 32.6 5.0 32.8 5.15 33.1 5.2 33.2 5.4 33.65 5.7 33.75 5.9 33.95 6.05 34.2 6.5 34.4 6.6 34.8 6.95 35.25 7.15 35.65 7.75 35.8 7.95 35.95 8.15 36.25 8.5 36.7 8.75 36.95 8.8 37.35 9.1 37.6 9.15 37.75 9.35 37.85 9.6 38.0 9.8 38.15 9.95 38.75 10.4 38.85 10.65 39.0 10.8 39.1 11.05 39.2 11.3 39.45 11.7 39.55 11.9 39.75 12.05 39.85 12.3 40.0 12.5 40.25 12.6 40.4 12.75 40.65 13.2 40.75 13.4 41.15 13.7 41.55 14.3 41.8 14.4 42.05 14.85 42.2 15.05 42.65 15.3 42.75 15.5 42.95 15.65 43.2 15.7 43.45 15.85 43.55 16.05 43.55 16.3 43.65 16.55 43.8 16.7 43.9 16.95 44.05 17.15 44.25 17.3 44.55 17.65 44.7 18.1 44.95 18.2 45.35 18.5 45.45 18.55 45.45 18.4 45.4 18.15 45.55 17.65 45.55 17.4 45.25 17.05 45.15 16.8 44.95 16.65 44.9 16.4 44.95 16.15 44.85 15.9 44.7 15.75 44.55 15.5 44.5 15.3 44.55 15.5 44.7 15.7 44.85 15.9 44.95 16.15 44.9 16.4 44.95 16.65 45.15 16.8 45.25 17.0 45.55 17.4 45.55 17.65 45.4 18.15 45.45 18.4 45.45 18.55 46.25 18.8 46.7 18.9 47.4 19.25 47.55 19.35 47.65 19.6 48.05 19.9 48.2 20.1 48.2 20.35 48.3 20.6 48.35 20.85 48.5 20.85 48.7 20.95 49.0 20.9 49.2 21.0 49.5 21.0 49.7 21.15 49.85 21.35 50.3 21.55 50.6 21.95 50.8 22.05 51.2 22.35 51.35 22.55 51.75 22.8 52.2 23.0 52.35 23.2 52.55 23.35 52.8 23.45 53.05 23.45 53.2 23.65 53.7 23.75 53.9 23.9 54.1 24.1 54.5 24.4 54.75 24.35 55.0 24.4 55.75 24.3 56.2 24.4 56.7 24.25 57.2 24.1 57.4 24.1 57.65 23.95 58.05 24.15 58.55 24.25 58.85 24.2 59.05 24.3 59.2 24.45 59.45 24.55 59.75 24.55 59.95 25.05 60.1 25.2 60.2 25.45 60.3 25.7 60.5 25.85 60.45 25.85 60.3 25.7 60.15 25.45 60.1 25.2 59.95 25.05 59.75 24.55 59.45 24.55 59.2 24.5 59.05 24.3 58.85 24.2 58.55 24.25 58.05 24.2 57.85 24.05 57.65 23.95 57.4 24.1 57.2 24.1 56.7 24.25 56.2 24.4 55.75 24.3 55.0 24.4 54.75 24.4 54.5 24.4 54.1 24.1 53.9 23.9 53.7 23.75 53.2 23.7 53.05 23.45 52.8 23.45 52.55 23.35 52.35 23.2 52.2 23.0 51.75 22.8 51.35 22.55 51.2 22.35 50.55 21.95 50.3 21.55 50.1 21.45 49.85 21.4 49.65 21.2 49.45 21.05 49.0 20.95 48.7 20.95 48.5 20.85 48.35 20.85 48.4 21.35 48.55 21.55 48.8 21.65 48.9 21.9 49.35 22.1 49.5 22.25 49.7 22.45 49.95 22.45 50.15 22.55 49.7 22.45 49.5 22.3 49.35 22.1 49.1 22.05 48.9 21.9 48.75 21.7 48.55 21.6 48.4 21.35 48.35 20.85 47.5 20.85 47.2 20.75 46.95 20.35 46.8 20.2 46.35 19.95 46.25 19.7 46.0 19.65 45.7 19.2 45.4 18.85 45.35 18.85 45.35 19.1 45.35 19.6 45.45 20.1 45.7 20.55 45.7 20.75 46.0 21.2 46.0 21.45 46.1 21.65 46.05 21.9 46.05 21.65 46.0 21.45 46.0 21.2 45.7 20.8 45.7 20.55 45.4 20.1 45.35 19.85 45.35 19.35 45.3 19.1 45.35 18.85 44.95 18.65 44.7 18.2 44.7 18.1 44.5 18.0 44.25 17.95 44.1 17.75 43.6 17.65 43.45 17.5 43.2 17.35 42.95 17.3 42.75 17.2 42.25 17.15 42.05 17.05 41.85 16.9 41.6 16.8 41.45 16.65 41.25 16.55 41.0 16.5 40.8 16.35 39.85 16.05 39.65 15.9 39.55 15.7 39.35 15.5 39.25 15.25 39.15 15.05 38.95 14.85 38.75 14.7 38.7 14.45 38.4 14.4 38.35 14.15 38.15 14.0 38.05 13.75 37.3 13.1 37.25 12.85 37.05 12.7 37.0 12.45 36.85 12.25 36.7 12.05 36.55 11.35 36.3 11.2 36.05 11.1 35.85 10.95 35.75 10.75 35.6 10.55 35.35 10.5 35.15 10.4 34.45 10.2 34.25 10.0 34.0 9.95 33.75 10.0 33.55 9.8 33.3 9.8 33.15 9.6 32.7 9.4 32.6 9.15 32.5 8.95 32.35 8.75 31.95 8.15 31.65 7.75 31.45 7.65 31.15 7.2 31.05 6.95 30.95 6.75 30.75 6.6 30.5 6.6 30.3 6.45 29.65 6.15 29.4 6.2 28.45 5.9 28.25 5.75 28.0 5.8 27.95 5.75 28.05 6.3 27.9 7.25 27.95 7.7 28.05 10.1 28.1 10.6 27.95 11.1 28.15 12.0 28.2 12.5 28.35 12.95 28.6 13.3 29.0 13.6 29.45 13.8 29.65 13.75 29.85 13.6 30.1 13.65 30.35 13.6 30.6 13.65 30.8 13.8 31.0 13.9 31.25 13.9 31.5 14.05 31.95 14.1 32.2 14.2 32.45 14.15 32.7 14.15 32.9 14.3 33.15 14.3 33.6 14.5 33.85 14.4 34.1 14.4 34.3 14.5 34.5 14.7 34.75 14.75 35.2 14.65 35.45 14.75 35.7 14.7 36.1 15.05 36.6 15.15 36.8 15.3 37.05 15.4 37.2 15.55 37.45 16.0 37.65 16.2 37.85 16.35 38.1 16.4 38.3 16.5 38.5 16.65 38.65 16.85 38.85 17.0 39.0 17.2 39.15 17.35 39.65 17.55 39.7 17.8 39.9 17.95 40.4 18.1 40.75 18.4 41.0 18.5 41.15 18.75 41.55 18.95 41.95 19.25 42.1 19.45 42.35 19.55 42.65 19.95 42.85 20.4 43.45 20.8 43.7 21.2 43.9 21.4 44.05 21.6 44.15 21.8 44.35 21.95 44.8 22.15 44.95 22.35 45.3 22.7 45.4 22.9 45.45 23.2 45.55 23.4 45.65 23.65 46.1 23.9 46.35 23.95 46.55 24.45 46.8 24.55 46.9 24.8 47.05 24.9 47.05 24.85 46.95 24.6 46.85 24.4 46.85 24.4 46.95 24.6 47.05 24.85 47.05 24.9 47.35 25.0 47.55 25.15 47.8 25.2 48.25 25.8 48.5 25.85 48.65 26.05 48.85 26.2 48.95 26.45 49.15 26.6 49.2 26.85 49.45 26.95 49.55 27.15 49.7 27.35 49.85 27.55 50.1 27.6 50.3 27.75 50.55 27.8 51.0 28.0 51.15 28.15 51.4 28.25 51.55 28.45 51.8 28.55 52.05 28.6 52.25 28.7 52.55 29.1 52.8 29.2 52.95 29.4 52.9 29.4 52.8 29.2 52.55 29.1 52.25 28.75 52.05 28.6 51.55 28.5 51.35 28.3 50.95 28.0 50.55 27.8 50.3 27.8 50.1 27.65 49.85 27.55 49.7 27.35 49.55 27.2 49.4 27.0 49.2 26.85 49.15 26.6 48.95 26.45 48.85 26.2 48.65 26.05 48.5 25.85 48.25 25.8 47.75 25.2 47.5 25.15 47.1 24.95 47.15 25.05 47.35 25.25 47.45 25.45 47.3 25.25 47.15 25.05 47.05 24.9 46.85 24.85 46.75 24.6 46.55 24.45 46.35 24.0 45.65 23.7 45.5 23.45 45.4 22.95 45.25 22.7 44.95 22.4 44.8 22.2 44.1 21.8 44.0 21.6 43.85 21.4 43.65 21.25 43.45 20.8 42.8 20.4 42.6 19.95 42.3 19.55 42.05 19.45 41.95 19.25 41.75 19.15 41.55 19.0 41.3 18.9 41.1 18.75 41.0 18.55 40.75 18.45 40.35 18.15 39.85 18.0 39.7 17.85 39.6 17.6 38.95 17.2 38.8 17.0 38.6 16.9 38.45 16.7 38.3 16.55 38.05 16.4 37.8 16.35 37.6 16.2 37.45 16.05 37.3 15.8 37.0 15.4 36.75 15.35 36.6 15.2 36.1 15.1 35.7 14.75 35.45 14.8 35.2 14.7 34.7 14.8 34.5 14.7 34.3 14.55 34.1 14.45 33.85 14.45 33.6 14.5 33.15 14.35 32.9 14.35 32.65 14.2 32.45 14.2 32.2 14.25 31.95 14.15 31.45 14.1 31.25 13.95 31.0 13.95 30.75 13.85 30.55 13.7 30.35 13.65 30.1 13.7 29.85 13.65 29.7 13.8 29.5 13.85 30.6 14.6 30.95 15.0 32.15 15.75 33.0 16.3 33.25 16.7 33.65 16.95 33.9 17.35 34.25 17.7 34.55 18.1 34.9 19.0 34.8 20.0 34.55 21.4 34.65 21.85 35.55 23.0 35.85 23.95 35.8 24.9 36.1 25.3 36.15 25.8 36.3 26.25 37.25 27.95 37.4 28.4 37.45 28.85 37.3 29.85 37.35 30.8 37.5 31.3 37.4 31.75 37.4 32.25 37.25 32.7 37.15 33.2 36.85 34.1 36.8 34.1 37.1 33.2 37.2 32.7 37.35 32.25 37.35 31.75 37.45 31.3 37.3 30.8 37.25 29.85 37.4 28.85 37.35 28.4 37.2 27.95 36.55 26.65 36.25 26.25 36.1 25.8 36.05 25.3 35.75 24.9 35.8 23.95 35.5 23.0 34.6 21.85 34.45 21.4 34.85 19.5 34.85 19.05 34.7 19.2 34.7 19.7 34.55 19.9 34.5 20.1 33.95 20.7 33.65 21.35 33.65 21.6 33.35 22.0 33.25 22.25 33.3 22.5 33.2 22.7 33.2 22.95 33.1 23.2 33.15 23.4 33.15 23.65 33.35 24.4 33.25 24.9 33.45 25.05 33.6 25.25 33.8 25.45 33.8 25.95 33.95 26.15 34.2 26.3 34.2 26.55 34.4 26.7 34.45 26.95 34.7 27.4 34.8 27.6 34.8 27.85 34.95 28.05 34.95 28.35 35.1 28.55 35.05 28.8 35.1 29.0 35.1 29.5 35.2 30.0 35.35 30.2 35.4 30.45 35.7 30.85 35.85 31.3 35.8 31.55 35.85 31.8 35.8 32.05 36.05 32.95 36.0 33.2 36.3 33.9 36.25 34.15 36.55 34.6 36.55 34.85 36.7 35.1 36.45 35.55 36.55 35.8 36.55 36.05 36.45 36.55 36.45 37.0 36.3 37.25 36.25 37.7 36.1 37.95 36.15 38.2 36.2 38.4 36.3 38.65 36.35 38.9 36.25 39.15 36.15 39.4 36.25 39.65 36.5 40.05 36.55 40.3 36.6 40.55 36.65 40.75 36.85 40.95 36.95 41.2 36.9 41.2 37.2 41.6 37.2 41.85 37.25 42.05 37.45 42.25 37.5 42.75 37.65 42.95 37.65 42.95 37.5 42.75 37.4 42.25 37.25 42.1 37.2 41.85 37.2 41.6 37.05 41.4 36.9 41.2 36.8 40.95 36.65 40.8 36.6 40.55 36.55 40.3 36.45 40.05 36.2 39.65 36.15 39.4 36.3 38.9 36.25 38.65 36.15 38.4 36.15 38.2 36.1 37.95 36.2 37.7 36.3 37.25 36.4 37.0 36.45 36.5 36.45 36.3 36.55 36.05 36.5 35.8 36.45 35.55 36.65 35.1 36.55 34.85 36.5 34.6 36.25 34.15 36.25 33.9 36.1 33.45 36.0 33.2 36.05 32.95 35.9 32.5 35.8 32.05 35.8 31.3 35.7 30.85 35.35 30.45 35.3 30.2 35.2 30.0 35.05 29.5 35.05 29.3 35.1 29.05 35.0 28.8 35.05 28.55 34.9 28.35 34.9 28.1 34.8 27.85 34.8 27.6 34.65 27.4 34.45 26.95 34.35 26.75 34.15 26.55 34.15 26.3 33.95 26.15 33.8 25.95 33.75 25.45 33.4 25.1 33.2 24.9 33.35 24.4 33.1 23.65 33.1 23.4 33.05 23.15 33.15 22.95 33.15 22.7 33.3 22.5 33.25 22.25 33.3 22.0 33.6 21.6 33.6 21.35 33.7 21.1 33.9 20.7 34.45 20.1 34.5 19.85 34.65 19.65 34.7 19.45 34.65 19.15 34.85 19.0 34.5 18.15 34.2 17.75 33.85 17.4 33.6 17.0 33.2 16.75 32.95 16.35 32.55 16.05 32.1 15.85 30.9 15.05 30.6 14.65 29.4 13.85 28.95 13.65 28.55 13.35 28.25 12.95 28.1 12.5 28.05 12.0 27.85 11.05 28.0 10.6 27.95 10.15 27.9 8.2 27.8 7.25 27.95 6.3 27.85 5.75 27.55 5.6 27.4 5.4 26.9 5.25 26.5 5.0 26.15 4.6 25.5 4.3 25.35 4.1 24.6 4.0 24.35 4.0 24.15 3.95 23.9 4.0 23.65 3.95 23.4 4.05 23.15 4.0 22.95 3.9 22.9 3.9 22.7 4.05 22.45 3.95 22.2 3.9 22.0 3.9 21.75 4.0 21.5 3.95 21.1 3.65 20.85 3.55 20.6 3.55 20.35 3.55 20.15 3.4 19.7 3.25 19.25 3.35 19.0 3.3 18.8 3.45 18.55 3.45 18.35 3.6 18.1 3.6 17.85 3.65 17.7 3.85 17.4 4.25 17.15 4.35 17.05 4.6 16.85 5.05 16.7 5.2 16.45 5.35 16.25 5.5 16.2 5.7 16.05 5.9 15.6 6.2 15.55 6.7 15.5 6.95 15.3 7.15 15.3 7.4 15.35 7.65 15.35 7.85 15.5 8.6 15.45 8.8 15.45 9.05 15.45 8.6 15.3 7.85 15.35 7.65 15.3 7.4 15.3 7.15 15.45 6.95 15.55 6.7 15.6 6.2 16.0 5.9 16.15 5.7 16.25 5.45 16.45 5.3 16.65 5.2 16.85 5.0 16.95 4.8 17.05 4.55 17.15 4.35 17.35 4.25 17.7 3.8 17.85 3.65 18.1 3.6 18.35 3.6 18.55 3.4 18.8 3.45 19.0 3.3 19.25 3.3 19.7 3.2 19.95 3.35 20.2 3.35 20.4 3.55 20.6 3.55 20.85 3.5 21.1 3.65 21.5 3.95 21.75 3.95 22.0 3.9 22.2 3.85 22.7 4.0 22.9 3.9 22.7 3.8 22.5 3.65 22.25 3.65 22.0 3.75 21.75 3.65 21.5 3.65 20.85 3.4 20.65 3.2 20.4 3.2 20.15 3.2 19.65 3.15 19.45 3.05 19.2 3.0 18.95 3.05 18.7 3.05 18.5 2.85 18.25 2.8 18.1 2.6 18.0 2.35 17.7 1.95 17.45 1.95 17.2 1.85 17.05 1.65 16.95 1.4 16.25 1.1 16.15 0.85 16.0 0.65 15.75 -0.35 15.65 -0.55 15.6 -1.05 15.35 -1.75 Q15.25 -1.8 15.15 -1.85 L15.0 -2.1 14.7 -2.45 14.55 -2.95 14.35 -3.1 14.2 -3.3 14.15 -3.55 14.05 -3.65 13.75 -3.65 13.3 -3.4 12.35 -3.25 10.4 -3.4 10.3 -3.5 10.05 -2.7 9.65 -2.35 9.45 -1.9 9.15 -1.5 8.7 -1.3 8.25 -1.05 6.95 -0.45 6.45 -0.3 5.95 -0.35 4.5 -0.65 3.6 -1.75 3.45 -1.85 3.4 -1.5 3.15 -1.15 3.15 -1.15 3.3 -0.95 3.5 -0.8 3.65 -0.6 3.8 -0.4 3.95 -0.2 4.15 -0.05 4.3 0.7 4.45 0.85 4.5 0.95 4.7 1.05 4.8 1.25 4.9 1.35 4.8 1.3 4.7 1.05 4.5 0.95 4.6 1.35 4.7 1.55 4.85 1.75 4.85 2.0 4.9 2.25 4.85 2.5 4.85 2.75 5.0 3.2 4.9 2.95 4.85 2.75 4.85 2.25 4.8 2.0 4.85 1.75 4.7 1.55 4.6 1.35 4.55 1.1 4.45 0.95 4.25 0.75 4.15 0.55 4.1 0.3 4.05 0.05 3.9 -0.15 3.7 -0.3 3.55 -0.5 3.3 -0.9 3.05 -1.0 2.9 -0.65 2.5 -0.35 2.2 0.0 1.85 0.35 1.4 0.65 0.85 1.4 0.1 2.05 -0.3 2.3 -1.15 3.1 -1.05 3.4 -1.15 3.65 -1.2 4.65 -1.4 4.85 -1.45 5.05 -1.45 5.55 -1.6 5.75 -1.45 6.0 -1.4 6.25 -1.3 6.45 -1.2 6.65 -1.0 6.85 -0.9 7.05 -0.7 7.2 -0.5 7.4 -0.55 7.65 -0.45 7.9 -0.45 8.1 -0.4 8.35 -0.35 8.6 -0.45 8.85 -0.35 9.1 -0.45 9.8 -0.65 10.0 -0.7 10.25 -0.75 10.45 -0.8 10.7 -0.8 10.95 -0.95 11.7 -0.85 12.15 -0.85 12.4 -0.7 12.65 -0.7 12.9 -0.4 13.3 -0.3 13.55 0.05 13.95 0.05 14.2 0.2 14.65 0.15 14.9 0.2 15.15 0.1 15.35 0.15 15.85 0.1 16.1 0.0 16.35 0.0 16.6 -0.05 16.8 -0.2 17.0 -0.2 17.3 -0.3 17.5 -0.45 17.7 -0.7 17.8 -1.35 18.2 -1.55 18.4 -1.55 18.65 -1.8 19.05 -1.8 19.3 -1.95 19.5 -2.15 19.65 -2.25 19.9 -2.35 20.15 -2.4 20.4 -2.65 20.55 -2.75 20.75 Q-2.9 20.8 -3.0 20.85 L-3.1 21.1 -3.25 21.25 -3.5 21.35 -3.65 21.55 -3.85 21.65 -4.05 21.8 -4.25 22.25 -4.45 22.45 -4.45 22.7 -4.8 23.05 -4.9 23.3 -5.0 23.5 -5.15 23.95 -5.15 24.25 -5.4 24.9 -5.5 25.15 -5.5 25.4 -5.65 25.6 -5.7 25.85 -5.75 26.35 -5.55 26.8 -5.55 27.05 -5.5 27.3 -5.5 27.55 -5.45 27.75 -5.5 28.05 -5.5 28.25 -5.35 28.5 -5.35 28.75 -5.25 29.0 -5.35 29.45 -5.5 29.65 -5.6 29.9 -5.55 30.15 -5.7 30.6 -5.7 30.9 -6.05 31.25 -6.15 31.5 -6.15 31.75 -6.3 31.95 -6.3 32.0 -6.2 32.1 -6.0 32.2 -5.65 32.55 -5.2 32.7 -4.65 32.65 -4.45 32.8 -4.2 32.8 -3.7 32.9 -3.5 33.0 -3.25 33.05 -2.85 33.3 -2.1 33.5 Q-1.9 33.65 -1.7 33.8 L-1.55 33.95 -1.3 34.05 -0.9 34.3 -0.65 34.4 -0.4 34.45 -0.2 34.95 0.05 35.0 0.2 35.2 1.2 35.45 2.0 35.95 2.2 36.45 2.45 36.55 2.6 36.7 2.9 37.1 3.05 37.6 3.4 37.9 3.45 38.15 3.55 38.4 3.95 38.65 4.05 38.85 4.25 39.05 4.3 39.3 4.5 39.45 4.65 39.95 4.6 40.2 4.75 40.4 4.8 40.65 4.9 40.85 5.25 41.2 5.45 41.35 5.45 41.65 5.7 42.3 5.9 42.45 6.05 42.65 6.1 42.9 6.5 43.2 6.65 43.4 6.7 43.65 6.85 43.85 7.4 44.3 7.5 44.8 7.4 44.3 7.2 44.2 6.85 43.85 6.7 43.65 6.65 43.4 6.5 43.25 6.1 42.9 6.05 42.65 5.9 42.45 5.7 42.35 5.45 41.65 5.45 41.4 5.25 41.2 4.9 40.85 4.8 40.65 4.75 40.4 4.6 40.2 4.6 39.95 4.45 39.45 4.3 39.3 4.25 39.05 4.05 38.9 3.95 38.65 3.5 38.4 3.4 38.15 3.4 37.9 3.0 37.6 2.85 37.1 2.6 36.7 2.4 36.55 2.2 36.45 2.0 35.95 1.2 35.45 0.9 35.45 0.2 35.2 0.05 35.05 -0.2 34.95 -0.45 34.5 -0.7 34.45 -0.9 34.35 -1.3 34.05 -1.55 34.0 -1.75 33.8 -2.15 33.55 -2.85 33.3 -3.25 33.05 -3.5 33.05 -3.75 32.95 -4.2 32.8 -4.45 32.85 -4.7 32.7 -5.2 32.75 -5.45 32.7 -5.65 32.6 -6.0 32.25 -6.25 32.15 -6.35 32.05 -6.4 32.2 -6.4 32.45 -6.45 32.65 -6.15 33.85 -6.0 34.3 -5.65 34.65 -5.65 34.65 -6.05 34.35 -6.2 33.9 -6.5 32.7 -6.7 32.8 -7.0 33.2 -7.05 33.7 -7.1 33.9 -7.45 34.6 -7.5 34.6 -7.15 33.9 -7.05 33.7 -7.0 33.2 -6.7 32.8 -6.5 32.7 -6.55 32.5 -6.75 32.05 -7.4 31.35 -7.6 30.9 -7.9 30.55 -8.3 30.3 -8.8 30.15 -9.45 29.4 -9.8 29.1 -10.15 28.75 -11.4 28.05 -11.8 27.75 -12.65 27.3 -13.05 27.0 -13.95 26.7 -14.35 26.45 -14.7 26.1 -15.0 25.7 -15.4 24.8 -16.5 23.9 -16.75 23.45 -17.05 23.1 -17.65 22.3 -18.35 21.7 -18.6 21.25 -19.65 20.25 -20.05 19.95 -20.45 19.0 -20.45 18.5 -20.05 18.3 -19.35 17.65 -19.05 17.25 -18.65 17.0 -18.25 16.75 -17.1 15.2 -16.65 14.35 -16.35 13.45 -16.15 11.55 -16.25 10.55 -15.8 10.3 -15.05 9.75 -14.7 9.4 -14.3 9.2 -13.9 8.9 -13.05 8.45 -12.7 8.1 -12.35 7.75 -11.5 7.3 -11.15 7.0 -10.75 6.7 -10.5 6.3 -10.15 5.95 -9.9 5.55 -9.55 5.25 -9.25 4.85 -8.9 4.55 -8.65 4.1 -8.25 3.75 -7.9 4.05 -7.55 4.4 -7.15 4.65 -6.7 4.7 -6.25 4.85 -5.3 4.95 -4.8 4.95 -4.35 4.85 -4.0 4.5 -3.55 4.3 -3.05 4.2 -2.65 4.0 -1.85 3.4 -1.45 3.15 -1.25 3.0 -1.3 2.95 -1.3 2.7 -1.55 2.0 -1.5 1.75 -1.4 1.5 -1.4 0.8 -1.5 0.6 -1.45 0.35 -1.5 0.1 -1.8 -1.1 -1.95 -1.35 -2.0 -1.55 -2.0 -2.05 -1.9 -2.3 -1.75 -2.5 -1.75 -2.75 -1.6 -2.95 -1.55 -3.2 -1.45 -3.4 -1.3 -3.65 -1.1 -3.8 -0.95 -4.0 -0.7 -4.05 -0.45 -4.1 -0.25 -4.15 0.0 -4.05 0.25 -4.1 0.5 -4.1 0.55 -4.15 0.25 -4.3 0.15 -4.45 0.25 -4.3 0.5 -4.2 0.55 -4.15 0.6 -4.15 0.6 -4.2 0.2 -5.1 0.1 -5.6 -0.05 -6.0 -0.45 -6.35 -0.7 -6.7 -1.15 -6.95 -1.45 -7.3 -1.45 -7.2 -1.5 -7.3 -1.55 -7.35 -1.5 -7.35 -1.55 -7.4 -1.6 -7.65 -1.5 -8.15 -1.55 -8.35 -1.6 -8.6 -1.4 -8.85 -1.4 -9.6 -1.5 -10.05 -1.2 -10.5 -1.1 -10.7 -1.1 -10.75 -1.2 -10.95 -1.15 -11.1 -1.15 -11.15 -1.1 -12.0 -1.15 -12.0 -1.2 -11.9 -1.4 -11.65 -2.5 -12.35 -4.9 -12.35 -13.8 -15.95 -22.75 -20.25 -31.85 -23.8 -34.35 -25.4 -34.35 -25.4 -34.5 -25.45 -34.45 -25.5 -35.75 -26.35 -45.2 -29.55 -49.6 -31.85 -51.9 -34.05 -51.9 -34.45 -50.2 -32.9 -49.95 -33.05 -49.25 -33.75 -47.05 -34.75 -46.15 -35.05 -45.65 -35.15 -45.2 -35.35 -44.7 -35.35 -44.25 -35.5 -43.85 -35.75 -43.4 -35.95 -42.95 -36.0 -40.1 -35.3 -40.05 -35.3 -39.85 -35.35 -39.65 -35.4 -39.4 -35.35 -39.1 -35.4 -38.9 -35.2 -38.45 -35.1 -38.4 -35.05 -38.2 -35.05 -37.75 -35.2 -37.0 -35.75 -36.15 -36.25 -35.9 -36.6 -35.7 -37.05 -35.4 -37.4 -35.6 -37.85 -35.65 -38.05 -35.85 -38.25 -35.85 -38.8 -35.95 -38.9 -36.05 -39.05 -36.2 -39.25 -36.2 -39.5 -36.15 -39.7 -36.25 -39.85 -36.45 -40.3 -36.7 -40.75 -36.75 -40.95 -36.95 -41.15 -37.0 -41.4 -37.05 -41.65 -37.2 -41.8 -37.35 -42.0 -37.55 -42.2 -37.75 -42.65 -37.95 -42.8 -38.6 -43.15 -38.7 -43.4 -38.65 -43.65 -38.65 -43.9 -38.85 -44.3 -38.95 -44.55 -39.2 -44.95 -39.35 -45.15 -39.4 -45.7 -39.3 -46.15 -39.35 -46.45 -39.25 -46.65 -39.3 -46.9 -39.25 -47.15 -39.3 -47.4 -39.25 -47.65 -39.35 -47.9 -39.3 -48.1 -39.35 -48.35 -39.3 -49.15 -39.2 -49.35 -39.0 -49.55 -38.8 -49.65 -38.6 -49.8 -38.35 -49.95 -38.3 -50.15 -38.1 -50.35 -38.2 -51.1 -37.95 -51.8 -37.8 -52.0 -37.75 -52.25 -37.65 -52.45 -37.5 -52.65 -37.4 -52.85 -37.15 -53.0 -36.95 -53.15 -36.85 -53.35 -36.65 -53.55 -36.5 -53.75 -36.2 -54.1 -36.0 -54.6 -35.85 -54.8 -35.65 -54.95 -35.45 -55.1 -35.25 -55.2 -34.9 -55.55 -34.7 -55.65 -34.55 -55.85 -34.1 -56.1 -33.95 -56.25 -33.7 -56.7 -33.55 -56.9 -33.45 -57.4 -33.35 -57.6 -33.45 -57.6 -33.7 -57.75 -33.95 -57.8 -34.15 -57.9 -34.1 -58.15 -34.1 -58.4 -34.25 -58.6 -34.15 -59.1 -34.35 -59.8 -34.15 -60.0 -34.1 -60.25 -33.95 -60.45 -33.85 -60.65 -33.95 -60.9 -33.9 -61.15 -33.75 -61.35 -33.8 -61.65 -33.8 -61.85 -33.6 -62.05 -33.55 -62.55 -33.55 -63.05 -33.3 -63.5 -33.25 -63.75 -32.85 -64.35 -32.75 -64.8 -32.8 -65.05 -32.65 -65.3 -32.8 -66.0 -32.75 -66.25 -32.85 -66.5 -32.85 -66.7 -32.95 -66.95 -32.95 -67.45 -33.1 -67.65 -33.15 -67.9 -33.3 -68.35 -33.45 -68.55 -33.6 -68.75 -33.75 -68.95 -34.2 -69.15 -34.4 -69.3 -34.5 -69.55 -34.7 -69.7 -34.8 -69.9 -35.0 -70.05 -35.15 -70.2 -35.25 -70.45 -35.5 -70.55 -35.6 -70.75 -36.0 -71.05 -36.15 -71.25 -36.5 -71.6 -36.55 -71.85 -36.9 -72.2 -37.0 -72.45 -37.1 -72.65 -37.2 -73.15 -36.85 -73.55 -36.75 -73.75 -36.8 -74.0 -36.65 -74.25 -36.7 -74.45 -36.65 -74.2 -36.8 -74.0 -36.7 -73.75 -36.85 -73.55 -37.15 -73.15 -37.1 -72.65 -36.95 -72.45 -36.9 -72.2 -36.55 -71.85 -36.5 -71.6 -36.1 -71.3 -36.0 -71.1 -35.75 -70.95 -35.6 -70.8 -35.45 -70.55 -35.2 -70.45 -35.15 -70.25 -35.0 -70.05 -34.75 -69.9 -34.7 -69.7 -34.5 -69.55 -34.35 -69.3 -33.7 -68.95 -33.6 -68.75 -33.4 -68.55 -33.3 -68.35 -33.15 -67.9 -33.1 -67.65 -32.95 -67.45 -32.9 -66.95 -32.8 -66.75 -32.8 -66.5 -32.75 -66.25 -32.8 -66.0 -32.65 -65.3 -32.8 -65.05 -32.7 -64.8 -32.85 -64.35 -33.1 -63.95 -33.25 -63.7 -33.3 -63.5 -33.5 -63.05 -33.55 -62.8 -33.5 -62.55 -33.6 -62.05 -33.75 -61.85 -33.8 -61.6 -33.75 -61.35 -33.85 -61.15 -33.9 -60.9 -33.85 -60.65 -33.95 -60.45 -34.1 -60.25 -34.15 -60.0 -34.3 -59.8 -34.15 -59.1 -34.2 -58.65 -34.1 -58.4 -34.05 -58.15 -34.15 -57.9 -33.7 -57.75 -33.3 -57.6 -33.1 -57.75 -32.95 -57.95 -32.7 -58.65 -32.7 -59.15 -32.35 -59.55 -32.45 -59.8 -32.35 -60.05 -32.45 -60.3 -32.25 -60.5 -32.7 -61.7 -32.75 -61.95 -32.75 -62.2 -32.6 -62.65 -32.7 -62.9 -32.75 -63.15 -32.65 -63.35 -32.5 -63.6 -32.6 -63.85 -32.55 -64.1 -32.4 -64.3 -32.25 -64.45 -32.1 -64.65 -31.85 -64.8 -31.7 -65.0 -31.4 -65.65 -31.25 -65.85 -31.25 -66.1 -30.95 -66.5 -30.85 -66.75 -30.8 -67.0 -30.6 -67.15 -30.4 -67.6 -30.35 -67.8 -30.0 -68.15 -29.8 -68.3 -29.35 -68.9 -29.15 -69.05 -28.9 -69.05 -28.55 -69.45 -28.35 -69.6 -28.1 -69.6 -27.9 -69.8 -27.7 -69.8 -27.9 -69.75 -28.1 -69.6 -28.35 -69.55 -28.55 -69.4 -28.9 -69.05 -29.15 -69.0 -29.35 -68.9 -29.8 -68.3 -30.0 -68.15 -30.15 -67.95 -30.3 -67.8 -30.4 -67.55 -30.6 -67.15 -30.8 -67.0 -30.85 -66.75 -30.95 -66.5 -31.2 -66.1 -31.2 -65.85 -31.35 -65.65 -31.65 -65.0 -31.85 -64.8 -32.05 -64.65 -32.2 -64.45 -32.4 -64.3 -32.5 -64.05 -32.55 -63.85 -32.5 -63.6 -32.6 -63.35 -32.7 -63.15 -32.7 -62.9 -32.55 -62.7 -32.7 -62.2 -32.7 -61.7 -32.25 -60.5 -32.4 -60.3 -32.3 -60.05 -32.4 -59.8 -32.35 -59.55 -32.7 -59.15 -32.7 -58.6 -32.95 -57.9 -33.1 -57.75 -33.25 -57.6 -33.2 -57.6 -33.0 -57.45 -32.55 -57.3 -32.25 -57.3 -31.8 -57.1 -31.65 -56.9 -31.45 -56.75 -31.35 -56.55 -31.0 -56.4 -31.0 -56.65 -30.85 -57.35 -30.45 -57.7 -30.25 -57.85 -29.9 -58.5 -29.8 -58.75 -29.7 -58.95 -29.6 -59.15 -29.4 -59.3 -29.2 -59.45 -29.05 -59.65 -29.0 -59.9 -28.8 -60.05 -28.7 -60.25 -28.55 -60.45 -28.45 -60.7 -28.2 -60.8 -28.1 -61.0 -27.85 -61.15 -27.7 -61.3 -27.4 -62.05 -27.2 -62.15 -27.0 -62.35 -26.75 -62.75 Q-26.55 -62.85 -26.3 -63.0 L-26.15 -63.15 -25.95 -63.3 -25.8 -63.5 -25.35 -63.75 -24.85 -64.3 -24.8 -64.55 -24.75 -64.75 -24.6 -64.95 -24.6 -65.2 -24.55 -65.45 -24.35 -65.65 -24.15 -66.1 -24.15 -66.35 -24.25 -66.6 -24.1 -67.05 -24.15 -67.75 -24.05 -68.0 -23.95 -68.25 -23.9 -68.45 -23.95 -68.25 -24.05 -68.0 -24.1 -67.75 -24.05 -67.05 -24.25 -66.6 -24.15 -66.35 -24.15 -66.1 -24.35 -65.65 -24.5 -65.45 -24.6 -65.2 -24.6 -64.95 -24.75 -64.75 -24.8 -64.55 -24.85 -64.3 -25.2 -63.95 -25.35 -63.75 -25.8 -63.5 -25.9 -63.25 -26.15 -63.15 -26.3 -62.95 -26.75 -62.75 -27.0 -62.3 -27.15 -62.15 -27.4 -62.0 -27.45 -61.75 -27.65 -61.3 -27.85 -61.15 -28.05 -61.0 -28.2 -60.8 -28.45 -60.65 -28.5 -60.45 -28.7 -60.25 -28.75 -60.0 -28.95 -59.85 -29.15 -59.45 -29.4 -59.3 -29.6 -59.15 -29.8 -58.7 -29.85 -58.45 -30.2 -57.85 -30.4 -57.65 -30.85 -57.35 -30.9 -56.85 -31.0 -56.65 -31.0 -56.4 -30.85 -56.35 -30.7 -56.2 -30.45 -56.1 -30.35 -55.85 -29.8 -55.35 -29.5 -55.0 -29.3 -54.8 -29.15 -54.6 -29.15 -54.35 -29.2 -53.85 -29.1 -53.6 -29.2 -53.15 -29.2 -52.9 -29.3 -52.65 -29.45 -52.45 -29.5 -52.2 -29.55 -51.95 -29.55 -51.45 -29.7 -51.25 -30.25 -50.75 -30.4 -50.55 -30.65 -50.45 -30.7 -50.2 -30.8 -50.0 -30.95 -49.8 -31.4 -49.6 -31.7 -49.6 -31.95 -49.15 -32.3 -48.85 -32.75 -48.6 -32.85 -48.4 -32.9 -48.15 -33.1 -47.95 -33.25 -47.75 -33.25 -47.5 -33.4 -47.3 -33.4 -47.05 -33.6 -46.85 -33.55 -46.6 -33.6 -46.4 -33.75 -46.15 -33.75 -45.95 -33.7 -45.65 -33.65 -45.4 -33.4 -45.0 -33.2 -44.85 -33.2 -44.3 -33.05 -44.1 -32.8 -43.65 -32.9 -43.4 -32.95 -43.2 -32.9 -42.95 -32.8 -42.7 -32.6 -42.25 -32.8 -41.8 -32.85 -41.55 -32.8 -41.3 -32.7 -41.05 -32.65 -40.8 -32.4 -39.85 -32.35 -39.6 -32.4 -39.35 -32.35 -39.15 -32.4 -38.95 -32.05 -39.15 -31.65 -39.45 -31.2 -39.6 -30.75 -39.8 -30.3 -39.95 -28.8 -39.8 -28.35 -39.6 -27.9 -39.55 -27.1 -38.9 -25.75 -38.5 -25.55 -38.35 -25.5 -38.4 -25.35 -38.55 -25.1 -38.65 -24.9 -38.8 -24.65 -38.85 -24.45 -39.0 -24.2 -39.0 -23.95 -39.1 -23.8 -39.3 -23.6 -39.4 -23.45 -39.6 -23.25 -39.75 -23.05 -39.9 -22.85 -40.4 -22.7 -40.55 -22.5 -40.65 -22.25 -40.75 -22.1 -40.95 -21.65 -41.2 -21.55 -41.45 -21.35 -41.6 -21.25 -41.8 -21.05 -41.9 -20.75 -42.3 -20.0 -42.9 -19.65 -43.8 -19.4 -44.75 -18.6 -45.35 -18.35 -45.75 -17.9 -45.95 -17.5 -46.25 -16.55 -46.55 -15.75 -47.0 -15.0 -47.65 -14.8 -47.7 -14.75 -47.8 -14.95 -48.55 -14.85 -48.8 -14.6 -49.25 -14.6 -49.5 -14.55 -49.75 -14.5 -49.95 -14.4 -50.2 -14.35 -50.45 -14.15 -50.85 -14.15 -51.1 -14.0 -51.35 -13.8 -51.5 -13.75 -51.7 -13.65 -51.95 -13.4 -52.05 -13.15 -52.15 -12.85 -52.5 -12.65 -52.65 -12.55 -52.9 -12.4 -53.1 -12.25 -53.3 -12.05 -53.4 -11.9 -53.65 -11.75 -53.8 -11.6 -54.0 -11.45 -54.2 -10.85 -54.65 -10.65 -54.75 -10.4 -54.85 -10.15 -54.8 -9.95 -54.95 -9.75 -55.1 -9.5 -55.15 -9.35 -55.35 -8.9 -55.55 -8.15 -56.55 -7.7 -56.75 -7.45 -56.8 -7.2 -56.9 -7.15 -57.15 -6.8 -57.55 -6.75 -57.75 -6.75 -58.05 -6.65 -58.25 -6.7 -58.8 -6.65 -59.0 -6.45 -59.2 -6.35 -59.4 -6.2 -59.6 -6.15 -59.85 -5.55 -60.3 -5.5 -60.85 -5.35 -61.05 -5.3 -61.25 -5.1 -61.45 -5.0 -61.65 -4.65 -61.95 -4.4 -62.1 -4.15 -62.15 -3.95 -62.25 -3.75 -62.4 -3.6 -62.6 -3.4 -62.75 -3.15 -62.85 -2.9 -62.85 -2.75 -63.0 -2.55 -63.15 -1.85 -63.4 -1.55 -63.45 -1.55 -63.45 -1.8 -63.4 -2.5 -63.15 -2.7 -63.0 -2.9 -62.85 -3.15 -62.8 -3.4 -62.75 -3.6 -62.6 -3.75 -62.4 -3.95 -62.2 -4.15 -62.15 -4.4 -62.1 -4.6 -61.95 -4.95 -61.65 -5.1 -61.45 -5.3 -61.25 -5.35 -61.05 -5.5 -60.85 -5.5 -60.3 -6.15 -59.85 -6.15 -59.6 -6.35 -59.4 -6.45 -59.2 -6.65 -59.0 -6.7 -58.75 -6.65 -58.25 -6.75 -58.05 -6.75 -57.75 -6.8 -57.55 -7.15 -57.15 -7.2 -56.9 -7.45 -56.8 -7.7 -56.7 -8.15 -56.5 -8.9 -55.55 -9.35 -55.35 -9.5 -55.15 -9.75 -55.1 -9.95 -54.9 -10.15 -54.8 -10.4 -54.8 -10.65 -54.75 -10.85 -54.65 -11.4 -54.2 -11.6 -54.0 -11.7 -53.8 -11.9 -53.65 -12.0 -53.4 -12.25 -53.3 -12.6 -52.65 -12.8 -52.5 -13.15 -52.1 -13.4 -52.05 -13.6 -51.95 -13.7 -51.7 -13.8 -51.45 -14.0 -51.3 -14.1 -51.1 -14.15 -50.85 -14.35 -50.4 -14.4 -50.15 -14.5 -49.95 -14.5 -49.7 -14.55 -49.5 -14.6 -49.25 -14.85 -48.8 -14.9 -48.55 -14.75 -47.8 -14.75 -47.75 -14.55 -47.85 -14.1 -47.95 -12.5 -49.05 -12.05 -49.25 -11.7 -49.6 -11.25 -49.75 -10.3 -49.9 -9.1 -50.65 -8.7 -51.0 -7.25 -51.3 -6.8 -51.35 -6.8 -51.6 -6.65 -51.8 -6.65 -52.05 -6.5 -52.25 -6.5 -52.5 -6.3 -52.95 -6.3 -53.2 -6.0 -53.6 -5.8 -53.75 -5.75 -54.0 -5.4 -54.35 -5.3 -54.6 -5.05 -54.7 -4.8 -54.8 -4.65 -54.95 -4.4 -54.95 -4.15 -55.05 -3.9 -55.1 -3.4 -55.0 -3.15 -55.1 -2.9 -55.05 -2.65 -55.1 -2.45 -55.1 -2.2 -55.15 -1.7 -55.1 -1.45 -55.0 -0.7 -55.2 -0.5 -55.3 0.0 -55.25 0.5 -55.25 0.7 -55.4 0.95 -55.5 1.2 -55.45 1.4 -55.6 1.65 -55.6 2.4 -55.7 2.6 -55.85 2.75 -56.0 3.0 -56.1 3.2 -56.3 3.35 -56.45 3.6 -56.55 3.85 -56.55 4.05 -56.65 4.25 -56.8 4.5 -56.85 4.75 -56.95 4.95 -56.95 5.35 -57.3 5.6 -57.3 5.85 -57.25 6.3 -57.4 6.55 -57.4 7.2 -57.75 7.45 -57.75 7.7 -57.75 8.2 -57.8 8.4 -57.9 8.65 -57.9 8.9 -57.8 9.15 -57.9 9.35 -58.1 9.7 -58.45 9.95 -58.5 10.15 -58.65 10.4 -58.75 10.6 -58.75 10.85 -58.8 11.05 -58.95 11.3 -59.0 11.55 -59.05 11.7 -59.25 11.95 -59.3 12.1 -59.5 12.35 -59.55 12.75 -59.8 13.0 -59.8 13.5 -59.85 13.75 -59.95 13.95 -60.1 14.2 -60.1 14.4 -60.25 14.9 -60.25 15.1 -60.4 15.35 -60.35 15.55 -60.5 15.75 -60.6 16.0 -60.65 16.25 -60.55 16.5 -60.65 16.75 -60.6 16.95 -60.7 17.2 -60.7 17.4 -60.85 17.65 -60.9 18.1 -61.15 18.3 -61.3 18.55 -61.25 18.8 -61.35 19.05 -61.35 19.5 -61.2 19.75 -61.25 20.2 -61.05 20.45 -61.1 20.7 -61.05 20.95 -61.1 21.15 -60.95 21.4 -60.9 21.65 -61.0 21.85 -61.05 22.1 -61.0 22.35 -61.0 22.35 -61.0 22.1 -60.95 21.85 -61.05 21.65 -61.0 21.4 -60.9 21.15 -60.95 20.95 -61.1 20.7 -61.05 20.45 -61.1 20.2 -61.0 20.0 -61.15 19.75 -61.25 19.5 -61.2 19.05 -61.35 18.8 -61.35 18.55 -61.25 18.3 -61.3 18.1 -61.15 M32.4 -50.55 L32.65 -50.45 32.65 -50.45 32.4 -50.5 32.15 -50.5 31.9 -50.4 31.75 -50.6 31.9 -50.4 32.15 -50.5 32.4 -50.55 M22.55 -60.9 L22.8 -60.75 23.25 -60.65 23.55 -60.7 23.25 -60.65 22.8 -60.75 22.55 -60.9 M29.35 -5.25 L28.75 -5.25 28.3 -5.1 27.35 -4.95 27.0 -4.65 26.55 -4.4 25.7 -4.3 25.8 -4.2 26.05 -3.85 26.75 -4.4 27.15 -4.65 28.1 -4.85 28.6 -4.9 29.05 -5.1 29.35 -5.25 M22.8 -6.5 L22.35 -6.65 21.95 -6.95 20.7 -7.6 20.2 -7.7 19.8 -7.65 19.2 -6.9 18.0 -6.05 17.45 -5.25 17.05 -4.95 16.6 -4.75 16.45 -4.65 17.05 -4.65 17.5 -4.55 18.45 -4.65 19.4 -4.55 19.85 -4.65 20.35 -4.7 20.8 -4.8 21.3 -4.65 21.75 -4.7 22.25 -4.6 23.25 -4.6 24.65 -4.3 25.1 -4.45 25.45 -4.4 25.35 -4.45 25.15 -4.85 24.45 -5.5 24.0 -5.7 23.25 -6.3 22.8 -6.5 M15.3 -4.15 L14.8 -4.1 13.55 -4.35 13.55 -4.35 13.7 -4.15 13.95 -4.05 14.1 -3.8 14.2 -3.8 15.2 -3.55 15.6 -3.7 17.0 -3.25 17.5 -3.25 17.95 -3.05 18.4 -3.0 20.3 -3.35 20.75 -3.45 21.25 -3.5 21.7 -3.7 22.15 -3.75 23.15 -3.6 23.65 -3.6 24.1 -3.7 25.05 -3.65 25.75 -3.75 25.65 -3.9 25.7 -4.15 25.55 -4.3 25.1 -4.4 24.65 -4.2 23.2 -4.55 22.25 -4.5 21.8 -4.6 21.3 -4.6 20.8 -4.75 20.35 -4.6 19.85 -4.55 19.4 -4.45 18.9 -4.55 18.45 -4.55 17.5 -4.45 16.35 -4.6 16.2 -4.5 15.3 -4.15 M14.2 -3.6 L14.3 -3.4 14.45 -3.2 14.6 -3.0 14.75 -2.5 15.1 -2.15 15.2 -1.95 15.45 -1.8 15.7 -1.1 15.75 -0.6 15.85 -0.4 15.95 -0.15 16.1 0.6 16.2 0.8 16.3 1.0 16.5 1.15 17.0 1.3 17.1 1.55 17.25 1.75 17.45 1.85 17.75 1.9 18.05 2.3 18.15 2.5 18.3 2.7 18.55 2.8 18.7 3.0 18.95 3.0 19.25 2.95 19.45 2.95 19.7 3.1 20.2 3.1 20.4 3.15 20.7 3.15 20.85 3.35 21.55 3.6 21.8 3.55 22.0 3.65 22.25 3.6 22.5 3.6 22.95 3.85 23.15 3.75 23.4 3.8 23.6 3.7 24.35 3.6 24.6 3.45 24.75 3.3 25.0 3.25 25.2 3.15 25.45 3.05 25.7 3.0 25.9 2.95 26.15 2.9 26.4 2.8 26.6 2.7 26.8 2.5 27.25 2.35 27.45 2.2 27.55 2.0 27.8 1.9 27.95 1.75 28.1 1.5 27.3 0.3 26.95 -0.55 26.8 -1.05 26.8 -1.05 26.65 -1.55 26.4 -1.65 26.25 -1.85 26.0 -2.25 25.95 -2.5 25.85 -2.75 25.85 -3.25 25.9 -3.45 25.8 -3.65 25.05 -3.5 24.1 -3.6 23.65 -3.5 23.15 -3.5 22.2 -3.65 21.7 -3.6 21.25 -3.4 20.8 -3.35 20.3 -3.2 19.35 -3.1 18.4 -2.9 17.9 -2.9 17.5 -3.1 17.0 -3.1 16.5 -3.2 15.65 -3.55 15.15 -3.4 14.25 -3.65 14.2 -3.65 14.2 -3.6 M11.5 -4.95 L11.5 -4.95 11.3 -4.65 10.6 -4.0 10.35 -3.65 10.45 -3.55 11.4 -3.55 12.35 -3.4 13.3 -3.55 13.75 -3.8 13.95 -3.8 13.85 -3.95 13.65 -4.05 13.5 -4.25 13.4 -4.4 12.0 -4.9 11.5 -4.95 M11.05 -5.15 L10.6 -5.2 9.7 -5.15 9.55 -4.65 9.35 -4.3 9.45 -4.25 9.45 -4.15 9.65 -4.1 10.3 -3.7 10.5 -4.05 11.25 -4.75 11.4 -5.0 11.05 -5.15 M12.7 -6.85 L12.4 -6.25 12.25 -5.8 11.9 -5.4 11.6 -5.1 12.05 -5.05 13.4 -4.55 13.4 -4.55 13.45 -4.55 14.8 -4.25 15.25 -4.3 16.05 -4.6 15.1 -4.85 14.65 -5.05 13.5 -5.9 13.2 -6.25 12.7 -6.85 M13.75 -8.8 L13.15 -7.45 12.85 -7.1 12.75 -6.95 13.55 -6.0 14.7 -5.15 15.15 -4.95 15.6 -4.85 16.2 -4.65 16.55 -4.9 17.0 -5.05 17.4 -5.35 17.9 -6.15 19.1 -6.95 19.7 -7.75 20.2 -7.8 20.7 -7.7 22.4 -6.8 23.3 -6.4 24.05 -5.8 24.5 -5.6 25.2 -4.95 25.45 -4.5 25.6 -4.35 26.55 -4.45 26.95 -4.7 27.3 -5.0 28.3 -5.15 28.75 -5.3 29.5 -5.35 29.9 -5.5 30.9 -5.65 31.35 -5.6 32.8 -5.9 33.3 -5.85 33.5 -5.9 33.55 -5.85 33.75 -5.9 34.0 -5.85 34.2 -5.85 34.15 -6.3 34.25 -6.55 34.15 -6.75 34.15 -7.0 34.1 -7.25 34.2 -8.05 34.35 -8.2 34.55 -8.35 34.65 -8.6 34.85 -8.75 34.85 -9.2 34.5 -10.15 34.05 -11.0 33.4 -11.65 32.55 -12.1 32.05 -12.15 31.65 -12.4 30.75 -12.75 30.25 -12.8 29.8 -12.55 28.4 -12.4 27.9 -12.3 27.4 -12.45 26.95 -12.45 26.45 -12.55 25.5 -12.45 24.05 -12.65 23.55 -12.6 23.05 -12.6 21.65 -12.85 21.15 -12.8 20.7 -12.85 20.2 -12.75 19.75 -12.6 19.25 -12.55 18.8 -12.4 17.6 -11.65 17.25 -11.35 15.15 -10.1 14.4 -9.5 13.75 -8.8 M3.5 -0.75 L3.3 -0.9 3.55 -0.5 3.7 -0.3 3.9 -0.15 4.05 0.05 4.15 0.3 4.15 0.55 4.25 0.75 4.45 0.9 4.45 0.9 4.3 0.7 4.1 -0.05 3.95 -0.2 3.8 -0.4 3.65 -0.55 3.5 -0.75 M3.1 -1.1 L3.05 -1.0 3.3 -0.95 3.15 -1.1 3.15 -1.15 3.1 -1.1 M2.75 -1.35 L2.95 -1.2 3.0 -1.15 3.0 -1.15 3.05 -1.25 3.0 -1.3 2.75 -1.35 M1.85 -3.05 L1.85 -3.05 1.9 -3.0 1.85 -3.05 1.7 -3.25 0.85 -3.8 0.75 -3.95 0.8 -3.85 1.0 -3.65 1.4 -3.4 1.55 -3.25 1.7 -3.0 1.9 -2.85 2.2 -2.2 2.2 -2.15 2.35 -1.7 2.45 -1.6 2.4 -1.7 2.35 -1.95 2.2 -2.15 2.15 -2.35 2.35 -1.95 2.4 -1.7 2.5 -1.55 2.55 -1.5 3.0 -1.3 3.05 -1.25 3.25 -1.55 3.35 -1.9 2.75 -2.3 2.45 -2.65 2.05 -2.85 2.05 -2.6 2.15 -2.45 2.05 -2.6 2.05 -2.85 2.0 -2.9 1.95 -2.95 1.85 -3.0 1.85 -3.05 M0.5 -4.0 L0.25 -4.0 0.0 -3.95 -0.25 -4.05 -0.5 -4.0 -0.7 -3.95 -0.95 -3.9 -1.05 -3.7 -1.25 -3.55 -1.35 -3.4 -1.55 -2.9 -1.65 -2.7 -1.7 -2.5 -1.8 -2.25 -1.9 -2.05 -1.95 -1.55 -1.85 -1.35 -1.7 -1.1 -1.65 -0.85 -1.55 -0.65 -1.55 -0.4 -1.4 0.05 -1.4 0.55 -1.35 0.8 -1.3 1.5 -1.45 2.0 -1.2 2.7 -1.2 3.0 -0.4 2.2 0.05 1.95 0.75 1.3 1.3 0.55 1.75 0.25 2.1 -0.05 2.4 -0.45 2.8 -0.75 3.0 -1.1 2.9 -1.2 2.55 -1.5 2.5 -1.55 2.35 -1.65 2.2 -2.15 1.9 -2.85 1.7 -3.0 1.55 -3.2 1.4 -3.4 1.0 -3.65 0.8 -3.85 0.7 -4.05 0.65 -4.05 0.5 -4.0 M1.5 -4.25 L1.45 -4.2 0.95 -4.2 0.8 -4.1 1.0 -3.85 1.75 -3.35 1.8 -3.25 1.8 -3.55 1.65 -4.0 1.5 -4.25 1.65 -4.0 1.8 -3.55 1.85 -3.25 2.1 -3.0 2.5 -2.75 2.85 -2.4 3.35 -2.05 3.65 -2.4 3.75 -2.85 4.05 -3.25 4.15 -3.75 4.7 -4.55 4.75 -5.0 5.05 -5.95 5.05 -6.35 4.95 -6.3 4.7 -5.85 4.5 -5.7 4.35 -5.5 4.1 -5.35 3.95 -5.2 3.65 -5.2 3.2 -4.95 2.75 -4.8 2.55 -4.7 2.3 -4.65 1.9 -4.4 1.65 -4.35 1.5 -4.25 M5.25 -6.95 L5.2 -6.4 5.2 -5.95 4.9 -5.0 4.85 -4.5 4.25 -3.7 4.2 -3.25 3.9 -2.8 3.8 -2.35 3.5 -2.0 3.65 -1.85 4.6 -0.75 6.45 -0.4 6.95 -0.55 8.25 -1.15 8.65 -1.4 9.1 -1.6 9.4 -1.95 9.55 -2.4 9.95 -2.75 10.05 -3.2 10.2 -3.55 9.65 -3.95 9.5 -4.0 9.5 -3.8 9.3 -3.45 9.2 -3.95 9.0 -4.05 8.85 -4.0 8.8 -4.05 8.7 -4.05 8.7 -4.2 6.95 -5.15 6.5 -5.3 5.25 -6.95 M1.3 -10.1 L1.3 -9.95 1.35 -9.7 1.4 -9.45 1.3 -9.7 1.3 -10.15 -0.95 -11.95 -1.0 -11.15 -0.95 -10.65 -0.95 -10.2 -1.15 -9.75 -1.05 -9.25 -1.05 -8.8 -1.4 -7.35 -1.05 -7.05 -0.6 -6.85 -0.35 -6.45 0.05 -6.1 0.25 -5.65 0.3 -5.15 0.7 -4.3 0.75 -4.2 0.95 -4.3 1.4 -4.3 1.45 -4.35 1.4 -4.45 1.5 -4.9 1.35 -5.15 1.4 -5.4 1.35 -5.65 1.3 -6.15 1.45 -6.35 1.4 -6.6 1.45 -6.85 1.45 -7.55 1.35 -7.8 1.45 -8.05 1.45 -8.3 1.6 -8.75 1.6 -9.0 1.5 -9.2 1.45 -9.4 1.5 -9.2 1.6 -9.0 1.6 -8.75 1.45 -8.3 1.5 -8.05 1.35 -7.8 1.5 -7.55 1.45 -7.35 1.5 -6.85 1.4 -6.6 1.45 -6.35 1.3 -6.1 1.35 -5.9 1.35 -5.65 1.4 -5.4 1.35 -5.15 1.5 -4.9 1.4 -4.45 1.45 -4.35 1.6 -4.45 1.85 -4.5 2.25 -4.75 2.5 -4.8 2.7 -4.9 2.95 -5.0 3.65 -5.3 3.9 -5.3 4.05 -5.45 4.25 -5.6 4.4 -5.8 4.6 -5.95 4.85 -6.4 5.05 -6.45 5.1 -7.15 4.15 -8.45 2.75 -8.95 1.3 -10.1 M0.5 -13.8 L0.3 -13.65 0.2 -13.4 0.0 -13.25 -0.2 -13.1 -0.4 -12.95 -0.5 -12.75 -0.55 -12.5 -0.8 -12.35 -0.85 -12.25 1.15 -10.75 1.1 -10.85 1.05 -11.6 1.15 -11.85 1.05 -12.35 1.1 -12.6 1.0 -12.85 1.0 -13.1 0.7 -13.5 0.5 -13.65 0.5 -13.8 M0.5 -13.85 L0.5 -13.9 0.3 -14.05 0.1 -14.15 -0.05 -14.05 -0.5 -13.9 -0.75 -13.45 -1.15 -13.25 -1.45 -12.85 -1.65 -12.4 -1.75 -12.3 -1.35 -12.1 -1.35 -12.45 -0.95 -12.35 -0.85 -12.3 -0.8 -12.35 -0.6 -12.5 -0.55 -12.75 -0.4 -12.95 -0.2 -13.1 -0.05 -13.3 0.2 -13.45 0.3 -13.65 0.5 -13.85 0.6 -14.0 0.8 -14.15 0.95 -14.35 1.05 -14.6 1.25 -15.05 1.25 -15.1 1.05 -15.0 0.65 -14.75 0.35 -14.4 0.1 -14.2 0.3 -14.1 0.5 -13.9 0.5 -13.85 0.55 -13.65 0.75 -13.5 0.9 -13.3 1.0 -13.1 1.0 -12.85 1.1 -12.6 1.05 -12.35 1.1 -12.1 1.15 -11.85 1.1 -11.6 1.1 -10.85 1.15 -10.7 3.0 -9.25 4.4 -8.75 6.65 -5.65 7.15 -5.5 9.2 -4.4 9.45 -4.75 9.6 -5.2 10.6 -5.35 11.1 -5.3 11.5 -5.1 11.5 -5.15 12.15 -5.85 12.3 -6.3 12.65 -6.95 12.6 -7.0 12.15 -7.9 12.1 -8.4 11.6 -11.3 11.65 -11.75 11.55 -12.7 11.3 -13.15 11.2 -13.6 10.9 -14.0 10.8 -14.5 10.1 -15.15 9.85 -15.55 9.15 -16.25 8.35 -16.7 7.95 -17.0 7.0 -17.15 5.65 -17.65 4.2 -17.75 3.75 -17.7 2.4 -16.3 2.1 -15.9 1.75 -15.6 1.5 -15.2 1.25 -15.1 1.25 -15.0 1.1 -14.55 0.95 -14.35 0.8 -14.15 0.65 -14.0 0.5 -13.85 M0.35 -22.0 L0.3 -22.25 0.1 -22.45 -0.15 -22.85 -0.55 -23.15 -0.7 -23.6 -0.9 -23.75 -1.0 -24.0 -1.3 -24.4 -1.35 -24.65 -1.55 -24.8 -1.65 -25.05 -2.15 -25.2 -2.3 -25.4 -2.8 -25.55 -2.95 -25.7 -3.15 -25.85 -3.25 -26.1 -3.35 -26.25 -3.4 -26.25 -4.0 -26.95 -4.05 -27.0 -4.05 -27.0 -4.35 -27.4 -4.55 -27.85 -4.85 -28.2 -5.05 -28.6 -5.5 -28.85 -5.85 -29.2 -6.3 -29.4 -6.75 -29.5 -8.1 -30.1 -8.6 -30.15 -11.45 -30.65 -11.9 -30.8 -12.35 -30.7 -12.85 -30.8 -14.95 -31.7 -14.7 -31.45 -14.0 -31.2 -13.8 -31.05 -13.6 -30.95 -13.2 -30.65 -13.1 -30.4 -12.95 -30.25 -12.9 -30.0 -12.4 -29.8 -12.2 -29.6 -12.0 -29.45 -11.85 -29.0 -11.65 -28.85 -11.5 -28.6 -11.3 -28.5 -11.15 -28.3 -10.95 -27.85 -10.9 -27.6 -10.85 -27.35 -10.6 -27.25 -10.4 -27.1 -10.15 -26.65 -9.7 -26.1 -9.45 -25.95 -9.4 -25.7 -9.3 -25.5 -8.95 -25.15 -8.85 -24.9 -8.2 -24.65 -7.9 -24.65 -7.5 -24.4 -7.0 -24.3 -6.65 -23.9 -6.45 -23.8 -6.2 -23.35 -5.7 -22.85 -5.65 -22.6 -5.45 -22.45 -5.35 -22.2 -5.3 -21.95 -5.2 -21.75 -5.05 -21.55 -4.85 -21.4 -4.75 -21.2 -4.55 -21.0 -4.45 -20.8 -4.35 -20.55 -4.1 -20.45 -4.05 -20.2 -3.85 -20.0 -3.7 -19.85 -3.6 -19.65 -3.5 -19.15 -3.4 -18.95 -3.35 -18.7 -3.15 -18.5 -3.2 -18.25 -3.1 -18.05 -2.9 -17.85 -2.8 -17.65 -2.55 -17.2 -2.35 -17.05 -2.3 -16.8 -1.95 -16.45 -1.85 -16.25 -1.8 -16.0 -1.6 -15.85 -1.35 -15.75 -1.1 -15.7 -0.9 -15.6 -0.65 -15.15 -0.5 -14.95 -0.35 -14.75 -0.15 -14.65 0.0 -14.45 0.05 -14.3 0.25 -14.5 0.55 -14.85 0.95 -15.15 1.2 -15.25 1.2 -15.3 1.35 -15.5 1.4 -15.95 1.35 -16.2 1.35 -16.45 1.4 -16.7 1.5 -16.95 1.45 -17.4 1.3 -17.65 1.4 -17.9 1.25 -18.1 1.3 -18.35 1.2 -18.6 1.3 -19.1 1.35 -19.3 1.3 -19.55 1.2 -20.05 1.1 -20.25 1.1 -20.75 0.75 -21.15 0.75 -21.4 0.6 -21.55 0.5 -21.8 0.35 -22.0 M1.0 -28.85 L1.0 -28.85 1.6 -28.4 1.7 -28.15 1.85 -27.95 1.9 -27.7 2.1 -27.55 2.5 -27.0 2.55 -26.7 2.7 -26.55 2.85 -26.35 3.0 -26.15 3.0 -25.9 3.1 -25.65 3.25 -25.5 3.35 -25.25 3.3 -25.25 3.25 -25.45 3.1 -25.65 3.0 -25.9 2.95 -26.15 2.8 -26.3 2.7 -26.55 2.55 -26.7 2.5 -26.95 2.05 -27.55 1.9 -27.7 1.8 -27.95 1.7 -28.15 1.55 -28.35 1.35 -28.55 1.0 -28.85 M21.75 -51.9 L21.5 -51.75 21.25 -51.8 21.05 -51.8 20.85 -51.7 21.05 -51.8 21.25 -51.85 21.5 -51.75 21.75 -51.9 21.95 -51.75 21.95 -51.75 21.75 -51.9 M18.4 -51.55 L18.65 -51.6 18.85 -51.7 19.4 -51.7 18.85 -51.7 18.65 -51.55 18.4 -51.55 18.25 -51.45 18.4 -51.55 M20.1 -51.65 L19.6 -51.7 19.85 -51.7 20.1 -51.65 20.35 -51.75 20.6 -51.65 20.75 -51.7 20.6 -51.65 20.35 -51.7 20.1 -51.65 M31.35 -50.85 L31.1 -50.85 30.9 -50.95 31.1 -50.9 31.35 -50.9 31.55 -50.7 31.55 -50.7 31.35 -50.85 M25.05 -52.15 L24.55 -52.25 24.3 -52.2 24.1 -52.05 23.85 -51.95 23.6 -51.9 23.4 -51.8 23.15 -51.8 22.9 -51.75 22.7 -51.75 22.45 -51.65 22.3 -51.65 22.45 -51.65 22.7 -51.75 22.9 -51.75 23.15 -51.85 23.4 -51.8 23.6 -51.9 23.85 -51.95 24.1 -52.05 24.3 -52.2 24.55 -52.25 25.05 -52.15 25.25 -52.15 25.5 -52.15 25.75 -52.25 26.0 -52.15 26.25 -52.15 26.85 -51.7 27.1 -51.65 27.35 -51.7 27.6 -51.7 27.8 -51.55 28.05 -51.6 28.3 -51.55 28.5 -51.4 28.75 -51.4 28.95 -51.3 29.2 -51.3 29.45 -51.2 29.65 -51.2 29.9 -51.1 30.15 -51.05 29.9 -51.05 29.65 -51.15 29.45 -51.15 29.2 -51.3 28.95 -51.3 28.5 -51.4 28.3 -51.55 28.05 -51.6 27.8 -51.55 27.6 -51.7 27.35 -51.7 27.1 -51.65 26.85 -51.65 26.45 -52.0 26.2 -52.1 26.0 -52.1 25.75 -52.2 25.5 -52.15 25.05 -52.15 M15.6 -51.25 L15.35 -51.3 15.1 -51.25 14.9 -51.4 15.1 -51.3 15.35 -51.3 15.6 -51.3 16.05 -51.1 16.3 -51.05 17.05 -51.2 17.55 -51.1 17.8 -51.15 18.0 -51.25 18.15 -51.35 18.0 -51.25 17.8 -51.1 17.55 -51.1 17.05 -51.2 16.3 -51.05 15.6 -51.25 M14.6 -56.2 L15.05 -56.3 15.1 -56.25 14.6 -56.15 13.8 -55.75 14.6 -56.2 M31.25 -62.8 L31.0 -62.75 30.75 -62.65 30.3 -62.5 30.05 -62.45 29.8 -62.5 29.6 -62.3 29.4 -62.25 29.6 -62.35 29.8 -62.5 30.05 -62.45 30.55 -62.55 30.75 -62.65 31.0 -62.75 31.25 -62.8 31.4 -62.95 31.75 -63.15 31.65 -63.05 31.4 -62.95 31.25 -62.8 M24.25 -60.5 L24.25 -60.5 24.5 -60.45 24.75 -60.35 24.95 -60.4 25.2 -60.5 25.45 -60.45 25.7 -60.5 26.15 -60.75 26.4 -60.75 26.6 -60.9 26.95 -61.25 27.2 -61.3 27.4 -61.4 27.65 -61.45 27.85 -61.65 28.1 -61.65 28.25 -61.9 28.7 -62.05 28.9 -62.2 29.15 -62.15 29.35 -62.2 29.15 -62.1 28.9 -62.2 28.7 -62.05 28.25 -61.85 28.1 -61.65 27.85 -61.65 27.65 -61.45 27.4 -61.4 27.2 -61.3 26.95 -61.2 26.8 -61.0 26.6 -60.85 26.4 -60.75 26.15 -60.75 25.7 -60.5 25.45 -60.45 25.2 -60.5 24.95 -60.35 24.75 -60.35 24.25 -60.5 M29.85 -5.35 L30.2 -5.4 30.65 -5.25 31.15 -5.35 31.55 -5.55 31.35 -5.5 30.9 -5.55 29.95 -5.4 29.85 -5.35 M27.05 -0.95 L26.9 -1.0 27.05 -0.6 27.4 0.3 28.15 1.4 28.2 1.3 28.45 1.2 28.65 0.95 28.25 0.55 28.1 0.4 27.85 -0.1 27.55 -0.45 27.35 -0.6 27.2 -0.8 27.05 -0.95 M26.3 -3.35 L26.05 -3.7 26.05 -3.7 25.9 -3.65 25.95 -3.45 25.95 -3.0 25.9 -2.75 26.05 -2.55 26.05 -2.3 26.3 -1.9 26.5 -1.7 26.7 -1.6 26.75 -1.35 26.8 -1.25 26.7 -1.95 26.6 -2.45 26.55 -2.95 26.3 -3.35 M25.75 -4.05 L25.7 -3.9 25.85 -3.75 26.0 -3.8 25.75 -4.05 M30.2 -5.35 L29.7 -5.3 28.6 -4.8 28.15 -4.75 27.2 -4.55 26.8 -4.3 26.15 -3.75 26.4 -3.4 26.65 -2.95 26.7 -2.5 26.8 -2.0 26.9 -1.1 27.1 -1.0 27.25 -0.85 27.4 -0.65 27.6 -0.5 27.9 -0.15 28.15 0.35 28.3 0.5 28.7 0.9 28.95 0.65 29.9 0.2 30.0 0.0 30.25 -0.15 30.6 -0.5 30.65 -0.75 31.05 -1.05 31.05 -1.55 31.15 -1.8 31.25 -2.05 31.25 -2.5 30.9 -2.2 30.45 -2.0 29.95 -1.9 29.6 -1.6 29.15 -1.35 28.8 -1.0 28.2 -0.25 28.15 -0.3 28.75 -1.05 29.15 -1.35 29.55 -1.6 29.95 -1.9 30.4 -2.0 30.85 -2.25 31.2 -2.55 32.0 -3.1 32.25 -3.5 32.55 -3.9 32.95 -4.2 33.5 -4.95 33.85 -5.3 34.15 -5.65 34.25 -5.7 33.85 -5.8 33.7 -5.8 33.25 -5.75 33.2 -5.75 31.6 -5.5 31.15 -5.3 30.65 -5.2 30.2 -5.35 M46.65 -10.15 L46.25 -9.85 45.45 -9.35 44.95 -9.25 44.0 -9.1 43.55 -8.95 43.15 -8.7 42.7 -8.5 41.6 -7.55 41.15 -7.4 40.2 -7.15 39.85 -6.8 39.4 -6.6 38.9 -6.6 38.45 -6.45 38.0 -6.25 37.5 -6.2 37.05 -6.1 36.6 -5.85 35.3 -5.8 35.45 -5.8 35.9 -5.7 37.15 -4.95 37.65 -4.85 38.6 -5.0 39.05 -5.2 39.55 -5.25 40.0 -5.15 40.45 -4.95 40.85 -4.65 41.7 -4.25 42.15 -4.15 43.45 -3.45 43.9 -3.3 44.4 -3.35 44.8 -3.15 45.3 -3.05 46.05 -2.4 46.45 -2.15 46.75 -1.8 47.4 -1.35 47.85 -1.5 48.1 -1.45 48.35 -1.5 48.6 -1.6 49.8 -1.8 50.0 -1.8 50.25 -1.8 50.95 -1.5 51.2 -1.5 51.45 -1.55 51.9 -1.4 52.15 -1.25 52.4 -1.25 52.65 -1.35 52.85 -1.25 53.1 -1.25 53.6 -1.25 53.95 -0.85 54.2 -0.8 54.35 -0.6 54.55 -0.45 54.85 -0.05 55.05 0.1 55.2 0.3 55.45 0.45 55.65 0.5 56.1 0.75 56.25 0.95 56.4 1.1 56.55 1.3 56.7 1.5 56.8 1.75 56.9 1.95 57.95 2.6 58.0 2.9 58.5 3.05 58.7 3.2 59.25 3.3 59.65 3.6 59.8 3.8 60.0 3.9 60.05 4.05 59.95 3.8 59.8 3.35 59.7 3.1 59.65 2.6 59.55 2.15 59.45 1.95 59.4 1.65 59.3 1.45 59.3 1.2 58.95 0.85 58.85 0.65 58.7 0.45 58.65 0.2 58.5 0.0 58.4 -0.25 58.55 -0.45 58.55 -0.7 58.7 -0.95 58.6 -1.2 58.6 -1.4 58.5 -1.65 58.3 -2.15 58.25 -2.4 58.35 -2.85 58.3 -3.1 58.35 -3.35 58.35 -3.6 58.4 -4.05 58.3 -4.3 58.2 -4.5 58.2 -4.55 57.65 -5.3 57.45 -5.75 57.15 -6.15 56.95 -6.6 57.0 -7.1 57.05 -8.05 56.85 -9.0 56.7 -9.45 56.6 -9.9 56.4 -10.35 56.25 -10.8 55.85 -11.1 55.0 -11.55 54.65 -11.85 54.15 -11.95 53.2 -11.95 52.3 -12.3 51.85 -12.3 51.35 -12.2 50.85 -12.3 50.4 -12.15 50.0 -11.85 49.6 -11.65 48.85 -11.0 48.0 -10.55 47.5 -10.55 46.65 -10.15 M34.9 -8.95 L34.85 -8.75 34.7 -8.55 34.6 -8.35 34.35 -8.2 34.2 -8.0 34.1 -7.25 34.15 -7.0 34.2 -6.75 34.3 -6.55 34.15 -6.3 34.2 -6.05 34.25 -5.85 34.4 -5.85 34.5 -6.0 34.75 -6.4 35.0 -7.35 35.1 -7.85 35.05 -8.3 34.9 -8.75 34.9 -8.95 M32.8 -5.8 L31.8 -5.55 32.9 -5.75 32.8 -5.8 M77.1 -10.1 L77.3 -10.0 77.5 -9.85 77.75 -9.9 77.85 -9.65 78.1 -9.5 78.3 -9.45 78.45 -9.2 78.65 -9.05 78.9 -8.95 79.05 -8.8 79.6 -8.85 79.8 -8.75 80.25 -8.45 80.5 -8.4 80.75 -8.3 80.95 -8.4 81.2 -8.45 81.4 -8.6 81.6 -8.45 81.75 -8.2 81.9 -8.0 82.55 -7.6 82.7 -7.4 82.5 -7.6 82.35 -7.75 81.9 -8.0 81.6 -8.4 81.4 -8.55 81.2 -8.4 80.95 -8.4 80.75 -8.3 80.0 -8.55 79.8 -8.75 79.6 -8.85 79.05 -8.8 78.9 -8.95 78.65 -9.05 78.45 -9.2 78.3 -9.4 78.05 -9.5 77.85 -9.65 77.75 -9.85 77.5 -9.85 77.3 -10.0 77.1 -10.1 77.1 -10.1 M74.5 -9.95 L74.7 -10.1 74.95 -10.2 75.45 -10.25 75.7 -10.3 75.95 -10.15 76.4 -10.35 76.6 -10.15 76.85 -10.15 76.6 -10.15 76.4 -10.35 75.95 -10.15 75.7 -10.25 75.45 -10.2 74.95 -10.15 74.7 -10.1 74.5 -9.9 74.35 -9.7 74.15 -9.6 73.9 -9.55 73.45 -9.55 73.65 -9.55 73.9 -9.55 74.15 -9.6 74.35 -9.7 74.5 -9.95 M75.45 -21.35 L75.7 -21.4 75.45 -21.3 75.25 -21.2 75.45 -21.35 M76.15 -21.55 L76.35 -21.7 76.9 -21.6 77.1 -21.5 77.35 -21.5 77.6 -21.5 77.85 -21.6 78.1 -21.45 78.6 -21.45 78.55 -21.45 78.05 -21.45 77.85 -21.55 77.6 -21.5 77.35 -21.45 77.1 -21.5 76.9 -21.6 76.35 -21.7 76.15 -21.5 75.7 -21.4 76.15 -21.55 M73.5 -19.85 L73.75 -19.95 73.95 -20.1 74.1 -20.3 74.25 -20.5 74.45 -20.6 75.05 -21.05 74.5 -20.6 74.25 -20.45 74.1 -20.3 73.95 -20.1 73.75 -19.9 73.55 -19.85 73.3 -19.75 73.05 -19.7 72.9 -19.5 72.75 -19.3 72.5 -19.25 72.0 -19.3 71.5 -19.2 72.0 -19.3 72.5 -19.3 72.75 -19.35 72.9 -19.5 73.05 -19.75 73.3 -19.75 73.5 -19.85 M89.15 -22.0 L89.3 -22.2 89.5 -22.4 89.5 -22.35 89.15 -22.0 88.95 -21.9 88.75 -21.7 88.5 -21.3 88.25 -21.2 88.1 -21.0 88.25 -21.2 88.5 -21.3 88.75 -21.7 88.95 -21.9 89.15 -22.0 M87.8 -20.3 L87.65 -20.2 87.75 -20.3 88.05 -20.8 87.8 -20.3 M87.15 -19.95 L87.4 -20.0 87.5 -20.1 87.4 -20.0 87.15 -19.95 86.95 -19.85 86.75 -19.65 86.75 -19.65 86.95 -19.85 87.15 -19.95 M81.1 -20.1 L81.35 -20.1 81.35 -20.1 81.1 -20.05 80.9 -20.2 80.65 -20.2 80.15 -20.4 80.05 -20.6 79.6 -20.85 79.45 -21.05 79.45 -21.05 79.65 -20.85 80.05 -20.6 80.2 -20.4 80.4 -20.35 80.65 -20.2 80.9 -20.2 81.1 -20.1 M60.5 -0.6 L60.5 -0.45 60.7 0.0 60.95 0.25 60.85 0.0 60.55 -0.4 60.5 -0.6 M59.5 -3.45 L59.1 -3.7 58.95 -3.75 59.2 -3.45 59.3 -2.95 59.65 -2.6 60.3 -1.35 60.5 -0.75 60.55 -1.15 60.6 -1.4 60.5 -1.65 60.5 -1.9 60.35 -2.1 60.4 -2.35 60.5 -2.6 60.5 -2.85 60.4 -3.1 60.35 -3.2 59.95 -3.25 59.75 -3.4 59.5 -3.45 59.75 -3.4 59.95 -3.3 60.35 -3.25 60.35 -3.3 60.5 -3.55 60.4 -4.0 60.45 -4.25 60.55 -4.5 60.55 -4.7 60.65 -4.95 60.7 -5.2 60.65 -5.45 60.3 -5.8 60.3 -6.05 60.1 -6.25 60.1 -6.75 59.95 -6.95 59.95 -7.2 60.0 -7.7 60.0 -8.2 59.85 -8.4 59.35 -8.6 59.25 -8.85 59.0 -8.9 58.75 -9.0 58.65 -9.2 58.2 -9.45 57.95 -9.5 57.75 -9.6 57.5 -9.65 57.35 -9.85 57.2 -10.05 57.1 -10.3 56.9 -10.45 56.4 -10.65 56.35 -10.75 56.45 -10.4 56.65 -9.95 56.75 -9.45 56.9 -9.0 57.1 -8.05 57.05 -7.05 57.0 -6.6 57.2 -6.2 57.5 -5.8 57.7 -5.35 58.25 -4.55 58.9 -3.85 59.1 -3.75 59.5 -3.45 M48.3 -0.65 L48.2 -0.75 48.3 -0.65 48.65 -0.35 49.15 -0.35 49.3 -0.3 49.2 -0.4 49.05 -0.6 48.75 -0.5 48.5 -0.55 48.3 -0.65 M42.8 -3.4 L43.1 -3.05 43.4 -2.1 43.6 -1.95 43.75 -1.75 43.95 -1.6 44.4 -1.5 45.05 -1.1 45.3 -1.05 45.55 -1.1 45.75 -1.1 46.0 -1.1 46.25 -1.2 46.45 -1.25 46.75 -1.2 47.0 -1.25 47.15 -1.05 47.7 -1.05 47.85 -0.9 48.0 -0.85 47.9 -0.95 47.4 -1.35 47.35 -1.3 46.7 -1.75 46.4 -2.1 45.3 -3.0 44.8 -3.1 44.35 -3.3 43.9 -3.25 43.4 -3.4 42.65 -3.85 42.75 -3.65 42.8 -3.4 M34.4 -5.8 L34.35 -5.75 34.7 -5.7 34.85 -5.75 34.45 -5.8 34.4 -5.8 M34.3 -5.8 L34.3 -5.8 34.3 -5.8 M72.65 -9.45 L72.9 -9.55 73.15 -9.6 73.3 -9.55 72.9 -9.55 72.65 -9.45 72.2 -9.25 71.95 -9.25 71.5 -9.0 71.3 -8.9 71.95 -9.25 72.2 -9.25 72.4 -9.4 72.65 -9.45 M84.3 -0.05 L84.3 -0.3 84.35 -0.5 84.3 -0.05 84.15 0.15 84.1 0.35 84.15 0.15 84.3 -0.05 M84.4 -1.75 L84.4 -1.75 84.5 -2.0 84.4 -1.75 M84.4 -1.3 L84.4 -1.55 84.4 -0.65 84.4 -1.3 M84.35 -4.3 L84.6 -4.15 84.75 -3.7 84.75 -3.2 84.6 -2.95 84.7 -2.7 84.7 -2.45 84.55 -2.25 84.5 -2.0 84.5 -2.25 84.7 -2.45 84.6 -2.95 84.7 -3.2 84.75 -3.7 84.6 -4.15 84.35 -4.3 84.2 -4.45 83.95 -4.55 83.8 -4.75 83.7 -5.0 83.65 -5.25 83.5 -5.7 83.4 -5.9 82.95 -6.2 82.95 -6.45 82.75 -6.65 82.75 -7.15 82.7 -7.4 82.75 -7.15 82.75 -6.65 82.95 -6.5 83.0 -6.2 83.2 -6.1 83.4 -5.9 83.55 -5.7 83.7 -5.25 83.75 -5.0 83.85 -4.75 83.95 -4.55 84.2 -4.45 84.35 -4.3 M83.2 -19.55 L83.4 -19.5 83.65 -19.6 83.9 -19.65 83.9 -19.65 83.65 -19.6 83.4 -19.45 83.2 -19.55 82.95 -19.55 82.7 -19.45 82.2 -19.55 82.0 -19.65 82.2 -19.55 82.7 -19.45 82.95 -19.6 83.2 -19.55 M85.8 -19.45 L86.0 -19.5 85.8 -19.45 85.6 -19.55 85.1 -19.4 84.6 -19.45 84.85 -19.45 85.1 -19.4 85.6 -19.55 85.8 -19.45 M86.75 -19.65 L86.5 -19.65 86.3 -19.55 86.15 -19.5 86.3 -19.55 86.5 -19.7 86.75 -19.65 M71.3 -8.9 L71.1 -8.75 70.55 -8.8 71.1 -8.8 71.3 -8.9 M84.1 0.35 L84.2 0.9 84.15 1.1 84.05 1.35 84.05 1.6 83.85 2.05 84.05 1.6 84.05 1.35 84.15 1.1 84.2 0.9 84.1 0.35 M85.15 6.35 L85.2 6.55 85.15 6.35 84.95 6.15 85.15 6.35 M84.5 5.0 L84.55 5.25 84.75 5.45 84.8 5.7 84.7 5.45 84.55 5.3 84.5 5.05 84.35 4.8 84.5 5.0 M84.3 4.6 L84.3 4.3 84.35 4.8 84.3 4.6 M84.0 3.65 L84.0 3.4 83.9 3.2 84.0 3.4 84.05 3.65 84.1 3.9 84.0 3.65 M83.7 2.5 L83.9 3.2 83.8 3.0 83.7 2.5 83.7 2.5 M85.2 6.55 L85.35 6.8 85.35 7.05 85.45 7.25 85.4 7.5 85.5 7.95 85.45 8.2 85.5 7.95 85.4 7.5 85.45 7.25 85.35 7.05 85.3 6.8 85.2 6.55 M81.2 17.45 L81.35 17.7 81.5 17.85 81.6 18.1 81.75 18.25 81.85 18.5 82.05 18.65 82.2 18.85 82.55 19.1 82.9 19.45 83.05 19.65 83.05 19.65 82.9 19.45 82.15 18.85 82.0 18.65 81.8 18.5 81.75 18.25 81.6 18.1 81.5 17.85 81.35 17.7 81.2 17.45 80.95 17.35 80.8 17.2 81.0 17.35 81.2 17.45 M68.25 13.45 L68.1 13.25 68.05 13.0 67.85 12.55 68.05 13.0 68.15 13.25 68.3 13.45 68.35 13.7 68.65 14.1 68.75 14.3 68.75 14.55 68.85 14.8 68.9 15.05 69.1 15.4 69.0 15.25 68.85 15.05 68.85 14.8 68.75 14.55 68.75 14.3 68.65 14.1 68.35 13.7 68.25 13.45 M65.05 14.3 L64.95 14.05 64.55 13.45 64.35 13.3 64.2 13.1 63.7 13.0 63.5 12.9 63.3 12.75 63.2 12.55 62.7 11.95 62.9 12.15 63.2 12.5 63.3 12.75 63.7 13.0 64.0 13.0 64.2 13.1 64.35 13.3 64.6 13.45 64.95 14.05 65.05 14.3 65.15 14.5 65.2 14.75 65.35 14.95 65.35 15.2 65.3 15.45 65.3 15.45 65.35 15.2 65.35 14.95 65.15 14.75 65.15 14.5 65.05 14.3 M72.3 11.25 L72.35 11.5 72.45 11.75 72.85 12.0 73.0 12.2 73.45 12.45 73.8 12.75 73.95 12.95 74.15 13.1 74.4 13.2 74.55 13.35 74.35 13.2 73.95 13.0 73.8 12.8 73.45 12.45 73.0 12.2 72.85 12.0 72.45 11.75 72.35 11.5 72.3 11.25 72.25 11.0 72.1 10.8 72.0 10.6 72.0 10.6 72.1 10.8 72.25 11.0 72.3 11.25 M65.75 17.3 L65.8 17.55 65.75 18.05 65.8 18.3 65.85 18.55 65.95 18.8 66.45 19.3 66.55 19.55 66.6 19.75 66.55 19.55 66.45 19.3 65.95 18.8 65.85 18.55 65.75 18.3 65.75 18.05 65.8 17.55 65.7 17.3 65.55 17.15 65.4 16.95 65.25 16.7 65.3 16.15 65.3 16.7 65.4 16.95 65.55 17.15 65.75 17.3 M79.4 15.9 L79.55 16.05 79.8 16.15 79.95 16.35 80.2 16.45 80.4 16.6 80.5 16.8 80.65 17.0 80.5 16.85 80.35 16.6 80.2 16.45 79.95 16.35 79.8 16.15 79.55 16.05 79.4 15.9 79.2 15.7 79.0 15.6 78.85 15.4 78.65 15.25 78.4 15.2 78.15 15.1 78.2 15.1 78.4 15.2 78.65 15.25 78.85 15.4 79.0 15.6 79.25 15.7 79.4 15.9 M77.65 14.55 L77.25 14.35 77.0 14.45 76.55 14.2 76.1 14.05 75.65 13.85 75.4 13.85 74.95 13.65 74.95 13.65 75.2 13.7 75.4 13.85 75.65 13.8 75.85 13.95 76.1 14.05 76.3 14.05 77.0 14.4 77.25 14.35 77.7 14.55 77.95 14.95 77.65 14.55 M69.05 19.7 L69.2 19.25 69.3 19.1 69.2 19.25 69.1 19.7 69.1 19.95 69.0 20.2 68.8 20.4 68.8 20.4 68.95 20.2 69.1 19.95 69.05 19.7 M69.35 15.9 L69.3 15.7 69.2 15.55 69.3 15.7 69.35 15.9 69.25 16.15 69.35 16.9 69.45 17.15 69.45 17.6 69.4 17.85 69.55 18.05 69.45 18.55 69.45 18.8 69.35 19.05 69.45 18.8 69.45 18.55 69.55 18.05 69.4 17.85 69.45 17.6 69.4 17.35 69.45 17.15 69.35 16.9 69.25 16.15 69.35 15.9 M67.4 21.0 L67.25 20.8 67.1 20.6 67.4 21.0 67.85 21.2 67.65 21.1 67.4 21.0 M72.5 23.05 L71.8 22.8 71.8 22.8 72.05 22.85 72.5 23.05 72.7 23.2 72.7 23.2 72.5 23.05 M70.35 22.05 L70.55 22.1 70.85 22.1 71.1 22.1 71.4 22.5 71.4 22.5 71.05 22.1 70.85 22.1 70.55 22.15 70.35 22.05 M68.9 21.75 L69.1 21.9 69.35 21.95 69.55 22.05 69.85 22.05 69.55 22.1 69.35 21.95 69.1 21.9 68.9 21.8 68.75 21.6 68.25 21.5 68.25 21.5 68.75 21.6 68.9 21.75 M76.0 26.6 L76.1 26.8 76.0 26.6 75.95 26.35 75.9 26.15 75.95 26.3 76.0 26.6 M75.55 25.75 L75.75 25.9 75.85 26.05 75.75 25.9 75.55 25.75 75.5 25.5 75.55 25.75 M73.85 23.75 L74.15 24.15 73.85 23.75 73.85 23.75 M74.4 24.2 L74.65 24.65 74.95 24.7 74.9 24.7 74.65 24.65 74.4 24.2 M68.0 25.7 L68.0 25.45 67.95 25.2 68.0 25.45 68.0 25.7 67.95 26.2 68.05 26.45 68.2 26.65 68.15 26.9 68.3 27.1 68.25 27.35 68.3 27.65 68.45 27.8 68.7 27.95 68.9 28.4 69.05 28.55 68.9 28.4 68.75 28.15 68.65 27.95 68.45 27.8 68.3 27.65 68.25 27.4 68.25 27.1 68.15 26.9 68.2 26.65 68.05 26.45 67.95 26.2 67.95 25.95 68.0 25.7 M68.05 22.65 L68.1 22.9 68.0 23.1 68.05 23.35 68.1 23.6 68.05 23.85 68.15 24.1 68.05 24.3 67.9 24.55 67.8 24.75 67.8 25.0 67.95 25.2 67.8 25.0 67.8 24.75 67.85 24.55 68.0 24.3 68.1 24.1 68.05 23.85 68.1 23.6 68.05 23.35 67.95 23.1 68.1 22.9 68.05 22.65 68.15 22.4 68.05 22.15 68.2 21.95 68.1 22.15 68.15 22.4 68.05 22.65 M64.95 20.8 L65.05 21.0 65.2 21.2 65.25 21.95 65.4 22.15 65.4 22.4 65.5 22.65 65.55 23.15 65.65 23.4 65.6 23.65 65.6 23.9 65.8 24.1 65.75 24.35 65.8 24.5 65.75 24.35 65.75 24.1 65.6 23.9 65.6 23.65 65.65 23.4 65.55 23.15 65.5 22.65 65.4 22.4 65.4 22.15 65.25 21.95 65.15 21.2 65.05 21.0 64.95 20.8 64.75 20.6 64.55 20.45 64.5 20.4 64.8 20.6 64.95 20.8 M68.2 21.95 L68.35 21.7 68.5 21.55 68.35 21.7 68.2 21.95 M68.8 21.15 L68.5 21.55 68.8 21.1 68.8 21.15 M66.9 20.15 L66.95 20.45 66.9 20.15 66.9 20.15 M71.0 31.2 L71.05 31.45 71.25 31.65 71.05 31.45 71.0 31.2 71.0 30.7 71.0 31.2 M69.25 29.0 L69.4 29.25 69.55 29.45 69.95 29.65 69.5 29.45 69.4 29.25 69.25 29.0 M67.6 29.55 L67.65 29.25 67.6 29.55 67.8 29.7 67.85 29.95 68.0 30.15 68.05 30.4 68.15 30.6 68.35 30.75 68.45 30.95 68.65 31.1 68.75 31.35 68.75 31.35 68.65 31.1 68.45 30.95 68.35 30.75 68.15 30.6 68.0 30.4 67.95 30.15 67.85 29.95 67.8 29.7 67.6 29.55 M67.5 28.55 L67.5 28.8 67.65 29.0 67.65 29.25 67.6 29.0 67.5 28.8 67.5 28.55 67.45 28.35 67.5 28.55 M66.0 25.2 L65.95 25.05 66.0 24.8 65.9 24.65 66.0 24.8 65.95 25.05 66.0 25.2 M66.15 25.75 L66.05 25.45 66.15 25.75 66.2 26.3 66.35 26.45 66.35 26.75 66.5 26.95 66.9 27.5 67.05 27.7 67.25 27.85 67.3 28.1 67.4 28.3 67.25 28.1 67.25 27.85 67.0 27.7 66.9 27.5 66.45 26.95 66.35 26.75 66.35 26.5 66.2 26.3 66.15 25.75 M85.0 20.65 L84.8 20.5 84.3 20.4 84.55 20.4 84.8 20.5 85.0 20.65 85.2 20.8 85.4 20.85 85.7 20.85 85.4 20.85 85.15 20.8 85.0 20.65 M86.75 21.85 L86.5 21.75 86.3 21.6 86.1 21.5 85.9 21.15 86.1 21.5 86.3 21.6 86.5 21.75 86.75 21.85 M72.55 38.75 L72.4 39.2 72.4 39.2 72.55 38.75 72.45 38.5 72.55 38.75 M72.0 35.45 L72.0 35.45 72.15 35.65 72.3 36.1 72.3 36.1 72.0 35.45 M71.4 34.45 L71.35 34.3 71.45 34.45 71.45 34.65 71.4 34.45 M70.45 33.05 L70.55 33.3 70.95 33.6 71.1 33.75 71.1 33.75 70.95 33.6 70.55 33.3 70.45 33.05 70.2 32.8 70.45 33.05 M70.1 32.75 L69.9 32.6 69.75 32.35 69.9 32.6 70.1 32.75 M69.4 32.05 L69.25 31.9 69.1 31.7 69.25 31.9 69.45 32.05 69.65 32.15 69.75 32.35 69.65 32.15 69.4 32.05 M70.8 30.55 L70.6 30.35 70.45 30.15 70.35 29.95 70.6 30.35 70.8 30.55 M70.3 29.95 L70.1 29.85 69.95 29.65 70.1 29.85 70.3 29.95 M71.3 31.85 L71.55 32.0 71.85 32.4 71.85 32.4 71.55 32.0 71.3 31.85 M83.8 20.15 L83.6 20.1 83.45 19.9 83.6 20.1 83.8 20.15 M59.3 35.7 L59.05 35.6 59.05 35.6 59.3 35.7 59.5 35.8 59.65 36.0 59.95 36.0 60.45 36.55 61.15 36.85 61.3 37.0 61.5 37.1 61.7 37.25 61.85 37.45 62.05 37.65 62.3 37.7 62.45 37.9 62.65 38.0 62.8 38.2 62.95 38.4 63.15 38.55 63.25 38.7 63.15 38.55 62.9 38.4 62.8 38.2 62.65 38.05 62.45 37.9 62.3 37.75 62.05 37.65 61.85 37.5 61.7 37.3 61.3 37.0 61.1 36.85 60.9 36.8 60.45 36.55 59.95 36.05 59.65 36.0 59.5 35.8 59.3 35.7 M57.1 33.85 L56.9 33.75 56.75 33.5 56.7 33.25 56.65 33.1 56.75 33.25 56.75 33.5 56.9 33.7 57.15 33.85 57.2 34.1 57.35 34.3 57.8 34.5 58.0 34.65 58.2 34.95 58.0 34.65 57.8 34.5 57.35 34.3 57.2 34.1 57.1 33.85 M51.6 33.85 L51.45 34.1 51.6 33.85 51.65 33.65 51.6 33.85 M51.2 32.2 L51.2 32.25 51.2 32.2 M51.6 33.1 L51.4 32.7 51.25 32.45 51.4 32.7 51.6 33.1 M51.6 33.15 L51.55 33.4 51.65 33.65 51.55 33.4 51.6 33.15 M51.0 31.55 L51.1 31.75 50.9 31.3 50.5 30.95 50.35 30.75 50.2 30.6 50.05 30.4 50.05 30.4 50.2 30.6 50.4 30.75 50.5 30.95 50.9 31.3 51.0 31.55 M56.0 31.75 L56.2 31.9 56.2 32.15 56.35 32.35 56.35 32.6 56.5 32.8 56.6 33.0 56.5 32.8 56.35 32.6 56.35 32.35 56.15 32.15 56.15 31.9 55.95 31.75 55.65 31.4 56.0 31.75 M53.4 29.6 L53.65 29.7 53.8 29.85 54.1 29.85 54.2 30.1 54.4 30.25 54.55 30.45 54.75 30.6 54.9 30.75 55.2 30.85 55.25 31.1 55.5 31.2 55.65 31.4 55.5 31.2 55.25 31.1 55.15 30.85 54.9 30.75 54.75 30.6 54.5 30.5 54.4 30.3 54.2 30.1 54.1 29.9 53.8 29.85 53.65 29.7 53.4 29.6 M49.6 29.5 L49.6 29.5 49.8 29.7 49.6 29.5 M48.75 27.75 L48.75 27.75 48.95 27.95 49.0 28.2 49.1 28.4 49.25 28.6 49.3 28.85 49.45 29.05 49.5 29.15 49.45 29.05 49.3 28.85 49.25 28.6 49.05 28.45 49.0 28.2 48.95 27.95 48.75 27.75 M48.75 27.5 L48.75 27.5 M47.8 26.4 L47.75 26.15 47.55 25.75 47.75 26.15 47.8 26.4 48.3 26.95 48.35 27.2 48.35 27.2 48.3 26.95 47.8 26.4 M46.0 22.15 L46.05 21.9 46.0 22.15 46.1 22.4 46.1 22.65 46.25 22.85 46.35 23.35 46.35 23.65 46.45 23.85 46.5 24.1 46.6 24.3 46.5 24.1 46.45 23.85 46.3 23.65 46.35 23.35 46.25 22.85 46.05 22.65 46.1 22.4 46.0 22.15 M45.45 18.6 L45.45 18.65 45.35 18.85 45.4 18.85 45.75 19.2 46.0 19.6 46.25 19.7 46.4 19.9 47.0 20.3 47.25 20.75 48.35 20.85 48.3 20.6 48.2 20.35 48.2 20.1 48.05 19.95 47.65 19.65 47.55 19.4 47.35 19.25 46.7 18.9 46.45 18.9 46.25 18.8 46.0 18.8 45.45 18.6 45.3 18.55 44.95 18.25 44.7 18.1 44.75 18.15 44.95 18.65 45.35 18.85 45.45 18.65 45.45 18.6 M43.95 11.45 L44.0 11.9 44.05 12.15 44.05 12.65 44.25 13.1 44.3 13.35 44.2 13.6 44.3 13.8 44.3 14.6 44.4 14.8 44.5 15.05 44.5 15.3 44.4 14.8 44.25 14.6 44.25 14.35 44.3 13.8 44.2 13.6 44.25 13.35 44.25 13.1 44.05 12.65 44.05 12.15 44.0 11.9 43.95 11.7 43.95 11.45 M35.25 7.15 L34.75 6.95 34.15 6.55 33.9 6.1 33.7 5.95 33.6 5.7 33.35 5.6 33.2 5.45 33.05 5.2 32.8 5.15 32.35 4.95 32.25 4.7 32.05 4.5 31.95 4.3 31.45 3.75 31.2 3.6 31.2 3.35 31.05 3.15 30.9 2.95 30.75 2.8 30.65 2.55 30.5 2.35 30.1 2.05 29.9 2.0 29.55 1.65 29.45 1.4 28.75 1.05 28.7 1.0 28.5 1.2 28.25 1.35 28.2 1.45 28.2 1.5 28.25 2.0 28.15 2.45 28.0 2.95 28.0 3.4 28.1 3.9 28.1 4.35 27.9 5.3 27.95 5.7 28.0 5.75 28.25 5.7 28.45 5.85 29.4 6.15 29.65 6.1 30.3 6.4 30.5 6.55 30.75 6.55 30.95 6.7 31.1 6.95 31.2 7.15 31.5 7.6 31.65 7.75 32.0 8.1 32.35 8.75 32.55 8.9 32.6 9.15 32.7 9.35 32.95 9.45 33.15 9.6 33.3 9.8 33.55 9.75 33.75 9.95 34.0 9.95 34.25 9.95 34.45 10.15 35.15 10.35 35.6 10.55 35.8 10.7 35.9 10.95 36.1 11.1 36.35 11.2 36.55 11.35 36.75 12.05 36.85 12.25 37.0 12.45 37.05 12.65 37.3 12.85 37.35 13.1 38.1 13.75 38.15 14.0 38.35 14.15 38.45 14.4 38.7 14.45 38.75 14.7 39.0 14.85 39.15 15.0 39.25 15.25 39.4 15.5 39.55 15.65 39.65 15.9 40.8 16.3 41.0 16.45 41.45 16.6 41.65 16.8 41.85 16.9 42.05 17.05 42.8 17.15 43.0 17.3 43.25 17.35 43.45 17.45 43.6 17.65 44.1 17.7 44.25 17.95 44.7 18.05 44.55 17.7 44.25 17.3 44.05 17.15 43.9 16.95 43.8 16.75 43.6 16.6 43.55 16.35 43.5 16.1 43.4 15.85 42.9 15.65 42.75 15.5 42.6 15.3 42.15 15.05 42.0 14.9 41.75 14.45 41.55 14.3 41.1 13.75 40.75 13.4 40.4 12.8 40.2 12.6 39.95 12.5 39.85 12.3 39.75 12.1 39.5 11.95 39.45 11.7 39.15 11.3 39.05 11.1 39.0 10.85 38.8 10.65 38.75 10.45 38.55 10.25 38.15 10.0 38.0 9.8 37.55 9.2 37.35 9.15 36.9 8.85 36.25 8.55 35.9 8.2 35.8 7.95 35.6 7.8 35.25 7.15 M63.45 18.35 L63.65 18.55 63.75 18.75 63.8 19.0 63.85 19.2 64.0 19.45 64.05 19.65 64.15 20.15 64.15 20.15 64.05 19.65 63.85 19.25 63.8 19.0 63.75 18.75 63.65 18.55 63.45 18.35 M64.85 41.4 L64.95 41.85 64.85 41.4 64.65 40.95 64.85 41.4 M72.35 39.95 L72.4 39.8 72.3 40.2 72.35 39.95 M9.45 9.55 L9.3 9.35 9.45 9.55 9.45 9.8 9.55 10.0 9.7 10.2 9.75 10.45 9.7 10.2 9.55 10.0 9.45 9.8 9.45 9.55 M8.9 8.5 L8.9 8.5 8.8 8.25 8.9 8.5 M10.6 5.75 L10.5 5.65 10.6 5.75 M10.4 5.6 L10.2 5.5 9.95 5.5 10.2 5.5 10.4 5.6 M8.95 4.85 L8.9 4.75 8.95 4.8 9.35 5.1 9.5 5.3 9.7 5.45 9.7 5.45 9.5 5.3 9.35 5.1 8.95 4.85 M8.45 3.95 L8.45 3.95 8.6 4.15 8.75 4.5 8.7 4.4 8.6 4.15 8.45 3.95 M16.5 15.4 L16.4 15.15 16.2 15.0 16.05 14.55 16.15 14.3 16.1 14.05 15.9 13.6 15.8 12.85 15.9 12.6 15.85 12.35 15.85 12.1 15.75 11.9 15.7 11.65 15.5 11.2 15.4 10.95 15.5 11.2 15.7 11.65 15.75 11.9 15.85 12.1 15.85 12.35 15.9 12.6 15.85 12.85 15.9 13.55 16.15 14.05 16.15 14.3 16.05 14.55 16.25 15.0 16.4 15.15 16.5 15.4 16.55 15.6 16.7 15.85 16.65 16.1 16.7 16.3 16.75 16.8 16.55 17.0 16.45 17.2 16.4 17.45 16.5 17.7 16.45 18.15 16.5 18.4 16.5 18.65 16.25 19.1 16.1 19.3 16.05 19.55 15.85 19.7 15.7 19.95 15.75 20.2 15.6 20.4 15.45 20.85 15.4 21.1 15.4 20.85 15.6 20.4 15.75 20.2 15.7 19.95 15.85 19.7 16.05 19.55 16.1 19.3 16.25 19.1 16.5 18.65 16.5 18.4 16.45 18.15 16.5 17.7 16.4 17.45 16.45 17.2 16.55 17.0 16.75 16.8 16.7 16.3 16.65 16.1 16.7 15.85 16.55 15.65 16.5 15.4 M28.15 1.55 L28.15 1.5 28.1 1.55 28.0 1.75 27.85 1.95 27.6 2.0 27.45 2.25 27.25 2.35 26.8 2.55 26.65 2.7 26.4 2.8 26.2 2.95 25.95 2.95 25.7 3.05 25.25 3.15 25.05 3.3 24.8 3.3 24.6 3.5 24.4 3.6 23.65 3.7 23.4 3.8 23.15 3.8 23.0 3.85 23.15 3.95 23.4 3.95 23.65 3.9 23.9 3.95 24.15 3.9 24.35 3.9 24.6 3.95 25.35 4.05 25.55 4.25 26.2 4.55 26.35 4.75 26.5 4.95 26.95 5.2 27.4 5.35 27.55 5.55 27.85 5.65 27.8 5.3 28.05 4.35 28.0 3.9 27.9 3.4 27.9 2.95 28.05 2.5 28.15 2.0 28.15 1.55 M63.45 38.9 L63.35 38.8 63.5 38.9 63.5 39.15 63.65 39.35 63.85 39.5 63.95 39.7 64.15 39.9 64.25 40.1 64.45 40.25 64.6 40.45 64.6 40.45 64.45 40.25 64.25 40.1 64.15 39.9 63.95 39.75 63.8 39.55 63.65 39.35 63.5 39.15 63.45 38.9 M58.45 35.25 L58.45 35.25 58.3 35.05 58.45 35.25 M9.1 8.65 L9.2 8.85 9.25 9.1 9.3 9.35 9.25 9.1 9.1 8.65 M15.45 9.05 L15.5 9.3 15.55 9.55 15.5 10.0 15.35 10.25 15.45 10.5 15.35 10.7 15.4 10.95 15.35 10.7 15.45 10.5 15.35 10.25 15.5 10.0 15.55 9.55 15.45 9.3 15.45 9.05 M8.25 3.8 L7.5 3.6 7.3 3.45 7.2 3.25 6.8 2.95 6.6 2.85 6.45 2.65 6.3 2.45 5.9 1.85 5.65 1.75 5.5 1.55 5.25 1.45 5.5 1.55 5.65 1.75 5.9 1.85 6.3 2.45 6.45 2.6 6.6 2.85 6.8 2.95 7.2 3.25 7.35 3.45 7.5 3.6 8.25 3.8 M10.85 11.45 L11.05 11.6 11.15 12.35 11.35 12.55 11.4 12.8 11.6 13.0 11.4 12.8 11.35 12.55 11.15 12.35 11.05 11.6 10.85 11.45 M0.2 14.65 L0.0 14.2 0.0 13.95 -0.3 13.55 -0.45 13.3 -0.75 12.9 -0.75 12.65 -0.9 12.45 -0.9 12.15 -1.0 11.7 -0.85 10.95 -0.85 10.7 -0.8 10.45 -0.75 10.25 -0.7 10.0 -0.5 9.8 -0.4 9.1 -0.5 8.85 -0.4 8.6 -0.45 8.35 -0.55 8.1 -0.55 7.9 -0.6 7.65 -0.55 7.4 -0.95 7.1 -1.1 6.85 -1.25 6.7 -1.35 6.45 -1.45 6.25 -1.55 6.0 -1.65 5.75 -1.55 5.55 -1.5 5.05 -1.45 4.8 -1.3 4.6 -1.2 3.65 -1.15 3.4 -1.25 3.15 -1.35 3.25 -1.8 3.5 -2.55 4.1 -3.95 4.6 -4.3 4.95 -4.8 5.05 -5.25 5.1 -6.7 4.8 -7.2 4.75 -7.6 4.45 -7.95 4.1 -8.35 3.8 -8.6 4.15 -8.8 4.6 -9.15 4.9 -9.45 5.3 -9.8 5.65 -10.1 6.05 -10.7 6.75 -11.45 7.4 -11.85 7.65 -12.3 7.85 -12.65 8.15 -13.0 8.55 -13.85 9.0 -14.25 9.25 -14.65 9.45 -15.0 9.8 -15.4 10.1 -15.75 10.4 -16.2 10.6 -16.1 11.05 -16.05 11.55 -16.25 13.45 -16.6 14.4 -17.05 15.25 -18.15 16.8 -18.55 17.05 -19.0 17.3 -19.3 17.7 -20.0 18.35 -20.45 18.6 -20.35 19.0 -20.15 19.45 -20.0 19.9 -19.6 20.2 -18.55 21.2 -18.3 21.65 -17.6 22.25 -17.05 23.05 -16.7 23.45 -16.45 23.85 -15.4 24.8 -15.15 25.2 -14.95 25.7 -14.7 26.1 -13.9 26.65 -13.0 26.95 -12.6 27.25 -11.4 28.0 -9.4 29.35 -8.75 30.1 -8.3 30.25 -7.9 30.5 -7.6 30.85 -7.35 31.3 -7.05 31.65 -7.05 31.65 -6.85 31.8 -6.6 31.8 -6.4 31.95 -6.35 32.0 -6.3 31.95 -6.2 31.75 -6.15 31.5 -6.1 31.25 -5.75 30.85 -5.7 30.6 -5.55 30.15 -5.6 29.9 -5.55 29.65 -5.4 29.45 -5.25 29.0 -5.4 28.5 -5.5 28.25 -5.55 28.05 -5.5 27.8 -5.5 27.3 -5.55 27.05 -5.55 26.8 -5.75 26.35 -5.7 26.1 -5.75 25.85 -5.65 25.6 -5.55 25.35 -5.5 25.15 -5.4 24.9 -5.2 24.2 -5.2 23.95 -5.05 23.5 -4.9 23.3 -4.85 23.05 -4.65 22.9 -4.5 22.7 -4.5 22.4 -4.3 22.25 -4.05 21.8 -3.9 21.65 -3.65 21.55 -3.5 21.35 -3.25 21.25 -3.1 21.05 -3.05 20.8 -2.8 20.7 -2.65 20.5 -2.45 20.35 -2.4 20.1 -2.25 19.9 -2.2 19.65 -2.0 19.5 -1.8 19.3 -1.8 19.05 -1.6 18.6 -1.55 18.35 -1.35 18.2 -0.9 17.95 -0.7 17.8 -0.5 17.7 -0.35 17.5 -0.25 17.25 -0.25 17.0 0.0 16.6 0.0 16.3 0.05 16.1 0.1 15.85 0.05 15.35 0.15 15.15 0.1 14.9 0.2 14.65 M6.2 6.45 L6.4 6.65 6.6 6.75 6.8 6.9 7.15 7.25 7.5 7.6 7.75 7.6 8.1 8.0 8.1 8.0 7.9 7.8 7.75 7.6 7.5 7.6 7.1 7.3 6.8 6.9 6.4 6.65 6.0 6.35 5.95 6.1 5.75 5.95 5.7 5.7 5.75 5.95 5.95 6.1 6.05 6.35 6.2 6.45 M5.2 3.35 L5.2 3.6 5.55 4.0 5.55 4.75 5.45 5.0 5.5 5.25 5.65 5.45 5.7 5.7 5.65 5.45 5.5 5.25 5.45 5.0 5.5 4.75 5.55 4.0 5.2 3.6 5.2 3.35 5.2 3.35 M11.8 13.65 L11.8 13.65 M13.1 29.1 L13.1 28.85 13.2 28.6 13.1 28.85 13.1 29.1 13.05 29.35 13.1 29.6 12.9 29.75 13.05 29.6 13.05 29.35 13.1 29.1 M13.7 27.05 L13.65 26.8 13.7 27.05 13.7 27.25 13.6 27.5 13.55 27.75 13.55 27.95 13.5 28.2 13.4 28.35 13.5 28.2 13.55 27.95 13.55 27.75 13.6 27.5 13.7 27.25 13.7 27.05 M13.75 25.85 L13.7 25.6 13.75 25.35 13.75 25.6 13.8 25.85 13.65 26.05 13.55 26.3 13.65 26.8 13.55 26.3 13.65 26.05 13.75 25.85 M14.15 24.75 L13.95 25.05 14.15 24.75 14.2 24.5 14.15 24.75 M14.3 24.3 L14.65 23.95 14.7 23.7 14.7 23.7 14.65 23.95 14.3 24.3 14.2 24.5 14.3 24.3 M14.95 22.75 L14.75 23.1 14.95 22.75 15.0 22.55 14.95 22.75 M15.1 21.75 L15.15 21.5 15.25 21.3 15.4 21.1 15.25 21.3 15.1 21.75 M12.35 31.6 L12.2 31.8 12.2 32.05 12.15 31.8 12.3 31.6 12.35 31.35 12.35 31.6 M12.45 30.85 L12.4 30.6 12.55 30.4 12.55 30.15 12.7 29.95 12.55 30.15 12.55 30.4 12.4 30.6 12.45 30.85 12.35 31.1 12.35 31.35 12.3 31.1 12.45 30.85 M12.2 32.05 L12.05 32.25 11.95 32.5 11.8 32.65 11.55 32.8 11.8 32.65 11.95 32.5 12.05 32.25 12.2 32.05 M21.5 57.45 L21.65 57.65 21.65 57.65 21.5 57.45 21.25 57.35 21.15 57.15 21.3 57.35 21.5 57.45 M16.35 55.75 L16.6 55.7 16.85 55.75 17.1 55.7 18.0 56.0 18.2 56.15 17.1 55.7 16.85 55.75 16.6 55.7 16.35 55.75 16.1 55.6 15.95 55.45 15.2 55.25 14.8 54.95 15.0 55.05 15.2 55.25 15.7 55.4 15.95 55.4 16.1 55.6 16.35 55.75 M19.95 56.9 L19.95 56.9 20.45 56.9 20.45 56.9 19.95 56.9 M18.9 56.35 L19.1 56.35 18.9 56.35 18.65 56.25 18.4 56.3 18.65 56.25 18.9 56.35 M20.65 57.05 L20.9 57.05 20.9 57.05 20.65 57.05 M8.2 46.1 L8.35 46.3 8.45 46.5 8.4 46.75 8.65 47.2 8.65 47.7 8.6 47.45 8.65 47.2 8.4 46.75 8.45 46.55 8.35 46.3 8.2 46.1 8.1 45.9 7.65 45.3 7.55 45.05 7.5 44.8 7.7 45.3 8.0 45.65 8.2 46.1 M23.3 59.1 L23.55 59.35 23.7 59.55 23.8 59.8 23.85 59.9 23.8 59.8 23.7 59.55 23.55 59.35 23.3 59.1 M22.55 58.05 L22.8 58.15 22.9 58.35 22.95 58.6 22.9 58.35 22.8 58.15 22.55 58.05 22.3 58.0 22.3 58.0 22.55 58.05 M8.65 47.7 L8.75 47.95 8.75 48.15 8.85 48.4 8.85 48.65 9.0 48.85 9.1 49.05 9.15 49.3 9.3 49.5 9.55 49.65 9.55 49.9 9.8 50.05 9.85 50.3 10.0 50.5 10.1 50.7 10.25 50.9 10.3 51.15 10.45 51.35 10.55 51.6 10.7 51.8 10.9 52.2 11.1 52.4 11.3 52.55 11.55 52.95 11.7 53.1 12.3 53.55 12.55 53.6 12.85 54.0 12.85 54.0 12.55 53.6 12.3 53.55 11.9 53.25 11.7 53.15 11.5 52.95 11.3 52.55 11.05 52.4 10.9 52.2 10.7 51.8 10.5 51.6 10.45 51.35 10.3 51.15 10.25 50.9 10.05 50.75 10.0 50.5 9.85 50.3 9.75 50.05 9.55 49.9 9.55 49.65 9.3 49.5 9.15 49.3 9.1 49.05 9.0 48.85 8.85 48.65 8.85 48.4 8.75 48.2 8.7 47.95 8.65 47.7 M13.7 54.45 L13.45 54.4 13.35 54.3 13.7 54.45 13.95 54.5 14.1 54.75 14.3 54.8 14.55 54.8 14.8 54.95 14.55 54.85 14.3 54.85 14.1 54.75 13.95 54.5 13.7 54.45 M49.45 53.85 L49.3 53.65 49.15 53.45 48.95 53.3 48.95 53.3 49.15 53.45 49.35 53.65 49.45 53.85 49.7 53.95 49.85 54.15 50.1 54.2 50.2 54.4 50.4 54.55 50.65 54.65 50.2 54.45 50.1 54.2 49.85 54.15 49.65 53.95 49.45 53.85 M64.65 42.6 L64.65 42.6 64.75 42.35 64.85 42.1 64.65 42.6 M26.25 63.05 L26.1 62.9 25.9 62.7 26.25 63.05 M25.15 61.5 L25.25 61.7 25.35 61.9 25.15 61.5 M50.65 54.65 L50.85 54.8 50.9 55.05 51.1 55.2 51.25 55.35 51.4 55.55 51.25 55.35 51.1 55.2 50.9 55.05 50.85 54.8 50.65 54.65 M-36.05 -80.55 L-36.05 -80.55 -36.2 -80.35 -36.3 -80.15 -36.4 -79.65 -36.3 -80.15 -36.2 -80.35 -36.05 -80.55 M46.05 51.15 L46.3 51.25 46.45 51.4 46.3 51.25 46.05 51.15 45.95 51.05 46.05 51.15 M46.85 51.7 L46.85 51.7 47.1 52.15 47.5 52.45 47.65 52.6 47.9 52.7 48.3 53.0 48.55 53.05 48.75 53.25 48.55 53.05 48.3 53.0 47.9 52.7 47.65 52.6 47.5 52.45 47.1 52.15 46.85 51.7 M38.0 44.55 L38.55 45.4 37.8 44.25 38.0 44.55 M38.8 45.75 L38.65 45.6 38.55 45.4 38.8 45.75 39.0 45.9 39.1 46.15 39.2 46.35 39.85 46.8 40.0 46.95 40.0 46.95 39.85 46.8 39.2 46.4 39.1 46.15 39.0 45.9 38.8 45.75 M37.65 44.1 L37.55 43.95 37.55 43.45 37.6 43.25 37.6 43.7 37.55 43.95 37.65 44.1 M43.25 48.55 L43.5 48.65 43.65 48.85 43.85 48.95 44.05 49.15 44.25 49.3 44.7 49.45 45.05 49.8 45.4 50.45 45.45 50.7 45.7 50.85 45.75 50.9 45.7 50.85 45.45 50.7 45.4 50.45 45.05 49.8 44.85 49.65 44.7 49.45 44.0 49.2 43.85 48.95 43.65 48.85 43.25 48.55 43.0 48.55 42.75 48.5 42.6 48.4 43.0 48.55 43.25 48.55 M41.55 47.7 L41.7 47.9 42.3 48.3 42.3 48.3 41.7 47.9 41.55 47.7 41.05 47.6 40.85 47.4 41.05 47.6 41.55 47.7 M53.7 58.6 L53.6 58.4 53.7 58.6 M53.55 58.15 L53.35 58.0 53.05 57.6 52.95 57.4 53.05 57.6 53.35 58.0 53.55 58.15 M51.65 55.7 L51.65 55.7 52.2 56.15 52.45 56.25 52.55 56.5 52.55 56.5 52.4 56.25 52.2 56.15 51.65 55.7 M-36.4 -79.65 L-36.45 -79.4 -36.6 -79.25 -36.8 -78.8 -36.8 -78.55 -36.85 -78.3 -36.9 -78.05 -36.9 -77.8 -37.0 -77.3 -36.95 -77.05 -37.0 -76.85 -37.0 -76.6 -37.05 -76.35 -36.95 -76.15 -37.0 -75.9 -36.9 -75.65 -37.0 -75.4 -36.9 -75.2 -36.85 -74.95 -36.7 -74.7 -36.7 -74.5 -36.75 -74.7 -36.85 -74.95 -36.9 -75.2 -37.0 -75.4 -36.9 -75.65 -37.0 -75.9 -36.95 -76.15 -37.1 -76.35 -37.0 -76.6 -37.05 -76.85 -36.95 -77.1 -37.0 -77.3 -36.9 -77.8 -36.95 -78.05 -36.85 -78.3 -36.8 -78.55 -36.8 -78.8 -36.6 -79.25 -36.45 -79.4 -36.4 -79.65 M-33.05 -29.0 L-33.25 -28.6 -33.35 -28.1 -33.55 -27.65 -33.65 -27.2 -33.9 -26.75 -33.95 -26.3 -34.2 -25.75 -31.85 -24.2 -22.75 -20.65 -13.8 -16.35 -4.9 -12.75 -2.4 -12.7 -1.9 -12.4 -1.75 -12.5 -1.55 -12.95 -1.3 -13.35 -0.85 -13.6 -0.6 -14.0 -0.1 -14.2 0.0 -14.3 -0.05 -14.4 -0.15 -14.6 -0.35 -14.75 -0.55 -14.95 -0.65 -15.15 -0.9 -15.55 -1.15 -15.65 -1.4 -15.7 -1.6 -15.8 -1.8 -15.95 -1.85 -16.2 -1.95 -16.45 -2.3 -16.8 -2.4 -17.05 -2.6 -17.2 -2.85 -17.6 -2.95 -17.85 -3.1 -18.0 -3.25 -18.25 -3.2 -18.5 -3.35 -18.7 -3.4 -18.95 -3.55 -19.15 -3.55 -19.4 -3.6 -19.6 -3.7 -19.85 -4.05 -20.2 -4.1 -20.45 -4.35 -20.55 -4.45 -20.8 -4.6 -21.0 -4.75 -21.15 -4.9 -21.4 -5.1 -21.5 -5.2 -21.75 -5.35 -21.95 -5.4 -22.2 -5.5 -22.4 -5.65 -22.6 -5.7 -22.8 -5.9 -23.0 -6.05 -23.15 -6.25 -23.35 -6.45 -23.8 -6.7 -23.9 -7.0 -24.25 -7.5 -24.35 -7.75 -24.45 -7.95 -24.6 -8.2 -24.6 -8.65 -24.75 -8.9 -24.9 -8.95 -25.15 -9.35 -25.45 -9.45 -25.7 -9.5 -25.95 -9.75 -26.05 -10.2 -26.6 -10.45 -27.05 -10.85 -27.35 -10.95 -27.55 -11.0 -27.85 -11.2 -28.25 -11.3 -28.5 -11.55 -28.6 -11.65 -28.85 -11.9 -28.95 -12.05 -29.4 -12.25 -29.6 -12.45 -29.75 -12.9 -29.95 -13.0 -30.2 -13.15 -30.4 -13.25 -30.6 -13.6 -30.95 -13.85 -31.0 -14.25 -31.25 -14.5 -31.3 -14.7 -31.4 -15.05 -31.75 -15.05 -31.8 -16.35 -32.45 -16.65 -32.8 -17.8 -33.7 -18.6 -34.25 -18.55 -34.3 -18.65 -34.35 -18.9 -34.35 -19.1 -34.5 -19.35 -34.45 -19.6 -34.5 -19.85 -34.45 -20.35 -34.55 -20.55 -34.75 -20.7 -34.95 -20.9 -35.4 -21.05 -35.6 -21.25 -35.7 -21.45 -35.75 -21.95 -35.7 -22.45 -35.8 -22.9 -36.0 -23.35 -36.1 -24.05 -36.8 -24.35 -37.2 -24.7 -37.5 -24.8 -37.7 -25.15 -37.5 -25.6 -37.35 -25.8 -37.3 -25.8 -37.3 -26.05 -37.3 -26.25 -37.1 -26.4 -37.05 -26.6 -36.9 -26.65 -36.85 -26.7 -36.85 -26.85 -36.7 -27.7 -36.4 -27.8 -36.25 -28.0 -36.15 -28.25 -36.05 -28.45 -35.9 -28.65 -35.8 -28.85 -35.65 -29.1 -35.6 -29.3 -35.35 -29.6 -34.95 -31.15 -33.85 -31.45 -33.5 -31.6 -33.05 -31.85 -32.6 -32.0 -32.15 -32.25 -31.75 -32.4 -31.3 -32.45 -30.35 -33.05 -29.0 M-39.6 -35.3 L-39.8 -35.25 -38.95 -35.15 -39.15 -35.3 -39.4 -35.25 -39.6 -35.3 M-33.55 -34.8 L-33.75 -34.75 -34.0 -34.6 -34.5 -34.7 -34.7 -34.6 -34.95 -34.5 -35.1 -34.5 -35.2 -34.4 -35.15 -34.15 -35.25 -33.9 -35.2 -33.45 -35.3 -32.9 -35.15 -32.65 -35.25 -32.45 -35.1 -32.2 -34.95 -31.7 -34.9 -31.45 -35.1 -31.25 -35.1 -31.0 -34.95 -30.3 -34.85 -30.05 -34.85 -29.85 -34.65 -29.65 -34.55 -29.45 -34.45 -29.2 -34.35 -29.0 -33.8 -28.45 -33.85 -27.9 -34.0 -27.9 -33.95 -28.4 -34.45 -28.95 -34.55 -29.15 -34.65 -29.4 -34.75 -29.6 -34.95 -29.8 -34.95 -30.05 -35.05 -30.25 -35.2 -31.05 -35.2 -31.25 -35.0 -31.5 -35.05 -31.75 -35.2 -32.2 -35.35 -32.4 -35.25 -32.65 -35.4 -32.9 -35.3 -33.4 -35.3 -33.9 -35.25 -34.15 -35.3 -34.4 -35.2 -34.5 -35.45 -34.5 -35.65 -34.55 -35.9 -34.55 -36.15 -34.45 -36.4 -34.45 -36.65 -34.4 -37.15 -34.45 -37.55 -34.7 -37.8 -34.75 -38.05 -34.75 -38.5 -35.0 -38.65 -35.05 -38.7 -34.95 -40.1 -35.15 -42.9 -35.9 -43.35 -35.8 -43.8 -35.65 -44.2 -35.35 -44.7 -35.2 -45.15 -35.25 -45.6 -35.05 -46.1 -34.95 -47.0 -34.65 -49.15 -33.65 -49.85 -32.9 -50.05 -32.8 -49.35 -32.15 -45.2 -29.95 -35.75 -26.75 -34.35 -25.8 -34.1 -26.35 -34.05 -26.8 -33.8 -27.25 -33.75 -27.45 -33.8 -27.7 -33.7 -27.7 -33.7 -27.7 -33.5 -28.15 -33.4 -28.6 -32.6 -30.35 -32.55 -31.3 -32.4 -31.8 -32.15 -32.2 -31.6 -33.55 -31.3 -33.95 -29.65 -35.05 -29.4 -35.45 -29.25 -35.65 -29.35 -35.65 -29.6 -35.65 -29.8 -35.5 -30.3 -35.35 -30.5 -35.2 -30.95 -35.4 -31.2 -35.35 -31.4 -35.4 -32.3 -34.7 -32.55 -34.75 -33.05 -34.75 -33.55 -34.8 M-35.45 -35.95 L-35.65 -36.1 -36.1 -36.1 -36.95 -35.65 -37.75 -35.05 -38.2 -34.95 -38.05 -34.85 -37.75 -34.85 -37.55 -34.8 -37.1 -34.55 -36.65 -34.45 -36.4 -34.55 -36.15 -34.55 -35.9 -34.6 -35.65 -34.65 -35.2 -34.55 -35.15 -34.55 -35.1 -34.6 -35.1 -34.85 -35.0 -35.1 -35.25 -35.9 -35.45 -35.95 M-35.0 -36.0 L-35.15 -35.9 -34.9 -35.05 -35.0 -34.85 -35.05 -34.6 -35.05 -34.55 -34.95 -34.6 -34.7 -34.65 -34.5 -34.8 -34.0 -34.7 -33.8 -34.85 -33.55 -34.9 -32.8 -34.8 -32.55 -34.85 -32.3 -34.8 -31.9 -35.15 -31.45 -35.45 -31.45 -35.45 -31.7 -35.35 -31.95 -35.4 -32.15 -35.5 -32.4 -35.55 -32.6 -35.7 -33.35 -35.7 -33.55 -35.85 -34.05 -36.0 -34.75 -35.95 -35.0 -36.0 M-35.35 -37.3 L-35.35 -37.3 -35.6 -36.95 -35.8 -36.5 -36.05 -36.2 -35.65 -36.2 -35.45 -36.0 -35.3 -36.0 -35.3 -36.05 -35.25 -36.3 -35.25 -36.55 -35.35 -37.05 -35.35 -37.3 M-35.35 -37.5 L-35.3 -37.55 -35.45 -37.7 -35.35 -37.5 M-35.45 -37.75 L-35.5 -38.0 -35.55 -38.1 -35.5 -37.85 -35.45 -37.75 M-35.6 -38.15 L-35.65 -38.2 -35.75 -38.45 -35.75 -38.3 -35.6 -38.15 M-36.1 -39.3 L-35.95 -39.05 -35.9 -39.45 -36.1 -39.65 -36.1 -39.3 M-22.85 -40.35 L-23.05 -39.85 -23.2 -39.7 -23.4 -39.55 -23.55 -39.35 -23.75 -39.25 -23.95 -39.05 -24.15 -38.95 -24.45 -38.95 -24.65 -38.8 -24.85 -38.75 -25.05 -38.6 -25.3 -38.5 -25.45 -38.35 -25.5 -38.3 -24.95 -37.95 -24.8 -37.8 -24.8 -37.85 -24.3 -37.95 -23.45 -38.35 -23.05 -38.6 -22.75 -38.95 -22.5 -39.4 -21.9 -40.7 -21.5 -41.05 -21.3 -41.5 -21.1 -41.8 -21.2 -41.8 -21.35 -41.55 -21.5 -41.4 -21.65 -41.2 -22.1 -40.95 -22.2 -40.7 -22.65 -40.5 -22.85 -40.35 M-18.3 -45.7 L-18.55 -45.25 -19.35 -44.75 -19.55 -43.75 -19.9 -42.85 -20.7 -42.25 -20.9 -41.95 -20.3 -42.2 -20.05 -42.2 -19.9 -42.35 -19.15 -42.55 -19.0 -42.75 -18.85 -42.95 -18.4 -43.1 -18.2 -43.25 -18.05 -43.45 -17.85 -43.6 -17.7 -43.8 -17.55 -44.0 -17.35 -44.45 -17.15 -44.6 -17.0 -44.8 -16.9 -45.05 -16.75 -45.25 -16.55 -45.4 -16.3 -45.8 -16.05 -45.9 -15.9 -46.1 -15.45 -46.3 -15.35 -46.5 -14.9 -47.1 -14.85 -47.35 -14.85 -47.6 -14.95 -47.55 -15.7 -46.9 -16.55 -46.45 -17.45 -46.15 -17.85 -45.9 -18.3 -45.7 M-28.85 -39.7 L-30.25 -39.85 -30.7 -39.7 -31.15 -39.5 -31.6 -39.35 -32.0 -39.05 -32.4 -38.85 -32.75 -38.5 -33.6 -38.0 -34.55 -37.75 -35.0 -37.7 -35.25 -37.45 -35.3 -37.3 -35.3 -37.05 -35.15 -36.55 -35.15 -36.3 -35.2 -36.05 -35.2 -35.95 -35.0 -36.05 -34.75 -36.0 -34.25 -36.1 -34.0 -36.1 -33.55 -35.9 -33.35 -35.75 -32.55 -35.75 -32.35 -35.6 -31.9 -35.45 -31.7 -35.45 -31.45 -35.55 -31.35 -35.5 -31.25 -35.6 -30.85 -35.85 -30.7 -36.0 -30.45 -36.05 -30.2 -36.15 -30.0 -36.3 -29.75 -36.3 -29.5 -36.25 -29.25 -36.35 -29.0 -36.3 -28.75 -36.35 -28.55 -36.4 -28.25 -36.4 -28.05 -36.55 -27.85 -36.65 -27.6 -36.65 -27.5 -36.7 -27.25 -36.75 -27.05 -36.9 -27.0 -37.15 -26.55 -37.45 -26.4 -37.6 -26.35 -37.85 -26.15 -38.05 -25.95 -38.2 -25.65 -38.35 -25.8 -38.45 -26.7 -38.65 -27.15 -38.85 -27.9 -39.45 -28.85 -39.7 M-31.0 -56.35 L-31.1 -56.15 -31.2 -55.95 -31.25 -55.45 -31.35 -55.25 -31.5 -54.75 -31.6 -54.55 -31.85 -54.4 -31.85 -54.15 -32.0 -53.95 -32.05 -53.75 -32.15 -53.5 -32.2 -53.25 -32.25 -53.0 -32.4 -52.85 -32.45 -52.6 -32.65 -52.4 -32.8 -52.2 -32.85 -51.95 -33.0 -51.8 -33.05 -51.5 -33.55 -50.95 -33.8 -50.95 -34.4 -50.55 -34.6 -50.35 -34.85 -50.35 -35.0 -50.15 -35.2 -50.05 -35.35 -49.8 -35.6 -49.7 -35.9 -49.35 -36.0 -49.15 -36.2 -48.95 -36.3 -48.75 -36.45 -48.55 -36.5 -48.3 -36.65 -48.1 -36.75 -47.9 -36.95 -47.75 -37.0 -47.5 -37.45 -46.95 -37.4 -46.4 -37.6 -45.95 -37.6 -45.5 -37.45 -45.3 -37.3 -45.1 -37.25 -44.85 -37.25 -44.6 -37.2 -44.35 -37.05 -44.15 -37.0 -43.9 -36.75 -43.5 -36.45 -43.1 -36.35 -42.85 -36.2 -42.65 -36.25 -42.15 -36.15 -41.95 -36.3 -41.45 -36.2 -41.2 -36.3 -40.7 -36.25 -40.45 -36.0 -40.0 -36.05 -39.75 -36.0 -39.7 -35.85 -39.5 -35.9 -39.0 -35.8 -38.9 -35.8 -38.85 -35.75 -38.75 -35.75 -38.7 -35.7 -38.7 -35.6 -38.2 -35.4 -38.0 -35.4 -37.75 -35.25 -37.6 -35.05 -37.8 -34.55 -37.85 -34.1 -38.0 -33.65 -38.1 -32.85 -38.6 -32.5 -38.9 -32.45 -39.1 -32.45 -39.6 -32.75 -40.85 -32.75 -41.05 -32.85 -41.3 -32.9 -41.55 -32.85 -41.8 -32.7 -42.25 -32.8 -42.5 -32.85 -42.7 -33.0 -42.95 -33.05 -43.15 -33.0 -43.4 -32.9 -43.65 -33.0 -43.85 -33.1 -44.1 -33.25 -44.3 -33.25 -44.8 -33.45 -45.0 -33.7 -45.35 -33.75 -45.65 -33.8 -45.9 -33.8 -46.15 -33.65 -46.4 -33.65 -46.9 -33.45 -47.05 -33.45 -47.35 -33.3 -47.55 -33.3 -47.8 -33.15 -48.0 -32.95 -48.15 -32.9 -48.4 -32.8 -48.6 -32.35 -48.9 -31.95 -49.2 -31.7 -49.65 -31.45 -49.65 -30.95 -49.8 -30.85 -50.0 -30.75 -50.25 -30.7 -50.5 -30.45 -50.6 -30.3 -50.8 -29.75 -51.3 -29.6 -51.5 -29.6 -51.95 -29.5 -52.2 -29.5 -52.45 -29.25 -52.9 -29.25 -53.1 -29.15 -53.6 -29.2 -53.85 -29.2 -54.6 -29.35 -54.8 -29.55 -54.95 -29.85 -55.35 -30.0 -55.5 -30.4 -55.8 -30.5 -56.05 -30.7 -56.15 -30.9 -56.35 -31.0 -56.35 M-31.85 -57.1 L-32.3 -57.25 -32.55 -57.25 -32.8 -57.3 -33.0 -57.4 -33.2 -57.55 -33.3 -57.55 -33.4 -57.35 -33.5 -56.85 -33.65 -56.65 -33.9 -56.25 -34.05 -56.05 -34.5 -55.8 -34.65 -55.6 -34.9 -55.5 -35.2 -55.15 -35.45 -55.05 -35.65 -54.9 -35.8 -54.75 -35.95 -54.55 -36.2 -54.1 -36.5 -53.7 -36.6 -53.5 -36.8 -53.35 -36.95 -53.15 -37.1 -52.95 -37.35 -52.85 -37.45 -52.6 -37.6 -52.45 -37.7 -52.2 -37.75 -51.95 -37.95 -51.8 -38.15 -51.1 -38.1 -50.35 -38.25 -50.15 -38.35 -49.9 -38.55 -49.75 -38.75 -49.6 -39.0 -49.5 -39.15 -49.35 -39.25 -49.1 -39.3 -48.35 -39.2 -48.1 -39.3 -47.9 -39.2 -47.65 -39.25 -47.4 -39.2 -47.1 -39.25 -46.9 -39.2 -46.65 -39.3 -46.4 -39.25 -46.15 -39.35 -45.7 -39.3 -45.2 -39.15 -45.0 -38.85 -44.6 -38.8 -44.35 -38.6 -43.9 -38.55 -43.65 -38.65 -43.45 -38.55 -43.2 -37.9 -42.85 -37.7 -42.65 -37.5 -42.25 -37.3 -42.05 -37.15 -41.85 -36.95 -41.7 -36.9 -41.15 -36.7 -41.0 -36.6 -40.75 -36.35 -40.35 -36.15 -39.9 -36.1 -39.8 -36.05 -40.0 -36.3 -40.45 -36.4 -40.7 -36.3 -41.2 -36.35 -41.45 -36.2 -41.95 -36.3 -42.15 -36.25 -42.65 -36.4 -42.85 -36.5 -43.05 -36.95 -43.65 -37.05 -43.85 -37.1 -44.1 -37.25 -44.3 -37.3 -44.55 -37.3 -44.8 -37.35 -45.05 -37.5 -45.25 -37.65 -45.45 -37.65 -45.95 -37.45 -46.45 -37.5 -46.95 -37.2 -47.35 -37.05 -47.5 -36.95 -47.75 -36.8 -47.95 -36.55 -48.35 -36.5 -48.6 -36.35 -48.75 -36.25 -49.0 -36.05 -49.15 -35.95 -49.4 -35.75 -49.55 -35.6 -49.75 -35.35 -49.85 -35.25 -50.1 -35.0 -50.2 -34.85 -50.4 -34.6 -50.4 -34.45 -50.6 -33.85 -51.0 -33.55 -51.0 -33.1 -51.55 -33.05 -51.8 -32.85 -52.0 -32.8 -52.25 -32.7 -52.45 -32.5 -52.6 -32.45 -52.85 -32.25 -53.05 -32.2 -53.3 -32.2 -53.55 -32.05 -53.75 -32.0 -54.0 -31.85 -54.15 -31.85 -54.45 -31.65 -54.6 -31.5 -54.8 -31.4 -55.25 -31.25 -55.45 -31.25 -55.95 -31.15 -56.2 -31.0 -56.4 -31.4 -56.5 -31.5 -56.75 -31.7 -56.9 -31.85 -57.1 M-26.6 -70.35 L-26.7 -70.15 -26.9 -70.05 -26.75 -70.15 -26.6 -70.4 -26.45 -70.55 -26.15 -70.6 -26.45 -70.55 -26.6 -70.35 M-27.35 -69.8 L-27.6 -69.8 -27.4 -69.85 -26.95 -70.0 -27.35 -69.8 M-23.85 -69.9 L-23.95 -69.45 -23.8 -69.2 -23.9 -68.5 -23.9 -68.7 -23.8 -69.2 -23.95 -69.45 -23.85 -69.95 -23.85 -69.9 M-23.45 -72.55 L-23.55 -72.35 -23.75 -72.2 -24.0 -72.1 -24.2 -71.95 -24.55 -71.65 -24.85 -71.2 -25.05 -71.0 -25.45 -70.8 -25.7 -70.7 Q-25.8 -70.65 -25.9 -70.55 L-26.15 -70.6 -25.9 -70.6 -25.7 -70.75 -25.45 -70.8 -25.05 -71.05 -24.85 -71.2 -24.55 -71.65 -24.2 -72.0 -24.0 -72.15 -23.8 -72.2 -23.6 -72.35 -23.45 -72.55 -23.15 -72.95 -22.95 -73.1 -22.75 -73.25 -22.5 -74.0 -22.35 -74.2 -22.3 -74.45 -22.15 -74.65 -21.95 -74.8 -21.25 -75.1 -20.95 -75.5 -20.9 -75.8 -20.8 -76.0 -20.75 -76.25 -20.25 -76.8 -20.15 -77.05 -20.15 -77.05 -20.25 -76.8 -20.75 -76.25 -20.8 -76.0 -20.9 -75.75 -20.95 -75.5 -21.2 -75.1 -21.95 -74.8 -22.1 -74.65 -22.25 -74.45 -22.35 -74.2 -22.5 -74.0 -22.75 -73.25 -22.9 -73.1 -23.15 -72.95 -23.45 -72.55 M-53.05 -34.35 L-52.65 -34.5 -52.65 -34.35 -52.65 -34.3 -51.9 -34.65 -51.9 -34.25 -52.6 -33.9 -52.6 -33.65 -52.95 -33.65 -53.0 -33.65 -53.0 -33.25 -53.0 -33.65 -53.2 -33.65 -53.2 -33.95 -53.4 -33.85 -53.4 -34.25 -53.05 -34.4 -53.05 -34.35 M-6.6 31.85 L-6.85 31.8 -6.95 31.75 -6.75 32.0 -6.5 32.45 -6.5 32.65 -6.4 32.45 -6.4 32.15 -6.35 32.05 -6.4 31.95 -6.6 31.85 M-1.4 -7.15 L-1.3 -6.95 -1.3 -6.7 -1.2 -6.5 -1.15 -6.25 -0.95 -6.1 -0.9 -5.85 -0.75 -5.65 -0.65 -5.45 -0.45 -5.25 -0.2 -5.15 -0.15 -4.9 -0.05 -4.7 0.1 -4.5 -0.05 -4.7 -0.15 -4.9 -0.2 -5.15 -0.5 -5.25 -0.65 -5.45 -0.9 -5.8 -0.95 -6.05 -1.15 -6.2 -1.25 -6.5 -1.35 -6.7 -1.35 -6.95 -1.4 -7.15 M-1.15 -10.5 L-1.45 -10.05 -1.4 -9.6 -1.4 -8.8 -1.55 -8.6 -1.55 -8.35 -1.5 -8.15 -1.55 -7.65 -1.5 -7.4 -1.2 -8.75 -1.2 -9.25 -1.3 -9.75 -1.1 -10.2 -1.1 -10.65 -1.15 -10.5 M-1.15 -10.95 L-1.1 -10.85 -1.15 -11.05 -1.15 -10.95 M-28.25 -36.15 L-28.05 -36.2 -27.85 -36.35 -27.8 -36.35 -28.65 -36.05 -29.0 -35.75 -29.05 -35.7 -28.9 -35.7 -28.7 -35.85 -28.45 -35.95 -28.25 -36.15 M-27.5 -36.6 L-27.55 -36.6 -27.55 -36.55 -27.5 -36.6 M-27.65 -36.55 L-27.8 -36.55 -28.05 -36.5 -28.25 -36.35 -29.0 -36.25 -29.25 -36.3 -29.5 -36.15 -29.75 -36.25 -30.0 -36.25 -30.2 -36.05 -30.4 -36.0 -30.65 -35.95 -30.85 -35.8 -31.25 -35.55 -31.3 -35.5 -31.2 -35.45 -30.95 -35.45 -30.75 -35.4 -30.5 -35.25 -30.3 -35.4 -29.85 -35.55 -29.65 -35.7 -29.4 -35.7 -29.2 -35.7 -29.1 -35.8 -28.7 -36.15 -27.65 -36.5 -27.65 -36.55 M-27.2 -36.7 L-27.1 -36.75 -27.15 -36.75 -27.2 -36.7 M-25.65 -37.45 L-25.65 -37.45 -25.2 -37.6 -25.1 -37.65 -25.2 -37.65 -25.45 -37.65 -25.65 -37.45 M-25.4 -38.15 L-25.6 -38.3 -25.95 -38.15 -26.15 -38.0 -26.3 -37.85 -26.35 -37.6 -26.5 -37.4 -26.95 -37.1 -27.0 -36.85 -27.1 -36.8 -26.9 -36.85 -26.85 -36.85 -26.15 -37.4 -25.75 -37.45 -25.5 -37.7 -25.25 -37.7 -24.95 -37.75 -24.9 -37.8 -25.0 -37.9 -25.4 -38.15 M-24.05 -37.65 L-24.3 -37.6 -24.75 -37.75 -24.65 -37.6 -24.3 -37.25 -24.0 -36.85 -23.3 -36.15 -22.85 -36.1 -22.4 -35.9 -21.95 -35.8 -21.45 -35.8 -21.45 -35.8 -21.5 -35.85 -21.6 -36.05 -21.8 -36.2 -21.95 -36.45 -22.1 -36.6 -22.25 -36.8 -22.45 -36.95 -22.9 -37.1 -23.35 -37.4 -24.05 -37.65 M-19.25 -34.95 L-19.6 -35.25 -20.05 -35.45 -21.1 -35.65 -21.05 -35.6 -20.9 -35.4 -20.65 -34.95 -20.5 -34.75 -20.3 -34.6 -19.85 -34.5 -19.55 -34.55 -19.35 -34.45 -19.1 -34.55 -18.85 -34.35 -18.7 -34.35 -18.9 -34.65 -19.25 -34.95 M-3.25 -26.2 L-3.2 -26.15 -3.15 -25.9 -2.9 -25.75 -2.75 -25.55 -2.3 -25.4 -2.15 -25.2 -1.65 -25.1 -2.1 -25.7 -2.55 -25.85 -2.95 -26.15 -3.25 -26.2 M-3.85 -26.85 L-3.9 -26.9 -3.7 -26.65 -3.4 -26.3 -3.35 -26.3 -3.5 -26.5 -3.7 -26.65 -3.85 -26.85" fill="#ffffff" fill-rule="evenodd" stroke="none"/>
  </g>
</svg>
