<?xml version="1.0" encoding="UTF-8" standalone="no"?>
<svg xmlns:xlink="http://www.w3.org/1999/xlink" height="103.6px" width="171.6px" xmlns="http://www.w3.org/2000/svg">
  <g transform="matrix(1.0, 0.0, 0.0, 1.0, 54.95, 40.5)">
    <path d="M31.85 -27.85 L32.05 -27.75 32.35 -27.3 32.6 -27.25 32.6 -27.25 32.35 -27.3 32.05 -27.75 31.85 -27.85 31.7 -28.05 31.55 -28.2 31.7 -28.05 31.85 -27.85 M31.2 -28.55 L30.7 -28.65 30.55 -28.9 30.25 -28.85 30.55 -28.9 30.7 -28.7 31.2 -28.55 31.35 -28.35 31.45 -28.25 31.35 -28.35 31.2 -28.55 M21.4 -20.5 L21.55 -20.25 21.8 -20.15 22.0 -19.7 22.2 -19.25 21.75 -20.15 21.55 -20.25 21.4 -20.45 21.25 -20.65 21.4 -20.5 M18.25 -23.55 L18.55 -23.55 18.8 -23.5 18.95 -23.3 19.2 -23.2 19.35 -23.05 19.6 -23.0 19.75 -22.8 19.95 -22.3 20.35 -22.05 20.55 -21.3 20.8 -20.85 21.05 -20.8 21.05 -20.8 20.8 -20.85 20.5 -21.25 20.35 -22.0 19.95 -22.3 19.75 -22.8 19.55 -22.95 19.35 -23.05 19.15 -23.2 18.95 -23.3 18.75 -23.5 18.5 -23.55 18.25 -23.5 18.05 -23.65 17.6 -23.8 17.4 -23.95 16.9 -23.95 16.65 -24.05 16.25 -24.35 16.0 -24.35 15.75 -24.45 15.6 -24.6 14.95 -25.0 14.2 -25.1 13.95 -25.05 13.55 -25.35 13.3 -25.3 13.1 -25.3 12.8 -25.25 12.6 -25.25 12.35 -25.3 12.1 -25.2 11.6 -25.3 11.4 -25.25 11.15 -25.25 10.9 -25.15 10.6 -25.1 10.4 -25.15 10.15 -25.15 9.9 -25.3 9.65 -25.25 9.45 -25.35 8.55 -25.7 8.25 -25.6 8.0 -25.6 7.85 -25.75 7.55 -25.8 7.35 -25.9 7.05 -25.95 6.85 -26.05 6.45 -26.35 6.25 -26.4 5.8 -26.75 5.35 -26.85 5.15 -26.95 4.9 -26.95 4.7 -27.1 4.2 -27.0 3.95 -27.05 3.2 -27.15 2.8 -26.8 2.55 -26.75 2.3 -26.85 2.1 -26.75 1.65 -26.65 1.15 -26.35 0.7 -26.5 0.45 -26.45 0.25 -26.4 0.0 -26.4 -0.25 -26.5 -0.75 -26.45 -1.0 -26.5 -1.35 -26.85 -1.8 -27.05 -2.05 -27.05 -2.25 -27.15 -2.5 -27.15 -2.7 -27.3 -3.25 -27.3 -3.45 -27.4 -3.65 -27.55 -4.15 -27.55 -4.35 -27.7 -4.6 -27.8 -5.05 -27.85 -5.3 -27.95 -6.0 -28.15 -6.45 -28.4 -6.7 -28.4 -6.9 -28.6 -7.1 -28.7 -7.35 -28.7 -7.8 -28.95 -8.3 -29.0 -8.5 -29.1 -8.75 -29.05 -9.0 -29.1 -9.2 -29.3 -9.45 -29.25 -9.65 -29.4 -9.9 -29.45 -10.35 -29.65 -10.75 -29.9 -11.0 -29.95 -11.4 -30.2 -11.65 -30.15 -11.8 -30.15 -11.3 -29.45 -10.95 -29.15 -10.1 -28.7 -9.8 -28.3 -9.1 -27.6 -8.65 -27.4 -8.3 -27.05 -8.0 -26.7 -7.8 -25.7 -7.2 -25.0 -6.75 -24.8 -5.3 -23.55 -4.8 -22.7 -4.45 -22.3 -4.35 -21.85 -4.3 -20.85 -4.0 -20.55 -3.75 -20.1 -3.65 -19.6 -3.1 -18.85 -2.85 -18.4 -2.8 -17.95 -2.6 -17.5 -2.6 -17.0 -2.75 -16.5 -2.6 -16.05 -2.65 -15.55 -2.8 -15.1 -2.65 -14.65 -2.35 -14.3 -2.1 -13.85 -1.95 -14.0 -1.7 -14.0 -1.45 -14.0 -0.95 -14.1 -0.7 -14.05 -0.5 -13.9 -0.05 -13.9 0.4 -13.6 0.65 -13.6 1.1 -13.75 1.35 -13.9 1.85 -13.85 2.05 -14.0 2.55 -14.0 2.75 -14.15 2.95 -14.25 3.2 -14.3 3.35 -14.5 3.6 -14.6 3.75 -14.75 4.0 -14.85 4.2 -14.95 4.5 -15.35 4.65 -15.5 4.85 -15.75 5.1 -15.7 5.3 -15.85 5.5 -15.9 6.2 -16.2 6.45 -16.1 6.9 -16.2 7.15 -16.3 7.6 -16.1 8.35 -16.2 9.05 -15.95 9.3 -15.95 9.75 -15.75 9.95 -15.6 10.15 -15.5 10.5 -15.15 10.75 -15.05 11.45 -14.75 11.6 -14.55 12.05 -14.3 12.1 -14.05 12.35 -13.9 12.45 -13.7 12.65 -13.55 12.75 -13.3 12.95 -13.2 13.05 -12.95 13.1 -12.7 13.35 -12.55 13.45 -12.35 13.6 -12.15 14.1 -12.0 14.2 -11.75 14.7 -11.65 14.9 -11.55 15.05 -11.3 15.45 -11.05 15.7 -11.05 15.9 -10.85 16.05 -10.65 16.25 -10.55 16.45 -10.4 16.7 -10.3 17.1 -10.1 17.35 -10.05 17.6 -9.95 17.85 -9.5 18.35 -9.35 18.55 -9.2 18.7 -9.0 18.9 -8.9 19.1 -8.7 19.25 -8.5 19.5 -8.45 19.65 -8.25 19.75 -8.05 20.2 -7.8 20.45 -7.75 20.6 -7.55 20.85 -7.5 21.15 -7.15 21.3 -6.9 21.4 -6.7 21.5 -6.2 21.6 -5.95 21.8 -5.8 22.1 -5.45 22.3 -5.3 22.45 -4.8 22.5 -4.6 22.45 -4.8 22.35 -5.05 22.3 -5.3 22.05 -5.4 21.95 -5.65 21.8 -5.8 21.6 -5.95 21.5 -6.2 21.35 -6.7 21.3 -6.9 21.15 -7.1 20.85 -7.5 20.6 -7.55 20.45 -7.75 20.2 -7.8 19.75 -8.0 19.6 -8.25 19.45 -8.4 19.2 -8.5 19.05 -8.7 18.9 -8.85 18.65 -9.0 18.5 -9.2 18.35 -9.35 17.85 -9.5 17.55 -9.9 17.35 -10.05 17.1 -10.05 16.9 -10.2 16.45 -10.4 16.25 -10.55 16.05 -10.65 15.85 -10.85 15.7 -11.0 15.4 -11.0 15.0 -11.3 14.9 -11.5 14.7 -11.65 14.2 -11.75 14.05 -11.95 13.55 -12.15 13.4 -12.3 13.3 -12.55 13.1 -12.7 13.05 -12.95 12.9 -13.15 12.7 -13.3 12.65 -13.55 12.4 -13.7 12.3 -13.9 12.05 -14.0 12.0 -14.3 11.55 -14.55 11.4 -14.75 10.9 -14.9 10.7 -15.05 10.45 -15.1 10.15 -15.45 9.9 -15.55 9.75 -15.75 9.5 -15.8 9.3 -15.95 9.05 -15.9 8.35 -16.2 7.6 -16.05 7.15 -16.25 6.9 -16.15 6.45 -16.05 6.2 -16.15 5.55 -15.9 5.3 -15.85 5.1 -15.65 4.85 -15.7 4.7 -15.5 4.5 -15.35 4.35 -15.15 4.25 -14.9 4.05 -14.8 3.8 -14.75 3.6 -14.55 3.4 -14.45 3.25 -14.25 3.0 -14.2 2.75 -14.1 2.55 -13.95 2.05 -13.95 1.85 -13.8 1.35 -13.85 1.1 -13.7 0.65 -13.55 0.4 -13.55 -0.05 -13.85 -0.3 -13.85 -0.55 -13.85 -0.75 -14.0 -0.95 -14.05 -1.45 -13.95 -1.7 -13.95 -1.95 -13.95 -2.1 -13.8 -1.9 -13.4 -1.8 -12.9 -1.1 -12.25 -0.8 -11.85 -0.7 -11.4 -0.4 -11.0 -0.25 -10.55 0.6 -10.1 0.95 -9.75 1.25 -9.35 2.05 -8.85 2.3 -8.4 2.7 -7.5 2.8 -7.3 4.35 -6.55 9.45 -3.15 11.4 -1.1 11.9 -0.75 12.35 -0.55 12.65 -0.3 14.65 0.6 16.9 2.9 19.8 4.15 22.25 6.35 25.55 8.05 25.75 8.05 26.25 8.15 26.5 8.0 26.7 8.0 26.95 7.95 27.45 7.9 27.95 8.0 28.15 7.95 28.4 7.85 28.65 7.85 28.9 7.8 29.4 7.7 30.1 7.85 30.35 8.0 30.8 8.1 31.05 8.1 31.3 7.95 31.5 7.9 31.75 8.05 32.0 8.05 32.25 7.95 33.05 8.6 33.35 8.55 33.8 8.75 34.05 8.7 34.2 8.9 34.45 8.95 34.7 8.95 35.3 9.35 35.5 9.55 35.75 9.6 36.15 9.95 36.35 10.05 36.85 10.05 36.35 10.05 36.1 9.95 35.75 9.6 35.5 9.6 35.3 9.4 34.7 8.95 34.45 8.95 34.2 8.9 34.05 8.75 33.75 8.75 33.35 8.55 33.05 8.6 32.85 8.5 32.25 8.0 32.0 8.05 31.75 8.05 31.5 7.95 31.3 8.0 31.05 8.15 30.3 8.0 29.85 7.8 29.4 7.75 28.9 7.8 28.65 7.9 28.4 7.85 28.2 7.95 27.95 8.05 27.7 7.95 27.45 7.95 26.95 7.95 26.7 8.05 26.5 8.0 26.25 8.15 26.0 8.15 25.75 8.05 25.6 8.05 26.75 8.65 30.85 10.4 32.75 10.95 33.75 11.75 33.6 12.1 32.6 11.3 30.65 10.75 30.4 10.6 31.1 11.95 31.4 12.25 31.75 13.2 32.0 13.6 32.35 14.95 32.65 15.15 32.9 15.55 33.3 15.85 34.7 16.15 35.15 16.1 35.55 15.95 37.55 15.7 38.95 15.9 40.4 15.8 40.85 15.75 41.3 15.55 41.8 15.55 42.25 15.75 42.75 15.7 43.2 15.85 43.65 16.1 44.55 16.4 45.0 16.4 46.45 16.7 47.4 16.7 47.85 16.85 48.85 16.8 49.75 17.2 52.15 18.85 52.5 19.25 52.6 19.7 52.95 20.05 53.25 20.95 53.5 21.4 53.65 21.85 54.5 23.2 54.55 23.25 54.8 23.45 54.9 23.4 55.2 23.4 55.4 23.25 55.9 23.25 56.1 23.2 56.35 23.05 56.65 22.7 56.8 22.5 56.9 22.3 57.15 22.2 57.25 21.95 57.5 21.85 57.75 21.75 57.95 21.6 58.05 21.4 58.2 20.65 58.2 20.4 58.25 20.15 58.3 19.95 58.6 19.55 58.7 19.3 58.9 19.15 58.95 17.6 59.05 17.4 59.1 16.85 59.3 16.7 59.3 16.45 59.4 16.2 59.9 16.15 60.35 15.95 61.0 15.5 61.5 15.45 61.75 15.55 61.95 15.5 62.2 15.6 62.45 15.6 62.9 15.55 62.45 15.65 62.2 15.6 62.0 15.5 61.75 15.55 61.5 15.5 61.0 15.5 60.35 16.0 59.9 16.15 59.4 16.25 59.35 16.45 59.3 16.7 59.15 16.9 59.1 17.4 59.0 17.6 58.9 19.15 58.7 19.35 58.6 19.55 58.3 19.95 58.3 20.2 58.2 20.4 58.25 20.7 58.15 20.9 58.05 21.4 57.95 21.65 57.75 21.8 57.5 21.85 57.3 22.0 57.2 22.25 56.95 22.3 56.7 22.75 56.35 23.1 56.15 23.25 55.9 23.3 55.65 23.3 55.4 23.3 55.2 23.45 54.95 23.45 54.85 23.45 54.95 23.5 55.4 23.6 57.3 23.55 58.25 23.7 59.65 23.55 60.1 23.3 60.95 22.15 Q61.15 22.0 61.35 21.85 L62.15 21.3 62.45 20.95 62.85 20.65 63.5 19.95 63.8 19.55 64.15 18.65 64.65 18.55 66.45 17.85 66.8 17.5 67.2 17.2 67.55 17.05 67.45 16.9 67.2 16.85 66.8 16.55 66.55 16.55 65.9 16.2 65.75 16.0 65.3 15.8 64.9 15.5 64.65 15.6 64.4 15.6 64.15 15.65 63.9 15.7 63.7 15.55 63.45 15.5 63.0 15.55 63.2 15.5 63.45 15.45 63.7 15.55 63.9 15.7 64.15 15.6 64.4 15.55 64.65 15.6 64.9 15.5 65.1 15.6 65.5 15.9 65.75 15.95 65.95 16.15 66.55 16.5 66.8 16.55 67.2 16.85 67.45 16.9 67.55 17.0 67.6 17.0 68.0 16.7 68.95 16.35 69.35 16.15 70.1 15.55 70.95 14.35 72.0 13.35 72.35 13.05 72.8 12.8 73.3 12.75 73.75 12.6 74.25 12.6 74.65 12.35 75.05 12.05 75.95 11.7 75.05 12.1 74.7 12.4 74.25 12.65 73.75 12.65 73.3 12.8 72.8 12.85 72.4 13.1 72.0 13.4 71.0 14.4 70.15 15.6 69.4 16.2 68.95 16.4 68.05 16.75 67.65 17.05 67.6 17.05 68.05 17.25 68.55 17.35 68.8 17.3 69.05 17.4 69.25 17.35 69.5 17.4 69.75 17.4 70.0 17.4 70.25 17.45 70.45 17.45 Q70.6 17.4 70.7 17.35 L70.85 17.45 71.25 17.2 71.4 16.95 71.6 16.8 71.8 16.65 72.0 16.55 72.2 16.45 72.7 16.3 72.8 16.05 73.2 15.75 73.45 15.7 73.9 15.15 74.05 14.9 74.3 14.85 74.45 14.7 74.6 14.5 74.8 14.3 75.05 14.2 75.25 14.2 75.65 13.85 76.1 13.65 76.3 13.5 76.8 13.55 77.25 13.4 77.45 13.25 78.2 13.3 78.65 12.95 79.05 12.75 79.25 12.6 79.4 12.35 79.6 12.25 80.4 12.35 80.6 12.2 81.05 12.05 81.2 11.85 81.5 11.85 81.7 11.7 81.85 11.55 82.3 11.4 82.7 11.1 82.85 10.85 82.9 10.85 82.5 10.7 81.05 10.5 80.55 10.5 80.1 10.6 79.65 10.7 79.15 10.65 78.7 10.85 78.25 10.95 77.8 11.1 77.3 11.2 76.4 11.55 75.95 11.7 77.3 11.15 77.75 11.05 78.2 10.9 78.25 10.9 78.4 10.75 78.65 10.7 78.85 10.55 79.1 10.5 79.25 10.35 79.45 10.15 79.65 10.05 79.85 9.95 80.05 9.75 80.15 9.55 80.45 9.15 80.65 9.05 80.85 8.9 80.95 8.65 81.05 8.45 81.2 8.25 81.4 8.1 81.55 7.9 81.75 7.75 81.95 7.6 82.45 7.45 82.8 7.1 83.05 7.05 83.2 6.9 83.45 6.85 83.65 6.7 83.9 6.65 84.15 6.6 84.35 6.5 84.6 6.5 84.9 6.5 85.05 6.35 85.3 6.25 85.45 6.05 85.65 5.95 85.85 5.8 85.95 5.6 86.35 5.25 86.4 4.95 86.65 4.55 86.8 4.35 86.95 4.15 87.1 3.95 87.1 3.7 87.25 3.5 87.15 3.0 87.35 2.8 87.45 2.3 87.55 2.1 87.6 1.6 87.55 1.35 87.3 0.9 87.3 0.65 87.5 0.2 87.5 -0.05 87.6 -0.3 87.7 -0.5 87.8 -0.75 87.8 -1.0 88.15 -1.35 88.35 -1.4 88.7 -1.7 88.4 -1.4 88.15 -1.35 87.8 -0.95 87.8 -0.7 87.75 -0.5 87.6 -0.3 87.5 -0.05 87.5 0.2 87.35 0.65 87.35 0.9 87.55 1.35 87.65 1.6 87.55 2.1 87.45 2.3 87.35 2.8 87.2 3.0 87.25 3.5 87.15 3.7 87.15 3.95 86.8 4.35 86.7 4.6 86.4 5.0 86.35 5.25 86.0 5.6 85.85 5.8 85.7 5.95 85.45 6.1 85.3 6.3 85.05 6.35 84.9 6.55 84.65 6.5 84.35 6.5 84.15 6.65 83.9 6.65 83.65 6.75 83.45 6.9 83.2 6.9 83.05 7.1 82.8 7.15 82.45 7.5 81.95 7.65 81.75 7.75 81.6 7.9 81.45 8.15 81.25 8.25 81.05 8.45 81.0 8.7 80.85 8.9 80.7 9.1 80.5 9.2 80.3 9.35 80.15 9.55 80.05 9.8 79.9 9.95 79.45 10.2 79.3 10.4 79.1 10.5 78.85 10.55 78.65 10.7 78.4 10.8 78.3 10.9 78.7 10.8 79.15 10.6 79.6 10.65 80.1 10.55 80.55 10.45 81.05 10.45 82.95 10.8 83.05 10.75 83.2 10.55 83.45 10.45 83.65 10.35 84.05 10.05 84.3 10.05 84.45 9.85 84.7 9.75 84.9 9.65 85.3 9.05 85.55 8.9 85.95 8.3 85.85 8.55 85.55 8.95 85.35 9.05 84.9 9.65 84.7 9.8 84.45 9.85 84.3 10.05 84.05 10.05 83.85 10.25 83.65 10.35 83.45 10.45 83.25 10.55 83.1 10.75 83.0 10.85 83.85 11.15 83.85 11.2 82.95 10.85 82.85 10.9 82.7 11.1 82.35 11.4 81.85 11.55 81.7 11.75 81.5 11.85 81.2 11.85 81.05 12.05 80.6 12.2 80.4 12.35 80.15 12.35 79.6 12.25 79.4 12.4 79.25 12.6 79.1 12.8 78.65 13.0 78.2 13.3 77.45 13.25 77.25 13.4 76.8 13.6 76.55 13.55 76.3 13.55 76.1 13.7 75.65 13.85 75.3 14.2 75.05 14.25 74.8 14.35 74.65 14.5 74.5 14.7 74.3 14.9 74.05 14.95 73.95 15.15 73.45 15.7 73.2 15.75 73.0 15.9 72.85 16.1 72.7 16.3 72.5 16.4 72.25 16.45 72.05 16.6 71.8 16.7 71.65 16.85 71.45 17.0 71.3 17.2 71.1 17.35 70.85 17.45 70.95 17.5 71.65 17.65 71.85 17.75 72.1 17.7 72.3 17.9 72.75 17.95 72.55 17.95 72.3 17.95 72.1 17.75 71.85 17.75 71.65 17.65 71.4 17.65 70.85 17.45 70.6 17.5 70.4 17.6 70.15 17.7 69.9 17.65 69.65 17.7 69.4 17.7 69.1 18.1 68.8 18.1 68.6 18.15 68.45 18.3 69.4 18.2 70.35 18.2 71.25 18.55 72.7 18.9 72.7 18.95 71.25 18.6 70.35 18.25 69.4 18.25 68.4 18.35 67.05 18.75 66.0 19.8 65.6 20.05 65.35 20.45 65.15 20.9 64.85 21.25 64.5 21.6 64.25 22.0 63.3 23.1 62.85 23.25 62.05 23.8 61.75 24.2 60.95 24.75 60.6 25.1 59.9 25.8 59.5 26.05 59.05 26.25 58.55 26.3 Q58.35 26.4 58.1 26.45 L57.15 26.35 56.7 26.15 56.3 25.85 56.0 25.5 55.6 25.15 55.3 24.7 55.3 24.8 55.25 25.3 55.35 25.5 55.6 25.95 55.75 26.1 55.85 26.35 55.9 26.4 56.05 26.55 56.1 26.75 56.2 27.0 56.4 27.15 56.45 27.4 56.8 27.7 57.05 28.15 57.2 28.35 57.2 28.45 57.25 28.6 57.45 28.75 57.45 28.9 57.55 29.0 57.75 29.45 57.9 29.65 58.15 29.75 58.3 29.95 59.0 30.15 59.15 30.35 59.55 30.65 59.8 30.75 59.9 30.95 60.0 31.2 60.05 31.45 60.25 31.6 60.4 31.75 60.65 31.85 61.05 32.15 61.2 32.35 61.3 32.6 61.55 32.7 61.6 32.95 61.85 33.05 62.05 33.2 62.2 33.4 62.55 33.7 62.8 33.75 62.95 34.0 63.35 34.2 63.55 34.35 63.65 34.6 64.0 34.95 64.25 35.0 64.45 35.15 64.55 35.4 64.75 35.55 64.9 35.7 65.15 35.8 65.35 35.95 65.5 36.15 65.65 36.3 65.8 36.5 67.0 36.85 67.45 37.05 67.8 37.45 68.5 37.75 68.75 37.8 68.9 38.0 69.1 38.05 69.3 38.25 69.55 38.3 69.9 38.65 70.05 38.85 70.2 39.0 70.45 39.1 70.55 39.35 70.7 39.55 70.85 39.7 70.95 39.95 71.05 40.15 71.2 40.35 71.6 40.65 72.05 40.8 72.5 41.0 72.9 41.3 73.2 41.65 73.45 41.75 73.85 42.0 74.1 42.0 74.35 42.1 74.35 42.1 74.1 42.0 73.85 42.0 73.45 41.75 73.2 41.7 72.9 41.3 72.5 41.0 72.3 40.9 72.0 40.85 71.15 40.4 71.0 40.2 70.9 39.95 70.85 39.7 70.65 39.55 70.5 39.35 70.45 39.1 70.2 39.0 70.0 38.85 69.85 38.65 69.7 38.5 69.5 38.35 69.25 38.25 69.1 38.05 68.85 38.0 68.7 37.8 68.45 37.75 67.8 37.5 67.65 37.3 67.45 37.1 67.0 36.9 66.5 36.8 65.8 36.55 65.65 36.3 65.45 36.15 65.3 35.95 64.9 35.75 64.7 35.55 64.5 35.45 64.4 35.2 64.2 35.05 64.0 34.95 63.65 34.6 63.5 34.4 63.35 34.25 63.1 34.15 62.9 34.0 62.8 33.8 62.5 33.75 62.15 33.4 62.05 33.2 61.85 33.05 61.6 32.95 61.5 32.7 61.3 32.6 61.0 32.15 60.65 31.9 60.4 31.8 60.2 31.65 60.05 31.45 60.0 31.2 59.9 31.0 59.75 30.8 59.5 30.7 59.15 30.4 59.0 30.2 58.5 30.0 58.25 29.95 58.1 29.75 57.85 29.7 57.7 29.5 57.5 29.0 57.45 28.95 57.45 29.0 57.5 29.25 57.5 29.5 57.6 29.75 57.6 30.0 57.75 30.2 57.7 30.45 57.7 30.95 58.0 31.6 58.0 32.1 58.15 32.55 58.0 33.05 58.05 33.3 58.0 33.5 57.7 34.2 57.7 34.45 57.65 34.7 57.7 35.2 57.8 35.4 57.85 35.65 57.75 35.9 57.85 36.1 57.8 36.35 57.9 36.6 57.9 36.85 58.05 37.05 58.15 37.5 58.3 37.75 58.45 37.95 58.5 38.15 58.65 38.35 58.85 38.5 59.7 39.5 59.7 39.7 59.8 39.95 60.1 40.35 60.2 40.55 60.3 41.0 60.3 41.25 60.5 41.45 60.5 41.7 60.65 41.9 60.7 42.15 60.75 42.4 60.7 42.65 60.55 42.85 60.45 43.35 60.5 43.55 60.75 44.0 60.85 44.25 61.0 44.45 61.15 44.6 61.3 44.85 61.35 45.05 61.55 45.25 61.5 45.5 61.75 45.9 61.8 46.15 61.95 46.35 62.25 47.0 62.45 47.15 62.5 47.4 62.55 47.65 62.75 47.8 63.15 48.45 63.3 48.6 63.35 48.85 63.45 49.1 63.6 49.25 63.9 49.65 64.3 49.95 64.5 50.4 64.65 50.6 64.7 50.85 64.85 51.05 64.85 51.3 65.0 51.5 64.95 51.7 64.95 51.5 64.85 51.3 64.85 51.05 64.7 50.85 64.65 50.6 64.35 50.2 64.25 50.0 64.1 49.8 63.85 49.65 63.45 49.1 63.35 48.85 63.3 48.6 63.1 48.45 62.75 47.8 62.55 47.65 62.45 47.45 62.45 47.2 62.25 47.0 62.15 46.8 61.95 46.35 61.8 46.2 61.75 45.95 61.5 45.5 61.5 45.25 61.35 45.05 61.25 44.85 61.15 44.6 60.95 44.45 60.8 44.25 60.75 44.0 60.5 43.6 60.45 43.35 60.55 42.85 60.7 42.65 60.75 42.4 60.6 41.9 60.5 41.7 60.45 41.45 60.3 41.25 60.3 41.0 60.2 40.55 60.1 40.35 59.75 39.95 59.7 39.75 59.65 39.5 58.85 38.5 58.65 38.35 58.5 38.15 58.4 37.95 58.25 37.75 58.15 37.55 58.0 37.05 57.85 36.85 57.85 36.6 57.75 36.35 57.8 36.1 57.75 35.9 57.8 35.65 57.8 35.4 57.7 35.2 57.65 34.9 57.65 34.65 57.65 34.2 58.05 33.3 58.0 33.05 58.1 32.55 58.05 32.3 58.0 32.1 57.95 31.85 58.0 31.6 57.65 30.95 57.65 30.45 57.7 30.2 57.55 30.0 57.6 29.75 57.45 29.5 57.45 29.25 57.4 29.05 57.4 28.95 57.3 28.85 57.15 28.65 57.15 28.35 56.75 28.05 56.65 27.8 56.5 27.65 56.4 27.4 56.1 27.0 56.0 26.8 55.95 26.55 55.8 26.4 55.4 26.1 55.25 25.9 55.05 25.8 54.95 25.55 54.45 25.45 54.3 25.2 54.0 25.2 53.4 24.85 52.95 24.65 52.8 24.45 52.6 24.3 52.35 24.25 52.2 24.05 51.95 24.0 51.45 23.9 51.25 23.8 50.85 23.45 50.75 23.4 50.65 23.4 50.4 23.4 50.2 23.3 49.95 23.25 49.5 23.0 49.25 23.0 48.8 22.8 48.6 22.65 48.45 22.45 48.2 22.4 47.8 22.15 47.5 22.1 47.35 21.9 46.9 21.7 46.75 21.5 46.55 21.05 46.35 20.9 46.15 20.8 46.05 20.55 45.9 20.4 45.45 20.25 44.65 19.75 43.25 19.3 42.4 18.9 41.45 18.65 41.05 18.4 40.55 18.3 40.15 18.1 39.65 18.0 39.25 17.75 38.75 17.7 38.3 17.5 37.8 17.5 37.4 17.25 34.6 16.5 34.1 16.5 33.7 16.25 32.8 15.9 32.45 15.5 32.25 15.05 32.25 15.0 32.15 14.95 31.85 14.6 31.4 14.4 30.6 13.95 29.7 13.7 29.2 13.7 28.7 13.65 28.25 13.75 27.75 13.8 27.25 13.75 26.4 13.2 26.05 12.9 25.55 12.8 25.25 12.45 25.25 12.95 25.3 13.4 25.7 13.6 25.85 13.8 26.25 14.1 26.35 14.3 26.55 14.45 26.75 14.55 26.95 14.7 27.2 14.8 27.3 14.95 27.65 14.95 27.9 14.85 28.15 14.95 28.6 14.8 28.8 15.0 29.05 15.1 29.15 15.3 29.4 15.4 29.55 15.6 29.75 17.1 29.9 17.3 30.0 17.5 29.95 17.8 30.05 18.0 30.1 18.25 30.1 18.5 30.2 18.9 30.4 19.1 30.55 19.25 30.55 19.55 30.7 19.75 30.85 19.9 30.9 20.2 31.35 20.4 31.75 20.75 32.0 20.85 32.1 21.05 32.25 21.25 32.3 21.5 32.4 21.75 32.55 21.9 33.05 22.1 33.35 22.45 33.4 22.7 33.45 22.95 33.45 23.2 33.5 23.45 33.5 23.7 33.7 23.9 33.8 24.1 33.95 24.55 33.9 24.8 34.1 25.3 34.05 25.55 34.2 25.75 34.35 25.95 34.4 26.2 34.55 26.4 34.65 26.6 34.65 26.85 34.8 27.05 34.9 27.3 34.95 27.55 35.05 27.8 35.3 27.9 35.35 28.15 35.55 28.3 35.7 28.5 35.8 29.0 36.0 29.15 36.25 29.6 36.25 29.85 36.35 30.05 36.7 30.45 36.65 30.7 36.8 30.9 36.8 31.15 36.85 31.4 37.15 31.8 37.4 32.25 37.4 32.5 37.45 32.75 37.15 33.45 37.15 33.7 36.95 33.85 36.95 34.15 36.9 34.2 36.95 34.3 37.15 34.75 37.75 35.55 38.4 37.35 39.25 38.55 39.35 39.0 39.55 39.45 39.55 40.45 39.2 41.35 39.65 42.2 39.8 42.65 40.35 43.45 40.35 43.95 40.65 44.35 41.05 45.25 40.95 45.75 41.1 46.2 41.0 46.65 41.25 47.05 41.3 47.55 41.5 47.95 41.6 47.95 41.5 47.95 41.95 48.85 42.25 49.25 42.7 51.15 42.7 52.1 42.5 52.45 42.6 52.85 42.65 53.1 42.55 52.9 42.45 52.5 42.2 52.95 42.1 53.4 41.95 53.85 41.65 54.3 41.55 54.7 41.55 54.75 41.7 54.95 41.55 54.75 41.55 54.7 41.5 54.75 41.7 55.2 41.7 55.65 42.0 56.1 42.35 57.0 42.4 57.45 42.3 57.95 42.25 58.45 42.1 58.9 42.35 59.3 42.4 59.8 42.4 60.5 42.7 60.6 43.55 61.1 42.7 60.6 42.4 60.55 42.4 61.25 42.25 61.7 42.25 62.2 42.15 62.65 42.1 62.65 42.2 62.2 42.2 61.7 42.35 61.25 42.35 60.5 42.2 60.5 41.95 60.55 41.75 60.45 41.5 60.45 41.75 60.45 41.95 60.55 42.2 60.45 42.35 60.5 42.4 59.8 42.3 59.3 42.05 58.85 42.2 58.4 42.25 57.95 42.35 57.45 42.3 57.0 42.15 56.55 41.65 55.7 41.65 55.2 41.5 54.7 41.5 54.65 41.3 54.3 41.3 54.05 41.15 53.85 41.1 53.65 41.1 53.35 41.0 53.15 40.95 52.9 40.8 52.7 40.75 51.95 40.8 51.45 40.85 51.25 40.75 51.95 40.8 52.2 40.8 52.7 40.95 52.9 41.0 53.15 41.1 53.35 41.1 53.65 41.15 53.85 41.3 54.05 41.35 54.3 41.5 54.65 41.6 54.25 41.9 53.85 42.05 53.4 42.15 52.95 42.4 52.5 42.45 52.4 42.45 52.35 42.3 52.15 42.35 51.9 42.2 51.7 42.2 51.45 42.15 51.2 42.0 51.0 41.75 50.9 41.45 50.5 41.2 50.4 40.95 50.35 40.85 50.1 40.65 50.0 40.6 50.0 40.6 50.05 40.8 50.25 40.75 50.5 40.85 50.7 40.9 50.95 40.85 51.15 40.9 50.95 40.85 50.75 40.75 50.5 40.75 50.25 40.6 50.05 40.6 50.0 40.45 49.8 40.2 49.8 40.05 49.6 39.6 49.45 39.4 49.3 39.4 49.25 39.6 49.4 40.05 49.6 40.2 49.8 40.5 49.8 40.6 49.95 40.45 49.05 40.35 48.85 40.3 48.6 40.15 48.4 40.1 47.95 39.9 47.9 39.7 47.9 39.5 47.95 39.7 47.9 39.9 47.9 40.1 47.95 40.05 47.9 40.1 47.65 40.05 47.45 39.65 47.1 39.55 46.85 39.45 46.65 39.3 46.45 39.2 46.2 39.05 46.0 38.75 45.35 38.6 45.15 38.5 44.9 38.4 44.7 38.2 44.55 37.95 44.45 37.85 44.25 37.65 44.1 37.6 43.85 37.45 43.65 37.3 43.45 37.3 43.2 37.1 43.0 37.05 42.75 36.95 42.55 36.75 42.4 36.65 42.15 36.5 41.95 36.45 41.7 36.45 41.5 36.3 41.25 36.3 41.0 36.25 40.75 36.45 40.25 36.55 40.0 36.4 39.55 36.3 39.3 36.45 38.6 36.35 38.35 36.35 38.1 36.2 37.6 36.2 37.35 36.3 37.1 36.35 36.9 36.2 36.4 36.25 35.9 36.2 35.65 36.15 35.4 36.3 35.2 36.35 34.95 36.5 34.75 36.6 34.5 36.75 34.3 36.8 34.25 36.65 33.95 36.3 33.6 36.05 33.15 35.75 32.8 35.35 32.55 35.1 32.15 34.7 31.3 34.4 30.85 33.8 30.15 33.55 29.7 33.25 29.3 32.55 28.75 32.05 28.55 31.75 28.15 31.35 27.3 31.25 26.8 30.7 26.05 30.5 25.6 30.15 25.25 29.65 23.9 29.6 23.4 29.4 23.0 29.3 23.15 29.25 23.4 29.25 23.85 29.4 24.1 29.3 24.35 29.3 24.55 29.0 25.0 28.85 25.25 28.85 25.5 28.7 25.7 28.55 25.9 28.55 26.15 28.45 26.4 28.55 26.65 28.4 26.85 28.3 27.1 28.35 27.35 28.2 27.8 28.15 28.05 28.15 28.75 28.05 29.0 28.05 29.25 28.2 29.45 28.35 29.65 28.35 29.9 28.45 30.15 28.5 30.4 28.7 30.85 28.55 31.35 28.6 31.6 28.55 31.85 28.8 32.5 28.75 32.75 28.9 33.25 28.9 33.7 28.85 33.95 29.0 34.45 28.8 34.9 28.85 35.15 28.95 35.35 29.0 35.6 29.1 35.8 29.35 36.25 29.85 36.8 30.0 37.0 30.0 37.25 29.9 37.75 29.95 38.25 30.2 38.7 30.4 38.85 30.5 39.1 30.65 39.25 30.75 39.5 30.8 39.75 30.8 39.8 30.85 39.8 30.85 39.85 30.95 40.1 31.1 40.2 31.15 40.45 31.65 41.05 31.75 41.25 31.75 41.4 31.85 41.45 31.95 41.55 32.6 41.95 32.7 42.15 32.9 42.35 32.95 42.55 32.95 43.1 33.0 43.15 33.05 43.2 33.25 43.3 33.35 43.45 33.25 43.35 33.05 43.2 33.0 43.2 33.15 43.55 33.25 43.75 33.2 44.0 33.25 44.15 33.25 44.2 33.35 44.4 33.4 44.45 33.4 44.5 33.5 44.65 33.7 44.8 33.85 45.0 34.6 45.25 34.75 45.45 35.0 45.5 35.1 45.75 35.25 45.95 35.5 46.05 35.65 46.2 36.1 46.4 36.45 46.75 36.6 47.0 36.85 47.0 37.1 47.1 37.45 47.4 37.6 47.65 37.75 47.85 38.15 48.1 38.4 48.2 37.7 47.85 37.6 47.65 37.45 47.4 37.05 47.1 36.55 47.0 36.45 46.75 36.1 46.4 35.65 46.25 35.45 46.05 35.25 45.95 35.1 45.75 35.0 45.55 34.75 45.45 34.55 45.3 33.8 45.0 33.7 44.8 33.5 44.65 33.4 44.55 33.4 44.95 33.5 45.2 33.5 45.45 33.6 45.7 33.75 45.85 33.9 46.05 34.1 46.2 34.25 46.4 34.65 46.7 35.15 46.9 35.2 47.15 35.4 47.3 35.7 47.7 36.15 47.85 36.3 48.05 36.55 48.1 37.35 48.65 37.9 48.6 38.1 48.7 38.25 48.85 37.85 48.6 37.35 48.7 36.9 48.45 36.55 48.1 36.3 48.05 36.15 47.85 35.65 47.75 35.5 47.5 35.2 47.15 35.1 46.9 34.6 46.75 34.25 46.4 34.1 46.2 33.9 46.1 33.75 45.85 33.6 45.7 33.5 45.45 33.5 45.2 33.4 44.95 33.35 44.5 33.35 44.45 33.3 44.4 33.2 44.25 33.2 44.15 32.95 43.85 32.7 43.15 32.65 42.9 32.25 42.6 32.15 42.4 32.05 42.25 32.05 42.4 32.2 42.6 32.55 43.5 32.6 44.2 32.25 45.15 32.45 45.65 32.5 45.9 32.45 46.1 32.4 46.3 32.45 46.1 32.5 45.9 32.4 45.65 32.2 45.15 32.6 44.2 32.55 43.5 32.15 42.6 32.05 42.4 32.05 42.25 32.0 42.2 32.0 42.15 31.9 42.0 31.2 41.7 31.1 41.45 31.0 41.25 30.45 40.75 30.35 40.55 30.2 40.35 29.95 39.9 29.95 39.65 29.65 39.25 29.6 39.15 29.25 38.95 29.1 38.75 29.1 38.7 28.7 38.45 28.6 38.25 28.75 38.45 28.95 38.6 29.1 38.65 29.1 38.55 28.9 38.25 28.7 38.15 28.55 37.95 28.35 37.8 28.3 37.75 28.25 37.75 28.3 37.9 28.55 38.0 28.6 38.25 28.55 38.0 28.3 37.9 28.25 37.7 28.15 37.6 27.95 37.5 27.85 37.3 27.45 37.0 27.3 36.85 27.1 36.7 26.95 36.5 26.8 36.3 26.8 36.25 26.6 36.2 26.4 36.05 26.25 35.55 26.05 35.4 25.95 35.2 25.7 35.1 25.55 34.9 25.45 34.7 25.25 34.5 25.15 34.3 24.9 34.2 24.8 34.0 24.7 33.75 24.6 33.5 24.45 33.35 24.2 33.2 24.05 33.05 24.0 32.8 23.9 32.55 23.6 32.15 23.35 32.05 23.15 31.9 22.95 31.8 22.75 31.65 22.45 31.65 22.05 31.35 22.0 31.1 21.85 30.9 21.6 30.75 21.45 30.55 21.45 30.3 21.3 30.1 21.35 29.85 21.2 29.65 21.2 29.6 21.0 29.55 20.5 29.55 20.3 29.45 19.6 29.2 19.1 29.2 18.9 29.15 18.65 29.15 18.05 29.55 18.35 29.9 17.65 29.2 17.4 28.8 17.05 28.5 16.2 28.05 15.9 27.65 15.65 27.25 15.6 27.15 15.25 27.1 15.3 27.2 15.35 27.45 15.45 27.65 15.6 27.85 15.65 28.35 15.9 28.75 16.1 28.9 16.2 29.4 16.2 29.65 16.35 30.1 16.55 30.3 16.65 30.75 16.65 31.3 16.85 31.75 17.0 31.9 17.0 32.2 17.1 32.4 17.25 32.6 17.35 33.05 17.5 33.25 17.7 33.4 17.85 33.6 18.15 33.95 18.5 34.25 18.7 34.75 18.9 34.9 19.0 35.15 19.35 35.5 19.6 35.9 19.6 36.4 19.85 36.6 19.9 36.8 19.9 37.05 20.1 37.5 20.25 37.7 20.45 37.85 20.6 38.05 20.9 38.45 20.95 38.7 21.15 39.1 21.35 39.3 21.45 39.5 21.45 39.75 21.55 40.0 21.55 40.25 21.75 40.4 21.85 40.65 21.85 40.9 22.0 41.1 22.2 41.25 22.35 41.7 22.35 41.95 22.5 42.45 22.8 42.85 23.0 43.0 23.25 43.4 23.1 43.2 23.0 43.0 22.8 42.85 22.5 42.45 22.35 41.95 22.35 41.7 22.15 41.3 22.0 41.1 21.85 40.9 21.85 40.65 21.75 40.4 21.55 40.25 21.5 40.0 21.45 39.8 21.4 39.5 21.3 39.3 21.15 39.1 20.95 38.7 20.9 38.45 20.6 38.1 20.45 37.85 20.25 37.7 20.1 37.5 19.9 37.1 19.9 36.8 19.8 36.6 19.6 36.4 19.6 35.9 19.35 35.5 19.0 35.15 18.9 34.9 18.7 34.75 18.5 34.25 18.15 33.95 17.8 33.6 17.7 33.4 17.45 33.25 17.3 33.1 17.2 32.6 17.1 32.4 16.95 32.2 16.95 31.95 16.8 31.75 16.65 31.3 16.6 31.05 16.65 30.75 16.6 30.55 16.55 30.3 16.35 30.15 16.15 29.7 16.15 29.4 16.05 28.9 15.9 28.75 15.65 28.35 15.6 27.85 15.4 27.65 15.3 27.45 15.25 27.2 15.25 27.1 15.15 27.1 14.7 26.95 13.85 26.45 12.3 24.6 11.45 22.85 11.15 21.95 10.55 21.2 10.3 20.75 10.3 20.55 9.9 20.25 9.2 20.05 9.35 20.35 9.5 20.55 9.6 20.8 9.6 21.0 9.6 21.5 9.75 21.95 9.85 22.15 10.1 22.3 10.25 22.75 10.35 23.0 10.55 23.15 10.7 23.35 10.8 23.55 10.85 23.8 10.8 24.05 10.85 24.25 10.9 24.5 10.85 25.25 10.75 25.5 10.75 25.75 10.8 25.95 10.8 26.45 10.9 26.7 11.05 27.4 11.2 27.6 11.25 27.85 11.1 28.35 11.0 28.55 11.1 28.8 11.1 29.55 11.25 29.75 11.25 30.0 11.2 30.25 11.15 30.5 11.15 30.75 11.2 31.0 11.15 31.3 11.3 31.5 11.45 31.65 11.55 31.9 11.75 32.05 12.05 32.45 12.1 32.7 12.4 33.05 12.45 33.6 12.8 33.95 13.4 34.4 13.4 34.7 13.5 34.9 13.55 35.15 13.7 35.35 13.55 35.15 13.5 34.9 13.4 34.7 13.35 34.4 13.2 34.25 12.75 33.95 12.45 33.6 12.4 33.05 12.1 32.7 12.05 32.45 11.75 32.05 11.55 31.9 11.45 31.65 11.25 31.5 11.15 31.3 11.15 31.05 11.1 30.75 11.1 30.5 11.15 30.25 11.25 30.0 11.25 29.75 11.1 29.55 11.05 28.8 11.0 28.55 11.1 28.35 11.2 27.85 11.2 27.6 11.0 27.4 11.0 27.15 10.75 26.45 10.8 26.2 10.75 25.75 10.75 25.5 10.8 25.25 10.9 24.5 10.75 24.05 10.8 23.8 10.75 23.55 10.7 23.35 10.35 23.0 10.2 22.8 10.05 22.35 9.85 22.2 9.7 22.0 9.6 21.5 9.6 21.05 9.55 20.8 9.45 20.55 9.3 20.4 9.15 20.05 8.95 20.0 8.6 19.7 8.15 19.45 6.55 17.65 5.75 17.1 5.3 16.95 4.9 16.7 3.5 16.2 0.75 15.4 0.45 15.15 -0.2 15.15 -0.45 15.05 -0.65 15.2 -0.9 15.25 -1.15 15.25 -1.55 15.5 -1.85 15.5 -2.0 15.7 -2.4 16.0 -2.5 16.2 -2.75 16.25 -2.95 16.45 -3.45 16.4 -3.7 16.5 -3.95 16.55 -4.2 16.55 -4.4 16.75 -4.6 16.75 -4.85 16.85 -5.05 16.95 -5.3 17.1 -5.4 17.3 -5.85 17.55 -6.05 17.7 -6.25 17.8 -6.5 17.85 -6.7 18.0 -7.15 18.2 -7.3 18.4 -7.5 18.55 -7.55 18.8 -7.8 18.9 -8.05 18.95 -8.5 19.2 -8.7 19.35 -8.85 19.5 -9.1 19.6 -9.35 20.0 -9.4 20.25 -9.5 20.45 -9.55 20.95 -9.75 21.15 -10.0 21.85 -10.15 22.0 -10.35 22.45 -10.7 22.8 -10.8 23.0 -10.9 23.8 -11.1 23.95 -11.25 24.4 -11.3 24.65 -11.45 24.85 -11.55 25.35 -11.55 25.1 -11.5 24.85 -11.3 24.65 -11.2 24.15 -11.1 23.95 -10.95 23.75 -10.8 23.0 -10.7 22.8 -10.35 22.45 -10.2 22.0 -10.0 21.8 -9.75 21.1 -9.6 20.95 -9.55 20.45 -9.45 20.2 -9.4 20.0 -9.1 19.6 -8.85 19.5 -8.7 19.3 -8.5 19.15 -8.1 18.95 -7.85 18.85 -7.6 18.75 -7.5 18.5 -7.3 18.4 -7.15 18.2 -6.95 18.05 -6.7 17.95 -6.5 17.85 -6.25 17.8 -6.05 17.7 -5.65 17.4 -5.4 17.3 -5.3 17.05 -5.1 16.95 -4.65 16.75 -4.4 16.7 -4.2 16.55 -3.95 16.55 -3.7 16.5 -3.45 16.4 -2.95 16.4 -2.8 16.2 -2.55 16.2 -2.4 16.0 -2.0 15.7 -1.85 15.5 -1.6 15.45 -1.15 15.25 -0.9 15.25 -0.65 15.15 -0.45 15.0 -0.2 15.1 0.45 15.15 -1.1 13.8 -2.05 12.15 -2.6 11.35 -2.95 11.05 -3.55 10.25 -3.8 9.85 -4.15 9.5 -4.65 8.65 -5.15 7.3 -5.8 6.6 -6.1 6.2 -6.45 5.85 -6.9 5.7 -7.35 5.65 -7.8 5.45 -8.3 5.35 -9.65 4.75 -10.1 4.65 -10.55 4.45 -11.35 3.85 -11.45 3.35 -11.7 2.95 -12.05 2.0 -12.0 1.0 -11.8 0.55 -11.05 -0.65 -10.85 -1.1 -10.55 -1.5 -10.15 -1.8 -9.7 -2.0 -9.4 -2.4 -8.95 -2.6 -7.85 -3.55 -6.9 -3.85 -6.5 -4.15 -6.1 -4.35 -5.6 -4.45 -5.2 -4.75 -4.75 -4.8 -4.3 -5.05 -4.25 -5.1 -4.65 -5.55 -5.1 -7.0 -5.3 -7.9 -5.65 -8.25 -5.85 -9.2 -6.15 -10.15 -6.1 -10.65 -5.85 -11.6 -5.85 -12.1 -5.75 -12.55 -8.45 -13.45 -9.9 -14.6 -12.55 -15.85 -18.25 -19.5 -20.1 -20.0 -22.5 -21.2 -25.7 -23.65 -27.35 -24.5 -27.55 -24.45 -31.95 -25.6 -36.85 -27.95 -41.15 -28.85 -45.65 -31.25 -48.05 -31.85 -50.25 -32.85 -52.65 -33.35 -52.6 -33.55 -52.65 -33.6 -52.55 -33.75 -52.55 -33.85 -54.35 -34.9 -54.45 -34.65 -54.7 -34.7 -54.6 -35.0 -54.95 -35.2 -54.55 -35.2 -54.65 -35.5 -54.6 -35.55 -54.85 -35.65 -54.75 -36.0 -54.25 -36.15 -54.4 -35.65 -54.15 -35.05 -54.2 -35.05 -52.4 -34.2 -52.45 -33.85 -52.35 -34.0 -51.25 -34.95 -50.8 -35.15 -50.5 -35.5 -50.1 -35.85 -49.85 -36.2 -49.4 -36.45 -49.15 -36.85 -48.75 -37.15 -47.85 -37.55 -47.35 -37.6 -46.0 -38.05 -44.65 -38.65 -42.8 -39.15 -42.3 -39.15 -41.8 -39.3 -40.85 -39.35 -40.4 -39.55 -38.95 -39.35 -38.5 -39.15 -38.0 -39.2 -37.55 -39.05 -36.55 -39.05 -36.1 -39.25 -35.15 -39.0 -34.65 -38.95 -34.2 -38.75 -32.75 -38.9 -32.3 -38.8 -31.8 -38.85 -30.85 -38.75 -29.9 -38.9 -28.7 -39.7 -28.25 -39.95 -27.9 -40.25 -27.5 -40.5 -25.55 -40.3 -25.15 -40.0 -24.8 -39.65 -24.45 -39.3 -24.0 -39.1 -23.1 -38.85 -22.7 -38.55 -22.25 -38.4 -21.75 -38.45 -21.3 -38.35 -20.8 -38.35 -19.85 -38.25 -19.35 -38.3 -17.95 -37.85 -17.55 -38.05 -16.1 -37.7 -14.7 -37.4 -13.7 -37.5 -13.25 -37.4 -12.8 -37.15 -12.35 -37.15 -11.45 -36.8 -10.95 -36.75 -9.6 -36.3 -9.1 -36.35 -8.15 -36.1 -7.75 -35.9 -7.25 -35.85 -6.75 -35.9 -5.8 -35.7 -5.35 -35.7 -4.85 -35.75 -4.35 -35.7 -4.35 -35.7 -4.0 -36.0 -3.75 -36.05 -3.5 -36.1 -3.35 -36.3 -3.1 -36.35 -2.9 -36.45 -2.7 -36.55 -2.45 -36.6 -2.2 -36.7 -1.4 -36.65 -1.25 -36.85 -1.0 -36.9 -0.75 -36.85 -0.5 -36.9 -0.25 -36.85 0.0 -36.85 Q0.1 -36.8 0.2 -36.75 L0.45 -36.75 1.15 -36.55 1.4 -36.65 1.65 -36.6 1.8 -36.4 2.5 -36.2 2.75 -36.25 3.5 -36.05 3.9 -35.85 4.15 -35.85 4.4 -35.75 4.7 -35.4 4.95 -35.3 5.0 -35.0 5.15 -34.8 5.6 -34.6 6.05 -34.5 6.5 -34.3 6.7 -34.15 6.85 -33.95 7.05 -33.8 7.5 -33.65 8.0 -33.65 8.25 -33.7 8.45 -33.6 8.95 -33.5 9.2 -33.6 9.45 -33.6 9.85 -33.3 10.1 -33.25 10.3 -33.15 10.5 -33.0 10.75 -32.6 10.85 -32.35 11.05 -31.9 11.2 -31.75 11.35 -31.55 11.55 -31.45 11.75 -31.3 12.5 -31.2 12.65 -31.05 13.05 -30.75 13.3 -30.65 13.45 -30.45 13.65 -30.35 14.3 -30.05 14.4 -29.8 14.3 -30.0 14.1 -30.15 13.65 -30.3 13.45 -30.45 13.25 -30.65 13.05 -30.75 12.85 -30.9 12.65 -31.0 12.5 -31.2 12.25 -31.25 11.75 -31.25 11.55 -31.4 11.3 -31.5 11.2 -31.75 11.0 -31.9 10.8 -32.35 10.75 -32.55 10.5 -32.95 10.3 -33.15 10.1 -33.25 9.85 -33.3 9.65 -33.4 9.45 -33.55 8.9 -33.5 8.7 -33.5 8.25 -33.7 7.95 -33.65 7.5 -33.65 7.25 -33.75 7.0 -33.75 6.85 -33.95 6.7 -34.15 6.5 -34.3 6.05 -34.5 5.6 -34.55 5.35 -34.7 5.1 -34.8 5.0 -35.0 4.95 -35.25 4.7 -35.35 4.35 -35.7 4.15 -35.8 3.7 -35.9 3.5 -36.05 2.75 -36.2 2.5 -36.15 2.25 -36.2 1.8 -36.4 1.6 -36.55 1.4 -36.6 1.15 -36.5 0.45 -36.75 0.2 -36.7 -0.05 -36.85 -0.25 -36.8 -0.5 -36.9 -0.75 -36.8 -1.0 -36.85 -1.2 -36.8 -1.4 -36.65 -1.65 -36.65 -1.9 -36.65 -2.2 -36.65 -2.4 -36.55 -2.65 -36.5 -2.85 -36.4 -3.1 -36.3 -3.35 -36.25 -3.5 -36.05 -3.75 -36.05 -3.95 -35.95 -4.3 -35.7 -3.9 -35.7 -2.95 -35.45 -2.05 -35.1 -1.55 -35.15 -1.1 -34.95 -0.15 -34.7 0.2 -34.45 0.25 -34.45 0.25 -34.4 1.05 -33.9 2.05 -33.7 2.45 -33.45 2.95 -33.4 3.4 -33.25 4.85 -33.35 6.3 -33.2 6.75 -33.3 7.25 -33.3 8.2 -33.55 8.2 -33.5 7.25 -33.3 6.8 -33.25 6.3 -33.15 4.85 -33.3 3.4 -33.25 2.45 -33.45 2.0 -33.65 1.05 -33.85 0.15 -34.4 -0.25 -34.5 -0.5 -34.5 -0.7 -34.45 -1.15 -34.2 -1.6 -34.05 -1.8 -33.9 -2.05 -33.9 -2.75 -33.55 -3.0 -33.6 -3.45 -33.35 -3.95 -33.35 -4.3 -33.0 -4.5 -32.85 -4.75 -32.8 -5.0 -32.7 -5.35 -32.35 -5.0 -32.75 -4.8 -32.8 -4.5 -32.85 -3.95 -33.35 -3.45 -33.4 -3.25 -33.5 -3.0 -33.6 -2.75 -33.55 -2.05 -33.9 -1.8 -33.9 -1.6 -34.05 -1.15 -34.2 -0.7 -34.5 -0.5 -34.55 -0.25 -34.55 0.0 -34.45 0.15 -34.45 -0.2 -34.65 -1.1 -34.9 -1.55 -35.1 -2.05 -35.05 -2.5 -35.2 -3.9 -35.65 -4.35 -35.65 -4.85 -35.7 -5.35 -35.65 -5.85 -35.65 -6.3 -35.8 -6.75 -35.85 -7.25 -35.8 -7.75 -35.85 -8.15 -36.05 -9.1 -36.3 -9.6 -36.25 -10.95 -36.7 -11.45 -36.7 -11.9 -36.95 -12.35 -37.1 -12.8 -37.1 -13.25 -37.3 -13.7 -37.4 -14.7 -37.3 -15.15 -37.5 -16.1 -37.65 -17.5 -37.95 -17.95 -37.8 -19.35 -38.2 -19.85 -38.15 -20.8 -38.3 -21.3 -38.25 -21.75 -38.35 -22.25 -38.35 -22.75 -38.45 -23.15 -38.75 -24.5 -39.25 -24.85 -39.55 -25.15 -39.95 -25.55 -40.2 -27.45 -40.4 -27.85 -40.15 -28.25 -39.85 -28.65 -39.65 -29.85 -38.8 -30.85 -38.65 -31.8 -38.75 -32.3 -38.7 -32.75 -38.8 -34.25 -38.65 -34.7 -38.85 -35.2 -38.9 -35.6 -39.05 -36.1 -39.1 -36.55 -38.95 -37.55 -38.95 -38.0 -39.05 -38.5 -39.05 -38.95 -39.25 -40.4 -39.4 -40.85 -39.2 -41.8 -39.15 -42.25 -39.05 -42.75 -39.05 -44.5 -38.55 -44.45 -38.5 -44.2 -38.35 -43.7 -38.3 -43.5 -38.15 -42.9 -37.65 -42.65 -37.65 -42.25 -37.35 -42.0 -37.25 -41.15 -36.75 -40.9 -36.65 -40.45 -36.55 -40.25 -36.4 -40.0 -36.3 -39.85 -36.1 -39.65 -35.95 -39.4 -35.95 -38.95 -35.75 -38.65 -35.35 -38.35 -35.35 -38.2 -35.2 -37.95 -35.15 -37.8 -34.95 -37.6 -34.8 -36.85 -34.65 -36.45 -34.3 -36.2 -33.9 -36.0 -33.45 -35.95 -33.2 -35.8 -33.0 -35.8 -32.7 -35.7 -32.5 -35.65 -32.25 -35.4 -32.25 -35.2 -32.1 -34.95 -32.05 -34.75 -31.85 -34.3 -31.65 -34.05 -31.6 -33.85 -31.6 -33.6 -31.7 -33.35 -31.75 -33.15 -31.75 -32.9 -31.85 -32.65 -31.85 -32.45 -31.9 -32.2 -32.0 -30.95 -32.05 -30.7 -32.0 -30.45 -32.05 -30.2 -31.95 -28.7 -31.9 -28.5 -31.75 -28.25 -31.8 -28.05 -31.85 -27.8 -31.9 -27.3 -31.9 -27.1 -32.0 -26.6 -32.0 -26.35 -31.95 -26.1 -32.0 -25.65 -32.2 -25.15 -32.05 -24.65 -32.0 -24.45 -32.05 -24.15 -32.05 -23.95 -32.1 -23.45 -32.1 -23.0 -32.35 -22.8 -32.4 -22.55 -32.5 -22.3 -32.4 -22.05 -32.55 -21.35 -32.3 -20.85 -32.4 -20.4 -32.25 -20.15 -32.3 -19.9 -32.3 -19.65 -32.3 -19.4 -32.25 -19.15 -32.25 -18.95 -32.25 -18.75 -32.1 -18.45 -32.1 -18.0 -31.95 -17.85 -31.85 -17.4 -31.9 -16.95 -31.8 -15.75 -31.3 -15.5 -31.35 -15.25 -31.35 -15.0 -31.35 -14.8 -31.35 -14.55 -31.25 -14.3 -31.3 -14.05 -31.25 -13.3 -31.4 -12.85 -31.2 -12.6 -31.25 -12.15 -31.05 -11.9 -31.05 -11.4 -30.95 -11.2 -31.05 -10.95 -31.0 -10.7 -31.0 -10.45 -31.05 -10.2 -31.1 -9.95 -31.1 -9.7 -31.15 -9.45 -31.2 -9.0 -31.25 -8.75 -31.2 -8.5 -31.25 -8.3 -31.35 -8.05 -31.3 -7.6 -31.55 -7.35 -31.55 -7.1 -31.6 -6.9 -31.75 -6.7 -31.85 -6.45 -31.85 -6.2 -31.85 -5.75 -32.0 -5.35 -32.35 -5.75 -32.0 -6.2 -31.85 -6.45 -31.8 -6.7 -31.85 -6.9 -31.7 -7.1 -31.6 -7.35 -31.55 -7.6 -31.55 -8.05 -31.3 -8.3 -31.35 -8.5 -31.2 -8.75 -31.2 -9.0 -31.25 -9.45 -31.2 -9.7 -31.1 -9.95 -31.05 -10.2 -31.1 -10.45 -31.05 -10.7 -30.95 -10.95 -31.0 -11.2 -31.0 -11.4 -30.9 -11.9 -31.05 -12.15 -31.05 -12.35 -31.15 -12.6 -31.2 -12.85 -31.2 -13.1 -31.25 -13.3 -31.4 -13.8 -31.25 -14.05 -31.2 -14.3 -31.25 -14.55 -31.2 -15.0 -31.35 -15.25 -31.3 -15.5 -31.35 -15.7 -31.3 -15.6 -31.25 -14.65 -31.2 -13.3 -30.65 -12.3 -30.45 -11.85 -30.25 -11.85 -30.25 -11.4 -30.3 -10.95 -30.05 -10.7 -30.0 -10.3 -29.7 -9.6 -29.5 -9.4 -29.3 -9.15 -29.35 -8.95 -29.2 -8.75 -29.1 -8.5 -29.15 -8.3 -29.1 -7.55 -28.95 -7.35 -28.75 -7.1 -28.8 -6.7 -28.5 -6.45 -28.45 -6.0 -28.2 -5.5 -28.1 -5.05 -27.9 -4.55 -27.85 -4.35 -27.75 -4.15 -27.6 -3.65 -27.65 -3.45 -27.45 -3.25 -27.35 -2.7 -27.35 -2.5 -27.2 -2.25 -27.2 -1.8 -27.1 -1.35 -26.9 -1.0 -26.55 -0.75 -26.5 -0.25 -26.55 0.0 -26.45 0.25 -26.45 0.45 -26.5 0.7 -26.55 1.15 -26.4 1.6 -26.7 2.1 -26.8 2.3 -26.9 2.55 -26.8 2.8 -26.85 3.2 -27.2 3.45 -27.15 3.7 -27.15 4.2 -27.05 4.45 -27.1 4.7 -27.15 4.9 -26.95 5.15 -27.0 5.35 -26.9 5.6 -26.85 5.85 -26.75 6.25 -26.45 6.45 -26.35 6.85 -26.05 7.1 -25.95 7.35 -25.95 7.6 -25.85 7.85 -25.8 8.05 -25.65 8.3 -25.65 8.55 -25.7 9.2 -25.45 9.45 -25.4 9.65 -25.3 9.9 -25.3 10.15 -25.2 10.65 -25.15 10.9 -25.2 11.15 -25.25 11.4 -25.3 11.6 -25.3 12.1 -25.25 12.35 -25.35 12.85 -25.25 13.1 -25.35 13.3 -25.35 13.55 -25.4 14.0 -25.05 14.25 -25.1 14.7 -25.1 14.95 -25.0 15.35 -24.75 15.6 -24.65 15.75 -24.45 16.25 -24.35 16.65 -24.05 17.4 -23.95 17.8 -23.75 18.25 -23.55 M16.6 -29.35 L17.35 -29.5 16.8 -29.35 16.6 -29.35 16.1 -29.15 15.85 -29.1 15.65 -29.1 15.4 -29.2 14.9 -29.25 14.5 -29.55 14.4 -29.8 14.55 -29.55 14.9 -29.25 15.4 -29.25 15.65 -29.1 15.9 -29.1 16.1 -29.15 16.6 -29.35 M18.5 -29.6 L18.75 -29.55 19.25 -29.75 19.25 -29.75 18.75 -29.55 18.5 -29.6 M18.25 -29.65 L18.05 -29.65 17.8 -29.6 17.65 -29.55 18.05 -29.65 18.25 -29.65 M21.45 -29.85 L21.2 -29.8 20.95 -29.8 20.7 -29.75 20.5 -29.65 20.25 -29.6 20.1 -29.6 20.25 -29.6 20.5 -29.65 20.7 -29.75 20.95 -29.8 21.2 -29.8 21.5 -29.85 21.7 -29.7 21.9 -29.6 22.15 -29.55 22.4 -29.6 23.1 -29.4 23.6 -29.6 23.85 -29.55 24.05 -29.6 24.3 -29.55 24.55 -29.65 24.8 -29.55 25.0 -29.65 25.25 -29.65 25.5 -29.55 25.75 -29.55 26.45 -29.3 26.7 -29.35 26.9 -29.3 27.15 -29.35 27.4 -29.35 27.85 -29.15 28.1 -29.15 28.35 -29.0 28.55 -28.95 28.8 -29.0 29.05 -29.0 29.3 -28.95 29.55 -28.95 29.3 -28.95 29.05 -29.0 28.8 -29.0 28.55 -28.95 28.1 -29.1 27.85 -29.15 27.65 -29.25 27.15 -29.35 26.9 -29.3 26.7 -29.35 26.45 -29.3 26.2 -29.4 25.95 -29.45 25.75 -29.55 25.5 -29.55 25.25 -29.65 25.0 -29.65 24.8 -29.55 24.55 -29.65 24.3 -29.55 24.05 -29.6 23.85 -29.55 23.6 -29.6 23.1 -29.4 22.6 -29.5 22.4 -29.6 22.15 -29.55 21.9 -29.55 21.65 -29.65 21.45 -29.85 M29.55 -28.95 L29.8 -28.95 30.0 -28.85 30.25 -28.85 30.0 -28.85 29.8 -28.95 29.55 -28.95 M4.8 -4.45 L4.7 -4.5 4.95 -4.3 4.8 -4.45 M3.0 -6.6 L2.95 -6.8 1.4 -7.55 -0.75 -9.65 -1.55 -10.2 -1.5 -9.3 -1.75 -8.35 -1.95 -7.9 -2.2 -7.5 -2.5 -6.55 -3.4 -5.45 -3.9 -5.3 -4.1 -5.1 -3.9 -4.9 -3.7 -4.4 -3.55 -3.5 -3.55 -3.0 -3.45 -2.5 -3.45 -2.05 -3.3 -1.55 -3.25 -1.05 -2.95 -0.7 -2.45 1.2 -2.6 1.65 -2.5 3.1 -2.35 3.55 -2.0 3.9 -1.75 4.3 -1.0 4.9 0.25 5.55 1.2 5.85 1.9 6.55 2.3 6.8 2.9 7.6 3.25 8.5 3.85 9.25 5.05 10.05 5.35 10.45 5.75 10.65 6.25 10.7 6.7 10.9 7.15 11.0 7.6 11.0 7.8 10.9 7.95 10.7 8.15 10.25 8.35 10.1 8.45 9.9 8.5 9.65 8.65 9.45 8.65 9.2 8.6 8.9 8.8 8.5 8.9 8.25 8.9 8.0 9.05 7.8 9.3 7.65 9.5 7.6 10.0 7.35 10.25 7.35 10.7 7.3 11.2 7.5 11.9 7.55 11.95 7.55 12.05 6.65 12.2 6.2 12.3 5.25 12.15 4.8 12.1 4.3 11.9 3.9 11.55 3.55 11.35 3.1 10.9 2.25 10.55 1.9 10.35 1.5 10.1 1.1 9.75 0.2 9.45 -0.2 8.75 -0.8 8.3 -0.95 7.95 -1.3 7.55 -1.55 6.9 -2.3 6.45 -2.5 6.05 -2.85 5.8 -3.25 5.1 -3.9 4.8 -4.3 4.45 -4.65 4.4 -4.75 3.6 -5.3 3.0 -6.1 3.0 -6.6 M1.65 -7.9 L2.0 -7.7 1.8 -7.95 1.6 -8.35 1.0 -9.1 -0.25 -9.85 -0.6 -10.2 -0.95 -10.55 -1.2 -10.95 -1.5 -11.3 -2.35 -11.75 -3.15 -12.35 -3.4 -12.75 -3.75 -13.05 -4.2 -13.25 -4.6 -13.6 -5.0 -13.8 -5.3 -14.15 -5.75 -14.4 -6.05 -14.75 -6.85 -15.3 -7.3 -15.4 -8.3 -15.35 -8.8 -15.25 -9.75 -15.45 -10.55 -15.9 -11.75 -15.9 -9.75 -15.0 -8.3 -13.8 -3.85 -12.1 -3.75 -12.1 -2.35 -11.5 -1.75 -10.8 -0.55 -10.0 1.65 -7.9 M4.2 -5.05 L4.1 -5.55 3.45 -6.6 3.0 -6.8 3.05 -6.6 3.1 -6.1 3.65 -5.35 4.35 -4.85 4.2 -5.05 M4.15 -5.6 L4.3 -5.1 4.55 -4.7 4.85 -4.5 5.45 -3.75 6.2 -3.15 6.15 -3.1 5.2 -3.95 5.55 -3.6 5.9 -3.3 6.15 -2.9 6.5 -2.6 6.95 -2.35 7.6 -1.65 8.0 -1.35 8.35 -1.0 8.8 -0.9 9.55 -0.25 9.85 0.15 10.15 1.05 10.45 1.45 10.65 1.9 10.95 2.2 11.45 3.05 11.65 3.5 12.0 3.85 12.2 4.3 12.25 4.75 12.35 5.25 12.25 6.2 12.1 6.65 12.0 7.5 12.15 7.45 12.4 7.45 13.1 7.35 13.35 7.2 13.8 7.3 14.4 7.8 14.6 7.9 14.9 7.9 15.1 8.05 15.55 8.25 15.7 8.4 16.45 8.45 16.7 8.45 17.15 8.7 17.4 8.7 17.65 8.65 17.9 8.7 18.1 8.6 18.35 8.75 18.6 8.8 18.85 8.8 19.05 8.7 19.3 8.8 19.8 8.85 20.0 8.65 20.2 8.45 20.6 8.3 21.05 8.0 21.25 8.0 21.7 7.75 21.95 7.75 22.2 7.8 22.45 7.8 22.7 7.9 22.5 7.55 22.05 7.3 21.75 6.9 21.5 6.5 21.35 6.1 19.55 4.5 16.65 3.25 14.45 0.9 13.2 0.4 13.3 0.55 13.6 0.9 13.9 1.3 14.25 1.6 14.85 2.4 15.2 2.7 15.15 2.75 14.8 2.45 14.2 1.65 13.85 1.35 13.6 0.9 13.25 0.55 13.15 0.35 11.6 -0.3 10.55 -1.45 8.75 -1.9 7.85 -2.25 8.8 -1.95 10.5 -1.5 9.25 -2.85 4.15 -6.25 3.6 -6.5 4.15 -5.6 M0.55 -10.05 L-0.3 -10.5 -0.5 -10.95 -0.75 -11.35 -0.85 -11.8 -1.15 -12.2 -1.85 -12.9 -1.95 -13.35 -2.4 -14.25 -2.7 -14.6 -2.85 -15.1 -2.7 -15.55 -2.7 -16.05 -2.8 -16.55 -2.65 -17.0 -2.7 -17.45 -2.85 -17.9 -2.95 -18.4 -3.15 -18.8 -3.75 -19.6 -3.8 -20.05 -4.05 -20.5 -4.4 -20.85 -4.4 -21.8 -4.55 -22.3 -4.85 -22.65 -5.35 -23.5 -6.85 -24.7 -7.3 -24.9 -7.9 -25.7 -8.1 -26.65 -8.35 -27.0 -8.7 -27.3 -9.15 -27.55 -9.85 -28.2 -10.15 -28.6 -11.0 -29.05 -11.35 -29.4 -11.9 -30.15 -12.35 -30.35 -14.65 -31.1 -15.65 -31.15 -16.25 -31.3 -16.5 -31.25 -16.75 -31.3 -16.95 -31.4 -17.2 -31.4 -17.45 -31.45 -17.65 -31.6 -17.75 -31.75 -18.35 -31.65 -20.15 -30.95 -20.65 -30.95 -21.05 -30.65 -21.75 -30.0 -22.15 -29.7 -23.05 -29.45 -23.45 -29.1 -23.85 -28.9 -24.2 -28.55 -24.65 -28.3 -25.2 -27.5 -25.65 -27.2 -26.1 -27.05 -26.5 -26.75 -27.8 -26.25 -28.4 -25.5 -28.5 -25.2 -27.45 -24.85 -27.2 -24.9 -25.55 -24.0 -22.35 -21.55 -19.95 -20.35 -18.1 -19.85 -12.1 -16.1 -10.55 -16.05 -9.65 -15.6 -8.75 -15.4 -8.3 -15.5 -7.3 -15.55 -6.8 -15.45 -6.0 -14.9 -5.65 -14.5 -5.25 -14.25 -4.95 -13.9 -4.5 -13.7 -4.1 -13.4 -3.7 -13.2 -3.3 -12.85 -3.05 -12.45 -2.3 -11.85 -1.45 -11.4 -1.1 -11.05 -0.85 -10.6 -0.5 -10.25 -0.15 -9.95 1.1 -9.2 1.7 -8.45 1.9 -8.0 2.2 -7.65 2.4 -7.5 2.7 -7.35 2.65 -7.5 2.25 -8.4 2.0 -8.8 1.2 -9.35 0.95 -9.7 0.55 -10.05 M11.85 -0.6 L12.5 -0.35 12.3 -0.5 11.9 -0.7 11.55 -0.95 11.85 -0.6 M34.75 -26.1 L34.95 -26.05 35.25 -26.05 34.95 -26.05 34.75 -26.1 34.75 -26.1 M33.65 -26.75 L33.9 -26.65 34.1 -26.45 33.65 -26.75 M37.55 -24.9 L37.8 -24.9 37.95 -24.65 37.8 -24.85 37.55 -24.9 M36.55 -25.55 L36.8 -25.55 37.2 -25.25 36.8 -25.55 36.55 -25.55 36.35 -25.65 36.35 -25.65 36.55 -25.55 M22.65 -4.05 L22.55 -4.3 22.5 -4.5 22.65 -4.05 22.85 -3.9 23.05 -3.8 23.15 -3.55 23.45 -3.15 23.7 -3.05 23.9 -2.9 24.05 -2.7 24.3 -2.65 24.5 -2.55 24.85 -2.2 25.15 -1.8 25.3 -1.6 25.5 -1.5 25.65 -1.3 26.1 -1.1 26.35 -0.65 26.75 -0.4 26.85 -0.15 27.45 0.25 27.6 0.45 28.1 0.65 28.3 0.8 28.45 1.0 28.65 1.1 29.65 1.35 29.8 1.55 29.95 1.55 29.8 1.55 29.65 1.35 28.65 1.1 28.45 1.0 28.25 0.8 28.1 0.65 27.6 0.45 27.45 0.3 26.85 -0.15 26.75 -0.35 26.35 -0.65 26.1 -1.1 25.85 -1.15 25.65 -1.3 25.5 -1.45 25.1 -1.75 24.85 -2.2 24.3 -2.65 24.05 -2.7 23.9 -2.9 23.7 -3.05 23.45 -3.15 23.15 -3.55 23.05 -3.8 Q22.95 -3.85 22.85 -3.9 L22.65 -4.05 M22.8 -18.5 L22.85 -18.25 22.75 -18.45 22.4 -18.8 22.25 -19.0 22.2 -19.25 22.25 -19.0 22.4 -18.8 22.8 -18.5 M24.5 -16.45 L24.35 -16.65 24.15 -16.85 23.9 -16.9 23.7 -17.05 23.3 -17.65 22.9 -18.0 22.85 -18.2 22.9 -18.0 23.3 -17.7 23.45 -17.5 23.7 -17.05 23.9 -16.9 24.15 -16.85 24.35 -16.7 24.5 -16.45 24.65 -16.25 24.8 -16.1 24.95 -15.9 25.1 -15.7 25.75 -15.35 26.0 -15.35 26.2 -15.15 26.9 -14.9 27.05 -14.7 27.7 -14.45 28.0 -14.5 28.15 -14.35 28.65 -14.25 28.9 -14.15 29.1 -14.15 29.35 -14.3 29.6 -14.35 29.8 -14.4 30.0 -14.55 30.25 -14.5 30.5 -14.65 30.7 -14.75 30.7 -14.7 30.5 -14.65 30.25 -14.5 30.0 -14.5 29.8 -14.4 29.6 -14.3 29.35 -14.3 29.15 -14.15 28.9 -14.1 28.65 -14.2 28.15 -14.3 27.95 -14.5 27.7 -14.45 27.45 -14.45 27.05 -14.7 26.85 -14.9 26.2 -15.15 26.0 -15.3 25.75 -15.35 25.1 -15.7 24.95 -15.9 24.8 -16.1 24.6 -16.25 24.5 -16.45 M35.25 -26.05 L35.25 -26.05 35.5 -25.8 35.25 -26.05 M38.75 -24.1 L38.9 -23.9 38.75 -24.1 38.5 -24.2 38.3 -24.35 38.15 -24.55 38.3 -24.35 38.5 -24.2 38.75 -24.1 M36.35 -25.65 L36.1 -25.6 35.85 -25.7 35.85 -25.7 36.1 -25.65 36.35 -25.65 M38.9 -23.9 L39.15 -23.5 39.15 -23.45 39.0 -23.65 38.9 -23.9 M96.8 -1.85 L96.55 -1.55 96.8 -1.85 97.0 -2.0 96.8 -1.85 M94.85 -0.45 L94.75 -0.2 94.6 -0.05 94.55 0.15 94.6 0.4 94.55 0.9 94.5 1.15 94.35 1.35 94.2 1.5 94.05 1.7 93.95 1.95 93.75 2.05 93.6 2.25 93.35 2.3 93.1 2.45 92.85 2.5 92.75 2.75 92.5 3.15 92.25 3.2 92.0 3.35 91.8 3.45 91.7 3.65 91.55 3.9 91.25 4.25 91.15 4.5 90.95 4.65 90.75 4.8 90.65 5.05 90.15 5.15 90.0 5.35 89.75 5.45 89.5 5.5 89.25 5.55 89.1 5.75 88.95 5.95 89.1 5.75 89.25 5.55 89.5 5.5 89.75 5.45 90.0 5.35 90.15 5.15 90.65 5.0 90.75 4.8 90.95 4.65 91.1 4.45 91.2 4.25 91.55 3.9 91.65 3.65 91.8 3.45 92.0 3.35 92.25 3.2 92.5 3.15 92.85 2.5 93.1 2.45 93.3 2.3 93.6 2.25 93.75 2.05 93.95 1.95 94.05 1.7 94.2 1.5 94.35 1.35 94.45 1.1 94.55 0.9 94.6 0.4 94.55 0.15 94.6 -0.05 94.75 -0.25 94.85 -0.5 95.05 -0.65 95.25 -0.75 95.35 -1.0 95.6 -1.05 95.8 -1.2 96.05 -1.3 96.2 -1.45 96.45 -1.45 96.2 -1.45 96.05 -1.3 95.8 -1.2 95.6 -1.05 95.4 -1.0 95.25 -0.75 95.05 -0.6 94.85 -0.45 M91.85 -3.55 L91.7 -3.35 91.5 -3.25 91.3 -3.05 91.1 -2.95 90.9 -2.75 90.7 -2.65 90.45 -2.6 90.2 -2.55 90.0 -2.45 89.85 -2.3 89.6 -2.15 89.8 -2.3 90.0 -2.45 90.2 -2.6 90.45 -2.6 90.7 -2.65 90.9 -2.8 91.1 -2.95 91.3 -3.05 91.45 -3.25 91.85 -3.55 92.05 -3.7 92.25 -3.8 92.5 -3.85 92.8 -4.05 92.5 -3.85 92.25 -3.8 92.05 -3.7 91.85 -3.55 M95.35 -5.15 L95.55 -5.25 95.75 -5.4 96.0 -5.45 96.15 -5.6 96.45 -5.6 96.9 -5.75 97.15 -5.85 97.6 -5.9 97.85 -6.0 98.55 -5.75 98.8 -5.9 99.05 -5.85 99.3 -5.95 99.7 -5.9 99.8 -5.95 99.9 -6.2 100.4 -6.3 100.6 -6.4 101.05 -6.65 100.65 -6.4 100.4 -6.3 99.9 -6.2 99.8 -5.95 99.7 -5.9 100.0 -5.8 100.5 -6.0 100.75 -6.0 100.75 -6.0 100.5 -5.95 100.0 -5.8 99.7 -5.85 99.6 -5.8 99.35 -5.75 99.15 -5.6 99.2 -5.35 99.15 -5.15 99.15 -5.65 99.35 -5.75 99.6 -5.8 99.65 -5.85 99.3 -5.95 99.05 -5.85 98.8 -5.85 98.55 -5.75 97.85 -5.95 97.6 -5.85 97.15 -5.85 96.9 -5.7 96.45 -5.6 96.15 -5.6 96.0 -5.4 95.75 -5.35 95.55 -5.25 95.35 -5.1 95.1 -5.05 94.95 -4.85 94.7 -4.85 94.45 -4.7 93.95 -4.75 93.75 -4.55 93.3 -4.45 93.15 -4.25 92.95 -4.15 93.1 -4.25 93.3 -4.45 93.75 -4.6 93.95 -4.75 94.45 -4.7 94.65 -4.85 94.95 -4.85 95.1 -5.05 95.35 -5.15 M88.95 -1.9 L88.75 -1.75 88.95 -1.9 89.4 -2.05 89.6 -2.15 89.4 -2.05 88.95 -1.9 M111.2 -9.95 L111.05 -9.9 110.65 -9.6 110.4 -9.55 109.95 -9.4 109.7 -9.45 109.35 -9.3 109.7 -9.45 109.95 -9.4 110.4 -9.6 110.65 -9.6 111.0 -9.9 111.2 -9.95 M111.65 -10.25 L111.5 -10.05 111.35 -10.0 111.5 -10.05 111.65 -10.25 111.8 -10.45 112.05 -10.5 112.25 -10.65 112.4 -10.85 112.65 -10.95 112.85 -11.1 113.1 -11.15 113.65 -11.2 113.8 -11.4 114.05 -11.45 114.25 -11.6 114.5 -11.6 114.7 -11.7 114.9 -11.85 115.4 -11.95 115.55 -12.15 115.8 -12.25 116.0 -12.45 116.25 -12.4 116.0 -12.4 115.8 -12.25 115.55 -12.15 115.4 -11.95 114.9 -11.85 114.7 -11.65 114.5 -11.6 114.5 -11.6 114.25 -11.6 114.05 -11.45 113.8 -11.35 113.65 -11.2 113.1 -11.15 112.85 -11.1 112.65 -10.95 112.4 -10.85 112.25 -10.65 112.1 -10.5 111.8 -10.45 111.65 -10.25 M102.65 -7.05 L102.85 -7.1 102.65 -7.05 102.25 -6.75 102.45 -6.9 102.65 -7.05 M102.85 -6.3 L102.6 -6.25 102.85 -6.3 103.05 -6.4 103.45 -6.7 103.05 -6.4 102.85 -6.3 M104.0 -7.6 L103.75 -7.5 103.55 -7.35 103.35 -7.25 103.55 -7.35 103.75 -7.5 104.0 -7.6 104.2 -7.65 104.4 -7.8 104.55 -8.05 104.8 -8.05 104.55 -8.05 104.4 -7.8 104.2 -7.65 104.0 -7.6 M102.25 -6.75 L102.0 -6.8 101.75 -6.75 102.0 -6.8 102.25 -6.75 M98.95 -4.45 L99.2 -4.9 99.15 -5.15 99.2 -4.9 98.95 -4.45 98.9 -4.2 98.85 -4.05 98.9 -4.2 98.95 -4.45 M105.25 -7.4 L105.0 -7.35 104.85 -7.15 104.55 -7.15 104.35 -7.05 103.95 -6.8 103.9 -6.8 104.3 -7.1 104.55 -7.15 104.8 -7.15 105.0 -7.35 105.25 -7.4 105.45 -7.55 105.65 -7.65 105.45 -7.55 105.25 -7.4 M102.15 -6.1 L101.9 -6.0 101.45 -5.95 101.2 -5.85 101.2 -5.85 101.45 -6.0 101.9 -6.0 102.15 -6.1 102.4 -6.1 102.6 -6.25 102.4 -6.1 102.15 -6.1 M98.35 -3.5 L98.25 -3.25 98.0 -3.15 98.25 -3.25 98.35 -3.5 98.55 -3.6 98.75 -3.75 98.6 -3.55 98.35 -3.5 M97.65 -2.65 L97.85 -3.0 98.0 -3.15 97.85 -3.0 97.65 -2.65 M56.05 26.8 L56.05 26.8 56.15 27.0 56.4 27.3 56.35 27.2 56.15 27.0 56.05 26.8 M52.8 24.4 L52.95 24.6 53.4 24.8 54.05 25.15 54.3 25.15 54.45 25.4 54.95 25.5 55.1 25.75 55.3 25.85 55.45 26.05 55.75 26.3 55.7 26.15 55.55 25.95 55.3 25.55 55.2 25.3 55.2 25.05 55.25 24.8 55.2 24.6 54.8 24.0 54.6 23.55 54.5 23.6 54.2 23.6 54.0 23.75 53.75 23.7 53.5 23.75 53.25 23.8 52.55 23.85 52.3 23.9 52.05 23.75 51.8 23.75 51.6 23.6 51.35 23.65 50.9 23.4 51.5 23.85 52.2 24.0 52.4 24.2 52.65 24.25 52.8 24.4 M54.05 23.1 L53.7 22.75 52.8 22.35 52.35 22.25 51.5 21.8 50.5 21.65 50.1 21.45 48.75 21.15 48.8 21.3 48.75 21.55 48.9 21.8 49.1 21.95 49.15 22.15 49.35 22.3 49.45 22.6 50.05 22.95 50.3 23.0 50.8 23.35 50.9 23.35 51.35 23.6 51.65 23.55 51.85 23.7 52.05 23.7 52.3 23.85 53.25 23.75 53.5 23.7 53.75 23.65 54.0 23.7 54.2 23.55 54.45 23.55 54.6 23.55 54.45 23.3 54.05 23.1 M54.6 23.4 L54.65 23.5 54.7 23.5 54.75 23.5 54.6 23.4 M57.35 28.8 L57.4 28.85 57.4 28.8 57.25 28.65 57.35 28.8 M57.05 28.25 L57.0 28.2 56.8 27.75 56.5 27.45 56.5 27.6 56.7 27.8 56.75 28.05 57.05 28.25 M36.85 34.3 L36.6 34.5 36.55 34.75 36.4 34.95 36.35 35.2 36.2 35.4 36.2 35.65 36.3 35.9 36.3 36.15 36.25 36.4 36.35 36.9 36.35 37.1 36.25 37.35 36.25 37.6 36.35 38.1 36.4 38.35 36.45 38.6 36.35 39.3 36.45 39.55 36.55 40.0 36.4 40.5 36.3 40.75 36.35 41.0 36.35 41.25 36.45 41.45 36.5 41.95 36.7 42.15 36.75 42.35 36.95 42.55 37.1 42.75 37.15 43.0 37.35 43.2 37.35 43.45 37.45 43.65 37.6 43.85 37.65 44.1 37.85 44.25 38.0 44.45 38.2 44.55 38.4 44.7 38.55 44.9 38.6 45.15 38.75 45.35 39.05 46.0 39.2 46.2 39.35 46.4 39.5 46.6 39.6 46.85 39.65 47.05 40.05 47.45 40.1 47.65 40.1 47.95 40.4 48.1 41.1 47.95 41.35 48.0 41.45 48.0 41.25 47.55 41.2 47.1 40.95 46.65 41.05 46.2 40.9 45.75 41.0 45.25 40.6 44.35 40.3 43.95 40.3 43.45 39.7 42.65 39.6 42.2 39.15 41.35 39.45 40.45 39.5 39.95 39.45 39.5 39.3 39.05 39.2 38.6 38.35 37.4 38.0 36.5 37.7 35.55 37.1 34.8 36.85 34.3 M33.0 22.15 L32.5 21.95 32.35 21.75 32.15 21.3 32.0 21.1 31.9 20.9 31.7 20.75 30.85 20.2 30.8 19.95 30.6 19.8 30.5 19.55 30.5 19.3 30.3 19.1 30.25 19.05 30.3 19.2 30.2 19.45 30.2 19.95 30.3 20.7 30.25 20.95 30.1 21.15 30.0 21.35 29.85 21.55 29.85 21.85 29.8 22.05 29.7 22.25 29.65 22.55 29.45 22.9 29.5 22.95 29.7 23.35 29.75 23.85 30.2 25.25 30.6 25.55 30.8 26.0 31.35 26.75 31.45 27.25 31.85 28.1 32.1 28.5 32.6 28.65 33.0 28.9 33.35 29.25 33.85 30.1 34.5 30.8 34.75 31.2 35.15 32.1 35.4 32.5 35.8 32.75 36.15 33.1 36.4 33.55 36.7 33.9 36.85 34.2 36.95 34.1 36.9 33.85 37.1 33.65 37.1 33.4 37.2 33.2 37.4 32.75 37.35 32.5 37.35 32.25 37.25 32.05 37.15 31.85 36.8 31.4 36.75 31.2 36.75 30.9 36.6 30.7 36.65 30.45 36.3 30.05 36.2 29.85 36.2 29.6 35.95 29.15 35.75 29.0 35.65 28.5 35.55 28.3 35.35 28.15 35.25 27.9 35.0 27.8 34.9 27.55 34.85 27.3 34.8 27.1 34.6 26.9 34.6 26.65 34.5 26.4 34.35 26.2 34.25 26.0 34.1 25.8 34.0 25.55 34.0 25.3 33.85 24.85 33.9 24.6 33.75 24.1 33.6 23.9 33.45 23.7 33.45 23.45 33.35 23.2 33.4 23.0 33.35 22.75 33.3 22.5 33.0 22.15 M46.8 21.5 L46.95 21.65 47.4 21.85 47.55 22.05 47.8 22.1 48.25 22.35 48.5 22.4 48.65 22.6 49.05 22.85 49.3 22.95 49.55 22.95 49.95 23.2 50.2 23.2 50.4 23.35 50.7 23.35 50.65 23.35 50.25 23.05 50.0 23.0 49.4 22.65 49.3 22.35 49.1 22.2 49.0 21.95 48.8 21.8 48.7 21.55 48.75 21.3 48.7 21.15 47.85 20.7 46.0 20.4 46.1 20.5 46.2 20.75 46.4 20.85 46.6 21.0 46.8 21.5 M40.25 17.5 L40.05 17.6 39.9 17.8 39.8 17.9 40.6 18.2 41.1 18.3 41.5 18.55 42.4 18.8 44.2 19.45 45.5 20.15 45.75 20.2 45.7 20.2 45.55 19.95 45.3 19.9 45.15 19.75 45.0 19.55 44.7 19.15 44.65 18.9 44.5 18.7 44.2 18.35 43.95 18.25 43.75 18.1 43.5 18.05 43.35 17.85 43.1 17.8 42.9 17.65 42.7 17.6 42.45 17.65 42.2 17.6 41.95 17.65 41.7 17.65 41.45 17.7 41.2 17.65 41.0 17.65 40.75 17.55 40.5 17.55 40.25 17.5 M36.25 4.4 L36.4 4.6 36.55 4.8 36.6 5.05 36.85 5.15 37.0 5.35 37.15 5.55 37.0 5.35 36.85 5.15 36.6 5.05 36.55 4.8 36.4 4.6 36.25 4.4 M34.1 2.9 L34.35 3.0 34.55 3.15 34.8 3.2 34.9 3.4 35.15 3.5 35.3 3.7 35.9 4.1 36.0 4.35 36.0 4.35 35.85 4.15 35.7 3.95 35.3 3.7 35.15 3.5 34.9 3.45 34.8 3.2 34.55 3.15 34.35 3.0 34.1 2.9 33.85 2.85 33.65 2.75 33.4 2.75 33.65 2.75 34.1 2.9 M32.85 2.3 L32.7 2.1 32.85 2.3 33.4 2.75 32.85 2.3 M49.7 17.3 L48.85 16.9 47.85 16.95 47.4 16.8 46.4 16.8 45.95 16.6 45.0 16.5 43.6 16.2 42.75 15.8 42.25 15.85 41.8 15.65 41.35 15.65 40.9 15.85 40.4 15.9 38.95 16.0 38.0 15.95 37.5 15.8 35.6 16.05 35.15 16.25 34.65 16.25 33.2 15.95 32.85 15.65 32.55 15.2 32.45 15.15 32.55 15.4 32.85 15.75 33.3 16.0 34.2 16.35 34.65 16.35 35.1 16.55 35.55 16.65 37.4 17.15 37.85 17.35 38.35 17.4 38.8 17.55 39.25 17.6 39.7 17.85 40.0 17.5 40.2 17.4 40.5 17.45 40.7 17.45 40.95 17.55 41.2 17.55 41.45 17.65 41.7 17.55 41.95 17.6 42.2 17.5 42.4 17.55 42.65 17.5 42.9 17.55 43.15 17.75 43.35 17.8 43.55 18.0 43.8 18.05 44.0 18.2 44.25 18.3 44.55 18.65 44.7 18.85 44.75 19.1 45.1 19.5 45.2 19.7 45.35 19.85 45.6 19.9 45.75 20.15 45.85 20.25 45.95 20.3 47.85 20.6 48.75 21.05 50.1 21.35 51.05 21.7 51.5 21.7 52.4 22.15 53.3 22.45 53.7 22.7 54.35 23.15 53.6 21.9 53.45 21.45 53.2 21.0 53.05 20.55 52.85 20.1 52.5 19.75 52.4 19.25 52.1 18.9 49.7 17.3 M49.25 9.85 L49.5 9.85 49.75 10.0 50.0 10.0 50.2 10.0 50.45 10.1 50.7 10.1 50.95 10.0 51.15 10.1 51.4 10.1 51.9 10.25 52.05 10.45 52.2 10.65 52.05 10.45 51.9 10.3 51.4 10.1 51.15 10.1 50.95 10.0 50.7 10.1 50.45 10.1 50.2 10.0 50.0 10.0 49.75 10.0 49.5 9.9 49.25 9.85 49.05 9.95 48.8 9.95 48.05 9.95 47.8 10.0 47.6 10.15 47.1 10.25 46.85 10.2 46.6 10.3 46.1 10.3 45.35 10.2 45.15 10.35 44.9 10.35 44.65 10.45 44.2 10.65 43.95 10.55 43.75 10.7 43.25 10.7 43.05 10.55 42.8 10.65 42.55 10.65 42.3 10.7 42.05 10.6 41.8 10.65 41.6 10.6 41.1 10.6 40.85 10.7 40.6 10.65 40.4 10.55 40.15 10.65 39.9 10.55 39.4 10.45 39.2 10.35 38.95 10.35 38.75 10.25 38.5 10.3 38.25 10.2 38.05 10.25 37.55 10.15 37.3 10.2 37.1 10.1 36.85 10.05 37.1 10.05 37.3 10.2 37.55 10.1 37.8 10.2 38.05 10.25 38.25 10.2 38.5 10.3 38.75 10.2 38.95 10.35 39.25 10.3 39.45 10.45 39.9 10.5 40.15 10.6 40.4 10.5 40.6 10.6 40.85 10.65 41.1 10.6 41.6 10.6 41.85 10.65 42.1 10.6 42.3 10.7 42.55 10.65 42.8 10.65 43.05 10.55 43.25 10.65 43.75 10.7 43.95 10.55 44.2 10.65 44.65 10.45 44.9 10.35 45.15 10.35 45.35 10.2 46.1 10.3 46.35 10.25 46.6 10.3 46.85 10.2 47.1 10.25 47.6 10.15 47.8 10.0 48.05 9.95 48.8 9.9 49.05 9.95 49.25 9.85 M74.6 59.65 L74.45 59.55 74.25 59.4 74.6 59.65 M75.5 60.6 L75.35 60.4 75.3 60.15 75.3 60.15 75.35 60.4 75.5 60.6 75.7 60.75 75.95 61.2 76.0 61.4 76.1 61.65 76.3 61.8 76.75 62.0 76.95 62.2 76.95 62.2 76.75 62.05 76.1 61.65 76.0 61.45 75.9 61.2 75.7 60.75 75.5 60.6 M78.05 63.05 L78.05 63.1 77.9 62.9 77.75 62.7 77.6 62.55 77.6 62.5 77.75 62.7 77.9 62.9 78.05 63.05 M71.3 57.85 L71.8 57.95 71.95 58.15 72.15 58.3 72.35 58.4 72.6 58.45 72.9 58.85 73.55 59.25 73.75 59.25 73.55 59.25 72.9 58.85 72.6 58.45 72.35 58.45 71.95 58.15 71.8 57.95 71.3 57.85 M70.75 57.4 L70.5 57.35 70.3 57.2 70.05 57.15 69.8 57.15 69.6 57.0 69.35 57.05 69.1 57.05 68.95 56.9 69.1 57.05 69.35 57.05 69.6 57.0 69.8 57.15 70.05 57.1 70.3 57.2 70.5 57.35 70.75 57.4 70.9 57.55 71.1 57.75 71.05 57.75 70.9 57.55 70.75 57.4 M65.25 53.15 L65.25 52.9 65.15 52.5 65.25 52.9 65.25 53.15 65.45 53.35 65.45 53.6 65.8 54.0 65.8 54.25 65.95 54.45 66.25 54.85 66.85 55.3 67.0 55.45 67.1 55.7 67.3 55.85 67.45 56.0 67.7 56.1 68.2 56.2 68.55 56.5 68.75 56.7 68.55 56.5 68.2 56.2 67.7 56.1 67.45 56.0 67.3 55.85 67.1 55.7 67.0 55.45 66.85 55.3 66.25 54.85 65.95 54.45 65.8 54.25 65.8 54.0 65.45 53.6 65.4 53.35 65.25 53.15 M65.05 52.2 L64.9 52.0 64.95 51.8 64.9 52.0 65.05 52.2 65.1 52.4 65.05 52.2 M82.15 40.75 L82.4 40.65 82.15 40.75 81.65 40.8 81.45 40.95 81.2 40.95 81.05 41.15 80.8 41.15 80.55 41.25 80.4 41.45 80.2 41.6 80.05 41.75 79.8 41.85 79.55 41.9 79.35 42.1 79.15 42.25 78.4 42.1 78.2 42.2 77.95 42.2 77.7 42.15 77.45 42.05 77.25 42.05 76.75 42.2 76.25 42.0 76.0 42.05 75.75 42.05 75.5 42.1 75.3 42.2 75.05 42.25 75.05 42.25 75.3 42.2 75.5 42.1 75.75 42.0 76.0 42.0 76.25 42.0 76.75 42.2 77.25 42.0 77.7 42.15 77.95 42.2 78.2 42.2 78.4 42.05 79.15 42.2 79.35 42.05 79.55 41.85 79.8 41.85 80.0 41.75 80.2 41.55 80.35 41.4 80.55 41.2 80.75 41.15 81.05 41.15 81.2 40.95 81.45 40.9 81.65 40.75 82.15 40.75 M85.75 39.45 L85.5 39.5 85.3 39.7 85.05 39.7 84.85 39.85 84.6 39.85 84.35 39.8 84.15 39.9 83.95 40.1 83.75 40.15 83.5 40.15 82.95 40.4 83.5 40.15 83.7 40.15 83.95 40.1 84.15 39.9 84.35 39.8 84.6 39.85 84.85 39.8 85.05 39.65 85.3 39.65 85.5 39.5 85.75 39.45 86.15 39.2 86.4 39.15 86.6 39.05 86.9 39.1 87.1 39.05 87.6 39.25 87.85 39.2 87.85 39.25 87.6 39.25 87.1 39.1 86.9 39.1 86.6 39.05 86.4 39.15 86.15 39.2 85.75 39.45 M73.95 18.3 L74.15 18.4 74.35 18.6 74.55 18.65 74.75 18.8 74.9 19.0 75.15 19.05 75.35 19.2 75.9 19.75 76.15 19.75 76.35 19.9 76.6 19.85 77.05 19.95 77.3 19.9 77.55 19.9 77.8 19.8 78.05 19.9 78.25 19.8 78.5 19.85 79.45 19.45 79.65 19.55 79.65 19.6 79.45 19.45 78.5 19.85 78.3 19.85 78.05 19.95 77.8 19.85 77.55 19.95 77.3 19.9 77.05 19.95 76.6 19.9 76.35 19.95 76.15 19.75 75.9 19.75 75.15 19.1 74.9 19.05 74.75 18.85 74.55 18.7 74.3 18.6 74.15 18.4 73.95 18.3 73.7 18.25 73.5 18.05 73.25 18.05 73.05 17.95 72.9 17.95 73.05 17.95 73.25 18.05 73.5 18.05 73.7 18.25 73.95 18.3 M67.6 17.1 L67.2 17.25 66.85 17.55 66.5 17.9 64.7 18.6 64.25 18.7 63.85 19.6 63.55 20.0 62.9 20.7 62.5 21.0 62.2 21.35 61.0 22.2 60.15 23.4 59.7 23.6 58.25 23.8 57.3 23.65 55.35 23.7 54.9 23.6 54.8 23.5 54.7 23.55 54.85 23.95 55.15 24.3 55.65 25.15 56.05 25.45 56.35 25.8 56.7 26.1 58.1 26.4 58.55 26.25 59.05 26.15 59.5 26.0 59.9 25.75 60.9 24.7 61.7 24.15 62.0 23.8 62.8 23.2 63.25 23.05 65.15 20.85 65.3 20.4 65.6 20.0 66.0 19.75 67.0 18.7 68.4 18.3 68.6 18.15 68.8 18.05 69.05 18.05 69.4 17.65 69.9 17.6 70.15 17.65 70.6 17.45 70.8 17.45 70.7 17.4 70.45 17.5 70.0 17.4 69.75 17.45 69.5 17.45 69.25 17.35 69.05 17.4 68.8 17.3 68.55 17.35 68.05 17.25 67.85 17.15 67.6 17.1 M88.95 6.0 L88.8 6.15 88.55 6.2 88.35 6.35 88.1 6.4 87.9 6.55 87.75 6.75 87.5 6.8 86.8 7.45 86.5 7.85 86.25 7.95 85.95 8.3 86.1 8.1 86.25 7.95 86.5 7.85 86.8 7.45 87.5 6.8 87.75 6.75 87.9 6.5 88.1 6.35 88.35 6.35 88.55 6.2 88.8 6.15 88.95 6.0 M116.65 -12.6 L116.45 -12.6 116.65 -12.6 116.65 -12.6 M106.3 -7.9 L106.1 -7.75 105.85 -7.75 106.1 -7.8 106.3 -7.95 106.55 -8.0 106.75 -8.1 107.0 -8.25 107.2 -8.3 107.0 -8.25 106.75 -8.1 106.55 -8.0 106.3 -7.9 M105.6 -8.05 L105.75 -8.1 105.6 -8.05 105.6 -8.05 M106.05 -8.1 L106.05 -8.1 106.05 -8.1 M108.3 -8.9 L108.05 -8.85 107.85 -8.7 107.65 -8.6 107.3 -8.35 107.65 -8.6 107.85 -8.7 108.05 -8.85 108.3 -8.9 M109.0 -9.1 L108.5 -8.95 109.0 -9.1 109.2 -9.25 109.0 -9.1 M97.55 -2.55 L97.4 -2.35 97.2 -2.2 97.4 -2.35 97.55 -2.55 M32.7 2.1 L32.2 2.0 31.9 2.0 31.5 1.7 31.3 1.65 31.05 1.5 30.6 1.4 30.35 1.5 30.15 1.5 30.6 1.4 31.05 1.5 31.3 1.65 31.5 1.7 31.95 2.0 32.2 1.95 32.7 2.1 M54.45 52.55 L54.3 52.4 54.05 52.3 53.95 52.05 53.95 52.05 54.05 52.3 54.3 52.4 54.45 52.55 54.85 52.85 55.1 52.9 55.25 53.15 55.6 53.5 55.85 53.55 56.0 53.7 56.0 53.7 55.85 53.55 55.6 53.5 55.25 53.15 55.1 52.95 54.85 52.85 54.45 52.55 M53.05 51.65 L53.05 51.65 52.95 51.4 53.05 51.65 M53.65 51.85 L53.5 51.8 53.65 51.85 M15.0 49.5 L15.0 50.0 14.85 50.2 14.7 50.65 14.75 50.4 14.8 50.2 15.0 50.0 15.0 49.5 14.95 49.25 15.1 48.75 15.0 48.55 15.05 48.35 15.0 48.55 15.1 48.75 14.95 49.25 15.0 49.5 M15.1 47.8 L15.15 48.05 15.1 48.2 15.15 48.05 15.1 47.8 14.95 47.6 15.1 47.8 M14.8 47.15 L14.95 47.35 14.95 47.35 14.8 47.15 14.75 46.9 14.8 47.15 M31.75 50.45 L31.65 50.3 31.75 50.45 31.65 50.95 31.55 51.15 31.55 51.4 31.45 51.65 31.45 51.9 31.55 52.15 31.75 52.25 31.9 52.5 31.95 52.7 31.95 53.0 32.1 53.15 32.2 53.35 32.3 53.85 32.4 54.05 32.35 54.35 32.45 54.55 32.6 54.75 33.05 55.0 33.2 55.15 33.45 55.25 33.85 55.6 33.95 55.8 34.1 56.0 34.5 56.3 34.5 56.55 34.6 56.8 34.8 56.95 35.05 57.05 35.25 57.2 35.5 57.55 35.25 57.2 35.05 57.05 34.8 56.95 34.6 56.8 34.5 56.55 34.45 56.3 34.3 56.15 34.05 56.0 33.95 55.8 33.8 55.6 33.45 55.3 33.2 55.2 33.0 55.0 32.6 54.75 32.45 54.55 32.35 54.35 32.35 54.05 32.25 53.85 32.2 53.35 32.1 53.15 31.9 53.0 31.95 52.75 31.9 52.5 31.75 52.3 31.55 52.15 31.45 51.9 31.4 51.65 31.55 51.4 31.55 51.15 31.65 50.95 31.75 50.45 M23.8 44.15 L24.0 44.3 24.1 44.55 24.2 44.75 24.1 44.55 24.0 44.3 23.8 44.15 M23.4 43.85 L23.3 43.65 23.25 43.4 23.3 43.65 23.45 43.85 23.4 43.85 M31.9 47.5 L31.9 47.7 31.8 47.95 31.55 48.35 31.45 48.6 31.55 48.85 31.6 49.1 31.6 49.3 31.45 49.5 31.5 49.8 31.45 50.0 31.5 50.15 31.45 50.0 31.45 49.75 31.4 49.5 31.55 49.3 31.6 49.1 31.55 48.85 31.45 48.6 31.5 48.35 31.8 47.95 31.9 47.7 31.9 47.5 32.05 47.25 32.25 46.6 32.05 47.25 31.9 47.5 M24.35 45.45 L24.35 45.5 24.25 45.25 24.2 44.75 24.3 45.25 24.35 45.45 M32.4 42.5 L32.2 42.45 32.25 42.6 32.6 42.85 32.4 42.5 32.65 42.9 32.85 43.05 32.95 43.1 32.95 42.6 32.9 42.35 32.7 42.15 32.55 41.95 32.4 41.8 31.95 41.6 31.85 41.5 31.9 41.65 32.05 41.85 32.05 42.2 32.15 42.35 32.2 42.4 32.4 42.5 M31.75 41.5 L31.8 41.75 31.95 41.95 32.05 42.2 32.05 41.85 31.9 41.65 31.85 41.5 31.75 41.45 31.75 41.5 M30.9 40.05 L30.9 40.05 M31.1 40.2 L31.0 40.15 31.1 40.4 31.25 40.6 31.35 40.8 31.5 41.0 31.75 41.35 31.75 41.25 31.15 40.45 31.1 40.2 M29.65 39.2 L29.65 39.25 29.95 39.65 30.0 39.9 30.2 40.35 30.35 40.55 30.45 40.75 31.0 41.25 31.1 41.45 31.2 41.7 31.9 41.95 32.0 42.1 31.9 41.95 31.8 41.75 31.75 41.4 31.2 41.0 31.1 40.75 30.85 40.65 30.55 40.35 30.4 40.1 30.35 39.85 30.25 39.65 30.05 39.5 29.8 39.4 29.65 39.2 M29.15 38.7 L29.1 38.7 29.25 38.9 29.6 39.15 29.6 39.0 29.15 38.7 29.6 39.0 29.65 39.15 29.8 39.35 30.25 39.65 30.35 39.85 30.45 40.1 30.55 40.3 30.9 40.65 31.15 40.75 31.2 41.0 31.65 41.3 31.7 41.35 31.5 41.0 31.35 40.85 31.05 40.4 30.95 40.1 30.85 40.05 30.85 39.9 30.8 39.8 30.6 39.7 30.4 39.25 30.25 39.05 30.05 38.9 29.35 38.6 29.1 38.55 29.1 38.7 29.15 38.7 M29.0 38.4 L29.1 38.5 29.1 38.45 29.0 38.4 M28.45 37.85 L28.55 37.95 28.75 38.1 28.85 38.2 28.65 37.9 28.45 37.85 M28.15 37.55 L28.2 37.6 28.1 37.4 28.0 37.2 27.8 37.15 28.15 37.55 M28.0 37.5 L28.1 37.55 27.9 37.35 28.0 37.5 M26.85 36.25 L26.95 36.5 27.1 36.65 27.3 36.8 27.5 37.0 27.65 37.15 27.85 37.25 27.75 37.1 27.7 37.1 27.6 36.85 27.4 36.75 27.2 36.6 26.85 36.25 26.8 36.0 26.65 35.8 26.4 35.45 26.4 35.7 26.7 36.1 26.8 36.2 26.85 36.25 26.9 36.25 27.1 36.35 27.45 36.7 27.65 36.85 27.75 37.1 27.8 37.1 28.0 37.2 28.15 37.4 28.25 37.65 28.3 37.75 28.4 37.85 28.65 37.9 28.9 38.25 28.95 38.25 29.1 38.45 29.1 38.55 29.4 38.6 30.05 38.9 30.4 39.2 30.6 39.7 30.8 39.75 30.75 39.75 30.7 39.5 30.65 39.25 30.45 39.1 30.35 38.85 30.15 38.7 30.0 38.45 29.9 38.25 29.9 37.75 29.95 37.5 29.95 37.0 29.85 36.8 29.3 36.25 28.95 35.6 28.9 35.35 28.8 35.15 28.75 34.9 28.95 34.45 28.8 33.95 28.9 33.75 28.8 33.0 28.7 32.8 28.75 32.55 28.6 32.05 28.5 31.85 28.55 31.6 28.5 31.35 28.65 30.85 28.55 30.65 28.4 30.15 28.3 29.95 28.3 29.7 28.0 29.25 28.0 29.0 28.1 28.75 28.1 28.0 28.15 27.8 28.3 27.3 28.25 27.1 28.35 26.85 28.5 26.65 28.4 26.4 28.5 26.15 28.5 25.9 28.6 25.7 28.75 25.45 28.8 25.25 28.9 25.0 29.2 24.55 29.2 24.35 29.35 24.1 29.2 23.85 29.2 23.15 29.35 22.95 29.1 22.05 28.85 21.65 28.45 20.25 28.2 19.8 28.1 19.35 28.0 18.35 27.8 17.95 27.4 17.65 27.1 17.25 26.7 16.95 26.4 16.55 25.6 14.3 25.25 13.9 25.1 12.95 25.1 12.35 24.8 12.15 24.45 11.8 23.75 11.35 23.65 12.2 23.55 12.45 23.55 12.7 23.6 12.95 23.6 13.2 23.5 13.45 23.45 13.7 23.65 14.15 23.65 14.4 23.7 14.6 23.85 14.85 23.9 15.05 23.9 15.3 24.0 15.55 24.1 15.75 24.25 15.95 24.45 16.1 24.6 16.55 24.65 16.8 24.75 17.05 24.75 17.3 24.85 17.75 25.0 17.95 25.1 18.2 25.15 18.45 25.3 18.65 25.65 19.0 25.65 19.25 25.9 19.95 26.0 20.2 26.15 20.4 26.15 21.15 26.25 21.4 26.2 21.65 26.1 21.9 26.1 22.15 26.15 22.4 26.1 22.6 25.9 22.8 25.8 23.3 25.7 23.5 25.4 23.9 24.95 24.2 24.9 24.45 24.8 24.65 24.55 24.75 24.4 24.9 23.95 25.15 23.85 25.35 23.3 25.5 23.1 25.65 22.6 25.8 22.6 25.85 23.3 26.15 23.8 26.2 24.3 26.2 24.8 26.1 26.05 26.8 26.55 26.85 26.05 26.85 24.8 26.15 24.3 26.25 23.8 26.25 22.5 25.85 22.4 25.9 22.2 26.1 22.05 26.25 21.8 26.3 21.6 26.45 21.45 26.95 21.15 27.3 21.05 27.55 20.95 27.75 21.05 28.0 20.9 28.5 20.9 28.7 21.05 28.95 21.15 29.15 21.2 29.5 21.55 29.85 21.95 29.9 22.05 30.15 22.05 30.2 22.7 30.7 23.05 31.05 23.8 31.7 25.05 32.4 26.15 33.35 27.4 34.0 27.75 34.35 27.75 34.4 27.4 34.05 27.0 33.85 26.9 34.05 26.85 34.3 26.9 34.55 26.85 34.8 26.4 35.4 26.65 35.8 26.8 36.0 26.85 36.25 M27.1 36.4 L26.95 36.3 27.25 36.6 27.35 36.65 27.1 36.4 M22.15 30.3 L22.2 30.35 22.15 30.3 M21.45 29.8 L21.45 29.8 M22.0 30.15 L21.95 29.95 21.6 29.85 22.0 30.15 M22.55 30.7 L22.7 30.9 22.8 31.1 22.95 31.3 23.2 31.4 23.3 31.65 23.55 31.7 23.95 31.95 24.1 32.15 24.25 32.35 25.15 32.8 25.3 33.0 25.4 33.25 25.6 33.4 25.75 33.6 25.9 33.8 26.1 33.95 26.1 34.2 26.2 34.4 26.25 34.65 26.4 34.85 26.4 35.35 26.5 35.2 26.8 34.75 26.85 34.55 26.8 34.3 26.85 34.05 26.95 33.85 26.1 33.4 25.05 32.4 23.75 31.7 23.0 31.1 22.7 30.75 22.4 30.5 22.55 30.7 M21.25 29.65 L21.4 29.85 21.35 30.1 21.5 30.3 21.5 30.55 21.65 30.75 21.85 30.9 22.0 31.05 22.1 31.3 22.3 31.5 22.5 31.6 22.75 31.65 22.95 31.8 23.2 31.9 23.4 32.05 23.65 32.15 23.9 32.5 24.0 32.75 24.05 33.0 24.25 33.2 24.45 33.3 24.6 33.5 24.75 33.7 24.8 33.95 24.95 34.15 25.2 34.25 25.3 34.5 25.45 34.65 25.6 34.85 25.7 35.1 25.95 35.15 26.05 35.4 26.25 35.55 26.45 36.0 26.65 36.15 26.75 36.2 26.65 36.1 26.4 35.65 26.4 35.4 26.35 34.85 26.2 34.65 26.15 34.45 26.1 34.2 26.1 33.95 25.9 33.8 25.7 33.6 25.6 33.4 25.4 33.25 25.15 32.85 24.25 32.35 23.95 32.0 23.25 31.65 23.15 31.4 22.9 31.3 22.75 31.15 22.7 30.9 22.5 30.75 22.4 30.5 22.15 30.4 22.05 30.25 21.5 29.9 21.5 29.85 21.4 29.85 21.25 29.65 M14.3 36.15 L14.25 36.4 14.4 36.65 14.35 37.15 14.35 37.4 14.5 37.9 14.5 38.35 14.55 38.6 14.5 39.1 14.4 39.55 14.55 40.05 14.55 40.25 14.7 40.8 14.55 41.0 14.5 41.25 14.5 41.5 14.4 41.7 14.4 41.95 14.3 42.2 14.35 42.4 14.15 42.9 14.25 43.15 14.1 43.4 14.0 43.65 14.05 44.1 14.2 44.3 14.2 44.55 14.25 44.8 14.35 45.05 14.4 45.25 14.4 45.5 14.45 45.75 14.5 45.95 14.45 46.25 14.6 46.45 14.7 46.65 14.75 46.9 14.7 46.65 14.6 46.45 14.45 46.25 14.5 45.95 14.45 45.75 14.35 45.5 14.4 45.25 14.35 45.05 14.25 44.8 14.2 44.55 14.2 44.3 14.0 44.1 14.0 43.65 14.1 43.4 14.25 43.15 14.15 42.9 14.35 42.4 14.25 42.2 14.35 41.95 14.35 41.7 14.5 41.5 14.5 41.25 14.55 41.0 14.7 40.8 14.55 40.25 14.55 40.05 14.4 39.55 14.5 39.1 14.5 38.85 14.55 38.6 14.5 38.35 14.5 37.9 14.35 37.4 14.35 37.15 14.4 36.65 14.25 36.4 14.3 36.15 13.7 35.35 13.9 35.5 14.3 36.15 M15.65 27.15 L15.7 27.2 16.25 28.0 17.1 28.45 18.05 29.5 18.6 29.1 18.85 29.1 19.1 29.2 19.6 29.2 20.3 29.4 20.5 29.55 21.05 29.5 21.2 29.6 21.2 29.55 20.75 29.3 20.5 28.9 20.15 28.55 18.9 27.8 17.5 27.45 17.05 27.5 16.6 27.25 16.1 27.15 15.65 27.15 M14.75 25.65 L14.8 25.9 14.8 26.1 14.75 26.4 14.95 26.55 15.2 27.0 15.2 27.05 15.6 27.1 15.5 26.8 15.25 26.35 14.75 25.65 14.45 25.15 14.1 24.8 13.65 24.55 13.35 24.2 12.9 23.95 12.2 23.3 11.6 22.5 11.25 21.65 10.9 21.3 10.4 20.7 10.4 20.75 10.6 21.15 11.2 21.95 11.55 22.85 12.35 24.6 13.9 26.45 14.7 26.9 15.15 27.05 15.2 27.05 15.2 27.0 14.9 26.55 14.75 26.4 14.8 26.1 14.8 25.9 14.75 25.65 M10.6 18.65 L10.45 18.6 10.3 19.35 10.35 20.6 10.9 21.25 11.3 21.6 11.65 22.5 12.25 23.25 12.95 23.95 13.35 24.15 13.7 24.5 14.5 25.1 14.75 25.6 14.85 25.4 14.8 25.15 14.3 24.35 13.85 24.05 13.75 23.9 13.5 23.8 13.05 23.5 12.9 23.35 12.65 23.25 12.55 23.0 12.5 22.5 12.45 22.3 12.45 22.05 12.15 21.6 12.05 21.4 11.75 21.0 11.6 20.55 11.45 20.3 11.45 20.05 11.3 19.9 11.1 19.45 11.05 19.2 10.9 19.0 10.6 18.65 M1.9 11.1 L1.5 11.0 1.2 11.05 0.8 11.2 0.55 11.4 0.1 11.35 -0.15 11.5 -0.4 11.5 -0.6 11.65 -0.85 11.6 -1.1 11.65 -1.55 11.85 -1.8 11.7 -2.05 11.65 -2.25 11.75 -1.25 13.35 -1.1 13.25 -0.85 13.2 -0.6 13.25 -0.4 13.05 -0.15 13.0 0.2 12.7 0.45 12.65 0.65 12.5 0.85 12.35 1.1 12.25 1.25 11.8 1.85 11.25 1.9 11.1 M4.75 13.6 L4.5 13.6 4.3 13.75 4.05 13.8 3.75 13.8 3.25 13.7 3.05 13.85 2.85 14.35 2.6 14.4 2.4 14.5 2.15 14.5 1.9 14.6 1.7 14.75 1.45 14.8 1.25 14.9 1.0 15.0 0.8 15.05 0.55 15.15 0.75 15.35 2.6 16.0 4.95 16.6 5.35 16.9 5.8 17.05 6.6 17.6 8.2 19.4 9.0 19.95 9.1 19.95 8.85 19.5 8.7 19.35 8.45 19.25 8.25 19.1 8.2 18.85 8.05 18.65 7.9 18.15 7.5 17.9 7.25 17.8 7.05 17.65 6.85 17.15 6.65 17.05 6.5 16.85 6.1 16.55 5.95 16.35 5.75 16.25 5.6 16.0 5.4 15.85 5.4 15.6 5.05 15.25 4.95 15.0 4.9 14.8 4.8 14.55 4.75 14.3 4.8 14.05 4.75 13.85 4.75 13.6 M4.8 13.55 L4.8 13.35 4.25 12.85 4.0 12.75 3.9 12.55 3.7 12.4 3.4 11.95 3.2 11.85 3.05 11.65 2.6 11.5 2.4 11.35 2.15 11.3 1.95 11.1 1.9 11.3 1.3 11.8 1.15 12.3 0.9 12.4 0.7 12.55 0.5 12.65 0.25 12.7 -0.15 13.05 -0.4 13.1 -0.55 13.3 -0.85 13.25 -1.05 13.3 -1.25 13.4 -1.05 13.8 0.55 15.15 0.8 15.0 1.0 15.0 1.25 14.85 1.45 14.75 1.7 14.75 1.9 14.55 2.1 14.5 2.35 14.45 2.6 14.35 2.85 14.3 3.05 13.85 3.25 13.65 3.75 13.75 4.0 13.75 4.25 13.7 4.45 13.55 4.8 13.55 5.25 13.45 5.4 13.3 5.8 13.05 6.1 13.05 6.3 12.9 6.5 12.8 6.25 12.7 6.1 12.5 5.9 12.35 5.65 11.95 5.25 11.65 5.15 11.45 4.95 11.25 4.7 11.15 4.2 11.05 4.1 10.8 3.9 10.65 3.65 10.2 3.4 10.2 3.2 10.1 2.7 10.15 2.55 10.3 2.4 10.5 2.2 10.65 2.15 10.9 1.95 11.05 2.15 11.25 2.4 11.3 2.6 11.45 2.8 11.55 3.05 11.6 3.25 11.8 3.45 11.9 3.7 12.35 3.9 12.5 4.05 12.7 4.3 12.8 4.45 13.0 4.65 13.15 4.85 13.35 4.8 13.55 M5.4 13.3 L5.25 13.5 4.8 13.6 4.8 13.85 4.85 14.05 4.8 14.3 4.85 14.55 4.95 14.8 5.0 15.0 5.1 15.25 5.4 15.6 5.45 15.85 5.65 16.0 5.75 16.25 6.0 16.35 6.1 16.55 6.35 16.65 6.5 16.8 6.65 17.0 6.9 17.15 6.95 17.4 7.1 17.6 7.25 17.75 7.9 18.15 8.1 18.65 8.2 18.85 8.3 19.1 8.45 19.25 8.7 19.35 8.9 19.5 9.15 20.0 9.95 20.2 10.3 20.5 10.25 19.3 10.4 18.55 10.35 18.55 10.25 18.3 10.1 18.1 9.9 17.7 9.75 17.5 9.7 17.25 9.55 17.05 9.6 16.8 9.25 16.35 9.3 16.15 9.2 15.9 9.05 15.7 8.95 15.5 8.85 15.25 8.85 15.0 8.75 14.8 8.55 14.6 8.45 14.4 8.25 14.3 8.2 14.0 8.1 13.5 7.85 13.45 7.7 13.25 7.5 13.1 6.55 12.8 6.5 12.85 6.3 12.95 6.1 13.1 5.85 13.05 5.4 13.3 M7.8 12.1 L7.55 12.2 7.4 12.4 7.15 12.5 6.9 12.5 6.7 12.65 6.55 12.75 7.7 13.2 7.85 13.4 8.1 13.5 8.25 14.0 8.25 14.25 8.45 14.4 8.6 14.6 8.8 14.8 8.9 15.0 8.85 15.25 9.0 15.45 9.05 15.7 9.2 15.9 9.3 16.1 9.3 16.35 9.6 16.8 9.6 17.05 9.7 17.25 9.8 17.45 9.95 17.65 10.15 18.1 10.3 18.3 10.35 18.55 10.4 18.55 10.6 17.4 10.55 16.95 10.6 16.45 10.6 16.0 10.45 15.5 10.55 15.05 10.55 14.55 10.2 13.15 8.8 11.85 8.7 11.75 8.5 11.9 8.25 11.95 Q8.15 12.05 8.05 12.1 L7.8 12.1 M1.15 5.95 L0.25 5.65 -1.05 4.95 -1.85 4.35 -2.1 3.95 -2.45 3.6 -2.6 3.1 -2.75 1.65 -2.55 1.2 -3.1 -0.65 -3.4 -1.05 -3.45 -1.55 -3.55 -2.0 -3.6 -2.5 -3.65 -3.0 -3.7 -3.45 -3.85 -4.4 -4.0 -4.85 -4.15 -5.0 -4.25 -4.95 -4.7 -4.7 -5.2 -4.6 -5.55 -4.3 -6.05 -4.25 -6.45 -4.05 -6.85 -3.75 -7.8 -3.45 -8.85 -2.5 -9.3 -2.3 -9.6 -1.9 -10.05 -1.7 -10.45 -1.45 -10.75 -1.05 -10.95 -0.65 -11.7 0.6 -11.9 1.05 -11.95 2.0 -11.6 2.9 -11.4 3.3 -11.25 3.8 -10.5 4.4 -10.05 4.55 -8.25 5.3 -7.8 5.4 -6.4 5.75 -6.05 6.1 -5.75 6.55 -5.1 7.25 -4.55 8.6 -4.1 9.45 -3.75 9.8 -3.5 10.2 -2.9 11.0 -2.55 11.3 -2.25 11.7 -2.05 11.6 -1.8 11.65 -1.55 11.8 -1.1 11.6 -0.85 11.55 -0.6 11.55 -0.4 11.45 -0.15 11.45 0.05 11.3 0.55 11.35 0.75 11.15 1.2 11.0 1.45 10.95 1.9 11.05 2.1 10.9 2.2 10.65 2.35 10.5 2.5 10.3 2.65 10.1 3.2 10.05 3.4 10.15 3.65 10.2 3.95 10.6 4.15 10.8 4.25 11.0 4.95 11.25 5.15 11.4 5.3 11.6 5.65 11.9 5.95 12.35 6.1 12.45 6.3 12.65 6.55 12.75 6.7 12.6 6.9 12.5 7.15 12.45 7.35 12.35 7.55 12.15 7.75 12.05 8.05 12.05 8.25 11.9 8.45 11.85 8.65 11.7 8.5 11.5 8.05 11.35 7.6 11.1 6.2 10.8 5.7 10.75 5.3 10.5 5.0 10.1 3.75 9.3 3.15 8.55 2.85 7.65 2.25 6.9 1.8 6.65 1.15 5.95 M8.95 8.05 L8.95 8.25 8.85 8.5 8.7 8.95 8.7 9.45 8.55 9.65 8.5 9.9 8.4 10.15 8.2 10.3 8.0 10.75 7.7 11.05 8.05 11.25 8.55 11.4 8.7 11.65 8.8 11.5 8.95 11.3 9.15 11.2 9.4 11.1 9.6 10.95 9.75 10.8 10.3 10.25 10.5 10.1 10.6 9.9 10.65 9.65 11.25 9.15 11.4 8.95 11.6 8.6 11.75 8.05 11.95 7.6 11.9 7.6 11.2 7.55 10.7 7.35 10.25 7.45 10.0 7.4 9.1 7.85 8.95 8.05 M27.75 15.9 L27.65 15.7 27.6 15.45 27.25 15.1 27.25 15.05 26.95 15.05 26.5 15.3 26.25 15.3 26.1 15.25 26.5 16.5 26.8 16.9 27.2 17.15 27.5 17.55 27.9 17.85 28.1 18.3 28.2 19.3 28.35 19.8 28.6 20.2 28.95 21.6 29.2 22.0 29.45 22.8 29.6 22.5 29.6 22.25 29.75 22.05 29.8 21.8 29.8 21.55 29.95 21.35 30.2 20.9 30.25 20.7 30.2 20.45 30.15 20.2 30.1 19.95 30.15 19.45 30.2 19.2 30.0 18.75 29.85 18.55 29.75 18.3 29.65 18.1 29.5 17.9 29.3 17.45 29.1 17.3 29.0 17.05 28.85 16.9 28.65 16.75 28.55 16.5 28.35 16.35 28.15 16.25 27.95 16.05 27.75 15.9 M28.15 15.0 L27.9 14.95 27.65 15.05 27.45 15.05 27.4 15.05 27.65 15.35 27.75 15.65 27.85 15.85 28.05 16.0 28.2 16.2 28.45 16.3 28.6 16.45 28.7 16.7 28.95 16.8 29.1 17.0 29.2 17.25 29.35 17.4 29.6 17.85 29.75 18.05 29.8 18.25 30.05 18.65 30.0 18.5 30.05 18.25 30.0 18.0 29.85 17.8 29.9 17.55 29.8 17.3 29.7 17.1 29.55 16.4 29.55 16.15 29.5 15.65 29.35 15.45 29.1 15.35 29.0 15.15 28.75 15.1 28.6 14.9 28.15 15.0 M25.4 13.6 L25.35 13.55 25.4 13.9 25.7 14.25 26.05 15.1 26.25 15.2 26.5 15.2 26.95 14.95 27.2 14.95 27.15 14.85 26.9 14.8 26.7 14.6 26.45 14.55 26.3 14.4 26.2 14.15 25.8 13.9 25.65 13.7 25.4 13.6 M16.4 19.4 L16.25 18.95 15.45 17.75 15.0 17.5 14.25 16.9 14.05 16.45 13.75 16.1 13.3 15.85 12.95 15.5 12.4 14.7 12.1 14.3 12.05 13.85 11.6 12.95 10.8 11.75 10.8 11.3 11.55 8.8 11.45 9.0 11.3 9.2 10.7 9.65 10.65 9.9 10.55 10.15 10.35 10.3 9.8 10.8 9.65 11.0 9.45 11.15 9.2 11.2 9.0 11.35 8.8 11.55 8.75 11.65 8.85 11.8 10.25 13.15 10.4 13.6 10.55 14.05 10.65 14.55 10.65 15.05 10.55 15.5 10.65 15.95 10.7 16.45 10.6 16.95 10.65 17.4 10.45 18.55 10.6 18.6 10.8 18.8 11.1 19.2 11.1 19.45 11.3 19.85 11.45 20.05 11.5 20.3 11.6 20.55 11.75 21.0 12.1 21.35 12.2 21.6 12.5 22.0 12.45 22.3 12.55 22.5 12.55 23.0 12.7 23.2 12.9 23.35 13.5 23.75 13.75 23.85 13.9 24.05 14.1 24.15 14.3 24.3 14.8 25.15 14.85 25.4 14.8 25.6 15.3 26.3 15.5 26.75 15.65 27.1 16.6 27.2 17.05 27.45 17.5 27.4 18.5 27.6 20.2 28.5 20.55 28.85 20.8 29.3 21.15 29.45 21.15 29.4 21.1 29.15 21.0 28.95 20.85 28.75 20.85 28.5 21.0 28.0 20.9 27.75 21.1 27.3 21.4 26.9 21.45 26.65 21.55 26.4 21.75 26.25 22.0 26.2 22.2 26.05 22.35 25.85 22.45 25.85 22.4 25.8 21.9 25.75 21.5 25.45 21.05 25.3 20.45 24.5 20.05 24.25 18.75 22.8 17.95 22.25 16.9 21.25 16.65 20.85 16.6 20.35 16.5 19.9 16.4 19.4 M22.95 8.35 L22.95 8.5 23.05 9.0 23.05 9.5 23.4 10.9 23.75 11.2 24.55 11.7 25.1 12.15 25.1 12.0 24.85 11.05 24.6 10.65 24.45 10.2 24.35 9.7 24.05 9.35 23.0 8.35 22.95 8.35 M22.5 7.4 L22.4 7.15 22.4 6.85 22.05 6.7 21.6 6.3 21.65 6.4 21.9 6.85 22.15 7.2 22.5 7.4 M16.7 8.45 L16.45 8.5 15.7 8.45 15.5 8.25 15.05 8.1 14.85 7.95 14.6 7.95 14.35 7.85 13.8 7.35 13.35 7.25 13.1 7.4 12.4 7.5 12.15 7.5 12.0 7.55 12.0 7.65 11.8 8.1 10.85 11.3 10.85 11.75 11.65 12.95 12.1 13.8 12.15 14.3 12.5 14.65 13.0 15.5 13.35 15.8 13.75 16.05 14.1 16.4 14.3 16.85 15.45 17.7 16.3 18.9 16.45 19.4 16.65 20.35 16.7 20.8 16.95 21.25 17.6 21.9 18.8 22.8 20.1 24.25 20.5 24.45 21.1 25.25 21.95 25.7 22.4 25.75 22.5 25.8 22.6 25.75 23.05 25.6 23.3 25.45 23.8 25.35 23.9 25.1 24.15 25.0 24.35 24.85 24.5 24.7 24.75 24.6 24.85 24.4 24.9 24.15 25.3 23.85 25.65 23.45 25.7 23.25 25.85 22.8 26.0 22.6 26.1 22.35 26.05 22.1 26.05 21.9 26.1 21.65 26.15 21.4 26.1 21.15 26.05 20.95 26.1 20.7 26.1 20.4 25.8 19.95 25.7 19.5 25.6 19.3 25.6 19.05 25.4 18.85 25.2 18.65 25.05 18.45 25.0 18.2 24.95 18.0 24.8 17.8 24.65 17.3 24.7 17.05 24.6 16.85 24.55 16.6 24.45 16.4 24.4 16.15 24.15 16.0 24.05 15.8 23.95 15.55 23.8 15.35 23.8 15.1 23.75 14.85 23.6 14.65 23.55 14.45 23.55 14.15 23.35 13.7 23.4 13.45 23.45 13.2 23.5 12.95 23.45 12.75 23.45 12.5 23.55 12.25 23.6 11.3 23.25 10.9 22.9 9.5 22.9 9.0 22.8 8.55 22.8 8.1 22.7 7.95 22.65 7.95 22.45 7.8 22.2 7.85 21.95 7.8 21.7 7.8 21.3 8.0 21.05 8.05 20.65 8.3 20.2 8.5 20.0 8.65 19.8 8.85 19.3 8.85 19.05 8.75 18.85 8.85 18.6 8.85 18.1 8.65 17.9 8.75 17.65 8.7 17.4 8.75 17.15 8.7 16.7 8.45 M24.3 8.1 L24.55 8.15 24.8 8.1 22.55 6.95 22.55 7.15 22.9 7.85 23.15 7.8 23.4 7.9 23.6 8.1 23.85 8.1 24.1 8.25 24.3 8.1 M24.8 8.1 L24.55 8.15 24.3 8.15 24.1 8.25 23.85 8.15 23.6 8.1 23.4 7.95 23.15 7.85 22.9 7.9 22.95 8.0 22.95 8.05 23.1 8.3 24.15 9.25 24.5 9.65 24.75 10.6 25.0 11.0 25.25 11.95 25.25 12.25 25.3 12.3 25.65 12.65 26.1 12.8 27.3 13.6 27.8 13.65 28.7 13.5 29.2 13.6 29.65 13.55 30.65 13.8 31.05 14.05 31.9 14.5 32.2 14.8 31.85 13.65 31.6 13.25 31.3 12.35 30.95 12.0 30.15 10.5 28.75 9.8 24.85 8.15 24.8 8.1 M50.75 50.35 L51.0 50.45 51.25 50.5 51.35 50.5 51.25 50.5 51.0 50.45 50.75 50.35 50.55 50.25 50.3 50.25 50.05 50.3 49.8 50.2 49.55 50.2 49.55 50.2 49.8 50.2 50.05 50.3 50.3 50.25 50.55 50.25 50.75 50.35 M37.35 46.9 L37.15 46.75 37.2 46.75 37.35 46.9 37.55 47.0 37.85 47.45 38.05 47.6 38.3 47.7 38.55 47.7 38.95 48.0 39.2 48.0 39.35 48.0 39.2 48.0 38.95 48.0 38.7 47.85 38.55 47.7 38.3 47.7 38.05 47.65 37.85 47.45 37.55 47.05 37.35 46.9 M36.05 46.35 L36.5 46.45 36.85 46.6 36.5 46.45 36.05 46.35 M33.95 44.0 L34.15 44.1 34.35 44.6 34.5 44.8 34.75 44.9 34.9 45.1 35.1 45.25 35.15 45.5 35.3 45.7 35.55 46.1 35.55 46.1 35.25 45.7 35.15 45.5 35.1 45.25 34.9 45.1 34.75 44.9 34.5 44.8 34.35 44.6 34.15 44.1 33.95 44.0 33.55 43.7 33.45 43.55 33.55 43.7 33.95 44.0 M33.25 44.2 L33.25 44.25 33.3 44.35 33.25 44.2 M32.85 43.05 L32.7 42.9 32.7 43.15 33.0 43.8 33.2 44.1 33.2 44.0 33.25 43.75 33.0 43.3 32.95 43.15 32.85 43.05 M43.95 48.95 L44.2 49.0 44.4 49.15 44.6 49.25 44.85 49.3 44.85 49.3 44.6 49.25 44.4 49.15 44.2 49.0 43.95 48.95 43.7 48.95 43.55 48.75 43.35 48.55 43.25 48.4 43.55 48.7 43.7 48.95 43.95 48.95 M42.8 48.1 L43.0 48.2 43.15 48.35 43.0 48.2 42.8 48.1 42.8 48.1 M41.35 48.0 L41.1 47.95 40.4 48.1 40.1 47.95 40.15 48.4 40.35 48.6 40.35 48.85 40.45 49.05 40.6 49.8 40.6 50.0 40.65 50.0 40.85 50.1 41.0 50.3 41.45 50.5 41.75 50.9 42.0 51.0 42.15 51.2 42.2 51.45 42.2 51.7 42.35 51.9 42.3 52.15 42.45 52.35 42.45 52.4 42.65 52.1 42.65 51.15 42.2 49.3 41.9 48.9 41.45 48.0 41.35 48.0 M42.3 48.1 L41.8 48.05 41.6 47.95 42.3 48.1 42.55 48.05 42.3 48.1 M52.35 51.05 L52.2 50.85 52.55 51.15 52.35 51.05 M38.05 58.95 L37.85 58.8 37.85 58.8 38.05 58.95 38.45 59.25 38.6 59.4 38.8 59.6 38.8 59.6 38.6 59.45 38.45 59.25 38.2 59.1 38.05 58.95 M36.9 58.55 L36.65 58.5 36.55 58.35 36.65 58.5 36.9 58.55 37.1 58.7 37.1 58.7 36.9 58.55 M35.55 57.6 L35.7 57.75 36.15 57.95 36.45 58.25 36.15 57.95 35.65 57.8 35.55 57.6 M38.75 49.0 L38.95 49.1 38.5 49.0 38.5 49.0 38.75 49.0 M39.05 48.45 L39.3 48.85 39.3 48.9 39.05 48.45 39.05 48.45 M48.0 59.95 L47.7 59.9 47.5 60.0 47.25 60.0 47.0 59.85 47.25 59.95 47.5 60.0 47.7 59.9 48.0 59.95 48.1 59.9 48.0 59.95 M41.85 55.15 L41.85 55.4 42.0 55.6 42.1 55.8 42.2 56.05 42.1 55.8 42.0 55.6 41.8 55.4 41.8 55.15 41.7 54.95 41.85 55.15 M42.65 53.1 L42.8 53.3 42.75 53.3 42.65 53.1 M46.0 49.75 L45.1 49.4 46.0 49.75 46.0 49.75 M47.4 50.0 L47.15 50.05 46.95 50.15 46.35 49.85 46.95 50.15 47.15 50.05 47.4 50.0 47.65 49.9 48.15 49.85 48.35 50.0 48.6 50.1 48.35 50.0 48.15 49.85 47.65 49.9 47.4 50.0 M45.0 60.8 L44.75 60.8 44.5 60.9 44.75 60.8 45.0 60.8 45.25 60.75 45.45 60.6 45.25 60.8 45.0 60.8 M45.9 60.45 L45.7 60.55 45.6 60.6 45.7 60.55 45.9 60.45 46.1 60.3 45.9 60.45 M43.55 61.1 L43.8 61.15 44.3 61.05 44.05 61.1 43.8 61.15 43.55 61.1 M53.95 60.0 L54.45 59.9 54.45 59.9 53.95 60.0 53.75 60.0 53.45 59.95 53.25 59.95 52.95 59.9 52.75 59.95 52.95 59.9 53.25 59.95 53.45 59.95 53.75 60.0 53.95 60.0 M41.1 60.35 L40.55 60.2 40.05 60.25 39.85 60.15 39.7 59.9 39.5 59.7 39.25 59.7 39.15 59.7 39.25 59.7 39.5 59.7 39.7 59.9 39.85 60.1 40.05 60.25 40.55 60.2 41.1 60.35 M49.65 59.65 L49.9 59.6 50.4 59.7 50.15 59.7 49.9 59.6 49.65 59.65 49.4 59.7 48.95 59.7 48.7 59.75 48.95 59.7 49.4 59.7 49.65 59.65 M50.75 59.65 L50.9 59.65 51.1 59.85 51.3 60.0 51.5 60.0 51.25 60.0 51.05 59.85 50.9 59.65 50.75 59.65 M52.5 60.05 L52.25 60.05 52.0 60.05 52.25 60.0 52.5 60.05 M-17.2 -31.45 L-16.95 -31.45 -16.75 -31.35 -16.5 -31.3 -16.25 -31.35 -16.95 -31.65 -17.45 -31.75 -17.75 -31.75 -17.65 -31.6 -17.45 -31.45 -17.2 -31.45 M-54.4 -35.65 L-54.35 -35.75 -54.45 -35.75 -54.4 -35.65 M-39.7 -35.9 L-39.9 -36.0 -40.05 -36.25 -40.3 -36.3 -40.45 -36.45 -40.7 -36.55 -40.95 -36.55 -41.2 -36.65 -41.6 -36.95 -42.7 -37.55 -42.95 -37.6 -43.35 -37.9 -43.75 -38.2 -44.25 -38.3 -44.65 -38.5 -45.55 -38.15 -45.95 -37.95 -47.3 -37.45 -47.8 -37.45 -48.65 -37.05 -49.05 -36.75 -49.35 -36.35 -49.75 -36.1 -50.0 -35.7 -50.4 -35.4 -50.7 -35.0 -51.15 -34.8 -52.25 -33.85 -52.4 -33.7 -50.1 -33.25 -47.9 -32.2 -45.5 -31.65 -41.0 -29.25 -36.7 -28.3 -34.3 -27.05 Q-33.05 -26.5 -31.8 -25.95 L-28.65 -25.25 -28.55 -25.6 -27.95 -26.35 -26.55 -26.9 -26.15 -27.2 -25.7 -27.35 -25.3 -27.6 -24.75 -28.4 -24.3 -28.65 -23.95 -29.0 -23.5 -29.2 -23.15 -29.55 -22.2 -29.85 -21.8 -30.1 -21.5 -30.45 -20.7 -31.05 -20.2 -31.1 -18.4 -31.8 -17.9 -31.85 -18.25 -32.05 -18.45 -32.1 -18.75 -32.05 -18.95 -32.2 -19.2 -32.25 -19.45 -32.2 -19.65 -32.3 -19.9 -32.25 -20.15 -32.3 -20.4 -32.2 -20.6 -32.25 -20.85 -32.4 -21.3 -32.3 -22.05 -32.5 -22.3 -32.35 -22.55 -32.45 -22.75 -32.35 -23.0 -32.35 -23.45 -32.05 -23.95 -32.05 -24.15 -32.0 -24.4 -32.0 -24.65 -31.95 -25.15 -32.0 -25.65 -32.15 -26.1 -31.95 -26.35 -31.9 -26.6 -31.95 -27.1 -31.95 -27.3 -31.85 -27.8 -31.85 -28.25 -31.75 -28.5 -31.7 -28.75 -31.85 -30.2 -31.85 -30.45 -31.95 -30.65 -31.95 -30.95 -32.0 -31.2 -32.0 -32.2 -31.9 -32.4 -31.85 -32.65 -31.8 -32.9 -31.8 -33.1 -31.65 -33.35 -31.7 -33.6 -31.65 -33.85 -31.55 -34.1 -31.55 -34.35 -31.6 -34.8 -31.8 -35.0 -32.0 -35.25 -32.05 -35.4 -32.2 -35.7 -32.25 -35.75 -32.5 -35.9 -32.7 -35.85 -32.95 -36.05 -33.15 -36.05 -33.4 -36.25 -33.85 -36.4 -34.05 -36.5 -34.25 -36.85 -34.55 -37.65 -34.7 -37.85 -34.85 -38.0 -35.05 -38.25 -35.15 -38.4 -35.3 -38.7 -35.3 -39.0 -35.7 -39.45 -35.9 -39.7 -35.9 M-5.6 -12.5 L-5.7 -12.05 -5.7 -11.6 -5.95 -10.65 -6.0 -10.15 -5.7 -9.3 -5.5 -8.3 -5.2 -8.0 -4.95 -7.0 -4.55 -5.6 -4.15 -5.2 -3.95 -5.4 -3.5 -5.55 -2.6 -6.6 -2.3 -7.55 -2.05 -7.95 -1.9 -8.35 -1.65 -9.3 -1.7 -10.25 -1.7 -10.3 -3.4 -11.45 -4.7 -12.05 -4.7 -12.1 -5.6 -12.5 M-18.55 38.8 L-18.3 38.7 -18.2 38.45 -17.8 38.2 -17.55 37.75 -17.35 37.6 -17.05 37.65 -17.35 37.65 -17.55 37.75 -17.8 38.2 -18.2 38.45 -18.3 38.7 -18.55 38.8 -18.65 39.05 -18.9 39.15 -18.95 39.4 -19.15 39.6 -19.25 39.8 -19.25 39.8 -19.15 39.55 -18.95 39.4 -18.9 39.15 -18.65 39.05 -18.55 38.8 M-2.85 -11.6 L-3.0 -11.65 -2.25 -11.1 -2.45 -11.4 -2.85 -11.6 M-17.05 37.65 L-16.9 37.45 -16.65 37.45 -16.4 37.4 -16.2 37.2 -16.0 37.05 -15.8 37.05 -15.55 36.9 -15.3 36.85 -15.1 36.75 -14.9 36.55 -14.75 36.35 -14.55 35.9 -14.35 35.75 -13.9 35.55 -13.75 35.35 -13.55 35.25 -13.05 34.35 -12.85 34.25 -12.7 34.05 -12.35 33.7 -12.25 33.5 -12.15 33.0 -12.2 32.75 -12.15 32.5 -12.0 32.0 -11.7 31.6 -11.75 31.35 -11.65 31.15 -11.75 30.9 -11.85 30.4 -11.85 30.15 -11.8 29.9 -11.9 29.65 -12.0 28.7 -12.0 28.45 -11.95 28.2 -11.8 27.75 -11.85 27.5 -11.75 27.25 -11.55 26.8 -11.6 26.55 -11.65 26.3 -11.55 26.05 -11.55 26.05 -11.6 26.3 -11.6 26.55 -11.55 26.8 -11.75 27.25 -11.8 27.5 -11.8 27.75 -11.95 28.2 -12.0 28.45 -12.0 28.7 -11.9 29.2 -11.85 29.65 -11.75 29.9 -11.8 30.15 -11.85 30.4 -11.75 30.9 -11.65 31.15 -11.75 31.35 -11.7 31.6 -12.0 32.0 -12.15 32.5 -12.2 32.75 -12.15 33.0 -12.25 33.5 -12.3 33.7 -12.7 34.05 -12.85 34.25 -13.05 34.35 -13.5 35.25 -13.75 35.35 -13.9 35.55 -14.35 35.75 -14.5 35.95 -14.75 36.4 -14.9 36.55 -15.1 36.75 -15.3 36.9 -15.55 36.9 -15.75 37.05 -16.0 37.1 -16.2 37.2 -16.4 37.4 -16.65 37.45 -16.9 37.45 -17.05 37.65" fill="#ffffff" fill-rule="evenodd" stroke="none"/>
  </g>
</svg>
