<?xml version="1.0" encoding="UTF-8" standalone="no"?>
<svg xmlns:xlink="http://www.w3.org/1999/xlink" height="118.7px" width="150.2px" xmlns="http://www.w3.org/2000/svg">
  <g transform="matrix(1.0, 0.0, 0.0, 1.0, 65.95, 78.55)">
    <path d="M16.1 -15.1 L15.85 -15.0 15.65 -15.0 15.4 -14.85 15.35 -14.8 15.65 -14.8 16.1 -14.6 16.6 -14.65 16.7 -14.65 16.55 -14.8 16.1 -15.1 M0.45 -20.7 L0.05 -20.95 -0.65 -21.6 -2.05 -22.05 -2.4 -22.45 -2.55 -22.9 -2.85 -23.25 -3.05 -23.7 -3.35 -24.05 -3.5 -24.4 -3.6 -24.3 -3.6 -24.05 -3.5 -23.8 -3.4 -23.35 -3.45 -22.85 -3.4 -22.6 -3.4 -22.35 -3.25 -22.15 -3.3 -21.9 -3.3 -21.65 -3.1 -21.45 -3.0 -21.25 -3.0 -21.0 -2.85 -20.8 -2.65 -20.7 -2.5 -20.5 -2.25 -20.4 -2.05 -20.25 -1.95 -20.0 -1.45 -19.85 -1.15 -19.45 -0.9 -19.35 -0.75 -19.15 -0.35 -18.85 -0.1 -18.8 0.1 -18.65 0.5 -18.35 0.75 -18.25 0.8 -18.15 0.9 -18.45 1.0 -19.4 0.9 -19.85 0.75 -20.3 0.45 -20.7 M13.1 -35.7 L12.9 -35.6 12.65 -35.5 12.5 -35.35 12.35 -35.15 11.75 -34.65 11.6 -34.4 11.2 -34.2 11.0 -34.05 10.75 -33.95 10.25 -33.85 10.0 -33.9 9.8 -33.7 9.55 -33.75 9.35 -33.6 9.1 -33.65 8.85 -33.55 8.65 -33.4 8.4 -33.4 8.15 -33.4 7.9 -33.45 7.7 -33.6 7.45 -33.6 7.0 -33.75 6.55 -33.9 6.3 -33.9 6.05 -34.05 5.8 -34.05 5.6 -34.2 5.35 -34.2 4.95 -34.45 4.75 -34.65 4.7 -34.9 4.5 -35.05 4.4 -35.25 4.25 -35.45 4.1 -35.65 3.85 -35.75 3.75 -36.0 3.6 -36.2 3.4 -36.3 3.25 -36.5 3.05 -36.65 2.9 -36.85 2.85 -37.1 2.65 -37.3 2.6 -37.5 2.45 -37.95 2.25 -38.15 1.95 -38.5 1.85 -38.7 1.2 -39.1 0.95 -39.2 0.8 -39.4 0.55 -39.65 0.8 -39.4 0.95 -39.2 1.2 -39.1 1.85 -38.7 1.95 -38.5 2.5 -37.95 2.6 -37.5 2.7 -37.3 2.85 -37.1 2.95 -36.85 3.05 -36.65 3.25 -36.5 3.4 -36.3 3.65 -36.2 3.75 -36.0 3.85 -35.75 4.1 -35.65 4.25 -35.5 4.4 -35.3 4.5 -35.05 4.7 -34.9 4.75 -34.65 5.35 -34.25 5.6 -34.2 5.8 -34.05 6.05 -34.05 6.3 -33.9 6.55 -33.9 7.0 -33.75 7.45 -33.6 7.7 -33.6 8.15 -33.4 8.4 -33.45 8.65 -33.45 8.85 -33.6 9.1 -33.65 9.35 -33.6 9.55 -33.75 9.8 -33.7 10.0 -33.9 10.25 -33.9 10.75 -33.95 11.0 -34.05 11.2 -34.2 11.6 -34.45 11.75 -34.65 12.35 -35.15 12.5 -35.35 12.65 -35.5 12.85 -35.65 13.1 -35.7 13.3 -35.85 13.55 -35.9 13.3 -35.85 13.1 -35.7 M13.8 -36.3 L14.0 -36.45 14.2 -36.65 14.45 -36.7 14.7 -36.75 14.85 -36.95 14.7 -36.75 14.45 -36.65 14.2 -36.65 14.0 -36.45 13.85 -36.3 13.7 -36.1 13.55 -35.9 13.65 -36.1 13.8 -36.3 M16.1 -37.6 L15.9 -37.5 15.75 -37.3 15.5 -37.3 15.25 -37.25 15.1 -37.05 14.85 -36.95 15.05 -37.05 15.25 -37.25 15.5 -37.3 15.75 -37.3 15.9 -37.5 16.1 -37.6 16.4 -37.65 16.55 -37.8 16.9 -38.2 17.0 -38.4 17.15 -38.6 17.2 -38.6 17.0 -38.4 16.9 -38.2 16.55 -37.8 16.4 -37.65 16.1 -37.6 M31.25 -38.45 L31.05 -38.45 31.25 -38.5 31.45 -38.3 31.7 -38.3 32.2 -38.15 32.4 -38.0 32.65 -38.05 33.05 -37.8 33.45 -37.45 33.6 -37.25 33.7 -37.0 34.5 -36.5 35.0 -36.4 35.2 -36.25 35.55 -35.9 35.75 -35.75 35.75 -35.7 35.55 -35.9 35.2 -36.25 34.75 -36.45 34.5 -36.45 33.65 -37.0 33.6 -37.25 33.45 -37.45 32.85 -37.9 32.65 -38.0 32.4 -37.95 32.2 -38.15 31.7 -38.3 31.45 -38.25 31.25 -38.45 M30.95 -38.45 L30.75 -38.45 30.3 -38.55 30.05 -38.5 29.8 -38.55 29.6 -38.65 29.35 -38.65 29.1 -38.6 28.85 -38.6 28.65 -38.5 28.4 -38.55 28.15 -38.55 27.9 -38.6 27.45 -38.85 27.2 -38.8 26.7 -38.9 26.55 -39.1 26.35 -39.2 25.85 -39.3 25.6 -39.25 25.4 -39.3 25.15 -39.3 24.9 -39.3 24.65 -39.3 24.45 -39.2 23.95 -39.2 24.45 -39.2 24.65 -39.3 24.9 -39.3 25.15 -39.35 25.6 -39.25 25.85 -39.3 26.35 -39.25 26.55 -39.15 26.75 -38.9 27.0 -38.9 27.2 -38.85 27.5 -38.9 27.9 -38.6 28.15 -38.55 28.4 -38.55 28.65 -38.5 28.85 -38.6 29.35 -38.7 29.6 -38.7 29.8 -38.55 30.05 -38.5 30.3 -38.6 30.75 -38.45 30.95 -38.45 M0.1 -40.05 L0.4 -39.75 0.1 -40.0 -0.05 -40.25 -0.05 -40.25 0.1 -40.05 M0.9 -65.5 L0.9 -65.5 0.45 -65.25 0.4 -65.0 0.25 -64.8 0.0 -64.7 -0.1 -64.6 0.0 -64.7 0.25 -64.8 0.35 -65.0 0.45 -65.25 0.9 -65.5 M8.3 -73.95 L8.5 -74.05 8.75 -74.05 8.95 -74.15 9.15 -74.15 8.95 -74.15 8.75 -74.05 8.5 -74.05 8.3 -73.9 8.05 -73.85 7.8 -73.85 7.55 -73.8 7.1 -73.6 6.9 -73.55 6.6 -73.15 6.4 -73.0 6.25 -72.8 6.0 -72.75 5.85 -72.55 5.8 -72.3 5.55 -72.15 5.8 -72.3 5.8 -72.55 5.95 -72.75 6.2 -72.8 6.4 -73.0 6.6 -73.15 6.9 -73.55 7.1 -73.6 7.35 -73.7 7.8 -73.85 8.05 -73.85 8.3 -73.95 M10.4 -74.2 L10.2 -74.2 9.7 -74.05 9.3 -74.1 9.7 -74.1 10.2 -74.2 10.4 -74.2 10.4 -74.2 M12.1 -74.0 L11.85 -73.95 11.6 -73.95 11.35 -74.05 11.15 -74.0 10.7 -74.1 11.15 -74.0 11.35 -74.05 11.85 -73.95 12.1 -74.0 12.35 -73.9 12.85 -74.0 13.1 -74.0 13.3 -73.9 13.55 -73.95 13.55 -73.95 13.3 -73.9 13.1 -74.0 12.85 -73.95 12.35 -73.85 12.1 -74.0 M18.55 -73.9 L18.8 -73.9 19.25 -74.05 19.25 -74.05 18.8 -73.9 18.55 -73.9 18.3 -73.85 18.1 -73.95 17.85 -73.8 17.6 -73.85 17.35 -73.75 17.15 -73.8 16.9 -73.8 16.65 -73.85 16.15 -73.75 15.7 -73.55 15.45 -73.65 15.25 -73.65 15.0 -73.75 14.5 -73.85 14.25 -73.8 14.05 -73.7 14.05 -73.7 14.25 -73.85 14.5 -73.9 14.75 -73.8 15.0 -73.75 15.25 -73.65 15.45 -73.65 15.7 -73.55 16.15 -73.75 16.65 -73.85 16.9 -73.8 17.15 -73.85 17.35 -73.75 17.6 -73.85 17.85 -73.8 18.1 -73.95 18.3 -73.85 18.55 -73.9 M46.75 -39.95 L47.0 -39.9 47.1 -39.65 47.3 -39.5 47.55 -39.45 47.75 -39.3 48.0 -39.3 Q48.1 -39.25 48.2 -39.2 L48.45 -39.15 48.2 -39.15 48.0 -39.3 47.75 -39.3 47.55 -39.45 47.3 -39.45 47.1 -39.65 47.0 -39.85 46.75 -39.95 M46.5 -40.05 L46.4 -40.3 46.15 -40.35 46.05 -40.5 46.15 -40.35 46.4 -40.3 46.5 -40.05 46.5 -40.05 M44.25 -41.9 L44.4 -41.75 44.65 -41.7 44.9 -41.55 45.05 -41.4 45.3 -41.3 45.4 -41.05 45.65 -41.0 45.8 -40.75 45.95 -40.6 45.8 -40.75 45.65 -40.95 45.4 -41.05 45.3 -41.3 45.05 -41.4 44.9 -41.55 44.4 -41.75 44.2 -41.9 44.1 -42.0 44.25 -41.9 M41.5 -43.45 L41.75 -43.45 42.1 -43.2 41.75 -43.45 41.5 -43.45 41.3 -43.6 41.15 -43.8 41.15 -43.8 41.3 -43.6 41.5 -43.45 M42.65 -43.05 L42.85 -42.95 43.05 -42.8 43.05 -42.8 42.85 -42.95 42.65 -43.05 M43.5 -42.6 L43.5 -42.6 43.75 -42.35 43.5 -42.6 M39.85 -44.85 L39.7 -45.0 39.85 -44.9 40.15 -44.5 40.35 -44.35 40.15 -44.5 39.85 -44.85 M36.45 -47.15 L36.7 -47.1 37.1 -46.8 37.25 -46.65 37.55 -46.55 38.1 -46.15 38.6 -46.05 38.8 -45.9 39.1 -45.45 39.35 -45.4 39.45 -45.2 39.55 -45.1 39.45 -45.15 39.3 -45.4 39.1 -45.45 38.8 -45.9 38.6 -46.05 38.35 -46.05 38.1 -46.1 37.5 -46.55 37.25 -46.6 37.1 -46.8 36.9 -46.9 36.7 -47.1 36.45 -47.15 35.0 -47.65 34.85 -47.85 34.65 -48.0 34.35 -48.35 34.3 -48.6 34.05 -48.7 33.85 -48.9 33.0 -49.3 32.3 -49.55 32.05 -49.6 31.85 -49.75 31.4 -49.95 30.7 -50.1 30.0 -49.85 29.75 -49.85 29.5 -49.9 29.3 -49.8 29.1 -49.6 28.85 -49.6 28.45 -49.25 28.2 -49.25 27.95 -49.15 27.7 -49.25 27.5 -49.1 26.8 -48.9 26.55 -48.9 26.35 -48.8 26.1 -48.8 25.85 -48.65 25.65 -48.7 24.9 -48.65 24.45 -48.5 24.2 -48.55 23.95 -48.45 23.45 -48.45 23.2 -48.45 22.75 -48.55 22.25 -48.5 22.0 -48.6 21.75 -48.45 20.8 -48.85 20.6 -48.8 20.1 -48.9 19.85 -49.0 19.6 -48.9 19.4 -48.85 19.05 -48.45 18.85 -48.3 18.6 -48.3 18.4 -48.2 18.2 -48.05 17.95 -48.0 17.7 -48.0 17.3 -47.7 17.1 -47.6 16.85 -47.6 16.6 -47.5 16.35 -47.6 15.95 -47.35 15.6 -46.95 15.35 -46.9 14.95 -46.7 14.8 -46.55 16.15 -46.05 16.6 -46.0 17.8 -45.1 18.2 -44.95 18.9 -44.2 19.15 -43.8 19.55 -43.5 19.5 -43.45 19.1 -43.75 18.85 -44.2 18.2 -44.9 17.75 -45.1 16.6 -45.95 16.1 -46.0 14.75 -46.55 14.25 -46.65 13.85 -46.9 13.35 -46.95 12.4 -47.1 11.95 -47.05 11.45 -47.15 11.0 -47.35 10.65 -47.65 8.55 -48.8 8.05 -48.95 7.15 -49.25 6.7 -49.2 5.75 -48.9 5.35 -48.9 5.5 -48.75 6.25 -48.5 6.35 -48.25 6.5 -48.05 6.75 -48.05 6.9 -47.85 7.15 -47.75 7.25 -47.5 7.55 -47.1 7.75 -47.0 7.9 -46.8 8.1 -46.7 8.35 -46.7 8.6 -46.6 8.7 -46.4 8.8 -46.1 9.15 -45.8 9.4 -45.65 9.55 -45.5 9.65 -45.3 9.9 -45.25 10.35 -45.05 10.75 -44.75 10.9 -44.55 11.1 -44.45 11.6 -44.35 11.75 -44.15 12.05 -43.75 12.3 -43.7 12.55 -43.75 13.2 -43.4 13.45 -43.45 13.7 -43.35 13.95 -43.4 14.2 -43.4 14.6 -43.1 14.75 -42.9 15.2 -42.65 15.3 -42.45 15.35 -42.2 15.55 -41.75 15.6 -41.45 15.75 -41.25 15.8 -41.0 15.9 -40.8 16.0 -40.55 16.35 -40.2 16.45 -40.0 16.7 -39.9 17.1 -39.6 17.35 -39.55 17.55 -39.4 18.05 -39.5 18.5 -39.3 18.75 -39.35 19.2 -39.15 19.45 -39.25 19.9 -39.05 20.6 -38.85 21.05 -39.0 21.3 -39.05 21.55 -38.95 21.8 -39.0 22.75 -39.0 23.0 -38.9 23.7 -39.2 23.95 -39.2 23.7 -39.15 23.0 -38.9 22.75 -39.0 21.8 -39.0 21.55 -38.95 21.3 -39.05 21.1 -39.0 20.6 -38.8 20.15 -39.0 19.9 -39.0 19.7 -39.15 19.45 -39.2 19.2 -39.1 18.75 -39.3 18.5 -39.3 18.25 -39.35 18.05 -39.5 17.55 -39.4 17.35 -39.55 17.05 -39.55 16.65 -39.9 16.45 -40.0 16.3 -40.2 15.95 -40.55 15.9 -40.8 15.8 -41.0 15.7 -41.25 15.6 -41.45 15.55 -41.7 15.35 -42.2 15.3 -42.45 15.15 -42.65 14.7 -42.85 14.6 -43.1 14.2 -43.35 13.7 -43.3 13.45 -43.4 13.2 -43.35 12.55 -43.7 12.3 -43.65 12.05 -43.7 11.75 -44.1 11.55 -44.3 11.05 -44.4 10.85 -44.55 10.7 -44.7 10.5 -44.85 10.35 -45.0 9.9 -45.2 9.65 -45.25 9.55 -45.5 9.35 -45.65 9.15 -45.75 8.75 -46.1 8.7 -46.35 8.6 -46.6 8.35 -46.65 7.85 -46.75 7.75 -47.0 7.5 -47.1 7.2 -47.5 7.15 -47.75 6.9 -47.8 6.75 -48.0 6.5 -48.05 6.3 -48.2 6.2 -48.45 5.45 -48.7 5.25 -48.9 4.8 -48.85 4.35 -48.95 3.85 -48.9 2.9 -48.9 2.45 -48.7 1.95 -48.65 1.45 -48.7 0.5 -48.7 0.0 -48.75 -0.45 -48.55 -0.95 -48.55 -1.35 -48.4 -1.75 -48.1 -2.45 -47.4 -2.9 -47.2 -3.8 -46.9 -4.8 -47.0 -5.25 -46.8 -5.7 -46.75 -6.7 -46.7 -7.15 -46.85 -8.1 -46.95 -8.55 -47.2 -9.05 -47.25 -9.45 -47.45 -10.3 -47.55 -10.4 -47.55 -10.65 -47.5 -10.7 -47.45 -10.55 -47.4 -9.9 -46.6 -9.5 -46.25 -9.3 -46.15 -9.1 -46.0 -8.8 -45.6 -8.65 -45.45 -8.35 -45.4 -8.2 -45.2 -7.95 -45.1 -7.85 -44.85 -7.65 -44.75 -6.95 -44.45 -6.8 -44.3 -6.6 -44.15 -6.5 -43.9 -6.25 -43.8 -6.1 -43.6 -5.85 -43.5 -5.5 -43.2 -5.05 -42.95 -4.75 -42.55 -4.5 -42.6 -4.3 -42.45 -3.75 -42.45 -3.4 -42.2 -2.9 -42.05 -2.7 -41.85 -2.5 -41.75 -2.25 -41.7 -1.75 -41.15 -1.55 -41.0 -1.4 -40.8 -1.2 -40.65 -0.75 -40.55 -0.55 -40.35 -0.55 -40.35 -0.75 -40.5 -1.2 -40.65 -1.4 -40.8 -1.55 -41.0 -1.75 -41.1 -2.25 -41.65 -2.75 -41.85 -2.9 -42.05 -3.4 -42.2 -3.8 -42.45 -4.3 -42.4 -4.5 -42.55 -4.75 -42.55 -5.05 -42.95 -5.5 -43.2 -5.85 -43.5 -6.1 -43.6 -6.25 -43.8 -6.5 -43.9 -6.6 -44.1 -6.8 -44.25 -6.95 -44.45 -7.2 -44.5 -7.7 -44.7 -7.9 -44.85 -8.0 -45.1 -8.2 -45.2 -8.4 -45.35 -8.85 -45.55 -8.95 -45.8 -9.1 -46.0 -9.3 -46.15 -9.55 -46.25 -9.9 -46.55 -10.55 -47.35 -10.7 -47.45 -10.8 -47.35 -11.25 -47.1 -11.7 -46.95 -12.2 -46.95 -12.2 -46.9 -12.7 -46.95 -13.2 -46.85 -13.65 -46.7 -14.6 -46.65 -15.1 -46.5 -15.55 -46.5 -16.0 -46.3 -16.45 -46.15 -16.8 -45.75 -18.0 -45.05 -18.2 -44.1 -18.45 -43.7 -18.85 -42.8 -19.15 -42.4 -19.65 -41.55 -20.0 -41.25 -20.35 -40.9 -20.7 -40.55 -21.45 -40.1 -21.55 -39.95 -21.55 -39.7 -21.75 -39.5 -22.05 -39.1 -22.2 -38.95 -22.3 -38.7 -22.45 -38.55 -22.9 -37.9 -23.0 -37.65 -23.1 -37.45 -23.25 -37.3 -23.45 -37.0 -23.2 -36.95 -23.05 -36.8 -22.3 -36.55 -22.15 -36.35 -21.4 -36.25 -21.2 -36.1 -20.95 -36.1 -20.5 -35.9 -19.8 -35.8 -19.55 -35.8 -18.65 -35.35 -18.45 -35.3 -18.25 -35.15 -18.0 -35.15 -17.5 -35.1 -17.1 -34.85 -17.5 -35.05 -18.0 -35.15 -18.25 -35.1 -18.45 -35.25 -19.55 -35.8 -19.8 -35.75 -20.05 -35.85 -20.25 -35.85 -20.5 -35.85 -20.95 -36.1 -21.2 -36.1 -21.4 -36.2 -22.15 -36.35 -22.35 -36.55 -23.05 -36.8 -23.25 -36.95 -23.45 -36.95 -23.5 -36.85 -23.55 -36.6 -23.6 -36.6 -23.1 -36.4 -22.9 -36.25 -22.7 -36.15 -22.55 -35.95 -22.05 -35.75 -22.0 -35.5 -21.5 -35.35 -21.35 -35.15 -21.15 -35.0 -20.9 -34.95 -20.3 -34.5 -20.05 -34.45 -19.85 -34.35 -19.35 -33.8 -18.95 -33.5 -18.8 -33.3 -18.55 -33.2 -18.4 -33.05 -18.2 -32.85 -17.8 -32.55 -17.65 -32.4 -17.45 -32.3 -17.2 -32.25 -17.0 -32.1 -16.75 -32.05 -16.25 -32.05 -16.0 -32.1 -15.8 -32.0 -15.55 -32.0 -15.3 -32.1 -15.05 -32.0 -14.8 -32.05 -14.6 -32.0 -14.35 -32.05 -14.1 -32.05 -13.85 -32.1 -13.6 -32.15 -13.35 -32.05 -13.15 -32.15 -12.9 -32.15 -12.65 -32.1 -12.4 -31.95 -12.15 -31.95 -11.95 -31.8 -11.45 -31.9 -11.2 -31.9 -10.75 -31.6 -10.6 -31.4 -10.15 -31.15 -9.9 -31.1 -9.65 -31.15 -9.45 -31.1 -9.15 -31.1 -8.95 -31.05 -8.75 -30.9 -8.5 -30.8 -8.25 -30.85 -8.0 -30.8 -7.95 -30.75 -7.5 -31.05 -7.25 -31.5 -6.75 -31.95 -6.95 -32.15 -7.15 -32.3 -7.55 -32.95 -7.8 -32.95 -8.0 -33.05 -8.25 -33.05 -8.45 -33.25 -8.7 -33.25 -9.2 -33.1 -9.4 -33.25 -9.85 -33.45 -10.05 -33.6 -10.55 -33.65 -10.75 -33.85 -11.0 -33.95 -11.35 -34.3 -11.8 -34.55 -12.05 -34.5 -12.25 -34.65 -12.5 -34.75 -12.9 -35.0 -13.15 -34.95 -13.4 -34.95 -13.65 -35.0 -13.85 -34.9 -14.1 -34.8 -14.35 -34.8 -14.55 -34.75 -14.8 -34.6 -15.0 -34.55 -15.25 -34.45 -15.75 -34.3 -16.0 -34.35 -16.25 -34.45 -16.5 -34.4 -16.7 -34.55 -16.7 -34.6 -16.5 -34.4 -16.25 -34.45 -15.75 -34.35 -15.25 -34.45 -15.05 -34.6 -14.8 -34.6 -14.55 -34.75 -14.35 -34.85 -14.1 -34.85 -13.85 -34.9 -13.65 -35.05 -13.4 -34.95 -13.15 -34.95 -12.9 -35.05 -12.5 -34.75 -12.25 -34.65 -12.05 -34.5 -11.8 -34.55 -11.35 -34.3 -11.0 -33.95 -10.75 -33.85 -10.55 -33.7 -10.05 -33.6 -9.85 -33.45 -9.2 -33.15 -8.7 -33.25 -8.45 -33.25 -8.25 -33.05 -8.0 -33.05 -7.55 -32.95 -7.15 -32.3 -6.95 -32.15 -6.75 -31.95 -6.55 -32.15 -5.3 -32.9 -5.25 -32.85 -6.5 -32.1 -6.75 -31.95 -6.65 -31.75 -6.5 -31.55 -6.25 -31.4 -6.1 -31.25 -6.0 -31.0 -5.75 -30.95 -5.6 -30.75 -5.75 -30.95 -6.0 -31.0 -6.1 -31.25 -6.25 -31.4 -6.5 -31.55 -6.65 -31.75 -6.75 -31.95 -6.9 -31.8 -7.2 -31.45 -7.45 -31.05 -7.9 -30.7 -7.8 -30.7 -7.05 -30.5 -6.8 -30.05 -6.3 -29.55 -6.2 -29.3 -5.75 -29.1 -5.45 -28.7 -5.25 -28.55 -5.15 -28.35 -4.65 -28.2 -4.25 -27.9 -4.1 -27.65 -3.8 -27.3 -3.3 -27.25 -3.05 -27.15 -2.9 -27.0 -2.65 -26.9 -2.45 -26.75 -2.2 -26.75 -2.0 -26.65 -1.75 -26.65 -1.5 -26.6 -1.25 -26.6 -1.05 -26.5 -0.8 -26.5 -0.6 -26.35 -0.4 -26.15 -0.2 -26.05 0.05 -26.05 0.2 -25.85 0.4 -25.7 0.85 -25.4 1.1 -25.45 1.35 -25.55 1.55 -25.5 1.8 -25.6 2.0 -25.75 2.25 -25.75 2.45 -25.9 2.7 -26.0 3.0 -26.4 3.2 -26.5 3.4 -26.65 3.65 -26.75 3.85 -26.9 4.05 -26.95 4.55 -27.05 4.8 -26.95 4.8 -26.95 4.6 -27.0 4.1 -26.95 3.85 -26.85 3.65 -26.7 3.45 -26.6 3.2 -26.5 3.0 -26.4 2.7 -26.0 2.45 -25.9 2.25 -25.75 2.0 -25.75 1.8 -25.6 1.55 -25.5 1.35 -25.55 1.1 -25.45 0.85 -25.4 0.65 -25.55 0.4 -25.65 0.2 -25.8 0.05 -26.05 -0.2 -26.0 -0.4 -26.15 -0.8 -26.45 -1.05 -26.5 -1.25 -26.6 -1.5 -26.6 -1.75 -26.65 -2.0 -26.65 -2.2 -26.75 -2.5 -26.7 -2.7 -26.85 -2.9 -26.95 -3.05 -27.15 -3.3 -27.25 -3.8 -27.3 -3.95 -27.5 -4.15 -27.65 -4.25 -27.85 -4.65 -28.2 -5.15 -28.3 -5.25 -28.55 -5.45 -28.7 -5.75 -29.1 -6.2 -29.3 -6.3 -29.5 -6.85 -30.05 -6.95 -30.25 -7.1 -30.5 -7.8 -30.65 -7.9 -30.7 -10.85 -28.3 -11.25 -28.1 -12.7 -27.8 -13.1 -27.5 -13.6 -27.4 -14.05 -27.4 -14.95 -27.05 -15.95 -27.0 -17.35 -27.3 -18.85 -27.3 -19.3 -27.2 -19.8 -27.15 -20.75 -27.45 -21.25 -27.45 -21.7 -27.6 -22.7 -27.75 -23.05 -28.1 -23.5 -28.35 -23.65 -28.5 -23.7 -28.5 -23.9 -28.05 -24.5 -27.3 -24.75 -26.9 -25.0 -26.2 -24.3 -25.8 -24.0 -25.35 -23.15 -25.05 -22.85 -24.85 -22.0 -24.6 -21.45 -24.25 -20.5 -24.1 -20.0 -24.2 -19.55 -24.05 -18.1 -24.1 -17.6 -24.25 -17.2 -24.45 -16.7 -24.45 -16.3 -24.75 -15.85 -24.85 -15.05 -25.4 -13.7 -26.0 -12.75 -26.05 -10.95 -26.8 -10.45 -26.9 -9.0 -26.75 -8.55 -26.8 -8.05 -26.65 -7.6 -26.65 -6.15 -26.45 -5.7 -26.25 -5.35 -25.9 -4.4 -25.6 -4.0 -25.35 -3.7 -25.0 -3.3 -24.1 -3.0 -23.75 -2.8 -23.3 -2.5 -22.95 -2.3 -22.45 -2.0 -22.1 -0.6 -21.65 0.1 -21.05 0.5 -20.8 0.8 -20.35 1.0 -19.9 1.05 -19.45 0.95 -18.45 0.85 -18.05 1.05 -17.9 1.2 -17.7 1.3 -17.45 1.4 -17.35 3.7 -16.5 7.25 -16.05 7.5 -16.3 7.95 -16.55 8.3 -16.9 8.75 -17.05 9.2 -17.3 9.55 -17.65 11.4 -19.2 11.8 -19.45 12.3 -19.5 12.75 -19.7 13.7 -19.95 14.5 -20.45 14.95 -20.65 16.15 -21.5 17.45 -22.05 17.9 -22.25 18.8 -22.55 19.3 -22.55 19.75 -22.7 20.75 -22.65 22.6 -23.15 23.1 -23.1 23.6 -23.1 24.4 -23.55 24.95 -24.3 25.7 -24.9 26.15 -25.1 26.65 -25.15 27.6 -25.45 28.1 -25.4 29.05 -25.5 30.0 -25.35 30.4 -25.6 30.9 -25.6 31.4 -25.7 31.8 -25.85 32.6 -26.4 33.55 -26.55 34.95 -26.1 35.45 -26.1 35.9 -26.0 36.4 -26.0 37.35 -25.75 39.25 -25.6 40.2 -25.7 42.1 -26.15 42.6 -26.1 43.05 -26.25 43.55 -26.3 44.0 -26.4 44.75 -27.05 45.25 -27.1 45.75 -27.0 46.2 -27.1 47.15 -26.9 47.55 -26.6 49.45 -26.2 51.2 -25.35 51.25 -25.3 51.35 -25.3 51.8 -25.45 52.1 -25.85 52.3 -26.0 52.75 -26.2 52.9 -26.35 53.15 -26.45 53.35 -26.6 53.55 -26.7 53.75 -26.85 54.0 -26.95 54.15 -27.1 54.6 -27.3 55.0 -27.6 55.25 -27.65 55.45 -27.75 55.7 -27.8 55.95 -27.75 56.15 -27.9 56.65 -28.0 56.85 -28.05 57.05 -28.2 57.3 -28.3 57.55 -28.25 57.8 -28.35 58.05 -28.4 58.25 -28.3 58.75 -28.45 58.95 -28.65 59.45 -28.55 59.65 -28.7 59.9 -28.8 60.15 -28.75 60.85 -28.95 61.0 -29.15 61.2 -29.3 61.4 -29.4 61.6 -29.55 61.8 -29.65 61.95 -29.85 62.2 -30.0 62.3 -30.25 62.35 -30.5 62.45 -30.7 62.55 -30.9 63.3 -31.65 63.5 -31.7 63.75 -31.85 64.2 -31.9 64.45 -31.9 64.9 -32.1 65.15 -32.15 65.35 -32.25 65.6 -32.1 65.85 -32.1 66.1 -32.1 66.3 -31.95 66.55 -31.95 66.95 -31.65 66.95 -31.65 66.55 -31.95 66.3 -31.95 66.1 -32.05 65.85 -32.1 65.6 -32.1 65.35 -32.2 65.15 -32.1 64.9 -32.1 64.45 -31.85 64.2 -31.9 63.75 -31.8 63.55 -31.65 63.3 -31.65 62.6 -30.9 62.5 -30.65 62.35 -30.45 62.3 -30.2 62.2 -30.0 62.0 -29.85 61.85 -29.65 61.6 -29.55 61.45 -29.35 61.2 -29.3 61.0 -29.15 60.85 -28.95 60.15 -28.75 59.9 -28.75 59.65 -28.65 59.45 -28.5 58.95 -28.6 58.75 -28.45 58.25 -28.3 58.05 -28.35 57.8 -28.3 57.55 -28.25 57.3 -28.25 57.1 -28.2 56.9 -28.0 56.65 -27.95 56.15 -27.9 55.95 -27.75 55.7 -27.75 55.45 -27.75 55.25 -27.6 55.0 -27.55 54.8 -27.4 54.6 -27.25 54.15 -27.1 54.0 -26.9 53.75 -26.85 53.6 -26.65 53.35 -26.55 53.15 -26.45 52.95 -26.3 52.75 -26.15 52.35 -25.95 52.15 -25.8 51.8 -25.45 51.6 -25.35 51.35 -25.25 51.3 -25.25 51.55 -25.05 52.05 -24.2 52.9 -23.7 53.15 -23.3 53.85 -22.7 54.15 -22.3 54.5 -21.95 54.95 -21.75 55.2 -21.3 55.35 -21.1 55.6 -21.0 55.7 -20.8 56.05 -20.4 56.25 -20.3 56.4 -20.1 56.55 -19.9 56.7 -19.7 56.9 -19.65 57.3 -19.3 57.55 -19.3 57.7 -19.1 57.9 -18.95 58.2 -18.5 59.05 -18.05 59.25 -17.9 59.5 -17.9 59.7 -17.7 59.8 -17.45 60.2 -17.2 60.45 -16.75 60.5 -16.5 60.75 -16.4 60.8 -16.15 61.05 -15.75 Q61.2 -15.7 61.3 -15.65 L61.4 -15.4 61.7 -15.05 62.1 -14.4 62.25 -14.2 62.35 -13.95 62.55 -13.8 62.75 -13.7 63.1 -13.4 63.25 -13.2 63.3 -12.95 63.5 -12.45 63.65 -12.25 63.85 -12.1 64.1 -12.05 64.25 -11.85 64.4 -11.7 64.85 -11.4 64.95 -11.2 65.2 -11.1 65.25 -10.85 65.45 -10.7 65.65 -10.5 65.75 -10.3 65.9 -10.1 66.2 -9.75 66.45 -9.65 66.5 -9.4 66.75 -9.35 66.9 -9.1 67.25 -8.8 67.55 -8.75 67.95 -8.5 68.85 -8.2 69.1 -7.7 69.25 -7.55 69.4 -7.3 69.6 -7.25 69.8 -7.1 69.9 -6.85 70.55 -6.45 70.65 -6.25 71.1 -6.0 71.85 -5.85 72.05 -5.7 72.2 -5.55 72.7 -5.35 72.8 -5.15 73.0 -5.0 73.2 -4.55 73.2 -4.3 73.4 -4.15 73.95 -3.6 73.95 -3.35 74.15 -3.15 74.2 -3.0 74.15 -3.15 73.95 -3.35 73.9 -3.6 73.4 -4.15 73.2 -4.3 73.2 -4.55 73.0 -5.0 Q72.9 -5.05 72.8 -5.1 L72.65 -5.35 72.2 -5.55 72.05 -5.7 71.85 -5.85 71.1 -6.0 70.65 -6.2 70.55 -6.45 69.9 -6.85 69.8 -7.05 69.6 -7.2 69.35 -7.3 69.25 -7.55 69.05 -7.7 68.85 -8.15 67.9 -8.5 67.75 -8.65 67.5 -8.75 67.25 -8.75 66.9 -9.1 66.75 -9.3 66.5 -9.4 66.4 -9.65 66.15 -9.75 65.9 -10.1 65.7 -10.25 65.6 -10.5 65.45 -10.7 65.25 -10.85 65.15 -11.1 64.9 -11.15 64.8 -11.4 64.6 -11.55 64.4 -11.65 64.2 -11.85 64.05 -12.0 63.8 -12.1 63.65 -12.25 63.5 -12.45 63.3 -12.9 63.25 -13.15 63.1 -13.35 62.75 -13.65 62.5 -13.8 62.35 -13.95 62.2 -14.2 62.05 -14.35 61.7 -15.0 61.4 -15.35 61.3 -15.6 61.05 -15.7 60.75 -16.15 60.7 -16.35 60.45 -16.5 60.4 -16.75 60.2 -17.2 60.0 -17.3 59.8 -17.45 59.65 -17.65 59.5 -17.85 59.25 -17.85 59.05 -18.05 58.6 -18.2 58.2 -18.5 57.85 -18.9 57.7 -19.05 57.55 -19.25 57.25 -19.3 56.9 -19.6 56.65 -19.65 56.5 -19.9 56.35 -20.05 56.2 -20.25 56.0 -20.4 55.7 -20.75 55.55 -20.95 Q55.45 -21.0 55.3 -21.1 L55.15 -21.25 54.9 -21.7 54.55 -21.85 54.75 -21.55 55.15 -21.2 56.0 -20.05 56.45 -19.85 56.75 -19.45 57.15 -19.15 57.5 -18.8 57.7 -18.35 58.05 -18.0 58.3 -17.55 58.45 -17.1 58.75 -16.75 59.55 -16.2 59.9 -15.85 60.3 -15.6 60.6 -15.2 60.9 -14.85 61.8 -14.45 61.8 -14.4 60.9 -14.8 60.55 -15.15 60.3 -15.55 59.85 -15.8 59.5 -16.15 58.7 -16.7 58.4 -17.1 58.25 -17.55 58.0 -17.95 57.65 -18.35 57.45 -18.75 56.7 -19.4 56.4 -19.8 56.0 -20.05 55.1 -21.2 54.75 -21.5 54.45 -21.9 54.1 -22.25 53.85 -22.65 53.1 -23.25 52.85 -23.65 52.0 -24.2 51.5 -25.0 51.2 -25.25 51.1 -25.25 50.85 -25.3 50.65 -25.1 50.4 -25.1 50.2 -24.9 49.95 -24.9 49.75 -24.85 49.7 -24.9 49.95 -24.9 50.2 -24.95 50.4 -25.1 50.65 -25.1 50.8 -25.3 51.1 -25.25 51.15 -25.25 51.15 -25.3 50.25 -25.65 49.45 -26.15 47.55 -26.55 47.15 -26.85 46.2 -27.05 45.75 -26.95 45.25 -27.05 44.8 -27.0 44.05 -26.35 43.55 -26.2 43.05 -26.2 42.6 -26.05 42.1 -26.1 40.25 -25.65 39.25 -25.55 38.8 -25.6 38.95 -25.4 39.15 -25.35 39.35 -25.15 39.55 -25.1 39.75 -24.9 39.95 -24.8 40.65 -24.6 40.9 -24.65 41.15 -24.6 41.4 -24.6 41.9 -24.7 42.15 -24.55 42.4 -24.5 42.85 -24.3 43.1 -24.3 43.35 -24.4 43.55 -24.45 44.05 -24.4 44.3 -24.4 44.5 -24.6 44.7 -24.7 44.9 -24.85 45.45 -24.75 45.9 -25.0 46.15 -25.0 46.35 -25.15 46.6 -25.15 46.85 -25.15 47.1 -25.15 47.3 -25.1 47.55 -25.15 48.05 -25.05 48.3 -25.1 48.5 -25.1 49.0 -25.1 49.5 -24.9 49.7 -24.9 49.7 -24.85 49.5 -24.85 49.0 -25.05 48.55 -25.05 48.3 -25.1 48.05 -25.0 47.55 -25.1 47.3 -25.05 47.1 -25.15 46.85 -25.1 46.6 -25.1 46.35 -25.1 46.15 -24.95 45.9 -24.95 45.45 -24.7 44.95 -24.8 44.75 -24.65 44.5 -24.55 44.35 -24.35 44.1 -24.35 43.55 -24.4 43.35 -24.35 43.1 -24.25 42.85 -24.25 42.4 -24.45 42.15 -24.5 41.9 -24.65 41.4 -24.5 40.9 -24.6 40.65 -24.55 40.4 -24.55 39.95 -24.7 39.55 -25.0 39.3 -25.1 39.15 -25.3 38.9 -25.35 38.75 -25.6 38.3 -25.65 37.3 -25.65 36.4 -25.9 35.9 -25.9 35.45 -26.05 34.95 -26.05 33.6 -26.5 33.1 -26.35 32.65 -26.35 31.85 -25.75 30.9 -25.5 30.45 -25.5 30.0 -25.3 29.5 -25.3 29.05 -25.4 28.1 -25.3 27.6 -25.35 26.7 -25.05 26.2 -25.0 25.8 -24.85 25.05 -24.25 24.45 -23.45 23.6 -23.0 23.1 -23.0 22.6 -23.05 20.75 -22.55 19.8 -22.6 19.3 -22.45 18.85 -22.4 18.4 -22.3 16.2 -21.35 15.8 -21.1 15.05 -20.5 14.55 -20.3 13.75 -19.85 12.8 -19.6 12.35 -19.4 11.9 -19.3 11.45 -19.1 9.25 -17.15 8.85 -16.95 8.4 -16.75 8.05 -16.45 7.65 -16.2 7.45 -16.0 8.0 -15.95 11.5 -14.2 12.25 -14.0 13.35 -14.3 13.8 -14.45 14.2 -14.7 14.45 -14.8 14.6 -14.85 14.7 -14.85 14.7 -14.85 14.95 -14.8 15.15 -14.8 15.15 -14.8 15.2 -14.8 15.4 -14.9 15.6 -15.05 15.85 -15.05 16.1 -15.15 16.75 -14.7 17.0 -14.6 17.05 -14.6 17.05 -14.6 17.5 -14.5 17.5 -14.5 19.85 -13.8 20.25 -13.5 21.95 -12.6 22.25 -12.2 22.6 -11.85 23.75 -9.75 24.0 -9.35 24.65 -8.6 25.1 -7.75 25.4 -7.35 25.45 -7.35 25.65 -7.35 25.85 -7.2 26.1 -7.15 26.35 -7.2 26.6 -7.2 26.8 -7.1 27.05 -7.1 27.3 -7.15 27.5 -7.1 27.75 -7.1 28.0 -7.1 28.5 -7.0 28.95 -7.25 29.15 -7.4 29.35 -7.5 29.75 -7.85 30.0 -8.3 30.2 -8.4 30.5 -8.8 30.7 -8.9 30.85 -9.1 31.05 -9.25 31.2 -9.45 31.2 -9.7 31.35 -9.95 31.4 -10.15 31.35 -10.4 31.35 -10.9 31.3 -11.1 31.5 -11.6 31.55 -11.85 31.6 -12.05 31.75 -12.3 31.9 -12.45 32.15 -12.6 32.2 -12.8 32.4 -12.95 32.55 -13.15 32.75 -13.3 33.3 -13.4 33.55 -13.35 33.75 -13.45 34.0 -13.45 34.25 -13.6 34.45 -13.55 34.7 -13.6 34.95 -13.7 35.2 -13.65 35.4 -13.75 35.65 -13.75 35.9 -13.85 36.1 -13.9 36.65 -13.8 36.85 -13.95 37.05 -13.95 37.3 -14.1 37.55 -14.05 37.75 -14.25 37.95 -14.35 38.2 -14.35 38.45 -14.35 38.45 -14.35 38.2 -14.3 37.95 -14.3 37.75 -14.25 37.55 -14.05 37.3 -14.05 37.1 -13.95 36.85 -13.9 36.65 -13.75 36.15 -13.85 35.9 -13.85 35.65 -13.7 35.4 -13.75 35.2 -13.6 34.95 -13.7 34.7 -13.55 34.25 -13.55 34.0 -13.45 33.75 -13.4 33.55 -13.35 33.3 -13.35 32.8 -13.3 32.6 -13.15 32.45 -12.95 32.25 -12.8 32.15 -12.55 31.9 -12.45 31.65 -12.05 31.55 -11.85 31.55 -11.6 31.35 -11.1 31.4 -10.9 31.35 -10.65 31.4 -10.4 31.45 -10.15 31.35 -9.9 31.2 -9.7 31.2 -9.45 31.1 -9.25 30.9 -9.1 30.75 -8.9 30.5 -8.8 30.35 -8.6 30.2 -8.4 30.0 -8.25 29.75 -7.85 29.35 -7.5 28.5 -6.95 28.25 -7.05 28.0 -7.05 27.5 -7.05 27.3 -7.1 27.05 -7.05 26.8 -7.1 26.6 -7.2 26.35 -7.2 26.05 -7.15 25.85 -7.15 25.6 -7.3 25.5 -7.3 26.1 -6.65 26.25 -6.2 26.45 -5.8 26.45 -5.75 26.5 -5.75 26.75 -5.85 26.95 -5.85 27.2 -5.95 27.45 -5.9 27.7 -5.95 27.9 -6.1 28.65 -6.2 29.05 -6.5 29.3 -6.5 29.55 -6.6 29.8 -6.5 30.05 -6.55 30.25 -6.65 30.5 -6.65 30.7 -6.8 31.15 -6.95 31.4 -7.0 31.6 -7.15 31.85 -7.1 32.1 -7.15 32.35 -7.25 32.5 -7.4 32.75 -7.45 32.95 -7.6 33.2 -7.65 33.4 -7.8 33.8 -8.15 34.4 -8.55 34.6 -8.6 34.85 -8.7 35.0 -8.9 35.2 -9.05 35.7 -9.2 35.9 -9.35 36.15 -9.4 36.3 -9.55 36.55 -9.6 37.0 -9.8 37.2 -9.95 37.45 -10.05 37.6 -10.25 37.8 -10.35 38.25 -10.6 38.35 -10.85 38.5 -11.0 38.75 -11.1 39.4 -11.45 39.5 -11.7 39.8 -12.05 40.05 -12.15 40.2 -12.35 40.45 -12.45 40.5 -12.7 40.6 -12.9 40.75 -13.1 41.0 -13.2 41.25 -13.3 41.3 -13.55 41.7 -13.65 41.35 -13.55 41.25 -13.3 41.0 -13.2 40.75 -13.1 40.65 -12.9 40.45 -12.4 40.2 -12.3 40.05 -12.15 39.8 -12.05 39.7 -11.85 39.5 -11.7 39.4 -11.4 38.8 -11.05 38.55 -11.0 38.35 -10.8 38.25 -10.6 37.8 -10.35 37.6 -10.2 37.45 -10.05 37.2 -9.95 37.0 -9.8 36.55 -9.6 36.3 -9.55 36.15 -9.4 35.9 -9.3 35.7 -9.2 35.45 -9.1 35.2 -9.05 35.0 -8.9 34.85 -8.7 34.6 -8.6 34.4 -8.55 34.2 -8.4 33.8 -8.1 33.4 -7.75 33.2 -7.65 32.95 -7.6 32.75 -7.45 32.55 -7.4 32.35 -7.2 32.1 -7.15 31.85 -7.1 31.65 -7.1 31.4 -6.95 31.15 -6.95 30.7 -6.8 30.5 -6.65 30.25 -6.6 30.05 -6.5 29.8 -6.5 29.55 -6.55 29.3 -6.5 29.05 -6.5 28.65 -6.2 27.9 -6.1 27.7 -5.95 27.45 -5.9 27.2 -5.95 26.95 -5.85 26.75 -5.8 26.5 -5.75 26.5 -5.75 26.7 -5.35 26.9 -4.9 27.15 -4.5 27.3 -4.05 27.65 -3.7 27.9 -3.3 28.2 -2.35 28.15 -1.85 27.95 -0.95 27.85 0.05 27.45 0.9 27.0 1.2 27.2 1.6 27.6 1.95 28.05 2.8 28.35 3.15 28.4 3.65 28.8 3.9 29.4 4.7 29.35 4.7 28.8 3.95 28.35 3.65 28.3 3.2 28.0 2.8 27.55 1.95 27.2 1.65 27.0 1.15 27.4 0.9 27.8 0.0 27.9 -0.95 28.1 -1.85 28.15 -2.35 27.85 -3.25 27.6 -3.65 27.25 -4.05 27.1 -4.5 26.85 -4.9 26.65 -5.35 26.45 -5.75 26.25 -5.75 26.05 -5.6 25.8 -5.55 25.7 -5.6 25.7 -5.6 25.55 -5.15 25.4 -4.95 25.2 -4.75 25.1 -4.55 24.95 -4.35 24.85 -4.1 24.75 -3.9 24.55 -3.75 24.3 -3.65 24.1 -3.2 23.9 -3.05 23.8 -2.8 23.65 -2.65 23.45 -2.5 23.4 -2.25 23.35 -1.95 23.05 -1.6 23.0 -1.35 22.9 -1.1 23.05 -0.65 23.0 -0.4 23.2 -0.2 23.45 0.2 23.5 0.7 23.65 0.9 24.05 1.5 24.2 2.0 24.25 2.5 24.2 3.0 24.3 3.2 24.7 3.55 24.8 3.75 24.9 4.25 25.05 4.45 25.1 4.65 25.25 4.9 25.4 5.05 25.7 5.45 25.9 5.65 25.85 6.15 25.75 6.4 25.75 6.85 25.8 7.35 25.75 7.6 25.8 7.85 25.9 8.35 25.85 8.8 25.95 9.05 25.95 9.3 26.1 9.5 26.1 9.75 26.25 9.95 26.65 10.3 26.75 10.5 26.8 10.8 26.9 11.0 27.05 11.2 27.2 11.4 27.4 11.55 27.55 11.75 27.6 11.95 27.8 12.15 27.9 12.35 27.85 13.1 27.9 13.35 27.95 13.6 28.1 13.8 28.25 14.0 28.25 14.25 28.45 14.7 28.55 14.95 28.45 15.2 28.35 15.4 28.3 15.65 28.3 15.9 28.25 16.15 28.3 16.35 28.25 16.6 28.35 17.1 28.45 17.35 28.6 17.55 28.7 17.8 28.7 18.05 28.8 18.3 28.8 18.75 28.95 19.0 29.0 19.2 29.2 19.4 29.2 19.65 29.3 19.9 29.4 20.1 29.35 20.4 29.45 20.6 29.55 21.1 29.75 21.55 29.75 21.8 29.8 22.05 29.65 22.25 29.65 22.75 29.7 23.25 29.8 23.45 29.95 23.65 30.0 23.9 30.1 24.1 30.1 24.4 30.25 24.6 30.25 24.8 30.35 25.05 30.45 25.25 30.5 25.5 30.55 25.75 30.45 26.0 30.5 26.25 30.6 26.45 30.8 26.65 30.95 26.85 30.95 27.1 31.05 27.3 30.95 27.1 30.95 26.85 30.8 26.65 30.6 26.45 30.5 26.25 30.45 26.0 30.55 25.75 30.45 25.5 30.45 25.25 30.35 25.05 30.25 24.85 30.25 24.6 30.1 24.4 30.1 24.1 30.0 23.9 29.95 23.65 29.8 23.45 29.7 23.25 29.65 22.75 29.65 22.25 29.75 22.05 29.7 21.8 29.75 21.55 29.5 21.1 29.45 20.6 29.3 20.4 29.4 20.15 29.3 19.9 29.2 19.65 29.15 19.4 29.0 19.2 28.9 19.0 28.8 18.75 28.8 18.5 28.75 18.3 28.7 18.05 28.7 17.8 28.45 17.35 28.35 17.1 28.25 16.6 28.3 16.35 28.25 16.1 28.25 15.65 28.3 15.4 28.45 15.2 28.55 14.95 28.45 14.7 28.2 14.25 28.25 14.0 28.1 13.8 27.95 13.6 27.85 13.4 27.85 13.1 27.9 12.35 27.75 12.15 27.55 12.0 27.5 11.75 27.35 11.55 27.15 11.4 27.05 11.2 26.85 11.0 26.75 10.8 26.75 10.5 26.65 10.3 26.25 9.95 26.1 9.75 26.1 9.5 25.9 9.3 25.95 9.05 25.85 8.8 25.9 8.35 25.75 7.85 25.75 7.6 25.8 7.35 25.7 6.85 25.7 6.65 25.75 6.4 25.8 6.15 25.85 5.65 25.65 5.45 25.4 5.05 25.2 4.9 25.1 4.7 25.0 4.45 24.85 4.25 24.8 3.75 24.65 3.55 24.25 3.2 24.15 3.0 24.2 2.5 24.2 2.0 24.05 1.5 23.65 0.9 23.5 0.7 23.45 0.2 23.2 -0.2 22.95 -0.4 23.0 -0.65 22.85 -1.1 22.95 -1.35 23.0 -1.6 23.3 -2.0 23.4 -2.25 23.4 -2.5 23.6 -2.65 23.75 -2.85 23.85 -3.05 24.05 -3.2 24.3 -3.7 24.5 -3.8 24.7 -3.95 24.85 -4.15 24.9 -4.4 25.2 -4.75 25.4 -4.95 25.5 -5.15 25.65 -5.6 25.65 -5.65 25.6 -5.65 25.35 -5.55 25.1 -5.65 24.85 -5.65 24.6 -5.55 24.35 -5.6 24.1 -5.55 23.9 -5.65 23.7 -5.8 23.25 -6.0 23.0 -6.05 22.55 -6.25 22.35 -6.4 22.2 -6.6 21.95 -6.7 21.9 -6.95 21.6 -7.35 21.4 -7.55 21.2 -7.7 20.75 -7.85 20.05 -8.1 19.9 -8.3 19.6 -8.25 19.4 -8.35 18.9 -8.25 18.65 -8.3 18.45 -8.25 18.2 -8.3 17.95 -8.4 17.7 -8.4 17.45 -8.35 17.2 -8.25 16.95 -8.3 16.75 -8.25 16.5 -8.2 16.3 -8.05 16.05 -8.1 15.8 -7.95 15.55 -7.95 14.9 -8.2 14.65 -8.2 14.4 -8.25 14.15 -8.25 13.65 -8.45 12.95 -8.45 12.45 -8.35 12.25 -8.25 12.0 -8.25 11.75 -8.1 11.5 -8.15 11.3 -8.3 10.75 -8.5 10.8 -8.4 11.05 -8.25 11.05 -8.0 11.2 -7.8 11.35 -7.6 11.6 -7.45 11.95 -6.85 12.05 -6.6 12.2 -6.45 12.3 -6.2 13.0 -5.85 13.15 -5.65 13.2 -5.35 13.4 -5.2 13.45 -5.0 13.45 -4.7 13.6 -4.55 13.8 -4.35 14.2 -3.75 14.2 -3.25 14.55 -2.6 14.75 -2.45 14.9 -2.25 15.0 -2.05 15.05 -1.8 15.5 -1.2 15.55 -0.7 15.55 0.05 15.65 0.25 15.75 0.5 15.9 0.7 15.95 0.95 16.0 1.15 16.2 1.55 16.0 1.15 15.9 0.95 15.9 0.7 15.7 0.5 15.65 0.25 15.55 0.05 15.55 -0.7 15.45 -1.2 15.15 -1.6 15.0 -1.8 15.0 -2.05 14.9 -2.25 14.75 -2.45 14.55 -2.6 14.2 -3.2 14.2 -3.75 13.8 -4.35 13.6 -4.5 13.45 -4.7 13.45 -4.95 13.4 -5.2 13.2 -5.35 13.15 -5.6 13.0 -5.8 12.5 -6.05 12.3 -6.2 12.2 -6.4 12.05 -6.6 11.95 -6.85 11.55 -7.45 11.15 -7.75 11.05 -7.95 11.0 -8.25 10.8 -8.4 10.75 -8.5 10.4 -8.65 9.95 -8.7 9.5 -9.0 8.95 -9.5 8.85 -9.75 8.65 -9.85 8.5 -10.05 8.2 -10.45 7.95 -10.45 7.55 -10.75 7.3 -10.75 7.1 -10.85 6.85 -10.9 6.6 -11.05 6.4 -10.95 5.9 -11.05 5.65 -11.05 5.2 -11.2 4.95 -11.2 4.7 -11.35 4.5 -11.4 4.35 -11.55 3.95 -11.25 3.5 -11.05 3.15 -10.75 0.95 -9.75 0.0 -9.65 -0.25 -9.5 -0.35 -9.25 -0.55 -8.8 -0.7 -8.35 -1.25 -7.55 -1.5 -7.1 -2.15 -6.4 -2.5 -6.05 -2.8 -5.7 -3.1 -5.35 -3.9 -4.75 -5.0 -3.85 -5.0 -3.6 -4.95 -3.35 -4.65 -2.95 -4.75 -2.7 -4.65 -2.45 -4.5 -2.25 -4.45 -1.75 -4.3 -1.6 -4.3 -1.3 -4.2 -1.1 -4.15 -0.85 -4.0 -0.7 -4.0 -0.2 -4.05 0.05 -4.0 0.3 -4.1 0.55 -4.0 0.8 -4.0 0.8 -3.95 0.85 -3.9 1.1 -3.95 1.4 -3.85 1.5 -3.7 1.7 -3.75 1.95 -3.7 2.2 -3.5 2.5 -3.4 2.7 -3.4 2.95 -2.7 3.55 -2.45 3.65 -2.05 3.95 -1.95 4.2 -1.3 4.55 -1.15 4.75 -1.1 5.0 -1.05 5.2 -1.1 5.45 -1.0 5.7 -0.85 5.9 -0.75 6.15 -0.45 6.55 -0.4 6.8 -0.15 7.2 -0.15 7.45 -0.05 7.7 -0.15 8.1 -0.1 7.7 -0.15 7.45 -0.15 7.2 -0.45 6.8 -0.45 6.55 -0.8 6.15 -0.85 5.9 -1.0 5.7 -1.1 5.5 -1.05 5.2 -1.15 5.0 -1.15 4.75 -1.35 4.55 -2.0 4.25 -2.1 4.0 -2.45 3.65 -2.7 3.55 -3.1 3.25 -3.35 3.0 -3.15 3.35 -3.1 3.6 -2.9 3.8 -2.85 4.05 -2.7 4.25 -2.3 4.55 -2.2 4.75 -2.0 4.9 -1.95 5.15 -1.9 5.4 -1.8 5.65 -1.8 5.9 -1.7 6.1 -1.7 6.35 -1.7 6.85 -1.55 7.05 -1.5 7.3 -1.45 7.5 -1.4 7.75 -1.45 8.0 -1.4 8.5 -1.5 8.75 -1.7 9.2 -1.7 9.45 -1.6 9.7 -1.5 9.9 -1.55 10.15 -1.6 10.4 -1.75 10.6 -1.7 10.85 -1.7 11.1 -1.85 11.3 -1.55 11.75 -1.6 12.75 -1.65 12.95 -1.65 13.2 -1.7 13.45 -1.85 13.65 -1.95 13.9 -1.85 14.3 -1.85 14.2 -1.7 14.05 -1.55 13.85 -0.65 12.9 -0.55 12.65 -0.35 12.5 -0.4 12.0 -0.25 11.75 -0.25 11.5 -0.2 11.3 0.05 10.85 -0.05 10.3 0.05 10.1 0.1 9.85 0.05 9.6 -0.1 9.4 -0.2 9.2 -0.25 8.7 -0.2 8.4 -0.25 8.7 -0.15 9.2 -0.05 9.4 0.05 9.6 0.1 9.85 0.05 10.1 0.0 10.3 0.0 10.6 0.05 10.85 -0.15 11.3 -0.25 11.5 -0.25 11.75 -0.35 12.0 -0.35 12.5 -0.55 12.7 -0.65 12.9 -1.85 14.2 -1.85 14.35 -1.85 14.65 -1.8 14.9 -1.85 15.15 -1.85 15.6 -1.8 15.85 -1.85 16.35 -1.75 16.6 -1.75 17.05 -1.6 17.25 -1.5 17.45 -1.5 17.75 -0.95 18.3 -0.9 18.55 -0.75 18.75 -0.75 19.0 -0.55 19.15 -0.5 19.4 -0.35 19.6 0.15 20.15 0.15 20.4 0.25 20.65 0.5 20.75 0.7 20.9 0.8 21.1 1.05 21.25 1.2 21.45 1.4 21.55 1.5 21.8 1.65 21.95 1.85 22.1 1.95 22.35 2.15 22.45 2.35 22.6 2.55 22.7 2.8 22.7 3.05 22.75 3.3 22.85 3.5 22.8 3.75 22.9 4.0 22.8 4.25 22.75 4.45 22.65 4.65 22.5 4.9 22.45 5.35 22.25 5.85 22.2 6.05 22.1 6.3 22.1 6.5 22.3 7.0 22.4 7.5 22.3 7.75 22.3 8.0 22.4 8.25 22.4 8.45 22.5 9.2 22.65 9.45 22.65 9.65 22.75 10.05 23.1 10.3 23.15 10.7 23.4 10.85 23.6 11.05 23.7 11.95 24.05 12.2 24.1 12.4 24.2 12.6 24.45 12.8 24.5 12.95 24.75 13.5 24.75 13.7 24.85 14.45 24.85 14.45 24.85 13.7 24.85 12.95 24.75 12.8 24.55 12.55 24.45 12.4 24.25 12.2 24.1 11.95 24.1 11.7 23.95 10.85 23.6 10.65 23.4 10.25 23.15 10.0 23.1 9.65 22.75 9.2 22.65 8.45 22.55 8.2 22.4 7.95 22.4 7.75 22.3 7.5 22.3 7.0 22.4 6.75 22.4 6.5 22.3 6.3 22.15 6.1 22.15 5.85 22.25 5.35 22.25 5.15 22.35 4.65 22.5 4.45 22.65 4.25 22.75 4.0 22.8 3.75 22.95 3.5 22.85 3.3 22.85 3.05 22.75 2.8 22.7 2.55 22.7 2.35 22.65 1.9 22.35 1.8 22.15 1.6 22.0 1.45 21.8 1.35 21.6 1.15 21.45 1.0 21.25 0.8 21.15 0.65 20.9 0.45 20.75 0.2 20.65 0.15 20.4 0.15 20.15 -0.2 19.8 -0.4 19.6 -0.55 19.4 -0.6 19.15 -0.8 19.0 -0.8 18.75 -0.95 18.55 -1.0 18.3 -1.55 17.75 -1.5 17.5 -1.6 17.25 -1.8 17.05 -1.75 16.6 -1.9 16.35 -1.85 15.85 -1.9 15.6 -1.85 15.15 -1.85 14.9 -1.9 14.65 -1.9 14.7 -2.1 14.9 -2.1 15.15 -2.25 15.6 -2.4 15.8 -2.5 16.0 -2.55 16.25 -2.75 16.45 -2.9 16.6 -3.0 16.85 -3.2 17.0 -3.35 17.2 -3.55 17.3 -3.75 17.45 -3.85 17.95 -3.95 18.15 -4.15 18.35 -4.1 18.6 -4.15 19.1 -4.15 19.35 -4.2 19.8 -4.3 20.05 -4.2 19.8 -4.15 19.35 -4.2 19.1 -4.1 18.6 -4.15 18.35 -4.0 18.15 -3.85 17.95 -3.75 17.45 -3.55 17.3 -3.35 17.2 -3.2 17.0 -3.0 16.85 -2.9 16.6 -2.75 16.4 -2.55 16.25 -2.5 16.0 -2.4 15.8 -2.25 15.6 -2.2 15.35 -2.1 15.15 -2.1 14.9 -1.9 14.7 -1.9 14.4 -1.95 13.9 -1.9 13.65 -1.75 13.45 -1.7 13.2 -1.7 12.95 -1.65 12.75 -1.6 12.0 -1.6 11.75 -1.85 11.3 -1.75 11.1 -1.7 10.85 -1.8 10.6 -1.65 10.4 -1.6 10.15 -1.55 9.9 -1.65 9.7 -1.75 9.45 -1.75 9.2 -1.45 8.5 -1.5 8.25 -1.5 8.0 -1.45 7.75 -1.5 7.5 -1.55 7.3 -1.6 7.05 -1.75 6.85 -1.75 6.6 -1.75 6.1 -1.85 5.9 -1.85 5.65 -1.95 5.4 -2.0 5.2 -2.05 4.95 -2.2 4.75 -2.35 4.55 -2.75 4.25 -2.9 4.05 -2.95 3.8 -3.15 3.65 -3.2 3.4 -3.45 2.95 -3.45 2.9 -3.5 2.9 -3.6 2.65 -3.75 2.45 -3.7 2.25 -4.0 1.85 -4.0 1.35 -4.05 1.3 -4.05 0.85 -4.2 0.65 -4.2 0.4 -4.55 0.0 -4.6 -0.2 -4.65 -0.45 -4.9 -0.85 -4.9 -1.15 -5.05 -1.35 -5.0 -1.6 -5.0 -1.85 -5.2 -2.0 -5.65 -2.85 -5.7 -3.1 -5.75 -3.15 -6.15 -2.95 -6.4 -2.55 -6.85 -2.3 -7.2 -2.0 -7.65 -1.15 -8.0 -0.8 -8.05 -0.3 -8.3 0.1 -8.65 0.5 -9.05 1.35 -9.6 2.15 -10.0 2.4 -10.35 2.75 -10.4 2.7 -10.05 2.4 -9.65 2.15 -9.1 1.35 -8.65 0.5 -8.35 0.1 -8.1 -0.3 -8.0 -0.8 -7.7 -1.15 -7.25 -2.05 -6.85 -2.35 -6.45 -2.55 -6.15 -2.95 -5.8 -3.2 -5.85 -3.3 -5.8 -3.6 -6.0 -3.8 -6.05 -4.0 -6.05 -4.25 -6.15 -4.5 -6.3 -4.7 -6.35 -4.95 -6.5 -5.1 -6.7 -5.25 -6.75 -5.5 -7.15 -5.85 -7.25 -6.05 -7.3 -6.3 -7.5 -6.5 -7.5 -7.0 -7.35 -7.2 -7.4 -7.45 -7.45 -7.95 -7.35 -8.2 -7.25 -8.65 -7.2 -8.9 -7.15 -9.15 -7.2 -9.4 -7.1 -9.6 -7.4 -9.95 -7.75 -10.3 -8.55 -10.8 -8.75 -11.3 -8.8 -11.75 -9.05 -12.2 -9.15 -13.0 -9.2 -12.95 -9.2 -12.7 -9.3 -12.45 -9.4 -12.0 -9.5 -11.75 -9.65 -11.55 -10.0 -11.15 -9.95 -10.9 -10.25 -10.25 -10.4 -10.05 -10.6 -9.9 -10.9 -9.5 -11.05 -9.3 -11.25 -9.15 -11.45 -9.0 -11.6 -8.55 -11.65 -8.35 -11.75 -8.1 -11.7 -7.85 -11.75 -7.6 -12.05 -7.2 -12.15 -7.0 -12.3 -6.8 -12.5 -6.6 -12.55 -6.35 -12.65 -6.15 -12.65 -5.9 -13.0 -5.0 -12.9 -4.75 -12.95 -4.3 -12.85 -3.8 -12.85 -3.55 -12.95 -3.35 -13.0 -2.85 -12.85 -2.6 -12.85 -2.4 -12.95 -2.15 -12.95 -1.9 -12.85 -1.65 -12.85 -1.4 -12.8 -1.2 -12.85 -0.95 -12.8 -0.7 -12.7 -0.45 -12.75 0.3 -12.65 0.8 -12.75 1.0 -12.75 1.25 -12.8 1.5 -12.75 1.75 -12.85 2.0 -12.85 2.25 -13.0 2.45 -13.15 2.65 -13.35 2.85 -13.25 3.1 -13.3 3.35 -13.3 3.6 -13.35 3.85 -13.35 4.1 -13.55 4.25 -13.7 4.45 -13.85 4.9 -13.85 5.15 -13.8 5.4 -13.95 5.85 -13.9 6.1 -14.0 6.35 -13.85 6.85 -14.0 7.05 -13.95 7.35 -13.95 7.55 -14.1 7.8 -14.1 8.05 -14.2 8.25 -14.9 8.95 -15.2 9.35 -15.45 9.45 -15.65 9.55 -15.8 9.75 -16.05 9.9 -16.2 10.05 -16.4 10.2 -16.65 10.25 -16.8 10.5 -17.0 10.55 -17.25 10.65 -17.5 10.7 -17.65 10.85 -18.2 10.85 -18.4 10.95 -18.55 11.15 -18.8 11.15 -19.05 11.3 -19.2 11.5 -19.45 11.55 -19.6 11.7 -19.85 11.8 -20.0 12.0 -20.35 12.35 -20.6 12.4 -20.8 12.5 -21.15 12.9 -21.45 12.85 -21.8 13.2 -22.0 13.3 -22.2 13.5 -22.9 13.75 -23.2 14.15 -23.45 14.25 -23.85 14.5 -24.1 14.6 -24.25 14.8 -24.3 15.05 -24.35 15.5 -24.9 16.3 -25.0 16.55 -25.2 16.7 -25.35 16.85 -25.6 16.95 -25.85 16.95 -26.05 17.1 -26.25 17.15 -26.45 17.35 -26.7 17.4 -26.85 17.55 -26.85 18.1 -26.8 18.35 -26.95 18.8 -27.1 19.0 -27.1 19.25 -27.4 19.65 -27.45 19.9 -27.45 20.4 -27.7 20.55 -27.5 20.4 -27.45 19.9 -27.4 19.65 -27.1 19.25 -27.1 19.0 -27.0 18.8 -26.95 18.55 -26.85 18.35 -26.9 18.05 -26.9 17.55 -26.7 17.4 -26.45 17.35 -26.3 17.15 -26.05 17.05 -25.85 16.9 -25.6 16.95 -25.35 16.85 -25.2 16.7 -25.0 16.55 -24.9 16.3 -24.35 15.5 -24.35 15.25 -24.25 14.75 -24.1 14.55 -23.85 14.5 -23.5 14.2 -23.25 14.15 -22.95 13.7 -22.2 13.45 -22.0 13.3 -21.8 13.15 -21.45 12.85 -21.2 12.85 -20.85 12.5 -20.6 12.35 -20.4 12.3 -20.0 11.95 -19.85 11.75 -19.65 11.65 -19.45 11.5 -19.2 11.45 -19.05 11.25 -18.85 11.15 -18.6 11.1 -18.4 10.9 -18.2 10.8 -17.7 10.8 -17.5 10.65 -17.25 10.6 -17.05 10.5 -16.8 10.45 -16.65 10.25 -16.4 10.2 -16.2 10.05 -16.05 9.85 -15.85 9.75 -15.7 9.5 -15.5 9.4 -15.25 9.35 -15.1 9.1 -14.25 8.25 -14.15 8.05 -14.15 7.8 -14.0 7.55 -14.0 7.3 -14.05 7.05 -13.9 6.85 -14.05 6.35 -13.95 6.1 -14.0 5.85 -13.85 5.4 -13.9 4.9 -13.8 4.7 -13.75 4.45 -13.6 4.25 -13.4 4.1 -13.4 3.85 -13.35 3.6 -13.35 3.1 -13.4 2.85 -13.2 2.65 -13.1 2.4 -12.9 2.25 -12.9 1.95 -12.85 1.75 -12.85 1.5 -12.8 1.25 -12.85 1.0 -12.7 0.8 -12.8 0.3 -12.75 -0.45 -12.85 -0.7 -12.9 -0.95 -12.9 -1.15 -12.9 -1.65 -13.0 -1.9 -13.0 -2.1 -12.95 -2.4 -12.9 -2.6 -13.05 -2.85 -13.05 -3.35 -12.95 -3.55 -12.95 -3.8 -13.05 -4.3 -13.0 -4.5 -13.0 -4.75 -13.05 -5.0 -12.75 -5.95 -12.7 -6.15 -12.6 -6.4 -12.6 -6.65 -12.4 -6.8 -12.25 -7.0 -12.15 -7.25 -11.8 -7.6 -11.8 -7.85 -11.85 -8.1 -11.7 -8.35 -11.7 -8.6 -11.5 -9.05 -11.3 -9.25 -11.1 -9.35 -10.95 -9.6 -10.65 -9.95 -10.45 -10.1 -10.35 -10.3 -10.05 -10.95 -10.1 -11.2 -9.75 -11.6 -9.6 -11.8 -9.5 -12.0 -9.4 -12.25 -9.4 -12.5 -9.3 -12.7 -9.3 -12.95 -9.15 -13.1 -9.25 -14.1 -9.4 -14.6 -9.45 -15.05 -9.65 -15.5 -10.0 -16.9 -11.05 -18.5 -11.3 -19.0 -11.2 -19.5 -11.05 -19.9 -10.95 -20.2 -13.7 -21.4 -21.05 -23.6 -22.05 -24.25 -23.9 -24.7 -29.8 -26.35 -30.8 -27.25 -31.4 -27.35 -31.55 -27.3 -31.55 -27.4 -33.3 -27.7 -34.05 -28.1 -34.05 -26.75 -33.85 -26.3 -33.95 -25.8 -34.0 -24.35 -34.05 -23.9 -34.3 -22.95 -34.4 -22.45 -34.55 -22.0 -34.95 -21.65 -35.2 -20.75 -35.55 -20.4 -35.85 -20.0 -36.6 -19.35 -36.7 -18.9 -36.7 -18.9 -36.75 -18.65 -36.8 -18.45 -37.05 -17.75 -37.1 -17.5 -37.15 -17.25 -37.15 -16.75 -37.35 -16.55 -37.45 -16.35 -37.45 -16.15 -37.35 -15.7 -37.4 -15.2 -37.45 -15.2 -37.45 -15.15 -37.2 -14.7 -37.1 -14.25 -36.9 -14.05 -36.85 -13.8 -36.9 -13.3 -36.8 -13.1 -36.75 -12.85 -36.6 -12.65 -36.4 -11.95 -36.1 -11.25 -35.8 -10.9 -35.7 -10.35 -35.75 -10.1 -35.6 -9.9 -35.55 -9.65 -35.45 -9.4 -35.3 -9.2 -35.35 -8.95 -35.3 -8.7 -35.15 -8.5 -35.3 -8.25 -35.2 -8.0 -35.15 -7.75 -35.2 -7.55 -35.15 -7.3 -35.25 -7.05 -35.1 -6.05 -35.2 -5.8 -35.2 -5.55 -35.25 -5.35 -35.4 -5.15 -35.6 -4.65 -35.6 -4.45 -35.55 -4.2 -36.0 -3.55 -35.95 -3.3 -36.05 -3.05 -36.05 -2.85 -36.1 -2.6 -36.3 -2.4 -36.45 -2.2 -36.5 -1.7 -36.7 -1.55 -37.05 -1.2 -36.75 -0.9 -36.55 -0.45 -35.4 1.1 -35.0 1.35 -34.7 1.75 -33.95 2.4 -33.65 2.75 -33.65 3.25 -33.7 3.75 -33.7 4.75 -33.9 5.2 -34.2 6.1 -34.4 6.55 -34.4 7.05 -34.15 8.45 -34.15 8.95 -33.4 9.55 -33.15 9.95 -32.35 10.55 -32.1 10.95 -32.15 11.0 -32.4 10.6 -33.15 10.0 -33.45 9.6 -34.2 8.95 -34.2 8.45 -34.45 7.0 -34.45 6.55 -34.25 6.1 -34.0 5.15 -33.75 4.75 -33.75 3.75 -33.7 3.3 -33.75 2.8 -34.0 2.4 -34.75 1.75 -35.05 1.4 -35.45 1.1 -36.6 -0.45 -36.8 -0.85 -37.1 -1.15 -37.15 -0.95 -37.25 -0.75 -37.3 -0.25 -37.4 0.0 -37.4 0.2 -37.35 0.5 -37.35 0.75 -37.45 0.95 -37.45 1.25 -37.55 1.45 -37.55 1.7 -37.65 1.95 -37.8 2.1 -37.95 2.35 -37.95 2.55 -38.05 2.8 -38.15 3.0 -38.15 3.25 -38.3 3.45 -38.45 3.65 -38.4 3.9 -38.5 4.15 -38.5 4.4 -38.55 4.85 -38.8 5.3 -38.95 5.5 -38.95 5.75 -39.15 5.9 -39.25 6.15 -39.45 6.6 -39.6 6.8 -39.8 6.95 -40.05 6.95 -40.25 7.15 -40.45 7.25 -40.65 7.4 -40.9 7.5 -41.05 7.65 -41.1 7.9 -41.25 8.1 -41.45 8.3 -41.95 8.4 -42.15 8.55 -42.3 8.75 -42.5 8.9 -43.05 9.35 -43.25 9.5 -43.3 9.75 -43.55 10.2 -43.9 10.5 -44.2 10.9 -44.25 11.15 -44.4 11.35 -44.4 11.6 -44.45 11.85 -44.65 12.05 -44.7 12.3 -44.7 12.55 -44.75 12.75 -44.8 13.0 -44.7 12.55 -44.7 12.25 -44.65 12.05 -44.5 11.85 -44.4 11.6 -44.4 11.35 -44.25 11.15 -44.2 10.9 -43.95 10.5 -43.55 10.15 -43.35 9.75 -43.25 9.5 -42.85 9.2 -42.5 8.85 -42.3 8.75 -42.15 8.55 -41.95 8.35 -41.7 8.35 -41.45 8.25 -41.25 8.1 -41.15 7.9 -41.05 7.65 -40.9 7.45 -40.65 7.35 -40.45 7.25 -40.25 7.15 -40.1 6.95 -39.8 6.9 -39.65 6.75 -39.5 6.6 -39.25 6.15 -39.2 5.9 -39.0 5.75 -38.95 5.5 -38.6 4.85 -38.55 4.4 -38.55 4.15 -38.45 3.9 -38.5 3.65 -38.3 3.45 -38.15 3.25 -38.15 3.0 -38.05 2.8 -38.0 2.55 -37.95 2.3 -37.65 1.9 -37.6 1.7 -37.6 1.4 -37.5 1.2 -37.45 0.95 -37.35 0.75 -37.4 0.45 -37.45 0.2 -37.4 -0.05 -37.35 -0.25 -37.3 -0.75 -37.15 -0.95 -37.1 -1.2 -37.15 -1.2 -37.45 -1.6 -37.8 -1.9 -38.05 -2.3 -38.45 -3.2 -38.7 -3.6 -38.85 -4.05 -39.55 -5.35 -39.85 -5.7 -39.95 -6.25 -39.5 -6.5 -39.15 -6.8 -38.95 -7.25 -38.95 -7.75 -38.8 -8.2 -38.65 -9.15 -38.3 -10.1 -38.25 -10.55 -38.0 -10.95 -37.95 -11.45 -37.6 -12.35 -37.35 -12.8 -37.5 -13.75 -37.45 -14.2 -37.45 -15.05 -37.5 -15.15 -37.5 -15.4 -37.55 -15.6 -37.6 -15.85 -37.55 -16.1 -37.55 -16.35 -37.55 -16.65 -37.35 -17.1 -37.15 -17.9 -37.3 -17.8 -37.5 -17.75 -37.7 -17.6 -38.0 -17.2 -38.2 -17.05 -38.35 -16.9 -39.05 -16.55 -39.15 -16.3 -39.3 -16.15 -39.45 -15.95 -39.55 -15.7 -39.6 -15.45 -39.8 -15.3 -39.95 -15.1 -39.95 -14.85 -39.9 -14.6 -40.05 -14.4 -40.1 -14.2 -40.1 -13.95 -40.2 -13.7 -40.2 -13.45 -40.3 -13.25 -40.25 -12.95 -40.25 -12.7 -40.35 -12.5 -40.3 -12.25 -40.35 -11.75 -40.4 -11.5 -40.4 -11.3 -40.3 -11.05 -40.25 -10.8 -40.2 -10.55 -40.2 -10.35 -40.15 -10.1 -40.3 -9.85 -40.45 -9.65 -40.6 -9.2 -40.75 -8.95 -40.7 -8.7 -40.8 -8.45 -40.9 -8.25 -40.95 -8.0 -41.05 -7.8 -41.1 -7.55 -41.15 -7.3 -41.3 -7.1 -41.45 -6.65 -41.6 -5.9 -41.7 -5.65 -41.8 -5.45 -41.85 -5.2 -42.05 -5.0 -42.15 -4.8 -42.35 -4.6 -42.45 -4.15 -42.55 -3.95 -42.6 -3.7 -42.7 -3.5 -42.95 -3.05 -43.1 -2.8 -43.2 -2.6 -43.2 -2.35 -43.4 -1.9 -43.6 -1.75 -43.75 -1.55 -44.1 -1.25 -44.25 -1.05 -44.35 -0.8 -44.45 -0.6 -44.65 -0.45 -44.85 -0.3 -45.15 0.1 -45.4 0.5 -45.45 1.05 -45.6 1.25 -45.8 1.4 -45.9 1.6 -46.45 2.1 -46.7 2.2 -46.9 2.35 -47.15 2.35 -47.35 2.45 -47.6 2.55 -47.8 2.7 -48.05 2.75 -48.55 3.3 -48.75 3.45 -48.9 3.65 -49.15 3.7 -49.35 3.85 -49.55 3.95 -50.05 3.95 -50.3 4.0 -50.55 4.05 -50.75 4.2 -50.95 4.3 -51.2 4.4 -51.4 4.55 -51.6 4.65 -52.1 4.7 -52.35 4.65 -53.05 4.9 -53.3 4.95 -53.5 5.05 -53.75 5.05 -54.0 5.2 -54.2 5.2 -54.45 5.25 -54.7 5.3 -55.15 5.45 -55.65 5.3 -56.15 5.35 -56.4 5.3 -56.9 5.4 -57.5 4.9 -57.75 4.95 -57.95 4.8 -58.4 5.05 -58.6 5.15 -58.8 5.3 -59.05 5.4 -59.2 5.55 -59.45 5.6 -59.7 5.65 -59.95 5.6 -60.15 5.7 -60.4 5.6 -60.65 5.6 -60.9 5.65 -61.1 5.8 -60.9 5.6 -60.65 5.6 -60.4 5.6 -60.15 5.7 -59.95 5.6 -59.7 5.6 -59.2 5.55 -59.05 5.35 -58.8 5.3 -58.6 5.1 -57.95 4.8 -57.75 4.9 -57.5 4.85 -56.9 5.35 -56.4 5.25 -56.15 5.35 -55.65 5.25 -55.15 5.4 -54.7 5.3 -54.45 5.2 -54.0 5.15 -53.75 5.05 -53.5 5.05 -53.3 4.95 -52.8 4.8 -52.35 4.65 -52.1 4.65 -51.6 4.6 -51.4 4.5 -51.2 4.35 -50.95 4.3 -50.75 4.15 -50.55 4.05 -50.1 3.95 -49.55 3.95 -49.35 3.8 -49.15 3.65 -48.9 3.65 -48.75 3.45 -48.55 3.3 -48.05 2.7 -47.8 2.65 -47.6 2.5 -47.15 2.35 -46.9 2.3 -46.7 2.15 -46.45 2.05 -45.95 1.55 -45.8 1.35 -45.6 1.2 -45.45 1.0 -45.4 0.5 -45.2 0.05 -44.9 -0.3 -44.7 -0.45 -44.5 -0.6 -44.35 -0.8 -44.3 -1.05 -44.15 -1.25 -43.8 -1.6 -43.65 -1.8 -43.45 -1.9 -43.25 -2.35 -43.2 -2.6 -43.1 -2.8 -43.0 -3.05 -42.75 -3.5 -42.6 -3.7 -42.6 -3.95 -42.45 -4.15 -42.4 -4.65 -42.2 -4.85 -42.1 -5.05 -41.9 -5.25 -41.85 -5.45 -41.75 -5.7 -41.65 -5.9 -41.5 -6.65 -41.35 -7.1 -41.2 -7.35 -41.15 -7.55 -41.1 -7.8 -41.0 -8.0 -40.95 -8.25 -40.85 -8.5 -40.75 -8.7 -40.8 -9.0 -40.65 -9.2 -40.5 -9.65 -40.2 -10.1 -40.25 -10.3 -40.25 -10.55 -40.35 -11.05 -40.45 -11.3 -40.45 -11.55 -40.4 -11.75 -40.35 -12.25 -40.4 -12.5 -40.3 -12.75 -40.3 -13.0 -40.35 -13.25 -40.25 -13.45 -40.25 -13.7 -40.15 -13.95 -40.2 -14.2 -40.1 -14.4 -39.95 -14.6 -40.0 -14.9 -40.0 -15.15 -39.85 -15.35 -39.65 -15.5 -39.55 -16.0 -39.4 -16.2 -39.2 -16.35 -39.1 -16.6 -38.4 -16.95 -38.25 -17.15 -38.05 -17.25 -37.75 -17.65 -37.55 -17.8 -37.3 -17.9 -37.15 -18.05 -37.15 -18.05 -36.8 -18.95 -36.7 -19.4 -35.95 -20.05 -35.65 -20.45 -35.35 -20.8 -35.0 -21.75 -34.65 -22.05 -34.5 -22.5 -34.45 -22.95 -34.15 -23.9 -34.1 -24.35 -34.1 -25.8 -34.0 -26.25 -34.15 -26.75 -34.2 -28.15 -36.85 -29.8 -42.55 -32.2 -42.55 -32.25 -42.85 -32.05 -43.15 -31.75 -43.2 -31.6 -43.25 -31.6 -45.0 -32.55 -47.85 -33.35 -48.35 -33.35 -48.75 -33.05 -49.25 -33.0 -49.7 -32.85 -50.2 -32.75 -50.7 -32.85 -51.2 -32.85 -51.65 -33.0 -52.15 -32.95 -53.05 -33.4 -53.4 -33.7 -54.75 -34.2 -55.55 -34.75 -56.5 -34.9 -56.85 -35.25 -57.3 -35.4 -57.7 -35.65 -58.6 -35.95 -59.85 -36.7 -60.35 -36.8 -62.15 -37.55 -63.25 -38.55 -63.55 -38.95 -63.65 -39.5 -63.75 -39.5 -63.7 -39.65 -63.8 -39.75 -63.9 -40.05 -63.8 -40.45 -63.4 -40.75 -63.25 -40.35 -63.2 -40.4 -63.1 -40.5 -63.2 -40.25 -62.0 -40.05 -61.6 -39.85 -61.2 -40.0 -60.85 -40.25 -60.0 -40.7 -59.65 -41.0 -59.45 -41.45 -59.2 -42.35 -58.95 -42.8 -58.8 -43.25 -58.4 -43.55 -57.9 -43.7 -57.4 -43.7 -56.45 -43.6 -55.5 -43.65 -55.05 -43.5 -54.55 -43.5 -52.65 -43.25 -51.7 -43.35 -50.8 -43.6 -49.8 -43.75 -49.35 -43.9 -48.4 -44.1 -47.45 -44.1 -46.95 -44.0 -46.5 -43.8 -45.55 -43.7 -45.1 -43.8 -44.7 -44.0 -44.35 -44.3 -44.1 -44.7 -43.5 -45.45 -42.65 -46.0 -42.15 -46.15 -41.75 -46.4 -40.9 -46.8 -40.75 -47.0 -40.55 -47.1 -40.4 -47.3 -40.2 -47.45 -39.95 -47.5 -39.8 -47.7 -39.7 -47.95 -39.5 -48.1 -39.45 -48.35 -39.3 -48.55 -39.2 -48.75 -38.85 -49.1 -38.8 -49.4 -38.6 -49.55 -38.45 -49.7 -38.25 -49.85 -38.0 -49.95 -37.85 -50.1 -37.5 -50.5 -37.4 -50.7 -37.25 -50.9 -36.85 -51.15 -36.75 -51.4 -36.55 -51.6 -36.4 -51.8 -35.85 -52.25 -35.6 -52.3 -35.25 -52.65 -35.0 -52.7 -34.65 -53.0 -34.45 -53.2 -34.2 -53.2 -33.85 -53.55 -33.65 -53.65 -33.4 -53.7 -33.2 -53.9 -33.05 -54.1 -32.8 -54.05 -32.6 -54.2 -32.35 -54.2 -32.15 -54.35 -31.9 -54.35 -31.65 -54.4 -31.4 -54.4 -31.15 -54.45 -30.95 -54.35 -30.7 -54.45 -30.2 -54.25 -29.95 -54.25 -29.75 -54.4 -29.25 -54.45 -29.0 -54.5 -28.75 -54.5 -28.6 -54.7 -28.15 -54.9 -27.9 -54.85 -27.4 -55.0 -27.05 -55.35 -26.8 -55.4 -26.6 -55.6 -26.45 -55.75 -26.0 -55.95 -25.75 -56.05 -25.55 -56.15 -25.4 -56.3 -25.2 -56.45 -25.0 -56.7 -24.75 -56.7 -24.3 -56.9 -23.85 -57.0 -23.6 -57.1 -23.1 -57.1 -22.9 -57.15 -22.65 -57.1 -22.4 -57.1 -21.95 -57.3 -21.7 -57.25 -21.0 -57.4 -20.75 -57.35 -20.55 -57.5 -20.3 -57.55 -20.0 -57.55 -19.8 -57.65 -19.35 -57.7 -19.3 -57.7 -19.6 -58.05 -19.7 -58.25 -20.0 -58.9 -20.05 -59.15 -20.15 -59.4 -20.15 -59.65 -20.25 -59.85 -20.2 -60.1 -20.15 -60.35 -20.25 -60.6 -20.15 -60.8 -20.3 -61.3 -20.3 -61.55 -20.15 -61.75 -20.15 -62.0 -20.05 -62.2 -20.0 -62.45 -20.1 -62.7 -19.9 -63.45 -19.95 -63.65 -20.0 -63.9 -19.95 -64.15 -20.15 -64.35 -20.25 -64.55 -20.45 -64.75 -20.5 -64.95 -20.85 -65.35 -20.85 -65.85 -20.8 -66.1 -20.95 -66.3 -20.8 -67.35 -20.95 -67.55 -20.95 -67.8 -21.0 -68.05 -21.15 -68.2 -21.4 -68.35 -21.55 -68.5 -21.65 -68.75 -21.95 -69.15 -22.65 -69.5 -22.65 -69.8 -22.75 -70.0 -22.8 -70.25 -22.9 -70.45 -22.95 -70.7 -23.05 -70.9 -23.25 -71.1 -23.25 -71.35 -23.35 -71.55 -23.45 -72.3 -23.55 -72.5 -23.6 -72.75 -23.7 -73.0 -23.65 -73.25 -23.8 -73.45 -23.9 -73.65 -23.85 -73.95 -24.0 -74.15 -24.15 -74.9 -24.3 -75.05 -24.4 -75.3 -24.75 -75.65 -24.8 -75.9 -24.95 -76.1 -25.0 -76.35 -25.1 -76.55 -25.1 -76.8 -25.2 -77.05 -25.35 -77.25 -25.4 -77.5 -25.6 -77.7 -25.6 -78.2 -25.95 -78.55 -25.95 -78.55 -25.6 -78.2 -25.6 -77.95 -25.55 -77.7 -25.4 -77.5 -25.35 -77.25 -25.2 -77.05 -25.1 -76.8 -25.05 -76.55 -24.95 -76.35 -24.95 -76.1 -24.8 -75.9 -24.7 -75.65 -24.35 -75.3 -24.3 -75.1 -24.15 -74.9 -24.1 -74.65 -24.0 -74.15 -23.85 -73.95 -23.85 -73.7 -23.8 -73.45 -23.65 -73.25 -23.7 -73.0 -23.55 -72.75 -23.55 -72.5 -23.4 -72.3 -23.3 -71.6 -23.2 -71.35 -23.25 -71.1 -23.05 -70.9 -22.95 -70.7 -22.85 -70.5 -22.75 -70.25 -22.7 -70.0 -22.6 -69.8 -22.6 -69.55 -21.95 -69.15 -21.65 -68.75 -21.55 -68.5 -21.35 -68.35 -21.15 -68.25 -21.0 -68.05 -20.95 -67.8 -20.95 -67.55 -20.75 -67.35 -20.85 -66.85 -20.9 -66.6 -20.95 -66.3 -20.8 -66.1 -20.85 -65.85 -20.8 -65.35 -20.5 -64.95 -20.4 -64.75 -20.25 -64.55 -20.1 -64.35 -19.95 -64.15 -19.95 -63.65 -19.85 -63.45 -20.05 -62.7 -19.95 -62.45 -20.0 -62.2 -20.15 -62.0 -20.15 -61.75 -20.25 -61.55 -20.3 -61.3 -20.1 -60.8 -20.2 -60.6 -20.1 -60.35 -20.2 -60.1 -20.2 -59.85 -20.1 -59.65 -20.1 -59.4 -20.0 -59.15 -19.95 -58.95 -19.7 -58.3 -19.55 -58.05 -19.3 -57.75 -19.1 -57.85 -18.9 -58.0 -18.65 -57.95 -18.15 -57.95 -17.95 -58.05 -17.75 -58.25 -17.3 -58.3 -17.05 -58.25 -16.8 -58.35 -16.55 -58.4 -16.35 -58.5 -15.85 -58.6 -15.6 -58.6 -14.9 -58.4 -14.65 -58.5 -14.4 -58.5 -14.15 -58.45 -13.95 -58.3 -13.7 -58.3 -13.5 -58.1 -13.25 -58.15 -13.05 -58.1 -12.8 -58.15 -12.55 -58.1 -12.3 -58.2 -12.05 -58.1 -11.85 -58.25 -11.35 -58.15 -10.65 -58.3 -10.35 -58.3 -10.15 -58.45 -9.9 -58.45 -9.65 -58.45 -9.5 -58.7 -9.25 -58.75 -9.0 -58.7 -8.8 -58.85 -8.35 -59.05 -8.1 -59.05 -7.85 -59.05 -7.7 -59.25 -7.5 -59.4 -7.25 -59.4 -6.75 -59.55 -6.65 -59.8 -6.4 -59.8 -6.15 -59.85 -5.6 -59.9 -5.35 -60.0 -5.2 -60.15 -4.95 -60.6 -4.75 -60.75 -4.65 -60.95 -4.55 -61.15 -4.25 -61.25 -4.15 -61.45 -3.85 -61.5 -3.65 -61.95 -3.45 -62.1 -3.35 -62.3 -3.1 -62.4 -2.55 -62.9 -2.3 -63.0 -2.25 -63.2 -1.95 -63.25 -1.85 -63.5 -1.1 -63.8 -1.0 -64.0 -0.8 -64.15 -0.6 -64.3 -0.4 -64.4 -0.25 -64.45 -0.4 -64.4 -0.6 -64.3 -0.8 -64.15 -1.0 -64.0 -1.1 -63.75 Q-1.45 -63.6 -1.85 -63.5 L-1.95 -63.25 -2.2 -63.2 -2.3 -62.95 -2.55 -62.85 -3.1 -62.4 -3.35 -62.3 -3.4 -62.05 -3.65 -61.95 -3.85 -61.5 -4.1 -61.4 -4.25 -61.25 -4.5 -61.15 -4.65 -60.95 -4.75 -60.75 -4.95 -60.6 -5.2 -60.15 -5.35 -60.0 -5.6 -59.9 -6.15 -59.85 -6.35 -59.8 -6.6 -59.8 -6.75 -59.55 -7.25 -59.4 -7.5 -59.4 -7.85 -59.05 -8.35 -59.05 -8.8 -58.85 -9.0 -58.65 -9.25 -58.7 -9.5 -58.65 -9.6 -58.45 -9.9 -58.4 -10.15 -58.4 -10.35 -58.3 -10.6 -58.3 -11.35 -58.15 -11.85 -58.25 -12.05 -58.1 -12.3 -58.15 -12.55 -58.1 -12.8 -58.15 -13.05 -58.1 -13.3 -58.1 -13.5 -58.1 -13.75 -58.25 -14.0 -58.3 -14.2 -58.45 -14.4 -58.45 -14.65 -58.5 -14.9 -58.4 -15.6 -58.6 -15.85 -58.6 -16.35 -58.5 -16.55 -58.4 -16.8 -58.35 -17.05 -58.25 -17.25 -58.3 -17.75 -58.2 -17.95 -58.05 -18.15 -57.9 -18.9 -58.0 -19.1 -57.8 -19.25 -57.7 -19.05 -57.5 -18.85 -56.8 -18.8 -56.55 -18.6 -55.85 -18.55 -55.65 -18.45 -55.4 -18.5 -55.15 -18.5 -54.9 -18.6 -54.7 -18.65 -54.2 -18.8 -54.0 -19.0 -53.8 -19.15 -53.6 -19.2 -53.4 -19.05 -52.9 -19.1 -52.65 -19.0 -52.4 -18.95 -52.4 -18.1 -52.85 -17.7 -53.15 -17.4 -53.5 -17.1 -53.9 -16.95 -54.35 -16.45 -54.45 -15.6 -54.95 -15.3 -55.3 -13.75 -56.55 -13.35 -56.8 -12.9 -57.0 -12.4 -56.95 -11.95 -57.05 -10.55 -56.65 -10.2 -56.25 -9.8 -56.0 -8.0 -55.25 -7.65 -54.95 -7.6 -54.95 -7.55 -54.95 -7.25 -55.3 -7.05 -55.5 -6.8 -55.55 -6.4 -56.2 -6.15 -56.3 -5.95 -56.4 -5.7 -56.4 -5.5 -56.6 -4.75 -56.65 -4.65 -56.7 -4.75 -56.85 -5.05 -57.3 -4.85 -58.0 -5.0 -58.5 -4.9 -58.75 -5.0 -59.0 -4.85 -59.45 -4.9 -59.7 -4.85 -59.95 -4.85 -60.2 -4.7 -60.4 -4.45 -60.5 -4.3 -60.7 -4.15 -60.9 -3.9 -61.0 -3.7 -61.2 -3.5 -61.35 -3.05 -61.55 -2.85 -61.6 -2.7 -61.8 -2.45 -61.85 -2.2 -61.95 -2.05 -62.2 -1.85 -62.25 -1.7 -62.5 -1.35 -62.8 -1.1 -62.85 -0.75 -63.2 -0.5 -63.3 -0.2 -63.7 0.05 -63.7 0.25 -63.85 0.5 -63.8 0.7 -63.95 1.0 -63.9 1.2 -64.05 1.35 -64.25 1.5 -64.45 1.7 -64.6 1.85 -64.8 2.05 -64.9 2.4 -65.25 2.6 -65.4 2.7 -65.65 2.7 -65.9 2.9 -66.05 2.95 -66.3 3.05 -66.55 3.5 -67.35 3.6 -67.55 3.65 -68.05 3.75 -68.3 3.9 -68.5 3.85 -68.75 3.9 -69.0 3.65 -70.0 3.85 -70.15 4.1 -70.2 4.15 -70.45 4.55 -70.8 4.85 -71.2 4.95 -71.45 5.2 -71.8 5.35 -72.05 5.55 -72.15 5.35 -72.05 5.25 -71.8 4.95 -71.4 4.85 -71.2 4.55 -70.8 4.2 -70.45 4.1 -70.2 3.85 -70.1 3.65 -70.0 3.95 -69.0 3.9 -68.75 3.9 -68.5 3.75 -68.3 3.65 -68.05 3.65 -67.55 3.55 -67.35 3.05 -66.55 2.95 -66.3 2.9 -66.05 2.75 -65.9 2.75 -65.65 2.65 -65.4 2.45 -65.25 2.1 -64.9 1.85 -64.8 1.7 -64.6 1.5 -64.45 1.35 -64.2 1.2 -64.0 1.0 -63.9 0.75 -63.9 0.5 -63.8 0.25 -63.8 0.05 -63.65 -0.2 -63.7 -0.35 -63.45 -0.5 -63.25 -0.75 -63.2 -1.05 -62.8 -1.3 -62.75 -1.7 -62.5 -1.8 -62.25 -2.05 -62.15 -2.2 -61.95 -2.4 -61.8 -2.65 -61.8 -2.8 -61.6 -3.05 -61.5 -3.5 -61.3 -3.7 -61.15 -3.9 -61.0 -4.1 -60.85 -4.25 -60.65 -4.45 -60.5 -4.65 -60.4 -4.8 -60.2 -4.8 -59.95 -4.85 -59.7 -4.8 -59.45 -4.95 -59.0 -4.85 -58.7 -5.0 -58.5 -4.85 -58.0 -5.0 -57.3 -4.7 -56.85 -4.65 -56.7 -4.3 -56.85 -3.75 -57.65 -3.1 -58.4 -2.85 -58.55 -2.8 -58.8 -2.6 -58.95 -2.4 -59.1 -2.3 -59.3 -1.9 -59.55 -1.6 -59.95 -1.4 -60.1 -1.25 -60.3 -1.1 -60.5 -0.85 -60.6 -0.7 -60.75 -0.35 -61.1 -0.1 -61.15 0.4 -61.25 1.35 -61.55 1.55 -61.7 1.55 -61.7 1.35 -61.55 0.4 -61.2 -0.1 -61.15 -0.35 -61.05 -0.7 -60.75 -0.85 -60.6 -1.1 -60.5 -1.25 -60.3 -1.4 -60.1 -1.55 -59.95 -1.85 -59.55 -2.3 -59.3 -2.4 -59.1 -2.55 -58.9 -2.8 -58.8 -2.85 -58.55 -3.05 -58.4 -4.15 -57.05 -4.25 -56.8 -4.6 -56.7 -4.6 -56.6 -4.55 -56.15 -4.65 -55.9 -4.7 -55.65 -4.65 -55.4 -4.65 -55.15 -4.75 -54.95 -4.8 -54.7 -4.9 -54.5 -4.9 -54.25 -4.8 -54.0 -4.9 -53.75 -4.8 -53.5 -4.8 -53.05 -4.95 -52.55 -5.4 -51.9 -5.45 -51.65 -5.9 -51.4 -6.05 -51.2 -6.15 -50.95 -6.35 -50.8 -6.45 -50.3 -6.65 -50.1 -7.0 -49.8 -7.15 -49.6 -7.35 -49.45 -7.8 -49.25 -8.0 -49.1 -8.1 -48.85 -8.3 -48.75 -8.5 -48.55 -8.7 -48.45 -8.85 -48.2 -9.1 -48.2 -9.3 -48.0 -9.75 -47.8 -9.9 -47.65 -10.15 -47.6 -9.45 -47.55 -9.0 -47.3 -8.5 -47.3 -8.1 -47.05 -7.65 -46.95 -6.7 -46.8 -5.75 -46.8 -5.25 -46.9 -4.8 -47.05 -3.85 -47.0 -2.9 -47.25 -2.45 -47.45 -1.8 -48.15 -1.4 -48.45 -0.95 -48.65 -0.45 -48.6 0.0 -48.85 1.95 -48.7 2.4 -48.75 2.85 -48.95 3.85 -48.95 4.35 -49.0 4.8 -48.9 5.75 -49.0 6.7 -49.25 7.15 -49.3 7.65 -49.2 8.55 -48.85 10.65 -47.7 11.05 -47.4 11.95 -47.1 12.4 -47.15 12.9 -47.1 13.85 -46.95 14.3 -46.7 14.75 -46.55 14.95 -46.7 15.35 -46.95 15.6 -47.0 15.95 -47.35 16.35 -47.65 16.6 -47.55 16.8 -47.65 17.05 -47.65 17.3 -47.7 17.65 -48.0 17.95 -48.05 18.15 -48.05 18.35 -48.2 18.6 -48.3 18.85 -48.35 19.05 -48.5 19.4 -48.9 19.6 -48.95 19.85 -49.05 20.1 -48.9 20.6 -48.8 20.8 -48.9 21.75 -48.5 22.0 -48.6 22.25 -48.55 22.5 -48.55 22.75 -48.6 23.2 -48.5 23.45 -48.5 23.7 -48.45 23.95 -48.5 24.2 -48.55 24.45 -48.55 24.9 -48.65 25.65 -48.7 25.85 -48.7 26.1 -48.8 26.35 -48.85 26.55 -48.9 26.8 -48.9 27.5 -49.1 27.7 -49.25 27.95 -49.15 28.2 -49.3 28.45 -49.3 28.65 -49.4 28.85 -49.6 29.1 -49.6 29.3 -49.8 29.5 -49.95 29.75 -49.9 30.0 -49.9 30.7 -50.1 31.45 -50.0 32.05 -49.6 32.35 -49.6 32.55 -49.45 33.05 -49.35 33.9 -48.9 34.05 -48.75 34.3 -48.65 34.35 -48.35 34.65 -48.0 34.85 -47.85 35.0 -47.65 36.45 -47.15 M11.5 -13.8 L8.0 -15.55 7.15 -15.65 7.0 -15.5 6.85 -15.6 6.95 -15.7 3.7 -16.1 1.85 -16.8 1.9 -16.7 2.7 -16.2 2.95 -16.15 3.15 -16.05 3.55 -15.75 3.8 -15.65 4.05 -15.65 4.25 -15.5 4.7 -15.35 4.9 -15.2 5.0 -14.95 5.2 -14.8 5.45 -14.7 5.65 -14.55 5.95 -14.15 6.15 -14.0 6.65 -13.9 6.85 -13.8 7.0 -13.6 7.15 -13.4 7.35 -13.25 7.5 -13.05 7.7 -12.9 7.8 -12.7 8.0 -12.25 8.1 -12.1 8.1 -12.1 9.5 -12.55 10.0 -12.55 10.35 -12.85 11.2 -13.3 11.5 -13.65 11.65 -13.75 11.5 -13.8 M55.95 -38.5 L55.7 -38.4 55.5 -38.3 55.7 -38.45 55.95 -38.5 56.2 -38.5 56.4 -38.4 56.65 -38.35 56.9 -38.45 56.65 -38.35 56.4 -38.4 56.2 -38.5 55.95 -38.5 M57.4 -38.55 L56.9 -38.45 57.15 -38.55 57.4 -38.6 57.65 -38.5 57.4 -38.55 M58.15 -38.55 L58.35 -38.6 58.6 -38.55 58.6 -38.55 58.35 -38.6 58.15 -38.55 M25.4 -7.3 L25.45 -7.1 25.5 -6.85 25.55 -6.6 25.6 -6.35 25.6 -6.1 25.65 -5.85 25.7 -5.65 25.8 -5.6 26.05 -5.65 26.25 -5.75 26.4 -5.75 26.15 -6.15 26.05 -6.6 25.4 -7.3 25.1 -7.35 24.5 -7.75 24.05 -7.9 23.8 -7.95 23.55 -7.95 22.9 -8.25 22.65 -8.25 21.85 -8.9 21.85 -9.2 21.75 -9.4 21.55 -9.55 21.3 -9.65 21.1 -9.8 21.05 -10.05 20.85 -10.2 20.75 -10.4 20.7 -10.7 20.55 -10.85 20.35 -11.05 20.25 -11.25 20.2 -11.5 19.95 -11.9 19.6 -12.25 19.6 -12.55 19.15 -12.8 18.85 -13.2 18.6 -13.25 18.4 -13.35 17.8 -13.85 17.7 -14.05 17.65 -14.3 17.55 -14.4 17.5 -14.4 17.05 -14.55 16.55 -14.6 16.05 -14.5 15.65 -14.75 15.2 -14.75 15.15 -14.75 14.95 -14.75 14.7 -14.8 14.2 -14.65 13.8 -14.4 13.35 -14.2 12.45 -13.95 14.75 -13.45 14.75 -13.05 11.75 -13.7 11.55 -13.6 11.25 -13.25 10.4 -12.75 10.0 -12.45 9.55 -12.45 8.15 -12.05 8.95 -11.5 9.2 -10.75 9.45 -10.35 9.6 -10.15 9.75 -9.95 9.95 -9.8 10.05 -9.3 10.3 -8.9 10.55 -8.8 10.7 -8.6 10.75 -8.55 11.35 -8.35 11.55 -8.2 11.75 -8.2 12.0 -8.3 12.25 -8.3 12.45 -8.4 12.9 -8.5 13.65 -8.5 14.15 -8.3 14.4 -8.3 14.65 -8.25 14.9 -8.25 15.6 -8.0 15.8 -8.0 16.05 -8.15 16.3 -8.1 16.5 -8.25 16.75 -8.25 16.95 -8.35 17.2 -8.3 17.45 -8.4 17.7 -8.45 17.95 -8.45 18.4 -8.3 18.65 -8.35 18.9 -8.3 19.4 -8.4 19.6 -8.25 19.9 -8.35 20.05 -8.15 20.75 -7.9 21.2 -7.75 21.6 -7.4 21.9 -7.0 22.0 -6.75 22.25 -6.6 22.4 -6.45 22.55 -6.3 22.8 -6.2 23.0 -6.05 23.5 -5.95 23.75 -5.8 23.9 -5.65 24.15 -5.55 24.35 -5.6 24.6 -5.6 24.85 -5.65 25.1 -5.7 25.35 -5.6 25.6 -5.7 25.65 -5.65 25.6 -5.85 25.55 -6.1 25.55 -6.35 25.5 -6.6 25.45 -6.85 25.4 -7.3 M18.85 -13.25 L19.2 -12.85 19.65 -12.55 19.65 -12.3 20.25 -11.5 20.3 -11.25 20.4 -11.05 20.6 -10.9 20.75 -10.7 20.8 -10.45 20.9 -10.25 21.05 -10.1 21.15 -9.85 21.35 -9.7 21.6 -9.6 21.75 -9.4 21.9 -9.2 21.9 -8.95 22.65 -8.3 22.95 -8.3 23.15 -8.2 23.35 -8.05 23.55 -7.95 23.85 -7.95 24.55 -7.8 24.7 -7.65 25.15 -7.4 25.35 -7.35 25.05 -7.75 24.6 -8.55 23.95 -9.3 23.7 -9.7 23.05 -11.0 22.55 -11.8 22.2 -12.15 21.9 -12.55 20.2 -13.45 19.8 -13.75 17.95 -14.2 17.65 -14.35 17.75 -14.1 17.85 -13.85 18.4 -13.4 18.6 -13.3 18.85 -13.25 M0.4 -16.1 L0.5 -17.25 -3.15 -18.35 -10.85 -20.1 -10.9 -19.9 -11.05 -19.45 -11.15 -18.95 -10.95 -18.6 -9.85 -16.95 -9.55 -15.5 -9.3 -15.1 -9.25 -14.6 -9.15 -14.15 -9.0 -12.7 -8.9 -12.2 -8.7 -11.8 -8.6 -11.3 -8.45 -10.85 -7.65 -10.4 -7.0 -9.65 -5.7 -9.05 -4.75 -8.9 -4.3 -8.9 -3.35 -9.1 -2.85 -9.1 -0.5 -9.55 -0.3 -9.6 -0.3 -9.75 0.25 -10.55 0.4 -11.0 0.7 -11.4 1.05 -12.3 0.9 -12.8 0.75 -13.25 0.45 -15.15 0.5 -15.6 0.4 -16.1 M0.85 -18.0 L0.65 -17.6 1.3 -17.35 1.25 -17.45 1.15 -17.65 1.0 -17.85 0.85 -18.0 M0.8 -18.0 L0.8 -18.05 0.7 -18.25 0.45 -18.3 0.25 -18.45 0.1 -18.6 -0.15 -18.75 -0.4 -18.8 -0.8 -19.1 -0.95 -19.3 -1.15 -19.4 -1.5 -19.8 -1.95 -19.95 -2.1 -20.2 -2.3 -20.35 -2.5 -20.45 -2.7 -20.65 -2.9 -20.75 -3.05 -21.0 -3.05 -21.25 -3.15 -21.45 -3.35 -21.65 -3.35 -21.9 -3.3 -22.15 -3.45 -22.35 -3.45 -23.35 -3.55 -23.8 -3.7 -24.05 -3.65 -24.3 -3.55 -24.5 -3.75 -24.95 -4.05 -25.3 -5.4 -25.8 -5.75 -26.15 -6.2 -26.4 -7.6 -26.6 -8.1 -26.55 -8.55 -26.7 -9.05 -26.65 -10.45 -26.8 -10.9 -26.7 -11.35 -26.45 -12.75 -25.95 -13.7 -25.9 -15.0 -25.3 -15.8 -24.75 -16.25 -24.6 -16.7 -24.35 -17.15 -24.35 -17.6 -24.15 -18.1 -24.0 -18.55 -23.95 -19.55 -23.95 -20.0 -24.05 -20.5 -24.0 -21.2 -24.1 -21.05 -24.0 -13.7 -21.8 -11.0 -20.6 -11.1 -20.85 -10.95 -20.85 -10.8 -20.5 -10.7 -20.45 0.6 -17.6 0.8 -18.0 M5.0 -14.9 L4.9 -15.15 4.7 -15.3 4.2 -15.5 4.05 -15.6 3.75 -15.6 3.55 -15.7 3.35 -15.85 2.95 -16.15 2.65 -16.15 1.85 -16.7 1.75 -16.8 0.6 -17.2 0.45 -16.1 0.55 -15.65 0.5 -15.15 0.8 -13.25 0.95 -12.8 1.1 -12.3 0.75 -11.4 0.45 -11.0 0.3 -10.55 -0.25 -9.7 -0.25 -9.65 -0.05 -9.75 0.95 -9.85 3.1 -10.85 3.45 -11.15 3.9 -11.35 4.3 -11.65 4.75 -11.75 5.2 -11.95 6.2 -12.15 6.65 -12.15 7.15 -12.2 8.05 -12.1 8.0 -12.25 7.8 -12.65 7.65 -12.85 7.45 -13.05 7.3 -13.2 7.1 -13.35 6.85 -13.8 6.15 -13.95 5.95 -14.1 5.6 -14.55 5.15 -14.75 5.0 -14.9 M8.3 -11.85 L8.15 -12.0 7.15 -12.1 6.65 -12.05 6.2 -12.05 5.25 -11.9 4.8 -11.7 4.4 -11.55 4.5 -11.45 4.75 -11.4 4.95 -11.3 5.2 -11.3 5.65 -11.15 5.9 -11.15 6.15 -11.1 6.4 -11.0 6.65 -11.1 6.85 -11.0 7.1 -10.95 Q7.2 -10.85 7.35 -10.8 L7.6 -10.8 7.95 -10.5 8.2 -10.5 8.4 -10.3 8.55 -10.1 8.7 -9.9 8.9 -9.8 9.0 -9.55 9.5 -9.0 10.0 -8.75 10.45 -8.7 10.65 -8.6 10.7 -8.6 10.7 -8.6 10.3 -8.9 10.0 -9.3 9.95 -9.8 9.7 -9.95 9.6 -10.15 9.4 -10.3 9.2 -10.75 8.95 -11.45 8.3 -11.85 M53.35 -38.1 L52.85 -38.15 52.6 -38.15 52.35 -38.25 52.15 -38.15 51.9 -38.15 51.65 -38.2 51.4 -38.2 51.65 -38.2 51.9 -38.15 52.15 -38.15 52.35 -38.25 52.6 -38.15 52.85 -38.2 53.35 -38.1 53.55 -38.1 53.8 -38.15 53.8 -38.15 53.55 -38.1 53.35 -38.1 M55.3 -38.15 L55.05 -38.05 55.05 -38.05 55.3 -38.15 M41.1 -33.0 L41.1 -33.0 40.9 -33.0 40.65 -32.9 40.15 -32.8 39.95 -33.0 39.75 -33.05 39.55 -33.25 39.75 -33.1 39.95 -33.0 40.15 -32.8 40.65 -32.9 40.9 -33.0 41.1 -33.0 M44.0 -33.2 L44.2 -33.3 44.5 -33.25 44.75 -33.25 44.95 -33.35 45.15 -33.5 44.95 -33.35 44.75 -33.25 44.5 -33.25 44.2 -33.3 44.0 -33.2 M42.55 -33.1 L42.8 -33.1 43.05 -33.05 43.25 -33.05 43.05 -33.05 42.8 -33.05 42.55 -33.05 42.1 -32.95 42.55 -33.1 M48.95 -39.05 L48.7 -39.0 48.7 -39.0 48.95 -39.05 M49.4 -38.95 L49.2 -39.05 49.4 -38.95 M50.9 -38.25 L51.0 -38.25 50.9 -38.25 50.4 -38.85 50.15 -38.85 49.9 -38.9 49.65 -38.85 49.9 -38.9 50.15 -38.9 50.4 -38.9 50.9 -38.25 M42.1 -32.95 L41.85 -32.95 41.6 -32.85 41.6 -32.85 41.85 -32.95 42.1 -32.95 M37.1 -34.75 L36.35 -34.85 36.1 -34.95 35.95 -35.15 35.7 -35.2 35.75 -35.7 35.75 -35.45 35.7 -35.2 35.95 -35.15 36.15 -34.95 Q36.25 -34.9 36.35 -34.85 L37.1 -34.75 37.3 -34.65 37.6 -34.6 37.75 -34.45 38.2 -34.25 38.4 -34.1 38.6 -34.0 38.75 -33.75 38.95 -33.7 39.4 -33.45 39.55 -33.25 39.35 -33.45 38.95 -33.7 38.7 -33.75 38.6 -34.0 38.35 -34.05 38.2 -34.25 37.75 -34.45 37.55 -34.6 37.3 -34.65 37.1 -34.75 M45.85 -33.75 L45.65 -33.6 45.4 -33.55 45.65 -33.6 45.85 -33.75 45.85 -33.75 M47.05 -34.0 L46.8 -34.0 46.3 -33.85 46.1 -33.75 46.1 -33.75 46.3 -33.85 46.8 -34.0 47.05 -34.0 47.3 -34.05 47.3 -34.05 47.05 -34.0 M47.35 -9.95 L47.2 -10.15 47.05 -10.3 46.95 -10.45 47.2 -10.15 47.35 -9.95 47.45 -9.7 47.7 -9.6 Q47.8 -9.5 47.9 -9.45 L48.35 -9.15 47.9 -9.45 47.7 -9.6 47.45 -9.7 47.35 -9.95 M41.55 -14.35 L41.8 -14.35 42.05 -14.3 42.25 -14.15 42.3 -14.1 42.25 -14.15 42.05 -14.3 41.8 -14.35 41.55 -14.35 41.3 -14.4 40.85 -14.5 40.6 -14.4 40.35 -14.35 40.15 -14.35 39.9 -14.45 39.65 -14.45 39.4 -14.4 39.2 -14.25 38.8 -14.3 38.95 -14.3 39.2 -14.25 39.4 -14.4 39.65 -14.45 39.9 -14.45 40.15 -14.35 40.6 -14.4 40.85 -14.5 41.1 -14.5 41.55 -14.35 M42.9 -13.9 L42.65 -13.9 42.4 -13.95 42.3 -14.1 42.45 -13.95 42.65 -13.9 42.9 -13.9 43.1 -13.75 43.6 -13.7 44.0 -13.45 44.2 -13.25 44.75 -12.8 44.85 -12.55 45.2 -12.25 45.35 -12.05 45.55 -11.9 45.65 -11.7 45.85 -11.5 46.3 -11.3 46.5 -11.15 46.6 -10.9 46.8 -10.6 46.6 -10.9 46.5 -11.15 45.8 -11.5 45.65 -11.65 45.55 -11.9 45.35 -12.05 45.2 -12.25 44.85 -12.55 44.75 -12.75 44.55 -12.9 44.4 -13.1 44.2 -13.25 43.6 -13.7 43.1 -13.75 42.9 -13.9 M43.85 -14.85 L43.7 -14.7 43.45 -14.7 43.25 -14.55 42.95 -14.6 42.8 -14.4 42.6 -14.25 42.35 -14.15 42.3 -14.1 42.2 -14.0 42.05 -13.8 41.85 -13.7 42.05 -13.8 42.15 -14.0 42.3 -14.1 42.35 -14.15 42.6 -14.25 42.8 -14.4 42.95 -14.6 43.25 -14.6 43.45 -14.7 43.7 -14.75 43.85 -14.85 M44.55 -15.25 L44.3 -15.2 43.95 -14.95 44.3 -15.2 44.55 -15.25 44.75 -15.4 44.55 -15.25 M45.85 -15.9 L46.35 -15.85 46.6 -15.95 46.85 -15.95 47.05 -16.05 47.3 -16.2 47.55 -16.2 47.8 -16.2 48.05 -16.15 48.05 -16.15 47.8 -16.2 47.55 -16.15 47.3 -16.2 47.05 -16.05 46.85 -15.95 46.6 -15.95 46.35 -15.8 45.85 -15.9 45.65 -15.8 45.5 -15.7 45.85 -15.9 M45.35 -15.65 L45.2 -15.6 45.0 -15.5 44.75 -15.4 45.0 -15.55 45.35 -15.65 M74.95 -32.9 L75.15 -33.05 75.15 -33.0 74.95 -32.9 74.75 -32.75 74.55 -32.65 74.3 -32.65 74.1 -32.45 73.9 -32.45 73.65 -32.3 73.4 -32.3 72.9 -32.2 72.7 -32.1 72.2 -31.9 72.0 -31.8 71.5 -31.7 71.25 -31.8 71.05 -31.7 70.3 -31.8 70.8 -31.8 71.05 -31.7 71.25 -31.8 71.5 -31.7 72.0 -31.8 72.2 -31.95 72.7 -32.1 72.9 -32.25 73.4 -32.3 73.65 -32.3 73.85 -32.45 74.1 -32.45 74.3 -32.65 74.55 -32.65 74.75 -32.75 74.95 -32.9 M76.0 -33.45 L76.1 -33.7 76.55 -33.9 76.7 -34.05 76.6 -33.9 76.35 -33.8 76.1 -33.7 76.0 -33.45 75.85 -33.25 75.65 -33.15 75.45 -33.0 75.15 -33.0 75.15 -33.05 75.45 -33.05 75.65 -33.15 75.85 -33.25 76.0 -33.45 M77.8 -35.05 L77.6 -34.95 77.45 -34.75 77.2 -34.65 77.1 -34.5 77.2 -34.65 77.45 -34.75 77.6 -34.95 78.0 -35.2 78.2 -35.4 78.4 -35.5 78.6 -35.55 78.85 -35.65 79.05 -35.8 79.5 -35.95 79.75 -36.1 80.0 -36.1 79.75 -36.1 79.5 -35.95 79.05 -35.8 78.85 -35.65 78.65 -35.55 78.4 -35.5 78.2 -35.4 78.0 -35.2 77.8 -35.05 M81.95 -36.9 L81.65 -36.95 81.45 -36.9 81.2 -36.95 81.0 -36.75 80.8 -36.6 80.35 -36.4 80.2 -36.3 80.35 -36.4 80.8 -36.6 81.0 -36.75 81.2 -36.95 81.45 -36.95 81.65 -36.95 81.9 -36.9 82.15 -36.95 81.95 -36.9 M83.1 -37.2 L83.1 -37.2 82.85 -37.2 82.65 -37.05 82.4 -37.05 82.15 -36.95 82.4 -37.05 82.65 -37.05 82.85 -37.2 83.1 -37.2 M48.7 -8.95 L48.9 -8.8 49.1 -8.75 48.9 -8.75 48.6 -9.0 48.7 -8.95 M52.1 -8.75 L52.3 -8.75 52.1 -8.7 51.85 -8.75 51.6 -8.65 51.1 -8.7 50.9 -8.55 50.4 -8.65 49.9 -8.55 49.65 -8.7 49.4 -8.7 49.25 -8.75 49.7 -8.7 49.9 -8.55 50.4 -8.65 50.65 -8.65 50.9 -8.6 51.1 -8.7 51.6 -8.65 51.85 -8.75 52.1 -8.75 M53.25 -9.1 L53.5 -9.1 53.5 -9.05 53.25 -9.1 53.05 -9.0 52.85 -8.85 52.45 -8.8 52.85 -8.85 53.05 -9.0 53.25 -9.1 M67.45 -31.6 L67.9 -31.55 68.15 -31.45 68.4 -31.5 69.1 -31.55 69.35 -31.65 69.55 -31.75 69.8 -31.75 70.05 -31.85 70.3 -31.8 70.05 -31.8 69.8 -31.75 69.55 -31.75 69.35 -31.6 69.1 -31.55 68.4 -31.5 68.15 -31.45 67.45 -31.6 M81.3 11.3 L81.55 11.3 81.8 11.35 82.05 11.35 81.8 11.35 81.3 11.3 81.15 11.1 80.9 11.0 80.9 11.0 81.15 11.1 81.3 11.3 M74.3 -2.7 L74.25 -2.9 74.3 -2.7 74.3 -2.45 74.4 -2.25 74.3 -1.7 74.4 -1.5 74.45 -1.25 74.55 -1.05 74.5 -0.75 74.6 -0.55 74.5 -0.3 74.55 -0.05 74.6 0.15 74.55 0.45 74.65 0.65 74.55 0.45 74.6 0.2 74.55 -0.05 74.5 -0.3 74.6 -0.55 74.45 -0.75 74.5 -1.05 74.45 -1.25 74.4 -1.5 74.3 -1.7 74.35 -2.25 74.3 -2.45 74.3 -2.7 M84.0 12.8 L84.0 12.8 83.8 12.65 83.8 12.65 84.0 12.8 M82.4 11.7 L82.65 11.85 82.8 12.05 83.0 12.15 83.2 12.3 83.2 12.3 83.0 12.15 82.75 12.05 82.65 11.85 82.4 11.7 M74.95 1.6 L74.95 2.1 75.4 2.65 75.5 2.85 75.7 3.05 75.9 3.2 76.1 3.65 76.25 3.85 76.3 4.05 76.5 4.25 76.8 4.7 76.65 5.2 76.75 4.7 76.5 4.25 76.3 4.05 76.25 3.85 76.05 3.65 75.85 3.2 75.65 3.05 75.5 2.85 75.4 2.65 74.95 2.1 74.9 1.6 74.75 1.35 74.7 1.15 74.7 0.9 74.65 0.7 74.75 0.9 74.7 1.15 74.75 1.35 74.95 1.6 M76.65 5.2 L76.7 5.45 76.6 5.65 76.55 5.9 76.5 6.1 76.8 6.55 76.95 6.7 77.1 6.9 77.2 7.15 77.45 7.55 77.5 7.8 77.6 8.05 77.85 8.15 78.05 8.3 78.35 8.7 78.4 8.95 78.6 9.1 78.85 9.55 79.05 9.7 79.2 9.85 79.3 10.1 79.5 10.25 79.6 10.45 79.6 10.45 79.5 10.25 79.3 10.1 79.15 9.9 79.05 9.7 78.85 9.55 78.6 9.1 78.4 8.95 78.3 8.7 78.0 8.3 77.85 8.15 77.6 8.05 77.5 7.8 77.45 7.55 77.2 7.15 77.1 6.9 76.8 6.55 76.5 6.1 76.5 5.9 76.6 5.65 76.7 5.45 76.65 5.2 M32.4 29.3 L32.6 29.45 32.6 29.7 32.85 30.15 32.85 30.65 33.0 31.1 33.1 31.35 33.05 31.55 33.1 31.8 33.1 32.05 33.2 32.25 33.2 32.5 33.45 32.65 33.5 32.9 33.75 33.0 33.8 33.15 33.75 33.0 33.5 32.9 33.45 32.65 33.2 32.5 33.2 32.25 33.05 32.05 33.1 31.8 33.05 31.55 33.05 31.35 33.0 31.1 32.85 30.65 32.8 30.4 32.85 30.15 32.6 29.7 32.6 29.45 32.4 29.3 32.25 29.1 32.05 28.95 31.95 28.75 31.7 28.6 31.55 28.45 31.2 27.8 31.15 27.55 31.05 27.3 31.15 27.5 31.2 27.8 31.6 28.4 31.7 28.6 31.95 28.75 32.05 28.95 32.3 29.1 32.4 29.3 M34.25 33.85 L34.1 33.65 34.25 33.85 34.4 34.05 34.55 34.25 34.65 34.45 34.9 34.55 35.05 34.75 34.65 34.45 34.55 34.25 34.4 34.05 34.25 33.85 M36.05 34.8 L36.3 34.85 36.5 34.95 36.75 34.95 37.0 34.8 37.25 34.75 37.45 34.75 37.25 34.75 37.0 34.85 36.75 34.95 36.5 34.95 36.05 34.8 35.8 34.8 35.55 34.8 35.3 34.8 35.55 34.8 35.8 34.75 36.05 34.8 M-63.5 -40.25 L-63.55 -40.35 -63.7 -40.2 -63.65 -40.1 -63.55 -40.0 -63.5 -40.25 M-12.9 -48.4 L-13.0 -48.35 -13.25 -48.3 -13.5 -48.3 -13.7 -48.35 -13.95 -48.3 -14.35 -48.1 -14.15 -48.05 -13.9 -48.05 -13.4 -47.95 -13.0 -48.25 -12.9 -48.4 M-10.85 -47.4 L-10.75 -47.5 -10.9 -47.5 -11.8 -47.2 -12.1 -47.0 -12.0 -47.0 -11.7 -47.0 -11.25 -47.15 -10.85 -47.4 M-10.75 -47.5 L-10.75 -47.5 -10.7 -47.55 -10.9 -47.55 -10.75 -47.5 M-6.15 -56.3 L-6.35 -56.15 -6.8 -55.55 -7.05 -55.45 -7.25 -55.3 -7.55 -54.9 -5.8 -54.35 -5.85 -54.3 -7.65 -54.9 -8.05 -54.9 -8.25 -54.7 -8.45 -54.65 -9.1 -54.3 -9.35 -54.2 -9.45 -54.0 -9.9 -53.7 -9.95 -53.45 -10.15 -53.3 -10.3 -52.8 -10.55 -52.4 -10.7 -51.95 -10.8 -51.75 -10.9 -51.55 -10.85 -51.25 -11.0 -51.05 -11.0 -50.8 -10.95 -50.55 -11.05 -50.3 -11.25 -50.15 -11.4 -49.95 -11.45 -49.7 -12.25 -48.8 -12.35 -48.55 -12.6 -48.5 -12.75 -48.45 -12.75 -48.45 -12.5 -48.4 -12.05 -48.1 -11.6 -47.95 -11.4 -47.8 -11.05 -47.55 -10.9 -47.6 -10.4 -47.65 -10.3 -47.65 -10.2 -47.7 -9.95 -47.7 -9.75 -47.85 -9.3 -48.05 -9.15 -48.25 -8.85 -48.25 -8.75 -48.5 -8.5 -48.6 -8.35 -48.8 -8.15 -48.9 -8.05 -49.15 -7.85 -49.3 -7.35 -49.5 -7.2 -49.65 -7.05 -49.85 -6.85 -50.0 -6.5 -50.3 -6.35 -50.85 -6.2 -51.0 -6.1 -51.2 -5.95 -51.4 -5.5 -51.65 -5.45 -51.9 -5.0 -52.55 -4.85 -53.05 -4.85 -53.5 -4.95 -53.75 -4.85 -54.0 -4.9 -54.25 -4.95 -54.5 -4.85 -54.7 -4.8 -54.95 -4.65 -55.2 -4.7 -55.4 -4.75 -55.65 -4.7 -55.9 -4.55 -56.15 -4.65 -56.6 -4.65 -56.65 -4.75 -56.65 -5.5 -56.55 -5.7 -56.4 -5.9 -56.35 -6.15 -56.3 M-21.6 -39.75 L-21.6 -40.05 -22.0 -39.9 -22.75 -39.35 -22.8 -38.85 -23.1 -38.5 -23.5 -38.15 -24.0 -37.35 -24.05 -37.25 -23.9 -37.25 -23.5 -37.05 -23.5 -37.1 -23.35 -37.3 -23.2 -37.5 -23.05 -37.7 -23.0 -37.95 -22.55 -38.55 -22.4 -38.75 -22.3 -38.95 -22.1 -39.15 -21.95 -39.35 -21.6 -39.75 M-20.6 -43.45 L-20.6 -43.45 -20.75 -43.35 -20.9 -43.15 Q-21.0 -43.05 -21.1 -43.0 L-21.25 -42.85 -21.35 -42.35 -21.6 -42.2 -21.8 -42.05 -22.0 -41.95 -22.25 -41.85 -22.6 -41.5 -22.7 -41.3 -22.8 -41.05 -23.0 -40.65 -23.4 -40.25 -23.4 -40.0 -23.6 -39.85 -23.85 -39.75 -23.95 -39.5 -24.15 -39.35 -24.2 -38.85 -24.3 -38.65 -24.5 -38.2 -24.85 -37.8 -24.9 -37.6 -24.85 -37.45 -24.6 -37.5 -24.35 -37.45 -24.2 -37.3 -23.55 -38.25 -23.2 -38.55 -22.9 -38.95 -22.85 -39.4 -22.45 -39.75 -22.05 -40.0 -21.6 -40.15 -21.55 -40.15 -21.35 -40.65 -21.35 -40.9 -21.25 -41.15 -21.25 -41.4 -21.15 -41.6 -20.7 -42.25 -20.65 -42.45 -20.7 -42.7 -20.7 -43.2 -20.6 -43.45 M-18.4 -45.05 L-18.6 -44.9 -18.75 -44.65 -18.9 -44.5 -19.1 -44.4 -19.3 -44.2 -19.55 -44.15 -19.75 -44.0 -19.95 -43.85 -20.15 -43.7 -20.3 -43.5 -20.5 -43.5 -20.55 -43.4 -20.6 -43.2 -20.65 -42.7 -20.6 -42.45 -20.65 -42.2 -21.1 -41.6 -21.15 -41.35 -21.2 -41.15 -21.3 -40.9 -21.3 -40.65 -21.4 -40.3 -20.75 -40.65 -20.4 -40.95 -20.1 -41.35 -19.7 -41.65 -19.45 -42.05 -19.25 -42.5 -18.95 -42.85 -18.55 -43.75 -18.3 -44.15 -18.1 -45.1 -16.85 -45.85 -16.5 -46.2 -15.6 -46.6 -15.1 -46.6 -14.15 -46.8 -13.65 -46.8 -12.75 -47.0 -12.25 -47.0 -11.8 -47.3 -11.05 -47.55 -11.25 -47.6 -11.6 -47.95 -11.85 -48.0 -12.5 -48.35 -12.75 -48.4 -12.85 -48.4 -13.0 -48.2 -13.4 -47.95 -13.9 -48.0 -14.15 -48.0 -14.4 -48.05 -14.6 -47.9 -14.85 -47.8 -15.65 -47.25 -15.9 -47.25 -16.05 -47.05 -16.3 -46.95 -16.45 -46.8 -16.7 -46.65 -16.85 -46.5 -17.0 -46.3 -17.2 -46.2 -17.35 -46.0 -17.6 -45.9 -17.75 -45.75 -17.95 -45.6 -18.2 -45.5 -18.3 -45.3 -18.4 -45.05 M-17.55 -49.25 L-17.75 -49.25 -18.25 -49.25 -18.5 -49.15 -18.75 -49.2 -18.8 -49.2 -18.85 -49.15 -18.9 -48.9 -18.8 -48.4 -19.05 -48.0 -19.0 -47.7 -19.25 -47.3 -19.45 -47.1 -19.4 -46.85 -19.5 -46.65 -19.65 -45.9 -19.65 -45.65 -19.8 -45.45 -19.95 -45.25 -20.0 -45.05 -20.15 -44.8 -20.3 -43.85 -20.4 -43.65 -20.45 -43.55 -20.35 -43.55 -20.15 -43.75 -19.95 -43.9 -19.75 -44.05 -19.55 -44.2 -19.35 -44.25 -19.15 -44.45 -18.95 -44.55 -18.75 -44.7 -18.65 -44.95 -18.45 -45.1 -18.25 -45.5 -17.8 -45.75 -17.6 -45.95 -17.4 -46.0 -17.25 -46.25 -17.0 -46.35 -16.9 -46.55 -16.7 -46.7 -16.5 -46.8 -16.3 -47.0 -16.1 -47.1 -15.9 -47.25 -15.65 -47.3 -14.85 -47.85 -14.6 -47.9 -14.45 -48.1 -14.6 -48.25 -14.85 -48.15 -15.1 -48.2 -15.35 -48.1 -15.6 -48.15 -15.8 -48.25 -16.05 -48.3 -16.25 -48.4 -16.9 -48.9 -17.55 -49.25 -16.85 -48.9 -16.25 -48.45 -16.05 -48.35 -15.8 -48.3 -15.6 -48.2 -15.35 -48.15 -15.1 -48.25 -14.85 -48.2 -14.6 -48.25 -14.4 -48.1 -14.2 -48.2 -13.95 -48.35 -13.7 -48.4 -13.25 -48.3 -13.0 -48.4 -12.85 -48.4 -12.85 -48.45 -12.65 -48.55 -12.4 -48.6 -12.25 -48.8 -11.5 -49.75 -11.45 -50.0 -11.3 -50.15 -11.1 -50.35 -11.0 -50.55 -11.05 -51.05 -10.9 -51.3 -10.95 -51.55 -10.85 -51.75 -10.7 -51.95 -10.55 -52.45 -10.3 -52.85 -10.2 -53.35 -10.0 -53.5 -9.9 -53.7 -9.5 -54.0 -9.4 -54.25 -9.15 -54.3 -8.5 -54.65 -8.25 -54.75 -8.1 -54.9 -7.65 -54.95 -8.05 -55.2 -10.25 -56.2 -10.55 -56.6 -11.95 -57.0 -12.4 -56.9 -12.9 -56.95 -13.35 -56.75 -13.75 -56.5 -15.6 -54.9 -16.45 -54.4 -16.9 -54.35 -17.1 -53.9 -17.35 -53.45 -17.7 -53.1 -18.1 -52.8 Q-18.5 -52.6 -18.95 -52.35 L-19.0 -52.35 -18.95 -52.2 -18.95 -51.95 -18.9 -51.7 -18.75 -51.5 -18.7 -51.25 -18.55 -51.05 -18.6 -50.55 -18.6 -50.1 -18.8 -49.85 -18.75 -49.6 -18.75 -49.35 -18.8 -49.25 -18.75 -49.2 -18.5 -49.2 -18.25 -49.3 -17.75 -49.3 -17.55 -49.25 M-23.45 -51.0 L-23.9 -50.95 -24.3 -50.65 -24.75 -50.5 -25.5 -49.95 -26.4 -49.5 -27.35 -49.3 -27.75 -49.05 -28.65 -48.65 -29.1 -48.6 -29.6 -48.65 -30.1 -48.6 -30.55 -48.5 -31.05 -48.55 -31.55 -48.45 -32.0 -48.3 -32.5 -48.3 -33.4 -48.15 -33.9 -48.2 -34.4 -48.05 -35.35 -48.2 -35.85 -48.2 -36.3 -48.0 -36.75 -47.9 -37.2 -47.65 -37.65 -47.5 -38.15 -47.5 -38.55 -47.35 -39.0 -47.05 -39.45 -46.85 -40.4 -46.8 -40.85 -46.7 -41.7 -46.3 -42.15 -46.05 -42.6 -45.95 -43.4 -45.45 -44.25 -44.25 -44.65 -43.95 -45.1 -43.7 -45.55 -43.6 -46.55 -43.7 -47.0 -43.9 -47.45 -44.0 -48.4 -44.0 -49.3 -43.8 -49.7 -43.65 -49.6 -43.55 -49.35 -43.45 -49.05 -42.8 -48.85 -42.6 -48.65 -42.5 -48.5 -42.3 -48.35 -42.15 -47.9 -41.9 -47.65 -41.85 -47.5 -41.65 -47.3 -41.55 -47.0 -41.5 -46.8 -41.35 -46.35 -41.25 -45.95 -40.95 -45.7 -40.95 -45.2 -41.0 -45.0 -40.9 -44.75 -40.95 -44.5 -40.85 -44.05 -41.1 -43.8 -41.15 -43.6 -41.15 -43.35 -41.25 -43.1 -41.3 -42.85 -41.3 -42.4 -41.15 -42.15 -41.15 -41.9 -41.1 -41.3 -40.6 -40.85 -40.45 -40.65 -40.3 -40.15 -40.25 -39.95 -40.1 -39.7 -40.2 -39.05 -39.8 -38.85 -39.65 -38.65 -39.45 -38.2 -39.35 -38.0 -39.2 -37.75 -39.2 -37.55 -39.05 -37.3 -38.95 -36.9 -38.65 -36.45 -38.45 -36.2 -38.4 -35.75 -38.1 -35.55 -38.05 -35.3 -38.15 -35.05 -38.1 -34.8 -38.15 -34.55 -38.1 -34.35 -38.2 -34.1 -38.1 -33.65 -38.35 -33.4 -38.35 -32.9 -38.25 -32.65 -38.35 -32.45 -38.35 -32.15 -38.45 -31.7 -38.35 -31.45 -38.45 -31.2 -38.35 -30.95 -38.4 -30.75 -38.3 -30.5 -38.25 -30.3 -38.1 -29.9 -37.8 -29.4 -37.85 -29.2 -37.7 -28.9 -37.7 -28.7 -37.65 -28.45 -37.7 -28.45 -37.65 -28.7 -37.6 -28.95 -37.65 -29.2 -37.65 -29.4 -37.8 -29.95 -37.75 -30.15 -37.9 -30.3 -38.1 -30.5 -38.2 -30.75 -38.25 -30.95 -38.35 -31.25 -38.3 -31.45 -38.4 -31.7 -38.3 -32.2 -38.4 -32.45 -38.3 -32.65 -38.3 -32.9 -38.25 -33.15 -38.25 -33.4 -38.3 -33.65 -38.3 -34.1 -38.05 -34.35 -38.15 -34.55 -38.05 -34.8 -38.1 -35.05 -38.05 -35.3 -38.1 -35.55 -38.0 -35.8 -38.05 -36.2 -38.35 -36.45 -38.4 -36.9 -38.6 -37.3 -38.9 -37.55 -39.0 -37.75 -39.15 -38.0 -39.15 -38.2 -39.3 -38.7 -39.4 -39.05 -39.75 -39.3 -39.85 -39.7 -40.15 -39.95 -40.05 -40.15 -40.15 -40.4 -40.2 -40.65 -40.2 -40.85 -40.35 -41.3 -40.55 -41.9 -41.0 -42.15 -41.1 -42.4 -41.1 -42.85 -41.2 -43.1 -41.2 -43.35 -41.15 -43.55 -41.05 -43.8 -41.05 -44.05 -41.05 -44.5 -40.8 -44.75 -40.85 -45.0 -40.8 -45.2 -40.95 -46.0 -40.85 -46.35 -41.15 -46.85 -41.3 -47.05 -41.45 -47.3 -41.45 -47.55 -41.55 -47.7 -41.75 -48.4 -42.05 -48.55 -42.2 -48.7 -42.45 -48.9 -42.55 -49.1 -42.7 -49.45 -43.4 -49.65 -43.5 -49.8 -43.65 -50.7 -43.5 -51.7 -43.2 -52.65 -43.1 -54.1 -43.25 -54.55 -43.4 -55.05 -43.35 -55.5 -43.5 -56.45 -43.45 -57.4 -43.6 -57.9 -43.6 -58.35 -43.45 -58.7 -43.2 -58.85 -42.75 -59.05 -42.3 -59.15 -41.8 -59.3 -41.35 -59.55 -40.9 -59.9 -40.55 -60.75 -40.15 -61.15 -39.85 -61.45 -39.75 -59.75 -38.7 -55.85 -36.8 -53.1 -36.45 -51.8 -35.3 -47.2 -33.5 -46.95 -33.6 -46.45 -33.65 -46.0 -33.65 -45.5 -33.5 -44.1 -33.2 -43.6 -33.25 -42.65 -33.1 -42.25 -32.85 -41.75 -32.8 -41.35 -32.5 -40.45 -32.15 -40.3 -31.95 -39.8 -31.85 -38.85 -32.0 -37.9 -31.85 -37.5 -31.55 -36.95 -31.9 -36.7 -31.95 -36.5 -32.1 -36.3 -32.25 -36.25 -32.5 -36.05 -32.65 -35.95 -32.85 -35.75 -33.05 -35.7 -33.3 -35.5 -33.45 -35.35 -33.65 -35.15 -33.8 -35.0 -34.0 -34.8 -34.1 -34.3 -34.25 -34.1 -34.35 -33.8 -34.4 -33.45 -34.65 -33.1 -35.0 -32.85 -35.1 -32.75 -35.35 -32.45 -35.35 -32.3 -35.55 -32.2 -35.8 -32.1 -36.0 -31.95 -36.2 -31.45 -36.35 -31.25 -36.5 -31.0 -36.45 -30.75 -36.45 -30.55 -36.35 -30.3 -36.4 -30.05 -36.5 -29.8 -36.45 -29.6 -36.55 -29.35 -36.55 -29.1 -36.65 -28.85 -36.6 -28.65 -36.75 -28.45 -36.8 -28.2 -36.9 -27.95 -36.85 -27.75 -36.95 -27.5 -36.9 -27.25 -36.95 -27.0 -37.0 -26.85 -37.2 -26.35 -37.25 -25.85 -37.45 -25.6 -37.3 -25.35 -37.25 -25.1 -37.3 -24.9 -37.25 -24.9 -37.45 -25.1 -37.5 -25.35 -37.45 -25.55 -37.5 -25.8 -37.45 -25.85 -37.45 -26.3 -37.45 -26.55 -37.55 -27.05 -37.6 -27.25 -37.5 -27.5 -37.4 -27.5 -37.45 -27.25 -37.55 -27.0 -37.65 -26.55 -37.6 -26.3 -37.5 -26.05 -37.45 -25.8 -37.45 -25.55 -37.55 -25.35 -37.45 -25.1 -37.55 -24.95 -37.5 -24.95 -37.55 -24.9 -37.8 -24.75 -38.05 -24.6 -38.25 -24.25 -38.9 -24.25 -39.15 -24.2 -39.4 -24.0 -39.55 -23.9 -39.75 -23.65 -39.9 -23.5 -40.05 -23.45 -40.3 -23.1 -40.65 -22.85 -41.1 -22.8 -41.3 -22.65 -41.55 -22.3 -41.85 -21.85 -42.1 -21.65 -42.25 -21.4 -42.35 -21.3 -42.85 -21.15 -43.05 -20.95 -43.15 -20.8 -43.4 -20.6 -43.5 -20.55 -43.5 -20.45 -43.65 -20.4 -43.9 -20.35 -44.1 -20.3 -44.35 -20.2 -44.85 -20.1 -45.05 -20.0 -45.25 -19.7 -45.7 -19.75 -45.95 -19.55 -46.65 -19.45 -46.85 -19.5 -47.1 -19.15 -47.55 -19.05 -47.75 -19.1 -48.0 -18.85 -48.4 -18.9 -48.65 -18.95 -48.9 -18.9 -49.15 -18.85 -49.2 -18.95 -49.25 -19.15 -49.4 -19.4 -49.45 -19.65 -49.45 -20.25 -49.95 -20.5 -49.95 -21.25 -49.8 -21.5 -49.75 -21.95 -49.95 -22.2 -50.0 -22.4 -50.15 -22.9 -50.15 -23.45 -51.0 M-20.85 -52.25 L-21.3 -52.15 -22.05 -51.5 -22.95 -51.15 -23.4 -51.0 -22.85 -50.2 -22.35 -50.2 -22.2 -50.0 -21.95 -50.0 -21.5 -49.8 -21.25 -49.85 -20.5 -50.0 -20.25 -50.0 -19.65 -49.5 -19.4 -49.5 -19.15 -49.45 -18.95 -49.3 -18.85 -49.25 -18.8 -49.35 -18.8 -49.6 -18.85 -49.9 -18.65 -50.1 -18.65 -50.6 -18.6 -51.05 -18.75 -51.25 -18.8 -51.5 -18.95 -51.65 -19.0 -51.9 -19.0 -52.15 -19.05 -52.35 -19.45 -52.35 -19.9 -52.15 -20.85 -52.25 M-19.3 -57.7 L-19.35 -57.7 -19.8 -57.65 -20.0 -57.5 -20.25 -57.5 -20.5 -57.5 -20.75 -57.35 -21.0 -57.4 -21.7 -57.2 -21.95 -57.25 -22.4 -57.1 -22.65 -57.1 -22.9 -57.1 -23.1 -57.05 -23.6 -57.05 -23.85 -56.95 -24.3 -56.85 -24.75 -56.65 -25.0 -56.65 -25.15 -56.45 -25.35 -56.3 -25.55 -56.1 -25.75 -56.0 -26.0 -55.95 -26.4 -55.7 -26.6 -55.55 -26.75 -55.35 -27.05 -55.3 -27.4 -54.95 -27.85 -54.85 -28.1 -54.85 -28.55 -54.65 -28.75 -54.45 -29.0 -54.5 -29.2 -54.4 -29.75 -54.35 -29.95 -54.2 -30.2 -54.2 -30.7 -54.4 -30.95 -54.35 -31.15 -54.4 -31.4 -54.35 -31.65 -54.35 -31.9 -54.3 -32.1 -54.3 -32.3 -54.15 -32.55 -54.15 -32.8 -54.0 -33.05 -54.05 -33.2 -53.85 -33.4 -53.65 -33.6 -53.6 -33.85 -53.5 -34.2 -53.15 -34.45 -53.15 -34.6 -52.95 -35.0 -52.65 -35.25 -52.6 -35.6 -52.25 -35.8 -52.2 -36.4 -51.75 -36.55 -51.55 -36.7 -51.4 -36.8 -51.15 -37.0 -51.0 -37.2 -50.85 -37.35 -50.65 -37.5 -50.45 -37.65 -50.25 -37.8 -50.05 -37.95 -49.9 -38.2 -49.8 -38.4 -49.65 -38.55 -49.5 -38.75 -49.35 -38.8 -49.1 -38.95 -48.9 -39.15 -48.7 -39.35 -48.3 -39.45 -48.05 -39.65 -47.9 -39.75 -47.65 -39.9 -47.45 -40.15 -47.4 -40.35 -47.25 -40.5 -47.05 -40.7 -46.95 -40.8 -46.8 -40.4 -46.9 -39.45 -46.95 -39.0 -47.15 -38.6 -47.4 -38.15 -47.6 -37.65 -47.6 -37.2 -47.75 -36.8 -48.0 -36.3 -48.1 -35.85 -48.25 -35.4 -48.3 -34.4 -48.15 -33.95 -48.25 -33.45 -48.2 -32.5 -48.4 -32.0 -48.35 -31.55 -48.5 -31.05 -48.6 -30.55 -48.55 -30.1 -48.7 -29.6 -48.7 -29.15 -48.65 -28.65 -48.7 -27.8 -49.1 -27.35 -49.4 -26.4 -49.6 -25.55 -50.0 -24.75 -50.55 -24.3 -50.7 -23.9 -51.0 -23.45 -51.05 -22.95 -51.2 -22.1 -51.55 -21.35 -52.2 -20.85 -52.3 -19.9 -52.2 -19.45 -52.4 -19.05 -52.4 -19.15 -52.65 -19.1 -52.9 -19.25 -53.4 -19.2 -53.65 -19.05 -53.85 -18.85 -54.0 -18.7 -54.2 -18.65 -54.7 -18.5 -54.9 -18.55 -55.15 -18.5 -55.4 -18.6 -55.65 -18.65 -55.85 -18.7 -56.1 -18.85 -56.55 -18.9 -56.8 -19.1 -57.5 -19.3 -57.7 M22.0 14.15 L22.0 14.15 M16.65 2.45 L16.35 2.05 16.3 1.8 16.25 1.6 16.35 1.8 16.35 2.05 16.7 2.45 16.8 2.65 17.2 2.95 17.25 3.2 17.5 3.35 17.5 3.6 17.75 3.7 17.9 3.9 18.15 4.0 18.35 4.15 18.45 4.35 18.65 4.55 18.85 4.7 19.1 5.1 19.3 5.55 19.55 6.0 19.55 6.2 19.7 6.45 19.75 6.65 19.85 6.9 19.85 7.15 20.0 7.35 19.95 7.6 20.1 7.8 20.25 8.3 20.15 8.5 20.2 8.75 20.1 9.0 20.15 9.25 20.15 9.5 20.25 9.75 20.25 10.0 20.2 10.2 20.35 10.65 20.3 10.95 20.35 11.2 20.45 11.4 20.65 11.6 20.85 11.75 20.85 12.0 21.1 12.15 21.4 12.55 21.5 12.75 21.6 13.0 21.6 13.25 21.75 13.45 21.95 13.9 21.75 13.45 21.6 13.25 21.6 13.0 21.5 12.75 21.35 12.55 21.05 12.15 20.85 12.0 20.85 11.75 20.6 11.6 20.45 11.4 20.35 11.2 20.3 10.95 20.35 10.7 20.2 10.2 20.25 10.0 20.2 9.75 20.15 9.5 20.15 9.25 20.1 9.0 20.2 8.75 20.1 8.5 20.25 8.3 20.05 7.85 19.95 7.6 19.95 7.35 19.85 7.15 19.85 6.9 19.75 6.65 19.7 6.45 19.55 6.2 19.55 6.0 19.3 5.55 19.1 5.1 18.85 4.7 18.6 4.55 18.45 4.35 18.3 4.15 18.1 4.0 17.9 3.9 17.75 3.7 17.5 3.6 17.45 3.35 17.25 3.2 17.15 2.95 16.8 2.65 16.65 2.45 M-63.4 -39.85 L-63.4 -39.85 -63.4 -39.85 M-27.8 -27.35 L-28.25 -27.5 -28.75 -27.55 -29.2 -27.5 -29.65 -27.6 -30.5 -27.45 -29.75 -26.75 -25.8 -25.5 -25.25 -26.05 -25.2 -26.1 -25.2 -26.15 -26.65 -26.5 -27.0 -26.8 -27.45 -27.05 -27.8 -27.35 M-24.95 -29.75 L-24.95 -29.75 -24.85 -29.5 -24.65 -29.35 -24.6 -28.3 -24.6 -28.05 -24.7 -27.8 -24.6 -27.55 -24.55 -27.45 -24.0 -28.1 -23.85 -28.55 -23.8 -28.6 -24.55 -29.3 -24.85 -29.7 -24.95 -29.75 M-24.35 -37.4 L-24.6 -37.5 -24.85 -37.4 -24.8 -37.35 -24.85 -37.2 -24.7 -37.1 -24.5 -36.9 -24.45 -36.9 -24.2 -37.3 -24.35 -37.4 M-23.35 -34.1 L-23.5 -34.3 -23.45 -34.05 -23.3 -33.95 -23.35 -34.1 M-23.7 -34.95 L-24.2 -35.75 -24.55 -36.1 -24.7 -36.6 -24.5 -36.85 -24.5 -36.85 -24.7 -37.05 -24.85 -37.15 -25.1 -36.65 -25.25 -36.45 -25.35 -35.95 -25.55 -35.8 -25.6 -35.55 -25.8 -35.4 -25.95 -35.15 -26.0 -34.7 -26.2 -34.5 -26.25 -34.3 -26.2 -34.05 -26.2 -33.8 -26.3 -33.55 -26.25 -33.3 -26.45 -32.85 -26.35 -32.4 -26.25 -32.15 -26.25 -31.7 -26.05 -31.45 -25.95 -31.25 -26.05 -31.0 -25.95 -30.8 -25.75 -30.65 -25.6 -30.45 -25.2 -30.15 -25.05 -29.95 -24.8 -29.75 -24.5 -29.35 -23.75 -28.65 -23.5 -28.95 -23.35 -29.4 -23.35 -30.3 -23.2 -30.8 -23.15 -31.3 -23.0 -31.75 -22.95 -32.2 -23.0 -32.7 -23.3 -33.6 -23.3 -33.85 -23.55 -34.0 -23.55 -34.4 -23.6 -34.45 -23.7 -34.95 M-24.1 -36.7 L-24.25 -36.8 -24.4 -36.85 -24.55 -36.65 -24.45 -36.2 -24.1 -35.85 -23.85 -35.4 -23.85 -35.45 -23.8 -35.7 -23.9 -36.15 -23.8 -36.4 -23.7 -36.55 -24.1 -36.7 M-23.9 -37.2 L-24.05 -37.25 -24.35 -36.9 -24.05 -36.75 -23.65 -36.6 -23.65 -36.65 -23.6 -36.85 -23.55 -37.0 -23.9 -37.2 M-5.45 -30.55 L-5.45 -30.55 -5.55 -30.7 -5.45 -30.55 M-7.95 -30.7 L-8.0 -30.75 -8.25 -30.8 -8.5 -30.75 -8.75 -30.85 -8.95 -31.05 -9.2 -31.1 -9.45 -31.05 -9.65 -31.15 -9.9 -31.1 -10.15 -31.1 -10.6 -31.4 -11.2 -31.85 -11.45 -31.85 -11.95 -31.8 -12.2 -31.9 -12.4 -31.9 -12.65 -32.05 -12.9 -32.1 -13.15 -32.1 -13.35 -32.0 -13.6 -32.1 -13.85 -32.05 -14.1 -32.0 -14.35 -32.05 -14.6 -31.95 -14.8 -32.0 -15.05 -31.95 -15.3 -32.05 -15.55 -31.95 -15.8 -31.95 -16.0 -32.05 -16.3 -32.0 -16.8 -32.0 -17.05 -32.05 -17.2 -32.2 -17.45 -32.25 -17.7 -32.35 -17.85 -32.55 -18.6 -33.15 -18.8 -33.25 -19.15 -33.6 -19.55 -33.9 -19.7 -34.1 -19.85 -34.3 -20.1 -34.4 -20.35 -34.45 -20.5 -34.65 -20.9 -34.9 -21.15 -34.95 -21.4 -35.1 -21.5 -35.3 -22.0 -35.45 -22.1 -35.7 -22.6 -35.9 -22.75 -36.1 -22.95 -36.2 -23.15 -36.35 -23.6 -36.55 -23.7 -36.4 -23.8 -36.15 -23.75 -35.95 -23.7 -35.7 -23.75 -35.45 -23.7 -35.2 -23.5 -35.0 -23.45 -34.8 -23.45 -34.5 -23.2 -34.1 -23.15 -33.6 -22.85 -32.7 -22.8 -32.2 -22.85 -31.75 -23.05 -31.25 -23.1 -30.75 -23.2 -30.3 -23.25 -29.3 -23.4 -28.85 -23.6 -28.55 -23.45 -28.4 -23.0 -28.15 -22.65 -27.8 -22.15 -27.7 -21.2 -27.5 -20.75 -27.5 -19.8 -27.2 -19.3 -27.25 -18.85 -27.35 -17.35 -27.35 -15.95 -27.05 -15.0 -27.1 -14.1 -27.45 -13.6 -27.45 -13.1 -27.55 -12.7 -27.8 -11.3 -28.15 -10.85 -28.35 -8.65 -30.2 -7.95 -30.7 M-37.25 -14.7 L-37.35 -14.85 -37.35 -14.7 -37.45 -13.75 -37.25 -12.8 -37.5 -12.35 -37.85 -11.45 -37.95 -10.95 -38.2 -10.55 -38.25 -10.05 -38.55 -9.15 -38.75 -8.15 -38.9 -7.7 -38.9 -7.2 -39.05 -6.75 -39.45 -6.45 -39.9 -6.2 -39.8 -5.75 -39.5 -5.35 -38.8 -4.1 -38.65 -3.65 -38.4 -3.2 -38.0 -2.35 -37.75 -1.95 -37.4 -1.65 -37.1 -1.25 -37.1 -1.25 -36.75 -1.6 -36.55 -1.75 -36.5 -2.25 -36.35 -2.45 -36.15 -2.6 -36.1 -2.85 -36.1 -3.1 -36.0 -3.3 -36.05 -3.55 -35.6 -4.2 -35.65 -4.45 -35.65 -4.65 -35.45 -5.15 -35.3 -5.35 -35.25 -5.55 -35.25 -5.8 -35.15 -6.05 -35.3 -7.05 -35.2 -7.3 -35.25 -7.55 -35.2 -7.75 -35.25 -8.0 -35.35 -8.25 -35.2 -8.5 -35.35 -8.7 -35.4 -8.95 -35.35 -9.2 -35.6 -9.65 -35.65 -9.9 -35.8 -10.1 -35.75 -10.35 -35.85 -10.85 -36.15 -11.2 -36.7 -12.6 -36.85 -12.8 -36.85 -13.05 -36.95 -13.3 -36.9 -13.8 -37.0 -14.05 -37.15 -14.25 -37.25 -14.7 M-37.5 -16.0 L-37.55 -15.85 -37.45 -15.6 -37.45 -15.65 -37.5 -16.0 M-37.2 -17.1 L-37.25 -17.05 -37.45 -16.6 -37.45 -16.55 -37.4 -16.55 -37.25 -16.75 -37.2 -17.0 -37.2 -17.1 M-36.85 -18.45 L-36.85 -18.55 -37.0 -18.2 -37.05 -18.0 -37.1 -17.95 -37.0 -18.2 -36.85 -18.45 M-35.65 -30.2 L-35.15 -29.85 -34.85 -29.45 -34.5 -29.1 -34.2 -28.7 -34.15 -28.6 -33.2 -28.1 -30.75 -27.65 -30.65 -27.6 -30.6 -27.6 -29.7 -27.8 -29.2 -27.65 -28.2 -27.65 -27.75 -27.5 -27.35 -27.15 -26.95 -26.95 -26.55 -26.6 -25.15 -26.25 -25.15 -26.25 -24.9 -26.95 -24.65 -27.35 -24.65 -27.35 -24.8 -27.8 -24.75 -28.05 -24.7 -28.3 -24.8 -29.3 -24.95 -29.45 -25.05 -29.7 -25.25 -29.95 -25.65 -30.25 -26.1 -30.35 -26.55 -30.55 -28.95 -30.75 -29.45 -30.7 -29.9 -30.6 -31.35 -30.7 -31.85 -30.5 -32.75 -30.3 -33.75 -30.2 -34.2 -30.1 -35.15 -30.25 -35.65 -30.2 M-37.5 -30.65 L-38.0 -30.7 -38.4 -30.9 -36.8 -30.2 -34.35 -28.7 -34.6 -29.0 -34.95 -29.35 -35.2 -29.75 -36.3 -30.45 -36.55 -30.45 -37.0 -30.65 -37.5 -30.65 M-40.2 -31.7 L-40.3 -31.8 -41.2 -32.15 -41.4 -32.1 -39.95 -31.5 -40.2 -31.7 M-39.8 -31.7 L-40.15 -31.8 -40.15 -31.75 -39.75 -31.45 -38.4 -31.0 -37.95 -30.8 -37.5 -30.7 -37.0 -30.75 -36.55 -30.55 -36.45 -30.55 -37.95 -31.7 -38.35 -31.85 -38.85 -31.85 -39.8 -31.7 M-40.4 -32.0 L-40.45 -32.1 -41.4 -32.45 -41.8 -32.7 -42.25 -32.75 -42.65 -33.0 -43.6 -33.15 -44.1 -33.1 -45.5 -33.4 -46.45 -33.55 -46.9 -33.5 -47.0 -33.45 -44.9 -32.9 -43.2 -32.05 -42.85 -32.45 -42.55 -32.65 -42.55 -32.6 -41.65 -32.25 -41.15 -32.3 -40.7 -32.05 -40.4 -32.0 M-32.8 -35.05 L-33.05 -34.95 -33.4 -34.55 -33.8 -34.3 -34.05 -34.25 -34.25 -34.15 -34.75 -34.05 -34.95 -33.9 -35.1 -33.7 -35.3 -33.6 -35.45 -33.4 -35.6 -33.2 -35.7 -32.95 -35.85 -32.8 -35.95 -32.55 -36.15 -32.45 -36.25 -32.2 -36.4 -32.0 -36.6 -31.9 -36.85 -31.8 -37.4 -31.45 -36.75 -30.9 -36.2 -30.55 -36.05 -30.55 -35.65 -30.3 -35.15 -30.3 -34.2 -30.15 -33.75 -30.3 -32.8 -30.35 -31.85 -30.6 -31.4 -30.75 -30.4 -30.75 -29.9 -30.65 -29.45 -30.8 -28.95 -30.8 -26.55 -30.65 -25.6 -30.3 -25.7 -30.4 -25.85 -30.6 -26.05 -30.7 -26.15 -30.95 -26.05 -31.2 -26.15 -31.45 -26.3 -31.65 -26.35 -31.9 -26.35 -32.15 -26.45 -32.35 -26.55 -32.85 -26.35 -33.3 -26.4 -33.55 -26.3 -33.8 -26.3 -34.05 -26.35 -34.3 -26.25 -34.55 -26.1 -34.7 -26.0 -35.2 -25.9 -35.4 -25.7 -35.55 -25.65 -35.85 -25.45 -36.0 -25.4 -36.25 -25.3 -36.5 -25.2 -36.65 -24.95 -37.2 -25.15 -37.25 -25.35 -37.15 -25.85 -37.35 -26.3 -37.2 -26.8 -37.15 -27.0 -36.95 -27.45 -36.85 -27.7 -36.9 -27.95 -36.8 -28.2 -36.85 -28.4 -36.75 -28.65 -36.65 -28.85 -36.5 -29.1 -36.55 -29.8 -36.4 -30.05 -36.45 -30.3 -36.3 -30.55 -36.25 -30.75 -36.4 -31.0 -36.35 -31.2 -36.4 -31.4 -36.25 -31.9 -36.15 -32.05 -35.95 -32.25 -35.5 -32.4 -35.3 -32.7 -35.25 -32.8 -35.05 M-63.25 -39.85 L-63.25 -39.8 -63.35 -39.45 -63.45 -39.45 -63.5 -39.45 -63.4 -39.0 -63.1 -38.6 -62.05 -37.7 -60.3 -36.95 -59.8 -36.85 -58.1 -35.9 -57.65 -35.8 -57.25 -35.5 -56.8 -35.35 -56.45 -35.05 -55.5 -34.85 -54.7 -34.3 -53.35 -33.8 -52.95 -33.5 -52.1 -33.05 -51.65 -33.1 -51.15 -33.0 -50.2 -32.85 -49.75 -32.95 -49.3 -33.1 -48.8 -33.15 -48.4 -33.45 -48.15 -33.45 -51.9 -34.9 -53.2 -36.1 -56.0 -36.4 -57.6 -37.15 -62.05 -39.65 -62.15 -39.65 -62.45 -39.75 -63.25 -39.85 M-25.35 -25.35 L-23.15 -24.9 -23.2 -24.9 -24.1 -25.25 -24.4 -25.65 -25.05 -26.05 -25.1 -25.95 -25.6 -25.45 -25.35 -25.35 M-4.35 29.35 L-4.3 29.15 -4.25 28.9 -4.0 28.5 -3.95 28.25 -3.8 28.05 -3.9 28.25 -4.0 28.5 -4.25 28.9 -4.25 29.15 -4.35 29.35 -4.5 29.6 -4.45 29.75 -4.5 29.6 -4.35 29.35 M-4.3 20.05 L-4.35 20.3 -4.2 20.75 -4.2 21.0 -4.1 21.1 -4.2 21.0 -4.2 20.75 -4.4 20.3 -4.3 20.05 M-2.7 24.7 L-2.65 24.45 -2.65 24.7 -2.6 24.95 -2.75 25.4 -2.85 25.65 -2.85 25.9 -2.8 26.1 -2.9 26.35 -2.9 26.6 -2.95 26.85 -3.1 27.05 -3.1 27.3 -3.3 27.5 -3.4 27.7 -3.65 27.85 -3.8 28.05 -3.65 27.85 -3.45 27.7 -3.3 27.5 -3.1 27.3 -3.1 27.05 -3.0 26.85 -2.9 26.6 -2.95 26.35 -2.8 26.1 -2.9 25.85 -2.85 25.65 -2.75 25.4 -2.6 24.95 -2.7 24.7 M-2.85 23.25 L-2.85 23.0 -2.9 22.75 -2.9 22.75 -2.85 23.0 -2.85 23.25 -2.6 23.7 -2.65 23.95 -2.65 24.45 -2.65 23.95 -2.6 23.7 -2.85 23.25 M-3.75 21.85 L-3.6 22.05 -3.4 22.2 -3.35 22.45 -3.35 22.45 -3.4 22.25 -3.6 22.05 -3.75 21.85 -3.9 21.7 -3.9 21.4 -4.0 21.3 -3.9 21.4 -3.9 21.7 -3.75 21.85 M-27.7 20.55 L-27.85 20.75 -28.05 20.9 -28.2 21.1 -28.75 21.6 -29.2 21.75 -29.45 21.75 -29.7 21.85 -29.85 22.05 -30.05 22.15 -30.3 22.25 -30.45 22.45 -30.5 22.7 -30.75 22.85 -30.9 23.0 -31.1 23.15 -31.35 23.6 -31.55 23.7 -31.75 23.85 -32.0 23.9 -32.0 24.15 -32.15 24.35 -32.4 24.8 -32.45 24.8 -32.2 24.35 -32.05 24.15 -32.0 23.9 -31.75 23.8 -31.6 23.65 -31.35 23.6 -31.25 23.35 -31.1 23.15 -30.9 23.0 -30.75 22.85 -30.55 22.7 -30.45 22.45 -30.3 22.25 -30.1 22.15 -29.85 22.05 -29.7 21.85 -29.5 21.75 -29.25 21.75 -28.75 21.55 -28.2 21.05 -28.05 20.85 -27.85 20.75 -27.7 20.55 M-25.65 11.5 L-26.15 11.55 -26.6 11.45 -28.05 11.75 -28.5 11.9 -28.95 11.8 -29.9 12.0 -29.9 11.95 -28.95 11.75 -28.5 11.85 -28.05 11.7 -26.6 11.45 -25.65 11.45 -25.15 11.55 -24.2 11.35 -23.4 10.9 -22.9 10.8 -22.1 10.3 -22.05 10.35 -22.9 10.85 -23.35 10.95 -24.2 11.4 -25.15 11.6 -25.65 11.5 M-3.7 2.25 L-3.75 2.45 -3.6 2.65 -3.45 2.9 -3.45 2.7 -3.55 2.5 -3.7 2.25 M-3.9 1.5 L-3.95 1.45 -3.95 1.85 -3.75 2.15 -3.75 1.75 -3.9 1.5 M-4.0 1.1 L-4.0 1.3 -4.0 1.1 M-5.7 -3.2 L-5.65 -3.15 -5.6 -2.9 -5.1 -2.05 -4.95 -1.9 -4.9 -1.65 -4.95 -1.35 -4.85 -1.15 -4.85 -0.9 -4.55 -0.5 -4.55 -0.25 -4.5 0.0 -4.15 0.4 -4.1 0.65 -4.05 0.7 -4.1 0.55 -4.05 0.3 -4.1 0.05 -4.0 -0.2 -4.05 -0.45 -4.0 -0.65 -4.15 -0.85 -4.2 -1.1 -4.3 -1.3 -4.3 -1.55 -4.5 -1.75 -4.55 -2.25 -4.7 -2.45 -4.75 -2.65 -4.7 -2.95 -5.0 -3.35 -5.05 -3.6 -5.0 -3.8 -5.7 -3.2 M-0.35 -9.5 L-0.45 -9.45 -2.85 -9.0 -3.3 -9.0 -4.3 -8.75 -4.8 -8.8 -5.75 -8.95 -6.2 -9.1 -7.0 -9.55 -7.1 -9.4 -7.05 -9.15 -7.15 -8.9 -7.15 -8.65 -7.25 -8.2 -7.35 -7.95 -7.3 -7.45 -7.25 -7.2 -7.4 -7.0 -7.4 -6.5 -7.25 -6.35 -7.1 -5.9 -6.9 -5.7 -6.7 -5.55 -6.65 -5.3 -6.4 -5.15 -6.25 -4.95 -6.2 -4.7 -6.05 -4.5 -5.95 -4.3 -6.0 -4.05 -5.9 -3.8 -5.75 -3.6 -5.8 -3.35 -5.75 -3.25 -4.3 -4.5 -3.15 -5.35 -2.8 -5.7 -2.55 -6.1 -2.15 -6.45 -1.5 -7.15 -1.3 -7.6 -0.75 -8.35 -0.6 -8.85 -0.4 -9.3 -0.35 -9.5 M-4.15 34.55 L-4.25 34.35 -4.1 34.55 -4.15 34.8 -4.15 34.55 M-4.4 33.65 L-4.5 33.4 -4.65 33.2 -4.45 33.4 -4.4 33.65 -4.3 33.85 -4.4 33.65 M-4.7 33.0 L-4.65 33.2 -4.7 33.0 -4.65 32.5 -4.7 33.0 M-4.7 31.5 L-4.75 31.75 -4.75 32.25 -4.75 31.75 -4.7 31.5 -4.5 31.05 -4.55 30.8 -4.5 30.3 -4.4 30.1 -4.4 29.9 -4.35 30.1 -4.5 30.3 -4.55 30.8 -4.5 31.05 -4.55 31.25 -4.7 31.5 M-4.3 33.85 L-4.15 34.1 -4.25 34.35 -4.15 34.1 -4.3 33.85 M-4.45 38.75 L-4.3 38.55 -4.15 38.35 -4.3 38.55 -4.45 38.75 -4.6 38.9 -4.7 39.15 -4.7 39.4 -4.8 39.65 -4.95 39.8 -5.1 40.0 -5.25 40.15 -4.95 39.8 -4.8 39.65 -4.75 39.4 -4.7 39.15 -4.65 38.9 -4.45 38.75 M-4.05 35.4 L-4.1 35.55 -4.05 35.8 -4.0 36.0 -4.0 36.0 -4.05 35.8 -4.1 35.55 -4.05 35.4 M-4.05 35.05 L-4.05 35.05 -4.15 34.85 -4.05 35.05 M-3.85 36.5 L-4.0 36.25 -4.0 36.25 -3.85 36.5 -3.9 37.0 -3.9 37.25 -3.85 37.45 -3.9 37.25 -3.9 36.75 -3.85 36.5 M-44.85 13.25 L-44.8 13.05 -44.85 13.25 -44.85 13.5 -44.95 14.0 -45.1 14.2 -45.15 14.45 -45.3 14.65 -45.4 14.85 -45.5 15.1 -45.6 15.3 -45.65 15.55 -45.6 15.8 -45.65 16.05 -45.8 16.25 -45.65 16.0 -45.65 15.8 -45.7 15.55 -45.6 15.3 -45.3 14.65 -45.15 14.45 -45.1 14.2 -44.95 14.0 -44.9 13.75 -44.85 13.25 M-3.85 37.95 L-4.0 38.15 -4.15 38.35 -4.05 38.15 -3.85 37.95 -3.8 37.7 -3.85 37.95 M-45.8 16.25 L-46.0 16.45 -46.1 16.65 -46.1 16.9 -46.3 17.1 -46.35 17.3 -46.55 17.45 -46.7 17.7 -46.9 17.8 -47.1 17.95 -47.35 18.4 -47.45 18.6 -47.5 18.9 -47.75 19.0 -47.9 19.2 -48.15 19.3 -48.3 19.5 -48.5 19.6 -48.65 19.8 -48.75 20.0 -48.75 20.3 -48.9 20.5 -48.95 20.7 -49.15 20.9 -49.25 21.1 -49.25 21.1 -49.15 20.9 -48.95 20.7 -48.9 20.5 -48.75 20.25 -48.75 20.0 -48.65 19.8 -48.55 19.6 -48.3 19.45 -48.15 19.3 -47.9 19.2 -47.75 19.0 -47.55 18.85 -47.45 18.6 -47.35 18.4 -47.15 17.9 -46.9 17.8 -46.7 17.65 -46.6 17.45 -46.35 17.3 -46.3 17.05 -46.15 16.9 -46.15 16.6 -46.0 16.4 -45.8 16.25 M-49.3 21.45 L-49.3 21.6 -49.4 21.8 -49.45 22.05 -49.45 22.3 -49.35 22.55 -49.4 22.8 -49.3 23.0 -49.3 23.5 -49.15 23.75 -49.05 23.95 -49.05 24.2 -48.9 24.65 -48.95 24.65 -49.05 24.2 -49.1 23.95 -49.15 23.75 -49.3 23.5 -49.35 23.3 -49.3 23.05 -49.4 22.8 -49.35 22.55 -49.45 22.3 -49.45 21.8 -49.3 21.6 -49.3 21.45 M-63.55 8.65 L-63.4 8.2 -63.55 8.65 -63.85 9.05 -63.9 9.3 -63.85 9.55 -63.9 9.8 -64.25 10.15 -64.35 10.4 -64.45 10.6 -64.5 11.1 -64.55 11.35 -64.6 11.6 -64.7 11.8 -64.75 12.05 -64.9 12.25 -65.05 12.4 -65.3 12.85 -65.35 13.1 -65.55 13.6 -65.75 13.75 -65.95 13.85 -65.95 13.85 -65.75 13.75 -65.55 13.6 -65.35 13.1 -65.3 12.85 -65.05 12.4 -64.9 12.25 -64.75 12.05 -64.7 11.8 -64.6 11.6 -64.55 11.35 -64.5 11.1 -64.5 10.6 -64.35 10.4 -64.25 10.15 -63.9 9.8 -63.9 9.3 -63.85 9.05 -63.55 8.65 M-61.5 6.1 L-61.35 6.0 -61.65 6.25 -61.75 6.5 -62.0 6.6 -62.15 6.75 -62.3 6.95 -62.45 7.15 -62.65 7.25 -62.85 7.4 -63.0 7.6 -63.1 7.85 -63.3 7.95 -63.4 8.2 -63.3 7.95 -63.1 7.85 -63.0 7.6 -62.85 7.4 -62.7 7.25 -62.45 7.15 -62.3 6.95 -62.2 6.7 -62.0 6.55 -61.75 6.5 -61.65 6.25 -61.5 6.1" fill="#ffffff" fill-rule="evenodd" stroke="none"/>
  </g>
</svg>
