<?xml version="1.0" encoding="UTF-8" standalone="no"?>
<svg xmlns:xlink="http://www.w3.org/1999/xlink" height="3.6px" width="8.3px" xmlns="http://www.w3.org/2000/svg">
  <g transform="matrix(1.0, 0.0, 0.0, 1.0, 1.85, 2.0)">
    <path d="M0.75 -1.55 Q0.75 -1.6 0.7 -1.7 L0.7 -1.85 0.8 -1.75 0.9 -1.6 0.95 -1.45 0.95 -1.25 1.0 -1.3 1.1 -1.35 1.15 -1.3 0.9 -1.2 Q0.9 -1.45 0.75 -1.6 L0.75 -1.55" fill="#b89874" fill-rule="evenodd" stroke="none"/>
    <path d="M1.15 -1.3 L1.2 -1.3 1.15 -1.25 1.1 -1.2 1.0 -1.1 0.9 -1.15 0.9 -1.2 1.15 -1.3 M0.05 -0.95 L0.1 -1.0 0.1 -1.05 0.1 -1.1 0.2 -1.1 0.2 -1.05 0.15 -0.95 0.05 -0.95 M1.15 -0.6 L1.1 -0.6 1.05 -0.65 1.15 -0.65 1.15 -0.6 M-0.2 -0.5 L-0.15 -0.45 Q-0.15 -0.4 -0.2 -0.45 -0.25 -0.45 -0.25 -0.5 L-0.2 -0.5" fill="#38231c" fill-rule="evenodd" stroke="none"/>
    <path d="M1.15 -1.25 L1.25 -1.25 Q1.3 -1.35 1.4 -1.35 L1.4 -0.85 1.3 -0.85 1.3 -0.65 1.25 -0.75 1.1 -0.75 1.25 -0.6 1.25 -0.55 1.15 -0.6 1.15 -0.65 1.05 -0.65 1.1 -0.6 1.05 -0.55 1.0 -0.45 0.9 -0.55 0.9 -0.55 1.05 -0.65 0.9 -0.7 0.85 -0.6 0.9 -0.7 0.9 -0.8 1.0 -0.8 1.1 -0.8 Q1.15 -0.8 1.2 -0.85 L1.3 -0.95 1.2 -1.05 1.35 -1.15 1.25 -1.15 1.15 -1.15 1.1 -1.15 1.05 -1.1 1.05 -1.1 1.05 -1.1 1.0 -1.1 1.0 -1.1 1.0 -1.1 1.1 -1.2 1.15 -1.25" fill="#a78666" fill-rule="evenodd" stroke="none"/>
    <path d="M0.25 -1.6 L0.25 -1.65 0.3 -1.6 0.25 -1.6" fill="#e4d1ae" fill-rule="evenodd" stroke="none"/>
    <path d="M0.1 -1.0 L0.05 -1.05 0.1 -1.1 0.0 -1.2 -0.1 -1.25 -0.05 -1.35 -0.05 -1.4 -0.15 -1.25 Q-0.2 -1.4 -0.15 -1.55 L-0.15 -1.9 -0.05 -1.9 -0.15 -1.8 -0.05 -1.8 -0.05 -1.9 0.0 -1.8 0.05 -1.7 0.3 -1.75 0.55 -1.7 0.3 -1.6 0.25 -1.65 0.25 -1.6 0.15 -1.55 0.15 -1.65 0.05 -1.65 -0.05 -1.6 -0.05 -1.55 0.0 -1.55 -0.05 -1.45 0.05 -1.45 0.0 -1.4 0.0 -1.25 0.1 -1.2 0.15 -1.15 0.1 -1.15 0.15 -1.15 0.15 -1.1 0.1 -1.1 0.1 -1.05 0.1 -1.0 M0.0 -1.55 L0.0 -1.55" fill="#92775d" fill-rule="evenodd" stroke="none"/>
    <path d="M0.05 -1.05 L-0.15 -1.25 -0.05 -1.4 -0.05 -1.35 -0.1 -1.25 0.0 -1.2 0.1 -1.1 0.05 -1.05 M0.55 -1.7 L0.55 -1.65 0.45 -1.5 0.2 -1.35 0.15 -1.3 0.2 -1.25 0.25 -1.2 0.15 -1.15 0.1 -1.2 0.0 -1.25 0.0 -1.4 0.05 -1.45 0.3 -1.5 0.0 -1.55 0.05 -1.65 0.15 -1.65 0.15 -1.55 0.25 -1.6 0.3 -1.6 0.55 -1.7 M0.0 -1.55 L0.0 -1.55 M0.2 -1.25 L0.2 -1.25 M0.1 -1.3 L0.1 -1.25 0.15 -1.25 0.15 -1.3 0.1 -1.3" fill="#5a3d2c" fill-rule="evenodd" stroke="none"/>
    <path d="M0.1 -1.3 L0.15 -1.3 0.15 -1.25 0.1 -1.25 0.1 -1.3" fill="#977c77" fill-rule="evenodd" stroke="none"/>
    <path d="M-0.4 -0.9 L-0.15 -0.95 0.05 -0.95 0.15 -0.95 0.25 -0.95 0.2 -1.05 0.2 -1.1 0.3 -1.15 0.25 -1.2 0.2 -1.25 0.2 -1.25 0.2 -1.35 0.45 -1.5 0.25 -1.35 Q0.35 -1.2 0.4 -1.0 L0.5 -1.0 0.4 -0.85 0.4 -0.85 0.35 -0.8 0.35 -0.8 0.35 -0.7 0.4 -0.7 0.45 -0.7 0.5 -0.65 0.5 -0.6 0.55 -0.65 0.55 -0.6 0.5 -0.6 0.55 -0.55 0.35 -0.55 0.3 -0.5 0.2 -0.45 0.4 -0.35 Q0.25 -0.35 0.1 -0.45 L0.25 -0.5 0.1 -0.5 0.05 -0.55 0.15 -0.6 0.1 -0.6 0.1 -0.7 0.05 -0.7 -0.05 -0.7 -0.1 -0.8 -0.15 -0.75 -0.25 -0.85 -0.4 -0.9 M0.35 -1.0 L0.35 -1.05 0.3 -1.05 Q0.25 -1.0 0.3 -1.0 L0.35 -1.0 M0.2 -0.9 L0.2 -0.8 0.35 -0.9 0.2 -0.9 M0.25 -0.7 Q0.15 -0.8 0.05 -0.8 L0.1 -0.75 Q0.15 -0.7 0.25 -0.7 M0.1 -0.85 L0.2 -0.85 0.1 -0.95 0.1 -0.85" fill="#a08061" fill-rule="evenodd" stroke="none"/>
    <path d="M0.2 -1.25 L0.15 -1.3 0.2 -1.35 0.2 -1.25 M0.1 -0.85 L0.1 -0.95 0.2 -0.85 0.1 -0.85" fill="#fefefd" fill-rule="evenodd" stroke="none"/>
    <path d="M-1.75 0.45 L-1.6 0.0 Q-1.45 -0.25 -1.3 -0.4 -0.95 -0.7 -0.55 -0.85 L-0.45 -0.85 -0.4 -0.85 -0.55 -0.75 -0.7 -0.65 Q-0.8 -0.65 -0.85 -0.6 L-0.95 -0.5 -1.05 -0.45 -1.3 -0.15 -1.4 0.05 -1.5 0.25 Q-1.3 0.25 -1.25 0.15 -1.15 0.15 -1.1 0.05 L-1.1 0.05 -1.05 0.1 -1.2 0.35 -1.3 0.6 -1.45 0.4 -1.6 0.4 -1.75 0.45 M0.05 -1.65 L0.0 -1.55 0.3 -1.5 0.05 -1.45 -0.05 -1.45 0.0 -1.55 -0.05 -1.55 -0.05 -1.6 0.05 -1.65 M1.05 -1.1 L1.05 -1.1 1.1 -1.1 0.95 -1.05 0.8 -1.1 1.0 -1.1 1.0 -1.1 1.05 -1.1 1.05 -1.1 M0.25 -0.7 Q0.15 -0.7 0.1 -0.75 L0.05 -0.8 Q0.15 -0.8 0.25 -0.7 M-1.1 0.05 L-1.1 0.05 M-0.3 -0.8 Q-0.3 -0.75 -0.35 -0.75 L-0.35 -0.8 -0.3 -0.8 -0.3 -0.8 M-0.65 -0.5 L-0.6 -0.5 Q-0.6 -0.45 -0.6 -0.4 L-0.65 -0.45 -0.65 -0.5" fill="#f6dbac" fill-rule="evenodd" stroke="none"/>
    <path d="M0.8 -1.1 L0.8 -1.3 0.75 -1.55 0.75 -1.6 Q0.9 -1.45 0.9 -1.2 L0.9 -1.15 1.0 -1.1 0.8 -1.1 0.8 -1.1 M1.0 -1.1 L1.0 -1.1" fill="#806446" fill-rule="evenodd" stroke="none"/>
    <path d="M0.7 -1.05 L0.75 -1.1 0.8 -1.1 0.95 -1.05 1.1 -1.1 1.05 -1.1 1.05 -1.1 1.05 -1.1 1.1 -1.15 1.15 -1.15 1.25 -1.15 1.35 -1.15 1.2 -1.05 1.3 -0.95 1.2 -0.85 Q1.15 -0.8 1.1 -0.8 L1.05 -0.85 1.25 -0.9 1.2 -1.0 1.1 -1.0 0.9 -1.0 0.7 -1.05 M0.8 -1.1 L0.8 -1.1" fill="#5d4123" fill-rule="evenodd" stroke="none"/>
    <path d="M0.65 -1.0 L0.7 -1.05 0.9 -1.0 1.1 -1.0 1.2 -1.0 1.25 -0.9 1.05 -0.85 1.1 -0.8 1.0 -0.8 0.9 -0.8 0.9 -0.7 0.85 -0.6 0.9 -0.7 1.05 -0.65 0.9 -0.55 0.9 -0.55 0.9 -0.45 0.7 -0.5 0.8 -0.5 0.8 -0.65 0.75 -0.55 0.65 -0.65 0.65 -0.5 0.6 -0.5 0.55 -0.55 0.5 -0.6 0.55 -0.6 0.55 -0.65 0.6 -0.65 0.65 -0.65 0.5 -0.65 0.45 -0.7 0.4 -0.7 0.35 -0.8 0.5 -0.75 0.5 -0.85 0.6 -0.8 0.65 -0.7 0.75 -0.7 0.65 -0.85 0.6 -0.9 0.75 -0.9 0.7 -0.95 0.65 -0.95 0.6 -0.9 0.6 -0.9 0.55 -0.95 0.65 -1.0 M0.35 -0.8 L0.35 -0.8 M0.8 -0.7 Q0.85 -0.7 0.85 -0.75 L0.8 -0.8 0.75 -0.75 0.8 -0.7" fill="#957551" fill-rule="evenodd" stroke="none"/>
    <path d="M0.5 -1.0 L0.5 -1.0 0.65 -1.0 0.55 -0.95 0.6 -0.9 0.65 -0.85 0.75 -0.7 0.65 -0.7 0.6 -0.8 0.5 -0.85 0.5 -0.75 0.35 -0.8 0.4 -0.7 0.4 -0.7 0.35 -0.7 0.35 -0.8 0.4 -0.85 0.4 -0.85 0.5 -1.0" fill="#ab8d6a" fill-rule="evenodd" stroke="none"/>
    <path d="M0.6 -0.9 L0.6 -0.9 0.65 -0.95 0.7 -0.95 0.75 -0.9 0.6 -0.9" fill="#ebd1b2" fill-rule="evenodd" stroke="none"/>
    <path d="M0.5 -0.65 L0.65 -0.65 0.6 -0.65 0.55 -0.65 0.5 -0.6 0.5 -0.65" fill="#d9b78f" fill-rule="evenodd" stroke="none"/>
    <path d="M0.8 -0.7 L0.75 -0.75 0.8 -0.8 0.85 -0.75 Q0.85 -0.7 0.8 -0.7" fill="#d7b593" fill-rule="evenodd" stroke="none"/>
    <path d="M0.15 -1.15 L0.25 -1.2 0.3 -1.15 0.2 -1.1 0.1 -1.1 0.15 -1.1 0.15 -1.15 0.1 -1.15 0.15 -1.15 M0.25 -1.2 L0.25 -1.2" fill="#eed7b8" fill-rule="evenodd" stroke="none"/>
    <path d="M0.35 -1.0 L0.3 -1.0 Q0.25 -1.0 0.3 -1.05 L0.35 -1.05 0.35 -1.0" fill="#f1d6b5" fill-rule="evenodd" stroke="none"/>
    <path d="M0.2 -1.05 L0.25 -0.95 0.15 -0.95 0.2 -1.05" fill="#e4d0b2" fill-rule="evenodd" stroke="none"/>
    <path d="M0.2 -0.9 L0.35 -0.9 0.2 -0.8 0.2 -0.9" fill="#d4b7a2" fill-rule="evenodd" stroke="none"/>
    <path d="M0.0 -0.65 L0.1 -0.7 0.1 -0.6 0.05 -0.6 0.05 -0.6 0.0 -0.65" fill="#684728" fill-rule="evenodd" stroke="none"/>
    <path d="M0.0 -0.65 L0.05 -0.6 0.05 -0.6 -0.15 -0.45 0.0 -0.4 0.0 -0.5 0.05 -0.35 Q-0.15 -0.35 -0.4 -0.45 L-0.4 -0.55 -0.3 -0.55 -0.25 -0.55 -0.1 -0.55 0.0 -0.6 -0.05 -0.7 0.0 -0.65 M0.05 -0.6 L0.05 -0.6 M-0.2 -0.5 L-0.25 -0.5 Q-0.25 -0.45 -0.2 -0.45 -0.15 -0.4 -0.15 -0.45 L-0.2 -0.5" fill="#9f7e54" fill-rule="evenodd" stroke="none"/>
    <path d="M0.1 -0.7 L0.0 -0.65 -0.05 -0.7 0.0 -0.6 -0.1 -0.55 -0.25 -0.55 -0.3 -0.55 -0.4 -0.55 -0.4 -0.45 -0.4 -0.4 -0.6 -0.4 -0.6 -0.5 Q-0.5 -0.5 -0.4 -0.6 L-0.3 -0.7 -0.15 -0.75 -0.1 -0.8 -0.05 -0.7 0.05 -0.7 0.1 -0.7 M-0.25 -0.65 L-0.3 -0.65 -0.3 -0.6 -0.25 -0.6 -0.25 -0.65 M-0.1 -0.65 L-0.15 -0.65 -0.15 -0.6 -0.1 -0.6 -0.1 -0.65 M-1.35 1.05 L-1.25 1.05 -1.25 1.15 -1.1 1.15 -1.1 1.15 -1.2 1.15 -1.15 1.25 -1.2 1.2 -1.3 1.15 -1.35 1.05" fill="#c2a987" fill-rule="evenodd" stroke="none"/>
    <path d="M0.55 -0.55 L0.6 -0.5 0.45 -0.45 0.7 -0.45 0.65 -0.5 0.65 -0.65 0.75 -0.55 0.8 -0.65 0.8 -0.5 0.7 -0.5 0.9 -0.45 0.9 -0.55 1.0 -0.45 1.05 -0.55 1.1 -0.6 1.15 -0.6 1.25 -0.55 1.25 -0.5 1.2 -0.45 1.15 -0.45 1.1 -0.45 1.05 -0.45 0.95 -0.4 0.95 -0.4 0.95 -0.4 0.9 -0.4 0.85 -0.35 0.9 -0.3 0.95 -0.3 0.55 -0.25 0.4 -0.2 0.3 -0.2 0.15 -0.2 0.05 -0.2 Q-0.1 -0.15 -0.25 -0.3 L-0.25 -0.25 -0.3 -0.2 -0.65 -0.2 -0.7 -0.25 -0.65 -0.4 -0.7 -0.5 -0.65 -0.5 -0.65 -0.5 -0.65 -0.45 -0.6 -0.4 Q-0.6 -0.45 -0.6 -0.5 L-0.6 -0.4 -0.4 -0.4 -0.4 -0.45 Q-0.15 -0.35 0.05 -0.35 L0.0 -0.5 0.0 -0.4 -0.15 -0.45 0.05 -0.6 0.05 -0.55 0.1 -0.5 0.25 -0.5 0.1 -0.45 Q0.25 -0.35 0.4 -0.35 L0.2 -0.45 0.3 -0.5 0.35 -0.55 0.55 -0.55 M-0.6 -0.5 L-0.6 -0.5" fill="#6a4c36" fill-rule="evenodd" stroke="none"/>
    <path d="M0.05 -0.6 L0.1 -0.6 0.15 -0.6 0.05 -0.55 0.05 -0.6 0.05 -0.6" fill="#eccbaa" fill-rule="evenodd" stroke="none"/>
    <path d="M1.15 -0.25 L0.85 -0.25 Q0.8 -0.2 0.85 -0.05 L0.8 0.1 Q0.8 0.25 0.65 0.35 0.55 0.45 0.35 0.45 L0.05 0.45 -0.15 0.3 -0.25 0.1 -0.35 -0.1 -0.25 -0.25 -0.25 -0.3 Q-0.1 -0.15 0.05 -0.2 L-0.05 -0.1 -0.1 -0.05 -0.05 0.15 0.1 0.3 0.05 0.15 0.05 0.05 0.1 -0.1 0.15 -0.2 0.3 -0.2 0.25 -0.05 0.2 0.05 0.15 0.2 0.15 0.35 0.15 0.4 0.45 0.4 0.4 0.35 0.55 0.3 0.65 0.2 Q0.75 0.15 0.7 -0.05 L0.65 -0.15 0.55 -0.25 0.95 -0.3 1.0 -0.3 1.0 -0.3 1.05 -0.25 1.1 -0.25 1.15 -0.25 M1.2 -0.45 L1.25 -0.5 1.25 -0.5 1.2 -0.45 M2.55 -0.5 L2.55 -0.4 2.35 -0.45 2.4 -0.5 2.5 -0.5 2.5 -0.55 2.55 -0.5 M3.0 -0.3 L3.0 -0.3 3.0 -0.3 M4.7 -0.3 L4.7 -0.35 4.7 -0.3 4.7 -0.3" fill="#281e27" fill-rule="evenodd" stroke="none"/>
    <path d="M0.9 -0.4 L0.95 -0.4 0.95 -0.4 0.95 -0.4 1.0 -0.35 0.95 -0.35 0.9 -0.35 0.9 -0.4 M0.95 -0.35 L0.95 -0.35" fill="#e8d0b6" fill-rule="evenodd" stroke="none"/>
    <path d="M1.15 -0.25 L1.15 -0.25 1.1 -0.25 1.05 -0.25 1.0 -0.3 0.95 -0.3 0.9 -0.3 0.85 -0.35 0.9 -0.4 0.9 -0.35 0.95 -0.35 1.0 -0.35 1.0 -0.3 1.0 -0.35 1.0 -0.35 1.1 -0.4 1.15 -0.35 1.2 -0.35 1.15 -0.25 M0.95 -0.35 Q0.95 -0.3 0.95 -0.3 L0.95 -0.35 M1.15 -0.35 L1.1 -0.35 1.1 -0.35 1.1 -0.3 1.15 -0.3 1.15 -0.35" fill="#a88959" fill-rule="evenodd" stroke="none"/>
    <path d="M0.95 -0.35 L0.95 -0.35 0.95 -0.3 Q0.95 -0.3 0.95 -0.35 M1.0 -0.3 L1.0 -0.3 1.0 -0.35 1.0 -0.3" fill="#634f36" fill-rule="evenodd" stroke="none"/>
    <path d="M0.95 -0.4 L1.05 -0.45 1.1 -0.45 1.1 -0.45 Q1.1 -0.4 1.1 -0.4 L1.1 -0.4 1.05 -0.4 1.0 -0.35 0.95 -0.4 M1.1 -0.45 L1.1 -0.45" fill="#655234" fill-rule="evenodd" stroke="none"/>
    <path d="M-0.35 -0.1 L-0.6 0.0 -0.9 0.15 -1.1 0.4 Q-1.2 0.6 -1.2 0.75 L-1.2 0.9 -1.1 1.05 -1.15 1.05 -1.2 1.0 -1.35 0.85 -1.3 0.8 -1.3 0.6 -1.2 0.35 -1.05 0.1 -1.05 0.0 -0.85 -0.05 -0.85 -0.2 -0.8 -0.15 -0.7 -0.2 -0.65 -0.15 -0.65 -0.2 -0.3 -0.2 -0.35 -0.1 M0.6 -0.5 L0.65 -0.5 0.7 -0.45 0.45 -0.45 0.6 -0.5" fill="#d7b583" fill-rule="evenodd" stroke="none"/>
    <path d="M1.4 -0.85 L2.0 -0.85 Q2.2 -0.85 2.35 -0.7 L2.15 -0.65 2.15 -0.55 2.25 -0.5 2.35 -0.5 2.5 -0.5 2.4 -0.5 2.35 -0.45 2.55 -0.4 2.55 -0.5 2.55 -0.55 2.55 -0.65 2.55 -0.65 2.55 -0.7 2.5 -0.8 2.45 -0.85 2.55 -0.85 2.55 -0.85 2.65 -0.85 2.65 -0.9 2.7 -0.85 2.7 -0.8 2.8 -0.8 2.9 -0.8 2.9 -0.85 2.95 -0.85 3.0 -0.85 3.0 -0.85 3.0 -0.8 3.0 -0.8 3.05 -0.8 3.45 -0.75 3.4 -0.6 3.35 -0.55 3.35 -0.5 3.35 -0.45 3.3 -0.45 3.3 -0.45 3.25 -0.45 3.25 -0.45 3.2 -0.4 3.15 -0.4 3.15 -0.4 3.05 -0.4 2.9 -0.35 2.95 -0.35 3.0 -0.35 2.9 -0.35 2.9 -0.35 3.0 -0.25 3.0 -0.25 3.0 -0.2 2.95 -0.2 2.95 -0.15 2.95 -0.1 2.9 -0.1 2.9 -0.15 2.75 -0.15 2.75 -0.1 2.8 0.0 2.8 0.0 2.85 0.05 2.9 0.05 3.0 0.05 2.95 0.1 2.85 0.1 2.8 0.1 2.75 0.05 2.7 0.05 2.7 0.15 2.65 0.2 2.6 0.2 2.55 0.15 2.55 0.15 2.55 0.0 2.55 -0.15 2.55 -0.25 2.2 -0.25 2.15 -0.25 1.95 -0.25 1.85 -0.25 1.65 -0.25 1.6 -0.25 1.2 -0.25 1.15 -0.25 1.2 -0.35 1.2 -0.4 1.2 -0.45 1.25 -0.5 1.25 -0.5 1.25 -0.55 1.25 -0.6 1.1 -0.75 1.25 -0.75 1.3 -0.65 1.3 -0.85 1.4 -0.85 M2.95 0.0 L2.9 0.0 2.9 0.0 2.95 0.0 M1.35 -0.65 L1.25 -0.5 1.3 -0.5 1.65 -0.5 1.7 -0.7 1.35 -0.7 1.35 -0.65 M1.2 -0.45 L1.2 -0.45 M2.55 -0.7 L2.55 -0.7 2.55 -0.7 M3.25 -0.45 L3.25 -0.45 M3.35 -0.5 L3.35 -0.5 M2.65 -0.4 L2.65 -0.4 2.6 -0.4 2.65 -0.4 M3.0 -0.25 L3.0 -0.25 M2.65 0.05 L2.6 0.05 2.65 0.05" fill="#5a4e47" fill-rule="evenodd" stroke="none"/>
    <path d="M1.35 -0.65 L1.35 -0.7 1.7 -0.7 1.65 -0.5 1.3 -0.5 1.25 -0.5 1.35 -0.65" fill="#786050" fill-rule="evenodd" stroke="none"/>
    <path d="M1.1 -0.45 L1.15 -0.45 1.2 -0.45 1.2 -0.45 1.2 -0.4 1.15 -0.4 1.1 -0.4 1.1 -0.45 1.1 -0.45 M1.1 -0.4 L1.1 -0.4" fill="#5e4333" fill-rule="evenodd" stroke="none"/>
    <path d="M1.2 -0.4 L1.2 -0.35 1.15 -0.35 1.15 -0.4 1.1 -0.4 1.15 -0.4 1.15 -0.4 1.2 -0.4 M1.1 -0.4 L1.0 -0.35 1.0 -0.35 1.05 -0.4 1.1 -0.4" fill="#f8e8c8" fill-rule="evenodd" stroke="none"/>
    <path d="M1.1 -0.45 L1.1 -0.4 Q1.1 -0.4 1.1 -0.45 L1.1 -0.45" fill="#fff0d2" fill-rule="evenodd" stroke="none"/>
    <path d="M1.15 -0.35 L1.1 -0.4 1.15 -0.4 1.15 -0.35" fill="#5e4624" fill-rule="evenodd" stroke="none"/>
    <path d="M1.15 -0.35 L1.15 -0.3 1.1 -0.3 1.1 -0.35 1.1 -0.35 1.15 -0.35" fill="#fbe2ab" fill-rule="evenodd" stroke="none"/>
    <path d="M1.2 -0.45 L1.2 -0.4 1.2 -0.45 M1.15 -0.4 L1.2 -0.4 1.15 -0.4 1.15 -0.4" fill="#8e7858" fill-rule="evenodd" stroke="none"/>
    <path d="M3.25 -0.15 L3.0 -0.15 2.95 -0.1 2.95 -0.15 2.95 -0.2 3.0 -0.2 3.0 -0.25 3.0 -0.25 2.9 -0.35 2.9 -0.35 3.0 -0.35 3.05 -0.35 3.1 -0.35 3.05 -0.35 3.1 -0.3 3.1 -0.3 3.15 -0.3 3.2 -0.4 3.25 -0.45 3.3 -0.4 3.35 -0.4 3.35 -0.35 3.45 -0.35 3.55 -0.35 3.6 -0.35 3.65 -0.35 3.65 -0.35 3.75 -0.35 3.85 -0.35 4.05 -0.35 4.2 -0.35 4.35 -0.35 4.4 -0.35 4.45 -0.3 4.35 -0.3 4.15 -0.3 3.95 -0.3 3.95 -0.3 3.9 -0.35 3.9 -0.3 3.9 -0.3 3.9 -0.25 3.85 -0.25 3.8 -0.3 3.75 -0.3 3.7 -0.25 3.65 -0.25 3.6 -0.25 3.55 -0.25 3.55 -0.25 3.5 -0.25 3.55 -0.2 3.45 -0.25 3.35 -0.25 3.25 -0.25 3.1 -0.2 3.1 -0.15 3.15 -0.15 3.25 -0.15 M2.95 0.0 L2.95 0.0 2.9 0.0 2.9 -0.05 2.95 -0.05 2.9 -0.1 2.95 -0.1 2.95 0.0 M2.55 -0.65 L2.55 -0.65 2.55 -0.55 2.5 -0.55 2.5 -0.65 2.55 -0.65 M3.0 -0.3 L2.95 -0.3 3.0 -0.3 3.0 -0.3 3.0 -0.3 3.0 -0.25 3.0 -0.25 3.05 -0.25 3.05 -0.3 3.0 -0.3 M3.05 -0.25 L3.05 -0.25 M3.0 -0.2 L3.0 -0.2 M3.35 -0.55 L3.4 -0.6 3.45 -0.6 Q3.85 -0.55 4.15 -0.6 L4.55 -0.55 4.55 -0.5 3.75 -0.5 3.4 -0.5 3.35 -0.55 M3.3 -0.4 L3.3 -0.4 M3.1 -0.35 L3.15 -0.35 3.15 -0.35 3.1 -0.35 M3.1 -0.25 L3.1 -0.25 3.15 -0.25 3.15 -0.25 3.1 -0.25 M4.35 -0.3 L4.35 -0.3" fill="#6a5f5a" fill-rule="evenodd" stroke="none"/>
    <path d="M2.55 -0.7 L2.55 -0.7 2.55 -0.7" fill="#9e8868" fill-rule="evenodd" stroke="none"/>
    <path d="M2.0 -0.85 L2.4 -0.85 2.45 -0.85 2.5 -0.8 2.45 -0.8 2.35 -0.75 2.5 -0.55 2.5 -0.5 2.35 -0.5 2.25 -0.5 2.15 -0.55 2.15 -0.65 2.35 -0.7 Q2.2 -0.85 2.0 -0.85" fill="#796151" fill-rule="evenodd" stroke="none"/>
    <path d="M3.45 -0.75 L3.6 -0.75 4.2 -0.75 4.4 -0.8 4.65 -0.75 4.95 -0.75 5.0 -0.65 5.0 -0.5 4.55 -0.5 4.55 -0.55 4.15 -0.6 Q3.85 -0.55 3.45 -0.6 L3.4 -0.6 3.45 -0.75 M2.55 -0.65 L2.5 -0.65 2.5 -0.55 2.55 -0.55 2.55 -0.5 2.5 -0.55 2.35 -0.75 2.45 -0.8 2.5 -0.8 2.55 -0.7 2.55 -0.65" fill="#504542" fill-rule="evenodd" stroke="none"/>
    <path d="M3.0 -0.3 L3.0 -0.3 2.95 -0.3 3.0 -0.3 3.0 -0.3" fill="#3a210d" fill-rule="evenodd" stroke="none"/>
    <path d="M3.0 -0.35 L2.95 -0.35 2.9 -0.35 3.05 -0.4 3.05 -0.35 3.0 -0.35" fill="#6c5535" fill-rule="evenodd" stroke="none"/>
    <path d="M2.65 -0.4 L2.6 -0.4 2.65 -0.4 2.65 -0.4" fill="#9c794e" fill-rule="evenodd" stroke="none"/>
    <path d="M3.0 -0.25 L3.0 -0.3 3.05 -0.3 3.05 -0.25 3.0 -0.25" fill="#fde7cc" fill-rule="evenodd" stroke="none"/>
    <path d="M3.0 -0.25 L3.0 -0.25 3.05 -0.25 3.05 -0.25 3.0 -0.25 M3.05 -0.35 L3.05 -0.4 3.15 -0.4 3.15 -0.4 3.2 -0.4 3.15 -0.35 3.1 -0.35 3.05 -0.35 M3.1 -0.35 L3.1 -0.35 M4.35 -0.3 L4.45 -0.3 4.45 -0.25 4.4 -0.25 4.4 -0.3 4.35 -0.3 M4.45 -0.3 L4.45 -0.3" fill="#261702" fill-rule="evenodd" stroke="none"/>
    <path d="M3.05 -0.25 L3.0 -0.25 3.0 -0.25 3.05 -0.25" fill="#fce9da" fill-rule="evenodd" stroke="none"/>
    <path d="M3.0 -0.2 L2.95 -0.2 3.0 -0.2" fill="#1e0701" fill-rule="evenodd" stroke="none"/>
    <path d="M2.95 -0.1 L3.0 -0.05 2.95 0.0 2.95 -0.1 2.95 -0.15 2.95 -0.1" fill="#b5b5ae" fill-rule="evenodd" stroke="none"/>
    <path d="M3.0 -0.2 L3.0 -0.2 2.95 -0.2 3.0 -0.2" fill="#d3b89a" fill-rule="evenodd" stroke="none"/>
    <path d="M3.55 -0.5 L3.5 -0.5 3.4 -0.5 3.45 -0.5 3.55 -0.5" fill="#dadad5" fill-rule="evenodd" stroke="none"/>
    <path d="M6.3 -0.35 L6.35 -0.35 6.35 -0.3 6.3 -0.35 M5.25 -0.15 L4.8 -0.15 4.75 -0.15 4.65 -0.2 4.9 -0.2 5.15 -0.2 5.25 -0.15 M3.35 -0.45 L3.35 -0.5 3.35 -0.5 Q3.4 -0.45 3.45 -0.45 L3.5 -0.45 3.5 -0.5 3.55 -0.5 3.6 -0.5 3.65 -0.5 3.7 -0.45 3.7 -0.4 3.65 -0.45 3.6 -0.45 3.6 -0.5 3.55 -0.45 3.5 -0.45 3.45 -0.45 3.35 -0.45 3.35 -0.45 M4.0 -0.5 L3.9 -0.45 3.85 -0.45 3.8 -0.5 4.0 -0.5" fill="#55584e" fill-rule="evenodd" stroke="none"/>
    <path d="M3.35 -0.5 L3.35 -0.55 3.4 -0.5 3.4 -0.5 3.4 -0.5 3.35 -0.5 3.35 -0.5 M5.8 -0.3 L5.85 -0.35 5.85 -0.3 5.8 -0.3" fill="#494c48" fill-rule="evenodd" stroke="none"/>
    <path d="M3.35 -0.5 L3.35 -0.5 3.35 -0.5 3.35 -0.5 3.4 -0.5 3.4 -0.5 3.5 -0.5 3.5 -0.45 3.45 -0.45 Q3.4 -0.45 3.35 -0.5" fill="#b7b6ac" fill-rule="evenodd" stroke="none"/>
    <path d="M3.25 -0.45 L3.25 -0.45 3.3 -0.45 3.3 -0.45 3.3 -0.4 3.25 -0.45 M3.3 -0.4 L3.3 -0.4" fill="#3f2b12" fill-rule="evenodd" stroke="none"/>
    <path d="M3.25 -0.45 L3.25 -0.45 3.3 -0.4 3.25 -0.45 M3.3 -0.45 L3.35 -0.45 3.35 -0.4 3.3 -0.4 3.3 -0.45 M3.35 -0.45 L3.35 -0.45" fill="#7b7260" fill-rule="evenodd" stroke="none"/>
    <path d="M3.35 -0.4 L3.35 -0.45 3.45 -0.45 3.5 -0.45 3.55 -0.45 3.6 -0.5 3.6 -0.45 3.65 -0.45 3.55 -0.45 3.55 -0.4 3.45 -0.4 3.35 -0.4" fill="#c9b68e" fill-rule="evenodd" stroke="none"/>
    <path d="M3.45 -0.35 L3.35 -0.35 3.35 -0.4 3.45 -0.4 3.45 -0.35" fill="#8a6b48" fill-rule="evenodd" stroke="none"/>
    <path d="M3.55 -0.4 L3.55 -0.45 3.65 -0.45 3.7 -0.4 3.7 -0.45 3.8 -0.4 3.9 -0.4 3.9 -0.4 3.85 -0.4 3.85 -0.35 3.8 -0.35 3.75 -0.35 3.65 -0.35 3.65 -0.35 3.65 -0.4 3.55 -0.4" fill="#a28860" fill-rule="evenodd" stroke="none"/>
    <path d="M3.45 -0.4 L3.55 -0.4 3.65 -0.4 3.65 -0.35 3.6 -0.35 3.55 -0.35 3.45 -0.35 3.45 -0.4" fill="#765e43" fill-rule="evenodd" stroke="none"/>
    <path d="M3.15 -0.4 L3.2 -0.4 3.15 -0.4 M3.1 -0.3 L3.05 -0.35 3.1 -0.35 3.1 -0.35 3.15 -0.35 3.15 -0.35 3.2 -0.4 3.15 -0.3 3.1 -0.3 3.1 -0.3" fill="#7b6044" fill-rule="evenodd" stroke="none"/>
    <path d="M4.0 -0.2 L3.95 -0.15 3.9 -0.2 3.8 -0.2 3.8 -0.15 3.8 -0.15 3.7 -0.15 3.6 -0.15 3.5 -0.15 3.4 -0.15 3.35 -0.15 3.25 -0.15 3.15 -0.15 3.1 -0.15 3.1 -0.2 3.25 -0.25 3.35 -0.25 3.45 -0.25 3.55 -0.2 3.6 -0.25 3.65 -0.25 3.75 -0.25 3.85 -0.25 3.9 -0.25 3.9 -0.2 4.0 -0.2 M3.9 -0.25 L3.9 -0.25" fill="#cacac1" fill-rule="evenodd" stroke="none"/>
    <path d="M3.1 -0.25 L3.15 -0.25 3.15 -0.25 3.1 -0.25 3.1 -0.25" fill="#5d4119" fill-rule="evenodd" stroke="none"/>
    <path d="M3.1 -0.3 L3.1 -0.3 3.1 -0.3" fill="#dac4a6" fill-rule="evenodd" stroke="none"/>
    <path d="M3.55 -0.2 L3.5 -0.25 3.55 -0.25 3.55 -0.25 3.6 -0.25 3.65 -0.25 3.7 -0.25 3.75 -0.3 3.8 -0.3 3.85 -0.25 3.75 -0.25 3.65 -0.25 3.6 -0.25 3.55 -0.2" fill="#a68c65" fill-rule="evenodd" stroke="none"/>
    <path d="M5.0 -0.45 L5.15 -0.45 5.3 -0.45 5.5 -0.45 5.7 -0.45 5.75 -0.45 5.8 -0.4 6.05 -0.4 6.25 -0.35 6.2 -0.35 6.2 -0.3 6.05 -0.3 6.1 -0.35 6.15 -0.35 6.0 -0.35 5.9 -0.4 5.75 -0.4 5.65 -0.4 5.5 -0.4 5.35 -0.4 5.25 -0.4 5.2 -0.4 5.0 -0.4 4.5 -0.4 4.45 -0.45 4.4 -0.4 4.35 -0.45 4.3 -0.45 4.25 -0.45 4.25 -0.4 4.15 -0.4 4.1 -0.4 3.9 -0.4 3.9 -0.45 4.0 -0.5 4.15 -0.5 4.3 -0.45 4.85 -0.45 4.9 -0.45 5.0 -0.45 5.0 -0.45 M3.85 -0.45 L3.9 -0.45 3.85 -0.45 M4.4 -0.4 L4.4 -0.4" fill="#9aa9a7" fill-rule="evenodd" stroke="none"/>
    <path d="M4.45 -0.3 L4.4 -0.35 4.35 -0.35 4.2 -0.35 4.05 -0.35 3.85 -0.35 3.9 -0.4 4.1 -0.4 4.2 -0.35 4.3 -0.35 4.4 -0.35 4.45 -0.35 4.45 -0.35 4.45 -0.3 4.45 -0.3 M3.9 -0.45 L3.9 -0.4 3.9 -0.45 M3.85 -0.4 L3.85 -0.35 3.85 -0.4" fill="#745e3e" fill-rule="evenodd" stroke="none"/>
    <path d="M3.9 -0.4 L3.85 -0.35 3.85 -0.4 3.9 -0.4" fill="#f3d6b5" fill-rule="evenodd" stroke="none"/>
    <path d="M3.8 -0.5 L3.85 -0.45 3.9 -0.45 3.9 -0.4 3.9 -0.4 3.8 -0.4 3.7 -0.45 3.7 -0.4 3.7 -0.45 3.8 -0.5" fill="#bcbab6" fill-rule="evenodd" stroke="none"/>
    <path d="M3.9 -0.3 L3.9 -0.35 3.95 -0.3 3.95 -0.3 4.15 -0.3 4.35 -0.3 4.25 -0.3 4.25 -0.3 4.2 -0.3 3.95 -0.3 3.9 -0.3 3.9 -0.3" fill="#4e3812" fill-rule="evenodd" stroke="none"/>
    <path d="M3.9 -0.25 L3.9 -0.3 3.9 -0.3 3.9 -0.25 3.95 -0.25 3.95 -0.3 4.2 -0.3 4.15 -0.3 4.1 -0.25 4.0 -0.25 3.9 -0.25 3.9 -0.25 M3.9 -0.3 L3.9 -0.3" fill="#b39c73" fill-rule="evenodd" stroke="none"/>
    <path d="M3.85 -0.35 L3.75 -0.35 3.8 -0.35 3.85 -0.35" fill="#2b1000" fill-rule="evenodd" stroke="none"/>
    <path d="M3.9 -0.2 L3.8 -0.15 3.8 -0.2 3.9 -0.2" fill="#939c97" fill-rule="evenodd" stroke="none"/>
    <path d="M5.5 -0.2 L5.25 -0.15 5.15 -0.2 4.9 -0.2 4.65 -0.2 4.55 -0.2 4.4 -0.2 4.25 -0.2 4.15 -0.2 4.05 -0.2 4.0 -0.2 3.9 -0.2 3.9 -0.25 4.0 -0.25 4.1 -0.25 4.25 -0.25 4.4 -0.25 4.4 -0.25 4.55 -0.25 4.8 -0.25 5.1 -0.25 5.25 -0.25 5.45 -0.25 5.5 -0.25 5.6 -0.25 5.55 -0.2 5.45 -0.2 5.5 -0.2" fill="#e8e9e6" fill-rule="evenodd" stroke="none"/>
    <path d="M3.95 -0.3 L3.95 -0.25 3.9 -0.25 3.9 -0.3 3.95 -0.3" fill="#896e47" fill-rule="evenodd" stroke="none"/>
    <path d="M4.25 -0.4 L4.25 -0.45 4.3 -0.45 4.35 -0.45 4.4 -0.4 4.25 -0.4" fill="#c4d1c8" fill-rule="evenodd" stroke="none"/>
    <path d="M4.1 -0.4 L4.15 -0.4 4.25 -0.4 4.4 -0.4 4.4 -0.4 4.45 -0.4 4.45 -0.35 4.4 -0.35 4.3 -0.35 4.2 -0.35 4.1 -0.4" fill="#8f8063" fill-rule="evenodd" stroke="none"/>
    <path d="M4.4 -0.4 L4.45 -0.45 4.5 -0.4 5.0 -0.4 5.2 -0.4 5.25 -0.4 5.35 -0.4 5.5 -0.4 5.65 -0.4 5.75 -0.4 5.9 -0.4 6.0 -0.35 6.15 -0.35 6.1 -0.35 5.95 -0.35 5.85 -0.35 5.8 -0.3 5.75 -0.35 5.65 -0.35 5.6 -0.35 5.5 -0.35 5.45 -0.3 5.4 -0.3 5.2 -0.35 5.15 -0.3 5.05 -0.35 5.0 -0.3 4.9 -0.3 4.85 -0.35 4.8 -0.35 4.7 -0.35 4.7 -0.3 4.65 -0.35 4.55 -0.35 4.5 -0.35 4.45 -0.3 4.45 -0.35 4.45 -0.35 4.45 -0.4 4.4 -0.4" fill="#e8ebe6" fill-rule="evenodd" stroke="none"/>
    <path d="M4.65 -0.2 L4.55 -0.15 4.3 -0.15 4.05 -0.2 4.15 -0.2 4.25 -0.2 4.4 -0.2 4.55 -0.2 4.65 -0.2" fill="#81857c" fill-rule="evenodd" stroke="none"/>
    <path d="M4.35 -0.3 L4.35 -0.3 4.4 -0.3 4.4 -0.25 4.4 -0.25 4.25 -0.25 4.1 -0.25 4.15 -0.3 4.2 -0.3 4.25 -0.3 4.25 -0.3 4.35 -0.3 M4.4 -0.25 L4.4 -0.25" fill="#988462" fill-rule="evenodd" stroke="none"/>
    <path d="M4.4 -0.25 L4.4 -0.25 4.45 -0.25 4.45 -0.3 4.5 -0.35 4.55 -0.35 4.65 -0.35 4.7 -0.3 4.7 -0.3 4.55 -0.25 4.4 -0.25 M4.7 -0.3 L4.7 -0.3" fill="#98a3a1" fill-rule="evenodd" stroke="none"/>
    <path d="M4.9 -0.3 L5.0 -0.3 5.05 -0.35 5.15 -0.3 5.1 -0.3 5.0 -0.3 4.95 -0.3 4.95 -0.3 4.9 -0.3" fill="#999e9a" fill-rule="evenodd" stroke="none"/>
    <path d="M6.1 -0.35 L6.05 -0.3 5.75 -0.3 5.5 -0.3 5.45 -0.25 5.45 -0.25 5.25 -0.25 5.1 -0.25 4.8 -0.25 4.55 -0.25 4.7 -0.3 4.7 -0.3 4.7 -0.35 4.8 -0.35 4.85 -0.35 4.9 -0.3 4.95 -0.3 4.95 -0.3 5.0 -0.3 5.1 -0.3 5.15 -0.3 5.2 -0.35 5.4 -0.3 5.45 -0.3 5.5 -0.35 5.6 -0.35 5.65 -0.35 5.75 -0.35 5.8 -0.3 5.85 -0.3 5.85 -0.35 5.95 -0.35 6.1 -0.35" fill="#a7b4b1" fill-rule="evenodd" stroke="none"/>
    <path d="M6.25 -0.35 L6.3 -0.35 6.35 -0.3 6.35 -0.3 6.25 -0.3 6.1 -0.25 5.95 -0.2 5.95 -0.2 5.9 -0.2 5.8 -0.2 5.7 -0.2 5.6 -0.2 5.5 -0.2 5.45 -0.2 5.55 -0.2 5.6 -0.25 5.5 -0.25 5.45 -0.25 5.45 -0.25 5.5 -0.3 5.75 -0.3 6.05 -0.3 6.2 -0.3 6.2 -0.35 6.25 -0.35 M6.2 -0.3 L6.2 -0.3 6.2 -0.3" fill="#d8d8d4" fill-rule="evenodd" stroke="none"/>
    <path d="M6.2 -0.3 L6.2 -0.3 6.2 -0.3" fill="#5a5b55" fill-rule="evenodd" stroke="none"/>
    <path d="M6.35 -0.3 L6.35 -0.3 6.3 -0.3 6.2 -0.25 6.1 -0.25 5.95 -0.2 6.1 -0.25 6.25 -0.3 6.35 -0.3" fill="#b1b2ad" fill-rule="evenodd" stroke="none"/>
    <path d="M0.15 0.35 L0.4 0.35 0.45 0.4 0.15 0.4 0.15 0.35" fill="#584d4d" fill-rule="evenodd" stroke="none"/>
    <path d="M-1.25 0.15 Q-1.3 0.25 -1.5 0.25 L-1.4 0.05 -1.3 -0.15 -1.05 -0.45 -0.95 -0.35 -0.8 -0.35 Q-0.85 -0.3 -0.9 -0.3 L-1.0 -0.3 -0.9 -0.15 -0.95 -0.2 -0.95 -0.1 -1.1 -0.1 -1.1 0.0 -1.1 0.05 -1.25 0.1 -1.25 -0.05 -1.35 0.1 -1.4 0.2 -1.25 0.2 -1.25 0.15 M-1.1 0.05 L-1.1 0.05 M-1.05 -0.4 L-1.05 -0.35 -1.0 -0.35 -1.0 -0.4 -1.05 -0.4" fill="#d3b183" fill-rule="evenodd" stroke="none"/>
    <path d="M-1.05 -0.4 L-1.0 -0.4 -1.0 -0.35 -1.05 -0.35 -1.05 -0.4" fill="#b59066" fill-rule="evenodd" stroke="none"/>
    <path d="M-0.4 -0.85 L-0.4 -0.9 -0.25 -0.85 -0.15 -0.75 -0.3 -0.7 -0.4 -0.6 Q-0.5 -0.5 -0.6 -0.5 L-0.6 -0.5 -0.65 -0.5 -0.65 -0.5 -0.7 -0.5 -0.65 -0.4 -0.7 -0.25 Q-0.8 -0.35 -0.8 -0.45 L-0.75 -0.55 -0.7 -0.65 -0.55 -0.75 -0.4 -0.85 M-0.3 -0.8 L-0.3 -0.8 -0.35 -0.8 -0.35 -0.75 Q-0.3 -0.75 -0.3 -0.8 M-0.45 -0.7 L-0.5 -0.65 -0.45 -0.65 Q-0.4 -0.65 -0.45 -0.7" fill="#937450" fill-rule="evenodd" stroke="none"/>
    <path d="M-0.45 -0.7 Q-0.4 -0.65 -0.45 -0.65 L-0.5 -0.65 -0.45 -0.7" fill="#e4c6a2" fill-rule="evenodd" stroke="none"/>
    <path d="M-0.25 -0.65 L-0.25 -0.6 -0.3 -0.6 -0.3 -0.65 -0.25 -0.65" fill="#6e5126" fill-rule="evenodd" stroke="none"/>
    <path d="M-0.1 -0.65 L-0.1 -0.6 -0.15 -0.6 -0.15 -0.65 -0.1 -0.65" fill="#694b21" fill-rule="evenodd" stroke="none"/>
    <path d="M-1.1 0.0 L-1.1 -0.1 -0.95 -0.1 -0.95 -0.2 -0.9 -0.15 -1.0 -0.3 -0.9 -0.3 Q-0.85 -0.3 -0.8 -0.35 L-0.95 -0.35 -1.05 -0.45 -0.95 -0.5 -0.85 -0.6 Q-0.8 -0.65 -0.7 -0.65 L-0.75 -0.55 -0.8 -0.45 Q-0.8 -0.35 -0.7 -0.25 L-0.65 -0.2 -0.65 -0.15 -0.7 -0.2 -0.8 -0.15 -0.85 -0.2 -0.85 -0.05 -1.05 0.0 -1.05 0.1 -1.1 0.05 -1.1 0.0" fill="#d0ac7f" fill-rule="evenodd" stroke="none"/>
    <path d="M-1.05 1.0 L-1.0 0.95 -0.9 1.1 -0.85 1.3 Q-0.95 1.45 -1.25 1.5 L-1.45 1.45 -1.65 1.3 -1.5 1.2 -1.45 1.4 -1.4 1.35 -1.4 1.4 -1.3 1.35 -1.2 1.35 -1.05 1.35 -0.95 1.25 -0.95 1.1 -1.1 1.25 -1.3 1.3 Q-1.35 1.3 -1.4 1.2 L-1.5 1.05 -1.35 1.0 Q-1.45 0.85 -1.55 0.75 L-1.65 0.8 -1.6 0.85 -1.65 0.85 -1.65 0.8 -1.7 0.75 -1.7 0.8 -1.75 0.9 -1.7 0.95 -1.7 1.0 -1.65 1.05 Q-1.6 1.05 -1.6 1.05 L-1.6 1.2 -1.7 1.1 -1.8 0.8 -1.75 0.5 -1.75 0.55 -1.75 0.6 Q-1.6 0.55 -1.4 0.65 L-1.35 0.85 -1.2 1.0 -1.15 1.05 -1.1 1.05 -1.05 1.0 M-1.35 1.05 L-1.3 1.15 -1.2 1.2 -1.15 1.25 -1.2 1.15 -1.1 1.15 -1.1 1.15 -1.25 1.15 -1.25 1.05 -1.35 1.05" fill="#725642" fill-rule="evenodd" stroke="none"/>
    <path d="M-1.0 0.95 L-1.0 0.95 -0.9 0.95 Q-0.9 0.95 -0.85 0.95 -0.8 1.05 -0.8 1.15 L-0.85 1.3 -0.9 1.1 -1.0 0.95" fill="#8f7b6d" fill-rule="evenodd" stroke="none"/>
    <path d="M-0.6 0.0 L-0.75 0.1 -0.85 0.25 Q-1.05 0.5 -1.1 0.7 L-1.1 0.85 -1.05 1.0 -1.1 1.05 -1.2 0.9 -1.2 0.75 Q-1.2 0.6 -1.1 0.4 L-0.9 0.15 -0.6 0.0" fill="#58473d" fill-rule="evenodd" stroke="none"/>
    <path d="M-1.25 0.15 L-1.25 0.2 -1.4 0.2 -1.35 0.1 -1.25 -0.05 -1.25 0.1 -1.1 0.05 Q-1.15 0.15 -1.25 0.15" fill="#ae8a5a" fill-rule="evenodd" stroke="none"/>
    <path d="M-1.75 0.5 L-1.75 0.45 -1.6 0.4 -1.45 0.4 -1.3 0.6 -1.3 0.8 -1.35 0.85 -1.4 0.65 Q-1.6 0.55 -1.75 0.6 L-1.75 0.55 -1.75 0.5" fill="#c4a279" fill-rule="evenodd" stroke="none"/>
    <path d="M-1.65 1.3 L-1.7 1.1 -1.6 1.2 -1.6 1.05 Q-1.6 1.05 -1.65 1.05 L-1.7 1.0 -1.7 0.95 -1.75 0.9 -1.7 0.8 -1.7 0.75 -1.65 0.8 -1.65 0.85 -1.6 0.85 -1.65 0.8 -1.55 0.75 Q-1.45 0.85 -1.35 1.0 L-1.5 1.05 -1.4 1.2 Q-1.35 1.3 -1.3 1.3 L-1.1 1.25 -0.95 1.1 -0.95 1.25 -1.05 1.35 -1.2 1.35 -1.3 1.35 -1.4 1.4 -1.4 1.35 -1.45 1.4 -1.5 1.2 -1.65 1.3" fill="#b48b58" fill-rule="evenodd" stroke="none"/>
    <path d="M0.75 -1.55 Q0.75 -1.6 0.7 -1.7 L0.7 -1.85 0.8 -1.75 0.9 -1.6 0.95 -1.45 0.95 -1.25 1.0 -1.3 1.1 -1.35 1.15 -1.3 1.2 -1.3 1.15 -1.25 1.25 -1.25 Q1.3 -1.35 1.4 -1.35 L1.4 -0.85 2.0 -0.85 2.4 -0.85 2.45 -0.85 2.55 -0.85 2.55 -0.85 2.65 -0.85 2.65 -0.9 2.7 -0.85 2.7 -0.8 2.8 -0.8 2.9 -0.8 2.9 -0.85 2.95 -0.85 3.0 -0.85 3.0 -0.85 3.0 -0.8 3.0 -0.8 3.05 -0.8 3.45 -0.75 3.6 -0.75 4.2 -0.75 4.4 -0.8 4.65 -0.75 4.95 -0.75 5.0 -0.65 5.0 -0.5 5.0 -0.45 5.15 -0.45 5.3 -0.45 5.5 -0.45 5.7 -0.45 5.75 -0.45 5.8 -0.4 6.05 -0.4 6.25 -0.35 6.3 -0.35 6.35 -0.35 6.35 -0.3 6.35 -0.3 6.35 -0.3 6.3 -0.3 6.2 -0.25 6.1 -0.25 5.95 -0.2 5.95 -0.2 5.9 -0.2 5.8 -0.2 5.7 -0.2 5.6 -0.2 5.5 -0.2 5.25 -0.15 4.8 -0.15 4.75 -0.15 4.65 -0.2 4.55 -0.15 4.3 -0.15 4.05 -0.2 4.0 -0.2 3.95 -0.15 3.9 -0.2 3.8 -0.15 3.8 -0.15 3.7 -0.15 3.6 -0.15 3.5 -0.15 3.4 -0.15 3.35 -0.15 3.25 -0.15 3.0 -0.15 2.95 -0.1 3.0 -0.05 2.95 0.0 2.95 0.0 2.9 0.0 2.9 0.0 2.9 -0.05 2.95 -0.05 2.9 -0.1 2.9 -0.15 2.75 -0.15 2.75 -0.1 2.8 0.0 2.8 0.0 2.85 0.05 2.9 0.05 3.0 0.05 2.95 0.1 2.85 0.1 2.8 0.1 2.75 0.05 2.7 0.05 2.7 0.15 2.65 0.2 2.6 0.2 2.55 0.15 2.55 0.15 2.55 0.0 2.55 -0.15 2.55 -0.25 2.2 -0.25 2.15 -0.25 1.95 -0.25 1.85 -0.25 1.65 -0.25 1.6 -0.25 1.2 -0.25 1.15 -0.25 1.15 -0.25 0.85 -0.25 Q0.8 -0.2 0.85 -0.05 L0.8 0.1 Q0.8 0.25 0.65 0.35 0.55 0.45 0.35 0.45 L0.05 0.45 -0.15 0.3 -0.25 0.1 -0.35 -0.1 -0.6 0.0 -0.75 0.1 -0.85 0.25 Q-1.05 0.5 -1.1 0.7 L-1.1 0.85 -1.05 1.0 -1.0 0.95 -1.0 0.95 -0.9 0.95 Q-0.9 0.95 -0.85 0.95 -0.8 1.05 -0.8 1.15 L-0.85 1.3 Q-0.95 1.45 -1.25 1.5 L-1.45 1.45 -1.65 1.3 -1.7 1.1 -1.8 0.8 -1.75 0.5 -1.75 0.45 -1.6 0.0 Q-1.45 -0.25 -1.3 -0.4 -0.95 -0.7 -0.55 -0.85 L-0.45 -0.85 -0.4 -0.85 -0.4 -0.9 -0.15 -0.95 0.05 -0.95 0.1 -1.0 0.05 -1.05 -0.15 -1.25 Q-0.2 -1.4 -0.15 -1.55 L-0.15 -1.9 -0.05 -1.9 -0.15 -1.8 -0.05 -1.8 -0.05 -1.9 0.0 -1.8 0.05 -1.7 0.3 -1.75 0.55 -1.7 0.55 -1.65 0.45 -1.5 0.25 -1.35 Q0.35 -1.2 0.4 -1.0 L0.5 -1.0 0.5 -1.0 0.65 -1.0 0.7 -1.05 0.75 -1.1 0.8 -1.1 0.8 -1.3 0.75 -1.55 M-0.3 -0.2 L-0.25 -0.25 -0.35 -0.1 -0.3 -0.2 Z" fill="none" stroke="#000000" stroke-linecap="round" stroke-linejoin="round" stroke-opacity="0.4" stroke-width="0.15000000000000002"/>
  </g>
</svg>
