<?xml version="1.0" encoding="UTF-8" standalone="no"?>
<svg xmlns:xlink="http://www.w3.org/1999/xlink" height="2.55px" width="4.9px" xmlns="http://www.w3.org/2000/svg">
  <g transform="matrix(1.0, 0.0, 0.0, 1.0, 1.85, 1.6)">
    <path d="M0.45 -1.15 L0.45 -1.2 0.45 -1.15 0.5 -1.1 0.5 -1.15 0.5 -1.2 0.55 -1.2 0.55 -1.15 0.55 -1.15 0.55 -1.1 0.6 -1.1 0.6 -1.1 0.6 -1.1 0.6 -1.0 0.65 -0.95 0.65 -0.95 0.6 -0.95 0.6 -1.0 0.6 -1.1 0.65 -1.05 0.65 -1.0 0.65 -1.0 0.65 -1.0 0.7 -1.0 0.75 -1.0 0.7 -1.0 0.65 -0.95 0.65 -0.85 0.65 -0.85 0.7 -0.85 0.7 -0.85 0.7 -0.9 0.7 -0.95 0.7 -0.95 0.7 -0.95 0.75 -0.95 0.75 -1.0 0.75 -0.95 0.75 -0.9 0.75 -0.85 0.75 -0.8 0.75 -0.75 0.7 -0.7 0.7 -0.7 0.65 -0.7 0.75 -0.8 0.75 -0.85 0.7 -0.85 0.7 -0.85 0.7 -0.8 0.75 -0.8 0.7 -0.8 0.7 -0.8 0.7 -0.8 0.7 -0.75 0.65 -0.75 0.65 -0.7 0.65 -0.8 0.65 -0.9 0.6 -0.9 0.6 -0.9 0.6 -0.85 0.6 -0.85 0.65 -0.8 0.65 -0.75 0.6 -0.7 0.6 -0.8 0.6 -0.85 0.6 -0.8 0.6 -0.75 0.6 -0.75 0.6 -0.7 0.55 -0.7 0.55 -0.7 0.55 -0.65 0.55 -0.6 0.55 -0.6 0.6 -0.65 0.6 -0.65 0.6 -0.6 0.55 -0.6 0.55 -0.6 0.55 -0.55 0.65 -0.55 0.55 -0.55 0.55 -0.55 0.55 -0.55 0.5 -0.55 0.5 -0.55 0.45 -0.55 0.45 -0.55 0.5 -0.55 0.5 -0.55 0.5 -0.65 0.5 -0.7 0.5 -0.55 -0.25 -0.55 -0.25 -0.7 -0.25 -0.95 -0.25 -1.25 -0.3 -1.25 -0.3 -1.25 -0.35 -1.25 -0.3 -1.3 -0.3 -1.3 -0.25 -1.3 -0.25 -1.25 -0.25 -1.3 -0.2 -1.3 -0.2 -1.3 -0.2 -1.3 -0.15 -1.35 -0.15 -1.35 -0.15 -1.3 -0.1 -1.35 -0.05 -1.35 -0.05 -1.35 0.0 -1.35 0.0 -1.35 0.05 -1.35 0.0 -1.35 0.0 -1.35 -0.05 -1.35 -0.1 -1.35 -0.1 -1.3 -0.05 -1.3 -0.05 -1.3 -0.05 -1.3 0.0 -1.3 0.0 -1.25 -0.05 -1.25 -0.05 -1.25 -0.1 -1.25 -0.1 -1.3 -0.15 -1.25 -0.15 -1.25 -0.15 -1.25 -0.15 -1.25 -0.2 -1.2 -0.2 -1.2 -0.2 -1.15 -0.2 -1.1 -0.2 -1.1 -0.2 -1.05 -0.2 -1.05 -0.2 -1.0 -0.2 -1.0 -0.2 -0.95 -0.2 -0.95 -0.15 -0.95 -0.15 -0.9 -0.2 -0.9 -0.2 -0.9 -0.15 -0.9 -0.15 -0.85 -0.2 -0.85 -0.2 -0.85 -0.2 -0.85 -0.15 -0.8 -0.15 -0.8 -0.2 -0.8 -0.15 -0.75 -0.15 -0.75 Q-0.1 -0.75 -0.1 -0.75 L-0.1 -0.75 -0.1 -0.8 -0.1 -0.8 -0.05 -0.85 -0.05 -0.9 0.0 -0.85 0.0 -0.85 0.1 -0.8 0.1 -0.8 0.15 -0.85 0.2 -0.8 0.25 -0.8 0.25 -0.8 0.3 -0.85 0.35 -0.85 0.4 -0.85 0.4 -0.8 0.45 -0.8 0.45 -0.95 0.45 -0.95 0.4 -0.95 0.4 -0.95 0.25 -0.95 0.2 -0.95 0.2 -0.95 0.15 -0.95 0.05 -0.95 0.05 -0.95 0.0 -0.95 0.0 -0.95 0.0 -0.95 0.0 -1.0 0.05 -1.0 0.1 -1.0 0.15 -1.0 0.15 -1.0 0.2 -1.0 0.25 -1.0 0.3 -1.0 0.4 -1.0 0.45 -1.0 0.45 -1.05 0.45 -1.15 M0.1 -1.0 L0.1 -1.0 M-0.15 -1.25 L-0.15 -1.25 M-1.15 -0.8 L-1.15 -0.7 -1.15 -0.65 -1.15 -0.55 -1.15 -0.55 -1.2 -0.5 -1.2 -0.5 -1.2 -0.5 -1.25 -0.5 -1.25 -0.5 -1.15 -0.6 -1.15 -0.8 M-1.25 -0.35 L-1.25 -0.35 -1.2 -0.4 -1.2 -0.4 -1.15 -0.45 -1.15 -0.45 -1.15 -0.5 -1.1 -0.55 -1.1 -0.6 -1.05 -0.65 -1.05 -0.7 -1.05 -0.7 -1.05 -0.8 -1.0 -0.75 -1.0 -0.75 -0.95 -0.75 -0.95 -0.75 -0.9 -0.75 -0.85 -0.7 -0.85 -0.7 -0.75 -0.65 -0.7 -0.55 -0.6 -0.5 -0.6 -0.45 -0.55 -0.45 -0.5 -0.4 -0.5 -0.35 -0.45 -0.3 -0.45 -0.25 -0.45 -0.25 -0.45 -0.25 -0.45 -0.25 -0.5 -0.25 -0.5 -0.2 -0.5 -0.2 -0.7 -0.25 -0.7 -0.15 -0.85 -0.05 -0.95 -0.05 -0.95 -0.05 -0.9 -0.15 -0.85 -0.15 Q-0.75 -0.2 -0.75 -0.25 L-0.8 -0.25 -0.85 -0.35 -0.85 -0.3 -0.9 -0.3 -0.9 -0.4 -0.85 -0.4 -0.9 -0.6 -1.05 -0.3 -1.1 -0.3 -1.1 -0.35 -1.2 -0.35 -1.2 -0.35 -1.25 -0.35 M-0.5 -0.15 L-0.55 -0.15 -0.55 -0.1 -0.6 -0.1 -0.6 -0.1 -0.6 -0.1 -0.65 -0.1 -0.65 -0.05 -0.7 -0.05 -0.7 -0.05 -0.75 -0.05 -0.75 0.0 -0.8 0.0 -0.8 0.0 -0.6 -0.1 -0.5 -0.15 M1.6 -0.95 L1.55 -0.95 1.5 -1.0 1.5 -1.0 1.45 -1.0 1.45 -1.0 1.4 -1.0 1.3 -1.0 1.3 -1.0 1.25 -1.0 1.2 -1.0 1.15 -1.0 1.1 -1.0 1.1 -0.95 1.05 -1.0 1.0 -0.95 0.95 -1.0 0.95 -0.95 0.9 -0.95 0.9 -0.95 0.85 -0.95 0.85 -0.95 0.8 -0.95 0.8 -0.95 0.8 -0.95 0.75 -0.95 0.75 -0.95 0.75 -1.05 0.75 -1.2 0.75 -1.3 0.7 -1.3 0.7 -1.25 0.7 -1.25 0.65 -1.3 0.7 -1.3 0.7 -1.3 0.75 -1.3 0.75 -1.35 0.75 -1.3 0.8 -1.3 0.8 -1.3 0.8 -1.25 0.8 -1.15 0.8 -1.15 0.8 -1.15 0.85 -1.15 0.85 -1.15 0.85 -1.1 0.85 -1.1 0.85 -1.1 0.9 -1.05 0.95 -1.05 Q0.95 -1.05 1.0 -1.05 L1.05 -1.0 1.05 -1.05 1.1 -1.05 1.1 -1.05 1.15 -1.05 1.15 -1.05 1.2 -1.05 1.2 -1.05 1.2 -1.05 1.25 -1.05 1.3 -1.0 1.35 -1.05 1.4 -1.05 1.45 -1.0 1.5 -1.0 1.5 -1.0 1.55 -1.0 1.55 -1.0 1.6 -1.0 1.6 -1.0 1.65 -1.05 1.65 -1.05 1.65 -1.05 1.7 -1.05 1.75 -1.05 1.75 -1.05 1.8 -1.05 1.8 -1.05 1.85 -1.05 1.85 -1.05 1.9 -1.05 2.0 -1.05 2.0 -1.1 1.95 -1.1 2.0 -1.1 2.0 -1.05 2.05 -1.05 2.05 -1.1 2.1 -1.1 2.1 -1.1 2.1 -1.05 2.1 -1.05 2.15 -1.05 2.15 -1.05 2.3 -1.05 2.35 -1.05 2.35 -1.05 2.4 -1.05 2.4 -1.1 2.4 -1.05 2.45 -1.05 2.5 -1.05 2.55 -1.05 2.6 -1.05 2.65 -1.05 2.7 -1.05 2.7 -1.05 2.75 -1.05 2.75 -1.05 2.8 -1.05 2.8 -1.05 2.85 -1.05 2.9 -1.05 2.95 -1.05 1.7 -1.05 1.55 -0.8 1.55 -0.85 1.6 -0.9 1.6 -0.9 1.65 -0.95 1.6 -0.95 M0.9 -1.1 L0.9 -1.1 0.85 -1.1 0.9 -1.1 0.9 -1.1 0.95 -1.1 0.95 -1.1 1.0 -1.1 1.0 -1.1 1.05 -1.1 1.05 -1.1 1.0 -1.1 0.95 -1.1 0.9 -1.1 M0.15 -0.8 L0.15 -0.75 0.15 -0.75 0.2 -0.75 0.2 -0.75 0.2 -0.75 0.3 -0.75 0.25 -0.75 0.25 -0.8 0.25 -0.8 0.2 -0.8 0.2 -0.8 0.2 -0.8 0.15 -0.8 M0.25 -0.8 L0.25 -0.75 0.2 -0.75 0.2 -0.8 0.25 -0.8 M0.35 -0.75 L0.35 -0.75 0.35 -0.75 0.4 -0.75 0.4 -0.75 0.4 -0.75 0.35 -0.75 0.35 -0.8 0.4 -0.8 0.4 -0.8 0.35 -0.8 0.35 -0.8 0.3 -0.8 0.3 -0.8 0.3 -0.75 0.3 -0.75 0.35 -0.75 M0.1 -0.6 L0.1 -0.6 0.1 -0.6 0.15 -0.6 0.2 -0.6 0.2 -0.6 0.3 -0.6 0.3 -0.6 0.4 -0.6 0.45 -0.6 0.45 -0.6 0.45 -0.6 0.4 -0.6 0.4 -0.6 0.35 -0.6 0.2 -0.6 0.15 -0.6 0.1 -0.6 0.1 -0.6 M0.05 -0.8 L0.05 -0.8 0.05 -0.75 0.1 -0.75 0.05 -0.75 0.05 -0.75 0.0 -0.75 0.0 -0.7 0.05 -0.7 0.05 -0.75 0.1 -0.75 0.1 -0.7 0.1 -0.75 0.1 -0.8 0.1 -0.8 0.05 -0.8 0.1 -0.8 0.1 -0.8 0.05 -0.8 M-1.1 -0.3 L-1.1 -0.3 M-0.5 -0.2 L-0.5 -0.2 M-1.1 0.15 L-1.05 0.1 -1.05 0.15 -1.05 0.1 Q-1.0 0.1 -1.0 0.15 L-1.0 0.15 -0.95 0.15 -0.95 0.1 -0.85 0.25 -0.85 0.35 -0.85 0.3 -0.9 0.35 -0.9 0.45 -0.85 0.45 -0.85 0.5 -0.85 0.75 -0.85 0.8 -0.9 0.8 -0.9 0.8 -0.9 0.85 -0.95 0.85 -1.05 0.85 -1.05 0.85 -1.1 0.85 -1.1 0.85 -1.75 0.85 -1.75 0.8 -1.75 0.7 -1.7 0.7 -1.7 0.7 -1.7 0.65 -1.65 0.6 -1.65 0.45 -1.65 0.45 -1.65 0.4 -1.6 0.35 -1.55 0.3 -1.55 0.25 -1.55 0.2 -1.5 0.2 -1.5 0.15 -1.5 0.1 -1.5 0.05 -1.45 0.05 -1.45 0.05 -1.4 0.1 -1.4 0.1 -1.4 0.15 -1.45 0.15 -1.45 0.2 -1.5 0.25 -1.5 0.3 -1.55 0.3 -1.55 0.4 -1.6 0.4 -1.6 0.5 -1.6 0.55 -1.6 0.65 -1.6 0.7 -1.6 0.75 -1.6 0.75 -1.55 0.75 -1.5 0.8 -1.5 0.8 -1.45 0.8 -1.45 0.75 -1.4 0.8 -1.4 0.8 -1.35 0.8 -1.35 0.85 -1.3 0.8 -1.3 0.8 -1.25 0.8 -1.25 0.8 -1.2 0.8 -1.15 0.75 -1.1 0.75 -1.05 0.75 -1.05 0.75 -1.0 0.75 -1.0 0.75 -0.95 0.75 -0.95 0.7 -0.95 0.65 -0.95 0.65 -1.0 0.6 -0.95 0.6 -1.0 0.55 -1.0 0.55 -1.0 0.5 -1.05 0.55 -1.05 0.5 -1.1 0.5 -1.1 0.55 -1.1 0.6 -1.15 0.6 -1.15 0.6 -1.2 0.6 -1.2 0.6 -1.25 0.6 -1.25 0.6 -1.25 0.55 -1.25 0.55 -1.3 0.55 -1.3 0.55 -1.35 0.55 -1.35 0.6 -1.4 0.6 -1.4 0.6 -1.4 0.55 -1.4 0.5 -1.35 0.5 -1.35 0.5 -1.35 0.4 -1.3 0.35 -1.3 0.35 -1.35 0.3 -1.35 0.3 -1.3 0.3 -1.3 0.25 -1.3 0.25 -1.25 0.25 -1.25 0.25 -1.2 0.25 -1.2 0.3 -1.25 0.3 Q-1.3 0.3 -1.3 0.3 L-1.25 0.3 -1.3 0.3 -1.3 0.35 -1.25 0.4 -1.2 0.4 -1.2 0.4 -1.15 0.35 -1.15 0.35 -1.15 0.3 -1.15 0.3 -1.15 0.25 -1.1 0.2 -1.15 0.2 -1.15 0.15 -1.1 0.15 M0.0 -0.8 L-0.05 -0.75 -0.05 -0.75 -0.05 -0.75 0.0 -0.75 0.0 -0.8 M-1.65 0.45 L-1.65 0.45" fill="#010101" fill-rule="evenodd" stroke="none"/>
    <path d="M-0.15 -1.25 L-0.15 -1.25 -0.15 -1.25 -0.15 -1.25 -0.1 -1.3 -0.1 -1.25 -0.05 -1.25 -0.05 -1.25 0.0 -1.25 0.0 -1.3 -0.05 -1.3 -0.05 -1.3 -0.05 -1.3 -0.1 -1.3 -0.1 -1.35 -0.05 -1.35 0.0 -1.35 0.0 -1.35 0.05 -1.35 0.0 -1.35 0.0 -1.35 -0.05 -1.35 -0.05 -1.35 -0.1 -1.35 -0.15 -1.3 -0.15 -1.35 -0.15 -1.35 -0.2 -1.3 -0.2 -1.3 -0.2 -1.3 -0.25 -1.3 -0.25 -1.25 -0.25 -1.3 -0.3 -1.3 -0.3 -1.3 -0.35 -1.25 -0.3 -1.25 -0.3 -1.25 -0.25 -1.25 -0.25 -0.95 -0.25 -0.7 -0.25 -0.55 0.5 -0.55 0.5 -0.7 0.5 -0.65 0.5 -0.55 0.5 -0.55 0.45 -0.55 0.45 -0.55 0.5 -0.55 0.5 -0.55 0.55 -0.55 0.55 -0.55 0.55 -0.55 0.65 -0.55 0.55 -0.55 0.55 -0.6 0.55 -0.6 0.6 -0.6 0.6 -0.65 0.6 -0.65 0.55 -0.6 0.55 -0.6 0.55 -0.65 0.55 -0.7 0.55 -0.7 0.6 -0.7 0.6 -0.75 0.6 -0.75 0.6 -0.8 0.6 -0.85 0.6 -0.8 0.6 -0.7 0.65 -0.75 0.65 -0.8 0.6 -0.85 0.6 -0.85 0.6 -0.9 0.6 -0.9 0.65 -0.9 0.65 -0.8 0.65 -0.7 0.65 -0.75 0.7 -0.75 0.7 -0.8 0.7 -0.8 0.7 -0.8 0.75 -0.8 0.7 -0.8 0.7 -0.85 0.7 -0.85 0.75 -0.85 0.75 -0.8 0.65 -0.7 0.7 -0.7 0.7 -0.7 0.75 -0.75 0.75 -0.8 0.75 -0.85 0.75 -0.9 0.75 -0.95 0.75 -1.0 0.75 -0.95 0.7 -0.95 0.7 -0.95 0.7 -0.95 0.7 -0.9 0.7 -0.85 0.7 -0.85 0.65 -0.85 0.65 -0.85 0.65 -0.95 0.7 -1.0 0.75 -1.0 0.7 -1.0 0.65 -1.0 0.65 -1.0 0.65 -1.0 0.65 -1.05 0.6 -1.1 0.6 -1.0 0.6 -0.95 0.65 -0.95 0.65 -0.95 0.6 -1.0 0.6 -1.1 0.6 -1.1 0.6 -1.1 0.55 -1.1 0.55 -1.15 0.55 -1.15 0.55 -1.2 0.5 -1.2 0.5 -1.15 0.5 -1.1 0.45 -1.15 0.45 -1.2 0.45 -1.15 0.45 -1.2 0.35 -1.2 0.35 -1.2 0.3 -1.2 0.25 -1.2 0.2 -1.2 0.15 -1.2 0.1 -1.2 0.1 -1.15 0.1 -1.15 0.15 -1.15 0.15 -1.15 0.1 -1.15 0.1 -1.15 0.05 -1.15 0.0 -1.15 0.0 -1.15 -0.05 -1.15 -0.05 -1.15 -0.05 -1.2 -0.05 -1.2 -0.1 -1.25 -0.15 -1.2 -0.15 -1.15 -0.15 -1.15 -0.2 -1.15 -0.2 -1.2 -0.2 -1.2 -0.15 -1.25 -0.15 -1.25 M-0.3 -1.4 L0.1 -1.4 0.3 -1.35 0.75 -1.35 0.75 -1.3 0.7 -1.3 0.7 -1.3 0.65 -1.3 0.7 -1.25 0.7 -1.25 0.7 -1.3 0.75 -1.3 0.75 -1.2 0.75 -1.05 0.75 -0.95 0.75 -0.95 0.8 -0.95 0.8 -0.95 0.8 -0.95 0.85 -0.95 0.85 -0.95 0.9 -0.95 0.9 -0.95 0.95 -0.95 0.95 -1.0 1.0 -0.95 1.05 -1.0 1.1 -0.95 1.1 -1.0 1.15 -1.0 1.2 -1.0 1.25 -1.0 1.3 -1.0 1.3 -1.0 1.4 -1.0 1.45 -1.0 1.45 -1.0 1.5 -1.0 1.5 -1.0 1.55 -0.95 1.6 -0.95 1.55 -0.95 1.55 -0.95 1.5 -0.95 1.5 -0.95 1.45 -0.95 1.45 -0.95 1.4 -0.95 1.35 -0.95 1.4 -0.95 1.35 -0.9 1.35 -0.95 1.3 -0.9 1.3 -0.9 1.25 -0.9 1.25 -0.9 1.2 -0.95 1.2 -0.95 1.15 -0.95 1.15 -0.95 1.1 -0.95 1.1 -0.9 1.05 -0.9 1.05 -0.9 1.0 -0.9 1.0 -0.85 1.0 -0.85 1.0 -0.8 0.75 -0.8 0.8 -0.7 0.7 -0.65 0.7 -0.35 0.4 -0.35 0.3 -0.1 Q0.25 0.0 0.1 0.1 L-0.25 0.15 -0.35 0.1 -0.45 -0.1 -0.65 -0.05 -0.75 0.1 -0.8 0.0 -0.75 0.0 -0.75 -0.05 -0.7 -0.05 -0.7 -0.05 -0.65 -0.05 -0.65 -0.1 -0.6 -0.1 -0.6 -0.1 -0.6 -0.1 -0.55 -0.1 -0.55 -0.15 -0.5 -0.15 -0.45 -0.2 -0.5 -0.2 -0.5 -0.2 -0.5 -0.25 -0.45 -0.25 -0.45 -0.25 -0.45 -0.25 -0.4 -0.25 -0.45 -0.2 -0.45 -0.2 -0.45 -0.15 -0.45 -0.15 -0.4 -0.15 -0.4 -0.15 -0.4 -0.2 -0.4 -0.25 -0.35 -0.25 -0.35 -0.3 -0.4 -0.3 -0.45 -0.3 -0.45 -0.35 -0.45 -0.4 -0.5 -0.4 -0.5 -0.45 -0.5 -0.45 -0.55 -0.45 -0.55 -0.45 -0.55 -0.5 -0.55 -0.5 -0.55 -0.5 -0.55 -0.5 -0.6 -0.55 -0.6 -0.6 -0.6 -0.6 -0.6 -0.55 -0.65 -0.55 -0.65 -0.55 -0.65 -0.55 -0.65 -0.65 -0.65 -0.65 -0.65 -0.65 -0.65 -0.6 -0.7 -0.6 -0.7 -0.65 -0.7 -0.65 -0.7 -0.7 -0.7 -0.7 -0.7 -0.65 -0.75 -0.65 -0.75 -0.65 -0.8 -0.7 -0.8 -0.75 -0.75 -0.7 -0.75 -0.7 -0.7 -0.7 -0.75 -0.7 -0.7 -0.75 -0.75 -0.75 -0.75 -0.75 -0.75 -0.7 Q-0.8 -0.7 -0.8 -0.8 L-0.8 -0.8 -0.85 -0.8 -0.85 -0.8 -0.8 -0.8 -0.8 -0.75 -0.8 -0.75 -0.85 -0.75 -0.85 -0.75 -0.85 -0.75 -0.85 -0.75 -0.9 -0.75 -0.85 -0.75 -0.9 -0.75 -0.9 -0.75 -0.9 -0.8 -0.85 -0.8 -0.85 -0.8 -0.9 -0.8 -0.85 -0.85 -0.9 -0.85 -0.9 -0.85 -0.9 -0.8 -0.95 -0.8 -0.95 -0.8 -0.95 -0.8 -1.0 -0.8 -1.0 -0.8 -1.05 -0.8 -1.05 -0.8 -1.05 -0.7 -1.1 -0.7 -1.1 -0.7 -1.1 -0.6 -1.1 -0.55 -1.15 -0.5 -1.15 -0.45 -1.15 -0.45 -1.2 -0.4 -1.2 -0.4 -1.25 -0.35 -1.25 -0.35 -1.3 -0.35 -1.35 -0.3 -1.25 -0.5 -1.2 -0.5 -1.2 -0.5 -1.2 -0.5 -1.15 -0.55 -1.15 -0.55 -1.15 -0.65 -1.15 -0.7 -1.15 -0.8 -1.15 -0.8 -0.9 -0.9 -0.85 -0.95 -0.7 -1.05 -0.8 -1.15 -1.0 -1.15 -1.0 -1.2 -0.85 -1.2 -0.75 -1.2 -0.7 -1.15 -0.65 -1.1 -0.65 -1.1 -0.65 -1.05 -0.65 -1.0 -0.7 -1.0 -0.7 -0.95 -0.75 -0.95 -0.75 -0.95 -0.8 -0.9 -0.8 -0.9 -0.75 -0.85 -0.75 -0.9 -0.7 -0.9 -0.7 -0.95 -0.65 -0.95 -0.65 -0.95 -0.6 -0.95 -0.6 -1.0 -0.55 -1.05 -0.55 -1.1 -0.5 -1.1 -0.5 -1.1 -0.55 -1.1 -0.6 -1.05 -0.6 -1.05 -0.6 -1.15 -0.55 -1.15 -0.55 -1.25 -0.45 -1.25 -0.4 -1.35 -0.35 -1.35 -0.35 -1.3 -0.3 -1.35 -0.3 -1.35 -0.3 -1.35 -0.3 -1.4 M-0.6 -0.1 L-0.6 -0.1 M0.8 -1.3 L0.95 -1.3 0.95 -1.3 0.9 -1.3 0.9 -1.25 0.85 -1.25 0.9 -1.25 0.95 -1.25 0.95 -1.25 0.95 -1.25 0.85 -1.25 0.85 -1.2 0.85 -1.2 0.9 -1.2 0.9 -1.2 0.95 -1.2 0.95 -1.2 1.0 -1.2 1.0 -1.2 1.05 -1.2 1.05 -1.2 1.1 -1.2 1.1 -1.2 1.05 -1.2 1.05 -1.15 1.05 -1.15 1.1 -1.15 1.1 -1.2 1.15 -1.2 1.2 -1.2 1.25 -1.2 1.25 -1.2 1.3 -1.2 1.35 -1.2 1.35 -1.2 1.4 -1.2 1.35 -1.15 1.35 -1.15 1.4 -1.15 1.4 -1.15 1.4 -1.2 1.45 -1.2 1.45 -1.15 1.5 -1.15 1.5 -1.15 1.55 -1.15 1.55 -1.15 1.5 -1.15 1.5 -1.15 1.5 -1.2 1.5 -1.2 1.55 -1.2 1.55 -1.2 1.6 -1.2 1.65 -1.2 1.65 -1.2 1.7 -1.2 1.7 -1.2 1.7 -1.2 1.7 -1.2 1.75 -1.2 1.75 -1.25 1.75 -1.2 1.8 -1.2 1.8 -1.2 1.85 -1.2 1.8 -1.2 1.8 -1.25 1.85 -1.2 1.85 -1.2 1.9 -1.2 1.9 -1.2 1.9 -1.2 1.9 -1.15 1.95 -1.15 1.95 -1.2 2.0 -1.2 2.0 -1.15 2.0 -1.15 1.95 -1.15 1.95 -1.15 2.0 -1.15 2.0 -1.1 2.05 -1.1 2.05 -1.15 2.05 -1.15 2.0 -1.15 2.0 -1.15 2.0 -1.15 2.0 -1.2 2.05 -1.2 2.05 -1.2 2.05 -1.15 2.1 -1.15 2.1 -1.15 2.1 -1.1 2.05 -1.1 2.05 -1.05 2.0 -1.05 2.0 -1.1 1.95 -1.1 2.0 -1.1 2.0 -1.05 1.9 -1.05 1.85 -1.05 1.85 -1.05 1.8 -1.05 1.8 -1.05 1.75 -1.05 1.75 -1.05 1.7 -1.05 1.65 -1.05 1.65 -1.05 1.65 -1.05 1.6 -1.0 1.6 -1.0 1.55 -1.0 1.55 -1.0 1.5 -1.0 1.5 -1.0 1.45 -1.0 1.4 -1.05 1.35 -1.05 1.3 -1.0 1.25 -1.05 1.2 -1.05 1.2 -1.05 1.2 -1.05 1.15 -1.05 1.15 -1.05 1.1 -1.05 1.1 -1.05 1.05 -1.05 1.05 -1.0 1.0 -1.05 Q0.95 -1.05 0.95 -1.05 L0.9 -1.05 0.85 -1.1 0.85 -1.1 0.85 -1.1 0.85 -1.15 0.85 -1.15 0.8 -1.15 0.8 -1.15 0.8 -1.15 0.8 -1.25 0.8 -1.3 0.8 -1.3 M0.6 -1.25 L0.6 -1.25 0.6 -1.25 0.55 -1.25 0.55 -1.25 Q0.55 -1.2 0.55 -1.25 L0.6 -1.2 0.6 -1.2 0.6 -1.2 0.6 -1.2 0.65 -1.2 0.65 -1.2 0.65 -1.25 0.65 -1.25 0.6 -1.25 0.6 -1.25 M0.9 -1.1 L0.95 -1.1 1.0 -1.1 1.05 -1.1 1.05 -1.1 1.0 -1.1 1.0 -1.1 0.95 -1.1 0.95 -1.1 0.9 -1.1 0.9 -1.1 0.85 -1.1 0.9 -1.1 0.9 -1.1 M0.75 -1.2 L0.75 -1.2 0.75 -1.2 0.7 -1.2 0.7 -1.2 0.65 -1.2 0.65 -1.15 0.65 -1.15 0.6 -1.15 0.65 -1.15 0.65 -1.15 0.65 -1.15 0.7 -1.15 0.7 -1.15 0.75 -1.2 M0.7 -1.1 L0.7 -1.1 0.7 -1.15 0.65 -1.1 0.65 -1.05 0.7 -1.05 0.7 -1.1 0.7 -1.05 0.75 -1.05 0.75 -1.1 0.75 -1.1 0.7 -1.1 0.7 -1.1 M0.6 -1.2 L0.6 -1.2 0.6 -1.2 M0.45 -0.55 L0.4 -0.5 0.45 -0.55 0.45 -0.55 M0.0 -0.4 L0.0 -0.4 0.0 -0.4 0.0 -0.4 -0.05 -0.4 -0.05 -0.4 -0.1 -0.4 -0.1 -0.4 -0.15 -0.4 -0.15 -0.4 -0.2 -0.4 -0.2 -0.4 -0.25 -0.4 -0.3 -0.4 -0.3 -0.4 -0.3 -0.4 -0.3 -0.45 -0.35 -0.4 -0.35 -0.4 -0.4 -0.4 -0.4 -0.35 -0.45 -0.35 -0.4 -0.35 -0.4 -0.3 -0.35 -0.3 -0.35 -0.35 -0.3 -0.35 -0.3 -0.35 -0.25 -0.4 -0.25 -0.4 -0.2 -0.35 -0.25 -0.35 -0.25 -0.3 -0.3 -0.3 -0.35 -0.25 -0.35 -0.2 -0.4 -0.15 -0.35 -0.05 -0.3 0.0 -0.3 0.05 -0.25 0.05 -0.15 0.1 -0.05 0.1 0.05 0.05 0.1 0.05 0.2 -0.05 0.25 -0.15 0.25 -0.2 0.2 -0.25 0.2 -0.3 0.2 -0.35 0.15 -0.35 0.1 -0.35 0.05 -0.4 0.0 -0.4 M1.05 -1.1 L1.05 -1.1 1.1 -1.1 1.1 -1.1 1.1 -1.1 1.1 -1.1 1.05 -1.1 1.05 -1.1 M2.4 -1.15 L2.45 -1.15 2.45 -1.15 2.45 -1.15 2.45 -1.15 2.45 -1.1 2.45 -1.1 2.5 -1.1 2.5 -1.15 2.5 -1.1 2.55 -1.15 2.55 -1.15 2.6 -1.15 2.65 -1.15 2.65 -1.15 2.7 -1.15 2.7 -1.15 2.7 -1.05 2.65 -1.05 2.6 -1.05 2.55 -1.05 2.5 -1.05 2.45 -1.05 2.4 -1.05 2.4 -1.15 M-1.35 -0.2 L-1.35 -0.2 -1.35 -0.2 -1.4 -0.15 -1.4 -0.2 -1.4 -0.2 -1.35 -0.3 -1.3 -0.25 -1.35 -0.2 M-0.35 -1.15 L-0.35 -1.2 -0.35 -1.15 -0.4 -1.15 -0.35 -1.15 -0.35 -1.15 M-0.4 -1.0 L-0.4 -1.05 -0.45 -1.05 -0.45 -1.05 -0.5 -1.0 -0.5 -1.05 -0.5 -1.05 -0.55 -1.05 Q-0.5 -1.05 -0.5 -1.0 L-0.55 -1.0 -0.55 -0.95 -0.5 -0.95 -0.5 -0.95 -0.45 -0.9 -0.45 -0.9 -0.4 -0.85 -0.4 -0.9 -0.45 -0.95 -0.45 -1.0 -0.4 -1.0 M-0.5 -0.7 L-0.45 -0.75 -0.5 -0.75 -0.5 -0.75 -0.5 -0.8 -0.55 -0.75 -0.55 -0.75 -0.6 -0.8 -0.6 -0.85 -0.6 -0.8 -0.6 -0.8 -0.6 -0.75 -0.6 -0.7 -0.6 -0.7 -0.55 -0.7 -0.55 -0.7 -0.5 -0.7 -0.5 -0.7 M-0.45 -0.65 L-0.45 -0.6 -0.5 -0.55 -0.45 -0.5 -0.45 -0.5 -0.45 -0.45 -0.4 -0.45 -0.4 -0.45 -0.4 -0.5 -0.35 -0.5 -0.35 -0.5 -0.3 -0.5 -0.35 -0.5 -0.35 -0.55 -0.4 -0.55 -0.4 -0.55 -0.45 -0.55 -0.4 -0.55 -0.4 -0.55 -0.4 -0.55 -0.45 -0.6 -0.45 -0.65 M-0.65 -0.8 L-0.65 -0.8 -0.65 -0.8 -0.65 -0.75 -0.65 -0.8" fill="#a3a3a3" fill-rule="evenodd" stroke="none"/>
    <path d="M0.6 -1.25 L0.6 -1.25 0.65 -1.25 0.65 -1.25 0.65 -1.2 0.65 -1.2 0.6 -1.2 0.6 -1.2 0.6 -1.2 0.6 -1.2 0.55 -1.25 Q0.55 -1.2 0.55 -1.25 L0.55 -1.25 0.6 -1.25 0.6 -1.25 0.6 -1.25 M0.75 -1.2 L0.7 -1.15 0.7 -1.15 0.65 -1.15 0.65 -1.15 0.65 -1.15 0.6 -1.15 0.65 -1.15 0.65 -1.15 0.65 -1.2 0.7 -1.2 0.7 -1.2 0.75 -1.2 0.75 -1.2 0.75 -1.2 M0.6 -1.2 L0.6 -1.2 0.6 -1.2" fill="#8d918b" fill-rule="evenodd" stroke="none"/>
    <path d="M0.45 -1.15 L0.45 -1.05 0.45 -1.0 0.45 -1.0 0.45 -1.05 0.45 -1.1 0.45 -1.1 0.4 -1.1 0.4 -1.15 0.4 -1.15 0.35 -1.15 0.35 -1.15 0.3 -1.15 0.3 -1.1 0.35 -1.1 0.35 -1.15 0.4 -1.1 0.35 -1.1 0.4 -1.1 0.4 -1.1 0.4 -1.05 0.4 -1.05 0.4 -1.1 0.35 -1.05 0.4 -1.05 0.35 -1.05 0.35 -1.05 0.35 -1.05 0.3 -1.05 0.3 -1.0 0.25 -1.0 0.3 -1.05 0.3 -1.05 0.25 -1.1 0.25 -1.15 0.2 -1.15 Q0.15 -1.1 0.15 -1.1 L0.15 -1.1 0.2 -1.1 0.2 -1.1 0.25 -1.1 0.25 -1.1 0.25 -1.1 0.3 -1.1 0.25 -1.05 0.25 -1.05 0.25 -1.05 0.25 -1.05 0.2 -1.05 0.2 -1.05 0.2 -1.05 0.15 -1.05 0.15 -1.05 0.15 -1.05 0.1 -1.05 0.1 -1.05 0.05 -1.05 0.05 -1.05 0.0 -1.05 0.0 -1.05 0.0 -1.05 -0.05 -1.05 -0.1 -1.0 -0.1 -1.0 -0.1 -0.95 -0.1 -0.85 -0.15 -0.9 -0.15 -0.95 -0.15 -1.0 -0.2 -1.0 -0.2 -1.0 -0.2 -1.05 -0.2 -1.05 -0.15 -1.05 -0.15 -1.05 -0.15 -1.1 -0.2 -1.1 -0.2 -1.15 -0.15 -1.15 -0.15 -1.15 -0.15 -1.2 -0.1 -1.25 -0.05 -1.2 -0.05 -1.2 -0.05 -1.15 -0.05 -1.15 0.0 -1.15 0.0 -1.15 0.05 -1.15 0.1 -1.15 0.1 -1.15 0.15 -1.15 0.15 -1.15 0.1 -1.15 0.1 -1.15 0.1 -1.2 0.15 -1.2 0.2 -1.2 0.25 -1.2 0.3 -1.2 0.35 -1.2 0.35 -1.2 0.45 -1.2 0.45 -1.15 M0.15 -0.85 L0.1 -0.8 0.1 -0.8 0.0 -0.85 0.0 -0.85 0.0 -0.85 0.05 -0.85 0.05 -0.9 0.1 -0.9 0.1 -0.9 0.15 -0.9 0.2 -0.9 0.25 -0.9 0.25 -0.9 0.3 -0.9 0.35 -0.9 0.35 -0.9 0.4 -0.9 0.4 -0.9 0.4 -0.9 0.4 -0.85 0.35 -0.9 0.35 -0.85 0.25 -0.85 0.2 -0.85 0.2 -0.85 0.15 -0.85 0.15 -0.85 M1.0 -0.8 L1.0 -0.85 1.0 -0.85 1.0 -0.9 1.05 -0.9 1.05 -0.9 1.1 -0.9 1.1 -0.95 1.15 -0.95 1.15 -0.95 1.2 -0.95 1.2 -0.95 1.25 -0.9 1.25 -0.9 1.3 -0.9 1.3 -0.9 1.35 -0.95 1.35 -0.9 1.4 -0.95 1.35 -0.95 1.4 -0.95 1.45 -0.95 1.45 -0.95 1.5 -0.95 1.5 -0.95 1.55 -0.95 1.55 -0.95 1.6 -0.95 1.65 -0.95 1.6 -0.9 1.6 -0.9 1.55 -0.85 1.55 -0.8 1.55 -0.8 1.0 -0.8 M0.95 -1.3 L2.1 -1.3 2.1 -1.15 2.1 -1.15 2.05 -1.15 2.05 -1.2 2.05 -1.2 2.0 -1.2 2.0 -1.15 2.0 -1.15 2.0 -1.15 2.05 -1.15 2.05 -1.15 2.05 -1.1 2.0 -1.1 2.0 -1.15 1.95 -1.15 1.95 -1.15 2.0 -1.15 2.0 -1.15 2.0 -1.2 1.95 -1.2 1.95 -1.15 1.9 -1.15 1.9 -1.2 1.9 -1.2 1.9 -1.2 1.85 -1.2 1.85 -1.2 1.8 -1.25 1.8 -1.2 1.85 -1.2 1.8 -1.2 1.8 -1.2 1.75 -1.2 1.75 -1.25 1.75 -1.2 1.7 -1.2 1.7 -1.2 1.7 -1.2 1.7 -1.2 1.65 -1.2 1.65 -1.2 1.6 -1.2 1.55 -1.2 1.55 -1.2 1.5 -1.2 1.5 -1.2 1.5 -1.15 1.5 -1.15 1.55 -1.15 1.55 -1.15 1.5 -1.15 1.5 -1.15 1.45 -1.15 1.45 -1.2 1.4 -1.2 1.4 -1.15 1.4 -1.15 1.35 -1.15 1.35 -1.15 1.4 -1.2 1.35 -1.2 1.35 -1.2 1.3 -1.2 1.25 -1.2 1.25 -1.2 1.2 -1.2 1.15 -1.2 1.1 -1.2 1.1 -1.15 1.05 -1.15 1.05 -1.15 1.05 -1.2 1.1 -1.2 1.1 -1.2 1.05 -1.2 1.05 -1.2 1.0 -1.2 1.0 -1.2 0.95 -1.2 0.95 -1.2 0.9 -1.2 0.9 -1.2 0.85 -1.2 0.85 -1.2 0.85 -1.25 0.95 -1.25 0.95 -1.25 0.95 -1.25 0.9 -1.25 0.85 -1.25 0.9 -1.25 0.9 -1.3 0.95 -1.3 0.95 -1.3 M2.45 -1.35 L2.45 -1.35 2.55 -1.4 2.6 -1.4 2.65 -1.45 2.7 -1.45 2.7 -1.45 2.75 -1.4 2.75 -1.45 2.75 -1.4 2.8 -1.45 2.8 -1.45 2.8 -1.45 2.85 -1.45 2.85 -1.45 2.9 -1.45 2.9 -1.45 2.9 -1.4 2.9 -1.4 2.95 -1.4 2.95 -1.4 2.95 -1.4 2.9 -1.35 2.9 -1.35 2.9 -1.35 2.85 -1.35 2.85 -1.35 2.8 -1.35 2.8 -1.35 2.8 -1.35 2.75 -1.35 2.75 -1.35 2.7 -1.35 2.7 -1.35 2.65 -1.35 2.65 -1.35 2.6 -1.35 2.5 -1.35 2.5 -1.35 2.45 -1.35 2.45 -1.35 2.45 -1.35 2.45 -1.35 M0.25 -1.1 L0.2 -1.1 0.2 -1.05 0.25 -1.1 M2.4 -1.25 L2.45 -1.25 2.45 -1.25 2.5 -1.25 2.5 -1.25 2.55 -1.25 2.6 -1.25 2.65 -1.25 2.65 -1.3 2.7 -1.25 2.7 -1.15 2.7 -1.15 2.65 -1.15 2.65 -1.15 2.6 -1.15 2.55 -1.15 2.55 -1.15 2.5 -1.1 2.5 -1.15 2.5 -1.1 2.45 -1.1 2.45 -1.1 2.45 -1.15 2.45 -1.15 2.45 -1.15 2.45 -1.15 2.4 -1.15 2.4 -1.25 M2.75 -1.4 L2.75 -1.35 2.75 -1.35 2.8 -1.4 2.8 -1.4 2.85 -1.4 2.85 -1.4 2.7 -1.4 2.75 -1.4" fill="#c4c4c4" fill-rule="evenodd" stroke="none"/>
    <path d="M0.7 -1.1 L0.7 -1.1 0.75 -1.1 0.75 -1.1 0.75 -1.05 0.7 -1.05 0.7 -1.1 0.7 -1.05 0.65 -1.05 0.65 -1.1 0.7 -1.15 0.7 -1.1 0.7 -1.1" fill="#424240" fill-rule="evenodd" stroke="none"/>
    <path d="M0.45 -1.0 L0.4 -1.0 0.3 -1.0 0.25 -1.0 0.2 -1.0 0.15 -1.0 0.15 -1.0 0.1 -1.0 0.05 -1.0 0.0 -1.0 0.0 -0.95 0.0 -0.95 0.0 -0.95 0.05 -0.95 0.05 -0.95 0.15 -0.95 0.2 -0.95 0.2 -0.95 0.25 -0.95 0.4 -0.95 0.4 -0.95 0.45 -0.95 0.45 -0.95 0.45 -0.8 0.4 -0.8 0.4 -0.85 0.35 -0.85 0.3 -0.85 0.25 -0.8 0.25 -0.8 0.2 -0.8 0.15 -0.85 0.15 -0.85 0.2 -0.85 0.2 -0.85 0.25 -0.85 0.35 -0.85 0.35 -0.9 0.4 -0.85 0.4 -0.9 0.4 -0.9 0.4 -0.9 0.35 -0.9 0.35 -0.9 0.3 -0.9 0.25 -0.9 0.25 -0.9 0.2 -0.9 0.15 -0.9 0.1 -0.9 0.1 -0.9 0.05 -0.9 0.05 -0.85 0.0 -0.85 0.0 -0.85 -0.05 -0.9 -0.05 -0.85 -0.1 -0.8 -0.1 -0.8 -0.1 -0.75 -0.1 -0.75 Q-0.1 -0.75 -0.15 -0.75 L-0.15 -0.75 -0.2 -0.8 -0.15 -0.8 -0.15 -0.8 -0.2 -0.85 -0.2 -0.85 -0.2 -0.85 -0.15 -0.85 -0.15 -0.9 -0.2 -0.9 -0.2 -0.9 -0.15 -0.9 -0.15 -0.95 -0.2 -0.95 -0.2 -0.95 -0.2 -1.0 -0.15 -1.0 -0.15 -0.95 -0.15 -0.9 -0.1 -0.85 -0.1 -0.95 -0.1 -1.0 -0.1 -1.0 -0.05 -1.05 0.0 -1.05 0.0 -1.05 0.0 -1.05 0.05 -1.05 0.05 -1.05 0.1 -1.05 0.1 -1.05 0.15 -1.05 0.15 -1.05 0.15 -1.05 0.2 -1.05 0.2 -1.05 0.2 -1.05 0.25 -1.05 0.25 -1.05 0.25 -1.05 0.25 -1.05 0.3 -1.1 0.25 -1.1 0.25 -1.1 0.25 -1.1 0.2 -1.1 0.2 -1.1 0.15 -1.1 0.15 -1.1 Q0.15 -1.1 0.2 -1.15 L0.25 -1.15 0.25 -1.1 0.3 -1.05 0.3 -1.05 0.25 -1.0 0.3 -1.0 0.3 -1.05 0.35 -1.05 0.35 -1.05 0.35 -1.05 0.4 -1.05 0.35 -1.05 0.4 -1.1 0.4 -1.05 0.4 -1.05 0.4 -1.1 0.4 -1.1 0.35 -1.1 0.4 -1.1 0.35 -1.15 0.35 -1.1 0.3 -1.1 0.3 -1.15 0.35 -1.15 0.35 -1.15 0.4 -1.15 0.4 -1.15 0.4 -1.1 0.45 -1.1 0.45 -1.1 0.45 -1.05 0.45 -1.0 0.45 -1.0 M-0.2 -1.05 L-0.2 -1.05 -0.2 -1.1 -0.2 -1.1 -0.15 -1.1 -0.15 -1.05 -0.15 -1.05 -0.2 -1.05 -0.2 -1.05 M0.1 -1.0 L0.1 -1.0 M0.25 -1.1 L0.2 -1.05 0.2 -1.1 0.25 -1.1" fill="#626360" fill-rule="evenodd" stroke="none"/>
    <path d="M0.25 -0.8 L0.2 -0.8 0.2 -0.75 0.25 -0.75 0.25 -0.8 0.25 -0.8 0.25 -0.75 0.3 -0.75 0.2 -0.75 0.2 -0.75 0.2 -0.75 0.15 -0.75 0.15 -0.75 0.15 -0.8 0.2 -0.8 0.2 -0.8 0.2 -0.8 0.25 -0.8 M0.05 -0.8 L0.1 -0.8 0.1 -0.8 0.05 -0.8 0.1 -0.8 0.1 -0.8 0.1 -0.75 0.1 -0.7 0.1 -0.75 0.05 -0.75 0.05 -0.7 0.0 -0.7 0.0 -0.75 0.05 -0.75 0.05 -0.75 0.1 -0.75 0.05 -0.75 0.05 -0.8 0.05 -0.8 M0.1 -0.6 L0.1 -0.6 0.15 -0.6 0.2 -0.6 0.35 -0.6 0.4 -0.6 0.4 -0.6 0.45 -0.6 0.45 -0.6 0.45 -0.6 0.4 -0.6 0.3 -0.6 0.3 -0.6 0.2 -0.6 0.2 -0.6 0.15 -0.6 0.1 -0.6 0.1 -0.6 0.1 -0.6 M0.4 -0.8 L0.35 -0.8 0.35 -0.75 0.3 -0.75 0.3 -0.75 0.3 -0.8 0.3 -0.8 0.35 -0.8 0.35 -0.8 0.4 -0.8 0.4 -0.8 M0.35 -0.75 L0.4 -0.75 0.4 -0.75 0.4 -0.75 0.35 -0.75 0.35 -0.75 0.35 -0.75 M0.0 -0.8 L0.0 -0.75 -0.05 -0.75 -0.05 -0.75 -0.05 -0.75 0.0 -0.8" fill="#514f4e" fill-rule="evenodd" stroke="none"/>
    <path d="M-0.25 -0.3 L-0.25 -0.35 -0.2 -0.35 -0.25 -0.4 -0.25 -0.4 -0.3 -0.35 -0.3 -0.35 -0.35 -0.35 -0.35 -0.3 -0.4 -0.3 -0.4 -0.35 -0.45 -0.35 -0.4 -0.35 -0.4 -0.4 -0.35 -0.4 -0.35 -0.4 -0.3 -0.45 -0.3 -0.4 -0.3 -0.4 -0.3 -0.4 -0.25 -0.4 -0.2 -0.4 -0.2 -0.4 -0.15 -0.4 -0.15 -0.4 -0.1 -0.4 -0.1 -0.4 -0.05 -0.4 -0.05 -0.4 0.0 -0.4 0.0 -0.4 0.0 -0.4 0.0 -0.4 0.0 -0.4 -0.05 -0.35 -0.15 -0.4 -0.25 -0.3 -0.25 -0.3 M-0.4 -0.35 L-0.4 -0.35 -0.35 -0.35 -0.4 -0.35 -0.4 -0.35 -0.4 -0.35" fill="#8a8b88" fill-rule="evenodd" stroke="none"/>
    <path d="M1.05 -1.1 L1.05 -1.1 1.1 -1.1 1.1 -1.1 1.1 -1.1 1.1 -1.1 1.05 -1.1 1.05 -1.1" fill="#484746" fill-rule="evenodd" stroke="none"/>
    <path d="M-0.8 0.0 L-0.75 0.1 -0.8 0.15 -0.8 0.1 -0.8 0.1 -0.8 0.1 -0.8 0.05 -0.8 0.0 M2.1 -1.3 L2.25 -1.3 2.25 -1.3 2.3 -1.3 2.25 -1.3 2.25 -1.25 2.35 -1.25 2.35 -1.25 2.4 -1.25 2.4 -1.15 2.4 -1.15 2.4 -1.15 2.35 -1.15 2.35 -1.15 2.3 -1.15 2.3 -1.15 2.3 -1.15 2.3 -1.15 2.25 -1.2 2.25 -1.15 2.2 -1.15 2.2 -1.15 2.2 -1.2 2.2 -1.2 2.15 -1.2 2.15 -1.15 2.1 -1.15 2.1 -1.15 2.1 -1.3 M2.95 -1.3 L3.0 -1.3 3.0 -1.1 2.95 -1.15 2.95 -1.15 2.9 -1.15 2.85 -1.15 2.8 -1.15 2.8 -1.15 2.75 -1.15 2.75 -1.15 2.7 -1.15 2.7 -1.25 2.75 -1.25 2.8 -1.25 2.8 -1.25 2.85 -1.25 2.85 -1.25 2.9 -1.3 2.9 -1.3 2.9 -1.3 2.95 -1.3 M-1.25 -0.35 L-1.2 -0.35 -1.1 -0.3 -1.1 -0.3 -1.05 -0.25 -1.05 -0.2 -1.05 -0.15 -1.0 -0.15 -1.0 -0.1 -1.0 -0.05 -1.05 -0.05 -1.1 0.0 -1.1 0.05 -1.05 0.0 -1.05 0.0 -1.0 0.05 -1.0 0.05 -0.95 0.05 -0.95 0.1 -1.0 0.1 -1.05 0.1 -1.1 0.15 -1.35 0.25 -1.15 -0.1 -1.2 -0.15 -1.25 -0.2 -1.25 -0.2 -1.3 -0.25 -1.3 -0.3 -1.3 -0.3 -1.25 -0.35" fill="#aa2e2e" fill-rule="evenodd" stroke="none"/>
    <path d="M2.25 -1.3 L2.3 -1.35 2.35 -1.35 2.35 -1.35 2.4 -1.35 2.45 -1.35 2.45 -1.35 2.45 -1.35 2.45 -1.35 2.5 -1.35 2.5 -1.35 2.6 -1.35 2.65 -1.35 2.65 -1.35 2.7 -1.35 2.7 -1.35 2.75 -1.35 2.75 -1.35 2.8 -1.35 2.8 -1.35 2.8 -1.35 2.85 -1.35 2.85 -1.35 2.9 -1.35 2.9 -1.35 2.9 -1.35 2.95 -1.4 2.95 -1.4 2.95 -1.35 2.95 -1.3 2.9 -1.35 2.9 -1.3 2.9 -1.3 2.9 -1.3 2.9 -1.3 2.85 -1.25 2.85 -1.25 2.8 -1.25 2.8 -1.25 2.75 -1.25 2.7 -1.25 2.65 -1.3 2.65 -1.25 2.6 -1.25 2.55 -1.25 2.5 -1.25 2.5 -1.25 2.45 -1.25 2.45 -1.25 2.4 -1.25 2.35 -1.25 2.35 -1.25 2.25 -1.25 2.25 -1.3 2.3 -1.3 2.25 -1.3 2.25 -1.3" fill="#6c6d6c" fill-rule="evenodd" stroke="none"/>
    <path d="M2.7 -1.45 L2.7 -1.45 2.75 -1.45 2.8 -1.5 2.85 -1.5 2.95 -1.5 2.95 -1.4 2.9 -1.4 2.9 -1.4 2.9 -1.45 2.9 -1.45 2.85 -1.45 2.85 -1.45 2.8 -1.45 2.8 -1.45 2.8 -1.45 2.75 -1.4 2.75 -1.45 2.75 -1.4 2.7 -1.45 2.7 -1.45 M2.75 -1.4 L2.7 -1.4 2.85 -1.4 2.85 -1.4 2.8 -1.4 2.8 -1.4 2.75 -1.35 2.75 -1.35 2.75 -1.4" fill="#e5e5e5" fill-rule="evenodd" stroke="none"/>
    <path d="M2.95 -1.35 L2.95 -1.3 2.95 -1.35 M2.9 -1.3 L2.9 -1.3 2.9 -1.35 2.95 -1.3 2.9 -1.3" fill="#494547" fill-rule="evenodd" stroke="none"/>
    <path d="M-1.35 -0.3 L-1.3 -0.35 -1.25 -0.35 -1.3 -0.3 -1.3 -0.3 -1.3 -0.25 -1.3 -0.25 -1.35 -0.3 M-0.6 -0.1 L-0.6 -0.1 -0.8 0.0 -0.8 0.0 -0.8 0.05 -0.8 0.1 -0.8 0.1 -0.8 0.1 -0.8 0.15 -0.85 0.15 -0.85 0.25 -0.95 0.1 -0.95 0.05 -1.0 0.05 -1.0 0.05 -1.05 0.0 -1.05 0.0 -1.1 0.05 -1.1 0.0 -1.05 -0.05 -1.0 -0.05 -1.0 -0.1 -1.0 -0.15 -1.05 -0.15 -1.05 -0.2 -1.05 -0.25 -1.1 -0.3 -1.05 -0.3 -0.9 -0.6 -0.85 -0.4 -0.9 -0.4 -0.9 -0.3 -0.85 -0.3 -0.85 -0.35 -0.8 -0.25 -0.75 -0.25 Q-0.75 -0.2 -0.85 -0.15 L-0.9 -0.15 -0.95 -0.05 -0.95 -0.05 -0.85 -0.05 -0.7 -0.15 -0.7 -0.25 -0.5 -0.2 -0.5 -0.2 -0.5 -0.15 -0.6 -0.1 M3.0 -1.1 L3.0 -1.1 3.0 -1.05 2.95 -1.05 2.9 -1.05 2.85 -1.05 2.8 -1.05 2.8 -1.05 2.75 -1.05 2.75 -1.05 2.7 -1.05 2.7 -1.05 2.7 -1.15 2.75 -1.15 2.75 -1.15 2.8 -1.15 2.8 -1.15 2.85 -1.15 2.9 -1.15 2.95 -1.15 2.95 -1.15 3.0 -1.1 M-0.25 -0.3 L-0.15 -0.4 -0.05 -0.35 -0.05 -0.35 -0.1 -0.25 -0.1 -0.2 -0.15 -0.2 -0.15 -0.25 -0.15 -0.2 -0.2 -0.15 -0.15 -0.15 -0.15 -0.15 -0.15 -0.15 -0.2 -0.1 -0.2 -0.15 -0.2 -0.3 -0.25 -0.3 -0.25 -0.3 M2.4 -1.05 L2.4 -1.1 2.4 -1.05 2.35 -1.05 2.35 -1.05 2.3 -1.05 2.15 -1.05 2.15 -1.05 2.1 -1.05 2.1 -1.05 2.1 -1.1 2.1 -1.1 2.1 -1.15 2.1 -1.15 2.15 -1.15 2.15 -1.2 2.2 -1.2 2.2 -1.2 2.2 -1.15 2.2 -1.15 2.25 -1.15 2.25 -1.2 2.3 -1.15 2.3 -1.15 2.3 -1.15 2.3 -1.15 2.35 -1.15 2.35 -1.15 2.4 -1.15 2.4 -1.15 2.4 -1.15 2.4 -1.05 M-0.05 -0.05 L0.0 -0.05 0.0 0.0 0.0 0.05 -0.05 0.0 -0.05 0.0 -0.05 0.0 -0.05 0.0 -0.1 -0.05 -0.05 -0.05" fill="#7e2222" fill-rule="evenodd" stroke="none"/>
    <path d="M-0.55 -1.25 L-0.55 -1.15 -0.6 -1.15 -0.6 -1.05 -0.6 -1.05 -0.55 -1.1 -0.5 -1.1 -0.5 -1.1 -0.55 -1.1 -0.55 -1.05 -0.6 -1.0 -0.6 -0.95 -0.65 -0.95 -0.65 -0.95 -0.7 -0.95 -0.7 -0.9 -0.75 -0.9 -0.75 -0.85 -0.8 -0.9 -0.8 -0.9 -0.75 -0.95 -0.75 -0.95 -0.7 -0.95 -0.7 -1.0 -0.65 -1.0 -0.65 -1.05 -0.65 -1.1 -0.65 -1.1 -0.65 -1.1 -0.6 -1.25 -0.6 -1.25 -0.55 -1.25 M-0.45 -0.65 L-0.45 -0.6 -0.4 -0.55 -0.4 -0.55 -0.4 -0.55 -0.45 -0.55 -0.4 -0.55 -0.4 -0.55 -0.35 -0.55 -0.35 -0.5 -0.3 -0.5 -0.35 -0.5 -0.35 -0.5 -0.4 -0.5 -0.4 -0.45 -0.4 -0.45 -0.45 -0.45 -0.45 -0.5 -0.45 -0.5 -0.5 -0.55 -0.45 -0.6 -0.45 -0.65 M-0.5 -0.7 L-0.5 -0.7 -0.55 -0.7 -0.55 -0.7 -0.6 -0.7 -0.6 -0.7 -0.6 -0.75 -0.6 -0.8 -0.6 -0.8 -0.6 -0.85 -0.6 -0.8 -0.55 -0.75 -0.55 -0.75 -0.5 -0.8 -0.5 -0.75 -0.5 -0.75 -0.45 -0.75 -0.5 -0.7 M-0.65 -0.8 L-0.65 -0.75 -0.65 -0.8 -0.65 -0.8 -0.65 -0.8" fill="#7f817e" fill-rule="evenodd" stroke="none"/>
    <path d="M-0.3 -1.4 L-0.3 -1.35 -0.3 -1.35 -0.3 -1.4 -0.35 -1.4 -0.35 -1.4 -0.35 -1.35 -0.4 -1.35 -0.4 -1.35 -0.4 -1.4 -0.35 -1.4 -0.35 -1.4 -0.35 -1.5 -0.3 -1.5 -0.3 -1.4 -0.3 -1.4" fill="#8d8e8c" fill-rule="evenodd" stroke="none"/>
    <path d="M-0.3 -1.35 L-0.3 -1.35 -0.35 -1.3 -0.35 -1.35 -0.35 -1.4 -0.35 -1.4 -0.3 -1.4 -0.3 -1.35" fill="#1e1d1d" fill-rule="evenodd" stroke="none"/>
    <path d="M-1.15 -0.45 L-1.15 -0.5 -1.1 -0.55 -1.1 -0.6 -1.1 -0.7 -1.1 -0.7 -1.05 -0.7 -1.05 -0.8 -1.05 -0.8 -1.0 -0.8 -1.0 -0.8 -0.95 -0.8 -0.95 -0.8 -0.95 -0.8 -0.9 -0.8 -0.9 -0.85 -0.9 -0.85 -0.85 -0.85 -0.9 -0.8 -0.85 -0.8 -0.85 -0.8 -0.9 -0.8 -0.9 -0.75 -0.9 -0.75 -0.85 -0.75 -0.9 -0.75 -0.85 -0.75 -0.85 -0.75 -0.85 -0.75 -0.85 -0.75 -0.8 -0.75 -0.8 -0.75 -0.8 -0.8 -0.85 -0.8 -0.85 -0.8 -0.8 -0.8 -0.8 -0.8 Q-0.8 -0.7 -0.75 -0.7 L-0.75 -0.75 -0.75 -0.75 -0.7 -0.75 -0.75 -0.7 -0.7 -0.7 -0.75 -0.7 -0.75 -0.7 -0.8 -0.75 -0.8 -0.7 -0.75 -0.65 -0.75 -0.65 -0.7 -0.65 -0.7 -0.7 -0.7 -0.7 -0.7 -0.65 -0.7 -0.65 -0.7 -0.6 -0.65 -0.6 -0.65 -0.65 -0.65 -0.65 -0.65 -0.65 -0.65 -0.55 -0.65 -0.55 -0.65 -0.55 -0.6 -0.55 -0.6 -0.6 -0.6 -0.6 -0.6 -0.55 -0.55 -0.5 -0.55 -0.5 -0.55 -0.5 -0.55 -0.5 -0.55 -0.45 -0.55 -0.45 -0.5 -0.45 -0.5 -0.45 -0.5 -0.4 -0.45 -0.4 -0.45 -0.35 -0.45 -0.3 -0.4 -0.3 -0.35 -0.3 -0.35 -0.25 -0.4 -0.25 -0.4 -0.2 -0.4 -0.15 -0.4 -0.15 -0.45 -0.15 -0.45 -0.15 -0.45 -0.2 -0.45 -0.2 -0.4 -0.25 -0.45 -0.25 -0.45 -0.25 -0.45 -0.3 -0.5 -0.35 -0.5 -0.4 -0.55 -0.45 -0.6 -0.45 -0.6 -0.5 -0.7 -0.55 -0.75 -0.65 -0.85 -0.7 -0.85 -0.7 -0.9 -0.75 -0.95 -0.75 -0.95 -0.75 -1.0 -0.75 -1.0 -0.75 -1.05 -0.8 -1.05 -0.7 -1.05 -0.7 -1.05 -0.65 -1.1 -0.6 -1.1 -0.55 -1.15 -0.5 -1.15 -0.45" fill="#464645" fill-rule="evenodd" stroke="none"/>
    <path d="M-1.2 -0.35 L-1.2 -0.35 -1.1 -0.35 -1.1 -0.3 -1.2 -0.35 M-1.3 -0.25 L-1.25 -0.2 -1.25 -0.2 -1.25 -0.2 -1.3 -0.2 -1.3 -0.25 M-1.2 -0.15 L-1.15 -0.1 -1.35 0.25 -1.1 0.15 -1.15 0.15 -1.15 0.2 -1.1 0.2 -1.15 0.25 -1.15 0.3 -1.15 0.3 -1.2 0.3 -1.2 0.25 -1.25 0.25 -1.25 0.25 -1.3 0.25 -1.3 0.25 -1.3 0.3 -1.35 0.3 -1.35 0.3 -1.3 0.35 -1.3 0.35 -1.35 0.4 -1.35 0.5 -1.35 0.5 -1.4 0.5 -1.4 0.55 -1.4 0.6 -1.4 0.6 -1.35 0.6 -1.35 0.55 -1.3 0.55 -1.3 0.55 -1.25 0.55 -1.25 0.55 -1.25 0.6 -1.25 0.6 -1.2 0.6 -1.2 0.6 -1.15 0.6 -1.15 0.6 -1.1 0.6 -1.1 0.55 -1.1 0.5 -1.05 0.5 -1.05 0.55 -1.0 0.5 -1.0 0.55 -1.0 0.55 -0.95 0.6 -1.0 0.6 -0.95 0.65 -0.95 0.65 -0.95 0.7 -0.95 0.75 -1.0 0.75 -1.0 0.75 -1.05 0.75 -1.05 0.75 -1.1 0.75 -1.15 0.75 -1.2 0.8 -1.25 0.8 -1.25 0.8 -1.3 0.8 -1.3 0.8 -1.35 0.85 -1.35 0.8 -1.4 0.8 -1.4 0.8 -1.45 0.75 -1.45 0.8 -1.5 0.8 -1.5 0.8 -1.55 0.75 -1.6 0.75 -1.6 0.75 -1.6 0.7 -1.6 0.65 -1.6 0.55 -1.6 0.5 -1.6 0.4 -1.55 0.4 -1.55 0.3 -1.5 0.3 -1.5 0.25 -1.45 0.2 -1.45 0.15 -1.4 0.15 -1.4 0.1 -1.4 0.1 -1.45 0.05 -1.45 0.05 -1.45 -0.05 -1.45 -0.05 -1.4 -0.1 -1.35 -0.1 -1.35 -0.1 -1.3 -0.1 -1.25 -0.1 -1.25 -0.1 -1.2 -0.15 -1.2 -0.15 M-1.05 0.1 L-1.0 0.1 -0.95 0.1 -0.95 0.15 -1.0 0.15 -1.0 0.15 Q-1.0 0.1 -1.05 0.1 L-1.05 0.15 -1.05 0.1" fill="#46403a" fill-rule="evenodd" stroke="none"/>
    <path d="M-1.35 -0.2 L-1.35 -0.15 -1.4 -0.15 -1.35 -0.2 -1.35 -0.2 -1.35 -0.2 M-1.4 -0.2 L-1.4 -0.2 -1.4 -0.15 -1.4 -0.1 -1.45 -0.05 -1.45 -0.05 -1.45 0.05 -1.5 0.05 -1.5 0.1 -1.5 0.15 -1.5 0.2 -1.55 0.2 -1.55 0.25 -1.55 0.3 -1.6 0.35 -1.65 0.4 -1.65 0.4 -1.6 0.3 -1.55 0.25 -1.55 0.2 -1.55 0.15 -1.55 0.1 -1.55 0.1 -1.45 -0.1 -1.4 -0.2" fill="#252525" fill-rule="evenodd" stroke="none"/>
    <path d="M-1.25 -0.2 L-1.2 -0.15 -1.2 -0.15 -1.25 -0.1 -1.25 -0.1 -1.3 -0.1 -1.35 -0.1 -1.35 -0.1 -1.4 -0.1 -1.4 -0.15 -1.35 -0.15 -1.35 -0.15 -1.35 -0.2 -1.3 -0.25 -1.3 -0.2 -1.25 -0.2 -1.25 -0.2 M-1.3 -0.25 L-1.3 -0.25" fill="#746a60" fill-rule="evenodd" stroke="none"/>
    <path d="M-0.35 -1.15 L-0.35 -1.15 -0.4 -1.15 -0.35 -1.15 -0.35 -1.2 -0.35 -1.15" fill="#434242" fill-rule="evenodd" stroke="none"/>
    <path d="M-0.4 -1.0 L-0.45 -1.0 -0.45 -0.95 -0.4 -0.9 -0.4 -0.85 -0.45 -0.9 -0.45 -0.9 -0.5 -0.95 -0.5 -0.95 -0.55 -0.95 -0.55 -1.0 -0.5 -1.0 Q-0.5 -1.05 -0.55 -1.05 L-0.5 -1.05 -0.5 -1.05 -0.5 -1.0 -0.45 -1.05 -0.45 -1.05 -0.4 -1.05 -0.4 -1.0" fill="#393938" fill-rule="evenodd" stroke="none"/>
    <path d="M-0.5 -0.2 L-0.45 -0.2 -0.5 -0.15 -0.5 -0.2 -0.5 -0.2 -0.5 -0.2 M-0.1 -0.2 L-0.1 -0.1 -0.1 -0.1 -0.05 -0.05 -0.1 -0.05 -0.05 0.0 -0.05 0.0 -0.05 0.0 -0.05 0.0 -0.1 0.0 -0.1 0.0 -0.15 -0.05 -0.2 -0.1 -0.2 -0.1 -0.15 -0.15 -0.15 -0.15 -0.15 -0.15 -0.2 -0.15 -0.15 -0.2 -0.15 -0.25 -0.15 -0.2 -0.1 -0.2" fill="#691c1c" fill-rule="evenodd" stroke="none"/>
    <path d="M-0.4 -0.35 L-0.4 -0.35 -0.4 -0.35 -0.35 -0.35 -0.4 -0.35 -0.4 -0.35" fill="#d4d6d7" fill-rule="evenodd" stroke="none"/>
    <path d="M-0.85 0.35 L-0.85 0.5 -0.85 0.45 -0.9 0.45 -0.9 0.35 -0.85 0.3 -0.85 0.35 M-0.85 0.75 L-0.85 0.75 -0.8 0.85 -0.95 0.85 -0.9 0.85 -0.9 0.8 -0.9 0.8 -0.85 0.8 -0.85 0.75 M-1.05 0.85 L-1.1 0.85 -1.1 0.85 -1.05 0.85 -1.05 0.85" fill="#767573" fill-rule="evenodd" stroke="none"/>
    <path d="M-1.25 0.3 L-1.3 0.3 Q-1.3 0.3 -1.25 0.3 L-1.2 0.3 -1.2 0.3 -1.15 0.35 -1.15 0.35 -1.2 0.4 -1.2 0.4 -1.25 0.4 -1.25 0.35 -1.3 0.35 -1.3 0.35 -1.25 0.3 -1.25 0.3 -1.2 0.3 -1.2 0.3 -1.2 0.3 -1.2 0.3 -1.15 0.3 -1.15 0.3 -1.2 0.3 -1.25 0.3 M-1.15 0.3 L-1.15 0.3" fill="#2b2a29" fill-rule="evenodd" stroke="none"/>
    <path d="M-1.25 0.3 L-1.25 0.3 -1.3 0.35 -1.3 0.35 -1.25 0.35 -1.25 0.4 -1.3 0.35 -1.3 0.3 -1.25 0.3 -1.2 0.3 -1.2 0.3 -1.15 0.3 -1.15 0.35 -1.15 0.35 -1.15 0.35 -1.2 0.3 -1.2 0.3 -1.2 0.3 -1.2 0.3 -1.25 0.3" fill="#6d6966" fill-rule="evenodd" stroke="none"/>
    <path d="M-1.55 0.1 L-1.55 0.15 -1.55 0.2 -1.55 0.25 -1.6 0.3 -1.65 0.4 -1.65 0.4 -1.65 0.45 -1.65 0.45 -1.65 0.45 -1.65 0.6 -1.7 0.65 -1.7 0.7 -1.7 0.7 -1.75 0.7 -1.7 0.55 -1.55 0.1" fill="#4a4a49" fill-rule="evenodd" stroke="none"/>
    <path d="M0.75 -1.35 L0.3 -1.35 0.1 -1.4 -0.3 -1.4 -0.3 -1.4 -0.3 -1.5 -0.35 -1.5 -0.35 -1.4 -0.35 -1.4 -0.4 -1.4 -0.4 -1.35 -0.4 -1.35 -0.45 -1.25 -0.55 -1.25 M-0.65 -1.1 L-0.7 -1.15 -0.75 -1.2 -0.85 -1.2 -1.0 -1.2 -1.0 -1.15 -0.8 -1.15 -0.7 -1.05 -0.85 -0.95 -0.9 -0.9 -1.15 -0.8 -1.15 -0.8 -1.15 -0.6 -1.25 -0.5 -1.25 -0.5 -1.35 -0.3 -1.4 -0.2 -1.45 -0.1 -1.55 0.1 -1.55 0.1 -1.7 0.55 -1.75 0.8 -1.75 0.85 -1.1 0.85 -1.05 0.85 -0.95 0.85 -0.8 0.85 -0.85 0.75 -0.85 0.75 -0.85 0.5 -0.85 0.35 -0.85 0.25 -0.85 0.15 -0.8 0.15 -0.75 0.1 -0.65 -0.05 -0.45 -0.1 -0.35 0.1 -0.25 0.15 0.1 0.1 Q0.25 0.0 0.3 -0.1 L0.4 -0.35 0.7 -0.35 0.7 -0.65 0.8 -0.7 0.75 -0.8 1.0 -0.8 1.55 -0.8 1.55 -0.8 1.7 -1.05 2.95 -1.05 3.0 -1.05 3.0 -1.1 3.0 -1.3 2.95 -1.3 2.95 -1.35 2.95 -1.4 2.95 -1.4 2.95 -1.5 2.85 -1.5 2.8 -1.5 2.75 -1.45 2.7 -1.45 2.7 -1.45 2.65 -1.45 2.6 -1.4 2.55 -1.4 2.45 -1.35 2.45 -1.35 2.4 -1.35 2.35 -1.35 2.35 -1.35 2.3 -1.35 2.25 -1.3 2.1 -1.3 0.95 -1.3 0.8 -1.3 0.75 -1.3 0.75 -1.35 M0.0 -0.4 L0.05 -0.4 0.1 -0.35 0.15 -0.35 0.2 -0.35 0.2 -0.3 0.2 -0.25 0.25 -0.2 0.25 -0.15 0.2 -0.05 0.1 0.05 0.05 0.05 -0.05 0.1 -0.15 0.1 -0.25 0.05 -0.3 0.05 -0.3 0.0 -0.35 -0.05 -0.4 -0.15 -0.35 -0.2 -0.35 -0.25 -0.3 -0.3 -0.25 -0.3 -0.25 -0.3 -0.25 -0.3 -0.2 -0.3 -0.2 -0.15 -0.2 -0.1 -0.2 -0.1 -0.15 -0.05 -0.1 0.0 -0.1 0.0 -0.05 0.0 -0.05 0.0 -0.05 0.0 0.0 0.05 0.0 0.0 0.0 -0.05 -0.05 -0.05 -0.1 -0.1 -0.1 -0.1 -0.1 -0.2 -0.1 -0.25 -0.05 -0.35 0.0 -0.4 0.0 -0.4 M-0.6 -1.25 L-0.6 -1.25 -0.65 -1.1 -0.65 -1.1 M-0.05 -0.35 L-0.05 -0.35 Z" fill="none" stroke="#000000" stroke-linecap="round" stroke-linejoin="round" stroke-opacity="0.4509804" stroke-width="0.15000000000000002"/>
  </g>
</svg>
