<?xml version="1.0" encoding="UTF-8" standalone="no"?>
<svg xmlns:xlink="http://www.w3.org/1999/xlink" height="3.3px" width="8.45px" xmlns="http://www.w3.org/2000/svg">
  <g transform="matrix(1.0, 0.0, 0.0, 1.0, 3.2, 1.7)">
    <path d="M-0.15 -1.2 L-0.05 -1.2 Q0.0 -1.2 0.0 -1.2 L0.0 -1.3 0.05 -1.3 0.1 -1.35 0.15 -1.35 0.1 -1.45 0.05 -1.45 0.0 -1.45 -0.05 -1.45 -0.05 -1.5 0.0 -1.55 -0.05 -1.55 -0.05 -1.6 0.0 -1.65 0.15 -1.6 0.25 -1.5 0.25 -1.35 0.3 -1.3 Q0.3 -1.3 0.25 -1.3 L0.25 -1.25 0.2 -1.25 0.2 -1.25 0.25 -1.2 0.25 -1.2 0.3 -1.2 0.3 -1.2 0.35 -1.2 0.35 -1.2 0.4 -1.15 0.4 -1.15 0.45 -1.1 0.45 -1.0 0.5 -1.0 0.5 -0.95 0.5 -0.95 0.5 -0.9 0.5 -0.9 0.5 -0.75 0.5 -0.65 0.55 -0.6 0.55 -0.75 0.55 -0.9 0.55 -1.0 0.55 -1.1 0.6 -1.0 0.6 -0.65 0.6 -0.6 0.6 -0.5 0.55 -0.5 0.5 -0.5 0.45 -0.5 0.45 -0.55 0.45 -0.55 0.45 -0.7 0.45 -0.8 0.4 -0.9 0.4 -1.05 Q0.3 -1.05 0.3 -1.0 L0.35 -1.0 0.25 -0.95 0.2 -0.9 0.15 -0.85 0.1 -0.75 0.05 -0.7 0.0 -0.7 -0.05 -0.7 -0.1 -0.75 -0.1 -0.95 -0.1 -1.05 -0.15 -1.1 -0.2 -1.15 -0.15 -1.15 -0.1 -1.15 -0.1 -1.15 -0.15 -1.2 M0.1 -1.05 L0.1 -1.05 0.0 -0.95 0.0 -0.95 0.0 -0.9 0.05 -0.9 0.1 -0.9 0.1 -0.95 0.1 -1.05" fill="#595b5e" fill-rule="evenodd" stroke="none"/>
    <path d="M0.3 -1.3 L0.35 -1.25 0.45 -1.2 0.55 -1.1 0.55 -1.1 0.55 -1.0 0.55 -0.9 0.55 -0.75 0.55 -0.6 0.5 -0.65 0.5 -0.75 0.5 -0.9 0.5 -0.9 0.5 -0.95 0.5 -0.95 0.5 -1.0 0.45 -1.0 0.45 -1.1 0.4 -1.15 0.4 -1.15 0.35 -1.2 0.35 -1.2 0.3 -1.2 0.3 -1.2 0.25 -1.2 0.25 -1.2 0.2 -1.25 0.2 -1.25 0.25 -1.25 0.25 -1.3 Q0.3 -1.3 0.3 -1.3 M-0.2 -1.15 L-0.2 -1.15 -0.25 -1.15 -0.25 -1.2 -0.25 -1.2 -0.15 -1.2 -0.1 -1.15 -0.1 -1.15 -0.15 -1.15 -0.2 -1.15 M0.1 -1.05 L0.1 -0.95 0.1 -0.9 0.05 -0.9 0.0 -0.9 0.0 -0.95 0.0 -0.95 0.1 -1.05 0.1 -1.05" fill="#a1a4a5" fill-rule="evenodd" stroke="none"/>
    <path d="M1.05 -0.65 L2.25 -0.85 2.25 -0.8 2.2 -0.75 2.2 -0.75 2.15 -0.7 2.2 -0.7 2.25 -0.7 2.25 -0.7 2.3 -0.7 2.4 -0.7 2.4 -0.7 2.45 -0.7 2.45 -0.7 2.5 -0.75 2.55 -0.75 2.55 -0.75 2.6 -0.8 2.6 -0.8 2.65 -0.8 2.7 -0.85 2.7 -0.8 2.75 -0.8 2.75 -0.8 2.8 -0.75 2.8 -0.75 2.75 -0.75 2.75 -0.75 2.7 -0.7 2.7 -0.65 2.75 -0.6 2.8 -0.65 2.8 -0.65 2.9 -0.65 2.9 -0.65 2.95 -0.65 3.0 -0.65 3.05 -0.65 3.1 -0.65 3.15 -0.7 3.15 -0.7 3.2 -0.7 3.2 -0.7 3.25 -0.7 3.25 -0.7 3.3 -0.7 3.3 -0.7 3.35 -0.75 3.35 -0.75 3.4 -0.75 3.35 -0.8 3.35 -0.85 3.35 -0.85 3.4 -0.9 3.4 -0.9 3.45 -0.9 3.45 -0.9 3.5 -0.9 3.5 -0.9 3.55 -0.85 3.55 -0.8 Q3.6 -0.75 3.6 -0.75 L3.65 -0.8 3.65 -0.75 3.7 -0.75 3.75 -0.75 3.75 -0.75 3.8 -0.75 3.85 -0.75 3.9 -0.8 3.9 -0.85 4.0 -0.85 4.05 -0.85 4.05 -0.9 4.1 -0.85 4.15 -0.85 4.15 -0.85 4.2 -0.9 4.2 -0.9 4.25 -0.9 4.25 -0.9 4.3 -0.95 4.35 -0.95 4.4 -0.95 4.45 -0.95 4.5 -0.9 4.55 -0.9 4.6 -0.9 4.65 -0.9 4.65 -0.95 4.7 -0.95 4.75 -0.9 4.8 -0.9 4.8 -0.9 4.85 -0.95 4.9 -0.95 4.9 -1.0 4.95 -1.05 4.95 -1.05 Q4.95 -1.05 5.0 -1.05 L5.05 -1.1 5.1 -1.1 5.1 -0.95 5.1 -0.95 5.05 -0.95 5.0 -0.9 5.0 -0.9 4.95 -0.9 4.9 -0.85 4.9 -0.85 4.85 -0.85 4.75 -0.85 4.75 -0.8 4.7 -0.8 4.65 -0.8 4.6 -0.8 4.55 -0.8 4.5 -0.8 4.4 -0.8 4.4 -0.8 4.3 -0.8 4.25 -0.8 4.2 -0.8 4.2 -0.8 4.15 -0.8 4.15 -0.8 4.1 -0.75 4.0 -0.75 4.0 -0.75 3.9 -0.7 3.85 -0.7 3.85 -0.7 3.75 -0.65 3.7 -0.65 3.65 -0.6 3.55 -0.6 3.5 -0.6 3.45 -0.6 3.4 -0.6 3.35 -0.6 3.3 -0.6 3.2 -0.55 3.15 -0.55 3.1 -0.55 3.1 -0.55 3.0 -0.55 2.95 -0.55 2.95 -0.55 2.9 -0.55 2.85 -0.55 2.8 -0.55 2.75 -0.55 2.7 -0.55 2.65 -0.55 2.65 -0.55 2.6 -0.5 2.55 -0.5 2.5 -0.5 2.5 -0.5 2.45 -0.45 2.45 -0.45 2.4 -0.45 2.35 -0.45 2.3 -0.45 2.3 -0.45 2.25 -0.45 2.25 -0.45 2.15 -0.45 2.1 -0.45 2.05 -0.4 2.0 -0.4 1.95 -0.4 1.95 -0.4 1.9 -0.35 1.85 -0.35 1.8 -0.35 1.75 -0.35 1.65 -0.35 1.6 -0.35 1.6 -0.35 1.55 -0.35 1.5 -0.35 1.45 -0.35 1.4 -0.3 1.4 -0.35 1.35 -0.35 1.3 -0.35 1.3 -0.35 1.45 -0.45 1.5 -0.4 1.55 -0.4 1.6 -0.45 1.65 -0.45 1.65 -0.45 1.7 -0.45 1.75 -0.45 1.8 -0.45 1.9 -0.45 1.95 -0.5 2.1 -0.5 2.15 -0.5 2.15 -0.55 2.1 -0.55 2.1 -0.55 2.05 -0.55 2.05 -0.55 2.0 -0.55 1.85 -0.55 1.8 -0.55 1.75 -0.55 1.65 -0.55 1.55 -0.55 1.5 -0.5 1.45 -0.5 1.4 -0.45 1.4 -0.45 1.3 -0.5 1.25 -0.45 1.2 -0.45 1.2 -0.4 1.15 -0.25 1.1 -0.3 1.05 -0.25 1.0 -0.25 0.95 -0.2 0.9 -0.2 0.9 -0.15 0.85 -0.15 0.75 -0.1 0.7 -0.1 0.6 -0.05 0.55 0.0 0.4 0.1 0.35 0.15 0.3 0.2 0.2 0.25 0.15 0.3 0.05 0.3 0.0 0.3 0.0 0.3 -0.05 0.25 -0.1 0.2 -0.05 0.2 0.0 0.2 0.0 0.15 0.0 0.15 0.1 0.15 0.15 0.15 0.2 0.1 0.25 0.05 0.3 0.0 0.35 -0.05 0.35 -0.05 0.4 -0.05 0.4 -0.1 0.4 -0.1 0.45 -0.1 0.45 -0.1 0.5 -0.1 0.5 -0.15 0.45 -0.15 0.4 -0.15 0.4 -0.15 0.4 -0.2 0.35 -0.2 0.35 -0.2 0.35 -0.25 0.4 -0.25 0.4 -0.3 0.4 -0.35 0.4 -0.45 0.35 -0.45 0.3 -0.45 0.3 -0.45 0.25 -0.5 0.25 -0.45 0.2 -0.45 0.2 -0.45 0.15 -0.45 0.15 -0.5 0.45 -0.55 0.45 -0.55 0.45 -0.5 0.5 -0.5 0.55 -0.5 0.55 -0.45 0.55 -0.4 0.6 -0.45 0.6 -0.45 0.65 -0.45 0.65 -0.5 0.65 -0.45 0.65 -0.45 0.7 -0.4 0.75 -0.4 0.75 -0.45 0.8 -0.45 0.85 -0.5 0.85 -0.5 0.9 -0.5 0.9 -0.45 0.95 -0.45 0.95 -0.5 1.0 -0.5 1.0 -0.45 1.0 -0.4 1.0 -0.4 1.05 -0.4 1.05 -0.4 1.1 -0.4 1.1 -0.45 Q1.15 -0.45 1.15 -0.6 L1.15 -0.6 Q1.1 -0.6 1.1 -0.6 L1.05 -0.65 M0.7 -0.2 L0.7 -0.2 0.7 -0.2 0.75 -0.2 0.75 -0.2 0.8 -0.2 0.85 -0.2 0.9 -0.25 0.8 -0.25 0.7 -0.2" fill="#524441" fill-rule="evenodd" stroke="none"/>
    <path d="M0.15 -0.45 L0.2 -0.45 0.2 -0.45 0.25 -0.45 0.25 -0.5 0.3 -0.45 0.3 -0.45 0.35 -0.45 0.4 -0.45 0.4 -0.35 0.4 -0.3 0.4 -0.25 0.35 -0.25 0.35 -0.2 0.35 -0.2 0.4 -0.2 0.4 -0.15 0.4 -0.15 0.45 -0.15 0.5 -0.15 0.5 -0.1 0.45 -0.1 0.45 -0.1 0.4 -0.1 0.4 -0.1 0.4 -0.05 0.35 -0.05 0.35 -0.1 0.35 -0.2 0.35 -0.25 0.3 -0.3 0.3 -0.3 0.2 -0.2 0.25 -0.15 0.25 -0.15 0.25 -0.1 Q0.2 -0.1 0.2 -0.1 L0.15 -0.2 0.15 -0.45 0.15 -0.45" fill="#ae9d93" fill-rule="evenodd" stroke="none"/>
    <path d="M-0.3 -0.6 L-0.25 -0.6 -0.3 -0.55 -0.3 -0.55 -0.3 -0.6 M-0.2 -0.6 L-0.2 -0.55 -0.1 -0.6 0.0 -0.65 0.05 -0.65 0.1 -0.6 0.15 -0.5 0.15 -0.5 0.15 -0.45 0.15 -0.45 0.1 -0.4 0.1 -0.35 0.05 -0.3 0.05 -0.25 0.0 -0.25 -0.05 -0.3 0.0 -0.3 0.05 -0.35 0.05 -0.45 0.1 -0.45 0.1 -0.5 Q0.05 -0.6 0.0 -0.6 L0.0 -0.55 -0.05 -0.5 -0.1 -0.5 -0.1 -0.5 -0.15 -0.5 -0.15 -0.5 -0.2 -0.55 -0.2 -0.6" fill="#ada4a1" fill-rule="evenodd" stroke="none"/>
    <path d="M-0.35 -0.55 L-0.35 -0.6 -0.3 -0.6 -0.3 -0.6 -0.3 -0.55 -0.3 -0.55 -0.25 -0.6 -0.25 -0.6 -0.2 -0.6 -0.2 -0.55 -0.15 -0.5 -0.15 -0.5 -0.1 -0.5 -0.1 -0.5 -0.05 -0.5 0.0 -0.55 0.0 -0.6 Q0.05 -0.6 0.1 -0.5 L0.1 -0.45 0.05 -0.45 0.05 -0.35 0.0 -0.3 -0.05 -0.3 -0.1 -0.3 -0.15 -0.35 -0.15 -0.4 Q-0.15 -0.45 -0.25 -0.5 L-0.35 -0.5 -0.35 -0.55 M0.15 -0.45 L0.15 -0.2 0.2 -0.1 0.2 -0.05 0.15 -0.1 0.1 -0.2 0.05 -0.25 0.05 -0.3 0.1 -0.35 0.1 -0.4 0.15 -0.45" fill="#6f6a6a" fill-rule="evenodd" stroke="none"/>
    <path d="M-0.35 -0.45 L-0.35 -0.55 -0.35 -0.5 -0.25 -0.5 Q-0.15 -0.45 -0.15 -0.4 L-0.15 -0.35 -0.1 -0.3 -0.05 -0.3 0.0 -0.25 0.05 -0.25 0.1 -0.2 0.15 -0.1 0.2 -0.05 0.2 -0.1 Q0.2 -0.1 0.25 -0.1 L0.25 -0.15 0.25 -0.15 0.2 -0.2 0.3 -0.3 0.3 -0.3 0.35 -0.25 0.35 -0.2 0.35 -0.1 0.35 -0.05 0.35 -0.05 0.3 0.0 0.25 0.05 0.2 0.1 0.15 0.15 0.1 0.15 0.0 0.15 0.0 0.15 -0.05 0.15 -0.15 0.15 -0.2 0.1 -0.2 0.1 -0.3 0.0 -0.35 -0.05 -0.35 -0.05 -0.3 -0.05 -0.25 -0.05 -0.25 -0.1 -0.2 -0.05 -0.15 0.0 -0.15 0.0 -0.1 0.0 0.0 0.0 0.05 0.0 0.1 0.0 0.1 -0.05 0.05 -0.1 -0.05 -0.1 -0.1 -0.15 -0.1 -0.15 -0.15 -0.2 -0.2 -0.3 -0.25 -0.35 -0.25 -0.35 -0.3 -0.35 Q-0.3 -0.35 -0.35 -0.4 L-0.35 -0.45" fill="#261a14" fill-rule="evenodd" stroke="none"/>
    <path d="M0.0 0.15 L0.0 0.2 -0.05 0.2 -0.1 0.2 -0.15 0.2 -0.2 0.2 -0.25 0.15 -0.25 0.15 -0.3 0.15 -0.3 0.15 -0.3 0.1 -0.35 0.05 -0.35 0.05 -0.4 0.05 -0.45 0.05 -0.45 0.05 -0.5 0.0 -0.55 0.0 -0.55 0.0 -0.55 -0.05 -0.5 -0.05 -0.45 0.0 -0.45 -0.05 -0.45 -0.1 -0.45 -0.15 -0.4 -0.2 -0.4 -0.25 -0.35 -0.25 -0.35 -0.25 -0.3 -0.25 -0.3 -0.25 -0.3 -0.3 -0.3 -0.35 -0.25 -0.35 -0.25 -0.35 -0.2 -0.3 -0.15 -0.2 -0.1 -0.15 -0.1 -0.15 -0.05 -0.1 0.05 -0.1 0.1 -0.05 0.1 0.0 0.05 0.0 0.0 0.0 -0.1 0.0 -0.15 0.0 -0.15 0.0 -0.2 -0.05 -0.25 -0.1 -0.3 -0.15 -0.35 -0.25 -0.35 -0.2 Q-0.35 -0.15 -0.35 -0.1 L-0.4 -0.1 -0.4 -0.05 -0.35 -0.05 -0.35 -0.05 -0.3 0.0 -0.2 0.1 -0.2 0.1 -0.15 0.15 -0.05 0.15 0.0 0.15" fill="#dbcac2" fill-rule="evenodd" stroke="none"/>
    <path d="M0.6 -0.6 L1.05 -0.65 1.1 -0.6 Q1.1 -0.6 1.15 -0.6 L1.15 -0.6 Q1.15 -0.45 1.1 -0.45 L1.1 -0.4 1.05 -0.4 1.05 -0.4 1.0 -0.4 1.0 -0.4 1.0 -0.45 1.0 -0.5 0.95 -0.5 0.95 -0.45 0.9 -0.45 0.9 -0.5 0.85 -0.5 0.85 -0.5 0.8 -0.45 0.75 -0.45 0.75 -0.4 0.7 -0.4 0.65 -0.45 0.65 -0.45 0.65 -0.5 0.65 -0.45 0.6 -0.45 0.6 -0.45 0.55 -0.4 0.55 -0.45 0.55 -0.5 0.6 -0.5 0.6 -0.6 M0.7 -0.2 L0.8 -0.25 0.9 -0.25 0.85 -0.2 0.8 -0.2 0.75 -0.2 0.75 -0.2 0.7 -0.2 0.7 -0.2 0.7 -0.2" fill="#b7a8a5" fill-rule="evenodd" stroke="none"/>
    <path d="M5.0 -0.9 L5.0 -0.85 4.95 -0.8 4.8 -0.75 4.75 -0.75 4.75 -0.75 4.7 -0.7 4.5 -0.7 4.35 -0.65 4.3 -0.65 4.25 -0.7 4.2 -0.7 4.15 -0.7 4.05 -0.7 4.05 -0.65 2.6 -0.4 2.65 -0.4 2.75 -0.4 2.85 -0.4 2.9 -0.4 2.95 -0.4 3.0 -0.4 2.95 -0.4 2.9 -0.4 2.8 -0.35 2.7 -0.3 2.65 -0.3 2.6 -0.3 2.55 -0.25 1.1 0.0 Q0.85 0.05 0.65 0.15 L0.55 0.25 0.25 0.55 Q0.05 0.65 -0.15 0.6 L-0.2 0.65 -0.2 0.75 -0.25 0.8 -0.3 0.85 -0.3 0.85 -0.35 0.85 -0.45 0.9 -0.5 0.9 -0.55 0.95 -0.65 0.95 -0.7 0.95 -0.7 0.95 -0.75 0.9 -0.85 0.9 -0.85 0.9 -0.9 0.9 -0.95 0.85 -1.0 0.8 -1.0 0.8 -1.05 0.75 -1.05 0.75 -1.1 0.7 -1.1 0.65 -1.1 0.65 -1.15 0.65 -1.15 0.6 -1.25 0.65 -1.45 0.7 Q-1.7 0.8 -1.8 0.95 L-1.95 1.15 -2.0 1.25 -2.0 1.4 -2.05 1.45 -2.15 1.5 Q-2.35 1.5 -2.6 1.4 -2.95 1.25 -3.1 0.95 L-3.1 0.8 Q-3.15 0.7 -3.05 0.65 L-2.95 0.65 -2.85 0.65 -2.8 0.6 -2.8 0.75 -2.8 0.75 -2.8 0.8 -2.75 0.8 -2.75 0.8 -2.75 0.85 -2.75 0.95 -2.75 0.95 -2.7 1.0 -2.7 1.0 -2.7 1.05 -2.6 1.15 -2.45 1.2 -2.4 1.25 -2.35 1.3 -2.3 1.3 -2.25 1.3 -2.25 1.25 -2.2 1.25 -2.2 1.25 -2.2 1.25 -2.15 1.2 -2.15 1.2 -2.1 1.15 -2.1 1.1 -2.1 1.0 -2.05 0.95 -2.05 0.9 -2.0 0.85 -1.95 0.75 -1.9 0.7 -1.85 0.65 -1.8 0.6 -1.8 0.55 -1.7 0.5 -1.65 0.45 -1.6 0.4 -1.55 0.4 -1.45 0.3 -1.45 0.3 -1.2 0.2 -1.15 0.2 -1.05 0.2 -0.9 0.2 -0.8 0.15 -0.7 0.15 -0.65 0.15 -0.55 0.15 -0.5 0.15 -0.45 0.2 -0.35 0.2 -0.3 0.2 Q-0.25 0.25 -0.2 0.25 L-0.1 0.3 -0.05 0.3 -0.05 0.3 0.0 0.3 0.05 0.3 0.15 0.3 0.2 0.25 0.3 0.2 0.35 0.15 0.4 0.1 0.55 0.0 0.6 -0.05 0.7 -0.1 0.75 -0.1 0.85 -0.15 0.9 -0.15 1.0 -0.2 1.0 -0.2 1.05 -0.2 1.1 -0.2 1.1 -0.2 1.15 -0.2 1.15 -0.25 1.2 -0.25 1.2 -0.25 Q1.25 -0.25 1.25 -0.3 L1.3 -0.35 1.35 -0.35 1.4 -0.35 1.4 -0.3 1.45 -0.35 1.5 -0.35 1.55 -0.35 1.6 -0.35 1.6 -0.35 1.65 -0.35 1.75 -0.35 1.8 -0.35 1.85 -0.35 1.9 -0.35 1.95 -0.4 1.95 -0.4 2.0 -0.4 2.05 -0.4 2.1 -0.45 2.15 -0.45 2.25 -0.45 2.25 -0.45 2.3 -0.45 2.3 -0.45 2.35 -0.45 2.4 -0.45 2.45 -0.45 2.45 -0.45 2.5 -0.5 2.5 -0.5 2.55 -0.5 2.6 -0.5 2.65 -0.55 2.65 -0.55 2.7 -0.55 2.75 -0.55 2.8 -0.55 2.85 -0.55 2.9 -0.55 2.95 -0.55 2.95 -0.55 3.0 -0.55 3.1 -0.55 3.1 -0.55 3.15 -0.55 3.2 -0.55 3.3 -0.6 3.35 -0.6 3.4 -0.6 3.45 -0.6 3.5 -0.6 3.55 -0.6 3.65 -0.6 3.7 -0.65 3.75 -0.65 3.85 -0.7 3.85 -0.7 3.9 -0.7 4.0 -0.75 4.0 -0.75 4.1 -0.75 4.15 -0.8 4.15 -0.8 4.2 -0.8 4.2 -0.8 4.25 -0.8 4.3 -0.8 4.4 -0.8 4.4 -0.8 4.5 -0.8 4.55 -0.8 4.6 -0.8 4.65 -0.8 4.7 -0.8 4.75 -0.8 4.75 -0.85 4.85 -0.85 4.9 -0.85 4.9 -0.85 4.95 -0.9 5.0 -0.9 M1.6 -0.2 L1.65 -0.2 1.8 -0.2 1.95 -0.25 2.0 -0.25 2.0 -0.25 2.15 -0.25 2.25 -0.3 2.35 -0.3 2.45 -0.35 2.55 -0.4 1.6 -0.25 1.6 -0.2 M4.3 -0.65 L4.3 -0.65 M-1.0 0.5 L-1.0 0.55 -1.05 0.6 -1.05 0.65 -1.0 0.65 -1.0 0.7 -0.9 0.8 -0.8 0.8 -0.7 0.85 -0.65 0.8 -0.6 0.8 -0.55 0.8 -0.5 0.8 -0.45 0.8 -0.4 0.75 -0.35 0.75 -0.3 0.7 -0.25 0.65 -0.25 0.5 -0.25 0.5 -0.15 0.5 -0.1 0.5 -0.05 0.5 -0.1 0.5 -0.3 0.4 -0.3 0.4 -0.4 0.35 -0.45 0.35 -0.55 0.35 -0.55 0.35 -0.55 0.4 -0.55 0.4 -0.6 0.4 -0.65 0.4 -0.7 0.4 -0.75 0.4 -0.75 0.4 -0.8 0.4 -0.85 0.4 -0.85 0.4 -0.85 0.4 -0.9 0.4 -0.9 0.4 -0.95 0.4 -1.0 0.45 -1.0 0.5 M-0.8 0.4 L-0.8 0.4 M-1.15 0.45 L-1.15 0.45 -1.2 0.45 -1.35 0.5 -1.4 0.5 -1.45 0.55 -1.5 0.6 -1.6 0.65 -1.7 0.75 -1.75 0.75 -1.8 0.75 -1.8 0.8 -1.85 0.85 -1.85 0.9 -1.8 0.85 -1.75 0.8 -1.7 0.75 -1.65 0.75 -1.6 0.7 -1.6 0.7 -1.5 0.6 -1.45 0.6 -1.4 0.6 -1.4 0.55 -1.35 0.5 -1.3 0.55 -1.2 0.5 -1.2 0.5 -1.2 0.5 Q-1.15 0.5 -1.15 0.55 L-1.1 0.55 -1.1 0.5 -1.1 0.45 -1.15 0.45 -1.15 0.45" fill="#1f110e" fill-rule="evenodd" stroke="none"/>
    <path d="M0.9 -0.15 L0.9 -0.2 0.95 -0.2 1.0 -0.25 1.05 -0.25 1.1 -0.3 1.15 -0.25 1.2 -0.4 1.2 -0.45 1.25 -0.45 1.3 -0.5 1.4 -0.45 1.4 -0.45 1.45 -0.5 1.5 -0.5 1.55 -0.55 1.65 -0.55 1.75 -0.55 1.8 -0.55 1.85 -0.55 2.0 -0.55 2.05 -0.55 2.05 -0.55 2.1 -0.55 2.1 -0.55 2.15 -0.55 2.15 -0.5 2.1 -0.5 1.95 -0.5 1.9 -0.45 1.8 -0.45 1.75 -0.45 1.7 -0.45 1.65 -0.45 1.65 -0.45 1.6 -0.45 1.55 -0.4 1.5 -0.4 1.45 -0.45 1.3 -0.35 1.3 -0.35 1.25 -0.3 Q1.25 -0.25 1.2 -0.25 L1.2 -0.25 1.15 -0.25 1.15 -0.2 1.1 -0.2 1.1 -0.2 1.05 -0.2 1.0 -0.2 1.0 -0.2 0.9 -0.15" fill="#836764" fill-rule="evenodd" stroke="none"/>
    <path d="M1.6 -0.2 L1.6 -0.25 2.55 -0.4 2.45 -0.35 2.35 -0.3 2.25 -0.3 2.15 -0.25 2.0 -0.25 2.0 -0.25 1.95 -0.25 1.8 -0.2 1.65 -0.2 1.6 -0.2" fill="#908f8d" fill-rule="evenodd" stroke="none"/>
    <path d="M2.25 -0.85 L3.65 -1.05 3.7 -1.0 3.7 -1.0 3.75 -1.0 3.85 -1.05 3.85 -1.1 4.4 -1.2 4.4 -1.15 4.45 -1.15 4.45 -1.15 4.5 -1.15 4.6 -1.2 4.65 -1.2 4.7 -1.2 4.7 -1.2 5.05 -1.3 5.05 -1.2 5.0 -1.2 5.0 -1.2 4.95 -1.2 4.9 -1.15 4.9 -1.1 4.9 -1.05 4.95 -1.05 4.9 -1.0 4.9 -0.95 4.85 -0.95 4.8 -0.9 4.8 -0.9 4.75 -0.9 4.7 -0.95 4.65 -0.95 4.65 -0.9 4.6 -0.9 4.55 -0.9 4.5 -0.9 4.45 -0.95 4.4 -0.95 4.35 -0.95 4.3 -0.95 4.25 -0.9 4.25 -0.9 4.2 -0.9 4.2 -0.9 4.15 -0.85 4.15 -0.85 4.1 -0.85 4.05 -0.9 4.05 -0.85 4.0 -0.85 3.9 -0.85 3.9 -0.8 3.85 -0.75 3.8 -0.75 3.75 -0.75 3.75 -0.75 3.7 -0.75 3.65 -0.75 3.65 -0.8 3.6 -0.75 Q3.6 -0.75 3.55 -0.8 L3.55 -0.85 3.5 -0.9 3.5 -0.9 3.45 -0.9 3.45 -0.9 3.4 -0.9 3.4 -0.9 3.35 -0.85 3.35 -0.85 3.35 -0.8 3.4 -0.75 3.35 -0.75 3.35 -0.75 3.3 -0.7 3.3 -0.7 3.25 -0.7 3.25 -0.7 3.2 -0.7 3.2 -0.7 3.15 -0.7 3.15 -0.7 3.1 -0.65 3.05 -0.65 3.0 -0.65 2.95 -0.65 2.9 -0.65 2.9 -0.65 2.8 -0.65 2.8 -0.65 2.75 -0.6 2.7 -0.65 2.7 -0.7 2.75 -0.75 2.75 -0.75 2.8 -0.75 2.8 -0.75 2.75 -0.8 2.75 -0.8 2.7 -0.8 2.7 -0.85 2.65 -0.8 2.6 -0.8 2.6 -0.8 2.55 -0.75 2.55 -0.75 2.5 -0.75 2.45 -0.7 2.45 -0.7 2.4 -0.7 2.4 -0.7 2.3 -0.7 2.25 -0.7 2.25 -0.7 2.2 -0.7 2.15 -0.7 2.2 -0.75 2.2 -0.75 2.25 -0.8 2.25 -0.85" fill="#5c4a48" fill-rule="evenodd" stroke="none"/>
    <path d="M2.95 -0.4 L2.9 -0.4 2.85 -0.4 2.75 -0.4 2.65 -0.4 2.6 -0.4 4.05 -0.65 4.0 -0.6 3.8 -0.55 3.55 -0.5 3.4 -0.5 3.35 -0.45 3.3 -0.45 3.1 -0.4 3.0 -0.4 2.95 -0.4 M4.0 -0.6 L4.0 -0.6" fill="#afadae" fill-rule="evenodd" stroke="none"/>
    <path d="M4.0 -0.55 L2.55 -0.25 2.6 -0.3 2.65 -0.3 2.7 -0.3 2.8 -0.35 2.9 -0.4 2.95 -0.4 3.0 -0.4 2.95 -0.4 3.0 -0.4 3.1 -0.4 3.3 -0.45 3.35 -0.45 3.4 -0.5 3.55 -0.5 3.8 -0.55 4.0 -0.6 4.0 -0.6 4.0 -0.55" fill="#888687" fill-rule="evenodd" stroke="none"/>
    <path d="M3.65 -1.05 L3.85 -1.1 3.85 -1.05 3.75 -1.0 3.7 -1.0 3.7 -1.0 3.65 -1.05 M4.4 -1.2 L4.7 -1.2 4.7 -1.2 4.65 -1.2 4.6 -1.2 4.5 -1.15 4.45 -1.15 4.45 -1.15 4.4 -1.15 4.4 -1.2 M4.95 -1.2 L4.95 -1.15 5.0 -1.1 5.05 -1.15 5.1 -1.15 5.1 -1.1 5.05 -1.1 5.0 -1.05 Q4.95 -1.05 4.95 -1.05 L4.95 -1.05 4.9 -1.05 4.9 -1.1 4.9 -1.15 4.95 -1.2" fill="#7c7471" fill-rule="evenodd" stroke="none"/>
    <path d="M4.0 -0.6 L4.0 -0.6 4.0 -0.6 4.0 -0.6" fill="#6f6e6c" fill-rule="evenodd" stroke="none"/>
    <path d="M4.3 -0.6 L4.3 -0.6 4.25 -0.6 4.25 -0.6 4.2 -0.55 4.15 -0.55 4.1 -0.55 4.05 -0.5 4.05 -0.55 4.0 -0.55 4.0 -0.6 4.05 -0.6 4.05 -0.65 4.1 -0.6 4.1 -0.6 4.15 -0.6 4.25 -0.6 4.25 -0.65 4.3 -0.65 4.3 -0.65 4.3 -0.65 4.3 -0.6 M4.0 -0.6 L4.0 -0.6" fill="#6d6966" fill-rule="evenodd" stroke="none"/>
    <path d="M4.05 -0.65 L4.05 -0.7 4.15 -0.7 4.2 -0.7 4.25 -0.7 4.3 -0.65 4.25 -0.65 4.25 -0.6 4.15 -0.6 4.1 -0.6 4.1 -0.6 4.05 -0.65 4.05 -0.6 4.0 -0.6 4.05 -0.65" fill="#b6b7b9" fill-rule="evenodd" stroke="none"/>
    <path d="M5.0 -0.85 L5.05 -0.85 5.1 -0.85 5.1 -0.85 5.15 -0.85 5.15 -0.8 5.1 -0.8 5.05 -0.8 5.0 -0.8 4.95 -0.75 4.9 -0.75 4.85 -0.75 4.75 -0.7 4.7 -0.7 4.55 -0.7 4.3 -0.65 4.3 -0.65 4.35 -0.65 4.5 -0.7 4.7 -0.7 4.75 -0.75 4.75 -0.75 4.8 -0.75 4.95 -0.8 5.0 -0.85" fill="#dfe1e4" fill-rule="evenodd" stroke="none"/>
    <path d="M4.95 -0.7 L4.9 -0.7 4.85 -0.7 4.75 -0.65 4.7 -0.65 4.6 -0.65 4.45 -0.6 4.3 -0.6 4.3 -0.65 4.55 -0.7 4.7 -0.7 4.75 -0.7 4.85 -0.75 4.9 -0.75 4.95 -0.7" fill="#686563" fill-rule="evenodd" stroke="none"/>
    <path d="M5.15 -0.8 L5.15 -0.7 5.1 -0.7 5.05 -0.7 4.95 -0.7 4.9 -0.75 4.95 -0.75 5.0 -0.8 5.05 -0.8 5.1 -0.8 5.15 -0.8" fill="#57524f" fill-rule="evenodd" stroke="none"/>
    <path d="M-0.1 0.2 L-0.05 0.25 0.0 0.3 0.0 0.3 -0.05 0.3 -0.05 0.3 -0.1 0.3 -0.2 0.25 Q-0.25 0.25 -0.3 0.2 L-0.35 0.2 -0.45 0.2 -0.5 0.15 -0.55 0.15 -0.65 0.15 -0.7 0.15 -0.8 0.15 -0.9 0.2 -1.05 0.2 -1.15 0.2 -1.2 0.2 -1.45 0.3 -1.45 0.3 -1.5 0.3 -1.5 0.3 -1.55 0.3 -1.6 0.3 -1.65 0.35 -1.7 0.35 -1.75 0.4 -1.8 0.5 -1.85 0.55 -1.95 0.65 -2.0 0.7 -2.05 0.75 -2.15 0.85 -2.2 0.9 -2.2 0.75 -2.2 0.65 -2.15 0.5 -2.1 0.45 -2.05 0.45 -2.05 0.4 -1.95 0.35 -1.95 0.35 -1.85 0.25 -1.75 0.2 Q-1.75 0.2 -1.7 0.2 L-1.65 0.25 -1.6 0.2 -1.55 0.2 -1.4 0.2 -1.35 0.2 -1.35 0.2 -1.3 0.2 -1.2 0.2 -1.15 0.15 -1.05 0.15 -0.95 0.1 -0.9 0.1 -0.85 0.1 -0.8 0.1 -0.7 0.1 -0.6 0.1 -0.5 0.1 -0.45 0.1 -0.3 0.15 -0.3 0.15 -0.3 0.15 -0.25 0.15 -0.25 0.15 -0.2 0.2 -0.15 0.2 -0.1 0.2" fill="#927975" fill-rule="evenodd" stroke="none"/>
    <path d="M-1.6 -0.05 L-1.55 -0.05 -1.25 -0.15 -0.85 -0.3 -0.5 -0.4 -0.5 -0.4 -0.5 -0.35 -0.55 -0.35 -0.55 -0.35 -0.6 -0.3 -0.65 -0.3 -0.65 -0.3 -0.7 -0.3 -0.75 -0.3 Q-0.75 -0.3 -0.8 -0.3 L-0.85 -0.25 -0.85 -0.25 -0.9 -0.25 -0.9 -0.2 -0.95 -0.2 -0.95 -0.2 -1.0 -0.2 -1.05 -0.15 -1.05 -0.15 -1.1 -0.15 -1.15 -0.1 -1.2 -0.1 -1.3 -0.05 -1.35 -0.05 -1.5 0.05 -1.55 0.1 -1.6 0.1 -1.65 0.1 -1.65 0.15 Q-1.6 0.2 -1.6 0.2 L-1.55 0.15 -1.55 0.15 -1.5 0.15 -1.35 0.1 -1.3 0.1 -1.2 0.1 -1.15 0.1 -1.15 0.1 -1.1 0.1 -0.95 0.05 -0.9 0.05 -0.85 0.05 -0.7 0.0 -0.6 0.0 -0.55 0.0 -0.55 0.0 -0.5 0.0 -0.45 0.05 -0.45 0.05 -0.4 0.05 -0.35 0.05 -0.35 0.05 -0.3 0.1 -0.3 0.15 -0.3 0.15 -0.45 0.1 -0.5 0.1 -0.6 0.1 -0.7 0.1 -0.8 0.1 -0.85 0.1 -0.9 0.1 -0.95 0.1 -1.05 0.15 -1.15 0.15 -1.2 0.2 -1.3 0.2 -1.35 0.2 -1.35 0.2 -1.4 0.2 -1.55 0.2 -1.6 0.2 -1.65 0.25 -1.7 0.2 Q-1.75 0.2 -1.75 0.2 L-1.85 0.25 -1.95 0.35 -1.95 0.35 -2.05 0.4 -2.05 0.45 -2.1 0.45 -2.15 0.5 -2.2 0.65 -2.2 0.75 -2.2 0.9 -2.15 0.85 -2.05 0.75 -2.0 0.7 -1.95 0.65 -1.85 0.55 -1.8 0.5 -1.75 0.4 -1.7 0.35 -1.65 0.35 -1.6 0.3 -1.55 0.3 -1.5 0.3 -1.5 0.3 -1.45 0.3 -1.55 0.4 -1.6 0.4 -1.65 0.45 -1.7 0.5 -1.8 0.55 -1.8 0.6 -1.85 0.65 -1.9 0.7 -1.95 0.75 -2.0 0.85 -2.05 0.9 -2.05 0.95 -2.1 1.0 -2.1 1.1 -2.1 1.15 -2.15 1.2 -2.15 1.2 -2.2 1.25 -2.2 1.25 -2.2 1.25 -2.25 1.25 -2.25 1.3 -2.3 1.3 -2.35 1.3 -2.4 1.25 -2.45 1.2 -2.6 1.15 -2.7 1.05 -2.7 1.0 -2.65 1.0 -2.6 1.05 -2.55 1.1 -2.45 1.15 -2.4 1.15 -2.35 1.2 -2.35 1.15 -2.25 1.15 -2.3 1.1 -2.35 1.05 -2.4 1.0 -2.45 1.0 -2.5 0.95 -2.5 0.95 -2.4 0.9 -2.35 0.85 -2.35 0.75 -2.3 0.75 -2.3 0.7 -2.25 0.6 -2.2 0.5 -2.2 0.4 -2.1 0.35 -2.0 0.35 -2.0 0.3 -1.95 0.25 -1.9 0.25 -1.85 0.2 -1.8 0.15 -1.75 0.1 -1.65 0.1 -1.6 0.05 -1.6 -0.05" fill="#634a43" fill-rule="evenodd" stroke="none"/>
    <path d="M-1.15 0.1 L-1.15 0.1 -1.2 0.05 -1.2 0.0 -1.25 -0.05 -1.3 -0.05 -1.2 -0.1 -1.15 -0.1 -1.1 -0.15 -1.05 -0.15 -1.05 -0.15 -1.0 -0.1 -0.95 -0.1 -0.95 -0.1 -0.95 0.0 -0.95 0.0 -0.9 0.05 -0.9 0.05 -0.95 0.05 -1.1 0.1 -1.15 0.1 -1.15 0.1" fill="#a38e8d" fill-rule="evenodd" stroke="none"/>
    <path d="M-0.5 -0.4 L-0.45 -0.4 -0.45 -0.4 -0.4 -0.4 -0.35 -0.45 -0.35 -0.4 Q-0.3 -0.35 -0.3 -0.35 L-0.25 -0.35 -0.25 -0.35 -0.25 -0.35 -0.3 -0.35 -0.3 -0.3 -0.3 -0.25 -0.3 -0.25 -0.35 -0.25 -0.35 -0.25 -0.4 -0.25 -0.4 -0.2 -0.45 -0.15 -0.45 -0.1 -0.45 -0.05 -0.45 0.0 -0.5 -0.05 -0.55 -0.05 -0.55 0.0 -0.6 0.0 -0.7 0.0 -0.85 0.05 -0.9 0.05 -0.9 0.05 -0.95 0.0 -0.95 0.0 -0.95 -0.1 -0.95 -0.1 -1.0 -0.1 -1.05 -0.15 -1.05 -0.15 -1.05 -0.15 -1.0 -0.2 -0.95 -0.2 -0.95 -0.2 -0.9 -0.2 -0.9 -0.25 -0.85 -0.25 -0.85 -0.25 -0.8 -0.3 Q-0.75 -0.3 -0.75 -0.3 L-0.7 -0.3 -0.65 -0.3 -0.65 -0.3 -0.6 -0.3 -0.55 -0.35 -0.55 -0.35 -0.5 -0.35 -0.5 -0.4" fill="#a5928c" fill-rule="evenodd" stroke="none"/>
    <path d="M-1.3 -0.05 L-1.25 -0.05 -1.2 0.0 -1.2 0.05 -1.15 0.1 -1.15 0.1 -1.2 0.1 -1.3 0.1 -1.35 0.1 -1.5 0.15 -1.55 0.15 -1.55 0.1 -1.5 0.05 -1.35 -0.05 -1.3 -0.05" fill="#b8a7a0" fill-rule="evenodd" stroke="none"/>
    <path d="M-0.35 -0.05 L-0.4 -0.05 -0.4 -0.1 -0.35 -0.1 Q-0.35 -0.15 -0.35 -0.2 L-0.35 -0.25 -0.3 -0.15 -0.25 -0.1 -0.25 -0.05 -0.3 -0.05 -0.35 -0.05" fill="#4b3e38" fill-rule="evenodd" stroke="none"/>
    <path d="M-0.55 0.4 L-0.55 0.35 -0.55 0.35 -0.45 0.35 -0.4 0.35 -0.3 0.4 -0.3 0.4 -0.1 0.5 -0.05 0.5 -0.1 0.5 -0.15 0.5 -0.25 0.5 -0.25 0.5 -0.25 0.65 -0.3 0.7 -0.35 0.75 -0.4 0.75 -0.45 0.8 -0.5 0.8 -0.55 0.8 -0.6 0.8 -0.65 0.8 -0.7 0.85 -0.8 0.8 -0.9 0.8 -1.0 0.7 -1.0 0.65 -1.05 0.65 -1.05 0.6 -1.0 0.55 -1.0 0.5 -1.0 0.5 -1.0 0.6 -0.95 0.65 -0.9 0.7 -0.8 0.75 -0.75 0.75 -0.7 0.75 -0.55 0.75 -0.5 0.75 -0.45 0.7 -0.4 0.65 Q-0.3 0.6 -0.3 0.5 -0.3 0.5 -0.35 0.45 L-0.45 0.45 -0.5 0.4 -0.5 0.4 -0.55 0.4" fill="#7c7873" fill-rule="evenodd" stroke="none"/>
    <path d="M-0.85 0.4 L-0.85 0.4 -0.8 0.4 -0.8 0.4 -0.75 0.5 -0.75 0.55 -0.7 0.6 -0.65 0.65 Q-0.65 0.7 -0.7 0.7 L-0.75 0.7 -0.75 0.65 -0.75 0.65 -0.7 0.65 -0.8 0.55 -0.8 0.5 -0.85 0.4 -0.85 0.4" fill="#5c5c5d" fill-rule="evenodd" stroke="none"/>
    <path d="M-0.9 0.4 L-0.85 0.4 -0.85 0.4 -0.85 0.4 -0.8 0.5 -0.8 0.55 -0.7 0.65 -0.75 0.65 -0.75 0.65 -0.75 0.65 -0.8 0.6 -0.85 0.5 -0.85 0.45 -0.9 0.4" fill="#e9ebeb" fill-rule="evenodd" stroke="none"/>
    <path d="M-1.2 0.5 L-1.2 0.5 -1.3 0.55 -1.35 0.5 -1.4 0.55 -1.4 0.6 -1.45 0.6 -1.5 0.6 -1.6 0.7 -1.6 0.7 -1.65 0.75 -1.7 0.75 -1.75 0.8 -1.8 0.85 -1.85 0.9 -1.85 0.85 -1.8 0.8 -1.8 0.75 -1.75 0.75 -1.7 0.75 -1.6 0.65 -1.5 0.6 -1.45 0.55 -1.4 0.5 -1.35 0.5 -1.2 0.45 -1.15 0.45 -1.15 0.45 -1.15 0.5 -1.2 0.5 -1.2 0.5" fill="#9e8e85" fill-rule="evenodd" stroke="none"/>
    <path d="M-1.2 0.5 L-1.2 0.5 -1.15 0.5 -1.15 0.45 -1.15 0.45 -1.1 0.45 -1.1 0.5 -1.1 0.55 -1.15 0.55 Q-1.15 0.5 -1.2 0.5 L-1.2 0.5" fill="#d0c1b8" fill-rule="evenodd" stroke="none"/>
    <path d="M-1.55 0.1 L-1.55 0.15 -1.55 0.15 -1.6 0.2 Q-1.6 0.2 -1.65 0.15 L-1.65 0.1 -1.6 0.1 -1.55 0.1" fill="#f0e2df" fill-rule="evenodd" stroke="none"/>
    <path d="M-2.8 0.6 Q-2.45 0.45 -1.75 0.05 L-1.6 -0.05 -1.6 0.05 -1.65 0.1 -1.75 0.1 -1.8 0.15 -1.85 0.2 -1.9 0.25 -1.95 0.25 -2.0 0.3 -2.0 0.35 -2.1 0.35 -2.2 0.4 -2.2 0.5 -2.25 0.6 -2.3 0.7 -2.3 0.75 -2.35 0.75 -2.35 0.85 -2.4 0.9 -2.5 0.95 -2.5 0.95 -2.75 0.8 -2.75 0.8 -2.8 0.8 -2.8 0.75 -2.8 0.75 -2.8 0.6 M-2.5 0.95 L-2.5 0.95" fill="#4c312a" fill-rule="evenodd" stroke="none"/>
    <path d="M-2.5 0.95 L-2.45 1.0 -2.4 1.0 -2.35 1.05 -2.3 1.1 -2.25 1.15 -2.35 1.15 -2.35 1.2 -2.4 1.15 -2.45 1.15 -2.55 1.1 -2.6 1.05 -2.65 1.0 -2.7 1.0 -2.7 1.0 -2.75 0.95 -2.75 0.95 -2.75 0.85 -2.75 0.85 -2.5 1.0 -2.45 1.0 -2.45 1.0 -2.5 0.95 -2.5 0.95" fill="#9a867f" fill-rule="evenodd" stroke="none"/>
    <path d="M-2.75 0.8 L-2.5 0.95 -2.45 1.0 -2.45 1.0 -2.5 1.0 -2.75 0.85 -2.75 0.85 -2.75 0.8" fill="#c2a9a4" fill-rule="evenodd" stroke="none"/>
    <path d="M-0.15 -1.2 L-0.05 -1.2 Q0.0 -1.2 0.0 -1.2 L0.0 -1.3 0.05 -1.3 0.1 -1.35 0.15 -1.35 0.1 -1.45 0.05 -1.45 0.0 -1.45 -0.05 -1.45 -0.05 -1.5 0.0 -1.55 -0.05 -1.55 -0.05 -1.6 0.0 -1.65 0.15 -1.6 0.25 -1.5 0.25 -1.35 0.3 -1.3 0.35 -1.25 0.45 -1.2 0.55 -1.1 0.55 -1.1 0.6 -1.0 0.6 -0.65 0.6 -0.6 1.05 -0.65 2.25 -0.85 3.65 -1.05 3.85 -1.1 4.4 -1.2 4.7 -1.2 5.05 -1.3 5.05 -1.2 5.0 -1.2 5.0 -1.2 4.95 -1.2 4.95 -1.15 5.0 -1.1 5.05 -1.15 5.1 -1.15 5.1 -1.1 5.1 -0.95 5.1 -0.95 5.05 -0.95 5.0 -0.9 5.0 -0.9 5.0 -0.85 5.05 -0.85 5.1 -0.85 5.1 -0.85 5.15 -0.85 5.15 -0.8 5.15 -0.7 5.1 -0.7 5.05 -0.7 4.95 -0.7 4.9 -0.7 4.85 -0.7 4.75 -0.65 4.7 -0.65 4.6 -0.65 4.45 -0.6 4.3 -0.6 4.3 -0.6 4.25 -0.6 4.25 -0.6 4.2 -0.55 4.15 -0.55 4.1 -0.55 4.05 -0.5 4.05 -0.55 4.0 -0.55 2.55 -0.25 1.1 0.0 Q0.85 0.05 0.65 0.15 L0.55 0.25 0.25 0.55 Q0.05 0.65 -0.15 0.6 L-0.2 0.65 -0.2 0.75 -0.25 0.8 -0.3 0.85 -0.3 0.85 -0.35 0.85 -0.45 0.9 -0.5 0.9 -0.55 0.95 -0.65 0.95 -0.7 0.95 -0.7 0.95 -0.75 0.9 -0.85 0.9 -0.85 0.9 -0.9 0.9 -0.95 0.85 -1.0 0.8 -1.0 0.8 -1.05 0.75 -1.05 0.75 -1.1 0.7 -1.1 0.65 -1.1 0.65 -1.15 0.65 -1.15 0.6 -1.25 0.65 -1.45 0.7 Q-1.7 0.8 -1.8 0.95 L-1.95 1.15 -2.0 1.25 -2.0 1.4 -2.05 1.45 -2.15 1.5 Q-2.35 1.5 -2.6 1.4 -2.95 1.25 -3.1 0.95 L-3.1 0.8 Q-3.15 0.7 -3.05 0.65 L-2.95 0.65 -2.85 0.65 -2.8 0.6 Q-2.45 0.45 -1.75 0.05 L-1.6 -0.05 -1.55 -0.05 -1.25 -0.15 -0.85 -0.3 -0.5 -0.4 -0.5 -0.4 -0.45 -0.4 -0.45 -0.4 -0.4 -0.4 -0.35 -0.45 -0.35 -0.55 -0.35 -0.6 -0.3 -0.6 -0.3 -0.6 -0.25 -0.6 -0.25 -0.6 -0.2 -0.6 -0.2 -0.55 -0.1 -0.6 0.0 -0.65 0.05 -0.65 0.1 -0.6 0.15 -0.5 0.15 -0.5 0.45 -0.55 0.45 -0.7 0.45 -0.8 0.4 -0.9 0.4 -1.05 Q0.3 -1.05 0.3 -1.0 L0.35 -1.0 0.25 -0.95 0.2 -0.9 0.15 -0.85 0.1 -0.75 0.05 -0.7 0.0 -0.7 -0.05 -0.7 -0.1 -0.75 -0.1 -0.95 -0.1 -1.05 -0.15 -1.1 -0.2 -1.15 -0.2 -1.15 -0.25 -1.15 -0.25 -1.2 -0.25 -1.2 -0.15 -1.2 M-0.55 0.4 L-0.5 0.4 -0.5 0.4 -0.45 0.45 -0.35 0.45 Q-0.3 0.5 -0.3 0.5 -0.3 0.6 -0.4 0.65 L-0.45 0.7 -0.5 0.75 -0.55 0.75 -0.7 0.75 -0.75 0.75 -0.8 0.75 -0.9 0.7 -0.95 0.65 -1.0 0.6 -1.0 0.5 -1.0 0.5 -1.0 0.45 -0.95 0.4 -0.9 0.4 -0.9 0.4 -0.85 0.45 -0.85 0.5 -0.8 0.6 -0.75 0.65 -0.75 0.7 -0.7 0.7 Q-0.65 0.7 -0.65 0.65 L-0.7 0.6 -0.75 0.55 -0.75 0.5 -0.8 0.4 -0.8 0.4 -0.75 0.4 -0.75 0.4 -0.7 0.4 -0.65 0.4 -0.6 0.4 -0.55 0.4 -0.55 0.4 M-0.75 0.65 L-0.75 0.65 Z" fill="none" stroke="#000000" stroke-linecap="round" stroke-linejoin="round" stroke-opacity="0.4509804" stroke-width="0.15000000000000002"/>
  </g>
</svg>
