<?xml version="1.0" encoding="UTF-8" standalone="no"?>
<svg xmlns:xlink="http://www.w3.org/1999/xlink" height="3.05px" width="5.65px" xmlns="http://www.w3.org/2000/svg">
  <g transform="matrix(1.0, 0.0, 0.0, 1.0, 2.95, 0.7)">
    <path d="M0.25 -0.3 L1.35 -0.5 1.65 -0.55 1.8 -0.6 1.8 -0.6 Q1.85 -0.6 1.95 -0.65 L2.0 -0.7 2.0 -0.6 2.45 -0.65 2.6 -0.65 2.65 -0.55 Q2.65 -0.4 2.55 -0.4 L2.45 -0.45 2.1 -0.35 2.1 -0.35 1.9 -0.25 1.85 -0.15 1.8 -0.35 1.7 -0.3 1.35 -0.25 1.1 -0.2 0.75 -0.15 0.5 -0.1 0.2 -0.05 -0.05 -0.1 -0.3 -0.05 -0.65 0.0 -1.0 0.05 -1.25 0.1 Q-0.75 0.3 -0.75 0.35 -0.75 0.5 -0.9 0.5 L-1.1 0.4 -1.3 0.35 -1.4 0.3 Q-1.3 0.4 -1.3 0.65 L-1.3 0.85 -1.3 0.8 -1.25 0.8 -1.2 0.8 -1.1 0.8 Q-1.0 0.8 -0.95 0.9 -0.8 1.0 -0.85 1.1 L-0.8 1.1 Q-0.6 1.1 -0.55 0.95 -0.55 0.9 -0.55 0.65 -0.55 0.4 -0.4 0.35 L-0.5 0.35 -0.6 0.45 -0.65 0.35 -0.55 0.3 -0.45 0.25 -0.1 0.25 0.8 0.15 0.9 0.1 Q0.95 0.05 1.1 0.05 L1.25 0.05 2.2 0.0 2.45 -0.05 2.7 0.05 2.7 0.15 2.65 0.15 2.5 0.1 1.35 0.2 1.25 0.3 1.2 0.3 Q0.95 0.3 0.9 0.25 L-0.35 0.35 -0.35 0.4 -0.4 0.5 -0.45 0.8 Q-0.5 1.1 -0.6 1.15 L-0.55 1.3 Q-0.55 1.55 -0.95 1.7 L-1.2 1.8 -1.5 1.9 Q-1.6 1.9 -1.65 1.7 L-1.85 1.65 -1.8 1.75 Q-1.75 1.9 -1.75 2.05 -1.75 2.25 -1.95 2.3 L-2.15 2.3 -2.2 2.35 -2.25 2.3 -2.25 2.3 -2.55 2.3 -2.8 2.2 Q-2.95 2.1 -2.95 1.95 L-2.95 1.8 Q-2.9 1.7 -2.9 1.55 -2.9 1.3 -2.75 1.1 -2.6 0.9 -2.6 0.85 -2.6 0.65 -2.5 0.65 L-2.45 0.55 -2.3 0.5 -2.3 0.5 Q-2.15 0.25 -1.75 0.1 L-1.75 0.1 -1.8 0.05 Q-1.8 -0.15 -1.4 -0.15 L-1.0 -0.2 -0.95 -0.2 -0.95 -0.3 -1.0 -0.35 -1.25 -0.25 -1.8 -0.2 -1.95 0.05 Q-2.05 0.25 -2.1 0.25 L-2.35 0.15 Q-2.55 0.05 -2.6 0.0 L-2.5 0.0 Q-2.45 0.0 -2.35 0.05 L-2.15 0.1 Q-1.95 -0.05 -1.95 -0.2 -1.9 -0.3 -1.75 -0.3 L-1.45 -0.3 -1.2 -0.35 -1.1 -0.4 -1.0 -0.45 Q-0.95 -0.45 -0.9 -0.4 L-0.8 -0.25 -0.8 -0.25 0.0 -0.35 0.25 -0.3 M-1.0 1.05 Q-1.05 0.9 -1.15 0.9 L-1.15 1.0 -1.05 1.25 -0.9 1.35 -0.8 1.45 -0.65 1.25 Q-0.65 1.2 -0.7 1.15 L-0.85 1.2 -0.9 1.2 -1.0 1.05 M-1.9 0.6 Q-1.85 0.55 -1.75 0.5 L-1.75 0.55 Q-1.75 0.6 -1.8 0.7 L-1.9 0.75 -2.0 0.7 -2.05 0.6 Q-2.05 0.4 -1.7 0.35 -1.6 0.35 -1.55 0.45 -1.5 0.5 -1.5 0.6 -1.5 0.75 -1.6 0.85 L-1.55 0.9 -1.55 0.9 -1.5 0.9 -1.4 0.85 -1.4 0.7 -1.45 0.5 Q-1.45 0.45 -1.55 0.35 -1.65 0.25 -1.7 0.25 -1.85 0.25 -1.9 0.3 L-2.2 0.6 -2.1 0.75 -2.1 0.8 -1.8 0.85 -1.65 0.75 -1.6 0.6 Q-1.6 0.45 -1.7 0.45 -1.85 0.45 -1.95 0.6 L-1.9 0.6 M-1.85 0.95 L-1.8 0.95 -1.95 0.95 -1.85 0.95 M-1.7 1.2 Q-1.75 1.2 -1.8 1.3 -1.9 1.4 -1.9 1.5 L-1.9 1.55 -1.65 1.55 -1.65 1.2 -1.7 1.2 M-1.3 0.95 L-1.35 1.0 -1.4 1.0 -1.45 1.0 -1.45 1.0 -1.5 1.05 -1.5 1.15 -1.35 1.2 -1.35 1.3 -1.55 1.25 -1.55 1.55 -1.4 1.5 -1.4 1.55 Q-1.4 1.65 -1.55 1.7 L-1.55 1.7 Q-1.5 1.75 -1.4 1.75 -1.3 1.75 -1.0 1.6 L-0.85 1.5 -1.15 1.3 Q-1.3 1.15 -1.3 0.95 L-1.3 0.95 M-2.0 1.45 Q-2.0 1.3 -1.95 1.2 L-2.25 1.0 -2.45 0.75 -2.45 0.85 Q-2.45 0.95 -2.5 1.0 -2.55 1.1 -2.65 1.1 -2.75 1.15 -2.8 1.35 L-2.8 1.65 Q-2.8 1.85 -2.85 1.95 L-2.85 2.1 -2.25 2.2 -2.25 2.15 -2.15 2.15 -2.1 2.2 Q-1.85 2.2 -1.85 2.05 L-1.95 1.8 -2.0 1.65 -2.0 1.65 Q-2.0 1.75 -2.1 1.8 L-2.3 1.85 Q-2.4 1.85 -2.55 1.75 -2.65 1.6 -2.65 1.45 L-2.6 1.35 -2.55 1.25 Q-2.5 1.25 -2.5 1.3 L-2.35 1.3 Q-2.3 1.3 -2.15 1.4 L-2.0 1.5 -2.0 1.45 M-2.55 1.45 L-2.55 1.5 -2.45 1.7 Q-2.35 1.75 -2.3 1.75 L-2.15 1.75 -2.1 1.65 -2.1 1.6 -2.2 1.5 Q-2.3 1.4 -2.35 1.4 L-2.55 1.45" fill="url(#gradient0)" fill-rule="evenodd" stroke="none"/>
  </g>
  <defs>
    <radialGradient cx="0" cy="0" gradientTransform="matrix(0.0039, 0.0, 0.0, 0.0039, -0.15, 0.85)" gradientUnits="userSpaceOnUse" id="gradient0" r="819.2" spreadMethod="pad">
      <stop offset="0.0" stop-color="#27c9ff"/>
      <stop offset="1.0" stop-color="#20005f"/>
    </radialGradient>
  </defs>
</svg>
