<?xml version="1.0" encoding="UTF-8" standalone="no"?>
<svg xmlns:xlink="http://www.w3.org/1999/xlink" height="3.05px" width="7.9px" xmlns="http://www.w3.org/2000/svg">
  <g transform="matrix(1.0, 0.0, 0.0, 1.0, 1.85, 1.9)">
    <path d="M0.0 -1.4 L0.0 -1.3 Q-0.1 -1.3 -0.15 -1.35 L-0.05 -1.4 0.0 -1.4 M0.4 -1.25 L0.5 -1.3 0.55 -1.25 0.6 -1.15 0.6 -1.1 Q0.55 -1.1 0.55 -1.1 L0.5 -1.1 Q0.5 -1.1 0.5 -1.15 L0.5 -1.15 0.45 -1.2 0.4 -1.25 M-0.5 0.5 L-0.35 0.4 -0.3 0.4 -0.3 0.4 -0.25 0.45 -0.35 0.55 -0.35 0.55 -0.4 0.55 -0.5 0.55 -0.5 0.5 M-0.6 -0.8 L-0.6 -0.85 -0.5 -1.0 -0.45 -1.05 -0.35 -1.1 -0.3 -1.1 -0.3 -1.05 -0.35 -0.95 -0.3 -0.9 -0.3 -0.85 -0.35 -0.85 -0.35 -0.9 -0.4 -0.85 -0.45 -0.85 -0.6 -0.8 M-0.7 -0.9 L-0.75 -0.85 -0.8 -0.85 -0.85 -0.9 -0.9 -1.0 -0.85 -1.05 -0.8 -1.1 -0.85 -1.15 -0.9 -1.2 -0.8 -1.3 -0.6 -1.15 -0.6 -1.1 -0.65 -1.05 -0.7 -1.1 -0.7 -1.1 -0.75 -1.1 -0.75 -1.05 -0.7 -0.9 -0.7 -0.9 M-0.5 -1.4 L-0.5 -1.5 -0.45 -1.5 -0.35 -1.5 -0.45 -1.4 -0.5 -1.4 M-0.5 -1.7 L-0.5 -1.75 Q-0.5 -1.85 -0.3 -1.85 L-0.25 -1.8 -0.25 -1.7 Q-0.35 -1.65 -0.45 -1.65 L-0.5 -1.7 M0.2 -0.1 L-0.05 0.0 -0.1 0.05 -0.25 0.1 -0.3 0.05 -0.15 0.0 -0.1 -0.05 Q0.05 -0.15 0.25 -0.15 L0.25 -0.1 0.2 -0.1" fill="#877f7c" fill-rule="evenodd" stroke="none"/>
    <path d="M-0.15 -1.35 Q-0.1 -1.3 0.0 -1.3 L0.0 -1.4 0.1 -1.35 0.1 -1.3 -0.05 -1.2 Q-0.05 -1.25 -0.1 -1.25 L-0.2 -1.25 -0.2 -1.3 -0.25 -1.3 -0.15 -1.35 M0.5 -1.1 L0.35 -1.0 0.35 -0.95 0.3 -1.05 0.25 -1.2 0.4 -1.25 0.45 -1.2 0.5 -1.15 0.5 -1.15 Q0.5 -1.1 0.5 -1.1 M0.35 0.0 L0.3 0.05 0.25 0.05 0.2 0.0 0.2 -0.1 0.25 -0.1 0.25 -0.15 0.35 -0.15 0.35 -0.15 0.4 -0.05 0.35 0.0 M-0.1 0.05 Q-0.2 0.15 -0.15 0.25 L-0.15 0.3 -0.25 0.25 Q-0.25 0.1 -0.35 0.05 L-0.3 0.05 -0.25 0.1 -0.1 0.05 -0.1 0.05 M-0.35 0.55 L-0.55 0.6 -0.7 0.55 -0.65 0.5 -0.65 0.45 -0.55 0.5 -0.5 0.5 -0.5 0.55 -0.4 0.55 -0.35 0.55 -0.35 0.55 M-0.6 -0.75 L-0.6 -0.8 -0.45 -0.85 -0.4 -0.85 -0.35 -0.9 -0.35 -0.85 -0.35 -0.8 -0.35 -0.75 -0.3 -0.85 -0.25 -0.8 -0.2 -0.75 -0.25 -0.65 -0.3 -0.65 -0.3 -0.6 -0.35 -0.6 -0.5 -0.65 -0.55 -0.65 -0.55 -0.7 -0.6 -0.75 M-0.45 -1.3 L-0.5 -1.4 -0.45 -1.4 -0.35 -1.5 -0.45 -1.5 -0.5 -1.5 -0.45 -1.6 -0.5 -1.7 -0.45 -1.65 Q-0.35 -1.65 -0.25 -1.7 L-0.25 -1.55 -0.25 -1.5 -0.25 -1.5 -0.35 -1.5 -0.35 -1.4 -0.45 -1.3 M0.1 -0.9 L0.15 -0.8 0.15 -0.8 0.2 -0.65 0.2 -0.65 0.15 -0.6 0.1 -0.6 0.05 -0.6 0.0 -0.6 0.0 -0.75 0.05 -0.8 0.1 -0.9 M-0.3 -1.1 L-0.25 -1.1 -0.2 -1.1 -0.2 -1.1 -0.15 -1.05 -0.15 -0.95 -0.15 -0.9 -0.2 -0.9 -0.25 -0.9 -0.3 -0.9 -0.35 -0.95 -0.3 -1.05 -0.3 -1.1" fill="#464240" fill-rule="evenodd" stroke="none"/>
    <path d="M0.25 -0.9 L0.3 -0.85 0.35 -0.85 0.35 -0.85 0.45 -0.9 0.55 -0.9 0.55 -0.9 Q0.6 -0.8 0.6 -0.8 L0.7 -0.85 0.8 -0.85 1.1 -0.85 1.45 -0.8 1.85 -0.85 2.15 -0.85 2.55 -0.85 2.55 -0.95 2.9 -0.95 3.3 -0.9 3.3 -0.9 Q3.5 -0.85 3.5 -0.8 L3.5 -0.75 Q3.45 -0.7 3.35 -0.75 L3.3 -0.75 3.25 -0.75 3.2 -0.75 3.15 -0.75 3.05 -0.75 2.85 -0.7 2.9 -0.6 3.2 -0.6 3.3 -0.6 3.5 -0.6 3.7 -0.65 3.9 -0.6 3.9 -0.7 4.0 -0.75 4.0 -0.75 4.05 -0.75 4.05 -0.6 4.1 -0.6 4.1 -0.75 4.3 -0.75 4.4 -0.75 4.45 -0.75 4.5 -0.65 4.5 -0.6 4.25 -0.6 4.0 -0.55 3.85 -0.55 3.8 -0.55 Q3.75 -0.6 3.75 -0.6 L3.65 -0.55 3.6 -0.6 3.5 -0.55 3.35 -0.55 3.35 -0.55 3.3 -0.55 3.3 -0.55 2.45 -0.5 1.7 -0.55 1.35 -0.55 1.2 -0.55 1.05 -0.6 1.0 -0.6 1.05 -0.65 1.15 -0.6 2.2 -0.65 2.2 -0.7 2.25 -0.7 2.25 -0.7 2.3 -0.7 2.6 -0.8 1.95 -0.75 1.95 -0.75 1.35 -0.8 0.85 -0.8 0.8 -0.8 0.8 -0.75 0.9 -0.7 0.85 -0.65 0.75 -0.6 0.75 -0.65 0.7 -0.7 0.6 -0.8 0.4 -0.8 0.4 -0.75 0.5 -0.75 0.6 -0.7 0.65 -0.6 0.6 -0.45 Q0.55 -0.4 0.5 -0.4 L0.45 -0.4 0.45 -0.4 0.55 -0.55 0.55 -0.6 0.5 -0.7 0.4 -0.7 0.3 -0.65 0.25 -0.5 0.25 -0.45 Q0.3 -0.4 0.35 -0.4 L0.4 -0.4 0.4 -0.4 Q0.4 -0.3 0.45 -0.3 L0.55 -0.25 0.6 -0.25 0.65 -0.35 0.65 -0.2 0.7 -0.25 0.7 -0.25 0.75 -0.25 1.15 -0.15 1.45 -0.15 Q1.75 -0.2 1.75 -0.25 1.75 -0.35 2.3 -0.35 L2.55 -0.35 2.75 -0.35 2.9 -0.3 3.2 -0.35 3.3 -0.35 3.3 -0.35 3.4 -0.35 3.45 -0.35 3.4 -0.35 3.4 -0.25 3.45 -0.25 3.45 -0.2 3.45 -0.15 3.5 -0.15 3.6 -0.2 3.65 -0.2 3.65 -0.2 3.6 -0.1 3.6 -0.1 3.6 -0.05 3.6 0.0 3.65 0.0 3.7 0.0 3.7 0.0 3.75 0.0 3.8 0.0 3.8 0.0 3.85 0.0 3.85 0.0 3.9 0.0 3.9 0.05 3.95 0.0 4.0 0.05 4.6 0.05 4.6 0.0 5.05 0.0 5.3 0.0 5.35 0.0 5.35 0.0 5.4 0.0 5.4 0.05 5.35 0.05 5.4 0.05 5.35 0.1 5.4 0.1 5.4 0.0 5.45 0.05 5.5 0.1 5.5 0.15 5.45 0.15 5.45 0.2 5.4 0.2 5.35 0.25 5.3 0.25 4.6 0.25 4.6 0.2 3.6 0.2 3.6 0.3 3.65 0.3 3.55 0.35 3.45 0.3 3.4 0.3 3.35 0.3 3.45 0.35 3.4 0.45 3.35 0.5 3.3 0.4 3.25 0.35 3.3 0.3 3.2 0.3 3.15 0.25 3.1 0.25 3.05 0.25 3.0 0.2 3.05 0.2 3.1 0.15 3.1 0.1 3.15 0.0 3.15 0.0 2.2 -0.05 1.8 -0.05 0.75 0.0 0.7 0.0 0.35 0.0 0.4 -0.05 0.35 -0.15 0.35 -0.15 0.25 -0.15 Q0.05 -0.15 -0.1 -0.05 L-0.15 0.0 -0.3 0.05 -0.35 0.05 -0.4 0.05 -0.55 0.05 -0.7 -0.05 -0.8 0.05 -0.8 0.05 -0.8 0.05 -0.9 0.0 -0.9 -0.1 -1.0 -0.1 -1.05 -0.05 -1.0 0.0 -1.05 0.0 -1.1 0.05 -1.1 0.1 Q-1.0 0.1 -0.95 0.15 L-0.95 0.2 -0.95 0.2 -1.0 0.3 -1.05 0.3 -1.2 0.15 -1.15 0.1 -1.15 0.0 -1.25 0.0 -1.25 0.0 -1.3 -0.05 -1.3 0.1 -1.35 0.1 -1.4 0.15 -1.4 0.2 -1.35 0.2 Q-1.3 0.2 -1.3 0.2 L-1.25 0.25 -1.3 0.3 -1.25 0.3 -1.2 0.3 Q-1.15 0.3 -1.15 0.35 L-1.15 0.45 -1.25 0.5 -1.3 0.45 Q-1.35 0.45 -1.3 0.4 L-1.35 0.35 -1.4 0.4 -1.45 0.45 -1.4 0.55 -1.25 0.6 -1.2 0.55 -1.1 0.5 -1.1 0.6 -1.1 0.65 -1.15 0.8 -1.15 0.8 -1.2 0.75 -1.25 0.8 -1.3 0.8 -1.4 0.8 -1.45 0.7 -1.5 0.75 -1.55 0.75 -1.55 0.7 -1.45 0.65 -1.55 0.5 -1.6 0.55 -1.6 0.6 -1.55 0.65 -1.65 0.7 -1.7 0.65 -1.65 0.6 -1.65 0.55 -1.6 0.45 -1.6 0.4 -1.6 0.3 -1.6 0.3 -1.6 0.2 -1.55 0.15 -1.5 0.1 -1.55 0.05 -1.45 -0.05 -1.45 0.05 -1.35 -0.05 -1.25 -0.1 -1.15 -0.05 -1.15 -0.05 -1.15 -0.15 -1.1 -0.15 -1.1 -0.1 -1.05 -0.15 -1.1 -0.2 -1.05 -0.2 -1.0 -0.25 Q-0.95 -0.25 -0.9 -0.15 -0.9 -0.15 -0.85 -0.2 L-0.9 -0.25 -0.95 -0.35 -0.95 -0.4 -0.9 -0.4 -0.8 -0.5 -0.8 -0.5 -0.7 -0.65 -0.6 -0.75 -0.6 -0.75 -0.55 -0.7 -0.6 -0.7 -0.7 -0.55 -0.75 -0.4 -0.7 -0.35 -0.65 -0.35 -0.65 -0.4 -0.6 -0.5 -0.6 -0.5 -0.55 -0.45 -0.55 -0.4 -0.55 -0.55 -0.5 -0.6 -0.5 -0.65 -0.35 -0.6 -0.3 -0.6 -0.3 -0.6 -0.2 -0.45 Q-0.1 -0.35 -0.05 -0.35 0.05 -0.35 0.15 -0.5 L0.2 -0.65 0.2 -0.65 0.15 -0.8 0.15 -0.8 0.25 -0.9 0.25 -0.9 0.25 -0.9 M4.45 -0.9 L4.45 -0.9 4.5 -1.0 4.55 -1.0 4.6 -0.9 4.5 -0.85 Q4.45 -0.85 4.45 -0.9 M4.75 -0.65 L4.75 -0.5 Q4.75 -0.3 4.65 -0.3 L4.5 -0.3 4.5 -0.4 4.55 -0.45 4.65 -0.4 4.65 -0.4 4.7 -0.45 4.65 -0.5 4.55 -0.5 Q4.5 -0.5 4.5 -0.6 L4.5 -0.65 4.65 -0.65 4.75 -0.65 M4.4 -0.25 L4.4 -0.25 4.1 -0.25 3.85 -0.25 3.65 -0.25 3.65 -0.25 3.55 -0.3 3.6 -0.35 3.6 -0.45 3.65 -0.45 3.9 -0.4 Q3.9 -0.35 4.15 -0.35 L4.3 -0.35 4.5 -0.4 Q4.45 -0.3 4.4 -0.25 M-0.25 -0.6 L-0.3 -0.6 -0.25 -0.6 M0.25 -0.35 L0.15 -0.35 0.15 -0.3 0.2 -0.25 0.25 -0.25 0.25 -0.25 0.25 -0.35 M0.0 -0.3 L0.0 -0.25 -0.05 -0.25 0.0 -0.2 0.05 -0.25 0.05 -0.25 0.0 -0.3 M0.85 -0.35 L0.85 -0.35 0.9 -0.45 1.0 -0.55 1.1 -0.5 1.2 -0.5 1.15 -0.4 1.1 -0.3 1.05 -0.3 0.95 -0.3 0.85 -0.35 M1.2 -0.3 L1.2 -0.3 1.25 -0.45 Q1.3 -0.5 1.35 -0.5 L1.45 -0.5 1.45 -0.35 Q1.45 -0.25 1.3 -0.25 L1.3 -0.25 1.2 -0.3 M1.55 -0.3 L1.5 -0.45 1.6 -0.5 1.65 -0.5 1.7 -0.35 1.7 -0.35 Q1.7 -0.3 1.55 -0.3 L1.55 -0.3 M1.8 -0.4 L1.75 -0.4 1.75 -0.5 1.9 -0.5 2.0 -0.5 2.0 -0.45 2.05 -0.4 2.0 -0.4 1.8 -0.4 M2.15 -0.45 L2.15 -0.45 2.25 -0.5 2.25 -0.4 2.25 -0.4 2.1 -0.4 2.15 -0.45 M2.35 -0.4 L2.35 -0.45 2.5 -0.5 2.6 -0.5 Q2.55 -0.45 2.55 -0.4 L2.55 -0.4 2.4 -0.4 2.35 -0.4 2.35 -0.4 M2.65 -0.4 L2.6 -0.4 Q2.6 -0.5 2.75 -0.5 L2.85 -0.5 2.85 -0.4 2.85 -0.4 2.7 -0.35 Q2.65 -0.35 2.65 -0.4 M2.9 -0.45 L2.9 -0.5 3.05 -0.5 3.05 -0.45 3.05 -0.4 2.95 -0.4 2.9 -0.4 2.9 -0.45 M3.1 -0.45 L3.05 -0.5 3.15 -0.5 3.25 -0.5 3.25 -0.4 3.25 -0.4 3.15 -0.4 3.1 -0.4 3.1 -0.45 M1.8 -0.2 L1.85 -0.15 2.0 -0.15 2.2 -0.15 2.3 -0.1 2.4 -0.15 2.45 -0.15 2.55 -0.15 2.55 -0.15 2.6 -0.15 2.65 -0.15 2.7 -0.15 2.75 -0.15 2.75 -0.15 2.8 -0.15 2.85 -0.15 2.9 -0.2 2.95 -0.15 2.95 -0.15 3.0 -0.15 3.05 -0.15 3.05 -0.15 Q3.2 -0.15 3.25 -0.2 L3.25 -0.25 3.15 -0.25 2.6 -0.3 2.35 -0.25 2.0 -0.3 1.9 -0.25 1.8 -0.2 M2.8 -0.6 L2.75 -0.7 2.75 -0.7 2.5 -0.65 2.25 -0.65 2.6 -0.6 2.8 -0.6 2.8 -0.6 M3.25 0.0 L3.25 0.05 3.2 0.05 3.15 0.05 3.15 0.1 3.2 0.2 3.25 0.15 3.25 0.1 3.3 0.15 3.3 0.1 Q3.3 0.1 3.35 0.05 L3.35 0.2 3.45 0.25 3.45 0.05 3.4 -0.05 3.25 -0.05 3.25 0.0 M3.35 -0.05 L3.4 -0.1 3.4 -0.1 3.35 -0.15 3.3 -0.1 3.35 -0.05 M3.45 0.0 L3.5 0.05 3.55 0.25 3.55 0.05 3.55 0.0 3.5 0.0 3.45 0.0 M4.7 -0.75 Q4.7 -0.65 4.6 -0.65 L4.55 -0.7 4.5 -0.75 4.55 -0.75 4.7 -0.75 M5.1 0.1 L5.05 0.1 5.1 0.15 5.15 0.2 5.15 0.15 5.2 0.15 5.1 0.1 M-0.75 -0.35 L-0.75 -0.35 -0.8 -0.35 -0.8 -0.35 Q-0.8 -0.25 -0.75 -0.25 L-0.7 -0.25 -0.7 -0.3 -0.75 -0.35 -0.75 -0.35 M-0.7 -0.2 L-0.75 -0.2 -0.75 -0.15 Q-0.7 -0.15 -0.7 -0.15 L-0.65 -0.15 -0.65 -0.2 -0.7 -0.2 M-0.45 -0.1 L-0.45 -0.1 -0.55 -0.05 -0.5 0.0 -0.45 -0.05 -0.45 -0.1 M-0.3 -0.1 L-0.3 -0.1 -0.25 -0.05 Q-0.2 -0.05 -0.2 -0.1 L-0.2 -0.15 -0.25 -0.2 -0.3 -0.15 -0.3 -0.1 M-1.4 0.2 Q-1.45 0.2 -1.55 0.3 L-1.5 0.35 -1.45 0.35 Q-1.4 0.35 -1.4 0.3 -1.35 0.2 -1.4 0.2 M-1.45 0.6 L-1.45 0.6 -1.35 0.75 -1.2 0.7 -1.15 0.7 -1.2 0.6 -1.3 0.6 -1.35 0.6 -1.45 0.55 -1.45 0.6" fill="#200e0a" fill-rule="evenodd" stroke="none"/>
    <path d="M0.55 -0.9 L0.75 -0.9 1.0 -0.9 1.4 -0.9 1.7 -0.9 2.1 -0.9 2.5 -0.95 2.55 -0.95 2.55 -0.85 2.15 -0.85 1.85 -0.85 1.45 -0.8 1.1 -0.85 0.8 -0.85 0.7 -0.85 0.6 -0.8 Q0.6 -0.8 0.55 -0.9 L0.55 -0.9 M3.5 -0.75 L3.75 -0.75 4.0 -0.75 3.9 -0.7 3.9 -0.6 3.7 -0.65 3.5 -0.6 3.3 -0.6 3.2 -0.6 2.9 -0.6 2.85 -0.7 3.05 -0.75 3.15 -0.75 3.2 -0.75 3.25 -0.75 3.3 -0.75 3.35 -0.75 Q3.45 -0.7 3.5 -0.75 M4.05 -0.75 L4.1 -0.75 4.1 -0.6 4.05 -0.6 4.05 -0.75 M4.4 -0.75 L4.45 -0.9 Q4.45 -0.85 4.5 -0.85 L4.6 -0.9 4.6 -0.9 4.7 -0.85 4.7 -0.8 4.75 -0.75 4.75 -0.65 4.65 -0.65 4.5 -0.65 4.5 -0.6 Q4.5 -0.5 4.55 -0.5 L4.65 -0.5 4.7 -0.45 4.65 -0.4 4.65 -0.4 4.55 -0.45 4.5 -0.4 4.5 -0.3 4.4 -0.25 Q4.45 -0.3 4.5 -0.4 L4.3 -0.35 4.15 -0.35 Q3.9 -0.35 3.9 -0.4 L3.65 -0.45 3.6 -0.45 3.6 -0.35 3.55 -0.3 3.65 -0.25 3.65 -0.2 3.6 -0.2 3.5 -0.15 3.45 -0.15 3.45 -0.2 3.45 -0.25 3.4 -0.25 3.4 -0.35 3.45 -0.35 3.4 -0.35 3.3 -0.35 3.3 -0.4 3.25 -0.4 3.25 -0.4 3.25 -0.5 3.15 -0.5 3.05 -0.5 3.1 -0.45 3.05 -0.45 3.05 -0.5 2.9 -0.5 2.9 -0.45 2.85 -0.4 2.85 -0.5 2.75 -0.5 Q2.6 -0.5 2.6 -0.4 L2.65 -0.4 2.6 -0.4 2.55 -0.4 Q2.55 -0.45 2.6 -0.5 L2.5 -0.5 2.35 -0.45 2.35 -0.4 2.25 -0.4 2.25 -0.5 2.15 -0.45 2.15 -0.45 2.0 -0.45 2.0 -0.5 1.9 -0.5 1.75 -0.5 1.75 -0.4 1.8 -0.4 1.75 -0.35 1.7 -0.35 1.65 -0.5 1.6 -0.5 1.5 -0.45 1.55 -0.3 1.45 -0.3 1.55 -0.25 1.45 -0.2 1.35 -0.25 1.3 -0.25 1.3 -0.25 Q1.45 -0.25 1.45 -0.35 L1.45 -0.5 1.35 -0.5 Q1.3 -0.5 1.25 -0.45 L1.2 -0.3 1.2 -0.3 1.2 -0.3 1.1 -0.3 1.15 -0.4 1.2 -0.5 1.1 -0.5 1.0 -0.55 0.9 -0.45 0.85 -0.35 0.85 -0.35 Q0.75 -0.35 0.75 -0.25 L0.75 -0.25 0.7 -0.25 0.7 -0.25 0.7 -0.25 Q0.8 -0.35 0.8 -0.5 L0.75 -0.6 0.85 -0.65 0.9 -0.7 0.8 -0.75 0.8 -0.8 0.85 -0.8 1.0 -0.7 1.15 -0.7 1.9 -0.7 2.0 -0.7 1.95 -0.75 2.6 -0.8 2.3 -0.7 2.25 -0.7 2.25 -0.7 2.2 -0.7 2.2 -0.65 1.15 -0.6 1.05 -0.65 1.0 -0.6 1.05 -0.6 1.2 -0.55 1.35 -0.55 1.7 -0.55 2.45 -0.5 3.3 -0.55 3.3 -0.55 3.35 -0.55 3.35 -0.55 3.5 -0.55 3.6 -0.6 3.65 -0.55 3.75 -0.6 Q3.75 -0.6 3.8 -0.55 L3.85 -0.55 4.0 -0.55 4.25 -0.6 4.5 -0.6 4.5 -0.65 4.45 -0.75 4.4 -0.75 M-0.9 0.4 L-0.9 0.65 -0.9 0.6 -0.95 0.65 -0.95 0.7 -1.0 0.7 -1.0 0.65 -1.05 0.65 -1.05 0.7 -1.1 0.6 -1.1 0.5 -1.2 0.55 -1.25 0.6 -1.4 0.55 -1.45 0.45 -1.4 0.4 -1.35 0.35 -1.3 0.4 Q-1.35 0.45 -1.3 0.45 L-1.25 0.5 -1.15 0.45 -1.15 0.35 Q-1.15 0.3 -1.2 0.3 L-1.25 0.3 -1.3 0.3 -1.25 0.25 -1.3 0.2 Q-1.3 0.2 -1.35 0.2 L-1.4 0.2 -1.4 0.15 -1.35 0.1 -1.3 0.1 -1.3 -0.05 -1.25 0.0 -1.25 0.0 -1.15 0.0 -1.15 0.1 -1.2 0.15 -1.05 0.3 -1.0 0.3 -1.05 0.3 -1.0 0.4 -0.9 0.35 -0.9 0.4 M-0.95 0.9 L-0.95 0.9 Q-1.1 1.1 -1.25 1.1 -1.45 1.1 -1.6 1.0 L-1.6 0.95 -1.6 0.85 -1.5 0.95 -1.4 0.95 -1.25 0.9 -1.15 0.9 -1.1 0.9 -1.1 0.9 -1.2 0.95 -1.15 1.0 -1.1 0.95 -1.1 0.95 -1.05 0.9 -1.05 0.9 -1.0 0.9 -0.95 0.9 M-1.45 -0.15 L-1.15 -0.4 -1.15 -0.35 -1.1 -0.3 -0.95 -0.4 -0.95 -0.35 -0.9 -0.25 -0.85 -0.2 Q-0.9 -0.15 -0.9 -0.15 -0.95 -0.25 -1.0 -0.25 L-1.05 -0.2 -1.1 -0.2 -1.05 -0.15 -1.1 -0.1 -1.1 -0.15 -1.15 -0.15 -1.15 -0.05 -1.15 -0.05 -1.25 -0.1 -1.35 -0.05 -1.45 0.05 -1.45 -0.05 -1.4 -0.05 -1.4 -0.1 -1.45 -0.15 -1.45 -0.15 M0.45 -0.4 L0.4 -0.4 0.35 -0.4 Q0.3 -0.4 0.25 -0.45 L0.25 -0.5 0.3 -0.65 0.4 -0.7 0.5 -0.7 0.55 -0.6 0.55 -0.55 0.45 -0.4 M2.8 -0.6 L2.8 -0.6 2.6 -0.6 2.25 -0.65 2.5 -0.65 2.75 -0.7 2.75 -0.7 2.8 -0.6 M1.8 -0.2 L1.9 -0.25 2.0 -0.3 2.35 -0.25 2.6 -0.3 3.15 -0.25 3.25 -0.25 3.25 -0.2 Q3.2 -0.15 3.05 -0.15 L3.05 -0.15 3.0 -0.15 2.95 -0.15 2.95 -0.15 2.9 -0.2 2.85 -0.15 2.8 -0.15 2.75 -0.15 2.75 -0.15 2.7 -0.15 2.65 -0.15 2.6 -0.15 2.55 -0.15 2.55 -0.15 2.45 -0.15 2.4 -0.15 2.3 -0.1 2.2 -0.15 2.0 -0.15 1.85 -0.15 1.8 -0.2 M3.25 0.0 L3.25 -0.05 3.4 -0.05 3.45 0.05 3.45 0.25 3.35 0.2 3.35 0.05 Q3.3 0.1 3.3 0.1 L3.3 0.15 3.25 0.1 3.25 0.15 3.2 0.2 3.15 0.1 3.15 0.05 3.2 0.05 3.25 0.05 3.25 0.0 M3.45 0.0 L3.5 0.0 3.55 0.0 3.55 0.05 3.55 0.25 3.5 0.05 3.45 0.0 M4.7 -0.75 L4.55 -0.75 4.5 -0.75 4.55 -0.7 4.6 -0.65 Q4.7 -0.65 4.7 -0.75 M5.05 0.0 L5.15 0.0 5.2 -0.05 5.2 -0.05 5.25 -0.05 5.25 0.0 5.3 0.0 5.3 0.0 5.4 0.0 5.45 0.0 5.6 0.1 5.55 0.15 5.5 0.2 5.45 0.2 5.35 0.25 5.3 0.25 5.35 0.25 5.4 0.2 5.45 0.2 5.45 0.15 5.5 0.15 5.5 0.1 5.45 0.05 5.4 0.0 5.4 0.1 5.35 0.1 5.4 0.05 5.35 0.05 5.4 0.05 5.4 0.0 5.35 0.0 5.35 0.0 5.3 0.0 5.05 0.0 M-0.95 0.2 L-0.95 0.15 Q-1.0 0.1 -1.1 0.1 L-1.1 0.05 -1.05 0.0 -1.0 0.0 -1.05 -0.05 -1.0 -0.1 -0.9 -0.1 -0.9 0.0 -0.8 0.05 -0.8 0.05 -0.95 0.2 M-1.15 0.8 L-1.25 0.9 -1.4 0.95 -1.6 0.8 -1.65 0.7 -1.55 0.65 -1.6 0.6 -1.6 0.55 -1.55 0.5 -1.45 0.65 -1.55 0.7 -1.55 0.75 -1.5 0.75 -1.45 0.7 -1.4 0.8 -1.3 0.8 -1.25 0.8 -1.2 0.75 -1.15 0.8 M-1.45 0.6 L-1.45 0.55 -1.35 0.6 -1.3 0.6 -1.2 0.6 -1.15 0.7 -1.2 0.7 -1.35 0.75 -1.45 0.6 -1.45 0.6 M-1.4 0.2 Q-1.35 0.2 -1.4 0.3 -1.4 0.35 -1.45 0.35 L-1.5 0.35 -1.55 0.3 Q-1.45 0.2 -1.4 0.2" fill="#3f1b14" fill-rule="evenodd" stroke="none"/>
    <path d="M0.45 -0.4 L0.45 -0.4 0.5 -0.4 Q0.55 -0.4 0.6 -0.45 L0.65 -0.6 0.6 -0.7 0.5 -0.75 0.4 -0.75 0.4 -0.8 0.6 -0.8 0.7 -0.7 0.75 -0.65 0.75 -0.6 0.8 -0.5 Q0.8 -0.35 0.7 -0.25 L0.7 -0.25 0.65 -0.2 0.65 -0.35 0.6 -0.25 0.55 -0.25 0.45 -0.3 Q0.4 -0.3 0.4 -0.4 L0.4 -0.4 0.45 -0.4 M-0.5 -0.65 L-0.5 -0.6 -0.55 -0.55 -0.55 -0.4 -0.55 -0.45 -0.6 -0.5 -0.6 -0.5 -0.65 -0.4 -0.65 -0.35 -0.7 -0.35 -0.75 -0.4 -0.7 -0.55 -0.6 -0.7 -0.55 -0.7 -0.55 -0.65 -0.5 -0.65 M0.0 -0.3 L0.05 -0.25 0.05 -0.25 0.0 -0.2 -0.05 -0.25 0.0 -0.25 0.0 -0.3 M0.25 -0.35 L0.25 -0.25 0.25 -0.25 0.2 -0.25 0.15 -0.3 0.15 -0.35 0.25 -0.35 M-0.3 -0.1 L-0.3 -0.15 -0.25 -0.2 -0.2 -0.15 -0.2 -0.1 Q-0.2 -0.05 -0.25 -0.05 L-0.3 -0.1 -0.3 -0.1 M-0.45 -0.1 L-0.45 -0.05 -0.5 0.0 -0.55 -0.05 -0.45 -0.1 -0.45 -0.1 M-0.7 -0.2 L-0.65 -0.2 -0.65 -0.15 -0.7 -0.15 Q-0.7 -0.15 -0.75 -0.15 L-0.75 -0.2 -0.7 -0.2 M-0.75 -0.35 L-0.75 -0.35 -0.7 -0.3 -0.7 -0.25 -0.75 -0.25 Q-0.8 -0.25 -0.8 -0.35 L-0.8 -0.35 -0.75 -0.35 -0.75 -0.35" fill="#461e15" fill-rule="evenodd" stroke="none"/>
    <path d="M0.85 -0.8 L1.35 -0.8 1.95 -0.75 1.95 -0.75 2.0 -0.7 1.9 -0.7 1.15 -0.7 1.0 -0.7 0.85 -0.8 M0.85 -0.35 L0.95 -0.3 1.05 -0.3 1.1 -0.3 1.2 -0.3 1.2 -0.3 1.3 -0.25 1.35 -0.25 1.45 -0.2 1.55 -0.25 1.45 -0.3 1.55 -0.3 1.55 -0.3 Q1.7 -0.3 1.7 -0.35 L1.7 -0.35 1.75 -0.35 1.8 -0.4 2.0 -0.4 2.05 -0.4 2.0 -0.45 2.15 -0.45 2.1 -0.4 2.25 -0.4 2.25 -0.4 2.35 -0.4 2.35 -0.4 2.4 -0.4 2.55 -0.4 2.55 -0.4 2.6 -0.4 2.65 -0.4 Q2.65 -0.35 2.7 -0.35 L2.85 -0.4 2.85 -0.4 2.9 -0.45 2.9 -0.4 2.95 -0.4 3.05 -0.4 3.05 -0.45 3.1 -0.45 3.1 -0.4 3.15 -0.4 3.25 -0.4 3.3 -0.4 3.3 -0.35 3.3 -0.35 3.2 -0.35 2.9 -0.3 2.75 -0.35 2.55 -0.35 2.3 -0.35 Q1.75 -0.35 1.75 -0.25 1.75 -0.2 1.45 -0.15 L1.15 -0.15 0.75 -0.25 0.75 -0.25 Q0.75 -0.35 0.85 -0.35" fill="#622a1f" fill-rule="evenodd" stroke="none"/>
    <path d="M-0.25 -1.3 L-0.2 -1.3 -0.2 -1.25 -0.2 -1.25 -0.15 -1.2 -0.15 -1.15 -0.1 -1.1 -0.05 -1.05 -0.05 -1.2 0.1 -1.3 0.1 -1.1 0.0 -1.0 0.1 -0.9 0.1 -0.9 0.05 -0.8 0.0 -0.75 0.0 -0.75 Q-0.1 -0.9 -0.15 -0.9 L-0.2 -0.9 -0.15 -0.8 -0.2 -0.65 Q-0.25 -0.65 -0.25 -0.6 L-0.3 -0.6 -0.3 -0.6 Q-0.2 -0.55 -0.1 -0.45 0.05 -0.5 0.05 -0.55 L0.05 -0.6 0.0 -0.6 0.0 -0.6 0.05 -0.6 0.1 -0.6 0.15 -0.6 0.2 -0.65 0.15 -0.5 Q0.05 -0.35 -0.05 -0.35 -0.1 -0.35 -0.2 -0.45 L-0.3 -0.6 -0.3 -0.65 -0.25 -0.65 -0.2 -0.75 -0.25 -0.8 -0.3 -0.85 -0.35 -0.75 -0.35 -0.8 -0.35 -0.85 -0.3 -0.85 -0.3 -0.9 -0.25 -0.9 -0.2 -0.9 -0.15 -0.9 -0.15 -0.95 -0.15 -1.05 -0.2 -1.1 -0.2 -1.1 -0.25 -1.1 -0.3 -1.1 -0.35 -1.1 -0.35 -1.2 -0.45 -1.3 -0.35 -1.4 -0.35 -1.5 -0.25 -1.5 -0.25 -1.5 -0.25 -1.3 M0.35 -0.95 L0.25 -0.9 0.15 -1.15 0.2 -1.15 0.25 -1.2 0.3 -1.05 0.35 -0.95 M0.2 0.0 L0.15 0.0 Q0.0 0.0 -0.05 0.05 L-0.1 0.05 -0.05 0.0 0.2 -0.1 0.2 0.0 M-0.15 0.3 Q-0.15 0.45 -0.3 0.55 L-0.35 0.55 -0.35 0.55 -0.25 0.45 -0.3 0.4 -0.3 0.4 -0.25 0.3 -0.25 0.25 -0.15 0.3 M-0.7 0.55 L-0.7 0.55 -0.8 0.4 -0.8 0.4 -0.7 0.35 -0.7 0.35 -0.65 0.45 -0.65 0.5 -0.7 0.55 M-0.6 -0.85 L-0.65 -0.9 -0.7 -0.9 -0.7 -0.9 -0.7 -0.9 -0.75 -1.05 -0.75 -1.1 -0.7 -1.1 -0.7 -1.1 -0.65 -1.05 -0.6 -1.1 -0.6 -1.15 -0.45 -1.05 -0.5 -1.0 -0.6 -0.85 M0.25 -0.9 L0.25 -0.9 M-0.1 0.05 L-0.1 0.05 M-0.35 0.55 L-0.35 0.55" fill="#2a2726" fill-rule="evenodd" stroke="none"/>
    <path d="M0.1 -0.9 L0.1 -0.9 0.0 -1.0 0.1 -1.1 0.15 -1.15 0.25 -0.9 0.25 -0.9 0.15 -0.8 0.1 -0.9 M-0.3 -0.6 L-0.25 -0.6 Q-0.25 -0.65 -0.2 -0.65 L-0.15 -0.8 -0.2 -0.9 -0.15 -0.9 Q-0.1 -0.9 0.0 -0.75 L0.0 -0.75 0.0 -0.6 0.0 -0.6 0.05 -0.6 0.05 -0.55 Q0.05 -0.5 -0.1 -0.45 -0.2 -0.55 -0.3 -0.6" fill="#1e1c1b" fill-rule="evenodd" stroke="none"/>
    <path d="M3.6 -0.1 L3.8 -0.05 4.1 -0.05 4.15 -0.05 4.15 -0.05 4.45 -0.1 4.5 -0.1 4.5 -0.1 4.55 -0.1 4.55 -0.1 4.6 -0.1 4.6 -0.1 5.2 -0.15 5.2 -0.15 Q5.8 -0.1 5.95 0.1 5.8 0.35 5.2 0.35 L4.6 0.35 4.2 0.3 3.75 0.3 3.65 0.3 3.7 0.3 3.75 0.3 3.8 0.25 3.85 0.25 3.9 0.25 3.95 0.3 4.05 0.25 4.2 0.25 4.25 0.25 4.3 0.25 4.35 0.25 4.4 0.25 4.45 0.25 4.55 0.25 4.6 0.25 4.6 0.3 4.65 0.25 4.7 0.3 4.75 0.3 4.8 0.3 4.85 0.3 4.95 0.3 5.05 0.3 5.1 0.3 5.15 0.3 5.2 0.3 5.25 0.3 5.3 0.3 5.35 0.25 5.4 0.25 5.45 0.25 5.5 0.2 5.6 0.2 5.65 0.2 5.7 0.2 5.7 0.15 Q5.75 0.1 5.85 0.1 L5.8 0.05 5.7 0.05 5.65 0.05 5.65 0.0 5.6 0.05 5.55 0.0 5.5 -0.05 5.5 -0.05 5.45 -0.05 5.4 -0.05 5.4 -0.05 5.35 -0.05 5.3 -0.05 5.25 -0.1 5.25 -0.05 5.2 -0.05 5.2 -0.05 5.15 -0.05 5.15 -0.05 5.1 -0.05 5.1 -0.1 5.05 -0.05 5.05 -0.05 5.0 -0.05 5.0 -0.1 4.95 -0.05 4.85 -0.05 4.75 -0.05 4.75 -0.05 4.65 -0.05 4.65 -0.05 4.6 -0.05 4.6 0.0 4.55 -0.05 4.55 -0.05 4.5 0.0 4.45 0.0 4.45 0.0 4.4 -0.05 4.35 -0.05 4.35 -0.05 4.3 -0.05 4.3 0.0 4.2 0.0 4.15 0.0 4.1 -0.05 4.05 -0.05 4.0 -0.05 4.0 0.0 Q4.0 0.0 3.95 -0.05 L3.9 -0.05 3.9 0.0 Q3.9 0.0 3.85 -0.05 L3.8 -0.05 3.8 -0.05 3.6 -0.05 3.6 -0.1 M3.6 0.3 L3.65 0.3 3.6 0.3" fill="#9c5748" fill-rule="evenodd" stroke="none"/>
    <path d="M-0.55 0.05 L-0.85 0.2 Q-0.9 0.3 -0.9 0.4 L-0.9 0.35 -1.0 0.4 -1.05 0.3 -1.0 0.3 -0.95 0.2 -0.95 0.2 -0.8 0.05 -0.8 0.05 -0.7 -0.05 -0.55 0.05 M-0.9 0.65 L-0.9 0.7 Q-0.9 0.8 -0.95 0.9 L-1.0 0.9 -1.05 0.9 -1.05 0.9 -1.1 0.95 -1.1 0.95 -1.1 0.85 -1.05 0.85 -1.05 0.8 Q-0.95 0.8 -0.95 0.7 L-0.95 0.7 -0.95 0.65 -0.9 0.6 -0.9 0.65 M-1.6 1.0 L-1.65 0.95 Q-1.8 0.85 -1.8 0.65 L-1.8 0.6 -1.75 0.6 -1.75 0.6 -1.7 0.6 -1.7 0.6 -1.65 0.6 -1.7 0.65 -1.65 0.7 -1.6 0.8 -1.4 0.95 -1.25 0.9 -1.25 0.9 -1.4 0.95 -1.5 0.95 -1.6 0.85 -1.6 0.95 -1.6 1.0 M-1.7 0.25 L-1.5 -0.1 -1.45 -0.15 -1.45 -0.15 -1.4 -0.1 -1.4 -0.05 -1.45 -0.05 -1.55 0.05 -1.5 0.1 -1.55 0.15 -1.6 0.2 -1.6 0.3 -1.6 0.3 -1.7 0.25 M-0.9 -0.55 L-0.7 -0.65 -0.8 -0.5 -0.8 -0.5 -0.9 -0.4 -0.95 -0.4 -0.95 -0.45 -0.9 -0.55 -0.9 -0.55 M3.6 -0.05 L3.8 -0.05 3.8 -0.05 3.85 -0.05 Q3.9 0.0 3.9 0.0 L3.9 -0.05 3.95 -0.05 Q4.0 0.0 4.0 0.0 L4.0 -0.05 4.05 -0.05 4.1 -0.05 4.15 0.0 4.2 0.0 4.3 0.0 4.3 -0.05 4.35 -0.05 4.35 -0.05 4.4 -0.05 4.45 0.0 4.45 0.0 4.5 0.0 4.55 -0.05 4.55 -0.05 4.6 0.0 4.6 -0.05 4.65 -0.05 4.65 -0.05 4.75 -0.05 4.75 -0.05 4.85 -0.05 4.95 -0.05 5.0 -0.1 5.0 -0.05 5.05 -0.05 5.05 -0.05 5.1 -0.1 5.1 -0.05 5.15 -0.05 5.15 -0.05 5.2 -0.05 5.2 -0.05 5.25 -0.05 5.25 -0.1 5.3 -0.05 5.35 -0.05 5.4 -0.05 5.4 -0.05 5.45 -0.05 5.5 -0.05 5.5 -0.05 5.55 0.0 5.6 0.05 5.65 0.0 5.65 0.05 5.7 0.05 5.8 0.05 5.85 0.1 Q5.75 0.1 5.7 0.15 L5.7 0.2 5.65 0.2 5.6 0.2 5.5 0.2 5.45 0.25 5.4 0.25 5.35 0.25 5.3 0.3 5.25 0.3 5.2 0.3 5.15 0.3 5.1 0.3 5.05 0.3 4.95 0.3 4.85 0.3 4.8 0.3 4.75 0.3 4.7 0.3 4.65 0.25 4.6 0.3 4.6 0.25 4.55 0.25 4.45 0.25 4.4 0.25 4.35 0.25 4.3 0.25 4.25 0.25 4.2 0.25 4.05 0.25 3.95 0.3 3.9 0.25 3.85 0.25 3.8 0.25 3.75 0.3 3.7 0.3 3.65 0.3 3.6 0.3 3.6 0.2 4.6 0.2 4.6 0.25 5.3 0.25 5.35 0.25 5.45 0.2 5.5 0.2 5.55 0.15 5.6 0.1 5.45 0.0 5.4 0.0 5.3 0.0 5.3 0.0 5.25 0.0 5.25 -0.05 5.2 -0.05 5.2 -0.05 5.15 0.0 5.05 0.0 4.6 0.0 4.6 0.05 4.0 0.05 3.95 0.0 3.9 0.05 3.9 0.0 3.85 0.0 3.85 0.0 3.8 0.0 3.8 0.0 3.75 0.0 3.7 0.0 3.7 0.0 3.65 0.0 3.6 0.0 3.6 -0.05 M5.1 0.1 L5.2 0.15 5.15 0.15 5.15 0.2 5.1 0.15 5.05 0.1 5.1 0.1" fill="#5b271c" fill-rule="evenodd" stroke="none"/>
    <path d="M-1.8 0.6 Q-1.75 0.45 -1.7 0.25 L-1.6 0.3 -1.6 0.4 -1.6 0.45 -1.65 0.55 -1.65 0.6 -1.7 0.6 -1.7 0.6 -1.75 0.6 -1.75 0.6 -1.8 0.6 M-1.15 -0.4 L-0.9 -0.55 -0.9 -0.55 -0.95 -0.45 -0.95 -0.4 -1.1 -0.3 -1.15 -0.35 -1.15 -0.4 M-0.95 0.7 L-0.95 0.7 Q-0.95 0.8 -1.05 0.8 L-1.05 0.85 -1.1 0.85 -1.1 0.95 -1.15 1.0 -1.2 0.95 -1.1 0.9 -1.1 0.9 -1.15 0.9 -1.25 0.9 -1.15 0.8 -1.15 0.8 -1.1 0.65 -1.1 0.6 -1.05 0.7 -1.05 0.65 -1.0 0.65 -1.0 0.7 -0.95 0.7 M-1.25 0.9 L-1.25 0.9" fill="#873a29" fill-rule="evenodd" stroke="none"/>
    <path d="M-0.15 -1.35 L-0.25 -1.3 -0.25 -1.5 -0.25 -1.55 -0.25 -1.7 -0.25 -1.8 -0.3 -1.85 Q-0.5 -1.85 -0.5 -1.75 L-0.5 -1.7 -0.45 -1.6 -0.5 -1.5 -0.5 -1.4 -0.45 -1.3 -0.35 -1.2 -0.35 -1.1 -0.45 -1.05 -0.6 -1.15 -0.8 -1.3 -0.9 -1.2 -0.85 -1.15 -0.8 -1.1 -0.85 -1.05 -0.9 -1.0 -0.85 -0.9 -0.8 -0.85 -0.75 -0.85 -0.7 -0.9 -0.7 -0.9 -0.65 -0.9 -0.6 -0.85 -0.6 -0.8 -0.6 -0.75 -0.6 -0.75 -0.7 -0.65 -0.9 -0.55 -1.15 -0.4 -1.45 -0.15 -1.5 -0.1 -1.7 0.25 Q-1.75 0.45 -1.8 0.6 L-1.8 0.65 Q-1.8 0.85 -1.65 0.95 L-1.6 1.0 Q-1.45 1.1 -1.25 1.1 -1.1 1.1 -0.95 0.9 L-0.95 0.9 Q-0.9 0.8 -0.9 0.7 L-0.9 0.65 -0.9 0.4 Q-0.9 0.3 -0.85 0.2 L-0.55 0.05 -0.4 0.05 -0.35 0.05 Q-0.25 0.1 -0.25 0.25 L-0.25 0.3 -0.3 0.4 -0.35 0.4 -0.5 0.5 -0.55 0.5 -0.65 0.45 -0.7 0.35 -0.7 0.35 -0.8 0.4 -0.8 0.4 -0.7 0.55 -0.7 0.55 -0.55 0.6 -0.35 0.55 -0.3 0.55 Q-0.15 0.45 -0.15 0.3 L-0.15 0.25 Q-0.2 0.15 -0.1 0.05 L-0.05 0.05 Q0.0 0.0 0.15 0.0 L0.2 0.0 0.25 0.05 0.3 0.05 0.35 0.0 0.7 0.0 0.75 0.0 1.8 -0.05 2.2 -0.05 3.15 0.0 3.15 0.0 3.1 0.1 3.1 0.15 3.05 0.2 3.0 0.2 3.05 0.25 3.1 0.25 3.15 0.25 3.2 0.3 3.3 0.3 3.25 0.35 3.3 0.4 3.35 0.5 3.4 0.45 3.45 0.35 3.35 0.3 3.4 0.3 3.45 0.3 3.55 0.35 3.65 0.3 3.75 0.3 4.2 0.3 4.6 0.35 5.2 0.35 Q5.8 0.35 5.95 0.1 5.8 -0.1 5.2 -0.15 L5.2 -0.15 4.6 -0.1 4.6 -0.1 4.55 -0.1 4.55 -0.1 4.5 -0.1 4.5 -0.1 4.45 -0.1 4.15 -0.05 4.15 -0.05 4.1 -0.05 3.8 -0.05 3.6 -0.1 3.6 -0.1 3.65 -0.2 3.65 -0.2 3.65 -0.25 3.65 -0.25 3.85 -0.25 4.1 -0.25 4.4 -0.25 4.4 -0.25 4.5 -0.3 4.65 -0.3 Q4.75 -0.3 4.75 -0.5 L4.75 -0.65 4.75 -0.75 4.7 -0.8 4.7 -0.85 4.6 -0.9 4.6 -0.9 4.55 -1.0 4.5 -1.0 4.45 -0.9 4.45 -0.9 4.4 -0.75 4.3 -0.75 4.1 -0.75 4.05 -0.75 4.0 -0.75 4.0 -0.75 3.75 -0.75 3.5 -0.75 3.5 -0.8 Q3.5 -0.85 3.3 -0.9 L3.3 -0.9 2.9 -0.95 2.55 -0.95 2.5 -0.95 2.1 -0.9 1.7 -0.9 1.4 -0.9 1.0 -0.9 0.75 -0.9 0.55 -0.9 0.45 -0.9 0.35 -0.85 0.35 -0.85 0.3 -0.85 0.25 -0.9 0.35 -0.95 0.35 -1.0 0.5 -1.1 0.55 -1.1 Q0.55 -1.1 0.6 -1.1 L0.6 -1.15 0.55 -1.25 0.5 -1.3 0.4 -1.25 0.25 -1.2 0.2 -1.15 0.15 -1.15 0.1 -1.1 0.1 -1.3 0.1 -1.35 0.0 -1.4 -0.05 -1.4 -0.15 -1.35 M-0.2 -1.25 L-0.1 -1.25 Q-0.05 -1.25 -0.05 -1.2 L-0.05 -1.05 -0.1 -1.1 -0.15 -1.15 -0.15 -1.2 -0.2 -1.25 -0.2 -1.25 M3.35 -0.05 L3.3 -0.1 3.35 -0.15 3.4 -0.1 3.4 -0.1 3.35 -0.05 Z" fill="none" stroke="#000000" stroke-linecap="round" stroke-linejoin="round" stroke-opacity="0.4" stroke-width="0.15000000000000002"/>
  </g>
</svg>
