<?xml version="1.0" encoding="UTF-8" standalone="no"?>
<svg xmlns:xlink="http://www.w3.org/1999/xlink" height="3.05px" width="5.95px" xmlns="http://www.w3.org/2000/svg">
  <g transform="matrix(1.0, 0.0, 0.0, 1.0, 1.65, 1.9)">
    <path d="M-0.1 -1.5 Q0.05 -1.5 0.15 -1.4 0.25 -1.35 0.15 -1.3 L0.0 -1.3 -0.2 -1.3 Q-0.05 -1.3 -0.1 -1.35 L-0.25 -1.4 -0.2 -1.45 -0.1 -1.5" fill="#aaa4a4" fill-rule="evenodd" stroke="none"/>
    <path d="M0.55 -1.15 L0.45 -1.3 Q0.4 -1.45 0.45 -1.5 L0.6 -1.4 0.7 -1.25 0.6 -1.2 0.55 -1.15" fill="#8d8785" fill-rule="evenodd" stroke="none"/>
    <path d="M0.9 -1.0 L0.95 -1.0 0.9 -0.95 Q0.85 -0.9 0.8 -0.9 L0.95 -0.9 1.05 -0.85 1.05 -0.75 0.95 -0.7 0.8 -0.75 0.65 -0.7 0.65 -0.9 Q0.65 -0.8 0.75 -0.75 0.85 -0.7 0.95 -0.75 L0.85 -0.85 0.7 -0.85 0.75 -0.95 Q0.85 -1.0 0.9 -1.0 M-0.95 0.4 L-0.9 0.45 -0.9 0.55 -0.95 0.55 -1.0 0.55 -1.05 0.5 -1.0 0.45 -1.0 0.45 -0.95 0.4" fill="#201b1a" fill-rule="evenodd" stroke="none"/>
    <path d="M0.65 -0.9 L0.55 -1.15 0.6 -1.2 0.7 -1.25 0.75 -1.15 Q0.75 -1.05 0.8 -1.1 L0.9 -1.15 Q0.95 -1.1 0.9 -1.0 0.85 -1.0 0.75 -0.95 L0.7 -0.85 0.85 -0.85 0.95 -0.75 Q0.85 -0.7 0.75 -0.75 0.65 -0.8 0.65 -0.9" fill="#5c5451" fill-rule="evenodd" stroke="none"/>
    <path d="M0.95 -1.0 L1.0 -1.0 1.15 -1.0 Q1.25 -1.0 1.2 -0.95 1.15 -0.85 1.2 -0.8 L1.25 -0.7 Q1.25 -0.65 1.2 -0.65 L1.1 -0.6 Q1.1 -0.55 1.0 -0.55 0.95 -0.55 0.95 -0.65 0.95 -0.75 0.75 -0.7 L0.65 -0.65 Q0.6 -0.65 0.65 -0.7 L0.8 -0.75 0.95 -0.7 1.05 -0.75 1.05 -0.85 0.95 -0.9 0.8 -0.9 Q0.85 -0.9 0.9 -0.95 L0.95 -1.0" fill="#6d6765" fill-rule="evenodd" stroke="none"/>
    <path d="M0.6 -0.9 L0.65 -0.9 0.65 -0.7 Q0.6 -0.65 0.65 -0.65 L0.75 -0.7 Q0.95 -0.75 0.95 -0.65 0.95 -0.55 1.0 -0.55 1.1 -0.55 1.1 -0.6 L1.2 -0.65 Q1.25 -0.65 1.25 -0.7 L1.55 -0.7 1.75 -0.7 2.2 -0.65 1.85 -0.65 1.55 -0.65 1.45 -0.65 1.45 -0.6 1.45 -0.6 1.35 -0.65 1.25 -0.65 1.15 -0.55 Q1.15 -0.5 1.15 -0.45 L0.9 -0.5 0.65 -0.5 0.7 -0.55 0.6 -0.55 0.35 -0.55 0.15 -0.5 0.1 -0.55 0.1 -0.55 Q0.1 -0.45 0.1 -0.4 0.1 -0.4 0.05 -0.5 L-0.05 -0.5 -0.05 -0.45 -0.15 -0.5 Q-0.1 -0.45 -0.15 -0.45 L-0.25 -0.45 -0.25 -0.3 -0.35 -0.35 -0.35 -0.5 -0.45 -0.5 -0.5 -0.5 -0.55 -0.45 -0.8 -0.4 -0.9 -0.4 -0.9 -0.35 -1.0 -0.35 -1.0 -0.3 -1.25 -0.3 -1.05 -0.4 -1.0 -0.45 -1.0 -0.45 -0.9 -0.55 Q-0.85 -0.45 -0.75 -0.45 L-0.65 -0.5 -0.55 -0.55 -0.5 -0.55 -0.4 -0.55 0.0 -0.55 0.6 -0.6 0.6 -0.9 M3.05 -0.65 L3.2 -0.65 3.7 -0.65 3.3 -0.6 3.05 -0.65 3.05 -0.65 3.05 -0.65 3.05 -0.65" fill="#9e9896" fill-rule="evenodd" stroke="none"/>
    <path d="M0.2 -0.8 L0.35 -0.75 0.5 -0.75 0.55 -0.9 0.6 -0.9 0.6 -0.6 0.0 -0.55 -0.4 -0.55 -0.5 -0.55 -0.55 -0.55 -0.65 -0.5 -0.75 -0.45 Q-0.85 -0.45 -0.9 -0.55 L-0.95 -0.65 -0.85 -0.7 -0.75 -0.7 -0.75 -0.6 -0.75 -0.55 -0.5 -0.6 0.1 -0.65 Q-0.05 -0.7 0.15 -0.7 L0.45 -0.7 0.25 -0.7 Q0.15 -0.7 0.2 -0.8" fill="#47413e" fill-rule="evenodd" stroke="none"/>
    <path d="M0.25 -0.85 L0.2 -0.8 Q0.15 -0.7 0.25 -0.7 L0.45 -0.7 0.15 -0.7 Q-0.05 -0.7 0.1 -0.65 L-0.5 -0.6 -0.75 -0.55 -0.75 -0.6 -0.55 -0.65 0.0 -0.7 -0.05 -0.8 -0.15 -0.8 -0.2 -0.85 -0.25 -0.95 Q-0.3 -1.05 -0.3 -1.15 L-0.25 -1.0 -0.2 -1.1 -0.15 -1.0 Q-0.1 -0.85 0.0 -0.95 L0.15 -0.95 0.25 -0.85 M0.0 -0.95 L0.0 -0.95" fill="#9a9592" fill-rule="evenodd" stroke="none"/>
    <path d="M-0.1 -1.5 L-0.2 -1.45 -0.25 -1.4 -0.1 -1.35 Q-0.05 -1.3 -0.2 -1.3 -0.25 -1.3 -0.25 -1.25 L-0.25 -1.2 -0.05 -1.2 0.15 -1.2 0.05 -1.15 Q0.0 -1.15 0.05 -1.1 0.0 -1.05 0.05 -1.0 0.1 -1.0 0.2 -0.95 L0.3 -0.9 0.25 -0.85 0.15 -0.95 0.0 -0.95 Q0.05 -1.05 -0.05 -1.1 L-0.1 -1.1 -0.15 -1.05 -0.1 -1.0 0.0 -0.95 Q-0.1 -0.85 -0.15 -1.0 L-0.2 -1.1 -0.25 -1.0 -0.3 -1.15 -0.35 -1.4 -0.4 -1.65 -0.35 -1.65 -0.35 -1.75 -0.3 -1.7 -0.25 -1.7 -0.25 -1.7 -0.3 -1.75 -0.25 -1.75 -0.25 -1.8 -0.3 -1.8 -0.2 -1.8 -0.2 -1.7 Q-0.15 -1.5 -0.1 -1.5" fill="#615c59" fill-rule="evenodd" stroke="none"/>
    <path d="M0.0 -0.95 L0.0 -0.95 -0.1 -1.0 -0.15 -1.05 -0.1 -1.1 -0.05 -1.1 Q0.05 -1.05 0.0 -0.95" fill="#f0ebeb" fill-rule="evenodd" stroke="none"/>
    <path d="M-0.2 -1.3 L0.0 -1.3 0.15 -1.3 0.2 -1.25 Q0.2 -1.15 0.15 -1.2 L-0.05 -1.2 -0.25 -1.2 -0.25 -1.25 Q-0.25 -1.3 -0.2 -1.3" fill="#27221f" fill-rule="evenodd" stroke="none"/>
    <path d="M0.3 -0.3 L0.4 -0.3 Q0.45 -0.3 0.4 -0.35 L0.5 -0.4 0.55 -0.4 Q0.65 -0.4 0.65 -0.5 L0.9 -0.5 1.15 -0.45 Q1.15 -0.4 1.2 -0.4 L1.25 -0.4 1.4 -0.45 1.55 -0.4 2.0 -0.35 2.35 -0.4 2.65 -0.35 Q2.6 -0.3 2.3 -0.3 L2.1 -0.35 1.9 -0.35 1.75 -0.35 1.6 -0.35 1.55 -0.35 Q1.4 -0.35 1.35 -0.25 L1.2 -0.3 1.15 -0.25 1.15 -0.3 Q1.15 -0.25 1.0 -0.25 L0.9 -0.3 0.8 -0.25 0.7 -0.25 0.65 -0.3 0.65 -0.2 0.8 -0.15 0.75 -0.1 0.75 -0.05 0.7 -0.1 0.7 -0.15 0.65 -0.15 0.65 -0.05 0.3 -0.2 0.3 -0.3 M3.05 -0.3 L3.05 -0.35 3.5 -0.35 3.8 -0.35 4.15 -0.35 Q4.05 -0.25 3.8 -0.25 L3.6 -0.3 3.4 -0.3 3.25 -0.3 3.1 -0.3 3.05 -0.3" fill="#625b5b" fill-rule="evenodd" stroke="none"/>
    <path d="M-0.05 0.1 L-0.05 0.1 -0.1 0.05 -0.15 0.05 -0.15 0.05 -0.25 0.05 -0.35 0.05 -0.3 0.0 -0.3 -0.1 Q-0.3 -0.2 -0.25 -0.2 -0.2 -0.2 -0.2 -0.25 L-0.25 -0.3 -0.25 -0.45 -0.15 -0.45 Q-0.1 -0.45 -0.15 -0.5 L-0.05 -0.45 -0.05 -0.5 0.05 -0.5 Q0.1 -0.4 0.1 -0.4 0.1 -0.45 0.1 -0.55 L0.1 -0.55 0.15 -0.5 0.35 -0.55 0.6 -0.55 0.7 -0.55 0.65 -0.5 Q0.65 -0.4 0.55 -0.4 L0.5 -0.4 0.4 -0.35 Q0.45 -0.3 0.4 -0.3 L0.3 -0.3 Q0.2 -0.3 0.2 -0.35 0.15 -0.4 0.3 -0.4 L0.35 -0.45 0.3 -0.45 0.2 -0.5 0.15 -0.4 0.05 -0.3 -0.05 -0.2 -0.05 -0.1 0.05 -0.1 Q0.1 -0.1 0.05 -0.15 0.1 -0.1 0.2 -0.1 L0.3 -0.2 0.65 -0.05 0.65 -0.15 0.7 -0.15 0.7 -0.1 0.75 -0.05 0.7 0.0 0.65 0.05 0.55 0.05 0.5 0.0 0.35 0.0 0.3 0.05 0.25 0.05 Q0.2 0.05 0.2 0.15 L0.25 0.25 0.2 0.2 0.15 0.1 Q0.15 0.05 0.1 0.05 L0.0 0.05 -0.05 0.1 -0.05 0.1" fill="#bbb8b5" fill-rule="evenodd" stroke="none"/>
    <path d="M0.3 -0.2 L0.2 -0.1 Q0.1 -0.1 0.05 -0.15 0.1 -0.1 0.05 -0.1 L-0.05 -0.1 -0.05 -0.2 0.05 -0.3 0.15 -0.4 0.2 -0.5 0.3 -0.45 0.35 -0.45 0.3 -0.4 Q0.15 -0.4 0.2 -0.35 0.2 -0.3 0.3 -0.3 L0.3 -0.2" fill="#e5e4e2" fill-rule="evenodd" stroke="none"/>
    <path d="M4.2 0.1 Q4.2 0.15 4.15 0.2 L4.0 0.15 4.15 0.15 Q4.2 0.15 4.15 0.1 L3.5 0.05 3.05 0.05 3.05 -0.05 3.35 -0.05 3.75 0.0 3.85 0.0 4.0 0.0 Q4.15 0.0 4.2 0.1 M2.7 0.15 L2.65 0.15 2.55 0.1 2.65 0.15 2.7 0.1 2.65 0.05 2.05 0.05 1.55 0.0 1.45 0.0 Q1.4 0.0 1.35 -0.05 1.3 -0.1 1.3 -0.05 L1.25 0.0 1.15 0.0 1.15 -0.1 Q1.15 -0.15 1.1 -0.1 1.1 -0.05 1.05 -0.05 1.0 -0.05 0.95 -0.1 L0.95 -0.05 Q0.9 -0.05 0.9 -0.1 0.9 -0.05 0.85 -0.05 L0.75 -0.05 0.75 -0.1 0.8 -0.15 0.65 -0.2 0.65 -0.3 0.7 -0.25 0.8 -0.25 0.9 -0.3 1.0 -0.25 Q1.15 -0.25 1.15 -0.3 L1.15 -0.25 1.2 -0.3 1.35 -0.25 1.4 -0.2 1.35 -0.2 1.4 -0.15 Q1.25 -0.15 1.3 -0.1 L1.5 -0.05 1.55 -0.05 1.85 -0.05 2.25 -0.05 2.4 -0.05 2.55 -0.05 Q2.7 -0.05 2.75 0.05 L2.7 0.15" fill="#afabaa" fill-rule="evenodd" stroke="none"/>
    <path d="M4.0 0.15 L3.1 0.15 3.05 0.15 3.05 0.05 3.5 0.05 4.15 0.1 Q4.2 0.15 4.15 0.15 L4.0 0.15 M2.55 0.1 L1.65 0.1 1.55 0.1 0.75 0.1 0.75 0.3 0.7 0.15 Q0.7 0.1 0.65 0.05 L0.7 0.0 0.75 -0.05 0.85 -0.05 Q0.9 -0.05 0.9 -0.1 0.9 -0.05 0.95 -0.05 L0.95 -0.1 Q1.0 -0.05 1.05 -0.05 1.1 -0.05 1.1 -0.1 1.15 -0.15 1.15 -0.1 L1.15 0.0 1.25 0.0 1.3 -0.05 Q1.3 -0.1 1.35 -0.05 1.4 0.0 1.45 0.0 L1.55 0.0 2.05 0.05 2.65 0.05 2.7 0.1 2.65 0.15 2.55 0.1" fill="#787372" fill-rule="evenodd" stroke="none"/>
    <path d="M2.2 -0.65 L2.3 -0.7 2.35 -0.65 Q2.05 -0.65 2.35 -0.65 L2.7 -0.65 2.7 -0.65 2.75 -0.5 2.75 -0.35 2.7 -0.4 2.65 -0.35 2.35 -0.4 2.0 -0.35 1.55 -0.4 1.4 -0.45 1.55 -0.45 2.05 -0.45 2.7 -0.45 2.7 -0.5 2.65 -0.55 2.05 -0.6 1.55 -0.6 1.45 -0.6 1.45 -0.65 1.55 -0.65 1.85 -0.65 2.2 -0.65 M3.7 -0.65 L3.75 -0.65 3.85 -0.6 Q3.55 -0.6 3.85 -0.6 L4.2 -0.6 4.25 -0.45 4.2 -0.3 4.2 -0.35 Q4.15 -0.35 4.15 -0.35 L3.8 -0.35 3.5 -0.35 3.05 -0.35 3.05 -0.4 3.5 -0.4 4.2 -0.4 4.2 -0.5 4.15 -0.55 3.5 -0.55 3.05 -0.55 3.05 -0.55 3.05 -0.65 3.05 -0.65 3.3 -0.6 3.7 -0.65" fill="#c5bfbf" fill-rule="evenodd" stroke="none"/>
    <path d="M1.45 -0.6 L1.45 -0.6 1.55 -0.6 2.05 -0.6 2.65 -0.55 2.7 -0.5 2.7 -0.45 2.05 -0.45 1.55 -0.45 1.4 -0.45 Q1.45 -0.55 1.35 -0.6 L1.3 -0.6 1.45 -0.6 M1.75 -0.55 L1.6 -0.55 1.55 -0.55 1.5 -0.5 1.55 -0.5 1.95 -0.5 2.4 -0.5 Q2.45 -0.45 2.45 -0.45 2.5 -0.45 2.5 -0.5 L2.5 -0.55 2.45 -0.55 2.1 -0.55 1.75 -0.55 M3.05 -0.45 L3.05 -0.5 3.05 -0.5 3.05 -0.55 3.05 -0.55 3.5 -0.55 4.15 -0.55 4.2 -0.5 4.2 -0.4 3.5 -0.4 3.05 -0.4 3.05 -0.45 M3.05 -0.5 L3.45 -0.45 3.85 -0.45 Q3.9 -0.45 3.9 -0.45 L3.95 -0.45 3.95 -0.5 3.9 -0.5 3.55 -0.5 3.2 -0.5 3.1 -0.5 3.05 -0.5" fill="#4b4544" fill-rule="evenodd" stroke="none"/>
    <path d="M1.4 -0.45 L1.25 -0.4 1.2 -0.4 Q1.15 -0.4 1.15 -0.45 1.15 -0.5 1.15 -0.55 L1.25 -0.65 1.35 -0.65 1.45 -0.6 1.3 -0.6 1.35 -0.6 Q1.45 -0.55 1.4 -0.45" fill="#cfcbcb" fill-rule="evenodd" stroke="none"/>
    <path d="M2.8 -0.65 L2.85 -0.65 2.85 -0.65 2.85 -0.55 2.85 -0.45 2.8 -0.3 2.8 -0.05 2.8 0.0 2.75 0.1 2.85 0.1 2.9 0.1 2.95 0.1 2.95 0.0 Q2.9 -0.05 2.9 -0.1 L2.9 -0.3 2.95 -0.4 2.95 -0.45 2.95 -0.6 2.9 -0.65 2.9 -0.65 2.95 -0.65 2.95 -0.55 2.95 -0.55 2.95 -0.5 2.95 -0.45 2.95 -0.4 3.0 -0.4 2.95 -0.35 2.95 -0.35 2.95 -0.3 3.0 -0.3 2.95 -0.25 3.0 -0.25 3.0 -0.25 3.0 -0.35 3.0 -0.45 3.05 -0.45 3.05 -0.4 3.05 -0.35 3.05 -0.3 3.05 -0.25 3.05 -0.2 3.5 -0.15 Q3.9 -0.15 4.15 -0.2 L4.15 -0.1 4.15 -0.1 3.5 -0.1 3.05 -0.1 3.05 -0.05 3.05 0.05 3.05 0.15 3.0 0.15 3.0 0.2 2.95 0.2 2.9 0.15 2.8 0.15 2.75 0.15 2.75 0.15 2.7 0.15 2.75 0.05 2.75 -0.05 2.75 -0.2 2.75 -0.2 2.8 -0.25 2.8 -0.3 2.8 -0.3 2.8 -0.35 2.8 -0.35 2.8 -0.4 2.8 -0.4 2.8 -0.45 2.8 -0.5 2.85 -0.55 2.8 -0.6 2.8 -0.6 2.8 -0.65 M1.5 -0.05 L1.3 -0.1 Q1.25 -0.15 1.4 -0.15 L1.35 -0.2 1.4 -0.2 1.55 -0.25 2.05 -0.2 Q2.45 -0.2 2.65 -0.2 L2.7 -0.15 2.65 -0.15 2.05 -0.15 1.55 -0.15 1.5 -0.15 1.55 -0.15 1.5 -0.05" fill="#241d1d" fill-rule="evenodd" stroke="none"/>
    <path d="M1.4 -0.2 L1.35 -0.25 1.55 -0.25 2.0 -0.25 2.65 -0.2 Q2.45 -0.2 2.05 -0.2 L1.55 -0.25 1.4 -0.2 M4.15 -0.2 Q3.9 -0.15 3.5 -0.15 L3.05 -0.2 3.05 -0.25 3.5 -0.2 4.15 -0.2" fill="#645e5c" fill-rule="evenodd" stroke="none"/>
    <path d="M1.75 -0.55 L2.1 -0.55 2.45 -0.55 2.5 -0.55 2.5 -0.5 Q2.5 -0.45 2.45 -0.45 2.45 -0.45 2.4 -0.5 L1.95 -0.5 1.55 -0.5 1.5 -0.5 1.55 -0.55 1.6 -0.55 1.75 -0.55 M3.05 -0.5 L3.05 -0.5 3.1 -0.5 3.2 -0.5 3.55 -0.5 3.9 -0.5 3.95 -0.5 3.95 -0.45 3.9 -0.45 Q3.9 -0.45 3.85 -0.45 L3.45 -0.45 3.05 -0.5" fill="#918b8a" fill-rule="evenodd" stroke="none"/>
    <path d="M4.2 -0.3 L4.25 -0.15 4.2 0.0 4.2 0.0 4.15 -0.05 4.15 -0.1 4.15 -0.1 4.15 -0.2 3.5 -0.2 3.05 -0.25 3.05 -0.3 3.1 -0.3 3.25 -0.3 3.4 -0.3 3.6 -0.3 3.8 -0.25 Q4.05 -0.25 4.15 -0.35 4.15 -0.35 4.2 -0.35 L4.2 -0.3 M1.35 -0.25 Q1.4 -0.35 1.55 -0.35 L1.6 -0.35 1.75 -0.35 1.9 -0.35 2.1 -0.35 2.3 -0.3 Q2.6 -0.3 2.65 -0.35 L2.7 -0.4 2.75 -0.35 2.75 -0.2 2.75 -0.2 2.75 -0.05 Q2.7 0.0 2.7 -0.05 L2.7 -0.1 2.65 -0.1 2.65 -0.15 2.7 -0.15 2.65 -0.2 2.0 -0.25 1.55 -0.25 1.35 -0.25 M2.6 -0.1 L2.6 -0.1 2.65 -0.1 2.6 -0.1" fill="#a49e9c" fill-rule="evenodd" stroke="none"/>
    <path d="M4.2 0.0 L4.2 0.1 Q4.15 0.0 4.0 0.0 L3.85 0.0 3.75 0.0 3.35 -0.05 3.05 -0.05 3.05 -0.1 3.5 -0.1 4.15 -0.1 4.15 -0.05 4.2 0.0 4.2 0.0 M2.65 -0.15 L2.65 -0.1 2.7 -0.1 2.7 -0.05 Q2.7 0.0 2.75 -0.05 L2.75 0.05 Q2.7 -0.05 2.55 -0.05 L2.4 -0.05 2.25 -0.05 1.85 -0.05 1.55 -0.05 1.5 -0.05 1.55 -0.15 1.5 -0.15 1.55 -0.15 2.05 -0.15 2.65 -0.15 M2.6 -0.1 L2.65 -0.1 2.6 -0.1 2.6 -0.1" fill="#6c6767" fill-rule="evenodd" stroke="none"/>
    <path d="M2.7 -0.65 L2.75 -0.65 2.75 -0.7 2.75 -0.65 2.8 -0.55 2.8 -0.7 2.8 -0.65 2.8 -0.6 2.8 -0.6 2.85 -0.55 2.8 -0.5 2.8 -0.45 2.8 -0.4 2.8 -0.4 2.8 -0.35 2.8 -0.35 2.8 -0.3 2.8 -0.3 2.8 -0.25 2.75 -0.2 2.75 -0.35 2.75 -0.5 2.7 -0.65 M2.95 -0.65 L3.0 -0.7 3.0 -0.7 3.0 -0.5 3.05 -0.5 3.05 -0.45 3.0 -0.45 3.0 -0.35 3.0 -0.25 3.0 -0.25 2.95 -0.25 3.0 -0.3 2.95 -0.3 2.95 -0.35 2.95 -0.35 3.0 -0.4 2.95 -0.4 2.95 -0.45 2.95 -0.5 2.95 -0.55 2.95 -0.55 2.95 -0.65 M3.05 -0.7 L3.05 -0.65 3.05 -0.7 M2.85 -0.45 L2.85 -0.45 2.9 -0.45 2.9 -0.45 2.95 -0.45 2.95 -0.4 2.9 -0.3 2.9 -0.1 Q2.9 -0.05 2.95 0.0 L2.95 0.1 2.9 0.1 2.85 0.1 2.75 0.1 2.8 0.0 2.8 -0.05 2.8 -0.3 2.85 -0.45 M3.05 -0.65 L3.05 -0.65 M3.05 -0.5 L3.05 -0.5 3.05 -0.5" fill="#483a3a" fill-rule="evenodd" stroke="none"/>
    <path d="M2.75 -0.7 L2.75 -0.7 2.8 -0.7 2.8 -0.55 2.75 -0.65 2.75 -0.7 M2.85 -0.65 L2.9 -0.65 2.9 -0.65 2.9 -0.65 2.95 -0.6 2.95 -0.45 2.9 -0.45 2.9 -0.45 2.85 -0.45 2.85 -0.45 2.85 -0.55 2.85 -0.65 M3.0 -0.7 L3.0 -0.7 3.05 -0.7 3.05 -0.65 3.05 -0.65 3.05 -0.55 3.05 -0.5 3.0 -0.5 3.0 -0.7" fill="#7b6363" fill-rule="evenodd" stroke="none"/>
    <path d="M2.35 -0.65 L2.55 -0.65 2.7 -0.65 2.35 -0.65 Q2.05 -0.65 2.35 -0.65 M3.85 -0.6 L4.0 -0.6 4.2 -0.6 3.85 -0.6 Q3.55 -0.6 3.85 -0.6" fill="#64605f" fill-rule="evenodd" stroke="none"/>
    <path d="M0.75 0.3 L0.55 0.55 0.3 0.55 Q0.15 0.5 0.05 0.4 -0.05 0.3 -0.05 0.15 L-0.05 0.1 -0.05 0.1 0.0 0.05 0.0 0.2 0.1 0.3 0.2 0.35 Q0.25 0.35 0.25 0.25 L0.2 0.15 Q0.2 0.05 0.25 0.05 L0.25 0.2 0.3 0.4 0.55 0.45 Q0.65 0.4 0.75 0.3" fill="#534e4b" fill-rule="evenodd" stroke="none"/>
    <path d="M-1.25 -0.25 L-1.25 -0.25 -1.2 -0.25 -1.15 -0.25 -1.15 -0.25 -1.1 -0.25 -0.95 -0.3 -0.9 -0.3 -0.85 -0.35 -0.8 -0.35 -0.85 -0.3 -0.85 -0.3 -0.9 -0.25 -0.9 -0.25 -0.95 -0.2 -1.0 -0.15 -0.95 -0.15 -0.95 -0.1 -1.0 -0.05 -1.3 -0.25 -1.25 -0.25" fill="#9a817a" fill-rule="evenodd" stroke="none"/>
    <path d="M-1.55 0.1 L-1.5 0.1 Q-1.45 -0.1 -1.25 -0.3 L-1.0 -0.3 -1.0 -0.35 -0.9 -0.35 -0.9 -0.4 -0.8 -0.4 -0.55 -0.45 -0.5 -0.5 -0.45 -0.5 -0.45 -0.45 -0.45 -0.45 -0.5 -0.45 -0.5 -0.4 -0.5 -0.35 -0.5 -0.35 -0.55 -0.4 -0.6 -0.35 -0.7 -0.35 -0.7 -0.3 -0.65 -0.3 -0.65 -0.3 -0.7 -0.25 -0.7 -0.2 Q-0.75 -0.2 -0.75 -0.25 L-0.8 -0.25 -0.85 -0.25 -0.9 -0.2 -0.9 -0.2 -0.85 -0.2 -0.85 -0.15 -0.95 -0.1 -0.95 -0.1 -0.9 -0.05 Q-0.8 -0.05 -0.8 0.0 L-0.85 0.0 -0.85 0.0 -0.95 0.0 -1.0 0.0 -1.0 0.05 -0.95 0.05 -0.95 0.05 -1.05 0.05 -1.1 0.0 -1.1 -0.05 -1.15 -0.05 -1.15 -0.05 -1.2 -0.05 -1.2 -0.1 Q-1.25 -0.1 -1.3 -0.05 L-1.35 0.0 -1.35 0.05 -1.35 0.0 -1.4 0.0 -1.4 -0.05 -1.45 0.05 -1.5 0.1 -1.55 0.1 M-1.25 -0.25 L-1.3 -0.25 -1.0 -0.05 -0.95 -0.1 -0.95 -0.15 -1.0 -0.15 -0.95 -0.2 -0.9 -0.25 -0.9 -0.25 -0.85 -0.3 -0.85 -0.3 -0.8 -0.35 -0.85 -0.35 -0.9 -0.3 -0.95 -0.3 -1.1 -0.25 -1.15 -0.25 -1.15 -0.25 -1.2 -0.25 -1.25 -0.25 -1.25 -0.25" fill="#75625d" fill-rule="evenodd" stroke="none"/>
    <path d="M-0.4 0.05 Q-0.55 0.05 -0.65 0.1 L-0.8 0.2 -0.85 0.35 -0.8 0.35 -0.8 0.45 -0.75 0.4 Q-0.7 0.5 -0.7 0.6 L-0.7 0.8 -0.75 0.8 -0.8 0.85 -0.85 0.9 -0.9 0.95 -0.95 1.0 -1.05 1.0 -1.15 1.0 -1.2 0.95 Q-1.25 0.95 -1.25 0.9 L-1.3 0.85 -1.25 0.85 -1.25 0.8 -1.2 0.85 -1.2 0.85 -1.15 0.85 -1.15 0.85 Q-1.15 0.85 -1.1 0.85 L-1.1 0.85 -1.05 0.85 -1.0 0.85 -1.0 0.85 -0.9 0.8 -0.85 0.7 -0.85 0.65 -0.9 0.65 -0.95 0.65 -0.95 0.65 -1.0 0.6 -1.0 0.6 -1.1 0.65 -1.25 0.7 -1.25 0.75 -1.25 0.75 -1.3 0.7 -1.35 0.7 -1.35 0.75 -1.45 0.6 -1.5 0.4 -1.45 0.35 -1.45 0.35 -1.4 0.4 -1.35 0.45 -1.3 0.5 -1.25 0.45 -1.15 0.5 -1.1 0.45 -1.05 0.4 -1.0 0.35 Q-1.0 0.3 -1.05 0.3 L-1.1 0.3 -1.15 0.3 -1.15 0.3 -1.2 0.3 -1.15 0.3 -1.15 0.25 -1.1 0.25 -1.15 0.25 -1.2 0.2 Q-1.25 0.2 -1.25 0.2 L-1.25 0.2 -1.3 0.2 -1.3 0.2 -1.35 0.15 -1.3 0.15 -1.3 0.15 -1.35 0.1 -1.35 0.05 -1.35 0.05 -1.35 0.0 -1.3 -0.05 Q-1.25 -0.1 -1.2 -0.1 L-1.2 -0.05 -1.15 -0.05 -1.15 -0.05 -1.1 -0.05 -1.1 0.0 -1.05 0.05 -0.95 0.05 -0.95 0.05 -1.0 0.05 -1.0 0.0 -0.95 0.0 -0.85 0.0 -0.85 0.0 -0.8 0.0 Q-0.8 -0.05 -0.9 -0.05 L-0.95 -0.1 -0.95 -0.1 -0.85 -0.15 -0.85 -0.2 -0.9 -0.2 -0.9 -0.2 -0.85 -0.25 -0.8 -0.25 -0.75 -0.25 Q-0.75 -0.2 -0.7 -0.2 L-0.7 -0.25 -0.65 -0.3 -0.65 -0.3 -0.7 -0.3 -0.7 -0.35 -0.6 -0.35 -0.55 -0.4 -0.5 -0.35 -0.5 -0.35 -0.5 -0.3 -0.45 -0.3 -0.45 -0.3 -0.4 -0.25 -0.4 -0.15 -0.35 -0.1 -0.4 -0.1 -0.45 -0.05 -0.4 -0.05 -0.4 0.05 M-0.95 0.4 L-1.0 0.45 -1.0 0.45 -1.05 0.5 -1.0 0.55 -0.95 0.55 -0.9 0.55 -0.9 0.45 -0.95 0.4" fill="#463532" fill-rule="evenodd" stroke="none"/>
    <path d="M-0.35 0.05 L-0.4 0.05 -0.4 -0.05 -0.45 -0.05 -0.4 -0.1 -0.35 -0.1 -0.4 -0.15 -0.4 -0.25 -0.45 -0.3 -0.45 -0.3 -0.5 -0.3 -0.5 -0.35 -0.5 -0.4 -0.5 -0.45 -0.45 -0.45 -0.45 -0.45 -0.45 -0.5 -0.35 -0.5 -0.35 -0.35 -0.25 -0.3 -0.2 -0.25 Q-0.2 -0.2 -0.25 -0.2 -0.3 -0.2 -0.3 -0.1 L-0.3 0.0 -0.35 0.05 M-0.7 0.8 Q-0.8 1.05 -1.0 1.05 -1.15 1.1 -1.3 1.0 L-1.5 0.75 -1.55 0.4 -1.55 0.1 -1.5 0.1 -1.45 0.05 -1.4 -0.05 -1.4 0.0 -1.35 0.0 -1.35 0.05 -1.35 0.05 -1.35 0.1 -1.3 0.15 -1.3 0.15 -1.35 0.15 -1.3 0.2 -1.3 0.2 -1.25 0.2 -1.25 0.2 Q-1.25 0.2 -1.2 0.2 L-1.15 0.25 -1.1 0.25 -1.15 0.25 -1.15 0.3 -1.2 0.3 -1.15 0.3 -1.15 0.3 -1.1 0.3 -1.05 0.3 Q-1.0 0.3 -1.0 0.35 L-1.05 0.4 -1.1 0.45 -1.15 0.5 -1.25 0.45 -1.3 0.5 -1.35 0.45 -1.4 0.4 -1.45 0.35 -1.45 0.35 -1.5 0.4 -1.45 0.6 -1.35 0.75 -1.35 0.7 -1.3 0.7 -1.25 0.75 -1.25 0.75 -1.25 0.7 -1.1 0.65 -1.0 0.6 -1.0 0.6 -0.95 0.65 -0.95 0.65 -0.9 0.65 -0.85 0.65 -0.85 0.7 -0.9 0.8 -1.0 0.85 -1.0 0.85 -1.05 0.85 -1.1 0.85 -1.1 0.85 Q-1.15 0.85 -1.15 0.85 L-1.15 0.85 -1.2 0.85 -1.2 0.85 -1.25 0.8 -1.25 0.85 -1.3 0.85 -1.25 0.9 Q-1.25 0.95 -1.2 0.95 L-1.15 1.0 -1.05 1.0 -0.95 1.0 -0.9 0.95 -0.85 0.9 -0.8 0.85 -0.75 0.8 -0.7 0.8" fill="#62524e" fill-rule="evenodd" stroke="none"/>
    <path d="M0.15 -1.3 Q0.25 -1.35 0.15 -1.4 0.05 -1.5 -0.1 -1.5 -0.15 -1.5 -0.2 -1.7 L-0.2 -1.8 -0.3 -1.8 -0.25 -1.8 -0.25 -1.75 -0.3 -1.75 -0.25 -1.7 -0.25 -1.7 -0.3 -1.7 -0.35 -1.75 -0.35 -1.65 -0.4 -1.65 -0.35 -1.4 -0.3 -1.15 Q-0.3 -1.05 -0.25 -0.95 L-0.2 -0.85 -0.15 -0.8 -0.05 -0.8 0.0 -0.7 -0.55 -0.65 -0.75 -0.6 -0.75 -0.7 -0.85 -0.7 -0.95 -0.65 -0.9 -0.55 -1.0 -0.45 -1.0 -0.45 -1.05 -0.4 -1.25 -0.3 Q-1.45 -0.1 -1.5 0.1 L-1.55 0.1 -1.55 0.4 -1.5 0.75 -1.3 1.0 Q-1.15 1.1 -1.0 1.05 -0.8 1.05 -0.7 0.8 L-0.7 0.6 Q-0.7 0.5 -0.75 0.4 L-0.8 0.45 -0.8 0.35 -0.85 0.35 -0.8 0.2 -0.65 0.1 Q-0.55 0.05 -0.4 0.05 L-0.35 0.05 -0.25 0.05 -0.15 0.05 -0.15 0.05 -0.1 0.05 -0.05 0.1 -0.05 0.1 -0.05 0.15 Q-0.05 0.3 0.05 0.4 0.15 0.5 0.3 0.55 L0.55 0.55 0.75 0.3 Q0.65 0.4 0.55 0.45 L0.3 0.4 0.25 0.2 0.25 0.05 0.3 0.05 0.35 0.0 0.5 0.0 0.55 0.05 0.65 0.05 Q0.7 0.1 0.7 0.15 L0.75 0.3 0.75 0.1 1.55 0.1 1.65 0.1 2.55 0.1 2.65 0.15 2.7 0.15 2.75 0.15 2.75 0.15 2.8 0.15 2.9 0.15 2.95 0.2 3.0 0.2 3.0 0.15 3.05 0.15 3.1 0.15 4.0 0.15 4.15 0.2 Q4.2 0.15 4.2 0.1 L4.2 0.0 4.25 -0.15 4.2 -0.3 4.25 -0.45 4.2 -0.6 4.0 -0.6 3.85 -0.6 3.75 -0.65 3.7 -0.65 3.2 -0.65 3.05 -0.65 3.05 -0.7 3.0 -0.7 3.0 -0.7 3.0 -0.7 2.95 -0.65 2.9 -0.65 2.9 -0.65 2.85 -0.65 2.85 -0.65 2.8 -0.65 2.8 -0.7 2.75 -0.7 2.75 -0.7 2.75 -0.65 2.7 -0.65 2.7 -0.65 2.55 -0.65 2.35 -0.65 2.3 -0.7 2.2 -0.65 1.75 -0.7 1.55 -0.7 1.25 -0.7 1.2 -0.8 Q1.15 -0.85 1.2 -0.95 1.25 -1.0 1.15 -1.0 L1.0 -1.0 0.95 -1.0 0.9 -1.0 Q0.95 -1.1 0.9 -1.15 L0.8 -1.1 Q0.75 -1.05 0.75 -1.15 L0.7 -1.25 0.6 -1.4 0.45 -1.5 Q0.4 -1.45 0.45 -1.3 L0.55 -1.15 0.65 -0.9 0.6 -0.9 0.55 -0.9 0.5 -0.75 0.35 -0.75 0.2 -0.8 0.25 -0.85 0.3 -0.9 0.2 -0.95 Q0.1 -1.0 0.05 -1.0 0.0 -1.05 0.05 -1.1 0.0 -1.15 0.05 -1.15 L0.15 -1.2 Q0.2 -1.15 0.2 -1.25 L0.15 -1.3 M0.25 0.25 Q0.25 0.35 0.2 0.35 L0.1 0.3 0.0 0.2 0.0 0.05 0.1 0.05 Q0.15 0.05 0.15 0.1 L0.2 0.2 0.25 0.25 Z" fill="none" stroke="#000000" stroke-linecap="round" stroke-linejoin="round" stroke-opacity="0.4" stroke-width="0.15000000000000002"/>
  </g>
</svg>
