<?xml version="1.0" encoding="UTF-8" standalone="no"?>
<svg xmlns:xlink="http://www.w3.org/1999/xlink" height="2.7px" width="4.0px" xmlns="http://www.w3.org/2000/svg">
  <g transform="matrix(1.0, 0.0, 0.0, 1.0, 2.0, 0.95)">
    <path d="M-1.45 -0.7 L-1.5 -0.7 -1.45 -0.7 -1.35 -0.75 -1.25 -0.85 -1.2 -0.85 -1.0 -0.9 -0.5 -0.95 0.1 -0.9 0.1 -0.9 0.35 -0.9 0.65 -0.8 0.95 -0.85 Q1.1 -0.85 1.15 -0.75 L1.15 -0.7 1.2 -0.45 1.25 -0.3 1.25 -0.2 1.3 -0.2 1.45 0.3 1.55 0.65 1.5 0.65 1.4 0.65 1.4 0.6 1.35 0.6 1.35 0.5 1.25 0.5 1.25 0.45 1.2 0.4 Q1.15 0.4 1.15 0.4 L1.25 0.35 1.3 0.35 1.3 0.25 1.25 0.25 1.25 0.15 1.2 0.05 1.15 0.05 1.15 0.0 Q1.05 0.05 1.0 0.0 L1.1 0.0 1.1 -0.05 1.15 -0.1 1.1 -0.15 1.1 -0.25 1.1 -0.3 1.05 -0.35 1.0 -0.4 1.05 -0.55 1.05 -0.65 0.95 -0.55 0.5 -0.5 0.3 -0.5 0.2 -0.5 0.2 -0.5 -0.35 -0.65 -0.4 -0.65 -0.5 -0.65 -0.55 -0.6 -0.7 -0.65 -0.8 -0.65 -0.85 -0.65 -1.0 -0.65 -1.25 -0.65 -1.25 -0.65 -1.45 -0.7 M1.55 0.95 L1.85 1.15 1.75 1.1 1.65 1.2 1.65 1.25 1.5 1.3 1.35 1.3 1.4 1.2 1.45 1.15 1.5 1.15 1.55 1.1 1.55 1.05 1.5 1.05 1.55 0.95 M-1.8 1.15 Q-2.0 1.1 -2.0 1.0 L-2.0 0.75 -1.95 0.65 -1.9 0.6 -1.85 0.35 -1.8 0.1 -1.65 -0.35 -1.5 -0.6 -1.45 -0.6 -1.45 -0.55 -1.5 -0.45 -1.5 -0.35 Q-1.5 -0.3 -1.55 -0.25 L-1.6 -0.15 -1.6 -0.05 -1.7 0.05 -1.7 0.2 -1.8 0.25 -1.8 0.45 -1.65 0.5 -1.6 0.55 -1.55 0.55 -1.55 0.6 -1.8 0.6 -1.8 0.7 -1.85 0.85 -1.85 0.9 -1.8 0.9 -1.85 0.9 -1.85 0.95 -1.8 1.05 -1.8 1.15 M-0.8 -0.7 L-0.65 -0.7 -0.55 -0.65 -0.4 -0.65 -0.35 -0.65 -0.3 -0.65 -0.25 -0.65 -0.15 -0.65 -0.05 -0.7 0.05 -0.65 0.2 -0.7 0.3 -0.65 0.4 -0.7 0.4 -0.65 0.4 -0.6 0.3 -0.6 0.7 -0.65 0.8 -0.65 0.85 -0.7 0.9 -0.75 0.9 -0.8 0.55 -0.8 0.4 -0.8 0.2 -0.85 0.1 -0.9 0.1 -0.9 -0.65 -0.85 -0.75 -0.85 -1.05 -0.8 -1.25 -0.75 -1.25 -0.75 -1.1 -0.75 -0.8 -0.7 -0.8 -0.7" fill="#856a5c" fill-rule="evenodd" stroke="none"/>
    <path d="M1.85 1.15 L1.9 1.2 2.0 1.25 1.9 1.25 1.7 1.3 1.65 1.25 1.65 1.2 1.75 1.1 1.85 1.15 M0.1 -0.9 L0.1 -0.9 0.2 -0.85 0.4 -0.8 0.55 -0.8 0.9 -0.8 0.9 -0.75 0.85 -0.7 0.8 -0.65 0.7 -0.65 0.3 -0.6 0.4 -0.6 0.4 -0.65 0.4 -0.7 0.3 -0.65 0.2 -0.7 0.05 -0.65 -0.05 -0.7 -0.15 -0.65 -0.25 -0.65 -0.3 -0.65 -0.35 -0.65 -0.4 -0.65 -0.55 -0.65 -0.65 -0.7 -0.8 -0.7 -0.75 -0.7 -0.7 -0.7 -0.7 -0.7 -0.65 -0.75 -0.55 -0.75 -0.4 -0.75 -0.2 -0.8 -0.1 -0.8 Q-0.1 -0.8 -0.05 -0.8 L0.0 -0.8 0.0 -0.85 0.1 -0.9" fill="#a48573" fill-rule="evenodd" stroke="none"/>
    <path d="M-1.45 -0.7 L-1.25 -0.65 -1.25 -0.65 -1.0 -0.65 -0.85 -0.65 -0.8 -0.65 -0.7 -0.65 -0.55 -0.6 -0.5 -0.65 -0.4 -0.65 -0.35 -0.65 0.2 -0.5 0.2 -0.5 0.3 -0.5 0.5 -0.5 0.95 -0.55 1.05 -0.65 1.05 -0.55 1.0 -0.4 1.05 -0.35 1.1 -0.3 1.1 -0.25 1.1 -0.15 1.15 -0.1 1.1 -0.05 1.1 0.0 1.0 0.0 Q1.05 0.05 1.15 0.0 L1.15 0.05 1.2 0.05 1.25 0.15 1.25 0.25 1.3 0.25 1.3 0.35 1.25 0.35 1.15 0.4 Q1.15 0.4 1.2 0.4 L1.25 0.45 1.25 0.5 1.35 0.5 1.35 0.6 1.4 0.6 1.4 0.65 1.4 0.7 1.3 0.7 1.05 0.75 1.05 0.85 1.1 1.0 1.15 1.0 1.15 0.95 1.25 0.95 1.3 0.95 1.45 0.95 1.55 0.95 1.5 1.05 1.55 1.05 1.55 1.1 1.5 1.15 1.45 1.15 1.4 1.2 1.35 1.3 Q1.15 1.35 1.15 1.4 L1.05 1.4 1.0 1.45 0.9 1.45 0.8 1.5 0.7 1.45 0.6 1.5 0.5 1.5 0.45 1.55 Q0.4 1.55 0.3 1.6 L0.2 1.6 0.2 1.55 0.15 1.55 0.1 1.55 0.05 1.5 0.0 1.5 0.0 1.45 -0.25 1.25 -0.3 1.2 -0.3 1.2 -0.35 1.2 -0.4 1.2 -0.15 1.15 -0.1 1.25 0.15 1.45 0.25 1.45 0.25 1.4 0.15 1.3 0.1 1.3 0.1 1.2 0.15 1.2 0.35 1.2 0.5 1.15 0.7 1.15 0.85 1.15 0.9 0.9 0.9 0.8 0.95 0.65 1.0 0.6 Q1.0 0.55 1.05 0.55 L1.0 0.55 Q0.95 0.5 1.0 0.45 L0.9 0.4 0.75 0.4 0.7 0.4 0.7 0.3 0.85 0.25 0.75 0.25 0.75 0.1 0.7 0.05 0.65 0.05 0.55 0.05 0.55 -0.05 0.55 -0.15 0.55 -0.2 0.5 -0.25 0.55 -0.3 0.65 -0.25 0.75 -0.25 0.85 -0.35 0.85 -0.4 0.2 -0.35 -0.05 -0.3 -0.15 -0.4 -0.25 -0.4 -0.25 -0.3 -0.2 -0.2 -0.25 -0.2 -0.2 -0.15 -0.15 -0.1 -0.15 -0.05 -0.35 -0.05 -0.35 0.0 -0.5 0.0 -0.55 0.0 -0.55 0.1 -0.45 0.15 -0.4 0.15 -0.35 0.2 -0.35 0.2 -0.4 0.2 -0.4 0.25 -0.4 0.3 -0.45 0.3 -0.5 0.3 -0.55 0.35 -0.6 0.3 -0.6 0.35 -0.55 0.4 -0.5 0.4 -0.45 0.4 -0.4 0.4 -0.4 0.5 Q-0.4 0.55 -0.4 0.6 -0.4 0.65 -0.55 0.65 L-0.5 0.65 -0.5 0.7 -0.6 0.7 -0.6 0.75 -0.65 0.75 -0.7 0.8 -0.7 0.8 -0.8 0.8 -0.9 0.8 -1.0 0.8 -1.0 0.75 -1.1 0.8 -1.25 0.75 -1.35 0.8 -1.35 0.8 -1.4 0.75 -1.45 0.75 -1.45 0.75 -1.5 0.75 -1.5 0.75 -1.6 0.8 -1.65 0.9 -1.65 0.95 -1.65 0.95 -1.6 1.0 -1.6 1.0 -1.55 1.1 -1.45 1.2 -1.75 1.15 -1.8 1.15 -1.8 1.05 -1.85 0.95 -1.85 0.9 -1.8 0.9 -1.85 0.9 -1.85 0.85 -1.8 0.7 -1.8 0.6 -1.55 0.6 -1.55 0.55 -1.6 0.55 -1.65 0.5 -1.8 0.45 -1.8 0.25 -1.7 0.2 -1.7 0.05 -1.6 -0.05 -1.6 -0.15 -1.55 -0.25 Q-1.5 -0.3 -1.5 -0.35 L-1.5 -0.45 -1.45 -0.55 -1.45 -0.6 -1.5 -0.6 -1.45 -0.7" fill="#54392e" fill-rule="evenodd" stroke="none"/>
    <path d="M2.0 1.25 L1.9 1.35 Q1.8 1.35 1.8 1.4 L1.7 1.4 1.6 1.4 1.55 1.4 1.5 1.4 Q1.4 1.4 1.25 1.5 L1.2 1.5 1.1 1.55 0.9 1.6 0.8 1.65 0.7 1.65 0.4 1.75 0.35 1.75 0.3 1.75 0.2 1.75 0.15 1.75 0.1 1.75 0.0 1.7 0.0 1.7 -0.05 1.65 -0.05 1.65 -0.1 1.6 -0.15 1.55 -0.15 1.55 -0.2 1.5 -0.25 1.45 -0.35 1.4 Q-0.4 1.3 -0.5 1.3 L-0.65 1.25 -0.7 1.25 -1.25 1.2 -1.35 1.2 -1.3 1.1 -1.3 1.1 -1.25 1.0 -1.3 0.95 -1.3 0.9 -1.35 0.85 -1.35 0.8 -1.35 0.8 -1.25 0.75 -1.1 0.8 -1.0 0.75 -1.0 0.8 -0.9 0.8 -0.8 0.8 -0.7 0.8 -0.7 0.8 -0.65 0.75 -0.6 0.75 -0.6 0.7 -0.5 0.7 -0.5 0.65 -0.55 0.65 Q-0.4 0.65 -0.4 0.6 -0.4 0.55 -0.4 0.5 L-0.4 0.4 -0.45 0.4 -0.5 0.4 -0.55 0.4 -0.6 0.35 -0.6 0.3 -0.55 0.35 -0.5 0.3 -0.45 0.3 -0.4 0.3 -0.4 0.25 -0.4 0.2 -0.35 0.2 -0.35 0.2 -0.4 0.15 -0.45 0.15 -0.55 0.1 -0.55 0.0 -0.5 0.0 -0.35 0.0 -0.35 -0.05 -0.15 -0.05 -0.15 -0.1 -0.2 -0.15 -0.25 -0.2 -0.2 -0.2 -0.25 -0.3 -0.25 -0.4 -0.15 -0.4 -0.05 -0.3 0.2 -0.35 0.85 -0.4 0.85 -0.35 0.75 -0.25 0.65 -0.25 0.55 -0.3 0.5 -0.25 0.55 -0.2 0.55 -0.15 0.55 -0.05 0.55 0.05 0.65 0.05 0.7 0.05 0.75 0.1 0.75 0.25 0.85 0.25 0.7 0.3 0.7 0.4 0.75 0.4 0.9 0.4 1.0 0.45 Q0.95 0.5 1.0 0.55 L1.05 0.55 Q1.0 0.55 1.0 0.6 L0.95 0.65 0.9 0.8 0.85 0.7 Q0.85 0.65 0.8 0.65 L0.5 0.75 0.5 0.8 0.5 1.1 0.5 1.15 0.35 1.2 0.15 1.2 0.1 1.2 0.1 1.3 0.15 1.3 0.25 1.4 0.25 1.45 0.15 1.45 -0.1 1.25 -0.15 1.15 -0.4 1.2 -0.35 1.2 -0.3 1.2 -0.3 1.2 -0.25 1.25 0.0 1.45 0.0 1.5 0.05 1.5 0.1 1.55 0.15 1.55 0.2 1.55 0.2 1.6 0.3 1.6 Q0.4 1.55 0.45 1.55 L0.5 1.5 0.6 1.5 0.7 1.45 0.8 1.5 0.9 1.45 1.0 1.45 1.05 1.4 1.15 1.4 Q1.15 1.35 1.35 1.3 L1.5 1.3 1.65 1.25 1.7 1.3 1.9 1.25 2.0 1.25 M0.2 1.15 L-0.05 1.15 -0.05 1.15 0.2 1.15 M0.35 1.15 L0.45 1.15 0.35 1.15 M-1.35 0.8 L-1.35 0.8" fill="#31201a" fill-rule="evenodd" stroke="none"/>
    <path d="M1.4 0.65 L1.4 0.7 1.45 0.75 1.45 0.95 1.3 0.95 1.3 0.7 1.4 0.7 1.4 0.65" fill="#9a948f" fill-rule="evenodd" stroke="none"/>
    <path d="M1.4 0.65 L1.5 0.65 1.55 0.65 1.55 0.9 1.55 0.95 1.45 0.95 1.45 0.75 1.4 0.7 1.4 0.65" fill="#d5d5db" fill-rule="evenodd" stroke="none"/>
    <path d="M1.3 0.95 L1.25 0.95 1.15 0.95 1.15 1.0 1.1 1.0 1.05 0.85 1.05 0.75 1.3 0.7 1.3 0.95" fill="#494a5d" fill-rule="evenodd" stroke="none"/>
    <path d="M0.9 0.8 L0.9 0.9 0.85 1.15 0.7 1.15 0.5 1.15 0.5 1.1 0.5 0.8 0.5 0.75 0.8 0.65 Q0.85 0.65 0.85 0.7 L0.9 0.8 M0.75 0.8 Q0.75 0.75 0.8 0.75 L0.65 0.8 Q0.55 0.8 0.55 0.85 L0.55 0.95 0.6 1.05 0.7 1.05 0.8 0.95 0.75 0.9 0.75 0.8" fill="#ded5c1" fill-rule="evenodd" stroke="none"/>
    <path d="M0.75 0.8 L0.75 0.9 0.8 0.95 0.7 1.05 0.6 1.05 0.55 0.95 0.55 0.85 Q0.55 0.8 0.65 0.8 L0.8 0.75 Q0.75 0.75 0.75 0.8" fill="#151417" fill-rule="evenodd" stroke="none"/>
    <path d="M0.2 1.15 L-0.05 1.15 -0.05 1.15 0.2 1.15 M0.35 1.15 L0.45 1.15 0.35 1.15" fill="#262730" fill-rule="evenodd" stroke="none"/>
    <path d="M-0.8 -0.7 L-0.8 -0.7 -1.1 -0.75 -1.25 -0.75 -1.25 -0.75 -1.05 -0.8 -0.75 -0.85 -0.65 -0.85 0.1 -0.9 0.0 -0.85 0.0 -0.8 -0.05 -0.8 Q-0.1 -0.8 -0.1 -0.8 L-0.2 -0.8 -0.4 -0.75 -0.55 -0.75 -0.65 -0.75 -0.7 -0.7 -0.7 -0.7 -0.75 -0.7 -0.8 -0.7" fill="#b89581" fill-rule="evenodd" stroke="none"/>
    <path d="M-1.35 1.2 L-1.4 1.2 -1.45 1.2 -1.55 1.1 -1.6 1.0 -1.6 1.0 -1.55 0.95 -1.5 0.95 -1.5 1.05 -1.45 1.05 -1.45 1.05 -1.35 1.0 -1.3 0.95 -1.3 0.95 -1.25 1.0 -1.3 1.1 -1.3 1.1 -1.35 1.2 M-1.45 0.75 L-1.55 0.9 -1.6 0.9 -1.65 0.95 -1.65 0.9 -1.6 0.8 -1.5 0.75 -1.5 0.75 -1.45 0.75 -1.45 0.75" fill="#c7bba9" fill-rule="evenodd" stroke="none"/>
    <path d="M-1.65 0.95 L-1.6 0.9 -1.55 0.9 -1.45 0.75 -1.4 0.75 -1.35 0.8 -1.4 0.85 -1.45 0.85 -1.45 0.9 -1.4 0.9 -1.35 0.9 -1.3 0.9 -1.3 0.95 -1.3 0.95 -1.35 1.0 -1.45 1.05 -1.45 1.05 -1.5 1.05 -1.5 0.95 -1.55 0.95 -1.6 1.0 -1.6 1.0 -1.6 1.0 -1.65 0.95 -1.65 0.95 M-1.35 0.8 L-1.35 0.8" fill="#bb9a63" fill-rule="evenodd" stroke="none"/>
    <path d="M-1.3 0.9 L-1.35 0.9 -1.4 0.9 -1.45 0.9 -1.45 0.85 -1.4 0.85 -1.35 0.8 -1.35 0.85 -1.3 0.9" fill="#b18640" fill-rule="evenodd" stroke="none"/>
    <path d="M1.55 0.65 L1.45 0.3 1.3 -0.2 1.25 -0.2 1.25 -0.3 1.2 -0.45 1.15 -0.7 1.15 -0.75 Q1.1 -0.85 0.95 -0.85 L0.65 -0.8 0.35 -0.9 0.1 -0.9 0.1 -0.9 -0.5 -0.95 -1.0 -0.9 -1.2 -0.85 -1.25 -0.85 -1.35 -0.75 -1.45 -0.7 -1.5 -0.7 -1.45 -0.7 -1.5 -0.6 -1.65 -0.35 -1.8 0.1 -1.85 0.35 -1.9 0.6 -1.95 0.65 -2.0 0.75 -2.0 1.0 Q-2.0 1.1 -1.8 1.15 L-1.75 1.15 -1.45 1.2 -1.4 1.2 -1.35 1.2 -1.25 1.2 -0.7 1.25 -0.65 1.25 -0.5 1.3 Q-0.4 1.3 -0.35 1.4 L-0.25 1.45 -0.2 1.5 -0.15 1.55 -0.15 1.55 -0.1 1.6 -0.05 1.65 -0.05 1.65 0.0 1.7 0.0 1.7 0.1 1.75 0.15 1.75 0.2 1.75 0.3 1.75 0.35 1.75 0.4 1.75 0.7 1.65 0.8 1.65 0.9 1.6 1.1 1.55 1.2 1.5 1.25 1.5 Q1.4 1.4 1.5 1.4 L1.55 1.4 1.6 1.4 1.7 1.4 1.8 1.4 Q1.8 1.35 1.9 1.35 L2.0 1.25 1.9 1.2 1.85 1.15 1.55 0.95 1.55 0.9 1.55 0.65 Z" fill="none" stroke="#000000" stroke-linecap="round" stroke-linejoin="round" stroke-opacity="0.4509804" stroke-width="1.0"/>
  </g>
</svg>
