<?xml version="1.0" encoding="UTF-8" standalone="no"?>
<svg xmlns:xlink="http://www.w3.org/1999/xlink" height="3.0px" width="9.3px" xmlns="http://www.w3.org/2000/svg">
  <g transform="matrix(1.0, 0.0, 0.0, 1.0, 4.65, 1.5)">
    <path d="M1.1 -0.15 Q1.2 -0.45 1.45 -0.55 L1.3 -0.25 1.35 -0.1 2.1 -0.05 2.15 -0.1 Q2.15 -0.6 2.5 -0.75 L2.5 -0.7 2.4 -0.5 Q2.3 -0.35 2.3 -0.1 L3.05 -0.15 3.3 -0.1 3.3 -0.25 3.25 -0.8 Q3.25 -1.15 3.35 -1.2 L3.35 -0.95 3.4 -0.55 3.45 -0.2 3.4 -0.1 Q3.6 -0.05 3.75 0.05 L3.4 0.1 3.25 0.95 Q3.3 0.95 3.2 0.95 3.15 0.95 3.1 0.9 L3.1 0.8 3.2 0.3 3.25 0.1 2.3 0.05 2.3 0.1 Q2.35 0.35 2.3 0.5 2.25 0.75 2.0 0.9 L2.15 0.3 2.15 0.1 1.85 0.1 1.35 0.1 1.35 0.35 Q1.4 0.7 1.2 0.85 1.1 0.8 1.1 0.55 L1.1 0.1 0.75 0.1 Q0.4 0.1 0.3 0.3 0.25 0.4 0.25 0.5 L0.3 0.6 0.5 0.8 0.5 0.9 0.35 0.95 Q0.2 0.95 0.1 0.8 L0.05 0.7 0.1 0.55 -0.05 0.55 -0.15 0.5 Q-0.75 0.45 -0.85 0.1 -1.0 -0.45 -1.15 -0.5 L-1.4 -0.5 -1.55 -0.35 -1.6 -0.2 Q-1.6 0.05 -1.4 0.05 L-1.35 0.0 -1.25 -0.05 Q-1.15 -0.05 -1.15 0.1 -1.15 0.3 -1.4 0.3 L-1.5 0.3 -1.5 0.3 -1.4 0.45 Q-1.2 0.6 -1.2 0.75 -1.2 1.2 -1.6 1.2 -1.85 1.2 -2.0 1.05 L-2.05 0.9 Q-2.05 0.75 -1.8 0.75 -1.6 0.75 -1.6 0.9 -1.6 1.0 -1.7 1.05 L-1.75 0.9 -1.75 0.9 -1.85 0.9 -1.9 0.9 -1.9 0.95 -1.85 1.0 -1.65 1.05 Q-1.3 1.05 -1.3 0.8 -1.3 0.7 -1.5 0.55 -1.7 0.45 -1.7 0.35 L-1.65 0.25 -1.75 0.05 -1.8 -0.2 -1.8 -0.4 -2.25 -0.7 Q-2.5 -0.7 -2.6 -0.5 L-2.7 -0.25 -2.65 -0.1 -2.5 0.05 Q-2.35 0.05 -2.3 -0.1 L-2.3 -0.35 -2.25 -0.35 -2.2 -0.4 Q-2.15 -0.4 -2.1 -0.1 -2.1 0.0 -2.2 0.1 -2.3 0.25 -2.4 0.25 -2.65 0.25 -2.75 0.05 L-2.8 0.05 Q-3.0 0.05 -3.1 0.2 L-3.15 0.4 Q-3.15 0.5 -2.95 0.5 -2.8 0.5 -2.8 0.45 L-2.8 0.35 -2.7 0.4 -2.65 0.5 Q-2.65 0.55 -2.75 0.65 -2.8 0.7 -2.9 0.7 -3.1 0.7 -3.2 0.55 L-3.25 0.35 Q-3.25 0.15 -3.1 0.0 -3.0 -0.1 -2.85 -0.05 L-2.9 -0.25 -2.85 -0.45 -2.9 -0.65 Q-3.0 -0.8 -3.05 -0.8 -3.2 -0.8 -3.4 -0.65 L-3.55 -0.5 -3.5 -0.35 Q-3.4 -0.2 -3.3 -0.2 L-3.3 -0.2 -3.35 -0.3 -3.35 -0.45 -3.3 -0.45 Q-3.1 -0.45 -3.1 -0.2 L-3.15 -0.05 Q-3.2 0.0 -3.3 0.0 -3.55 0.0 -3.65 -0.25 L-3.75 -0.5 Q-3.75 -0.9 -3.1 -0.95 -2.85 -1.0 -2.8 -0.8 L-2.75 -0.6 -2.55 -0.8 Q-2.2 -1.05 -1.7 -0.55 -1.6 -0.7 -1.3 -0.75 -0.85 -0.75 -0.7 -0.4 -0.65 -0.3 -0.6 0.05 -0.45 0.3 0.1 0.35 0.15 0.15 0.3 0.1 0.55 -0.05 1.1 -0.1 L1.1 -0.15" fill="#54f0ff" fill-rule="evenodd" stroke="none"/>
    <path d="M1.65 -0.35 L1.65 -0.1 2.65 -0.1 2.7 -0.1 Q2.7 -0.75 3.1 -0.95 L3.1 -0.9 Q3.1 -0.8 2.95 -0.6 2.85 -0.45 2.85 -0.15 L3.75 -0.2 4.1 -0.15 4.1 -0.3 4.0 -1.0 Q4.0 -1.45 4.2 -1.5 4.2 -1.4 4.15 -1.15 4.15 -1.0 4.2 -0.7 L4.25 -0.25 4.25 -0.1 4.65 0.05 Q4.6 0.1 4.2 0.1 L4.0 1.15 Q4.05 1.2 3.95 1.2 3.9 1.2 3.85 1.1 L3.85 1.0 Q3.85 0.85 4.0 0.35 L4.05 0.1 2.9 0.1 2.9 0.15 Q2.9 0.45 2.85 0.65 2.75 0.95 2.45 1.1 L2.65 0.4 2.7 0.1 2.3 0.15 1.65 0.15 1.7 0.4 Q1.7 0.85 1.5 1.05 1.4 0.95 1.35 0.7 L1.35 0.1 0.95 0.1 Q0.5 0.1 0.35 0.35 0.3 0.5 0.35 0.6 0.35 0.7 0.4 0.75 L0.65 1.0 Q0.65 1.1 0.6 1.15 L0.45 1.2 Q0.25 1.2 0.15 1.0 L0.1 0.85 0.1 0.7 -0.05 0.7 -0.2 0.6 Q-0.95 0.55 -1.05 0.1 -1.25 -0.55 -1.4 -0.65 L-1.75 -0.65 -1.9 -0.45 -1.95 -0.2 Q-1.95 0.05 -1.75 0.05 -1.7 0.05 -1.65 0.0 L-1.55 -0.05 Q-1.4 -0.05 -1.4 0.1 -1.4 0.35 -1.75 0.35 L-1.85 0.35 -1.85 0.35 -1.75 0.55 Q-1.5 0.75 -1.5 0.95 -1.5 1.5 -2.0 1.5 -2.3 1.5 -2.45 1.35 L-2.55 1.15 Q-2.55 0.9 -2.25 0.9 -2.0 0.9 -1.95 1.15 -1.95 1.25 -2.1 1.3 L-2.2 1.15 -2.2 1.1 -2.25 1.1 -2.35 1.15 -2.35 1.15 -2.25 1.25 -2.05 1.3 Q-1.65 1.3 -1.65 0.95 -1.65 0.85 -1.85 0.7 -2.1 0.55 -2.1 0.45 L-2.0 0.3 -2.2 0.05 Q-2.25 -0.1 -2.25 -0.25 L-2.2 -0.5 Q-2.35 -0.55 -2.5 -0.7 -2.75 -0.9 -2.8 -0.9 -3.1 -0.9 -3.25 -0.6 L-3.35 -0.3 -3.25 -0.1 Q-3.15 0.05 -3.1 0.05 -2.9 0.05 -2.85 -0.15 L-2.85 -0.4 -2.8 -0.45 -2.75 -0.45 Q-2.65 -0.45 -2.6 -0.1 -2.6 0.0 -2.7 0.1 -2.85 0.3 -3.0 0.3 -3.3 0.3 -3.4 0.1 L-3.5 0.1 Q-3.7 0.1 -3.8 0.25 L-3.9 0.5 Q-3.9 0.65 -3.65 0.65 -3.5 0.65 -3.45 0.6 L-3.45 0.45 Q-3.4 0.45 -3.35 0.5 L-3.3 0.6 Q-3.3 0.7 -3.4 0.8 -3.45 0.85 -3.6 0.85 -3.85 0.85 -4.0 0.65 L-4.05 0.45 Q-4.05 0.2 -3.85 0.0 -3.7 -0.1 -3.55 -0.1 L-3.55 -0.3 -3.5 -0.6 -3.6 -0.8 Q-3.7 -1.0 -3.8 -1.0 -4.0 -1.0 -4.2 -0.8 L-4.45 -0.6 -4.3 -0.4 -4.1 -0.2 -4.1 -0.25 -4.15 -0.4 -4.15 -0.55 -4.1 -0.55 Q-3.85 -0.55 -3.85 -0.25 L-3.9 -0.05 Q-3.95 0.0 -4.1 0.0 -4.4 0.0 -4.55 -0.3 L-4.65 -0.6 Q-4.65 -1.1 -3.85 -1.2 -3.55 -1.25 -3.45 -0.95 L-3.4 -0.75 -3.15 -1.0 Q-2.7 -1.35 -2.1 -0.7 -1.95 -0.9 -1.65 -0.9 -1.05 -0.95 -0.85 -0.5 -0.8 -0.35 -0.75 0.05 -0.6 0.4 0.15 0.4 0.2 0.2 0.35 0.1 0.65 -0.05 1.4 -0.1 L1.4 -0.2 Q1.45 -0.6 1.8 -0.65 1.65 -0.4 1.65 -0.35" fill="#54f0ff" fill-opacity="0.0" fill-rule="evenodd" stroke="none"/>
  </g>
</svg>
