<?xml version="1.0" encoding="UTF-8" standalone="no"?>
<svg xmlns:xlink="http://www.w3.org/1999/xlink" height="3.2px" width="7.35px" xmlns="http://www.w3.org/2000/svg">
  <g transform="matrix(1.0, 0.0, 0.0, 1.0, 2.15, 1.85)">
    <path d="M0.75 -0.9 L0.9 -0.9 1.4 -0.9 1.9 -0.9 2.25 -0.9 2.6 -0.9 3.05 -0.85 3.55 -0.85 3.75 -0.85 3.9 -0.85 3.75 -0.8 3.55 -0.8 3.1 -0.8 2.65 -0.8 2.25 -0.85 1.85 -0.85 1.45 -0.85 1.3 -0.85 1.15 -0.8 1.1 -0.85 1.0 -0.9 0.95 -0.85 0.85 -0.85 0.75 -0.85 0.7 -0.9 0.75 -0.9 0.75 -0.9" fill="#363636" fill-rule="evenodd" stroke="none"/>
    <path d="M3.9 -0.85 L4.05 -0.85 4.3 -0.85 4.3 -0.8 4.25 -0.8 4.2 -0.7 4.15 -0.7 4.2 -0.8 4.0 -0.75 4.05 -0.75 3.85 -0.8 3.75 -0.8 3.65 -0.8 3.55 -0.8 3.35 -0.8 3.1 -0.8 2.35 -0.8 1.6 -0.8 1.45 -0.8 1.25 -0.8 1.15 -0.8 1.3 -0.85 1.45 -0.85 1.85 -0.85 2.25 -0.85 2.65 -0.8 3.1 -0.8 3.55 -0.8 3.75 -0.8 3.9 -0.85 M0.95 -0.85 L1.0 -0.9 1.1 -0.85 1.0 -0.85 0.95 -0.8 0.95 -0.85" fill="#7e5d3e" fill-rule="evenodd" stroke="none"/>
    <path d="M0.6 -0.95 L0.55 -0.95 0.55 -1.05 0.7 -1.0 0.75 -0.9 0.75 -0.9 0.7 -0.9 0.7 -0.9 0.6 -0.95 M-0.8 -1.5 L-0.7 -1.45 -0.9 -1.45 -1.0 -1.5 -0.8 -1.5" fill="#b2a597" fill-rule="evenodd" stroke="none"/>
    <path d="M0.7 -0.9 L0.7 -0.9 0.75 -0.85 0.85 -0.85 0.95 -0.85 0.95 -0.8 1.0 -0.85 1.05 -0.75 0.85 -0.75 0.65 -0.8 0.7 -0.9" fill="#897867" fill-rule="evenodd" stroke="none"/>
    <path d="M0.25 -1.5 L0.3 -1.0 0.25 -1.2 0.25 -1.35 0.2 -1.55 0.2 -1.75 0.25 -1.6 0.25 -1.5 M0.7 -0.9 L0.65 -0.8 0.6 -0.85 0.6 -0.95 0.7 -0.9 M-1.0 -0.55 L-1.0 -0.6 -0.9 -0.55 -0.9 -0.65 -0.75 -0.6 -0.75 -0.55 -0.85 -0.5 -0.85 -0.55 -0.9 -0.5 -0.95 -0.45 -1.0 -0.55" fill="#f7f3ec" fill-rule="evenodd" stroke="none"/>
    <path d="M0.0 -0.9 L0.1 -0.9 0.1 -0.85 0.0 -0.85 0.0 -0.9 0.0 -0.9 0.0 -0.9" fill="#605035" fill-rule="evenodd" stroke="none"/>
    <path d="M0.2 -0.95 L0.2 -0.9 0.25 -0.9 0.25 -0.85 0.5 -0.9 Q0.45 -0.85 0.45 -0.85 L0.35 -0.8 0.3 -0.8 0.2 -0.85 Q0.2 -0.75 0.3 -0.7 L0.2 -0.75 0.1 -0.6 0.1 -0.85 0.1 -0.9 0.2 -0.95" fill="#cab79b" fill-rule="evenodd" stroke="none"/>
    <path d="M-0.2 -0.85 L-0.1 -0.9 0.0 -0.9 -0.05 -0.8 -0.05 -0.75 -0.1 -0.75 -0.1 -0.8 -0.25 -0.8 -0.2 -0.7 -0.15 -0.6 -0.3 -0.6 -0.3 -0.65 -0.2 -0.7 -0.3 -0.8 -0.2 -0.85 M0.0 -0.4 L0.0 -0.35 -0.15 -0.4 0.0 -0.4 M0.0 -0.9 L0.0 -0.9" fill="#d8d3cb" fill-rule="evenodd" stroke="none"/>
    <path d="M0.0 -0.55 L0.1 -0.75 0.0 -0.8 -0.05 -0.6 -0.1 -0.6 -0.1 -0.6 -0.05 -0.5 -0.1 -0.45 -0.15 -0.6 -0.2 -0.7 -0.1 -0.75 -0.05 -0.75 -0.05 -0.8 0.0 -0.9 0.0 -0.9 0.0 -0.85 0.1 -0.85 0.1 -0.6 0.0 -0.5 0.0 -0.55" fill="#72634e" fill-rule="evenodd" stroke="none"/>
    <path d="M0.25 -1.5 L0.35 -1.3 0.4 -1.1 0.45 -1.05 0.55 -1.05 0.55 -0.95 0.6 -0.95 0.5 -0.9 0.25 -0.85 0.25 -0.9 0.2 -0.9 0.2 -0.95 0.15 -1.0 0.25 -0.95 0.35 -0.95 0.3 -1.0 0.25 -1.5 M0.4 -1.0 L0.35 -0.95 0.5 -0.95 0.45 -1.0 0.4 -1.0" fill="#453420" fill-rule="evenodd" stroke="none"/>
    <path d="M0.4 -1.0 L0.45 -1.0 0.5 -0.95 0.35 -0.95 0.4 -1.0" fill="#90846e" fill-rule="evenodd" stroke="none"/>
    <path d="M0.5 -0.9 L0.6 -0.95 0.6 -0.85 0.35 -0.8 0.45 -0.85 Q0.45 -0.85 0.5 -0.9" fill="#9e8261" fill-rule="evenodd" stroke="none"/>
    <path d="M5.1 -0.4 L5.05 -0.35 5.05 -0.3 4.85 -0.35 4.7 -0.3 4.75 -0.35 4.6 -0.35 4.45 -0.35 4.1 -0.35 3.7 -0.35 3.75 -0.3 3.65 -0.3 3.7 -0.35 3.55 -0.35 3.35 -0.35 3.35 -0.4 3.45 -0.45 3.5 -0.55 3.6 -0.55 3.7 -0.6 3.55 -0.65 3.65 -0.8 3.75 -0.8 3.85 -0.8 4.05 -0.75 4.15 -0.7 4.2 -0.7 4.3 -0.65 4.35 -0.65 4.45 -0.7 4.4 -0.75 4.5 -0.8 4.5 -0.6 4.55 -0.65 4.6 -0.55 4.7 -0.5 4.75 -0.5 4.85 -0.45 5.05 -0.45 5.1 -0.4 M0.65 -0.8 L0.85 -0.75 1.05 -0.75 1.15 -0.7 0.85 -0.75 0.6 -0.75 0.55 -0.8 0.6 -0.8 0.45 -0.8 0.3 -0.8 0.35 -0.8 0.6 -0.85 0.65 -0.8" fill="#432f23" fill-rule="evenodd" stroke="none"/>
    <path d="M0.3 -0.8 L0.45 -0.8 0.6 -0.8 0.55 -0.8 0.6 -0.75 0.95 -0.65 0.75 -0.65 0.6 -0.7 0.5 -0.7 Q0.45 -0.65 0.4 -0.6 L0.3 -0.5 0.15 -0.5 0.2 -0.5 0.3 -0.6 0.3 -0.7 Q0.2 -0.75 0.2 -0.85 L0.3 -0.8" fill="#958878" fill-rule="evenodd" stroke="none"/>
    <path d="M0.0 -0.5 L0.1 -0.6 0.2 -0.75 0.3 -0.7 0.3 -0.6 0.2 -0.5 0.15 -0.5 0.0 -0.5 0.0 -0.5" fill="#f7f5f0" fill-rule="evenodd" stroke="none"/>
    <path d="M3.15 -0.3 L2.95 -0.3 2.7 -0.3 2.1 -0.35 1.4 -0.35 0.85 -0.35 0.3 -0.35 0.25 -0.35 0.15 -0.4 0.1 -0.3 0.1 -0.2 0.1 -0.25 0.05 -0.45 0.15 -0.5 0.3 -0.5 0.45 -0.5 0.65 -0.5 0.85 -0.5 1.05 -0.45 1.05 -0.55 0.9 -0.55 1.15 -0.6 1.15 -0.55 Q1.15 -0.55 1.2 -0.5 1.2 -0.5 1.25 -0.5 L1.3 -0.5 1.35 -0.55 1.35 -0.7 1.25 -0.8 1.45 -0.8 1.6 -0.8 1.6 -0.8 1.55 -0.75 1.5 -0.75 1.45 -0.7 1.45 -0.55 1.6 -0.55 1.7 -0.6 1.95 -0.5 2.1 -0.45 2.2 -0.5 2.3 -0.5 2.4 -0.45 2.45 -0.5 2.5 -0.55 2.6 -0.5 2.7 -0.5 2.8 -0.5 2.9 -0.45 2.95 -0.45 3.05 -0.45 3.3 -0.4 3.0 -0.35 3.0 -0.35 3.15 -0.3" fill="#362a21" fill-rule="evenodd" stroke="none"/>
    <path d="M0.25 -0.35 L0.2 -0.35 0.15 -0.3 0.15 -0.05 0.1 0.0 0.0 0.1 0.0 0.0 0.05 -0.05 0.1 0.0 0.1 -0.1 0.1 -0.2 0.1 -0.3 0.15 -0.4 0.25 -0.35" fill="#483f3a" fill-rule="evenodd" stroke="none"/>
    <path d="M1.1 -0.85 L1.15 -0.8 1.25 -0.8 1.35 -0.7 1.35 -0.55 1.3 -0.5 1.25 -0.5 Q1.2 -0.5 1.2 -0.5 1.15 -0.55 1.15 -0.55 L1.15 -0.6 0.9 -0.55 1.05 -0.55 1.05 -0.45 0.85 -0.5 0.65 -0.5 0.45 -0.5 0.3 -0.5 0.4 -0.6 Q0.45 -0.65 0.5 -0.7 L0.6 -0.7 0.75 -0.65 0.65 -0.65 0.6 -0.55 0.9 -0.6 1.05 -0.6 Q1.15 -0.6 1.2 -0.65 L1.05 -0.7 0.95 -0.65 0.6 -0.75 0.85 -0.75 1.15 -0.7 1.05 -0.75 1.0 -0.85 1.1 -0.85" fill="#716151" fill-rule="evenodd" stroke="none"/>
    <path d="M-0.05 -0.5 L-0.1 -0.6 -0.1 -0.6 -0.05 -0.6 0.0 -0.8 0.1 -0.75 0.0 -0.55 -0.05 -0.5" fill="#cec6b5" fill-rule="evenodd" stroke="none"/>
    <path d="M-0.1 -0.75 L-0.2 -0.7 -0.25 -0.8 -0.1 -0.8 -0.1 -0.75" fill="#fcfbf8" fill-rule="evenodd" stroke="none"/>
    <path d="M0.0 -0.55 L0.0 -0.5 0.0 -0.5 0.15 -0.5 0.05 -0.45 -0.05 -0.45 0.0 -0.4 0.0 -0.4 -0.15 -0.4 -0.25 -0.4 -0.4 -0.4 -0.5 -0.35 -0.5 -0.25 -0.55 -0.25 -0.6 -0.45 -0.4 -0.45 -0.35 -0.5 -0.3 -0.6 -0.15 -0.6 -0.1 -0.45 -0.05 -0.5 0.0 -0.55 M-0.6 -0.45 L-0.6 -0.45" fill="#655443" fill-rule="evenodd" stroke="none"/>
    <path d="M-0.15 0.15 L-0.2 0.2 -0.25 0.25 -0.25 0.2 -0.2 0.05 -0.15 -0.05 -0.05 -0.15 0.0 -0.25 0.0 -0.35 0.0 -0.4 0.0 -0.4 -0.05 -0.45 0.05 -0.45 0.1 -0.25 0.1 -0.2 0.1 -0.1 0.05 -0.05 0.05 -0.05 0.0 0.0 0.0 -0.05 -0.1 0.05 -0.15 0.15 M-0.2 0.05 L-0.2 0.05" fill="#2e1807" fill-rule="evenodd" stroke="none"/>
    <path d="M0.05 -0.05 L0.05 -0.05 0.1 -0.1 0.1 0.0 0.05 -0.05" fill="#7d7973" fill-rule="evenodd" stroke="none"/>
    <path d="M-2.05 1.15 L-2.05 1.15 -1.95 1.1 -2.0 1.15 -1.85 1.2 -2.05 1.15 M-1.85 1.0 L-1.8 0.9 -1.7 0.75 -1.6 0.6 -1.65 0.65 -1.7 0.8 -1.8 1.0 -1.85 1.0 M-1.45 -0.15 L-1.4 -0.2 -1.3 -0.3 -1.2 -0.45 Q-1.25 -0.25 -1.3 -0.2 L-1.45 -0.05 -1.45 -0.15 M-0.2 0.05 L-0.2 0.05 -0.35 0.15 -0.55 0.15 -0.75 0.1 -0.65 -0.05 -0.55 -0.25 -0.65 -0.05 -0.75 0.1 -0.45 0.15 -0.2 0.05 M-0.5 -0.25 L-0.5 -0.35 -0.4 -0.4 -0.25 -0.4 -0.35 -0.35 -0.35 -0.05 -0.4 -0.05 -0.45 -0.15 -0.5 -0.25" fill="#acadaf" fill-rule="evenodd" stroke="none"/>
    <path d="M-0.25 0.2 L-0.35 0.2 -0.55 0.2 -0.55 0.15 -0.35 0.15 -0.2 0.05 -0.25 0.2" fill="#835414" fill-rule="evenodd" stroke="none"/>
    <path d="M0.0 0.1 L0.0 0.1 -0.05 0.05 -0.15 0.15 -0.1 0.05 0.0 -0.05 0.0 0.0 0.0 0.1" fill="#815720" fill-rule="evenodd" stroke="none"/>
    <path d="M0.75 -0.65 L0.95 -0.65 1.05 -0.7 1.2 -0.65 Q1.15 -0.6 1.05 -0.6 L0.9 -0.6 0.6 -0.55 0.65 -0.65 0.75 -0.65" fill="#35251b" fill-rule="evenodd" stroke="none"/>
    <path d="M3.5 -0.3 L3.15 -0.3 3.0 -0.35 3.0 -0.35 3.3 -0.4 3.05 -0.45 2.95 -0.45 2.9 -0.45 2.8 -0.5 2.7 -0.5 2.6 -0.5 2.5 -0.55 2.45 -0.5 2.4 -0.45 2.3 -0.5 2.2 -0.5 2.1 -0.45 1.95 -0.5 1.7 -0.6 1.6 -0.55 1.45 -0.55 1.45 -0.7 1.5 -0.75 1.55 -0.75 1.6 -0.8 1.6 -0.8 2.35 -0.8 3.1 -0.8 3.35 -0.8 3.55 -0.8 3.65 -0.8 3.55 -0.65 3.7 -0.6 3.6 -0.55 3.5 -0.55 3.45 -0.45 3.35 -0.4 3.35 -0.35 3.35 -0.35 3.5 -0.3" fill="#48372c" fill-rule="evenodd" stroke="none"/>
    <path d="M4.05 -0.85 L4.2 -0.85 4.4 -0.85 4.5 -0.8 4.3 -0.85 4.05 -0.85 M4.5 -0.8 L4.5 -0.8" fill="#2f3132" fill-rule="evenodd" stroke="none"/>
    <path d="M3.65 -0.3 L3.5 -0.3 3.35 -0.35 3.35 -0.35 3.55 -0.35 3.7 -0.35 3.65 -0.3" fill="#6a6664" fill-rule="evenodd" stroke="none"/>
    <path d="M4.7 -0.3 L3.75 -0.3 3.7 -0.35 4.1 -0.35 4.45 -0.35 4.6 -0.35 4.75 -0.35 4.7 -0.3" fill="#5e5e61" fill-rule="evenodd" stroke="none"/>
    <path d="M5.1 -0.55 L5.15 -0.55 5.1 -0.4 5.05 -0.45 4.85 -0.45 4.75 -0.5 4.7 -0.5 4.6 -0.55 4.55 -0.65 4.55 -0.7 4.6 -0.7 4.65 -0.65 Q4.65 -0.65 4.7 -0.65 L4.8 -0.65 4.95 -0.65 5.0 -0.7 5.05 -0.75 5.1 -0.75 Q5.05 -0.65 5.1 -0.55" fill="#634123" fill-rule="evenodd" stroke="none"/>
    <path d="M4.5 -0.8 L4.7 -0.85 4.85 -0.85 5.1 -0.9 5.1 -0.85 5.1 -0.75 5.05 -0.75 5.0 -0.7 4.95 -0.65 4.8 -0.65 4.7 -0.65 Q4.65 -0.65 4.65 -0.65 L4.6 -0.7 4.55 -0.7 4.55 -0.75 4.5 -0.8 4.5 -0.8" fill="#946b3f" fill-rule="evenodd" stroke="none"/>
    <path d="M4.2 -0.7 L4.25 -0.8 4.25 -0.8 4.3 -0.65 4.35 -0.75 4.3 -0.8 4.3 -0.85 4.5 -0.8 4.55 -0.75 4.55 -0.7 4.55 -0.65 4.5 -0.6 4.5 -0.8 4.4 -0.75 4.45 -0.7 4.35 -0.65 4.3 -0.65 4.2 -0.7" fill="#a67f4d" fill-rule="evenodd" stroke="none"/>
    <path d="M4.25 -0.8 L4.3 -0.8 4.35 -0.75 4.3 -0.65 4.25 -0.8 4.25 -0.8" fill="#d8b07e" fill-rule="evenodd" stroke="none"/>
    <path d="M4.05 -0.75 L4.0 -0.75 4.2 -0.8 4.15 -0.7 4.05 -0.75" fill="#a87e54" fill-rule="evenodd" stroke="none"/>
    <path d="M5.1 -0.85 Q5.15 -0.75 5.1 -0.55 5.05 -0.65 5.1 -0.75 L5.1 -0.85" fill="#cba36e" fill-rule="evenodd" stroke="none"/>
    <path d="M-1.0 -1.45 L-1.05 -1.45 -1.1 -1.5 -1.0 -1.5 -0.95 -1.55 -0.95 -1.65 -0.9 -1.75 -0.85 -1.8 -0.75 -1.75 -0.8 -1.6 -0.8 -1.5 -1.0 -1.5 -0.9 -1.45 -1.0 -1.45 M-0.85 -1.65 L-0.85 -1.75 -0.9 -1.65 -0.9 -1.55 -0.85 -1.5 -0.85 -1.65" fill="#563f34" fill-rule="evenodd" stroke="none"/>
    <path d="M-1.05 -1.0 L-1.05 -1.25 -1.0 -1.2 Q-1.05 -1.1 -1.0 -1.0 L-0.95 -1.0 Q-0.9 -1.0 -0.9 -1.05 L-0.85 -1.1 -0.85 -1.2 -0.85 -1.2 -0.8 -1.15 -0.8 -1.0 -0.75 -0.95 -0.7 -0.85 -0.65 -0.75 Q-0.6 -0.7 -0.6 -0.65 L-0.65 -0.55 -0.7 -0.7 -0.75 -0.7 -0.8 -0.7 -0.9 -0.85 -1.05 -1.0 M-0.85 -1.65 L-0.85 -1.5 -0.9 -1.55 -0.9 -1.65 -0.85 -1.75 -0.85 -1.65" fill="#e7e1d6" fill-rule="evenodd" stroke="none"/>
    <path d="M-0.95 -1.3 L-0.95 -1.4 -1.0 -1.45 -0.9 -1.45 -0.95 -1.3 -0.95 -1.3 M-0.7 -1.45 L-0.65 -1.4 -0.6 -1.3 -0.75 -1.3 -0.85 -1.3 -0.9 -1.3 -0.9 -1.45 -0.7 -1.45" fill="#35261b" fill-rule="evenodd" stroke="none"/>
    <path d="M-1.0 -1.3 L-0.95 -1.3 -0.95 -1.3 -0.9 -1.45 -0.9 -1.3 -0.85 -1.3 -0.7 -1.2 -0.8 -1.2 -0.75 -1.25 -1.0 -1.3 M-0.45 -0.75 L-0.4 -0.7 -0.35 -0.75 -0.35 -0.6 -0.4 -0.6 -0.4 -0.7 -0.55 -0.65 -0.55 -0.6 -0.6 -0.55 -0.6 -0.7 -0.55 -0.65 -0.5 -0.75 -0.45 -0.75" fill="#d9ccc0" fill-rule="evenodd" stroke="none"/>
    <path d="M-1.05 -1.25 L-1.05 -1.25 -1.0 -1.3 -0.75 -1.25 -0.8 -1.2 -0.8 -1.15 -0.85 -1.2 -0.85 -1.2 -0.9 -1.1 -0.95 -1.05 -1.0 -1.0 Q-1.05 -1.1 -1.0 -1.2 L-1.05 -1.25 M-0.95 -1.1 L-0.95 -1.1 -0.95 -1.05 -0.95 -1.1" fill="#735c48" fill-rule="evenodd" stroke="none"/>
    <path d="M-0.7 -1.2 L-0.65 -1.2 -0.6 -1.15 -0.7 -1.1 -0.75 -1.05 -0.75 -1.0 -0.7 -0.95 -0.75 -0.95 -0.8 -1.0 -0.8 -1.15 -0.8 -1.2 -0.7 -1.2" fill="#634d39" fill-rule="evenodd" stroke="none"/>
    <path d="M-0.85 0.4 L-0.9 0.45 -0.95 0.6 -1.0 0.7 -1.1 0.9 -1.15 1.1 -1.2 1.1 -1.2 1.15 -1.25 1.2 -1.45 1.2 -1.65 1.2 -1.75 1.2 -1.85 1.2 -1.85 1.15 -1.8 1.0 -1.7 0.8 -1.65 0.65 -1.5 0.4 -1.45 0.4 -1.5 0.35 -1.55 0.25 -1.5 0.05 Q-1.45 0.05 -1.4 0.0 L-1.55 0.0 -1.55 0.2 -1.6 0.25 -1.55 -0.05 -1.5 -0.1 -1.45 -0.15 -1.45 -0.05 -1.3 -0.2 -1.2 -0.05 Q-1.1 0.05 -0.8 0.1 L-0.75 0.1 -0.55 0.15 -0.55 0.2 -0.75 0.25 -0.8 0.35 -0.85 0.4 M-0.85 -1.2 L-0.85 -1.1 -0.9 -1.05 Q-0.9 -1.0 -0.95 -1.0 L-1.0 -1.0 -0.95 -1.05 -0.9 -1.1 -0.85 -1.2 M-0.95 -1.05 L-0.95 -1.05" fill="#271913" fill-rule="evenodd" stroke="none"/>
    <path d="M-0.95 -1.05 L-0.95 -1.05 -0.95 -1.1 -0.95 -1.1 -0.95 -1.05" fill="#e1d7c9" fill-rule="evenodd" stroke="none"/>
    <path d="M-1.1 -0.7 L-1.05 -0.75 -1.0 -0.85 -1.0 -0.95 -1.05 -1.0 -0.9 -0.85 -0.8 -0.7 -0.9 -0.7 -0.9 -0.7 -1.0 -0.6 -1.0 -0.55 -1.05 -0.6 -1.05 -0.55 -1.1 -0.55 -1.1 -0.7" fill="#6d5846" fill-rule="evenodd" stroke="none"/>
    <path d="M-0.7 -0.95 L-0.7 -0.95 -0.6 -0.85 Q-0.6 -0.85 -0.55 -0.9 L-0.5 -0.9 -0.45 -0.85 -0.45 -0.85 -0.3 -0.85 -0.35 -0.8 -0.4 -0.8 -0.45 -0.85 -0.5 -0.85 -0.55 -0.85 -0.6 -0.8 -0.6 -0.75 -0.6 -0.7 -0.6 -0.55 -0.55 -0.6 -0.45 -0.6 -0.45 -0.55 -0.5 -0.55 -0.5 -0.45 -0.6 -0.45 -0.6 -0.45 -0.75 -0.4 -0.75 -0.55 -0.75 -0.6 -0.9 -0.65 -0.9 -0.55 -1.0 -0.6 -0.9 -0.7 -0.9 -0.7 -0.8 -0.7 -0.75 -0.7 -0.7 -0.7 -0.65 -0.55 -0.6 -0.65 Q-0.6 -0.7 -0.65 -0.75 L-0.7 -0.85 -0.75 -0.95 -0.7 -0.95 M-0.6 -0.7 L-0.6 -0.7" fill="#aea391" fill-rule="evenodd" stroke="none"/>
    <path d="M-1.4 -0.2 L-1.3 -0.4 -1.15 -0.65 -1.15 -0.7 -1.1 -0.7 -1.1 -0.55 -1.0 -0.4 -0.95 -0.35 -0.9 -0.35 -0.95 -0.25 Q-1.0 -0.2 -1.05 -0.2 L-1.15 -0.2 -1.2 -0.05 -1.3 -0.2 Q-1.25 -0.25 -1.2 -0.45 L-1.3 -0.3 -1.4 -0.2" fill="#332721" fill-rule="evenodd" stroke="none"/>
    <path d="M-1.6 0.3 L-1.6 0.25 -1.55 0.2 -1.55 0.0 -1.4 0.0 Q-1.45 0.05 -1.5 0.05 L-1.55 0.25 -1.5 0.35 -1.45 0.4 -1.5 0.4 -1.5 0.35 -1.6 0.3 -1.6 0.3" fill="#918976" fill-rule="evenodd" stroke="none"/>
    <path d="M-1.2 -0.05 L-1.15 -0.2 -1.05 -0.2 -1.0 -0.15 -0.95 -0.05 -0.85 0.0 -0.8 0.0 -0.8 0.1 Q-1.1 0.05 -1.2 -0.05" fill="#675950" fill-rule="evenodd" stroke="none"/>
    <path d="M-0.45 -0.85 L-0.2 -0.85 -0.3 -0.8 -0.2 -0.7 -0.3 -0.65 -0.3 -0.6 -0.35 -0.5 -0.4 -0.45 -0.6 -0.45 -0.5 -0.45 -0.5 -0.55 -0.45 -0.55 -0.45 -0.6 -0.55 -0.6 -0.55 -0.65 -0.4 -0.7 -0.4 -0.6 -0.35 -0.6 -0.35 -0.75 -0.4 -0.7 -0.45 -0.75 -0.35 -0.8 -0.3 -0.85 -0.45 -0.85" fill="#8b795c" fill-rule="evenodd" stroke="none"/>
    <path d="M-0.6 -0.75 L-0.6 -0.8 -0.55 -0.85 -0.5 -0.85 -0.45 -0.85 -0.4 -0.8 -0.6 -0.75 -0.6 -0.75" fill="#5a4222" fill-rule="evenodd" stroke="none"/>
    <path d="M-0.6 -0.75 L-0.4 -0.8 -0.35 -0.8 -0.45 -0.75 -0.5 -0.75 -0.55 -0.65 -0.6 -0.7 -0.6 -0.75 M-0.6 -0.7 L-0.6 -0.7" fill="#fdfcfd" fill-rule="evenodd" stroke="none"/>
    <path d="M-0.9 -0.35 L-0.95 -0.35 -1.0 -0.4 -1.1 -0.55 -1.05 -0.55 -1.05 -0.6 -1.0 -0.55 -0.95 -0.45 -1.0 -0.4 -0.9 -0.4 -0.85 -0.35 -0.9 -0.35" fill="#d1c4aa" fill-rule="evenodd" stroke="none"/>
    <path d="M-0.85 -0.35 L-0.9 -0.4 -1.0 -0.4 -0.95 -0.45 -0.9 -0.5 -0.85 -0.55 -0.85 -0.5 -0.75 -0.55 -0.75 -0.4 Q-0.8 -0.35 -0.85 -0.35" fill="#917e66" fill-rule="evenodd" stroke="none"/>
    <path d="M-0.8 0.1 L-0.8 0.0 -0.85 0.0 -0.95 -0.05 -1.0 -0.15 -1.05 -0.2 Q-1.0 -0.2 -0.95 -0.25 L-0.9 -0.35 -0.85 -0.35 Q-0.8 -0.35 -0.75 -0.4 L-0.6 -0.45 -0.55 -0.25 -0.55 -0.25 -0.65 -0.05 -0.75 0.1 -0.8 0.1" fill="#453932" fill-rule="evenodd" stroke="none"/>
    <path d="M-0.4 -0.05 L-0.35 -0.05 -0.35 -0.35 -0.25 0.0 Q-0.3 0.05 -0.4 -0.05" fill="#6b6b6c" fill-rule="evenodd" stroke="none"/>
    <path d="M-0.35 0.2 L-0.35 0.2 -0.4 0.25 -0.5 0.25 -0.6 0.25 -0.7 0.3 -0.75 0.3 -0.85 0.4 -0.8 0.35 -0.75 0.25 -0.55 0.2 -0.35 0.2" fill="#716256" fill-rule="evenodd" stroke="none"/>
    <path d="M-1.8 0.9 L-1.7 0.7 -1.65 0.5 -1.65 0.5 -1.6 0.45 -1.6 0.4 -1.5 0.35 -1.5 0.4 -1.65 0.65 -1.6 0.6 -1.7 0.75 -1.8 0.9 M-1.65 0.5 L-1.6 0.45 -1.65 0.5" fill="#343231" fill-rule="evenodd" stroke="none"/>
    <path d="M-1.2 1.1 L-1.2 1.15 -1.15 1.15 -1.35 1.2 -1.25 1.2 -1.2 1.15 -1.2 1.1 M-1.95 1.1 L-1.9 1.05 -1.85 1.0 -1.8 1.0 -1.85 1.15 -1.85 1.2 -2.0 1.15 -1.95 1.1 M-1.6 0.45 L-1.6 0.4 -1.65 0.35 -1.6 0.3 -1.6 0.3 -1.6 0.3 -1.5 0.35 -1.6 0.4 -1.6 0.45" fill="#473f3e" fill-rule="evenodd" stroke="none"/>
    <path d="M-1.15 1.15 L-1.15 1.15 -1.2 1.2 -1.25 1.25 -1.55 1.25 -1.7 1.25 -2.05 1.15 -1.85 1.2 -1.75 1.2 -1.85 1.2 -1.65 1.2 -1.45 1.2 -1.25 1.2 -1.35 1.2 -1.15 1.15" fill="#363333" fill-rule="evenodd" stroke="none"/>
    <path d="M-1.75 1.2 L-1.65 1.2 -1.85 1.2 -1.75 1.2" fill="#645f5c" fill-rule="evenodd" stroke="none"/>
    <path d="M0.55 -1.05 L0.45 -1.05 0.4 -1.1 0.35 -1.3 0.25 -1.5 0.25 -1.6 0.2 -1.75 0.2 -1.55 0.25 -1.35 0.25 -1.2 0.3 -1.0 0.35 -0.95 0.25 -0.95 0.15 -1.0 0.2 -0.95 0.2 -0.9 0.25 -0.9 M0.6 -0.95 L0.55 -0.95 M0.55 -1.05 L0.7 -1.0 0.75 -0.9 0.9 -0.9 1.4 -0.9 1.9 -0.9 2.25 -0.9 2.6 -0.9 3.05 -0.85 3.55 -0.85 3.75 -0.85 3.9 -0.85 4.05 -0.85 4.2 -0.85 4.4 -0.85 4.5 -0.8 4.7 -0.85 4.85 -0.85 5.1 -0.9 5.1 -0.85 Q5.15 -0.75 5.1 -0.55 L5.15 -0.55 5.1 -0.4 5.05 -0.35 5.05 -0.3 4.85 -0.35 4.7 -0.3 3.75 -0.3 3.65 -0.3 3.5 -0.3 3.15 -0.3 2.95 -0.3 2.7 -0.3 2.1 -0.35 1.4 -0.35 0.85 -0.35 0.3 -0.35 0.25 -0.35 0.2 -0.35 0.15 -0.3 0.15 -0.05 0.1 0.0 0.0 0.1 0.0 0.1 -0.05 0.05 -0.15 0.15 -0.2 0.2 -0.25 0.25 -0.25 0.2 -0.35 0.2 -0.35 0.2 -0.4 0.25 -0.5 0.25 -0.6 0.25 -0.7 0.3 -0.75 0.3 -0.85 0.4 -0.9 0.45 -0.95 0.6 -1.0 0.7 -1.1 0.9 -1.15 1.1 -1.2 1.1 -1.2 1.15 -1.15 1.15 -1.15 1.15 -1.2 1.2 -1.25 1.25 -1.55 1.25 -1.7 1.25 -2.05 1.15 -2.05 1.15 -1.95 1.1 -1.9 1.05 -1.85 1.0 -1.8 0.9 -1.7 0.7 -1.65 0.5 -1.65 0.5 -1.6 0.45 -1.6 0.4 -1.65 0.35 -1.6 0.3 -1.6 0.3 -1.6 0.25 -1.55 -0.05 -1.5 -0.1 -1.45 -0.15 -1.4 -0.2 -1.3 -0.4 -1.15 -0.65 -1.15 -0.7 -1.1 -0.7 -1.05 -0.75 -1.0 -0.85 -1.0 -0.95 -1.05 -1.0 -1.05 -1.25 -1.05 -1.25 -1.0 -1.3 -0.95 -1.3 -0.95 -1.4 -1.0 -1.45 -1.05 -1.45 -1.1 -1.5 -1.0 -1.5 -0.95 -1.55 -0.95 -1.65 -0.9 -1.75 -0.85 -1.8 -0.75 -1.75 -0.8 -1.6 -0.8 -1.5 -0.7 -1.45 -0.65 -1.4 -0.6 -1.3 -0.75 -1.3 -0.85 -1.3 -0.7 -1.2 -0.65 -1.2 -0.6 -1.15 -0.7 -1.1 -0.75 -1.05 -0.75 -1.0 -0.7 -0.95 -0.7 -0.95 -0.6 -0.85 Q-0.6 -0.85 -0.55 -0.9 L-0.5 -0.9 -0.45 -0.85 -0.45 -0.85 -0.2 -0.85 -0.1 -0.9 0.0 -0.9 0.1 -0.9 0.2 -0.95 M0.6 -0.95 L0.7 -0.9 M0.0 -0.35 L0.0 -0.25 -0.05 -0.15 -0.15 -0.05 -0.2 0.05 -0.45 0.15 -0.75 0.1 -0.65 -0.05 -0.55 -0.25 -0.5 -0.25 -0.45 -0.15 -0.4 -0.05 Q-0.3 0.05 -0.25 0.0 L-0.35 -0.35 -0.25 -0.4 -0.15 -0.4 0.0 -0.35 M-0.95 -1.05 L-0.95 -1.1 M-0.55 -0.25 L-0.55 -0.25 M-1.6 0.45 L-1.65 0.5" fill="none" stroke="#000000" stroke-linecap="round" stroke-linejoin="round" stroke-opacity="0.4509804" stroke-width="0.15000000000000002"/>
  </g>
</svg>
