<?xml version="1.0" encoding="UTF-8" standalone="no"?>
<svg xmlns:xlink="http://www.w3.org/1999/xlink" height="16.2px" width="25.75px" xmlns="http://www.w3.org/2000/svg">
  <g transform="matrix(1.0, 0.0, 0.0, 1.0, 12.25, 8.0)">
    <path d="M5.55 -1.25 Q5.65 -1.15 5.65 -0.95 L5.6 -0.35 Q5.5 0.15 5.35 0.15 L5.2 0.1 Q5.2 0.05 5.05 0.0 5.0 0.05 5.0 -0.05 L5.05 -0.4 4.85 -0.25 4.75 -0.3 Q4.75 -0.3 4.75 -0.4 L4.8 -0.5 4.9 -0.7 4.9 -0.75 Q4.7 -0.75 4.7 -0.9 L5.1 -0.9 5.3 -1.15 5.35 -1.15 5.35 -1.15 5.4 -1.1 5.45 -1.2 5.55 -1.25 5.55 -1.25 M-7.8 0.2 L-7.7 0.25 -7.65 0.35 -7.5 0.5 -7.3 0.8 Q-7.3 1.0 -7.5 1.0 -7.75 1.0 -7.95 0.75 L-8.05 0.6 -8.1 0.5 Q-8.1 -0.1 -7.8 0.2 M-7.25 -0.6 L-7.25 -0.6 -7.1 -0.5 -6.9 -0.3 -6.75 -0.1 Q-6.45 0.3 -6.45 0.45 -6.45 0.65 -6.6 0.65 -6.7 0.65 -7.0 0.1 L-7.25 -0.3 -7.3 -0.4 -7.25 -0.6 M-6.5 -1.2 L-6.35 -1.4 Q-6.15 -1.2 -6.15 -0.5 L-6.2 -0.25 Q-6.25 -0.1 -6.4 -0.1 -6.55 -0.1 -6.65 -0.25 L-6.8 -0.5 -6.85 -0.5 -6.8 -0.55 -6.7 -0.5 Q-6.65 -0.6 -6.6 -0.95 L-6.55 -1.1 -6.5 -1.2 M-4.7 -1.05 L-4.7 -1.05 Q-4.55 -0.8 -4.35 -0.4 -4.35 -0.2 -4.55 -0.2 -4.8 -0.2 -4.95 -0.55 L-5.05 -0.9 -5.05 -1.05 Q-5.0 -1.45 -4.7 -1.05 M-8.85 0.55 Q-8.8 0.1 -8.5 0.5 -8.3 0.7 -8.15 1.05 -8.15 1.3 -8.35 1.3 L-8.45 1.25 -8.7 1.05 -8.7 1.0 -8.75 0.9 -8.85 0.7 -8.85 0.55" fill="#3f71e0" fill-rule="evenodd" stroke="none"/>
    <path d="M-2.55 -1.15 L-2.3 -1.15 Q-1.9 -1.15 -1.65 -0.85 L-1.55 -0.75 -1.5 -0.7 Q-1.3 -0.4 -1.3 -0.05 -1.3 0.3 -1.5 0.6 -1.7 1.05 -2.2 1.05 -2.85 1.05 -3.15 0.55 -3.3 0.3 -3.35 0.0 L-3.35 -0.1 Q-3.3 -0.65 -3.0 -0.95 -2.8 -1.15 -2.55 -1.15" fill="#ff0046" fill-rule="evenodd" stroke="none"/>
    <path d="M2.8 -2.95 Q3.0 -2.95 3.0 -2.75 L2.95 -2.7 3.85 -2.5 5.4 -2.5 5.6 -2.55 6.9 -2.45 7.8 -2.35 7.85 -2.35 Q7.9 -2.7 8.2 -2.75 8.6 -2.85 8.6 -2.55 L8.55 -2.35 Q8.65 -2.3 8.65 -2.15 L8.7 -1.9 8.85 -2.0 8.9 -2.0 9.0 -2.15 9.3 -2.85 9.4 -2.85 9.4 -2.9 9.3 -3.3 9.3 -3.35 9.6 -3.1 9.65 -2.85 9.65 -2.7 9.7 -2.6 Q9.7 -2.45 9.5 -2.2 L9.4 -2.1 9.15 -1.75 Q9.15 -1.75 9.25 -1.75 9.3 -1.75 9.5 -1.9 9.7 -2.05 9.8 -2.05 9.9 -2.05 10.0 -1.9 10.15 -1.7 10.35 -1.7 10.65 -1.7 10.8 -1.8 10.95 -1.9 11.05 -2.1 L11.05 -2.1 Q10.8 -1.55 10.4 -1.55 10.25 -1.55 10.05 -1.7 L9.8 -1.85 Q9.65 -1.85 9.5 -1.7 9.4 -1.55 9.25 -1.55 9.15 -1.55 9.05 -1.7 L9.05 -1.7 Q8.9 -1.6 8.75 -1.6 8.6 -1.6 8.6 -1.65 L8.6 -1.65 Q8.5 -1.7 8.45 -1.8 L8.4 -2.0 Q8.2 -1.9 8.0 -1.9 L7.8 -1.9 7.4 -1.7 Q7.2 -1.7 7.15 -1.8 L7.05 -1.9 Q6.95 -1.9 6.9 -1.85 6.85 -1.75 6.75 -1.75 L6.45 -1.8 6.1 -1.8 5.75 -1.9 5.65 -1.95 5.45 -1.9 5.0 -1.8 4.8 -1.75 4.5 -1.65 4.1 -1.7 3.8 -1.7 Q3.65 -1.7 3.5 -1.85 3.55 -2.0 3.7 -2.05 3.9 -2.15 4.15 -2.15 L4.35 -2.1 Q4.45 -2.05 4.5 -2.05 L4.8 -2.1 5.15 -2.15 5.4 -2.2 3.9 -2.2 2.75 -2.4 Q2.5 -2.2 2.2 -2.2 1.9 -2.2 1.3 -2.4 L1.05 -2.55 0.8 -2.55 Q0.4 -2.55 0.3 -2.6 L0.3 -2.7 0.5 -2.75 1.1 -2.75 1.1 -2.8 2.3 -2.75 Q2.65 -2.95 2.8 -2.95 M0.15 -0.2 L0.1 -0.45 Q0.2 -0.9 0.55 -0.9 0.95 -0.9 1.05 -0.5 L1.0 -0.2 0.6 -0.15 0.15 -0.2 M2.95 -0.95 Q3.05 -1.05 3.2 -0.8 3.3 -0.65 3.3 -0.45 3.3 -0.3 3.05 -0.1 2.85 0.15 2.55 0.15 L2.4 0.15 2.35 0.05 Q2.8 -0.15 2.9 -0.4 3.0 -0.65 2.95 -0.95 M2.7 -0.85 L2.25 -0.45 2.1 -0.15 Q2.0 0.05 1.95 0.05 2.0 -0.25 2.25 -0.6 2.55 -1.0 2.9 -1.15 2.9 -1.15 2.95 -1.15 L2.95 -1.05 2.7 -0.85 M3.95 -1.05 Q3.95 -1.3 4.25 -1.35 4.55 -1.4 4.55 -1.15 L4.5 -0.95 4.4 -0.8 4.1 -0.8 3.95 -0.9 3.95 -1.05 M5.3 -1.15 L5.3 -1.1 Q5.15 -1.1 5.05 -1.25 L5.0 -1.4 Q5.0 -1.55 5.3 -1.55 5.65 -1.55 5.65 -1.4 L5.55 -1.25 5.55 -1.25 5.45 -1.2 5.35 -1.15 5.35 -1.15 5.3 -1.15 M6.55 -1.35 Q6.7 -1.3 6.7 -1.15 6.7 -1.05 6.6 -0.95 6.5 -0.9 6.45 -0.9 6.15 -0.9 6.2 -1.05 L6.2 -1.35 6.55 -1.35 M7.05 -1.15 Q7.05 -1.55 7.3 -1.45 7.6 -1.35 7.6 -1.0 L7.6 -0.9 7.55 -0.95 Q7.45 -1.05 7.4 -1.2 L7.4 -1.2 Q7.3 -0.9 7.2 -0.9 L7.1 -0.95 7.1 -0.95 7.05 -1.15 M11.95 -3.4 Q12.25 -2.55 12.25 -1.7 L12.25 -1.1 Q12.15 -0.8 11.85 -0.5 L11.8 -0.5 11.8 -0.65 Q11.7 -0.5 11.55 -0.5 L11.6 -0.8 Q11.5 -0.45 11.35 -0.35 L11.3 -0.4 Q11.25 -0.4 11.25 -0.5 L11.3 -0.6 11.35 -0.7 11.5 -1.95 Q11.6 -2.3 11.5 -2.6 11.4 -3.0 11.4 -3.15 L11.4 -3.2 11.45 -3.2 11.5 -3.2 11.65 -2.45 11.75 -1.7 11.7 -1.4 11.75 -1.7 11.6 -3.35 11.6 -3.35 Q11.7 -3.25 11.85 -2.55 L11.95 -1.7 11.95 -1.2 Q12.05 -1.4 12.05 -1.7 L11.95 -3.4 11.95 -3.4 M11.05 0.45 L11.0 0.5 10.9 0.55 10.4 0.4 10.4 0.3 Q10.55 0.2 10.75 0.25 10.95 0.25 11.05 0.45 M9.5 0.45 L9.6 0.5 9.6 0.55 9.5 0.7 9.35 0.75 7.35 0.7 7.25 0.6 Q7.45 0.35 7.75 0.45 L9.2 0.6 Q9.35 0.6 9.35 0.55 L9.5 0.45 M7.3 0.1 L7.35 0.05 7.45 0.25 7.35 0.35 6.9 0.4 6.5 0.35 5.95 0.4 5.8 0.55 Q5.65 0.7 5.3 0.7 L4.8 0.55 4.5 0.6 4.2 0.65 4.05 0.65 4.05 0.6 Q4.2 0.45 4.45 0.4 L4.75 0.35 5.2 0.4 5.35 0.5 Q5.5 0.5 5.65 0.35 5.8 0.25 6.5 0.2 L6.55 0.25 7.35 0.3 Q7.4 0.2 7.3 0.1 M3.6 0.8 L3.3 1.15 3.1 1.0 3.05 0.8 Q3.15 0.5 3.4 0.25 3.75 0.0 3.75 0.45 L3.6 0.8 M2.05 0.55 L1.2 0.3 1.65 0.3 Q1.95 0.35 2.1 0.5 L2.05 0.55 M0.8 0.9 L0.6 0.95 Q0.35 0.95 0.25 0.75 L0.2 0.55 Q0.2 0.35 0.55 0.5 0.7 0.6 1.0 0.8 L0.8 0.9 M-8.05 0.6 Q-8.5 0.35 -8.75 0.05 L-8.2 0.1 -8.25 -0.15 -8.2 -0.35 -8.1 -0.55 -7.8 0.2 Q-8.1 -0.1 -8.1 0.5 L-8.05 0.6 M-7.65 0.35 L-7.65 -0.35 Q-7.55 -0.65 -7.25 -0.65 L-7.25 -0.6 -7.3 -0.4 -7.25 -0.3 -7.3 0.0 Q-7.4 0.4 -7.5 0.5 L-7.65 0.35 M-7.1 -0.5 Q-7.05 -0.7 -6.9 -0.9 -6.7 -1.3 -6.5 -1.25 L-6.5 -1.2 -6.55 -1.1 Q-6.7 -1.0 -6.75 -0.7 L-6.8 -0.55 -6.85 -0.5 -6.8 -0.5 -6.9 -0.3 -7.1 -0.5 M-6.25 -1.65 L-6.2 -1.7 Q-5.95 -1.55 -5.75 -1.2 -5.5 -0.85 -5.5 -0.55 L-5.6 -0.1 -5.75 0.4 Q-5.55 0.5 -5.35 0.8 -5.1 1.1 -5.1 1.25 -5.1 1.35 -5.25 1.45 L-6.2 0.45 -6.05 0.05 Q-5.9 -0.3 -5.9 -0.6 -5.9 -0.7 -6.1 -1.05 -6.3 -1.4 -6.3 -1.55 L-6.25 -1.65 M-5.05 -1.45 Q-5.15 -1.1 -5.4 -1.1 -5.55 -1.1 -5.55 -1.15 L-5.55 -1.25 -5.4 -1.75 Q-5.25 -2.2 -5.1 -2.3 L-5.0 -2.05 -5.0 -1.85 Q-5.0 -1.6 -5.05 -1.45 M-5.05 -1.05 L-5.05 -1.2 -4.8 -1.45 Q-4.5 -1.8 -4.5 -2.4 -4.3 -2.45 -4.2 -2.25 -4.15 -2.1 -4.15 -1.9 L-4.15 -1.75 Q-3.95 -2.1 -3.85 -2.6 -3.65 -2.7 -3.55 -2.4 -3.45 -2.25 -3.45 -2.0 L-3.3 -2.1 -2.4 -2.05 Q-2.5 -1.95 -2.65 -1.85 L-2.3 -1.85 -2.25 -1.8 -2.15 -1.95 -2.25 -2.0 -2.3 -2.2 -2.25 -2.45 -2.1 -2.5 -1.95 -2.35 -1.9 -2.25 -1.8 -2.35 -1.65 -2.7 Q-1.5 -2.9 -1.3 -2.8 -1.15 -2.95 -0.9 -2.95 -0.45 -2.95 -0.25 -2.6 -0.15 -2.35 -0.15 -2.1 -0.15 -1.55 -0.75 -1.55 -1.35 -1.55 -1.45 -1.85 L-1.45 -2.05 -1.55 -2.0 Q-1.85 -1.8 -2.15 -1.65 -2.15 -1.5 -2.2 -1.5 L-2.45 -1.55 -3.05 -1.45 -3.3 -1.45 -3.1 -1.65 -3.6 -1.55 -3.65 -1.45 Q-3.9 -1.1 -4.15 -1.1 L-4.3 -1.1 -4.35 -1.15 -4.35 -1.3 Q-4.5 -1.1 -4.7 -1.05 -5.0 -1.45 -5.05 -1.05 M-4.2 -0.15 L-3.7 -0.25 Q-3.7 -0.35 -3.8 -0.35 L-3.75 -0.4 -3.6 -0.3 -3.55 -0.3 Q-3.5 -1.2 -2.5 -1.35 L-1.75 -1.3 Q-1.4 -1.2 -1.4 -0.9 L-1.3 -0.6 -1.3 -0.55 -1.15 -0.1 Q-1.15 0.3 -1.35 0.6 -1.65 1.1 -2.35 1.1 -2.9 1.1 -3.3 0.5 -3.5 0.15 -3.55 -0.1 -3.7 0.05 -4.0 0.05 -4.2 0.05 -4.3 -0.05 L-4.2 -0.15 M-2.55 -1.15 L-1.95 -1.1 -1.7 -1.0 Q-2.0 -1.25 -2.35 -1.25 -2.75 -1.25 -3.05 -0.95 -3.35 -0.65 -3.35 -0.2 L-3.35 -0.1 -3.35 0.0 Q-3.3 0.3 -3.15 0.55 -2.85 1.05 -2.2 1.05 -1.7 1.05 -1.5 0.6 -1.3 0.3 -1.3 -0.05 -1.3 -0.4 -1.5 -0.7 L-1.55 -0.75 -1.65 -0.85 Q-1.9 -1.15 -2.3 -1.15 L-2.55 -1.15 M-7.2 2.2 Q-6.9 1.8 -6.75 1.55 -6.55 1.6 -6.55 1.75 -6.55 1.85 -6.8 2.05 -7.0 2.25 -7.1 2.25 L-7.2 2.2 -7.2 2.2 M-8.75 0.9 Q-8.95 0.85 -9.2 0.7 -9.45 0.55 -9.45 0.45 L-9.45 0.4 -9.4 0.35 -8.85 0.55 -8.85 0.7 -8.75 0.9 M-8.45 1.25 Q-8.45 1.35 -8.6 1.4 L-9.2 1.4 -9.75 1.4 -9.6 1.75 Q-9.6 1.9 -9.75 2.0 L-10.0 1.5 -10.15 0.95 -10.1 0.8 Q-10.0 0.85 -9.8 1.2 -9.45 1.0 -8.95 1.0 L-8.7 1.05 -8.45 1.25 M-12.05 1.8 Q-11.75 1.8 -11.25 2.5 L-11.25 2.65 -11.4 2.7 Q-11.65 2.7 -11.9 2.35 L-12.1 2.0 -12.05 1.8 M-10.3 1.5 Q-10.2 1.6 -10.2 1.75 L-10.25 2.25 -10.25 2.25 -10.35 1.5 -10.3 1.5 M-10.75 1.4 Q-10.75 0.9 -10.55 1.15 -10.3 1.4 -10.3 1.75 -10.3 2.0 -10.35 2.1 L-10.4 2.15 -10.45 2.3 Q-10.45 2.35 -10.55 2.35 L-10.6 2.35 -10.8 2.45 -10.8 2.3 -11.05 2.25 Q-11.45 2.1 -11.55 1.95 L-10.8 1.9 -10.7 1.95 -10.7 1.85 -10.75 1.6 -10.75 1.4 M-11.6 3.35 L-11.75 3.45 Q-12.05 3.45 -12.2 3.15 L-12.25 2.95 -11.9 2.95 -11.45 3.25 -11.6 3.35" fill="#ffc400" fill-rule="evenodd" stroke="none"/>
    <path d="M6.55 -5.9 L7.9 -5.65 Q8.2 -5.5 8.8 -5.5 L8.9 -5.5 Q8.95 -6.35 9.25 -6.45 9.65 -6.6 9.65 -5.95 L9.6 -5.45 Q9.7 -5.3 9.7 -5.0 L9.75 -4.4 Q9.85 -4.45 9.9 -4.6 L9.95 -4.7 10.05 -4.95 10.4 -6.7 10.5 -6.6 10.5 -6.75 10.4 -7.75 10.4 -7.85 Q10.7 -7.45 10.75 -7.2 L10.75 -6.35 10.8 -6.05 Q10.8 -5.7 10.6 -5.1 L10.5 -4.9 Q10.4 -4.4 10.25 -4.1 10.25 -4.05 10.35 -4.05 10.4 -4.05 10.6 -4.4 10.8 -4.8 10.9 -4.8 11.0 -4.8 11.15 -4.4 11.25 -4.0 11.5 -4.0 11.8 -4.0 11.95 -4.2 12.1 -4.45 12.2 -4.9 L12.25 -4.9 Q11.95 -3.6 11.55 -3.6 11.4 -3.6 11.15 -4.0 L10.9 -4.35 Q10.75 -4.35 10.65 -4.0 10.5 -3.6 10.35 -3.6 10.25 -3.6 10.15 -3.9 L10.15 -3.9 Q10.0 -3.7 9.8 -3.7 9.65 -3.7 9.65 -3.8 L9.65 -3.85 Q9.55 -3.9 9.5 -4.15 L9.45 -4.65 Q9.25 -4.35 9.05 -4.35 L8.85 -4.45 8.4 -4.0 Q8.2 -4.0 8.15 -4.2 L8.05 -4.4 Q7.95 -4.4 7.9 -4.25 7.85 -4.1 7.7 -4.1 L7.05 -4.2 Q6.8 -4.2 6.7 -4.35 L6.55 -4.5 6.4 -4.4 Q6.25 -4.2 5.9 -4.15 5.9 -4.15 5.7 -4.0 5.55 -3.85 5.4 -3.85 L5.0 -3.9 Q4.8 -4.0 4.65 -4.0 4.55 -4.0 4.35 -4.35 4.4 -4.6 4.55 -4.8 4.75 -5.05 5.05 -5.05 L5.2 -4.9 Q5.3 -4.75 5.4 -4.75 5.55 -4.75 5.7 -4.85 5.85 -4.95 6.05 -4.95 L6.35 -5.15 4.75 -5.15 3.55 -5.6 Q3.3 -5.1 3.0 -5.1 2.65 -5.1 2.05 -5.65 L1.8 -5.9 1.5 -5.9 Q1.15 -5.9 1.0 -6.05 L1.0 -6.35 1.2 -6.4 1.85 -6.45 1.85 -6.5 3.1 -6.45 Q3.45 -6.9 3.65 -6.9 3.8 -6.9 3.8 -6.35 L3.8 -6.25 4.75 -5.85 6.35 -5.85 Q6.45 -5.9 6.55 -5.9 M3.75 -2.6 L3.75 -2.4 Q3.75 -2.3 3.55 -1.9 L3.05 -0.95 2.9 -0.3 Q2.8 0.15 2.7 0.25 2.8 -0.45 3.05 -1.3 3.35 -2.25 3.7 -2.65 L3.75 -2.6 M1.3 -2.05 Q1.7 -2.1 1.8 -1.05 L1.75 -0.45 Q1.5 -0.25 1.35 -0.25 L0.85 -0.45 0.8 -1.0 Q0.9 -2.0 1.3 -2.05 M3.75 -2.2 Q3.9 -2.35 4.0 -1.85 4.1 -1.4 4.1 -1.0 4.1 -0.6 3.9 -0.1 3.65 0.45 3.35 0.45 3.3 0.4 3.2 0.4 L3.15 0.15 Q3.6 -0.2 3.75 -0.9 3.85 -1.4 3.75 -2.2 M6.6 -3.2 L6.5 -2.9 Q6.6 -2.65 6.6 -2.2 L6.55 -0.8 Q6.45 0.4 6.3 0.4 6.15 0.4 6.15 0.3 6.1 0.15 5.95 0.1 5.9 0.2 5.9 -0.05 5.9 -0.5 5.95 -0.9 L5.75 -0.55 5.65 -0.6 Q5.65 -0.65 5.65 -0.85 L5.7 -1.15 5.8 -1.55 5.8 -1.65 Q5.6 -1.75 5.6 -2.0 L6.05 -2.1 6.25 -2.6 Q6.25 -2.55 6.2 -2.55 6.1 -2.55 6.0 -2.9 L5.9 -3.25 Q5.9 -3.6 6.25 -3.6 6.6 -3.6 6.6 -3.2 M6.4 -2.75 L6.3 -2.65 6.3 -2.55 6.4 -2.75 M7.7 -2.65 Q7.7 -2.4 7.6 -2.2 7.5 -2.0 7.4 -2.0 7.15 -2.0 7.15 -2.4 7.2 -2.9 7.2 -3.15 7.35 -3.3 7.55 -3.1 7.7 -2.95 7.7 -2.65 M5.4 -2.6 L5.35 -2.1 5.3 -1.85 4.95 -1.85 Q4.85 -1.9 4.85 -2.05 L4.8 -2.35 Q4.8 -2.95 5.1 -3.05 5.4 -3.15 5.4 -2.6 M8.1 -2.15 L8.05 -2.65 Q8.05 -3.55 8.35 -3.3 8.65 -3.1 8.65 -2.25 L8.65 -2.1 8.6 -2.15 Q8.5 -2.4 8.45 -2.7 L8.4 -2.7 Q8.35 -2.1 8.2 -2.1 8.1 -2.1 8.1 -2.1 L8.1 -2.15 M0.55 -4.85 Q0.55 -3.6 -0.1 -3.6 -0.7 -3.6 -0.8 -4.3 L-0.8 -4.8 -0.9 -4.65 Q-1.2 -4.15 -1.55 -3.8 -1.55 -3.5 -1.6 -3.5 L-1.85 -3.55 Q-2.35 -3.35 -2.5 -3.35 L-2.75 -3.4 -2.55 -3.85 Q-2.85 -3.6 -3.05 -3.6 L-3.1 -3.35 Q-3.35 -2.5 -3.65 -2.5 L-3.8 -2.55 -3.85 -2.65 -3.85 -3.0 Q-4.0 -2.55 -4.2 -2.4 L-4.2 -2.35 Q-4.05 -1.8 -3.85 -0.9 -3.85 -0.4 -4.05 -0.4 -4.3 -0.4 -4.45 -1.2 L-4.55 -2.0 -4.55 -2.4 -4.6 -2.5 -4.6 -2.7 -4.3 -3.35 Q-4.0 -4.15 -4.0 -5.65 -3.8 -5.7 -3.7 -5.25 -3.6 -4.85 -3.6 -4.35 L-3.65 -4.05 Q-3.4 -4.9 -3.35 -6.1 -3.1 -6.25 -3.0 -5.6 -2.9 -5.2 -2.9 -4.7 L-2.75 -4.85 Q-2.1 -5.4 -1.8 -4.8 -1.9 -4.5 -2.1 -4.25 -1.9 -4.3 -1.7 -4.25 L-1.65 -4.15 -1.5 -4.55 -1.65 -4.65 -1.7 -5.15 -1.65 -5.65 -1.5 -5.8 Q-1.4 -5.7 -1.3 -5.5 L-1.25 -5.25 -1.2 -5.45 -1.0 -6.25 Q-0.85 -6.7 -0.65 -6.5 -0.5 -6.95 -0.25 -6.95 0.25 -6.95 0.45 -6.0 0.55 -5.5 0.55 -4.85 M13.15 -8.0 Q13.5 -5.95 13.5 -3.9 L13.45 -2.55 Q13.4 -1.8 13.05 -1.1 L13.0 -1.15 13.0 -1.45 Q12.9 -1.05 12.75 -1.15 L12.8 -1.8 Q12.65 -1.0 12.55 -0.8 L12.45 -0.85 Q12.45 -0.9 12.45 -1.05 12.45 -1.2 12.5 -1.3 L12.55 -1.55 12.65 -4.55 Q12.8 -5.35 12.7 -6.05 12.6 -7.05 12.6 -7.4 L12.6 -7.5 12.7 -7.5 12.85 -5.7 12.95 -3.95 12.9 -3.25 12.95 -3.9 12.8 -7.85 12.8 -7.9 Q12.9 -7.6 13.05 -5.9 L13.15 -3.9 13.15 -2.4 13.2 -2.75 Q13.25 -3.25 13.25 -3.95 L13.15 -8.0 13.15 -8.0 M12.2 1.3 L12.1 1.4 11.55 1.0 11.55 0.8 Q11.7 0.6 11.9 0.65 12.1 0.75 12.25 1.15 L12.2 1.3 M10.65 1.75 L10.45 1.85 8.35 1.7 8.25 1.45 Q8.5 0.95 8.8 1.1 9.5 1.5 10.3 1.5 10.45 1.5 10.45 1.4 10.5 1.2 10.6 1.15 L10.7 1.25 10.7 1.4 Q10.7 1.6 10.65 1.75 M8.35 0.95 L7.85 1.0 7.45 0.95 6.9 1.0 6.75 1.4 Q6.6 1.7 6.25 1.7 5.8 1.4 5.7 1.4 5.6 1.4 5.35 1.55 L5.05 1.65 4.95 1.6 4.9 1.45 Q5.1 1.15 5.35 1.0 5.55 0.9 5.65 0.9 5.95 0.9 6.1 1.05 L6.25 1.2 Q6.4 1.2 6.6 0.95 6.75 0.65 7.45 0.6 L7.55 0.7 8.35 0.75 Q8.4 0.6 8.3 0.3 L8.35 0.25 8.45 0.7 8.35 0.95 M4.45 2.0 Q4.3 2.6 4.1 2.75 L3.95 2.4 Q3.9 2.35 3.85 2.0 4.0 1.25 4.25 0.75 4.6 0.1 4.6 1.2 4.6 1.5 4.45 2.0 M2.8 1.4 Q2.7 1.4 2.4 1.15 L1.95 0.8 Q2.1 0.6 2.45 0.8 2.75 0.95 2.85 1.25 L2.8 1.4 M0.95 1.8 L0.9 1.4 Q0.9 0.95 1.25 1.35 L1.7 1.95 1.55 2.2 1.35 2.3 Q1.1 2.3 0.95 1.8 M-4.5 -4.3 Q-4.5 -3.75 -4.55 -3.3 -4.65 -2.5 -4.9 -2.5 -5.05 -2.5 -5.1 -2.65 L-5.1 -2.9 -4.95 -4.05 Q-4.8 -5.15 -4.65 -5.3 -4.55 -4.95 -4.5 -4.8 L-4.5 -4.3 M-5.8 -3.9 Q-5.5 -3.6 -5.3 -2.75 -5.05 -1.9 -5.05 -1.25 L-5.15 -0.1 Q-5.25 0.85 -5.3 1.0 -5.1 1.25 -4.85 2.0 -4.6 2.7 -4.6 3.0 -4.6 3.35 -4.8 3.5 L-5.75 1.15 -5.6 0.2 Q-5.45 -0.65 -5.45 -1.3 -5.45 -1.6 -5.65 -2.4 -5.85 -3.2 -5.85 -3.6 L-5.85 -3.85 -5.8 -3.9 M-6.1 -2.8 Q-6.05 -3.05 -5.95 -3.2 -5.75 -2.75 -5.75 -1.1 L-5.75 -0.5 Q-5.8 -0.2 -5.95 -0.2 -6.15 -0.2 -6.25 -0.5 L-6.4 -1.1 -6.5 -0.65 -6.35 -0.15 Q-6.05 0.8 -6.05 1.1 -6.05 1.6 -6.2 1.6 -6.3 1.6 -6.6 0.35 L-6.85 -0.65 -6.9 0.15 Q-7.0 1.05 -7.1 1.3 L-6.9 2.0 Q-6.9 2.45 -7.1 2.45 -7.35 2.45 -7.6 1.85 L-7.7 1.45 Q-8.15 0.95 -8.4 0.25 -8.2 0.0 -7.85 0.3 L-7.9 -0.3 -7.85 -0.75 -7.75 -1.2 -7.4 0.6 -7.35 0.7 -7.3 0.9 -7.3 0.3 -7.25 -0.75 Q-7.15 -1.4 -6.9 -1.45 L-6.85 -1.3 -6.85 -1.35 -6.7 -1.1 Q-6.65 -1.5 -6.5 -2.1 -6.3 -2.95 -6.1 -2.9 L-6.1 -2.8 M-6.3 -1.05 Q-6.25 -1.3 -6.15 -2.2 L-6.1 -2.55 Q-6.3 -2.25 -6.35 -1.6 L-6.4 -1.15 -6.3 -1.05 M-1.95 -2.65 Q-1.7 -2.85 -1.35 -2.55 L-1.05 -2.25 Q-1.35 -2.9 -1.75 -2.85 -2.2 -2.85 -2.45 -2.2 -2.8 -1.5 -2.8 -0.35 L-2.75 -0.1 Q-2.75 -1.4 -2.45 -2.1 -2.25 -2.6 -1.95 -2.65 M-1.1 -3.0 Q-0.8 -2.7 -0.8 -2.05 L-0.65 -1.35 -0.65 -1.2 Q-0.5 -0.35 -0.5 -0.2 -0.5 0.75 -0.7 1.45 -1.0 2.65 -1.75 2.65 -2.35 2.65 -2.75 1.25 -2.95 0.45 -3.0 -0.15 -3.15 0.15 -3.45 0.15 -3.7 0.15 -3.8 -0.05 L-3.65 -0.25 -3.2 -0.55 Q-3.2 -0.7 -3.3 -0.8 L-3.25 -0.85 -3.05 -0.65 -3.0 -0.65 Q-2.95 -2.7 -1.9 -3.1 -1.45 -3.3 -1.1 -3.0 M-8.0 3.1 L-8.1 3.05 Q-8.15 3.3 -8.25 3.35 L-8.85 3.35 -9.45 3.35 Q-9.3 4.05 -9.3 4.2 -9.3 4.55 -9.45 4.8 -9.55 4.55 -9.75 3.65 -9.9 2.7 -9.9 2.35 -9.9 2.0 -9.85 1.95 -9.75 2.1 -9.55 2.95 -9.15 2.45 -8.65 2.45 L-8.35 2.5 -8.4 2.45 -8.45 2.2 Q-8.65 2.15 -8.9 1.8 -9.15 1.4 -9.15 1.15 L-9.15 1.0 -9.1 0.95 Q-9.05 0.95 -8.7 1.25 L-8.5 1.45 Q-8.5 0.35 -8.15 1.2 -8.0 1.75 -7.8 2.55 -7.8 3.1 -8.0 3.1 M-6.35 4.9 Q-6.6 5.35 -6.7 5.35 L-6.8 5.35 -6.8 5.3 Q-6.5 4.35 -6.35 3.7 -6.1 3.85 -6.1 4.2 -6.1 4.45 -6.35 4.9 M-11.9 4.4 Q-11.55 4.35 -11.05 6.0 L-11.05 6.3 Q-11.1 6.45 -11.2 6.45 -11.45 6.45 -11.7 5.65 L-11.9 4.85 -11.9 4.4 M-10.55 4.6 L-10.5 4.65 -10.45 4.45 -10.5 3.9 -10.55 3.35 Q-10.55 2.2 -10.3 2.85 -10.05 3.45 -10.05 4.3 -10.05 4.85 -10.1 5.05 L-10.15 5.25 -10.2 5.5 Q-10.2 5.6 -10.3 5.6 L-10.35 5.6 -10.55 5.85 -10.6 5.6 -10.6 5.55 -10.85 5.4 Q-11.25 5.1 -11.35 4.7 -10.9 4.45 -10.55 4.6 M-9.95 4.2 L-10.0 5.35 -10.0 5.4 -10.1 3.6 -10.05 3.6 Q-9.95 3.85 -9.95 4.2 M-11.7 7.05 L-11.25 7.8 -11.4 8.05 Q-11.5 8.2 -11.55 8.2 -11.9 8.2 -12.0 7.6 L-12.1 7.05 Q-12.1 6.55 -11.7 7.05" fill="#ffc400" fill-opacity="0.0" fill-rule="evenodd" stroke="none"/>
  </g>
</svg>
