<?xml version="1.0" encoding="UTF-8" standalone="no"?>
<svg xmlns:xlink="http://www.w3.org/1999/xlink" height="5.8px" width="15.9px" xmlns="http://www.w3.org/2000/svg">
  <g transform="matrix(1.0, 0.0, 0.0, 1.0, 7.95, 2.9)">
    <path d="M0.9 -2.25 L0.55 -1.85 0.85 -1.25 Q0.85 -1.1 0.75 -1.1 0.5 -1.1 0.25 -1.6 -0.05 -1.4 -0.2 -1.4 -0.25 -1.4 -0.3 -1.45 L-0.35 -1.5 0.15 -1.85 0.0 -2.25 Q0.0 -2.75 0.45 -2.05 L0.9 -2.3 0.9 -2.25 M1.55 -0.8 L1.55 -0.85 1.85 -1.15 2.15 -1.45 1.9 -1.8 Q2.1 -1.8 2.3 -1.6 L2.55 -1.85 Q2.75 -2.1 2.85 -2.15 L2.9 -2.1 2.9 -2.05 Q2.9 -1.95 2.45 -1.45 L2.85 -0.9 Q2.75 -0.85 2.7 -0.85 2.55 -0.85 2.3 -1.2 L2.25 -1.25 Q1.85 -0.75 1.65 -0.75 L1.55 -0.8 M3.85 -1.75 Q3.85 -1.85 4.35 -2.15 L4.4 -2.15 4.35 -2.2 4.3 -2.65 4.3 -2.65 Q4.5 -2.65 4.6 -2.4 L4.65 -2.35 4.95 -2.5 4.95 -2.45 Q4.95 -2.35 4.65 -2.15 L4.65 -2.05 Q4.65 -1.85 4.55 -1.75 L4.45 -2.0 Q4.05 -1.75 3.9 -1.7 L3.85 -1.7 3.85 -1.75 M2.8 -0.15 Q2.8 -0.05 2.5 0.15 2.7 0.55 3.0 0.7 2.9 0.8 2.85 0.8 2.45 0.8 2.25 0.35 L2.05 0.45 2.0 0.45 1.95 0.4 Q1.95 0.35 2.2 0.2 2.1 -0.05 2.1 -0.25 2.1 -0.45 2.2 -0.45 L2.45 0.0 2.75 -0.25 2.8 -0.2 2.8 -0.15 M5.6 -2.55 Q5.8 -2.5 5.95 -2.3 L6.4 -2.75 Q6.3 -2.4 6.1 -2.1 L6.25 -1.75 6.2 -1.75 6.15 -1.75 Q6.1 -1.75 5.95 -1.9 5.65 -1.6 5.45 -1.6 L5.35 -1.6 5.8 -2.15 Q5.6 -2.4 5.6 -2.5 L5.6 -2.55 M4.55 -0.15 Q4.75 0.15 4.85 0.25 L4.8 0.35 Q4.8 0.4 4.75 0.4 4.55 0.4 4.3 0.0 L3.85 0.3 3.75 0.25 Q3.85 0.05 4.25 -0.2 4.1 -0.5 4.1 -0.75 4.25 -0.75 4.45 -0.35 L4.85 -0.55 4.9 -0.55 Q4.8 -0.4 4.55 -0.15 M7.3 -1.3 L7.7 -1.2 7.7 -1.25 7.65 -1.35 7.45 -1.55 7.55 -1.6 7.5 -1.65 Q7.4 -1.65 7.3 -1.55 L7.2 -1.4 Q7.2 -1.35 7.3 -1.3 M7.9 -1.4 L7.95 -1.2 7.9 -1.05 Q7.85 -0.9 7.7 -0.9 7.0 -0.9 7.0 -1.4 7.0 -1.5 7.1 -1.7 7.25 -1.85 7.4 -1.85 7.55 -1.85 7.65 -1.75 7.7 -1.65 7.65 -1.55 7.85 -1.45 7.9 -1.4 M6.4 -1.25 Q6.35 -1.15 6.25 -1.15 6.2 -1.15 6.0 -1.3 L6.25 -1.45 Q6.45 -1.55 6.45 -1.4 L6.4 -1.25 M6.35 -0.25 L6.85 -0.65 6.9 -0.65 6.9 -0.6 Q6.9 -0.5 6.45 -0.15 6.7 0.35 6.7 0.5 L6.6 0.65 6.25 0.05 Q5.85 0.35 5.75 0.35 L5.65 0.35 Q5.75 0.2 6.15 -0.1 6.05 -0.4 6.05 -0.55 6.05 -0.9 6.35 -0.25 L6.35 -0.25 M7.25 1.2 Q7.25 1.35 6.95 1.55 L7.0 1.8 Q7.0 1.9 6.9 1.9 6.8 1.9 6.7 1.7 L6.2 2.0 6.1 2.0 6.1 1.9 Q6.1 1.8 6.55 1.55 L6.65 1.5 6.55 1.25 Q6.55 0.9 6.8 1.3 L6.85 1.4 7.2 1.15 7.25 1.2 M5.0 1.6 L5.0 1.65 4.8 1.95 5.05 2.2 4.95 2.2 4.7 2.1 Q4.5 2.3 4.2 2.45 L4.15 2.45 4.15 2.4 Q4.15 2.35 4.35 2.15 L4.55 1.95 Q4.45 1.8 4.45 1.7 4.45 1.65 4.5 1.55 L4.7 1.85 5.0 1.6 M3.05 1.95 L3.1 2.0 Q3.5 1.55 3.7 1.45 L3.7 1.55 Q3.7 1.6 3.3 2.1 L3.8 2.35 3.7 2.45 3.1 2.35 2.65 2.8 2.55 2.8 2.55 2.7 2.9 2.25 2.85 2.2 Q2.45 1.95 2.45 1.8 2.45 1.7 3.05 1.95 M1.5 0.8 L1.55 0.8 1.55 0.85 1.15 1.35 1.45 1.8 1.35 1.85 Q1.15 1.85 0.95 1.55 L0.55 1.95 0.4 1.95 0.4 1.9 Q0.4 1.8 0.85 1.4 L0.65 1.05 Q0.65 0.75 1.0 1.15 L1.05 1.2 1.5 0.8 M0.0 1.1 L0.05 1.15 0.0 1.25 -0.05 1.25 -0.15 1.15 -0.25 1.2 -0.4 1.25 Q-0.55 1.25 -0.6 1.2 L-0.6 1.1 -0.25 1.0 -0.25 1.0 -0.35 0.75 -0.35 0.7 Q-0.25 0.7 -0.1 0.9 L-0.05 1.0 0.05 1.0 0.0 1.1 M-4.4 -2.9 L-4.4 -2.85 -4.9 -2.35 -4.5 -2.0 -4.55 -1.9 -4.7 -1.85 Q-4.85 -1.85 -5.1 -2.1 -5.45 -1.8 -5.65 -1.8 -5.75 -1.8 -5.8 -1.85 L-5.8 -1.9 Q-5.8 -2.0 -5.3 -2.35 L-5.55 -2.75 Q-5.55 -3.0 -5.2 -2.6 L-5.1 -2.55 Q-4.6 -2.85 -4.4 -2.9 M-6.35 -1.75 Q-6.35 -1.45 -6.65 -1.05 L-6.7 -1.05 -6.35 -0.5 -6.35 -0.4 Q-6.35 -0.35 -6.45 -0.35 -6.7 -0.35 -7.0 -0.75 -7.25 -0.55 -7.6 -0.55 -7.9 -0.55 -7.9 -0.7 -7.9 -0.9 -7.55 -0.95 L-7.2 -1.1 -7.45 -1.6 Q-7.45 -2.0 -6.9 -1.3 L-6.75 -1.5 Q-6.55 -1.7 -6.4 -1.8 L-6.35 -1.8 -6.35 -1.75 M-5.6 -1.25 L-5.5 -1.3 -5.5 -1.2 -5.25 -0.9 -5.35 -0.85 Q-5.5 -0.85 -5.65 -1.0 -5.85 -0.8 -5.95 -0.8 -6.05 -0.8 -6.05 -0.9 L-5.85 -1.1 -5.8 -1.15 -5.9 -1.15 Q-5.85 -1.5 -5.6 -1.25 L-5.6 -1.25 M-5.2 -0.9 Q-5.05 -0.85 -4.75 -0.35 L-4.05 -0.8 -4.0 -0.8 -4.0 -0.75 Q-4.0 -0.6 -4.55 -0.15 L-4.6 -0.1 Q-4.2 0.55 -4.2 0.7 -4.2 0.95 -4.3 0.95 L-4.4 0.95 Q-4.45 0.65 -4.8 0.05 -5.15 0.3 -5.35 0.3 -5.5 0.3 -5.5 0.2 L-4.95 -0.2 Q-5.2 -0.6 -5.2 -0.85 L-5.2 -0.9 M-2.1 -2.0 Q-2.3 -1.65 -2.55 -1.5 L-2.4 -1.1 Q-2.4 -0.95 -2.55 -0.95 -2.65 -0.95 -2.8 -1.3 -3.05 -1.15 -3.35 -1.15 -3.45 -1.15 -3.45 -1.3 L-3.0 -1.45 -2.9 -1.5 -2.9 -1.6 -3.05 -2.25 Q-3.05 -2.6 -2.75 -1.9 L-2.65 -1.65 Q-2.4 -1.85 -2.2 -2.15 L-2.15 -2.05 -2.1 -2.0 M-2.55 -0.7 L-2.55 -0.7 -2.8 -0.55 -2.85 -0.55 -2.9 -0.55 -2.7 -0.65 -2.55 -0.7 M-0.6 -2.05 L-0.8 -1.7 -0.6 -1.3 Q-0.6 -1.25 -0.65 -1.2 -0.7 -1.2 -0.75 -1.2 -0.85 -1.2 -1.0 -1.45 -1.2 -1.3 -1.3 -1.3 L-1.45 -1.35 Q-1.55 -1.4 -1.55 -1.5 -1.35 -1.5 -1.15 -1.65 L-1.15 -1.7 -1.4 -2.2 Q-1.4 -2.5 -1.0 -1.95 L-0.95 -1.85 -0.8 -2.1 -0.65 -2.1 -0.6 -2.05 M-0.65 -0.4 Q-0.4 -0.55 -0.2 -0.6 L-0.55 -0.3 Q-0.2 0.1 -0.2 0.15 -0.2 0.25 -0.4 0.25 -0.55 0.25 -0.8 -0.1 -1.0 0.05 -1.1 0.1 L-1.2 0.1 -0.9 -0.2 -0.9 -0.25 -1.15 -0.75 Q-1.15 -0.95 -0.65 -0.4 L-0.65 -0.4 M-1.45 2.15 Q-1.65 2.15 -1.85 1.85 -2.15 2.1 -2.3 2.15 L-2.35 2.15 -2.35 2.05 Q-2.35 1.95 -2.0 1.65 L-2.25 1.2 Q-2.25 0.85 -1.75 1.35 L-1.7 1.45 Q-1.25 1.05 -1.25 1.25 L-1.55 1.6 Q-1.3 1.9 -1.3 2.0 L-1.35 2.1 -1.45 2.15 M-0.35 2.3 L0.0 2.8 Q0.0 2.9 -0.1 2.9 -0.35 2.9 -0.6 2.5 -0.95 2.8 -1.1 2.8 -1.25 2.8 -1.25 2.75 L-1.3 2.65 -0.75 2.2 -0.85 1.95 Q-0.85 1.75 -0.55 2.05 -0.15 1.8 -0.15 2.0 -0.15 2.05 -0.35 2.3 M-2.15 0.15 Q-2.15 0.3 -2.8 0.55 L-2.75 0.85 Q-2.75 1.05 -2.9 1.05 -3.0 1.05 -3.05 0.65 L-3.4 0.75 -3.55 0.65 Q-3.45 0.5 -3.1 0.35 L-3.15 0.0 Q-3.15 -0.85 -2.95 -0.15 L-2.85 0.25 Q-2.45 0.1 -2.25 0.1 L-2.15 0.15 -2.15 0.15 M-5.95 2.3 Q-5.95 2.25 -5.4 1.85 L-5.4 1.85 -5.45 1.5 Q-5.45 1.15 -5.25 1.4 L-5.15 1.65 Q-4.85 1.5 -4.85 1.6 -4.85 1.65 -5.05 1.9 -4.95 2.15 -4.8 2.3 L-4.55 2.45 -4.6 2.55 -4.7 2.6 Q-5.05 2.6 -5.25 2.1 -5.6 2.4 -5.8 2.4 L-5.95 2.35 -5.95 2.3 M-6.75 0.35 Q-6.75 0.4 -6.85 0.6 -6.8 0.75 -6.8 0.85 -6.8 0.95 -6.9 0.95 L-7.1 0.8 Q-7.25 0.9 -7.45 0.9 -7.55 0.9 -7.55 0.85 L-7.55 0.8 Q-7.55 0.7 -7.25 0.55 L-7.4 0.15 Q-7.4 -0.2 -7.1 0.25 L-7.0 0.4 Q-6.8 0.3 -6.75 0.3 L-6.75 0.35 M-7.25 1.65 L-7.05 1.6 -7.05 1.65 Q-7.05 1.7 -7.2 1.8 L-7.1 1.95 Q-7.1 2.1 -7.25 2.1 -7.4 2.1 -7.45 2.0 -7.65 2.1 -7.8 2.1 -7.95 2.1 -7.95 2.0 -7.95 1.95 -7.7 1.8 L-7.6 1.8 -7.6 1.75 -7.7 1.35 Q-7.7 1.0 -7.4 1.45 L-7.25 1.65" fill="#000000" fill-rule="evenodd" stroke="none"/>
  </g>
</svg>
