<?xml version="1.0" encoding="UTF-8" standalone="no"?>
<svg xmlns:xlink="http://www.w3.org/1999/xlink" height="4.1px" width="3.8px" xmlns="http://www.w3.org/2000/svg">
  <g transform="matrix(1.0, 0.0, 0.0, 1.0, 1.9, 1.95)">
    <path d="M-0.35 -1.9 L0.2 -1.95 Q0.5 -1.95 0.75 -1.8 0.75 -1.45 0.75 -1.2 0.65 -1.15 0.5 -1.15 L0.3 -1.2 Q0.25 -1.4 -0.1 -1.5 -0.35 -1.6 -0.35 -1.9" fill="#475456" fill-rule="evenodd" stroke="none"/>
    <path d="M0.4 -0.35 L0.35 -0.35 -0.3 -0.35 Q-0.6 -0.35 -0.55 -0.8 -0.5 -1.2 -0.25 -1.35 L-0.25 -0.65 Q-0.15 -0.3 0.15 -0.6 L0.3 -0.45 0.4 -0.35" fill="#88908e" fill-rule="evenodd" stroke="none"/>
    <path d="M-0.85 -1.55 Q-0.65 -1.8 -0.35 -1.9 -0.35 -1.6 -0.1 -1.5 0.25 -1.4 0.3 -1.2 L0.1 -1.0 Q0.05 -0.9 0.25 -0.85 L0.15 -0.6 Q-0.15 -0.3 -0.25 -0.65 L-0.25 -1.35 Q-0.5 -1.2 -0.55 -0.8 -0.6 -0.35 -0.3 -0.35 L-0.6 -0.25 Q-0.75 -0.3 -0.8 -0.4 -0.9 -0.5 -0.85 -0.8 L-0.8 -1.2 Q-0.75 -1.45 -0.85 -1.55" fill="#5f696b" fill-rule="evenodd" stroke="none"/>
    <path d="M0.6 -0.4 L0.4 -0.35 0.3 -0.45 0.15 -0.6 0.25 -0.85 Q0.45 -0.7 0.6 -0.4" fill="#b1b3bd" fill-rule="evenodd" stroke="none"/>
    <path d="M0.3 -1.2 L0.5 -1.15 Q0.65 -1.15 0.75 -1.2 0.85 -1.0 0.9 -0.8 0.9 -0.6 0.85 -0.4 0.75 -0.4 0.7 -0.5 0.7 -0.55 0.6 -0.4 0.45 -0.7 0.25 -0.85 0.05 -0.9 0.1 -1.0 L0.3 -1.2" fill="#7c8290" fill-rule="evenodd" stroke="none"/>
    <path d="M-1.4 0.05 L-1.4 -0.15 -1.45 -0.4 Q-1.3 -0.55 -1.25 -0.8 L-1.05 -1.25 -0.85 -1.55 Q-0.75 -1.45 -0.8 -1.2 L-0.85 -0.8 Q-0.9 -0.5 -0.8 -0.4 -0.75 -0.3 -0.6 -0.25 -0.8 -0.3 -1.0 -0.2 L-1.05 -0.2 -1.4 0.05" fill="#2d3b41" fill-rule="evenodd" stroke="none"/>
    <path d="M1.55 -0.15 Q1.75 -0.1 1.75 0.0 1.75 0.1 1.55 0.15 L1.55 0.3 1.6 0.45 1.6 0.6 1.65 0.65 1.65 0.7 1.7 0.85 1.7 0.9 1.75 1.0 1.75 1.1 1.8 1.1 1.85 1.25 1.9 1.6 1.9 1.65 Q1.85 1.65 1.85 1.65 L1.8 1.7 1.7 1.7 1.65 1.75 1.6 1.75 1.55 1.7 1.55 1.65 1.45 1.5 1.45 1.45 1.15 1.45 0.75 1.4 0.25 1.4 -0.35 1.4 Q-0.4 1.4 -0.55 1.45 L-0.7 1.55 -0.7 1.75 -0.7 1.75 -0.75 1.85 -0.9 1.65 -1.0 1.35 -1.0 0.6 Q-1.05 0.15 -1.4 0.05 L-1.05 -0.2 -1.0 -0.2 Q-0.8 -0.3 -0.6 -0.25 L-0.3 -0.35 0.35 -0.35 1.1 -0.25 1.55 -0.15 M1.5 1.45 L1.45 1.45 1.4 1.35 1.4 1.3 1.35 1.2 1.35 1.15 1.35 1.0 1.35 0.9 1.3 0.85 1.3 0.7 1.3 0.6 1.3 0.5 1.35 0.4 1.35 0.25 1.25 0.2 1.2 0.2 1.05 0.15 1.0 0.15 0.85 0.15 0.6 0.05 0.55 0.05 0.4 0.05 0.3 0.05 0.25 0.05 0.25 0.0 0.15 0.0 0.15 0.05 0.05 0.05 -0.05 0.1 -0.05 0.1 -0.25 0.15 -0.35 0.15 -0.4 0.15 -0.5 0.2 -0.55 0.2 -0.65 0.25 -0.65 0.25 -0.7 0.35 -0.75 0.65 -0.75 0.9 -0.75 1.3 -0.7 1.45 -0.7 1.55 -0.8 1.6 -0.9 1.65 -0.8 1.6 -0.7 1.55 -0.7 1.45 -0.75 1.3 -0.75 0.9 -0.75 0.65 -0.7 0.35 -0.65 0.25 -0.65 0.25 -0.55 0.2 -0.5 0.2 -0.4 0.15 -0.35 0.15 -0.25 0.15 -0.05 0.1 -0.05 0.1 0.05 0.05 0.15 0.05 0.15 0.0 0.25 0.0 0.25 0.05 0.3 0.05 0.4 0.05 0.55 0.05 0.6 0.05 0.85 0.15 1.0 0.15 1.05 0.15 1.2 0.2 1.25 0.2 1.35 0.25 1.35 0.4 1.3 0.5 1.3 0.6 1.3 0.7 1.3 0.85 1.35 0.9 1.35 1.0 1.35 1.15 1.35 1.2 1.4 1.3 1.4 1.35 1.45 1.45 1.5 1.45" fill="#11100c" fill-rule="evenodd" stroke="none"/>
    <path d="M-1.4 0.8 L-1.35 0.45 Q-1.3 0.2 -1.4 0.05 -1.05 0.15 -1.0 0.6 L-1.0 1.35 -1.0 1.55 -1.05 1.7 -1.05 1.75 Q-1.0 1.2 -1.1 1.35 -1.2 1.45 -1.2 1.65 -1.3 1.55 -1.25 1.2 -1.25 0.9 -1.4 0.8" fill="#3b3f3f" fill-rule="evenodd" stroke="none"/>
    <path d="M-0.75 1.85 L-0.75 1.9 Q-0.8 2.05 -0.9 2.05 L-1.3 2.15 -1.55 2.1 -1.9 1.95 Q-1.9 1.7 -1.7 1.35 L-1.4 0.8 Q-1.25 0.9 -1.25 1.2 -1.3 1.55 -1.2 1.65 -1.2 1.45 -1.1 1.35 -1.0 1.2 -1.05 1.75 L-1.05 1.7 -1.0 1.55 -1.0 1.35 -0.9 1.65 -0.75 1.85 M-0.9 1.65 L-1.05 1.7 -0.9 1.65" fill="#26231e" fill-rule="evenodd" stroke="none"/>
    <path d="M0.75 -1.8 Q1.2 -1.6 1.35 -1.2 1.2 -1.25 1.15 -1.15 L1.2 -0.8 Q1.35 -0.3 1.1 -0.25 L0.35 -0.35 0.4 -0.35 0.6 -0.4 Q0.7 -0.55 0.7 -0.5 0.75 -0.4 0.85 -0.4 0.9 -0.6 0.9 -0.8 0.85 -1.0 0.75 -1.2 0.75 -1.45 0.75 -1.8" fill="#606667" fill-rule="evenodd" stroke="none"/>
    <path d="M1.35 -1.2 Q1.55 -0.65 1.55 -0.15 L1.1 -0.25 Q1.35 -0.3 1.2 -0.8 L1.15 -1.15 Q1.2 -1.25 1.35 -1.2" fill="#404947" fill-rule="evenodd" stroke="none"/>
    <path d="M-0.35 -1.9 L0.2 -1.95 Q0.5 -1.95 0.75 -1.8 1.2 -1.6 1.35 -1.2 1.55 -0.65 1.55 -0.15 1.75 -0.1 1.75 0.0 1.75 0.1 1.55 0.15 L1.55 0.3 1.6 0.45 1.6 0.6 1.65 0.65 1.65 0.7 1.7 0.85 1.7 0.9 1.75 1.0 1.75 1.1 1.8 1.1 1.85 1.25 1.9 1.6 1.9 1.65 Q1.85 1.65 1.85 1.65 L1.8 1.7 1.7 1.7 1.65 1.75 1.6 1.75 1.55 1.7 1.55 1.65 1.45 1.5 1.45 1.45 1.15 1.45 0.75 1.4 0.55 1.4 0.35 1.4 0.75 1.4 0.25 1.4 -0.35 1.4 Q-0.4 1.4 -0.55 1.45 L-0.7 1.55 -0.7 1.75 -0.7 1.75 -0.75 1.85 -0.75 1.9 Q-0.8 2.05 -0.9 2.05 L-1.3 2.15 -1.55 2.1 -1.9 1.95 Q-1.9 1.7 -1.7 1.35 L-1.4 0.8 -1.35 0.45 Q-1.3 0.2 -1.4 0.05 L-1.4 -0.15 -1.45 -0.4 Q-1.3 -0.55 -1.25 -0.8 L-1.05 -1.25 -0.85 -1.55 Q-0.65 -1.8 -0.35 -1.9 M-0.9 1.65 L-0.8 1.6 -0.7 1.55 -0.7 1.45 -0.75 1.3 -0.75 0.9 -0.75 0.65 -0.7 0.35 -0.65 0.25 -0.65 0.25 -0.55 0.2 -0.5 0.2 -0.4 0.15 -0.35 0.15 -0.25 0.15 -0.05 0.1 -0.05 0.1 0.05 0.05 0.15 0.05 0.15 0.0 0.25 0.0 0.25 0.05 0.3 0.05 0.4 0.05 0.55 0.05 0.6 0.05 0.85 0.15 1.0 0.15 1.05 0.15 1.2 0.2 1.25 0.2 1.35 0.25 1.35 0.4 1.3 0.5 1.3 0.6 1.3 0.7 1.3 0.85 1.35 0.9 1.35 1.0 1.35 1.15 1.35 1.2 1.4 1.3 1.4 1.35 1.45 1.45 1.5 1.45 M-1.05 1.7 L-0.9 1.65" fill="none" stroke="#000000" stroke-linecap="round" stroke-linejoin="round" stroke-opacity="0.4509804" stroke-width="1.0"/>
  </g>
</svg>
