<?xml version="1.0" encoding="UTF-8" standalone="no"?>
<svg xmlns:xlink="http://www.w3.org/1999/xlink" height="7.05px" width="1.55px" xmlns="http://www.w3.org/2000/svg">
  <g transform="matrix(1.0, 0.0, 0.0, 1.0, 0.75, 3.5)">
    <path d="M0.6 -2.65 L0.55 -2.75 0.45 -2.85 0.4 -2.8 0.05 -2.9 -0.1 -2.75 -0.15 -2.6 -0.1 -2.4 -0.15 -2.25 -0.15 -2.0 Q-0.15 -1.9 -0.2 -1.8 L-0.25 -1.7 -0.2 -1.6 -0.1 -1.5 -0.1 -1.1 -0.05 -0.95 -0.05 -0.75 -0.1 -0.65 -0.15 -0.55 -0.1 -0.4 -0.1 -0.15 Q-0.05 -0.1 -0.05 0.0 L0.0 0.15 -0.05 0.35 0.0 0.55 0.0 0.7 0.05 0.85 Q0.1 0.9 0.1 1.1 L0.05 1.2 0.05 1.4 0.0 1.5 0.05 1.6 0.05 1.65 0.0 1.6 0.0 1.55 -0.05 1.55 -0.05 1.55 Q-0.1 1.55 -0.15 1.6 L-0.15 1.6 -0.2 1.7 -0.35 0.8 -0.4 0.45 -0.4 0.4 -0.5 -0.05 -0.65 -1.0 -0.65 -1.15 -0.7 -1.4 -0.65 -1.9 -0.65 -2.25 -0.6 -2.65 -0.6 -2.9 Q-0.5 -3.2 -0.35 -3.4 L-0.2 -3.4 Q0.25 -3.35 0.45 -3.1 L0.5 -3.0 0.6 -2.7 0.6 -2.65 M0.55 1.65 L0.65 1.5 0.65 1.75 0.6 1.75 0.6 1.7 0.55 1.65 M0.55 2.05 L0.6 2.05 0.7 2.05 0.75 3.0 0.7 3.1 0.7 3.35 Q0.6 3.45 0.4 3.45 0.2 3.45 0.1 3.35 L0.0 3.2 -0.05 3.1 -0.1 2.65 -0.15 2.1 0.0 2.05 0.05 2.05 0.1 2.05 0.15 2.1 0.25 2.3 0.35 2.45 0.55 2.4 0.6 2.25 0.55 2.15 0.55 2.05" fill="#202122" fill-rule="evenodd" stroke="none"/>
    <path d="M0.05 1.65 L0.05 1.6 0.0 1.5 0.05 1.4 0.05 1.2 0.1 1.1 Q0.1 0.9 0.05 0.85 L0.0 0.7 0.0 0.55 -0.05 0.35 0.0 0.15 -0.05 0.0 Q-0.05 -0.1 -0.1 -0.15 L-0.1 -0.4 -0.15 -0.55 -0.1 -0.65 -0.05 -0.75 -0.05 -0.95 -0.1 -1.1 -0.1 -1.5 -0.2 -1.6 -0.25 -1.7 -0.2 -1.8 Q-0.15 -1.9 -0.15 -2.0 L-0.15 -2.25 -0.1 -2.4 -0.15 -2.6 -0.1 -2.75 0.05 -2.9 0.4 -2.8 0.45 -2.85 0.55 -2.75 0.6 -2.65 0.65 -2.5 0.75 -1.75 0.75 -1.35 0.7 -1.05 0.65 -0.6 0.65 -0.4 Q0.6 0.15 0.6 0.7 L0.65 1.5 0.55 1.65 0.5 1.6 0.45 1.6 0.4 1.6 0.35 1.65 0.3 1.65 0.25 1.65 Q0.25 1.65 0.25 1.55 L0.15 1.55 Q0.1 1.6 0.1 1.65 L0.05 1.65 M0.1 2.05 L0.2 2.05 0.3 2.05 0.4 2.05 0.45 2.05 0.5 2.05 0.55 2.05 0.55 2.15 0.6 2.25 0.55 2.4 0.35 2.45 0.25 2.3 0.15 2.1 0.1 2.05" fill="#323435" fill-rule="evenodd" stroke="none"/>
    <path d="M-0.2 1.7 L-0.15 1.6 -0.15 1.6 Q-0.1 1.55 -0.05 1.55 L-0.05 1.55 0.0 1.55 0.0 1.6 0.05 1.65 0.1 1.7 0.15 1.85 0.1 2.05 0.05 2.05 0.0 2.05 -0.15 2.1 -0.2 1.75 -0.2 1.7 M0.55 2.05 L0.6 2.0 0.55 1.9 0.55 1.7 0.55 1.65 0.6 1.7 0.6 1.75 0.65 1.75 0.65 1.9 0.7 2.05 0.6 2.05 0.55 2.05" fill="#646058" fill-rule="evenodd" stroke="none"/>
    <path d="M0.05 1.65 L0.1 1.65 Q0.1 1.6 0.15 1.55 L0.25 1.55 Q0.25 1.65 0.25 1.65 L0.3 1.65 0.35 1.65 0.4 1.6 0.45 1.6 0.5 1.6 0.55 1.65 0.55 1.7 0.55 1.9 0.6 2.0 0.55 2.05 0.5 2.05 0.45 2.05 0.4 2.05 0.3 2.05 0.2 2.05 0.1 2.05 0.15 1.85 0.1 1.7 0.05 1.65" fill="#726d64" fill-rule="evenodd" stroke="none"/>
    <path d="M0.6 -2.65 L0.6 -2.7 0.5 -3.0 0.45 -3.1 Q0.25 -3.35 -0.2 -3.4 L-0.35 -3.4 Q-0.5 -3.2 -0.6 -2.9 L-0.6 -2.65 -0.65 -2.25 -0.65 -1.9 -0.7 -1.4 -0.65 -1.15 -0.65 -1.0 -0.5 -0.05 -0.4 0.4 -0.4 0.45 -0.35 0.8 -0.2 1.7 -0.2 1.75 -0.15 2.1 -0.1 2.65 -0.05 3.1 0.0 3.2 0.1 3.35 Q0.2 3.45 0.4 3.45 0.6 3.45 0.7 3.35 L0.7 3.1 0.75 3.0 0.7 2.05 0.65 1.9 0.65 1.75 0.65 1.5 0.6 0.7 Q0.6 0.15 0.65 -0.4 L0.65 -0.6 0.7 -1.05 0.75 -1.35 0.75 -1.75 0.65 -2.5 0.6 -2.65 Z" fill="none" stroke="#000000" stroke-linecap="round" stroke-linejoin="round" stroke-opacity="0.4509804" stroke-width="0.1"/>
  </g>
</svg>
