<?xml version="1.0" encoding="UTF-8" standalone="no"?>
<svg xmlns:xlink="http://www.w3.org/1999/xlink" height="6.9px" width="1.5px" xmlns="http://www.w3.org/2000/svg">
  <g transform="matrix(1.0, 0.0, 0.0, 1.0, 0.75, 3.45)">
    <path d="M0.4 -3.05 L0.45 -2.95 0.6 -2.65 0.6 -2.45 0.7 -1.7 0.7 -1.65 0.7 -1.05 0.65 -0.6 0.6 -0.45 Q0.55 0.1 0.55 0.6 L0.65 1.8 0.7 2.8 0.7 3.2 Q0.6 3.35 0.4 3.4 0.2 3.35 0.1 3.25 L0.0 3.1 Q-0.1 2.8 -0.15 2.5 L-0.2 1.65 Q-0.25 1.2 -0.35 0.75 L-0.45 0.4 -0.45 0.3 -0.5 -0.1 -0.65 -1.0 -0.65 -1.15 -0.7 -1.4 -0.7 -1.85 -0.65 -2.2 -0.65 -2.6 -0.6 -2.85 Q-0.55 -3.15 -0.35 -3.4 L-0.2 -3.4 Q0.2 -3.35 0.4 -3.05 M0.25 -2.6 L0.15 -2.7 0.15 -2.75 0.05 -2.75 0.0 -2.75 -0.05 -2.8 -0.05 -2.8 -0.2 -2.85 -0.25 -2.8 -0.25 -2.75 -0.3 -2.7 -0.35 -2.65 -0.4 -2.6 -0.4 -2.6 -0.5 -2.5 -0.5 -2.3 -0.5 -2.25 -0.5 -2.2 -0.55 -2.15 -0.55 -2.15 -0.6 -2.1 -0.55 -2.05 -0.55 -2.05 -0.5 -2.05 -0.5 -2.0 -0.45 -2.0 -0.45 -1.95 -0.5 -1.9 -0.5 -1.85 -0.6 -1.75 -0.6 -1.75 -0.55 -1.65 -0.55 -1.6 -0.55 -1.5 -0.6 -1.5 -0.6 -1.4 -0.6 -1.35 -0.55 -1.3 -0.55 -1.3 -0.5 -1.2 -0.5 -1.1 -0.5 -1.05 -0.5 -0.95 -0.55 -0.95 -0.5 -0.8 -0.45 -0.75 -0.45 -0.7 -0.4 -0.65 -0.4 -0.55 -0.4 -0.5 -0.4 -0.45 -0.35 -0.35 -0.3 -0.3 -0.3 -0.25 Q-0.25 -0.2 -0.3 -0.15 L-0.3 -0.1 -0.3 -0.1 -0.35 -0.05 -0.35 0.0 -0.35 0.0 -0.4 0.05 -0.3 0.2 -0.3 0.2 -0.25 0.35 -0.25 0.4 -0.2 0.4 -0.2 0.45 -0.2 0.65 -0.2 0.7 -0.15 0.7 -0.1 0.8 -0.1 0.9 -0.1 0.95 -0.1 1.05 -0.1 1.1 -0.1 1.15 -0.1 1.2 -0.05 1.25 -0.05 1.3 -0.05 1.4 0.05 1.6 0.05 1.65 0.1 1.7 0.1 1.8 0.05 1.95 0.05 2.0 0.0 2.0 0.0 2.1 0.0 2.15 0.05 2.15 0.1 2.25 0.05 2.25 -0.05 2.3 -0.05 2.4 0.0 2.5 0.0 2.55 0.0 2.6 0.05 2.65 0.05 2.7 0.1 2.7 0.15 2.75 0.2 2.75 0.2 2.8 0.25 2.85 0.3 2.9 0.4 2.8 0.4 2.75 0.45 2.75 0.5 2.65 0.5 2.6 0.55 2.55 0.55 2.45 0.5 2.4 0.5 2.3 0.5 2.2 0.5 2.05 0.45 1.95 0.45 1.9 Q0.4 1.85 0.45 1.8 L0.45 1.7 0.4 1.55 0.4 1.5 0.35 1.5 0.35 1.35 0.35 1.3 0.4 1.25 0.4 1.3 0.45 1.3 0.45 1.2 0.45 1.1 0.4 1.1 0.4 1.0 0.4 0.85 0.35 0.8 0.35 0.7 0.35 0.6 0.35 0.55 0.3 0.4 0.3 0.25 0.25 0.1 0.25 0.05 Q0.25 -0.05 0.3 -0.1 L0.3 -0.25 0.25 -0.35 0.25 -0.4 Q0.25 -0.5 0.35 -0.55 L0.35 -0.55 0.4 -0.6 0.4 -0.6 0.45 -0.65 0.45 -0.7 Q0.45 -0.8 0.5 -0.85 L0.5 -0.9 0.55 -0.9 0.55 -0.95 0.55 -1.05 0.55 -1.1 0.55 -1.15 0.6 -1.2 0.6 -1.3 0.55 -1.3 0.55 -1.3 0.5 -1.35 0.5 -1.45 0.5 -1.55 0.5 -1.7 0.45 -1.8 0.45 -1.8 0.4 -1.85 0.4 -1.85 0.35 -1.85 0.3 -1.9 0.25 -1.9 0.25 -2.0 0.25 -2.05 0.3 -2.1 0.3 -2.1 0.35 -2.1 0.35 -2.15 0.4 -2.2 0.4 -2.25 0.4 -2.35 0.4 -2.35 Q0.4 -2.4 0.35 -2.4 L0.3 -2.45 0.25 -2.45 0.25 -2.6 0.25 -2.6" fill="#1e1d1b" fill-rule="evenodd" stroke="none"/>
    <path d="M0.25 -2.6 L0.25 -2.6 0.25 -2.45 0.3 -2.45 0.35 -2.4 Q0.4 -2.4 0.4 -2.35 L0.4 -2.35 0.4 -2.25 0.4 -2.2 0.35 -2.15 0.35 -2.1 0.3 -2.1 0.3 -2.1 0.25 -2.05 0.25 -2.0 0.25 -1.9 0.3 -1.9 0.35 -1.85 0.4 -1.85 0.4 -1.85 0.45 -1.8 0.45 -1.8 0.5 -1.7 0.5 -1.55 0.5 -1.45 0.5 -1.35 0.55 -1.3 0.55 -1.3 0.6 -1.3 0.6 -1.2 0.55 -1.15 0.55 -1.1 0.55 -1.05 0.55 -0.95 0.55 -0.9 0.5 -0.9 0.5 -0.85 Q0.45 -0.8 0.45 -0.7 L0.45 -0.65 0.4 -0.6 0.4 -0.6 0.35 -0.55 0.35 -0.55 Q0.25 -0.5 0.25 -0.4 L0.25 -0.35 0.3 -0.25 0.3 -0.1 Q0.25 -0.05 0.25 0.05 L0.25 0.1 0.3 0.25 0.3 0.4 0.35 0.55 0.35 0.6 0.35 0.7 0.35 0.8 0.4 0.85 0.4 1.0 0.4 1.1 0.45 1.1 0.45 1.2 0.45 1.3 0.4 1.3 0.4 1.25 0.35 1.3 0.35 1.35 0.35 1.5 0.4 1.5 0.4 1.55 0.45 1.7 0.45 1.8 Q0.4 1.85 0.45 1.9 L0.45 1.95 0.5 2.05 0.5 2.2 0.5 2.3 0.5 2.4 0.55 2.45 0.55 2.55 0.5 2.6 0.5 2.65 0.45 2.75 0.4 2.75 0.4 2.8 0.3 2.9 0.25 2.85 0.2 2.8 0.2 2.75 0.15 2.75 0.1 2.7 0.05 2.7 0.05 2.65 0.0 2.6 0.0 2.55 0.0 2.5 -0.05 2.4 -0.05 2.3 0.05 2.25 0.1 2.25 0.05 2.15 0.0 2.15 0.0 2.1 0.0 2.0 0.05 2.0 0.05 1.95 0.1 1.8 0.1 1.7 0.05 1.65 0.05 1.6 -0.05 1.4 -0.05 1.3 -0.05 1.25 -0.1 1.2 -0.1 1.15 -0.1 1.1 -0.1 1.05 -0.1 0.95 -0.1 0.9 -0.1 0.8 -0.15 0.7 -0.2 0.7 -0.2 0.65 -0.2 0.45 -0.2 0.4 -0.25 0.4 -0.25 0.35 -0.3 0.2 -0.3 0.2 -0.4 0.05 -0.35 0.0 -0.35 0.0 -0.35 -0.05 -0.3 -0.1 -0.3 -0.1 -0.3 -0.15 Q-0.25 -0.2 -0.3 -0.25 L-0.3 -0.3 -0.35 -0.35 -0.4 -0.45 -0.4 -0.5 -0.4 -0.55 -0.4 -0.65 -0.45 -0.7 -0.45 -0.75 -0.5 -0.8 -0.55 -0.95 -0.5 -0.95 -0.5 -1.05 -0.5 -1.1 -0.5 -1.2 -0.55 -1.3 -0.55 -1.3 -0.6 -1.35 -0.6 -1.4 -0.6 -1.5 -0.55 -1.5 -0.55 -1.6 -0.55 -1.65 -0.6 -1.75 -0.6 -1.75 -0.5 -1.85 -0.5 -1.9 -0.45 -1.95 -0.45 -2.0 -0.5 -2.0 -0.5 -2.05 -0.55 -2.05 -0.55 -2.05 -0.6 -2.1 -0.55 -2.15 -0.55 -2.15 -0.5 -2.2 -0.5 -2.25 -0.5 -2.3 -0.5 -2.5 -0.4 -2.6 -0.4 -2.6 -0.35 -2.65 -0.3 -2.7 -0.25 -2.75 -0.25 -2.8 -0.2 -2.85 -0.05 -2.8 -0.05 -2.8 0.0 -2.75 0.05 -2.75 0.15 -2.75 0.15 -2.7 0.25 -2.6" fill="#3f3e3a" fill-rule="evenodd" stroke="none"/>
    <path d="M0.4 -3.05 Q0.2 -3.35 -0.2 -3.4 L-0.35 -3.4 Q-0.55 -3.15 -0.6 -2.85 L-0.65 -2.6 -0.65 -2.2 -0.7 -1.85 -0.7 -1.4 -0.65 -1.15 -0.65 -1.0 -0.5 -0.1 -0.45 0.3 -0.45 0.4 -0.35 0.75 Q-0.25 1.2 -0.2 1.65 L-0.15 2.5 Q-0.1 2.8 0.0 3.1 L0.1 3.25 Q0.2 3.35 0.4 3.4 0.6 3.35 0.7 3.2 L0.7 2.8 0.65 1.8 0.55 0.6 Q0.55 0.1 0.6 -0.45 L0.65 -0.6 0.7 -1.05 0.7 -1.65 0.7 -1.7 0.6 -2.45 0.6 -2.65 0.45 -2.95 0.4 -3.05 Z" fill="none" stroke="#000000" stroke-linecap="round" stroke-linejoin="round" stroke-opacity="0.4509804" stroke-width="0.1"/>
  </g>
</svg>
