<?xml version="1.0" encoding="UTF-8" standalone="no"?>
<svg xmlns:xlink="http://www.w3.org/1999/xlink" height="6.95px" width="1.5px" xmlns="http://www.w3.org/2000/svg">
  <g transform="matrix(1.0, 0.0, 0.0, 1.0, 0.75, 3.45)">
    <path d="M0.5 -2.6 L0.25 -2.55 Q0.05 -2.55 -0.6 -2.7 L-0.6 -2.85 Q-0.5 -3.15 -0.35 -3.4 L-0.2 -3.4 Q0.2 -3.35 0.4 -3.05 L0.45 -2.95 0.6 -2.65 0.6 -2.6 0.5 -2.6" fill="#8a672e" fill-rule="evenodd" stroke="none"/>
    <path d="M0.5 -2.5 L0.45 -2.5 0.25 -2.45 0.2 -2.45 -0.05 -2.5 -0.25 -2.4 -0.35 -2.35 -0.4 -2.3 -0.4 -2.25 -0.35 -2.2 -0.5 -2.1 -0.5 -2.0 -0.65 -1.9 -0.55 -1.65 -0.6 -1.5 -0.65 -1.7 -0.65 -1.75 -0.65 -2.2 -0.6 -2.6 -0.6 -2.7 Q0.05 -2.55 0.25 -2.55 L0.5 -2.6 0.5 -2.5" fill="#a6835e" fill-rule="evenodd" stroke="none"/>
    <path d="M0.5 -2.5 L0.5 -2.6 0.6 -2.6 0.6 -2.45 0.7 -1.8 0.6 -1.55 Q0.55 -1.45 0.45 -1.45 0.35 -1.45 0.35 -1.3 L0.4 -1.25 0.45 -1.15 0.5 -0.9 0.45 -0.8 0.4 -0.75 0.4 -0.7 0.35 -0.6 0.3 -0.6 Q0.2 -0.5 0.2 -0.45 L0.25 -0.1 0.25 -0.05 0.3 0.1 0.3 0.15 0.25 0.15 Q0.15 0.15 0.15 0.25 L0.2 0.45 0.15 0.6 0.2 0.7 0.15 0.8 0.05 0.85 -0.15 0.6 -0.05 0.5 Q-0.05 0.45 -0.2 0.4 -0.3 0.4 -0.3 0.3 L-0.25 0.15 -0.35 0.0 -0.3 -0.15 Q-0.3 -0.2 -0.4 -0.3 L-0.5 -0.4 -0.45 -0.45 Q-0.45 -0.5 -0.55 -0.55 L-0.6 -1.0 -0.65 -1.15 -0.65 -1.75 -0.65 -1.7 -0.6 -1.5 -0.45 -1.4 -0.3 -1.2 -0.35 -1.05 Q-0.35 -1.0 -0.3 -1.0 L-0.2 -0.95 Q-0.2 -0.8 -0.15 -0.8 L-0.05 -0.85 -0.05 -0.9 -0.1 -1.0 Q0.0 -1.1 0.0 -1.15 L-0.05 -1.2 -0.1 -1.25 -0.05 -1.3 0.0 -1.3 0.05 -1.35 0.05 -1.3 0.1 -1.35 0.1 -1.3 0.15 -1.35 0.25 -1.5 0.15 -1.8 0.45 -1.95 0.5 -2.1 0.55 -2.25 0.5 -2.5" fill="#926f44" fill-rule="evenodd" stroke="none"/>
    <path d="M-0.6 -1.5 L-0.55 -1.65 -0.65 -1.9 -0.5 -2.0 -0.5 -2.1 -0.35 -2.2 -0.4 -2.25 -0.4 -2.3 -0.35 -2.35 -0.25 -2.4 -0.05 -2.5 0.2 -2.45 0.25 -2.45 0.45 -2.5 0.5 -2.5 0.55 -2.25 0.5 -2.1 0.45 -1.95 0.15 -1.8 0.25 -1.5 0.15 -1.35 0.1 -1.3 0.1 -1.35 0.05 -1.3 0.05 -1.35 0.0 -1.3 -0.05 -1.3 -0.1 -1.25 -0.05 -1.2 0.0 -1.15 Q0.0 -1.1 -0.1 -1.0 L-0.05 -0.9 -0.05 -0.85 -0.15 -0.8 Q-0.2 -0.8 -0.2 -0.95 L-0.3 -1.0 Q-0.35 -1.0 -0.35 -1.05 L-0.3 -1.2 -0.45 -1.4 -0.6 -1.5" fill="#c29a78" fill-rule="evenodd" stroke="none"/>
    <path d="M0.7 -1.8 L0.7 -1.65 0.7 -1.0 0.65 -0.6 0.6 -0.4 Q0.55 0.1 0.55 0.65 L0.65 1.75 0.65 2.4 0.7 2.9 0.7 3.25 Q0.6 3.45 0.4 3.45 0.2 3.4 0.1 3.3 L0.0 3.15 -0.15 2.55 -0.2 1.7 -0.2 1.7 -0.35 0.75 -0.4 0.45 -0.4 0.35 -0.5 -0.05 -0.55 -0.55 Q-0.45 -0.5 -0.45 -0.45 L-0.5 -0.4 -0.4 -0.3 Q-0.3 -0.2 -0.3 -0.15 L-0.35 0.0 -0.25 0.15 -0.3 0.3 Q-0.3 0.4 -0.2 0.4 -0.05 0.45 -0.05 0.5 L-0.15 0.6 0.05 0.85 0.15 0.8 0.2 0.7 0.15 0.6 0.2 0.45 0.15 0.25 Q0.15 0.15 0.25 0.15 L0.3 0.15 0.3 0.1 0.25 -0.05 0.25 -0.1 0.2 -0.45 Q0.2 -0.5 0.3 -0.6 L0.35 -0.6 0.4 -0.7 0.4 -0.75 0.45 -0.8 0.5 -0.9 0.45 -1.15 0.4 -1.25 0.35 -1.3 Q0.35 -1.45 0.45 -1.45 0.55 -1.45 0.6 -1.55 L0.7 -1.8" fill="#836430" fill-rule="evenodd" stroke="none"/>
    <path d="M-0.6 -2.7 L-0.6 -2.6 -0.65 -2.2 -0.65 -1.75 -0.65 -1.15 -0.6 -1.0 -0.55 -0.55 -0.5 -0.05 -0.4 0.35 -0.4 0.45 -0.35 0.75 -0.2 1.7 -0.2 1.7 -0.15 2.55 0.0 3.15 0.1 3.3 Q0.2 3.4 0.4 3.45 0.6 3.45 0.7 3.25 L0.7 2.9 0.65 2.4 0.65 1.75 0.55 0.65 Q0.55 0.1 0.6 -0.4 L0.65 -0.6 0.7 -1.0 0.7 -1.65 0.7 -1.8 0.6 -2.45 0.6 -2.6 0.6 -2.65 0.45 -2.95 0.4 -3.05 Q0.2 -3.35 -0.2 -3.4 L-0.35 -3.4 Q-0.5 -3.15 -0.6 -2.85 L-0.6 -2.7 Z" fill="none" stroke="#000000" stroke-linecap="round" stroke-linejoin="round" stroke-opacity="0.4509804" stroke-width="0.1"/>
  </g>
</svg>
