<?xml version="1.0" encoding="UTF-8" standalone="no"?>
<svg xmlns:xlink="http://www.w3.org/1999/xlink" height="1.8px" width="3.15px" xmlns="http://www.w3.org/2000/svg">
  <g transform="matrix(1.0, 0.0, 0.0, 1.0, 1.55, 0.85)">
    <path d="M0.05 -0.4 L0.05 -0.4 0.1 -0.4 0.25 -0.25 0.25 -0.25 0.2 -0.2 0.15 -0.15 0.1 -0.15 0.1 -0.1 0.1 -0.1 0.05 -0.1 0.05 -0.15 0.05 -0.15 0.05 -0.2 0.05 -0.25 0.0 -0.25 0.0 -0.25 -0.15 -0.15 -0.25 -0.1 -0.25 -0.1 -0.3 -0.15 -0.3 -0.15 -0.2 -0.25 -0.2 -0.3 -0.15 -0.3 -0.1 -0.3 0.0 -0.4 0.0 -0.4 0.05 -0.4 M0.3 -0.2 L0.35 -0.2 0.7 0.0 0.75 0.05 1.05 0.15 Q1.25 0.2 1.4 0.35 L1.35 0.4 1.35 0.45 1.2 0.45 1.05 0.5 1.0 0.55 0.95 0.55 0.75 0.45 0.65 0.4 0.6 0.3 0.55 0.3 0.55 0.25 0.5 0.2 0.5 0.15 0.45 0.1 0.45 0.15 0.35 0.15 0.25 0.05 0.2 0.05 0.25 0.05 0.3 0.0 0.35 -0.05 0.4 -0.1 0.35 -0.15 0.35 -0.2 0.3 -0.2 0.3 -0.2 M-1.45 0.0 L-1.45 -0.1 -1.4 -0.15 -1.3 -0.15 -1.2 -0.15 -1.2 -0.15 -1.15 -0.1 -1.15 -0.1 -1.05 -0.1 -1.0 -0.1 -0.95 -0.1 -0.8 -0.1 -0.75 -0.1 -0.55 -0.05 -0.5 -0.05 -0.4 -0.1 -0.4 -0.05 -0.35 0.0 -0.4 0.0 -0.45 0.05 -0.6 0.05 -0.75 0.05 -0.8 0.05 -0.9 0.05 -0.9 0.05 -1.0 0.05 -1.0 0.05 -1.05 0.05 -1.05 0.1 -1.1 0.15 -1.1 0.15 -1.15 0.1 -1.15 0.1 -1.2 0.05 -1.2 0.0 -1.3 0.0 -1.35 0.0 -1.45 0.0 -1.45 0.0" fill="#2e2e2e" fill-rule="evenodd" stroke="none"/>
    <path d="M0.05 -0.4 L0.05 -0.45 -0.15 -0.5 -0.1 -0.55 -0.1 -0.6 0.0 -0.55 Q0.1 -0.5 0.1 -0.5 L0.15 -0.4 0.2 -0.4 0.15 -0.35 0.1 -0.4 0.05 -0.4 0.05 -0.4 M-0.4 -0.4 L-0.4 -0.4 -0.45 -0.35 -0.4 -0.3 -0.35 -0.25 -0.3 -0.15 -0.3 -0.15 -0.3 -0.15 -0.25 -0.1 -0.25 -0.1 -0.2 -0.05 -0.2 0.0 -0.05 -0.05 0.05 -0.1 0.1 -0.1 0.1 -0.1 0.1 -0.1 0.15 0.05 -0.1 0.15 -0.15 0.15 -0.25 0.1 Q-0.25 0.05 -0.3 0.05 L-0.3 0.0 -0.35 0.0 -0.4 -0.05 -0.4 -0.1 -0.45 -0.1 -0.45 -0.15 -0.5 -0.2 -0.6 -0.3 -0.6 -0.35 -0.6 -0.45 -0.6 -0.45 Q-0.55 -0.4 -0.4 -0.4" fill="#8c5f29" fill-rule="evenodd" stroke="none"/>
    <path d="M-0.15 -0.5 L0.05 -0.45 0.05 -0.4 0.0 -0.4 0.0 -0.4 -0.1 -0.3 -0.15 -0.3 -0.2 -0.3 -0.2 -0.25 -0.3 -0.15 -0.3 -0.15 -0.35 -0.25 -0.4 -0.3 -0.45 -0.35 -0.4 -0.4 -0.4 -0.4 -0.4 -0.45 -0.35 -0.5 -0.35 -0.5 -0.3 -0.55 -0.3 -0.55 -0.25 -0.55 -0.2 -0.55 -0.15 -0.55 -0.15 -0.55 -0.15 -0.5 M1.4 0.35 L1.55 0.55 1.55 0.6 Q1.5 0.75 1.35 0.85 L0.85 0.85 0.7 0.85 0.3 0.85 Q0.1 0.75 -0.05 0.65 -0.15 0.6 -0.35 0.55 L-0.85 0.55 -1.1 0.5 -1.35 0.5 -1.35 0.5 -1.45 0.25 -1.45 0.0 -1.45 0.0 -1.35 0.0 -1.3 0.0 -1.2 0.0 -1.2 0.05 -1.15 0.1 -1.15 0.1 -1.1 0.15 -1.1 0.15 -1.05 0.1 -1.05 0.05 -1.0 0.05 -1.0 0.05 -0.9 0.05 -0.9 0.05 -0.8 0.05 -0.75 0.05 -0.6 0.05 -0.45 0.05 -0.4 0.0 -0.35 0.0 -0.3 0.0 -0.3 0.05 Q-0.25 0.05 -0.25 0.1 L-0.15 0.15 -0.1 0.15 0.15 0.05 0.2 0.05 0.25 0.05 0.35 0.15 0.45 0.15 0.45 0.1 0.5 0.15 0.5 0.2 0.55 0.25 0.55 0.3 0.6 0.3 0.65 0.4 0.75 0.45 0.95 0.55 1.0 0.55 1.05 0.5 1.2 0.45 1.35 0.45 1.35 0.4 1.4 0.35 M-1.4 -0.15 L-1.4 -0.3 -1.35 -0.4 -1.35 -0.45 -1.2 -0.65 -1.2 -0.7 -1.15 -0.7 -1.0 -0.8 -1.0 -0.8 -0.95 -0.8 -0.95 -0.8 -0.75 -0.85 -0.7 -0.85 -0.65 -0.85 -0.6 -0.85 -0.5 -0.8 -0.5 -0.8 -0.45 -0.8 -0.35 -0.75 -0.3 -0.7 -0.35 -0.65 -0.35 -0.65 -0.4 -0.65 -0.45 -0.6 -0.5 -0.6 -0.5 -0.55 -0.55 -0.5 -0.6 -0.45 -0.6 -0.45 -0.6 -0.35 -0.6 -0.3 -0.5 -0.2 -0.45 -0.15 -0.45 -0.1 -0.4 -0.1 -0.5 -0.05 -0.55 -0.05 -0.75 -0.1 -0.8 -0.1 -0.95 -0.1 -1.0 -0.1 -1.05 -0.1 -1.15 -0.1 -1.15 -0.1 -1.2 -0.15 -1.2 -0.15 -1.3 -0.15 -1.4 -0.15 M-0.25 -0.1 L-0.15 -0.15 0.0 -0.25 0.0 -0.25 0.05 -0.25 0.05 -0.2 0.05 -0.15 0.05 -0.15 0.05 -0.1 -0.05 -0.05 -0.2 0.0 -0.2 -0.05 -0.25 -0.1" fill="#1a1a1a" fill-rule="evenodd" stroke="none"/>
    <path d="M0.15 -0.35 L0.2 -0.4 0.2 -0.4 0.25 -0.35 0.3 -0.2 0.3 -0.2 0.35 -0.2 0.35 -0.15 0.4 -0.1 0.35 -0.05 0.3 0.0 0.25 0.05 0.2 0.05 0.15 0.05 0.1 -0.1 0.1 -0.1 0.1 -0.15 0.15 -0.15 0.2 -0.2 0.25 -0.25 0.25 -0.25 0.25 -0.25 0.2 -0.3 0.15 -0.35 M-0.1 -0.6 L-0.1 -0.55 -0.15 -0.5 -0.15 -0.55 -0.15 -0.55 -0.2 -0.55 -0.25 -0.55 -0.3 -0.55 -0.3 -0.55 -0.35 -0.5 -0.35 -0.5 -0.4 -0.45 -0.4 -0.4 Q-0.55 -0.4 -0.6 -0.45 L-0.55 -0.5 -0.5 -0.55 -0.3 -0.55 -0.25 -0.55 -0.25 -0.6 -0.2 -0.6 -0.2 -0.65 -0.15 -0.6 -0.1 -0.6" fill="#b88436" fill-rule="evenodd" stroke="none"/>
    <path d="M-0.3 -0.7 L-0.2 -0.65 -0.2 -0.65 -0.2 -0.6 -0.25 -0.6 -0.25 -0.55 -0.3 -0.55 -0.5 -0.55 -0.5 -0.6 -0.45 -0.6 -0.4 -0.65 -0.35 -0.65 -0.35 -0.65 -0.3 -0.7" fill="#dbad68" fill-rule="evenodd" stroke="none"/>
    <path d="M0.2 -0.4 L0.15 -0.4 0.1 -0.5 Q0.1 -0.5 0.0 -0.55 L-0.1 -0.6 -0.15 -0.6 -0.2 -0.65 -0.2 -0.65 -0.3 -0.7 -0.35 -0.75 -0.45 -0.8 M0.2 -0.4 L0.2 -0.4 0.25 -0.35 0.3 -0.2 0.35 -0.2 0.7 0.0 0.75 0.05 1.05 0.15 Q1.25 0.2 1.4 0.35 L1.55 0.55 1.55 0.6 Q1.5 0.75 1.35 0.85 L0.85 0.85 0.7 0.85 0.3 0.85 Q0.1 0.75 -0.05 0.65 -0.15 0.6 -0.35 0.55 L-0.85 0.55 -1.1 0.5 -1.35 0.5 -1.35 0.5 -1.45 0.25 -1.45 0.0 -1.45 -0.1 -1.4 -0.15 -1.4 -0.3 -1.35 -0.4" fill="none" stroke="#000000" stroke-linecap="round" stroke-linejoin="round" stroke-opacity="0.4509804" stroke-width="0.1"/>
  </g>
</svg>
