<?xml version="1.0" encoding="UTF-8" standalone="no"?>
<svg xmlns:xlink="http://www.w3.org/1999/xlink" height="1.75px" width="2.95px" xmlns="http://www.w3.org/2000/svg">
  <g transform="matrix(1.0, 0.0, 0.0, 1.0, 1.5, 0.9)">
    <path d="M0.25 -0.25 L0.25 -0.25 0.2 -0.3 0.2 -0.3 0.15 -0.3 0.15 -0.3 0.1 -0.3 0.05 -0.3 0.05 -0.3 0.0 -0.3 0.0 -0.3 -0.05 -0.35 -0.15 -0.4 -0.15 -0.4 -0.2 -0.45 -0.2 -0.45 -0.2 -0.5 -0.2 -0.55 -0.3 -0.6 -0.3 -0.6 -0.35 -0.65 -0.4 -0.7 -0.4 -0.7 -0.45 -0.7 -0.5 -0.65 -0.55 -0.6 -0.55 -0.5 -0.6 -0.45 -0.6 -0.5 -0.6 -0.65 -0.65 -0.7 -0.65 -0.75 -0.6 -0.75 -0.5 -0.8 -0.45 -0.8 -0.45 -0.8 -0.4 -0.85 -0.35 -0.85 -0.3 -0.85 -0.25 -0.75 -0.1 -0.5 0.0 -0.45 0.05 -0.45 0.05 -0.4 0.25 -0.25 0.25 -0.25" fill="#542c20" fill-rule="evenodd" stroke="none"/>
    <path d="M-0.6 -0.45 L-0.55 -0.5 -0.55 -0.6 -0.5 -0.65 -0.45 -0.7 -0.4 -0.7 -0.4 -0.7 -0.35 -0.65 -0.3 -0.6 -0.3 -0.6 -0.2 -0.55 -0.2 -0.5 -0.2 -0.45 -0.2 -0.45 -0.15 -0.4 -0.15 -0.4 -0.05 -0.35 0.0 -0.3 0.0 -0.3 0.05 -0.3 0.05 -0.3 0.1 -0.3 0.15 -0.3 0.15 -0.3 0.2 -0.3 0.2 -0.3 0.25 -0.25 0.25 -0.25 0.3 -0.25 0.3 -0.25 0.35 -0.2 0.4 -0.15 0.5 -0.1 0.45 -0.05 Q0.45 0.0 0.4 0.0 L0.35 0.0 0.25 0.05 0.2 0.1 0.15 0.1 0.05 0.15 Q0.05 0.1 -0.05 0.1 L-0.05 0.1 0.05 0.0 0.05 -0.05 Q0.0 -0.05 0.0 -0.05 L-0.05 -0.1 -0.15 -0.15 -0.25 -0.15 -0.3 -0.1 -0.35 -0.1 -0.45 -0.1 -0.5 -0.05 -0.55 -0.1 -0.6 -0.1 -0.5 -0.2 -0.4 -0.25 -0.35 -0.25 -0.3 -0.3 -0.25 -0.35 -0.2 -0.4 -0.2 -0.4 -0.25 -0.4 -0.25 -0.45 Q-0.25 -0.45 -0.3 -0.4 -0.35 -0.4 -0.35 -0.4 L-0.4 -0.4 -0.4 -0.4 -0.5 -0.35 Q-0.55 -0.25 -0.6 -0.25 -0.7 -0.25 -0.7 -0.35 -0.75 -0.4 -0.8 -0.35 L-0.8 -0.4 -0.85 -0.45 -0.8 -0.5 -0.75 -0.5 -0.65 -0.45 -0.65 -0.45 -0.6 -0.4 -0.55 -0.35 -0.55 -0.4 -0.6 -0.4 -0.6 -0.45 M1.25 0.2 L1.3 0.3 1.25 0.35 1.2 0.4 1.2 0.45 1.1 0.45 1.0 0.45 0.95 0.45 0.9 0.4 0.8 0.4 0.65 0.45 0.6 0.5 0.5 0.4 0.55 0.35 0.6 0.25 0.6 0.2 0.5 0.2 0.45 0.2 0.4 0.15 0.45 0.1 0.5 0.15 0.55 0.1 0.6 0.1 0.6 0.0 0.65 -0.05 0.65 0.0 0.9 0.1 0.95 0.15 1.0 0.15 1.1 0.2 1.15 0.2 1.25 0.2 M0.95 0.35 L1.0 0.35 0.95 0.35 0.9 0.35 0.9 0.4 0.95 0.35" fill="#643527" fill-rule="evenodd" stroke="none"/>
    <path d="M-0.4 -0.85 L-0.45 -0.8 -0.45 -0.8 -0.5 -0.8 -0.6 -0.75 -0.65 -0.75 -0.65 -0.7 -0.6 -0.65 -0.6 -0.5 -0.6 -0.45 -0.6 -0.4 -0.55 -0.4 -0.55 -0.35 -0.6 -0.4 -0.65 -0.45 -0.65 -0.45 -0.75 -0.5 -0.8 -0.5 -0.85 -0.45 -0.8 -0.4 -0.8 -0.35 Q-0.75 -0.4 -0.7 -0.35 -0.7 -0.25 -0.6 -0.25 -0.55 -0.25 -0.5 -0.35 L-0.4 -0.4 -0.4 -0.4 -0.35 -0.4 Q-0.35 -0.4 -0.3 -0.4 -0.25 -0.45 -0.25 -0.45 L-0.25 -0.4 -0.2 -0.4 -0.2 -0.4 -0.25 -0.35 -0.3 -0.3 -0.35 -0.25 -0.4 -0.25 -0.5 -0.2 -0.6 -0.1 -0.55 -0.1 -0.5 -0.05 -0.45 -0.1 -0.35 -0.1 -0.3 -0.1 -0.25 -0.15 -0.15 -0.15 -0.05 -0.1 0.0 -0.05 Q0.0 -0.05 0.05 -0.05 L0.05 0.0 -0.05 0.1 -0.05 0.1 Q0.05 0.1 0.05 0.15 L0.15 0.1 0.2 0.1 0.25 0.05 0.35 0.0 0.4 0.0 Q0.45 0.0 0.45 -0.05 L0.5 -0.1 0.5 -0.1 0.65 -0.05 0.6 0.0 0.6 0.1 0.55 0.1 0.5 0.15 0.45 0.1 0.4 0.15 0.45 0.2 0.5 0.2 0.6 0.2 0.6 0.25 0.55 0.35 0.5 0.4 0.6 0.5 0.65 0.45 0.8 0.4 0.9 0.4 0.95 0.45 1.0 0.45 1.1 0.45 1.2 0.45 1.2 0.4 1.25 0.35 1.3 0.3 1.25 0.2 1.25 0.25 1.35 0.35 1.4 0.45 1.4 0.5 1.4 0.55 1.3 0.6 1.25 0.6 1.2 0.65 1.05 0.65 0.9 0.7 0.7 0.65 0.7 0.6 0.35 0.6 0.3 0.6 0.25 0.65 Q0.15 0.65 0.05 0.55 L-0.35 0.35 -0.5 0.35 -1.0 0.35 -1.15 0.35 -1.2 0.35 -1.4 0.25 -1.45 0.1 -1.45 0.0 -1.45 -0.1 -1.45 -0.2 -1.4 -0.3 -1.4 -0.45 -1.4 -0.55 -1.35 -0.6 -1.3 -0.6 -1.3 -0.6 -1.25 -0.55 -1.25 -0.65 -1.2 -0.65 -1.2 -0.7 -1.15 -0.7 -1.1 -0.75 -0.9 -0.85 Q-0.9 -0.85 -0.85 -0.9 L-0.8 -0.9 -0.65 -0.9 -0.6 -0.9 -0.55 -0.9 -0.45 -0.85 -0.4 -0.85" fill="#562517" fill-rule="evenodd" stroke="none"/>
    <path d="M1.4 0.5 L1.45 0.6 1.4 0.75 1.2 0.8 1.0 0.85 0.75 0.85 0.7 0.85 0.55 0.85 0.45 0.85 0.35 0.85 0.25 0.8 0.15 0.8 0.05 0.75 0.0 0.75 -0.05 0.7 -0.05 0.7 -0.15 0.65 -0.25 0.55 -0.4 0.5 Q-0.45 0.5 -0.5 0.5 L-0.55 0.5 -0.6 0.55 -0.65 0.6 -0.65 0.6 -0.7 0.6 -0.75 0.6 -0.9 0.6 -0.95 0.6 -1.15 0.55 -1.15 0.55 -1.2 0.55 -1.3 0.5 -1.35 0.45 -1.4 0.4 -1.4 0.35 -1.4 0.25 -1.2 0.35 -1.15 0.35 -1.0 0.35 -0.5 0.35 -0.35 0.35 0.05 0.55 Q0.15 0.65 0.25 0.65 L0.3 0.6 0.35 0.6 0.7 0.6 0.7 0.65 0.9 0.7 1.05 0.65 1.2 0.65 1.25 0.6 1.3 0.6 1.4 0.55 1.4 0.5" fill="#131517" fill-rule="evenodd" stroke="none"/>
    <path d="M0.95 0.35 L1.0 0.35 0.95 0.35 0.9 0.4 0.9 0.35 0.95 0.35" fill="#2d2b3b" fill-rule="evenodd" stroke="none"/>
    <path d="M0.25 -0.25 L0.25 -0.25 0.05 -0.4 0.05 -0.45 0.0 -0.45 -0.1 -0.5 -0.25 -0.75 -0.3 -0.85 M0.5 -0.1 L0.4 -0.15 0.35 -0.2 0.3 -0.25 0.3 -0.25 0.25 -0.25 M0.65 -0.05 L0.5 -0.1 0.5 -0.1 M0.65 -0.05 L0.65 0.0 0.9 0.1 0.95 0.15 1.0 0.15 1.1 0.2 1.15 0.2 1.25 0.2 1.25 0.25 1.35 0.35 1.4 0.45 1.4 0.5 1.45 0.6 1.4 0.75 1.2 0.8 1.0 0.85 0.75 0.85 0.7 0.85 0.55 0.85 0.45 0.85 0.35 0.85 0.25 0.8 0.15 0.8 0.05 0.75 0.0 0.75 -0.05 0.7 -0.05 0.7 -0.15 0.65 -0.25 0.55 -0.4 0.5 Q-0.45 0.5 -0.5 0.5 L-0.55 0.5 -0.6 0.55 -0.65 0.6 -0.65 0.6 -0.7 0.6 -0.75 0.6 -0.9 0.6 -0.95 0.6 -1.15 0.55 -1.15 0.55 -1.2 0.55 -1.3 0.5 -1.35 0.45 -1.4 0.4 -1.4 0.35 -1.4 0.25 -1.45 0.1 -1.45 0.0 -1.45 -0.1 -1.45 -0.2 -1.4 -0.3 -1.4 -0.45 -1.4 -0.55 -1.35 -0.6" fill="none" stroke="#000000" stroke-linecap="round" stroke-linejoin="round" stroke-opacity="0.4509804" stroke-width="1.0"/>
  </g>
</svg>
