<?xml version="1.0" encoding="UTF-8" standalone="no"?>
<svg xmlns:xlink="http://www.w3.org/1999/xlink" height="1.85px" width="3.05px" xmlns="http://www.w3.org/2000/svg">
  <g transform="matrix(1.0, 0.0, 0.0, 1.0, 1.5, 0.9)">
    <path d="M0.3 -0.4 L0.25 -0.3 0.25 -0.2 0.25 -0.25 0.15 -0.25 0.1 -0.3 0.05 -0.35 0.05 -0.35 0.15 -0.55 0.3 -0.4 M0.8 0.0 L0.95 0.1 0.85 0.2 0.85 0.4 0.8 0.35 0.7 0.2 0.6 0.1 0.6 0.05 0.8 0.0 M-1.45 0.1 L-1.45 -0.05 -1.4 -0.2 -1.4 -0.45 -1.35 -0.35 Q-1.25 -0.25 -1.05 -0.2 L-1.05 -0.15 -0.9 -0.15 -0.6 -0.1 -0.5 -0.1 -0.5 0.0 -0.55 0.05 -0.7 0.05 -0.7 0.05 -0.8 -0.05 Q-0.85 -0.05 -0.9 0.0 L-0.9 0.0 -0.9 0.1 -1.05 0.05 -1.1 0.05 -1.1 0.05 -1.15 0.05 -1.15 -0.05 -1.3 -0.1 Q-1.35 -0.1 -1.35 0.05 L-1.4 0.1 -1.45 0.1 M-1.3 -0.55 L-1.25 -0.6 -1.25 -0.6 -1.2 -0.65 -1.15 -0.6 -1.15 -0.6 -1.1 -0.55 -1.05 -0.55 -1.0 -0.55 -1.0 -0.45 Q-1.0 -0.4 -0.9 -0.4 L-0.9 -0.4 Q-0.8 -0.4 -0.75 -0.5 L-0.7 -0.55 -0.6 -0.5 -0.55 -0.4 -0.5 -0.4 Q-0.45 -0.35 -0.35 -0.35 -0.3 -0.35 -0.25 -0.4 L-0.15 -0.45 -0.2 -0.35 Q-0.35 -0.2 -0.45 -0.2 L-0.6 -0.2 -0.65 -0.2 -0.9 -0.35 -0.9 -0.35 -1.15 -0.45 -1.25 -0.5 -1.3 -0.55 M-0.3 0.0 L-0.15 -0.05 -0.1 -0.05 0.0 -0.05 0.15 -0.05 Q0.3 -0.05 0.45 0.0 L0.4 0.05 0.3 0.0 Q0.25 0.05 0.25 0.1 L0.25 0.15 0.15 0.2 0.0 0.1 0.0 0.15 Q-0.05 0.05 -0.15 0.05 L-0.15 0.05 Q-0.25 0.1 -0.25 0.25 L-0.2 0.25 -0.3 0.25 -0.4 0.2 -0.3 0.05 -0.3 0.05 -0.3 0.0 -0.3 0.0 M0.45 0.05 L0.55 0.15 0.6 0.2 0.75 0.55 0.8 0.7 0.7 0.7 0.55 0.7 0.5 0.65 0.45 0.4 0.4 0.25 0.45 0.2 0.45 0.1 0.45 0.05" fill="#1c1a18" fill-rule="evenodd" stroke="none"/>
    <path d="M0.3 -0.4 L0.4 -0.3 0.5 -0.2 0.5 -0.2 0.4 -0.15 Q0.4 -0.15 0.25 -0.2 L0.25 -0.3 0.3 -0.4 M0.95 0.1 L1.05 0.15 Q1.15 0.2 1.2 0.2 L1.4 0.4 1.45 0.5 1.45 0.55 1.4 0.6 1.35 0.65 1.25 0.65 1.0 0.7 1.0 0.65 0.85 0.4 0.85 0.2 0.95 0.1 M-1.4 0.2 L-1.4 0.2 -1.45 0.1 -1.4 0.1 -1.35 0.05 Q-1.35 -0.1 -1.3 -0.1 L-1.15 -0.05 -1.15 0.05 -1.15 0.05 -1.25 0.0 -1.35 0.05 -1.35 0.1 Q-1.35 0.15 -1.25 0.15 -1.15 0.15 -1.15 0.1 L-1.15 0.05 -1.1 0.05 -1.1 0.05 -1.05 0.05 -0.9 0.1 -0.9 0.0 -0.9 0.0 Q-0.85 -0.05 -0.8 -0.05 L-0.7 0.05 -0.7 0.05 -0.55 0.05 -0.65 0.2 -0.7 0.4 -0.85 0.4 -0.9 0.4 -1.1 0.45 -1.35 0.35 -1.4 0.25 -1.4 0.2 M-1.2 -0.65 L-1.05 -0.8 -1.05 -0.8 -0.75 -0.9 -0.5 -0.9 -0.5 -0.9 -0.3 -0.8 -0.25 -0.75 -0.25 -0.75 -0.2 -0.7 -0.1 -0.65 -0.05 -0.65 0.0 -0.65 -0.1 -0.5 -0.1 -0.5 -0.15 -0.45 -0.25 -0.4 -0.2 -0.55 -0.2 -0.55 Q-0.25 -0.75 -0.35 -0.75 L-0.45 -0.75 Q-0.55 -0.7 -0.55 -0.55 L-0.5 -0.4 -0.55 -0.4 -0.6 -0.5 -0.7 -0.55 -0.75 -0.5 Q-0.8 -0.4 -0.9 -0.4 L-0.9 -0.4 Q-1.0 -0.4 -1.0 -0.45 L-1.0 -0.55 -0.9 -0.5 -0.85 -0.5 -0.8 -0.5 -0.75 -0.5 -0.75 -0.5 -0.8 -0.6 -0.8 -0.65 -0.9 -0.65 Q-0.95 -0.7 -1.0 -0.65 L-1.0 -0.55 -1.05 -0.55 -1.1 -0.55 -1.15 -0.6 -1.15 -0.6 -1.2 -0.65 M0.45 0.0 L0.45 0.05 0.45 0.1 0.45 0.2 0.4 0.25 0.25 0.15 0.25 0.2 Q0.3 0.25 0.4 0.25 L0.45 0.4 0.5 0.65 0.55 0.7 0.7 0.7 0.55 0.7 0.5 0.7 0.4 0.7 0.2 0.6 -0.15 0.45 -0.3 0.45 -0.35 0.45 -0.5 0.4 -0.4 0.2 -0.3 0.25 -0.2 0.25 -0.2 0.25 -0.15 0.3 Q0.0 0.3 0.0 0.15 L0.0 0.15 0.0 0.1 0.15 0.2 0.25 0.15 0.25 0.1 Q0.25 0.05 0.3 0.0 L0.4 0.05 0.45 0.0 M-0.25 -0.4 Q-0.3 -0.35 -0.35 -0.35 -0.45 -0.35 -0.5 -0.4 L-0.3 -0.4 -0.25 -0.4 M-0.2 0.25 L-0.25 0.25 Q-0.25 0.1 -0.15 0.05 L-0.15 0.05 Q-0.05 0.05 0.0 0.15 L-0.15 0.2 -0.15 0.2 -0.2 0.25 M-0.3 0.0 L-0.3 0.0 -0.3 0.0 M-0.7 0.05 L-0.8 0.1 -0.9 0.15 -0.9 0.1 -0.9 0.15 -0.85 0.2 -0.75 0.2 Q-0.7 0.2 -0.7 0.1 L-0.7 0.05" fill="#2c2927" fill-rule="evenodd" stroke="none"/>
    <path d="M0.25 -0.2 Q0.4 -0.15 0.4 -0.15 L0.5 -0.2 Q0.7 -0.25 0.8 0.0 L0.6 0.05 0.6 0.1 0.7 0.2 0.8 0.35 0.85 0.4 1.0 0.65 1.0 0.7 1.25 0.65 1.35 0.65 1.4 0.6 1.45 0.55 1.45 0.6 1.35 0.7 1.25 0.75 1.05 0.75 0.7 0.7 0.8 0.7 0.75 0.55 0.6 0.2 0.55 0.15 0.45 0.05 0.45 0.0 Q0.3 -0.05 0.15 -0.05 L0.0 -0.05 -0.1 -0.05 -0.15 -0.05 -0.3 0.0 -0.25 -0.05 -0.2 -0.05 -0.15 -0.1 -0.15 -0.15 -0.1 -0.15 -0.05 -0.1 0.1 -0.2 0.05 -0.2 -0.05 -0.2 -0.05 -0.2 -0.1 -0.25 -0.05 -0.35 0.0 -0.4 0.05 -0.45 0.05 -0.5 0.0 -0.5 -0.05 -0.45 -0.1 -0.4 -0.35 -0.2 -0.45 -0.05 -0.5 0.1 -0.55 0.2 -0.55 0.25 -0.5 0.25 -0.3 0.05 -0.4 0.2 -0.5 0.4 -0.35 0.45 -0.3 0.45 -0.15 0.45 0.2 0.6 0.4 0.7 0.3 0.7 0.2 0.7 0.1 0.65 Q0.0 0.65 -0.15 0.6 L-0.2 0.6 -0.75 0.45 -0.75 0.45 -0.9 0.45 -0.95 0.45 -1.1 0.5 -1.15 0.5 -1.45 0.4 -1.45 0.35 -1.4 0.2 -1.4 0.25 -1.35 0.35 -1.1 0.45 -0.9 0.4 -0.85 0.4 -0.7 0.4 -0.65 0.2 -0.55 0.05 -0.5 0.0 -0.5 -0.1 -0.6 -0.1 -0.9 -0.15 -1.05 -0.15 -1.05 -0.2 Q-1.25 -0.25 -1.35 -0.35 L-1.4 -0.45 -1.4 -0.45 -1.35 -0.45 -1.35 -0.5 -1.3 -0.55 -1.25 -0.5 -1.15 -0.45 -0.9 -0.35 -0.9 -0.35 -0.65 -0.2 -0.6 -0.2 -0.45 -0.2 Q-0.35 -0.2 -0.2 -0.35 L-0.15 -0.45 -0.1 -0.5 -0.1 -0.5 0.0 -0.65 0.0 -0.65 Q0.05 -0.8 0.15 -0.6 L0.15 -0.55 0.05 -0.35 0.05 -0.35 0.1 -0.3 0.15 -0.25 0.25 -0.25 0.25 -0.2 M-1.05 -0.4 L-1.25 -0.5 -1.3 -0.45 Q-1.3 -0.35 -1.15 -0.25 L-1.15 -0.25 -1.05 -0.2 Q-1.0 -0.2 -0.9 -0.15 L-0.9 -0.15 -0.8 -0.2 -0.75 -0.2 -0.8 -0.2 -0.85 -0.3 -0.9 -0.3 -1.0 -0.4 -1.05 -0.4" fill="#87582a" fill-rule="evenodd" stroke="none"/>
    <path d="M-0.3 0.05 L-0.5 0.25 -0.55 0.25 -0.55 0.2 -0.5 0.1 -0.45 -0.05 -0.35 -0.2 -0.1 -0.4 -0.05 -0.45 0.0 -0.5 0.05 -0.5 0.05 -0.45 0.0 -0.4 -0.05 -0.35 -0.1 -0.25 -0.05 -0.2 -0.05 -0.2 0.05 -0.2 0.1 -0.2 -0.05 -0.1 -0.1 -0.15 -0.15 -0.15 -0.15 -0.1 -0.2 -0.05 -0.25 -0.05 -0.3 0.0 -0.3 0.05 -0.3 0.05 M-1.05 -0.4 L-1.0 -0.4 -0.9 -0.3 -0.85 -0.3 -0.8 -0.2 -0.75 -0.2 -0.8 -0.2 -0.9 -0.15 -0.9 -0.15 Q-1.0 -0.2 -1.05 -0.2 L-1.15 -0.25 -1.15 -0.25 Q-1.3 -0.35 -1.3 -0.45 L-1.25 -0.5 -1.05 -0.4 M-0.3 0.0 L-0.3 0.0" fill="#ad7b2f" fill-rule="evenodd" stroke="none"/>
    <path d="M1.45 0.6 L1.45 0.65 Q1.45 0.9 0.7 0.85 0.35 0.85 -0.05 0.7 -0.1 0.65 -0.2 0.65 L-0.6 0.55 -0.9 0.55 -0.95 0.55 -1.25 0.55 Q-1.4 0.55 -1.45 0.4 L-1.15 0.5 -1.1 0.5 -0.95 0.45 -0.9 0.45 -0.75 0.45 -0.75 0.45 -0.2 0.6 -0.15 0.6 Q0.0 0.65 0.1 0.65 L0.2 0.7 0.3 0.7 0.4 0.7 0.5 0.7 0.55 0.7 0.7 0.7 1.05 0.75 1.25 0.75 1.35 0.7 1.45 0.6" fill="#5d3c1d" fill-rule="evenodd" stroke="none"/>
    <path d="M0.25 0.15 L0.4 0.25 Q0.3 0.25 0.25 0.2 L0.25 0.15 M0.0 0.15 L0.0 0.15 Q0.0 0.3 -0.15 0.3 L-0.2 0.25 -0.2 0.25 -0.15 0.2 -0.15 0.2 0.0 0.15 M-1.0 -0.55 L-1.0 -0.65 Q-0.95 -0.7 -0.9 -0.65 L-0.8 -0.65 -0.8 -0.6 -0.75 -0.5 -0.75 -0.5 -0.8 -0.5 -0.85 -0.5 -0.9 -0.5 -1.0 -0.55 M-0.5 -0.4 L-0.55 -0.55 Q-0.55 -0.7 -0.45 -0.75 L-0.35 -0.75 Q-0.25 -0.75 -0.2 -0.55 L-0.2 -0.55 -0.25 -0.4 -0.3 -0.4 -0.5 -0.4 M-1.35 0.05 L-1.25 0.0 -1.15 0.05 -1.15 0.05 -1.15 0.1 Q-1.15 0.15 -1.25 0.15 -1.35 0.15 -1.35 0.1 L-1.35 0.05 M-0.7 0.05 L-0.7 0.1 Q-0.7 0.2 -0.75 0.2 L-0.85 0.2 -0.9 0.15 -0.9 0.1 -0.9 0.15 -0.8 0.1 -0.7 0.05" fill="#433f3c" fill-rule="evenodd" stroke="none"/>
    <path d="M0.5 -0.2 L0.5 -0.2 0.4 -0.3 0.3 -0.4 0.15 -0.55 0.15 -0.6 Q0.05 -0.8 0.0 -0.65 L0.0 -0.65 -0.05 -0.65 -0.1 -0.65 -0.2 -0.7 -0.25 -0.75 -0.25 -0.75 -0.3 -0.8 M0.5 -0.2 Q0.7 -0.25 0.8 0.0 L0.95 0.1 1.05 0.15 Q1.15 0.2 1.2 0.2 L1.4 0.4 1.45 0.5 1.45 0.55 1.45 0.6 1.45 0.65 Q1.45 0.9 0.7 0.85 0.35 0.85 -0.05 0.7 -0.1 0.65 -0.2 0.65 L-0.6 0.55 -0.9 0.55 -0.95 0.55 -1.25 0.55 Q-1.4 0.55 -1.45 0.4 L-1.45 0.35 -1.4 0.2 -1.4 0.2 -1.45 0.1 -1.45 -0.05 -1.4 -0.2 -1.4 -0.45 -1.4 -0.45 -1.35 -0.45 -1.35 -0.5" fill="none" stroke="#000000" stroke-linecap="round" stroke-linejoin="round" stroke-opacity="0.4509804" stroke-width="0.1"/>
  </g>
</svg>
