<?xml version="1.0" encoding="UTF-8" standalone="no"?>
<svg xmlns:xlink="http://www.w3.org/1999/xlink" height="2.1px" width="3.2px" xmlns="http://www.w3.org/2000/svg">
  <g transform="matrix(1.0, 0.0, 0.0, 1.0, 1.6, 1.2)">
    <path d="M0.2 -0.15 L0.2 -0.15 0.15 -0.3 0.05 -0.35 -0.05 -0.45 -0.1 -0.45 -0.1 -0.5 0.0 -0.5 0.1 -0.45 0.3 -0.25 0.45 -0.1 0.45 -0.1 0.45 0.0 0.3 0.0 0.2 -0.05 0.2 -0.15 M1.2 0.8 L1.3 0.45 Q1.3 0.35 1.2 0.35 L1.15 0.4 1.1 0.4 1.15 0.3 1.05 0.15 1.15 0.2 Q1.55 0.4 1.55 0.5 1.55 0.75 1.2 0.8 M0.45 0.85 Q0.5 0.65 0.6 0.65 L0.65 0.7 Q0.7 0.8 0.8 0.8 L1.1 0.8 1.1 0.85 0.85 0.85 0.45 0.85 0.15 0.75 Q-0.3 0.5 -0.4 0.5 L-0.55 0.55 -1.0 0.45 -1.25 0.5 Q-1.4 0.5 -1.45 0.4 L-1.5 0.15 -1.45 0.1 -1.4 0.1 -1.05 -0.05 -0.95 -0.1 -0.95 -0.1 -0.9 -0.1 -0.85 -0.15 -0.65 -0.25 -0.6 -0.3 -0.4 -0.05 Q-0.25 0.0 -0.25 0.1 L-0.35 0.1 -0.35 0.15 -0.25 0.2 Q-0.15 0.2 -0.1 0.25 L-0.1 0.3 -0.2 0.3 Q-0.2 0.25 -0.3 0.25 L-0.05 0.35 Q0.05 0.35 0.05 0.4 L0.1 0.5 0.2 0.5 0.2 0.45 0.25 0.45 0.3 0.55 0.4 0.55 0.45 0.6 0.45 0.85 M-0.85 -0.15 L-0.8 0.0 -0.75 0.05 -0.65 0.0 -0.55 -0.05 Q-0.5 -0.05 -0.5 0.0 L-0.5 0.1 -0.6 0.15 -0.65 0.1 -0.7 0.1 -0.7 0.15 -0.55 0.15 Q-0.45 0.15 -0.45 0.0 -0.45 -0.1 -0.6 -0.1 L-0.65 -0.1 -0.75 -0.05 -0.8 -0.1 -0.85 -0.15 -0.85 -0.15" fill="#100f0e" fill-rule="evenodd" stroke="none"/>
    <path d="M0.05 -0.35 L0.15 -0.3 0.2 -0.15 0.2 -0.15 0.15 -0.1 0.05 -0.1 0.05 -0.15 Q0.15 -0.1 0.15 -0.2 L0.15 -0.2 0.1 -0.3 0.05 -0.3 0.0 -0.25 -0.1 -0.3 -0.1 -0.35 -0.05 -0.3 -0.05 -0.3 0.05 -0.35 M-0.85 -0.15 L-0.85 -0.15 -0.8 -0.1 -0.75 -0.05 -0.65 -0.1 -0.6 -0.1 Q-0.45 -0.1 -0.45 0.0 -0.45 0.15 -0.55 0.15 L-0.7 0.15 -0.7 0.1 -0.65 0.1 -0.6 0.15 -0.5 0.1 -0.5 0.0 Q-0.5 -0.05 -0.55 -0.05 L-0.65 0.0 -0.75 0.05 -0.8 0.0 -0.85 -0.15 -0.85 -0.15 M-0.3 -0.05 Q-0.35 -0.05 -0.4 -0.2 L-0.35 -0.25 -0.3 -0.2 -0.3 -0.15 -0.15 -0.2 Q-0.05 -0.2 -0.05 0.0 -0.05 0.05 -0.1 0.1 L-0.2 0.1 -0.25 0.05 -0.2 0.05 -0.2 0.05 -0.1 0.05 -0.1 0.0 Q-0.1 -0.15 -0.15 -0.15 -0.25 -0.15 -0.25 -0.1 L-0.3 -0.05" fill="#7e7a79" fill-rule="evenodd" stroke="none"/>
    <path d="M0.2 -0.15 L0.2 -0.05 0.3 0.0 0.45 0.0 0.45 -0.1 0.55 -0.05 Q0.6 0.0 0.65 0.0 0.8 0.1 1.05 0.15 L1.15 0.3 1.1 0.4 1.15 0.4 1.2 0.35 Q1.3 0.35 1.3 0.45 L1.2 0.8 1.1 0.85 1.1 0.8 0.8 0.8 Q0.7 0.8 0.65 0.7 L0.6 0.65 Q0.5 0.65 0.45 0.85 L0.45 0.6 0.4 0.55 0.3 0.55 0.25 0.45 0.2 0.45 0.2 0.5 0.1 0.5 0.05 0.4 Q0.05 0.35 -0.05 0.35 L-0.3 0.25 Q-0.2 0.25 -0.2 0.3 L-0.1 0.3 -0.1 0.25 Q-0.15 0.2 -0.25 0.2 L-0.35 0.15 -0.35 0.1 -0.25 0.1 Q-0.25 0.0 -0.4 -0.05 L-0.6 -0.3 -0.2 -0.35 Q-0.15 -0.35 -0.1 -0.45 L-0.05 -0.45 0.05 -0.35 -0.05 -0.3 -0.05 -0.3 -0.1 -0.35 -0.1 -0.3 0.0 -0.25 0.05 -0.3 0.1 -0.3 0.15 -0.2 0.15 -0.2 Q0.15 -0.1 0.05 -0.15 L0.05 -0.1 0.15 -0.1 0.2 -0.15 M-0.3 -0.05 L-0.25 -0.1 Q-0.25 -0.15 -0.15 -0.15 -0.1 -0.15 -0.1 0.0 L-0.1 0.05 -0.2 0.05 -0.2 0.05 -0.25 0.05 -0.2 0.1 -0.1 0.1 Q-0.05 0.05 -0.05 0.0 -0.05 -0.2 -0.15 -0.2 L-0.3 -0.15 -0.3 -0.2 -0.35 -0.25 -0.4 -0.2 Q-0.35 -0.05 -0.3 -0.05" fill="#1c1a19" fill-rule="evenodd" stroke="none"/>
    <path d="M-1.4 -0.4 L-1.35 -0.5 -1.2 -0.65 -1.05 -0.75 -0.9 -0.95 -0.75 -1.05 -0.55 -1.15 -0.5 -1.1 -0.55 -1.0 -0.65 -0.9 Q-0.8 -0.9 -0.8 -0.8 -1.0 -0.8 -1.0 -0.7 L-0.95 -0.65 Q-0.9 -0.65 -0.85 -0.65 L-0.8 -0.7 -0.65 -0.75 -0.6 -0.75 -0.5 -0.75 -0.4 -0.85 -0.4 -0.85 -0.2 -0.8 Q-0.1 -0.75 -0.1 -0.65 L-0.1 -0.65 -0.15 -0.65 -0.1 -0.55 -0.1 -0.5 -0.1 -0.5 -0.15 -0.55 -0.15 -0.55 -0.3 -0.5 -0.35 -0.5 -0.4 -0.5 -0.4 -0.5 -0.3 -0.55 -0.25 -0.6 -0.3 -0.7 -0.4 -0.65 Q-0.45 -0.65 -0.45 -0.75 L-0.5 -0.7 -0.5 -0.65 -0.55 -0.65 -0.6 -0.7 -0.6 -0.7 -0.65 -0.6 -0.6 -0.55 -0.7 -0.5 -0.85 -0.4 -1.0 -0.3 Q-1.1 -0.2 -1.1 -0.2 L-1.15 -0.2 -1.15 -0.3 Q-1.15 -0.4 -1.4 -0.4" fill="#872a2a" fill-rule="evenodd" stroke="none"/>
    <path d="M-0.1 -0.5 L-0.1 -0.45 Q-0.15 -0.35 -0.2 -0.35 L-0.6 -0.3 -0.65 -0.25 -0.85 -0.15 -0.9 -0.1 -0.95 -0.1 -0.95 -0.1 -1.05 -0.05 -1.4 0.1 -1.45 0.1 -1.5 0.05 -1.55 -0.05 -1.5 -0.2 -1.4 -0.4 -1.4 -0.4 Q-1.15 -0.4 -1.15 -0.3 L-1.15 -0.2 -1.1 -0.2 Q-1.1 -0.2 -1.0 -0.3 L-0.85 -0.4 -0.7 -0.5 -0.6 -0.55 -0.65 -0.6 -0.6 -0.7 -0.6 -0.7 -0.55 -0.65 -0.5 -0.65 -0.5 -0.7 -0.45 -0.75 Q-0.45 -0.65 -0.4 -0.65 L-0.3 -0.7 -0.25 -0.6 -0.3 -0.55 -0.4 -0.5 -0.4 -0.5 -0.35 -0.5 -0.3 -0.5 -0.15 -0.55 -0.15 -0.55 -0.1 -0.5 -0.1 -0.5 M-0.5 -1.1 L-0.45 -1.0 -0.4 -0.85 -0.5 -0.75 -0.6 -0.75 -0.65 -0.75 -0.8 -0.7 -0.85 -0.65 Q-0.9 -0.65 -0.95 -0.65 L-1.0 -0.7 Q-1.0 -0.8 -0.8 -0.8 -0.8 -0.9 -0.65 -0.9 L-0.55 -1.0 -0.5 -1.1 M-0.85 -0.15 L-0.85 -0.15" fill="#621e1e" fill-rule="evenodd" stroke="none"/>
    <path d="M0.45 -0.1 L0.45 -0.1 0.3 -0.25 0.1 -0.45 0.0 -0.5 -0.1 -0.5 -0.1 -0.55 -0.15 -0.65 -0.1 -0.65 -0.1 -0.65 Q-0.1 -0.75 -0.2 -0.8 L-0.4 -0.85 -0.4 -0.85 -0.45 -1.0 -0.5 -1.1 -0.55 -1.15 -0.75 -1.05 -0.9 -0.95 -1.05 -0.75 -1.2 -0.65 -1.35 -0.5 -1.4 -0.4 -1.4 -0.4 -1.5 -0.2 -1.55 -0.05 -1.5 0.05 -1.45 0.1 -1.5 0.15 -1.45 0.4 Q-1.4 0.5 -1.25 0.5 L-1.0 0.45 -0.55 0.55 -0.4 0.5 Q-0.3 0.5 0.15 0.75 L0.45 0.85 0.85 0.85 1.1 0.85 1.2 0.8 Q1.55 0.75 1.55 0.5 1.55 0.4 1.15 0.2 L1.05 0.15 Q0.8 0.1 0.65 0.0 0.6 0.0 0.55 -0.05 L0.45 -0.1 Z" fill="none" stroke="#000000" stroke-linecap="round" stroke-linejoin="round" stroke-opacity="0.4509804" stroke-width="0.1"/>
  </g>
</svg>
