<?xml version="1.0" encoding="UTF-8" standalone="no"?>
<svg xmlns:xlink="http://www.w3.org/1999/xlink" height="1.95px" width="1.4px" xmlns="http://www.w3.org/2000/svg">
  <g transform="matrix(1.0, 0.0, 0.0, 1.0, 0.7, 0.95)">
    <path d="M-0.2 -0.75 L-0.2 -0.75 Q-0.2 -0.65 -0.3 -0.55 L-0.3 -0.45 -0.3 -0.4 -0.3 -0.3 -0.35 -0.2 -0.35 -0.05 Q-0.35 0.0 -0.4 0.0 L-0.45 0.0 -0.45 0.0 -0.5 0.05 -0.5 0.05 -0.45 -0.05 Q-0.4 -0.1 -0.4 -0.2 L-0.4 -0.3 -0.4 -0.4 -0.35 -0.5 -0.35 -0.5 -0.25 -0.7 -0.25 -0.75 -0.2 -0.75 M-0.55 0.65 L-0.5 0.65 -0.5 0.65 -0.45 0.6 -0.4 0.65 -0.4 0.7 -0.35 0.8 -0.35 0.8 -0.3 0.8 -0.3 0.8 -0.25 0.8 -0.25 0.75 -0.2 0.7 Q-0.2 0.65 -0.15 0.7 L-0.15 0.7 -0.15 0.8 -0.15 0.9 -0.1 0.9 -0.1 0.9 -0.15 0.95 -0.15 0.9 -0.3 0.85 -0.3 0.85 -0.4 0.8 -0.4 0.8 -0.45 0.75 -0.5 0.75 -0.5 0.65 -0.55 0.65 -0.55 0.65 M0.0 0.9 L0.0 0.85 0.1 0.75 0.15 0.7 0.15 0.6 0.15 0.55 0.2 0.5 0.25 0.6 0.25 0.75 0.3 0.85 0.35 0.9 0.4 0.85 0.45 0.85 0.5 0.8 0.5 0.75 0.55 0.7 0.5 0.7 0.55 0.65 0.55 0.55 0.55 0.5 0.5 0.45 0.5 0.35 0.55 0.3 0.6 0.25 0.6 0.15 0.6 0.1 0.65 0.1 0.65 0.2 0.65 0.3 0.6 0.4 0.6 0.45 0.6 0.55 0.55 0.6 0.55 0.65 0.55 0.85 0.5 0.9 0.5 0.95 0.45 0.95 0.4 0.95 0.3 0.9 0.25 0.8 0.2 0.8 0.2 0.7 0.15 0.65 0.15 0.7 0.15 0.75 0.05 0.85 Q0.0 0.85 0.0 0.9 M0.55 0.0 L0.5 -0.1 0.5 -0.15 0.55 -0.25 0.55 -0.3 0.55 0.0" fill="#917146" fill-rule="evenodd" stroke="none"/>
    <path d="M0.2 -0.9 L0.25 -0.9 0.3 -0.85 0.3 -0.8 0.35 -0.8 0.35 -0.75 0.4 -0.65 0.4 -0.6 0.4 -0.5 0.4 -0.4 0.45 -0.25 0.45 -0.2 0.4 -0.2 0.45 -0.1 0.45 -0.05 0.45 0.0 0.5 0.1 0.5 0.2 0.45 0.3 0.4 0.3 0.4 0.35 0.35 0.35 0.3 0.35 0.25 0.35 0.2 0.3 0.2 0.25 0.15 0.25 0.15 0.3 0.1 0.35 0.05 0.35 0.05 0.3 0.0 0.3 Q0.0 0.35 -0.05 0.3 L-0.05 0.3 -0.1 0.25 -0.1 0.25 Q-0.1 0.25 -0.15 0.25 L-0.15 0.3 -0.25 0.3 -0.25 0.25 Q-0.25 0.2 -0.25 0.15 L-0.3 0.15 -0.35 0.2 -0.35 0.2 -0.4 0.25 -0.4 0.25 -0.45 0.2 -0.45 0.15 -0.5 0.15 -0.45 0.1 -0.45 0.05 -0.4 0.05 -0.35 0.0 Q-0.3 0.0 -0.3 -0.05 L-0.3 -0.1 Q-0.25 -0.15 -0.25 -0.2 L-0.25 -0.4 -0.25 -0.45 -0.2 -0.5 -0.2 -0.55 -0.15 -0.6 -0.15 -0.6 -0.1 -0.65 -0.05 -0.75 Q-0.05 -0.8 0.0 -0.8 L0.0 -0.8 0.05 -0.8 0.1 -0.85 0.2 -0.9 M0.35 0.45 L0.4 0.45 0.45 0.5 0.45 0.6 0.45 0.8 0.4 0.8 0.3 0.8 0.3 0.75 0.3 0.65 0.25 0.6 0.25 0.5 0.35 0.45 M0.05 0.45 L0.1 0.45 0.15 0.45 0.15 0.5 0.15 0.6 0.1 0.65 0.1 0.7 0.05 0.75 0.0 0.8 -0.05 0.8 -0.1 0.8 -0.1 0.75 -0.1 0.65 Q-0.05 0.65 -0.1 0.6 L-0.1 0.5 -0.05 0.5 Q0.0 0.4 0.05 0.45 M-0.5 0.35 L-0.5 0.35 -0.45 0.3 -0.4 0.3 Q-0.35 0.3 -0.4 0.35 L-0.4 0.4 -0.4 0.45 -0.4 0.5 -0.45 0.5 -0.45 0.55 -0.5 0.55 -0.5 0.55 -0.5 0.45 -0.5 0.35 -0.5 0.35 -0.55 0.4 -0.6 0.45 -0.6 0.45 -0.6 0.4 -0.55 0.35 -0.5 0.35 M-0.3 0.45 L-0.3 0.4 -0.25 0.35 -0.25 0.35 -0.2 0.35 -0.2 0.35 -0.15 0.35 Q-0.15 0.35 -0.15 0.4 L-0.15 0.45 -0.15 0.55 -0.15 0.6 -0.2 0.65 -0.2 0.65 -0.25 0.7 -0.25 0.7 -0.3 0.7 -0.3 0.7 -0.35 0.6 -0.35 0.6 Q-0.4 0.55 -0.35 0.5 L-0.3 0.45 -0.3 0.45" fill="#c4a270" fill-rule="evenodd" stroke="none"/>
    <path d="M-0.15 -0.85 L-0.1 -0.85 -0.1 -0.9 Q-0.05 -0.9 -0.05 -0.9 -0.05 -0.95 0.0 -0.95 L0.2 -0.95 0.3 -0.9 0.4 -0.8 0.4 -0.8 0.5 -0.7 0.5 -0.6 0.5 -0.45 0.5 -0.4 0.55 -0.4 0.55 -0.3 0.55 -0.25 0.5 -0.15 0.5 -0.1 0.55 0.0 0.6 0.0 0.6 0.1 0.6 0.15 0.6 0.25 0.55 0.3 0.5 0.35 0.5 0.45 0.55 0.5 0.55 0.55 0.55 0.65 0.5 0.7 0.55 0.7 0.5 0.75 0.5 0.8 0.45 0.85 0.4 0.85 0.35 0.9 0.3 0.85 0.25 0.75 0.25 0.6 0.2 0.5 0.15 0.55 0.15 0.6 0.15 0.7 0.1 0.75 0.0 0.85 0.0 0.9 -0.05 0.9 -0.05 0.9 -0.1 0.9 -0.1 0.9 -0.15 0.9 -0.15 0.8 -0.15 0.7 -0.15 0.7 Q-0.2 0.65 -0.2 0.7 L-0.25 0.75 -0.25 0.8 -0.3 0.8 -0.3 0.8 -0.35 0.8 -0.35 0.8 -0.4 0.7 -0.4 0.65 -0.45 0.6 -0.5 0.65 -0.5 0.65 -0.55 0.65 -0.55 0.6 -0.65 0.5 -0.65 0.3 -0.6 0.25 -0.55 0.15 -0.55 0.15 -0.55 0.1 -0.5 0.05 -0.5 0.05 -0.5 0.05 -0.45 0.0 -0.45 0.0 -0.4 0.0 Q-0.35 0.0 -0.35 -0.05 L-0.35 -0.2 -0.3 -0.3 -0.3 -0.4 -0.3 -0.45 -0.3 -0.55 Q-0.2 -0.65 -0.2 -0.75 L-0.2 -0.75 -0.2 -0.8 -0.15 -0.85 M0.2 -0.9 L0.1 -0.85 0.05 -0.8 0.0 -0.8 0.0 -0.8 Q-0.05 -0.8 -0.05 -0.75 L-0.1 -0.65 -0.15 -0.6 -0.15 -0.6 -0.2 -0.55 -0.2 -0.5 -0.25 -0.45 -0.25 -0.4 -0.25 -0.2 Q-0.25 -0.15 -0.3 -0.1 L-0.3 -0.05 Q-0.3 0.0 -0.35 0.0 L-0.4 0.05 -0.45 0.05 -0.45 0.1 -0.5 0.15 -0.45 0.15 -0.45 0.2 -0.4 0.25 -0.4 0.25 -0.35 0.2 -0.35 0.2 -0.3 0.15 -0.25 0.15 Q-0.25 0.2 -0.25 0.25 L-0.25 0.3 -0.15 0.3 -0.15 0.25 Q-0.1 0.25 -0.1 0.25 L-0.1 0.25 -0.05 0.3 -0.05 0.3 Q0.0 0.35 0.0 0.3 L0.05 0.3 0.05 0.35 0.1 0.35 0.15 0.3 0.15 0.25 0.2 0.25 0.2 0.3 0.25 0.35 0.3 0.35 0.35 0.35 0.4 0.35 0.4 0.3 0.45 0.3 0.5 0.2 0.5 0.1 0.45 0.0 0.45 -0.05 0.45 -0.1 0.4 -0.2 0.45 -0.2 0.45 -0.25 0.4 -0.4 0.4 -0.5 0.4 -0.6 0.4 -0.65 0.35 -0.75 0.35 -0.8 0.3 -0.8 0.3 -0.85 0.25 -0.9 0.2 -0.9 M0.05 0.45 Q0.0 0.4 -0.05 0.5 L-0.1 0.5 -0.1 0.6 Q-0.05 0.65 -0.1 0.65 L-0.1 0.75 -0.1 0.8 -0.05 0.8 0.0 0.8 0.05 0.75 0.1 0.7 0.1 0.65 0.15 0.6 0.15 0.5 0.15 0.45 0.1 0.45 0.05 0.45 M0.35 0.45 L0.25 0.5 0.25 0.6 0.3 0.65 0.3 0.75 0.3 0.8 0.4 0.8 0.45 0.8 0.45 0.6 0.45 0.5 0.4 0.45 0.35 0.45 M-0.3 0.45 L-0.3 0.45 -0.35 0.5 Q-0.4 0.55 -0.35 0.6 L-0.35 0.6 -0.3 0.7 -0.3 0.7 -0.25 0.7 -0.25 0.7 -0.2 0.65 -0.2 0.65 -0.15 0.6 -0.15 0.55 -0.15 0.45 -0.15 0.4 Q-0.15 0.35 -0.15 0.35 L-0.2 0.35 -0.2 0.35 -0.25 0.35 -0.25 0.35 -0.3 0.4 -0.3 0.45 M-0.5 0.35 L-0.5 0.45 -0.5 0.55 -0.5 0.55 -0.45 0.55 -0.45 0.5 -0.4 0.5 -0.4 0.45 -0.4 0.4 -0.4 0.35 Q-0.35 0.3 -0.4 0.3 L-0.45 0.3 -0.5 0.35 -0.5 0.35 -0.55 0.35 -0.6 0.4 -0.6 0.45 -0.6 0.45 -0.55 0.4 -0.5 0.35 -0.5 0.35" fill="#ab8653" fill-rule="evenodd" stroke="none"/>
    <path d="M-0.15 -0.85 L-0.2 -0.8 -0.2 -0.75 -0.25 -0.75 -0.25 -0.7 -0.35 -0.5 -0.35 -0.5 -0.4 -0.4 -0.4 -0.3 -0.4 -0.2 Q-0.4 -0.1 -0.45 -0.05 L-0.5 0.05 -0.5 0.05 -0.55 0.1 -0.55 0.15 -0.55 0.15 -0.6 0.25 -0.65 0.3 -0.65 0.5 -0.55 0.6 -0.55 0.65 -0.55 0.65 -0.5 0.65 -0.5 0.75 -0.45 0.75 -0.4 0.8 -0.4 0.8 -0.3 0.85 -0.3 0.85 -0.15 0.9 -0.15 0.95 -0.1 0.9 -0.05 0.9 -0.05 0.9 0.0 0.9 Q0.0 0.85 0.05 0.85 L0.15 0.75 0.15 0.7 0.15 0.65 0.2 0.7 0.2 0.8 0.25 0.8 0.3 0.9 0.4 0.95 0.45 0.95 0.5 0.95 0.5 0.9 0.55 0.85 0.55 0.65 0.55 0.6 0.6 0.55 0.6 0.45 0.6 0.4 0.65 0.3 0.65 0.2 0.65 0.1 0.6 0.1 0.6 0.0 0.55 0.0 0.55 -0.3 0.55 -0.4 0.5 -0.4 0.5 -0.45 0.5 -0.6 0.5 -0.7 0.4 -0.8" fill="none" stroke="#000000" stroke-linecap="round" stroke-linejoin="round" stroke-opacity="0.4509804" stroke-width="0.1"/>
  </g>
</svg>
