<?xml version="1.0" encoding="UTF-8" standalone="no"?>
<svg xmlns:xlink="http://www.w3.org/1999/xlink" height="7.5px" width="2.3px" xmlns="http://www.w3.org/2000/svg">
  <g transform="matrix(1.0, 0.0, 0.0, 1.0, 1.15, 3.85)">
    <path d="M-1.0 -2.85 L-1.0 -2.85 -0.95 -3.0 -0.85 -3.2 -0.85 -3.25 -0.7 -3.45 -0.7 -3.45 Q-0.55 -3.65 -0.4 -3.7 L-0.35 -3.7 -0.3 -3.7 -0.25 -3.7 Q-0.15 -3.7 -0.15 -3.75 L0.0 -3.8 0.05 -3.8 0.2 -3.8 0.25 -3.8 0.4 -3.8 0.45 -3.8 0.5 -3.75 0.7 -3.65 0.7 -3.65 0.95 -3.35 0.95 -3.25 0.85 -3.2 0.85 -3.15 0.75 -3.1 0.7 -3.1 Q0.6 -3.05 0.55 -2.85 L0.55 -2.9 0.55 -3.1 0.6 -3.15 0.6 -3.3 0.65 -3.35 0.5 -3.45 0.45 -3.45 0.3 -3.45 0.25 -3.35 0.3 -3.3 0.35 -3.2 0.3 -3.2 0.3 -3.15 0.15 -3.15 0.1 -3.15 0.0 -3.05 -0.1 -3.0 Q-0.15 -2.95 -0.15 -2.9 L-0.1 -2.85 -0.1 -2.8 -0.05 -2.8 0.0 -2.75 0.0 -2.7 0.0 -2.55 0.05 -2.4 0.05 -2.4 Q0.05 -2.3 -0.05 -2.25 L-0.05 -2.2 Q-0.1 -2.15 -0.05 -2.05 L-0.05 -1.9 -0.1 -1.8 -0.15 -1.8 -0.2 -1.6 Q-0.2 -1.5 -0.3 -1.45 L-0.35 -1.45 -0.35 -1.4 Q-0.45 -1.3 -0.4 -1.2 L-0.4 -1.2 -0.3 -1.1 -0.3 -1.05 -0.25 -0.9 -0.25 -0.85 -0.2 -0.8 -0.15 -0.8 -0.15 -0.75 -0.15 -0.55 -0.1 -0.5 -0.05 -0.35 -0.05 -0.3 0.0 -0.25 -0.05 -0.2 Q-0.05 -0.1 -0.15 -0.1 L-0.15 -0.05 -0.35 0.15 -0.35 0.15 Q-0.4 0.25 -0.35 0.3 L-0.3 0.35 Q-0.35 0.5 -0.3 0.65 L-0.3 0.7 -0.25 0.7 -0.2 0.8 -0.15 0.8 -0.1 0.75 -0.1 0.75 Q-0.05 0.8 -0.05 0.85 L-0.05 0.9 0.05 1.05 0.1 1.05 0.15 1.0 0.2 0.95 Q0.2 0.9 0.3 0.9 L0.35 0.9 0.35 0.8 0.4 0.75 0.4 0.7 0.45 0.7 0.45 0.5 0.5 0.45 Q0.5 0.45 0.55 0.4 L0.6 0.4 Q0.65 0.35 0.7 0.4 L0.7 0.45 Q0.75 0.5 0.85 0.4 L0.9 0.4 0.85 0.65 0.8 0.8 0.8 0.85 0.8 0.95 0.8 1.1 0.8 1.35 0.75 1.55 0.75 1.65 0.75 2.1 0.75 2.25 0.65 2.2 0.55 2.1 0.5 1.9 0.5 1.95 0.45 2.0 Q0.35 2.05 0.4 2.1 L0.55 2.25 0.55 2.3 0.55 2.45 0.6 2.45 Q0.6 2.55 0.55 2.55 0.45 2.55 0.45 2.6 L0.45 2.65 0.4 2.7 0.45 2.75 0.55 2.85 0.55 2.9 0.4 3.15 0.35 3.15 0.35 3.25 0.25 3.35 0.2 3.35 0.15 3.25 0.1 3.25 0.1 3.3 -0.05 3.35 -0.05 3.35 -0.1 3.35 -0.15 3.2 -0.15 3.2 Q-0.1 3.15 -0.15 3.1 L-0.2 3.1 -0.25 3.05 -0.25 3.0 -0.3 2.95 -0.3 2.85 -0.25 2.8 Q-0.2 2.75 -0.15 2.65 L-0.15 2.6 0.0 2.6 0.05 2.6 Q0.1 2.55 0.05 2.5 L0.05 2.45 -0.1 2.4 -0.1 2.35 -0.1 2.25 Q-0.1 2.2 -0.05 2.2 L0.05 2.2 0.1 2.1 0.1 1.95 0.05 1.85 0.05 1.8 Q0.05 1.7 -0.05 1.7 L-0.15 1.6 -0.2 1.6 -0.2 1.5 -0.25 1.5 Q-0.4 1.55 -0.45 1.7 L-0.5 1.85 -0.5 1.95 -0.55 2.0 Q-0.55 2.1 -0.6 2.15 L-0.65 2.15 -0.8 2.3 -0.8 2.15 -0.75 1.95 -0.8 1.85 -0.8 1.65 -0.8 1.5 -0.8 1.45 -0.8 1.2 -0.85 1.15 -0.85 0.8 -0.85 0.65 -0.9 0.6 -0.9 0.55 -0.9 0.3 Q-0.9 0.25 -0.9 0.15 -0.9 0.1 -0.95 0.0 L-1.0 -0.1 -0.95 -0.15 -1.0 -0.2 -1.0 -0.25 -1.0 -0.55 -1.0 -0.65 -1.05 -0.9 -1.1 -1.1 -1.05 -1.1 -1.1 -1.3 -1.1 -1.35 -1.1 -1.65 -1.1 -1.75 -1.1 -1.75 -0.95 -1.9 -0.85 -2.0 -0.85 -2.0 -0.8 -2.05 -0.8 -2.15 -0.8 -2.3 -0.8 -2.4 Q-0.85 -2.45 -0.85 -2.55 L-0.85 -2.6 -0.8 -2.65 -0.75 -2.7 -0.75 -2.8 -0.65 -2.85 -0.65 -2.9 Q-0.7 -2.95 -0.75 -2.9 L-0.8 -2.85 -0.9 -2.9 -0.9 -2.9 -0.95 -2.85 -1.0 -2.85 -1.0 -2.85" fill="#6b5045" fill-rule="evenodd" stroke="none"/>
    <path d="M0.9 0.4 L0.85 0.4 Q0.75 0.5 0.7 0.45 L0.7 0.4 Q0.65 0.35 0.6 0.4 L0.55 0.4 Q0.5 0.45 0.5 0.45 L0.45 0.5 0.45 0.7 0.4 0.7 0.4 0.75 0.35 0.8 0.35 0.9 0.3 0.9 Q0.2 0.9 0.2 0.95 L0.15 1.0 0.1 1.05 0.05 1.05 -0.05 0.9 -0.05 0.85 Q-0.05 0.8 -0.1 0.75 L-0.1 0.75 -0.15 0.8 -0.2 0.8 -0.25 0.7 -0.3 0.7 -0.3 0.65 Q-0.35 0.5 -0.3 0.35 L-0.35 0.3 Q-0.4 0.25 -0.35 0.15 L-0.35 0.15 -0.15 -0.05 -0.15 -0.1 Q-0.05 -0.1 -0.05 -0.2 L0.0 -0.25 -0.05 -0.3 -0.05 -0.35 -0.1 -0.5 -0.15 -0.55 -0.15 -0.75 -0.15 -0.8 -0.2 -0.8 -0.25 -0.85 -0.25 -0.9 -0.3 -1.05 -0.3 -1.1 -0.4 -1.2 -0.4 -1.2 Q-0.45 -1.3 -0.35 -1.4 L-0.35 -1.45 -0.3 -1.45 Q-0.2 -1.5 -0.2 -1.6 L-0.15 -1.8 -0.1 -1.8 -0.05 -1.9 -0.05 -2.05 Q-0.1 -2.15 -0.05 -2.2 L-0.05 -2.25 Q0.05 -2.3 0.05 -2.4 L0.05 -2.4 0.0 -2.55 0.0 -2.7 0.0 -2.75 -0.05 -2.8 -0.1 -2.8 -0.1 -2.85 -0.15 -2.9 Q-0.15 -2.95 -0.1 -3.0 L0.0 -3.05 0.1 -3.15 0.15 -3.15 0.3 -3.15 0.3 -3.2 0.35 -3.2 0.3 -3.3 0.25 -3.35 0.3 -3.45 0.45 -3.45 0.5 -3.45 0.65 -3.35 0.6 -3.3 0.6 -3.15 0.55 -3.1 0.55 -2.9 0.55 -2.85 0.55 -2.8 0.6 -2.8 Q0.7 -2.85 0.75 -2.75 L0.8 -2.65 0.8 -2.55 0.85 -2.55 0.9 -2.55 0.9 -2.45 Q0.9 -2.35 0.8 -2.3 0.75 -2.25 0.75 -2.15 L0.75 -2.05 0.75 -1.95 0.7 -1.85 0.7 -1.85 0.75 -1.85 0.8 -1.8 Q0.85 -1.75 0.85 -1.8 0.95 -1.7 0.9 -1.6 L0.85 -1.55 Q0.8 -1.55 0.8 -1.45 L0.8 -1.45 0.7 -1.2 0.7 -1.2 Q0.65 -1.1 0.7 -1.05 L0.75 -0.85 0.7 -0.7 Q0.65 -0.6 0.7 -0.5 L0.75 -0.5 0.85 -0.5 0.85 -0.5 0.9 -0.45 0.95 -0.4 0.95 -0.2 0.9 -0.05 0.9 0.1 0.9 0.3 0.9 0.4" fill="#856556" fill-rule="evenodd" stroke="none"/>
    <path d="M-1.0 -2.85 L-1.0 -2.85 -0.95 -2.85 -0.9 -2.9 -0.9 -2.9 -0.8 -2.85 -0.75 -2.9 Q-0.7 -2.95 -0.65 -2.9 L-0.65 -2.85 -0.75 -2.8 -0.75 -2.7 -0.8 -2.65 -0.85 -2.6 -0.85 -2.55 Q-0.85 -2.45 -0.8 -2.4 L-0.8 -2.3 -0.8 -2.15 -0.8 -2.05 -0.85 -2.0 -0.85 -2.0 -0.95 -1.9 -1.1 -1.75 -1.1 -1.75 -1.1 -1.8 Q-1.05 -1.85 -1.05 -1.95 L-1.05 -2.0 Q-1.0 -2.05 -1.05 -2.1 L-1.05 -2.2 -1.0 -2.45 -1.05 -2.55 -1.05 -2.65 -1.05 -2.75 -1.0 -2.85 M0.55 -2.85 Q0.6 -3.05 0.7 -3.1 L0.75 -3.1 0.85 -3.15 0.85 -3.2 0.95 -3.25 0.95 -3.15 1.0 -3.0 1.05 -2.95 1.05 -2.75 1.05 -2.65 1.05 -2.65 1.1 -2.55 1.05 -2.6 1.05 -2.6 1.0 -2.65 0.95 -2.65 0.9 -2.65 Q0.9 -2.6 0.8 -2.65 L0.8 -2.65 0.75 -2.75 Q0.7 -2.85 0.6 -2.8 L0.55 -2.8 0.55 -2.85" fill="#513c35" fill-rule="evenodd" stroke="none"/>
    <path d="M-0.8 2.3 L-0.65 2.15 -0.6 2.15 Q-0.55 2.1 -0.55 2.0 L-0.5 1.95 -0.5 1.85 -0.45 1.7 Q-0.4 1.55 -0.25 1.5 L-0.2 1.5 -0.2 1.6 -0.15 1.6 -0.05 1.7 Q0.05 1.7 0.05 1.8 L0.05 1.85 0.1 1.95 0.1 2.1 0.05 2.2 -0.05 2.2 Q-0.1 2.2 -0.1 2.25 L-0.1 2.35 -0.1 2.4 0.05 2.45 0.05 2.5 Q0.1 2.55 0.05 2.6 L0.0 2.6 -0.15 2.6 -0.15 2.65 Q-0.2 2.75 -0.25 2.8 L-0.3 2.85 -0.3 2.95 -0.25 3.0 -0.25 3.05 -0.2 3.1 -0.15 3.1 Q-0.1 3.15 -0.15 3.2 L-0.15 3.2 -0.1 3.35 -0.05 3.35 -0.05 3.35 0.1 3.3 0.1 3.25 0.15 3.25 0.2 3.35 0.25 3.35 0.35 3.25 0.35 3.15 0.4 3.15 0.55 2.9 0.55 2.85 0.45 2.75 0.4 2.7 0.45 2.65 0.45 2.6 Q0.45 2.55 0.55 2.55 0.6 2.55 0.6 2.45 L0.55 2.45 0.55 2.3 0.55 2.25 0.4 2.1 Q0.35 2.05 0.45 2.0 L0.5 1.95 0.5 1.9 0.55 2.1 0.65 2.2 0.75 2.25 0.75 2.4 0.7 2.5 0.7 2.6 0.65 2.9 0.65 2.95 0.6 3.15 0.55 3.25 0.55 3.3 0.45 3.4 0.45 3.45 0.35 3.55 0.3 3.6 0.25 3.6 0.25 3.65 0.2 3.65 0.15 3.65 0.1 3.65 -0.05 3.65 -0.1 3.65 -0.1 3.65 -0.15 3.65 -0.3 3.6 -0.35 3.6 -0.45 3.55 -0.45 3.55 -0.5 3.55 -0.55 3.45 -0.55 3.45 -0.6 3.4 -0.6 3.35 -0.6 3.3 -0.65 3.2 -0.7 3.15 -0.75 3.05 -0.75 2.9 -0.75 2.75 -0.75 2.4 -0.8 2.3 M1.1 -2.55 L1.05 -2.45 1.05 -2.3 1.0 -1.9 1.0 -1.65 1.05 -1.55 1.0 -1.55 1.0 -1.35 1.0 -1.05 1.0 -0.7 0.95 -0.65 Q0.9 -0.55 0.95 -0.45 L0.95 -0.4 0.9 -0.45 0.85 -0.5 0.85 -0.5 0.75 -0.5 0.7 -0.5 Q0.65 -0.6 0.7 -0.7 L0.75 -0.85 0.7 -1.05 Q0.65 -1.1 0.7 -1.2 L0.7 -1.2 0.8 -1.45 0.8 -1.45 Q0.8 -1.55 0.85 -1.55 L0.9 -1.6 Q0.95 -1.7 0.85 -1.8 0.85 -1.75 0.8 -1.8 L0.75 -1.85 0.7 -1.85 0.7 -1.85 0.75 -1.95 0.75 -2.05 0.75 -2.15 Q0.75 -2.25 0.8 -2.3 0.9 -2.35 0.9 -2.45 L0.9 -2.55 0.85 -2.55 0.8 -2.55 0.8 -2.65 0.8 -2.65 Q0.9 -2.6 0.9 -2.65 L0.95 -2.65 1.0 -2.65 1.05 -2.6 1.05 -2.6 1.1 -2.55" fill="#5b433c" fill-rule="evenodd" stroke="none"/>
    <path d="M0.95 -3.25 L0.95 -3.35 0.7 -3.65 0.7 -3.65 0.5 -3.75 0.45 -3.8 0.4 -3.8 0.25 -3.8 0.2 -3.8 0.05 -3.8 0.0 -3.8 -0.15 -3.75 Q-0.15 -3.7 -0.25 -3.7 L-0.3 -3.7 -0.35 -3.7 -0.4 -3.7 Q-0.55 -3.65 -0.7 -3.45 L-0.7 -3.45 -0.85 -3.25 -0.85 -3.2 -0.95 -3.0 -1.0 -2.85 -1.0 -2.85 -1.05 -2.75 -1.05 -2.65 -1.05 -2.55 -1.0 -2.45 -1.05 -2.2 -1.05 -2.1 Q-1.0 -2.05 -1.05 -2.0 L-1.05 -1.95 Q-1.05 -1.85 -1.1 -1.8 L-1.1 -1.75 -1.1 -1.65 -1.1 -1.35 -1.1 -1.3 -1.05 -1.1 -1.1 -1.1 -1.05 -0.9 -1.0 -0.65 -1.0 -0.55 -1.0 -0.25 -1.0 -0.2 -0.95 -0.15 -1.0 -0.1 -0.95 0.0 Q-0.9 0.1 -0.9 0.15 -0.9 0.25 -0.9 0.3 L-0.9 0.55 -0.9 0.6 -0.85 0.65 -0.85 0.8 -0.85 1.15 -0.8 1.2 -0.8 1.45 -0.8 1.5 -0.8 1.65 -0.8 1.85 -0.75 1.95 -0.8 2.15 -0.8 2.3 -0.75 2.4 -0.75 2.75 -0.75 2.9 -0.75 3.05 -0.7 3.15 -0.65 3.2 -0.6 3.3 -0.6 3.35 -0.6 3.4 -0.55 3.45 -0.55 3.45 -0.5 3.55 -0.45 3.55 -0.45 3.55 M0.75 2.25 L0.75 2.1 0.75 1.65 0.75 1.55 0.8 1.35 0.8 1.1 0.8 0.95 0.8 0.85 0.8 0.8 0.85 0.65 0.9 0.4 0.9 0.3 0.9 0.1 0.9 -0.05 0.95 -0.2 0.95 -0.4 0.95 -0.45 Q0.9 -0.55 0.95 -0.65 L1.0 -0.7 1.0 -1.05 1.0 -1.35 1.0 -1.55 1.05 -1.55 1.0 -1.65 1.0 -1.9 1.05 -2.3 1.05 -2.45 1.1 -2.55 1.05 -2.65 1.05 -2.65 1.05 -2.75 1.05 -2.95 1.0 -3.0 0.95 -3.15 0.95 -3.25 M0.35 3.55 L0.45 3.45 0.45 3.4 0.55 3.3 0.55 3.25 0.6 3.15 0.65 2.95 0.65 2.9 0.7 2.6 0.7 2.5 0.75 2.4 0.75 2.25" fill="none" stroke="#000000" stroke-linecap="round" stroke-linejoin="round" stroke-opacity="0.4509804" stroke-width="0.1"/>
  </g>
</svg>
