<?xml version="1.0" encoding="UTF-8" standalone="no"?>
<svg xmlns:xlink="http://www.w3.org/1999/xlink" height="7.55px" width="2.2px" xmlns="http://www.w3.org/2000/svg">
  <g transform="matrix(1.0, 0.0, 0.0, 1.0, 1.15, 3.75)">
    <path d="M1.0 -2.55 L0.9 -2.6 0.7 -2.5 Q0.6 -2.6 0.6 -2.7 0.6 -2.75 0.7 -2.9 L0.7 -2.9 Q0.4 -2.8 0.35 -2.55 0.3 -2.35 0.2 -2.35 L0.2 -2.35 0.1 -2.4 0.05 -2.45 0.1 -2.55 -0.05 -2.6 Q0.0 -2.6 0.2 -2.8 L0.2 -2.8 Q0.25 -2.9 0.45 -2.95 L0.75 -3.2 0.75 -3.45 0.85 -3.4 0.9 -3.25 1.0 -2.95 1.0 -2.55 M0.3 -3.7 L0.2 -3.5 0.15 -3.3 0.15 -3.25 0.15 -3.2 0.05 -3.15 Q-0.4 -3.15 -0.45 -2.95 L-0.4 -2.85 -0.5 -2.75 -0.45 -2.7 -0.35 -2.7 -0.3 -2.7 Q-0.7 -2.35 -0.7 -2.15 L-0.5 -2.25 -0.45 -2.2 -0.65 -1.95 -0.65 -1.95 Q-0.55 -2.0 -0.45 -2.05 L-0.35 -2.1 -0.35 -2.1 -0.3 -2.05 -0.1 -2.1 0.1 -2.15 0.2 -2.15 0.25 -2.15 0.2 -2.15 -0.65 -1.8 -0.5 -1.8 -0.5 -1.75 -0.85 -1.65 -1.05 -1.5 -1.05 -1.75 Q-1.05 -2.1 -1.05 -2.3 L-1.05 -2.75 Q-1.05 -3.05 -0.9 -3.3 -0.7 -3.6 -0.35 -3.6 L0.05 -3.65 0.3 -3.7 M-0.75 2.65 L-0.3 2.75 0.05 2.75 0.1 2.75 0.15 2.75 0.1 2.75 0.1 2.8 -0.05 2.8 -0.45 2.85 -0.4 2.85 -0.25 2.95 -0.05 2.95 0.0 2.95 0.05 2.95 0.1 2.95 -0.1 3.0 -0.45 2.95 Q-0.45 3.05 -0.55 3.05 L-0.65 3.0 -0.75 2.65 M-0.6 3.35 L-0.2 3.45 -0.25 3.55 0.0 3.6 Q0.0 3.5 0.1 3.45 L0.15 3.45 0.3 3.4 0.1 3.3 -0.2 3.3 Q-0.35 3.3 -0.45 3.2 L-0.4 3.15 -0.25 3.2 -0.1 3.2 -0.1 3.15 -0.2 3.15 -0.25 3.15 -0.3 3.1 -0.3 3.05 -0.15 3.05 0.05 3.15 0.55 2.9 0.55 2.85 0.4 2.8 0.4 2.7 Q0.55 2.7 0.65 2.6 L0.7 2.6 0.7 2.7 0.65 2.9 0.5 3.25 0.5 3.3 0.45 3.45 0.4 3.55 0.15 3.75 -0.05 3.8 -0.4 3.7 -0.5 3.55 -0.55 3.45 -0.55 3.4 -0.6 3.35" fill="#8a672e" fill-rule="evenodd" stroke="none"/>
    <path d="M0.75 -3.45 L0.75 -3.2 0.45 -2.95 Q0.25 -2.9 0.2 -2.8 L0.2 -2.8 Q0.0 -2.6 -0.05 -2.6 L0.1 -2.55 0.05 -2.45 0.1 -2.4 0.2 -2.35 0.2 -2.35 Q0.3 -2.35 0.35 -2.55 0.4 -2.8 0.7 -2.9 L0.7 -2.9 Q0.6 -2.75 0.6 -2.7 0.6 -2.6 0.7 -2.5 L0.9 -2.6 1.0 -2.55 1.0 -2.5 0.95 -2.1 1.0 -1.3 0.95 -0.65 0.9 -0.35 0.85 -0.05 Q0.7 1.1 0.7 1.35 L0.7 2.6 0.65 2.6 Q0.55 2.7 0.4 2.7 L0.4 2.8 0.55 2.85 0.55 2.9 0.05 3.15 -0.15 3.05 -0.3 3.05 -0.3 3.1 -0.25 3.15 -0.2 3.15 -0.1 3.15 -0.1 3.2 -0.25 3.2 -0.4 3.15 -0.45 3.2 Q-0.35 3.3 -0.2 3.3 L0.1 3.3 0.3 3.4 0.15 3.45 0.1 3.45 Q0.0 3.5 0.0 3.6 L-0.25 3.55 -0.2 3.45 -0.6 3.35 -0.65 3.0 -0.55 3.05 Q-0.45 3.05 -0.45 2.95 L-0.1 3.0 0.1 2.95 0.05 2.95 0.1 2.95 0.2 2.9 0.35 2.9 0.3 2.8 0.35 2.55 0.4 2.5 0.55 2.35 0.15 2.45 0.1 2.45 -0.1 2.5 Q-0.2 2.5 -0.5 2.6 -0.4 2.7 -0.2 2.7 L-0.05 2.7 0.05 2.75 -0.3 2.75 -0.75 2.65 -0.75 2.2 -0.7 2.1 Q-0.7 1.85 -0.9 0.55 -1.05 -0.7 -1.05 -1.2 L-1.05 -1.5 -0.85 -1.65 -0.5 -1.75 -0.5 -1.8 -0.65 -1.8 0.2 -2.15 0.25 -2.15 0.2 -2.15 0.1 -2.15 -0.1 -2.1 -0.3 -2.05 -0.35 -2.1 -0.35 -2.1 -0.45 -2.05 Q-0.55 -2.0 -0.65 -1.95 L-0.65 -1.95 -0.45 -2.2 -0.5 -2.25 -0.7 -2.15 Q-0.7 -2.35 -0.3 -2.7 L-0.35 -2.7 -0.45 -2.7 -0.5 -2.75 -0.4 -2.85 -0.45 -2.95 Q-0.4 -3.15 0.05 -3.15 L0.15 -3.2 0.15 -3.25 0.15 -3.3 0.2 -3.5 0.3 -3.7 0.35 -3.7 0.65 -3.6 0.75 -3.5 0.75 -3.45 M-0.1 1.7 L-0.55 2.05 Q-0.5 2.15 -0.35 2.1 L-0.35 2.1 -0.5 2.2 -0.6 2.3 Q-0.6 2.35 -0.5 2.35 L-0.4 2.3 -0.25 2.35 0.1 2.35 0.15 2.35 0.45 2.25 Q0.4 2.2 0.3 2.15 0.35 2.05 0.5 2.05 0.65 2.05 0.65 1.9 L0.65 0.9 0.6 0.8 0.55 0.75 Q0.55 0.55 0.6 0.4 L0.65 -0.05 0.7 -0.35 0.75 -0.55 0.85 -0.85 0.9 -1.1 0.9 -1.3 0.95 -1.45 0.95 -1.65 0.85 -1.8 Q0.8 -1.8 0.8 -1.9 L0.8 -2.0 0.75 -2.05 0.65 -2.15 0.5 -2.3 0.2 -2.1 Q0.1 -2.0 0.1 -2.0 L-0.2 -1.95 -0.3 -1.85 -0.25 -1.75 Q-0.25 -1.7 -0.5 -1.6 L-0.6 -1.5 -0.65 -1.35 Q-0.75 -1.25 -0.75 -1.1 L-0.85 -1.0 -0.9 -0.9 -0.75 0.05 Q-0.75 0.15 -0.85 0.35 L-0.75 0.9 Q-0.75 1.3 -0.55 1.25 L-0.6 1.35 -0.65 1.45 -0.55 1.8 Q-0.4 1.8 0.1 1.05 L0.05 1.0 -0.05 0.95 0.1 0.8 0.15 0.85 0.2 0.85 0.25 0.9 0.3 1.05 0.25 1.4 0.1 1.6 -0.1 1.7 M-0.05 2.8 L-0.2 2.85 -0.4 2.85 -0.4 2.85 -0.45 2.85 -0.05 2.8" fill="#bfa075" fill-rule="evenodd" stroke="none"/>
    <path d="M0.05 2.75 L-0.05 2.7 -0.2 2.7 Q-0.4 2.7 -0.5 2.6 -0.2 2.5 -0.1 2.5 L0.1 2.45 0.15 2.45 0.55 2.35 0.4 2.5 0.35 2.55 0.3 2.8 0.35 2.9 0.2 2.9 0.1 2.95 0.05 2.95 0.0 2.95 -0.05 2.95 -0.25 2.95 -0.4 2.85 -0.4 2.85 -0.2 2.85 -0.05 2.8 0.1 2.8 0.1 2.75 0.15 2.75 0.1 2.75 0.05 2.75 M0.2 0.85 L0.15 0.85 0.1 0.8 -0.05 0.95 0.05 1.0 0.1 1.05 Q-0.4 1.8 -0.55 1.8 L-0.65 1.45 -0.6 1.35 -0.55 1.25 Q-0.75 1.3 -0.75 0.9 L-0.85 0.35 Q-0.75 0.15 -0.75 0.05 L-0.9 -0.9 -0.85 -1.0 -0.75 -1.1 Q-0.75 -1.25 -0.65 -1.35 L-0.6 -1.5 -0.5 -1.6 Q-0.25 -1.7 -0.25 -1.75 L-0.3 -1.85 -0.2 -1.95 0.1 -2.0 Q0.1 -2.0 0.2 -2.1 L0.5 -2.3 0.65 -2.15 0.75 -2.05 0.8 -2.0 0.8 -1.9 Q0.8 -1.8 0.85 -1.8 L0.95 -1.65 0.95 -1.45 0.9 -1.3 0.9 -1.1 0.85 -0.85 0.75 -0.55 0.7 -0.35 0.65 -0.05 0.6 0.4 Q0.55 0.55 0.55 0.75 L0.6 0.8 0.65 0.9 0.65 1.9 Q0.65 2.05 0.5 2.05 0.35 2.05 0.3 2.15 0.4 2.2 0.45 2.25 L0.15 2.35 0.1 2.35 -0.25 2.35 -0.4 2.3 -0.5 2.35 Q-0.6 2.35 -0.6 2.3 L-0.5 2.2 -0.35 2.1 -0.35 2.1 Q-0.5 2.15 -0.55 2.05 L-0.1 1.7 -0.1 1.75 -0.2 1.85 0.0 2.0 0.15 2.05 0.2 2.05 0.4 1.8 0.55 1.5 0.55 1.35 0.6 1.15 0.5 0.45 0.6 0.1 0.5 -0.15 0.55 -0.25 0.6 -0.35 0.65 -0.55 0.65 -0.75 0.6 -0.95 0.5 -1.1 0.55 -1.2 0.6 -1.4 0.6 -1.5 0.55 -1.5 Q0.5 -1.5 0.4 -1.75 L0.3 -2.0 0.2 -1.95 Q0.0 -1.9 -0.35 -1.5 -0.75 -1.1 -0.75 -0.95 L-0.7 -0.7 -0.75 -0.6 -0.8 -0.45 Q-0.8 -0.4 -0.65 -0.3 L-0.5 -0.2 Q-0.5 -0.15 -0.55 -0.1 L-0.6 0.0 Q-0.6 0.1 -0.55 0.1 L-0.45 0.15 -0.35 0.1 Q-0.25 0.05 -0.2 0.05 -0.05 0.05 0.05 0.25 L0.1 0.5 0.05 0.55 0.1 0.7 0.15 0.8 0.2 0.85" fill="#debea0" fill-rule="evenodd" stroke="none"/>
    <path d="M0.2 0.85 L0.15 0.8 0.1 0.7 0.05 0.55 0.1 0.5 0.05 0.25 Q-0.05 0.05 -0.2 0.05 -0.25 0.05 -0.35 0.1 L-0.45 0.15 -0.55 0.1 Q-0.6 0.1 -0.6 0.0 L-0.55 -0.1 Q-0.5 -0.15 -0.5 -0.2 L-0.65 -0.3 Q-0.8 -0.4 -0.8 -0.45 L-0.75 -0.6 -0.7 -0.7 -0.75 -0.95 Q-0.75 -1.1 -0.35 -1.5 0.0 -1.9 0.2 -1.95 L0.3 -2.0 0.4 -1.75 Q0.5 -1.5 0.55 -1.5 L0.6 -1.5 0.6 -1.4 0.55 -1.2 0.5 -1.1 0.6 -0.95 0.65 -0.75 0.65 -0.55 0.6 -0.35 0.55 -0.25 0.5 -0.15 0.6 0.1 0.5 0.45 0.6 1.15 0.55 1.35 0.55 1.5 0.4 1.8 0.2 2.05 0.15 2.05 0.0 2.0 -0.2 1.85 -0.1 1.75 -0.1 1.7 0.1 1.6 0.25 1.4 0.3 1.05 0.25 0.9 0.2 0.85" fill="#fae4d3" fill-rule="evenodd" stroke="none"/>
    <path d="M1.0 -2.55 L1.0 -2.95 0.9 -3.25 0.85 -3.4 0.75 -3.45 0.75 -3.5 0.65 -3.6 0.35 -3.7 0.3 -3.7 0.05 -3.65 -0.35 -3.6 Q-0.7 -3.6 -0.9 -3.3 -1.05 -3.05 -1.05 -2.75 L-1.05 -2.3 Q-1.05 -2.1 -1.05 -1.75 L-1.05 -1.5 -1.05 -1.2 Q-1.05 -0.7 -0.9 0.55 -0.7 1.85 -0.7 2.1 L-0.75 2.2 -0.75 2.65 -0.65 3.0 -0.6 3.35 -0.55 3.4 -0.55 3.45 -0.5 3.55 M0.7 2.6 L0.7 1.35 Q0.7 1.1 0.85 -0.05 L0.9 -0.35 0.95 -0.65 1.0 -1.3 0.95 -2.1 1.0 -2.5 1.0 -2.55 M0.7 2.6 L0.7 2.7 0.65 2.9 0.5 3.25 0.5 3.3 0.45 3.45 0.4 3.55" fill="none" stroke="#000000" stroke-linecap="round" stroke-linejoin="round" stroke-opacity="0.4509804" stroke-width="0.1"/>
  </g>
</svg>
