<?xml version="1.0" encoding="UTF-8" standalone="no"?>
<svg xmlns:xlink="http://www.w3.org/1999/xlink" height="3.8px" width="1.5px" xmlns="http://www.w3.org/2000/svg">
  <g transform="matrix(1.0, 0.0, 0.0, 1.0, 0.75, 2.25)">
    <path d="M-0.4 -1.55 L-0.3 -1.5 -0.35 -1.6 -0.3 -1.65 -0.2 -1.6 -0.3 -1.75 -0.25 -1.8 Q-0.2 -1.7 -0.05 -1.75 L0.15 -1.75 -0.15 -1.4 -0.1 -1.4 0.1 -1.55 0.1 -1.5 0.0 -1.4 0.0 -1.4 0.05 -1.4 0.3 -1.65 0.35 -1.6 0.35 -1.6 0.4 -1.5 0.4 -1.3 0.4 -1.1 0.4 -1.0 0.3 -1.0 0.25 -1.05 0.2 -0.95 0.45 -0.85 0.45 -0.85 0.45 -0.8 0.4 -0.85 0.25 -0.85 0.25 -0.8 0.4 -0.75 0.45 -0.75 0.45 -0.7 0.3 -0.7 0.25 -0.65 0.45 -0.65 0.45 -0.55 0.4 -0.6 0.25 -0.45 0.05 -0.35 0.1 -0.3 Q0.25 -0.4 0.3 -0.4 L0.2 -0.3 0.25 -0.25 0.25 -0.3 Q0.3 -0.3 0.4 -0.4 L0.45 -0.4 0.45 0.15 Q0.45 0.25 0.55 0.35 L0.5 0.4 0.45 0.35 0.45 0.4 0.4 0.4 Q0.4 0.35 0.4 0.35 L0.35 0.45 0.25 0.35 0.2 0.4 0.2 0.45 0.15 0.4 0.1 0.45 0.05 0.45 0.0 0.45 -0.2 -0.3 -0.15 -0.4 -0.2 -0.6 -0.3 -0.8 -0.35 -1.05 -0.4 -1.35 -0.4 -1.35 -0.4 -1.55 M-0.7 -0.8 L-0.7 -0.8 -0.7 -1.15 -0.65 -0.75 -0.7 -0.8 M0.05 -0.95 Q0.0 -0.9 -0.05 -0.9 -0.1 -0.9 -0.15 -0.8 L-0.15 -0.8 0.0 -0.8 0.1 -0.85 0.0 -0.85 0.05 -0.95 0.05 -0.95 M0.3 -0.05 L0.2 0.05 0.25 0.1 0.4 0.1 Q0.35 0.0 0.4 -0.1 L0.3 -0.05 M-0.55 -0.7 L-0.55 -0.75 -0.6 -1.05 -0.65 -1.4 -0.65 -1.4 -0.45 -1.25 -0.4 -0.65 -0.45 -0.65 Q-0.5 -0.65 -0.55 -0.7 M-0.15 0.5 L-0.2 0.55 Q-0.25 0.55 -0.3 0.45 L-0.3 0.45 -0.3 0.4 -0.4 0.15 -0.4 0.15 -0.4 0.0 -0.4 -0.1 -0.3 -0.3 -0.15 0.5" fill="#ecd6c9" fill-rule="evenodd" stroke="none"/>
    <path d="M-0.45 -2.1 L-0.35 -2.25 Q-0.05 -2.3 0.25 -2.0 0.25 -1.9 0.3 -1.7 L0.35 -1.6 0.3 -1.65 0.05 -1.4 0.0 -1.4 0.0 -1.4 0.1 -1.5 0.1 -1.55 -0.1 -1.4 -0.15 -1.4 0.15 -1.75 -0.05 -1.75 Q-0.2 -1.7 -0.25 -1.8 L-0.3 -1.75 -0.2 -1.6 -0.3 -1.65 -0.35 -1.6 -0.3 -1.5 -0.4 -1.55 -0.4 -1.65 -0.35 -1.7 Q-0.4 -1.95 -0.45 -2.1 M0.4 -1.3 L0.45 -1.0 0.45 -0.85 0.45 -0.85 0.2 -0.95 0.25 -1.05 0.3 -1.0 0.4 -1.0 0.4 -1.1 0.4 -1.3 M0.45 -0.8 L0.45 -0.75 0.4 -0.75 0.25 -0.8 0.25 -0.85 0.4 -0.85 0.45 -0.8 M0.45 -0.7 L0.45 -0.65 0.25 -0.65 0.3 -0.7 0.45 -0.7 M0.45 -0.55 L0.45 -0.4 0.4 -0.4 Q0.3 -0.3 0.25 -0.3 L0.25 -0.25 0.2 -0.3 0.3 -0.4 Q0.25 -0.4 0.1 -0.3 L0.05 -0.35 0.25 -0.45 0.4 -0.6 0.45 -0.55 M-0.65 -1.7 L-0.55 -1.95 -0.5 -1.65 -0.5 -1.35 -0.45 -1.25 -0.65 -1.4 -0.65 -1.7 M0.05 -0.95 L0.05 -0.95 0.0 -0.85 0.1 -0.85 0.0 -0.8 -0.15 -0.8 -0.15 -0.8 Q-0.1 -0.9 -0.05 -0.9 0.0 -0.9 0.05 -0.95" fill="#b8a397" fill-rule="evenodd" stroke="none"/>
    <path d="M-0.5 0.15 L-0.55 0.0 -0.65 -0.5 -0.7 -0.8 -0.65 -0.75 -0.65 -0.65 -0.55 -0.3 -0.5 0.0 -0.5 0.15 M0.3 -0.05 L0.4 -0.1 Q0.35 0.0 0.4 0.1 L0.25 0.1 0.2 0.05 0.3 -0.05 M-0.4 -1.35 L-0.35 -1.05 -0.3 -0.8 -0.2 -0.6 -0.15 -0.4 -0.2 -0.3 0.0 0.45 0.0 0.6 -0.05 0.55 -0.15 0.2 -0.2 -0.2 -0.2 -0.2 -0.25 -0.25 -0.25 -0.65 -0.3 -0.8 -0.4 -1.15 -0.4 -1.35 M-0.4 -0.65 L-0.35 -0.45 -0.3 -0.3 -0.4 -0.1 -0.4 0.0 -0.4 0.15 Q-0.45 0.0 -0.5 -0.3 L-0.5 -0.5 -0.55 -0.7 Q-0.5 -0.65 -0.45 -0.65 L-0.4 -0.65" fill="#9d98a3" fill-rule="evenodd" stroke="none"/>
    <path d="M0.55 0.35 L0.65 0.45 0.7 0.45 0.7 0.8 0.65 0.75 0.55 0.8 0.55 0.9 0.5 0.9 0.5 1.05 0.45 1.05 0.45 0.95 0.4 0.9 Q0.35 0.95 0.35 1.0 L0.3 0.9 0.35 0.75 0.4 0.55 0.3 0.5 0.3 0.55 0.2 0.45 0.2 0.55 0.25 0.65 0.3 0.95 0.3 1.05 0.25 1.0 0.25 0.95 0.2 1.0 0.2 1.05 Q0.15 1.0 0.15 0.85 L0.1 0.65 0.05 0.65 0.05 0.7 0.0 0.65 -0.05 0.7 0.0 0.75 0.0 0.85 -0.05 0.8 -0.05 0.85 0.1 1.25 Q0.1 1.25 0.05 1.2 L-0.05 1.1 -0.05 1.15 0.05 1.25 -0.15 1.05 -0.15 0.95 Q-0.15 0.9 -0.25 0.8 L-0.3 0.7 -0.35 0.75 -0.3 0.85 -0.35 0.8 -0.35 0.8 -0.4 0.8 -0.2 1.1 -0.3 1.05 -0.35 1.05 -0.35 1.05 -0.25 1.2 -0.35 1.2 -0.4 1.1 -0.4 1.05 -0.45 0.95 -0.4 0.9 -0.4 0.9 -0.45 0.8 -0.45 0.65 -0.45 0.65 -0.35 0.7 -0.4 0.55 -0.4 0.5 -0.35 0.5 -0.35 0.5 -0.3 0.55 -0.3 0.45 -0.3 0.45 Q-0.25 0.55 -0.2 0.55 L-0.15 0.5 -0.15 0.45 -0.05 0.55 0.0 0.6 0.0 0.45 0.05 0.45 0.1 0.45 0.15 0.4 0.2 0.45 0.2 0.4 0.25 0.35 0.35 0.45 0.4 0.35 Q0.4 0.35 0.4 0.4 L0.45 0.4 0.45 0.35 0.5 0.4 0.55 0.35" fill="#ecba8a" fill-rule="evenodd" stroke="none"/>
    <path d="M0.7 0.8 L0.7 0.85 0.65 1.15 Q0.65 1.3 0.45 1.45 L0.15 1.5 0.05 1.55 -0.15 1.45 -0.3 1.25 -0.35 1.2 -0.25 1.2 -0.35 1.05 -0.35 1.05 -0.3 1.05 -0.2 1.1 -0.4 0.8 -0.35 0.8 -0.35 0.8 -0.3 0.85 -0.35 0.75 -0.3 0.7 -0.25 0.8 Q-0.15 0.9 -0.15 0.95 L-0.15 1.05 0.05 1.25 -0.05 1.15 -0.05 1.1 0.05 1.2 Q0.1 1.25 0.1 1.25 L-0.05 0.85 -0.05 0.8 0.0 0.85 0.0 0.75 -0.05 0.7 0.0 0.65 0.05 0.7 0.05 0.65 0.1 0.65 0.15 0.85 Q0.15 1.0 0.2 1.05 L0.2 1.0 0.25 0.95 0.25 1.0 0.3 1.05 0.3 0.95 0.25 0.65 0.2 0.55 0.2 0.45 0.3 0.55 0.3 0.5 0.4 0.55 0.35 0.75 0.3 0.9 0.35 1.0 Q0.35 0.95 0.4 0.9 L0.45 0.95 0.45 1.05 0.5 1.05 0.5 0.9 0.55 0.9 0.55 0.8 0.65 0.75 0.7 0.8" fill="#c49466" fill-rule="evenodd" stroke="none"/>
    <path d="M-0.45 -2.1 Q-0.4 -1.95 -0.35 -1.7 L-0.4 -1.65 -0.4 -1.55 -0.4 -1.35 -0.4 -1.35 -0.4 -1.15 -0.3 -0.8 -0.25 -0.65 -0.25 -0.25 -0.2 -0.2 -0.2 -0.2 -0.15 0.2 -0.05 0.55 -0.15 0.45 -0.15 0.5 -0.3 -0.3 -0.35 -0.45 -0.4 -0.65 -0.45 -1.25 -0.5 -1.35 -0.5 -1.65 -0.55 -1.95 -0.55 -2.0 -0.45 -2.1 M-0.4 0.5 L-0.4 0.35 -0.5 0.15 -0.5 0.0 -0.55 -0.3 -0.65 -0.65 -0.65 -0.75 -0.7 -1.15 -0.7 -1.5 -0.7 -1.55 -0.65 -1.7 -0.65 -1.4 -0.65 -1.4 -0.6 -1.05 -0.55 -0.75 -0.55 -0.7 -0.5 -0.5 -0.5 -0.3 Q-0.45 0.0 -0.4 0.15 L-0.4 0.15 -0.3 0.4 -0.3 0.45 -0.3 0.55 -0.35 0.5 -0.35 0.5 -0.4 0.5" fill="#4f5b7e" fill-rule="evenodd" stroke="none"/>
    <path d="M0.35 -1.6 L0.3 -1.7 Q0.25 -1.9 0.25 -2.0 -0.05 -2.3 -0.35 -2.25 L-0.45 -2.1 -0.55 -2.0 -0.55 -1.95 -0.65 -1.7 -0.7 -1.55 -0.7 -1.5 -0.7 -1.15 -0.7 -0.8 -0.7 -0.8 -0.65 -0.5 -0.55 0.0 -0.5 0.15 -0.4 0.35 -0.4 0.5 -0.4 0.55 -0.35 0.7 -0.45 0.65 -0.45 0.65 -0.45 0.8 -0.4 0.9 -0.4 0.9 -0.45 0.95 -0.4 1.05 -0.4 1.1 -0.35 1.2 -0.3 1.25 -0.15 1.45 0.05 1.55 0.15 1.5 0.45 1.45 Q0.65 1.3 0.65 1.15 L0.7 0.85 0.7 0.8 0.7 0.45 0.65 0.45 0.55 0.35 Q0.45 0.25 0.45 0.15 L0.45 -0.4 0.45 -0.55 0.45 -0.65 0.45 -0.7 0.45 -0.75 0.45 -0.8 0.45 -0.85 0.45 -1.0 0.4 -1.3 0.4 -1.5 0.35 -1.6 0.35 -1.6 Z" fill="none" stroke="#000000" stroke-linecap="round" stroke-linejoin="round" stroke-opacity="0.4509804" stroke-width="1.0"/>
  </g>
</svg>
