<?xml version="1.0" encoding="UTF-8" standalone="no"?>
<svg xmlns:xlink="http://www.w3.org/1999/xlink" height="1.3px" width="1.2px" xmlns="http://www.w3.org/2000/svg">
  <g transform="matrix(1.0, 0.0, 0.0, 1.0, 0.6, 0.65)">
    <path d="M0.6 -0.1 L0.45 0.15 0.5 0.25 0.55 0.35 0.45 0.55 0.35 0.6 0.3 0.65 0.2 0.55 0.1 0.6 0.0 0.55 0.0 0.5 -0.05 0.55 -0.05 0.55 -0.2 0.5 -0.25 0.55 -0.3 0.5 -0.4 0.45 -0.4 0.45 -0.45 0.35 -0.4 0.3 -0.4 0.3 -0.35 0.25 -0.3 0.3 -0.3 0.3 -0.25 0.3 -0.25 0.25 -0.15 0.25 -0.1 0.25 -0.05 0.25 -0.05 0.2 0.05 0.2 0.1 0.2 0.15 0.25 0.15 0.2 0.2 0.1 0.15 0.05 0.2 -0.05 0.2 -0.05 0.05 0.0 -0.15 0.05 -0.2 0.05 -0.2 0.05 -0.25 0.15 -0.4 0.25 -0.5 0.15 -0.5 0.15 -0.55 0.05 -0.55 0.0 -0.6 -0.2 -0.6 -0.3 -0.6 -0.3 -0.4 -0.4 -0.3 -0.4 -0.3 -0.5 -0.25 -0.55 -0.1 -0.6 0.0 -0.65 0.2 -0.6 0.35 -0.45 0.45 -0.35 0.45 -0.3 0.6 -0.1 M-0.4 -0.15 L-0.4 -0.15 -0.4 -0.15" fill="#f27373" fill-rule="evenodd" stroke="none"/>
  </g>
</svg>
