<?xml version="1.0" encoding="UTF-8" standalone="no"?>
<svg xmlns:xlink="http://www.w3.org/1999/xlink" height="1.35px" width="1.3px" xmlns="http://www.w3.org/2000/svg">
  <g transform="matrix(1.0, 0.0, 0.0, 1.0, 0.65, 0.65)">
    <path d="M-0.1 -0.6 L-0.15 -0.6 -0.2 -0.5 -0.1 -0.35 -0.05 -0.3 -0.05 -0.3 0.05 -0.3 0.2 -0.3 0.25 -0.3 0.25 -0.25 0.3 -0.3 0.35 -0.35 0.35 -0.45 0.45 -0.35 0.45 -0.3 0.45 -0.3 0.4 -0.25 0.4 -0.2 Q0.35 -0.15 0.3 -0.15 L0.25 -0.15 0.2 -0.15 0.2 -0.2 0.15 -0.25 0.1 -0.2 Q0.05 -0.2 0.05 -0.2 -0.05 -0.2 -0.15 -0.25 L-0.2 -0.3 -0.2 -0.3 -0.25 -0.4 -0.25 -0.55 -0.1 -0.6 M0.25 0.35 L0.3 0.35 0.35 0.35 0.3 0.45 0.25 0.45 0.15 0.45 0.1 0.4 0.2 0.4 0.25 0.35 M0.1 0.35 L0.1 0.5 0.1 0.55 0.05 0.55 0.0 0.55 0.0 0.5 -0.05 0.55 -0.05 0.55 -0.2 0.5 -0.25 0.55 -0.3 0.5 -0.4 0.45 -0.4 0.45 -0.3 0.4 -0.3 0.3 -0.3 0.3 -0.25 0.3 -0.3 0.35 -0.3 0.35 -0.25 0.4 -0.15 0.5 -0.05 0.45 -0.05 0.45 -0.05 0.35 0.0 0.4 0.05 0.35 0.1 0.35 M-0.5 -0.3 L-0.55 -0.3 -0.55 0.0 -0.5 -0.05 -0.45 -0.1 -0.5 -0.2 -0.5 -0.3 M-0.5 0.15 L-0.55 0.05 -0.55 0.0 -0.6 -0.2 -0.6 -0.2 -0.6 -0.3 -0.6 -0.3 -0.4 -0.4 -0.3 -0.4 -0.35 -0.3 -0.4 -0.3 -0.4 -0.2 -0.4 -0.15 -0.35 0.0 -0.35 0.0 -0.4 0.1 Q-0.45 0.1 -0.5 0.15" fill="#251d17" fill-rule="evenodd" stroke="none"/>
    <path d="M0.35 -0.45 L0.35 -0.35 0.3 -0.3 0.25 -0.25 0.25 -0.3 0.2 -0.3 0.05 -0.3 -0.05 -0.3 -0.05 -0.3 -0.1 -0.35 -0.2 -0.5 -0.15 -0.6 -0.1 -0.6 0.0 -0.65 0.2 -0.6 0.35 -0.45 M0.2 -0.05 L0.3 -0.05 0.35 -0.05 0.35 0.0 0.4 0.1 0.4 0.15 0.35 0.2 0.3 0.25 0.25 0.3 0.2 0.3 0.25 0.35 0.2 0.4 0.1 0.4 0.15 0.35 0.1 0.35 0.05 0.35 0.0 0.4 -0.05 0.35 -0.05 0.45 -0.05 0.45 -0.15 0.5 -0.25 0.4 -0.3 0.35 -0.3 0.35 -0.25 0.3 -0.25 0.25 -0.15 0.25 -0.1 0.25 -0.05 0.25 -0.05 0.2 0.05 0.2 0.1 0.2 0.15 0.25 0.15 0.2 0.2 0.1 0.15 0.05 0.2 -0.05 M-0.5 -0.3 L-0.5 -0.2 -0.45 -0.1 -0.5 -0.05 -0.55 0.0 -0.55 -0.3 -0.5 -0.3 M-0.4 0.45 L-0.45 0.35 -0.4 0.3 -0.4 0.3 -0.35 0.25 -0.3 0.3 -0.3 0.4 -0.4 0.45" fill="#31271f" fill-rule="evenodd" stroke="none"/>
    <path d="M-0.25 -0.55 L-0.25 -0.4 -0.2 -0.3 -0.2 -0.3 -0.15 -0.25 Q-0.05 -0.2 0.05 -0.2 0.05 -0.2 0.1 -0.2 L0.15 -0.25 0.2 -0.2 0.2 -0.15 0.25 -0.15 0.3 -0.15 Q0.35 -0.15 0.4 -0.2 L0.4 -0.25 0.45 -0.3 0.45 -0.3 0.6 -0.1 0.45 0.15 0.5 0.25 0.55 0.35 0.45 0.55 0.35 0.6 0.3 0.65 0.2 0.55 0.1 0.6 0.0 0.55 0.05 0.55 0.1 0.55 0.1 0.5 0.1 0.35 0.15 0.35 0.1 0.4 0.15 0.45 0.25 0.45 0.3 0.45 0.35 0.35 0.3 0.35 0.25 0.35 0.2 0.3 0.25 0.3 0.3 0.25 0.35 0.2 0.4 0.15 0.4 0.1 0.35 0.0 0.35 -0.05 0.3 -0.05 0.2 -0.05 0.2 -0.05 0.05 0.0 -0.15 0.05 -0.2 0.05 -0.2 0.05 -0.25 0.15 -0.4 0.25 -0.5 0.15 -0.5 0.15 Q-0.45 0.1 -0.4 0.1 L-0.35 0.0 -0.35 0.0 -0.4 -0.15 -0.4 -0.2 -0.4 -0.3 -0.35 -0.3 -0.3 -0.4 -0.3 -0.5 -0.25 -0.55" fill="#100c08" fill-rule="evenodd" stroke="none"/>
    <path d="M0.45 -0.3 L0.45 -0.35 0.35 -0.45 M-0.5 0.15 L-0.5 0.15 -0.4 0.25 -0.25 0.15 -0.2 0.05 -0.2 0.05 -0.15 0.05 0.05 0.0 0.2 -0.05 0.2 -0.05 0.15 0.05 0.2 0.1 0.15 0.2 0.15 0.25 0.1 0.2 0.05 0.2 -0.05 0.2 -0.05 0.25 -0.1 0.25 -0.15 0.25 -0.25 0.25 -0.25 0.3 -0.3 0.3 -0.35 0.25 -0.4 0.3 -0.4 0.3 -0.45 0.35 -0.4 0.45 -0.4 0.45 -0.3 0.5 -0.25 0.55 -0.2 0.5 -0.05 0.55 -0.05 0.55 0.0 0.5 0.0 0.55 0.1 0.6 0.2 0.55 0.3 0.65 0.35 0.6 0.45 0.55 0.55 0.35 0.5 0.25 0.45 0.15 0.6 -0.1 0.45 -0.3 M-0.6 -0.2 L-0.6 -0.2 -0.55 0.0 -0.55 0.05 -0.5 0.15 M-0.3 0.3 L-0.3 0.3 Z" fill="none" stroke="#000000" stroke-linecap="round" stroke-linejoin="round" stroke-opacity="0.4509804" stroke-width="0.1"/>
  </g>
</svg>
