<?xml version="1.0" encoding="UTF-8" standalone="no"?>
<svg xmlns:xlink="http://www.w3.org/1999/xlink" height="0.9px" width="1.05px" xmlns="http://www.w3.org/2000/svg">
  <g transform="matrix(1.0, 0.0, 0.0, 1.0, 0.7, 0.8)">
    <path d="M0.05 -0.75 L0.1 -0.7 0.1 -0.7 0.15 -0.7 0.25 -0.65 0.3 -0.65 0.3 -0.55 0.25 -0.4 0.25 -0.35 0.1 -0.45 0.0 -0.4 -0.05 -0.4 -0.1 -0.4 Q-0.15 -0.3 -0.1 -0.3 -0.15 -0.25 -0.2 -0.25 L-0.2 -0.3 -0.25 -0.2 -0.25 -0.15 -0.3 -0.15 -0.35 -0.2 -0.4 -0.2 -0.45 -0.25 -0.4 -0.3 Q-0.35 -0.25 -0.35 -0.25 -0.35 -0.3 -0.4 -0.3 L-0.45 -0.35 -0.5 -0.3 -0.5 -0.25 -0.55 -0.25 -0.55 -0.4 -0.55 -0.45 -0.5 -0.45 -0.35 -0.55 -0.15 -0.7 -0.05 -0.75 Q-0.1 -0.75 -0.1 -0.6 L-0.1 -0.55 -0.05 -0.55 0.0 -0.5 Q0.05 -0.5 0.05 -0.6 L0.1 -0.7 0.05 -0.75 M-0.1 -0.45 L-0.1 -0.5 -0.15 -0.55 -0.25 -0.4 -0.25 -0.35 -0.2 -0.35 -0.1 -0.45" fill="#2a1b12" fill-rule="evenodd" stroke="none"/>
    <path d="M0.05 -0.75 L0.1 -0.7 0.05 -0.6 Q0.05 -0.5 0.0 -0.5 L-0.05 -0.55 -0.1 -0.55 -0.1 -0.6 Q-0.1 -0.75 -0.05 -0.75 L-0.05 -0.75 0.05 -0.75 M-0.1 -0.45 L-0.2 -0.35 -0.25 -0.35 -0.25 -0.4 -0.15 -0.55 -0.1 -0.5 -0.1 -0.45" fill="#412a1c" fill-rule="evenodd" stroke="none"/>
    <path d="M-0.55 -0.4 L-0.55 -0.25 -0.5 -0.25 -0.5 -0.3 -0.45 -0.35 -0.4 -0.3 Q-0.35 -0.3 -0.35 -0.25 -0.35 -0.25 -0.4 -0.3 L-0.45 -0.25 -0.4 -0.2 -0.35 -0.2 -0.3 -0.15 -0.25 -0.15 -0.25 -0.2 -0.2 -0.3 -0.2 -0.25 Q-0.15 -0.25 -0.1 -0.3 -0.15 -0.3 -0.1 -0.4 L-0.05 -0.4 0.0 -0.4 0.1 -0.45 0.25 -0.35 0.15 -0.35 Q-0.1 -0.3 -0.1 -0.15 L-0.1 -0.05 Q-0.1 0.05 -0.2 0.05 -0.35 0.05 -0.45 -0.05 L-0.6 -0.15 Q-0.6 -0.2 -0.6 -0.25 -0.6 -0.4 -0.55 -0.4" fill="#1e130d" fill-rule="evenodd" stroke="none"/>
    <path d="M0.25 -0.35 L0.25 -0.4 0.3 -0.55 0.3 -0.65 0.25 -0.65 0.15 -0.7 0.1 -0.7 0.1 -0.7 0.05 -0.75 -0.05 -0.75 -0.15 -0.7 M-0.5 -0.45 L-0.55 -0.45 -0.55 -0.4 Q-0.6 -0.4 -0.6 -0.25 -0.6 -0.2 -0.6 -0.15 L-0.45 -0.05 Q-0.35 0.05 -0.2 0.05 -0.1 0.05 -0.1 -0.05 L-0.1 -0.15 Q-0.1 -0.3 0.15 -0.35 L0.25 -0.35 M-0.05 -0.75 L-0.05 -0.75 Z" fill="none" stroke="#000000" stroke-linecap="round" stroke-linejoin="round" stroke-opacity="0.4509804" stroke-width="0.1"/>
  </g>
</svg>
