<?xml version="1.0" encoding="UTF-8" standalone="no"?>
<svg xmlns:xlink="http://www.w3.org/1999/xlink" height="4.75px" width="2.1px" xmlns="http://www.w3.org/2000/svg">
  <g transform="matrix(1.0, 0.0, 0.0, 1.0, 1.0, 2.4)">
    <path d="M0.15 -2.35 L0.25 -2.4 0.25 -2.4 0.4 -2.4 0.45 -2.4 0.5 -2.4 0.55 -2.35 0.6 -2.35 0.7 -2.3 0.7 -2.25 0.75 -2.2 0.8 -2.15 0.85 -2.05 0.85 -2.05 0.9 -2.0 0.9 -2.0 0.9 -1.85 0.85 -1.8 0.85 -1.8 0.8 -1.8 0.8 -1.8 0.7 -1.85 0.7 -1.9 0.6 -1.95 Q0.55 -1.95 0.5 -2.0 L0.4 -2.0 Q0.35 -2.05 0.35 -2.0 L0.3 -1.95 0.3 -1.95 0.35 -1.9 0.5 -1.7 0.5 -1.7 0.55 -1.6 0.55 -1.5 Q0.55 -1.5 0.5 -1.5 L0.5 -1.5 0.4 -1.5 0.35 -1.5 Q0.3 -1.45 0.35 -1.45 L0.35 -1.45 0.45 -1.35 0.5 -1.25 0.5 -1.25 0.55 -1.25 0.5 -1.2 0.45 -1.1 0.45 -1.05 0.4 -1.05 0.3 -1.05 0.25 -1.05 0.2 -1.1 0.15 -1.1 Q0.1 -1.05 0.05 -1.1 L0.0 -1.2 0.0 -1.25 -0.05 -1.3 -0.1 -1.3 -0.1 -1.35 -0.15 -1.45 -0.15 -1.45 -0.2 -1.4 -0.25 -1.45 -0.3 -1.5 -0.2 -1.9 Q-0.2 -2.05 -0.05 -2.2 L0.15 -2.35 M-0.9 1.1 L-0.85 0.75 -0.75 0.4 -0.65 0.3 -0.65 0.35 -0.55 0.4 -0.5 0.4 -0.45 0.45 -0.4 0.45 -0.15 0.55 Q-0.1 0.55 -0.1 0.65 L-0.15 0.7 -0.15 0.7 -0.3 0.75 -0.35 0.8 -0.3 0.85 -0.3 0.85 -0.25 0.9 -0.2 0.9 -0.15 0.85 -0.1 0.9 -0.05 0.95 0.0 1.0 0.0 1.1 -0.1 1.1 Q-0.15 1.1 -0.2 1.15 L-0.3 1.1 -0.3 1.05 Q-0.35 1.05 -0.4 1.1 L-0.4 1.15 -0.35 1.2 -0.35 1.2 Q-0.3 1.25 -0.3 1.3 L-0.3 1.3 -0.25 1.4 -0.25 1.45 -0.2 1.45 -0.15 1.45 -0.15 1.5 -0.15 1.6 -0.2 1.6 -0.25 1.6 Q-0.3 1.6 -0.35 1.7 L-0.35 1.7 -0.45 1.75 -0.5 1.75 -0.55 1.7 -0.6 1.7 -0.65 1.65 -0.65 1.55 -0.65 1.5 -0.6 1.45 -0.6 1.45 -0.65 1.35 -0.7 1.4 -0.75 1.4 -0.75 1.3 -0.7 1.25 -0.7 1.25 -0.7 1.2 -0.75 1.15 -0.75 1.15 -0.9 1.1 -0.9 1.1 M-0.4 -0.8 L-0.35 -0.95 -0.3 -1.15 -0.3 -1.1 -0.2 -1.0 -0.2 -1.0 -0.15 -1.0 -0.05 -0.95 0.0 -0.9 0.0 -0.9 0.05 -0.85 0.2 -0.8 Q0.2 -0.75 0.2 -0.7 L0.15 -0.7 0.1 -0.7 0.05 -0.7 0.0 -0.65 -0.05 -0.6 -0.1 -0.6 -0.15 -0.65 -0.2 -0.7 -0.3 -0.75 -0.35 -0.8 -0.4 -0.8" fill="#3f3e3a" fill-rule="evenodd" stroke="none"/>
    <path d="M-0.3 -1.5 L-0.25 -1.45 -0.2 -1.4 -0.15 -1.45 -0.15 -1.45 -0.1 -1.35 -0.1 -1.3 -0.05 -1.3 0.0 -1.25 0.0 -1.2 0.05 -1.1 Q0.1 -1.05 0.15 -1.1 L0.2 -1.1 0.25 -1.05 0.3 -1.05 0.4 -1.05 0.45 -1.05 0.45 -1.1 0.5 -1.2 0.55 -1.25 0.5 -1.25 0.5 -1.25 0.45 -1.35 0.35 -1.45 0.35 -1.45 Q0.3 -1.45 0.35 -1.5 L0.4 -1.5 0.5 -1.5 0.5 -1.5 Q0.55 -1.5 0.55 -1.5 L0.55 -1.6 0.5 -1.7 0.5 -1.7 0.35 -1.9 0.3 -1.95 0.3 -1.95 0.35 -2.0 Q0.35 -2.05 0.4 -2.0 L0.5 -2.0 Q0.55 -1.95 0.6 -1.95 L0.7 -1.9 0.7 -1.85 0.8 -1.8 0.8 -1.8 0.85 -1.8 0.85 -1.8 0.9 -1.85 0.9 -2.0 0.9 -1.95 0.95 -1.9 0.95 -1.8 0.95 -1.8 1.0 -1.7 Q1.05 -1.55 1.05 -1.35 L1.0 -1.0 0.9 -0.6 0.9 -0.45 0.65 -0.2 0.55 -0.15 0.55 -0.15 0.5 -0.1 0.5 -0.1 0.45 -0.05 0.4 -0.05 0.25 -0.1 0.2 -0.1 0.05 -0.15 0.05 -0.15 0.0 -0.2 0.0 -0.2 -0.15 -0.25 -0.15 -0.25 -0.25 -0.3 -0.25 -0.3 -0.3 -0.35 -0.3 -0.4 -0.4 -0.45 -0.4 -0.5 -0.4 -0.8 -0.35 -0.8 -0.3 -0.75 -0.2 -0.7 -0.15 -0.65 -0.1 -0.6 -0.05 -0.6 0.0 -0.65 0.05 -0.7 0.1 -0.7 0.15 -0.7 0.2 -0.7 Q0.2 -0.75 0.2 -0.8 L0.05 -0.85 0.0 -0.9 0.0 -0.9 -0.05 -0.95 -0.15 -1.0 -0.2 -1.0 -0.2 -1.0 -0.3 -1.1 -0.3 -1.15 -0.3 -1.5 M0.45 0.25 Q0.5 0.45 0.45 0.65 L0.35 0.95 0.3 1.35 0.25 1.7 0.2 1.95 0.05 2.1 0.0 2.15 -0.05 2.2 -0.05 2.2 -0.15 2.25 -0.15 2.3 -0.2 2.3 -0.2 2.35 -0.25 2.35 -0.25 2.35 -0.3 2.35 -0.35 2.35 -0.35 2.3 -0.4 2.3 -0.4 2.3 -0.45 2.3 -0.45 2.3 -0.55 2.25 -0.6 2.25 -0.65 2.2 -0.65 2.2 -0.7 2.2 -0.7 2.15 -0.75 2.15 -0.75 2.1 -0.8 2.1 -0.85 2.0 -0.85 1.95 -0.9 1.9 -0.95 1.6 -0.9 1.2 -0.9 1.1 -0.9 1.1 -0.75 1.15 -0.75 1.15 -0.7 1.2 -0.7 1.25 -0.7 1.25 -0.75 1.3 -0.75 1.4 -0.7 1.4 -0.65 1.35 -0.6 1.45 -0.6 1.45 -0.65 1.5 -0.65 1.55 -0.65 1.65 -0.6 1.7 -0.55 1.7 -0.5 1.75 -0.45 1.75 -0.35 1.7 -0.35 1.7 Q-0.3 1.6 -0.25 1.6 L-0.2 1.6 -0.15 1.6 -0.15 1.5 -0.15 1.45 -0.2 1.45 -0.25 1.45 -0.25 1.4 -0.3 1.3 -0.3 1.3 Q-0.3 1.25 -0.35 1.2 L-0.35 1.2 -0.4 1.15 -0.4 1.1 Q-0.35 1.05 -0.3 1.05 L-0.3 1.1 -0.2 1.15 Q-0.15 1.1 -0.1 1.1 L0.0 1.1 0.0 1.0 -0.05 0.95 -0.1 0.9 -0.15 0.85 -0.2 0.9 -0.25 0.9 -0.3 0.85 -0.3 0.85 -0.35 0.8 -0.3 0.75 -0.15 0.7 -0.15 0.7 -0.1 0.65 Q-0.1 0.55 -0.15 0.55 L-0.4 0.45 -0.45 0.45 -0.5 0.4 -0.55 0.4 -0.65 0.35 -0.65 0.3 -0.55 0.0 -0.55 0.05 -0.5 0.1 -0.5 0.1 -0.45 0.15 -0.4 0.15 -0.35 0.2 -0.3 0.2 -0.3 0.25 -0.25 0.3 -0.25 0.3 -0.1 0.3 -0.1 0.3 -0.05 0.3 -0.05 0.3 0.05 0.35 0.1 0.35 0.2 0.35 0.25 0.35 0.3 0.35 0.4 0.3 0.45 0.25" fill="#20201e" fill-rule="evenodd" stroke="none"/>
    <path d="M0.05 -0.15 L0.05 -0.1 0.0 0.05 0.0 0.05 -0.05 0.05 -0.05 0.05 -0.05 0.0 -0.05 -0.05 -0.05 -0.05 -0.1 -0.15 -0.15 -0.1 -0.2 -0.15 -0.2 -0.1 -0.2 0.0 -0.3 0.0 -0.3 0.0 -0.3 -0.1 -0.3 -0.25 -0.25 -0.3 -0.25 -0.3 -0.15 -0.25 -0.15 -0.25 0.0 -0.2 0.0 -0.2 0.05 -0.15 0.05 -0.15" fill="#e7e1dc" fill-rule="evenodd" stroke="none"/>
    <path d="M0.55 -0.15 L0.5 0.1 0.35 0.15 0.25 0.15 0.15 0.15 0.1 0.15 Q0.1 0.1 0.05 0.1 L0.0 0.1 0.0 0.05 0.0 0.05 0.05 -0.1 0.05 -0.15 0.2 -0.1 0.25 -0.1 0.4 -0.05 0.45 -0.05 0.5 -0.1 0.5 -0.1 0.55 -0.15 0.55 -0.15 M-0.5 -0.2 L-0.45 -0.5 -0.4 -0.5 -0.4 -0.45 -0.3 -0.4 -0.3 -0.35 -0.25 -0.3 -0.25 -0.3 -0.25 -0.3 -0.3 -0.25 -0.3 -0.1 -0.3 -0.15 -0.35 -0.15 -0.35 -0.05 -0.4 -0.05 -0.45 -0.1 -0.4 -0.15 -0.4 -0.15 -0.45 -0.2 -0.5 -0.2 -0.5 -0.2 M-0.2 -0.1 L-0.2 -0.15 -0.15 -0.1 -0.1 -0.15 -0.05 -0.05 -0.05 -0.05 -0.05 0.0 -0.05 0.05 -0.15 0.0 -0.15 -0.05 -0.2 -0.1" fill="#483025" fill-rule="evenodd" stroke="none"/>
    <path d="M0.5 0.1 L0.45 0.25 0.4 0.3 0.3 0.35 0.25 0.35 0.2 0.35 0.1 0.35 0.05 0.35 -0.05 0.3 -0.05 0.3 -0.05 0.2 0.0 0.1 0.0 0.1 0.05 0.1 Q0.1 0.1 0.1 0.15 L0.15 0.15 0.25 0.15 0.35 0.15 0.5 0.1 M-0.55 0.0 L-0.55 -0.15 -0.5 -0.2 -0.5 -0.2 -0.45 -0.2 -0.4 -0.15 -0.4 -0.15 -0.45 -0.1 -0.4 -0.05 -0.35 -0.05 -0.35 -0.15 -0.3 -0.15 -0.3 -0.1 -0.3 0.0 -0.3 0.05 -0.35 0.1 -0.35 0.15 -0.35 0.2 -0.4 0.15 -0.45 0.15 -0.5 0.1 -0.5 0.1 -0.55 0.05 -0.55 0.0 M-0.2 0.0 L-0.2 -0.1 -0.15 -0.05 -0.15 0.0 -0.05 0.05 -0.1 0.05 -0.1 0.15 -0.15 0.2 -0.2 0.2 -0.2 0.15 -0.25 0.1 -0.25 0.1 -0.2 0.0" fill="#774832" fill-rule="evenodd" stroke="none"/>
    <path d="M-0.3 0.0 L-0.3 0.0 -0.2 0.0 -0.25 0.1 -0.25 0.1 -0.2 0.15 -0.2 0.2 -0.15 0.2 -0.1 0.15 -0.1 0.05 -0.05 0.05 -0.05 0.05 0.0 0.05 0.0 0.1 0.0 0.1 -0.05 0.2 -0.05 0.3 -0.1 0.3 -0.1 0.3 -0.25 0.3 -0.25 0.3 -0.3 0.25 -0.3 0.2 -0.35 0.2 -0.35 0.15 -0.35 0.1 -0.3 0.05 -0.3 0.0" fill="#c6bdb2" fill-rule="evenodd" stroke="none"/>
    <path d="M0.15 -2.35 L-0.05 -2.2 Q-0.2 -2.05 -0.2 -1.9 L-0.3 -1.5 -0.3 -1.15 -0.35 -0.95 -0.4 -0.8 -0.4 -0.5 -0.45 -0.5 -0.5 -0.2 -0.55 -0.15 -0.55 0.0 -0.65 0.3 -0.75 0.4 -0.85 0.75 -0.9 1.1 -0.9 1.2 -0.95 1.6 -0.9 1.9 M1.0 -1.7 Q1.05 -1.55 1.05 -1.35 L1.0 -1.0 0.9 -0.6 0.9 -0.45 0.65 -0.2 0.55 -0.15 0.5 0.1 0.45 0.25 Q0.5 0.45 0.45 0.65 L0.35 0.95 0.3 1.35 0.25 1.7 0.2 1.95 0.05 2.1" fill="none" stroke="#000000" stroke-linecap="round" stroke-linejoin="round" stroke-opacity="0.4509804" stroke-width="0.1"/>
  </g>
</svg>
