<?xml version="1.0" encoding="UTF-8" standalone="no"?>
<svg xmlns:xlink="http://www.w3.org/1999/xlink" height="4.9px" width="2.45px" xmlns="http://www.w3.org/2000/svg">
  <g transform="matrix(1.0, 0.0, 0.0, 1.0, 1.2, 2.6)">
    <path d="M1.2 -1.05 L1.15 -0.85 1.15 -0.85 Q1.05 -0.85 1.0 -0.85 L0.95 -1.05 0.95 -1.15 0.95 -1.15 0.9 -1.2 0.95 -1.25 1.0 -1.25 1.1 -1.0 1.2 -1.05 1.2 -1.05 M-0.3 -1.95 Q-0.25 -1.9 -0.1 -1.9 L-0.1 -1.85 -0.25 -1.8 Q-0.3 -1.85 -0.3 -1.95 M0.05 -1.9 L0.15 -1.95 0.25 -2.0 0.3 -2.05 0.3 -2.1 0.2 -2.0 Q0.15 -2.0 0.15 -2.1 0.15 -2.15 0.3 -2.2 L0.45 -2.2 0.45 -2.2 0.35 -2.0 0.2 -1.85 0.05 -1.8 0.05 -1.9 M0.55 -1.3 L0.6 -1.35 0.65 -1.3 0.65 -1.3 0.65 -1.15 0.55 -1.15 0.5 -1.1 0.5 -1.25 0.5 -1.3 0.55 -1.3 M0.15 -1.25 L0.15 -1.35 0.3 -1.3 0.35 -1.25 0.25 -1.1 0.15 -1.25 M-0.3 -1.4 L-0.35 -1.4 Q-0.5 -1.35 -0.5 -1.1 -0.5 -0.9 -0.4 -0.85 L-0.3 -0.8 -0.3 -0.75 Q-0.4 -0.7 -0.5 -0.85 -0.6 -0.95 -0.6 -1.1 L-0.55 -1.35 -0.45 -1.5 -0.35 -1.45 -0.3 -1.4" fill="#cdb565" fill-rule="evenodd" stroke="none"/>
    <path d="M-0.1 -2.15 L-0.05 -2.15 0.15 -2.25 0.3 -2.35 0.4 -2.35 0.5 -2.35 0.6 -2.4 0.6 -2.4 0.65 -2.45 0.75 -2.55 0.85 -2.5 0.85 -2.5 0.9 -2.45 1.05 -2.3 Q1.15 -2.15 1.2 -1.85 L1.2 -1.75 1.05 -1.65 Q1.0 -1.65 0.95 -1.7 0.95 -1.75 0.95 -1.85 L0.95 -2.0 0.9 -1.95 0.9 -2.0 0.85 -2.0 0.9 -2.1 0.9 -2.15 0.85 -2.2 Q0.85 -2.2 0.8 -2.25 L0.8 -2.3 0.85 -2.3 0.8 -2.3 0.8 -2.4 0.75 -2.4 0.7 -2.4 0.75 -2.15 0.8 -2.0 0.75 -1.9 0.8 -1.75 0.95 -1.6 0.9 -1.5 0.95 -1.45 0.95 -1.4 0.9 -1.3 0.95 -1.25 0.95 -1.25 0.9 -1.2 0.95 -1.15 0.95 -1.15 0.95 -1.05 Q0.95 -0.85 0.85 -0.8 0.75 -0.8 0.65 -0.85 L0.6 -0.85 Q0.5 -0.9 0.55 -1.0 L0.55 -1.05 0.6 -1.1 0.6 -1.1 0.65 -1.05 0.7 -1.2 0.65 -1.3 0.65 -1.3 0.6 -1.35 0.55 -1.3 0.5 -1.4 0.35 -1.45 0.35 -1.4 Q0.3 -1.45 0.3 -1.5 0.25 -1.5 0.2 -1.55 L0.1 -1.65 0.15 -1.75 0.2 -1.7 Q0.2 -1.8 0.3 -1.9 L0.4 -1.9 0.4 -1.85 0.35 -1.8 0.3 -1.7 0.35 -1.7 0.4 -1.7 Q0.55 -1.75 0.55 -2.0 L0.5 -2.2 0.45 -2.2 0.3 -2.2 Q0.15 -2.15 0.15 -2.1 0.15 -2.0 0.2 -2.0 L0.3 -2.1 0.3 -2.05 0.25 -2.0 0.15 -1.95 0.05 -1.9 -0.1 -1.9 Q-0.25 -1.9 -0.3 -1.95 L-0.35 -2.0 -0.3 -2.05 -0.35 -2.05 -0.35 -2.05 -0.35 -2.15 -0.25 -2.2 -0.1 -2.05 -0.1 -2.15" fill="#642929" fill-rule="evenodd" stroke="none"/>
    <path d="M-0.6 -0.75 Q-0.75 -0.9 -0.75 -1.15 L-0.75 -1.3 -0.7 -1.2 -0.65 -1.25 -0.6 -1.8 -0.45 -2.45 -0.45 -2.45 -0.55 -1.75 Q-0.55 -1.55 -0.45 -1.6 -0.45 -1.6 -0.4 -1.65 -0.3 -1.75 -0.3 -1.8 L-0.35 -1.85 -0.35 -1.85 -0.4 -1.8 Q-0.4 -1.75 -0.45 -1.8 L-0.45 -1.95 -0.35 -2.05 -0.35 -2.05 -0.3 -2.05 -0.35 -2.0 -0.3 -1.95 Q-0.3 -1.85 -0.25 -1.8 L-0.1 -1.85 -0.1 -1.9 0.05 -1.9 0.05 -1.8 0.2 -1.85 0.35 -2.0 0.45 -2.2 0.45 -2.2 0.5 -2.2 0.55 -2.0 Q0.55 -1.75 0.4 -1.7 L0.35 -1.7 0.3 -1.7 0.35 -1.8 0.4 -1.85 0.4 -1.9 0.3 -1.9 Q0.2 -1.8 0.2 -1.7 L0.15 -1.75 0.1 -1.75 -0.05 -1.75 -0.15 -1.75 -0.15 -1.7 -0.15 -1.75 -0.2 -1.8 -0.3 -1.7 -0.35 -1.55 Q-0.2 -1.4 -0.2 -1.2 L-0.25 -1.2 Q-0.3 -1.15 -0.3 -1.25 L-0.3 -1.3 Q-0.25 -1.35 -0.25 -1.35 L-0.3 -1.4 -0.35 -1.45 -0.45 -1.5 -0.55 -1.35 -0.6 -1.1 Q-0.6 -0.95 -0.5 -0.85 -0.4 -0.7 -0.3 -0.75 L-0.3 -0.8 -0.25 -0.8 -0.25 -0.7 -0.3 -0.6 -0.35 -0.5 -0.35 -0.5 -0.5 -0.6 -0.55 -0.65 -0.6 -0.7 -0.6 -0.75 M0.65 -1.3 L0.7 -1.2 0.65 -1.05 0.6 -1.1 0.6 -1.1 0.55 -1.05 0.55 -1.0 Q0.5 -0.9 0.6 -0.85 L0.5 -0.8 0.4 -0.95 0.4 -0.8 Q0.35 -0.85 0.3 -1.1 L0.25 -1.1 0.35 -1.25 0.4 -0.95 Q0.4 -1.0 0.45 -1.15 L0.5 -1.25 0.5 -1.1 0.55 -1.15 0.65 -1.15 0.65 -1.3 M0.15 -1.25 L0.15 -1.25 Q0.0 -1.2 -0.1 -1.05 L-0.1 -1.1 0.0 -1.25 0.1 -1.35 0.15 -1.35 0.15 -1.25" fill="#a88e37" fill-rule="evenodd" stroke="none"/>
    <path d="M1.2 -1.75 L1.2 -1.35 1.2 -1.25 1.2 -1.05 1.2 -1.05 1.1 -1.0 1.0 -1.25 0.95 -1.25 0.95 -1.25 0.9 -1.3 0.95 -1.4 0.95 -1.45 0.9 -1.5 0.95 -1.6 0.8 -1.75 0.75 -1.9 0.8 -2.0 0.75 -2.15 0.7 -2.4 0.75 -2.4 0.8 -2.4 0.8 -2.3 0.85 -2.3 0.8 -2.3 0.8 -2.25 Q0.85 -2.2 0.85 -2.2 L0.9 -2.15 0.9 -2.1 0.85 -2.0 0.9 -2.0 0.9 -1.95 0.95 -2.0 0.95 -1.85 Q0.95 -1.75 0.95 -1.7 1.0 -1.65 1.05 -1.65 L1.2 -1.75 M-0.45 -2.45 L-0.3 -2.25 Q-0.2 -2.2 -0.1 -2.15 L-0.1 -2.05 -0.25 -2.2 -0.35 -2.15 -0.35 -2.05 -0.45 -1.95 -0.45 -1.8 Q-0.4 -1.75 -0.4 -1.8 L-0.35 -1.85 -0.35 -1.85 -0.3 -1.8 Q-0.3 -1.75 -0.4 -1.65 -0.45 -1.6 -0.45 -1.6 -0.55 -1.55 -0.55 -1.75 L-0.45 -2.45 M0.15 -1.75 L0.1 -1.65 0.2 -1.55 Q0.25 -1.5 0.3 -1.5 0.3 -1.45 0.35 -1.4 L0.35 -1.45 0.5 -1.4 0.55 -1.3 0.5 -1.3 0.5 -1.25 0.45 -1.15 Q0.4 -1.0 0.4 -0.95 L0.35 -1.25 0.3 -1.3 0.15 -1.35 0.1 -1.35 0.0 -1.25 -0.1 -1.1 -0.1 -1.05 Q-0.05 -0.95 0.0 -1.0 L0.05 -1.0 0.1 -1.1 0.05 -1.1 0.1 -1.2 0.15 -1.15 0.15 -1.15 0.25 -1.1 0.25 -0.85 Q0.2 -0.85 0.05 -0.9 L-0.15 -0.8 -0.25 -0.8 -0.3 -0.8 -0.4 -0.85 Q-0.5 -0.9 -0.5 -1.1 -0.5 -1.35 -0.35 -1.4 L-0.3 -1.4 -0.25 -1.35 Q-0.25 -1.35 -0.3 -1.3 L-0.3 -1.25 Q-0.3 -1.15 -0.25 -1.2 L-0.2 -1.2 Q-0.15 -1.25 -0.15 -1.35 L-0.2 -1.45 -0.2 -1.55 -0.25 -1.55 Q-0.25 -1.65 -0.15 -1.7 L-0.15 -1.75 -0.05 -1.75 0.1 -1.75 0.15 -1.75" fill="#4d1f1f" fill-rule="evenodd" stroke="none"/>
    <path d="M1.15 -0.85 L1.15 -0.75 1.1 -0.7 1.0 -0.6 1.0 -0.6 0.95 -0.6 0.85 -0.5 0.65 -0.6 0.2 -0.65 -0.1 -0.5 -0.35 -0.5 -0.3 -0.6 -0.25 -0.7 -0.25 -0.8 -0.15 -0.8 0.05 -0.9 Q0.2 -0.85 0.25 -0.85 L0.25 -1.1 0.15 -1.15 0.15 -1.15 0.1 -1.2 0.05 -1.1 0.1 -1.1 0.05 -1.0 0.0 -1.0 Q-0.05 -0.95 -0.1 -1.05 0.0 -1.2 0.15 -1.25 L0.15 -1.25 0.25 -1.1 0.3 -1.1 Q0.35 -0.85 0.4 -0.8 L0.4 -0.95 0.5 -0.8 0.6 -0.85 0.65 -0.85 Q0.75 -0.8 0.85 -0.8 0.95 -0.85 0.95 -1.05 L1.0 -0.85 Q1.05 -0.85 1.15 -0.85 L1.15 -0.85 M-0.75 -1.3 L-0.65 -1.85 -0.5 -2.5 -0.45 -2.45 -0.6 -1.8 -0.65 -1.25 -0.7 -1.2 -0.75 -1.3 M-0.2 -1.2 Q-0.2 -1.4 -0.35 -1.55 L-0.3 -1.7 -0.2 -1.8 -0.15 -1.75 -0.15 -1.7 Q-0.25 -1.65 -0.25 -1.55 L-0.2 -1.55 -0.2 -1.45 -0.15 -1.35 Q-0.15 -1.25 -0.2 -1.2" fill="#93702b" fill-rule="evenodd" stroke="none"/>
    <path d="M0.85 -0.25 L0.8 -0.2 0.75 -0.05 0.7 -0.1 0.6 -0.1 0.4 0.0 0.4 -0.05 0.45 -0.1 0.45 -0.15 0.5 -0.15 0.55 -0.2 0.5 -0.25 Q0.55 -0.4 0.6 -0.4 L0.7 -0.3 0.85 -0.25 M-0.4 -0.1 L-0.35 -0.35 -0.25 -0.3 -0.2 -0.25 0.0 -0.35 0.05 -0.35 0.0 -0.25 Q0.0 -0.15 0.05 -0.15 L0.1 -0.25 Q0.1 -0.25 0.1 -0.3 L0.1 -0.35 0.15 -0.4 Q0.25 -0.4 0.25 -0.25 L0.2 -0.1 0.15 0.1 Q0.05 0.0 -0.4 -0.1 L-0.4 -0.1 M-0.45 -0.1 L-0.7 -0.15 -0.65 -0.3 -0.55 -0.5 -0.5 -0.4 -0.45 -0.4 -0.45 -0.4 -0.5 -0.4 -0.5 -0.45 -0.55 -0.4 -0.55 -0.25 -0.5 -0.25 -0.4 -0.3 -0.45 -0.2 -0.45 -0.1" fill="#5a2564" fill-rule="evenodd" stroke="none"/>
    <path d="M0.75 -0.05 L0.7 0.05 0.65 0.05 0.55 0.05 0.45 0.1 0.4 0.15 0.35 0.05 0.35 -0.1 0.3 -0.05 0.3 0.1 0.25 -0.1 0.25 0.1 0.15 0.15 0.15 0.2 0.1 0.25 0.0 0.25 -0.1 0.2 -0.15 0.2 -0.15 0.2 Q-0.15 0.05 -0.4 0.0 L-0.5 0.0 Q-0.65 0.0 -0.75 -0.1 L-0.85 -0.2 -0.8 -0.35 -0.6 -0.75 -0.6 -0.7 Q-0.8 -0.4 -0.8 -0.2 L-0.7 -0.15 -0.45 -0.1 -0.4 -0.1 -0.4 -0.1 Q0.05 0.0 0.15 0.1 L0.2 -0.1 0.25 -0.25 Q0.25 -0.4 0.15 -0.4 L0.1 -0.35 0.1 -0.3 Q0.1 -0.25 0.1 -0.25 L0.05 -0.15 Q0.0 -0.15 0.0 -0.25 L0.05 -0.35 0.05 -0.4 0.15 -0.45 Q0.25 -0.5 0.3 -0.4 L0.35 -0.25 0.3 0.0 Q0.35 -0.25 0.45 -0.25 L0.5 -0.25 0.5 -0.25 0.55 -0.2 0.5 -0.15 0.45 -0.15 0.45 -0.1 0.4 -0.05 0.4 0.0 0.6 -0.1 0.7 -0.1 0.75 -0.05 M0.35 0.5 L0.4 0.45 0.45 0.45 0.45 0.4 0.45 0.5 0.45 0.6 0.45 0.8 0.4 1.1 0.35 1.1 0.3 1.15 0.3 1.1 0.35 0.9 0.35 0.7 0.35 0.55 0.35 0.5 M-0.4 0.35 L-0.45 0.55 -0.55 0.7 -0.55 0.75 -0.55 0.85 -0.6 0.95 -0.6 1.4 -0.65 1.3 -0.65 1.2 -0.7 1.25 -0.7 1.3 -0.65 1.95 -0.7 2.0 -0.7 1.3 -0.75 1.15 -0.65 0.85 -0.65 0.75 -0.65 0.75 -0.6 0.65 -0.5 0.45 -0.45 0.3 -0.4 0.35 -0.4 0.35 M-0.1 0.75 L-0.1 0.55 -0.05 0.55 0.05 0.55 0.05 0.75 0.05 0.8 0.05 0.9 0.05 0.95 0.0 1.1 -0.05 1.25 -0.05 1.3 -0.05 1.3 -0.1 1.25 -0.25 1.5 -0.35 1.65 -0.2 1.2 -0.15 1.05 -0.15 1.0 -0.1 0.85 -0.1 0.75 M-0.75 0.35 L-0.85 0.45 -0.9 0.65 -0.95 0.7 -1.0 1.0 -0.95 1.0 -0.95 1.05 -0.95 1.25 -0.95 1.2 -1.0 1.25 -1.05 0.85 -1.0 0.85 -1.0 0.7 -1.0 0.55 -0.85 0.35 -0.8 0.3 -0.75 0.35" fill="#e5c79b" fill-rule="evenodd" stroke="none"/>
    <path d="M0.95 -0.6 L0.85 -0.25 0.7 -0.3 0.6 -0.4 Q0.55 -0.4 0.5 -0.25 L0.5 -0.25 0.45 -0.25 Q0.35 -0.25 0.3 0.0 L0.35 -0.25 0.3 -0.4 Q0.25 -0.5 0.15 -0.45 L0.05 -0.4 0.05 -0.35 0.0 -0.35 -0.2 -0.25 -0.25 -0.3 -0.35 -0.35 -0.4 -0.1 -0.45 -0.1 -0.45 -0.2 -0.4 -0.3 -0.5 -0.25 -0.55 -0.25 -0.55 -0.4 -0.5 -0.45 -0.5 -0.4 -0.45 -0.4 -0.45 -0.4 -0.5 -0.4 -0.55 -0.5 -0.65 -0.3 -0.7 -0.15 -0.8 -0.2 Q-0.8 -0.4 -0.6 -0.7 L-0.55 -0.65 -0.5 -0.6 -0.35 -0.5 -0.35 -0.5 -0.1 -0.5 0.2 -0.65 0.65 -0.6 0.85 -0.5 0.95 -0.6" fill="#451c4d" fill-rule="evenodd" stroke="none"/>
    <path d="M0.7 0.05 L0.65 0.1 0.6 0.1 0.55 0.1 0.4 0.2 0.45 0.4 0.45 0.45 0.4 0.45 0.35 0.5 0.35 0.45 0.3 0.25 0.3 0.3 0.1 0.25 0.15 0.2 0.15 0.15 0.25 0.1 0.25 -0.1 0.3 0.1 0.3 -0.05 0.35 -0.1 0.35 0.05 0.4 0.15 0.45 0.1 0.55 0.05 0.65 0.05 0.7 0.05 M-0.45 2.3 L-0.55 2.3 Q-0.6 2.3 -0.65 2.25 L-0.65 2.25 -0.65 2.15 -0.7 2.0 -0.65 1.95 -0.7 1.3 -0.7 1.25 -0.65 1.2 -0.65 1.3 -0.6 1.4 -0.6 1.75 -0.55 2.15 -0.5 2.1 -0.45 2.1 -0.45 2.05 -0.4 1.85 -0.35 1.75 -0.35 1.65 -0.25 1.5 -0.1 1.25 -0.05 1.3 -0.05 1.3 -0.1 1.5 -0.3 1.85 -0.4 2.1 -0.4 2.2 -0.45 2.3 M-0.7 2.2 L-0.8 2.1 -0.8 2.05 -0.95 1.45 -1.0 1.25 -0.95 1.2 -0.95 1.25 -0.9 1.3 -0.85 1.65 -0.75 2.05 -0.7 2.2 -0.7 2.2 M-0.7 0.15 Q-0.9 0.1 -0.9 -0.05 L-0.85 -0.2 -0.75 -0.1 Q-0.65 0.0 -0.5 0.0 L-0.4 0.0 Q-0.15 0.05 -0.15 0.2 L-0.15 0.2 -0.3 0.15 -0.4 0.35 -0.4 0.35 -0.45 0.3 -0.4 0.15 -0.5 0.15 -0.65 0.3 -0.75 0.35 -0.8 0.3 -0.6 0.15 -0.65 0.15 -0.7 0.15 M-0.1 0.55 L-0.1 0.2 0.0 0.25 0.05 0.55 -0.05 0.55 -0.1 0.55 M0.3 1.15 L0.35 1.1 0.4 1.1 0.35 1.3 0.15 1.8 0.05 1.9 0.25 1.35 0.3 1.15" fill="#a18357" fill-rule="evenodd" stroke="none"/>
    <path d="M0.6 0.1 L0.65 0.25 0.6 0.3 0.45 0.3 Q0.45 0.35 0.45 0.4 L0.45 0.5 0.45 0.4 0.4 0.2 0.55 0.1 0.6 0.1 M0.55 1.1 L0.55 1.15 0.3 1.65 0.25 1.7 0.15 1.8 0.35 1.3 0.4 1.1 0.45 0.8 0.45 0.95 0.45 1.2 0.5 1.1 0.5 1.15 0.55 1.1 M-0.8 2.05 L-0.9 1.95 -1.0 1.75 -1.05 1.65 Q-1.15 1.35 -1.15 1.05 L-1.15 0.95 -1.1 1.0 -1.05 0.9 -1.05 0.85 -1.0 1.25 -0.95 1.45 -0.8 2.05 M-0.95 0.25 L-0.85 0.25 -0.8 0.2 -0.7 0.15 -0.65 0.15 -0.6 0.15 -0.8 0.3 -0.85 0.35 -0.95 0.25 M-0.15 0.2 L-0.1 0.2 -0.1 0.55 -0.1 0.75 -0.15 0.65 -0.15 0.6 -0.15 0.5 Q-0.15 0.3 -0.3 0.35 L-0.4 0.45 -0.45 0.55 -0.4 0.35 -0.3 0.15 -0.15 0.2 M-0.9 0.7 L-0.9 0.6 -0.85 0.55 Q-0.8 0.7 -0.65 0.75 L-0.65 0.85 -0.9 0.7 M-0.6 1.4 L-0.6 0.95 -0.55 0.85 -0.6 1.0 -0.6 1.15 -0.55 1.3 -0.5 1.45 -0.45 1.4 -0.45 1.35 -0.4 1.45 -0.4 1.45 -0.35 1.4 Q-0.3 1.4 -0.25 1.3 L-0.2 1.05 -0.15 1.05 -0.2 1.2 -0.35 1.65 -0.35 1.75 -0.4 1.85 -0.45 2.05 -0.45 2.1 -0.5 2.1 -0.55 2.15 -0.6 1.75 -0.6 1.4 M0.05 0.8 L0.05 0.75 0.1 0.8 0.2 0.8 0.25 0.75 0.35 0.7 0.3 0.9 0.15 0.85 0.05 0.9 0.05 0.8" fill="#5d4126" fill-rule="evenodd" stroke="none"/>
    <path d="M0.65 0.25 L0.7 0.5 0.7 0.65 0.55 0.65 0.45 0.6 0.45 0.5 0.45 0.4 Q0.45 0.35 0.45 0.3 L0.6 0.3 0.65 0.25 M0.7 0.75 L0.55 1.1 0.5 1.15 0.5 1.1 0.45 1.2 0.45 0.95 0.5 0.85 0.55 0.8 0.7 0.75 M-1.15 0.95 L-1.15 0.7 -1.1 0.6 -1.05 0.7 -1.0 0.7 -1.0 0.85 -1.05 0.85 -1.05 0.9 -1.1 1.0 -1.15 0.95 M-1.1 0.5 L-1.05 0.4 -0.95 0.25 -0.85 0.35 -1.0 0.55 -1.05 0.6 -1.1 0.5 M-0.45 0.55 L-0.4 0.45 -0.3 0.35 Q-0.15 0.3 -0.15 0.5 L-0.15 0.6 -0.15 0.65 -0.1 0.75 -0.1 0.85 -0.3 0.85 -0.45 0.85 -0.55 0.75 -0.55 0.7 -0.45 0.55 M-0.6 1.0 L-0.2 0.95 -0.2 1.0 -0.15 1.0 -0.15 1.05 -0.2 1.05 -0.25 1.3 Q-0.3 1.4 -0.35 1.4 L-0.4 1.45 -0.4 1.45 -0.45 1.35 -0.45 1.4 -0.5 1.45 -0.55 1.3 -0.6 1.15 -0.6 1.0" fill="#835930" fill-rule="evenodd" stroke="none"/>
    <path d="M0.25 1.7 L0.1 1.95 -0.05 2.2 Q-0.15 2.3 -0.45 2.3 L-0.4 2.2 -0.4 2.1 -0.3 1.85 -0.1 1.5 -0.05 1.3 -0.05 1.25 0.05 1.3 0.15 1.3 0.25 1.25 0.3 1.15 0.25 1.35 0.05 1.9 0.15 1.8 0.25 1.7 M-0.65 2.25 L-0.7 2.2 -0.7 2.2 -0.75 2.05 -0.85 1.65 -0.9 1.3 -0.95 1.25 -0.95 1.05 -0.85 1.15 -0.75 1.15 -0.7 1.3 -0.7 2.0 -0.65 2.15 -0.65 2.25 -0.65 2.25 M0.1 0.25 L0.3 0.3 0.3 0.25 0.35 0.45 0.35 0.5 0.35 0.55 0.3 0.4 0.25 0.45 0.2 0.4 0.15 0.45 0.1 0.4 Q0.05 0.45 0.05 0.5 L0.1 0.6 0.05 0.75 0.05 0.55 0.0 0.25 0.1 0.25 M-0.75 0.35 L-0.65 0.3 -0.5 0.15 -0.4 0.15 -0.45 0.3 -0.5 0.45 Q-0.55 0.35 -0.65 0.3 -0.7 0.3 -0.7 0.35 L-0.75 0.35 -0.85 0.55 -0.9 0.6 -0.9 0.7 -0.95 1.0 -1.0 1.0 -0.95 0.7 -0.9 0.65 -0.85 0.45 -0.75 0.35 M0.05 0.8 L0.05 0.75 0.05 0.8" fill="#351d13" fill-rule="evenodd" stroke="none"/>
    <path d="M-0.95 1.0 L-0.9 0.7 -0.65 0.85 -0.75 1.15 -0.85 1.15 -0.95 1.05 -0.95 1.0 M-0.85 0.55 L-0.75 0.35 -0.7 0.35 Q-0.7 0.3 -0.65 0.3 -0.55 0.35 -0.5 0.45 L-0.6 0.65 -0.65 0.75 -0.65 0.75 Q-0.8 0.7 -0.85 0.55 M0.05 0.75 L0.1 0.6 0.05 0.5 Q0.05 0.45 0.1 0.4 L0.15 0.45 0.2 0.4 0.25 0.45 0.3 0.4 0.35 0.55 0.35 0.7 0.25 0.75 0.2 0.8 0.1 0.8 0.05 0.75 M0.05 0.9 L0.15 0.85 0.3 0.9 0.35 0.7 0.35 0.9 0.3 1.1 0.3 1.15 0.25 1.25 0.15 1.3 0.05 1.3 -0.05 1.25 0.0 1.1 0.05 0.95 0.05 0.9 0.05 0.8 0.05 0.9" fill="#4d2a1b" fill-rule="evenodd" stroke="none"/>
    <path d="M0.7 0.65 L0.7 0.75 0.55 0.8 0.5 0.85 0.45 0.95 0.45 0.8 0.45 0.6 0.55 0.65 0.7 0.65 M-1.1 0.6 L-1.1 0.5 -1.05 0.6 -1.0 0.55 -1.0 0.7 -1.05 0.7 -1.1 0.6 M-0.55 0.75 L-0.45 0.85 -0.3 0.85 -0.1 0.85 -0.15 1.0 -0.2 1.0 -0.2 0.95 -0.6 1.0 -0.55 0.85 -0.55 0.75" fill="#9a753c" fill-rule="evenodd" stroke="none"/>
    <path d="M-0.1 -2.15 L-0.05 -2.15 0.15 -2.25 0.3 -2.35 0.4 -2.35 0.5 -2.35 0.6 -2.4 0.6 -2.4 0.65 -2.45 0.75 -2.55 0.85 -2.5 0.85 -2.5 0.9 -2.45 M1.2 -1.25 L1.2 -1.05 1.15 -0.85 1.15 -0.75 1.1 -0.7 1.0 -0.6 1.0 -0.6 0.95 -0.6 0.85 -0.25 0.8 -0.2 0.75 -0.05 0.7 0.05 0.65 0.1 0.6 0.1 0.65 0.25 0.7 0.5 0.7 0.65 0.7 0.75 0.55 1.1 0.55 1.15 0.3 1.65 0.25 1.7 0.1 1.95 M-1.05 1.65 Q-1.15 1.35 -1.15 1.05 L-1.15 0.95 -1.15 0.7 -1.1 0.6 -1.1 0.5 -1.05 0.4 -0.95 0.25 -0.85 0.25 -0.8 0.2 -0.7 0.15 Q-0.9 0.1 -0.9 -0.05 L-0.85 -0.2 -0.8 -0.35 -0.6 -0.75 Q-0.75 -0.9 -0.75 -1.15 L-0.75 -1.3 -0.65 -1.85 -0.5 -2.5 -0.45 -2.45 -0.45 -2.45 -0.3 -2.25 Q-0.2 -2.2 -0.1 -2.15" fill="none" stroke="#000000" stroke-linecap="round" stroke-linejoin="round" stroke-opacity="0.4509804" stroke-width="0.1"/>
  </g>
</svg>
