<?xml version="1.0" encoding="UTF-8" standalone="no"?>
<svg xmlns:xlink="http://www.w3.org/1999/xlink" height="2.25px" width="2.25px" xmlns="http://www.w3.org/2000/svg">
  <g transform="matrix(1.0, 0.0, 0.0, 1.0, 1.1, 0.55)">
    <path d="M0.5 -0.4 L0.65 -0.45 0.7 -0.45 0.8 -0.45 Q0.9 -0.5 0.95 -0.55 L1.0 -0.45 1.0 -0.4 1.05 -0.25 1.1 -0.1 1.05 0.1 1.1 0.2 1.1 0.3 1.1 0.4 1.15 0.55 1.0 1.3 0.95 1.45 0.9 1.55 0.9 1.6 0.75 1.65 0.5 1.7 Q0.15 1.7 -0.2 1.45 L-0.25 1.4 -0.4 1.3 -0.5 1.2 -0.5 1.1 Q-0.55 0.9 -0.6 0.75 L-0.6 0.75 -0.75 0.8 -0.85 0.8 -1.0 0.7 Q-1.1 0.7 -1.1 0.55 L-1.1 0.4 -1.1 0.35 -1.1 0.25 -1.05 0.25 -1.0 0.2 -0.95 0.2 Q-0.9 0.2 -0.85 0.25 L-0.75 0.35 -0.7 0.4 -0.7 0.45 -0.65 0.55 -0.65 0.55 -0.6 0.5 -0.55 0.55 -0.55 0.55 -0.5 0.55 -0.5 0.55 -0.45 0.5 -0.45 0.5 -0.4 0.5 -0.45 0.4 -0.45 0.35 -0.5 0.25 -0.45 0.15 -0.45 0.15 -0.4 0.15 -0.35 0.1 -0.3 -0.05 Q-0.3 -0.2 -0.4 -0.3 L-0.5 -0.45 -0.45 -0.55 Q-0.4 -0.4 -0.25 -0.25 -0.1 -0.15 0.1 -0.15 L0.15 -0.15 0.25 -0.2 0.3 -0.25 0.2 -0.2 0.0 -0.3 -0.05 -0.3 0.1 -0.3 0.15 -0.3 -0.1 -0.45 -0.15 -0.45 0.1 -0.4 0.2 -0.4 0.25 -0.4 0.5 -0.4 M-0.2 0.85 L-0.2 0.85 -0.2 0.85" fill="#f5cd92" fill-rule="evenodd" stroke="none"/>
  </g>
</svg>
