<?xml version="1.0" encoding="UTF-8" standalone="no"?>
<svg xmlns:xlink="http://www.w3.org/1999/xlink" height="2.25px" width="4.8px" xmlns="http://www.w3.org/2000/svg">
  <g transform="matrix(1.0, 0.0, 0.0, 1.0, 2.6, 1.15)">
    <path d="M0.95 -0.65 L0.75 -0.8 0.65 -0.8 0.65 -0.75 0.65 -0.7 0.6 -0.7 0.55 -0.65 0.55 -0.6 0.5 -0.65 0.4 -0.65 0.4 -0.7 0.35 -0.7 0.35 -0.7 0.35 -0.8 0.4 -0.8 0.45 -0.85 0.4 -0.9 0.3 -0.9 0.25 -0.9 0.2 -1.0 0.1 -1.0 0.05 -1.05 0.05 -1.1 0.1 -1.1 0.3 -1.1 Q0.65 -1.05 0.95 -0.75 L0.95 -0.65 M0.2 -0.8 L0.15 -0.8 0.1 -0.8 Q0.1 -0.85 0.15 -0.9 L0.2 -0.85 0.2 -0.8 M1.05 -0.05 L1.05 -0.25 1.15 -0.2 1.15 -0.1 1.2 0.0 1.2 0.05 1.05 -0.05" fill="#cf6c60" fill-rule="evenodd" stroke="none"/>
    <path d="M0.1 -1.1 L0.05 -1.1 0.05 -1.1 0.1 -1.1 M0.4 -0.65 L0.5 -0.65 0.55 -0.6 0.55 -0.6 0.5 -0.55 Q0.4 -0.55 0.4 -0.65" fill="#838983" fill-rule="evenodd" stroke="none"/>
    <path d="M0.95 -0.65 L0.95 -0.75 1.0 -0.65 0.95 -0.65 M0.05 -1.1 L0.05 -1.1 -0.05 -1.1 0.05 -1.1 M-1.7 -0.1 L-1.65 -0.15 -1.65 -0.1 -1.7 -0.1 -1.7 -0.1 M-1.6 -0.2 L-1.55 -0.2 -1.55 -0.2 -1.6 -0.2 M-1.55 -0.2 L-1.55 -0.2" fill="#4a524c" fill-rule="evenodd" stroke="none"/>
    <path d="M0.55 -0.6 L0.55 -0.65 0.6 -0.7 0.65 -0.7 0.65 -0.75 0.65 -0.8 0.75 -0.8 0.95 -0.65 0.95 -0.6 0.9 -0.5 0.95 -0.4 0.95 -0.35 Q0.85 -0.35 0.75 -0.45 L0.55 -0.6 M0.05 -1.1 L0.05 -1.05 0.1 -1.0 0.2 -1.0 0.25 -0.9 0.3 -0.9 0.4 -0.9 0.45 -0.85 0.4 -0.8 0.35 -0.8 0.35 -0.7 0.35 -0.7 0.3 -0.7 0.05 -0.75 -0.2 -0.7 -0.2 -0.9 -0.2 -1.0 -0.05 -1.1 0.05 -1.1 M0.2 -0.8 L0.2 -0.85 0.15 -0.9 Q0.1 -0.85 0.1 -0.8 L0.15 -0.8 0.2 -0.8 M1.05 -0.05 L1.05 -0.1 1.05 -0.15 1.0 -0.35 1.0 -0.35 1.5 0.2 1.55 0.25 1.6 0.4 1.5 0.35 1.45 0.3 1.4 0.25 1.35 0.15 1.35 0.2 1.2 0.05 1.2 0.0 1.15 -0.1 1.15 -0.2 1.05 -0.25 1.05 -0.05 M1.5 0.45 L1.55 0.5 1.55 0.55 1.65 0.6 1.7 0.65 1.75 0.7 1.7 0.7 1.65 0.7 1.5 0.45 M1.75 0.8 L1.75 0.75 Q1.8 0.75 1.85 0.8 L1.85 0.8 1.9 0.75 Q1.9 0.75 1.95 0.8 L1.95 0.85 2.0 0.9 1.95 0.95 1.9 0.95 1.75 0.8 M-1.15 -0.7 L-1.2 -0.75 -1.2 -0.6 -1.2 -0.5 -1.25 -0.45 -1.25 -0.55 -1.25 -0.55 -1.25 -0.65 -1.25 -0.7 -1.35 -0.7 -1.35 -0.7 -1.45 -0.6 -1.5 -0.6 -1.45 -0.55 -1.5 -0.55 -1.5 -0.45 -1.45 -0.45 -1.4 -0.45 -1.4 -0.35 -1.45 -0.3 -1.45 -0.35 -1.5 -0.35 -1.5 -0.45 -1.55 -0.45 -1.55 -0.25 -1.55 -0.2 -1.6 -0.2 -1.65 -0.15 -1.65 -0.15 -1.7 -0.1 -1.75 -0.15 -1.75 -0.15 -2.0 0.1 -2.0 0.05 -1.95 -0.1 -1.9 -0.25 -1.9 -0.25 -1.95 -0.25 -1.8 -0.4 -1.75 -0.4 Q-1.45 -0.75 -1.0 -0.9 L-0.7 -1.0 -0.75 -0.95 -0.8 -0.85 -0.8 -0.75 -0.9 -0.8 -0.85 -0.7 -0.9 -0.55 -1.05 -0.55 -1.05 -0.65 -1.1 -0.7 -1.15 -0.7 M-2.4 0.4 L-2.4 0.45 -2.35 0.5 -2.3 0.5 -2.3 0.6 -2.45 0.85 -2.45 0.9 -2.5 0.85 -2.5 0.8 -2.4 0.4" fill="#8b4941" fill-rule="evenodd" stroke="none"/>
    <path d="M1.35 0.2 L1.35 0.15 1.4 0.25 1.45 0.3 1.5 0.35 1.6 0.4 1.55 0.25 1.9 0.6 1.95 0.65 2.15 1.0 1.95 1.0 1.9 0.95 1.95 0.95 2.0 0.9 1.95 0.85 1.95 0.8 Q1.9 0.75 1.9 0.75 L1.85 0.8 1.85 0.8 Q1.8 0.75 1.75 0.75 L1.75 0.8 1.7 0.7 1.75 0.7 1.7 0.65 1.65 0.6 1.55 0.55 1.55 0.5 1.5 0.45 1.45 0.4 1.35 0.25 1.35 0.2 M-1.1 -0.65 L-1.15 -0.7 -1.1 -0.7 -1.05 -0.65 -1.05 -0.55 -0.9 -0.55 -0.85 -0.7 -0.9 -0.8 -0.8 -0.75 -0.8 -0.85 -0.75 -0.95 -0.7 -1.0 -0.55 -1.0 -0.2 -1.0 -0.2 -0.9 -0.2 -0.7 -0.35 -0.7 Q-0.45 -0.7 -0.55 -0.6 L-0.7 -0.5 -0.75 -0.5 -0.8 -0.55 -1.0 -0.5 -1.0 -0.5 -1.05 -0.5 -1.1 -0.5 -1.1 -0.65 M-1.8 -0.4 L-1.95 -0.25 -1.9 -0.25 -1.9 -0.25 -1.95 -0.1 -2.0 0.05 -2.0 0.1 -1.75 -0.15 -1.75 -0.15 -1.7 -0.1 -1.75 -0.1 -2.0 0.25 -2.3 0.6 -2.3 0.6 -2.3 0.5 -2.35 0.5 -2.4 0.45 -2.4 0.4 -2.25 0.15 Q-2.05 -0.15 -1.8 -0.4 M-1.4 -0.45 L-1.45 -0.45 -1.5 -0.45 -1.5 -0.55 -1.45 -0.55 -1.45 -0.55 -1.35 -0.55 -1.3 -0.6 -1.25 -0.65 -1.25 -0.55 -1.25 -0.55 -1.3 -0.55 -1.35 -0.55 -1.35 -0.5 -1.4 -0.45 -1.4 -0.45" fill="#562d28" fill-rule="evenodd" stroke="none"/>
    <path d="M0.95 -0.35 L0.95 -0.4 0.9 -0.5 0.95 -0.6 0.95 -0.65 1.0 -0.65 1.0 -0.35 1.0 -0.35 1.05 -0.15 1.05 -0.1 1.05 -0.05 1.05 0.2 1.15 0.3 1.2 0.2 1.2 0.05 1.35 0.2 1.35 0.3 1.4 0.4 1.45 0.4 1.5 0.45 1.65 0.7 1.65 0.8 1.7 0.8 1.7 0.85 1.75 0.8 1.9 0.95 1.85 0.95 1.8 0.95 1.75 1.0 1.75 1.05 1.4 1.0 1.35 0.95 Q1.25 0.9 1.2 0.9 L1.2 0.85 1.1 0.85 Q1.05 0.85 1.05 0.8 L1.0 0.75 1.0 1.0 0.65 0.95 0.7 0.95 0.75 0.95 0.8 0.9 0.85 0.95 0.85 0.85 0.85 0.8 0.8 0.8 0.75 0.8 0.75 0.75 0.7 0.75 0.65 0.75 0.65 0.65 0.7 0.65 0.75 0.65 0.75 0.6 0.8 0.55 0.85 0.5 0.9 0.4 0.9 0.3 0.95 0.3 0.95 0.1 0.95 -0.1 0.95 -0.15 0.9 -0.25 0.95 -0.35 M-0.2 -0.7 L-0.15 -0.7 -0.15 -0.7 -0.05 -0.6 -0.15 -0.55 -0.15 -0.35 -0.05 -0.35 Q-0.05 -0.35 0.0 -0.4 L0.0 -0.45 0.05 -0.45 0.0 -0.35 0.05 -0.25 0.0 -0.2 0.0 -0.2 -0.05 -0.2 -0.05 -0.1 -0.05 0.0 -0.05 0.15 Q-0.05 0.35 -0.15 0.3 L-0.15 0.4 -0.2 0.4 -0.25 0.55 -0.25 0.55 -0.3 0.55 -0.3 0.6 -0.25 0.65 Q-0.2 0.65 -0.2 0.7 L-0.05 0.8 Q0.05 0.8 0.05 0.9 L-0.2 0.9 -1.0 0.85 -1.05 0.8 -1.05 0.8 -1.15 0.75 -1.2 0.75 -1.2 0.75 -1.25 0.75 -1.35 0.75 -1.4 0.75 -1.6 0.8 -1.75 0.8 -1.75 0.7 -1.8 0.75 -1.85 0.8 -1.9 0.8 -2.05 0.8 -2.1 0.85 -2.15 0.85 -2.15 0.75 -2.2 0.75 -2.2 0.8 -2.25 0.8 -2.25 0.8 -2.3 0.8 -2.3 0.8 -2.3 0.7 -2.25 0.6 -2.3 0.6 -2.3 0.6 -2.0 0.25 -1.75 -0.1 -1.7 -0.1 -1.7 -0.1 -1.65 -0.1 -1.65 -0.15 -1.65 -0.15 -1.6 -0.2 -1.55 -0.2 -1.55 -0.2 -1.55 -0.1 -1.5 -0.05 -1.45 0.05 -1.3 -0.05 -1.3 -0.1 -1.3 -0.1 -1.25 -0.2 -1.25 -0.3 -1.3 -0.3 -1.4 -0.25 -1.45 -0.25 -1.45 -0.3 -1.4 -0.35 -1.4 -0.3 -1.3 -0.35 -1.3 -0.35 -1.25 -0.4 -1.25 -0.45 -1.2 -0.5 -1.2 -0.5 -1.15 -0.4 -1.15 -0.35 -1.15 -0.3 -1.1 -0.3 -1.1 -0.25 -1.05 -0.25 -1.0 -0.25 -1.0 -0.3 -1.0 -0.5 -0.8 -0.55 -0.75 -0.5 -0.7 -0.5 -0.55 -0.6 Q-0.45 -0.7 -0.35 -0.7 L-0.2 -0.7 M1.45 0.5 Q1.4 0.5 1.4 0.5 L1.4 0.55 1.45 0.6 1.5 0.6 1.5 0.55 1.45 0.5 M0.55 0.7 L0.55 0.75 0.6 0.8 0.65 0.8 0.7 0.9 0.6 0.95 Q0.55 0.95 0.55 0.9 L0.5 0.85 0.45 0.8 0.5 0.75 0.55 0.7 M0.25 0.05 L0.25 0.1 0.2 0.15 0.2 0.25 0.15 0.3 0.1 0.25 0.05 0.2 0.1 0.15 0.15 0.1 0.2 0.1 0.25 0.05 M0.6 0.55 L0.55 0.6 Q0.5 0.6 0.5 0.5 L0.55 0.5 0.6 0.45 0.6 0.55 M0.65 0.95 L1.0 1.0 0.65 0.95 M-0.35 -0.15 L-0.4 -0.2 -0.4 -0.15 -0.45 -0.15 -0.45 -0.15 -0.4 -0.1 -0.35 -0.15 -0.35 -0.15 M-0.3 -0.25 Q-0.3 -0.2 -0.25 -0.2 L-0.25 -0.2 -0.2 -0.25 -0.2 -0.3 -0.25 -0.3 -0.25 -0.25 -0.3 -0.25 M-0.15 -0.1 L-0.15 -0.05 -0.2 0.0 -0.2 0.05 -0.15 0.05 -0.15 0.05 -0.1 0.0 -0.15 -0.05 -0.15 -0.1 M-0.3 -0.05 L-0.35 0.05 -0.35 0.1 -0.3 0.15 -0.25 0.15 -0.25 0.0 -0.25 -0.05 -0.3 -0.05 M-0.4 0.2 L-0.5 0.2 -0.55 0.25 Q-0.55 0.4 -0.45 0.4 L-0.35 0.3 -0.35 0.3 -0.4 0.25 -0.4 0.2" fill="#25201d" fill-rule="evenodd" stroke="none"/>
    <path d="M0.35 -0.7 L0.4 -0.7 0.4 -0.65 Q0.4 -0.55 0.5 -0.55 L0.55 -0.6 0.55 -0.6 0.75 -0.45 Q0.85 -0.35 0.95 -0.35 L0.9 -0.25 0.95 -0.15 0.95 -0.1 0.95 0.1 0.95 0.3 0.9 0.3 0.9 0.4 0.85 0.5 0.8 0.55 0.75 0.6 0.75 0.65 0.7 0.65 0.65 0.65 0.65 0.75 0.7 0.75 0.75 0.75 0.75 0.8 0.8 0.8 0.85 0.8 0.85 0.85 0.85 0.95 0.8 0.9 0.75 0.95 0.7 0.95 0.65 0.95 0.6 1.0 0.6 0.95 0.3 0.95 0.05 0.9 Q0.05 0.8 -0.05 0.8 L-0.2 0.7 Q-0.2 0.65 -0.25 0.65 L-0.3 0.6 -0.3 0.55 -0.25 0.55 -0.25 0.55 -0.2 0.4 -0.15 0.4 -0.15 0.3 Q-0.05 0.35 -0.05 0.15 L-0.05 0.0 -0.05 -0.1 -0.05 -0.2 0.0 -0.2 0.0 -0.2 0.05 -0.25 0.0 -0.35 0.05 -0.45 0.0 -0.45 0.0 -0.4 Q-0.05 -0.35 -0.05 -0.35 L-0.15 -0.35 -0.15 -0.55 -0.05 -0.6 -0.15 -0.7 -0.15 -0.7 -0.2 -0.7 0.05 -0.75 0.3 -0.7 0.35 -0.7 M1.65 0.7 L1.7 0.7 1.75 0.8 1.7 0.85 1.7 0.8 1.65 0.8 1.65 0.7 M1.45 0.5 L1.5 0.55 1.5 0.6 1.45 0.6 1.4 0.55 1.4 0.5 Q1.4 0.5 1.45 0.5 M0.6 0.55 L0.6 0.45 0.55 0.5 0.5 0.5 Q0.5 0.6 0.55 0.6 L0.6 0.55 M0.25 0.05 L0.2 0.1 0.15 0.1 0.1 0.15 0.05 0.2 0.1 0.25 0.15 0.3 0.2 0.25 0.2 0.15 0.25 0.1 0.25 0.05 M0.55 0.7 L0.5 0.75 0.45 0.8 0.5 0.85 0.55 0.9 Q0.55 0.95 0.6 0.95 L0.7 0.9 0.65 0.8 0.6 0.8 0.55 0.75 0.55 0.7 M-0.4 0.2 L-0.4 0.25 -0.35 0.3 -0.35 0.3 -0.45 0.4 Q-0.55 0.4 -0.55 0.25 L-0.5 0.2 -0.4 0.2 M-0.3 -0.05 L-0.25 -0.05 -0.25 0.0 -0.25 0.15 -0.3 0.15 -0.35 0.1 -0.35 0.05 -0.3 -0.05 M-0.15 -0.1 L-0.15 -0.05 -0.1 0.0 -0.15 0.05 -0.15 0.05 -0.2 0.05 -0.2 0.0 -0.15 -0.05 -0.15 -0.1 M-0.3 -0.25 L-0.25 -0.25 -0.25 -0.3 -0.2 -0.3 -0.2 -0.25 -0.25 -0.2 -0.25 -0.2 Q-0.3 -0.2 -0.3 -0.25 M-0.35 -0.15 L-0.35 -0.15 -0.4 -0.1 -0.45 -0.15 -0.45 -0.15 -0.4 -0.15 -0.4 -0.2 -0.35 -0.15 M-2.05 0.8 L-1.9 0.8 -1.85 0.8 -1.8 0.75 -1.75 0.7 -1.75 0.8 -1.6 0.8 -1.4 0.75 -1.35 0.75 -1.25 0.75 -1.2 0.75 -1.2 0.75 -1.15 0.75 -1.05 0.8 -1.05 0.8 -1.0 0.85 -2.05 0.9 -2.05 0.8 M-2.45 0.9 L-2.45 0.85 -2.3 0.6 -2.25 0.6 -2.3 0.7 -2.3 0.8 -2.3 0.8 -2.3 0.8 -2.25 0.9 -2.45 0.9" fill="#34342e" fill-rule="evenodd" stroke="none"/>
    <path d="M1.9 0.95 L1.95 1.0 1.75 1.05 1.75 1.0 1.8 0.95 1.85 0.95 1.9 0.95 M1.35 0.2 L1.35 0.25 1.45 0.4 1.4 0.4 1.35 0.3 1.35 0.2 M-1.1 -0.5 L-1.05 -0.5 -1.1 -0.5 -1.1 -0.5" fill="#2b3536" fill-rule="evenodd" stroke="none"/>
    <path d="M1.05 -0.05 L1.2 0.05 1.2 0.2 1.15 0.3 1.05 0.2 1.05 -0.05 M1.0 1.0 L1.0 0.75 1.05 0.8 Q1.05 0.85 1.1 0.85 L1.2 0.85 1.2 0.9 Q1.25 0.9 1.35 0.95 L1.4 1.0 1.0 1.0 1.4 1.0 1.0 1.0 M-2.05 0.8 L-2.05 0.9 -2.25 0.9 -2.3 0.8 -2.3 0.8 -2.25 0.8 -2.25 0.8 -2.2 0.8 -2.2 0.75 -2.15 0.75 -2.15 0.85 -2.1 0.85 -2.05 0.8" fill="#64635f" fill-rule="evenodd" stroke="none"/>
    <path d="M-1.2 -0.6 L-1.1 -0.65 -1.1 -0.5 -1.1 -0.5 -1.2 -0.5 -1.2 -0.6 M-1.5 -0.35 L-1.45 -0.35 -1.45 -0.3 -1.45 -0.25 -1.4 -0.25 -1.4 -0.25 Q-1.4 -0.15 -1.45 -0.15 L-1.5 -0.2 -1.5 -0.25 -1.5 -0.3 -1.5 -0.35 M-1.2 -0.5 L-1.2 -0.5" fill="#cbc2be" fill-rule="evenodd" stroke="none"/>
    <path d="M-1.55 -0.2 L-1.55 -0.25 -1.55 -0.25 -1.5 -0.2 -1.55 -0.2 -1.55 -0.2 M-1.05 -0.5 L-1.0 -0.5 -1.0 -0.5 -1.0 -0.3 -1.0 -0.25 -1.05 -0.25 -1.1 -0.25 -1.1 -0.3 -1.1 -0.3 -1.05 -0.35 -1.1 -0.5 -1.05 -0.5" fill="#283131" fill-rule="evenodd" stroke="none"/>
    <path d="M-1.2 -0.6 L-1.2 -0.75 -1.15 -0.7 -1.1 -0.65 -1.2 -0.6 M-1.55 -0.25 L-1.55 -0.45 -1.5 -0.45 -1.5 -0.35 -1.5 -0.3 -1.5 -0.25 -1.5 -0.2 -1.45 -0.15 Q-1.4 -0.15 -1.4 -0.25 L-1.4 -0.25 -1.3 -0.3 -1.25 -0.3 -1.25 -0.2 -1.3 -0.1 -1.3 -0.1 -1.4 -0.1 -1.5 -0.1 -1.5 -0.2 -1.55 -0.25 -1.55 -0.25 M-1.4 -0.35 L-1.4 -0.45 -1.4 -0.45 -1.35 -0.5 -1.35 -0.55 -1.3 -0.55 -1.25 -0.55 -1.25 -0.45 -1.25 -0.4 -1.3 -0.35 -1.3 -0.35 -1.4 -0.3 -1.4 -0.35 M-1.45 -0.55 L-1.5 -0.6 -1.45 -0.6 -1.35 -0.7 -1.35 -0.7 -1.25 -0.7 -1.25 -0.65 -1.3 -0.6 -1.35 -0.55 -1.45 -0.55 -1.45 -0.55 M-1.1 -0.5 L-1.05 -0.35 -1.1 -0.3 -1.1 -0.3 -1.15 -0.3 -1.15 -0.35 -1.15 -0.4 -1.2 -0.5 -1.1 -0.5" fill="#98918e" fill-rule="evenodd" stroke="none"/>
    <path d="M-1.5 -0.2 L-1.5 -0.1 -1.4 -0.1 -1.3 -0.1 -1.3 -0.05 -1.45 0.05 -1.5 -0.05 -1.55 -0.1 -1.55 -0.2 -1.5 -0.2" fill="#222a2a" fill-rule="evenodd" stroke="none"/>
    <path d="M0.95 -0.75 Q0.65 -1.05 0.3 -1.1 L0.1 -1.1 0.05 -1.1 -0.05 -1.1 -0.2 -1.0 -0.55 -1.0 -0.7 -1.0 -1.0 -0.9 Q-1.45 -0.75 -1.75 -0.4 L-1.8 -0.4 Q-2.05 -0.15 -2.25 0.15 L-2.4 0.4 -2.5 0.8 -2.5 0.85 -2.45 0.9 -2.25 0.9 -2.05 0.9 -1.0 0.85 -0.2 0.9 0.3 0.95 0.6 0.95 0.6 1.0 0.65 0.95 1.0 1.0 1.4 1.0 1.75 1.05 1.95 1.0 2.15 1.0 1.95 0.65 1.9 0.6 1.55 0.25 1.5 0.2 1.0 -0.35 1.0 -0.65 0.95 -0.75 Z" fill="none" stroke="#000000" stroke-linecap="round" stroke-linejoin="round" stroke-opacity="0.4509804" stroke-width="0.1"/>
  </g>
</svg>
