<?xml version="1.0" encoding="UTF-8" standalone="no"?>
<svg xmlns:xlink="http://www.w3.org/1999/xlink" height="2.85px" width="7.0px" xmlns="http://www.w3.org/2000/svg">
  <g transform="matrix(1.0, 0.0, 0.0, 1.0, 3.8, 1.7)">
    <path d="M0.1 -1.3 L0.1 -1.25 0.0 -1.25 -0.3 -1.55 -0.3 -1.6 -0.3 -1.6 -0.6 -1.3 -0.7 -1.3 -0.7 -1.3 -0.55 -1.4 -0.45 -1.55 -0.3 -1.65 -0.25 -1.65 -0.3 -1.65 -0.3 -1.6 -0.15 -1.55 -0.05 -1.4 0.1 -1.3 M0.15 -0.9 L0.4 -0.95 0.55 -0.95 0.55 -1.05 0.6 -1.05 0.6 -1.05 0.75 -1.0 0.9 -0.85 0.9 -0.8 0.85 -0.85 0.7 -0.85 0.7 -0.85 Q0.65 -0.85 0.65 -0.8 L0.65 -0.8 0.55 -0.85 Q0.5 -0.85 0.5 -0.8 L0.45 -0.85 0.4 -0.85 0.4 -0.65 Q0.4 -0.6 0.45 -0.6 L0.55 -0.6 0.8 -0.55 0.9 -0.55 0.9 -0.55 0.8 -0.55 0.9 -0.45 0.75 -0.55 0.65 -0.55 0.2 -0.55 0.85 0.45 0.9 0.55 1.0 0.65 1.05 0.75 1.1 0.75 1.25 0.8 1.35 0.75 1.85 0.75 1.85 0.9 1.85 1.05 1.05 1.05 1.0 1.0 0.85 0.8 0.8 0.65 0.75 0.55 0.6 0.3 0.1 -0.55 -0.1 -0.55 -0.15 -0.55 -0.3 -0.55 -0.3 -0.55 -0.45 -0.55 -0.5 -0.55 -0.7 -0.55 Q-1.05 0.1 -1.2 0.3 L-1.35 0.55 -1.4 0.6 -1.45 0.8 -1.55 0.95 -1.65 1.05 -2.45 1.05 -2.45 0.9 -2.45 0.75 -2.45 0.7 -1.95 0.75 -1.85 0.75 -1.7 0.75 -1.65 0.7 -1.65 0.7 -1.55 0.6 -1.5 0.55 -1.45 0.45 -0.8 -0.55 -1.25 -0.55 -1.35 -0.55 -1.45 -0.5 -1.4 -0.55 -1.5 -0.55 -1.5 -0.6 -1.4 -0.6 -1.15 -0.6 -1.05 -0.6 Q-0.95 -0.6 -0.95 -0.65 L-1.0 -0.85 -1.05 -0.85 -1.1 -0.8 Q-1.1 -0.85 -1.15 -0.85 L-1.25 -0.8 -1.25 -0.85 Q-1.25 -0.9 -1.3 -0.9 L-1.3 -0.9 -1.4 -0.85 -1.5 -0.85 -1.5 -0.9 -1.35 -1.0 -1.2 -1.1 -1.2 -1.05 -1.15 -1.05 -1.15 -1.0 Q-1.05 -0.95 -0.95 -0.95 L-0.75 -0.9 -0.6 -0.9 -0.3 -0.95 -0.3 -0.95 0.0 -0.9 0.15 -0.9 M3.05 0.7 L2.25 0.9 2.2 0.7 2.85 0.55 2.9 0.65 2.7 0.7 2.55 0.75 2.5 0.8 2.75 0.75 2.85 0.7 3.0 0.65 3.05 0.7 M0.65 1.0 L0.05 1.0 0.05 0.95 0.6 0.95 0.65 1.0 M-0.6 1.0 L-1.25 1.0 -1.2 0.9 -0.6 0.95 -0.6 1.0 M-2.85 0.85 L-3.65 0.7 -3.6 0.65 -3.45 0.7 -3.35 0.7 -3.1 0.8 -3.1 0.8 Q-3.1 0.75 -3.15 0.7 L-3.3 0.7 -3.5 0.6 -3.45 0.55 -2.8 0.65 -2.85 0.85 M-0.85 -1.15 L-0.85 -1.25 -0.75 -1.2 -0.75 -1.15 -0.85 -1.15 M0.25 -1.2 L0.25 -1.1 0.15 -1.1 0.15 -1.2 0.25 -1.2 M0.05 -1.2 L0.05 -1.1 -0.05 -1.1 -0.25 -1.15 -0.05 -1.15 0.05 -1.2 M0.2 0.6 L0.15 0.5 0.15 0.4 0.2 0.4 0.2 0.5 0.25 0.45 0.25 0.5 0.3 0.45 0.25 0.4 0.15 0.4 0.1 0.35 0.15 0.25 0.1 0.15 0.1 0.1 0.15 0.1 0.15 0.15 0.2 0.1 0.25 0.2 0.25 0.25 0.25 0.0 0.2 0.0 0.1 0.05 0.1 -0.15 0.1 -0.1 0.15 -0.1 0.15 -0.15 Q0.1 -0.15 0.1 -0.35 L0.1 -0.35 0.15 -0.35 0.45 0.15 0.65 0.6 0.6 0.6 0.55 0.6 0.4 0.6 0.3 0.6 0.2 0.6 M0.1 -0.6 L0.2 -0.6 0.25 -0.6 0.25 -0.85 -0.3 -0.85 -0.3 -0.9 -0.85 -0.9 -0.85 -0.6 -0.75 -0.6 -0.7 -0.6 -0.5 -0.6 -0.4 -0.6 -0.3 -0.6 -0.3 -0.6 -0.2 -0.55 -0.1 -0.6 0.1 -0.6 M0.9 -0.45 L1.1 -0.35 Q1.1 -0.3 1.15 -0.3 L1.3 -0.3 Q1.55 -0.15 1.9 0.0 L2.65 0.35 2.5 0.45 2.3 0.5 0.9 -0.45 M1.6 0.45 L1.25 0.05 1.35 0.15 1.4 0.15 1.4 0.1 1.75 0.4 1.8 0.4 1.75 0.3 1.85 0.4 1.95 0.45 2.0 0.5 1.95 0.55 1.85 0.55 1.65 0.5 1.6 0.45 M0.6 0.8 L0.6 0.9 0.15 0.9 Q0.0 0.9 -0.05 0.85 L0.6 0.8 M-0.55 0.8 Q-0.6 0.9 -0.75 0.9 L-1.2 0.85 -1.2 0.8 -0.55 0.8 M-3.25 0.35 L-2.5 0.0 Q-2.15 -0.15 -1.9 -0.3 L-1.75 -0.3 -1.7 -0.35 -1.6 -0.4 -1.5 -0.45 -2.9 0.5 -3.1 0.45 -3.25 0.35 M-0.6 -1.1 L-0.65 -1.2 -0.55 -1.2 -0.35 -1.15 -0.55 -1.1 -0.6 -1.1 M-1.25 0.55 L-1.0 0.1 -0.75 -0.35 -0.7 -0.35 -0.7 -0.35 Q-0.7 -0.2 -0.75 -0.15 L-0.75 -0.1 -0.7 -0.1 -0.7 -0.15 -0.7 0.05 -0.8 -0.05 -0.85 -0.05 -0.85 0.3 -0.85 0.15 -0.8 0.1 -0.75 0.15 -0.75 0.1 -0.7 0.1 -0.7 0.15 -0.75 0.25 -0.7 0.3 -0.75 0.35 -0.85 0.35 -0.9 0.45 -0.85 0.45 -0.85 0.45 -0.8 0.45 -0.8 0.45 -0.75 0.4 -0.75 0.5 -0.8 0.6 -0.8 0.6 -0.9 0.6 -0.95 0.6 -1.15 0.55 -1.2 0.55 -1.25 0.55 M-0.35 -0.05 L-0.35 -0.05 -0.5 0.0 -0.5 -0.05 -0.4 -0.15 -0.35 -0.05 M-0.1 -0.05 L-0.1 0.0 -0.25 -0.05 -0.2 -0.1 Q-0.15 -0.05 -0.1 -0.05 M-0.25 0.35 L-0.25 0.25 -0.25 0.2 -0.3 0.25 -0.3 0.15 -0.25 0.05 -0.2 0.05 -0.1 0.0 -0.05 0.35 -0.25 0.35 M-0.3 0.05 L-0.3 0.25 -0.35 0.2 -0.35 0.2 -0.35 0.35 -0.5 0.35 -0.55 0.35 -0.5 0.0 -0.45 0.05 -0.35 0.05 -0.3 0.05 M-0.25 0.4 L-0.2 0.4 -0.05 0.4 -0.05 0.6 -0.15 0.6 -0.25 0.6 -0.25 0.4 M-0.35 0.6 L-0.45 0.6 -0.55 0.6 -0.55 0.4 -0.45 0.4 -0.35 0.4 -0.35 0.6 M-2.55 0.5 L-2.6 0.5 -2.55 0.45 -2.45 0.4 Q-2.4 0.3 -2.35 0.3 L-2.4 0.35 -2.35 0.35 -2.0 0.1 -2.0 0.1 -1.95 0.1 -1.85 0.0 -1.8 0.05 -2.15 0.45 -2.25 0.5 -2.45 0.5 -2.55 0.5" fill="#18181c" fill-rule="evenodd" stroke="none"/>
    <path d="M0.4 -0.4 L0.45 -0.4 0.45 -0.4 0.5 -0.35 0.45 -0.35 0.45 -0.3 0.55 -0.35 0.65 -0.3 0.65 -0.35 0.55 -0.35 0.6 -0.4 0.6 -0.4 0.65 -0.35 0.65 -0.3 0.7 -0.3 0.65 -0.35 0.8 -0.3 0.8 -0.35 0.75 -0.35 0.7 -0.4 0.75 -0.4 0.75 -0.4 0.4 -0.4 0.4 -0.4 M0.45 -0.45 L0.65 -0.45 0.65 -0.45 0.65 -0.5 0.4 -0.5 0.45 -0.45 0.45 -0.45 0.6 -0.45 0.6 -0.45 0.45 -0.45 0.45 -0.45 M0.65 -0.55 L0.65 -0.55 1.25 0.05 1.6 0.45 1.2 0.5 1.1 0.5 1.05 0.45 0.85 0.45 0.2 -0.55 0.65 -0.55 M0.6 -0.4 L0.65 -0.4 0.65 -0.4 0.6 -0.4 0.6 -0.4 M0.5 -0.35 L0.5 -0.4 0.55 -0.4 0.5 -0.35 M0.65 -0.35 L0.65 -0.4 0.7 -0.4 0.7 -0.35 0.65 -0.35 0.7 -0.35 0.7 -0.35 0.65 -0.35 0.65 -0.35 M0.7 -0.25 L0.7 -0.25 0.55 -0.25 0.55 -0.2 0.85 -0.2 0.85 -0.25 0.75 -0.25 0.7 -0.25 M0.65 -0.2 L0.8 -0.2 0.8 -0.2 0.65 -0.2 0.65 -0.2 M0.7 -0.1 L0.7 -0.1 0.65 -0.15 0.9 -0.15 0.95 -0.1 0.95 -0.1 0.9 -0.15 0.6 -0.15 0.65 -0.1 0.7 -0.1 0.7 -0.1 M0.75 -0.1 L0.85 -0.1 0.85 -0.1 0.9 -0.1 0.85 -0.15 0.7 -0.15 0.75 -0.1 0.75 -0.15 0.85 -0.15 0.85 -0.1 0.75 -0.1 M0.65 -0.15 L0.85 -0.15 0.8 -0.2 0.6 -0.2 0.65 -0.15 M1.7 0.55 L1.75 0.6 1.65 0.6 1.3 0.65 1.0 0.65 0.9 0.55 1.15 0.55 1.7 0.55 M1.1 0.1 Q1.15 0.1 1.1 0.1 L1.0 0.0 0.85 0.0 0.8 0.0 Q0.75 0.05 0.75 0.05 L0.95 0.15 0.95 0.1 0.85 0.1 0.8 0.05 0.8 0.0 0.9 0.0 0.9 0.0 1.0 0.1 1.05 0.15 1.1 0.1 M1.05 0.1 L1.0 0.05 1.05 0.1 M1.05 0.25 L1.05 0.3 1.1 0.3 1.05 0.25 M1.15 0.25 L0.95 0.25 1.15 0.25 1.25 0.4 1.3 0.4 1.25 0.35 1.3 0.35 1.25 0.35 1.2 0.25 1.15 0.25 M1.25 0.25 L1.25 0.3 1.3 0.3 1.25 0.25 M1.15 0.3 L1.1 0.3 1.15 0.3 M1.2 0.35 L1.05 0.35 1.05 0.3 1.0 0.3 1.0 0.35 0.95 0.35 1.0 0.35 1.05 0.4 1.1 0.4 1.15 0.4 1.1 0.4 1.05 0.35 1.2 0.35 1.15 0.35 1.1 0.35 1.15 0.4 1.2 0.35 M0.95 0.25 L0.95 0.3 1.0 0.3 1.05 0.3 0.95 0.25 M-1.55 -0.1 L-1.55 -0.1 -1.5 -0.15 -1.25 -0.15 -1.3 -0.1 -1.3 -0.1 -1.3 -0.1 -1.25 -0.1 -1.2 -0.2 -1.5 -0.2 -1.55 -0.1 M-1.25 -0.55 L-1.25 -0.55 -0.8 -0.55 -1.45 0.45 -1.65 0.45 -1.7 0.45 -1.8 0.45 -2.15 0.45 -1.8 0.05 -1.25 -0.55 M-1.5 -0.1 L-1.45 -0.1 -1.45 -0.1 -1.35 -0.1 -1.3 -0.15 -1.45 -0.15 -1.5 -0.1 M-1.4 -0.2 L-1.4 -0.2 -1.25 -0.2 -1.25 -0.2 -1.4 -0.2 M-1.4 -0.25 L-1.45 -0.2 -1.25 -0.2 -1.2 -0.25 -1.4 -0.25 M-1.3 -0.25 L-1.3 -0.25 -1.45 -0.25 -1.45 -0.25 -1.15 -0.25 -1.15 -0.25 -1.3 -0.25 -1.3 -0.25 -1.25 -0.25 -1.3 -0.25 M-1.25 -0.45 L-1.05 -0.45 -1.0 -0.5 -1.25 -0.5 -1.25 -0.45 M-1.1 -0.4 L-1.1 -0.4 -1.15 -0.4 -1.1 -0.4 M-1.25 -0.35 L-1.25 -0.35 -1.15 -0.35 -1.05 -0.35 -1.05 -0.35 -1.1 -0.35 -1.05 -0.4 -1.0 -0.4 -1.05 -0.4 -1.0 -0.4 -1.0 -0.45 -1.35 -0.45 -1.35 -0.4 -1.3 -0.4 -1.35 -0.35 -1.35 -0.35 -1.4 -0.35 -1.25 -0.35 -1.3 -0.35 -1.25 -0.35 -1.25 -0.35 -1.3 -0.35 -1.3 -0.4 -1.3 -0.4 -1.25 -0.4 -1.25 -0.4 -1.25 -0.4 -1.2 -0.4 -1.2 -0.4 -1.25 -0.4 -1.25 -0.35 -1.2 -0.4 -1.15 -0.4 -1.15 -0.35 -1.25 -0.35 M-1.35 0.05 L-1.35 0.0 -1.45 0.0 -1.6 0.0 -1.7 0.05 -1.7 0.1 -1.65 0.1 -1.6 0.1 -1.5 0.0 -1.5 0.0 -1.4 0.0 -1.4 0.05 -1.45 0.1 -1.55 0.1 -1.55 0.1 -1.45 0.1 -1.35 0.05 M-1.75 0.55 L-1.5 0.55 -1.55 0.6 -1.9 0.65 -2.25 0.6 -2.35 0.6 -2.3 0.55 -1.75 0.55 M-1.6 0.3 L-1.55 0.25 -1.55 0.25 -1.65 0.3 -1.6 0.3 -1.65 0.3 -1.65 0.3 -1.8 0.3 -1.8 0.35 -1.65 0.35 -1.7 0.4 -1.75 0.4 -1.75 0.4 -1.7 0.4 -1.65 0.4 -1.6 0.35 -1.55 0.35 -1.55 0.3 -1.6 0.3 -1.6 0.3 M-1.7 0.25 L-1.75 0.25 -1.75 0.3 -1.7 0.3 -1.7 0.25 -1.7 0.3 -1.65 0.3 -1.65 0.25 -1.55 0.25 -1.55 0.25 -1.75 0.25 -1.75 0.25 -1.7 0.25 M-1.65 0.1 L-1.65 0.05 Q-1.65 0.05 -1.6 0.0 L-1.5 0.0 -1.65 0.1 -1.65 0.1 M-1.75 0.35 L-1.7 0.35 -1.75 0.35 -1.8 0.35 -1.75 0.35 M-1.8 0.3 L-1.8 0.25 -1.85 0.25 -1.9 0.3 -1.85 0.3 -1.85 0.3 -1.9 0.35 -1.9 0.35 -1.85 0.35 -1.9 0.4 -1.85 0.4 -1.75 0.25 -1.8 0.25 -1.8 0.3" fill="#d2cdc2" fill-rule="evenodd" stroke="none"/>
    <path d="M2.9 0.45 L2.95 0.5 2.9 0.55 2.85 0.55 2.2 0.7 2.0 0.7 1.85 0.55 1.95 0.55 2.2 0.5 2.25 0.5 2.3 0.5 2.5 0.45 2.65 0.35 2.9 0.45 M-3.55 0.5 L-3.5 0.45 -3.5 0.45 Q-3.35 0.4 -3.25 0.35 L-3.25 0.35 -3.1 0.45 -2.9 0.5 -2.85 0.5 -2.8 0.5 -2.55 0.5 -2.45 0.5 -2.6 0.7 -2.8 0.65 -3.45 0.55 -3.5 0.5 -3.55 0.5 M0.05 0.6 L0.1 0.6 0.2 0.6 0.3 0.6 0.4 0.6 0.55 0.6 0.6 0.6 0.7 0.8 0.6 0.8 -0.05 0.85 -0.2 0.85 -0.15 0.8 -0.1 0.8 -0.05 0.75 Q-0.1 0.7 -0.1 0.7 L-0.05 0.7 -0.1 0.65 -0.15 0.6 -0.05 0.6 0.05 0.6 M1.1 0.5 L1.2 0.5 1.6 0.45 1.65 0.5 1.7 0.55 1.15 0.55 1.1 0.5 M1.75 0.6 L1.85 0.75 1.35 0.75 1.3 0.65 1.65 0.6 1.75 0.6 M-0.4 0.8 L-0.55 0.8 -1.2 0.8 -1.3 0.8 -1.2 0.55 -1.15 0.55 -0.95 0.6 -0.9 0.6 -0.8 0.6 -0.8 0.6 -0.7 0.6 -0.65 0.6 -0.55 0.6 -0.45 0.6 -0.5 0.6 -0.5 0.7 -0.55 0.75 -0.5 0.8 -0.45 0.75 -0.4 0.8 M-1.7 0.45 L-1.75 0.55 -2.3 0.55 -2.25 0.5 -2.15 0.45 -1.8 0.45 -1.7 0.45 M-1.95 0.75 L-2.45 0.7 -2.35 0.6 -2.25 0.6 -1.9 0.65 -1.95 0.7 -1.95 0.75" fill="#8a1b1b" fill-rule="evenodd" stroke="none"/>
    <path d="M-0.1 -0.55 L0.05 0.6 -0.05 0.6 -0.05 0.4 -0.2 0.4 -0.25 0.4 -0.35 0.4 -0.45 0.4 -0.55 0.4 -0.55 0.6 -0.65 0.6 -0.5 -0.55 -0.45 -0.55 -0.45 -0.45 -0.15 -0.45 -0.15 -0.55 -0.1 -0.55 M0.9 -0.45 L0.9 -0.45 2.3 0.5 2.25 0.5 2.2 0.5 0.65 -0.55 0.75 -0.55 0.9 -0.45 M0.65 -0.55 L0.65 -0.55 M-1.5 -0.45 L-1.5 -0.5 -1.45 -0.5 -1.35 -0.55 -1.25 -0.55 -1.25 -0.55 -2.8 0.5 -2.85 0.5 -2.9 0.5 -1.5 -0.45 M-0.5 -0.05 L-0.5 0.0 -0.35 -0.05 -0.35 -0.05 -0.25 -0.05 -0.1 0.0 -0.1 -0.05 -0.15 -0.4 -0.45 -0.4 -0.5 -0.05 M-0.25 0.35 L-0.05 0.35 -0.1 0.0 -0.2 0.05 -0.25 0.05 -0.3 0.05 -0.35 0.05 -0.45 0.05 -0.5 0.0 -0.55 0.35 -0.5 0.35 -0.35 0.35 -0.25 0.35" fill="#8d8f9a" fill-rule="evenodd" stroke="none"/>
    <path d="M0.0 -1.25 L0.1 -1.25 0.1 -1.3 0.25 -1.2 0.15 -1.2 0.05 -1.2 -0.05 -1.15 -0.25 -1.15 -0.05 -1.1 0.05 -1.1 0.15 -1.1 0.25 -1.1 0.2 -1.05 0.2 -1.05 0.15 -1.0 0.15 -0.9 0.0 -0.9 -0.3 -0.95 -0.3 -0.95 -0.6 -0.9 -0.75 -0.9 -0.75 -1.05 -0.8 -1.05 -0.8 -1.1 -0.85 -1.15 -0.75 -1.15 -0.6 -1.1 -0.55 -1.1 -0.35 -1.15 -0.55 -1.2 -0.65 -1.2 -0.75 -1.2 -0.85 -1.25 -0.7 -1.3 -0.7 -1.3 -0.6 -1.3 -0.5 -1.25 -0.5 -1.35 Q-0.4 -1.35 -0.4 -1.4 L-0.35 -1.4 -0.3 -1.5 -0.3 -1.55 -0.3 -1.5 Q-0.25 -1.5 -0.25 -1.4 L-0.2 -1.4 Q-0.2 -1.3 -0.1 -1.3 L-0.1 -1.25 0.0 -1.25 M0.9 -0.8 L0.9 -0.55 0.8 -0.55 0.55 -0.6 0.45 -0.6 Q0.4 -0.6 0.4 -0.65 L0.4 -0.85 0.45 -0.85 0.5 -0.8 Q0.5 -0.85 0.55 -0.85 L0.65 -0.8 0.65 -0.8 Q0.65 -0.85 0.7 -0.85 L0.7 -0.85 0.85 -0.85 0.9 -0.8 M0.8 -0.55 Q1.3 -0.4 1.95 -0.05 L2.45 0.2 2.7 0.35 Q2.85 0.35 2.9 0.4 L2.9 0.45 2.65 0.35 1.9 0.0 Q1.55 -0.15 1.3 -0.3 L1.15 -0.3 Q1.1 -0.3 1.1 -0.35 L0.9 -0.45 0.8 -0.55 M-3.5 0.45 L-3.5 0.4 -3.3 0.3 -3.3 0.3 -3.05 0.2 -2.85 0.05 -2.55 -0.05 Q-1.9 -0.45 -1.4 -0.55 L-1.45 -0.5 -1.5 -0.5 -1.5 -0.45 -1.6 -0.4 -1.7 -0.35 -1.75 -0.3 -1.9 -0.3 Q-2.15 -0.15 -2.5 0.0 L-3.25 0.35 -3.25 0.35 Q-3.35 0.4 -3.5 0.45 L-3.5 0.45 M-1.5 -0.6 L-1.5 -0.85 -1.4 -0.85 -1.3 -0.9 -1.3 -0.9 Q-1.25 -0.9 -1.25 -0.85 L-1.25 -0.8 -1.15 -0.85 Q-1.1 -0.85 -1.1 -0.8 L-1.05 -0.85 -1.0 -0.85 -0.95 -0.65 Q-0.95 -0.6 -1.05 -0.6 L-1.15 -0.6 -1.4 -0.6 -1.5 -0.6 M0.1 -0.6 L-0.1 -0.6 -0.2 -0.55 -0.3 -0.6 -0.3 -0.6 -0.4 -0.6 -0.5 -0.6 -0.7 -0.6 -0.75 -0.6 -0.85 -0.6 -0.85 -0.9 -0.3 -0.9 -0.3 -0.85 0.25 -0.85 0.25 -0.6 0.2 -0.6 0.1 -0.6 M0.9 -0.45 L0.9 -0.45" fill="#121215" fill-rule="evenodd" stroke="none"/>
    <path d="M-0.6 -1.3 L-0.3 -1.6 -0.3 -1.6 -0.3 -1.55 0.0 -1.25 -0.1 -1.25 -0.1 -1.3 Q-0.2 -1.3 -0.2 -1.4 L-0.25 -1.4 Q-0.25 -1.5 -0.3 -1.5 L-0.3 -1.55 -0.3 -1.5 -0.35 -1.4 -0.4 -1.4 Q-0.4 -1.35 -0.5 -1.35 L-0.5 -1.25 -0.6 -1.3 M0.15 -1.2 L0.15 -1.1 0.05 -1.1 0.05 -1.2 0.15 -1.2 M-0.75 -1.15 L-0.75 -1.2 -0.65 -1.2 -0.6 -1.1 -0.75 -1.15" fill="#36363f" fill-rule="evenodd" stroke="none"/>
    <path d="M0.2 -1.05 L0.2 -1.05 0.35 -1.05 0.55 -1.1 0.6 -1.05 0.55 -1.05 0.55 -0.95 0.4 -0.95 0.15 -0.9 0.15 -1.0 0.2 -1.05 M-1.2 -1.05 L-1.15 -1.1 -0.95 -1.05 -0.8 -1.05 -0.8 -1.05 -0.75 -1.05 -0.75 -0.9 -0.95 -0.95 Q-1.05 -0.95 -1.15 -1.0 L-1.15 -1.05 -1.2 -1.05" fill="#080809" fill-rule="evenodd" stroke="none"/>
    <path d="M2.95 0.5 L3.05 0.6 3.1 0.65 3.05 0.7 3.0 0.65 2.85 0.7 2.75 0.75 2.5 0.8 2.55 0.75 2.7 0.7 2.9 0.65 2.85 0.55 2.9 0.55 2.95 0.5 M2.25 0.9 L2.1 0.9 1.85 0.9 1.85 0.75 2.0 0.7 2.2 0.7 2.25 0.9 M1.0 1.0 L0.65 1.0 0.6 0.95 0.05 0.95 0.05 1.0 -0.3 1.0 -0.3 1.0 -0.6 1.0 -0.6 0.95 -1.2 0.9 -1.25 1.0 -1.55 0.95 -1.45 0.8 -1.3 0.8 -1.2 0.8 -1.2 0.85 -0.75 0.9 Q-0.6 0.9 -0.55 0.8 L-0.4 0.8 -0.3 0.8 -0.3 0.85 -0.2 0.85 -0.05 0.85 Q0.0 0.9 0.15 0.9 L0.6 0.9 0.6 0.8 0.7 0.8 0.85 0.8 1.0 1.0 M-2.45 0.9 L-2.7 0.9 -2.85 0.85 -2.8 0.65 -2.6 0.7 -2.6 0.7 -2.45 0.7 -2.45 0.75 -2.45 0.9 M-3.65 0.7 L-3.7 0.6 -3.65 0.55 -3.55 0.5 -3.5 0.5 -3.45 0.55 -3.5 0.6 -3.3 0.7 -3.15 0.7 Q-3.1 0.75 -3.1 0.8 L-3.1 0.8 -3.35 0.7 -3.45 0.7 -3.6 0.65 -3.65 0.7 M0.65 0.6 L0.45 0.15 0.15 -0.35 0.1 -0.35 0.1 -0.35 Q0.1 -0.15 0.15 -0.15 L0.15 -0.1 0.1 -0.1 0.1 -0.15 0.1 0.05 0.2 0.0 0.25 0.0 0.25 0.25 0.25 0.2 0.2 0.1 0.15 0.15 0.15 0.1 0.1 0.1 0.1 0.15 0.15 0.25 0.1 0.35 0.15 0.4 0.25 0.4 0.3 0.45 0.25 0.5 0.25 0.45 0.2 0.5 0.2 0.4 0.15 0.4 0.15 0.5 0.2 0.6 0.1 0.6 0.05 0.6 -0.1 -0.55 0.1 -0.55 0.6 0.3 0.75 0.55 0.65 0.6 M0.65 -0.55 L2.2 0.5 1.95 0.55 2.0 0.5 1.95 0.45 1.85 0.4 1.75 0.3 1.8 0.4 1.75 0.4 1.4 0.1 1.4 0.15 1.35 0.15 1.25 0.05 0.65 -0.55 M-1.35 0.55 L-1.2 0.3 Q-1.05 0.1 -0.7 -0.55 L-0.5 -0.55 -0.65 0.6 -0.7 0.6 -0.8 0.6 -0.75 0.5 -0.75 0.4 -0.8 0.45 -0.8 0.45 -0.85 0.45 -0.85 0.45 -0.9 0.45 -0.85 0.35 -0.75 0.35 -0.7 0.3 -0.75 0.25 -0.7 0.15 -0.7 0.1 -0.75 0.1 -0.75 0.15 -0.8 0.1 -0.85 0.15 -0.85 0.3 -0.85 -0.05 -0.8 -0.05 -0.7 0.05 -0.7 -0.15 -0.7 -0.1 -0.75 -0.1 -0.75 -0.15 Q-0.7 -0.2 -0.7 -0.35 L-0.7 -0.35 -0.75 -0.35 -1.0 0.1 -1.25 0.55 -1.35 0.55 M-0.45 -0.55 L-0.3 -0.55 -0.3 -0.55 -0.15 -0.55 -0.15 -0.45 -0.45 -0.45 -0.45 -0.55 M-0.5 -0.05 L-0.45 -0.4 -0.15 -0.4 -0.1 -0.05 Q-0.15 -0.05 -0.2 -0.1 L-0.25 -0.05 -0.35 -0.05 -0.4 -0.15 -0.5 -0.05 M-0.25 0.05 L-0.3 0.15 -0.3 0.25 -0.25 0.2 -0.25 0.25 -0.25 0.35 -0.35 0.35 -0.35 0.2 -0.35 0.2 -0.3 0.25 -0.3 0.05 -0.25 0.05 M-0.35 0.4 L-0.25 0.4 -0.25 0.6 -0.3 0.6 -0.3 0.6 -0.35 0.6 -0.35 0.4 M-1.8 0.05 L-1.85 0.0 -1.95 0.1 -2.0 0.1 -2.0 0.1 -2.35 0.35 -2.4 0.35 -2.35 0.3 Q-2.4 0.3 -2.45 0.4 L-2.55 0.45 -2.6 0.5 -2.55 0.5 -2.8 0.5 -1.25 -0.55 -1.8 0.05" fill="#101012" fill-rule="evenodd" stroke="none"/>
    <path d="M0.65 0.6 L0.75 0.55 0.8 0.65 0.85 0.8 0.7 0.8 0.6 0.6 0.65 0.6 M0.85 0.45 L1.05 0.45 1.1 0.5 1.15 0.55 0.9 0.55 0.85 0.45 M1.7 0.55 L1.65 0.5 1.85 0.55 2.0 0.7 1.85 0.75 1.75 0.6 1.7 0.55 M1.3 0.65 L1.35 0.75 1.25 0.8 1.1 0.75 1.05 0.75 1.0 0.65 1.3 0.65 M-0.2 0.85 L-0.3 0.85 -0.3 0.8 -0.4 0.8 -0.45 0.75 -0.5 0.8 -0.55 0.75 -0.5 0.7 -0.5 0.6 -0.45 0.6 -0.35 0.6 -0.3 0.6 -0.3 0.6 -0.25 0.6 -0.15 0.6 -0.1 0.65 -0.05 0.7 -0.1 0.7 Q-0.1 0.7 -0.05 0.75 L-0.1 0.8 -0.15 0.8 -0.2 0.85 M-1.3 0.8 L-1.45 0.8 -1.4 0.6 -1.35 0.55 -1.25 0.55 -1.2 0.55 -1.3 0.8 M-1.45 0.45 L-1.5 0.55 -1.75 0.55 -1.7 0.45 -1.65 0.45 -1.45 0.45 M-1.55 0.6 L-1.65 0.7 -1.65 0.7 -1.7 0.75 -1.85 0.75 -1.95 0.75 -1.95 0.7 -1.9 0.65 -1.55 0.6 M-2.45 0.5 L-2.25 0.5 -2.3 0.55 -2.35 0.6 -2.45 0.7 -2.6 0.7 -2.6 0.7 -2.45 0.5" fill="#511010" fill-rule="evenodd" stroke="none"/>
    <path d="M0.45 -0.45 L0.45 -0.45 0.6 -0.45 0.6 -0.45 0.45 -0.45 0.45 -0.45 0.4 -0.5 0.65 -0.5 0.65 -0.45 0.65 -0.45 0.45 -0.45 M0.4 -0.4 L0.4 -0.4 0.75 -0.4 0.75 -0.4 0.7 -0.4 0.75 -0.35 0.8 -0.35 0.8 -0.3 0.65 -0.35 0.7 -0.3 0.65 -0.3 0.65 -0.35 0.6 -0.4 0.6 -0.4 0.55 -0.35 0.65 -0.35 0.65 -0.3 0.55 -0.35 0.45 -0.3 0.45 -0.35 0.5 -0.35 0.45 -0.4 0.45 -0.4 0.4 -0.4 M0.65 -0.15 L0.6 -0.2 0.8 -0.2 0.85 -0.15 0.65 -0.15 0.7 -0.1 0.7 -0.1 0.7 -0.1 0.65 -0.1 0.6 -0.15 0.9 -0.15 0.95 -0.1 0.95 -0.1 0.9 -0.15 0.65 -0.15 M0.75 -0.15 L0.75 -0.1 0.85 -0.1 0.85 -0.15 0.75 -0.15 M0.75 -0.1 L0.7 -0.15 0.85 -0.15 0.9 -0.1 0.85 -0.1 0.85 -0.1 0.75 -0.1 M0.65 -0.2 L0.65 -0.2 0.8 -0.2 0.8 -0.2 0.65 -0.2 M0.7 -0.25 L0.75 -0.25 0.85 -0.25 0.85 -0.2 0.55 -0.2 0.55 -0.25 0.7 -0.25 0.7 -0.25 M0.65 -0.35 L0.65 -0.35 0.7 -0.35 0.7 -0.35 0.65 -0.35 0.7 -0.35 0.7 -0.4 0.65 -0.4 0.65 -0.35 M0.5 -0.35 L0.55 -0.4 0.5 -0.4 0.5 -0.35 M0.6 -0.4 L0.6 -0.4 0.65 -0.4 0.65 -0.4 0.6 -0.4 M1.2 0.35 L1.15 0.4 1.1 0.35 1.15 0.35 1.2 0.35 1.05 0.35 1.1 0.4 1.15 0.4 1.1 0.4 1.05 0.4 1.0 0.35 0.95 0.35 1.0 0.35 1.0 0.3 1.05 0.3 1.05 0.35 1.2 0.35 M1.15 0.3 L1.1 0.3 1.15 0.3 M1.15 0.25 L1.2 0.25 1.25 0.35 1.3 0.35 1.25 0.35 1.3 0.4 1.25 0.4 1.15 0.25 0.95 0.25 1.15 0.25 M1.25 0.25 L1.3 0.3 1.25 0.3 1.25 0.25 M1.05 0.25 L1.1 0.3 1.05 0.3 1.05 0.25 M1.05 0.1 L1.0 0.05 1.05 0.1 M1.1 0.1 L1.05 0.15 1.0 0.1 0.9 0.0 0.9 0.0 0.8 0.0 0.8 0.05 0.85 0.1 0.95 0.1 0.95 0.15 0.75 0.05 Q0.75 0.05 0.8 0.0 L0.85 0.0 1.0 0.0 1.1 0.1 Q1.15 0.1 1.1 0.1 M0.95 0.25 L1.05 0.3 1.0 0.3 0.95 0.3 0.95 0.25 M-1.55 -0.1 L-1.5 -0.2 -1.2 -0.2 -1.25 -0.1 -1.3 -0.1 -1.3 -0.1 -1.3 -0.1 -1.25 -0.15 -1.5 -0.15 -1.55 -0.1 -1.55 -0.1 M-1.2 -0.4 L-1.25 -0.35 -1.15 -0.35 -1.15 -0.4 -1.2 -0.4 -1.2 -0.4 -1.25 -0.4 -1.25 -0.4 -1.25 -0.4 -1.3 -0.4 -1.3 -0.4 -1.3 -0.35 -1.25 -0.35 -1.25 -0.4 -1.2 -0.4 M-1.25 -0.35 L-1.25 -0.35 -1.3 -0.35 -1.25 -0.35 -1.4 -0.35 -1.35 -0.35 -1.35 -0.35 -1.3 -0.4 -1.35 -0.4 -1.35 -0.45 -1.0 -0.45 -1.0 -0.4 -1.05 -0.4 -1.0 -0.4 -1.05 -0.4 -1.1 -0.35 -1.05 -0.35 -1.05 -0.35 -1.15 -0.35 -1.25 -0.35 -1.25 -0.35 M-1.1 -0.4 L-1.15 -0.4 -1.1 -0.4 -1.1 -0.4 M-1.25 -0.45 L-1.25 -0.5 -1.0 -0.5 -1.05 -0.45 -1.25 -0.45 M-1.3 -0.25 L-1.25 -0.25 -1.3 -0.25 -1.3 -0.25 -1.15 -0.25 -1.15 -0.25 -1.45 -0.25 -1.45 -0.25 -1.3 -0.25 -1.3 -0.25 M-1.4 -0.25 L-1.2 -0.25 -1.25 -0.2 -1.45 -0.2 -1.4 -0.25 M-1.4 -0.2 L-1.25 -0.2 -1.25 -0.2 -1.4 -0.2 -1.4 -0.2 M-1.5 -0.1 L-1.45 -0.15 -1.3 -0.15 -1.35 -0.1 -1.45 -0.1 -1.45 -0.1 -1.5 -0.1 M-1.35 0.05 L-1.45 0.1 -1.55 0.1 -1.55 0.1 -1.45 0.1 -1.4 0.05 -1.4 0.0 -1.5 0.0 -1.5 0.0 -1.6 0.1 -1.65 0.1 -1.7 0.1 -1.7 0.05 -1.6 0.0 -1.45 0.0 -1.35 0.0 -1.35 0.05 M-1.65 0.1 L-1.65 0.1 -1.5 0.0 -1.6 0.0 Q-1.65 0.05 -1.65 0.05 L-1.65 0.1 M-1.7 0.25 L-1.75 0.25 -1.75 0.25 -1.55 0.25 -1.55 0.25 -1.65 0.25 -1.65 0.3 -1.7 0.3 -1.7 0.25 -1.7 0.3 -1.75 0.3 -1.75 0.25 -1.7 0.25 M-1.6 0.3 L-1.6 0.3 -1.55 0.3 -1.55 0.35 -1.6 0.35 -1.65 0.4 -1.7 0.4 -1.75 0.4 -1.75 0.4 -1.7 0.4 -1.65 0.35 -1.8 0.35 -1.8 0.3 -1.65 0.3 -1.65 0.3 -1.6 0.3 -1.65 0.3 -1.55 0.25 -1.55 0.25 -1.6 0.3 M-1.8 0.3 L-1.8 0.25 -1.75 0.25 -1.85 0.4 -1.9 0.4 -1.85 0.35 -1.9 0.35 -1.9 0.35 -1.85 0.3 -1.85 0.3 -1.9 0.3 -1.85 0.25 -1.8 0.25 -1.8 0.3 M-1.75 0.35 L-1.8 0.35 -1.75 0.35 -1.7 0.35 -1.75 0.35" fill="#000000" fill-rule="evenodd" stroke="none"/>
    <path d="M0.1 -1.3 L-0.05 -1.4 -0.15 -1.55 -0.3 -1.6 -0.3 -1.65 -0.25 -1.65 -0.3 -1.65 -0.45 -1.55 -0.55 -1.4 -0.7 -1.3 -0.85 -1.25 -0.85 -1.15 -0.8 -1.1 -0.8 -1.05 -0.8 -1.05 -0.95 -1.05 -1.15 -1.1 -1.2 -1.05 -1.2 -1.1 -1.35 -1.0 -1.5 -0.9 -1.5 -0.85 -1.5 -0.6 -1.5 -0.55 -1.4 -0.55 Q-1.9 -0.45 -2.55 -0.05 L-2.85 0.05 -3.05 0.2 -3.3 0.3 -3.3 0.3 -3.5 0.4 -3.5 0.45 -3.55 0.5 -3.65 0.55 -3.7 0.6 -3.65 0.7 -2.85 0.85 -2.7 0.9 -2.45 0.9 -2.45 1.05 -1.65 1.05 -1.55 0.95 -1.25 1.0 -0.6 1.0 -0.3 1.0 -0.3 1.0 0.05 1.0 0.65 1.0 1.0 1.0 1.05 1.05 1.85 1.05 1.85 0.9 2.1 0.9 2.25 0.9 3.05 0.7 3.1 0.65 3.05 0.6 2.95 0.5 2.9 0.45 2.9 0.4 Q2.85 0.35 2.7 0.35 L2.45 0.2 1.95 -0.05 Q1.3 -0.4 0.8 -0.55 L0.9 -0.55 0.9 -0.55 0.9 -0.8 0.9 -0.85 0.75 -1.0 0.6 -1.05 0.55 -1.1 0.35 -1.05 0.2 -1.05 0.2 -1.05 0.2 -1.05 0.25 -1.1 0.25 -1.2 0.1 -1.3 M0.6 -1.05 L0.6 -1.05 Z" fill="none" stroke="#000000" stroke-linecap="round" stroke-linejoin="round" stroke-opacity="0.4509804" stroke-width="0.1"/>
  </g>
</svg>
