<?xml version="1.0" encoding="UTF-8" standalone="no"?>
<svg xmlns:xlink="http://www.w3.org/1999/xlink" height="3.1px" width="2.9px" xmlns="http://www.w3.org/2000/svg">
  <g transform="matrix(1.0, 0.0, 0.0, 1.0, -9.85, 10.1)">
    <path d="M11.0 -9.9 L11.0 -9.85 10.95 -9.85 10.9 -9.85 10.9 -9.85 11.0 -9.9 11.0 -9.9 M11.35 -10.0 L11.35 -10.0 11.4 -10.0 11.4 -10.0 11.35 -10.0 M11.55 -10.05 L11.55 -10.05 11.5 -10.05 11.5 -10.1 11.5 -10.1 11.55 -10.1 11.55 -10.05 M10.35 -7.8 L10.35 -7.85 10.3 -7.9 10.3 -7.95 10.25 -8.05 10.2 -8.2 10.15 -8.3 10.1 -8.4 10.1 -8.45 10.05 -8.5 10.05 -8.55 10.1 -8.6 10.15 -8.65 10.2 -8.7 10.25 -8.8 10.35 -8.9 10.35 -8.95 10.4 -8.95 10.4 -9.0 10.5 -9.1 10.5 -9.2 10.55 -9.25 10.6 -9.3 10.85 -9.55 10.85 -9.5 10.9 -9.5 10.85 -9.45 10.85 -9.4 10.9 -9.4 10.95 -9.45 11.2 -9.7 11.2 -9.65 11.2 -9.65 11.25 -9.65 11.25 -9.7 11.3 -9.7 11.35 -9.75 11.4 -9.75 11.4 -9.75 11.45 -9.75 11.45 -9.8 Q11.45 -9.8 11.55 -9.85 L11.65 -9.9 11.65 -9.95 11.7 -9.95 11.7 -9.9 11.65 -9.85 11.65 -9.8 11.6 -9.75 11.55 -9.7 11.55 -9.65 11.5 -9.6 11.45 -9.55 11.45 -9.55 11.45 -9.5 11.45 -9.5 11.5 -9.45 11.5 -9.45 11.55 -9.4 11.5 -9.4 11.45 -9.35 11.5 -9.3 11.5 -9.3 11.55 -9.3 11.55 -9.3 11.65 -9.25 11.65 -9.2 11.65 -9.2 11.7 -9.15 11.7 -9.1 11.8 -9.1 11.8 -9.1 11.8 -9.1 11.75 -9.1 11.8 -9.05 11.85 -9.05 11.9 -9.0 11.9 -9.0 11.95 -8.95 12.05 -9.0 12.1 -9.0 12.15 -9.0 12.15 -9.0 12.2 -9.0 12.25 -9.0 12.3 -9.0 12.35 -9.0 12.35 -9.0 12.35 -8.95 12.35 -8.9 12.3 -8.85 12.25 -8.85 12.3 -8.8 12.3 -8.8 12.35 -8.8 12.45 -8.75 12.4 -8.7 12.4 -8.7 12.45 -8.7 12.45 -8.7 12.45 -8.65 12.5 -8.65 12.5 -8.65 12.75 -8.6 12.65 -8.55 12.55 -8.55 12.6 -8.5 12.6 -8.5 12.6 -8.5 12.65 -8.45 12.65 -8.45 12.4 -8.45 12.25 -8.4 12.15 -8.4 12.1 -8.4 12.15 -8.4 12.4 -8.35 12.65 -8.25 12.65 -8.25 12.55 -8.25 12.45 -8.2 12.35 -8.25 12.25 -8.25 12.2 -8.25 12.15 -8.25 12.1 -8.2 12.05 -8.25 12.05 -8.25 12.0 -8.2 12.0 -8.2 12.05 -8.2 12.05 -8.15 12.1 -8.1 12.1 -8.05 12.15 -8.0 12.2 -7.95 12.2 -7.95 12.1 -7.95 12.05 -8.0 12.05 -7.9 12.1 -7.85 12.1 -7.85 12.0 -7.85 11.9 -7.9 11.9 -7.9 11.85 -7.85 11.85 -7.9 11.8 -7.9 11.75 -7.9 11.75 -7.85 11.7 -7.8 11.7 -7.75 11.65 -7.75 11.65 -7.75 11.6 -7.75 11.6 -7.75 11.55 -7.7 11.5 -7.7 11.45 -7.75 11.4 -7.75 11.4 -7.7 11.45 -7.65 11.4 -7.65 11.4 -7.6 11.4 -7.55 11.35 -7.55 11.35 -7.55 11.3 -7.55 Q11.25 -7.55 11.25 -7.6 L11.2 -7.6 11.2 -7.6 11.15 -7.6 11.15 -7.6 11.1 -7.65 11.05 -7.65 11.0 -7.7 10.95 -7.75 10.95 -7.7 10.9 -7.7 Q10.9 -7.7 10.85 -7.75 L10.85 -7.75 10.8 -7.75 10.8 -7.7 10.8 -7.6 10.8 -7.6 10.75 -7.6 10.7 -7.65 10.7 -7.65 Q10.7 -7.65 10.65 -7.65 L10.6 -7.5 10.55 -7.55 10.55 -7.6 10.5 -7.6 10.5 -7.65 10.5 -7.65 10.55 -7.6 10.55 -7.6 10.6 -7.65 10.65 -7.65 10.65 -7.75 10.7 -7.75 10.75 -7.85 10.7 -7.9 10.7 -7.95 10.7 -8.0 10.65 -8.05 10.65 -8.1 10.65 -8.15 10.65 -8.2 10.7 -8.2 10.75 -8.15 10.8 -8.15 10.9 -8.05 10.9 -8.05 10.95 -8.05 11.0 -8.0 11.05 -8.0 11.1 -7.95 11.1 -7.85 11.15 -7.85 11.15 -7.85 11.2 -7.8 11.2 -7.8 11.2 -7.75 11.25 -7.75 11.25 -7.7 11.3 -7.7 11.35 -7.7 11.4 -7.7 11.4 -7.8 11.4 -7.8 11.45 -7.8 11.5 -7.8 11.55 -7.8 11.55 -7.8 11.6 -7.8 11.6 -7.85 11.6 -7.9 11.65 -7.9 11.6 -7.9 11.6 -8.0 11.65 -8.0 11.6 -8.05 11.6 -8.1 11.65 -8.1 11.65 -8.05 11.7 -8.05 11.7 -8.0 11.75 -8.0 11.75 -8.0 Q11.8 -7.95 11.8 -7.95 L11.75 -8.05 11.75 -8.1 11.7 -8.1 11.7 -8.1 11.7 -8.15 11.65 -8.2 11.65 -8.2 11.65 -8.25 11.7 -8.25 11.7 -8.25 11.75 -8.25 11.75 -8.25 11.8 -8.25 11.85 -8.25 Q11.85 -8.25 11.9 -8.3 L11.85 -8.35 11.95 -8.3 12.0 -8.3 12.0 -8.3 12.05 -8.3 12.05 -8.3 12.15 -8.3 12.15 -8.3 12.05 -8.35 12.0 -8.4 11.95 -8.4 11.9 -8.45 11.9 -8.5 11.9 -8.5 11.9 -8.55 11.95 -8.55 12.05 -8.55 12.1 -8.5 12.15 -8.55 12.2 -8.55 12.15 -8.6 12.15 -8.65 12.1 -8.7 12.1 -8.75 12.05 -8.75 12.0 -8.8 12.0 -8.85 12.0 -8.85 12.05 -8.9 12.1 -8.9 12.1 -8.9 12.05 -8.95 12.0 -8.9 12.0 -8.9 11.95 -8.95 11.9 -8.95 11.9 -8.95 11.85 -8.95 11.8 -8.95 11.8 -8.95 11.75 -8.95 11.8 -9.0 11.75 -9.0 11.75 -9.0 11.7 -9.0 11.7 -9.05 11.65 -9.05 11.6 -9.05 11.6 -9.05 11.55 -9.1 11.55 -9.1 11.55 -9.2 11.5 -9.2 11.5 -9.2 11.45 -9.2 11.45 -9.2 11.4 -9.15 11.4 -9.2 11.4 -9.25 11.4 -9.25 11.4 -9.3 11.4 -9.3 11.35 -9.25 11.3 -9.25 11.3 -9.2 11.25 -9.15 11.25 -9.15 11.2 -9.15 11.2 -9.05 11.1 -9.0 11.1 -9.05 11.1 -9.05 11.1 -9.1 11.05 -9.0 11.0 -9.0 10.95 -8.95 10.9 -8.9 10.85 -8.9 10.8 -8.9 10.8 -8.9 10.85 -8.95 10.8 -8.95 10.8 -8.95 10.75 -8.95 10.75 -8.95 10.7 -8.95 10.65 -8.9 10.65 -8.95 10.65 -9.0 10.65 -9.0 10.6 -9.05 10.6 -9.05 10.7 -9.1 10.7 -9.05 10.75 -9.05 10.75 -9.15 10.75 -9.25 10.8 -9.3 10.8 -9.35 10.8 -9.4 10.8 -9.45 10.75 -9.4 10.7 -9.3 10.65 -9.25 10.65 -9.2 10.6 -9.15 10.55 -9.1 10.55 -9.05 10.5 -9.0 10.5 -9.0 10.55 -9.0 10.6 -9.0 10.6 -9.0 10.55 -8.95 10.55 -8.95 10.5 -8.95 10.5 -8.9 10.5 -8.9 10.45 -8.9 10.45 -8.8 10.4 -8.8 10.35 -8.8 10.35 -8.75 10.3 -8.65 10.35 -8.65 10.4 -8.6 10.35 -8.6 10.35 -8.55 10.4 -8.55 10.35 -8.5 10.3 -8.5 10.25 -8.45 10.25 -8.45 10.3 -8.35 10.35 -8.35 10.4 -8.3 10.4 -8.2 10.45 -8.05 10.45 -7.95 10.5 -7.9 10.5 -7.9 Q10.5 -7.9 10.55 -7.9 L10.55 -7.9 10.6 -7.85 10.6 -7.8 10.6 -7.75 10.6 -7.7 10.55 -7.7 10.55 -7.7 10.5 -7.75 10.5 -7.75 10.45 -7.75 10.45 -7.8 10.4 -7.8 10.4 -7.85 10.35 -7.85 10.35 -7.8 M12.35 -10.05 L12.35 -10.05 12.4 -10.05 12.35 -10.0 12.35 -10.0 12.35 -10.05 M12.0 -9.95 L12.0 -9.9 12.0 -9.9 11.95 -9.9 11.95 -9.9 12.0 -9.95 12.0 -9.95 12.0 -9.95 M12.5 -10.0 L12.5 -10.05 12.5 -10.05 12.5 -10.0 M12.4 -8.55 L12.4 -8.55 12.35 -8.55 12.35 -8.5 12.35 -8.5 12.4 -8.5 12.45 -8.5 12.45 -8.55 12.4 -8.55 M12.5 -8.65 L12.4 -8.65 12.35 -8.65 12.3 -8.65 12.25 -8.65 12.2 -8.6 12.2 -8.6 12.25 -8.6 12.3 -8.6 12.3 -8.6 Q12.3 -8.6 12.35 -8.6 L12.35 -8.6 12.4 -8.6 12.45 -8.6 12.45 -8.6 12.5 -8.65 M12.2 -8.45 L12.15 -8.5 12.15 -8.5 12.05 -8.5 12.05 -8.5 12.0 -8.5 11.9 -8.45 11.95 -8.45 12.0 -8.45 12.05 -8.45 12.1 -8.45 12.1 -8.45 12.2 -8.45 12.2 -8.45 M12.2 -8.3 L12.25 -8.3 12.3 -8.3 12.25 -8.3 12.2 -8.35 12.2 -8.3 12.2 -8.3 M12.25 -7.1 L12.25 -7.1 12.3 -7.1 12.25 -7.05 12.2 -7.05 12.2 -7.05 12.25 -7.1 12.25 -7.1 M11.8 -9.75 L11.75 -9.75 11.75 -9.8 11.75 -9.8 11.8 -9.85 11.8 -9.85 11.85 -9.85 11.8 -9.85 11.85 -9.8 11.8 -9.8 11.8 -9.75 M11.6 -9.75 L11.6 -9.8 11.55 -9.8 11.5 -9.75 11.45 -9.75 Q11.45 -9.7 11.45 -9.7 L11.4 -9.7 11.35 -9.65 11.35 -9.65 11.3 -9.6 11.25 -9.55 11.25 -9.55 11.2 -9.5 11.2 -9.45 11.2 -9.4 11.2 -9.25 11.25 -9.25 11.25 -9.35 11.3 -9.4 11.35 -9.45 11.35 -9.5 11.4 -9.55 11.4 -9.65 11.45 -9.65 11.45 -9.7 11.5 -9.75 11.55 -9.75 11.55 -9.75 11.6 -9.75 M11.2 -9.55 L11.2 -9.6 11.15 -9.6 11.15 -9.65 11.1 -9.65 11.1 -9.6 11.05 -9.55 11.05 -9.45 11.0 -9.4 11.0 -9.35 10.95 -9.25 10.95 -9.15 10.9 -9.1 10.95 -9.1 11.0 -9.15 11.05 -9.25 11.05 -9.35 11.1 -9.35 11.15 -9.4 11.15 -9.5 11.15 -9.5 11.2 -9.55 M11.15 -9.35 L11.1 -9.3 11.1 -9.25 11.1 -9.25 11.15 -9.2 11.15 -9.25 11.15 -9.3 11.15 -9.35 M11.4 -9.45 L11.4 -9.4 11.4 -9.35 11.45 -9.35 11.45 -9.45 11.45 -9.45 11.4 -9.45 M10.8 -9.8 L10.8 -9.75 10.75 -9.75 10.75 -9.75 10.75 -9.8 10.8 -9.8 10.8 -9.85 10.8 -9.8 M10.2 -9.35 L10.25 -9.45 10.35 -9.55 10.4 -9.6 10.35 -9.45 10.2 -9.35 10.2 -9.35 M10.15 -9.35 L10.15 -9.25 10.05 -9.2 10.1 -9.3 10.15 -9.4 10.15 -9.35 M10.75 -8.1 L10.75 -8.0 10.8 -7.95 10.8 -7.85 10.85 -7.85 10.9 -7.85 10.9 -7.9 10.9 -7.95 10.85 -8.0 10.75 -8.15 10.75 -8.1 M10.4 -7.7 L10.45 -7.65 10.45 -7.65 10.5 -7.65 10.45 -7.6 10.4 -7.65 10.4 -7.7 M10.05 -7.85 L10.05 -7.75 10.1 -7.7 10.15 -7.7 10.15 -7.65 10.2 -7.65 10.2 -7.65 10.25 -7.65 10.25 -7.6 10.25 -7.55 10.15 -7.6 10.1 -7.7 10.1 -7.7 10.05 -7.75 10.0 -7.8 9.95 -7.95 9.95 -8.05 10.0 -7.95 10.05 -7.85 10.05 -7.85 M10.3 -7.5 L10.35 -7.5 10.35 -7.45 10.3 -7.45 10.3 -7.5 M10.95 -7.9 L11.0 -7.85 11.05 -7.75 11.1 -7.65 11.1 -7.65 11.15 -7.65 11.15 -7.65 11.2 -7.65 11.2 -7.65 11.25 -7.65 11.2 -7.75 11.15 -7.75 11.15 -7.75 11.15 -7.85 11.1 -7.85 11.05 -7.85 11.05 -7.9 10.95 -7.95 10.95 -7.95 10.95 -7.9 M11.8 -8.2 L11.85 -8.15 11.85 -8.15 11.9 -8.15 11.9 -8.2 11.9 -8.2 11.9 -8.25 11.85 -8.2 11.85 -8.2 11.8 -8.2 11.8 -8.2 M11.75 -8.2 L11.75 -8.15 11.8 -8.1 11.8 -8.05 11.85 -8.0 11.9 -7.95 11.9 -7.95 11.95 -7.9 11.95 -7.9 Q12.0 -7.9 12.0 -7.9 L12.0 -8.05 12.0 -8.05 11.95 -8.1 11.9 -8.05 11.9 -8.05 Q11.9 -8.05 11.85 -8.1 L11.8 -8.15 11.75 -8.15 11.75 -8.2 M11.65 -8.0 L11.65 -7.95 11.7 -7.95 11.7 -8.0 11.65 -8.0 11.65 -8.0 M10.0 -9.2 L9.95 -9.2 9.95 -9.25 10.0 -9.25 10.0 -9.2 M10.0 -9.1 L10.0 -8.95 9.95 -8.95 9.95 -8.9 9.9 -8.8 9.9 -8.75 9.85 -8.75 9.85 -8.75 9.9 -8.85 9.95 -8.95 9.95 -9.0 10.0 -9.1 M11.65 -7.2 L11.65 -7.2 11.65 -7.25 11.65 -7.25 11.7 -7.25 11.7 -7.25 11.65 -7.2 M11.75 -7.2 L11.75 -7.25 11.8 -7.25 11.8 -7.2 11.75 -7.2 11.75 -7.2 M11.55 -7.35 L11.6 -7.25 11.6 -7.25 11.55 -7.3 11.5 -7.3 11.45 -7.35 11.55 -7.35 M10.65 -7.3 L10.65 -7.25 10.6 -7.3 10.65 -7.3 10.65 -7.3 10.65 -7.3 M11.25 -7.05 L11.3 -7.05 11.25 -7.0 11.25 -7.0 Q11.15 -7.0 11.15 -7.05 L11.2 -7.05 11.2 -7.05 11.25 -7.05 M10.55 -7.35 L10.55 -7.35 10.5 -7.35 10.5 -7.35 10.45 -7.4 10.45 -7.4 10.4 -7.4 10.5 -7.4 10.55 -7.4 10.55 -7.35" fill="#722c28" fill-rule="evenodd" stroke="none"/>
    <path d="M10.35 -7.8 L10.35 -7.85 10.4 -7.85 10.4 -7.8 10.45 -7.8 10.45 -7.75 10.5 -7.75 10.5 -7.75 10.55 -7.7 10.55 -7.7 10.6 -7.7 10.6 -7.75 10.6 -7.8 10.6 -7.85 10.55 -7.9 10.55 -7.9 Q10.5 -7.9 10.5 -7.9 L10.5 -7.9 10.45 -7.95 10.45 -8.05 10.4 -8.2 10.4 -8.3 10.35 -8.35 10.3 -8.35 10.25 -8.45 10.25 -8.45 10.3 -8.5 10.35 -8.5 10.4 -8.55 10.35 -8.55 10.35 -8.6 10.4 -8.6 10.35 -8.65 10.3 -8.65 10.35 -8.75 10.35 -8.8 10.4 -8.8 10.45 -8.8 10.45 -8.9 10.5 -8.9 10.5 -8.9 10.5 -8.95 10.55 -8.95 10.55 -8.95 10.6 -9.0 10.6 -9.0 10.55 -9.0 10.5 -9.0 10.5 -9.0 10.55 -9.05 10.55 -9.1 10.6 -9.15 10.65 -9.2 10.65 -9.25 10.7 -9.3 10.75 -9.4 10.8 -9.45 10.8 -9.4 10.8 -9.35 10.8 -9.3 10.75 -9.25 10.75 -9.15 10.75 -9.05 10.7 -9.05 10.7 -9.1 10.6 -9.05 10.6 -9.05 10.65 -9.0 10.65 -9.0 10.65 -8.95 10.65 -8.9 10.7 -8.95 10.75 -8.95 10.75 -8.95 10.8 -8.95 10.8 -8.95 10.85 -8.95 10.8 -8.9 10.8 -8.9 10.85 -8.9 10.9 -8.9 10.95 -8.95 11.0 -9.0 11.05 -9.0 11.1 -9.1 11.1 -9.05 11.1 -9.05 11.1 -9.0 11.2 -9.05 11.2 -9.15 11.25 -9.15 11.25 -9.15 11.3 -9.2 11.3 -9.25 11.35 -9.25 11.4 -9.3 11.4 -9.3 11.4 -9.25 11.4 -9.25 11.4 -9.2 11.4 -9.15 11.45 -9.2 11.45 -9.2 11.5 -9.2 11.5 -9.2 11.55 -9.2 11.55 -9.1 11.55 -9.1 11.6 -9.05 11.6 -9.05 11.65 -9.05 11.7 -9.05 11.7 -9.0 11.75 -9.0 11.75 -9.0 11.8 -9.0 11.75 -8.95 11.8 -8.95 11.8 -8.95 11.85 -8.95 11.9 -8.95 11.9 -8.95 11.95 -8.95 12.0 -8.9 12.0 -8.9 12.05 -8.95 12.1 -8.9 12.1 -8.9 12.05 -8.9 12.0 -8.85 12.0 -8.85 12.0 -8.8 12.05 -8.75 12.1 -8.75 12.1 -8.7 12.15 -8.65 12.15 -8.6 12.2 -8.55 12.15 -8.55 12.1 -8.5 12.05 -8.55 11.95 -8.55 11.9 -8.55 11.9 -8.5 11.9 -8.5 11.9 -8.45 11.95 -8.4 12.0 -8.4 12.05 -8.35 12.15 -8.3 12.15 -8.3 12.05 -8.3 12.05 -8.3 12.0 -8.3 12.0 -8.3 11.95 -8.3 11.85 -8.35 11.9 -8.3 Q11.85 -8.25 11.85 -8.25 L11.8 -8.25 11.75 -8.25 11.75 -8.25 11.7 -8.25 11.7 -8.25 11.65 -8.25 11.65 -8.2 11.65 -8.2 11.7 -8.15 11.7 -8.1 11.7 -8.1 11.75 -8.1 11.75 -8.05 11.8 -7.95 Q11.8 -7.95 11.75 -8.0 L11.75 -8.0 11.7 -8.0 11.7 -8.05 11.65 -8.05 11.65 -8.1 11.6 -8.1 11.6 -8.05 11.65 -8.0 11.6 -8.0 11.6 -7.9 11.65 -7.9 11.6 -7.9 11.6 -7.85 11.6 -7.8 11.55 -7.8 11.55 -7.8 11.5 -7.8 11.45 -7.8 11.4 -7.8 11.4 -7.8 11.4 -7.7 11.35 -7.7 11.3 -7.7 11.25 -7.7 11.25 -7.75 11.2 -7.75 11.2 -7.8 11.2 -7.8 11.15 -7.85 11.15 -7.85 11.1 -7.85 11.1 -7.95 11.05 -8.0 11.0 -8.0 10.95 -8.05 10.9 -8.05 10.9 -8.05 10.8 -8.15 10.75 -8.15 10.7 -8.2 10.65 -8.2 10.65 -8.15 10.65 -8.1 10.65 -8.05 10.7 -8.0 10.7 -7.95 10.7 -7.9 10.75 -7.85 10.7 -7.75 10.65 -7.75 10.65 -7.65 10.6 -7.65 10.55 -7.6 10.55 -7.6 10.5 -7.65 10.5 -7.65 10.45 -7.65 10.45 -7.65 10.4 -7.7 10.4 -7.7 10.35 -7.75 10.35 -7.8 M12.15 -9.0 L12.15 -9.0 12.1 -9.0 12.05 -9.0 11.95 -8.95 11.9 -9.0 11.9 -9.0 11.85 -9.05 11.8 -9.05 11.75 -9.1 11.8 -9.1 11.8 -9.1 11.85 -9.1 11.9 -9.1 11.85 -9.05 11.9 -9.0 11.9 -9.0 12.0 -9.05 12.05 -9.05 12.15 -9.0 M12.2 -8.3 L12.2 -8.3 12.2 -8.35 12.25 -8.3 12.3 -8.3 12.25 -8.3 12.2 -8.3 M12.2 -8.45 L12.2 -8.45 12.1 -8.45 12.1 -8.45 12.05 -8.45 12.0 -8.45 11.95 -8.45 11.9 -8.45 12.0 -8.5 12.05 -8.5 12.05 -8.5 12.15 -8.5 12.15 -8.5 12.2 -8.45 M12.5 -8.65 L12.45 -8.6 12.45 -8.6 12.4 -8.6 12.35 -8.6 12.35 -8.6 Q12.3 -8.6 12.3 -8.6 L12.3 -8.6 12.25 -8.6 12.2 -8.6 12.2 -8.6 12.25 -8.65 12.3 -8.65 12.35 -8.65 12.4 -8.65 12.5 -8.65 M12.4 -8.55 L12.45 -8.55 12.45 -8.5 12.4 -8.5 12.35 -8.5 12.35 -8.5 12.35 -8.55 12.4 -8.55 12.4 -8.55 M11.6 -9.75 L11.55 -9.75 11.55 -9.75 11.5 -9.75 11.45 -9.7 11.45 -9.65 11.4 -9.65 11.4 -9.55 11.35 -9.5 11.35 -9.45 11.3 -9.4 11.25 -9.35 11.25 -9.25 11.2 -9.25 11.2 -9.4 11.2 -9.45 11.2 -9.5 11.25 -9.55 11.25 -9.55 11.3 -9.6 11.35 -9.65 11.35 -9.65 11.4 -9.7 11.45 -9.7 Q11.45 -9.7 11.45 -9.75 L11.5 -9.75 11.55 -9.8 11.6 -9.8 11.6 -9.75 M11.3 -9.5 L11.35 -9.6 11.35 -9.6 11.3 -9.55 11.25 -9.45 11.25 -9.35 11.25 -9.4 11.3 -9.45 11.3 -9.5 M11.4 -9.45 L11.45 -9.45 11.45 -9.45 11.45 -9.35 11.4 -9.35 11.4 -9.4 11.4 -9.45 M11.15 -9.35 L11.15 -9.3 11.15 -9.25 11.15 -9.2 11.1 -9.25 11.1 -9.25 11.1 -9.3 11.15 -9.35 M11.2 -9.55 L11.15 -9.5 11.15 -9.5 11.15 -9.4 11.1 -9.35 11.05 -9.35 11.05 -9.25 11.0 -9.15 10.95 -9.1 10.9 -9.1 10.95 -9.15 10.95 -9.25 11.0 -9.35 11.0 -9.4 11.05 -9.45 11.05 -9.55 11.1 -9.6 11.1 -9.65 11.15 -9.65 11.15 -9.6 11.2 -9.6 11.2 -9.55 M11.4 -9.05 L11.4 -9.05 11.35 -9.05 Q11.3 -9.05 11.3 -9.0 L11.3 -9.05 11.3 -9.15 11.25 -9.05 11.2 -9.05 11.15 -8.95 11.15 -8.9 11.1 -8.9 11.05 -8.85 10.95 -8.75 10.95 -8.75 10.9 -8.75 10.9 -8.7 10.85 -8.7 10.85 -8.7 10.8 -8.75 10.75 -8.75 10.7 -8.8 10.7 -8.8 10.65 -8.8 10.6 -8.8 Q10.6 -8.85 10.6 -8.85 L10.6 -8.85 10.55 -8.9 10.55 -8.85 10.55 -8.75 10.5 -8.75 10.5 -8.75 10.45 -8.75 10.45 -8.75 10.4 -8.75 10.4 -8.7 10.45 -8.65 10.45 -8.55 10.4 -8.5 10.4 -8.5 10.35 -8.45 10.35 -8.45 10.35 -8.4 10.4 -8.3 10.4 -8.2 10.4 -8.2 10.45 -8.15 10.45 -8.1 10.5 -8.1 10.5 -8.05 10.5 -8.0 10.55 -7.95 10.6 -8.0 10.6 -7.85 10.65 -7.85 10.65 -7.9 10.6 -8.0 10.6 -8.1 10.65 -8.15 10.6 -8.25 10.65 -8.25 10.65 -8.25 10.7 -8.2 10.7 -8.25 10.75 -8.2 11.0 -8.1 11.0 -8.05 11.05 -8.1 11.05 -8.25 11.1 -8.2 11.15 -8.15 11.15 -8.1 11.2 -8.05 11.25 -8.05 11.3 -8.0 11.35 -8.0 11.35 -8.0 11.35 -8.05 11.4 -8.05 11.4 -8.05 11.45 -8.05 11.5 -8.1 11.55 -8.15 11.55 -8.15 11.6 -8.15 11.6 -8.15 11.65 -8.1 11.65 -8.15 11.6 -8.2 11.6 -8.25 11.55 -8.3 11.55 -8.4 11.55 -8.45 11.55 -8.45 11.6 -8.45 11.65 -8.45 11.7 -8.4 11.7 -8.4 11.75 -8.4 11.75 -8.45 11.75 -8.5 11.8 -8.5 11.8 -8.55 11.8 -8.6 11.85 -8.6 Q11.9 -8.6 11.95 -8.65 L11.95 -8.75 11.9 -8.75 11.85 -8.8 11.8 -8.85 11.7 -8.85 11.7 -8.9 11.65 -8.9 11.65 -8.95 11.65 -8.95 11.6 -9.0 11.55 -9.0 11.55 -9.05 11.45 -9.05 11.4 -9.05 M10.75 -8.1 L10.75 -8.15 10.85 -8.0 10.9 -7.95 10.9 -7.9 10.9 -7.85 10.85 -7.85 10.8 -7.85 10.8 -7.95 10.75 -8.0 10.75 -8.1 M10.25 -7.65 L10.2 -7.65 10.2 -7.65 10.15 -7.65 10.15 -7.7 10.1 -7.7 10.05 -7.75 10.05 -7.85 10.15 -7.75 10.15 -7.7 10.25 -7.65 M11.65 -8.0 L11.65 -8.0 11.7 -8.0 11.7 -7.95 11.65 -7.95 11.65 -8.0 M11.75 -8.2 L11.75 -8.15 11.8 -8.15 11.85 -8.1 Q11.9 -8.05 11.9 -8.05 L11.9 -8.05 11.95 -8.1 12.0 -8.05 12.0 -8.05 12.0 -7.9 Q12.0 -7.9 11.95 -7.9 L11.95 -7.9 11.9 -7.95 11.9 -7.95 11.85 -8.0 11.8 -8.05 11.8 -8.1 11.75 -8.15 11.75 -8.2 M11.8 -8.2 L11.8 -8.2 11.85 -8.2 11.85 -8.2 11.9 -8.25 11.9 -8.2 11.9 -8.2 11.9 -8.15 11.85 -8.15 11.85 -8.15 11.8 -8.2 M10.95 -7.9 L10.95 -7.95 10.95 -7.95 11.05 -7.9 11.05 -7.85 11.1 -7.85 11.15 -7.85 11.15 -7.75 11.15 -7.75 11.2 -7.75 11.25 -7.65 11.2 -7.65 11.2 -7.65 11.15 -7.65 11.15 -7.65 11.1 -7.65 11.1 -7.65 11.05 -7.75 11.0 -7.85 10.95 -7.9" fill="#b97814" fill-rule="evenodd" stroke="none"/>
    <path d="M11.9 -9.1 L11.9 -9.1 11.95 -9.1 12.0 -9.05 12.0 -9.05 11.9 -9.0 11.9 -9.0 11.85 -9.05 11.9 -9.1 M11.3 -9.5 L11.3 -9.45 11.25 -9.4 11.25 -9.35 11.25 -9.45 11.3 -9.55 11.35 -9.6 11.35 -9.6 11.3 -9.5 M11.4 -9.05 L11.45 -9.05 11.55 -9.05 11.55 -9.0 11.6 -9.0 11.65 -8.95 11.65 -8.95 11.65 -8.9 11.7 -8.9 11.7 -8.85 11.8 -8.85 11.85 -8.8 11.9 -8.75 11.95 -8.75 11.95 -8.65 Q11.9 -8.6 11.85 -8.6 L11.8 -8.6 11.8 -8.55 11.8 -8.5 11.75 -8.5 11.75 -8.45 11.75 -8.4 11.7 -8.4 11.7 -8.4 11.65 -8.45 11.6 -8.45 11.55 -8.45 11.55 -8.45 11.55 -8.4 11.55 -8.3 11.6 -8.25 11.6 -8.2 11.65 -8.15 11.65 -8.1 11.6 -8.15 11.6 -8.15 11.55 -8.15 11.55 -8.15 11.5 -8.1 11.45 -8.05 11.4 -8.05 11.4 -8.05 11.35 -8.05 11.35 -8.0 11.35 -8.0 11.3 -8.0 11.25 -8.05 11.2 -8.05 11.15 -8.1 11.15 -8.15 11.1 -8.2 11.05 -8.25 11.05 -8.1 11.0 -8.05 11.0 -8.1 10.75 -8.2 10.7 -8.25 10.7 -8.2 10.65 -8.25 10.65 -8.25 10.6 -8.25 10.65 -8.15 10.6 -8.1 10.6 -8.0 10.65 -7.9 10.65 -7.85 10.6 -7.85 10.6 -8.0 10.55 -7.95 10.5 -8.0 10.5 -8.05 10.5 -8.1 10.45 -8.1 10.45 -8.15 10.4 -8.2 10.4 -8.2 10.4 -8.3 10.35 -8.4 10.35 -8.45 10.35 -8.45 10.4 -8.5 10.4 -8.5 10.45 -8.55 10.45 -8.65 10.4 -8.7 10.4 -8.75 10.45 -8.75 10.45 -8.75 10.5 -8.75 10.5 -8.75 10.55 -8.75 10.55 -8.85 10.55 -8.9 10.6 -8.85 10.6 -8.85 Q10.6 -8.85 10.6 -8.8 L10.65 -8.8 10.7 -8.8 10.7 -8.8 10.75 -8.75 10.8 -8.75 10.85 -8.7 10.85 -8.7 10.9 -8.7 10.9 -8.75 10.95 -8.75 10.95 -8.75 11.05 -8.85 11.1 -8.9 11.15 -8.9 11.15 -8.95 11.2 -9.05 11.25 -9.05 11.3 -9.15 11.3 -9.05 11.3 -9.0 Q11.3 -9.05 11.35 -9.05 L11.4 -9.05 11.4 -9.05" fill="#ffe693" fill-rule="evenodd" stroke="none"/>
  </g>
</svg>
