<?xml version="1.0" encoding="UTF-8" standalone="no"?>
<svg xmlns:xlink="http://www.w3.org/1999/xlink" height="2.7px" width="3.0px" xmlns="http://www.w3.org/2000/svg">
  <g transform="matrix(1.0, 0.0, 0.0, 1.0, -6.95, 9.7)">
    <path d="M8.55 -9.1 L8.6 -9.15 8.6 -9.15 8.7 -9.15 8.75 -9.2 8.75 -9.15 8.75 -9.15 8.8 -9.1 8.8 -9.1 8.85 -9.1 8.9 -9.15 Q8.95 -9.15 9.0 -9.1 L9.0 -9.05 9.05 -9.05 9.1 -9.05 9.15 -9.05 9.2 -9.05 9.2 -9.0 9.25 -8.95 9.25 -8.95 9.25 -8.85 9.25 -8.75 Q9.25 -8.75 9.3 -8.7 L9.35 -8.7 9.35 -8.7 9.45 -8.7 9.45 -8.65 9.5 -8.65 9.55 -8.65 9.6 -8.65 9.6 -8.65 9.65 -8.65 9.65 -8.65 9.7 -8.65 9.65 -8.65 9.65 -8.6 9.7 -8.6 9.7 -8.6 9.7 -8.6 9.7 -8.55 9.65 -8.55 9.65 -8.55 9.6 -8.55 9.55 -8.55 9.55 -8.5 9.6 -8.45 9.6 -8.4 9.65 -8.4 9.65 -8.4 9.7 -8.4 9.8 -8.35 9.9 -8.35 9.95 -8.3 9.7 -8.25 9.65 -8.25 9.6 -8.25 9.55 -8.2 9.55 -8.15 9.5 -8.15 9.5 -8.15 9.45 -8.15 9.4 -8.15 9.4 -8.15 9.35 -8.15 9.35 -8.15 9.35 -8.1 9.4 -8.05 9.35 -8.0 9.35 -8.0 9.4 -7.95 9.4 -7.9 9.35 -7.9 9.35 -7.85 9.3 -7.85 9.25 -7.8 9.25 -7.8 9.25 -7.75 9.25 -7.7 9.25 -7.65 9.25 -7.6 9.25 -7.6 9.2 -7.55 9.15 -7.55 9.1 -7.55 9.1 -7.6 9.05 -7.55 9.05 -7.55 9.0 -7.55 9.0 -7.45 8.95 -7.45 8.95 -7.4 8.85 -7.45 8.8 -7.5 8.75 -7.5 8.7 -7.5 8.7 -7.55 8.65 -7.55 8.65 -7.55 8.6 -7.6 8.6 -7.5 8.6 -7.4 8.6 -7.35 Q8.55 -7.3 8.55 -7.3 L8.5 -7.3 8.5 -7.3 8.5 -7.25 8.45 -7.25 8.45 -7.3 8.4 -7.3 8.4 -7.3 8.35 -7.3 8.35 -7.25 8.3 -7.25 8.25 -7.25 8.2 -7.25 8.2 -7.25 8.15 -7.25 8.1 -7.2 8.1 -7.15 8.05 -7.15 8.0 -7.15 8.0 -7.15 7.95 -7.1 7.95 -7.1 7.9 -7.1 7.9 -7.05 7.85 -7.1 7.85 -7.15 7.8 -7.15 7.8 -7.2 7.75 -7.2 7.75 -7.2 7.7 -7.15 7.7 -7.15 7.65 -7.15 7.65 -7.1 7.6 -7.1 7.6 -7.05 7.6 -7.0 7.55 -7.05 7.5 -7.1 7.5 -7.1 7.5 -7.15 7.45 -7.2 7.4 -7.25 7.4 -7.25 7.35 -7.3 7.3 -7.3 7.3 -7.35 7.25 -7.35 7.25 -7.35 7.2 -7.35 7.2 -7.4 7.15 -7.45 7.1 -7.55 7.1 -7.75 7.05 -7.8 7.0 -7.9 Q7.0 -7.9 7.0 -7.95 L7.0 -8.05 7.0 -8.15 7.0 -8.3 7.0 -8.35 6.95 -8.4 7.0 -8.4 7.0 -8.5 7.0 -8.55 7.0 -8.6 7.0 -8.65 7.0 -8.75 7.0 -8.9 7.05 -8.95 7.05 -9.0 7.1 -9.05 7.1 -9.1 7.05 -9.15 7.05 -9.2 7.1 -9.25 7.1 -9.25 7.15 -9.3 7.15 -9.3 7.2 -9.35 7.2 -9.5 7.25 -9.5 7.25 -9.55 7.3 -9.6 7.3 -9.5 7.3 -9.4 7.3 -9.4 7.35 -9.4 7.35 -9.45 7.4 -9.45 7.4 -9.45 7.45 -9.5 7.45 -9.5 7.5 -9.5 7.5 -9.5 7.55 -9.5 7.55 -9.5 7.6 -9.55 7.65 -9.6 7.7 -9.6 7.7 -9.6 7.7 -9.6 7.8 -9.6 7.85 -9.65 7.85 -9.6 7.9 -9.6 7.9 -9.6 7.9 -9.55 7.95 -9.55 7.95 -9.55 8.0 -9.55 8.0 -9.55 8.05 -9.55 8.1 -9.6 8.15 -9.6 8.2 -9.65 8.2 -9.6 8.2 -9.55 8.2 -9.5 8.15 -9.45 8.15 -9.4 8.15 -9.35 8.2 -9.45 8.2 -9.4 8.25 -9.45 8.3 -9.5 8.4 -9.5 8.45 -9.6 8.5 -9.6 8.55 -9.65 Q8.6 -9.65 8.6 -9.65 L8.65 -9.7 8.7 -9.7 8.7 -9.65 8.7 -9.5 8.65 -9.5 8.6 -9.6 Q8.55 -9.6 8.55 -9.55 L8.55 -9.55 8.5 -9.55 8.5 -9.5 8.45 -9.45 Q8.45 -9.4 8.4 -9.4 L8.35 -9.4 8.35 -9.35 8.3 -9.35 8.3 -9.3 8.25 -9.3 8.25 -9.3 8.2 -9.3 8.15 -9.3 8.15 -9.3 8.1 -9.3 8.1 -9.3 8.05 -9.3 8.1 -9.3 8.1 -9.35 8.05 -9.35 8.1 -9.4 8.1 -9.45 8.1 -9.5 8.05 -9.45 8.0 -9.45 7.95 -9.5 7.95 -9.5 7.9 -9.45 7.85 -9.4 7.85 -9.4 7.8 -9.45 Q7.8 -9.45 7.75 -9.4 L7.75 -9.25 7.8 -9.2 7.75 -9.15 7.75 -9.1 7.75 -9.0 7.7 -8.85 7.65 -8.85 7.65 -8.85 7.6 -8.85 7.6 -8.85 7.55 -8.9 7.55 -8.95 7.6 -9.0 7.6 -9.15 7.55 -9.15 Q7.5 -9.15 7.45 -9.1 L7.45 -9.0 7.35 -8.9 7.35 -8.85 Q7.35 -8.65 7.45 -8.65 L7.5 -8.65 7.5 -8.6 7.6 -8.55 7.65 -8.55 7.65 -8.55 7.7 -8.55 7.7 -8.5 7.7 -8.45 7.7 -8.4 7.65 -8.35 7.6 -8.3 Q7.6 -8.25 7.7 -8.15 L7.7 -8.15 7.75 -8.15 7.75 -8.1 7.75 -8.0 7.7 -7.95 7.7 -7.85 7.65 -7.85 7.6 -7.85 Q7.55 -7.85 7.55 -7.75 L7.55 -7.65 7.55 -7.55 7.65 -7.55 7.7 -7.5 7.75 -7.45 Q7.75 -7.4 7.8 -7.4 L7.8 -7.4 7.9 -7.35 7.95 -7.35 8.0 -7.35 8.05 -7.4 8.1 -7.45 8.1 -7.45 8.15 -7.45 8.2 -7.4 8.3 -7.4 8.3 -7.4 8.35 -7.45 8.35 -7.45 8.4 -7.45 8.45 -7.5 8.45 -7.55 8.45 -7.6 8.5 -7.7 8.55 -7.75 8.6 -7.7 8.7 -7.65 8.75 -7.65 8.8 -7.65 8.8 -7.6 8.85 -7.65 8.9 -7.65 8.9 -7.75 8.9 -7.8 8.85 -7.85 8.9 -7.9 8.9 -7.9 8.95 -7.9 Q8.95 -7.85 9.0 -7.85 L9.05 -7.85 9.1 -7.85 9.1 -7.85 9.15 -7.9 9.2 -7.95 9.15 -8.0 9.15 -8.0 9.2 -8.05 9.2 -8.15 9.15 -8.2 9.2 -8.25 9.25 -8.3 9.3 -8.25 Q9.35 -8.25 9.35 -8.25 L9.4 -8.25 9.45 -8.3 9.45 -8.25 9.5 -8.25 9.5 -8.25 9.55 -8.25 9.55 -8.3 9.5 -8.4 9.5 -8.4 9.45 -8.45 9.45 -8.45 9.4 -8.45 9.4 -8.5 9.35 -8.55 9.35 -8.55 9.3 -8.55 9.25 -8.55 9.2 -8.55 9.2 -8.7 9.1 -8.7 9.15 -8.75 9.15 -8.8 9.1 -8.85 9.05 -8.95 9.0 -8.9 8.95 -8.9 8.9 -8.95 8.85 -9.0 8.8 -8.95 8.75 -8.9 8.75 -8.8 8.8 -8.75 8.85 -8.7 8.85 -8.7 8.8 -8.7 8.8 -8.7 8.75 -8.7 8.75 -8.7 8.7 -8.7 8.75 -8.65 8.75 -8.6 8.8 -8.6 8.8 -8.65 8.85 -8.6 8.85 -8.6 Q8.85 -8.55 8.8 -8.55 L8.8 -8.55 8.85 -8.55 8.85 -8.5 8.85 -8.45 8.8 -8.45 8.8 -8.5 8.75 -8.5 8.75 -8.5 8.7 -8.5 8.65 -8.55 8.6 -8.55 8.6 -8.65 8.55 -8.65 8.5 -8.6 8.5 -8.5 8.6 -8.45 8.55 -8.45 8.5 -8.4 8.5 -8.45 8.45 -8.5 8.45 -8.55 8.4 -8.55 Q8.4 -8.55 8.35 -8.5 L8.3 -8.5 8.35 -8.45 8.35 -8.4 8.35 -8.4 8.3 -8.4 8.3 -8.45 8.25 -8.45 8.25 -8.45 8.2 -8.45 8.2 -8.5 Q8.2 -8.55 8.3 -8.55 8.3 -8.55 8.35 -8.55 8.3 -8.6 8.35 -8.65 L8.35 -8.65 8.4 -8.7 8.45 -8.7 8.45 -8.65 8.5 -8.7 8.55 -8.7 8.5 -8.75 8.5 -8.85 8.45 -8.85 8.4 -8.9 8.4 -8.9 8.3 -8.9 8.25 -8.85 8.2 -8.85 8.2 -8.85 8.15 -8.8 8.15 -8.8 8.1 -8.75 8.05 -8.7 8.05 -8.65 8.05 -8.65 8.0 -8.65 8.0 -8.65 7.95 -8.65 7.95 -8.6 8.0 -8.55 8.0 -8.55 8.05 -8.5 8.05 -8.45 8.0 -8.5 7.95 -8.5 7.9 -8.5 7.9 -8.45 7.9 -8.5 7.95 -8.55 7.9 -8.6 7.9 -8.6 7.95 -8.65 7.95 -8.7 8.05 -8.75 8.1 -8.75 8.1 -8.85 8.1 -8.85 8.15 -8.85 8.2 -8.9 8.2 -8.95 8.15 -9.0 8.1 -9.0 8.1 -9.0 8.1 -9.05 8.15 -9.1 8.15 -9.05 8.15 -9.05 8.2 -9.05 8.2 -9.05 8.25 -9.05 8.3 -9.05 8.35 -9.05 8.35 -9.05 8.4 -9.05 Q8.45 -9.0 8.45 -9.0 L8.5 -9.0 8.55 -9.05 8.55 -9.1 M7.1 -7.9 L7.1 -7.9 7.15 -7.9 7.2 -7.9 7.15 -7.95 7.15 -8.0 7.1 -7.95 7.1 -7.9 7.1 -7.9 M7.55 -8.55 L7.5 -8.55 7.5 -8.55 7.45 -8.55 7.4 -8.55 7.4 -8.45 7.4 -8.45 7.45 -8.4 7.45 -8.4 7.5 -8.45 7.45 -8.5 7.5 -8.55 7.55 -8.55 M7.25 -8.4 L7.25 -8.35 7.3 -8.4 7.3 -8.4 7.25 -8.4 7.25 -8.4 7.25 -8.4 M7.9 -7.8 L7.95 -7.8 7.95 -7.9 8.0 -7.85 8.0 -7.8 7.95 -7.75 7.9 -7.7 7.85 -7.7 7.85 -7.7 7.8 -7.75 7.9 -7.8 M7.4 -7.75 L7.4 -7.8 7.35 -7.8 7.35 -7.7 7.3 -7.65 7.25 -7.65 7.25 -7.65 7.2 -7.65 7.2 -7.6 7.2 -7.55 7.25 -7.5 7.25 -7.5 Q7.3 -7.5 7.3 -7.5 7.4 -7.55 7.4 -7.65 L7.4 -7.7 7.4 -7.75 M7.35 -8.15 L7.3 -8.1 7.35 -8.05 7.45 -8.05 7.5 -8.1 7.55 -8.25 7.55 -8.25 7.5 -8.2 7.4 -8.15 7.4 -8.15 7.4 -8.2 7.35 -8.2 7.35 -8.15 M9.0 -8.5 L9.0 -8.45 8.95 -8.4 8.9 -8.4 8.9 -8.4 8.95 -8.45 8.95 -8.55 9.0 -8.5 M8.65 -8.15 L8.65 -8.2 8.7 -8.15 8.7 -8.1 8.75 -8.15 8.8 -8.15 8.85 -8.15 8.9 -8.1 8.85 -8.1 8.8 -8.1 8.75 -8.1 8.7 -8.05 8.7 -8.0 8.7 -7.9 8.75 -7.9 8.75 -7.9 8.7 -7.85 8.7 -7.85 8.6 -7.9 8.6 -7.95 8.55 -8.0 8.6 -8.05 8.6 -8.05 8.65 -8.15 M8.3 -8.05 L8.3 -8.05 8.35 -8.05 8.3 -8.0 8.25 -8.0 8.25 -8.0 8.2 -8.0 8.2 -8.05 8.2 -8.05 8.25 -8.05 8.3 -8.05" fill="#722c28" fill-rule="evenodd" stroke="none"/>
    <path d="M8.55 -9.1 L8.55 -9.05 8.5 -9.0 8.45 -9.0 Q8.45 -9.0 8.4 -9.05 L8.35 -9.05 8.35 -9.05 8.3 -9.05 8.25 -9.05 8.2 -9.05 8.2 -9.05 8.15 -9.05 8.15 -9.05 8.15 -9.1 8.1 -9.05 8.1 -9.0 8.1 -9.0 8.15 -9.0 8.2 -8.95 8.2 -8.9 8.15 -8.85 8.1 -8.85 8.1 -8.85 8.1 -8.75 8.05 -8.75 7.95 -8.7 7.95 -8.65 7.9 -8.6 7.9 -8.6 7.95 -8.55 7.9 -8.5 7.9 -8.45 7.9 -8.5 7.95 -8.5 8.0 -8.5 8.05 -8.45 8.05 -8.5 8.0 -8.55 8.0 -8.55 7.95 -8.6 7.95 -8.65 8.0 -8.65 8.0 -8.65 8.05 -8.65 8.05 -8.65 8.05 -8.7 8.1 -8.75 8.15 -8.8 8.15 -8.8 8.2 -8.85 8.2 -8.85 8.25 -8.85 8.3 -8.9 8.4 -8.9 8.4 -8.9 8.45 -8.85 8.5 -8.85 8.5 -8.75 8.55 -8.7 8.5 -8.7 8.45 -8.65 8.45 -8.7 8.4 -8.7 8.35 -8.65 8.35 -8.65 Q8.3 -8.6 8.35 -8.55 8.3 -8.55 8.3 -8.55 8.2 -8.55 8.2 -8.5 L8.2 -8.45 8.25 -8.45 8.25 -8.45 8.3 -8.45 8.3 -8.4 8.35 -8.4 8.35 -8.4 8.35 -8.45 8.3 -8.5 8.35 -8.5 Q8.4 -8.55 8.4 -8.55 L8.45 -8.55 8.45 -8.5 8.5 -8.45 8.5 -8.4 8.55 -8.45 8.6 -8.45 8.5 -8.5 8.5 -8.6 8.55 -8.65 8.6 -8.65 8.6 -8.55 8.65 -8.55 8.7 -8.5 8.75 -8.5 8.75 -8.5 8.8 -8.5 8.8 -8.45 8.85 -8.45 8.85 -8.5 8.85 -8.55 8.8 -8.55 8.8 -8.55 Q8.85 -8.55 8.85 -8.6 L8.85 -8.6 8.8 -8.65 8.8 -8.6 8.75 -8.6 8.75 -8.65 8.7 -8.7 8.75 -8.7 8.75 -8.7 8.8 -8.7 8.8 -8.7 8.85 -8.7 8.85 -8.7 8.8 -8.75 8.75 -8.8 8.75 -8.9 8.8 -8.95 8.85 -9.0 8.9 -8.95 8.95 -8.9 9.0 -8.9 9.05 -8.95 9.1 -8.85 9.15 -8.8 9.15 -8.75 9.1 -8.7 9.2 -8.7 9.2 -8.55 9.25 -8.55 9.3 -8.55 9.35 -8.55 9.35 -8.55 9.4 -8.5 9.4 -8.45 9.45 -8.45 9.45 -8.45 9.5 -8.4 9.5 -8.4 9.55 -8.3 9.55 -8.25 9.5 -8.25 9.5 -8.25 9.45 -8.25 9.45 -8.3 9.4 -8.25 9.35 -8.25 Q9.35 -8.25 9.3 -8.25 L9.25 -8.3 9.2 -8.25 9.15 -8.2 9.2 -8.15 9.2 -8.05 9.15 -8.0 9.15 -8.0 9.2 -7.95 9.15 -7.9 9.1 -7.85 9.1 -7.85 9.05 -7.85 9.0 -7.85 Q8.95 -7.85 8.95 -7.9 L8.9 -7.9 8.9 -7.9 8.85 -7.85 8.9 -7.8 8.9 -7.75 8.9 -7.65 8.85 -7.65 8.8 -7.6 8.8 -7.65 8.75 -7.65 8.7 -7.65 8.6 -7.7 8.55 -7.75 8.5 -7.7 8.45 -7.6 8.45 -7.55 8.45 -7.5 8.4 -7.45 8.35 -7.45 8.35 -7.45 8.3 -7.4 8.3 -7.4 8.2 -7.4 8.15 -7.45 8.1 -7.45 8.1 -7.45 8.05 -7.4 8.0 -7.35 7.95 -7.35 7.9 -7.35 7.8 -7.4 7.8 -7.4 Q7.75 -7.4 7.75 -7.45 L7.7 -7.5 7.65 -7.55 7.55 -7.55 7.55 -7.65 7.55 -7.75 Q7.55 -7.85 7.6 -7.85 L7.65 -7.85 7.7 -7.85 7.7 -7.95 7.75 -8.0 7.75 -8.1 7.75 -8.15 7.7 -8.15 7.7 -8.15 Q7.6 -8.25 7.6 -8.3 L7.65 -8.35 7.7 -8.4 7.7 -8.45 7.7 -8.5 7.7 -8.55 7.65 -8.55 7.65 -8.55 7.6 -8.55 7.5 -8.6 7.5 -8.65 7.45 -8.65 Q7.35 -8.65 7.35 -8.85 L7.35 -8.9 7.45 -9.0 7.45 -9.1 Q7.5 -9.15 7.55 -9.15 L7.6 -9.15 7.6 -9.0 7.55 -8.95 7.55 -8.9 7.6 -8.85 7.6 -8.85 7.65 -8.85 7.65 -8.85 7.7 -8.85 7.75 -9.0 7.75 -9.1 7.75 -9.15 7.8 -9.2 7.75 -9.25 7.75 -9.4 Q7.8 -9.45 7.8 -9.45 L7.85 -9.4 7.85 -9.4 7.9 -9.45 7.95 -9.5 7.95 -9.5 8.0 -9.45 8.05 -9.45 8.1 -9.5 8.1 -9.45 8.1 -9.4 8.05 -9.35 8.1 -9.35 8.1 -9.3 8.05 -9.3 8.1 -9.3 8.1 -9.3 8.15 -9.3 8.15 -9.3 8.2 -9.3 8.25 -9.3 8.25 -9.3 8.3 -9.3 8.3 -9.35 8.35 -9.35 8.35 -9.4 8.4 -9.4 Q8.45 -9.4 8.45 -9.45 L8.5 -9.5 8.5 -9.55 8.55 -9.55 8.55 -9.55 Q8.55 -9.6 8.6 -9.6 L8.65 -9.5 8.6 -9.4 8.6 -9.45 8.55 -9.5 8.5 -9.45 8.45 -9.45 8.45 -9.4 8.45 -9.35 8.4 -9.35 8.45 -9.3 8.45 -9.25 8.5 -9.3 8.45 -9.25 8.45 -9.2 8.45 -9.15 8.4 -9.1 8.45 -9.1 8.45 -9.1 8.5 -9.15 8.5 -9.1 8.55 -9.1 M8.0 -9.45 L7.9 -9.35 7.8 -9.3 7.9 -9.2 7.9 -9.2 7.95 -9.15 8.0 -9.2 8.05 -9.2 8.1 -9.2 8.1 -9.2 8.05 -9.25 8.0 -9.3 8.0 -9.35 8.05 -9.4 8.05 -9.4 8.0 -9.45 M7.55 -8.75 L7.55 -8.8 7.5 -8.8 7.5 -8.75 7.55 -8.7 7.65 -8.7 7.7 -8.65 7.7 -8.65 7.75 -8.6 7.8 -8.65 7.8 -8.7 7.85 -8.75 7.9 -8.75 7.9 -8.8 7.85 -8.85 Q7.8 -8.85 7.75 -8.8 7.7 -8.8 7.7 -8.7 L7.7 -8.7 7.65 -8.75 7.65 -8.75 7.6 -8.75 7.55 -8.75 M7.95 -9.05 L8.0 -9.05 8.0 -9.1 8.0 -9.1 7.9 -9.1 7.9 -9.1 7.85 -9.1 7.8 -9.05 7.8 -9.0 7.85 -9.0 7.85 -8.9 7.9 -8.95 7.95 -8.95 7.95 -9.05 M8.05 -8.9 L8.05 -8.9 8.0 -8.9 7.95 -8.85 7.95 -8.8 8.0 -8.8 8.05 -8.85 8.05 -8.9 M7.1 -7.9 L7.1 -7.9 7.1 -7.95 7.15 -8.0 7.15 -7.95 7.2 -7.9 7.15 -7.9 7.1 -7.9 7.1 -7.9 M8.05 -8.6 L8.05 -8.55 8.05 -8.55 8.15 -8.55 8.15 -8.55 8.15 -8.6 8.1 -8.6 8.1 -8.6 8.05 -8.6 M7.85 -8.45 L7.85 -8.45 7.8 -8.45 7.8 -8.4 7.75 -8.35 7.75 -8.3 Q7.75 -8.25 7.8 -8.25 L7.85 -8.25 7.9 -8.2 7.95 -8.15 7.95 -8.15 8.05 -8.2 8.05 -8.25 8.1 -8.3 8.1 -8.35 8.05 -8.35 8.0 -8.35 7.95 -8.4 7.85 -8.45 M8.0 -8.1 L7.95 -8.1 7.85 -8.05 7.8 -7.95 7.9 -7.95 7.9 -7.95 7.95 -7.95 8.05 -7.95 8.1 -7.95 8.15 -7.9 8.15 -7.9 8.1 -8.0 8.05 -8.05 8.0 -8.1 M7.25 -8.4 L7.25 -8.4 7.25 -8.4 7.3 -8.4 7.3 -8.4 7.25 -8.35 7.25 -8.4 M7.55 -8.55 L7.5 -8.55 7.45 -8.5 7.5 -8.45 7.45 -8.4 7.45 -8.4 7.4 -8.45 7.4 -8.45 7.4 -8.55 7.45 -8.55 7.5 -8.55 7.5 -8.55 7.55 -8.55 M7.35 -8.15 L7.35 -8.2 7.4 -8.2 7.4 -8.15 7.4 -8.15 7.5 -8.2 7.55 -8.25 7.55 -8.25 7.5 -8.1 7.45 -8.05 7.35 -8.05 7.3 -8.1 7.35 -8.15 M7.4 -7.75 L7.4 -7.7 7.4 -7.65 Q7.4 -7.55 7.3 -7.5 7.3 -7.5 7.25 -7.5 L7.25 -7.5 7.2 -7.55 7.2 -7.6 7.2 -7.65 7.25 -7.65 7.25 -7.65 7.3 -7.65 7.35 -7.7 7.35 -7.8 7.4 -7.8 7.4 -7.75 M7.9 -7.8 L7.8 -7.75 7.85 -7.7 7.85 -7.7 7.9 -7.7 7.95 -7.75 8.0 -7.8 8.0 -7.85 7.95 -7.9 7.95 -7.8 7.9 -7.8 M7.8 -7.6 L7.8 -7.65 7.75 -7.65 7.75 -7.7 7.7 -7.7 7.7 -7.65 7.7 -7.6 7.75 -7.55 7.8 -7.5 7.8 -7.45 7.85 -7.45 7.9 -7.5 7.95 -7.55 8.0 -7.55 7.95 -7.6 7.9 -7.6 7.9 -7.55 7.85 -7.6 7.85 -7.6 7.8 -7.6 M8.05 -7.6 L8.1 -7.55 8.15 -7.55 8.15 -7.5 8.2 -7.45 8.25 -7.5 8.3 -7.5 8.3 -7.55 8.25 -7.55 8.25 -7.55 Q8.2 -7.55 8.2 -7.6 L8.2 -7.75 8.15 -7.75 8.15 -7.7 8.1 -7.65 8.1 -7.65 Q8.05 -7.6 8.05 -7.6 M8.3 -9.25 L8.25 -9.25 8.25 -9.25 8.2 -9.2 8.2 -9.2 8.25 -9.15 8.25 -9.15 8.3 -9.2 8.35 -9.2 8.3 -9.25 M8.2 -8.75 L8.2 -8.7 8.2 -8.7 8.15 -8.7 Q8.15 -8.65 8.2 -8.65 L8.25 -8.65 8.3 -8.7 8.3 -8.7 8.2 -8.8 8.2 -8.75 M8.8 -8.85 L8.85 -8.7 Q8.9 -8.7 8.9 -8.7 L8.95 -8.65 9.0 -8.65 9.0 -8.75 9.05 -8.8 9.05 -8.8 8.95 -8.85 8.95 -8.85 8.9 -8.85 8.85 -8.85 8.85 -8.9 8.8 -8.85 M9.0 -8.5 L8.95 -8.55 8.95 -8.45 8.9 -8.4 8.9 -8.4 8.95 -8.4 9.0 -8.45 9.0 -8.5 M9.0 -8.4 L9.0 -8.35 8.95 -8.3 Q8.95 -8.3 8.95 -8.25 L8.9 -8.15 8.85 -8.15 8.85 -8.15 8.9 -8.1 8.95 -8.1 8.95 -8.0 8.9 -8.0 8.9 -8.0 8.85 -8.0 8.9 -7.95 8.9 -7.95 8.95 -7.95 9.0 -7.9 Q9.05 -7.9 9.05 -7.95 L9.1 -8.1 9.15 -8.25 9.1 -8.3 9.1 -8.35 9.1 -8.35 9.05 -8.4 9.05 -8.45 9.0 -8.4 9.0 -8.4 M8.85 -8.35 L8.8 -8.35 8.8 -8.35 8.75 -8.35 8.75 -8.35 8.75 -8.3 8.75 -8.3 8.8 -8.3 Q8.8 -8.3 8.85 -8.3 L8.85 -8.35 M8.6 -8.35 L8.6 -8.3 8.65 -8.25 8.65 -8.3 8.65 -8.35 8.6 -8.35 M8.65 -8.15 L8.6 -8.05 8.6 -8.05 8.55 -8.0 8.6 -7.95 8.6 -7.9 8.7 -7.85 8.7 -7.85 8.75 -7.9 8.75 -7.9 8.7 -7.9 8.7 -8.0 8.7 -8.05 8.75 -8.1 8.8 -8.1 8.85 -8.1 8.9 -8.1 8.85 -8.15 8.8 -8.15 8.75 -8.15 8.7 -8.1 8.7 -8.15 8.65 -8.2 8.65 -8.15 M8.3 -8.05 L8.25 -8.05 8.2 -8.05 8.2 -8.05 8.2 -8.0 8.25 -8.0 8.25 -8.0 8.3 -8.0 8.35 -8.05 8.3 -8.05 8.3 -8.05 M8.5 -8.1 L8.45 -8.2 8.4 -8.25 8.4 -8.25 8.35 -8.2 8.35 -8.1 8.4 -8.0 8.4 -7.9 8.4 -7.85 Q8.45 -7.85 8.45 -7.9 L8.5 -7.95 8.5 -8.1 M8.45 -7.8 L8.4 -7.75 8.3 -7.8 8.3 -7.8 8.25 -7.75 8.25 -7.75 8.3 -7.7 8.3 -7.7 8.35 -7.65 8.5 -7.75 8.55 -7.8 8.55 -7.8 8.55 -7.85 8.45 -7.8 8.45 -7.8 M8.8 -7.9 L8.8 -7.85 8.75 -7.85 8.75 -7.8 8.75 -7.8 8.75 -7.8 8.8 -7.8 8.8 -7.9 M9.2 -8.45 L9.2 -8.45 9.25 -8.4 9.2 -8.4 9.25 -8.35 9.25 -8.3 9.35 -8.35 9.35 -8.45 9.3 -8.45 9.25 -8.45 9.2 -8.45 9.2 -8.45 9.2 -8.45" fill="#b97814" fill-rule="evenodd" stroke="none"/>
    <path d="M8.6 -9.4 L8.6 -9.35 8.55 -9.35 8.55 -9.3 8.5 -9.3 8.5 -9.3 8.45 -9.25 8.45 -9.3 8.4 -9.35 8.45 -9.35 8.45 -9.4 8.45 -9.45 8.5 -9.45 8.55 -9.5 8.6 -9.45 8.6 -9.4 M8.05 -8.9 L8.05 -8.85 8.0 -8.8 7.95 -8.8 7.95 -8.85 8.0 -8.9 8.05 -8.9 8.05 -8.9 M7.95 -9.05 L7.95 -8.95 7.9 -8.95 7.85 -8.9 7.85 -9.0 7.8 -9.0 7.8 -9.05 7.85 -9.1 7.9 -9.1 7.9 -9.1 8.0 -9.1 8.0 -9.1 8.0 -9.05 7.95 -9.05 M7.55 -8.75 L7.6 -8.75 7.65 -8.75 7.65 -8.75 7.7 -8.7 7.7 -8.7 Q7.7 -8.8 7.75 -8.8 7.8 -8.85 7.85 -8.85 L7.9 -8.8 7.9 -8.75 7.85 -8.75 7.8 -8.7 7.8 -8.65 7.75 -8.6 7.7 -8.65 7.7 -8.65 7.65 -8.7 7.55 -8.7 7.5 -8.75 7.5 -8.8 7.55 -8.8 7.55 -8.75 M8.0 -9.45 L8.05 -9.4 8.05 -9.4 8.0 -9.35 8.0 -9.3 8.05 -9.25 8.1 -9.2 8.1 -9.2 8.05 -9.2 8.0 -9.2 7.95 -9.15 7.9 -9.2 7.9 -9.2 7.8 -9.3 7.9 -9.35 8.0 -9.45 M8.0 -8.1 L8.05 -8.05 8.1 -8.0 8.15 -7.9 8.15 -7.9 8.1 -7.95 8.05 -7.95 7.95 -7.95 7.9 -7.95 7.9 -7.95 7.8 -7.95 7.85 -8.05 7.95 -8.1 8.0 -8.1 M7.85 -8.45 L7.95 -8.4 8.0 -8.35 8.05 -8.35 8.1 -8.35 8.1 -8.3 8.05 -8.25 8.05 -8.2 7.95 -8.15 7.95 -8.15 7.9 -8.2 7.85 -8.25 7.8 -8.25 Q7.75 -8.25 7.75 -8.3 L7.75 -8.35 7.8 -8.4 7.8 -8.45 7.85 -8.45 7.85 -8.45 M8.05 -8.6 L8.1 -8.6 8.1 -8.6 8.15 -8.6 8.15 -8.55 8.15 -8.55 8.05 -8.55 8.05 -8.55 8.05 -8.6 M8.8 -8.85 L8.85 -8.9 8.85 -8.85 8.9 -8.85 8.95 -8.85 8.95 -8.85 9.05 -8.8 9.05 -8.8 9.0 -8.75 9.0 -8.65 8.95 -8.65 8.9 -8.7 Q8.9 -8.7 8.85 -8.7 L8.8 -8.85 M8.2 -8.75 L8.2 -8.8 8.3 -8.7 8.3 -8.7 8.25 -8.65 8.2 -8.65 Q8.15 -8.65 8.15 -8.7 L8.2 -8.7 8.2 -8.7 8.2 -8.75 M8.3 -9.25 L8.35 -9.2 8.3 -9.2 8.25 -9.15 8.25 -9.15 8.2 -9.2 8.2 -9.2 8.25 -9.25 8.25 -9.25 8.3 -9.25 M8.05 -7.6 Q8.05 -7.6 8.1 -7.65 L8.1 -7.65 8.15 -7.7 8.15 -7.75 8.2 -7.75 8.2 -7.6 Q8.2 -7.55 8.25 -7.55 L8.25 -7.55 8.3 -7.55 8.3 -7.5 8.25 -7.5 8.2 -7.45 8.15 -7.5 8.15 -7.55 8.1 -7.55 8.05 -7.6 M7.8 -7.6 L7.85 -7.6 7.85 -7.6 7.9 -7.55 7.9 -7.6 7.95 -7.6 8.0 -7.55 7.95 -7.55 7.9 -7.5 7.85 -7.45 7.8 -7.45 7.8 -7.5 7.75 -7.55 7.7 -7.6 7.7 -7.65 7.7 -7.7 7.75 -7.7 7.75 -7.65 7.8 -7.65 7.8 -7.6 M8.6 -8.35 L8.65 -8.35 8.65 -8.3 8.65 -8.25 8.6 -8.3 8.6 -8.35 M8.85 -8.35 L8.85 -8.3 Q8.8 -8.3 8.8 -8.3 L8.75 -8.3 8.75 -8.3 8.75 -8.35 8.75 -8.35 8.8 -8.35 8.8 -8.35 8.85 -8.35 M9.0 -8.4 L9.0 -8.4 9.05 -8.45 9.05 -8.4 9.1 -8.35 9.1 -8.35 9.1 -8.3 9.15 -8.25 9.1 -8.1 9.05 -7.95 Q9.05 -7.9 9.0 -7.9 L8.95 -7.95 8.9 -7.95 8.9 -7.95 8.85 -8.0 8.9 -8.0 8.9 -8.0 8.95 -8.0 8.95 -8.1 8.9 -8.1 8.85 -8.15 8.85 -8.15 8.9 -8.15 8.95 -8.25 Q8.95 -8.3 8.95 -8.3 L9.0 -8.35 9.0 -8.4 M8.5 -8.1 L8.5 -7.95 8.45 -7.9 Q8.45 -7.85 8.4 -7.85 L8.4 -7.9 8.4 -8.0 8.35 -8.1 8.35 -8.2 8.4 -8.25 8.4 -8.25 8.45 -8.2 8.5 -8.1 M8.8 -7.9 L8.8 -7.8 8.75 -7.8 8.75 -7.8 8.75 -7.8 8.75 -7.85 8.8 -7.85 8.8 -7.9 M8.45 -7.8 L8.45 -7.8 8.55 -7.85 8.55 -7.8 8.55 -7.8 8.5 -7.75 8.35 -7.65 8.3 -7.7 8.3 -7.7 8.25 -7.75 8.25 -7.75 8.3 -7.8 8.3 -7.8 8.4 -7.75 8.45 -7.8 M9.2 -8.45 L9.2 -8.45 9.2 -8.45 9.25 -8.45 9.3 -8.45 9.35 -8.45 9.35 -8.35 9.25 -8.3 9.25 -8.35 9.2 -8.4 9.25 -8.4 9.2 -8.45 9.2 -8.45" fill="#ffe693" fill-rule="evenodd" stroke="none"/>
  </g>
</svg>
