<?xml version="1.0" encoding="UTF-8" standalone="no"?>
<svg xmlns:xlink="http://www.w3.org/1999/xlink" height="1.75px" width="1.65px" xmlns="http://www.w3.org/2000/svg">
  <g transform="matrix(1.0, 0.0, 0.0, 1.0, -10.75, 10.2)">
    <path d="M12.25 -9.05 L12.25 -9.1 12.3 -9.1 12.3 -9.1 12.35 -9.1 12.35 -9.05 12.4 -9.05 12.4 -8.9 12.35 -8.9 12.3 -8.9 12.3 -8.95 12.3 -9.0 12.3 -9.05 12.25 -9.05 M11.7 -9.3 L11.75 -9.3 11.85 -9.35 11.95 -9.3 11.95 -9.3 12.0 -9.3 12.05 -9.2 12.0 -9.1 11.95 -9.05 11.85 -9.0 11.85 -8.9 11.9 -8.85 11.95 -8.85 11.95 -8.75 11.9 -8.65 11.8 -8.6 11.75 -8.6 11.75 -8.65 11.75 -8.8 11.75 -8.8 11.8 -8.8 11.85 -8.75 11.85 -8.8 11.8 -8.9 11.8 -8.95 11.85 -9.05 11.95 -9.15 11.95 -9.2 11.9 -9.2 11.85 -9.2 11.75 -9.2 11.6 -9.2 11.65 -9.25 11.7 -9.3 M11.45 -9.1 L11.5 -9.1 11.55 -9.1 11.6 -9.0 11.6 -8.95 Q11.55 -8.9 11.5 -8.9 L11.5 -8.9 11.45 -8.95 11.5 -9.0 11.5 -9.05 11.45 -9.05 11.45 -9.1 M11.15 -9.2 L11.15 -9.1 11.1 -9.05 11.05 -9.0 11.0 -8.95 11.0 -8.95 11.05 -8.9 11.05 -8.9 11.1 -8.75 11.05 -8.65 Q11.05 -8.6 10.95 -8.6 L10.95 -8.6 10.9 -8.65 10.9 -8.7 10.9 -8.8 10.9 -8.85 10.95 -8.8 11.0 -8.75 11.0 -8.8 10.95 -8.85 10.9 -8.95 10.95 -9.0 11.0 -9.05 11.05 -9.1 11.1 -9.15 11.05 -9.2 11.0 -9.2 10.9 -9.2 10.8 -9.15 10.8 -9.2 10.8 -9.25 10.85 -9.3 10.95 -9.3 11.0 -9.3 11.1 -9.3 11.15 -9.25 11.15 -9.2 M11.6 -8.8 L11.6 -8.85 11.65 -8.8 11.65 -8.75 11.6 -8.75 11.6 -8.8 M11.65 -8.75 L11.7 -8.75 11.7 -8.7 11.7 -8.6 11.6 -8.55 11.6 -8.6 11.65 -8.6 11.65 -8.7 11.65 -8.75 M10.75 -8.85 L10.8 -8.85 10.8 -8.8 10.75 -8.8 10.75 -8.85 10.75 -8.85 M10.85 -8.75 L10.85 -8.6 10.8 -8.55 10.8 -8.6 10.8 -8.7 10.85 -8.75 10.85 -8.75" fill="#f7f7e7" fill-rule="evenodd" stroke="none"/>
    <path d="M12.15 -9.3 L12.2 -9.3 12.2 -9.3 12.15 -9.25 12.15 -9.3 12.15 -9.3 M12.35 -10.15 L12.35 -10.15 12.35 -10.1 12.35 -10.15 12.35 -10.15 M12.1 -10.05 L12.1 -10.0 12.1 -10.0 12.05 -9.95 12.05 -10.0 12.05 -10.0 12.1 -10.05 12.1 -10.05 M11.6 -10.2 L11.65 -10.2 11.65 -10.2 11.65 -10.2 11.65 -10.2 11.6 -10.2 M11.8 -9.65 L11.8 -9.7 11.85 -9.7 11.85 -9.65 11.8 -9.65 M12.25 -8.65 L12.25 -8.7 12.3 -8.7 12.3 -8.7 12.35 -8.65 12.35 -8.65 12.3 -8.65 12.25 -8.65 12.25 -8.65 M12.15 -9.4 L12.15 -9.4 12.15 -9.35 12.1 -9.35 12.1 -9.35 12.15 -9.4 12.15 -9.4 M12.1 -9.0 L12.1 -9.0 12.15 -9.0 12.1 -8.95 12.1 -8.95 12.05 -8.95 12.05 -8.95 12.1 -9.0 12.1 -9.0 M12.15 -8.75 L12.1 -8.75 12.1 -8.75 12.15 -8.8 12.15 -8.75 12.15 -8.75 M12.05 -8.45 L12.0 -8.45 12.0 -8.45 12.0 -8.5 12.05 -8.5 12.05 -8.45" fill="#421818" fill-rule="evenodd" stroke="none"/>
  </g>
</svg>
