<?xml version="1.0" encoding="UTF-8" standalone="no"?>
<svg xmlns:xlink="http://www.w3.org/1999/xlink" height="2.05px" width="2.3px" xmlns="http://www.w3.org/2000/svg">
  <g transform="matrix(1.0, 0.0, 0.0, 1.0, -10.5, 10.1)">
    <path d="M11.4 -9.1 L11.45 -9.1 11.45 -9.15 11.55 -9.15 11.6 -9.15 11.65 -9.1 11.7 -9.15 11.75 -9.15 11.8 -9.15 11.8 -9.05 11.75 -9.0 11.75 -8.95 11.8 -8.9 11.75 -8.8 11.75 -8.7 11.75 -8.65 Q11.75 -8.55 11.7 -8.5 L11.6 -8.5 11.6 -8.5 11.55 -8.5 11.6 -8.55 11.6 -8.55 11.6 -8.55 11.55 -8.55 11.55 -8.55 11.5 -8.6 11.55 -8.65 11.55 -8.7 11.5 -8.75 11.5 -8.8 11.5 -8.8 11.55 -8.75 11.6 -8.75 Q11.6 -8.7 11.6 -8.7 L11.7 -8.75 11.65 -8.8 11.65 -8.8 11.6 -8.8 11.6 -8.8 11.6 -8.9 11.65 -8.9 11.7 -8.95 11.75 -8.95 11.7 -9.0 11.65 -9.05 11.55 -9.05 11.5 -9.05 Q11.4 -9.05 11.4 -9.1 M11.2 -9.0 L11.2 -9.0 11.3 -8.95 11.3 -8.85 11.35 -8.85 11.35 -8.8 11.4 -8.8 11.4 -8.8 11.45 -8.7 11.5 -8.55 11.45 -8.5 11.45 -8.5 11.4 -8.55 11.45 -8.6 11.4 -8.65 11.35 -8.7 11.3 -8.75 11.25 -8.7 11.25 -8.7 Q11.2 -8.7 11.2 -8.7 L11.2 -8.8 11.25 -8.85 11.2 -8.85 11.2 -8.9 11.15 -8.9 11.15 -8.95 11.2 -9.0 M12.1 -8.9 L12.1 -8.9 12.15 -8.8 12.1 -8.75 Q12.1 -8.75 12.05 -8.75 L12.05 -8.75 12.05 -8.8 12.1 -8.85 12.05 -8.9 12.0 -8.95 12.05 -8.95 12.05 -8.95 12.1 -8.9 M10.65 -9.15 L10.7 -9.15 10.8 -9.15 Q10.85 -9.1 10.85 -9.1 L10.9 -9.1 10.95 -9.1 10.95 -9.1 11.0 -9.1 10.95 -9.05 10.9 -9.0 10.9 -8.95 10.85 -8.9 10.8 -8.85 10.85 -8.75 10.9 -8.7 10.9 -8.65 10.9 -8.6 10.95 -8.6 10.9 -8.55 10.85 -8.5 10.8 -8.5 10.75 -8.5 10.75 -8.5 10.75 -8.55 10.75 -8.6 10.7 -8.55 10.7 -8.55 10.65 -8.55 10.65 -8.55 10.7 -8.6 10.7 -8.75 10.65 -8.8 10.65 -8.85 10.7 -8.75 10.75 -8.7 10.8 -8.75 10.8 -8.8 10.75 -8.8 10.75 -8.85 10.75 -8.9 10.8 -8.9 10.8 -8.95 10.85 -8.95 10.9 -9.0 10.85 -9.05 10.85 -9.05 10.75 -9.05 10.65 -9.1 10.6 -9.1 10.65 -9.15 M10.55 -8.75 L10.6 -8.7 10.6 -8.6 10.6 -8.45 10.55 -8.45 10.55 -8.55 10.55 -8.65 10.5 -8.7 10.5 -8.75 10.55 -8.75" fill="#f7f7e7" fill-rule="evenodd" stroke="none"/>
    <path d="M12.0 -9.95 L12.0 -9.95 12.05 -9.95 12.05 -9.95 12.0 -9.9 12.0 -9.9 12.0 -9.85 12.0 -9.95 M11.4 -10.05 L11.4 -10.05 11.35 -10.05 11.35 -10.1 11.4 -10.1 11.4 -10.1 11.4 -10.05 M12.3 -9.5 L12.3 -9.55 12.3 -9.55 12.35 -9.55 12.35 -9.55 12.3 -9.55 12.3 -9.5 M12.4 -9.3 L12.4 -9.25 12.4 -9.25 12.35 -9.25 12.35 -9.25 12.4 -9.25 12.4 -9.3 M12.6 -9.5 L12.55 -9.5 12.55 -9.45 12.55 -9.5 12.6 -9.5 12.6 -9.5 M12.45 -9.2 L12.5 -9.2 12.5 -9.15 12.5 -9.15 12.5 -9.15 12.45 -9.15 12.45 -9.2 M12.75 -8.55 L12.75 -8.6 12.8 -8.55 12.75 -8.55 12.75 -8.55 M12.55 -8.9 L12.5 -8.9 12.5 -8.9 12.45 -8.9 12.5 -8.9 12.5 -8.95 12.55 -8.95 12.55 -8.9 M12.65 -9.05 L12.6 -9.1 12.65 -9.1 12.65 -9.1 12.65 -9.05 12.65 -9.05 M12.45 -8.5 L12.45 -8.5 12.5 -8.5 12.55 -8.45 12.5 -8.45 12.5 -8.45 12.45 -8.45 12.45 -8.45 12.45 -8.45 12.4 -8.45 12.4 -8.5 12.45 -8.5 M12.55 -8.5 L12.6 -8.5 12.6 -8.45 12.55 -8.5 M11.55 -9.5 L11.55 -9.5 11.5 -9.45 11.5 -9.45 11.5 -9.5 11.55 -9.5 M11.55 -9.6 L11.55 -9.6 11.6 -9.6 11.6 -9.6 11.55 -9.55 11.55 -9.6 11.55 -9.6 M11.5 -9.9 L11.5 -9.85 11.45 -9.85 11.45 -9.85 11.45 -9.9 11.5 -9.9 11.5 -9.9 M11.85 -9.55 L11.85 -9.55 11.9 -9.6 11.9 -9.6 11.9 -9.55 11.85 -9.55 11.85 -9.55 M11.8 -9.85 L11.8 -9.8 11.75 -9.8 11.75 -9.85 11.8 -9.85 11.8 -9.85 11.8 -9.85 11.8 -9.85 M11.85 -9.25 L11.85 -9.25 11.85 -9.2 11.85 -9.2 11.85 -9.25 M11.8 -8.8 L11.85 -8.75 11.8 -8.75 11.8 -8.75 11.8 -8.8 M12.05 -8.05 L12.05 -8.1 12.1 -8.1 12.1 -8.05 12.1 -8.05 12.05 -8.05 12.05 -8.05 M11.8 -8.25 L11.8 -8.25 11.85 -8.25 11.85 -8.2 11.85 -8.15 11.8 -8.15 11.8 -8.15 11.8 -8.2 11.8 -8.25 M11.7 -8.4 L11.7 -8.4 11.7 -8.45 11.75 -8.45 11.75 -8.4 11.7 -8.4 11.7 -8.4 M11.95 -8.6 L11.95 -8.6 12.0 -8.6 12.0 -8.55 11.95 -8.55 11.95 -8.6" fill="#421818" fill-rule="evenodd" stroke="none"/>
  </g>
</svg>
