<?xml version="1.0" encoding="UTF-8" standalone="no"?>
<svg xmlns:xlink="http://www.w3.org/1999/xlink" height="2.1px" width="2.25px" xmlns="http://www.w3.org/2000/svg">
  <g transform="matrix(1.0, 0.0, 0.0, 1.0, -7.55, 9.8)">
    <path d="M7.65 -8.8 L7.75 -8.8 7.8 -8.8 7.85 -8.8 7.9 -8.8 7.95 -8.8 8.0 -8.8 8.0 -8.75 7.95 -8.7 7.95 -8.65 7.9 -8.55 7.85 -8.5 7.9 -8.45 7.95 -8.4 7.95 -8.35 7.9 -8.3 7.9 -8.3 7.95 -8.25 7.9 -8.25 Q7.9 -8.2 7.85 -8.2 L7.85 -8.2 7.8 -8.15 7.8 -8.2 7.8 -8.25 7.75 -8.25 7.75 -8.25 7.7 -8.2 7.7 -8.25 7.7 -8.25 7.75 -8.35 7.7 -8.45 7.7 -8.5 7.7 -8.5 7.75 -8.45 7.8 -8.4 7.8 -8.45 7.8 -8.5 7.8 -8.5 7.75 -8.55 7.8 -8.55 7.8 -8.6 7.85 -8.6 7.85 -8.65 7.9 -8.7 7.9 -8.7 7.85 -8.75 7.75 -8.75 7.7 -8.75 7.6 -8.75 7.65 -8.8 M7.65 -8.25 L7.65 -8.2 7.6 -8.15 7.6 -8.15 7.55 -8.2 7.55 -8.3 7.55 -8.4 7.55 -8.4 7.6 -8.35 7.65 -8.35 7.65 -8.25 M8.45 -8.75 L8.45 -8.8 8.55 -8.8 8.6 -8.8 8.7 -8.8 8.75 -8.8 8.75 -8.8 8.8 -8.8 8.8 -8.7 8.75 -8.7 8.8 -8.65 8.8 -8.5 8.75 -8.45 8.75 -8.4 8.8 -8.3 Q8.8 -8.25 8.7 -8.2 L8.6 -8.15 8.6 -8.2 8.6 -8.25 8.6 -8.25 8.6 -8.25 8.55 -8.25 8.55 -8.25 8.55 -8.35 8.55 -8.4 8.55 -8.45 8.5 -8.45 8.5 -8.5 8.55 -8.45 8.6 -8.4 Q8.6 -8.4 8.65 -8.4 8.7 -8.4 8.7 -8.45 L8.7 -8.5 8.65 -8.5 8.65 -8.45 8.6 -8.45 8.6 -8.5 8.65 -8.55 8.7 -8.6 8.75 -8.6 8.75 -8.7 8.65 -8.75 8.6 -8.75 8.55 -8.75 Q8.45 -8.75 8.45 -8.75 M9.05 -8.6 L9.0 -8.6 9.05 -8.65 9.05 -8.65 9.1 -8.65 9.1 -8.6 9.15 -8.55 9.15 -8.45 9.1 -8.4 9.1 -8.45 9.1 -8.55 9.05 -8.6 M8.35 -8.5 L8.4 -8.5 8.4 -8.45 8.45 -8.4 8.5 -8.25 8.5 -8.2 8.45 -8.15 8.45 -8.3 8.4 -8.35 8.4 -8.35 8.3 -8.4 8.3 -8.4 8.25 -8.4 8.2 -8.4 8.25 -8.45 8.25 -8.55 8.2 -8.55 8.2 -8.6 8.15 -8.65 8.2 -8.65 8.25 -8.65 8.3 -8.65 8.35 -8.55 8.35 -8.5" fill="#f7f7e7" fill-rule="evenodd" stroke="none"/>
    <path d="M9.6 -9.15 L9.6 -9.15 9.55 -9.15 9.55 -9.15 9.6 -9.2 9.6 -9.15 M9.3 -9.2 L9.3 -9.2 9.35 -9.2 9.35 -9.2 9.35 -9.2 9.3 -9.2 9.3 -9.2 M9.55 -8.85 L9.5 -8.85 9.5 -8.85 9.5 -8.85 9.5 -8.85 9.55 -8.85 9.55 -8.85 M8.5 -9.15 L8.5 -9.15 8.55 -9.2 8.55 -9.15 8.55 -9.15 8.5 -9.15 M8.6 -9.3 L8.6 -9.25 8.55 -9.25 8.55 -9.3 8.55 -9.3 8.6 -9.3 M8.5 -9.55 L8.5 -9.5 8.45 -9.5 8.45 -9.55 8.5 -9.55 8.5 -9.55 M8.4 -9.75 L8.4 -9.75 8.35 -9.75 8.4 -9.75 8.4 -9.75 8.4 -9.75 M8.85 -9.55 L8.85 -9.55 8.85 -9.5 8.8 -9.5 8.8 -9.5 8.75 -9.5 8.8 -9.55 8.8 -9.55 8.85 -9.55 M9.05 -9.6 L9.05 -9.6 9.05 -9.55 9.0 -9.55 9.0 -9.55 9.0 -9.6 9.05 -9.65 9.05 -9.6 M9.7 -8.75 L9.7 -8.75 9.65 -8.75 9.65 -8.75 9.65 -8.8 9.7 -8.75 M9.45 -8.95 L9.45 -8.95 9.4 -8.95 9.4 -8.9 9.4 -8.95 9.4 -8.95 9.45 -8.95 M8.9 -9.25 L8.9 -9.25 8.85 -9.25 8.85 -9.25 8.9 -9.3 8.9 -9.25 8.95 -9.25 8.9 -9.25 M8.85 -8.9 L8.85 -8.95 8.9 -8.95 8.9 -8.9 8.9 -8.9 8.85 -8.9 8.85 -8.9 M8.8 -8.4 L8.8 -8.45 8.85 -8.45 8.85 -8.45 8.8 -8.4 M9.0 -8.25 L9.0 -8.25 8.95 -8.25 8.95 -8.25 9.0 -8.25 9.0 -8.25 M8.7 -8.1 L8.7 -8.1 8.75 -8.1 8.75 -8.1 8.75 -8.1 8.7 -8.1 8.7 -8.1 M8.85 -7.95 L8.85 -7.9 8.85 -7.85 8.85 -7.8 8.8 -7.85 8.8 -7.85 8.8 -7.9 8.85 -7.95 8.85 -7.95 M9.05 -7.75 L9.1 -7.75 9.1 -7.75 9.1 -7.7 9.1 -7.7 9.05 -7.75 9.05 -7.75 M9.65 -8.15 L9.6 -8.15 9.6 -8.15 9.65 -8.15 M9.55 -8.6 L9.55 -8.6 9.5 -8.6 9.5 -8.6 9.5 -8.6 9.55 -8.6 9.55 -8.6 M9.75 -8.25 L9.75 -8.25 9.8 -8.25 9.8 -8.25 9.75 -8.25 9.75 -8.25 M9.45 -8.2 L9.55 -8.15 9.55 -8.15 9.55 -8.15 9.5 -8.15 9.45 -8.15 9.45 -8.1 9.45 -8.15 9.4 -8.15 9.45 -8.2 9.45 -8.2" fill="#421818" fill-rule="evenodd" stroke="none"/>
  </g>
</svg>
