<?xml version="1.0" encoding="UTF-8" standalone="no"?>
<svg xmlns:xlink="http://www.w3.org/1999/xlink" height="1.75px" width="1.7px" xmlns="http://www.w3.org/2000/svg">
  <g transform="matrix(1.0, 0.0, 0.0, 1.0, -7.75, 9.9)">
    <path d="M8.05 -9.0 L8.1 -8.95 8.15 -8.95 8.15 -8.9 8.2 -8.85 8.15 -8.8 8.1 -8.75 8.05 -8.7 8.0 -8.65 8.0 -8.6 8.05 -8.6 8.1 -8.55 8.1 -8.35 Q8.05 -8.3 8.0 -8.3 L7.95 -8.3 7.95 -8.35 7.95 -8.4 7.9 -8.45 7.9 -8.5 7.95 -8.5 8.0 -8.45 8.0 -8.45 8.05 -8.45 8.05 -8.45 8.0 -8.55 7.95 -8.65 7.95 -8.7 8.0 -8.75 8.05 -8.8 8.1 -8.85 8.1 -8.85 8.05 -8.85 7.95 -8.85 7.85 -8.85 7.8 -8.85 7.8 -8.9 7.85 -8.9 7.9 -8.95 7.95 -9.0 8.05 -9.0 M7.85 -8.4 L7.9 -8.35 7.85 -8.3 7.85 -8.25 7.8 -8.25 7.8 -8.3 7.85 -8.4 7.85 -8.45 7.85 -8.4 M7.8 -8.45 L7.75 -8.5 7.75 -8.55 7.8 -8.5 7.8 -8.5 7.8 -8.45 M9.3 -8.75 L9.35 -8.8 9.35 -8.75 9.4 -8.75 9.4 -8.75 9.45 -8.65 9.4 -8.6 9.35 -8.55 9.3 -8.6 9.3 -8.65 9.35 -8.7 9.35 -8.7 9.3 -8.7 9.3 -8.75 Q9.25 -8.7 9.25 -8.75 L9.25 -8.75 9.3 -8.75 M8.65 -8.45 L8.65 -8.45 8.6 -8.5 8.6 -8.5 8.65 -8.5 8.65 -8.5 8.65 -8.45 M8.7 -8.45 L8.7 -8.4 8.75 -8.4 8.75 -8.35 8.7 -8.25 8.65 -8.2 8.65 -8.25 8.65 -8.3 8.7 -8.35 8.7 -8.4 8.65 -8.4 8.7 -8.45 M8.95 -9.0 L9.0 -9.0 9.0 -8.95 9.05 -8.85 9.05 -8.8 8.95 -8.75 8.9 -8.7 8.85 -8.6 8.85 -8.6 8.9 -8.55 8.95 -8.5 8.95 -8.4 8.9 -8.35 Q8.9 -8.3 8.8 -8.3 L8.8 -8.3 8.75 -8.3 8.8 -8.4 8.8 -8.45 8.8 -8.45 8.85 -8.45 8.85 -8.55 8.8 -8.65 8.9 -8.75 9.0 -8.85 8.95 -8.85 8.9 -8.9 8.85 -8.9 8.8 -8.85 8.65 -8.85 8.65 -8.9 8.7 -9.0 8.8 -9.0 8.9 -9.0 8.95 -9.0 M8.5 -8.75 L8.45 -8.75 8.45 -8.75 8.5 -8.8 8.6 -8.75 8.6 -8.6 Q8.55 -8.6 8.5 -8.6 L8.5 -8.6 8.5 -8.65 8.5 -8.75" fill="#f7f7e7" fill-rule="evenodd" stroke="none"/>
    <path d="M9.15 -8.7 L9.15 -8.65 9.1 -8.65 9.1 -8.6 9.05 -8.6 9.1 -8.65 9.1 -8.7 9.15 -8.7 M9.15 -9.0 L9.2 -9.0 9.2 -8.95 9.2 -8.95 9.15 -8.95 9.15 -9.0 M9.15 -9.1 L9.15 -9.1 9.15 -9.05 9.1 -9.0 9.1 -9.05 9.15 -9.05 9.15 -9.1 M9.15 -9.65 L9.1 -9.65 9.1 -9.65 9.05 -9.65 9.05 -9.7 9.1 -9.7 9.1 -9.7 9.15 -9.7 9.15 -9.65 M9.4 -9.85 L9.4 -9.8 9.35 -9.8 9.35 -9.8 9.35 -9.85 9.4 -9.85 M8.8 -9.35 L8.8 -9.35 8.85 -9.35 8.85 -9.35 8.8 -9.35 M8.7 -9.9 L8.7 -9.85 8.65 -9.85 8.65 -9.85 8.65 -9.9 8.7 -9.9 M9.3 -8.35 L9.3 -8.35 9.35 -8.35 9.4 -8.35 9.35 -8.35 9.3 -8.35 9.3 -8.35 9.25 -8.35 9.3 -8.35 9.3 -8.35 M9.1 -8.45 L9.15 -8.45 9.15 -8.4 9.15 -8.45 9.1 -8.45 M9.0 -8.15 L9.0 -8.15 9.05 -8.2 9.05 -8.15 9.05 -8.15 9.0 -8.15" fill="#421818" fill-rule="evenodd" stroke="none"/>
  </g>
</svg>
