<?xml version="1.0" encoding="UTF-8" standalone="no"?>
<svg xmlns:xlink="http://www.w3.org/1999/xlink" height="2.3px" width="4.2px" xmlns="http://www.w3.org/2000/svg">
  <g transform="matrix(1.0, 0.0, 0.0, 1.0, 2.05, 1.45)">
    <path d="M-1.85 -0.3 L-1.8 -0.4 -1.8 -0.55 -1.75 -0.6 -1.7 -0.6 -1.6 -0.65 -1.55 -0.65 -1.5 -0.7 -1.45 -0.7 -1.45 -0.5 -1.45 -0.1 -1.4 -0.05 Q-1.55 -0.05 -1.6 -0.1 L-1.65 -0.2 -1.75 -0.3 -1.8 -0.3 -1.8 -0.35 -1.85 -0.3 M1.1 -1.1 L1.1 -1.05 1.15 -0.9 1.2 -0.75 1.25 -0.65 1.3 -0.55 1.4 -0.45 1.4 -0.3 1.4 -0.2 1.45 -0.15 1.45 0.05 1.45 0.2 1.45 0.25 1.4 0.3 1.35 0.3 1.3 0.25 1.25 0.25 1.2 0.25 1.15 0.3 1.1 0.35 1.05 0.35 Q1.05 0.35 1.05 0.4 L0.95 0.4 0.8 0.4 0.65 0.4 0.6 0.45 0.55 0.4 0.55 0.3 0.75 0.4 Q0.9 0.4 1.1 0.1 L1.15 0.1 1.2 0.1 1.2 0.05 1.2 -0.05 1.15 -0.1 1.05 -0.1 1.0 -0.1 0.95 -0.15 0.9 -0.1 0.85 -0.1 0.85 -0.15 Q1.15 -0.3 1.3 -0.45 L1.15 -0.5 0.9 -0.5 0.65 -0.4 0.55 -0.4 0.5 -0.5 0.5 -0.65 0.45 -0.75 0.4 -0.85 0.4 -0.95 0.5 -0.95 0.55 -0.95 0.65 -0.95 0.65 -0.95 0.75 -1.0 0.75 -1.05 0.85 -1.05 0.9 -1.1 0.95 -1.1 1.05 -1.1 1.1 -1.1 M-1.05 -0.75 L-1.0 -0.75 -0.9 -0.8 -0.8 -0.8 -0.7 -0.8 -0.65 -0.85 -0.6 -0.85 -0.6 -0.9 -0.55 -0.85 -0.45 -0.9 -0.35 -0.9 -0.3 -0.85 -0.25 -0.8 -0.15 -0.8 -0.05 -0.85 -0.05 -0.8 -0.1 -0.8 -0.15 -0.7 -0.15 -0.45 -0.1 -0.35 -0.15 -0.35 -0.3 -0.35 Q-0.5 -0.3 -0.4 -0.15 L-0.6 0.0 Q-0.65 0.0 -0.7 -0.05 L-0.85 -0.15 -0.95 -0.1 -1.0 -0.1 -1.0 -0.3 -0.95 -0.35 -1.0 -0.6 -1.05 -0.75" fill="#432e1d" fill-rule="evenodd" stroke="none"/>
    <path d="M0.25 -1.45 L0.25 -1.45 0.35 -1.45 0.45 -1.45 1.0 -1.35 1.1 -1.3 1.1 -1.1 1.05 -1.1 0.95 -1.1 0.9 -1.1 0.85 -1.05 0.75 -1.05 0.75 -1.0 0.65 -0.95 0.65 -0.95 0.55 -0.95 0.5 -0.95 0.4 -0.95 0.35 -1.0 0.3 -1.25 0.25 -1.35 0.25 -1.45 M0.9 -0.1 L0.95 -0.15 1.0 -0.1 1.05 -0.1 1.15 -0.1 1.2 -0.05 1.2 0.05 1.2 0.1 1.15 0.1 1.1 0.1 1.05 0.1 1.0 0.1 0.9 0.0 0.85 -0.05 0.8 -0.05 0.9 -0.1" fill="#5f442b" fill-rule="evenodd" stroke="none"/>
    <path d="M1.1 -1.3 L1.1 -1.25 Q1.2 -1.2 1.3 -1.15 L1.45 -1.0 1.5 -0.95 1.55 -0.9 1.6 -0.85 1.65 -0.75 1.8 -0.65 1.85 -0.55 1.85 -0.15 Q1.85 0.15 1.7 0.25 L1.7 0.3 1.65 0.3 1.55 0.3 1.5 0.25 Q1.45 0.25 1.4 0.3 L1.45 0.25 1.45 0.2 1.45 0.05 1.45 -0.15 1.4 -0.2 1.4 -0.3 1.4 -0.45 1.3 -0.55 1.25 -0.65 1.2 -0.75 1.15 -0.9 1.1 -1.05 1.1 -1.1 1.1 -1.3 M-0.05 -1.4 L0.05 -1.4 0.15 -1.4 0.25 -1.45 0.25 -1.35 0.3 -1.25 0.35 -1.0 0.4 -0.95 0.4 -0.85 0.45 -0.75 0.5 -0.65 0.5 -0.5 0.55 -0.4 0.55 -0.35 0.35 -0.35 0.3 -0.35 0.25 -0.25 Q0.15 -0.25 0.05 -0.35 L0.05 -0.35 -0.05 -0.3 -0.05 -0.35 -0.1 -0.35 -0.15 -0.45 -0.15 -0.7 -0.1 -0.8 -0.05 -0.8 -0.05 -0.85 -0.05 -0.95 -0.05 -1.0 -0.1 -1.1 -0.1 -1.3 -0.05 -1.35 -0.05 -1.4" fill="#231d15" fill-rule="evenodd" stroke="none"/>
    <path d="M0.55 0.3 L0.55 0.4 0.6 0.45 0.55 0.45 0.5 0.45 0.4 0.4 0.3 0.4 0.05 0.4 0.0 0.4 -0.15 0.35 -0.25 0.35 -0.3 0.25 -0.2 0.2 -0.1 0.2 -0.05 0.1 0.0 0.05 0.0 -0.05 0.0 -0.15 -0.05 -0.3 0.05 -0.35 0.05 -0.35 Q0.15 -0.25 0.25 -0.25 L0.3 -0.35 0.35 -0.35 0.55 -0.35 0.55 -0.3 Q0.6 -0.2 0.65 -0.15 L0.7 -0.05 0.7 0.05 0.6 0.15 0.55 0.2 0.55 0.3 M-1.4 -0.05 L-1.4 -0.05 -1.25 -0.1 -1.15 -0.15 -1.0 -0.1 -0.95 0.0 -0.8 0.15 -0.75 0.2 -0.75 0.25 -0.7 0.3 -0.7 0.3 Q-0.9 0.35 -1.05 0.4 L-1.15 0.45 -1.15 0.4 -1.25 0.35 -1.3 0.3 -1.4 0.25 -1.4 0.25 -1.45 0.05 -1.4 -0.05" fill="#0b0906" fill-rule="evenodd" stroke="none"/>
    <path d="M-1.6 0.6 L-1.65 0.55 -1.65 0.55 -1.75 0.55 -1.9 0.45 -2.0 0.25 -2.05 0.1 -2.05 -0.15 -1.95 -0.3 -1.85 -0.3 -1.8 -0.35 -1.8 -0.3 -1.75 -0.3 -1.65 -0.2 -1.6 -0.1 Q-1.55 -0.05 -1.4 -0.05 L-1.45 0.05 -1.4 0.25 -1.4 0.25 -1.3 0.3 -1.25 0.35 -1.15 0.4 -1.15 0.45 -1.15 0.5 -1.2 0.5 -1.3 0.55 -1.4 0.55 -1.6 0.6 M0.55 -0.4 L0.65 -0.4 0.9 -0.5 1.15 -0.5 1.3 -0.45 Q1.15 -0.3 0.85 -0.15 L0.85 -0.1 0.9 -0.1 0.8 -0.05 0.85 -0.05 0.9 0.0 1.0 0.1 1.05 0.1 1.1 0.1 Q0.9 0.4 0.75 0.4 L0.55 0.3 0.55 0.2 0.6 0.15 0.7 0.05 0.7 -0.05 0.65 -0.15 Q0.6 -0.2 0.55 -0.3 L0.55 -0.35 0.55 -0.4 M-0.05 -0.3 L0.0 -0.15 0.0 -0.05 0.0 0.05 -0.05 0.1 -0.1 0.2 -0.2 0.2 -0.3 0.25 -0.25 0.35 -0.4 0.3 -0.6 0.3 -0.7 0.3 -0.7 0.3 -0.7 0.3 -0.75 0.25 -0.75 0.2 -0.8 0.15 -0.95 0.0 -1.0 -0.1 -0.95 -0.1 -0.85 -0.15 -0.7 -0.05 Q-0.65 0.0 -0.6 0.0 L-0.4 -0.15 Q-0.5 -0.3 -0.3 -0.35 L-0.15 -0.35 -0.1 -0.35 -0.05 -0.35 -0.05 -0.3" fill="#312115" fill-rule="evenodd" stroke="none"/>
    <path d="M1.7 0.25 L1.8 0.3 1.85 0.35 1.9 0.35 1.95 0.35 2.05 0.4 2.1 0.4 2.15 0.55 1.95 0.6 1.9 0.6 1.4 0.7 1.35 0.7 1.45 0.65 1.5 0.65 1.55 0.65 1.55 0.6 1.45 0.65 1.4 0.6 1.35 0.55 1.25 0.6 Q1.2 0.55 1.15 0.55 L1.1 0.5 1.05 0.5 1.05 0.4 1.0 0.45 1.0 0.5 0.95 0.5 Q0.95 0.5 0.9 0.5 L0.9 0.45 0.8 0.4 1.05 0.4 Q1.05 0.35 1.05 0.35 L1.1 0.35 1.15 0.3 1.2 0.25 1.25 0.25 1.3 0.25 1.35 0.3 1.4 0.3 Q1.45 0.25 1.5 0.25 L1.55 0.3 1.65 0.3 1.7 0.3 1.7 0.25 M1.65 0.4 L1.7 0.4 1.7 0.35 1.6 0.35 Q1.55 0.35 1.6 0.4 L1.65 0.4" fill="#705937" fill-rule="evenodd" stroke="none"/>
    <path d="M2.15 0.55 L2.15 0.8 2.1 0.8 2.0 0.85 1.95 0.85 1.75 0.85 1.55 0.85 1.5 0.85 1.3 0.85 Q1.25 0.85 1.25 0.85 L1.15 0.85 1.1 0.85 0.6 0.75 0.35 0.65 0.3 0.6 0.2 0.6 0.1 0.55 Q0.15 0.55 0.2 0.55 L0.45 0.5 0.55 0.45 0.6 0.45 0.65 0.4 0.8 0.4 0.95 0.4 1.05 0.4 0.8 0.4 0.8 0.45 0.75 0.45 0.65 0.5 0.6 0.5 0.6 0.6 0.65 0.65 0.7 0.65 0.75 0.65 0.85 0.7 0.95 0.7 1.0 0.75 1.15 0.75 1.2 0.7 1.2 0.65 1.15 0.65 1.15 0.55 Q1.2 0.55 1.25 0.6 L1.35 0.55 1.4 0.6 1.45 0.65 1.55 0.6 1.55 0.65 1.5 0.65 1.45 0.65 1.35 0.7 1.4 0.7 1.9 0.6 1.95 0.6 2.15 0.55" fill="#49331f" fill-rule="evenodd" stroke="none"/>
    <path d="M1.65 0.4 L1.6 0.4 Q1.55 0.35 1.6 0.35 L1.7 0.35 1.7 0.4 1.65 0.4" fill="#a68f6d" fill-rule="evenodd" stroke="none"/>
    <path d="M0.8 0.4 L0.9 0.45 0.9 0.5 Q0.95 0.5 0.95 0.5 L1.0 0.5 1.0 0.45 1.05 0.4 1.05 0.5 1.1 0.5 1.15 0.55 1.15 0.65 1.2 0.65 1.2 0.7 1.15 0.75 1.0 0.75 0.95 0.7 0.85 0.7 0.75 0.65 0.7 0.65 0.65 0.65 0.6 0.6 0.6 0.5 0.65 0.5 0.75 0.45 0.8 0.45 0.8 0.4" fill="#60472f" fill-rule="evenodd" stroke="none"/>
    <path d="M0.3 0.6 L0.15 0.6 -0.05 0.55 -0.15 0.55 -0.2 0.5 -0.3 0.5 -0.35 0.5 -0.45 0.55 -0.6 0.55 -0.8 0.55 Q-0.8 0.55 -1.0 0.6 L-1.2 0.65 -1.4 0.65 -1.55 0.65 -1.6 0.6 -1.6 0.6 -1.4 0.55 -1.3 0.55 -1.2 0.5 -1.15 0.5 -1.15 0.45 -1.05 0.4 Q-0.9 0.35 -0.7 0.3 L-0.7 0.3 -0.6 0.3 -0.4 0.3 -0.25 0.35 -0.15 0.35 0.0 0.4 0.05 0.4 0.3 0.4 0.35 0.45 0.4 0.5 0.45 0.5 0.2 0.55 Q0.15 0.55 0.1 0.55 L0.2 0.6 0.3 0.6" fill="#948160" fill-rule="evenodd" stroke="none"/>
    <path d="M-1.05 -0.95 L-1.05 -0.95 -0.85 -1.05 -0.75 -1.1 -0.7 -1.1 -0.35 -1.3 -0.3 -1.3 -0.05 -1.4 -0.05 -1.35 -0.1 -1.3 -0.1 -1.1 -0.05 -1.0 -0.05 -0.95 -0.05 -0.85 -0.15 -0.8 -0.25 -0.8 -0.3 -0.85 -0.35 -0.9 -0.45 -0.9 -0.55 -0.85 -0.6 -0.9 -0.6 -0.85 -0.65 -0.85 -0.7 -0.8 -0.8 -0.8 -0.9 -0.8 -1.0 -0.75 -1.05 -0.75 -1.05 -0.95" fill="#60442a" fill-rule="evenodd" stroke="none"/>
    <path d="M-1.45 -0.7 L-1.4 -0.75 -1.35 -0.75 -1.2 -0.85 -1.05 -0.95 -1.05 -0.75 -1.0 -0.6 -0.95 -0.35 -1.0 -0.3 -1.0 -0.1 -1.15 -0.15 -1.25 -0.1 -1.4 -0.05 -1.4 -0.05 -1.45 -0.1 -1.45 -0.5 -1.45 -0.7" fill="#221b13" fill-rule="evenodd" stroke="none"/>
    <path d="M0.3 0.4 L0.4 0.4 0.5 0.45 0.55 0.45 0.45 0.5 0.4 0.5 0.35 0.45 0.3 0.4" fill="#5d4d36" fill-rule="evenodd" stroke="none"/>
    <path d="M1.1 -1.3 L1.1 -1.25 Q1.2 -1.2 1.3 -1.15 L1.45 -1.0 1.5 -0.95 1.55 -0.9 1.6 -0.85 1.65 -0.75 1.8 -0.65 1.85 -0.55 1.85 -0.15 Q1.85 0.15 1.7 0.25 L1.8 0.3 1.85 0.35 1.9 0.35 1.95 0.35 2.05 0.4 2.1 0.4 2.15 0.55 M2.15 0.8 L2.1 0.8 2.0 0.85 1.95 0.85 1.75 0.85 1.55 0.85 1.5 0.85 1.3 0.85 Q1.25 0.85 1.25 0.85 L1.15 0.85 1.1 0.85 0.6 0.75 0.35 0.65 0.3 0.6 0.15 0.6 -0.05 0.55 -0.15 0.55 -0.2 0.5 -0.3 0.5 -0.35 0.5 -0.45 0.55 -0.6 0.55 -0.8 0.55 Q-0.8 0.55 -1.0 0.6 L-1.2 0.65 -1.4 0.65 -1.55 0.65 -1.6 0.6 -1.6 0.6 -1.65 0.55 -1.65 0.55 -1.75 0.55 -1.9 0.45 -2.0 0.25 -2.05 0.1 -2.05 -0.15 -1.95 -0.3 -1.85 -0.3 -1.8 -0.4 -1.8 -0.55 -1.75 -0.6 -1.7 -0.6 -1.6 -0.65 -1.55 -0.65 -1.5 -0.7 -1.45 -0.7 -1.4 -0.75 -1.35 -0.75 -1.2 -0.85 -1.05 -0.95 -1.05 -0.95 -0.85 -1.05 -0.75 -1.1 -0.7 -1.1 -0.35 -1.3 -0.3 -1.3 -0.05 -1.4 0.05 -1.4 0.15 -1.4 0.25 -1.45 0.25 -1.45 0.35 -1.45 0.45 -1.45 1.0 -1.35 1.1 -1.3 M1.7 0.3 L1.7 0.25" fill="none" stroke="#000000" stroke-linecap="round" stroke-linejoin="round" stroke-opacity="0.4509804" stroke-width="1.0"/>
  </g>
</svg>
