<?xml version="1.0" encoding="UTF-8" standalone="no"?>
<svg xmlns:xlink="http://www.w3.org/1999/xlink" height="1.3px" width="1.4px" xmlns="http://www.w3.org/2000/svg">
  <g transform="matrix(1.0, 0.0, 0.0, 1.0, -14.95, 9.4)">
    <path d="M15.3 -8.7 L15.3 -8.7 15.3 -8.55 15.2 -8.5 15.2 -8.5 15.15 -8.5 15.15 -8.45 15.1 -8.5 15.2 -8.55 15.25 -8.6 15.25 -8.65 15.2 -8.65 15.25 -8.7 15.25 -8.7 15.3 -8.7 M15.75 -8.7 L15.8 -8.7 15.85 -8.7 15.85 -8.7 15.9 -8.7 Q15.9 -8.65 15.85 -8.65 L15.8 -8.65 15.75 -8.65 15.75 -8.6 15.7 -8.65 15.75 -8.7 15.75 -8.7 M15.15 -8.7 L15.15 -8.7 15.1 -8.7 15.1 -8.65 15.05 -8.65 15.05 -8.7 15.05 -8.7 15.1 -8.7 15.15 -8.7 M15.15 -8.25 L15.15 -8.25 15.15 -8.3 15.15 -8.3 15.2 -8.25 15.25 -8.3 15.25 -8.25 15.25 -8.25 15.2 -8.2 15.15 -8.2 15.1 -8.2 15.1 -8.2 15.05 -8.25 15.05 -8.25 15.1 -8.25 15.15 -8.25 M15.95 -8.65 L15.95 -8.65 16.0 -8.7 16.0 -8.65 16.05 -8.6 16.0 -8.55 15.95 -8.5 15.9 -8.45 15.85 -8.4 15.85 -8.4 15.85 -8.5 15.9 -8.55 15.95 -8.55 16.0 -8.6 15.95 -8.65 M15.0 -8.2 L15.0 -8.2 15.05 -8.2 15.0 -8.15 14.95 -8.1 14.95 -8.15 15.0 -8.15 15.0 -8.2 M15.6 -8.55 L15.6 -8.55 15.65 -8.5 15.6 -8.45 15.55 -8.45 Q15.5 -8.45 15.5 -8.45 L15.55 -8.5 15.6 -8.55 M15.7 -8.15 L15.7 -8.1 15.65 -8.1 15.65 -8.15 15.7 -8.15 15.7 -8.15 M15.85 -8.2 L15.85 -8.25 15.85 -8.25 15.9 -8.25 15.95 -8.25 15.95 -8.25 15.9 -8.15 Q15.85 -8.15 15.85 -8.15 15.8 -8.15 15.75 -8.15 15.75 -8.2 15.75 -8.25 L15.75 -8.25 15.8 -8.25 15.8 -8.2 15.85 -8.2 15.85 -8.2 M16.3 -8.5 L16.3 -8.55 16.25 -8.6 16.25 -8.6 16.3 -8.6 16.35 -8.5 16.3 -8.45 16.25 -8.45 16.25 -8.45 16.2 -8.45 16.25 -8.5 16.25 -8.5 16.3 -8.5" fill="#f7f7e7" fill-rule="evenodd" stroke="none"/>
    <path d="M15.7 -9.4 L15.7 -9.4 15.7 -9.4 15.7 -9.4 M16.1 -9.3 L16.1 -9.35 16.1 -9.35 16.1 -9.3 16.1 -9.3 M15.8 -9.2 L15.8 -9.2 15.8 -9.2 M16.15 -8.8 L16.15 -8.75 16.1 -8.75 16.1 -8.75 16.1 -8.8 16.15 -8.8 16.15 -8.8 16.15 -8.8 M16.0 -8.85 L16.0 -8.8 16.0 -8.8 16.0 -8.85 M16.1 -8.4 L16.1 -8.4 16.1 -8.45 16.1 -8.4 M16.3 -9.4 L16.3 -9.4 16.25 -9.4 16.25 -9.4 16.3 -9.4 16.3 -9.4 M16.2 -8.15 L16.2 -8.2 16.25 -8.2 16.25 -8.2 16.25 -8.15 16.2 -8.15 16.2 -8.15" fill="#421818" fill-rule="evenodd" stroke="none"/>
  </g>
</svg>
