<?xml version="1.0" encoding="UTF-8" standalone="no"?>
<svg xmlns:xlink="http://www.w3.org/1999/xlink" height="3.2px" width="3.3px" xmlns="http://www.w3.org/2000/svg">
  <g transform="matrix(1.0, 0.0, 0.0, 1.0, -88.0, 8.1)">
    <path d="M90.05 -5.6 L90.1 -5.6 90.1 -5.55 90.05 -5.45 89.95 -5.4 89.95 -5.4 89.9 -5.35 89.9 -5.3 89.85 -5.35 89.95 -5.45 90.0 -5.5 90.0 -5.6 90.0 -5.65 90.05 -5.6 M89.75 -5.6 L89.8 -5.65 89.85 -5.65 89.85 -5.65 89.9 -5.6 89.9 -5.6 89.85 -5.6 89.8 -5.6 89.8 -5.55 89.75 -5.6 89.75 -5.6 M89.8 -5.1 L89.8 -5.1 89.85 -5.1 89.9 -5.1 89.9 -5.1 89.9 -5.15 89.95 -5.1 89.95 -5.1 90.0 -5.1 90.0 -5.15 90.05 -5.1 90.0 -5.1 90.0 -5.05 89.9 -5.0 89.85 -5.0 89.85 -5.05 89.8 -5.05 89.8 -5.1 M90.6 -5.6 L90.65 -5.6 90.7 -5.65 90.75 -5.6 90.75 -5.6 90.7 -5.6 90.65 -5.55 90.6 -5.55 90.6 -5.5 90.6 -5.55 90.6 -5.6 M89.7 -5.0 L89.7 -5.0 89.75 -5.05 89.75 -4.95 89.65 -4.9 89.65 -4.95 Q89.7 -4.95 89.7 -5.0 M90.55 -4.95 L90.55 -4.95 90.55 -4.9 90.5 -4.9 90.5 -4.95 90.55 -4.95 M90.4 -5.45 L90.4 -5.45 90.45 -5.45 90.45 -5.35 Q90.45 -5.3 90.4 -5.3 90.35 -5.3 90.35 -5.35 L90.4 -5.4 90.4 -5.45 M90.85 -5.6 L90.9 -5.6 90.95 -5.55 90.95 -5.5 90.9 -5.45 90.85 -5.4 90.8 -5.35 90.75 -5.25 90.7 -5.3 90.7 -5.4 90.75 -5.45 90.85 -5.45 90.9 -5.5 90.85 -5.55 90.85 -5.6 M90.65 -5.05 L90.7 -5.0 90.75 -5.05 90.7 -5.05 90.7 -5.1 90.75 -5.1 Q90.75 -5.05 90.8 -5.05 90.85 -5.05 90.85 -5.1 L90.85 -5.1 90.8 -5.0 90.7 -4.95 Q90.65 -4.95 90.65 -5.0 90.6 -5.0 90.6 -5.05 L90.6 -5.1 90.65 -5.1 90.65 -5.05 M91.2 -5.45 L91.2 -5.5 91.25 -5.5 91.3 -5.4 91.3 -5.35 91.2 -5.3 91.15 -5.3 91.15 -5.35 91.2 -5.35 91.2 -5.4 91.25 -5.4 91.25 -5.45 91.2 -5.45" fill="#f7f7e7" fill-rule="evenodd" stroke="none"/>
    <path d="M91.0 -6.35 L91.05 -6.35 91.05 -6.35 91.0 -6.3 91.0 -6.35 M90.65 -6.2 L90.65 -6.2 90.65 -6.2 M90.55 -6.45 L90.55 -6.45 90.55 -6.5 90.55 -6.45 90.55 -6.45 M90.95 -5.75 L90.9 -5.75 90.9 -5.75 90.9 -5.75 90.9 -5.75 90.95 -5.75 M91.05 -5.75 L91.05 -5.75 91.05 -5.7 91.05 -5.7 91.0 -5.7 91.05 -5.7 91.05 -5.75 M91.0 -5.3 L91.0 -5.3 91.05 -5.3 91.05 -5.25 91.0 -5.3 91.0 -5.3 M91.25 -6.45 L91.25 -6.45 91.25 -6.45 91.2 -6.45 91.25 -6.45 M91.2 -5.0 L91.15 -5.0 91.15 -4.95 91.15 -5.0 91.2 -5.05 91.2 -5.05 91.2 -5.0" fill="#421818" fill-rule="evenodd" stroke="none"/>
    <path d="M88.15 -7.2 L88.2 -7.2 88.25 -7.2 88.25 -7.2 88.2 -7.2 88.2 -7.2 88.15 -7.15 88.15 -7.2 88.15 -7.2 M88.35 -7.2 L88.4 -7.25 88.4 -7.2 88.45 -7.2 88.45 -7.1 88.4 -7.05 88.3 -7.0 88.3 -6.95 88.25 -6.95 88.25 -6.9 88.2 -6.95 88.3 -7.05 88.4 -7.1 88.35 -7.15 88.35 -7.2 M89.1 -6.95 L89.1 -7.0 89.15 -7.05 89.2 -7.05 89.25 -7.1 89.2 -7.15 89.2 -7.15 89.25 -7.2 89.3 -7.15 89.3 -7.1 89.25 -7.05 89.2 -7.0 89.15 -6.95 89.1 -6.85 89.1 -6.95 M88.8 -7.05 L88.85 -7.0 88.8 -6.95 Q88.8 -6.9 88.75 -6.9 88.7 -6.9 88.7 -6.95 L88.75 -6.95 88.8 -7.05 88.75 -7.05 88.8 -7.05 M88.95 -7.15 L88.95 -7.2 89.0 -7.2 89.0 -7.2 89.1 -7.2 89.1 -7.2 89.15 -7.2 89.1 -7.2 89.05 -7.15 89.0 -7.15 89.0 -7.1 88.95 -7.1 88.95 -7.15 M88.4 -6.7 L88.4 -6.65 88.35 -6.65 88.25 -6.6 88.2 -6.6 88.2 -6.65 88.15 -6.65 88.15 -6.7 88.2 -6.7 88.25 -6.65 88.25 -6.7 88.25 -6.75 88.3 -6.7 88.35 -6.65 88.35 -6.7 88.4 -6.75 88.4 -6.7 M88.9 -6.6 L88.9 -6.55 88.9 -6.5 88.85 -6.5 88.85 -6.55 88.9 -6.55 88.9 -6.6 M89.0 -6.7 L89.0 -6.7 89.05 -6.65 89.1 -6.6 89.1 -6.65 89.1 -6.65 89.15 -6.65 89.2 -6.7 89.2 -6.65 89.15 -6.6 89.1 -6.55 Q89.05 -6.55 89.0 -6.6 L88.95 -6.65 89.0 -6.7 89.0 -6.7 M88.1 -6.6 L88.1 -6.55 Q88.05 -6.5 88.0 -6.5 L88.0 -6.55 88.05 -6.6 88.1 -6.6 88.1 -6.6 M89.6 -7.1 L89.65 -7.0 89.65 -6.95 Q89.6 -6.9 89.55 -6.9 L89.55 -6.95 89.55 -6.95 89.6 -6.95 89.6 -7.0 89.6 -7.05 89.55 -7.1 89.6 -7.1" fill="#f7f7e7" fill-rule="evenodd" stroke="none"/>
    <path d="M89.05 -7.8 L89.05 -7.8 89.0 -7.8 89.05 -7.8 M88.9 -8.05 L88.9 -8.05 88.95 -8.05 88.9 -8.05 88.9 -8.05 88.9 -8.05 M89.6 -8.05 L89.6 -8.05 89.6 -8.05 89.6 -8.05 M89.4 -7.95 L89.4 -7.95 89.35 -7.9 89.35 -7.95 89.4 -7.95 M89.55 -6.6 L89.55 -6.6 89.55 -6.6 89.5 -6.55 89.5 -6.6 89.55 -6.6 89.55 -6.6 M89.35 -6.9 L89.4 -6.9 89.4 -6.85 89.4 -6.9 89.35 -6.9 M89.25 -7.35 L89.25 -7.35 89.25 -7.35 89.3 -7.35 89.3 -7.35 89.25 -7.35 M89.4 -7.3 L89.4 -7.3 89.4 -7.35 89.4 -7.35 89.45 -7.3 89.45 -7.3 89.4 -7.3 89.4 -7.3" fill="#421818" fill-rule="evenodd" stroke="none"/>
  </g>
</svg>
