<?xml version="1.0" encoding="UTF-8" standalone="no"?>
<svg xmlns:xlink="http://www.w3.org/1999/xlink" height="3.65px" width="3.45px" xmlns="http://www.w3.org/2000/svg">
  <g transform="matrix(1.0, 0.0, 0.0, 1.0, -94.95, 7.1)">
    <path d="M95.1 -6.05 L95.1 -6.1 95.1 -6.05 M95.05 -5.75 L95.1 -5.85 95.15 -5.95 95.15 -5.85 95.1 -5.75 95.1 -5.75 95.05 -5.7 95.05 -5.6 95.0 -5.5 94.95 -5.5 94.95 -5.5 95.0 -5.65 95.05 -5.75 M96.95 -7.1 L96.95 -7.05 96.9 -7.05 96.9 -7.05 96.9 -7.1 96.95 -7.1 M95.55 -4.35 Q95.55 -4.4 95.55 -4.4 L95.5 -4.5 95.45 -4.55 95.45 -4.7 95.35 -4.85 95.3 -4.95 95.25 -5.05 95.25 -5.2 95.2 -5.25 95.25 -5.35 95.3 -5.35 95.35 -5.45 95.45 -5.55 95.55 -5.7 95.55 -5.75 95.6 -5.75 95.65 -5.85 95.7 -5.95 95.75 -6.05 95.8 -6.1 95.85 -6.2 96.15 -6.45 96.15 -6.4 96.2 -6.4 96.15 -6.35 96.15 -6.3 96.2 -6.25 96.3 -6.35 96.55 -6.65 96.55 -6.55 96.6 -6.55 96.6 -6.6 96.65 -6.6 96.65 -6.6 96.75 -6.7 96.75 -6.7 96.8 -6.7 96.85 -6.7 96.85 -6.75 97.0 -6.8 97.1 -6.9 97.1 -6.9 97.15 -6.9 97.15 -6.9 97.1 -6.8 97.05 -6.75 97.05 -6.7 97.0 -6.65 96.95 -6.6 96.9 -6.55 96.9 -6.5 96.85 -6.45 96.85 -6.4 96.85 -6.4 96.95 -6.35 96.95 -6.3 96.9 -6.25 96.85 -6.2 96.9 -6.2 96.9 -6.15 96.95 -6.15 97.0 -6.15 97.05 -6.1 97.1 -6.05 97.1 -6.0 97.15 -6.0 Q97.15 -5.95 97.15 -5.95 L97.25 -5.95 97.25 -5.9 97.3 -5.85 97.3 -5.85 97.35 -5.85 97.4 -5.8 97.45 -5.75 97.6 -5.8 97.65 -5.8 97.7 -5.85 97.75 -5.8 Q97.8 -5.8 97.8 -5.8 L97.85 -5.8 97.9 -5.8 97.95 -5.8 97.95 -5.75 97.9 -5.75 97.9 -5.7 97.95 -5.7 97.85 -5.65 97.8 -5.6 97.85 -5.6 97.85 -5.6 97.9 -5.55 97.95 -5.55 98.0 -5.5 98.0 -5.45 98.0 -5.4 98.05 -5.4 98.05 -5.4 98.1 -5.4 98.15 -5.4 98.4 -5.35 98.25 -5.3 Q98.2 -5.3 98.2 -5.25 L98.2 -5.2 98.2 -5.2 98.25 -5.2 98.25 -5.15 98.0 -5.15 97.8 -5.1 97.7 -5.1 98.0 -5.05 98.25 -4.95 98.25 -4.9 98.15 -4.9 98.0 -4.9 97.95 -4.9 97.8 -4.9 97.75 -4.9 97.7 -4.9 97.65 -4.9 97.6 -4.9 97.55 -4.9 97.55 -4.9 97.5 -4.9 97.5 -4.85 97.55 -4.85 97.55 -4.8 97.6 -4.75 97.65 -4.75 97.65 -4.65 97.8 -4.55 97.75 -4.55 97.7 -4.55 97.65 -4.55 97.55 -4.6 97.55 -4.5 97.6 -4.5 97.65 -4.45 97.6 -4.4 97.4 -4.5 97.35 -4.5 97.35 -4.5 97.3 -4.5 97.25 -4.5 97.2 -4.5 97.2 -4.4 Q97.15 -4.45 97.15 -4.4 L97.15 -4.3 97.1 -4.3 97.1 -4.35 97.05 -4.35 97.05 -4.3 97.0 -4.3 96.9 -4.3 96.85 -4.3 96.8 -4.3 96.8 -4.3 96.85 -4.25 96.8 -4.2 96.8 -4.15 96.8 -4.1 96.8 -4.05 96.75 -4.05 96.75 -4.05 96.7 -4.1 96.6 -4.1 96.6 -4.15 96.55 -4.15 96.5 -4.15 96.5 -4.15 Q96.45 -4.15 96.45 -4.2 L96.35 -4.2 96.3 -4.25 96.25 -4.3 96.25 -4.3 96.2 -4.3 Q96.2 -4.3 96.15 -4.3 L96.15 -4.3 96.1 -4.3 96.1 -4.25 96.1 -4.1 96.05 -4.1 96.05 -4.15 96.0 -4.2 95.95 -4.2 95.95 -4.2 95.9 -4.2 95.8 -4.05 95.8 -4.1 95.75 -4.1 95.7 -4.15 95.7 -4.2 95.7 -4.2 95.75 -4.15 95.8 -4.15 95.85 -4.2 95.9 -4.25 95.9 -4.3 95.95 -4.35 96.0 -4.4 95.95 -4.5 96.0 -4.55 96.0 -4.55 96.0 -4.65 95.95 -4.7 95.9 -4.75 95.9 -4.75 95.9 -4.85 95.9 -4.9 95.95 -4.85 96.05 -4.8 96.1 -4.8 96.15 -4.7 96.2 -4.7 96.2 -4.65 96.25 -4.65 96.3 -4.65 96.35 -4.6 96.4 -4.55 96.45 -4.5 96.45 -4.45 96.5 -4.45 96.5 -4.45 96.55 -4.4 96.55 -4.35 96.6 -4.35 96.6 -4.3 96.65 -4.3 96.65 -4.25 96.7 -4.25 96.75 -4.25 96.75 -4.3 96.8 -4.35 96.8 -4.4 96.85 -4.4 96.9 -4.4 96.95 -4.4 97.0 -4.35 97.05 -4.4 97.05 -4.5 97.1 -4.5 97.05 -4.5 97.05 -4.6 97.1 -4.6 97.05 -4.65 97.05 -4.7 97.05 -4.75 97.1 -4.7 97.1 -4.65 97.15 -4.65 97.15 -4.65 97.2 -4.6 97.2 -4.6 Q97.25 -4.55 97.3 -4.55 L97.25 -4.65 97.2 -4.7 97.2 -4.75 97.15 -4.75 97.15 -4.8 97.1 -4.85 97.1 -4.9 97.1 -4.9 97.15 -4.9 97.15 -4.9 97.2 -4.9 97.25 -4.9 97.3 -4.9 97.35 -4.95 97.35 -5.0 97.45 -4.95 97.5 -4.95 97.5 -4.95 97.55 -4.95 97.6 -4.95 97.65 -4.95 97.7 -4.95 97.5 -5.05 97.45 -5.1 97.4 -5.15 97.4 -5.2 97.4 -5.25 97.4 -5.25 97.45 -5.3 97.55 -5.25 97.65 -5.25 97.7 -5.25 97.75 -5.25 97.65 -5.35 97.65 -5.4 97.6 -5.5 97.6 -5.55 97.55 -5.55 97.5 -5.6 97.5 -5.6 97.55 -5.65 97.55 -5.65 97.6 -5.7 97.65 -5.7 97.6 -5.75 97.55 -5.7 97.5 -5.7 97.45 -5.75 97.4 -5.75 Q97.4 -5.75 97.35 -5.75 L97.35 -5.75 97.3 -5.75 97.25 -5.75 97.25 -5.8 97.2 -5.8 97.2 -5.8 97.15 -5.85 97.1 -5.85 97.05 -5.85 Q97.05 -5.85 97.05 -5.9 L97.0 -5.95 96.95 -5.95 97.0 -6.0 96.95 -6.0 96.9 -6.0 96.9 -6.05 96.85 -6.0 96.85 -6.0 96.8 -6.0 96.8 -6.05 96.8 -6.1 96.8 -6.1 96.8 -6.15 96.8 -6.15 96.75 -6.15 96.7 -6.1 96.7 -6.05 96.65 -6.0 96.6 -6.0 96.6 -5.95 96.55 -5.9 96.45 -5.8 96.45 -5.8 96.45 -5.85 96.4 -5.85 96.45 -5.9 96.45 -5.9 96.35 -5.85 96.3 -5.8 96.3 -5.75 96.2 -5.7 96.15 -5.65 96.1 -5.65 96.1 -5.7 96.15 -5.75 96.1 -5.75 96.05 -5.75 96.0 -5.75 96.0 -5.75 95.95 -5.75 95.9 -5.7 95.9 -5.75 95.9 -5.8 95.9 -5.85 95.85 -5.85 95.85 -5.85 95.95 -5.9 96.0 -5.9 96.0 -5.9 96.05 -6.0 96.0 -6.0 96.0 -6.05 96.05 -6.1 96.05 -6.2 96.05 -6.25 96.1 -6.35 96.05 -6.35 96.0 -6.25 96.0 -6.2 95.95 -6.1 95.9 -6.05 95.8 -5.95 95.75 -5.9 95.75 -5.85 Q95.75 -5.8 95.75 -5.8 L95.85 -5.85 95.8 -5.8 95.8 -5.75 95.75 -5.75 95.75 -5.75 95.75 -5.65 95.7 -5.65 95.7 -5.65 95.7 -5.65 95.65 -5.6 95.65 -5.55 95.6 -5.55 95.55 -5.5 Q95.55 -5.4 95.5 -5.4 L95.55 -5.4 95.6 -5.35 95.6 -5.35 95.55 -5.3 95.55 -5.3 95.6 -5.25 95.55 -5.2 95.5 -5.2 95.45 -5.2 95.4 -5.15 Q95.4 -5.1 95.45 -5.05 L95.55 -5.0 95.6 -4.95 95.6 -4.85 95.65 -4.65 95.7 -4.55 95.7 -4.5 95.75 -4.5 95.8 -4.5 95.85 -4.4 95.85 -4.35 95.85 -4.3 95.8 -4.3 95.75 -4.3 95.75 -4.3 95.7 -4.3 95.7 -4.35 95.65 -4.4 95.65 -4.4 95.6 -4.45 95.55 -4.4 95.55 -4.35 M96.75 -7.0 L96.75 -7.0 96.8 -7.0 Q96.8 -7.0 96.75 -7.0 M96.3 -6.9 L96.35 -6.9 96.3 -6.85 96.3 -6.8 96.25 -6.8 96.2 -6.8 96.2 -6.8 96.3 -6.85 96.3 -6.9 M96.5 -6.55 L96.45 -6.55 96.45 -6.55 96.4 -6.5 96.4 -6.4 96.35 -6.35 96.3 -6.3 96.3 -6.25 96.25 -6.15 96.25 -5.95 96.2 -5.9 96.25 -5.95 96.3 -6.0 96.35 -6.1 96.4 -6.15 96.4 -6.2 96.45 -6.25 96.5 -6.3 96.5 -6.4 96.55 -6.4 96.55 -6.5 96.55 -6.5 96.5 -6.5 96.5 -6.55 M96.65 -6.45 L96.6 -6.4 96.55 -6.35 96.55 -6.3 96.55 -6.25 96.6 -6.2 96.6 -6.15 96.65 -6.2 96.7 -6.25 96.7 -6.3 96.75 -6.4 96.75 -6.4 96.8 -6.45 96.8 -6.55 96.85 -6.6 96.9 -6.65 96.95 -6.7 97.0 -6.7 97.0 -6.7 97.05 -6.7 97.05 -6.75 96.95 -6.75 96.9 -6.7 96.85 -6.7 96.85 -6.65 96.8 -6.65 96.75 -6.6 Q96.75 -6.6 96.7 -6.6 L96.7 -6.55 96.65 -6.5 96.65 -6.45 M96.45 -6.2 L96.45 -6.1 96.5 -6.05 96.5 -6.1 96.5 -6.2 96.5 -6.2 96.45 -6.2 M96.8 -6.25 L96.85 -6.25 96.9 -6.3 96.85 -6.35 96.85 -6.35 96.8 -6.35 96.8 -6.25 96.8 -6.25 M95.4 -6.25 L95.35 -6.25 95.45 -6.35 95.55 -6.45 95.6 -6.5 95.55 -6.35 95.4 -6.2 95.4 -6.25 M96.05 -6.8 L96.1 -6.8 96.1 -6.8 96.05 -6.7 96.0 -6.7 96.05 -6.75 96.05 -6.8 M95.3 -6.25 L95.3 -6.2 95.3 -6.15 95.25 -6.0 95.25 -6.15 95.3 -6.25 M97.1 -4.6 L97.1 -4.6 97.15 -4.55 97.15 -4.6 97.1 -4.6 97.1 -4.6 M96.35 -4.5 L96.3 -4.6 96.25 -4.55 96.25 -4.5 96.3 -4.45 96.35 -4.3 96.4 -4.25 96.45 -4.2 96.5 -4.2 Q96.5 -4.2 96.55 -4.2 L96.55 -4.2 96.6 -4.2 96.6 -4.25 96.55 -4.3 96.5 -4.35 96.5 -4.35 96.5 -4.4 Q96.45 -4.4 96.45 -4.45 L96.4 -4.45 96.4 -4.5 96.35 -4.5 M96.2 -4.55 L96.15 -4.6 96.05 -4.8 96.0 -4.8 96.0 -4.7 96.05 -4.65 96.05 -4.55 96.1 -4.45 96.15 -4.45 96.2 -4.45 96.2 -4.5 96.2 -4.55 M96.85 -3.9 L96.95 -3.85 97.05 -3.75 97.05 -3.75 96.95 -3.8 96.95 -3.8 96.85 -3.9 M97.1 -3.75 L97.15 -3.75 97.15 -3.75 97.15 -3.7 97.1 -3.7 97.1 -3.7 97.1 -3.75 M95.6 -4.25 L95.65 -4.25 95.65 -4.25 95.7 -4.2 95.7 -4.2 95.65 -4.15 95.65 -4.2 95.6 -4.25 M95.4 -4.2 L95.45 -4.15 95.45 -4.1 95.4 -4.1 95.35 -4.15 95.25 -4.25 95.25 -4.25 95.2 -4.35 95.15 -4.4 95.1 -4.6 95.1 -4.6 Q95.15 -4.5 95.2 -4.45 95.2 -4.35 95.25 -4.35 95.25 -4.3 95.25 -4.3 L95.3 -4.25 95.3 -4.25 95.35 -4.2 95.4 -4.2 95.4 -4.2 M95.45 -4.05 L95.55 -4.05 95.55 -4.0 95.5 -4.0 95.45 -4.0 95.45 -4.05 M95.65 -3.95 L95.7 -3.9 95.75 -3.9 95.8 -3.85 95.8 -3.85 Q95.75 -3.85 95.7 -3.85 L95.7 -3.9 95.65 -3.9 95.65 -3.95 M97.95 -7.05 L97.95 -7.05 97.95 -7.0 97.9 -7.05 97.95 -7.05 M96.55 -3.5 L96.7 -3.5 96.65 -3.45 96.6 -3.45 96.5 -3.5 96.55 -3.5 M95.95 -3.8 L95.95 -3.8 95.9 -3.75 95.85 -3.8 95.9 -3.8 95.9 -3.85 95.95 -3.8 M98.1 -7.0 L98.1 -7.05 98.1 -7.05 98.15 -7.05 98.15 -7.05 98.1 -7.0 M97.3 -6.8 L97.3 -6.75 97.3 -6.75 97.25 -6.75 97.25 -6.7 97.2 -6.7 97.2 -6.7 97.2 -6.75 97.25 -6.8 97.3 -6.8 97.3 -6.8 M97.45 -6.85 L97.45 -6.9 97.5 -6.9 97.5 -6.9 97.5 -6.85 97.45 -6.85 M97.45 -5.15 L97.5 -5.15 97.6 -5.15 97.6 -5.15 97.65 -5.15 97.7 -5.15 97.75 -5.2 97.7 -5.2 97.65 -5.2 97.6 -5.25 97.55 -5.2 97.5 -5.2 97.4 -5.2 97.45 -5.15 M98.05 -5.35 L98.05 -5.35 98.1 -5.35 98.0 -5.4 97.95 -5.4 97.85 -5.4 97.8 -5.4 97.8 -5.35 97.75 -5.35 97.8 -5.3 97.85 -5.3 97.85 -5.35 97.9 -5.3 97.95 -5.35 98.0 -5.35 98.05 -5.35 M97.95 -5.2 L98.0 -5.2 98.05 -5.25 98.05 -5.25 97.9 -5.25 97.9 -5.25 97.95 -5.2 M97.75 -5.0 L97.75 -4.95 97.8 -4.95 97.85 -4.95 97.85 -4.95 97.8 -5.0 97.75 -5.0 97.75 -5.0 M97.55 -4.65 L97.5 -4.7 97.45 -4.75 97.4 -4.7 97.4 -4.7 97.3 -4.75 97.3 -4.75 97.25 -4.8 97.2 -4.8 97.2 -4.8 97.25 -4.75 97.25 -4.7 97.35 -4.6 97.4 -4.55 97.4 -4.55 97.45 -4.5 97.45 -4.5 97.5 -4.5 97.5 -4.65 97.55 -4.65 M97.35 -4.9 L97.35 -4.85 97.3 -4.9 97.25 -4.9 97.25 -4.85 97.3 -4.8 97.35 -4.8 97.4 -4.8 97.4 -4.85 97.4 -4.85 97.4 -4.9 97.35 -4.9 M97.2 -3.65 L97.2 -3.65 97.25 -3.7 97.25 -3.7 97.2 -3.65 M97.8 -3.5 L97.75 -3.5 97.7 -3.5 97.7 -3.5 97.8 -3.55 97.8 -3.55 97.85 -3.55 97.85 -3.55 97.8 -3.5" fill="#722c28" fill-rule="evenodd" stroke="none"/>
    <path d="M95.55 -4.35 L95.55 -4.4 95.6 -4.45 95.65 -4.4 95.65 -4.4 95.7 -4.35 95.7 -4.3 95.75 -4.3 95.75 -4.3 95.8 -4.3 95.85 -4.3 95.85 -4.35 95.85 -4.4 95.8 -4.5 95.75 -4.5 95.7 -4.5 95.7 -4.55 95.65 -4.65 95.6 -4.85 95.6 -4.95 95.55 -5.0 95.45 -5.05 Q95.4 -5.1 95.4 -5.15 L95.45 -5.2 95.5 -5.2 95.55 -5.2 95.6 -5.25 95.55 -5.3 95.55 -5.3 95.6 -5.35 95.6 -5.35 95.55 -5.4 95.5 -5.4 Q95.55 -5.4 95.55 -5.5 L95.6 -5.55 95.65 -5.55 95.65 -5.6 95.7 -5.65 95.7 -5.65 95.7 -5.65 95.75 -5.65 95.75 -5.75 95.75 -5.75 95.8 -5.75 95.8 -5.8 95.85 -5.85 95.75 -5.8 Q95.75 -5.8 95.75 -5.85 L95.75 -5.9 95.8 -5.95 95.9 -6.05 95.95 -6.1 96.0 -6.2 96.0 -6.25 96.05 -6.35 96.1 -6.35 96.05 -6.25 96.05 -6.2 96.05 -6.1 96.0 -6.05 96.0 -6.0 96.05 -6.0 96.0 -5.9 96.0 -5.9 95.95 -5.9 95.85 -5.85 95.85 -5.85 95.9 -5.85 95.9 -5.8 95.9 -5.75 95.9 -5.7 95.95 -5.75 96.0 -5.75 96.0 -5.75 96.05 -5.75 96.1 -5.75 96.15 -5.75 96.1 -5.7 96.1 -5.65 96.15 -5.65 96.2 -5.7 96.3 -5.75 96.3 -5.8 96.35 -5.85 96.45 -5.9 96.45 -5.9 96.4 -5.85 96.45 -5.85 96.45 -5.8 96.45 -5.8 96.55 -5.9 96.6 -5.95 96.6 -6.0 96.65 -6.0 96.7 -6.05 96.7 -6.1 96.75 -6.15 96.8 -6.15 96.8 -6.15 96.8 -6.1 96.8 -6.1 96.8 -6.05 96.8 -6.0 96.85 -6.0 96.85 -6.0 96.9 -6.05 96.9 -6.0 96.95 -6.0 97.0 -6.0 96.95 -5.95 97.0 -5.95 97.05 -5.9 Q97.05 -5.85 97.05 -5.85 L97.1 -5.85 97.15 -5.85 97.2 -5.8 97.2 -5.8 97.25 -5.8 97.25 -5.75 97.3 -5.75 97.35 -5.75 97.35 -5.75 Q97.4 -5.75 97.4 -5.75 L97.45 -5.75 97.5 -5.7 97.55 -5.7 97.6 -5.75 97.65 -5.7 97.6 -5.7 97.55 -5.65 97.55 -5.65 97.5 -5.6 97.5 -5.6 97.55 -5.55 97.6 -5.55 97.6 -5.5 97.65 -5.4 97.65 -5.35 97.75 -5.25 97.7 -5.25 97.65 -5.25 97.55 -5.25 97.45 -5.3 97.4 -5.25 97.4 -5.25 97.4 -5.2 97.4 -5.15 97.45 -5.1 97.5 -5.05 97.7 -4.95 97.65 -4.95 97.6 -4.95 97.55 -4.95 97.5 -4.95 97.5 -4.95 97.45 -4.95 97.35 -5.0 97.35 -4.95 97.3 -4.9 97.25 -4.9 97.2 -4.9 97.15 -4.9 97.15 -4.9 97.1 -4.9 97.1 -4.9 97.1 -4.85 97.15 -4.8 97.15 -4.75 97.2 -4.75 97.2 -4.7 97.25 -4.65 97.3 -4.55 Q97.25 -4.55 97.2 -4.6 L97.2 -4.6 97.15 -4.65 97.15 -4.65 97.1 -4.65 97.1 -4.7 97.05 -4.75 97.05 -4.7 97.05 -4.65 97.1 -4.6 97.05 -4.6 97.05 -4.5 97.1 -4.5 97.05 -4.5 97.05 -4.4 97.0 -4.35 96.95 -4.4 96.9 -4.4 96.85 -4.4 96.8 -4.4 96.8 -4.35 96.75 -4.3 96.75 -4.25 96.7 -4.25 96.65 -4.25 96.65 -4.3 96.6 -4.3 96.6 -4.35 96.55 -4.35 96.55 -4.4 96.5 -4.45 96.5 -4.45 96.45 -4.45 96.45 -4.5 96.4 -4.55 96.35 -4.6 96.3 -4.65 96.25 -4.65 96.2 -4.65 96.2 -4.7 96.15 -4.7 96.1 -4.8 96.05 -4.8 95.95 -4.85 95.9 -4.9 95.9 -4.85 95.9 -4.75 95.9 -4.75 95.95 -4.7 96.0 -4.65 96.0 -4.55 96.0 -4.55 95.95 -4.5 96.0 -4.4 95.95 -4.35 95.9 -4.3 95.9 -4.25 95.85 -4.2 95.8 -4.15 95.75 -4.15 95.7 -4.2 95.7 -4.2 95.7 -4.2 95.65 -4.25 95.65 -4.25 95.6 -4.25 95.6 -4.3 95.55 -4.35 95.55 -4.35 M97.7 -5.85 L97.65 -5.8 97.6 -5.8 97.45 -5.75 97.4 -5.8 97.35 -5.85 97.3 -5.85 97.3 -5.85 97.25 -5.9 97.25 -5.95 97.35 -5.95 97.4 -5.95 97.35 -5.85 97.35 -5.85 97.4 -5.8 Q97.45 -5.8 97.5 -5.85 L97.6 -5.85 97.7 -5.85 M96.65 -6.45 L96.65 -6.5 96.7 -6.55 96.7 -6.6 Q96.75 -6.6 96.75 -6.6 L96.8 -6.65 96.85 -6.65 96.85 -6.7 96.9 -6.7 96.95 -6.75 97.05 -6.75 97.05 -6.7 97.0 -6.7 97.0 -6.7 96.95 -6.7 96.9 -6.65 96.85 -6.6 96.8 -6.55 96.8 -6.45 96.75 -6.4 96.75 -6.4 96.7 -6.3 96.7 -6.25 96.65 -6.2 96.6 -6.15 96.6 -6.2 96.55 -6.25 96.55 -6.3 96.55 -6.35 96.6 -6.4 96.65 -6.45 M96.5 -6.55 L96.5 -6.5 96.55 -6.5 96.55 -6.5 96.55 -6.4 96.5 -6.4 96.5 -6.3 96.45 -6.25 96.4 -6.2 96.4 -6.15 96.35 -6.1 96.3 -6.0 96.25 -5.95 96.2 -5.9 96.25 -5.95 96.25 -6.15 96.3 -6.25 96.3 -6.3 96.35 -6.35 96.4 -6.4 96.4 -6.5 96.45 -6.55 96.45 -6.55 96.5 -6.55 M96.7 -6.4 L96.75 -6.5 96.75 -6.55 96.7 -6.45 96.6 -6.35 96.6 -6.2 96.65 -6.25 96.65 -6.3 96.7 -6.4 96.7 -6.4 M96.8 -6.25 L96.8 -6.25 96.8 -6.35 96.85 -6.35 96.85 -6.35 96.9 -6.3 96.85 -6.25 96.8 -6.25 M96.45 -6.2 L96.5 -6.2 96.5 -6.2 96.5 -6.1 96.5 -6.05 96.45 -6.1 96.45 -6.2 M95.75 -5.6 L95.75 -5.5 95.7 -5.5 95.7 -5.5 95.7 -5.5 95.65 -5.5 95.65 -5.4 95.7 -5.35 95.7 -5.3 95.65 -5.25 95.6 -5.2 95.6 -5.2 95.55 -5.15 95.55 -5.05 95.6 -5.0 95.65 -4.95 95.65 -4.85 95.65 -4.8 95.7 -4.75 95.7 -4.75 95.75 -4.7 95.75 -4.65 95.8 -4.55 95.8 -4.6 95.85 -4.6 95.85 -4.45 95.9 -4.45 95.9 -4.5 95.85 -4.6 95.85 -4.75 95.9 -4.8 95.85 -4.9 95.9 -4.9 95.9 -4.9 95.95 -4.9 96.0 -4.9 Q96.0 -4.9 96.05 -4.85 L96.3 -4.75 96.35 -4.7 96.35 -4.8 96.35 -4.9 96.45 -4.85 96.5 -4.8 96.5 -4.7 96.55 -4.7 96.6 -4.65 96.65 -4.6 96.7 -4.6 96.75 -4.6 96.75 -4.65 96.75 -4.65 96.8 -4.65 96.85 -4.65 96.9 -4.7 96.9 -4.75 97.0 -4.8 97.0 -4.8 97.05 -4.8 97.05 -4.8 97.1 -4.75 97.1 -4.8 97.05 -4.85 97.0 -4.9 97.0 -5.05 97.0 -5.1 96.95 -5.15 96.95 -5.15 97.0 -5.15 97.05 -5.15 97.1 -5.15 97.15 -5.1 97.15 -5.1 97.2 -5.1 97.2 -5.1 97.25 -5.15 97.2 -5.15 97.2 -5.2 97.3 -5.2 97.25 -5.25 97.25 -5.35 97.35 -5.35 Q97.35 -5.35 97.4 -5.4 L97.45 -5.45 97.45 -5.5 97.4 -5.55 Q97.35 -5.55 97.35 -5.55 L97.25 -5.6 97.2 -5.65 97.15 -5.65 97.1 -5.65 97.1 -5.75 97.1 -5.75 97.05 -5.8 Q97.0 -5.8 97.0 -5.85 L96.95 -5.85 96.9 -5.85 96.85 -5.85 96.8 -5.85 96.8 -5.9 96.75 -5.85 96.7 -5.85 96.7 -5.95 96.6 -5.9 96.6 -5.85 96.5 -5.75 96.5 -5.7 96.45 -5.65 96.4 -5.6 96.3 -5.5 96.3 -5.55 96.25 -5.55 96.2 -5.5 96.2 -5.45 96.15 -5.45 96.15 -5.45 Q96.1 -5.45 96.05 -5.5 L96.05 -5.55 96.0 -5.55 96.0 -5.6 95.95 -5.6 95.9 -5.55 95.85 -5.6 95.85 -5.65 95.8 -5.65 95.8 -5.65 95.75 -5.6 M96.2 -4.55 L96.2 -4.5 96.2 -4.45 96.15 -4.45 96.1 -4.45 96.05 -4.55 96.05 -4.65 96.0 -4.7 96.0 -4.8 96.05 -4.8 96.15 -4.6 96.2 -4.55 M96.35 -4.5 L96.4 -4.5 96.4 -4.45 96.45 -4.45 Q96.45 -4.4 96.5 -4.4 L96.5 -4.35 96.5 -4.35 96.55 -4.3 96.6 -4.25 96.6 -4.2 96.55 -4.2 96.55 -4.2 Q96.5 -4.2 96.5 -4.2 L96.45 -4.2 96.4 -4.25 96.35 -4.3 96.3 -4.45 96.25 -4.5 96.25 -4.55 96.3 -4.6 96.35 -4.5 M97.1 -4.6 L97.1 -4.6 97.15 -4.6 97.15 -4.55 97.1 -4.6 97.1 -4.6 M95.2 -4.45 L95.3 -4.35 95.3 -4.3 95.4 -4.2 95.4 -4.2 95.35 -4.2 95.3 -4.25 95.3 -4.25 95.25 -4.3 Q95.25 -4.3 95.25 -4.35 95.2 -4.35 95.2 -4.45 M97.35 -4.9 L97.4 -4.9 97.4 -4.85 97.4 -4.85 97.4 -4.8 97.35 -4.8 97.3 -4.8 97.25 -4.85 97.25 -4.9 97.3 -4.9 97.35 -4.85 97.35 -4.9 M97.55 -4.65 L97.5 -4.65 97.5 -4.5 97.45 -4.5 97.45 -4.5 97.4 -4.55 97.4 -4.55 97.35 -4.6 97.25 -4.7 97.25 -4.75 97.2 -4.8 97.2 -4.8 97.25 -4.8 97.3 -4.75 97.3 -4.75 97.4 -4.7 97.4 -4.7 97.45 -4.75 97.5 -4.7 97.55 -4.65 M97.75 -5.0 L97.75 -5.0 97.8 -5.0 97.85 -4.95 97.85 -4.95 97.8 -4.95 97.75 -4.95 97.75 -5.0 M97.95 -5.2 L97.9 -5.25 97.9 -5.25 98.05 -5.25 98.05 -5.25 98.0 -5.2 97.95 -5.2 M98.05 -5.35 L98.0 -5.35 97.95 -5.35 97.9 -5.3 97.85 -5.35 97.85 -5.3 97.8 -5.3 97.75 -5.35 97.8 -5.35 97.8 -5.4 97.85 -5.4 97.95 -5.4 98.0 -5.4 98.1 -5.35 98.05 -5.35 98.05 -5.35 M97.45 -5.15 L97.4 -5.2 97.5 -5.2 97.55 -5.2 97.6 -5.25 97.65 -5.2 97.7 -5.2 97.75 -5.2 97.7 -5.15 97.65 -5.15 97.6 -5.15 97.6 -5.15 97.5 -5.15 97.45 -5.15" fill="#b97814" fill-rule="evenodd" stroke="none"/>
    <path d="M97.4 -5.95 L97.4 -5.9 97.5 -5.85 97.5 -5.85 Q97.45 -5.8 97.4 -5.8 L97.35 -5.85 97.35 -5.85 97.4 -5.95 M96.7 -6.4 L96.7 -6.4 96.65 -6.3 96.65 -6.25 96.6 -6.2 96.6 -6.35 96.7 -6.45 96.75 -6.55 96.75 -6.5 96.7 -6.4 M95.75 -5.6 L95.8 -5.65 95.8 -5.65 95.85 -5.65 95.85 -5.6 95.9 -5.55 95.95 -5.6 96.0 -5.6 96.0 -5.55 96.05 -5.55 96.05 -5.5 Q96.1 -5.45 96.15 -5.45 L96.15 -5.45 96.2 -5.45 96.2 -5.5 96.25 -5.55 96.3 -5.55 96.3 -5.5 96.4 -5.6 96.45 -5.65 96.5 -5.7 96.5 -5.75 96.6 -5.85 96.6 -5.9 96.7 -5.95 96.7 -5.85 96.75 -5.85 96.8 -5.9 96.8 -5.85 96.85 -5.85 96.9 -5.85 96.95 -5.85 97.0 -5.85 Q97.0 -5.8 97.05 -5.8 L97.1 -5.75 97.1 -5.75 97.1 -5.65 97.15 -5.65 97.2 -5.65 97.25 -5.6 97.35 -5.55 Q97.35 -5.55 97.4 -5.55 L97.45 -5.5 97.45 -5.45 97.4 -5.4 Q97.35 -5.35 97.35 -5.35 L97.25 -5.35 97.25 -5.25 97.3 -5.2 97.2 -5.2 97.2 -5.15 97.25 -5.15 97.2 -5.1 97.2 -5.1 97.15 -5.1 97.15 -5.1 97.1 -5.15 97.05 -5.15 97.0 -5.15 96.95 -5.15 96.95 -5.15 97.0 -5.1 97.0 -5.05 97.0 -4.9 97.05 -4.85 97.1 -4.8 97.1 -4.75 97.05 -4.8 97.05 -4.8 97.0 -4.8 97.0 -4.8 96.9 -4.75 96.9 -4.7 96.85 -4.65 96.8 -4.65 96.75 -4.65 96.75 -4.65 96.75 -4.6 96.7 -4.6 96.65 -4.6 96.6 -4.65 96.55 -4.7 96.5 -4.7 96.5 -4.8 96.45 -4.85 96.35 -4.9 96.35 -4.8 96.35 -4.7 96.3 -4.75 96.05 -4.85 Q96.0 -4.9 96.0 -4.9 L95.95 -4.9 95.9 -4.9 95.9 -4.9 95.85 -4.9 95.9 -4.8 95.85 -4.75 95.85 -4.6 95.9 -4.5 95.9 -4.45 95.85 -4.45 95.85 -4.6 95.8 -4.6 95.8 -4.55 95.75 -4.65 95.75 -4.7 95.7 -4.75 95.7 -4.75 95.65 -4.8 95.65 -4.85 95.65 -4.95 95.6 -5.0 95.55 -5.05 95.55 -5.15 95.6 -5.2 95.6 -5.2 95.65 -5.25 95.7 -5.3 95.7 -5.35 95.65 -5.4 95.65 -5.5 95.7 -5.5 95.7 -5.5 95.7 -5.5 95.75 -5.5 95.75 -5.6" fill="#ffe693" fill-rule="evenodd" stroke="none"/>
  </g>
</svg>
