<?xml version="1.0" encoding="UTF-8" standalone="no"?>
<svg xmlns:xlink="http://www.w3.org/1999/xlink" height="2.05px" width="2.0px" xmlns="http://www.w3.org/2000/svg">
  <g transform="matrix(1.0, 0.0, 0.0, 1.0, -94.0, 8.55)">
    <path d="M95.3 -7.9 L95.25 -7.9 95.25 -7.95 95.3 -7.95 95.3 -7.9 M95.6 -8.35 L95.6 -8.35 95.65 -8.35 95.65 -8.3 95.6 -8.3 95.55 -8.25 95.55 -8.35 95.6 -8.35 M95.95 -8.45 L95.9 -8.45 95.9 -8.45 95.9 -8.5 95.95 -8.5 95.95 -8.45 M95.1 -8.55 L95.1 -8.55 95.05 -8.55 95.05 -8.55 95.1 -8.55 M95.7 -7.45 L95.65 -7.5 95.7 -7.5 95.7 -7.5 95.7 -7.45 M95.65 -7.6 L95.65 -7.6 95.65 -7.55 95.6 -7.5 95.6 -7.55 95.65 -7.6 95.65 -7.6 M95.95 -6.7 L95.9 -6.7 95.85 -6.7 95.8 -6.7 95.8 -6.75 95.85 -6.75 95.85 -6.75 95.9 -6.7 95.95 -6.7 M95.5 -6.55 L95.55 -6.5 Q95.55 -6.5 95.5 -6.5 L95.5 -6.5 95.5 -6.55 M95.7 -6.85 L95.65 -6.85 95.65 -6.85 95.6 -6.85 95.65 -6.85 95.65 -6.85 95.7 -6.85 M95.6 -7.1 L95.65 -7.15 95.65 -7.1 95.6 -7.05 95.55 -7.05 95.55 -7.05 95.6 -7.1 95.6 -7.1" fill="#421818" fill-rule="evenodd" stroke="none"/>
    <path d="M95.35 -7.5 L95.4 -7.5 95.45 -7.5 95.5 -7.45 95.55 -7.35 95.5 -7.25 95.45 -7.2 95.35 -7.1 95.3 -7.05 95.3 -7.0 95.4 -6.95 95.45 -6.95 95.45 -6.8 95.4 -6.7 95.25 -6.7 95.2 -6.7 95.2 -6.8 95.2 -6.9 95.25 -6.9 95.3 -6.85 95.3 -7.0 95.25 -7.1 Q95.25 -7.15 95.35 -7.2 L95.45 -7.3 95.45 -7.35 95.4 -7.35 95.3 -7.35 95.2 -7.35 95.05 -7.35 95.05 -7.4 95.15 -7.5 95.2 -7.5 95.35 -7.5 M94.4 -7.5 L94.45 -7.45 94.5 -7.4 94.5 -7.25 94.45 -7.2 94.35 -7.15 94.3 -7.1 94.3 -7.05 94.35 -7.0 94.4 -7.0 94.4 -6.7 Q94.35 -6.65 94.25 -6.65 L94.25 -6.7 94.2 -6.7 94.2 -6.8 94.2 -6.9 94.2 -6.95 94.25 -6.9 94.3 -6.85 94.35 -6.85 94.35 -6.85 94.3 -6.95 Q94.2 -7.0 94.2 -7.1 L94.25 -7.15 94.3 -7.2 94.35 -7.25 94.4 -7.3 94.4 -7.35 94.35 -7.35 94.2 -7.35 94.05 -7.35 94.05 -7.35 94.1 -7.4 94.15 -7.45 94.25 -7.5 94.35 -7.5 94.4 -7.5 M95.1 -6.85 L95.15 -6.8 95.15 -6.7 95.1 -6.65 95.05 -6.6 95.05 -6.65 95.1 -6.65 95.1 -6.75 95.1 -6.8 95.1 -6.85 M95.0 -6.9 L95.0 -6.95 95.05 -6.95 95.05 -6.9 95.1 -6.9 95.05 -6.85 95.05 -6.85 95.0 -6.9 M95.0 -7.2 L95.05 -7.1 95.0 -7.05 Q94.95 -7.0 94.9 -7.0 L94.9 -7.05 94.85 -7.1 94.9 -7.1 94.9 -7.15 94.85 -7.2 94.85 -7.25 94.9 -7.25 95.0 -7.2 M94.15 -6.85 L94.15 -6.75 94.1 -6.65 94.1 -6.6 94.05 -6.65 94.05 -6.65 94.1 -6.8 94.1 -6.85 94.15 -6.85 M95.85 -7.25 L95.85 -7.25 95.9 -7.2 95.95 -7.2 95.95 -7.2 96.0 -7.1 95.95 -7.0 95.9 -7.0 95.85 -7.0 95.85 -7.05 95.85 -7.15 95.9 -7.15 95.85 -7.15 95.85 -7.2 Q95.8 -7.2 95.75 -7.2 L95.85 -7.25 M94.05 -6.9 L94.05 -6.9 94.0 -6.95 94.05 -6.95 94.05 -6.9" fill="#f7f7e7" fill-rule="evenodd" stroke="none"/>
  </g>
</svg>
