<?xml version="1.0" encoding="UTF-8" standalone="no"?>
<svg xmlns:xlink="http://www.w3.org/1999/xlink" height="3.7px" width="3.55px" xmlns="http://www.w3.org/2000/svg">
  <g transform="matrix(1.0, 0.0, 0.0, 1.0, -72.75, 22.1)">
    <path d="M72.85 -21.05 L72.9 -21.2 73.0 -21.3 73.05 -21.35 73.15 -21.45 73.15 -21.35 73.05 -21.25 73.05 -21.25 73.0 -21.2 72.95 -21.1 72.85 -21.05 72.85 -21.05 M72.95 -19.7 L72.95 -19.6 72.95 -19.6 72.9 -19.6 72.85 -19.65 72.8 -19.75 72.8 -19.8 72.75 -19.85 72.75 -20.15 72.75 -20.1 72.8 -19.95 72.8 -19.85 Q72.8 -19.8 72.8 -19.8 72.8 -19.75 72.85 -19.75 L72.85 -19.75 72.9 -19.7 72.9 -19.7 72.95 -19.7 M74.5 -22.05 L74.55 -22.05 74.5 -22.05 74.5 -22.0 74.4 -21.95 74.4 -22.0 Q74.4 -22.0 74.5 -22.05 L74.5 -22.05 M74.55 -21.65 L74.5 -21.65 74.45 -21.6 74.45 -21.55 74.4 -21.5 74.35 -21.5 74.3 -21.4 74.25 -21.35 74.25 -21.25 74.2 -21.15 74.15 -21.15 74.2 -21.15 74.3 -21.2 74.35 -21.25 74.4 -21.3 74.4 -21.4 74.45 -21.4 74.5 -21.45 74.55 -21.45 74.55 -21.5 74.6 -21.55 74.6 -21.6 74.6 -21.6 74.55 -21.65 74.6 -21.7 74.55 -21.7 74.65 -21.75 74.65 -21.65 74.7 -21.65 74.7 -21.7 74.75 -21.7 74.75 -21.7 74.9 -21.75 74.85 -21.75 74.9 -21.75 74.9 -21.75 74.95 -21.75 75.0 -21.75 75.15 -21.8 75.25 -21.85 75.3 -21.85 75.3 -21.85 75.35 -21.9 75.3 -21.85 75.25 -21.75 75.2 -21.7 75.2 -21.7 75.1 -21.6 75.05 -21.6 74.95 -21.55 75.0 -21.5 74.95 -21.5 74.9 -21.45 74.9 -21.45 74.9 -21.4 74.95 -21.35 75.0 -21.35 74.95 -21.3 74.85 -21.25 74.9 -21.2 74.9 -21.2 74.95 -21.2 74.95 -21.15 75.0 -21.1 75.05 -21.05 75.0 -21.0 75.05 -21.0 75.05 -20.95 Q75.05 -20.9 75.05 -20.9 L75.2 -20.9 75.25 -20.85 75.3 -20.85 75.3 -20.85 75.35 -20.75 75.4 -20.75 75.3 -20.75 75.25 -20.75 75.3 -20.7 75.3 -20.65 75.45 -20.65 75.55 -20.65 75.55 -20.65 75.6 -20.65 75.7 -20.6 75.75 -20.6 75.75 -20.6 75.8 -20.55 75.8 -20.55 75.75 -20.5 75.75 -20.45 75.7 -20.45 75.6 -20.45 75.65 -20.4 75.7 -20.4 75.7 -20.3 75.8 -20.3 75.75 -20.25 75.75 -20.2 75.8 -20.2 75.75 -20.2 75.8 -20.15 75.8 -20.15 75.85 -20.15 75.85 -20.15 76.1 -20.0 76.0 -20.0 75.9 -20.0 75.9 -19.95 75.9 -19.95 75.95 -19.9 75.95 -19.85 75.5 -19.95 75.4 -19.95 75.65 -19.8 75.9 -19.65 75.9 -19.65 75.75 -19.65 75.65 -19.65 75.45 -19.75 75.4 -19.75 75.25 -19.75 75.2 -19.8 75.2 -19.8 75.15 -19.8 75.15 -19.75 75.15 -19.7 75.2 -19.65 75.2 -19.6 75.25 -19.6 75.25 -19.55 75.3 -19.4 75.3 -19.45 75.25 -19.45 75.2 -19.45 75.1 -19.5 75.1 -19.4 75.15 -19.35 Q75.15 -19.3 75.1 -19.35 L75.05 -19.4 74.95 -19.45 74.9 -19.45 74.9 -19.45 74.85 -19.5 74.8 -19.5 74.75 -19.5 74.75 -19.5 74.7 -19.45 74.65 -19.45 74.65 -19.35 74.6 -19.35 74.6 -19.35 74.55 -19.4 Q74.55 -19.4 74.55 -19.35 L74.5 -19.35 74.4 -19.35 74.35 -19.4 74.35 -19.4 74.3 -19.4 74.35 -19.35 74.3 -19.3 74.25 -19.3 74.25 -19.2 74.25 -19.2 74.2 -19.2 74.15 -19.2 74.15 -19.25 74.1 -19.3 74.05 -19.3 74.0 -19.3 74.0 -19.35 73.95 -19.35 73.9 -19.4 73.85 -19.45 73.8 -19.5 73.75 -19.55 73.75 -19.55 Q73.7 -19.55 73.7 -19.6 L73.65 -19.6 73.65 -19.6 73.6 -19.55 73.6 -19.45 73.55 -19.4 73.55 -19.45 73.5 -19.55 73.45 -19.55 73.45 -19.55 73.3 -19.45 73.3 -19.5 73.25 -19.5 Q73.25 -19.55 73.25 -19.55 L73.2 -19.6 73.25 -19.6 73.25 -19.6 73.3 -19.55 73.3 -19.5 73.35 -19.55 73.4 -19.6 73.45 -19.6 73.45 -19.65 73.5 -19.7 73.55 -19.75 73.55 -19.85 73.6 -19.9 73.6 -19.95 73.55 -20.05 73.55 -20.1 73.6 -20.15 73.55 -20.15 73.55 -20.2 73.6 -20.2 73.65 -20.15 73.7 -20.1 73.75 -20.05 Q73.75 -20.05 73.8 -20.0 L73.8 -19.95 73.85 -19.9 73.9 -19.9 73.9 -19.9 73.95 -19.85 74.0 -19.8 74.0 -19.7 74.05 -19.65 74.05 -19.6 74.05 -19.55 74.1 -19.55 74.1 -19.5 74.15 -19.45 74.15 -19.4 74.2 -19.4 74.25 -19.4 74.25 -19.4 74.3 -19.45 74.3 -19.5 74.35 -19.5 74.45 -19.5 74.45 -19.5 74.5 -19.45 74.55 -19.45 74.55 -19.5 74.6 -19.55 74.6 -19.55 74.6 -19.6 74.65 -19.65 74.65 -19.65 74.65 -19.75 74.65 -19.75 74.7 -19.75 74.7 -19.7 74.75 -19.65 74.75 -19.6 74.8 -19.6 74.85 -19.55 74.85 -19.65 74.8 -19.7 74.8 -19.75 74.75 -19.75 74.75 -19.8 74.75 -19.85 74.75 -19.9 74.75 -19.9 74.8 -19.9 74.8 -19.9 74.85 -19.9 74.9 -19.9 74.95 -19.9 75.05 -19.9 75.05 -19.95 75.1 -19.9 75.15 -19.9 75.15 -19.85 75.2 -19.85 75.25 -19.85 75.3 -19.85 75.35 -19.85 75.25 -19.9 75.15 -20.0 75.15 -20.05 75.1 -20.05 75.1 -20.1 75.15 -20.15 75.1 -20.15 75.1 -20.15 75.15 -20.2 75.2 -20.2 75.3 -20.15 Q75.3 -20.1 75.35 -20.1 L75.4 -20.1 75.45 -20.1 75.4 -20.2 75.4 -20.3 75.4 -20.4 75.35 -20.45 75.35 -20.5 75.35 -20.55 75.4 -20.55 75.45 -20.55 75.45 -20.6 75.4 -20.6 75.35 -20.6 75.3 -20.65 75.25 -20.65 75.25 -20.7 75.2 -20.7 75.15 -20.7 75.1 -20.7 75.1 -20.7 75.15 -20.75 75.1 -20.75 75.1 -20.8 75.05 -20.8 75.05 -20.85 75.0 -20.85 74.95 -20.85 74.95 -20.9 74.9 -20.95 74.9 -20.95 74.9 -21.05 74.85 -21.05 74.9 -21.1 74.85 -21.1 74.8 -21.05 74.8 -21.05 74.75 -21.05 74.75 -21.1 74.75 -21.15 74.8 -21.15 74.8 -21.15 74.75 -21.15 74.8 -21.2 74.8 -21.2 74.75 -21.2 74.75 -21.2 74.7 -21.15 74.65 -21.15 74.6 -21.1 74.55 -21.1 74.55 -21.1 74.5 -21.05 74.5 -21.05 74.35 -20.95 74.35 -21.0 74.4 -21.05 74.35 -21.05 74.35 -21.1 74.25 -21.0 74.25 -21.0 74.2 -20.95 74.1 -20.95 74.0 -20.9 74.0 -20.95 74.05 -21.0 74.0 -21.0 73.95 -21.0 73.95 -21.0 73.9 -21.05 73.85 -21.05 73.8 -21.0 73.8 -21.05 73.8 -21.1 73.8 -21.15 73.8 -21.2 73.9 -21.2 73.95 -21.15 73.95 -21.15 74.0 -21.25 74.0 -21.3 74.05 -21.35 74.05 -21.4 74.1 -21.45 74.1 -21.5 74.15 -21.55 74.15 -21.6 74.05 -21.5 74.0 -21.45 73.95 -21.4 73.9 -21.35 73.8 -21.25 73.75 -21.25 73.7 -21.15 73.7 -21.15 73.75 -21.15 73.75 -21.15 73.7 -21.1 73.65 -21.1 73.65 -21.0 73.6 -21.0 73.6 -21.05 73.55 -21.0 73.55 -20.95 73.5 -20.95 73.45 -20.95 73.4 -20.9 Q73.4 -20.85 73.35 -20.85 L73.35 -20.8 73.4 -20.75 73.4 -20.75 73.35 -20.7 73.35 -20.7 73.4 -20.65 73.35 -20.65 73.3 -20.6 73.25 -20.6 73.2 -20.6 73.2 -20.5 73.25 -20.45 73.3 -20.35 73.3 -20.25 73.3 -19.95 73.3 -19.9 73.35 -19.9 73.4 -19.85 73.4 -19.75 73.4 -19.65 73.35 -19.65 73.35 -19.65 73.3 -19.65 73.3 -19.7 73.25 -19.7 73.25 -19.7 73.25 -19.8 73.2 -19.8 73.15 -19.85 73.15 -19.85 73.1 -19.8 73.1 -19.95 73.1 -20.15 73.05 -20.3 73.05 -20.45 Q73.0 -20.5 73.0 -20.55 L73.0 -20.65 73.05 -20.7 73.0 -20.75 73.1 -20.8 73.15 -20.85 73.2 -20.9 73.3 -21.0 73.45 -21.1 73.45 -21.1 73.5 -21.15 73.6 -21.2 73.7 -21.3 73.75 -21.35 73.8 -21.4 73.9 -21.5 74.25 -21.7 74.25 -21.7 74.25 -21.6 74.2 -21.55 74.2 -21.55 74.2 -21.5 74.35 -21.55 74.55 -21.65 M74.85 -21.65 L74.8 -21.65 74.8 -21.65 74.75 -21.6 74.7 -21.6 74.7 -21.55 74.65 -21.5 74.6 -21.45 74.6 -21.45 74.55 -21.4 74.6 -21.3 74.55 -21.2 74.6 -21.25 74.65 -21.3 74.7 -21.35 74.75 -21.4 74.8 -21.45 74.8 -21.5 74.85 -21.5 74.85 -21.55 74.9 -21.6 74.95 -21.65 75.0 -21.65 75.05 -21.7 75.1 -21.65 75.1 -21.65 75.15 -21.7 75.15 -21.75 75.1 -21.75 75.0 -21.7 75.0 -21.7 74.95 -21.7 74.9 -21.65 74.85 -21.65 M74.3 -22.0 L74.3 -22.0 74.2 -21.95 74.15 -21.9 74.25 -22.0 74.25 -22.0 74.3 -22.0 M74.85 -21.4 L74.85 -21.35 74.85 -21.3 74.8 -21.3 74.85 -21.3 74.9 -21.35 74.9 -21.35 74.85 -21.4 M74.5 -21.3 L74.5 -21.35 74.45 -21.35 74.45 -21.25 74.45 -21.2 74.5 -21.2 74.5 -21.3 M73.5 -21.75 L73.65 -21.8 73.7 -21.85 73.6 -21.75 73.45 -21.65 73.45 -21.7 73.5 -21.75 M73.1 -21.55 L73.1 -21.6 73.15 -21.6 73.15 -21.55 73.1 -21.55 M73.4 -21.7 L73.35 -21.65 73.35 -21.6 73.25 -21.5 73.25 -21.5 73.3 -21.6 73.4 -21.7 M73.65 -20.05 L73.65 -19.95 73.65 -19.85 73.65 -19.75 Q73.7 -19.7 73.7 -19.7 L73.75 -19.7 73.8 -19.7 73.8 -19.8 73.75 -19.9 73.7 -20.1 73.65 -20.1 73.65 -20.05 M73.85 -19.8 L73.85 -19.75 73.85 -19.7 73.9 -19.55 73.9 -19.45 73.95 -19.45 74.0 -19.4 74.0 -19.4 74.05 -19.4 74.05 -19.4 74.1 -19.4 74.05 -19.5 74.05 -19.55 74.05 -19.6 74.0 -19.65 73.95 -19.65 73.95 -19.75 73.9 -19.85 73.85 -19.8 M74.85 -19.8 L74.85 -19.7 74.9 -19.6 74.95 -19.55 74.95 -19.5 75.0 -19.45 75.0 -19.45 75.05 -19.45 75.05 -19.5 75.1 -19.6 75.1 -19.6 75.05 -19.65 75.0 -19.65 75.0 -19.65 74.9 -19.7 74.9 -19.75 74.85 -19.8 74.85 -19.85 74.85 -19.8 M74.9 -19.85 L74.95 -19.8 74.95 -19.75 75.0 -19.75 75.0 -19.75 75.05 -19.8 75.05 -19.8 75.05 -19.85 75.0 -19.85 74.95 -19.8 74.95 -19.85 74.9 -19.85 74.9 -19.85 M76.1 -21.8 Q76.1 -21.75 76.15 -21.75 L76.1 -21.7 76.1 -21.8 76.1 -21.8 M76.25 -21.7 L76.25 -21.75 76.3 -21.75 76.3 -21.7 76.3 -21.7 76.25 -21.7 M74.95 -22.05 L74.95 -22.05 75.0 -22.05 74.95 -22.05 M75.65 -21.75 L75.6 -21.75 75.6 -21.75 75.65 -21.75 75.65 -21.75 75.65 -21.75 M75.15 -22.05 Q75.1 -22.05 75.1 -22.05 L75.1 -22.05 75.15 -22.1 75.15 -22.1 75.2 -22.05 75.15 -22.05 75.15 -22.05 M75.35 -21.7 L75.4 -21.7 75.45 -21.7 75.45 -21.7 75.45 -21.65 Q75.45 -21.65 75.4 -21.65 L75.35 -21.65 75.35 -21.6 75.3 -21.6 75.3 -21.65 75.35 -21.65 75.35 -21.7 M75.25 -20.1 L75.2 -20.1 75.15 -20.1 75.15 -20.05 75.2 -20.05 75.3 -20.05 75.3 -20.0 75.35 -20.0 75.4 -20.0 75.45 -20.05 75.4 -20.05 75.4 -20.05 75.3 -20.1 75.25 -20.1 M75.4 -19.85 L75.4 -19.8 75.45 -19.8 75.5 -19.8 75.5 -19.8 75.45 -19.85 75.4 -19.85 75.4 -19.85 M75.8 -20.1 L75.8 -20.15 75.75 -20.15 75.65 -20.2 75.65 -20.2 75.55 -20.2 75.55 -20.2 75.5 -20.2 75.5 -20.15 75.6 -20.15 75.6 -20.15 75.65 -20.1 75.65 -20.1 75.7 -20.15 75.75 -20.15 75.8 -20.1 M75.65 -20.0 L75.7 -20.0 75.75 -20.0 75.75 -20.05 75.6 -20.05 75.6 -20.05 75.65 -20.0 M75.1 -18.4 L75.1 -18.4 75.1 -18.4 Q75.1 -18.4 75.05 -18.4 L75.0 -18.4 75.0 -18.45 75.05 -18.45 75.05 -18.45 75.1 -18.4 M74.7 -19.6 L74.7 -19.65 74.65 -19.65 74.65 -19.6 74.7 -19.6 74.7 -19.6 M74.3 -18.9 L74.3 -18.9 74.25 -19.0 74.35 -18.95 74.4 -18.85 74.4 -18.85 74.3 -18.9 M74.45 -18.75 L74.45 -18.75 74.45 -18.75 74.45 -18.8 74.5 -18.8 74.5 -18.8 74.45 -18.75 M74.6 -18.75 L74.6 -18.7 74.55 -18.7 74.55 -18.7 74.5 -18.7 74.6 -18.75 M74.0 -18.65 Q74.0 -18.65 73.95 -18.65 L73.9 -18.65 73.8 -18.7 73.85 -18.7 74.0 -18.65 M73.15 -19.7 L73.15 -19.65 73.2 -19.6 73.25 -19.6 73.15 -19.6 Q73.15 -19.6 73.15 -19.65 L73.15 -19.7 M73.1 -19.35 L73.1 -19.4 73.15 -19.35 73.2 -19.3 73.25 -19.25 73.25 -19.2 73.2 -19.25 Q73.2 -19.25 73.15 -19.3 L73.15 -19.3 73.1 -19.35 M73.3 -19.2 L73.3 -19.2 73.35 -19.15 73.35 -19.15 73.3 -19.15 73.25 -19.2 73.3 -19.15 73.3 -19.2 M73.0 -19.5 L73.0 -19.45 72.95 -19.5 72.95 -19.55 73.0 -19.5" fill="#722c28" fill-rule="evenodd" stroke="none"/>
    <path d="M72.8 -19.95 L72.85 -19.85 72.85 -19.8 72.95 -19.7 72.9 -19.7 72.9 -19.7 72.85 -19.75 72.85 -19.75 Q72.8 -19.75 72.8 -19.8 72.8 -19.8 72.8 -19.85 L72.8 -19.95 M74.55 -21.7 L74.6 -21.7 74.55 -21.65 74.6 -21.6 74.6 -21.6 74.6 -21.55 74.55 -21.5 74.55 -21.45 74.5 -21.45 74.45 -21.4 74.4 -21.4 74.4 -21.3 74.35 -21.25 74.3 -21.2 74.2 -21.15 74.15 -21.15 74.2 -21.15 74.25 -21.25 74.25 -21.35 74.3 -21.4 74.35 -21.5 74.4 -21.5 74.45 -21.55 74.45 -21.6 74.5 -21.65 74.55 -21.65 74.55 -21.7 M73.1 -19.8 L73.15 -19.85 73.15 -19.85 73.2 -19.8 73.25 -19.8 73.25 -19.7 73.25 -19.7 73.3 -19.7 73.3 -19.65 73.35 -19.65 73.35 -19.65 73.4 -19.65 73.4 -19.75 73.4 -19.85 73.35 -19.9 73.3 -19.9 73.3 -19.95 73.3 -20.25 73.3 -20.35 73.25 -20.45 73.2 -20.5 73.2 -20.6 73.25 -20.6 73.3 -20.6 73.35 -20.65 73.4 -20.65 73.35 -20.7 73.35 -20.7 73.4 -20.75 73.4 -20.75 73.35 -20.8 73.35 -20.85 Q73.4 -20.85 73.4 -20.9 L73.45 -20.95 73.5 -20.95 73.55 -20.95 73.55 -21.0 73.6 -21.05 73.6 -21.0 73.65 -21.0 73.65 -21.1 73.7 -21.1 73.75 -21.15 73.75 -21.15 73.7 -21.15 73.7 -21.15 73.75 -21.25 73.8 -21.25 73.9 -21.35 73.95 -21.4 74.0 -21.45 74.05 -21.5 74.15 -21.6 74.15 -21.55 74.1 -21.5 74.1 -21.45 74.05 -21.4 74.05 -21.35 74.0 -21.3 74.0 -21.25 73.95 -21.15 73.95 -21.15 73.9 -21.2 73.8 -21.2 73.8 -21.15 73.8 -21.1 73.8 -21.05 73.8 -21.0 73.85 -21.05 73.9 -21.05 73.95 -21.0 73.95 -21.0 74.0 -21.0 74.05 -21.0 74.0 -20.95 74.0 -20.9 74.1 -20.95 74.2 -20.95 74.25 -21.0 74.25 -21.0 74.35 -21.1 74.35 -21.05 74.4 -21.05 74.35 -21.0 74.35 -20.95 74.5 -21.05 74.5 -21.05 74.55 -21.1 74.55 -21.1 74.6 -21.1 74.65 -21.15 74.7 -21.15 74.75 -21.2 74.75 -21.2 74.8 -21.2 74.8 -21.2 74.75 -21.15 74.8 -21.15 74.8 -21.15 74.75 -21.15 74.75 -21.1 74.75 -21.05 74.8 -21.05 74.8 -21.05 74.85 -21.1 74.9 -21.1 74.85 -21.05 74.9 -21.05 74.9 -20.95 74.9 -20.95 74.95 -20.9 74.95 -20.85 75.0 -20.85 75.05 -20.85 75.05 -20.8 75.1 -20.8 75.1 -20.75 75.15 -20.75 75.1 -20.7 75.1 -20.7 75.15 -20.7 75.2 -20.7 75.25 -20.7 75.25 -20.65 75.3 -20.65 75.35 -20.6 75.4 -20.6 75.45 -20.6 75.45 -20.55 75.4 -20.55 75.35 -20.55 75.35 -20.5 75.35 -20.45 75.4 -20.4 75.4 -20.3 75.4 -20.2 75.45 -20.1 75.4 -20.1 75.35 -20.1 Q75.3 -20.1 75.3 -20.15 L75.2 -20.2 75.15 -20.2 75.1 -20.15 75.1 -20.15 75.15 -20.15 75.1 -20.1 75.1 -20.05 75.15 -20.05 75.15 -20.0 75.25 -19.9 75.35 -19.85 75.3 -19.85 75.25 -19.85 75.2 -19.85 75.15 -19.85 75.15 -19.9 75.1 -19.9 75.05 -19.95 75.05 -19.9 74.95 -19.9 74.9 -19.9 74.85 -19.9 74.8 -19.9 74.8 -19.9 74.75 -19.9 74.75 -19.9 74.75 -19.85 74.75 -19.8 74.75 -19.75 74.8 -19.75 74.8 -19.7 74.85 -19.65 74.85 -19.55 74.8 -19.6 74.75 -19.6 74.75 -19.65 74.7 -19.7 74.7 -19.75 74.65 -19.75 74.65 -19.75 74.65 -19.65 74.65 -19.65 74.6 -19.6 74.6 -19.55 74.6 -19.55 74.55 -19.5 74.55 -19.45 74.5 -19.45 74.45 -19.5 74.45 -19.5 74.35 -19.5 74.3 -19.5 74.3 -19.45 74.25 -19.4 74.25 -19.4 74.2 -19.4 74.15 -19.4 74.15 -19.45 74.1 -19.5 74.1 -19.55 74.05 -19.55 74.05 -19.6 74.05 -19.65 74.0 -19.7 74.0 -19.8 73.95 -19.85 73.9 -19.9 73.9 -19.9 73.85 -19.9 73.8 -19.95 73.8 -20.0 Q73.75 -20.05 73.75 -20.05 L73.7 -20.1 73.65 -20.15 73.6 -20.2 73.55 -20.2 73.55 -20.15 73.6 -20.15 73.55 -20.1 73.55 -20.05 73.6 -19.95 73.6 -19.9 73.55 -19.85 73.55 -19.75 73.5 -19.7 73.45 -19.65 73.45 -19.6 73.4 -19.6 73.35 -19.55 73.3 -19.5 73.3 -19.55 73.25 -19.6 73.25 -19.6 73.2 -19.6 73.15 -19.65 73.15 -19.7 73.15 -19.7 73.1 -19.8 73.1 -19.8 M75.55 -20.65 L75.55 -20.65 75.45 -20.65 75.3 -20.65 75.3 -20.7 75.25 -20.75 75.3 -20.75 75.4 -20.75 Q75.45 -20.7 75.45 -20.7 L75.55 -20.65 M74.85 -21.65 L74.9 -21.65 74.95 -21.7 75.0 -21.7 75.0 -21.7 75.1 -21.75 75.15 -21.75 75.15 -21.7 75.1 -21.65 75.1 -21.65 75.05 -21.7 75.0 -21.65 74.95 -21.65 74.9 -21.6 74.85 -21.55 74.85 -21.5 74.8 -21.5 74.8 -21.45 74.75 -21.4 74.7 -21.35 74.65 -21.3 74.6 -21.25 74.55 -21.2 74.6 -21.3 74.55 -21.4 74.6 -21.45 74.6 -21.45 74.65 -21.5 74.7 -21.55 74.7 -21.6 74.75 -21.6 74.8 -21.65 74.8 -21.65 74.85 -21.65 M74.8 -21.6 L74.75 -21.55 74.6 -21.45 74.6 -21.35 74.65 -21.35 74.7 -21.4 74.75 -21.45 74.75 -21.5 74.8 -21.55 74.8 -21.6 M74.5 -21.3 L74.5 -21.2 74.45 -21.2 74.45 -21.25 74.45 -21.35 74.5 -21.35 74.5 -21.3 M74.85 -21.4 L74.9 -21.35 74.9 -21.35 74.85 -21.3 74.8 -21.3 74.85 -21.3 74.85 -21.35 74.85 -21.4 M73.85 -20.9 L73.75 -20.85 73.7 -20.9 73.7 -21.0 73.7 -21.0 73.65 -20.95 73.65 -20.9 73.6 -20.85 73.55 -20.85 73.55 -20.85 73.55 -20.85 73.5 -20.85 73.45 -20.85 73.5 -20.8 73.5 -20.65 73.4 -20.6 73.35 -20.6 73.35 -20.55 73.3 -20.55 73.3 -20.4 73.35 -20.35 73.35 -20.25 73.35 -20.15 73.35 -20.1 73.4 -20.05 73.4 -19.95 73.45 -19.95 73.45 -19.9 73.45 -19.8 73.45 -19.85 73.5 -19.95 73.5 -20.1 73.55 -20.15 73.55 -20.25 73.6 -20.25 73.6 -20.25 73.65 -20.2 73.65 -20.25 73.75 -20.15 73.8 -20.1 73.95 -20.0 73.95 -19.95 74.0 -19.95 74.0 -20.0 74.05 -20.1 74.1 -20.05 74.15 -20.0 74.15 -19.9 74.15 -19.85 74.2 -19.8 74.25 -19.75 74.3 -19.7 74.35 -19.7 74.35 -19.8 74.35 -19.8 74.4 -19.75 74.45 -19.75 74.5 -19.8 74.55 -19.8 74.6 -19.85 74.6 -19.85 74.65 -19.85 74.7 -19.85 74.7 -19.8 74.7 -19.9 74.65 -19.95 74.65 -20.05 74.7 -20.1 74.7 -20.15 74.65 -20.2 74.7 -20.2 74.7 -20.2 74.75 -20.15 74.8 -20.15 74.85 -20.15 74.85 -20.1 74.9 -20.1 74.95 -20.1 74.95 -20.15 75.0 -20.15 75.0 -20.25 75.05 -20.3 75.1 -20.3 75.2 -20.3 75.25 -20.35 75.25 -20.4 75.2 -20.45 75.15 -20.5 75.1 -20.55 75.0 -20.65 74.95 -20.65 74.95 -20.7 74.95 -20.75 74.9 -20.8 74.9 -20.85 74.85 -20.9 74.8 -20.9 74.75 -20.95 74.75 -20.95 74.7 -20.95 74.65 -20.95 74.6 -20.9 Q74.6 -20.95 74.6 -20.95 L74.6 -21.05 74.55 -21.0 74.5 -21.0 74.4 -20.9 74.35 -20.85 Q74.35 -20.85 74.3 -20.85 L74.25 -20.8 74.15 -20.75 Q74.1 -20.75 74.15 -20.75 L74.1 -20.75 74.05 -20.75 74.0 -20.7 73.95 -20.7 73.95 -20.7 73.9 -20.75 73.9 -20.8 73.85 -20.85 73.85 -20.9 73.85 -20.9 M74.9 -19.85 L74.9 -19.85 74.95 -19.85 74.95 -19.8 75.0 -19.85 75.05 -19.85 75.05 -19.8 75.05 -19.8 75.0 -19.75 75.0 -19.75 74.95 -19.75 74.95 -19.8 74.9 -19.85 M74.85 -19.8 L74.85 -19.85 74.85 -19.8 74.9 -19.75 74.9 -19.7 75.0 -19.65 75.0 -19.65 75.05 -19.65 75.1 -19.6 75.1 -19.6 75.05 -19.5 75.05 -19.45 75.0 -19.45 75.0 -19.45 74.95 -19.5 74.95 -19.55 74.9 -19.6 74.85 -19.7 74.85 -19.8 M73.85 -19.8 L73.9 -19.85 73.95 -19.75 73.95 -19.65 74.0 -19.65 74.05 -19.6 74.05 -19.55 74.05 -19.5 74.1 -19.4 74.05 -19.4 74.05 -19.4 74.0 -19.4 74.0 -19.4 73.95 -19.45 73.9 -19.45 73.9 -19.55 73.85 -19.7 73.85 -19.75 73.85 -19.8 M73.65 -20.05 L73.65 -20.1 73.7 -20.1 73.75 -19.9 73.8 -19.8 73.8 -19.7 73.75 -19.7 73.7 -19.7 Q73.7 -19.7 73.65 -19.75 L73.65 -19.85 73.65 -19.95 73.65 -20.05 M75.65 -20.0 L75.6 -20.05 75.6 -20.05 75.75 -20.05 75.75 -20.0 75.7 -20.0 75.65 -20.0 M75.8 -20.1 L75.75 -20.15 75.7 -20.15 75.65 -20.1 75.65 -20.1 75.6 -20.15 75.6 -20.15 75.5 -20.15 75.5 -20.2 75.55 -20.2 75.55 -20.2 75.65 -20.2 75.65 -20.2 75.75 -20.15 75.8 -20.15 75.8 -20.1 M75.4 -19.85 L75.4 -19.85 75.45 -19.85 75.5 -19.8 75.5 -19.8 75.45 -19.8 75.4 -19.8 75.4 -19.85 M75.25 -20.1 L75.3 -20.1 75.4 -20.05 75.4 -20.05 75.45 -20.05 75.4 -20.0 75.35 -20.0 75.3 -20.0 75.3 -20.05 75.2 -20.05 75.15 -20.05 75.15 -20.1 75.2 -20.1 75.25 -20.1 M74.7 -19.6 L74.7 -19.6 74.65 -19.6 74.65 -19.65 74.7 -19.65 74.7 -19.6" fill="#b97814" fill-rule="evenodd" stroke="none"/>
    <path d="M74.8 -21.6 L74.8 -21.55 74.75 -21.5 74.75 -21.45 74.7 -21.4 74.65 -21.35 74.6 -21.35 74.6 -21.45 74.75 -21.55 74.8 -21.6 M73.85 -20.9 L73.85 -20.9 73.85 -20.85 73.9 -20.8 73.9 -20.75 73.95 -20.7 73.95 -20.7 74.0 -20.7 74.05 -20.75 74.1 -20.75 74.15 -20.75 Q74.1 -20.75 74.15 -20.75 L74.25 -20.8 74.3 -20.85 Q74.35 -20.85 74.35 -20.85 L74.4 -20.9 74.5 -21.0 74.55 -21.0 74.6 -21.05 74.6 -20.95 Q74.6 -20.95 74.6 -20.9 L74.65 -20.95 74.7 -20.95 74.75 -20.95 74.75 -20.95 74.8 -20.9 74.85 -20.9 74.9 -20.85 74.9 -20.8 74.95 -20.75 74.95 -20.7 74.95 -20.65 75.0 -20.65 75.1 -20.55 75.15 -20.5 75.2 -20.45 75.25 -20.4 75.25 -20.35 75.2 -20.3 75.1 -20.3 75.05 -20.3 75.0 -20.25 75.0 -20.15 74.95 -20.15 74.95 -20.1 74.9 -20.1 74.85 -20.1 74.85 -20.15 74.8 -20.15 74.75 -20.15 74.7 -20.2 74.7 -20.2 74.65 -20.2 74.7 -20.15 74.7 -20.1 74.65 -20.05 74.65 -19.95 74.7 -19.9 74.7 -19.8 74.7 -19.85 74.65 -19.85 74.6 -19.85 74.6 -19.85 74.55 -19.8 74.5 -19.8 74.45 -19.75 74.4 -19.75 74.35 -19.8 74.35 -19.8 74.35 -19.7 74.3 -19.7 74.25 -19.75 74.2 -19.8 74.15 -19.85 74.15 -19.9 74.15 -20.0 74.1 -20.05 74.05 -20.1 74.0 -20.0 74.0 -19.95 73.95 -19.95 73.95 -20.0 73.8 -20.1 73.75 -20.15 73.65 -20.25 73.65 -20.2 73.6 -20.25 73.6 -20.25 73.55 -20.25 73.55 -20.15 73.5 -20.1 73.5 -19.95 73.45 -19.85 73.45 -19.8 73.45 -19.9 73.45 -19.95 73.4 -19.95 73.4 -20.05 73.35 -20.1 73.35 -20.15 73.35 -20.25 73.35 -20.35 73.3 -20.4 73.3 -20.55 73.35 -20.55 73.35 -20.6 73.4 -20.6 73.5 -20.65 73.5 -20.8 73.45 -20.85 73.5 -20.85 73.55 -20.85 73.55 -20.85 73.55 -20.85 73.6 -20.85 73.65 -20.9 73.65 -20.95 73.7 -21.0 73.7 -21.0 73.7 -20.9 73.75 -20.85 73.85 -20.9" fill="#ffe693" fill-rule="evenodd" stroke="none"/>
  </g>
</svg>
