<?xml version="1.0" encoding="UTF-8" standalone="no"?>
<svg xmlns:xlink="http://www.w3.org/1999/xlink" height="3.75px" width="3.45px" xmlns="http://www.w3.org/2000/svg">
  <g transform="matrix(1.0, 0.0, 0.0, 1.0, -71.1, 23.15)">
    <path d="M71.3 -22.4 L71.4 -22.5 71.4 -22.4 71.3 -22.3 71.25 -22.3 71.2 -22.25 71.2 -22.15 71.1 -22.05 71.1 -22.1 71.15 -22.2 71.25 -22.35 71.3 -22.4 M71.4 -22.6 L71.35 -22.6 71.35 -22.65 71.4 -22.65 71.4 -22.6 M71.7 -22.7 Q71.65 -22.7 71.65 -22.7 L71.75 -22.75 71.85 -22.85 71.95 -22.9 71.85 -22.75 71.7 -22.65 71.7 -22.7 M72.4 -22.95 L72.45 -23.05 72.5 -23.05 72.5 -23.05 72.45 -23.0 72.4 -22.95 M71.6 -22.7 L71.6 -22.65 71.55 -22.6 71.45 -22.5 71.45 -22.55 71.55 -22.65 71.6 -22.75 71.6 -22.7 M72.65 -23.05 Q72.65 -23.0 72.75 -23.05 L72.75 -23.05 72.75 -23.05 72.7 -23.0 72.65 -23.0 72.65 -23.05 M71.8 -21.25 L71.85 -21.25 71.9 -21.2 71.95 -21.15 72.0 -21.1 72.05 -21.0 72.05 -21.0 72.1 -20.95 72.1 -20.95 72.15 -20.95 72.2 -20.85 72.25 -20.8 72.25 -20.7 72.3 -20.65 72.3 -20.65 72.3 -20.55 72.35 -20.55 72.4 -20.5 72.4 -20.45 72.45 -20.45 72.5 -20.45 72.5 -20.45 72.55 -20.5 72.55 -20.55 72.6 -20.55 72.7 -20.55 72.7 -20.5 72.75 -20.5 72.8 -20.5 72.8 -20.6 72.85 -20.6 72.85 -20.6 72.85 -20.65 72.9 -20.7 72.85 -20.75 72.85 -20.8 72.9 -20.8 72.9 -20.8 72.95 -20.75 72.95 -20.7 73.0 -20.7 73.0 -20.65 73.05 -20.65 73.1 -20.6 73.05 -20.7 73.05 -20.75 73.0 -20.8 73.0 -20.85 73.0 -20.9 73.0 -20.95 73.0 -20.95 73.05 -20.95 73.05 -20.95 73.1 -20.95 73.15 -20.95 73.2 -20.9 73.25 -20.95 73.25 -21.0 73.35 -20.95 73.4 -20.9 73.4 -20.9 73.45 -20.9 73.5 -20.9 73.55 -20.9 73.6 -20.9 73.4 -21.0 73.4 -21.1 73.35 -21.1 73.35 -21.15 73.35 -21.2 73.35 -21.2 73.4 -21.25 73.45 -21.25 73.5 -21.2 Q73.55 -21.15 73.6 -21.15 L73.65 -21.15 73.7 -21.15 73.65 -21.25 73.65 -21.3 73.6 -21.4 73.6 -21.5 73.55 -21.55 73.6 -21.55 73.6 -21.55 73.65 -21.55 73.65 -21.6 73.7 -21.6 73.65 -21.65 73.65 -21.65 73.6 -21.6 73.55 -21.65 73.5 -21.7 73.45 -21.7 73.45 -21.75 73.4 -21.75 73.35 -21.75 73.4 -21.75 73.35 -21.8 73.35 -21.8 73.3 -21.85 73.3 -21.85 73.25 -21.9 73.2 -21.9 73.2 -21.95 73.15 -21.95 73.1 -22.0 73.15 -22.05 73.15 -22.1 73.1 -22.1 73.1 -22.15 73.05 -22.1 73.05 -22.1 73.0 -22.1 73.0 -22.1 72.95 -22.15 73.0 -22.15 73.05 -22.2 73.05 -22.2 73.0 -22.2 73.05 -22.2 73.05 -22.25 73.0 -22.25 73.0 -22.25 72.95 -22.25 72.9 -22.2 72.85 -22.15 72.85 -22.15 72.8 -22.15 72.75 -22.15 72.75 -22.1 72.7 -22.05 Q72.65 -22.0 72.6 -22.0 L72.6 -22.0 72.6 -22.05 72.55 -22.1 72.6 -22.1 72.6 -22.1 72.5 -22.05 72.45 -22.0 72.45 -22.0 72.35 -21.95 72.25 -21.95 72.2 -21.95 72.25 -22.0 72.25 -22.05 72.2 -22.05 72.15 -22.05 72.15 -22.05 72.1 -22.05 72.05 -22.05 72.05 -22.1 72.05 -22.15 72.05 -22.2 72.05 -22.2 72.15 -22.2 72.2 -22.2 72.2 -22.2 Q72.25 -22.2 72.25 -22.25 L72.25 -22.35 72.3 -22.4 72.3 -22.45 72.35 -22.5 72.35 -22.5 72.35 -22.6 72.4 -22.65 72.3 -22.55 72.25 -22.5 72.15 -22.45 72.1 -22.4 72.0 -22.3 71.95 -22.25 71.9 -22.2 71.95 -22.2 71.95 -22.2 72.0 -22.2 72.0 -22.2 71.95 -22.15 71.9 -22.15 71.9 -22.05 71.85 -22.05 71.85 -22.05 71.8 -22.05 71.8 -22.0 71.75 -22.0 71.7 -22.0 71.65 -21.9 Q71.65 -21.85 71.55 -21.9 L71.6 -21.85 71.65 -21.8 71.65 -21.75 71.6 -21.75 71.6 -21.75 71.6 -21.65 71.5 -21.65 71.5 -21.65 71.45 -21.6 Q71.4 -21.6 71.45 -21.55 L71.5 -21.5 71.55 -21.4 71.55 -21.3 71.55 -21.0 71.55 -20.95 71.6 -20.95 71.65 -20.9 71.65 -20.8 71.65 -20.7 71.6 -20.7 71.6 -20.7 71.55 -20.7 71.55 -20.75 71.5 -20.75 71.5 -20.8 71.45 -20.85 71.45 -20.85 71.4 -20.9 71.4 -20.9 71.35 -20.85 71.35 -21.0 71.35 -21.2 71.3 -21.35 71.25 -21.5 Q71.25 -21.5 71.25 -21.6 L71.25 -21.7 71.25 -21.8 71.3 -21.85 71.4 -21.85 71.45 -21.95 71.55 -22.0 71.65 -22.15 71.7 -22.15 71.75 -22.2 71.85 -22.25 71.9 -22.35 72.0 -22.4 72.05 -22.45 72.15 -22.55 72.5 -22.7 72.5 -22.7 72.5 -22.65 72.45 -22.6 72.4 -22.55 72.45 -22.55 72.45 -22.5 Q72.5 -22.55 72.6 -22.55 L72.9 -22.8 72.9 -22.7 72.9 -22.7 72.95 -22.7 73.0 -22.75 73.0 -22.75 73.1 -22.8 73.1 -22.75 73.15 -22.75 73.15 -22.8 73.2 -22.8 73.2 -22.8 73.35 -22.85 73.5 -22.9 73.55 -22.9 73.55 -22.9 73.6 -22.9 73.55 -22.85 73.45 -22.8 73.45 -22.75 73.4 -22.75 73.35 -22.65 Q73.3 -22.65 73.3 -22.65 L73.2 -22.6 73.25 -22.55 73.2 -22.55 73.15 -22.5 73.15 -22.45 73.15 -22.45 73.2 -22.4 73.2 -22.35 73.15 -22.3 73.1 -22.25 73.1 -22.25 73.15 -22.25 73.2 -22.2 73.2 -22.2 73.25 -22.15 73.3 -22.1 73.25 -22.05 Q73.25 -22.05 73.3 -22.05 L73.3 -21.95 73.4 -21.9 73.5 -21.9 73.55 -21.9 73.55 -21.85 73.6 -21.8 73.65 -21.8 73.55 -21.75 73.5 -21.8 73.5 -21.75 73.55 -21.7 73.7 -21.7 73.8 -21.7 73.8 -21.7 73.85 -21.7 73.9 -21.65 73.95 -21.6 74.0 -21.6 74.05 -21.6 74.0 -21.55 74.0 -21.55 73.95 -21.55 74.0 -21.5 73.9 -21.5 73.85 -21.45 73.9 -21.45 73.9 -21.4 73.95 -21.35 74.05 -21.3 74.0 -21.25 74.0 -21.25 74.0 -21.2 74.05 -21.2 74.1 -21.15 74.1 -21.15 74.35 -21.05 74.2 -21.05 74.1 -21.05 74.15 -21.0 74.15 -21.0 74.15 -20.95 74.2 -20.95 74.2 -20.9 73.75 -21.0 73.6 -21.0 73.9 -20.85 74.0 -20.75 Q74.1 -20.7 74.15 -20.7 L74.1 -20.7 74.0 -20.7 73.9 -20.7 73.8 -20.75 73.7 -20.75 73.6 -20.8 73.55 -20.8 73.5 -20.8 73.45 -20.85 73.45 -20.85 73.4 -20.85 73.4 -20.8 73.4 -20.75 73.45 -20.7 73.45 -20.65 73.5 -20.55 73.55 -20.45 73.55 -20.45 73.5 -20.5 73.45 -20.5 73.35 -20.55 73.3 -20.45 73.35 -20.45 73.4 -20.4 73.35 -20.35 73.25 -20.4 73.15 -20.5 73.15 -20.5 73.15 -20.5 73.1 -20.5 73.05 -20.55 73.0 -20.55 73.0 -20.5 72.95 -20.45 72.9 -20.45 72.9 -20.4 72.85 -20.4 72.85 -20.4 72.8 -20.45 72.75 -20.4 72.75 -20.4 72.65 -20.4 72.6 -20.45 72.55 -20.45 72.55 -20.45 72.55 -20.35 72.5 -20.3 72.5 -20.3 72.5 -20.25 72.45 -20.25 72.45 -20.25 72.4 -20.25 72.35 -20.3 72.35 -20.3 72.3 -20.35 72.25 -20.35 72.25 -20.35 72.2 -20.4 72.15 -20.45 72.1 -20.45 72.05 -20.55 72.0 -20.6 72.0 -20.6 71.95 -20.6 71.9 -20.65 71.9 -20.65 71.85 -20.6 71.85 -20.5 71.8 -20.45 71.8 -20.45 71.75 -20.5 71.75 -20.55 71.7 -20.6 71.7 -20.55 71.65 -20.6 Q71.6 -20.5 71.55 -20.5 L71.5 -20.5 71.5 -20.55 71.45 -20.6 71.45 -20.65 71.5 -20.65 71.5 -20.6 71.55 -20.55 71.6 -20.6 71.65 -20.65 71.7 -20.65 71.7 -20.7 71.75 -20.75 71.8 -20.75 71.8 -20.9 71.8 -20.95 71.85 -20.95 71.85 -21.0 71.8 -21.05 71.8 -21.1 71.8 -21.15 71.8 -21.25 71.8 -21.25 M71.4 -20.7 L71.4 -20.7 71.45 -20.65 71.45 -20.65 71.4 -20.6 Q71.4 -20.6 71.4 -20.65 L71.4 -20.7 M72.7 -22.65 L72.7 -22.6 72.65 -22.55 72.6 -22.5 72.55 -22.45 72.5 -22.4 72.45 -22.3 72.45 -22.2 72.4 -22.15 72.45 -22.15 72.55 -22.25 72.55 -22.3 72.65 -22.35 72.65 -22.4 72.7 -22.4 72.75 -22.45 72.8 -22.5 72.8 -22.55 72.85 -22.6 72.85 -22.65 72.85 -22.65 72.8 -22.65 72.85 -22.7 72.8 -22.7 72.75 -22.7 72.75 -22.65 72.7 -22.65 M72.85 -22.5 L72.85 -22.5 72.8 -22.45 72.8 -22.4 72.85 -22.35 72.8 -22.25 72.85 -22.3 72.9 -22.35 72.95 -22.4 73.0 -22.45 73.05 -22.5 73.05 -22.5 73.1 -22.55 73.1 -22.6 73.15 -22.65 73.2 -22.65 73.25 -22.7 73.3 -22.7 73.35 -22.7 73.35 -22.7 73.4 -22.75 73.4 -22.8 73.3 -22.75 73.25 -22.75 73.25 -22.75 73.2 -22.75 73.15 -22.7 73.1 -22.7 73.05 -22.7 73.05 -22.65 73.0 -22.65 72.95 -22.6 72.95 -22.55 72.9 -22.55 72.85 -22.5 M72.75 -22.4 L72.7 -22.4 72.7 -22.3 72.7 -22.25 72.75 -22.25 72.75 -22.35 72.75 -22.4 M71.9 -21.1 L71.9 -21.0 71.9 -20.9 71.9 -20.8 Q71.95 -20.75 71.95 -20.75 L72.0 -20.75 72.0 -20.75 72.05 -20.8 72.05 -20.85 72.0 -20.9 71.95 -21.15 71.9 -21.15 71.9 -21.1 M71.25 -20.55 L71.25 -20.5 71.2 -20.5 71.2 -20.55 71.25 -20.55 M71.3 -20.4 L71.4 -20.35 71.45 -20.3 71.45 -20.25 71.45 -20.25 71.4 -20.3 71.4 -20.3 71.35 -20.35 71.35 -20.4 71.3 -20.4 M71.55 -20.15 L71.5 -20.2 71.55 -20.2 71.55 -20.25 71.6 -20.2 71.55 -20.2 71.55 -20.15 M72.1 -20.8 L72.1 -20.55 72.15 -20.5 Q72.15 -20.45 72.2 -20.45 L72.2 -20.45 72.25 -20.4 72.3 -20.4 72.3 -20.4 72.35 -20.45 72.3 -20.5 72.3 -20.55 72.25 -20.55 72.3 -20.6 72.3 -20.65 72.25 -20.7 72.2 -20.7 72.2 -20.75 72.15 -20.85 72.1 -20.85 72.1 -20.8 M72.55 -19.95 L72.55 -19.95 72.5 -20.05 72.6 -20.0 72.65 -19.9 72.65 -19.85 72.6 -19.9 72.55 -19.95 M72.7 -19.85 L72.75 -19.85 72.7 -19.85 72.7 -19.8 72.7 -19.8 72.65 -19.8 72.65 -19.8 72.7 -19.85 M73.4 -23.1 L73.4 -23.1 73.35 -23.1 73.35 -23.1 73.4 -23.15 73.4 -23.1 73.4 -23.1 M73.25 -23.1 L73.2 -23.05 73.2 -23.1 73.25 -23.1 M73.1 -22.45 L73.1 -22.4 73.05 -22.35 73.05 -22.3 73.1 -22.3 73.15 -22.35 73.15 -22.4 73.1 -22.45 73.1 -22.45 M73.85 -22.75 L73.85 -22.75 73.85 -22.8 73.9 -22.8 73.9 -22.75 73.85 -22.75 M73.7 -22.75 L73.65 -22.75 73.7 -22.7 73.65 -22.7 73.6 -22.7 73.6 -22.7 73.55 -22.65 73.55 -22.7 73.6 -22.7 73.6 -22.75 73.65 -22.75 73.7 -22.75 M74.35 -22.8 L74.35 -22.8 74.35 -22.8 74.3 -22.8 74.35 -22.8 M74.5 -22.75 L74.5 -22.8 74.55 -22.75 74.55 -22.75 74.55 -22.75 74.5 -22.75 74.5 -22.75 M74.0 -21.15 L74.05 -21.15 74.05 -21.15 74.0 -21.2 73.9 -21.2 73.85 -21.25 73.8 -21.25 73.75 -21.2 73.75 -21.15 73.8 -21.15 73.8 -21.2 73.9 -21.15 73.9 -21.15 73.95 -21.15 74.0 -21.15 M74.0 -21.05 L73.85 -21.1 73.85 -21.1 73.9 -21.05 73.95 -21.05 74.0 -21.05 74.0 -21.05 M73.4 -21.1 L73.45 -21.1 73.5 -21.05 73.55 -21.05 73.55 -21.05 73.65 -21.05 73.65 -21.1 73.6 -21.1 73.55 -21.15 73.5 -21.15 73.45 -21.15 73.35 -21.15 73.4 -21.1 M73.7 -20.85 L73.65 -20.9 73.65 -20.9 73.6 -20.9 73.65 -20.85 73.7 -20.85 73.75 -20.85 73.7 -20.85 73.7 -20.85 M73.25 -20.8 L73.3 -20.85 73.3 -20.85 73.25 -20.9 73.25 -20.85 73.2 -20.85 73.2 -20.9 73.15 -20.9 73.15 -20.85 73.2 -20.8 73.2 -20.8 73.25 -20.8 73.25 -20.8 M73.15 -20.75 L73.15 -20.75 73.1 -20.8 73.1 -20.85 73.05 -20.85 73.05 -20.85 73.1 -20.75 73.1 -20.75 73.15 -20.6 73.2 -20.55 73.2 -20.55 73.25 -20.5 73.25 -20.45 73.3 -20.5 73.3 -20.55 73.35 -20.6 73.35 -20.65 73.3 -20.7 73.25 -20.7 73.25 -20.7 73.2 -20.7 Q73.2 -20.7 73.15 -20.75 L73.15 -20.75 M72.95 -20.65 L72.9 -20.7 72.9 -20.65 72.95 -20.65 72.95 -20.65 72.95 -20.65 M72.2 -19.7 L72.1 -19.7 72.05 -19.75 72.1 -19.75 72.2 -19.7 72.2 -19.7 M72.75 -19.75 Q72.75 -19.8 72.8 -19.8 L72.8 -19.7 72.75 -19.75 72.75 -19.75 M73.35 -19.45 L73.35 -19.45 73.3 -19.4 73.25 -19.45 73.2 -19.45 73.25 -19.45 73.3 -19.45 73.3 -19.45 73.35 -19.45 73.35 -19.45" fill="#722c28" fill-rule="evenodd" stroke="none"/>
    <path d="M71.35 -20.85 L71.4 -20.9 71.4 -20.9 71.45 -20.85 71.45 -20.85 71.5 -20.8 71.5 -20.75 71.55 -20.75 71.55 -20.7 71.6 -20.7 71.6 -20.7 71.65 -20.7 71.65 -20.8 71.65 -20.9 71.6 -20.95 71.55 -20.95 71.55 -21.0 71.55 -21.3 71.55 -21.4 71.5 -21.5 71.45 -21.55 Q71.4 -21.6 71.45 -21.6 L71.5 -21.65 71.5 -21.65 71.6 -21.65 71.6 -21.75 71.6 -21.75 71.65 -21.75 71.65 -21.8 71.6 -21.85 71.55 -21.9 Q71.65 -21.85 71.65 -21.9 L71.7 -22.0 71.75 -22.0 71.8 -22.0 71.8 -22.05 71.85 -22.05 71.85 -22.05 71.9 -22.05 71.9 -22.15 71.95 -22.15 72.0 -22.2 72.0 -22.2 71.95 -22.2 71.95 -22.2 71.9 -22.2 71.95 -22.25 72.0 -22.3 72.1 -22.4 72.15 -22.45 72.25 -22.5 72.3 -22.55 72.4 -22.65 72.35 -22.6 72.35 -22.5 72.35 -22.5 72.3 -22.45 72.3 -22.4 72.25 -22.35 72.25 -22.25 Q72.25 -22.2 72.2 -22.2 L72.2 -22.2 72.15 -22.2 72.05 -22.2 72.05 -22.2 72.05 -22.15 72.05 -22.1 72.05 -22.05 72.1 -22.05 72.15 -22.05 72.15 -22.05 72.2 -22.05 72.25 -22.05 72.25 -22.0 72.2 -21.95 72.25 -21.95 72.35 -21.95 72.45 -22.0 72.45 -22.0 72.5 -22.05 72.6 -22.1 72.6 -22.1 72.55 -22.1 72.6 -22.05 72.6 -22.0 72.6 -22.0 Q72.65 -22.0 72.7 -22.05 L72.75 -22.1 72.75 -22.15 72.8 -22.15 72.85 -22.15 72.85 -22.15 72.9 -22.2 72.95 -22.25 73.0 -22.25 73.0 -22.25 73.05 -22.25 73.05 -22.2 73.0 -22.2 73.05 -22.2 73.05 -22.2 73.0 -22.15 72.95 -22.15 73.0 -22.1 73.0 -22.1 73.05 -22.1 73.05 -22.1 73.1 -22.15 73.1 -22.1 73.15 -22.1 73.15 -22.05 73.1 -22.0 73.15 -21.95 73.2 -21.95 73.2 -21.9 73.25 -21.9 73.3 -21.85 73.3 -21.85 73.35 -21.8 73.35 -21.8 73.4 -21.75 73.35 -21.75 73.4 -21.75 73.45 -21.75 73.45 -21.7 73.5 -21.7 73.55 -21.65 73.6 -21.6 73.65 -21.65 73.65 -21.65 73.7 -21.6 73.65 -21.6 73.65 -21.55 73.6 -21.55 73.6 -21.55 73.55 -21.55 73.6 -21.5 73.6 -21.4 73.65 -21.3 73.65 -21.25 73.7 -21.15 73.65 -21.15 73.6 -21.15 Q73.55 -21.15 73.5 -21.2 L73.45 -21.25 73.4 -21.25 73.35 -21.2 73.35 -21.2 73.35 -21.15 73.35 -21.1 73.4 -21.1 73.4 -21.0 73.6 -20.9 73.55 -20.9 73.5 -20.9 73.45 -20.9 73.4 -20.9 73.4 -20.9 73.35 -20.95 73.25 -21.0 73.25 -20.95 73.2 -20.9 73.15 -20.95 73.1 -20.95 73.05 -20.95 73.05 -20.95 73.0 -20.95 73.0 -20.95 73.0 -20.9 73.0 -20.85 73.0 -20.8 73.05 -20.75 73.05 -20.7 73.1 -20.6 73.05 -20.65 73.0 -20.65 73.0 -20.7 72.95 -20.7 72.95 -20.75 72.9 -20.8 72.9 -20.8 72.85 -20.8 72.85 -20.75 72.9 -20.7 72.85 -20.65 72.85 -20.6 72.85 -20.6 72.8 -20.6 72.8 -20.5 72.75 -20.5 72.7 -20.5 72.7 -20.55 72.6 -20.55 72.55 -20.55 72.55 -20.5 72.5 -20.45 72.5 -20.45 72.45 -20.45 72.4 -20.45 72.4 -20.5 72.35 -20.55 72.3 -20.55 72.3 -20.65 72.3 -20.65 72.25 -20.7 72.25 -20.8 72.2 -20.85 72.15 -20.95 72.1 -20.95 72.1 -20.95 72.05 -21.0 72.05 -21.0 72.0 -21.1 71.95 -21.15 71.9 -21.2 71.85 -21.25 71.8 -21.25 71.8 -21.15 71.8 -21.1 71.8 -21.05 71.85 -21.0 71.85 -20.95 71.8 -20.95 71.8 -20.9 71.8 -20.75 71.75 -20.75 71.7 -20.7 71.7 -20.65 71.65 -20.65 71.6 -20.6 71.55 -20.55 71.5 -20.6 71.5 -20.65 71.45 -20.65 71.45 -20.65 71.4 -20.7 71.4 -20.7 71.4 -20.75 71.35 -20.85 71.35 -20.85 M73.8 -21.7 L73.8 -21.7 73.7 -21.7 73.55 -21.7 73.5 -21.75 73.5 -21.8 73.55 -21.75 73.65 -21.8 Q73.65 -21.75 73.7 -21.75 L73.8 -21.7 M72.75 -22.4 L72.75 -22.35 72.75 -22.25 72.7 -22.25 72.7 -22.3 72.7 -22.4 72.75 -22.4 M72.85 -22.5 L72.9 -22.55 72.95 -22.55 72.95 -22.6 73.0 -22.65 73.05 -22.65 73.05 -22.7 73.1 -22.7 73.15 -22.7 73.2 -22.75 73.25 -22.75 73.25 -22.75 73.3 -22.75 73.4 -22.8 73.4 -22.75 73.35 -22.7 73.35 -22.7 73.3 -22.7 73.25 -22.7 73.2 -22.65 73.15 -22.65 73.1 -22.6 73.1 -22.55 73.05 -22.5 73.05 -22.5 73.0 -22.45 72.95 -22.4 72.9 -22.35 72.85 -22.3 72.8 -22.25 72.85 -22.35 72.8 -22.4 72.8 -22.45 72.85 -22.5 72.85 -22.5 M72.7 -22.65 L72.75 -22.65 72.75 -22.7 72.8 -22.7 72.85 -22.7 72.8 -22.65 72.85 -22.65 72.85 -22.65 72.85 -22.6 72.8 -22.55 72.8 -22.5 72.75 -22.45 72.7 -22.4 72.65 -22.4 72.65 -22.35 72.55 -22.3 72.55 -22.25 72.45 -22.15 72.4 -22.15 72.45 -22.2 72.45 -22.3 72.5 -22.4 72.55 -22.45 72.6 -22.5 72.65 -22.55 72.7 -22.6 72.7 -22.65 M72.85 -22.35 L72.9 -22.4 72.9 -22.45 72.95 -22.5 72.95 -22.55 73.05 -22.6 73.05 -22.65 73.0 -22.6 72.85 -22.45 72.85 -22.35 M71.8 -21.25 L71.8 -21.3 71.85 -21.3 71.9 -21.25 71.9 -21.25 72.0 -21.2 72.05 -21.15 72.2 -21.0 72.2 -20.95 72.25 -21.0 72.25 -21.05 72.3 -21.15 72.35 -21.1 72.4 -21.05 72.35 -21.0 72.4 -20.9 72.4 -20.9 72.45 -20.85 72.5 -20.8 72.55 -20.75 72.55 -20.75 72.6 -20.8 72.6 -20.85 72.65 -20.8 72.7 -20.8 72.75 -20.8 72.8 -20.85 72.85 -20.85 72.85 -20.9 72.9 -20.9 72.9 -20.85 72.95 -20.8 72.95 -20.85 72.95 -20.9 72.9 -21.0 72.9 -21.15 72.9 -21.25 72.95 -21.25 73.0 -21.2 73.05 -21.2 73.1 -21.15 73.1 -21.15 73.15 -21.15 73.2 -21.15 73.2 -21.2 73.25 -21.2 73.25 -21.3 73.25 -21.35 73.35 -21.35 73.4 -21.35 73.5 -21.4 73.5 -21.45 73.45 -21.5 73.4 -21.55 73.35 -21.6 73.25 -21.65 73.2 -21.7 73.2 -21.75 73.2 -21.8 73.15 -21.85 73.1 -21.9 73.1 -21.95 73.05 -21.95 73.0 -21.95 72.95 -21.95 72.95 -22.0 72.9 -22.0 72.85 -21.95 72.85 -22.1 Q72.8 -22.1 72.8 -22.05 L72.75 -22.05 72.6 -21.95 72.6 -21.9 72.55 -21.85 Q72.55 -21.85 72.5 -21.8 72.4 -21.8 72.35 -21.75 L72.35 -21.8 72.3 -21.75 72.25 -21.75 72.2 -21.75 72.2 -21.75 72.15 -21.8 72.15 -21.85 72.1 -21.85 72.1 -21.9 72.05 -21.95 72.0 -21.9 71.95 -21.95 71.95 -22.0 71.95 -22.0 71.9 -22.0 71.9 -21.9 71.85 -21.9 71.8 -21.9 71.8 -21.9 71.7 -21.9 71.7 -21.85 71.75 -21.75 71.7 -21.7 71.65 -21.65 71.6 -21.65 71.6 -21.6 71.55 -21.6 71.55 -21.5 71.55 -21.45 71.6 -21.4 71.55 -21.35 71.55 -21.2 71.6 -21.15 71.6 -21.15 71.65 -21.1 71.65 -20.95 71.65 -21.0 71.7 -21.0 71.7 -20.85 71.7 -20.9 71.7 -21.0 71.75 -21.1 71.75 -21.15 71.8 -21.2 71.8 -21.25 M71.9 -21.1 L71.9 -21.15 71.95 -21.15 72.0 -20.9 72.05 -20.85 72.05 -20.8 72.0 -20.75 72.0 -20.75 71.95 -20.75 Q71.95 -20.75 71.9 -20.8 L71.9 -20.9 71.9 -21.0 71.9 -21.1 M72.1 -20.8 L72.1 -20.85 72.15 -20.85 72.2 -20.75 72.2 -20.7 72.25 -20.7 72.3 -20.65 72.3 -20.6 72.25 -20.55 72.3 -20.55 72.3 -20.5 72.35 -20.45 72.3 -20.4 72.3 -20.4 72.25 -20.4 72.2 -20.45 72.2 -20.45 Q72.15 -20.45 72.15 -20.5 L72.1 -20.55 72.1 -20.8 M73.1 -22.45 L73.1 -22.45 73.15 -22.4 73.15 -22.35 73.1 -22.3 73.05 -22.3 73.05 -22.35 73.1 -22.4 73.1 -22.45 M74.0 -21.05 L74.0 -21.05 73.95 -21.05 73.9 -21.05 73.85 -21.1 73.85 -21.1 74.0 -21.05 M74.0 -21.15 L73.95 -21.15 73.9 -21.15 73.9 -21.15 73.8 -21.2 73.8 -21.15 73.75 -21.15 73.75 -21.2 73.8 -21.25 73.85 -21.25 73.9 -21.2 74.0 -21.2 74.05 -21.15 74.05 -21.15 74.0 -21.15 M72.95 -20.65 L72.95 -20.65 72.95 -20.65 72.9 -20.65 72.9 -20.7 72.95 -20.65 M73.15 -20.75 L73.15 -20.75 Q73.2 -20.7 73.2 -20.7 L73.25 -20.7 73.25 -20.7 73.3 -20.7 73.35 -20.65 73.35 -20.6 73.3 -20.55 73.3 -20.5 73.25 -20.45 73.25 -20.5 73.2 -20.55 73.2 -20.55 73.15 -20.6 73.1 -20.75 73.1 -20.75 73.05 -20.85 73.05 -20.85 73.1 -20.85 73.1 -20.8 73.15 -20.75 73.15 -20.75 M73.25 -20.8 L73.25 -20.8 73.2 -20.8 73.2 -20.8 73.15 -20.85 73.15 -20.9 73.2 -20.9 73.2 -20.85 73.25 -20.85 73.25 -20.9 73.3 -20.85 73.3 -20.85 73.25 -20.8 M73.7 -20.85 L73.7 -20.85 73.75 -20.85 73.7 -20.85 73.65 -20.85 73.6 -20.9 73.65 -20.9 73.65 -20.9 73.7 -20.85 M73.4 -21.1 L73.35 -21.15 73.45 -21.15 73.5 -21.15 73.55 -21.15 73.6 -21.1 73.65 -21.1 73.65 -21.05 73.55 -21.05 73.55 -21.05 73.5 -21.05 73.45 -21.1 73.4 -21.1" fill="#b97814" fill-rule="evenodd" stroke="none"/>
    <path d="M71.8 -21.25 L71.8 -21.25 71.8 -21.2 71.75 -21.15 71.75 -21.1 71.7 -21.0 71.7 -20.9 71.7 -20.85 71.7 -21.0 71.65 -21.0 71.65 -20.95 71.65 -21.1 71.6 -21.15 71.6 -21.15 71.55 -21.2 71.55 -21.35 71.6 -21.4 71.55 -21.45 71.55 -21.5 71.55 -21.6 71.6 -21.6 71.6 -21.65 71.65 -21.65 71.7 -21.7 71.75 -21.75 71.7 -21.85 71.7 -21.9 71.8 -21.9 71.8 -21.9 71.85 -21.9 71.9 -21.9 71.9 -22.0 71.95 -22.0 71.95 -22.0 71.95 -21.95 72.0 -21.9 72.05 -21.95 72.1 -21.9 72.1 -21.85 72.15 -21.85 72.15 -21.8 72.2 -21.75 72.2 -21.75 72.25 -21.75 72.3 -21.75 72.35 -21.8 72.35 -21.75 Q72.4 -21.8 72.5 -21.8 72.55 -21.85 72.55 -21.85 L72.6 -21.9 72.6 -21.95 72.75 -22.05 72.8 -22.05 Q72.8 -22.1 72.85 -22.1 L72.85 -21.95 72.9 -22.0 72.95 -22.0 72.95 -21.95 73.0 -21.95 73.05 -21.95 73.1 -21.95 73.1 -21.9 73.15 -21.85 73.2 -21.8 73.2 -21.75 73.2 -21.7 73.25 -21.65 73.35 -21.6 73.4 -21.55 73.45 -21.5 73.5 -21.45 73.5 -21.4 73.4 -21.35 73.35 -21.35 73.25 -21.35 73.25 -21.3 73.25 -21.2 73.2 -21.2 73.2 -21.15 73.15 -21.15 73.1 -21.15 73.1 -21.15 73.05 -21.2 73.0 -21.2 72.95 -21.25 72.9 -21.25 72.9 -21.15 72.9 -21.0 72.95 -20.9 72.95 -20.85 72.95 -20.8 72.9 -20.85 72.9 -20.9 72.85 -20.9 72.85 -20.85 72.8 -20.85 72.75 -20.8 72.7 -20.8 72.65 -20.8 72.6 -20.85 72.6 -20.8 72.55 -20.75 72.55 -20.75 72.5 -20.8 72.45 -20.85 72.4 -20.9 72.4 -20.9 72.35 -21.0 72.4 -21.05 72.35 -21.1 72.3 -21.15 72.25 -21.05 72.25 -21.0 72.2 -20.95 72.2 -21.0 72.05 -21.15 72.0 -21.2 71.9 -21.25 71.9 -21.25 71.85 -21.3 71.8 -21.3 71.8 -21.25 M72.85 -22.35 L72.85 -22.45 73.0 -22.6 73.05 -22.65 73.05 -22.6 72.95 -22.55 72.95 -22.5 72.9 -22.45 72.9 -22.4 72.85 -22.35" fill="#ffe693" fill-rule="evenodd" stroke="none"/>
  </g>
</svg>
