<?xml version="1.0" encoding="UTF-8" standalone="no"?>
<svg xmlns:xlink="http://www.w3.org/1999/xlink" height="2.65px" width="3.0px" xmlns="http://www.w3.org/2000/svg">
  <g transform="matrix(1.0, 0.0, 0.0, 1.0, -71.4, 23.15)">
    <path d="M72.9 -21.25 L72.95 -21.2 73.0 -21.15 73.0 -21.1 72.95 -21.1 72.9 -21.15 72.9 -21.2 72.85 -21.2 72.9 -21.25 M73.0 -22.95 L73.0 -22.95 73.05 -23.0 73.05 -23.0 73.05 -22.9 73.05 -22.9 73.0 -22.85 73.0 -22.95 M73.1 -23.1 L73.05 -23.15 73.1 -23.15 73.1 -23.15 73.15 -23.15 73.15 -23.1 73.1 -23.1 73.1 -23.1 M72.85 -20.75 L72.8 -20.8 72.85 -20.8 72.9 -20.85 72.85 -20.9 72.85 -20.95 72.9 -20.95 72.95 -20.9 72.95 -20.85 72.95 -20.7 72.9 -20.65 72.9 -20.65 72.85 -20.75 M73.35 -22.8 L73.4 -22.85 73.35 -22.85 73.4 -22.9 73.4 -22.85 73.45 -22.85 73.45 -22.85 73.4 -22.8 73.4 -22.8 73.35 -22.8 73.35 -22.8 M73.05 -22.55 L73.05 -22.55 73.1 -22.55 73.05 -22.5 73.0 -22.5 72.95 -22.5 72.9 -22.5 72.9 -22.5 72.95 -22.55 73.05 -22.55 M73.15 -22.75 L73.15 -22.65 73.1 -22.7 73.05 -22.7 73.1 -22.75 73.15 -22.75 M73.5 -22.65 L73.55 -22.7 73.55 -22.7 73.55 -22.65 73.6 -22.6 73.6 -22.6 73.55 -22.55 73.55 -22.55 Q73.5 -22.55 73.5 -22.6 L73.5 -22.65 M74.4 -22.3 L74.4 -22.25 74.35 -22.25 74.3 -22.25 74.3 -22.25 74.35 -22.3 74.4 -22.25 74.4 -22.3 M74.0 -22.4 L74.0 -22.4 73.95 -22.4 73.95 -22.4 74.0 -22.45 74.0 -22.4 M74.1 -22.2 L74.1 -22.2 74.0 -22.2 74.0 -22.2 74.05 -22.25 74.05 -22.25 74.1 -22.25 74.1 -22.2 M74.15 -22.0 L74.1 -22.0 74.1 -22.0 74.15 -22.0 74.15 -22.0 74.15 -22.0 M74.05 -21.85 L74.1 -21.9 74.1 -21.85 74.05 -21.85 74.05 -21.85 74.0 -21.85 74.05 -21.85 M74.3 -21.75 L74.3 -21.8 74.35 -21.75 74.4 -21.75 74.4 -21.75 74.3 -21.75 M74.15 -21.55 L74.2 -21.5 74.2 -21.5 74.15 -21.5 74.1 -21.55 74.1 -21.55 74.05 -21.55 74.05 -21.6 74.1 -21.65 74.15 -21.6 74.15 -21.55 M74.0 -21.45 L74.05 -21.45 74.05 -21.4 74.0 -21.45 74.0 -21.45 M74.0 -21.05 L73.95 -21.0 73.95 -21.0 73.9 -21.0 73.9 -21.0 73.85 -21.0 73.8 -21.05 73.85 -21.1 73.95 -21.05 74.0 -21.05 M74.3 -21.05 L74.35 -21.05 74.35 -20.95 74.3 -20.95 74.25 -21.0 74.2 -21.05 Q74.2 -21.05 74.2 -21.1 L74.3 -21.05 M73.8 -20.9 L73.8 -20.9 73.75 -20.9 73.7 -20.95 73.7 -21.0 73.7 -21.0 73.75 -21.0 73.8 -20.9 M73.3 -21.3 L73.3 -21.25 73.3 -21.25 73.25 -21.25 73.2 -21.25 73.2 -21.3 73.25 -21.3 73.3 -21.3 73.3 -21.3 M73.05 -20.95 L73.05 -20.95 73.05 -21.0 73.1 -20.9 73.1 -20.9 73.05 -20.9 73.05 -20.95 M73.3 -20.65 L73.3 -20.6 73.25 -20.6 73.25 -20.65 73.3 -20.65 73.3 -20.65 M73.25 -20.6 L73.25 -20.55 73.25 -20.5 73.2 -20.55 73.15 -20.6 73.2 -20.65 73.25 -20.6 M74.05 -20.85 L74.0 -20.8 74.0 -20.85 73.95 -20.85 73.9 -20.95 73.95 -20.95 74.0 -20.9 74.05 -20.9 74.05 -20.85" fill="#421818" fill-rule="evenodd" stroke="none"/>
    <path d="M72.05 -22.35 L72.15 -22.3 72.2 -22.25 72.2 -22.2 72.25 -22.15 72.3 -22.15 72.35 -22.1 72.35 -22.05 72.4 -22.0 72.45 -21.95 72.45 -21.9 72.55 -21.85 72.6 -21.75 72.6 -21.65 72.55 -21.6 72.55 -21.6 Q72.5 -21.6 72.5 -21.7 L72.5 -21.75 72.45 -21.75 72.45 -21.8 72.4 -21.8 72.4 -21.85 72.3 -21.9 72.2 -21.9 72.15 -21.85 72.1 -21.8 72.1 -21.7 72.05 -21.6 72.0 -21.55 71.95 -21.5 71.9 -21.45 71.85 -21.45 71.75 -21.45 71.7 -21.45 71.7 -21.5 71.75 -21.55 71.85 -21.65 71.8 -21.65 71.75 -21.7 71.7 -21.7 71.6 -21.65 71.6 -21.65 71.6 -21.7 71.6 -21.75 71.6 -21.85 Q71.55 -21.9 71.55 -21.9 L71.6 -21.9 71.65 -21.9 71.7 -21.9 71.75 -21.9 71.8 -21.85 71.9 -21.8 71.95 -21.8 71.95 -21.85 71.95 -21.95 72.1 -21.95 72.15 -22.0 72.15 -22.1 72.05 -22.2 72.0 -22.25 Q71.95 -22.25 71.95 -22.25 L71.9 -22.3 71.9 -22.35 72.05 -22.35 M72.85 -21.2 L72.8 -21.2 72.8 -21.25 72.9 -21.35 72.95 -21.35 72.9 -21.4 72.85 -21.45 72.8 -21.5 72.75 -21.5 72.7 -21.45 72.7 -21.45 72.65 -21.4 72.65 -21.5 72.65 -21.55 72.65 -21.6 72.7 -21.6 72.95 -21.5 73.0 -21.5 73.05 -21.6 73.1 -21.7 73.2 -21.75 73.25 -21.75 73.2 -21.9 73.1 -21.95 73.1 -21.95 73.05 -21.95 73.0 -22.0 73.0 -22.0 73.1 -22.05 73.2 -21.95 73.3 -21.9 73.3 -21.9 73.35 -21.85 73.4 -21.8 73.45 -21.75 73.5 -21.7 73.5 -21.65 73.5 -21.6 73.55 -21.6 73.6 -21.55 73.6 -21.5 73.6 -21.4 73.6 -21.35 73.55 -21.3 73.55 -21.3 Q73.5 -21.3 73.5 -21.35 L73.45 -21.5 73.45 -21.55 73.35 -21.6 73.25 -21.6 73.2 -21.55 73.15 -21.5 73.1 -21.45 73.1 -21.35 72.95 -21.25 72.9 -21.25 72.85 -21.2 M71.4 -22.0 L71.5 -22.05 71.55 -22.0 71.55 -22.0 71.45 -22.0 71.45 -22.0 71.4 -22.0" fill="#f7f7e7" fill-rule="evenodd" stroke="none"/>
  </g>
</svg>
