<?xml version="1.0" encoding="UTF-8" standalone="no"?>
<svg xmlns:xlink="http://www.w3.org/1999/xlink" height="2.6px" width="2.6px" xmlns="http://www.w3.org/2000/svg">
  <g transform="matrix(1.0, 0.0, 0.0, 1.0, -71.8, 23.2)">
    <path d="M74.4 -22.15 L74.4 -22.1 74.4 -22.15 M73.65 -22.4 L73.6 -22.4 73.7 -22.45 73.7 -22.4 73.7 -22.4 73.6 -22.4 73.65 -22.4 M73.65 -22.75 L73.65 -22.75 73.65 -22.75 73.6 -22.7 73.6 -22.7 73.6 -22.75 73.65 -22.8 73.65 -22.75 M73.9 -22.75 L73.9 -22.7 73.85 -22.7 73.85 -22.75 73.9 -22.8 73.95 -22.8 73.95 -22.75 73.9 -22.75 M73.2 -22.45 L73.2 -22.45 73.2 -22.45 73.25 -22.45 73.25 -22.45 73.2 -22.45 M73.3 -22.5 L73.3 -22.5 73.25 -22.55 73.25 -22.55 73.3 -22.55 73.3 -22.5 M73.25 -22.9 L73.3 -22.9 73.3 -22.85 73.25 -22.85 73.25 -22.85 73.25 -22.9 M73.25 -23.1 L73.2 -23.1 73.2 -23.15 73.25 -23.2 73.25 -23.15 73.25 -23.1 M74.15 -22.25 L74.15 -22.25 74.1 -22.25 74.1 -22.25 74.15 -22.25 74.15 -22.25 74.2 -22.25 74.15 -22.25 M74.1 -21.9 L74.15 -21.9 74.15 -21.95 74.15 -21.9 74.1 -21.9 M74.2 -21.75 L74.2 -21.8 74.25 -21.8 74.25 -21.75 74.2 -21.75 M74.35 -21.6 L74.35 -21.65 74.4 -21.65 74.4 -21.6 74.35 -21.6 M74.2 -21.5 L74.2 -21.45 74.15 -21.45 Q74.1 -21.45 74.15 -21.5 L74.2 -21.5 74.2 -21.5 M74.0 -21.05 L74.05 -21.0 74.05 -20.95 Q74.0 -20.95 74.0 -21.0 L73.95 -21.0 73.95 -20.95 73.9 -21.0 73.9 -21.05 73.95 -21.05 73.95 -21.05 74.0 -21.05 M73.5 -22.05 L73.5 -22.05 73.55 -22.05 73.55 -22.05 73.55 -22.0 73.5 -22.0 73.5 -22.0 73.5 -22.05 M73.35 -21.5 L73.3 -21.5 73.3 -21.55 73.35 -21.55 73.35 -21.5 M74.35 -21.0 L74.35 -21.0 74.3 -21.0 74.35 -21.0 74.35 -21.0 M73.2 -20.9 L73.2 -20.85 73.15 -20.8 Q73.1 -20.8 73.1 -20.8 L73.15 -20.85 73.15 -20.85 73.1 -20.9 73.15 -20.9 73.15 -20.95 73.2 -20.95 73.2 -20.9 73.2 -20.9 M73.45 -20.6 L73.4 -20.6 73.4 -20.6 73.35 -20.65 73.4 -20.65 73.4 -20.65 73.45 -20.65 73.45 -20.6 M73.45 -21.25 L73.45 -21.3 73.45 -21.25 73.45 -21.25 73.4 -21.25 73.45 -21.25 M73.15 -21.2 L73.15 -21.15 73.1 -21.1 73.1 -21.15 73.05 -21.15 73.1 -21.15 73.15 -21.2 M74.15 -20.95 L74.15 -20.95 74.1 -20.95 74.15 -20.95 74.15 -20.95" fill="#421818" fill-rule="evenodd" stroke="none"/>
    <path d="M72.2 -22.3 L72.25 -22.25 72.35 -22.2 72.4 -22.2 72.45 -22.2 72.5 -22.15 72.5 -22.15 72.45 -22.1 72.35 -22.05 72.35 -22.0 72.3 -21.95 72.2 -21.9 72.25 -21.8 72.3 -21.75 72.25 -21.7 72.25 -21.6 72.3 -21.55 72.2 -21.55 72.15 -21.55 72.1 -21.55 72.05 -21.55 72.05 -21.55 72.1 -21.6 72.05 -21.6 72.05 -21.6 72.0 -21.6 72.0 -21.6 71.95 -21.6 71.95 -21.65 72.0 -21.65 72.05 -21.7 72.05 -21.85 72.0 -21.9 72.05 -21.95 72.05 -21.95 72.1 -21.85 72.15 -21.8 72.15 -21.8 72.15 -21.9 72.15 -21.95 72.15 -21.95 72.2 -22.0 72.2 -22.0 72.25 -22.0 72.3 -22.05 72.35 -22.1 72.35 -22.1 72.3 -22.15 72.1 -22.25 72.0 -22.25 72.1 -22.3 72.2 -22.3 M72.65 -21.9 L72.65 -21.95 72.7 -21.95 72.7 -21.95 72.8 -21.9 72.8 -21.75 72.8 -21.7 72.85 -21.7 72.85 -21.65 72.9 -21.55 72.9 -21.4 72.85 -21.3 72.8 -21.35 Q72.8 -21.35 72.8 -21.4 L72.85 -21.45 72.8 -21.55 72.75 -21.65 72.7 -21.65 72.65 -21.65 72.6 -21.7 72.65 -21.7 72.65 -21.75 72.7 -21.8 72.65 -21.85 72.65 -21.9 M71.9 -21.75 L71.9 -21.6 71.85 -21.55 71.8 -21.55 71.8 -21.65 71.85 -21.75 71.85 -21.8 71.8 -21.85 71.85 -21.9 71.85 -21.9 71.9 -21.8 71.9 -21.75 M73.55 -21.65 L73.6 -21.65 73.65 -21.65 73.7 -21.6 73.7 -21.55 73.7 -21.45 Q73.65 -21.4 73.65 -21.4 L73.6 -21.45 73.6 -21.45 73.65 -21.5 73.65 -21.55 73.6 -21.6 73.55 -21.65 M73.4 -21.9 L73.35 -21.85 73.35 -21.75 73.35 -21.65 73.3 -21.6 73.25 -21.55 73.25 -21.4 Q73.25 -21.3 73.15 -21.3 L73.0 -21.25 73.0 -21.3 73.0 -21.35 72.95 -21.35 72.95 -21.4 72.95 -21.45 73.0 -21.5 73.0 -21.6 Q73.0 -21.6 73.0 -21.65 L73.0 -21.65 73.0 -21.6 73.05 -21.55 73.1 -21.5 Q73.15 -21.5 73.2 -21.55 L73.2 -21.6 73.15 -21.6 73.1 -21.6 73.1 -21.6 73.1 -21.65 73.15 -21.7 73.2 -21.75 73.25 -21.75 Q73.3 -21.75 73.3 -21.75 L73.3 -21.85 73.1 -21.95 73.05 -21.95 Q72.95 -21.95 73.0 -22.0 L73.0 -22.05 73.05 -22.05 73.1 -22.05 73.2 -22.0 73.25 -22.0 73.35 -21.95 73.35 -21.95 73.4 -21.95 73.4 -21.9" fill="#f7f7e7" fill-rule="evenodd" stroke="none"/>
  </g>
</svg>
