<?xml version="1.0" encoding="UTF-8" standalone="no"?>
<svg xmlns:xlink="http://www.w3.org/1999/xlink" height="2.1px" width="2.0px" xmlns="http://www.w3.org/2000/svg">
  <g transform="matrix(1.0, 0.0, 0.0, 1.0, -14.75, 9.4)">
    <path d="M16.05 -8.75 L16.0 -8.75 16.05 -8.75 16.05 -8.75 16.05 -8.75 M15.8 -9.35 L15.85 -9.35 15.9 -9.4 15.9 -9.35 15.85 -9.35 15.85 -9.35 15.8 -9.35 M16.45 -8.3 L16.45 -8.3 16.5 -8.3 16.5 -8.3 16.45 -8.3 M16.45 -8.4 L16.45 -8.35 Q16.4 -8.35 16.4 -8.35 L16.35 -8.35 16.4 -8.4 16.45 -8.45 16.45 -8.4 M16.35 -9.2 L16.35 -9.2 16.4 -9.15 16.4 -9.15 16.4 -9.1 16.35 -9.1 16.3 -9.15 16.3 -9.15 16.35 -9.2 M16.65 -9.3 L16.7 -9.35 16.7 -9.3 16.65 -9.25 16.65 -9.25 16.65 -9.3 M16.25 -7.3 L16.25 -7.35 16.3 -7.35 16.3 -7.3 16.25 -7.3 16.25 -7.3 M16.55 -7.55 L16.6 -7.55 16.65 -7.55 16.7 -7.55 16.7 -7.55 16.65 -7.55 16.65 -7.55 16.6 -7.55 16.55 -7.55 M16.45 -7.7 L16.45 -7.65 16.4 -7.65 16.4 -7.7 16.45 -7.7 16.45 -7.7 M16.4 -7.95 L16.4 -7.9 16.35 -7.85 16.3 -7.9 16.35 -7.95 16.4 -7.95 16.4 -7.95" fill="#421818" fill-rule="evenodd" stroke="none"/>
    <path d="M14.85 -8.2 L14.85 -8.25 14.9 -8.3 15.0 -8.3 15.1 -8.3 15.15 -8.3 15.25 -8.25 15.25 -8.2 15.3 -8.15 15.25 -8.05 15.2 -8.0 15.1 -7.95 15.1 -7.9 15.15 -7.85 15.15 -7.8 15.2 -7.7 15.15 -7.55 15.05 -7.5 15.0 -7.5 15.0 -7.55 15.0 -7.6 14.95 -7.7 14.95 -7.75 15.0 -7.75 15.05 -7.7 15.1 -7.65 15.1 -7.7 15.05 -7.8 Q15.0 -7.85 15.0 -7.9 L15.0 -7.95 15.1 -8.0 15.15 -8.05 15.2 -8.15 15.15 -8.15 15.1 -8.15 15.0 -8.15 14.85 -8.15 14.85 -8.2 M14.8 -7.75 L14.8 -7.75 14.85 -7.75 14.8 -7.7 14.75 -7.75 14.8 -7.75 M14.85 -7.65 L14.9 -7.65 14.9 -7.55 14.9 -7.45 14.85 -7.45 14.85 -7.5 14.85 -7.65 M15.9 -7.65 L15.9 -7.65 15.95 -7.6 15.95 -7.55 15.9 -7.45 15.8 -7.4 15.8 -7.45 15.85 -7.45 15.9 -7.55 15.9 -7.6 15.85 -7.65 15.9 -7.65 15.9 -7.65 M15.75 -7.75 L15.8 -7.75 15.85 -7.75 15.85 -7.7 15.8 -7.7 15.8 -7.7 15.75 -7.75 M15.6 -8.05 L15.7 -8.1 15.75 -8.05 15.8 -7.95 15.75 -7.85 Q15.75 -7.85 15.7 -7.85 L15.65 -7.85 15.65 -7.95 15.65 -8.05 15.6 -8.05 15.6 -8.05 M15.8 -8.15 L15.8 -8.15 15.85 -8.25 15.9 -8.3 16.0 -8.35 16.1 -8.35 16.2 -8.3 16.2 -8.3 16.25 -8.3 16.3 -8.15 16.25 -8.05 16.2 -8.0 16.15 -7.95 16.1 -7.85 16.1 -7.85 16.15 -7.8 16.2 -7.75 16.2 -7.6 16.15 -7.55 16.0 -7.5 16.0 -7.5 16.0 -7.6 16.0 -7.7 16.05 -7.7 16.1 -7.75 16.05 -7.8 16.05 -7.9 Q16.05 -7.95 16.15 -8.05 L16.2 -8.15 16.2 -8.15 16.15 -8.2 16.1 -8.2 16.0 -8.15 15.8 -8.15 M16.6 -8.05 L16.65 -8.05 16.65 -8.05 16.7 -8.05 16.7 -8.0 16.75 -7.9 16.75 -7.85 16.65 -7.8 Q16.65 -7.8 16.6 -7.85 L16.6 -7.9 16.65 -7.9 16.65 -7.95 16.65 -8.0 16.6 -8.0 Q16.55 -8.0 16.55 -8.05 L16.6 -8.05" fill="#f7f7e7" fill-rule="evenodd" stroke="none"/>
  </g>
</svg>
