<?xml version="1.0" encoding="UTF-8" standalone="no"?>
<svg xmlns:xlink="http://www.w3.org/1999/xlink" height="1.6px" width="1.65px" xmlns="http://www.w3.org/2000/svg">
  <g transform="matrix(1.0, 0.0, 0.0, 1.0, -16.0, 7.55)">
    <path d="M16.15 -6.65 L16.15 -6.6 16.1 -6.65 16.1 -6.7 16.2 -6.7 16.2 -6.7 16.25 -6.65 16.2 -6.65 16.2 -6.65 16.15 -6.65 M16.15 -6.1 L16.15 -6.15 16.2 -6.15 16.2 -6.15 16.25 -6.15 16.25 -6.2 16.25 -6.2 16.3 -6.15 16.3 -6.15 16.35 -6.15 16.35 -6.15 16.35 -6.15 16.3 -6.1 16.25 -6.05 16.2 -6.05 16.2 -6.1 16.15 -6.1 M16.1 -6.1 L16.1 -6.05 16.05 -6.0 16.0 -5.95 16.0 -6.0 16.05 -6.05 16.05 -6.05 16.1 -6.1 M17.55 -6.55 L17.6 -6.55 17.65 -6.45 17.6 -6.4 17.55 -6.35 17.5 -6.35 17.5 -6.4 17.55 -6.4 17.55 -6.45 17.6 -6.45 17.6 -6.5 17.55 -6.5 17.55 -6.55 M17.25 -6.6 L17.3 -6.55 17.25 -6.5 17.2 -6.45 17.15 -6.4 17.1 -6.3 17.05 -6.35 17.05 -6.45 17.1 -6.5 17.2 -6.5 17.25 -6.55 17.2 -6.6 17.2 -6.65 17.25 -6.65 17.25 -6.6 M16.85 -5.95 L16.85 -5.95 16.8 -6.0 16.85 -6.0 16.9 -6.0 16.9 -6.05 16.9 -5.95 16.85 -5.95 M17.15 -6.1 L17.2 -6.15 17.2 -6.15 17.15 -6.05 17.05 -6.0 16.95 -6.05 Q16.95 -6.05 16.95 -6.1 L16.95 -6.15 17.0 -6.15 17.0 -6.1 17.05 -6.05 17.1 -6.1 17.05 -6.1 17.05 -6.15 17.1 -6.15 Q17.1 -6.1 17.15 -6.1 M16.75 -6.5 L16.8 -6.5 16.8 -6.4 16.75 -6.35 Q16.7 -6.35 16.65 -6.4 L16.75 -6.45 16.75 -6.5 M16.95 -6.65 L17.0 -6.65 17.05 -6.7 17.1 -6.65 17.1 -6.65 17.05 -6.65 17.0 -6.6 16.95 -6.6 16.95 -6.55 16.9 -6.6 16.9 -6.65 16.95 -6.65 M16.35 -6.7 L16.4 -6.65 16.4 -6.65 16.45 -6.6 16.4 -6.5 16.3 -6.45 16.25 -6.45 16.25 -6.4 16.2 -6.35 16.2 -6.4 16.3 -6.5 16.35 -6.55 16.35 -6.6 16.3 -6.65 16.35 -6.65 16.35 -6.7" fill="#f7f7e7" fill-rule="evenodd" stroke="none"/>
    <path d="M17.35 -7.4 L17.4 -7.4 17.4 -7.4 17.35 -7.35 17.35 -7.4 M17.25 -6.8 L17.25 -6.8 17.25 -6.8 17.25 -6.8 17.25 -6.8 M17.6 -7.5 L17.6 -7.5 17.55 -7.5 17.6 -7.5 17.6 -7.5 M16.85 -7.5 L16.85 -7.5 16.9 -7.55 16.9 -7.5 16.9 -7.5 16.85 -7.5 M17.4 -6.75 L17.4 -6.75 17.4 -6.75 17.35 -6.75 17.4 -6.75 17.4 -6.8 17.4 -6.8 17.4 -6.75 M17.0 -7.3 L17.0 -7.25 17.0 -7.3 M17.35 -6.35 L17.4 -6.35 17.4 -6.3 17.35 -6.35 17.35 -6.35 M17.55 -6.1 L17.55 -6.05 17.5 -6.05 17.5 -6.0 17.5 -6.05 17.55 -6.1 17.55 -6.1" fill="#421818" fill-rule="evenodd" stroke="none"/>
  </g>
</svg>
