<?xml version="1.0" encoding="UTF-8" standalone="no"?>
<svg xmlns:xlink="http://www.w3.org/1999/xlink" height="6.2px" width="6.2px" xmlns="http://www.w3.org/2000/svg">
  <g transform="matrix(1.0, 0.0, 0.0, 1.0, 3.1, 3.1)">
    <path d="M0.55 -0.25 L0.45 0.05 0.35 0.45 -0.05 0.35 -0.1 0.35 -0.65 0.3 -0.6 -0.05 -0.45 -0.85 -0.4 -1.05 -0.25 -1.7 0.0 -1.75 Q0.7 -1.75 1.2 -1.2 1.45 -1.0 1.55 -0.7 L1.7 -0.25 1.55 -0.2 1.5 -0.2 1.45 -0.15 1.3 -0.05 1.05 0.05 0.9 -0.2 Q0.7 -0.35 0.6 -0.35 L0.55 -0.35 0.55 -0.25 M2.0 0.35 L2.05 0.0 2.05 -0.05 Q2.05 -0.45 1.9 -0.8 1.75 -1.15 1.45 -1.45 0.85 -2.1 0.0 -2.1 -0.85 -2.1 -1.45 -1.45 L-1.8 -1.05 -1.85 -1.1 Q-1.85 -1.2 -1.65 -1.45 -1.45 -1.75 -1.45 -1.8 L-1.45 -1.85 -1.5 -1.9 Q-0.85 -2.4 0.0 -2.4 1.0 -2.4 1.7 -1.7 2.05 -1.35 2.25 -0.9 2.4 -0.5 2.4 0.0 L2.35 0.35 2.25 0.35 2.2 0.35 2.15 0.35 2.0 0.35 M-1.9 -2.45 Q-1.1 -3.1 0.0 -3.1 1.25 -3.1 2.15 -2.2 2.65 -1.7 2.9 -1.15 3.1 -0.6 3.1 0.0 L3.05 0.45 2.9 0.45 2.85 0.45 Q2.8 0.45 2.8 0.45 L2.75 0.45 2.6 0.45 2.65 0.0 2.65 -0.05 Q2.65 -0.55 2.45 -1.0 2.25 -1.5 1.85 -1.9 1.1 -2.65 0.0 -2.65 -1.1 -2.65 -1.9 -1.9 L-2.3 -1.35 -2.35 -1.45 -2.1 -1.9 Q-1.85 -2.25 -1.85 -2.3 L-1.9 -2.4 -1.9 -2.45" fill="#497fde" fill-rule="evenodd" stroke="none"/>
    <path d="M-0.6 -0.05 L-0.9 0.1 Q-1.05 0.2 -1.05 0.5 -1.05 0.75 -0.7 1.0 -0.35 1.2 0.0 1.2 0.3 1.2 0.55 0.95 L0.7 0.8 Q0.85 0.6 0.85 0.3 0.85 0.05 0.75 -0.05 L0.55 -0.25 0.55 -0.35 0.6 -0.35 Q0.7 -0.35 0.9 -0.2 L1.05 0.05 1.3 -0.05 1.45 -0.15 1.45 0.0 1.4 0.3 1.25 0.6 1.15 0.8 1.2 0.95 1.3 1.1 1.2 1.2 Q0.7 1.7 0.0 1.7 -0.7 1.7 -1.2 1.2 -1.75 0.7 -1.75 0.0 -1.75 -0.6 -1.35 -1.05 L-1.35 -1.05 -1.1 -0.75 -1.0 -0.8 -0.8 -0.85 -0.65 -0.85 -0.45 -0.85 -0.6 -0.05 M-2.0 -0.65 L-2.05 -0.15 -2.05 -0.15 -2.1 0.1 Q-2.1 0.35 -1.85 1.0 -1.6 1.65 -1.4 1.75 -1.05 1.95 -0.65 2.1 L0.25 2.2 0.75 2.15 Q1.15 2.1 1.3 1.95 L1.6 1.75 Q0.95 2.4 0.0 2.4 -0.8 2.4 -1.4 1.95 L-1.7 1.7 -2.05 1.3 Q-2.4 0.75 -2.4 0.0 L-2.4 0.0 Q-2.4 -0.45 -2.25 -0.85 L-2.0 -0.65 M2.1 2.25 Q1.2 3.1 0.0 3.1 -1.05 3.1 -1.8 2.5 L-2.2 2.15 -2.6 1.7 Q-3.1 0.95 -3.1 0.0 L-3.1 0.0 Q-3.1 -0.6 -2.9 -1.1 L-2.55 -0.8 Q-2.65 -0.55 -2.65 -0.2 L-2.7 0.15 Q-2.7 0.5 -2.4 1.3 -2.05 2.15 -1.8 2.25 -1.35 2.55 -0.8 2.7 L0.35 2.85 0.95 2.8 Q1.45 2.7 1.7 2.55 L2.1 2.25" fill="#2534c4" fill-rule="evenodd" stroke="none"/>
    <path d="M0.55 -0.25 L0.75 -0.05 Q0.85 0.05 0.85 0.3 0.85 0.6 0.7 0.8 L0.55 0.95 Q0.3 1.2 0.0 1.2 -0.35 1.2 -0.7 1.0 -1.05 0.75 -1.05 0.5 -1.05 0.2 -0.9 0.1 L-0.6 -0.05 -0.65 0.3 -0.1 0.35 -0.05 0.35 0.35 0.45 0.45 0.05 0.55 -0.25 M-0.45 -0.85 L-0.65 -0.85 -0.8 -0.85 -1.0 -0.8 -1.1 -0.75 -1.35 -1.05 -1.35 -1.05 -1.2 -1.2 Q-0.8 -1.65 -0.25 -1.7 L-0.4 -1.05 -0.45 -0.85 M1.3 1.1 L1.2 0.95 1.15 0.8 1.25 0.6 1.4 0.3 1.45 0.0 1.45 -0.15 1.5 -0.2 1.55 -0.2 1.7 -0.25 1.7 0.0 Q1.7 0.5 1.4 0.95 L1.3 1.1 M2.0 0.35 L2.15 0.35 2.2 0.35 2.25 0.35 2.35 0.35 2.35 0.5 Q2.2 1.2 1.7 1.7 L1.6 1.75 1.3 1.95 Q1.15 2.1 0.75 2.15 L0.25 2.2 -0.65 2.1 Q-1.05 1.95 -1.4 1.75 -1.6 1.65 -1.85 1.0 -2.1 0.35 -2.1 0.1 L-2.05 -0.15 -2.1 0.0 Q-2.1 0.85 -1.45 1.45 -0.85 2.05 0.0 2.05 L0.25 2.05 0.65 1.95 Q1.1 1.8 1.45 1.45 L1.5 1.4 Q1.9 0.95 2.0 0.45 L2.0 0.35 M-1.5 -1.9 L-1.45 -1.85 -1.45 -1.8 Q-1.45 -1.75 -1.65 -1.45 -1.85 -1.2 -1.85 -1.1 L-1.8 -1.05 -2.0 -0.65 -2.25 -0.85 Q-2.1 -1.35 -1.7 -1.7 L-1.5 -1.9 M3.05 0.45 L3.0 0.65 Q2.85 1.5 2.15 2.15 L2.1 2.25 1.7 2.55 Q1.45 2.7 0.95 2.8 L0.35 2.85 -0.8 2.7 Q-1.35 2.55 -1.8 2.25 -2.05 2.15 -2.4 1.3 -2.7 0.5 -2.7 0.15 L-2.65 -0.2 -2.65 0.0 Q-2.65 1.1 -1.9 1.85 -1.1 2.65 0.0 2.65 L0.3 2.6 0.8 2.5 Q1.4 2.35 1.85 1.85 L1.95 1.75 Q2.45 1.25 2.6 0.6 L2.6 0.45 2.75 0.45 2.8 0.45 Q2.8 0.45 2.85 0.45 L2.9 0.45 3.05 0.45 M-2.9 -1.1 Q-2.7 -1.7 -2.2 -2.2 L-1.9 -2.45 -1.9 -2.4 -1.85 -2.3 Q-1.85 -2.25 -2.1 -1.9 L-2.35 -1.45 -2.3 -1.35 Q-2.45 -1.1 -2.55 -0.8 L-2.9 -1.1" fill="#6277a6" fill-rule="evenodd" stroke="none"/>
  </g>
</svg>
