<?xml version="1.0" encoding="UTF-8" standalone="no"?>
<svg xmlns:xlink="http://www.w3.org/1999/xlink" height="2.15px" width="2.6px" xmlns="http://www.w3.org/2000/svg">
  <g transform="matrix(1.0, 0.0, 0.0, 1.0, -7.15, 9.75)">
    <path d="M7.25 -8.4 L7.2 -8.4 7.2 -8.4 7.15 -8.4 7.25 -8.45 7.25 -8.4 M7.5 -8.75 L7.5 -8.8 7.65 -8.85 7.7 -8.85 7.75 -8.8 7.75 -8.75 7.8 -8.7 7.85 -8.75 7.9 -8.7 7.95 -8.65 8.0 -8.65 8.0 -8.6 8.05 -8.55 8.1 -8.55 8.15 -8.55 8.15 -8.45 8.2 -8.4 8.2 -8.35 Q8.15 -8.35 8.15 -8.35 8.15 -8.35 8.15 -8.4 L8.1 -8.45 8.1 -8.45 8.05 -8.45 8.0 -8.5 8.0 -8.5 7.9 -8.55 7.85 -8.5 7.8 -8.45 7.75 -8.4 7.8 -8.35 7.8 -8.3 7.75 -8.2 7.75 -8.15 7.7 -8.1 7.65 -8.1 7.6 -8.05 7.55 -8.05 7.55 -8.05 7.5 -8.05 7.5 -8.05 7.55 -8.1 7.6 -8.2 7.55 -8.25 7.55 -8.25 7.5 -8.25 7.45 -8.2 Q7.4 -8.2 7.4 -8.2 L7.4 -8.2 7.4 -8.2 7.4 -8.25 7.35 -8.3 7.35 -8.35 7.3 -8.35 7.35 -8.35 7.35 -8.4 7.4 -8.4 7.45 -8.4 7.5 -8.4 7.55 -8.35 7.6 -8.35 7.6 -8.35 7.65 -8.4 7.65 -8.5 7.7 -8.55 7.75 -8.6 7.7 -8.65 7.65 -8.7 7.6 -8.7 7.55 -8.75 7.5 -8.75 M8.5 -8.1 L8.5 -8.1 8.45 -8.1 8.45 -8.1 8.5 -8.2 8.55 -8.25 8.5 -8.3 8.45 -8.3 8.4 -8.3 8.35 -8.3 8.35 -8.25 8.3 -8.2 8.3 -8.25 8.3 -8.3 8.25 -8.35 8.3 -8.35 8.3 -8.35 8.4 -8.35 8.5 -8.35 8.55 -8.35 8.6 -8.45 8.6 -8.55 8.65 -8.6 8.7 -8.6 8.65 -8.7 8.6 -8.75 8.55 -8.75 8.5 -8.75 8.45 -8.75 8.45 -8.8 8.5 -8.8 8.6 -8.8 8.7 -8.75 8.7 -8.75 8.75 -8.7 Q8.75 -8.7 8.8 -8.7 L8.85 -8.7 8.9 -8.7 8.9 -8.6 8.95 -8.6 8.95 -8.55 9.0 -8.55 9.05 -8.55 9.05 -8.5 9.1 -8.45 9.1 -8.4 9.1 -8.3 9.05 -8.3 9.05 -8.3 9.0 -8.35 8.95 -8.45 8.95 -8.45 8.9 -8.5 8.8 -8.5 8.75 -8.5 8.7 -8.45 8.65 -8.4 8.65 -8.3 8.65 -8.25 Q8.65 -8.2 8.6 -8.15 L8.55 -8.1 8.5 -8.1" fill="#f7f7e7" fill-rule="evenodd" stroke="none"/>
    <path d="M9.15 -9.35 L9.15 -9.35 9.2 -9.35 9.2 -9.3 9.15 -9.3 9.15 -9.3 9.1 -9.3 9.15 -9.35 M9.55 -9.3 L9.55 -9.3 9.5 -9.25 9.5 -9.25 9.5 -9.3 9.5 -9.3 9.55 -9.3 9.55 -9.3 M9.4 -9.0 L9.35 -9.0 9.35 -9.0 9.4 -9.05 9.4 -9.05 9.4 -9.0 M9.25 -9.2 L9.3 -9.2 9.3 -9.2 9.3 -9.15 9.25 -9.15 9.2 -9.15 9.25 -9.2 9.25 -9.2 M9.3 -8.85 L9.35 -8.9 9.35 -8.9 9.4 -8.85 9.35 -8.85 9.35 -8.85 9.3 -8.85 M9.6 -8.85 L9.6 -8.9 9.65 -8.9 9.65 -8.85 9.6 -8.85 9.55 -8.85 9.55 -8.85 9.6 -8.85 M9.4 -8.7 L9.5 -8.65 9.5 -8.65 9.55 -8.65 9.55 -8.6 9.5 -8.6 9.45 -8.65 9.45 -8.65 9.4 -8.65 9.4 -8.7 M8.75 -9.45 L8.75 -9.45 8.8 -9.4 8.8 -9.35 8.75 -9.35 Q8.75 -9.35 8.75 -9.4 L8.75 -9.45 8.75 -9.45 M8.65 -9.55 L8.65 -9.55 8.6 -9.55 8.6 -9.5 8.55 -9.5 8.55 -9.5 8.6 -9.55 8.55 -9.55 8.6 -9.55 8.6 -9.55 8.65 -9.55 8.65 -9.55 M8.35 -9.2 L8.4 -9.2 8.4 -9.2 8.4 -9.2 8.35 -9.15 8.3 -9.15 8.25 -9.15 8.25 -9.15 8.3 -9.15 8.3 -9.2 8.35 -9.2 M8.4 -9.4 L8.4 -9.35 8.4 -9.35 8.35 -9.35 8.4 -9.4 8.4 -9.4 8.4 -9.4 M8.3 -9.5 L8.3 -9.5 8.25 -9.55 8.25 -9.55 8.3 -9.6 8.3 -9.55 8.3 -9.5 M8.3 -9.75 L8.3 -9.75 8.35 -9.7 8.3 -9.7 8.3 -9.7 8.3 -9.7 8.25 -9.7 8.3 -9.75 8.3 -9.75 M8.55 -8.1 L8.6 -8.1 8.65 -8.1 8.65 -8.05 8.6 -8.05 8.6 -8.05 8.55 -8.05 8.55 -8.05 8.5 -8.1 8.55 -8.1 M8.55 -7.75 L8.6 -7.8 8.6 -7.85 8.6 -7.9 8.65 -7.85 8.65 -7.8 8.7 -7.75 8.7 -7.7 8.65 -7.65 8.65 -7.65 8.6 -7.7 8.55 -7.75 M8.85 -8.25 L8.85 -8.25 8.9 -8.2 8.85 -8.2 8.85 -8.2 8.8 -8.2 8.8 -8.2 8.75 -8.25 8.75 -8.25 8.8 -8.25 8.85 -8.25 8.85 -8.25 M8.75 -7.95 L8.75 -7.9 8.75 -7.9 8.7 -7.95 8.7 -7.95 8.75 -7.95 M9.0 -7.6 L8.95 -7.6 8.95 -7.6 8.9 -7.65 8.9 -7.7 8.9 -7.7 8.95 -7.65 8.95 -7.65 9.0 -7.65 9.0 -7.6 M9.0 -7.7 L9.0 -7.7 8.95 -7.7 8.95 -7.7 9.0 -7.7 9.0 -7.7 M9.75 -8.25 L9.75 -8.2 9.75 -8.2 9.7 -8.2 9.65 -8.25 9.65 -8.25 9.7 -8.25 9.75 -8.25 M9.45 -8.55 L9.4 -8.55 9.4 -8.55 9.4 -8.55 9.45 -8.55 9.45 -8.55 M9.3 -8.1 L9.35 -8.05 9.35 -8.05 9.3 -8.05 9.3 -8.05 9.25 -8.1 9.25 -8.1 9.25 -8.1 9.3 -8.1 M9.4 -8.2 L9.45 -8.2 9.45 -8.15 9.45 -8.15 9.4 -8.15 9.4 -8.15 9.35 -8.15 9.3 -8.15 Q9.3 -8.2 9.35 -8.2 L9.4 -8.2 M9.45 -8.1 L9.45 -8.1 9.55 -8.1 9.55 -8.05 9.55 -8.05 9.5 -8.05 9.5 -8.05 9.45 -8.1" fill="#421818" fill-rule="evenodd" stroke="none"/>
  </g>
</svg>
