<?xml version="1.0" encoding="UTF-8" standalone="no"?>
<svg xmlns:xlink="http://www.w3.org/1999/xlink" height="1.35px" width="1.4px" xmlns="http://www.w3.org/2000/svg">
  <g transform="matrix(1.0, 0.0, 0.0, 1.0, -8.25, 10.2)">
    <path d="M9.65 -9.35 L9.65 -9.25 9.6 -9.2 9.55 -9.2 9.55 -9.25 9.6 -9.25 9.6 -9.3 9.65 -9.3 9.6 -9.35 9.6 -9.35 9.65 -9.35 M9.3 -9.35 L9.3 -9.4 9.3 -9.45 9.35 -9.45 9.35 -9.45 9.4 -9.35 9.35 -9.35 9.3 -9.3 9.25 -9.2 9.2 -9.15 9.2 -9.2 9.2 -9.3 9.25 -9.3 9.3 -9.35 9.3 -9.35 M9.2 -9.45 L9.25 -9.45 Q9.2 -9.45 9.2 -9.45 L9.15 -9.45 9.1 -9.4 9.1 -9.4 9.05 -9.45 9.05 -9.45 9.1 -9.45 9.15 -9.45 9.15 -9.45 9.2 -9.45 M9.1 -9.0 L9.15 -9.0 9.2 -8.95 9.2 -9.0 9.15 -9.0 9.2 -9.05 9.2 -9.0 9.25 -9.0 9.3 -9.05 9.3 -9.0 9.25 -8.95 Q9.2 -8.9 9.15 -8.9 9.15 -8.9 9.1 -8.95 9.1 -8.95 9.1 -9.0 L9.1 -9.05 9.1 -9.0 M8.4 -9.45 L8.45 -9.5 8.45 -9.5 8.5 -9.45 8.45 -9.45 8.45 -9.45 8.4 -9.45 8.4 -9.4 8.35 -9.45 8.4 -9.45 8.4 -9.45 M8.9 -9.35 L8.95 -9.35 8.95 -9.25 8.9 -9.2 Q8.85 -9.2 8.85 -9.25 L8.9 -9.25 8.9 -9.35 M8.65 -9.45 L8.65 -9.4 8.6 -9.3 8.55 -9.3 8.5 -9.25 8.5 -9.25 8.45 -9.2 8.45 -9.25 8.5 -9.3 8.6 -9.35 8.6 -9.4 8.55 -9.45 8.6 -9.45 8.6 -9.45 8.65 -9.45 M8.45 -9.05 L8.45 -9.0 8.5 -9.0 8.5 -9.05 8.5 -9.1 8.55 -9.0 8.6 -9.05 8.6 -9.05 8.6 -9.0 8.55 -9.0 8.5 -8.95 8.45 -8.95 8.45 -9.0 8.4 -9.0 8.4 -9.05 8.45 -9.05 M9.0 -8.9 L9.05 -8.9 9.05 -8.95 9.05 -8.9 9.0 -8.85 9.0 -8.85 9.0 -8.9 M8.25 -8.9 L8.3 -8.9 8.35 -8.95 8.35 -8.95 8.35 -9.0 8.35 -8.9 8.3 -8.9 Q8.25 -8.9 8.25 -8.9" fill="#f7f7e7" fill-rule="evenodd" stroke="none"/>
    <path d="M9.45 -10.1 L9.45 -10.1 9.45 -10.05 9.4 -10.05 9.4 -10.1 9.45 -10.1 9.45 -10.1 M9.6 -10.15 L9.6 -10.2 9.65 -10.15 9.65 -10.15 9.6 -10.15 9.6 -10.15 M9.15 -10.0 L9.15 -9.95 9.1 -9.95 9.15 -10.0 M9.05 -10.15 L9.05 -10.15 9.0 -10.15 9.0 -10.2 9.05 -10.2 9.05 -10.15 M9.35 -9.6 L9.35 -9.55 9.35 -9.6 9.35 -9.6 M9.45 -9.2 L9.45 -9.2 9.4 -9.2 9.45 -9.2 9.45 -9.2 M9.45 -9.55 L9.45 -9.5 9.45 -9.55 9.45 -9.6 9.45 -9.55 9.5 -9.55 9.5 -9.55 9.45 -9.55 M9.55 -8.9 L9.55 -8.95 9.55 -8.95 9.6 -9.0 9.6 -8.95 9.55 -8.95 9.55 -8.9" fill="#421818" fill-rule="evenodd" stroke="none"/>
  </g>
</svg>
