<?xml version="1.0" encoding="UTF-8" standalone="no"?>
<svg xmlns:xlink="http://www.w3.org/1999/xlink" height="5.5px" width="4.45px" xmlns="http://www.w3.org/2000/svg">
  <g transform="matrix(1.0, 0.0, 0.0, 1.0, -6.8, 11.8)">
    <path d="M9.95 -9.95 L9.95 -9.95 10.0 -9.95 10.05 -9.9 10.1 -9.9 Q10.05 -9.8 10.0 -9.8 9.9 -9.85 9.9 -9.85 L9.95 -9.95 M9.05 -10.75 L9.05 -10.6 9.0 -10.55 9.0 -10.45 8.95 -10.4 8.95 -10.35 8.9 -10.35 8.9 -10.5 9.0 -10.65 9.05 -10.75 M9.05 -10.0 L9.05 -9.95 9.0 -9.9 9.0 -9.9 9.05 -9.85 9.1 -9.9 9.15 -9.9 9.2 -9.9 9.2 -9.9 9.3 -9.9 9.35 -9.9 9.4 -9.85 Q9.4 -9.8 9.45 -9.8 L9.55 -9.75 9.55 -9.7 9.55 -9.65 9.6 -9.6 9.7 -9.6 9.75 -9.55 9.8 -9.55 9.85 -9.5 9.95 -9.45 10.0 -9.4 10.05 -9.35 10.0 -9.25 9.9 -9.2 9.8 -9.15 9.75 -9.1 9.8 -9.05 9.8 -9.0 9.75 -9.0 9.75 -8.95 9.75 -8.9 9.7 -8.9 9.65 -8.9 9.6 -8.9 9.6 -8.9 9.55 -8.9 9.45 -8.9 9.4 -8.95 9.4 -8.95 9.4 -8.85 9.4 -8.75 9.45 -8.65 9.5 -8.55 9.55 -8.5 9.55 -8.45 9.55 -8.4 9.5 -8.45 9.5 -8.45 9.45 -8.5 9.45 -8.45 9.4 -8.45 9.35 -8.4 9.3 -8.35 9.2 -8.3 9.2 -8.3 9.15 -8.3 9.15 -8.3 9.1 -8.3 9.1 -8.2 9.05 -8.2 9.0 -8.25 8.95 -8.3 8.85 -8.35 8.8 -8.35 8.75 -8.45 8.75 -8.5 8.7 -8.55 8.6 -8.6 8.6 -8.4 8.55 -8.35 8.5 -8.4 Q8.45 -8.5 8.3 -8.5 L8.2 -8.55 8.1 -8.65 8.1 -8.6 8.05 -8.6 8.0 -8.65 8.0 -8.65 7.95 -8.65 7.95 -8.65 7.95 -8.45 7.95 -8.25 8.0 -8.1 8.0 -8.05 7.95 -8.0 7.95 -8.1 7.9 -8.2 7.9 -8.2 7.8 -8.3 7.8 -8.4 7.75 -8.4 7.7 -8.4 7.7 -8.45 7.65 -8.5 7.65 -8.65 7.6 -8.75 7.55 -8.85 7.5 -8.95 7.55 -8.95 7.55 -9.0 7.6 -9.0 7.65 -9.05 7.7 -9.1 7.7 -9.2 7.65 -9.3 7.65 -9.4 7.7 -9.4 7.7 -9.4 7.75 -9.4 7.75 -9.4 7.8 -9.4 7.85 -9.45 7.85 -9.6 7.9 -9.6 7.9 -9.6 Q7.9 -9.55 7.9 -9.5 L8.0 -9.5 8.1 -9.55 8.1 -9.5 Q8.1 -9.45 8.1 -9.45 8.1 -9.45 8.2 -9.45 L8.2 -9.4 8.3 -9.35 8.3 -9.35 8.35 -9.35 8.35 -9.35 8.4 -9.4 8.45 -9.45 8.45 -9.45 8.5 -9.5 8.5 -9.45 8.65 -9.55 8.75 -9.6 8.75 -9.65 8.8 -9.75 8.9 -9.9 8.95 -9.9 9.05 -10.0" fill="#cbffff" fill-rule="evenodd" stroke="none"/>
    <path d="M7.55 -7.9 L7.55 -8.0 7.6 -8.0 7.6 -7.95 7.65 -7.95 7.7 -7.95 7.7 -7.85 7.75 -7.8 7.75 -7.8 7.8 -7.8 7.85 -7.8 7.9 -7.8 7.95 -7.85 7.95 -7.85 7.9 -7.9 7.9 -7.95 7.9 -8.05 7.8 -8.1 7.75 -8.1 7.75 -8.1 7.7 -8.15 7.65 -8.3 7.6 -8.55 7.6 -8.7 7.5 -8.75 7.45 -8.8 Q7.35 -8.85 7.35 -8.9 L7.4 -9.0 7.45 -9.0 7.55 -9.05 7.6 -9.1 7.55 -9.1 7.55 -9.15 7.6 -9.2 Q7.55 -9.2 7.5 -9.25 L7.45 -9.3 Q7.55 -9.3 7.55 -9.4 L7.55 -9.5 7.6 -9.5 7.7 -9.5 7.7 -9.6 7.75 -9.6 7.75 -9.6 7.8 -9.65 7.8 -9.75 7.8 -9.75 7.85 -9.75 7.9 -9.8 7.95 -9.85 7.95 -9.85 8.0 -9.85 8.0 -9.75 7.95 -9.75 8.0 -9.7 8.0 -9.65 8.05 -9.7 8.1 -9.75 8.15 -9.7 8.2 -9.7 8.25 -9.7 8.3 -9.7 8.25 -9.65 8.25 -9.65 8.3 -9.6 Q8.35 -9.6 8.4 -9.65 8.4 -9.7 8.5 -9.75 L8.55 -9.8 8.6 -9.85 8.7 -9.95 8.7 -9.85 8.75 -9.9 8.75 -9.85 8.75 -9.8 8.7 -9.8 8.85 -9.9 8.9 -9.95 8.9 -10.0 8.95 -10.05 8.95 -10.05 9.0 -10.1 9.05 -10.15 9.1 -10.2 9.15 -10.25 9.2 -10.25 9.2 -10.2 9.2 -10.2 9.2 -10.15 9.15 -10.1 9.15 -10.1 9.2 -10.1 9.2 -10.1 9.25 -10.1 9.3 -10.15 9.35 -10.15 9.35 -10.1 9.4 -10.1 9.4 -9.95 9.45 -9.95 9.45 -9.9 9.5 -9.9 9.55 -9.9 9.6 -9.85 9.7 -9.8 9.7 -9.8 9.75 -9.8 9.8 -9.75 9.75 -9.7 9.75 -9.7 9.8 -9.75 9.85 -9.75 9.9 -9.75 10.0 -9.7 10.05 -9.7 10.1 -9.65 10.15 -9.65 10.2 -9.7 10.25 -9.65 10.25 -9.65 10.2 -9.6 10.15 -9.6 10.1 -9.55 10.1 -9.55 10.15 -9.5 10.2 -9.45 10.25 -9.4 10.25 -9.3 10.3 -9.25 10.3 -9.2 10.4 -9.1 10.35 -9.1 10.25 -9.05 10.15 -9.1 10.05 -9.1 10.0 -9.1 9.95 -9.05 9.95 -9.0 9.95 -8.95 10.1 -8.85 10.2 -8.75 10.35 -8.7 10.3 -8.7 10.2 -8.7 10.15 -8.7 10.1 -8.7 10.05 -8.7 10.0 -8.7 9.9 -8.75 9.95 -8.7 9.85 -8.65 9.8 -8.65 9.75 -8.65 9.7 -8.65 9.65 -8.65 9.65 -8.6 9.6 -8.6 9.6 -8.6 9.55 -8.6 9.55 -8.55 9.6 -8.5 9.6 -8.45 9.65 -8.45 9.65 -8.4 9.7 -8.4 9.7 -8.35 9.75 -8.3 9.85 -8.15 9.75 -8.2 9.7 -8.25 9.65 -8.3 9.65 -8.3 9.6 -8.3 9.55 -8.3 9.55 -8.4 9.5 -8.4 9.5 -8.4 9.45 -8.35 9.5 -8.3 9.55 -8.25 9.5 -8.2 9.5 -8.1 9.55 -8.1 9.5 -8.05 9.45 -8.05 9.45 -8.0 9.5 -7.95 9.45 -7.95 Q9.45 -7.95 9.4 -7.95 L9.35 -7.95 9.35 -7.95 9.25 -7.95 9.2 -7.95 9.2 -7.95 9.15 -7.95 9.15 -7.85 9.15 -7.8 9.1 -7.75 9.05 -7.75 9.0 -7.75 8.95 -7.8 8.95 -7.85 8.85 -7.85 8.85 -7.9 Q8.85 -7.9 8.85 -7.95 L8.85 -7.95 8.8 -8.0 8.75 -8.0 Q8.75 -8.0 8.7 -8.05 L8.7 -8.1 8.65 -8.2 8.6 -8.25 8.5 -8.3 8.45 -8.3 8.4 -8.3 8.4 -8.3 8.35 -8.35 8.25 -8.45 8.2 -8.5 Q8.15 -8.5 8.05 -8.55 L8.0 -8.6 8.0 -8.5 8.0 -8.4 8.0 -8.4 8.05 -8.35 8.1 -8.3 8.1 -8.2 8.1 -8.15 8.1 -8.0 8.05 -7.9 8.0 -7.8 8.0 -7.75 7.95 -7.75 7.95 -7.7 7.9 -7.6 7.85 -7.65 7.75 -7.7 7.75 -7.7 7.7 -7.7 7.65 -7.75 7.6 -7.75 7.6 -7.8 7.55 -7.9 7.55 -7.9 M10.35 -9.85 L10.3 -9.8 10.25 -9.75 10.2 -9.75 10.05 -9.75 9.95 -9.8 9.9 -9.85 9.85 -9.85 9.85 -9.9 9.75 -9.95 9.8 -9.95 9.8 -9.95 9.85 -9.95 9.9 -9.95 9.95 -9.95 9.9 -9.85 Q9.9 -9.85 10.0 -9.8 10.05 -9.8 10.1 -9.9 10.15 -9.85 10.2 -9.85 L10.35 -9.85 M9.0 -10.75 L9.05 -10.8 9.05 -10.8 9.1 -10.85 9.15 -10.9 9.2 -10.9 9.3 -10.95 9.3 -10.95 9.4 -11.0 9.4 -11.0 9.5 -11.05 9.45 -11.0 9.45 -10.95 9.4 -10.95 9.35 -10.95 9.3 -10.9 9.2 -10.85 9.2 -10.7 9.15 -10.65 9.1 -10.6 9.1 -10.55 9.05 -10.45 9.0 -10.4 9.0 -10.3 8.95 -10.25 8.9 -10.2 8.85 -10.35 8.85 -10.45 8.85 -10.5 8.9 -10.55 8.95 -10.65 9.0 -10.7 9.0 -10.75 M8.75 -10.8 L8.75 -10.75 8.8 -10.7 8.85 -10.7 8.85 -10.65 8.8 -10.6 8.8 -10.55 8.8 -10.45 8.7 -10.35 8.65 -10.35 8.65 -10.25 8.6 -10.15 8.55 -10.1 8.45 -9.95 8.4 -9.95 8.45 -10.0 8.45 -10.25 8.5 -10.35 8.55 -10.4 8.55 -10.45 8.6 -10.5 8.65 -10.6 8.65 -10.7 8.7 -10.75 8.75 -10.8 8.75 -10.8 M9.05 -10.75 L9.0 -10.65 8.9 -10.5 8.9 -10.35 8.95 -10.35 8.95 -10.4 9.0 -10.45 9.0 -10.55 9.05 -10.6 9.05 -10.75 M8.75 -10.25 L8.75 -10.25 8.75 -10.35 8.8 -10.3 8.8 -10.25 8.8 -10.15 8.75 -10.15 8.75 -10.25 M8.2 -10.4 L8.2 -10.35 8.2 -10.2 8.15 -10.1 8.15 -10.05 8.2 -10.0 8.15 -9.9 8.1 -9.9 8.05 -9.95 7.95 -9.9 Q7.85 -9.8 7.8 -9.8 L7.8 -9.85 7.8 -9.9 7.9 -9.95 7.95 -10.05 8.0 -10.15 8.05 -10.2 8.1 -10.3 8.1 -10.3 8.15 -10.4 8.2 -10.5 8.25 -10.5 8.2 -10.4 M9.05 -10.0 L8.95 -9.9 8.9 -9.9 8.8 -9.75 8.75 -9.65 8.75 -9.6 8.65 -9.55 8.5 -9.45 8.5 -9.5 8.45 -9.45 8.45 -9.45 8.4 -9.4 8.35 -9.35 8.35 -9.35 8.3 -9.35 8.3 -9.35 8.2 -9.4 8.2 -9.45 Q8.1 -9.45 8.1 -9.45 8.1 -9.45 8.1 -9.5 L8.1 -9.55 8.0 -9.5 7.9 -9.5 Q7.9 -9.55 7.9 -9.6 L7.9 -9.6 7.85 -9.6 7.85 -9.45 7.8 -9.4 7.75 -9.4 7.75 -9.4 7.7 -9.4 7.7 -9.4 7.65 -9.4 7.65 -9.3 7.7 -9.2 7.7 -9.1 7.65 -9.05 7.6 -9.0 7.55 -9.0 7.55 -8.95 7.5 -8.95 7.55 -8.85 7.6 -8.75 7.65 -8.65 7.65 -8.5 7.7 -8.45 7.7 -8.4 7.75 -8.4 7.8 -8.4 7.8 -8.3 7.9 -8.2 7.9 -8.2 7.95 -8.1 7.95 -8.0 8.0 -8.05 8.0 -8.1 7.95 -8.25 7.95 -8.45 7.95 -8.65 7.95 -8.65 8.0 -8.65 8.0 -8.65 8.05 -8.6 8.1 -8.6 8.1 -8.65 8.2 -8.55 8.3 -8.5 Q8.45 -8.5 8.5 -8.4 L8.55 -8.35 8.6 -8.4 8.6 -8.6 8.7 -8.55 8.75 -8.5 8.75 -8.45 8.8 -8.35 8.85 -8.35 8.95 -8.3 9.0 -8.25 9.05 -8.2 9.1 -8.2 9.1 -8.3 9.15 -8.3 9.15 -8.3 9.2 -8.3 9.2 -8.3 9.3 -8.35 9.35 -8.4 9.4 -8.45 9.45 -8.45 9.45 -8.5 9.5 -8.45 9.5 -8.45 9.55 -8.4 9.55 -8.45 9.55 -8.5 9.5 -8.55 9.45 -8.65 9.4 -8.75 9.4 -8.85 9.4 -8.95 9.4 -8.95 9.45 -8.9 9.55 -8.9 9.6 -8.9 9.6 -8.9 9.65 -8.9 9.7 -8.9 9.75 -8.9 9.75 -8.95 9.75 -9.0 9.8 -9.0 9.8 -9.05 9.75 -9.1 9.8 -9.15 9.9 -9.2 10.0 -9.25 10.05 -9.35 10.0 -9.4 9.95 -9.45 9.85 -9.5 9.8 -9.55 9.75 -9.55 9.7 -9.6 9.6 -9.6 9.55 -9.65 9.55 -9.7 9.55 -9.75 9.45 -9.8 Q9.4 -9.8 9.4 -9.85 L9.35 -9.9 9.3 -9.9 9.2 -9.9 9.2 -9.9 9.15 -9.9 9.1 -9.9 9.05 -9.85 9.0 -9.9 9.0 -9.9 9.05 -9.95 9.05 -10.0 M9.25 -10.5 L9.3 -10.45 9.2 -10.35 9.2 -10.35 9.2 -10.45 9.2 -10.5 9.25 -10.5 M7.05 -8.0 L7.2 -7.85 7.25 -7.8 7.35 -7.7 7.3 -7.7 7.3 -7.7 7.25 -7.7 7.25 -7.75 7.2 -7.75 7.15 -7.8 7.1 -7.85 7.05 -8.0 M10.7 -9.05 L10.65 -9.05 10.65 -9.1 10.7 -9.1 10.7 -9.1 10.75 -9.1 10.8 -9.1 10.8 -9.05 10.7 -9.05 M10.45 -8.75 L10.55 -8.7 10.55 -8.7 10.5 -8.7 10.45 -8.7 10.4 -8.75 10.4 -8.75 10.45 -8.75 M10.4 -9.0 L10.4 -8.95 10.3 -8.95 10.25 -8.95 10.2 -8.9 10.1 -8.95 10.0 -8.95 10.0 -9.0 10.1 -9.0 10.15 -9.0 10.2 -9.05 10.3 -9.0 10.35 -9.0 10.4 -9.0 M10.65 -9.15 L10.55 -9.2 10.55 -9.15 10.5 -9.15 10.5 -9.15 10.45 -9.15 10.4 -9.2 Q10.45 -9.2 10.45 -9.2 L10.45 -9.25 10.55 -9.3 10.65 -9.25 10.75 -9.25 10.85 -9.25 10.85 -9.2 10.8 -9.2 10.75 -9.2 10.7 -9.15 10.65 -9.15 M9.55 -8.25 L9.6 -8.25 9.6 -8.25 9.65 -8.2 9.6 -8.2 9.6 -8.2 9.55 -8.2 9.55 -8.25 M10.0 -8.35 L10.05 -8.4 10.1 -8.3 10.15 -8.3 10.1 -8.3 10.1 -8.1 10.05 -8.05 Q10.0 -8.05 10.0 -8.1 L10.0 -8.15 9.95 -8.2 9.9 -8.25 9.8 -8.35 9.8 -8.4 9.7 -8.5 9.7 -8.55 9.75 -8.5 9.75 -8.5 9.85 -8.4 9.85 -8.4 9.95 -8.35 9.95 -8.35 10.0 -8.35 M10.0 -8.55 L9.95 -8.5 9.95 -8.5 9.85 -8.5 9.85 -8.5 9.8 -8.55 9.8 -8.6 9.85 -8.6 9.9 -8.55 9.9 -8.6 9.95 -8.6 10.0 -8.55 10.0 -8.55 M8.15 -8.45 L8.15 -8.45 8.2 -8.5 8.35 -8.25 8.4 -8.15 8.4 -8.1 8.4 -8.0 8.35 -8.0 8.25 -8.05 8.2 -8.15 8.2 -8.15 8.2 -8.25 8.15 -8.35 8.15 -8.45 M8.6 -8.1 L8.65 -8.05 8.65 -8.05 8.7 -8.0 8.75 -7.95 8.8 -7.9 8.8 -7.85 8.85 -7.8 8.9 -7.75 8.85 -7.7 8.85 -7.7 Q8.85 -7.65 8.8 -7.65 L8.8 -7.7 8.75 -7.7 8.7 -7.7 8.6 -7.8 8.5 -8.0 8.5 -8.15 8.5 -8.2 8.6 -8.1" fill="#6de6ff" fill-rule="evenodd" stroke="none"/>
    <path d="M9.4 -11.45 L9.35 -11.4 9.35 -11.45 Q9.3 -11.45 9.3 -11.45 L9.3 -11.45 9.35 -11.5 9.35 -11.5 9.4 -11.45 M7.55 -7.9 L7.5 -7.95 7.45 -8.1 7.45 -8.15 7.4 -8.2 7.4 -8.35 7.35 -8.45 7.3 -8.5 7.2 -8.7 7.15 -8.85 7.15 -8.95 7.1 -9.0 7.1 -9.1 7.15 -9.15 7.2 -9.2 7.2 -9.25 7.3 -9.35 7.3 -9.4 7.35 -9.45 7.45 -9.55 7.5 -9.65 7.55 -9.7 7.6 -9.75 7.65 -9.85 7.75 -10.0 7.8 -10.1 7.85 -10.2 7.95 -10.3 8.05 -10.4 8.35 -10.65 8.35 -10.6 8.35 -10.5 8.3 -10.45 8.35 -10.4 8.35 -10.4 8.5 -10.55 8.85 -10.9 8.85 -10.9 8.85 -10.8 8.95 -10.85 8.95 -10.85 9.0 -10.85 9.05 -10.9 9.1 -11.0 9.1 -10.95 9.15 -10.95 9.15 -11.0 9.2 -11.0 9.25 -11.0 Q9.3 -11.05 9.4 -11.1 L9.55 -11.25 9.6 -11.25 9.6 -11.25 9.65 -11.3 9.6 -11.2 9.55 -11.1 9.55 -11.05 9.5 -11.0 9.45 -10.9 9.35 -10.85 9.3 -10.75 9.35 -10.7 9.3 -10.7 9.25 -10.65 9.25 -10.6 9.25 -10.6 9.3 -10.55 9.3 -10.55 9.35 -10.5 9.4 -10.45 9.35 -10.4 9.3 -10.3 9.3 -10.3 Q9.3 -10.25 9.35 -10.25 L9.4 -10.25 9.4 -10.25 9.55 -10.2 9.55 -10.1 9.6 -10.1 9.6 -10.05 Q9.6 -9.95 9.65 -9.95 L9.8 -9.95 9.8 -9.95 9.8 -9.95 9.75 -9.95 9.85 -9.9 9.85 -9.85 9.9 -9.85 9.95 -9.8 10.05 -9.75 10.2 -9.75 10.25 -9.75 10.3 -9.8 10.35 -9.85 10.4 -9.8 10.5 -9.8 10.6 -9.8 10.65 -9.8 10.65 -9.8 10.65 -9.7 10.6 -9.65 10.65 -9.65 10.55 -9.6 10.45 -9.55 10.55 -9.55 10.6 -9.5 10.6 -9.5 10.7 -9.45 10.75 -9.45 10.75 -9.35 10.75 -9.3 10.8 -9.3 10.85 -9.25 10.9 -9.25 10.9 -9.25 11.25 -9.2 11.1 -9.15 11.0 -9.1 11.0 -9.05 11.05 -9.05 11.05 -9.0 11.0 -9.0 11.1 -9.0 11.1 -8.95 10.75 -8.95 10.5 -8.9 10.35 -8.9 10.3 -8.85 10.35 -8.85 10.75 -8.8 10.9 -8.7 11.1 -8.65 11.1 -8.65 10.95 -8.65 10.75 -8.6 10.65 -8.6 10.5 -8.6 10.45 -8.6 10.35 -8.6 10.25 -8.6 10.2 -8.6 10.2 -8.6 10.15 -8.6 10.1 -8.6 10.1 -8.55 Q10.1 -8.55 10.15 -8.5 L10.15 -8.5 10.25 -8.45 10.3 -8.4 10.3 -8.3 10.45 -8.2 10.45 -8.2 10.4 -8.15 10.3 -8.2 10.15 -8.2 10.15 -8.15 10.2 -8.1 10.3 -8.05 10.25 -8.0 10.1 -8.05 9.95 -8.05 9.95 -8.05 9.9 -8.05 9.9 -8.05 9.85 -8.1 9.8 -8.1 9.75 -8.05 9.7 -8.05 9.7 -8.0 Q9.65 -8.0 9.65 -7.95 L9.65 -7.85 9.6 -7.85 9.55 -7.85 9.5 -7.85 9.45 -7.85 9.45 -7.8 9.35 -7.8 9.2 -7.85 9.2 -7.85 9.2 -7.8 9.2 -7.7 9.15 -7.65 9.15 -7.6 9.2 -7.55 9.2 -7.55 9.15 -7.55 9.05 -7.55 9.0 -7.55 9.0 -7.55 8.95 -7.6 8.9 -7.6 8.85 -7.6 8.8 -7.6 8.75 -7.65 8.7 -7.65 8.5 -7.75 8.45 -7.8 8.45 -7.8 8.4 -7.8 8.35 -7.8 8.3 -7.85 8.3 -7.85 8.25 -7.85 8.25 -7.75 8.25 -7.6 8.2 -7.6 8.15 -7.6 8.1 -7.7 8.1 -7.7 8.05 -7.65 8.0 -7.7 7.9 -7.5 7.85 -7.55 7.8 -7.6 7.75 -7.65 7.75 -7.7 7.75 -7.7 7.85 -7.65 7.9 -7.6 7.95 -7.7 7.95 -7.75 8.0 -7.75 8.0 -7.8 8.05 -7.9 8.1 -8.0 8.1 -8.15 8.1 -8.2 8.1 -8.3 8.05 -8.35 8.0 -8.4 8.0 -8.4 8.0 -8.5 8.0 -8.6 8.05 -8.55 Q8.15 -8.5 8.2 -8.5 L8.25 -8.45 8.35 -8.35 8.4 -8.3 8.4 -8.3 8.45 -8.3 8.5 -8.3 8.6 -8.25 8.65 -8.2 8.7 -8.1 8.7 -8.05 Q8.75 -8.0 8.75 -8.0 L8.8 -8.0 8.85 -7.95 8.85 -7.95 Q8.85 -7.9 8.85 -7.9 L8.85 -7.85 8.95 -7.85 8.95 -7.8 9.0 -7.75 9.05 -7.75 9.1 -7.75 9.15 -7.8 9.15 -7.85 9.15 -7.95 9.2 -7.95 9.2 -7.95 9.25 -7.95 9.35 -7.95 9.35 -7.95 9.4 -7.95 Q9.45 -7.95 9.45 -7.95 L9.5 -7.95 9.45 -8.0 9.45 -8.05 9.5 -8.05 9.55 -8.1 9.5 -8.1 9.5 -8.2 9.55 -8.25 9.5 -8.3 9.45 -8.35 9.5 -8.4 9.5 -8.4 9.55 -8.4 9.55 -8.3 9.6 -8.3 9.65 -8.3 9.65 -8.3 9.7 -8.25 9.75 -8.2 9.85 -8.15 9.75 -8.3 9.7 -8.35 9.7 -8.4 9.65 -8.4 9.65 -8.45 9.6 -8.45 9.6 -8.5 9.55 -8.55 9.55 -8.6 9.6 -8.6 9.6 -8.6 9.65 -8.6 9.65 -8.65 9.7 -8.65 9.75 -8.65 9.8 -8.65 9.85 -8.65 9.95 -8.7 9.9 -8.75 10.0 -8.7 10.05 -8.7 10.1 -8.7 10.15 -8.7 10.2 -8.7 10.3 -8.7 10.35 -8.7 10.2 -8.75 10.1 -8.85 9.95 -8.95 9.95 -9.0 9.95 -9.05 10.0 -9.1 10.05 -9.1 10.15 -9.1 10.25 -9.05 10.35 -9.1 10.4 -9.1 10.3 -9.2 10.3 -9.25 10.25 -9.3 10.25 -9.4 10.2 -9.45 10.15 -9.5 10.1 -9.55 10.1 -9.55 10.15 -9.6 10.2 -9.6 10.25 -9.65 10.25 -9.65 10.2 -9.7 10.15 -9.65 10.1 -9.65 10.05 -9.7 10.0 -9.7 9.9 -9.75 9.85 -9.75 9.8 -9.75 9.75 -9.7 9.75 -9.7 9.8 -9.75 9.75 -9.8 9.7 -9.8 9.7 -9.8 9.6 -9.85 9.55 -9.9 9.5 -9.9 9.45 -9.9 9.45 -9.95 9.4 -9.95 9.4 -10.1 9.35 -10.1 9.35 -10.15 9.3 -10.15 9.25 -10.1 9.2 -10.1 9.2 -10.1 9.15 -10.1 9.15 -10.1 9.2 -10.15 9.2 -10.2 9.2 -10.2 9.2 -10.25 9.15 -10.25 9.1 -10.2 9.05 -10.15 9.0 -10.1 8.95 -10.05 8.95 -10.05 8.9 -10.0 8.9 -9.95 8.85 -9.9 8.7 -9.8 8.75 -9.8 8.75 -9.85 8.75 -9.9 8.7 -9.85 8.7 -9.95 8.6 -9.85 8.55 -9.8 8.5 -9.75 Q8.4 -9.7 8.4 -9.65 8.35 -9.6 8.3 -9.6 L8.25 -9.65 8.25 -9.65 8.3 -9.7 8.25 -9.7 8.2 -9.7 8.15 -9.7 8.1 -9.75 8.05 -9.7 8.0 -9.65 8.0 -9.7 7.95 -9.75 8.0 -9.75 8.0 -9.85 7.95 -9.85 7.95 -9.85 7.9 -9.8 7.85 -9.75 7.8 -9.75 7.8 -9.75 7.8 -9.65 7.75 -9.6 7.75 -9.6 7.7 -9.6 7.7 -9.5 7.6 -9.5 7.55 -9.5 7.55 -9.4 Q7.55 -9.3 7.45 -9.3 L7.5 -9.25 Q7.55 -9.2 7.6 -9.2 L7.55 -9.15 7.55 -9.1 7.6 -9.1 7.55 -9.05 7.45 -9.0 7.4 -9.0 7.35 -8.9 Q7.35 -8.85 7.45 -8.8 L7.5 -8.75 7.6 -8.7 7.6 -8.55 7.65 -8.3 7.7 -8.15 7.75 -8.1 7.75 -8.1 7.8 -8.1 7.9 -8.05 7.9 -7.95 7.9 -7.9 7.95 -7.85 7.95 -7.85 7.9 -7.8 7.85 -7.8 7.8 -7.8 7.75 -7.8 7.75 -7.8 7.7 -7.85 7.7 -7.95 7.65 -7.95 7.6 -7.95 7.6 -8.0 7.55 -8.0 7.55 -7.9 M9.2 -11.35 L9.15 -11.35 9.1 -11.35 9.1 -11.35 9.15 -11.4 9.15 -11.4 9.2 -11.35 M10.05 -11.25 L10.1 -11.2 10.05 -11.2 10.05 -11.2 10.0 -11.2 10.05 -11.25 10.05 -11.25 Q10.1 -11.25 10.1 -11.3 L10.1 -11.25 10.05 -11.25 M8.5 -11.15 L8.45 -11.1 8.4 -11.1 8.4 -11.1 8.5 -11.2 8.55 -11.25 8.55 -11.2 8.5 -11.15 M8.75 -10.8 L8.75 -10.8 8.7 -10.75 8.65 -10.7 8.65 -10.6 8.6 -10.5 8.55 -10.45 8.55 -10.4 8.5 -10.35 8.45 -10.25 8.45 -10.0 8.4 -9.95 8.45 -9.95 8.55 -10.1 8.6 -10.15 8.65 -10.25 8.65 -10.35 8.7 -10.35 8.8 -10.45 8.8 -10.55 8.8 -10.6 8.85 -10.65 8.85 -10.7 8.8 -10.7 8.75 -10.75 8.75 -10.8 M9.0 -10.75 L9.0 -10.7 8.95 -10.65 8.9 -10.55 8.85 -10.5 8.85 -10.45 8.85 -10.35 8.9 -10.2 8.95 -10.25 9.0 -10.3 9.0 -10.4 9.05 -10.45 9.1 -10.55 9.1 -10.6 9.15 -10.65 9.2 -10.7 9.2 -10.85 9.3 -10.9 9.35 -10.95 9.4 -10.95 9.45 -10.95 9.45 -11.0 9.5 -11.05 9.4 -11.0 9.4 -11.0 9.3 -10.95 9.3 -10.95 9.2 -10.9 9.15 -10.9 9.1 -10.85 9.05 -10.8 9.05 -10.8 9.0 -10.75 M8.55 -10.85 Q8.5 -10.8 8.45 -10.8 L8.4 -10.8 8.4 -10.75 8.35 -10.75 8.25 -10.75 8.25 -10.75 8.3 -10.8 8.3 -10.8 8.35 -10.85 8.35 -10.9 8.4 -10.95 8.55 -10.95 8.55 -10.85 M8.25 -11.1 L8.25 -11.05 8.2 -11.0 8.15 -10.95 8.15 -10.95 8.2 -11.05 8.2 -11.1 8.25 -11.1 8.25 -11.1 M8.2 -10.4 L8.25 -10.5 8.2 -10.5 8.15 -10.4 8.1 -10.3 8.1 -10.3 8.05 -10.2 8.0 -10.15 7.95 -10.05 7.9 -9.95 7.8 -9.9 7.8 -9.85 7.8 -9.8 Q7.85 -9.8 7.95 -9.9 L8.05 -9.95 8.1 -9.9 8.15 -9.9 8.2 -10.0 8.15 -10.05 8.15 -10.1 8.2 -10.2 8.2 -10.35 8.2 -10.4 M8.75 -10.25 L8.75 -10.15 8.8 -10.15 8.8 -10.25 8.8 -10.3 8.75 -10.35 8.75 -10.25 8.75 -10.25 M9.85 -11.15 L9.85 -11.05 9.8 -11.05 Q9.8 -11.05 9.75 -11.0 L9.75 -11.0 9.7 -10.95 9.7 -11.0 9.75 -11.05 9.75 -11.1 9.85 -11.15 9.85 -11.15 M9.8 -10.55 L9.9 -10.6 9.95 -10.65 10.05 -10.7 10.1 -10.75 10.1 -10.75 10.0 -10.65 9.95 -10.6 9.9 -10.6 9.8 -10.55 9.8 -10.55 M9.25 -10.5 L9.2 -10.5 9.2 -10.45 9.2 -10.35 9.2 -10.35 9.3 -10.45 9.25 -10.5 M10.85 -11.45 L10.9 -11.45 10.9 -11.4 10.85 -11.4 10.85 -11.45 M10.65 -11.35 L10.65 -11.4 10.65 -11.4 10.7 -11.45 10.7 -11.4 10.7 -11.4 10.65 -11.35 M7.55 -11.35 L7.45 -11.2 7.4 -11.15 7.25 -10.9 7.15 -10.75 7.15 -10.75 7.1 -10.75 7.3 -11.15 7.35 -11.3 Q7.6 -11.8 7.8 -11.8 L7.85 -11.75 7.85 -11.55 7.8 -11.6 Q7.7 -11.6 7.55 -11.35 M6.95 -10.15 L6.95 -10.2 7.0 -10.2 6.95 -10.15 6.95 -10.15 6.95 -10.15 M7.55 -10.65 L7.6 -10.7 7.55 -10.6 7.5 -10.5 7.4 -10.4 7.3 -10.35 7.3 -10.4 7.35 -10.4 7.4 -10.5 7.5 -10.6 7.55 -10.65 M7.2 -10.3 L7.2 -10.35 7.25 -10.4 7.25 -10.3 7.2 -10.25 7.2 -10.2 7.1 -10.1 7.1 -10.1 7.15 -10.25 7.2 -10.3 M7.85 -10.5 L7.85 -10.4 7.7 -10.3 7.6 -10.15 7.65 -10.35 7.7 -10.4 7.85 -10.5 M7.1 -9.65 L7.15 -9.65 7.15 -9.5 7.1 -9.45 7.1 -9.4 7.0 -9.35 7.0 -9.4 7.05 -9.5 7.05 -9.55 7.1 -9.65 7.1 -9.65 M6.95 -9.9 L7.0 -10.0 7.0 -9.75 6.95 -9.75 6.95 -9.7 6.9 -9.65 6.85 -9.5 6.8 -9.4 6.8 -9.4 6.8 -9.45 6.8 -9.6 6.9 -9.75 6.95 -9.85 6.95 -9.9 M7.35 -7.7 L7.4 -7.6 7.4 -7.6 7.35 -7.6 7.35 -7.6 7.25 -7.65 7.15 -7.75 7.15 -7.75 7.05 -7.85 7.0 -7.95 6.95 -8.2 6.9 -8.3 6.95 -8.3 6.95 -8.2 7.05 -8.0 7.05 -8.0 7.1 -7.85 7.15 -7.8 7.2 -7.75 7.25 -7.75 7.25 -7.7 7.3 -7.7 7.3 -7.7 7.35 -7.7 M6.9 -7.8 L6.85 -7.85 6.85 -8.0 6.9 -8.1 6.9 -7.8 M7.6 -7.75 L7.65 -7.75 7.7 -7.7 7.75 -7.7 7.65 -7.65 7.65 -7.7 7.6 -7.75 M7.45 -7.45 L7.45 -7.5 7.5 -7.5 7.5 -7.45 7.45 -7.45 M7.9 -7.2 L7.85 -7.2 7.8 -7.25 7.75 -7.25 7.7 -7.3 7.7 -7.3 7.65 -7.35 7.75 -7.35 7.8 -7.3 7.9 -7.25 7.9 -7.2 M7.95 -7.15 L7.95 -7.2 8.0 -7.2 8.0 -7.2 8.05 -7.15 8.05 -7.15 8.0 -7.1 7.95 -7.15 M10.65 -9.15 L10.7 -9.15 10.75 -9.2 10.8 -9.2 10.85 -9.2 10.85 -9.25 10.75 -9.25 10.65 -9.25 10.55 -9.3 10.45 -9.25 10.45 -9.2 Q10.45 -9.2 10.4 -9.2 L10.45 -9.15 10.5 -9.15 10.5 -9.15 10.55 -9.15 10.55 -9.2 10.65 -9.15 M10.4 -9.0 L10.35 -9.0 10.3 -9.0 10.2 -9.05 10.15 -9.0 10.1 -9.0 10.0 -9.0 10.0 -8.95 10.1 -8.95 10.2 -8.9 10.25 -8.95 10.3 -8.95 10.4 -8.95 10.4 -9.0 M10.45 -8.75 L10.4 -8.75 10.4 -8.75 10.45 -8.7 10.5 -8.7 10.55 -8.7 10.55 -8.7 10.45 -8.75 M10.7 -9.05 L10.8 -9.05 10.8 -9.1 10.75 -9.1 10.7 -9.1 10.7 -9.1 10.65 -9.1 10.65 -9.05 10.7 -9.05 M8.6 -8.1 L8.5 -8.2 8.5 -8.15 8.5 -8.0 8.6 -7.8 8.7 -7.7 8.75 -7.7 8.8 -7.7 8.8 -7.65 Q8.85 -7.65 8.85 -7.7 L8.85 -7.7 8.9 -7.75 8.85 -7.8 8.8 -7.85 8.8 -7.9 8.75 -7.95 8.7 -8.0 8.65 -8.05 8.65 -8.05 8.6 -8.1 M8.15 -8.45 L8.15 -8.35 8.2 -8.25 8.2 -8.15 8.2 -8.15 8.25 -8.05 8.35 -8.0 8.4 -8.0 8.4 -8.1 8.4 -8.15 8.35 -8.25 8.2 -8.5 8.15 -8.45 8.15 -8.45 M10.0 -8.55 L10.0 -8.55 9.95 -8.6 9.9 -8.6 9.9 -8.55 9.85 -8.6 9.8 -8.6 9.8 -8.55 9.85 -8.5 9.85 -8.5 9.95 -8.5 9.95 -8.5 10.0 -8.55 M10.0 -8.35 L9.95 -8.35 9.95 -8.35 9.85 -8.4 9.85 -8.4 9.75 -8.5 9.75 -8.5 9.7 -8.55 9.7 -8.5 9.8 -8.4 9.8 -8.35 9.9 -8.25 9.95 -8.2 10.0 -8.15 10.0 -8.1 Q10.0 -8.05 10.05 -8.05 L10.1 -8.1 10.1 -8.3 10.15 -8.3 10.1 -8.3 10.05 -8.4 10.0 -8.35 M9.55 -8.25 L9.55 -8.2 9.6 -8.2 9.6 -8.2 9.65 -8.2 9.6 -8.25 9.6 -8.25 9.55 -8.25 M9.7 -7.0 L9.7 -7.0 9.75 -7.05 9.75 -7.05 9.75 -7.0 9.7 -7.0 M9.5 -7.1 L9.5 -7.1 9.45 -7.1 9.35 -7.2 9.35 -7.2 9.25 -7.25 9.4 -7.25 9.5 -7.1 M9.55 -7.05 L9.55 -7.1 9.6 -7.1 9.6 -7.1 9.6 -7.05 9.55 -7.05 9.55 -7.05 M8.7 -7.35 L8.7 -7.35 8.75 -7.25 8.8 -7.1 Q8.7 -7.1 8.7 -7.25 L8.7 -7.35 M8.25 -7.3 L8.25 -7.35 8.3 -7.4 8.35 -7.35 8.5 -7.2 8.5 -7.05 Q8.5 -6.95 8.45 -6.95 8.3 -6.95 8.25 -7.05 L8.25 -7.1 8.25 -7.3 M8.2 -6.4 L8.2 -6.3 Q8.15 -6.3 8.15 -6.35 L8.15 -6.6 8.2 -6.4 M10.45 -6.8 L10.5 -6.8 10.5 -6.8 10.55 -6.8 10.55 -6.8 Q10.5 -6.8 10.5 -6.8 L10.45 -6.75 10.4 -6.8 10.4 -6.8 10.45 -6.8 M9.0 -6.8 L9.0 -6.7 8.9 -6.7 Q8.8 -6.7 8.8 -6.75 L8.85 -6.75 8.9 -6.75 8.95 -6.8 9.0 -6.8" fill="#417ee9" fill-rule="evenodd" stroke="none"/>
  </g>
</svg>
