<?xml version="1.0" encoding="UTF-8" standalone="no"?>
<svg xmlns:xlink="http://www.w3.org/1999/xlink" height="6.95px" width="4.65px" xmlns="http://www.w3.org/2000/svg">
  <g transform="matrix(1.0, 0.0, 0.0, 1.0, -6.95, 12.85)">
    <path d="M9.75 -7.45 L9.75 -7.4 9.7 -7.45 9.75 -7.45" fill="#b97814" fill-rule="evenodd" stroke="none"/>
    <path d="M10.05 -6.6 L10.05 -6.5 10.15 -6.4 10.2 -6.2 10.1 -6.1 Q10.0 -6.05 10.05 -5.9 L10.0 -5.9 10.0 -5.9 9.8 -5.95 9.7 -6.0 Q9.65 -6.0 9.65 -5.95 9.6 -5.95 9.6 -5.95 L9.5 -6.0 9.2 -6.1 8.9 -6.35 8.95 -6.25 8.95 -6.15 Q8.9 -6.15 8.75 -6.2 L8.75 -6.1 8.6 -6.25 8.55 -6.3 8.45 -6.35 8.45 -6.35 8.35 -6.45 8.3 -6.55 8.25 -6.55 8.2 -6.65 8.15 -6.65 8.1 -6.65 8.05 -6.65 8.0 -6.7 7.95 -6.8 7.85 -7.0 7.75 -7.1 Q7.65 -7.15 7.6 -7.25 L7.55 -7.4 7.55 -7.5 7.5 -7.55 7.4 -7.75 7.4 -7.95 7.35 -8.1 7.3 -8.2 7.25 -8.3 7.25 -8.45 7.3 -8.55 7.3 -8.7 7.25 -8.8 7.25 -8.85 7.25 -8.95 Q7.3 -8.95 7.3 -8.95 L7.3 -9.1 7.3 -9.15 7.3 -9.2 7.3 -9.3 7.3 -9.4 7.25 -9.45 7.3 -9.55 7.3 -9.6 7.25 -9.65 7.15 -9.75 7.0 -9.8 6.95 -9.9 7.05 -10.0 7.05 -10.15 7.15 -10.2 Q7.25 -10.2 7.3 -10.25 L7.3 -10.3 7.2 -10.35 Q7.1 -10.4 7.1 -10.45 7.1 -10.5 7.15 -10.55 L7.3 -10.65 7.4 -10.75 7.45 -10.9 7.45 -11.05 7.5 -11.05 7.55 -11.25 7.6 -11.15 7.7 -11.05 7.65 -11.05 7.6 -10.95 7.7 -10.85 7.75 -11.0 7.8 -11.15 7.85 -11.15 7.9 -11.15 7.95 -11.15 7.95 -11.3 8.0 -11.35 8.0 -11.35 8.05 -11.25 8.2 -11.65 8.25 -11.9 8.35 -12.1 Q8.4 -12.2 8.4 -12.3 L8.35 -12.45 8.4 -12.6 8.5 -12.85 8.5 -12.8 8.55 -12.8 Q8.5 -12.75 8.55 -12.55 L8.65 -12.3 8.65 -12.1 8.6 -12.05 8.5 -11.95 8.35 -11.85 Q8.25 -11.75 8.25 -11.65 L8.3 -11.5 8.3 -11.35 8.25 -11.15 8.2 -11.1 8.2 -10.9 8.15 -10.8 8.1 -10.75 Q8.0 -10.6 8.0 -10.4 L8.0 -10.35 Q8.0 -10.2 8.0 -10.05 L8.0 -10.05 7.95 -9.95 7.95 -9.8 7.85 -9.7 Q7.8 -9.65 7.8 -9.6 7.8 -9.35 7.95 -9.3 L8.0 -9.3 8.05 -9.25 8.1 -9.2 Q8.15 -9.2 8.15 -9.2 L8.2 -9.2 8.25 -9.2 8.3 -9.15 8.35 -9.1 8.3 -9.05 8.3 -9.0 8.3 -8.95 8.25 -8.85 8.15 -8.8 Q8.2 -8.7 8.3 -8.6 L8.35 -8.55 8.35 -8.5 8.4 -8.45 8.4 -8.4 Q8.4 -8.3 8.3 -8.3 L8.25 -8.25 8.25 -8.15 8.2 -8.15 8.15 -8.15 8.1 -8.15 Q8.1 -8.1 8.1 -7.95 L8.1 -7.8 8.1 -7.75 Q8.15 -7.7 8.25 -7.7 L8.35 -7.65 8.4 -7.6 8.35 -7.5 8.3 -7.3 8.35 -7.1 8.4 -6.9 8.4 -6.8 8.35 -6.75 8.45 -6.65 8.6 -6.55 8.6 -6.8 8.75 -6.65 8.8 -6.65 Q8.85 -6.5 8.95 -6.4 9.05 -6.3 9.15 -6.35 L9.25 -6.25 Q9.35 -6.15 9.4 -6.15 L9.45 -6.15 9.45 -6.25 9.35 -6.4 9.3 -6.55 9.3 -6.65 9.2 -6.65 9.15 -6.7 9.15 -6.75 9.1 -6.75 9.05 -6.85 8.95 -6.95 8.9 -7.0 8.85 -7.05 8.85 -7.05 8.8 -7.15 8.8 -7.15 Q8.8 -7.25 8.8 -7.35 L8.75 -7.45 8.8 -7.5 8.9 -7.55 8.9 -7.55 8.95 -7.6 9.0 -7.55 9.0 -7.4 8.9 -7.35 8.85 -7.25 8.85 -7.15 Q8.9 -7.1 8.95 -7.0 9.05 -6.85 9.2 -6.85 L9.2 -6.85 Q9.3 -6.85 9.3 -7.0 L9.2 -7.2 9.15 -7.3 9.15 -7.35 9.15 -7.45 9.2 -7.5 9.25 -7.55 9.3 -7.55 9.3 -7.55 9.4 -7.6 9.4 -7.7 9.45 -7.55 9.45 -7.5 9.4 -7.5 9.35 -7.4 9.3 -7.25 9.35 -7.2 Q9.4 -7.15 9.45 -7.15 L9.5 -7.1 9.5 -7.05 9.55 -7.0 9.6 -6.95 9.65 -6.95 9.65 -6.95 Q9.6 -6.95 9.6 -6.95 L9.55 -7.0 9.45 -7.0 9.45 -6.85 9.4 -6.75 9.4 -6.6 9.4 -6.4 9.45 -6.35 9.75 -6.2 9.75 -6.2 10.0 -6.1 10.05 -6.15 10.1 -6.3 10.05 -6.4 9.95 -6.5 10.0 -6.55 10.05 -6.6 10.05 -6.8 10.0 -6.8 9.85 -6.85 9.8 -6.85 9.7 -6.9 9.65 -6.9 9.65 -6.95 9.7 -6.95 Q9.8 -6.95 9.8 -7.0 L9.85 -7.15 9.9 -7.05 10.0 -6.95 10.05 -6.9 10.1 -6.85 10.25 -6.85 Q10.35 -6.85 10.35 -6.9 L10.4 -7.0 Q10.4 -7.1 10.15 -7.3 L10.2 -7.3 Q10.35 -7.3 10.35 -7.4 L10.35 -7.45 10.2 -7.45 10.15 -7.45 10.1 -7.45 10.05 -7.55 10.0 -7.6 9.9 -7.6 9.85 -7.75 9.75 -7.8 9.7 -7.85 9.75 -7.85 9.85 -7.85 9.9 -7.8 9.95 -7.8 10.0 -7.8 10.1 -7.85 10.05 -7.9 10.05 -8.0 10.1 -8.0 10.05 -8.05 10.0 -8.15 10.05 -8.2 10.1 -8.25 10.1 -8.2 10.2 -8.15 10.3 -8.15 10.35 -8.15 10.4 -8.15 10.4 -8.2 10.5 -8.3 10.45 -8.35 10.45 -8.35 10.5 -8.45 10.5 -8.5 10.45 -8.55 10.4 -8.65 10.5 -8.75 10.55 -8.8 10.65 -8.75 Q10.7 -8.7 10.75 -8.7 10.75 -8.7 10.8 -8.75 L10.85 -8.75 10.85 -8.75 10.9 -8.7 10.95 -8.7 11.0 -8.7 11.05 -8.75 11.0 -8.85 10.95 -8.9 10.9 -8.95 10.9 -9.0 10.85 -9.0 10.8 -9.0 10.8 -9.05 10.75 -9.15 10.7 -9.2 10.65 -9.2 10.6 -9.2 10.5 -9.2 10.5 -9.3 10.45 -9.35 10.4 -9.35 10.4 -9.5 10.35 -9.65 10.25 -9.75 10.2 -9.7 10.15 -9.7 10.05 -9.75 10.0 -9.8 9.9 -9.75 9.85 -9.7 9.85 -9.6 9.8 -9.55 9.9 -9.45 10.0 -9.4 9.95 -9.4 9.95 -9.35 Q9.9 -9.35 9.9 -9.4 L9.85 -9.4 9.8 -9.4 9.8 -9.35 9.8 -9.3 9.85 -9.25 9.9 -9.25 9.9 -9.3 9.95 -9.25 9.95 -9.25 10.0 -9.25 9.9 -9.2 9.9 -9.15 9.95 -9.15 10.0 -9.1 10.0 -9.1 10.0 -9.05 9.95 -9.05 9.9 -9.05 9.85 -9.1 9.8 -9.1 9.8 -9.05 9.75 -9.1 9.65 -9.2 9.65 -9.2 9.6 -9.2 9.6 -9.3 9.55 -9.3 9.5 -9.2 9.5 -9.05 Q9.5 -9.05 9.6 -9.0 L9.55 -9.0 9.5 -9.0 9.45 -9.0 9.45 -9.05 9.4 -9.05 9.4 -9.15 9.35 -9.2 9.25 -9.1 9.2 -9.05 9.25 -9.0 9.25 -8.95 9.25 -8.95 9.2 -8.95 9.15 -8.95 9.15 -9.0 9.1 -9.05 9.05 -9.05 9.05 -9.1 Q9.05 -9.15 9.15 -9.15 9.2 -9.15 9.25 -9.2 L9.25 -9.3 9.35 -9.4 9.4 -9.35 9.4 -9.35 9.45 -9.35 9.5 -9.35 9.5 -9.45 9.5 -9.55 9.45 -9.6 9.35 -9.6 9.35 -9.65 9.3 -9.7 9.2 -9.65 9.1 -9.55 9.05 -9.6 9.0 -9.6 8.95 -9.55 8.95 -9.5 8.9 -9.45 8.85 -9.4 8.85 -9.35 8.8 -9.3 8.8 -9.3 8.75 -9.3 8.75 -9.3 8.75 -9.3 8.7 -9.3 8.65 -9.25 8.7 -9.2 8.75 -9.15 8.8 -9.1 8.8 -9.05 Q8.75 -9.05 8.7 -9.05 L8.65 -9.1 8.65 -9.1 8.6 -9.05 8.6 -9.05 8.65 -9.1 8.65 -9.2 8.6 -9.25 8.65 -9.35 8.7 -9.35 8.7 -9.4 8.8 -9.45 8.85 -9.5 8.85 -9.5 8.9 -9.55 8.9 -9.6 8.95 -9.65 9.0 -9.65 9.0 -9.65 9.05 -9.7 9.0 -9.8 8.9 -9.8 8.9 -9.85 8.9 -9.9 8.95 -9.95 8.95 -9.9 8.95 -9.9 9.0 -9.9 9.0 -9.9 9.05 -9.9 9.1 -9.9 9.2 -9.85 9.25 -9.9 9.3 -9.9 9.35 -9.85 9.4 -9.8 9.45 -9.85 9.5 -9.85 9.5 -9.9 9.55 -10.0 9.6 -10.0 9.6 -10.0 9.65 -10.0 9.75 -10.05 9.85 -10.1 9.85 -10.05 9.8 -10.05 9.85 -10.0 9.9 -10.0 9.95 -9.95 10.0 -10.0 10.05 -10.0 Q10.15 -10.0 10.2 -9.95 L10.2 -9.9 10.25 -9.9 10.3 -9.9 10.4 -9.9 10.5 -9.9 10.5 -9.85 10.55 -9.8 10.55 -9.6 10.6 -9.55 10.6 -9.45 10.65 -9.4 10.7 -9.35 Q10.7 -9.35 10.75 -9.35 L10.85 -9.35 10.85 -9.35 10.95 -9.3 11.0 -9.35 11.05 -9.3 11.05 -9.3 11.1 -9.3 11.15 -9.35 11.15 -9.3 11.2 -9.3 11.15 -9.3 11.15 -9.25 11.2 -9.25 11.2 -9.25 11.25 -9.25 11.25 -9.2 11.2 -9.2 11.2 -9.2 11.15 -9.2 11.15 -9.2 11.1 -9.2 11.0 -9.15 11.0 -9.05 11.05 -9.05 11.1 -9.0 11.1 -8.95 11.15 -8.95 11.2 -8.95 11.55 -8.85 11.6 -8.8 11.2 -8.75 11.15 -8.7 11.1 -8.7 11.05 -8.65 11.0 -8.6 10.95 -8.6 10.9 -8.6 10.85 -8.6 10.8 -8.55 10.8 -8.6 10.75 -8.6 10.75 -8.6 10.7 -8.6 10.7 -8.55 10.75 -8.4 10.75 -8.35 10.75 -8.3 10.8 -8.25 10.7 -8.2 10.7 -8.15 10.6 -8.15 10.55 -8.05 10.6 -8.05 10.6 -8.0 10.55 -8.0 10.55 -7.95 10.6 -7.9 10.6 -7.85 10.55 -7.85 10.55 -7.8 10.6 -7.8 10.55 -7.75 Q10.55 -7.75 10.5 -7.75 L10.45 -7.75 10.35 -7.75 10.35 -7.75 10.3 -7.75 10.25 -7.75 10.25 -7.7 10.2 -7.7 10.2 -7.65 10.2 -7.5 Q10.25 -7.45 10.35 -7.45 10.5 -7.4 10.5 -7.35 L10.45 -7.25 10.35 -7.25 10.45 -7.1 10.55 -7.0 10.5 -6.9 10.45 -6.85 10.5 -6.8 10.5 -6.75 Q10.5 -6.65 10.4 -6.65 L10.2 -6.65 Q10.2 -6.6 10.15 -6.6 L10.05 -6.6 M8.75 -11.7 L8.75 -11.7 8.8 -11.8 8.85 -11.9 8.85 -11.85 8.9 -11.8 8.9 -11.85 8.95 -11.8 8.95 -11.8 Q8.95 -11.75 9.0 -11.7 L9.0 -11.65 9.05 -11.6 8.95 -11.3 8.95 -11.7 8.9 -11.75 8.85 -11.65 8.85 -11.55 8.75 -11.45 8.75 -11.4 8.7 -11.4 8.7 -11.4 8.6 -11.4 8.6 -11.4 8.55 -11.4 8.6 -11.4 8.65 -11.45 8.65 -11.5 8.75 -11.7 M8.95 -11.25 L8.95 -11.25 9.0 -11.2 9.05 -11.2 9.05 -11.2 9.1 -11.35 9.15 -11.45 9.2 -11.55 9.25 -11.45 9.35 -11.35 9.4 -11.25 9.4 -11.1 9.45 -11.15 9.5 -11.2 9.5 -11.15 9.55 -11.15 9.55 -10.95 9.5 -10.9 9.5 -10.75 9.5 -10.8 9.4 -10.85 9.35 -10.8 9.35 -10.8 9.3 -10.8 9.35 -10.85 9.35 -10.95 9.4 -11.0 9.4 -11.05 Q9.4 -11.2 9.25 -11.2 L9.15 -11.2 9.15 -11.15 9.15 -11.1 9.05 -11.05 Q9.0 -11.05 9.0 -11.0 L9.0 -10.85 8.95 -10.75 8.9 -10.6 8.9 -10.55 8.85 -10.55 8.85 -10.55 8.8 -10.5 8.75 -10.5 8.7 -10.55 8.7 -10.55 8.65 -10.5 8.6 -10.45 8.55 -10.4 8.45 -10.45 8.4 -10.4 8.35 -10.3 8.4 -10.2 8.45 -10.1 8.4 -10.05 8.35 -10.0 8.4 -9.9 8.4 -9.85 8.3 -9.55 8.25 -9.6 8.2 -9.65 8.2 -9.6 8.15 -9.6 8.15 -9.65 8.1 -9.65 8.1 -9.75 8.1 -9.8 8.15 -9.8 Q8.2 -9.8 8.2 -9.9 L8.25 -10.1 8.35 -10.5 8.4 -10.5 8.35 -10.65 Q8.25 -10.7 8.25 -10.8 L8.25 -10.8 Q8.35 -10.8 8.35 -11.0 8.35 -11.2 8.45 -11.25 L8.45 -11.15 Q8.45 -11.05 8.5 -11.0 L8.55 -10.95 8.55 -10.65 8.55 -10.6 Q8.6 -10.55 8.65 -10.55 8.75 -10.55 8.75 -10.7 L8.8 -10.85 8.9 -11.05 8.9 -11.05 8.95 -11.25 M9.5 -10.7 L9.55 -10.75 9.6 -10.75 9.65 -10.8 9.7 -10.8 9.75 -10.85 9.8 -10.8 9.8 -10.7 9.75 -10.55 9.7 -10.55 9.6 -10.65 Q9.55 -10.65 9.55 -10.65 L9.5 -10.6 9.5 -10.6 9.45 -10.6 9.5 -10.7 9.5 -10.7 M8.45 -11.25 L8.45 -11.3 8.45 -11.25 M8.9 -10.5 L8.95 -10.5 9.1 -10.5 9.35 -10.5 9.45 -10.55 9.4 -10.45 9.3 -10.4 9.25 -10.4 9.25 -10.35 9.2 -10.35 9.2 -10.3 9.15 -10.25 9.15 -10.3 9.1 -10.3 9.05 -10.25 9.0 -10.2 8.95 -10.25 8.95 -10.25 8.9 -10.25 8.85 -10.25 8.85 -10.25 8.85 -10.3 8.85 -10.4 8.9 -10.45 8.9 -10.5 M9.45 -10.6 L9.45 -10.6 9.45 -10.6 M8.0 -9.2 L8.0 -9.2 7.95 -9.2 7.9 -9.15 7.85 -9.05 7.85 -9.05 7.9 -9.0 7.95 -9.0 7.95 -8.95 8.0 -9.0 7.95 -9.05 8.05 -9.15 8.05 -9.15 8.0 -9.2 M7.7 -8.95 L7.7 -8.95 7.65 -8.95 7.65 -8.95 7.6 -8.95 7.65 -8.9 7.65 -8.9 7.7 -8.9 7.7 -8.95 M7.9 -8.6 L7.9 -8.6 7.85 -8.6 7.85 -8.65 7.8 -8.65 7.8 -8.6 7.75 -8.55 7.8 -8.45 Q7.85 -8.4 7.9 -8.4 L8.05 -8.5 8.1 -8.7 8.1 -8.7 8.05 -8.65 7.9 -8.6 M7.55 -8.25 L7.55 -8.3 7.5 -8.35 7.5 -8.35 7.45 -8.3 7.45 -8.3 7.4 -8.25 7.4 -8.2 7.5 -8.2 7.5 -8.25 7.55 -8.25 M7.6 -7.8 L7.6 -7.7 7.65 -7.65 7.65 -7.65 7.75 -7.65 Q7.9 -7.75 7.9 -7.85 L7.9 -7.9 7.85 -8.0 7.85 -8.0 7.85 -8.05 7.8 -7.95 7.75 -7.9 7.7 -7.85 7.7 -7.85 7.65 -7.85 7.65 -7.9 7.6 -7.8 7.6 -7.8 M10.2 -9.1 L10.2 -9.0 10.15 -8.95 10.1 -8.95 10.1 -9.05 10.15 -9.1 10.15 -9.15 10.2 -9.1 10.2 -9.1 M9.05 -8.4 L9.0 -8.4 9.0 -8.45 9.0 -8.4 9.1 -8.45 9.1 -8.45 9.15 -8.45 9.2 -8.45 9.2 -8.4 9.25 -8.4 9.2 -8.35 9.15 -8.35 9.1 -8.35 9.05 -8.4 M8.65 -8.1 L8.7 -8.2 8.7 -8.25 8.75 -8.15 8.7 -8.05 8.7 -8.0 8.55 -7.95 8.55 -7.95 8.5 -7.95 8.5 -8.0 8.55 -8.05 8.65 -8.1 M9.9 -8.55 L9.95 -8.55 10.05 -8.5 10.0 -8.5 9.9 -8.5 9.85 -8.5 9.8 -8.45 9.75 -8.4 9.75 -8.35 9.8 -8.3 9.8 -8.25 9.8 -8.15 9.75 -8.15 9.7 -8.15 9.65 -8.25 9.6 -8.3 9.55 -8.35 9.6 -8.45 9.65 -8.45 9.65 -8.65 9.7 -8.65 9.7 -8.65 9.75 -8.55 9.75 -8.55 9.8 -8.55 9.85 -8.55 9.9 -8.55 M9.5 -7.95 L9.5 -7.9 9.55 -8.0 9.6 -7.95 9.55 -7.95 9.5 -7.95 M9.4 -7.8 L9.45 -7.85 9.4 -7.75 9.4 -7.75 9.4 -7.8" fill="#417ee9" fill-rule="evenodd" stroke="none"/>
    <path d="M10.05 -6.6 L10.0 -6.55 9.95 -6.5 10.05 -6.4 10.1 -6.3 10.05 -6.15 10.0 -6.1 9.75 -6.2 9.75 -6.2 9.45 -6.35 9.4 -6.4 9.4 -6.6 9.4 -6.75 9.45 -6.85 9.45 -7.0 9.55 -7.0 9.6 -6.95 Q9.6 -6.95 9.65 -6.95 L9.65 -6.95 9.6 -6.95 9.55 -7.0 9.5 -7.05 9.5 -7.1 9.45 -7.15 Q9.4 -7.15 9.35 -7.2 L9.3 -7.25 9.35 -7.4 9.4 -7.5 9.45 -7.5 9.45 -7.55 9.4 -7.7 9.4 -7.6 9.3 -7.55 9.3 -7.55 9.25 -7.55 9.2 -7.5 9.15 -7.45 9.15 -7.35 9.15 -7.3 9.2 -7.2 9.3 -7.0 Q9.3 -6.85 9.2 -6.85 L9.2 -6.85 Q9.05 -6.85 8.95 -7.0 8.9 -7.1 8.85 -7.15 L8.85 -7.25 8.9 -7.35 9.0 -7.4 9.0 -7.55 8.95 -7.6 8.9 -7.55 8.9 -7.55 8.8 -7.5 8.75 -7.45 8.8 -7.35 Q8.8 -7.25 8.8 -7.15 L8.8 -7.15 8.85 -7.05 8.8 -7.1 8.75 -7.1 8.7 -7.25 8.65 -7.3 8.65 -7.0 8.65 -7.0 Q8.65 -6.95 8.75 -6.8 L8.8 -6.75 Q8.95 -6.55 9.05 -6.55 L9.15 -6.55 9.1 -6.55 9.05 -6.7 9.0 -6.75 9.0 -6.85 8.95 -6.95 9.05 -6.85 9.1 -6.75 9.15 -6.75 9.15 -6.7 9.2 -6.65 9.3 -6.65 9.3 -6.55 9.35 -6.4 9.45 -6.25 9.45 -6.15 9.4 -6.15 Q9.35 -6.15 9.25 -6.25 L9.15 -6.35 Q9.05 -6.3 8.95 -6.4 8.85 -6.5 8.8 -6.65 L8.75 -6.65 8.6 -6.8 8.6 -6.55 8.45 -6.65 8.35 -6.75 8.4 -6.8 8.4 -6.9 8.35 -7.1 8.3 -7.3 8.35 -7.5 8.4 -7.6 8.35 -7.65 8.25 -7.7 Q8.15 -7.7 8.1 -7.75 L8.1 -7.8 8.1 -7.95 Q8.1 -8.1 8.1 -8.15 L8.15 -8.15 8.2 -8.15 8.25 -8.15 8.25 -8.25 8.3 -8.3 Q8.4 -8.3 8.4 -8.4 L8.4 -8.45 8.35 -8.5 8.35 -8.55 8.3 -8.6 Q8.2 -8.7 8.15 -8.8 L8.25 -8.85 8.3 -8.95 8.3 -9.0 8.3 -9.05 8.35 -9.1 8.3 -9.15 8.25 -9.2 8.2 -9.2 8.15 -9.2 Q8.15 -9.2 8.1 -9.2 L8.05 -9.25 8.0 -9.3 7.95 -9.3 Q7.8 -9.35 7.8 -9.6 7.8 -9.65 7.85 -9.7 L7.95 -9.8 7.95 -9.95 8.0 -10.05 8.0 -10.05 Q8.0 -10.2 8.0 -10.35 L8.0 -10.4 Q8.0 -10.6 8.1 -10.75 L8.15 -10.8 8.2 -10.9 8.2 -11.1 8.25 -11.15 8.3 -11.35 8.3 -11.5 8.25 -11.65 Q8.25 -11.75 8.35 -11.85 L8.5 -11.95 8.6 -12.05 8.65 -12.1 8.65 -12.0 Q8.65 -11.9 8.7 -11.85 L8.7 -11.85 8.75 -11.8 8.75 -11.7 8.65 -11.5 8.65 -11.45 8.6 -11.4 8.55 -11.4 8.6 -11.4 8.6 -11.4 8.7 -11.4 8.7 -11.4 8.75 -11.4 8.7 -11.2 8.7 -11.2 8.65 -11.1 Q8.6 -11.05 8.6 -11.0 L8.6 -10.95 8.65 -11.0 Q8.7 -11.0 8.75 -11.05 L8.85 -11.5 8.85 -11.55 8.85 -11.65 8.9 -11.75 8.95 -11.7 8.95 -11.3 8.95 -11.25 8.95 -11.25 8.9 -11.05 8.9 -11.05 8.8 -10.85 8.75 -10.7 Q8.75 -10.55 8.65 -10.55 8.6 -10.55 8.55 -10.6 L8.55 -10.65 8.55 -10.95 8.5 -11.0 Q8.45 -11.05 8.45 -11.15 L8.45 -11.25 Q8.35 -11.2 8.35 -11.0 8.35 -10.8 8.25 -10.8 L8.25 -10.8 Q8.25 -10.7 8.35 -10.65 L8.4 -10.5 8.35 -10.5 8.25 -10.1 8.2 -9.9 Q8.2 -9.8 8.15 -9.8 L8.1 -9.8 8.1 -9.75 8.1 -9.65 8.15 -9.65 8.15 -9.6 8.2 -9.6 8.2 -9.65 8.25 -9.6 8.3 -9.55 8.4 -9.85 8.4 -9.9 8.35 -10.0 8.4 -10.05 8.45 -10.1 8.4 -10.2 8.35 -10.3 8.4 -10.4 8.45 -10.45 8.55 -10.4 8.6 -10.45 8.65 -10.5 8.7 -10.55 8.7 -10.55 8.75 -10.5 8.8 -10.5 8.85 -10.55 8.85 -10.55 8.9 -10.55 8.9 -10.6 8.95 -10.75 9.0 -10.85 9.0 -11.0 Q9.0 -11.05 9.05 -11.05 L9.15 -11.1 9.15 -11.15 9.15 -11.2 9.25 -11.2 Q9.4 -11.2 9.4 -11.05 L9.4 -11.0 9.35 -10.95 9.35 -11.05 9.3 -11.05 Q9.15 -11.1 9.15 -10.9 L9.15 -10.85 9.05 -10.7 9.1 -10.7 Q9.1 -10.6 9.25 -10.6 L9.4 -10.65 9.4 -10.7 Q9.35 -10.7 9.35 -10.8 L9.4 -10.85 9.5 -10.8 9.5 -10.75 9.5 -10.7 9.5 -10.7 9.45 -10.6 9.5 -10.6 9.5 -10.6 9.55 -10.65 Q9.55 -10.65 9.6 -10.65 L9.7 -10.55 9.65 -10.45 9.6 -10.45 9.55 -10.55 9.5 -10.5 9.5 -10.5 9.45 -10.5 9.4 -10.45 9.4 -10.4 9.4 -10.35 9.35 -10.3 9.35 -10.3 9.4 -10.25 9.45 -10.2 9.4 -10.2 9.45 -10.15 9.45 -10.15 9.4 -10.05 9.35 -10.05 9.35 -10.0 9.4 -9.95 9.45 -10.0 9.45 -10.0 9.5 -9.95 9.5 -9.95 9.55 -10.0 9.5 -9.9 9.5 -9.85 9.45 -9.85 9.4 -9.8 9.35 -9.85 9.3 -9.9 9.25 -9.9 9.2 -9.85 9.1 -9.9 9.05 -9.9 9.0 -9.9 9.0 -9.9 8.95 -9.9 8.95 -9.9 8.95 -9.95 8.9 -9.9 8.9 -9.85 8.9 -9.8 9.0 -9.8 9.05 -9.7 9.0 -9.65 9.0 -9.65 8.95 -9.65 8.9 -9.6 8.9 -9.55 8.85 -9.5 8.85 -9.5 8.8 -9.45 8.7 -9.4 8.7 -9.35 8.65 -9.35 8.6 -9.25 8.65 -9.2 8.65 -9.1 8.6 -9.05 8.6 -9.05 8.65 -9.1 8.65 -9.1 8.7 -9.05 Q8.75 -9.05 8.8 -9.05 L8.8 -9.1 8.75 -9.15 8.7 -9.2 8.65 -9.25 8.7 -9.3 8.75 -9.3 8.75 -9.3 8.75 -9.3 8.8 -9.3 8.8 -9.3 8.85 -9.35 8.85 -9.4 8.9 -9.45 8.95 -9.5 8.95 -9.55 9.0 -9.6 9.05 -9.6 9.1 -9.55 9.2 -9.65 9.3 -9.7 9.35 -9.65 9.35 -9.6 9.45 -9.6 9.5 -9.55 9.5 -9.45 9.5 -9.35 9.45 -9.35 9.4 -9.35 9.4 -9.35 9.35 -9.4 9.25 -9.3 9.25 -9.2 Q9.2 -9.15 9.15 -9.15 9.05 -9.15 9.05 -9.1 L9.05 -9.05 9.1 -9.05 9.15 -9.0 9.15 -8.95 9.2 -8.95 9.25 -8.95 9.25 -8.95 9.25 -9.0 9.2 -9.05 9.25 -9.1 9.35 -9.2 9.4 -9.15 9.4 -9.05 9.45 -9.05 9.45 -9.0 9.5 -9.0 9.55 -9.0 9.6 -9.0 Q9.5 -9.05 9.5 -9.05 L9.5 -9.2 9.55 -9.3 9.6 -9.3 9.6 -9.2 9.65 -9.2 9.65 -9.2 9.75 -9.1 9.8 -9.05 9.8 -9.1 9.85 -9.1 9.9 -9.05 9.95 -9.05 10.0 -9.05 10.0 -9.1 10.0 -9.1 9.95 -9.15 9.9 -9.15 9.9 -9.2 10.0 -9.25 9.95 -9.25 9.95 -9.25 9.9 -9.3 9.9 -9.25 9.85 -9.25 9.8 -9.3 9.8 -9.35 9.8 -9.4 9.85 -9.4 9.9 -9.4 Q9.9 -9.35 9.95 -9.35 L9.95 -9.4 10.0 -9.4 9.9 -9.45 9.8 -9.55 9.85 -9.6 9.85 -9.7 9.9 -9.75 10.0 -9.8 10.05 -9.75 10.15 -9.7 10.2 -9.7 10.25 -9.75 10.35 -9.65 10.4 -9.5 10.4 -9.35 10.45 -9.35 10.5 -9.3 10.5 -9.2 10.6 -9.2 10.65 -9.2 10.7 -9.2 10.75 -9.15 10.8 -9.05 10.8 -9.0 10.85 -9.0 10.9 -9.0 10.9 -8.95 10.95 -8.9 11.0 -8.85 11.05 -8.75 11.0 -8.7 10.95 -8.7 10.9 -8.7 10.85 -8.75 10.85 -8.75 10.8 -8.75 Q10.75 -8.7 10.75 -8.7 10.7 -8.7 10.65 -8.75 L10.55 -8.8 10.5 -8.75 10.4 -8.65 10.45 -8.55 10.5 -8.5 10.5 -8.45 10.45 -8.35 10.45 -8.35 10.5 -8.3 10.4 -8.2 10.4 -8.15 10.35 -8.15 10.3 -8.15 10.2 -8.15 10.1 -8.2 10.1 -8.25 10.05 -8.2 10.0 -8.15 10.05 -8.05 10.1 -8.0 10.05 -8.0 10.05 -7.9 10.1 -7.85 10.0 -7.8 9.95 -7.8 9.9 -7.8 9.85 -7.85 9.75 -7.85 9.7 -7.85 9.75 -7.8 9.85 -7.75 9.9 -7.6 10.0 -7.6 10.05 -7.55 10.1 -7.45 10.15 -7.45 10.2 -7.45 10.35 -7.45 10.35 -7.4 Q10.35 -7.3 10.2 -7.3 L10.15 -7.3 Q10.4 -7.1 10.4 -7.0 L10.35 -6.9 Q10.35 -6.85 10.25 -6.85 L10.1 -6.85 10.05 -6.9 10.0 -6.95 9.9 -7.05 9.85 -7.15 9.8 -7.0 Q9.8 -6.95 9.7 -6.95 L9.65 -6.95 9.65 -6.9 9.7 -6.9 9.8 -6.85 9.85 -6.85 10.0 -6.8 10.05 -6.8 10.05 -6.6 M10.15 -7.45 L10.15 -7.45 10.05 -7.4 10.0 -7.4 10.0 -7.4 10.1 -7.35 10.15 -7.3 10.15 -7.3 10.2 -7.35 10.2 -7.4 10.15 -7.45 M8.45 -11.25 Q8.5 -11.25 8.5 -11.35 L8.5 -11.5 8.45 -11.5 8.35 -11.45 8.35 -11.4 8.4 -11.3 8.45 -11.25 M8.45 -10.25 L8.6 -10.15 8.6 -10.1 8.65 -10.05 8.75 -10.1 8.8 -10.1 8.9 -10.1 8.9 -10.15 8.8 -10.2 8.75 -10.25 8.75 -10.3 8.8 -10.4 8.8 -10.45 8.75 -10.45 8.6 -10.35 8.45 -10.25 M8.5 -9.95 L8.45 -9.9 8.5 -9.85 8.5 -9.7 8.6 -9.7 8.65 -9.75 8.65 -9.85 8.75 -9.9 8.75 -9.95 8.7 -9.95 8.65 -10.0 8.6 -10.0 8.5 -9.95 M8.9 -10.5 L8.9 -10.45 8.85 -10.4 8.85 -10.3 8.85 -10.25 8.85 -10.25 8.9 -10.25 8.95 -10.25 8.95 -10.25 9.0 -10.2 9.05 -10.25 9.1 -10.3 9.15 -10.3 9.15 -10.25 9.2 -10.3 9.2 -10.35 9.25 -10.35 9.25 -10.4 9.3 -10.4 9.4 -10.45 9.45 -10.55 9.35 -10.5 9.1 -10.5 8.95 -10.5 8.9 -10.5 M9.05 -10.1 L9.1 -10.05 9.15 -10.05 9.2 -10.1 9.25 -10.15 9.2 -10.15 9.15 -10.2 9.1 -10.2 9.05 -10.15 9.05 -10.1 M9.45 -10.6 L9.45 -10.6 9.45 -10.6 M8.05 -9.5 L8.0 -9.45 Q8.0 -9.4 8.1 -9.4 L8.1 -9.35 8.2 -9.35 8.25 -9.3 8.3 -9.3 8.4 -9.25 8.45 -9.3 8.45 -9.35 8.5 -9.45 8.6 -9.5 8.55 -9.5 8.5 -9.55 8.4 -9.55 Q8.35 -9.5 8.35 -9.4 L8.3 -9.4 8.3 -9.4 8.25 -9.45 8.25 -9.5 8.15 -9.45 8.1 -9.5 8.05 -9.55 8.05 -9.5 M7.7 -8.95 L7.7 -8.9 7.65 -8.9 7.65 -8.9 7.6 -8.95 7.65 -8.95 7.65 -8.95 7.7 -8.95 7.7 -8.95 M8.0 -9.2 L8.05 -9.15 8.05 -9.15 7.95 -9.05 8.0 -9.0 7.95 -8.95 7.95 -9.0 7.9 -9.0 7.85 -9.05 7.85 -9.05 7.9 -9.15 7.95 -9.2 8.0 -9.2 8.0 -9.2 M7.9 -8.6 L8.05 -8.65 8.1 -8.7 8.1 -8.7 8.05 -8.5 7.9 -8.4 Q7.85 -8.4 7.8 -8.45 L7.75 -8.55 7.8 -8.6 7.8 -8.65 7.85 -8.65 7.85 -8.6 7.9 -8.6 7.9 -8.6 M7.55 -8.25 L7.5 -8.25 7.5 -8.2 7.4 -8.2 7.4 -8.25 7.45 -8.3 7.45 -8.3 7.5 -8.35 7.5 -8.35 7.55 -8.3 7.55 -8.25 M7.6 -7.8 L7.6 -7.8 7.65 -7.9 7.65 -7.85 7.7 -7.85 7.7 -7.85 7.75 -7.9 7.8 -7.95 7.85 -8.05 7.85 -8.0 7.85 -8.0 7.9 -7.9 7.9 -7.85 Q7.9 -7.75 7.75 -7.65 L7.65 -7.65 7.65 -7.65 7.6 -7.7 7.6 -7.8 M10.15 -9.6 L10.1 -9.6 10.05 -9.55 10.0 -9.6 9.95 -9.7 Q9.9 -9.65 9.9 -9.6 9.9 -9.55 10.0 -9.4 L10.05 -9.35 10.1 -9.35 Q10.15 -9.3 10.15 -9.3 10.2 -9.3 10.25 -9.4 L10.2 -9.5 10.3 -9.55 10.25 -9.55 10.15 -9.6 10.15 -9.6 M10.5 -9.05 L10.45 -9.05 10.5 -9.05 10.55 -9.0 10.5 -8.9 10.55 -8.85 10.6 -8.8 10.7 -8.85 10.7 -9.0 10.6 -9.0 10.55 -9.0 10.5 -9.05 10.5 -9.05 M10.2 -9.1 L10.2 -9.1 10.15 -9.15 10.15 -9.1 10.1 -9.05 10.1 -8.95 10.15 -8.95 10.2 -9.0 10.2 -9.1 M10.15 -8.8 L10.1 -8.7 10.1 -8.6 10.05 -8.6 10.0 -8.6 10.0 -8.6 10.05 -8.55 10.1 -8.5 10.1 -8.5 10.15 -8.45 10.1 -8.35 10.1 -8.35 10.05 -8.35 10.05 -8.35 10.0 -8.35 10.05 -8.3 10.1 -8.3 10.1 -8.3 Q10.1 -8.3 10.15 -8.25 10.2 -8.25 10.2 -8.25 10.25 -8.25 10.3 -8.3 L10.35 -8.5 10.4 -8.7 10.4 -8.8 10.35 -8.85 10.35 -8.9 10.25 -8.95 10.25 -9.0 10.2 -8.95 10.15 -8.95 10.15 -8.95 10.2 -8.9 10.2 -8.9 10.15 -8.8 M9.2 -9.4 L9.05 -9.55 9.05 -9.45 9.0 -9.4 9.0 -9.35 9.05 -9.3 Q9.1 -9.3 9.1 -9.35 L9.15 -9.35 9.15 -9.35 9.2 -9.4 M9.3 -8.75 L9.3 -8.75 Q9.25 -8.7 9.25 -8.65 L9.3 -8.5 9.35 -8.35 9.3 -8.2 9.3 -8.15 9.35 -8.15 9.4 -8.2 9.45 -8.3 9.45 -8.3 9.5 -8.5 9.45 -8.65 9.4 -8.65 9.35 -8.75 9.3 -8.75 M9.8 -8.85 L9.8 -8.85 9.85 -8.8 9.85 -8.8 9.9 -8.8 9.95 -8.8 10.0 -8.85 10.0 -8.9 Q9.95 -8.85 9.95 -8.85 L9.9 -8.85 Q9.85 -8.85 9.85 -8.9 L9.8 -8.85 M9.65 -8.85 L9.65 -8.75 9.65 -8.75 9.7 -8.8 9.7 -8.85 9.65 -8.85 M8.85 -9.65 L8.8 -9.7 8.7 -9.7 8.7 -9.55 8.7 -9.55 Q8.75 -9.55 8.8 -9.6 L8.85 -9.65 M8.5 -9.0 L8.5 -9.0 8.45 -8.95 8.4 -8.9 8.35 -8.8 Q8.35 -8.75 8.45 -8.7 L8.55 -8.7 8.6 -8.65 8.65 -8.55 8.7 -8.55 8.8 -8.65 8.85 -8.75 8.9 -8.8 8.9 -8.85 8.85 -8.85 8.8 -8.85 8.75 -8.85 8.65 -8.95 8.55 -9.0 8.5 -9.0 M8.95 -9.2 L8.95 -9.2 8.9 -9.25 8.85 -9.25 8.85 -9.25 Q8.8 -9.2 8.8 -9.2 L8.8 -9.2 8.85 -9.15 8.95 -9.15 8.95 -9.2 M9.05 -8.4 L9.1 -8.35 9.15 -8.35 9.2 -8.35 9.25 -8.4 9.2 -8.4 9.2 -8.45 9.15 -8.45 9.1 -8.45 9.1 -8.45 9.0 -8.4 9.0 -8.45 9.0 -8.4 9.05 -8.4 M8.65 -8.5 L8.55 -8.4 8.45 -8.3 8.6 -8.25 8.6 -8.25 8.7 -8.3 8.8 -8.3 8.85 -8.25 Q8.9 -8.25 8.95 -8.25 L8.95 -8.25 8.85 -8.35 8.85 -8.45 Q8.8 -8.5 8.7 -8.5 L8.65 -8.5 M8.65 -8.1 L8.55 -8.05 8.5 -8.0 8.5 -7.95 8.55 -7.95 8.55 -7.95 8.7 -8.0 8.7 -8.05 8.75 -8.15 8.7 -8.25 8.7 -8.2 8.65 -8.1 M8.4 -7.85 L8.35 -7.95 8.35 -7.95 8.3 -7.9 8.25 -7.85 8.35 -7.75 8.4 -7.7 8.4 -7.65 8.45 -7.65 8.45 -7.6 Q8.5 -7.6 8.5 -7.6 8.55 -7.6 8.65 -7.65 L8.7 -7.7 8.75 -7.75 8.7 -7.8 8.65 -7.75 Q8.6 -7.75 8.6 -7.75 8.6 -7.75 8.55 -7.75 L8.5 -7.8 8.5 -7.8 8.45 -7.8 8.4 -7.85 M8.95 -7.95 L8.9 -7.85 8.85 -7.8 8.8 -7.8 8.9 -7.75 8.95 -7.7 8.95 -7.65 9.0 -7.6 9.0 -7.6 Q9.05 -7.6 9.1 -7.6 L9.2 -7.65 9.2 -7.7 9.15 -7.75 9.1 -7.75 9.05 -7.75 9.0 -7.75 9.0 -7.95 8.95 -7.95 M9.9 -8.55 L9.85 -8.55 9.8 -8.55 9.75 -8.55 9.75 -8.55 9.7 -8.65 9.7 -8.65 9.65 -8.65 9.65 -8.45 9.6 -8.45 9.55 -8.35 9.6 -8.3 9.65 -8.25 9.7 -8.15 9.75 -8.15 9.8 -8.15 9.8 -8.25 9.8 -8.3 9.75 -8.35 9.75 -8.4 9.8 -8.45 9.85 -8.5 9.9 -8.5 10.0 -8.5 10.05 -8.5 9.95 -8.55 9.9 -8.55 M9.85 -8.1 L9.85 -8.05 9.85 -8.05 9.9 -8.1 9.95 -8.2 9.9 -8.15 9.85 -8.15 9.85 -8.1 M9.45 -8.1 L9.4 -8.05 9.3 -8.0 9.2 -8.05 9.15 -8.05 9.15 -8.0 9.15 -7.9 Q9.2 -7.9 9.25 -7.9 L9.45 -8.0 9.5 -8.05 9.5 -8.05 9.55 -8.05 9.55 -8.1 9.5 -8.15 9.45 -8.1 9.45 -8.1 M9.4 -7.8 L9.4 -7.75 9.4 -7.75 9.45 -7.85 9.4 -7.8 M9.5 -7.95 L9.55 -7.95 9.6 -7.95 9.55 -8.0 9.5 -7.9 9.5 -7.95 M9.95 -6.55 L9.9 -6.65 9.8 -6.8 9.75 -6.7 9.7 -6.6 9.65 -6.55 9.65 -6.5 9.7 -6.35 Q9.8 -6.25 9.85 -6.15 L9.9 -6.2 9.95 -6.25 9.9 -6.35 Q9.8 -6.45 9.85 -6.5 L9.95 -6.55 M10.05 -7.2 L10.05 -7.2 10.0 -7.1 10.05 -7.0 10.1 -6.95 10.2 -6.95 10.25 -6.95 10.25 -7.05 10.15 -7.15 10.1 -7.2 10.05 -7.2 M9.7 -7.65 L9.7 -7.7 9.65 -7.55 9.65 -7.45 Q9.65 -7.3 9.7 -7.3 9.75 -7.3 9.8 -7.35 L9.85 -7.45 9.7 -7.65" fill="#6de6ff" fill-rule="evenodd" stroke="none"/>
    <path d="M8.85 -7.05 L8.85 -7.05 8.9 -7.0 8.95 -6.95 9.0 -6.85 9.0 -6.75 9.05 -6.7 9.1 -6.55 9.15 -6.55 9.05 -6.55 Q8.95 -6.55 8.8 -6.75 L8.75 -6.8 Q8.65 -6.95 8.65 -7.0 L8.65 -7.0 8.65 -7.3 8.7 -7.25 8.75 -7.1 8.8 -7.1 8.85 -7.05 M9.65 -10.45 L9.6 -10.35 9.6 -10.35 9.55 -10.35 9.5 -10.3 9.5 -10.25 9.45 -10.25 9.45 -10.2 9.4 -10.25 9.35 -10.3 9.35 -10.3 9.4 -10.35 9.4 -10.4 9.4 -10.45 9.45 -10.5 9.5 -10.5 9.5 -10.5 9.55 -10.55 9.6 -10.45 9.65 -10.45 M10.15 -7.45 L10.2 -7.4 10.2 -7.35 10.15 -7.3 10.15 -7.3 10.1 -7.35 10.0 -7.4 10.0 -7.4 10.05 -7.4 10.15 -7.45 10.15 -7.45 M8.45 -11.25 L8.4 -11.3 8.35 -11.4 8.35 -11.45 8.45 -11.5 8.5 -11.5 8.5 -11.35 Q8.5 -11.25 8.45 -11.25 L8.45 -11.3 8.45 -11.25 M8.85 -11.55 L8.85 -11.5 8.75 -11.05 Q8.7 -11.0 8.65 -11.0 L8.6 -10.95 8.6 -11.0 Q8.6 -11.05 8.65 -11.1 L8.7 -11.2 8.7 -11.2 8.75 -11.4 8.75 -11.45 8.85 -11.55 M9.35 -10.8 Q9.35 -10.7 9.4 -10.7 L9.4 -10.65 9.25 -10.6 Q9.1 -10.6 9.1 -10.7 L9.05 -10.7 9.15 -10.85 9.15 -10.9 Q9.15 -11.1 9.3 -11.05 L9.35 -11.05 9.35 -10.95 9.35 -10.85 9.3 -10.8 9.35 -10.8 9.35 -10.8 M8.5 -9.95 L8.6 -10.0 8.65 -10.0 8.7 -9.95 8.75 -9.95 8.75 -9.9 8.65 -9.85 8.65 -9.75 8.6 -9.7 8.5 -9.7 8.5 -9.85 8.45 -9.9 8.5 -9.95 M8.45 -10.25 L8.6 -10.35 8.75 -10.45 8.8 -10.45 8.8 -10.4 8.75 -10.3 8.75 -10.25 8.8 -10.2 8.9 -10.15 8.9 -10.1 8.8 -10.1 8.75 -10.1 8.65 -10.05 8.6 -10.1 8.6 -10.15 8.45 -10.25 M9.05 -10.1 L9.05 -10.15 9.1 -10.2 9.15 -10.2 9.2 -10.15 9.25 -10.15 9.2 -10.1 9.15 -10.05 9.1 -10.05 9.05 -10.1 M8.05 -9.5 L8.05 -9.55 8.1 -9.5 8.15 -9.45 8.25 -9.5 8.25 -9.45 8.3 -9.4 8.3 -9.4 8.35 -9.4 Q8.35 -9.5 8.4 -9.55 L8.5 -9.55 8.55 -9.5 8.6 -9.5 8.5 -9.45 8.45 -9.35 8.45 -9.3 8.4 -9.25 8.3 -9.3 8.25 -9.3 8.2 -9.35 8.1 -9.35 8.1 -9.4 Q8.0 -9.4 8.0 -9.45 L8.05 -9.5 M10.15 -9.6 L10.15 -9.6 10.25 -9.55 10.3 -9.55 10.2 -9.5 10.25 -9.4 Q10.2 -9.3 10.15 -9.3 10.15 -9.3 10.1 -9.35 L10.05 -9.35 10.0 -9.4 Q9.9 -9.55 9.9 -9.6 9.9 -9.65 9.95 -9.7 L10.0 -9.6 10.05 -9.55 10.1 -9.6 10.15 -9.6 M10.5 -9.05 L10.5 -9.05 10.55 -9.0 10.6 -9.0 10.7 -9.0 10.7 -8.85 10.6 -8.8 10.55 -8.85 10.5 -8.9 10.55 -9.0 10.5 -9.05 10.45 -9.05 10.5 -9.05 M9.2 -9.4 L9.15 -9.35 9.15 -9.35 9.1 -9.35 Q9.1 -9.3 9.05 -9.3 L9.0 -9.35 9.0 -9.4 9.05 -9.45 9.05 -9.55 9.2 -9.4 M10.15 -8.8 L10.2 -8.9 10.2 -8.9 10.15 -8.95 10.15 -8.95 10.2 -8.95 10.25 -9.0 10.25 -8.95 10.35 -8.9 10.35 -8.85 10.4 -8.8 10.4 -8.7 10.35 -8.5 10.3 -8.3 Q10.25 -8.25 10.2 -8.25 10.2 -8.25 10.15 -8.25 10.1 -8.3 10.1 -8.3 L10.1 -8.3 10.05 -8.3 10.0 -8.35 10.05 -8.35 10.05 -8.35 10.1 -8.35 10.1 -8.35 10.15 -8.45 10.1 -8.5 10.1 -8.5 10.05 -8.55 10.0 -8.6 10.0 -8.6 10.05 -8.6 10.1 -8.6 10.1 -8.7 10.15 -8.8 M9.3 -8.75 L9.35 -8.75 9.4 -8.65 9.45 -8.65 9.5 -8.5 9.45 -8.3 9.45 -8.3 9.4 -8.2 9.35 -8.15 9.3 -8.15 9.3 -8.2 9.35 -8.35 9.3 -8.5 9.25 -8.65 Q9.25 -8.7 9.3 -8.75 L9.3 -8.75 M8.95 -9.2 L8.95 -9.15 8.85 -9.15 8.8 -9.2 8.8 -9.2 Q8.8 -9.2 8.85 -9.25 L8.85 -9.25 8.9 -9.25 8.95 -9.2 8.95 -9.2 M8.5 -9.0 L8.55 -9.0 8.65 -8.95 8.75 -8.85 8.8 -8.85 8.85 -8.85 8.9 -8.85 8.9 -8.8 8.85 -8.75 8.8 -8.65 8.7 -8.55 8.65 -8.55 8.6 -8.65 8.55 -8.7 8.45 -8.7 Q8.35 -8.75 8.35 -8.8 L8.4 -8.9 8.45 -8.95 8.5 -9.0 8.5 -9.0 M8.85 -9.65 L8.8 -9.6 Q8.75 -9.55 8.7 -9.55 L8.7 -9.55 8.7 -9.7 8.8 -9.7 8.85 -9.65 M9.65 -8.85 L9.7 -8.85 9.7 -8.8 9.65 -8.75 9.65 -8.75 9.65 -8.85 M9.8 -8.85 L9.85 -8.9 Q9.85 -8.85 9.9 -8.85 L9.95 -8.85 Q9.95 -8.85 10.0 -8.9 L10.0 -8.85 9.95 -8.8 9.9 -8.8 9.85 -8.8 9.85 -8.8 9.8 -8.85 9.8 -8.85 M8.65 -8.5 L8.7 -8.5 Q8.8 -8.5 8.85 -8.45 L8.85 -8.35 8.95 -8.25 8.95 -8.25 Q8.9 -8.25 8.85 -8.25 L8.8 -8.3 8.7 -8.3 8.6 -8.25 8.6 -8.25 8.45 -8.3 8.55 -8.4 8.65 -8.5 M8.95 -7.95 L9.0 -7.95 9.0 -7.75 9.05 -7.75 9.1 -7.75 9.15 -7.75 9.2 -7.7 9.2 -7.65 9.1 -7.6 Q9.05 -7.6 9.0 -7.6 L9.0 -7.6 8.95 -7.65 8.95 -7.7 8.9 -7.75 8.8 -7.8 8.85 -7.8 8.9 -7.85 8.95 -7.95 M8.4 -7.85 L8.45 -7.8 8.5 -7.8 8.5 -7.8 8.55 -7.75 Q8.6 -7.75 8.6 -7.75 8.6 -7.75 8.65 -7.75 L8.7 -7.8 8.75 -7.75 8.7 -7.7 8.65 -7.65 Q8.55 -7.6 8.5 -7.6 8.5 -7.6 8.45 -7.6 L8.45 -7.65 8.4 -7.65 8.4 -7.7 8.35 -7.75 8.25 -7.85 8.3 -7.9 8.35 -7.95 8.35 -7.95 8.4 -7.85 M9.45 -8.1 L9.45 -8.1 9.5 -8.15 9.55 -8.1 9.55 -8.05 9.5 -8.05 9.5 -8.05 9.45 -8.0 9.25 -7.9 Q9.2 -7.9 9.15 -7.9 L9.15 -8.0 9.15 -8.05 9.2 -8.05 9.3 -8.0 9.4 -8.05 9.45 -8.1 M9.85 -8.1 L9.85 -8.15 9.9 -8.15 9.95 -8.2 9.9 -8.1 9.85 -8.05 9.85 -8.05 9.85 -8.1 M9.75 -7.45 L9.7 -7.45 9.75 -7.4 9.75 -7.45 M9.7 -7.65 L9.85 -7.45 9.8 -7.35 Q9.75 -7.3 9.7 -7.3 9.65 -7.3 9.65 -7.45 L9.65 -7.55 9.7 -7.7 9.7 -7.65 M10.05 -7.2 L10.1 -7.2 10.15 -7.15 10.25 -7.05 10.25 -6.95 10.2 -6.95 10.1 -6.95 10.05 -7.0 10.0 -7.1 10.05 -7.2 10.05 -7.2 M9.95 -6.55 L9.85 -6.5 Q9.8 -6.45 9.9 -6.35 L9.95 -6.25 9.9 -6.2 9.85 -6.15 Q9.8 -6.25 9.7 -6.35 L9.65 -6.5 9.65 -6.55 9.7 -6.6 9.75 -6.7 9.8 -6.8 9.9 -6.65 9.95 -6.55" fill="#cbffff" fill-rule="evenodd" stroke="none"/>
  </g>
</svg>
