<?xml version="1.0" encoding="UTF-8" standalone="no"?>
<svg xmlns:xlink="http://www.w3.org/1999/xlink" height="4.35px" width="6.1px" xmlns="http://www.w3.org/2000/svg">
  <g transform="matrix(1.0, 0.0, 0.0, 1.0, -5.05, 11.2)">
    <path d="M9.1 -10.85 L9.1 -10.85 9.15 -10.9 9.15 -10.85 9.15 -10.8 9.1 -10.75 9.1 -10.8 9.1 -10.85 9.1 -10.8 9.05 -10.8 9.05 -10.8 9.05 -10.85 9.1 -10.9 9.1 -10.85 M8.85 -11.05 L8.9 -11.05 8.9 -11.0 8.85 -11.0 8.85 -11.0 8.85 -11.05 8.85 -11.05 M9.65 -11.2 L9.65 -11.2 9.65 -11.15 9.6 -11.15 9.6 -11.2 9.65 -11.2 M8.75 -10.85 L8.75 -10.8 8.75 -10.75 8.7 -10.75 8.7 -10.8 8.75 -10.85 8.75 -10.85 M8.25 -10.9 L8.25 -10.9 8.25 -10.95 8.3 -10.9 8.3 -10.9 Q8.25 -10.9 8.25 -10.9 M8.6 -10.6 L8.6 -10.65 8.6 -10.7 8.65 -10.65 8.65 -10.65 8.6 -10.6 M8.2 -10.55 L8.2 -10.5 8.2 -10.55 8.2 -10.6 8.2 -10.55 M8.15 -9.95 L8.2 -9.95 8.2 -9.85 8.15 -9.85 8.1 -9.95 8.15 -9.95 8.15 -9.95 M9.75 -10.95 L9.75 -10.95 9.75 -11.0 9.8 -11.0 9.8 -10.95 9.75 -10.9 9.75 -10.95 M9.8 -10.85 L9.8 -10.85 9.75 -10.8 9.75 -10.75 9.8 -10.75 9.8 -10.7 9.75 -10.65 9.7 -10.7 9.7 -10.75 9.75 -10.85 9.75 -10.85 9.8 -10.85 9.8 -10.85 M10.4 -10.25 L10.4 -10.2 10.4 -10.15 10.35 -10.15 10.35 -10.15 10.35 -10.25 10.4 -10.25 M9.8 -10.1 L9.8 -10.1 9.85 -10.2 9.85 -10.15 9.85 -10.1 9.8 -10.1 9.8 -10.1 M9.6 -10.0 L9.6 -10.05 9.65 -10.05 9.65 -10.05 9.65 -10.0 9.6 -10.0 9.6 -10.0 M9.25 -10.0 L9.25 -10.0 9.3 -10.0 9.3 -10.0 9.3 -9.95 9.25 -9.95 9.25 -10.0 M9.3 -10.15 L9.3 -10.15 9.35 -10.2 9.35 -10.2 9.4 -10.15 9.4 -10.15 9.35 -10.15 9.35 -10.1 9.3 -10.1 9.3 -10.15 M9.2 -10.55 L9.2 -10.55 9.25 -10.55 9.25 -10.55 9.2 -10.5 9.2 -10.5 9.2 -10.55 M9.95 -10.55 L9.95 -10.6 10.0 -10.65 10.0 -10.65 10.05 -10.65 10.05 -10.65 10.0 -10.6 10.0 -10.55 9.95 -10.55 M9.7 -10.55 L9.75 -10.5 9.75 -10.5 9.7 -10.5 9.7 -10.5 9.65 -10.45 9.65 -10.45 9.65 -10.5 9.7 -10.55 9.7 -10.55 M10.5 -10.1 L10.5 -10.05 10.45 -10.05 10.45 -10.05 10.4 -10.05 10.45 -10.05 10.45 -10.05 10.5 -10.1 M7.75 -9.8 L7.8 -9.8 7.8 -9.75 7.8 -9.75 7.75 -9.7 7.75 -9.75 7.7 -9.8 7.7 -9.8 7.75 -9.8 7.75 -9.8 M7.6 -10.15 L7.6 -10.15 7.65 -10.1 7.7 -10.1 7.75 -10.05 7.7 -10.05 7.65 -10.05 7.65 -10.1 7.6 -10.1 7.6 -10.15 M10.8 -9.95 L10.8 -10.0 10.85 -10.0 10.85 -10.0 10.85 -10.0 10.8 -9.95 10.8 -9.95 M10.75 -9.95 L10.75 -9.9 10.7 -9.9 10.7 -9.9 10.7 -9.95 10.7 -9.95 10.75 -9.95 10.75 -9.95 M7.75 -9.3 L7.75 -9.3 7.75 -9.25 7.7 -9.25 7.7 -9.3 7.7 -9.35 7.75 -9.3 M8.5 -9.35 L8.45 -9.35 8.4 -9.25 8.4 -9.2 8.35 -9.1 8.3 -9.05 8.25 -9.0 8.3 -8.95 8.35 -8.95 8.4 -8.85 8.4 -8.8 8.35 -8.75 8.4 -8.7 8.4 -8.65 8.35 -8.6 8.3 -8.55 8.3 -8.55 8.25 -8.55 8.25 -8.55 8.2 -8.5 8.15 -8.5 Q8.15 -8.5 8.15 -8.55 L8.15 -8.6 8.2 -8.6 8.2 -8.6 8.15 -8.65 8.15 -8.65 Q8.15 -8.65 8.1 -8.6 L8.05 -8.6 8.05 -8.6 8.0 -8.6 8.05 -8.65 8.1 -8.75 8.05 -8.9 8.0 -9.0 8.0 -9.0 8.05 -9.0 8.1 -8.95 8.2 -8.85 8.2 -8.85 8.25 -8.9 8.2 -8.95 8.2 -9.0 8.15 -9.0 8.15 -9.1 8.2 -9.1 8.2 -9.15 8.25 -9.15 8.3 -9.2 8.35 -9.3 8.35 -9.3 8.3 -9.35 8.3 -9.35 8.3 -9.35 8.25 -9.35 8.15 -9.35 8.0 -9.4 7.9 -9.4 7.95 -9.45 8.1 -9.5 8.3 -9.4 8.35 -9.45 8.4 -9.45 8.45 -9.45 8.5 -9.4 8.5 -9.35 M7.45 -9.15 L7.4 -9.1 7.4 -9.15 7.4 -9.2 7.45 -9.2 7.45 -9.15 M7.85 -8.9 L7.9 -8.8 7.95 -8.75 7.95 -8.55 7.9 -8.45 7.85 -8.5 7.85 -8.6 7.85 -8.8 7.8 -8.85 7.8 -8.9 7.85 -8.9 M8.1 -8.15 L8.1 -8.2 8.15 -8.2 8.15 -8.2 8.15 -8.15 8.1 -8.1 8.1 -8.15 M10.65 -9.55 L10.7 -9.55 10.75 -9.55 10.75 -9.5 10.75 -9.5 10.7 -9.5 10.65 -9.5 10.65 -9.55 M11.15 -8.6 L11.05 -8.6 11.05 -8.6 11.1 -8.65 11.1 -8.65 11.15 -8.6 11.15 -8.6 M10.7 -9.0 L10.75 -9.0 10.8 -8.95 10.75 -8.95 10.7 -8.95 10.7 -8.95 10.65 -8.95 10.65 -9.0 10.7 -9.0 M10.8 -9.15 L10.8 -9.15 10.75 -9.1 10.75 -9.1 10.7 -9.1 10.7 -9.15 10.75 -9.15 10.75 -9.15 10.8 -9.15 10.8 -9.15 M10.2 -9.05 L10.25 -9.0 10.25 -9.0 10.2 -8.95 10.2 -8.95 10.15 -8.9 10.1 -8.9 10.1 -8.9 10.1 -9.05 10.05 -9.15 9.95 -9.15 10.0 -9.2 10.05 -9.2 10.1 -9.2 10.15 -9.15 10.15 -9.1 10.2 -9.05 M10.55 -9.3 L10.6 -9.25 10.6 -9.25 10.55 -9.2 10.55 -9.2 10.55 -9.2 10.5 -9.2 10.5 -9.25 10.5 -9.3 10.55 -9.3 M10.15 -9.5 L10.15 -9.45 10.15 -9.45 10.1 -9.45 10.1 -9.5 10.05 -9.5 10.1 -9.55 10.1 -9.5 10.15 -9.5 M10.25 -9.75 Q10.25 -9.75 10.2 -9.8 L10.2 -9.8 10.15 -9.75 10.1 -9.75 10.05 -9.8 10.05 -9.8 10.1 -9.85 10.15 -9.85 10.15 -9.85 10.2 -9.85 10.25 -9.85 10.25 -9.75 M10.6 -9.65 L10.55 -9.65 10.55 -9.65 10.55 -9.65 10.6 -9.7 10.6 -9.65 M10.4 -9.7 L10.4 -9.7 10.45 -9.7 10.45 -9.75 10.5 -9.7 10.5 -9.7 10.45 -9.7 Q10.45 -9.65 10.4 -9.7 M10.95 -9.4 L10.95 -9.35 10.9 -9.35 10.9 -9.4 10.95 -9.45 10.95 -9.4 10.95 -9.4 M10.9 -8.5 L10.85 -8.5 10.85 -8.5 10.85 -8.5 10.9 -8.5 10.9 -8.5 M10.65 -8.55 L10.75 -8.5 10.8 -8.5 10.75 -8.45 10.75 -8.45 10.7 -8.5 10.65 -8.5 10.65 -8.45 10.6 -8.45 10.6 -8.45 10.55 -8.5 10.6 -8.55 10.65 -8.55 10.65 -8.55 M10.35 -8.35 L10.35 -8.35 10.3 -8.35 10.3 -8.4 10.3 -8.4 10.3 -8.4 10.35 -8.35 M9.9 -9.65 L9.9 -9.65 9.85 -9.65 9.85 -9.6 9.85 -9.65 9.8 -9.7 9.8 -9.7 9.85 -9.7 9.9 -9.65 M10.15 -7.85 L10.15 -7.85 10.1 -7.85 10.1 -7.85 10.05 -7.9 10.05 -7.9 10.1 -7.9 10.1 -7.9 10.15 -7.9 10.15 -7.85 M10.4 -8.0 L10.4 -8.0 10.35 -8.0 10.35 -8.0 10.35 -8.0 10.3 -8.0 10.3 -8.0 10.35 -8.0 10.4 -8.0 M9.8 -9.65 L9.8 -9.6 9.8 -9.6 9.8 -9.55 9.75 -9.55 9.75 -9.6 9.75 -9.65 9.8 -9.65 M9.15 -9.4 L9.15 -9.45 9.2 -9.5 9.3 -9.5 9.4 -9.45 9.5 -9.45 9.55 -9.45 9.65 -9.5 9.65 -9.45 9.7 -9.4 9.65 -9.3 9.65 -9.2 9.7 -9.1 9.65 -9.0 9.6 -8.9 9.65 -8.85 9.65 -8.75 Q9.65 -8.65 9.55 -8.55 L9.4 -8.5 9.4 -8.5 9.35 -8.55 9.4 -8.6 9.4 -8.65 9.35 -8.65 9.35 -8.6 9.3 -8.6 9.3 -8.65 9.3 -8.8 9.3 -8.9 9.3 -8.95 9.25 -8.95 9.25 -9.0 9.3 -8.95 9.4 -8.9 Q9.4 -8.85 9.45 -8.85 9.5 -8.85 9.5 -8.9 L9.5 -9.0 9.5 -9.0 9.45 -9.0 9.4 -8.95 9.4 -9.0 9.4 -9.05 9.4 -9.1 9.5 -9.15 9.55 -9.2 9.6 -9.2 9.55 -9.3 9.45 -9.35 9.35 -9.35 9.3 -9.35 9.2 -9.35 9.15 -9.4 M9.0 -9.05 L9.0 -9.0 9.05 -9.0 9.1 -8.95 9.1 -8.95 9.2 -8.85 9.25 -8.65 9.25 -8.6 9.2 -8.55 9.15 -8.5 Q9.15 -8.5 9.15 -8.6 L9.15 -8.7 9.1 -8.75 9.05 -8.8 Q9.0 -8.9 8.95 -8.9 L8.9 -8.85 8.9 -8.85 8.85 -8.85 8.85 -8.85 8.8 -8.9 8.8 -8.9 8.85 -8.95 8.85 -9.05 8.8 -9.1 8.75 -9.15 8.75 -9.2 8.8 -9.25 8.85 -9.25 8.95 -9.2 9.0 -9.05 9.0 -9.05 M9.65 -8.9 L9.65 -8.95 9.65 -8.95 9.7 -8.95 9.7 -8.95 9.75 -8.95 9.75 -8.9 9.7 -8.9 9.7 -8.9 9.65 -8.9 9.65 -8.9 M9.95 -9.45 L9.9 -9.5 9.9 -9.5 9.95 -9.55 9.95 -9.5 9.95 -9.5 9.95 -9.45 M9.35 -9.85 L9.35 -9.8 9.4 -9.8 9.35 -9.75 9.35 -9.8 9.3 -9.8 9.35 -9.85 M8.7 -9.85 L8.7 -9.85 8.7 -9.85 8.65 -9.85 8.65 -9.85 8.6 -9.9 8.65 -9.9 8.65 -9.9 8.7 -9.9 8.7 -9.85 M8.45 -8.85 L8.45 -8.85 8.5 -8.85 8.55 -8.8 8.55 -8.8 8.5 -8.8 8.45 -8.8 8.45 -8.8 8.45 -8.85 M8.75 -8.55 L8.8 -8.55 8.8 -8.5 8.85 -8.5 8.85 -8.5 8.8 -8.5 8.8 -8.5 8.8 -8.5 8.75 -8.55 M9.0 -8.85 L9.05 -8.8 9.05 -8.75 9.0 -8.8 9.0 -8.85 M8.9 -7.8 L8.9 -7.7 8.9 -7.65 8.85 -7.7 8.85 -7.75 8.85 -7.8 8.8 -7.75 8.8 -7.8 8.8 -7.85 8.85 -7.9 8.9 -7.85 8.9 -7.8 M8.9 -7.6 L8.95 -7.6 8.95 -7.55 8.9 -7.55 8.9 -7.6 8.9 -7.6 M9.45 -7.9 L9.5 -7.9 9.5 -7.85 9.55 -7.85 9.55 -7.85 9.5 -7.8 9.5 -7.85 9.45 -7.9 M9.6 -8.45 L9.6 -8.45 9.6 -8.35 9.55 -8.4 9.55 -8.4 9.5 -8.4 9.55 -8.4 9.6 -8.45 M10.0 -8.15 L9.95 -8.15 9.95 -8.15 9.9 -8.15 9.9 -8.2 9.95 -8.2 9.95 -8.15 10.0 -8.15 M9.7 -8.1 L9.7 -8.1 9.65 -8.15 9.7 -8.2 9.75 -8.2 9.75 -8.15 9.8 -8.15 9.8 -8.1 9.75 -8.05 9.75 -8.0 Q9.7 -8.0 9.7 -8.0 L9.7 -8.1 M9.95 -8.65 L9.95 -8.65 9.95 -8.6 9.95 -8.6 9.9 -8.6 9.9 -8.65 9.95 -8.65 9.95 -8.65 M9.85 -8.0 L9.9 -8.0 9.85 -7.95 9.85 -8.0 9.85 -8.05 9.85 -8.0 M9.1 -7.4 L9.1 -7.4 9.1 -7.35 9.05 -7.4 9.1 -7.4 9.1 -7.4 M9.8 -7.8 L9.8 -7.75 9.85 -7.75 9.85 -7.75 9.8 -7.75 9.8 -7.7 9.75 -7.75 9.75 -7.75 9.8 -7.8" fill="#417ee9" fill-rule="evenodd" stroke="none"/>
    <path d="M7.75 -9.25 L7.75 -9.3 7.75 -9.3 7.95 -9.5 8.0 -9.6 Q8.05 -9.7 8.15 -9.7 8.4 -9.7 8.45 -9.55 L8.5 -9.4 8.45 -9.45 8.4 -9.45 8.35 -9.45 8.3 -9.4 8.1 -9.5 7.95 -9.45 7.9 -9.4 8.0 -9.4 8.15 -9.35 8.25 -9.35 8.3 -9.35 8.3 -9.35 8.3 -9.35 8.35 -9.3 8.35 -9.3 8.3 -9.2 8.25 -9.15 8.2 -9.15 8.2 -9.1 8.15 -9.1 8.15 -9.0 8.2 -9.0 8.2 -8.95 8.25 -8.9 8.2 -8.85 8.2 -8.85 8.1 -8.95 8.05 -9.0 8.0 -9.0 8.0 -9.0 8.05 -8.9 8.1 -8.75 8.05 -8.65 8.0 -8.6 8.05 -8.6 8.05 -8.6 8.1 -8.6 Q8.15 -8.65 8.15 -8.65 L8.15 -8.65 8.2 -8.6 8.2 -8.6 8.15 -8.6 8.15 -8.55 Q8.15 -8.5 8.15 -8.5 L8.2 -8.5 8.25 -8.55 8.25 -8.55 8.3 -8.55 8.3 -8.55 8.35 -8.6 8.4 -8.65 8.4 -8.7 8.35 -8.75 8.4 -8.8 8.4 -8.85 8.35 -8.95 8.3 -8.95 8.25 -9.0 8.3 -9.05 8.35 -9.1 8.4 -9.2 8.4 -9.25 8.45 -9.35 8.5 -9.35 8.5 -9.2 Q8.5 -9.15 8.55 -9.1 8.6 -9.05 8.65 -9.05 L8.75 -8.95 8.8 -8.9 8.8 -8.9 8.6 -8.8 8.55 -8.75 8.55 -8.65 Q8.55 -8.5 8.4 -8.5 8.3 -8.45 8.3 -8.35 8.3 -8.3 8.35 -8.25 L8.4 -8.2 8.5 -8.15 8.5 -8.05 Q8.5 -8.0 8.4 -7.9 8.3 -7.8 8.25 -7.65 L8.2 -7.65 8.15 -7.7 8.1 -7.7 8.05 -7.65 Q7.9 -7.65 7.85 -7.85 L7.6 -7.85 7.45 -7.75 Q7.35 -7.75 7.15 -7.85 L7.1 -7.9 7.15 -7.9 7.5 -7.95 7.65 -8.05 7.75 -8.15 7.85 -7.95 7.9 -8.1 7.95 -8.25 Q7.95 -8.35 7.7 -8.4 L7.55 -8.45 Q7.55 -8.5 7.55 -8.6 7.55 -8.7 7.55 -8.75 L7.65 -8.9 7.75 -9.1 7.75 -9.25 M7.85 -8.9 L7.8 -8.9 7.8 -8.85 7.85 -8.8 7.85 -8.6 7.85 -8.5 7.9 -8.45 7.95 -8.55 7.95 -8.75 7.9 -8.8 7.85 -8.9 M6.8 -8.45 L6.85 -8.4 6.8 -8.4 Q6.75 -8.5 6.6 -8.5 L6.55 -8.5 Q6.5 -8.45 6.5 -8.45 6.45 -8.45 6.4 -8.5 L6.35 -8.5 Q6.3 -8.5 6.25 -8.35 L6.2 -8.1 6.2 -8.0 Q6.2 -7.95 6.35 -7.95 L6.3 -7.85 6.3 -7.7 6.35 -7.65 6.35 -7.6 6.3 -7.4 6.15 -7.25 6.1 -7.2 6.0 -7.15 5.85 -7.05 5.8 -7.15 5.7 -7.2 5.6 -7.15 5.5 -7.15 Q5.5 -7.15 5.4 -7.15 L5.35 -7.2 Q5.25 -7.2 5.15 -7.1 L5.05 -6.85 5.1 -7.05 5.2 -7.3 5.35 -7.4 5.55 -7.45 5.75 -7.4 6.0 -7.4 6.1 -7.55 6.05 -7.6 6.0 -7.6 6.0 -7.7 5.85 -7.75 5.8 -7.75 5.75 -7.65 5.65 -7.75 5.65 -7.8 5.7 -7.85 5.7 -8.0 5.65 -8.05 5.75 -8.25 Q5.9 -8.45 6.0 -8.5 L6.25 -8.6 6.55 -8.7 6.65 -8.65 6.7 -8.55 6.8 -8.45 M8.1 -8.15 L8.1 -8.1 8.15 -8.15 8.15 -8.2 8.15 -8.2 8.1 -8.2 8.1 -8.15 M9.25 -8.95 L9.3 -8.95 9.3 -8.9 9.3 -8.8 9.3 -8.65 9.3 -8.6 9.35 -8.6 9.35 -8.65 9.4 -8.65 9.4 -8.6 9.35 -8.55 9.4 -8.5 9.4 -8.5 9.55 -8.55 Q9.65 -8.65 9.65 -8.75 L9.65 -8.85 9.6 -8.9 9.65 -9.0 9.7 -9.1 9.65 -9.2 9.65 -9.3 9.7 -9.4 9.65 -9.45 9.65 -9.5 9.55 -9.45 9.5 -9.45 9.4 -9.45 9.3 -9.5 9.2 -9.5 9.15 -9.45 9.15 -9.4 9.15 -9.4 9.25 -9.5 9.4 -9.55 9.45 -9.55 9.55 -9.5 9.65 -9.55 9.7 -9.55 Q9.8 -9.55 9.85 -9.1 L9.75 -9.0 9.7 -8.95 9.65 -8.95 9.65 -8.95 9.65 -8.9 9.65 -8.85 9.7 -8.75 9.8 -8.7 Q9.8 -8.6 9.55 -8.55 L9.35 -8.5 Q9.3 -8.5 9.25 -8.6 L9.25 -8.6 9.25 -8.65 9.2 -8.85 9.1 -8.95 9.1 -8.95 9.05 -9.0 9.0 -9.0 9.0 -9.05 9.1 -9.05 9.2 -8.95 9.25 -8.95 M9.2 -9.35 L9.3 -9.35 9.35 -9.35 9.45 -9.35 9.55 -9.3 9.6 -9.2 9.55 -9.2 9.5 -9.15 9.4 -9.1 9.4 -9.05 9.25 -9.15 Q9.2 -9.15 9.2 -9.3 L9.2 -9.35 M8.45 -8.85 L8.45 -8.8 8.45 -8.8 8.5 -8.8 8.55 -8.8 8.55 -8.8 8.5 -8.85 8.45 -8.85 8.45 -8.85" fill="#417ee9" fill-opacity="0.49803922" fill-rule="evenodd" stroke="none"/>
  </g>
</svg>
