<?xml version="1.0" encoding="UTF-8" standalone="no"?>
<svg xmlns:xlink="http://www.w3.org/1999/xlink" height="17.8px" width="15.3px" xmlns="http://www.w3.org/2000/svg">
  <g transform="matrix(1.0, 0.0, 0.0, 1.0, -0.15, 12.6)">
    <path d="M7.4 -6.45 Q7.2 -6.5 7.1 -6.55 L7.0 -6.55 Q6.9 -6.55 6.95 -6.4 L6.95 -6.35 Q7.05 -6.2 7.25 -6.25 L7.3 -6.25 7.8 -6.05 Q8.05 -5.95 7.95 -5.75 7.85 -5.6 7.7 -5.65 L7.5 -5.7 7.45 -5.7 7.3 -5.7 7.25 -5.7 6.95 -5.65 Q6.8 -5.55 6.85 -5.4 6.9 -5.3 7.05 -5.3 L7.1 -5.3 Q7.25 -5.2 7.4 -5.15 L7.45 -5.15 Q7.5 -5.0 7.65 -4.95 L7.8 -4.85 7.8 -4.6 8.0 -4.35 8.0 -4.3 Q8.0 -4.15 7.8 -4.0 L7.65 -4.0 7.6 -3.95 7.55 -3.9 7.45 -3.8 7.4 -3.8 7.25 -3.8 Q7.3 -3.6 7.5 -3.65 L7.6 -3.65 7.85 -3.6 Q7.95 -3.5 7.95 -3.4 L7.9 -3.25 Q7.75 -3.05 7.85 -2.85 L7.9 -2.8 7.9 -2.75 7.8 -2.7 Q7.55 -2.65 7.4 -2.45 7.3 -2.35 7.3 -2.15 7.3 -2.05 7.2 -2.05 L7.0 -1.9 6.95 -1.8 Q6.9 -1.7 6.75 -1.65 L6.6 -1.65 6.5 -1.6 6.5 -1.55 Q6.6 -1.45 6.75 -1.45 L7.15 -1.45 7.4 -1.5 Q7.55 -1.6 7.75 -1.6 L7.8 -1.55 Q7.85 -1.45 7.85 -1.35 L7.8 -1.3 7.75 -1.2 Q7.7 -0.9 7.4 -1.0 7.25 -1.0 7.25 -0.85 L7.2 -0.85 Q7.15 -0.75 7.2 -0.7 L7.8 -0.75 Q7.9 -0.75 7.95 -0.6 7.95 -0.5 7.8 -0.45 L7.8 -0.4 Q7.8 -0.3 7.85 -0.2 7.95 -0.15 7.9 -0.05 L7.8 0.05 Q7.65 0.2 7.45 0.15 7.3 0.15 7.25 0.25 L7.2 0.3 7.1 0.45 6.95 0.5 6.85 0.5 Q6.7 0.7 6.5 0.65 L6.3 0.65 6.2 0.7 Q6.1 0.7 6.05 0.75 L6.0 0.75 Q5.8 0.75 5.65 0.65 L5.6 0.65 5.5 0.75 5.45 0.8 Q5.3 0.9 5.5 0.95 L5.3 1.1 Q5.2 1.1 5.15 1.0 L5.15 0.95 5.05 0.85 5.0 0.8 Q4.95 0.8 4.95 0.75 L4.9 0.65 Q4.85 0.45 4.7 0.6 4.6 0.7 4.45 0.65 L4.4 0.6 4.25 0.5 4.3 0.5 Q4.4 0.45 4.35 0.35 L4.3 0.3 Q4.2 0.3 4.15 0.15 4.1 0.0 4.2 -0.05 4.25 0.15 4.4 0.05 L4.45 0.0 4.55 -0.25 4.75 -0.4 4.75 -0.5 4.7 -0.6 4.65 -0.65 Q4.5 -0.7 4.55 -0.85 L4.55 -1.1 Q4.65 -1.4 4.4 -1.6 L4.4 -1.65 4.35 -1.7 Q4.35 -1.75 4.35 -1.8 L4.55 -2.05 Q4.7 -2.2 4.6 -2.35 L4.55 -2.4 4.55 -2.45 4.75 -2.85 4.75 -2.9 4.65 -3.1 4.6 -3.1 Q4.45 -3.2 4.45 -3.4 L4.35 -3.65 4.35 -3.7 4.55 -3.85 4.6 -3.9 4.65 -3.95 Q4.8 -4.1 4.65 -4.2 L4.65 -4.25 Q4.6 -4.35 4.65 -4.5 L4.7 -4.55 4.7 -4.7 4.65 -4.85 4.6 -5.05 Q4.55 -5.1 4.6 -5.2 L4.65 -5.25 4.65 -5.25 4.7 -5.25 4.7 -5.25 Q4.85 -5.25 4.9 -5.3 L4.85 -5.5 Q4.85 -5.65 4.9 -5.75 5.05 -6.0 4.85 -6.2 L4.8 -6.25 4.8 -6.4 4.75 -6.45 Q4.7 -6.55 4.85 -6.65 L4.9 -6.65 Q5.0 -6.6 5.0 -6.75 L5.0 -6.8 5.0 -6.95 5.05 -7.0 Q5.15 -7.05 5.15 -7.15 L5.15 -7.2 Q5.1 -7.3 5.05 -7.45 L5.05 -7.5 Q5.15 -7.65 5.0 -7.8 4.9 -7.9 4.85 -8.05 L4.85 -8.1 4.8 -8.15 5.3 -7.95 5.65 -8.15 Q6.0 -8.05 6.2 -7.75 L6.35 -7.65 6.4 -7.65 6.7 -7.7 6.8 -7.7 7.1 -7.55 Q7.1 -7.5 7.15 -7.5 L7.4 -7.4 Q7.55 -7.3 7.5 -7.05 7.45 -6.95 7.5 -6.85 L7.5 -6.75 7.35 -6.55 7.4 -6.45 7.4 -6.45 M5.45 2.5 L5.55 2.45 5.65 2.4 Q5.8 2.3 5.65 2.15 L5.6 2.1 Q5.5 1.95 5.65 1.8 L5.7 1.7 5.8 1.55 6.0 1.15 Q6.05 1.05 6.2 1.05 L6.3 1.05 6.65 1.0 6.75 0.95 6.8 0.95 Q7.05 0.9 7.25 0.65 L7.25 0.7 Q7.35 0.75 7.3 0.9 L7.3 0.95 Q7.25 1.25 7.15 1.45 7.1 1.6 6.9 1.6 6.8 1.6 6.75 1.7 L6.5 1.9 6.45 1.95 6.45 2.0 Q6.35 2.1 6.2 2.1 L6.15 2.1 Q6.05 2.15 5.95 2.2 5.8 2.35 5.7 2.5 L5.6 2.55 5.55 2.55 5.45 2.5 M11.25 -0.2 L11.2 -0.25 11.15 -0.3 Q11.15 -0.3 11.1 -0.3 L11.05 -0.35 11.0 -0.35 10.95 -0.4 10.95 -0.4 10.85 -0.4 10.7 -0.4 Q10.55 -0.4 10.5 -0.5 L10.45 -0.55 Q10.35 -0.55 10.25 -0.65 10.4 -0.8 10.6 -0.85 10.75 -0.85 10.8 -1.0 L10.8 -1.05 10.65 -1.1 Q10.2 -1.05 9.85 -1.2 L9.7 -1.2 9.2 -1.3 9.1 -1.25 8.95 -1.25 8.6 -1.25 8.55 -1.25 8.5 -1.45 8.5 -1.5 8.55 -1.55 Q8.7 -1.65 8.7 -1.85 8.7 -2.0 8.85 -2.0 9.0 -2.0 9.05 -2.1 L9.1 -2.15 Q9.05 -2.35 8.9 -2.2 L8.85 -2.2 8.65 -2.2 Q8.5 -2.3 8.45 -2.5 L8.45 -2.6 Q8.25 -2.9 8.3 -3.3 L8.35 -3.6 8.35 -3.7 Q8.3 -3.9 8.35 -4.1 L8.35 -4.2 8.3 -4.7 8.3 -4.8 8.5 -4.95 8.6 -5.05 8.7 -5.0 8.85 -5.0 9.1 -4.9 9.15 -4.85 9.4 -4.85 Q9.6 -4.9 9.7 -4.8 L9.75 -4.75 Q9.75 -4.6 9.85 -4.5 9.9 -4.45 10.05 -4.45 10.25 -4.5 10.25 -4.25 L10.2 -4.2 Q10.15 -4.1 10.25 -4.0 10.4 -3.85 10.6 -3.9 L10.85 -3.95 11.55 -4.05 11.65 -4.05 12.05 -4.0 12.2 -4.05 12.45 -4.0 12.45 -4.0 Q12.6 -3.9 12.8 -3.9 13.0 -3.9 12.95 -3.65 12.95 -3.6 13.0 -3.55 13.05 -3.4 13.25 -3.45 13.4 -3.45 13.5 -3.35 L13.4 -3.3 13.2 -3.2 Q13.2 -3.15 13.15 -3.15 13.05 -3.15 12.95 -3.1 L12.85 -3.0 Q12.6 -2.9 12.35 -2.85 L12.15 -2.85 11.6 -2.9 11.3 -2.85 10.75 -2.7 10.65 -2.7 Q10.45 -2.7 10.25 -2.55 L10.15 -2.4 10.1 -2.35 Q9.95 -2.25 9.95 -2.1 L9.95 -2.1 10.05 -2.15 10.4 -2.15 10.5 -2.1 10.55 -2.1 10.6 -2.0 10.55 -1.9 10.6 -1.85 10.75 -1.7 10.8 -1.65 Q10.85 -1.6 10.95 -1.55 11.05 -1.45 11.2 -1.45 L11.25 -1.45 11.35 -1.4 11.95 -1.3 12.0 -1.3 12.25 -1.3 12.4 -1.3 Q12.4 -1.15 12.3 -1.1 L12.25 -1.1 Q12.05 -1.1 12.05 -0.95 L12.05 -0.85 11.95 -0.8 11.8 -0.75 11.75 -0.65 11.8 -0.35 11.8 -0.3 Q11.8 -0.15 11.6 -0.2 L11.5 -0.2 11.25 -0.2 M6.05 -10.05 Q6.15 -10.0 6.25 -10.1 L6.3 -10.15 Q6.35 -10.15 6.3 -10.25 L6.3 -10.35 6.5 -10.3 Q6.75 -10.25 6.95 -10.1 L7.5 -9.9 7.55 -9.8 7.75 -9.5 7.55 -9.6 7.2 -9.5 6.9 -9.55 6.6 -9.75 6.05 -10.05 M5.7 -9.6 L6.3 -9.45 6.35 -9.4 Q6.4 -9.25 6.6 -9.15 L6.65 -9.15 6.7 -9.15 6.8 -9.15 6.9 -9.2 7.2 -9.15 7.5 -8.85 7.5 -8.75 Q7.5 -8.6 7.55 -8.45 L7.65 -8.3 Q7.7 -8.2 7.65 -8.15 L7.6 -8.1 7.45 -8.0 7.4 -8.0 7.2 -7.95 7.0 -8.05 6.8 -8.1 6.75 -8.15 6.5 -8.15 6.4 -8.35 6.25 -8.65 Q6.15 -8.8 5.9 -8.8 L5.85 -8.85 Q5.65 -9.0 5.5 -9.2 L5.55 -9.25 5.75 -9.5 5.75 -9.55 5.7 -9.6 M0.55 -2.0 Q0.65 -2.1 0.65 -2.3 L0.65 -2.35 0.6 -2.45 Q0.6 -2.6 0.7 -2.65 L0.7 -2.7 0.75 -2.75 0.85 -2.8 0.9 -2.8 Q1.0 -2.85 1.1 -2.95 L1.2 -2.95 Q1.35 -2.8 1.35 -2.6 L1.35 -2.5 1.4 -2.25 Q1.45 -2.2 1.4 -2.1 L1.35 -2.05 1.35 -2.0 1.3 -1.9 1.3 -1.85 1.3 -1.7 1.3 -1.65 Q1.3 -1.55 1.25 -1.5 L1.2 -1.35 1.2 -1.25 1.2 -1.2 1.15 -1.2 Q1.1 -1.1 1.0 -1.1 L1.0 -1.1 0.95 -1.05 0.95 -1.0 0.9 -0.95 0.8 -0.95 0.8 -1.0 0.75 -1.05 0.7 -1.1 0.75 -1.25 0.7 -1.3 0.75 -1.3 0.75 -1.4 0.8 -1.4 0.75 -1.45 0.75 -1.5 0.6 -1.55 0.6 -1.55 0.6 -1.55 0.55 -1.75 0.6 -1.75 0.6 -1.8 0.65 -1.8 0.65 -1.9 0.6 -1.95 0.55 -2.0 M6.0 2.8 Q6.3 2.85 6.35 2.55 6.35 2.4 6.45 2.3 L6.55 2.3 6.65 2.3 Q6.75 2.3 6.8 2.25 L6.95 2.05 7.05 2.0 7.1 2.0 7.25 1.95 7.5 1.9 Q7.55 1.9 7.55 1.95 7.65 2.05 7.65 2.15 7.6 2.4 7.45 2.5 L7.2 2.65 Q7.0 2.75 7.0 2.95 L7.0 3.05 Q6.85 3.3 6.5 3.4 L6.4 3.45 6.2 3.5 6.25 3.3 6.0 3.35 5.8 3.4 5.8 3.15 Q5.9 3.1 6.05 2.95 L6.05 2.9 6.0 2.8" fill="#f8fcf8" fill-rule="evenodd" stroke="none"/>
    <path d="M7.5 -11.55 Q7.7 -11.4 7.85 -11.3 7.95 -11.25 8.0 -11.25 L8.05 -11.2 8.5 -10.9 8.7 -10.6 8.75 -10.45 8.85 -10.3 8.9 -10.0 8.85 -9.35 Q8.85 -9.3 8.8 -9.3 8.6 -9.3 8.55 -9.45 L8.5 -9.5 Q8.4 -9.5 8.35 -9.4 L8.3 -9.25 8.35 -9.2 Q8.4 -9.15 8.45 -9.15 L8.5 -9.15 Q8.65 -9.1 8.65 -8.95 L8.65 -8.75 8.6 -8.65 Q8.6 -8.6 8.65 -8.55 8.85 -8.4 8.75 -8.2 L8.75 -8.15 8.7 -7.95 Q8.6 -7.65 8.3 -7.45 L8.25 -7.45 8.15 -7.55 8.1 -7.6 8.05 -7.65 8.0 -7.65 7.9 -7.6 7.85 -7.6 7.75 -7.65 7.5 -7.95 7.45 -8.0 7.6 -8.1 7.65 -8.15 Q7.7 -8.2 7.65 -8.3 L7.55 -8.45 Q7.5 -8.6 7.5 -8.75 L7.5 -8.85 7.2 -9.15 6.9 -9.2 6.8 -9.15 6.7 -9.15 6.65 -9.15 6.6 -9.15 Q6.4 -9.25 6.35 -9.4 L6.3 -9.45 5.7 -9.6 5.65 -9.65 5.6 -9.75 5.55 -9.8 Q5.6 -10.0 5.75 -10.05 L5.8 -10.1 Q5.85 -10.25 5.95 -10.1 L6.05 -10.05 6.6 -9.75 6.9 -9.55 7.2 -9.5 7.55 -9.6 7.75 -9.5 7.55 -9.8 7.5 -9.9 6.95 -10.1 Q6.75 -10.25 6.5 -10.3 L6.3 -10.35 6.35 -10.4 6.35 -10.45 6.45 -10.75 6.45 -10.8 Q6.5 -10.9 6.65 -10.85 6.85 -10.8 6.9 -10.95 L6.8 -11.05 Q6.75 -11.05 6.75 -11.1 6.7 -11.3 6.5 -11.35 L6.4 -11.35 Q6.25 -11.35 6.25 -11.45 L6.2 -11.6 6.2 -11.65 Q6.15 -11.8 6.2 -11.85 L6.4 -11.75 Q6.4 -11.7 6.45 -11.7 6.6 -11.8 6.7 -11.65 L6.75 -11.6 Q6.85 -11.5 6.95 -11.55 6.85 -11.55 6.8 -11.65 L6.75 -11.65 Q6.75 -11.7 6.75 -11.75 L6.75 -11.8 Q6.75 -11.95 6.8 -12.0 L7.1 -11.85 7.15 -11.85 7.2 -11.85 7.3 -11.7 7.5 -11.5 7.5 -11.55 M7.25 0.65 L7.3 0.55 Q7.35 0.5 7.45 0.5 L7.5 0.5 Q7.75 0.5 7.85 0.3 L7.9 0.3 8.25 0.35 Q8.45 0.4 8.45 0.6 L8.5 0.65 Q8.55 0.7 8.5 0.8 L8.5 0.85 8.45 1.0 8.4 1.05 Q8.25 1.25 8.25 1.45 L8.25 1.5 Q8.2 1.6 8.2 1.75 L8.25 1.7 8.3 1.7 8.4 1.75 Q8.5 1.75 8.55 1.7 L8.6 1.6 Q8.7 1.5 8.75 1.6 L8.8 1.65 8.8 1.75 8.75 1.8 Q8.85 1.75 8.95 1.75 L9.05 1.8 9.05 1.85 Q9.0 2.25 8.85 2.55 L8.8 2.7 8.65 3.1 8.55 3.2 8.3 3.45 Q8.25 3.5 8.3 3.55 L8.3 3.6 8.35 3.65 Q8.45 3.8 8.4 3.95 L8.35 4.0 8.3 4.2 8.25 4.3 8.25 4.4 8.2 4.45 8.1 4.55 8.05 4.6 7.9 4.7 7.8 4.75 7.6 4.85 7.55 4.95 7.4 5.15 7.35 5.1 7.3 5.05 Q7.3 5.05 7.2 5.05 L6.95 5.15 6.85 5.2 Q6.65 5.25 6.6 5.1 6.55 5.0 6.6 4.9 L6.6 4.8 Q6.55 4.7 6.4 4.6 L6.25 4.45 6.25 4.35 6.3 4.3 6.35 4.3 6.6 4.25 6.6 4.3 6.65 4.25 Q6.8 4.15 6.75 4.0 L6.75 3.9 Q6.85 3.8 6.7 3.7 L6.6 3.7 6.45 3.7 6.4 3.7 Q6.2 3.7 6.2 3.5 L6.4 3.45 6.5 3.4 Q6.85 3.3 7.0 3.05 L7.0 2.95 Q7.0 2.75 7.2 2.65 L7.45 2.5 Q7.6 2.4 7.65 2.15 7.65 2.05 7.55 1.95 7.55 1.9 7.5 1.9 L7.25 1.95 7.1 2.0 7.05 2.0 6.95 2.05 6.8 2.25 Q6.75 2.3 6.65 2.3 L6.55 2.3 6.45 2.3 Q6.35 2.4 6.35 2.55 6.3 2.85 6.0 2.8 L6.0 2.65 5.95 2.6 Q5.9 2.45 5.8 2.5 L5.75 2.5 5.7 2.5 Q5.8 2.35 5.95 2.2 6.05 2.15 6.15 2.1 L6.2 2.1 Q6.35 2.1 6.45 2.0 L6.45 1.95 6.5 1.9 6.75 1.7 Q6.8 1.6 6.9 1.6 7.1 1.6 7.15 1.45 7.25 1.25 7.3 0.95 L7.3 0.9 Q7.35 0.75 7.25 0.7 L7.25 0.65 M9.3 -6.8 L10.0 -6.65 Q10.05 -6.6 10.05 -6.6 L10.45 -6.65 10.6 -6.65 10.8 -6.45 10.8 -6.4 10.75 -6.3 10.55 -6.3 10.2 -6.2 10.15 -6.2 Q10.05 -6.1 9.85 -6.15 L9.45 -6.2 9.4 -6.2 9.25 -6.1 9.2 -6.1 Q9.1 -6.1 9.0 -6.05 L8.9 -5.95 Q8.8 -5.8 8.6 -5.75 8.55 -6.1 8.6 -6.4 L8.7 -6.75 8.7 -6.85 8.75 -6.85 8.8 -6.8 8.9 -6.75 Q8.95 -6.7 9.05 -6.75 L9.3 -6.8" fill="#f8ecf8" fill-rule="evenodd" stroke="none"/>
    <path d="M6.3 -12.55 L6.3 -12.55 Q6.5 -12.65 6.6 -12.5 L6.65 -12.45 7.0 -12.4 7.0 -12.35 7.05 -12.35 7.05 -12.15 Q7.0 -12.05 6.9 -12.05 L6.8 -12.05 6.75 -12.1 6.7 -12.15 6.55 -12.05 6.5 -12.0 Q6.4 -12.0 6.4 -12.15 L6.4 -12.35 6.4 -12.4 Q6.4 -12.5 6.3 -12.55 M7.95 -12.5 Q7.95 -12.4 7.9 -12.4 L7.85 -12.3 Q7.8 -12.25 7.75 -12.3 L7.7 -12.3 Q7.65 -12.45 7.8 -12.55 L7.8 -12.55 7.9 -12.55 7.95 -12.5 M5.8 -12.2 L5.8 -12.15 Q5.85 -12.1 5.8 -12.0 5.8 -11.95 5.8 -11.95 L5.75 -11.95 5.7 -11.95 5.7 -12.0 5.6 -12.05 Q5.6 -12.15 5.75 -12.15 5.75 -12.15 5.8 -12.2 M5.4 -11.5 L5.6 -11.65 5.6 -11.65 5.7 -11.65 5.8 -11.55 Q5.85 -11.5 5.8 -11.4 L5.75 -11.4 5.7 -11.35 5.6 -11.35 5.55 -11.35 5.5 -11.4 5.4 -11.5 M5.45 -10.9 L5.4 -10.8 5.35 -10.85 5.3 -10.8 5.3 -10.9 5.4 -11.0 5.4 -11.05 5.45 -10.9 5.45 -10.9 M4.05 -8.95 Q4.0 -9.1 4.1 -9.15 L4.15 -9.2 4.25 -9.25 4.25 -9.2 4.3 -9.2 Q4.35 -9.1 4.3 -9.0 L4.25 -8.95 Q4.15 -8.8 4.05 -8.95 M4.6 -8.95 L4.65 -8.95 Q4.75 -9.0 4.8 -8.9 L4.85 -8.85 4.9 -8.6 4.9 -8.5 4.9 -8.4 4.8 -8.3 4.7 -8.3 4.7 -8.3 4.6 -8.4 Q4.55 -8.5 4.55 -8.6 L4.55 -8.7 4.6 -8.9 4.6 -8.95 M4.4 -7.15 Q4.45 -7.05 4.55 -7.05 4.6 -7.0 4.6 -6.9 L4.45 -6.75 4.3 -6.75 Q4.2 -6.8 4.15 -6.85 L4.05 -6.85 Q4.0 -6.85 3.95 -6.9 3.9 -6.95 3.9 -7.05 L3.9 -7.25 4.35 -7.2 4.4 -7.15 M0.6 -1.55 L0.45 -1.65 0.45 -1.65 Q0.35 -1.65 0.35 -1.6 L0.3 -1.55 0.25 -1.5 0.2 -1.5 0.15 -1.55 0.15 -1.65 0.25 -1.8 0.4 -1.95 0.5 -1.95 0.55 -2.0 0.6 -1.95 0.65 -1.9 0.65 -1.8 0.6 -1.8 0.6 -1.75 0.55 -1.75 0.6 -1.55" fill="#c8a8f8" fill-rule="evenodd" stroke="none"/>
    <path d="M7.5 -11.55 L7.55 -11.55 7.6 -11.65 7.6 -11.7 Q7.65 -11.75 7.75 -11.75 L8.1 -11.7 Q8.2 -11.65 8.3 -11.55 L8.55 -11.3 8.7 -11.15 8.75 -11.05 8.8 -11.0 9.0 -10.75 9.05 -10.65 Q9.1 -10.55 9.2 -10.45 L9.5 -10.15 9.95 -9.6 9.95 -9.55 10.0 -9.55 10.15 -9.45 Q10.1 -9.45 10.05 -9.35 L10.0 -9.3 9.85 -9.1 9.85 -9.05 Q9.8 -8.75 9.55 -8.6 L9.55 -8.55 9.65 -8.25 Q9.65 -8.15 9.55 -8.1 L9.5 -8.05 9.45 -8.05 Q9.2 -8.05 9.15 -7.8 L9.05 -7.6 9.3 -7.7 9.7 -7.85 10.05 -7.85 10.2 -7.85 Q10.6 -7.75 10.9 -8.05 L10.95 -8.05 11.1 -8.1 11.2 -8.05 Q11.35 -8.1 11.55 -8.15 L11.6 -8.2 11.7 -8.25 11.85 -8.4 11.9 -8.45 12.05 -8.4 Q12.25 -8.4 12.35 -8.55 12.4 -8.65 12.35 -8.8 L12.35 -8.85 Q12.2 -9.05 12.0 -8.95 L11.9 -8.95 Q11.7 -8.9 11.6 -9.05 L11.55 -9.1 11.4 -9.15 11.3 -9.15 11.35 -9.2 11.4 -9.15 11.55 -9.15 12.05 -9.2 12.15 -9.2 12.4 -9.15 12.75 -9.15 12.85 -9.2 13.2 -9.2 13.7 -9.25 13.9 -9.2 14.3 -9.2 14.4 -9.2 14.75 -9.25 14.45 -9.05 14.4 -9.0 Q14.3 -8.9 14.2 -8.85 L14.1 -8.85 13.9 -8.8 13.85 -8.8 Q13.55 -8.7 13.3 -8.5 L13.25 -8.5 Q13.1 -8.45 13.0 -8.35 L12.95 -8.3 Q12.8 -8.15 12.8 -7.95 L12.95 -8.0 13.0 -8.0 13.05 -8.0 Q13.25 -7.9 13.25 -7.7 L13.25 -7.65 Q13.1 -7.6 13.0 -7.5 L12.7 -7.15 Q12.8 -7.05 12.95 -7.0 L13.0 -7.0 13.6 -6.95 13.65 -6.95 13.75 -6.95 14.4 -6.7 Q14.55 -6.7 14.6 -6.55 L14.5 -6.55 14.4 -6.55 14.15 -6.45 13.85 -6.25 13.75 -6.2 Q13.6 -6.1 13.4 -6.1 L13.3 -6.15 Q13.15 -6.15 13.05 -6.05 L13.0 -5.95 12.95 -5.85 Q12.95 -5.7 12.85 -5.55 L12.8 -5.5 12.7 -5.5 12.6 -5.5 12.4 -5.55 12.35 -5.55 Q12.25 -5.55 12.2 -5.45 L12.15 -5.4 Q11.95 -5.35 11.8 -5.25 L11.75 -5.15 Q11.65 -5.05 11.7 -4.9 L11.7 -4.8 11.8 -4.65 11.85 -4.55 Q11.9 -4.5 11.95 -4.5 L12.05 -4.45 12.35 -4.1 12.45 -4.0 12.2 -4.05 12.05 -4.0 11.65 -4.05 11.55 -4.05 10.85 -3.95 10.6 -3.9 Q10.4 -3.85 10.25 -4.0 10.15 -4.1 10.2 -4.2 L10.25 -4.25 Q10.25 -4.5 10.05 -4.45 9.9 -4.45 9.85 -4.5 9.75 -4.6 9.75 -4.75 L9.7 -4.8 Q9.6 -4.9 9.4 -4.85 L9.15 -4.85 9.1 -4.9 8.85 -5.0 8.7 -5.0 8.6 -5.05 8.5 -4.95 8.3 -4.8 8.3 -4.7 8.35 -4.2 8.35 -4.1 Q8.3 -3.9 8.35 -3.7 L8.35 -3.6 8.3 -3.3 Q8.25 -2.9 8.45 -2.6 L8.45 -2.5 Q8.5 -2.3 8.65 -2.2 L8.85 -2.2 8.9 -2.2 Q9.05 -2.35 9.1 -2.15 L9.05 -2.1 Q9.0 -2.0 8.85 -2.0 8.7 -2.0 8.7 -1.85 8.7 -1.65 8.55 -1.55 L8.5 -1.5 8.5 -1.45 8.55 -1.25 8.6 -1.25 8.95 -1.25 9.1 -1.25 9.2 -1.3 9.7 -1.2 9.85 -1.2 Q10.2 -1.05 10.65 -1.1 L10.8 -1.05 10.8 -1.0 Q10.75 -0.85 10.6 -0.85 10.4 -0.8 10.25 -0.65 10.35 -0.55 10.45 -0.55 L10.5 -0.5 Q10.55 -0.4 10.7 -0.4 L10.85 -0.4 10.95 -0.4 10.95 -0.4 11.0 -0.35 11.05 -0.35 11.1 -0.3 Q11.15 -0.3 11.15 -0.3 L11.2 -0.25 11.25 -0.2 11.05 -0.1 11.0 -0.1 10.75 0.0 10.65 0.05 10.55 0.05 Q10.4 0.1 10.25 0.25 L10.15 0.3 10.05 0.35 9.95 0.35 Q9.7 0.35 9.5 0.2 L9.45 0.2 9.3 0.2 Q9.25 0.2 9.2 0.15 L9.2 0.05 9.15 -0.1 9.2 -0.2 9.35 -0.45 Q9.35 -0.55 9.3 -0.6 9.15 -0.7 8.95 -0.7 L8.9 -0.7 8.65 -0.9 8.55 -0.9 8.5 -0.75 Q8.5 -0.7 8.55 -0.6 L8.6 -0.4 8.6 -0.35 Q8.6 -0.2 8.5 -0.1 8.4 -0.05 8.5 0.05 8.6 0.15 8.65 0.3 8.65 0.5 8.8 0.5 L8.85 0.55 Q8.95 0.6 8.95 0.7 8.95 0.8 8.85 0.9 8.65 1.05 8.8 1.2 L8.8 1.25 8.95 1.55 9.15 1.75 9.15 1.9 Q9.15 2.05 9.3 2.1 L9.35 2.1 9.5 2.25 9.55 2.25 9.65 2.25 9.7 2.25 Q9.8 2.3 9.8 2.2 L10.0 2.1 10.1 2.15 10.2 2.15 10.4 2.25 Q10.55 2.2 10.65 2.1 10.7 1.95 10.85 2.0 L10.95 2.0 11.0 2.0 11.25 1.95 11.35 1.9 11.5 1.7 Q11.5 1.7 11.55 1.7 L11.7 1.65 11.65 1.75 12.05 1.85 12.15 1.9 12.35 1.9 12.4 1.95 12.95 2.15 13.1 2.1 13.35 2.15 13.25 2.15 13.2 2.2 13.15 2.2 Q12.95 2.3 12.75 2.25 L12.7 2.25 Q12.65 2.2 12.55 2.2 L12.45 2.2 11.65 2.4 11.35 2.4 Q11.1 2.4 10.9 2.5 L10.6 2.55 10.55 2.6 10.45 2.6 10.25 2.6 Q10.25 2.55 10.2 2.55 9.95 2.55 9.95 2.75 L9.95 2.8 9.9 2.85 9.75 2.85 9.75 3.0 9.7 3.05 Q9.75 3.25 9.55 3.2 L9.5 3.2 Q9.35 3.25 9.4 3.4 L9.4 3.45 9.15 3.8 9.1 3.85 9.05 4.15 9.0 4.3 8.9 4.45 Q8.8 4.55 8.8 4.7 L8.8 4.75 Q8.8 4.85 8.7 4.9 L8.65 4.95 8.5 5.1 8.4 4.8 8.4 4.75 Q8.35 4.6 8.2 4.55 L8.15 4.55 8.1 4.55 8.2 4.45 8.25 4.4 8.25 4.3 8.3 4.2 8.35 4.0 8.4 3.95 Q8.45 3.8 8.35 3.65 L8.3 3.6 8.3 3.55 Q8.25 3.5 8.3 3.45 L8.55 3.2 8.65 3.1 8.8 2.7 8.85 2.55 Q9.0 2.25 9.05 1.85 L9.05 1.8 8.95 1.75 Q8.85 1.75 8.75 1.8 L8.8 1.75 8.8 1.65 8.75 1.6 Q8.7 1.5 8.6 1.6 L8.55 1.7 Q8.5 1.75 8.4 1.75 L8.3 1.7 8.25 1.7 8.2 1.75 Q8.2 1.6 8.25 1.5 L8.25 1.45 Q8.25 1.25 8.4 1.05 L8.45 1.0 8.5 0.85 8.5 0.8 Q8.55 0.7 8.5 0.65 L8.45 0.6 Q8.45 0.4 8.25 0.35 L7.9 0.3 7.85 0.3 Q7.75 0.5 7.5 0.5 L7.45 0.5 Q7.35 0.5 7.3 0.55 L7.25 0.65 Q7.05 0.9 6.8 0.95 L6.75 0.95 6.65 1.0 6.3 1.05 6.2 1.05 Q6.05 1.05 6.0 1.15 L5.8 1.55 5.7 1.7 5.65 1.8 Q5.5 1.95 5.6 2.1 L5.65 2.15 Q5.8 2.3 5.65 2.4 L5.55 2.45 5.45 2.5 5.3 2.4 Q5.45 2.25 5.3 2.1 5.15 2.2 5.0 2.05 4.95 2.0 4.95 1.95 L4.95 1.9 Q5.0 1.65 4.8 1.55 4.8 1.65 4.7 1.7 L4.65 1.7 4.5 1.7 4.6 1.6 4.65 1.55 4.65 1.4 4.6 1.2 4.6 1.15 4.5 1.1 4.4 1.1 4.15 1.0 Q3.95 0.95 3.95 1.15 L3.95 1.2 3.9 1.25 3.85 1.35 3.85 1.4 3.95 1.7 3.9 1.7 Q3.8 1.7 3.75 1.75 3.7 1.8 3.7 1.95 L3.7 2.05 Q3.7 2.15 3.55 2.15 L3.6 2.05 3.6 2.0 3.4 1.85 3.35 1.8 3.15 1.7 3.05 1.7 3.0 1.7 Q2.8 1.65 2.75 1.85 2.65 2.1 2.5 2.3 2.4 2.15 2.25 2.1 2.35 2.0 2.35 1.8 L2.4 1.75 2.4 1.7 Q2.4 1.6 2.5 1.65 L2.55 1.65 2.6 1.65 2.7 1.55 Q2.85 1.4 3.05 1.45 L3.1 1.45 3.15 1.45 Q3.35 1.4 3.5 1.45 L3.6 1.45 3.65 1.45 Q3.75 1.4 3.75 1.3 L3.7 1.05 Q3.7 0.9 3.75 0.85 L3.8 0.75 Q3.8 0.7 3.85 0.7 L4.0 0.65 Q4.1 0.55 4.25 0.5 L4.4 0.6 4.45 0.65 Q4.6 0.7 4.7 0.6 4.85 0.45 4.9 0.65 L4.95 0.75 Q4.95 0.8 5.0 0.8 L5.05 0.85 5.15 0.95 5.15 1.0 Q5.2 1.1 5.3 1.1 L5.5 0.95 Q5.3 0.9 5.45 0.8 L5.5 0.75 5.6 0.65 5.65 0.65 Q5.8 0.75 6.0 0.75 L6.05 0.75 Q6.1 0.7 6.2 0.7 L6.3 0.65 6.5 0.65 Q6.7 0.7 6.85 0.5 L6.95 0.5 7.1 0.45 7.2 0.3 7.25 0.25 Q7.3 0.15 7.45 0.15 7.65 0.2 7.8 0.05 L7.9 -0.05 Q7.95 -0.15 7.85 -0.2 7.8 -0.3 7.8 -0.4 L7.8 -0.45 Q7.95 -0.5 7.95 -0.6 7.9 -0.75 7.8 -0.75 L7.2 -0.7 Q7.15 -0.75 7.2 -0.85 L7.25 -0.85 Q7.25 -1.0 7.4 -1.0 7.7 -0.9 7.75 -1.2 L7.8 -1.3 7.85 -1.35 Q7.85 -1.45 7.8 -1.55 L7.75 -1.6 Q7.55 -1.6 7.4 -1.5 L7.15 -1.45 6.75 -1.45 Q6.6 -1.45 6.5 -1.55 L6.5 -1.6 6.6 -1.65 6.75 -1.65 Q6.9 -1.7 6.95 -1.8 L7.0 -1.9 7.2 -2.05 Q7.3 -2.05 7.3 -2.15 7.3 -2.35 7.4 -2.45 7.55 -2.65 7.8 -2.7 L7.9 -2.75 7.9 -2.8 7.85 -2.85 Q7.75 -3.05 7.9 -3.25 L7.95 -3.4 Q7.95 -3.5 7.85 -3.6 L7.6 -3.65 7.5 -3.65 Q7.3 -3.6 7.25 -3.8 L7.4 -3.8 7.45 -3.8 7.55 -3.9 7.6 -3.95 7.65 -4.0 7.8 -4.0 Q8.0 -4.15 8.0 -4.3 L8.0 -4.35 7.8 -4.6 7.8 -4.85 7.65 -4.95 Q7.5 -5.0 7.45 -5.15 L7.4 -5.15 Q7.25 -5.2 7.1 -5.3 L7.05 -5.3 Q6.9 -5.3 6.85 -5.4 6.8 -5.55 6.95 -5.65 L7.25 -5.7 7.3 -5.7 7.45 -5.7 7.5 -5.7 7.7 -5.65 Q7.85 -5.6 7.95 -5.75 8.05 -5.95 7.8 -6.05 L7.3 -6.25 7.25 -6.25 Q7.05 -6.2 6.95 -6.35 L6.95 -6.4 Q6.9 -6.55 7.0 -6.55 L7.1 -6.55 Q7.2 -6.5 7.4 -6.45 L7.5 -6.4 7.7 -6.6 7.8 -6.6 8.15 -6.65 8.2 -6.7 Q8.3 -6.8 8.35 -7.0 L8.35 -7.05 8.3 -7.15 8.3 -7.25 8.25 -7.3 8.0 -7.3 7.9 -7.35 7.95 -7.4 8.05 -7.5 8.1 -7.6 8.15 -7.55 8.25 -7.45 8.3 -7.45 Q8.6 -7.65 8.7 -7.95 L8.75 -8.15 8.75 -8.2 Q8.85 -8.4 8.65 -8.55 8.6 -8.6 8.6 -8.65 L8.65 -8.75 8.65 -8.95 Q8.65 -9.1 8.5 -9.15 L8.45 -9.15 Q8.4 -9.15 8.35 -9.2 L8.3 -9.25 8.35 -9.4 Q8.4 -9.5 8.5 -9.5 L8.55 -9.45 Q8.6 -9.3 8.8 -9.3 8.85 -9.3 8.85 -9.35 L8.9 -10.0 8.85 -10.3 8.75 -10.45 8.7 -10.6 8.5 -10.9 8.05 -11.2 8.0 -11.25 Q7.95 -11.25 7.85 -11.3 7.7 -11.4 7.5 -11.55 M9.3 -6.8 L9.05 -6.75 Q8.95 -6.7 8.9 -6.75 L8.8 -6.8 8.75 -6.85 8.7 -6.85 8.7 -6.75 8.6 -6.4 Q8.55 -6.1 8.6 -5.75 8.8 -5.8 8.9 -5.95 L9.0 -6.05 Q9.1 -6.1 9.2 -6.1 L9.25 -6.1 9.4 -6.2 9.45 -6.2 9.85 -6.15 Q10.05 -6.1 10.15 -6.2 L10.2 -6.2 10.55 -6.3 10.75 -6.3 10.8 -6.4 10.8 -6.45 10.6 -6.65 10.45 -6.65 10.05 -6.6 Q10.05 -6.6 10.0 -6.65 L9.3 -6.8 M12.4 -1.3 L12.25 -1.3 12.0 -1.3 11.95 -1.3 11.35 -1.4 11.25 -1.45 11.2 -1.45 Q11.05 -1.45 10.95 -1.55 10.85 -1.6 10.8 -1.65 L10.75 -1.7 10.6 -1.85 10.55 -1.9 10.6 -2.0 10.55 -2.1 10.5 -2.1 10.4 -2.15 10.05 -2.15 9.95 -2.1 9.95 -2.1 Q9.95 -2.25 10.1 -2.35 L10.15 -2.4 10.25 -2.55 Q10.45 -2.7 10.65 -2.7 L10.75 -2.7 11.3 -2.85 11.6 -2.9 12.15 -2.85 12.35 -2.85 Q12.6 -2.9 12.85 -3.0 L12.95 -3.1 Q13.05 -3.15 13.15 -3.15 13.2 -3.15 13.2 -3.2 L13.4 -3.3 13.5 -3.35 13.5 -3.35 Q13.7 -3.1 13.4 -2.95 13.3 -2.9 13.35 -2.85 13.45 -2.75 13.65 -2.75 14.0 -2.7 14.3 -2.6 L14.4 -2.55 Q14.55 -2.4 14.8 -2.45 L15.1 -2.45 15.2 -2.4 15.3 -2.3 15.4 -2.2 Q15.5 -2.05 15.35 -1.95 15.2 -1.9 15.05 -1.85 L14.85 -1.85 14.8 -1.8 14.7 -1.8 14.1 -1.7 14.05 -1.7 Q13.9 -1.6 13.8 -1.55 L13.25 -1.55 13.2 -1.5 12.95 -1.5 12.65 -1.5 Q12.45 -1.5 12.4 -1.35 L12.4 -1.3" fill="#5f86f8" fill-rule="evenodd" stroke="none"/>
    <path d="M7.9 -7.35 L8.0 -7.3 8.25 -7.3 8.3 -7.25 8.3 -7.15 8.35 -7.05 8.35 -7.0 Q8.3 -6.8 8.2 -6.7 L8.15 -6.65 7.8 -6.6 7.7 -6.6 7.5 -6.4 7.4 -6.45 7.4 -6.45 7.35 -6.55 7.5 -6.75 7.5 -6.85 Q7.45 -6.95 7.5 -7.05 7.55 -7.3 7.4 -7.4 L7.15 -7.5 Q7.1 -7.5 7.1 -7.55 L6.8 -7.7 6.7 -7.7 6.4 -7.65 6.35 -7.65 6.2 -7.75 Q6.0 -8.05 5.65 -8.15 L5.3 -7.95 4.8 -8.15 Q4.8 -8.25 4.9 -8.25 L4.95 -8.3 Q5.1 -8.35 5.1 -8.55 L5.1 -8.6 5.05 -8.65 Q5.0 -8.75 5.0 -8.85 5.0 -8.95 5.1 -9.05 5.25 -9.2 5.5 -9.15 L5.5 -9.2 Q5.65 -9.0 5.85 -8.85 L5.9 -8.8 Q6.15 -8.8 6.25 -8.65 L6.4 -8.35 6.5 -8.15 6.5 -8.15 6.65 -8.05 Q6.8 -7.85 7.0 -7.75 7.05 -7.75 7.1 -7.75 L7.35 -7.7 7.4 -7.65 7.5 -7.5 7.6 -7.4 Q7.65 -7.25 7.8 -7.3 L7.9 -7.35 M11.7 1.65 L11.55 1.7 Q11.5 1.7 11.5 1.7 L11.35 1.9 11.25 1.95 11.0 2.0 10.95 2.0 10.85 2.0 Q10.7 1.95 10.65 2.1 10.55 2.2 10.4 2.25 L10.2 2.15 10.1 2.15 10.15 2.1 Q10.2 2.05 10.2 2.05 10.3 2.0 10.3 1.85 L10.3 1.8 10.35 1.75 Q10.35 1.65 10.25 1.6 L10.2 1.6 9.85 1.45 Q9.55 1.45 9.45 1.2 L9.75 1.25 9.85 1.25 10.1 1.3 10.15 1.3 Q10.25 1.2 10.4 1.25 10.6 1.3 10.75 1.35 L10.85 1.4 Q11.05 1.4 11.15 1.3 11.25 1.25 11.35 1.25 L11.6 1.25 11.5 1.35 11.55 1.45 Q11.7 1.55 11.7 1.65 M8.6 -0.4 L8.55 -0.6 Q8.5 -0.7 8.5 -0.75 L8.55 -0.9 8.65 -0.9 8.9 -0.7 8.95 -0.7 Q9.15 -0.7 9.3 -0.6 9.35 -0.55 9.35 -0.45 L9.2 -0.2 9.15 -0.1 9.05 -0.2 9.0 -0.25 Q8.8 -0.25 8.6 -0.4 L8.6 -0.4 M11.3 -9.15 L11.4 -9.15 11.55 -9.1 11.6 -9.05 Q11.7 -8.9 11.9 -8.95 L12.0 -8.95 Q12.2 -9.05 12.35 -8.85 L12.35 -8.8 Q12.4 -8.65 12.35 -8.55 12.25 -8.4 12.05 -8.4 L11.9 -8.45 11.85 -8.4 11.7 -8.25 11.6 -8.2 11.55 -8.15 Q11.35 -8.1 11.2 -8.05 L11.1 -8.1 10.95 -8.05 10.9 -8.05 Q10.6 -7.75 10.2 -7.85 L10.05 -7.85 9.7 -7.85 9.3 -7.7 9.05 -7.6 9.15 -7.8 Q9.2 -8.05 9.45 -8.05 L9.5 -8.05 9.55 -8.1 Q9.65 -8.15 9.65 -8.25 L9.55 -8.55 9.55 -8.6 Q9.8 -8.75 9.85 -9.05 L9.85 -9.1 10.0 -9.3 10.3 -9.3 10.85 -9.2 10.95 -9.2 11.25 -9.2 11.3 -9.15" fill="#728dbb" fill-rule="evenodd" stroke="none"/>
    <path d="M10.1 2.15 L10.0 2.1 9.8 2.2 Q9.8 2.3 9.7 2.25 L9.65 2.25 9.55 2.25 9.5 2.25 9.35 2.1 9.3 2.1 Q9.15 2.05 9.15 1.9 L9.15 1.75 8.95 1.55 8.8 1.25 8.8 1.2 Q8.65 1.05 8.85 0.9 8.95 0.8 8.95 0.7 8.95 0.6 8.85 0.55 L8.8 0.5 Q8.65 0.5 8.65 0.3 8.6 0.15 8.5 0.05 8.4 -0.05 8.5 -0.1 8.6 -0.2 8.6 -0.35 L8.6 -0.4 8.6 -0.4 Q8.8 -0.25 9.0 -0.25 L9.05 -0.2 9.15 -0.1 9.2 0.05 9.2 0.15 Q9.25 0.2 9.3 0.2 L9.45 0.2 9.5 0.2 Q9.7 0.35 9.95 0.35 L10.05 0.35 10.15 0.3 10.25 0.25 Q10.4 0.1 10.55 0.05 L10.65 0.05 10.75 0.0 11.0 -0.1 11.05 -0.1 11.25 -0.2 11.5 -0.2 11.6 -0.2 Q11.8 -0.15 11.8 -0.3 L11.8 -0.35 11.75 -0.65 11.8 -0.75 11.95 -0.8 12.05 -0.85 Q12.05 -0.7 11.95 -0.65 12.3 -0.45 12.75 -0.3 L13.0 -0.25 Q13.25 -0.25 13.25 0.0 L13.25 0.05 13.2 0.2 13.35 0.2 Q13.5 0.2 13.6 0.3 L13.65 0.4 Q13.65 0.6 13.85 0.55 14.05 0.55 14.15 0.65 L13.95 0.75 13.9 0.8 13.85 0.8 13.4 0.8 13.1 0.9 12.55 1.0 12.4 1.0 12.35 1.05 12.2 1.1 12.05 1.2 11.95 1.2 11.75 1.25 11.6 1.25 11.35 1.25 Q11.25 1.25 11.15 1.3 11.05 1.4 10.85 1.4 L10.75 1.35 Q10.6 1.3 10.4 1.25 10.25 1.2 10.15 1.3 L10.1 1.3 9.85 1.25 9.75 1.25 9.45 1.2 Q9.55 1.45 9.85 1.45 L10.2 1.6 10.25 1.6 Q10.35 1.65 10.35 1.75 L10.3 1.8 10.3 1.85 Q10.3 2.0 10.2 2.05 10.2 2.05 10.15 2.1 L10.1 2.15 M1.3 -1.7 L1.3 -1.65 Q1.4 -1.5 1.35 -1.3 L1.35 -1.25 1.1 -1.1 1.05 -1.05 1.05 -1.0 Q1.0 -0.85 1.05 -0.75 L1.1 -0.7 1.25 -0.5 1.3 -0.5 1.4 -0.25 1.45 -0.2 1.55 -0.05 1.55 0.0 1.5 0.15 1.45 0.2 1.4 0.3 1.3 0.3 1.15 0.35 1.1 0.35 Q1.05 0.35 1.0 0.45 L1.0 0.5 Q0.95 0.55 0.95 0.65 L1.0 0.7 Q1.05 0.85 1.05 1.05 L0.95 0.95 0.9 0.9 0.8 0.8 0.7 0.55 0.75 0.15 0.75 0.05 0.8 -0.15 Q0.85 -0.25 0.8 -0.4 L0.75 -0.5 0.7 -0.55 Q0.6 -0.65 0.55 -0.6 L0.45 -0.75 0.35 -0.8 0.35 -0.8 0.3 -0.8 0.25 -0.85 Q0.15 -0.9 0.25 -1.0 L0.55 -1.3 0.55 -1.3 0.6 -1.35 0.6 -1.55 0.6 -1.55 0.75 -1.5 0.75 -1.45 0.8 -1.4 0.75 -1.4 0.75 -1.3 0.7 -1.3 0.75 -1.25 0.7 -1.1 0.75 -1.05 0.8 -1.0 0.8 -0.95 0.9 -0.95 0.95 -1.0 0.95 -1.05 1.0 -1.1 1.0 -1.1 Q1.1 -1.1 1.15 -1.2 L1.2 -1.2 1.2 -1.25 1.2 -1.35 1.25 -1.5 Q1.3 -1.55 1.3 -1.65 L1.3 -1.7" fill="#abc1f8" fill-rule="evenodd" stroke="none"/>
  </g>
</svg>
