<?xml version="1.0" encoding="UTF-8" standalone="no"?>
<svg xmlns:xlink="http://www.w3.org/1999/xlink" height="23.25px" width="3.25px" xmlns="http://www.w3.org/2000/svg">
  <g transform="matrix(1.0, 0.0, 0.0, 1.0, 0.5, 15.2)">
    <path d="M1.3 -15.2 L1.4 -15.2 1.4 -15.1 1.4 -15.1 1.35 -15.05 1.3 -15.1 1.3 -15.1 1.25 -15.1 1.25 -15.15 1.25 -15.15 1.3 -15.15 1.3 -15.2 M1.65 -15.0 L1.7 -14.95 1.65 -14.95 1.65 -14.95 1.6 -14.95 1.55 -14.95 1.55 -14.95 1.55 -15.0 1.55 -15.0 1.6 -15.05 1.6 -15.05 1.65 -15.05 1.65 -15.0 M2.25 -15.15 L2.25 -15.1 2.2 -15.05 2.15 -15.1 2.15 -15.1 2.15 -15.1 Q2.1 -15.1 2.1 -15.15 L2.1 -15.15 2.15 -15.15 2.15 -15.2 2.25 -15.2 2.25 -15.15 M2.15 -15.05 Q2.35 -15.0 2.25 -14.9 L1.95 -14.2 1.9 -14.0 1.55 -13.1 Q1.3 -12.5 1.1 -11.8 1.05 -11.8 0.9 -11.9 L0.8 -11.65 Q0.75 -11.6 0.8 -11.55 0.8 -11.15 0.6 -10.85 L0.6 -10.75 Q0.65 -10.55 0.55 -10.35 L0.5 -10.15 0.5 -10.1 0.4 -9.8 0.4 -9.65 0.25 -9.2 0.1 -8.35 0.0 -8.0 0.0 -7.9 -0.1 -7.45 Q-0.2 -7.2 -0.15 -6.9 -0.15 -6.45 -0.25 -6.05 L-0.25 -4.9 -0.25 -4.75 Q-0.1 -4.35 -0.15 -3.9 L-0.1 -3.3 -0.05 -2.55 -0.05 -2.45 0.0 -2.2 0.0 -1.6 0.0 -1.45 Q-0.05 -1.15 0.0 -0.9 L0.05 -0.7 0.1 -0.05 0.1 0.75 0.1 0.9 0.15 1.2 Q0.15 1.35 0.2 1.45 0.3 1.6 0.25 1.8 0.25 1.9 0.3 1.95 L0.3 2.05 Q0.3 2.15 0.4 2.25 0.45 2.35 0.4 2.5 L0.4 2.6 Q0.4 2.95 0.5 3.25 L0.55 3.4 0.6 3.65 0.65 3.75 0.7 3.85 Q0.75 4.3 0.9 4.75 L0.9 4.85 1.15 5.55 1.5 6.55 1.5 6.6 Q1.5 6.8 1.65 6.9 L1.7 7.0 1.75 7.05 1.8 7.15 Q1.95 7.25 2.05 7.4 L2.2 7.6 2.3 7.7 2.65 7.85 Q2.85 7.9 2.7 8.05 L2.65 8.05 2.6 8.05 1.9 7.55 1.55 7.25 1.35 7.0 Q1.3 6.85 1.35 6.65 L1.35 6.5 1.1 6.25 1.05 6.25 Q0.85 6.15 0.9 6.0 L0.9 5.95 Q0.9 5.75 0.85 5.65 L0.75 5.6 Q0.65 5.35 0.65 5.0 L0.65 4.95 Q0.65 4.8 0.6 4.7 L0.5 4.6 Q0.2 4.3 0.25 3.85 0.25 3.6 0.1 3.45 0.0 3.25 0.0 3.05 L-0.05 2.65 -0.05 2.0 Q-0.05 1.85 -0.1 1.7 L-0.1 1.55 Q0.0 1.3 -0.1 1.05 -0.15 0.85 -0.15 0.6 L-0.15 -0.55 -0.2 -0.65 Q-0.35 -1.0 -0.25 -1.45 L-0.25 -1.55 Q-0.2 -1.85 -0.3 -2.1 L-0.35 -2.5 -0.35 -3.0 -0.4 -3.2 -0.45 -3.75 -0.45 -4.25 -0.5 -4.65 -0.5 -4.9 -0.45 -6.15 -0.4 -6.6 Q-0.4 -6.75 -0.45 -6.85 L-0.45 -6.95 Q-0.5 -7.15 -0.4 -7.3 L-0.4 -7.4 -0.35 -7.75 Q-0.3 -7.95 -0.25 -8.2 L-0.2 -8.35 Q-0.15 -8.45 -0.15 -8.55 L-0.1 -8.65 Q-0.1 -8.9 0.0 -9.0 L0.05 -9.1 Q0.05 -9.3 -0.05 -9.35 -0.15 -9.45 -0.05 -9.55 L0.2 -9.8 0.2 -9.9 0.15 -10.25 Q0.15 -10.35 0.2 -10.45 L0.25 -10.65 0.3 -10.8 0.3 -10.95 Q0.35 -11.05 0.45 -11.1 0.6 -11.15 0.55 -11.35 L0.5 -11.4 Q0.5 -11.5 0.55 -11.55 L0.55 -11.65 Q0.6 -11.8 0.6 -12.05 0.6 -12.1 0.6 -12.2 L0.65 -12.25 0.85 -13.0 0.95 -13.4 1.0 -13.45 Q1.15 -13.6 1.2 -13.85 1.2 -14.0 1.3 -14.1 L1.35 -14.15 1.55 -14.55 1.75 -14.75 1.8 -14.8 1.9 -14.9 2.1 -15.05 2.15 -15.05 M1.15 -14.6 L1.15 -14.6 1.15 -14.6 1.25 -14.6 1.25 -14.5 1.25 -14.5 1.2 -14.5 1.15 -14.5 1.15 -14.5 1.15 -14.5 1.1 -14.55 1.1 -14.55 1.15 -14.6 M0.75 -13.6 L0.8 -13.55 0.8 -13.35 0.7 -13.3 0.55 -13.35 0.5 -13.35 0.45 -13.35 0.45 -13.35 0.4 -13.45 0.4 -13.5 0.45 -13.55 0.45 -13.55 0.55 -13.65 0.55 -13.65 0.75 -13.6 M0.15 -11.85 L0.15 -11.85 0.2 -11.85 0.2 -11.8 0.25 -11.75 0.25 -11.75 0.2 -11.75 0.15 -11.75 0.15 -11.75 0.1 -11.75 0.1 -11.8 0.1 -11.8 0.15 -11.85 M0.1 -11.3 L0.1 -11.3 0.05 -11.3 0.0 -11.3 0.0 -11.3 0.0 -11.35 0.0 -11.35 0.05 -11.4 0.1 -11.4 0.1 -11.3 M-0.2 -10.95 L-0.15 -10.95 -0.1 -10.95 -0.1 -10.85 -0.15 -10.85 -0.2 -10.85 -0.2 -10.85 -0.25 -10.85 -0.25 -10.9 -0.25 -10.95 -0.2 -10.95 -0.2 -10.95" fill="#5f86f8" fill-rule="evenodd" stroke="none"/>
  </g>
</svg>
