<?xml version="1.0" encoding="UTF-8" standalone="no"?>
<svg xmlns:xlink="http://www.w3.org/1999/xlink" height="3.1px" width="2.85px" xmlns="http://www.w3.org/2000/svg">
  <g transform="matrix(1.0, 0.0, 0.0, 1.0, -9.65, 12.15)">
    <path d="M10.1 -11.6 L10.2 -11.65 10.1 -11.5 10.0 -11.4 10.0 -11.4 10.05 -11.5 10.1 -11.6 M10.15 -9.85 L10.1 -9.9 10.1 -9.95 10.05 -10.0 10.05 -10.1 9.95 -10.25 9.9 -10.35 9.9 -10.45 9.85 -10.5 9.85 -10.6 9.9 -10.65 9.9 -10.7 9.95 -10.75 10.0 -10.85 10.1 -10.95 10.15 -11.0 10.15 -11.0 10.2 -11.05 10.25 -11.15 10.3 -11.25 10.35 -11.3 10.4 -11.35 10.65 -11.6 10.65 -11.55 10.65 -11.5 10.65 -11.45 10.75 -11.5 11.0 -11.75 11.0 -11.75 10.95 -11.7 10.95 -11.7 11.0 -11.7 11.0 -11.7 11.05 -11.7 11.05 -11.75 11.1 -11.75 11.15 -11.8 11.15 -11.8 11.2 -11.8 11.2 -11.8 11.25 -11.85 11.35 -11.9 11.4 -11.95 11.45 -12.0 11.45 -12.0 11.5 -12.0 11.45 -11.95 11.4 -11.9 11.4 -11.8 11.35 -11.75 11.3 -11.7 11.25 -11.65 11.3 -11.65 11.25 -11.6 11.25 -11.6 11.2 -11.55 11.25 -11.55 11.25 -11.55 11.25 -11.5 11.3 -11.5 11.3 -11.45 11.25 -11.4 11.25 -11.35 11.3 -11.35 11.3 -11.35 11.35 -11.35 11.4 -11.3 11.4 -11.25 11.45 -11.25 11.45 -11.2 11.5 -11.15 11.55 -11.15 11.6 -11.15 11.55 -11.15 11.55 -11.15 11.6 -11.1 11.6 -11.1 11.65 -11.05 11.7 -11.05 Q11.7 -11.0 11.75 -11.0 L11.85 -11.05 11.85 -11.05 11.9 -11.05 11.95 -11.05 11.95 -11.05 12.05 -11.05 12.1 -11.05 12.1 -11.05 12.15 -11.05 12.15 -11.0 12.1 -11.0 12.1 -10.95 12.15 -10.95 12.1 -10.9 12.0 -10.9 12.05 -10.85 12.1 -10.85 12.1 -10.85 12.15 -10.85 12.2 -10.8 12.2 -10.75 12.2 -10.75 12.2 -10.7 12.25 -10.7 12.3 -10.7 12.3 -10.7 12.5 -10.65 12.4 -10.6 Q12.35 -10.6 12.35 -10.6 L12.35 -10.55 12.4 -10.55 12.4 -10.55 12.35 -10.55 12.4 -10.5 12.4 -10.5 12.2 -10.5 12.05 -10.45 11.95 -10.45 11.9 -10.45 11.95 -10.45 12.2 -10.4 12.45 -10.3 12.45 -10.3 12.3 -10.3 12.2 -10.25 12.15 -10.3 12.05 -10.3 12.0 -10.3 11.95 -10.3 11.9 -10.25 11.85 -10.3 11.8 -10.3 11.8 -10.25 11.8 -10.25 11.85 -10.2 11.85 -10.15 11.9 -10.15 11.9 -10.05 12.0 -10.0 12.0 -10.0 11.95 -10.0 11.9 -10.0 11.85 -10.05 11.8 -9.95 11.85 -9.95 11.9 -9.9 11.85 -9.9 Q11.85 -9.9 11.8 -9.9 L11.7 -9.95 11.65 -9.95 11.65 -9.95 11.6 -9.95 11.55 -9.95 11.55 -9.9 11.5 -9.9 11.45 -9.85 11.45 -9.8 11.4 -9.8 11.4 -9.8 11.35 -9.8 11.35 -9.75 11.3 -9.75 11.2 -9.8 11.2 -9.8 11.2 -9.75 11.2 -9.7 11.15 -9.65 11.2 -9.65 11.2 -9.6 11.15 -9.6 11.1 -9.6 11.05 -9.6 11.05 -9.65 11.0 -9.65 10.95 -9.65 10.95 -9.65 10.9 -9.65 10.85 -9.7 10.8 -9.7 10.75 -9.75 10.7 -9.8 10.7 -9.75 Q10.7 -9.75 10.65 -9.8 L10.6 -9.8 10.6 -9.8 10.6 -9.7 10.6 -9.6 10.55 -9.65 10.55 -9.65 10.5 -9.7 10.5 -9.7 10.45 -9.7 10.35 -9.55 10.35 -9.6 10.3 -9.65 10.25 -9.65 10.25 -9.7 10.25 -9.7 10.3 -9.65 10.35 -9.65 10.4 -9.7 10.4 -9.7 10.45 -9.75 10.45 -9.8 10.5 -9.9 10.5 -9.95 10.5 -10.0 10.5 -10.05 10.45 -10.1 10.45 -10.15 10.45 -10.2 10.4 -10.25 10.4 -10.25 10.45 -10.25 Q10.5 -10.2 10.55 -10.2 L10.6 -10.2 10.65 -10.1 10.7 -10.1 10.7 -10.1 10.75 -10.1 10.75 -10.05 10.8 -10.05 10.85 -10.0 10.85 -9.95 10.9 -9.9 10.9 -9.9 10.95 -9.9 10.95 -9.85 10.95 -9.8 11.0 -9.8 11.05 -9.8 11.05 -9.75 11.1 -9.75 11.15 -9.75 11.15 -9.8 11.15 -9.85 11.2 -9.85 11.2 -9.85 11.3 -9.85 11.3 -9.85 11.35 -9.85 11.35 -9.85 11.4 -9.9 11.35 -9.9 11.35 -9.9 11.4 -9.95 11.4 -9.95 11.4 -10.05 11.4 -10.1 11.35 -10.1 11.4 -10.15 11.4 -10.15 11.45 -10.1 11.45 -10.1 11.5 -10.05 11.5 -10.05 11.55 -10.05 Q11.6 -10.0 11.6 -10.0 L11.55 -10.1 11.55 -10.1 11.5 -10.15 11.5 -10.15 11.45 -10.2 11.45 -10.2 11.45 -10.25 11.45 -10.3 11.45 -10.3 11.5 -10.25 11.5 -10.3 11.55 -10.3 11.6 -10.3 11.6 -10.3 Q11.65 -10.3 11.65 -10.35 L11.65 -10.4 11.7 -10.35 11.75 -10.35 11.8 -10.35 11.8 -10.35 11.85 -10.35 11.9 -10.35 11.95 -10.35 11.85 -10.4 Q11.8 -10.4 11.75 -10.45 L11.75 -10.45 11.7 -10.5 11.7 -10.55 11.7 -10.55 11.7 -10.6 11.75 -10.6 11.8 -10.6 11.9 -10.55 11.95 -10.6 12.0 -10.6 11.9 -10.65 11.9 -10.75 11.85 -10.8 11.85 -10.8 11.8 -10.85 11.8 -10.9 11.8 -10.9 11.85 -10.95 11.85 -10.95 11.9 -10.95 11.85 -11.0 11.8 -10.95 11.8 -10.95 11.75 -11.0 11.7 -11.0 11.65 -11.0 11.65 -11.0 11.6 -11.0 11.55 -11.0 11.55 -11.0 11.6 -11.05 11.55 -11.05 11.5 -11.05 11.5 -11.05 11.45 -11.1 11.45 -11.1 11.4 -11.1 11.35 -11.1 11.35 -11.15 11.3 -11.15 11.35 -11.2 11.3 -11.25 11.3 -11.25 11.25 -11.25 11.25 -11.25 11.2 -11.25 11.2 -11.25 11.15 -11.25 11.2 -11.25 11.2 -11.3 11.2 -11.3 11.2 -11.35 11.15 -11.35 11.15 -11.3 11.1 -11.3 11.1 -11.25 11.05 -11.2 11.0 -11.2 11.0 -11.2 11.0 -11.1 10.9 -11.05 10.9 -11.05 10.9 -11.1 10.85 -11.1 10.9 -11.15 10.85 -11.15 10.8 -11.05 10.8 -11.05 10.75 -11.0 10.7 -10.95 10.65 -10.95 10.6 -10.95 10.6 -10.95 10.6 -11.0 10.55 -11.0 10.55 -11.0 10.5 -11.0 10.45 -11.0 10.45 -10.95 10.4 -11.0 10.4 -11.0 10.4 -11.05 10.4 -11.1 10.4 -11.1 10.45 -11.15 10.5 -11.1 10.5 -11.1 10.55 -11.2 10.55 -11.2 10.5 -11.25 10.55 -11.3 10.55 -11.4 10.55 -11.45 10.6 -11.5 10.55 -11.5 10.5 -11.45 10.5 -11.35 10.45 -11.3 10.4 -11.25 10.4 -11.2 10.35 -11.15 10.3 -11.1 10.3 -11.05 10.3 -11.05 10.35 -11.05 10.35 -11.0 10.3 -11.0 10.3 -11.0 10.3 -10.95 10.25 -10.9 10.25 -10.95 10.25 -10.9 10.2 -10.85 10.2 -10.85 10.15 -10.85 10.15 -10.8 10.1 -10.7 10.1 -10.7 10.15 -10.65 10.15 -10.65 10.15 -10.6 10.15 -10.55 10.1 -10.55 10.05 -10.5 10.0 -10.5 10.05 -10.4 10.1 -10.4 10.15 -10.35 10.15 -10.25 10.2 -10.1 10.25 -10.0 10.25 -9.95 Q10.3 -9.95 10.3 -9.95 L10.35 -9.95 10.4 -9.9 10.4 -9.85 10.4 -9.8 10.35 -9.75 10.35 -9.75 10.3 -9.75 10.3 -9.8 10.25 -9.8 10.25 -9.8 10.2 -9.85 10.2 -9.85 10.15 -9.9 10.15 -9.9 10.15 -9.85 M9.9 -11.35 L9.95 -11.45 9.95 -11.35 9.9 -11.3 9.85 -11.25 9.9 -11.35 M9.75 -11.3 L9.75 -11.25 9.75 -11.3 M9.75 -11.0 L9.75 -11.0 9.7 -10.95 9.7 -10.85 9.65 -10.8 9.65 -10.8 9.65 -10.9 9.7 -11.0 9.75 -11.05 9.8 -11.15 9.8 -11.1 9.75 -11.0 M10.0 -9.7 L10.05 -9.65 10.05 -9.65 10.0 -9.6 10.0 -9.6 9.95 -9.65 9.9 -9.75 9.85 -9.75 9.85 -9.8 9.8 -9.85 9.75 -10.0 9.75 -10.1 9.75 -10.0 9.8 -9.9 9.85 -9.9 9.85 -9.8 9.9 -9.75 9.9 -9.75 9.95 -9.7 9.95 -9.7 10.0 -9.7 10.0 -9.7 M11.8 -12.0 L11.8 -12.0 11.75 -12.0 11.75 -11.95 11.75 -11.95 11.7 -11.95 11.75 -11.95 11.75 -12.0 11.8 -12.0 M12.1 -12.1 L12.15 -12.1 12.15 -12.1 12.15 -12.05 12.15 -12.05 12.1 -12.1 M11.25 -12.15 L11.3 -12.15 11.3 -12.15 11.3 -12.1 11.3 -12.1 11.25 -12.1 11.25 -12.15 M11.15 -12.05 L11.2 -12.05 11.2 -12.05 11.15 -12.05 11.15 -12.05 M11.2 -11.75 L11.15 -11.75 11.15 -11.7 11.1 -11.7 11.1 -11.7 11.05 -11.65 11.05 -11.6 11.0 -11.55 11.0 -11.5 10.95 -11.5 10.95 -11.45 11.0 -11.4 11.0 -11.3 11.05 -11.4 11.05 -11.45 11.1 -11.5 11.15 -11.55 11.15 -11.6 11.2 -11.65 11.2 -11.7 11.25 -11.75 11.3 -11.8 11.35 -11.8 11.35 -11.8 11.4 -11.85 11.3 -11.85 11.25 -11.8 11.25 -11.8 Q11.25 -11.75 11.2 -11.75 M11.6 -11.9 L11.6 -11.85 11.55 -11.85 11.55 -11.8 11.55 -11.85 11.55 -11.9 11.6 -11.9 11.6 -11.9 M11.2 -11.45 L11.2 -11.4 11.2 -11.4 11.25 -11.45 11.25 -11.5 11.2 -11.5 11.2 -11.45 M10.8 -11.95 L10.8 -11.95 10.75 -11.9 10.7 -11.9 10.7 -11.9 10.75 -11.95 10.8 -11.95 M10.6 -11.9 L10.6 -11.85 10.55 -11.8 10.55 -11.8 10.5 -11.8 10.55 -11.85 10.55 -11.85 10.6 -11.9 M10.9 -11.7 L10.9 -11.7 10.85 -11.65 10.85 -11.6 10.85 -11.55 10.8 -11.5 10.8 -11.45 10.75 -11.45 10.75 -11.4 10.7 -11.3 10.7 -11.2 10.7 -11.15 10.8 -11.2 10.8 -11.3 10.85 -11.35 10.85 -11.4 10.9 -11.45 10.95 -11.5 10.95 -11.55 10.95 -11.65 10.95 -11.65 10.9 -11.65 10.9 -11.7 M10.9 -11.4 L10.9 -11.35 10.9 -11.3 10.9 -11.25 10.95 -11.25 10.95 -11.35 10.95 -11.35 10.9 -11.4 M10.5 -10.15 L10.55 -10.1 10.55 -10.0 10.55 -10.0 10.6 -9.9 10.65 -9.9 10.7 -9.9 10.7 -9.95 10.7 -10.0 10.65 -10.05 10.55 -10.2 10.5 -10.2 10.5 -10.15 M10.75 -10.0 L10.75 -9.9 10.8 -9.8 10.85 -9.7 10.9 -9.7 10.9 -9.7 10.95 -9.7 10.95 -9.7 11.0 -9.7 11.0 -9.7 10.95 -9.8 10.95 -9.8 10.95 -9.8 10.9 -9.9 10.85 -9.9 10.85 -9.95 10.8 -9.95 10.75 -10.0 10.75 -10.0 M11.7 -10.5 L11.75 -10.5 11.75 -10.5 11.85 -10.5 11.85 -10.5 11.9 -10.5 11.95 -10.5 11.95 -10.5 11.95 -10.55 11.9 -10.55 11.85 -10.55 11.8 -10.55 11.75 -10.55 11.7 -10.5 M12.1 -10.7 L12.0 -10.7 12.0 -10.65 12.0 -10.65 12.05 -10.65 12.05 -10.65 Q12.1 -10.65 12.1 -10.65 L12.15 -10.65 12.2 -10.65 12.25 -10.65 12.25 -10.7 12.2 -10.7 12.15 -10.7 12.1 -10.7 M12.15 -10.55 L12.2 -10.55 12.2 -10.55 12.25 -10.6 12.2 -10.6 12.15 -10.6 12.15 -10.6 12.1 -10.6 12.1 -10.55 12.15 -10.55 M11.5 -10.2 L11.6 -10.15 11.6 -10.1 11.65 -10.05 11.7 -10.0 11.7 -9.95 11.75 -9.95 Q11.8 -9.95 11.8 -9.95 L11.8 -10.1 11.8 -10.1 11.75 -10.15 11.7 -10.1 11.7 -10.1 11.6 -10.15 11.55 -10.2 11.55 -10.2 11.5 -10.25 11.5 -10.2 M11.6 -10.2 L11.65 -10.2 11.7 -10.2 11.7 -10.25 11.7 -10.25 11.7 -10.3 11.65 -10.25 11.65 -10.25 11.6 -10.25 11.6 -10.25 11.6 -10.2 M11.45 -10.05 L11.45 -10.0 11.45 -10.0 11.45 -10.05 M12.0 -10.4 L12.0 -10.35 11.95 -10.35 12.0 -10.35 12.05 -10.35 12.05 -10.35 12.0 -10.35 12.0 -10.4 M12.3 -12.1 L12.3 -12.05 12.25 -12.1 12.25 -12.1 12.3 -12.1 12.3 -12.1 M11.3 -9.35 L11.3 -9.35 11.25 -9.4 11.3 -9.4 11.4 -9.3 11.4 -9.3 11.35 -9.3 11.3 -9.35 M12.05 -9.15 L12.05 -9.1 12.0 -9.1 11.95 -9.1 11.95 -9.1 12.0 -9.15 12.05 -9.15 12.05 -9.15 M11.55 -9.25 L11.55 -9.25 11.5 -9.25 11.5 -9.25 11.55 -9.3 11.55 -9.25 M11.45 -9.3 L11.45 -9.3 11.45 -9.25 11.45 -9.3 11.4 -9.3 11.4 -9.3 11.45 -9.3 M10.2 -9.75 L10.2 -9.7 10.25 -9.7 10.25 -9.7 10.2 -9.65 10.2 -9.75 M10.3 -9.45 L10.35 -9.4 10.35 -9.4 10.3 -9.4 10.25 -9.4 10.25 -9.45 10.2 -9.45 10.2 -9.45 10.25 -9.45 10.3 -9.45 M10.05 -9.55 L10.1 -9.55 10.1 -9.5 10.05 -9.55 10.05 -9.55 M11.1 -9.1 L11.05 -9.05 11.0 -9.05 Q10.95 -9.05 10.95 -9.1 L10.95 -9.1 11.0 -9.1 11.0 -9.1 11.1 -9.1 M10.45 -9.35 L10.45 -9.3 10.4 -9.35 10.4 -9.35 10.4 -9.35 10.45 -9.35 10.45 -9.35" fill="#722c28" fill-rule="evenodd" stroke="none"/>
    <path d="M10.15 -9.85 L10.15 -9.9 10.15 -9.9 10.2 -9.85 10.2 -9.85 10.25 -9.8 10.25 -9.8 10.3 -9.8 10.3 -9.75 10.35 -9.75 10.35 -9.75 10.4 -9.8 10.4 -9.85 10.4 -9.9 10.35 -9.95 10.3 -9.95 Q10.3 -9.95 10.25 -9.95 L10.25 -10.0 10.2 -10.1 10.15 -10.25 10.15 -10.35 10.1 -10.4 10.05 -10.4 10.0 -10.5 10.05 -10.5 10.1 -10.55 10.15 -10.55 10.15 -10.6 10.15 -10.65 10.15 -10.65 10.1 -10.7 10.1 -10.7 10.15 -10.8 10.15 -10.85 10.2 -10.85 10.2 -10.85 10.25 -10.9 10.25 -10.95 10.25 -10.9 10.3 -10.95 10.3 -11.0 10.3 -11.0 10.35 -11.0 10.35 -11.05 10.3 -11.05 10.3 -11.05 10.3 -11.1 10.35 -11.15 10.4 -11.2 10.4 -11.25 10.45 -11.3 10.5 -11.35 10.5 -11.45 10.55 -11.5 10.6 -11.5 10.55 -11.45 10.55 -11.4 10.55 -11.3 10.5 -11.25 10.55 -11.2 10.55 -11.2 10.5 -11.1 10.5 -11.1 10.45 -11.15 10.4 -11.1 10.4 -11.1 10.4 -11.05 10.4 -11.0 10.4 -11.0 10.45 -10.95 10.45 -11.0 10.5 -11.0 10.55 -11.0 10.55 -11.0 10.6 -11.0 10.6 -10.95 10.6 -10.95 10.65 -10.95 10.7 -10.95 10.75 -11.0 10.8 -11.05 10.8 -11.05 10.85 -11.15 10.9 -11.15 10.85 -11.1 10.9 -11.1 10.9 -11.05 10.9 -11.05 11.0 -11.1 11.0 -11.2 11.0 -11.2 11.05 -11.2 11.1 -11.25 11.1 -11.3 11.15 -11.3 11.15 -11.35 11.2 -11.35 11.2 -11.3 11.2 -11.3 11.2 -11.25 11.15 -11.25 11.2 -11.25 11.2 -11.25 11.25 -11.25 11.25 -11.25 11.3 -11.25 11.3 -11.25 11.35 -11.2 11.3 -11.15 11.35 -11.15 11.35 -11.1 11.4 -11.1 11.45 -11.1 11.45 -11.1 11.5 -11.05 11.5 -11.05 11.55 -11.05 11.6 -11.05 11.55 -11.0 11.55 -11.0 11.6 -11.0 11.65 -11.0 11.65 -11.0 11.7 -11.0 11.75 -11.0 11.8 -10.95 11.8 -10.95 11.85 -11.0 11.9 -10.95 11.85 -10.95 11.85 -10.95 11.8 -10.9 11.8 -10.9 11.8 -10.85 11.85 -10.8 11.85 -10.8 11.9 -10.75 11.9 -10.65 12.0 -10.6 11.95 -10.6 11.9 -10.55 11.8 -10.6 11.75 -10.6 11.7 -10.6 11.7 -10.55 11.7 -10.55 11.7 -10.5 11.75 -10.45 11.75 -10.45 Q11.8 -10.4 11.85 -10.4 L11.95 -10.35 11.9 -10.35 11.85 -10.35 11.8 -10.35 11.8 -10.35 11.75 -10.35 11.7 -10.35 11.65 -10.4 11.65 -10.35 Q11.65 -10.3 11.6 -10.3 L11.6 -10.3 11.55 -10.3 11.5 -10.3 11.5 -10.25 11.45 -10.3 11.45 -10.3 11.45 -10.25 11.45 -10.2 11.45 -10.2 11.5 -10.15 11.5 -10.15 11.55 -10.1 11.55 -10.1 11.6 -10.0 Q11.6 -10.0 11.55 -10.05 L11.5 -10.05 11.5 -10.05 11.45 -10.1 11.45 -10.1 11.4 -10.15 11.4 -10.15 11.35 -10.1 11.4 -10.1 11.4 -10.05 11.4 -9.95 11.4 -9.95 11.35 -9.9 11.35 -9.9 11.4 -9.9 11.35 -9.85 11.35 -9.85 11.3 -9.85 11.3 -9.85 11.2 -9.85 11.2 -9.85 11.15 -9.85 11.15 -9.8 11.15 -9.75 11.1 -9.75 11.05 -9.75 11.05 -9.8 11.0 -9.8 10.95 -9.8 10.95 -9.85 10.95 -9.9 10.9 -9.9 10.9 -9.9 10.85 -9.95 10.85 -10.0 10.8 -10.05 10.75 -10.05 10.75 -10.1 10.7 -10.1 10.7 -10.1 10.65 -10.1 10.6 -10.2 10.55 -10.2 Q10.5 -10.2 10.45 -10.25 L10.4 -10.25 10.4 -10.25 10.45 -10.2 10.45 -10.15 10.45 -10.1 10.5 -10.05 10.5 -10.0 10.5 -9.95 10.5 -9.9 10.45 -9.8 10.45 -9.75 10.4 -9.7 10.4 -9.7 10.35 -9.65 10.3 -9.65 10.25 -9.7 10.25 -9.7 10.25 -9.7 10.2 -9.7 10.2 -9.75 10.15 -9.75 10.15 -9.85 M11.95 -11.05 L11.9 -11.05 11.85 -11.05 11.85 -11.05 11.75 -11.0 Q11.7 -11.0 11.7 -11.05 L11.65 -11.05 11.6 -11.1 11.6 -11.1 11.55 -11.15 11.55 -11.15 11.6 -11.15 11.65 -11.15 11.7 -11.15 11.65 -11.1 11.65 -11.05 11.7 -11.05 11.8 -11.1 11.85 -11.1 11.95 -11.05 M9.85 -9.9 L9.9 -9.8 9.95 -9.75 10.0 -9.7 10.0 -9.7 9.95 -9.7 9.95 -9.7 9.9 -9.75 9.9 -9.75 9.85 -9.8 9.85 -9.9 M11.2 -11.75 Q11.25 -11.75 11.25 -11.8 L11.25 -11.8 11.3 -11.85 11.4 -11.85 11.35 -11.8 11.35 -11.8 11.3 -11.8 11.25 -11.75 11.2 -11.7 11.2 -11.65 11.15 -11.6 11.15 -11.55 11.1 -11.5 11.05 -11.45 11.05 -11.4 11.0 -11.3 11.0 -11.4 10.95 -11.45 10.95 -11.5 11.0 -11.5 11.0 -11.55 11.05 -11.6 11.05 -11.65 11.1 -11.7 11.1 -11.7 11.15 -11.7 11.15 -11.75 11.2 -11.75 M11.2 -11.45 L11.2 -11.5 11.25 -11.5 11.25 -11.45 11.2 -11.4 11.2 -11.4 11.2 -11.45 M11.1 -11.6 L11.0 -11.5 11.0 -11.4 11.05 -11.45 11.05 -11.5 11.1 -11.55 11.1 -11.65 11.1 -11.6 M10.9 -11.4 L10.95 -11.35 10.95 -11.35 10.95 -11.25 10.9 -11.25 10.9 -11.3 10.9 -11.35 10.9 -11.4 M10.9 -11.7 L10.9 -11.65 10.95 -11.65 10.95 -11.65 10.95 -11.55 10.95 -11.5 10.9 -11.45 10.85 -11.4 10.85 -11.35 10.8 -11.3 10.8 -11.2 10.7 -11.15 10.7 -11.2 10.7 -11.3 10.75 -11.4 10.75 -11.45 10.8 -11.45 10.8 -11.5 10.85 -11.55 10.85 -11.6 10.85 -11.65 10.9 -11.7 10.9 -11.7 M11.1 -11.2 L11.0 -11.1 11.0 -11.1 10.9 -11.0 10.9 -10.95 10.85 -10.9 10.75 -10.8 Q10.75 -10.8 10.75 -10.85 L10.7 -10.8 10.7 -10.8 10.65 -10.75 10.65 -10.75 10.6 -10.75 10.55 -10.8 10.55 -10.8 10.5 -10.85 10.5 -10.85 10.4 -10.85 10.4 -10.85 10.35 -10.9 10.35 -10.95 10.35 -10.9 10.3 -10.9 10.3 -10.8 10.25 -10.8 10.25 -10.8 10.25 -10.8 10.2 -10.8 10.2 -10.7 10.25 -10.65 10.25 -10.6 10.2 -10.55 10.15 -10.55 10.15 -10.5 10.1 -10.5 10.15 -10.45 10.15 -10.35 10.2 -10.3 10.2 -10.25 10.2 -10.2 10.25 -10.15 10.25 -10.15 10.3 -10.15 10.3 -10.05 10.35 -10.0 10.35 -10.05 10.4 -9.95 10.4 -9.9 10.4 -10.05 10.4 -10.15 10.4 -10.3 10.4 -10.3 10.45 -10.3 10.45 -10.25 10.5 -10.3 10.5 -10.3 10.55 -10.25 10.65 -10.2 Q10.7 -10.2 10.75 -10.15 L10.8 -10.1 10.8 -10.2 10.8 -10.3 10.85 -10.25 10.9 -10.2 10.9 -10.2 10.95 -10.15 11.0 -10.1 11.0 -10.1 11.05 -10.05 11.1 -10.05 11.15 -10.05 11.15 -10.1 11.15 -10.1 11.2 -10.1 11.2 -10.1 Q11.25 -10.1 11.25 -10.1 L11.3 -10.15 11.35 -10.2 11.35 -10.2 11.4 -10.2 11.4 -10.15 11.4 -10.25 11.35 -10.3 11.35 -10.4 11.35 -10.45 11.3 -10.5 11.3 -10.5 11.35 -10.5 11.35 -10.5 11.4 -10.5 11.45 -10.45 11.5 -10.45 11.5 -10.45 11.55 -10.45 11.55 -10.5 11.55 -10.55 11.6 -10.55 11.6 -10.55 11.55 -10.6 11.6 -10.65 11.65 -10.65 11.7 -10.7 11.75 -10.75 11.7 -10.8 11.7 -10.8 Q11.65 -10.85 11.65 -10.85 L11.55 -10.9 11.5 -10.9 11.45 -10.95 11.4 -10.95 11.4 -10.95 11.45 -11.0 11.4 -11.0 11.4 -11.0 11.35 -11.05 11.35 -11.05 11.3 -11.1 11.25 -11.1 Q11.25 -11.1 11.2 -11.1 L11.2 -11.1 11.15 -11.1 11.15 -11.1 11.1 -11.05 11.05 -11.1 11.1 -11.1 11.1 -11.2 M10.75 -10.0 L10.75 -10.0 10.8 -9.95 10.85 -9.95 10.85 -9.9 10.9 -9.9 10.95 -9.8 10.95 -9.8 10.95 -9.8 11.0 -9.7 11.0 -9.7 10.95 -9.7 10.95 -9.7 10.9 -9.7 10.9 -9.7 10.85 -9.7 10.8 -9.8 10.75 -9.9 10.75 -10.0 M10.5 -10.15 L10.5 -10.2 10.55 -10.2 10.65 -10.05 10.7 -10.0 10.7 -9.95 10.7 -9.9 10.65 -9.9 10.6 -9.9 10.55 -10.0 10.55 -10.0 10.55 -10.1 10.5 -10.15 M12.0 -10.4 L12.0 -10.35 12.05 -10.35 12.05 -10.35 12.0 -10.35 11.95 -10.35 12.0 -10.35 12.0 -10.4 M11.45 -10.05 L11.45 -10.0 11.45 -10.0 11.45 -10.05 M11.6 -10.2 L11.6 -10.25 11.6 -10.25 11.65 -10.25 11.65 -10.25 11.7 -10.3 11.7 -10.25 11.7 -10.25 11.7 -10.2 11.65 -10.2 11.6 -10.2 M11.5 -10.2 L11.5 -10.25 11.55 -10.2 11.55 -10.2 11.6 -10.15 11.7 -10.1 11.7 -10.1 11.75 -10.15 11.8 -10.1 11.8 -10.1 11.8 -9.95 Q11.8 -9.95 11.75 -9.95 L11.7 -9.95 11.7 -10.0 11.65 -10.05 11.6 -10.1 11.6 -10.15 11.5 -10.2 M12.15 -10.55 L12.1 -10.55 12.1 -10.6 12.15 -10.6 12.15 -10.6 12.2 -10.6 12.25 -10.6 12.2 -10.55 12.2 -10.55 12.15 -10.55 M12.1 -10.7 L12.15 -10.7 12.2 -10.7 12.25 -10.7 12.25 -10.65 12.2 -10.65 12.15 -10.65 12.1 -10.65 Q12.1 -10.65 12.05 -10.65 L12.05 -10.65 12.0 -10.65 12.0 -10.65 12.0 -10.7 12.1 -10.7 M11.7 -10.5 L11.75 -10.55 11.8 -10.55 11.85 -10.55 11.9 -10.55 11.95 -10.55 11.95 -10.5 11.95 -10.5 11.9 -10.5 11.85 -10.5 11.85 -10.5 11.75 -10.5 11.75 -10.5 11.7 -10.5" fill="#b97814" fill-rule="evenodd" stroke="none"/>
    <path d="M11.7 -11.15 L11.7 -11.15 Q11.75 -11.1 11.75 -11.1 L11.8 -11.1 11.7 -11.05 11.65 -11.05 11.65 -11.1 11.7 -11.15 M11.1 -11.6 L11.1 -11.65 11.1 -11.55 11.05 -11.5 11.05 -11.45 11.0 -11.4 11.0 -11.5 11.1 -11.6 M11.1 -11.2 L11.1 -11.1 11.05 -11.1 11.1 -11.05 11.15 -11.1 11.15 -11.1 11.2 -11.1 11.2 -11.1 Q11.25 -11.1 11.25 -11.1 L11.3 -11.1 11.35 -11.05 11.35 -11.05 11.4 -11.0 11.4 -11.0 11.45 -11.0 11.4 -10.95 11.4 -10.95 11.45 -10.95 11.5 -10.9 11.55 -10.9 11.65 -10.85 Q11.65 -10.85 11.7 -10.8 L11.7 -10.8 11.75 -10.75 11.7 -10.7 11.65 -10.65 11.6 -10.65 11.55 -10.6 11.6 -10.55 11.6 -10.55 11.55 -10.55 11.55 -10.5 11.55 -10.45 11.5 -10.45 11.5 -10.45 11.45 -10.45 11.4 -10.5 11.35 -10.5 11.35 -10.5 11.3 -10.5 11.3 -10.5 11.35 -10.45 11.35 -10.4 11.35 -10.3 11.4 -10.25 11.4 -10.15 11.4 -10.2 11.35 -10.2 11.35 -10.2 11.3 -10.15 11.25 -10.1 Q11.25 -10.1 11.2 -10.1 L11.2 -10.1 11.15 -10.1 11.15 -10.1 11.15 -10.05 11.1 -10.05 11.05 -10.05 11.0 -10.1 11.0 -10.1 10.95 -10.15 10.9 -10.2 10.9 -10.2 10.85 -10.25 10.8 -10.3 10.8 -10.2 10.8 -10.1 10.75 -10.15 Q10.7 -10.2 10.65 -10.2 L10.55 -10.25 10.5 -10.3 10.5 -10.3 10.45 -10.25 10.45 -10.3 10.4 -10.3 10.4 -10.3 10.4 -10.15 10.4 -10.05 10.4 -9.9 10.4 -9.95 10.35 -10.05 10.35 -10.0 10.3 -10.05 10.3 -10.15 10.25 -10.15 10.25 -10.15 10.2 -10.2 10.2 -10.25 10.2 -10.3 10.15 -10.35 10.15 -10.45 10.1 -10.5 10.15 -10.5 10.15 -10.55 10.2 -10.55 10.25 -10.6 10.25 -10.65 10.2 -10.7 10.2 -10.8 10.25 -10.8 10.25 -10.8 10.25 -10.8 10.3 -10.8 10.3 -10.9 10.35 -10.9 10.35 -10.95 10.35 -10.9 10.4 -10.85 10.4 -10.85 10.5 -10.85 10.5 -10.85 10.55 -10.8 10.55 -10.8 10.6 -10.75 10.65 -10.75 10.65 -10.75 10.7 -10.8 10.7 -10.8 10.75 -10.85 Q10.75 -10.8 10.75 -10.8 L10.85 -10.9 10.9 -10.95 10.9 -11.0 11.0 -11.1 11.0 -11.1 11.1 -11.2" fill="#ffe693" fill-rule="evenodd" stroke="none"/>
  </g>
</svg>
