<?xml version="1.0" encoding="UTF-8" standalone="no"?>
<svg xmlns:xlink="http://www.w3.org/1999/xlink" height="3.8px" width="1.8px" xmlns="http://www.w3.org/2000/svg">
  <g transform="matrix(1.0, 0.0, 0.0, 1.0, 0.9, 1.9)">
    <path d="M0.3 -1.8 Q0.45 -1.9 0.6 -1.9 0.8 -1.9 0.85 -1.7 L0.9 -1.5 0.9 -1.2 Q0.85 -0.7 0.7 -0.35 L0.15 0.75 -0.05 1.1 -0.25 1.5 -0.3 1.7 -0.4 1.8 Q-0.5 1.9 -0.6 1.9 -0.9 1.9 -0.9 1.6 L-0.75 1.3 -0.55 0.8 -0.5 0.55 -0.45 0.25 Q-0.35 -0.15 -0.35 -0.35 -0.25 -1.05 0.0 -1.5 L0.15 -1.65 0.3 -1.8" fill="#796f5f" fill-rule="evenodd" stroke="none"/>
  </g>
</svg>
