<?xml version="1.0" encoding="UTF-8" standalone="no"?>
<svg xmlns:xlink="http://www.w3.org/1999/xlink" height="3.95px" width="4.2px" xmlns="http://www.w3.org/2000/svg">
  <g transform="matrix(1.0, 0.0, 0.0, 1.0, 2.05, 1.85)">
    <path d="M-0.8 -0.4 L-0.9 -0.5 -0.85 -0.5 -0.8 -0.5 -0.75 -0.55 -0.7 -0.55 -0.65 -0.5 -0.65 -0.5 -0.6 -0.5 -0.55 -0.4 -0.6 -0.4 -0.6 -0.4 -0.65 -0.4 -0.7 -0.4 -0.75 -0.4 -0.8 -0.4 M-0.55 -0.5 L-0.55 -0.55 -0.5 -0.5 -0.45 -0.5 -0.4 -0.45 -0.4 -0.45 -0.35 -0.4 -0.4 -0.35 -0.45 -0.4 -0.5 -0.45 -0.55 -0.45 -0.55 -0.5" fill="#5e665f" fill-rule="evenodd" stroke="none"/>
    <path d="M1.9 1.55 L1.95 1.55 1.95 1.65 1.65 1.45 1.6 1.4 1.9 1.55 M2.15 1.8 L2.15 1.9 2.0 1.75 1.8 1.65 1.8 1.6 1.85 1.65 2.05 1.75 2.1 1.75 2.15 1.8 M2.15 2.0 L2.15 2.1 1.85 1.9 1.9 1.9 1.95 1.9 2.1 2.0 Q2.15 2.0 2.15 2.0 M0.95 1.1 L1.0 1.05 1.05 1.1 1.1 1.15 1.15 1.15 1.2 1.2 1.25 1.2 1.25 1.25 1.3 1.25 1.35 1.3 1.5 1.35 1.55 1.45 1.3 1.3 1.4 1.4 1.45 1.4 1.55 1.5 1.5 1.5 1.4 1.45 1.35 1.4 1.2 1.3 1.15 1.25 0.95 1.1 M2.0 1.85 L1.9 1.8 1.85 1.75 1.9 1.75 2.05 1.85 2.0 1.85" fill="#767974" fill-rule="evenodd" stroke="none"/>
    <path d="M-0.6 -0.75 L-0.55 -0.7 -0.55 -0.65 -0.4 -0.55 -0.05 -0.15 0.3 0.15 0.4 0.25 0.4 0.3 0.35 0.35 0.3 0.35 0.25 0.3 0.25 0.25 0.2 0.25 0.15 0.25 -0.1 0.0 -0.15 -0.05 -0.3 -0.15 -0.4 -0.25 -0.55 -0.4 -0.55 -0.4 -0.35 -0.15 -0.2 0.0 -0.1 0.1 0.0 0.2 0.1 0.3 0.15 0.35 0.15 0.4 0.2 0.4 0.2 0.45 0.25 0.45 0.3 0.45 0.35 0.45 0.35 0.5 0.3 0.5 0.25 0.55 0.25 0.6 -0.25 0.1 -0.25 0.1 -0.8 -0.4 -0.75 -0.4 -0.7 -0.4 -0.65 -0.4 -0.6 -0.4 -0.6 -0.4 -0.55 -0.4 -0.6 -0.5 -0.65 -0.5 -0.65 -0.5 -0.7 -0.55 -0.75 -0.55 -0.8 -0.5 -0.85 -0.5 -0.9 -0.5 -0.9 -0.5 -0.9 -0.5 -0.75 -0.6 -0.65 -0.65 -0.65 -0.65 -0.6 -0.7 -0.6 -0.75 M0.5 0.35 L1.0 0.75 1.0 0.8 1.05 0.85 1.05 0.9 1.0 0.8 0.95 0.8 0.9 0.75 0.8 0.65 0.7 0.6 0.8 0.7 0.9 0.8 0.95 0.85 1.05 0.9 1.05 0.95 1.0 0.95 0.95 0.9 0.55 0.55 0.45 0.45 0.4 0.4 0.45 0.35 0.5 0.35 M1.35 1.1 L1.9 1.55 1.6 1.4 1.65 1.45 1.95 1.65 1.95 1.55 2.15 1.7 2.15 1.8 2.1 1.75 2.05 1.75 1.85 1.65 1.8 1.6 1.8 1.65 2.0 1.75 2.15 1.9 2.15 2.0 Q2.15 2.0 2.1 2.0 L1.95 1.9 1.9 1.9 1.85 1.9 1.85 1.85 Q1.6 1.7 1.4 1.55 L1.5 1.55 1.4 1.45 1.3 1.45 1.15 1.3 0.9 1.15 0.85 1.1 0.8 1.05 0.8 1.0 0.75 1.0 0.65 0.95 0.4 0.75 0.3 0.65 0.3 0.6 0.35 0.55 Q0.35 0.5 0.35 0.5 L0.45 0.55 0.5 0.6 0.6 0.7 0.55 0.65 0.55 0.7 0.65 0.8 0.7 0.9 0.75 0.9 0.8 0.95 0.85 1.0 0.9 1.05 0.9 1.1 0.95 1.1 1.15 1.25 1.2 1.3 1.35 1.4 1.4 1.45 1.5 1.5 1.55 1.5 1.45 1.4 1.4 1.4 1.3 1.3 1.55 1.45 1.5 1.35 1.35 1.3 1.35 1.25 1.25 1.2 1.15 1.1 1.15 1.05 1.25 1.15 1.25 1.2 1.5 1.3 1.45 1.3 1.3 1.15 1.25 1.1 1.05 0.95 1.35 1.1 M-0.55 -0.5 L-0.55 -0.45 -0.5 -0.45 -0.45 -0.4 -0.4 -0.35 -0.35 -0.4 -0.4 -0.45 -0.4 -0.45 -0.45 -0.5 -0.5 -0.5 -0.55 -0.55 -0.55 -0.5 M1.0 1.0 L1.0 0.95 1.1 1.05 1.0 1.0 M2.0 1.85 L2.05 1.85 1.9 1.75 1.85 1.75 1.9 1.8 2.0 1.85" fill="#848776" fill-rule="evenodd" stroke="none"/>
    <path d="M1.05 0.85 L1.15 0.95 1.35 1.1 1.05 0.95 1.05 0.9 0.95 0.85 0.9 0.8 0.8 0.7 0.7 0.6 0.8 0.65 0.9 0.75 0.95 0.8 1.0 0.8 1.05 0.9 1.05 0.85 M1.4 1.55 L1.4 1.5 1.35 1.5 0.8 1.05 0.7 1.0 0.7 0.95 0.65 0.95 0.75 1.0 0.8 1.0 0.8 1.05 0.85 1.1 0.9 1.15 1.15 1.3 1.3 1.45 1.4 1.45 1.5 1.55 1.4 1.55" fill="#a5a6a4" fill-rule="evenodd" stroke="none"/>
    <path d="M0.4 0.25 L0.5 0.3 0.5 0.35 0.45 0.35 0.4 0.4 0.45 0.45 0.55 0.55 0.95 0.9 1.0 0.95 1.05 0.95 1.25 1.1 1.3 1.15 1.45 1.3 1.5 1.3 1.25 1.2 1.25 1.15 1.15 1.05 1.15 1.1 1.25 1.2 1.35 1.25 1.35 1.3 1.3 1.25 1.25 1.25 1.25 1.2 1.2 1.2 1.15 1.15 1.1 1.15 1.05 1.1 1.0 1.05 0.95 1.1 0.9 1.1 0.9 1.05 0.95 1.0 0.95 0.95 0.9 0.95 0.85 0.9 0.8 0.9 0.8 0.85 0.7 0.85 0.7 0.9 0.65 0.8 0.55 0.7 0.55 0.65 0.6 0.7 0.5 0.6 0.45 0.55 0.35 0.5 Q0.35 0.5 0.35 0.55 L0.3 0.6 0.3 0.65 0.25 0.6 0.25 0.55 0.3 0.5 0.35 0.5 0.35 0.45 0.3 0.45 0.25 0.45 0.2 0.45 0.2 0.4 0.15 0.4 0.15 0.35 0.1 0.3 0.0 0.2 -0.1 0.1 -0.2 0.0 -0.35 -0.15 -0.55 -0.4 -0.55 -0.4 -0.4 -0.25 -0.3 -0.15 -0.15 -0.05 -0.1 0.0 0.15 0.25 0.2 0.25 0.25 0.25 0.25 0.3 0.3 0.35 0.35 0.35 0.4 0.3 0.4 0.25 M1.0 1.0 L1.1 1.05 1.0 0.95 1.0 1.0" fill="#8f9587" fill-rule="evenodd" stroke="none"/>
    <path d="M0.7 0.9 L0.7 0.85 0.8 0.85 0.8 0.9 0.85 0.9 0.9 0.95 0.95 0.95 0.95 1.0 0.9 1.05 0.85 1.0 0.8 0.95 0.75 0.9 0.7 0.9 M0.85 0.95 L0.8 0.95 0.85 1.0 0.9 0.95 0.85 0.95" fill="#d5d5bd" fill-rule="evenodd" stroke="none"/>
    <path d="M0.85 0.95 L0.9 0.95 0.85 1.0 0.8 0.95 0.85 0.95" fill="#f0f6fa" fill-rule="evenodd" stroke="none"/>
    <path d="M-2.05 -1.4 L-2.05 -1.55 -2.05 -1.65 -2.0 -1.7 -2.0 -1.7 -1.95 -1.75 -1.9 -1.8 -1.9 -1.85 -1.85 -1.85 -1.8 -1.85 -1.75 -1.85 -1.7 -1.85 -1.65 -1.8 -1.6 -1.75 -1.55 -1.7 -1.45 -1.65 -1.45 -1.6 Q-1.5 -1.6 -1.5 -1.6 L-1.5 -1.6 -1.55 -1.6 -1.6 -1.6 -1.6 -1.55 -1.65 -1.55 -1.65 -1.5 -1.6 -1.5 -1.6 -1.45 -1.6 -1.4 -1.6 -1.4 -1.55 -1.4 -1.55 -1.4 -1.5 -1.4 -1.5 -1.45 -1.5 -1.45 -1.55 -1.5 -1.5 -1.5 -1.45 -1.5 -1.4 -1.5 -1.35 -1.5 -1.4 -1.5 -1.35 -1.55 -1.3 -1.45 -1.25 -1.45 -1.3 -1.45 -1.3 -1.45 -1.4 -1.45 -1.4 -1.4 -1.45 -1.4 -1.45 -1.4 -1.45 -1.35 -1.5 -1.3 -1.5 -1.25 -1.5 -1.2 -1.5 -1.2 -1.45 -1.25 -1.45 -1.3 -1.4 -1.3 -1.4 -1.35 -1.35 -1.3 -1.35 -1.3 -1.35 -1.25 -1.35 -1.25 -1.4 -1.2 -1.35 -1.2 -1.35 -1.15 -1.35 -1.15 -1.35 -1.1 -1.35 -1.05 -1.4 -1.0 -1.4 -1.0 -1.4 -0.95 -1.3 -0.9 -1.25 -0.8 -1.25 -0.75 -1.3 -0.8 -1.4 -0.95 -1.5 -1.0 -1.5 -1.05 -1.5 -1.1 -1.55 -1.1 -1.55 -1.2 -1.55 -1.4 -1.55 -1.35 -1.6 -1.35 -1.6 -1.35 -1.6 -1.35 -1.6 -1.3 -1.55 -1.25 -1.6 -1.2 -1.6 -1.2 -1.65 -1.2 -1.65 -1.3 -1.7 -1.3 -1.7 -1.4 -1.7 -1.5 -1.7 -1.6 -1.6 -1.65 -1.6 -1.7 -1.65 -1.7 -1.7 -1.7 -1.8 -1.7 -1.8 -1.75 -1.85 -1.75 -1.9 -1.75 -1.95 -1.7 -1.95 -1.65 -1.95 -1.6 -2.0 -1.5 -2.0 -1.45 Q-2.0 -1.4 -2.05 -1.4 L-2.05 -1.4 M-1.15 -1.3 L-1.05 -1.2 -1.05 -1.2 -1.1 -1.2 -1.15 -1.2 -1.2 -1.2 -1.25 -1.15 -1.2 -1.15 -1.2 -1.15 -1.15 -1.1 -1.15 -1.1 -1.1 -1.1 -1.1 -1.05 -1.0 -1.05 -1.0 -1.05 -1.0 -1.0 -0.95 -1.0 -0.95 -1.05 -0.95 -1.05 -0.9 -1.05 -0.85 -1.05 -0.85 -1.0 -0.8 -0.9 -0.75 -0.9 -0.75 -0.9 -0.8 -0.9 -0.85 -0.9 -0.85 -0.9 -0.9 -0.9 -0.9 -0.95 -0.95 -0.95 -1.0 -0.95 -1.05 -1.0 -1.15 -1.05 -1.15 -1.0 -1.2 -1.05 -1.15 -1.0 -1.15 -0.8 -1.2 -0.8 -1.2 -0.8 -1.3 -0.9 -1.3 -1.0 -1.25 -1.1 -1.25 -1.2 -1.3 -1.2 -1.25 -1.2 Q-1.25 -1.2 -1.25 -1.25 L-1.25 -1.25 -1.3 -1.3 -1.3 -1.3 -1.25 -1.3 -1.2 -1.3 -1.2 -1.3 -1.15 -1.3 -1.15 -1.3 M-1.15 -0.4 L-1.15 -0.45 -1.1 -0.5 -1.05 -0.55 -1.05 -0.6 -1.05 -0.6 -1.0 -0.7 -1.05 -0.7 -1.05 -0.7 -1.1 -0.7 -1.1 -0.7 -1.15 -0.8 -1.1 -0.9 -1.1 -0.9 -1.05 -0.9 -1.05 -0.85 -1.0 -0.8 -1.0 -0.85 -1.0 -0.85 -0.95 -0.75 -0.95 -0.75 -0.95 -0.75 -0.9 -0.7 -0.9 -0.7 -0.85 -0.75 -0.85 -0.75 -0.8 -0.75 -0.75 -0.8 -0.75 -0.8 -0.7 -0.8 -0.7 -0.8 -0.65 -0.8 -0.65 -0.75 -0.7 -0.7 -0.7 -0.65 -0.75 -0.65 -0.75 -0.65 -0.8 -0.7 -0.85 -0.65 -0.85 -0.65 -0.8 -0.65 -0.85 -0.65 Q-0.85 -0.6 -0.85 -0.6 L-0.9 -0.65 -0.9 -0.65 -0.95 -0.65 -0.95 -0.65 -1.0 -0.65 -1.0 -0.6 -1.0 -0.6 -0.95 -0.65 -0.95 -0.6 -0.95 -0.55 -1.0 -0.5 -1.05 -0.45 -1.1 -0.45 -1.15 -0.4 -1.15 -0.4 -1.15 -0.4 M-0.7 -0.8 L-0.7 -0.8" fill="#764d31" fill-rule="evenodd" stroke="none"/>
    <path d="M-1.5 -1.0 L-1.5 -1.05 -1.6 -1.1 -1.7 -1.2 -1.75 -1.25 -1.85 -1.25 -1.95 -1.25 -1.95 -1.25 -2.0 -1.25 -2.05 -1.35 -2.05 -1.4 -2.05 -1.4 Q-2.0 -1.4 -2.0 -1.45 L-2.0 -1.5 -1.95 -1.6 -1.95 -1.65 -1.95 -1.7 -1.9 -1.75 -1.85 -1.75 -1.8 -1.75 -1.8 -1.7 -1.7 -1.7 -1.65 -1.7 -1.6 -1.7 -1.6 -1.65 -1.7 -1.6 -1.7 -1.5 -1.7 -1.4 -1.7 -1.3 -1.65 -1.3 -1.65 -1.2 -1.6 -1.2 -1.6 -1.2 -1.55 -1.25 -1.6 -1.3 -1.6 -1.35 -1.6 -1.35 -1.6 -1.35 -1.55 -1.35 -1.55 -1.4 -1.55 -1.2 -1.55 -1.1 -1.5 -1.1 -1.5 -1.05 -1.5 -1.0 M-1.75 -1.65 L-1.75 -1.65 -1.85 -1.65 -1.9 -1.65 -1.9 -1.6 -1.85 -1.6 -1.9 -1.55 -1.9 -1.5 -1.95 -1.5 -1.95 -1.4 -1.9 -1.35 -1.9 -1.3 -1.9 -1.3 -1.85 -1.3 -1.8 -1.3 -1.75 -1.3 -1.8 -1.4 -1.8 -1.4 -1.85 -1.45 -1.85 -1.45 -1.8 -1.5 Q-1.8 -1.55 -1.8 -1.55 L-1.8 -1.55 -1.8 -1.6 -1.8 -1.6 -1.8 -1.6 -1.75 -1.65 M-1.8 -1.55 L-1.8 -1.55 M-1.85 -1.6 L-1.85 -1.6 -1.85 -1.6" fill="#4e2f1d" fill-rule="evenodd" stroke="none"/>
    <path d="M-1.85 -1.6 L-1.9 -1.6 -1.9 -1.65 -1.85 -1.65 -1.75 -1.65 -1.75 -1.65 -1.8 -1.65 -1.8 -1.6 -1.85 -1.6 -1.85 -1.6 M-1.6 -1.5 L-1.6 -1.5 -1.55 -1.5 -1.55 -1.5 -1.5 -1.45 -1.5 -1.45 -1.55 -1.45 -1.55 -1.4 -1.6 -1.4 -1.6 -1.4 -1.6 -1.45 -1.6 -1.5 M-1.35 -1.25 L-1.3 -1.3 -1.25 -1.25 -1.25 -1.25 -1.3 -1.2 -1.3 -1.2 -1.35 -1.2 -1.35 -1.2 -1.4 -1.2 -1.35 -1.25 -1.35 -1.25" fill="#a38c63" fill-rule="evenodd" stroke="none"/>
    <path d="M-1.45 -1.65 L-1.35 -1.55 -1.4 -1.5 -1.35 -1.5 -1.4 -1.5 -1.45 -1.5 -1.5 -1.5 -1.55 -1.5 -1.55 -1.5 -1.6 -1.5 -1.6 -1.5 -1.65 -1.5 -1.65 -1.55 -1.6 -1.55 -1.6 -1.6 -1.55 -1.6 -1.5 -1.6 -1.5 -1.6 Q-1.5 -1.6 -1.45 -1.6 L-1.45 -1.65 M-1.8 -1.6 L-1.8 -1.55 -1.85 -1.6 -1.8 -1.6 -1.8 -1.6 M-1.85 -1.6 L-1.85 -1.6 M-1.8 -1.55 L-1.8 -1.55" fill="#996b49" fill-rule="evenodd" stroke="none"/>
    <path d="M-1.85 -1.6 L-1.85 -1.6 -1.8 -1.6 -1.8 -1.65 -1.75 -1.65 -1.8 -1.6 -1.8 -1.6 -1.8 -1.6 -1.8 -1.6 -1.85 -1.6 -1.85 -1.6 M-1.5 -1.45 L-1.5 -1.4 -1.55 -1.4 -1.55 -1.4 -1.6 -1.4 -1.6 -1.4 -1.6 -1.4 -1.55 -1.4 -1.55 -1.45 -1.5 -1.45 M-1.25 -1.25 Q-1.25 -1.2 -1.25 -1.2 L-1.3 -1.2 -1.3 -1.15 -1.35 -1.15 -1.35 -1.15 -1.35 -1.2 -1.35 -1.2 -1.3 -1.2 -1.3 -1.2 -1.25 -1.25" fill="#74563a" fill-rule="evenodd" stroke="none"/>
    <path d="M-1.8 -1.55 L-1.8 -1.55 Q-1.8 -1.55 -1.8 -1.5 L-1.85 -1.45 -1.85 -1.45 -1.8 -1.4 -1.8 -1.4 -1.75 -1.3 -1.8 -1.3 -1.85 -1.3 -1.9 -1.3 -1.9 -1.3 -1.9 -1.35 -1.95 -1.4 -1.95 -1.5 -1.9 -1.5 -1.9 -1.55 -1.85 -1.6 -1.8 -1.55" fill="#2b170e" fill-rule="evenodd" stroke="none"/>
    <path d="M-1.25 -1.45 L-1.15 -1.3 -1.15 -1.3 -1.2 -1.3 -1.2 -1.3 -1.25 -1.3 -1.3 -1.3 -1.3 -1.3 -1.35 -1.25 -1.35 -1.3 -1.35 -1.3 -1.4 -1.35 -1.4 -1.3 -1.45 -1.3 -1.45 -1.25 -1.5 -1.2 -1.5 -1.2 -1.5 -1.25 -1.5 -1.3 -1.45 -1.35 -1.45 -1.4 -1.45 -1.4 -1.4 -1.4 -1.4 -1.45 -1.3 -1.45 -1.3 -1.45 -1.25 -1.45" fill="#976b3e" fill-rule="evenodd" stroke="none"/>
    <path d="M-1.05 -1.2 L-0.9 -1.1 -0.95 -1.1 -1.05 -1.1 -1.05 -1.1 -1.15 -1.1 -1.15 -1.1 -1.2 -1.15 -1.2 -1.15 -1.25 -1.15 -1.2 -1.2 -1.15 -1.2 -1.1 -1.2 -1.05 -1.2" fill="#9e6c49" fill-rule="evenodd" stroke="none"/>
    <path d="M-0.9 -1.1 L-0.9 -1.05 -0.95 -1.05 -0.95 -1.05 -0.95 -1.0 -1.0 -1.0 -1.0 -1.05 -1.0 -1.05 -1.1 -1.05 -1.1 -1.1 -1.15 -1.1 -1.05 -1.1 -1.05 -1.1 -0.95 -1.1 -0.9 -1.1 M-1.05 -0.6 L-1.15 -0.7 -1.25 -0.75 -1.25 -0.8 -1.3 -0.9 -1.4 -0.95 -1.4 -1.0 -1.4 -1.0 -1.35 -1.05 -1.35 -1.1 -1.35 -1.15 -1.3 -1.15 -1.3 -1.2 -1.25 -1.2 -1.25 -1.1 -1.3 -1.0 -1.3 -0.9 -1.2 -0.8 -1.2 -0.8 -1.15 -0.8 -1.15 -1.0 -1.2 -1.05 -1.15 -1.0 -1.1 -1.0 -1.1 -1.0 -1.05 -0.95 -1.05 -0.9 -1.0 -0.85 -1.0 -0.8 -1.05 -0.85 -1.05 -0.9 -1.1 -0.9 -1.1 -0.9 -1.15 -0.8 -1.1 -0.7 -1.1 -0.7 -1.05 -0.7 -1.05 -0.7 -1.0 -0.7 -1.05 -0.6 -1.05 -0.6" fill="#56361d" fill-rule="evenodd" stroke="none"/>
    <path d="M-1.15 -1.0 L-1.15 -1.05 -1.05 -1.0 -1.0 -0.95 -1.05 -0.95 -1.1 -1.0 -1.1 -1.0 -1.15 -1.0" fill="#8e7453" fill-rule="evenodd" stroke="none"/>
    <path d="M-1.0 -0.95 L-0.95 -0.95 -0.9 -0.95 -0.95 -0.9 -0.95 -0.9 -1.0 -0.9 -1.0 -0.85 -1.05 -0.95 -1.0 -0.95" fill="#724d30" fill-rule="evenodd" stroke="none"/>
    <path d="M-0.6 -0.8 L-0.6 -0.75 -0.6 -0.75 -0.6 -0.7 -0.65 -0.65 -0.65 -0.65 -0.75 -0.6 -0.9 -0.5 -0.9 -0.5 -0.95 -0.45 -1.0 -0.4 -1.05 -0.4 -1.1 -0.35 -1.15 -0.35 -1.15 -0.35 -1.15 -0.4 -1.15 -0.4 -1.1 -0.45 -1.05 -0.45 -1.0 -0.5 -0.95 -0.55 -0.95 -0.6 -0.95 -0.65 -1.0 -0.6 -1.0 -0.6 -1.0 -0.65 -0.95 -0.65 -0.95 -0.65 -0.9 -0.65 -0.9 -0.65 -0.85 -0.6 Q-0.85 -0.6 -0.85 -0.65 L-0.8 -0.65 -0.85 -0.65 -0.85 -0.65 -0.8 -0.7 -0.75 -0.65 -0.75 -0.65 -0.7 -0.65 -0.7 -0.7 -0.65 -0.75 -0.65 -0.8 -0.65 -0.8 -0.6 -0.8 -0.6 -0.8 M-1.05 -0.95 L-1.0 -0.85 -1.05 -0.9 -1.05 -0.95 M-1.15 -0.35 L-1.15 -0.35 M-1.0 -0.85 L-1.0 -0.85" fill="#39302b" fill-rule="evenodd" stroke="none"/>
    <path d="M-1.25 -0.4 L-1.25 -0.4 -1.2 -0.4 -1.15 -0.4 -1.15 -0.35 -1.15 -0.35 -1.2 -0.35 -1.2 -0.35 -1.25 -0.4 M-1.15 -0.4 L-1.15 -0.4 M-1.2 -0.35 L-1.2 -0.35" fill="#8f7f66" fill-rule="evenodd" stroke="none"/>
    <path d="M-1.4 -0.2 L-1.4 -0.3 -1.4 -0.3 -1.35 -0.3 -1.35 -0.35 -1.3 -0.35 -1.3 -0.35 -1.25 -0.4 -1.2 -0.35 -1.2 -0.35 -1.25 -0.3 -1.3 -0.3 -1.3 -0.25 -1.35 -0.25 -1.35 -0.25 -1.4 -0.25 -1.4 -0.2" fill="#fcf1b9" fill-rule="evenodd" stroke="none"/>
    <path d="M-1.2 -0.3 L-1.2 -0.25 -1.25 -0.25 -1.3 -0.2 -1.35 -0.2 -1.35 -0.15 -1.4 -0.15 -1.4 -0.2 -1.4 -0.25 -1.35 -0.25 -1.35 -0.25 -1.3 -0.25 -1.3 -0.3 -1.25 -0.3 -1.2 -0.35 -1.2 -0.35 -1.15 -0.3 -1.2 -0.3 M-1.2 -0.35 L-1.2 -0.35" fill="#6e5a37" fill-rule="evenodd" stroke="none"/>
    <path d="M-1.15 -0.35 L-1.15 -0.3 -1.15 -0.3 -1.2 -0.3 -1.15 -0.3 -1.2 -0.35 -1.2 -0.35 -1.15 -0.35 -1.15 -0.35" fill="#554538" fill-rule="evenodd" stroke="none"/>
    <path d="M-1.2 -0.25 L-1.2 -0.25 -1.25 -0.15 -1.3 -0.15 -1.35 -0.15 -1.35 -0.2 -1.3 -0.2 -1.25 -0.25 -1.2 -0.25" fill="#4f3f2f" fill-rule="evenodd" stroke="none"/>
    <path d="M-0.65 -1.0 L-0.6 -1.0 -0.6 -1.0 -0.55 -1.0 -0.55 -1.0 -0.5 -1.0 -0.5 -1.0 -0.45 -1.0 -0.45 -1.05 -0.4 -1.1 -0.35 -1.15 -0.35 -1.05 -0.4 -1.05 -0.45 -1.0 -0.45 -0.95 -0.5 -0.95 -0.5 -0.95 -0.5 -0.9 -0.55 -0.85 -0.6 -0.8 -0.6 -0.8 -0.65 -0.8 -0.65 -0.8 -0.6 -0.85 -0.6 -0.95 -0.55 -0.95 -0.55 -0.95 -0.6 -0.95 -0.65 -1.0 M-0.7 -0.8 L-0.65 -0.8 -0.7 -0.8 -0.7 -0.8" fill="#6a5544" fill-rule="evenodd" stroke="none"/>
    <path d="M-0.55 -1.1 L-0.55 -1.1 -0.5 -1.15 -0.45 -1.2 -0.4 -1.2 -0.5 -1.15 -0.5 -1.1 -0.55 -1.1 -0.55 -1.1" fill="#efe5cc" fill-rule="evenodd" stroke="none"/>
    <path d="M-0.6 -1.0 L-0.6 -1.05 -0.55 -1.1 -0.55 -1.1 -0.55 -1.1 -0.5 -1.1 -0.5 -1.15 -0.4 -1.2 -0.4 -1.2 -0.35 -1.15 -0.4 -1.1 -0.45 -1.05 -0.45 -1.0 -0.5 -1.0 -0.5 -1.0 -0.55 -1.0 -0.55 -1.0 -0.6 -1.0 -0.6 -1.0" fill="#c3b586" fill-rule="evenodd" stroke="none"/>
    <path d="M-0.75 -0.9 L-0.7 -0.9 -0.65 -0.95 Q-0.65 -0.95 -0.65 -1.0 L-0.6 -0.95 -0.55 -0.95 -0.55 -0.95 -0.6 -0.95 -0.6 -0.85 -0.65 -0.8 -0.7 -0.8 -0.75 -0.85 -0.75 -0.85 -0.8 -0.9 -0.75 -0.9 M-0.7 -0.8 L-0.7 -0.8" fill="#b6b2b1" fill-rule="evenodd" stroke="none"/>
    <path d="M-0.9 -0.95 L-0.9 -0.9 -0.95 -0.85 -0.9 -0.85 -0.9 -0.85 -0.85 -0.9 -0.85 -0.9 -0.85 -0.9 -0.8 -0.9 -0.75 -0.85 -0.75 -0.85 -0.8 -0.85 -0.9 -0.85 -0.9 -0.8 -0.95 -0.75 -0.95 -0.75 -0.95 -0.75 -1.0 -0.85 -1.0 -0.9 -0.95 -0.9 -0.95 -0.9 -0.9 -0.95" fill="#9e8f78" fill-rule="evenodd" stroke="none"/>
    <path d="M-0.9 -0.8 L-0.9 -0.85 -0.8 -0.85 -0.75 -0.85 -0.75 -0.85 -0.8 -0.85 Q-0.8 -0.8 -0.8 -0.8 L-0.85 -0.85 -0.85 -0.8 -0.9 -0.8" fill="#f2dfb5" fill-rule="evenodd" stroke="none"/>
    <path d="M-0.9 -0.9 L-0.85 -0.9 -0.85 -0.9 -0.9 -0.85 -0.9 -0.85 -0.95 -0.85 -0.9 -0.9" fill="#ddd3c7" fill-rule="evenodd" stroke="none"/>
    <path d="M-0.9 -0.8 L-0.85 -0.8 -0.85 -0.85 -0.8 -0.8 Q-0.8 -0.8 -0.8 -0.85 L-0.75 -0.85 -0.75 -0.85 -0.7 -0.8 -0.75 -0.8 -0.75 -0.8 -0.8 -0.75 -0.85 -0.75 -0.85 -0.75 -0.9 -0.7 -0.9 -0.7 -0.95 -0.75 -0.95 -0.75 -0.95 -0.75 -0.9 -0.8" fill="#b29e6c" fill-rule="evenodd" stroke="none"/>
    <path d="M-1.5 -1.0 L-1.5 -1.05 -1.6 -1.1 -1.7 -1.2 -1.75 -1.25 -1.85 -1.25 -1.95 -1.25 -1.95 -1.25 -2.0 -1.25 -2.05 -1.35 -2.05 -1.4 -2.05 -1.55 -2.05 -1.65 -2.0 -1.7 -2.0 -1.7 -1.95 -1.75 -1.9 -1.8 -1.9 -1.85 -1.85 -1.85 -1.8 -1.85 -1.75 -1.85 -1.7 -1.85 -1.65 -1.8 -1.6 -1.75 -1.55 -1.7 -1.45 -1.65 -1.35 -1.55 -1.3 -1.45 -1.25 -1.45 -1.15 -1.3 -1.05 -1.2 -1.05 -1.2 -0.9 -1.1 -0.9 -1.05 -0.85 -1.05 -0.85 -1.0 -0.8 -0.9 -0.75 -0.9 -0.75 -0.9 -0.7 -0.9 -0.65 -0.95 Q-0.65 -0.95 -0.65 -1.0 L-0.6 -1.0 -0.6 -1.05 -0.55 -1.1 -0.55 -1.1 -0.55 -1.1 -0.5 -1.15 -0.45 -1.2 -0.4 -1.2 -0.4 -1.2 -0.35 -1.15 -0.35 -1.05 -0.4 -1.05 -0.45 -1.0 -0.45 -0.95 -0.5 -0.95 -0.5 -0.95 -0.5 -0.9 -0.55 -0.85 -0.6 -0.8 -0.6 -0.75 -0.6 -0.75 -0.55 -0.7 -0.55 -0.65 -0.4 -0.55 -0.05 -0.15 0.3 0.15 0.4 0.25 0.5 0.3 0.5 0.35 1.0 0.75 1.0 0.8 1.05 0.85 1.15 0.95 1.35 1.1 1.9 1.55 1.95 1.55 2.15 1.7 M2.15 2.1 L1.85 1.9 1.85 1.85 Q1.6 1.7 1.4 1.55 L1.4 1.5 1.35 1.5 0.8 1.05 0.7 1.0 0.7 0.95 0.65 0.95 0.4 0.75 0.3 0.65 0.25 0.6 -0.25 0.1 -0.25 0.1 -0.8 -0.4 -0.9 -0.5 -0.9 -0.5 -0.95 -0.45 -1.0 -0.4 -1.05 -0.4 -1.1 -0.35 -1.15 -0.35 -1.15 -0.3 -1.15 -0.3 -1.2 -0.3 -1.2 -0.25 -1.2 -0.25 -1.25 -0.15 -1.3 -0.15 -1.35 -0.15 -1.4 -0.15 -1.4 -0.2 -1.4 -0.3 -1.4 -0.3 -1.35 -0.3 -1.35 -0.35 -1.3 -0.35 -1.3 -0.35 -1.25 -0.4 -1.25 -0.4 -1.2 -0.4 -1.15 -0.4 -1.15 -0.45 -1.1 -0.5 -1.05 -0.55 -1.05 -0.6 -1.15 -0.7 -1.25 -0.75 -1.3 -0.8 -1.4 -0.95 -1.5 -1.0" fill="none" stroke="#000000" stroke-linecap="round" stroke-linejoin="round" stroke-opacity="0.4509804" stroke-width="1.0"/>
  </g>
</svg>
