<?xml version="1.0" encoding="UTF-8" standalone="no"?>
<svg xmlns:xlink="http://www.w3.org/1999/xlink" height="3.5px" width="2.0px" xmlns="http://www.w3.org/2000/svg">
  <g transform="matrix(1.0, 0.0, 0.0, 1.0, 1.0, 1.75)">
    <path d="M0.05 -1.4 L0.35 -1.65 0.55 -1.75 0.6 -1.75 0.75 -1.75 0.85 -1.65 Q0.9 -1.65 1.0 -1.4 1.05 -1.15 0.95 -0.9 L0.95 -0.75 0.8 -0.45 0.65 -0.1 0.6 -0.05 0.55 0.05 0.45 0.25 0.25 0.65 0.0 1.1 -0.25 1.4 -0.5 1.65 -0.5 1.6 -0.55 1.7 -0.8 1.75 Q-0.9 1.75 -0.95 1.6 L-1.0 1.35 -1.0 1.3 -0.85 0.95 -0.65 0.45 Q-0.45 -0.05 -0.35 -0.4 L-0.3 -0.5 Q-0.25 -1.05 0.05 -1.4" fill="#a1937e" fill-rule="evenodd" stroke="none"/>
  </g>
</svg>
