<?xml version="1.0" encoding="UTF-8" standalone="no"?>
<svg xmlns:xlink="http://www.w3.org/1999/xlink" height="2.7px" width="2.0px" xmlns="http://www.w3.org/2000/svg">
  <g transform="matrix(1.0, 0.0, 0.0, 1.0, 1.0, 1.3)">
    <path d="M0.1 -1.0 L0.1 -1.0 0.1 -1.05 0.1 -1.0" fill="#f8eede" fill-rule="evenodd" stroke="none"/>
    <path d="M-0.35 -0.9 L-0.3 -0.8 -0.1 -0.7 Q0.1 -0.7 0.1 -0.8 L0.1 -1.0 0.15 -0.9 0.2 -0.7 0.25 -0.65 -0.15 -0.6 -0.15 -0.6 -0.35 -0.6 -0.4 -0.6 -0.6 -0.85 -0.35 -0.9 M0.1 -1.0 L0.1 -1.0 M-0.15 -0.25 L0.05 -0.3 0.3 -0.3 0.35 -0.25 0.35 -0.15 0.15 -0.1 0.1 -0.1 Q-0.05 -0.1 -0.15 -0.2 L-0.15 -0.25 -0.15 -0.25" fill="#5f4e47" fill-rule="evenodd" stroke="none"/>
    <path d="M0.1 -1.05 L0.1 -1.0 -0.2 -0.95 -0.3 -0.9 -0.35 -0.9 -0.4 -0.9 -0.5 -0.9 -0.85 -1.15 -0.8 -1.15 -0.75 -1.2 -0.65 -1.25 -0.55 -1.3 -0.45 -1.3 -0.35 -1.3 Q-0.2 -1.3 -0.1 -1.2 L0.1 -1.05" fill="#b8632f" fill-rule="evenodd" stroke="none"/>
    <path d="M0.1 -1.0 L0.1 -0.8 Q0.1 -0.7 -0.1 -0.7 L-0.3 -0.8 -0.35 -0.9 -0.3 -0.9 -0.2 -0.95 0.1 -1.0" fill="#433c3a" fill-rule="evenodd" stroke="none"/>
    <path d="M-0.15 -0.25 L-0.15 -0.2 Q-0.05 -0.1 0.1 -0.1 L0.15 -0.1 0.35 -0.15 0.4 0.0 0.25 0.0 Q0.0 0.05 -0.05 0.1 L-0.3 0.35 -0.3 0.4 -0.5 0.5 -0.55 0.45 -0.65 0.4 -0.6 0.25 Q-0.6 0.1 -0.65 0.0 L-0.65 -0.05 -0.55 -0.15 -0.35 -0.05 Q-0.15 -0.15 -0.15 -0.2 L-0.15 -0.25" fill="#877660" fill-rule="evenodd" stroke="none"/>
    <path d="M-0.35 -0.9 L-0.6 -0.85 -0.65 -0.9 -0.85 -1.15 -0.5 -0.9 -0.4 -0.9 -0.35 -0.9 M-0.35 -0.6 L-0.15 -0.6 -0.15 -0.6 0.25 -0.65 0.3 -0.3 0.05 -0.3 -0.15 -0.25 -0.25 -0.45 -0.35 -0.6" fill="#c9813b" fill-rule="evenodd" stroke="none"/>
    <path d="M0.8 0.65 L0.6 0.85 0.55 0.95 0.45 1.0 0.2 0.95 -0.1 0.8 -0.1 0.75 -0.25 0.55 -0.3 0.4 -0.3 0.35 -0.05 0.1 Q0.0 0.05 0.25 0.0 L0.4 0.0 Q0.5 0.3 0.7 0.55 L0.8 0.65 M-0.8 0.55 L-0.75 -0.4 Q-0.7 -0.25 -0.65 -0.05 L-0.65 0.0 -0.75 0.55 -0.8 0.55" fill="#2a251e" fill-rule="evenodd" stroke="none"/>
    <path d="M-0.6 -0.85 L-0.4 -0.6 -0.35 -0.6 -0.25 -0.45 -0.15 -0.25 -0.15 -0.25 -0.15 -0.2 Q-0.15 -0.15 -0.35 -0.05 L-0.55 -0.15 -0.65 -0.05 Q-0.7 -0.25 -0.75 -0.4 L-0.8 0.55 -0.9 0.45 -0.9 0.3 -0.9 -0.5 -0.9 -0.75 -0.9 -0.9 -0.9 -1.0 -0.85 -1.15 -0.65 -0.9 -0.6 -0.85 M-0.3 0.4 L-0.25 0.55 -0.1 0.75 -0.1 0.8 0.2 0.95 0.45 1.0 0.55 0.95 0.6 0.85 0.8 0.65 Q0.95 0.85 0.95 1.05 0.95 1.2 0.8 1.25 L0.6 1.3 Q0.4 1.3 -0.1 1.1 L-0.25 1.0 -0.55 0.8 -0.6 0.7 -0.65 0.6 -0.65 0.4 -0.55 0.45 -0.5 0.5 -0.3 0.4" fill="#352f26" fill-rule="evenodd" stroke="none"/>
    <path d="M-0.9 -0.9 L-0.9 -0.75 -0.9 -0.9" fill="#645142" fill-rule="evenodd" stroke="none"/>
    <path d="M0.25 -0.65 L0.2 -0.7 0.15 -0.9 0.1 -1.0 0.1 -1.05 -0.1 -1.2 M-0.65 -1.25 L-0.75 -1.2 -0.8 -1.15 -0.85 -1.15 -0.9 -1.0 -0.9 -0.9 -0.9 -0.75 -0.9 -0.5 -0.9 0.3 -0.9 0.45 -0.8 0.55 -0.75 0.55 -0.65 0.0 Q-0.6 0.1 -0.6 0.25 L-0.65 0.4 -0.65 0.6 -0.6 0.7 -0.55 0.8 -0.25 1.0 -0.1 1.1 Q0.4 1.3 0.6 1.3 L0.8 1.25 Q0.95 1.2 0.95 1.05 0.95 0.85 0.8 0.65 L0.7 0.55 Q0.5 0.3 0.4 0.0 L0.35 -0.15 0.35 -0.25 0.3 -0.3 0.25 -0.65" fill="none" stroke="#000000" stroke-linecap="round" stroke-linejoin="round" stroke-opacity="0.4509804" stroke-width="0.1"/>
  </g>
</svg>
