<?xml version="1.0" encoding="UTF-8" standalone="no"?>
<svg xmlns:xlink="http://www.w3.org/1999/xlink" height="2.65px" width="2.0px" xmlns="http://www.w3.org/2000/svg">
  <g transform="matrix(1.0, 0.0, 0.0, 1.0, 1.0, 1.3)">
    <path d="M0.35 -0.15 L0.1 -0.1 Q-0.05 -0.1 -0.15 -0.2 L-0.15 -0.25 -0.4 -0.6 -0.65 -0.9 Q-0.8 -1.05 -0.85 -1.15 L-0.5 -0.9 -0.4 -0.9 -0.3 -0.8 Q-0.25 -0.75 -0.15 -0.75 0.05 -0.75 0.05 -0.8 L0.05 -1.05 0.15 -0.9 0.3 -0.25 0.35 -0.15" fill="#5d2a2a" fill-rule="evenodd" stroke="none"/>
    <path d="M0.05 -1.05 L0.05 -0.8 Q0.05 -0.75 -0.15 -0.75 -0.25 -0.75 -0.3 -0.8 L-0.4 -0.9 -0.5 -0.9 -0.85 -1.15 -0.8 -1.15 -0.75 -1.2 -0.55 -1.3 -0.35 -1.3 Q-0.2 -1.3 -0.1 -1.25 L0.05 -1.05" fill="#6b3131" fill-rule="evenodd" stroke="none"/>
    <path d="M-0.15 -0.25 L-0.15 -0.2 Q-0.05 -0.1 0.1 -0.1 L0.35 -0.15 0.4 0.0 0.25 0.0 Q0.0 0.05 -0.1 0.1 L-0.3 0.35 -0.3 0.4 Q-0.45 0.5 -0.5 0.5 L-0.55 0.45 -0.65 0.4 -0.6 0.35 -0.6 0.25 -0.65 -0.05 -0.55 -0.15 Q-0.5 -0.15 -0.45 -0.1 L-0.35 -0.05 Q-0.15 -0.15 -0.15 -0.2 L-0.15 -0.25" fill="#48463e" fill-rule="evenodd" stroke="none"/>
    <path d="M-0.15 -0.25 L-0.15 -0.2 Q-0.15 -0.15 -0.35 -0.05 L-0.45 -0.1 Q-0.5 -0.15 -0.55 -0.15 L-0.65 -0.05 -0.75 -0.35 -0.75 0.45 -0.95 0.4 -0.95 0.1 Q-0.9 -0.4 -0.9 -0.75 L-0.9 -0.8 -0.9 -1.0 -0.85 -1.15 Q-0.8 -1.05 -0.65 -0.9 L-0.4 -0.6 -0.15 -0.25 M-0.3 0.4 L-0.3 0.35 -0.1 0.1 Q0.0 0.05 0.25 0.0 L0.4 0.0 Q0.5 0.3 0.7 0.55 L0.75 0.65 0.6 0.8 0.55 0.9 0.45 1.0 0.2 0.95 Q0.05 0.9 -0.1 0.8 L-0.15 0.75 -0.25 0.55 -0.3 0.4 M-0.9 -0.75 L-0.9 -0.8 -0.9 -0.75 M0.0 0.3 L-0.05 0.35 -0.1 0.5 0.0 0.6 Q0.1 0.8 0.25 0.8 L0.35 0.8 0.5 0.75 Q0.65 0.65 0.65 0.55 L0.5 0.45 0.4 0.35 0.25 0.3 Q0.15 0.25 0.1 0.25 0.05 0.25 0.0 0.3" fill="#15110d" fill-rule="evenodd" stroke="none"/>
    <path d="M0.0 0.3 Q0.05 0.25 0.1 0.25 0.15 0.25 0.25 0.3 L0.4 0.35 0.5 0.45 0.65 0.55 Q0.65 0.65 0.5 0.75 L0.35 0.8 0.25 0.8 Q0.1 0.8 0.0 0.6 L-0.1 0.5 -0.05 0.35 0.0 0.3 M0.2 0.4 L0.15 0.4 Q0.05 0.4 0.0 0.45 L0.05 0.55 0.15 0.6 0.2 0.55 0.25 0.45 0.2 0.4" fill="#312d2a" fill-rule="evenodd" stroke="none"/>
    <path d="M0.2 0.4 L0.25 0.45 0.2 0.55 0.15 0.6 0.05 0.55 0.0 0.45 Q0.05 0.4 0.15 0.4 L0.2 0.4" fill="#3a3532" fill-rule="evenodd" stroke="none"/>
    <path d="M-0.65 -0.05 L-0.6 0.25 -0.6 0.35 -0.75 0.45 -0.75 -0.35 -0.65 -0.05 M-0.65 0.4 L-0.55 0.45 -0.5 0.5 Q-0.45 0.5 -0.3 0.4 L-0.25 0.55 -0.15 0.75 -0.1 0.8 Q0.05 0.9 0.2 0.95 L0.45 1.0 0.55 0.9 0.6 0.8 0.75 0.65 Q0.9 0.85 0.9 1.05 0.9 1.2 0.8 1.25 L0.6 1.3 Q0.4 1.3 -0.1 1.05 L-0.3 1.0 -0.4 0.9 -0.55 0.8 -0.6 0.7 -0.65 0.6 -0.65 0.4" fill="#0b0907" fill-rule="evenodd" stroke="none"/>
    <path d="M-0.65 -0.05 L-0.6 0.25 -0.6 0.35 -0.65 0.4 -0.65 0.6 -0.6 0.7 -0.55 0.8 -0.4 0.9 -0.3 1.0 -0.1 1.05 Q0.4 1.3 0.6 1.3 L0.8 1.25 Q0.9 1.2 0.9 1.05 0.9 0.85 0.75 0.65 L0.7 0.55 Q0.5 0.3 0.4 0.0 L0.35 -0.15 0.3 -0.25 0.15 -0.9 0.05 -1.05 -0.1 -1.25 M-0.75 -1.2 L-0.8 -1.15 -0.85 -1.15 -0.9 -1.0 -0.9 -0.8 -0.9 -0.75 Q-0.9 -0.4 -0.95 0.1 L-0.95 0.4 -0.75 0.45 -0.6 0.35 M-0.75 -0.35 L-0.65 -0.05 M-0.9 -0.8 L-0.9 -0.75" fill="none" stroke="#000000" stroke-linecap="round" stroke-linejoin="round" stroke-opacity="0.4509804" stroke-width="0.1"/>
  </g>
</svg>
