<?xml version="1.0" encoding="UTF-8" standalone="no"?>
<svg xmlns:xlink="http://www.w3.org/1999/xlink" height="2.65px" width="2.0px" xmlns="http://www.w3.org/2000/svg">
  <g transform="matrix(1.0, 0.0, 0.0, 1.0, 1.0, 1.3)">
    <path d="M0.05 -1.05 L0.15 -0.9 0.3 -0.25 0.35 -0.2 0.15 -0.15 Q-0.05 -0.15 -0.15 -0.3 L-0.25 -0.4 -0.4 -0.6 -0.45 -0.65 -0.75 -1.05 -0.5 -0.9 -0.4 -0.9 -0.3 -0.8 Q-0.25 -0.75 -0.15 -0.75 0.05 -0.75 0.05 -0.8 L0.05 -1.05" fill="#2e2a24" fill-rule="evenodd" stroke="none"/>
    <path d="M-0.75 -1.05 L-0.45 -0.65 -0.4 -0.6 -0.25 -0.4 -0.15 -0.3 Q-0.05 -0.15 0.15 -0.15 L0.35 -0.2 0.4 -0.2 0.5 -0.05 0.45 0.1 0.2 0.15 Q0.05 0.15 -0.05 0.1 L-0.1 0.05 -0.25 -0.15 -0.35 -0.3 -0.45 -0.45 -0.6 -0.55 -0.75 -0.7 -0.8 -0.8 -0.8 -0.9 -0.85 -0.95 -0.9 -1.0 -0.9 -1.05 -0.85 -1.15 -0.8 -1.15 -0.8 -1.1 -0.75 -1.05" fill="#8c4040" fill-rule="evenodd" stroke="none"/>
    <path d="M0.05 -1.05 L0.05 -0.8 Q0.05 -0.75 -0.15 -0.75 -0.25 -0.75 -0.3 -0.8 L-0.4 -0.9 -0.5 -0.9 -0.75 -1.05 -0.8 -1.1 -0.85 -1.15 -0.8 -1.15 -0.75 -1.2 -0.55 -1.3 -0.35 -1.3 Q-0.2 -1.3 -0.1 -1.25 L0.0 -1.15 0.05 -1.05" fill="#4c3a30" fill-rule="evenodd" stroke="none"/>
    <path d="M0.45 0.1 L0.7 0.55 0.75 0.65 0.6 0.8 0.55 0.9 0.45 1.0 0.2 0.95 Q0.05 0.9 -0.1 0.8 L-0.15 0.75 -0.25 0.55 -0.3 0.4 -0.3 0.35 -0.1 0.1 -0.05 0.1 Q0.05 0.15 0.2 0.15 L0.45 0.1 M-0.65 -0.05 L-0.75 -0.4 -0.8 -0.5 -0.8 -0.5 -0.75 0.6 -0.8 0.6 -0.8 0.6 -0.95 -0.7 -0.9 -0.8 -0.9 -0.85 -0.9 -0.95 -0.9 -1.0 -0.85 -0.95 -0.8 -0.9 -0.8 -0.8 -0.75 -0.7 -0.6 -0.55 -0.45 -0.45 -0.35 -0.3 -0.25 -0.15 -0.35 -0.05 -0.45 -0.1 Q-0.5 -0.15 -0.55 -0.15 L-0.65 -0.05 M0.65 0.55 L0.5 0.45 0.4 0.35 0.25 0.3 Q0.15 0.25 0.1 0.25 0.05 0.25 0.0 0.3 L-0.05 0.35 -0.1 0.5 0.0 0.6 Q0.1 0.8 0.25 0.8 L0.35 0.8 0.5 0.75 Q0.65 0.65 0.65 0.55" fill="#2f5977" fill-rule="evenodd" stroke="none"/>
    <path d="M0.65 0.55 Q0.65 0.65 0.5 0.75 L0.35 0.8 0.25 0.8 Q0.1 0.8 0.0 0.6 L-0.1 0.5 -0.05 0.35 0.0 0.3 Q0.05 0.25 0.1 0.25 0.15 0.25 0.25 0.3 L0.4 0.35 0.5 0.45 0.65 0.55" fill="#3b6f95" fill-rule="evenodd" stroke="none"/>
    <path d="M0.75 0.65 Q0.9 0.85 0.9 1.05 0.9 1.2 0.8 1.25 L0.6 1.3 Q0.4 1.3 -0.1 1.05 L-0.3 1.0 -0.4 0.9 -0.55 0.8 -0.6 0.75 -0.6 0.7 -0.65 0.6 -0.65 0.4 -0.55 0.45 -0.5 0.5 Q-0.45 0.5 -0.3 0.4 L-0.25 0.55 -0.15 0.75 -0.1 0.8 Q0.05 0.9 0.2 0.95 L0.45 1.0 0.55 0.9 0.6 0.8 0.75 0.65" fill="#224056" fill-rule="evenodd" stroke="none"/>
    <path d="M-0.85 -1.15 L-0.8 -1.1 -0.8 -1.15 -0.85 -1.15" fill="#f6cba8" fill-rule="evenodd" stroke="none"/>
    <path d="M-0.45 -0.65 L-0.4 -0.6 -0.25 -0.4 -0.4 -0.6 -0.45 -0.65 M-0.85 -1.15 L-0.85 -1.15 -0.8 -1.15 -0.85 -1.15 M-0.75 -0.4 L-0.8 -0.4 -0.8 -0.5 -0.8 -0.5 -0.75 -0.4" fill="#645142" fill-rule="evenodd" stroke="none"/>
    <path d="M-0.65 0.4 L-0.65 0.4 -0.6 0.25 -0.65 -0.05 -0.55 -0.15 Q-0.5 -0.15 -0.45 -0.1 L-0.35 -0.05 -0.25 -0.15 -0.1 0.05 -0.05 0.1 -0.1 0.1 -0.3 0.35 -0.3 0.4 Q-0.45 0.5 -0.5 0.5 L-0.55 0.45 -0.65 0.4 M-0.75 -0.4 L-0.75 -0.35 -0.7 0.0 -0.65 0.2 -0.7 0.45 Q-0.7 0.6 -0.75 0.6 L-0.8 -0.5 -0.8 -0.4 -0.75 -0.4" fill="#182d3c" fill-rule="evenodd" stroke="none"/>
    <path d="M0.35 -0.2 L0.3 -0.25 0.15 -0.9 0.05 -1.05 0.0 -1.15 M0.35 -0.2 L0.4 -0.2 0.5 -0.05 0.45 0.1 0.7 0.55 0.75 0.65 Q0.9 0.85 0.9 1.05 0.9 1.2 0.8 1.25 L0.6 1.3 Q0.4 1.3 -0.1 1.05 L-0.3 1.0 -0.4 0.9 -0.55 0.8 -0.6 0.75 -0.6 0.7 -0.65 0.6 -0.65 0.4 -0.65 0.4 -0.6 0.25 -0.65 -0.05 -0.75 -0.4 -0.75 -0.35 -0.7 0.0 -0.65 0.2 -0.7 0.45 Q-0.7 0.6 -0.75 0.6 L-0.8 0.6 -0.8 0.6 -0.95 -0.7 -0.9 -0.8 -0.9 -0.85 -0.9 -0.95 -0.9 -1.0 -0.9 -1.05 -0.85 -1.15" fill="none" stroke="#000000" stroke-linecap="round" stroke-linejoin="round" stroke-opacity="0.4509804" stroke-width="0.1"/>
  </g>
</svg>
