<?xml version="1.0" encoding="UTF-8" standalone="no"?>
<svg xmlns:xlink="http://www.w3.org/1999/xlink" height="3.1px" width="1.45px" xmlns="http://www.w3.org/2000/svg">
  <g transform="matrix(1.0, 0.0, 0.0, 1.0, 0.65, 1.5)">
    <path d="M0.6 -1.4 L0.65 -1.3 0.65 -1.25 0.7 -1.2 0.7 -1.15 0.25 -1.25 -0.15 -1.25 -0.15 -1.3 -0.05 -1.4 Q0.1 -1.5 0.25 -1.5 L0.3 -1.5 Q0.5 -1.5 0.6 -1.4 M0.6 -0.9 L0.6 -0.85 0.35 -0.75 0.2 -0.8 0.15 -0.8 0.1 -0.75 0.0 -0.65 -0.05 -0.65 -0.15 -0.7 -0.2 -0.8 Q-0.3 -0.85 -0.3 -0.95 L0.0 -0.95 0.25 -0.95 0.6 -0.9" fill="#433c3a" fill-rule="evenodd" stroke="none"/>
    <path d="M0.7 -1.15 L0.7 -1.2 Q0.75 -1.0 0.75 -0.6 L0.7 -0.25 0.65 0.1 0.4 -0.1 0.45 -0.15 0.45 -0.2 0.55 -0.5 0.6 -0.55 0.6 -0.85 0.6 -0.9 0.7 -1.15 M0.65 0.65 Q0.6 0.95 0.4 1.25 L0.15 1.45 -0.15 1.55 Q-0.3 1.55 -0.45 1.4 L-0.5 1.2 -0.6 1.0 -0.45 1.15 -0.4 1.15 -0.3 1.25 -0.15 1.3 0.05 1.2 0.25 1.0 0.35 0.85 0.4 0.75 0.4 0.6 0.45 0.6 0.5 0.5 0.65 0.65" fill="#352f26" fill-rule="evenodd" stroke="none"/>
    <path d="M-0.15 -1.25 L0.25 -1.25 0.7 -1.15 0.6 -0.9 0.25 -0.95 0.0 -0.95 -0.3 -0.95 -0.15 -1.25 -0.15 -1.25" fill="#b8632f" fill-rule="evenodd" stroke="none"/>
    <path d="M-0.35 -0.65 L-0.35 -0.8 -0.3 -0.95 Q-0.3 -0.85 -0.2 -0.8 L-0.15 -0.7 -0.05 -0.65 0.0 -0.65 0.1 -0.75 0.15 -0.8 0.2 -0.8 0.35 -0.75 0.6 -0.85 0.6 -0.55 0.55 -0.5 0.25 -0.55 0.2 -0.55 -0.05 -0.55 -0.35 -0.5 -0.35 -0.65 M0.45 -0.2 L0.45 -0.15 0.4 -0.1 Q0.3 0.1 0.15 0.1 L0.1 0.1 -0.15 0.0 -0.25 -0.15 -0.25 -0.2 0.05 -0.25 0.15 -0.25 0.45 -0.2" fill="#5f4e47" fill-rule="evenodd" stroke="none"/>
    <path d="M0.55 -0.5 L0.45 -0.2 0.15 -0.25 0.05 -0.25 -0.25 -0.2 -0.35 -0.5 -0.05 -0.55 0.2 -0.55 0.25 -0.55 0.55 -0.5" fill="#c9813b" fill-rule="evenodd" stroke="none"/>
    <path d="M0.65 0.1 L0.65 0.55 0.65 0.65 0.5 0.5 0.35 0.45 Q0.1 0.25 -0.15 0.25 L-0.25 0.25 Q-0.35 0.25 -0.45 0.3 L-0.5 0.3 -0.45 0.15 -0.45 0.1 Q-0.35 -0.25 -0.35 -0.65 L-0.35 -0.5 -0.25 -0.2 -0.25 -0.15 -0.15 0.0 0.1 0.1 0.15 0.1 Q0.3 0.1 0.4 -0.1 L0.65 0.1" fill="#877660" fill-rule="evenodd" stroke="none"/>
    <path d="M-0.6 1.0 L-0.6 0.7 -0.6 0.6 -0.5 0.3 -0.45 0.3 Q-0.35 0.25 -0.25 0.25 L-0.15 0.25 Q0.1 0.25 0.35 0.45 L0.5 0.5 0.45 0.6 0.4 0.6 0.4 0.75 0.35 0.85 0.25 1.0 0.05 1.2 -0.15 1.3 -0.3 1.25 -0.4 1.15 -0.45 1.15 -0.6 1.0" fill="#2a251e" fill-rule="evenodd" stroke="none"/>
    <path d="M0.7 -1.2 L0.65 -1.25 0.65 -1.3 0.6 -1.4 M-0.05 -1.4 L-0.15 -1.3 -0.15 -1.25 -0.15 -1.25 -0.3 -0.95 -0.35 -0.8 -0.35 -0.65 Q-0.35 -0.25 -0.45 0.1 L-0.45 0.15 -0.5 0.3 -0.6 0.6 -0.6 0.7 -0.6 1.0 -0.5 1.2 -0.45 1.4 Q-0.3 1.55 -0.15 1.55 L0.15 1.45 0.4 1.25 Q0.6 0.95 0.65 0.65 L0.65 0.55 0.65 0.1 0.7 -0.25 0.75 -0.6 Q0.75 -1.0 0.7 -1.2" fill="none" stroke="#000000" stroke-linecap="round" stroke-linejoin="round" stroke-opacity="0.4509804" stroke-width="0.1"/>
  </g>
</svg>
