<?xml version="1.0" encoding="UTF-8" standalone="no"?>
<svg xmlns:xlink="http://www.w3.org/1999/xlink" height="3.45px" width="3.4px" xmlns="http://www.w3.org/2000/svg">
  <g transform="matrix(1.0, 0.0, 0.0, 1.0, 1.7, 1.75)">
    <path d="M0.85 -1.55 L0.95 -1.5 1.0 -1.5 1.05 -1.5 1.05 -1.45 1.15 -1.35 1.25 -1.2 1.15 -1.3 Q1.1 -1.4 1.0 -1.4 L0.9 -1.45 0.75 -1.45 0.55 -1.45 0.55 -1.5 0.65 -1.55 0.7 -1.55 0.75 -1.5 0.85 -1.55 M1.3 -1.1 L1.4 -1.05 1.45 -0.95 1.4 -0.95 1.35 -1.0 1.3 -1.0 1.25 -0.75 Q1.25 -0.75 1.2 -0.75 L1.2 -0.95 1.15 -0.95 1.1 -0.8 1.1 -0.7 Q1.0 -0.75 1.0 -0.65 0.95 -0.55 1.05 -0.55 L1.0 -0.55 0.95 -0.55 0.9 -0.55 Q0.8 -0.5 0.85 -0.6 L0.95 -0.7 1.0 -0.85 0.85 -0.7 Q0.8 -0.65 0.75 -0.7 L0.75 -0.8 0.7 -0.75 0.65 -0.7 0.6 -0.7 0.55 -0.6 0.5 -0.55 0.45 -0.6 0.4 -0.6 0.45 -0.7 0.35 -0.7 Q0.35 -0.8 0.3 -0.75 L0.2 -0.75 0.15 -0.7 Q0.15 -0.8 0.05 -0.75 0.0 -0.75 0.05 -0.7 L0.1 -0.6 Q0.15 -0.5 0.2 -0.5 L0.15 -0.35 0.15 -0.15 0.2 -0.15 0.15 -0.15 0.1 -0.15 0.0 -0.1 -0.05 -0.2 Q-0.1 -0.2 -0.1 -0.25 L-0.1 -0.3 -0.1 -0.35 -0.15 -0.4 Q-0.2 -0.4 -0.2 -0.45 L-0.2 -0.55 -0.2 -0.65 -0.15 -0.65 -0.1 -0.65 -0.05 -0.75 -0.1 -0.8 -0.15 -0.8 -0.2 -0.95 -0.15 -1.0 -0.1 -1.05 -0.1 -1.0 0.0 -1.05 0.05 -1.05 0.05 -0.95 0.0 -0.9 0.0 -0.85 Q0.05 -0.8 0.1 -0.9 L0.15 -0.9 0.15 -0.8 0.25 -0.85 0.35 -0.95 0.4 -0.8 Q0.45 -0.7 0.5 -0.85 0.55 -0.85 0.55 -0.95 L0.55 -1.0 0.6 -0.9 Q0.6 -0.85 0.65 -0.85 L0.7 -0.9 0.75 -0.85 0.8 -0.8 0.9 -0.85 1.0 -0.95 1.05 -0.95 1.15 -0.95 1.1 -1.05 1.2 -1.1 1.3 -1.1 1.3 -1.1 M-1.55 0.85 L-1.6 0.85 -1.65 0.8 -1.55 0.5 -1.6 0.45 -1.65 0.4 -1.55 0.15 -1.5 0.1 -1.5 -0.05 -1.5 -0.05 -1.5 -0.05 Q-1.45 -0.05 -1.45 -0.05 L-1.4 -0.1 -1.4 -0.1 -1.35 -0.15 -1.35 -0.15 -1.25 -0.1 -1.25 -0.05 -1.25 0.0 -1.2 0.0 Q-1.2 0.0 -1.15 0.0 L-1.15 0.05 -1.2 0.1 -1.25 0.15 -1.25 0.2 -1.3 0.2 -1.3 0.3 -1.25 0.35 -1.3 0.4 -1.3 0.5 -1.35 0.55 -1.3 0.6 -1.25 0.65 -1.2 0.6 -1.2 0.55 -1.15 0.6 Q-1.1 0.6 -1.1 0.4 -1.1 0.3 -1.05 0.3 L-1.05 0.25 -1.0 0.2 -0.95 0.15 -0.9 0.15 -0.9 0.2 -0.9 0.3 -0.95 0.35 -0.9 0.4 -0.9 0.4 -0.85 0.4 -0.8 0.45 -0.8 0.5 -0.75 0.55 -0.75 0.55 -0.75 0.45 -0.7 0.35 -0.7 0.35 -0.65 0.35 -0.65 0.3 -0.6 0.3 -0.55 0.3 -0.5 0.3 -0.45 0.3 -0.4 0.2 -0.35 0.1 -0.3 0.1 -0.2 -0.05 Q-0.15 -0.15 -0.15 -0.25 -0.15 -0.3 -0.1 -0.3 -0.05 -0.2 -0.1 -0.05 L-0.2 0.2 -0.2 0.35 -0.1 0.4 -0.1 0.3 0.0 0.4 0.05 0.45 0.1 0.55 0.15 0.55 0.1 0.65 0.05 0.7 0.05 0.75 0.05 0.6 0.0 0.5 0.0 0.45 -0.05 0.45 -0.05 0.5 Q0.05 0.6 0.0 0.65 L-0.05 0.65 -0.05 0.55 -0.1 0.5 -0.15 0.5 -0.2 0.4 Q-0.25 0.35 -0.25 0.45 L-0.25 0.45 -0.2 0.55 Q-0.1 0.65 -0.05 0.75 0.0 0.9 -0.1 1.0 L-0.1 0.95 -0.1 1.0 -0.15 1.0 -0.15 0.95 Q-0.1 0.95 -0.1 0.95 L-0.05 0.85 -0.1 0.8 -0.15 0.8 -0.15 0.85 -0.2 0.9 -0.25 0.8 -0.25 0.7 Q-0.25 0.55 -0.35 0.55 L-0.35 0.95 -0.45 0.95 -0.45 0.9 Q-0.45 0.9 -0.4 0.8 -0.4 0.75 -0.45 0.75 L-0.5 0.8 -0.6 0.85 -0.6 0.9 -0.65 0.9 -0.65 0.85 -0.7 0.9 -0.75 0.85 -0.75 0.75 -0.85 0.85 -0.9 0.95 -0.95 0.85 -1.0 0.9 Q-1.05 0.9 -1.05 0.95 L-1.1 1.0 -1.1 1.05 -1.2 1.0 -1.2 0.9 -1.2 0.85 -1.25 0.85 -1.25 0.85 -1.35 0.8 -1.3 0.75 -1.3 0.75 -1.35 0.7 -1.35 0.75 -1.4 0.7 -1.45 0.75 -1.45 0.8 -1.55 0.85 M-0.6 -1.45 L-0.5 -1.5 Q-0.3 -1.6 0.0 -1.7 L0.55 -1.7 0.45 -1.65 0.35 -1.6 0.4 -1.6 0.5 -1.6 Q0.6 -1.6 0.6 -1.55 L0.55 -1.55 Q0.55 -1.45 0.45 -1.45 0.35 -1.45 0.25 -1.5 L0.2 -1.45 Q0.2 -1.4 0.15 -1.4 L0.0 -1.3 -0.1 -1.15 -0.1 -1.25 Q-0.1 -1.3 -0.2 -1.3 L-0.25 -1.25 -0.3 -1.3 -0.4 -1.35 -0.45 -1.35 -0.5 -1.4 -0.6 -1.45 M-0.1 -1.05 L-0.1 -1.05" fill="#af4949" fill-rule="evenodd" stroke="none"/>
    <path d="M0.75 -1.45 L0.9 -1.45 1.0 -1.4 1.05 -1.3 1.15 -1.25 1.1 -1.15 Q1.1 -1.1 1.1 -1.05 L1.15 -0.95 1.05 -0.95 1.0 -0.95 0.9 -0.85 0.8 -0.8 0.75 -0.85 0.7 -0.9 0.65 -0.85 Q0.6 -0.85 0.6 -0.9 L0.55 -1.0 0.55 -0.95 Q0.55 -0.85 0.5 -0.85 L0.4 -0.9 0.35 -1.05 0.25 -0.95 0.15 -0.9 Q0.2 -0.95 0.15 -1.0 L0.1 -1.0 0.1 -1.05 0.25 -1.15 0.3 -1.3 0.45 -1.25 0.55 -1.35 0.9 -1.15 0.9 -1.25 0.8 -1.3 0.75 -1.4 0.75 -1.45 M1.15 -0.95 L1.15 -0.95" fill="#e96a6a" fill-rule="evenodd" stroke="none"/>
    <path d="M1.25 -1.2 L1.3 -1.1 1.3 -1.1 1.2 -1.1 1.1 -1.05 Q1.1 -1.1 1.1 -1.15 L1.15 -1.25 1.05 -1.3 1.0 -1.4 Q1.1 -1.4 1.15 -1.3 L1.25 -1.2 M-1.5 -0.05 L-1.5 -0.1 -1.45 -0.2 -1.35 -0.4 -1.35 -0.5 -1.25 -0.6 -1.2 -0.6 -1.2 -0.65 -1.15 -0.65 -1.15 -0.65 -1.05 -0.75 -1.1 -0.85 -1.0 -0.95 -0.9 -1.05 -0.85 -1.15 -0.8 -1.25 -0.75 -1.35 -0.75 -1.35 -0.7 -1.4 -0.6 -1.45 -0.5 -1.4 -0.45 -1.35 -0.4 -1.35 -0.3 -1.3 -0.25 -1.25 -0.2 -1.3 Q-0.1 -1.3 -0.1 -1.25 L-0.1 -1.15 0.0 -1.3 0.15 -1.4 Q0.2 -1.4 0.2 -1.45 L0.25 -1.5 Q0.35 -1.45 0.45 -1.45 0.55 -1.45 0.55 -1.55 L0.6 -1.55 Q0.6 -1.6 0.5 -1.6 L0.4 -1.6 0.35 -1.6 0.45 -1.65 0.55 -1.7 0.55 -1.65 0.85 -1.55 0.75 -1.5 0.7 -1.55 0.65 -1.55 0.55 -1.5 0.55 -1.45 0.75 -1.45 0.75 -1.4 0.8 -1.3 0.9 -1.25 0.9 -1.15 0.55 -1.35 0.45 -1.25 0.3 -1.3 0.25 -1.15 0.1 -1.05 0.1 -1.0 0.15 -1.0 Q0.2 -0.95 0.15 -0.9 L0.25 -0.95 0.35 -1.05 0.4 -0.9 0.5 -0.85 Q0.45 -0.7 0.4 -0.8 L0.35 -0.95 0.25 -0.85 0.15 -0.8 0.15 -0.9 0.1 -0.9 Q0.05 -0.8 0.0 -0.85 L0.0 -0.9 0.05 -0.95 0.05 -1.05 0.0 -1.05 -0.1 -1.0 -0.1 -1.05 -0.15 -1.0 -0.2 -0.95 -0.15 -0.8 -0.1 -0.8 -0.05 -0.75 -0.1 -0.65 -0.15 -0.65 -0.2 -0.65 -0.2 -0.55 -0.2 -0.45 Q-0.2 -0.4 -0.15 -0.4 L-0.1 -0.35 -0.1 -0.3 Q-0.15 -0.3 -0.15 -0.25 -0.15 -0.15 -0.2 -0.05 L-0.3 0.1 -0.35 0.1 -0.4 0.2 -0.45 0.3 -0.5 0.3 -0.55 0.3 -0.6 0.3 -0.65 0.3 -0.65 0.35 -0.7 0.35 -0.7 0.35 -0.75 0.45 -0.75 0.55 -0.75 0.55 -0.8 0.5 -0.8 0.45 -0.85 0.4 -0.9 0.4 -0.9 0.4 -0.95 0.35 -0.9 0.3 -0.9 0.2 -0.9 0.15 -0.95 0.15 -1.0 0.2 -1.05 0.25 -1.05 0.3 Q-1.1 0.3 -1.1 0.4 -1.1 0.6 -1.15 0.6 L-1.2 0.55 -1.2 0.6 -1.25 0.65 -1.3 0.6 -1.35 0.55 -1.3 0.5 -1.3 0.4 -1.25 0.35 -1.3 0.3 -1.3 0.2 -1.25 0.2 -1.25 0.15 -1.2 0.1 -1.15 0.05 -1.15 0.0 Q-1.2 0.0 -1.2 0.0 L-1.25 0.0 -1.25 -0.05 -1.25 -0.1 -1.35 -0.15 -1.35 -0.15 -1.4 -0.1 -1.4 -0.1 -1.45 -0.05 Q-1.45 -0.05 -1.5 -0.05 L-1.5 -0.05 M-0.1 -1.05 L-0.1 -1.05" fill="#cb5353" fill-rule="evenodd" stroke="none"/>
    <path d="M1.45 -0.95 L1.45 -0.9 1.45 -0.85 1.5 -0.75 1.5 -0.75 1.45 -0.65 1.4 -0.65 1.45 -0.4 Q1.45 -0.3 1.5 -0.1 L1.6 0.05 1.65 0.15 1.6 0.35 1.55 0.45 1.5 0.55 1.55 0.65 1.5 0.8 1.5 0.85 Q1.35 0.9 1.35 0.95 L1.25 1.05 1.15 1.15 1.2 1.05 1.2 0.95 1.3 0.8 1.35 0.6 1.4 0.6 1.4 0.5 1.4 0.15 1.35 0.15 1.4 0.05 1.45 0.05 1.45 0.0 1.45 -0.05 1.45 -0.1 1.45 -0.1 1.4 -0.15 1.4 -0.2 1.4 -0.3 1.4 -0.4 1.35 -0.5 Q1.35 -0.7 1.25 -0.65 1.25 -0.6 1.15 -0.6 L1.05 -0.6 1.05 -0.55 Q0.95 -0.55 1.0 -0.65 1.0 -0.75 1.1 -0.7 L1.1 -0.8 1.15 -0.95 1.15 -0.95 1.2 -0.95 1.2 -0.75 Q1.25 -0.75 1.25 -0.75 L1.3 -1.0 1.35 -1.0 1.4 -0.95 1.45 -0.95 M0.05 1.15 L0.0 1.15 -0.05 1.15 -0.05 1.15 -0.05 1.15 -0.1 1.15 -0.1 1.15 -0.25 1.15 Q-0.25 1.25 -0.35 1.3 L-0.5 1.3 -0.5 1.45 Q-0.5 1.5 -0.55 1.5 L-0.6 1.6 -0.75 1.7 Q-0.85 1.7 -0.9 1.6 L-1.0 1.55 -1.1 1.55 -1.2 1.6 -1.25 1.6 -1.3 1.5 -1.3 1.45 -1.4 1.35 Q-1.45 1.3 -1.45 1.2 L-1.45 1.05 -1.35 0.95 -1.4 0.9 -1.45 0.85 -1.5 0.85 -1.55 0.85 -1.45 0.8 -1.45 0.75 -1.4 0.7 -1.35 0.75 -1.35 0.7 -1.3 0.75 -1.3 0.75 -1.35 0.8 -1.25 0.85 -1.25 0.85 -1.2 0.85 -1.2 0.9 -1.2 1.0 -1.1 1.05 -1.1 1.0 -1.05 0.95 Q-1.05 0.9 -1.0 0.9 L-0.95 0.85 -0.9 0.95 -0.85 0.85 -0.75 0.75 -0.75 0.85 -0.7 0.9 -0.65 0.85 -0.65 0.9 -0.6 0.9 -0.6 0.85 -0.5 0.8 -0.45 0.75 Q-0.4 0.75 -0.4 0.8 -0.45 0.9 -0.45 0.9 L-0.45 0.95 -0.35 0.95 -0.35 0.55 Q-0.25 0.55 -0.25 0.7 L-0.25 0.8 -0.2 0.9 -0.15 0.85 -0.15 0.8 -0.1 0.8 -0.05 0.85 -0.1 0.95 Q-0.1 0.95 -0.15 0.95 L-0.15 1.0 -0.1 1.0 -0.1 0.95 -0.1 1.0 Q0.0 0.9 -0.05 0.75 -0.1 0.65 -0.2 0.55 L-0.25 0.45 -0.25 0.45 Q-0.25 0.35 -0.2 0.4 L-0.15 0.5 -0.1 0.5 -0.05 0.55 -0.05 0.65 0.0 0.65 Q0.05 0.6 -0.05 0.5 L-0.05 0.45 0.0 0.45 0.0 0.5 0.05 0.6 0.05 0.75 0.05 0.85 0.1 0.95 0.05 1.0 0.1 1.05 0.05 1.15 M-0.1 -1.05 L-0.1 -1.05 -0.1 -1.05 M-0.1 -0.35 L-0.1 -0.3 -0.1 -0.25 Q-0.1 -0.2 -0.05 -0.2 L0.0 -0.1 0.1 -0.15 0.15 -0.15 0.2 -0.1 0.15 -0.05 0.1 -0.05 0.0 0.05 -0.05 0.2 -0.05 0.3 0.0 0.4 -0.1 0.3 -0.1 0.4 -0.2 0.35 -0.2 0.2 -0.1 -0.05 Q-0.05 -0.2 -0.1 -0.3 L-0.1 -0.35 M0.2 -0.5 Q0.15 -0.5 0.1 -0.6 L0.05 -0.7 Q0.0 -0.75 0.05 -0.75 0.15 -0.8 0.15 -0.7 L0.2 -0.75 0.3 -0.75 Q0.35 -0.8 0.35 -0.7 L0.45 -0.7 0.4 -0.6 Q0.35 -0.6 0.3 -0.5 L0.2 -0.5 M0.55 -0.6 L0.6 -0.7 0.65 -0.7 0.7 -0.75 0.75 -0.8 0.75 -0.7 Q0.8 -0.65 0.85 -0.7 L1.0 -0.85 0.95 -0.7 0.85 -0.6 0.75 -0.6 0.55 -0.6" fill="#913333" fill-rule="evenodd" stroke="none"/>
    <path d="M0.2 -0.15 L0.15 -0.15 0.15 -0.35 0.2 -0.5 0.3 -0.5 Q0.35 -0.6 0.4 -0.6 L0.45 -0.6 0.5 -0.55 0.4 -0.45 Q0.4 -0.4 0.3 -0.4 L0.3 -0.25 0.45 -0.2 0.35 -0.2 0.2 -0.15" fill="#f8d5b1" fill-rule="evenodd" stroke="none"/>
    <path d="M0.5 -0.55 L0.55 -0.6 0.75 -0.6 0.85 -0.6 Q0.8 -0.5 0.9 -0.55 L0.95 -0.55 1.0 -0.55 1.05 -0.55 1.05 -0.6 1.2 -0.55 Q1.25 -0.55 1.25 -0.5 1.3 -0.45 1.25 -0.4 L1.25 -0.3 1.2 -0.25 1.2 -0.25 0.95 -0.2 0.7 -0.2 0.6 -0.2 0.45 -0.2 0.3 -0.25 0.3 -0.4 Q0.4 -0.4 0.4 -0.45 L0.5 -0.55" fill="#fce7c6" fill-rule="evenodd" stroke="none"/>
    <path d="M0.15 -0.15 L0.2 -0.15 0.35 -0.2 0.45 -0.2 0.6 -0.2 0.7 -0.2 Q0.7 -0.15 0.75 -0.15 L0.8 -0.15 0.6 -0.15 0.55 -0.15 0.5 -0.15 0.3 -0.1 0.2 -0.1 0.15 -0.15" fill="#c39a76" fill-rule="evenodd" stroke="none"/>
    <path d="M0.25 1.25 L0.15 1.2 0.1 1.15 0.05 1.15 0.1 1.05 0.05 1.0 0.1 0.95 0.05 0.85 0.05 0.75 0.05 0.7 0.1 0.65 0.15 0.55 0.1 0.55 0.05 0.45 0.0 0.4 -0.05 0.3 -0.05 0.2 0.0 0.05 0.1 -0.05 0.15 -0.05 0.2 -0.1 0.3 -0.1 0.2 -0.05 0.2 0.0 0.15 0.1 0.1 0.15 Q0.0 0.2 0.1 0.2 0.15 0.25 0.2 0.3 L0.1 0.3 0.05 0.3 0.1 0.45 0.2 0.55 0.35 0.55 0.35 0.6 Q0.45 0.6 0.4 0.7 L0.4 0.85 Q0.4 0.9 0.3 0.85 0.25 0.8 0.15 0.9 0.15 0.95 0.2 1.0 L0.25 1.1 0.2 1.05 0.15 1.05 Q0.15 1.1 0.25 1.25" fill="#f2cba7" fill-rule="evenodd" stroke="none"/>
    <path d="M0.3 -0.1 L0.5 -0.15 Q0.4 -0.15 0.4 -0.1 L0.4 -0.1 0.3 -0.05 0.2 0.05 0.25 0.0 0.3 0.15 0.4 0.15 0.45 0.15 0.5 0.15 0.55 0.1 0.6 0.1 0.65 0.1 0.65 0.05 0.7 -0.05 0.65 -0.1 0.6 -0.15 0.8 -0.15 0.8 -0.15 0.75 -0.1 0.75 0.05 0.7 0.15 0.6 0.3 0.55 0.3 0.5 0.3 Q0.45 0.35 0.35 0.35 0.25 0.35 0.25 0.3 L0.2 0.3 Q0.15 0.25 0.1 0.2 0.0 0.2 0.1 0.15 L0.15 0.1 0.2 0.0 0.2 -0.05 0.3 -0.1 M0.5 -0.15 L0.5 -0.15 M1.35 0.15 L1.4 0.15 1.4 0.5 1.4 0.6 1.35 0.6 1.3 0.8 1.2 0.95 1.2 1.05 0.95 1.05 Q0.8 1.0 0.7 0.95 L1.2 0.9 1.2 0.85 1.1 0.85 1.0 0.8 1.0 0.7 0.95 0.6 0.9 0.55 0.85 0.4 0.9 0.3 0.9 0.25 0.95 0.1 1.05 0.05 1.1 0.0 1.1 0.05 1.1 0.25 1.15 0.25 1.15 0.4 Q1.25 0.45 1.2 0.55 1.15 0.6 1.1 0.6 L1.05 0.6 1.05 0.65 1.1 0.7 1.2 0.7 1.25 0.65 Q1.3 0.55 1.25 0.45 L1.2 0.35 1.2 0.25 1.25 0.25 1.3 0.25 1.3 0.2 1.35 0.15" fill="#f6cba8" fill-rule="evenodd" stroke="none"/>
    <path d="M0.25 0.0 L0.2 0.05 0.3 -0.05 0.4 -0.1 0.4 -0.1 Q0.4 -0.15 0.5 -0.15 0.6 -0.1 0.65 -0.05 L0.6 -0.05 0.55 -0.05 0.55 0.0 0.45 0.0 0.45 0.0 0.45 0.1 0.4 0.15 0.35 0.1 0.35 0.0 0.35 0.0 0.25 0.0 0.25 0.0 M1.4 -0.15 L1.45 -0.1 1.45 -0.1 1.45 -0.05 1.45 0.0 1.45 0.05 1.4 0.05 1.35 0.05 1.35 0.0 1.3 0.0 1.3 0.05 1.25 0.1 1.2 0.05 1.2 0.0 1.15 0.05 1.1 0.05 1.1 0.0 Q1.15 -0.1 1.4 -0.15 L1.4 -0.15 M1.35 0.0 L1.35 0.0" fill="#452f1f" fill-rule="evenodd" stroke="none"/>
    <path d="M0.5 -0.15 L0.55 -0.15 0.6 -0.15 0.65 -0.1 0.7 -0.05 0.65 0.05 0.65 0.1 0.6 0.1 0.55 0.1 0.55 0.0 0.55 -0.05 0.6 -0.05 0.65 -0.05 Q0.6 -0.1 0.5 -0.15 L0.5 -0.15 M1.15 -0.15 L1.2 -0.15 1.3 -0.2 1.4 -0.2 1.4 -0.15 1.4 -0.15 Q1.15 -0.1 1.1 0.0 L1.1 -0.05 1.15 -0.15 M1.25 0.65 L1.2 0.7 1.1 0.7 1.05 0.65 1.05 0.6 1.1 0.6 Q1.15 0.6 1.2 0.55 L1.25 0.65" fill="#af8665" fill-rule="evenodd" stroke="none"/>
    <path d="M1.15 1.15 L1.1 1.25 1.0 1.35 0.9 1.4 0.75 1.3 0.45 1.2 0.25 1.1 0.2 1.0 Q0.15 0.95 0.15 0.9 0.25 0.8 0.3 0.85 0.4 0.9 0.4 0.85 L0.4 0.7 Q0.45 0.6 0.35 0.6 L0.35 0.55 0.2 0.55 0.1 0.45 0.05 0.3 0.1 0.3 0.2 0.3 0.25 0.3 Q0.25 0.35 0.35 0.35 0.45 0.35 0.5 0.3 L0.55 0.3 0.6 0.3 0.7 0.15 0.75 0.05 0.75 -0.1 0.8 -0.15 0.8 -0.15 0.75 -0.15 Q0.7 -0.15 0.7 -0.2 L0.95 -0.2 1.2 -0.25 Q1.15 -0.2 1.15 -0.15 L1.1 -0.05 1.1 0.0 1.05 0.05 0.95 0.1 0.9 0.25 0.9 0.3 0.85 0.4 0.9 0.55 0.95 0.6 1.0 0.7 1.0 0.8 1.1 0.85 0.9 0.85 0.65 0.85 Q0.65 0.95 0.7 0.95 0.8 1.0 0.95 1.05 L1.2 1.05 1.15 1.15" fill="#fcd9b5" fill-rule="evenodd" stroke="none"/>
    <path d="M1.2 -0.25 L1.2 -0.25 1.25 -0.3 1.4 -0.3 1.4 -0.2 1.3 -0.2 1.2 -0.15 1.15 -0.15 Q1.15 -0.2 1.2 -0.25" fill="#cbae8d" fill-rule="evenodd" stroke="none"/>
    <path d="M1.25 -0.3 L1.25 -0.4 Q1.3 -0.45 1.25 -0.5 1.25 -0.55 1.2 -0.55 L1.05 -0.6 1.15 -0.6 Q1.25 -0.6 1.25 -0.65 1.35 -0.7 1.35 -0.5 L1.4 -0.4 1.4 -0.3 1.25 -0.3" fill="#f4d2ae" fill-rule="evenodd" stroke="none"/>
    <path d="M1.45 -0.1 L1.45 -0.05 1.45 -0.1" fill="#725c47" fill-rule="evenodd" stroke="none"/>
    <path d="M1.4 0.05 L1.35 0.15 1.35 0.1 1.35 0.05 1.35 0.0 1.35 0.0 1.35 0.05 1.4 0.05" fill="#a5886b" fill-rule="evenodd" stroke="none"/>
    <path d="M0.55 0.0 L0.55 0.1 0.5 0.15 0.45 0.15 0.4 0.15 0.3 0.15 0.25 0.0 0.25 0.0 0.35 0.0 0.35 0.0 0.35 0.1 0.4 0.15 0.45 0.1 0.45 0.0 0.45 0.0 0.55 0.0 M1.15 0.05 L1.2 0.0 1.2 0.05 1.25 0.1 1.3 0.05 1.3 0.0 1.35 0.0 1.35 0.05 1.35 0.1 1.3 0.1 1.25 0.15 1.2 0.15 1.1 0.05 1.15 0.05 M1.35 0.0 L1.35 0.0" fill="#fff2e2" fill-rule="evenodd" stroke="none"/>
    <path d="M1.1 0.05 L1.15 0.05 1.1 0.05 1.2 0.15 1.25 0.15 1.3 0.1 1.35 0.1 1.35 0.15 1.3 0.2 1.3 0.25 1.25 0.25 1.2 0.25 1.2 0.35 1.25 0.45 Q1.3 0.55 1.25 0.65 L1.2 0.55 Q1.25 0.45 1.15 0.4 L1.15 0.25 1.1 0.25 1.1 0.05 M1.35 0.0 L1.35 0.0 1.35 0.0 1.35 0.0" fill="#e6b692" fill-rule="evenodd" stroke="none"/>
    <path d="M1.1 0.85 L1.2 0.85 1.2 0.9 0.7 0.95 Q0.65 0.95 0.65 0.85 L0.9 0.85 1.1 0.85" fill="#d4a784" fill-rule="evenodd" stroke="none"/>
    <path d="M0.75 1.3 Q0.7 1.3 0.7 1.35 L0.7 1.4 0.25 1.25 Q0.15 1.1 0.15 1.05 L0.2 1.05 0.25 1.1 0.45 1.2 0.75 1.3" fill="#e1ba97" fill-rule="evenodd" stroke="none"/>
    <path d="M0.85 -1.55 L0.95 -1.5 1.0 -1.5 1.05 -1.5 1.05 -1.45 1.15 -1.35 1.25 -1.2 1.3 -1.1 1.4 -1.05 1.45 -0.95 1.45 -0.9 1.45 -0.85 1.5 -0.75 1.5 -0.75 1.45 -0.65 1.4 -0.65 1.45 -0.4 Q1.45 -0.3 1.5 -0.1 L1.6 0.05 1.65 0.15 1.6 0.35 1.55 0.45 1.5 0.55 1.55 0.65 1.5 0.8 1.5 0.85 Q1.35 0.9 1.35 0.95 L1.25 1.05 1.15 1.15 1.1 1.25 1.0 1.35 0.9 1.4 0.75 1.3 0.45 1.2 M-1.45 1.2 L-1.45 1.05 -1.35 0.95 -1.4 0.9 -1.45 0.85 -1.5 0.85 -1.55 0.85 -1.6 0.85 -1.65 0.8 -1.55 0.5 -1.6 0.45 -1.65 0.4 -1.55 0.15 -1.5 0.1 -1.5 -0.05 -1.5 -0.05 -1.5 -0.1 -1.45 -0.2 -1.35 -0.4 -1.35 -0.5 -1.25 -0.6 -1.2 -0.6 -1.2 -0.65 -1.15 -0.65 -1.15 -0.65 -1.05 -0.75 -1.1 -0.85 -1.0 -0.95 -0.9 -1.05 -0.85 -1.15 -0.8 -1.25 -0.75 -1.35 -0.75 -1.35 -0.7 -1.4 -0.6 -1.45 -0.5 -1.5 Q-0.3 -1.6 0.0 -1.7 L0.55 -1.7 0.55 -1.65 0.85 -1.55 M1.2 1.05 L1.15 1.15" fill="none" stroke="#000000" stroke-linecap="round" stroke-linejoin="round" stroke-opacity="0.4509804" stroke-width="0.1"/>
  </g>
</svg>
