<?xml version="1.0" encoding="UTF-8" standalone="no"?>
<svg xmlns:xlink="http://www.w3.org/1999/xlink" height="2.0px" width="1.45px" xmlns="http://www.w3.org/2000/svg">
  <g transform="matrix(1.0, 0.0, 0.0, 1.0, 0.2, 0.55)">
    <path d="M1.15 0.2 L1.15 0.25 1.15 0.2 M0.35 0.0 L0.3 0.0 0.05 0.05 0.0 0.05 0.0 0.05 0.0 0.1 -0.05 0.1 -0.05 0.15 0.0 0.15 0.05 0.2 0.05 0.25 0.1 0.25 0.15 0.25 0.2 0.3 0.3 0.3 0.4 0.3 0.45 0.3 0.55 0.25 0.55 0.2 0.5 0.15 0.55 0.1 0.5 0.05 0.35 0.0 M0.1 -0.15 Q0.15 -0.15 0.3 -0.25 L0.45 -0.35 0.6 -0.4 0.65 -0.45 0.55 -0.25 0.7 -0.3 0.75 -0.3 0.85 -0.3 0.9 -0.4 0.95 -0.55 1.05 -0.35 1.1 -0.4 1.05 -0.25 1.1 -0.2 1.15 -0.2 1.15 -0.2 1.2 -0.3 1.2 -0.4 1.25 -0.05 1.25 0.05 1.2 0.05 1.15 0.0 1.1 0.0 1.0 0.1 0.95 0.15 0.95 0.3 1.0 0.35 1.05 0.35 1.0 0.3 1.1 0.3 1.15 0.3 1.2 0.25 1.2 0.35 1.2 0.5 1.15 0.75 1.1 0.9 1.05 1.05 0.9 1.25 0.9 1.3 0.8 1.4 0.75 1.45 Q0.65 1.5 0.5 1.35 L0.5 1.4 0.45 1.4 0.3 1.4 0.15 1.4 0.0 1.25 -0.1 1.15 0.1 1.1 0.1 0.95 0.05 0.85 -0.05 0.75 0.05 0.7 0.0 0.65 -0.15 0.45 -0.15 0.0 -0.05 -0.1 0.1 -0.15" fill="#e5c0a3" fill-rule="evenodd" stroke="none"/>
  </g>
</svg>
