<?xml version="1.0" encoding="UTF-8" standalone="no"?>
<svg xmlns:xlink="http://www.w3.org/1999/xlink" height="4.05px" width="6.1px" xmlns="http://www.w3.org/2000/svg">
  <g transform="matrix(1.0, 0.0, 0.0, 1.0, 3.45, 2.05)">
    <path d="M0.95 -0.2 L1.0 -0.15 1.0 -0.1 0.55 0.15 0.05 0.35 -0.05 0.3 -0.05 0.3 0.05 0.25 -0.15 0.25 0.5 0.0 0.95 -0.2 M-0.15 0.25 L-0.15 0.25 M-0.8 0.4 L-0.75 0.4 -0.8 0.4 -0.8 0.55 -0.7 0.45 -0.65 0.45 -0.7 0.55 -0.75 0.55 -0.8 0.6 -0.85 0.6 -0.85 0.55 -0.85 0.5 -0.8 0.4 M-0.7 0.35 L-0.6 0.35 -0.65 0.35 -0.7 0.4 -0.7 0.35" fill="#251a0d" fill-rule="evenodd" stroke="none"/>
    <path d="M1.05 0.0 L1.1 0.05 0.75 0.3 0.65 0.35 0.55 0.15 1.0 -0.1 1.05 0.0 M-0.85 0.6 L-0.8 0.6 -0.8 0.65 -0.8 0.65 -0.85 0.7 -0.85 0.75 -0.8 0.8 -0.75 0.75 -0.75 0.65 -0.75 0.8 -0.8 0.8 -0.85 0.8 -0.9 0.75 -0.9 0.75 -0.9 0.75 -0.9 0.7 -0.8 0.65 -0.85 0.6 -0.85 0.6 M-0.75 0.65 L-0.75 0.65 M-1.05 0.8 L-1.0 0.8 -1.05 0.8 -1.05 0.8 -1.05 0.8 -1.05 0.8 M-1.15 0.75 L-1.15 0.75 -1.2 0.8 -1.25 0.8 -1.2 0.8 -1.2 0.75 -1.15 0.75 -1.15 0.75 M-1.2 0.75 L-1.2 0.75" fill="#61371b" fill-rule="evenodd" stroke="none"/>
    <path d="M1.1 0.05 L1.15 0.1 1.15 0.15 1.1 0.25 0.85 0.4 0.75 0.3 1.1 0.05 M0.4 0.5 L0.45 0.55 0.15 0.65 -0.35 0.8 -0.35 0.8 -0.45 0.75 -0.35 0.75 -0.35 0.7 -0.15 0.7 0.05 0.6 0.4 0.5 M0.05 0.35 L-0.05 0.4 -0.05 0.35 -0.1 0.3 -0.05 0.3 -0.05 0.3 0.05 0.35 M-0.05 0.4 L-0.05 0.4 M-0.7 0.55 L-0.65 0.45 -0.6 0.45 -0.6 0.45 -0.6 0.5 -0.6 0.55 -0.7 0.55 M-0.8 0.8 L-0.8 0.8 -0.8 0.8 -0.75 0.8 -0.7 0.85 -0.7 0.85 -0.75 0.85 -0.8 0.85 -0.8 0.8 -0.85 0.8 -0.8 0.8 M-0.65 0.8 L-0.6 0.8 -0.65 0.8 -0.65 0.8 -0.65 0.8 M-0.7 0.85 L-0.7 0.85 M-1.0 0.85 L-1.0 0.9 -1.0 0.9 -1.1 0.9 -1.05 0.85 -1.05 0.8 -1.0 0.8 -1.0 0.85 M-0.35 0.75 L-0.35 0.75" fill="#453119" fill-rule="evenodd" stroke="none"/>
    <path d="M0.65 0.35 L0.4 0.5 0.05 0.6 -0.05 0.4 0.05 0.35 0.55 0.15 0.65 0.35 M-0.2 0.65 L-0.15 0.65 -0.15 0.7 -0.35 0.7 -0.35 0.7 -0.3 0.7 -0.3 0.7 -0.3 0.65 -0.25 0.7 -0.25 0.65 -0.25 0.65 -0.2 0.65 M-0.8 0.6 L-0.75 0.55 -0.7 0.55 -0.6 0.55 -0.65 0.55 -0.75 0.65 -0.75 0.6 -0.75 0.55 -0.8 0.65 -0.8 0.6 M-0.6 0.55 L-0.6 0.55 M-0.75 0.65 L-0.75 0.65 -0.75 0.65 -0.75 0.65" fill="#7f4425" fill-rule="evenodd" stroke="none"/>
    <path d="M0.75 0.3 L0.85 0.4 0.45 0.55 0.4 0.5 0.65 0.35 0.75 0.3 M-0.1 0.3 L-0.15 0.25 0.05 0.25 -0.05 0.3 -0.1 0.3 M-0.25 0.3 L-0.3 0.35 -0.3 0.35 -0.35 0.35 -0.4 0.35 -0.25 0.3 M-0.5 0.35 L-0.55 0.35 -0.55 0.4 -0.6 0.4 -0.6 0.45 -0.6 0.45 -0.65 0.45 -0.7 0.45 -0.7 0.4 -0.65 0.35 -0.6 0.35 -0.55 0.35 -0.5 0.35 -0.5 0.35 -0.5 0.35" fill="#60573b" fill-rule="evenodd" stroke="none"/>
    <path d="M-0.05 0.4 L0.05 0.6 -0.15 0.7 -0.15 0.65 -0.15 0.6 -0.1 0.55 -0.05 0.45 -0.05 0.45 -0.05 0.4 -0.05 0.4" fill="#a96841" fill-rule="evenodd" stroke="none"/>
    <path d="M-1.1 -0.5 L-0.95 -0.6 Q-0.45 -0.85 0.05 -0.85 L0.2 -0.85 Q0.6 -0.55 0.6 -0.45 0.6 -0.35 0.45 -0.2 L0.35 -0.1 Q0.1 0.1 -0.1 0.1 L-0.7 0.3 -0.8 0.35 -0.75 0.2 -0.75 0.15 -0.75 0.1 -0.7 0.1 -0.7 0.1 -0.65 0.1 -0.65 0.05 -0.55 0.0 -0.5 0.0 -0.5 -0.05 -0.4 -0.1 -0.4 -0.15 -0.3 -0.2 -0.4 -0.35 -0.5 -0.45 -0.55 -0.5 -0.6 -0.4 -0.6 -0.35 -0.6 -0.35 -0.65 -0.3 -0.7 -0.35 -0.7 -0.35 -0.75 -0.55 -1.0 -0.35 -1.05 -0.4 -1.05 -0.45 -1.05 -0.5 -1.1 -0.5 -1.1 -0.5 M-1.05 -0.4 L-1.05 -0.4 M-0.65 0.05 L-0.65 0.05 -0.65 0.05 M-0.7 0.1 L-0.7 0.1 M2.4 1.0 L1.95 1.1 1.6 1.1 0.8 1.1 0.15 1.3 Q0.1 1.3 0.05 1.35 L-0.15 1.3 -0.4 1.4 -0.65 1.5 Q-1.15 1.75 -1.6 1.75 L-1.8 1.65 -2.05 1.75 -2.3 1.65 -2.35 1.65 -2.35 1.65 -2.25 1.55 -2.3 1.45 Q-2.3 1.4 -2.2 1.4 -2.2 1.25 -2.15 1.25 L-1.9 1.25 -1.95 1.15 -1.85 1.1 -1.85 1.15 -1.8 1.2 -1.8 1.25 -1.8 1.4 -1.75 1.4 -1.8 1.45 -1.75 1.55 -1.7 1.55 -1.65 1.5 -1.65 1.6 -1.6 1.65 -1.55 1.6 -1.5 1.55 -1.5 1.45 -1.55 1.45 -1.5 1.45 -1.45 1.35 -1.4 1.3 -1.4 1.25 -1.4 1.25 -1.35 1.25 -1.4 1.4 -1.35 1.5 -1.3 1.4 -1.3 1.35 -1.25 1.35 -1.2 1.3 -1.2 1.35 -1.05 1.3 -1.05 1.25 -1.0 1.3 -0.9 1.35 -0.85 1.3 -0.8 1.3 -0.8 1.25 -0.75 1.25 -0.75 1.25 -0.7 1.25 Q1.45 0.45 1.45 0.35 L1.4 0.2 1.45 0.15 1.3 0.05 1.15 0.1 1.1 0.05 1.05 0.0 1.2 -0.05 Q1.3 -0.05 1.4 0.0 L1.75 -0.05 2.0 0.0 Q2.15 0.1 2.15 0.2 L2.1 0.25 Q2.0 0.3 2.0 0.35 L2.15 0.45 2.25 0.6 Q2.25 0.85 1.6 0.9 L1.35 0.9 1.15 0.95 1.6 1.0 1.65 1.0 2.1 0.95 Q2.1 1.0 2.05 1.0 L2.15 1.05 2.3 1.0 2.4 1.0 M0.05 -0.1 Q0.4 -0.35 0.4 -0.4 L0.25 -0.55 0.25 -0.6 0.3 -0.65 -0.2 -0.75 -0.4 -0.75 -0.6 -0.65 -0.4 -0.65 -0.25 -0.6 -0.3 -0.5 -0.3 -0.5 Q-0.3 -0.35 -0.2 -0.35 -0.1 -0.35 -0.1 -0.3 L-0.1 -0.3 Q-0.2 -0.1 0.05 -0.1 M-1.2 1.3 L-1.2 1.3 M-1.4 1.25 L-1.4 1.25 M1.6 0.25 L1.6 0.3 1.65 0.35 1.7 0.35 Q1.8 0.35 1.8 0.25 L1.7 0.15 Q1.7 0.15 1.65 0.2 L1.6 0.25 M1.65 0.4 Q1.5 0.6 1.35 0.6 L1.3 0.6 1.3 0.65 1.35 0.65 1.5 0.6 1.55 0.65 1.45 0.7 Q1.5 0.75 1.55 0.75 L1.6 0.7 1.9 0.55 Q1.85 0.45 1.8 0.45 L1.75 0.5 1.7 0.45 1.65 0.4 M1.15 0.65 L0.95 0.75 1.05 0.85 1.15 0.8 1.15 0.65 M-0.9 0.3 L-0.85 0.25 -0.85 0.25 -0.85 0.25 -0.85 0.3 -0.9 0.3" fill="#34342e" fill-rule="evenodd" stroke="none"/>
    <path d="M-0.6 -0.35 L-0.6 -0.4 -0.55 -0.5 -0.5 -0.45 -0.4 -0.35 -0.3 -0.2 -0.4 -0.15 -0.4 -0.25 -0.4 -0.3 -0.4 -0.3 -0.4 -0.35 -0.45 -0.3 -0.45 -0.35 -0.5 -0.35 -0.5 -0.4 -0.6 -0.35 M-0.8 0.35 L-0.7 0.3 -0.1 0.1 Q0.1 0.1 0.35 -0.1 L0.45 -0.2 Q0.6 -0.35 0.6 -0.45 0.6 -0.55 0.2 -0.85 0.6 -0.8 0.8 -0.5 L0.95 -0.2 0.5 0.0 -0.15 0.25 -0.15 0.25 -0.2 0.25 -0.2 0.25 -0.25 0.3 -0.4 0.35 -0.5 0.3 -0.5 0.35 -0.5 0.35 -0.55 0.35 -0.6 0.35 -0.7 0.35 -0.7 0.3 -0.75 0.4 -0.8 0.4 -0.8 0.35 -0.8 0.35 M1.0 -0.1 L1.05 -0.15 2.0 -0.15 Q2.35 0.05 2.45 0.15 2.6 0.3 2.6 0.6 2.6 0.85 2.4 1.0 L2.3 1.0 2.15 1.05 2.05 1.0 Q2.1 1.0 2.1 0.95 L1.65 1.0 1.6 1.0 1.15 0.95 1.35 0.9 1.6 0.9 Q2.25 0.85 2.25 0.6 L2.15 0.45 2.0 0.35 Q2.0 0.3 2.1 0.25 L2.15 0.2 Q2.15 0.1 2.0 0.0 L1.75 -0.05 1.4 0.0 Q1.3 -0.05 1.2 -0.05 L1.05 0.0 1.0 -0.1 M0.05 1.35 Q-0.15 1.4 -0.4 1.5 -1.2 1.85 -1.6 1.85 L-1.8 1.9 -2.0 1.9 Q-2.65 1.9 -2.65 1.6 -2.65 1.4 -2.55 1.3 L-2.45 1.2 -1.95 0.85 -1.95 0.85 -1.9 0.85 -1.8 0.85 -1.8 0.85 -1.85 0.85 -1.85 0.9 -1.9 0.9 -1.95 0.95 -1.8 0.95 -1.8 0.95 -1.85 0.95 -1.9 1.05 -1.85 1.1 -1.95 1.15 -1.9 1.25 -2.15 1.25 Q-2.2 1.25 -2.2 1.4 -2.3 1.4 -2.3 1.45 L-2.25 1.55 -2.35 1.65 -2.35 1.65 -2.3 1.65 -2.05 1.75 -1.8 1.65 -1.6 1.75 Q-1.15 1.75 -0.65 1.5 L-0.4 1.4 -0.15 1.3 0.05 1.35 M1.15 0.1 L1.3 0.05 1.45 0.15 1.4 0.2 1.45 0.35 Q1.45 0.45 -0.7 1.25 L-0.75 1.25 -0.75 1.25 -0.75 1.1 -0.75 1.1 -0.7 1.05 -0.65 1.05 -0.65 1.2 -0.5 1.2 -0.5 1.15 -0.45 1.15 -0.45 1.15 -0.4 1.15 -0.4 1.05 -0.4 1.05 -0.2 0.95 Q-0.05 0.85 0.0 0.85 L0.45 0.7 Q0.65 0.65 0.85 0.55 L0.9 0.5 0.85 0.4 1.1 0.25 1.15 0.15 1.15 0.1 M1.65 0.4 L1.7 0.45 1.75 0.5 1.8 0.45 Q1.85 0.45 1.9 0.55 L1.6 0.7 1.55 0.75 Q1.5 0.75 1.45 0.7 L1.55 0.65 1.5 0.6 1.35 0.65 1.3 0.65 1.3 0.6 1.35 0.6 Q1.5 0.6 1.65 0.4 M1.6 0.25 L1.65 0.2 Q1.7 0.15 1.7 0.15 L1.8 0.25 Q1.8 0.35 1.7 0.35 L1.65 0.35 1.6 0.3 1.6 0.25 M1.15 0.65 L1.15 0.8 1.05 0.85 0.95 0.75 1.15 0.65" fill="#25201d" fill-rule="evenodd" stroke="none"/>
    <path d="M0.85 0.4 L0.9 0.5 0.85 0.55 Q0.65 0.65 0.45 0.7 L0.0 0.85 Q-0.05 0.85 -0.2 0.95 L-0.4 1.05 -0.35 0.95 -0.35 0.9 -0.35 0.85 -0.4 0.85 -0.4 0.8 -0.35 0.8 0.15 0.65 0.45 0.55 0.85 0.4 M-0.4 0.8 L-0.35 0.8 -0.4 0.8 M-0.4 0.85 L-0.35 0.85 -0.4 0.85 M-1.0 0.9 L-1.0 0.9 -1.0 0.9 -1.0 0.9 -1.1 0.95 -1.1 0.9 -1.0 0.9 M-1.25 0.9 L-1.25 0.9 -1.25 0.9 -1.25 0.9 M-1.15 0.95 L-1.15 0.95 -1.1 0.95 -1.1 1.0 -1.15 1.0 -1.15 0.95 -1.2 0.95 -1.15 0.95 M-1.1 0.9 L-1.1 0.9 M-1.15 1.0 L-1.15 1.0" fill="#151210" fill-rule="evenodd" stroke="none"/>
    <path d="M-1.0 -0.35 L-0.75 -0.55 -0.7 -0.35 -0.7 -0.35 -0.8 -0.35 -0.85 -0.4 -0.85 -0.35 -0.9 -0.35 -0.9 -0.3 -0.9 -0.3 -0.95 -0.25 -1.0 -0.25 -1.0 -0.25 -1.0 -0.3 -1.0 -0.35 M0.05 -0.1 Q-0.2 -0.1 -0.1 -0.3 L-0.1 -0.3 Q-0.1 -0.35 -0.2 -0.35 -0.3 -0.35 -0.3 -0.5 L-0.3 -0.5 -0.25 -0.6 -0.4 -0.65 -0.6 -0.65 -0.4 -0.75 -0.2 -0.75 0.3 -0.65 0.25 -0.6 0.25 -0.55 0.4 -0.4 Q0.4 -0.35 0.05 -0.1 M-1.0 -0.25 L-1.0 -0.25" fill="#4a4a42" fill-rule="evenodd" stroke="none"/>
    <path d="M-3.1 -1.95 L-3.1 -1.95 -3.05 -1.95 -3.05 -1.95 -3.0 -1.95 -3.0 -1.95 -2.95 -1.95 -2.9 -1.9 -2.9 -1.9 -2.85 -1.9 -2.85 -1.85 -2.8 -1.85 -2.8 -1.85 -2.75 -1.8 -2.75 -1.9 -2.75 -1.85 -2.7 -1.8 -2.65 -1.8 -2.7 -1.8 -2.65 -1.75 -2.65 -1.75 -2.65 -1.7 -2.55 -1.65 -2.5 -1.6 -2.55 -1.75 -2.45 -1.7 -2.35 -1.55 -2.35 -1.6 Q-2.25 -1.5 -2.25 -1.35 L-2.25 -1.45 -2.2 -1.4 -2.2 -1.3 -2.2 -1.45 -2.15 -1.4 -2.15 -1.3 -2.1 -1.25 -2.1 -1.25 -2.05 -1.2 -2.05 -1.15 -2.0 -1.15 -1.95 -1.05 -1.9 -0.95 -1.95 -1.0 -1.95 -1.0 -2.0 -1.05 -2.05 -1.05 -2.05 -1.1 -2.1 -1.15 -2.0 -1.05 -2.1 -1.15 -2.15 -1.25 -2.2 -1.3 -2.3 -1.4 -2.45 -1.5 -2.55 -1.6 -2.7 -1.7 -2.7 -1.7 -2.8 -1.8 -2.85 -1.8 -2.85 -1.8 -2.95 -1.9 -3.0 -1.9 -3.05 -1.95 -3.05 -1.95 -3.1 -1.95 -3.1 -1.95 M-2.05 -1.05 L-2.05 -1.05" fill="#28382d" fill-rule="evenodd" stroke="none"/>
    <path d="M-3.3 -1.95 L-3.3 -1.95 -3.35 -1.95 -3.4 -1.95 -3.25 -2.0 -3.25 -2.0 -3.15 -1.95 -3.1 -1.95 -3.1 -1.95 -3.05 -1.95 -3.05 -1.95 -2.9 -1.8 -2.85 -1.8 -2.8 -1.75 -2.7 -1.7 -2.75 -1.7 -2.7 -1.65 Q-2.6 -1.6 -2.55 -1.6 L-2.65 -1.6 -2.75 -1.65 -2.75 -1.65 -2.8 -1.7 -2.85 -1.7 -2.85 -1.7 -2.95 -1.8 -3.05 -1.85 -3.1 -1.85 -3.25 -1.9 -3.25 -1.95 -3.3 -1.95" fill="#2c4235" fill-rule="evenodd" stroke="none"/>
    <path d="M-3.0 -1.65 L-3.0 -1.65 -3.05 -1.65 -3.1 -1.7 -3.15 -1.7 -3.05 -1.7 -3.05 -1.7 -3.0 -1.7 -2.95 -1.7 -2.9 -1.65 -2.9 -1.65 -2.8 -1.6 -2.75 -1.6 -2.65 -1.55 -2.6 -1.5 -2.6 -1.5 -2.65 -1.5 -2.7 -1.5 -2.75 -1.55 -2.75 -1.55 -2.8 -1.6 -2.9 -1.6 -2.9 -1.6 -2.95 -1.65 -3.0 -1.65" fill="#373631" fill-rule="evenodd" stroke="none"/>
    <path d="M-2.9 -1.9 L-2.9 -1.95 -2.85 -1.95 -2.85 -1.95 -2.8 -1.95 -2.8 -1.9 -2.75 -1.9 -2.75 -1.9 -2.7 -1.95 -2.65 -1.95 -2.6 -1.9 -2.55 -1.9 -2.55 -1.85 -2.5 -1.85 -2.45 -1.85 -2.25 -1.7 -2.2 -1.65 -2.15 -1.6 -2.1 -1.55 -2.0 -1.45 -1.95 -1.4 -1.95 -1.3 -1.95 -1.25 -2.0 -1.35 -2.05 -1.45 -2.05 -1.35 -2.1 -1.5 -2.1 -1.5 -2.2 -1.55 -2.35 -1.75 -2.45 -1.8 -2.5 -1.8 -2.55 -1.8 -2.5 -1.75 -2.45 -1.7 -2.55 -1.75 Q-2.6 -1.8 -2.65 -1.8 L-2.65 -1.8 -2.7 -1.8 -2.75 -1.85 -2.75 -1.9 -2.75 -1.8 -2.8 -1.85 -2.8 -1.85 -2.85 -1.85 -2.85 -1.9 -2.9 -1.9" fill="#43493a" fill-rule="evenodd" stroke="none"/>
    <path d="M-2.85 -1.35 L-2.9 -1.4 -3.05 -1.45 -3.0 -1.45 Q-3.0 -1.45 -2.95 -1.5 L-3.0 -1.55 -2.95 -1.55 -2.95 -1.6 -2.9 -1.6 -2.9 -1.6 -3.0 -1.65 -2.95 -1.65 -2.9 -1.6 -2.9 -1.6 -2.8 -1.6 -2.75 -1.55 -2.75 -1.55 -2.7 -1.5 -2.65 -1.45 -2.75 -1.5 -2.8 -1.5 -2.75 -1.45 -2.65 -1.4 Q-2.6 -1.4 -2.6 -1.4 L-2.5 -1.3 -2.45 -1.25 -2.45 -1.2 -2.55 -1.25 -2.6 -1.25 -2.7 -1.3 -2.7 -1.3 -2.75 -1.35 -2.8 -1.4 -2.8 -1.4 -2.85 -1.4 -2.85 -1.35" fill="#53483c" fill-rule="evenodd" stroke="none"/>
    <path d="M-2.5 -1.1 L-2.55 -1.1 -2.5 -1.1 -2.55 -1.15 -2.55 -1.15 -2.7 -1.25 -2.75 -1.25 -2.8 -1.3 -2.85 -1.35 -2.85 -1.35 -2.85 -1.4 -2.8 -1.4 -2.8 -1.4 -2.75 -1.35 -2.7 -1.3 -2.7 -1.3 -2.6 -1.25 -2.55 -1.25 -2.45 -1.2 -2.4 -1.15 -2.35 -1.1 -2.35 -1.1 -2.4 -1.1 -2.45 -1.1 -2.5 -1.1 M-2.45 -1.2 L-2.45 -1.2" fill="#463e34" fill-rule="evenodd" stroke="none"/>
    <path d="M-2.55 -1.75 L-2.5 -1.6 -2.55 -1.65 -2.65 -1.7 -2.65 -1.75 -2.65 -1.75 -2.7 -1.8 -2.65 -1.8 -2.65 -1.8 Q-2.6 -1.8 -2.55 -1.75" fill="#3d674b" fill-rule="evenodd" stroke="none"/>
    <path d="M-2.45 -1.2 L-2.45 -1.25 -2.5 -1.3 -2.6 -1.4 Q-2.6 -1.4 -2.65 -1.4 L-2.75 -1.45 -2.8 -1.5 -2.75 -1.5 -2.65 -1.45 -2.7 -1.5 -2.65 -1.5 -2.6 -1.5 -2.6 -1.45 -2.55 -1.4 -2.45 -1.4 -2.4 -1.35 -2.45 -1.35 -2.4 -1.35 -2.35 -1.3 -2.3 -1.25 -2.25 -1.2 -2.2 -1.2 -2.25 -1.2 -2.1 -1.1 -2.1 -1.05 -2.15 -1.1 -2.2 -1.1 -2.25 -1.15 -2.25 -1.15 -2.35 -1.2 -2.45 -1.2 -2.45 -1.2" fill="#645f3e" fill-rule="evenodd" stroke="none"/>
    <path d="M-2.05 -0.3 L-2.05 -0.3 -2.1 -0.35 -2.1 -0.35 -2.15 -0.4 -2.15 -0.4 -2.15 -0.45 -2.1 -0.4 -2.0 -0.35 -2.05 -0.4 -2.1 -0.4 -2.15 -0.5 -2.2 -0.55 -2.2 -0.6 -2.1 -0.55 -2.05 -0.5 -2.0 -0.5 -2.2 -0.6 -2.25 -0.65 -2.25 -0.7 Q-2.1 -0.55 -1.95 -0.5 L-2.15 -0.65 -2.25 -0.75 -2.3 -0.8 -2.4 -0.95 -2.5 -1.1 -2.45 -1.1 -2.4 -1.1 -2.35 -1.1 -2.35 -1.1 -2.4 -1.15 -2.45 -1.2 -2.35 -1.2 -2.25 -1.15 -2.25 -1.15 -2.2 -1.1 -2.15 -1.1 -2.1 -1.05 -2.1 -1.1 -2.05 -1.05 -2.05 -1.05 -2.1 -1.05 -2.0 -1.0 -1.95 -0.9 -1.95 -0.9 -1.85 -0.8 -1.85 -0.85 -1.8 -0.8 -1.75 -0.65 -1.7 -0.6 -1.65 -0.5 -1.6 -0.5 -1.6 -0.4 -1.55 -0.4 -1.55 -0.35 -1.65 -0.35 -1.7 -0.4 -1.65 -0.4 -1.7 -0.4 -1.75 -0.4 -1.8 -0.45 -1.8 -0.4 -1.9 -0.4 -1.85 -0.35 -1.85 -0.35 -1.8 -0.3 -1.8 -0.3 -1.9 -0.3 -1.85 -0.25 -1.75 -0.2 -1.8 -0.2 -1.8 -0.2 -1.85 -0.2 -1.85 -0.2 -1.9 -0.25 -2.0 -0.3 -2.15 -0.4 -2.05 -0.3 -2.05 -0.3 -2.05 -0.3 M-2.2 -0.95 L-2.2 -1.0 -2.25 -1.0 -2.3 -1.05 -2.35 -1.1 -2.35 -1.05 -2.35 -1.0 -2.3 -0.95 -2.25 -0.85 -2.15 -0.8 -2.1 -0.75 -2.05 -0.7 -2.0 -0.7 -2.05 -0.75 -2.1 -0.8 -2.15 -0.9 -2.2 -0.95 M-1.75 -0.2 L-1.75 -0.2 -1.75 -0.2 -1.75 -0.2" fill="#55402f" fill-rule="evenodd" stroke="none"/>
    <path d="M-2.05 -1.05 L-2.0 -1.05 -1.95 -1.0 -1.95 -1.0 -1.9 -0.95 -1.85 -0.85 -1.8 -0.8 -1.85 -0.85 -1.85 -0.8 -1.95 -0.9 -1.95 -0.9 -2.0 -1.0 -2.1 -1.05 -2.05 -1.05" fill="#5e6b49" fill-rule="evenodd" stroke="none"/>
    <path d="M-2.2 -1.3 L-2.15 -1.25 -2.15 -1.2 -2.1 -1.15 -2.05 -1.1 -2.05 -1.05 -2.1 -1.1 -2.25 -1.2 -2.2 -1.2 -2.25 -1.2 -2.3 -1.25 -2.2 -1.25 -2.2 -1.3" fill="#547651" fill-rule="evenodd" stroke="none"/>
    <path d="M-2.15 -1.25 L-2.1 -1.15 -2.0 -1.05 -2.1 -1.15 -2.15 -1.2 -2.15 -1.25" fill="#778d82" fill-rule="evenodd" stroke="none"/>
    <path d="M-2.35 -1.4 L-2.35 -1.45 -2.4 -1.4 -2.5 -1.5 -2.55 -1.55 -2.5 -1.55 -2.5 -1.55 -2.45 -1.5 -2.35 -1.45 -2.35 -1.4 -2.25 -1.3 -2.35 -1.35 -2.3 -1.35 -2.35 -1.4" fill="#395f47" fill-rule="evenodd" stroke="none"/>
    <path d="M-2.3 -1.4 L-2.2 -1.3 -2.2 -1.25 -2.3 -1.25 -2.35 -1.3 -2.4 -1.35 -2.45 -1.35 -2.4 -1.35 -2.45 -1.4 -2.4 -1.4 -2.35 -1.4 -2.3 -1.4 M-2.3 -1.35 L-2.35 -1.35 -2.25 -1.3 -2.35 -1.4 -2.3 -1.35" fill="#708d75" fill-rule="evenodd" stroke="none"/>
    <path d="M-2.6 -1.45 L-2.4 -1.4 -2.45 -1.4 -2.55 -1.4 -2.6 -1.45" fill="#374b35" fill-rule="evenodd" stroke="none"/>
    <path d="M-2.55 -1.1 L-2.55 -1.15 -2.5 -1.1 -2.55 -1.1" fill="#83725c" fill-rule="evenodd" stroke="none"/>
    <path d="M-2.2 -0.95 L-2.15 -0.9 -2.1 -0.8 -2.05 -0.75 -2.0 -0.7 -2.05 -0.7 -2.1 -0.75 -2.15 -0.8 -2.25 -0.85 -2.3 -0.95 -2.35 -1.0 -2.35 -1.05 -2.35 -1.1 -2.3 -1.05 -2.25 -1.0 -2.2 -1.0 -2.2 -0.95" fill="#614e42" fill-rule="evenodd" stroke="none"/>
    <path d="M-2.2 -0.55 L-2.2 -0.55 -2.25 -0.6 -2.25 -0.65 -2.3 -0.7 -2.35 -0.75 -2.25 -0.7 -2.25 -0.65 -2.2 -0.6 -2.0 -0.5 -2.05 -0.5 -2.1 -0.55 -2.2 -0.6 -2.2 -0.55" fill="#725038" fill-rule="evenodd" stroke="none"/>
    <path d="M-2.25 -0.6 L-2.3 -0.65 -2.25 -0.65 -2.25 -0.6" fill="#b89d7c" fill-rule="evenodd" stroke="none"/>
    <path d="M-2.15 -0.4 L-2.15 -0.45 -2.15 -0.5 -2.1 -0.4 -2.15 -0.45 -2.15 -0.4" fill="#967f62" fill-rule="evenodd" stroke="none"/>
    <path d="M-1.5 -0.75 Q-1.5 -0.65 -1.6 -0.6 L-1.55 -0.7 -1.55 -0.65 -1.6 -0.7 -1.6 -0.7 -1.55 -0.8 -1.55 -0.85 -1.5 -0.8 -1.5 -0.75" fill="#4d584e" fill-rule="evenodd" stroke="none"/>
    <path d="M-2.05 -0.25 L-2.05 -0.3 -2.05 -0.3 -2.05 -0.3 -2.0 -0.25 -2.05 -0.25" fill="#b69774" fill-rule="evenodd" stroke="none"/>
    <path d="M-2.1 -0.4 L-2.05 -0.4 -2.0 -0.35 -2.1 -0.4" fill="#e5dbc2" fill-rule="evenodd" stroke="none"/>
    <path d="M-2.15 -0.4 L-2.15 -0.4 -2.0 -0.3 -2.05 -0.3 -2.15 -0.4" fill="#ecd5ae" fill-rule="evenodd" stroke="none"/>
    <path d="M-2.0 -0.2 L-1.95 -0.2 -1.9 -0.2 -1.9 -0.15 -1.95 -0.2 -2.0 -0.2" fill="#7e704f" fill-rule="evenodd" stroke="none"/>
    <path d="M-1.5 -1.15 L-1.45 -1.05 -1.45 -1.05 -1.4 -1.0 -1.35 -0.95 Q-1.35 -0.9 -1.35 -0.95 L-1.3 -0.85 -1.3 -0.8 -1.3 -0.95 -1.25 -0.85 -1.2 -0.75 -1.2 -0.7 -1.15 -0.6 -1.15 -0.55 -1.15 -0.55 -1.3 -0.55 -1.3 -0.5 -1.35 -0.5 -1.35 -0.5 -1.4 -0.5 -1.35 -0.5 -1.35 -0.6 -1.35 -0.7 -1.35 -0.8 -1.4 -0.85 -1.4 -0.9 -1.45 -0.9 -1.5 -0.95 -1.5 -1.15" fill="#4d382d" fill-rule="evenodd" stroke="none"/>
    <path d="M-1.4 -1.0 L-1.35 -1.0 -1.35 -1.0 -1.35 -0.95 Q-1.35 -0.9 -1.35 -0.95 L-1.4 -1.0" fill="#9b8364" fill-rule="evenodd" stroke="none"/>
    <path d="M-1.35 -1.0 L-1.3 -0.95 -1.3 -0.8 -1.3 -0.85 -1.35 -0.95 -1.35 -1.0" fill="#6c5742" fill-rule="evenodd" stroke="none"/>
    <path d="M-1.05 -0.5 L-1.05 -0.45 -1.1 -0.45 -1.05 -0.5 M-1.2 -0.7 L-1.15 -0.6 -1.1 -0.55 -1.1 -0.5 -1.15 -0.55 -1.15 -0.6 -1.2 -0.7" fill="#8e7c64" fill-rule="evenodd" stroke="none"/>
    <path d="M-1.1 -0.5 L-1.1 -0.5 -1.05 -0.5 -1.1 -0.45 -1.1 -0.5 -1.1 -0.55 -1.1 -0.5" fill="#f1ecdb" fill-rule="evenodd" stroke="none"/>
    <path d="M-1.05 -0.4 L-1.0 -0.35 -1.0 -0.3 -1.05 -0.25 -1.05 -0.3 -1.05 -0.4 M-1.05 -0.25 L-1.05 -0.25" fill="#918d82" fill-rule="evenodd" stroke="none"/>
    <path d="M-1.0 -0.3 L-1.0 -0.25 -1.05 -0.25 -1.0 -0.3" fill="#68645c" fill-rule="evenodd" stroke="none"/>
    <path d="M-3.15 -1.7 L-3.15 -1.7 -3.2 -1.7 -3.25 -1.8 -3.25 -1.8 -3.2 -1.8 -3.25 -1.85 -3.25 -1.9 -3.3 -1.9 -3.3 -1.95 -3.25 -1.95 -3.25 -1.9 -3.1 -1.85 -3.05 -1.85 -2.95 -1.8 -2.85 -1.7 -2.85 -1.7 -2.8 -1.7 -2.75 -1.65 -2.75 -1.65 -2.65 -1.6 -2.55 -1.6 Q-2.6 -1.6 -2.7 -1.65 L-2.75 -1.7 -2.7 -1.7 -2.8 -1.75 -2.85 -1.8 -2.9 -1.8 -3.05 -1.95 -3.0 -1.9 -2.95 -1.9 -2.85 -1.8 -2.85 -1.8 -2.8 -1.8 -2.7 -1.7 -2.7 -1.7 -2.55 -1.6 -2.45 -1.5 -2.3 -1.4 -2.35 -1.4 -2.4 -1.4 -2.6 -1.45 -2.6 -1.5 -2.6 -1.5 -2.65 -1.55 -2.75 -1.6 -2.8 -1.6 -2.9 -1.65 -2.9 -1.65 -2.95 -1.7 -3.0 -1.7 -3.05 -1.7 -3.05 -1.7 -3.15 -1.7 M-1.9 -0.95 L-1.95 -1.05 -2.0 -1.15 -2.05 -1.15 -2.05 -1.2 -2.1 -1.25 -2.1 -1.25 -2.15 -1.3 -2.15 -1.4 -2.2 -1.45 -2.2 -1.3 -2.2 -1.4 -2.25 -1.45 -2.25 -1.35 Q-2.25 -1.5 -2.35 -1.6 L-2.35 -1.55 -2.45 -1.7 -2.5 -1.75 -2.55 -1.8 -2.5 -1.8 -2.45 -1.8 -2.35 -1.75 -2.2 -1.55 -2.1 -1.5 -2.1 -1.5 -2.05 -1.35 -2.05 -1.45 -2.0 -1.35 -1.95 -1.25 -1.95 -1.3 -1.9 -1.2 -1.9 -1.25 -1.85 -1.05 -1.85 -1.15 -1.8 -1.0 Q-1.8 -0.95 -1.85 -0.85 L-1.85 -1.0 -1.9 -0.95 M-2.35 -1.4 L-2.35 -1.4 -2.35 -1.45 -2.45 -1.5 -2.5 -1.55 -2.5 -1.55 -2.55 -1.55 -2.5 -1.5 -2.4 -1.4 -2.35 -1.45 -2.35 -1.4 M-1.5 -0.7 L-1.45 -0.7 -1.45 -0.65 -1.4 -0.7 -1.45 -0.6 -1.4 -0.6 -1.4 -0.55 -1.45 -0.5 -1.45 -0.45 -1.45 -0.5 -1.5 -0.5 -1.5 -0.55 -1.55 -0.55 -1.5 -0.6 -1.5 -0.7 M-1.6 -1.1 L-1.6 -1.05 -1.55 -0.95 -1.6 -0.9 -1.6 -0.85 -1.55 -0.9 -1.55 -0.85 -1.6 -0.75 -1.65 -0.7 -1.6 -0.8 -1.65 -0.75 -1.65 -0.85 -1.65 -0.8 -1.7 -0.75 -1.65 -0.95 -1.6 -1.1 -1.65 -1.15 -1.65 -1.25 -1.6 -1.15 -1.6 -1.1" fill="#633b65" fill-rule="evenodd" stroke="none"/>
    <path d="M-2.45 -1.85 L-2.35 -1.85 -2.25 -1.8 -2.25 -1.8 -2.15 -1.75 -2.1 -1.7 -2.05 -1.65 -2.0 -1.6 -1.95 -1.55 -1.9 -1.45 -1.85 -1.35 -1.8 -1.25 -1.7 -1.15 -1.7 -0.95 -1.65 -1.05 -1.65 -1.15 -1.75 -1.35 -1.85 -1.5 Q-1.75 -1.45 -1.65 -1.3 L-1.6 -1.3 -1.55 -1.25 -1.5 -1.15 -1.5 -0.95 -1.45 -0.9 -1.4 -0.9 -1.4 -0.85 -1.35 -0.8 -1.35 -0.7 -1.35 -0.6 -1.35 -0.5 -1.4 -0.5 -1.35 -0.5 -1.35 -0.4 -1.3 -0.35 -1.3 -0.3 -1.35 -0.3 -1.4 -0.2 -1.45 -0.25 -1.5 -0.3 -1.5 -0.25 -1.55 -0.25 -1.6 -0.3 -1.6 -0.25 -1.6 -0.2 -1.65 -0.2 -1.7 -0.2 -1.7 -0.35 -1.75 -0.4 -1.75 -0.4 -1.7 -0.4 -1.65 -0.4 -1.7 -0.4 -1.65 -0.35 -1.55 -0.35 -1.55 -0.4 -1.6 -0.4 -1.6 -0.5 -1.65 -0.5 -1.7 -0.6 -1.75 -0.65 -1.8 -0.8 -1.85 -0.85 -1.9 -0.95 -1.85 -1.0 -1.85 -0.85 Q-1.8 -0.95 -1.8 -1.0 L-1.85 -1.15 -1.85 -1.05 -1.9 -1.25 -1.9 -1.2 -1.95 -1.3 -1.95 -1.4 -2.0 -1.45 -2.1 -1.55 -2.15 -1.6 -2.2 -1.65 -2.25 -1.7 -2.45 -1.85 M-1.6 -0.25 L-1.6 -0.25 M-1.45 -0.1 L-1.4 -0.2 -1.4 -0.15 -1.4 -0.1 -1.45 -0.1 M-1.4 -0.1 L-1.4 -0.1 M-1.5 -0.7 L-1.5 -0.6 -1.55 -0.55 -1.5 -0.55 -1.5 -0.5 -1.45 -0.5 -1.45 -0.45 -1.45 -0.5 -1.4 -0.55 -1.4 -0.6 -1.45 -0.6 -1.4 -0.7 -1.45 -0.65 -1.45 -0.7 -1.5 -0.7 M-1.5 -0.75 L-1.5 -0.8 -1.55 -0.85 -1.55 -0.8 -1.6 -0.7 -1.6 -0.7 -1.55 -0.65 -1.55 -0.7 -1.6 -0.6 Q-1.5 -0.65 -1.5 -0.75 M-1.6 -1.1 L-1.6 -1.15 -1.65 -1.25 -1.65 -1.15 -1.6 -1.1 -1.65 -0.95 -1.7 -0.75 -1.65 -0.8 -1.65 -0.85 -1.65 -0.75 -1.6 -0.8 -1.65 -0.7 -1.6 -0.75 -1.55 -0.85 -1.55 -0.9 -1.6 -0.85 -1.6 -0.9 -1.55 -0.95 -1.6 -1.05 -1.6 -1.1 M-1.85 -0.35 L-1.9 -0.4 -1.8 -0.4 -1.85 -0.35 M-1.8 -0.2 L-1.8 -0.2 -1.75 -0.2 -1.85 -0.25 -1.9 -0.3 -1.8 -0.3 -1.75 -0.2 -1.8 -0.2 M-1.75 -0.2 L-1.75 -0.2 M-1.3 -0.55 L-1.3 -0.5 -1.3 -0.55" fill="#2d2f65" fill-rule="evenodd" stroke="none"/>
    <path d="M-1.0 0.35 L-0.95 0.35 -0.9 0.3 -0.85 0.3 -0.85 0.35 -0.8 0.35 -0.8 0.4 -0.85 0.5 -0.85 0.55 -0.85 0.6 -0.9 0.55 -0.85 0.55 -0.9 0.5 -0.95 0.5 -0.95 0.5 -1.0 0.45 -0.95 0.45 -1.0 0.45 -1.0 0.45 -1.0 0.4 -1.0 0.35 -1.05 0.35 -1.0 0.35 -1.0 0.35 -1.0 0.35 M-0.85 0.3 L-0.85 0.3 M-0.9 0.5 L-0.95 0.45 -0.95 0.45 -0.9 0.5 M-0.85 0.6 L-0.85 0.6 M-1.0 0.55 L-0.95 0.55 -0.95 0.55 -1.0 0.55 -1.0 0.55 M-0.9 0.55 L-0.95 0.55 -0.9 0.55 M-0.75 0.55 L-0.75 0.6 -0.75 0.65 -0.8 0.65 -0.8 0.7 -0.85 0.75 -0.85 0.7 -0.8 0.65 -0.8 0.65 -0.75 0.55 M-1.1 0.75 L-1.1 0.75 -1.05 0.75 -1.0 0.75 -1.05 0.8 -1.1 0.8 -1.15 0.8 -1.1 0.75 M-1.05 0.75 L-1.05 0.75 M-1.2 0.8 L-1.15 0.8 -1.2 0.85 -1.25 0.85 -1.25 0.8 -1.25 0.8 -1.2 0.8 M-1.25 0.85 L-1.25 0.85 M-1.4 1.1 L-1.4 1.15 -1.4 1.15 -1.4 1.15 -1.45 1.2 -1.45 1.15 -1.45 1.15 -1.4 1.1 -1.4 1.1 M-1.45 1.15 L-1.45 1.15 M-1.45 1.2 L-1.45 1.2" fill="#474e23" fill-rule="evenodd" stroke="none"/>
    <path d="M-1.35 0.35 L-1.35 0.35 -1.3 0.35 -1.35 0.35 -1.35 0.35 -1.4 0.35 -1.4 0.3 -1.35 0.3 -1.35 0.35 M-0.75 0.6 L-0.75 0.65 -0.75 0.75 -0.8 0.8 -0.85 0.75 -0.8 0.7 -0.8 0.65 -0.75 0.65 -0.75 0.65 -0.75 0.65 -0.75 0.65 -0.75 0.6 M-0.8 0.8 L-0.8 0.8 -0.8 0.85 -0.8 0.8 -0.8 0.8 M-1.45 0.25 L-1.45 0.25 -1.45 0.25 M-1.5 0.3 L-1.5 0.3 -1.5 0.3 -1.5 0.3 -1.6 0.25 -1.65 0.3 -1.7 0.25 -1.65 0.25 -1.65 0.25 -1.6 0.25 -1.55 0.25 -1.5 0.3 M-1.35 0.3 L-1.35 0.3 M-1.6 0.15 L-1.6 0.15 -1.55 0.2 -1.6 0.2 -1.6 0.15 M-1.55 0.25 L-1.6 0.25 -1.55 0.25 M-1.7 0.25 L-1.7 0.25 -1.7 0.25 M-1.6 0.25 L-1.6 0.25 M-1.6 0.75 L-1.55 0.75 -1.55 0.75 -1.6 0.8 -1.6 0.8 -1.65 0.85 -1.65 0.85 -1.7 0.85 -1.75 0.85 -1.7 0.8 -1.7 0.8 -1.6 0.8 -1.6 0.8 -1.55 0.75 -1.55 0.75 -1.6 0.75 M-1.7 0.85 L-1.7 0.85 -1.7 0.85 M-1.35 0.95 L-1.4 1.0 -1.4 0.95 -1.4 0.95 -1.35 0.95 -1.35 0.95 M-1.4 1.0 L-1.4 1.0 -1.45 1.0 -1.4 1.0 -1.4 1.0" fill="#323719" fill-rule="evenodd" stroke="none"/>
    <path d="M-0.9 0.75 L-0.9 0.75 -0.9 0.75 -0.9 0.75 M-0.95 0.8 L-0.95 0.8 -1.0 0.8 -1.0 0.85 -1.0 0.8 -0.95 0.8 M-1.05 0.8 L-1.0 0.8 -1.05 0.8" fill="#727d39" fill-rule="evenodd" stroke="none"/>
    <path d="M-1.45 -0.25 L-1.4 -0.2 -1.45 -0.1 -1.45 -0.05 -1.45 -0.15 -1.5 -0.2 -1.5 -0.2 -1.5 -0.25 -1.45 -0.25 M-1.45 -0.05 L-1.45 -0.05 M-0.8 0.85 L-0.8 0.8 -0.8 0.85 -0.8 0.95 -0.85 1.0 -0.9 0.95 -0.95 0.95 -0.9 0.95 -0.9 0.95 -0.9 0.8 -0.9 0.8 -0.9 0.85 -0.95 0.9 -1.0 0.95 -1.0 0.9 -1.0 0.85 -1.0 0.8 -0.95 0.8 -0.95 0.8 -0.95 0.8 -0.9 0.75 -0.9 0.75 -0.9 0.75 -0.85 0.8 -0.8 0.8 -0.8 0.85 M-1.0 0.9 L-1.0 0.9 M-1.5 0.3 L-1.45 0.35 -1.45 0.35 -1.5 0.35 -1.5 0.3 -1.5 0.3 -1.55 0.25 -1.5 0.3 -1.5 0.3 M-1.6 0.25 L-1.6 0.25 -1.55 0.25 -1.6 0.25 -1.65 0.25 -1.6 0.25 -1.6 0.25 M-2.1 0.05 L-2.0 0.05 -1.95 0.05 -2.0 0.1 -2.0 0.1 -2.05 0.1 -2.1 0.1 -2.1 0.15 -2.15 0.15 -2.15 0.2 -2.15 0.15 -2.15 0.1 -2.15 0.05 -2.1 0.05 M-2.0 0.1 L-2.0 0.1 M-2.15 0.15 L-2.15 0.15 M-2.05 0.1 L-2.1 0.1 -2.05 0.1" fill="#363c1b" fill-rule="evenodd" stroke="none"/>
    <path d="M-1.4 -0.15 L-1.4 -0.2 -1.4 -0.15 -1.4 -0.15 M-1.55 1.2 L-1.55 1.1 -1.55 1.1 -1.5 1.1 -1.5 1.05 -1.5 1.1 -1.55 1.15 -1.55 1.2 -1.55 1.3 -1.55 1.2 -1.55 1.2 M-1.5 1.05 L-1.5 1.05 -1.5 1.05 -1.5 1.05 M-1.1 0.9 L-1.1 0.95 -1.1 0.9" fill="#5e672f" fill-rule="evenodd" stroke="none"/>
    <path d="M-1.25 0.85 L-1.25 0.85 -1.25 0.85 -1.25 0.85 M-1.15 0.95 L-1.1 0.9 -1.1 0.95 -1.15 0.95" fill="#6c7636" fill-rule="evenodd" stroke="none"/>
    <path d="M-1.25 0.9 L-1.25 0.95 -1.15 0.95 -1.2 0.95 -1.2 1.05 -1.25 1.0 -1.3 0.95 -1.3 0.95 -1.3 1.0 -1.25 1.0 -1.25 1.05 -1.3 1.05 -1.3 1.05 -1.35 1.0 -1.3 0.95 -1.25 0.9 -1.25 0.9 M-1.3 0.95 L-1.3 0.95 M-1.35 1.05 L-1.4 1.05 -1.4 1.0 -1.35 1.05 M-1.25 1.05 L-1.25 1.05 -1.25 1.05 -1.25 1.05" fill="#383d1c" fill-rule="evenodd" stroke="none"/>
    <path d="M-1.25 0.7 L-1.2 0.7 -1.25 0.7 -1.25 0.7 M-1.2 0.75 L-1.2 0.7 -1.2 0.75 M-1.2 1.05 L-1.2 0.95 -1.15 0.95 -1.15 1.0 -1.2 1.0 -1.2 1.05 -1.25 1.05 -1.25 1.05 -1.2 1.05 M-1.25 1.05 L-1.25 1.05 -1.25 1.05 -1.25 1.05 -1.25 1.05" fill="#232611" fill-rule="evenodd" stroke="none"/>
    <path d="M-1.0 0.9 L-1.0 0.95 -1.0 0.95 -1.0 0.95 -1.05 0.95 -1.05 0.95 -1.1 0.95 -1.1 1.0 -1.1 1.0 -1.15 1.0 -1.1 1.0 -1.1 0.95 -1.0 0.9 -1.0 0.9 M-1.55 0.9 L-1.5 0.9 -1.55 0.9 -1.55 0.9 -1.55 0.9 -1.55 0.9 -1.5 0.85 -1.5 0.85 -1.45 0.9 -1.5 0.9 -1.5 0.9 -1.55 0.9 M-1.55 0.85 L-1.5 0.85 -1.55 0.85 M-1.45 0.95 L-1.45 0.95 -1.45 0.9 -1.45 0.9 -1.45 0.95 M-1.05 0.95 L-1.05 0.95 -1.05 0.95 M-1.1 1.0 L-1.1 1.0" fill="#313618" fill-rule="evenodd" stroke="none"/>
    <path d="M-2.1 0.8 L-2.2 0.8 -2.2 0.7 -2.15 0.7 -2.15 0.65 -2.1 0.6 -2.05 0.6 -2.0 0.6 -2.05 0.6 -2.0 0.65 -2.05 0.7 -2.1 0.8 M-1.25 1.05 L-1.25 1.05 -1.25 1.05 -1.2 1.05 -1.25 1.05" fill="#383e1c" fill-rule="evenodd" stroke="none"/>
    <path d="M-1.0 0.95 L-0.95 0.9 -0.9 0.85 -0.9 0.8 -0.9 0.8 -0.9 0.95 -0.9 0.95 -0.95 0.95 -1.0 0.95 M-1.7 0.6 L-1.75 0.6 -1.7 0.55 -1.7 0.55 -1.65 0.55 -1.7 0.6" fill="#444a22" fill-rule="evenodd" stroke="none"/>
    <path d="M-1.5 0.35 L-1.5 0.4 -1.6 0.45 -1.65 0.35 -1.65 0.35 -1.55 0.35 -1.5 0.35" fill="#2f3417" fill-rule="evenodd" stroke="none"/>
    <path d="M-1.75 0.0 L-1.75 0.0 -1.75 0.0 -1.75 0.0 -1.75 0.0 -1.7 0.05 -1.7 0.05 -1.65 0.1 -1.65 0.1 -1.6 0.1 -1.6 0.15 -1.6 0.15 -1.6 0.15 -1.65 0.1 -1.7 0.15 -1.7 0.2 -1.75 0.15 -1.8 0.15 -1.8 0.05 -1.75 0.05 -1.75 0.0 M-1.45 0.05 L-1.45 0.05 -1.5 0.05 -1.5 0.05 -1.5 0.05 -1.45 0.05 M-1.5 0.05 L-1.5 0.05 -1.5 0.05 M-1.55 0.05 L-1.55 0.05 -1.55 0.05 -1.55 0.1 -1.55 0.05 M-1.6 0.15 L-1.6 0.15 M-1.65 0.45 L-1.65 0.4 -1.7 0.35 -1.65 0.35 -1.6 0.45 -1.6 0.45 -1.65 0.45 -1.65 0.45 M-1.65 0.3 L-1.65 0.35 -1.65 0.3 M-1.4 1.0 L-1.35 1.0 -1.35 1.05 -1.4 1.0 -1.4 1.0" fill="#3b411d" fill-rule="evenodd" stroke="none"/>
    <path d="M-1.4 1.25 L-1.4 1.25 -1.45 1.2 -1.4 1.15 -1.4 1.15 -1.4 1.15 -1.4 1.25 M-1.2 -0.2 L-1.2 -0.25 -1.15 -0.25 -1.1 -0.3 -1.1 -0.3 -1.05 -0.25 -1.05 -0.25 -1.0 -0.2 -1.0 -0.1 -1.05 -0.05 -1.05 -0.05 -1.1 -0.05 -1.15 0.0 -1.15 -0.1 -1.2 -0.2 -1.2 -0.2 -1.2 -0.2 -1.2 -0.2 M-1.05 -0.05 L-1.05 -0.05 M-1.0 -0.1 L-1.0 -0.1 M-0.8 0.8 L-0.8 0.85 -0.8 0.8 M-1.45 0.15 L-1.5 0.15 -1.5 0.1 -1.45 0.15 -1.45 0.15 M-1.65 0.3 L-1.6 0.25 -1.5 0.3 -1.55 0.35 -1.6 0.35 -1.65 0.3 -1.65 0.3 -1.7 0.35 -1.7 0.3 -1.65 0.3 M-1.5 1.15 L-1.5 1.15 -1.45 1.15 -1.45 1.2 -1.5 1.25 -1.5 1.2 -1.5 1.15" fill="#373c1b" fill-rule="evenodd" stroke="none"/>
    <path d="M-1.95 -0.05 L-1.95 -0.05 -1.95 -0.05 M-1.55 1.45 L-1.5 1.45 -1.5 1.55 -1.55 1.6 -1.6 1.65 -1.65 1.6 -1.65 1.5 -1.65 1.5 -1.55 1.45 -1.55 1.45 M-1.85 0.05 L-1.85 0.0 -1.85 0.05 -1.85 0.05 -1.8 0.05 -1.75 0.05 -1.8 0.05 -1.8 0.05 -1.85 0.05 M-1.3 0.95 L-1.3 0.95 -1.25 1.0 -1.2 1.05 -1.25 1.05 -1.25 1.0 -1.3 1.0 -1.3 0.95" fill="#3e441f" fill-rule="evenodd" stroke="none"/>
    <path d="M-1.4 -0.1 L-1.4 -0.15 -1.4 -0.2 -1.35 -0.2 -1.35 -0.2 -1.3 -0.2 -1.4 -0.1 -1.4 -0.05 -1.4 -0.1 M-1.4 -0.15 L-1.4 -0.15 M-1.55 0.05 L-1.55 0.05 -1.5 0.05 -1.45 0.1 -1.5 0.1 -1.5 0.15 -1.45 0.15 -1.45 0.15 -1.4 0.2 -1.4 0.2 -1.4 0.25 -1.45 0.25 -1.5 0.25 -1.55 0.25 -1.55 0.2 -1.6 0.15 -1.55 0.1 -1.55 0.05 -1.55 0.05 M-1.45 0.25 L-1.45 0.25 -1.4 0.25 -1.4 0.25 -1.35 0.25 -1.4 0.25 -1.4 0.25 -1.45 0.25 M-1.3 0.3 L-1.3 0.25 -1.3 0.3 -1.3 0.3 M-1.6 0.15 L-1.6 0.15 M-1.6 0.35 L-1.65 0.35 -1.65 0.3 -1.65 0.3 -1.6 0.35 M-1.65 0.35 L-1.65 0.35 M-1.7 0.85 L-1.65 0.85 -1.7 0.85 -1.7 0.85 -1.7 0.85 -1.75 0.85 -1.7 0.85 M-1.75 0.85 L-1.75 0.85 -1.75 0.85 M-1.65 0.95 L-1.7 0.95 -1.65 0.95 M-1.7 0.95 L-1.7 0.95" fill="#484f24" fill-rule="evenodd" stroke="none"/>
    <path d="M-0.9 0.55 L-0.85 0.6 -0.8 0.65 -0.9 0.7 -0.95 0.75 -0.95 0.75 -0.95 0.7 -1.0 0.75 -0.95 0.7 -0.9 0.7 -0.95 0.65 -0.95 0.55 -0.9 0.55 -0.9 0.55 -0.9 0.55 M-1.75 0.15 L-1.7 0.2 -1.7 0.2 -1.75 0.2 -1.75 0.15 M-1.7 0.25 L-1.7 0.25 -1.7 0.25 -1.7 0.25 M-2.0 0.15 L-2.0 0.2 -2.0 0.25 -2.15 0.2 -2.0 0.15" fill="#495024" fill-rule="evenodd" stroke="none"/>
    <path d="M-1.2 1.3 L-1.25 1.35 -1.3 1.35 -1.35 1.3 -1.25 1.35 -1.25 1.3 -1.2 1.3 M-1.45 -0.1 L-1.4 -0.1 -1.4 -0.05 -1.45 -0.05 -1.45 -0.1" fill="#2d3116" fill-rule="evenodd" stroke="none"/>
    <path d="M-1.05 -0.45 L-1.05 -0.4 -1.1 -0.3 -1.15 -0.4 -1.15 -0.45 -1.2 -0.3 -1.2 -0.3 -1.25 -0.3 -1.25 -0.3 -1.3 -0.3 -1.3 -0.35 -1.35 -0.4 -1.35 -0.5 -1.35 -0.5 -1.3 -0.5 -1.3 -0.55 -1.15 -0.55 -1.15 -0.55 -1.1 -0.5 -1.1 -0.45 -1.05 -0.45 M-2.05 -0.05 L-2.0 -0.05 -1.95 -0.05 -1.95 -0.05 -1.95 0.0 -2.0 0.0 -2.0 0.0 -2.05 -0.05 M-2.2 0.05 L-2.15 0.05 -2.2 0.05 -2.2 0.05 M-1.95 -0.05 L-1.95 -0.05 M-1.75 0.0 L-1.75 0.0 -1.7 0.05 -1.7 0.05 -1.75 0.0 M-1.8 0.15 L-1.8 0.15 -1.75 0.2 -1.8 0.2 -1.8 0.2 -1.85 0.15 -1.85 0.1 -1.85 0.1 -1.8 0.15 -1.8 0.15 M-1.85 0.15 L-1.85 0.15 M-2.05 0.1 L-2.05 0.15 -2.05 0.1 -2.05 0.1 -2.1 0.1 -2.05 0.1 M-1.5 1.15 L-1.5 1.15 -1.45 1.15 -1.45 1.15 -1.45 1.15 -1.5 1.15" fill="#4d5426" fill-rule="evenodd" stroke="none"/>
    <path d="M-1.9 -0.05 L-1.95 -0.1 -1.95 -0.1 -1.9 -0.1 -1.85 -0.05 -1.85 -0.05 -1.75 -0.05 -1.8 -0.1 -1.9 -0.15 -1.9 -0.15 -1.9 -0.2 -1.95 -0.2 -2.0 -0.2 -2.0 -0.25 -2.05 -0.3 -2.05 -0.3 -2.0 -0.3 -1.9 -0.25 -1.85 -0.2 -1.85 -0.2 -1.8 -0.2 -1.75 -0.2 -1.7 -0.1 -1.7 -0.1 -1.75 -0.05 -1.75 0.0 -1.8 0.0 -1.85 0.0 -1.9 -0.05 -1.9 -0.05 M-1.65 1.5 L-1.7 1.55 -1.75 1.55 -1.8 1.45 -1.75 1.4 -1.75 1.4 -1.7 1.35 -1.7 1.35 -1.7 1.35 -1.7 1.35 -1.7 1.45 -1.65 1.5 M-1.6 -0.2 L-1.6 -0.25 -1.6 -0.2 -1.6 -0.2 -1.6 -0.2 M-1.55 -0.25 L-1.5 -0.25 -1.5 -0.3 -1.45 -0.25 -1.5 -0.25 -1.5 -0.2 -1.55 -0.2 -1.55 -0.25 -1.55 -0.25 M-1.8 -0.1 L-1.8 -0.1 M-1.6 0.1 L-1.6 0.1 -1.55 0.05 -1.55 0.1 -1.6 0.15 -1.6 0.1" fill="#333819" fill-rule="evenodd" stroke="none"/>
    <path d="M-0.75 0.8 L-0.75 0.65 -0.7 0.75 -0.65 0.8 -0.65 0.8 -0.7 0.85 -0.75 0.8 M-1.55 0.75 L-1.55 0.75 -1.55 0.75 -1.55 0.75 -1.55 0.8 -1.6 0.8 -1.6 0.8 -1.6 0.8 -1.55 0.75 -1.55 0.75 M-1.6 0.8 L-1.6 0.8 M-1.55 0.9 L-1.55 0.9 -1.55 0.9 -1.55 0.9 M-1.45 0.95 L-1.45 0.95 -1.45 0.9 -1.45 0.9 -1.45 0.95 -1.4 0.95 -1.4 1.0 -1.35 0.95 -1.3 0.95 -1.3 0.95 -1.35 1.0 -1.4 1.0 -1.45 1.0 -1.45 0.95 M-1.35 1.0 L-1.35 1.0" fill="#3b401d" fill-rule="evenodd" stroke="none"/>
    <path d="M-1.75 1.4 L-1.8 1.4 -1.8 1.25 -1.8 1.25 -1.75 1.25 -1.7 1.35 -1.75 1.4 -1.75 1.4 M-0.75 0.85 L-0.75 0.95 -0.8 1.0 -0.8 1.0 -0.8 1.0 -0.85 1.0 -0.8 0.95 -0.8 0.85 -0.75 0.85 M-1.55 0.7 L-1.55 0.75 -1.55 0.75 -1.6 0.7 -1.6 0.7 -1.55 0.7 -1.55 0.7 M-1.55 0.75 L-1.55 0.75 -1.55 0.75 M-1.7 1.35 L-1.7 1.35" fill="#404620" fill-rule="evenodd" stroke="none"/>
    <path d="M-0.7 1.05 L-0.75 1.1 -0.75 1.1 -0.8 1.0 -0.8 1.0 -0.75 0.95 -0.75 0.85 -0.7 0.85 -0.7 0.85 -0.7 0.85 -0.75 1.0 -0.7 1.05" fill="#3d421e" fill-rule="evenodd" stroke="none"/>
    <path d="M-1.75 0.55 L-1.75 0.55 -1.75 0.6 -1.8 0.6 -1.8 0.55 -1.75 0.55 M-1.9 0.7 L-1.85 0.7 -1.8 0.7 -1.75 0.75 -1.65 0.75 -1.7 0.75 -1.65 0.75 -1.65 0.75 -1.65 0.75 -1.65 0.75 -1.65 0.75 -1.6 0.75 -1.6 0.8 -1.6 0.8 -1.65 0.8 -1.7 0.8 -1.7 0.8 -1.8 0.8 -1.85 0.8 -1.8 0.8 -1.9 0.7 M-1.8 0.6 L-1.8 0.6 M-1.6 0.75 L-1.6 0.75" fill="#545c2a" fill-rule="evenodd" stroke="none"/>
    <path d="M-1.2 -0.25 L-1.2 -0.2 -1.25 -0.2 -1.2 -0.25 -1.2 -0.25 M-1.2 -0.2 L-1.2 -0.2 -1.2 -0.2 M-1.5 0.05 L-1.5 0.05 -1.55 0.05 -1.5 0.05 M-1.55 0.05 L-1.55 0.05" fill="#444b22" fill-rule="evenodd" stroke="none"/>
    <path d="M-0.95 0.7 L-0.95 0.65 -0.9 0.7 -0.95 0.7 M-1.8 1.15 L-1.8 1.0 -1.75 1.0 -1.75 0.95 -1.7 0.95 -1.65 0.95 -1.7 1.0 -1.7 1.1 -1.75 1.15 -1.8 1.15 M-1.6 1.15 L-1.6 1.15 -1.55 1.15 -1.6 1.2 -1.6 1.2 -1.6 1.15 M-1.65 0.95 L-1.65 0.95 M-1.7 1.1 L-1.7 1.1 M-1.45 1.15 L-1.45 1.1 -1.4 1.1 -1.45 1.15" fill="#535b29" fill-rule="evenodd" stroke="none"/>
    <path d="M-1.5 0.25 L-1.45 0.25 -1.4 0.25 -1.35 0.3 -1.4 0.3 -1.5 0.3 -1.5 0.3 -1.55 0.25 -1.5 0.25 M-1.35 0.3 L-1.35 0.3 M-1.45 0.25 L-1.45 0.25 M-1.6 0.25 L-1.55 0.25 -1.6 0.25 -1.6 0.25 M-1.7 0.25 L-1.7 0.25 -1.9 0.25 -1.95 0.3 -1.95 0.25 -1.9 0.25 -1.9 0.25 -1.8 0.2 -1.75 0.2 -1.8 0.15 -1.75 0.15 -1.75 0.2 -1.7 0.25 -1.7 0.3 -1.7 0.25 M-1.55 0.75 L-1.5 0.8 -1.5 0.8 -1.5 0.85 -1.55 0.85 -1.55 0.8 -1.6 0.8 -1.55 0.8 -1.55 0.75 M-1.55 0.85 L-1.55 0.85 M-1.5 0.8 L-1.5 0.8" fill="#616a30" fill-rule="evenodd" stroke="none"/>
    <path d="M-2.0 -0.2 L-2.1 -0.25 -2.05 -0.25 -2.0 -0.25 -2.0 -0.2 -1.95 -0.2 -2.0 -0.2 M-1.75 -0.4 L-1.75 -0.4 -1.7 -0.35 -1.7 -0.2 -1.7 -0.2 -1.75 -0.2 -1.75 -0.2 -1.8 -0.3 -1.8 -0.3 -1.85 -0.35 -1.85 -0.35 -1.8 -0.4 -1.8 -0.45 -1.75 -0.4 M-1.75 -0.2 L-1.75 -0.2 M-1.35 0.2 L-1.3 0.2 -1.3 0.25 -1.35 0.2 -1.35 0.2" fill="#303518" fill-rule="evenodd" stroke="none"/>
    <path d="M-1.5 1.15 L-1.5 1.1 -1.45 1.05 -1.45 1.05 -1.45 1.05 -1.45 1.1 -1.45 1.15 -1.5 1.15 M-1.35 1.0 L-1.35 1.0 -1.3 1.05 -1.3 1.15 -1.3 1.2 -1.35 1.25 -1.35 1.2 -1.3 1.1 -1.35 1.05 -1.35 1.05 -1.35 1.0" fill="#606930" fill-rule="evenodd" stroke="none"/>
    <path d="M-0.95 0.5 L-0.9 0.5 -0.85 0.55 -0.9 0.55 -0.9 0.5 -0.9 0.55 -0.9 0.55 -0.95 0.55 -0.95 0.5 M-0.9 0.55 L-0.9 0.55 M-1.1 0.75 L-1.15 0.8 -1.1 0.8 -1.05 0.8 -1.05 0.85 -1.1 0.9 -1.15 0.95 -1.25 0.95 -1.25 0.9 -1.25 0.85 -1.2 0.85 -1.15 0.8 -1.2 0.8 -1.15 0.75 -1.15 0.75 -1.1 0.75 M-1.25 0.85 L-1.25 0.85 M-1.25 0.9 L-1.25 0.9 M-1.15 0.95 L-1.15 0.95 M-1.1 0.9 L-1.1 0.9 M-1.05 0.8 L-1.05 0.8 M-1.1 0.8 L-1.15 0.8 -1.2 0.85 -1.1 0.8" fill="#505828" fill-rule="evenodd" stroke="none"/>
    <path d="M-2.0 0.1 L-2.0 0.1 -2.0 0.1 -2.0 0.1 M-2.15 0.05 L-2.2 0.05 -2.15 0.05 -2.15 0.05" fill="#4d5526" fill-rule="evenodd" stroke="none"/>
    <path d="M-1.4 0.25 L-1.35 0.25 -1.35 0.3 -1.4 0.25 -1.4 0.25 -1.4 0.25 -1.45 0.25 -1.4 0.25 -1.4 0.25 M-1.4 0.3 L-1.35 0.3 -1.35 0.3 -1.4 0.3 -1.4 0.3" fill="#454c22" fill-rule="evenodd" stroke="none"/>
    <path d="M-2.15 -0.05 L-2.1 -0.1 -2.05 -0.05 -2.05 -0.05 -2.0 0.0 -2.0 0.0 -1.95 0.0 -2.0 0.0 -2.05 0.0 -2.0 0.05 -2.05 0.05 -2.1 0.05 -2.15 0.05 -2.15 0.05 -2.25 -0.05 -2.2 -0.05 -2.15 -0.05" fill="#3d431e" fill-rule="evenodd" stroke="none"/>
    <path d="M-2.35 0.0 L-2.35 -0.1 -2.25 -0.15 -2.2 -0.1 -2.15 -0.1 -2.15 -0.05 -2.2 -0.05 -2.25 -0.05 -2.15 0.05 -2.2 0.05 -2.25 0.0 -2.35 -0.05 -2.35 0.0 M-2.2 0.05 L-2.2 0.05 M-1.85 0.1 L-1.85 0.15 -1.9 0.15 -1.85 0.1" fill="#4a5125" fill-rule="evenodd" stroke="none"/>
    <path d="M-1.2 0.75 L-1.2 0.75 -1.2 0.75 -1.2 0.75 -1.2 0.75" fill="#6d7736" fill-rule="evenodd" stroke="none"/>
    <path d="M-2.0 0.0 L-2.0 0.0 -2.0 0.05 -2.05 0.0 -2.0 0.0 -2.0 0.0 -2.0 0.0 M-2.0 0.05 L-2.0 0.05 -2.0 0.05 M-1.95 0.0 L-1.95 -0.05 -1.95 0.0" fill="#5d662e" fill-rule="evenodd" stroke="none"/>
    <path d="M-1.25 0.65 L-1.2 0.65 -1.2 0.7 -1.25 0.7 -1.25 0.65" fill="#6e7837" fill-rule="evenodd" stroke="none"/>
    <path d="M-1.95 0.05 L-1.9 0.05 -1.9 0.05 -1.85 0.1 -1.9 0.15 -1.85 0.15 -1.85 0.15 -1.8 0.2 -1.9 0.25 -1.9 0.25 -1.95 0.2 -2.0 0.2 -2.0 0.2 -2.0 0.15 -2.05 0.15 -2.05 0.1 -2.0 0.1 -1.95 0.05 M-0.95 0.75 L-0.95 0.75 -0.9 0.7 -0.9 0.75 -0.95 0.8 -0.95 0.8 -1.0 0.8 -1.05 0.8 -1.05 0.8 -0.95 0.75 M-0.9 0.75 L-0.9 0.75 M-1.85 0.1 L-1.85 0.1 M-2.0 0.1 L-2.0 0.1 M-1.05 0.75 L-1.05 0.75 -1.05 0.75 M-1.05 0.8 L-1.05 0.8" fill="#4f5627" fill-rule="evenodd" stroke="none"/>
    <path d="M-1.0 0.75 L-0.95 0.7 -0.95 0.75 -1.05 0.8 -1.05 0.8 -1.0 0.75 -1.0 0.75 M-1.5 0.35 L-1.5 0.35 -1.55 0.35 -1.65 0.35 -1.6 0.35 -1.55 0.35 -1.5 0.3 -1.5 0.3 -1.5 0.35 M-1.65 1.35 L-1.65 1.35 -1.65 1.35 -1.6 1.35 -1.6 1.35 -1.55 1.35 -1.5 1.4 -1.55 1.45 -1.55 1.45 -1.65 1.5 -1.65 1.5 -1.7 1.45 -1.7 1.35 -1.7 1.35 -1.65 1.35 -1.65 1.35 M-1.05 0.8 L-1.05 0.8 M-1.1 0.8 L-1.2 0.85 -1.15 0.8 -1.1 0.8" fill="#4e5527" fill-rule="evenodd" stroke="none"/>
    <path d="M-1.6 -0.25 L-1.6 -0.3 -1.55 -0.25 -1.55 -0.25 -1.55 -0.2 -1.5 -0.2 -1.5 -0.1 -1.55 -0.1 -1.55 -0.1 -1.55 -0.1 -1.6 -0.15 -1.6 -0.2 -1.6 -0.2 -1.6 -0.25 M-1.0 0.55 L-0.95 0.55 -0.95 0.55 -0.95 0.65 -0.95 0.7 -1.0 0.75 -1.05 0.75 -1.1 0.75 -1.05 0.7 -1.0 0.55 M-2.0 0.1 L-2.05 0.1 -2.0 0.1 -2.0 0.1 -2.0 0.1 M-2.05 0.1 L-2.05 0.1 -2.05 0.15 -2.1 0.15 -2.1 0.1 -2.05 0.1 M-1.05 0.75 L-1.05 0.75 M-1.6 1.35 L-1.6 1.35 -1.55 1.35 -1.55 1.35 -1.6 1.35 -1.6 1.35 M-1.0 0.75 L-1.0 0.75" fill="#4c5326" fill-rule="evenodd" stroke="none"/>
    <path d="M-1.05 -0.4 L-1.05 -0.4 -1.05 -0.3 -1.05 -0.25 -1.1 -0.3 -1.1 -0.3 -1.05 -0.4 M-1.8 1.25 L-1.8 1.2 -1.8 1.15 -1.75 1.15 -1.7 1.1 -1.65 1.1 -1.7 1.1 -1.75 1.15 -1.65 1.15 -1.65 1.15 -1.65 1.3 -1.65 1.35 -1.6 1.3 -1.6 1.2 -1.6 1.2 -1.55 1.15 -1.55 1.2 -1.55 1.2 -1.55 1.3 -1.55 1.2 -1.5 1.15 -1.5 1.2 -1.5 1.25 -1.5 1.35 -1.55 1.35 -1.6 1.35 -1.6 1.35 -1.65 1.35 -1.65 1.35 -1.7 1.35 -1.7 1.35 -1.75 1.25 -1.8 1.25 -1.8 1.25 M-1.75 0.0 L-1.75 -0.05 -1.75 0.0 -1.75 0.0 M-1.2 -0.25 L-1.15 -0.3 -1.15 -0.25 -1.2 -0.25 M-1.1 -0.3 L-1.1 -0.3 M-1.3 0.2 L-1.3 0.2 -1.3 0.25 -1.3 0.25 -1.3 0.25 -1.3 0.2 M-1.2 0.8 L-1.2 0.75 -1.2 0.75 -1.2 0.8" fill="#565e2b" fill-rule="evenodd" stroke="none"/>
    <path d="M-1.2 1.3 L-1.2 1.3 -1.25 1.3 -1.2 1.25 -1.15 1.2 -1.2 1.1 -1.25 1.05 -1.2 1.05 -1.2 1.0 -1.15 1.0 -1.1 1.0 -1.1 0.95 -1.1 1.0 -1.15 1.1 -1.15 1.15 -1.1 1.25 -1.1 1.25 -1.1 1.3 -1.2 1.3 M-1.05 0.95 L-1.05 0.95 -1.05 0.95 M-1.15 1.0 L-1.15 1.0 M-1.25 1.05 L-1.25 1.05 M-1.1 1.0 L-1.1 1.0" fill="#816f35" fill-rule="evenodd" stroke="none"/>
    <path d="M-0.85 1.3 L-0.9 1.35 -1.0 1.3 -1.05 1.25 -1.1 1.25 -1.1 1.25 -1.15 1.15 -1.15 1.1 -1.1 1.0 -1.1 1.0 -1.05 1.0 -1.05 1.1 -1.05 1.15 -1.0 1.2 -0.95 1.2 -0.95 1.2 -0.85 1.3 M-1.1 1.0 L-1.1 1.0 -1.1 1.0" fill="#8e7a3a" fill-rule="evenodd" stroke="none"/>
    <path d="M-0.8 1.25 L-0.8 1.3 -0.85 1.3 -0.85 1.25 -0.85 1.2 -0.9 1.1 -0.9 1.05 -0.95 1.05 -0.95 1.05 -1.0 1.05 -1.0 1.0 -1.05 1.0 -1.1 1.0 -1.1 0.95 -1.05 0.95 -1.0 1.0 -1.0 1.0 -0.95 1.0 -0.95 1.0 -0.9 1.0 -0.9 1.05 -0.85 1.05 -0.85 1.1 -0.8 1.15 -0.8 1.2 -0.8 1.25 M-0.95 1.0 L-0.95 1.0 M-0.9 1.0 L-0.9 1.0" fill="#4b401e" fill-rule="evenodd" stroke="none"/>
    <path d="M-1.0 1.0 L-1.05 0.95 -1.0 0.95 -1.0 1.0 M-1.05 0.95 L-1.05 0.95" fill="#514621" fill-rule="evenodd" stroke="none"/>
    <path d="M-0.75 1.25 L-0.8 1.25 -0.8 1.2 -0.8 1.15 -0.85 1.1 -0.85 1.05 -0.9 1.05 -0.9 1.0 -0.95 1.0 -0.95 1.0 -1.0 1.0 -1.0 1.0 -1.0 1.05 -0.95 1.05 -0.95 1.05 -0.9 1.1 -0.85 1.2 -0.85 1.25 -0.9 1.25 -0.95 1.2 -1.0 1.2 -1.05 1.15 -1.05 1.1 -1.05 1.0 -1.0 1.0 -1.0 0.95 -1.05 0.95 -1.0 0.95 -1.0 0.95 -1.0 0.95 -0.95 0.95 -0.9 0.95 -0.85 1.0 -0.8 1.0 -0.8 1.0 -0.75 1.1 -0.75 1.25 M-0.95 1.0 L-0.95 1.0 M-0.9 1.0 L-0.9 1.0 M-1.05 0.95 L-1.05 0.95 -1.05 0.95" fill="#463d1d" fill-rule="evenodd" stroke="none"/>
    <path d="M-1.05 1.25 L-1.05 1.3 -1.2 1.35 -1.2 1.3 -1.1 1.3 -1.1 1.25 -1.05 1.25" fill="#6d5d2c" fill-rule="evenodd" stroke="none"/>
    <path d="M-1.0 0.95 L-1.0 0.95 -1.0 0.95" fill="#3c3318" fill-rule="evenodd" stroke="none"/>
    <path d="M-0.95 1.0 L-0.95 1.0 -0.95 1.0" fill="#5b4f25" fill-rule="evenodd" stroke="none"/>
    <path d="M-0.8 1.2 L-0.8 1.25 -0.8 1.2 M-0.9 1.0 L-0.9 1.0 -0.9 1.0" fill="#7f6d34" fill-rule="evenodd" stroke="none"/>
    <path d="M-0.85 1.25 L-0.85 1.3 -0.95 1.2 -0.95 1.2 -0.9 1.25 -0.85 1.25" fill="#554922" fill-rule="evenodd" stroke="none"/>
    <path d="M-0.95 1.05 L-0.9 1.05 -0.9 1.1 -0.95 1.05" fill="#443b1c" fill-rule="evenodd" stroke="none"/>
    <path d="M-1.3 -0.3 L-1.3 -0.35 -1.3 -0.3 -1.25 -0.3 -1.25 -0.3 -1.25 -0.25 -1.3 -0.2 -1.3 -0.3 M-1.75 -0.2 L-1.75 -0.2 -1.75 -0.2 -1.75 -0.2 M-1.65 0.3 L-1.65 0.35 -1.7 0.35 -1.65 0.3" fill="#414720" fill-rule="evenodd" stroke="none"/>
    <path d="M-1.7 -0.1 L-1.7 -0.1 -1.65 -0.15 -1.6 -0.15 -1.55 -0.1 -1.55 -0.1 -1.55 -0.05 -1.6 -0.05 -1.55 0.0 -1.55 0.0 -1.6 0.05 -1.6 0.1 -1.65 0.1 -1.65 0.1 -1.7 0.05 -1.7 0.05 -1.75 -0.05 -1.75 -0.05 -1.7 -0.1 -1.7 -0.1 M-1.75 0.0 L-1.7 0.05 -1.75 0.0 -1.75 0.0 -1.75 0.0 M-1.6 0.1 L-1.6 0.1 M-1.55 0.0 L-1.55 0.0 M-1.55 -0.1 L-1.6 -0.1 -1.6 -0.1 -1.55 -0.1 M-1.6 0.9 L-1.55 0.9 -1.5 0.9 -1.55 0.95 -1.45 0.95 -1.45 1.0 -1.5 1.0 -1.5 1.0 -1.55 1.05 -1.55 1.05 -1.55 1.05 -1.5 1.05 -1.5 1.1 -1.55 1.1 -1.55 1.1 -1.55 1.1 -1.55 1.1 -1.6 1.1 -1.6 1.1 -1.65 1.1 -1.7 1.1 -1.7 1.1 -1.7 1.0 -1.65 0.95 -1.65 0.95 -1.6 0.9 M-1.45 0.95 L-1.45 0.95 -1.45 0.95 M-1.65 0.95 L-1.65 0.95" fill="#5c652e" fill-rule="evenodd" stroke="none"/>
    <path d="M-1.9 0.05 L-1.85 0.05 -1.85 0.05 -1.8 0.05 -1.8 0.05 -1.8 0.05 -1.8 0.15 -1.8 0.15 -1.85 0.1 -1.9 0.05 -1.9 0.05 M-1.3 -0.2 L-1.25 -0.2 -1.25 -0.2 -1.2 -0.2 -1.2 -0.2 -1.15 -0.1 -1.15 0.0 -1.15 0.0 -1.2 0.0 -1.2 0.05 -1.3 0.1 -1.4 0.05 -1.4 0.0 -1.35 0.0 -1.4 -0.05 -1.4 -0.05 -1.4 -0.1 -1.3 -0.2 M-1.85 0.05 L-1.85 0.05 -1.85 0.05 -1.8 0.05 -1.8 0.05 -1.85 0.05" fill="#505728" fill-rule="evenodd" stroke="none"/>
    <path d="M-0.15 0.25 L-0.15 0.35 -0.1 0.35 -0.05 0.45 -0.1 0.55 -0.15 0.6 -0.15 0.65 -0.2 0.65 -0.3 0.55 -0.35 0.45 -0.3 0.4 -0.3 0.35 -0.3 0.35 -0.25 0.3 -0.2 0.25 -0.2 0.25 -0.15 0.25 M-0.3 0.55 L-0.3 0.55 -0.3 0.55" fill="#98833e" fill-rule="evenodd" stroke="none"/>
    <path d="M-0.15 0.25 L-0.15 0.25 -0.15 0.25 -0.1 0.3 -0.05 0.35 -0.05 0.4 -0.05 0.45 -0.1 0.35 -0.15 0.35 -0.15 0.25 M-0.3 0.55 L-0.3 0.55 -0.2 0.65 -0.25 0.65 -0.25 0.65 -0.3 0.55 -0.3 0.55 M-0.15 0.6 L-0.1 0.55 -0.05 0.45 -0.05 0.45 -0.1 0.55 -0.15 0.6" fill="#4a401e" fill-rule="evenodd" stroke="none"/>
    <path d="M-0.4 0.35 L-0.35 0.35 -0.3 0.35 -0.3 0.4 -0.35 0.45 -0.3 0.55 -0.3 0.55 -0.35 0.5 -0.35 0.45 -0.4 0.45 -0.4 0.45 -0.4 0.4 -0.45 0.4 -0.5 0.4 -0.5 0.35 -0.5 0.3 -0.4 0.35 M-0.3 0.65 L-0.3 0.55 -0.3 0.55 -0.25 0.65 -0.25 0.7 -0.3 0.65 -0.3 0.65 M-0.5 0.35 L-0.5 0.35" fill="#bfa54e" fill-rule="evenodd" stroke="none"/>
    <path d="M-0.5 0.4 L-0.45 0.4 -0.4 0.45 -0.4 0.45 -0.35 0.45 -0.35 0.5 -0.3 0.55 -0.3 0.65 -0.4 0.6 -0.45 0.6 -0.5 0.55 -0.5 0.4 M-0.6 0.45 L-0.6 0.4 -0.6 0.5 -0.6 0.45 M-0.6 0.5 L-0.6 0.5 -0.6 0.5 -0.6 0.55 -0.6 0.55 -0.6 0.5 M-0.35 0.7 L-0.3 0.7 -0.3 0.7 -0.35 0.7 M-0.6 0.6 L-0.6 0.55 -0.55 0.6 -0.45 0.65 -0.4 0.7 -0.45 0.65 -0.55 0.6 -0.6 0.6" fill="#72622e" fill-rule="evenodd" stroke="none"/>
    <path d="M-0.35 0.5 L-0.35 0.45 -0.35 0.5 M-0.4 0.45 L-0.45 0.4 -0.4 0.4 -0.4 0.45 M-0.5 0.35 L-0.5 0.4 -0.55 0.4 -0.55 0.35 -0.5 0.35 M-0.6 0.5 L-0.6 0.5 -0.6 0.5 -0.6 0.5 M-0.6 0.6 L-0.55 0.6 -0.6 0.6 -0.6 0.6 M-0.35 0.75 L-0.35 0.75 -0.35 0.75" fill="#937e3c" fill-rule="evenodd" stroke="none"/>
    <path d="M-0.5 0.4 L-0.5 0.55 -0.45 0.6 -0.4 0.6 -0.3 0.65 -0.3 0.7 -0.35 0.7 -0.4 0.7 -0.45 0.6 -0.55 0.55 -0.6 0.55 -0.6 0.5 -0.6 0.4 -0.55 0.4 -0.5 0.4 M-0.6 0.5 L-0.6 0.5 M-0.3 0.65 L-0.3 0.65" fill="#c5aa50" fill-rule="evenodd" stroke="none"/>
    <path d="M-0.65 0.05 L-0.65 0.05 -0.65 0.05 -0.65 0.05 M-1.0 -0.25 L-1.0 -0.25 -1.0 -0.2 -1.0 -0.2 -1.0 -0.25 M-1.0 -0.1 L-0.95 -0.15 -0.95 -0.05 -0.95 -0.05 -0.85 0.05 -0.75 0.05 -0.8 0.05 -0.85 0.05 -0.9 0.05 -0.95 0.0 -0.95 -0.05 -1.0 -0.05 -1.0 -0.1 -1.0 -0.1 M-0.9 -0.25 L-0.95 -0.2 -0.95 -0.2 -0.95 -0.2 -0.95 -0.25 -0.9 -0.25 M-1.0 -0.05 L-1.0 -0.05 M-0.85 0.05 L-0.85 0.05 M-0.75 0.65 L-0.65 0.55 -0.6 0.55 -0.55 0.55 -0.45 0.6 -0.4 0.7 -0.35 0.7 -0.35 0.75 -0.45 0.75 -0.45 0.8 -0.6 0.8 -0.6 0.8 -0.65 0.8 -0.7 0.75 -0.75 0.65 -0.75 0.65 -0.75 0.65 -0.75 0.65 M-0.6 0.55 L-0.6 0.6 -0.6 0.6 -0.55 0.6 -0.45 0.65 -0.4 0.7 -0.45 0.65 -0.55 0.6 -0.6 0.55 M-0.35 0.75 L-0.35 0.75 M-0.35 0.7 L-0.35 0.7" fill="#655729" fill-rule="evenodd" stroke="none"/>
    <path d="M-0.4 0.85 L-0.35 0.85 -0.4 0.85 -0.4 0.85" fill="#857336" fill-rule="evenodd" stroke="none"/>
    <path d="M-0.65 1.05 L-0.7 1.05 -0.75 1.0 -0.7 0.85 -0.7 0.85 -0.7 0.85 -0.65 0.8 -0.65 0.8 -0.6 0.8 -0.6 0.8 -0.45 0.8 -0.45 0.75 -0.35 0.8 -0.35 0.8 -0.4 0.8 -0.4 0.85 -0.4 0.95 -0.5 1.0 -0.6 1.05 -0.65 1.05 M-0.4 0.85 L-0.4 0.85 M-0.4 0.8 L-0.4 0.8" fill="#c3a850" fill-rule="evenodd" stroke="none"/>
    <path d="M-0.65 -0.3 L-0.6 -0.35 -0.6 -0.35 -0.6 -0.3 -0.65 -0.3 -0.65 -0.3 -0.65 -0.3 M-0.4 1.05 L-0.4 1.05 -0.4 1.15 -0.45 1.15 -0.5 1.15 -0.5 1.2 -0.65 1.2 -0.65 1.05 -0.6 1.05 -0.5 1.0 -0.4 0.95 -0.4 0.85 -0.35 0.85 -0.35 0.9 -0.35 0.95 -0.4 1.05 M-0.5 -0.35 L-0.6 -0.35 -0.5 -0.4 -0.5 -0.35" fill="#8f7b3a" fill-rule="evenodd" stroke="none"/>
    <path d="M-0.4 0.8 L-0.35 0.8 -0.4 0.8 -0.4 0.8" fill="#927e3c" fill-rule="evenodd" stroke="none"/>
    <path d="M-0.35 0.9 L-0.35 0.95 -0.35 0.9" fill="#756530" fill-rule="evenodd" stroke="none"/>
    <path d="M-0.45 1.15 L-0.45 1.15 -0.5 1.15 -0.45 1.15" fill="#f1cf62" fill-rule="evenodd" stroke="none"/>
    <path d="M-1.05 0.35 L-1.05 0.35 -1.05 0.35 -1.0 0.35 -1.0 0.35 -1.05 0.35" fill="#3f451f" fill-rule="evenodd" stroke="none"/>
    <path d="M-1.6 0.75 L-1.6 0.75 -1.6 0.75 -1.65 0.75 -1.65 0.75 -1.6 0.7 -1.6 0.7 -1.55 0.75 -1.6 0.75 -1.6 0.75 -1.6 0.75 M-1.7 0.8 L-1.7 0.8 -1.7 0.8 -1.65 0.8 -1.6 0.8 -1.6 0.8 -1.7 0.8 M-1.6 0.8 L-1.6 0.8" fill="#2e3217" fill-rule="evenodd" stroke="none"/>
    <path d="M-1.35 0.3 L-1.35 0.3 -1.35 0.3 -1.35 0.3 -1.35 0.3 -1.35 0.3 -1.35 0.3 M-1.4 0.35 L-1.35 0.35 -1.35 0.35 -1.4 0.35 -1.4 0.35 M-1.7 0.25 L-1.7 0.25 -1.65 0.3 -1.7 0.3 -1.7 0.25 -1.7 0.25 -1.75 0.2 -1.7 0.2 -1.7 0.2 -1.7 0.25 M-1.7 0.3 L-1.7 0.3" fill="#34391a" fill-rule="evenodd" stroke="none"/>
    <path d="M-1.8 1.2 L-1.85 1.15 -1.85 1.1 -1.9 1.05 -1.85 0.95 -1.8 0.95 -1.75 0.95 -1.75 1.0 -1.8 1.0 -1.8 1.15 -1.8 1.2" fill="#262913" fill-rule="evenodd" stroke="none"/>
    <path d="M-1.15 -0.3 L-1.15 -0.4 -1.1 -0.3 -1.15 -0.25 -1.15 -0.3 M-1.1 -0.3 L-1.1 -0.3 M-2.05 0.15 L-2.0 0.15 -2.15 0.2 -2.15 0.15 -2.1 0.15 -2.05 0.15 M-2.0 0.25 L-2.05 0.25 -2.0 0.3 -2.05 0.3 -2.1 0.25 -2.15 0.25 -2.15 0.2 -2.0 0.25" fill="#363b1b" fill-rule="evenodd" stroke="none"/>
    <path d="M-1.35 1.25 L-1.4 1.25 -1.4 1.25 -1.4 1.15 -1.4 1.2 -1.35 1.25 -1.35 1.25 -1.3 1.2 -1.3 1.15 -1.3 1.05 -1.3 1.05 -1.25 1.05 -1.2 1.1 -1.15 1.2 -1.2 1.25 -1.25 1.3 -1.25 1.35 -1.35 1.3 -1.35 1.25 -1.35 1.25 M-1.25 0.7 L-1.2 0.7 -1.2 0.75 -1.2 0.8 -1.25 0.8 -1.25 0.75 -1.25 0.7 M-1.25 0.8 L-1.25 0.8 M-1.2 0.75 L-1.2 0.75 M-1.25 1.05 L-1.25 1.05" fill="#282c14" fill-rule="evenodd" stroke="none"/>
    <path d="M-1.6 0.75 L-1.6 0.75 -1.55 0.75 -1.6 0.75 M-1.5 0.85 L-1.5 0.8 -1.5 0.85 -1.5 0.85" fill="#5c3623" fill-rule="evenodd" stroke="none"/>
    <path d="M-1.55 0.0 L-1.55 0.0 -1.55 0.0 -1.5 0.0 -1.5 0.0 -1.55 0.0 M-1.4 1.0 L-1.4 1.05 -1.4 1.1 -1.45 1.1 -1.45 1.15 -1.45 1.1 -1.4 1.05 -1.4 1.0 M-1.45 1.15 L-1.45 1.15 -1.45 1.15 M-1.4 1.1 L-1.4 1.1" fill="#2a2e15" fill-rule="evenodd" stroke="none"/>
    <path d="M-1.7 0.95 L-1.65 0.95 -1.65 0.95 -1.65 0.95 -1.7 0.95 -1.7 0.95 M-1.4 1.0 L-1.4 1.0 -1.4 1.0 -1.4 1.0 -1.4 1.05 -1.45 1.1 -1.45 1.05 -1.4 1.05 -1.4 1.0" fill="#2b2f15" fill-rule="evenodd" stroke="none"/>
    <path d="M-1.6 0.8 L-1.6 0.8 -1.65 0.95 -1.55 0.9 -1.55 0.9 -1.6 0.9 -1.6 0.9 -1.65 0.95 -1.65 0.95 -1.7 0.95 -1.75 0.95 -1.7 0.9 -1.7 0.85 -1.7 0.85 -1.65 0.85 -1.65 0.85 -1.6 0.8 M-1.55 0.85 L-1.5 0.85 -1.55 0.85 -1.55 0.85 -1.55 0.9 -1.55 0.85 M-1.55 0.9 L-1.55 0.9 -1.55 0.9 M-1.7 0.95 L-1.7 0.95 M-1.45 1.05 L-1.45 1.0 -1.4 1.0 -1.4 1.0 -1.4 1.0 -1.45 1.0 -1.4 1.0 -1.4 1.05 -1.45 1.05 -1.45 1.05" fill="#2d3216" fill-rule="evenodd" stroke="none"/>
    <path d="M-1.4 1.25 L-1.4 1.3 -1.45 1.35 -1.5 1.45 -1.55 1.45 -1.5 1.4 -1.55 1.35 -1.5 1.35 -1.5 1.25 -1.45 1.2 -1.45 1.2 -1.4 1.25 M-1.55 1.35 L-1.55 1.35" fill="#303418" fill-rule="evenodd" stroke="none"/>
    <path d="M-1.3 1.35 L-1.3 1.4 -1.35 1.5 -1.4 1.4 -1.35 1.25 -1.35 1.3 -1.3 1.35 M-1.0 -0.2 L-1.0 -0.2 -1.05 -0.25 -1.0 -0.25 -1.0 -0.2 M-1.35 1.25 L-1.35 1.25" fill="#434921" fill-rule="evenodd" stroke="none"/>
    <path d="M-1.6 0.75 L-1.65 0.75 -1.65 0.75 -1.65 0.75 -1.6 0.75 -1.6 0.75 M-1.65 0.75 L-1.65 0.75" fill="#323619" fill-rule="evenodd" stroke="none"/>
    <path d="M-2.0 0.3 L-2.0 0.35 -1.95 0.3 -1.95 0.35 -2.0 0.35 -1.95 0.35 -2.05 0.35 -2.05 0.4 -2.1 0.4 -2.05 0.35 -2.0 0.35 -2.0 0.35 -2.05 0.35 -2.05 0.3 -2.0 0.3 M-1.7 0.85 L-1.7 0.85 -1.7 0.85 -1.7 0.85 -1.75 0.85 -1.7 0.85 -1.7 0.85 M-1.8 0.95 L-1.95 0.95 -1.9 0.9 -1.85 0.9 -1.85 0.85 -1.8 0.85 -1.85 0.9 -1.8 0.95" fill="#434a21" fill-rule="evenodd" stroke="none"/>
    <path d="M-1.55 0.0 L-1.55 0.0 -1.6 -0.05 -1.55 -0.05 -1.55 -0.1 -1.55 -0.1 -1.5 -0.05 -1.55 -0.1 -1.55 -0.1 -1.55 -0.1 -1.5 -0.1 -1.45 -0.05 -1.5 -0.05 -1.5 0.0 -1.55 0.0 M-1.5 -0.1 L-1.5 -0.1 M-1.45 -0.05 L-1.45 -0.1 -1.45 -0.05 M-1.7 0.85 L-1.7 0.85 -1.7 0.85 -1.75 0.85 -1.7 0.85 -1.7 0.85 -1.7 0.85 M-1.75 0.95 L-1.7 0.95 -1.7 0.95 -1.7 0.95 -1.75 0.95 -1.75 1.0 -1.75 0.95 M-1.7 0.95 L-1.7 0.95 -1.7 0.95 M-1.45 0.9 L-1.35 0.95 -1.35 0.95 -1.35 0.95 -1.4 0.95 -1.4 0.95 -1.35 0.95 -1.4 0.95 -1.45 0.95 -1.45 0.9" fill="#5e3724" fill-rule="evenodd" stroke="none"/>
    <path d="M-1.6 -0.25 L-1.6 -0.25 -1.6 -0.2 -1.6 -0.25" fill="#3c411e" fill-rule="evenodd" stroke="none"/>
    <path d="M-1.4 -0.2 L-1.35 -0.3 -1.3 -0.3 -1.3 -0.2 -1.35 -0.2 -1.35 -0.2 -1.4 -0.2 -1.4 -0.15 -1.4 -0.2 M-1.2 -0.3 L-1.2 -0.25 -1.2 -0.25 -1.25 -0.2 -1.25 -0.25 -1.25 -0.3 -1.2 -0.3" fill="#5b632d" fill-rule="evenodd" stroke="none"/>
    <path d="M-0.85 0.15 L-0.85 0.15 -0.85 0.15 -0.85 0.25 -0.85 0.25 -0.9 0.3 -0.95 0.35 -1.0 0.35 -0.95 0.3 -0.95 0.3 -0.95 0.25 -0.9 0.25 -0.9 0.15 -0.85 0.15 M-0.9 0.15 L-0.9 0.15" fill="#424921" fill-rule="evenodd" stroke="none"/>
    <path d="M-2.4 0.4 L-2.45 0.4 -2.45 0.3 -2.4 0.25 -2.4 0.25 -2.35 0.25 -2.35 0.25 -2.3 0.3 -2.25 0.35 -2.2 0.4 -2.25 0.4 -2.3 0.45 -2.35 0.45 -2.4 0.4 M-1.95 -0.2 L-2.0 -0.2 -1.95 -0.2 -1.9 -0.15 -1.95 -0.2 -1.95 -0.2 M-1.3 0.25 L-1.3 0.3 -1.3 0.25 M-1.35 0.3 L-1.35 0.35 -1.35 0.3 -1.35 0.3 -1.35 0.3 M-2.3 0.3 L-2.3 0.3" fill="#575f2b" fill-rule="evenodd" stroke="none"/>
    <path d="M-1.3 0.2 L-1.3 0.2 -1.3 0.2 -1.3 0.25 -1.3 0.25 -1.3 0.25 -1.3 0.25 -1.3 0.2 M-1.35 0.3 L-1.35 0.3 -1.35 0.3 -1.35 0.3 M-1.3 0.25 L-1.35 0.2 -1.3 0.25" fill="#202310" fill-rule="evenodd" stroke="none"/>
    <path d="M-1.5 0.3 L-1.4 0.3 -1.4 0.35 -1.4 0.35 -1.4 0.35 -1.45 0.35 -1.5 0.3 -1.5 0.35 -1.5 0.35 -1.5 0.3 -1.5 0.3 M-1.4 0.3 L-1.4 0.3" fill="#613925" fill-rule="evenodd" stroke="none"/>
    <path d="M-1.8 -0.1 L-1.8 -0.1 -1.8 -0.1 -1.8 -0.1 M-1.75 -0.05 L-1.75 -0.05 -1.7 0.05 -1.7 0.05 -1.75 0.0 -1.75 -0.05 M-1.6 0.1 L-1.6 0.05 -1.55 0.0 -1.55 0.0 -1.5 0.0 -1.5 0.05 -1.5 0.05 -1.55 0.05 -1.5 0.05 -1.5 0.05 -1.45 0.05 -1.45 0.05 -1.35 0.15 -1.45 0.1 -1.5 0.05 -1.55 0.05 -1.55 0.05 -1.55 0.05 -1.6 0.1 M-1.75 0.0 L-1.75 0.0 M-2.15 0.15 L-2.15 0.15 -2.2 0.25 -2.25 0.25 -2.25 0.2 -2.15 0.15 -2.15 0.15" fill="#4b5225" fill-rule="evenodd" stroke="none"/>
    <path d="M-1.5 -0.1 L-1.5 -0.1 -1.5 -0.2 -1.55 -0.2 -1.5 -0.2 -1.5 -0.2 -1.45 -0.15 -1.45 -0.05 -1.45 -0.1 -1.5 -0.15 -1.5 -0.1 M-1.45 -0.05 L-1.45 -0.05 -1.45 0.0 -1.45 0.0 -1.5 0.0 -1.5 -0.05 -1.45 -0.05 M-1.35 0.3 L-1.35 0.3 -1.35 0.3 -1.35 0.3 M-1.95 0.35 L-2.0 0.35 -1.95 0.35 -1.95 0.35 M-2.05 0.35 L-2.0 0.35 -2.0 0.35 -2.05 0.35 -2.1 0.35 -2.05 0.35" fill="#353a1a" fill-rule="evenodd" stroke="none"/>
    <path d="M-1.75 0.2 L-1.75 0.15 -1.8 0.15 -1.75 0.15 -1.75 0.2 M-1.8 0.15 L-1.8 0.15 -1.8 0.15 -1.8 0.15 -1.8 0.15" fill="#3e431f" fill-rule="evenodd" stroke="none"/>
    <path d="M-1.7 -0.2 L-1.65 -0.2 -1.6 -0.2 -1.6 -0.15 -1.65 -0.15 -1.7 -0.1 -1.7 -0.1 -1.75 -0.2 -1.75 -0.2 -1.75 -0.2 -1.75 -0.2 -1.7 -0.2 -1.7 -0.2" fill="#313518" fill-rule="evenodd" stroke="none"/>
    <path d="M-1.9 0.45 L-1.9 0.5 -1.9 0.45 M-1.9 0.5 L-1.9 0.5" fill="#626c31" fill-rule="evenodd" stroke="none"/>
    <path d="M-1.8 0.05 L-1.8 0.15 -1.75 0.15 -1.8 0.15 -1.8 0.05 -1.8 0.05 M-1.8 0.15 L-1.8 0.15 M-1.8 0.55 L-1.75 0.55 -1.8 0.55 -1.8 0.55" fill="#623926" fill-rule="evenodd" stroke="none"/>
    <path d="M-1.95 0.8 L-1.95 0.8 -2.05 0.85 -2.1 0.8 -2.1 0.8 -2.05 0.7 -2.0 0.65 -2.0 0.7 -2.0 0.75 -1.95 0.8 M-2.15 0.7 L-2.15 0.65 -2.1 0.55 -2.1 0.55 -2.1 0.6 -2.05 0.6 -2.1 0.6 -2.15 0.65 -2.15 0.7" fill="#393f1c" fill-rule="evenodd" stroke="none"/>
    <path d="M-1.95 0.85 L-1.95 0.8 -2.0 0.75 -2.0 0.7 -1.9 0.7 -1.8 0.8 -1.85 0.8 -1.8 0.8 -1.7 0.8 -1.7 0.8 -1.75 0.85 -1.75 0.85 -1.8 0.85 -1.8 0.85 -1.9 0.85 -1.95 0.85 M-1.6 0.9 L-1.6 0.9 -1.55 0.9 -1.6 0.9 M-1.5 0.9 L-1.55 0.9 -1.55 0.9 -1.5 0.9 -1.5 0.9 -1.45 0.85 -1.4 0.85 -1.4 0.85 -1.35 0.85 -1.4 0.9 -1.45 0.9 -1.5 0.9 M-1.55 0.9 L-1.55 0.9" fill="#77823b" fill-rule="evenodd" stroke="none"/>
    <path d="M-1.65 -0.2 L-1.6 -0.2 -1.65 -0.2 M-1.6 -0.15 L-1.6 -0.2 -1.6 -0.15 M-1.6 -0.2 L-1.6 -0.2 M-1.65 1.15 L-1.6 1.15 -1.6 1.15 -1.6 1.2 -1.6 1.3 -1.65 1.35 -1.65 1.3 -1.65 1.15 M-1.65 1.35 L-1.65 1.35 -1.65 1.35" fill="#525929" fill-rule="evenodd" stroke="none"/>
    <path d="M-1.45 0.0 L-1.45 0.05 -1.5 0.05 -1.5 0.05 -1.5 0.0 -1.45 0.0 -1.45 0.0 M-1.5 0.0 L-1.5 0.0" fill="#5f3724" fill-rule="evenodd" stroke="none"/>
    <path d="M-1.85 0.0 L-1.85 0.0 -1.9 -0.05 -1.85 0.0 -1.8 0.0 -1.8 0.0 -1.75 0.0 -1.75 0.05 -1.8 0.05 -1.8 0.05 -1.85 0.05 -1.85 0.0 M-1.85 0.05 L-1.85 0.05" fill="#6e7937" fill-rule="evenodd" stroke="none"/>
    <path d="M-2.35 0.25 L-2.45 0.15 -2.4 0.0 -2.35 0.0 -2.35 -0.05 -2.25 0.0 -2.2 0.05 -2.15 0.1 -2.15 0.15 -2.15 0.15 -2.25 0.2 -2.25 0.25 -2.25 0.3 -2.3 0.3 -2.35 0.25 -2.35 0.25 -2.35 0.25 M-1.9 -0.05 L-1.9 -0.05 -1.9 -0.05 -1.9 -0.05 M-1.8 0.0 L-1.75 0.0 -1.8 0.0 -1.8 0.0 M-1.75 0.0 L-1.75 0.0 M-1.05 0.55 L-1.0 0.55 -1.0 0.55 -1.05 0.7 -1.1 0.75 -1.15 0.75 -1.15 0.75 -1.2 0.75 -1.2 0.7 -1.2 0.65 -1.1 0.65 -1.1 0.65 -1.0 0.65 -1.05 0.55 M-1.1 0.75 L-1.1 0.75 M-1.2 0.75 L-1.2 0.75 M-2.2 0.05 L-2.2 0.05" fill="#454b22" fill-rule="evenodd" stroke="none"/>
    <path d="M-2.25 0.45 L-2.3 0.45 -2.35 0.45 -2.4 0.4 -2.35 0.45 -2.3 0.45 -2.25 0.4 -2.25 0.45 M-2.4 0.25 L-2.4 0.25 -2.35 0.25 -2.4 0.25 M-1.55 0.05 L-1.55 0.05 -1.55 0.05 -1.55 0.05 M-2.25 0.3 L-2.3 0.3 -2.3 0.3 -2.25 0.3 M-2.35 0.25 L-2.35 0.25" fill="#292d14" fill-rule="evenodd" stroke="none"/>
    <path d="M-0.95 -0.25 L-0.9 -0.3 -0.9 -0.3 -0.9 -0.25 -0.95 -0.25" fill="#897638" fill-rule="evenodd" stroke="none"/>
    <path d="M-1.0 -0.25 L-1.0 -0.25 -0.95 -0.25 -0.9 -0.25 -0.9 -0.25 -0.95 -0.25 -0.95 -0.2 -1.0 -0.2 -1.0 -0.25 M-1.0 -0.2 L-1.0 -0.2" fill="#534722" fill-rule="evenodd" stroke="none"/>
    <path d="M-1.0 -0.2 L-1.0 -0.2 -1.0 -0.2 -1.0 -0.2 -1.0 -0.2" fill="#4d421f" fill-rule="evenodd" stroke="none"/>
    <path d="M-1.0 -0.2 L-1.0 -0.2 -0.95 -0.2 -0.95 -0.15 -1.0 -0.1 -1.0 -0.2 M-0.95 -0.2 L-0.95 -0.2" fill="#695a2b" fill-rule="evenodd" stroke="none"/>
    <path d="M-0.85 0.15 L-0.8 0.15 -0.8 0.15 -0.85 0.15 -0.9 0.15 -0.85 0.15 M-0.8 0.15 L-0.8 0.15 M-0.9 0.15 L-0.9 0.15" fill="#362e16" fill-rule="evenodd" stroke="none"/>
    <path d="M-0.65 -0.05 L-0.6 0.0 -0.6 0.0 -0.65 -0.05 M-0.5 -0.05 L-0.55 -0.05 -0.5 -0.05 M-0.55 -0.05 L-0.55 -0.05 M-0.85 0.15 L-0.85 0.15 -0.9 0.15 -0.8 0.15 -0.85 0.15 M-0.95 0.15 L-0.9 0.15 -0.95 0.15 -0.95 0.15" fill="#564a23" fill-rule="evenodd" stroke="none"/>
    <path d="M-0.75 0.15 L-0.75 0.2 -0.8 0.35 -0.85 0.35 -0.85 0.3 -0.8 0.3 -0.8 0.25 -0.8 0.15 -0.8 0.25 -0.85 0.25 -0.85 0.15 -0.85 0.15 -0.8 0.15 -0.8 0.15 -0.75 0.15 M-0.8 0.35 L-0.8 0.35 M-0.85 0.25 L-0.85 0.25" fill="#656e32" fill-rule="evenodd" stroke="none"/>
    <path d="M-1.45 -0.05 L-1.5 -0.1 -1.5 -0.15 -1.45 -0.1 -1.45 -0.05 -1.45 -0.05 -1.45 0.0 -1.45 -0.05 M-1.45 0.05 L-1.45 0.0 -1.45 0.05 -1.45 0.05 -1.45 0.05 -1.45 0.05 M-0.7 0.45 L-0.8 0.55 -0.8 0.4 -0.75 0.4 -0.7 0.3 -0.7 0.35 -0.7 0.4 -0.7 0.45 M-1.45 0.8 L-1.45 0.8 -1.4 0.8 -1.4 0.85 -1.45 0.85 -1.5 0.85 -1.5 0.8 -1.45 0.8 M-1.55 0.9 L-1.55 0.85 -1.55 0.9 -1.55 0.85 -1.5 0.85 -1.55 0.9 M-1.45 0.85 L-1.45 0.85" fill="#464d23" fill-rule="evenodd" stroke="none"/>
    <path d="M-1.35 0.25 L-1.4 0.25 -1.4 0.2 -1.35 0.2 -1.35 0.2 -1.3 0.25 -1.3 0.3 -1.3 0.35 -1.35 0.35 -1.35 0.3 -1.35 0.25 M-1.35 0.3 L-1.35 0.3 -1.35 0.3 -1.35 0.3 M-1.4 0.25 L-1.4 0.25 M-1.6 0.8 L-1.65 0.8 -1.7 0.8 -1.7 0.8 -1.65 0.8 -1.6 0.8 -1.55 0.8 -1.55 0.85 -1.6 0.85 -1.6 0.8" fill="#3a3f1d" fill-rule="evenodd" stroke="none"/>
    <path d="M-1.35 0.35 L-1.35 0.4 -1.35 0.35 -1.4 0.4 -1.4 0.4 -1.4 0.4 -1.45 0.4 -1.4 0.45 -1.45 0.4 -1.45 0.45 -1.45 0.4 -1.5 0.4 -1.5 0.4 -1.5 0.35 -1.5 0.35 -1.45 0.35 -1.45 0.35 -1.4 0.35 -1.4 0.35 -1.35 0.35 -1.35 0.35 M-1.35 0.4 L-1.35 0.4 M-1.5 0.4 L-1.5 0.4 M-1.45 0.45 L-1.45 0.45 M-1.5 0.35 L-1.5 0.35" fill="#4f5727" fill-rule="evenodd" stroke="none"/>
    <path d="M-1.55 0.2 L-1.55 0.25 -1.5 0.25 -1.55 0.25 -1.6 0.25 -1.6 0.2 -1.55 0.2 M-1.7 0.25 L-1.7 0.25 -1.7 0.2 -1.7 0.25 M-1.9 0.5 L-1.8 0.55 -1.8 0.6 -1.8 0.65 -1.85 0.7 -1.9 0.7 -2.0 0.7 -2.0 0.65 -2.05 0.6 -2.0 0.6 -1.95 0.55 -1.9 0.55 -1.9 0.5 -1.9 0.5 M-1.85 0.7 L-1.85 0.7 M-1.8 0.55 L-1.8 0.55" fill="#2c3016" fill-rule="evenodd" stroke="none"/>
    <path d="M-1.7 0.2 L-1.7 0.15 -1.65 0.1 -1.6 0.15 -1.6 0.15 -1.6 0.2 -1.6 0.25 -1.65 0.25 -1.65 0.25 -1.7 0.25 -1.7 0.2 M-1.7 0.25 L-1.7 0.25" fill="#653b27" fill-rule="evenodd" stroke="none"/>
    <path d="M-1.0 0.45 L-1.0 0.45 -0.95 0.45 -1.0 0.45 -1.0 0.45 M-0.9 0.5 L-0.95 0.45 -0.95 0.45 -0.9 0.5 -0.9 0.55 -0.9 0.5 M-1.0 0.4 L-1.05 0.35 -1.0 0.35 -1.0 0.4" fill="#58602c" fill-rule="evenodd" stroke="none"/>
    <path d="M-1.5 0.8 L-1.45 0.8 -1.4 0.75 -1.35 0.8 -1.4 0.8 -1.45 0.8 -1.5 0.8 -1.5 0.8 -1.5 0.8 M-1.25 0.85 L-1.25 0.9 -1.25 0.9 -1.3 0.95 -1.35 0.95 -1.45 0.9 -1.5 0.85 -1.45 0.85 -1.45 0.9 -1.45 0.9 -1.45 0.9 -1.45 0.9 -1.4 0.9 -1.35 0.85 -1.4 0.85 -1.35 0.8 -1.3 0.85 -1.3 0.8 -1.3 0.8 -1.25 0.75 -1.25 0.8 -1.25 0.85 -1.25 0.85 M-1.35 0.95 L-1.35 0.95 -1.35 0.95 M-1.4 0.75 L-1.4 0.75" fill="#7d893e" fill-rule="evenodd" stroke="none"/>
    <path d="M-1.5 0.9 L-1.5 0.9 -1.45 0.9 -1.45 0.9 -1.45 0.95 -1.55 0.95 -1.5 0.9 -1.5 0.9 -1.45 0.9 -1.45 0.85 -1.5 0.9 M-1.45 0.85 L-1.45 0.85 M-1.4 0.8 L-1.35 0.8 -1.35 0.8 -1.4 0.85 -1.4 0.85 -1.4 0.8 M-1.4 1.05 L-1.35 1.05 -1.35 1.05 -1.3 1.1 -1.35 1.2 -1.35 1.25 -1.35 1.25 -1.4 1.2 -1.4 1.15 -1.4 1.15 -1.4 1.1 -1.4 1.05 M-1.4 1.15 L-1.4 1.15 M-1.35 1.0 L-1.35 1.05 -1.35 1.0" fill="#555d2a" fill-rule="evenodd" stroke="none"/>
    <path d="M-1.6 0.8 L-1.6 0.8 -1.55 0.8 -1.6 0.8 -1.6 0.85 -1.55 0.85 -1.55 0.85 -1.55 0.9 -1.55 0.9 -1.65 0.95 -1.6 0.8 M-1.55 0.85 L-1.55 0.85" fill="#5b642d" fill-rule="evenodd" stroke="none"/>
    <path d="M-1.5 1.05 L-1.55 1.05 -1.55 1.05 -1.55 1.05 -1.5 1.0 -1.5 1.0 -1.45 1.0 -1.45 1.0 -1.4 1.0 -1.45 1.0 -1.5 1.05 -1.5 1.05 -1.5 1.05 M-1.35 0.95 L-1.35 0.95 -1.4 0.95 -1.35 0.95" fill="#6f7937" fill-rule="evenodd" stroke="none"/>
    <path d="M-1.65 1.1 L-1.6 1.1 -1.6 1.1 -1.55 1.1 -1.55 1.1 -1.55 1.1 -1.55 1.2 -1.55 1.15 -1.6 1.15 -1.6 1.15 -1.6 1.15 -1.65 1.15 -1.65 1.15 -1.65 1.1 M-1.45 1.0 L-1.45 0.95 -1.45 1.0 -1.45 1.05 -1.45 1.05 -1.5 1.1 -1.5 1.15 -1.55 1.2 -1.55 1.15 -1.5 1.1 -1.5 1.05 -1.5 1.05 -1.5 1.05 -1.5 1.05 -1.45 1.0 -1.45 1.0 M-1.5 1.15 L-1.5 1.15 -1.5 1.15" fill="#404720" fill-rule="evenodd" stroke="none"/>
    <path d="M-1.65 1.1 L-1.65 1.15 -1.65 1.15 -1.65 1.15 -1.75 1.15 -1.7 1.1 -1.65 1.1 M-1.5 1.05 L-1.5 1.05 -1.5 1.05" fill="#666f33" fill-rule="evenodd" stroke="none"/>
    <path d="M-1.85 0.7 L-1.85 0.7 -1.8 0.7 -1.8 0.7 -1.75 0.7 -1.75 0.75 -1.7 0.75 -1.65 0.75 -1.75 0.75 -1.8 0.7 -1.85 0.7 M-1.7 0.75 L-1.7 0.75" fill="#6b7535" fill-rule="evenodd" stroke="none"/>
    <path d="M-1.85 0.7 L-1.8 0.65 -1.8 0.6 -1.8 0.6 -1.8 0.6 -1.75 0.65 -1.75 0.7 -1.8 0.7 -1.8 0.7 -1.85 0.7 M-1.65 0.75 L-1.7 0.75 -1.65 0.75 -1.65 0.75 M-1.7 0.75 L-1.7 0.75" fill="#737e39" fill-rule="evenodd" stroke="none"/>
    <path d="M-1.6 0.8 L-1.6 0.75 -1.6 0.75 -1.55 0.75 -1.6 0.8 M-1.55 0.75 L-1.55 0.75" fill="#693d28" fill-rule="evenodd" stroke="none"/>
    <path d="M-1.75 0.85 L-1.75 0.85 -1.7 0.85 -1.7 0.85 -1.7 0.9 -1.75 0.95 -1.7 0.95 -1.7 0.95 -1.75 0.95 -1.8 0.95 -1.85 0.9 -1.8 0.85 -1.8 0.85 -1.8 0.85 -1.75 0.85 M-1.8 0.95 L-1.8 0.95" fill="#5f3825" fill-rule="evenodd" stroke="none"/>
    <path d="M-1.7 1.1 L-1.7 1.1 -1.65 1.1 -1.7 1.1 -1.7 1.1" fill="#707a38" fill-rule="evenodd" stroke="none"/>
    <path d="M-0.95 -0.2 L-0.95 -0.2 -0.95 -0.2 -0.95 -0.2 M-0.95 -0.05 L-0.95 -0.05 -0.95 -0.15 -0.95 -0.1 -0.95 -0.05" fill="#605227" fill-rule="evenodd" stroke="none"/>
    <path d="M-0.85 0.05 L-0.85 0.05 -0.85 0.05" fill="#bea44e" fill-rule="evenodd" stroke="none"/>
    <path d="M-0.7 0.1 L-0.7 0.1 -0.7 0.1" fill="#867337" fill-rule="evenodd" stroke="none"/>
    <path d="M-0.65 0.05 L-0.65 0.1 -0.7 0.1 -0.7 0.05 -0.65 0.05 -0.65 0.05" fill="#5e5126" fill-rule="evenodd" stroke="none"/>
    <path d="M-0.65 0.05 L-0.65 0.05 -0.65 0.05 -0.65 0.05 M-0.7 0.1 L-0.7 0.1 -0.75 0.1 -0.75 0.15 -0.8 0.15 -0.9 0.15 -0.95 0.15 -0.9 0.05 -0.8 0.1 -0.8 0.05 -0.75 0.05 -0.7 0.05 -0.7 0.1 -0.7 0.1 M-0.8 0.15 L-0.8 0.15" fill="#827035" fill-rule="evenodd" stroke="none"/>
    <path d="M-0.7 -0.05 L-0.65 -0.05 -0.7 0.0 -0.7 -0.05 M-0.55 -0.05 L-0.55 -0.1 -0.55 -0.15 -0.6 -0.25 -0.65 -0.3 -0.6 -0.3 -0.6 -0.35 -0.5 -0.35 -0.45 -0.35 -0.45 -0.3 -0.45 -0.2 -0.5 -0.1 -0.5 -0.1 -0.5 -0.1 -0.55 -0.05 -0.55 -0.05 M-0.95 0.0 L-0.9 0.05 -0.85 0.05 -0.8 0.05 -0.8 0.1 -0.9 0.05 -0.9 0.05 -0.95 0.05 -0.95 0.05 -0.95 0.0 M-0.85 0.05 L-0.85 0.05" fill="#67592a" fill-rule="evenodd" stroke="none"/>
    <path d="M-1.4 -0.1 L-1.4 -0.1 -1.4 -0.05 -1.4 -0.1 M-1.35 -0.2 L-1.3 -0.2 -1.35 -0.2 M-1.25 -0.2 L-1.25 -0.2 -1.3 -0.2 -1.25 -0.25 -1.25 -0.2 -1.2 -0.2 -1.25 -0.2 M-1.4 -0.05 L-1.4 -0.05 -1.4 -0.05" fill="#b79d4b" fill-rule="evenodd" stroke="none"/>
    <path d="M-1.05 -0.05 L-1.05 -0.05 -1.05 -0.05 -1.05 -0.05 -1.05 -0.05" fill="#bca24d" fill-rule="evenodd" stroke="none"/>
    <path d="M-1.05 -0.05 L-1.05 -0.05 -1.05 -0.05 -1.0 -0.1 -1.0 -0.05 -1.0 -0.05 -1.05 -0.05 M-1.0 -0.05 L-1.0 -0.05" fill="#8c7839" fill-rule="evenodd" stroke="none"/>
    <path d="M-0.85 0.25 L-0.8 0.25 -0.8 0.15 -0.8 0.25 -0.8 0.3 -0.85 0.3 -0.85 0.25 M-0.85 0.3 L-0.85 0.3" fill="#3a401d" fill-rule="evenodd" stroke="none"/>
    <path d="M-1.05 -0.05 L-1.05 -0.05 -1.0 -0.05 -1.0 -0.05 -0.95 -0.05 -0.95 0.0 -0.95 0.05 -1.0 0.0 -1.05 0.0 -1.05 0.0 -1.05 -0.05 M-1.0 -0.05 L-1.0 0.0 -1.0 -0.05 M-1.3 0.2 L-1.25 0.2 -1.3 0.25 -1.3 0.2" fill="#d2b456" fill-rule="evenodd" stroke="none"/>
    <path d="M-1.15 0.0 L-1.15 0.05 -1.1 0.05 -1.1 0.1 -1.1 0.15 -1.15 0.2 -1.1 0.15 -1.1 0.1 -1.1 0.1 -1.1 0.25 -1.15 0.2 -1.15 0.15 -1.2 0.15 -1.2 0.1 -1.2 0.05 -1.2 0.0 -1.15 0.0" fill="#626b31" fill-rule="evenodd" stroke="none"/>
    <path d="M-0.95 0.15 L-0.9 0.15 -0.9 0.15 -0.95 0.15 M-0.9 0.15 L-0.9 0.15 M-1.3 0.3 L-1.25 0.3 -1.3 0.3 -1.3 0.3" fill="#857236" fill-rule="evenodd" stroke="none"/>
    <path d="M-1.4 0.4 L-1.35 0.35 -1.35 0.4 -1.4 0.4" fill="#625528" fill-rule="evenodd" stroke="none"/>
    <path d="M-0.95 0.3 L-1.0 0.35 -1.05 0.35 -1.05 0.35 -1.05 0.35 -0.95 0.3 M-1.4 0.45 L-1.4 0.45 -1.45 0.45 -1.4 0.45 M-1.35 0.6 L-1.35 0.65 -1.25 0.65 -1.25 0.65 -1.25 0.7 -1.25 0.7 -1.25 0.75 -1.3 0.8 -1.3 0.8 -1.4 0.75 -1.35 0.7 -1.35 0.6 M-1.45 0.45 L-1.45 0.45 M-1.0 0.35 L-1.0 0.35 M-1.4 0.75 L-1.4 0.75" fill="#a18b42" fill-rule="evenodd" stroke="none"/>
    <path d="M-1.3 0.25 L-1.3 0.2 -1.3 0.25" fill="#a79044" fill-rule="evenodd" stroke="none"/>
    <path d="M-1.1 0.55 L-1.1 0.55 -1.05 0.55 -1.0 0.65 -1.1 0.65 -1.1 0.55" fill="#6d5e2c" fill-rule="evenodd" stroke="none"/>
    <path d="M-1.5 0.4 L-1.5 0.4 -1.55 0.55 -1.55 0.55 -1.6 0.55 -1.6 0.7 -1.6 0.7 -1.6 0.7 -1.65 0.75 -1.7 0.75 -1.75 0.75 -1.75 0.7 -1.75 0.65 -1.8 0.6 -1.8 0.6 -1.75 0.6 -1.75 0.55 -1.7 0.55 -1.65 0.5 -1.65 0.45 -1.65 0.45 -1.6 0.45 -1.6 0.45 -1.5 0.4 M-1.7 0.6 L-1.65 0.55 -1.7 0.55 -1.7 0.55 -1.75 0.6 -1.7 0.6 M-1.6 0.7 L-1.6 0.7 M-1.65 0.75 L-1.65 0.75" fill="#917d3b" fill-rule="evenodd" stroke="none"/>
    <path d="M-1.45 0.4 L-1.45 0.45 -1.45 0.4" fill="#d8ba58" fill-rule="evenodd" stroke="none"/>
    <path d="M-1.4 0.45 L-1.4 0.45 -1.45 0.45 -1.45 0.4 -1.4 0.45" fill="#dbbd5a" fill-rule="evenodd" stroke="none"/>
    <path d="M-1.55 0.55 L-1.6 0.6 -1.55 0.65 -1.55 0.7 -1.6 0.7 -1.6 0.7 -1.6 0.55 -1.55 0.55" fill="#635528" fill-rule="evenodd" stroke="none"/>
    <path d="M-1.35 0.8 L-1.4 0.75 -1.3 0.8 -1.3 0.85 -1.35 0.8 -1.35 0.8" fill="#7d6c33" fill-rule="evenodd" stroke="none"/>
    <path d="M-2.15 0.45 L-2.2 0.45 -2.25 0.45 -2.25 0.4 -2.2 0.4 -2.25 0.35 -2.3 0.3 -2.25 0.3 -2.25 0.25 -2.2 0.25 -2.15 0.25 -2.15 0.25 -2.1 0.25 -2.05 0.3 -2.05 0.35 -2.1 0.35 -2.05 0.35 -2.1 0.4 -2.15 0.45 -2.15 0.45" fill="#222511" fill-rule="evenodd" stroke="none"/>
    <path d="M-1.25 -0.2 L-1.2 -0.2 -1.25 -0.2 M-1.2 -0.2 L-1.2 -0.2 -1.2 -0.2 M-1.1 -0.05 L-1.1 0.0 -1.15 0.0 -1.15 0.05 -1.15 0.0 -1.1 -0.05 M-1.15 0.0 L-1.15 0.0 M-1.2 0.1 L-1.2 0.1 -1.2 0.05 -1.2 0.1" fill="#9c8740" fill-rule="evenodd" stroke="none"/>
    <path d="M-1.05 -0.05 L-1.05 -0.05 -1.05 0.0 -1.1 0.0 -1.1 -0.05 -1.05 -0.05" fill="#40371a" fill-rule="evenodd" stroke="none"/>
    <path d="M-1.1 0.0 L-1.05 0.0 -1.05 0.0 -1.0 0.0 -1.05 0.0 -1.05 0.05 -1.1 0.1 -1.1 0.05 -1.15 0.05 -1.15 0.0 -1.1 0.0 M-0.95 0.15 L-0.95 0.15 -1.0 0.1 -1.0 0.1 -1.1 0.1 -1.05 0.05 -1.05 0.05 -1.0 0.0 -0.95 0.05 -0.95 0.05 -0.9 0.05 -0.9 0.05 -0.95 0.15 M-1.2 0.15 L-1.2 0.15 -1.25 0.2 -1.3 0.2 -1.2 0.15 -1.2 0.1 -1.2 0.15 M-1.1 0.1 L-1.1 0.1 M-1.2 0.1 L-1.2 0.1 M-1.3 0.2 L-1.3 0.2" fill="#594d24" fill-rule="evenodd" stroke="none"/>
    <path d="M-0.9 0.15 L-0.9 0.25 -0.95 0.25 -0.95 0.3 -0.95 0.3 -1.05 0.35 -1.1 0.35 -1.1 0.35 -1.2 0.3 -1.2 0.3 -1.25 0.3 -1.25 0.3 -1.3 0.3 -1.3 0.25 -1.25 0.2 -1.2 0.15 -1.2 0.15 -1.15 0.15 -1.15 0.2 -1.1 0.25 -1.1 0.1 -1.0 0.1 -1.0 0.1 -0.95 0.15 -0.9 0.15 M-1.1 0.1 L-1.1 0.1 -1.1 0.1 -1.1 0.1 M-1.3 0.25 L-1.3 0.25" fill="#aa9245" fill-rule="evenodd" stroke="none"/>
    <path d="M-1.2 0.3 L-1.25 0.35 -1.25 0.35 -1.3 0.35 -1.3 0.3 -1.25 0.3 -1.25 0.3 -1.2 0.3 M-1.4 0.45 L-1.35 0.5 -1.35 0.6 -1.35 0.7 -1.4 0.75 -1.45 0.8 -1.5 0.8 -1.5 0.8 -1.55 0.75 -1.55 0.75 -1.55 0.7 -1.55 0.65 -1.6 0.6 -1.55 0.55 -1.55 0.55 -1.5 0.4 -1.5 0.4 -1.45 0.4 -1.45 0.45 -1.4 0.45 M-1.45 0.8 L-1.45 0.8" fill="#7b6a32" fill-rule="evenodd" stroke="none"/>
    <path d="M-1.3 0.35 L-1.35 0.35 -1.35 0.35 -1.3 0.35" fill="#b19948" fill-rule="evenodd" stroke="none"/>
    <path d="M-1.0 0.45 L-1.0 0.45 -0.95 0.5 -0.95 0.5 -0.95 0.55 -1.0 0.55 -1.05 0.55 -1.1 0.55 -1.1 0.55 -1.1 0.55 -1.15 0.5 -1.15 0.45 -1.25 0.4 -1.35 0.4 -1.35 0.35 -1.3 0.35 -1.25 0.35 -1.25 0.35 -1.2 0.3 -1.2 0.3 -1.1 0.35 -1.1 0.35 -1.05 0.35 -1.0 0.4 -1.0 0.45 M-1.05 0.35 L-1.05 0.35 -1.05 0.35 M-1.35 0.35 L-1.35 0.35" fill="#665829" fill-rule="evenodd" stroke="none"/>
    <path d="M-1.35 0.4 L-1.25 0.4 -1.15 0.45 -1.15 0.5 -1.1 0.55 -1.1 0.55 -1.1 0.65 -1.1 0.65 -1.2 0.65 -1.25 0.65 -1.25 0.65 -1.35 0.65 -1.35 0.6 -1.35 0.5 -1.4 0.45 -1.45 0.4 -1.4 0.4 -1.35 0.4 -1.35 0.4 M-1.4 0.4 L-1.4 0.4 -1.4 0.4 M-1.4 0.45 L-1.4 0.45 -1.4 0.45" fill="#41381a" fill-rule="evenodd" stroke="none"/>
    <path d="M-1.4 0.4 L-1.4 0.4 -1.4 0.4 M-1.55 0.65 L-1.55 0.7 -1.55 0.65 M-1.55 0.75 L-1.5 0.8 -1.5 0.8 -1.5 0.8 -1.55 0.75 -1.55 0.75 M-1.5 0.8 L-1.5 0.8 M-1.55 0.7 L-1.55 0.7" fill="#786731" fill-rule="evenodd" stroke="none"/>
    <path d="M-1.95 -0.1 L-2.0 -0.1 -2.0 -0.2 -1.95 -0.2 -1.95 -0.2 -1.9 -0.15 -1.9 -0.15 -1.8 -0.1 -1.75 -0.05 -1.85 -0.05 -1.85 -0.05 -1.9 -0.1 -1.95 -0.1 M-1.8 -0.1 L-1.8 -0.1 -1.8 -0.1 M-1.55 -0.1 L-1.6 -0.1 -1.6 -0.1 -1.55 -0.1 -1.55 -0.1 -1.55 -0.1 -1.5 -0.05 -1.45 -0.05 -1.45 -0.05 -1.45 -0.05 -1.45 -0.05 -1.5 -0.05 -1.55 -0.1 M-1.4 -0.05 L-1.4 -0.05 -1.35 0.0 -1.4 0.0 -1.4 0.0 -1.45 0.0 -1.45 -0.05 -1.4 -0.05" fill="#687234" fill-rule="evenodd" stroke="none"/>
    <path d="M-1.2 -0.3 L-1.2 -0.3 -1.15 -0.45 -1.15 -0.4 -1.15 -0.3 -1.2 -0.25 -1.2 -0.3 M-1.2 -0.2 L-1.2 -0.25 -1.2 -0.2" fill="#424821" fill-rule="evenodd" stroke="none"/>
    <path d="M-0.95 -0.15 L-0.95 -0.2 -0.9 -0.1 -0.9 -0.1 -0.95 -0.05 -0.95 -0.1 -0.95 -0.15 M-0.95 -0.2 L-0.95 -0.2 -0.95 -0.2" fill="#3e3619" fill-rule="evenodd" stroke="none"/>
    <path d="M-0.4 -0.3 L-0.4 -0.3 -0.4 -0.25 -0.4 -0.3" fill="#766530" fill-rule="evenodd" stroke="none"/>
    <path d="M-0.7 -0.35 L-0.65 -0.3 -0.7 -0.3 -0.7 -0.35 -0.8 -0.35 -0.7 -0.35 M-0.65 -0.3 L-0.65 -0.3" fill="#584c24" fill-rule="evenodd" stroke="none"/>
    <path d="M-0.4 -0.15 L-0.4 -0.1 -0.5 -0.05 -0.5 0.0 -0.5 -0.05 -0.55 -0.05 -0.5 -0.1 -0.4 -0.15 -0.4 -0.3 -0.4 -0.3 -0.45 -0.3 -0.45 -0.3 -0.4 -0.35 -0.4 -0.3 -0.4 -0.25 -0.4 -0.15 M-0.5 -0.1 L-0.5 -0.1 -0.5 -0.1" fill="#42391b" fill-rule="evenodd" stroke="none"/>
    <path d="M-1.0 -0.05 L-1.0 -0.05 -1.0 -0.05 -1.0 0.0 -1.05 0.05 -1.05 0.05 -1.1 0.1 -1.05 0.05 -1.05 0.0 -1.0 0.0 -1.0 -0.05 M-1.1 0.1 L-1.1 0.15 -1.15 0.2 -1.1 0.15 -1.1 0.1 -1.1 0.1" fill="#515828" fill-rule="evenodd" stroke="none"/>
    <path d="M-2.1 0.55 L-2.1 0.45 -2.0 0.4 -2.05 0.4 -2.05 0.35 -1.95 0.35 -1.9 0.35 -1.9 0.45 -1.9 0.5 -1.9 0.5 -1.9 0.55 -1.95 0.55 -2.0 0.6 -2.05 0.6 -2.1 0.6 -2.1 0.55 M-1.45 0.05 L-1.45 0.05 -1.45 0.0 -1.4 0.0 -1.4 0.0 -1.4 0.05 -1.3 0.1 -1.2 0.05 -1.2 0.1 -1.2 0.15 -1.3 0.2 -1.35 0.2 -1.4 0.2 -1.4 0.2 -1.45 0.15 -1.45 0.15 -1.45 0.15 -1.5 0.1 -1.45 0.1 -1.35 0.15 -1.45 0.05 M-1.3 0.2 L-1.3 0.2 -1.3 0.2 M-1.95 0.35 L-1.95 0.35" fill="#646e32" fill-rule="evenodd" stroke="none"/>
    <path d="M-1.95 0.3 L-1.9 0.25 -1.7 0.25 -1.7 0.3 -1.7 0.35 -1.65 0.4 -1.65 0.45 -1.65 0.5 -1.7 0.55 -1.75 0.55 -1.8 0.55 -1.9 0.5 -1.9 0.45 -1.9 0.35 -1.95 0.35 -1.95 0.3 M-1.9 0.5 L-1.9 0.5 M-1.75 0.55 L-1.75 0.55 M-1.7 0.35 L-1.7 0.35 M-1.7 0.3 L-1.7 0.3" fill="#7a863d" fill-rule="evenodd" stroke="none"/>
    <path d="M-1.85 0.15 L-1.8 0.2 -1.8 0.2 -1.85 0.15" fill="#839041" fill-rule="evenodd" stroke="none"/>
    <path d="M-1.95 -0.05 L-1.95 -0.05 -1.9 -0.05 -1.85 0.0 -1.85 0.0 -1.85 0.05 -1.85 0.05 -1.9 0.05 -1.95 0.05 -2.0 0.05 -2.0 0.0 -1.95 0.0 -2.0 0.0 -2.0 0.0 -1.95 0.0 -1.95 -0.05 M-1.9 -0.05 L-1.9 -0.05" fill="#603825" fill-rule="evenodd" stroke="none"/>
    <path d="M-1.9 0.25 L-1.95 0.25 -1.95 0.3 -2.0 0.35 -2.0 0.3 -2.05 0.25 -2.0 0.25 -2.0 0.2 -2.0 0.2 -1.95 0.2 -1.9 0.25" fill="#643a27" fill-rule="evenodd" stroke="none"/>
    <path d="M-2.1 0.45 L-2.1 0.45 -2.25 0.5 -2.15 0.45 -2.15 0.45 -2.1 0.4 -2.05 0.4 -2.0 0.4 -2.1 0.45" fill="#889544" fill-rule="evenodd" stroke="none"/>
    <path d="M-0.9 -0.3 L-0.9 -0.35 -0.85 -0.35 -0.8 -0.35 -0.8 -0.25 -0.85 -0.2 -0.8 -0.15 -0.85 -0.15 -0.9 -0.1 -0.9 -0.1 -0.95 -0.2 -0.9 -0.25 -0.9 -0.3 M-0.9 -0.25 L-0.9 -0.25" fill="#685a2a" fill-rule="evenodd" stroke="none"/>
    <path d="M-0.7 -0.35 L-0.7 -0.3 -0.65 -0.3 -0.65 -0.3 -0.75 -0.2 -0.75 -0.2 -0.6 -0.1 -0.55 -0.1 -0.55 -0.05 -0.55 0.0 -0.6 0.0 -0.65 -0.05 -0.7 -0.05 -0.75 -0.1 -0.8 -0.1 -0.8 -0.15 -0.85 -0.2 -0.8 -0.25 -0.8 -0.35 -0.8 -0.35 -0.7 -0.35 M-0.65 -0.3 L-0.65 -0.3" fill="#d0b355" fill-rule="evenodd" stroke="none"/>
    <path d="M-0.55 -0.1 L-0.6 -0.1 -0.75 -0.2 -0.75 -0.2 -0.65 -0.3 -0.65 -0.3 -0.6 -0.25 -0.55 -0.15 -0.55 -0.1" fill="#eccb60" fill-rule="evenodd" stroke="none"/>
    <path d="M-0.85 -0.35 L-0.85 -0.4 -0.8 -0.35 -0.8 -0.35 -0.85 -0.35 M-0.7 -0.35 L-0.8 -0.35 -0.7 -0.35" fill="#8b7839" fill-rule="evenodd" stroke="none"/>
    <path d="M-0.5 0.0 L-0.55 0.0 -0.65 0.05 -0.7 0.05 -0.75 0.05 -0.85 0.05 -0.95 -0.05 -0.95 -0.05 -0.9 -0.1 -0.85 -0.15 -0.8 -0.15 -0.8 -0.1 -0.8 -0.1 -0.75 -0.1 -0.7 -0.05 -0.7 0.0 -0.65 -0.05 -0.6 0.0 -0.6 0.0 -0.55 0.0 -0.55 -0.05 -0.5 -0.05 -0.5 0.0 M-0.95 -0.05 L-0.95 -0.05 M-0.65 0.05 L-0.65 0.05" fill="#9a843f" fill-rule="evenodd" stroke="none"/>
    <path d="M-0.45 -0.3 L-0.45 -0.3 -0.4 -0.3 -0.4 -0.3 -0.4 -0.15 -0.5 -0.1 -0.45 -0.2 -0.45 -0.3 M-0.4 -0.3 L-0.4 -0.3 -0.4 -0.3 M-0.5 -0.1 L-0.5 -0.1 -0.5 -0.1" fill="#9d8740" fill-rule="evenodd" stroke="none"/>
    <path d="M-0.8 -0.1 L-0.75 -0.1 -0.8 -0.1 -0.8 -0.1" fill="#766630" fill-rule="evenodd" stroke="none"/>
    <path d="M0.2 -0.85 L0.05 -0.85 Q-0.45 -0.85 -0.95 -0.6 L-1.1 -0.5 -1.1 -0.55 -1.15 -0.6 -1.2 -0.7 -1.2 -0.75 -1.25 -0.85 -1.3 -0.95 -1.35 -1.0 -1.35 -1.0 -1.4 -1.0 -1.45 -1.05 -1.45 -1.05 -1.5 -1.15 -1.55 -1.25 -1.6 -1.3 -1.65 -1.3 Q-1.75 -1.45 -1.85 -1.5 L-1.75 -1.35 -1.65 -1.15 -1.65 -1.05 -1.7 -0.95 -1.7 -1.15 -1.8 -1.25 -1.85 -1.35 -1.9 -1.45 -1.95 -1.55 -2.0 -1.6 -2.05 -1.65 -2.1 -1.7 -2.15 -1.75 -2.25 -1.8 -2.25 -1.8 -2.35 -1.85 -2.45 -1.85 -2.5 -1.85 -2.55 -1.85 -2.55 -1.9 -2.6 -1.9 -2.65 -1.95 -2.7 -1.95 -2.75 -1.9 -2.75 -1.9 -2.8 -1.9 -2.8 -1.95 -2.85 -1.95 -2.85 -1.95 -2.9 -1.95 -2.9 -1.9 -2.9 -1.9 -2.95 -1.95 -3.0 -1.95 -3.0 -1.95 -3.05 -1.95 -3.05 -1.95 -3.1 -1.95 -3.1 -1.95 -3.15 -1.95 -3.25 -2.0 -3.25 -2.0 -3.4 -1.95 -3.35 -1.95 -3.3 -1.95 -3.3 -1.95 -3.3 -1.9 -3.25 -1.9 -3.25 -1.85 -3.2 -1.8 -3.25 -1.8 -3.25 -1.8 -3.2 -1.7 -3.15 -1.7 -3.15 -1.7 -3.1 -1.7 -3.05 -1.65 -3.0 -1.65 -3.0 -1.65 -2.9 -1.6 -2.9 -1.6 -2.95 -1.6 -2.95 -1.55 -3.0 -1.55 -2.95 -1.5 Q-3.0 -1.45 -3.0 -1.45 L-3.05 -1.45 -2.9 -1.4 -2.85 -1.35 -2.85 -1.35 -2.8 -1.3 -2.75 -1.25 -2.7 -1.25 -2.55 -1.15 -2.55 -1.15 -2.55 -1.1 -2.5 -1.1 -2.4 -0.95 -2.3 -0.8 -2.25 -0.75 -2.15 -0.65 -1.95 -0.5 Q-2.1 -0.55 -2.25 -0.7 L-2.35 -0.75 -2.3 -0.7 -2.25 -0.65 -2.3 -0.65 -2.25 -0.6 -2.2 -0.55 -2.2 -0.55 -2.15 -0.5 -2.15 -0.45 -2.15 -0.4 -2.15 -0.4 -2.15 -0.4 -2.1 -0.35 -2.1 -0.35 -2.05 -0.3 -2.05 -0.3 -2.05 -0.3 -2.05 -0.25 -2.1 -0.25 -2.0 -0.2 -2.0 -0.1 -1.95 -0.1 -1.95 -0.1 -1.9 -0.05 -1.9 -0.05 -1.95 -0.05 -1.95 -0.05 -1.95 -0.05 -1.95 -0.05 -2.0 -0.05 -2.05 -0.05 -2.05 -0.05 -2.1 -0.1 -2.15 -0.05 -2.15 -0.1 -2.2 -0.1 -2.25 -0.15 -2.35 -0.1 -2.35 0.0 -2.4 0.0 -2.45 0.15 -2.35 0.25 -2.4 0.25 -2.4 0.25 -2.4 0.25 -2.45 0.3 -2.45 0.4 -2.4 0.4 -2.35 0.45 -2.3 0.45 -2.25 0.45 -2.2 0.45 -2.15 0.45 -2.25 0.5 -2.1 0.45 -2.1 0.45 -2.1 0.55 -2.1 0.55 -2.15 0.65 -2.15 0.7 -2.2 0.7 -2.2 0.8 -2.1 0.8 -2.1 0.8 -2.05 0.85 -1.95 0.8 -1.95 0.8 -1.95 0.85 -1.95 0.85 -2.45 1.2 -2.55 1.3 Q-2.65 1.4 -2.65 1.6 -2.65 1.9 -2.0 1.9 L-1.8 1.9 -1.6 1.85 Q-1.2 1.85 -0.4 1.5 -0.15 1.4 0.05 1.35 0.1 1.3 0.15 1.3 L0.8 1.1 1.6 1.1 1.95 1.1 2.4 1.0 Q2.6 0.85 2.6 0.6 2.6 0.3 2.45 0.15 2.35 0.05 2.0 -0.15 L1.05 -0.15 1.0 -0.1 1.0 -0.15 0.95 -0.2 0.8 -0.5 Q0.6 -0.8 0.2 -0.85 Z" fill="none" stroke="#000000" stroke-linecap="round" stroke-linejoin="round" stroke-opacity="0.4509804" stroke-width="0.1"/>
  </g>
</svg>
