<?xml version="1.0" encoding="UTF-8" standalone="no"?>
<svg xmlns:xlink="http://www.w3.org/1999/xlink" height="58.55px" width="42.45px" xmlns="http://www.w3.org/2000/svg">
  <g transform="matrix(1.0, 0.0, 0.0, 1.0, 1.45, 6.45)">
    <path d="M1.0 -1.5 Q1.35 -1.2 1.35 -0.9 1.35 -0.55 1.1 -0.3 1.0 -0.15 0.8 -0.1 L0.75 -0.05 Q1.1 0.2 1.1 0.7 1.1 1.0 0.85 1.4 L0.55 1.7 0.75 1.9 Q1.1 2.3 1.1 2.85 1.1 3.1 0.85 3.35 L0.7 3.45 Q1.0 3.65 1.0 4.15 1.0 4.4 0.7 4.85 0.35 5.35 0.05 5.35 -0.55 5.35 -0.85 4.85 L-1.0 4.3 Q-1.0 3.95 -0.7 3.65 L-0.7 3.65 Q-0.95 3.55 -1.05 3.35 L-1.1 3.0 Q-1.1 2.15 -0.75 1.75 L-0.5 1.55 -0.8 1.15 Q-1.1 0.65 -1.1 0.4 -1.1 0.1 -0.9 -0.1 L-1.0 -0.4 -1.2 -0.65 Q-1.4 -0.95 -1.45 -1.3 -1.45 -1.8 -1.15 -2.05 L-1.1 -2.85 Q-1.1 -4.65 -0.8 -5.65 -0.5 -6.55 -0.05 -6.45 0.4 -6.3 0.7 -5.1 1.0 -3.8 1.0 -1.7 L1.0 -1.5 M16.1 -2.15 Q16.65 -2.0 17.1 -1.55 17.55 -1.1 17.55 -0.6 16.85 0.45 16.4 0.9 16.55 1.1 16.55 1.35 L16.5 1.55 16.65 1.55 Q17.0 1.55 17.1 1.75 L17.3 1.75 18.55 1.85 Q18.7 1.95 18.75 2.2 L19.4 2.15 Q19.9 2.15 19.95 2.8 L19.95 3.9 20.05 3.9 Q21.7 3.95 21.7 5.65 21.7 5.9 21.5 6.1 21.25 6.25 21.0 6.25 20.6 6.25 19.45 5.35 L18.75 4.8 Q18.2 4.75 17.95 4.25 17.85 4.05 17.8 3.8 17.6 3.75 17.5 3.55 L17.35 3.3 Q16.9 3.6 16.65 3.6 16.5 3.6 16.25 3.15 15.95 3.15 15.8 2.9 L15.75 2.6 15.8 2.25 15.05 2.35 Q14.5 2.35 14.25 1.9 14.1 1.65 14.1 1.4 14.1 0.95 14.5 0.65 14.75 0.45 15.05 0.4 L14.95 0.2 Q14.65 -0.5 14.65 -0.85 14.65 -1.7 15.1 -2.0 15.5 -2.3 16.1 -2.15 M34.4 14.1 Q35.05 14.25 35.55 14.8 36.05 15.4 36.05 16.2 36.05 16.6 35.75 16.85 35.45 17.05 34.75 17.05 34.65 17.05 34.45 17.15 34.25 17.25 34.15 17.25 33.55 17.25 33.2 16.75 33.15 17.05 32.85 17.05 32.5 17.05 32.3 16.9 32.05 17.2 31.55 17.2 31.05 17.2 30.75 16.6 30.25 16.5 30.05 16.0 L29.95 15.25 29.15 14.4 Q28.9 14.6 28.75 14.6 28.35 14.6 27.7 13.55 L27.15 12.55 Q27.15 11.55 28.4 12.4 28.8 12.7 29.15 13.0 29.4 12.9 29.75 13.25 30.1 13.65 30.3 13.65 30.5 13.65 30.9 14.0 31.4 14.55 31.6 15.2 31.8 15.3 31.95 15.5 L32.05 15.4 Q32.25 15.15 32.55 15.1 L32.75 15.1 Q32.75 14.45 33.25 14.15 33.7 13.9 34.4 14.1 M33.95 29.7 Q34.45 29.95 34.65 30.3 L34.9 30.05 Q35.25 29.75 35.75 29.7 37.05 29.6 37.05 31.05 L36.9 31.55 36.95 31.55 37.6 31.55 Q38.05 31.7 38.3 31.85 L38.5 31.65 Q39.25 30.95 39.65 30.95 41.0 30.95 41.0 32.45 41.0 32.95 40.7 33.4 40.35 34.0 39.6 34.0 38.55 34.0 38.05 33.45 L37.9 33.2 37.8 33.2 37.7 33.3 Q37.05 33.85 36.7 33.85 36.6 33.85 36.05 33.15 L35.95 33.0 35.8 33.05 Q35.25 33.05 34.8 31.9 L34.65 31.4 34.55 31.55 Q34.3 31.9 34.05 31.9 33.75 31.9 33.35 31.0 L33.05 30.15 Q33.05 29.7 33.3 29.6 33.55 29.5 33.95 29.7 M32.1 47.25 Q32.1 46.2 32.55 46.0 L32.4 45.7 Q32.4 45.2 32.75 44.95 33.05 44.65 33.5 44.7 33.95 44.75 34.25 45.1 34.6 45.5 34.6 46.15 34.6 46.5 34.35 46.65 L34.1 46.8 34.15 47.05 Q34.15 47.6 34.0 47.85 L33.85 48.0 Q33.95 48.2 33.95 48.55 L33.95 48.75 34.1 48.75 Q34.95 48.9 35.05 49.3 L35.65 49.25 Q36.3 49.25 36.75 49.65 37.25 50.05 37.25 50.65 37.25 51.1 37.05 51.5 36.8 52.1 36.25 52.1 34.1 52.1 34.1 50.6 L34.1 50.5 Q33.75 50.5 33.45 49.95 L33.25 49.55 32.85 49.6 Q32.5 49.6 32.35 48.9 L32.2 48.15 Q32.2 48.05 32.3 47.95 L32.15 47.7 32.1 47.25" fill="#ffb500" fill-rule="evenodd" stroke="none"/>
  </g>
</svg>
