<?xml version="1.0" encoding="UTF-8" standalone="no"?>
<svg xmlns:xlink="http://www.w3.org/1999/xlink" height="4.6px" width="3.7px" xmlns="http://www.w3.org/2000/svg">
  <g transform="matrix(1.0, 0.0, 0.0, 1.0, 2.65, 1.15)">
    <path d="M0.05 0.1 L0.1 0.15 0.05 0.2 0.1 0.2 0.1 0.25 0.05 0.3 0.05 0.35 -0.05 0.3 -0.05 0.3 -0.05 0.2 -0.1 0.15 -0.05 0.15 -0.05 0.15 0.0 0.15 0.0 0.1 0.05 0.1" fill="#c3bab5" fill-rule="evenodd" stroke="none"/>
    <path d="M0.1 0.15 L0.1 0.2 0.15 0.25 0.15 0.3 0.15 0.4 0.05 0.4 0.0 0.4 0.0 0.4 -0.05 0.35 -0.05 0.3 -0.05 0.3 0.05 0.35 0.05 0.3 0.1 0.25 0.1 0.2 0.05 0.2 0.1 0.15" fill="#878380" fill-rule="evenodd" stroke="none"/>
    <path d="M0.15 0.3 L0.2 0.35 0.25 0.35 0.2 0.4 0.15 0.5 0.05 0.5 0.0 0.5 -0.05 0.5 -0.05 0.45 0.0 0.45 0.0 0.4 0.05 0.4 0.15 0.4 0.15 0.3" fill="#413736" fill-rule="evenodd" stroke="none"/>
    <path d="M0.25 -0.25 L0.2 -0.35 0.05 -0.65 0.05 -0.8 0.05 -0.85 0.0 -0.8 -0.05 -0.8 -0.05 -0.8 -0.1 -0.85 -0.05 -0.85 0.0 -0.85 0.05 -0.9 0.15 -0.9 0.15 -0.85 Q0.2 -0.7 0.3 -0.35 L0.25 -0.4 0.25 -0.25 M-0.15 -0.85 L-0.15 -0.8 -0.15 -0.75 -0.2 -0.75 -0.25 -0.75 -0.3 -0.7 -0.3 -0.7 -0.3 -0.65 -0.4 -0.65 -0.5 -0.6 -0.55 -0.6 -0.45 -0.6 -0.3 -0.65 -0.3 -0.65 -0.3 -0.65 -0.25 -0.55 -0.25 -0.5 -0.2 -0.4 -0.15 -0.3 -0.1 -0.25 -0.1 -0.2 -0.05 -0.15 -0.05 -0.05 0.05 0.0 0.05 0.0 0.1 0.05 0.1 0.1 0.1 0.05 0.05 0.1 0.0 0.1 0.0 0.15 -0.05 0.15 -0.05 0.15 -0.1 0.15 -0.1 0.15 -0.15 0.15 -0.15 0.2 -0.2 0.2 -0.2 0.2 -0.25 0.15 -0.25 0.2 -0.3 0.2 -0.3 0.2 -0.35 0.2 -0.35 0.2 -0.35 0.15 -0.4 0.1 -0.45 -0.05 -0.45 -0.05 -0.5 -0.25 -0.55 -0.25 -0.55 -0.3 -0.55 -0.4 -0.6 -0.55 -0.6 -0.55 -0.65 -0.55 -0.7 -0.5 -0.7 -0.5 -0.75 -0.5 -0.85 -0.45 -0.85 -0.45 -0.9 -0.45 -0.9 -0.45 -1.0 -0.45 -1.15 -0.4 -1.15 -0.35 -1.2 -0.35 -1.2 -0.25 -1.15 -0.15 -1.15 -0.05 -1.1 -0.05 -1.1 0.0 -1.1 0.05 -1.1 0.05 -1.15 0.05 -1.15 0.05 -1.2 0.0 -1.2 0.0 -1.2 -0.1 -1.25 -0.15 -1.25 -0.2 -1.3 -0.3 -1.3 -0.3 -1.3 -0.35 -1.3 -0.4 -1.25 -0.4 -1.25 -0.4 -1.2 -0.4 -1.2 -0.45 -1.15 -0.45 -1.05 -0.5 -1.0 -0.5 -0.95 -0.55 -0.9 -0.55 -0.95 -0.55 -0.9 -0.55 -0.9 -0.6 -0.85 -0.6 -0.9 -0.6 -0.85 -0.6 -0.8 -0.6 -0.75 -0.6 -0.7 -0.65 -0.65 -0.65 -0.65 -0.65 -0.55 -0.7 -0.5 -0.7 -0.4 -0.75 -0.25 -0.8 -0.2 -0.8 -0.15 -0.85 M0.75 0.4 L0.65 0.5 0.55 0.6 0.5 0.6 0.45 0.6 0.45 0.55 0.4 0.55 Q0.35 0.55 0.35 0.5 0.35 0.5 0.3 0.5 L0.3 0.35 0.35 0.3 0.4 0.3 0.45 0.3 0.5 0.3 0.5 0.35 0.55 0.35 0.6 0.35 0.6 0.4 0.65 0.4 0.7 0.4 0.75 0.4 M-0.4 0.9 L-0.45 0.9 -0.5 0.9 -0.6 0.95 -0.65 0.95 -0.7 0.95 -0.75 0.95 -0.7 0.95 -0.7 0.9 -0.7 0.8 -0.65 0.8 -0.65 0.75 -0.65 0.75 -0.6 0.75 -0.55 0.75 -0.55 0.75 -0.5 0.7 -0.5 0.7 -0.45 0.7 -0.45 0.7 -0.4 0.7 -0.4 0.8 -0.4 0.85 -0.4 0.9 -0.4 0.9 M-1.2 -0.4 L-1.2 -0.45 -1.2 -0.4 -1.2 -0.4" fill="#252723" fill-rule="evenodd" stroke="none"/>
    <path d="M-0.05 -0.85 L-0.1 -0.85 -0.05 -0.8 -0.05 -0.8 0.0 -0.8 0.05 -0.85 0.05 -0.8 0.05 -0.65 0.2 -0.35 0.25 -0.25 0.25 -0.25 0.25 -0.1 0.2 -0.05 0.2 -0.05 0.15 0.0 0.15 0.0 0.15 0.05 0.1 0.1 0.1 0.05 0.05 0.0 0.05 0.0 -0.05 -0.05 -0.05 -0.15 -0.1 -0.2 -0.1 -0.25 -0.15 -0.3 -0.2 -0.4 -0.25 -0.5 -0.25 -0.55 -0.3 -0.65 -0.3 -0.65 -0.3 -0.65 -0.45 -0.6 -0.55 -0.6 -0.5 -0.6 -0.4 -0.65 -0.3 -0.65 -0.3 -0.7 -0.3 -0.7 -0.25 -0.75 -0.2 -0.75 -0.15 -0.75 -0.15 -0.8 -0.15 -0.85 -0.15 -0.85 -0.1 -0.85 -0.05 -0.85 M0.4 0.0 L0.5 0.0 0.65 0.0 0.85 0.0 0.95 0.0 1.0 0.1 1.0 0.2 0.9 0.3 0.75 0.4 0.7 0.4 0.65 0.4 0.6 0.4 0.6 0.35 0.55 0.35 0.5 0.35 0.5 0.3 0.45 0.3 0.4 0.3 0.35 0.3 0.3 0.35 0.3 0.5 Q0.35 0.5 0.35 0.5 0.35 0.55 0.4 0.55 L0.45 0.55 0.45 0.6 0.5 0.6 0.55 0.6 0.35 0.7 -0.15 0.85 -0.3 0.9 -0.4 0.9 -0.4 0.9 -0.4 0.85 -0.4 0.8 -0.4 0.7 -0.35 0.65 -0.35 0.65 -0.3 0.65 -0.3 0.65 -0.2 0.6 -0.15 0.55 -0.15 0.5 -0.1 0.5 -0.1 0.45 -0.15 0.45 -0.15 0.4 -0.15 0.25 -0.15 0.2 -0.15 0.15 -0.1 0.15 -0.1 0.15 -0.05 0.2 -0.05 0.3 -0.05 0.35 0.0 0.4 0.0 0.4 0.0 0.45 -0.05 0.45 -0.05 0.5 0.0 0.5 0.05 0.5 0.15 0.5 0.2 0.4 0.25 0.35 0.2 0.35 0.15 0.3 0.15 0.25 0.1 0.2 0.1 0.15 0.05 0.1 0.1 0.05 0.1 0.1 0.15 0.1 0.2 0.15 0.2 0.2 0.25 0.2 0.25 0.25 0.3 0.3 0.35 0.25 0.45 0.2 0.4 0.1 0.4 0.0 M-0.75 1.0 L-0.75 1.0 -0.85 1.0 -0.85 1.0 -0.9 1.05 -1.0 1.05 -1.25 1.0 -1.4 0.85 -1.4 0.8 -1.35 0.75 -1.35 0.7 -1.3 0.65 -1.3 0.65 -1.25 0.6 -1.25 0.6 -1.2 0.6 -1.15 0.55 -1.15 0.55 -1.1 0.55 -1.1 0.55 -1.05 0.55 -1.05 0.55 -1.0 0.55 -1.0 0.55 -0.95 0.6 -0.95 0.6 -0.95 0.65 -0.95 0.65 -0.9 0.65 -0.9 0.7 -0.85 0.65 -0.8 0.7 -0.8 0.7 -0.75 0.7 -0.75 0.75 -0.7 0.75 -0.7 0.75 -0.65 0.75 -0.65 0.8 -0.7 0.8 -0.7 0.9 -0.7 0.95 -0.75 0.95 -0.75 1.0 M-1.1 0.05 L-1.1 0.0 -1.1 -0.05 -1.15 -0.05 -1.15 -0.15 -1.2 -0.25 -1.2 -0.35 -1.15 -0.35 -1.15 -0.4 -1.0 -0.45 -0.9 -0.45 -0.9 -0.45 -0.85 -0.45 -0.85 -0.45 -0.75 -0.5 -0.7 -0.5 -0.7 -0.5 -0.65 -0.55 -0.6 -0.55 -0.6 -0.55 -0.55 -0.4 -0.55 -0.3 -0.55 -0.25 -0.5 -0.25 -0.45 -0.05 -0.45 -0.05 -0.4 0.1 -0.35 0.15 -0.35 0.2 -0.35 0.2 -0.4 0.2 -0.45 0.2 -0.45 0.2 -0.5 0.2 -0.55 0.2 -0.65 0.2 -0.75 0.15 -0.8 0.15 -0.85 0.15 -0.85 0.15 -0.9 0.1 -0.95 0.1 -1.0 0.1 -1.05 0.05 -1.05 0.05 -1.1 0.05 M-1.25 0.6 L-1.2 0.6 -1.25 0.6 M-1.4 0.85 L-1.4 0.85 -1.4 0.85 -1.4 0.85 -1.4 0.85" fill="#161714" fill-rule="evenodd" stroke="none"/>
    <path d="M-1.0 0.55 L-0.95 0.55 -0.9 0.55 -0.9 0.55 -0.9 0.6 -0.95 0.6 -0.95 0.6 -0.95 0.6 -1.0 0.55 M-0.9 0.55 L-0.9 0.55 M-0.85 0.5 L-0.85 0.5 -0.85 0.5" fill="#131f38" fill-rule="evenodd" stroke="none"/>
    <path d="M-0.35 0.4 L-0.3 0.4 -0.35 0.45 -0.35 0.4 -0.35 0.4 M-0.45 0.3 L-0.45 0.3 -0.5 0.25 -0.45 0.25 -0.45 0.3 M-0.6 0.25 L-0.5 0.25 -0.6 0.25 M-0.85 0.5 L-0.85 0.6 -0.85 0.6 -0.85 0.65 -0.8 0.65 -0.8 0.7 -0.8 0.7 -0.85 0.65 -0.9 0.7 -0.9 0.65 -0.95 0.65 -0.95 0.65 -0.95 0.6 -0.95 0.6 -0.9 0.6 -0.9 0.55 -0.9 0.55 -0.85 0.5 -0.85 0.5 -0.85 0.5" fill="#0d1627" fill-rule="evenodd" stroke="none"/>
    <path d="M-0.5 0.25 L-0.5 0.3 -0.55 0.3 -0.55 0.35 -0.6 0.35 -0.6 0.35 -0.65 0.35 -0.65 0.4 -0.65 0.45 -0.65 0.45 -0.75 0.4 -0.75 0.35 -0.75 0.3 -0.75 0.25 -0.7 0.25 -0.7 0.25 -0.6 0.25 -0.6 0.25 -0.5 0.25 M-1.15 0.25 L-1.1 0.25 -1.05 0.25 -1.0 0.25 -1.0 0.25 -0.9 0.25 -0.9 0.25 -0.9 0.3 -0.95 0.3 -0.95 0.35 -0.95 0.35 -1.0 0.35 -1.05 0.35 -1.05 0.35 -1.1 0.35 -1.1 0.35 -1.15 0.35 -1.15 0.3 Q-1.1 0.3 -1.15 0.25" fill="#a12828" fill-rule="evenodd" stroke="none"/>
    <path d="M-0.25 1.65 L-0.2 1.95 -0.3 1.95 -0.35 2.0 -0.45 2.05 -0.45 2.1 -0.55 2.15 -0.65 1.75 Q-0.6 1.65 -0.55 1.65 L-0.5 1.75 -0.4 1.8 -0.35 1.8 -0.3 1.75 -0.3 1.65 -0.25 1.65 M-0.65 0.45 L-0.65 0.45 -0.65 0.45 -0.65 0.45 -0.7 0.45 -0.7 0.45 -0.75 0.45 -0.75 0.45 -0.8 0.45 -0.85 0.5 -0.85 0.5 -0.95 0.5 -0.95 0.5 -0.9 0.45 -0.9 0.4 -0.9 0.35 -0.85 0.4 -0.85 0.35 -0.8 0.35 -0.8 0.35 -0.8 0.3 -0.75 0.3 -0.75 0.35 -0.75 0.4 -0.65 0.45 M-1.1 0.15 L-1.1 0.15 -1.05 0.15 -1.05 0.15 -1.0 0.15 -1.0 0.15 -0.95 0.15 -0.95 0.2 -0.9 0.2 -0.9 0.2 -0.9 0.25 -1.0 0.25 -1.0 0.25 -1.05 0.25 -1.1 0.25 -1.15 0.25 -1.15 0.25 -1.1 0.2 -1.1 0.2 -1.1 0.15" fill="#c23030" fill-rule="evenodd" stroke="none"/>
    <path d="M-0.35 1.25 L-0.25 1.6 -0.25 1.65 -0.3 1.65 -0.3 1.75 -0.35 1.8 -0.4 1.8 -0.5 1.75 -0.55 1.65 Q-0.6 1.65 -0.65 1.75 L-0.65 1.7 -0.7 1.3 -0.55 1.3 -0.5 1.25 -0.35 1.25 M-0.2 1.95 L-0.15 1.95 -0.15 2.1 -0.1 2.15 -0.05 2.3 0.05 2.55 0.05 2.6 0.2 2.85 0.25 2.95 0.0 2.8 0.0 2.75 -0.15 2.6 -0.2 2.55 Q-0.25 2.55 -0.25 2.7 L-0.35 2.5 -0.45 2.3 Q-0.4 2.3 -0.3 2.2 L-0.25 2.2 -0.15 2.1 -0.25 2.0 -0.3 1.95 -0.2 1.95 M-0.5 2.2 L-0.55 2.15 -0.45 2.1 -0.5 2.2 M-0.45 0.3 L-0.45 0.3 -0.45 0.3 -0.45 0.35 -0.45 0.4 -0.5 0.45 -0.5 0.45 -0.5 0.45 -0.55 0.45 -0.55 0.5 -0.5 0.5 -0.5 0.5 -0.5 0.5 -0.5 0.55 -0.55 0.55 -0.55 0.55 -0.6 0.5 -0.65 0.5 -0.65 0.5 -0.65 0.45 -0.65 0.4 -0.65 0.35 -0.6 0.35 -0.6 0.35 -0.55 0.35 -0.55 0.3 -0.5 0.3 -0.5 0.25 -0.45 0.3 M-0.65 0.45 L-0.65 0.45 M-1.1 0.15 L-1.1 0.2 -1.1 0.2 -1.15 0.25 -1.15 0.25 Q-1.1 0.3 -1.15 0.3 L-1.15 0.35 -1.2 0.35 -1.2 0.35 -1.25 0.35 -1.25 0.35 -1.25 0.25 -1.2 0.2 -1.2 0.15 -1.2 0.15 -1.15 0.15 -1.15 0.15 -1.1 0.15 M-0.9 0.2 L-0.85 0.25 -0.8 0.25 -0.8 0.3 -0.85 0.3 -0.85 0.3 -0.9 0.3 -0.9 0.25 -0.9 0.2 M-0.9 0.3 L-0.9 0.3" fill="#832020" fill-rule="evenodd" stroke="none"/>
    <path d="M-0.45 0.9 L-0.35 1.25 -0.5 1.25 -0.55 1.3 -0.7 1.3 -0.75 1.0 -0.75 0.95 -0.7 0.95 -0.65 0.95 -0.6 0.95 -0.5 0.9 -0.45 0.9 M0.25 2.95 L0.95 3.35 0.8 3.35 Q0.6 3.35 0.15 3.1 L-0.25 2.7 Q-0.25 2.55 -0.2 2.55 L-0.15 2.6 0.0 2.75 0.0 2.8 0.25 2.95 M-0.45 2.3 L-0.5 2.2 -0.45 2.1 -0.45 2.05 -0.35 2.0 -0.3 1.95 -0.25 2.0 -0.15 2.1 -0.25 2.2 -0.3 2.2 Q-0.4 2.3 -0.45 2.3 M-0.45 0.3 L-0.4 0.3 -0.35 0.35 -0.35 0.35 -0.35 0.4 -0.5 0.55 -0.5 0.6 -0.55 0.6 -0.55 0.6 -0.6 0.65 -0.65 0.65 -0.65 0.6 -0.7 0.6 -0.7 0.6 -0.75 0.55 -0.8 0.55 -0.85 0.5 -0.9 0.55 -0.95 0.5 -0.95 0.45 -0.9 0.45 -0.9 0.4 -0.9 0.45 -0.95 0.5 -0.85 0.5 -0.85 0.5 -0.8 0.45 -0.75 0.45 -0.75 0.45 -0.7 0.45 -0.7 0.45 -0.65 0.45 -0.65 0.45 -0.65 0.5 -0.65 0.5 -0.6 0.5 -0.55 0.55 -0.55 0.55 -0.5 0.55 -0.5 0.5 -0.5 0.5 -0.5 0.5 -0.55 0.5 -0.55 0.45 -0.5 0.45 -0.5 0.45 -0.5 0.45 -0.45 0.4 -0.45 0.35 -0.45 0.3 M-0.85 0.6 L-0.8 0.65 -0.85 0.65 -0.85 0.6 M-0.8 0.7 L-0.75 0.7 -0.65 0.75 -0.65 0.75 -0.6 0.75 -0.6 0.7 -0.55 0.7 -0.5 0.7 -0.5 0.7 -0.55 0.75 -0.55 0.75 -0.6 0.75 -0.65 0.75 -0.65 0.75 -0.7 0.75 -0.7 0.75 -0.75 0.75 -0.75 0.7 -0.8 0.7 M-0.35 0.4 L-0.35 0.4 M-0.75 0.25 L-0.75 0.3 -0.8 0.3 -0.8 0.35 -0.8 0.35 -0.85 0.35 -0.85 0.35 -0.9 0.3 -0.85 0.3 -0.85 0.3 -0.8 0.3 -0.8 0.25 -0.8 0.25 -0.75 0.25 M-0.9 0.25 L-0.9 0.2 -0.9 0.2 -0.9 0.25 -0.9 0.3 -0.9 0.3 -0.9 0.25 -0.9 0.25 M-0.95 0.35 L-0.95 0.35 -1.05 0.4 -1.05 0.4 -1.1 0.4 -1.2 0.4 -1.25 0.35 -1.25 0.35 -1.2 0.35 -1.2 0.35 -1.15 0.35 -1.1 0.35 -1.1 0.35 -1.05 0.35 -1.05 0.35 -1.0 0.35 -0.95 0.35 -0.95 0.35 M-0.9 0.55 L-0.9 0.55 M-0.85 0.5 L-0.85 0.5 -0.85 0.5 M-1.25 0.35 L-1.25 0.35" fill="#691919" fill-rule="evenodd" stroke="none"/>
    <path d="M-0.35 0.45 L-0.4 0.55 -0.4 0.6 -0.45 0.65 -0.45 0.7 -0.5 0.7 -0.55 0.7 -0.6 0.7 -0.6 0.75 -0.65 0.75 -0.65 0.75 -0.75 0.7 -0.8 0.7 -0.8 0.65 -0.85 0.6 -0.85 0.6 -0.85 0.5 -0.8 0.55 -0.75 0.55 -0.7 0.6 -0.7 0.6 -0.65 0.6 -0.65 0.65 -0.6 0.65 -0.55 0.6 -0.55 0.6 -0.5 0.6 -0.5 0.55 -0.35 0.4 -0.35 0.45 M-0.9 0.3 L-0.9 0.3 -0.9 0.3 -0.85 0.35 -0.85 0.35 -0.85 0.4 -0.9 0.35 -0.9 0.4 -0.9 0.45 -0.95 0.45 -0.95 0.5 -0.9 0.55 -0.95 0.55 -1.0 0.55 -1.0 0.55 -1.05 0.55 -1.05 0.55 -1.1 0.55 -1.1 0.55 -1.15 0.5 -1.2 0.5 -1.25 0.45 -1.25 0.35 -1.2 0.4 -1.1 0.4 -1.05 0.4 -1.05 0.4 -0.95 0.35 -0.95 0.35 -0.95 0.3 -0.9 0.3 M-1.25 0.35 L-1.25 0.35 M-0.95 0.5 L-0.95 0.5" fill="#3f0e0e" fill-rule="evenodd" stroke="none"/>
    <path d="M0.35 -0.15 L0.3 -0.15 0.3 -0.1 0.3 -0.05 0.25 -0.05 0.25 0.05 0.2 0.05 0.25 0.0 0.25 -0.1 0.25 -0.2 0.3 -0.3 0.35 -0.15 M-0.45 0.3 L-0.4 0.3 -0.35 0.3 -0.3 0.3 -0.35 0.35 -0.4 0.3 -0.45 0.3" fill="#28447b" fill-rule="evenodd" stroke="none"/>
    <path d="M0.15 0.0 L0.15 0.0 0.2 -0.05 0.2 -0.05 0.25 -0.1 0.25 -0.25 0.25 -0.25 0.25 -0.4 0.3 -0.35 0.3 -0.35 0.3 -0.3 0.25 -0.2 0.25 -0.1 0.25 0.0 0.2 0.05 0.25 0.05 0.25 -0.05 0.3 -0.05 0.3 -0.1 0.3 -0.15 0.35 -0.15 0.35 -0.05 0.4 -0.05 0.35 0.0 0.35 0.05 0.35 0.15 0.3 0.15 0.3 0.2 0.25 0.2 0.25 0.1 0.2 0.05 0.15 0.0 M-0.1 0.5 L-0.15 0.5 -0.15 0.55 -0.2 0.6 -0.3 0.65 -0.3 0.65 -0.35 0.6 -0.4 0.6 -0.4 0.6 -0.4 0.55 -0.35 0.45 -0.3 0.4 -0.35 0.4 -0.35 0.35 -0.35 0.35 -0.3 0.3 -0.35 0.3 -0.4 0.3 -0.45 0.3 -0.45 0.3 -0.45 0.25 -0.5 0.25 -0.6 0.25 -0.6 0.25 -0.6 0.25 -0.65 0.25 -0.65 0.25 -0.85 0.15 -0.85 0.15 -0.8 0.15 -0.75 0.15 -0.65 0.2 -0.55 0.2 -0.5 0.2 -0.45 0.2 -0.45 0.2 -0.4 0.2 -0.35 0.2 -0.3 0.2 -0.3 0.2 -0.25 0.2 -0.2 0.2 -0.2 0.35 -0.2 0.4 -0.15 0.45 -0.1 0.5" fill="#203764" fill-rule="evenodd" stroke="none"/>
    <path d="M0.1 0.1 L0.15 0.05 0.15 0.0 0.2 0.05 0.25 0.1 0.25 0.2 0.3 0.2 0.3 0.15 0.35 0.15 0.35 0.05 0.35 0.0 0.4 -0.05 0.4 0.0 0.4 0.1 0.45 0.2 0.35 0.25 0.3 0.3 0.25 0.25 0.25 0.2 0.2 0.2 0.2 0.15 0.15 0.1 0.1 0.1 M-0.15 0.2 L-0.15 0.25 -0.15 0.4 -0.15 0.45 -0.1 0.45 -0.1 0.5 -0.15 0.45 -0.2 0.4 -0.2 0.35 -0.2 0.2 -0.25 0.2 -0.25 0.15 -0.2 0.2 -0.2 0.2 -0.15 0.2 M-0.3 0.65 L-0.35 0.65 -0.35 0.65 -0.4 0.7 -0.45 0.7 -0.45 0.7 -0.45 0.65 -0.4 0.6 -0.4 0.6 -0.35 0.6 -0.3 0.65 M-1.2 0.0 L-1.2 0.0 -1.15 0.05 -1.15 0.05 -1.1 0.05 -1.1 0.05 -1.05 0.05 -1.05 0.05 -1.0 0.1 -0.95 0.1 -0.9 0.1 -0.85 0.15 -0.85 0.15 -0.85 0.15 -0.65 0.25 -0.65 0.25 -0.6 0.25 -0.6 0.25 -0.7 0.25 -0.7 0.25 -0.75 0.25 -0.8 0.25 -0.8 0.25 -0.85 0.25 -0.9 0.2 -0.9 0.2 -0.95 0.2 -0.95 0.15 -1.0 0.15 -1.0 0.15 -1.05 0.15 -1.05 0.15 -1.1 0.15 -1.1 0.15 -1.15 0.15 -1.15 0.05 -1.2 0.05 -1.2 0.0 M-0.9 0.2 L-0.9 0.2 M-1.2 0.05 L-1.15 0.1 -1.2 0.05" fill="#1a2d51" fill-rule="evenodd" stroke="none"/>
    <path d="M-2.25 -0.45 L-2.25 -0.5 -2.2 -0.6 -2.15 -0.6 -2.05 -0.55 -2.05 -0.55 -2.1 -0.55 -2.15 -0.45 -2.15 -0.4 -2.1 -0.35 -2.05 -0.3 -2.0 -0.3 -2.05 -0.25 -2.15 -0.35 -2.15 -0.35 -2.2 -0.4 -2.25 -0.45" fill="#4f294f" fill-rule="evenodd" stroke="none"/>
    <path d="M-1.85 0.9 L-1.85 0.95 -1.9 0.95 -1.95 1.0 -1.95 1.0 -2.0 1.0 -2.0 1.0 -2.05 0.9 -2.05 0.8 -2.0 0.75 -1.95 0.7 -1.9 0.7 -1.9 0.75 -1.85 0.85 -1.8 0.8 -1.8 0.85 -1.85 0.9 M-2.15 -0.6 L-2.15 -0.65 -2.05 -0.6 -2.0 -0.55 -2.05 -0.55 -2.05 -0.55 -2.15 -0.6 M-2.0 -0.55 L-2.0 -0.55 M-1.9 0.7 L-1.9 0.7 M-2.0 1.0 L-1.95 1.0 -2.0 1.0" fill="#502a4f" fill-rule="evenodd" stroke="none"/>
    <path d="M-2.05 -0.55 L-2.0 -0.55 -2.0 -0.55 -1.95 -0.5 -1.9 -0.5 -1.9 -0.4 -1.9 -0.35 -1.9 -0.25 -1.95 -0.25 -2.05 -0.35 -2.1 -0.4 -2.15 -0.4 -2.15 -0.45 -2.1 -0.55 -2.05 -0.55 M-1.9 -0.25 L-1.9 -0.25" fill="#643563" fill-rule="evenodd" stroke="none"/>
    <path d="M-2.25 -0.45 L-2.25 -0.45 -2.2 -0.4 -2.15 -0.35 -2.2 -0.35 -2.2 -0.3 -2.15 -0.3 -2.1 -0.25 -2.15 -0.25 -2.2 -0.25 -2.25 -0.3 -2.25 -0.45 M-2.2 -0.25 L-2.2 -0.25 M-1.0 -0.65 L-1.0 -0.65 -1.0 -0.7 -1.0 -0.65 M-0.8 -0.7 L-0.95 -0.7 -1.0 -0.7 -0.95 -0.75 -0.85 -0.8 -0.8 -0.7 M-0.8 -0.65 L-0.8 -0.65 -0.8 -0.65 -0.8 -0.65" fill="#7f437e" fill-rule="evenodd" stroke="none"/>
    <path d="M-1.95 -0.25 L-1.9 -0.25 -1.9 -0.35 -1.85 -0.3 -1.9 -0.25 -1.9 -0.2 -1.95 -0.25 -2.0 -0.2 -2.1 -0.25 -2.1 -0.25 -2.15 -0.3 -2.15 -0.3 -2.2 -0.35 -2.15 -0.35 -2.15 -0.35 -2.05 -0.25 -2.0 -0.3 -1.95 -0.25 M-2.1 -0.25 L-2.1 -0.25 M-1.9 -0.25 L-1.9 -0.25" fill="#884887" fill-rule="evenodd" stroke="none"/>
    <path d="M-2.4 -0.35 L-2.4 -0.45 -2.3 -0.45 -2.25 -0.45 -2.25 -0.3 -2.2 -0.25 -2.25 -0.25 -2.35 -0.2 -2.4 -0.25 -2.4 -0.35 M-1.45 -0.75 L-1.5 -0.85 -1.45 -0.9 -1.35 -1.0 -1.25 -0.9 -1.25 -0.85 -1.25 -0.8 -1.3 -0.7 -1.3 -0.8 -1.35 -0.8 -1.4 -0.8 -1.45 -0.75 M-2.2 -0.35 L-2.15 -0.3 -2.15 -0.3 -2.2 -0.3 -2.2 -0.35" fill="#a255a1" fill-rule="evenodd" stroke="none"/>
    <path d="M-2.15 -0.4 L-2.1 -0.4 -2.05 -0.35 -1.95 -0.25 -2.0 -0.3 -2.05 -0.3 -2.1 -0.35 -2.15 -0.4" fill="#693769" fill-rule="evenodd" stroke="none"/>
    <path d="M-2.35 -0.15 L-2.45 -0.15 -2.5 -0.2 -2.55 -0.3 -2.45 -0.35 -2.4 -0.35 -2.4 -0.25 -2.35 -0.2 -2.35 -0.15 -2.35 -0.15" fill="#6a3769" fill-rule="evenodd" stroke="none"/>
    <path d="M-2.35 -0.15 L-2.35 -0.2 -2.25 -0.25 -2.25 -0.25 -2.05 -0.15 -2.0 -0.15 -2.05 -0.1 -2.05 -0.05 -2.1 -0.05 -2.2 -0.05 -2.25 -0.05 -2.3 -0.05 -2.35 -0.15 M-1.2 0.5 L-1.15 0.5 -1.15 0.55 -1.15 0.55 -1.2 0.6 -1.25 0.6 -1.2 0.5" fill="#663666" fill-rule="evenodd" stroke="none"/>
    <path d="M-2.45 0.15 L-2.5 0.15 -2.5 0.15 -2.6 0.05 -2.5 -0.05 -2.4 -0.05 -2.35 -0.05 -2.3 -0.05 -2.3 0.0 -2.3 0.0 -2.35 0.05 -2.4 0.05 -2.4 0.15 -2.45 0.15" fill="#4f294e" fill-rule="evenodd" stroke="none"/>
    <path d="M-2.35 -0.1 L-2.4 -0.1 -2.35 -0.15 -2.3 -0.05 -2.25 -0.05 -2.25 -0.05 -2.3 -0.05 -2.35 -0.1 M-2.0 -0.55 L-2.0 -0.6 -1.95 -0.6 -1.95 -0.55 -1.95 -0.5 -2.0 -0.55 -2.0 -0.55 -2.0 -0.55 M-2.35 -0.15 L-2.35 -0.15" fill="#6a386a" fill-rule="evenodd" stroke="none"/>
    <path d="M-2.35 -0.05 L-2.3 -0.05 -2.3 -0.05 -2.35 -0.05 M-2.25 -0.05 L-2.2 -0.05 -2.2 0.0 -2.3 0.0 -2.3 -0.05 -2.25 -0.05 -2.25 -0.05" fill="#613360" fill-rule="evenodd" stroke="none"/>
    <path d="M-2.35 0.05 L-2.3 0.0 -2.3 0.0 -2.2 0.0 -2.2 -0.05 -2.15 0.0 -2.25 0.05 -2.35 0.05" fill="#954e94" fill-rule="evenodd" stroke="none"/>
    <path d="M-2.3 -0.05 L-2.35 -0.1 -2.3 -0.05 -2.3 -0.05" fill="#653565" fill-rule="evenodd" stroke="none"/>
    <path d="M-1.5 0.95 L-1.5 1.0 -1.6 1.1 -1.7 1.0 -1.7 0.85 -1.6 0.95 -1.5 0.9 -1.5 0.95 M-2.1 -0.25 L-2.1 -0.25 -2.0 -0.2 -2.05 -0.2 -2.05 -0.2 -2.1 -0.25 M-1.7 0.85 L-1.7 0.85" fill="#924d91" fill-rule="evenodd" stroke="none"/>
    <path d="M-2.45 0.6 L-2.45 0.5 -2.4 0.45 -2.35 0.45 -2.3 0.4 -2.25 0.4 -2.2 0.4 -2.15 0.45 -2.15 0.45 -2.25 0.5 -2.3 0.6 -2.3 0.6 -2.3 0.6 -2.3 0.65 -2.35 0.65 -2.45 0.6 M-2.05 -0.15 L-2.25 -0.25 -2.25 -0.25 -2.2 -0.25 -2.15 -0.25 -2.1 -0.25 -2.05 -0.2 -2.05 -0.2 -2.05 -0.15 M-2.2 -0.25 L-2.2 -0.25 M-2.15 0.45 L-2.15 0.45" fill="#532b52" fill-rule="evenodd" stroke="none"/>
    <path d="M-2.0 -0.2 L-1.95 -0.25 -1.9 -0.2 -1.95 -0.2 -2.0 -0.15 -2.05 -0.15 -2.05 -0.2 -2.0 -0.2 M-2.2 -0.05 L-2.1 -0.05 -2.05 -0.05 -2.05 0.05 -2.1 0.2 -2.05 0.25 -2.05 0.3 -2.15 0.25 -2.15 0.2 -2.2 0.15 -2.15 0.15 -2.05 0.0 -2.15 0.0 -2.2 -0.05 M-2.15 0.25 L-2.15 0.25 -2.15 0.25 M-2.05 0.3 L-2.05 0.3 -2.0 0.3 -2.0 0.3 -2.05 0.3 -2.05 0.3 M-1.7 -0.5 L-1.7 -0.5 -1.65 -0.5 -1.7 -0.5 M-1.65 -0.5 L-1.65 -0.5 M-1.9 -0.2 L-1.9 -0.2" fill="#322a67" fill-rule="evenodd" stroke="none"/>
    <path d="M-2.1 -0.25 L-2.1 -0.25 -2.15 -0.25 -2.2 -0.25 -2.15 -0.25 -2.1 -0.25" fill="#3e213e" fill-rule="evenodd" stroke="none"/>
    <path d="M-2.05 -0.05 L-2.05 -0.1 -2.0 -0.15 -1.95 -0.2 -1.8 -0.3 -1.55 -0.25 -1.5 -0.15 -1.5 -0.15 -1.65 -0.1 -1.7 0.0 -1.7 0.1 -1.55 0.15 -1.6 0.2 -1.6 0.2 -1.6 0.25 -1.65 0.25 -1.75 0.1 -1.8 0.15 -1.85 0.15 -1.95 0.15 -1.95 0.15 -2.0 0.3 -2.05 0.25 -2.1 0.2 -2.05 0.05 -2.05 -0.05 M-2.05 0.25 L-2.05 0.25" fill="#1f1a40" fill-rule="evenodd" stroke="none"/>
    <path d="M-2.1 0.7 L-2.1 0.7 -2.0 0.7 -1.95 0.65 -1.95 0.65 -1.9 0.7 -1.95 0.7 -2.0 0.75 -2.05 0.8 -2.1 0.75 -2.1 0.7 -2.1 0.7 M-1.5 -0.85 L-1.5 -0.9 -1.45 -1.0 -1.3 -1.1 -1.25 -0.95 -1.25 -0.85 -1.25 -0.9 -1.35 -1.0 -1.45 -0.9 -1.5 -0.85 M-1.95 0.65 L-1.95 0.65" fill="#5b305b" fill-rule="evenodd" stroke="none"/>
    <path d="M-1.3 -0.7 L-1.3 -0.65 -1.35 -0.7 -1.35 -0.8 -1.3 -0.8 -1.3 -0.7 M-1.3 -0.6 L-1.3 -0.65 -1.3 -0.65 -1.3 -0.6" fill="#7b417a" fill-rule="evenodd" stroke="none"/>
    <path d="M-1.5 -0.75 L-1.45 -0.75 -1.4 -0.8 -1.35 -0.8 -1.35 -0.7 -1.3 -0.65 -1.3 -0.6 -1.35 -0.6 -1.35 -0.55 -1.35 -0.55 -1.4 -0.55 -1.45 -0.6 -1.45 -0.7 -1.5 -0.75" fill="#5d315c" fill-rule="evenodd" stroke="none"/>
    <path d="M-1.65 -0.75 L-1.55 -0.8 -1.5 -0.75 -1.45 -0.7 -1.45 -0.6 -1.55 -0.6 -1.65 -0.5 -1.7 -0.55 -1.7 -0.65 -1.65 -0.65 -1.65 -0.7 -1.65 -0.75 M-1.65 -0.5 L-1.65 -0.5 -1.65 -0.5 M-2.05 0.4 L-2.05 0.45 -2.1 0.45 -2.1 0.4 -2.05 0.4" fill="#733c72" fill-rule="evenodd" stroke="none"/>
    <path d="M-1.3 -0.65 L-1.3 -0.7 -1.25 -0.75 -1.2 -0.8 -1.15 -0.8 -1.1 -0.7 -1.1 -0.7 -1.1 -0.7 -1.05 -0.6 -1.1 -0.5 -1.2 -0.45 -1.2 -0.4 -1.25 -0.45 -1.25 -0.5 -1.25 -0.5 -1.3 -0.55 -1.3 -0.55 -1.3 -0.6 -1.3 -0.65 -1.3 -0.65" fill="#b25eb1" fill-rule="evenodd" stroke="none"/>
    <path d="M-1.15 -0.85 L-1.05 -0.9 -1.0 -0.8 -1.0 -0.75 -1.0 -0.7 -1.0 -0.7 -1.1 -0.7 -1.1 -0.7 -1.15 -0.8 -1.2 -0.8 -1.15 -0.85" fill="#572e57" fill-rule="evenodd" stroke="none"/>
    <path d="M-1.1 -0.7 L-1.0 -0.7 -1.0 -0.7 -1.0 -0.65 -1.05 -0.65 -1.05 -0.65 -1.1 -0.7 -1.1 -0.7 M-1.0 -0.65 L-1.0 -0.65" fill="#763e76" fill-rule="evenodd" stroke="none"/>
    <path d="M-1.1 -0.7 L-1.05 -0.65 -1.05 -0.65 -1.05 -0.55 -1.05 -0.5 -1.15 -0.45 -1.2 -0.45 -1.1 -0.5 -1.05 -0.6 -1.1 -0.7 M-1.2 -0.4 L-1.2 -0.4 -1.25 -0.45 -1.25 -0.45 -1.2 -0.4" fill="#a858a7" fill-rule="evenodd" stroke="none"/>
    <path d="M-1.9 -0.7 L-1.85 -0.75 -1.8 -0.7 -1.75 -0.7 -1.75 -0.6 -1.75 -0.45 -1.8 -0.45 -1.8 -0.45 -1.85 -0.45 -1.8 -0.4 -1.85 -0.4 -1.8 -0.5 -1.8 -0.6 -1.85 -0.65 -1.9 -0.7 -1.9 -0.7 M-2.2 0.15 L-2.15 0.2 -2.2 0.2 -2.2 0.15 -2.2 0.15 M-1.65 -0.65 L-1.7 -0.7 -1.65 -0.7 -1.65 -0.65 M-2.2 0.2 L-2.2 0.2" fill="#904c8f" fill-rule="evenodd" stroke="none"/>
    <path d="M-1.95 -0.6 L-1.95 -0.65 -1.9 -0.7 -1.9 -0.7 -1.85 -0.65 -1.8 -0.6 -1.8 -0.5 -1.85 -0.4 -1.9 -0.5 -1.95 -0.55 -1.95 -0.6" fill="#3f213f" fill-rule="evenodd" stroke="none"/>
    <path d="M-1.9 -0.7 L-1.9 -0.7 -1.9 -0.7" fill="#743d74" fill-rule="evenodd" stroke="none"/>
    <path d="M-1.75 -0.7 L-1.65 -0.75 -1.65 -0.75 -1.65 -0.7 -1.7 -0.7 -1.7 -0.7 -1.75 -0.7" fill="#683768" fill-rule="evenodd" stroke="none"/>
    <path d="M-1.8 -0.7 L-1.75 -0.7 -1.8 -0.7 M-1.75 -0.45 L-1.75 -0.6 -1.75 -0.7 -1.7 -0.7 -1.7 -0.7 -1.65 -0.65 -1.7 -0.65 -1.7 -0.55 -1.7 -0.5 -1.75 -0.45 -1.75 -0.45 -1.75 -0.45" fill="#552c54" fill-rule="evenodd" stroke="none"/>
    <path d="M-1.45 -0.6 L-1.4 -0.55 -1.35 -0.55 -1.35 -0.5 -1.25 -0.4 -1.25 -0.4 -1.3 -0.4 -1.3 -0.35 -1.45 -0.45 -1.5 -0.5 -1.55 -0.5 -1.55 -0.5 -1.65 -0.5 -1.65 -0.5 -1.55 -0.6 -1.45 -0.6 M-1.3 -0.35 L-1.3 -0.35 -1.3 -0.3 -1.3 -0.35 M-1.65 -0.5 L-1.65 -0.5" fill="#312965" fill-rule="evenodd" stroke="none"/>
    <path d="M-1.55 -0.5 L-1.55 -0.5 -1.5 -0.5 -1.45 -0.45 -1.3 -0.35 -1.35 -0.35 -1.45 -0.45 -1.45 -0.45 -1.5 -0.5 -1.55 -0.5 -1.55 -0.5 M-1.3 -0.35 L-1.3 -0.35" fill="#2b2458" fill-rule="evenodd" stroke="none"/>
    <path d="M-1.8 -0.45 L-1.8 -0.45 -1.75 -0.45 -1.8 -0.45 M-1.65 -0.5 L-1.65 -0.5 -1.55 -0.5 -1.55 -0.5 -1.5 -0.45 -1.5 -0.45 -1.55 -0.4 -1.55 -0.45 -1.65 -0.5 -1.65 -0.5 -1.65 -0.5 M-1.75 -0.45 L-1.75 -0.45 M-1.8 -0.35 L-1.85 -0.35 -1.85 -0.4 -1.8 -0.35 M-1.25 0.35 L-1.25 0.45 -1.2 0.5 -1.25 0.6 -1.25 0.6 -1.3 0.65 -1.3 0.65 -1.35 0.7 -1.45 0.8 -1.5 0.8 -1.55 0.8 -1.65 0.75 -1.7 0.75 -1.7 0.7 -1.75 0.7 -1.75 0.7 -1.85 0.55 -1.85 0.5 -1.8 0.6 -1.55 0.65 -1.5 0.6 -1.5 0.6 -1.45 0.6 -1.45 0.6 -1.4 0.55 -1.4 0.55 -1.35 0.5 -1.3 0.5 -1.3 0.4 -1.3 0.35 -1.35 0.3 -1.3 0.3 -1.3 0.3 -1.25 0.3 -1.25 0.35" fill="#3a3177" fill-rule="evenodd" stroke="none"/>
    <path d="M-1.8 -0.4 L-1.85 -0.45 -1.8 -0.45 -1.75 -0.45 -1.75 -0.45 -1.7 -0.5 -1.7 -0.5 -1.65 -0.5 -1.65 -0.5 -1.65 -0.5 -1.65 -0.5 -1.65 -0.35 -1.65 -0.35 -1.75 -0.4 -1.8 -0.4 -1.8 -0.35 -1.85 -0.4 -1.8 -0.4 M-1.6 0.2 L-1.55 0.25 -1.55 0.3 -1.55 0.3 -1.6 0.25 -1.6 0.2 M-1.6 0.25 L-1.6 0.25 -1.6 0.25 M-1.8 0.15 L-1.8 0.15 -1.85 0.25 -1.8 0.35 -1.8 0.35 -1.85 0.25 -1.85 0.15 -1.8 0.15" fill="#201b43" fill-rule="evenodd" stroke="none"/>
    <path d="M-2.3 0.75 L-2.35 0.75 -2.45 0.7 -2.45 0.6 -2.35 0.65 -2.3 0.65 -2.3 0.75 M-1.65 -0.5 L-1.7 -0.5 -1.7 -0.5 -1.7 -0.55 -1.65 -0.5 M-1.7 -0.5 L-1.7 -0.5 M-2.3 0.65 L-2.3 0.65" fill="#934d92" fill-rule="evenodd" stroke="none"/>
    <path d="M-1.65 -0.5 L-1.65 -0.5 -1.55 -0.45 -1.55 -0.4 -1.6 -0.4 -1.65 -0.35 -1.65 -0.5 M-1.65 -0.35 L-1.7 -0.35 -1.8 -0.35 -1.8 -0.4 -1.75 -0.4 -1.65 -0.35" fill="#2e275e" fill-rule="evenodd" stroke="none"/>
    <path d="M-1.45 -0.45 L-1.45 -0.45 -1.35 -0.35 -1.3 -0.35 -1.3 -0.3 -1.3 -0.3 -1.25 -0.2 -1.25 -0.15 -1.2 -0.1 -1.2 0.0 -1.2 0.05 -1.15 0.05 -1.2 0.15 -1.25 0.05 -1.25 0.0 -1.3 -0.05 -1.35 -0.2 -1.5 -0.35 -1.7 -0.35 -1.65 -0.35 -1.6 -0.4 -1.55 -0.4 -1.5 -0.45 -1.45 -0.45 M-1.65 -0.35 L-1.65 -0.35 M-1.5 0.2 L-1.5 0.2 -1.45 0.25 -1.5 0.3 -1.5 0.2 M-1.5 0.3 L-1.5 0.3 M-1.5 0.15 L-1.55 0.15 -1.5 0.15 M-1.55 0.15 L-1.55 0.15 M-1.6 0.25 L-1.6 0.25 -1.65 0.25 -1.6 0.25" fill="#302963" fill-rule="evenodd" stroke="none"/>
    <path d="M-1.9 -0.4 L-1.9 -0.5 -1.95 -0.5 -1.95 -0.55 -1.9 -0.5 -1.85 -0.4 -1.8 -0.4 -1.85 -0.4 -1.85 -0.35 -1.9 -0.4 M-1.85 -0.35 L-1.85 -0.35 M-1.95 0.55 L-1.95 0.55 -1.95 0.65 -2.05 0.7 -2.0 0.65 -2.0 0.6 -2.0 0.6 -1.95 0.55 M-1.95 0.65 L-1.95 0.65 M-2.05 0.4 L-2.05 0.45 -2.05 0.4 M-2.05 0.45 L-2.05 0.45" fill="#854684" fill-rule="evenodd" stroke="none"/>
    <path d="M-1.9 -0.35 L-1.9 -0.4 -1.85 -0.35 -1.85 -0.3 -1.9 -0.35" fill="#372e71" fill-rule="evenodd" stroke="none"/>
    <path d="M-1.9 -0.25 L-1.9 -0.25 -1.9 -0.25 -1.85 -0.3 -1.85 -0.35 -1.8 -0.35 -1.7 -0.35 -1.5 -0.35 -1.35 -0.2 -1.3 -0.05 -1.35 -0.05 -1.45 -0.05 -1.5 -0.05 -1.45 -0.1 -1.5 -0.15 -1.55 -0.25 -1.8 -0.3 -1.95 -0.2 -1.9 -0.2 -1.9 -0.25 M-1.8 -0.35 L-1.8 -0.35 M-1.85 -0.35 L-1.85 -0.35 M-1.55 0.15 L-1.55 0.1 -1.55 0.15 -1.55 0.15 -1.55 0.15 M-1.25 0.25 L-1.25 0.25 -1.25 0.35 -1.25 0.3 -1.3 0.3 -1.3 0.3 -1.35 0.3 -1.25 0.25 -1.25 0.25" fill="#362d6e" fill-rule="evenodd" stroke="none"/>
    <path d="M-1.8 -0.4 L-1.8 -0.35 -1.8 -0.35 -1.8 -0.4" fill="#393075" fill-rule="evenodd" stroke="none"/>
    <path d="M-1.9 -0.2 L-1.9 -0.25 -1.9 -0.2 -1.9 -0.2" fill="#9b519a" fill-rule="evenodd" stroke="none"/>
    <path d="M-1.5 -0.15 L-1.45 -0.1 -1.5 -0.05 -1.55 -0.05 -1.6 0.05 -1.55 0.1 -1.55 0.15 -1.7 0.1 -1.7 0.0 -1.65 -0.1 -1.5 -0.15 -1.5 -0.15" fill="#1f1a3f" fill-rule="evenodd" stroke="none"/>
    <path d="M-1.05 -0.65 L-1.0 -0.65 -1.0 -0.65 -0.9 -0.65 -0.85 -0.6 -0.9 -0.6 -0.9 -0.55 -0.9 -0.6 -1.05 -0.6 -1.05 -0.55 -1.05 -0.65" fill="#472546" fill-rule="evenodd" stroke="none"/>
    <path d="M-1.05 -0.5 L-1.05 -0.55 -1.05 -0.6 -0.9 -0.6 -0.9 -0.55 -0.95 -0.55 -1.0 -0.5 -1.05 -0.5" fill="#492648" fill-rule="evenodd" stroke="none"/>
    <path d="M-1.25 -0.5 L-1.25 -0.45 -1.25 -0.45 -1.25 -0.45 -1.3 -0.5 -1.35 -0.5 -1.3 -0.55 -1.3 -0.55 -1.3 -0.55 -1.25 -0.5 M-1.3 -0.55 L-1.3 -0.55" fill="#3a3178" fill-rule="evenodd" stroke="none"/>
    <path d="M-1.25 -0.45 L-1.2 -0.4 -1.25 -0.45 -1.25 -0.45" fill="#3c337b" fill-rule="evenodd" stroke="none"/>
    <path d="M-1.25 -0.4 L-1.35 -0.5 -1.3 -0.5 -1.25 -0.45 -1.2 -0.4 -1.25 -0.4" fill="#453a8d" fill-rule="evenodd" stroke="none"/>
    <path d="M-1.35 -0.55 L-1.35 -0.55 -1.35 -0.6 -1.3 -0.6 -1.3 -0.55 -1.3 -0.55 -1.35 -0.5 -1.35 -0.55 M-1.3 -0.65 L-1.3 -0.6 -1.3 -0.65" fill="#7c417c" fill-rule="evenodd" stroke="none"/>
    <path d="M-1.25 -0.5 L-1.3 -0.55 -1.25 -0.5 -1.25 -0.5" fill="#452445" fill-rule="evenodd" stroke="none"/>
    <path d="M-1.55 -0.5 L-1.5 -0.5 -1.45 -0.45 -1.5 -0.45 -1.5 -0.45 -1.55 -0.5" fill="#1b1738" fill-rule="evenodd" stroke="none"/>
    <path d="M-1.3 -0.05 L-1.25 0.0 -1.25 0.05 -1.2 0.15 -1.2 0.15 -1.2 0.2 -1.25 0.25 -1.25 0.25 -1.35 0.3 -1.35 0.3 -1.45 0.25 -1.5 0.2 -1.5 0.15 -1.55 0.15 -1.55 0.1 -1.6 0.05 -1.55 -0.05 -1.5 -0.05 -1.45 -0.05 -1.35 -0.05 -1.3 -0.05 M-1.5 0.2 L-1.5 0.2" fill="#191534" fill-rule="evenodd" stroke="none"/>
    <path d="M-0.85 -0.6 L-0.9 -0.65 -1.0 -0.65 -1.0 -0.65 -1.0 -0.7 -0.95 -0.7 -0.8 -0.7 -0.8 -0.65 -0.8 -0.65 -0.8 -0.6 -0.85 -0.6" fill="#c96ac7" fill-rule="evenodd" stroke="none"/>
    <path d="M-1.0 -0.75 L-0.95 -0.75 -0.85 -0.85 -0.8 -0.75 -0.8 -0.7 -0.85 -0.8 -0.95 -0.75 -1.0 -0.7 -1.0 -0.75 M-1.0 -0.65 L-1.0 -0.7 -1.0 -0.65 M-0.8 -0.65 L-0.8 -0.7 -0.8 -0.65 -0.8 -0.65" fill="#8a4889" fill-rule="evenodd" stroke="none"/>
    <path d="M-0.8 -0.75 L-0.75 -0.75 -0.65 -0.75 -0.65 -0.65 -0.7 -0.65 -0.75 -0.6 -0.8 -0.6 -0.8 -0.65 -0.8 -0.7 -0.8 -0.75 -0.8 -0.75 M-0.8 -0.65 L-0.8 -0.65" fill="#572d56" fill-rule="evenodd" stroke="none"/>
    <path d="M-0.85 -0.85 L-0.8 -0.75 -0.85 -0.85 M-0.8 -0.75 L-0.8 -0.75" fill="#5b305a" fill-rule="evenodd" stroke="none"/>
    <path d="M-1.2 0.15 L-1.15 0.05 -1.15 0.15 -1.2 0.15 -1.2 0.15 -1.2 0.15 -1.2 0.15 M-1.15 0.15 L-1.15 0.15" fill="#1c183a" fill-rule="evenodd" stroke="none"/>
    <path d="M-1.2 0.15 L-1.2 0.15 -1.2 0.2 -1.2 0.15 M-1.15 0.15 L-1.15 0.15 -1.15 0.15 M-1.2 0.2 L-1.2 0.2" fill="#312a65" fill-rule="evenodd" stroke="none"/>
    <path d="M-1.2 0.2 L-1.25 0.25 -1.2 0.2 -1.2 0.2 M-1.25 0.25 L-1.25 0.25" fill="#1f1b41" fill-rule="evenodd" stroke="none"/>
    <path d="M-1.5 0.2 L-1.45 0.25 -1.5 0.2 M-1.5 0.3 L-1.45 0.25 -1.45 0.3 -1.5 0.3 M-1.45 0.3 L-1.45 0.3" fill="#5044a5" fill-rule="evenodd" stroke="none"/>
    <path d="M-1.5 0.3 L-1.5 0.3 -1.45 0.3 -1.45 0.3 -1.4 0.3 -1.35 0.3 -1.3 0.35 -1.3 0.4 -1.3 0.5 -1.4 0.55 -1.4 0.55 -1.45 0.6 -1.45 0.6 -1.5 0.6 -1.45 0.55 -1.4 0.45 -1.55 0.3 -1.5 0.3 M-1.65 0.35 L-1.7 0.35 -1.7 0.35 -1.65 0.35" fill="#131028" fill-rule="evenodd" stroke="none"/>
    <path d="M-1.5 0.2 L-1.5 0.3 -1.55 0.3 -1.55 0.25 -1.6 0.2 -1.6 0.2 -1.55 0.15 -1.5 0.15 -1.5 0.2 M-1.55 0.15 L-1.55 0.15 M-1.55 0.3 L-1.55 0.3" fill="#16132e" fill-rule="evenodd" stroke="none"/>
    <path d="M-1.45 0.3 L-1.45 0.3 -1.45 0.3 -1.45 0.3" fill="#120f25" fill-rule="evenodd" stroke="none"/>
    <path d="M-1.45 0.3 L-1.45 0.3 -1.45 0.25 -1.4 0.3 -1.45 0.3" fill="#633463" fill-rule="evenodd" stroke="none"/>
    <path d="M-1.25 0.35 L-1.25 0.35 -1.25 0.35 -1.25 0.3 -1.25 0.35 M-1.45 0.25 L-1.35 0.3 -1.35 0.3 -1.3 0.3 -1.35 0.3 -1.4 0.3 -1.45 0.25 M-1.85 0.5 L-1.85 0.55 -1.75 0.7 -1.8 0.7 -1.95 0.65 -1.95 0.55 -1.95 0.5 -2.0 0.45 -2.0 0.4 -2.0 0.3 -1.95 0.15 -1.95 0.15 -1.85 0.15 -1.85 0.25 -1.8 0.35 -1.8 0.35 -1.85 0.5 M-1.6 0.25 L-1.55 0.3 -1.55 0.3 -1.65 0.35 -1.6 0.25 M-1.75 0.35 L-1.8 0.35 -1.75 0.35 M-1.95 0.55 L-1.95 0.55" fill="#393076" fill-rule="evenodd" stroke="none"/>
    <path d="M-1.3 0.5 L-1.35 0.5 -1.4 0.55 -1.3 0.5 M-1.45 0.6 L-1.5 0.6 -1.5 0.6 -1.45 0.6 M-1.5 0.6 L-1.5 0.6" fill="#272150" fill-rule="evenodd" stroke="none"/>
    <path d="M-1.55 0.3 L-1.55 0.3 -1.4 0.45 -1.45 0.55 -1.5 0.6 -1.5 0.6 -1.55 0.65 -1.8 0.6 -1.85 0.5 -1.8 0.35 -1.75 0.35 -1.7 0.35 -1.65 0.35 -1.55 0.3 M-1.65 0.35 L-1.65 0.35" fill="#120f24" fill-rule="evenodd" stroke="none"/>
    <path d="M-1.15 0.5 L-1.1 0.55 -1.15 0.55 -1.15 0.5" fill="#844583" fill-rule="evenodd" stroke="none"/>
    <path d="M-1.6 0.25 L-1.6 0.25 -1.65 0.35 -1.65 0.35 -1.7 0.35 -1.7 0.35 -1.75 0.35 -1.8 0.35 -1.85 0.25 -1.8 0.15 -1.8 0.15 -1.75 0.1 -1.65 0.25 -1.6 0.25" fill="#221d46" fill-rule="evenodd" stroke="none"/>
    <path d="M-2.05 0.45 L-2.0 0.45 -2.0 0.45 -2.05 0.45" fill="#8e4b8d" fill-rule="evenodd" stroke="none"/>
    <path d="M-2.15 0.25 L-2.05 0.3 -2.05 0.35 -2.0 0.4 -2.0 0.45 -2.0 0.45 -2.05 0.45 -2.05 0.4 -2.1 0.4 -2.1 0.4 -2.1 0.35 -2.15 0.3 -2.15 0.25 -2.15 0.25 M-2.0 0.45 L-2.0 0.45 M-2.05 0.3 L-2.05 0.3 -2.05 0.3 M-2.05 0.45 L-2.05 0.45" fill="#6959d7" fill-rule="evenodd" stroke="none"/>
    <path d="M-2.0 0.3 L-2.0 0.4 -2.05 0.35 -2.05 0.3 -2.0 0.3 -2.0 0.3" fill="#352c6c" fill-rule="evenodd" stroke="none"/>
    <path d="M-2.0 0.45 L-1.95 0.5 -1.95 0.55 -2.0 0.6 -2.0 0.6 -2.0 0.5 -2.05 0.5 -2.15 0.5 -2.2 0.55 -2.25 0.6 -2.3 0.6 -2.3 0.6 -2.2 0.5 -2.15 0.45 -2.1 0.45 -2.05 0.45 -2.05 0.45 -2.05 0.45 -2.0 0.45 -2.0 0.45 M-2.15 0.45 L-2.15 0.45" fill="#a154a0" fill-rule="evenodd" stroke="none"/>
    <path d="M-2.1 0.7 L-2.15 0.75 -2.3 0.75 -2.3 0.65 -2.3 0.7 -2.15 0.7 -2.05 0.65 -2.05 0.55 -2.0 0.55 -2.05 0.5 -2.0 0.5 -2.0 0.6 -2.0 0.65 -2.05 0.7 -2.1 0.7 -2.1 0.7" fill="#ff87fe" fill-rule="evenodd" stroke="none"/>
    <path d="M-1.7 0.85 L-1.7 0.9 -1.85 0.9 -1.8 0.85 -1.75 0.8 -1.75 0.8 -1.75 0.75 -1.7 0.7 -1.7 0.75 -1.7 0.8 -1.65 0.8 -1.65 0.8 -1.7 0.85 -1.7 0.85" fill="#b961b8" fill-rule="evenodd" stroke="none"/>
    <path d="M-1.7 0.75 L-1.65 0.75 -1.55 0.8 -1.55 0.8 -1.6 0.8 -1.65 0.8 -1.7 0.8 -1.7 0.75" fill="#713b70" fill-rule="evenodd" stroke="none"/>
    <path d="M-1.75 0.7 L-1.75 0.7 -1.7 0.7 -1.75 0.75 -1.75 0.8 -1.8 0.8 -1.85 0.85 -1.9 0.75 -1.9 0.7 -1.9 0.75 -1.85 0.75 -1.8 0.7 -1.75 0.7" fill="#ca6bc9" fill-rule="evenodd" stroke="none"/>
    <path d="M-1.7 0.85 L-1.65 0.8 -1.65 0.8 -1.6 0.8 -1.55 0.9 -1.5 0.9 -1.6 0.95 -1.7 0.85" fill="#703b6f" fill-rule="evenodd" stroke="none"/>
    <path d="M-1.75 0.8 L-1.75 0.8 -1.8 0.85 -1.8 0.8 -1.75 0.8" fill="#512a50" fill-rule="evenodd" stroke="none"/>
    <path d="M-1.4 0.85 L-1.45 0.95 -1.5 0.95 -1.5 0.9 -1.55 0.9 -1.6 0.8 -1.55 0.8 -1.55 0.8 -1.5 0.8 -1.45 0.9 -1.4 0.85 -1.4 0.85" fill="#af5caf" fill-rule="evenodd" stroke="none"/>
    <path d="M-1.95 0.55 L-1.95 0.65 -1.8 0.7 -1.85 0.75 -1.85 0.7 -1.9 0.7 -1.95 0.65 -1.95 0.65 -1.95 0.55 M-1.9 0.7 L-1.9 0.7" fill="#9b529a" fill-rule="evenodd" stroke="none"/>
    <path d="M-1.9 0.95 L-1.9 1.0 -1.95 1.0 -1.9 0.95 M-2.0 1.0 L-2.05 1.0 -2.05 0.95 -2.05 0.9 -2.05 0.8 -2.05 0.9 -2.0 1.0 M-1.9 0.7 L-1.85 0.7 -1.85 0.75 -1.9 0.75 -1.9 0.7 M-2.0 0.75 L-2.05 0.8 -2.0 0.75 M-1.9 1.0 L-1.95 1.0 -1.9 1.0 M-1.95 1.0 L-1.95 1.0" fill="#562d56" fill-rule="evenodd" stroke="none"/>
    <path d="M-2.1 0.7 L-2.1 0.7 -2.05 0.7 -1.95 0.65 -2.0 0.7 -2.1 0.7 -2.1 0.7 -2.1 0.7" fill="#a356a2" fill-rule="evenodd" stroke="none"/>
    <path d="M-1.5 0.8 L-1.45 0.8 -1.35 0.7 -1.35 0.75 -1.4 0.8 -1.4 0.85 -1.45 0.9 -1.5 0.8 M-1.4 0.85 L-1.4 0.85" fill="#a456a3" fill-rule="evenodd" stroke="none"/>
    <path d="M-2.15 0.0 L-2.05 0.0 -2.15 0.15 -2.2 0.15 -2.2 0.2 -2.25 0.2 -2.25 0.2 -2.3 0.2 -2.45 0.15 -2.4 0.15 -2.4 0.05 -2.35 0.05 -2.25 0.05 -2.15 0.0 M-2.2 0.2 L-2.2 0.2 M-2.2 0.15 L-2.2 0.15" fill="#3e203e" fill-rule="evenodd" stroke="none"/>
    <path d="M-2.15 0.25 L-2.15 0.25 -2.15 0.3 -2.1 0.35 -2.2 0.3 -2.2 0.2 -2.15 0.2 -2.15 0.25 -2.15 0.25 M-2.2 0.2 L-2.2 0.2" fill="#2c255a" fill-rule="evenodd" stroke="none"/>
    <path d="M-2.35 0.4 L-2.4 0.35 -2.35 0.35 -2.3 0.3 -2.25 0.2 -2.25 0.2 -2.2 0.2 -2.15 0.2 -2.15 0.25 -2.15 0.25 -2.15 0.2 -2.2 0.2 -2.2 0.3 -2.1 0.35 -2.1 0.4 -2.15 0.4 -2.15 0.4 -2.2 0.4 -2.25 0.4 -2.3 0.4 -2.3 0.4 -2.35 0.4 M-2.2 0.2 L-2.2 0.2 M-2.15 0.25 L-2.15 0.25 -2.15 0.25" fill="#e77ae6" fill-rule="evenodd" stroke="none"/>
    <path d="M-2.2 0.2 L-2.2 0.15 -2.2 0.2 -2.2 0.2" fill="#362e6f" fill-rule="evenodd" stroke="none"/>
    <path d="M-2.2 0.2 L-2.2 0.2 -2.2 0.2 -2.2 0.2" fill="#6f3a6e" fill-rule="evenodd" stroke="none"/>
    <path d="M-2.05 0.3 L-2.05 0.3 -2.05 0.3 -2.05 0.25 -2.0 0.3 -2.05 0.3" fill="#402240" fill-rule="evenodd" stroke="none"/>
    <path d="M-2.05 0.3 L-2.05 0.25 -2.05 0.3 M-2.05 0.25 L-2.05 0.25" fill="#6e3a6d" fill-rule="evenodd" stroke="none"/>
    <path d="M-2.4 0.35 L-2.45 0.35 -2.6 0.35 -2.55 0.2 -2.45 0.15 -2.4 0.15 -2.45 0.15 -2.3 0.2 -2.25 0.2 -2.3 0.3 -2.35 0.35 -2.4 0.35" fill="#a657a5" fill-rule="evenodd" stroke="none"/>
    <path d="M-2.4 0.45 L-2.4 0.45 -2.35 0.45 -2.35 0.4 -2.3 0.4 -2.35 0.45 -2.4 0.45 M-2.3 0.4 L-2.3 0.4 M-2.15 0.45 L-2.2 0.4 -2.15 0.4 -2.1 0.45 -2.15 0.45" fill="#432343" fill-rule="evenodd" stroke="none"/>
    <path d="M-2.35 0.4 L-2.35 0.4 -2.3 0.4 -2.35 0.4 M-2.1 0.45 L-2.15 0.4 -2.15 0.4 -2.1 0.4 -2.1 0.4 -2.1 0.45" fill="#60325f" fill-rule="evenodd" stroke="none"/>
    <path d="M-2.0 0.5 L-2.05 0.5 -2.05 0.5 -2.0 0.5 M-2.05 0.55 L-2.05 0.65 -2.15 0.7 -2.3 0.7 -2.3 0.65 -2.3 0.6 -2.3 0.6 -2.25 0.5 -2.15 0.45 -2.15 0.45 -2.2 0.5 -2.3 0.6 -2.25 0.6 -2.25 0.6 -2.15 0.6 -2.05 0.55 M-2.3 0.65 L-2.3 0.65" fill="#ff8fff" fill-rule="evenodd" stroke="none"/>
    <path d="M-2.05 0.5 L-2.0 0.55 -2.05 0.55 -2.15 0.6 -2.25 0.6 -2.25 0.6 -2.2 0.55 -2.15 0.5 -2.05 0.5 -2.05 0.5" fill="#c367c2" fill-rule="evenodd" stroke="none"/>
    <path d="M-2.05 0.95 L-2.05 0.95 -2.2 0.9 -2.15 0.8 -2.1 0.75 -2.1 0.7 -2.1 0.75 -2.05 0.8 -2.05 0.9 -2.05 0.95" fill="#ff88ff" fill-rule="evenodd" stroke="none"/>
    <path d="M-0.05 -0.85 L-0.1 -0.85 -0.15 -0.85 -0.15 -0.85 -0.2 -0.8 -0.25 -0.8 -0.4 -0.75 -0.5 -0.7 -0.55 -0.7 -0.65 -0.65 -0.65 -0.65 -0.65 -0.75 -0.75 -0.75 -0.8 -0.75 -0.85 -0.85 -0.95 -0.75 -1.0 -0.75 -1.0 -0.8 -1.05 -0.9 -1.15 -0.85 -1.25 -0.75 -1.3 -0.7 -1.3 -0.65 -1.3 -0.7 -1.25 -0.8 -1.25 -0.85 -1.25 -0.95 -1.3 -1.1 -1.45 -1.0 -1.5 -0.9 -1.5 -0.85 -1.45 -0.75 -1.5 -0.75 -1.55 -0.8 -1.65 -0.75 -1.65 -0.75 -1.75 -0.7 -1.8 -0.7 -1.85 -0.75 -1.9 -0.7 -1.9 -0.7 -1.9 -0.7 -1.95 -0.65 -1.95 -0.6 -2.0 -0.6 -2.0 -0.55 -2.05 -0.6 -2.15 -0.65 -2.15 -0.6 -2.2 -0.6 -2.25 -0.5 -2.25 -0.45 -2.25 -0.45 -2.3 -0.45 -2.4 -0.45 -2.4 -0.35 -2.45 -0.35 -2.55 -0.3 -2.5 -0.2 -2.45 -0.15 -2.35 -0.15 -2.4 -0.1 -2.35 -0.1 -2.3 -0.05 -2.35 -0.05 -2.4 -0.05 -2.5 -0.05 -2.6 0.05 -2.5 0.15 -2.5 0.15 -2.45 0.15 -2.55 0.2 -2.6 0.35 -2.45 0.35 -2.4 0.35 -2.35 0.4 -2.35 0.4 -2.35 0.45 -2.4 0.45 -2.4 0.45 -2.45 0.5 -2.45 0.6 -2.45 0.7 -2.35 0.75 -2.3 0.75 -2.15 0.75 -2.1 0.7 -2.1 0.7 -2.1 0.7 -2.1 0.75 -2.15 0.8 -2.2 0.9 -2.05 0.95 -2.05 0.95 -2.05 1.0 -2.0 1.0 -2.0 1.0 -1.95 1.0 -1.9 1.0 -1.9 0.95 -1.85 0.95 -1.85 0.9 -1.7 0.9 -1.7 0.85 -1.7 1.0 -1.6 1.1 -1.5 1.0 -1.5 0.95 -1.45 0.95 -1.4 0.85 -1.4 0.85 -1.4 0.85 -1.4 0.85 -1.25 1.0 -1.0 1.05 -0.9 1.05 -0.85 1.0 -0.85 1.0 -0.75 1.0 -0.75 1.0 -0.7 1.3 -0.65 1.7 -0.65 1.75 -0.55 2.15 -0.5 2.2 -0.45 2.3 -0.35 2.5 -0.25 2.7 0.15 3.1 Q0.6 3.35 0.8 3.35 L0.95 3.35 0.25 2.95 0.2 2.85 0.05 2.6 0.05 2.55 -0.05 2.3 -0.1 2.15 -0.15 2.1 -0.15 1.95 -0.2 1.95 -0.25 1.65 -0.25 1.6 -0.35 1.25 -0.45 0.9 -0.4 0.9 -0.3 0.9 -0.15 0.85 0.35 0.7 0.55 0.6 0.65 0.5 0.75 0.4 0.9 0.3 1.0 0.2 1.0 0.1 0.95 0.0 0.85 0.0 0.65 0.0 0.5 0.0 0.4 0.0 0.4 -0.05 0.35 -0.05 0.35 -0.15 0.3 -0.3 0.3 -0.35 0.3 -0.35 Q0.2 -0.7 0.15 -0.85 L0.15 -0.9 0.05 -0.9 0.0 -0.85 -0.05 -0.85 M-1.3 -0.35 L-1.3 -0.4 -1.25 -0.4 -1.25 -0.4 -1.2 -0.4 -1.2 -0.45 -1.2 -0.4 -1.2 -0.4 M-1.3 -0.35 L-1.3 -0.3 -1.3 -0.3 -1.25 -0.2 -1.25 -0.15 -1.2 -0.1 -1.2 0.0 -1.2 0.05 -1.15 0.05 -1.15 0.15 M-0.9 -0.55 L-0.9 -0.6 -0.85 -0.6 -0.8 -0.6 -0.75 -0.6 -0.7 -0.65 -0.65 -0.65 M-0.95 -0.55 L-1.0 -0.5 -1.05 -0.5 -1.15 -0.45 -1.2 -0.45 M-0.9 -0.6 L-0.85 -0.6 M-0.9 -0.55 L-0.95 -0.55 -0.9 -0.55 M-0.75 0.95 L-0.7 0.95 -0.65 0.95 -0.6 0.95 -0.5 0.9 -0.45 0.9 M-0.75 0.95 L-0.75 1.0 M-1.15 0.1 L-1.2 0.05 M-1.35 0.7 L-1.3 0.65 -1.3 0.65 -1.25 0.6 -1.25 0.6 -1.2 0.6 -1.15 0.55 -1.15 0.55 -1.1 0.55 M-1.2 0.6 L-1.25 0.6 M-1.35 0.7 L-1.35 0.75 -1.4 0.8 -1.4 0.85" fill="none" stroke="#000000" stroke-linecap="round" stroke-linejoin="round" stroke-opacity="0.4509804" stroke-width="0.1"/>
  </g>
</svg>
