<?xml version="1.0" encoding="UTF-8" standalone="no"?>
<svg xmlns:xlink="http://www.w3.org/1999/xlink" height="1.9px" width="7.45px" xmlns="http://www.w3.org/2000/svg">
  <g transform="matrix(1.0, 0.0, 0.0, 1.0, 3.35, 0.45)">
    <path d="M0.25 -0.4 L0.3 -0.4 0.55 -0.2 Q0.55 -0.15 0.7 -0.1 L0.8 -0.05 1.15 0.2 1.2 0.2 1.25 0.25 1.3 0.25 1.45 0.25 1.4 0.3 1.3 0.3 1.3 0.35 1.5 0.35 1.55 0.35 1.55 0.4 1.55 0.45 1.5 0.4 1.4 0.4 1.4 0.5 1.5 0.55 1.6 0.65 1.6 0.75 Q1.65 0.75 1.7 0.8 L1.75 0.85 1.9 1.0 1.85 1.05 2.0 1.2 1.95 1.2 1.45 1.2 1.3 1.25 1.2 1.3 0.7 1.2 0.35 1.3 -0.15 1.3 -0.2 1.25 -0.25 1.2 -0.15 1.15 -0.05 1.1 -0.05 1.05 0.05 0.95 0.0 0.9 0.0 0.7 Q0.1 0.7 0.15 0.6 L0.15 0.3 0.1 0.2 0.0 0.2 0.0 0.1 0.1 0.1 Q0.15 0.1 0.1 0.05 L0.15 0.05 0.2 0.0 0.15 -0.05 0.2 -0.1 0.1 -0.15 0.1 -0.15 0.1 -0.35 0.2 -0.35 0.25 -0.35 0.25 -0.4 M0.6 -0.3 L1.5 -0.05 Q3.65 0.65 4.0 1.0 L3.85 1.1 3.65 1.15 3.4 1.15 3.35 1.15 3.35 1.2 2.95 1.15 Q2.9 1.1 3.0 1.1 L3.0 0.95 Q3.0 0.85 2.65 0.75 L2.65 0.6 Q2.6 0.6 2.55 0.6 L2.5 0.55 2.4 0.45 2.35 0.45 2.3 0.4 2.15 0.35 Q2.1 0.3 2.05 0.3 L2.0 0.3 1.95 0.3 1.85 0.3 1.8 0.25 1.8 0.2 1.6 0.2 Q1.5 0.2 1.5 0.1 L1.25 -0.05 0.9 -0.1 Q0.7 -0.15 0.6 -0.3 M-3.25 1.0 Q-2.85 0.6 -0.35 -0.2 L-0.05 -0.3 -0.05 -0.25 -0.5 -0.1 -0.55 -0.1 -0.65 0.0 -0.8 0.05 -1.0 0.1 Q-1.05 0.1 -1.15 0.15 -1.15 0.2 -1.25 0.2 L-1.4 0.3 -1.45 0.25 -1.9 0.4 -1.9 0.45 -2.05 0.45 -2.1 0.55 -2.0 0.65 -2.1 0.7 -2.15 0.65 Q-2.15 0.7 -2.2 0.75 L-2.3 0.8 -2.3 0.9 -2.35 0.95 -2.4 0.95 -2.45 1.05 -2.5 1.05 -2.5 1.0 -2.55 1.0 -2.55 0.95 -2.6 0.95 -2.65 1.0 -2.6 1.05 -2.65 1.05 -2.6 1.1 Q-2.6 1.15 -2.75 1.15 L-3.25 1.0" fill="#93408d" fill-rule="evenodd" stroke="none"/>
    <path d="M0.25 -0.4 L0.25 -0.35 0.2 -0.35 0.25 -0.4 0.25 -0.4" fill="#3b4340" fill-rule="evenodd" stroke="none"/>
    <path d="M0.1 -0.15 L0.1 -0.15 0.2 -0.1 0.15 -0.05 0.2 0.0 0.15 0.05 0.1 0.05 Q0.15 0.1 0.1 0.1 L0.0 0.1 0.0 0.2 0.1 0.2 0.15 0.3 0.15 0.6 Q0.1 0.7 0.0 0.7 L0.0 0.9 0.05 0.95 -0.05 1.05 -0.05 1.1 -0.15 1.15 -0.25 1.2 -0.2 1.25 -0.15 1.3 0.35 1.3 0.7 1.2 1.2 1.3 1.3 1.25 1.45 1.2 1.95 1.2 2.0 1.2 1.85 1.05 1.9 1.0 1.75 0.85 1.7 0.8 Q1.65 0.75 1.6 0.75 L1.6 0.65 1.5 0.55 1.4 0.5 1.4 0.4 1.5 0.4 1.55 0.45 1.55 0.4 2.0 0.75 Q2.15 0.9 2.2 1.2 2.2 1.3 2.1 1.35 L1.95 1.35 1.85 1.35 1.75 1.35 1.6 1.4 1.55 1.4 0.5 1.4 0.4 1.4 0.25 1.4 -0.05 1.4 -0.9 1.35 -0.9 1.3 -0.85 1.25 -0.9 1.15 -0.75 1.15 -0.75 1.1 Q-0.7 1.15 -0.7 1.05 L-0.6 0.95 Q-0.6 0.8 -0.55 0.75 -0.45 0.75 -0.5 0.65 L-0.5 0.6 -0.45 0.5 -0.35 0.45 -0.35 0.4 Q-0.2 0.35 -0.25 0.2 L-0.2 0.15 -0.15 0.1 -0.1 -0.05 -0.05 -0.2 0.1 -0.15 M1.5 0.35 L1.3 0.35 1.3 0.3 1.4 0.3 1.45 0.25 1.3 0.25 1.25 0.25 1.2 0.2 1.15 0.2 0.8 -0.05 0.7 -0.1 Q0.55 -0.15 0.55 -0.2 L0.3 -0.4 0.6 -0.3 Q0.7 -0.15 0.9 -0.1 L1.25 -0.05 1.5 0.1 Q1.5 0.2 1.6 0.2 L1.8 0.2 1.8 0.25 1.85 0.3 1.95 0.3 2.0 0.3 2.05 0.3 Q2.1 0.3 2.15 0.35 L2.3 0.4 2.35 0.45 2.4 0.45 2.5 0.55 2.55 0.6 Q2.6 0.6 2.65 0.6 L2.65 0.75 Q3.0 0.85 3.0 0.95 L3.0 1.1 Q2.9 1.1 2.95 1.15 L3.35 1.2 3.35 1.15 3.4 1.15 3.65 1.15 3.85 1.1 4.0 1.0 4.05 1.05 Q4.05 1.2 3.05 1.3 L2.7 1.1 2.3 0.75 1.5 0.3 1.5 0.35 M-2.6 1.1 L-2.65 1.05 -2.6 1.05 -2.65 1.0 -2.6 0.95 -2.55 0.95 -2.55 1.0 -2.5 1.0 -2.5 1.05 -2.45 1.05 -2.4 0.95 -2.35 0.95 -2.3 0.9 -2.3 0.8 -2.2 0.75 Q-2.15 0.7 -2.15 0.65 L-2.1 0.7 -2.0 0.65 -2.1 0.55 -2.05 0.45 -1.9 0.45 -1.9 0.4 -1.45 0.25 -1.4 0.3 -1.25 0.2 Q-1.15 0.2 -1.15 0.15 -1.05 0.1 -1.0 0.1 L-0.8 0.05 -0.65 0.0 -0.55 -0.1 -0.5 -0.1 -0.75 0.15 Q-1.1 0.4 -1.15 0.4 L-1.2 0.35 -1.25 0.4 -1.3 0.45 -1.45 0.5 -1.5 0.6 -1.6 0.65 -1.7 0.7 -1.8 0.8 -1.85 0.85 -2.0 0.9 -1.9 1.1 Q-1.9 1.15 -1.95 1.15 L-2.2 1.05 -2.5 1.1 -2.6 1.1" fill="#a15b9c" fill-rule="evenodd" stroke="none"/>
    <path d="M0.1 -0.35 L0.1 -0.15 -0.05 -0.2 -0.1 -0.05 -0.15 0.1 -0.2 0.15 -0.25 0.2 Q-0.2 0.35 -0.35 0.4 L-0.35 0.45 -0.45 0.5 -0.5 0.6 -0.5 0.65 Q-0.45 0.75 -0.55 0.75 -0.6 0.8 -0.6 0.95 L-0.7 1.05 Q-0.7 1.15 -0.75 1.1 L-0.75 1.15 -0.9 1.15 -0.85 1.25 -0.9 1.3 -0.9 1.35 -1.0 1.35 -1.05 1.15 Q-1.1 0.95 -0.65 0.5 -0.2 0.05 -0.2 0.0 L-0.25 -0.05 -0.9 0.45 Q-1.35 0.8 -1.5 1.05 -1.55 1.15 -1.7 1.15 L-2.0 1.2 -2.35 1.3 -2.55 1.25 Q-3.3 1.2 -3.3 1.05 L-3.25 1.0 -2.75 1.15 Q-2.6 1.15 -2.6 1.1 L-2.5 1.1 -2.2 1.05 -1.95 1.15 Q-1.9 1.15 -1.9 1.1 L-2.0 0.9 -1.85 0.85 -1.8 0.8 -1.7 0.7 -1.6 0.65 -1.5 0.6 -1.45 0.5 -1.3 0.45 -1.25 0.4 -1.2 0.35 -1.15 0.4 Q-1.1 0.4 -0.75 0.15 L-0.5 -0.1 -0.05 -0.25 -0.05 -0.3 0.0 -0.3 0.1 -0.35 M1.55 0.4 L1.55 0.35 1.5 0.35 1.5 0.3 2.3 0.75 2.7 1.1 3.05 1.3 3.0 1.3 2.1 1.35 Q2.2 1.3 2.2 1.2 2.15 0.9 2.0 0.75 L1.55 0.4" fill="#a17a9c" fill-rule="evenodd" stroke="none"/>
    <path d="M-1.0 1.35 L-1.2 1.35 -1.3 1.35 -1.45 1.35 -1.55 1.35 -2.25 1.3 -2.35 1.3 -2.0 1.2 -1.7 1.15 Q-1.55 1.15 -1.5 1.05 -1.35 0.8 -0.9 0.45 L-0.25 -0.05 -0.2 0.0 Q-0.2 0.05 -0.65 0.5 -1.1 0.95 -1.05 1.15 L-1.0 1.35" fill="#bb8db5" fill-rule="evenodd" stroke="none"/>
    <path d="M0.3 -0.4 L0.25 -0.4 0.25 -0.4 0.2 -0.35 0.1 -0.35 0.0 -0.3 -0.05 -0.3 -0.35 -0.2 Q-2.85 0.6 -3.25 1.0 L-3.3 1.05 Q-3.3 1.2 -2.55 1.25 L-2.35 1.3 -2.25 1.3 -1.55 1.35 -1.45 1.35 -1.3 1.35 -1.2 1.35 -1.0 1.35 -0.9 1.35 -0.05 1.4 0.25 1.4 0.4 1.4 0.5 1.4 1.55 1.4 1.6 1.4 1.75 1.35 1.85 1.35 1.95 1.35 2.1 1.35 3.0 1.3 3.05 1.3 Q4.05 1.2 4.05 1.05 L4.0 1.0 Q3.65 0.65 1.5 -0.05 L0.6 -0.3 0.3 -0.4 Z" fill="none" stroke="#000000" stroke-linecap="round" stroke-linejoin="round" stroke-opacity="0.4509804" stroke-width="0.1"/>
  </g>
</svg>
