<?xml version="1.0" encoding="UTF-8" standalone="no"?>
<svg xmlns:xlink="http://www.w3.org/1999/xlink" height="7.25px" width="12.6px" xmlns="http://www.w3.org/2000/svg">
  <g transform="matrix(1.0, 0.0, 0.0, 1.0, 4.45, 1.45)">
    <path d="M1.6 -0.4 L1.7 -0.45 1.8 -0.55 1.85 -0.55 2.1 -0.45 1.8 -0.4 1.75 -0.4 1.7 -0.45 1.7 -0.4 1.75 -0.4 1.7 -0.3 1.6 -0.35 1.6 -0.4 M1.65 1.15 L1.55 1.15 1.45 1.15 1.4 0.95 1.5 0.95 1.6 0.95 1.65 1.15 M1.55 0.45 L1.5 0.45 1.4 0.4 1.5 0.35 1.55 0.35 1.55 0.45 M2.05 2.3 L2.1 2.3 2.0 2.35 1.9 2.35 1.9 2.3 2.05 2.3 M1.75 1.75 L1.9 1.75 2.0 1.8 1.7 1.85 1.7 1.75 1.75 1.75 M-1.9 -0.15 L-2.0 -0.2 -1.9 -0.2 -1.85 -0.2 -1.85 -0.15 -1.9 -0.15 M-0.35 0.45 L-0.35 0.55 Q-0.45 0.5 -0.55 0.45 L-0.35 0.45 M-1.85 0.7 L-1.95 0.75 -2.1 0.75 -2.15 0.55 -2.1 0.55 -2.15 0.5 -1.95 0.55 -1.85 0.65 -1.85 0.7" fill="#0085ff" fill-rule="evenodd" stroke="none"/>
    <path d="M0.2 0.0 L0.55 -0.05 0.75 0.7 0.85 1.15 0.6 1.25 0.65 1.35 0.95 1.4 1.0 1.65 1.05 1.8 0.95 1.9 0.9 2.05 0.9 2.1 0.7 1.65 0.65 1.6 0.7 1.55 0.65 1.55 Q0.35 0.8 0.25 0.1 L0.2 0.0 0.2 0.0 M1.0 0.05 L1.05 -0.05 1.25 0.0 Q1.1 0.05 1.05 0.2 L1.05 0.25 1.0 0.25 1.0 0.05 M-1.45 -0.5 L-1.45 -0.55 -1.35 -0.5 -1.35 -0.45 -1.45 -0.5 M-0.65 -0.15 L-0.55 -0.15 -0.55 -0.05 -0.45 0.0 -0.4 0.25 -0.45 0.25 -0.4 0.25 -0.4 0.3 -0.6 0.4 -0.6 0.35 Q-0.45 0.35 -0.45 0.25 L-0.45 0.15 Q-0.45 0.05 -0.65 -0.15 L-0.65 -0.15 M-0.5 -0.1 L-0.45 -0.1 -0.45 -0.1 -0.5 -0.1 M-0.15 1.45 L-0.05 1.65 0.1 2.05 0.1 2.15 0.05 2.2 -0.2 1.65 -0.2 1.65 -0.5 1.1 -0.3 1.15 -0.2 1.2 -0.15 1.4 -0.25 1.5 -0.15 1.5 -0.15 1.45 M0.05 2.2 L0.1 2.2 0.15 2.2 0.2 2.3 0.15 2.35 0.1 2.25 0.05 2.2 M0.15 2.4 L0.2 2.35 0.3 2.6 0.25 2.6 0.15 2.4 M1.0 2.4 L0.9 2.2 0.95 2.15 0.95 2.25 1.0 2.4 M-1.3 -0.05 L-1.25 0.0 -1.2 0.1 -1.2 0.15 -1.25 0.15 -1.5 0.2 -1.6 0.05 -1.25 0.05 -1.3 -0.05 M-0.7 0.3 L-0.7 0.3 -0.7 0.3 M-0.7 0.6 L-0.6 0.45 -0.35 0.6 -0.35 0.6 -0.3 0.65 -0.65 0.75 -0.45 0.75 -0.3 0.7 -0.2 1.15 -0.3 1.1 -0.4 1.1 -0.3 1.05 -0.25 1.05 -0.3 0.9 -0.55 0.95 -0.7 0.65 -0.7 0.6 M-0.4 0.35 L-0.35 0.45 -0.6 0.45 -0.6 0.4 -0.4 0.35 M-0.65 1.0 L-0.55 1.2 -0.3 1.65 -0.25 1.8 -0.15 2.1 -0.4 2.05 -0.6 1.65 -0.6 1.6 -0.65 1.0 M0.0 2.5 L0.0 2.55 0.0 2.55 -0.05 2.55 0.0 2.5" fill="#0045de" fill-rule="evenodd" stroke="none"/>
    <path d="M0.2 0.0 L0.2 0.0 0.25 0.1 Q0.35 0.8 0.65 1.55 L0.7 1.55 0.65 1.6 0.7 1.65 0.9 2.1 0.95 2.15 0.9 2.2 1.0 2.4 1.05 2.45 1.05 2.5 1.1 2.6 0.95 2.6 0.3 2.6 0.2 2.35 0.15 2.4 0.15 2.35 0.2 2.3 0.15 2.2 0.1 2.2 0.05 2.2 0.1 2.15 0.1 2.05 -0.05 1.65 -0.15 1.45 -0.15 1.4 -0.2 1.2 -0.2 1.15 -0.3 0.7 -0.45 0.75 -0.65 0.75 -0.3 0.65 -0.35 0.6 -0.35 0.6 -0.6 0.45 -0.7 0.6 -0.7 0.3 -0.6 0.35 -0.6 0.35 -0.6 0.4 -0.4 0.3 -0.4 0.25 -0.45 0.25 -0.4 0.25 -0.45 0.0 -0.55 -0.05 -0.55 -0.15 -0.5 -0.1 -0.45 -0.1 -0.45 -0.1 Q-0.15 0.0 0.1 0.0 L0.2 0.0 M-0.8 -0.2 L-0.65 -0.15 -0.8 -0.2 M1.95 0.25 L2.0 0.05 Q2.2 -0.35 2.6 -0.35 2.8 -0.5 3.65 -0.05 4.3 0.3 4.55 0.6 L4.6 0.6 Q4.9 0.65 5.05 0.8 5.1 0.9 5.1 1.05 5.1 1.2 4.95 1.4 4.75 1.65 4.3 1.65 L3.9 1.65 Q3.85 1.45 3.65 1.5 L3.0 1.45 Q2.2 1.45 2.0 1.05 1.95 1.0 1.95 0.45 L1.95 0.25 M4.2 0.95 Q4.2 0.8 3.9 0.6 L3.95 0.6 3.85 0.5 Q3.5 0.1 3.0 0.05 L2.85 0.0 2.4 0.0 Q1.95 0.25 1.95 0.4 L2.0 0.5 Q2.05 0.6 2.15 0.6 L2.25 0.6 Q2.25 0.9 2.45 1.05 2.9 1.3 4.25 1.3 L4.6 1.25 Q4.45 1.2 4.25 0.95 L4.2 0.95 M3.3 0.65 L3.7 0.95 3.4 0.85 Q3.25 0.8 3.25 0.7 L3.3 0.65 M-0.65 -0.15 L-0.65 -0.15 M-0.45 0.25 L-0.45 0.25 M-0.7 0.3 L-0.7 0.3 M-0.35 0.45 L-0.55 0.45 Q-0.45 0.5 -0.35 0.55 L-0.35 0.45 -0.4 0.35 -0.6 0.4 -0.6 0.45 -0.35 0.45" fill="#ffffff" fill-rule="evenodd" stroke="none"/>
    <path d="M3.9 1.65 L3.95 1.7 Q3.95 1.85 3.7 1.85 L3.6 1.85 2.95 1.85 2.8 1.85 2.6 2.0 Q2.3 2.15 2.15 2.15 2.0 2.15 1.95 2.05 L1.95 1.95 Q1.95 1.85 2.25 1.7 1.9 1.6 1.75 1.35 L1.7 1.35 1.65 1.15 1.6 0.95 1.55 0.6 1.55 0.45 1.55 0.35 1.55 0.3 Q1.55 0.1 1.65 0.0 1.9 -0.2 1.9 0.05 L1.95 0.25 1.95 0.45 Q1.95 1.0 2.0 1.05 2.2 1.45 3.0 1.45 L3.65 1.5 Q3.85 1.45 3.9 1.65 M4.2 0.95 L4.2 1.05 Q4.1 1.15 4.05 1.15 L3.75 0.95 3.7 0.95 3.3 0.65 2.7 0.35 2.6 0.35 2.25 0.6 2.15 0.6 Q2.05 0.6 2.0 0.5 L1.95 0.4 Q1.95 0.25 2.4 0.0 L2.85 0.0 3.0 0.05 3.85 0.55 3.9 0.6 Q4.2 0.8 4.2 0.95 M-0.15 1.45 L-0.15 1.5 -0.25 1.5 -0.15 1.4 -0.15 1.45 M-0.2 1.2 L-0.3 1.15 -0.5 1.1 -0.2 1.65 -0.2 1.65 0.05 2.2 0.1 2.25 0.15 2.35 0.15 2.4 0.25 2.6 0.0 2.55 0.0 2.5 Q0.05 2.45 0.05 2.35 0.05 2.2 -0.15 2.1 L-0.25 1.8 -0.3 1.65 -0.55 1.2 -0.65 1.0 -0.7 0.7 -0.7 0.65 -0.55 0.95 -0.3 0.9 -0.25 1.05 -0.3 1.05 -0.4 1.1 -0.3 1.1 -0.2 1.15 -0.2 1.2 M0.0 2.5 L0.0 2.5 M0.0 2.55 L0.0 2.55 M-0.8 2.65 L-0.8 2.6 -0.75 2.65 -0.8 2.65 -0.8 2.65" fill="#04a8de" fill-rule="evenodd" stroke="none"/>
    <path d="M0.9 2.1 L0.9 2.05 0.95 1.9 1.05 1.8 1.0 1.65 0.95 1.4 0.85 1.15 0.75 0.7 0.55 -0.05 1.0 -0.15 1.0 0.05 1.0 0.25 1.0 0.3 1.05 0.25 1.05 0.2 Q1.1 0.05 1.25 0.0 L1.5 -0.15 1.6 -0.15 1.65 -0.2 2.6 -0.45 3.1 -0.6 3.6 -0.7 Q4.25 -0.7 5.2 0.35 5.95 1.25 5.95 1.45 L5.95 1.5 Q5.9 1.3 5.7 1.3 L3.6 2.05 2.6 2.3 1.65 2.65 1.6 2.6 1.5 2.65 1.1 2.6 1.05 2.5 1.05 2.45 1.0 2.4 0.95 2.25 0.95 2.15 0.9 2.1 M-2.6 0.4 L-2.65 0.05 Q-2.65 -0.75 -1.55 -0.5 L-1.45 -0.5 -1.35 -0.45 -1.35 -0.5 -0.8 -0.2 -0.65 -0.15 Q-0.45 0.05 -0.45 0.15 L-0.45 0.25 -0.45 0.25 Q-0.45 0.35 -0.6 0.35 L-0.6 0.35 -0.7 0.3 -0.7 0.6 -0.7 0.65 -0.7 0.7 -0.65 1.0 -0.6 1.6 -0.6 1.65 -0.4 2.05 -0.15 2.1 Q0.05 2.2 0.05 2.35 0.05 2.45 0.0 2.5 L-0.1 2.55 -0.2 2.5 -0.2 2.55 -0.2 2.65 -0.2 2.9 Q-0.25 3.0 -0.35 3.0 L-0.5 2.95 -0.65 3.0 Q-0.9 3.0 -0.9 2.85 L-0.9 2.8 -0.95 2.8 Q-1.15 2.8 -1.15 2.65 L-1.15 2.55 Q-1.2 2.5 -1.2 2.35 L-1.0 2.15 Q-1.0 2.0 -0.85 1.7 L-0.7 1.4 Q-0.7 1.35 -0.9 1.25 -0.85 0.9 -0.85 0.75 -0.85 0.5 -1.05 0.3 -1.25 0.05 -1.6 0.4 -1.85 0.75 -1.85 0.95 L-1.8 1.4 Q-1.7 1.8 -1.4 1.8 L-1.35 1.8 -1.35 1.8 -1.4 1.9 Q-1.7 1.95 -1.8 2.05 L-1.85 2.25 -1.85 2.4 -2.0 2.15 Q-2.0 1.85 -1.8 2.0 L-1.9 1.7 Q-2.1 1.35 -2.25 1.3 L-2.4 1.0 -2.35 0.65 Q-2.35 0.35 -2.6 0.4 M3.9 1.65 L4.3 1.65 Q4.75 1.65 4.95 1.4 5.1 1.2 5.1 1.05 5.1 0.9 5.05 0.8 4.9 0.65 4.6 0.6 L4.55 0.6 Q4.3 0.3 3.65 -0.05 2.8 -0.5 2.6 -0.35 2.2 -0.35 2.0 0.05 L1.95 0.25 1.9 0.05 Q1.9 -0.2 1.65 0.0 1.55 0.1 1.55 0.3 L1.55 0.35 1.5 0.35 1.4 0.4 1.5 0.45 1.55 0.45 1.55 0.6 1.6 0.95 1.5 0.95 1.4 0.95 1.45 1.15 1.55 1.15 1.65 1.15 1.7 1.35 1.75 1.35 Q1.9 1.6 2.25 1.7 1.95 1.85 1.95 1.95 L1.95 2.05 Q2.0 2.15 2.15 2.15 2.3 2.15 2.6 2.0 L2.8 1.85 2.95 1.85 3.6 1.85 3.7 1.85 Q3.95 1.85 3.95 1.7 L3.9 1.65 M1.75 1.35 L1.7 1.35 1.75 1.35 M3.7 0.95 L3.75 0.95 4.05 1.15 Q4.1 1.15 4.2 1.05 L4.2 0.95 4.25 0.95 Q4.45 1.2 4.6 1.25 L4.25 1.3 Q2.9 1.3 2.45 1.05 2.25 0.9 2.25 0.6 L2.6 0.35 2.7 0.35 3.3 0.65 3.25 0.7 Q3.25 0.8 3.4 0.85 L3.7 0.95 M3.9 0.6 L3.85 0.55 3.0 0.05 Q3.5 0.1 3.85 0.5 L3.95 0.6 3.9 0.6 M0.0 2.55 L-0.05 2.55 0.0 2.55 0.0 2.55 0.0 2.55 0.0 2.55 M2.95 0.65 L3.0 0.65 2.95 0.65 M2.05 2.3 L1.9 2.3 1.9 2.35 2.0 2.35 2.1 2.3 2.05 2.3 M1.55 1.35 L1.6 1.35 1.55 1.35 M1.75 1.75 L1.7 1.75 1.7 1.85 2.0 1.8 1.9 1.75 1.75 1.75 M1.95 2.7 Q1.95 2.5 2.1 2.55 2.2 2.55 2.25 2.65 2.45 2.65 2.45 2.8 L2.35 2.95 2.2 3.05 2.25 3.2 2.15 3.4 2.0 3.5 Q1.85 3.5 1.8 3.4 L1.75 3.45 Q1.65 3.45 1.6 3.35 L1.55 3.25 Q1.55 3.15 1.6 3.05 1.55 3.15 1.2 3.3 0.8 3.5 0.6 3.5 0.4 3.5 0.4 3.3 0.4 3.15 1.0 2.95 L1.6 2.95 Q1.6 2.75 1.8 2.7 L1.95 2.7 M-1.9 -0.15 L-1.85 -0.15 -1.85 -0.2 -1.9 -0.2 -2.0 -0.2 -1.9 -0.15 M-1.3 -0.05 L-1.25 0.05 -1.6 0.05 -1.5 0.2 -1.25 0.15 -1.2 0.15 -1.2 0.1 -1.25 0.0 -1.3 -0.05 M-0.7 0.3 L-0.7 0.3 M-2.0 0.2 L-2.0 0.15 -2.05 0.1 -2.1 0.1 -2.15 0.1 -2.25 0.15 -2.2 0.2 -2.1 0.2 -2.0 0.2 M-1.85 0.7 L-1.85 0.65 -1.95 0.55 -2.15 0.5 -2.1 0.55 -2.15 0.55 -2.1 0.75 -1.95 0.75 -1.85 0.7 M-1.35 2.45 Q-1.35 2.65 -1.5 2.65 L-1.75 2.45 -1.6 2.5 Q-1.5 2.5 -1.35 2.4 L-1.35 2.45 M-1.2 2.35 L-1.2 2.35 M-0.05 2.55 L-0.05 2.55 M-0.8 2.65 L-0.8 2.65 -0.75 2.65 -0.8 2.6 -0.8 2.65 M-0.6 3.55 L-0.7 3.65 -0.85 3.75 Q-1.05 3.75 -1.05 3.55 -1.05 3.4 -0.85 3.35 -0.6 3.35 -0.6 3.55" fill="#0c00af" fill-rule="evenodd" stroke="none"/>
    <path d="M0.95 1.4 L0.65 1.35 0.6 1.25 0.85 1.15 0.95 1.4 M1.5 -0.15 L1.4 -0.15 1.15 -0.2 1.25 -0.25 Q1.45 -0.35 1.6 -0.4 L1.6 -0.35 1.7 -0.3 1.65 -0.2 1.6 -0.15 1.5 -0.15 M1.8 -0.4 L1.75 -0.4 1.7 -0.4 1.7 -0.45 1.75 -0.4 1.8 -0.4 M1.75 1.35 L1.7 1.35 1.75 1.35 M2.95 0.65 L3.0 0.65 2.95 0.65 M1.55 1.35 L1.6 1.35 1.55 1.35 M-2.7 -0.65 Q-2.7 -0.75 -2.45 -0.75 -2.2 -0.75 -2.25 -0.6 L-2.25 -0.6 -2.3 -0.6 -2.4 -0.6 -2.65 -0.65 -2.7 -0.65 M-2.0 0.2 L-2.1 0.2 -2.2 0.2 -2.25 0.15 -2.15 0.1 -2.1 0.1 -2.05 0.1 -2.0 0.15 -2.0 0.2" fill="url(#gradient0)" fill-rule="evenodd" stroke="none"/>
    <path d="M5.95 1.5 L5.95 1.55 Q5.95 1.7 5.8 1.8 5.6 1.95 5.6 2.15 L5.5 2.7 Q5.4 3.15 5.3 3.3 4.95 3.65 3.95 3.65 L2.45 3.65 Q1.6 3.7 1.15 3.95 L0.4 4.25 -0.65 4.25 Q-1.3 4.4 -1.95 3.75 -2.55 3.15 -2.55 2.85 -2.55 2.7 -2.65 2.5 L-2.75 2.1 -2.85 1.4 -2.8 0.9 -2.85 0.6 Q-2.8 0.4 -2.75 0.4 L-2.6 0.4 Q-2.35 0.35 -2.35 0.65 L-2.4 1.0 -2.45 1.2 -2.45 1.35 -2.3 1.3 -2.25 1.3 Q-2.1 1.35 -1.9 1.7 L-1.8 2.0 Q-2.0 1.85 -2.0 2.15 L-1.85 2.4 -1.85 2.25 -1.8 2.05 Q-1.7 1.95 -1.4 1.9 L-1.35 1.8 -1.35 1.8 -1.4 1.8 Q-1.7 1.8 -1.8 1.4 L-1.85 0.95 Q-1.85 0.75 -1.6 0.4 -1.25 0.05 -1.05 0.3 -0.85 0.5 -0.85 0.75 -0.85 0.9 -0.9 1.25 -0.7 1.35 -0.7 1.4 L-0.85 1.7 Q-1.0 2.0 -1.0 2.15 L-1.2 2.35 Q-1.2 2.5 -1.15 2.55 L-1.15 2.65 Q-1.15 2.8 -0.95 2.8 L-0.9 2.8 -0.9 2.85 Q-0.9 3.0 -0.65 3.0 L-0.5 2.95 -0.35 3.0 Q-0.25 3.0 -0.2 2.9 L-0.2 2.65 -0.2 2.55 -0.05 2.55 0.0 2.55 0.1 2.6 0.95 2.6 1.4 2.65 1.5 2.7 1.65 2.65 2.6 2.3 3.6 2.05 5.7 1.3 Q5.9 1.3 5.95 1.5 M-1.2 2.35 L-1.25 2.35 -1.25 2.35 -1.2 2.35 M1.95 2.7 L1.8 2.7 Q1.6 2.75 1.6 2.95 L1.0 2.95 Q0.4 3.15 0.4 3.3 0.4 3.5 0.6 3.5 0.8 3.5 1.2 3.3 1.55 3.15 1.6 3.05 1.55 3.15 1.55 3.25 L1.6 3.35 Q1.65 3.45 1.75 3.45 L1.8 3.4 Q1.85 3.5 2.0 3.5 L2.15 3.4 2.25 3.2 2.2 3.05 2.35 2.95 2.45 2.8 Q2.45 2.65 2.25 2.65 2.2 2.55 2.1 2.55 1.95 2.5 1.95 2.7 M-1.35 2.45 L-1.35 2.4 Q-1.5 2.5 -1.6 2.5 L-1.75 2.45 -1.5 2.65 Q-1.35 2.65 -1.35 2.45 M-2.45 1.7 Q-2.4 1.85 -2.15 2.0 L-2.2 1.95 -2.35 1.75 -2.45 1.65 -2.45 1.7 M-0.6 3.55 Q-0.6 3.35 -0.85 3.35 -1.05 3.4 -1.05 3.55 -1.05 3.75 -0.85 3.75 L-0.7 3.65 -0.6 3.55" fill="#0625de" fill-rule="evenodd" stroke="none"/>
    <path d="M1.95 3.4 L1.9 3.35 Q1.85 3.35 1.8 3.45 L1.25 3.35 0.95 3.35 -0.4 3.35 -0.25 3.35 1.0 3.35 1.65 3.45 1.75 3.5 1.95 3.4 M1.15 -0.1 L1.15 -0.1 1.15 -0.1 M1.25 -0.65 L1.45 -0.7 1.9 -0.9 2.1 -1.0 2.25 -1.1 2.25 -1.1 Q2.55 -1.1 2.6 -1.0 L2.2 -0.9 2.15 -0.9 Q2.05 -0.85 2.05 -0.8 L2.0 -0.65 3.35 -1.05 Q3.5 -1.05 4.05 -1.25 L4.8 -1.4 Q5.75 -1.4 7.05 0.15 8.15 1.45 8.15 1.75 L8.15 1.85 Q8.15 2.05 7.95 2.25 7.65 2.45 7.65 2.7 L7.5 3.55 Q7.4 4.2 7.2 4.35 6.7 4.9 5.25 4.9 L3.15 4.9 Q1.9 4.95 1.25 5.25 L0.2 5.75 -1.3 5.75 Q-2.2 5.9 -3.2 5.0 -4.05 4.15 -4.05 3.75 -4.05 3.55 -4.15 3.2 L-4.3 2.65 -4.45 1.65 -4.4 0.9 -4.45 0.5 Q-4.4 0.25 -4.3 0.2 L-4.1 0.2 -4.15 -0.3 Q-4.15 -1.45 -2.55 -1.1 L-2.4 -1.05 -2.45 -1.1 -2.05 -0.95 Q-1.75 -0.75 -1.5 -0.65 L-1.35 -0.6 Q-1.25 -0.55 -1.2 -0.55 L-1.05 -0.5 -1.05 -0.5 Q-0.6 -0.35 -0.25 -0.35 L-0.05 -0.35 0.4 -0.4 1.05 -0.55 1.05 -0.25 1.1 -0.25 1.15 -0.4 1.4 -0.35 1.75 -0.55 1.6 -0.55 1.25 -0.65 M-4.2 -1.3 Q-4.2 -1.45 -3.85 -1.45 -3.55 -1.45 -3.65 -1.25 L-3.65 -1.2 -3.8 -1.2 Q-4.1 -1.2 -4.2 -1.25 L-4.2 -1.3 M-3.65 1.5 L-3.65 1.5 -3.8 1.05 -3.85 1.35 -3.85 1.6 -3.65 1.5 M-3.85 2.05 Q-3.8 2.3 -3.5 2.5 L-3.5 2.45 -3.75 2.1 -3.85 2.0 -3.85 2.05 M-0.55 3.25 L-0.7 3.25 -0.65 3.3 -0.45 3.35 -0.45 3.3 -0.4 3.25 -0.4 3.25 -0.55 3.25 M-2.1 3.0 L-2.15 3.0 -2.15 3.0 -2.1 3.05 -2.1 3.0" fill="#0045de" fill-opacity="0.0" fill-rule="evenodd" stroke="none"/>
  </g>
  <defs>
    <linearGradient gradientTransform="matrix(0.2235, 0.0, 0.0, 0.0981, 0.35, 1.3)" gradientUnits="userSpaceOnUse" id="gradient0" spreadMethod="pad" x1="-819.2" x2="819.2">
      <stop offset="0.0" stop-color="#0085ff"/>
      <stop offset="1.0" stop-color="#0085ff" stop-opacity="0.0"/>
    </linearGradient>
  </defs>
</svg>
