<?xml version="1.0" encoding="UTF-8" standalone="no"?>
<svg xmlns:xlink="http://www.w3.org/1999/xlink" height="5.1px" width="6.95px" xmlns="http://www.w3.org/2000/svg">
  <g transform="matrix(1.0, 0.0, 0.0, 1.0, 3.6, 3.45)">
    <path d="M2.05 -2.35 L2.05 -3.15 2.1 -3.15 2.15 -3.25 2.2 -3.25 2.2 -3.25 2.2 -3.3 2.15 -3.3 2.15 -3.25 2.05 -3.25 2.0 -3.2 2.0 -3.25 1.95 -3.25 1.9 -3.25 1.85 -3.2 1.8 -3.15 1.8 -3.1 1.65 -2.7 Q1.55 -2.45 1.55 -2.2 L1.55 -1.95 Q1.55 -1.8 1.65 -1.5 L1.65 -1.45 1.6 -1.5 1.55 -1.55 1.55 -1.6 1.5 -2.25 1.5 -2.35 1.6 -2.7 1.6 -2.8 1.6 -2.9 1.7 -3.0 1.85 -3.25 1.95 -3.35 2.15 -3.4 Q2.25 -3.4 2.4 -3.35 L2.5 -3.25 2.3 -3.25 2.3 -3.25 2.55 -3.2 2.6 -3.0 Q2.5 -3.05 2.5 -3.05 L2.4 -3.15 2.4 -3.1 2.35 -3.15 2.3 -3.15 2.3 -3.15 2.35 -3.1 2.4 -3.05 2.4 -3.1 2.5 -3.0 2.6 -2.95 2.65 -2.7 2.6 -2.6 2.65 -2.5 2.65 -2.4 2.6 -2.35 2.6 -2.3 2.6 -2.45 2.6 -2.7 2.55 -2.9 Q2.55 -2.65 2.35 -2.2 2.15 -1.75 2.05 -1.7 L2.05 -1.7 Q2.15 -1.7 2.4 -2.0 L2.4 -2.05 2.5 -2.3 2.4 -2.05 2.3 -1.8 Q2.25 -1.75 2.1 -1.65 L1.9 -1.55 1.9 -1.55 1.95 -1.6 1.9 -1.6 1.75 -1.45 1.75 -1.5 1.8 -1.6 1.9 -1.75 2.0 -1.9 Q2.25 -2.25 2.3 -2.6 L2.3 -2.9 2.25 -3.1 2.25 -3.15 2.2 -3.15 2.2 -3.2 2.15 -3.2 2.15 -3.2 2.1 -3.05 2.1 -2.8 2.15 -2.65 Q2.15 -2.25 1.95 -2.0 L2.0 -2.25 2.0 -2.3 2.05 -2.35 M1.75 -1.5 L1.75 -1.5 1.85 -1.6 1.95 -1.7 2.05 -1.9 1.85 -1.7 1.75 -1.5 M2.2 -0.85 L2.15 -0.9 2.25 -1.0 2.2 -1.05 2.2 -1.05 2.25 -1.05 2.3 -1.1 2.3 -1.15 2.35 -1.15 2.4 -1.2 2.4 -1.2 2.4 -1.2 2.5 -1.2 Q2.5 -1.15 2.55 -1.15 L2.55 -1.15 2.55 -1.0 2.5 -0.9 2.5 -0.9 2.45 -0.9 2.2 -0.85 M2.05 -1.05 L2.05 -1.05 2.05 -1.05 2.05 -1.05 M2.0 -1.1 L1.95 -1.2 1.95 -1.2 1.9 -1.2 1.9 -1.2 2.05 -1.45 2.1 -1.45 2.15 -1.4 2.15 -1.3 2.05 -1.1 2.05 -1.1 Q2.05 -1.1 2.0 -1.1 M3.05 -1.45 L3.1 -1.45 Q3.3 -1.25 3.3 -1.05 L3.25 -0.75 3.2 -0.7 Q3.15 -0.65 3.1 -0.7 L3.1 -0.6 3.0 -0.65 3.0 -0.55 2.95 -0.55 Q2.95 -0.55 2.9 -0.55 L2.75 -0.75 2.65 -0.85 2.55 -0.9 2.6 -0.95 Q2.6 -1.0 2.6 -1.05 L2.65 -1.1 2.75 -1.05 3.0 -0.7 Q3.05 -0.7 3.05 -0.8 L3.0 -0.95 2.85 -1.15 2.75 -1.35 2.75 -1.35 2.85 -1.3 3.0 -1.15 3.1 -1.05 3.2 -0.95 3.2 -1.1 3.15 -1.25 3.1 -1.3 3.05 -1.35 3.05 -1.45 M2.25 -1.45 Q2.3 -1.5 2.4 -1.5 L2.4 -1.55 2.45 -1.55 2.45 -1.55 2.5 -1.55 2.5 -1.55 2.55 -1.55 2.55 -1.55 2.65 -1.55 2.7 -1.55 2.6 -1.5 2.55 -1.4 2.5 -1.4 2.45 -1.35 2.55 -1.25 2.5 -1.25 2.35 -1.35 2.25 -1.35 2.25 -1.45 M2.75 -1.55 L2.9 -1.55 2.95 -1.4 2.95 -1.35 2.9 -1.35 2.7 -1.45 2.65 -1.45 2.65 -1.45 2.75 -1.5 2.75 -1.55 M2.35 -1.35 L2.35 -1.35 M2.6 -1.2 L2.6 -1.3 2.6 -1.4 2.65 -1.4 2.75 -1.1 2.65 -1.2 2.6 -1.2" fill="#5b1f71" fill-rule="evenodd" stroke="none"/>
    <path d="M2.0 -3.2 L2.05 -3.25 2.15 -3.25 2.15 -3.3 2.2 -3.3 2.2 -3.25 2.2 -3.25 2.15 -3.25 2.1 -3.15 2.05 -3.15 2.05 -2.35 2.05 -2.8 2.0 -3.15 2.0 -3.2 M2.6 -2.95 L2.5 -3.0 2.4 -3.1 2.4 -3.05 2.35 -3.1 2.3 -3.15 2.3 -3.15 2.35 -3.15 2.4 -3.1 2.4 -3.15 2.5 -3.05 Q2.5 -3.05 2.6 -3.0 L2.6 -2.95 M2.55 -3.2 L2.3 -3.25 2.3 -3.25 2.5 -3.25 2.5 -3.2 2.55 -3.2 M2.05 -1.05 L2.0 -1.1 Q2.05 -1.1 2.05 -1.1 L2.05 -1.05 2.05 -1.05 M1.95 -1.2 L1.9 -1.2 1.95 -1.2 1.95 -1.2 M2.65 -1.1 L2.6 -1.05 Q2.6 -1.0 2.6 -0.95 L2.55 -0.9 2.5 -0.9 2.55 -1.0 2.55 -1.15 2.65 -1.1 M2.7 -1.55 L2.75 -1.55 2.75 -1.5 2.65 -1.45 2.65 -1.45 2.65 -1.4 2.6 -1.4 2.6 -1.3 2.6 -1.2 2.55 -1.25 2.45 -1.35 2.5 -1.4 2.55 -1.4 2.6 -1.5 2.7 -1.55" fill="#8c42a8" fill-rule="evenodd" stroke="none"/>
    <path d="M1.95 -2.0 Q2.15 -2.25 2.15 -2.65 L2.1 -2.8 2.1 -3.05 2.15 -3.2 2.15 -3.2 2.2 -3.2 2.2 -3.15 2.25 -3.15 2.25 -3.1 2.3 -2.9 2.3 -2.6 Q2.25 -2.25 2.0 -1.9 L1.9 -1.75 1.95 -2.0 M1.75 -1.5 L1.85 -1.7 2.05 -1.9 1.95 -1.7 1.85 -1.6 1.75 -1.5 1.75 -1.5 M1.75 -1.45 L1.9 -1.6 1.95 -1.6 1.9 -1.55 1.9 -1.55 2.1 -1.65 Q2.25 -1.75 2.3 -1.8 L2.4 -2.05 2.5 -2.3 2.4 -2.05 2.4 -2.0 Q2.15 -1.7 2.05 -1.7 L2.05 -1.7 Q2.15 -1.75 2.35 -2.2 2.55 -2.65 2.55 -2.9 L2.6 -2.7 2.6 -2.45 2.6 -2.3 2.6 -2.35 2.65 -2.4 2.7 -2.25 Q2.7 -2.1 2.55 -1.95 L2.5 -1.8 2.35 -1.7 2.1 -1.5 2.0 -1.45 2.05 -1.45 1.9 -1.2 1.8 -1.35 1.75 -1.45 M1.9 -3.25 L1.95 -3.25 2.0 -3.25 1.95 -3.2 1.85 -3.0 1.7 -2.7 1.65 -2.45 1.65 -2.2 1.75 -2.35 1.7 -2.45 1.75 -2.7 1.75 -2.75 1.8 -2.7 1.8 -2.65 1.7 -2.4 1.75 -2.4 1.85 -2.5 1.85 -2.5 Q1.75 -2.25 1.75 -2.0 L1.75 -1.9 1.75 -1.9 1.7 -1.9 1.7 -1.9 1.7 -1.8 1.7 -1.7 1.65 -1.8 1.65 -1.95 1.65 -2.05 1.7 -2.2 1.65 -2.2 1.6 -2.0 1.6 -2.1 Q1.6 -2.5 1.75 -2.8 L1.9 -3.25 M1.85 -2.5 L1.85 -2.5 M3.05 -1.45 L3.05 -1.35 3.1 -1.3 3.15 -1.25 3.2 -1.1 3.2 -0.95 3.1 -1.05 3.0 -1.15 2.85 -1.3 2.75 -1.35 2.75 -1.35 2.85 -1.15 3.0 -0.95 3.05 -0.8 Q3.05 -0.7 3.0 -0.7 L2.75 -1.05 2.65 -1.1 2.55 -1.15 2.55 -1.15 Q2.5 -1.15 2.5 -1.2 L2.5 -1.2 2.55 -1.2 2.55 -1.2 2.5 -1.25 2.35 -1.35 2.5 -1.25 2.55 -1.25 2.6 -1.2 2.65 -1.2 2.75 -1.1 2.65 -1.4 2.65 -1.45 2.7 -1.45 2.9 -1.35 2.95 -1.35 2.95 -1.4 2.9 -1.55 3.05 -1.45 M2.9 -0.55 Q2.95 -0.55 2.95 -0.55 L3.0 -0.55 3.0 -0.65 3.1 -0.6 3.1 -0.7 Q3.15 -0.65 3.2 -0.7 L3.25 -0.75 3.1 -0.5 Q2.9 -0.1 2.7 -0.1 L2.6 -0.1 2.6 -0.2 2.65 -0.2 Q2.75 -0.2 2.85 -0.3 2.9 -0.4 2.9 -0.5 L2.9 -0.55 M2.2 -1.35 L2.2 -1.4 2.25 -1.45 2.25 -1.35 2.35 -1.35 2.35 -1.35 2.2 -1.2 2.15 -1.25 2.2 -1.35 M2.45 -0.65 L2.5 -0.65 2.65 -0.6 2.7 -0.45 2.7 -0.45 Q2.6 -0.5 2.45 -0.6 L2.4 -0.65 2.45 -0.65" fill="#4b2758" fill-rule="evenodd" stroke="none"/>
    <path d="M1.75 -1.5 L1.75 -1.45 1.8 -1.35 1.65 -1.45 1.65 -1.5 Q1.55 -1.8 1.55 -1.95 L1.55 -2.2 Q1.55 -2.45 1.65 -2.7 L1.8 -3.1 1.8 -3.15 1.85 -3.2 1.9 -3.25 1.75 -2.8 Q1.6 -2.5 1.6 -2.1 L1.6 -2.0 1.6 -1.9 1.65 -1.75 Q1.65 -1.55 1.75 -1.5 M2.0 -3.25 L2.0 -3.2 2.0 -3.15 2.05 -2.8 1.95 -2.7 1.95 -2.75 1.95 -2.9 1.85 -2.6 1.85 -2.5 1.75 -2.4 1.7 -2.4 1.8 -2.65 1.8 -2.7 1.85 -2.85 1.95 -3.05 1.95 -3.05 1.8 -2.8 1.8 -2.75 1.8 -2.75 1.75 -2.75 1.75 -2.7 1.7 -2.45 1.75 -2.35 1.65 -2.2 1.65 -2.2 1.65 -2.45 1.7 -2.7 1.85 -3.0 1.95 -3.2 2.0 -3.25 M2.3 -0.65 L2.25 -0.8 2.4 -0.8 2.45 -0.8 2.5 -0.8 2.6 -0.8 2.65 -0.85 2.75 -0.75 2.9 -0.55 2.9 -0.5 Q2.9 -0.4 2.85 -0.3 2.75 -0.2 2.65 -0.2 L2.6 -0.2 2.3 -0.65 M2.15 -0.9 L2.05 -1.05 2.05 -1.1 2.05 -1.1 2.15 -1.3 2.2 -1.35 2.15 -1.25 2.2 -1.2 2.35 -1.35 2.35 -1.35 2.5 -1.25 2.55 -1.2 2.55 -1.2 2.5 -1.2 2.5 -1.2 2.4 -1.2 2.4 -1.2 2.4 -1.2 2.35 -1.15 2.3 -1.15 2.3 -1.1 2.25 -1.05 2.2 -1.05 2.2 -1.05 2.25 -1.0 2.15 -0.9 M2.35 -1.35 L2.35 -1.35 M2.05 -1.05 L2.05 -1.05 M2.45 -0.65 L2.4 -0.65 2.45 -0.6 Q2.6 -0.5 2.7 -0.45 L2.7 -0.45 2.65 -0.6 2.5 -0.65 2.45 -0.65" fill="#371d41" fill-rule="evenodd" stroke="none"/>
    <path d="M1.8 -1.6 L1.75 -1.5 Q1.65 -1.55 1.65 -1.75 L1.6 -1.9 1.6 -2.0 1.65 -2.2 1.65 -2.2 1.7 -2.2 1.65 -2.05 1.65 -1.95 1.65 -1.8 1.7 -1.7 1.7 -1.8 1.7 -1.9 1.7 -1.9 1.75 -1.9 1.75 -1.9 1.8 -1.6 M1.5 -2.35 L1.5 -2.25 1.55 -1.6 1.55 -1.6 1.5 -1.75 1.5 -1.8 1.45 -1.95 1.4 -2.15 1.45 -2.2 1.45 -2.2 1.5 -2.35 M1.8 -2.8 L1.95 -3.05 1.95 -3.05 1.85 -2.85 1.8 -2.7 1.8 -2.65 1.8 -2.7 1.75 -2.75 1.8 -2.75 1.8 -2.75 1.8 -2.8 M1.85 -2.5 L1.85 -2.6 1.95 -2.9 1.95 -2.75 1.95 -2.7 1.85 -2.5 1.85 -2.5" fill="#41224d" fill-rule="evenodd" stroke="none"/>
    <path d="M1.3 -1.75 L1.3 -1.7 Q1.3 -1.65 1.25 -1.65 1.15 -1.65 1.15 -1.6 L1.25 -1.55 Q1.3 -1.45 1.35 -1.45 L1.4 -1.45 1.55 -1.4 1.65 -1.3 1.65 -1.25 1.55 -1.2 1.55 -1.1 1.55 -1.1 1.5 -1.05 1.5 -1.15 1.45 -1.15 1.55 -1.2 1.55 -1.25 1.4 -1.3 1.35 -1.3 1.35 -1.35 Q1.3 -1.4 1.25 -1.45 L1.15 -1.45 1.05 -1.4 1.05 -1.5 0.95 -1.6 Q0.95 -1.6 0.85 -1.65 L0.85 -1.65 0.9 -1.7 1.0 -1.75 1.05 -1.75 1.1 -1.75 1.2 -1.75 1.25 -1.75 1.25 -1.75 1.3 -1.75 M1.3 -0.35 L1.3 -0.3 1.35 -0.25 1.35 -0.25 1.4 -0.25 1.55 -0.25 1.7 -0.3 1.65 -0.3 1.7 -0.35 1.75 -0.4 1.8 -0.45 1.85 -0.45 1.8 -0.6 1.85 -0.6 1.9 -0.65 1.95 -0.6 2.0 -0.6 2.0 -0.55 2.05 -0.55 2.1 -0.55 2.2 -0.55 2.25 -0.6 2.3 -0.65 2.3 -0.65 2.6 -0.2 2.6 -0.1 2.6 -0.1 2.3 0.0 2.25 0.0 2.15 0.0 2.0 0.05 1.95 0.05 1.9 0.05 1.6 0.15 1.55 0.15 1.4 0.2 1.15 0.25 0.9 0.3 0.8 0.3 0.55 0.4 0.4 0.45 0.3 0.5 0.25 0.45 0.25 0.4 0.2 0.35 Q0.1 0.3 0.1 0.15 L0.05 0.1 -0.05 -0.05 -0.15 -0.35 -0.2 -0.6 -0.25 -0.75 -0.3 -1.0 -0.35 -1.15 -0.45 -1.3 -0.45 -1.3 -0.35 -1.35 -0.2 -1.45 0.05 -1.55 Q0.1 -1.5 0.1 -1.5 L0.2 -1.35 0.2 -1.25 0.2 -1.2 Q0.1 -1.0 0.0 -0.9 L0.0 -0.85 0.0 -0.6 0.0 -0.55 0.05 -0.5 0.05 -0.5 0.2 -0.3 0.3 -0.25 0.35 -0.2 Q0.65 -0.05 0.85 -0.1 L0.9 -0.15 Q1.15 -0.2 1.3 -0.35 M1.05 -1.4 L1.05 -1.4 M0.2 1.45 L0.15 1.45 0.05 1.4 0.0 1.4 -0.05 1.4 -0.1 1.35 -0.2 1.35 -0.35 1.35 -0.5 1.3 -0.55 1.3 -0.65 1.25 -0.65 1.25 -0.8 1.3 -0.8 1.3 -0.95 1.3 -1.05 1.3 -1.2 1.3 -1.4 1.35 -1.5 1.4 -1.6 1.45 -1.65 1.45 -1.7 1.4 -1.7 1.4 -2.1 1.4 -2.65 1.3 -2.75 1.3 Q-2.9 1.25 -3.0 1.15 L-3.15 0.85 -3.4 0.1 Q-3.55 -0.3 -3.55 -0.5 L-3.55 -0.65 -3.5 -0.7 Q-3.4 -0.6 -3.4 -0.45 L-3.4 -0.3 -3.35 -0.2 Q-3.35 -0.15 -3.35 -0.1 L-3.3 0.05 -3.25 0.15 -3.2 0.3 -3.15 0.4 -3.15 0.45 -3.1 0.6 -3.05 0.7 -3.05 0.75 -3.05 0.8 -3.0 0.8 -3.0 0.85 -3.0 0.9 -2.95 0.9 -2.9 0.9 -2.85 0.9 -2.85 0.95 -2.85 0.95 -2.95 0.9 -2.85 1.0 -2.8 1.05 -2.8 1.1 -2.9 1.15 -2.9 1.15 -2.85 1.2 -2.75 1.15 -2.65 1.2 -2.6 1.15 -2.65 1.05 -2.35 1.1 -2.1 1.05 -2.0 1.05 -1.95 1.0 -1.8 1.05 -1.7 1.05 -1.6 1.0 -1.6 1.0 -1.5 1.0 -1.3 1.05 -1.2 1.05 -1.1 1.05 -1.05 1.05 -0.95 1.05 -0.75 1.05 -0.5 1.1 -0.4 1.1 -0.35 1.1 -0.3 1.05 -0.25 1.1 -0.2 1.1 -0.15 1.1 0.0 1.15 0.0 1.15 0.05 1.05 0.05 1.0 0.25 1.0 0.35 1.1 0.45 1.1 0.65 1.05 0.85 1.05 1.1 1.1 1.15 1.05 Q1.15 1.0 1.25 1.0 L1.45 1.0 1.75 1.05 1.55 1.15 1.4 1.15 1.25 1.15 1.1 1.2 0.85 1.2 0.65 1.3 0.6 1.3 0.55 1.35 0.45 1.45 Q0.45 1.5 0.35 1.5 L0.3 1.5 0.25 1.4 0.25 1.45 0.2 1.45 M-3.05 -1.55 L-3.05 -1.6 -2.9 -1.6 -2.8 -1.6 -2.75 -1.45 Q-2.75 -1.4 -2.85 -1.35 L-2.85 -1.35 Q-2.9 -1.3 -2.9 -1.25 L-2.9 -1.1 -2.85 -1.0 -2.85 -0.85 -2.85 -0.75 -2.8 -0.75 -2.75 -0.65 -2.7 -0.6 -2.65 -0.55 -2.7 -0.4 -2.75 -0.25 -2.7 -0.15 -2.35 0.1 -2.4 0.05 -2.8 0.0 -2.9 0.0 -2.95 -0.1 -3.0 -0.2 -3.0 -0.5 -3.0 -0.6 -3.05 -1.15 -3.05 -1.55 M-0.75 -1.35 L-0.75 -1.35 -0.7 -1.35 -0.65 -1.3 -0.6 -1.2 -0.5 -0.95 -0.35 -0.55 Q-0.3 -0.4 -0.3 -0.15 L-0.25 0.0 -0.2 0.15 -0.2 0.2 -0.25 0.3 -0.25 0.5 -0.45 0.4 -0.85 0.35 -1.3 0.25 -1.3 0.2 -1.35 0.05 -1.3 -0.05 -1.3 -0.05 -1.3 0.0 -1.25 0.0 -0.95 0.05 -0.9 0.05 -0.9 0.0 -0.9 0.0 -1.0 0.0 -1.05 -0.05 Q-0.85 -0.1 -0.85 -0.2 L-0.9 -0.3 -0.9 -0.3 -0.95 -0.35 -0.9 -0.55 -0.95 -0.6 -0.95 -0.6 -1.05 -0.6 -1.05 -0.65 -1.05 -0.65 -1.05 -0.75 -0.85 -0.75 -0.85 -0.75 -0.9 -0.8 -0.95 -0.85 -1.05 -0.85 -1.05 -0.9 -1.1 -0.95 -1.1 -1.05 -1.25 -1.15 -1.2 -1.15 -1.05 -1.15 -0.9 -1.15 Q-0.8 -1.1 -0.8 -1.0 L-0.85 -0.95 -0.85 -0.9 -0.75 -0.9 -0.7 -1.0 -0.75 -1.1 -0.8 -1.1 -1.0 -1.2 -1.05 -1.25 -1.1 -1.3 -0.85 -1.3 Q-0.8 -1.3 -0.75 -1.35 M1.7 0.45 L1.8 0.45 1.7 0.5 1.45 0.55 1.4 0.55 1.15 0.6 1.15 0.65 1.25 0.65 1.0 0.7 0.85 0.65 0.85 0.6 Q0.85 0.55 0.65 0.5 L0.5 0.5 0.75 0.45 0.9 0.4 1.1 0.35 1.35 0.3 1.4 0.3 1.55 0.25 1.4 0.4 1.25 0.45 1.35 0.5 1.4 0.5 1.55 0.45 1.7 0.45 M0.2 1.15 L0.05 1.2 0.0 1.2 0.1 1.3 0.2 1.3 0.3 1.35 0.35 1.3 0.4 1.25 0.5 1.25 0.55 1.2 0.85 1.2 1.0 1.1 0.9 1.1 0.75 1.05 0.5 1.1 0.35 1.1 0.3 1.1 0.2 1.15 M-1.25 -0.05 L-1.4 0.0 -1.45 -0.05 -1.4 -0.05 -1.4 -0.1 -1.25 -0.2 -1.2 -0.3 -1.2 -0.25 -1.15 -0.25 -1.15 -0.2 -1.2 -0.15 -1.2 -0.1 -1.25 -0.05 M-2.15 -0.1 L-2.15 -0.1 -2.3 -0.05 -2.5 -0.15 -2.55 -0.25 -2.55 -0.35 -2.55 -0.5 -2.5 -0.5 -2.5 -0.45 -2.5 -0.25 -2.45 -0.25 -2.35 -0.2 -2.3 -0.2 -2.3 -0.2 -2.15 -0.1 M-2.55 -0.7 L-2.55 -0.7 -2.65 -0.75 -2.6 -0.85 -2.55 -0.85 -2.55 -0.75 -2.55 -0.7 M-1.6 -1.35 L-1.6 -1.35 -1.55 -1.4 -1.5 -1.4 -1.3 -1.35 -1.2 -1.3 -1.3 -1.3 -1.5 -1.3 -1.6 -1.35 M-2.35 -0.25 L-2.4 -0.3 -2.45 -0.4 -2.4 -0.35 -2.35 -0.3 -2.35 -0.25 M-2.55 -0.85 L-2.55 -0.85 M-1.1 -0.4 L-1.1 -0.4 -1.1 -0.45 -1.05 -0.45 -1.05 -0.4 -1.1 -0.4 -1.1 -0.4 M-0.8 0.0 L-0.75 -0.05 -0.65 -0.05 -0.6 -0.05 -0.55 0.0 -0.65 0.0 -0.65 0.05 -0.65 0.1 -0.55 0.15 -0.45 0.1 -0.4 0.0 -0.5 -0.1 -0.65 -0.15 -0.65 -0.15 Q-0.75 -0.15 -0.8 -0.1 L-0.8 -0.05 -0.85 -0.05 -0.85 0.0 -0.8 0.0 M-0.45 0.6 L-0.55 0.65 -0.4 0.7 -0.35 0.7 -0.35 0.75 -0.35 0.75 -0.5 0.8 -0.65 0.8 -0.8 0.8 -0.8 0.75 -0.85 0.75 -0.85 0.7 -0.85 0.6 -0.95 0.6 -1.15 0.55 -1.25 0.5 -1.45 0.45 -1.65 0.45 -1.9 0.4 -1.95 0.4 -1.8 0.35 -1.7 0.35 -1.65 0.35 -1.85 0.2 -0.95 0.45 -0.85 0.45 -0.35 0.6 -0.45 0.6 M-0.95 1.2 L-0.9 1.15 -1.05 1.1 -1.2 1.1 -1.3 1.1 -1.3 1.1 -1.35 1.1 -1.45 1.05 -1.6 1.05 -1.8 1.05 -1.85 1.05 -1.95 1.1 -1.9 1.15 -1.7 1.25 -1.55 1.25 -1.35 1.2 -1.1 1.2 -0.95 1.2" fill="#5f5f53" fill-rule="evenodd" stroke="none"/>
    <path d="M1.6 -1.5 L1.65 -1.45 1.8 -1.35 1.9 -1.2 1.95 -1.2 2.0 -1.1 2.05 -1.05 2.15 -0.9 2.2 -0.85 2.25 -0.8 2.3 -0.65 2.3 -0.65 2.25 -0.6 2.2 -0.55 2.1 -0.55 2.05 -0.55 2.0 -0.55 2.0 -0.6 1.95 -0.6 1.9 -0.65 1.85 -0.6 1.8 -0.6 1.85 -0.45 1.8 -0.45 1.75 -0.4 1.7 -0.35 1.65 -0.3 1.7 -0.3 1.55 -0.25 1.4 -0.25 1.35 -0.25 1.35 -0.25 1.3 -0.3 1.3 -0.35 1.4 -0.5 1.4 -0.5 1.5 -0.7 1.55 -0.75 1.55 -0.95 1.55 -1.0 1.5 -1.05 1.55 -1.1 1.55 -1.1 1.55 -1.2 1.65 -1.25 1.65 -1.3 1.55 -1.4 1.4 -1.45 1.35 -1.45 Q1.3 -1.45 1.25 -1.55 L1.15 -1.6 Q1.15 -1.65 1.25 -1.65 1.3 -1.65 1.3 -1.7 L1.3 -1.75 1.4 -1.65 1.55 -1.55 1.6 -1.5 M2.05 -1.05 L2.05 -1.05 M1.9 -1.2 L1.9 -1.2 M1.25 -1.75 L1.25 -1.75 1.2 -1.75 1.1 -1.75 1.05 -1.75 1.0 -1.75 0.9 -1.7 0.85 -1.65 0.85 -1.65 Q0.95 -1.6 0.95 -1.6 L1.05 -1.5 1.05 -1.4 0.9 -1.4 0.8 -1.4 0.55 -1.35 0.4 -1.3 0.35 -1.3 0.25 -1.35 0.2 -1.3 0.2 -1.25 0.2 -1.25 0.2 -1.35 0.1 -1.5 Q0.1 -1.5 0.05 -1.55 L0.25 -1.6 0.3 -1.65 0.75 -1.8 0.8 -1.8 1.0 -1.85 1.0 -1.85 1.15 -1.85 1.25 -1.75 M-2.8 -1.6 L-1.5 -1.5 -0.75 -1.35 Q-0.8 -1.3 -0.85 -1.3 L-1.1 -1.3 -1.15 -1.3 -1.2 -1.3 -1.3 -1.35 -1.5 -1.4 -1.55 -1.4 -1.6 -1.35 -1.6 -1.35 -1.65 -1.35 -1.65 -1.3 -1.65 -1.3 -1.9 -1.35 -2.05 -1.3 -2.05 -1.35 -2.15 -1.4 -2.2 -1.35 -2.2 -1.35 -2.25 -1.3 Q-2.35 -1.1 -2.5 -1.0 L-2.5 -1.0 -2.55 -0.95 Q-2.55 -0.95 -2.6 -0.95 L-2.55 -0.85 -2.6 -0.85 -2.65 -0.75 -2.55 -0.7 -2.55 -0.7 -2.55 -0.65 -2.55 -0.6 -2.5 -0.5 -2.55 -0.5 -2.55 -0.35 -2.55 -0.25 -2.5 -0.15 -2.3 -0.05 -2.15 -0.1 -2.15 -0.1 Q-2.0 0.0 -1.85 0.0 L-1.8 0.0 -1.5 -0.05 -1.45 -0.05 -1.4 0.0 -1.25 -0.05 -1.3 -0.05 -1.3 -0.05 -1.35 0.05 -1.3 0.2 -1.3 0.25 -1.35 0.25 -1.7 0.15 -1.9 0.15 -2.05 0.1 -2.35 0.1 -2.7 -0.15 -2.75 -0.25 -2.7 -0.4 -2.65 -0.55 -2.7 -0.6 -2.75 -0.65 -2.8 -0.75 -2.85 -0.75 -2.85 -0.85 -2.85 -1.0 -2.9 -1.1 -2.9 -1.25 Q-2.9 -1.3 -2.85 -1.35 L-2.85 -1.35 Q-2.75 -1.4 -2.75 -1.45 L-2.8 -1.6 M0.2 1.15 L0.3 1.1 0.35 1.1 0.5 1.1 0.75 1.05 0.9 1.1 1.0 1.1 0.85 1.2 0.55 1.2 0.5 1.25 0.4 1.25 0.35 1.3 0.3 1.35 0.2 1.3 0.1 1.3 0.0 1.2 0.05 1.2 0.2 1.15 M-1.05 -0.45 L-1.05 -0.6 -0.95 -0.6 -0.95 -0.6 -0.9 -0.55 -0.95 -0.35 -0.9 -0.3 -0.9 -0.3 -0.85 -0.2 Q-0.85 -0.1 -1.05 -0.05 L-1.05 -0.1 -1.1 -0.25 -1.1 -0.2 -1.15 -0.2 -1.15 -0.25 -1.2 -0.25 -1.2 -0.3 -1.1 -0.4 -1.1 -0.4 -1.05 -0.4 -1.05 -0.45 M-0.95 1.2 L-1.1 1.2 -1.35 1.2 -1.55 1.25 -1.7 1.25 -1.9 1.15 -1.95 1.1 -1.85 1.05 -1.8 1.05 -1.6 1.05 -1.45 1.05 -1.35 1.1 -1.3 1.1 -1.3 1.1 -1.2 1.1 -1.05 1.1 -0.9 1.15 -0.95 1.2" fill="#838371" fill-rule="evenodd" stroke="none"/>
    <path d="M1.55 -0.95 L1.55 -0.75 1.5 -0.7 1.4 -0.5 1.4 -0.5 1.3 -0.35 Q1.15 -0.2 0.9 -0.15 L0.85 -0.1 Q0.65 -0.05 0.35 -0.2 L0.3 -0.25 0.2 -0.3 0.3 -0.3 0.3 -0.25 0.35 -0.25 Q0.35 -0.2 0.4 -0.2 L0.45 -0.2 Q0.5 -0.2 0.55 -0.2 L0.55 -0.2 Q0.55 -0.25 0.55 -0.3 L0.6 -0.3 0.65 -0.25 0.65 -0.25 0.7 -0.25 0.75 -0.2 0.7 -0.2 0.7 -0.2 0.75 -0.15 0.85 -0.2 Q0.9 -0.2 0.95 -0.2 L0.95 -0.3 1.0 -0.25 1.0 -0.3 1.1 -0.3 1.2 -0.3 1.2 -0.4 1.25 -0.4 1.25 -0.4 1.2 -0.35 Q1.25 -0.35 1.25 -0.35 L1.25 -0.35 1.4 -0.5 1.4 -0.55 1.35 -0.55 1.35 -0.55 1.35 -0.6 1.35 -0.65 1.4 -0.65 1.4 -0.65 1.45 -0.7 1.45 -0.8 1.5 -0.85 1.55 -0.95 M1.05 -1.4 L1.05 -1.4 1.0 -1.4 1.0 -1.4 0.9 -1.35 0.65 -1.2 0.45 -1.2 0.25 -1.2 0.25 -1.2 0.6 -1.15 0.85 -1.2 0.95 -1.25 0.95 -1.3 1.1 -1.35 1.05 -1.35 1.05 -1.4 1.1 -1.4 1.05 -1.4 1.15 -1.4 1.15 -1.4 1.2 -1.4 1.1 -1.25 1.1 -1.25 1.05 -1.2 1.0 -1.15 0.95 -1.15 0.9 -1.15 0.85 -1.15 0.85 -1.1 0.8 -1.1 0.75 -1.15 0.65 -1.1 0.6 -1.15 0.4 -1.15 0.25 -1.2 0.2 -1.15 0.2 -1.1 0.25 -1.05 0.2 -1.0 0.2 -0.95 0.15 -0.95 0.15 -0.95 0.1 -0.95 0.15 -0.95 0.15 -0.9 Q0.1 -0.9 0.1 -0.85 L0.0 -0.9 Q0.1 -1.0 0.2 -1.2 L0.2 -1.25 0.2 -1.25 0.2 -1.3 0.25 -1.35 0.35 -1.3 0.4 -1.3 0.4 -1.3 0.45 -1.25 0.45 -1.25 0.5 -1.2 0.55 -1.2 0.6 -1.2 0.65 -1.2 0.65 -1.25 0.7 -1.3 0.7 -1.3 0.75 -1.3 0.75 -1.3 Q0.8 -1.3 0.85 -1.35 L0.8 -1.35 0.85 -1.4 0.85 -1.35 0.9 -1.4 0.9 -1.4 1.05 -1.4 M-1.5 -0.05 L-1.8 0.0 -1.85 0.0 Q-2.0 0.0 -2.15 -0.1 L-2.3 -0.2 -2.3 -0.2 -2.35 -0.25 -2.35 -0.3 -2.4 -0.35 -2.35 -0.35 -2.35 -0.3 -2.3 -0.3 Q-2.3 -0.25 -2.25 -0.2 L-2.2 -0.2 Q-2.2 -0.15 -2.15 -0.15 L-2.1 -0.15 -2.1 -0.25 -2.05 -0.25 -2.0 -0.2 -2.0 -0.2 -1.95 -0.2 -1.95 -0.15 -1.95 -0.1 -2.0 -0.15 -2.0 -0.1 -1.95 -0.1 -1.9 -0.05 -1.85 -0.05 -1.75 -0.1 -1.75 -0.1 Q-1.75 -0.1 -1.75 -0.15 L-1.75 -0.15 -1.7 -0.1 -1.65 -0.1 -1.6 -0.1 -1.5 -0.1 -1.5 -0.1 -1.45 -0.15 -1.45 -0.15 -1.45 -0.1 -1.4 -0.1 -1.25 -0.25 -1.25 -0.3 -1.3 -0.3 -1.3 -0.25 -1.3 -0.3 -1.3 -0.3 -1.3 -0.35 -1.25 -0.4 -1.25 -0.35 -1.2 -0.4 -1.2 -0.45 -1.15 -0.5 -1.15 -0.5 -1.1 -0.55 -1.05 -0.65 -1.05 -0.6 -1.05 -0.45 -1.1 -0.45 -1.1 -0.4 -1.1 -0.4 -1.2 -0.3 -1.25 -0.2 -1.4 -0.1 -1.5 -0.05 M-2.5 -1.0 Q-2.35 -1.1 -2.25 -1.3 L-2.2 -1.35 -2.2 -1.35 -2.15 -1.4 -2.05 -1.35 -2.05 -1.3 -2.0 -1.3 -1.95 -1.25 -2.0 -1.25 -2.0 -1.2 -1.95 -1.2 -1.9 -1.15 -1.85 -1.15 -1.8 -1.15 -1.8 -1.2 -1.75 -1.25 -1.75 -1.2 -1.7 -1.2 -1.7 -1.2 Q-1.65 -1.2 -1.6 -1.25 L-1.65 -1.25 -1.6 -1.3 -1.6 -1.25 -1.6 -1.25 -1.5 -1.25 -1.5 -1.3 -1.35 -1.2 -1.4 -1.2 -1.35 -1.2 -1.3 -1.2 -1.3 -1.15 -1.35 -1.05 Q-1.4 -1.0 -1.45 -1.0 L-1.5 -1.0 -1.55 -1.0 Q-1.55 -1.0 -1.6 -1.0 L-1.6 -1.0 -1.65 -1.0 -1.7 -1.0 -1.75 -1.05 -1.8 -1.05 Q-1.85 -1.05 -1.9 -1.1 L-2.05 -1.2 -2.2 -1.25 -2.25 -1.2 -2.25 -1.05 -2.3 -1.05 -2.35 -1.05 -2.35 -1.05 -2.4 -1.05 -2.35 -1.05 -2.35 -1.0 -2.45 -0.95 -2.5 -1.0 M-2.2 -1.25 L-1.7 -1.1 -1.65 -1.1 -1.5 -1.15 -1.45 -1.15 -1.4 -1.15 -1.4 -1.2 -1.45 -1.25 -1.5 -1.2 -1.65 -1.15 -1.8 -1.15 -2.15 -1.25 -2.2 -1.25" fill="#7e662b" fill-rule="evenodd" stroke="none"/>
    <path d="M1.5 -1.05 L1.55 -1.0 1.55 -0.95 1.5 -0.85 1.45 -0.8 1.45 -0.7 1.4 -0.65 1.4 -0.65 1.35 -0.65 1.35 -0.6 1.35 -0.55 1.35 -0.55 1.4 -0.55 1.4 -0.5 1.25 -0.35 1.25 -0.35 Q1.25 -0.35 1.2 -0.35 L1.25 -0.4 1.25 -0.4 1.2 -0.4 1.2 -0.3 1.1 -0.3 1.0 -0.3 1.0 -0.25 0.95 -0.3 0.95 -0.2 Q0.9 -0.2 0.85 -0.2 L0.75 -0.15 0.7 -0.2 0.7 -0.2 0.75 -0.2 0.7 -0.25 0.65 -0.25 0.65 -0.25 0.6 -0.3 0.55 -0.3 Q0.55 -0.25 0.55 -0.2 L0.55 -0.2 Q0.5 -0.2 0.45 -0.2 L0.4 -0.2 Q0.35 -0.2 0.35 -0.25 L0.3 -0.25 0.3 -0.3 0.2 -0.3 0.25 -0.3 0.3 -0.3 0.3 -0.35 Q0.35 -0.3 0.4 -0.3 L0.4 -0.35 0.45 -0.3 0.45 -0.35 0.4 -0.35 0.4 -0.4 0.4 -0.45 0.45 -0.45 0.45 -0.45 0.4 -0.5 0.45 -0.5 0.75 -0.45 0.95 -0.6 0.95 -0.6 1.0 -0.6 0.95 -0.6 0.95 -0.55 0.9 -0.5 0.9 -0.5 0.95 -0.45 0.9 -0.45 1.0 -0.45 1.05 -0.4 1.05 -0.45 1.1 -0.5 1.15 -0.5 1.15 -0.55 1.2 -0.55 1.2 -0.6 1.25 -0.6 1.25 -0.6 1.35 -0.65 1.35 -0.75 1.3 -0.7 1.3 -0.75 1.25 -0.7 1.3 -0.7 1.3 -0.7 1.25 -0.65 Q1.2 -0.65 1.2 -0.7 L1.2 -0.75 1.15 -0.75 1.2 -0.85 1.2 -0.9 1.25 -0.9 1.25 -0.9 1.3 -0.95 1.3 -0.95 Q1.3 -0.85 1.35 -0.9 L1.4 -0.9 1.4 -0.95 1.4 -1.05 1.35 -1.1 1.25 -1.1 1.25 -1.1 1.3 -1.1 1.3 -1.1 1.3 -1.15 1.25 -1.2 1.25 -1.25 1.2 -1.25 1.2 -1.2 1.15 -1.2 1.15 -1.15 1.1 -1.15 1.1 -1.15 1.05 -1.2 1.05 -1.15 Q1.05 -1.15 0.95 -1.1 L1.0 -1.1 0.95 -1.1 Q0.95 -1.05 0.95 -1.1 L0.9 -1.1 0.9 -1.1 0.8 -1.1 0.75 -1.05 0.6 -1.05 0.55 -1.05 0.5 -1.05 0.5 -1.05 0.45 -1.05 0.3 -0.95 0.3 -1.0 0.2 -0.9 0.15 -0.8 0.15 -0.7 0.1 -0.7 0.1 -0.7 0.1 -0.65 0.1 -0.65 0.05 -0.6 0.05 -0.65 0.0 -0.6 0.0 -0.85 0.0 -0.9 0.1 -0.85 Q0.1 -0.9 0.15 -0.9 L0.15 -0.95 0.1 -0.95 0.15 -0.95 0.15 -0.95 0.2 -0.95 0.2 -1.0 0.25 -1.05 0.2 -1.1 0.2 -1.15 0.25 -1.2 0.4 -1.15 0.6 -1.15 0.65 -1.1 0.75 -1.15 0.8 -1.1 0.85 -1.1 0.85 -1.15 0.9 -1.15 0.95 -1.15 1.0 -1.15 1.05 -1.2 1.1 -1.25 1.1 -1.25 1.2 -1.4 1.35 -1.3 1.4 -1.25 1.4 -1.25 1.45 -1.2 1.45 -1.15 1.5 -1.15 1.5 -1.05 M-2.55 -0.95 L-2.5 -1.0 -2.5 -1.0 -2.45 -0.95 -2.35 -1.0 -2.35 -1.05 -2.4 -1.05 -2.35 -1.05 -2.35 -1.05 -2.3 -1.05 -2.25 -1.05 -2.25 -1.2 -2.2 -1.25 -2.05 -1.2 -1.9 -1.1 Q-1.85 -1.05 -1.8 -1.05 L-1.75 -1.05 -1.7 -1.0 -1.65 -1.0 -1.6 -1.0 -1.6 -1.0 Q-1.55 -1.0 -1.55 -1.0 L-1.5 -1.0 -1.45 -1.0 Q-1.4 -1.0 -1.35 -1.05 L-1.3 -1.15 -1.25 -1.15 -1.1 -1.05 -1.1 -0.95 -1.05 -0.9 -1.05 -0.85 -1.05 -0.75 -1.05 -0.65 -1.05 -0.65 -1.1 -0.55 -1.15 -0.5 -1.15 -0.5 -1.2 -0.45 -1.2 -0.4 -1.25 -0.35 -1.25 -0.4 -1.3 -0.35 -1.3 -0.3 -1.3 -0.3 -1.3 -0.25 -1.3 -0.3 -1.25 -0.3 -1.25 -0.25 -1.4 -0.1 -1.45 -0.1 -1.45 -0.15 -1.45 -0.15 -1.5 -0.1 -1.5 -0.1 -1.6 -0.1 -1.65 -0.1 -1.7 -0.1 -1.75 -0.15 -1.75 -0.15 Q-1.75 -0.1 -1.75 -0.1 L-1.75 -0.1 -1.85 -0.05 -1.9 -0.05 -1.95 -0.1 -2.0 -0.1 -2.0 -0.15 -1.95 -0.1 -1.95 -0.15 -1.95 -0.2 -2.0 -0.2 -2.0 -0.2 -2.05 -0.25 -2.1 -0.25 -2.1 -0.15 -2.15 -0.15 Q-2.2 -0.15 -2.2 -0.2 L-2.25 -0.2 Q-2.3 -0.25 -2.3 -0.3 L-2.35 -0.3 -2.35 -0.35 -2.4 -0.35 -2.4 -0.35 -2.35 -0.4 -2.3 -0.4 -2.25 -0.35 -2.2 -0.35 -2.2 -0.35 -2.2 -0.4 -2.2 -0.45 -2.15 -0.45 -2.15 -0.45 -2.2 -0.5 -2.15 -0.5 Q-2.1 -0.4 -1.9 -0.4 L-1.85 -0.4 Q-1.75 -0.4 -1.65 -0.45 L-1.65 -0.4 Q-1.75 -0.4 -1.75 -0.35 L-1.7 -0.35 -1.7 -0.3 -1.7 -0.3 Q-1.75 -0.3 -1.65 -0.3 L-1.6 -0.25 -1.6 -0.3 -1.55 -0.3 -1.5 -0.3 -1.5 -0.35 -1.45 -0.35 -1.4 -0.35 -1.4 -0.4 -1.4 -0.4 -1.35 -0.35 Q-1.3 -0.35 -1.3 -0.4 L-1.25 -0.45 -1.25 -0.45 -1.3 -0.45 -1.3 -0.5 -1.35 -0.5 -1.3 -0.45 -1.35 -0.45 -1.35 -0.45 -1.4 -0.45 -1.4 -0.5 -1.45 -0.55 -1.4 -0.55 -1.4 -0.6 -1.35 -0.65 -1.35 -0.65 -1.3 -0.65 -1.3 -0.65 -1.25 -0.7 -1.25 -0.65 -1.2 -0.6 Q-1.2 -0.6 -1.15 -0.65 -1.15 -0.65 -1.15 -0.7 L-1.15 -0.75 -1.2 -0.8 Q-1.25 -0.85 -1.25 -0.85 L-1.25 -0.85 -1.2 -0.85 -1.2 -0.9 -1.25 -0.95 -1.25 -1.0 -1.3 -1.0 -1.3 -1.0 -1.35 -1.0 -1.4 -0.95 -1.4 -0.95 -1.4 -1.0 -1.4 -1.0 -1.5 -0.95 -1.55 -0.95 -1.55 -0.95 -1.55 -0.95 -1.6 -0.95 -1.6 -0.95 -1.7 -0.95 -1.7 -1.0 -1.75 -1.0 -1.9 -1.0 -1.95 -1.05 -2.0 -1.05 -2.0 -1.05 -2.05 -1.05 -2.2 -1.0 -2.2 -1.05 -2.3 -1.0 -2.35 -0.95 -2.4 -0.9 -2.35 -0.85 Q-2.35 -0.8 -2.4 -0.8 L-2.4 -0.8 -2.45 -0.8 -2.45 -0.75 -2.45 -0.7 -2.45 -0.75 -2.5 -0.75 -2.5 -0.75 -2.55 -0.75 -2.55 -0.85 -2.55 -0.95" fill="#987b34" fill-rule="evenodd" stroke="none"/>
    <path d="M1.0 -1.4 L1.05 -1.4 1.05 -1.35 1.1 -1.35 0.95 -1.3 0.95 -1.25 0.85 -1.2 0.6 -1.15 0.25 -1.2 0.25 -1.2 0.45 -1.2 0.65 -1.2 0.9 -1.35 1.0 -1.4 1.0 -1.4 M0.4 -1.3 L0.55 -1.35 0.8 -1.4 0.9 -1.4 0.9 -1.4 0.85 -1.35 0.85 -1.4 0.8 -1.35 0.85 -1.35 Q0.8 -1.3 0.75 -1.3 L0.75 -1.3 0.7 -1.3 0.7 -1.3 0.65 -1.25 0.65 -1.2 0.6 -1.2 0.55 -1.2 0.5 -1.2 0.45 -1.25 0.45 -1.25 0.4 -1.3 0.4 -1.3 M-2.05 -1.3 L-1.9 -1.35 -1.65 -1.3 -1.65 -1.3 -1.6 -1.3 -1.5 -1.3 -1.5 -1.25 -1.6 -1.25 -1.6 -1.25 -1.6 -1.3 -1.65 -1.25 -1.6 -1.25 Q-1.65 -1.2 -1.7 -1.2 L-1.7 -1.2 -1.75 -1.2 -1.75 -1.25 -1.8 -1.2 -1.8 -1.15 -1.85 -1.15 -1.9 -1.15 -1.95 -1.2 -2.0 -1.2 -2.0 -1.25 -1.95 -1.25 -2.0 -1.3 -2.05 -1.3 M-2.2 -1.25 L-2.15 -1.25 -1.8 -1.15 -1.65 -1.15 -1.5 -1.2 -1.45 -1.25 -1.4 -1.2 -1.4 -1.15 -1.45 -1.15 -1.5 -1.15 -1.65 -1.1 -1.7 -1.1 -2.2 -1.25" fill="#624f21" fill-rule="evenodd" stroke="none"/>
    <path d="M1.05 -1.4 L1.15 -1.45 1.25 -1.45 Q1.3 -1.4 1.35 -1.35 L1.35 -1.3 1.4 -1.3 1.55 -1.25 1.55 -1.2 1.45 -1.15 1.45 -1.2 1.4 -1.25 1.4 -1.25 1.35 -1.3 1.2 -1.4 1.15 -1.4 1.15 -1.4 1.05 -1.4 1.1 -1.4 1.05 -1.4 M-0.65 -1.3 L-0.5 -1.3 -0.45 -1.3 -0.35 -1.15 -0.3 -1.0 -0.25 -0.75 -0.2 -0.6 -0.15 -0.35 -0.05 -0.05 0.05 0.1 0.1 0.15 Q0.1 0.3 0.2 0.35 L0.25 0.4 0.25 0.45 0.3 0.5 0.4 0.45 0.55 0.4 0.8 0.3 0.9 0.3 1.15 0.25 1.4 0.2 1.55 0.15 Q1.55 0.2 1.65 0.2 L1.75 0.15 1.85 0.15 2.05 0.2 2.05 0.25 2.1 0.25 2.1 0.4 1.95 0.45 1.95 0.55 1.9 0.6 1.85 0.65 1.9 0.75 1.95 0.8 1.9 0.85 1.9 0.9 1.75 0.9 1.6 0.85 1.5 0.9 1.4 0.9 1.35 0.9 0.95 0.9 0.65 0.9 0.45 0.85 0.4 0.9 0.4 1.0 0.35 1.0 0.35 0.9 0.4 0.9 0.45 0.8 0.4 0.75 0.35 0.65 0.25 0.6 0.2 0.6 0.1 0.55 0.1 0.35 0.0 0.1 -0.2 -0.4 -0.25 -0.6 -0.35 -0.9 -0.5 -1.25 -0.5 -1.25 -0.45 -1.0 -0.35 -0.75 -0.35 -0.6 -0.3 -0.55 -0.3 -0.4 -0.25 -0.25 -0.15 0.0 -0.1 0.15 Q-0.05 0.3 -0.05 0.35 L-0.1 0.45 -0.15 0.55 -0.15 0.6 -0.1 0.65 -0.05 0.7 -0.1 0.75 -0.15 0.8 -0.05 0.95 -0.05 0.95 -0.05 1.0 -0.15 1.0 -0.2 1.0 -0.3 1.0 -0.35 1.0 -0.75 0.9 -0.9 0.9 -1.2 0.9 -1.25 0.95 -1.6 0.95 -1.65 0.95 -1.65 0.95 -1.55 0.95 -1.5 0.85 -1.55 0.85 -1.55 0.85 -1.75 0.8 -1.75 0.75 -1.65 0.75 -1.45 0.75 -1.3 0.7 -1.2 0.65 -1.2 0.6 -1.3 0.6 -1.65 0.6 -1.95 0.55 -2.0 0.55 -2.1 0.5 -2.2 0.55 -2.3 0.55 -2.5 0.45 -2.45 0.4 -2.15 0.45 Q-1.95 0.45 -1.95 0.35 L-1.95 0.3 -2.2 0.3 -2.65 0.15 -2.75 0.1 -2.8 0.0 -2.4 0.05 -2.35 0.1 -2.05 0.1 -1.9 0.15 -1.7 0.15 -1.35 0.25 -1.3 0.25 -0.85 0.35 -0.45 0.4 -0.25 0.5 -0.25 0.3 -0.2 0.2 -0.2 0.15 -0.25 0.0 -0.3 -0.15 Q-0.3 -0.4 -0.35 -0.55 L-0.5 -0.95 -0.6 -1.2 -0.65 -1.3 M1.7 0.45 L1.55 0.45 1.4 0.5 1.35 0.5 1.25 0.45 1.4 0.4 1.55 0.25 1.4 0.3 1.35 0.3 1.1 0.35 0.9 0.4 0.75 0.45 0.5 0.5 0.65 0.5 Q0.85 0.55 0.85 0.6 L0.85 0.65 1.0 0.7 1.25 0.65 1.15 0.65 1.15 0.6 1.4 0.55 1.45 0.55 1.7 0.5 1.8 0.45 1.7 0.45 M-1.3 -0.05 L-1.25 -0.05 -1.2 -0.1 -1.2 -0.15 -1.15 -0.2 -1.1 -0.2 -1.1 -0.25 -1.05 -0.1 -1.05 -0.05 -1.0 0.0 -0.9 0.0 -0.9 0.0 -0.9 0.05 -0.95 0.05 -1.25 0.0 -1.3 0.0 -1.3 -0.05 M-1.45 -0.05 L-1.5 -0.05 -1.4 -0.1 -1.4 -0.05 -1.45 -0.05 M-2.55 -0.85 L-2.6 -0.95 Q-2.55 -0.95 -2.55 -0.95 L-2.55 -0.85 -2.55 -0.85 M-1.65 -1.3 L-1.65 -1.35 -1.6 -1.35 -1.5 -1.3 -1.3 -1.3 -1.2 -1.3 -1.15 -1.3 -1.1 -1.3 -1.05 -1.25 -1.0 -1.2 -0.8 -1.1 -0.75 -1.1 -0.7 -1.0 -0.75 -0.9 -0.85 -0.9 -0.85 -0.95 -0.8 -1.0 Q-0.8 -1.1 -0.9 -1.15 L-1.05 -1.15 -1.2 -1.15 -1.25 -1.15 -1.3 -1.15 -1.3 -1.2 -1.35 -1.2 -1.4 -1.2 -1.35 -1.2 -1.5 -1.3 -1.6 -1.3 -1.65 -1.3 M-1.05 -0.75 L-1.05 -0.85 -0.95 -0.85 -0.9 -0.8 -0.85 -0.75 -0.85 -0.75 -1.05 -0.75 M-2.3 -0.2 L-2.35 -0.2 -2.45 -0.25 -2.5 -0.25 -2.5 -0.45 -2.45 -0.4 -2.4 -0.3 -2.35 -0.25 -2.3 -0.2 M-0.8 0.0 L-0.85 0.0 -0.85 -0.05 -0.8 -0.05 -0.8 -0.1 Q-0.75 -0.15 -0.65 -0.15 L-0.65 -0.15 -0.5 -0.1 -0.4 0.0 -0.45 0.1 -0.55 0.15 -0.65 0.1 -0.65 0.05 -0.65 0.0 -0.55 0.0 -0.6 -0.05 -0.65 -0.05 -0.75 -0.05 -0.8 0.0 M-0.45 0.6 L-0.35 0.6 -0.85 0.45 -0.95 0.45 -1.85 0.2 -1.65 0.35 -1.7 0.35 -1.8 0.35 -1.95 0.4 -1.9 0.4 -1.65 0.45 -1.45 0.45 -1.25 0.5 -1.15 0.55 -0.95 0.6 -0.85 0.6 -0.85 0.7 -0.85 0.75 -0.8 0.75 -0.8 0.8 -0.65 0.8 -0.5 0.8 -0.35 0.75 -0.35 0.75 -0.35 0.7 -0.4 0.7 -0.55 0.65 -0.45 0.6" fill="#4d473e" fill-rule="evenodd" stroke="none"/>
    <path d="M2.15 0.0 L2.15 0.0 2.25 0.05 2.25 0.15 2.25 0.25 2.3 0.35 2.3 0.55 2.25 0.7 2.25 0.75 2.1 0.8 1.95 0.85 1.9 0.9 1.9 0.85 1.95 0.8 1.9 0.75 1.85 0.65 1.9 0.6 1.95 0.55 1.95 0.45 2.1 0.4 2.1 0.25 2.05 0.25 2.05 0.2 1.85 0.15 1.75 0.15 1.65 0.2 Q1.55 0.2 1.55 0.15 L1.6 0.15 1.9 0.05 1.95 0.05 2.0 0.05 2.15 0.0 M0.35 1.0 L0.25 0.95 0.2 0.9 0.15 0.8 0.1 0.75 Q0.05 0.75 0.05 0.8 L0.0 0.95 -0.05 0.95 -0.05 0.95 -0.15 0.8 -0.1 0.75 -0.05 0.7 -0.1 0.65 -0.15 0.6 -0.15 0.55 -0.1 0.45 -0.05 0.35 Q-0.05 0.3 -0.1 0.15 L-0.15 0.0 -0.25 -0.25 -0.3 -0.4 -0.3 -0.55 -0.35 -0.6 -0.35 -0.75 -0.45 -1.0 -0.5 -1.25 -0.5 -1.25 -0.35 -0.9 -0.25 -0.6 -0.2 -0.4 0.0 0.1 0.1 0.35 0.1 0.55 0.2 0.6 0.25 0.6 0.35 0.65 0.4 0.75 0.45 0.8 0.4 0.9 0.35 0.9 0.35 1.0 M-1.65 0.95 L-1.7 0.95 -2.0 1.0 -2.15 1.0 -2.35 1.0 -2.75 0.9 -2.85 0.9 -2.9 0.8 -2.9 0.7 Q-2.8 0.75 -2.8 0.65 L-2.85 0.55 -2.85 0.45 -2.85 0.35 -2.9 0.25 -2.95 0.15 -2.95 0.05 -2.9 0.0 -2.8 0.0 -2.75 0.1 -2.65 0.15 -2.2 0.3 -1.95 0.3 -1.95 0.35 Q-1.95 0.45 -2.15 0.45 L-2.45 0.4 -2.5 0.45 -2.3 0.55 -2.2 0.55 -2.1 0.5 -2.0 0.55 -1.95 0.55 -1.65 0.6 -1.3 0.6 -1.2 0.6 -1.2 0.65 -1.3 0.7 -1.45 0.75 -1.65 0.75 -1.75 0.75 -1.75 0.8 -1.55 0.85 -1.55 0.85 -1.5 0.85 -1.55 0.95 -1.65 0.95 -1.65 0.95 M-3.3 -0.2 L-3.15 -0.2 -3.15 -0.35 Q-3.05 -0.35 -3.05 -0.4 L-3.0 -0.5 -3.0 -0.2 -3.0 -0.1 -3.05 0.1 -3.1 0.3 -3.15 0.45 -3.15 0.45 -3.15 0.4 -3.2 0.3 -3.25 0.15 -3.25 0.1 -3.3 0.0 -3.3 0.0 -3.3 -0.2" fill="#4f403a" fill-rule="evenodd" stroke="none"/>
    <path d="M0.6 -1.05 L0.75 -1.05 0.75 -1.05 0.7 -1.05 0.65 -1.0 0.65 -1.0 0.6 -0.95 0.6 -0.95 0.55 -0.95 0.5 -0.85 0.55 -0.8 0.55 -0.8 0.5 -0.75 Q0.5 -0.7 0.65 -0.7 L0.7 -0.75 0.7 -0.7 0.7 -0.7 0.6 -0.6 0.6 -0.6 0.55 -0.6 0.55 -0.55 0.6 -0.55 0.65 -0.55 0.65 -0.55 0.7 -0.55 0.7 -0.65 0.75 -0.65 0.75 -0.6 0.8 -0.65 0.8 -0.7 0.85 -0.7 0.9 -0.75 0.95 -0.75 1.0 -0.8 0.95 -0.65 0.9 -0.6 0.75 -0.5 0.75 -0.5 0.7 -0.5 0.6 -0.5 0.45 -0.5 0.45 -0.55 0.4 -0.6 0.35 -0.6 Q0.35 -0.65 0.35 -0.7 0.3 -0.8 0.35 -0.9 L0.45 -0.95 Q0.5 -1.05 0.6 -1.05 L0.6 -1.05 M0.8 -1.0 L0.8 -1.05 0.8 -1.0 0.8 -1.0 M0.7 -1.0 L0.7 -0.95 0.65 -0.95 0.65 -0.95 0.7 -1.0 0.7 -1.0 M0.65 -0.85 L0.65 -0.8 0.6 -0.85 0.6 -0.85 0.65 -0.85 0.65 -0.85 M-2.05 -1.0 L-1.9 -1.0 -1.9 -1.0 -1.75 -1.0 -1.75 -0.95 -1.8 -0.95 -1.85 -0.95 -1.9 -0.95 -1.9 -0.9 -1.95 -0.9 -1.95 -0.9 -2.0 -0.85 -2.0 -0.85 -2.0 -0.75 -2.05 -0.75 -2.0 -0.7 -1.95 -0.65 Q-1.9 -0.65 -1.9 -0.65 L-1.9 -0.65 -1.85 -0.6 -2.0 -0.55 -2.0 -0.55 -2.05 -0.55 -2.05 -0.55 -2.0 -0.5 Q-2.0 -0.5 -1.95 -0.5 L-1.95 -0.45 -1.9 -0.5 -1.9 -0.55 -1.85 -0.55 -1.85 -0.5 -1.8 -0.55 -1.8 -0.6 -1.7 -0.6 -1.7 -0.6 -1.65 -0.6 -1.6 -0.65 Q-1.6 -0.55 -1.65 -0.5 -1.75 -0.4 -1.85 -0.4 L-1.9 -0.4 -2.1 -0.5 -2.15 -0.6 -2.2 -0.65 -2.2 -0.75 -2.2 -0.85 -2.15 -0.9 -2.1 -0.9 -2.05 -1.0 M-1.9 -0.8 Q-1.9 -0.75 -1.9 -0.75 L-1.9 -0.8 -1.9 -0.8 M-1.8 -0.85 L-1.85 -0.85 -1.85 -0.9 -1.8 -0.9 -1.8 -0.9 -1.8 -0.85 M-1.7 -0.9 L-1.7 -0.9 -1.7 -0.9 -1.7 -0.9" fill="#debe55" fill-rule="evenodd" stroke="none"/>
    <path d="M0.75 -1.05 L0.8 -1.1 0.9 -1.1 0.9 -1.1 0.9 -1.0 0.9 -1.0 0.95 -1.0 0.95 -1.05 1.0 -1.05 1.0 -1.0 1.05 -1.0 1.05 -1.05 1.1 -1.05 1.1 -1.05 1.2 -1.05 1.15 -0.95 1.1 -0.95 1.1 -0.95 1.15 -0.9 1.1 -0.9 1.05 -0.9 1.05 -0.9 1.0 -0.9 1.0 -0.95 0.95 -0.95 1.0 -0.9 1.0 -0.85 1.05 -0.8 1.0 -0.65 1.0 -0.6 0.95 -0.6 0.95 -0.6 0.75 -0.45 0.45 -0.5 0.4 -0.5 0.35 -0.45 0.35 -0.45 0.35 -0.4 0.3 -0.4 0.25 -0.45 0.25 -0.45 0.3 -0.5 0.25 -0.5 0.2 -0.55 0.2 -0.55 0.25 -0.6 0.2 -0.6 0.15 -0.6 0.15 -0.65 0.2 -0.65 0.2 -0.7 0.25 -0.8 0.3 -0.9 0.3 -0.9 0.4 -0.95 0.45 -0.95 0.35 -0.9 Q0.3 -0.8 0.35 -0.7 0.35 -0.65 0.35 -0.6 L0.4 -0.6 0.45 -0.55 0.45 -0.5 0.6 -0.5 0.7 -0.5 0.75 -0.5 0.75 -0.5 0.9 -0.6 0.95 -0.65 1.0 -0.8 0.95 -0.75 0.9 -0.75 0.85 -0.7 0.8 -0.7 0.8 -0.65 0.75 -0.6 0.75 -0.65 0.7 -0.65 0.7 -0.55 0.65 -0.55 0.65 -0.55 0.6 -0.55 0.55 -0.55 0.55 -0.6 0.6 -0.6 0.6 -0.6 0.7 -0.7 0.7 -0.7 0.7 -0.75 0.65 -0.7 Q0.5 -0.7 0.5 -0.75 L0.55 -0.8 0.55 -0.8 0.5 -0.85 0.55 -0.95 0.6 -0.95 0.6 -0.95 0.65 -1.0 0.65 -1.0 0.7 -1.05 0.75 -1.05 0.75 -1.05 M0.8 -1.0 L0.8 -1.0 0.8 -1.05 0.8 -1.0 M0.65 -0.85 L0.65 -0.85 0.6 -0.85 0.6 -0.85 0.65 -0.8 0.65 -0.85 M0.7 -1.0 L0.7 -1.0 0.65 -0.95 0.65 -0.95 0.7 -0.95 0.7 -1.0 M-2.2 -0.5 L-2.25 -0.5 -2.25 -0.45 -2.3 -0.45 -2.3 -0.45 -2.35 -0.5 -2.35 -0.5 -2.3 -0.55 -2.35 -0.6 -2.35 -0.65 -2.35 -0.7 -2.4 -0.7 -2.4 -0.7 -2.35 -0.75 -2.35 -0.75 -2.3 -0.85 -2.3 -0.85 -2.2 -0.95 -2.2 -0.9 -2.15 -0.95 -2.1 -1.0 -2.05 -1.0 -2.1 -0.9 -2.15 -0.9 -2.2 -0.85 -2.2 -0.75 -2.2 -0.65 -2.15 -0.6 -2.1 -0.5 -1.9 -0.4 -1.85 -0.4 Q-1.75 -0.4 -1.65 -0.5 -1.6 -0.55 -1.6 -0.65 L-1.65 -0.6 -1.7 -0.6 -1.7 -0.6 -1.8 -0.6 -1.8 -0.55 -1.85 -0.5 -1.85 -0.55 -1.9 -0.55 -1.9 -0.5 -1.95 -0.45 -1.95 -0.5 Q-2.0 -0.5 -2.0 -0.5 L-2.05 -0.55 -2.05 -0.55 -2.0 -0.55 -2.0 -0.55 -1.85 -0.6 -1.9 -0.65 -1.9 -0.65 Q-1.9 -0.65 -1.95 -0.65 L-2.0 -0.7 -2.05 -0.75 -2.0 -0.75 -2.0 -0.85 -2.0 -0.85 -1.95 -0.9 -1.95 -0.9 -1.9 -0.9 -1.9 -0.95 -1.85 -0.95 -1.8 -0.95 -1.75 -0.95 -1.75 -1.0 -1.7 -1.0 -1.7 -0.95 -1.6 -0.95 -1.6 -0.95 -1.6 -0.9 -1.6 -0.85 -1.6 -0.85 -1.55 -0.85 -1.5 -0.85 -1.55 -0.85 -1.5 -0.85 -1.5 -0.85 -1.45 -0.85 -1.45 -0.9 -1.35 -0.8 Q-1.35 -0.75 -1.4 -0.75 L-1.45 -0.8 -1.45 -0.7 -1.45 -0.7 -1.5 -0.7 -1.5 -0.7 -1.55 -0.7 -1.55 -0.8 -1.6 -0.8 -1.55 -0.7 -1.55 -0.65 -1.55 -0.65 Q-1.55 -0.55 -1.6 -0.5 L-1.65 -0.45 -1.65 -0.45 Q-1.75 -0.4 -1.85 -0.4 L-1.9 -0.4 Q-2.1 -0.4 -2.15 -0.5 L-2.2 -0.5 M-1.7 -0.9 L-1.7 -0.9 -1.7 -0.9 -1.7 -0.9 M-1.8 -0.85 L-1.8 -0.9 -1.8 -0.9 -1.85 -0.9 -1.85 -0.85 -1.8 -0.85 M-1.9 -0.8 L-1.9 -0.8 -1.9 -0.75 Q-1.9 -0.75 -1.9 -0.8" fill="#c6a126" fill-rule="evenodd" stroke="none"/>
    <path d="M0.0 -0.6 L0.05 -0.65 0.05 -0.6 0.1 -0.65 0.1 -0.65 0.1 -0.7 0.1 -0.7 0.15 -0.7 0.15 -0.8 0.2 -0.9 0.3 -1.0 0.3 -0.95 0.45 -1.05 0.5 -1.05 0.5 -1.05 0.55 -1.05 0.6 -1.05 0.6 -1.05 Q0.5 -1.05 0.45 -0.95 L0.4 -0.95 0.3 -0.9 0.3 -0.9 0.25 -0.8 0.2 -0.7 0.2 -0.65 0.15 -0.65 0.15 -0.6 0.2 -0.6 0.25 -0.6 0.2 -0.55 0.2 -0.55 0.25 -0.5 0.3 -0.5 0.25 -0.45 0.25 -0.45 0.3 -0.4 0.35 -0.4 0.35 -0.45 0.35 -0.45 0.4 -0.5 0.45 -0.45 0.45 -0.45 0.4 -0.45 0.4 -0.4 0.4 -0.35 0.45 -0.35 0.45 -0.3 0.4 -0.35 0.4 -0.3 Q0.35 -0.3 0.3 -0.35 L0.3 -0.3 0.25 -0.3 0.2 -0.3 0.05 -0.5 0.05 -0.5 0.0 -0.55 0.0 -0.6 M0.9 -1.1 L0.95 -1.1 Q0.95 -1.05 0.95 -1.1 L1.0 -1.1 0.95 -1.1 Q1.05 -1.15 1.05 -1.15 L1.05 -1.2 1.1 -1.15 1.1 -1.15 1.15 -1.15 1.15 -1.2 1.2 -1.2 1.2 -1.25 1.25 -1.25 1.25 -1.2 1.3 -1.15 1.3 -1.1 1.3 -1.1 1.25 -1.1 1.25 -1.1 1.35 -1.1 1.4 -1.05 1.4 -0.95 1.4 -0.9 1.35 -0.9 Q1.3 -0.85 1.3 -0.95 L1.3 -0.95 1.25 -0.9 1.25 -0.9 1.2 -0.9 1.2 -0.85 1.15 -0.75 1.2 -0.75 1.2 -0.7 Q1.2 -0.65 1.25 -0.65 L1.3 -0.7 1.3 -0.7 1.25 -0.7 1.3 -0.75 1.3 -0.7 1.35 -0.75 1.35 -0.65 1.25 -0.6 1.25 -0.6 1.2 -0.6 1.2 -0.55 1.15 -0.55 1.15 -0.5 1.1 -0.5 1.05 -0.45 1.05 -0.4 1.0 -0.45 0.9 -0.45 0.95 -0.45 0.9 -0.5 0.9 -0.5 0.95 -0.55 0.95 -0.6 1.0 -0.6 1.0 -0.65 1.05 -0.8 1.0 -0.85 1.0 -0.9 0.95 -0.95 1.0 -0.95 1.0 -0.9 1.05 -0.9 1.05 -0.9 1.1 -0.9 1.15 -0.9 1.1 -0.95 1.1 -0.95 1.15 -0.95 1.2 -1.05 1.1 -1.05 1.1 -1.05 1.05 -1.05 1.05 -1.0 1.0 -1.0 1.0 -1.05 0.95 -1.05 0.95 -1.0 0.9 -1.0 0.9 -1.0 0.9 -1.1 M-2.5 -0.5 L-2.55 -0.6 -2.55 -0.65 -2.55 -0.7 -2.55 -0.75 -2.5 -0.75 -2.5 -0.75 -2.45 -0.75 -2.45 -0.7 -2.45 -0.75 -2.45 -0.8 -2.4 -0.8 -2.4 -0.8 Q-2.35 -0.8 -2.35 -0.85 L-2.4 -0.9 -2.35 -0.95 -2.3 -1.0 -2.2 -1.05 -2.2 -1.0 -2.05 -1.05 -2.0 -1.05 -2.0 -1.05 -1.95 -1.05 -1.9 -1.0 -1.9 -1.0 -2.05 -1.0 -2.1 -1.0 -2.15 -0.95 -2.2 -0.9 -2.2 -0.95 -2.3 -0.85 -2.3 -0.85 -2.35 -0.75 -2.35 -0.75 -2.4 -0.7 -2.4 -0.7 -2.35 -0.7 -2.35 -0.65 -2.35 -0.6 -2.3 -0.55 -2.35 -0.5 -2.35 -0.5 -2.3 -0.45 -2.3 -0.45 -2.25 -0.45 -2.25 -0.5 -2.2 -0.5 -2.15 -0.45 -2.15 -0.45 -2.2 -0.45 -2.2 -0.4 -2.2 -0.35 -2.2 -0.35 -2.25 -0.35 -2.3 -0.4 -2.35 -0.4 -2.4 -0.35 -2.4 -0.35 -2.45 -0.4 -2.5 -0.45 -2.5 -0.5 M-1.6 -0.95 L-1.55 -0.95 -1.55 -0.95 -1.55 -0.95 -1.5 -0.95 -1.4 -1.0 -1.4 -1.0 -1.4 -0.95 -1.4 -0.95 -1.35 -1.0 -1.3 -1.0 -1.3 -1.0 -1.25 -1.0 -1.25 -0.95 -1.2 -0.9 -1.2 -0.85 -1.25 -0.85 -1.25 -0.85 Q-1.25 -0.85 -1.2 -0.8 L-1.15 -0.75 -1.15 -0.7 Q-1.15 -0.65 -1.15 -0.65 -1.2 -0.6 -1.2 -0.6 L-1.25 -0.65 -1.25 -0.7 -1.3 -0.65 -1.3 -0.65 -1.35 -0.65 -1.35 -0.65 -1.4 -0.6 -1.4 -0.55 -1.45 -0.55 -1.4 -0.5 -1.4 -0.45 -1.35 -0.45 -1.35 -0.45 -1.3 -0.45 -1.35 -0.5 -1.3 -0.5 -1.3 -0.45 -1.25 -0.45 -1.25 -0.45 -1.3 -0.4 Q-1.3 -0.35 -1.35 -0.35 L-1.4 -0.4 -1.4 -0.4 -1.4 -0.35 -1.45 -0.35 -1.5 -0.35 -1.5 -0.3 -1.55 -0.3 -1.6 -0.3 -1.6 -0.25 -1.65 -0.3 Q-1.75 -0.3 -1.7 -0.3 L-1.7 -0.3 -1.7 -0.35 -1.75 -0.35 Q-1.75 -0.4 -1.65 -0.4 L-1.65 -0.45 -1.65 -0.45 -1.6 -0.5 Q-1.55 -0.55 -1.55 -0.65 L-1.55 -0.65 -1.55 -0.7 -1.6 -0.8 -1.55 -0.8 -1.55 -0.7 -1.5 -0.7 -1.5 -0.7 -1.45 -0.7 -1.45 -0.7 -1.45 -0.8 -1.4 -0.75 Q-1.35 -0.75 -1.35 -0.8 L-1.45 -0.9 -1.45 -0.85 -1.5 -0.85 -1.5 -0.85 -1.55 -0.85 -1.5 -0.85 -1.55 -0.85 -1.6 -0.85 -1.6 -0.85 -1.6 -0.9 -1.6 -0.95" fill="#af8d2d" fill-rule="evenodd" stroke="none"/>
    <path d="M-3.15 0.45 L-3.15 0.45 -3.1 0.3 -3.05 0.1 -3.0 -0.1 -3.0 -0.2 -2.95 -0.1 -2.9 0.0 -2.95 0.05 -2.95 0.15 -2.9 0.25 -2.85 0.35 -2.85 0.45 -2.85 0.55 -2.8 0.65 Q-2.8 0.75 -2.9 0.7 L-2.9 0.8 -2.85 0.9 -2.9 0.9 -2.95 0.9 -3.0 0.9 -3.0 0.85 -3.0 0.8 -3.05 0.8 -3.05 0.75 -3.05 0.7 -3.1 0.6 -3.15 0.45" fill="#413530" fill-rule="evenodd" stroke="none"/>
    <path d="M2.35 0.7 L2.45 0.75 2.5 0.8 2.5 0.95 2.2 1.15 1.7 1.25 1.5 1.3 1.4 1.35 1.35 1.3 1.2 1.35 1.0 1.35 Q1.0 1.35 0.9 1.4 L0.85 1.45 0.7 1.45 0.6 1.5 0.55 1.6 Q0.35 1.55 0.3 1.5 0.25 1.45 0.2 1.45 L0.25 1.45 0.25 1.4 0.3 1.5 0.35 1.5 Q0.45 1.5 0.45 1.45 L0.55 1.35 0.6 1.3 0.65 1.3 0.85 1.2 1.1 1.2 1.25 1.15 1.4 1.15 1.55 1.15 1.75 1.05 1.45 1.0 1.25 1.0 Q1.15 1.0 1.15 1.05 L1.1 1.1 0.85 1.05 0.65 1.05 0.45 1.1 0.35 1.1 0.25 1.0 0.05 1.0 0.05 1.05 0.0 1.15 0.0 1.15 -0.15 1.1 -0.2 1.1 -0.25 1.1 -0.3 1.05 -0.35 1.1 -0.4 1.1 -0.5 1.1 -0.75 1.05 -0.95 1.05 -1.05 1.05 -1.1 1.05 -1.2 1.05 -1.3 1.05 -1.5 1.0 -1.6 1.0 -1.6 1.0 -1.7 1.05 -1.8 1.05 -1.95 1.0 -2.0 1.05 -2.1 1.05 -2.35 1.1 -2.65 1.05 -2.7 1.05 -2.8 1.0 -2.85 1.0 -2.85 0.95 -2.85 0.9 -2.75 0.9 -2.35 1.0 -2.15 1.0 -2.0 1.0 -1.7 0.95 -1.65 0.95 -1.6 0.95 -1.25 0.95 -1.2 0.9 -0.9 0.9 -0.75 0.9 -0.35 1.0 -0.3 1.0 -0.2 1.0 -0.15 1.0 -0.05 1.0 -0.05 0.95 0.0 0.95 0.05 0.8 Q0.05 0.75 0.1 0.75 L0.15 0.8 0.2 0.9 0.25 0.95 0.35 1.0 0.4 1.0 0.4 0.9 0.45 0.85 0.65 0.9 0.95 0.9 1.35 0.9 1.4 0.9 1.5 0.9 1.6 0.85 1.75 0.9 1.9 0.9 1.95 0.85 2.1 0.8 2.25 0.75 2.3 0.8 2.35 0.7 M0.0 1.4 L-0.05 1.4 -0.1 1.45 -0.2 1.5 -0.25 1.55 -0.35 1.55 -0.4 1.55 -0.45 1.55 -0.45 1.5 -0.5 1.5 -0.65 1.5 -0.7 1.5 -0.95 1.5 -1.65 1.45 -1.6 1.45 -1.5 1.4 -1.4 1.35 -1.2 1.3 -1.05 1.3 -0.95 1.3 -0.8 1.3 -0.8 1.3 -0.65 1.25 -0.65 1.25 -0.55 1.3 -0.5 1.3 -0.35 1.35 -0.2 1.35 -0.1 1.35 -0.05 1.4 0.0 1.4 M-0.35 1.05 L-0.35 1.05 -0.35 1.05" fill="#4a4a41" fill-rule="evenodd" stroke="none"/>
    <path d="M-2.85 0.95 L-2.85 1.0 -2.8 1.0 -2.7 1.05 -2.65 1.05 -2.6 1.15 -2.65 1.2 -2.75 1.15 -2.85 1.2 -2.9 1.15 -2.9 1.15 -2.8 1.1 -2.8 1.05 -2.85 1.0 -2.95 0.9 -2.85 0.95 -2.85 0.95" fill="#9c7f68" fill-rule="evenodd" stroke="none"/>
    <path d="M-3.4 -0.8 Q-3.4 -1.0 -3.25 -1.3 L-3.1 -1.6 -3.05 -1.55 -3.05 -1.15 -3.0 -0.6 -3.0 -0.5 -3.05 -0.4 Q-3.05 -0.35 -3.15 -0.35 L-3.15 -0.2 -3.3 -0.2 Q-3.35 -0.4 -3.35 -0.55 L-3.4 -0.8" fill="#5d564b" fill-rule="evenodd" stroke="none"/>
    <path d="M-3.5 -0.7 L-3.45 -0.75 -3.4 -0.8 -3.35 -0.55 Q-3.35 -0.4 -3.3 -0.2 L-3.35 -0.2 -3.35 -0.15 -3.3 0.0 -3.3 0.0 -3.25 0.1 -3.25 0.15 -3.3 0.05 -3.35 -0.1 Q-3.35 -0.15 -3.35 -0.2 L-3.4 -0.3 -3.4 -0.45 Q-3.4 -0.6 -3.5 -0.7" fill="#4a342e" fill-rule="evenodd" stroke="none"/>
    <path d="M-3.3 -0.2 L-3.3 0.0 -3.35 -0.15 -3.35 -0.2 -3.3 -0.2" fill="#725047" fill-rule="evenodd" stroke="none"/>
    <path d="M2.6 -0.1 L2.55 0.15 2.5 0.35 2.45 0.35 2.35 0.7 2.3 0.8 2.25 0.75 2.25 0.7 2.3 0.55 2.3 0.35 2.25 0.25 2.25 0.15 2.25 0.05 2.15 0.0 2.15 0.0 2.25 0.0 2.3 0.0 2.6 -0.1" fill="#2e2522" fill-rule="evenodd" stroke="none"/>
    <path d="M2.05 -2.35 L2.0 -2.3 2.0 -2.25 1.95 -2.0 1.9 -1.75 1.8 -1.6 1.75 -1.9 1.75 -2.0 Q1.75 -2.25 1.85 -2.5 L1.85 -2.5 1.95 -2.7 2.05 -2.8 2.05 -2.35 M2.65 -2.4 L2.65 -2.5 2.6 -2.6 2.65 -2.7 2.6 -2.95 2.6 -3.0 2.55 -3.2 2.5 -3.2 2.5 -3.25 2.4 -3.35 Q2.25 -3.4 2.15 -3.4 L1.95 -3.35 1.85 -3.25 1.7 -3.0 1.6 -2.9 1.6 -2.8 1.6 -2.7 1.5 -2.35 1.45 -2.2 1.45 -2.2 1.4 -2.15 1.45 -1.95 1.5 -1.8 1.5 -1.75 1.55 -1.6 1.55 -1.6 1.55 -1.55 1.6 -1.5 1.55 -1.55 1.4 -1.65 1.3 -1.75 1.25 -1.75 1.15 -1.85 1.0 -1.85 1.0 -1.85 0.8 -1.8 0.75 -1.8 0.3 -1.65 0.25 -1.6 0.05 -1.55 -0.2 -1.45 -0.35 -1.35 -0.45 -1.3 -0.45 -1.3 -0.5 -1.3 -0.65 -1.3 -0.7 -1.35 -0.75 -1.35 -0.75 -1.35 -1.5 -1.5 -2.8 -1.6 -2.9 -1.6 -3.05 -1.6 -3.05 -1.55 -3.1 -1.6 -3.25 -1.3 Q-3.4 -1.0 -3.4 -0.8 L-3.45 -0.75 -3.5 -0.7 -3.55 -0.65 -3.55 -0.5 Q-3.55 -0.3 -3.4 0.1 L-3.15 0.85 -3.0 1.15 Q-2.9 1.25 -2.75 1.3 L-2.65 1.3 -2.1 1.4 -1.7 1.4 -1.7 1.4 -1.65 1.45 -0.95 1.5 -0.7 1.5 -0.65 1.5 -0.5 1.5 -0.45 1.5 -0.45 1.55 -0.4 1.55 -0.35 1.55 -0.25 1.55 -0.2 1.5 -0.1 1.45 -0.05 1.4 0.0 1.4 0.05 1.4 0.15 1.45 0.2 1.45 Q0.25 1.45 0.3 1.5 0.35 1.55 0.55 1.6 L0.6 1.5 0.7 1.45 0.85 1.45 0.9 1.4 Q1.0 1.35 1.0 1.35 L1.2 1.35 1.35 1.3 1.4 1.35 1.5 1.3 1.7 1.25 2.2 1.15 2.5 0.95 2.5 0.8 2.45 0.75 2.35 0.7 2.45 0.35 2.5 0.35 2.55 0.15 2.6 -0.1 2.6 -0.1 2.7 -0.1 Q2.9 -0.1 3.1 -0.5 L3.25 -0.75 3.3 -1.05 Q3.3 -1.25 3.1 -1.45 L3.05 -1.45 2.9 -1.55 2.75 -1.55 2.7 -1.55 2.65 -1.55 2.55 -1.55 2.55 -1.55 2.5 -1.55 2.5 -1.55 2.45 -1.55 2.45 -1.55 2.4 -1.55 2.4 -1.5 Q2.3 -1.5 2.25 -1.45 L2.2 -1.4 2.2 -1.35 2.15 -1.3 2.15 -1.4 2.1 -1.45 2.05 -1.45 2.0 -1.45 2.1 -1.5 2.35 -1.7 2.5 -1.8 2.55 -1.95 Q2.7 -2.1 2.7 -2.25 L2.65 -2.4 M1.8 -2.8 L1.8 -2.75 1.8 -2.8 M2.25 -0.8 L2.2 -0.85 2.45 -0.9 2.5 -0.9 2.55 -0.9 2.65 -0.85 2.6 -0.8 2.5 -0.8 2.45 -0.8 2.4 -0.8 2.25 -0.8 M2.5 -0.9 L2.5 -0.9 M-0.35 1.05 L-0.35 1.05 -0.35 1.05 Z" fill="none" stroke="#000000" stroke-linecap="round" stroke-linejoin="round" stroke-opacity="0.4509804" stroke-width="0.1"/>
  </g>
</svg>
