<?xml version="1.0" encoding="UTF-8" standalone="no"?>
<svg xmlns:xlink="http://www.w3.org/1999/xlink" height="77.35px" width="79.95px" xmlns="http://www.w3.org/2000/svg">
  <g transform="matrix(1.0, 0.0, 0.0, 1.0, 38.95, 6.45)">
    <path d="M0.35 -2.8 L0.4 -2.65 0.45 -2.4 0.5 -2.1 0.5 -1.95 0.55 -1.85 0.5 -1.75 0.45 -1.7 Q0.5 -1.5 0.5 -1.05 L0.5 -0.85 0.55 -0.75 0.55 -0.55 0.5 -0.1 0.5 0.3 0.45 0.7 0.45 0.75 0.5 0.95 0.5 1.25 0.55 1.3 0.55 1.7 0.5 2.0 0.45 2.1 0.5 2.15 0.55 2.45 0.5 2.8 0.45 2.85 0.45 3.1 Q0.55 3.2 0.5 3.4 L0.45 3.95 0.45 4.05 0.5 4.15 Q0.6 4.2 0.65 4.35 L0.65 4.7 0.6 5.15 0.6 5.3 Q0.75 5.35 0.7 5.55 L0.7 5.7 0.65 5.95 0.6 6.15 Q0.6 6.3 0.45 6.3 L0.35 6.25 0.25 6.25 Q0.05 6.25 0.1 5.95 L0.15 5.5 0.05 5.3 0.0 5.1 0.05 4.95 0.0 4.8 Q0.0 4.7 0.05 4.65 L0.05 4.55 0.0 4.4 Q-0.1 4.3 -0.2 3.9 -0.2 3.35 -0.05 3.25 L-0.05 2.95 Q-0.05 2.75 -0.1 2.7 L-0.2 2.55 -0.15 2.4 -0.1 2.35 -0.05 2.1 0.0 1.95 0.05 1.9 0.05 1.7 -0.05 1.6 -0.05 1.4 Q-0.05 1.25 0.05 1.25 L0.0 1.15 -0.1 1.1 -0.1 0.9 -0.05 0.65 -0.1 0.4 -0.15 -0.1 -0.1 -0.2 -0.1 -0.3 -0.15 -0.8 -0.2 -0.95 -0.2 -1.5 -0.2 -1.55 -0.25 -1.7 -0.25 -2.0 -0.3 -2.3 Q-0.3 -2.45 -0.35 -2.5 L-0.4 -2.6 -0.35 -2.65 -0.45 -2.75 -0.55 -3.15 -0.55 -4.15 Q-0.5 -4.25 -0.15 -4.25 L0.2 -4.2 Q0.3 -4.15 0.35 -3.85 L0.35 -2.8" fill="#ffb500" fill-rule="evenodd" stroke="none"/>
    <path d="M-11.5 -0.9 Q-11.7 -1.2 -11.7 -1.45 -11.7 -2.7 -10.7 -2.5 -10.35 -2.4 -10.05 -2.15 -9.7 -1.9 -9.7 -1.7 -9.7 -1.65 -9.8 -1.5 L-9.85 -1.3 -9.8 -1.15 -9.75 -1.05 -9.8 -0.9 Q-9.5 -0.75 -9.5 -0.05 -9.5 0.15 -9.65 0.35 L-9.8 0.45 Q-9.05 0.6 -9.05 1.0 -9.05 1.15 -9.25 1.35 -9.1 1.5 -9.1 1.8 -9.1 2.15 -9.25 2.4 -9.55 2.8 -10.2 2.8 L-10.7 2.75 Q-10.7 2.9 -11.05 3.2 -11.45 3.55 -11.7 3.55 -11.9 3.55 -12.1 3.45 -12.1 3.75 -12.3 3.85 -12.5 3.95 -13.0 3.95 L-13.15 3.95 -13.3 4.15 -13.2 4.25 Q-13.05 4.35 -13.05 4.5 L-13.35 4.85 -13.3 4.85 Q-13.0 4.9 -12.7 5.1 -12.45 5.35 -12.45 5.6 -12.45 5.9 -12.65 6.0 L-12.75 6.05 Q-12.45 6.15 -12.45 6.5 -12.45 6.6 -12.8 7.0 -13.2 7.4 -13.35 7.4 L-13.4 7.4 -13.8 7.8 Q-14.25 8.2 -14.4 8.2 L-14.85 8.1 -15.1 8.4 Q-15.4 8.7 -15.7 8.8 -15.8 8.95 -16.3 9.35 L-17.0 9.85 Q-17.35 9.85 -17.5 9.35 L-17.6 8.8 Q-17.6 8.6 -17.3 8.35 -16.95 8.1 -16.6 8.0 L-16.35 7.95 Q-16.2 7.8 -15.95 7.8 -15.7 6.85 -15.2 7.1 L-15.15 7.1 -15.05 6.95 -14.75 6.7 -14.5 6.5 -14.1 6.55 Q-14.1 6.25 -13.7 6.1 -14.0 6.05 -14.1 5.9 -14.2 5.85 -14.2 5.65 L-14.15 5.4 -15.15 5.25 -15.4 5.5 Q-15.75 5.75 -15.95 5.75 -16.1 5.75 -16.25 5.65 L-16.25 5.65 Q-16.25 5.8 -16.5 6.1 -16.75 6.45 -16.95 6.45 -17.0 6.45 -17.3 6.2 L-17.25 6.4 Q-17.25 6.65 -17.5 6.8 -17.7 6.95 -18.0 6.95 L-18.15 6.95 -18.1 7.25 Q-18.1 7.75 -19.15 7.75 -19.65 7.75 -19.85 7.4 L-20.0 7.05 Q-20.0 6.85 -19.65 6.55 -19.3 6.2 -19.05 6.25 L-19.0 6.25 -18.75 5.85 Q-18.4 5.35 -18.2 5.3 -18.05 5.3 -17.9 5.4 L-17.7 5.2 Q-17.4 4.95 -17.1 4.85 L-16.75 4.8 -16.75 4.7 Q-16.75 4.2 -16.15 4.2 -15.95 4.2 -15.75 4.3 L-15.75 4.3 -15.35 4.0 Q-15.4 3.85 -15.15 3.65 -14.95 3.45 -14.75 3.5 L-14.7 3.5 Q-14.45 3.25 -14.0 3.1 L-13.65 3.05 -13.55 2.9 Q-13.25 2.55 -12.95 2.4 L-12.35 2.4 Q-12.15 2.15 -11.6 2.05 L-11.0 2.1 -10.8 1.9 -10.4 1.65 Q-10.75 1.55 -10.9 1.4 -11.05 1.25 -11.05 1.0 -11.05 0.65 -10.8 0.5 L-11.0 0.4 Q-11.15 0.25 -11.15 0.05 -11.15 -0.15 -10.9 -0.45 L-10.85 -0.5 Q-11.25 -0.55 -11.5 -0.9 M-25.05 13.3 Q-24.75 12.95 -24.45 13.1 -24.15 13.25 -24.15 13.55 -24.15 13.65 -24.95 15.05 -25.8 16.55 -26.2 16.95 -26.85 17.65 -27.4 19.2 -27.8 20.25 -28.5 20.25 -28.6 20.25 -30.15 19.55 -31.65 18.85 -32.35 18.45 L-34.1 17.45 Q-34.95 16.85 -34.95 16.4 -34.95 16.25 -34.85 16.1 -34.75 15.9 -34.5 15.9 L-33.75 16.45 Q-32.8 17.15 -31.7 17.75 -30.5 18.45 -28.55 19.3 -27.75 17.35 -26.5 15.85 -26.3 15.6 -26.0 15.05 L-25.5 14.15 Q-25.2 13.5 -25.05 13.3" fill="#ffb500" fill-rule="evenodd" stroke="none"/>
    <path d="M-31.25 31.2 Q-31.25 30.35 -30.5 30.4 -29.8 30.45 -29.8 31.35 L-29.85 32.35 -29.75 32.55 -29.65 33.05 -29.4 34.2 Q-29.35 34.4 -29.35 35.05 L-29.35 35.3 -29.3 35.7 Q-29.25 35.95 -29.0 36.55 -28.7 37.15 -28.7 37.45 -28.7 37.9 -28.85 38.25 L-29.05 38.55 Q-28.95 38.9 -28.95 39.35 -28.95 39.95 -29.45 40.45 -29.85 40.95 -30.35 40.95 -31.15 40.95 -31.45 40.45 -31.6 40.2 -31.65 39.95 -32.25 39.85 -32.55 39.3 -32.75 39.0 -32.75 38.65 -32.75 38.4 -32.6 38.15 -32.85 38.1 -33.0 37.85 L-33.05 37.45 Q-33.05 36.85 -32.55 36.4 -33.25 36.35 -33.25 35.5 -33.25 35.05 -33.05 34.7 L-33.05 34.7 Q-33.2 34.65 -33.3 34.6 L-33.65 34.75 Q-33.65 34.95 -33.75 35.2 -33.5 35.6 -33.5 36.05 -33.5 36.4 -33.65 36.75 -33.9 37.3 -34.5 37.3 L-34.65 37.3 Q-35.05 37.7 -35.45 37.7 -36.05 37.7 -36.45 37.0 L-36.95 37.05 -37.4 36.85 -37.85 36.9 -38.3 37.0 Q-38.7 37.0 -38.85 36.7 -38.95 36.55 -38.95 36.35 -38.95 35.95 -38.65 35.8 -38.3 35.6 -37.3 35.6 L-36.4 35.5 Q-36.05 35.3 -35.35 35.4 L-35.3 35.4 -35.25 35.05 -35.2 34.8 -35.3 34.4 -35.35 34.0 Q-35.35 33.35 -35.0 33.35 -34.8 32.65 -33.85 32.7 L-33.4 32.75 Q-33.15 32.4 -32.55 32.4 -32.15 32.4 -31.85 32.65 -31.55 32.9 -31.55 33.25 -31.55 33.85 -31.75 34.25 -31.15 34.3 -31.0 34.7 L-30.9 34.25 -30.8 33.8 -30.95 33.25 Q-31.1 33.2 -31.2 33.0 L-31.3 32.65 -31.25 32.35 -31.15 31.9 -31.25 31.2 M-30.85 36.55 Q-30.85 37.1 -31.0 37.45 -30.8 37.75 -30.75 38.55 -30.6 38.4 -30.45 38.4 L-30.5 38.2 -30.4 37.95 -30.3 37.7 Q-30.3 37.45 -30.4 36.85 L-30.5 36.3 Q-30.85 36.15 -30.95 35.75 L-31.05 35.2 Q-31.1 35.45 -31.3 35.75 L-31.4 35.9 -31.2 35.9 Q-30.85 36.05 -30.85 36.55" fill="#ffb500" fill-rule="evenodd" stroke="none"/>
    <path d="M-26.05 49.45 Q-25.95 49.6 -25.75 50.1 L-25.75 50.15 Q-25.55 50.1 -25.3 50.2 -24.55 50.6 -24.55 51.6 -24.55 52.05 -24.95 52.05 -25.6 52.05 -25.9 51.4 -26.0 51.2 -26.0 50.95 -26.2 50.9 -26.3 50.65 -26.45 50.35 -26.8 50.35 L-26.9 50.4 -27.05 50.45 -27.1 50.45 -27.2 50.7 -27.15 50.85 Q-27.0 50.95 -26.8 51.25 L-26.5 51.75 Q-26.35 51.95 -26.3 52.1 -25.7 52.5 -25.7 53.05 L-25.65 53.05 Q-25.45 53.05 -25.25 53.45 -25.05 53.8 -25.05 53.9 L-25.05 54.0 -24.95 54.15 Q-24.55 54.15 -24.55 55.15 -24.55 55.65 -24.95 55.95 -25.25 56.2 -25.6 56.2 L-25.65 56.2 Q-25.8 56.4 -26.0 56.4 -26.45 56.4 -26.6 55.8 L-26.6 55.75 Q-26.8 55.9 -27.1 55.9 -27.4 55.9 -27.55 55.3 L-27.6 55.05 -27.85 54.9 Q-28.15 54.7 -28.2 54.55 L-28.3 54.25 -28.3 54.2 -28.4 54.3 -28.45 54.35 Q-29.15 55.1 -29.25 55.1 L-29.55 55.1 -30.05 55.65 Q-30.7 56.35 -30.95 56.35 -31.3 56.35 -31.3 56.05 -31.3 55.45 -30.35 54.75 L-30.0 54.5 -30.05 54.1 Q-29.9 53.5 -29.6 53.4 L-29.65 53.3 Q-29.65 53.05 -29.5 53.0 L-29.25 52.65 Q-29.15 52.5 -28.85 52.6 L-28.4 52.7 Q-28.1 52.7 -28.0 53.15 -27.9 53.0 -27.75 53.05 L-27.25 53.5 -26.85 54.0 Q-26.7 54.05 -26.6 54.15 L-26.5 54.45 -26.4 54.55 -26.1 54.5 Q-25.85 54.5 -25.7 54.6 L-25.6 54.5 -25.75 54.5 Q-26.0 54.5 -26.15 54.05 L-26.2 54.05 Q-26.5 54.05 -26.65 53.8 L-26.75 53.2 -26.85 52.85 Q-27.0 52.8 -27.25 52.55 -27.55 52.3 -27.65 52.1 L-27.8 51.65 -27.9 51.3 -27.9 51.25 Q-28.0 51.15 -28.05 51.0 L-28.1 50.6 -28.0 50.25 Q-27.95 50.1 -27.95 49.95 L-28.0 49.8 -28.05 49.7 Q-28.05 49.25 -27.5 49.4 L-27.45 49.45 Q-27.3 49.3 -26.95 49.2 -26.35 49.05 -26.05 49.45" fill="#ffb500" fill-rule="evenodd" stroke="none"/>
    <path d="M-9.05 61.8 Q-9.25 62.15 -9.7 62.15 -10.0 62.15 -10.25 62.05 L-10.45 61.95 Q-10.85 61.9 -11.2 61.65 L-11.5 61.65 Q-11.95 61.65 -12.4 61.35 L-12.45 61.35 -12.65 61.7 -12.85 61.95 -12.85 62.05 Q-12.85 62.25 -12.75 62.35 -12.65 62.5 -12.65 62.6 -12.65 62.7 -12.8 62.95 L-12.8 63.05 -12.75 63.9 Q-12.75 64.05 -12.6 64.1 L-12.5 64.2 -12.3 64.15 Q-11.4 64.15 -11.3 64.35 L-11.25 64.4 -11.2 64.4 -10.55 64.4 Q-10.1 64.65 -9.9 64.85 -9.85 64.7 -9.65 64.9 -9.55 65.0 -9.5 65.2 L-9.45 65.5 -9.45 66.5 -9.4 66.9 Q-9.4 67.0 -9.6 67.1 L-9.6 67.15 -9.65 67.95 Q-9.75 68.45 -9.85 68.6 -9.85 69.0 -9.95 69.2 -10.25 69.7 -11.0 69.7 -11.35 69.7 -11.45 69.6 L-11.75 69.65 Q-12.0 69.65 -12.25 69.5 L-12.45 69.35 -13.25 69.25 -13.35 69.7 Q-13.45 70.05 -13.6 70.05 -13.8 70.05 -13.95 69.5 L-13.8 68.95 -13.8 68.8 Q-13.8 68.6 -13.5 68.6 -13.15 68.6 -12.55 68.8 L-12.15 68.95 -12.05 68.9 Q-11.85 68.9 -11.5 69.1 L-11.45 69.1 -11.4 69.05 Q-11.15 68.9 -10.65 68.9 L-10.35 68.55 Q-10.4 68.45 -10.4 68.4 -10.4 68.2 -10.1 67.3 L-10.05 67.0 -10.05 67.0 -10.1 66.85 -10.1 66.55 Q-10.1 65.7 -10.0 65.35 L-10.25 65.4 -10.95 65.05 Q-11.05 65.0 -11.4 64.85 L-11.4 64.85 -11.7 64.85 Q-11.9 64.85 -12.05 64.9 L-12.4 65.0 Q-12.7 65.0 -12.85 64.85 L-12.9 64.75 -13.05 64.75 Q-13.35 64.75 -13.45 64.6 L-13.5 64.35 Q-13.7 64.0 -13.7 63.85 -13.7 63.65 -13.5 63.6 L-13.55 63.5 -13.45 63.05 -13.6 62.9 -13.65 62.5 -13.6 62.05 Q-13.5 61.7 -13.35 61.6 L-13.35 61.6 Q-13.35 61.55 -13.4 61.4 L-13.5 61.15 Q-13.5 60.7 -12.95 60.55 -12.55 60.45 -12.45 60.75 L-12.35 60.75 Q-11.9 60.75 -11.5 60.95 -11.35 60.8 -10.7 61.2 -10.55 61.3 -10.35 61.4 L-10.3 61.3 Q-10.25 61.2 -10.1 61.1 L-9.9 61.05 Q-9.8 61.05 -9.8 61.0 L-9.65 60.8 Q-9.45 60.7 -9.15 61.05 L-8.9 61.4 Q-8.9 61.6 -9.05 61.8" fill="#ffb500" fill-rule="evenodd" stroke="none"/>
    <path d="M24.25 53.95 Q24.25 53.15 24.95 53.05 25.25 53.05 25.4 53.15 L25.45 53.1 Q25.65 52.95 25.9 52.95 26.6 52.9 26.6 53.8 L26.55 54.1 Q26.85 54.15 27.05 54.65 27.2 55.05 27.2 55.2 27.2 55.55 26.85 55.6 L26.9 55.85 26.85 56.6 Q26.65 57.25 26.15 57.25 26.05 57.45 25.5 57.8 24.8 58.3 24.5 58.3 L24.25 58.25 Q24.05 58.45 23.9 58.45 L23.8 58.45 Q23.8 58.7 23.65 59.0 23.45 59.45 23.1 59.5 L23.1 59.85 23.15 59.95 23.2 60.1 Q23.2 60.25 23.1 60.35 23.0 60.45 22.85 60.5 L22.9 60.8 Q22.9 61.1 22.8 61.25 L22.7 61.4 Q22.85 61.55 22.85 61.75 22.85 61.95 22.75 62.1 L22.55 62.25 Q23.1 62.5 23.1 62.85 L23.0 63.15 23.05 63.2 23.35 63.65 23.6 64.15 Q23.6 64.3 23.5 64.45 L23.45 64.45 Q24.0 64.85 24.0 65.45 24.0 66.0 23.55 66.0 23.3 66.0 22.8 64.7 22.8 64.55 22.8 64.45 22.65 64.4 22.5 64.2 22.35 63.95 22.35 63.85 22.35 63.75 22.4 63.6 22.15 63.55 22.0 63.1 L21.9 62.6 Q21.9 62.35 22.0 62.25 L21.65 62.05 Q21.5 61.85 21.5 61.7 21.5 61.25 21.8 61.15 L21.75 61.05 Q21.6 60.65 21.6 60.45 21.6 60.0 22.1 60.05 21.8 59.7 21.8 59.55 21.8 59.45 22.0 59.2 22.25 58.95 22.45 58.85 L22.6 58.8 Q22.55 58.6 22.55 58.5 22.55 58.0 23.2 57.8 L23.25 57.8 Q23.35 57.45 23.95 57.25 L24.45 57.2 Q24.7 57.0 25.1 56.8 25.5 56.65 25.75 56.65 25.8 55.9 26.3 55.55 26.1 55.45 25.95 55.1 25.8 54.85 25.75 54.6 25.55 54.55 25.5 54.4 25.4 54.3 25.4 54.2 L25.45 54.1 25.4 54.15 Q25.1 54.4 24.7 54.4 24.4 54.4 24.25 54.15 L24.25 53.95 M11.55 64.25 L11.85 64.45 11.9 64.45 Q12.05 64.2 12.45 64.1 13.2 63.95 13.2 64.55 13.2 64.75 12.85 65.35 L12.85 65.45 Q13.4 65.75 13.4 66.35 13.4 66.5 13.3 66.65 L13.2 66.8 Q13.7 67.15 13.7 67.6 13.7 67.75 13.55 67.95 L13.5 68.0 13.6 68.25 Q13.7 68.6 13.95 68.8 14.2 69.0 14.2 69.25 14.2 69.45 14.1 69.6 14.25 69.85 14.25 70.4 14.25 70.6 14.2 70.7 14.1 70.9 13.85 70.9 13.55 70.9 13.35 70.6 13.25 70.45 13.25 70.35 13.25 70.0 13.3 69.75 13.1 69.6 12.9 69.05 L12.75 68.2 12.75 68.15 12.7 68.15 Q12.45 68.15 12.35 68.0 12.3 67.85 12.3 67.75 L12.35 67.45 12.4 67.0 12.45 66.85 12.4 66.85 Q12.2 66.85 12.05 66.65 L12.0 66.45 Q12.0 66.3 12.15 66.1 L12.05 66.1 Q11.8 66.1 11.7 65.9 L11.65 65.8 11.25 65.9 Q11.1 65.9 10.95 65.75 L10.85 65.85 Q10.5 66.1 10.2 66.1 9.95 66.1 9.85 66.05 9.75 66.0 9.7 65.95 L9.6 66.1 Q9.45 66.35 9.25 66.35 9.05 66.35 8.95 66.25 8.8 66.1 8.55 66.1 L8.4 66.1 8.3 66.2 Q8.1 66.35 7.7 66.35 L6.6 66.2 6.35 66.5 Q6.05 66.8 5.55 66.8 L5.45 66.8 5.4 66.85 Q5.25 67.0 5.0 67.0 4.6 67.0 4.3 66.85 L4.1 67.05 Q3.8 67.25 3.4 67.25 3.15 67.25 3.05 67.15 2.3 67.15 2.05 67.0 1.9 66.9 1.9 66.65 1.9 66.15 2.7 66.2 L3.2 66.3 Q3.4 66.2 3.65 66.2 L3.9 66.3 Q3.9 65.8 4.7 65.85 L5.1 65.95 Q5.3 65.75 5.8 65.6 L6.2 65.5 Q6.3 65.15 6.6 65.15 6.7 65.15 7.0 65.35 L7.3 65.4 7.8 65.35 7.9 65.4 Q7.95 65.15 8.1 65.15 L8.6 65.15 9.1 65.05 9.25 65.05 Q9.45 64.8 10.15 64.85 L10.5 64.9 10.5 64.85 Q10.65 64.65 10.8 64.65 10.9 64.6 11.0 64.45 11.05 64.25 11.2 64.2 11.35 64.1 11.55 64.25" fill="#ffb500" fill-rule="evenodd" stroke="none"/>
    <path d="M1.35 -0.9 Q1.35 -0.55 1.1 -0.3 1.0 -0.15 0.8 -0.1 L0.75 -0.05 Q1.1 0.2 1.1 0.7 1.1 1.0 0.85 1.4 L0.55 1.7 0.75 1.9 Q1.1 2.3 1.1 2.85 1.1 3.1 0.85 3.35 L0.7 3.45 Q1.0 3.65 1.0 4.15 L0.9 4.55 Q1.1 4.75 1.1 5.25 1.1 6.1 0.95 6.35 0.65 6.9 -0.45 6.9 -1.0 6.9 -1.35 6.4 L-1.55 5.85 Q-1.1 5.4 -0.65 5.1 L-0.85 4.85 -1.0 4.3 Q-1.0 3.95 -0.7 3.65 L-0.7 3.65 Q-0.95 3.55 -1.05 3.35 L-1.1 3.0 Q-1.1 2.15 -0.75 1.75 L-0.5 1.55 -0.8 1.15 Q-1.1 0.65 -1.1 0.4 -1.1 0.1 -0.9 -0.1 L-1.0 -0.4 -1.2 -0.65 Q-1.4 -0.95 -1.45 -1.3 -1.45 -1.8 -1.15 -2.05 L-1.1 -2.85 Q-1.1 -4.65 -0.8 -5.65 -0.5 -6.55 -0.05 -6.45 0.4 -6.3 0.7 -5.1 1.0 -3.8 1.0 -1.7 L1.0 -1.5 Q1.35 -1.2 1.35 -0.9 M15.1 -2.0 Q15.5 -2.3 16.1 -2.15 16.65 -2.0 17.1 -1.55 17.55 -1.1 17.55 -0.6 16.85 0.45 16.4 0.9 16.55 1.1 16.55 1.35 L16.5 1.55 16.65 1.55 Q17.0 1.55 17.1 1.75 L17.3 1.75 18.55 1.85 Q18.7 1.95 18.75 2.2 L19.4 2.15 Q19.9 2.15 19.95 2.8 L19.95 3.9 20.05 3.9 Q21.7 3.95 21.7 5.65 L21.65 5.9 21.8 6.05 Q22.15 6.35 22.15 6.4 22.15 6.65 22.0 6.8 21.8 7.0 21.4 6.95 21.4 7.15 21.3 7.4 21.1 7.7 20.8 7.7 20.35 7.7 20.1 6.9 L19.95 6.05 20.0 5.75 18.75 4.8 Q18.2 4.75 17.95 4.25 17.85 4.05 17.8 3.8 17.6 3.75 17.5 3.55 L17.35 3.3 Q16.9 3.6 16.65 3.6 16.5 3.6 16.25 3.15 15.95 3.15 15.8 2.9 L15.75 2.6 15.8 2.25 15.05 2.35 Q14.5 2.35 14.25 1.9 14.1 1.65 14.1 1.4 14.1 0.95 14.5 0.65 14.75 0.45 15.05 0.4 L14.95 0.2 Q14.65 -0.5 14.65 -0.85 14.65 -1.7 15.1 -2.0 M34.4 14.1 Q35.05 14.25 35.55 14.8 36.05 15.4 36.05 16.2 36.05 16.6 35.75 16.85 35.45 17.05 34.75 17.05 34.65 17.05 34.45 17.15 34.25 17.25 34.15 17.25 33.55 17.25 33.2 16.75 33.15 17.05 32.85 17.05 32.5 17.05 32.3 16.9 32.05 17.2 31.55 17.2 31.05 17.2 30.75 16.6 30.25 16.5 30.05 16.0 L29.95 15.25 29.15 14.4 Q28.9 14.6 28.75 14.6 28.4 14.6 27.8 13.75 L27.65 13.9 Q27.1 14.4 26.8 14.4 26.1 14.4 25.9 13.8 L25.85 13.2 Q25.85 11.8 27.0 12.25 L27.2 12.35 Q27.3 11.65 28.4 12.4 28.8 12.7 29.15 13.0 29.4 12.9 29.75 13.25 30.1 13.65 30.3 13.65 30.5 13.65 30.9 14.0 31.4 14.55 31.6 15.2 31.8 15.3 31.95 15.5 L32.05 15.4 Q32.25 15.15 32.55 15.1 L32.75 15.1 Q32.75 14.45 33.25 14.15 33.7 13.9 34.4 14.1 M33.95 29.7 Q34.45 29.95 34.65 30.3 L34.9 30.05 Q35.25 29.75 35.75 29.7 37.05 29.6 37.05 31.05 L36.9 31.55 36.95 31.55 37.6 31.55 Q38.05 31.7 38.3 31.85 L38.5 31.65 Q39.25 30.95 39.65 30.95 41.0 30.95 41.0 32.45 41.0 32.95 40.7 33.4 40.35 34.0 39.6 34.0 38.55 34.0 38.05 33.45 L37.9 33.2 37.8 33.2 37.7 33.3 Q37.05 33.85 36.7 33.85 36.6 33.85 36.05 33.15 L35.95 33.0 35.8 33.05 Q35.25 33.05 34.8 31.9 L34.65 31.4 34.55 31.55 Q34.3 31.9 34.05 31.9 L34.0 31.9 33.95 31.95 Q33.65 32.55 33.45 32.55 32.95 32.55 32.65 31.65 L32.4 30.75 Q32.4 30.25 32.7 30.05 32.85 29.95 33.05 30.0 33.1 29.7 33.3 29.6 33.55 29.5 33.95 29.7 M31.6 44.7 Q31.6 44.2 31.95 43.9 32.3 43.6 32.75 43.6 33.2 43.6 33.5 43.9 33.85 44.25 33.85 44.8 34.1 44.9 34.25 45.1 34.6 45.5 34.6 46.15 34.6 46.5 34.35 46.65 L34.1 46.8 34.15 47.05 Q34.15 47.6 34.0 47.85 L33.85 48.0 Q33.95 48.2 33.95 48.55 L33.95 48.75 34.1 48.75 Q34.95 48.9 35.05 49.3 L35.65 49.25 Q36.3 49.25 36.75 49.65 37.25 50.05 37.25 50.65 37.25 51.1 37.05 51.5 36.8 52.1 36.25 52.1 34.1 52.1 34.1 50.6 L34.1 50.5 Q33.75 50.5 33.45 49.95 L33.25 49.55 32.85 49.6 Q32.5 49.6 32.35 48.9 L32.2 48.15 Q32.2 48.05 32.3 47.95 L32.15 47.7 32.1 47.25 Q32.1 46.3 32.5 46.0 31.9 45.95 31.7 45.4 L31.6 44.7" fill="#ffb500" fill-rule="evenodd" stroke="none"/>
  </g>
</svg>
