<?xml version="1.0" encoding="UTF-8" standalone="no"?>
<svg xmlns:xlink="http://www.w3.org/1999/xlink" height="18.05px" width="5.55px" xmlns="http://www.w3.org/2000/svg">
  <g transform="matrix(1.0, 0.0, 0.0, 1.0, 2.85, 9.65)">
    <path d="M2.2 -8.55 L2.2 -8.55 2.25 -8.35 2.3 -8.2 2.35 -8.1 2.35 -8.05 2.4 -7.9 2.45 -7.7 2.55 -7.6 2.6 -7.45 2.65 -7.4 2.65 -7.3 2.6 -7.3 2.6 -7.3 2.55 -7.35 2.55 -7.35 2.55 -7.4 2.55 -7.45 2.5 -7.5 2.5 -7.6 2.5 -7.65 2.45 -7.65 2.4 -7.8 2.4 -7.85 2.35 -7.9 2.35 -7.9 2.3 -8.0 2.3 -8.0 2.3 -8.05 2.3 -8.15 2.25 -8.2 2.25 -8.3 2.2 -8.35 2.2 -8.55 2.2 -8.55" fill="#dccab4" fill-rule="evenodd" stroke="none"/>
    <path d="M1.4 -9.3 L1.4 -9.3 1.4 -9.3 M2.2 -8.55 L2.2 -8.55 2.2 -8.6 2.2 -8.6 2.2 -8.55 M2.55 -7.35 L2.6 -7.3 2.6 -7.3 2.6 -7.25 2.55 -7.25 2.5 -7.25 2.45 -7.25 2.45 -7.25 2.4 -7.3 2.35 -7.3 2.35 -7.3 2.3 -7.3 2.3 -7.3 2.3 -7.35 2.3 -7.3 2.35 -7.3 2.35 -7.35 2.35 -7.4 2.35 -7.4 2.4 -7.35 2.4 -7.3 2.45 -7.3 2.5 -7.3 2.55 -7.3 2.55 -7.35 M0.35 -7.55 L0.35 -7.45 0.35 -7.3 0.35 -7.15 0.35 -7.1 0.35 -7.15 0.3 -7.15 0.3 -7.2 0.3 -7.25 0.3 -7.3 0.3 -7.3 0.25 -7.35 0.3 -7.4 0.3 -7.45 0.3 -7.4 0.25 -7.4 0.25 -7.5 0.3 -7.5 0.3 -7.55 0.25 -7.55 0.25 -7.55 0.3 -7.6 0.25 -7.55 0.25 -7.55 0.2 -7.6 0.2 -7.6 Q0.2 -7.6 0.25 -7.65 L0.3 -7.65 0.25 -7.7 0.2 -7.7 0.2 -7.7 0.25 -7.75 0.25 -7.8 0.2 -7.8 0.2 -7.85 0.15 -7.8 0.15 -7.75 0.1 -7.8 0.1 -7.8 0.05 -7.8 0.05 -7.7 0.1 -7.7 0.1 -7.65 0.1 -7.6 0.1 -7.55 0.05 -7.5 0.05 -7.5 0.05 -7.55 0.0 -7.55 0.05 -7.6 0.05 -7.65 0.0 -7.65 0.0 -7.7 0.0 -7.75 -0.05 -7.75 -0.05 -7.8 -0.1 -7.75 -0.1 -7.7 -0.1 -7.55 -0.05 -7.55 -0.05 -7.45 -0.05 -7.4 -0.05 -7.4 0.0 -7.4 -0.05 -7.4 -0.1 -7.4 -0.1 -7.45 -0.1 -7.45 -0.1 -7.5 -0.1 -7.5 -0.15 -7.5 -0.15 -7.55 -0.2 -7.55 -0.15 -7.6 -0.15 -7.6 -0.2 -7.65 -0.2 -7.65 -0.2 -7.7 -0.2 -7.75 -0.15 -7.8 -0.15 -7.8 -0.2 -7.8 -0.2 -7.85 -0.2 -7.9 -0.2 -7.85 -0.15 -7.85 Q-0.1 -7.85 -0.1 -7.9 L-0.05 -7.9 -0.05 -7.95 -0.05 -8.0 -0.1 -8.0 -0.1 -8.0 -0.1 -8.05 -0.15 -8.05 -0.15 -8.1 -0.2 -8.05 -0.2 -8.05 -0.2 -8.05 -0.25 -8.05 -0.25 -8.05 -0.2 -8.0 -0.2 -8.0 -0.15 -8.0 -0.15 -8.0 -0.1 -8.0 -0.1 -7.95 -0.1 -7.95 -0.15 -7.95 -0.2 -7.9 -0.25 -7.9 -0.25 -7.9 -0.25 -7.85 -0.25 -7.9 -0.3 -7.9 -0.3 -7.85 -0.35 -7.85 -0.35 -7.8 -0.35 -7.85 -0.35 -7.9 -0.3 -7.9 -0.3 -7.9 -0.3 -7.95 -0.35 -7.95 -0.35 -7.95 -0.35 -7.9 -0.35 -7.9 -0.4 -7.9 -0.4 -7.9 -0.4 -7.9 -0.45 -7.9 -0.45 -7.8 -0.4 -7.75 -0.4 -7.75 -0.45 -7.75 -0.45 -7.75 -0.45 -7.75 -0.4 -7.75 -0.35 -7.75 -0.35 -7.7 -0.3 -7.7 -0.3 -7.7 -0.25 -7.7 -0.25 -7.75 -0.25 -7.8 -0.2 -7.8 -0.2 -7.8 -0.25 -7.75 -0.25 -7.7 -0.25 -7.7 -0.3 -7.7 -0.3 -7.7 -0.25 -7.65 -0.25 -7.65 -0.25 -7.65 -0.3 -7.6 -0.25 -7.6 -0.25 -7.55 -0.25 -7.6 -0.2 -7.6 -0.2 -7.6 -0.2 -7.55 -0.2 -7.55 -0.2 -7.55 -0.25 -7.5 -0.25 -7.5 -0.25 -7.45 -0.3 -7.4 -0.3 -7.35 -0.25 -7.3 -0.3 -7.25 -0.3 -7.2 -0.3 -7.1 -0.3 -7.05 -0.35 -7.1 -0.35 -7.15 -0.35 -7.3 -0.35 -7.35 -0.35 -7.35 -0.35 -7.45 -0.4 -7.45 -0.45 -7.45 -0.45 -7.4 -0.45 -7.45 -0.45 -7.4 -0.4 -7.3 -0.4 -7.25 -0.35 -7.1 -0.35 -7.05 -0.4 -7.1 -0.4 -7.2 -0.45 -7.2 -0.45 -7.3 -0.45 -7.4 -0.5 -7.45 -0.5 -7.4 -0.5 -7.35 -0.5 -7.25 -0.55 -7.2 -0.55 -7.15 -0.55 -7.1 -0.6 -7.05 -0.6 -7.05 -0.6 -7.1 -0.55 -7.2 -0.55 -7.35 -0.5 -7.45 -0.5 -7.5 -0.5 -7.5 -0.5 -7.55 -0.55 -7.55 -0.55 -7.55 -0.55 -7.55 -0.6 -7.6 -0.55 -7.65 -0.55 -7.65 -0.5 -7.6 -0.5 -7.65 -0.55 -7.7 -0.5 -7.7 -0.5 -7.75 -0.5 -7.75 -0.5 -7.75 -0.55 -7.8 -0.55 -7.8 -0.55 -7.85 -0.5 -7.8 -0.5 -7.8 -0.45 -7.8 -0.45 -7.8 -0.5 -7.8 -0.5 -7.85 -0.5 -7.9 -0.5 -7.9 -0.55 -7.95 -0.55 -8.0 -0.55 -8.0 -0.55 -8.05 -0.6 -8.05 -0.6 -8.0 -0.65 -8.0 -0.6 -8.0 -0.65 -7.95 -0.7 -7.9 -0.7 -7.85 -0.7 -7.85 -0.75 -7.8 -0.75 -7.8 -0.7 -7.8 -0.65 -7.85 -0.6 -7.9 -0.6 -7.9 -0.6 -7.9 -0.6 -7.85 -0.6 -7.8 -0.6 -7.8 -0.65 -7.8 -0.65 -7.75 -0.6 -7.75 -0.6 -7.75 -0.65 -7.7 -0.65 -7.7 -0.6 -7.65 -0.6 -7.7 -0.6 -7.75 -0.55 -7.75 -0.55 -7.75 -0.55 -7.65 -0.6 -7.65 -0.65 -7.6 -0.65 -7.65 -0.7 -7.65 -0.7 -7.65 -0.75 -7.7 -0.8 -7.7 -0.9 -7.75 -0.95 -7.8 -0.95 -7.85 -0.95 -7.85 -1.0 -7.85 -1.05 -7.8 -1.05 -7.8 -1.1 -7.85 -1.1 -7.85 -1.15 -7.85 -1.15 -7.9 -1.2 -7.9 -1.15 -7.9 -1.15 -7.95 -1.1 -8.0 -1.15 -8.05 -1.15 -8.0 -1.15 -8.05 -1.15 -8.15 -1.1 -8.15 -1.1 -8.25 -1.1 -8.25 -1.05 -8.25 -1.0 -8.3 -1.0 -8.3 -0.95 -8.3 -0.95 -8.4 -0.95 -8.4 -1.0 -8.4 -0.95 -8.45 -0.95 -8.5 -1.0 -8.45 -1.0 -8.45 -1.05 -8.4 -1.05 -8.4 -1.1 -8.35 -1.15 -8.35 -1.15 -8.3 -1.2 -8.3 -1.25 -8.3 -1.25 -8.3 -1.3 -8.25 -1.3 -8.2 -1.3 -8.15 -1.3 -8.1 -1.35 -8.05 -1.35 -8.1 -1.35 -8.2 -1.3 -8.25 -1.3 -8.3 -1.35 -8.3 -1.35 -8.3 -1.35 -8.25 -1.4 -8.25 -1.4 -8.25 -1.45 -8.2 -1.45 -8.15 -1.5 -8.1 -1.45 -8.1 -1.45 -8.1 -1.45 -8.05 -1.45 -8.05 -1.5 -8.0 -1.5 -7.9 -1.5 -7.9 -1.55 -7.9 -1.55 -7.9 -1.6 -7.9 -1.55 -7.95 -1.55 -8.05 -1.5 -8.1 -1.45 -8.2 -1.5 -8.25 -1.55 -8.2 -1.6 -8.2 -1.6 -8.15 -1.65 -8.05 -1.65 -8.0 -1.7 -7.9 -1.75 -7.85 -1.75 -7.9 -1.7 -8.05 -1.65 -8.15 -1.65 -8.2 -1.7 -8.15 -1.7 -8.15 -1.7 -8.2 -1.75 -8.2 -1.75 -8.1 -1.75 -8.05 -1.8 -8.05 -1.8 -8.0 -1.85 -7.95 -1.85 -7.9 -1.9 -7.9 -1.9 -7.85 -1.95 -7.85 -1.95 -7.8 -2.0 -7.8 -2.0 -7.7 -2.05 -7.65 -2.05 -7.6 -2.1 -7.6 -2.05 -7.65 -2.05 -7.65 -2.05 -7.7 -2.0 -7.75 -2.0 -7.8 -2.0 -7.85 -1.95 -7.85 -1.95 -7.9 -1.9 -7.95 -1.9 -8.0 -1.9 -8.0 -1.85 -8.0 -1.8 -8.05 -1.8 -8.15 -1.8 -8.15 -1.85 -8.1 -1.85 -8.05 -1.85 -8.1 -1.85 -8.2 -1.9 -8.2 -1.95 -8.15 -2.0 -8.1 -2.0 -8.05 -2.15 -7.8 -2.1 -7.9 -2.05 -7.95 -2.05 -8.05 -2.0 -8.1 -2.0 -8.15 -2.05 -8.15 -2.05 -8.1 -2.1 -8.05 -2.1 -8.05 -2.15 -8.05 -2.15 -8.0 -2.2 -7.95 -2.2 -7.9 -2.25 -7.85 -2.25 -7.8 -2.2 -7.8 -2.25 -7.75 -2.3 -7.7 -2.35 -7.7 Q-2.35 -7.65 -2.35 -7.65 L-2.4 -7.65 -2.45 -7.55 -2.45 -7.5 -2.5 -7.45 -2.45 -7.45 -2.45 -7.45 -2.55 -7.4 Q-2.6 -7.4 -2.65 -7.4 L-2.75 -7.35 -2.7 -7.35 -2.75 -7.4 -2.75 -7.45 -2.7 -7.45 -2.7 -7.45 -2.65 -7.45 -2.65 -7.45 -2.6 -7.5 -2.6 -7.5 -2.55 -7.5 -2.5 -7.55 -2.5 -7.65 -2.45 -7.7 -2.45 -7.65 -2.45 -7.55 -2.45 -7.65 -2.4 -7.65 -2.4 -7.7 -2.35 -7.75 -2.35 -7.8 -2.35 -7.8 -2.3 -7.8 -2.3 -7.85 -2.25 -7.9 -2.25 -7.95 -2.2 -8.0 -2.25 -8.0 -2.25 -8.0 -2.3 -7.95 -2.3 -8.0 -2.25 -8.0 -2.25 -8.05 -2.3 -8.05 -2.3 -8.0 -2.3 -8.0 -2.35 -7.95 -2.35 -7.95 -2.4 -7.9 -2.45 -7.8 -2.45 -7.85 -2.4 -7.9 -2.4 -7.95 -2.35 -8.0 -2.4 -8.05 -2.35 -8.1 -2.35 -8.1 -2.3 -8.1 -2.3 -8.15 -2.25 -8.15 -2.25 -8.25 -2.2 -8.3 -2.15 -8.35 -2.15 -8.35 -2.1 -8.45 -2.05 -8.5 -2.05 -8.55 -2.0 -8.6 -2.0 -8.65 -2.0 -8.7 -1.95 -8.7 -1.95 -8.7 -1.9 -8.75 -1.9 -8.75 -1.85 -8.8 -1.85 -8.8 -1.8 -8.8 -1.8 -8.85 -1.75 -8.9 -1.75 -8.95 -1.7 -9.0 -1.65 -9.05 Q-1.65 -9.05 -1.6 -9.1 L-1.6 -9.15 -1.55 -9.15 -1.5 -9.2 -1.45 -9.25 -1.45 -9.2 -1.4 -9.2 Q-1.4 -9.2 -1.35 -9.2 L-1.3 -9.25 -1.3 -9.25 -1.25 -9.25 -1.25 -9.25 -1.2 -9.3 -1.2 -9.3 -1.1 -9.3 -1.1 -9.3 -1.05 -9.3 -1.05 -9.3 -1.0 -9.3 -1.0 -9.3 -1.05 -9.25 -1.05 -9.25 -1.0 -9.2 -1.0 -9.25 -1.0 -9.25 Q-0.95 -9.25 -0.95 -9.3 L-0.95 -9.3 -0.9 -9.3 -0.9 -9.35 -0.85 -9.4 -0.8 -9.4 -0.8 -9.35 -0.75 -9.3 -0.7 -9.3 -0.7 -9.2 -0.75 -9.15 Q-0.8 -9.15 -0.85 -9.15 L-0.85 -9.1 -0.8 -9.1 Q-0.8 -9.1 -0.75 -9.1 L-0.75 -9.15 -0.7 -9.2 -0.7 -9.2 -0.65 -9.2 -0.7 -9.2 -0.65 -9.15 -0.65 -9.05 -0.65 -9.0 -0.6 -8.95 -0.6 -8.95 -0.6 -8.9 -0.55 -8.9 -0.5 -8.9 -0.5 -8.85 -0.5 -8.85 -0.55 -8.85 -0.55 -8.85 Q-0.55 -8.8 -0.6 -8.8 L-0.6 -8.75 -0.65 -8.75 -0.65 -8.75 -0.65 -8.7 -0.65 -8.7 -0.6 -8.65 -0.6 -8.65 -0.55 -8.65 -0.55 -8.65 -0.5 -8.65 -0.45 -8.65 -0.45 -8.65 -0.5 -8.6 -0.5 -8.55 -0.5 -8.55 -0.5 -8.45 -0.55 -8.4 -0.5 -8.4 -0.45 -8.45 -0.45 -8.45 -0.45 -8.35 -0.45 -8.45 -0.45 -8.5 -0.45 -8.6 -0.4 -8.6 -0.35 -8.65 -0.4 -8.7 -0.45 -8.7 -0.45 -8.7 -0.45 -8.8 -0.45 -8.9 -0.45 -8.9 -0.4 -8.9 -0.4 -8.9 -0.35 -8.85 -0.4 -8.85 -0.4 -8.85 Q-0.4 -8.8 -0.3 -8.8 L-0.3 -8.75 -0.3 -8.75 -0.3 -8.7 -0.3 -8.6 -0.25 -8.6 -0.25 -8.45 -0.25 -8.35 -0.25 -8.3 -0.25 -8.25 -0.3 -8.3 -0.3 -8.3 -0.35 -8.35 -0.35 -8.3 -0.35 -8.25 -0.3 -8.2 -0.3 -8.2 -0.35 -8.2 -0.35 -8.15 -0.3 -8.15 -0.3 -8.15 -0.25 -8.1 -0.25 -8.15 -0.25 -8.2 -0.25 -8.25 -0.2 -8.25 -0.2 -8.2 -0.2 -8.15 -0.15 -8.15 -0.15 -8.2 -0.1 -8.15 -0.1 -8.15 -0.05 -8.15 -0.05 -8.2 0.0 -8.2 0.0 -8.25 0.0 -8.3 0.05 -8.3 0.1 -8.35 0.1 -8.35 0.05 -8.4 0.1 -8.4 0.1 -8.45 0.15 -8.5 0.15 -8.5 0.15 -8.55 0.2 -8.55 0.2 -8.5 0.2 -8.5 0.25 -8.5 0.25 -8.5 0.3 -8.45 0.3 -8.45 0.3 -8.45 0.35 -8.45 0.35 -8.5 0.4 -8.45 0.4 -8.5 0.4 -8.5 0.45 -8.45 0.45 -8.5 0.5 -8.55 0.45 -8.55 0.5 -8.6 0.5 -8.6 0.55 -8.6 0.55 -8.65 0.55 -8.65 0.55 -8.6 0.6 -8.65 0.6 -8.65 0.65 -8.6 0.65 -8.55 0.6 -8.55 0.6 -8.5 0.6 -8.55 0.55 -8.5 0.55 -8.4 0.55 -8.35 0.55 -8.35 0.55 -8.35 0.5 -8.35 0.5 -8.35 0.55 -8.4 0.5 -8.4 0.5 -8.45 0.45 -8.4 0.45 -8.45 0.4 -8.45 0.4 -8.4 Q0.4 -8.4 0.45 -8.4 L0.45 -8.35 0.4 -8.35 0.35 -8.35 0.35 -8.3 0.4 -8.3 0.35 -8.25 0.35 -8.25 Q0.3 -8.3 0.35 -8.3 L0.35 -8.3 0.3 -8.3 0.3 -8.25 0.3 -8.25 0.35 -8.25 0.35 -8.15 0.35 -8.1 0.35 -8.05 0.35 -8.0 0.4 -8.05 0.4 -8.0 0.4 -8.0 0.45 -8.0 0.45 -8.0 0.45 -7.95 0.45 -7.95 0.4 -7.95 0.4 -7.9 0.4 -7.9 0.45 -7.9 0.45 -7.85 0.45 -7.8 0.4 -7.8 0.4 -7.75 0.4 -7.7 0.4 -7.65 0.35 -7.6 0.35 -7.55 M-0.4 -5.85 L-0.45 -5.85 -0.4 -5.85 M-1.3 -7.85 L-1.3 -7.9 -1.3 -7.9 -1.35 -7.9 -1.3 -7.9 -1.3 -7.95 -1.3 -8.0 -1.25 -8.05 -1.25 -8.05 -1.25 -8.1 -1.25 -8.15 -1.2 -8.15 Q-1.2 -8.15 -1.2 -8.2 L-1.2 -8.25 -1.15 -8.25 -1.2 -8.1 -1.25 -7.95 -1.25 -8.0 -1.25 -7.95 -1.3 -7.9 -1.3 -7.85 M-1.7 -9.25 L-1.65 -9.3 -1.65 -9.25 -1.7 -9.25 M1.05 -8.8 L1.05 -8.8 1.0 -8.8 1.0 -8.85 1.05 -8.8 M0.1 -8.9 L0.1 -8.85 0.1 -8.85 0.1 -8.9 M0.25 -8.8 L0.25 -8.8 0.3 -8.8 0.25 -8.8 0.25 -8.8 M0.05 -8.9 L0.1 -8.85 0.05 -8.85 0.05 -8.9 0.05 -8.9 M0.65 -8.45 L0.65 -8.45 0.65 -8.45 0.65 -8.45 M0.6 -8.25 L0.65 -8.25 0.65 -8.2 0.65 -8.2 0.6 -8.25 0.6 -8.25 M-0.55 -8.4 L-0.6 -8.35 -0.65 -8.35 -0.65 -8.3 -0.7 -8.3 -0.7 -8.25 -0.65 -8.25 -0.65 -8.25 -0.6 -8.25 -0.6 -8.3 Q-0.6 -8.3 -0.55 -8.3 L-0.55 -8.4 M-0.9 -8.1 L-0.9 -8.15 -0.85 -8.15 -0.85 -8.2 -0.8 -8.2 -0.8 -8.25 -0.8 -8.25 -0.75 -8.3 -0.75 -8.35 -0.7 -8.35 -0.7 -8.4 -0.65 -8.4 -0.65 -8.35 -0.65 -8.35 -0.6 -8.4 -0.6 -8.4 -0.6 -8.45 -0.55 -8.45 -0.55 -8.5 -0.55 -8.55 -0.6 -8.55 -0.6 -8.6 -0.65 -8.6 -0.65 -8.6 -0.6 -8.65 -0.65 -8.7 -0.7 -8.6 -0.7 -8.55 -0.7 -8.5 -0.7 -8.45 -0.75 -8.4 -0.75 -8.35 -0.8 -8.35 -0.8 -8.4 -0.85 -8.35 -0.9 -8.3 -0.9 -8.3 -0.95 -8.3 -0.95 -8.25 -0.95 -8.25 -1.0 -8.2 -1.0 -8.2 -1.05 -8.2 -1.05 -8.2 -1.05 -8.15 -1.1 -8.1 -1.05 -8.1 -1.05 -8.0 -1.05 -8.0 -1.05 -8.0 -1.0 -8.05 -0.95 -8.1 -0.95 -8.0 -1.0 -8.0 -1.0 -7.95 -1.05 -7.95 -1.05 -7.95 -1.05 -7.85 -1.0 -7.85 -0.95 -7.85 -0.95 -7.9 -0.9 -7.95 -0.9 -7.95 -0.9 -8.0 -0.85 -8.0 -0.85 -8.0 -0.85 -8.1 -0.85 -8.1 -0.9 -8.1 -0.9 -8.05 -0.9 -8.1 M-0.95 -8.1 L-0.95 -8.1 M0.1 -8.25 L0.05 -8.25 0.05 -8.2 0.0 -8.2 0.0 -8.2 0.0 -8.15 -0.05 -8.1 0.0 -8.1 0.0 -8.1 0.05 -8.1 0.05 -8.1 0.1 -8.15 0.1 -8.2 0.15 -8.2 0.1 -8.25 0.1 -8.25 M0.05 -8.05 L0.05 -8.05 0.05 -8.0 0.0 -7.95 0.0 -8.05 0.0 -8.05 -0.05 -8.0 -0.05 -7.95 -0.05 -7.95 0.0 -7.95 0.0 -7.95 Q0.05 -7.95 0.05 -7.95 L0.1 -8.0 0.05 -8.1 Q0.05 -8.1 0.05 -8.05 M0.25 -7.9 L0.3 -7.9 0.3 -7.9 0.35 -7.95 0.3 -8.0 0.3 -8.0 0.3 -8.0 0.25 -7.9 M0.2 -8.0 L0.2 -8.05 0.15 -8.0 0.15 -7.95 0.15 -7.95 0.2 -7.95 0.2 -8.0 M1.55 -8.45 L1.5 -8.5 1.55 -8.45 1.55 -8.45 M1.45 -8.55 L1.45 -8.5 1.45 -8.55 M0.1 -6.75 L0.1 -6.75 0.1 -6.75 M-0.85 -9.3 L-0.85 -9.25 -0.9 -9.25 -0.9 -9.25 -0.95 -9.25 -0.95 -9.15 -0.95 -9.15 -0.9 -9.15 -0.9 -9.2 -0.9 -9.2 -0.85 -9.25 -0.85 -9.3 -0.85 -9.3 M-1.0 -9.2 L-1.0 -9.2 -1.05 -9.2 -1.05 -9.15 -1.1 -9.15 -1.1 -9.15 -1.05 -9.15 -1.0 -9.15 -1.0 -9.15 -0.95 -9.2 -1.0 -9.2 M-0.8 -8.9 L-0.75 -8.9 -0.75 -8.95 -0.75 -9.0 -0.8 -9.0 -0.8 -9.05 -0.8 -9.05 -0.85 -9.05 -0.85 -9.0 -0.9 -8.95 -0.9 -8.95 -0.85 -8.95 -0.85 -8.95 -0.9 -8.95 -0.85 -8.9 -0.85 -8.9 -0.9 -8.9 -0.9 -8.85 -0.9 -8.85 -0.85 -8.85 -0.8 -8.85 -0.8 -8.9 M-0.95 -8.8 L-0.9 -8.85 -0.9 -8.9 -0.95 -8.9 -0.95 -8.9 -1.0 -8.85 -1.0 -8.9 -0.95 -8.95 -1.0 -8.95 -1.05 -8.95 -1.05 -8.9 -1.1 -8.9 -1.1 -8.9 -1.15 -8.85 -1.15 -8.75 -1.05 -8.8 -1.0 -8.8 -1.0 -8.75 -1.0 -8.65 -1.05 -8.65 -1.0 -8.6 -1.0 -8.6 Q-1.0 -8.6 -0.95 -8.65 L-0.95 -8.7 -0.95 -8.7 -0.9 -8.75 -0.9 -8.75 -0.95 -8.8 -0.95 -8.8 -0.9 -8.8 -0.95 -8.8 M-0.95 -8.85 L-0.95 -8.85 -1.0 -8.85 -0.95 -8.85 -0.95 -8.85 M-1.55 -9.0 L-1.5 -9.0 -1.5 -8.95 -1.45 -9.0 -1.45 -9.05 -1.45 -9.05 -1.4 -9.1 -1.4 -9.15 -1.4 -9.15 -1.45 -9.1 -1.45 -9.15 -1.5 -9.15 -1.5 -9.1 -1.5 -9.1 -1.55 -9.05 -1.55 -9.0 -1.6 -9.0 -1.55 -9.0 -1.55 -9.0 M-1.55 -8.9 L-1.6 -8.85 -1.65 -8.8 -1.7 -8.75 -1.75 -8.7 -1.75 -8.65 -1.75 -8.65 -1.7 -8.6 -1.7 -8.65 -1.65 -8.7 -1.65 -8.7 -1.6 -8.7 -1.6 -8.65 -1.65 -8.65 -1.65 -8.65 -1.6 -8.65 -1.55 -8.75 -1.55 -8.8 -1.5 -8.85 -1.45 -8.9 -1.45 -9.0 -1.55 -8.9 M-1.2 -9.05 L-1.2 -9.05 -1.25 -9.0 -1.2 -9.0 -1.2 -9.0 -1.25 -8.95 -1.25 -8.9 -1.3 -8.85 -1.3 -8.8 -1.35 -8.75 -1.4 -8.8 -1.35 -8.8 -1.35 -8.85 -1.4 -8.8 -1.45 -8.8 -1.45 -8.7 -1.5 -8.65 -1.5 -8.65 -1.55 -8.65 -1.55 -8.65 -1.6 -8.6 -1.6 -8.55 -1.55 -8.6 -1.55 -8.6 -1.5 -8.6 -1.55 -8.55 -1.55 -8.55 -1.5 -8.55 -1.5 -8.6 -1.45 -8.6 -1.45 -8.6 -1.4 -8.65 -1.4 -8.6 -1.4 -8.65 -1.35 -8.7 -1.35 -8.7 -1.3 -8.7 -1.3 -8.75 -1.25 -8.75 -1.3 -8.8 -1.3 -8.8 -1.25 -8.85 -1.2 -8.9 -1.2 -8.9 -1.15 -8.95 -1.05 -8.95 -1.05 -8.95 -1.1 -8.95 -1.15 -9.0 -1.1 -9.0 -1.05 -9.1 -1.1 -9.1 -1.1 -9.1 -1.15 -9.1 -1.2 -9.05 M-1.3 -9.0 L-1.35 -9.0 -1.35 -8.95 -1.35 -8.95 -1.35 -8.9 -1.3 -8.95 -1.3 -9.0 M-1.2 -8.8 L-1.25 -8.75 -1.25 -8.7 -1.25 -8.7 -1.2 -8.7 -1.2 -8.7 -1.2 -8.7 -1.2 -8.8 -1.2 -8.8 M-1.25 -8.65 L-1.3 -8.6 -1.35 -8.6 -1.4 -8.55 -1.4 -8.5 -1.45 -8.5 -1.45 -8.5 -1.5 -8.45 -1.5 -8.45 -1.55 -8.5 -1.55 -8.45 -1.55 -8.45 -1.6 -8.4 -1.6 -8.4 -1.6 -8.45 -1.65 -8.45 -1.7 -8.35 -1.75 -8.3 -1.75 -8.25 -1.7 -8.25 -1.65 -8.25 -1.6 -8.25 -1.6 -8.25 -1.55 -8.3 -1.55 -8.35 -1.5 -8.35 -1.45 -8.4 -1.4 -8.45 -1.4 -8.4 -1.35 -8.45 -1.35 -8.45 -1.3 -8.5 -1.3 -8.55 -1.3 -8.5 Q-1.3 -8.5 -1.25 -8.5 L-1.2 -8.55 -1.2 -8.65 -1.2 -8.65 -1.2 -8.7 -1.25 -8.65 M-1.05 -8.55 L-1.05 -8.6 -1.1 -8.6 -1.1 -8.6 -1.1 -8.6 -1.2 -8.5 -1.25 -8.45 -1.3 -8.4 -1.3 -8.35 -1.35 -8.35 -1.25 -8.3 Q-1.2 -8.3 -1.2 -8.35 L-1.15 -8.4 -1.15 -8.35 Q-1.15 -8.35 -1.1 -8.4 L-1.05 -8.45 -1.05 -8.5 -1.0 -8.55 -1.05 -8.55 M-1.45 -8.35 L-1.45 -8.3 -1.4 -8.3 -1.4 -8.3 -1.35 -8.35 -1.3 -8.4 -1.3 -8.4 -1.35 -8.45 -1.35 -8.4 -1.4 -8.4 -1.45 -8.35 M-1.75 -8.4 L-1.75 -8.45 -1.8 -8.45 -1.8 -8.4 -1.8 -8.5 -1.85 -8.45 -1.9 -8.35 -1.95 -8.35 -2.0 -8.3 -1.95 -8.25 -1.95 -8.25 -1.9 -8.3 -1.85 -8.3 -1.85 -8.3 Q-1.8 -8.3 -1.8 -8.3 L-1.8 -8.35 -1.75 -8.4 -1.75 -8.4 M-0.5 -8.3 L-0.55 -8.25 -0.55 -8.25 -0.6 -8.2 -0.6 -8.2 -0.6 -8.15 -0.6 -8.15 -0.55 -8.15 -0.55 -8.1 -0.5 -8.1 -0.5 -8.15 -0.45 -8.15 -0.45 -8.2 -0.45 -8.3 -0.5 -8.3 M-0.45 -8.25 L-0.45 -8.15 -0.45 -8.1 -0.45 -8.1 -0.5 -8.05 -0.5 -7.95 Q-0.45 -7.95 -0.45 -8.0 L-0.45 -8.05 -0.4 -8.05 -0.4 -8.1 -0.4 -8.15 -0.4 -8.2 -0.4 -8.25 -0.45 -8.25 M-0.7 -8.05 L-0.7 -8.0 -0.75 -8.05 -0.75 -8.05 -0.8 -8.05 -0.8 -8.0 -0.75 -8.0 -0.75 -7.95 -0.8 -7.9 -0.8 -7.9 -0.75 -7.9 -0.75 -7.9 -0.7 -7.95 -0.7 -7.95 -0.65 -7.95 -0.65 -8.0 -0.65 -8.05 -0.7 -8.05 M-0.1 -7.3 L-0.1 -7.3 -0.1 -7.3 M-0.45 -5.85 L-0.45 -5.85" fill="#713d18" fill-rule="evenodd" stroke="none"/>
    <path d="M2.0 -9.1 L1.95 -9.15 1.9 -9.1 1.9 -9.15 1.85 -9.15 1.8 -9.2 1.8 -9.2 1.75 -9.25 1.75 -9.25 1.7 -9.25 1.65 -9.25 1.6 -9.25 1.6 -9.3 1.55 -9.25 1.55 -9.25 1.5 -9.3 1.45 -9.3 1.45 -9.3 1.4 -9.35 1.35 -9.35 1.35 -9.35 1.3 -9.35 1.3 -9.35 1.25 -9.35 1.25 -9.35 1.2 -9.35 1.2 -9.35 1.15 -9.3 1.1 -9.3 1.1 -9.3 1.05 -9.25 1.0 -9.25 0.9 -9.15 0.9 -9.1 0.85 -9.1 0.85 -9.05 0.8 -9.05 0.8 -9.05 0.75 -9.0 0.7 -8.95 0.7 -8.95 0.65 -8.9 0.65 -8.9 0.6 -8.9 0.6 -8.9 0.6 -8.85 0.6 -8.8 0.55 -8.85 0.55 -8.85 0.5 -8.85 0.5 -8.85 0.5 -8.9 0.45 -8.9 0.45 -8.9 0.5 -8.9 0.5 -8.95 0.45 -9.0 0.5 -9.0 0.55 -9.0 0.6 -9.0 0.6 -9.0 0.65 -9.0 0.7 -9.05 0.75 -9.1 0.8 -9.1 0.8 -9.15 0.9 -9.2 0.95 -9.2 1.0 -9.25 1.05 -9.3 1.1 -9.35 1.15 -9.35 1.15 -9.4 1.2 -9.4 1.25 -9.4 1.3 -9.45 1.3 -9.4 1.35 -9.45 1.4 -9.45 1.4 -9.45 1.45 -9.45 1.5 -9.45 1.6 -9.45 1.65 -9.4 Q1.65 -9.4 1.7 -9.35 L1.8 -9.3 1.95 -9.15 2.0 -9.1" fill="#fbf5e5" fill-rule="evenodd" stroke="none"/>
    <path d="M2.05 -9.0 L2.05 -9.0 2.0 -9.0 2.0 -9.0 1.95 -9.0 1.9 -9.05 1.9 -9.1 1.85 -9.1 1.85 -9.15 1.8 -9.15 1.8 -9.15 1.75 -9.2 1.75 -9.15 1.7 -9.15 1.7 -9.15 1.65 -9.2 1.65 -9.2 1.6 -9.2 1.6 -9.25 1.5 -9.25 1.5 -9.25 1.45 -9.3 1.4 -9.3 1.4 -9.3 1.35 -9.3 1.35 -9.3 1.3 -9.3 1.3 -9.3 1.25 -9.3 1.25 -9.3 1.2 -9.3 1.2 -9.25 1.15 -9.25 1.15 -9.25 1.05 -9.25 1.0 -9.2 1.0 -9.2 0.95 -9.15 0.95 -9.15 0.9 -9.1 0.9 -9.1 0.9 -9.1 0.85 -9.1 0.85 -9.05 0.85 -9.0 0.8 -9.0 0.8 -8.95 0.75 -8.95 0.75 -8.95 0.7 -8.95 0.65 -8.9 0.65 -8.9 0.65 -8.9 0.7 -8.95 0.7 -8.95 0.75 -9.0 0.8 -9.05 0.8 -9.05 0.85 -9.05 0.85 -9.1 0.9 -9.1 0.9 -9.15 1.0 -9.25 1.05 -9.25 1.1 -9.3 1.1 -9.3 1.15 -9.3 1.2 -9.35 1.2 -9.35 1.25 -9.35 1.25 -9.35 1.3 -9.35 1.3 -9.35 1.35 -9.35 1.35 -9.35 1.4 -9.35 1.45 -9.3 1.45 -9.3 1.5 -9.3 1.55 -9.25 1.55 -9.25 1.6 -9.3 1.6 -9.25 1.65 -9.25 1.7 -9.25 1.75 -9.25 1.75 -9.25 1.8 -9.2 1.8 -9.2 1.85 -9.15 1.9 -9.15 1.9 -9.1 1.95 -9.15 2.0 -9.1 2.0 -9.05 2.05 -9.0 M0.6 -8.9 L0.65 -8.9 0.6 -8.9 M1.4 -9.3 L1.4 -9.3" fill="#c6a465" fill-rule="evenodd" stroke="none"/>
    <path d="M1.4 -9.3 L1.45 -9.3 1.5 -9.25 1.5 -9.25 1.6 -9.25 1.6 -9.2 1.65 -9.2 1.65 -9.2 1.7 -9.15 1.7 -9.15 1.75 -9.15 1.75 -9.2 1.8 -9.15 1.8 -9.15 1.85 -9.15 1.85 -9.1 1.9 -9.1 1.9 -9.05 1.95 -9.0 2.0 -9.0 2.0 -9.0 2.05 -9.0 2.05 -9.0 2.05 -8.95 2.05 -8.95 2.05 -8.9 2.05 -8.85 2.1 -8.8 2.1 -8.75 2.15 -8.7 2.15 -8.7 2.1 -8.65 2.0 -8.65 2.0 -8.65 1.95 -8.7 1.95 -8.75 1.85 -8.8 1.8 -8.85 1.75 -8.9 1.8 -8.95 1.8 -9.0 1.75 -9.05 1.75 -9.0 1.7 -9.05 1.65 -9.1 1.65 -9.05 1.6 -9.1 1.55 -9.15 1.5 -9.15 1.5 -9.15 1.5 -9.1 1.45 -9.1 1.45 -9.1 1.4 -9.1 1.35 -9.15 1.35 -9.2 1.25 -9.25 1.25 -9.25 1.25 -9.2 1.3 -9.15 1.25 -9.1 1.25 -9.1 1.25 -9.05 1.2 -9.05 1.2 -9.05 1.15 -9.05 1.15 -9.05 1.1 -9.05 1.1 -9.05 1.05 -9.05 1.05 -9.0 1.0 -9.0 0.95 -9.0 1.0 -8.95 1.0 -8.9 0.95 -8.85 0.95 -8.85 0.9 -8.9 0.9 -8.85 0.85 -8.9 0.85 -8.9 0.8 -8.9 0.85 -8.85 0.85 -8.8 0.8 -8.8 0.75 -8.75 0.75 -8.75 0.7 -8.75 0.7 -8.8 0.65 -8.8 0.65 -8.8 0.65 -8.9 0.65 -8.9 0.7 -8.95 0.75 -8.95 0.75 -8.95 0.8 -8.95 0.8 -9.0 0.85 -9.0 0.85 -9.05 0.85 -9.1 0.9 -9.1 0.9 -9.1 0.9 -9.1 0.95 -9.15 0.95 -9.15 1.0 -9.2 1.0 -9.2 1.05 -9.25 1.15 -9.25 1.15 -9.25 1.2 -9.25 1.2 -9.3 1.25 -9.3 1.25 -9.3 1.3 -9.3 1.3 -9.3 1.35 -9.3 1.35 -9.3 1.4 -9.3 1.4 -9.3 1.4 -9.3 M1.05 -8.8 L1.05 -8.85 1.1 -8.8 1.1 -8.8 1.1 -8.85 1.1 -8.9 1.15 -8.95 1.2 -8.95 1.2 -8.9 1.25 -8.85 1.25 -8.8 1.2 -8.75 1.2 -8.75 1.15 -8.7 1.15 -8.75 1.1 -8.75 1.1 -8.75 1.05 -8.75 Q1.05 -8.75 1.05 -8.8 L1.05 -8.8 1.05 -8.8 M1.05 -8.75 L1.05 -8.7 1.05 -8.6 1.0 -8.55 0.95 -8.6 0.9 -8.6 0.9 -8.65 0.9 -8.7 0.95 -8.7 0.95 -8.7 0.95 -8.8 1.0 -8.8 1.0 -8.75 1.05 -8.75 M0.6 -8.5 L0.65 -8.5 0.65 -8.45 0.65 -8.4 0.6 -8.35 0.55 -8.35 0.55 -8.35 0.55 -8.4 0.55 -8.5 0.6 -8.55 0.6 -8.5 M0.7 -8.5 L0.7 -8.5 0.65 -8.55 0.7 -8.55 0.7 -8.6 0.7 -8.7 0.75 -8.7 0.75 -8.65 0.8 -8.7 0.8 -8.7 0.85 -8.65 0.85 -8.65 0.9 -8.6 0.9 -8.55 0.9 -8.5 0.9 -8.45 0.85 -8.45 0.8 -8.45 0.75 -8.45 0.7 -8.45 0.7 -8.5 M0.55 -8.35 L0.55 -8.35 M0.65 -8.45 L0.65 -8.45" fill="#a46a2a" fill-rule="evenodd" stroke="none"/>
    <path d="M0.65 -8.9 L0.65 -8.8 0.65 -8.8 0.7 -8.8 0.7 -8.75 0.75 -8.75 0.75 -8.75 0.8 -8.8 0.85 -8.8 0.85 -8.85 0.8 -8.9 0.85 -8.9 0.85 -8.9 0.9 -8.85 0.9 -8.9 0.95 -8.85 0.95 -8.85 1.0 -8.9 1.0 -8.95 0.95 -9.0 1.0 -9.0 1.05 -9.0 1.05 -9.05 1.1 -9.05 1.1 -9.05 1.15 -9.05 1.15 -9.05 1.2 -9.05 1.2 -9.05 1.25 -9.05 1.25 -9.1 1.25 -9.1 1.3 -9.15 1.25 -9.2 1.25 -9.25 1.25 -9.25 1.35 -9.2 1.35 -9.15 1.4 -9.1 1.45 -9.1 1.45 -9.1 1.5 -9.1 1.5 -9.15 1.5 -9.15 1.55 -9.15 1.6 -9.1 1.65 -9.05 1.65 -9.05 1.7 -8.95 1.7 -8.9 1.7 -8.9 1.75 -8.9 1.75 -8.85 1.8 -8.85 1.8 -8.8 1.85 -8.8 1.85 -8.75 1.9 -8.75 1.95 -8.75 1.95 -8.7 2.0 -8.65 2.0 -8.65 2.1 -8.65 2.15 -8.7 2.15 -8.7 2.1 -8.75 2.1 -8.8 2.05 -8.85 2.05 -8.9 2.05 -8.95 2.05 -8.95 2.1 -8.9 2.2 -8.6 2.2 -8.6 2.2 -8.55 2.2 -8.35 2.25 -8.3 2.25 -8.2 2.3 -8.15 2.3 -8.05 2.3 -8.0 2.3 -8.05 2.2 -8.05 2.2 -7.95 2.2 -7.9 2.2 -7.8 2.3 -7.8 2.3 -7.8 2.35 -7.8 2.35 -7.85 2.35 -7.9 2.4 -7.85 2.4 -7.8 2.45 -7.65 2.5 -7.65 2.5 -7.6 2.45 -7.65 2.45 -7.65 2.4 -7.7 2.4 -7.75 2.35 -7.7 2.35 -7.65 2.4 -7.6 2.35 -7.65 2.3 -7.65 2.3 -7.65 2.25 -7.6 2.3 -7.5 2.3 -7.5 2.25 -7.55 2.2 -7.5 2.25 -7.5 2.25 -7.45 2.25 -7.4 2.3 -7.35 2.3 -7.35 2.25 -7.35 2.25 -7.35 2.15 -7.4 2.1 -7.4 2.05 -7.45 2.05 -7.45 2.0 -7.45 2.0 -7.5 1.85 -7.55 1.7 -7.65 1.7 -7.65 1.65 -7.65 1.6 -7.65 1.55 -7.65 1.55 -7.7 1.5 -7.7 1.45 -7.7 1.45 -7.7 1.4 -7.7 1.35 -7.75 1.3 -7.8 1.3 -7.8 1.25 -7.8 1.15 -7.75 1.1 -7.8 1.05 -7.8 1.05 -7.8 1.0 -7.8 0.95 -7.8 0.95 -7.75 0.9 -7.75 0.85 -7.7 0.8 -7.7 0.8 -7.7 0.75 -7.7 0.7 -7.65 0.65 -7.7 0.65 -7.65 0.55 -7.65 0.55 -7.65 0.5 -7.65 0.5 -7.65 0.45 -7.6 0.45 -7.6 0.45 -7.65 0.45 -7.7 0.45 -7.75 0.45 -7.75 0.5 -7.75 0.5 -7.8 0.55 -7.8 0.55 -7.8 0.5 -7.85 0.5 -7.95 0.5 -8.0 0.5 -8.05 0.45 -8.1 0.45 -8.15 0.45 -8.25 0.45 -8.25 Q0.45 -8.3 0.5 -8.3 L0.55 -8.35 0.55 -8.35 0.6 -8.35 0.65 -8.4 0.65 -8.45 0.65 -8.45 0.7 -8.45 0.7 -8.5 0.7 -8.45 0.75 -8.45 0.8 -8.45 0.85 -8.45 0.9 -8.45 0.9 -8.5 0.9 -8.55 0.9 -8.6 0.85 -8.65 0.85 -8.65 0.8 -8.7 0.8 -8.7 0.75 -8.65 0.75 -8.7 0.7 -8.7 0.7 -8.6 0.65 -8.65 0.65 -8.65 0.6 -8.65 0.55 -8.7 0.55 -8.75 0.55 -8.7 0.55 -8.7 0.6 -8.7 0.6 -8.7 0.65 -8.75 0.65 -8.8 0.6 -8.85 0.6 -8.9 0.6 -8.9 0.65 -8.9 M2.05 -8.6 Q2.05 -8.6 2.0 -8.6 L1.95 -8.6 1.95 -8.55 1.95 -8.4 1.95 -8.35 2.0 -8.35 2.0 -8.3 2.0 -8.2 2.05 -8.15 2.1 -8.15 2.1 -8.15 2.15 -8.1 2.15 -8.1 2.2 -8.1 2.2 -8.1 2.25 -8.15 2.25 -8.25 2.2 -8.25 2.2 -8.35 2.15 -8.45 2.15 -8.45 2.15 -8.5 2.1 -8.55 2.1 -8.6 2.05 -8.6 M2.1 -7.95 L2.1 -7.85 2.1 -7.8 2.15 -7.8 2.15 -7.8 2.2 -7.8 2.2 -7.85 2.2 -7.9 2.2 -7.9 2.1 -8.05 Q2.1 -8.05 2.1 -8.0 L2.1 -7.95 M2.05 -7.85 L2.05 -7.9 2.0 -7.95 2.0 -7.95 1.95 -8.0 1.95 -8.0 1.9 -8.0 1.85 -8.05 1.85 -8.05 1.8 -8.0 1.8 -7.9 1.8 -7.85 1.85 -7.8 1.85 -7.75 1.9 -7.75 1.95 -7.75 1.95 -7.65 2.0 -7.65 2.0 -7.6 2.05 -7.6 Q2.05 -7.55 2.1 -7.5 L2.1 -7.45 Q2.15 -7.45 2.15 -7.45 L2.2 -7.45 2.2 -7.45 2.2 -7.55 2.15 -7.6 2.15 -7.65 2.1 -7.75 2.05 -7.85 M1.25 -8.95 L1.2 -8.9 1.25 -8.9 1.3 -8.85 1.35 -8.8 1.35 -8.8 1.4 -8.8 1.45 -8.8 1.45 -8.9 1.45 -8.9 1.4 -8.95 1.35 -8.95 1.3 -8.95 1.25 -8.95 1.25 -8.95 M1.05 -8.8 L1.05 -8.8 Q1.05 -8.75 1.05 -8.75 L1.1 -8.75 1.1 -8.75 1.15 -8.75 1.15 -8.7 1.2 -8.75 1.2 -8.75 1.25 -8.8 1.25 -8.85 1.2 -8.9 1.2 -8.95 1.15 -8.95 1.1 -8.9 1.1 -8.85 1.1 -8.8 1.1 -8.8 1.05 -8.85 1.05 -8.8 1.0 -8.85 1.0 -8.8 1.05 -8.8 M1.05 -8.75 L1.0 -8.75 1.0 -8.8 0.95 -8.8 0.95 -8.7 0.95 -8.7 0.9 -8.7 0.9 -8.65 0.9 -8.6 0.95 -8.6 1.0 -8.55 1.05 -8.6 1.05 -8.7 1.05 -8.75 M1.45 -8.8 L1.45 -8.7 1.45 -8.7 1.5 -8.65 1.5 -8.6 Q1.5 -8.55 1.55 -8.5 L1.6 -8.5 1.65 -8.5 1.65 -8.6 1.7 -8.6 1.65 -8.65 1.6 -8.65 Q1.6 -8.65 1.6 -8.7 L1.55 -8.7 1.5 -8.8 1.45 -8.8 M1.55 -9.0 L1.55 -9.0 1.55 -8.9 1.6 -8.9 1.65 -8.95 1.65 -8.95 1.6 -9.0 1.6 -9.0 1.55 -9.0 M1.7 -8.85 L1.7 -8.85 1.7 -8.75 1.65 -8.8 1.65 -8.85 1.6 -8.8 1.65 -8.75 1.7 -8.7 1.75 -8.65 1.75 -8.65 1.8 -8.6 1.8 -8.6 1.85 -8.65 1.85 -8.65 1.85 -8.75 1.8 -8.8 1.75 -8.8 1.75 -8.85 1.7 -8.85 M0.95 -8.45 L0.95 -8.45 0.9 -8.45 0.9 -8.45 0.85 -8.4 0.85 -8.3 0.85 -8.25 0.9 -8.25 0.9 -8.2 0.95 -8.15 1.0 -8.15 1.0 -8.15 1.05 -8.15 1.05 -8.15 1.1 -8.2 1.1 -8.25 1.1 -8.3 1.1 -8.35 1.05 -8.4 1.0 -8.4 1.0 -8.45 0.95 -8.45 M0.65 -8.15 L0.7 -8.15 0.7 -8.1 0.75 -8.1 0.75 -8.1 0.85 -8.1 0.85 -8.15 0.85 -8.25 0.8 -8.3 0.8 -8.3 0.75 -8.3 0.75 -8.35 0.75 -8.35 0.7 -8.4 0.65 -8.35 0.65 -8.3 0.6 -8.3 0.6 -8.25 0.6 -8.3 0.55 -8.3 0.55 -8.3 0.5 -8.25 0.5 -8.2 0.45 -8.15 0.45 -8.15 0.5 -8.15 0.55 -8.2 0.6 -8.2 0.6 -8.15 0.55 -8.15 0.55 -8.1 0.55 -8.05 0.55 -8.0 0.6 -8.0 0.65 -8.0 0.65 -8.1 0.65 -8.15 0.65 -8.15 M0.8 -8.1 L0.8 -8.05 0.75 -8.05 0.7 -8.0 0.7 -7.95 0.7 -7.9 0.7 -7.9 0.75 -7.85 0.75 -7.8 Q0.8 -7.75 0.8 -7.75 L0.9 -7.75 0.9 -7.75 0.95 -7.8 0.9 -7.9 0.9 -7.95 0.85 -7.95 0.85 -8.05 0.8 -8.05 0.8 -8.1 M0.95 -8.1 L0.9 -8.05 0.95 -8.0 0.95 -7.9 1.0 -7.85 1.0 -7.85 1.05 -7.85 1.1 -7.8 1.1 -7.8 1.15 -7.8 1.15 -7.85 Q1.1 -7.95 1.1 -8.0 L1.1 -8.05 1.05 -8.1 1.05 -8.1 1.0 -8.1 0.95 -8.15 0.95 -8.1 M0.65 -7.95 L0.65 -8.0 0.6 -7.95 0.55 -7.95 0.55 -7.9 0.55 -7.85 0.6 -7.8 0.6 -7.75 0.65 -7.7 0.65 -7.7 0.7 -7.75 0.75 -7.75 0.75 -7.8 0.7 -7.8 0.7 -7.85 0.65 -7.85 0.65 -7.9 0.65 -7.95 M1.9 -8.4 L1.9 -8.45 1.9 -8.5 1.85 -8.55 1.8 -8.55 1.8 -8.6 1.75 -8.6 1.75 -8.6 1.7 -8.55 1.75 -8.5 1.65 -8.55 1.65 -8.5 1.65 -8.45 1.65 -8.4 1.65 -8.35 1.7 -8.3 1.7 -8.25 1.75 -8.2 1.75 -8.15 1.8 -8.15 1.85 -8.1 1.85 -8.05 1.9 -8.05 1.9 -8.05 1.95 -8.05 1.95 -8.1 2.0 -8.1 2.0 -8.15 2.0 -8.2 1.95 -8.25 1.95 -8.3 1.9 -8.3 1.9 -8.3 1.9 -8.4 1.9 -8.4 M1.55 -8.15 L1.55 -8.1 1.6 -8.1 1.65 -8.1 1.7 -8.1 1.7 -8.1 1.65 -8.2 1.65 -8.25 1.6 -8.25 1.6 -8.4 1.55 -8.4 1.55 -8.45 1.55 -8.45 1.5 -8.5 1.5 -8.5 1.45 -8.45 1.45 -8.45 1.4 -8.4 1.35 -8.4 1.35 -8.4 1.4 -8.35 1.4 -8.3 1.45 -8.3 1.4 -8.25 1.45 -8.25 1.45 -8.2 1.45 -8.1 1.45 -8.1 1.4 -8.05 1.45 -8.0 1.5 -7.9 1.5 -7.85 1.55 -7.8 1.6 -7.75 1.65 -7.75 1.7 -7.7 1.7 -7.7 1.75 -7.7 1.75 -7.75 1.75 -7.9 1.7 -7.9 1.7 -7.95 1.65 -7.95 1.6 -8.05 1.6 -8.05 1.5 -8.1 1.5 -8.1 1.55 -8.1 1.55 -8.15 M1.45 -8.55 L1.45 -8.55 1.4 -8.6 1.4 -8.6 1.35 -8.65 1.3 -8.65 1.25 -8.65 1.2 -8.6 1.2 -8.55 1.25 -8.5 1.3 -8.5 1.35 -8.5 1.35 -8.5 1.4 -8.5 1.4 -8.5 1.45 -8.5 1.45 -8.55 M1.25 -8.4 L1.25 -8.45 1.2 -8.5 1.2 -8.5 1.15 -8.55 1.15 -8.55 1.05 -8.5 1.05 -8.45 1.05 -8.4 1.1 -8.35 1.1 -8.35 1.15 -8.3 1.15 -8.25 1.2 -8.2 1.2 -8.2 1.25 -8.2 1.25 -8.15 1.3 -8.15 1.3 -8.15 1.35 -8.15 1.35 -8.1 1.4 -8.15 1.4 -8.25 1.35 -8.25 1.3 -8.25 1.3 -8.3 1.25 -8.3 Q1.35 -8.3 1.35 -8.35 L1.3 -8.4 1.3 -8.4 1.25 -8.4 M1.45 -7.7 L1.45 -7.75 1.5 -7.8 1.45 -7.85 1.45 -7.9 1.4 -7.95 1.4 -8.0 1.35 -8.05 1.35 -8.1 1.3 -8.1 1.3 -8.1 1.2 -8.15 1.15 -8.15 1.15 -8.1 1.15 -8.1 1.2 -7.95 1.2 -7.9 1.25 -7.85 1.3 -7.8 1.35 -7.8 1.4 -7.75 1.4 -7.75 1.45 -7.7" fill="#754018" fill-rule="evenodd" stroke="none"/>
    <path d="M2.3 -8.0 L2.3 -8.0 2.35 -7.9 2.35 -7.9 2.35 -7.85 2.35 -7.8 2.3 -7.8 2.3 -7.8 2.2 -7.8 2.2 -7.9 2.2 -7.95 2.2 -8.05 2.3 -8.05 2.3 -8.0 M2.5 -7.6 L2.5 -7.5 2.55 -7.45 2.55 -7.4 2.55 -7.35 2.55 -7.35 2.55 -7.3 2.5 -7.3 2.45 -7.3 2.4 -7.3 2.4 -7.35 2.35 -7.4 2.35 -7.4 2.35 -7.4 2.3 -7.45 2.3 -7.5 2.3 -7.5 2.25 -7.6 2.3 -7.65 2.3 -7.65 2.35 -7.65 2.4 -7.6 2.35 -7.65 2.35 -7.7 2.4 -7.75 2.4 -7.7 2.45 -7.65 2.45 -7.65 2.5 -7.6 M2.05 -7.85 L2.1 -7.75 2.15 -7.65 2.15 -7.6 2.2 -7.55 2.2 -7.45 2.2 -7.45 2.15 -7.45 Q2.15 -7.45 2.1 -7.45 L2.1 -7.5 Q2.05 -7.55 2.05 -7.6 L2.0 -7.6 2.0 -7.65 1.95 -7.65 1.95 -7.75 1.9 -7.75 1.85 -7.75 1.85 -7.8 1.8 -7.85 1.8 -7.9 1.8 -8.0 1.85 -8.05 1.85 -8.05 1.9 -8.0 1.95 -8.0 1.95 -8.0 2.0 -7.95 2.0 -7.95 2.05 -7.9 2.05 -7.85 M2.1 -7.95 L2.1 -8.0 Q2.1 -8.05 2.1 -8.05 L2.2 -7.9 2.2 -7.9 2.2 -7.85 2.2 -7.8 2.15 -7.8 2.15 -7.8 2.1 -7.8 2.1 -7.85 2.1 -7.95 M1.25 -8.95 L1.25 -8.95 1.3 -8.95 1.35 -8.95 1.4 -8.95 1.45 -8.9 1.45 -8.9 1.45 -8.8 1.4 -8.8 1.35 -8.8 1.35 -8.8 1.3 -8.85 1.25 -8.9 1.2 -8.9 1.25 -8.95 M1.55 -9.0 L1.6 -9.0 1.6 -9.0 1.65 -8.95 1.65 -8.95 1.6 -8.9 1.55 -8.9 1.55 -9.0 1.55 -9.0 M1.45 -8.8 L1.5 -8.8 1.55 -8.7 1.6 -8.7 Q1.6 -8.65 1.6 -8.65 L1.65 -8.65 1.7 -8.6 1.65 -8.6 1.65 -8.5 1.6 -8.5 1.55 -8.5 Q1.5 -8.55 1.5 -8.6 L1.5 -8.65 1.45 -8.7 1.45 -8.7 1.45 -8.8 M1.7 -8.85 L1.75 -8.85 1.75 -8.8 1.8 -8.8 1.85 -8.75 1.85 -8.65 1.85 -8.65 1.8 -8.6 1.8 -8.6 1.75 -8.65 1.75 -8.65 1.7 -8.7 1.65 -8.75 1.6 -8.8 1.65 -8.85 1.65 -8.8 1.7 -8.75 1.7 -8.85 1.7 -8.85 M1.75 -8.5 L1.75 -8.5 1.8 -8.5 1.8 -8.45 1.85 -8.45 1.9 -8.4 1.9 -8.4 1.9 -8.3 1.9 -8.3 1.95 -8.3 1.95 -8.25 2.0 -8.2 2.0 -8.15 2.0 -8.1 1.95 -8.1 1.95 -8.05 1.9 -8.05 1.9 -8.05 1.85 -8.05 1.85 -8.1 1.8 -8.15 1.75 -8.15 1.75 -8.2 1.7 -8.25 1.7 -8.3 1.65 -8.35 1.65 -8.4 1.65 -8.45 1.65 -8.5 1.65 -8.55 1.75 -8.5 M1.55 -8.45 L1.55 -8.4 1.6 -8.4 1.6 -8.25 1.65 -8.25 1.65 -8.2 1.7 -8.1 1.7 -8.1 1.65 -8.1 1.6 -8.1 1.55 -8.1 1.55 -8.15 1.55 -8.2 1.45 -8.25 1.45 -8.3 1.4 -8.3 1.4 -8.35 1.35 -8.4 1.35 -8.4 1.4 -8.4 1.45 -8.45 1.45 -8.45 1.5 -8.5 1.5 -8.5 1.55 -8.45 M1.45 -8.5 L1.4 -8.5 1.4 -8.5 1.35 -8.5 1.35 -8.5 1.3 -8.5 1.25 -8.5 1.2 -8.55 1.2 -8.6 1.25 -8.65 1.3 -8.65 1.35 -8.65 1.4 -8.6 1.4 -8.6 1.45 -8.55 1.45 -8.55 1.45 -8.5 M-0.85 -9.05 L-0.8 -9.05 -0.8 -9.05 -0.8 -9.0 -0.75 -9.0 -0.75 -8.95 -0.75 -8.9 -0.8 -8.9 -0.8 -8.9 -0.85 -8.9 -0.85 -8.9 -0.9 -8.95 -0.85 -8.95 -0.85 -8.95 -0.85 -8.95 -0.8 -9.0 -0.8 -9.05 -0.85 -9.05" fill="#9e6425" fill-rule="evenodd" stroke="none"/>
    <path d="M1.65 -9.05 L1.65 -9.1 1.7 -9.05 1.75 -9.0 1.75 -9.05 1.8 -9.0 1.8 -8.95 1.75 -8.9 1.8 -8.85 1.85 -8.8 1.95 -8.75 1.9 -8.75 1.85 -8.75 1.85 -8.8 1.8 -8.8 1.8 -8.85 1.75 -8.85 1.75 -8.9 1.7 -8.9 1.7 -8.9 1.7 -8.95 1.65 -9.05 1.65 -9.05" fill="#603210" fill-rule="evenodd" stroke="none"/>
    <path d="M-0.35 -9.5 L-0.35 -9.5 -0.3 -9.5 -0.25 -9.5 -0.25 -9.55 -0.2 -9.55 -0.15 -9.55 -0.1 -9.6 -0.05 -9.6 0.0 -9.6 0.0 -9.6 0.05 -9.6 0.15 -9.6 0.2 -9.55 0.25 -9.55 0.25 -9.5 0.25 -9.5 0.2 -9.5 0.2 -9.5 0.15 -9.5 0.15 -9.5 0.15 -9.5 0.1 -9.5 0.15 -9.45 0.15 -9.45 0.15 -9.4 0.1 -9.4 0.1 -9.4 0.05 -9.4 0.05 -9.35 0.05 -9.4 0.05 -9.45 0.05 -9.45 0.05 -9.45 0.1 -9.5 0.1 -9.5 0.05 -9.5 0.0 -9.5 0.0 -9.5 -0.05 -9.5 0.0 -9.5 0.0 -9.45 0.0 -9.45 -0.05 -9.45 -0.05 -9.45 -0.1 -9.45 -0.1 -9.45 -0.15 -9.45 -0.15 -9.45 -0.2 -9.45 -0.2 -9.45 -0.2 -9.45 -0.25 -9.45 -0.25 -9.45 -0.3 -9.45 -0.35 -9.5 M0.1 -9.5 L0.1 -9.5 0.1 -9.5" fill="#fff4da" fill-rule="evenodd" stroke="none"/>
    <path d="M0.35 -9.3 L0.4 -9.25 0.35 -9.25 0.3 -9.2 0.3 -9.25 0.3 -9.25 0.25 -9.3 0.3 -9.3 0.3 -9.25 0.35 -9.25 0.35 -9.3 M0.2 -9.35 L0.2 -9.3 0.25 -9.3 0.2 -9.3 0.2 -9.3 0.15 -9.3 0.15 -9.35 0.2 -9.35 M0.25 -9.25 L0.25 -9.25 0.3 -9.25 0.3 -9.2 0.3 -9.15 0.25 -9.2 0.25 -9.2 0.15 -9.2 0.1 -9.2 0.1 -9.2 0.1 -9.25 0.15 -9.25 0.15 -9.25 0.2 -9.25 0.25 -9.25 0.25 -9.25 M0.3 -9.35 L0.3 -9.35 0.3 -9.3 0.3 -9.35 M0.3 -9.15 L0.3 -9.15" fill="#8b4f1b" fill-rule="evenodd" stroke="none"/>
    <path d="M0.25 -9.5 L0.3 -9.5 0.35 -9.4 0.35 -9.3 0.35 -9.25 0.3 -9.25 0.3 -9.3 0.25 -9.3 0.3 -9.25 0.3 -9.25 0.25 -9.25 0.25 -9.25 0.25 -9.25 0.25 -9.25 0.2 -9.25 0.2 -9.25 0.15 -9.25 0.15 -9.25 0.15 -9.3 0.2 -9.3 0.2 -9.3 0.25 -9.3 0.2 -9.3 0.2 -9.35 0.15 -9.35 0.15 -9.35 0.15 -9.4 0.15 -9.45 0.2 -9.45 0.2 -9.45 0.25 -9.45 0.25 -9.45 0.25 -9.45 0.2 -9.5 0.2 -9.5 0.15 -9.45 0.15 -9.5 0.1 -9.5 0.15 -9.5 0.15 -9.5 0.15 -9.5 0.2 -9.5 0.2 -9.5 0.25 -9.5 0.25 -9.5 M0.3 -9.25 L0.3 -9.25 M0.1 -9.5 L0.1 -9.5 M0.25 -9.4 L0.25 -9.35 0.2 -9.35 0.2 -9.35 0.25 -9.35 0.25 -9.35 0.25 -9.4 M0.3 -9.35 L0.3 -9.3 0.3 -9.35 0.3 -9.35" fill="#caad67" fill-rule="evenodd" stroke="none"/>
    <path d="M0.4 -9.25 L0.4 -9.1 0.4 -9.05 0.45 -9.0 0.4 -9.0 0.35 -9.0 0.35 -8.95 0.35 -8.95 0.3 -9.0 0.3 -9.0 0.35 -9.0 0.35 -9.05 0.3 -9.05 0.3 -9.1 0.3 -9.15 0.3 -9.2 0.3 -9.25 0.3 -9.25 0.3 -9.2 0.35 -9.25 0.4 -9.25 M0.15 -9.2 L0.25 -9.2 0.25 -9.2 0.3 -9.15 0.25 -9.15 0.25 -9.15 0.25 -9.15 0.2 -9.2 0.2 -9.15 0.15 -9.2 0.15 -9.2 M0.05 -9.15 L0.05 -9.15 0.05 -9.15 0.0 -9.1 0.05 -9.1 0.0 -9.1 -0.05 -9.1 -0.05 -9.1 0.0 -9.15 0.0 -9.15 0.0 -9.15 0.05 -9.15 0.0 -9.15 0.0 -9.2 0.05 -9.2 0.05 -9.2 0.05 -9.15 M0.3 -9.05 L0.35 -9.05 0.3 -9.05 M0.15 -9.15 L0.2 -9.15 0.15 -9.15" fill="#e9ceb0" fill-rule="evenodd" stroke="none"/>
    <path d="M0.1 -9.5 L0.15 -9.5 0.15 -9.45 0.2 -9.5 0.2 -9.5 0.25 -9.45 0.25 -9.45 0.25 -9.45 0.2 -9.45 0.2 -9.45 0.15 -9.45 0.15 -9.45 0.1 -9.5 0.1 -9.5" fill="#ad7b3e" fill-rule="evenodd" stroke="none"/>
    <path d="M-0.2 -9.25 L-0.15 -9.3 -0.2 -9.35 -0.25 -9.35 -0.25 -9.35 -0.25 -9.35 -0.2 -9.35 -0.2 -9.4 -0.15 -9.4 -0.1 -9.35 -0.1 -9.4 -0.1 -9.4 -0.05 -9.4 -0.1 -9.4 -0.15 -9.4 -0.15 -9.4 -0.2 -9.4 -0.2 -9.4 -0.2 -9.45 -0.25 -9.45 -0.25 -9.4 -0.3 -9.35 -0.3 -9.35 -0.35 -9.35 -0.35 -9.4 -0.35 -9.4 -0.3 -9.45 -0.25 -9.45 -0.25 -9.45 -0.2 -9.45 -0.2 -9.45 -0.2 -9.45 -0.15 -9.45 -0.15 -9.45 -0.1 -9.45 -0.1 -9.45 -0.05 -9.45 -0.05 -9.45 0.0 -9.45 -0.05 -9.4 -0.05 -9.4 0.0 -9.4 0.0 -9.4 0.05 -9.35 0.05 -9.35 Q0.05 -9.3 0.1 -9.3 L0.15 -9.35 0.15 -9.35 0.1 -9.35 0.1 -9.35 0.05 -9.35 0.05 -9.4 0.1 -9.4 0.1 -9.4 0.15 -9.4 0.15 -9.35 0.15 -9.35 0.2 -9.35 0.15 -9.35 0.15 -9.3 0.15 -9.25 0.15 -9.25 0.2 -9.25 0.2 -9.25 0.25 -9.25 0.25 -9.25 0.25 -9.25 0.25 -9.25 0.2 -9.25 0.15 -9.25 0.15 -9.25 0.1 -9.25 0.1 -9.2 0.1 -9.2 0.1 -9.15 0.1 -9.15 0.15 -9.15 0.15 -9.15 0.15 -9.1 0.1 -9.15 0.1 -9.15 0.05 -9.15 0.05 -9.2 0.05 -9.2 0.0 -9.2 0.0 -9.15 0.05 -9.15 0.0 -9.15 0.0 -9.15 0.0 -9.15 -0.05 -9.15 -0.05 -9.15 -0.1 -9.15 -0.1 -9.15 Q-0.1 -9.1 -0.1 -9.1 L-0.1 -9.1 -0.15 -9.15 -0.15 -9.15 -0.1 -9.2 -0.1 -9.2 -0.05 -9.25 -0.05 -9.3 -0.1 -9.25 -0.1 -9.3 Q-0.1 -9.35 -0.1 -9.35 L-0.15 -9.3 -0.15 -9.3 -0.2 -9.25 M0.2 -9.15 L0.15 -9.15 0.2 -9.15 0.2 -9.15 M-0.05 -9.35 L-0.05 -9.35 -0.05 -9.3 -0.05 -9.3 Q-0.05 -9.3 -0.05 -9.35 L-0.05 -9.35" fill="#a7702f" fill-rule="evenodd" stroke="none"/>
    <path d="M0.25 -9.4 L0.25 -9.35 0.25 -9.35 0.2 -9.35 0.2 -9.35 0.25 -9.35 0.25 -9.4" fill="#ad7132" fill-rule="evenodd" stroke="none"/>
    <path d="M0.0 -9.45 L0.0 -9.45 0.0 -9.5 -0.05 -9.5 0.0 -9.5 0.0 -9.5 0.05 -9.5 0.1 -9.5 0.05 -9.5 0.05 -9.5 0.05 -9.45 0.05 -9.45 0.05 -9.45 0.05 -9.4 0.05 -9.35 0.1 -9.35 0.1 -9.35 0.15 -9.35 0.15 -9.35 0.1 -9.3 Q0.05 -9.3 0.05 -9.35 L0.05 -9.35 0.0 -9.4 0.0 -9.4 -0.05 -9.4 -0.05 -9.4 0.0 -9.45" fill="#b9a584" fill-rule="evenodd" stroke="none"/>
    <path d="M0.1 -9.5 L0.1 -9.5 0.1 -9.5 0.1 -9.5 0.1 -9.5 0.1 -9.5 0.05 -9.45 0.05 -9.45 0.05 -9.45 0.05 -9.5 0.05 -9.5 0.1 -9.5" fill="#74471e" fill-rule="evenodd" stroke="none"/>
    <path d="M0.1 -9.2 L0.1 -9.2 0.15 -9.2 0.15 -9.2 0.2 -9.15 0.15 -9.15 0.15 -9.15 0.1 -9.15 0.1 -9.15 0.1 -9.2 0.1 -9.2 M0.3 -9.15 L0.3 -9.15 0.3 -9.1 0.3 -9.05 0.3 -9.1 0.25 -9.1 0.25 -9.1 0.25 -9.05 0.2 -9.05 0.2 -9.05 0.15 -9.1 0.15 -9.1 0.1 -9.1 0.1 -9.05 0.05 -9.1 0.05 -9.1 0.0 -9.1 0.05 -9.15 0.05 -9.15 0.05 -9.15 0.1 -9.15 0.1 -9.15 0.15 -9.1 0.15 -9.15 0.2 -9.15 0.2 -9.15 0.25 -9.15 0.25 -9.15 0.25 -9.15 0.3 -9.15 M0.05 -9.0 L0.1 -9.0 0.15 -9.0 0.15 -9.0 0.2 -9.0 0.2 -8.95 0.15 -8.95 0.15 -8.95 0.1 -8.95 0.1 -8.95 0.05 -8.95 0.05 -8.95 0.0 -8.95 0.0 -8.95 0.0 -8.95 -0.05 -8.95 -0.05 -8.95 -0.1 -8.95 -0.1 -9.0 -0.1 -9.0 -0.05 -9.05 -0.05 -9.05 0.0 -9.05 0.05 -9.0" fill="#faf6ea" fill-rule="evenodd" stroke="none"/>
    <path d="M0.25 -9.15 L0.2 -9.15 0.2 -9.15 0.2 -9.2 0.25 -9.15 M0.2 -9.15 L0.2 -9.15" fill="#794410" fill-rule="evenodd" stroke="none"/>
    <path d="M0.05 -9.1 L0.05 -9.1 0.1 -9.05 0.1 -9.1 0.15 -9.1 0.15 -9.1 0.2 -9.05 0.2 -9.05 0.25 -9.05 0.25 -9.1 0.25 -9.1 0.3 -9.1 0.3 -9.05 0.3 -9.05 0.3 -9.05 0.25 -9.0 0.3 -9.0 0.3 -9.0 0.3 -9.0 0.25 -9.0 0.25 -8.95 0.25 -8.95 0.2 -8.95 0.2 -8.95 0.2 -8.9 0.25 -8.85 0.2 -8.85 0.2 -8.85 0.15 -8.9 0.15 -8.9 0.15 -8.9 0.1 -8.95 0.05 -8.95 0.05 -8.95 0.0 -8.95 0.0 -8.95 -0.05 -8.9 -0.05 -8.9 -0.05 -8.9 -0.1 -8.9 -0.1 -8.9 -0.1 -8.95 -0.1 -9.0 -0.1 -9.0 -0.15 -9.05 -0.15 -9.0 -0.2 -9.0 -0.2 -9.0 -0.25 -8.95 -0.25 -8.95 -0.25 -8.9 -0.25 -8.9 -0.3 -8.9 -0.3 -8.9 -0.3 -8.85 -0.3 -8.85 -0.25 -8.85 -0.25 -8.85 -0.25 -8.8 -0.25 -8.75 -0.2 -8.75 -0.2 -8.8 -0.2 -8.8 -0.15 -8.8 -0.15 -8.8 -0.1 -8.8 -0.1 -8.8 -0.15 -8.75 -0.2 -8.7 -0.2 -8.7 -0.2 -8.7 -0.25 -8.7 -0.25 -8.75 -0.3 -8.75 -0.3 -8.8 Q-0.4 -8.8 -0.4 -8.85 L-0.4 -8.85 -0.35 -8.85 -0.4 -8.9 -0.4 -8.9 -0.4 -8.95 -0.35 -8.95 -0.35 -9.0 -0.35 -9.0 -0.3 -9.0 -0.3 -9.05 -0.25 -9.05 -0.25 -9.05 -0.25 -9.1 -0.2 -9.1 -0.2 -9.1 -0.2 -9.15 -0.15 -9.15 -0.15 -9.15 -0.1 -9.1 -0.1 -9.1 Q-0.1 -9.1 -0.1 -9.15 L-0.1 -9.15 -0.05 -9.15 -0.05 -9.15 0.0 -9.15 0.0 -9.15 0.0 -9.15 -0.05 -9.1 -0.05 -9.1 0.0 -9.1 0.05 -9.1 M0.1 -9.05 L0.1 -9.05 0.15 -9.0 0.15 -9.05 0.15 -9.1 0.1 -9.05 0.1 -9.05 M0.05 -9.0 L0.0 -9.05 -0.05 -9.05 -0.05 -9.05 -0.1 -9.0 -0.1 -9.0 -0.1 -8.95 -0.05 -8.95 -0.05 -8.95 0.0 -8.95 0.0 -8.95 0.0 -8.95 0.05 -8.95 0.05 -8.95 0.1 -8.95 0.1 -8.95 0.15 -8.95 0.15 -8.95 0.2 -8.95 0.2 -9.0 0.15 -9.0 0.15 -9.0 0.1 -9.0 0.05 -9.0 M0.2 -9.0 L0.2 -9.0 0.25 -9.0 0.25 -9.05 0.2 -9.05 0.2 -9.0 M0.25 -8.85 L0.25 -8.85 M-0.15 -9.05 L-0.15 -9.05 -0.1 -9.05 -0.1 -9.05 -0.05 -9.05 -0.05 -9.05 -0.1 -9.05 -0.1 -9.05 -0.15 -9.05 M-0.15 -8.75 L-0.15 -8.75 -0.15 -8.75" fill="#c09b67" fill-rule="evenodd" stroke="none"/>
    <path d="M0.3 -9.1 L0.3 -9.05 0.35 -9.05 0.3 -9.05 0.3 -9.05 0.3 -9.1 M0.3 -9.05 L0.3 -9.05 0.3 -9.05" fill="#a86c38" fill-rule="evenodd" stroke="none"/>
    <path d="M0.1 -9.05 L0.1 -9.05 0.15 -9.1 0.15 -9.05 0.15 -9.0 0.1 -9.05 0.1 -9.05 M0.2 -9.0 L0.2 -9.05 0.25 -9.05 0.25 -9.0 0.2 -9.0 0.2 -9.0" fill="#874f14" fill-rule="evenodd" stroke="none"/>
    <path d="M0.45 -9.0 L0.45 -9.0 0.5 -8.95 0.5 -8.9 0.45 -8.9 0.45 -8.9 0.4 -8.9 0.4 -8.9 0.35 -8.9 0.3 -8.9 0.3 -8.9 0.3 -8.85 0.3 -8.85 0.25 -8.85 0.25 -8.85 0.2 -8.9 0.2 -8.95 0.2 -8.95 0.25 -8.95 0.25 -8.95 0.25 -8.95 0.3 -8.95 0.3 -8.95 0.35 -8.95 0.35 -9.0 0.4 -9.0 0.45 -9.0 M0.35 -8.9 L0.35 -8.9" fill="#f8f8e0" fill-rule="evenodd" stroke="none"/>
    <path d="M0.3 -9.05 L0.3 -9.05 0.3 -9.05 0.35 -9.05 0.35 -9.0 0.3 -9.0 0.3 -9.0 0.3 -9.0 0.25 -9.0 0.3 -9.05 0.3 -9.05 M0.3 -9.0 L0.3 -9.0" fill="#fef9db" fill-rule="evenodd" stroke="none"/>
    <path d="M0.3 -9.0 L0.35 -8.95 0.35 -8.95 0.3 -8.95 0.3 -8.95 0.25 -8.95 0.25 -8.95 0.25 -9.0 0.3 -9.0 0.3 -9.0 0.3 -9.0" fill="#a2732b" fill-rule="evenodd" stroke="none"/>
    <path d="M0.2 -8.8 L0.2 -8.8 0.15 -8.85 0.15 -8.85 0.2 -8.85 0.2 -8.85 0.25 -8.85 0.25 -8.85 0.25 -8.8 0.25 -8.8 0.2 -8.8 0.2 -8.8 M0.15 -8.9 L0.15 -8.9 0.1 -8.9 0.1 -8.85 0.05 -8.9 0.05 -8.95 0.05 -8.95 0.1 -8.95 0.15 -8.9 0.15 -8.9 M0.1 -8.85 L0.1 -8.8 0.1 -8.8 0.0 -8.85 0.0 -8.85 -0.05 -8.85 -0.1 -8.85 -0.15 -8.85 -0.15 -8.85 -0.2 -8.85 -0.15 -8.9 -0.15 -8.9 -0.2 -8.95 -0.2 -8.95 -0.25 -8.95 -0.25 -8.95 -0.2 -9.0 -0.2 -9.0 -0.15 -9.0 -0.15 -9.05 -0.1 -9.0 -0.1 -9.0 -0.1 -8.95 -0.1 -8.9 -0.1 -8.9 -0.05 -8.9 -0.05 -8.9 0.0 -8.9 0.0 -8.9 0.05 -8.85 0.05 -8.85 0.1 -8.85 M0.25 -8.8 L0.25 -8.8" fill="#fff4de" fill-rule="evenodd" stroke="none"/>
    <path d="M0.05 -8.95 L0.05 -8.9 0.05 -8.9 0.05 -8.85 0.05 -8.85 0.0 -8.9 0.0 -8.9 -0.05 -8.9 -0.05 -8.9 0.0 -8.95 0.0 -8.95 0.05 -8.95" fill="#804f26" fill-rule="evenodd" stroke="none"/>
    <path d="M0.2 -8.85 L0.15 -8.85 0.15 -8.85 0.2 -8.8 0.2 -8.8 0.15 -8.8 0.15 -8.8 0.1 -8.8 0.1 -8.8 0.1 -8.85 0.1 -8.85 0.1 -8.9 0.15 -8.9 0.15 -8.9 0.15 -8.9 0.2 -8.85 M0.1 -8.8 L0.1 -8.8 0.1 -8.8 M0.2 -8.8 L0.2 -8.8" fill="#a6743f" fill-rule="evenodd" stroke="none"/>
    <path d="M-0.1 -8.8 L-0.1 -8.8 -0.05 -8.8 0.0 -8.8 0.0 -8.8 0.0 -8.8 0.05 -8.8 0.05 -8.75 0.0 -8.75 0.0 -8.7 -0.05 -8.7 -0.05 -8.75 -0.05 -8.7 -0.1 -8.7 -0.1 -8.7 -0.1 -8.7 -0.15 -8.75 -0.1 -8.8" fill="#fff2db" fill-rule="evenodd" stroke="none"/>
    <path d="M0.1 -8.8 L0.1 -8.8 0.1 -8.8 0.1 -8.8 0.1 -8.75 0.1 -8.7 0.15 -8.7 0.15 -8.7 0.2 -8.7 0.2 -8.7 0.2 -8.7 0.25 -8.7 0.25 -8.7 0.3 -8.7 0.3 -8.65 0.3 -8.65 0.25 -8.65 0.25 -8.65 0.2 -8.65 0.15 -8.7 0.15 -8.7 0.2 -8.65 0.15 -8.65 0.15 -8.6 0.2 -8.6 0.2 -8.6 0.2 -8.55 0.15 -8.55 0.1 -8.55 0.1 -8.55 0.05 -8.5 0.05 -8.5 0.0 -8.55 -0.05 -8.55 -0.05 -8.6 0.0 -8.6 0.0 -8.6 0.0 -8.6 0.0 -8.55 0.05 -8.55 0.05 -8.55 0.1 -8.6 0.1 -8.6 0.15 -8.6 0.1 -8.6 0.1 -8.65 0.1 -8.65 0.15 -8.65 0.15 -8.65 0.1 -8.7 0.1 -8.7 0.05 -8.75 0.05 -8.8 0.0 -8.8 0.0 -8.8 0.0 -8.8 -0.05 -8.8 -0.1 -8.8 -0.1 -8.8 -0.1 -8.8 -0.15 -8.8 -0.15 -8.8 -0.2 -8.8 -0.2 -8.8 -0.2 -8.85 -0.15 -8.85 -0.15 -8.85 -0.1 -8.85 -0.05 -8.85 0.0 -8.85 0.0 -8.85 0.1 -8.8 M0.2 -8.5 L0.2 -8.55 0.2 -8.5 M0.3 -8.65 L0.3 -8.65" fill="#7a4b17" fill-rule="evenodd" stroke="none"/>
    <path d="M0.05 -8.8 L0.05 -8.75 0.1 -8.7 0.1 -8.7 0.15 -8.65 0.15 -8.65 0.1 -8.65 0.1 -8.65 0.1 -8.6 0.05 -8.6 0.05 -8.6 0.05 -8.65 0.0 -8.65 0.0 -8.65 0.0 -8.65 0.0 -8.7 -0.05 -8.7 0.0 -8.7 0.0 -8.75 0.05 -8.75 0.05 -8.8" fill="#f5eccd" fill-rule="evenodd" stroke="none"/>
    <path d="M0.1 -8.8 L0.1 -8.8 0.15 -8.8 0.15 -8.8 0.2 -8.8 0.2 -8.8 0.25 -8.75 0.25 -8.8 0.3 -8.8 0.3 -8.8 0.3 -8.85 0.3 -8.85 0.3 -8.85 0.4 -8.85 0.45 -8.85 0.45 -8.85 0.45 -8.8 0.45 -8.8 0.4 -8.8 0.4 -8.8 0.35 -8.8 0.35 -8.8 0.3 -8.8 0.3 -8.75 0.35 -8.75 0.35 -8.75 0.35 -8.8 0.35 -8.8 0.4 -8.8 0.4 -8.75 0.45 -8.75 0.45 -8.7 0.45 -8.7 0.45 -8.65 0.4 -8.7 0.4 -8.7 0.35 -8.7 0.35 -8.7 0.3 -8.65 0.3 -8.7 0.25 -8.7 0.25 -8.7 0.2 -8.7 0.2 -8.7 0.2 -8.7 0.15 -8.7 0.15 -8.7 0.1 -8.7 0.1 -8.75 0.1 -8.8" fill="#faf1d4" fill-rule="evenodd" stroke="none"/>
    <path d="M0.25 -8.85 L0.25 -8.85 0.3 -8.85 0.3 -8.85 0.3 -8.85 0.3 -8.85 0.3 -8.8 0.35 -8.8 0.3 -8.8 0.3 -8.8 0.25 -8.8 0.25 -8.75 0.2 -8.8 0.2 -8.8 0.2 -8.8 0.2 -8.8 0.25 -8.8 0.25 -8.8 0.25 -8.85 0.25 -8.85 0.25 -8.85 M0.3 -8.9 L0.3 -8.85 0.3 -8.9 M0.25 -8.8 L0.25 -8.8 0.3 -8.8 0.25 -8.8" fill="#865920" fill-rule="evenodd" stroke="none"/>
    <path d="M0.3 -8.85 L0.3 -8.9 0.3 -8.9 0.35 -8.9 0.3 -8.9 0.3 -8.9 0.3 -8.85" fill="#e0cc99" fill-rule="evenodd" stroke="none"/>
    <path d="M0.35 -8.9 L0.35 -8.9 0.4 -8.85 0.3 -8.85 0.3 -8.9 0.3 -8.9 0.35 -8.9 M0.35 -8.8 L0.35 -8.8 0.35 -8.75 0.35 -8.75 0.3 -8.75 0.3 -8.8 0.35 -8.8" fill="#7f4d12" fill-rule="evenodd" stroke="none"/>
    <path d="M0.35 -8.9 L0.4 -8.9 0.4 -8.9 0.45 -8.9 0.45 -8.9 0.45 -8.9 0.5 -8.9 0.5 -8.85 0.5 -8.85 0.5 -8.75 0.55 -8.75 0.55 -8.75 0.5 -8.75 0.5 -8.75 0.5 -8.7 0.55 -8.65 0.55 -8.6 0.5 -8.6 0.5 -8.6 0.45 -8.55 0.45 -8.55 0.45 -8.6 0.4 -8.6 0.4 -8.6 0.4 -8.65 0.35 -8.65 0.3 -8.65 0.3 -8.6 0.3 -8.55 0.3 -8.55 0.25 -8.5 0.25 -8.55 0.25 -8.55 0.2 -8.55 0.2 -8.6 0.2 -8.6 0.25 -8.55 0.25 -8.55 0.3 -8.6 0.3 -8.65 0.3 -8.65 0.35 -8.7 0.35 -8.7 0.4 -8.7 0.4 -8.7 0.45 -8.65 0.45 -8.7 0.45 -8.7 0.45 -8.75 0.4 -8.75 0.4 -8.8 0.35 -8.8 0.35 -8.8 0.4 -8.8 0.4 -8.8 0.45 -8.8 0.45 -8.8 0.45 -8.85 0.45 -8.85 0.4 -8.85 0.35 -8.9" fill="#e6cfa5" fill-rule="evenodd" stroke="none"/>
    <path d="M0.55 -8.75 L0.55 -8.75 0.5 -8.75 0.5 -8.85 0.55 -8.85 0.55 -8.85 0.6 -8.8 0.6 -8.85 0.65 -8.8 0.65 -8.75 0.6 -8.7 0.6 -8.7 0.55 -8.7 0.55 -8.7 0.55 -8.75" fill="#a36e2c" fill-rule="evenodd" stroke="none"/>
    <path d="M0.95 -8.45 L1.0 -8.45 1.0 -8.4 1.05 -8.4 1.1 -8.35 1.1 -8.3 1.1 -8.25 1.1 -8.2 1.05 -8.15 1.05 -8.15 1.0 -8.15 1.0 -8.15 0.95 -8.15 0.9 -8.2 0.9 -8.25 0.85 -8.25 0.85 -8.3 0.85 -8.4 0.9 -8.45 0.9 -8.45 0.95 -8.45 0.95 -8.45 M0.6 -8.25 L0.6 -8.3 0.65 -8.3 0.65 -8.35 0.7 -8.4 0.75 -8.35 0.75 -8.35 0.75 -8.3 0.8 -8.3 0.8 -8.3 0.85 -8.25 0.85 -8.15 0.85 -8.1 0.75 -8.1 0.75 -8.1 0.7 -8.1 0.7 -8.15 0.65 -8.15 0.65 -8.2 0.65 -8.25 0.6 -8.25 M1.25 -8.4 L1.3 -8.4 1.3 -8.4 1.35 -8.35 Q1.35 -8.3 1.25 -8.3 L1.3 -8.3 1.3 -8.25 1.35 -8.25 1.4 -8.25 1.4 -8.15 1.35 -8.1 1.35 -8.15 1.3 -8.15 1.3 -8.15 1.25 -8.15 1.25 -8.2 1.2 -8.2 1.2 -8.2 1.15 -8.25 1.15 -8.3 1.1 -8.35 1.1 -8.35 1.05 -8.4 1.05 -8.45 1.05 -8.5 1.15 -8.55 1.15 -8.55 1.2 -8.5 1.2 -8.5 1.25 -8.45 1.25 -8.4 M-0.2 -7.9 L-0.2 -7.85 -0.2 -7.8 -0.25 -7.8 -0.25 -7.75 -0.25 -7.7 -0.3 -7.7 -0.3 -7.7 -0.35 -7.7 -0.35 -7.75 -0.4 -7.75 -0.45 -7.75 -0.45 -7.75 -0.45 -7.75 -0.4 -7.75 -0.4 -7.75 -0.45 -7.8 -0.45 -7.9 -0.4 -7.9 -0.4 -7.9 -0.4 -7.9 -0.35 -7.9 -0.35 -7.9 -0.35 -7.95 -0.35 -7.95 -0.3 -7.95 -0.3 -7.9 -0.3 -7.9 -0.35 -7.9 -0.35 -7.85 -0.35 -7.8 -0.35 -7.85 -0.3 -7.85 -0.3 -7.9 -0.25 -7.9 -0.25 -7.85 -0.25 -7.9 -0.25 -7.9 -0.2 -7.9" fill="#a26b2a" fill-rule="evenodd" stroke="none"/>
    <path d="M0.55 -8.65 L0.5 -8.7 0.5 -8.75 0.5 -8.75 0.55 -8.75 0.55 -8.7 0.6 -8.65 0.65 -8.65 0.65 -8.65 0.7 -8.6 0.7 -8.55 0.65 -8.55 0.7 -8.5 0.7 -8.5 0.7 -8.45 0.65 -8.45 0.65 -8.5 0.6 -8.5 0.6 -8.55 0.65 -8.55 0.65 -8.6 0.6 -8.65 0.6 -8.65 0.55 -8.6 0.55 -8.65 0.55 -8.65 M0.65 -8.45 L0.65 -8.45" fill="#441f05" fill-rule="evenodd" stroke="none"/>
    <path d="M0.65 -8.15 L0.65 -8.15 0.65 -8.1 0.65 -8.0 0.6 -8.0 0.55 -8.0 0.55 -8.05 0.55 -8.1 0.55 -8.15 0.6 -8.15 0.6 -8.2 0.55 -8.2 0.5 -8.15 0.45 -8.15 0.45 -8.15 0.5 -8.2 0.5 -8.25 0.55 -8.3 0.55 -8.3 0.6 -8.3 0.6 -8.25 0.6 -8.25 0.65 -8.2 0.65 -8.2 0.65 -8.15 M0.65 -7.95 L0.65 -7.9 0.65 -7.85 0.7 -7.85 0.7 -7.8 0.75 -7.8 0.75 -7.75 0.7 -7.75 0.65 -7.7 0.65 -7.7 0.6 -7.75 0.6 -7.8 0.55 -7.85 0.55 -7.9 0.55 -7.95 0.6 -7.95 0.65 -8.0 0.65 -7.95" fill="#9c642b" fill-rule="evenodd" stroke="none"/>
    <path d="M0.8 -8.1 L0.8 -8.05 0.85 -8.05 0.85 -7.95 0.9 -7.95 0.9 -7.9 0.95 -7.8 0.9 -7.75 0.9 -7.75 0.8 -7.75 Q0.8 -7.75 0.75 -7.8 L0.75 -7.85 0.7 -7.9 0.7 -7.9 0.7 -7.95 0.7 -8.0 0.75 -8.05 0.8 -8.05 0.8 -8.1" fill="#aa712c" fill-rule="evenodd" stroke="none"/>
    <path d="M1.45 -7.7 L1.45 -7.7 1.4 -7.75 1.4 -7.75 1.35 -7.8 1.3 -7.8 1.25 -7.85 1.2 -7.9 1.2 -7.95 1.15 -8.1 1.15 -8.1 1.15 -8.15 1.2 -8.15 1.3 -8.1 1.3 -8.1 1.35 -8.1 1.35 -8.05 1.4 -8.0 1.4 -7.95 1.45 -7.9 1.45 -7.85 1.5 -7.8 1.45 -7.75 1.45 -7.7 M0.95 -8.1 L0.95 -8.15 1.0 -8.1 1.05 -8.1 1.05 -8.1 1.1 -8.05 1.1 -8.0 Q1.1 -7.95 1.15 -7.85 L1.15 -7.8 1.1 -7.8 1.1 -7.8 1.05 -7.85 1.0 -7.85 1.0 -7.85 0.95 -7.9 0.95 -8.0 0.9 -8.05 0.95 -8.1" fill="#a16526" fill-rule="evenodd" stroke="none"/>
    <path d="M0.3 -8.6 L0.3 -8.65 0.35 -8.65 0.4 -8.65 0.4 -8.6 0.4 -8.6 0.45 -8.6 0.4 -8.55 0.4 -8.55 0.35 -8.6 0.35 -8.6 0.3 -8.6" fill="#fceac4" fill-rule="evenodd" stroke="none"/>
    <path d="M0.4 -8.5 L0.4 -8.45 0.35 -8.5 0.35 -8.5 0.35 -8.55 0.3 -8.55 0.3 -8.55 0.3 -8.6 0.35 -8.6 0.35 -8.6 0.4 -8.55 0.4 -8.55 0.45 -8.55 0.45 -8.55 0.4 -8.5 0.4 -8.5" fill="#6e3d14" fill-rule="evenodd" stroke="none"/>
    <path d="M0.2 -8.6 L0.2 -8.6 0.15 -8.6 0.15 -8.65 0.2 -8.65 0.15 -8.7 0.15 -8.7 0.2 -8.65 0.25 -8.65 0.25 -8.65 0.3 -8.65 0.3 -8.65 0.3 -8.6 0.25 -8.55 0.25 -8.55 0.2 -8.6 0.2 -8.6 M0.35 -8.5 L0.35 -8.45 0.3 -8.45 0.3 -8.45 0.3 -8.45 0.25 -8.5 0.25 -8.5 0.3 -8.5 0.25 -8.5 0.3 -8.55 0.3 -8.55 0.3 -8.55 0.35 -8.55 0.35 -8.5 0.35 -8.5" fill="#fce8cf" fill-rule="evenodd" stroke="none"/>
    <path d="M0.45 -8.55 L0.5 -8.55 0.45 -8.5 0.45 -8.45 0.4 -8.5 0.4 -8.5 0.4 -8.5 0.45 -8.55 0.45 -8.55 0.4 -8.55 0.45 -8.6 0.4 -8.6 0.45 -8.6 0.45 -8.55 0.45 -8.55" fill="#d2a86e" fill-rule="evenodd" stroke="none"/>
    <path d="M0.45 -7.6 L0.45 -7.6 0.4 -7.6 0.35 -7.6 0.35 -7.55 0.35 -7.6 0.4 -7.65 0.4 -7.7 0.4 -7.75 0.4 -7.8 0.45 -7.8 0.45 -7.85 0.45 -7.9 0.4 -7.9 0.4 -7.9 0.4 -7.95 0.45 -7.95 0.45 -7.95 0.45 -8.0 0.45 -8.0 0.4 -8.0 0.4 -8.0 0.4 -8.05 0.35 -8.0 0.35 -8.05 0.35 -8.1 0.35 -8.15 0.35 -8.25 0.3 -8.25 0.3 -8.25 0.3 -8.3 0.35 -8.3 0.35 -8.3 Q0.3 -8.3 0.35 -8.25 L0.35 -8.25 0.4 -8.3 0.35 -8.3 0.35 -8.35 0.4 -8.35 0.45 -8.35 0.45 -8.4 Q0.4 -8.4 0.4 -8.4 L0.4 -8.45 0.45 -8.45 0.45 -8.4 0.5 -8.45 0.5 -8.4 0.55 -8.4 0.5 -8.35 0.5 -8.35 0.55 -8.35 0.55 -8.35 0.55 -8.35 0.5 -8.3 Q0.45 -8.3 0.45 -8.25 L0.45 -8.25 0.45 -8.15 0.45 -8.1 0.5 -8.05 0.5 -8.0 0.5 -7.95 0.5 -7.85 0.55 -7.8 0.55 -7.8 0.5 -7.8 0.5 -7.75 0.45 -7.75 0.45 -7.75 0.45 -7.7 0.45 -7.65 0.45 -7.6 M0.55 -8.35 L0.55 -8.35" fill="#26180f" fill-rule="evenodd" stroke="none"/>
    <path d="M-0.05 -8.55 L0.0 -8.55 0.05 -8.5 0.05 -8.5 0.1 -8.55 0.1 -8.55 0.15 -8.55 0.15 -8.5 0.15 -8.5 0.1 -8.45 0.1 -8.4 0.05 -8.4 0.1 -8.35 0.1 -8.35 0.05 -8.3 0.0 -8.3 0.0 -8.25 0.0 -8.2 -0.05 -8.2 -0.05 -8.15 -0.1 -8.15 -0.1 -8.15 -0.15 -8.2 -0.15 -8.25 -0.15 -8.3 -0.1 -8.3 -0.1 -8.3 -0.05 -8.3 0.0 -8.3 0.0 -8.35 -0.05 -8.4 -0.05 -8.4 -0.1 -8.35 -0.1 -8.35 Q-0.1 -8.35 -0.15 -8.4 L-0.2 -8.4 -0.15 -8.4 -0.1 -8.45 -0.05 -8.45 -0.05 -8.5 -0.05 -8.55 M-0.25 -8.25 L-0.25 -8.2 -0.3 -8.2 -0.3 -8.2 -0.3 -8.2 -0.3 -8.2 -0.35 -8.25 -0.35 -8.3 -0.35 -8.35 -0.3 -8.3 -0.3 -8.3 -0.25 -8.25 -0.25 -8.3 -0.25 -8.35 -0.25 -8.45 -0.25 -8.6 -0.3 -8.6 -0.3 -8.7 -0.3 -8.75 -0.3 -8.75 -0.25 -8.75 -0.25 -8.7 -0.2 -8.7 -0.2 -8.7 -0.2 -8.65 -0.2 -8.65 -0.15 -8.6 -0.2 -8.6 -0.2 -8.55 -0.15 -8.55 -0.15 -8.5 -0.15 -8.45 -0.15 -8.45 -0.2 -8.4 -0.2 -8.35 -0.2 -8.3 -0.2 -8.3 -0.25 -8.25 M0.1 -8.25 L0.1 -8.25 0.15 -8.2 0.1 -8.2 0.1 -8.15 0.05 -8.1 0.05 -8.1 0.0 -8.1 0.0 -8.1 -0.05 -8.1 0.0 -8.15 0.0 -8.2 0.0 -8.2 0.05 -8.2 0.05 -8.25 0.1 -8.25 M0.2 -8.0 L0.2 -7.95 0.15 -7.95 0.15 -7.95 0.15 -8.0 0.2 -8.05 0.2 -8.0 M0.25 -7.9 L0.3 -8.0 0.3 -8.0 0.3 -8.0 0.35 -7.95 0.3 -7.9 0.3 -7.9 0.25 -7.9 M-0.2 -8.05 L-0.2 -8.05 -0.15 -8.1 -0.15 -8.05 -0.1 -8.05 -0.1 -8.0 -0.15 -8.0 -0.15 -8.0 -0.2 -8.0 -0.2 -8.0 -0.25 -8.05 -0.25 -8.05 -0.2 -8.05 -0.2 -8.05" fill="#9d672b" fill-rule="evenodd" stroke="none"/>
    <path d="M0.1 -8.65 L0.1 -8.6 0.15 -8.6 0.1 -8.6 0.1 -8.6 0.05 -8.55 0.05 -8.55 0.0 -8.55 0.0 -8.6 0.0 -8.6 0.05 -8.6 0.05 -8.6 0.05 -8.6 0.1 -8.6 0.1 -8.65 M0.2 -8.5 L0.2 -8.55 0.25 -8.55 0.25 -8.55 0.25 -8.5 0.3 -8.5 0.25 -8.5 0.25 -8.5 0.25 -8.5 0.2 -8.5 0.2 -8.5" fill="#4c1f08" fill-rule="evenodd" stroke="none"/>
    <path d="M-0.1 -8.65 L-0.1 -8.65 -0.1 -8.7 -0.1 -8.7 -0.05 -8.7 -0.05 -8.75 -0.05 -8.7 0.0 -8.7 -0.05 -8.7 -0.05 -8.65 -0.1 -8.65 M-0.1 -8.7 L-0.1 -8.7" fill="#805a2b" fill-rule="evenodd" stroke="none"/>
    <path d="M0.0 -8.6 L0.0 -8.6 -0.05 -8.6 -0.05 -8.55 -0.05 -8.5 -0.05 -8.45 -0.1 -8.45 -0.15 -8.4 -0.2 -8.4 -0.15 -8.4 Q-0.1 -8.35 -0.1 -8.35 L-0.1 -8.35 -0.05 -8.4 -0.05 -8.4 0.0 -8.35 0.0 -8.3 -0.05 -8.3 -0.1 -8.3 -0.1 -8.3 -0.15 -8.3 -0.15 -8.25 -0.2 -8.3 -0.2 -8.3 -0.2 -8.3 -0.2 -8.35 -0.2 -8.4 -0.15 -8.45 -0.15 -8.45 -0.15 -8.5 -0.15 -8.55 -0.2 -8.55 -0.2 -8.6 -0.15 -8.6 -0.2 -8.65 -0.2 -8.65 -0.2 -8.7 -0.2 -8.7 -0.15 -8.75 -0.15 -8.7 -0.1 -8.7 -0.1 -8.65 -0.1 -8.65 -0.1 -8.65 -0.05 -8.6 -0.05 -8.65 0.0 -8.65 0.0 -8.65 0.0 -8.65 0.05 -8.65 0.05 -8.6 0.05 -8.6 0.0 -8.6" fill="#652f13" fill-rule="evenodd" stroke="none"/>
    <path d="M0.0 -8.65 L-0.05 -8.65 -0.05 -8.6 -0.1 -8.65 -0.1 -8.65 -0.05 -8.65 -0.05 -8.7 0.0 -8.7 0.0 -8.65 M-0.1 -8.7 L-0.15 -8.7 -0.15 -8.75 -0.15 -8.75 -0.15 -8.75 -0.1 -8.7 -0.1 -8.7 -0.1 -8.7" fill="#482414" fill-rule="evenodd" stroke="none"/>
    <path d="M0.05 -8.05 Q0.05 -8.1 0.05 -8.1 L0.1 -8.0 0.05 -7.95 Q0.05 -7.95 0.0 -7.95 L0.0 -7.95 -0.05 -7.95 -0.05 -7.95 -0.05 -8.0 0.0 -8.05 0.0 -8.05 0.0 -7.95 0.05 -8.0 0.05 -8.05 0.05 -8.05 M-0.1 -8.0 L-0.1 -8.0 -0.05 -8.0 -0.05 -7.95 -0.05 -7.9 -0.1 -7.9 Q-0.1 -7.85 -0.15 -7.85 L-0.2 -7.85 -0.2 -7.9 -0.15 -7.95 -0.1 -7.95 -0.1 -7.95 -0.1 -8.0" fill="#a06929" fill-rule="evenodd" stroke="none"/>
    <path d="M0.05 -7.5 L0.05 -7.5 0.1 -7.55 0.1 -7.6 0.1 -7.65 0.1 -7.7 0.05 -7.7 0.05 -7.8 0.1 -7.8 0.1 -7.8 0.15 -7.75 0.15 -7.8 0.2 -7.85 0.2 -7.8 0.25 -7.8 0.25 -7.75 0.2 -7.7 0.2 -7.7 0.25 -7.7 0.3 -7.65 0.25 -7.65 Q0.2 -7.6 0.2 -7.6 L0.2 -7.6 0.25 -7.55 0.25 -7.55 0.3 -7.6 0.25 -7.55 0.25 -7.55 0.3 -7.55 0.3 -7.5 0.25 -7.5 0.25 -7.4 0.3 -7.4 0.3 -7.45 0.3 -7.4 0.25 -7.35 0.3 -7.3 0.3 -7.3 0.25 -7.3 0.25 -7.4 0.2 -7.4 0.2 -7.45 0.15 -7.4 0.1 -7.4 0.1 -7.35 0.1 -7.4 0.05 -7.4 0.05 -7.5 0.05 -7.5" fill="#9f6e36" fill-rule="evenodd" stroke="none"/>
    <path d="M0.0 -7.4 L-0.05 -7.4 -0.05 -7.4 -0.05 -7.45 -0.05 -7.55 -0.1 -7.55 -0.1 -7.7 -0.1 -7.75 -0.05 -7.8 -0.05 -7.75 0.0 -7.75 0.0 -7.7 0.0 -7.65 0.05 -7.65 0.05 -7.6 0.0 -7.55 0.05 -7.55 0.05 -7.5 0.05 -7.5 0.05 -7.4 0.1 -7.4 0.1 -7.35 0.05 -7.35 0.05 -7.35 0.05 -7.25 0.05 -7.15 0.1 -7.1 0.05 -7.1 0.05 -7.05 0.0 -7.1 0.0 -7.1 0.0 -7.25 0.0 -7.25 0.0 -7.35 0.0 -7.4" fill="#3c1d0b" fill-rule="evenodd" stroke="none"/>
    <path d="M0.35 -7.1 L0.35 -7.05 0.35 -7.05 0.3 -7.1 0.3 -7.1 0.3 -7.2 0.25 -7.2 0.25 -7.25 0.25 -7.3 0.2 -7.3 0.2 -7.35 0.15 -7.3 0.15 -7.25 0.15 -7.25 0.15 -7.25 0.1 -7.3 0.1 -7.35 0.1 -7.35 0.1 -7.4 0.15 -7.4 0.2 -7.45 0.2 -7.4 0.25 -7.4 0.25 -7.3 0.3 -7.3 0.3 -7.25 0.3 -7.2 0.3 -7.15 0.35 -7.15 0.35 -7.1" fill="#c29b62" fill-rule="evenodd" stroke="none"/>
    <path d="M0.35 -7.05 L0.35 -7.0 0.4 -7.0 0.45 -7.0 0.6 -6.95 0.65 -6.95 0.7 -6.9 0.75 -6.85 0.8 -6.8 0.8 -6.75 0.75 -6.75 0.7 -6.7 0.7 -6.7 0.6 -6.7 0.45 -6.7 0.4 -6.7 0.25 -6.7 0.1 -6.7 0.0 -6.7 0.0 -6.7 0.05 -6.75 0.1 -6.75 0.1 -6.75 0.1 -6.75 0.15 -6.75 0.15 -6.75 0.2 -6.7 0.2 -6.75 0.25 -6.7 0.3 -6.7 0.3 -6.7 0.35 -6.7 0.35 -6.7 0.45 -6.7 0.45 -6.7 0.5 -6.7 0.6 -6.75 0.65 -6.75 0.7 -6.75 0.65 -6.75 0.65 -6.8 0.65 -6.85 0.65 -6.9 0.65 -6.85 0.6 -6.85 0.6 -6.85 0.55 -6.85 0.55 -6.9 0.45 -6.9 0.4 -6.95 0.4 -6.95 0.35 -7.0 0.3 -7.0 0.3 -7.0 0.3 -7.0 0.25 -7.05 0.2 -7.1 0.2 -7.1 0.2 -7.05 0.15 -7.0 0.15 -7.0 0.15 -7.0 0.15 -7.1 0.15 -7.2 0.15 -7.25 0.15 -7.25 0.15 -7.3 0.2 -7.35 0.2 -7.3 0.25 -7.3 0.25 -7.25 0.25 -7.2 0.3 -7.2 0.3 -7.1 0.3 -7.1 0.35 -7.05 0.35 -7.05" fill="#e1c59e" fill-rule="evenodd" stroke="none"/>
    <path d="M0.0 -7.4 L0.0 -7.35 0.0 -7.25 0.0 -7.25 0.0 -7.1 0.0 -7.1 0.05 -7.05 0.05 -7.1 0.1 -7.1 0.05 -7.15 0.05 -7.25 0.05 -7.35 0.05 -7.35 0.1 -7.35 0.1 -7.4 0.1 -7.35 0.1 -7.35 0.1 -7.3 0.15 -7.25 0.15 -7.25 0.15 -7.2 0.15 -7.1 0.15 -7.0 0.15 -7.0 0.1 -7.0 0.1 -7.0 Q0.05 -6.95 0.05 -6.95 L0.0 -6.9 0.0 -6.9 -0.05 -6.9 -0.05 -6.9 -0.05 -7.1 -0.05 -7.15 -0.05 -7.25 -0.05 -7.3 -0.1 -7.35 -0.1 -7.45 -0.1 -7.45 -0.1 -7.45 -0.1 -7.4 -0.05 -7.4 0.0 -7.4" fill="#6a3e17" fill-rule="evenodd" stroke="none"/>
    <path d="M0.8 -6.75 L0.8 -6.65 0.75 -6.65 0.75 -6.65 0.7 -6.65 0.7 -6.65 0.65 -6.7 0.65 -6.65 0.6 -6.65 0.6 -6.65 0.55 -6.65 0.55 -6.6 0.5 -6.65 0.45 -6.65 0.45 -6.65 0.45 -6.6 0.4 -6.6 0.35 -6.65 0.3 -6.65 0.25 -6.6 0.25 -6.65 0.2 -6.65 0.05 -6.65 0.05 -6.7 0.0 -6.7 0.0 -6.7 -0.05 -6.7 -0.05 -6.7 -0.1 -6.7 -0.1 -6.7 -0.15 -6.7 -0.2 -6.7 -0.2 -6.7 -0.25 -6.7 -0.25 -6.65 -0.3 -6.65 -0.3 -6.6 -0.35 -6.6 -0.35 -6.7 -0.4 -6.7 -0.45 -6.75 -0.5 -6.75 -0.5 -6.75 -0.55 -6.8 -0.55 -6.8 -0.55 -6.8 -0.5 -6.8 -0.5 -6.8 -0.45 -6.85 -0.45 -6.85 -0.4 -6.85 -0.35 -6.85 -0.35 -6.85 -0.35 -6.85 -0.3 -6.85 -0.3 -6.85 -0.25 -6.85 -0.25 -6.85 -0.2 -6.85 -0.2 -6.9 -0.2 -6.9 -0.15 -6.9 -0.1 -6.95 -0.1 -6.95 -0.05 -6.9 -0.05 -6.9 -0.05 -6.9 0.0 -6.9 0.0 -6.9 0.05 -6.95 Q0.05 -6.95 0.1 -7.0 L0.1 -7.0 0.15 -7.0 0.15 -7.0 0.2 -7.05 0.2 -7.1 0.2 -7.1 0.25 -7.05 0.3 -7.0 0.3 -7.0 0.3 -7.0 0.35 -7.0 0.4 -6.95 0.4 -6.95 0.45 -6.9 0.55 -6.9 0.55 -6.85 0.6 -6.85 0.6 -6.85 0.65 -6.85 0.65 -6.9 0.65 -6.85 0.65 -6.8 0.65 -6.75 0.7 -6.75 0.65 -6.75 0.6 -6.75 0.5 -6.7 0.45 -6.7 0.45 -6.7 0.35 -6.7 0.35 -6.7 0.3 -6.7 0.3 -6.7 0.25 -6.7 0.2 -6.75 0.2 -6.7 0.15 -6.75 0.15 -6.75 0.1 -6.75 0.1 -6.75 0.05 -6.75 0.0 -6.7 0.0 -6.7 0.1 -6.7 0.25 -6.7 0.4 -6.7 0.45 -6.7 0.6 -6.7 0.7 -6.7 0.7 -6.7 0.75 -6.75 0.8 -6.75 M0.05 -6.85 L0.1 -6.8 0.1 -6.8 0.15 -6.85 0.15 -6.85 0.2 -6.85 0.2 -6.9 0.15 -6.9 0.15 -6.9 0.1 -6.9 0.1 -6.85 0.05 -6.85 M0.35 -6.85 L0.35 -6.85 0.4 -6.85 0.4 -6.9 0.35 -6.9 0.35 -6.85 M0.1 -6.75 L0.1 -6.75" fill="#f9f8f4" fill-rule="evenodd" stroke="none"/>
    <path d="M2.05 -8.6 L2.1 -8.6 2.1 -8.55 2.15 -8.5 2.15 -8.45 2.15 -8.45 2.2 -8.35 2.2 -8.25 2.25 -8.25 2.25 -8.15 2.2 -8.1 2.2 -8.1 2.15 -8.1 2.15 -8.1 2.1 -8.15 2.1 -8.15 2.05 -8.15 2.0 -8.2 2.0 -8.3 2.0 -8.35 1.95 -8.35 1.95 -8.4 1.95 -8.55 1.95 -8.6 2.0 -8.6 Q2.05 -8.6 2.05 -8.6" fill="#9d6324" fill-rule="evenodd" stroke="none"/>
    <path d="M1.75 -8.5 L1.7 -8.55 1.75 -8.6 1.75 -8.6 1.8 -8.6 1.8 -8.55 1.85 -8.55 1.9 -8.5 1.9 -8.45 1.9 -8.4 1.85 -8.45 1.8 -8.45 1.8 -8.5 1.75 -8.5 1.75 -8.5 M1.45 -8.3 L1.45 -8.25 1.55 -8.2 1.55 -8.15 1.55 -8.1 1.5 -8.1 1.5 -8.1 1.5 -8.1 1.45 -8.1 1.45 -8.1 1.45 -8.2 1.45 -8.25 1.4 -8.25 1.45 -8.3" fill="#441c02" fill-rule="evenodd" stroke="none"/>
    <path d="M1.5 -8.1 L1.6 -8.05 1.6 -8.05 1.65 -7.95 1.7 -7.95 1.7 -7.9 1.75 -7.9 1.75 -7.75 1.75 -7.7 1.7 -7.7 1.7 -7.7 1.65 -7.75 1.6 -7.75 1.55 -7.8 1.5 -7.85 1.5 -7.9 1.45 -8.0 1.4 -8.05 1.45 -8.1 1.45 -8.1 1.45 -8.1 1.5 -8.1 1.5 -8.1" fill="#9a5e28" fill-rule="evenodd" stroke="none"/>
    <path d="M2.3 -7.35 L2.3 -7.35 2.25 -7.4 2.25 -7.45 2.25 -7.5 2.2 -7.5 2.25 -7.55 2.3 -7.5 2.3 -7.45 2.35 -7.4 2.35 -7.4 2.35 -7.35 2.35 -7.3 2.3 -7.3 2.3 -7.35" fill="#553b2c" fill-rule="evenodd" stroke="none"/>
    <path d="M0.8 -6.65 L0.8 -6.3 0.8 -6.2 0.85 -5.95 0.85 -5.9 0.75 -5.9 0.7 -5.9 0.65 -5.9 0.55 -5.9 Q0.55 -5.85 0.55 -5.85 L0.5 -5.85 0.45 -5.85 0.4 -5.85 0.4 -5.9 0.35 -5.9 0.25 -5.85 0.2 -5.85 0.2 -5.85 0.15 -5.85 0.15 -5.85 0.1 -5.85 0.1 -5.85 0.05 -5.85 0.05 -5.85 0.0 -5.85 0.0 -5.85 0.0 -5.85 -0.1 -5.85 -0.15 -5.85 -0.2 -5.85 -0.25 -5.85 -0.25 -5.85 -0.3 -5.85 -0.35 -5.85 -0.4 -5.85 -0.45 -5.85 -0.45 -5.9 -0.45 -5.95 -0.4 -5.95 -0.4 -6.0 -0.35 -6.0 -0.35 -6.0 -0.35 -6.05 -0.35 -6.2 -0.35 -6.3 -0.35 -6.45 -0.35 -6.5 -0.35 -6.55 -0.35 -6.6 -0.3 -6.6 -0.3 -6.65 -0.25 -6.65 -0.25 -6.7 -0.2 -6.7 -0.2 -6.7 -0.15 -6.7 -0.1 -6.7 -0.1 -6.7 -0.05 -6.7 -0.05 -6.7 0.0 -6.7 0.0 -6.7 0.05 -6.7 0.05 -6.65 0.2 -6.65 0.25 -6.65 0.25 -6.6 0.3 -6.65 0.35 -6.65 0.4 -6.6 0.45 -6.6 0.45 -6.65 0.45 -6.65 0.5 -6.65 0.55 -6.6 0.55 -6.65 0.6 -6.65 0.6 -6.65 0.65 -6.65 0.65 -6.7 0.7 -6.65 0.7 -6.65 0.75 -6.65 0.75 -6.65 0.8 -6.65 M-0.65 -6.15 L-0.65 -6.2 -0.7 -6.4 -0.7 -6.45 -0.7 -6.65 -0.7 -6.85 -0.7 -6.9 -0.6 -6.9 -0.6 -6.85 -0.55 -6.85 -0.55 -6.8 -0.55 -6.8 -0.5 -6.75 -0.5 -6.75 -0.55 -6.7 -0.55 -6.65 -0.5 -6.65 -0.5 -6.6 -0.55 -6.5 -0.5 -6.45 -0.5 -6.4 -0.55 -6.45 -0.55 -6.45 -0.6 -6.4 -0.6 -6.35 -0.6 -6.3 -0.6 -6.25 -0.6 -6.25 -0.6 -6.2 -0.65 -6.15 -0.65 -6.15 M0.4 -5.85 L0.4 -5.85" fill="#9a6b3d" fill-rule="evenodd" stroke="none"/>
    <path d="M0.05 -6.85 L0.1 -6.85 0.1 -6.9 0.15 -6.9 0.15 -6.9 0.2 -6.9 0.2 -6.85 0.15 -6.85 0.15 -6.85 0.1 -6.8 0.1 -6.8 0.05 -6.85 M0.35 -6.85 L0.35 -6.9 0.4 -6.9 0.4 -6.85 0.35 -6.85 0.35 -6.85" fill="#bfa874" fill-rule="evenodd" stroke="none"/>
    <path d="M0.4 -5.85 L0.4 -5.4 0.35 -5.45 0.35 -5.45 0.3 -5.45 0.3 -5.45 0.3 -5.45 0.25 -5.65 0.3 -5.85 0.35 -5.85 0.4 -5.85 0.4 -5.85 M0.4 -5.25 L0.4 -4.05 0.35 -4.05 0.35 -4.05 0.25 -4.25 0.25 -4.35 0.3 -4.35 0.3 -4.5 0.3 -4.65 0.3 -5.0 0.3 -5.25 0.35 -5.25 0.35 -5.25 0.4 -5.25 0.4 -5.25 M0.4 -3.9 L0.4 -2.5 0.35 -2.5 0.35 -2.5 0.3 -2.5 0.3 -2.55 0.25 -2.7 0.3 -3.0 0.3 -3.1 0.35 -3.2 0.3 -3.3 0.3 -3.45 0.3 -3.55 0.35 -3.65 0.35 -3.7 0.4 -3.7 0.35 -3.85 0.4 -3.85 0.4 -3.9 M0.4 -2.3 L0.4 -0.4 0.35 -0.4 0.35 -0.4 0.25 -0.6 0.25 -0.7 0.3 -0.7 0.3 -0.75 0.25 -0.8 0.2 -0.95 0.25 -1.1 0.3 -1.3 Q0.25 -1.35 0.3 -1.4 L0.3 -1.6 0.3 -1.75 0.3 -2.05 0.3 -2.3 0.35 -2.3 0.35 -2.3 0.4 -2.3 0.4 -2.3 M0.4 -0.25 L0.4 1.2 0.35 1.15 0.3 1.15 0.3 1.1 0.25 0.95 0.3 0.7 0.3 0.55 0.35 0.45 0.3 0.35 0.3 0.25 0.3 0.15 Q0.3 0.1 0.35 0.0 L0.35 -0.05 0.4 -0.05 0.35 -0.2 0.4 -0.2 0.4 -0.25 M0.4 1.35 L0.4 4.55 0.3 4.55 0.3 4.15 0.35 3.9 0.3 3.3 0.3 2.95 0.25 2.85 0.2 2.7 0.25 2.55 0.3 2.4 Q0.25 2.35 0.3 2.25 L0.3 2.05 0.3 1.9 0.3 1.6 0.3 1.35 0.35 1.35 0.4 1.35 M0.4 4.75 L0.4 7.65 0.35 7.65 0.05 7.65 -0.05 7.65 -0.15 7.65 -0.15 4.75 -0.15 4.75 0.05 4.75 0.1 4.75 0.05 4.8 0.05 5.2 0.0 5.5 0.0 6.0 0.05 6.3 0.05 6.4 0.1 6.45 0.1 6.75 0.15 6.85 0.15 7.05 0.15 7.2 0.2 7.25 0.25 7.35 Q0.25 7.4 0.25 7.45 L0.3 7.45 0.3 7.2 0.35 6.95 0.35 6.4 0.3 6.3 0.3 6.2 0.3 6.1 Q0.25 6.05 0.25 6.0 L0.3 5.85 0.25 5.25 0.25 5.2 0.3 5.15 0.3 5.1 0.3 5.0 0.35 4.95 0.3 4.9 0.2 4.85 0.3 4.8 0.25 4.75 0.35 4.75 0.4 4.75 M-0.15 4.55 L-0.15 1.35 0.0 1.35 0.0 1.4 0.05 1.6 0.05 1.75 0.05 1.85 0.05 2.0 0.0 2.0 0.0 2.05 0.05 2.05 0.05 2.1 0.05 2.25 0.0 2.3 0.0 2.4 0.0 2.85 0.05 2.95 Q0.0 3.0 0.0 3.05 L0.05 3.2 0.05 3.25 0.05 3.4 0.05 3.65 0.05 3.9 0.1 4.05 0.05 4.3 0.1 4.55 0.0 4.55 -0.15 4.55 -0.15 4.55 M-0.15 1.15 L-0.15 -0.2 0.0 -0.2 0.05 -0.2 0.05 -0.1 0.05 0.05 Q0.0 0.1 0.05 0.15 L0.0 0.3 -0.05 0.35 -0.05 0.4 -0.05 0.5 0.05 0.6 Q0.1 0.6 0.1 0.65 L0.0 0.8 0.05 0.85 0.05 1.0 0.0 1.05 0.05 1.15 -0.05 1.15 -0.15 1.15 M-0.15 -0.45 L-0.15 -2.3 0.0 -2.3 0.0 -2.25 0.05 -2.05 0.05 -1.85 0.05 -1.7 0.05 -1.7 Q0.0 -1.65 0.0 -1.65 L0.0 -1.6 0.05 -1.6 0.05 -1.55 0.05 -1.4 0.0 -1.35 0.0 -1.25 0.0 -0.8 0.05 -0.75 0.05 -0.7 -0.05 -0.7 -0.05 -0.65 -0.05 -0.6 0.0 -0.55 0.0 -0.45 -0.05 -0.45 -0.15 -0.45 M-0.15 -2.5 L-0.15 -3.85 0.0 -3.9 0.05 -3.9 0.05 -3.7 0.05 -3.6 Q0.0 -3.55 0.05 -3.5 0.05 -3.45 0.0 -3.35 L-0.05 -3.3 -0.05 -3.25 -0.05 -3.15 0.05 -3.05 Q0.1 -3.05 0.1 -3.0 L0.0 -2.85 0.05 -2.8 0.05 -2.65 0.0 -2.6 0.05 -2.5 -0.05 -2.5 -0.15 -2.5 M-0.15 -4.1 L-0.15 -5.2 0.0 -5.25 0.0 -5.25 0.0 -5.2 0.05 -5.0 0.05 -4.8 0.05 -4.65 0.05 -4.6 Q0.0 -4.6 0.0 -4.6 L0.0 -4.55 0.05 -4.5 0.05 -4.4 0.05 -4.35 -0.05 -4.35 -0.05 -4.25 -0.05 -4.25 0.0 -4.2 0.0 -4.1 -0.05 -4.1 -0.15 -4.1 M-0.15 -5.45 L-0.15 -5.85 -0.1 -5.85 0.0 -5.85 0.05 -5.85 0.05 -5.85 0.0 -5.8 0.05 -5.75 0.05 -5.6 0.0 -5.5 0.05 -5.45 -0.05 -5.45 -0.15 -5.45 M0.0 -5.85 L0.0 -5.85 0.0 -5.85 M0.3 -2.5 L0.3 -2.5" fill="#22211d" fill-rule="evenodd" stroke="none"/>
    <path d="M0.25 -5.85 L0.25 -5.85 0.3 -5.85 0.25 -5.65 0.3 -5.45 0.3 -5.45 0.25 -5.45 0.05 -5.45 0.05 -5.45 0.0 -5.5 0.05 -5.6 0.05 -5.75 0.0 -5.8 0.05 -5.85 0.1 -5.85 0.15 -5.85 0.15 -5.85 0.2 -5.85 0.2 -5.85 0.25 -5.85 M0.25 -5.45 L0.25 -5.45 M0.0 -4.1 L0.0 -4.2 -0.05 -4.25 -0.05 -4.25 -0.05 -4.35 0.05 -4.35 0.05 -4.4 0.05 -4.5 0.0 -4.55 0.0 -4.6 Q0.0 -4.6 0.05 -4.6 L0.05 -4.65 0.05 -4.8 0.05 -5.0 0.0 -5.2 0.0 -5.25 0.3 -5.25 0.3 -5.0 0.3 -4.65 0.3 -4.5 0.3 -4.35 0.25 -4.35 0.25 -4.25 0.35 -4.05 0.25 -4.05 0.25 -4.1 0.05 -4.1 0.0 -4.1 M0.05 -3.9 L0.35 -3.85 0.35 -3.85 0.4 -3.7 0.35 -3.7 0.35 -3.65 0.3 -3.55 0.3 -3.45 0.3 -3.3 0.35 -3.2 0.3 -3.1 0.3 -3.0 0.25 -2.7 0.3 -2.55 0.3 -2.5 0.25 -2.5 0.05 -2.5 0.05 -2.5 0.0 -2.6 0.05 -2.65 0.05 -2.8 0.0 -2.85 0.1 -3.0 Q0.1 -3.05 0.05 -3.05 L-0.05 -3.15 -0.05 -3.25 -0.05 -3.3 0.0 -3.35 Q0.05 -3.45 0.05 -3.5 0.0 -3.55 0.05 -3.6 L0.05 -3.7 0.05 -3.9 M0.25 -2.5 L0.25 -2.5 M0.3 -2.3 L0.3 -2.05 0.3 -1.75 0.3 -1.6 0.3 -1.4 Q0.25 -1.35 0.3 -1.3 L0.25 -1.1 0.2 -0.95 0.25 -0.8 0.3 -0.75 0.3 -0.7 0.25 -0.7 0.25 -0.6 0.35 -0.4 0.25 -0.4 0.05 -0.45 0.0 -0.45 0.0 -0.55 -0.05 -0.6 -0.05 -0.65 -0.05 -0.7 0.05 -0.7 0.05 -0.75 0.0 -0.8 0.0 -1.25 0.0 -1.35 0.05 -1.4 0.05 -1.55 0.05 -1.6 0.0 -1.6 0.0 -1.65 Q0.0 -1.65 0.05 -1.7 L0.05 -1.7 0.05 -1.85 0.05 -2.05 0.0 -2.25 0.0 -2.3 0.3 -2.3 M0.25 -0.4 L0.25 -0.4 M-0.05 0.35 L0.0 0.3 0.05 0.15 Q0.0 0.1 0.05 0.05 L0.05 -0.1 0.05 -0.2 0.35 -0.2 0.35 -0.2 0.4 -0.05 0.35 -0.05 0.35 0.0 Q0.3 0.1 0.3 0.15 L0.3 0.25 0.3 0.35 0.35 0.45 0.3 0.55 0.3 0.7 0.25 0.95 0.3 1.1 0.3 1.15 0.25 1.15 0.05 1.15 0.0 1.05 0.05 1.0 0.05 0.85 0.0 0.8 0.1 0.65 Q0.1 0.6 0.05 0.6 L-0.05 0.5 -0.05 0.4 -0.05 0.35 M0.3 1.35 L0.3 1.6 0.3 1.9 0.3 2.05 0.3 2.25 Q0.25 2.35 0.3 2.4 L0.25 2.55 0.2 2.7 0.25 2.85 0.3 2.95 0.3 3.3 0.35 3.9 0.3 4.15 0.3 4.55 0.25 4.55 0.1 4.55 0.05 4.3 0.1 4.05 0.05 3.9 0.05 3.65 0.05 3.4 0.05 3.25 0.05 3.2 0.0 3.05 Q0.0 3.0 0.05 2.95 L0.0 2.85 0.0 2.4 0.0 2.3 0.05 2.25 0.05 2.1 0.05 2.05 0.0 2.05 0.0 2.0 0.05 2.0 0.05 1.85 0.05 1.75 0.05 1.6 0.0 1.4 0.0 1.35 0.3 1.35 M0.25 4.75 L0.3 4.8 0.2 4.85 0.3 4.9 0.35 4.95 0.3 5.0 0.3 5.1 0.3 5.15 0.25 5.2 0.25 5.25 0.3 5.85 0.25 6.0 Q0.25 6.05 0.3 6.1 L0.3 6.2 0.3 6.3 0.35 6.4 0.35 6.95 0.3 7.2 0.3 7.45 0.25 7.45 Q0.25 7.4 0.25 7.35 L0.2 7.25 0.15 7.2 0.15 7.05 0.15 6.85 0.1 6.75 0.1 6.45 0.05 6.4 0.05 6.3 0.0 6.0 0.0 5.5 0.05 5.2 0.05 4.8 0.1 4.75 0.25 4.75" fill="#59453a" fill-rule="evenodd" stroke="none"/>
    <path d="M0.4 -5.4 L0.4 -5.4 0.45 -5.4 0.5 -5.35 0.5 -5.35 0.45 -5.4 0.4 -5.35 0.4 -5.35 0.35 -5.35 0.3 -5.35 0.25 -5.35 0.15 -5.35 0.25 -5.4 0.25 -5.4 0.35 -5.4 0.3 -5.4 0.3 -5.45 0.35 -5.45 0.35 -5.45 0.4 -5.4 M0.4 -2.5 L0.4 -2.5 0.45 -2.5 0.5 -2.4 0.5 -2.45 0.45 -2.45 0.4 -2.45 0.4 -2.45 0.35 -2.45 0.3 -2.45 0.25 -2.45 0.15 -2.45 0.25 -2.45 0.25 -2.45 0.35 -2.45 0.3 -2.5 0.3 -2.5 0.35 -2.5 0.35 -2.5 0.4 -2.5 M0.4 1.2 L0.45 1.15 0.5 1.25 0.45 1.2 0.4 1.25 0.35 1.25 0.3 1.25 0.25 1.25 0.15 1.25 0.25 1.2 0.35 1.2 0.3 1.2 0.3 1.15 0.35 1.15 0.4 1.2 M0.5 7.8 L0.45 7.9 0.4 7.9 0.3 7.9 0.25 7.85 0.3 7.85 0.45 7.8 0.5 7.8 M0.2 8.0 L0.3 8.05 0.3 8.1 0.2 8.1 -0.05 8.1 0.0 8.05 0.05 8.05 0.05 8.0 0.15 8.0 0.2 8.0 M-0.05 7.7 L-0.05 7.65 0.05 7.65 0.05 7.7 0.05 7.8 0.05 7.85 -0.05 7.75 -0.05 7.7 M-0.25 4.65 L-0.25 4.6 -0.15 4.55 -0.15 4.55 0.0 4.55 0.1 4.55 0.0 4.6 -0.15 4.65 -0.15 4.65 -0.2 4.65 -0.25 4.65 M-0.3 1.25 L-0.3 1.25 -0.15 1.15 -0.05 1.15 0.05 1.15 0.25 1.15 0.05 1.2 0.0 1.2 Q-0.15 1.2 -0.15 1.25 L-0.15 1.25 -0.2 1.25 -0.2 1.25 -0.3 1.25 M-0.3 -0.3 L-0.3 -0.35 -0.25 -0.35 -0.15 -0.45 -0.05 -0.45 0.0 -0.45 0.05 -0.45 0.25 -0.4 0.05 -0.4 0.0 -0.4 -0.15 -0.35 -0.15 -0.3 -0.2 -0.3 -0.2 -0.3 -0.3 -0.3 M-0.3 -2.4 L-0.3 -2.4 -0.25 -2.45 -0.15 -2.5 -0.05 -2.5 0.05 -2.5 0.05 -2.5 0.25 -2.5 0.05 -2.5 0.05 -2.45 0.0 -2.45 -0.15 -2.4 -0.15 -2.4 -0.2 -2.4 -0.2 -2.4 -0.3 -2.4 M-0.3 -3.95 L-0.3 -4.0 -0.25 -4.0 -0.15 -4.1 -0.05 -4.1 0.0 -4.1 0.05 -4.1 0.25 -4.1 0.05 -4.05 0.0 -4.05 -0.15 -4.0 -0.15 -3.95 -0.2 -3.95 -0.2 -3.95 -0.3 -3.95 M-0.3 -5.35 L-0.3 -5.35 -0.25 -5.4 -0.15 -5.45 -0.05 -5.45 0.05 -5.45 0.05 -5.45 0.25 -5.45 0.05 -5.4 0.05 -5.4 0.0 -5.4 -0.15 -5.35 -0.2 -5.35 -0.2 -5.35 -0.3 -5.35 M0.25 4.55 L0.1 4.55 0.25 4.55 M0.0 7.9 L0.0 7.85 0.15 7.9 0.35 7.9 0.25 7.95 0.15 7.95 0.0 7.9" fill="#c4826f" fill-rule="evenodd" stroke="none"/>
    <path d="M0.4 -4.05 L0.4 -4.05 0.45 -4.0 0.45 -4.0 0.4 -4.0 0.4 -4.0 0.35 -4.0 0.25 -4.0 0.05 -4.0 0.0 -4.0 -0.1 -3.95 -0.15 -3.95 -0.15 -3.95 -0.15 -4.0 0.0 -4.05 0.05 -4.05 0.25 -4.1 0.25 -4.05 0.35 -4.05 0.35 -4.05 0.4 -4.05 M0.4 -0.4 L0.4 -0.4 0.45 -0.35 0.45 -0.35 0.4 -0.35 0.4 -0.35 0.35 -0.35 0.25 -0.35 0.05 -0.35 0.0 -0.35 -0.1 -0.3 -0.1 -0.3 -0.15 -0.3 -0.15 -0.3 -0.15 -0.35 0.0 -0.4 0.05 -0.4 0.25 -0.4 0.35 -0.4 0.35 -0.4 0.4 -0.4 M0.4 4.55 L0.45 4.55 0.5 4.6 0.45 4.6 0.4 4.6 0.3 4.6 0.1 4.6 -0.05 4.65 -0.05 4.65 -0.15 4.65 0.0 4.6 0.1 4.55 0.25 4.55 0.3 4.55 0.4 4.55 M0.35 7.65 L0.45 7.7 0.45 7.75 0.5 7.8 0.45 7.8 0.3 7.85 0.3 7.8 0.35 7.75 0.3 7.7 0.2 7.7 0.15 7.7 0.1 7.75 0.05 7.8 0.05 7.7 0.05 7.65 0.35 7.65 M0.25 -5.45 L0.3 -5.45 0.3 -5.45 0.3 -5.4 0.35 -5.4 0.25 -5.4 0.25 -5.4 0.15 -5.35 0.05 -5.35 0.0 -5.35 -0.1 -5.35 -0.15 -5.35 -0.15 -5.35 0.0 -5.4 0.05 -5.4 0.05 -5.4 0.25 -5.45 0.25 -5.45 M0.25 -2.5 L0.3 -2.5 0.3 -2.5 0.35 -2.45 0.25 -2.45 0.25 -2.45 0.15 -2.45 0.05 -2.45 0.0 -2.45 -0.1 -2.4 -0.1 -2.4 -0.15 -2.4 -0.15 -2.4 -0.15 -2.4 0.0 -2.45 0.05 -2.45 0.05 -2.5 0.25 -2.5 0.25 -2.5 M0.3 -2.5 L0.3 -2.5 M0.25 -0.4 L0.25 -0.4 M0.15 1.25 L0.05 1.25 0.0 1.25 -0.1 1.25 -0.1 1.25 -0.15 1.25 -0.15 1.25 -0.15 1.25 Q-0.15 1.2 0.0 1.2 L0.05 1.2 0.25 1.15 0.3 1.15 0.3 1.2 0.35 1.2 0.25 1.2 0.15 1.25" fill="#e2ba8a" fill-rule="evenodd" stroke="none"/>
    <path d="M0.25 -5.45 L0.25 -5.45 0.25 -5.45 M0.25 -4.1 L0.25 -4.05 0.25 -4.1 M-0.05 -3.3 L-0.05 -3.25 -0.05 -3.3 M0.25 -2.5 L0.25 -2.5 0.25 -2.5 M0.25 -0.4 L0.25 -0.4 0.25 -0.4 M-0.05 0.4 L-0.05 0.35 -0.05 0.4 M0.3 4.55 L0.25 4.55 0.3 4.55" fill="#7a7b7f" fill-rule="evenodd" stroke="none"/>
    <path d="M0.5 -5.35 L0.5 -5.3 0.5 -5.3 0.4 -5.3 0.4 -5.35 0.35 -5.35 0.3 -5.35 0.25 -5.35 0.0 -5.35 -0.1 -5.35 0.0 -5.35 0.05 -5.35 0.15 -5.35 0.25 -5.35 0.3 -5.35 0.35 -5.35 0.4 -5.35 0.4 -5.35 0.45 -5.4 0.5 -5.35 0.5 -5.35 M0.45 -4.0 L0.5 -4.0 0.55 -3.95 0.5 -3.95 0.4 -3.95 0.4 -3.95 0.35 -3.95 0.25 -3.95 0.0 -3.95 -0.1 -3.95 0.0 -4.0 0.05 -4.0 0.25 -4.0 0.35 -4.0 0.4 -4.0 0.4 -4.0 0.45 -4.0 M0.5 -2.4 L0.5 -2.4 0.5 -2.4 0.4 -2.4 0.4 -2.4 0.35 -2.4 0.3 -2.4 0.25 -2.4 0.0 -2.4 -0.1 -2.4 -0.1 -2.4 0.0 -2.45 0.05 -2.45 0.15 -2.45 0.25 -2.45 0.3 -2.45 0.35 -2.45 0.4 -2.45 0.4 -2.45 0.45 -2.45 0.5 -2.45 0.5 -2.4 M0.45 -0.35 L0.5 -0.35 0.55 -0.3 0.5 -0.3 0.4 -0.3 0.4 -0.3 0.35 -0.3 0.25 -0.3 0.0 -0.3 -0.1 -0.3 -0.1 -0.3 0.0 -0.35 0.05 -0.35 0.25 -0.35 0.35 -0.35 0.4 -0.35 0.4 -0.35 0.45 -0.35 M0.5 4.6 L0.55 4.6 0.55 4.65 0.4 4.65 0.3 4.65 0.05 4.65 -0.05 4.65 -0.05 4.65 0.1 4.6 0.3 4.6 0.4 4.6 0.45 4.6 0.5 4.6 M-0.1 1.25 L-0.1 1.25 0.0 1.25 0.05 1.25 0.15 1.25 0.25 1.25 0.3 1.25 0.35 1.25 0.4 1.25 0.45 1.2 0.5 1.25 0.4 1.25 0.35 1.25 0.3 1.25 0.25 1.25 0.0 1.25 -0.1 1.25 M0.1 7.75 L0.15 7.7 0.2 7.7 0.3 7.7 0.35 7.75 0.3 7.8 0.2 7.8 0.15 7.8 0.1 7.75" fill="#f5ecaa" fill-rule="evenodd" stroke="none"/>
    <path d="M0.5 -5.3 L0.5 -5.3 0.45 -5.25 0.45 -5.25 0.4 -5.25 0.4 -5.25 0.35 -5.25 0.35 -5.25 0.3 -5.25 0.0 -5.25 0.0 -5.25 -0.15 -5.2 -0.2 -5.2 -0.2 -5.25 Q-0.2 -5.25 -0.25 -5.25 L-0.3 -5.35 -0.2 -5.35 -0.2 -5.35 -0.15 -5.35 -0.15 -5.35 -0.1 -5.35 0.0 -5.35 0.25 -5.35 0.3 -5.35 0.35 -5.35 0.4 -5.35 0.4 -5.3 0.5 -5.3 M0.5 -3.95 L0.45 -3.9 0.4 -3.9 0.4 -3.85 0.35 -3.85 0.35 -3.85 0.05 -3.9 0.0 -3.9 -0.15 -3.85 -0.2 -3.85 -0.2 -3.9 Q-0.2 -3.9 -0.25 -3.9 L-0.3 -3.95 -0.2 -3.95 -0.2 -3.95 -0.15 -3.95 -0.15 -3.95 -0.1 -3.95 0.0 -3.95 0.25 -3.95 0.35 -3.95 0.4 -3.95 0.4 -3.95 0.5 -3.95 M0.5 -2.4 L0.5 -2.35 0.45 -2.35 0.45 -2.35 0.4 -2.3 0.4 -2.3 0.35 -2.3 0.35 -2.3 0.3 -2.3 0.0 -2.3 -0.15 -2.3 -0.2 -2.3 -0.2 -2.3 -0.25 -2.35 -0.3 -2.4 -0.2 -2.4 -0.2 -2.4 -0.15 -2.4 -0.15 -2.4 -0.1 -2.4 0.0 -2.4 0.25 -2.4 0.3 -2.4 0.35 -2.4 0.4 -2.4 0.4 -2.4 0.5 -2.4 M0.5 -0.3 L0.5 -0.3 0.45 -0.25 0.4 -0.25 0.4 -0.2 0.35 -0.2 0.35 -0.2 0.05 -0.2 0.0 -0.2 -0.15 -0.2 -0.2 -0.2 -0.2 -0.2 -0.25 -0.25 -0.3 -0.3 -0.3 -0.3 -0.2 -0.3 -0.2 -0.3 -0.15 -0.3 -0.15 -0.3 -0.1 -0.3 0.0 -0.3 0.25 -0.3 0.35 -0.3 0.4 -0.3 0.4 -0.3 0.5 -0.3 M0.5 1.25 L0.5 1.3 0.45 1.35 0.45 1.3 0.4 1.35 0.35 1.35 0.3 1.35 0.0 1.35 -0.15 1.35 -0.2 1.35 -0.2 1.35 -0.25 1.3 -0.3 1.25 -0.3 1.25 -0.2 1.25 -0.2 1.25 -0.15 1.25 -0.15 1.25 -0.1 1.25 0.0 1.25 0.25 1.25 0.3 1.25 0.35 1.25 0.4 1.25 0.5 1.25 M0.55 4.65 L0.45 4.7 0.45 4.75 0.4 4.75 0.35 4.75 0.25 4.75 0.1 4.75 0.05 4.75 -0.15 4.75 -0.15 4.75 -0.2 4.75 -0.2 4.7 -0.25 4.65 -0.2 4.65 -0.15 4.65 -0.15 4.65 -0.05 4.65 0.05 4.65 0.3 4.65 0.4 4.65 0.55 4.65 M0.3 8.1 L0.25 8.2 0.1 8.3 0.05 8.2 0.0 8.15 -0.05 8.1 0.2 8.1 0.3 8.1 M0.1 7.75 L0.15 7.8 0.2 7.8 0.3 7.8 0.3 7.85 0.25 7.85 0.15 7.9 0.05 7.85 0.05 7.8 0.1 7.75" fill="#1b1b1b" fill-rule="evenodd" stroke="none"/>
    <path d="M-2.75 -7.35 L-2.8 -7.35 -2.8 -7.5 Q-2.75 -7.5 -2.75 -7.5 L-2.75 -7.55 -2.7 -7.55 -2.7 -7.6 -2.7 -7.6 -2.7 -7.6 -2.65 -7.65 -2.6 -7.65 -2.6 -7.75 -2.6 -7.85 -2.55 -7.85 -2.5 -7.85 -2.5 -7.95 -2.5 -7.95 -2.45 -8.0 -2.45 -8.05 -2.4 -8.05 -2.4 -8.1 -2.35 -8.15 -2.35 -8.2 -2.3 -8.25 -2.35 -8.25 -2.3 -8.3 -2.25 -8.3 -2.25 -8.35 -2.3 -8.35 -2.25 -8.4 -2.2 -8.45 -2.2 -8.5 -2.2 -8.5 -2.15 -8.55 -2.15 -8.6 -2.1 -8.6 -2.05 -8.65 -2.05 -8.65 -2.1 -8.7 -2.1 -8.7 -2.05 -8.75 -2.0 -8.8 -2.0 -8.85 -1.95 -8.9 -1.9 -8.9 -1.9 -8.9 -1.85 -8.95 -1.85 -8.95 -1.8 -9.0 -1.75 -9.05 -1.75 -9.05 -1.75 -9.1 -1.7 -9.15 -1.7 -9.2 -1.65 -9.2 -1.6 -9.2 -1.6 -9.25 -1.55 -9.25 -1.55 -9.25 -1.5 -9.25 -1.5 -9.25 -1.45 -9.3 -1.45 -9.3 -1.4 -9.3 -1.4 -9.35 -1.35 -9.35 -1.3 -9.35 -1.3 -9.35 -1.25 -9.35 -1.25 -9.35 -1.2 -9.35 -1.2 -9.35 -1.15 -9.4 -1.05 -9.4 -1.0 -9.45 -0.95 -9.45 -0.9 -9.45 -0.9 -9.45 -0.85 -9.45 -0.85 -9.4 -0.8 -9.4 -0.8 -9.4 -0.75 -9.4 -0.7 -9.3 -0.7 -9.2 -0.7 -9.3 -0.75 -9.3 -0.8 -9.35 -0.8 -9.4 -0.85 -9.4 -0.9 -9.35 -0.9 -9.3 -0.95 -9.3 -0.95 -9.3 Q-0.95 -9.25 -1.0 -9.25 L-1.0 -9.25 -1.0 -9.2 -1.05 -9.25 -1.05 -9.25 -1.0 -9.3 -1.0 -9.3 -1.05 -9.3 -1.05 -9.3 -1.1 -9.3 -1.1 -9.3 -1.2 -9.3 -1.2 -9.3 -1.25 -9.25 -1.25 -9.25 -1.3 -9.25 -1.3 -9.25 -1.35 -9.2 Q-1.4 -9.2 -1.4 -9.2 L-1.45 -9.2 -1.45 -9.25 -1.5 -9.2 -1.55 -9.15 -1.6 -9.15 -1.6 -9.1 Q-1.65 -9.05 -1.65 -9.05 L-1.7 -9.0 -1.75 -8.95 -1.75 -8.9 -1.8 -8.85 -1.8 -8.8 -1.85 -8.8 -1.85 -8.8 -1.9 -8.75 -1.9 -8.75 -1.95 -8.7 -1.95 -8.7 -2.0 -8.7 -2.0 -8.65 -2.0 -8.6 -2.05 -8.55 -2.05 -8.5 -2.1 -8.45 -2.15 -8.35 -2.15 -8.35 -2.2 -8.3 -2.25 -8.25 -2.25 -8.15 -2.3 -8.15 -2.3 -8.1 -2.35 -8.1 -2.35 -8.1 -2.4 -8.05 -2.35 -8.0 -2.4 -7.95 -2.4 -7.9 -2.45 -7.85 -2.45 -7.8 -2.4 -7.9 -2.35 -7.95 -2.35 -7.95 -2.3 -8.0 -2.3 -8.0 -2.3 -8.05 -2.25 -8.05 -2.25 -8.0 -2.3 -8.0 -2.3 -7.95 -2.25 -8.0 -2.25 -8.0 -2.2 -8.0 -2.25 -7.95 -2.25 -7.9 -2.3 -7.85 -2.3 -7.8 -2.35 -7.8 -2.35 -7.8 -2.35 -7.75 -2.4 -7.7 -2.4 -7.65 -2.45 -7.65 -2.45 -7.55 -2.45 -7.65 -2.45 -7.7 -2.5 -7.65 -2.5 -7.55 -2.55 -7.5 -2.6 -7.5 -2.6 -7.5 -2.65 -7.45 -2.65 -7.45 -2.7 -7.45 -2.7 -7.45 -2.75 -7.45 -2.75 -7.4 -2.7 -7.35 -2.75 -7.35 M-2.5 -7.95 L-2.5 -7.95 M-0.7 -9.2 L-0.7 -9.2 -0.75 -9.15 -0.75 -9.1 Q-0.8 -9.1 -0.8 -9.1 L-0.85 -9.1 -0.85 -9.15 Q-0.8 -9.15 -0.75 -9.15 L-0.7 -9.2" fill="#a16b2d" fill-rule="evenodd" stroke="none"/>
    <path d="M-1.65 -9.3 L-1.65 -9.3 -1.65 -9.3 -1.6 -9.35 -1.55 -9.4 Q-1.55 -9.4 -1.5 -9.4 L-1.35 -9.5 -1.2 -9.55 -1.0 -9.6 -1.0 -9.55 -0.9 -9.55 -0.85 -9.55 -0.85 -9.5 -0.8 -9.5 -0.75 -9.4 -0.8 -9.4 -0.8 -9.4 -0.85 -9.4 -0.85 -9.45 -0.9 -9.45 -0.9 -9.45 -0.95 -9.45 -1.0 -9.45 -1.05 -9.4 -1.15 -9.4 -1.2 -9.35 -1.2 -9.4 -1.25 -9.4 -1.4 -9.35 -1.45 -9.35 -1.5 -9.35 -1.55 -9.3 -1.55 -9.3 -1.6 -9.3 -1.65 -9.3 -1.65 -9.25 -1.65 -9.3" fill="#fafaf2" fill-rule="evenodd" stroke="none"/>
    <path d="M-1.0 -9.2 L-0.95 -9.2 -1.0 -9.15 -1.0 -9.15 -1.05 -9.15 -1.1 -9.15 -1.1 -9.15 -1.05 -9.15 -1.05 -9.2 -1.0 -9.2 -1.0 -9.2 M-1.55 -9.0 L-1.55 -9.0 -1.6 -9.0 -1.55 -9.0 -1.55 -9.05 -1.5 -9.1 -1.5 -9.1 -1.5 -9.15 -1.45 -9.15 -1.45 -9.1 -1.4 -9.15 -1.4 -9.15 -1.4 -9.1 -1.45 -9.05 -1.45 -9.05 -1.45 -9.0 -1.5 -8.95 -1.5 -9.0 -1.55 -9.0 M-1.3 -9.0 L-1.3 -8.95 -1.35 -8.9 -1.35 -8.95 -1.35 -8.95 -1.35 -9.0 -1.3 -9.0" fill="#521f04" fill-rule="evenodd" stroke="none"/>
    <path d="M-1.6 -7.9 L-1.6 -7.9 -1.65 -7.85 -1.7 -7.8 -1.8 -7.75 -1.85 -7.7 -1.95 -7.65 -2.0 -7.65 -2.05 -7.65 -2.0 -7.7 -2.0 -7.8 -1.95 -7.8 -1.95 -7.85 -1.9 -7.85 -1.9 -7.9 -1.85 -7.9 -1.85 -7.95 -1.8 -8.0 -1.8 -8.05 -1.75 -8.05 -1.75 -8.1 -1.75 -8.2 -1.7 -8.2 -1.7 -8.15 -1.7 -8.15 -1.65 -8.2 -1.65 -8.15 -1.7 -8.05 -1.75 -7.9 -1.75 -7.85 -1.7 -7.9 -1.65 -8.0 -1.65 -8.05 -1.6 -8.15 -1.6 -8.2 -1.55 -8.2 -1.5 -8.25 -1.45 -8.2 -1.5 -8.1 -1.55 -8.05 -1.55 -7.95 -1.6 -7.9 M-2.1 -7.6 L-2.1 -7.6 -2.2 -7.5 -2.4 -7.45 -2.45 -7.45 -2.45 -7.45 -2.5 -7.45 -2.45 -7.5 -2.45 -7.55 -2.4 -7.65 -2.35 -7.65 Q-2.35 -7.65 -2.35 -7.7 L-2.3 -7.7 -2.25 -7.75 -2.2 -7.8 -2.25 -7.8 -2.25 -7.85 -2.2 -7.9 -2.2 -7.95 -2.15 -8.0 -2.15 -8.05 -2.1 -8.05 -2.1 -8.05 -2.05 -8.1 -2.05 -8.15 -2.0 -8.15 -2.0 -8.1 -2.05 -8.05 -2.05 -7.95 -2.1 -7.9 -2.15 -7.8 -2.0 -8.05 -2.0 -8.1 -1.95 -8.15 -1.9 -8.2 -1.85 -8.2 -1.85 -8.1 -1.85 -8.05 -1.85 -8.1 -1.8 -8.15 -1.8 -8.15 -1.8 -8.05 -1.85 -8.0 -1.9 -8.0 -1.9 -8.0 -1.9 -7.95 -1.95 -7.9 -1.95 -7.85 -2.0 -7.85 -2.0 -7.8 -2.0 -7.75 -2.05 -7.7 -2.05 -7.65 -2.05 -7.65 -2.1 -7.6 M-0.85 -9.3 L-0.85 -9.3 -0.85 -9.25 -0.9 -9.2 -0.9 -9.2 -0.9 -9.15 -0.95 -9.15 -0.95 -9.15 -0.95 -9.25 -0.9 -9.25 -0.9 -9.25 -0.85 -9.25 -0.85 -9.3 M-1.55 -8.9 L-1.45 -9.0 -1.45 -8.9 -1.5 -8.85 -1.55 -8.8 -1.55 -8.75 -1.6 -8.65 -1.65 -8.65 -1.65 -8.65 -1.6 -8.65 -1.6 -8.7 -1.65 -8.7 -1.65 -8.7 -1.7 -8.65 -1.7 -8.6 -1.75 -8.65 -1.75 -8.65 -1.75 -8.7 -1.7 -8.75 -1.65 -8.8 -1.6 -8.85 -1.55 -8.9 M-1.2 -9.05 L-1.15 -9.1 -1.1 -9.1 -1.1 -9.1 -1.05 -9.1 -1.1 -9.0 -1.15 -9.0 -1.1 -8.95 -1.05 -8.95 -1.05 -8.95 -1.15 -8.95 -1.2 -8.9 -1.2 -8.9 -1.25 -8.85 -1.3 -8.8 -1.3 -8.8 -1.25 -8.75 -1.3 -8.75 -1.3 -8.7 -1.35 -8.7 -1.35 -8.7 -1.4 -8.65 -1.4 -8.6 -1.4 -8.65 -1.45 -8.6 -1.45 -8.6 -1.5 -8.6 -1.5 -8.55 -1.55 -8.55 -1.55 -8.55 -1.5 -8.6 -1.55 -8.6 -1.55 -8.6 -1.6 -8.55 -1.6 -8.6 -1.55 -8.65 -1.55 -8.65 -1.5 -8.65 -1.5 -8.65 -1.45 -8.7 -1.45 -8.8 -1.4 -8.8 -1.35 -8.85 -1.35 -8.8 -1.4 -8.8 -1.35 -8.75 -1.3 -8.8 -1.3 -8.85 -1.25 -8.9 -1.25 -8.95 -1.2 -9.0 -1.2 -9.0 -1.25 -9.0 -1.2 -9.05 -1.2 -9.05 M-1.75 -8.4 L-1.75 -8.4 -1.8 -8.35 -1.8 -8.3 Q-1.8 -8.3 -1.85 -8.3 L-1.85 -8.3 -1.9 -8.3 -1.95 -8.25 -1.95 -8.25 -2.0 -8.3 -1.95 -8.35 -1.9 -8.35 -1.85 -8.45 -1.8 -8.5 -1.8 -8.4 -1.8 -8.45 -1.75 -8.45 -1.75 -8.4" fill="#9d692d" fill-rule="evenodd" stroke="none"/>
    <path d="M-2.1 -8.8 L-2.0 -8.9 -1.7 -9.25 -1.7 -9.25 -1.65 -9.25 -1.65 -9.3 -1.65 -9.3 -1.6 -9.3 -1.55 -9.3 -1.55 -9.3 -1.5 -9.35 -1.45 -9.35 -1.4 -9.35 -1.25 -9.4 -1.2 -9.4 -1.2 -9.35 -1.2 -9.35 -1.25 -9.35 -1.25 -9.35 -1.3 -9.35 -1.3 -9.35 -1.35 -9.35 -1.4 -9.35 -1.4 -9.3 -1.45 -9.3 -1.45 -9.3 -1.5 -9.25 -1.5 -9.25 -1.55 -9.25 -1.55 -9.25 -1.6 -9.25 -1.6 -9.25 -1.65 -9.2 -1.7 -9.2 -1.75 -9.2 -1.75 -9.15 -1.8 -9.15 -1.8 -9.1 -1.85 -9.05 -1.85 -9.05 -1.9 -9.0 -1.9 -9.0 -1.95 -8.95 -2.0 -8.9 -2.0 -8.85 -2.0 -8.85 -2.05 -8.85 -2.05 -8.8 -2.1 -8.8 M-1.7 -9.15 L-1.75 -9.1 -1.75 -9.05 -1.75 -9.05 -1.8 -9.0 -1.85 -8.95 -1.85 -8.95 -1.85 -9.0 -1.85 -9.05 -1.8 -9.05 -1.8 -9.1 -1.75 -9.1 -1.75 -9.15 -1.7 -9.15" fill="#caa368" fill-rule="evenodd" stroke="none"/>
    <path d="M-1.2 -8.8 L-1.2 -8.8 -1.2 -8.7 -1.2 -8.7 -1.2 -8.7 -1.25 -8.7 -1.25 -8.7 -1.25 -8.75 -1.2 -8.8 M-1.05 -8.55 L-1.0 -8.55 -1.05 -8.5 -1.05 -8.45 -1.1 -8.4 Q-1.15 -8.35 -1.15 -8.35 L-1.15 -8.4 -1.2 -8.35 Q-1.2 -8.3 -1.25 -8.3 L-1.35 -8.35 -1.3 -8.35 -1.3 -8.4 -1.25 -8.45 -1.2 -8.5 -1.1 -8.6 -1.1 -8.6 -1.1 -8.55 -1.15 -8.5 -1.1 -8.5 -1.05 -8.55" fill="#9e672f" fill-rule="evenodd" stroke="none"/>
    <path d="M-0.95 -8.8 L-0.9 -8.8 -0.95 -8.8 -0.95 -8.8 -0.9 -8.75 -0.9 -8.75 -0.95 -8.7 -0.95 -8.7 -0.95 -8.65 Q-1.0 -8.6 -1.0 -8.6 L-1.0 -8.6 -1.05 -8.65 -1.0 -8.65 -1.0 -8.75 Q-1.0 -8.75 -1.0 -8.8 L-0.95 -8.8 M-1.0 -8.8 L-1.05 -8.8 -1.15 -8.75 -1.15 -8.85 -1.1 -8.9 -1.1 -8.9 -1.05 -8.9 -1.05 -8.95 -1.0 -8.95 -0.95 -8.95 -1.0 -8.9 -1.0 -8.85 -0.95 -8.9 -0.95 -8.9 -0.9 -8.9 -0.9 -8.85 -0.95 -8.85 -0.95 -8.85 -1.0 -8.85 -1.0 -8.8" fill="#976329" fill-rule="evenodd" stroke="none"/>
    <path d="M-0.85 -9.05 L-0.8 -9.05 -0.8 -9.0 -0.85 -8.95 -0.85 -8.95 -0.9 -8.95 -0.9 -8.95 -0.85 -9.0 -0.85 -9.05 M-0.85 -8.9 L-0.8 -8.9 -0.8 -8.9 -0.8 -8.85 -0.85 -8.85 -0.9 -8.85 -0.9 -8.85 -0.95 -8.8 -1.0 -8.8 Q-1.0 -8.75 -1.0 -8.75 L-1.0 -8.8 -1.0 -8.85 -0.95 -8.85 -0.95 -8.85 -0.9 -8.85 -0.9 -8.9 -0.85 -8.9" fill="#4e1f03" fill-rule="evenodd" stroke="none"/>
    <path d="M-0.25 -9.35 L-0.3 -9.35 -0.3 -9.35 -0.25 -9.4 -0.25 -9.45 -0.2 -9.45 -0.2 -9.4 -0.2 -9.4 -0.15 -9.4 -0.15 -9.4 -0.1 -9.4 -0.05 -9.4 -0.1 -9.4 -0.1 -9.4 -0.1 -9.35 -0.15 -9.4 -0.2 -9.4 -0.2 -9.35 -0.25 -9.35 -0.25 -9.35" fill="#783c17" fill-rule="evenodd" stroke="none"/>
    <path d="M-0.35 -9.4 L-0.35 -9.45 -0.35 -9.5 -0.3 -9.45 -0.25 -9.45 -0.3 -9.45 -0.35 -9.4 -0.35 -9.4" fill="#c6aa7a" fill-rule="evenodd" stroke="none"/>
    <path d="M-0.05 -9.35 L-0.05 -9.35 Q-0.05 -9.3 -0.05 -9.3 L-0.05 -9.3 -0.05 -9.35 -0.05 -9.35" fill="#8b5014" fill-rule="evenodd" stroke="none"/>
    <path d="M-0.2 -9.2 L-0.2 -9.25 -0.15 -9.3 -0.15 -9.3 -0.1 -9.35 Q-0.1 -9.35 -0.1 -9.3 L-0.1 -9.25 -0.05 -9.3 -0.05 -9.25 -0.1 -9.2 -0.1 -9.2 -0.15 -9.15 -0.2 -9.15 -0.2 -9.15 -0.2 -9.15 -0.2 -9.2" fill="#774723" fill-rule="evenodd" stroke="none"/>
    <path d="M-0.65 -9.15 L-0.65 -9.05 -0.6 -9.05 -0.6 -9.0 -0.55 -9.0 -0.55 -9.0 -0.5 -8.95 -0.5 -8.95 -0.35 -9.0 -0.25 -9.1 -0.25 -9.15 Q-0.2 -9.15 -0.2 -9.15 L-0.2 -9.2 -0.2 -9.15 -0.2 -9.15 -0.25 -9.15 -0.25 -9.1 -0.3 -9.05 -0.3 -9.0 -0.35 -9.0 -0.35 -9.0 -0.35 -8.95 -0.4 -8.95 -0.4 -8.9 -0.45 -8.9 -0.45 -8.9 Q-0.5 -8.85 -0.5 -8.85 L-0.5 -8.85 -0.5 -8.9 -0.55 -8.9 -0.6 -8.9 -0.6 -8.95 -0.6 -8.95 -0.65 -9.0 -0.65 -9.05 -0.65 -9.15" fill="#f9f6ef" fill-rule="evenodd" stroke="none"/>
    <path d="M-0.45 -8.7 L-0.45 -8.7 -0.4 -8.7 -0.35 -8.65 -0.4 -8.6 -0.45 -8.6 -0.45 -8.5 -0.45 -8.45 -0.45 -8.35 -0.45 -8.45 -0.45 -8.45 -0.5 -8.4 -0.55 -8.4 -0.5 -8.45 -0.5 -8.55 -0.5 -8.55 -0.5 -8.6 -0.45 -8.65 -0.45 -8.65 -0.5 -8.65 -0.55 -8.65 -0.55 -8.65 -0.6 -8.65 -0.6 -8.65 -0.65 -8.7 -0.65 -8.7 -0.65 -8.75 -0.65 -8.75 -0.6 -8.75 -0.6 -8.7 -0.6 -8.7 -0.55 -8.7 -0.55 -8.7 -0.5 -8.7 -0.5 -8.75 -0.45 -8.7 M-0.65 -8.7 L-0.65 -8.7" fill="#3d1c0d" fill-rule="evenodd" stroke="none"/>
    <path d="M-0.45 -8.9 L-0.45 -8.8 -0.45 -8.7 -0.5 -8.75 -0.5 -8.7 -0.55 -8.7 -0.55 -8.7 -0.6 -8.7 -0.6 -8.7 -0.6 -8.75 -0.6 -8.8 Q-0.55 -8.8 -0.55 -8.85 L-0.55 -8.85 -0.5 -8.85 -0.5 -8.85 -0.5 -8.85 Q-0.5 -8.85 -0.45 -8.9" fill="#a36b2e" fill-rule="evenodd" stroke="none"/>
    <path d="M-0.15 -9.05 L-0.1 -9.05 -0.1 -9.05 -0.05 -9.05 -0.05 -9.05 -0.1 -9.05 -0.1 -9.05 -0.15 -9.05 -0.15 -9.05" fill="#95612f" fill-rule="evenodd" stroke="none"/>
    <path d="M-0.2 -9.15 L-0.2 -9.15 -0.2 -9.15 -0.2 -9.15 -0.2 -9.1 -0.25 -9.1 -0.25 -9.1 -0.25 -9.15 -0.2 -9.15" fill="#512814" fill-rule="evenodd" stroke="none"/>
    <path d="M-0.2 -9.15 L-0.2 -9.1 -0.2 -9.1 -0.25 -9.1 -0.25 -9.05 -0.25 -9.05 -0.3 -9.05 -0.3 -9.0 -0.3 -9.05 -0.25 -9.1 -0.25 -9.1 -0.2 -9.1 -0.2 -9.15 -0.2 -9.15 -0.2 -9.15" fill="#734523" fill-rule="evenodd" stroke="none"/>
    <path d="M-0.25 -8.95 L-0.2 -8.95 -0.2 -8.95 -0.15 -8.9 -0.15 -8.9 -0.2 -8.85 -0.2 -8.9 -0.25 -8.9 -0.25 -8.9 -0.3 -8.9 -0.25 -8.9 -0.25 -8.9 -0.25 -8.95" fill="#6d3512" fill-rule="evenodd" stroke="none"/>
    <path d="M-0.2 -8.85 L-0.2 -8.8 -0.2 -8.8 -0.2 -8.8 -0.2 -8.75 -0.25 -8.75 -0.25 -8.8 -0.25 -8.85 -0.25 -8.85 -0.3 -8.85 -0.3 -8.85 -0.3 -8.9 -0.3 -8.9 -0.25 -8.9 -0.25 -8.9 -0.2 -8.9 -0.2 -8.85" fill="#efcd9f" fill-rule="evenodd" stroke="none"/>
    <path d="M-2.15 -8.65 L-2.1 -8.75 -2.1 -8.8 -2.05 -8.8 -2.05 -8.85 -2.0 -8.85 -2.0 -8.85 -2.0 -8.9 -1.95 -8.95 -1.9 -9.0 -1.9 -9.0 -1.85 -9.05 -1.85 -9.05 -1.8 -9.1 -1.8 -9.15 -1.75 -9.15 -1.75 -9.2 -1.7 -9.2 -1.65 -9.2 -1.6 -9.25 -1.6 -9.25 -1.6 -9.2 -1.65 -9.2 -1.7 -9.2 -1.7 -9.15 -1.75 -9.15 -1.75 -9.1 -1.8 -9.1 -1.8 -9.05 -1.85 -9.05 -1.85 -9.0 -1.85 -8.95 -1.9 -8.9 -1.9 -8.9 -1.95 -8.9 -2.0 -8.85 -2.0 -8.8 -2.05 -8.75 -2.1 -8.7 -2.1 -8.7 -2.15 -8.65 -2.15 -8.65" fill="#9f6d32" fill-rule="evenodd" stroke="none"/>
    <path d="M-1.25 -8.65 L-1.2 -8.7 -1.2 -8.65 -1.2 -8.65 -1.2 -8.55 -1.25 -8.5 Q-1.3 -8.5 -1.3 -8.5 L-1.3 -8.55 -1.3 -8.5 -1.35 -8.45 -1.35 -8.45 -1.4 -8.4 -1.4 -8.45 -1.45 -8.4 -1.5 -8.35 -1.55 -8.35 -1.55 -8.3 -1.6 -8.25 -1.6 -8.25 -1.65 -8.25 -1.7 -8.25 -1.75 -8.25 -1.75 -8.3 -1.7 -8.35 -1.65 -8.45 -1.6 -8.45 -1.6 -8.4 -1.6 -8.4 -1.55 -8.45 -1.55 -8.45 -1.55 -8.5 -1.5 -8.45 -1.5 -8.45 -1.45 -8.5 -1.45 -8.5 -1.4 -8.5 -1.4 -8.55 -1.35 -8.6 -1.3 -8.6 -1.25 -8.65" fill="#9d6228" fill-rule="evenodd" stroke="none"/>
    <path d="M-1.1 -8.6 L-1.1 -8.6 -1.05 -8.6 -1.05 -8.55 -1.1 -8.5 -1.15 -8.5 -1.1 -8.55 -1.1 -8.6 M-1.45 -8.35 L-1.4 -8.4 -1.35 -8.4 -1.35 -8.45 -1.3 -8.4 -1.3 -8.4 -1.35 -8.35 -1.4 -8.3 -1.4 -8.3 -1.45 -8.3 -1.45 -8.35" fill="#4d2607" fill-rule="evenodd" stroke="none"/>
    <path d="M-1.35 -7.9 L-1.35 -7.9 -1.4 -7.9 -1.45 -7.9 -1.5 -7.9 -1.5 -7.9 -1.5 -8.0 -1.45 -8.05 -1.45 -8.05 -1.45 -8.1 -1.45 -8.1 -1.5 -8.1 -1.45 -8.15 -1.45 -8.2 -1.4 -8.25 -1.4 -8.25 -1.35 -8.25 -1.35 -8.3 -1.35 -8.3 -1.3 -8.3 -1.3 -8.25 -1.35 -8.2 -1.35 -8.1 -1.35 -8.05 -1.3 -8.1 -1.3 -8.15 -1.3 -8.2 -1.3 -8.25 -1.25 -8.3 -1.25 -8.3 -1.2 -8.3 -1.15 -8.3 -1.15 -8.35 -1.1 -8.35 -1.05 -8.4 -1.05 -8.4 -1.0 -8.45 -1.0 -8.45 -0.95 -8.5 -0.95 -8.45 -1.0 -8.4 -0.95 -8.4 -0.95 -8.4 -0.95 -8.3 -1.0 -8.3 -1.0 -8.3 -1.05 -8.25 -1.1 -8.25 -1.1 -8.25 -1.15 -8.25 -1.2 -8.25 -1.2 -8.2 Q-1.2 -8.15 -1.2 -8.15 L-1.25 -8.15 -1.25 -8.1 -1.25 -8.05 -1.25 -8.05 -1.3 -8.0 -1.3 -7.95 -1.3 -7.9 -1.35 -7.9" fill="#a26c30" fill-rule="evenodd" stroke="none"/>
    <path d="M-2.35 -8.35 L-2.35 -8.4 -2.25 -8.5 -2.15 -8.65 -2.15 -8.65 -2.15 -8.65 -2.1 -8.7 -2.1 -8.7 -2.1 -8.7 -2.05 -8.65 -2.05 -8.65 -2.1 -8.6 -2.15 -8.6 -2.15 -8.55 -2.2 -8.5 -2.2 -8.5 -2.2 -8.45 -2.25 -8.4 -2.3 -8.35 -2.25 -8.35 -2.25 -8.3 -2.3 -8.3 -2.35 -8.25 -2.3 -8.25 -2.35 -8.2 -2.35 -8.15 -2.4 -8.1 -2.4 -8.05 -2.45 -8.05 -2.45 -8.0 -2.5 -7.95 -2.5 -7.95 -2.5 -8.05 -2.5 -8.05 -2.45 -8.1 -2.45 -8.15 -2.4 -8.15 -2.4 -8.2 -2.35 -8.25 -2.35 -8.3 -2.35 -8.35 -2.35 -8.35" fill="#bf9e69" fill-rule="evenodd" stroke="none"/>
    <path d="M-2.8 -7.55 L-2.8 -7.65 -2.75 -7.7 -2.75 -7.75 -2.7 -7.75 -2.7 -7.8 -2.65 -7.85 -2.65 -7.85 -2.6 -7.85 -2.6 -7.8 -2.65 -7.75 -2.65 -7.7 -2.7 -7.65 -2.7 -7.65 -2.75 -7.6 -2.75 -7.6 -2.75 -7.55 -2.8 -7.55 M-2.6 -7.95 L-2.55 -8.05 -2.45 -8.15 -2.4 -8.25 -2.35 -8.35 -2.35 -8.35 -2.35 -8.3 -2.35 -8.25 -2.4 -8.2 -2.4 -8.15 -2.45 -8.15 -2.45 -8.1 -2.5 -8.05 -2.5 -8.05 -2.5 -7.95 -2.55 -7.9 -2.55 -7.95 -2.6 -7.95 -2.6 -7.95 M-2.5 -7.95 L-2.5 -7.95" fill="#e9c799" fill-rule="evenodd" stroke="none"/>
    <path d="M-2.8 -7.5 L-2.8 -7.55 -2.75 -7.55 -2.75 -7.6 -2.75 -7.6 -2.7 -7.65 -2.7 -7.65 -2.65 -7.7 -2.65 -7.75 -2.6 -7.8 -2.6 -7.85 -2.65 -7.85 -2.65 -7.85 -2.65 -7.9 -2.6 -7.95 -2.6 -7.95 -2.6 -7.95 -2.55 -7.95 -2.55 -7.9 -2.5 -7.95 -2.5 -7.85 -2.55 -7.85 -2.6 -7.85 -2.6 -7.75 -2.6 -7.65 -2.65 -7.65 -2.7 -7.6 -2.7 -7.6 -2.7 -7.6 -2.7 -7.55 -2.75 -7.55 -2.75 -7.5 Q-2.75 -7.5 -2.8 -7.5" fill="#cea271" fill-rule="evenodd" stroke="none"/>
    <path d="M-0.65 -8.7 L-0.6 -8.65 -0.65 -8.6 -0.65 -8.6 -0.6 -8.6 -0.6 -8.55 -0.55 -8.55 -0.55 -8.5 -0.55 -8.45 -0.6 -8.45 -0.6 -8.4 -0.6 -8.4 -0.65 -8.35 -0.65 -8.35 -0.65 -8.4 -0.7 -8.4 -0.7 -8.35 -0.75 -8.35 -0.75 -8.3 -0.8 -8.25 -0.8 -8.25 -0.8 -8.2 -0.85 -8.2 -0.85 -8.15 -0.9 -8.15 -0.9 -8.1 -0.95 -8.1 -0.95 -8.1 -0.95 -8.1 -0.95 -8.15 -1.0 -8.15 -1.0 -8.05 -1.05 -8.05 -1.05 -8.0 -1.05 -8.1 -1.1 -8.1 -1.05 -8.15 -1.05 -8.2 -1.05 -8.2 -1.0 -8.2 -1.0 -8.2 -0.95 -8.25 -0.95 -8.25 -0.95 -8.3 -0.9 -8.3 -0.9 -8.3 -0.85 -8.35 -0.8 -8.4 -0.8 -8.35 -0.75 -8.35 -0.75 -8.4 -0.7 -8.45 -0.7 -8.5 -0.7 -8.55 -0.7 -8.6 -0.65 -8.7 -0.65 -8.7" fill="#a06a2a" fill-rule="evenodd" stroke="none"/>
    <path d="M-0.55 -8.4 L-0.55 -8.3 Q-0.6 -8.3 -0.6 -8.3 L-0.6 -8.25 -0.65 -8.25 -0.65 -8.25 -0.7 -8.25 -0.7 -8.3 -0.65 -8.3 -0.65 -8.35 -0.6 -8.35 -0.55 -8.4 M-0.5 -8.3 L-0.45 -8.3 -0.45 -8.2 -0.45 -8.15 -0.5 -8.15 -0.5 -8.1 -0.55 -8.1 -0.55 -8.15 -0.6 -8.15 -0.6 -8.15 -0.6 -8.2 -0.6 -8.2 -0.55 -8.25 -0.55 -8.25 -0.5 -8.3" fill="#955e28" fill-rule="evenodd" stroke="none"/>
    <path d="M-0.45 -8.25 L-0.4 -8.25 -0.4 -8.2 -0.4 -8.15 -0.4 -8.1 -0.4 -8.05 -0.45 -8.05 -0.45 -8.0 Q-0.45 -7.95 -0.5 -7.95 L-0.5 -8.05 -0.45 -8.1 -0.45 -8.1 -0.45 -8.15 -0.45 -8.25" fill="#44240d" fill-rule="evenodd" stroke="none"/>
    <path d="M-0.6 -7.6 L-0.65 -7.6 -0.65 -7.6 -0.6 -7.65 -0.55 -7.65 -0.55 -7.75 -0.55 -7.75 -0.6 -7.75 -0.6 -7.7 -0.6 -7.65 -0.65 -7.7 -0.65 -7.7 -0.6 -7.75 -0.6 -7.75 -0.65 -7.75 -0.65 -7.8 -0.6 -7.8 -0.6 -7.8 -0.6 -7.85 -0.6 -7.9 -0.6 -7.9 -0.6 -7.9 -0.65 -7.85 -0.7 -7.8 -0.75 -7.8 -0.75 -7.8 -0.7 -7.85 -0.7 -7.85 -0.7 -7.9 -0.65 -7.95 -0.6 -8.0 -0.65 -8.0 -0.6 -8.0 -0.6 -8.05 -0.55 -8.05 -0.55 -8.0 -0.55 -8.0 -0.55 -7.95 -0.5 -7.9 -0.5 -7.9 -0.5 -7.85 -0.5 -7.8 -0.45 -7.8 -0.45 -7.8 -0.5 -7.8 -0.5 -7.8 -0.55 -7.85 -0.55 -7.8 -0.55 -7.8 -0.5 -7.75 -0.5 -7.75 -0.5 -7.75 -0.5 -7.7 -0.55 -7.7 -0.5 -7.65 -0.5 -7.6 -0.55 -7.65 -0.55 -7.65 -0.6 -7.6" fill="#221816" fill-rule="evenodd" stroke="none"/>
    <path d="M-0.7 -8.05 L-0.65 -8.05 -0.65 -8.0 -0.65 -7.95 -0.7 -7.95 -0.7 -7.95 -0.75 -7.9 -0.75 -7.9 -0.8 -7.9 -0.8 -7.9 -0.75 -7.95 -0.75 -8.0 -0.8 -8.0 -0.8 -8.05 -0.75 -8.05 -0.75 -8.05 -0.7 -8.0 -0.7 -8.05" fill="#9f6327" fill-rule="evenodd" stroke="none"/>
    <path d="M-0.15 -8.2 L-0.15 -8.15 -0.2 -8.15 -0.2 -8.2 -0.2 -8.25 -0.25 -8.25 -0.2 -8.3 -0.2 -8.3 -0.15 -8.25 -0.15 -8.2 M-0.25 -8.2 L-0.25 -8.15 -0.25 -8.1 -0.3 -8.15 -0.3 -8.15 -0.35 -8.15 -0.35 -8.2 -0.3 -8.2 -0.3 -8.2 -0.3 -8.2 -0.25 -8.2" fill="#421d0b" fill-rule="evenodd" stroke="none"/>
    <path d="M-1.15 -8.25 L-1.1 -8.25 -1.1 -8.15 -1.15 -8.15 -1.15 -8.1 -1.2 -8.05 -1.25 -8.0 -1.25 -7.95 -1.2 -8.1 -1.15 -8.25" fill="#511f04" fill-rule="evenodd" stroke="none"/>
    <path d="M-1.2 -7.9 L-1.2 -7.9 -1.25 -7.9 -1.3 -7.85 -1.3 -7.9 -1.25 -7.95 -1.25 -8.0 -1.2 -8.05 -1.15 -8.1 -1.15 -8.15 -1.15 -8.05 -1.15 -8.0 -1.15 -8.05 -1.1 -8.0 -1.15 -7.95 -1.15 -7.9 -1.2 -7.9" fill="#a16e37" fill-rule="evenodd" stroke="none"/>
    <path d="M-0.9 -8.1 L-0.9 -8.05 -0.9 -8.05 -0.95 -8.0 -0.95 -7.95 -0.95 -8.0 -0.95 -8.1 -1.0 -8.05 -1.05 -8.0 -1.05 -8.0 -1.05 -8.0 -1.05 -8.05 -1.0 -8.05 -1.0 -8.15 -0.95 -8.15 -0.95 -8.1 -0.95 -8.1 -0.9 -8.1" fill="#4d1e04" fill-rule="evenodd" stroke="none"/>
    <path d="M-0.9 -8.05 L-0.9 -8.1 -0.85 -8.1 -0.85 -8.1 -0.85 -8.0 -0.85 -8.0 -0.9 -8.0 -0.9 -7.95 -0.9 -7.95 -0.95 -7.9 -0.95 -7.85 -1.0 -7.85 -1.05 -7.85 -1.05 -7.95 -1.05 -7.95 -1.0 -7.95 -1.0 -8.0 -0.95 -8.0 -0.95 -7.95 -0.95 -8.0 -0.9 -8.05 -0.9 -8.05" fill="#a06b29" fill-rule="evenodd" stroke="none"/>
    <path d="M-0.2 -7.8 L-0.15 -7.8 -0.15 -7.8 -0.2 -7.75 -0.2 -7.7 -0.2 -7.65 -0.2 -7.65 -0.15 -7.6 -0.15 -7.6 -0.2 -7.55 -0.2 -7.6 -0.2 -7.6 -0.25 -7.6 -0.25 -7.55 -0.25 -7.6 -0.3 -7.6 -0.25 -7.65 -0.25 -7.65 -0.25 -7.65 -0.3 -7.7 -0.3 -7.7 -0.25 -7.7 -0.25 -7.7 -0.25 -7.75 -0.2 -7.8 -0.2 -7.8" fill="#9f6d30" fill-rule="evenodd" stroke="none"/>
    <path d="M-0.3 -6.85 L-0.3 -6.85 -0.35 -6.85 -0.35 -6.85 -0.35 -6.85 -0.35 -6.9 -0.35 -7.05 -0.35 -7.1 -0.4 -7.25 -0.4 -7.3 -0.45 -7.4 -0.45 -7.45 -0.45 -7.4 -0.45 -7.45 -0.4 -7.45 -0.35 -7.45 -0.35 -7.35 -0.35 -7.35 -0.35 -7.3 -0.35 -7.15 -0.35 -7.1 -0.3 -7.05 -0.3 -7.1 -0.3 -7.2 -0.3 -7.25 -0.25 -7.3 -0.3 -7.35 -0.3 -7.4 -0.25 -7.45 -0.25 -7.5 -0.25 -7.5 -0.2 -7.55 -0.2 -7.55 -0.2 -7.55 -0.2 -7.5 -0.2 -7.45 -0.25 -7.45 -0.25 -7.35 -0.25 -7.35 -0.2 -7.35 -0.2 -7.3 -0.25 -7.3 -0.25 -7.2 -0.25 -7.2 -0.2 -7.15 -0.2 -7.15 -0.2 -7.1 -0.2 -7.0 -0.25 -7.0 -0.25 -6.95 -0.3 -6.85 -0.3 -6.85" fill="#986536" fill-rule="evenodd" stroke="none"/>
    <path d="M-0.2 -6.9 L-0.2 -6.9 -0.2 -6.85 -0.25 -6.85 -0.25 -6.85 -0.3 -6.85 -0.3 -6.85 -0.25 -6.95 -0.25 -7.0 -0.2 -7.0 -0.2 -7.1 -0.2 -7.15 -0.2 -7.15 -0.25 -7.2 -0.25 -7.2 -0.25 -7.3 -0.2 -7.3 -0.2 -7.35 -0.25 -7.35 -0.25 -7.35 -0.25 -7.45 -0.2 -7.45 -0.2 -7.5 -0.2 -7.55 -0.15 -7.55 -0.15 -7.5 -0.1 -7.5 -0.1 -7.5 -0.1 -7.45 -0.1 -7.45 -0.1 -7.35 -0.05 -7.3 -0.05 -7.25 -0.05 -7.15 -0.05 -7.15 -0.1 -7.2 -0.1 -7.25 -0.1 -7.3 -0.1 -7.3 -0.15 -7.3 -0.15 -7.25 -0.15 -7.1 -0.15 -7.05 -0.15 -7.0 -0.2 -6.95 -0.2 -6.9 M-0.1 -7.3 L-0.1 -7.3" fill="#bd9766" fill-rule="evenodd" stroke="none"/>
    <path d="M-0.7 -6.9 L-0.6 -7.2 -0.5 -7.5 -0.5 -7.5 -0.5 -7.5 -0.5 -7.45 -0.55 -7.35 -0.55 -7.2 -0.6 -7.1 -0.6 -7.05 -0.65 -7.05 -0.65 -6.95 -0.6 -6.95 -0.6 -6.95 -0.6 -6.9 -0.7 -6.9" fill="#895e3b" fill-rule="evenodd" stroke="none"/>
    <path d="M-0.35 -6.85 L-0.4 -6.85 -0.45 -6.85 -0.45 -6.85 -0.5 -6.8 -0.5 -6.8 -0.55 -6.8 -0.55 -6.8 -0.55 -6.85 -0.6 -6.85 -0.6 -6.9 -0.6 -6.95 -0.6 -6.95 -0.65 -6.95 -0.65 -7.05 -0.6 -7.05 -0.6 -7.05 -0.55 -7.1 -0.55 -7.15 -0.55 -7.2 -0.5 -7.25 -0.5 -7.35 -0.5 -7.4 -0.5 -7.45 -0.45 -7.4 -0.45 -7.3 -0.45 -7.2 -0.4 -7.2 -0.4 -7.1 -0.35 -7.05 -0.35 -6.9 -0.35 -6.85" fill="#3c1b08" fill-rule="evenodd" stroke="none"/>
    <path d="M-0.05 -6.9 L-0.05 -6.9 -0.1 -6.95 -0.1 -6.95 -0.15 -6.9 -0.2 -6.9 -0.2 -6.95 -0.15 -7.0 -0.15 -7.05 -0.15 -7.1 -0.15 -7.25 -0.15 -7.3 -0.1 -7.3 -0.1 -7.3 -0.1 -7.25 -0.1 -7.2 -0.05 -7.15 -0.05 -7.15 -0.05 -7.1 -0.05 -6.9 M-0.1 -7.3 L-0.1 -7.3" fill="#d9c0a2" fill-rule="evenodd" stroke="none"/>
    <path d="M-0.45 -5.85 L-0.45 -5.8 -0.5 -5.85 -0.55 -5.9 -0.6 -5.95 -0.6 -5.95 -0.65 -5.95 -0.65 -6.1 -0.65 -6.1 -0.6 -6.05 -0.55 -6.05 -0.5 -6.05 -0.5 -6.0 -0.45 -6.0 -0.45 -5.95 -0.45 -5.9 -0.45 -5.85 -0.45 -5.85 M-0.5 -6.75 L-0.5 -6.75 -0.45 -6.75 -0.4 -6.7 -0.35 -6.7 -0.35 -6.6 -0.35 -6.55 -0.35 -6.5 -0.35 -6.45 -0.35 -6.3 -0.35 -6.2 -0.35 -6.05 -0.35 -6.0 -0.4 -6.05 -0.4 -6.1 -0.45 -6.1 -0.45 -6.1 -0.5 -6.1 -0.5 -6.15 -0.5 -6.2 -0.5 -6.25 -0.5 -6.3 -0.5 -6.35 -0.5 -6.4 -0.5 -6.45 -0.55 -6.5 -0.5 -6.6 -0.5 -6.65 -0.55 -6.65 -0.55 -6.7 -0.5 -6.75 -0.5 -6.75" fill="#c19b6a" fill-rule="evenodd" stroke="none"/>
    <path d="M-0.65 -6.1 L-0.65 -6.15 -0.65 -6.15 -0.65 -6.15 -0.6 -6.2 -0.6 -6.25 -0.6 -6.25 -0.6 -6.3 -0.6 -6.35 -0.6 -6.4 -0.55 -6.45 -0.55 -6.45 -0.5 -6.4 -0.5 -6.35 -0.5 -6.3 -0.5 -6.25 -0.5 -6.2 -0.5 -6.15 -0.5 -6.1 -0.45 -6.1 -0.45 -6.1 -0.4 -6.1 -0.4 -6.05 -0.35 -6.0 -0.35 -6.0 -0.4 -6.0 -0.4 -5.95 -0.45 -5.95 -0.45 -6.0 -0.5 -6.0 -0.5 -6.05 -0.55 -6.05 -0.6 -6.05 -0.65 -6.1 -0.65 -6.1" fill="#794c23" fill-rule="evenodd" stroke="none"/>
    <path d="M0.45 7.9 L0.4 7.95 0.35 8.0 0.25 8.0 0.2 8.0 0.15 8.0 0.05 8.0 -0.1 7.95 -0.15 7.8 -0.15 7.7 -0.05 7.7 -0.05 7.75 0.05 7.85 0.15 7.9 0.25 7.85 0.3 7.9 0.4 7.9 0.45 7.9 M0.0 7.9 L0.15 7.95 0.25 7.95 0.35 7.9 0.15 7.9 0.0 7.85 0.0 7.9" fill="#6f4e44" fill-rule="evenodd" stroke="none"/>
    <path d="M2.05 -8.95 L2.05 -9.0 2.0 -9.05 2.0 -9.1 1.95 -9.15 1.8 -9.3 1.7 -9.35 Q1.65 -9.4 1.65 -9.4 L1.6 -9.45 1.5 -9.45 1.45 -9.45 1.4 -9.45 1.4 -9.45 1.35 -9.45 1.3 -9.4 1.3 -9.45 1.25 -9.4 1.2 -9.4 1.15 -9.4 1.15 -9.35 1.1 -9.35 1.05 -9.3 1.0 -9.25 0.95 -9.2 0.9 -9.2 0.8 -9.15 0.8 -9.1 0.75 -9.1 0.7 -9.05 0.65 -9.0 0.6 -9.0 0.6 -9.0 0.55 -9.0 0.5 -9.0 0.45 -9.0 0.45 -9.0 0.4 -9.05 0.4 -9.1 0.4 -9.25 0.35 -9.3 0.35 -9.4 0.3 -9.5 0.25 -9.5 0.25 -9.55 0.2 -9.55 0.15 -9.6 0.05 -9.6 0.0 -9.6 0.0 -9.6 -0.05 -9.6 -0.1 -9.6 -0.15 -9.55 -0.2 -9.55 -0.25 -9.55 -0.25 -9.5 -0.3 -9.5 -0.35 -9.5 -0.35 -9.5 -0.35 -9.45 -0.35 -9.4 -0.35 -9.35 -0.3 -9.35 -0.25 -9.35 -0.25 -9.35 -0.2 -9.35 -0.15 -9.3 -0.2 -9.25 -0.2 -9.2 -0.2 -9.15 Q-0.2 -9.15 -0.25 -9.15 L-0.25 -9.1 -0.35 -9.0 -0.5 -8.95 -0.5 -8.95 -0.55 -9.0 -0.55 -9.0 -0.6 -9.0 -0.6 -9.05 -0.65 -9.05 -0.65 -9.15 -0.7 -9.2 -0.65 -9.2 -0.7 -9.2 -0.7 -9.3 -0.75 -9.4 -0.8 -9.5 -0.85 -9.5 -0.85 -9.55 -0.9 -9.55 -1.0 -9.55 -1.0 -9.6 -1.2 -9.55 -1.35 -9.5 -1.5 -9.4 Q-1.55 -9.4 -1.55 -9.4 L-1.6 -9.35 -1.65 -9.3 -1.65 -9.3 -1.65 -9.3 -1.65 -9.3 -1.7 -9.25 -1.7 -9.25 -2.0 -8.9 -2.1 -8.8 -2.1 -8.75 -2.15 -8.65 -2.15 -8.65 -2.25 -8.5 -2.35 -8.4 -2.35 -8.35 -2.4 -8.25 -2.45 -8.15 -2.55 -8.05 -2.6 -7.95 -2.6 -7.95 -2.65 -7.9 -2.65 -7.85 -2.7 -7.8 -2.7 -7.75 -2.75 -7.75 -2.75 -7.7 -2.8 -7.65 -2.8 -7.55 -2.8 -7.5 -2.8 -7.35 -2.75 -7.35 -2.65 -7.4 Q-2.6 -7.4 -2.55 -7.4 L-2.45 -7.45 -2.4 -7.45 -2.2 -7.5 -2.1 -7.6 -2.1 -7.6 -2.05 -7.6 -2.05 -7.65 -2.0 -7.65 -1.95 -7.65 -1.85 -7.7 -1.8 -7.75 -1.7 -7.8 -1.65 -7.85 -1.6 -7.9 -1.6 -7.9 -1.55 -7.9 -1.55 -7.9 -1.5 -7.9 -1.45 -7.9 -1.4 -7.9 -1.35 -7.9 -1.35 -7.9 -1.3 -7.9 -1.3 -7.9 -1.3 -7.85 -1.25 -7.9 -1.2 -7.9 -1.2 -7.9 -1.15 -7.9 -1.15 -7.85 -1.1 -7.85 -1.1 -7.85 -1.05 -7.8 -1.05 -7.8 -1.0 -7.85 -0.95 -7.85 -0.95 -7.85 -0.95 -7.8 -0.9 -7.75 -0.8 -7.7 -0.75 -7.7 -0.7 -7.65 -0.7 -7.65 -0.65 -7.65 -0.65 -7.6 -0.65 -7.6 -0.6 -7.6 -0.55 -7.55 -0.55 -7.55 -0.55 -7.55 -0.5 -7.55 -0.5 -7.5 -0.5 -7.5 -0.6 -7.2 -0.7 -6.9 -0.7 -6.85 -0.7 -6.65 -0.7 -6.45 -0.7 -6.4 -0.65 -6.2 -0.65 -6.15 -0.65 -6.15 -0.65 -6.1 -0.65 -5.95 -0.6 -5.95 -0.6 -5.95 -0.55 -5.9 -0.5 -5.85 -0.45 -5.8 -0.45 -5.85 -0.4 -5.85 -0.35 -5.85 -0.3 -5.85 -0.25 -5.85 -0.25 -5.85 M2.2 -8.6 L2.1 -8.9 2.05 -8.95 M2.6 -7.3 L2.65 -7.3 2.65 -7.4 2.6 -7.45 2.55 -7.6 2.45 -7.7 2.4 -7.9 2.35 -8.05 2.35 -8.1 2.3 -8.2 2.25 -8.35 2.2 -8.55 2.2 -8.55 2.2 -8.6 M2.6 -7.3 L2.6 -7.25 2.55 -7.25 2.5 -7.25 2.45 -7.25 2.45 -7.25 2.4 -7.3 2.35 -7.3 2.35 -7.3 2.3 -7.3 2.3 -7.3 2.3 -7.35 2.25 -7.35 2.25 -7.35 2.15 -7.4 2.1 -7.4 2.05 -7.45 2.05 -7.45 2.0 -7.45 2.0 -7.5 1.85 -7.55 1.7 -7.65 1.7 -7.65 1.65 -7.65 1.6 -7.65 1.55 -7.65 1.55 -7.7 1.5 -7.7 1.45 -7.7 1.45 -7.7 1.45 -7.7 1.4 -7.7 1.35 -7.75 1.3 -7.8 1.3 -7.8 1.25 -7.8 1.15 -7.75 1.1 -7.8 1.05 -7.8 1.05 -7.8 1.0 -7.8 0.95 -7.8 0.95 -7.75 0.9 -7.75 0.85 -7.7 0.8 -7.7 0.8 -7.7 0.75 -7.7 0.7 -7.65 0.65 -7.7 0.65 -7.65 0.55 -7.65 0.55 -7.65 0.5 -7.65 0.5 -7.65 0.45 -7.6 0.45 -7.6 0.45 -7.6 0.4 -7.6 0.35 -7.6 0.35 -7.55 0.35 -7.45 0.35 -7.3 0.35 -7.15 0.35 -7.1 0.35 -7.05 0.35 -7.0 0.4 -7.0 0.45 -7.0 0.6 -6.95 0.65 -6.95 0.7 -6.9 0.75 -6.85 0.8 -6.8 0.8 -6.75 0.8 -6.65 0.8 -6.3 0.8 -6.2 0.85 -5.95 0.85 -5.9 0.75 -5.9 0.7 -5.9 0.65 -5.9 0.55 -5.9 Q0.55 -5.85 0.55 -5.85 L0.5 -5.85 0.45 -5.85 0.4 -5.85 0.4 -5.4 0.45 -5.4 0.5 -5.35 0.5 -5.3 0.5 -5.3 0.5 -5.3 0.45 -5.25 0.45 -5.25 0.4 -5.25 0.4 -4.05 0.45 -4.0 0.45 -4.0 0.5 -4.0 0.55 -3.95 0.5 -3.95 0.45 -3.9 0.4 -3.9 0.4 -2.5 0.45 -2.5 0.5 -2.4 0.5 -2.4 0.5 -2.4 0.5 -2.35 0.45 -2.35 0.45 -2.35 0.4 -2.3 0.4 -0.4 0.4 -0.4 0.45 -0.35 0.45 -0.35 0.5 -0.35 0.55 -0.3 0.5 -0.3 0.5 -0.3 0.45 -0.25 0.4 -0.25 0.4 1.2 0.45 1.15 0.5 1.25 0.5 1.3 0.45 1.35 0.45 1.3 0.4 1.35 0.4 4.55 0.45 4.55 0.5 4.6 0.55 4.6 0.55 4.65 0.45 4.7 0.45 4.75 0.4 4.75 0.4 7.65 0.35 7.65 0.45 7.7 0.45 7.75 0.5 7.8 0.45 7.9 0.4 7.95 0.35 8.0 0.25 8.0 0.2 8.0 0.3 8.05 0.3 8.1 0.25 8.2 0.1 8.3 0.05 8.2 0.0 8.15 -0.05 8.1 0.0 8.05 0.05 8.05 0.05 8.0 -0.1 7.95 -0.15 7.8 -0.15 7.7 -0.05 7.7 -0.05 7.65 -0.15 7.65 -0.15 4.75 -0.2 4.75 -0.2 4.7 -0.25 4.65 -0.25 4.6 -0.15 4.55 -0.15 1.35 -0.2 1.35 -0.2 1.35 -0.25 1.3 -0.3 1.25 -0.3 1.25 -0.3 1.25 -0.15 1.15 -0.15 -0.2 -0.2 -0.2 -0.2 -0.2 -0.25 -0.25 -0.3 -0.3 -0.3 -0.3 -0.3 -0.35 -0.25 -0.35 -0.15 -0.45 -0.15 -2.3 -0.2 -2.3 -0.2 -2.3 -0.25 -2.35 -0.3 -2.4 -0.3 -2.4 -0.25 -2.45 -0.15 -2.5 -0.15 -3.85 -0.2 -3.85 -0.2 -3.9 Q-0.2 -3.9 -0.25 -3.9 L-0.3 -3.95 -0.3 -4.0 -0.25 -4.0 -0.15 -4.1 -0.15 -5.2 -0.2 -5.2 -0.2 -5.25 Q-0.2 -5.25 -0.25 -5.25 L-0.3 -5.35 -0.3 -5.35 -0.25 -5.4 -0.15 -5.45 -0.15 -5.85 -0.2 -5.85 M0.4 -5.85 L0.4 -5.9 0.35 -5.9 0.25 -5.85 0.2 -5.85 M0.35 -5.85 L0.4 -5.85 0.4 -5.85 M0.0 -5.85 L0.0 -5.85 -0.1 -5.85 -0.15 -5.85" fill="none" stroke="#000000" stroke-linecap="round" stroke-linejoin="round" stroke-opacity="0.4509804" stroke-width="0.1"/>
  </g>
</svg>
