<?xml version="1.0" encoding="UTF-8" standalone="no"?>
<svg xmlns:xlink="http://www.w3.org/1999/xlink" height="16.75px" width="0.95px" xmlns="http://www.w3.org/2000/svg">
  <g transform="matrix(1.0, 0.0, 0.0, 1.0, 0.45, 8.35)">
    <path d="M0.25 -7.8 L0.25 -7.8 0.3 -7.55 0.3 -7.5 0.3 -7.5 0.25 -7.4 0.25 -7.3 0.3 -7.25 0.25 -7.15 0.25 -7.05 0.2 -7.0 0.2 -6.9 0.15 -6.8 0.15 -6.75 0.05 -6.75 0.0 -6.7 -0.05 -6.75 -0.1 -6.85 -0.15 -6.95 -0.25 -7.2 -0.25 -7.25 Q-0.2 -7.3 -0.2 -7.35 L-0.2 -7.45 -0.15 -7.5 -0.15 -7.8 -0.15 -7.4 -0.1 -7.4 -0.15 -7.25 -0.15 -7.05 -0.1 -6.95 -0.1 -6.95 -0.1 -7.1 -0.1 -7.15 -0.05 -7.25 -0.05 -7.2 0.0 -7.15 0.0 -6.95 0.0 -6.8 0.05 -6.8 0.05 -6.85 0.05 -6.8 0.1 -6.85 0.1 -6.9 0.15 -6.9 0.2 -7.0 0.2 -7.15 0.25 -7.2 0.2 -7.25 0.2 -7.25 0.2 -7.25 0.15 -7.45 0.15 -7.5 0.15 -7.5 0.2 -7.5 0.25 -7.5 0.25 -7.55 0.25 -7.65 0.2 -7.75 0.25 -7.8 M0.2 -4.75 L0.2 -4.5 0.15 -4.45 0.1 -4.4 0.1 -4.45 0.15 -4.5 0.15 -4.5 0.1 -4.5 0.1 -4.5 0.05 -4.45 -0.05 -4.55 -0.15 -4.65 -0.15 -4.7 -0.15 -4.75 -0.2 -4.8 -0.2 -4.85 -0.15 -4.85 -0.15 -4.85 -0.15 -5.1 -0.1 -5.2 -0.05 -5.2 0.0 -5.25 0.0 -5.25 0.05 -5.25 0.05 -5.25 0.15 -5.15 0.15 -5.1 0.2 -5.1 0.2 -4.9 0.15 -4.85 0.2 -4.8 0.2 -4.75 M-0.25 -7.85 L-0.2 -7.95 -0.2 -7.9 -0.15 -7.8 -0.25 -7.85 M0.05 -5.05 L0.05 -5.2 0.0 -5.2 0.0 -5.1 -0.05 -5.1 -0.05 -5.05 -0.05 -4.85 0.0 -4.75 0.0 -4.65 0.05 -4.65 0.05 -4.75 0.1 -4.8 0.1 -5.0 0.05 -5.05" fill="#685b55" fill-rule="evenodd" stroke="none"/>
    <path d="M0.1 -8.2 L0.0 -8.2 Q-0.1 -8.2 -0.1 -8.1 L-0.05 -8.0 -0.05 -7.95 -0.05 -7.85 -0.1 -7.8 -0.05 -7.7 0.0 -7.55 0.0 -7.55 Q-0.05 -7.55 -0.1 -7.45 L-0.1 -7.25 -0.05 -7.4 0.0 -7.5 0.05 -7.55 0.0 -7.55 0.05 -7.65 0.1 -7.7 0.1 -7.7 0.1 -7.55 0.15 -7.6 0.15 -7.7 0.15 -7.75 0.1 -7.75 0.05 -7.85 0.15 -8.0 0.15 -8.15 0.1 -8.2 M0.2 -8.1 L0.2 -8.05 0.2 -8.1 0.2 -8.05 0.2 -7.85 0.15 -7.8 0.2 -7.75 0.2 -7.6 0.2 -7.55 0.15 -7.5 0.15 -7.5 0.15 -7.45 0.2 -7.25 0.2 -7.25 0.15 -7.1 0.15 -6.95 0.1 -7.2 0.1 -7.3 0.05 -7.35 0.0 -7.4 0.0 -7.4 -0.05 -7.35 -0.05 -7.25 -0.1 -7.2 -0.1 -7.15 -0.1 -7.1 -0.1 -6.95 -0.1 -6.95 -0.15 -7.05 -0.15 -7.25 -0.1 -7.4 -0.1 -7.45 -0.05 -7.6 -0.1 -7.7 -0.1 -7.8 -0.15 -7.95 -0.1 -7.95 -0.15 -8.0 -0.2 -8.05 -0.2 -8.1 -0.15 -8.15 -0.05 -8.25 Q0.1 -8.25 0.15 -8.2 L0.15 -8.2 Q0.15 -8.15 0.15 -8.15 L0.2 -8.1 M0.3 -6.55 L0.35 -6.5 0.35 -6.45 0.35 -6.45 0.3 -6.45 0.0 -6.45 0.0 -6.45 -0.05 -6.45 -0.1 -6.45 -0.2 -6.45 -0.25 -6.45 -0.3 -6.45 -0.3 -6.5 -0.3 -6.5 -0.2 -6.5 -0.2 -6.5 -0.1 -6.55 -0.05 -6.55 0.1 -6.5 0.25 -6.55 0.3 -6.55 M0.2 -5.6 L0.2 -5.55 0.15 -5.5 0.15 -5.45 0.15 -5.4 0.2 -5.35 0.2 -5.2 0.15 -5.25 0.15 -5.25 0.1 -5.25 0.05 -5.25 0.05 -5.25 0.0 -5.25 0.0 -5.25 -0.05 -5.2 -0.1 -5.2 -0.1 -5.15 -0.15 -5.15 -0.15 -5.15 Q-0.15 -5.1 -0.2 -5.1 L-0.2 -5.1 -0.2 -5.25 -0.15 -5.3 -0.15 -5.45 -0.2 -5.55 -0.2 -5.6 -0.15 -5.6 -0.15 -5.6 -0.15 -5.65 -0.15 -5.8 -0.1 -5.85 -0.05 -5.95 0.0 -5.95 0.05 -5.9 0.15 -5.85 0.15 -5.7 0.15 -5.65 0.15 -5.6 0.1 -5.55 0.2 -5.6 M0.1 -7.45 L0.1 -7.45 0.1 -7.35 0.15 -7.35 0.15 -7.35 0.1 -7.45 M0.05 -6.85 L0.05 -6.8 0.0 -6.8 0.0 -6.95 0.0 -7.15 0.05 -7.25 0.05 -7.15 0.1 -7.0 0.05 -6.9 0.05 -6.85 M0.05 -5.8 L0.05 -5.85 0.0 -5.85 -0.05 -5.7 0.0 -5.6 Q0.0 -5.5 0.05 -5.5 L0.05 -5.5 0.05 -5.6 0.1 -5.65 0.1 -5.7 0.05 -5.8 M0.15 -5.5 L0.15 -5.5 0.1 -5.5 0.05 -5.5 0.0 -5.5 -0.15 -5.55 -0.15 -5.55 -0.15 -5.45 -0.1 -5.35 -0.1 -5.25 -0.05 -5.3 0.05 -5.3 0.1 -5.3 0.15 -5.3 0.15 -5.35 0.1 -5.4 0.15 -5.5" fill="#a49791" fill-rule="evenodd" stroke="none"/>
    <path d="M0.15 -8.2 L0.2 -8.15 0.2 -8.1 0.15 -8.15 Q0.15 -8.15 0.15 -8.2 L0.15 -8.2 M0.2 -8.05 L0.25 -7.8 0.2 -7.75 0.25 -7.65 0.25 -7.55 0.25 -7.5 0.2 -7.5 0.15 -7.5 0.15 -7.5 0.15 -7.5 0.2 -7.55 0.2 -7.6 0.2 -7.75 0.15 -7.8 0.2 -7.85 0.2 -8.05 M0.35 -7.45 L0.35 -7.25 0.4 -6.95 0.4 -6.7 0.4 -6.6 0.35 -6.55 0.3 -6.55 0.25 -6.55 0.1 -6.5 -0.05 -6.55 -0.1 -6.55 -0.2 -6.5 -0.2 -6.5 -0.3 -6.7 -0.35 -6.95 -0.35 -7.3 -0.3 -7.4 -0.3 -7.55 -0.3 -7.5 -0.25 -7.45 -0.25 -7.35 -0.3 -7.35 -0.3 -7.2 -0.25 -7.05 -0.2 -7.0 -0.2 -6.95 -0.05 -6.75 0.05 -6.7 Q0.1 -6.7 0.1 -6.7 L0.15 -6.75 0.15 -6.75 0.2 -6.8 0.2 -6.9 0.25 -6.95 0.25 -6.95 0.3 -7.0 0.3 -7.0 0.3 -7.35 0.35 -7.45 M0.25 -6.35 L0.25 -6.35 0.25 -6.3 0.2 -6.3 0.2 -6.25 0.25 -6.25 0.25 -6.25 0.3 -6.15 0.3 -6.05 0.25 -5.95 0.2 -5.8 0.2 -5.6 0.1 -5.55 0.15 -5.6 0.15 -5.65 0.15 -5.7 0.15 -5.85 0.05 -5.9 0.0 -5.95 -0.05 -5.95 -0.1 -5.85 -0.15 -5.8 -0.15 -5.65 -0.15 -5.6 -0.15 -5.6 -0.2 -5.6 -0.2 -5.55 -0.15 -5.45 -0.15 -5.3 -0.2 -5.25 -0.2 -5.1 -0.2 -5.1 Q-0.15 -5.1 -0.15 -5.15 L-0.15 -5.15 -0.1 -5.15 -0.1 -5.2 -0.15 -5.1 -0.15 -4.85 -0.15 -4.85 -0.2 -4.85 -0.2 -4.8 -0.15 -4.75 -0.15 -4.7 -0.15 -4.65 -0.15 -4.65 -0.2 -4.65 -0.2 -4.6 -0.15 -4.55 -0.15 -4.5 -0.1 -4.45 -0.1 -4.45 -0.05 -4.4 -0.05 -4.35 -0.1 -4.4 -0.15 -4.4 -0.15 -4.4 -0.2 -4.35 -0.2 -4.25 -0.1 -4.3 -0.1 -4.25 -0.15 -4.2 -0.15 -4.15 -0.15 -4.05 -0.2 -4.05 -0.25 -4.0 -0.25 -5.25 -0.25 -6.05 -0.25 -6.15 -0.25 -6.2 -0.2 -6.2 -0.2 -6.15 -0.05 -6.15 0.1 -6.15 0.1 -6.15 0.15 -6.15 0.2 -6.15 0.25 -6.15 0.1 -6.25 0.05 -6.25 -0.05 -6.3 -0.1 -6.3 -0.15 -6.3 -0.2 -6.25 -0.2 -6.3 -0.2 -6.35 -0.2 -6.35 -0.2 -6.35 -0.15 -6.35 -0.1 -6.4 0.1 -6.4 0.2 -6.35 0.25 -6.35 M0.2 -5.55 L0.2 -4.75 0.2 -4.8 0.15 -4.85 0.2 -4.9 0.2 -5.1 0.15 -5.1 0.15 -5.15 0.05 -5.25 0.1 -5.25 0.15 -5.25 0.15 -5.25 0.2 -5.2 0.2 -5.35 0.15 -5.4 0.15 -5.45 0.15 -5.5 0.2 -5.55 M0.2 -3.95 L0.2 7.0 0.2 7.5 Q0.2 7.6 0.25 7.8 L0.35 8.0 0.25 8.25 0.05 8.35 -0.15 8.25 -0.2 8.15 -0.25 8.05 -0.2 7.65 -0.15 7.1 -0.15 6.75 -0.2 6.6 -0.25 6.55 -0.25 -3.95 -0.2 -3.95 -0.15 -3.95 -0.05 -3.9 0.05 -3.9 0.15 -3.9 0.2 -3.95 M-0.2 -7.95 L-0.2 -8.05 -0.2 -8.1 -0.2 -8.05 -0.15 -8.0 -0.1 -7.95 -0.15 -7.95 -0.1 -7.8 -0.1 -7.7 -0.05 -7.6 -0.1 -7.45 -0.1 -7.4 -0.15 -7.4 -0.15 -7.8 -0.15 -7.8 -0.2 -7.9 -0.2 -7.95 M0.35 -6.9 L0.3 -6.9 0.25 -6.9 0.2 -6.75 0.2 -6.65 0.25 -6.65 0.3 -6.65 0.35 -6.75 0.35 -6.85 0.35 -6.9 M0.05 -5.95 L0.1 -5.95 0.15 -5.9 0.2 -5.85 0.2 -5.9 0.15 -6.0 0.1 -6.0 0.0 -6.05 -0.05 -6.05 -0.2 -5.9 -0.2 -5.85 -0.2 -5.9 -0.15 -5.9 -0.15 -5.95 -0.1 -5.95 0.0 -6.0 0.05 -5.95 M-0.05 -4.35 L-0.05 -4.35 -0.05 -4.35 M0.05 -1.35 L0.1 -1.35 0.05 -1.65 0.05 -1.8 0.1 -1.85 0.05 -2.0 0.05 -2.3 0.1 -2.35 0.1 -2.4 0.05 -2.45 0.05 -2.55 0.0 -2.6 0.05 -2.65 0.05 -2.8 0.05 -2.95 0.05 -3.05 0.05 -3.15 0.05 -3.25 0.05 -3.45 0.05 -3.75 0.0 -3.75 0.0 -3.8 -0.05 -3.85 -0.1 -3.7 -0.15 -3.6 -0.15 -3.5 -0.15 -3.45 -0.1 -3.4 -0.15 -3.3 -0.15 -3.2 -0.15 -3.1 -0.1 -3.0 -0.15 -2.95 -0.15 -2.7 -0.15 -2.65 -0.1 -2.4 -0.15 -2.3 -0.15 -2.0 -0.15 -1.9 -0.1 -1.85 -0.1 -1.75 -0.1 -1.7 -0.15 -1.7 -0.15 -1.6 -0.1 -1.5 -0.15 -0.85 -0.1 -0.5 -0.15 -0.4 -0.15 -0.25 -0.1 -0.2 -0.15 -0.15 -0.1 -0.1 -0.05 -0.1 0.05 -0.1 0.1 -0.15 0.1 -0.15 0.1 -0.2 0.1 -0.2 0.1 -0.3 0.1 -0.4 0.05 -0.5 0.05 -0.7 0.05 -1.0 0.1 -1.05 0.05 -1.1 0.05 -1.3 0.05 -1.35 M0.15 -3.9 L0.15 -3.9 M0.1 -0.2 L0.1 -0.2 0.1 -0.2 M0.05 0.0 L0.1 -0.05 0.15 -0.05 0.0 -0.05 -0.05 -0.05 -0.1 -0.05 -0.15 -0.05 -0.1 -0.05 -0.1 0.0 -0.05 0.0 0.0 0.0 0.05 0.0 M0.05 5.0 L0.05 4.9 0.05 4.5 0.1 4.45 0.1 4.4 0.05 4.2 0.05 4.15 0.1 4.05 0.1 4.0 0.05 3.95 0.05 3.85 0.05 3.8 0.1 3.7 0.05 3.55 0.1 3.55 0.1 3.4 0.05 3.3 0.05 3.2 0.1 3.0 0.1 2.95 0.05 2.9 0.05 2.8 0.05 2.65 0.05 2.55 0.05 2.4 0.1 2.25 0.05 2.1 0.05 2.05 0.1 2.05 0.1 1.5 0.05 1.35 0.05 1.15 0.05 0.9 0.0 0.8 0.0 0.7 -0.05 0.75 -0.05 0.9 -0.1 1.1 -0.1 1.25 -0.05 1.3 -0.1 1.75 -0.15 1.8 -0.1 1.85 -0.1 2.0 -0.1 2.05 -0.05 2.2 -0.05 2.7 -0.05 2.85 -0.05 2.9 0.0 2.95 -0.05 2.95 -0.05 3.0 -0.05 3.1 -0.05 3.2 -0.05 3.3 -0.05 3.4 -0.05 3.75 -0.05 4.0 -0.05 4.1 -0.05 4.35 -0.05 4.35 -0.05 4.35 -0.1 4.35 -0.1 4.45 -0.05 4.5 -0.05 4.55 -0.05 4.8 -0.05 4.9 -0.1 4.95 -0.05 5.0 -0.05 5.1 -0.05 5.55 -0.05 5.8 -0.05 5.9 -0.05 5.95 0.0 6.0 -0.05 6.05 -0.05 6.05 -0.05 6.1 -0.05 6.55 -0.05 6.85 Q-0.05 6.9 -0.05 6.95 L0.0 7.0 0.0 7.1 -0.05 7.15 0.0 7.2 -0.05 7.25 -0.05 7.4 -0.05 7.45 0.0 7.45 0.0 7.5 -0.05 7.5 -0.05 7.5 0.0 7.5 0.05 7.55 0.1 7.55 0.1 7.5 0.05 7.5 0.05 7.35 0.05 7.1 0.1 7.05 0.05 6.9 0.1 6.8 0.1 6.55 0.05 6.4 0.1 6.35 0.05 6.3 0.05 6.05 0.05 5.9 0.1 5.85 0.1 5.75 0.05 5.45 0.05 5.3 0.05 5.1 0.05 5.05 0.05 5.0 M0.1 0.05 L0.05 0.05 -0.1 0.05 -0.1 0.05 0.0 0.05 0.05 0.1 0.1 0.1 0.1 0.05 M0.05 7.65 L0.1 7.65 0.15 7.6 -0.05 7.6 Q-0.05 7.65 0.05 7.65 L-0.1 7.65 -0.1 7.65 -0.1 7.8 -0.15 7.9 -0.15 7.95 -0.1 8.15 -0.15 8.2 -0.15 8.2 Q-0.15 8.3 0.0 8.3 L0.05 8.3 0.15 8.2 0.2 8.05 0.15 8.0 0.15 7.85 0.15 7.75 0.15 7.65 0.05 7.65 M-0.05 -6.7 L-0.1 -6.75 -0.2 -6.85 -0.25 -6.8 -0.2 -6.65 -0.15 -6.6 -0.1 -6.6 -0.05 -6.6 0.0 -6.65 -0.05 -6.7 M-0.1 -1.75 L-0.1 -1.75" fill="#1c1c1c" fill-rule="evenodd" stroke="none"/>
    <path d="M0.1 -8.2 L0.15 -8.15 0.15 -8.0 0.05 -7.85 0.1 -7.75 0.15 -7.75 0.15 -7.7 0.15 -7.6 0.1 -7.55 0.1 -7.7 0.1 -7.7 0.05 -7.65 0.0 -7.55 0.05 -7.55 0.0 -7.5 -0.05 -7.4 -0.1 -7.25 -0.1 -7.45 Q-0.05 -7.55 0.0 -7.55 L0.0 -7.55 -0.05 -7.7 -0.1 -7.8 -0.05 -7.85 -0.05 -7.95 -0.05 -8.0 -0.1 -8.1 Q-0.1 -8.2 0.0 -8.2 L0.1 -8.2 M0.1 -7.45 L0.15 -7.35 0.15 -7.35 0.1 -7.35 0.1 -7.45 0.1 -7.45 M0.05 -5.8 L0.1 -5.7 0.1 -5.65 0.05 -5.6 0.05 -5.5 0.05 -5.5 Q0.0 -5.5 0.0 -5.6 L-0.05 -5.7 0.0 -5.85 0.05 -5.85 0.05 -5.8" fill="#f0e7de" fill-rule="evenodd" stroke="none"/>
    <path d="M0.3 -7.5 L0.3 -7.5 0.35 -7.45 0.3 -7.35 0.3 -7.0 0.3 -7.0 0.25 -6.95 0.25 -6.95 0.2 -6.9 0.2 -6.8 0.15 -6.75 0.15 -6.75 0.1 -6.7 Q0.1 -6.7 0.05 -6.7 L-0.05 -6.75 -0.2 -6.95 -0.2 -7.0 -0.25 -7.05 -0.3 -7.2 -0.3 -7.35 -0.25 -7.35 -0.25 -7.45 -0.3 -7.5 -0.3 -7.55 -0.25 -7.7 -0.25 -7.85 -0.15 -7.8 -0.15 -7.5 -0.2 -7.45 -0.2 -7.35 Q-0.2 -7.3 -0.25 -7.25 L-0.25 -7.2 -0.15 -6.95 -0.1 -6.85 -0.05 -6.75 0.0 -6.7 0.05 -6.75 0.15 -6.75 0.15 -6.8 0.2 -6.9 0.2 -7.0 0.25 -7.05 0.25 -7.15 0.3 -7.25 0.25 -7.3 0.25 -7.4 0.3 -7.5 0.3 -7.5 M0.35 -6.45 L0.35 -6.4 0.25 -6.35 0.2 -6.35 0.1 -6.4 -0.1 -6.4 -0.15 -6.35 -0.2 -6.35 -0.2 -6.35 -0.25 -6.4 -0.35 -6.45 -0.3 -6.45 -0.3 -6.5 -0.3 -6.45 -0.25 -6.45 -0.2 -6.45 -0.1 -6.45 -0.05 -6.45 0.0 -6.45 0.0 -6.45 0.3 -6.45 0.35 -6.45 M-0.25 -6.2 L-0.25 -6.2 -0.2 -6.2 -0.2 -6.25 -0.15 -6.3 -0.1 -6.3 -0.05 -6.3 0.05 -6.25 0.1 -6.25 0.25 -6.15 0.2 -6.15 0.15 -6.15 0.1 -6.15 0.05 -6.2 0.0 -6.2 0.0 -6.25 -0.05 -6.25 -0.1 -6.2 -0.25 -6.2 M-0.15 -7.8 L-0.15 -7.8 M0.35 -6.9 L0.35 -6.85 0.35 -6.75 0.3 -6.65 0.25 -6.65 0.2 -6.65 0.2 -6.75 0.25 -6.9 0.3 -6.9 0.35 -6.9 M-0.05 -6.7 L0.0 -6.65 -0.05 -6.6 -0.1 -6.6 -0.15 -6.6 -0.2 -6.65 -0.25 -6.8 -0.2 -6.85 -0.1 -6.75 -0.05 -6.7" fill="#48484a" fill-rule="evenodd" stroke="none"/>
    <path d="M-0.25 -6.2 L-0.1 -6.2 -0.05 -6.25 0.0 -6.25 0.0 -6.2 0.05 -6.2 0.1 -6.15 0.1 -6.15 -0.05 -6.15 -0.2 -6.15 -0.2 -6.2 -0.25 -6.2" fill="#d8b9a7" fill-rule="evenodd" stroke="none"/>
    <path d="M0.05 -5.95 L0.0 -6.0 -0.1 -5.95 -0.15 -5.95 -0.15 -5.9 -0.2 -5.9 -0.2 -5.85 -0.2 -5.9 -0.05 -6.05 0.0 -6.05 0.1 -6.0 0.15 -6.0 0.2 -5.9 0.2 -5.85 0.15 -5.9 0.1 -5.95 0.05 -5.95" fill="#43423e" fill-rule="evenodd" stroke="none"/>
    <path d="M0.15 -5.5 L0.1 -5.4 0.15 -5.35 0.15 -5.3 0.1 -5.3 0.05 -5.3 -0.05 -5.3 -0.1 -5.25 -0.1 -5.35 -0.15 -5.45 -0.15 -5.55 -0.15 -5.55 0.0 -5.5 0.05 -5.5 0.1 -5.5 0.15 -5.5 0.15 -5.5" fill="#f2e8df" fill-rule="evenodd" stroke="none"/>
    <path d="M0.05 -5.05 L0.1 -5.0 0.1 -4.8 0.05 -4.75 0.05 -4.65 0.0 -4.65 0.0 -4.75 -0.05 -4.85 -0.05 -5.05 -0.05 -5.1 0.0 -5.1 0.0 -5.2 0.05 -5.2 0.05 -5.05 M0.0 -4.4 L-0.05 -4.35 -0.05 -4.4 -0.1 -4.45 -0.1 -4.45 -0.15 -4.5 -0.15 -4.55 -0.2 -4.6 -0.2 -4.65 -0.15 -4.65 -0.15 -4.65 -0.15 -4.6 -0.1 -4.55 -0.05 -4.5 -0.05 -4.45 0.0 -4.4" fill="#f6f3ee" fill-rule="evenodd" stroke="none"/>
    <path d="M0.05 -4.45 L0.0 -4.4 0.0 -4.4 -0.05 -4.45 -0.05 -4.5 -0.1 -4.55 -0.15 -4.6 -0.15 -4.65 -0.05 -4.55 0.05 -4.45 M-0.15 -4.7 L-0.15 -4.65 -0.15 -4.7" fill="#b2a9a2" fill-rule="evenodd" stroke="none"/>
    <path d="M0.05 -4.45 L0.1 -4.5 0.1 -4.5 0.15 -4.5 0.15 -4.5 0.1 -4.45 0.1 -4.4 0.05 -4.35 0.05 -4.3 0.0 -4.25 0.0 -4.2 -0.05 -4.2 Q-0.1 -4.15 -0.1 -4.15 L-0.05 -4.2 -0.05 -4.25 -0.1 -4.25 -0.1 -4.3 -0.05 -4.35 0.0 -4.4 0.0 -4.4 0.05 -4.45 M-0.05 -4.35 L-0.05 -4.35 -0.05 -4.35" fill="#f6efe9" fill-rule="evenodd" stroke="none"/>
    <path d="M0.2 -4.5 L0.2 -3.95 0.15 -3.9 0.15 -4.0 0.15 -4.05 0.15 -4.2 0.15 -4.3 0.05 -4.25 0.05 -4.25 0.0 -4.2 0.0 -4.1 -0.05 -4.1 -0.05 -4.05 -0.1 -4.05 -0.1 -4.1 -0.05 -4.15 0.0 -4.25 0.05 -4.3 0.05 -4.35 0.1 -4.4 0.15 -4.45 0.2 -4.5" fill="#1f1b18" fill-rule="evenodd" stroke="none"/>
    <path d="M-0.05 -4.35 L-0.1 -4.3 -0.2 -4.25 -0.2 -4.35 -0.15 -4.4 -0.15 -4.4 -0.1 -4.4 -0.05 -4.35" fill="#5a534b" fill-rule="evenodd" stroke="none"/>
    <path d="M-0.25 -3.95 L-0.25 -4.0 -0.2 -4.05 -0.15 -4.05 -0.15 -4.15 -0.15 -4.2 -0.1 -4.25 -0.05 -4.25 -0.05 -4.2 -0.1 -4.15 Q-0.1 -4.15 -0.05 -4.2 L0.0 -4.2 0.0 -4.25 -0.05 -4.15 -0.1 -4.1 -0.1 -4.05 -0.05 -4.05 -0.05 -4.1 0.0 -4.1 0.0 -4.2 0.05 -4.25 0.05 -4.25 0.15 -4.3 0.15 -4.2 0.15 -4.05 0.15 -4.0 0.15 -3.9 0.1 -3.95 0.05 -4.0 0.0 -4.0 -0.05 -4.05 -0.1 -4.0 -0.2 -3.95 -0.25 -3.95 M0.15 -3.9 L0.15 -3.9" fill="#635a53" fill-rule="evenodd" stroke="none"/>
    <path d="M-0.2 -3.95 L-0.1 -4.0 -0.05 -4.05 0.0 -4.0 0.05 -4.0 0.1 -3.95 0.15 -3.9 0.05 -3.9 -0.05 -3.9 -0.15 -3.95 -0.2 -3.95" fill="#e7d5c7" fill-rule="evenodd" stroke="none"/>
    <path d="M-0.1 -1.75 L-0.1 -1.85 -0.15 -1.9 -0.15 -2.0 -0.15 -2.3 -0.1 -2.4 -0.15 -2.65 -0.15 -2.7 -0.15 -2.95 -0.1 -3.0 -0.15 -3.1 -0.15 -3.2 -0.15 -3.3 -0.1 -3.4 -0.15 -3.45 -0.15 -3.5 -0.15 -3.6 -0.1 -3.7 -0.05 -3.85 0.0 -3.8 0.0 -3.75 0.05 -3.75 0.05 -3.45 0.05 -3.25 0.05 -3.15 0.05 -3.05 0.05 -2.95 0.05 -2.8 0.05 -2.65 0.0 -2.6 0.05 -2.55 0.05 -2.45 0.1 -2.4 0.1 -2.35 0.05 -2.3 0.05 -2.0 0.1 -1.85 0.05 -1.8 0.05 -1.65 0.1 -1.35 0.05 -1.35 0.05 -1.3 0.05 -1.1 0.1 -1.05 0.05 -1.0 0.05 -0.7 0.05 -0.5 0.1 -0.4 0.1 -0.3 0.1 -0.2 0.1 -0.2 0.05 -0.2 0.05 -0.2 0.0 -0.3 0.0 -0.45 -0.05 -0.45 -0.05 -0.45 -0.05 -0.35 -0.1 -0.3 -0.1 -0.2 -0.1 -0.2 -0.15 -0.25 -0.15 -0.4 -0.1 -0.5 -0.15 -0.85 -0.1 -1.5 -0.15 -1.6 -0.15 -1.7 -0.1 -1.7 -0.1 -1.75 -0.1 -1.7 -0.05 -1.7 0.0 -1.75 0.0 -1.85 -0.05 -1.8 -0.1 -1.75" fill="#645c5a" fill-rule="evenodd" stroke="none"/>
    <path d="M-0.1 -1.75 L-0.05 -1.8 0.0 -1.85 0.0 -1.75 -0.05 -1.7 -0.1 -1.7 -0.1 -1.75 -0.1 -1.75" fill="#9a928f" fill-rule="evenodd" stroke="none"/>
    <path d="M-0.1 -0.2 L-0.1 -0.2 -0.1 -0.3 -0.05 -0.35 -0.05 -0.45 -0.05 -0.45 0.0 -0.45 0.0 -0.3 0.05 -0.2 0.0 -0.25 -0.05 -0.25 -0.05 -0.2 -0.1 -0.2 -0.1 -0.2" fill="#999490" fill-rule="evenodd" stroke="none"/>
    <path d="M0.05 -0.2 L0.05 -0.2 0.1 -0.2 0.1 -0.15 0.1 -0.15 0.05 -0.1 -0.05 -0.1 -0.1 -0.1 -0.15 -0.15 -0.1 -0.2 -0.1 -0.2 -0.05 -0.2 -0.05 -0.25 0.0 -0.25 0.05 -0.2 M0.05 0.0 L0.0 0.0 -0.05 0.0 -0.1 0.0 -0.1 -0.05 -0.15 -0.05 -0.1 -0.05 -0.05 -0.05 0.0 -0.05 0.15 -0.05 0.1 -0.05 0.05 0.0" fill="#f4efec" fill-rule="evenodd" stroke="none"/>
    <path d="M0.1 0.05 L0.1 0.1 0.05 0.1 0.0 0.05 -0.1 0.05 -0.1 0.05 0.05 0.05 0.1 0.05" fill="#5d5c5a" fill-rule="evenodd" stroke="none"/>
    <path d="M-0.05 4.35 L-0.05 4.1 -0.05 4.0 -0.05 3.75 -0.05 3.4 -0.05 3.3 -0.05 3.2 -0.05 3.1 -0.05 3.0 -0.05 2.95 0.0 2.95 -0.05 2.9 -0.05 2.85 -0.05 2.7 -0.05 2.2 -0.1 2.05 -0.1 2.0 -0.1 1.85 -0.15 1.8 -0.1 1.75 -0.05 1.3 -0.1 1.25 -0.1 1.1 -0.05 0.9 -0.05 0.75 0.0 0.7 0.0 0.8 0.05 0.9 0.05 1.15 0.05 1.35 0.1 1.5 0.1 2.05 0.05 2.05 0.05 2.1 0.1 2.25 0.05 2.4 0.05 2.55 0.05 2.65 0.05 2.8 0.05 2.9 0.1 2.95 0.1 3.0 0.05 3.2 0.05 3.3 0.1 3.4 0.1 3.55 0.05 3.55 0.1 3.7 0.05 3.8 0.05 3.85 0.05 3.95 0.1 4.0 0.1 4.05 0.05 4.15 0.05 4.2 0.1 4.4 0.1 4.45 0.05 4.5 0.05 4.9 0.05 5.0 0.05 5.05 0.05 5.1 0.05 5.3 0.05 5.45 0.1 5.75 0.1 5.85 0.05 5.9 0.05 6.05 0.05 6.3 0.1 6.35 0.05 6.4 0.1 6.55 0.1 6.8 0.05 6.9 0.1 7.05 0.05 7.1 0.05 7.35 0.05 7.5 0.0 7.5 0.0 7.5 0.0 7.45 -0.05 7.45 -0.05 7.4 -0.05 7.25 0.0 7.2 -0.05 7.15 0.0 7.1 0.0 7.0 -0.05 6.95 Q-0.05 6.9 -0.05 6.85 L-0.05 6.55 -0.05 6.1 -0.05 6.05 -0.05 6.05 0.0 6.0 -0.05 5.95 -0.05 5.9 -0.05 5.8 -0.05 5.55 -0.05 5.1 -0.05 5.0 -0.1 4.95 -0.05 4.9 -0.05 4.8 -0.05 4.55 -0.05 4.5 -0.1 4.45 -0.1 4.35 -0.05 4.35 -0.05 4.35 -0.05 4.35 -0.05 4.35 0.0 4.4 0.0 4.45 0.05 4.4 0.0 4.35 -0.05 4.35" fill="#605c59" fill-rule="evenodd" stroke="none"/>
    <path d="M-0.05 4.35 L0.0 4.35 0.05 4.4 0.0 4.45 0.0 4.4 -0.05 4.35 -0.05 4.35 M0.0 7.5 L0.0 7.5 0.05 7.5 0.1 7.5 0.1 7.55 0.05 7.55 0.0 7.5 -0.05 7.5 -0.05 7.5 0.0 7.5 M0.05 7.65 Q-0.05 7.65 -0.05 7.6 L0.15 7.6 0.1 7.65 0.05 7.65 0.15 7.65 0.05 7.75 0.05 7.9 0.05 8.1 0.05 8.2 0.0 8.25 0.0 8.1 0.0 7.95 0.0 7.85 -0.05 7.8 -0.05 7.75 -0.05 7.7 -0.05 7.7 -0.1 7.65 -0.1 7.65 0.05 7.65" fill="#e6e2e1" fill-rule="evenodd" stroke="none"/>
    <path d="M0.15 7.65 L0.15 7.75 0.15 7.85 0.15 8.0 0.2 8.05 0.15 8.2 0.05 8.3 0.0 8.3 Q-0.15 8.3 -0.15 8.2 L-0.15 8.2 -0.1 8.15 -0.15 7.95 -0.15 7.9 -0.1 7.8 -0.1 7.65 -0.05 7.7 -0.05 7.7 -0.05 7.75 -0.05 7.8 0.0 7.85 0.0 7.95 0.0 8.1 0.0 8.25 0.05 8.2 0.05 8.1 0.05 7.9 0.05 7.75 0.15 7.65" fill="#5a5655" fill-rule="evenodd" stroke="none"/>
    <path d="M0.15 -8.2 L0.2 -8.15 0.2 -8.1 0.2 -8.05 0.25 -7.8 0.25 -7.8 0.3 -7.55 0.3 -7.5 0.3 -7.5 0.35 -7.45 0.35 -7.25 0.4 -6.95 0.4 -6.7 0.4 -6.6 0.35 -6.55 0.3 -6.55 0.35 -6.5 0.35 -6.45 0.35 -6.45 0.35 -6.4 0.25 -6.35 0.25 -6.35 0.25 -6.3 0.2 -6.3 0.2 -6.25 0.25 -6.25 0.25 -6.25 0.3 -6.15 0.3 -6.05 0.25 -5.95 0.2 -5.8 0.2 -5.6 0.2 -5.55 0.2 -4.75 0.2 -4.5 0.2 -3.95 0.2 7.0 0.2 7.5 Q0.2 7.6 0.25 7.8 L0.35 8.0 0.25 8.25 0.05 8.35 -0.15 8.25 -0.2 8.15 -0.25 8.05 -0.2 7.65 -0.15 7.1 -0.15 6.75 -0.2 6.6 -0.25 6.55 -0.25 -3.95 -0.25 -4.0 -0.25 -5.25 -0.25 -6.05 -0.25 -6.15 -0.25 -6.2 -0.25 -6.2 -0.2 -6.2 -0.2 -6.25 -0.2 -6.3 -0.2 -6.35 -0.2 -6.35 -0.25 -6.4 -0.35 -6.45 -0.3 -6.45 -0.3 -6.5 -0.3 -6.5 -0.2 -6.5 -0.3 -6.7 -0.35 -6.95 -0.35 -7.3 -0.3 -7.4 -0.3 -7.55 -0.25 -7.7 -0.25 -7.85 -0.2 -7.95 -0.2 -8.05 -0.2 -8.1 -0.15 -8.15 -0.05 -8.25 Q0.1 -8.25 0.15 -8.2 Z" fill="none" stroke="#000000" stroke-linecap="round" stroke-linejoin="round" stroke-opacity="0.4509804" stroke-width="0.1"/>
  </g>
</svg>
