<?xml version="1.0" encoding="UTF-8" standalone="no"?>
<svg xmlns:xlink="http://www.w3.org/1999/xlink" height="20.35px" width="1.75px" xmlns="http://www.w3.org/2000/svg">
  <g transform="matrix(1.0, 0.0, 0.0, 1.0, 0.8, 9.25)">
    <path d="M0.3 -7.1 L0.25 -7.05 0.2 -6.95 0.2 -6.65 0.1 -6.55 0.15 -6.65 0.15 -6.7 0.15 -6.75 0.15 -6.95 0.05 -7.0 0.05 -7.0 0.1 -7.0 0.15 -6.95 Q0.15 -6.95 0.2 -6.95 L0.2 -7.05 0.2 -7.05 0.3 -7.1 M0.2 -6.6 L0.2 -5.6 0.2 -5.7 0.15 -5.75 0.2 -5.85 0.2 -6.05 0.15 -6.05 0.15 -6.15 0.05 -6.25 0.1 -6.25 0.15 -6.25 0.15 -6.2 0.2 -6.2 0.2 -6.35 0.15 -6.4 0.15 -6.4 0.15 -6.5 0.2 -6.6 M0.2 -4.65 L0.2 0.55 0.2 9.55 0.2 10.1 Q0.2 10.25 0.25 10.4 L0.35 10.65 Q0.35 10.8 0.25 10.9 L0.05 11.05 -0.15 10.95 -0.2 10.85 -0.25 10.7 -0.2 10.3 -0.15 9.65 -0.15 9.25 -0.2 9.1 -0.25 9.0 -0.25 -0.1 -0.25 -4.65 -0.2 -4.65 -0.15 -4.65 -0.05 -4.65 0.05 -4.65 0.15 -4.65 0.15 -4.65 0.2 -4.65 M0.05 -1.55 L0.1 -1.6 0.05 -1.95 0.05 -2.1 0.1 -2.2 0.05 -2.35 0.05 -2.7 0.1 -2.8 0.1 -2.85 0.05 -2.9 0.05 -3.0 0.0 -3.05 0.05 -3.15 0.05 -3.3 0.05 -3.5 0.05 -3.6 0.05 -3.75 0.05 -3.85 0.05 -4.05 0.05 -4.45 0.0 -4.45 0.0 -4.5 -0.05 -4.55 -0.1 -4.4 -0.15 -4.25 -0.15 -4.15 -0.15 -4.1 -0.1 -4.0 -0.15 -3.95 -0.15 -3.8 -0.15 -3.65 -0.1 -3.55 -0.15 -3.5 -0.15 -3.2 -0.15 -3.1 -0.1 -2.8 -0.15 -2.75 -0.15 -2.35 -0.15 -2.2 -0.1 -2.15 -0.1 -2.05 -0.1 -2.05 -0.15 -2.0 -0.15 -1.85 -0.1 -1.75 -0.15 -1.0 -0.1 -0.55 -0.15 -0.45 -0.15 -0.25 -0.1 -0.2 -0.15 -0.15 -0.1 -0.1 -0.05 -0.1 0.05 -0.1 0.1 -0.15 0.1 -0.15 0.1 -0.2 0.1 -0.25 0.1 -0.3 0.1 -0.5 0.05 -0.6 0.05 -0.8 0.05 -1.15 0.1 -1.25 0.05 -1.3 0.05 -1.5 0.05 -1.55 M0.1 -0.25 L0.1 -0.25 0.1 -0.25 M0.0 0.0 L0.05 0.0 0.1 -0.05 0.15 -0.05 0.0 -0.05 -0.05 -0.05 -0.1 -0.05 -0.15 -0.05 -0.1 -0.05 -0.1 0.0 -0.05 0.0 0.0 0.0 M0.05 0.1 L0.1 0.1 0.1 0.05 0.05 0.05 -0.1 0.05 -0.1 0.05 0.0 0.05 0.05 0.1 M0.05 6.8 L0.05 6.65 0.05 6.1 0.1 6.0 0.1 5.95 0.05 5.65 0.05 5.6 0.1 5.5 0.1 5.4 0.05 5.35 0.05 5.2 0.05 5.1 0.1 5.0 0.05 4.8 0.1 4.75 0.1 4.6 0.05 4.4 0.05 4.3 0.1 4.0 0.1 3.9 0.05 3.85 0.05 3.75 0.05 3.6 0.05 3.45 0.05 3.15 0.1 2.95 0.05 2.75 0.05 2.7 0.1 2.65 0.1 1.85 0.05 1.7 0.05 1.4 0.05 1.05 0.0 0.9 0.0 0.8 -0.05 0.85 -0.05 1.05 -0.1 1.35 -0.1 1.5 -0.05 1.6 -0.1 2.25 -0.15 2.35 -0.1 2.4 -0.1 2.6 -0.1 2.7 -0.05 2.85 -0.05 3.6 -0.05 3.75 -0.05 3.85 0.0 3.9 -0.05 3.95 -0.05 4.0 -0.05 4.1 -0.05 4.3 -0.05 4.4 -0.05 4.6 -0.05 5.1 -0.05 5.4 -0.05 5.55 -0.05 5.9 -0.05 5.9 -0.05 5.9 -0.1 5.9 -0.1 6.0 -0.05 6.1 -0.05 6.2 -0.05 6.55 -0.05 6.7 -0.1 6.75 -0.05 6.85 -0.05 6.95 -0.05 7.6 -0.05 7.95 -0.05 8.1 -0.05 8.2 0.0 8.25 -0.05 8.3 -0.05 8.3 -0.05 8.35 -0.05 9.0 -0.05 9.4 -0.05 9.4 Q-0.05 9.45 -0.05 9.5 L0.0 9.55 0.0 9.65 -0.05 9.7 0.0 9.8 -0.05 9.8 -0.05 10.0 -0.05 10.05 0.0 10.05 0.0 10.1 -0.05 10.1 0.0 10.15 0.05 10.15 0.1 10.15 0.1 10.1 0.05 10.1 0.05 9.95 0.05 9.7 0.05 9.65 0.1 9.6 0.05 9.45 0.1 9.3 0.1 9.0 0.05 8.8 0.1 8.7 0.05 8.65 0.05 8.35 0.05 8.15 0.05 8.1 0.1 8.05 0.1 7.9 0.05 7.45 0.05 7.25 0.05 6.95 0.05 6.85 0.05 6.8 M0.05 10.25 L0.1 10.25 0.15 10.2 -0.05 10.2 0.05 10.25 M0.15 10.3 L0.05 10.3 -0.1 10.25 -0.1 10.3 -0.1 10.4 Q-0.1 10.5 -0.15 10.55 L-0.15 10.65 -0.1 10.85 -0.15 10.9 -0.15 10.9 Q-0.15 11.0 0.0 11.0 L0.05 11.0 0.15 10.9 0.2 10.7 0.15 10.65 0.15 10.5 0.15 10.4 0.15 10.3 M-0.1 -2.05 L-0.1 -2.05" fill="#1c1c1c" fill-rule="evenodd" stroke="none"/>
    <path d="M0.2 -7.05 L0.2 -6.95 Q0.15 -6.95 0.15 -6.95 L0.1 -7.0 0.2 -7.05 M-0.1 -7.0 L-0.15 -7.0 -0.15 -7.0 -0.2 -6.95 -0.2 -6.95 -0.2 -7.0 -0.15 -7.05 -0.05 -7.0 -0.1 -7.0" fill="#43423e" fill-rule="evenodd" stroke="none"/>
    <path d="M-0.15 -5.5 L-0.15 -5.45 -0.1 -5.4 -0.05 -5.35 -0.05 -5.25 0.0 -5.2 -0.05 -5.15 -0.05 -5.2 -0.1 -5.25 -0.1 -5.3 -0.15 -5.35 -0.15 -5.4 -0.2 -5.45 -0.2 -5.5 -0.15 -5.5 -0.15 -5.5" fill="#f6f3ee" fill-rule="evenodd" stroke="none"/>
    <path d="M0.2 -5.35 L0.2 -4.65 0.15 -4.65 0.15 -4.7 0.15 -4.8 0.15 -5.0 0.15 -5.1 0.05 -5.05 0.05 -5.0 0.0 -4.95 0.0 -4.9 -0.05 -4.85 -0.05 -4.8 -0.1 -4.8 -0.1 -4.85 -0.05 -4.95 0.0 -5.0 0.05 -5.1 0.05 -5.15 0.1 -5.25 0.15 -5.25 0.2 -5.35" fill="#1f1b18" fill-rule="evenodd" stroke="none"/>
    <path d="M0.05 -0.25 L0.05 -0.2 0.1 -0.2 0.1 -0.15 0.1 -0.15 0.05 -0.1 -0.05 -0.1 -0.1 -0.1 -0.15 -0.15 -0.1 -0.2 -0.1 -0.2 -0.05 -0.25 -0.05 -0.3 0.0 -0.25 0.05 -0.25 M0.0 0.0 L-0.05 0.0 -0.1 0.0 -0.1 -0.05 -0.15 -0.05 -0.1 -0.05 -0.05 -0.05 0.0 -0.05 0.15 -0.05 0.1 -0.05 0.05 0.0 0.0 0.0" fill="#f4efec" fill-rule="evenodd" stroke="none"/>
    <path d="M-0.05 5.9 L0.0 5.9 0.05 6.0 0.0 6.0 0.0 5.95 -0.05 5.95 -0.05 5.9" fill="#e6e2e1" fill-rule="evenodd" stroke="none"/>
    <path d="M-0.1 -2.05 L-0.05 -2.1 0.0 -2.15 0.0 -2.05 -0.05 -2.0 -0.1 -2.05 -0.1 -2.05 -0.1 -2.05" fill="#9a928f" fill-rule="evenodd" stroke="none"/>
    <path d="M-0.05 -9.2 L0.05 -9.2 0.05 -9.15 -0.05 -9.2" fill="#5c4143" fill-rule="evenodd" stroke="none"/>
    <path d="M0.05 -9.15 L0.1 -9.15 0.1 -9.1 0.15 -9.05 0.1 -9.05 0.1 -8.8 0.05 -8.7 0.05 -8.45 0.1 -8.35 0.15 -8.25 0.25 -8.15 Q0.35 -8.05 0.35 -8.1 L0.35 -8.2 0.4 -8.15 0.45 -8.15 Q0.5 -8.1 0.5 -8.1 L0.45 -8.05 0.55 -8.05 0.6 -7.95 0.7 -7.8 0.7 -7.75 0.55 -7.75 0.6 -7.85 0.6 -7.85 0.55 -7.9 0.5 -7.9 0.45 -7.9 Q0.4 -7.85 0.45 -7.75 L0.4 -7.7 Q0.4 -7.85 0.35 -7.95 L0.3 -8.0 0.25 -8.05 -0.1 -8.25 -0.2 -8.25 -0.25 -8.3 Q-0.2 -8.35 -0.2 -8.4 L-0.15 -8.45 0.0 -8.3 -0.05 -8.45 -0.05 -8.5 -0.05 -8.55 -0.1 -8.6 -0.1 -8.65 -0.15 -8.7 Q-0.2 -8.8 -0.15 -8.85 L-0.05 -8.9 -0.1 -9.0 -0.2 -9.1 -0.1 -9.1 -0.05 -9.05 -0.1 -9.15 -0.1 -9.15 -0.05 -9.2 0.05 -9.15 M-0.15 -8.7 L-0.15 -8.7" fill="#392223" fill-rule="evenodd" stroke="none"/>
    <path d="M0.15 -9.05 L0.15 -8.9 0.15 -8.8 0.15 -8.7 0.85 -7.95 0.9 -7.85 0.8 -7.65 0.55 -7.35 0.55 -7.55 0.55 -7.6 0.65 -7.65 0.7 -7.75 0.7 -7.8 0.6 -7.95 0.55 -8.05 0.5 -8.1 Q0.5 -8.1 0.45 -8.15 L0.4 -8.15 0.5 -8.15 0.5 -8.2 0.5 -8.25 0.4 -8.35 0.05 -8.45 0.05 -8.7 0.1 -8.8 0.1 -9.05 0.15 -9.05" fill="#33312f" fill-rule="evenodd" stroke="none"/>
    <path d="M0.05 -8.45 L0.4 -8.35 0.5 -8.25 0.5 -8.2 0.5 -8.15 0.4 -8.15 0.35 -8.2 0.15 -8.25 0.15 -8.35 0.1 -8.35 0.05 -8.45" fill="#423f3f" fill-rule="evenodd" stroke="none"/>
    <path d="M0.1 -8.35 L0.15 -8.35 0.15 -8.25 0.1 -8.35" fill="#857f7d" fill-rule="evenodd" stroke="none"/>
    <path d="M0.15 -8.25 L0.35 -8.2 0.35 -8.1 Q0.35 -8.05 0.25 -8.15 L0.15 -8.25" fill="#837676" fill-rule="evenodd" stroke="none"/>
    <path d="M0.45 -7.75 Q0.4 -7.85 0.45 -7.9 L0.5 -7.9 0.55 -7.9 0.6 -7.85 0.6 -7.85 0.55 -7.75 0.5 -7.75 0.45 -7.75" fill="#96706f" fill-rule="evenodd" stroke="none"/>
    <path d="M0.7 -7.75 L0.65 -7.65 0.55 -7.6 0.55 -7.7 0.5 -7.7 0.5 -7.7 0.55 -7.75 0.7 -7.75" fill="#875f5f" fill-rule="evenodd" stroke="none"/>
    <path d="M0.55 -7.6 L0.55 -7.6 0.5 -7.65 0.5 -7.7 0.55 -7.7 0.55 -7.6" fill="#e5bcba" fill-rule="evenodd" stroke="none"/>
    <path d="M0.2 -6.65 L0.2 -6.6 0.15 -6.5 0.15 -6.4 0.15 -6.4 0.2 -6.35 0.2 -6.2 0.15 -6.2 0.15 -6.25 0.1 -6.25 0.05 -6.25 0.15 -6.15 0.15 -6.05 0.2 -6.05 0.2 -5.85 0.15 -5.75 0.2 -5.7 0.2 -5.6 0.2 -5.35 0.15 -5.25 0.1 -5.25 0.1 -5.25 0.15 -5.3 0.15 -5.35 0.1 -5.35 0.1 -5.35 0.05 -5.3 -0.05 -5.4 -0.15 -5.5 -0.15 -5.55 -0.15 -5.65 -0.2 -5.7 -0.2 -5.75 -0.15 -5.75 -0.15 -5.75 -0.15 -6.05 -0.1 -6.15 -0.1 -6.15 -0.15 -6.1 -0.15 -6.1 -0.2 -6.05 -0.2 -6.05 -0.2 -6.2 -0.15 -6.25 -0.15 -6.45 -0.2 -6.6 -0.2 -6.65 -0.15 -6.65 -0.15 -6.65 -0.15 -6.8 -0.15 -6.95 -0.1 -6.95 -0.05 -7.0 0.0 -7.0 0.05 -7.0 0.05 -7.0 0.15 -6.95 0.15 -6.75 0.15 -6.7 0.15 -6.65 0.1 -6.55 0.2 -6.65 M-0.25 -4.65 L-0.25 -4.75 -0.2 -4.8 -0.15 -4.8 -0.15 -4.9 -0.15 -5.0 -0.1 -5.05 -0.05 -5.05 -0.05 -5.0 -0.1 -4.9 Q-0.1 -4.9 -0.05 -4.95 L0.0 -5.0 0.0 -5.0 -0.05 -4.95 -0.1 -4.85 -0.1 -4.8 -0.05 -4.8 -0.05 -4.85 0.0 -4.9 0.0 -4.95 0.05 -5.0 0.05 -5.05 0.15 -5.1 0.15 -5.0 0.15 -4.8 0.15 -4.7 0.15 -4.65 0.1 -4.65 0.05 -4.75 0.0 -4.75 -0.05 -4.8 -0.1 -4.75 -0.2 -4.65 -0.25 -4.65 M0.55 -7.6 L0.55 -7.55 0.45 -7.5 Q0.4 -7.6 0.35 -7.5 L0.25 -7.3 0.25 -7.3 0.2 -7.25 0.15 -7.25 0.0 -7.2 -0.05 -7.2 -0.15 -7.25 -0.15 -7.2 -0.2 -7.25 -0.25 -7.25 -0.35 -7.35 -0.35 -7.4 -0.45 -7.45 -0.5 -7.45 -0.5 -7.65 -0.5 -7.85 -0.4 -7.95 Q-0.3 -8.05 -0.25 -8.2 L-0.25 -8.3 -0.2 -8.25 -0.1 -8.25 0.25 -8.05 0.3 -8.0 0.35 -7.95 Q0.4 -7.85 0.4 -7.7 L0.45 -7.75 0.5 -7.75 0.55 -7.75 0.5 -7.7 0.5 -7.7 0.5 -7.65 0.55 -7.6 0.55 -7.6 M0.05 -7.7 L0.05 -7.75 0.0 -7.75 Q-0.1 -7.8 0.05 -7.9 0.1 -7.85 0.15 -7.85 L0.3 -7.85 0.25 -7.95 0.2 -7.95 0.15 -7.95 Q0.05 -8.0 0.0 -8.05 L-0.05 -8.1 -0.15 -8.1 -0.25 -8.05 -0.3 -7.95 Q-0.25 -7.95 -0.3 -7.85 L-0.3 -7.75 -0.25 -7.8 Q-0.2 -7.85 -0.2 -7.8 -0.15 -7.75 -0.1 -7.7 L0.05 -7.7 0.0 -7.6 -0.05 -7.55 0.05 -7.5 0.1 -7.45 0.15 -7.5 Q0.2 -7.55 0.15 -7.6 L0.15 -7.7 0.05 -7.7 M-0.3 -7.75 L-0.35 -7.7 -0.25 -7.65 -0.25 -7.7 -0.3 -7.75 M0.05 -6.95 L0.05 -6.95 0.0 -6.9 -0.05 -6.75 0.0 -6.65 Q0.0 -6.5 0.05 -6.5 L0.05 -6.55 0.05 -6.65 0.1 -6.7 0.1 -6.8 0.05 -6.85 0.05 -6.95 M0.1 -6.5 L0.05 -6.5 0.0 -6.5 -0.15 -6.6 -0.15 -6.6 -0.15 -6.45 -0.1 -6.35 -0.1 -6.25 -0.05 -6.3 0.05 -6.3 0.1 -6.3 0.15 -6.25 0.15 -6.35 0.1 -6.4 0.15 -6.5 0.15 -6.5 0.1 -6.5 M0.1 -5.9 L0.05 -6.0 0.05 -6.15 0.0 -6.2 0.0 -6.05 -0.05 -6.05 -0.05 -6.0 -0.05 -5.75 0.0 -5.65 0.0 -5.5 0.05 -5.55 0.05 -5.65 0.1 -5.7 0.1 -5.9 M-0.1 -2.05 L-0.1 -2.15 -0.15 -2.2 -0.15 -2.35 -0.15 -2.75 -0.1 -2.8 -0.15 -3.1 -0.15 -3.2 -0.15 -3.5 -0.1 -3.55 -0.15 -3.65 -0.15 -3.8 -0.15 -3.95 -0.1 -4.0 -0.15 -4.1 -0.15 -4.15 -0.15 -4.25 -0.1 -4.4 -0.05 -4.55 0.0 -4.5 0.0 -4.45 0.05 -4.45 0.05 -4.05 0.05 -3.85 0.05 -3.75 0.05 -3.6 0.05 -3.5 0.05 -3.3 0.05 -3.15 0.0 -3.05 0.05 -3.0 0.05 -2.9 0.1 -2.85 0.1 -2.8 0.05 -2.7 0.05 -2.35 0.1 -2.2 0.05 -2.1 0.05 -1.95 0.1 -1.6 0.05 -1.55 0.05 -1.5 0.05 -1.3 0.1 -1.25 0.05 -1.15 0.05 -0.8 0.05 -0.6 0.1 -0.5 0.1 -0.3 0.1 -0.25 0.1 -0.2 0.05 -0.2 0.05 -0.25 0.0 -0.35 0.0 -0.5 -0.05 -0.55 -0.05 -0.5 -0.05 -0.4 -0.1 -0.35 -0.1 -0.25 -0.1 -0.2 -0.15 -0.25 -0.15 -0.45 -0.1 -0.55 -0.15 -1.0 -0.1 -1.75 -0.15 -1.85 -0.15 -2.0 -0.1 -2.05 -0.1 -2.05 -0.1 -2.05 -0.05 -2.0 0.0 -2.05 0.0 -2.15 -0.05 -2.1 -0.1 -2.05 M0.15 -4.65 L0.15 -4.65 M0.05 0.1 L0.0 0.05 -0.1 0.05 -0.1 0.05 0.05 0.05 0.1 0.05 0.1 0.1 0.05 0.1 M-0.05 5.9 L-0.05 5.55 -0.05 5.4 -0.05 5.1 -0.05 4.6 -0.05 4.4 -0.05 4.3 -0.05 4.1 -0.05 4.0 -0.05 3.95 0.0 3.9 -0.05 3.85 -0.05 3.75 -0.05 3.6 -0.05 2.85 -0.1 2.7 -0.1 2.6 -0.1 2.4 -0.15 2.35 -0.1 2.25 -0.05 1.6 -0.1 1.5 -0.1 1.35 -0.05 1.05 -0.05 0.85 0.0 0.8 0.0 0.9 0.05 1.05 0.05 1.4 0.05 1.7 0.1 1.85 0.1 2.65 0.05 2.7 0.05 2.75 0.1 2.95 0.05 3.15 0.05 3.45 0.05 3.6 0.05 3.75 0.05 3.85 0.1 3.9 0.1 4.0 0.05 4.3 0.05 4.4 0.1 4.6 0.1 4.75 0.05 4.8 0.1 5.0 0.05 5.1 0.05 5.2 0.05 5.35 0.1 5.4 0.1 5.5 0.05 5.6 0.05 5.65 0.1 5.95 0.1 6.0 0.05 6.1 0.05 6.65 0.05 6.8 0.05 6.85 0.05 6.95 0.05 7.25 0.05 7.45 0.1 7.9 0.1 8.05 0.05 8.1 0.05 8.15 0.05 8.35 0.05 8.65 0.1 8.7 0.05 8.8 0.1 9.0 0.1 9.3 0.05 9.45 0.1 9.6 0.05 9.65 0.05 9.7 0.05 9.95 0.05 10.1 0.0 10.1 0.0 10.1 0.0 10.05 -0.05 10.05 -0.05 10.0 -0.05 9.8 0.0 9.8 -0.05 9.7 0.0 9.65 0.0 9.55 -0.05 9.5 Q-0.05 9.45 -0.05 9.4 L-0.05 9.4 -0.05 9.0 -0.05 8.35 -0.05 8.3 -0.05 8.3 0.0 8.25 -0.05 8.2 -0.05 8.1 -0.05 7.95 -0.05 7.6 -0.05 6.95 -0.05 6.85 -0.1 6.75 -0.05 6.7 -0.05 6.55 -0.05 6.2 -0.05 6.1 -0.1 6.0 -0.1 5.9 -0.05 5.9 -0.05 5.9 -0.05 5.9 -0.05 5.95 0.0 5.95 0.0 6.0 0.05 6.0 0.0 5.9 -0.05 5.9 M-0.1 10.3 L-0.05 10.35 -0.05 10.4 -0.05 10.45 0.0 10.5 0.0 10.7 0.0 10.85 0.0 10.95 0.05 10.85 0.05 10.6 0.05 10.35 0.15 10.3 0.15 10.4 0.15 10.5 0.15 10.65 0.2 10.7 0.15 10.9 0.05 11.0 0.0 11.0 Q-0.15 11.0 -0.15 10.9 L-0.15 10.9 -0.1 10.85 -0.15 10.65 -0.15 10.55 Q-0.1 10.5 -0.1 10.4 L-0.1 10.3 M-0.05 -5.15 L-0.1 -5.1 -0.2 -5.05 -0.2 -5.15 -0.15 -5.2 -0.15 -5.25 -0.1 -5.2 -0.05 -5.15" fill="#5b292b" fill-rule="evenodd" stroke="none"/>
    <path d="M-0.3 -7.75 L-0.3 -7.85 Q-0.25 -7.95 -0.3 -7.95 L-0.25 -8.05 -0.15 -8.1 -0.05 -8.1 0.0 -8.05 Q0.05 -8.0 0.15 -7.95 L0.2 -7.95 0.25 -7.95 0.3 -7.85 0.15 -7.85 Q0.1 -7.85 0.05 -7.9 -0.1 -7.8 0.0 -7.75 L0.05 -7.75 0.05 -7.7 -0.1 -7.7 Q-0.15 -7.75 -0.2 -7.8 -0.2 -7.85 -0.25 -7.8 L-0.3 -7.75" fill="#2d1717" fill-rule="evenodd" stroke="none"/>
    <path d="M0.05 -7.7 L0.15 -7.7 0.15 -7.6 0.05 -7.6 -0.05 -7.55 0.0 -7.6 0.05 -7.7 M0.05 -6.95 L0.05 -6.85 0.1 -6.8 0.1 -6.7 0.05 -6.65 0.05 -6.55 0.05 -6.5 Q0.0 -6.5 0.0 -6.65 L-0.05 -6.75 0.0 -6.9 0.05 -6.95 0.05 -6.95 M0.1 -6.5 L0.15 -6.5 0.15 -6.5 0.1 -6.4 0.15 -6.35 0.15 -6.25 0.1 -6.3 0.05 -6.3 -0.05 -6.3 -0.1 -6.25 -0.1 -6.35 -0.15 -6.45 -0.15 -6.6 -0.15 -6.6 0.0 -6.5 0.05 -6.5 0.1 -6.5 M0.1 -5.9 L0.1 -5.7 0.05 -5.65 0.05 -5.55 0.0 -5.5 0.0 -5.65 -0.05 -5.75 -0.05 -6.0 -0.05 -6.05 0.0 -6.05 0.0 -6.2 0.05 -6.15 0.05 -6.0 0.1 -5.9 M-0.15 -5.55 L-0.15 -5.5 -0.05 -5.4 0.05 -5.3 0.1 -5.35 0.1 -5.35 0.15 -5.35 0.15 -5.3 0.1 -5.25 0.1 -5.25 0.05 -5.15 0.05 -5.1 0.0 -5.0 0.0 -5.0 -0.05 -4.95 Q-0.1 -4.9 -0.1 -4.9 L-0.05 -5.0 -0.05 -5.05 -0.1 -5.05 -0.1 -5.1 -0.05 -5.15 0.0 -5.2 -0.05 -5.25 -0.05 -5.35 -0.1 -5.4 -0.15 -5.45 -0.15 -5.5 -0.15 -5.55 M-0.2 -4.65 L-0.1 -4.75 -0.05 -4.8 0.0 -4.75 0.05 -4.75 0.1 -4.65 0.15 -4.65 0.05 -4.65 -0.05 -4.65 -0.15 -4.65 -0.2 -4.65 M-0.05 -5.15 L-0.05 -5.15 -0.05 -5.15" fill="#a1767d" fill-rule="evenodd" stroke="none"/>
    <path d="M0.25 -7.3 L0.35 -7.5 Q0.4 -7.6 0.45 -7.5 L0.35 -7.4 0.25 -7.3" fill="#83555a" fill-rule="evenodd" stroke="none"/>
    <path d="M0.15 -7.6 Q0.2 -7.55 0.15 -7.5 L0.1 -7.45 0.05 -7.5 0.15 -7.6" fill="#b46a6e" fill-rule="evenodd" stroke="none"/>
    <path d="M0.05 -7.5 L-0.05 -7.55 0.05 -7.6 0.15 -7.6 0.05 -7.5" fill="#f2d5d7" fill-rule="evenodd" stroke="none"/>
    <path d="M0.55 -7.35 L0.3 -7.1 0.3 -7.1 0.2 -7.05 0.2 -7.05 0.1 -7.0 0.05 -7.0 0.0 -7.0 -0.05 -7.0 -0.1 -6.95 -0.15 -6.95 -0.15 -6.8 -0.15 -6.65 -0.15 -6.65 -0.2 -6.65 -0.2 -6.6 -0.15 -6.45 -0.15 -6.25 -0.2 -6.2 -0.2 -6.05 -0.2 -6.05 -0.15 -6.1 -0.15 -6.1 -0.1 -6.15 -0.1 -6.15 -0.15 -6.05 -0.15 -5.75 -0.15 -5.75 -0.2 -5.75 -0.2 -5.7 -0.15 -5.65 -0.15 -5.55 -0.15 -5.5 -0.15 -5.5 -0.2 -5.5 -0.2 -5.45 -0.15 -5.4 -0.15 -5.35 -0.1 -5.3 -0.1 -5.25 -0.05 -5.2 -0.05 -5.15 -0.1 -5.2 -0.15 -5.25 -0.15 -5.2 -0.2 -5.15 -0.2 -5.05 -0.1 -5.1 -0.1 -5.05 -0.15 -5.0 -0.15 -4.9 -0.15 -4.8 -0.2 -4.8 -0.25 -4.75 -0.25 -6.25 -0.25 -7.0 -0.25 -7.05 Q-0.4 -7.1 -0.6 -7.2 L-0.7 -7.4 -0.7 -7.55 -0.7 -7.65 Q-0.55 -7.9 -0.55 -8.2 -0.5 -8.55 -0.55 -8.85 L-0.35 -8.7 -0.35 -8.7 Q-0.3 -8.55 -0.25 -8.3 L-0.25 -8.2 Q-0.3 -8.05 -0.4 -7.95 L-0.5 -7.85 -0.5 -7.65 -0.5 -7.45 -0.45 -7.45 -0.35 -7.4 -0.35 -7.35 -0.25 -7.25 -0.2 -7.25 -0.15 -7.2 -0.15 -7.25 -0.05 -7.2 0.0 -7.2 0.15 -7.25 0.2 -7.25 0.25 -7.3 0.25 -7.3 0.35 -7.4 0.45 -7.5 0.55 -7.55 0.55 -7.35 M-0.1 -7.0 L-0.05 -7.0 -0.15 -7.05 -0.2 -7.0 -0.2 -6.95 -0.2 -6.95 -0.15 -7.0 -0.15 -7.0 -0.1 -7.0 M-0.05 -5.15 L-0.05 -5.15 -0.05 -5.15" fill="#272525" fill-rule="evenodd" stroke="none"/>
    <path d="M0.5 -8.1 L0.55 -8.05 0.45 -8.05 0.5 -8.1" fill="#7f7074" fill-rule="evenodd" stroke="none"/>
    <path d="M-0.2 -9.15 L-0.15 -9.15 -0.1 -9.15 -0.1 -9.15 -0.05 -9.05 -0.1 -9.1 -0.2 -9.1 -0.2 -9.15" fill="#87696a" fill-rule="evenodd" stroke="none"/>
    <path d="M-0.55 -8.95 L-0.35 -9.1 -0.2 -9.15 -0.2 -9.1 -0.15 -9.0 -0.05 -8.9 -0.15 -8.85 Q-0.25 -8.85 -0.25 -8.8 L-0.15 -8.7 -0.15 -8.7 Q-0.2 -8.7 -0.2 -8.6 L-0.15 -8.5 -0.15 -8.5 -0.1 -8.6 -0.05 -8.55 -0.05 -8.5 -0.1 -8.5 -0.1 -8.45 -0.15 -8.45 -0.2 -8.4 Q-0.2 -8.35 -0.25 -8.3 -0.3 -8.55 -0.35 -8.7 L-0.4 -8.75 -0.45 -8.9 -0.5 -8.95 -0.55 -8.95" fill="#593739" fill-rule="evenodd" stroke="none"/>
    <path d="M-0.05 -8.9 L-0.15 -9.0 -0.2 -9.1 -0.1 -9.0 -0.05 -8.9" fill="#977e80" fill-rule="evenodd" stroke="none"/>
    <path d="M-0.55 -8.85 L-0.55 -8.9 -0.45 -8.9 -0.4 -8.75 -0.35 -8.7 -0.35 -8.7 -0.55 -8.85" fill="#585452" fill-rule="evenodd" stroke="none"/>
    <path d="M-0.15 -8.7 L-0.1 -8.65 -0.1 -8.6 -0.15 -8.5 -0.15 -8.5 -0.2 -8.6 Q-0.2 -8.7 -0.15 -8.7" fill="#80686b" fill-rule="evenodd" stroke="none"/>
    <path d="M-0.15 -8.7 L-0.25 -8.8 Q-0.25 -8.85 -0.15 -8.85 -0.2 -8.8 -0.15 -8.7" fill="#876d6f" fill-rule="evenodd" stroke="none"/>
    <path d="M-0.55 -8.9 L-0.55 -8.95 -0.5 -8.95 -0.45 -8.9 -0.55 -8.9" fill="#bea4a1" fill-rule="evenodd" stroke="none"/>
    <path d="M-0.05 -8.5 L-0.05 -8.45 0.0 -8.3 -0.15 -8.45 -0.1 -8.45 -0.1 -8.5 -0.05 -8.5" fill="#9a8686" fill-rule="evenodd" stroke="none"/>
    <path d="M-0.3 -7.75 L-0.25 -7.7 -0.25 -7.65 -0.35 -7.7 -0.3 -7.75" fill="#8b7070" fill-rule="evenodd" stroke="none"/>
    <path d="M-0.1 -0.2 L-0.1 -0.25 -0.1 -0.35 -0.05 -0.4 -0.05 -0.5 -0.05 -0.55 0.0 -0.5 0.0 -0.35 0.05 -0.25 0.0 -0.25 -0.05 -0.3 -0.05 -0.25 -0.1 -0.2 -0.1 -0.2" fill="#af4f52" fill-rule="evenodd" stroke="none"/>
    <path d="M0.0 10.1 L0.0 10.1 0.05 10.1 0.1 10.1 0.1 10.15 0.05 10.15 0.0 10.15 -0.05 10.1 0.0 10.1 M0.05 10.25 L-0.05 10.2 0.15 10.2 0.1 10.25 0.05 10.25 M-0.1 10.3 L-0.1 10.25 0.05 10.3 0.15 10.3 0.05 10.35 0.05 10.6 0.05 10.85 0.0 10.95 0.0 10.85 0.0 10.7 0.0 10.5 -0.05 10.45 -0.05 10.4 -0.05 10.35 -0.1 10.3" fill="#934245" fill-rule="evenodd" stroke="none"/>
    <path d="M0.05 -9.15 L0.1 -9.15 0.1 -9.1 0.15 -9.05 0.15 -8.9 0.15 -8.8 0.15 -8.7 0.85 -7.95 0.9 -7.85 0.8 -7.65 0.55 -7.35 0.3 -7.1 0.3 -7.1 0.25 -7.05 0.2 -6.95 0.2 -6.65 0.2 -6.6 0.2 -5.6 0.2 -5.35 0.2 -4.65 0.2 0.55 0.2 9.55 0.2 10.1 Q0.2 10.25 0.25 10.4 L0.35 10.65 Q0.35 10.8 0.25 10.9 L0.05 11.05 -0.15 10.95 -0.2 10.85 -0.25 10.7 -0.2 10.3 -0.15 9.65 -0.15 9.25 -0.2 9.1 -0.25 9.0 -0.25 -0.1 -0.25 -4.65 -0.25 -4.75 -0.25 -6.25 -0.25 -7.0 -0.25 -7.05 Q-0.4 -7.1 -0.6 -7.2 L-0.7 -7.4 -0.7 -7.55 -0.7 -7.65 Q-0.55 -7.9 -0.55 -8.2 -0.5 -8.55 -0.55 -8.85 L-0.55 -8.9 -0.55 -8.95 -0.35 -9.1 -0.2 -9.15 -0.15 -9.15 -0.1 -9.15 -0.05 -9.2 0.05 -9.2 0.05 -9.15 Z" fill="none" stroke="#000000" stroke-linecap="round" stroke-linejoin="round" stroke-opacity="0.4509804" stroke-width="0.1"/>
  </g>
</svg>
