<?xml version="1.0" encoding="UTF-8" standalone="no"?>
<svg xmlns:xlink="http://www.w3.org/1999/xlink" height="24.2px" width="4.8px" xmlns="http://www.w3.org/2000/svg">
  <g transform="matrix(1.0, 0.0, 0.0, 1.0, 2.15, 11.05)">
    <path d="M0.35 -10.35 L0.35 -10.3 0.35 -10.1 Q0.35 -10.0 0.4 -9.9 L0.45 -9.65 0.4 -9.5 0.35 -9.3 0.5 -9.3 0.25 -9.15 0.1 -9.1 -0.05 -9.1 -0.05 -9.05 -0.15 -9.05 -0.25 -8.9 -0.3 -8.7 -0.35 -8.8 -0.4 -8.5 -0.5 -8.55 -0.6 -8.55 -0.65 -8.65 -0.6 -8.85 -0.45 -8.9 Q-0.4 -8.95 -0.4 -9.0 L-0.45 -9.1 -0.55 -9.15 -0.65 -9.1 -0.75 -8.95 -0.75 -8.8 -0.8 -8.8 -0.9 -8.95 -0.8 -9.05 -0.7 -9.2 -0.5 -9.25 -0.35 -9.3 Q-0.3 -9.35 -0.3 -9.45 L-0.3 -9.85 -0.25 -10.0 -0.3 -10.1 -0.3 -10.15 -0.3 -10.3 Q-0.3 -10.4 -0.25 -10.4 L-0.25 -10.35 Q-0.2 -10.35 -0.2 -10.4 L-0.15 -10.45 -0.1 -10.4 -0.05 -10.35 -0.05 -10.4 0.0 -10.45 0.05 -10.45 0.05 -10.35 0.1 -10.35 0.1 -10.45 0.15 -10.45 Q0.25 -10.45 0.25 -10.4 L0.25 -10.35 Q0.25 -10.35 0.3 -10.4 L0.3 -10.45 0.35 -10.4 0.35 -10.35 M0.1 -10.25 L0.1 -10.25 0.05 -10.25 0.05 -10.15 0.0 -10.1 -0.05 -10.1 -0.05 -10.25 -0.2 -10.25 -0.2 -10.2 -0.15 -10.15 -0.1 -10.0 -0.05 -9.9 -0.1 -9.85 -0.1 -9.8 0.0 -9.75 0.05 -9.7 0.1 -9.7 0.1 -9.65 0.0 -9.65 -0.1 -9.65 -0.1 -9.55 0.0 -9.6 0.05 -9.5 0.1 -9.4 0.0 -9.4 -0.05 -9.35 -0.05 -9.15 0.1 -9.15 0.1 -9.2 0.1 -9.3 0.2 -9.3 0.25 -9.5 0.15 -9.5 0.15 -9.65 0.1 -9.75 0.15 -9.8 0.2 -9.8 0.2 -9.9 0.1 -9.9 0.0 -9.95 0.05 -10.0 0.25 -10.0 0.15 -10.25 0.1 -10.25 M-0.3 -10.1 L-0.3 -10.15 -0.3 -10.1" fill="#3c3c3b" fill-rule="evenodd" stroke="none"/>
    <path d="M0.05 -10.15 L0.05 -10.25 0.1 -10.25 0.1 -10.25 0.1 -10.15 0.05 -10.15" fill="#e8c5c2" fill-rule="evenodd" stroke="none"/>
    <path d="M0.1 -10.25 L0.15 -10.25 0.25 -10.0 0.05 -10.0 -0.05 -10.0 -0.15 -10.15 -0.2 -10.2 -0.2 -10.25 -0.05 -10.25 -0.05 -10.1 0.0 -10.1 0.05 -10.15 0.1 -10.15 0.1 -10.25" fill="#a57a78" fill-rule="evenodd" stroke="none"/>
    <path d="M0.05 -10.0 L0.0 -9.95 0.1 -9.9 0.2 -9.9 0.05 -9.9 -0.05 -9.8 0.1 -9.75 0.15 -9.65 0.15 -9.5 0.25 -9.5 0.2 -9.3 0.1 -9.3 0.1 -9.2 0.0 -9.35 -0.05 -9.15 -0.05 -9.35 0.0 -9.4 0.1 -9.4 0.05 -9.5 0.0 -9.6 -0.1 -9.55 -0.1 -9.65 0.0 -9.65 0.1 -9.65 0.1 -9.7 0.05 -9.7 0.0 -9.75 -0.1 -9.8 -0.1 -9.85 -0.05 -9.9 -0.1 -10.0 -0.15 -10.15 -0.05 -10.0 0.05 -10.0" fill="#87615c" fill-rule="evenodd" stroke="none"/>
    <path d="M1.7 -10.35 L1.75 -10.55 1.8 -10.75 1.95 -10.75 1.85 -10.4 1.7 -10.2 1.7 -10.35" fill="#465150" fill-rule="evenodd" stroke="none"/>
    <path d="M1.9 -9.9 L1.9 -10.0 1.85 -10.05 1.65 -10.15 1.6 -10.15 1.7 -10.35 1.7 -10.2 1.85 -10.4 1.9 -10.25 Q2.0 -10.3 2.0 -10.4 L2.1 -10.65 2.2 -10.9 2.2 -10.95 2.3 -10.95 2.3 -10.75 2.3 -10.7 2.25 -10.7 2.2 -10.6 2.1 -10.4 2.05 -10.2 2.0 -10.15 1.9 -10.15 2.1 -10.15 2.1 -10.0 1.9 -10.05 1.9 -9.9 1.9 -9.9 M2.5 -10.65 L2.55 -10.55 2.55 -10.45 2.5 -10.35 2.45 -10.5 2.5 -10.65 M2.5 -10.3 L2.5 -10.1 2.4 -9.95 Q2.35 -9.9 2.3 -9.95 L2.2 -10.0 2.4 -10.0 2.45 -10.15 2.5 -10.3" fill="#3d423f" fill-rule="evenodd" stroke="none"/>
    <path d="M2.3 -10.7 L2.25 -10.45 2.15 -10.2 2.1 -10.25 Q2.1 -10.15 2.1 -10.1 L2.2 -10.0 2.3 -10.05 2.35 -10.1 2.4 -10.0 2.2 -10.0 2.1 -9.9 2.1 -10.0 2.1 -10.15 1.9 -10.15 2.0 -10.15 2.05 -10.2 2.1 -10.4 2.2 -10.6 2.25 -10.7 2.3 -10.7" fill="#716866" fill-rule="evenodd" stroke="none"/>
    <path d="M2.15 -10.2 Q2.2 -10.15 2.25 -10.15 2.35 -10.2 2.35 -10.35 L2.4 -10.6 2.5 -10.65 2.45 -10.5 2.5 -10.35 2.5 -10.3 2.45 -10.15 2.4 -10.0 2.35 -10.1 2.3 -10.05 2.2 -10.0 2.1 -10.1 Q2.1 -10.15 2.1 -10.25 L2.15 -10.2" fill="#4a494d" fill-rule="evenodd" stroke="none"/>
    <path d="M2.1 -9.9 L2.05 -9.75 2.0 -9.95 1.9 -9.75 1.9 -9.9 1.9 -10.05 2.1 -10.0 2.1 -9.9" fill="#2f3330" fill-rule="evenodd" stroke="none"/>
    <path d="M2.05 -9.75 L2.0 -9.6 1.95 -9.4 Q1.85 -9.6 1.9 -9.75 L2.0 -9.95 2.05 -9.75" fill="#696260" fill-rule="evenodd" stroke="none"/>
    <path d="M1.35 -7.95 L1.4 -8.2 1.5 -8.4 1.55 -8.6 1.6 -8.75 1.65 -9.1 1.75 -9.4 1.8 -9.65 1.85 -9.75 1.9 -9.75 Q1.85 -9.6 1.95 -9.4 L1.95 -9.3 1.9 -9.25 1.85 -9.5 Q1.8 -9.45 1.8 -9.3 L1.9 -9.15 1.8 -8.85 1.75 -8.55 1.65 -8.65 1.6 -8.5 1.7 -8.45 1.7 -8.4 1.65 -8.2 1.6 -8.15 1.55 -7.8 1.55 -7.7 1.35 -7.7 1.35 -7.95" fill="#514f4f" fill-rule="evenodd" stroke="none"/>
    <path d="M1.8 -9.65 Q1.8 -9.85 1.9 -9.9 L1.9 -9.75 1.85 -9.75 1.8 -9.65 M1.9 -9.9 L1.9 -9.9" fill="#ccafb2" fill-rule="evenodd" stroke="none"/>
    <path d="M1.95 -9.3 L1.9 -9.15 1.8 -9.3 Q1.8 -9.45 1.85 -9.5 L1.9 -9.25 1.95 -9.3" fill="#977e7f" fill-rule="evenodd" stroke="none"/>
    <path d="M1.0 -8.85 L1.0 -8.75 1.05 -8.65 1.0 -8.7 1.0 -8.85" fill="#a68082" fill-rule="evenodd" stroke="none"/>
    <path d="M0.2 -9.9 L0.2 -9.8 0.15 -9.8 0.1 -9.75 -0.05 -9.8 0.05 -9.9 0.2 -9.9" fill="#dfafac" fill-rule="evenodd" stroke="none"/>
    <path d="M0.8 -9.15 L0.95 -9.05 0.95 -8.95 0.9 -8.85 0.8 -9.0 0.6 -9.05 0.6 -8.9 0.6 -8.9 0.7 -8.75 0.7 -8.65 0.7 -8.65 0.7 -8.55 0.7 -8.55 0.75 -8.5 0.75 -8.4 0.8 -8.35 Q0.85 -8.15 0.95 -8.05 L0.95 -7.85 Q0.95 -7.7 1.05 -7.55 L1.05 -7.45 0.85 -7.6 Q0.85 -7.5 0.9 -7.4 L0.95 -7.3 1.05 -7.3 1.05 -7.0 1.1 -7.0 1.1 -7.25 1.25 -7.25 1.2 -7.0 1.15 -6.75 1.05 -6.5 1.05 -6.3 0.95 -6.15 0.9 -6.25 0.8 -6.3 0.9 -6.4 0.95 -6.5 1.0 -6.55 1.0 -6.6 0.8 -6.45 0.65 -6.45 0.55 -6.5 0.55 -6.55 0.6 -6.7 Q0.75 -6.75 0.9 -6.9 1.0 -7.05 1.0 -7.25 L0.9 -7.05 0.75 -6.85 Q0.75 -6.85 0.65 -6.85 L0.55 -6.85 0.55 -6.95 0.8 -7.0 0.55 -7.05 0.65 -7.2 0.8 -7.3 0.7 -7.35 0.6 -7.5 0.55 -7.65 0.55 -7.7 0.5 -7.75 0.45 -7.8 0.45 -8.0 0.55 -8.0 0.5 -8.25 0.45 -8.35 0.45 -8.45 0.5 -8.45 0.5 -8.5 0.55 -8.55 0.5 -8.55 0.45 -8.6 0.45 -8.8 0.35 -8.8 0.25 -8.95 0.2 -9.0 0.15 -9.0 0.05 -9.05 -0.05 -9.05 -0.05 -9.1 0.1 -9.1 0.25 -9.15 0.35 -9.05 Q0.4 -9.0 0.45 -9.0 L0.65 -9.05 0.8 -9.15 M1.4 -7.0 L1.4 -6.95 1.45 -6.6 1.45 -6.25 1.3 -6.2 1.35 -6.25 Q1.4 -6.35 1.4 -6.45 L1.25 -6.45 1.3 -6.35 1.15 -6.25 1.15 -6.3 1.1 -6.35 Q1.2 -6.4 1.2 -6.55 L1.2 -6.8 1.25 -7.1 1.3 -7.15 1.4 -7.0 M0.7 -8.55 L0.7 -8.55 M0.65 -8.2 L0.65 -7.9 0.7 -7.85 0.8 -7.85 0.8 -8.0 0.75 -8.15 0.65 -8.2 0.65 -8.2 M1.05 -6.8 L1.05 -6.95 0.95 -6.85 1.05 -6.8" fill="#393c41" fill-rule="evenodd" stroke="none"/>
    <path d="M0.5 -9.3 L0.8 -9.15 0.65 -9.05 0.45 -9.0 Q0.4 -9.0 0.35 -9.05 L0.25 -9.15 0.5 -9.3 M1.05 -8.6 L1.05 -8.5 Q0.95 -8.45 0.9 -8.25 L0.8 -8.35 0.75 -8.4 0.75 -8.5 0.8 -8.45 0.9 -8.45 0.95 -8.5 1.0 -8.55 0.7 -8.55 0.7 -8.65 0.7 -8.75 0.6 -8.9 0.6 -8.9 0.65 -8.9 0.75 -8.75 0.85 -8.7 0.85 -8.8 0.9 -8.85 0.9 -8.65 1.05 -8.6 M0.45 -8.6 L0.5 -8.55 0.55 -8.55 0.5 -8.5 0.5 -8.45 0.45 -8.45 Q0.35 -8.4 0.35 -8.25 L0.25 -8.45 0.45 -8.5 0.45 -8.6 M0.7 -8.55 L0.7 -8.55" fill="#9d6c74" fill-rule="evenodd" stroke="none"/>
    <path d="M-0.05 -9.05 L0.05 -9.05 0.15 -9.0 0.2 -9.0 0.25 -8.95 0.2 -8.8 0.1 -8.95 -0.15 -8.9 -0.15 -9.05 -0.05 -9.05" fill="#f6d8d2" fill-rule="evenodd" stroke="none"/>
    <path d="M0.1 -9.2 L0.1 -9.15 -0.05 -9.15 0.0 -9.35 0.1 -9.2" fill="#cc928c" fill-rule="evenodd" stroke="none"/>
    <path d="M-0.15 -8.9 L0.1 -8.95 0.2 -8.8 0.25 -8.95 0.35 -8.8 0.45 -8.8 0.45 -8.6 0.45 -8.5 0.25 -8.45 0.35 -8.25 0.4 -8.2 0.45 -8.0 0.3 -8.15 0.2 -8.25 0.1 -8.3 0.2 -8.45 0.1 -8.55 0.2 -8.55 0.1 -8.65 -0.1 -8.55 -0.05 -8.55 0.0 -8.4 0.05 -8.35 -0.05 -8.3 -0.05 -8.2 -0.2 -8.3 -0.2 -8.3 -0.15 -8.45 -0.4 -8.5 Q-0.3 -8.55 -0.25 -8.7 L-0.15 -8.9 M0.15 -8.75 L0.15 -8.65 0.25 -8.6 0.3 -8.55 0.3 -8.75 0.15 -8.75 M0.1 -8.7 L0.1 -8.8 0.0 -8.75 -0.15 -8.8 -0.2 -8.55 0.1 -8.7" fill="#d3918f" fill-rule="evenodd" stroke="none"/>
    <path d="M0.1 -8.7 L-0.2 -8.55 -0.15 -8.8 0.0 -8.75 0.1 -8.8 0.1 -8.7" fill="#fce4e0" fill-rule="evenodd" stroke="none"/>
    <path d="M0.15 -8.75 L0.3 -8.75 0.3 -8.55 0.25 -8.6 0.15 -8.65 0.15 -8.75" fill="#fadfd8" fill-rule="evenodd" stroke="none"/>
    <path d="M0.6 -8.9 L0.6 -9.05 0.8 -9.0 0.8 -8.9 0.65 -8.9 0.6 -8.9" fill="#edbebe" fill-rule="evenodd" stroke="none"/>
    <path d="M0.8 -9.0 L0.9 -8.85 0.85 -8.8 0.85 -8.7 0.75 -8.75 0.65 -8.9 0.8 -8.9 0.8 -9.0" fill="#c87f84" fill-rule="evenodd" stroke="none"/>
    <path d="M0.95 -8.95 L1.0 -8.85 1.0 -8.7 1.05 -8.65 1.05 -8.6 0.9 -8.65 0.9 -8.85 0.95 -8.95" fill="#3c3230" fill-rule="evenodd" stroke="none"/>
    <path d="M0.75 -8.5 L0.7 -8.55 0.7 -8.55 1.0 -8.55 0.95 -8.5 0.9 -8.45 0.8 -8.45 0.75 -8.5" fill="#cc9198" fill-rule="evenodd" stroke="none"/>
    <path d="M0.7 -8.55 L0.7 -8.65 0.7 -8.65 0.7 -8.55" fill="#453731" fill-rule="evenodd" stroke="none"/>
    <path d="M0.95 -7.85 L0.95 -8.05 1.0 -8.05 1.05 -8.0 1.1 -7.95 1.15 -7.85 1.0 -7.85 0.95 -7.85" fill="#7c5f6a" fill-rule="evenodd" stroke="none"/>
    <path d="M1.05 -8.5 L1.05 -8.45 1.15 -8.25 1.2 -8.05 1.2 -7.85 1.15 -7.85 1.1 -7.95 1.05 -8.0 1.0 -8.05 0.95 -8.05 Q0.85 -8.15 0.8 -8.35 L0.9 -8.25 Q0.95 -8.45 1.05 -8.5" fill="#494548" fill-rule="evenodd" stroke="none"/>
    <path d="M-0.05 -8.55 L-0.1 -8.55 0.1 -8.65 0.2 -8.55 0.1 -8.55 -0.05 -8.55" fill="#8c655f" fill-rule="evenodd" stroke="none"/>
    <path d="M0.1 -8.55 L0.2 -8.45 0.1 -8.3 0.05 -8.35 0.0 -8.4 -0.05 -8.55 0.1 -8.55" fill="#f0cdd1" fill-rule="evenodd" stroke="none"/>
    <path d="M0.45 -8.0 L0.45 -7.8 0.5 -7.75 0.55 -7.7 0.55 -7.65 0.6 -7.5 0.7 -7.35 0.8 -7.3 0.65 -7.2 0.55 -7.05 0.8 -7.0 0.55 -6.95 0.55 -6.85 0.65 -6.85 Q0.75 -6.85 0.75 -6.85 L0.9 -7.05 1.0 -7.25 Q1.0 -7.05 0.9 -6.9 0.75 -6.75 0.6 -6.7 L0.55 -6.55 0.55 -6.6 Q0.5 -6.6 0.35 -6.65 L0.2 -6.7 0.2 -6.6 Q0.15 -6.8 0.15 -6.95 L0.1 -7.05 0.1 -7.1 0.0 -7.2 0.1 -7.2 0.2 -7.25 0.3 -7.3 0.35 -7.4 0.3 -7.5 0.25 -7.5 0.2 -7.55 0.15 -7.65 0.05 -7.65 -0.05 -7.65 -0.1 -7.7 0.0 -7.75 0.05 -7.9 0.1 -8.05 0.2 -8.05 0.1 -7.85 0.25 -7.85 0.2 -8.0 0.2 -8.1 0.1 -8.2 -0.05 -8.2 -0.05 -8.3 0.05 -8.35 0.1 -8.3 0.2 -8.25 0.3 -8.15 0.45 -8.0 0.4 -8.2 Q0.45 -8.15 0.45 -8.0 M1.05 -6.5 L1.15 -6.75 1.2 -7.0 1.25 -7.25 1.1 -7.25 1.1 -7.0 1.05 -7.0 1.05 -7.3 0.95 -7.3 1.05 -7.3 1.15 -7.35 1.2 -7.4 1.25 -7.45 1.15 -7.65 1.1 -7.65 1.15 -7.7 1.25 -7.6 1.3 -7.5 1.3 -7.4 1.25 -7.3 1.3 -7.25 1.3 -7.15 1.25 -7.1 1.2 -6.8 1.2 -6.55 Q1.2 -6.4 1.1 -6.35 L1.05 -6.5 M0.2 -6.6 L0.2 -6.6 M0.35 -7.3 Q0.35 -7.25 0.4 -7.2 L0.55 -7.15 Q0.45 -7.3 0.35 -7.3 M0.25 -7.2 L0.2 -6.95 0.45 -7.0 0.4 -7.15 Q0.3 -7.2 0.25 -7.2 M0.15 -6.85 L0.35 -6.75 0.55 -6.75 0.7 -6.8 0.3 -6.9 Q0.15 -6.95 0.15 -6.85" fill="#886060" fill-rule="evenodd" stroke="none"/>
    <path d="M-0.05 -8.2 L0.1 -8.2 0.2 -8.1 0.2 -8.0 0.25 -7.85 0.1 -7.85 0.2 -8.05 0.1 -8.05 0.05 -7.9 0.05 -8.15 -0.05 -8.2" fill="#ba8388" fill-rule="evenodd" stroke="none"/>
    <path d="M0.45 -8.45 L0.45 -8.35 0.5 -8.25 0.55 -8.0 0.45 -8.0 Q0.45 -8.15 0.4 -8.2 L0.35 -8.25 Q0.35 -8.4 0.45 -8.45" fill="#584b4c" fill-rule="evenodd" stroke="none"/>
    <path d="M0.05 -7.9 L0.0 -7.75 -0.1 -7.75 -0.15 -8.0 -0.25 -8.05 Q-0.25 -8.2 -0.2 -8.3 L-0.05 -8.2 0.05 -8.15 0.05 -7.9" fill="#dcabae" fill-rule="evenodd" stroke="none"/>
    <path d="M-0.1 -7.7 L-0.05 -7.65 -0.05 -7.55 0.0 -7.45 0.1 -7.45 0.25 -7.5 0.3 -7.5 0.35 -7.4 0.3 -7.3 0.2 -7.25 0.1 -7.2 0.0 -7.2 0.1 -7.1 -0.05 -7.2 -0.05 -7.35 -0.1 -7.45 -0.2 -7.55 -0.3 -7.7 -0.1 -7.7" fill="#5a4d4e" fill-rule="evenodd" stroke="none"/>
    <path d="M-0.05 -7.65 L0.05 -7.65 0.15 -7.65 0.2 -7.55 0.25 -7.5 0.1 -7.45 0.0 -7.45 -0.05 -7.55 -0.05 -7.65" fill="#c18d92" fill-rule="evenodd" stroke="none"/>
    <path d="M1.05 -7.55 Q0.95 -7.7 0.95 -7.85 L1.0 -7.85 1.05 -7.75 1.1 -7.65 1.15 -7.65 1.1 -7.45 1.05 -7.55" fill="#f4dde3" fill-rule="evenodd" stroke="none"/>
    <path d="M0.95 -7.3 L0.9 -7.4 Q0.85 -7.5 0.85 -7.6 L1.05 -7.45 1.05 -7.55 1.1 -7.45 1.15 -7.65 1.25 -7.45 1.2 -7.4 1.15 -7.35 1.05 -7.3 0.95 -7.3 M0.95 -7.5 L0.95 -7.35 1.0 -7.4 0.95 -7.5" fill="#caa0aa" fill-rule="evenodd" stroke="none"/>
    <path d="M0.95 -7.5 L1.0 -7.4 0.95 -7.35 0.95 -7.5" fill="#e8d3dc" fill-rule="evenodd" stroke="none"/>
    <path d="M1.75 -8.55 L1.75 -8.45 1.7 -8.4 1.7 -8.45 1.6 -8.5 1.65 -8.65 1.75 -8.55" fill="#c1a09f" fill-rule="evenodd" stroke="none"/>
    <path d="M1.65 -8.2 L1.65 -8.0 1.55 -7.8 1.6 -8.15 1.65 -8.2" fill="#867980" fill-rule="evenodd" stroke="none"/>
    <path d="M1.2 -8.05 Q1.25 -7.9 1.25 -7.75 1.25 -7.75 1.25 -7.7 L1.3 -7.65 1.35 -7.8 1.35 -7.95 1.35 -7.7 1.55 -7.7 1.5 -7.6 1.45 -7.3 1.4 -7.0 1.3 -7.15 1.3 -7.25 1.25 -7.3 1.3 -7.4 1.3 -7.5 1.25 -7.6 1.15 -7.7 1.1 -7.65 1.05 -7.75 1.0 -7.85 1.15 -7.85 1.2 -7.85 1.2 -8.05" fill="#b88e95" fill-rule="evenodd" stroke="none"/>
    <path d="M1.05 -6.8 L0.95 -6.85 1.05 -6.95 1.05 -6.8 M-0.5 -8.3 L-0.6 -8.25 -0.65 -8.35 -0.7 -8.4 -0.75 -8.5 -0.75 -8.55 -0.55 -8.4 -0.5 -8.3" fill="#d9aeb1" fill-rule="evenodd" stroke="none"/>
    <path d="M1.45 -6.25 L1.4 -6.05 1.3 -5.9 1.2 -5.85 1.05 -5.85 1.05 -5.75 1.0 -5.75 0.95 -5.75 Q1.05 -5.8 1.05 -5.95 L1.05 -6.2 1.0 -6.2 0.95 -6.1 0.95 -6.15 1.05 -6.3 1.05 -6.5 1.1 -6.35 1.15 -6.3 1.15 -6.25 1.2 -6.2 1.3 -6.2 1.45 -6.25 M0.95 -5.75 L0.95 -5.75" fill="#958389" fill-rule="evenodd" stroke="none"/>
    <path d="M1.15 -6.25 L1.3 -6.35 1.35 -6.25 1.3 -6.2 1.2 -6.2 1.15 -6.25" fill="#e5c3ca" fill-rule="evenodd" stroke="none"/>
    <path d="M1.3 -6.35 L1.25 -6.45 1.4 -6.45 Q1.4 -6.35 1.35 -6.25 L1.3 -6.35" fill="#a2868f" fill-rule="evenodd" stroke="none"/>
    <path d="M0.35 -7.3 Q0.45 -7.3 0.55 -7.15 L0.4 -7.2 Q0.35 -7.25 0.35 -7.3" fill="#e1bec5" fill-rule="evenodd" stroke="none"/>
    <path d="M-0.65 -5.85 L-0.65 -6.2 -0.6 -6.55 -0.6 -6.8 Q-0.6 -7.0 -0.65 -7.1 L-0.6 -7.15 -0.55 -7.2 -0.5 -7.3 -0.5 -7.45 -0.75 -7.55 -0.8 -7.35 -0.8 -7.2 -0.85 -7.3 -0.95 -7.45 -1.0 -7.45 -0.9 -7.6 -0.85 -7.75 -0.9 -8.0 -0.9 -8.25 -1.05 -8.15 Q-1.15 -8.2 -1.15 -8.3 -1.0 -8.35 -0.95 -8.4 L-1.0 -8.5 -0.9 -8.7 Q-0.85 -8.65 -0.8 -8.55 L-0.75 -8.4 -0.75 -8.55 -0.75 -8.5 -0.7 -8.4 -0.65 -8.35 -0.6 -8.25 Q-0.5 -8.15 -0.5 -8.05 -0.55 -7.9 -0.45 -7.75 L-0.4 -7.65 -0.05 -7.2 0.1 -7.1 0.1 -7.05 0.15 -6.95 Q0.15 -6.8 0.2 -6.6 L0.25 -6.4 0.3 -6.25 0.35 -6.15 0.35 -5.8 0.45 -5.75 0.45 -6.0 0.5 -6.0 0.55 -5.95 0.45 -5.65 0.3 -5.6 0.35 -5.45 0.35 -5.3 0.3 -5.2 0.3 -5.5 0.0 -5.5 -0.05 -5.4 -0.05 -5.55 0.0 -5.7 0.0 -5.8 0.05 -5.95 0.1 -6.0 0.1 -6.1 Q0.2 -6.15 0.15 -6.3 L0.15 -6.55 0.05 -6.6 -0.05 -6.35 -0.2 -6.05 Q-0.25 -5.9 -0.25 -5.7 L-0.3 -5.7 -0.45 -5.8 -0.4 -5.95 -0.4 -6.0 -0.4 -6.2 -0.3 -6.15 Q-0.25 -6.25 -0.3 -6.35 L-0.3 -6.55 -0.1 -6.55 -0.15 -6.7 0.0 -6.7 -0.1 -6.9 0.0 -6.9 0.05 -6.95 0.0 -7.05 Q-0.05 -7.1 -0.1 -7.1 L-0.1 -7.0 -0.2 -6.95 -0.2 -7.1 -0.2 -7.25 -0.25 -7.3 -0.3 -7.35 -0.3 -7.1 Q-0.3 -6.9 -0.35 -6.85 -0.45 -6.7 -0.45 -6.5 L-0.5 -6.15 -0.5 -6.1 -0.55 -6.05 -0.6 -5.85 -0.65 -5.85 -0.65 -5.85 M-0.8 -8.8 L-0.75 -8.8 -0.75 -8.95 -0.65 -9.1 -0.55 -9.15 -0.45 -9.1 -0.4 -9.0 Q-0.4 -8.95 -0.45 -8.9 L-0.6 -8.85 -0.65 -8.65 -0.75 -8.7 -0.8 -8.7 -0.95 -8.8 Q-0.9 -8.8 -0.85 -8.8 L-0.8 -8.8" fill="#3d4142" fill-rule="evenodd" stroke="none"/>
    <path d="M0.05 -6.95 L0.0 -6.9 -0.1 -6.9 0.0 -6.7 -0.15 -6.7 -0.1 -6.55 -0.3 -6.55 -0.3 -6.35 -0.3 -6.4 -0.3 -6.55 -0.3 -6.65 -0.25 -6.75 -0.25 -6.95 -0.2 -7.05 -0.2 -7.1 -0.2 -6.95 -0.1 -7.0 0.05 -6.95" fill="#6d585a" fill-rule="evenodd" stroke="none"/>
    <path d="M0.25 -7.2 Q0.3 -7.2 0.4 -7.15 L0.45 -7.0 0.2 -6.95 0.25 -7.2" fill="#e0b8bd" fill-rule="evenodd" stroke="none"/>
    <path d="M0.15 -6.85 Q0.15 -6.95 0.3 -6.9 L0.7 -6.8 0.55 -6.75 0.35 -6.75 0.15 -6.85" fill="#f3dbdc" fill-rule="evenodd" stroke="none"/>
    <path d="M0.55 -6.55 L0.55 -6.5 0.65 -6.45 0.65 -6.45 0.6 -6.3 0.2 -6.6 0.2 -6.7 0.35 -6.65 Q0.5 -6.6 0.55 -6.6 L0.55 -6.55" fill="#e2bfc5" fill-rule="evenodd" stroke="none"/>
    <path d="M0.2 -6.6 L0.2 -6.6 0.6 -6.3 0.65 -6.45 0.75 -6.3 0.6 -6.2 0.6 -6.05 0.5 -6.0 0.45 -6.0 0.45 -5.75 0.35 -5.8 0.35 -6.15 0.45 -6.05 0.55 -6.05 0.55 -6.2 0.5 -6.3 0.45 -6.35 0.3 -6.45 0.3 -6.25 0.25 -6.4 0.2 -6.6" fill="#bd959e" fill-rule="evenodd" stroke="none"/>
    <path d="M0.35 -6.15 L0.3 -6.25 0.3 -6.45 0.45 -6.35 0.5 -6.3 0.55 -6.2 0.55 -6.05 0.45 -6.05 0.35 -6.15" fill="#eac6cb" fill-rule="evenodd" stroke="none"/>
    <path d="M0.65 -6.45 L0.8 -6.45 1.0 -6.6 1.0 -6.55 0.95 -6.5 0.9 -6.4 0.8 -6.3 0.9 -6.25 0.95 -6.15 0.95 -6.1 0.9 -5.95 0.95 -5.75 0.95 -5.75 0.85 -5.75 0.8 -5.75 0.8 -5.75 0.85 -5.85 0.85 -5.9 0.65 -6.0 0.65 -6.0 0.6 -5.9 0.55 -5.95 0.5 -6.0 0.6 -6.05 0.6 -6.2 0.75 -6.3 0.65 -6.45 0.65 -6.45 M0.0 -7.75 L-0.1 -7.7 -0.3 -7.7 -0.2 -7.55 -0.1 -7.45 -0.05 -7.35 -0.05 -7.2 -0.4 -7.65 -0.3 -7.7 -0.35 -7.8 -0.4 -7.85 -0.45 -7.75 Q-0.55 -7.9 -0.5 -8.05 -0.5 -8.15 -0.6 -8.25 L-0.5 -8.3 -0.45 -8.15 Q-0.35 -8.25 -0.2 -8.3 -0.25 -8.2 -0.25 -8.05 L-0.15 -8.0 -0.1 -7.75 0.0 -7.75 M-0.2 -8.3 L-0.2 -8.3" fill="#a08186" fill-rule="evenodd" stroke="none"/>
    <path d="M0.8 -5.75 Q0.7 -5.55 0.75 -5.4 L0.75 -5.4 0.7 -5.25 0.6 -5.2 0.55 -5.35 Q0.55 -5.45 0.65 -5.65 L0.65 -6.0 0.85 -5.9 0.85 -5.85 0.8 -5.75 0.8 -5.75" fill="#ead3d6" fill-rule="evenodd" stroke="none"/>
    <path d="M0.95 -6.1 L1.0 -6.2 1.05 -6.2 1.05 -5.95 Q1.05 -5.8 0.95 -5.75 L0.9 -5.95 0.95 -6.1" fill="#d4adb6" fill-rule="evenodd" stroke="none"/>
    <path d="M0.2 -2.95 L0.2 -1.6 0.2 -1.25 0.15 -1.25 0.1 -1.25 0.0 -1.2 -0.1 -1.25 -0.25 -1.25 -0.25 -1.35 -0.25 -1.45 -0.25 -1.65 -0.2 -1.65 -0.15 -1.6 -0.1 -1.6 -0.1 -1.55 -0.05 -1.45 -0.05 -1.45 0.0 -1.4 0.0 -1.4 0.05 -1.4 0.05 -1.45 0.0 -1.5 -0.05 -1.6 -0.05 -1.6 0.0 -1.55 Q0.05 -1.5 0.05 -1.5 L0.0 -1.6 0.0 -1.65 0.05 -1.65 0.0 -1.7 0.0 -1.7 -0.05 -1.75 -0.05 -1.75 0.0 -1.8 0.05 -1.8 0.05 -1.85 0.1 -1.9 0.1 -1.95 0.15 -2.0 0.15 -2.1 0.1 -2.1 0.15 -2.15 0.1 -2.15 0.1 -2.15 0.1 -2.2 0.15 -2.25 0.15 -2.3 0.1 -2.3 0.1 -2.45 0.1 -2.6 0.05 -2.7 0.05 -2.7 0.1 -2.65 0.1 -2.65 0.15 -2.6 0.15 -2.7 0.15 -2.75 0.1 -2.8 0.1 -2.95 0.2 -2.95 M-0.3 -2.25 L-0.3 -2.9 -0.3 -2.8 -0.3 -2.75 -0.25 -2.75 -0.2 -2.8 -0.2 -2.8 -0.15 -2.8 -0.25 -2.7 -0.25 -2.65 -0.25 -2.65 -0.3 -2.6 -0.3 -2.4 -0.25 -2.35 -0.3 -2.3 -0.3 -2.25 M-1.4 -3.85 L-1.4 -3.95 -1.35 -4.15 Q-1.3 -4.2 -1.25 -4.3 L-1.25 -4.5 -1.15 -4.65 -1.05 -4.75 -1.0 -4.9 -0.85 -5.0 -0.75 -5.1 -0.65 -5.2 -0.65 -5.45 -0.65 -5.85 -0.65 -5.85 -0.6 -5.85 -0.55 -6.05 -0.5 -6.1 -0.5 -5.95 -0.4 -5.95 -0.45 -5.8 -0.3 -5.7 -0.25 -5.7 -0.25 -5.5 -0.3 -5.35 -0.3 -5.4 -0.4 -5.55 -0.45 -5.2 Q-0.5 -5.05 -0.4 -4.9 L-0.4 -5.25 -0.4 -5.0 -0.35 -4.95 -0.3 -4.9 -0.2 -4.85 -0.1 -4.95 -0.05 -5.1 -0.05 -5.4 0.0 -5.5 0.3 -5.5 0.3 -5.2 0.3 -5.15 0.25 -4.9 0.2 -4.6 0.35 -4.6 0.35 -4.8 0.4 -5.0 0.5 -5.45 0.5 -5.55 0.45 -5.65 0.55 -5.95 0.6 -5.9 0.6 -5.65 0.55 -5.35 0.6 -5.2 0.6 -5.1 0.7 -5.25 0.75 -5.4 0.8 -5.15 0.9 -5.3 0.9 -5.1 Q0.85 -4.95 0.85 -4.9 L0.8 -4.9 0.75 -5.1 0.7 -4.95 0.65 -4.8 0.6 -4.6 0.55 -4.35 0.35 -4.35 0.5 -4.5 0.2 -4.5 Q0.1 -4.35 0.1 -4.2 L0.25 -4.15 0.35 -4.15 0.35 -4.05 0.25 -4.05 0.2 -4.0 0.25 -3.95 0.1 -3.95 0.0 -3.95 -0.15 -3.9 -0.25 -3.75 -0.4 -3.75 -0.55 -3.75 -0.5 -3.85 -0.6 -3.85 -0.7 -3.75 -0.85 -3.75 -1.0 -3.8 -1.05 -3.75 -1.05 -3.65 -1.0 -3.55 -0.9 -3.5 -0.95 -3.4 -1.05 -3.5 -1.25 -3.45 -1.3 -3.6 -1.4 -3.65 -1.4 -3.85 M0.0 -1.7 L0.15 -1.6 0.15 -1.75 0.1 -1.8 0.1 -1.8 0.05 -1.8 0.0 -1.7 M-0.25 -1.25 L-0.25 -1.25 M-0.15 1.75 L-0.15 1.45 -0.15 1.25 -0.2 1.15 -0.15 1.0 -0.15 0.65 -0.15 0.6 -0.2 0.55 -0.15 0.45 -0.15 0.4 -0.1 0.35 -0.1 0.25 -0.15 0.15 -0.15 0.0 -0.15 -0.15 -0.15 -0.2 -0.1 -0.25 -0.15 -0.45 -0.15 -0.55 -0.15 -0.8 -0.1 -1.0 -0.1 -1.05 -0.05 -1.1 0.0 -1.15 0.05 -1.0 0.1 -0.85 0.1 -0.75 0.1 -0.7 0.05 -0.6 0.1 -0.55 0.1 -0.4 0.1 -0.25 0.05 -0.15 0.1 -0.1 0.1 0.2 0.1 0.3 0.05 0.55 Q0.05 0.6 0.1 0.65 L0.1 1.0 0.1 1.15 0.05 1.2 0.0 1.25 0.05 1.3 0.05 1.35 0.1 1.35 0.1 1.5 0.05 1.6 0.1 2.3 0.05 2.75 0.1 2.85 0.1 3.05 0.05 3.15 0.05 3.05 0.0 3.0 0.0 2.85 0.0 2.8 -0.05 2.8 -0.05 2.85 -0.1 3.0 -0.1 3.1 -0.15 3.1 -0.2 3.1 -0.2 2.85 -0.15 2.75 -0.15 2.5 -0.15 2.2 -0.2 2.1 -0.15 2.05 -0.15 1.85 -0.15 1.75 M0.05 1.3 L-0.05 1.25 -0.1 1.2 -0.05 1.3 0.0 1.35 0.05 1.35 0.05 1.3 M0.05 3.4 L0.0 3.4 -0.05 3.45 -0.1 3.45 -0.15 3.45 -0.2 3.45 -0.2 3.45 -0.15 3.4 -0.15 3.4 0.05 3.4 M-0.15 9.15 L-0.15 9.05 -0.15 8.6 -0.15 8.55 -0.2 8.5 -0.2 8.5 -0.15 8.45 -0.15 8.2 -0.15 8.1 -0.15 7.95 -0.15 7.85 -0.15 7.75 -0.2 7.65 -0.15 7.5 -0.15 7.45 -0.2 7.35 -0.15 7.2 -0.15 7.1 -0.2 6.85 -0.2 6.75 -0.15 6.7 -0.15 6.65 -0.1 6.65 -0.15 6.6 -0.15 6.4 -0.15 6.3 -0.15 6.0 -0.15 5.75 -0.15 5.75 -0.2 5.7 -0.2 5.05 -0.15 4.9 -0.15 4.8 -0.15 4.7 -0.1 4.55 -0.1 4.3 -0.05 4.15 -0.05 4.25 0.0 4.4 0.05 4.65 0.05 4.7 0.0 4.8 0.0 4.85 0.05 5.4 0.1 5.45 0.05 5.5 0.05 5.65 0.0 5.75 0.0 6.4 0.0 6.5 -0.05 6.55 0.0 6.65 -0.05 6.7 -0.05 6.8 0.0 6.8 0.0 6.85 0.0 6.95 0.0 7.0 -0.05 7.1 0.0 7.15 0.0 7.25 0.0 7.6 0.0 7.8 0.0 8.05 0.0 8.25 -0.05 8.4 0.0 8.45 0.0 8.4 0.0 8.5 0.0 8.6 0.0 8.65 -0.05 8.75 0.0 8.95 0.0 9.15 0.0 9.25 -0.05 9.25 0.0 9.3 -0.05 9.4 0.0 9.85 0.0 10.1 0.0 10.25 -0.05 10.3 -0.05 10.35 0.0 10.4 0.0 10.4 0.0 10.45 0.0 11.0 0.0 11.35 -0.05 11.45 -0.05 11.55 -0.05 11.65 -0.05 11.75 0.0 11.8 0.0 11.9 -0.05 11.95 -0.05 12.0 -0.05 12.05 -0.15 12.05 -0.15 11.9 -0.15 11.65 -0.15 11.6 -0.15 11.4 Q-0.15 11.3 -0.15 11.25 L-0.2 11.15 -0.2 11.0 -0.15 10.8 -0.15 10.7 -0.15 10.45 -0.15 10.4 -0.15 10.25 -0.15 10.05 -0.15 9.6 -0.15 9.45 -0.1 9.3 -0.15 9.2 -0.15 9.15 M-0.25 12.25 L-0.15 12.35 -0.1 12.4 -0.1 12.8 -0.1 12.95 -0.05 12.85 -0.05 12.7 -0.05 12.5 -0.05 12.45 0.0 12.4 -0.05 12.4 -0.05 12.35 0.0 12.3 0.05 12.3 0.05 12.4 Q0.05 12.5 0.1 12.55 L0.1 12.6 0.05 12.85 0.1 12.9 0.1 12.95 Q0.1 13.0 -0.05 13.0 L-0.15 13.0 -0.25 12.9 -0.3 12.7 -0.25 12.65 -0.25 12.5 -0.25 12.45 -0.25 12.3 -0.25 12.25 M-0.75 -5.05 L-0.8 -5.0 -0.8 -4.95 -0.85 -4.95 -0.85 -4.9 -0.95 -4.75 Q-1.0 -4.7 -1.0 -4.6 -0.95 -4.6 -0.9 -4.65 L-0.8 -4.75 -0.75 -4.85 -0.6 -5.0 -0.6 -5.05 -0.6 -5.1 -0.65 -5.1 -0.75 -5.05 M-0.75 -4.5 L-0.75 -4.5 Q-0.6 -4.6 -0.55 -4.65 -0.45 -4.75 -0.45 -4.85 L-0.5 -4.85 -0.55 -4.8 -0.65 -4.7 -0.8 -4.65 -0.85 -4.6 -0.95 -4.55 -0.9 -4.55 -1.05 -4.45 -1.05 -4.25 -0.9 -4.4 -0.75 -4.5 M-0.85 -4.25 L-0.9 -4.25 -0.95 -4.2 -1.0 -4.15 -0.9 -4.15 Q-0.9 -4.15 -0.85 -4.15 L-0.8 -4.2 -0.8 -4.25 -0.85 -4.25 M-0.7 -3.75 L-0.7 -3.75 M-0.4 -3.9 L-0.4 -4.1 -0.55 -4.05 -0.4 -3.9 M-0.3 -2.9 L-0.3 -2.9 M-0.15 3.1 L-0.15 3.1 M-0.05 8.4 L-0.1 8.45 -0.1 8.5 -0.05 8.45 -0.05 8.4" fill="#2f3438" fill-rule="evenodd" stroke="none"/>
    <path d="M0.6 -5.9 L0.65 -6.0 0.65 -6.0 0.65 -5.65 Q0.55 -5.45 0.55 -5.35 L0.6 -5.65 0.6 -5.9" fill="#c6a6aa" fill-rule="evenodd" stroke="none"/>
    <path d="M0.95 -5.75 L1.0 -5.75 1.05 -5.75 0.95 -5.5 0.8 -5.5 0.8 -5.75 0.85 -5.75 0.95 -5.75" fill="#4a555b" fill-rule="evenodd" stroke="none"/>
    <path d="M0.35 -5.45 L0.3 -5.6 0.45 -5.65 0.5 -5.55 0.5 -5.45 0.45 -5.3 0.4 -5.15 0.35 -5.45" fill="#dda6b0" fill-rule="evenodd" stroke="none"/>
    <path d="M0.3 -5.2 L0.35 -5.3 0.35 -5.45 0.4 -5.15 0.45 -5.3 0.5 -5.45 0.4 -5.0 0.35 -4.8 0.35 -4.6 0.35 -4.75 0.25 -4.75 0.2 -4.6 0.25 -4.9 0.3 -5.15 0.3 -5.2" fill="#93606b" fill-rule="evenodd" stroke="none"/>
    <path d="M0.75 -5.4 L0.9 -5.35 0.9 -5.3 0.8 -5.15 0.75 -5.4 0.75 -5.4" fill="#6a6f71" fill-rule="evenodd" stroke="none"/>
    <path d="M1.05 -5.75 L1.05 -5.7 1.0 -5.45 Q0.9 -5.3 0.95 -5.2 L0.9 -5.05 0.85 -4.9 Q0.85 -4.95 0.9 -5.1 L0.9 -5.3 0.9 -5.35 0.75 -5.4 Q0.7 -5.55 0.8 -5.75 L0.8 -5.5 0.95 -5.5 1.05 -5.75" fill="#af9da0" fill-rule="evenodd" stroke="none"/>
    <path d="M0.7 -5.25 L0.6 -5.1 0.6 -5.2 0.7 -5.25" fill="#ab8894" fill-rule="evenodd" stroke="none"/>
    <path d="M1.05 -4.3 L1.15 -4.2 1.0 -4.1 1.1 -3.95 1.2 -4.0 1.2 -3.45 1.05 -3.3 0.9 -3.2 Q0.7 -3.05 0.5 -3.0 L0.3 -3.0 0.2 -3.0 0.15 -3.05 0.1 -3.05 0.15 -3.05 0.2 -3.05 0.25 -3.05 0.45 -3.1 0.6 -3.15 0.8 -3.3 0.95 -3.45 0.85 -3.55 0.75 -3.6 0.65 -3.55 0.55 -3.55 0.55 -3.65 0.6 -3.65 Q0.7 -3.65 0.8 -3.75 L0.6 -3.95 0.65 -4.4 0.7 -4.85 0.65 -4.8 0.7 -4.95 0.75 -4.8 0.8 -4.6 0.9 -4.4 1.05 -4.3" fill="#3e4046" fill-rule="evenodd" stroke="none"/>
    <path d="M1.15 -4.2 L1.2 -4.0 1.2 -3.7 1.2 -3.45 1.2 -4.0 1.1 -3.95 1.0 -4.1 1.15 -4.2" fill="#877b88" fill-rule="evenodd" stroke="none"/>
    <path d="M0.85 -4.9 L0.8 -4.7 0.85 -4.55 0.95 -4.4 1.05 -4.3 0.9 -4.4 0.8 -4.6 0.75 -4.8 0.7 -4.95 0.75 -5.1 0.8 -4.9 0.85 -4.9" fill="#7c6e76" fill-rule="evenodd" stroke="none"/>
    <path d="M0.65 -4.8 L0.7 -4.85 0.65 -4.4 0.6 -3.95 0.8 -3.75 Q0.7 -3.65 0.6 -3.65 L0.65 -3.7 0.45 -3.7 0.2 -3.65 0.3 -3.8 0.35 -3.9 0.35 -4.0 0.25 -4.05 0.35 -4.05 0.35 -4.15 0.4 -4.25 0.45 -4.25 0.55 -4.3 0.55 -4.35 0.6 -4.6 0.65 -4.8" fill="#765d64" fill-rule="evenodd" stroke="none"/>
    <path d="M0.55 -4.35 L0.55 -4.3 0.45 -4.25 0.4 -4.25 0.35 -4.15 0.25 -4.15 0.1 -4.2 0.3 -4.2 0.25 -4.3 0.35 -4.5 0.2 -4.5 0.5 -4.5 0.35 -4.35 0.55 -4.35" fill="#4b454e" fill-rule="evenodd" stroke="none"/>
    <path d="M0.35 -4.6 L0.2 -4.6 0.25 -4.75 0.35 -4.75 0.35 -4.6" fill="#ce9ba6" fill-rule="evenodd" stroke="none"/>
    <path d="M0.2 -4.5 L0.35 -4.5 0.25 -4.3 0.3 -4.2 0.1 -4.2 Q0.1 -4.35 0.2 -4.5" fill="#c99aa6" fill-rule="evenodd" stroke="none"/>
    <path d="M0.25 -3.95 L0.2 -3.85 0.1 -3.75 Q0.05 -3.7 0.0 -3.7 L-0.1 -3.8 -0.25 -3.8 -0.25 -3.75 -0.15 -3.9 0.0 -3.95 0.1 -3.95 0.25 -3.95" fill="#49464a" fill-rule="evenodd" stroke="none"/>
    <path d="M0.6 -3.65 L0.55 -3.65 0.5 -3.65 0.35 -3.6 0.2 -3.55 0.1 -3.6 -0.15 -3.5 0.05 -3.45 0.3 -3.45 Q0.35 -3.45 0.5 -3.5 L0.7 -3.5 0.6 -3.4 0.4 -3.35 0.5 -3.25 0.3 -3.2 0.35 -3.3 0.1 -3.4 -0.1 -3.3 -0.1 -3.2 -0.15 -3.15 -0.2 -3.1 -0.25 -3.1 -0.3 -3.15 -0.3 -3.2 -0.5 -3.35 -0.35 -3.4 -0.25 -3.5 -0.45 -3.55 -0.55 -3.55 -0.65 -3.6 -0.65 -3.7 -0.25 -3.65 -0.25 -3.8 -0.2 -3.7 -0.1 -3.7 0.05 -3.65 0.15 -3.7 0.2 -3.85 0.25 -3.95 0.2 -4.0 0.25 -4.05 0.35 -4.0 0.35 -3.9 0.3 -3.8 0.2 -3.65 0.45 -3.7 0.65 -3.7 0.6 -3.65 M0.1 -2.95 L0.1 -2.8 0.15 -2.75 0.15 -2.7 0.15 -2.6 0.1 -2.65 0.1 -2.65 0.05 -2.7 0.05 -2.7 0.0 -2.75 -0.05 -2.8 -0.05 -2.8 -0.1 -2.8 -0.15 -2.8 -0.2 -2.8 -0.2 -2.8 -0.25 -2.75 -0.3 -2.75 -0.3 -2.8 -0.3 -2.9 -0.2 -2.9 0.1 -2.95 M0.1 -2.15 L0.15 -2.15 0.1 -2.1 0.15 -2.1 0.15 -2.0 0.1 -1.95 0.1 -1.9 0.05 -1.85 0.05 -1.8 0.0 -1.8 -0.05 -1.75 -0.05 -1.75 0.0 -1.7 0.0 -1.7 0.05 -1.65 0.0 -1.65 0.0 -1.6 0.05 -1.5 Q0.05 -1.5 0.0 -1.55 L-0.05 -1.6 -0.05 -1.6 -0.05 -1.6 -0.1 -1.65 -0.15 -1.7 -0.2 -1.8 -0.25 -1.9 -0.2 -1.9 -0.2 -1.9 -0.15 -1.85 -0.15 -1.85 0.0 -2.0 0.1 -2.1 0.1 -2.15 M0.0 -1.7 L0.0 -1.7 M-0.05 -2.6 L-0.05 -2.6 0.0 -2.55 0.0 -2.3 -0.05 -2.2 -0.05 -2.05 -0.15 -2.1 -0.15 -2.2 -0.2 -2.25 -0.2 -2.45 -0.15 -2.55 -0.15 -2.7 -0.1 -2.75 -0.05 -2.7 -0.05 -2.6" fill="#bb777a" fill-rule="evenodd" stroke="none"/>
    <path d="M0.2 -3.85 L0.15 -3.7 0.05 -3.65 -0.1 -3.7 -0.2 -3.7 -0.25 -3.8 -0.1 -3.8 0.0 -3.7 Q0.05 -3.7 0.1 -3.75 L0.2 -3.85" fill="#896a70" fill-rule="evenodd" stroke="none"/>
    <path d="M-0.3 -1.9 L-0.3 -2.15 -0.3 -2.25 -0.3 -2.3 -0.25 -2.35 -0.3 -2.4 -0.3 -2.6 -0.25 -2.65 -0.25 -2.65 -0.25 -2.7 -0.15 -2.8 -0.1 -2.8 -0.05 -2.8 -0.05 -2.8 0.0 -2.75 0.05 -2.7 0.1 -2.6 0.1 -2.45 0.1 -2.3 0.15 -2.3 0.15 -2.25 0.1 -2.2 0.1 -2.15 0.1 -2.15 0.1 -2.1 0.0 -2.0 -0.15 -1.85 -0.15 -1.85 -0.2 -1.9 -0.2 -1.9 -0.25 -1.9 -0.2 -1.8 -0.2 -1.85 -0.3 -1.9 M-1.4 -3.3 L-1.4 -3.85 -1.4 -3.65 Q-1.4 -3.45 -1.2 -3.35 L-1.05 -3.3 -0.95 -3.35 -0.8 -3.3 -0.85 -3.45 -0.65 -3.45 Q-0.55 -3.45 -0.5 -3.35 L-0.3 -3.2 -0.3 -3.15 -0.25 -3.1 -0.2 -3.1 -0.15 -3.15 -0.1 -3.2 -0.1 -3.3 0.1 -3.4 0.35 -3.3 0.3 -3.2 0.5 -3.25 0.4 -3.35 0.6 -3.4 0.7 -3.5 0.5 -3.5 Q0.35 -3.45 0.3 -3.45 L0.05 -3.45 -0.15 -3.5 0.1 -3.6 0.2 -3.55 0.3 -3.55 0.4 -3.55 0.45 -3.6 0.5 -3.65 0.55 -3.65 0.55 -3.55 0.65 -3.55 0.75 -3.6 0.85 -3.55 0.95 -3.45 0.8 -3.3 0.6 -3.15 0.45 -3.1 0.25 -3.05 0.2 -3.05 0.15 -3.05 0.1 -3.05 0.1 -3.05 -0.25 -3.05 -0.3 -3.05 -0.5 -3.05 -0.55 -3.05 -0.85 -3.1 -1.05 -3.2 Q-1.3 -3.3 -1.4 -3.45 L-1.4 -3.3 M0.05 3.15 L0.1 3.15 0.05 3.2 0.0 3.2 -0.15 3.2 -0.15 3.2 -0.2 3.2 -0.2 3.15 -0.2 3.1 -0.15 3.1 -0.1 3.1 -0.1 3.0 -0.05 2.85 -0.05 2.8 0.0 2.8 0.0 2.85 0.0 3.0 0.05 3.05 0.05 3.15 M0.05 1.3 L0.05 1.35 0.0 1.35 -0.05 1.3 -0.1 1.2 -0.05 1.25 0.05 1.3 M0.05 3.25 L0.1 3.25 0.05 3.3 0.0 3.3 -0.05 3.35 -0.1 3.3 -0.15 3.3 -0.2 3.3 -0.2 3.3 -0.1 3.3 -0.05 3.3 0.05 3.25 M-0.05 -2.6 L-0.05 -2.7 -0.1 -2.75 -0.15 -2.7 -0.15 -2.55 -0.2 -2.45 -0.2 -2.25 -0.15 -2.2 -0.15 -2.1 -0.05 -2.05 -0.05 -2.2 0.0 -2.3 0.0 -2.55 -0.05 -2.6 -0.05 -2.6" fill="#624547" fill-rule="evenodd" stroke="none"/>
    <path d="M0.2 -3.55 L0.35 -3.6 0.5 -3.65 0.45 -3.6 0.4 -3.55 0.3 -3.55 0.2 -3.55" fill="#a1676f" fill-rule="evenodd" stroke="none"/>
    <path d="M0.3 -3.0 L0.2 -2.95 0.1 -2.95 -0.2 -2.9 -0.3 -2.9 -0.3 -2.9 -0.65 -2.9 -0.8 -2.95 Q-0.9 -3.0 -1.05 -3.05 -1.1 -3.05 -1.2 -3.1 L-1.4 -3.2 -1.4 -3.3 -1.4 -3.45 Q-1.3 -3.3 -1.05 -3.2 L-0.85 -3.1 -0.55 -3.05 -0.5 -3.05 -0.3 -3.05 -0.25 -3.05 0.1 -3.05 0.1 -3.05 0.15 -3.05 0.2 -3.0 0.3 -3.0" fill="#283b55" fill-rule="evenodd" stroke="none"/>
    <path d="M0.0 -1.7 L0.05 -1.8 0.1 -1.8 0.1 -1.8 0.15 -1.75 0.15 -1.6 0.0 -1.7 0.0 -1.7" fill="#5a534b" fill-rule="evenodd" stroke="none"/>
    <path d="M-0.3 -1.25 L-0.3 -1.9 -0.2 -1.85 -0.2 -1.8 -0.15 -1.7 -0.1 -1.65 -0.05 -1.6 -0.05 -1.6 0.0 -1.5 0.05 -1.45 0.05 -1.4 0.0 -1.4 0.0 -1.4 -0.05 -1.45 -0.05 -1.45 -0.1 -1.55 -0.1 -1.6 -0.15 -1.6 -0.2 -1.65 -0.25 -1.65 -0.25 -1.45 -0.25 -1.35 -0.25 -1.25 -0.3 -1.25 M-0.4 -5.25 L-0.4 -4.9 Q-0.5 -5.05 -0.45 -5.2 L-0.4 -5.55 -0.3 -5.4 -0.4 -5.25" fill="#1b2024" fill-rule="evenodd" stroke="none"/>
    <path d="M0.2 -1.25 L0.2 11.0 0.15 11.05 0.1 11.2 0.1 11.6 0.15 12.3 0.2 12.7 0.2 12.85 0.1 13.0 0.0 13.05 -0.1 13.05 -0.35 12.95 Q-0.45 12.8 -0.45 12.65 L-0.35 12.4 Q-0.3 12.2 -0.3 12.1 L-0.3 11.25 -0.3 -1.25 -0.25 -1.25 -0.25 -1.25 -0.1 -1.25 0.0 -1.2 0.1 -1.25 0.15 -1.25 0.2 -1.25 M0.05 1.3 L0.0 1.25 0.05 1.2 0.1 1.15 0.1 1.0 0.1 0.65 Q0.05 0.6 0.05 0.55 L0.1 0.3 0.1 0.2 0.1 -0.1 0.05 -0.15 0.1 -0.25 0.1 -0.4 0.1 -0.55 0.05 -0.6 0.1 -0.7 0.1 -0.75 0.1 -0.85 0.05 -1.0 0.0 -1.15 -0.05 -1.1 -0.1 -1.05 -0.1 -1.0 -0.15 -0.8 -0.15 -0.55 -0.15 -0.45 -0.1 -0.25 -0.15 -0.2 -0.15 -0.15 -0.15 0.0 -0.15 0.15 -0.1 0.25 -0.1 0.35 -0.15 0.4 -0.15 0.45 -0.2 0.55 -0.15 0.6 -0.15 0.65 -0.15 1.0 -0.2 1.15 -0.15 1.25 -0.15 1.45 -0.15 1.75 -0.15 1.85 -0.15 2.05 -0.2 2.1 -0.15 2.2 -0.15 2.5 -0.15 2.75 -0.2 2.85 -0.2 3.1 -0.2 3.15 -0.2 3.2 -0.15 3.2 -0.15 3.2 0.0 3.2 0.05 3.2 0.1 3.15 0.05 3.15 0.1 3.05 0.1 2.85 0.05 2.75 0.1 2.3 0.05 1.6 0.1 1.5 0.1 1.35 0.05 1.35 0.05 1.3 M-0.15 3.1 L-0.2 3.1 -0.15 3.1 M-0.2 3.1 L-0.2 3.1 -0.2 3.1 M0.05 3.4 L-0.15 3.4 -0.15 3.4 -0.2 3.45 -0.2 3.45 -0.15 3.45 -0.1 3.45 -0.05 3.45 0.0 3.4 0.05 3.4 M0.05 3.25 L-0.05 3.3 -0.1 3.3 -0.2 3.3 -0.2 3.3 -0.15 3.3 -0.1 3.3 -0.05 3.35 0.0 3.3 0.05 3.3 0.1 3.25 0.05 3.25 M-0.05 8.4 L0.0 8.25 0.0 8.05 0.0 7.8 0.0 7.6 0.0 7.25 0.0 7.15 -0.05 7.1 0.0 7.0 0.0 6.95 0.0 6.85 0.0 6.8 -0.05 6.8 -0.05 6.7 0.0 6.65 -0.05 6.55 0.0 6.5 0.0 6.4 0.0 5.75 0.05 5.65 0.05 5.5 0.1 5.45 0.05 5.4 0.0 4.85 0.0 4.8 0.05 4.7 0.05 4.65 0.0 4.4 -0.05 4.25 -0.05 4.15 -0.1 4.3 -0.1 4.55 -0.15 4.7 -0.15 4.8 -0.15 4.9 -0.2 5.05 -0.2 5.7 -0.15 5.75 -0.15 5.75 -0.15 6.0 -0.15 6.3 -0.15 6.4 -0.15 6.6 -0.1 6.65 -0.15 6.65 -0.15 6.7 -0.2 6.75 -0.2 6.85 -0.15 7.1 -0.15 7.2 -0.2 7.35 -0.15 7.45 -0.15 7.5 -0.2 7.65 -0.15 7.75 -0.15 7.85 -0.15 7.95 -0.15 8.1 -0.15 8.2 -0.15 8.45 -0.2 8.5 -0.2 8.5 -0.15 8.55 -0.15 8.6 -0.15 9.05 -0.15 9.15 -0.15 9.2 -0.1 9.3 -0.15 9.45 -0.15 9.6 -0.15 10.05 -0.15 10.25 -0.15 10.4 -0.15 10.45 -0.15 10.7 -0.15 10.8 -0.2 11.0 -0.2 11.15 -0.15 11.25 Q-0.15 11.3 -0.15 11.4 L-0.15 11.6 -0.15 11.65 -0.15 11.9 -0.15 12.05 -0.2 12.05 -0.2 12.1 -0.1 12.1 -0.05 12.1 -0.05 12.1 -0.05 12.05 -0.05 12.0 -0.05 11.95 0.0 11.9 0.0 11.8 -0.05 11.75 -0.05 11.65 -0.05 11.55 -0.05 11.45 0.0 11.35 0.0 11.0 0.0 10.45 0.0 10.4 0.0 10.4 -0.05 10.35 -0.05 10.3 0.0 10.25 0.0 10.1 0.0 9.85 -0.05 9.4 0.0 9.3 -0.05 9.25 0.0 9.25 0.0 9.15 0.0 8.95 -0.05 8.75 0.0 8.65 0.0 8.6 0.0 8.5 0.0 8.4 0.0 8.45 -0.05 8.4 -0.05 8.4 M0.05 12.3 L0.05 12.25 -0.15 12.25 -0.25 12.25 -0.25 12.3 -0.25 12.45 -0.25 12.5 -0.25 12.65 -0.3 12.7 -0.25 12.9 -0.15 13.0 -0.05 13.0 Q0.1 13.0 0.1 12.95 L0.1 12.9 0.05 12.85 0.1 12.6 0.1 12.55 Q0.05 12.5 0.05 12.4 L0.05 12.3 M-0.15 12.25 Q0.0 12.25 0.0 12.15 L-0.25 12.2 -0.2 12.25 -0.15 12.25" fill="#1c1c1c" fill-rule="evenodd" stroke="none"/>
    <path d="M-0.05 8.4 L-0.05 8.4 -0.05 8.45 -0.1 8.5 -0.1 8.45 -0.05 8.4 M-0.05 12.05 L-0.05 12.1 -0.05 12.1 -0.1 12.1 -0.2 12.1 -0.2 12.05 -0.15 12.05 -0.05 12.05 M-0.25 12.25 L-0.15 12.25 0.05 12.25 0.05 12.3 0.0 12.3 -0.05 12.35 -0.05 12.4 0.0 12.4 -0.05 12.45 -0.05 12.5 -0.05 12.7 -0.05 12.85 -0.1 12.95 -0.1 12.8 -0.1 12.4 -0.15 12.35 -0.25 12.25 M-0.15 12.25 L-0.2 12.25 -0.25 12.2 0.0 12.15 Q0.0 12.25 -0.15 12.25" fill="#5d5333" fill-rule="evenodd" stroke="none"/>
    <path d="M-1.0 -7.45 L-1.05 -7.65 -1.2 -7.8 -1.35 -7.85 -1.45 -7.85 -1.55 -7.85 -1.55 -7.85 -1.7 -7.85 -1.9 -7.8 -2.0 -7.9 -2.1 -8.05 -2.1 -8.2 -2.0 -8.3 -1.85 -8.25 -1.95 -8.15 -1.95 -8.05 -1.85 -8.05 -1.85 -8.1 -1.8 -8.15 -1.7 -8.25 -1.6 -8.3 -1.6 -8.35 -1.55 -8.3 -1.55 -8.3 -1.4 -8.15 -1.25 -8.05 Q-1.15 -7.95 -1.1 -7.9 L-1.1 -8.05 -1.15 -8.1 -1.25 -8.2 -1.4 -8.3 -1.35 -8.4 -1.3 -8.4 -1.25 -8.45 -1.1 -8.7 -0.9 -8.95 -0.8 -8.8 -0.85 -8.8 Q-0.9 -8.8 -0.95 -8.8 L-0.8 -8.7 -0.75 -8.55 -0.75 -8.4 -0.8 -8.55 Q-0.85 -8.65 -0.9 -8.7 L-1.0 -8.5 -0.95 -8.4 Q-1.0 -8.35 -1.15 -8.3 -1.15 -8.2 -1.05 -8.15 L-0.9 -8.25 -0.9 -8.0 -0.85 -7.75 -0.9 -7.6 -1.0 -7.45 M-1.45 -8.05 L-1.5 -8.05 -1.55 -8.05 -1.5 -7.95 -1.45 -7.95 -1.3 -7.95 -1.35 -8.0 -1.4 -8.05 -1.45 -8.05" fill="#463f3b" fill-rule="evenodd" stroke="none"/>
    <path d="M-0.65 -8.65 L-0.6 -8.55 -0.5 -8.55 -0.4 -8.5 -0.4 -8.5 -0.15 -8.45 -0.5 -8.5 -0.55 -8.4 -0.75 -8.55 -0.8 -8.7 -0.75 -8.7 -0.65 -8.65" fill="#a57f84" fill-rule="evenodd" stroke="none"/>
    <path d="M-0.15 -9.05 L-0.15 -8.9 -0.25 -8.7 Q-0.3 -8.55 -0.4 -8.5 L-0.4 -8.5 -0.35 -8.8 -0.3 -8.7 -0.25 -8.9 -0.15 -9.05" fill="#70504b" fill-rule="evenodd" stroke="none"/>
    <path d="M-2.0 -8.3 L-1.8 -8.3 -1.6 -8.3 -1.7 -8.25 -1.8 -8.15 -1.85 -8.1 -1.85 -8.05 -1.95 -8.05 -1.95 -8.15 -1.85 -8.25 -2.0 -8.3 M-1.6 -8.35 L-1.55 -8.35 -1.45 -8.4 -1.35 -8.4 -1.4 -8.3 -1.25 -8.2 -1.15 -8.1 -1.1 -8.05 -1.1 -7.9 Q-1.15 -7.95 -1.25 -8.05 L-1.4 -8.15 -1.55 -8.3 -1.55 -8.3 -1.6 -8.35 M-1.45 -8.05 L-1.4 -8.05 -1.35 -8.0 -1.3 -7.95 -1.45 -7.95 -1.5 -7.95 -1.55 -8.05 -1.5 -8.05 -1.45 -8.05" fill="#745e53" fill-rule="evenodd" stroke="none"/>
    <path d="M-0.2 -8.3 Q-0.35 -8.25 -0.45 -8.15 L-0.5 -8.3 -0.55 -8.4 -0.5 -8.5 -0.15 -8.45 -0.2 -8.3" fill="#3d3d3e" fill-rule="evenodd" stroke="none"/>
    <path d="M-0.65 -7.1 L-0.8 -7.2 -0.8 -7.2 -0.8 -7.35 -0.75 -7.55 -0.5 -7.45 -0.5 -7.3 -0.55 -7.2 -0.6 -7.15 -0.65 -7.1" fill="#615e5d" fill-rule="evenodd" stroke="none"/>
    <path d="M-0.45 -7.75 L-0.4 -7.85 -0.35 -7.8 -0.3 -7.7 -0.4 -7.65 -0.45 -7.75" fill="#d3aaac" fill-rule="evenodd" stroke="none"/>
    <path d="M-0.2 -7.1 L-0.2 -7.05 -0.25 -6.95 -0.25 -6.75 -0.3 -6.65 -0.3 -6.55 -0.35 -6.75 -0.4 -6.5 -0.45 -6.25 -0.3 -6.4 -0.3 -6.35 Q-0.25 -6.25 -0.3 -6.15 L-0.4 -6.2 -0.4 -6.0 -0.4 -6.2 -0.5 -6.15 -0.45 -6.5 Q-0.45 -6.7 -0.35 -6.85 -0.3 -6.9 -0.3 -7.1 L-0.3 -7.35 -0.25 -7.3 -0.2 -7.25 -0.2 -7.1" fill="#a1727c" fill-rule="evenodd" stroke="none"/>
    <path d="M0.05 -6.95 L-0.1 -7.0 -0.1 -7.1 Q-0.05 -7.1 0.0 -7.05 L0.05 -6.95" fill="#ceabad" fill-rule="evenodd" stroke="none"/>
    <path d="M-0.3 -6.55 L-0.3 -6.4 -0.45 -6.25 -0.4 -6.5 -0.35 -6.75 -0.3 -6.55" fill="#d2969f" fill-rule="evenodd" stroke="none"/>
    <path d="M-0.4 -6.0 L-0.4 -5.95 -0.5 -5.95 -0.5 -6.1 -0.5 -6.15 -0.4 -6.2 -0.4 -6.0" fill="#b9868e" fill-rule="evenodd" stroke="none"/>
    <path d="M-0.8 -4.95 L-0.8 -5.0 -0.75 -5.05 -0.6 -5.0 -0.75 -4.85 -0.8 -4.95" fill="#cf979b" fill-rule="evenodd" stroke="none"/>
    <path d="M-0.75 -5.05 L-0.65 -5.1 -0.6 -5.1 -0.6 -5.05 -0.6 -5.0 -0.75 -5.05" fill="#7d5c62" fill-rule="evenodd" stroke="none"/>
    <path d="M-0.3 -5.35 L-0.35 -5.25 -0.4 -5.25 -0.3 -5.4 -0.3 -5.35" fill="#686f76" fill-rule="evenodd" stroke="none"/>
    <path d="M-0.4 -5.0 L-0.3 -4.9 -0.35 -4.95 -0.4 -5.0" fill="#86898c" fill-rule="evenodd" stroke="none"/>
    <path d="M-0.9 -4.55 L-0.95 -4.55 -0.85 -4.6 -0.8 -4.65 -0.65 -4.7 -0.55 -4.8 -0.5 -4.85 -0.45 -4.85 Q-0.45 -4.75 -0.55 -4.65 -0.6 -4.6 -0.75 -4.5 L-0.75 -4.5 -0.9 -4.55" fill="#5b565a" fill-rule="evenodd" stroke="none"/>
    <path d="M-0.8 -4.75 L-0.9 -4.65 Q-0.95 -4.6 -1.0 -4.6 -1.0 -4.7 -0.95 -4.75 L-0.85 -4.9 -0.8 -4.85 -0.8 -4.75" fill="#c48c94" fill-rule="evenodd" stroke="none"/>
    <path d="M-0.75 -4.85 L-0.8 -4.75 -0.8 -4.85 -0.85 -4.95 -0.8 -4.95 -0.75 -4.85" fill="#826264" fill-rule="evenodd" stroke="none"/>
    <path d="M-0.75 -4.5 L-0.9 -4.4 -1.05 -4.25 -1.05 -4.45 -0.9 -4.55 -0.75 -4.5" fill="#d19ea1" fill-rule="evenodd" stroke="none"/>
    <path d="M-0.85 -4.25 L-0.8 -4.25 -0.8 -4.2 -0.85 -4.15 Q-0.9 -4.15 -0.9 -4.15 L-1.0 -4.15 -0.95 -4.2 -0.9 -4.25 -0.85 -4.25" fill="#a7868b" fill-rule="evenodd" stroke="none"/>
    <path d="M-0.35 -3.4 L-0.5 -3.35 Q-0.55 -3.45 -0.65 -3.45 L-0.85 -3.45 -0.8 -3.3 -0.95 -3.35 -1.05 -3.3 -1.2 -3.35 Q-1.4 -3.45 -1.4 -3.65 L-1.3 -3.6 -1.25 -3.45 -1.05 -3.5 -0.95 -3.4 -0.9 -3.5 -1.0 -3.55 -1.05 -3.65 -1.05 -3.75 -1.0 -3.8 -0.85 -3.75 -0.7 -3.75 -0.75 -3.65 -0.55 -3.55 -0.35 -3.4" fill="#4e464c" fill-rule="evenodd" stroke="none"/>
    <path d="M-0.7 -3.75 L-0.6 -3.85 -0.5 -3.85 -0.55 -3.75 -0.7 -3.75" fill="#655053" fill-rule="evenodd" stroke="none"/>
    <path d="M-0.25 -3.8 L-0.25 -3.65 -0.65 -3.7 -0.65 -3.6 -0.55 -3.55 -0.45 -3.55 -0.25 -3.5 -0.35 -3.4 -0.55 -3.55 -0.75 -3.65 -0.7 -3.75 -0.7 -3.75 -0.55 -3.75 -0.4 -3.75 -0.25 -3.75 -0.25 -3.8" fill="#825d5f" fill-rule="evenodd" stroke="none"/>
    <path d="M-0.4 -3.9 L-0.55 -4.05 -0.4 -4.1 -0.4 -3.9" fill="#5a565c" fill-rule="evenodd" stroke="none"/>
    <path d="M0.35 -10.3 L0.35 -10.35 0.35 -10.4 0.3 -10.45 0.3 -10.4 Q0.25 -10.35 0.25 -10.35 L0.25 -10.4 Q0.25 -10.45 0.15 -10.45 L0.1 -10.45 0.1 -10.35 0.05 -10.35 0.05 -10.45 0.0 -10.45 -0.05 -10.4 -0.05 -10.35 -0.1 -10.4 -0.15 -10.45 -0.2 -10.4 Q-0.2 -10.35 -0.25 -10.35 L-0.25 -10.4 Q-0.3 -10.4 -0.3 -10.3 L-0.3 -10.15 -0.3 -10.1 -0.25 -10.0 -0.3 -9.85 -0.3 -9.45 Q-0.3 -9.35 -0.35 -9.3 L-0.5 -9.25 -0.7 -9.2 -0.8 -9.05 -0.9 -8.95 -1.1 -8.7 -1.25 -8.45 -1.3 -8.4 -1.35 -8.4 -1.45 -8.4 -1.55 -8.35 -1.6 -8.35 -1.6 -8.3 -1.8 -8.3 -2.0 -8.3 -2.1 -8.2 -2.1 -8.05 -2.0 -7.9 -1.9 -7.8 -1.7 -7.85 -1.55 -7.85 -1.55 -7.85 -1.45 -7.85 -1.35 -7.85 -1.2 -7.8 -1.05 -7.65 -1.0 -7.45 -0.95 -7.45 -0.85 -7.3 -0.8 -7.2 -0.8 -7.2 -0.65 -7.1 Q-0.6 -7.0 -0.6 -6.8 L-0.6 -6.55 -0.65 -6.2 -0.65 -5.85 -0.65 -5.45 -0.65 -5.2 -0.75 -5.1 -0.85 -5.0 -1.0 -4.9 -1.05 -4.75 -1.15 -4.65 -1.25 -4.5 -1.25 -4.3 Q-1.3 -4.2 -1.35 -4.15 L-1.4 -3.95 -1.4 -3.85 -1.4 -3.3 -1.4 -3.2 -1.2 -3.1 Q-1.1 -3.05 -1.05 -3.05 -0.9 -3.0 -0.8 -2.95 L-0.65 -2.9 -0.3 -2.9 -0.3 -2.25 M0.35 -10.3 L0.35 -10.1 Q0.35 -10.0 0.4 -9.9 L0.45 -9.65 0.4 -9.5 0.35 -9.3 0.5 -9.3 0.8 -9.15 0.95 -9.05 0.95 -8.95 1.0 -8.85 1.0 -8.75 1.05 -8.65 1.05 -8.6 1.05 -8.5 1.05 -8.45 1.15 -8.25 1.2 -8.05 Q1.25 -7.9 1.25 -7.75 1.25 -7.75 1.25 -7.7 L1.3 -7.65 1.35 -7.8 1.35 -7.95 1.4 -8.2 1.5 -8.4 1.55 -8.6 1.6 -8.75 1.65 -9.1 1.75 -9.4 1.8 -9.65 Q1.8 -9.85 1.9 -9.9 L1.9 -10.0 1.85 -10.05 1.65 -10.15 1.6 -10.15 1.7 -10.35 1.75 -10.55 1.8 -10.75 1.95 -10.75 1.85 -10.4 1.9 -10.25 Q2.0 -10.3 2.0 -10.4 L2.1 -10.65 2.2 -10.9 2.2 -10.95 2.3 -10.95 2.3 -10.75 2.3 -10.7 2.25 -10.45 2.15 -10.2 Q2.2 -10.15 2.25 -10.15 2.35 -10.2 2.35 -10.35 L2.4 -10.6 2.5 -10.65 2.55 -10.55 2.55 -10.45 2.5 -10.35 2.5 -10.3 2.5 -10.1 2.4 -9.95 Q2.35 -9.9 2.3 -9.95 L2.2 -10.0 2.1 -9.9 2.05 -9.75 2.0 -9.6 1.95 -9.4 1.95 -9.3 1.9 -9.15 1.8 -8.85 1.75 -8.55 1.75 -8.45 1.7 -8.4 1.65 -8.2 1.65 -8.0 1.55 -7.8 1.55 -7.7 1.5 -7.6 1.45 -7.3 1.4 -7.0 1.4 -6.95 1.45 -6.6 1.45 -6.25 1.4 -6.05 1.3 -5.9 1.2 -5.85 1.05 -5.85 1.05 -5.75 1.05 -5.7 1.0 -5.45 Q0.9 -5.3 0.95 -5.2 L0.9 -5.05 0.85 -4.9 0.8 -4.7 0.85 -4.55 0.95 -4.4 1.05 -4.3 1.15 -4.2 1.2 -4.0 1.2 -3.7 1.2 -3.45 1.05 -3.3 0.9 -3.2 Q0.7 -3.05 0.5 -3.0 L0.3 -3.0 0.2 -2.95 0.2 -1.6 0.2 -1.25 0.2 11.0 0.15 11.05 0.1 11.2 0.1 11.6 0.15 12.3 0.2 12.7 0.2 12.85 0.1 13.0 0.0 13.05 -0.1 13.05 -0.35 12.95 Q-0.45 12.8 -0.45 12.65 L-0.35 12.4 Q-0.3 12.2 -0.3 12.1 L-0.3 11.25 -0.3 -1.25 -0.3 -1.9 -0.3 -2.15 M0.65 -8.2 L0.65 -7.9 0.7 -7.85 0.8 -7.85 0.8 -8.0 0.75 -8.15 0.65 -8.2 0.65 -8.2 M-0.25 -5.7 Q-0.25 -5.9 -0.2 -6.05 L-0.05 -6.35 0.05 -6.6 0.15 -6.55 0.15 -6.3 Q0.2 -6.15 0.1 -6.1 L0.1 -6.0 0.05 -5.95 0.0 -5.8 0.0 -5.7 -0.05 -5.55 -0.05 -5.4 -0.05 -5.1 -0.1 -4.95 -0.2 -4.85 -0.3 -4.9 -0.4 -5.0 -0.4 -5.25 -0.35 -5.25 -0.3 -5.35 -0.25 -5.5 -0.25 -5.7 Z" fill="none" stroke="#000000" stroke-linecap="round" stroke-linejoin="round" stroke-opacity="0.4509804" stroke-width="0.1"/>
  </g>
</svg>
