<?xml version="1.0" encoding="UTF-8" standalone="no"?>
<svg xmlns:xlink="http://www.w3.org/1999/xlink" height="23.6px" width="1.25px" xmlns="http://www.w3.org/2000/svg">
  <g transform="matrix(1.0, 0.0, 0.0, 1.0, 0.65, 9.15)">
    <path d="M0.1 -8.7 L0.1 -8.6 0.05 -8.55 0.1 -8.5 0.15 -8.45 0.1 -8.25 0.0 -8.1 0.0 -8.05 0.1 -7.95 0.15 -7.9 0.15 -7.65 0.05 -7.85 0.0 -8.0 -0.05 -8.05 0.0 -8.05 -0.1 -8.2 -0.1 -8.25 -0.15 -8.1 -0.15 -8.1 -0.2 -8.15 -0.25 -8.2 -0.25 -8.25 -0.2 -8.3 -0.2 -8.4 -0.15 -8.35 -0.05 -8.5 Q-0.2 -8.6 -0.2 -8.7 L-0.2 -8.9 -0.15 -9.0 0.0 -9.0 Q0.1 -9.0 0.15 -8.85 L0.1 -8.7 M0.1 -5.45 L0.05 -5.3 Q0.0 -5.15 -0.05 -5.15 L-0.1 -5.2 -0.1 -5.35 -0.1 -5.45 -0.1 -5.6 -0.05 -5.7 0.0 -5.65 0.1 -5.45 M-0.15 -7.8 L-0.2 -7.75 -0.2 -7.75 -0.15 -7.95 -0.1 -7.9 -0.1 -7.9 Q-0.1 -7.85 -0.15 -7.8" fill="#f0e7de" fill-rule="evenodd" stroke="none"/>
    <path d="M0.3 -8.8 L0.3 -8.8 0.25 -8.7 0.2 -8.65 0.2 -8.6 0.15 -8.45 0.15 -8.25 0.1 -8.1 0.15 -7.95 0.2 -7.9 0.2 -7.6 0.2 -7.4 0.15 -7.25 0.15 -7.4 0.15 -7.5 0.1 -7.55 0.1 -7.75 0.05 -7.8 0.0 -7.85 0.0 -7.85 -0.1 -7.75 -0.1 -7.7 -0.15 -7.6 -0.15 -7.25 -0.2 -7.25 -0.25 -7.45 -0.25 -7.65 -0.3 -7.65 -0.25 -7.9 -0.2 -7.95 -0.2 -8.0 -0.25 -8.05 -0.3 -8.1 -0.3 -8.15 -0.3 -8.3 -0.25 -8.4 -0.2 -8.45 -0.25 -8.5 -0.3 -8.65 -0.3 -8.8 -0.25 -8.9 -0.2 -9.0 -0.2 -9.0 Q-0.1 -9.1 0.05 -9.1 0.2 -9.1 0.25 -8.9 L0.3 -8.8 M0.1 -8.7 L0.15 -8.85 Q0.1 -9.0 0.0 -9.0 L-0.15 -9.0 -0.2 -8.9 -0.2 -8.7 Q-0.2 -8.6 -0.05 -8.5 L-0.15 -8.35 -0.2 -8.4 -0.2 -8.3 -0.25 -8.25 -0.25 -8.2 -0.2 -8.15 -0.15 -8.1 -0.15 -8.1 -0.1 -8.25 -0.1 -8.2 0.0 -8.05 -0.05 -8.05 0.0 -8.0 0.05 -7.85 0.15 -7.65 0.15 -7.9 0.1 -7.95 0.0 -8.05 0.0 -8.1 0.1 -8.25 0.15 -8.45 0.1 -8.5 0.05 -8.55 0.1 -8.6 0.1 -8.7 M0.3 -6.6 L0.45 -6.6 0.45 -6.55 0.45 -6.55 0.4 -6.55 0.35 -6.55 0.25 -6.5 0.15 -6.5 0.1 -6.5 0.05 -6.5 0.05 -6.5 0.0 -6.55 -0.45 -6.5 -0.5 -6.5 -0.45 -6.55 -0.45 -6.6 -0.4 -6.65 -0.35 -6.65 -0.15 -6.6 0.1 -6.65 0.1 -6.65 0.3 -6.6 0.3 -6.6 M0.0 -7.5 L0.0 -7.25 0.0 -7.0 -0.05 -7.0 -0.05 -7.1 -0.05 -7.1 -0.1 -7.3 -0.1 -7.5 -0.05 -7.65 0.0 -7.5 M-0.2 -5.45 L-0.2 -5.5 -0.15 -5.7 -0.1 -5.75 0.0 -5.8 0.1 -5.8 0.15 -5.7 0.2 -5.6 0.25 -5.5 0.2 -5.4 0.2 -5.35 0.25 -5.3 0.25 -5.35 0.3 -5.35 0.3 -5.25 0.25 -5.1 0.2 -4.95 0.25 -4.85 0.25 -4.8 0.3 -4.7 0.25 -4.65 0.25 -4.6 0.2 -4.65 0.15 -4.7 0.15 -4.7 0.1 -4.75 0.05 -4.8 0.0 -4.85 -0.05 -4.85 -0.1 -4.85 -0.1 -4.85 -0.15 -4.85 -0.2 -4.8 -0.25 -4.75 -0.25 -4.8 -0.25 -5.0 -0.2 -5.05 -0.25 -5.15 -0.3 -5.25 -0.3 -5.35 -0.15 -5.2 -0.2 -5.3 -0.2 -5.4 -0.2 -5.45 M0.1 -5.45 L0.0 -5.65 -0.05 -5.7 -0.1 -5.6 -0.1 -5.45 -0.1 -5.35 -0.1 -5.2 -0.05 -5.15 Q0.0 -5.15 0.05 -5.3 L0.1 -5.45 M0.2 -5.25 L0.05 -5.15 -0.1 -5.15 -0.15 -5.15 -0.2 -5.15 -0.2 -5.15 -0.15 -5.05 -0.2 -5.0 -0.2 -4.85 -0.15 -4.9 -0.05 -4.9 0.05 -4.9 0.15 -4.8 0.2 -4.8 0.15 -4.95 0.15 -5.0 0.2 -5.1 0.25 -5.2 0.25 -5.25 0.2 -5.25 M-0.15 -7.8 Q-0.1 -7.85 -0.1 -7.9 L-0.1 -7.9 -0.15 -7.95 -0.2 -7.75 -0.2 -7.75 -0.15 -7.8" fill="#a49791" fill-rule="evenodd" stroke="none"/>
    <path d="M0.2 -7.9 L0.15 -7.95 0.1 -8.1 0.15 -8.25 0.15 -8.45 0.2 -8.6 0.2 -8.65 0.25 -8.7 0.3 -8.8 0.3 -8.8 0.3 -8.8 0.3 -8.65 0.3 -8.55 0.25 -8.45 0.25 -8.4 0.2 -8.3 0.2 -7.9 M-0.2 -9.0 L-0.2 -9.0 -0.25 -8.9 -0.3 -8.8 -0.3 -8.65 -0.25 -8.5 -0.2 -8.45 -0.25 -8.4 -0.3 -8.3 -0.3 -8.15 -0.3 -8.1 -0.25 -8.05 -0.2 -8.0 -0.2 -7.95 -0.25 -7.95 -0.25 -8.0 -0.3 -8.0 -0.35 -8.05 -0.35 -8.1 -0.35 -8.25 -0.3 -8.35 -0.35 -8.45 -0.25 -8.9 -0.2 -9.0 M-0.25 -7.65 L-0.25 -7.45 -0.2 -7.25 -0.15 -7.25 -0.15 -7.6 -0.1 -7.7 -0.1 -7.75 0.0 -7.85 0.0 -7.85 0.05 -7.8 0.1 -7.75 0.1 -7.55 0.15 -7.5 0.1 -7.6 0.05 -7.55 0.0 -7.5 -0.05 -7.65 -0.1 -7.5 -0.1 -7.3 -0.05 -7.1 -0.05 -7.1 -0.05 -7.0 -0.1 -7.1 -0.15 -7.15 -0.25 -7.2 -0.3 -7.4 -0.3 -7.5 -0.35 -7.6 -0.3 -7.6 -0.3 -7.65 -0.25 -7.65 M0.25 -8.45 L0.25 -8.45 M0.45 -8.05 L0.45 -7.85 0.5 -7.7 0.5 -7.2 Q0.5 -7.05 0.45 -6.9 L0.3 -6.6 0.3 -6.6 0.1 -6.65 0.1 -6.65 -0.15 -6.6 -0.35 -6.65 -0.4 -6.65 -0.45 -6.7 -0.55 -6.75 -0.55 -6.85 -0.6 -6.95 -0.55 -7.25 -0.5 -7.65 -0.45 -7.95 Q-0.4 -7.85 -0.4 -7.8 L-0.45 -7.55 -0.4 -7.3 -0.4 -7.3 -0.35 -7.25 -0.35 -7.2 -0.3 -7.1 -0.25 -7.0 -0.2 -6.95 -0.2 -6.95 -0.15 -6.9 -0.1 -6.85 Q0.05 -6.85 0.1 -6.95 L0.25 -7.2 0.3 -7.3 0.4 -7.35 0.45 -7.6 0.4 -7.75 0.4 -7.8 0.35 -7.9 0.4 -8.0 0.45 -8.05 M0.35 -6.4 L0.3 -6.35 0.3 -6.3 0.3 -6.3 0.25 -6.25 0.2 -6.25 0.15 -6.3 0.1 -6.3 -0.05 -6.25 -0.15 -6.25 -0.35 -6.1 -0.25 -6.1 -0.15 -6.1 -0.15 -6.1 -0.1 -6.1 0.05 -6.1 0.15 -6.1 0.2 -6.1 0.3 -6.1 0.3 -6.15 0.35 -6.15 0.4 -6.1 0.35 -6.05 0.35 -5.95 0.35 -4.85 0.35 -3.05 0.25 -3.1 0.25 -3.2 0.2 -3.25 0.2 -3.35 0.1 -3.45 0.15 -3.45 0.1 -3.5 0.1 -3.5 0.05 -3.55 0.05 -3.55 0.1 -3.6 0.15 -3.65 0.15 -3.7 0.2 -3.75 0.25 -3.85 0.25 -3.9 0.3 -3.95 0.25 -4.0 0.25 -4.0 0.25 -4.05 0.2 -4.05 0.2 -4.1 0.25 -4.15 0.3 -4.2 0.25 -4.25 0.25 -4.25 0.2 -4.25 0.2 -4.4 0.2 -4.6 0.15 -4.7 0.15 -4.7 0.2 -4.65 0.25 -4.6 0.25 -4.65 0.3 -4.7 0.25 -4.8 0.25 -4.85 0.2 -4.95 0.25 -5.1 0.3 -5.25 0.3 -5.35 0.25 -5.35 0.25 -5.3 0.2 -5.35 0.2 -5.4 0.25 -5.5 0.2 -5.6 0.15 -5.7 0.1 -5.8 0.0 -5.8 -0.1 -5.75 -0.15 -5.7 -0.2 -5.5 -0.2 -5.45 -0.2 -5.4 -0.2 -5.3 -0.15 -5.2 -0.3 -5.35 -0.3 -5.25 -0.25 -5.15 -0.2 -5.05 -0.25 -5.0 -0.25 -4.8 -0.25 -4.75 -0.2 -4.8 -0.15 -4.85 -0.1 -4.85 -0.1 -4.85 -0.2 -4.7 -0.25 -4.65 -0.25 -4.5 -0.25 -4.25 -0.25 -4.15 -0.3 -5.55 Q-0.3 -5.7 -0.35 -5.85 L-0.4 -5.95 -0.45 -6.0 -0.4 -6.1 -0.35 -6.2 -0.3 -6.25 -0.3 -6.25 -0.3 -6.3 -0.35 -6.35 -0.35 -6.4 -0.4 -6.4 -0.3 -6.4 -0.1 -6.45 0.15 -6.4 0.25 -6.4 0.3 -6.4 0.35 -6.4 M0.35 -2.95 L0.35 11.45 0.35 11.9 0.3 11.95 Q0.2 12.05 0.2 12.1 L0.25 12.25 0.2 12.6 Q0.2 13.0 0.3 13.45 L0.35 13.95 0.3 14.15 0.2 14.3 0.1 14.35 -0.05 14.4 Q-0.2 14.4 -0.3 14.25 -0.45 14.1 -0.45 13.9 L-0.35 13.6 Q-0.25 13.4 -0.25 13.2 L-0.3 12.5 -0.3 12.0 -0.3 11.75 -0.3 11.6 -0.3 11.55 -0.3 7.75 -0.25 -2.95 -0.2 -2.95 -0.05 -2.95 0.1 -2.9 0.25 -2.95 0.25 -2.95 0.25 -2.95 0.35 -2.95 M0.1 -6.85 L0.0 -6.8 0.05 -6.7 0.1 -6.7 0.2 -6.75 0.3 -6.8 0.35 -7.0 0.3 -7.05 0.2 -6.9 0.1 -6.85 M0.0 -5.95 L-0.1 -5.9 -0.1 -5.9 -0.2 -5.85 Q-0.25 -5.85 -0.25 -5.75 L-0.25 -5.7 -0.2 -5.7 -0.15 -5.8 -0.05 -5.85 0.0 -5.85 0.1 -5.85 0.2 -5.8 0.2 -5.75 0.25 -5.7 0.3 -5.65 0.3 -5.75 Q0.15 -5.9 0.05 -5.95 L0.0 -5.95 M0.1 -3.5 L0.25 -3.4 0.25 -3.6 0.2 -3.65 0.2 -3.65 0.15 -3.6 0.1 -3.5 M0.15 0.1 L0.15 0.0 Q0.2 0.0 0.2 -0.05 L0.2 -0.2 0.2 -0.65 Q0.15 -0.7 0.15 -0.75 0.15 -1.05 0.2 -1.1 L0.2 -1.2 Q0.25 -1.25 0.25 -1.4 L0.2 -1.55 0.2 -1.65 0.2 -1.9 0.2 -2.1 0.15 -2.2 0.2 -2.3 0.25 -2.35 0.2 -2.4 0.2 -2.45 0.15 -2.65 0.1 -2.8 0.05 -2.75 0.0 -2.75 -0.05 -2.7 -0.1 -2.4 -0.1 -2.1 -0.05 -2.0 -0.05 -1.85 -0.05 -1.7 -0.1 -1.6 -0.1 -1.55 -0.1 -1.35 -0.05 -1.25 -0.05 -1.15 0.0 -1.05 -0.05 -1.0 -0.1 -0.95 -0.1 -0.9 -0.15 -0.8 -0.1 -0.7 -0.1 -0.55 -0.05 -0.25 -0.1 -0.05 -0.1 0.1 -0.1 0.3 -0.1 0.7 -0.1 0.8 -0.1 0.9 -0.1 1.1 -0.1 1.3 -0.05 1.6 -0.1 1.8 -0.1 2.0 -0.15 2.2 -0.15 2.3 -0.1 2.3 -0.1 2.3 -0.1 2.35 -0.15 2.35 -0.15 2.4 -0.1 2.45 -0.1 2.45 0.1 2.45 0.15 2.45 0.2 2.4 0.2 2.35 0.2 2.3 0.2 2.05 0.15 1.9 0.2 1.4 0.15 0.5 0.2 0.35 0.2 0.2 0.15 0.15 0.15 0.1 M0.15 2.5 L0.05 2.55 0.0 2.55 -0.2 2.55 -0.15 2.55 -0.1 2.6 0.0 2.6 0.05 2.6 0.1 2.6 Q0.15 2.6 0.15 2.55 L0.2 2.5 0.15 2.5 M0.1 2.7 L0.15 2.65 -0.1 2.65 -0.1 2.7 -0.15 2.7 -0.15 2.75 -0.1 2.75 -0.05 2.7 0.05 2.7 0.1 2.7 M0.05 8.75 L0.1 8.55 0.1 8.35 0.1 8.05 0.1 7.75 Q0.1 7.6 0.1 7.45 L0.1 7.25 0.1 7.2 0.05 7.15 0.1 7.0 0.1 6.9 0.1 6.85 0.05 6.8 0.05 6.7 0.1 6.6 0.05 6.5 0.1 6.45 0.1 5.7 Q0.1 5.6 0.1 5.55 L0.15 5.4 0.2 5.25 0.2 5.1 0.1 4.4 0.1 4.35 0.15 4.25 0.15 4.2 0.1 3.9 0.05 3.7 0.0 3.6 0.0 3.75 -0.05 3.9 -0.05 4.05 -0.1 4.25 -0.1 4.35 -0.1 4.7 -0.1 5.0 -0.15 5.1 -0.1 5.25 -0.15 5.45 -0.1 5.55 -0.1 5.6 -0.1 5.95 -0.1 6.3 -0.1 6.45 -0.1 6.55 -0.05 6.6 -0.05 6.65 -0.1 6.7 -0.1 6.75 -0.15 6.8 -0.1 6.85 -0.1 7.25 -0.1 7.55 -0.1 7.65 -0.1 7.85 -0.1 8.1 -0.1 8.2 -0.1 8.35 -0.1 8.5 -0.1 8.8 -0.15 8.85 -0.15 8.9 -0.1 8.95 -0.1 9.05 -0.1 9.6 -0.05 9.65 -0.1 9.7 -0.05 9.85 -0.05 10.0 -0.1 10.15 -0.1 10.35 -0.1 10.9 -0.1 11.05 -0.05 11.15 -0.1 11.2 -0.1 11.45 -0.1 11.6 -0.1 11.85 -0.15 12.1 -0.15 12.15 -0.1 12.25 Q-0.1 12.3 -0.1 12.4 L-0.1 12.6 -0.1 12.7 -0.1 13.0 -0.1 13.2 -0.15 13.2 Q-0.15 13.25 -0.1 13.25 L-0.05 13.25 0.05 13.25 0.05 13.2 0.0 13.2 0.05 13.15 0.05 13.05 0.1 13.0 0.1 12.85 0.05 12.8 0.05 12.65 0.05 12.5 0.05 12.45 0.1 12.3 0.1 11.9 0.1 11.25 0.1 11.15 0.05 11.1 0.05 11.05 0.1 11.0 0.1 10.85 0.1 10.5 0.05 9.95 0.1 9.8 0.05 9.8 0.1 9.75 0.1 9.65 0.1 9.4 0.05 9.2 Q0.05 9.15 0.1 9.05 L0.1 8.95 0.1 8.8 0.1 8.8 0.05 8.75 M0.1 12.2 L0.25 12.25 0.1 12.2 M0.15 13.45 L0.15 13.4 -0.05 13.45 -0.2 13.45 Q-0.25 13.45 -0.25 13.5 L-0.2 13.55 -0.2 13.7 -0.2 13.85 -0.25 13.9 -0.25 13.95 -0.2 14.25 0.0 14.35 Q0.2 14.35 0.2 14.25 L0.2 14.2 0.15 14.15 0.25 13.85 0.2 13.75 0.2 13.6 0.15 13.45 M-0.4 -7.15 L-0.5 -7.1 -0.5 -7.0 -0.45 -6.95 -0.4 -6.8 -0.35 -6.8 -0.25 -6.8 -0.25 -6.95 -0.35 -7.15 -0.4 -7.15 M-0.2 -2.95 L-0.2 -2.95 M-0.3 12.1 L-0.15 12.15 -0.3 12.1 M-0.1 13.4 Q0.1 13.4 0.1 13.3 L-0.2 13.35 -0.15 13.4 -0.1 13.4" fill="#1c1c1c" fill-rule="evenodd" stroke="none"/>
    <path d="M-0.2 -7.95 L-0.25 -7.9 -0.3 -7.65 -0.25 -7.65 -0.3 -7.65 -0.3 -7.6 -0.35 -7.6 -0.3 -7.5 -0.3 -7.4 -0.25 -7.2 -0.15 -7.15 -0.1 -7.1 -0.05 -7.0 -0.05 -7.1 -0.05 -7.0 0.0 -7.0 0.0 -7.25 0.0 -7.5 0.05 -7.55 0.1 -7.6 0.15 -7.5 0.15 -7.4 0.15 -7.25 0.2 -7.4 0.2 -7.6 0.2 -7.9 0.2 -8.3 0.25 -8.4 0.25 -8.45 0.3 -8.55 0.3 -8.65 0.35 -8.5 0.25 -8.45 Q0.2 -8.3 0.2 -8.15 L0.25 -8.05 0.3 -7.95 0.3 -7.75 0.35 -7.65 0.35 -7.65 0.4 -7.55 0.2 -7.25 0.15 -7.05 0.1 -6.95 0.05 -6.9 -0.1 -6.95 -0.2 -6.95 -0.2 -6.95 -0.25 -7.05 -0.25 -7.15 -0.3 -7.25 -0.3 -7.4 -0.35 -7.5 -0.4 -7.6 -0.35 -7.75 -0.3 -7.85 -0.4 -8.0 -0.45 -8.05 -0.45 -8.1 -0.35 -8.4 -0.35 -8.45 -0.3 -8.35 -0.35 -8.25 -0.35 -8.1 -0.35 -8.05 -0.3 -8.0 -0.25 -8.0 -0.25 -7.95 -0.2 -7.95 M-0.25 -3.75 L-0.25 -4.05 -0.25 -4.15 -0.25 -4.25 -0.25 -4.5 -0.25 -4.65 -0.2 -4.7 -0.1 -4.85 -0.05 -4.85 0.0 -4.85 0.05 -4.8 0.1 -4.75 0.15 -4.7 0.2 -4.6 0.2 -4.4 0.2 -4.25 0.25 -4.25 0.25 -4.25 0.3 -4.2 0.25 -4.15 0.2 -4.1 0.2 -4.05 0.2 -4.0 0.2 -4.0 0.1 -3.85 -0.1 -3.7 -0.1 -3.7 -0.15 -3.75 -0.15 -3.75 -0.2 -3.75 -0.2 -3.75 -0.15 -3.65 -0.15 -3.65 -0.2 -3.65 -0.25 -3.75 M0.05 -4.6 L0.05 -4.6 0.0 -4.7 0.0 -4.75 -0.1 -4.7 -0.1 -4.45 -0.15 -4.3 -0.1 -4.2 -0.1 -4.05 -0.05 -4.0 0.0 -3.95 0.05 -4.05 0.05 -4.15 0.1 -4.25 0.1 -4.55 0.05 -4.6" fill="#685b55" fill-rule="evenodd" stroke="none"/>
    <path d="M0.25 -8.45 L0.25 -8.45 0.35 -8.5 0.4 -8.3 0.45 -8.05 0.4 -8.0 0.35 -7.9 0.4 -7.8 0.4 -7.75 0.45 -7.6 0.4 -7.35 0.3 -7.3 0.25 -7.2 0.1 -6.95 Q0.05 -6.85 -0.1 -6.85 L-0.15 -6.9 -0.2 -6.95 -0.2 -6.95 -0.25 -7.0 -0.3 -7.1 -0.35 -7.2 -0.35 -7.25 -0.4 -7.3 -0.4 -7.3 -0.45 -7.55 -0.4 -7.8 Q-0.4 -7.85 -0.45 -7.95 L-0.45 -8.05 -0.4 -8.0 -0.3 -7.85 -0.35 -7.75 -0.4 -7.6 -0.35 -7.5 -0.3 -7.4 -0.3 -7.25 -0.25 -7.15 -0.25 -7.05 -0.2 -6.95 -0.2 -6.95 -0.1 -6.95 0.05 -6.9 0.1 -6.95 0.15 -7.05 0.2 -7.25 0.4 -7.55 0.35 -7.65 0.35 -7.65 0.3 -7.75 0.3 -7.95 0.25 -8.05 0.2 -8.15 Q0.2 -8.3 0.25 -8.45 M0.45 -6.55 L0.45 -6.55 0.5 -6.5 0.4 -6.4 0.35 -6.4 0.3 -6.4 0.25 -6.4 0.15 -6.4 -0.1 -6.45 -0.3 -6.4 -0.4 -6.4 -0.5 -6.4 -0.5 -6.5 -0.45 -6.5 0.0 -6.55 0.05 -6.5 0.05 -6.5 0.1 -6.5 0.15 -6.5 0.25 -6.5 0.35 -6.55 0.4 -6.55 0.45 -6.55 0.45 -6.55 M0.25 -6.25 L0.3 -6.25 0.3 -6.2 0.35 -6.15 0.35 -6.15 0.15 -6.2 0.05 -6.2 0.05 -6.2 0.0 -6.2 0.0 -6.2 -0.05 -6.15 -0.15 -6.1 -0.15 -6.1 -0.25 -6.1 -0.35 -6.1 -0.15 -6.25 -0.05 -6.25 0.1 -6.3 0.15 -6.3 0.2 -6.25 0.25 -6.25 M0.1 -6.85 L0.2 -6.9 0.3 -7.05 0.35 -7.0 0.3 -6.8 0.2 -6.75 0.1 -6.7 0.05 -6.7 0.0 -6.8 0.1 -6.85 M-0.4 -7.15 L-0.35 -7.15 -0.25 -6.95 -0.25 -6.8 -0.35 -6.8 -0.4 -6.8 -0.45 -6.95 -0.5 -7.0 -0.5 -7.1 -0.4 -7.15" fill="#48484a" fill-rule="evenodd" stroke="none"/>
    <path d="M0.35 -6.15 L0.35 -6.15 0.3 -6.15 0.3 -6.1 0.2 -6.1 0.15 -6.1 0.05 -6.1 -0.1 -6.1 -0.15 -6.1 -0.05 -6.15 0.0 -6.2 0.0 -6.2 0.05 -6.2 0.05 -6.2 0.15 -6.2 0.35 -6.15" fill="#d8b9a7" fill-rule="evenodd" stroke="none"/>
    <path d="M0.0 -5.95 L0.05 -5.95 Q0.15 -5.9 0.3 -5.75 L0.3 -5.65 0.25 -5.7 0.2 -5.75 0.2 -5.8 0.1 -5.85 0.0 -5.85 -0.05 -5.85 -0.15 -5.8 -0.2 -5.7 -0.25 -5.7 -0.25 -5.75 Q-0.25 -5.85 -0.2 -5.85 L-0.1 -5.9 -0.1 -5.9 0.0 -5.95" fill="#43423e" fill-rule="evenodd" stroke="none"/>
    <path d="M0.2 -5.25 L0.25 -5.25 0.25 -5.2 0.2 -5.1 0.15 -5.0 0.15 -4.95 0.2 -4.8 0.15 -4.8 0.05 -4.9 -0.05 -4.9 -0.15 -4.9 -0.2 -4.85 -0.2 -5.0 -0.15 -5.05 -0.2 -5.15 -0.2 -5.15 -0.15 -5.15 -0.1 -5.15 0.05 -5.15 0.2 -5.25" fill="#f2e8df" fill-rule="evenodd" stroke="none"/>
    <path d="M0.25 -4.0 L0.25 -4.0 0.3 -3.95 0.25 -3.9 0.25 -3.85 0.2 -3.75 0.15 -3.7 0.15 -3.65 0.1 -3.6 0.05 -3.55 0.0 -3.6 0.05 -3.65 0.1 -3.7 0.1 -3.75 0.15 -3.8 0.25 -3.9 0.25 -4.0 M0.05 -4.6 L0.1 -4.55 0.1 -4.25 0.05 -4.15 0.05 -4.05 0.0 -3.95 -0.05 -4.0 -0.1 -4.05 -0.1 -4.2 -0.15 -4.3 -0.1 -4.45 -0.1 -4.7 0.0 -4.75 0.0 -4.7 0.05 -4.6 0.05 -4.6" fill="#f6f3ee" fill-rule="evenodd" stroke="none"/>
    <path d="M0.2 -4.05 L0.25 -4.05 0.25 -4.0 0.25 -3.9 0.15 -3.8 0.1 -3.75 0.1 -3.7 0.05 -3.65 0.0 -3.6 0.0 -3.6 -0.1 -3.7 0.1 -3.85 0.2 -4.0 0.2 -4.0 0.2 -4.05" fill="#b2a9a2" fill-rule="evenodd" stroke="none"/>
    <path d="M0.1 -3.5 L0.15 -3.6 0.2 -3.65 0.2 -3.65 0.25 -3.6 0.25 -3.4 0.1 -3.5 0.1 -3.5" fill="#5a534b" fill-rule="evenodd" stroke="none"/>
    <path d="M0.05 -3.55 L0.05 -3.55 0.1 -3.5 0.1 -3.5 0.15 -3.45 0.1 -3.45 0.1 -3.35 0.15 -3.25 0.1 -3.3 0.05 -3.35 0.0 -3.4 0.0 -3.4 -0.05 -3.45 -0.1 -3.55 -0.15 -3.65 -0.15 -3.65 -0.2 -3.75 -0.2 -3.75 -0.15 -3.75 -0.15 -3.75 -0.1 -3.7 -0.1 -3.7 0.0 -3.6 0.0 -3.6 0.05 -3.55 M0.1 -3.5 L0.1 -3.5" fill="#f6efe9" fill-rule="evenodd" stroke="none"/>
    <path d="M0.35 -3.05 L0.35 -2.95 0.25 -2.95 0.25 -2.95 0.15 -3.05 0.05 -3.1 0.0 -3.1 -0.05 -3.05 -0.15 -2.95 -0.2 -2.95 -0.2 -3.0 -0.2 -3.15 -0.2 -3.35 -0.2 -3.45 -0.1 -3.4 -0.05 -3.35 0.0 -3.3 0.0 -3.2 0.05 -3.2 0.1 -3.15 0.15 -3.1 0.2 -3.15 0.15 -3.2 0.1 -3.3 0.0 -3.4 0.05 -3.35 0.1 -3.3 0.15 -3.25 0.1 -3.35 0.1 -3.45 0.2 -3.35 0.2 -3.25 0.25 -3.2 0.25 -3.1 0.35 -3.05 M-0.2 -2.95 L-0.2 -2.95" fill="#635a53" fill-rule="evenodd" stroke="none"/>
    <path d="M-0.25 -2.95 L-0.25 -3.75 -0.2 -3.65 -0.15 -3.65 -0.1 -3.55 -0.05 -3.45 0.0 -3.4 0.0 -3.4 0.1 -3.3 0.15 -3.2 0.2 -3.15 0.15 -3.1 0.1 -3.15 0.05 -3.2 0.0 -3.2 0.0 -3.3 -0.05 -3.35 -0.1 -3.4 -0.2 -3.45 -0.2 -3.35 -0.2 -3.15 -0.2 -3.0 -0.2 -2.95 -0.25 -2.95" fill="#1f1b18" fill-rule="evenodd" stroke="none"/>
    <path d="M-0.2 -2.95 L-0.15 -2.95 -0.05 -3.05 0.0 -3.1 0.05 -3.1 0.15 -3.05 0.25 -2.95 0.25 -2.95 0.1 -2.9 -0.05 -2.95 -0.2 -2.95" fill="#e7d5c7" fill-rule="evenodd" stroke="none"/>
    <path d="M-0.1 0.7 L-0.1 0.3 -0.1 0.1 -0.1 -0.05 -0.05 -0.25 -0.1 -0.55 -0.1 -0.7 -0.15 -0.8 -0.1 -0.9 -0.1 -0.95 -0.05 -1.0 0.0 -1.05 -0.05 -1.15 -0.05 -1.25 -0.1 -1.35 -0.1 -1.55 -0.1 -1.6 -0.05 -1.7 -0.05 -1.85 -0.05 -2.0 -0.1 -2.1 -0.1 -2.4 -0.05 -2.7 0.0 -2.75 0.05 -2.75 0.1 -2.8 0.15 -2.65 0.2 -2.45 0.2 -2.4 0.25 -2.35 0.2 -2.3 0.15 -2.2 0.2 -2.1 0.2 -1.9 0.2 -1.65 0.2 -1.55 0.25 -1.4 Q0.25 -1.25 0.2 -1.2 L0.2 -1.1 Q0.15 -1.05 0.15 -0.75 0.15 -0.7 0.2 -0.65 L0.2 -0.2 0.2 -0.05 Q0.2 0.0 0.15 0.0 L0.15 0.1 0.05 0.05 0.0 0.05 0.05 0.15 0.1 0.2 0.15 0.15 0.2 0.2 0.2 0.35 0.15 0.5 0.2 1.4 0.15 1.9 0.2 2.05 0.2 2.3 0.2 2.35 0.15 2.3 0.15 2.25 0.1 2.15 0.1 2.1 0.1 1.95 Q0.1 1.95 0.05 1.95 L0.0 2.0 0.0 2.15 -0.05 2.3 -0.05 2.3 -0.1 2.35 -0.1 2.3 -0.1 2.3 -0.15 2.3 -0.15 2.2 -0.1 2.0 -0.1 1.8 -0.05 1.6 -0.1 1.3 -0.1 1.1 -0.1 0.9 -0.1 0.8 -0.1 0.7" fill="#645c5a" fill-rule="evenodd" stroke="none"/>
    <path d="M0.15 0.1 L0.15 0.15 0.1 0.2 0.05 0.15 0.0 0.05 0.05 0.05 0.15 0.1" fill="#9a928f" fill-rule="evenodd" stroke="none"/>
    <path d="M-0.05 2.3 L0.0 2.15 0.0 2.0 0.05 1.95 Q0.1 1.95 0.1 1.95 L0.1 2.1 0.1 2.15 0.15 2.25 0.15 2.3 0.2 2.35 0.15 2.35 0.1 2.3 0.1 2.25 0.05 2.2 0.0 2.25 -0.05 2.3" fill="#999490" fill-rule="evenodd" stroke="none"/>
    <path d="M0.2 2.35 L0.2 2.4 0.15 2.45 0.1 2.45 -0.1 2.45 -0.1 2.45 -0.15 2.4 -0.15 2.35 -0.1 2.35 -0.05 2.3 -0.05 2.3 0.0 2.25 0.05 2.2 0.1 2.25 0.1 2.3 0.15 2.35 0.2 2.35 M-0.1 2.35 L-0.1 2.35 M0.15 2.5 L0.2 2.5 0.15 2.55 Q0.15 2.6 0.1 2.6 L0.05 2.6 0.0 2.6 -0.1 2.6 -0.15 2.55 -0.2 2.55 0.0 2.55 0.05 2.55 0.15 2.5" fill="#f4efec" fill-rule="evenodd" stroke="none"/>
    <path d="M0.1 2.7 L0.05 2.7 -0.05 2.7 -0.1 2.75 -0.15 2.75 -0.15 2.7 -0.1 2.7 -0.1 2.65 0.15 2.65 0.1 2.7" fill="#5d5c5a" fill-rule="evenodd" stroke="none"/>
    <path d="M-0.1 13.2 L-0.1 13.0 -0.1 12.7 -0.1 12.6 -0.1 12.4 Q-0.1 12.3 -0.1 12.25 L-0.15 12.15 -0.15 12.1 -0.1 11.85 -0.1 11.6 -0.1 11.45 -0.1 11.2 -0.05 11.15 -0.1 11.05 -0.1 10.9 -0.1 10.35 -0.1 10.15 -0.05 10.0 -0.05 9.85 -0.1 9.7 -0.05 9.65 -0.1 9.6 -0.1 9.05 -0.1 8.95 -0.15 8.9 -0.15 8.85 -0.1 8.8 -0.1 8.5 -0.1 8.35 -0.1 8.2 -0.1 8.1 -0.1 7.85 -0.1 7.65 -0.1 7.55 -0.1 7.25 -0.1 6.85 -0.15 6.8 -0.1 6.75 -0.1 6.7 -0.05 6.65 -0.05 6.6 -0.1 6.55 -0.1 6.45 -0.1 6.3 -0.1 5.95 -0.1 5.6 -0.1 5.55 -0.15 5.45 -0.1 5.25 -0.15 5.1 -0.1 5.0 -0.1 4.7 -0.1 4.35 -0.1 4.25 -0.05 4.05 -0.05 3.9 0.0 3.75 0.0 3.6 0.05 3.7 0.1 3.9 0.15 4.2 0.15 4.25 0.1 4.35 0.1 4.4 0.2 5.1 0.2 5.25 0.15 5.4 0.1 5.55 Q0.1 5.6 0.1 5.7 L0.1 6.45 0.05 6.5 0.1 6.6 0.05 6.7 0.05 6.8 0.1 6.85 0.1 6.9 0.1 7.0 0.05 7.15 0.1 7.2 0.1 7.25 0.1 7.45 Q0.1 7.6 0.1 7.75 L0.1 8.05 0.1 8.35 0.1 8.55 0.05 8.75 0.1 8.8 0.1 8.8 0.1 8.95 0.1 9.05 Q0.05 9.15 0.05 9.2 L0.1 9.4 0.1 9.65 0.1 9.75 0.05 9.8 0.1 9.8 0.05 9.95 0.1 10.5 0.1 10.85 0.1 11.0 0.05 11.05 0.05 11.1 0.1 11.15 0.1 11.25 0.1 11.9 0.1 12.3 0.05 12.45 0.05 12.5 0.05 12.65 0.05 12.8 0.1 12.85 0.1 13.0 0.05 13.05 0.05 13.15 0.0 13.2 0.0 13.2 -0.1 13.2 -0.1 13.2 M0.05 8.75 L0.0 8.8 -0.05 8.85 0.0 8.9 0.0 8.8 0.05 8.8 0.05 8.75" fill="#605c59" fill-rule="evenodd" stroke="none"/>
    <path d="M-0.1 13.2 L-0.1 13.2 0.0 13.2 0.0 13.2 0.05 13.2 0.05 13.25 -0.05 13.25 -0.1 13.25 Q-0.15 13.25 -0.15 13.2 L-0.1 13.2 M0.05 8.75 L0.05 8.8 0.0 8.8 0.0 8.9 -0.05 8.85 0.0 8.8 0.05 8.75 M-0.2 13.45 L-0.05 13.45 0.15 13.4 0.15 13.45 0.1 13.5 0.05 13.5 0.05 13.6 0.1 13.6 0.05 13.65 0.05 13.7 0.05 13.95 0.0 14.05 0.0 14.25 -0.05 14.15 -0.05 14.05 -0.05 13.6 Q-0.05 13.55 -0.1 13.55 L-0.2 13.45 M-0.1 13.4 L-0.15 13.4 -0.2 13.35 0.1 13.3 Q0.1 13.4 -0.1 13.4" fill="#e6e2e1" fill-rule="evenodd" stroke="none"/>
    <path d="M-0.2 13.45 L-0.1 13.55 Q-0.05 13.55 -0.05 13.6 L-0.05 14.05 -0.05 14.15 0.0 14.25 0.0 14.05 0.05 13.95 0.05 13.7 0.05 13.65 0.1 13.6 0.05 13.6 0.05 13.5 0.1 13.5 0.15 13.45 0.2 13.6 0.2 13.75 0.25 13.85 0.15 14.15 0.2 14.2 0.2 14.25 Q0.2 14.35 0.0 14.35 L-0.2 14.25 -0.25 13.95 -0.25 13.9 -0.2 13.85 -0.2 13.7 -0.2 13.55 -0.25 13.5 Q-0.25 13.45 -0.2 13.45" fill="#5a5655" fill-rule="evenodd" stroke="none"/>
    <path d="M0.3 -8.8 L0.25 -8.9 Q0.2 -9.1 0.05 -9.1 -0.1 -9.1 -0.2 -9.0 L-0.25 -8.9 -0.35 -8.45 -0.35 -8.4 -0.45 -8.1 -0.45 -8.05 -0.45 -7.95 -0.5 -7.65 -0.55 -7.25 -0.6 -6.95 -0.55 -6.85 -0.55 -6.75 -0.45 -6.7 -0.4 -6.65 -0.45 -6.6 -0.45 -6.55 -0.5 -6.5 -0.5 -6.4 -0.4 -6.4 -0.35 -6.4 -0.35 -6.35 -0.3 -6.3 -0.3 -6.25 -0.3 -6.25 -0.35 -6.2 -0.4 -6.1 -0.45 -6.0 -0.4 -5.95 -0.35 -5.85 Q-0.3 -5.7 -0.3 -5.55 L-0.25 -4.15 -0.25 -4.05 -0.25 -3.75 -0.25 -2.95 -0.3 7.75 -0.3 11.55 -0.3 11.6 -0.3 11.75 -0.3 12.0 -0.3 12.5 -0.25 13.2 Q-0.25 13.4 -0.35 13.6 L-0.45 13.9 Q-0.45 14.1 -0.3 14.25 -0.2 14.4 -0.05 14.4 L0.1 14.35 0.2 14.3 0.3 14.15 0.35 13.95 0.3 13.45 Q0.2 13.0 0.2 12.6 L0.25 12.25 0.1 12.2 M0.3 -8.65 L0.3 -8.8 0.3 -8.8 M0.3 -8.65 L0.35 -8.5 0.4 -8.3 0.45 -8.05 0.45 -7.85 0.5 -7.7 0.5 -7.2 Q0.5 -7.05 0.45 -6.9 L0.3 -6.6 0.45 -6.6 0.45 -6.55 0.45 -6.55 0.5 -6.5 0.4 -6.4 0.35 -6.4 0.3 -6.35 0.3 -6.3 0.3 -6.3 0.25 -6.25 0.3 -6.25 0.3 -6.2 0.35 -6.15 0.35 -6.15 0.35 -6.15 0.4 -6.1 0.35 -6.05 0.35 -5.95 0.35 -4.85 0.35 -3.05 0.35 -2.95 0.35 11.45 0.35 11.9 0.3 11.95 Q0.2 12.05 0.2 12.1 L0.25 12.25 M-0.15 12.15 L-0.3 12.1" fill="none" stroke="#000000" stroke-linecap="round" stroke-linejoin="round" stroke-opacity="0.4509804" stroke-width="0.1"/>
  </g>
</svg>
