<?xml version="1.0" encoding="UTF-8" standalone="no"?>
<svg xmlns:xlink="http://www.w3.org/1999/xlink" height="22.05px" width="4.3px" xmlns="http://www.w3.org/2000/svg">
  <g transform="matrix(1.0, 0.0, 0.0, 1.0, 2.15, 10.0)">
    <path d="M0.1 -9.95 L1.1 -9.85 1.25 -9.8 1.25 -9.8 1.35 -9.8 1.4 -9.8 1.65 -9.7 1.8 -9.6 1.9 -9.5 1.95 -9.5 1.75 -9.45 1.7 -9.4 1.55 -9.35 1.45 -9.3 1.1 -9.0 1.0 -8.95 0.95 -8.9 0.85 -8.85 0.75 -8.7 0.75 -8.65 0.7 -8.6 0.75 -8.5 0.8 -8.45 0.85 -8.4 0.9 -8.35 0.9 -8.35 0.85 -8.35 0.35 -8.3 0.15 -8.3 -0.35 -8.3 -0.7 -8.3 -0.85 -8.3 -0.8 -8.3 -0.75 -8.35 -0.75 -8.4 -0.75 -8.5 Q-0.75 -8.5 -0.75 -8.55 L-0.75 -8.6 -0.8 -8.65 -0.8 -8.65 -0.85 -8.7 -0.85 -8.75 -0.85 -8.75 Q-0.9 -8.95 -1.2 -9.1 L-1.25 -9.1 Q-1.55 -9.25 -1.9 -9.3 L-1.75 -9.35 -1.65 -9.4 -1.6 -9.4 -1.6 -9.4 Q-1.55 -9.45 -1.45 -9.5 L-1.4 -9.5 -1.4 -9.5 -1.3 -9.55 -1.1 -9.6 -0.75 -9.7 -0.3 -9.8 0.1 -9.85 0.1 -9.95 M0.25 -8.75 L0.3 -8.8 0.2 -8.85 0.15 -8.95 0.15 -9.0 0.25 -9.0 0.35 -9.0 0.4 -8.95 0.45 -8.9 0.45 -8.85 0.5 -8.8 0.5 -8.75 0.6 -8.75 0.65 -8.85 0.6 -8.9 0.55 -8.85 0.5 -8.9 0.5 -8.95 0.4 -9.05 0.4 -9.05 0.3 -9.05 0.25 -9.05 0.2 -9.05 0.25 -9.1 0.25 -9.2 0.3 -9.3 0.3 -9.35 0.35 -9.4 0.35 -9.4 0.45 -9.4 Q0.45 -9.4 0.5 -9.4 L0.5 -9.45 0.55 -9.5 0.5 -9.55 0.45 -9.55 0.4 -9.55 0.35 -9.6 0.3 -9.6 0.2 -9.55 Q0.15 -9.5 0.15 -9.5 L0.05 -9.5 Q0.0 -9.5 0.0 -9.55 L0.0 -9.6 -0.25 -9.6 -0.3 -9.65 -0.4 -9.7 -0.55 -9.6 -0.65 -9.55 -0.7 -9.5 -0.75 -9.55 -0.8 -9.6 -0.9 -9.55 -1.05 -9.55 -1.1 -9.55 -1.15 -9.45 Q-1.2 -9.4 -1.25 -9.45 L-1.35 -9.4 -1.4 -9.35 -1.35 -9.3 Q-1.3 -9.3 -1.3 -9.3 -1.25 -9.35 -1.25 -9.35 L-1.2 -9.3 -1.2 -9.3 -1.15 -9.25 -1.05 -9.35 Q-0.95 -9.35 -0.95 -9.3 L-1.0 -9.25 -1.0 -9.2 -0.9 -9.2 -0.85 -9.15 -0.8 -9.2 -0.75 -9.15 -0.75 -9.15 -0.8 -9.1 -0.8 -9.1 -0.75 -9.0 -0.7 -8.95 -0.65 -8.9 -0.6 -8.9 -0.55 -8.9 -0.55 -8.85 -0.5 -8.8 -0.5 -8.7 -0.45 -8.65 -0.45 -8.65 -0.5 -8.6 -0.5 -8.55 -0.45 -8.55 Q-0.4 -8.55 -0.4 -8.5 L-0.45 -8.45 Q-0.45 -8.45 -0.5 -8.45 L-0.4 -8.4 -0.3 -8.45 Q-0.3 -8.45 -0.25 -8.45 L-0.25 -8.45 -0.2 -8.5 -0.15 -8.5 -0.05 -8.5 0.0 -8.5 0.15 -8.55 0.25 -8.5 0.25 -8.5 0.3 -8.45 0.35 -8.5 0.4 -8.55 0.4 -8.65 0.35 -8.65 0.35 -8.7 0.35 -8.7 0.3 -8.7 0.25 -8.75 0.25 -8.75 M-1.4 -9.35 L-1.4 -9.35 -1.45 -9.35 -1.4 -9.35" fill="#fdfdfd" fill-rule="evenodd" stroke="none"/>
    <path d="M-0.75 -9.15 L-0.8 -9.2 -0.85 -9.15 -0.9 -9.2 -1.0 -9.2 -1.0 -9.25 -0.95 -9.3 Q-0.95 -9.35 -1.05 -9.35 L-1.15 -9.25 -1.2 -9.3 -1.2 -9.3 -1.25 -9.35 Q-1.25 -9.35 -1.3 -9.3 -1.3 -9.3 -1.35 -9.3 L-1.4 -9.35 -1.35 -9.4 -1.25 -9.45 Q-1.2 -9.4 -1.15 -9.45 L-1.1 -9.55 -1.05 -9.55 -0.9 -9.55 -0.8 -9.6 -0.75 -9.55 -0.7 -9.5 -0.65 -9.55 -0.55 -9.6 -0.4 -9.7 -0.3 -9.65 -0.25 -9.6 0.0 -9.6 0.0 -9.55 Q0.0 -9.5 0.05 -9.5 L0.15 -9.5 Q0.15 -9.5 0.2 -9.55 L0.3 -9.6 0.35 -9.6 0.4 -9.55 0.45 -9.55 0.5 -9.55 0.55 -9.5 0.5 -9.45 0.5 -9.4 Q0.45 -9.4 0.45 -9.4 L0.35 -9.4 0.35 -9.4 0.3 -9.35 0.3 -9.3 0.25 -9.2 0.25 -9.1 0.2 -9.05 0.25 -9.05 0.3 -9.05 0.4 -9.05 0.4 -9.05 0.5 -8.95 0.5 -8.9 0.55 -8.85 0.6 -8.9 0.65 -8.85 0.6 -8.75 0.5 -8.75 0.5 -8.8 0.45 -8.85 0.45 -8.9 0.4 -8.95 0.35 -9.0 0.25 -9.0 0.15 -9.0 0.15 -8.95 0.2 -8.85 0.3 -8.8 0.25 -8.75 0.2 -8.75 0.2 -8.7 0.15 -8.7 0.1 -8.65 0.05 -8.7 0.05 -8.75 0.0 -8.8 -0.05 -8.7 -0.05 -8.7 -0.1 -8.7 -0.15 -8.7 -0.15 -8.7 -0.15 -8.8 -0.2 -8.85 -0.25 -8.85 -0.3 -8.85 Q-0.35 -8.8 -0.35 -8.8 L-0.4 -8.85 -0.35 -8.85 -0.4 -8.9 -0.4 -8.95 -0.4 -9.05 -0.35 -9.1 -0.3 -9.15 -0.3 -9.2 -0.25 -9.2 -0.25 -9.15 -0.2 -9.2 -0.2 -9.25 -0.1 -9.3 -0.05 -9.35 -0.1 -9.35 -0.15 -9.35 -0.25 -9.3 -0.3 -9.35 -0.35 -9.35 -0.35 -9.3 -0.4 -9.25 -0.55 -9.3 -0.55 -9.3 -0.5 -9.25 -0.5 -9.25 -0.55 -9.25 -0.6 -9.25 -0.55 -9.2 Q-0.55 -9.15 -0.6 -9.1 L-0.65 -9.1 -0.65 -9.2 -0.7 -9.25 -0.75 -9.15 M0.35 -8.7 L0.35 -8.65 0.4 -8.65 0.4 -8.55 0.35 -8.5 0.3 -8.45 0.25 -8.5 0.25 -8.5 0.15 -8.55 0.0 -8.5 -0.05 -8.5 -0.05 -8.55 0.0 -8.65 0.05 -8.65 0.1 -8.65 0.1 -8.65 0.15 -8.55 0.2 -8.6 0.25 -8.65 0.25 -8.7 0.3 -8.7 0.35 -8.7" fill="#cbd9e6" fill-rule="evenodd" stroke="none"/>
    <path d="M0.85 -8.35 L0.85 -8.3 0.75 -8.25 0.75 -8.25 0.75 -8.2 0.7 -8.25 0.65 -8.3 -0.1 -8.25 -0.35 -8.25 -0.5 -8.25 -0.85 -8.25 -0.85 -8.3 -0.7 -8.3 -0.35 -8.3 0.15 -8.3 0.35 -8.3 0.85 -8.35 M-0.75 -9.15 L-0.7 -9.25 -0.65 -9.2 -0.65 -9.1 -0.6 -9.1 Q-0.55 -9.15 -0.55 -9.2 L-0.6 -9.25 -0.55 -9.25 -0.5 -9.25 -0.5 -9.25 -0.55 -9.3 -0.55 -9.3 -0.4 -9.25 -0.35 -9.3 -0.35 -9.35 -0.3 -9.35 -0.25 -9.3 -0.15 -9.35 -0.1 -9.35 -0.05 -9.35 -0.1 -9.3 -0.2 -9.25 -0.2 -9.2 -0.25 -9.15 -0.25 -9.2 -0.3 -9.2 -0.3 -9.15 -0.35 -9.1 -0.4 -9.05 -0.4 -8.95 -0.4 -8.9 -0.35 -8.85 -0.4 -8.85 -0.35 -8.8 Q-0.35 -8.8 -0.3 -8.85 L-0.25 -8.85 -0.2 -8.85 -0.15 -8.8 -0.15 -8.7 -0.15 -8.7 -0.1 -8.7 -0.05 -8.7 -0.05 -8.7 0.0 -8.8 0.05 -8.75 0.05 -8.7 0.1 -8.65 0.15 -8.7 0.2 -8.7 0.2 -8.75 0.25 -8.75 0.25 -8.75 0.3 -8.7 0.35 -8.7 0.35 -8.7 0.3 -8.7 0.25 -8.7 0.25 -8.65 0.2 -8.6 0.15 -8.55 0.1 -8.65 0.1 -8.65 0.05 -8.65 0.0 -8.65 -0.05 -8.55 -0.05 -8.5 -0.15 -8.5 -0.2 -8.5 -0.25 -8.45 -0.25 -8.45 Q-0.3 -8.45 -0.3 -8.45 L-0.4 -8.4 -0.5 -8.45 Q-0.45 -8.45 -0.45 -8.45 L-0.4 -8.5 Q-0.4 -8.55 -0.45 -8.55 L-0.5 -8.55 -0.5 -8.6 -0.45 -8.65 -0.45 -8.65 -0.5 -8.7 -0.5 -8.8 -0.55 -8.85 -0.55 -8.9 -0.6 -8.9 -0.65 -8.9 -0.7 -8.95 -0.75 -9.0 -0.8 -9.1 -0.8 -9.1 -0.75 -9.15 -0.75 -9.15 M-0.65 -8.2 L-0.65 -8.2 -0.6 -8.2 -0.35 -8.2 0.1 -8.2 0.2 -8.2 0.3 -8.25 0.45 -8.25 0.45 -8.25 0.7 -8.25 0.4 -8.2 0.3 -8.2 -0.1 -8.2 -0.35 -8.2 -0.5 -8.15 -0.65 -8.15 -0.65 -8.2" fill="#576a79" fill-rule="evenodd" stroke="none"/>
    <path d="M-0.85 -8.25 L-0.5 -8.25 -0.35 -8.25 -0.1 -8.25 0.65 -8.3 0.7 -8.25 0.45 -8.25 0.45 -8.25 0.3 -8.25 0.2 -8.2 0.1 -8.2 -0.35 -8.2 -0.6 -8.2 -0.65 -8.2 -0.65 -8.2 -0.7 -8.2 -0.8 -8.2 -0.85 -8.2 -0.85 -8.25 M-0.65 -8.15 L-0.5 -8.15 -0.35 -8.2 -0.1 -8.2 0.3 -8.2 0.4 -8.2 0.25 -8.0 0.35 -7.95 0.3 -7.9 0.25 -7.9 0.15 -7.85 0.15 -7.75 0.1 -7.75 -0.05 -7.75 -0.05 -7.9 -0.15 -8.0 -0.2 -7.95 -0.2 -7.9 -0.25 -7.95 -0.3 -7.9 -0.4 -7.85 -0.4 -7.85 -0.4 -7.95 -0.45 -8.0 -0.45 -8.05 -0.5 -8.1 -0.6 -8.15 -0.6 -8.15 -0.65 -8.15 M-0.4 -7.8 L-0.3 -7.75 -0.4 -7.75 -0.4 -7.8 -0.4 -7.8" fill="#d9e3ec" fill-rule="evenodd" stroke="none"/>
    <path d="M0.7 -8.1 L0.7 -8.15 0.75 -8.0 0.75 -7.9 0.75 -7.8 0.8 -7.8 0.85 -7.5 0.9 -7.3 0.9 -7.25 0.95 -7.1 Q0.95 -7.0 1.0 -7.0 L1.0 -7.05 0.95 -7.35 0.85 -7.65 0.85 -7.8 0.8 -7.95 0.8 -8.0 0.75 -8.2 0.75 -8.15 0.75 -8.2 0.8 -8.2 0.85 -8.0 0.85 -7.8 0.9 -7.55 0.95 -7.3 0.95 -7.3 1.0 -7.1 1.0 -8.25 1.05 -8.3 1.05 -8.3 1.05 -7.5 1.05 -7.0 1.1 -6.9 1.05 -7.45 1.1 -8.15 1.1 -8.3 1.1 -8.3 1.1 -8.1 1.1 -7.35 1.1 -7.2 1.1 -7.2 1.15 -6.95 1.15 -7.0 1.3 -7.1 1.45 -7.1 1.45 -7.05 1.45 -7.0 1.4 -7.0 1.4 -7.0 1.35 -7.0 1.3 -7.0 1.2 -6.9 1.15 -6.8 1.1 -6.75 1.05 -6.75 1.0 -6.8 0.95 -6.85 0.95 -6.85 0.85 -6.95 0.75 -7.0 0.65 -7.0 0.55 -7.0 0.5 -6.95 0.35 -6.75 0.3 -6.7 0.25 -6.7 0.25 -6.8 0.25 -6.8 0.3 -6.85 0.4 -6.95 0.4 -6.95 0.5 -7.05 0.65 -7.05 0.7 -7.05 0.8 -7.05 0.8 -7.05 0.9 -7.0 0.9 -7.15 0.85 -7.3 0.85 -7.45 0.8 -7.65 0.8 -7.7 0.75 -7.8 0.75 -7.85 0.75 -7.9 0.75 -7.95 0.7 -8.0 0.7 -8.1 M0.2 -6.75 L0.2 -6.65 0.25 -6.65 0.25 -6.6 0.2 -6.6 0.1 -6.65 0.0 -6.6 -0.05 -6.6 -0.1 -6.6 -0.1 -6.6 -0.05 -6.6 0.0 -6.6 0.15 -6.55 0.25 -6.55 0.25 -6.5 0.25 -6.5 0.3 -6.45 0.25 -6.4 0.25 -5.7 0.25 -5.35 0.25 -5.3 0.25 -5.35 0.2 -5.45 0.2 -5.55 0.2 -5.85 0.2 -6.1 0.15 -6.25 0.2 -6.35 0.15 -6.45 0.15 -6.5 0.25 -6.5 0.2 -6.5 0.15 -6.55 0.0 -6.6 -0.1 -6.55 -0.15 -6.55 -0.1 -6.5 -0.05 -6.5 0.05 -6.5 -0.05 -6.5 -0.05 -6.5 -0.15 -6.45 -0.15 -6.45 -0.05 -6.45 0.05 -6.45 0.1 -6.45 0.05 -6.45 -0.05 -6.4 -0.05 -6.4 -0.1 -6.4 -0.15 -6.3 -0.1 -6.05 -0.1 -5.8 -0.1 -5.35 -0.1 -5.35 -0.05 -5.35 -0.05 -5.35 0.05 -5.3 0.1 -5.3 0.1 -5.3 0.25 -5.3 0.25 -5.3 0.1 -5.3 -0.05 -5.3 -0.1 -5.3 -0.05 -5.3 0.0 -5.3 0.1 -5.3 0.2 -5.25 0.25 -5.25 0.3 -5.25 0.25 -5.25 0.15 -5.25 0.1 -5.25 0.0 -5.25 -0.05 -5.25 -0.1 -5.25 -0.1 -5.2 -0.1 -5.2 -0.2 -5.15 -0.25 -5.15 -0.25 -5.2 -0.25 -5.2 -0.25 -5.25 -0.2 -5.65 -0.2 -5.8 -0.2 -6.0 -0.15 -6.25 -0.15 -6.3 -0.2 -6.35 -0.25 -6.5 -0.15 -6.65 Q-0.15 -6.7 -0.2 -6.7 L-0.2 -6.7 -0.3 -6.75 -0.45 -6.95 -0.5 -7.0 -0.6 -7.0 -0.7 -7.0 -0.8 -6.95 -0.9 -6.85 -0.9 -6.85 -0.95 -6.8 Q-0.95 -6.75 -1.0 -6.75 L-1.05 -6.75 -1.1 -6.8 -1.15 -6.9 -1.25 -7.0 -1.3 -7.0 -1.35 -7.0 -1.35 -7.0 -1.4 -7.0 -1.4 -7.05 -1.4 -7.1 -1.25 -7.1 -1.1 -7.0 -1.1 -6.95 -1.05 -7.2 -1.05 -7.3 -1.05 -7.5 -1.05 -8.1 -1.05 -8.3 -1.05 -8.15 -1.0 -7.45 -1.05 -6.9 -1.0 -7.0 -1.0 -7.5 Q-1.0 -7.7 -1.0 -7.8 L-1.0 -8.3 -1.0 -8.3 -0.95 -8.25 -0.95 -7.1 -0.9 -7.3 -0.9 -7.3 -0.85 -7.55 -0.8 -7.8 -0.8 -8.0 -0.75 -8.2 -0.7 -8.2 -0.7 -8.15 -0.7 -8.2 -0.75 -8.0 -0.8 -7.8 -0.8 -7.65 -0.9 -7.35 -0.95 -7.05 -0.95 -7.0 Q-0.9 -7.0 -0.9 -7.1 L-0.85 -7.25 -0.85 -7.3 -0.8 -7.5 -0.75 -7.8 -0.7 -7.8 -0.7 -8.0 -0.65 -8.15 -0.65 -8.1 -0.65 -8.0 -0.7 -7.95 -0.7 -7.8 -0.75 -7.7 -0.75 -7.65 -0.8 -7.45 -0.8 -7.3 -0.85 -7.15 -0.85 -7.0 -0.75 -7.05 -0.75 -7.05 -0.65 -7.05 -0.6 -7.05 -0.45 -7.05 -0.35 -6.95 -0.35 -6.95 -0.25 -6.85 -0.2 -6.8 -0.2 -6.8 -0.15 -6.75 -0.15 -6.85 -0.1 -6.8 -0.1 -6.75 -0.1 -6.65 -0.05 -6.65 0.0 -6.65 0.1 -6.65 0.1 -6.7 0.1 -6.95 0.15 -7.0 0.2 -7.0 0.2 -6.75 M0.3 -5.25 L0.3 -5.25 M-1.05 -8.3 L-1.05 -8.3 M0.15 -7.0 L0.15 -7.0 M-0.65 -8.15 L-0.65 -8.15" fill="#0f0f0d" fill-rule="evenodd" stroke="none"/>
    <path d="M0.7 -8.25 L0.65 -8.2 0.65 -8.15 0.6 -8.1 0.55 -8.0 0.6 -7.9 0.6 -7.95 0.65 -8.0 0.65 -8.05 0.65 -8.05 0.7 -8.1 0.7 -8.0 0.75 -7.95 0.75 -7.9 0.7 -7.85 0.7 -7.75 0.65 -7.65 0.55 -7.6 0.55 -7.65 0.5 -7.7 0.55 -7.75 0.55 -7.75 0.45 -7.8 0.4 -7.75 Q0.4 -7.85 0.25 -7.85 L0.2 -7.8 0.2 -7.75 0.15 -7.75 0.15 -7.65 0.15 -7.25 0.15 -7.0 0.1 -7.05 0.1 -7.1 0.1 -7.6 0.1 -7.75 0.15 -7.75 0.15 -7.85 0.25 -7.9 0.3 -7.9 0.35 -7.95 0.25 -8.0 0.4 -8.2 0.7 -8.25 M0.25 -6.6 L0.25 -6.55 0.15 -6.55 0.0 -6.6 -0.05 -6.6 -0.1 -6.6 -0.1 -6.6 -0.05 -6.6 0.0 -6.6 0.1 -6.65 0.2 -6.6 0.25 -6.6 M0.15 -7.0 L0.15 -7.0 M0.0 -6.65 L-0.05 -6.65 -0.1 -6.8 -0.1 -7.05 -0.1 -7.15 -0.1 -7.2 -0.1 -7.65 -0.1 -7.75 -0.15 -7.75 -0.2 -7.9 -0.2 -7.95 -0.15 -8.0 -0.05 -7.9 -0.05 -7.75 -0.05 -7.7 -0.05 -7.25 0.0 -7.1 0.0 -6.65 M-0.05 -6.4 L-0.05 -6.4 -0.05 -6.25 -0.05 -6.15 -0.05 -5.95 0.0 -5.8 -0.05 -5.75 -0.05 -5.6 -0.05 -5.5 -0.05 -5.4 0.0 -5.4 0.0 -5.35 0.05 -5.35 0.05 -5.3 -0.05 -5.35 -0.05 -5.35 -0.05 -5.4 -0.1 -5.55 -0.05 -5.9 -0.05 -6.05 -0.1 -6.15 -0.1 -6.4 -0.05 -6.4 -0.05 -6.4" fill="#8aa0ae" fill-rule="evenodd" stroke="none"/>
    <path d="M0.7 -8.15 L0.7 -8.2 0.75 -8.2 0.8 -8.0 0.8 -7.95 0.85 -7.8 0.85 -7.65 0.95 -7.35 1.0 -7.05 1.0 -7.0 Q0.95 -7.0 0.95 -7.1 L0.9 -7.25 0.9 -7.3 0.85 -7.5 0.8 -7.8 0.75 -7.8 0.75 -7.9 0.75 -8.0 0.7 -8.15 M1.05 -8.3 L1.1 -8.3 1.1 -8.15 1.05 -7.45 1.1 -6.9 1.05 -7.0 1.05 -7.5 1.05 -8.3 M-1.05 -8.3 L-1.0 -8.3 -1.0 -7.8 Q-1.0 -7.7 -1.0 -7.5 L-1.0 -7.0 -1.05 -6.9 -1.0 -7.45 -1.05 -8.15 -1.05 -8.3 M-0.7 -8.2 L-0.65 -8.2 -0.65 -8.15 -0.7 -8.0 -0.7 -7.8 -0.75 -7.8 -0.8 -7.5 -0.85 -7.3 -0.85 -7.25 -0.9 -7.1 Q-0.9 -7.0 -0.95 -7.0 L-0.95 -7.05 -0.9 -7.35 -0.8 -7.65 -0.8 -7.8 -0.75 -8.0 -0.7 -8.2 -0.7 -8.2" fill="#dfe8f1" fill-rule="evenodd" stroke="none"/>
    <path d="M0.8 -8.2 L0.8 -8.2 0.85 -8.2 0.9 -8.2 0.9 -8.25 1.0 -8.25 1.0 -8.25 1.0 -7.1 0.95 -7.3 0.95 -7.3 0.9 -7.55 0.85 -7.8 0.85 -8.0 0.8 -8.2 M-0.95 -8.25 L-0.95 -8.25 -0.85 -8.25 -0.85 -8.2 -0.8 -8.2 -0.75 -8.2 -0.75 -8.2 -0.8 -8.0 -0.8 -7.8 -0.85 -7.55 -0.9 -7.3 -0.9 -7.3 -0.95 -7.1 -0.95 -8.25" fill="#c8d8e5" fill-rule="evenodd" stroke="none"/>
    <path d="M0.4 -7.75 L0.45 -7.8 0.55 -7.75 0.55 -7.75 0.5 -7.7 0.5 -7.65 0.55 -7.6 0.5 -7.55 Q0.45 -7.55 0.35 -7.4 0.3 -7.25 0.3 -7.15 L0.3 -7.0 0.2 -6.95 0.2 -7.0 0.15 -7.0 0.15 -7.25 0.15 -7.65 0.15 -7.65 0.2 -7.55 0.2 -7.5 0.25 -7.4 0.25 -7.4 0.4 -7.75 0.4 -7.75" fill="#1c4056" fill-rule="evenodd" stroke="none"/>
    <path d="M0.4 -7.75 L0.4 -7.75 0.25 -7.4 0.25 -7.4 0.2 -7.5 0.2 -7.55 0.15 -7.65 0.15 -7.65 0.15 -7.75 0.2 -7.75 0.2 -7.8 0.25 -7.85 Q0.4 -7.85 0.4 -7.75 M-0.2 -7.9 L-0.15 -7.75 -0.1 -7.75 -0.1 -7.65 -0.1 -7.2 -0.1 -7.15 -0.15 -7.15 -0.15 -7.15 -0.15 -7.35 -0.2 -7.5 -0.2 -7.6 -0.3 -7.75 -0.4 -7.8 -0.5 -7.9 -0.5 -7.9 -0.4 -7.85 -0.4 -7.85 -0.3 -7.9 -0.25 -7.95 -0.2 -7.9" fill="#1b2934" fill-rule="evenodd" stroke="none"/>
    <path d="M0.1 -7.75 L0.1 -7.6 0.1 -7.1 0.1 -7.05 0.15 -7.0 0.1 -6.95 0.1 -6.7 0.1 -6.65 0.0 -6.65 0.0 -7.1 -0.05 -7.25 -0.05 -7.7 -0.05 -7.75 0.1 -7.75" fill="#d8e2ec" fill-rule="evenodd" stroke="none"/>
    <path d="M0.25 -6.8 L0.2 -6.75 0.2 -7.0 0.2 -6.95 0.3 -7.0 0.3 -7.15 Q0.3 -7.25 0.35 -7.4 0.45 -7.55 0.5 -7.55 L0.55 -7.6 0.5 -7.65 0.5 -7.7 0.55 -7.65 0.55 -7.6 0.65 -7.65 0.7 -7.75 0.7 -7.85 0.75 -7.9 0.75 -7.85 0.75 -7.8 0.8 -7.7 0.8 -7.65 0.85 -7.45 0.85 -7.3 0.9 -7.15 0.9 -7.0 0.8 -7.05 0.8 -7.05 0.7 -7.05 0.65 -7.05 0.5 -7.05 0.4 -6.95 0.4 -6.95 0.3 -6.85 0.25 -6.8 0.25 -6.8 M-0.15 -6.85 L-0.15 -6.75 -0.2 -6.8 -0.2 -6.8 -0.25 -6.85 -0.35 -6.95 -0.35 -6.95 -0.45 -7.05 -0.6 -7.05 -0.65 -7.05 -0.75 -7.05 -0.75 -7.05 -0.85 -7.0 -0.85 -7.15 -0.8 -7.3 -0.8 -7.45 -0.75 -7.65 -0.75 -7.7 -0.7 -7.8 -0.7 -7.95 -0.65 -8.0 -0.65 -8.1 -0.6 -8.05 -0.6 -8.0 -0.55 -7.95 -0.55 -7.95 -0.5 -7.9 -0.5 -7.9 -0.5 -7.9 -0.4 -7.8 -0.4 -7.8 -0.4 -7.75 -0.3 -7.75 -0.2 -7.6 -0.2 -7.5 -0.15 -7.35 -0.15 -7.15 -0.15 -6.85" fill="#c4d0dc" fill-rule="evenodd" stroke="none"/>
    <path d="M1.1 -8.3 L1.2 -8.2 1.2 -8.15 1.35 -8.05 1.35 -8.0 1.4 -8.0 1.4 -7.95 1.45 -7.9 1.45 -7.9 1.5 -7.9 1.5 -7.85 1.8 -7.65 1.95 -7.5 1.95 -7.45 2.05 -7.3 2.1 -7.1 2.05 -7.0 2.05 -7.0 2.0 -7.05 1.95 -7.1 1.95 -7.15 1.95 -7.2 1.95 -7.2 1.95 -7.3 1.85 -7.4 1.8 -7.5 1.8 -7.55 1.7 -7.65 1.4 -7.9 1.25 -8.05 1.1 -8.1 1.1 -8.3 M-2.0 -7.0 L-2.05 -7.1 -2.0 -7.3 -1.9 -7.45 -1.85 -7.5 -1.75 -7.65 -1.55 -7.75 -1.45 -7.85 -1.45 -7.9 -1.4 -7.9 -1.4 -7.9 -1.35 -7.95 -1.35 -8.0 -1.3 -8.0 -1.3 -8.05 -1.15 -8.15 -1.15 -8.2 -1.05 -8.3 -1.05 -8.1 -1.2 -8.05 -1.35 -7.9 -1.65 -7.65 -1.75 -7.55 -1.75 -7.5 -1.8 -7.4 -1.9 -7.3 -1.9 -7.2 -1.9 -7.15 Q-1.9 -7.1 -1.9 -7.1 L-1.95 -7.05 -2.0 -7.0 -2.0 -7.0" fill="#5e7682" fill-rule="evenodd" stroke="none"/>
    <path d="M1.3 -7.85 L1.3 -7.8 1.35 -7.8 1.35 -7.8 1.4 -7.8 1.4 -7.75 1.45 -7.75 1.45 -7.75 1.45 -7.65 1.5 -7.7 1.55 -7.7 1.55 -7.7 1.6 -7.65 1.6 -7.6 1.65 -7.6 1.7 -7.55 1.7 -7.5 1.75 -7.45 1.75 -7.4 Q1.7 -7.4 1.7 -7.35 L1.7 -7.35 1.75 -7.35 1.75 -7.35 1.8 -7.3 1.8 -7.3 1.75 -7.25 1.8 -7.2 1.8 -7.2 1.9 -7.15 1.85 -7.15 1.85 -7.15 1.8 -7.1 1.8 -7.1 1.85 -7.05 1.9 -7.0 1.85 -7.0 1.85 -6.95 1.8 -6.95 1.8 -6.9 1.7 -7.0 1.6 -7.1 1.4 -7.15 1.25 -7.15 1.2 -7.15 1.2 -7.85 1.25 -7.45 1.25 -7.4 Q1.25 -7.3 1.3 -7.3 L1.3 -7.35 1.3 -7.4 1.35 -7.4 1.35 -7.45 1.3 -7.5 1.3 -7.5 1.3 -7.6 1.35 -7.6 1.35 -7.6 1.3 -7.65 1.35 -7.7 Q1.3 -7.7 1.3 -7.75 L1.3 -7.85 M-1.55 -7.6 L-1.55 -7.65 -1.5 -7.7 -1.5 -7.7 -1.45 -7.7 -1.4 -7.65 -1.4 -7.75 -1.4 -7.75 -1.35 -7.75 -1.35 -7.8 -1.3 -7.8 -1.3 -7.8 -1.25 -7.8 -1.25 -7.75 Q-1.25 -7.7 -1.3 -7.7 L-1.25 -7.65 -1.3 -7.6 -1.3 -7.6 -1.25 -7.6 -1.25 -7.5 -1.25 -7.5 -1.3 -7.45 -1.3 -7.4 -1.25 -7.4 -1.25 -7.35 -1.25 -7.3 Q-1.2 -7.3 -1.2 -7.4 L-1.2 -7.45 -1.15 -7.85 -1.15 -7.15 -1.2 -7.15 -1.35 -7.15 -1.5 -7.1 -1.65 -7.0 -1.75 -6.9 Q-1.75 -6.9 -1.75 -6.95 L-1.8 -6.95 -1.8 -7.0 -1.8 -7.05 -1.75 -7.1 -1.75 -7.15 -1.8 -7.15 -1.8 -7.15 -1.75 -7.2 -1.75 -7.2 -1.7 -7.25 -1.7 -7.3 -1.75 -7.3 -1.7 -7.35 -1.7 -7.35 -1.65 -7.35 -1.65 -7.35 Q-1.65 -7.4 -1.7 -7.4 L-1.7 -7.45 -1.65 -7.45 -1.65 -7.5 -1.6 -7.55 -1.6 -7.6 -1.55 -7.6" fill="#8faabd" fill-rule="evenodd" stroke="none"/>
    <path d="M1.7 -6.65 L1.7 -6.85 1.6 -6.9 1.65 -6.95 1.6 -7.05 1.45 -7.1 1.45 -7.05 1.45 -7.1 1.3 -7.1 1.15 -7.0 1.15 -6.95 1.1 -7.2 1.1 -7.2 1.1 -7.35 1.1 -8.1 1.25 -8.05 1.4 -7.9 1.7 -7.65 1.8 -7.55 1.8 -7.5 1.85 -7.4 1.95 -7.3 1.95 -7.2 1.95 -7.2 1.95 -7.15 1.9 -7.0 1.9 -6.85 1.8 -6.75 1.8 -6.7 1.7 -6.65 1.7 -6.65 M-1.4 -7.05 L-1.4 -7.1 -1.5 -7.05 -1.6 -6.95 -1.55 -6.9 -1.65 -6.85 -1.65 -6.65 -1.65 -6.65 -1.75 -6.7 -1.75 -6.75 -1.8 -6.85 -1.85 -7.0 -1.9 -7.15 -1.9 -7.2 -1.9 -7.3 -1.8 -7.4 -1.75 -7.5 -1.75 -7.55 -1.65 -7.65 -1.35 -7.9 -1.2 -8.05 -1.05 -8.1 -1.05 -7.5 -1.05 -7.3 -1.05 -7.2 -1.1 -6.95 -1.1 -7.0 -1.25 -7.1 -1.4 -7.1 -1.4 -7.05 M1.3 -7.85 L1.3 -7.75 Q1.3 -7.7 1.35 -7.7 L1.3 -7.65 1.35 -7.6 1.35 -7.6 1.3 -7.6 1.3 -7.5 1.3 -7.5 1.35 -7.45 1.35 -7.4 1.3 -7.4 1.3 -7.35 1.3 -7.3 Q1.25 -7.3 1.25 -7.4 L1.25 -7.45 1.2 -7.85 1.2 -7.15 1.25 -7.15 1.4 -7.15 1.6 -7.1 1.7 -7.0 1.8 -6.9 1.8 -6.95 1.85 -6.95 1.85 -7.0 1.9 -7.0 1.85 -7.05 1.8 -7.1 1.8 -7.1 1.85 -7.15 1.85 -7.15 1.9 -7.15 1.8 -7.2 1.8 -7.2 1.75 -7.25 1.8 -7.3 1.8 -7.3 1.75 -7.35 1.75 -7.35 1.7 -7.35 1.7 -7.35 Q1.7 -7.4 1.75 -7.4 L1.75 -7.45 1.7 -7.5 1.7 -7.55 1.65 -7.6 1.6 -7.6 1.6 -7.65 1.55 -7.7 1.55 -7.7 1.5 -7.7 1.45 -7.65 1.45 -7.75 1.45 -7.75 1.4 -7.75 1.4 -7.8 1.35 -7.8 1.35 -7.8 1.3 -7.8 1.3 -7.85 M-1.55 -7.6 L-1.6 -7.6 -1.6 -7.55 -1.65 -7.5 -1.65 -7.45 -1.7 -7.45 -1.7 -7.4 Q-1.65 -7.4 -1.65 -7.35 L-1.65 -7.35 -1.7 -7.35 -1.7 -7.35 -1.75 -7.3 -1.7 -7.3 -1.7 -7.25 -1.75 -7.2 -1.75 -7.2 -1.8 -7.15 -1.8 -7.15 -1.75 -7.15 -1.75 -7.1 -1.8 -7.05 -1.8 -7.0 -1.8 -6.95 -1.75 -6.95 Q-1.75 -6.9 -1.75 -6.9 L-1.65 -7.0 -1.5 -7.1 -1.35 -7.15 -1.2 -7.15 -1.15 -7.15 -1.15 -7.85 -1.2 -7.45 -1.2 -7.4 Q-1.2 -7.3 -1.25 -7.3 L-1.25 -7.35 -1.25 -7.4 -1.3 -7.4 -1.3 -7.45 -1.25 -7.5 -1.25 -7.5 -1.25 -7.6 -1.3 -7.6 -1.3 -7.6 -1.25 -7.65 -1.3 -7.7 Q-1.25 -7.7 -1.25 -7.75 L-1.25 -7.8 -1.3 -7.8 -1.3 -7.8 -1.35 -7.8 -1.35 -7.75 -1.4 -7.75 -1.4 -7.75 -1.4 -7.65 -1.45 -7.7 -1.5 -7.7 -1.5 -7.7 -1.55 -7.65 -1.55 -7.6" fill="#fdfdfb" fill-rule="evenodd" stroke="none"/>
    <path d="M2.05 -7.0 L2.05 -6.9 1.95 -6.65 1.8 -6.5 Q1.7 -6.45 1.6 -6.45 L1.65 -6.55 1.7 -6.65 1.7 -6.65 1.8 -6.7 1.8 -6.75 1.9 -6.85 1.9 -7.0 1.95 -7.15 1.95 -7.1 2.0 -7.05 2.05 -7.0 2.05 -7.0 M-1.65 -6.65 L-1.6 -6.55 -1.55 -6.45 Q-1.65 -6.45 -1.75 -6.5 L-1.9 -6.65 -2.0 -6.9 -2.0 -7.0 -2.0 -7.0 -1.95 -7.05 -1.9 -7.1 Q-1.9 -7.1 -1.9 -7.15 L-1.85 -7.0 -1.8 -6.85 -1.75 -6.75 -1.75 -6.7 -1.65 -6.65 -1.65 -6.65" fill="#8aa1b3" fill-rule="evenodd" stroke="none"/>
    <path d="M0.25 -6.5 L0.25 -6.5 0.15 -6.5 0.15 -6.45 0.15 -6.4 0.1 -6.3 0.1 -6.25 0.15 -5.95 0.15 -5.7 0.1 -5.6 0.15 -5.5 0.15 -5.4 0.15 -5.35 0.1 -5.35 0.1 -5.3 0.1 -5.3 0.05 -5.3 0.05 -5.35 0.0 -5.35 0.0 -5.4 -0.05 -5.4 -0.05 -5.5 -0.05 -5.6 -0.05 -5.75 0.0 -5.8 -0.05 -5.95 -0.05 -6.15 -0.05 -6.25 -0.05 -6.4 -0.05 -6.4 0.05 -6.45 0.1 -6.45 0.05 -6.45 -0.05 -6.45 -0.15 -6.45 -0.15 -6.45 -0.05 -6.5 -0.05 -6.5 0.05 -6.5 -0.05 -6.5 -0.1 -6.5 -0.15 -6.55 -0.1 -6.55 0.0 -6.6 0.15 -6.55 0.2 -6.5 0.25 -6.5" fill="#d5dfe9" fill-rule="evenodd" stroke="none"/>
    <path d="M0.1 -5.3 L0.1 -5.35 0.15 -5.35 0.15 -5.4 0.15 -5.5 0.1 -5.6 0.15 -5.7 0.15 -5.95 0.1 -6.25 0.1 -6.3 0.15 -6.4 0.15 -6.45 0.2 -6.35 0.15 -6.25 0.2 -6.1 0.2 -5.85 0.2 -5.55 0.2 -5.45 0.25 -5.35 0.25 -5.3 0.1 -5.3 M-0.1 -6.4 L-0.1 -6.15 -0.05 -6.05 -0.05 -5.9 -0.1 -5.55 -0.05 -5.4 -0.05 -5.35 -0.1 -5.35 -0.1 -5.35 -0.1 -5.8 -0.1 -6.05 -0.15 -6.3 -0.1 -6.4" fill="#3c5f75" fill-rule="evenodd" stroke="none"/>
    <path d="M0.25 -5.3 L0.25 -5.3 0.3 -5.25 0.3 -5.15 0.3 -5.15 0.25 -5.2 0.2 -5.2 0.05 -5.2 -0.05 -5.2 -0.05 -5.2 -0.1 -5.2 -0.1 -5.2 -0.1 -5.25 -0.05 -5.25 0.0 -5.25 0.1 -5.25 0.15 -5.25 0.25 -5.25 0.3 -5.25 0.25 -5.25 0.2 -5.25 0.1 -5.3 0.0 -5.3 -0.05 -5.3 -0.1 -5.3 -0.05 -5.3 0.1 -5.3 0.25 -5.3 0.25 -5.3" fill="#bed3e4" fill-rule="evenodd" stroke="none"/>
    <path d="M0.3 -5.15 L0.3 -5.1 0.25 -5.1 0.2 -5.05 0.15 -5.05 0.15 -5.1 0.1 -5.15 0.05 -5.1 Q0.05 -5.05 0.0 -5.05 0.0 -5.05 -0.05 -5.1 L-0.1 -5.15 -0.15 -5.1 -0.15 -5.1 Q-0.2 -5.1 -0.2 -5.1 L-0.2 -5.15 -0.25 -5.15 -0.3 -5.05 -0.25 -5.2 -0.25 -5.15 -0.2 -5.15 -0.1 -5.2 -0.05 -5.2 -0.05 -5.2 0.05 -5.2 0.2 -5.2 0.25 -5.2 0.3 -5.15 M0.3 -4.9 L0.3 -4.8 0.15 -4.8 0.15 -4.8 -0.05 -4.8 -0.25 -4.8 -0.25 -4.85 -0.25 -4.85 -0.3 -4.9 -0.3 -5.05 -0.25 -5.05 -0.2 -5.05 -0.2 -5.0 -0.15 -5.0 -0.1 -5.0 -0.1 -5.05 -0.05 -5.0 0.05 -5.0 0.05 -5.0 0.1 -5.05 0.2 -5.0 Q0.2 -4.95 0.25 -4.95 L0.3 -4.95 0.3 -4.9" fill="#070300" fill-rule="evenodd" stroke="none"/>
    <path d="M0.3 -5.1 L0.3 -5.05 0.3 -4.95 0.25 -4.95 Q0.2 -4.95 0.2 -5.0 L0.1 -5.05 0.05 -5.0 0.05 -5.0 -0.05 -5.0 -0.1 -5.05 -0.1 -5.0 -0.15 -5.0 -0.2 -5.0 -0.2 -5.05 -0.25 -5.05 -0.3 -5.05 -0.25 -5.15 -0.2 -5.15 -0.2 -5.1 Q-0.2 -5.1 -0.15 -5.1 L-0.15 -5.1 -0.1 -5.15 -0.05 -5.1 Q0.0 -5.05 0.0 -5.05 0.05 -5.05 0.05 -5.1 L0.1 -5.15 0.15 -5.1 0.15 -5.05 0.2 -5.05 0.25 -5.1 0.3 -5.1 M-0.3 -5.05 L-0.3 -5.05" fill="#e5dddb" fill-rule="evenodd" stroke="none"/>
    <path d="M0.3 -4.8 L0.3 -4.8 0.35 -4.7 0.35 -4.6 0.35 -4.4 0.4 -4.1 0.4 -3.75 0.4 -3.75 0.35 -3.75 0.3 -3.75 0.3 -3.75 0.2 -3.8 0.2 -3.75 0.15 -3.8 0.1 -3.8 0.1 -3.85 0.15 -3.85 0.15 -3.9 0.15 -3.85 Q0.15 -3.9 0.15 -3.95 L0.1 -4.05 0.15 -4.1 Q0.15 -4.05 0.15 -4.05 L0.15 -4.3 0.15 -4.65 0.15 -4.8 0.3 -4.8 M0.25 2.4 L0.25 2.55 0.2 2.55 0.15 2.6 0.1 2.65 0.1 2.6 0.05 2.55 0.0 2.6 -0.05 2.6 -0.1 2.55 -0.15 2.55 -0.2 2.55 -0.2 2.6 -0.25 2.55 -0.25 2.4 -0.2 2.4 -0.15 2.4 -0.05 2.4 0.0 2.4 0.1 2.4 0.2 2.4 0.25 2.4 M-0.4 -3.75 L-0.4 -3.8 -0.4 -3.8 -0.45 -3.8 -0.45 -3.95 -0.4 -4.05 -0.35 -4.3 -0.35 -4.25 -0.3 -4.15 -0.3 -4.1 -0.3 -3.9 -0.35 -3.85 -0.4 -3.75" fill="#0c0c0c" fill-rule="evenodd" stroke="none"/>
    <path d="M-0.25 -4.8 L-0.05 -4.8 0.15 -4.8 0.15 -4.8 0.15 -4.65 0.15 -4.3 0.15 -4.05 Q0.15 -4.05 0.15 -4.1 L0.1 -4.05 0.15 -3.95 Q0.15 -3.9 0.15 -3.85 L0.15 -3.9 0.15 -3.85 0.1 -3.85 0.1 -3.8 0.1 -3.8 0.05 -3.8 0.05 -3.8 0.05 -4.2 0.0 -4.35 0.0 -4.3 -0.05 -4.15 -0.05 -4.1 Q-0.05 -4.0 -0.05 -3.95 L-0.1 -4.0 -0.1 -4.05 -0.15 -3.95 -0.15 -3.95 -0.2 -4.1 -0.25 -4.2 -0.25 -4.8 M-0.2 -4.5 L-0.15 -4.3 -0.15 -4.1 -0.15 -4.55 -0.2 -4.65 -0.2 -4.5" fill="#eaddcd" fill-rule="evenodd" stroke="none"/>
    <path d="M0.3 -3.75 L0.25 2.4 0.2 2.4 0.1 2.4 0.0 2.4 -0.05 2.4 -0.15 2.4 -0.2 2.4 -0.25 2.4 -0.25 -3.75 -0.2 -3.75 -0.2 -3.75 -0.15 -3.8 -0.1 -3.75 -0.05 -3.8 0.0 -3.8 0.0 -3.8 0.05 -3.8 0.05 -3.8 0.05 -3.8 0.1 -3.8 0.1 -3.8 0.15 -3.8 0.2 -3.75 0.2 -3.8 0.3 -3.75 M0.25 2.55 L0.2 10.7 0.25 10.7 0.25 10.8 0.2 10.95 0.25 11.05 0.2 11.1 0.15 11.2 0.1 11.45 0.1 11.6 0.05 11.8 0.05 11.95 -0.05 12.0 -0.15 11.95 -0.2 11.95 -0.2 11.8 -0.25 11.5 -0.3 11.3 -0.3 11.15 -0.35 11.05 -0.35 11.0 Q-0.35 10.95 -0.35 10.9 L-0.4 10.9 -0.35 10.85 -0.35 10.8 -0.4 10.7 -0.3 10.7 -0.3 10.7 -0.25 2.65 -0.25 2.65 -0.2 2.6 Q-0.2 2.6 -0.15 2.65 L-0.1 2.65 -0.05 2.65 0.0 2.7 0.05 2.7 0.1 2.7 0.15 2.7 0.2 2.7 0.25 2.65 0.25 2.55 M-0.2 10.95 L-0.25 11.0 -0.2 11.0 -0.15 11.0 -0.15 10.95 -0.15 10.95 -0.2 10.95 M-0.2 11.1 L-0.25 11.05 -0.2 11.1 -0.2 11.1 -0.15 11.1 -0.1 11.1 0.05 11.1 -0.1 11.05 -0.2 11.1" fill="#07080a" fill-rule="evenodd" stroke="none"/>
    <path d="M-0.25 -3.75 L-0.25 -3.75 -0.3 -3.75 -0.35 -3.75 -0.35 -3.75 -0.4 -3.75 -0.35 -3.85 -0.3 -3.9 -0.3 -4.1 -0.3 -4.15 -0.35 -4.25 -0.35 -4.3 -0.35 -4.3 -0.3 -4.5 -0.3 -4.75 -0.25 -4.85 -0.25 -4.8 -0.25 -4.2 -0.2 -4.1 -0.15 -3.95 -0.15 -3.95 -0.1 -4.05 -0.1 -4.0 -0.05 -3.95 Q-0.05 -4.0 -0.05 -4.1 L-0.05 -4.15 0.0 -4.3 0.0 -4.35 0.05 -4.2 0.05 -3.8 0.05 -3.8 0.0 -3.8 0.0 -3.8 -0.05 -3.8 -0.1 -3.75 -0.15 -3.8 -0.2 -3.75 -0.2 -3.75 -0.25 -3.75" fill="#c3bbb0" fill-rule="evenodd" stroke="none"/>
    <path d="M-1.0 -9.8 L-0.85 -9.85 -0.6 -9.9 -0.3 -9.95 -0.05 -9.95 0.1 -9.95 0.1 -9.85 -0.3 -9.8 -0.75 -9.7 -1.1 -9.6 -1.3 -9.55 -1.4 -9.5 -1.1 -9.7 Q-1.0 -9.7 -1.0 -9.75 L-1.0 -9.8" fill="#8fa6b6" fill-rule="evenodd" stroke="none"/>
    <path d="M-0.25 2.65 L-0.25 2.55 -0.2 2.6 -0.2 2.55 -0.15 2.55 -0.1 2.55 -0.05 2.6 0.0 2.6 0.05 2.55 0.1 2.6 0.1 2.65 0.15 2.6 0.2 2.55 0.25 2.55 0.25 2.65 0.2 2.7 0.15 2.7 0.1 2.7 0.05 2.7 0.0 2.7 -0.05 2.65 -0.1 2.65 -0.15 2.65 Q-0.2 2.6 -0.2 2.6 L-0.25 2.65 -0.25 2.65" fill="#d9d5c9" fill-rule="evenodd" stroke="none"/>
    <path d="M-1.75 -9.5 L-1.7 -9.55 -1.45 -9.65 -1.0 -9.8 -1.0 -9.75 Q-1.0 -9.7 -1.1 -9.7 L-1.4 -9.5 -1.45 -9.5 Q-1.55 -9.45 -1.6 -9.4 L-1.65 -9.4 -1.75 -9.5" fill="#507389" fill-rule="evenodd" stroke="none"/>
    <path d="M-0.85 -8.75 L-0.85 -8.75 -0.95 -8.85 -1.0 -8.9 -1.05 -8.9 -1.1 -8.95 -1.15 -9.0 -1.2 -9.0 -1.4 -9.1 -1.85 -9.2 -2.0 -9.25 -2.0 -9.2 -2.1 -9.2 -2.1 -9.25 -2.05 -9.3 -2.0 -9.35 -1.95 -9.4 -1.8 -9.45 -1.75 -9.5 -1.65 -9.4 -1.75 -9.35 -1.9 -9.3 Q-1.55 -9.25 -1.25 -9.1 L-1.2 -9.1 Q-0.9 -8.95 -0.85 -8.75 L-0.85 -8.75" fill="#476379" fill-rule="evenodd" stroke="none"/>
    <path d="M-0.05 -6.65 L-0.1 -6.65 -0.1 -6.75 -0.1 -6.8 -0.15 -6.85 -0.15 -7.15 -0.15 -7.15 -0.1 -7.15 -0.1 -7.05 -0.1 -6.8 -0.05 -6.65" fill="#566d7b" fill-rule="evenodd" stroke="none"/>
    <path d="M-0.2 -4.5 L-0.2 -4.65 -0.15 -4.55 -0.15 -4.1 -0.15 -4.3 -0.2 -4.5" fill="#534135" fill-rule="evenodd" stroke="none"/>
    <path d="M-0.2 10.95 L-0.15 10.95 -0.15 10.95 -0.15 11.0 -0.2 11.0 -0.25 11.0 -0.2 10.95" fill="#456769" fill-rule="evenodd" stroke="none"/>
    <path d="M-0.2 11.1 L-0.1 11.05 0.05 11.1 -0.1 11.1 -0.15 11.1 -0.2 11.1" fill="#7a7f83" fill-rule="evenodd" stroke="none"/>
    <path d="M0.1 -9.95 L1.1 -9.85 1.25 -9.8 1.25 -9.8 1.35 -9.8 1.4 -9.8 1.65 -9.7 1.8 -9.6 1.9 -9.5 1.95 -9.5 1.75 -9.45 1.7 -9.4 1.55 -9.35 1.45 -9.3 1.1 -9.0 1.0 -8.95 0.95 -8.9 0.85 -8.85 0.75 -8.7 0.75 -8.65 0.7 -8.6 0.75 -8.5 0.8 -8.45 0.85 -8.4 0.9 -8.35 0.9 -8.35 0.85 -8.35 0.85 -8.3 0.75 -8.25 0.75 -8.25 0.75 -8.2 0.7 -8.25 0.65 -8.2 0.65 -8.15 0.6 -8.1 0.55 -8.0 0.6 -7.9 0.6 -7.95 0.65 -8.0 0.65 -8.05 0.65 -8.05 0.7 -8.1 0.7 -8.15 0.7 -8.2 0.75 -8.2 0.75 -8.15 0.75 -8.2 0.8 -8.2 0.8 -8.2 0.85 -8.2 0.9 -8.2 0.9 -8.25 1.0 -8.25 1.0 -8.25 1.05 -8.3 1.05 -8.3 1.1 -8.3 1.1 -8.3 1.2 -8.2 1.2 -8.15 1.35 -8.05 1.35 -8.0 1.4 -8.0 1.4 -7.95 1.45 -7.9 1.45 -7.9 1.5 -7.9 1.5 -7.85 1.8 -7.65 1.95 -7.5 1.95 -7.45 2.05 -7.3 2.1 -7.1 2.05 -7.0 2.05 -6.9 1.95 -6.65 1.8 -6.5 Q1.7 -6.45 1.6 -6.45 L1.65 -6.55 1.7 -6.65 1.7 -6.85 1.6 -6.9 1.65 -6.95 1.6 -7.05 1.45 -7.1 1.45 -7.05 1.45 -7.0 1.4 -7.0 1.4 -7.0 1.35 -7.0 1.3 -7.0 1.2 -6.9 1.15 -6.8 1.1 -6.75 1.05 -6.75 1.0 -6.8 0.95 -6.85 0.95 -6.85 0.85 -6.95 0.75 -7.0 0.65 -7.0 0.55 -7.0 0.5 -6.95 0.35 -6.75 0.3 -6.7 0.25 -6.7 0.25 -6.8 0.2 -6.75 0.2 -6.65 0.25 -6.65 0.25 -6.6 0.25 -6.55 0.25 -6.5 0.25 -6.5 0.25 -6.5 0.3 -6.45 0.25 -6.4 0.25 -5.7 0.25 -5.35 0.25 -5.3 0.25 -5.3 0.3 -5.25 0.3 -5.25 0.3 -5.15 0.3 -5.15 0.3 -5.1 0.3 -5.05 0.3 -4.9 0.3 -4.8 0.3 -4.8 0.35 -4.7 0.35 -4.6 0.35 -4.4 0.4 -4.1 0.4 -3.75 0.4 -3.75 0.35 -3.75 0.3 -3.75 0.3 -3.75 0.25 2.4 M0.25 2.55 L0.2 10.7 0.25 10.7 0.25 10.8 0.2 10.95 0.25 11.05 0.2 11.1 0.15 11.2 0.1 11.45 0.1 11.6 0.05 11.8 0.05 11.95 -0.05 12.0 -0.15 11.95 -0.2 11.95 -0.2 11.8 -0.25 11.5 -0.3 11.3 -0.3 11.15 -0.35 11.05 -0.35 11.0 Q-0.35 10.95 -0.35 10.9 L-0.4 10.9 -0.35 10.85 -0.35 10.8 -0.4 10.7 -0.3 10.7 -0.3 10.7 -0.25 2.65 -0.25 2.55 -0.25 2.4 -0.25 -3.75 -0.25 -3.75 -0.3 -3.75 -0.35 -3.75 -0.35 -3.75 -0.4 -3.75 -0.4 -3.8 -0.4 -3.8 -0.45 -3.8 -0.45 -3.95 -0.4 -4.05 -0.35 -4.3 -0.35 -4.3 -0.3 -4.5 -0.3 -4.75 -0.25 -4.85 -0.25 -4.85 -0.3 -4.9 -0.3 -5.05 -0.3 -5.05 -0.25 -5.2 -0.25 -5.2 -0.25 -5.25 -0.2 -5.65 -0.2 -5.8 -0.2 -6.0 -0.15 -6.25 -0.15 -6.3 -0.2 -6.35 -0.25 -6.5 -0.15 -6.65 Q-0.15 -6.7 -0.2 -6.7 L-0.2 -6.7 -0.3 -6.75 -0.45 -6.95 -0.5 -7.0 -0.6 -7.0 -0.7 -7.0 -0.8 -6.95 -0.9 -6.85 -0.9 -6.85 -0.95 -6.8 Q-0.95 -6.75 -1.0 -6.75 L-1.05 -6.75 -1.1 -6.8 -1.15 -6.9 -1.25 -7.0 -1.3 -7.0 -1.35 -7.0 -1.35 -7.0 -1.4 -7.0 -1.4 -7.05 -1.4 -7.1 -1.5 -7.05 -1.6 -6.95 -1.55 -6.9 -1.65 -6.85 -1.65 -6.65 -1.6 -6.55 -1.55 -6.45 Q-1.65 -6.45 -1.75 -6.5 L-1.9 -6.65 -2.0 -6.9 -2.0 -7.0 -2.05 -7.1 -2.0 -7.3 -1.9 -7.45 -1.85 -7.5 -1.75 -7.65 -1.55 -7.75 -1.45 -7.85 -1.45 -7.9 -1.4 -7.9 -1.4 -7.9 -1.35 -7.95 -1.35 -8.0 -1.3 -8.0 -1.3 -8.05 -1.15 -8.15 -1.15 -8.2 -1.05 -8.3 -1.05 -8.3 -1.0 -8.3 -1.0 -8.3 -0.95 -8.25 -0.95 -8.25 -0.85 -8.25 -0.85 -8.3 -0.8 -8.3 -0.75 -8.35 -0.75 -8.4 -0.75 -8.5 Q-0.75 -8.5 -0.75 -8.55 L-0.75 -8.6 -0.8 -8.65 -0.8 -8.65 -0.85 -8.7 -0.85 -8.75 -0.85 -8.75 -0.95 -8.85 -1.0 -8.9 -1.05 -8.9 -1.1 -8.95 -1.15 -9.0 -1.2 -9.0 -1.4 -9.1 -1.85 -9.2 -2.0 -9.25 -2.0 -9.2 -2.1 -9.2 -2.1 -9.25 -2.05 -9.3 -2.0 -9.35 -1.95 -9.4 -1.8 -9.45 -1.75 -9.5 -1.7 -9.55 -1.45 -9.65 -1.0 -9.8 -0.85 -9.85 -0.6 -9.9 -0.3 -9.95 -0.05 -9.95 0.1 -9.95 M-0.65 -8.15 L-0.65 -8.15 -0.6 -8.15 -0.6 -8.15 -0.5 -8.1 -0.45 -8.05 -0.45 -8.0 -0.4 -7.95 -0.4 -7.85 -0.5 -7.9 -0.5 -7.9 -0.55 -7.95 -0.55 -7.95 -0.6 -8.0 -0.6 -8.05 -0.65 -8.15 Z" fill="none" stroke="#000000" stroke-linecap="round" stroke-linejoin="round" stroke-opacity="0.4509804" stroke-width="0.1"/>
  </g>
</svg>
