<?xml version="1.0" encoding="UTF-8" standalone="no"?>
<svg xmlns:xlink="http://www.w3.org/1999/xlink" height="1.5px" width="1.6px" xmlns="http://www.w3.org/2000/svg">
  <g transform="matrix(1.0, 0.0, 0.0, 1.0, 0.8, 0.75)">
    <path d="M0.5 0.05 L0.55 0.05 0.55 0.0 0.5 0.05 M0.05 -0.75 L0.15 -0.7 0.35 -0.65 0.4 -0.6 0.55 -0.45 0.55 -0.4 0.55 -0.3 0.65 -0.25 0.8 -0.05 0.8 0.0 0.75 0.05 0.75 0.1 0.6 0.3 0.5 0.4 0.5 0.45 0.3 0.5 Q0.25 0.45 0.2 0.3 L0.2 0.15 0.15 0.15 -0.05 0.0 -0.1 -0.1 -0.2 -0.15 -0.2 -0.2 -0.2 -0.05 -0.25 0.05 -0.3 0.15 -0.3 0.2 -0.25 0.2 -0.25 0.2 -0.15 0.2 -0.1 0.25 Q-0.05 0.3 -0.05 0.35 L0.0 0.3 0.05 0.35 0.1 0.4 0.15 0.45 0.15 0.5 0.2 0.5 0.25 0.45 0.3 0.5 0.3 0.65 0.2 0.7 0.1 0.75 0.0 0.7 -0.05 0.65 -0.2 0.65 -0.2 0.65 -0.25 0.6 -0.3 0.6 -0.4 0.6 -0.45 0.55 -0.5 0.55 -0.5 0.5 -0.65 0.55 -0.7 0.5 -0.8 0.4 Q-0.85 0.2 -0.8 0.15 L-0.7 0.05 -0.6 -0.05 -0.6 -0.4 Q-0.55 -0.5 -0.35 -0.55 L-0.3 -0.6 -0.15 -0.65 0.05 -0.75" fill="#d0bebe" fill-rule="evenodd" stroke="none"/>
  </g>
</svg>
