<?xml version="1.0" encoding="UTF-8" standalone="no"?>
<svg xmlns:xlink="http://www.w3.org/1999/xlink" height="4.6px" width="1.6px" xmlns="http://www.w3.org/2000/svg">
  <g transform="matrix(1.0, 0.0, 0.0, 1.0, 0.55, 2.45)">
    <path d="M-0.5 1.9 L-0.5 1.85 -0.5 1.9" fill="#fcd9b5" fill-rule="evenodd" stroke="none"/>
    <path d="M-0.05 2.1 L-0.1 2.15 Q-0.45 2.15 -0.5 1.9 L-0.5 1.85 -0.5 1.8 -0.45 1.75 -0.45 1.7 -0.45 1.7 -0.4 1.2 -0.4 1.15 -0.45 1.1 -0.4 1.0 -0.4 0.4 -0.35 0.3 -0.3 0.15 -0.25 -0.05 -0.25 -0.15 -0.25 -0.55 -0.25 -0.7 Q-0.25 -1.2 -0.15 -1.6 L-0.1 -1.75 -0.05 -1.8 0.0 -1.9 0.0 -1.95 0.15 -2.1 0.1 -1.85 0.05 -1.6 0.2 -1.45 0.4 -1.35 0.4 -0.95 0.3 -0.55 0.4 -0.05 0.4 -0.05 0.35 0.35 Q0.3 0.4 0.3 0.5 L0.35 0.65 0.3 0.9 0.25 1.15 0.2 1.65 0.2 1.85 0.1 2.0 Q0.05 2.1 -0.05 2.1 M0.05 -1.4 L0.0 -1.4 Q-0.05 -1.35 -0.1 -1.2 L-0.1 -1.0 -0.15 -0.85 -0.15 -0.75 -0.15 -0.1 -0.2 0.2 -0.35 0.65 Q-0.35 0.85 -0.2 1.1 L-0.05 1.05 Q0.05 1.05 0.05 1.0 L0.15 0.6 0.1 0.5 0.15 0.4 0.2 0.35 Q0.35 0.2 0.35 0.0 L0.35 -0.05 0.3 -0.05 0.25 -0.1 0.25 -0.3 0.2 -0.45 0.2 -0.7 0.2 -1.25 Q0.2 -1.4 0.05 -1.4" fill="#f1dddd" fill-rule="evenodd" stroke="none"/>
    <path d="M0.85 -2.1 L0.85 -2.1 0.9 -1.95 0.9 -1.9 1.0 -1.6 Q1.05 -1.0 0.95 -0.55 L0.95 -0.55 0.8 -0.1 0.65 0.35 0.65 0.4 0.6 0.55 0.6 0.75 0.55 0.95 0.5 1.2 0.45 1.4 0.4 1.5 0.4 1.7 0.35 1.95 0.35 2.0 0.2 2.1 0.0 2.1 -0.05 2.1 Q0.05 2.1 0.1 2.0 L0.2 1.85 0.2 1.65 0.25 1.15 0.3 0.9 0.35 0.65 0.3 0.5 Q0.3 0.4 0.35 0.35 L0.4 0.35 0.5 0.15 0.5 -0.05 0.55 -0.4 0.55 -0.4 0.5 -0.9 0.5 -1.05 0.55 -1.15 0.6 -1.3 0.65 -1.4 Q0.65 -1.55 0.75 -1.6 0.85 -1.65 0.85 -1.85 L0.85 -2.1 M-0.4 0.4 L-0.45 0.05 -0.45 -0.05 -0.5 -0.55 -0.5 -0.6 Q-0.5 -1.05 -0.25 -1.75 L-0.25 -1.8 -0.2 -1.85 Q-0.1 -2.15 0.0 -2.25 L0.1 -2.3 Q-0.15 -2.15 -0.15 -1.9 L-0.15 -1.85 -0.2 -1.65 -0.2 -1.55 -0.25 -1.15 -0.3 -0.8 -0.25 -0.7 -0.25 -0.55 -0.25 -0.15 -0.25 -0.05 -0.3 0.15 -0.35 0.3 -0.4 0.4" fill="#a88c8c" fill-rule="evenodd" stroke="none"/>
    <path d="M0.1 -2.3 L0.45 -2.4 0.6 -2.35 0.65 -2.25 0.7 -2.25 0.85 -2.15 0.85 -2.1 0.85 -1.85 Q0.85 -1.65 0.75 -1.6 0.65 -1.55 0.65 -1.4 L0.6 -1.3 0.55 -1.15 0.5 -1.05 0.5 -0.9 0.55 -0.4 0.55 -0.4 0.5 -0.05 0.5 0.15 0.4 0.35 0.35 0.35 0.4 -0.05 0.4 -0.05 0.3 -0.55 0.4 -0.95 0.4 -1.35 0.2 -1.45 0.05 -1.6 0.1 -1.85 0.15 -2.1 0.0 -1.95 0.0 -1.9 -0.05 -1.8 -0.1 -1.75 -0.15 -1.6 Q-0.25 -1.2 -0.25 -0.7 L-0.3 -0.8 -0.25 -1.15 -0.2 -1.55 -0.2 -1.65 -0.15 -1.85 -0.15 -1.9 Q-0.15 -2.15 0.1 -2.3" fill="#dabab8" fill-rule="evenodd" stroke="none"/>
    <path d="M0.05 -1.4 Q0.2 -1.4 0.2 -1.25 L0.2 -0.7 0.2 -0.45 0.25 -0.3 0.25 -0.1 0.3 -0.05 0.35 -0.05 0.35 0.0 Q0.35 0.2 0.2 0.35 L0.15 0.4 0.1 0.5 0.15 0.6 0.05 1.0 Q0.05 1.05 -0.05 1.05 L-0.2 1.1 Q-0.35 0.85 -0.35 0.65 L-0.2 0.2 -0.15 -0.1 -0.15 -0.75 -0.15 -0.85 -0.1 -1.0 -0.1 -1.2 Q-0.05 -1.35 0.0 -1.4 L0.05 -1.4" fill="#f9f6f6" fill-rule="evenodd" stroke="none"/>
    <path d="M0.85 -2.1 L0.85 -2.1 0.9 -1.95 0.9 -1.9 1.0 -1.6 Q1.05 -1.0 0.95 -0.55 L0.95 -0.55 0.8 -0.1 0.65 0.35 0.65 0.4 0.6 0.55 0.6 0.75 0.55 0.95 0.5 1.2 0.45 1.4 0.4 1.5 0.4 1.7 0.35 1.95 0.35 2.0 M-0.45 1.75 L-0.45 1.7 -0.45 1.7 -0.4 1.2 -0.4 1.15 -0.45 1.1 -0.4 1.0 -0.4 0.4 -0.45 0.05 -0.45 -0.05 -0.5 -0.55 -0.5 -0.6 Q-0.5 -1.05 -0.25 -1.75 L-0.25 -1.8 -0.2 -1.85 Q-0.1 -2.15 0.0 -2.25 L0.1 -2.3 0.45 -2.4 0.6 -2.35 0.65 -2.25 0.7 -2.25 0.85 -2.15 0.85 -2.1" fill="none" stroke="#000000" stroke-linecap="round" stroke-linejoin="round" stroke-opacity="0.4509804" stroke-width="0.1"/>
  </g>
</svg>
