<?xml version="1.0" encoding="UTF-8" standalone="no"?>
<svg xmlns:xlink="http://www.w3.org/1999/xlink" height="2.2px" width="1.8px" xmlns="http://www.w3.org/2000/svg">
  <g transform="matrix(1.0, 0.0, 0.0, 1.0, 0.7, 2.45)">
    <path d="M1.0 -1.75 L1.05 -1.35 1.0 -0.95 0.9 -1.05 0.95 -1.3 1.0 -1.75 M0.35 -1.2 L0.35 -1.45 0.25 -1.45 0.2 -1.5 0.25 -1.6 0.15 -1.6 0.05 -1.6 Q0.0 -1.6 0.0 -1.75 L0.05 -1.8 0.15 -1.85 0.2 -1.85 0.4 -1.8 0.55 -1.85 0.55 -1.9 0.5 -1.9 0.4 -1.9 0.3 -1.9 0.4 -1.95 0.7 -1.9 0.85 -1.9 0.85 -1.9 0.9 -1.75 0.9 -1.45 0.85 -1.3 0.8 -1.1 0.75 -1.15 0.55 -1.2 0.35 -1.2 M0.85 -2.1 L0.85 -1.95 0.8 -1.95 0.8 -1.95 Q0.6 -1.95 0.4 -2.1 L0.45 -2.15 0.8 -2.1 0.8 -2.1 0.85 -2.1" fill="#d4ab5d" fill-rule="evenodd" stroke="none"/>
    <path d="M-0.45 -1.35 L-0.15 -2.1 -0.15 -2.15 Q0.0 -2.45 0.25 -2.45 L0.3 -2.45 Q0.6 -2.45 0.75 -2.3 L0.75 -2.3 0.8 -2.25 0.9 -2.15 0.9 -2.1 0.95 -2.0 1.0 -1.75 0.95 -1.3 0.9 -1.05 0.8 -1.1 0.85 -1.3 0.9 -1.45 0.9 -1.75 0.85 -1.9 0.85 -1.9 0.7 -1.9 0.4 -1.95 0.3 -1.9 0.4 -1.9 0.5 -1.9 0.55 -1.9 0.55 -1.85 0.4 -1.8 0.2 -1.85 0.15 -1.85 0.05 -1.8 0.0 -1.75 Q0.0 -1.6 0.05 -1.6 L0.15 -1.6 0.25 -1.6 0.2 -1.5 0.25 -1.45 0.35 -1.45 0.35 -1.2 -0.05 -1.3 -0.1 -1.3 -0.15 -1.3 -0.45 -1.35 M0.85 -2.1 L0.8 -2.1 0.8 -2.1 0.45 -2.15 0.4 -2.1 Q0.6 -1.95 0.8 -1.95 L0.8 -1.95 0.85 -1.95 0.85 -2.1" fill="#bd8f58" fill-rule="evenodd" stroke="none"/>
    <path d="M1.0 -0.95 L1.05 -0.85 1.05 -0.8 0.85 -0.9 0.8 -0.85 0.9 -0.75 Q0.9 -0.6 0.85 -0.6 L0.8 -0.7 0.75 -0.7 0.7 -0.7 0.75 -0.6 0.65 -0.6 0.55 -0.65 0.45 -0.6 0.2 -0.7 0.1 -0.7 0.15 -0.7 0.2 -0.75 0.35 -0.75 0.55 -0.75 0.6 -0.75 0.65 -0.75 Q0.7 -0.75 0.75 -0.8 L0.65 -0.8 0.5 -0.85 0.5 -0.9 0.55 -0.9 0.85 -0.9 0.85 -1.0 0.8 -1.05 0.75 -1.05 -0.05 -1.3 0.35 -1.2 0.55 -1.2 0.75 -1.15 0.8 -1.1 0.9 -1.05 1.0 -0.95 M0.95 -0.4 L0.95 -0.4 Q0.8 -0.3 0.7 -0.3 L-0.6 -0.65 0.8 -0.4 0.95 -0.4 0.95 -0.4 M-0.6 -1.05 L-0.6 -1.1 -0.45 -1.35 -0.45 -1.35 -0.15 -1.3 -0.1 -1.3 -0.3 -1.3 -0.05 -1.05 -0.3 -1.1 -0.5 -1.05 -0.6 -1.05 M-0.35 -0.8 L-0.35 -0.85 Q-0.2 -0.85 0.1 -0.7 L-0.35 -0.8" fill="#664525" fill-rule="evenodd" stroke="none"/>
    <path d="M-0.05 -1.3 L0.75 -1.05 0.8 -1.05 0.85 -1.0 0.85 -0.9 0.55 -0.9 0.5 -0.9 0.4 -0.95 0.2 -0.95 0.15 -0.95 0.0 -1.05 -0.05 -1.05 -0.3 -1.3 -0.1 -1.3 -0.05 -1.3" fill="#875b31" fill-rule="evenodd" stroke="none"/>
    <path d="M1.05 -0.8 L1.0 -0.7 1.05 -0.6 1.0 -0.45 0.95 -0.4 0.95 -0.4 0.8 -0.4 -0.6 -0.65 -0.6 -0.8 -0.6 -0.85 -0.55 -1.0 -0.6 -1.05 -0.5 -1.05 -0.3 -1.1 -0.05 -1.05 0.0 -1.05 0.15 -0.95 0.2 -0.95 0.4 -0.95 0.5 -0.9 0.5 -0.85 0.65 -0.8 0.75 -0.8 Q0.7 -0.75 0.65 -0.75 L0.6 -0.75 0.55 -0.75 0.35 -0.75 0.2 -0.75 0.15 -0.7 0.1 -0.7 0.2 -0.7 0.45 -0.6 0.55 -0.65 0.65 -0.6 0.75 -0.6 0.7 -0.7 0.75 -0.7 0.8 -0.7 0.85 -0.6 Q0.9 -0.6 0.9 -0.75 L0.8 -0.85 0.85 -0.9 1.05 -0.8 M-0.35 -0.8 L0.1 -0.7 Q-0.2 -0.85 -0.35 -0.85 L-0.35 -0.8" fill="#4d3324" fill-rule="evenodd" stroke="none"/>
    <path d="M1.0 -1.75 L1.05 -1.35 1.0 -0.95 1.05 -0.85 1.05 -0.8 1.0 -0.7 1.05 -0.6 1.0 -0.45 0.95 -0.4 0.95 -0.4 Q0.8 -0.3 0.7 -0.3 L-0.6 -0.65 -0.6 -0.8 -0.6 -0.85 -0.55 -1.0 -0.6 -1.05 -0.6 -1.1 -0.45 -1.35 -0.45 -1.35 -0.15 -2.1 -0.15 -2.15 M0.9 -2.15 L0.9 -2.1 0.95 -2.0 1.0 -1.75" fill="none" stroke="#000000" stroke-linecap="round" stroke-linejoin="round" stroke-opacity="0.4509804" stroke-width="0.1"/>
  </g>
</svg>
