<?xml version="1.0" encoding="UTF-8" standalone="no"?>
<svg xmlns:xlink="http://www.w3.org/1999/xlink" height="7.95px" width="2.25px" xmlns="http://www.w3.org/2000/svg">
  <g transform="matrix(1.0, 0.0, 0.0, 1.0, 0.95, 3.85)">
    <path d="M-0.05 -0.35 L-0.05 -0.4 0.0 -0.55 Q0.0 -0.65 -0.1 -0.7 -0.05 -0.8 0.15 -0.8 L0.2 -0.8 Q0.25 -0.85 0.25 -0.9 L0.2 -1.0 0.2 -1.0 0.15 -1.1 0.2 -1.2 0.25 -1.2 0.35 -1.35 0.3 -2.3 0.35 -2.5 0.35 -2.7 0.25 -2.8 0.35 -2.9 0.3 -3.0 0.1 -3.0 Q-0.05 -2.95 -0.1 -2.9 L-0.05 -2.85 0.05 -2.85 -0.15 -2.75 -0.25 -2.8 Q-0.3 -2.85 -0.35 -2.85 L-0.6 -2.8 -0.6 -2.45 -0.7 -2.0 -0.65 -1.3 -0.65 -1.25 -0.6 -1.2 -0.55 -1.25 -0.45 -1.3 -0.45 -1.15 -0.55 -1.1 -0.55 -1.05 Q-0.45 -0.5 -0.35 -0.35 L-0.45 -0.35 Q-0.6 -0.4 -0.65 -0.45 L-0.7 -0.5 -0.75 -0.8 -0.9 -1.25 -0.85 -2.2 -0.8 -2.8 Q-0.8 -3.2 -0.45 -3.65 -0.45 -3.7 -0.05 -3.8 L0.15 -3.75 0.55 -3.45 Q0.65 -3.45 0.95 -1.4 L0.9 -1.4 Q0.8 -1.4 0.8 -1.45 L0.7 -1.25 Q0.55 -1.25 0.55 -1.2 L0.55 -1.1 0.65 -1.2 0.7 -1.05 Q0.7 -1.0 0.65 -0.9 L0.5 -0.9 0.4 -0.65 0.35 -0.4 0.15 -0.35 -0.05 -0.35" fill="#242e48" fill-rule="evenodd" stroke="none"/>
    <path d="M-0.35 -0.35 Q-0.45 -0.5 -0.55 -1.05 L-0.55 -1.1 -0.45 -1.15 -0.45 -1.3 -0.55 -1.25 -0.6 -1.2 -0.65 -1.25 -0.65 -1.3 -0.7 -2.0 -0.6 -2.45 -0.6 -2.8 -0.35 -2.85 Q-0.3 -2.85 -0.25 -2.8 L-0.15 -2.75 0.05 -2.85 -0.05 -2.85 -0.1 -2.9 Q-0.05 -2.95 0.1 -3.0 L0.3 -3.0 0.35 -2.9 0.25 -2.8 0.35 -2.7 0.35 -2.5 0.3 -2.3 0.35 -1.35 0.25 -1.2 0.2 -1.2 0.15 -1.1 0.2 -1.0 0.2 -1.0 0.25 -0.9 Q0.25 -0.85 0.2 -0.8 L0.15 -0.8 Q-0.05 -0.8 -0.1 -0.7 0.0 -0.65 0.0 -0.55 L-0.05 -0.4 -0.05 -0.35 -0.15 -0.35 -0.35 -0.35 M0.35 -0.4 L0.4 -0.65 0.5 -0.9 0.65 -0.9 Q0.7 -1.0 0.7 -1.05 L0.65 -1.2 0.55 -1.1 0.55 -1.2 Q0.55 -1.25 0.7 -1.25 L0.8 -1.45 Q0.8 -1.4 0.9 -1.4 L0.95 -1.4 1.05 -0.95 0.95 -0.55 0.4 -0.4 0.35 -0.4" fill="#303e5f" fill-rule="evenodd" stroke="none"/>
    <path d="M-0.05 -0.35 L0.15 -0.35 0.35 -0.4 0.4 -0.4 0.95 -0.55 1.0 -0.55 Q1.1 -0.45 1.15 -0.25 L0.1 0.05 0.0 0.1 Q-0.1 0.1 -0.2 0.0 -0.25 -0.1 -0.35 -0.1 L-0.6 -0.1 Q-0.7 -0.05 -0.75 -0.05 L-0.85 -0.05 -0.8 -0.1 -0.8 -0.25 -0.65 -0.45 -0.65 -0.45 Q-0.6 -0.4 -0.45 -0.35 L-0.35 -0.35 -0.15 -0.35 -0.05 -0.35 M-0.6 1.95 L-0.45 1.95 -0.2 1.9 -0.05 1.95 0.05 1.9 0.1 1.8 0.25 1.55 0.4 1.55 0.55 1.7 Q0.7 1.85 0.95 1.85 L1.0 1.8 1.0 1.95 Q0.95 2.1 0.85 2.1 L0.8 2.1 0.5 2.2 Q0.4 2.2 0.35 2.1 L0.4 1.95 0.35 1.95 Q0.35 2.1 0.25 2.2 0.15 2.25 0.1 2.25 L0.05 2.25 -0.45 2.25 -0.55 2.25 -0.6 1.95 M-0.4 2.8 L-0.45 2.3 Q-0.3 2.45 -0.05 2.45 L0.05 2.45 0.4 2.5 Q0.4 2.7 0.2 2.7 L0.05 2.7 -0.15 2.7 -0.1 2.75 Q-0.05 2.75 0.05 2.8 L0.1 2.8 0.3 2.7 0.5 2.85 0.4 2.95 0.25 3.05 0.1 2.95 -0.1 2.95 -0.25 2.85 -0.3 2.8 -0.35 2.8 -0.4 2.8" fill="#171514" fill-rule="evenodd" stroke="none"/>
    <path d="M1.15 -0.25 L1.15 -0.1 1.2 0.4 1.2 0.9 1.15 1.3 1.0 1.75 1.0 1.8 0.95 1.85 Q0.7 1.85 0.55 1.7 L0.4 1.55 0.25 1.55 0.1 1.8 0.05 1.9 -0.05 1.95 -0.2 1.9 -0.45 1.95 -0.6 1.95 Q-0.85 0.45 -0.85 0.05 L-0.85 -0.05 -0.75 -0.05 Q-0.7 -0.05 -0.6 -0.1 L-0.35 -0.1 Q-0.25 -0.1 -0.2 0.0 -0.1 0.1 0.0 0.1 L0.1 0.05 1.15 -0.25 M0.8 2.1 L0.8 2.45 0.75 2.7 0.7 3.5 0.6 3.85 0.2 4.05 Q-0.3 4.05 -0.4 3.25 L-0.4 2.8 -0.35 2.8 -0.3 2.8 -0.25 2.85 -0.1 2.95 0.1 2.95 0.25 3.05 0.4 2.95 0.5 2.85 0.3 2.7 0.1 2.8 0.05 2.8 Q-0.05 2.75 -0.1 2.75 L-0.15 2.7 0.05 2.7 0.2 2.7 Q0.4 2.7 0.4 2.5 L0.05 2.45 -0.05 2.45 Q-0.3 2.45 -0.45 2.3 L-0.45 2.25 0.05 2.25 0.1 2.25 Q0.15 2.25 0.25 2.2 0.35 2.1 0.35 1.95 L0.4 1.95 0.35 2.1 Q0.4 2.2 0.5 2.2 L0.8 2.1" fill="#23201e" fill-rule="evenodd" stroke="none"/>
    <path d="M0.95 -1.4 Q0.65 -3.45 0.55 -3.45 L0.15 -3.75 -0.05 -3.8 Q-0.45 -3.7 -0.45 -3.65 -0.8 -3.2 -0.8 -2.8 L-0.85 -2.2 -0.9 -1.25 -0.75 -0.8 -0.7 -0.5 -0.65 -0.45 -0.65 -0.45 -0.8 -0.25 -0.8 -0.1 -0.85 -0.05 -0.85 0.05 Q-0.85 0.45 -0.6 1.95 L-0.55 2.25 -0.45 2.25 -0.45 2.3 -0.4 2.8 -0.4 3.25 Q-0.3 4.05 0.2 4.05 L0.6 3.85 0.7 3.5 0.75 2.7 0.8 2.45 0.8 2.1 0.85 2.1 Q0.95 2.1 1.0 1.95 L1.0 1.8 1.0 1.75 1.15 1.3 1.2 0.9 1.2 0.4 1.15 -0.1 1.15 -0.25 Q1.1 -0.45 1.0 -0.55 L0.95 -0.55 1.05 -0.95 0.95 -1.4 Z" fill="none" stroke="#000000" stroke-linecap="round" stroke-linejoin="round" stroke-opacity="0.4509804" stroke-width="0.1"/>
  </g>
</svg>
