<?xml version="1.0" encoding="UTF-8" standalone="no"?>
<svg xmlns:xlink="http://www.w3.org/1999/xlink" height="3.15px" width="1.8px" xmlns="http://www.w3.org/2000/svg">
  <g transform="matrix(1.0, 0.0, 0.0, 1.0, 0.7, 1.75)">
    <path d="M-0.45 -1.4 L-0.45 -1.4 -0.4 -1.4 -0.35 -1.35 -0.35 -1.55 -0.25 -1.55 -0.2 -1.65 -0.1 -1.7 -0.05 -1.55 0.0 -1.6 0.05 -1.65 0.2 -1.4 0.2 -1.35 0.15 -1.4 0.1 -1.55 0.05 -1.5 0.05 -1.5 0.0 -1.55 -0.05 -1.5 -0.1 -1.45 Q-0.1 -1.45 -0.15 -1.5 L-0.25 -1.4 -0.3 -1.3 Q-0.35 -1.3 -0.4 -1.35 L-0.45 -1.4 M0.25 -1.15 L0.35 -1.2 0.5 -1.15 0.55 -1.15 0.6 -0.95 0.55 -0.85 0.5 -0.8 0.5 -0.8 0.4 -0.8 0.35 -0.8 0.3 -0.8 0.25 -0.85 0.25 -0.9 0.2 -1.05 0.2 -1.1 0.25 -1.15 M-0.4 -0.95 Q-0.5 -1.1 -0.5 -1.3 L-0.45 -1.15 -0.35 -1.0 -0.3 -0.9 -0.3 -1.05 -0.35 -1.1 -0.35 -1.1 -0.3 -1.05 -0.25 -0.95 -0.2 -0.95 -0.1 -0.9 -0.25 -0.8 -0.3 -0.85 -0.4 -0.95 M0.05 -1.65 L0.2 -1.4 0.05 -1.65 M0.0 -1.2 L0.0 -1.2 -0.05 -1.2 -0.05 -1.2 Q-0.1 -1.1 -0.1 -1.1 L-0.2 -1.15 -0.2 -1.15 -0.2 -1.2 -0.25 -1.3 -0.15 -1.3 -0.15 -1.2 -0.1 -1.2 Q-0.1 -1.15 -0.05 -1.15 L-0.05 -1.3 0.0 -1.2 M0.2 -1.4 L0.2 -1.4 M0.55 -0.9 L0.55 -0.95 0.45 -1.15 0.45 -1.15 0.4 -1.15 0.3 -1.15 0.3 -1.15 0.25 -1.1 0.25 -1.05 0.2 -1.05 0.45 -0.9 Q0.5 -0.9 0.55 -0.9" fill="#775727" fill-rule="evenodd" stroke="none"/>
    <path d="M-0.5 -1.3 L-0.45 -1.35 -0.45 -1.4 -0.4 -1.35 Q-0.35 -1.3 -0.3 -1.3 L-0.25 -1.4 -0.15 -1.5 Q-0.1 -1.45 -0.1 -1.45 L-0.05 -1.5 0.0 -1.55 0.05 -1.5 0.05 -1.5 0.1 -1.45 0.05 -1.4 0.05 -1.25 0.05 -1.2 0.0 -1.2 0.0 -1.2 -0.05 -1.3 -0.05 -1.15 Q-0.1 -1.15 -0.1 -1.2 L-0.15 -1.2 -0.15 -1.3 -0.25 -1.3 -0.2 -1.2 -0.2 -1.15 -0.25 -1.1 -0.2 -1.0 -0.2 -0.95 -0.25 -0.95 -0.3 -1.05 -0.35 -1.1 -0.35 -1.1 -0.3 -1.05 -0.3 -0.9 -0.35 -1.0 -0.45 -1.15 -0.5 -1.3 M0.55 -0.9 Q0.5 -0.9 0.45 -0.9 L0.2 -1.05 0.25 -1.05 0.25 -1.1 0.3 -1.15 0.3 -1.15 0.4 -1.15 0.45 -1.15 0.45 -1.15 0.55 -0.95 0.55 -0.9" fill="#a67936" fill-rule="evenodd" stroke="none"/>
    <path d="M0.2 -1.4 L0.25 -1.3 0.2 -1.2 0.2 -1.15 0.2 -1.1 0.2 -1.05 0.25 -0.9 0.25 -0.85 0.2 -0.9 0.2 -0.9 0.05 -1.0 -0.1 -0.9 -0.1 -0.9 -0.2 -0.95 -0.2 -1.0 -0.25 -1.1 -0.2 -1.15 -0.2 -1.15 -0.1 -1.1 Q-0.1 -1.1 -0.05 -1.2 L-0.05 -1.2 0.0 -1.2 0.0 -1.2 0.0 -1.2 0.05 -1.2 0.05 -1.25 0.05 -1.4 0.1 -1.45 0.05 -1.5 0.1 -1.55 0.15 -1.4 0.2 -1.35 0.2 -1.4 0.25 -1.3 0.2 -1.4 0.2 -1.4" fill="#5b301f" fill-rule="evenodd" stroke="none"/>
    <path d="M0.2 -1.2 L0.2 -1.2 0.25 -1.15 0.25 -1.15 0.2 -1.1 0.2 -1.15 0.2 -1.2 M-0.45 -0.75 L-0.45 -0.85 -0.4 -0.85 -0.4 -0.95 -0.3 -0.85 -0.25 -0.8 -0.1 -0.9 -0.1 -0.9 0.05 -1.0 0.2 -0.9 0.05 -0.85 -0.15 -0.8 -0.2 -0.8 -0.25 -0.8 -0.25 -0.7 -0.25 -0.7 -0.4 -0.75 -0.45 -0.75 M0.55 -0.85 L0.55 -0.8 0.5 -0.75 0.5 -0.8 0.5 -0.8 0.55 -0.85" fill="#231718" fill-rule="evenodd" stroke="none"/>
    <path d="M0.55 -0.85 L0.7 -0.6 0.8 -0.25 0.8 -0.2 0.85 -0.1 Q0.9 0.15 0.95 0.25 1.05 0.3 1.05 0.55 L1.0 0.55 0.9 0.65 0.85 0.7 0.75 0.75 0.5 0.85 0.35 0.9 0.2 0.95 0.15 0.95 0.1 0.95 0.1 0.9 0.2 0.85 0.25 0.75 0.15 0.8 0.1 0.8 0.05 0.85 -0.1 0.8 -0.15 0.8 -0.25 0.85 -0.25 0.8 -0.35 0.85 -0.4 0.85 -0.45 0.85 -0.55 0.8 -0.6 0.85 -0.6 0.85 -0.65 0.85 -0.65 0.6 -0.6 0.35 -0.5 0.0 Q-0.5 -0.1 -0.5 -0.3 L-0.5 -0.65 -0.45 -0.75 -0.4 -0.75 -0.25 -0.7 -0.25 -0.7 -0.25 -0.65 -0.25 -0.45 -0.2 -0.4 -0.2 -0.35 -0.2 -0.2 -0.15 -0.2 -0.2 -0.2 -0.2 -0.2 -0.05 -0.15 -0.05 -0.15 0.05 -0.1 0.1 -0.1 0.3 -0.15 0.45 -0.15 0.5 -0.15 0.5 -0.2 0.6 -0.2 0.6 -0.25 0.6 -0.4 0.55 -0.5 0.55 -0.6 0.5 -0.75 0.55 -0.8 0.55 -0.85 M0.3 -0.15 L0.3 -0.15 M0.3 -0.8 L0.35 -0.8 0.35 -0.75 0.4 -0.5 0.35 -0.35 0.3 -0.25 0.2 -0.25 0.05 -0.3 0.0 -0.3 -0.1 -0.3 -0.1 -0.4 -0.15 -0.65 -0.15 -0.65 -0.1 -0.7 -0.05 -0.75 0.05 -0.75 0.05 -0.8 0.15 -0.8 0.3 -0.8" fill="#0e0909" fill-rule="evenodd" stroke="none"/>
    <path d="M0.3 -0.15 L0.1 -0.1 0.05 -0.1 -0.05 -0.15 0.0 -0.3 0.05 -0.3 0.2 -0.25 0.3 -0.25 0.3 -0.15 M-0.25 -0.65 L-0.25 -0.7 -0.25 -0.8 -0.2 -0.8 -0.2 -0.75 -0.15 -0.75 -0.05 -0.8 0.1 -0.8 0.25 -0.85 0.25 -0.85 0.3 -0.8 0.15 -0.8 0.05 -0.8 0.05 -0.75 -0.05 -0.75 -0.1 -0.7 -0.15 -0.65 -0.15 -0.65 -0.2 -0.65 -0.25 -0.65" fill="#bbb6ad" fill-rule="evenodd" stroke="none"/>
    <path d="M0.2 -0.9 L0.2 -0.9 0.25 -0.85 0.25 -0.85 0.1 -0.8 -0.05 -0.8 -0.15 -0.75 -0.2 -0.75 -0.2 -0.8 -0.15 -0.8 0.05 -0.85 0.2 -0.9" fill="#f7f1e5" fill-rule="evenodd" stroke="none"/>
    <path d="M0.5 -0.75 L0.55 -0.6 0.55 -0.5 0.6 -0.4 0.6 -0.25 0.6 -0.2 0.5 -0.2 0.5 -0.15 0.45 -0.15 0.3 -0.15 0.3 -0.25 0.35 -0.35 0.4 -0.5 0.35 -0.75 0.35 -0.8 0.4 -0.8 0.5 -0.8 0.5 -0.75 M-0.05 -0.15 L-0.05 -0.15 -0.2 -0.2 -0.2 -0.35 -0.2 -0.4 -0.25 -0.45 -0.25 -0.65 -0.2 -0.65 -0.15 -0.65 -0.15 -0.65 -0.15 -0.65 -0.1 -0.4 -0.1 -0.3 0.0 -0.3 -0.05 -0.15 M-0.15 -0.2 L-0.2 -0.2 -0.15 -0.2 M0.3 -0.15 L0.3 -0.15" fill="#645d56" fill-rule="evenodd" stroke="none"/>
    <path d="M0.3 -0.15 L0.3 -0.15 0.3 -0.15" fill="#988071" fill-rule="evenodd" stroke="none"/>
    <path d="M-0.2 -0.2 L-0.2 -0.2 -0.15 -0.2 -0.2 -0.2" fill="#645445" fill-rule="evenodd" stroke="none"/>
    <path d="M-0.65 0.85 L-0.65 0.85 -0.6 0.85 -0.65 0.85" fill="#645847" fill-rule="evenodd" stroke="none"/>
    <path d="M1.05 0.55 Q1.05 0.85 0.7 1.1 L0.65 1.1 Q0.35 1.3 0.1 1.3 L-0.2 1.25 -0.2 1.25 -0.4 1.2 -0.45 1.2 -0.45 1.2 -0.5 1.15 -0.5 1.15 -0.45 1.15 -0.45 1.15 -0.1 1.1 0.1 1.1 0.3 1.1 0.4 1.05 0.55 1.0 0.75 0.9 0.65 0.9 0.55 0.95 0.4 1.0 0.35 1.0 0.25 1.05 0.2 1.05 0.15 1.05 0.0 1.05 0.0 1.05 -0.05 1.05 -0.1 1.1 Q-0.25 1.1 -0.25 1.0 L-0.25 1.0 -0.35 1.0 -0.4 1.0 -0.45 1.05 -0.6 1.0 -0.6 0.95 -0.6 0.9 -0.65 0.85 -0.6 0.85 -0.6 0.85 -0.55 0.8 -0.45 0.85 -0.4 0.85 -0.35 0.85 -0.25 0.8 -0.25 0.85 -0.15 0.8 -0.1 0.8 0.05 0.85 0.1 0.8 0.15 0.8 0.25 0.75 0.2 0.85 0.1 0.9 0.1 0.95 0.15 0.95 0.2 0.95 0.35 0.9 0.5 0.85 0.75 0.75 0.85 0.7 0.9 0.65 1.0 0.55 1.05 0.55" fill="#32332c" fill-rule="evenodd" stroke="none"/>
    <path d="M-0.45 1.15 L-0.45 1.15 -0.6 1.0 -0.45 1.05 -0.4 1.0 -0.35 1.0 -0.25 1.0 -0.25 1.0 Q-0.25 1.1 -0.1 1.1 L-0.05 1.05 0.0 1.05 0.0 1.05 0.15 1.05 0.2 1.05 0.25 1.05 0.35 1.0 0.4 1.0 0.55 0.95 0.65 0.9 0.75 0.9 0.55 1.0 0.4 1.05 0.3 1.1 0.1 1.1 -0.1 1.1 -0.45 1.15" fill="#47483e" fill-rule="evenodd" stroke="none"/>
    <path d="M-0.45 -1.4 L-0.45 -1.4 -0.4 -1.4 -0.35 -1.35 -0.35 -1.55 -0.25 -1.55 -0.2 -1.65 -0.1 -1.7 -0.05 -1.55 0.0 -1.6 0.05 -1.65 0.2 -1.4 0.25 -1.3 0.2 -1.2 0.2 -1.2 0.25 -1.15 0.25 -1.15 0.35 -1.2 0.5 -1.15 0.55 -1.15 0.6 -0.95 0.55 -0.85 0.7 -0.6 0.8 -0.25 0.8 -0.2 0.85 -0.1 Q0.9 0.15 0.95 0.25 1.05 0.3 1.05 0.55 1.05 0.85 0.7 1.1 L0.65 1.1 Q0.35 1.3 0.1 1.3 L-0.2 1.25 -0.2 1.25 -0.4 1.2 -0.45 1.2 -0.45 1.2 -0.5 1.15 -0.5 1.15 -0.45 1.15 -0.45 1.15 -0.45 1.15 -0.6 1.0 -0.6 0.95 -0.6 0.9 -0.65 0.85 -0.65 0.85 -0.65 0.6 -0.6 0.35 -0.5 0.0 Q-0.5 -0.1 -0.5 -0.3 L-0.5 -0.65 -0.45 -0.75 -0.45 -0.85 -0.4 -0.85 -0.4 -0.95 Q-0.5 -1.1 -0.5 -1.3 L-0.45 -1.35 -0.45 -1.4 Z" fill="none" stroke="#000000" stroke-linecap="round" stroke-linejoin="round" stroke-opacity="0.4509804" stroke-width="0.1"/>
  </g>
</svg>
