<?xml version="1.0" encoding="UTF-8" standalone="no"?>
<svg xmlns:xlink="http://www.w3.org/1999/xlink" height="1.95px" width="4.0px" xmlns="http://www.w3.org/2000/svg">
  <g transform="matrix(1.0, 0.0, 0.0, 1.0, 2.15, 0.95)">
    <path d="M0.55 -0.75 L0.7 -0.75 0.7 -0.55 0.65 -0.55 Q0.65 -0.5 0.7 -0.5 L0.75 -0.45 0.8 -0.45 0.65 -0.45 0.6 -0.45 0.6 -0.4 0.55 -0.4 0.55 -0.4 0.45 -0.55 0.4 -0.65 0.5 -0.7 0.55 -0.75 M0.25 -0.55 L0.4 -0.35 0.4 -0.3 0.3 -0.2 0.3 -0.25 0.3 -0.25 0.15 -0.5 0.25 -0.55 0.25 -0.55 M0.0 -0.4 L0.15 -0.2 0.2 -0.15 0.3 -0.2 0.2 -0.1 0.15 -0.15 0.1 -0.15 0.0 -0.1 -0.1 -0.3 0.0 -0.4 M-0.25 -0.25 L-0.15 -0.1 -0.1 0.0 Q-0.2 0.0 -0.3 0.1 L-0.3 0.1 -0.35 -0.05 -0.4 -0.15 -0.3 -0.2 -0.25 -0.25 -0.25 -0.25 M-0.55 -0.1 L-0.5 0.1 -0.45 0.15 -0.4 0.15 -0.4 0.15 -0.5 0.2 -0.55 0.25 -0.55 0.2 -0.65 0.15 -0.65 0.15 -0.65 0.15 -0.75 0.05 -0.75 0.0 -0.7 -0.05 -0.55 -0.1 M-0.45 0.85 L-0.7 0.9 -1.2 0.75 -1.45 0.7 -1.3 0.55 -1.0 0.65 Q-1.0 0.65 -0.95 0.7 L-0.9 0.75 -0.8 0.7 -0.75 0.7 -0.6 0.75 -0.15 0.6 -0.3 0.5 -0.3 0.4 -0.15 0.35 -0.1 0.4 0.0 0.35 0.05 0.3 0.15 0.35 0.25 0.25 Q0.25 0.2 0.35 0.2 L0.4 0.25 0.45 0.2 Q0.45 0.1 0.5 0.1 0.55 0.1 0.6 0.15 L0.65 0.2 0.75 0.15 0.8 0.1 0.9 0.2 0.95 0.3 0.9 0.45 0.75 0.5 0.7 0.5 0.7 0.6 0.25 0.6 Q0.0 0.6 -0.2 0.75 L-0.25 0.75 -0.45 0.85 M1.2 0.55 L1.25 0.45 Q1.35 0.35 1.4 0.4 L1.45 0.4 1.45 0.35 1.35 0.25 1.25 0.3 1.25 0.35 Q1.25 0.25 1.3 0.25 L1.4 0.2 1.4 0.15 1.35 0.1 Q1.25 0.1 1.25 0.2 L1.15 0.25 1.05 0.15 1.0 0.05 Q1.0 -0.1 1.15 -0.1 1.25 -0.15 1.25 -0.15 L1.1 -0.25 Q1.1 -0.4 1.3 -0.4 L1.55 -0.3 Q1.7 -0.3 1.7 -0.4 1.8 -0.15 1.8 0.35 1.8 0.5 1.65 0.5 L1.5 0.5 1.4 0.5 1.25 0.55 1.2 0.55 M1.6 -0.7 Q1.5 -0.55 1.35 -0.55 1.15 -0.55 1.1 -0.7 L1.0 -0.6 0.95 -0.6 0.9 -0.65 0.8 -0.75 0.75 -0.8 0.8 -0.85 1.1 -0.9 Q1.4 -0.9 1.6 -0.7" fill="#3a2d1e" fill-rule="evenodd" stroke="none"/>
    <path d="M0.55 -0.75 L0.75 -0.8 0.8 -0.75 0.9 -0.65 0.95 -0.6 1.0 -0.6 1.1 -0.7 Q1.15 -0.55 1.35 -0.55 1.5 -0.55 1.6 -0.7 L1.7 -0.55 1.7 -0.5 1.7 -0.4 Q1.7 -0.3 1.55 -0.3 L1.3 -0.4 Q1.1 -0.4 1.1 -0.25 L1.25 -0.15 Q1.25 -0.15 1.15 -0.1 1.0 -0.1 1.0 0.05 L1.05 0.15 1.15 0.25 1.25 0.2 Q1.25 0.1 1.35 0.1 L1.4 0.15 1.4 0.2 1.3 0.25 Q1.25 0.25 1.25 0.35 L1.25 0.3 1.35 0.25 1.45 0.35 1.45 0.4 1.4 0.4 Q1.35 0.35 1.25 0.45 L1.2 0.55 0.7 0.6 0.7 0.5 0.75 0.5 0.9 0.45 0.95 0.3 0.9 0.2 0.8 0.1 0.75 0.15 0.65 0.2 0.6 0.15 Q0.55 0.1 0.5 0.1 0.45 0.1 0.45 0.2 L0.4 0.25 0.35 0.2 Q0.25 0.2 0.25 0.25 L0.15 0.35 0.05 0.3 0.0 0.35 -0.1 0.4 -0.15 0.35 -0.3 0.4 -0.3 0.5 -0.35 0.5 -0.4 0.45 -0.5 0.5 -0.5 0.6 -0.55 0.6 -0.6 0.6 Q-0.6 0.5 -0.7 0.5 L-0.85 0.5 Q-1.05 0.5 -1.15 0.45 L-1.15 0.45 -1.2 0.5 -1.15 0.6 -1.3 0.55 -1.3 0.55 -1.45 0.7 -1.2 0.75 -0.7 0.9 -0.45 0.85 Q-0.55 0.95 -0.85 0.95 L-0.9 0.95 -1.3 0.95 -1.55 0.85 Q-2.05 0.85 -2.05 0.75 -2.05 0.65 -1.75 0.5 L-1.4 0.3 -1.3 0.2 -1.3 0.15 -1.05 0.0 -1.05 0.25 -0.95 0.3 -0.9 0.3 -0.85 0.15 -0.75 0.25 -0.7 0.25 -0.7 0.2 -0.65 0.15 -0.65 0.15 -0.55 0.2 -0.55 0.25 -0.5 0.2 -0.4 0.15 -0.4 0.15 -0.45 0.15 -0.5 0.1 -0.55 -0.1 -0.45 -0.1 -0.4 -0.15 -0.35 -0.05 -0.3 0.1 -0.3 0.1 Q-0.2 0.0 -0.1 0.0 L-0.15 -0.1 -0.25 -0.25 -0.15 -0.3 -0.1 -0.3 0.0 -0.1 0.1 -0.15 0.15 -0.15 0.2 -0.1 0.3 -0.2 0.2 -0.15 0.15 -0.2 0.0 -0.4 0.15 -0.5 0.3 -0.25 0.3 -0.25 0.3 -0.2 0.4 -0.3 0.4 -0.35 0.25 -0.55 0.35 -0.6 0.4 -0.65 0.45 -0.55 0.55 -0.4 0.55 -0.4 0.6 -0.4 0.6 -0.45 0.65 -0.45 0.8 -0.45 0.75 -0.45 0.7 -0.5 Q0.65 -0.5 0.65 -0.55 L0.7 -0.55 0.7 -0.75 0.55 -0.75" fill="#231b12" fill-rule="evenodd" stroke="none"/>
    <path d="M-0.65 0.15 L-0.7 0.2 -0.7 0.25 -0.75 0.25 -0.85 0.15 -0.9 0.3 -0.95 0.3 -1.05 0.25 -1.05 0.0 -0.95 -0.05 -0.7 -0.05 -0.7 -0.05 -0.75 0.0 -0.75 0.05 -0.65 0.15 -0.65 0.15 M-1.3 0.55 L-1.3 0.55 -1.15 0.6 -1.2 0.5 -1.15 0.45 -1.15 0.45 Q-1.05 0.5 -0.85 0.5 L-0.7 0.5 Q-0.6 0.5 -0.6 0.6 L-0.55 0.6 -0.5 0.6 -0.5 0.5 -0.4 0.45 -0.35 0.5 -0.3 0.5 -0.15 0.6 -0.6 0.75 -0.75 0.7 -0.8 0.7 -0.9 0.75 -0.95 0.7 Q-1.0 0.65 -1.0 0.65 L-1.3 0.55" fill="#513f2a" fill-rule="evenodd" stroke="none"/>
    <path d="M0.75 -0.8 L0.55 -0.75 0.5 -0.7 0.4 -0.65 0.35 -0.6 0.25 -0.55 0.0 -0.4 -0.1 -0.3 -0.15 -0.3 -0.25 -0.25 -0.25 -0.25 -0.3 -0.2 -0.4 -0.15 -0.45 -0.1 -0.55 -0.1 -0.7 -0.05 -0.7 -0.05 -0.95 -0.05 -1.05 0.0 -1.3 0.15 -1.3 0.2 -1.4 0.3 -1.75 0.5 Q-2.05 0.65 -2.05 0.75 -2.05 0.85 -1.55 0.85 L-1.3 0.95 -0.9 0.95 -0.85 0.95 Q-0.55 0.95 -0.45 0.85 L-0.25 0.75 -0.2 0.75 Q0.0 0.6 0.25 0.6 L0.7 0.6 1.2 0.55 1.25 0.55 1.4 0.5 1.5 0.5 1.65 0.5 Q1.8 0.5 1.8 0.35 1.8 -0.15 1.7 -0.4 L1.7 -0.5 1.7 -0.55 1.6 -0.7 Q1.4 -0.9 1.1 -0.9 L0.8 -0.85 0.75 -0.8 M0.25 -0.55 L0.25 -0.55 Z" fill="none" stroke="#000000" stroke-linecap="round" stroke-linejoin="round" stroke-opacity="0.4509804" stroke-width="0.1"/>
  </g>
</svg>
