<?xml version="1.0" encoding="UTF-8" standalone="no"?>
<svg xmlns:xlink="http://www.w3.org/1999/xlink" height="1.6px" width="3.4px" xmlns="http://www.w3.org/2000/svg">
  <g transform="matrix(1.0, 0.0, 0.0, 1.0, 1.7, 0.8)">
    <path d="M0.45 -0.4 Q0.4 -0.4 0.35 -0.45 L0.25 -0.5 0.25 -0.55 Q0.5 -0.7 0.85 -0.7 L1.2 -0.7 Q1.3 -0.7 1.5 -0.5 L1.6 -0.4 1.2 -0.5 1.0 -0.3 Q0.8 -0.1 0.7 -0.1 L0.55 -0.15 0.55 -0.3 Q0.55 -0.4 0.5 -0.4 L0.45 -0.4 M0.15 -0.45 L0.3 -0.35 0.15 -0.25 0.05 -0.4 0.15 -0.45 M-0.1 -0.35 L-0.05 -0.25 0.0 -0.2 0.0 -0.2 -0.1 -0.15 -0.15 -0.25 -0.1 -0.3 -0.1 -0.35 M-0.2 -0.1 L-0.25 -0.1 -0.3 -0.05 -0.4 -0.15 -0.3 -0.2 -0.25 -0.2 -0.25 -0.15 -0.2 -0.1 M-0.4 0.0 L-0.45 0.05 -0.45 0.1 -0.4 0.1 -0.4 0.1 -0.35 0.1 -0.3 0.15 -0.15 0.15 -0.15 0.2 -0.55 0.35 -0.85 0.4 -1.05 0.45 Q-1.15 0.45 -1.15 0.35 L-1.2 0.3 -1.25 0.3 -1.0 0.15 Q-0.9 0.05 -0.75 0.0 L-0.5 -0.1 -0.45 -0.05 -0.4 0.0 M-0.65 0.1 L-0.8 0.15 -0.8 0.2 -0.7 0.2 -0.6 0.25 Q-0.55 0.25 -0.5 0.2 L-0.55 0.15 -0.55 0.05 -0.65 0.1 M-0.7 0.3 L-0.75 0.25 -0.85 0.25 -0.85 0.3 -0.8 0.35 -0.75 0.35 -0.7 0.35 -0.7 0.3 -0.7 0.3" fill="#3a2114" fill-rule="evenodd" stroke="none"/>
    <path d="M0.25 -0.5 L0.35 -0.45 Q0.4 -0.4 0.45 -0.4 L0.3 -0.35 0.15 -0.45 0.15 -0.5 0.2 -0.55 0.25 -0.5 M0.15 -0.25 L0.05 -0.25 0.0 -0.2 -0.05 -0.25 -0.1 -0.35 -0.1 -0.35 0.0 -0.45 0.05 -0.4 0.15 -0.25 M-0.1 -0.15 L-0.2 -0.1 -0.25 -0.15 -0.25 -0.2 -0.3 -0.25 -0.2 -0.3 -0.15 -0.25 -0.1 -0.15 M-0.3 -0.05 L-0.4 0.0 -0.45 -0.05 -0.5 -0.1 -0.5 -0.15 -0.45 -0.2 -0.4 -0.15 -0.3 -0.05" fill="#6d5549" fill-rule="evenodd" stroke="none"/>
    <path d="M0.45 -0.4 L0.5 -0.4 Q0.55 -0.4 0.55 -0.3 0.5 -0.25 0.4 -0.2 L0.2 -0.15 0.15 -0.1 0.05 -0.05 -0.2 0.1 -0.3 0.15 -0.35 0.1 -0.4 0.1 -0.4 0.1 -0.45 0.1 -0.45 0.05 -0.4 0.0 -0.3 -0.05 -0.25 -0.1 -0.2 -0.1 -0.1 -0.15 0.0 -0.2 0.0 -0.2 0.05 -0.25 0.15 -0.25 0.3 -0.35 0.45 -0.4" fill="#150b07" fill-rule="evenodd" stroke="none"/>
    <path d="M0.55 -0.3 L0.55 -0.15 0.7 -0.1 Q0.8 -0.1 1.0 -0.3 L1.2 -0.5 1.6 -0.4 1.65 -0.2 1.65 0.05 1.65 0.1 1.6 0.15 1.1 0.25 0.5 0.35 0.25 0.4 -0.05 0.5 -0.55 0.6 -0.8 0.6 -1.05 0.6 -1.3 0.65 -1.5 0.6 -1.6 0.5 -1.4 0.35 -1.25 0.3 -1.2 0.3 -1.15 0.35 Q-1.15 0.45 -1.05 0.45 L-0.85 0.4 -0.55 0.35 -0.15 0.2 -0.15 0.15 -0.3 0.15 -0.2 0.1 0.05 -0.05 0.15 -0.1 0.2 -0.15 0.4 -0.2 Q0.5 -0.25 0.55 -0.3" fill="#20120b" fill-rule="evenodd" stroke="none"/>
    <path d="M1.6 0.15 L1.4 0.4 1.05 0.45 0.95 0.45 0.75 0.4 0.45 0.45 0.2 0.5 0.15 0.55 0.0 0.6 -0.15 0.65 -0.3 0.65 -0.5 0.7 -0.65 0.65 -0.8 0.7 -0.9 0.75 -1.05 0.7 -1.35 0.75 -1.55 0.7 -1.65 0.6 -1.6 0.5 -1.5 0.6 -1.3 0.65 -1.05 0.6 -0.8 0.6 -0.55 0.6 -0.05 0.5 0.25 0.4 0.5 0.35 1.1 0.25 1.6 0.15" fill="#020100" fill-rule="evenodd" stroke="none"/>
    <path d="M-0.65 0.1 L-0.7 0.15 -0.65 0.2 -0.6 0.15 -0.6 0.1 -0.65 0.1 -0.55 0.05 -0.55 0.15 -0.5 0.2 Q-0.55 0.25 -0.6 0.25 L-0.7 0.2 -0.8 0.2 -0.8 0.15 -0.65 0.1" fill="#70604e" fill-rule="evenodd" stroke="none"/>
    <path d="M-0.65 0.1 L-0.6 0.1 -0.6 0.15 -0.65 0.2 -0.7 0.15 -0.65 0.1 M-0.7 0.3 L-0.7 0.3 -0.7 0.35 -0.75 0.35 -0.8 0.35 -0.85 0.3 -0.85 0.25 -0.75 0.25 -0.7 0.3" fill="#cbb69e" fill-rule="evenodd" stroke="none"/>
    <path d="M1.6 -0.4 L1.5 -0.5 Q1.3 -0.7 1.2 -0.7 L0.85 -0.7 Q0.5 -0.7 0.25 -0.55 L0.25 -0.5 0.2 -0.55 0.15 -0.5 0.15 -0.45 0.05 -0.4 0.0 -0.45 -0.1 -0.35 -0.1 -0.35 -0.1 -0.3 -0.15 -0.25 -0.2 -0.3 -0.3 -0.25 -0.25 -0.2 -0.3 -0.2 -0.4 -0.15 -0.45 -0.2 -0.5 -0.15 -0.5 -0.1 -0.75 0.0 Q-0.9 0.05 -1.0 0.15 L-1.25 0.3 -1.4 0.35 -1.6 0.5 -1.65 0.6 -1.55 0.7 -1.35 0.75 -1.05 0.7 -0.9 0.75 -0.8 0.7 -0.65 0.65 -0.5 0.7 -0.3 0.65 -0.15 0.65 0.0 0.6 0.15 0.55 0.2 0.5 0.45 0.45 0.75 0.4 0.95 0.45 1.05 0.45 1.4 0.4 1.6 0.15 1.65 0.1 1.65 0.05 1.65 -0.2 1.6 -0.4 Z" fill="none" stroke="#000000" stroke-linecap="round" stroke-linejoin="round" stroke-opacity="0.4509804" stroke-width="0.1"/>
  </g>
</svg>
