<?xml version="1.0" encoding="UTF-8" standalone="no"?>
<svg xmlns:xlink="http://www.w3.org/1999/xlink" height="8.9px" width="2.4px" xmlns="http://www.w3.org/2000/svg">
  <g transform="matrix(1.0, 0.0, 0.0, 1.0, 1.2, 4.65)">
    <path d="M-1.0 -3.95 L-1.0 -4.0 -0.95 -4.05 -0.7 -4.4 -0.7 -4.45 Q-0.6 -4.5 -0.5 -4.5 L-0.4 -4.55 -0.4 -4.6 -0.2 -4.6 -0.2 -4.6 0.0 -4.55 0.0 -4.55 0.15 -4.5 Q0.2 -4.5 0.25 -4.45 L0.35 -4.45 0.4 -4.45 0.45 -4.45 Q0.65 -4.4 0.75 -4.15 L0.8 -4.15 0.9 -3.95 0.95 -3.9 0.95 -3.85 1.0 -3.65 1.05 -3.5 1.1 -3.45 1.05 -3.45 1.05 -3.45 0.95 -3.5 0.95 -3.5 Q0.9 -3.4 0.85 -3.5 L0.8 -3.55 Q0.75 -3.6 0.7 -3.5 L0.7 -3.5 Q0.7 -3.4 0.8 -3.4 L0.8 -3.3 0.85 -3.25 0.9 -3.15 0.95 -3.1 Q0.95 -3.0 0.85 -2.9 L0.8 -2.85 0.8 -2.8 0.85 -2.8 0.85 -2.55 0.85 -2.5 0.9 -2.45 1.0 -2.35 1.15 -2.15 1.15 -2.15 1.15 -2.05 1.15 -1.7 1.15 -1.65 Q1.1 -1.55 1.1 -1.4 L1.1 -1.35 1.1 -1.05 1.05 -0.85 1.05 -0.5 1.0 -0.2 0.9 0.2 0.9 0.35 0.85 0.6 0.85 0.65 0.8 0.8 0.8 1.05 0.8 1.35 0.75 1.4 0.75 1.6 0.75 1.7 0.75 1.9 0.7 2.1 0.7 2.2 Q0.75 2.3 0.7 2.45 L0.7 2.65 0.55 2.45 Q0.45 2.4 0.45 2.3 L0.45 2.25 0.4 2.1 0.35 1.9 Q0.3 1.75 0.15 1.65 L0.15 1.7 Q0.1 1.7 0.1 1.8 L-0.05 1.9 Q-0.15 1.9 -0.15 2.05 L-0.15 2.1 -0.2 2.2 -0.2 2.4 -0.15 2.5 -0.05 2.5 0.0 2.55 0.0 2.7 0.0 2.75 Q-0.1 2.8 -0.15 2.8 L-0.2 2.85 Q-0.25 2.9 -0.15 3.0 L-0.1 3.0 0.0 2.95 0.05 3.0 0.05 3.05 Q0.05 3.15 0.15 3.2 L0.2 3.25 0.2 3.35 0.15 3.45 0.15 3.5 0.05 3.55 0.0 3.55 Q0.0 3.65 0.05 3.7 L-0.05 3.85 -0.1 3.85 -0.1 3.85 -0.2 3.75 -0.25 3.75 -0.25 3.75 -0.35 3.85 -0.4 3.85 Q-0.45 3.8 -0.5 3.7 L-0.5 3.65 -0.55 3.6 Q-0.65 3.5 -0.7 3.35 L-0.7 3.3 -0.55 3.15 -0.55 3.05 -0.6 3.05 -0.6 3.0 Q-0.6 2.9 -0.7 2.9 -0.75 2.9 -0.75 2.8 L-0.7 2.8 -0.7 2.6 -0.65 2.55 -0.55 2.4 Q-0.5 2.35 -0.6 2.25 L-0.65 2.2 -0.65 2.15 -0.7 2.4 -0.8 2.5 -0.8 2.5 -0.9 2.55 -0.9 2.35 -0.9 1.85 -0.9 1.75 -0.9 1.45 -0.9 1.2 -0.9 1.05 -0.9 0.95 -0.95 0.9 -0.95 0.65 -1.0 0.35 -0.95 0.4 -0.8 0.4 -0.8 0.4 Q-0.75 0.3 -0.7 0.35 L-0.65 0.4 Q-0.6 0.4 -0.6 0.45 L-0.55 0.5 -0.55 0.5 -0.55 0.7 -0.5 0.75 -0.5 0.8 -0.45 0.85 -0.4 0.95 -0.4 0.95 -0.35 0.95 Q-0.3 1.0 -0.3 1.05 L-0.25 1.1 -0.2 1.15 -0.15 1.15 Q-0.05 1.1 -0.05 1.0 L-0.05 0.95 Q-0.05 0.85 0.05 0.8 L0.1 0.8 0.15 0.8 0.2 0.75 0.2 0.7 0.25 0.65 Q0.3 0.5 0.25 0.3 L0.3 0.25 Q0.35 0.2 0.3 0.1 L0.3 0.05 0.1 -0.2 0.1 -0.2 Q0.0 -0.25 0.0 -0.35 L0.0 -0.35 0.0 -0.5 0.1 -0.7 0.1 -0.7 0.1 -1.0 0.15 -1.0 0.2 -1.05 0.2 -1.1 0.25 -1.15 0.25 -1.35 0.3 -1.4 0.4 -1.5 0.4 -1.55 Q0.45 -1.65 0.35 -1.75 L0.35 -1.8 0.3 -1.85 Q0.2 -1.9 0.2 -2.0 L0.15 -2.2 0.1 -2.25 0.05 -2.3 Q0.05 -2.4 0.05 -2.55 0.1 -2.65 0.05 -2.7 L0.05 -2.75 Q-0.05 -2.8 -0.05 -2.9 L-0.05 -2.95 0.0 -3.1 0.0 -3.3 0.05 -3.35 0.05 -3.4 0.1 -3.4 0.15 -3.5 0.15 -3.5 Q0.2 -3.6 0.15 -3.65 L-0.1 -3.8 -0.15 -3.8 -0.3 -3.8 -0.3 -3.85 -0.35 -3.9 -0.3 -4.0 -0.25 -4.05 Q-0.25 -4.1 -0.25 -4.15 L-0.45 -4.2 -0.5 -4.2 -0.65 -4.05 -0.65 -4.0 -0.6 -3.85 -0.55 -3.75 -0.55 -3.65 -0.55 -3.45 Q-0.6 -3.65 -0.75 -3.75 L-0.8 -3.8 -0.85 -3.85 -0.9 -3.85 -1.0 -3.95" fill="#101b2e" fill-rule="evenodd" stroke="none"/>
    <path d="M1.1 -3.45 L1.1 -3.3 1.1 -3.1 1.1 -2.7 1.1 -2.45 1.1 -2.4 1.15 -2.2 1.15 -2.15 1.15 -2.15 1.0 -2.35 0.9 -2.45 0.85 -2.5 0.85 -2.55 0.85 -2.8 0.8 -2.8 0.8 -2.85 0.85 -2.9 Q0.95 -3.0 0.95 -3.1 L0.9 -3.15 0.85 -3.25 0.8 -3.3 0.8 -3.4 Q0.7 -3.4 0.7 -3.5 L0.7 -3.5 Q0.75 -3.6 0.8 -3.55 L0.85 -3.5 Q0.9 -3.4 0.95 -3.5 L0.95 -3.5 1.05 -3.45 1.05 -3.45 1.1 -3.45 M0.75 1.6 L0.8 2.45 0.75 2.8 0.7 3.1 0.7 3.2 Q0.65 3.25 0.65 3.35 L0.65 3.5 0.6 3.6 0.55 3.7 0.5 3.8 0.5 3.85 0.5 3.9 0.45 4.0 0.35 4.05 0.35 4.1 0.3 4.1 0.2 4.15 0.15 4.15 0.05 4.2 -0.05 4.2 -0.05 4.2 -0.1 4.2 -0.25 4.2 -0.3 4.2 -0.35 4.25 -0.4 4.2 -0.4 4.15 -0.45 4.15 -0.5 4.1 -0.6 3.95 -0.65 3.95 -0.7 3.8 -0.7 3.75 -0.75 3.6 -0.8 3.4 -0.85 3.3 -0.85 2.85 -0.9 2.75 -0.9 2.55 -0.8 2.5 -0.8 2.5 -0.7 2.4 -0.65 2.15 -0.65 2.2 -0.6 2.25 Q-0.5 2.35 -0.55 2.4 L-0.65 2.55 -0.7 2.6 -0.7 2.8 -0.75 2.8 Q-0.75 2.9 -0.7 2.9 -0.6 2.9 -0.6 3.0 L-0.6 3.05 -0.55 3.05 -0.55 3.15 -0.7 3.3 -0.7 3.35 Q-0.65 3.5 -0.55 3.6 L-0.5 3.65 -0.5 3.7 Q-0.45 3.8 -0.4 3.85 L-0.35 3.85 -0.25 3.75 -0.25 3.75 -0.2 3.75 -0.1 3.85 -0.1 3.85 -0.05 3.85 0.05 3.7 Q0.0 3.65 0.0 3.55 L0.05 3.55 0.15 3.5 0.15 3.45 0.2 3.35 0.2 3.25 0.15 3.2 Q0.05 3.15 0.05 3.05 L0.05 3.0 0.0 2.95 -0.1 3.0 -0.15 3.0 Q-0.25 2.9 -0.2 2.85 L-0.15 2.8 Q-0.1 2.8 0.0 2.75 L0.0 2.7 0.0 2.55 -0.05 2.5 -0.15 2.5 -0.2 2.4 -0.2 2.2 -0.15 2.1 -0.15 2.05 Q-0.15 1.9 -0.05 1.9 L0.1 1.8 Q0.1 1.7 0.15 1.7 L0.15 1.65 Q0.3 1.75 0.35 1.9 L0.4 2.1 0.45 2.25 0.45 2.3 Q0.45 2.4 0.55 2.45 L0.7 2.65 0.7 2.45 Q0.75 2.3 0.7 2.2 L0.7 2.1 0.75 1.9 0.75 1.7 0.75 1.6 M-1.05 0.0 L-1.1 -0.95 -1.1 -1.5 -1.1 -1.7 -1.1 -1.9 -1.1 -2.05 -1.05 -2.3 -1.05 -2.35 -1.1 -2.8 -1.1 -3.0 -1.15 -3.1 -1.1 -3.15 -1.1 -3.2 -1.05 -3.25 -1.0 -3.25 -0.95 -3.2 Q-0.9 -3.15 -0.85 -3.2 L-0.8 -3.25 -0.8 -3.15 -0.85 -3.1 -0.9 -3.1 -0.9 -3.1 -0.95 -3.0 Q-0.95 -2.85 -0.85 -2.8 -0.75 -2.75 -0.8 -2.65 L-0.8 -2.55 -0.8 -2.4 -0.75 -2.3 -0.75 -2.3 -0.8 -2.25 -0.85 -2.2 Q-0.9 -2.2 -0.9 -2.25 -1.0 -2.1 -0.95 -1.95 L-0.9 -1.95 Q-0.9 -1.9 -0.9 -1.8 L-0.9 -1.8 -0.8 -1.55 -0.75 -1.5 Q-0.75 -1.4 -0.75 -1.35 L-0.85 -1.1 -0.8 -0.9 Q-0.7 -0.8 -0.8 -0.7 -0.8 -0.7 -0.85 -0.7 L-0.95 -0.7 -0.95 -0.7 -1.0 -0.6 -1.05 -0.6 -1.05 -0.15 -1.05 0.0" fill="#0b1320" fill-rule="evenodd" stroke="none"/>
    <path d="M-1.0 0.35 L-1.0 0.2 -1.0 0.05 -1.05 0.0 -1.05 -0.15 -1.05 -0.6 -1.0 -0.6 -0.95 -0.7 -0.95 -0.7 -0.85 -0.7 Q-0.8 -0.7 -0.8 -0.7 -0.7 -0.8 -0.8 -0.9 L-0.85 -1.1 -0.75 -1.35 Q-0.75 -1.4 -0.75 -1.5 L-0.8 -1.55 -0.9 -1.8 -0.9 -1.8 Q-0.9 -1.9 -0.9 -1.95 L-0.95 -1.95 Q-1.0 -2.1 -0.9 -2.25 -0.9 -2.2 -0.85 -2.2 L-0.8 -2.25 -0.75 -2.3 -0.75 -2.3 -0.8 -2.4 -0.8 -2.55 -0.8 -2.65 Q-0.75 -2.75 -0.85 -2.8 -0.95 -2.85 -0.95 -3.0 L-0.9 -3.1 -0.9 -3.1 -0.85 -3.1 -0.8 -3.15 -0.8 -3.25 -0.8 -3.35 Q-0.75 -3.45 -0.65 -3.45 L-0.6 -3.45 -0.55 -3.45 -0.55 -3.65 -0.55 -3.75 -0.6 -3.85 -0.65 -4.0 -0.65 -4.05 -0.5 -4.2 -0.45 -4.2 -0.25 -4.15 Q-0.25 -4.1 -0.25 -4.05 L-0.3 -4.0 -0.35 -3.9 -0.3 -3.85 -0.3 -3.8 -0.15 -3.8 -0.1 -3.8 0.15 -3.65 Q0.2 -3.6 0.15 -3.5 L0.15 -3.5 0.1 -3.4 0.05 -3.4 0.05 -3.35 0.0 -3.3 0.0 -3.1 -0.05 -2.95 -0.05 -2.9 Q-0.05 -2.8 0.05 -2.75 L0.05 -2.7 Q0.1 -2.65 0.05 -2.55 0.05 -2.4 0.05 -2.3 L0.1 -2.25 0.15 -2.2 0.2 -2.0 Q0.2 -1.9 0.3 -1.85 L0.35 -1.8 0.35 -1.75 Q0.45 -1.65 0.4 -1.55 L0.4 -1.5 0.3 -1.4 0.25 -1.35 0.25 -1.15 0.2 -1.1 0.2 -1.05 0.15 -1.0 0.1 -1.0 0.1 -0.7 0.1 -0.7 0.0 -0.5 0.0 -0.35 0.0 -0.35 Q0.0 -0.25 0.1 -0.2 L0.1 -0.2 0.3 0.05 0.3 0.1 Q0.35 0.2 0.3 0.25 L0.25 0.3 Q0.3 0.5 0.25 0.65 L0.2 0.7 0.2 0.75 0.15 0.8 0.1 0.8 0.05 0.8 Q-0.05 0.85 -0.05 0.95 L-0.05 1.0 Q-0.05 1.1 -0.15 1.15 L-0.2 1.15 -0.25 1.1 -0.3 1.05 Q-0.3 1.0 -0.35 0.95 L-0.4 0.95 -0.4 0.95 -0.45 0.85 -0.5 0.8 -0.5 0.75 -0.55 0.7 -0.55 0.5 -0.55 0.5 -0.6 0.45 Q-0.6 0.4 -0.65 0.4 L-0.7 0.35 Q-0.75 0.3 -0.8 0.4 L-0.8 0.4 -0.95 0.4 -1.0 0.35" fill="#132243" fill-rule="evenodd" stroke="none"/>
    <path d="M-1.15 -3.1 L-1.1 -3.2 -1.1 -3.3 -1.1 -3.55 -1.1 -3.6 -1.05 -3.65 -1.0 -3.8 -1.0 -3.95 -0.9 -3.85 -0.85 -3.85 -0.8 -3.8 -0.75 -3.75 Q-0.6 -3.65 -0.55 -3.45 L-0.6 -3.45 -0.65 -3.45 Q-0.75 -3.45 -0.8 -3.35 L-0.8 -3.25 -0.85 -3.2 Q-0.9 -3.15 -0.95 -3.2 L-1.0 -3.25 -1.05 -3.25 -1.1 -3.2 -1.1 -3.15 -1.15 -3.1" fill="#080d17" fill-rule="evenodd" stroke="none"/>
    <path d="M-1.0 -3.95 L-1.0 -4.0 -0.95 -4.05 -0.7 -4.4 -0.7 -4.45 Q-0.6 -4.5 -0.5 -4.5 L-0.4 -4.55 -0.4 -4.6 -0.2 -4.6 -0.2 -4.6 0.0 -4.55 0.0 -4.55 0.15 -4.5 Q0.2 -4.5 0.25 -4.45 L0.35 -4.45 0.4 -4.45 0.45 -4.45 Q0.65 -4.4 0.75 -4.15 L0.8 -4.15 0.9 -3.95 0.95 -3.9 0.95 -3.85 1.0 -3.65 1.05 -3.5 1.1 -3.45 1.1 -3.3 1.1 -3.1 1.1 -2.7 1.1 -2.45 1.1 -2.4 1.15 -2.2 1.15 -2.15 1.15 -2.05 1.15 -1.7 1.15 -1.65 Q1.1 -1.55 1.1 -1.4 L1.1 -1.35 1.1 -1.05 1.05 -0.85 1.05 -0.5 1.0 -0.2 0.9 0.2 0.9 0.35 0.85 0.6 0.85 0.65 0.8 0.8 0.8 1.05 0.8 1.35 0.75 1.4 0.75 1.6 0.8 2.45 0.75 2.8 0.7 3.1 0.7 3.2 Q0.65 3.25 0.65 3.35 L0.65 3.5 0.6 3.6 0.55 3.7 0.5 3.8 0.5 3.85 M-0.5 4.1 L-0.6 3.95 -0.65 3.95 -0.7 3.8 -0.7 3.75 -0.75 3.6 -0.8 3.4 -0.85 3.3 -0.85 2.85 -0.9 2.75 -0.9 2.55 -0.9 2.35 -0.9 1.85 -0.9 1.75 -0.9 1.45 -0.9 1.2 -0.9 1.05 -0.9 0.95 -0.95 0.9 -0.95 0.65 -1.0 0.35 -1.0 0.2 -1.0 0.05 -1.05 0.0 -1.1 -0.95 -1.1 -1.5 -1.1 -1.7 -1.1 -1.9 -1.1 -2.05 -1.05 -2.3 -1.05 -2.35 -1.1 -2.8 -1.1 -3.0 -1.15 -3.1 -1.1 -3.2 -1.1 -3.3 -1.1 -3.55 -1.1 -3.6 -1.05 -3.65 -1.0 -3.8 -1.0 -3.95" fill="none" stroke="#000000" stroke-linecap="round" stroke-linejoin="round" stroke-opacity="0.4509804" stroke-width="0.1"/>
  </g>
</svg>
