<?xml version="1.0" encoding="UTF-8" standalone="no"?>
<svg xmlns:xlink="http://www.w3.org/1999/xlink" height="9.0px" width="2.7px" xmlns="http://www.w3.org/2000/svg">
  <g transform="matrix(1.0, 0.0, 0.0, 1.0, 1.45, 4.75)">
    <path d="M0.4 1.55 L0.35 1.45 0.4 1.3 0.4 1.25 0.25 1.3 Q0.15 1.3 0.1 1.05 0.05 0.85 -0.1 0.9 -0.1 0.55 0.1 0.15 L0.3 -0.3 Q0.35 -0.45 0.45 -0.5 L0.45 -0.6 0.35 -0.55 0.25 -0.55 0.25 -0.75 0.35 -1.05 Q0.45 -1.2 0.45 -1.35 0.45 -1.85 0.3 -1.85 0.15 -1.75 0.05 -1.75 L-0.05 -1.75 Q-0.05 -2.05 -0.5 -2.1 L-0.7 -2.05 -0.95 -2.15 -1.4 -2.45 -1.35 -2.6 -1.3 -3.35 Q-1.25 -3.6 -1.05 -4.05 -0.95 -4.2 -0.95 -4.35 -0.9 -4.35 -0.8 -4.5 L-0.6 -4.65 -0.3 -4.7 Q0.7 -4.7 1.0 -3.85 1.2 -3.35 1.2 -1.95 L1.15 -0.95 1.15 -0.95 1.05 -0.9 1.0 -0.75 0.95 -0.65 0.85 0.15 0.7 1.45 0.65 1.75 0.5 1.75 0.45 1.6 0.4 1.55 M-1.0 1.15 L-1.0 1.2 -0.9 1.35 Q-0.9 1.4 -0.9 1.5 -0.9 1.6 -0.85 1.65 L-0.7 1.85 Q-0.65 2.0 -0.45 1.95 L-0.35 2.3 -0.15 2.6 -0.15 2.65 0.0 2.75 0.15 2.9 0.2 3.1 0.3 3.15 0.4 3.1 0.5 3.25 0.6 3.25 0.65 3.15 Q0.65 3.05 0.7 3.05 0.8 3.05 0.8 3.2 L0.75 3.55 0.65 3.7 0.5 3.75 0.35 3.9 0.2 3.95 -0.15 4.0 -0.6 3.85 -0.65 3.75 -0.7 3.65 -0.85 3.55 -0.8 3.35 Q-0.85 3.35 -0.95 3.3 L-0.95 3.3 -0.95 2.75 Q-0.95 2.3 -1.05 2.0 L-1.1 1.6 -1.15 1.25 -1.3 0.3 -1.35 0.25 Q-1.25 0.4 -1.2 0.6 L-1.1 1.05 -1.0 1.15" fill="#12110d" fill-rule="evenodd" stroke="none"/>
    <path d="M-0.5 -2.1 Q-0.05 -2.05 -0.05 -1.75 L0.05 -1.75 Q0.15 -1.75 0.3 -1.85 0.45 -1.85 0.45 -1.35 0.45 -1.2 0.35 -1.05 L0.25 -0.75 0.25 -0.55 0.35 -0.55 0.45 -0.6 0.45 -0.5 Q0.35 -0.45 0.3 -0.3 L0.1 0.15 Q-0.1 0.55 -0.1 0.9 0.05 0.85 0.1 1.05 0.15 1.3 0.25 1.3 L0.4 1.25 0.4 1.3 0.35 1.45 0.4 1.55 Q0.4 1.75 0.3 1.95 L0.1 2.25 Q0.05 2.35 0.05 2.5 L-0.1 2.55 -0.15 2.65 -0.15 2.6 -0.35 2.3 -0.45 1.95 Q-0.65 2.0 -0.7 1.85 L-0.85 1.65 Q-0.9 1.6 -0.9 1.5 -0.9 1.4 -0.9 1.35 L-1.0 1.2 -1.0 1.15 -1.0 0.45 -0.95 -0.05 Q-0.95 -0.35 -0.95 -0.5 -1.0 -0.8 -0.75 -1.45 -0.55 -1.9 -0.5 -2.1" fill="#201f18" fill-rule="evenodd" stroke="none"/>
    <path d="M0.4 1.55 L0.45 1.6 0.5 1.75 0.65 1.75 0.7 1.45 0.85 0.15 0.95 -0.65 1.0 -0.75 1.05 -0.9 1.15 -0.95 1.15 -0.95 1.15 -0.7 1.0 0.6 Q0.95 1.0 0.95 1.9 0.95 2.3 0.9 2.8 L0.95 3.1 Q0.95 3.35 0.85 3.6 L0.8 3.75 0.8 3.85 0.7 4.0 Q0.65 4.05 0.35 4.2 0.2 4.25 -0.1 4.25 -0.45 4.25 -0.7 4.05 L-0.85 3.85 Q-0.95 3.7 -0.95 3.5 L-0.95 3.3 -0.95 3.3 Q-0.85 3.35 -0.8 3.35 L-0.85 3.55 -0.7 3.65 -0.65 3.75 -0.6 3.85 -0.15 4.0 0.2 3.95 0.35 3.9 0.5 3.75 0.65 3.7 0.75 3.55 0.8 3.2 Q0.8 3.05 0.7 3.05 0.65 3.05 0.65 3.15 L0.6 3.25 0.5 3.25 0.4 3.1 0.3 3.15 0.2 3.1 0.15 2.9 0.0 2.75 -0.15 2.65 -0.1 2.55 0.05 2.5 Q0.05 2.35 0.1 2.25 L0.3 1.95 Q0.4 1.75 0.4 1.55 M-1.4 -2.45 L-0.95 -2.15 -0.7 -2.05 -0.5 -2.1 Q-0.55 -1.9 -0.75 -1.45 -1.0 -0.8 -0.95 -0.5 -0.95 -0.35 -0.95 -0.05 L-1.0 0.45 -1.0 1.15 -1.1 1.05 -1.2 0.6 Q-1.25 0.4 -1.35 0.25 L-1.4 -0.65 -1.4 -2.45" fill="#191813" fill-rule="evenodd" stroke="none"/>
    <path d="M1.15 -0.95 L1.2 -1.95 Q1.2 -3.35 1.0 -3.85 0.7 -4.7 -0.3 -4.7 L-0.6 -4.65 -0.8 -4.5 Q-0.9 -4.35 -0.95 -4.35 -0.95 -4.2 -1.05 -4.05 -1.25 -3.6 -1.3 -3.35 L-1.35 -2.6 -1.4 -2.45 -1.4 -0.65 -1.35 0.25 -1.3 0.3 -1.15 1.25 -1.1 1.6 -1.05 2.0 Q-0.95 2.3 -0.95 2.75 L-0.95 3.3 -0.95 3.5 Q-0.95 3.7 -0.85 3.85 M1.15 -0.95 L1.15 -0.7 1.0 0.6 Q0.95 1.0 0.95 1.9 0.95 2.3 0.9 2.8 L0.95 3.1 Q0.95 3.35 0.85 3.6 L0.8 3.75 0.8 3.85" fill="none" stroke="#000000" stroke-linecap="round" stroke-linejoin="round" stroke-opacity="0.4509804" stroke-width="0.1"/>
  </g>
</svg>
