<?xml version="1.0" encoding="UTF-8" standalone="no"?>
<svg xmlns:xlink="http://www.w3.org/1999/xlink" height="13.5px" width="8.7px" xmlns="http://www.w3.org/2000/svg">
  <g transform="matrix(1.0, 0.0, 0.0, 1.0, 4.45, 6.65)">
    <path d="M1.0 -6.1 Q0.85 -6.3 0.25 -6.3 L0.15 -6.25 -0.05 -6.25 Q-0.25 -6.25 -0.7 -5.85 L-1.05 -5.05 -0.7 -4.5 -0.7 -4.3 -0.75 -4.1 -0.9 -3.6 -1.0 -3.35 -1.1 -2.85 -1.15 -2.6 -1.2 -2.65 -1.2 -2.65 -1.4 -2.8 Q-1.6 -2.9 -1.6 -3.1 -1.55 -3.2 -1.7 -3.25 L-1.85 -3.35 -1.9 -3.55 Q-1.95 -3.55 -2.05 -3.6 L-2.25 -3.15 -2.35 -2.7 -2.35 -2.65 -2.25 -2.6 -2.25 -2.55 Q-2.4 -2.6 -2.5 -2.35 L-2.5 -2.45 -2.45 -2.8 -2.4 -3.1 Q-2.4 -3.7 -2.25 -3.95 L-1.8 -3.85 -1.5 -4.1 -1.25 -3.95 Q-1.15 -3.95 -1.05 -4.2 L-1.05 -4.3 -1.15 -3.8 Q-1.3 -3.35 -1.5 -3.3 L-1.4 -3.1 -1.25 -3.0 -1.05 -3.55 -1.0 -3.75 Q-0.9 -4.05 -0.9 -4.25 L-0.95 -4.4 -1.0 -4.5 -1.0 -4.5 -1.05 -4.55 -1.35 -4.65 -1.45 -4.7 -1.65 -4.75 -1.65 -4.8 -1.75 -4.9 Q-1.8 -5.0 -1.8 -5.1 -1.8 -5.3 -1.6 -5.4 L-1.35 -5.6 -1.2 -5.8 -1.0 -5.85 Q-0.95 -5.9 -0.95 -6.0 -0.9 -6.1 -0.85 -6.05 L-0.7 -6.4 -0.4 -6.5 0.55 -6.6 Q1.05 -6.6 1.5 -6.3 L1.65 -6.15 1.8 -5.95 2.0 -5.85 Q2.15 -5.8 2.15 -5.7 L2.2 -5.6 2.35 -5.5 2.4 -5.4 2.45 -5.25 2.65 -5.05 2.65 -4.9 2.7 -4.7 2.2 -4.4 2.2 -4.35 Q1.55 -3.95 1.55 -3.85 L1.55 -3.7 1.6 -3.65 1.85 -3.6 Q2.1 -3.6 2.3 -3.7 L2.65 -3.8 2.7 -3.9 2.8 -3.85 2.85 -3.7 2.95 -3.6 3.0 -3.6 2.65 -3.4 2.65 -3.4 2.75 -3.55 2.6 -3.55 2.15 -3.1 Q2.0 -2.85 2.0 -2.35 L2.0 -2.15 2.15 -2.0 2.2 -1.75 Q2.25 -1.6 2.35 -1.6 L2.55 -1.7 2.85 -1.8 2.9 -1.55 2.85 -1.55 2.75 -1.55 Q2.8 -1.3 2.7 -1.05 2.65 -0.75 2.45 -0.5 L2.2 -0.1 2.1 -0.25 2.35 -0.6 Q2.6 -0.95 2.6 -1.35 L2.6 -1.55 2.55 -1.55 2.45 -1.35 2.35 -1.2 Q2.35 -1.1 2.2 -1.05 2.15 -1.0 2.15 -0.9 L2.1 -0.9 Q2.05 -1.1 1.7 -1.25 1.45 -1.4 1.25 -1.4 L1.15 -1.35 Q1.1 -1.35 1.1 -1.45 0.95 -1.25 0.9 -1.1 L0.9 -0.45 0.9 -0.45 0.95 -0.6 1.0 -0.7 1.05 -0.7 1.0 -0.45 Q1.05 -0.35 1.25 -0.3 L1.55 -0.25 Q1.75 -0.25 1.75 -0.05 1.9 0.05 2.0 0.25 L2.05 0.45 1.95 0.35 1.65 0.15 1.6 0.1 1.55 0.1 Q1.4 0.0 1.2 0.0 L1.2 0.5 1.45 0.6 1.6 0.5 1.7 0.45 Q1.85 0.6 2.05 0.7 L2.2 0.75 2.45 0.85 2.55 1.0 2.5 1.3 2.4 1.25 2.3 1.35 2.25 1.3 2.2 1.3 2.15 1.3 2.15 1.35 2.1 1.35 Q1.75 0.7 1.6 0.7 1.55 0.7 1.45 0.75 L1.3 0.75 Q1.3 0.95 1.2 0.95 L1.15 0.85 Q1.15 0.8 1.05 0.8 L0.95 0.75 0.85 0.65 0.75 0.7 0.7 0.35 0.65 0.2 0.6 -0.2 0.6 -0.3 0.65 -0.95 Q0.65 -1.4 0.75 -1.95 L0.9 -2.75 1.05 -3.6 1.2 -4.5 1.3 -4.6 1.6 -4.75 2.05 -4.85 Q2.2 -4.9 2.2 -5.1 2.2 -5.25 2.1 -5.35 1.9 -5.45 1.85 -5.55 1.75 -5.7 1.55 -5.75 1.35 -5.85 1.3 -5.9 L1.0 -6.1 M3.3 3.9 L3.5 3.95 3.35 4.1 Q3.3 4.15 3.3 4.3 L3.3 4.45 Q3.35 4.5 3.5 4.45 3.5 4.5 3.5 4.55 L3.5 4.65 3.55 5.3 3.5 5.3 Q3.55 5.05 3.35 4.95 3.15 4.8 3.1 4.6 3.1 4.55 3.05 4.5 L2.9 4.4 2.85 4.4 3.25 4.4 3.25 4.05 3.3 3.9 M-2.4 0.4 L-2.4 0.05 -2.3 0.05 Q-2.25 0.05 -2.2 -0.3 L-2.2 -0.7 -2.0 -1.4 Q-2.0 -1.45 -2.1 -1.6 L-2.05 -1.75 -2.1 -2.0 -2.1 -2.1 Q-1.9 -2.05 -1.9 -1.9 -1.8 -1.9 -1.8 -2.05 L-1.7 -2.05 -1.55 -1.9 -1.75 -1.4 -1.75 -1.3 Q-1.85 -0.9 -1.9 -0.5 L-1.95 -0.4 -1.95 0.4 -2.05 0.5 Q-2.2 0.7 -2.35 0.7 -2.35 0.6 -2.45 0.6 L-2.4 0.5 -2.4 0.45 -2.4 0.45 -2.4 0.4 M1.35 -3.25 L1.45 -3.65 1.3 -3.65 Q1.2 -3.65 1.2 -3.55 L1.1 -3.0 Q1.0 -2.6 1.0 -1.45 L1.05 -1.6 1.15 -1.65 1.25 -1.7 1.2 -1.9 1.25 -1.95 1.3 -2.0 1.3 -2.05 1.25 -2.15 Q1.25 -2.2 1.3 -2.2 1.35 -2.25 1.35 -2.3 L1.3 -2.4 1.45 -2.6 1.3 -2.7 1.3 -2.95 1.35 -3.25" fill="#416231" fill-rule="evenodd" stroke="none"/>
    <path d="M0.15 -6.25 Q-0.15 -6.2 -0.35 -5.9 -0.6 -5.55 -0.65 -5.1 L-0.7 -4.5 -1.05 -5.05 -0.7 -5.85 Q-0.25 -6.25 -0.05 -6.25 L0.15 -6.25 M1.2 -4.5 L1.2 -4.7 1.15 -4.9 Q1.05 -5.45 1.0 -6.0 L1.0 -6.1 1.3 -5.9 Q1.35 -5.85 1.55 -5.75 1.75 -5.7 1.85 -5.55 1.9 -5.45 2.1 -5.35 2.2 -5.25 2.2 -5.1 2.2 -4.9 2.05 -4.85 L1.6 -4.75 1.3 -4.6 1.2 -4.5 M-1.35 -4.65 L-1.05 -4.55 -1.0 -4.5 -1.0 -4.5 -0.95 -4.4 -0.9 -4.25 Q-0.9 -4.05 -1.0 -3.75 L-1.05 -3.55 -1.25 -3.0 -1.4 -3.1 -1.5 -3.3 Q-1.3 -3.35 -1.15 -3.8 L-1.05 -4.3 -1.05 -4.2 Q-1.15 -3.95 -1.25 -3.95 L-1.5 -4.1 -1.5 -4.15 -1.7 -4.35 Q-1.5 -4.5 -1.35 -4.65 M-2.5 -2.35 Q-2.4 -2.6 -2.25 -2.55 L-2.25 -2.6 -2.35 -2.65 -2.35 -2.7 -2.25 -3.15 -2.05 -3.6 Q-1.95 -3.55 -1.9 -3.55 L-1.85 -3.35 -1.7 -3.25 Q-1.55 -3.2 -1.6 -3.1 -1.6 -2.9 -1.4 -2.8 L-1.2 -2.65 -1.2 -2.65 -1.15 -2.6 -1.15 -2.55 -1.3 -2.3 -1.55 -1.9 -1.7 -2.05 -1.8 -2.05 Q-1.8 -1.9 -1.9 -1.9 -1.9 -2.05 -2.1 -2.1 L-2.1 -2.0 -2.05 -1.75 -2.1 -1.6 Q-2.0 -1.45 -2.0 -1.4 L-2.2 -0.7 -2.2 -0.3 Q-2.25 0.05 -2.3 0.05 L-2.4 0.05 -2.45 -0.55 Q-2.45 -0.75 -2.4 -0.95 -2.3 -1.1 -2.3 -1.4 -2.3 -1.7 -2.4 -1.95 L-2.5 -2.25 -2.5 -2.35 M2.2 -4.4 L2.7 -4.15 2.7 -3.9 2.65 -3.8 2.3 -3.7 Q2.1 -3.6 1.85 -3.6 L1.6 -3.65 1.55 -3.7 1.55 -3.85 Q1.55 -3.95 2.2 -4.35 L2.2 -4.4 M3.55 -3.75 L3.6 -3.75 3.7 -3.6 Q3.6 -3.35 3.65 -3.25 3.65 -3.15 3.6 -3.1 L3.5 -2.95 Q3.4 -2.85 3.45 -2.55 L3.4 -2.2 3.3 -1.85 3.1 -1.5 Q3.2 -1.1 2.7 -1.05 2.8 -1.3 2.75 -1.55 L2.85 -1.55 2.9 -1.55 2.85 -1.8 2.55 -1.7 2.35 -1.6 Q2.25 -1.6 2.2 -1.75 L2.15 -2.0 2.0 -2.15 2.0 -2.35 Q2.0 -2.85 2.15 -3.1 L2.6 -3.55 2.75 -3.55 2.65 -3.4 2.65 -3.4 3.0 -3.6 3.15 -3.65 3.15 -3.55 Q3.25 -3.55 3.25 -3.65 L3.35 -3.6 3.45 -3.7 Q3.5 -3.75 3.55 -3.75 M2.2 -0.1 L2.0 0.2 2.0 0.25 Q1.9 0.05 1.75 -0.05 1.75 -0.25 1.55 -0.25 L1.25 -0.3 Q1.05 -0.35 1.0 -0.45 L1.05 -0.7 1.0 -0.7 0.95 -0.6 0.9 -0.45 0.9 -0.45 0.9 -1.1 Q0.95 -1.25 1.1 -1.45 1.1 -1.35 1.15 -1.35 L1.25 -1.4 Q1.45 -1.4 1.7 -1.25 2.05 -1.1 2.1 -0.9 L2.15 -0.9 Q2.15 -1.0 2.2 -1.05 2.35 -1.1 2.35 -1.2 L2.45 -1.35 2.55 -1.55 2.6 -1.55 2.6 -1.35 Q2.6 -0.95 2.35 -0.6 L2.1 -0.25 2.2 -0.1 M2.05 0.45 L2.2 0.75 2.05 0.7 Q1.85 0.6 1.7 0.45 L1.6 0.5 1.45 0.6 1.2 0.5 1.2 0.0 Q1.4 0.0 1.55 0.1 L1.6 0.1 1.65 0.15 1.95 0.35 2.05 0.45 M1.35 -3.25 L1.3 -2.95 1.3 -2.7 1.45 -2.6 1.3 -2.4 1.35 -2.3 Q1.35 -2.25 1.3 -2.2 1.25 -2.2 1.25 -2.15 L1.3 -2.05 1.3 -2.0 1.25 -1.95 1.2 -1.9 1.25 -1.7 1.15 -1.65 1.05 -1.6 1.0 -1.45 Q1.0 -2.6 1.1 -3.0 L1.2 -3.55 Q1.2 -3.65 1.3 -3.65 L1.45 -3.65 1.35 -3.25" fill="#344f27" fill-rule="evenodd" stroke="none"/>
    <path d="M2.7 -4.7 L2.65 -4.9 2.65 -5.05 2.45 -5.25 2.4 -5.4 2.35 -5.5 2.2 -5.6 2.15 -5.7 Q2.15 -5.8 2.0 -5.85 L1.8 -5.95 1.65 -6.15 1.5 -6.3 Q1.75 -6.2 2.0 -5.95 2.55 -5.5 2.95 -4.85 L2.7 -4.7 M-0.7 -6.4 L-0.85 -6.05 Q-0.9 -6.1 -0.95 -6.0 -0.95 -5.9 -1.0 -5.85 L-1.2 -5.8 -1.35 -5.6 -1.6 -5.4 Q-1.8 -5.3 -1.8 -5.1 -1.8 -5.0 -1.75 -4.9 L-1.65 -4.8 -1.65 -4.75 -2.05 -4.9 Q-1.9 -5.1 -1.65 -5.6 -1.4 -6.0 -1.05 -6.0 -0.95 -6.25 -0.7 -6.4 M-1.5 -4.1 L-1.8 -3.85 -2.25 -3.95 -2.2 -4.0 -1.7 -4.35 -1.5 -4.15 -1.5 -4.1 M2.7 -4.15 L2.95 -4.05 Q3.4 -3.9 3.55 -3.75 3.5 -3.75 3.45 -3.7 L3.35 -3.6 3.25 -3.65 Q3.25 -3.55 3.15 -3.55 L3.15 -3.65 3.0 -3.6 2.95 -3.6 2.85 -3.7 2.8 -3.85 2.7 -3.9 2.7 -4.15" fill="#567437" fill-rule="evenodd" stroke="none"/>
    <path d="M-0.75 -4.1 L-0.7 -3.95 -0.65 -3.55 -0.65 -2.8 -0.6 -2.3 Q-0.55 -2.05 -0.5 -1.95 L-0.45 -1.9 -0.4 -1.9 Q-0.2 -2.0 0.4 -2.75 L0.85 -3.25 0.75 -2.9 0.65 -2.4 Q0.6 -2.3 0.45 -2.25 L0.15 -2.1 Q0.05 -2.0 -0.4 -1.85 L-0.2 -1.75 Q0.0 -1.65 0.05 -1.4 L0.05 -1.3 0.15 -1.1 0.3 -0.8 0.2 -0.75 0.05 -0.75 -0.05 -0.7 Q-0.05 -0.8 -0.15 -0.85 L-0.4 -0.9 Q-0.55 -0.95 -0.8 -1.2 L-0.75 -1.2 Q-0.5 -1.0 -0.3 -1.0 L-0.1 -1.0 0.0 -0.95 0.05 -1.1 -0.3 -1.6 -0.4 -1.65 -0.6 -1.65 -0.6 -1.8 -0.65 -2.45 -0.75 -3.0 -0.9 -3.6 -0.75 -4.1 M0.9 3.65 L1.1 4.05 1.15 4.4 Q1.15 4.55 1.0 4.6 L0.75 4.65 0.35 3.55 -0.05 2.85 -0.25 2.6 -0.2 2.6 Q-0.15 2.6 0.0 2.5 0.1 2.35 0.2 2.3 L0.35 2.45 Q0.35 2.55 0.5 2.65 L0.7 2.8 0.8 3.0 0.85 3.3 0.8 3.3 0.6 3.25 0.45 3.15 Q0.5 3.35 0.65 3.5 L0.9 3.65 M-0.5 5.0 Q-0.6 5.05 -0.7 5.1 -0.8 5.2 -1.0 5.2 L-1.2 5.1 -1.35 5.15 -1.5 5.1 -1.55 5.0 -1.35 4.35 Q-1.15 3.7 -1.15 3.35 -1.15 3.2 -1.25 2.6 L-1.35 2.05 -1.35 1.95 -1.2 1.55 -1.05 1.15 -0.8 1.2 -0.95 1.55 -0.95 1.55 -0.95 1.6 -1.0 2.2 -1.05 3.15 -1.05 3.35 -1.05 3.5 Q-1.0 3.8 -0.8 4.3 L-0.5 5.0 M-2.25 3.75 L-2.35 3.7 -2.3 3.6 -2.25 3.75 M-0.55 -0.5 L-0.6 -0.5 -0.6 -0.5 Q-0.7 -0.5 -0.85 -0.75 L-0.75 -0.8 -0.3 -0.65 -0.45 -0.6 Q-0.5 -0.55 -0.55 -0.5 M-0.45 0.05 L-0.15 0.05 Q0.15 0.0 0.2 0.15 L0.3 0.4 0.15 0.45 -0.35 0.3 -0.35 0.25 -0.45 0.05 M0.05 1.3 L0.25 1.35 0.25 1.55 0.15 2.15 0.1 2.15 Q-0.15 2.35 -0.3 2.35 L-0.4 2.35 -0.5 2.3 -0.45 2.2 0.05 1.3 M0.8 1.3 L0.9 1.25 0.9 1.3 0.8 1.3 M0.3 1.15 L0.25 1.15 0.05 1.1 -0.15 0.65 -0.2 0.5 0.25 0.65 0.25 0.6 0.3 1.15 M1.05 2.1 L1.05 2.15 1.0 2.15 1.05 2.1" fill="#2c4362" fill-rule="evenodd" stroke="none"/>
    <path d="M0.85 -3.25 L1.05 -3.6 0.9 -2.75 0.75 -1.95 0.6 -1.8 0.3 -1.65 0.3 -1.65 0.45 -1.65 Q0.3 -1.45 0.05 -1.3 L0.05 -1.4 Q0.0 -1.65 -0.2 -1.75 L-0.4 -1.85 Q0.05 -2.0 0.15 -2.1 L0.45 -2.25 Q0.6 -2.3 0.65 -2.4 L0.75 -2.9 0.85 -3.25 M-1.15 -2.6 L-1.1 -2.85 -1.0 -3.35 -0.9 -3.6 -0.75 -3.0 -0.65 -2.45 -0.6 -1.8 -0.6 -1.65 -0.4 -1.65 -0.3 -1.6 0.05 -1.1 0.0 -0.95 -0.1 -1.0 -0.3 -1.0 Q-0.5 -1.0 -0.75 -1.2 L-0.8 -1.2 Q-0.55 -0.95 -0.4 -0.9 L-0.15 -0.85 Q-0.05 -0.8 -0.05 -0.7 L-0.1 -0.65 -0.15 -0.65 Q-0.4 -0.55 -0.55 -0.5 -0.5 -0.55 -0.45 -0.6 L-0.3 -0.65 -0.75 -0.8 -0.85 -0.75 Q-0.7 -0.5 -0.6 -0.5 L-0.65 -0.5 -0.7 -0.55 -0.85 -0.55 Q-1.0 -0.6 -1.25 -0.9 L-1.3 -1.1 -1.25 -1.4 -1.3 -1.55 -1.2 -1.65 Q-1.1 -1.75 -1.1 -1.85 L-1.15 -2.4 -1.15 -2.55 -1.15 -2.6 M1.4 3.7 L1.3 3.7 0.9 3.65 0.65 3.5 Q0.5 3.35 0.45 3.15 L0.6 3.25 0.8 3.3 0.85 3.3 0.8 3.0 0.7 2.8 0.5 2.65 Q0.35 2.55 0.35 2.45 L0.45 2.55 Q0.6 2.65 0.7 2.65 0.8 2.65 0.9 2.5 L1.1 2.35 1.15 2.45 1.2 2.65 1.4 3.7 M-2.1 3.9 L-2.25 3.8 -2.25 3.75 -2.3 3.6 -2.25 3.5 -2.15 3.3 -2.1 3.1 -2.0 2.65 -2.0 2.4 -1.95 1.8 -1.95 1.5 -1.95 1.0 -1.95 0.75 -1.95 0.4 -1.95 -0.4 -1.6 -0.3 -1.3 -0.3 -1.3 -0.2 -1.3 -0.1 -1.4 0.6 -1.45 0.85 -1.55 1.05 Q-1.65 1.3 -1.7 1.55 L-1.7 1.6 -1.6 2.6 -1.9 3.25 -2.1 3.9 M0.6 -0.2 L0.65 0.2 0.3 0.4 0.2 0.15 Q0.15 0.0 -0.15 0.05 L-0.45 0.05 -0.55 -0.2 -0.4 -0.2 Q-0.3 -0.1 0.0 -0.1 L0.35 -0.15 0.6 -0.2 M0.7 0.35 L0.75 0.7 0.8 1.0 Q0.8 1.0 0.75 1.05 0.6 1.15 0.6 1.25 L0.3 1.15 0.25 0.6 Q0.55 0.45 0.7 0.35 M-1.1 0.1 Q-0.85 0.0 -0.85 -0.1 L-0.85 -0.15 -0.75 -0.15 -0.7 0.15 -0.65 0.55 Q-0.65 0.7 -0.75 1.05 L-0.8 1.2 -1.05 1.15 -0.95 1.0 Q-0.95 0.8 -1.0 0.6 L-1.05 0.5 -1.1 0.15 -1.1 0.1 M0.25 1.35 L0.6 1.5 0.75 1.35 0.8 1.3 0.9 1.3 0.9 1.45 0.95 1.55 1.0 1.85 1.05 2.1 1.0 2.15 Q0.75 2.3 0.7 2.5 L0.65 2.5 0.35 2.25 0.15 2.15 0.25 1.55 0.25 1.35 M0.5 1.7 Q0.4 1.7 0.4 1.8 0.4 1.85 0.45 1.9 L0.55 1.9 0.65 1.85 Q0.65 1.7 0.5 1.7" fill="#22344d" fill-rule="evenodd" stroke="none"/>
    <path d="M0.75 -1.95 Q0.65 -1.4 0.65 -0.95 L0.6 -0.9 Q0.45 -0.85 0.3 -0.8 L0.15 -1.1 0.05 -1.3 Q0.3 -1.45 0.45 -1.65 L0.3 -1.65 0.3 -1.65 0.6 -1.8 0.75 -1.95 M-1.25 -0.9 L-1.4 -1.0 -1.4 -1.05 -1.6 -1.25 -1.7 -1.35 -1.75 -1.4 -1.55 -1.9 -1.3 -2.3 -1.15 -2.55 -1.15 -2.4 -1.1 -1.85 Q-1.1 -1.75 -1.2 -1.65 L-1.3 -1.55 -1.25 -1.4 -1.3 -1.1 -1.25 -0.9" fill="#1d2d43" fill-rule="evenodd" stroke="none"/>
    <path d="M-1.55 5.0 L-1.7 5.4 -1.85 5.25 Q-1.7 4.95 -1.6 4.45 -1.3 3.65 -1.3 3.45 -1.3 3.35 -1.4 3.3 L-1.7 3.95 -2.1 4.75 -2.15 4.7 Q-2.15 4.55 -2.0 4.3 L-2.05 4.25 -2.1 4.2 -1.95 4.0 -1.95 3.9 -1.6 3.55 -1.6 3.45 -1.7 3.45 -1.7 3.5 -1.75 3.5 -1.6 3.1 -1.6 2.95 -1.55 2.75 -1.5 2.55 -1.35 2.05 -1.25 2.6 Q-1.15 3.2 -1.15 3.35 -1.15 3.7 -1.35 4.35 L-1.55 5.0 M0.65 -0.95 L0.6 -0.3 0.35 -0.25 -0.05 -0.2 Q-0.25 -0.2 -0.25 -0.25 -0.05 -0.3 0.2 -0.45 L0.15 -0.45 -0.4 -0.4 -0.55 -0.4 -0.6 -0.45 0.05 -0.55 Q0.4 -0.65 0.6 -0.9 L0.65 -0.95 M-1.4 -1.0 L-1.25 -0.85 -1.2 -0.75 -1.05 -0.5 -1.15 -0.5 -1.8 -0.8 -1.4 -0.5 -1.55 -0.45 -1.9 -0.5 Q-1.85 -0.9 -1.75 -1.3 L-1.75 -1.4 -1.7 -1.35 -1.6 -1.25 -1.4 -1.05 -1.4 -1.0 M-1.3 -0.1 L-1.3 -0.1 -1.15 0.1 -1.1 0.1 -1.1 0.15 -1.05 0.5 -1.0 0.6 -1.25 1.25 -1.3 1.25 -1.45 0.85 -1.4 0.6 -1.3 -0.1 M-0.75 -0.15 L-0.65 -0.15 -0.55 -0.2 -0.55 -0.2 -0.45 0.05 -0.35 0.25 -0.4 0.25 -0.4 0.35 -0.35 0.45 -0.2 0.75 0.0 1.1 0.0 1.15 -0.05 1.25 -0.2 1.55 -0.35 1.75 -0.35 1.6 -0.35 1.55 -0.45 1.7 -0.55 1.9 -0.65 1.9 Q-0.6 1.95 -0.65 2.05 L-0.75 2.05 Q-0.75 1.95 -0.85 1.75 L-0.95 1.55 -0.95 1.55 -0.8 1.2 -0.75 1.05 Q-0.65 0.7 -0.65 0.55 L-0.7 0.15 -0.75 -0.15 M-0.5 2.3 L-0.3 2.55 -0.25 2.6 -0.05 2.85 -0.15 2.9 Q-0.3 2.95 -0.3 3.0 L0.3 3.85 Q0.55 4.25 0.55 4.5 L0.55 4.7 0.4 4.85 -0.05 5.05 Q-0.2 5.05 -0.45 4.4 -0.7 3.75 -0.65 3.4 L-0.7 3.4 Q-0.8 3.4 -0.75 3.9 L-0.75 3.95 Q-0.85 3.9 -0.95 3.7 L-1.05 3.5 -1.05 3.35 -1.05 3.4 -0.5 2.3" fill="#a8838b" fill-rule="evenodd" stroke="none"/>
    <path d="M0.75 4.65 L0.8 4.9 0.8 5.0 Q0.6 5.0 0.2 5.2 -0.15 5.3 -0.35 5.45 L-0.4 5.45 -0.5 5.0 -0.8 4.3 Q-1.0 3.8 -1.05 3.5 L-0.95 3.7 Q-0.85 3.9 -0.75 3.95 L-0.75 3.9 Q-0.8 3.4 -0.7 3.4 L-0.65 3.4 Q-0.7 3.75 -0.45 4.4 -0.2 5.05 -0.05 5.05 L0.4 4.85 0.55 4.7 0.55 4.5 Q0.55 4.25 0.3 3.85 L-0.3 3.0 Q-0.3 2.95 -0.15 2.9 L-0.05 2.85 0.35 3.55 0.75 4.65 M-1.85 5.25 L-2.0 5.0 -2.1 4.75 -1.7 3.95 -1.4 3.3 Q-1.3 3.35 -1.3 3.45 -1.3 3.65 -1.6 4.45 -1.7 4.95 -1.85 5.25 M-2.1 4.2 L-2.2 4.2 -2.1 3.9 -1.9 3.25 -1.6 2.6 -1.7 1.6 -1.7 1.55 Q-1.65 1.3 -1.55 1.05 L-1.45 0.85 -1.3 1.25 -1.25 1.25 -1.0 0.6 Q-0.95 0.8 -0.95 1.0 L-1.05 1.15 -1.2 1.55 -1.35 1.95 -1.35 2.05 -1.5 2.55 -1.55 2.75 -1.6 2.95 -1.6 3.1 -1.75 3.5 -1.7 3.5 -1.7 3.45 -1.6 3.45 -1.6 3.55 -1.95 3.9 -1.95 4.0 -2.1 4.2 M0.6 -0.3 L0.6 -0.2 0.35 -0.15 0.0 -0.1 Q-0.3 -0.1 -0.4 -0.2 L-0.55 -0.2 -0.55 -0.2 -0.65 -0.15 -0.75 -0.15 -0.85 -0.15 -0.85 -0.1 Q-0.85 0.0 -1.1 0.1 L-1.15 0.1 -1.3 -0.1 -1.3 -0.1 -1.3 -0.2 -1.3 -0.3 -1.6 -0.3 -1.95 -0.4 -1.9 -0.5 -1.55 -0.45 -1.4 -0.5 -1.8 -0.8 -1.15 -0.5 -1.05 -0.5 -1.2 -0.75 -1.25 -0.85 -1.4 -1.0 -1.25 -0.9 Q-1.0 -0.6 -0.85 -0.55 L-0.7 -0.55 -0.65 -0.5 -0.6 -0.5 -0.6 -0.5 -0.55 -0.5 Q-0.4 -0.55 -0.15 -0.65 L-0.1 -0.65 -0.05 -0.7 0.05 -0.75 0.2 -0.75 0.3 -0.8 Q0.45 -0.85 0.6 -0.9 0.4 -0.65 0.05 -0.55 L-0.6 -0.45 -0.55 -0.4 -0.4 -0.4 0.15 -0.45 0.2 -0.45 Q-0.05 -0.3 -0.25 -0.25 -0.25 -0.2 -0.05 -0.2 L0.35 -0.25 0.6 -0.3 M-0.35 0.25 L-0.35 0.3 -0.2 0.5 -0.15 0.65 0.05 1.1 0.1 1.2 0.05 1.3 -0.45 2.2 -0.5 2.3 -0.5 2.3 -1.05 3.4 -1.05 3.35 -1.05 3.15 -1.0 2.2 -0.95 1.6 -0.95 1.55 -0.85 1.75 Q-0.75 1.95 -0.75 2.05 L-0.65 2.05 Q-0.6 1.95 -0.65 1.9 L-0.55 1.9 -0.45 1.7 -0.35 1.55 -0.35 1.6 -0.35 1.75 -0.2 1.55 -0.05 1.25 0.0 1.15 0.0 1.1 -0.2 0.75 -0.35 0.45 -0.4 0.35 -0.4 0.25 -0.35 0.25" fill="#d7b3b9" fill-rule="evenodd" stroke="none"/>
    <path d="M2.55 1.0 L2.7 1.2 2.8 1.35 2.8 1.55 2.8 1.65 2.7 1.85 2.7 1.95 3.05 2.0 Q3.25 2.0 3.4 2.1 L3.45 1.8 3.55 1.9 3.7 2.0 3.7 2.1 3.6 2.4 Q2.75 2.2 2.45 2.2 L2.4 2.0 2.45 1.55 2.45 1.5 2.5 1.3 2.55 1.0 M3.0 1.55 L3.25 1.7 3.3 1.7 3.25 1.75 3.1 1.8 Q2.95 1.8 2.95 1.65 L3.0 1.55 M3.35 3.3 Q3.25 3.25 3.2 3.25 L3.15 3.4 3.1 3.25 3.1 3.0 2.65 3.05 2.3 3.05 2.3 3.75 Q2.3 3.95 2.4 4.0 L2.7 4.0 3.0 4.05 Q2.95 3.95 3.05 3.75 L3.3 3.9 3.25 4.05 3.25 4.4 2.85 4.4 2.75 4.25 Q2.7 4.1 2.65 4.1 2.5 4.1 2.5 4.25 L2.55 4.35 2.35 4.3 Q2.1 4.2 2.1 4.15 L2.05 3.65 2.05 2.75 2.65 2.75 Q3.1 2.75 3.15 2.85 L3.35 3.3 M-3.9 2.75 L-3.75 2.6 -3.55 2.4 -2.9 2.35 Q-2.8 2.45 -2.8 2.7 L-2.85 3.25 Q-2.85 3.4 -3.05 3.4 L-3.35 3.4 -3.6 3.4 -3.85 3.5 -3.9 2.75 M-3.5 1.35 L-3.3 1.25 -3.3 1.45 -2.95 1.45 -2.95 1.15 -2.7 1.05 -2.65 1.5 -2.65 1.65 -3.35 1.65 -3.55 1.65 -3.5 1.55 -3.5 1.35 M0.9 1.25 L0.8 1.0 0.85 1.0 0.9 1.0 1.75 1.15 Q1.9 1.15 1.9 1.55 L1.9 2.45 1.15 2.45 1.1 2.35 1.05 2.15 1.05 2.1 1.15 2.1 1.55 2.15 Q1.65 2.15 1.65 1.85 L1.65 1.55 1.7 1.45 1.7 1.35 0.9 1.3 0.9 1.25 M0.9 1.45 L1.0 1.45 Q1.15 1.45 1.2 1.55 L1.25 1.65 Q1.25 1.8 1.0 1.85 L0.95 1.55 0.9 1.45 M2.7 3.25 Q2.8 3.25 2.85 3.35 L2.9 3.5 2.85 3.6 2.7 3.65 Q2.5 3.65 2.5 3.5 2.5 3.35 2.55 3.3 2.6 3.25 2.7 3.25 M-1.95 0.75 L-1.95 1.0 -2.15 1.05 -2.1 1.4 Q-2.05 1.55 -2.0 1.55 L-1.95 1.5 -1.95 1.8 -2.2 1.9 -2.25 1.55 -2.4 0.9 Q-2.4 0.85 -1.95 0.75 M-2.0 2.65 L-2.15 2.7 Q-2.35 2.8 -2.35 2.85 L-2.2 3.15 -2.15 3.3 -2.25 3.5 -2.4 3.2 -2.65 2.75 -2.0 2.4 -2.0 2.65 M-3.65 3.25 L-3.05 3.2 -3.05 2.55 -3.65 2.6 -3.65 3.25" fill="#cdae47" fill-rule="evenodd" stroke="none"/>
    <path d="M2.8 1.35 L3.0 1.55 2.95 1.65 Q2.95 1.8 3.1 1.8 L3.25 1.75 3.3 1.7 3.45 1.8 3.4 2.1 Q3.25 2.0 3.05 2.0 L2.7 1.95 2.7 1.85 2.8 1.65 2.8 1.55 2.8 1.35 M3.7 2.0 L3.95 2.35 Q4.1 2.6 4.2 2.95 L3.75 2.9 3.75 2.75 3.65 2.6 3.4 2.6 3.4 2.75 Q3.4 2.95 3.45 3.0 L3.65 3.1 3.9 3.3 3.85 3.4 3.9 3.55 3.95 3.7 Q3.85 3.65 3.7 3.6 3.5 3.6 3.5 3.55 L3.4 3.35 3.35 3.3 3.15 2.85 Q3.1 2.75 2.65 2.75 L2.05 2.75 2.05 3.65 2.1 4.15 Q2.1 4.2 2.35 4.3 L2.55 4.35 2.6 4.5 Q2.8 4.6 2.9 4.8 L3.1 5.2 Q3.25 5.5 3.25 5.6 L3.05 5.4 2.9 5.3 2.7 5.3 2.65 5.4 2.6 5.4 Q2.55 5.2 2.35 5.05 L2.3 5.2 2.25 5.35 Q2.25 5.65 2.35 5.95 2.5 6.3 2.75 6.3 L2.75 6.8 Q2.7 6.55 2.45 6.35 2.15 6.1 2.15 5.95 2.1 5.4 1.75 5.2 L1.4 3.7 1.2 2.65 1.15 2.45 1.9 2.45 1.9 1.55 Q1.9 1.15 1.75 1.15 L0.9 1.0 0.85 1.0 0.8 1.0 0.75 0.7 0.85 0.65 0.95 0.75 1.05 0.8 Q1.15 0.8 1.15 0.85 L1.2 0.95 Q1.3 0.95 1.3 0.75 L1.45 0.75 Q1.55 0.7 1.6 0.7 1.75 0.7 2.1 1.35 L2.15 1.35 2.15 1.3 2.2 1.3 2.25 1.3 2.3 1.35 2.4 1.25 2.5 1.3 2.45 1.5 2.45 1.55 2.4 2.0 2.45 2.2 Q2.75 2.2 3.6 2.4 L3.7 2.1 3.7 2.0 M3.15 3.4 L3.1 3.5 3.0 3.6 3.05 3.75 Q2.95 3.95 3.0 4.05 L2.7 4.0 2.4 4.0 Q2.3 3.95 2.3 3.75 L2.3 3.05 2.65 3.05 3.1 3.0 3.1 3.25 3.15 3.4 M-3.5 3.8 Q-3.35 3.6 -3.3 3.45 L-3.5 3.45 -3.6 3.5 -3.7 3.55 -3.8 3.75 -4.0 3.75 Q-4.0 3.55 -4.15 3.45 -4.3 3.35 -4.4 3.4 L-3.9 2.75 -3.85 3.5 -3.6 3.4 -3.35 3.4 -3.05 3.4 Q-2.85 3.4 -2.85 3.25 L-2.8 2.7 Q-2.8 2.45 -2.9 2.35 L-3.55 2.4 -3.4 2.25 -3.45 2.15 -3.55 2.15 Q-3.65 2.15 -3.9 2.3 L-4.0 2.2 -4.25 2.15 Q-4.05 2.05 -3.85 1.75 L-3.75 1.55 Q-3.65 1.4 -3.55 1.35 L-3.5 1.35 -3.5 1.55 -3.55 1.65 -3.35 1.65 -2.65 1.65 -2.65 1.5 -2.7 1.05 -2.7 1.0 Q-2.75 0.9 -2.9 0.9 L-3.2 0.95 -3.15 0.85 -3.05 0.75 -2.95 0.6 -2.9 0.55 -2.65 0.55 Q-2.45 0.55 -2.4 0.4 L-2.4 0.45 -2.4 0.45 -2.4 0.5 -2.45 0.6 Q-2.35 0.6 -2.35 0.7 -2.2 0.7 -2.05 0.5 L-1.95 0.4 -1.95 0.75 Q-2.4 0.85 -2.4 0.9 L-2.25 1.55 -2.2 1.9 -1.95 1.8 -2.0 2.4 -2.65 2.75 -2.4 3.2 -2.25 3.5 -2.3 3.6 -2.3 3.55 Q-2.35 3.5 -2.45 3.5 L-2.45 3.3 -2.5 3.3 Q-2.5 3.35 -2.55 3.4 L-2.6 3.45 -2.65 3.4 -2.75 3.35 Q-2.85 3.35 -2.9 3.5 -2.95 3.65 -3.15 3.65 -3.2 3.65 -3.4 3.75 L-3.5 3.8 M-3.3 1.25 L-2.95 1.15 -2.95 1.45 -3.3 1.45 -3.3 1.25 M0.9 1.3 L1.7 1.35 1.7 1.45 1.65 1.55 1.65 1.85 Q1.65 2.15 1.55 2.15 L1.15 2.1 1.05 2.1 1.0 1.85 Q1.25 1.8 1.25 1.65 L1.2 1.55 Q1.15 1.45 1.0 1.45 L0.9 1.45 0.9 1.3 M2.7 3.25 Q2.6 3.25 2.55 3.3 2.5 3.35 2.5 3.5 2.5 3.65 2.7 3.65 L2.85 3.6 2.9 3.5 2.85 3.35 Q2.8 3.25 2.7 3.25 M-1.95 1.5 L-2.0 1.55 Q-2.05 1.55 -2.1 1.4 L-2.15 1.05 -1.95 1.0 -1.95 1.5 M-2.15 3.3 L-2.2 3.15 -2.35 2.85 Q-2.35 2.8 -2.15 2.7 L-2.0 2.65 -2.1 3.1 -2.15 3.3 M-3.65 3.25 L-3.65 2.6 -3.05 2.55 -3.05 3.2 -3.65 3.25" fill="#5e723d" fill-rule="evenodd" stroke="none"/>
    <path d="M0.65 0.2 L0.7 0.35 Q0.55 0.45 0.25 0.6 L0.25 0.65 -0.2 0.5 -0.35 0.3 0.15 0.45 0.3 0.4 0.65 0.2 M0.05 1.3 L0.1 1.2 0.05 1.1 0.25 1.15 0.3 1.15 0.6 1.25 Q0.6 1.15 0.75 1.05 0.8 1.0 0.8 1.0 L0.9 1.25 0.8 1.3 0.75 1.35 0.6 1.5 0.25 1.35 0.05 1.3 M1.05 2.15 L1.1 2.35 0.9 2.5 Q0.8 2.65 0.7 2.65 0.6 2.65 0.45 2.55 L0.35 2.45 0.2 2.3 Q0.1 2.35 0.0 2.5 -0.15 2.6 -0.2 2.6 L-0.25 2.6 -0.3 2.55 -0.5 2.3 -0.4 2.35 -0.3 2.35 Q-0.15 2.35 0.1 2.15 L0.15 2.15 0.35 2.25 0.65 2.5 0.7 2.5 Q0.75 2.3 1.0 2.15 L1.05 2.15 M0.5 1.7 Q0.65 1.7 0.65 1.85 L0.55 1.9 0.45 1.9 Q0.4 1.85 0.4 1.8 0.4 1.7 0.5 1.7 M-0.5 2.3 L-0.5 2.3" fill="#7e596d" fill-rule="evenodd" stroke="none"/>
    <path d="M-2.35 3.7 L-2.35 3.7 -2.75 4.2 Q-3.1 4.75 -3.3 5.2 L-3.3 4.65 Q-3.3 4.45 -3.0 4.25 -2.75 4.05 -2.8 3.8 L-3.0 3.8 -3.05 4.1 Q-3.25 4.1 -3.65 4.4 L-3.7 3.95 -3.5 3.8 -3.4 3.75 Q-3.2 3.65 -3.15 3.65 -2.95 3.65 -2.9 3.5 -2.85 3.35 -2.75 3.35 L-2.65 3.4 -2.6 3.45 -2.55 3.4 Q-2.5 3.35 -2.5 3.3 L-2.45 3.3 -2.45 3.5 Q-2.35 3.5 -2.3 3.55 L-2.3 3.6 -2.35 3.7" fill="#6a8044" fill-rule="evenodd" stroke="none"/>
    <path d="M1.0 -6.1 Q0.85 -6.3 0.25 -6.3 L0.15 -6.25 Q-0.15 -6.2 -0.35 -5.9 -0.6 -5.55 -0.65 -5.1 L-0.7 -4.5 -0.7 -4.3 -0.75 -4.1 -0.7 -3.95 -0.65 -3.55 -0.65 -2.8 -0.6 -2.3 Q-0.55 -2.05 -0.5 -1.95 L-0.45 -1.9 -0.4 -1.9 Q-0.2 -2.0 0.4 -2.75 L0.85 -3.25 1.05 -3.6 1.2 -4.5 1.2 -4.7 1.15 -4.9 Q1.05 -5.45 1.0 -6.0 L1.0 -6.1 M1.5 -6.3 Q1.05 -6.6 0.55 -6.6 L-0.4 -6.5 -0.7 -6.4 Q-0.95 -6.25 -1.05 -6.0 -1.4 -6.0 -1.65 -5.6 -1.9 -5.1 -2.05 -4.9 L-1.65 -4.75 -1.45 -4.7 -1.35 -4.65 Q-1.5 -4.5 -1.7 -4.35 L-2.2 -4.0 -2.25 -3.95 Q-2.4 -3.7 -2.4 -3.1 L-2.45 -2.8 -2.5 -2.45 -2.5 -2.35 -2.5 -2.25 -2.4 -1.95 Q-2.3 -1.7 -2.3 -1.4 -2.3 -1.1 -2.4 -0.95 -2.45 -0.75 -2.45 -0.55 L-2.4 0.05 -2.4 0.4 -2.4 0.45 -2.4 0.4 Q-2.45 0.55 -2.65 0.55 L-2.9 0.55 -2.95 0.6 -3.05 0.75 -3.15 0.85 -3.2 0.95 -2.9 0.9 Q-2.75 0.9 -2.7 1.0 L-2.7 1.05 -2.95 1.15 -3.3 1.25 -3.5 1.35 -3.55 1.35 Q-3.65 1.4 -3.75 1.55 L-3.85 1.75 Q-4.05 2.05 -4.25 2.15 L-4.0 2.2 -3.9 2.3 Q-3.65 2.15 -3.55 2.15 L-3.45 2.15 -3.4 2.25 -3.55 2.4 -3.75 2.6 -3.9 2.75 -4.4 3.4 Q-4.3 3.35 -4.15 3.45 -4.0 3.55 -4.0 3.75 L-3.8 3.75 -3.7 3.55 -3.6 3.5 -3.5 3.45 -3.3 3.45 Q-3.35 3.6 -3.5 3.8 L-3.7 3.95 -3.65 4.4 Q-3.25 4.1 -3.05 4.1 L-3.0 3.8 -2.8 3.8 Q-2.75 4.05 -3.0 4.25 -3.3 4.45 -3.3 4.65 L-3.3 5.2 Q-3.1 4.75 -2.75 4.2 L-2.35 3.7 -2.35 3.7 -2.25 3.75 -2.25 3.8 -2.1 3.9 -2.2 4.2 -2.1 4.2 -2.05 4.25 -2.0 4.3 Q-2.15 4.55 -2.15 4.7 L-2.1 4.75 -2.0 5.0 -1.85 5.25 -1.7 5.4 -1.55 5.0 -1.5 5.1 -1.35 5.15 -1.2 5.1 -1.0 5.2 Q-0.8 5.2 -0.7 5.1 -0.6 5.05 -0.5 5.0 L-0.4 5.45 -0.35 5.45 Q-0.15 5.3 0.2 5.2 0.6 5.0 0.8 5.0 L0.8 4.9 0.75 4.65 1.0 4.6 Q1.15 4.55 1.15 4.4 L1.1 4.05 0.9 3.65 1.3 3.7 1.4 3.7 1.75 5.2 Q2.1 5.4 2.15 5.95 2.15 6.1 2.45 6.35 2.7 6.55 2.75 6.8 L2.75 6.3 Q2.5 6.3 2.35 5.95 2.25 5.65 2.25 5.35 L2.3 5.2 2.35 5.05 Q2.55 5.2 2.6 5.4 L2.65 5.4 2.7 5.3 2.9 5.3 3.05 5.4 3.25 5.6 Q3.25 5.5 3.1 5.2 L2.9 4.8 Q2.8 4.6 2.6 4.5 L2.55 4.35 2.5 4.25 Q2.5 4.1 2.65 4.1 2.7 4.1 2.75 4.25 L2.85 4.4 2.9 4.4 3.05 4.5 Q3.1 4.55 3.1 4.6 3.15 4.8 3.35 4.95 3.55 5.05 3.5 5.3 L3.55 5.3 3.5 4.65 3.5 4.55 Q3.5 4.5 3.5 4.45 3.35 4.5 3.3 4.45 L3.3 4.3 Q3.3 4.15 3.35 4.1 L3.5 3.95 3.3 3.9 3.05 3.75 3.0 3.6 3.1 3.5 3.15 3.4 3.2 3.25 Q3.25 3.25 3.35 3.3 L3.4 3.35 3.5 3.55 Q3.5 3.6 3.7 3.6 3.85 3.65 3.95 3.7 L3.9 3.55 3.85 3.4 3.9 3.3 3.65 3.1 3.45 3.0 Q3.4 2.95 3.4 2.75 L3.4 2.6 3.65 2.6 3.75 2.75 3.75 2.9 4.2 2.95 Q4.1 2.6 3.95 2.35 L3.7 2.0 3.55 1.9 3.45 1.8 3.3 1.7 3.25 1.7 3.0 1.55 2.8 1.35 2.7 1.2 2.55 1.0 2.45 0.85 2.2 0.75 2.05 0.45 2.0 0.25 2.0 0.2 2.2 -0.1 2.45 -0.5 Q2.65 -0.75 2.7 -1.05 3.2 -1.1 3.1 -1.5 L3.3 -1.85 3.4 -2.2 3.45 -2.55 Q3.4 -2.85 3.5 -2.95 L3.6 -3.1 Q3.65 -3.15 3.65 -3.25 3.6 -3.35 3.7 -3.6 L3.6 -3.75 3.55 -3.75 Q3.4 -3.9 2.95 -4.05 L2.7 -4.15 2.2 -4.4 2.7 -4.7 2.95 -4.85 Q2.55 -5.5 2.0 -5.95 1.75 -6.2 1.5 -6.3 Z" fill="none" stroke="#000000" stroke-linecap="round" stroke-linejoin="round" stroke-opacity="0.4509804" stroke-width="0.1"/>
  </g>
</svg>
