<?xml version="1.0" encoding="UTF-8" standalone="no"?>
<svg xmlns:xlink="http://www.w3.org/1999/xlink" height="2.35px" width="2.2px" xmlns="http://www.w3.org/2000/svg">
  <g transform="matrix(1.0, 0.0, 0.0, 1.0, 1.1, 1.15)">
    <path d="M0.9 0.0 L0.75 0.1 0.6 -0.05 0.6 -0.05 0.8 -0.05 0.85 -0.05 0.9 0.0 M0.7 0.2 L0.7 0.25 0.6 0.35 0.55 0.35 0.45 0.05 0.5 0.05 Q0.55 0.05 0.6 0.15 L0.7 0.2 M0.4 0.4 L0.4 0.45 0.35 0.5 0.3 0.4 0.25 0.4 0.25 0.25 Q0.25 0.15 0.3 0.1 L0.4 0.3 0.4 0.4 M-0.05 0.4 L-0.05 0.55 -0.1 0.6 -0.1 0.7 -0.2 0.75 -0.3 0.65 -0.05 0.3 -0.05 0.4 M-0.9 -0.3 L-0.8 -0.4 -0.75 -0.5 -0.7 -0.5 -0.65 -0.55 -0.65 -0.4 Q-0.65 -0.25 -0.7 -0.25 L-0.75 -0.25 Q-0.8 -0.25 -0.9 -0.3" fill="#f9f6f6" fill-rule="evenodd" stroke="none"/>
    <path d="M-0.6 -0.55 L-0.55 -0.4 -0.5 -0.25 Q-0.5 -0.2 -0.6 -0.15 -0.6 -0.15 -0.65 -0.15 L-0.7 -0.15 -0.7 -0.15 Q-0.7 -0.1 -0.75 -0.1 L-0.85 -0.2 -0.95 -0.15 -1.0 -0.2 -0.9 -0.3 Q-0.8 -0.25 -0.75 -0.25 L-0.7 -0.25 Q-0.65 -0.25 -0.65 -0.4 L-0.65 -0.55 -0.6 -0.55 M-0.3 0.2 Q-0.25 0.2 -0.15 0.1 L-0.2 -0.05 -0.2 -0.1 -0.15 -0.2 -0.05 -0.1 0.2 -0.35 0.45 -0.45 Q0.5 -0.45 0.6 -0.4 L0.7 -0.4 0.7 -0.15 0.85 -0.05 0.8 -0.05 0.6 -0.05 0.6 -0.05 0.75 0.1 0.9 0.0 0.9 0.0 0.95 0.05 0.9 0.05 0.85 0.25 0.75 0.15 0.65 0.1 0.7 0.2 0.6 0.15 Q0.55 0.05 0.5 0.05 L0.45 0.05 0.55 0.35 0.6 0.35 0.7 0.25 0.75 0.35 0.7 0.4 0.6 0.45 0.55 0.35 0.5 0.3 0.45 0.2 0.4 0.3 0.4 0.4 0.4 0.3 0.3 0.1 Q0.25 0.15 0.25 0.25 L0.25 0.4 0.3 0.4 0.35 0.5 0.4 0.45 0.4 0.55 0.35 0.6 0.25 0.65 0.15 0.65 0.15 0.6 0.1 0.5 0.1 0.45 0.05 0.3 0.0 0.3 0.0 0.35 -0.05 0.4 -0.05 0.3 -0.3 0.65 -0.2 0.75 -0.3 0.75 -0.4 0.65 -0.25 0.4 -0.25 0.35 -0.3 0.25 -0.3 0.2 M-0.6 -0.15 L-0.6 -0.15" fill="#f1dddd" fill-rule="evenodd" stroke="none"/>
    <path d="M-0.25 -0.85 L-0.2 -1.0 -0.05 -1.15 0.15 -1.1 0.4 -1.1 Q0.6 -1.1 0.65 -0.95 L0.65 -0.9 0.7 -0.6 0.7 -0.4 0.6 -0.4 Q0.5 -0.45 0.45 -0.45 L0.2 -0.35 -0.05 -0.1 -0.15 -0.2 -0.2 -0.1 -0.2 -0.05 -0.15 0.1 Q-0.25 0.2 -0.3 0.2 L-0.35 0.05 -0.35 -0.1 -0.5 -0.15 -0.6 -0.15 Q-0.5 -0.2 -0.5 -0.25 L-0.55 -0.4 -0.6 -0.55 -0.55 -0.55 -0.4 -0.65 -0.3 -0.75 -0.25 -0.85" fill="#dabcba" fill-rule="evenodd" stroke="none"/>
    <path d="M0.85 0.25 L0.9 0.05 0.95 0.05 Q1.05 0.2 1.0 0.4 L1.0 0.45 0.95 0.45 Q0.9 0.45 0.85 0.4 L0.85 0.25 M0.75 0.35 L0.8 0.5 0.75 0.65 0.65 0.9 0.55 0.75 0.55 0.6 0.6 0.45 0.7 0.4 0.75 0.35 M0.4 0.55 L0.45 0.75 0.4 0.85 0.35 0.95 0.1 1.15 Q0.05 1.05 0.05 1.0 0.05 0.9 0.1 0.85 L0.15 0.7 0.15 0.65 0.25 0.65 0.35 0.6 0.4 0.55 M-0.1 0.7 L-0.15 0.75 -0.15 0.75 Q-0.4 1.05 -0.5 1.05 L-0.55 1.0 -0.6 0.9 -0.45 0.7 -0.4 0.65 -0.3 0.75 -0.2 0.75 -0.1 0.7 M-1.0 -0.2 L-0.95 -0.15 -0.85 -0.2 -0.75 -0.1 Q-0.7 -0.1 -0.7 -0.15 L-0.7 -0.15 -0.65 -0.15 Q-0.6 -0.15 -0.6 -0.15 L-0.65 -0.15 -0.65 -0.1 -0.7 0.0 -0.7 0.05 -0.65 0.15 -0.7 0.2 -0.85 0.3 Q-0.9 0.3 -0.9 0.2 L-0.95 0.0 -1.0 -0.15 -1.0 -0.2" fill="#a88c8c" fill-rule="evenodd" stroke="none"/>
    <path d="M-0.25 -0.85 L-0.3 -0.75 -0.4 -0.65 -0.55 -0.55 -0.6 -0.55 -0.65 -0.55 -0.7 -0.5 -0.75 -0.5 -0.8 -0.4 -0.9 -0.3 -1.0 -0.2 -1.0 -0.15 -0.95 0.0 -0.9 0.2 Q-0.9 0.3 -0.85 0.3 L-0.7 0.2 -0.65 0.15 -0.7 0.05 -0.7 0.0 -0.65 -0.1 -0.65 -0.15 -0.6 -0.15 -0.5 -0.15 -0.35 -0.1 -0.35 0.05 -0.3 0.2 -0.3 0.25 -0.25 0.35 -0.25 0.4 -0.4 0.65 -0.45 0.7 -0.6 0.9 -0.55 1.0 -0.5 1.05 Q-0.4 1.05 -0.15 0.75 L-0.15 0.75 -0.1 0.7 -0.1 0.6 -0.05 0.55 -0.05 0.4 0.0 0.35 0.0 0.3 0.05 0.3 0.1 0.45 0.1 0.5 0.15 0.6 0.15 0.65 0.15 0.7 0.1 0.85 Q0.05 0.9 0.05 1.0 0.05 1.05 0.1 1.15 L0.35 0.95 0.4 0.85 0.45 0.75 0.4 0.55 0.4 0.45 0.4 0.4 0.4 0.3 0.45 0.2 0.5 0.3 0.55 0.35 0.6 0.45 0.55 0.6 0.55 0.75 0.65 0.9 0.75 0.65 0.8 0.5 0.75 0.35 0.7 0.25 0.7 0.2 0.65 0.1 0.75 0.15 0.85 0.25 0.85 0.4 Q0.9 0.45 0.95 0.45 L1.0 0.45 1.0 0.4 Q1.05 0.2 0.95 0.05 L0.9 0.0 0.9 0.0 0.85 -0.05 0.7 -0.15 0.7 -0.4 0.7 -0.6 0.65 -0.9 M-0.6 -0.15 L-0.6 -0.15 Z" fill="none" stroke="#000000" stroke-linecap="round" stroke-linejoin="round" stroke-opacity="0.4509804" stroke-width="0.1"/>
  </g>
</svg>
