<?xml version="1.0" encoding="UTF-8" standalone="no"?>
<svg xmlns:xlink="http://www.w3.org/1999/xlink" height="2.4px" width="2.15px" xmlns="http://www.w3.org/2000/svg">
  <g transform="matrix(1.0, 0.0, 0.0, 1.0, 1.05, 1.2)">
    <path d="M0.85 -0.2 L1.0 0.0 Q1.1 0.15 1.1 0.3 0.85 0.8 0.7 0.85 0.5 0.95 0.4 1.0 L0.25 1.15 0.1 1.2 -0.15 1.15 -0.15 1.15 Q-0.35 1.1 -0.35 1.05 L-0.4 0.9 -0.4 0.85 -0.25 0.55 -0.25 0.6 -0.15 0.7 -0.05 0.8 0.05 0.85 0.3 0.7 0.5 0.5 0.55 0.35 0.65 0.2 0.7 0.2 0.65 0.2 0.5 0.35 0.3 0.45 -0.1 0.55 -0.15 0.5 -0.2 0.45 0.05 0.3 Q0.05 0.25 0.35 0.15 L0.6 0.05 Q0.8 -0.05 0.85 -0.15 L0.85 -0.2 M-0.9 0.3 L-0.95 0.3 -1.0 0.1 -1.0 0.05 -0.95 0.05 -0.95 0.05 Q-0.9 0.05 -0.9 0.1 L-0.9 0.1 -0.95 0.25 -0.9 0.3" fill="#431010" fill-rule="evenodd" stroke="none"/>
    <path d="M0.4 -1.2 L0.5 -0.7 0.6 -0.45 0.6 -0.35 0.65 -0.25 0.7 -0.2 0.75 -0.25 0.8 -0.3 0.8 -0.35 0.8 -0.25 0.85 -0.2 0.85 -0.15 Q0.8 -0.05 0.6 0.05 L0.35 0.15 Q0.05 0.25 0.05 0.3 L-0.2 0.45 -0.15 0.5 -0.1 0.55 0.3 0.45 0.5 0.35 0.65 0.2 0.7 0.2 0.65 0.2 0.55 0.35 0.5 0.5 0.3 0.7 0.05 0.85 -0.05 0.8 -0.15 0.7 -0.25 0.6 -0.25 0.55 -0.4 0.85 -0.4 0.9 -0.35 1.05 Q-0.35 1.1 -0.15 1.15 L-0.15 1.15 -0.35 1.2 -0.4 1.15 -0.45 1.1 -0.45 1.05 -0.6 1.0 -0.6 0.85 -0.55 0.7 -0.45 0.6 -0.45 0.55 -0.4 0.55 -0.45 0.35 -0.45 0.2 -0.55 0.15 -0.6 0.05 -0.6 0.05 -0.65 0.15 -0.7 0.3 -0.8 0.35 -0.85 0.35 -0.9 0.3 -0.95 0.25 -0.9 0.1 -0.9 0.1 Q-0.9 0.05 -0.95 0.05 L-0.95 0.05 -1.0 0.05 -1.0 0.0 -0.95 0.0 -1.0 -0.15 -0.95 -0.25 -0.95 -0.25 -0.9 -0.3 -0.9 -0.35 -0.85 -0.5 -0.6 -0.65 -0.35 -0.85 -0.3 -0.9 -0.3 -0.9 -0.25 -0.95 -0.2 -1.0 -0.1 -1.2 0.15 -1.2 0.35 -1.2 0.4 -1.2 M0.25 -1.2 L0.15 -1.15 0.05 -1.1 0.0 -1.05 -0.25 -0.6 -0.4 -0.25 -0.45 -0.1 -0.45 -0.1 -0.4 -0.05 -0.3 0.0 -0.1 0.05 0.05 -0.05 0.25 -0.1 0.3 -0.05 0.25 -0.05 0.25 0.0 0.3 0.0 0.45 -0.1 0.55 -0.25 0.55 -0.45 0.55 -0.45 0.4 -0.75 0.25 -1.2" fill="#6b1a1a" fill-rule="evenodd" stroke="none"/>
    <path d="M0.65 -0.9 L0.75 -0.6 0.8 -0.45 0.8 -0.35 0.8 -0.3 0.75 -0.25 0.7 -0.2 0.65 -0.25 0.6 -0.35 0.6 -0.45 0.5 -0.7 0.4 -1.2 0.55 -1.2 0.65 -0.95 0.65 -0.9 M-1.0 0.0 L-1.05 -0.15 -1.0 -0.15 -0.95 0.0 -1.0 0.0 M0.25 -1.2 L0.4 -0.75 0.55 -0.45 0.55 -0.45 0.55 -0.25 0.45 -0.1 0.3 0.0 0.25 0.0 0.25 -0.05 0.3 -0.05 0.25 -0.1 0.05 -0.05 -0.1 0.05 -0.3 0.0 -0.4 -0.05 -0.45 -0.1 -0.45 -0.1 -0.4 -0.25 -0.25 -0.6 0.0 -1.05 0.05 -1.1 0.15 -1.15 0.25 -1.2" fill="#9a2626" fill-rule="evenodd" stroke="none"/>
    <path d="M0.8 -0.35 L0.8 -0.45 0.75 -0.6 0.65 -0.9 M0.8 -0.35 L0.8 -0.25 0.85 -0.2 1.0 0.0 Q1.1 0.15 1.1 0.3 0.85 0.8 0.7 0.85 0.5 0.95 0.4 1.0 L0.25 1.15 0.1 1.2 -0.15 1.15 -0.35 1.2 -0.4 1.15 -0.45 1.1 -0.45 1.05 -0.6 1.0 -0.6 0.85 -0.55 0.7 -0.45 0.6 -0.45 0.55 -0.4 0.55 -0.45 0.35 -0.45 0.2 -0.55 0.15 -0.6 0.05 -0.6 0.05 -0.65 0.15 -0.7 0.3 -0.8 0.35 -0.85 0.35 -0.9 0.3 -0.95 0.3 -1.0 0.1 -1.0 0.05 -1.0 0.0 -1.05 -0.15 -1.0 -0.15 -0.95 -0.25 -0.95 -0.25 -0.9 -0.3 -0.9 -0.35 -0.85 -0.5 -0.6 -0.65 -0.35 -0.85 -0.3 -0.9 -0.3 -0.9 -0.25 -0.95" fill="none" stroke="#000000" stroke-linecap="round" stroke-linejoin="round" stroke-opacity="0.4509804" stroke-width="1.0"/>
  </g>
</svg>
