<?xml version="1.0" encoding="UTF-8" standalone="no"?>
<svg xmlns:xlink="http://www.w3.org/1999/xlink" height="2.55px" width="2.0px" xmlns="http://www.w3.org/2000/svg">
  <g transform="matrix(1.0, 0.0, 0.0, 1.0, 1.1, 0.75)">
    <path d="M0.35 -0.35 L0.35 -0.35 0.4 -0.3 0.4 -0.3 0.45 -0.25 0.5 -0.25 0.5 -0.2 Q0.5 -0.15 0.55 -0.05 L0.6 -0.05 0.55 0.2 Q0.55 0.3 0.65 0.35 L0.7 0.45 0.55 0.7 0.55 0.75 0.65 0.7 0.65 0.75 0.6 0.8 0.6 0.85 0.65 0.8 0.7 0.8 0.5 0.95 Q0.45 1.0 0.45 1.1 0.45 1.2 0.55 1.3 L0.45 1.35 0.45 1.4 Q0.65 1.4 0.65 1.3 L0.6 1.2 0.55 1.1 0.6 1.05 0.7 0.95 0.75 1.05 0.65 1.15 0.7 1.2 0.75 1.15 0.8 1.15 0.65 1.25 0.75 1.2 0.85 1.1 0.9 1.15 0.9 1.2 0.8 1.35 0.55 1.5 Q0.4 1.55 0.3 1.6 L-0.1 1.8 -0.55 1.8 -0.6 1.8 -0.65 1.8 -0.65 1.8 -0.7 1.8 -0.7 1.75 -0.8 1.6 -0.8 1.6 -0.9 1.35 -1.1 0.6 -1.1 0.5 -1.1 0.45 -1.05 0.35 -1.05 0.2 -1.0 0.1 -1.0 0.1 -1.05 0.05 -1.05 0.0 -1.0 0.0 -0.95 0.0 -0.9 -0.05 Q-0.8 -0.05 -0.7 0.05 L-0.65 0.05 -0.65 0.0 -0.85 -0.1 -0.95 -0.1 -0.95 -0.1 -1.05 -0.05 -1.05 -0.2 -1.05 -0.3 -0.95 -0.35 -0.8 -0.45 -0.75 -0.55 Q-0.65 -0.55 -0.65 -0.6 L-0.6 -0.6 -0.55 -0.65 -0.5 -0.65 -0.4 -0.75 -0.4 -0.75 -0.35 -0.75 -0.3 -0.7 -0.3 -0.7 -0.25 -0.65 -0.2 -0.6 -0.15 -0.55 0.15 -0.55 0.15 -0.55 0.2 -0.55 0.25 -0.5 0.3 -0.4 0.35 -0.35 M0.05 -0.1 L-0.15 -0.05 -0.2 -0.05 -0.3 0.0 -0.35 0.05 -0.35 0.05 -0.2 0.0 0.0 0.0 0.1 0.0 0.2 0.0 0.3 0.0 0.25 0.0 0.15 -0.05 0.1 -0.1 0.05 -0.1 M0.15 0.15 L0.2 0.15 0.2 0.1 0.15 0.1 0.05 0.1 -0.05 0.1 -0.1 0.1 -0.2 0.15 -0.25 0.15 -0.25 0.15 -0.15 0.25 -0.1 0.25 -0.05 0.25 0.0 0.25 0.05 0.25 0.1 0.2 0.15 0.15 M-0.75 0.1 L-0.85 0.1 -0.9 0.15 -1.0 0.15 -1.0 0.15 -0.9 0.2 -0.85 0.25 -0.75 0.25 -0.65 0.2 -0.65 0.15 -0.7 0.1 -0.75 0.1" fill="#fcd7d5" fill-rule="evenodd" stroke="none"/>
  </g>
</svg>
