<?xml version="1.0" encoding="UTF-8" standalone="no"?>
<svg xmlns:xlink="http://www.w3.org/1999/xlink" height="2.2px" width="3.2px" xmlns="http://www.w3.org/2000/svg">
  <g transform="matrix(1.0, 0.0, 0.0, 1.0, 1.75, 0.85)">
    <path d="M-0.2 -0.7 L-0.15 -0.7 -0.15 -0.65 -0.1 -0.65 -0.05 -0.65 0.0 -0.65 0.15 -0.6 0.25 -0.6 0.3 -0.6 0.35 -0.6 0.4 -0.6 0.45 -0.6 0.45 -0.55 0.4 -0.55 0.35 -0.55 0.25 -0.55 0.15 -0.55 0.1 -0.5 0.1 -0.55 0.0 -0.55 -0.05 -0.55 -0.1 -0.55 -0.2 -0.55 -0.3 -0.55 -0.35 -0.55 -0.45 -0.55 -0.5 -0.55 -0.45 -0.5 -0.45 -0.5 -0.4 -0.5 -0.7 -0.5 -0.75 -0.55 -0.8 -0.6 -0.85 -0.6 -0.85 -0.65 -0.55 -0.65 -0.45 -0.65 -0.3 -0.7 -0.25 -0.7 -0.2 -0.7" fill="#b45a22" fill-rule="evenodd" stroke="none"/>
    <path d="M-1.3 0.45 L-1.3 0.4 -1.25 0.2 -1.15 -0.2 -1.1 -0.2 -1.1 -0.3 Q-1.05 -0.35 -1.05 -0.4 L-1.05 -0.6 Q-1.0 -0.7 -0.9 -0.7 L-0.65 -0.65 -0.4 -0.7 -0.25 -0.7 -0.2 -0.75 0.15 -0.75 0.2 -0.75 0.6 -0.7 0.7 -0.7 0.8 -0.7 0.8 -0.7 0.85 -0.6 0.95 -0.6 0.95 -0.55 0.8 -0.55 0.8 -0.55 0.7 -0.55 0.6 -0.55 0.5 -0.55 0.5 -0.55 0.4 -0.55 0.3 -0.5 0.2 -0.5 0.15 -0.55 0.1 -0.5 -0.2 -0.45 -0.3 -0.45 -0.3 -0.45 -0.4 -0.45 -0.55 -0.4 Q-0.75 -0.4 -0.9 -0.45 L-0.95 -0.5 -0.95 -0.45 -0.95 -0.3 -1.0 -0.3 -1.0 -0.25 -1.0 -0.15 -1.05 -0.15 -1.0 -0.1 -1.0 -0.05 -0.95 -0.05 Q-0.95 0.0 -1.0 -0.05 L-1.05 0.0 -1.05 0.0 -1.1 0.05 -1.1 0.1 -1.15 0.1 -1.15 0.2 -1.1 0.2 -1.05 0.25 -1.1 0.25 -1.1 0.3 -1.15 0.35 -1.2 0.4 -1.2 0.4 -1.25 0.45 -1.3 0.45 -1.3 0.45 M-1.25 0.45 L-1.25 0.45 M1.0 -0.5 L1.1 -0.3 1.2 0.0 1.3 0.2 1.3 0.4 1.35 0.45 1.35 0.5 1.25 0.55 1.25 0.4 1.05 0.4 1.05 0.35 1.1 0.35 1.1 0.3 1.2 0.3 1.2 0.15 1.15 0.1 1.15 0.0 1.1 -0.1 1.05 -0.15 1.05 -0.25 1.0 -0.3 1.0 -0.4 0.95 -0.45 0.95 -0.5 1.0 -0.5 M0.45 -0.55 L0.45 -0.6 0.7 -0.6 0.8 -0.6 0.8 -0.6 0.4 -0.7 0.35 -0.7 -0.2 -0.7 -0.25 -0.7 -0.3 -0.7 -0.45 -0.65 -0.55 -0.65 -0.85 -0.65 -0.85 -0.6 -0.8 -0.6 -0.75 -0.55 -0.7 -0.5 -0.4 -0.5 -0.45 -0.5 -0.45 -0.5 -0.5 -0.55 -0.45 -0.55 -0.35 -0.55 -0.3 -0.55 -0.2 -0.55 -0.1 -0.55 -0.05 -0.55 0.0 -0.55 0.1 -0.55 0.1 -0.5 0.15 -0.55 0.25 -0.55 0.35 -0.55 0.4 -0.55 0.45 -0.55" fill="#a1511f" fill-rule="evenodd" stroke="none"/>
    <path d="M-1.25 0.45 L-1.2 0.4 -1.2 0.4 -1.15 0.35 -1.1 0.3 -1.1 0.25 -1.05 0.25 -1.1 0.2 -1.15 0.2 -1.15 0.1 -1.1 0.1 -1.1 0.05 -1.05 0.0 -1.05 0.0 -1.0 -0.05 Q-0.95 0.0 -0.95 -0.05 L-1.0 -0.05 -1.0 -0.1 -1.05 -0.15 -1.0 -0.15 -1.0 -0.25 -1.0 -0.3 -0.95 -0.3 -0.95 -0.45 -0.95 -0.5 -0.9 -0.45 Q-0.75 -0.4 -0.55 -0.4 L-0.4 -0.45 -0.3 -0.45 -0.3 -0.45 -0.2 -0.45 0.1 -0.5 0.15 -0.55 0.2 -0.5 0.3 -0.5 0.4 -0.55 0.5 -0.55 0.5 -0.55 0.6 -0.55 0.7 -0.55 0.8 -0.55 0.8 -0.55 0.95 -0.55 1.0 -0.5 0.95 -0.5 0.95 -0.45 1.0 -0.4 1.0 -0.3 1.05 -0.25 1.05 -0.15 1.1 -0.1 1.15 0.0 1.15 0.1 1.2 0.15 1.2 0.3 1.1 0.3 1.1 0.35 1.05 0.35 1.05 0.4 1.25 0.4 1.25 0.55 1.2 0.55 1.1 0.55 1.0 0.5 0.95 0.5 0.9 0.5 0.9 0.55 0.9 0.6 Q0.85 0.6 0.85 0.6 L0.85 0.65 0.8 0.7 0.8 0.75 0.85 0.8 0.9 0.85 0.8 0.85 0.7 0.85 0.4 0.9 0.35 0.9 0.3 0.9 0.25 0.9 0.2 0.9 0.05 0.85 0.05 0.9 -0.15 1.05 -0.15 1.05 -0.2 1.1 -0.25 1.1 -0.25 1.1 -0.3 1.15 -0.3 1.15 -0.4 1.15 -0.5 1.1 -0.55 1.1 -0.6 1.1 -0.7 1.05 -0.75 1.1 -0.85 1.05 -0.9 1.05 -0.95 1.0 -0.95 0.95 -1.0 0.9 -1.0 0.9 -0.9 0.95 -0.9 0.95 -0.8 0.95 -0.75 1.0 -0.75 1.0 -0.7 1.0 -0.65 1.0 -0.6 1.05 -0.5 1.0 -0.45 1.0 -0.4 1.0 -0.4 0.95 -0.5 0.95 -0.8 0.85 Q-0.8 0.8 -0.9 0.8 L-0.9 0.8 -0.95 0.8 -0.95 0.75 -0.9 0.75 -0.8 0.75 -0.8 0.8 -0.7 0.85 -0.55 0.8 -0.55 0.8 -0.55 0.55 -0.5 0.55 -0.3 0.55 0.0 0.55 0.1 0.55 0.5 0.55 0.4 0.55 Q0.4 0.5 0.35 0.5 L0.3 0.5 0.3 0.45 0.25 0.5 0.25 0.4 Q0.15 0.45 0.15 0.4 L0.15 0.25 0.2 0.25 0.25 0.25 0.3 0.25 0.3 0.2 0.25 0.2 0.2 0.15 0.15 0.2 0.15 0.1 0.1 0.1 0.15 0.05 0.2 0.05 0.25 0.0 0.3 0.0 0.25 -0.05 Q0.25 0.0 0.2 -0.05 L0.1 -0.05 0.1 -0.1 -0.05 -0.1 -0.05 -0.1 0.0 -0.15 0.0 -0.2 0.05 -0.3 0.05 -0.35 -0.05 -0.35 -0.15 -0.3 -0.3 -0.3 -0.8 -0.35 -0.8 -0.3 Q-0.8 -0.25 -0.75 -0.25 L-0.65 -0.2 -0.6 -0.25 -0.55 -0.25 -0.55 -0.2 -0.6 -0.2 -0.55 -0.15 -0.55 -0.1 -0.6 -0.1 -0.55 -0.05 -0.6 0.0 -0.65 0.0 -0.65 0.0 -0.7 0.0 -0.7 0.15 -0.75 0.15 -0.75 0.15 -0.8 0.15 Q-0.75 0.2 -0.7 0.2 L-0.7 0.2 -0.7 0.25 -0.75 0.25 -0.8 0.25 -0.9 0.3 -0.95 0.35 -0.95 0.4 -0.9 0.4 -0.85 0.45 -0.85 0.5 -0.9 0.5 -0.9 0.45 -1.0 0.45 -1.1 0.45 -1.25 0.45 M-0.55 0.55 L-0.55 0.55 M0.9 0.55 L0.8 0.5 0.7 0.55 0.65 0.55 0.6 0.55 0.55 0.55 0.7 0.55 0.9 0.55 M-0.25 0.9 L-0.25 0.95 -0.3 1.0 -0.35 1.0 -0.35 1.05 -0.3 1.05 -0.2 1.0 -0.1 0.9 -0.05 0.85 -0.25 0.85 -0.25 0.9 M-0.1 0.8 L-0.1 0.8 -0.3 0.8 -0.3 0.85 -0.1 0.8 M-0.35 0.85 L-0.35 0.85 -0.45 0.85 -0.4 0.85 -0.35 0.85 M-0.4 0.8 L-0.5 0.8 -0.45 0.8 -0.4 0.8" fill="#7b3e18" fill-rule="evenodd" stroke="none"/>
    <path d="M-0.2 -0.7 L0.35 -0.7 0.4 -0.7 0.8 -0.6 0.8 -0.6 0.7 -0.6 0.45 -0.6 0.45 -0.55 0.45 -0.6 0.4 -0.6 0.35 -0.6 0.3 -0.6 0.25 -0.6 0.15 -0.6 0.0 -0.65 -0.05 -0.65 -0.1 -0.65 -0.15 -0.65 -0.15 -0.7 -0.2 -0.7" fill="#cb6526" fill-rule="evenodd" stroke="none"/>
    <path d="M0.35 0.9 L0.25 0.95 Q0.15 0.95 0.1 1.0 L0.05 1.05 0.0 1.1 0.0 1.1 -0.05 1.15 -0.05 1.15 -0.1 1.2 -0.15 1.2 -0.15 1.2 -0.2 1.25 -0.25 1.25 -0.3 1.25 -0.4 1.3 -0.45 1.25 -0.45 1.25 -0.55 1.25 -0.7 1.2 -0.75 1.2 -0.8 1.15 -0.85 1.15 -1.0 1.15 -1.05 1.1 -1.1 1.1 Q-1.2 1.0 -1.3 1.0 L-1.35 1.0 -1.4 1.0 -1.45 1.0 -1.5 1.0 Q-1.55 0.95 -1.6 0.95 L-1.7 0.9 -1.6 0.9 -1.45 0.9 -1.4 0.9 -1.4 0.9 -1.3 0.9 -1.2 0.95 -1.15 0.95 -1.2 0.9 -1.2 0.85 -1.25 0.85 -1.3 0.8 -1.35 0.75 -1.35 0.75 -1.3 0.7 -1.3 0.7 -1.05 0.75 -1.0 0.75 -0.95 0.75 -0.95 0.8 -0.9 0.8 -0.9 0.8 Q-0.8 0.8 -0.8 0.85 L-0.5 0.95 -0.4 0.95 -0.4 1.0 -0.45 1.0 -0.5 1.0 -0.6 1.05 -0.65 1.0 -0.7 1.0 -0.75 1.0 -0.75 1.0 -0.8 0.95 -0.9 0.95 -0.9 0.95 -1.0 0.9 -1.0 0.9 -0.95 0.95 -0.95 1.0 -0.9 1.05 -0.85 1.05 -0.75 1.1 -0.7 1.05 -0.6 1.1 -0.55 1.1 -0.5 1.1 -0.4 1.15 -0.3 1.15 -0.3 1.15 -0.25 1.1 -0.25 1.1 -0.2 1.1 -0.15 1.05 -0.15 1.05 0.05 0.9 0.05 0.85 0.2 0.9 0.25 0.9 0.3 0.9 0.35 0.9 M-0.85 0.5 L-0.85 0.45 -0.9 0.4 -0.95 0.4 -0.95 0.35 -0.9 0.3 -0.8 0.25 -0.75 0.25 -0.7 0.25 -0.7 0.2 -0.7 0.2 Q-0.75 0.2 -0.8 0.15 L-0.75 0.15 -0.75 0.15 -0.7 0.15 -0.7 0.0 -0.65 0.0 -0.65 0.0 -0.6 0.0 -0.55 -0.05 -0.6 -0.1 -0.55 -0.1 -0.55 -0.15 -0.6 -0.2 -0.55 -0.2 -0.55 -0.25 -0.6 -0.25 -0.65 -0.2 -0.75 -0.25 Q-0.8 -0.25 -0.8 -0.3 L-0.8 -0.35 -0.3 -0.3 -0.15 -0.3 -0.05 -0.35 0.05 -0.35 0.05 -0.3 0.0 -0.2 0.0 -0.15 -0.05 -0.1 -0.05 -0.1 0.1 -0.1 0.1 -0.05 0.2 -0.05 Q0.25 0.0 0.25 -0.05 L0.3 0.0 0.25 0.0 0.2 0.05 0.15 0.05 0.1 0.1 0.15 0.1 0.15 0.2 0.2 0.15 0.25 0.2 0.3 0.2 0.3 0.25 0.25 0.25 0.2 0.25 0.15 0.25 0.15 0.4 Q0.15 0.45 0.25 0.4 L0.25 0.5 0.3 0.45 0.3 0.5 0.35 0.5 Q0.4 0.5 0.4 0.55 L0.5 0.55 0.1 0.55 0.0 0.55 -0.3 0.55 -0.5 0.55 -0.55 0.55 -0.55 0.5 -0.55 0.5 -0.75 0.45 Q-0.8 0.45 -0.8 0.5 L-0.8 0.55 -0.85 0.55 -0.85 0.5 M0.9 0.55 L0.7 0.55 0.55 0.55 0.6 0.55 0.65 0.55 0.7 0.55 0.8 0.5 0.9 0.55 M-0.25 0.9 L-0.25 0.85 -0.05 0.85 -0.1 0.9 -0.2 1.0 -0.3 1.05 -0.35 1.05 -0.35 1.0 -0.3 1.0 -0.25 0.95 -0.25 0.9 M-0.35 0.85 L-0.4 0.85 -0.45 0.85 -0.35 0.85 -0.35 0.85" fill="#562b23" fill-rule="evenodd" stroke="none"/>
    <path d="M-1.25 0.45 L-1.25 0.45 -1.1 0.45 -1.0 0.45 -0.9 0.45 -0.9 0.5 -0.85 0.5 -0.85 0.55 -0.8 0.55 -0.8 0.6 -0.8 0.6 -0.85 0.65 -0.8 0.75 -0.9 0.75 -0.95 0.75 -0.95 0.75 Q-0.95 0.7 -1.0 0.7 L-1.0 0.7 -0.95 0.7 -0.95 0.55 -0.95 0.5 -1.15 0.5 -1.2 0.5 -1.25 0.45 M1.2 0.8 L0.95 0.85 1.05 0.75 1.1 0.7 1.1 0.65 1.1 0.55 1.2 0.55 1.25 0.55 1.3 0.55 1.25 0.6 1.2 0.65 1.25 0.65 1.25 0.75 1.2 0.8" fill="#28262c" fill-rule="evenodd" stroke="none"/>
    <path d="M1.35 0.5 L1.35 0.7 Q1.35 0.75 1.2 0.8 L1.25 0.75 1.25 0.65 1.2 0.65 1.25 0.6 1.3 0.55 1.25 0.55 1.35 0.5 M-1.3 0.65 L-1.3 0.65 -1.25 0.65 -1.15 0.65 -1.15 0.5 -0.95 0.5 -0.95 0.55 -0.95 0.7 -1.0 0.7 -1.0 0.7 Q-0.95 0.7 -0.95 0.75 L-0.95 0.75 -1.0 0.75 -1.05 0.75 -1.3 0.7 -1.3 0.65 M-0.75 0.55 Q-0.75 0.55 -0.75 0.5 L-0.65 0.55 -0.6 0.6 -0.6 0.75 -0.7 0.75 -0.75 0.7 -0.75 0.55" fill="#151417" fill-rule="evenodd" stroke="none"/>
    <path d="M-0.55 0.55 L-0.55 0.8 -0.55 0.8 -0.7 0.85 -0.8 0.8 -0.8 0.75 -0.85 0.65 -0.8 0.6 -0.8 0.6 -0.8 0.55 -0.8 0.5 Q-0.8 0.45 -0.75 0.45 L-0.55 0.5 -0.55 0.5 -0.55 0.55 M-0.75 0.55 L-0.75 0.7 -0.7 0.75 -0.6 0.75 -0.6 0.6 -0.65 0.55 -0.75 0.5 Q-0.75 0.55 -0.75 0.55" fill="#d2ad73" fill-rule="evenodd" stroke="none"/>
    <path d="M-1.15 0.5 L-1.15 0.65 -1.25 0.65 -1.25 0.5 -1.25 0.45 -1.2 0.5 -1.15 0.5" fill="#9a948f" fill-rule="evenodd" stroke="none"/>
    <path d="M-0.1 0.8 L-0.3 0.85 -0.3 0.8 -0.1 0.8 -0.1 0.8 M-0.4 0.8 L-0.45 0.8 -0.5 0.8 -0.4 0.8" fill="#262730" fill-rule="evenodd" stroke="none"/>
    <path d="M-1.3 0.45 L-1.3 0.45 -1.25 0.45 -1.25 0.5 -1.25 0.65 -1.3 0.65 -1.35 0.65 -1.35 0.6 -1.3 0.45 -1.3 0.45 M-1.7 0.9 L-1.6 0.85 -1.6 0.85 -1.55 0.85 -1.45 0.8 -1.45 0.85 -1.4 0.9 -1.4 0.9 -1.45 0.9 -1.6 0.9 -1.7 0.9" fill="#d5d5db" fill-rule="evenodd" stroke="none"/>
    <path d="M-1.55 0.85 L-1.45 0.75 -1.35 0.7 -1.3 0.65 -1.3 0.7 -1.3 0.7 -1.35 0.75 -1.35 0.75 -1.3 0.8 -1.25 0.85 -1.2 0.85 -1.2 0.9 -1.15 0.95 -1.2 0.95 -1.3 0.9 -1.4 0.9 -1.45 0.85 -1.45 0.8 -1.55 0.85" fill="#b3b2b4" fill-rule="evenodd" stroke="none"/>
    <path d="M0.95 0.85 L0.9 0.85 0.85 0.8 0.8 0.75 0.8 0.7 0.85 0.65 0.85 0.7 0.9 0.7 0.95 0.7 0.95 0.75 1.0 0.75 1.0 0.7 1.05 0.7 1.1 0.7 1.05 0.75 0.95 0.85 M0.95 0.5 L1.0 0.5 1.1 0.55 1.1 0.65 1.05 0.65 0.95 0.5" fill="#c7bba9" fill-rule="evenodd" stroke="none"/>
    <path d="M1.1 0.65 L1.1 0.7 1.05 0.7 1.0 0.7 1.0 0.75 0.95 0.75 0.95 0.7 0.9 0.7 0.85 0.7 0.85 0.65 0.85 0.6 0.9 0.65 0.95 0.65 0.95 0.6 0.9 0.55 0.9 0.5 0.95 0.5 1.05 0.65 1.1 0.65" fill="#bb9a63" fill-rule="evenodd" stroke="none"/>
    <path d="M0.85 0.6 Q0.85 0.6 0.9 0.6 L0.9 0.55 0.95 0.6 0.95 0.65 0.9 0.65 0.85 0.6" fill="#b18640" fill-rule="evenodd" stroke="none"/>
    <path d="M0.95 -0.55 L0.95 -0.6 0.85 -0.6 0.8 -0.7 0.8 -0.7 0.7 -0.7 0.6 -0.7 0.2 -0.75 0.15 -0.75 -0.2 -0.75 -0.25 -0.7 -0.4 -0.7 -0.65 -0.65 -0.9 -0.7 Q-1.0 -0.7 -1.05 -0.6 L-1.05 -0.4 Q-1.05 -0.35 -1.1 -0.3 L-1.1 -0.2 -1.15 -0.2 -1.25 0.2 -1.3 0.4 -1.3 0.45 -1.3 0.45 -1.35 0.6 -1.35 0.65 -1.3 0.65 -1.3 0.65 -1.35 0.7 -1.45 0.75 -1.55 0.85 -1.6 0.85 -1.6 0.85 -1.7 0.9 -1.6 0.95 Q-1.55 0.95 -1.5 1.0 L-1.45 1.0 -1.4 1.0 -1.35 1.0 -1.3 1.0 Q-1.2 1.0 -1.1 1.1 L-1.05 1.1 -1.0 1.15 -0.85 1.15 -0.8 1.15 -0.75 1.2 -0.7 1.2 -0.55 1.25 -0.45 1.25 -0.45 1.25 -0.4 1.3 -0.3 1.25 -0.25 1.25 -0.2 1.25 -0.15 1.2 -0.15 1.2 -0.1 1.2 -0.05 1.15 -0.05 1.15 0.0 1.1 0.0 1.1 0.05 1.05 0.1 1.0 Q0.15 0.95 0.25 0.95 L0.35 0.9 0.4 0.9 0.7 0.85 0.8 0.85 0.9 0.85 0.95 0.85 1.2 0.8 Q1.35 0.75 1.35 0.7 L1.35 0.5 1.35 0.45 1.3 0.4 1.3 0.2 1.2 0.0 1.1 -0.3 1.0 -0.5 0.95 -0.55 Z" fill="none" stroke="#000000" stroke-linecap="round" stroke-linejoin="round" stroke-opacity="0.4509804" stroke-width="0.1"/>
  </g>
</svg>
