<?xml version="1.0" encoding="UTF-8" standalone="no"?>
<svg xmlns:xlink="http://www.w3.org/1999/xlink" height="3.95px" width="4.7px" xmlns="http://www.w3.org/2000/svg">
  <g transform="matrix(1.0, 0.0, 0.0, 1.0, 1.75, 2.1)">
    <path d="M2.3 -1.95 L2.45 -2.0 2.45 -2.0 2.5 -2.05 2.55 -2.0 2.55 -1.95 2.6 -2.0 2.65 -2.05 2.65 -1.95 2.75 -2.0 2.8 -1.95 2.75 -1.9 2.8 -1.85 2.75 -1.75 2.75 -1.75 2.65 -1.8 Q2.6 -1.75 2.55 -1.75 L2.6 -1.8 2.55 -1.8 2.55 -1.85 2.5 -1.85 2.4 -1.75 2.45 -1.85 2.4 -1.85 2.35 -1.8 2.35 -1.75 2.3 -1.8 2.35 -1.85 2.3 -1.9 2.3 -1.95 M0.65 0.9 L0.55 0.8 0.5 0.75 0.45 0.75 0.4 0.75 Q0.35 0.7 0.4 0.7 L0.35 0.7 Q0.3 0.7 0.3 0.65 L0.2 0.65 0.1 0.6 0.05 0.6 -0.05 0.6 -0.15 0.55 -0.3 0.6 -0.35 0.6 -0.4 0.5 -0.45 0.5 -0.55 0.55 -0.65 0.5 -0.75 0.6 -0.8 0.55 Q-0.85 0.55 -0.9 0.6 L-1.05 0.65 -1.1 0.6 Q-1.25 0.6 -1.35 0.7 L-1.35 0.7 -1.45 0.7 -1.5 0.6 -1.45 0.55 Q-1.4 0.5 -1.4 0.45 L-1.45 0.4 -1.4 0.4 -1.5 0.35 -1.4 0.25 -1.35 0.3 -1.35 0.3 -1.35 0.45 -1.3 0.4 Q-1.3 0.35 -1.2 0.35 L-1.15 0.35 -1.25 0.4 -1.25 0.5 -1.2 0.5 -1.2 0.5 -1.15 0.5 -1.1 0.55 -1.0 0.5 -1.1 0.4 -1.15 0.35 -1.15 0.35 -1.1 0.3 -1.1 0.3 -1.2 0.3 -1.2 0.3 -1.25 0.25 -1.3 0.15 -1.35 0.1 -1.3 0.05 -1.2 0.1 -1.15 0.05 -1.15 0.0 -1.1 0.0 -1.05 0.0 Q-1.05 0.05 -1.05 0.05 L-1.05 0.15 -1.0 0.15 -0.9 0.1 -0.85 0.15 -0.8 0.15 -0.75 0.1 -0.8 0.0 -0.8 0.0 -0.85 -0.1 -0.9 -0.1 -0.9 -0.15 -0.95 -0.25 -1.0 -0.25 -0.95 -0.25 -0.6 -0.35 -0.4 -0.25 -0.35 -0.25 -0.3 -0.25 -0.25 -0.3 -0.15 -0.25 -0.05 -0.3 0.0 -0.3 0.0 -0.3 Q0.05 -0.3 0.15 -0.2 L0.2 -0.15 0.15 -0.1 0.2 -0.1 0.15 0.0 0.3 0.05 0.3 0.15 0.35 0.1 0.4 0.05 0.5 0.1 0.55 0.15 0.5 0.15 0.55 0.2 0.6 0.2 0.7 0.25 0.65 0.3 0.75 0.35 0.6 0.4 0.45 0.45 0.35 0.35 0.3 0.4 Q0.35 0.45 0.45 0.5 L0.4 0.5 Q0.4 0.6 0.45 0.6 L0.55 0.5 0.6 0.5 0.65 0.55 0.6 0.6 0.65 0.65 0.75 0.55 0.8 0.6 0.8 0.65 0.85 0.7 0.75 0.8 0.65 0.9 M0.2 0.3 L0.15 0.25 0.15 0.15 0.0 0.3 0.1 0.3 0.2 0.3 M0.1 0.6 L0.25 0.5 0.15 0.45 0.1 0.6 M-0.65 -0.2 L-0.55 -0.2 -0.55 -0.25 -0.65 -0.25 -0.65 -0.2 M-0.1 0.35 Q-0.2 0.35 -0.2 0.45 L-0.15 0.5 -0.15 0.45 -0.1 0.5 -0.05 0.45 -0.1 0.4 -0.1 0.35 M-0.5 0.4 L-0.45 0.35 -0.55 0.25 -0.6 0.3 -0.7 0.4 -0.65 0.45 -0.55 0.35 -0.5 0.4 M-1.0 0.3 L-0.95 0.35 -0.9 0.4 -0.85 0.3 -0.8 0.3 -1.0 0.3" fill="#f5e9dc" fill-rule="evenodd" stroke="none"/>
    <path d="M2.3 -1.65 Q2.2 -1.75 2.2 -1.8 L2.3 -1.95 2.3 -1.9 2.35 -1.85 2.3 -1.8 2.35 -1.75 2.35 -1.8 2.4 -1.85 2.45 -1.85 2.4 -1.75 2.5 -1.85 2.55 -1.85 2.55 -1.8 2.6 -1.8 2.55 -1.75 Q2.6 -1.75 2.65 -1.8 L2.75 -1.75 2.75 -1.75 2.75 -1.75 2.85 -1.7 2.8 -1.65 2.9 -1.6 2.75 -1.5 2.75 -1.5 2.7 -1.45 Q2.65 -1.45 2.65 -1.45 L2.55 -1.4 Q2.5 -1.4 2.5 -1.45 L2.5 -1.45 2.5 -1.45 Q2.55 -1.5 2.55 -1.5 L2.6 -1.5 Q2.65 -1.5 2.65 -1.55 L2.65 -1.6 2.7 -1.65 2.65 -1.65 2.6 -1.65 2.55 -1.65 2.6 -1.7 2.6 -1.75 2.4 -1.65 2.3 -1.65 M1.0 1.45 L1.0 1.4 0.85 1.3 0.8 1.2 0.75 1.15 0.75 1.1 Q0.65 1.1 0.65 0.95 L0.65 0.9 0.75 0.8 0.85 0.7 0.8 0.65 0.8 0.6 0.75 0.55 0.65 0.65 0.6 0.6 0.65 0.55 0.6 0.5 0.55 0.5 0.45 0.6 Q0.4 0.6 0.4 0.5 L0.45 0.5 Q0.35 0.45 0.3 0.4 L0.35 0.35 0.45 0.45 0.6 0.4 0.75 0.35 0.65 0.3 0.7 0.25 0.6 0.2 0.55 0.2 0.5 0.15 0.55 0.15 0.5 0.1 0.4 0.05 0.35 0.1 0.3 0.15 0.3 0.05 0.15 0.0 0.2 -0.1 0.15 -0.1 0.2 -0.15 0.3 -0.05 0.45 -0.05 0.45 0.0 0.65 0.1 0.85 0.25 1.0 0.4 1.1 0.55 0.95 0.75 1.1 0.85 1.15 0.8 1.25 0.8 1.2 0.85 1.3 0.8 1.4 0.8 1.35 0.9 1.4 0.95 Q1.4 1.1 1.25 1.05 L1.3 1.15 1.25 1.2 1.2 1.15 1.1 1.1 1.1 1.15 1.2 1.3 1.25 1.35 1.15 1.3 1.05 1.35 1.05 1.45 1.0 1.45 M-1.35 0.7 L-1.4 0.8 -1.35 0.85 -1.4 0.85 -1.35 0.85 -1.4 0.9 -1.4 0.95 -1.5 0.9 -1.55 0.9 -1.65 0.85 -1.65 0.75 -1.65 0.7 -1.6 0.7 -1.65 0.4 Q-1.55 0.0 -1.5 0.0 L-1.45 0.05 Q-1.45 0.05 -1.35 -0.05 L-1.25 -0.1 -1.2 -0.15 -1.0 -0.25 -0.95 -0.25 -0.9 -0.15 -0.9 -0.1 -0.85 -0.1 -0.8 0.0 -0.8 0.0 -0.75 0.1 -0.8 0.15 -0.85 0.15 -0.9 0.1 -1.0 0.15 -1.05 0.15 -1.05 0.05 Q-1.05 0.05 -1.05 0.0 L-1.1 0.0 -1.15 0.0 -1.15 0.05 -1.2 0.1 -1.3 0.05 -1.35 0.1 -1.3 0.15 -1.25 0.25 -1.2 0.3 -1.2 0.3 -1.1 0.3 -1.1 0.3 -1.15 0.35 -1.15 0.35 -1.1 0.4 -1.0 0.5 -1.1 0.55 -1.15 0.5 -1.2 0.5 -1.2 0.5 -1.25 0.5 -1.25 0.4 -1.15 0.35 -1.2 0.35 Q-1.3 0.35 -1.3 0.4 L-1.35 0.45 -1.35 0.3 -1.35 0.3 -1.4 0.25 -1.5 0.35 -1.4 0.4 -1.45 0.4 -1.4 0.45 Q-1.4 0.5 -1.45 0.55 L-1.5 0.6 -1.45 0.7 -1.35 0.7 M0.2 0.3 L0.1 0.3 0.0 0.3 0.15 0.15 0.15 0.25 0.2 0.3 M0.1 0.6 L0.15 0.45 0.25 0.5 0.1 0.6 M-0.65 -0.2 L-0.65 -0.25 -0.55 -0.25 -0.55 -0.2 -0.65 -0.2 M-0.5 0.4 L-0.55 0.35 -0.65 0.45 -0.7 0.4 -0.6 0.3 -0.55 0.25 -0.45 0.35 -0.5 0.4 M-0.1 0.35 L-0.1 0.4 -0.05 0.45 -0.1 0.5 -0.15 0.45 -0.15 0.5 -0.2 0.45 Q-0.2 0.35 -0.1 0.35 M-1.0 0.3 L-0.8 0.3 -0.85 0.3 -0.9 0.4 -0.95 0.35 -1.0 0.3" fill="#a9ccd2" fill-rule="evenodd" stroke="none"/>
    <path d="M2.5 -1.45 L2.4 -1.5 2.4 -1.6 2.45 -1.65 2.4 -1.65 2.6 -1.75 2.6 -1.7 2.55 -1.65 2.6 -1.65 2.65 -1.65 2.7 -1.65 2.65 -1.6 2.65 -1.55 Q2.65 -1.5 2.6 -1.5 L2.55 -1.5 Q2.55 -1.5 2.5 -1.45 L2.5 -1.45 M1.65 0.9 L1.7 0.95 1.65 1.0 1.6 1.05 Q1.7 1.15 1.7 1.2 L1.65 1.3 1.65 1.4 Q1.65 1.5 1.5 1.65 L1.45 1.7 1.35 1.7 1.3 1.75 1.2 1.75 1.15 1.75 1.2 1.65 1.15 1.65 Q1.0 1.55 1.0 1.45 L1.05 1.45 1.05 1.35 1.15 1.3 1.25 1.35 1.2 1.3 1.1 1.15 1.1 1.1 1.2 1.15 1.25 1.2 1.3 1.15 1.25 1.05 Q1.4 1.1 1.4 0.95 L1.35 0.9 1.4 0.8 1.3 0.8 1.2 0.85 1.25 0.8 1.15 0.8 1.1 0.85 0.95 0.75 1.1 0.55 1.1 0.6 Q1.25 0.75 1.35 0.75 L1.5 0.8 1.65 0.9" fill="#7e9eb1" fill-rule="evenodd" stroke="none"/>
    <path d="M0.4 -1.6 L1.1 -1.75 1.3 -1.75 1.4 -1.75 1.4 -1.7 Q1.4 -1.65 1.5 -1.6 L1.65 -1.55 1.75 -1.45 1.8 -1.4 Q1.65 -1.3 1.6 -1.25 1.6 -1.2 1.7 -1.2 L1.7 -1.2 Q1.65 -1.1 1.5 -1.1 L1.25 -1.05 Q1.15 -1.05 0.95 -1.2 L0.7 -1.3 0.65 -1.25 0.95 -1.05 1.0 -1.05 0.95 -1.05 0.7 -1.1 0.5 -1.2 0.45 -1.2 Q0.7 -1.0 1.0 -0.9 L0.85 -0.9 0.7 -0.9 0.7 -0.95 0.45 -1.0 0.4 -1.0 0.4 -0.95 0.65 -0.85 0.6 -0.75 0.45 -0.6 0.1 -0.65 -0.05 -0.6 -0.05 -0.65 0.0 -0.7 -0.05 -0.7 -0.2 -0.6 -0.2 -0.6 -0.25 -0.6 -0.25 -0.7 -0.25 -0.85 Q-0.25 -1.0 -0.1 -1.3 L0.25 -1.6 0.3 -1.6 0.35 -1.6 0.35 -1.5 0.25 -1.5 0.2 -1.55 0.15 -1.5 0.25 -1.35 Q0.3 -1.2 0.4 -1.2 0.45 -1.2 0.45 -1.25 L0.4 -1.4 0.4 -1.6" fill="#9a2626" fill-rule="evenodd" stroke="none"/>
    <path d="M0.4 -1.6 L0.4 -1.4 0.45 -1.25 Q0.45 -1.2 0.4 -1.2 0.3 -1.2 0.25 -1.35 L0.15 -1.5 0.2 -1.55 0.25 -1.5 0.35 -1.5 0.35 -1.6 0.4 -1.6 M0.25 -1.6 L-0.1 -1.3 Q-0.25 -1.0 -0.25 -0.85 L-0.25 -0.7 -0.25 -0.6 -0.2 -0.6 -0.2 -0.6 -0.05 -0.7 0.0 -0.7 -0.05 -0.65 -0.05 -0.6 -0.05 -0.55 -0.1 -0.45 -0.1 -0.45 0.0 -0.5 0.1 -0.5 0.0 -0.35 0.0 -0.3 -0.05 -0.3 -0.15 -0.25 -0.25 -0.3 -0.3 -0.25 -0.35 -0.25 -0.45 -0.45 -0.4 -0.55 -0.45 -0.6 -0.5 -0.6 -0.4 -1.1 -0.3 -1.3 -0.1 -1.45 0.25 -1.6 M0.65 -0.85 L0.4 -0.95 0.4 -1.0 0.45 -1.0 0.7 -0.95 0.7 -0.9 0.85 -0.9 1.0 -0.9 Q0.7 -1.0 0.45 -1.2 L0.5 -1.2 0.7 -1.1 0.95 -1.05 1.0 -1.05 0.95 -1.05 0.65 -1.25 0.7 -1.3 0.95 -1.2 Q1.15 -1.05 1.25 -1.05 L1.5 -1.1 Q1.65 -1.1 1.7 -1.2 L1.7 -1.2 Q1.6 -1.2 1.6 -1.25 1.65 -1.3 1.8 -1.4 L1.9 -1.45 1.95 -1.5 2.05 -1.65 1.95 -1.7 2.3 -1.65 2.4 -1.65 2.45 -1.65 2.4 -1.6 2.2 -1.35 Q2.15 -1.2 2.0 -1.1 L1.6 -0.9 1.35 -0.85 1.25 -0.85 1.15 -0.85 1.0 -0.85 1.1 -0.75 Q1.2 -0.7 1.25 -0.7 1.3 -0.7 1.35 -0.75 L1.5 -0.8 1.6 -0.8 1.6 -0.8 1.55 -0.5 1.5 -0.25 1.5 -0.1 1.45 0.0 Q1.45 0.15 1.35 0.25 L1.35 0.2 1.4 0.05 1.4 -0.15 Q1.4 -0.25 1.4 -0.3 L1.4 -0.35 1.35 -0.25 1.35 -0.15 Q1.3 0.0 1.25 0.05 L1.25 -0.1 1.1 0.1 Q1.05 0.25 1.0 0.25 L0.95 0.2 0.85 0.25 0.65 0.1 0.45 0.0 0.45 -0.05 0.6 -0.15 0.65 -0.15 0.65 -0.05 0.7 -0.05 0.7 -0.05 Q0.75 -0.1 0.8 -0.1 L0.85 -0.05 0.95 0.05 Q1.0 0.05 1.05 -0.1 L1.1 -0.3 1.1 -0.45 1.15 -0.55 1.15 -0.65 1.1 -0.6 1.05 -0.6 0.8 -0.15 0.75 -0.2 0.8 -0.45 0.95 -0.7 0.85 -0.7 0.7 -0.75 0.7 -0.75 0.75 -0.75 0.9 -0.75 0.95 -0.75 0.95 -0.75 Q0.85 -0.75 0.65 -0.85" fill="#6b1a1a" fill-rule="evenodd" stroke="none"/>
    <path d="M1.6 -0.9 L1.6 -0.8 1.5 -0.8 1.35 -0.75 Q1.3 -0.7 1.25 -0.7 1.2 -0.7 1.1 -0.75 L1.0 -0.85 1.15 -0.85 1.25 -0.85 1.35 -0.85 1.6 -0.9 M1.5 -0.1 L1.7 0.8 1.65 0.9 1.5 0.8 1.35 0.75 Q1.25 0.75 1.1 0.6 L1.1 0.55 1.0 0.4 0.85 0.25 0.95 0.2 1.0 0.25 Q1.05 0.25 1.1 0.1 L1.25 -0.1 1.25 0.05 Q1.3 0.0 1.35 -0.15 L1.35 -0.25 1.4 -0.35 1.4 -0.3 Q1.4 -0.25 1.4 -0.15 L1.4 0.05 1.35 0.2 1.35 0.25 Q1.45 0.15 1.45 0.0 L1.5 -0.1 M-1.2 -0.15 L-0.9 -0.7 Q-0.7 -1.0 -0.45 -1.2 L-0.3 -1.3 -0.4 -1.1 -0.5 -0.6 -0.45 -0.6 -0.4 -0.55 -0.45 -0.45 -0.35 -0.25 -0.4 -0.25 -0.6 -0.35 -0.95 -0.25 -1.0 -0.25 -1.2 -0.15" fill="#431010" fill-rule="evenodd" stroke="none"/>
    <path d="M-0.05 -0.6 L0.1 -0.65 0.45 -0.6 0.6 -0.75 0.65 -0.85 Q0.85 -0.75 0.95 -0.75 L0.95 -0.75 0.9 -0.75 0.75 -0.75 0.7 -0.75 0.7 -0.75 0.85 -0.7 0.95 -0.7 0.8 -0.45 0.75 -0.2 0.8 -0.15 1.05 -0.6 1.1 -0.6 1.15 -0.65 1.15 -0.55 1.1 -0.45 1.1 -0.3 1.05 -0.1 Q1.0 0.05 0.95 0.05 L0.85 -0.05 0.8 -0.1 Q0.75 -0.1 0.7 -0.05 L0.7 -0.05 0.65 -0.05 0.65 -0.15 0.6 -0.15 0.45 -0.05 0.3 -0.05 0.2 -0.15 0.15 -0.2 Q0.05 -0.3 0.0 -0.3 L0.0 -0.3 0.0 -0.35 0.1 -0.5 0.0 -0.5 -0.1 -0.45 -0.1 -0.45 -0.05 -0.55 -0.05 -0.6 M1.8 -1.4 L1.75 -1.45 1.65 -1.55 1.5 -1.6 Q1.4 -1.65 1.4 -1.7 L1.4 -1.75 1.85 -1.7 1.95 -1.7 2.05 -1.65 1.95 -1.5 1.9 -1.45 1.8 -1.4" fill="#852020" fill-rule="evenodd" stroke="none"/>
    <path d="M1.4 -1.75 L1.3 -1.75 1.1 -1.75 0.4 -1.6 0.35 -1.6 0.3 -1.6 0.25 -1.6 -0.1 -1.45 -0.3 -1.3 -0.45 -1.2 Q-0.7 -1.0 -0.9 -0.7 L-1.2 -0.15 -1.25 -0.1 -1.35 -0.05 Q-1.45 0.05 -1.45 0.05 L-1.5 0.0 Q-1.55 0.0 -1.65 0.4 L-1.6 0.7 -1.65 0.7 -1.65 0.75 -1.65 0.85 -1.55 0.9 -1.5 0.9 -1.4 0.95 -1.4 0.9 -1.35 0.85 -1.4 0.85 -1.35 0.85 -1.4 0.8 -1.35 0.7 Q-1.25 0.6 -1.1 0.6 L-1.05 0.65 -0.9 0.6 Q-0.85 0.55 -0.8 0.55 L-0.75 0.6 -0.65 0.5 -0.55 0.55 -0.45 0.5 -0.4 0.5 -0.35 0.6 -0.3 0.6 -0.15 0.55 -0.05 0.6 0.05 0.6 0.1 0.6 0.2 0.65 0.3 0.65 Q0.3 0.7 0.35 0.7 L0.4 0.7 Q0.35 0.7 0.4 0.75 L0.45 0.75 0.5 0.75 0.55 0.8 0.65 0.9 0.65 0.95 Q0.65 1.1 0.75 1.1 L0.75 1.15 0.8 1.2 0.85 1.3 1.0 1.4 1.0 1.45 Q1.0 1.55 1.15 1.65 L1.2 1.65 1.15 1.75 1.2 1.75 1.3 1.75 1.35 1.7 1.45 1.7 1.5 1.65 Q1.65 1.5 1.65 1.4 L1.65 1.3 1.7 1.2 Q1.7 1.15 1.6 1.05 L1.65 1.0 1.7 0.95 1.65 0.9 1.7 0.8 1.5 -0.1 1.5 -0.25 1.55 -0.5 1.6 -0.8 1.6 -0.8 1.6 -0.9 2.0 -1.1 Q2.15 -1.2 2.2 -1.35 L2.4 -1.6 2.4 -1.5 2.5 -1.45 2.5 -1.45 Q2.5 -1.4 2.55 -1.4 L2.65 -1.45 Q2.65 -1.45 2.7 -1.45 L2.75 -1.5 2.75 -1.5 2.9 -1.6 2.8 -1.65 2.85 -1.7 2.75 -1.75 2.75 -1.75 2.8 -1.85 2.75 -1.9 2.8 -1.95 2.75 -2.0 2.65 -1.95 2.65 -2.05 2.6 -2.0 2.55 -1.95 2.55 -2.0 2.5 -2.05 2.45 -2.0 2.45 -2.0 2.3 -1.95 2.2 -1.8 Q2.2 -1.75 2.3 -1.65 L1.95 -1.7 1.85 -1.7 1.4 -1.75 Z" fill="none" stroke="#000000" stroke-linecap="round" stroke-linejoin="round" stroke-opacity="0.4509804" stroke-width="0.1"/>
  </g>
</svg>
