<?xml version="1.0" encoding="UTF-8" standalone="no"?>
<svg xmlns:xlink="http://www.w3.org/1999/xlink" height="10.1px" width="9.25px" xmlns="http://www.w3.org/2000/svg">
  <g transform="matrix(1.0, 0.0, 0.0, 1.0, -127.9, -12.8)">
    <path d="M135.7 13.2 L135.7 13.1 135.75 13.1 135.8 13.15 135.8 13.25 135.75 13.25 135.7 13.2 M135.8 13.75 L135.75 13.7 135.7 13.7 Q135.7 13.7 135.75 13.65 L135.8 13.6 135.8 13.75 M130.45 21.15 L130.35 21.15 130.3 21.1 130.35 20.9 130.25 20.9 Q130.15 20.85 130.15 20.75 L130.1 20.65 Q130.0 20.65 130.0 20.6 130.05 20.5 130.3 20.3 L130.2 20.2 130.25 20.15 130.25 20.1 130.1 19.95 130.05 19.9 130.05 19.8 130.15 19.8 130.3 19.75 130.35 19.75 130.45 19.7 130.45 19.6 130.4 19.5 130.35 19.4 130.35 19.35 130.4 19.3 130.3 19.15 130.15 19.0 130.05 18.8 130.0 18.65 129.95 18.55 129.9 18.45 129.9 18.25 129.85 18.15 129.8 18.1 129.75 17.95 129.75 17.7 129.8 17.7 129.85 17.75 129.9 17.75 129.95 17.65 Q130.0 17.6 130.05 17.6 L130.15 17.6 130.2 17.65 130.2 17.55 130.15 17.3 130.1 17.1 Q130.05 17.05 130.15 17.0 L130.2 16.9 130.2 16.85 130.15 16.75 130.15 16.65 130.3 16.65 Q130.4 16.6 130.35 16.5 130.35 16.45 130.45 16.4 L130.55 16.25 130.5 16.15 130.4 16.0 130.4 15.85 130.3 15.6 130.2 15.3 Q130.2 15.25 130.3 15.15 130.35 15.15 130.4 15.3 L130.45 15.45 130.6 15.4 130.55 15.15 130.5 14.9 130.5 14.75 130.7 15.05 Q130.8 15.1 130.85 15.1 L130.9 15.1 130.95 15.2 131.05 15.35 131.15 15.4 131.2 15.5 131.3 15.45 131.3 15.3 131.25 15.25 131.25 14.9 131.25 14.7 131.2 14.5 131.15 14.25 131.1 13.95 131.1 13.2 131.15 13.2 Q131.15 13.35 131.3 13.6 L131.4 14.05 131.65 14.85 131.65 14.85 131.65 14.0 131.65 13.15 131.7 13.35 131.7 13.3 131.75 13.3 131.75 13.35 131.85 13.4 Q131.9 13.35 131.9 13.1 L131.95 12.8 132.15 13.5 132.15 13.55 132.2 13.7 132.25 13.8 132.25 13.85 132.3 13.8 132.3 13.85 132.35 13.9 132.5 13.8 132.55 14.0 132.6 14.2 132.65 14.2 132.7 14.3 132.75 14.45 132.8 14.25 132.85 14.05 132.9 14.1 132.95 14.05 133.0 14.0 133.1 14.0 133.15 14.05 133.1 14.2 133.15 14.3 133.2 14.6 133.25 14.65 133.2 14.75 133.15 14.95 133.15 15.35 Q133.2 15.45 133.25 15.55 L133.35 15.65 133.4 15.8 Q133.45 15.8 133.45 15.8 L133.45 15.85 133.55 16.0 133.6 15.9 133.6 15.85 133.6 15.9 133.65 16.25 Q133.65 16.35 133.8 16.3 L133.85 16.35 133.9 16.45 133.95 16.45 Q134.05 16.4 134.05 16.45 L134.15 16.7 134.2 16.75 134.25 16.85 Q134.25 16.95 134.3 16.95 134.3 17.0 134.35 17.0 L134.45 16.85 134.5 16.7 Q134.55 16.7 134.6 16.75 L134.7 16.9 134.75 16.95 134.8 17.0 134.75 17.05 134.8 17.05 134.85 17.0 134.95 16.9 134.95 16.8 135.05 16.85 135.15 16.7 135.25 16.5 135.4 16.35 135.45 16.3 135.55 16.25 Q135.65 16.1 135.7 16.05 135.8 16.0 135.85 16.0 L135.8 16.1 Q135.8 16.2 135.75 16.2 135.65 16.4 135.6 16.55 L135.5 16.95 135.45 17.0 135.45 17.1 135.4 17.2 135.45 17.25 135.4 17.4 135.3 17.6 135.3 17.7 Q135.25 17.8 135.2 17.8 L135.2 17.85 135.25 17.9 135.35 17.8 135.4 17.8 135.2 18.2 134.85 18.7 134.7 19.0 134.7 19.05 134.75 19.1 134.85 19.0 Q134.9 18.95 134.95 18.95 L135.05 19.0 Q135.1 19.05 135.1 19.0 L135.15 19.0 134.8 19.7 134.6 19.95 134.45 20.2 134.35 20.35 134.15 20.5 133.9 20.7 133.8 20.9 133.7 20.95 133.65 21.05 133.5 21.25 133.4 21.45 133.3 21.55 133.25 21.65 133.05 21.8 132.95 21.95 132.8 22.15 132.55 22.05 Q132.55 22.0 132.4 22.0 L132.15 21.9 Q132.05 21.9 131.85 21.75 L131.2 21.5 130.85 21.4 130.75 21.3 130.8 21.3 130.9 21.3 130.9 21.2 130.85 21.1 130.8 21.05 130.8 21.0 130.7 20.95 130.6 20.95 130.55 20.9 130.55 20.75 130.5 20.65 130.45 20.6 Q130.45 20.55 130.5 20.55 L130.55 20.45 130.6 20.45 130.65 20.45 130.7 20.45 130.75 20.45 131.05 20.65 Q131.0 20.75 131.0 20.8 L131.05 20.85 131.1 20.9 131.35 21.0 132.05 21.1 132.2 21.25 Q132.2 21.35 132.3 21.4 132.4 21.55 132.5 21.55 132.55 21.55 132.6 21.4 L132.6 21.3 132.65 21.15 Q132.65 21.0 132.7 21.0 L132.75 21.05 132.8 21.1 132.85 21.0 132.9 20.95 132.95 21.1 133.05 21.25 Q133.05 21.1 133.2 21.05 L133.35 20.95 133.35 20.85 Q133.35 20.75 133.4 20.7 L133.45 20.65 133.5 20.6 133.5 20.5 Q133.5 20.45 133.55 20.4 L133.6 20.4 133.7 20.4 133.75 20.35 133.75 20.3 133.85 20.2 Q133.9 20.2 133.85 20.1 L133.85 20.0 133.8 20.0 133.75 20.0 133.7 20.05 133.6 20.0 133.55 19.95 133.6 19.8 133.65 19.7 133.6 19.6 133.55 19.5 133.55 19.3 Q133.55 19.3 133.5 19.35 L133.45 19.4 133.4 19.25 Q133.4 19.2 133.45 19.05 L133.55 18.85 133.6 18.7 133.7 18.6 133.85 18.35 133.7 18.4 133.7 18.3 133.7 18.3 133.6 18.3 133.6 18.35 Q133.6 18.15 133.75 18.0 L133.85 17.95 133.95 17.9 133.95 17.75 134.05 17.65 134.15 17.5 Q134.15 17.5 134.2 17.4 L134.25 17.3 134.25 17.2 134.2 17.25 134.15 17.25 134.15 17.2 134.1 17.2 134.05 17.25 134.0 17.35 133.95 17.3 133.95 17.25 133.95 17.1 134.0 17.0 134.0 16.9 Q133.95 16.9 133.95 16.9 L133.9 16.8 133.85 16.75 133.7 16.8 133.7 16.7 Q133.65 16.6 133.6 16.65 L133.55 16.55 Q133.5 16.5 133.5 16.45 L133.45 16.3 133.4 16.15 133.35 16.1 133.35 16.05 133.25 15.95 133.2 16.05 133.2 15.9 133.2 15.65 133.15 15.55 133.1 15.35 133.05 15.3 133.0 15.2 133.05 15.05 132.95 14.95 Q132.9 15.05 132.9 15.1 L132.9 15.25 132.85 15.25 132.75 15.25 132.65 15.1 132.5 15.0 132.4 15.0 132.3 14.9 Q132.3 14.85 132.25 14.85 L132.0 14.65 132.0 15.05 132.05 15.25 132.15 15.5 132.15 15.65 132.05 15.7 132.0 15.7 131.95 15.75 131.9 15.75 131.85 15.7 131.65 15.45 131.5 15.15 131.4 14.95 131.4 15.3 131.4 15.55 131.45 15.65 131.6 15.9 131.45 15.8 131.4 16.0 131.4 16.15 131.45 16.25 131.45 16.35 131.4 16.4 131.4 16.5 131.4 16.65 131.35 16.7 131.3 16.6 131.15 16.6 131.15 16.55 131.1 16.5 131.05 16.45 131.0 16.4 130.95 16.35 Q130.85 16.35 130.85 16.3 L130.6 16.15 130.7 16.35 Q130.8 16.4 130.8 16.4 L130.85 16.55 130.9 16.65 130.9 16.75 131.0 16.75 131.1 16.8 Q131.05 16.8 131.05 16.85 L131.0 16.95 130.95 16.9 130.8 16.8 130.75 16.85 130.7 16.9 130.65 16.85 130.55 16.85 130.5 16.95 130.45 17.0 130.35 16.95 130.35 17.0 130.3 17.15 130.35 17.25 130.4 17.35 130.4 17.55 130.4 17.7 130.35 17.75 130.3 17.75 130.15 17.8 130.15 17.85 130.15 18.15 130.2 18.2 130.3 18.2 130.35 18.35 130.4 18.4 130.45 18.4 130.5 18.45 130.6 18.5 130.6 18.55 130.7 18.7 130.8 18.7 131.05 18.85 131.15 19.05 131.2 19.15 131.2 19.25 131.25 19.35 131.3 19.4 131.45 19.6 131.55 19.8 131.65 20.05 131.8 20.2 131.75 20.2 131.65 20.2 131.6 20.15 131.5 20.2 Q131.45 20.25 131.4 20.2 L131.4 20.15 131.25 20.05 131.1 20.0 131.05 20.05 131.0 20.1 130.75 20.0 130.6 20.15 130.5 20.25 130.4 20.3 130.35 20.4 130.3 20.5 130.15 20.6 130.25 20.7 130.35 20.85 130.35 21.0 130.4 21.1 130.45 21.15 M131.85 14.85 L131.85 14.75 131.8 14.7 131.75 14.8 131.8 15.0 131.8 15.1 Q131.75 15.1 131.75 15.2 L131.85 15.45 131.85 15.6 131.95 15.65 131.95 15.45 131.95 15.15 131.9 14.9 131.85 14.85 M131.9 13.9 L131.9 13.8 131.85 13.85 131.85 14.1 Q131.85 14.2 131.9 14.2 L131.95 14.2 131.9 14.05 131.95 14.05 131.9 13.9 M132.2 14.1 L132.15 13.85 132.15 13.7 132.1 13.8 132.1 13.95 132.05 14.05 132.05 14.15 132.1 14.35 132.1 14.4 132.1 14.55 132.2 14.65 Q132.2 14.6 132.25 14.55 L132.25 14.3 132.2 14.1 M131.35 14.45 L131.35 14.4 Q131.3 14.5 131.3 14.55 L131.35 14.7 Q131.35 14.75 131.4 14.75 L131.45 14.75 131.45 14.7 131.4 14.65 131.35 14.45 M130.95 19.35 L130.85 19.3 130.75 19.3 130.7 19.4 130.7 19.55 130.8 19.75 Q130.85 19.8 130.95 19.8 L131.0 19.8 131.05 19.75 131.2 19.8 131.45 19.9 131.5 19.9 131.55 19.8 130.95 19.35 M130.05 18.45 L130.05 18.5 130.1 18.6 130.1 18.65 130.15 18.8 130.35 18.9 130.8 19.2 130.9 19.2 130.95 19.15 131.0 19.1 130.8 18.9 130.75 18.85 130.7 18.8 130.65 18.7 130.55 18.6 130.4 18.5 130.35 18.55 130.35 18.5 130.3 18.4 130.1 18.3 130.05 18.35 130.05 18.45 M130.8 16.65 L130.7 16.6 130.7 16.65 130.75 16.7 130.75 16.75 130.8 16.75 130.8 16.65 M131.1 15.8 L131.1 15.85 131.15 16.0 Q131.2 16.1 131.3 16.1 L131.35 16.05 131.25 15.95 131.3 15.9 131.3 15.8 131.25 15.75 131.2 15.75 131.2 15.8 131.1 15.8 M130.9 15.75 L130.9 15.65 Q130.9 15.6 130.8 15.5 L130.75 15.45 130.75 15.5 130.6 15.55 130.45 15.55 Q130.4 15.55 130.4 15.65 130.4 15.75 130.45 15.75 L130.6 15.8 130.6 15.9 130.75 16.0 130.95 16.2 131.0 16.2 Q131.2 16.4 131.25 16.35 L131.15 16.3 131.15 16.25 131.05 16.1 131.05 16.05 131.0 16.05 130.9 15.85 130.9 15.75 M135.7 14.95 L135.7 15.05 Q135.65 15.05 135.65 15.1 L135.55 15.15 135.55 15.05 135.6 15.0 135.65 15.05 135.65 15.0 135.7 14.95 M136.2 16.6 L136.2 16.65 Q136.25 16.6 136.25 16.65 L136.25 16.75 136.2 16.75 Q136.15 16.75 136.15 16.65 L136.1 16.6 136.15 16.55 136.2 16.6 M136.1 17.05 L136.15 17.1 136.15 17.15 136.1 17.2 136.05 17.2 136.1 17.05 M135.5 15.6 L135.5 15.75 135.4 15.8 135.35 15.85 135.3 15.9 135.25 15.9 Q135.25 15.85 135.35 15.8 L135.4 15.65 Q135.4 15.55 135.4 15.55 L135.5 15.6 M134.8 15.05 L134.8 15.2 134.7 15.45 134.65 15.55 134.55 15.75 134.55 15.8 134.6 15.55 134.6 15.45 134.7 15.25 134.8 15.05 M135.4 16.45 L135.35 16.55 135.35 16.7 135.3 16.85 135.2 17.05 135.1 17.05 135.0 17.15 134.95 17.25 134.85 17.35 134.75 17.35 134.6 17.45 134.55 17.6 134.4 17.65 Q134.35 17.7 134.25 17.8 L134.25 17.9 134.45 17.9 134.55 17.95 134.7 17.95 134.75 17.9 134.85 17.8 Q134.9 17.7 134.95 17.65 L135.0 17.6 135.05 17.55 135.2 17.4 135.25 17.3 135.3 17.15 135.35 17.0 135.35 16.85 135.45 16.6 135.5 16.4 135.4 16.45 M134.6 17.0 L134.55 16.95 Q134.5 16.95 134.4 17.1 L134.4 17.15 Q134.45 17.2 134.5 17.15 L134.55 17.2 Q134.6 17.2 134.65 17.15 L134.65 17.1 134.6 17.0 M135.0 17.9 L134.9 17.95 134.8 18.0 134.75 18.05 Q134.7 18.05 134.65 18.1 L134.55 18.3 134.5 18.4 134.4 18.45 134.25 18.55 134.1 18.65 Q134.05 18.7 133.95 18.9 L133.9 19.0 134.0 18.95 Q134.05 18.9 134.2 18.9 L134.35 18.85 134.6 18.7 134.6 18.65 134.7 18.6 Q134.75 18.5 134.8 18.5 L134.95 18.35 135.0 18.35 135.1 18.3 135.2 18.2 135.2 18.05 135.15 18.05 135.1 18.0 135.1 17.9 135.0 17.9 M135.45 18.55 L135.55 18.5 135.6 18.8 135.5 18.9 135.45 18.95 Q135.4 19.0 135.4 19.1 L135.35 19.1 135.35 19.25 135.3 19.15 135.3 18.9 135.3 18.7 135.45 18.55 M134.1 19.5 Q134.0 19.5 133.9 19.65 L133.95 19.65 134.0 19.8 133.9 20.05 Q133.85 20.3 133.85 20.35 L133.85 20.4 133.9 20.4 134.0 20.35 134.1 20.2 134.2 20.05 134.35 19.95 134.45 19.8 Q134.5 19.65 134.55 19.65 134.6 19.65 134.6 19.65 134.65 19.55 134.7 19.55 134.85 19.45 134.9 19.3 134.85 19.35 134.85 19.3 L134.7 19.35 134.65 19.35 134.6 19.35 134.5 19.4 134.4 19.45 134.25 19.6 134.2 19.55 134.1 19.5 M134.4 18.2 L134.5 18.1 Q134.45 18.05 134.35 18.1 L134.25 18.05 134.15 18.1 134.2 18.15 134.2 18.2 134.3 18.25 134.35 18.25 134.4 18.2 M135.65 19.4 L135.7 19.25 135.8 19.1 135.85 19.1 135.85 19.25 135.8 19.25 135.65 19.4 M133.95 22.25 Q134.05 22.15 134.1 22.15 L134.35 22.1 134.2 22.25 134.1 22.35 133.95 22.4 133.7 22.65 133.5 22.75 133.45 22.75 133.4 22.75 133.35 22.7 Q133.4 22.6 133.55 22.55 L133.8 22.45 133.9 22.3 133.95 22.25 M133.75 21.9 L133.75 21.95 133.55 22.1 133.5 22.15 133.35 22.25 133.3 22.2 Q133.3 22.1 133.35 22.05 L133.4 21.95 133.45 21.9 133.75 21.85 133.75 21.9 M135.4 20.6 L135.35 20.8 135.25 20.9 135.05 21.2 134.9 21.4 134.9 21.35 134.85 21.35 135.1 20.85 135.2 20.75 135.4 20.6 M134.85 20.2 L135.0 20.2 Q134.95 20.4 134.75 20.6 L134.45 20.8 134.65 20.55 134.85 20.2 M137.05 19.95 L137.15 20.05 Q137.2 20.4 136.4 21.1 136.3 21.15 136.2 21.25 L135.55 21.75 135.55 21.65 135.8 21.45 136.1 21.1 136.25 20.95 136.5 20.7 Q136.85 20.3 136.8 20.1 136.8 20.0 136.75 20.0 L136.95 19.9 137.05 19.95 M135.85 18.55 L135.95 18.45 135.95 18.4 136.0 18.45 135.95 18.55 135.85 18.75 135.8 18.7 135.85 18.55 M134.5 21.9 Q134.5 21.8 134.65 21.65 L134.7 21.6 134.8 21.55 134.85 21.55 134.95 21.55 135.0 21.55 134.95 21.6 134.8 21.7 134.75 21.75 Q134.65 21.8 134.5 21.9 M134.6 22.2 Q134.65 22.15 134.7 22.15 L134.65 22.2 134.65 22.25 134.6 22.3 134.55 22.3 134.6 22.25 134.6 22.2 M129.65 21.0 L129.65 20.9 Q129.55 20.8 129.55 20.75 L129.55 20.7 129.7 20.8 129.75 21.0 129.85 21.2 129.75 21.15 129.75 21.1 129.65 21.0 M129.95 21.55 L129.95 21.5 130.0 21.5 130.05 21.5 130.1 21.6 130.05 21.6 129.95 21.55 M130.45 21.8 L130.45 21.9 130.5 21.95 130.55 22.05 130.55 22.1 130.65 22.2 130.8 22.3 131.0 22.35 Q131.15 22.45 131.35 22.55 L131.55 22.6 131.55 22.65 130.95 22.5 130.6 22.25 130.4 22.0 130.25 21.8 130.25 21.75 130.3 21.65 130.45 21.8 M130.75 22.8 Q130.85 22.7 130.95 22.7 L131.25 22.7 Q131.15 22.75 131.05 22.8 L130.85 22.9 130.8 22.9 130.75 22.8 M128.2 14.8 L128.25 14.85 128.25 15.0 128.2 15.15 128.15 15.05 128.15 14.95 128.2 14.75 128.2 14.8 M128.75 16.5 L128.8 16.5 Q128.8 16.7 128.7 16.7 L128.7 16.6 128.75 16.5 M128.95 16.85 L128.9 16.95 128.85 17.0 128.85 16.95 128.8 16.9 128.85 16.85 128.9 16.85 128.9 16.85 128.95 16.85 M128.95 17.15 L128.9 17.1 128.95 17.1 Q129.1 17.15 129.2 17.35 129.3 17.45 129.3 17.6 129.2 17.55 129.1 17.4 L129.1 17.35 128.95 17.15 M128.5 18.25 L128.55 18.45 128.55 18.6 128.5 18.75 Q128.45 18.7 128.45 18.5 L128.45 18.35 Q128.45 18.25 128.5 18.25 M128.9 19.5 Q128.9 19.3 129.1 19.3 129.2 19.25 129.3 19.35 129.5 19.45 129.7 19.75 L129.6 19.85 129.45 19.9 129.2 19.85 129.15 19.85 Q128.95 19.75 128.9 19.5 M129.35 18.9 Q129.1 18.9 129.15 18.6 129.25 18.65 129.4 18.7 L129.6 18.85 129.4 18.9 129.35 18.9 M129.4 20.35 L129.45 20.45 129.45 20.5 129.35 20.4 129.35 20.35 129.4 20.35 M128.4 20.2 Q128.35 20.2 128.15 20.3 L128.05 20.3 Q127.95 20.3 127.9 20.1 L128.15 20.1 128.4 20.2" fill="#722c28" fill-rule="evenodd" stroke="none"/>
    <path d="M133.25 14.65 L133.3 15.0 133.4 15.2 Q133.3 15.35 133.3 15.5 133.35 15.7 133.4 15.7 L133.55 15.55 133.6 15.7 133.6 15.85 133.6 15.9 133.55 16.0 133.45 15.85 133.45 15.8 Q133.45 15.8 133.4 15.8 L133.35 15.65 133.25 15.55 Q133.2 15.45 133.15 15.35 L133.15 14.95 133.2 14.75 133.25 14.65 M130.75 21.3 L130.7 21.3 130.45 21.15 130.4 21.1 130.35 21.0 130.35 20.85 130.25 20.7 130.15 20.6 130.3 20.5 130.35 20.4 130.4 20.3 130.5 20.25 130.6 20.15 130.75 20.0 131.0 20.1 131.05 20.05 131.1 20.0 131.25 20.05 131.4 20.15 131.4 20.2 Q131.45 20.25 131.5 20.2 L131.6 20.15 131.65 20.2 131.75 20.2 131.8 20.2 131.65 20.05 131.55 19.8 131.45 19.6 131.3 19.4 131.25 19.35 131.2 19.25 131.2 19.15 131.15 19.05 131.05 18.85 130.8 18.7 130.7 18.7 130.6 18.55 130.6 18.5 130.5 18.45 130.45 18.4 130.4 18.4 130.35 18.35 130.3 18.2 130.2 18.2 130.15 18.15 130.15 17.85 130.15 17.8 130.3 17.75 130.35 17.75 130.4 17.7 130.4 17.55 130.4 17.35 130.35 17.25 130.3 17.15 130.35 17.0 130.35 16.95 130.45 17.0 130.5 16.95 130.55 16.85 130.65 16.85 130.7 16.9 130.75 16.85 130.8 16.8 130.95 16.9 131.0 16.95 131.05 16.85 Q131.05 16.8 131.1 16.8 L131.0 16.75 130.9 16.75 130.9 16.65 130.85 16.55 130.8 16.4 Q130.8 16.4 130.7 16.35 L130.6 16.15 130.85 16.3 Q130.85 16.35 130.95 16.35 L131.0 16.4 131.05 16.45 131.1 16.5 131.15 16.55 131.15 16.6 131.3 16.6 131.35 16.7 131.4 16.65 131.4 16.5 131.4 16.4 131.45 16.35 131.45 16.25 131.4 16.15 131.4 16.0 131.45 15.8 131.6 15.9 131.45 15.65 131.4 15.55 131.4 15.3 131.4 14.95 131.5 15.15 131.65 15.45 131.85 15.7 131.9 15.75 131.95 15.75 132.0 15.7 132.05 15.7 132.15 15.65 132.15 15.5 132.05 15.25 132.0 15.05 132.0 14.65 132.25 14.85 Q132.3 14.85 132.3 14.9 L132.4 15.0 132.5 15.0 132.65 15.1 132.75 15.25 132.85 15.25 132.9 15.25 132.9 15.1 Q132.9 15.05 132.95 14.95 L133.05 15.05 133.0 15.2 133.05 15.3 133.1 15.35 133.15 15.55 133.2 15.65 133.2 15.9 133.2 16.05 133.25 15.95 133.35 16.05 133.35 16.1 133.4 16.15 133.45 16.3 133.5 16.45 Q133.5 16.5 133.55 16.55 L133.6 16.65 Q133.65 16.6 133.7 16.7 L133.7 16.8 133.85 16.75 133.9 16.8 133.95 16.9 Q133.95 16.9 134.0 16.9 L134.0 17.0 133.95 17.1 133.95 17.25 133.95 17.3 134.0 17.35 134.05 17.25 134.1 17.2 134.15 17.2 134.15 17.25 134.2 17.25 134.25 17.2 134.25 17.3 134.2 17.4 Q134.15 17.5 134.15 17.5 L134.05 17.65 133.95 17.75 133.95 17.9 133.85 17.95 133.75 18.0 Q133.6 18.15 133.6 18.35 L133.6 18.3 133.7 18.3 133.7 18.3 133.7 18.4 133.85 18.35 133.7 18.6 133.6 18.7 133.55 18.85 133.45 19.05 Q133.4 19.2 133.4 19.25 L133.45 19.4 133.5 19.35 Q133.55 19.3 133.55 19.3 L133.55 19.5 133.6 19.6 133.65 19.7 133.6 19.8 133.55 19.95 133.6 20.0 133.7 20.05 133.75 20.0 133.8 20.0 133.85 20.0 133.85 20.1 Q133.9 20.2 133.85 20.2 L133.75 20.3 133.75 20.35 133.7 20.4 133.6 20.4 133.55 20.4 Q133.5 20.45 133.5 20.5 L133.5 20.6 133.45 20.65 133.4 20.7 Q133.35 20.75 133.35 20.85 L133.35 20.95 133.2 21.05 Q133.05 21.1 133.05 21.25 L132.95 21.1 132.9 20.95 132.85 21.0 132.8 21.1 132.75 21.05 132.7 21.0 Q132.65 21.0 132.65 21.15 L132.6 21.3 132.6 21.4 Q132.55 21.55 132.5 21.55 132.4 21.55 132.3 21.4 132.2 21.35 132.2 21.25 L132.05 21.1 131.35 21.0 131.1 20.9 131.05 20.85 131.0 20.8 Q131.0 20.75 131.05 20.65 L130.75 20.45 130.7 20.45 130.65 20.45 130.6 20.45 130.55 20.45 130.5 20.55 Q130.45 20.55 130.45 20.6 L130.5 20.65 130.55 20.75 130.55 20.9 130.6 20.95 130.7 20.95 130.8 21.0 130.8 21.05 130.85 21.1 130.9 21.2 130.9 21.3 130.8 21.3 130.75 21.3 M131.35 14.45 L131.4 14.65 131.45 14.7 131.45 14.75 131.4 14.75 Q131.35 14.75 131.35 14.7 L131.3 14.55 Q131.3 14.5 131.35 14.4 L131.35 14.45 M132.2 14.1 L132.25 14.3 132.25 14.55 Q132.2 14.6 132.2 14.65 L132.1 14.55 132.1 14.4 132.1 14.35 132.05 14.15 132.05 14.05 132.1 13.95 132.1 13.8 132.15 13.7 132.15 13.85 132.2 14.1 M131.9 13.9 L131.95 14.05 131.9 14.05 131.95 14.2 131.9 14.2 Q131.85 14.2 131.85 14.1 L131.85 13.85 131.9 13.8 131.9 13.9 M131.85 14.85 L131.9 14.9 131.95 15.15 131.95 15.45 131.95 15.65 131.85 15.6 131.85 15.45 131.75 15.2 Q131.75 15.1 131.8 15.1 L131.8 15.0 131.75 14.8 131.8 14.7 131.85 14.75 131.85 14.85 M132.9 16.0 L132.8 15.85 132.7 15.65 132.6 15.5 132.5 15.4 Q132.45 15.45 132.35 15.55 132.3 15.75 132.3 15.85 L132.3 16.0 132.2 16.1 132.1 16.1 132.0 16.0 132.0 16.2 131.95 16.2 131.9 16.2 131.85 16.2 131.85 16.35 131.85 16.5 131.9 16.55 131.95 16.65 131.95 16.8 132.0 16.95 132.0 17.05 131.75 16.95 131.65 17.0 Q131.6 17.0 131.5 16.9 L131.25 16.75 131.2 16.75 131.15 16.75 131.1 16.75 131.15 16.8 131.2 16.85 Q131.25 16.85 131.25 16.9 L131.2 17.0 131.2 17.05 131.15 17.2 131.05 17.35 Q131.0 17.4 131.0 17.5 L131.0 17.7 131.05 17.75 131.0 17.75 130.85 17.75 130.85 17.85 130.95 18.0 131.05 18.15 131.15 18.3 131.2 18.4 Q131.25 18.45 131.35 18.45 L131.45 18.5 131.55 18.65 131.65 18.8 131.45 18.85 131.3 18.85 Q131.2 18.85 131.25 18.9 L131.35 19.05 Q131.45 19.15 131.55 19.45 L131.65 19.75 131.85 19.95 131.8 20.0 131.75 20.05 131.85 20.1 131.9 20.2 131.9 20.25 131.85 20.25 131.65 20.25 131.5 20.3 131.35 20.35 131.2 20.35 130.95 20.3 130.85 20.35 130.8 20.4 131.0 20.4 Q131.1 20.4 131.15 20.45 L131.15 20.5 131.3 20.7 131.4 20.65 131.5 20.7 131.5 20.85 Q131.55 20.9 131.6 20.9 L131.75 20.95 131.9 20.95 131.95 20.95 Q132.05 20.9 132.15 21.0 L132.3 21.15 132.5 21.2 132.5 21.15 132.55 21.05 132.6 21.0 132.6 20.9 132.75 20.8 Q132.8 20.75 132.9 20.75 132.95 20.7 133.0 20.8 L133.1 20.85 133.15 20.8 133.2 20.75 133.15 20.65 133.1 20.6 133.1 20.55 133.15 20.4 133.25 20.4 133.4 20.35 133.45 20.35 133.5 20.25 133.45 20.2 Q133.4 20.25 133.3 20.2 L133.25 20.05 133.3 19.8 133.25 19.8 133.2 19.75 Q133.1 19.75 133.1 19.6 L133.0 19.55 Q132.9 19.45 132.9 19.4 L132.95 19.3 132.95 19.2 133.0 19.1 133.05 19.05 133.1 19.0 133.1 18.9 Q133.05 18.95 133.05 18.9 L133.2 18.55 133.3 18.35 133.35 18.3 133.45 18.2 Q133.55 18.05 133.7 17.95 L133.7 17.85 Q133.85 17.75 133.85 17.6 L133.8 17.6 133.7 17.65 133.65 17.7 133.6 17.6 133.65 17.5 133.65 17.25 133.6 17.2 Q133.55 17.1 133.6 17.05 L133.55 16.85 133.45 16.8 133.4 16.65 133.3 16.55 133.3 16.5 133.25 16.45 133.15 16.55 Q133.1 16.55 133.1 16.5 L133.05 16.35 133.0 16.2 132.9 16.0 M130.9 15.75 L130.9 15.85 131.0 16.05 131.05 16.05 131.05 16.1 131.15 16.25 131.15 16.3 131.25 16.35 Q131.2 16.4 131.0 16.2 L130.95 16.2 130.75 16.0 130.6 15.9 130.6 15.8 130.45 15.75 Q130.4 15.75 130.4 15.65 130.4 15.55 130.45 15.55 L130.6 15.55 130.75 15.5 130.75 15.45 130.8 15.5 Q130.9 15.6 130.9 15.65 L130.9 15.75 M131.1 15.8 L131.2 15.8 131.2 15.75 131.25 15.75 131.3 15.8 131.3 15.9 131.25 15.95 131.35 16.05 131.3 16.1 Q131.2 16.1 131.15 16.0 L131.1 15.85 131.1 15.8 M130.8 16.65 L130.8 16.75 130.75 16.75 130.75 16.7 130.7 16.65 130.7 16.6 130.8 16.65 M130.05 18.45 L130.05 18.35 130.1 18.3 130.3 18.4 130.35 18.5 130.35 18.55 130.4 18.5 130.55 18.6 130.65 18.7 130.7 18.8 130.75 18.85 130.8 18.9 131.0 19.1 130.95 19.15 130.9 19.2 130.8 19.2 130.35 18.9 130.15 18.8 130.1 18.65 130.1 18.6 130.05 18.5 130.05 18.45 M130.95 19.35 L131.55 19.8 131.5 19.9 131.45 19.9 131.2 19.8 131.05 19.75 131.0 19.8 130.95 19.8 Q130.85 19.8 130.8 19.75 L130.7 19.55 130.7 19.4 130.75 19.3 130.85 19.3 130.95 19.35 M134.6 17.0 L134.65 17.1 134.65 17.15 Q134.6 17.2 134.55 17.2 L134.5 17.15 Q134.45 17.2 134.4 17.15 L134.4 17.1 Q134.5 16.95 134.55 16.95 L134.6 17.0 M135.4 16.45 L135.5 16.4 135.45 16.6 135.35 16.85 135.35 17.0 135.3 17.15 135.25 17.3 135.2 17.4 135.05 17.55 135.0 17.6 134.95 17.65 Q134.9 17.7 134.85 17.8 L134.75 17.9 134.7 17.95 134.55 17.95 134.45 17.9 134.25 17.9 134.25 17.8 Q134.35 17.7 134.4 17.65 L134.55 17.6 134.6 17.45 134.75 17.35 134.85 17.35 134.95 17.25 135.0 17.15 135.1 17.05 135.2 17.05 135.3 16.85 135.35 16.7 135.35 16.55 135.4 16.45 M134.95 17.55 L135.1 17.4 135.0 17.4 134.85 17.5 134.75 17.55 134.65 17.6 Q134.6 17.6 134.5 17.7 L134.45 17.75 134.45 17.8 134.7 17.8 134.95 17.55 M135.0 17.9 L135.1 17.9 135.1 18.0 135.15 18.05 135.2 18.05 135.2 18.2 135.1 18.3 135.0 18.35 134.95 18.35 134.8 18.5 Q134.75 18.5 134.7 18.6 L134.6 18.65 134.6 18.7 134.35 18.85 134.2 18.9 Q134.05 18.9 134.0 18.95 L133.9 19.0 133.95 18.9 Q134.05 18.7 134.1 18.65 L134.25 18.55 134.4 18.45 134.5 18.4 134.55 18.3 134.65 18.1 Q134.7 18.05 134.75 18.05 L134.8 18.0 134.9 17.95 135.0 17.9 M134.4 18.2 L134.35 18.25 134.3 18.25 134.2 18.2 134.2 18.15 134.15 18.1 134.25 18.05 134.35 18.1 Q134.45 18.05 134.5 18.1 L134.4 18.2 M134.1 19.5 L134.2 19.55 134.25 19.6 134.4 19.45 134.5 19.4 134.6 19.35 134.65 19.35 134.7 19.35 134.85 19.3 Q134.85 19.35 134.9 19.3 134.85 19.45 134.7 19.55 134.65 19.55 134.6 19.65 134.6 19.65 134.55 19.65 134.5 19.65 134.45 19.8 L134.35 19.95 134.2 20.05 134.1 20.2 134.0 20.35 133.9 20.4 133.85 20.4 133.85 20.35 Q133.85 20.3 133.9 20.05 L134.0 19.8 133.95 19.65 133.9 19.65 Q134.0 19.5 134.1 19.5 M131.0 22.35 L130.8 22.3 130.65 22.2 130.55 22.1 130.55 22.05 130.5 21.95 130.45 21.9 130.45 21.8 130.65 22.0 130.75 22.1 131.0 22.35" fill="#b97814" fill-rule="evenodd" stroke="none"/>
    <path d="M133.4 15.2 Q133.4 15.25 133.4 15.3 L133.5 15.45 133.55 15.55 133.4 15.7 Q133.35 15.7 133.3 15.5 133.3 15.35 133.4 15.2 M132.9 16.0 L133.0 16.2 133.05 16.35 133.1 16.5 Q133.1 16.55 133.15 16.55 L133.25 16.45 133.3 16.5 133.3 16.55 133.4 16.65 133.45 16.8 133.55 16.85 133.6 17.05 Q133.55 17.1 133.6 17.2 L133.65 17.25 133.65 17.5 133.6 17.6 133.65 17.7 133.7 17.65 133.8 17.6 133.85 17.6 Q133.85 17.75 133.7 17.85 L133.7 17.95 Q133.55 18.05 133.45 18.2 L133.35 18.3 133.3 18.35 133.2 18.55 133.05 18.9 Q133.05 18.95 133.1 18.9 L133.1 19.0 133.05 19.05 133.0 19.1 132.95 19.2 132.95 19.3 132.9 19.4 Q132.9 19.45 133.0 19.55 L133.1 19.6 Q133.1 19.75 133.2 19.75 L133.25 19.8 133.3 19.8 133.25 20.05 133.3 20.2 Q133.4 20.25 133.45 20.2 L133.5 20.25 133.45 20.35 133.4 20.35 133.25 20.4 133.15 20.4 133.1 20.55 133.1 20.6 133.15 20.65 133.2 20.75 133.15 20.8 133.1 20.85 133.0 20.8 Q132.95 20.7 132.9 20.75 132.8 20.75 132.75 20.8 L132.6 20.9 132.6 21.0 132.55 21.05 132.5 21.15 132.5 21.2 132.3 21.15 132.15 21.0 Q132.05 20.9 131.95 20.95 L131.9 20.95 131.75 20.95 131.6 20.9 Q131.55 20.9 131.5 20.85 L131.5 20.7 131.4 20.65 131.3 20.7 131.15 20.5 131.15 20.45 Q131.1 20.4 131.0 20.4 L130.8 20.4 130.85 20.35 130.95 20.3 131.2 20.35 131.35 20.35 131.5 20.3 131.65 20.25 131.85 20.25 131.9 20.25 131.9 20.2 131.85 20.1 131.75 20.05 131.8 20.0 131.85 19.95 131.65 19.75 131.55 19.45 Q131.45 19.15 131.35 19.05 L131.25 18.9 Q131.2 18.85 131.3 18.85 L131.45 18.85 131.65 18.8 131.55 18.65 131.45 18.5 131.35 18.45 Q131.25 18.45 131.2 18.4 L131.15 18.3 131.05 18.15 130.95 18.0 130.85 17.85 130.85 17.75 131.0 17.75 131.05 17.75 131.0 17.7 131.0 17.5 Q131.0 17.4 131.05 17.35 L131.15 17.2 131.2 17.05 131.2 17.0 131.25 16.9 Q131.25 16.85 131.2 16.85 L131.15 16.8 131.1 16.75 131.15 16.75 131.2 16.75 131.25 16.75 131.5 16.9 Q131.6 17.0 131.65 17.0 L131.75 16.95 132.0 17.05 132.0 16.95 131.95 16.8 131.95 16.65 131.9 16.55 131.85 16.5 131.85 16.35 131.85 16.2 131.9 16.2 131.95 16.2 132.0 16.2 132.0 16.0 132.1 16.1 132.2 16.1 132.3 16.0 132.3 15.85 Q132.3 15.75 132.35 15.55 132.45 15.45 132.5 15.4 L132.6 15.5 132.7 15.65 132.8 15.85 132.9 16.0 M134.95 17.55 L134.7 17.8 134.45 17.8 134.45 17.75 134.5 17.7 Q134.6 17.6 134.65 17.6 L134.75 17.55 134.85 17.5 135.0 17.4 135.1 17.4 134.95 17.55" fill="#ffe693" fill-rule="evenodd" stroke="none"/>
  </g>
</svg>
