<?xml version="1.0" encoding="UTF-8" standalone="no"?>
<svg xmlns:xlink="http://www.w3.org/1999/xlink" height="10.15px" width="9.25px" xmlns="http://www.w3.org/2000/svg">
  <g transform="matrix(1.0, 0.0, 0.0, 1.0, -132.6, -14.45)">
    <path d="M135.2 22.85 L135.0 22.75 135.05 22.6 134.95 22.55 Q134.9 22.5 134.9 22.4 L134.8 22.35 134.75 22.3 135.0 22.0 134.95 21.9 134.95 21.8 134.85 21.6 134.8 21.55 134.75 21.5 134.85 21.45 135.0 21.45 135.1 21.4 135.15 21.35 135.15 21.2 135.05 21.05 135.1 21.0 135.1 20.95 135.0 20.85 134.85 20.65 134.8 20.45 134.75 20.3 134.65 20.2 134.65 20.05 134.6 19.9 134.55 19.8 134.45 19.6 134.45 19.4 134.5 19.4 134.55 19.4 134.6 19.4 Q134.65 19.4 134.7 19.35 L134.8 19.25 134.85 19.3 134.9 19.3 134.95 19.3 134.95 19.25 134.85 18.95 134.8 18.75 Q134.8 18.7 134.85 18.7 L134.9 18.6 134.9 18.5 134.85 18.4 134.85 18.3 135.05 18.3 Q135.1 18.3 135.05 18.15 135.1 18.15 135.15 18.1 L135.15 18.05 135.25 17.95 135.2 17.8 135.15 17.7 135.1 17.7 135.1 17.6 135.15 17.55 135.05 17.25 134.95 16.95 Q134.95 16.9 135.0 16.85 135.05 16.8 135.1 16.95 L135.2 17.1 135.3 17.05 135.25 16.8 135.2 16.6 135.2 16.4 135.4 16.7 135.55 16.75 135.6 16.8 135.7 16.85 135.8 17.0 135.85 17.05 135.9 17.15 135.95 17.15 136.0 17.1 136.0 16.95 135.95 16.9 135.95 16.6 135.95 16.4 135.9 16.2 135.9 15.9 135.85 15.6 135.85 14.85 Q135.85 15.0 136.0 15.3 L136.15 15.7 136.35 16.5 136.4 16.65 136.4 16.15 136.4 15.65 136.35 14.85 136.4 15.0 136.4 14.95 136.5 14.95 136.5 15.0 136.55 15.05 Q136.6 15.05 136.65 14.8 L136.65 14.45 136.85 15.2 136.9 15.35 136.95 15.45 137.0 15.5 137.05 15.55 137.05 15.6 137.2 15.45 137.25 15.7 137.3 15.9 137.4 15.9 137.4 15.95 137.45 16.15 137.5 15.9 137.6 15.7 137.65 15.8 137.7 15.75 137.75 15.7 137.85 15.65 137.85 15.85 137.85 16.0 137.9 16.25 137.95 16.35 137.95 16.4 137.9 16.6 137.9 17.0 Q137.9 17.15 138.0 17.2 L138.05 17.3 138.1 17.45 138.15 17.5 138.3 17.7 138.3 17.6 138.35 17.55 138.35 17.9 Q138.4 18.0 138.5 18.0 L138.6 18.0 138.6 18.1 138.65 18.1 Q138.75 18.1 138.8 18.15 L138.9 18.35 138.95 18.4 138.95 18.5 139.0 18.65 Q139.0 18.65 139.05 18.65 L139.2 18.5 139.25 18.4 139.35 18.45 139.4 18.55 139.45 18.6 139.5 18.7 139.6 18.65 139.65 18.55 139.7 18.5 139.75 18.5 Q139.8 18.5 139.85 18.35 L139.95 18.2 140.1 18.05 140.15 17.95 140.25 17.9 Q140.35 17.8 140.45 17.75 140.5 17.7 140.6 17.7 L140.5 17.8 140.55 17.8 Q140.55 17.9 140.45 17.9 140.35 18.05 140.35 18.2 L140.2 18.6 140.2 18.65 140.15 18.8 140.1 18.9 140.15 18.9 140.15 18.95 140.1 19.1 140.0 19.25 140.0 19.35 139.9 19.5 139.9 19.55 139.95 19.55 140.05 19.5 140.1 19.5 139.9 19.9 139.6 20.4 139.4 20.65 139.45 20.75 139.5 20.8 139.6 20.7 Q139.6 20.65 139.65 20.65 L139.75 20.7 Q139.8 20.75 139.85 20.7 L139.5 21.35 139.35 21.65 Q139.3 21.65 139.2 21.85 L139.05 22.0 138.85 22.15 138.6 22.4 138.5 22.55 138.45 22.65 138.35 22.7 138.2 22.95 138.1 23.1 138.0 23.2 137.95 23.3 137.75 23.45 137.65 23.65 137.55 23.8 137.45 23.8 137.3 23.75 Q137.25 23.7 137.1 23.7 L136.85 23.6 136.25 23.25 135.95 23.15 135.75 23.15 135.45 22.95 135.5 22.95 135.6 22.95 135.6 22.9 135.55 22.8 135.5 22.75 135.55 22.65 135.4 22.65 135.3 22.6 135.3 22.55 135.25 22.4 135.2 22.35 135.2 22.2 135.25 22.15 135.3 22.15 135.35 22.15 135.4 22.15 135.45 22.15 135.65 22.2 135.75 22.35 Q135.7 22.4 135.7 22.45 L135.75 22.5 135.8 22.55 136.1 22.65 136.75 22.75 136.9 22.9 Q136.95 23.0 137.0 23.05 137.1 23.2 137.2 23.2 137.25 23.2 137.3 23.05 L137.3 22.95 137.35 22.8 Q137.35 22.65 137.4 22.65 L137.45 22.7 137.5 22.75 137.55 22.7 137.65 22.65 137.7 22.75 137.8 22.9 Q137.8 22.75 137.9 22.7 L138.05 22.65 138.1 22.5 Q138.05 22.45 138.1 22.4 L138.2 22.35 138.25 22.3 138.25 22.2 138.2 22.2 Q138.2 22.15 138.25 22.1 L138.3 22.1 138.4 22.1 138.45 22.05 138.45 21.95 138.55 21.85 Q138.6 21.85 138.6 21.75 L138.6 21.7 138.55 21.65 138.5 21.65 138.45 21.7 138.4 21.7 138.35 21.65 138.25 21.6 138.3 21.5 138.35 21.35 138.3 21.25 138.25 21.15 138.3 21.0 Q138.25 21.0 138.2 21.05 L138.15 21.1 138.1 20.95 Q138.1 20.9 138.15 20.75 L138.3 20.5 138.35 20.4 138.4 20.3 138.6 20.05 138.55 20.0 138.45 20.1 138.45 19.95 138.4 19.95 138.3 20.0 Q138.35 19.85 138.45 19.65 L138.55 19.6 138.65 19.6 138.65 19.5 138.7 19.4 138.8 19.3 138.85 19.2 138.95 19.05 138.95 18.9 138.9 18.9 138.85 18.9 138.8 18.9 138.75 19.0 138.7 18.95 138.65 18.9 138.65 18.85 138.7 18.8 Q138.7 18.7 138.75 18.65 L138.7 18.6 Q138.65 18.55 138.65 18.6 L138.65 18.5 138.55 18.4 138.45 18.45 138.4 18.35 Q138.4 18.3 138.3 18.3 138.25 18.3 138.25 18.25 138.2 18.2 138.25 18.1 L138.15 17.95 138.1 17.85 138.1 17.8 138.05 17.7 138.0 17.6 137.9 17.7 137.95 17.55 137.9 17.45 137.9 17.3 137.85 17.2 137.85 17.05 137.75 16.95 137.75 16.85 137.8 16.7 137.7 16.6 137.7 16.65 Q137.65 16.7 137.65 16.75 L137.6 16.9 137.6 16.95 137.55 16.95 137.45 16.9 137.35 16.75 137.15 16.65 137.05 16.55 Q137.0 16.5 136.95 16.55 L136.7 16.35 136.7 16.5 136.75 16.7 136.8 16.9 136.85 17.2 136.85 17.3 136.8 17.4 136.75 17.35 136.7 17.35 136.7 17.4 136.65 17.4 136.6 17.35 136.4 17.15 136.25 16.85 136.1 16.6 136.15 16.85 136.15 16.95 136.15 17.2 136.2 17.3 136.35 17.55 136.2 17.5 136.15 17.65 136.15 17.9 136.2 18.0 136.15 18.1 136.1 18.15 136.1 18.2 136.15 18.25 136.15 18.35 136.1 18.35 136.05 18.35 136.0 18.3 135.9 18.25 135.85 18.2 135.8 18.2 135.75 18.1 135.7 18.05 135.65 18.0 Q135.6 18.0 135.55 17.95 L135.35 17.8 135.4 18.05 Q135.5 18.05 135.5 18.1 L135.55 18.2 135.6 18.2 135.6 18.3 135.65 18.4 135.75 18.4 135.8 18.45 135.8 18.5 135.75 18.55 135.7 18.6 135.65 18.55 Q135.55 18.45 135.55 18.45 L135.5 18.5 135.4 18.55 135.35 18.55 135.25 18.5 135.25 18.6 135.2 18.65 135.15 18.65 135.1 18.65 135.05 18.7 135.05 18.9 135.1 18.9 135.1 19.0 135.1 19.25 135.15 19.35 135.1 19.4 135.05 19.4 135.0 19.4 134.9 19.45 134.85 19.55 134.85 19.65 134.9 19.8 134.95 19.85 135.0 19.85 135.05 20.0 135.1 20.05 Q135.15 20.1 135.2 20.1 L135.25 20.1 135.3 20.15 135.35 20.25 135.4 20.35 135.5 20.4 135.65 20.4 135.75 20.5 135.85 20.75 135.9 20.85 135.9 20.95 135.95 21.0 136.05 21.05 136.2 21.3 136.3 21.45 136.4 21.7 Q136.5 21.8 136.5 21.85 L136.5 21.9 136.35 21.85 136.3 21.85 136.2 21.85 Q136.15 21.9 136.15 21.85 L136.1 21.8 135.95 21.7 135.85 21.7 135.8 21.7 135.75 21.7 135.7 21.75 135.45 21.65 135.3 21.85 135.2 21.95 135.1 22.0 135.1 22.05 135.0 22.15 134.85 22.3 134.95 22.4 135.05 22.55 135.05 22.6 135.1 22.65 135.15 22.75 135.2 22.85 M132.9 16.4 L132.9 16.45 132.95 16.45 132.95 16.6 132.95 16.85 132.9 16.85 132.9 16.6 132.9 16.4 M133.5 18.15 L133.55 18.2 Q133.5 18.35 133.45 18.35 L133.4 18.3 133.4 18.25 133.45 18.15 133.5 18.15 M133.65 18.5 L133.6 18.6 133.6 18.65 133.55 18.65 133.55 18.55 133.55 18.5 133.6 18.55 133.6 18.5 133.65 18.45 133.65 18.5 M136.15 16.45 L136.15 16.4 136.2 16.4 136.15 16.3 136.05 16.1 Q136.0 16.15 136.05 16.25 L136.1 16.35 Q136.1 16.45 136.15 16.45 M136.55 16.4 L136.5 16.45 136.5 16.75 Q136.5 16.75 136.5 16.85 L136.55 17.1 136.6 17.25 136.65 17.3 136.65 16.95 136.7 16.85 136.65 16.6 136.6 16.5 136.55 16.4 M136.65 15.6 L136.6 15.45 136.6 15.5 136.55 15.7 136.55 15.8 Q136.6 15.85 136.65 15.85 L136.65 15.75 136.65 15.6 M136.85 15.3 L136.85 15.45 136.8 15.6 136.8 15.85 136.85 16.05 136.8 16.0 136.8 16.1 136.8 16.25 136.9 16.35 Q136.9 16.3 136.95 16.25 L136.95 16.2 137.0 15.95 136.95 15.8 136.9 15.55 136.85 15.3 M135.45 18.35 L135.45 18.4 135.5 18.4 135.55 18.35 135.5 18.3 135.45 18.25 135.4 18.35 135.45 18.35 M135.35 17.2 L135.15 17.25 Q135.1 17.25 135.1 17.35 135.1 17.4 135.2 17.4 L135.3 17.45 135.35 17.55 135.45 17.7 135.65 17.85 135.7 17.9 135.95 18.05 136.0 18.0 135.9 17.95 135.9 17.9 135.75 17.75 135.6 17.55 135.6 17.5 135.65 17.45 135.65 17.3 135.55 17.15 135.5 17.15 135.35 17.2 M133.8 19.05 L133.7 18.85 133.65 18.75 133.7 18.75 133.9 19.0 Q134.0 19.15 134.0 19.3 L133.85 19.05 133.8 19.05 M136.0 17.65 L136.0 17.6 136.05 17.5 135.95 17.4 135.9 17.45 135.85 17.45 135.85 17.7 Q135.95 17.8 136.0 17.8 L136.05 17.8 136.05 17.75 136.0 17.65 M140.45 14.85 L140.45 14.8 140.5 14.8 140.5 14.9 140.45 14.9 140.45 14.85 M140.5 15.3 L140.5 15.25 140.55 15.3 140.5 15.35 140.5 15.4 140.45 15.4 Q140.4 15.35 140.45 15.35 L140.5 15.3 M140.4 16.7 Q140.35 16.7 140.4 16.75 L140.3 16.85 140.3 16.75 140.35 16.7 Q140.4 16.7 140.4 16.6 L140.45 16.6 140.4 16.7 M140.1 17.3 Q140.1 17.25 140.15 17.25 L140.2 17.3 140.25 17.25 140.25 17.3 140.2 17.45 140.1 17.5 140.1 17.55 140.0 17.55 139.95 17.55 Q140.0 17.5 140.05 17.45 L140.1 17.3 M139.35 17.15 L139.4 16.95 139.5 16.7 139.5 16.85 139.45 17.15 139.4 17.25 139.3 17.45 139.25 17.45 139.35 17.25 139.35 17.15 M139.45 19.0 L139.35 19.15 139.25 19.25 139.15 19.35 139.0 19.45 138.95 19.55 139.15 19.55 139.3 19.6 139.4 19.6 139.45 19.55 139.55 19.5 Q139.6 19.35 139.65 19.35 L139.75 19.3 139.8 19.25 139.9 19.05 139.95 18.95 140.0 18.8 140.05 18.7 140.05 18.55 140.1 18.5 140.15 18.3 140.2 18.05 140.1 18.1 140.05 18.2 140.05 18.35 140.0 18.55 139.95 18.7 139.85 18.75 139.75 18.8 139.65 18.9 139.55 19.0 139.45 19.0 M139.35 18.8 L139.35 18.75 139.3 18.7 139.25 18.6 Q139.2 18.6 139.15 18.8 139.2 18.85 139.2 18.85 L139.3 18.85 Q139.35 18.85 139.35 18.8 M138.95 19.75 L138.85 19.75 138.9 19.8 138.95 19.9 139.05 19.9 139.15 19.85 139.2 19.8 Q139.15 19.75 139.1 19.75 L138.95 19.75 M139.4 19.75 L139.3 19.95 139.25 20.05 139.15 20.1 138.95 20.2 138.8 20.35 Q138.75 20.35 138.65 20.55 L138.65 20.65 138.75 20.6 Q138.8 20.55 138.95 20.55 L139.1 20.5 Q139.2 20.4 139.35 20.35 L139.35 20.3 139.4 20.25 Q139.45 20.15 139.5 20.15 L139.7 20.05 139.85 19.95 139.9 19.9 139.95 19.8 139.95 19.7 139.85 19.7 139.8 19.65 139.8 19.6 139.7 19.6 139.65 19.65 139.55 19.65 139.45 19.7 139.4 19.75 M140.95 18.25 L140.95 18.4 140.9 18.4 Q140.85 18.4 140.85 18.3 L140.85 18.25 140.9 18.2 140.95 18.25 M140.8 18.85 Q140.8 18.8 140.85 18.7 L140.85 18.8 140.8 18.85 M140.05 20.4 Q140.05 20.25 140.15 20.2 L140.3 20.2 140.3 20.45 140.2 20.6 Q140.15 20.65 140.1 20.75 L140.1 20.8 140.05 20.9 140.0 20.85 140.0 20.7 140.0 20.5 140.05 20.4 M140.5 20.35 L140.6 20.2 140.65 20.1 140.7 20.1 140.7 20.2 140.6 20.45 140.55 20.45 140.5 20.35 M141.8 21.6 Q141.85 21.65 141.85 21.7 141.9 22.1 141.1 22.75 141.0 22.8 140.9 22.9 L140.25 23.4 140.25 23.35 140.5 23.15 140.85 22.75 140.95 22.6 141.2 22.4 Q141.55 21.95 141.5 21.75 141.5 21.65 141.5 21.65 L141.65 21.55 141.8 21.6 M140.55 20.75 L140.6 20.8 140.6 20.85 140.55 20.9 140.5 20.95 140.4 21.1 140.4 21.05 140.35 21.05 140.45 20.9 140.5 20.8 140.55 20.75 M139.6 21.0 Q139.6 21.0 139.55 20.95 L139.4 21.05 139.35 21.05 139.25 21.05 139.1 21.1 138.95 21.25 138.9 21.2 138.8 21.15 Q138.75 21.15 138.65 21.3 L138.65 21.35 138.7 21.45 138.65 21.7 Q138.55 21.95 138.55 22.0 L138.6 22.05 138.6 22.1 138.7 22.0 138.8 21.85 138.9 21.7 139.05 21.6 139.15 21.45 Q139.25 21.35 139.3 21.3 L139.35 21.3 Q139.35 21.25 139.45 21.2 139.6 21.1 139.6 21.0 M139.65 23.05 L139.6 23.0 139.55 23.0 139.8 22.55 139.9 22.4 140.1 22.3 140.05 22.45 140.0 22.6 139.75 22.85 139.65 23.05 M139.35 22.2 L139.55 21.9 139.7 21.85 Q139.65 22.1 139.45 22.3 L139.2 22.45 139.35 22.2 M139.4 23.3 L139.5 23.25 139.6 23.2 139.7 23.25 139.7 23.25 139.5 23.35 139.5 23.4 139.25 23.55 139.2 23.55 Q139.25 23.45 139.4 23.35 L139.4 23.3 M138.45 23.6 L138.45 23.65 138.3 23.75 138.25 23.8 138.05 23.9 138.0 23.9 Q138.0 23.8 138.05 23.75 L138.1 23.65 138.2 23.55 138.45 23.55 138.45 23.6 M138.5 24.1 L138.6 24.0 138.65 23.95 138.7 23.9 Q138.75 23.8 138.85 23.8 L139.05 23.8 Q139.0 23.8 138.9 23.9 L138.8 24.0 138.7 24.1 138.45 24.3 138.25 24.4 138.15 24.4 138.15 24.45 138.1 24.4 138.05 24.35 Q138.15 24.25 138.3 24.2 L138.5 24.1 M139.4 23.85 L139.35 23.9 139.3 23.95 139.3 23.9 139.35 23.9 139.35 23.85 139.4 23.85 M136.2 21.55 L136.25 21.55 136.3 21.45 135.8 21.1 135.7 21.0 135.6 20.95 135.45 21.0 Q135.4 21.0 135.4 21.05 L135.4 21.2 135.5 21.4 135.7 21.45 135.8 21.45 135.9 21.45 136.2 21.55 M135.7 20.85 L135.75 20.8 135.5 20.55 135.45 20.5 135.4 20.5 135.35 20.4 135.25 20.25 Q135.25 20.25 135.1 20.2 L135.1 20.15 135.0 20.1 134.85 19.95 134.8 20.05 134.8 20.1 134.75 20.2 134.8 20.25 134.85 20.35 134.85 20.5 135.4 20.8 135.55 20.85 135.6 20.85 135.7 20.85 M133.8 20.95 L134.05 21.0 Q134.25 21.1 134.4 21.45 L134.3 21.5 134.15 21.55 133.95 21.55 133.9 21.5 Q133.65 21.4 133.65 21.15 133.6 20.95 133.8 20.95 M133.85 20.3 Q133.95 20.3 134.1 20.4 L134.35 20.5 134.1 20.55 134.05 20.55 Q133.85 20.55 133.85 20.3 M134.15 22.0 L134.2 22.1 134.2 22.15 134.15 22.15 134.15 22.2 134.05 22.1 134.05 22.05 134.1 22.05 134.15 22.0 M134.7 23.15 L134.8 23.15 134.85 23.3 134.75 23.3 134.7 23.2 134.7 23.15 M135.75 24.0 L135.75 24.05 Q135.85 24.15 136.1 24.25 L136.25 24.3 136.3 24.3 136.1 24.25 Q136.0 24.2 135.7 24.15 L135.35 23.95 135.3 23.9 135.1 23.7 134.95 23.5 134.95 23.45 135.0 23.4 Q135.0 23.35 135.0 23.35 L135.15 23.45 135.15 23.5 135.2 23.6 135.2 23.65 135.25 23.7 135.3 23.8 135.35 23.9 135.75 24.0 M135.45 24.45 Q135.55 24.4 135.65 24.35 L135.95 24.4 Q135.85 24.4 135.75 24.5 135.65 24.55 135.6 24.6 L135.55 24.6 135.45 24.45 M134.35 22.55 Q134.25 22.5 134.25 22.4 L134.25 22.35 134.4 22.5 134.5 22.65 134.55 22.85 134.45 22.8 134.45 22.75 134.35 22.65 134.35 22.55 M133.2 20.15 L133.15 20.0 Q133.15 19.95 133.25 19.9 L133.25 20.2 133.3 20.25 133.25 20.4 Q133.2 20.35 133.2 20.15 M133.15 21.85 Q133.05 21.85 132.85 21.95 L132.8 21.95 Q132.7 21.95 132.6 21.8 L132.85 21.75 133.15 21.85" fill="#722c28" fill-rule="evenodd" stroke="none"/>
    <path d="M137.95 16.35 L138.0 16.7 138.1 16.85 Q138.0 17.0 138.05 17.15 138.05 17.35 138.1 17.35 L138.3 17.25 138.3 17.4 138.35 17.55 138.3 17.6 138.3 17.7 138.15 17.5 138.1 17.45 138.05 17.3 138.0 17.2 Q137.9 17.15 137.9 17.0 L137.9 16.6 137.95 16.4 137.95 16.35 M135.45 22.95 L135.25 22.85 135.2 22.85 135.15 22.75 135.1 22.65 135.05 22.6 135.05 22.55 134.95 22.4 134.85 22.3 135.0 22.15 135.1 22.05 135.1 22.0 135.2 21.95 135.3 21.85 135.45 21.65 135.7 21.75 135.75 21.7 135.8 21.7 135.85 21.7 135.95 21.7 136.1 21.8 136.15 21.85 Q136.15 21.9 136.2 21.85 L136.3 21.85 136.35 21.85 136.5 21.9 136.5 21.85 Q136.5 21.8 136.4 21.7 L136.3 21.45 136.2 21.3 136.05 21.05 135.95 21.0 135.9 20.95 135.9 20.85 135.85 20.75 135.75 20.5 135.65 20.4 135.5 20.4 135.4 20.35 135.35 20.25 135.3 20.15 135.25 20.1 135.2 20.1 Q135.15 20.1 135.1 20.05 L135.05 20.0 135.0 19.85 134.95 19.85 134.9 19.8 134.85 19.65 134.85 19.55 134.9 19.45 135.0 19.4 135.05 19.4 135.1 19.4 135.15 19.35 135.1 19.25 135.1 19.0 135.1 18.9 135.05 18.9 135.05 18.7 135.1 18.65 135.15 18.65 135.2 18.65 135.25 18.6 135.25 18.5 135.35 18.55 135.4 18.55 135.5 18.5 135.55 18.45 Q135.55 18.45 135.65 18.55 L135.7 18.6 135.75 18.55 135.8 18.5 135.8 18.45 135.75 18.4 135.65 18.4 135.6 18.3 135.6 18.2 135.55 18.2 135.5 18.1 Q135.5 18.05 135.4 18.05 L135.35 17.8 135.55 17.95 Q135.6 18.0 135.65 18.0 L135.7 18.05 135.75 18.1 135.8 18.2 135.85 18.2 135.9 18.25 136.0 18.3 136.05 18.35 136.1 18.35 136.15 18.35 136.15 18.25 136.1 18.2 136.1 18.15 136.15 18.1 136.2 18.0 136.15 17.9 136.15 17.65 136.2 17.5 136.35 17.55 136.2 17.3 136.15 17.2 136.15 16.95 136.15 16.85 136.1 16.6 136.25 16.85 136.4 17.15 136.6 17.35 136.65 17.4 136.7 17.4 136.7 17.35 136.75 17.35 136.8 17.4 136.85 17.3 136.85 17.2 136.8 16.9 136.75 16.7 136.7 16.5 136.7 16.35 136.95 16.55 Q137.0 16.5 137.05 16.55 L137.15 16.65 137.35 16.75 137.45 16.9 137.55 16.95 137.6 16.95 137.6 16.9 137.65 16.75 Q137.65 16.7 137.7 16.65 L137.7 16.6 137.8 16.7 137.75 16.85 137.75 16.95 137.85 17.05 137.85 17.2 137.9 17.3 137.9 17.45 137.95 17.55 137.9 17.7 138.0 17.6 138.05 17.7 138.1 17.8 138.1 17.85 138.15 17.95 138.25 18.1 Q138.2 18.2 138.25 18.25 138.25 18.3 138.3 18.3 138.4 18.3 138.4 18.35 L138.45 18.45 138.55 18.4 138.65 18.5 138.65 18.6 Q138.65 18.55 138.7 18.6 L138.75 18.65 Q138.7 18.7 138.7 18.8 L138.65 18.85 138.65 18.9 138.7 18.95 138.75 19.0 138.8 18.9 138.85 18.9 138.9 18.9 138.95 18.9 138.95 19.05 138.85 19.2 138.8 19.3 138.7 19.4 138.65 19.5 138.65 19.6 138.55 19.6 138.45 19.65 Q138.35 19.85 138.3 20.0 L138.4 19.95 138.45 19.95 138.45 20.1 138.55 20.0 138.6 20.05 138.4 20.3 138.35 20.4 138.3 20.5 138.15 20.75 Q138.1 20.9 138.1 20.95 L138.15 21.1 138.2 21.05 Q138.25 21.0 138.3 21.0 L138.25 21.15 138.3 21.25 138.35 21.35 138.3 21.5 138.25 21.6 138.35 21.65 138.4 21.7 138.45 21.7 138.5 21.65 138.55 21.65 138.6 21.7 138.6 21.75 Q138.6 21.85 138.55 21.85 L138.45 21.95 138.45 22.05 138.4 22.1 138.3 22.1 138.25 22.1 Q138.2 22.15 138.2 22.2 L138.25 22.2 138.25 22.3 138.2 22.35 138.1 22.4 Q138.05 22.45 138.1 22.5 L138.05 22.65 137.9 22.7 Q137.8 22.75 137.8 22.9 L137.7 22.75 137.65 22.65 137.55 22.7 137.5 22.75 137.45 22.7 137.4 22.65 Q137.35 22.65 137.35 22.8 L137.3 22.95 137.3 23.05 Q137.25 23.2 137.2 23.2 137.1 23.2 137.0 23.05 136.95 23.0 136.9 22.9 L136.75 22.75 136.1 22.65 135.8 22.55 135.75 22.5 135.7 22.45 Q135.7 22.4 135.75 22.35 L135.65 22.2 135.45 22.15 135.4 22.15 135.35 22.15 135.3 22.15 135.25 22.15 135.2 22.2 135.2 22.35 135.25 22.4 135.3 22.55 135.3 22.6 135.4 22.65 135.55 22.65 135.5 22.75 135.55 22.8 135.6 22.9 135.6 22.95 135.5 22.95 135.45 22.95 M136.85 15.3 L136.9 15.55 136.95 15.8 137.0 15.95 136.95 16.2 136.95 16.25 Q136.9 16.3 136.9 16.35 L136.8 16.25 136.8 16.1 136.8 16.0 136.85 16.05 136.8 15.85 136.8 15.6 136.85 15.45 136.85 15.3 M136.65 15.6 L136.65 15.75 136.65 15.85 Q136.6 15.85 136.55 15.8 L136.55 15.7 136.6 15.5 136.6 15.45 136.65 15.6 M136.55 16.4 L136.6 16.5 136.65 16.6 136.7 16.85 136.65 16.95 136.65 17.3 136.6 17.25 136.55 17.1 136.5 16.85 Q136.5 16.75 136.5 16.75 L136.5 16.45 136.55 16.4 M136.15 16.45 Q136.1 16.45 136.1 16.35 L136.05 16.25 Q136.0 16.15 136.05 16.1 L136.15 16.3 136.2 16.4 136.15 16.4 136.15 16.45 M137.3 17.15 L137.2 17.1 Q137.15 17.1 137.1 17.25 137.0 17.4 137.05 17.5 137.05 17.6 137.0 17.7 L136.9 17.8 136.7 17.7 136.75 17.9 136.7 17.85 136.65 17.85 136.55 17.9 136.55 18.0 136.55 18.15 136.6 18.2 136.65 18.3 136.65 18.5 136.7 18.65 136.7 18.7 136.5 18.6 136.4 18.65 Q136.35 18.65 136.25 18.6 L136.05 18.45 135.95 18.4 135.9 18.4 135.85 18.4 135.85 18.45 135.9 18.5 135.95 18.55 135.95 18.65 135.9 18.7 135.85 18.85 135.75 19.0 Q135.7 19.1 135.7 19.15 L135.7 19.2 135.75 19.3 135.75 19.4 135.7 19.4 135.6 19.4 135.6 19.55 135.65 19.7 135.8 19.8 135.85 19.95 135.9 20.05 136.05 20.15 136.2 20.15 Q136.25 20.2 136.3 20.3 L136.4 20.45 136.15 20.5 136.0 20.5 Q135.95 20.5 135.95 20.6 L136.1 20.7 Q136.2 20.85 136.3 21.1 L136.4 21.4 136.55 21.6 136.5 21.65 136.45 21.7 136.55 21.8 136.6 21.9 136.6 21.95 136.35 21.9 136.25 21.95 136.1 22.05 135.7 21.95 135.6 22.0 135.55 22.05 135.7 22.05 Q135.85 22.05 135.9 22.15 L135.85 22.2 136.05 22.35 136.1 22.35 136.2 22.4 136.25 22.45 136.25 22.5 136.35 22.6 136.45 22.6 136.6 22.65 136.7 22.6 Q136.75 22.6 136.85 22.7 L137.0 22.8 137.2 22.85 137.2 22.8 137.25 22.7 137.3 22.65 137.35 22.55 137.45 22.45 137.6 22.4 Q137.65 22.4 137.75 22.45 L137.85 22.5 137.9 22.5 137.9 22.35 137.85 22.3 137.85 22.1 137.95 22.05 138.1 22.05 Q138.15 22.05 138.15 22.0 L138.2 21.9 138.2 21.85 Q138.1 21.9 138.0 21.85 L137.95 21.75 138.0 21.5 138.0 21.45 137.9 21.4 Q137.85 21.4 137.85 21.3 L137.75 21.2 Q137.65 21.1 137.65 21.05 L137.65 20.95 137.7 20.9 137.65 20.85 137.7 20.75 137.8 20.7 137.85 20.6 Q137.8 20.6 137.75 20.55 L137.9 20.2 138.0 20.0 138.1 19.95 138.2 19.9 Q138.25 19.7 138.4 19.6 L138.45 19.5 Q138.55 19.4 138.6 19.3 L138.5 19.3 138.45 19.35 138.4 19.35 Q138.35 19.4 138.3 19.3 L138.35 19.2 138.4 19.05 138.35 18.9 138.35 18.85 Q138.3 18.75 138.3 18.7 L138.3 18.55 138.2 18.45 138.1 18.3 138.05 18.2 138.0 18.15 137.95 18.15 137.9 18.2 Q137.85 18.2 137.85 18.2 L137.8 18.05 137.75 17.9 137.65 17.7 137.55 17.5 137.4 17.35 137.3 17.15 M135.35 17.2 L135.5 17.15 135.55 17.15 135.65 17.3 135.65 17.45 135.6 17.5 135.6 17.55 135.75 17.75 135.9 17.9 135.9 17.95 136.0 18.0 135.95 18.05 135.7 17.9 135.65 17.85 135.45 17.7 135.35 17.55 135.3 17.45 135.2 17.4 Q135.1 17.4 135.1 17.35 135.1 17.25 135.15 17.25 L135.35 17.2 M135.45 18.35 L135.4 18.35 135.45 18.25 135.5 18.3 135.55 18.35 135.5 18.4 135.45 18.4 135.45 18.35 M136.0 17.65 L136.05 17.75 136.05 17.8 136.0 17.8 Q135.95 17.8 135.85 17.7 L135.85 17.45 135.9 17.45 135.95 17.4 136.05 17.5 136.0 17.6 136.0 17.65 M139.35 18.8 Q139.35 18.85 139.3 18.85 L139.2 18.85 Q139.2 18.85 139.15 18.8 139.2 18.6 139.25 18.6 L139.3 18.7 139.35 18.75 139.35 18.8 M139.45 19.0 L139.55 19.0 139.65 18.9 139.75 18.8 139.85 18.75 139.95 18.7 140.0 18.55 140.05 18.35 140.05 18.2 140.1 18.1 140.2 18.05 140.15 18.3 140.1 18.5 140.05 18.55 140.05 18.7 140.0 18.8 139.95 18.95 139.9 19.05 139.8 19.25 139.75 19.3 139.65 19.35 Q139.6 19.35 139.55 19.5 L139.45 19.55 139.4 19.6 139.3 19.6 139.15 19.55 138.95 19.55 139.0 19.45 139.15 19.35 139.25 19.25 139.35 19.15 139.45 19.0 M139.15 19.45 L139.2 19.5 139.4 19.45 139.7 19.2 139.8 19.05 139.75 19.05 139.6 19.15 139.45 19.25 139.35 19.3 Q139.3 19.3 139.25 19.35 L139.15 19.45 M138.95 19.75 L139.1 19.75 Q139.15 19.75 139.2 19.8 L139.15 19.85 139.05 19.9 138.95 19.9 138.9 19.8 138.85 19.75 138.95 19.75 M139.4 19.75 L139.45 19.7 139.55 19.65 139.65 19.65 139.7 19.6 139.8 19.6 139.8 19.65 139.85 19.7 139.95 19.7 139.95 19.8 139.9 19.9 139.85 19.95 139.7 20.05 139.5 20.15 Q139.45 20.15 139.4 20.25 L139.35 20.3 139.35 20.35 Q139.2 20.4 139.1 20.5 L138.95 20.55 Q138.8 20.55 138.75 20.6 L138.65 20.65 138.65 20.55 Q138.75 20.35 138.8 20.35 L138.95 20.2 139.15 20.1 139.25 20.05 139.3 19.95 139.4 19.75 M139.6 21.0 Q139.6 21.1 139.45 21.2 139.35 21.25 139.35 21.3 L139.3 21.3 Q139.25 21.35 139.15 21.45 L139.05 21.6 138.9 21.7 138.8 21.85 138.7 22.0 138.6 22.1 138.6 22.05 138.55 22.0 Q138.55 21.95 138.65 21.7 L138.7 21.45 138.65 21.35 138.65 21.3 Q138.75 21.15 138.8 21.15 L138.9 21.2 138.95 21.25 139.1 21.1 139.25 21.05 139.35 21.05 139.4 21.05 139.55 20.95 Q139.6 21.0 139.6 21.0 M135.7 20.85 L135.6 20.85 135.55 20.85 135.4 20.8 134.85 20.5 134.85 20.35 134.8 20.25 134.75 20.2 134.8 20.1 134.8 20.05 134.85 19.95 135.0 20.1 135.1 20.15 135.1 20.2 Q135.25 20.25 135.25 20.25 L135.35 20.4 135.4 20.5 135.45 20.5 135.5 20.55 135.75 20.8 135.7 20.85 M136.2 21.55 L135.9 21.45 135.8 21.45 135.7 21.45 135.5 21.4 135.4 21.2 135.4 21.05 Q135.4 21.0 135.45 21.0 L135.6 20.95 135.7 21.0 135.8 21.1 136.3 21.45 136.25 21.55 136.2 21.55 M135.15 23.45 L135.4 23.7 135.45 23.75 135.75 24.0 135.35 23.9 135.3 23.8 135.25 23.7 135.2 23.65 135.2 23.6 135.15 23.5 135.15 23.45" fill="#b97814" fill-rule="evenodd" stroke="none"/>
    <path d="M138.1 16.85 Q138.1 16.95 138.15 16.95 L138.2 17.1 138.25 17.25 138.3 17.25 138.1 17.35 Q138.05 17.35 138.05 17.15 138.0 17.0 138.1 16.85 M137.3 17.15 L137.4 17.35 137.55 17.5 137.65 17.7 137.75 17.9 137.8 18.05 137.85 18.2 Q137.85 18.2 137.9 18.2 L137.95 18.15 138.0 18.15 138.05 18.2 138.1 18.3 138.2 18.45 138.3 18.55 138.3 18.7 Q138.3 18.75 138.35 18.85 L138.35 18.9 138.4 19.05 138.35 19.2 138.3 19.3 Q138.35 19.4 138.4 19.35 L138.45 19.35 138.5 19.3 138.6 19.3 Q138.55 19.4 138.45 19.5 L138.4 19.6 Q138.25 19.7 138.2 19.9 L138.1 19.95 138.0 20.0 137.9 20.2 137.75 20.55 Q137.8 20.6 137.85 20.6 L137.8 20.7 137.7 20.75 137.65 20.85 137.7 20.9 137.65 20.95 137.65 21.05 Q137.65 21.1 137.75 21.2 L137.85 21.3 Q137.85 21.4 137.9 21.4 L138.0 21.45 138.0 21.5 137.95 21.75 138.0 21.85 Q138.1 21.9 138.2 21.85 L138.2 21.9 138.15 22.0 Q138.15 22.05 138.1 22.05 L137.95 22.05 137.85 22.1 137.85 22.3 137.9 22.35 137.9 22.5 137.85 22.5 137.75 22.45 Q137.65 22.4 137.6 22.4 L137.45 22.45 137.35 22.55 137.3 22.65 137.25 22.7 137.2 22.8 137.2 22.85 137.0 22.8 136.85 22.7 Q136.75 22.6 136.7 22.6 L136.6 22.65 136.45 22.6 136.35 22.6 136.25 22.5 136.25 22.45 136.2 22.4 136.1 22.35 136.05 22.35 135.85 22.2 135.9 22.15 Q135.85 22.05 135.7 22.05 L135.55 22.05 135.6 22.0 135.7 21.95 136.1 22.05 136.25 21.95 136.35 21.9 136.6 21.95 136.6 21.9 136.55 21.8 136.45 21.7 136.5 21.65 136.55 21.6 136.4 21.4 136.3 21.1 Q136.2 20.85 136.1 20.7 L135.95 20.6 Q135.95 20.5 136.0 20.5 L136.15 20.5 136.4 20.45 136.3 20.3 Q136.25 20.2 136.2 20.15 L136.05 20.15 135.9 20.05 135.85 19.95 135.8 19.8 135.65 19.7 135.6 19.55 135.6 19.4 135.7 19.4 135.75 19.4 135.75 19.3 135.7 19.2 135.7 19.15 Q135.7 19.1 135.75 19.0 L135.85 18.85 135.9 18.7 135.95 18.65 135.95 18.55 135.9 18.5 135.85 18.45 135.85 18.4 135.9 18.4 135.95 18.4 136.05 18.45 136.25 18.6 Q136.35 18.65 136.4 18.65 L136.5 18.6 136.7 18.7 136.7 18.65 136.65 18.5 136.65 18.3 136.6 18.2 136.55 18.15 136.55 18.0 136.55 17.9 136.65 17.85 136.7 17.85 136.75 17.9 136.7 17.7 136.9 17.8 137.0 17.7 Q137.05 17.6 137.05 17.5 137.0 17.4 137.1 17.25 137.15 17.1 137.2 17.1 L137.3 17.15 M139.15 19.45 L139.25 19.35 Q139.3 19.3 139.35 19.3 L139.45 19.25 139.6 19.15 139.75 19.05 139.8 19.05 139.7 19.2 139.4 19.45 139.2 19.5 139.15 19.45" fill="#ffe693" fill-rule="evenodd" stroke="none"/>
  </g>
</svg>
