<?xml version="1.0" encoding="UTF-8" standalone="no"?>
<svg xmlns:xlink="http://www.w3.org/1999/xlink" height="10.1px" width="9.25px" xmlns="http://www.w3.org/2000/svg">
  <g transform="matrix(1.0, 0.0, 0.0, 1.0, -117.15, -16.65)">
    <path d="M117.45 18.8 L117.45 18.65 117.5 18.65 117.5 18.8 117.5 19.0 117.45 19.0 117.45 18.8 M119.75 25.0 L119.65 25.0 Q119.6 25.0 119.6 24.95 L119.65 24.75 119.6 24.75 119.5 24.75 Q119.45 24.7 119.45 24.6 L119.35 24.5 119.3 24.45 119.55 24.15 119.5 24.05 119.55 24.0 119.55 23.95 119.4 23.8 119.35 23.75 119.3 23.65 119.4 23.65 119.6 23.6 119.65 23.6 119.7 23.55 119.75 23.5 119.75 23.45 119.7 23.35 119.65 23.25 119.65 23.15 119.55 23.0 119.4 22.85 119.35 22.65 119.3 22.5 119.2 22.4 119.2 22.2 119.15 22.1 119.1 22.0 119.1 21.95 119.0 21.8 119.0 21.55 119.05 21.55 119.1 21.6 119.15 21.6 119.25 21.5 Q119.25 21.45 119.35 21.45 L119.4 21.45 119.5 21.5 119.5 21.4 119.4 21.15 119.35 20.95 Q119.35 20.9 119.4 20.85 L119.5 20.75 119.45 20.7 119.45 20.6 119.4 20.5 119.6 20.5 Q119.7 20.45 119.65 20.35 L119.75 20.25 119.8 20.1 119.75 20.0 119.7 19.85 119.7 19.7 119.6 19.45 119.5 19.15 Q119.5 19.1 119.55 19.0 119.6 19.0 119.7 19.15 L119.75 19.3 119.9 19.25 119.8 19.0 119.75 18.75 119.75 18.65 119.8 18.6 120.0 18.9 Q120.05 18.95 120.1 18.95 L120.15 18.95 120.25 19.05 120.35 19.2 120.4 19.25 120.45 19.35 120.5 19.35 120.55 19.3 120.55 19.15 120.5 19.1 120.5 18.75 120.5 18.55 120.45 18.35 120.45 18.1 120.4 17.8 120.4 17.05 Q120.4 17.2 120.55 17.45 L120.7 17.9 120.9 18.7 120.95 18.85 120.95 18.3 120.95 17.85 120.9 17.0 120.95 17.0 121.0 17.2 121.0 17.15 121.05 17.15 121.05 17.2 121.15 17.25 Q121.2 17.2 121.2 16.95 L121.25 16.65 121.45 17.35 121.45 17.55 121.5 17.65 121.55 17.7 121.6 17.65 121.6 17.7 121.65 17.75 121.75 17.65 121.85 17.85 121.85 18.05 121.95 18.05 121.95 18.15 122.0 18.3 122.05 18.1 122.15 17.9 122.2 17.95 122.25 17.9 122.3 17.85 122.4 17.85 122.4 18.05 122.4 18.15 122.45 18.45 122.5 18.5 122.5 18.6 122.45 18.8 122.45 19.2 Q122.45 19.3 122.55 19.4 L122.6 19.5 122.7 19.65 122.75 19.7 122.85 19.85 122.9 19.75 122.9 19.7 122.9 19.75 122.95 20.1 Q122.95 20.2 123.05 20.15 L123.15 20.2 123.2 20.3 123.25 20.3 Q123.3 20.25 123.35 20.3 L123.45 20.55 123.5 20.6 123.5 20.7 Q123.5 20.8 123.55 20.8 123.55 20.85 123.6 20.85 L123.75 20.7 123.8 20.55 123.9 20.6 123.95 20.75 Q124.0 20.8 124.0 20.8 L124.05 20.85 124.05 20.9 124.15 20.85 124.2 20.75 124.25 20.65 124.35 20.7 124.45 20.55 124.55 20.35 124.7 20.2 124.75 20.15 124.8 20.1 125.0 19.9 125.15 19.85 125.05 19.95 125.1 19.95 Q125.1 20.05 125.0 20.05 124.9 20.25 124.9 20.4 L124.8 20.8 124.75 20.85 124.7 20.95 124.7 21.1 124.75 21.1 124.65 21.25 124.6 21.45 124.55 21.5 124.55 21.55 124.45 21.65 124.5 21.7 124.55 21.75 124.65 21.65 124.45 22.05 124.15 22.55 124.0 22.85 124.0 22.9 124.05 22.95 124.15 22.85 124.25 22.8 124.3 22.85 Q124.35 22.9 124.4 22.85 L124.05 23.55 123.9 23.8 123.75 24.05 123.6 24.2 123.4 24.35 123.2 24.55 123.1 24.75 123.0 24.8 122.95 24.9 122.75 25.1 122.65 25.3 122.55 25.4 122.5 25.5 122.3 25.65 122.2 25.8 122.1 26.0 121.85 25.9 Q121.8 25.85 121.65 25.85 L121.1 25.6 120.5 25.35 120.15 25.25 120.05 25.15 120.15 25.15 120.2 25.05 120.1 24.95 120.1 24.85 119.95 24.8 119.9 24.8 119.85 24.75 119.85 24.6 119.8 24.5 119.75 24.45 119.8 24.4 119.85 24.3 119.9 24.3 120.0 24.3 120.05 24.3 120.2 24.4 Q120.3 24.45 120.35 24.5 120.25 24.6 120.3 24.65 L120.3 24.7 120.35 24.75 120.65 24.85 121.3 24.95 121.5 25.1 Q121.5 25.2 121.6 25.25 121.7 25.4 121.75 25.4 121.85 25.4 121.85 25.25 L121.85 25.15 121.9 25.0 Q121.9 24.85 121.95 24.85 L122.0 24.9 122.05 24.95 122.1 24.85 122.2 24.8 122.25 24.95 122.35 25.1 Q122.35 24.95 122.45 24.9 L122.65 24.8 122.65 24.7 Q122.65 24.6 122.65 24.55 L122.75 24.5 122.8 24.45 122.8 24.35 Q122.75 24.3 122.8 24.25 L122.9 24.25 123.0 24.25 123.0 24.15 123.1 24.05 Q123.15 24.05 123.15 23.95 L123.15 23.9 123.1 23.85 Q123.05 23.85 123.0 23.85 L122.95 23.9 122.9 23.85 122.85 23.8 122.9 23.65 122.9 23.45 122.85 23.35 122.85 23.15 Q122.85 23.15 122.75 23.2 L122.7 23.25 122.7 23.1 Q122.65 23.05 122.75 22.9 L122.85 22.7 122.9 22.55 122.95 22.45 123.15 22.2 123.0 22.25 123.0 22.1 122.95 22.15 122.9 22.15 122.85 22.2 Q122.9 22.0 123.05 21.85 L123.1 21.8 123.15 21.8 123.2 21.75 123.2 21.7 123.25 21.6 123.35 21.5 123.4 21.35 123.5 21.25 123.5 21.15 123.5 21.05 123.45 21.1 123.4 21.05 123.35 21.05 123.35 21.1 123.3 21.2 123.25 21.15 123.2 21.1 123.25 21.0 123.25 20.95 Q123.25 20.85 123.3 20.85 L123.3 20.75 Q123.25 20.75 123.2 20.75 L123.2 20.65 123.1 20.6 123.0 20.65 123.0 20.55 Q122.95 20.45 122.9 20.5 122.8 20.45 122.8 20.4 L122.8 20.3 122.75 20.15 122.65 20.0 122.65 19.9 122.55 19.8 122.5 19.9 122.5 19.85 122.5 19.65 122.45 19.5 122.45 19.4 122.4 19.2 122.3 19.15 122.3 19.05 122.35 18.9 122.25 18.8 Q122.2 18.9 122.2 18.95 L122.15 19.1 122.1 19.1 122.0 19.1 121.9 18.95 121.8 18.85 121.7 18.85 121.6 18.75 Q121.6 18.7 121.55 18.7 L121.3 18.5 121.3 18.9 121.35 19.1 121.4 19.35 121.4 19.5 121.35 19.55 121.3 19.55 121.25 19.6 121.2 19.6 121.15 19.55 120.95 19.3 120.8 19.0 120.65 18.8 120.7 19.05 120.7 19.15 120.7 19.4 120.75 19.5 120.9 19.75 120.75 19.65 120.7 19.85 120.7 20.1 120.75 20.2 120.7 20.25 120.65 20.3 120.65 20.35 120.7 20.45 120.7 20.5 120.65 20.55 120.6 20.55 120.55 20.45 120.45 20.45 120.4 20.4 120.35 20.35 120.35 20.3 120.3 20.25 120.2 20.2 Q120.15 20.2 120.15 20.15 L119.9 20.0 120.0 20.2 120.05 20.25 120.15 20.4 120.15 20.5 120.2 20.6 120.3 20.6 120.35 20.65 120.35 20.7 120.3 20.8 120.2 20.75 Q120.15 20.65 120.1 20.65 L120.05 20.7 120.0 20.75 119.9 20.7 119.85 20.7 119.8 20.8 119.75 20.85 119.7 20.85 119.65 20.8 119.6 20.85 119.6 21.0 119.65 21.1 119.65 21.2 119.7 21.35 119.7 21.5 119.65 21.55 119.65 21.6 119.55 21.6 Q119.5 21.6 119.45 21.65 L119.4 21.7 119.45 21.85 119.45 22.0 119.5 22.05 119.6 22.05 119.65 22.2 119.7 22.25 119.75 22.25 119.8 22.3 119.85 22.35 119.9 22.4 119.95 22.55 120.1 22.55 120.35 22.7 120.4 22.9 120.45 23.0 120.45 23.1 120.5 23.2 120.6 23.25 120.75 23.45 120.85 23.65 120.95 23.9 Q121.05 24.0 121.05 24.05 L120.95 24.05 120.85 24.0 120.75 24.05 Q120.7 24.1 120.7 24.05 L120.65 24.0 120.4 23.85 120.35 23.9 120.25 23.95 120.0 23.85 119.85 24.0 Q119.85 24.1 119.8 24.1 L119.7 24.15 119.65 24.25 119.55 24.35 119.45 24.45 119.55 24.55 119.6 24.7 119.65 24.75 119.65 24.85 119.7 24.95 119.75 25.0 M121.2 18.75 L121.15 18.7 121.15 18.6 121.1 18.55 121.05 18.65 121.05 18.85 121.1 18.95 Q121.05 18.95 121.05 19.05 L121.1 19.3 121.15 19.45 Q121.15 19.5 121.25 19.5 L121.2 19.3 121.25 19.15 121.25 19.0 121.2 18.75 M120.45 19.65 L120.4 19.65 120.4 19.85 120.55 19.95 120.6 19.95 120.6 19.9 120.55 19.8 120.55 19.75 120.6 19.65 120.5 19.6 120.45 19.65 M119.9 19.4 L119.75 19.4 Q119.65 19.4 119.7 19.5 119.7 19.6 119.75 19.6 L119.85 19.65 119.9 19.75 120.0 19.85 120.25 20.05 Q120.5 20.25 120.5 20.2 L120.55 20.2 120.45 20.15 120.45 20.1 120.35 19.95 120.3 19.9 120.15 19.7 120.15 19.65 Q120.15 19.65 120.2 19.6 L120.2 19.5 120.1 19.35 120.05 19.3 120.05 19.35 119.9 19.4 M120.6 18.3 L120.6 18.25 Q120.55 18.35 120.6 18.4 L120.65 18.55 Q120.65 18.6 120.7 18.6 L120.75 18.55 120.7 18.5 120.6 18.3 M121.2 17.9 L121.2 17.65 121.15 17.7 121.15 17.95 Q121.15 18.05 121.2 18.05 L121.2 17.9 M121.4 17.45 L121.4 17.55 121.4 17.8 121.35 17.9 121.35 18.0 121.4 18.2 121.35 18.2 121.35 18.25 121.4 18.25 121.4 18.4 121.5 18.5 121.5 18.4 121.55 18.35 121.55 18.15 121.5 17.95 121.45 17.7 121.4 17.45 M125.0 16.95 L125.05 16.95 125.05 17.0 125.05 17.1 125.0 17.1 125.0 17.05 125.0 16.95 M125.0 17.55 Q124.95 17.55 125.0 17.5 L125.05 17.5 125.05 17.45 125.1 17.5 125.05 17.5 125.05 17.6 125.0 17.55 M124.1 19.0 L124.1 19.05 124.0 19.3 123.95 19.4 123.85 19.6 123.8 19.65 123.9 19.4 123.9 19.3 123.95 19.1 124.1 18.9 124.1 19.0 M125.0 18.8 L124.95 18.9 Q124.9 18.9 124.95 18.95 L124.85 19.0 124.85 18.9 124.9 18.85 124.9 18.85 124.95 18.8 125.0 18.8 M126.2 23.75 Q126.3 23.75 126.35 23.8 L126.4 23.9 Q126.45 24.25 125.65 24.95 L125.5 25.1 124.8 25.6 124.8 25.5 125.05 25.3 125.4 24.95 125.55 24.8 125.75 24.55 Q126.1 24.15 126.1 23.95 126.1 23.85 126.05 23.85 L126.2 23.75 M124.8 19.45 L124.75 19.6 124.7 19.65 124.65 19.7 124.6 19.75 124.55 19.75 124.6 19.65 124.65 19.65 124.65 19.5 Q124.65 19.4 124.7 19.4 L124.75 19.45 124.8 19.45 M124.8 20.25 L124.7 20.3 124.65 20.4 124.6 20.4 124.6 20.7 124.5 20.9 124.4 20.9 124.3 21.0 124.2 21.1 124.15 21.2 124.05 21.2 123.9 21.3 123.8 21.45 123.7 21.5 123.55 21.65 123.5 21.75 123.7 21.75 123.85 21.8 123.95 21.8 124.0 21.8 124.05 21.75 124.1 21.65 Q124.15 21.55 124.25 21.5 L124.3 21.45 124.35 21.4 124.45 21.25 124.5 21.25 124.55 21.15 124.55 21.0 124.6 20.85 124.65 20.75 124.65 20.7 124.7 20.45 124.75 20.45 124.8 20.25 M125.4 20.5 L125.4 20.45 125.45 20.4 125.5 20.45 125.5 20.5 125.55 20.5 125.5 20.6 Q125.45 20.6 125.4 20.5 M125.4 21.0 L125.35 21.05 125.4 20.9 125.4 21.0 M123.7 20.95 L123.7 21.0 123.75 21.0 123.85 21.05 Q123.9 21.05 123.95 21.0 L123.95 20.95 123.85 20.85 123.8 20.8 Q123.75 20.8 123.7 20.95 M123.95 21.95 L123.85 22.15 123.8 22.25 123.7 22.3 123.5 22.4 123.35 22.5 Q123.3 22.55 123.25 22.75 L123.2 22.85 123.3 22.8 Q123.35 22.75 123.5 22.75 L123.65 22.7 123.9 22.55 123.9 22.5 124.0 22.45 Q124.0 22.35 124.1 22.35 L124.25 22.2 124.4 22.15 124.45 22.05 124.5 22.0 124.5 21.9 124.4 21.9 124.35 21.85 124.35 21.75 124.3 21.75 124.2 21.8 124.1 21.85 124.05 21.9 123.95 21.95 M123.35 23.35 Q123.3 23.35 123.2 23.5 L123.25 23.65 123.2 23.9 Q123.1 24.15 123.15 24.2 L123.15 24.25 123.3 24.2 123.35 24.05 123.45 23.9 123.6 23.8 123.7 23.65 123.85 23.5 Q123.85 23.5 123.9 23.5 123.95 23.4 124.0 23.4 124.15 23.3 124.2 23.15 L124.15 23.15 124.0 23.2 123.95 23.2 123.9 23.2 123.8 23.25 123.65 23.3 123.5 23.45 123.45 23.4 123.35 23.35 M123.65 21.95 L123.5 21.9 123.4 21.95 123.45 22.0 123.5 22.05 123.6 22.1 123.7 22.05 123.75 21.95 123.65 21.95 M124.6 22.85 L124.6 22.75 124.6 22.55 Q124.65 22.45 124.7 22.4 L124.85 22.35 124.85 22.65 124.75 22.75 124.75 22.8 124.65 22.95 124.6 23.1 124.6 22.85 M125.15 22.6 L125.1 22.6 125.05 22.55 125.15 22.4 125.2 22.3 125.25 22.25 125.25 22.4 125.15 22.6 M124.9 23.25 L125.0 23.1 125.05 22.95 125.1 22.95 Q125.15 22.95 125.15 22.95 L125.15 23.0 125.1 23.1 125.05 23.1 124.95 23.25 124.9 23.25 M124.35 24.7 L124.5 24.6 124.65 24.45 124.6 24.65 124.55 24.75 124.35 25.05 124.2 25.25 124.15 25.2 124.1 25.2 124.35 24.7 M124.1 24.05 L124.3 24.05 Q124.25 24.25 124.05 24.45 L123.75 24.65 123.9 24.4 124.1 24.05 M123.75 25.75 Q123.8 25.65 123.95 25.5 L124.0 25.45 124.1 25.4 124.15 25.4 124.25 25.4 124.25 25.45 124.05 25.55 124.05 25.6 Q123.95 25.65 123.8 25.75 L123.75 25.75 M123.95 26.1 L123.85 26.15 123.85 26.1 123.9 26.05 Q123.95 26.0 123.95 26.0 L123.95 26.1 M123.05 26.3 L123.2 26.15 123.2 26.1 123.25 26.1 Q123.35 26.0 123.4 26.0 L123.6 25.95 123.45 26.1 123.35 26.2 123.25 26.25 123.0 26.5 122.8 26.6 122.75 26.6 122.7 26.6 122.65 26.6 122.65 26.55 Q122.7 26.45 122.85 26.4 L123.05 26.3 M123.0 25.75 L123.0 25.8 122.85 25.95 122.8 26.0 122.65 26.1 122.55 26.05 Q122.55 25.95 122.6 25.9 L122.7 25.8 122.75 25.75 123.0 25.7 123.0 25.75 M120.05 20.6 L120.1 20.55 120.1 20.5 120.0 20.45 119.95 20.5 120.0 20.55 120.05 20.6 M118.05 20.35 L118.1 20.35 Q118.05 20.55 118.0 20.55 L118.0 20.5 117.95 20.45 118.0 20.35 118.05 20.35 M118.2 20.65 L118.2 20.8 118.15 20.85 118.1 20.85 118.1 20.75 118.1 20.7 118.15 20.7 118.2 20.65 M118.25 21.0 L118.2 20.95 118.25 20.95 Q118.35 21.0 118.45 21.2 118.55 21.3 118.6 21.45 118.5 21.4 118.4 21.25 L118.4 21.2 118.25 21.0 M117.8 22.1 L117.8 22.4 117.85 22.45 117.8 22.6 Q117.75 22.55 117.75 22.35 L117.7 22.2 Q117.7 22.1 117.8 22.1 M119.4 22.15 L119.35 22.2 119.35 22.3 119.3 22.35 119.35 22.45 119.4 22.5 119.45 22.65 Q119.5 22.7 119.65 22.75 L120.1 23.05 120.2 23.05 120.25 23.0 120.3 22.95 120.1 22.75 120.0 22.7 119.95 22.65 119.9 22.55 119.85 22.45 119.7 22.35 119.65 22.4 119.65 22.35 119.6 22.25 119.4 22.15 M118.2 23.35 Q118.2 23.15 118.35 23.15 118.5 23.1 118.6 23.2 118.8 23.3 118.95 23.6 L118.85 23.7 118.7 23.75 118.5 23.7 118.45 23.7 Q118.2 23.6 118.2 23.35 M118.7 22.55 L118.9 22.7 118.65 22.75 Q118.4 22.75 118.4 22.45 L118.7 22.55 M118.75 24.3 L118.75 24.35 118.7 24.35 118.6 24.25 118.65 24.2 Q118.7 24.2 118.7 24.2 L118.75 24.3 M118.8 24.6 L118.8 24.55 118.85 24.55 118.95 24.65 119.05 24.85 Q119.1 24.9 119.1 25.05 L119.0 25.0 119.0 24.95 118.9 24.85 118.9 24.75 Q118.85 24.65 118.8 24.6 M120.0 23.25 L120.0 23.4 120.05 23.6 Q120.15 23.65 120.25 23.65 L120.35 23.6 120.45 23.65 120.75 23.75 120.8 23.75 120.85 23.65 120.35 23.3 120.25 23.2 120.15 23.15 120.0 23.15 Q120.0 23.2 120.0 23.25 M120.3 26.2 Q120.4 26.3 120.65 26.4 120.75 26.45 120.8 26.45 L120.85 26.5 120.65 26.45 Q120.55 26.4 120.25 26.35 L120.05 26.25 119.9 26.1 119.65 25.85 119.55 25.65 119.55 25.6 119.6 25.5 119.75 25.65 119.7 25.7 119.75 25.75 119.8 25.8 119.85 25.9 Q119.85 25.95 119.85 25.95 L119.95 26.05 120.05 26.15 120.3 26.2 M117.35 24.15 Q117.25 24.15 117.15 23.95 L117.4 23.95 117.7 24.05 117.4 24.15 117.35 24.15 M120.35 26.65 L120.15 26.75 120.1 26.75 120.0 26.65 Q120.1 26.55 120.2 26.55 L120.5 26.55 120.35 26.65 M119.25 25.35 L119.35 25.35 119.4 25.45 119.3 25.45 119.25 25.4 119.25 25.35" fill="#722c28" fill-rule="evenodd" stroke="none"/>
    <path d="M122.5 18.5 L122.6 18.85 122.65 19.05 Q122.55 19.2 122.6 19.35 122.65 19.55 122.7 19.55 L122.85 19.4 122.85 19.6 122.9 19.7 122.9 19.75 122.85 19.85 122.75 19.7 122.7 19.65 122.6 19.5 122.55 19.4 Q122.45 19.3 122.45 19.2 L122.45 18.8 122.5 18.6 122.5 18.5 M120.05 25.15 L120.0 25.15 119.75 25.0 119.7 24.95 119.65 24.85 119.65 24.75 119.6 24.7 119.55 24.55 119.45 24.45 119.55 24.35 119.65 24.25 119.7 24.15 119.8 24.1 Q119.85 24.1 119.85 24.0 L120.0 23.85 120.25 23.95 120.35 23.9 120.4 23.85 120.65 24.0 120.7 24.05 Q120.7 24.1 120.75 24.05 L120.85 24.0 120.95 24.05 121.05 24.05 Q121.05 24.0 120.95 23.9 L120.85 23.65 120.75 23.45 120.6 23.25 120.5 23.2 120.45 23.1 120.45 23.0 120.4 22.9 120.35 22.7 120.1 22.55 119.95 22.55 119.9 22.4 119.85 22.35 119.8 22.3 119.75 22.25 119.7 22.25 119.65 22.2 119.6 22.05 119.5 22.05 119.45 22.0 119.45 21.85 119.4 21.7 119.45 21.65 Q119.5 21.6 119.55 21.6 L119.65 21.6 119.65 21.55 119.7 21.5 119.7 21.35 119.65 21.2 119.65 21.1 119.6 21.0 119.6 20.85 119.65 20.8 119.7 20.85 119.75 20.85 119.8 20.8 119.85 20.7 119.9 20.7 120.0 20.75 120.05 20.7 120.1 20.65 Q120.15 20.65 120.2 20.75 L120.3 20.8 120.35 20.7 120.35 20.65 120.3 20.6 120.2 20.6 120.15 20.5 120.15 20.4 120.05 20.25 120.0 20.2 119.9 20.0 120.15 20.15 Q120.15 20.2 120.2 20.2 L120.3 20.25 120.35 20.3 120.35 20.35 120.4 20.4 120.45 20.45 120.55 20.45 120.6 20.55 120.65 20.55 120.7 20.5 120.7 20.45 120.65 20.35 120.65 20.3 120.7 20.25 120.75 20.2 120.7 20.1 120.7 19.85 120.75 19.65 120.9 19.75 120.75 19.5 120.7 19.4 120.7 19.15 120.7 19.05 120.65 18.8 120.8 19.0 120.95 19.3 121.15 19.55 121.2 19.6 121.25 19.6 121.3 19.55 121.35 19.55 121.4 19.5 121.4 19.35 121.35 19.1 121.3 18.9 121.3 18.5 121.55 18.7 Q121.6 18.7 121.6 18.75 L121.7 18.85 121.8 18.85 121.9 18.95 122.0 19.1 122.1 19.1 122.15 19.1 122.2 18.95 Q122.2 18.9 122.25 18.8 L122.35 18.9 122.3 19.05 122.3 19.15 122.4 19.2 122.45 19.4 122.45 19.5 122.5 19.65 122.5 19.85 122.5 19.9 122.55 19.8 122.65 19.9 122.65 20.0 122.75 20.15 122.8 20.3 122.8 20.4 Q122.8 20.45 122.9 20.5 122.95 20.45 123.0 20.55 L123.0 20.65 123.1 20.6 123.2 20.65 123.2 20.75 Q123.25 20.75 123.3 20.75 L123.3 20.85 Q123.25 20.85 123.25 20.95 L123.25 21.0 123.2 21.1 123.25 21.15 123.3 21.2 123.35 21.1 123.35 21.05 123.4 21.05 123.45 21.1 123.5 21.05 123.5 21.15 123.5 21.25 123.4 21.35 123.35 21.5 123.25 21.6 123.2 21.7 123.2 21.75 123.15 21.8 123.1 21.8 123.05 21.85 Q122.9 22.0 122.85 22.2 L122.9 22.15 122.95 22.15 123.0 22.1 123.0 22.25 123.15 22.2 122.95 22.45 122.9 22.55 122.85 22.7 122.75 22.9 Q122.65 23.05 122.7 23.1 L122.7 23.25 122.75 23.2 Q122.85 23.15 122.85 23.15 L122.85 23.35 122.9 23.45 122.9 23.65 122.85 23.8 122.9 23.85 122.95 23.9 123.0 23.85 Q123.05 23.85 123.1 23.85 L123.15 23.9 123.15 23.95 Q123.15 24.05 123.1 24.05 L123.0 24.15 123.0 24.25 122.9 24.25 122.8 24.25 Q122.75 24.3 122.8 24.35 L122.8 24.45 122.75 24.5 122.65 24.55 Q122.65 24.6 122.65 24.7 L122.65 24.8 122.45 24.9 Q122.35 24.95 122.35 25.1 L122.25 24.95 122.2 24.8 122.1 24.85 122.05 24.95 122.0 24.9 121.95 24.85 Q121.9 24.85 121.9 25.0 L121.85 25.15 121.85 25.25 Q121.85 25.4 121.75 25.4 121.7 25.4 121.6 25.25 121.5 25.2 121.5 25.1 L121.3 24.95 120.65 24.85 120.35 24.75 120.3 24.7 120.3 24.65 Q120.25 24.6 120.35 24.5 120.3 24.45 120.2 24.4 L120.05 24.3 120.0 24.3 119.9 24.3 119.85 24.3 119.8 24.4 119.75 24.45 119.8 24.5 119.85 24.6 119.85 24.75 119.9 24.8 119.95 24.8 120.1 24.85 120.1 24.95 120.2 25.05 120.15 25.15 120.05 25.15 M121.4 17.45 L121.45 17.7 121.5 17.95 121.55 18.15 121.55 18.35 121.5 18.4 121.5 18.5 121.4 18.4 121.4 18.25 121.35 18.25 121.35 18.2 121.4 18.2 121.35 18.0 121.35 17.9 121.4 17.8 121.4 17.55 121.4 17.45 M121.2 17.9 L121.2 18.05 Q121.15 18.05 121.15 17.95 L121.15 17.7 121.2 17.65 121.2 17.9 M120.6 18.3 L120.7 18.5 120.75 18.55 120.7 18.6 Q120.65 18.6 120.65 18.55 L120.6 18.4 Q120.55 18.35 120.6 18.25 L120.6 18.3 M119.9 19.4 L120.05 19.35 120.05 19.3 120.1 19.35 120.2 19.5 120.2 19.6 Q120.15 19.65 120.15 19.65 L120.15 19.7 120.3 19.9 120.35 19.95 120.45 20.1 120.45 20.15 120.55 20.2 120.5 20.2 Q120.5 20.25 120.25 20.05 L120.0 19.85 119.9 19.75 119.85 19.65 119.75 19.6 Q119.7 19.6 119.7 19.5 119.65 19.4 119.75 19.4 L119.9 19.4 M120.45 19.65 L120.5 19.6 120.6 19.65 120.55 19.75 120.55 19.8 120.6 19.9 120.6 19.95 120.55 19.95 120.4 19.85 120.4 19.65 120.45 19.65 M121.2 18.75 L121.25 19.0 121.25 19.15 121.2 19.3 121.25 19.5 Q121.15 19.5 121.15 19.45 L121.1 19.3 121.05 19.05 Q121.05 18.95 121.1 18.95 L121.05 18.85 121.05 18.65 121.1 18.55 121.15 18.6 121.15 18.7 121.2 18.75 M121.85 19.35 L121.75 19.25 Q121.7 19.3 121.65 19.4 121.6 19.6 121.6 19.7 L121.55 19.85 121.5 19.95 121.35 19.95 121.3 19.85 121.3 20.05 121.25 20.05 121.2 20.05 121.15 20.05 121.15 20.3 121.15 20.4 121.2 20.5 121.25 20.65 121.3 20.8 121.3 20.85 121.25 20.9 121.05 20.8 120.95 20.85 Q120.9 20.85 120.8 20.75 L120.5 20.6 120.45 20.6 120.4 20.6 120.4 20.65 120.45 20.7 120.5 20.75 120.5 20.85 120.45 20.9 120.4 21.05 120.35 21.2 Q120.25 21.25 120.3 21.35 L120.3 21.45 120.3 21.6 120.15 21.6 120.15 21.7 120.25 21.85 120.35 22.0 120.4 22.15 120.45 22.25 120.75 22.35 Q120.8 22.4 120.85 22.5 L120.95 22.65 120.7 22.7 120.55 22.7 Q120.5 22.7 120.5 22.75 L120.65 22.9 Q120.75 23.0 120.85 23.3 L120.95 23.6 Q121.05 23.75 121.15 23.8 L121.05 23.85 121.0 23.9 121.1 23.95 121.15 24.05 121.15 24.1 120.95 24.1 120.8 24.15 120.65 24.2 120.45 24.2 120.25 24.15 120.15 24.2 120.1 24.25 120.25 24.25 Q120.4 24.25 120.45 24.3 L120.4 24.35 120.6 24.55 120.65 24.5 120.75 24.55 120.8 24.65 120.8 24.7 Q120.85 24.75 120.9 24.75 L121.0 24.8 121.15 24.8 121.25 24.8 Q121.3 24.75 121.4 24.85 L121.55 25.0 121.75 25.05 121.8 25.0 121.85 24.9 121.85 24.85 121.9 24.75 Q121.9 24.7 122.0 24.65 122.05 24.6 122.15 24.6 122.2 24.55 122.3 24.65 L122.4 24.7 122.45 24.65 122.45 24.5 122.4 24.45 122.4 24.25 122.55 24.25 122.7 24.2 122.75 24.2 122.75 24.05 Q122.7 24.1 122.6 24.05 L122.5 23.9 122.6 23.65 122.55 23.65 Q122.5 23.65 122.45 23.6 122.4 23.6 122.4 23.45 L122.3 23.4 Q122.2 23.3 122.2 23.25 L122.2 23.15 122.25 23.1 122.2 23.05 122.25 22.95 122.35 22.9 122.35 22.85 122.4 22.75 122.3 22.75 122.5 22.4 122.55 22.2 122.65 22.15 122.75 22.05 Q122.85 21.9 122.95 21.8 L123.0 21.7 Q123.15 21.6 123.15 21.45 L123.05 21.45 123.0 21.5 122.95 21.55 Q122.9 21.55 122.85 21.45 L122.9 21.35 122.95 21.2 122.9 21.1 122.9 21.05 122.85 20.9 122.85 20.7 122.75 20.65 122.7 20.5 122.6 20.4 122.55 20.35 122.55 20.3 122.45 20.4 Q122.4 20.4 122.4 20.35 L122.35 20.2 122.3 20.05 122.2 19.85 122.1 19.7 121.95 19.5 121.85 19.35 M124.8 20.25 L124.75 20.45 124.7 20.45 124.65 20.7 124.65 20.75 124.6 20.85 124.55 21.0 124.55 21.15 124.5 21.25 124.45 21.25 124.35 21.4 124.3 21.45 124.25 21.5 Q124.15 21.55 124.1 21.65 L124.05 21.75 124.0 21.8 123.95 21.8 123.85 21.8 123.7 21.75 123.5 21.75 123.55 21.65 123.7 21.5 123.8 21.45 123.9 21.3 124.05 21.2 124.15 21.2 124.2 21.1 124.3 21.0 124.4 20.9 124.5 20.9 124.6 20.7 124.6 20.4 124.65 20.4 124.7 20.3 124.8 20.25 M123.7 20.95 Q123.75 20.8 123.8 20.8 L123.85 20.85 123.95 20.95 123.95 21.0 Q123.9 21.05 123.85 21.05 L123.75 21.0 123.7 21.0 123.7 20.95 M124.35 21.25 L124.3 21.25 124.15 21.35 124.05 21.4 123.9 21.45 Q123.85 21.45 123.8 21.55 L123.7 21.6 123.75 21.65 123.95 21.65 124.25 21.4 124.35 21.25 M123.95 21.95 L124.05 21.9 124.1 21.85 124.2 21.8 124.3 21.75 124.35 21.75 124.35 21.85 124.4 21.9 124.5 21.9 124.5 22.0 124.45 22.05 124.4 22.15 124.25 22.2 124.1 22.35 Q124.0 22.35 124.0 22.45 L123.9 22.5 123.9 22.55 123.65 22.7 123.5 22.75 Q123.35 22.75 123.3 22.8 L123.2 22.85 123.25 22.75 Q123.3 22.55 123.35 22.5 L123.5 22.4 123.7 22.3 123.8 22.25 123.85 22.15 123.95 21.95 M123.65 21.95 L123.75 21.95 123.7 22.05 123.6 22.1 123.5 22.05 123.45 22.0 123.4 21.95 123.5 21.9 123.65 21.95 M123.35 23.35 L123.45 23.4 123.5 23.45 123.65 23.3 123.8 23.25 123.9 23.2 123.95 23.2 124.0 23.2 124.15 23.15 124.2 23.15 Q124.15 23.3 124.0 23.4 123.95 23.4 123.9 23.5 123.85 23.5 123.85 23.5 L123.7 23.65 123.6 23.8 123.45 23.9 123.35 24.05 123.3 24.2 123.15 24.25 123.15 24.2 Q123.1 24.15 123.2 23.9 L123.25 23.65 123.2 23.5 Q123.3 23.35 123.35 23.35 M120.05 20.6 L120.0 20.55 119.95 20.5 120.0 20.45 120.1 20.5 120.1 20.55 120.05 20.6 M119.4 22.15 L119.6 22.25 119.65 22.35 119.65 22.4 119.7 22.35 119.85 22.45 119.9 22.55 119.95 22.65 120.0 22.7 120.1 22.75 120.3 22.95 120.25 23.0 120.2 23.05 120.1 23.05 119.65 22.75 Q119.5 22.7 119.45 22.65 L119.4 22.5 119.35 22.45 119.3 22.35 119.35 22.3 119.35 22.2 119.4 22.15 M120.0 23.25 Q120.0 23.2 120.0 23.15 L120.15 23.15 120.25 23.2 120.35 23.3 120.85 23.65 120.8 23.75 120.75 23.75 120.45 23.65 120.35 23.6 120.25 23.65 Q120.15 23.65 120.05 23.6 L120.0 23.4 120.0 23.25 M120.3 26.2 L120.05 26.15 119.95 26.05 119.85 25.95 Q119.85 25.95 119.85 25.9 L119.8 25.8 119.75 25.75 119.7 25.7 119.75 25.65 119.95 25.85 120.05 25.95 120.3 26.2" fill="#b97814" fill-rule="evenodd" stroke="none"/>
    <path d="M122.65 19.05 Q122.65 19.1 122.7 19.15 L122.8 19.3 122.85 19.4 122.7 19.55 Q122.65 19.55 122.6 19.35 122.55 19.2 122.65 19.05 M121.85 19.35 L121.95 19.5 122.1 19.7 122.2 19.85 122.3 20.05 122.35 20.2 122.4 20.35 Q122.4 20.4 122.45 20.4 L122.55 20.3 122.55 20.35 122.6 20.4 122.7 20.5 122.75 20.65 122.85 20.7 122.85 20.9 122.9 21.05 122.9 21.1 122.95 21.2 122.9 21.35 122.85 21.45 Q122.9 21.55 122.95 21.55 L123.0 21.5 123.05 21.45 123.15 21.45 Q123.15 21.6 123.0 21.7 L122.95 21.8 Q122.85 21.9 122.75 22.05 L122.65 22.15 122.55 22.2 122.5 22.4 122.3 22.75 122.4 22.75 122.35 22.85 122.35 22.9 122.25 22.95 122.2 23.05 122.25 23.1 122.2 23.15 122.2 23.25 Q122.2 23.3 122.3 23.4 L122.4 23.45 Q122.4 23.6 122.45 23.6 122.5 23.65 122.55 23.65 L122.6 23.65 122.5 23.9 122.6 24.05 Q122.7 24.1 122.75 24.05 L122.75 24.2 122.7 24.2 122.55 24.25 122.4 24.25 122.4 24.45 122.45 24.5 122.45 24.65 122.4 24.7 122.3 24.65 Q122.2 24.55 122.15 24.6 122.05 24.6 122.0 24.65 121.9 24.7 121.9 24.75 L121.85 24.85 121.85 24.9 121.8 25.0 121.75 25.05 121.55 25.0 121.4 24.85 Q121.3 24.75 121.25 24.8 L121.15 24.8 121.0 24.8 120.9 24.75 Q120.85 24.75 120.8 24.7 L120.8 24.65 120.75 24.55 120.65 24.5 120.6 24.55 120.4 24.35 120.45 24.3 Q120.4 24.25 120.25 24.25 L120.1 24.25 120.15 24.2 120.25 24.15 120.45 24.2 120.65 24.2 120.8 24.15 120.95 24.1 121.15 24.1 121.15 24.05 121.1 23.95 121.0 23.9 121.05 23.85 121.15 23.8 Q121.05 23.75 120.95 23.6 L120.85 23.3 Q120.75 23.0 120.65 22.9 L120.5 22.75 Q120.5 22.7 120.55 22.7 L120.7 22.7 120.95 22.65 120.85 22.5 Q120.8 22.4 120.75 22.35 L120.45 22.25 120.4 22.15 120.35 22.0 120.25 21.85 120.15 21.7 120.15 21.6 120.3 21.6 120.3 21.45 120.3 21.35 Q120.25 21.25 120.35 21.2 L120.4 21.05 120.45 20.9 120.5 20.85 120.5 20.75 120.45 20.7 120.4 20.65 120.4 20.6 120.45 20.6 120.5 20.6 120.8 20.75 Q120.9 20.85 120.95 20.85 L121.05 20.8 121.25 20.9 121.3 20.85 121.3 20.8 121.25 20.65 121.2 20.5 121.15 20.4 121.15 20.3 121.15 20.05 121.2 20.05 121.25 20.05 121.3 20.05 121.3 19.85 121.35 19.95 121.5 19.95 121.55 19.85 121.6 19.7 Q121.6 19.6 121.65 19.4 121.7 19.3 121.75 19.25 L121.85 19.35 M124.35 21.25 L124.25 21.4 123.95 21.65 123.75 21.65 123.7 21.6 123.8 21.55 Q123.85 21.45 123.9 21.45 L124.05 21.4 124.15 21.35 124.3 21.25 124.35 21.25" fill="#ffe693" fill-rule="evenodd" stroke="none"/>
  </g>
</svg>
