<?xml version="1.0" encoding="UTF-8" standalone="no"?>
<svg xmlns:xlink="http://www.w3.org/1999/xlink" height="7.3px" width="5.7px" xmlns="http://www.w3.org/2000/svg">
  <g transform="matrix(1.0, 0.0, 0.0, 1.0, -135.4, -16.0)">
    <path d="M135.9 16.55 L136.0 16.75 136.0 16.85 135.95 16.9 136.0 16.95 Q135.9 16.95 135.9 16.9 L135.9 16.75 135.85 16.6 135.9 16.5 135.9 16.55 M135.45 17.9 L135.5 17.9 135.55 18.0 135.5 18.1 135.45 18.15 135.45 18.05 135.4 18.05 135.4 17.9 135.45 17.9 M137.1 17.4 L137.1 17.5 137.05 17.55 136.95 17.8 Q136.85 17.75 136.85 17.65 136.85 17.55 136.9 17.5 L136.95 17.45 Q137.0 17.4 137.05 17.4 L137.1 17.4 M136.35 17.35 L136.35 17.4 136.4 17.45 136.35 17.55 136.3 17.5 136.25 17.4 Q136.25 17.35 136.35 17.35 M140.55 16.1 L140.5 16.15 Q140.5 16.1 140.45 16.1 L140.5 16.0 140.55 16.0 140.6 16.0 140.55 16.1 M140.3 17.1 L140.3 17.2 140.3 17.35 140.25 17.4 140.15 17.35 140.1 17.3 Q140.1 17.2 140.15 17.15 L140.2 17.1 140.25 17.05 140.3 17.1 M137.9 17.0 L137.95 17.0 138.0 17.1 138.0 17.2 137.95 17.2 137.9 17.1 137.9 17.0 M138.3 17.25 Q138.25 17.4 138.15 17.4 L138.1 17.35 Q138.1 17.25 138.15 17.2 138.2 17.15 138.25 17.15 L138.3 17.2 138.3 17.25 M139.35 18.5 L139.3 18.6 139.25 18.5 139.3 18.4 139.35 18.35 139.35 18.45 139.35 18.5 M141.05 19.05 L141.05 19.15 141.0 19.05 141.0 18.95 141.05 18.9 141.05 19.05" fill="#421818" fill-rule="evenodd" stroke="none"/>
    <path d="M136.65 16.3 Q136.7 16.2 136.85 16.2 136.95 16.2 137.1 16.3 L137.15 16.4 137.2 16.45 137.3 16.55 137.3 16.7 137.25 16.8 137.2 16.95 Q137.15 16.9 137.15 16.75 L137.1 16.6 137.05 16.55 137.0 16.55 136.9 16.65 136.8 16.75 136.7 16.65 136.65 16.55 Q136.6 16.4 136.65 16.3 M137.7 17.7 Q137.8 17.65 138.0 17.85 138.0 17.85 138.05 17.9 L138.15 18.05 138.25 18.4 138.2 18.8 138.2 19.15 138.0 19.35 137.9 19.5 137.85 19.45 137.85 18.85 137.8 18.55 137.8 18.3 Q137.8 18.15 137.75 18.1 L137.65 18.0 Q137.5 18.0 137.4 18.4 137.25 18.8 137.1 18.8 L136.6 18.6 Q136.5 18.65 136.5 18.7 L136.55 18.8 136.6 19.0 136.55 19.0 136.35 19.0 136.1 19.05 136.05 19.05 136.0 18.95 Q135.95 18.55 136.05 18.45 L136.3 18.25 136.45 18.2 136.6 18.2 136.75 18.35 136.9 18.6 136.95 18.6 Q137.05 18.6 137.15 18.45 L137.3 18.1 Q137.35 17.95 137.45 17.85 137.55 17.7 137.7 17.7 M136.0 19.65 L135.95 19.7 135.85 19.7 135.85 19.65 Q135.85 19.55 135.95 19.4 136.1 19.25 136.2 19.25 L136.3 19.25 136.5 19.35 136.5 19.4 136.45 19.45 136.35 19.45 136.25 19.4 Q136.15 19.45 136.05 19.55 L136.0 19.65 M136.6 19.5 L136.6 19.45 136.7 19.55 136.75 19.6 136.8 19.75 136.65 19.7 136.55 19.6 136.6 19.5 M137.3 19.6 Q137.4 19.55 137.55 19.7 137.7 19.8 137.7 19.95 L137.65 20.25 137.6 20.15 Q137.55 20.0 137.45 20.05 137.4 20.05 137.35 20.1 L137.25 20.2 Q137.15 20.2 137.1 20.1 L137.05 20.05 Q137.05 19.85 137.1 19.7 137.15 19.6 137.3 19.6 M136.9 22.95 L136.8 23.0 136.45 23.15 136.35 23.15 136.3 23.1 136.4 22.95 Q136.5 22.85 136.6 22.85 L136.85 22.9 136.9 22.95 M138.25 21.45 L138.35 21.5 138.45 21.75 138.55 21.95 138.55 22.3 138.5 22.6 Q138.5 22.75 138.4 22.85 L138.3 22.95 Q138.25 22.95 138.2 22.9 L138.2 22.8 138.2 22.05 138.15 22.0 138.1 21.8 138.05 21.7 Q138.0 21.7 137.9 21.9 L137.75 22.1 137.65 22.35 137.5 22.5 Q137.35 22.5 137.15 22.35 L136.9 22.15 136.85 22.2 Q136.85 22.3 136.95 22.4 L137.1 22.6 137.05 22.6 137.0 22.7 136.9 22.65 136.7 22.6 136.6 22.6 136.5 22.6 136.4 22.6 136.35 22.45 Q136.35 22.2 136.5 22.05 136.6 21.9 136.8 21.9 137.0 21.85 137.15 21.95 137.25 22.05 137.3 22.0 L137.4 22.15 137.5 22.15 Q137.55 22.15 137.6 22.0 L137.7 21.75 Q137.75 21.6 137.85 21.5 137.95 21.4 138.1 21.4 138.15 21.4 138.25 21.45 M137.05 23.2 Q137.05 23.1 137.1 23.1 L137.15 23.1 137.2 23.2 137.25 23.3 137.05 23.2" fill="#2a2a27" fill-rule="evenodd" stroke="none"/>
  </g>
</svg>
