<?xml version="1.0" encoding="UTF-8" standalone="no"?>
<svg xmlns:xlink="http://www.w3.org/1999/xlink" height="11.4px" width="13.25px" xmlns="http://www.w3.org/2000/svg">
  <g transform="matrix(1.0, 0.0, 0.0, 1.0, -115.55, -15.1)">
    <path d="M127.4 21.85 L127.8 21.8 Q127.95 21.9 128.3 21.95 L128.75 22.0 128.8 22.0 128.8 22.1 Q128.55 22.15 128.4 22.3 128.3 22.45 128.15 22.45 L127.8 22.45 Q127.65 22.45 127.5 22.65 127.35 22.75 127.15 22.8 127.0 22.85 126.7 23.0 126.2 23.35 126.05 23.5 126.15 23.6 126.2 23.6 L126.25 23.65 Q126.2 23.65 126.15 23.7 L126.05 23.75 Q125.95 23.85 125.85 23.85 L125.85 23.9 125.9 24.05 125.9 24.1 Q125.7 24.15 125.6 24.25 L125.3 24.5 125.6 24.65 125.7 24.55 125.75 24.45 125.95 24.55 126.15 24.7 Q125.9 24.9 125.85 24.95 125.8 25.0 125.75 25.0 L125.65 25.05 125.55 25.0 Q125.4 25.05 125.25 25.2 125.15 25.35 125.1 25.5 125.05 25.7 124.95 25.85 124.85 26.05 124.75 26.05 124.65 26.05 124.55 25.85 L124.5 25.6 124.35 25.6 Q124.25 25.75 124.3 25.9 124.4 26.05 124.25 26.2 L124.1 26.25 124.0 26.3 123.8 26.5 Q123.75 26.55 123.6 26.35 L123.45 26.1 Q123.4 25.95 123.25 25.8 L123.15 25.75 123.1 25.75 122.9 25.85 122.7 25.75 122.6 25.8 122.5 25.8 122.45 25.8 122.35 25.8 122.3 25.85 122.25 25.85 122.2 25.8 122.1 25.85 121.95 25.85 Q121.95 25.9 121.95 26.0 121.9 26.0 121.85 25.95 L121.75 25.95 121.7 25.95 121.65 26.0 121.3 25.9 121.2 25.95 121.0 26.0 120.75 26.05 Q120.65 26.1 120.55 26.0 120.45 25.85 120.3 25.85 L119.85 25.75 119.65 25.8 119.3 25.55 119.15 25.5 119.05 25.5 118.7 25.4 118.4 25.1 118.15 24.85 117.6 24.5 117.45 24.4 117.5 24.3 117.5 24.2 117.4 24.05 117.3 23.9 117.25 23.9 117.05 23.7 116.85 23.45 116.8 23.45 116.75 23.3 116.55 23.15 Q116.25 22.9 116.25 22.75 L116.5 22.75 Q116.3 22.45 116.3 22.35 L116.45 22.35 116.65 22.4 Q116.55 22.25 116.2 21.6 L116.0 21.25 115.85 20.95 115.75 20.75 Q115.75 20.65 115.8 20.6 115.85 20.55 115.85 20.45 L115.75 20.15 115.6 19.75 115.55 19.65 115.6 19.6 Q115.85 19.65 115.9 19.4 115.95 19.15 116.1 19.15 116.3 19.1 116.45 19.3 L116.65 19.5 116.8 19.5 116.8 19.25 Q116.8 19.05 116.9 19.0 L116.8 18.6 Q116.75 18.3 116.95 18.25 L117.05 18.3 117.15 18.3 117.25 18.25 Q117.35 18.2 117.4 18.2 117.55 18.15 117.65 18.3 L117.95 18.6 118.0 18.35 Q118.0 18.15 118.1 18.15 118.2 18.15 118.35 18.6 L118.45 18.85 118.65 18.85 118.75 18.9 118.8 18.9 118.85 18.85 118.85 18.75 Q118.85 18.7 118.85 18.65 L118.9 18.55 118.85 18.5 118.85 18.25 118.85 17.95 118.85 17.9 118.9 17.9 118.95 17.9 119.0 17.85 119.1 17.85 119.15 17.9 119.2 17.9 119.25 17.85 119.3 17.85 119.35 17.85 119.4 17.85 Q119.45 17.85 119.5 17.7 L119.55 17.55 Q119.55 17.55 119.6 17.55 L119.65 17.45 119.7 17.3 119.9 17.4 119.95 17.35 120.0 17.3 120.35 17.5 120.35 17.3 120.35 17.15 120.3 17.2 120.3 16.9 120.3 16.65 120.4 16.6 120.4 16.45 120.45 16.3 120.5 16.2 120.5 15.1 120.6 15.3 120.7 15.65 Q120.75 15.9 120.85 16.1 L120.9 16.2 Q120.9 16.3 120.9 16.3 L120.95 16.4 121.0 16.4 121.1 16.5 121.15 16.65 121.3 16.5 121.3 16.25 121.3 16.1 121.3 15.95 121.35 15.95 121.4 15.95 121.4 16.0 121.45 16.05 121.45 16.1 121.5 16.1 Q121.55 16.05 121.55 16.1 L121.6 16.2 121.55 16.3 121.55 16.4 121.6 16.45 121.65 16.5 121.6 16.7 121.65 16.8 121.75 16.9 121.75 17.15 Q121.75 17.25 121.8 17.3 L121.85 17.35 Q121.9 17.55 121.95 17.55 L122.1 17.45 122.2 17.5 122.3 17.6 122.45 17.5 Q122.55 17.5 122.6 17.55 L122.7 17.7 122.8 17.7 Q122.9 17.75 122.9 17.9 L122.9 18.25 122.95 18.35 123.0 18.45 Q123.15 18.55 123.15 18.7 L123.15 18.85 123.1 19.1 123.15 19.1 123.2 19.2 123.25 19.35 123.3 19.3 123.35 19.3 123.35 19.55 123.3 19.75 123.3 19.85 123.3 19.9 Q123.25 20.0 123.25 20.05 L123.1 20.1 123.0 20.2 123.0 20.25 Q122.95 20.3 123.0 20.4 123.0 20.5 123.1 20.55 L123.2 20.7 123.15 20.85 Q123.1 20.95 123.15 20.95 L123.2 21.1 123.3 21.25 123.25 21.35 123.25 21.4 123.3 21.45 123.3 21.55 123.35 21.55 Q123.3 21.55 123.3 21.6 L123.25 21.6 123.15 21.65 123.1 21.65 123.05 21.45 Q122.95 21.3 122.9 21.35 L122.8 21.4 122.8 21.45 Q122.75 21.45 122.75 21.55 L122.75 21.65 122.7 21.75 122.65 21.75 122.55 21.85 Q122.5 21.85 122.5 21.85 122.4 21.9 122.4 22.05 L122.4 22.25 122.35 22.3 122.25 22.35 122.15 22.5 122.05 22.45 122.0 22.45 121.9 22.5 121.8 22.6 121.75 22.55 121.85 22.5 121.85 22.4 Q121.85 22.35 121.8 22.3 121.7 22.25 121.7 22.05 L121.9 22.15 121.95 22.25 Q122.05 22.4 122.1 22.35 L122.15 22.3 122.2 22.15 122.2 22.05 122.15 22.0 Q122.15 22.0 122.2 21.95 L122.3 21.9 Q122.35 21.9 122.35 21.9 L122.45 21.75 122.55 21.65 122.6 21.6 122.65 21.45 122.65 21.3 122.6 21.2 Q122.7 21.2 122.75 21.0 L122.75 20.7 122.7 20.55 122.55 20.55 Q122.6 20.45 122.55 20.35 122.5 20.3 122.45 20.3 L122.25 20.25 122.15 20.2 Q122.1 20.2 122.1 20.3 L122.05 20.45 122.15 20.55 122.2 20.65 122.1 20.85 122.05 20.85 Q122.0 21.0 121.85 20.95 121.8 21.0 121.8 21.2 121.85 21.35 121.75 21.4 L121.7 21.45 121.65 21.4 121.65 21.25 Q121.65 21.2 121.55 21.2 L121.5 21.2 121.45 21.2 121.4 21.1 121.4 20.95 121.65 21.05 121.75 20.9 121.8 20.7 Q121.8 20.6 121.75 20.6 L121.65 20.6 Q121.6 20.6 121.6 20.55 L121.55 20.45 121.45 20.4 121.4 20.35 121.45 20.25 121.45 20.1 Q121.5 20.35 121.6 20.35 L121.7 20.35 121.75 20.35 121.85 20.35 121.9 20.1 121.9 20.0 121.75 20.0 121.7 19.95 121.7 19.85 Q121.7 19.75 121.55 19.75 121.5 19.7 121.5 19.65 L121.5 19.55 121.55 19.45 121.45 19.35 121.4 19.25 121.4 19.15 121.45 19.1 121.5 19.1 121.55 19.1 121.55 19.2 Q121.6 19.25 121.6 19.25 L121.65 19.25 121.75 19.1 121.8 19.1 121.8 19.15 121.85 19.25 121.8 19.3 121.8 19.4 121.9 19.5 122.0 19.55 122.05 19.5 122.05 19.25 122.0 19.15 Q122.0 19.15 122.0 19.1 L122.0 19.05 122.15 19.25 Q122.25 19.45 122.35 19.45 L122.5 19.35 Q122.6 19.35 122.6 19.3 122.7 19.25 122.7 19.15 L122.75 18.95 122.65 18.75 122.5 18.55 122.55 18.4 122.55 18.25 122.35 18.1 Q122.2 17.95 122.1 17.95 122.1 17.95 122.0 18.0 L121.85 18.05 121.8 17.85 Q121.75 17.75 121.65 17.75 L121.5 17.75 Q121.45 17.75 121.45 17.6 L121.45 17.35 121.4 17.2 Q121.25 17.05 121.2 17.05 L121.15 17.05 121.15 17.1 121.1 16.95 121.05 16.85 Q121.0 16.8 120.95 16.8 L120.9 16.75 120.55 16.55 120.5 16.65 120.5 16.85 120.6 16.95 120.65 17.05 120.6 17.15 Q120.55 17.25 120.55 17.3 L120.65 17.55 120.75 17.7 120.7 17.95 120.6 18.1 Q120.5 18.1 120.35 18.0 L120.2 17.95 120.15 18.0 120.0 18.1 119.9 18.1 119.9 18.05 119.75 18.2 Q119.65 18.25 119.65 18.3 119.6 18.3 119.6 18.35 L119.65 18.5 119.7 18.75 Q119.7 18.85 119.8 18.95 L119.85 19.05 119.85 19.15 Q119.8 19.25 119.7 19.25 L119.45 19.1 119.4 19.15 119.3 19.15 Q119.25 19.15 119.2 19.15 L119.15 19.1 119.1 19.3 119.1 19.5 119.15 19.55 119.2 19.65 119.25 20.0 119.25 20.05 Q119.15 20.0 119.15 19.9 L119.0 19.75 Q118.75 19.75 118.7 19.65 118.7 19.6 118.75 19.35 118.7 19.25 118.6 19.2 L118.45 19.2 118.4 19.05 118.4 19.0 118.4 18.9 118.35 18.6 118.2 18.55 Q118.1 18.55 118.15 18.95 118.1 18.95 118.1 19.0 117.65 18.5 117.45 18.5 117.35 18.5 117.3 18.6 117.2 18.7 117.25 18.9 117.25 19.15 117.35 19.35 L117.4 19.4 117.45 19.5 117.7 19.7 117.85 19.85 Q117.8 20.0 117.65 20.0 117.5 20.0 117.55 20.2 L117.55 20.35 117.55 20.35 117.5 20.35 117.45 20.3 117.4 20.05 117.4 19.8 Q117.35 19.65 117.25 19.5 L117.2 19.45 116.85 19.4 116.8 19.5 116.8 19.55 116.65 19.7 116.45 19.5 116.25 19.35 Q116.1 19.35 116.0 19.5 115.9 19.6 115.9 19.7 L116.0 19.95 116.15 20.25 116.2 20.3 116.35 20.75 116.55 21.0 116.65 21.1 116.95 21.1 117.0 21.1 117.25 21.05 117.45 20.9 Q117.55 20.75 117.7 20.85 L117.75 20.85 117.7 20.6 117.75 20.65 117.8 20.65 117.85 20.65 117.9 20.65 118.0 20.8 Q118.05 21.0 118.2 21.1 L118.25 21.15 118.5 21.0 118.7 20.85 118.8 20.8 119.05 20.8 Q118.9 20.8 118.9 20.9 L118.85 21.1 Q118.8 21.1 118.8 21.2 L118.8 21.25 118.75 21.35 118.7 21.5 118.7 21.55 118.45 21.5 Q118.35 21.55 118.15 21.4 118.0 21.25 117.85 21.25 117.55 21.3 117.55 21.5 L117.55 21.55 Q117.6 21.9 117.85 22.15 118.05 22.3 118.2 22.3 L118.3 22.3 118.4 22.25 118.55 22.15 118.65 21.95 118.85 21.9 118.85 21.85 118.95 22.05 118.9 22.15 118.9 22.35 118.8 22.45 118.6 22.45 118.2 22.4 118.15 22.4 Q118.1 22.4 118.0 22.35 117.95 22.3 117.85 22.2 L117.75 22.1 117.6 21.9 Q117.5 21.75 117.4 21.75 L117.35 21.7 117.3 21.7 117.15 21.5 117.1 21.4 Q117.0 21.35 116.9 21.3 L116.65 21.25 116.35 21.0 116.2 21.0 116.2 21.15 Q116.2 21.35 116.4 21.55 L116.6 21.75 Q116.55 22.05 116.7 22.25 116.95 22.5 117.3 22.6 117.5 22.7 117.6 22.95 117.3 23.05 117.15 23.1 117.15 23.2 117.4 23.4 L117.6 23.6 117.7 23.55 117.75 23.5 117.85 23.45 118.6 23.65 118.95 23.5 119.1 23.4 Q119.2 23.45 119.25 23.5 L119.35 23.8 Q119.4 24.0 119.5 24.05 L119.6 24.05 Q119.7 24.05 119.7 24.1 L119.9 24.1 Q120.2 24.05 120.25 23.95 L120.25 23.9 120.25 23.55 120.35 23.55 Q120.4 23.6 120.45 23.45 120.5 23.25 120.6 23.2 L120.8 23.3 120.9 23.3 120.95 23.3 121.0 23.4 Q121.25 23.7 121.5 23.75 L121.5 23.5 Q121.55 23.4 121.65 23.35 L121.7 23.4 121.8 23.35 121.85 23.3 121.9 23.2 Q122.0 23.2 122.05 23.25 L122.15 23.4 122.1 23.5 122.1 23.65 122.15 23.8 122.3 23.9 122.35 24.0 122.45 24.15 Q122.5 24.55 123.0 24.5 L123.2 24.35 123.35 24.1 123.6 24.0 123.75 23.85 123.8 23.85 124.35 23.9 124.45 23.85 Q124.8 23.8 125.0 23.5 L125.15 23.35 125.3 23.25 125.65 23.1 125.75 23.1 126.1 22.9 126.35 22.85 126.65 22.85 Q126.85 22.85 127.0 22.65 127.15 22.5 127.2 22.2 127.2 22.1 127.3 21.95 L127.4 21.85 M124.25 19.5 L124.3 19.45 124.45 19.25 124.6 19.3 Q124.65 19.25 124.7 19.25 124.75 19.25 124.75 19.35 L124.75 19.5 124.7 19.6 124.7 19.7 124.65 19.85 124.6 19.95 124.55 20.0 124.4 20.1 124.4 19.95 124.45 19.8 Q124.5 19.8 124.5 19.75 124.5 19.65 124.25 19.5 M124.65 19.95 L124.8 19.95 124.95 19.9 125.0 19.85 125.45 19.8 125.5 19.8 125.4 19.95 Q125.35 20.05 125.4 20.15 L125.6 20.2 125.85 20.2 126.0 20.45 Q126.05 20.5 126.2 20.5 L126.05 20.75 125.95 20.85 Q125.75 20.95 125.7 21.0 L125.65 21.05 125.65 21.1 Q125.65 21.25 125.7 21.25 L125.75 21.25 125.4 21.45 125.05 21.7 124.8 21.8 Q124.55 21.95 124.6 22.15 124.6 22.3 124.65 22.35 124.75 22.45 124.8 22.45 L125.1 22.3 125.3 22.35 125.4 22.45 Q125.55 22.6 125.65 22.55 L125.95 22.5 125.95 22.55 Q125.85 22.75 125.45 22.75 125.1 22.75 125.05 23.05 L125.05 23.1 Q124.9 23.05 124.8 22.9 124.7 22.8 124.55 22.8 L124.55 22.85 Q124.05 23.15 123.85 23.25 L123.45 23.35 Q123.25 23.45 123.3 23.6 L123.3 23.65 123.25 23.7 123.15 23.65 123.05 23.65 123.0 23.6 122.9 23.55 122.95 23.45 122.95 23.4 122.9 23.35 122.8 23.2 Q123.15 22.95 123.3 22.9 L123.6 23.0 123.7 22.85 Q123.75 22.8 123.8 22.8 L123.95 22.9 124.15 22.95 124.3 22.8 124.4 22.65 124.35 22.55 124.3 22.45 124.4 22.25 124.5 22.15 124.5 22.0 124.45 21.85 124.45 21.7 124.45 21.55 124.6 21.5 124.6 21.45 124.8 21.3 Q124.85 21.25 125.0 21.25 L125.2 21.25 125.25 21.25 Q125.4 21.15 125.35 21.0 125.3 20.85 125.4 20.8 L125.45 20.8 125.5 20.8 125.6 20.75 125.6 20.5 Q125.55 20.15 125.25 20.2 L125.2 20.2 125.1 20.25 125.05 20.3 124.85 20.4 124.8 20.4 124.8 20.3 124.85 20.2 Q124.8 20.05 124.75 20.0 L124.65 19.95 M125.85 21.25 L126.35 21.0 126.45 21.0 126.6 21.1 Q126.7 21.15 126.75 21.15 L126.8 21.2 126.85 21.2 126.8 21.2 126.8 21.25 126.9 21.35 126.95 21.35 126.8 21.55 Q126.75 21.6 126.6 21.65 126.4 21.75 126.25 21.9 L126.25 21.95 126.1 22.1 126.1 22.15 126.1 22.05 126.15 21.9 126.15 21.7 126.3 21.5 126.5 21.4 126.7 21.25 126.55 21.15 126.15 21.2 125.85 21.25 M120.35 19.15 L120.45 19.25 120.5 19.4 120.5 19.75 120.5 19.8 120.55 19.85 Q120.65 19.85 120.7 19.9 L120.7 20.0 120.6 20.0 Q120.5 20.0 120.4 20.1 L120.35 20.15 120.2 20.3 Q120.15 20.35 120.1 20.25 L120.0 20.15 119.8 19.95 119.75 19.9 119.8 19.75 119.85 19.7 119.95 19.75 120.0 19.75 120.15 19.85 120.2 19.85 120.25 19.8 120.3 19.7 120.35 19.55 120.35 19.15 M121.35 18.8 L121.15 18.85 121.25 18.75 Q121.25 18.65 121.3 18.65 121.35 18.5 121.45 18.5 L121.45 18.6 Q121.5 18.7 121.55 18.7 L121.5 18.75 121.35 18.8 M124.35 20.15 Q124.3 20.25 124.3 20.4 124.25 20.6 124.3 21.05 L124.35 21.45 124.4 21.55 124.35 21.5 124.25 21.6 124.25 21.65 124.1 21.7 124.05 21.7 124.05 21.65 123.95 21.7 123.9 21.75 Q123.85 21.75 123.9 21.7 L123.9 21.6 123.9 21.45 123.85 21.3 123.85 21.15 123.95 21.05 123.9 21.0 123.9 20.85 124.0 20.75 124.1 20.65 124.1 20.5 Q124.1 20.35 124.15 20.3 L124.35 20.15 M121.85 25.0 L121.9 24.95 121.9 24.85 121.85 24.8 121.8 24.8 Q121.75 24.85 121.75 24.95 L121.8 25.0 121.85 25.05 121.85 25.0 M122.1 23.85 L122.1 23.95 Q122.05 24.15 122.0 24.15 L121.85 24.1 Q121.8 24.1 121.8 24.2 L121.85 24.25 121.9 24.35 121.95 24.45 122.0 24.45 122.15 24.35 122.2 24.15 122.2 24.1 122.15 24.0 122.1 23.85 M120.4 21.15 L120.45 21.25 120.5 21.3 120.5 21.45 120.5 21.7 120.4 21.65 120.35 21.5 120.3 21.35 120.35 21.2 120.4 21.15 M119.45 20.35 L119.45 20.25 119.55 20.4 119.4 20.65 119.25 20.9 119.15 20.85 119.05 20.85 119.1 20.85 Q119.25 20.8 119.35 20.7 L119.45 20.55 119.45 20.35 M120.25 22.5 Q120.1 22.5 120.0 22.65 L119.9 22.85 119.85 23.1 119.75 23.0 119.7 22.95 119.7 22.85 Q119.7 22.7 119.85 22.55 L119.95 22.45 120.05 22.45 Q120.15 22.4 120.25 22.5 M119.7 24.6 Q119.55 24.6 119.4 25.0 L119.45 25.2 Q119.55 25.35 119.6 25.35 L119.65 25.4 119.7 25.35 119.8 25.3 119.9 25.25 119.8 25.2 119.8 25.05 119.85 24.9 120.0 24.8 120.15 24.7 120.15 24.65 120.05 24.65 Q120.05 24.65 120.0 24.65 L119.85 24.6 119.7 24.6 M121.25 23.9 Q121.05 23.95 120.9 24.1 120.75 24.3 120.8 24.4 120.8 24.55 120.9 24.7 121.0 24.8 121.05 24.8 L121.15 24.7 121.2 24.6 121.2 24.55 121.15 24.5 121.15 24.45 121.1 24.4 Q121.1 24.25 121.2 24.05 121.2 24.0 121.25 23.9 M120.75 25.5 L120.75 25.4 120.65 25.35 Q120.6 25.35 120.6 25.4 L120.55 25.5 120.55 25.75 120.6 25.7 120.7 25.65 120.7 25.55 120.75 25.5" fill="#722c28" fill-rule="evenodd" stroke="none"/>
    <path d="M123.25 20.05 L123.2 20.15 123.25 20.15 123.3 20.2 123.35 20.25 123.25 20.45 123.3 20.45 123.35 20.5 Q123.35 20.5 123.35 20.45 L123.4 20.4 Q123.5 20.3 123.55 20.25 123.55 20.25 123.55 20.3 L123.65 20.3 123.7 20.25 123.75 20.35 Q123.85 20.5 123.9 20.45 L123.9 20.4 124.0 20.35 124.05 20.35 124.1 20.35 124.15 20.25 124.2 20.1 124.25 20.05 124.3 19.9 124.15 19.75 124.05 19.7 124.25 19.5 Q124.5 19.65 124.5 19.75 124.5 19.8 124.45 19.8 L124.4 19.95 124.4 20.1 124.55 20.0 124.6 19.95 124.6 20.0 124.65 19.95 124.75 20.0 Q124.8 20.05 124.85 20.2 L124.8 20.3 Q124.6 20.3 124.55 20.2 L124.5 20.3 Q124.45 20.45 124.45 20.6 124.5 20.95 124.65 21.05 L124.65 21.1 Q124.75 20.95 124.9 20.9 L125.05 20.85 Q125.35 20.75 125.3 20.45 L125.3 20.25 125.1 20.25 125.2 20.2 125.25 20.2 Q125.55 20.15 125.6 20.5 L125.6 20.75 125.5 20.8 125.45 20.8 125.4 20.8 Q125.3 20.85 125.35 21.0 125.4 21.15 125.25 21.25 L125.2 21.25 125.0 21.25 Q124.85 21.25 124.8 21.3 L124.6 21.45 124.6 21.5 124.45 21.55 124.45 21.7 124.45 21.85 124.5 22.0 124.5 22.15 124.4 22.25 124.3 22.45 124.35 22.55 124.4 22.65 124.3 22.8 124.15 22.95 123.95 22.9 123.8 22.8 Q123.75 22.8 123.7 22.85 L123.6 23.0 123.3 22.9 Q123.15 22.95 122.8 23.2 L122.9 23.35 122.95 23.4 122.95 23.45 122.9 23.55 123.0 23.6 123.05 23.65 123.15 23.65 123.25 23.7 123.3 23.65 123.3 23.6 Q123.25 23.45 123.45 23.35 L123.85 23.25 Q124.05 23.15 124.55 22.85 L124.55 22.8 Q124.7 22.8 124.8 22.9 124.9 23.05 125.05 23.1 L125.05 23.05 Q125.1 22.75 125.45 22.75 125.85 22.75 125.95 22.55 L126.05 22.65 126.15 22.7 126.25 22.65 126.35 22.5 126.35 22.3 126.2 22.3 126.05 22.35 Q125.9 22.35 125.95 22.5 L125.65 22.55 Q125.55 22.6 125.4 22.45 L125.3 22.35 125.1 22.3 124.8 22.45 Q124.75 22.45 124.65 22.35 124.6 22.3 124.6 22.15 124.55 21.95 124.8 21.8 L125.05 21.7 125.4 21.45 125.75 21.25 125.8 21.25 125.85 21.25 126.15 21.2 126.55 21.15 126.7 21.25 126.5 21.4 126.3 21.5 126.3 21.4 126.2 21.4 125.45 21.8 Q125.35 21.85 125.35 22.05 L125.3 22.2 125.35 22.2 Q125.45 22.2 125.55 22.0 125.6 21.85 125.7 21.85 L125.75 21.8 126.1 21.75 126.15 21.7 126.15 21.9 126.1 22.05 126.1 22.15 126.1 22.1 126.25 21.95 126.25 21.9 Q126.4 21.75 126.6 21.65 L126.85 21.7 126.95 21.7 126.9 21.75 127.25 21.85 127.4 21.85 127.3 21.95 Q127.2 22.1 127.2 22.2 127.15 22.5 127.0 22.65 126.85 22.85 126.65 22.85 L126.35 22.85 126.1 22.9 125.75 23.1 125.65 23.1 125.3 23.25 125.15 23.35 125.0 23.5 Q124.8 23.8 124.45 23.85 L124.35 23.9 123.8 23.85 123.75 23.85 123.6 24.0 123.35 24.1 123.2 24.35 123.0 24.5 Q122.5 24.55 122.45 24.15 L122.35 24.0 122.3 23.9 122.15 23.8 122.1 23.65 122.1 23.5 122.15 23.4 122.05 23.25 Q122.0 23.2 121.9 23.2 L121.85 23.3 121.8 23.35 121.7 23.4 121.65 23.35 Q121.55 23.4 121.5 23.5 L121.5 23.75 Q121.25 23.7 121.0 23.4 L120.95 23.3 120.9 23.3 120.8 23.3 120.6 23.2 Q120.5 23.25 120.45 23.45 120.4 23.6 120.35 23.55 L120.25 23.55 120.25 23.9 120.25 23.95 Q120.2 24.05 119.9 24.1 L119.7 24.1 Q119.7 24.05 119.6 24.05 L119.5 24.05 Q119.4 24.0 119.35 23.8 L119.25 23.5 Q119.2 23.45 119.1 23.4 L118.95 23.5 118.6 23.65 117.85 23.45 117.75 23.5 117.7 23.55 117.6 23.6 117.4 23.4 Q117.15 23.2 117.15 23.1 117.3 23.05 117.6 22.95 117.5 22.7 117.3 22.6 116.95 22.5 116.7 22.25 116.55 22.05 116.6 21.75 L116.4 21.55 Q116.2 21.35 116.2 21.15 L116.2 21.0 116.35 21.0 116.65 21.25 116.9 21.3 Q117.0 21.35 117.1 21.4 L117.15 21.5 117.3 21.7 117.35 21.7 117.4 21.75 Q117.5 21.75 117.6 21.9 L117.75 22.1 117.55 22.05 117.4 22.05 117.05 21.8 117.0 21.75 117.0 21.95 Q117.05 22.3 117.45 22.55 L117.6 22.65 Q117.85 22.8 117.95 22.85 L118.0 22.85 118.35 22.8 118.55 22.75 118.4 22.7 118.15 22.55 118.1 22.5 118.0 22.35 Q118.1 22.4 118.15 22.4 L118.2 22.4 118.6 22.45 118.8 22.45 118.9 22.35 118.9 22.15 118.95 22.05 118.85 21.85 118.85 21.9 118.65 21.95 118.55 22.15 118.4 22.25 118.3 22.3 118.2 22.3 Q118.05 22.3 117.85 22.15 117.6 21.9 117.55 21.55 L117.55 21.5 Q117.55 21.3 117.85 21.25 118.0 21.25 118.15 21.4 118.35 21.55 118.45 21.5 L118.7 21.55 118.7 21.5 118.75 21.35 118.8 21.25 118.8 21.2 Q118.8 21.1 118.85 21.1 L118.9 20.9 Q118.9 20.8 119.05 20.8 L118.8 20.8 118.7 20.85 118.5 21.0 118.25 21.15 118.2 21.1 Q118.05 21.0 118.0 20.8 L117.9 20.65 117.85 20.65 117.8 20.65 117.75 20.65 117.7 20.6 117.75 20.85 117.7 20.85 Q117.55 20.75 117.45 20.9 L117.25 21.05 117.0 21.1 116.95 21.1 116.65 21.1 116.55 21.0 116.35 20.75 116.2 20.3 116.15 20.25 116.0 19.95 115.9 19.7 Q115.9 19.6 116.0 19.5 116.1 19.35 116.25 19.35 L116.45 19.5 116.65 19.7 116.8 19.55 116.8 19.5 116.85 19.4 117.2 19.45 117.25 19.5 Q117.35 19.65 117.4 19.8 L117.4 20.05 117.45 20.3 117.5 20.35 117.55 20.35 117.55 20.35 117.55 20.2 Q117.5 20.0 117.65 20.0 117.8 20.0 117.85 19.85 L117.7 19.7 117.45 19.5 117.4 19.4 117.35 19.35 Q117.25 19.15 117.25 18.9 117.2 18.7 117.3 18.6 117.35 18.5 117.45 18.5 117.65 18.5 118.1 19.0 118.1 18.95 118.15 18.95 118.1 18.55 118.2 18.55 L118.35 18.6 118.4 18.9 118.4 19.0 118.3 18.9 118.15 18.9 118.15 18.95 118.15 19.15 Q118.2 19.3 118.3 19.35 L118.35 19.4 118.35 19.3 118.4 19.05 118.45 19.2 118.6 19.2 Q118.7 19.25 118.75 19.35 118.7 19.6 118.7 19.65 118.75 19.75 119.0 19.75 L119.15 19.9 Q119.15 20.0 119.25 20.05 L119.25 20.0 119.2 19.65 119.15 19.55 119.1 19.5 119.1 19.3 119.15 19.1 119.2 19.15 Q119.25 19.15 119.3 19.15 L119.4 19.15 119.45 19.1 119.7 19.25 Q119.8 19.25 119.85 19.15 L119.85 19.05 119.8 18.95 Q119.7 18.85 119.7 18.75 L119.65 18.5 119.6 18.35 Q119.6 18.3 119.65 18.3 119.65 18.25 119.75 18.2 L119.9 18.05 119.9 18.1 120.0 18.1 120.15 18.0 120.2 17.95 120.35 18.0 Q120.5 18.1 120.6 18.1 L120.7 17.95 120.75 17.7 120.65 17.55 120.55 17.3 Q120.55 17.25 120.6 17.15 L120.65 17.05 120.6 16.95 120.5 16.85 120.5 16.65 120.55 16.55 120.9 16.75 120.95 16.8 Q121.0 16.8 121.05 16.85 L121.1 16.95 121.15 17.1 121.15 17.05 121.2 17.05 Q121.25 17.05 121.4 17.2 L121.45 17.35 121.45 17.6 Q121.45 17.75 121.5 17.75 L121.65 17.75 Q121.75 17.75 121.8 17.85 L121.85 18.05 122.0 18.0 Q122.1 17.95 122.1 17.95 122.2 17.95 122.35 18.1 L122.55 18.25 122.55 18.4 122.5 18.55 122.65 18.75 122.75 18.95 122.7 19.15 Q122.7 19.25 122.6 19.3 122.6 19.35 122.5 19.35 L122.35 19.45 Q122.25 19.45 122.15 19.25 L122.0 19.05 122.0 19.1 Q122.0 19.15 122.0 19.15 L122.05 19.25 122.05 19.5 122.0 19.55 121.9 19.5 121.8 19.4 121.8 19.3 121.85 19.25 121.8 19.15 121.8 19.1 121.75 19.1 121.65 19.25 121.6 19.25 Q121.6 19.25 121.55 19.2 L121.55 19.1 121.5 19.1 121.45 19.1 121.4 19.15 121.4 19.25 121.45 19.35 121.55 19.45 121.5 19.55 121.5 19.65 Q121.5 19.7 121.55 19.75 121.7 19.75 121.7 19.85 L121.7 19.95 121.75 20.0 121.9 20.0 121.9 20.1 121.85 20.35 121.75 20.35 121.7 20.35 121.6 20.35 Q121.5 20.35 121.45 20.1 L121.45 20.25 121.4 20.35 121.45 20.4 121.55 20.45 121.6 20.55 Q121.6 20.6 121.65 20.6 L121.75 20.6 Q121.8 20.6 121.8 20.7 L121.75 20.9 121.65 21.05 121.4 20.95 121.4 21.1 121.45 21.2 121.5 21.2 121.55 21.2 Q121.65 21.2 121.65 21.25 L121.65 21.4 121.7 21.45 121.75 21.4 Q121.85 21.35 121.8 21.2 121.8 21.0 121.85 20.95 122.0 21.0 122.05 20.85 L122.1 20.85 122.2 20.65 122.15 20.55 122.05 20.45 122.1 20.3 Q122.1 20.2 122.15 20.2 L122.25 20.25 122.45 20.3 Q122.5 20.3 122.55 20.35 122.6 20.45 122.55 20.55 L122.7 20.55 122.75 20.7 122.75 21.0 Q122.7 21.2 122.6 21.2 L122.65 21.3 122.65 21.45 122.6 21.6 122.55 21.65 122.45 21.75 122.35 21.9 Q122.35 21.9 122.3 21.9 L122.2 21.95 Q122.15 22.0 122.15 22.0 L122.2 22.05 122.2 22.15 122.15 22.3 122.1 22.35 Q122.05 22.4 121.95 22.25 L121.9 22.15 121.7 22.05 Q121.7 22.25 121.8 22.3 121.85 22.35 121.85 22.4 L121.85 22.5 121.75 22.55 121.8 22.6 121.9 22.5 122.0 22.45 122.05 22.45 122.15 22.5 122.25 22.35 122.35 22.3 122.4 22.25 122.4 22.05 Q122.4 21.9 122.5 21.85 122.5 21.85 122.55 21.85 L122.65 21.75 122.7 21.75 122.75 21.65 122.75 21.55 Q122.75 21.45 122.8 21.45 L122.8 21.4 122.9 21.35 Q122.95 21.3 123.05 21.45 L123.1 21.65 123.15 21.65 123.25 21.6 123.3 21.6 Q123.3 21.55 123.35 21.55 L123.3 21.55 123.3 21.45 123.25 21.4 123.25 21.35 123.3 21.25 123.2 21.1 123.15 20.95 Q123.1 20.95 123.15 20.85 L123.2 20.7 123.1 20.55 Q123.0 20.5 123.0 20.4 122.95 20.3 123.0 20.25 L123.0 20.2 123.1 20.1 123.25 20.05 M121.0 17.3 L120.85 17.35 120.75 17.65 120.9 17.75 121.0 17.85 121.1 17.75 121.15 17.8 121.2 17.85 121.25 17.85 121.3 17.9 121.25 17.85 121.25 17.8 121.2 17.7 121.2 17.55 121.15 17.3 121.0 17.3 M117.45 18.95 Q117.4 19.0 117.4 19.05 117.45 19.2 117.5 19.3 L117.55 19.3 Q117.65 19.45 117.75 19.45 117.8 19.45 117.95 19.3 L118.0 19.25 117.95 19.2 117.9 19.1 Q117.65 18.8 117.55 18.8 117.5 18.8 117.45 18.95 M120.95 18.25 L120.8 18.2 120.65 18.1 Q120.5 18.1 120.25 18.3 L119.95 18.5 Q119.8 18.6 119.85 18.75 L119.85 18.85 119.95 19.0 119.95 19.05 120.0 19.15 120.05 19.15 120.1 19.2 120.05 19.1 120.05 19.05 Q120.05 18.95 120.1 18.9 120.15 18.85 120.25 18.8 120.3 18.8 120.35 18.9 L120.4 19.0 120.55 19.15 120.5 19.05 120.5 18.95 120.7 18.9 Q120.85 18.85 120.95 18.75 121.0 18.65 121.05 18.65 L121.1 18.65 121.15 18.7 121.2 18.6 121.25 18.45 121.2 18.4 121.0 18.25 120.95 18.25 M120.35 19.15 L120.35 19.55 120.3 19.7 120.25 19.8 120.2 19.85 120.15 19.85 120.0 19.75 119.95 19.75 119.85 19.7 119.8 19.75 119.75 19.9 119.8 19.95 120.0 20.15 120.1 20.25 Q120.15 20.35 120.2 20.3 L120.35 20.15 120.4 20.1 Q120.5 20.0 120.6 20.0 L120.7 20.0 120.7 19.9 Q120.65 19.85 120.55 19.85 L120.5 19.8 120.5 19.75 120.5 19.4 120.45 19.25 120.35 19.15 M119.65 19.5 L119.55 19.6 119.5 19.65 119.6 19.7 119.65 19.7 119.7 19.7 119.7 19.65 119.75 19.6 119.8 19.5 119.8 19.45 119.65 19.5 M121.35 18.8 L121.5 18.75 121.55 18.7 Q121.5 18.7 121.45 18.6 L121.45 18.5 Q121.35 18.5 121.3 18.65 121.25 18.65 121.25 18.75 L121.15 18.85 121.35 18.8 M122.2 18.3 L122.1 18.45 121.9 18.45 Q121.8 18.45 121.8 18.6 L121.85 18.75 121.95 18.85 122.05 19.0 Q122.3 19.25 122.4 19.25 122.55 19.2 122.55 19.05 L122.4 18.95 Q122.35 18.9 122.35 18.8 L122.35 18.7 122.4 18.6 122.35 18.6 Q122.35 18.45 122.2 18.3 M121.05 19.15 L120.95 19.25 Q120.9 19.3 120.95 19.4 L120.95 19.5 121.0 19.55 121.1 19.55 Q121.1 19.55 121.15 19.55 L121.1 19.4 121.05 19.3 121.05 19.15 M124.35 20.15 L124.15 20.3 Q124.1 20.35 124.1 20.5 L124.1 20.65 124.0 20.75 123.9 20.85 123.9 21.0 123.95 21.05 123.85 21.15 123.85 21.3 123.9 21.45 123.9 21.6 123.9 21.7 Q123.85 21.75 123.9 21.75 L123.95 21.7 124.05 21.65 124.05 21.7 124.1 21.7 124.25 21.65 124.25 21.6 124.35 21.5 124.4 21.55 124.35 21.45 124.3 21.05 Q124.25 20.6 124.3 20.4 124.3 20.25 124.35 20.15 M121.75 22.8 L121.75 22.7 Q121.75 22.6 121.55 22.5 121.4 22.35 121.35 22.2 L121.35 22.1 121.4 22.0 121.3 21.85 121.25 21.95 121.15 22.05 Q121.05 22.05 120.95 22.15 120.85 22.3 120.85 22.5 L120.9 22.55 121.0 22.65 121.15 22.75 121.2 23.0 Q121.25 23.2 121.4 23.2 L121.5 23.1 121.65 23.0 121.7 22.85 121.75 22.8 M122.55 22.5 L122.55 22.75 Q122.55 22.8 122.35 22.85 L122.25 22.95 Q122.15 23.0 122.2 23.1 L122.25 23.25 122.3 23.35 122.45 23.5 122.5 23.75 122.5 23.8 Q122.6 23.95 122.7 23.95 L122.75 23.9 122.8 23.8 122.7 23.75 Q122.65 23.7 122.65 23.6 L122.65 23.4 122.6 23.35 122.5 23.25 122.55 23.2 122.55 23.15 Q122.7 23.15 122.75 23.05 122.8 22.9 122.75 22.75 122.75 22.65 122.6 22.55 L122.55 22.5 M123.4 22.1 L123.4 22.05 123.35 21.95 123.35 22.05 Q123.35 22.2 123.25 22.25 L123.15 22.25 Q123.1 22.3 123.1 22.3 L123.0 22.45 123.0 22.65 123.15 22.65 123.35 22.75 123.5 22.6 123.5 22.3 Q123.5 22.15 123.4 22.1 M122.65 22.2 L122.65 22.25 122.75 22.2 122.95 22.15 122.95 22.0 122.8 21.85 122.75 21.9 Q122.65 22.05 122.65 22.2 M121.9 21.95 L121.95 22.0 122.0 22.05 122.0 21.95 122.05 21.9 122.0 21.75 122.0 21.7 121.9 21.65 Q121.85 21.7 121.9 21.7 L121.9 21.95 M122.2 21.1 L122.2 21.15 122.15 21.25 122.15 21.35 Q122.2 21.55 122.25 21.55 L122.25 21.5 122.35 21.4 122.45 21.4 122.55 21.35 Q122.35 21.05 122.2 21.0 L122.2 21.1 M123.7 21.6 L123.6 21.65 123.65 21.8 123.65 22.25 123.7 22.35 Q123.8 22.35 123.8 22.4 L124.0 22.65 124.2 22.35 Q124.35 22.1 124.35 21.9 L124.3 21.85 124.2 21.8 Q124.15 21.8 124.1 21.9 L124.0 21.95 Q123.9 21.95 123.85 21.75 123.8 21.6 123.7 21.6 M123.75 21.0 Q123.75 20.9 123.65 20.8 L123.6 20.7 123.5 20.85 123.45 21.05 123.5 21.1 123.55 21.2 123.6 21.25 Q123.65 21.25 123.7 21.25 L123.75 21.15 123.75 21.0 M122.1 23.85 L122.15 24.0 122.2 24.1 122.2 24.15 122.15 24.35 122.0 24.45 121.95 24.45 121.9 24.35 121.85 24.25 121.8 24.2 Q121.8 24.1 121.85 24.1 L122.0 24.15 Q122.05 24.15 122.1 23.95 L122.1 23.85 M121.85 25.0 L121.85 25.05 121.8 25.0 121.75 24.95 Q121.75 24.85 121.8 24.8 L121.85 24.8 121.9 24.85 121.9 24.95 121.85 25.0 M121.1 19.9 L121.05 19.85 121.0 19.9 120.95 20.0 121.15 20.0 121.15 19.95 121.1 19.9 M120.5 20.5 Q120.35 20.5 120.15 20.6 L120.0 20.75 Q119.9 20.85 119.9 20.95 L119.95 21.0 120.25 20.9 120.85 21.1 Q121.0 21.1 121.0 20.9 L121.0 20.85 120.85 20.6 120.8 20.6 Q120.75 20.45 120.5 20.5 M119.75 20.7 L119.8 20.6 119.85 20.45 119.7 20.35 119.7 20.45 119.65 20.55 119.6 20.7 Q119.4 21.1 119.4 21.2 119.45 21.35 119.5 21.4 L119.55 21.4 119.7 21.45 119.8 21.4 119.75 21.25 119.7 21.05 119.7 20.8 119.75 20.7 M120.4 21.15 L120.35 21.2 120.3 21.35 120.35 21.5 120.4 21.65 120.5 21.7 120.5 21.45 120.5 21.3 120.45 21.25 120.4 21.15 M120.4 22.05 Q120.3 22.0 120.15 21.85 L120.2 21.95 120.25 22.1 120.3 22.25 120.3 22.5 120.3 22.8 Q120.35 22.95 120.4 23.05 L120.6 22.85 120.7 22.6 120.7 22.4 Q120.65 22.2 120.55 22.1 L120.4 22.05 M119.6 21.9 L119.65 21.8 119.4 21.8 119.25 21.8 119.2 21.65 119.2 21.5 119.1 21.4 119.0 21.3 118.95 21.6 118.95 21.9 119.05 21.95 119.15 22.05 119.25 22.15 119.35 22.25 119.4 22.15 119.5 22.05 119.6 21.9 M119.45 20.35 L119.45 20.55 119.35 20.7 Q119.25 20.8 119.1 20.85 L119.05 20.85 119.15 20.85 119.25 20.9 119.4 20.65 119.55 20.4 119.45 20.25 119.45 20.35 M118.7 20.25 L118.95 20.15 119.0 20.15 118.9 20.05 Q118.6 19.75 118.5 19.75 118.4 19.8 118.35 19.95 118.25 20.05 118.3 20.15 118.3 20.25 118.5 20.25 L118.7 20.25 M119.35 22.85 L119.35 22.75 119.4 22.75 119.4 22.65 Q119.4 22.5 119.3 22.45 L119.25 22.6 119.15 22.75 Q119.05 22.95 119.1 23.1 L119.1 23.2 119.2 23.25 119.25 23.3 119.3 23.35 119.5 23.5 119.65 23.65 119.75 23.55 119.8 23.45 119.8 23.4 119.65 23.35 119.55 23.2 119.5 23.1 119.45 23.05 119.4 22.95 119.35 22.85 M118.5 20.05 L118.5 20.1 118.45 20.05 118.5 20.05 M121.25 23.9 Q121.2 24.0 121.2 24.05 121.1 24.25 121.1 24.4 L121.15 24.45 121.15 24.5 121.2 24.55 121.2 24.6 121.15 24.7 121.05 24.8 Q121.0 24.8 120.9 24.7 120.8 24.55 120.8 24.4 120.75 24.3 120.9 24.1 121.05 23.95 121.25 23.9 M119.7 24.6 L119.85 24.6 120.0 24.65 Q120.05 24.65 120.05 24.65 L120.15 24.65 120.15 24.7 120.0 24.8 119.85 24.9 119.8 25.05 119.8 25.2 119.9 25.25 119.8 25.3 119.7 25.35 119.65 25.4 119.6 25.35 Q119.55 25.35 119.45 25.2 L119.4 25.0 Q119.55 24.6 119.7 24.6 M120.25 22.5 Q120.15 22.4 120.05 22.45 L119.95 22.45 119.85 22.55 Q119.7 22.7 119.7 22.85 L119.7 22.95 119.75 23.0 119.85 23.1 119.9 22.85 120.0 22.65 Q120.1 22.5 120.25 22.5 M116.7 20.45 L116.9 20.45 117.0 20.35 117.1 20.15 117.25 20.05 116.95 19.85 Q116.85 19.75 116.75 19.8 L116.7 20.0 Q116.65 20.05 116.45 19.9 116.3 19.8 116.25 19.8 L116.15 19.85 116.1 20.0 Q116.25 20.2 116.5 20.3 L116.7 20.45 M120.75 25.5 L120.7 25.55 120.7 25.65 120.6 25.7 120.55 25.75 120.55 25.5 120.6 25.4 Q120.6 25.35 120.65 25.35 L120.75 25.4 120.75 25.5" fill="#b97814" fill-rule="evenodd" stroke="none"/>
    <path d="M123.7 20.25 L123.7 20.2 123.8 20.05 123.85 20.0 123.9 20.0 123.9 19.95 123.95 19.85 123.95 19.75 124.05 19.7 124.15 19.75 124.3 19.9 124.25 20.05 124.2 20.1 124.15 20.25 124.1 20.35 124.05 20.35 124.0 20.35 123.9 20.4 123.9 20.45 Q123.85 20.5 123.75 20.35 L123.7 20.25 M117.75 22.1 L117.85 22.2 Q117.95 22.3 118.0 22.35 L118.1 22.5 118.15 22.55 118.4 22.7 118.55 22.75 118.35 22.8 118.0 22.85 117.95 22.85 Q117.85 22.8 117.6 22.65 L117.45 22.55 Q117.05 22.3 117.0 21.95 L117.0 21.75 117.05 21.8 117.4 22.05 117.55 22.05 117.75 22.1 M118.4 19.0 L118.4 19.05 118.35 19.3 118.35 19.4 118.3 19.35 Q118.2 19.3 118.15 19.15 L118.15 18.95 118.15 18.9 118.3 18.9 118.4 19.0 M121.0 17.3 L121.15 17.3 121.2 17.55 121.2 17.7 121.25 17.8 121.25 17.85 121.3 17.9 121.25 17.85 121.2 17.85 121.15 17.8 121.1 17.75 121.0 17.85 120.9 17.75 120.75 17.65 120.85 17.35 121.0 17.3 M117.45 18.95 Q117.5 18.8 117.55 18.8 117.65 18.8 117.9 19.1 L117.95 19.2 118.0 19.25 117.95 19.3 Q117.8 19.45 117.75 19.45 117.65 19.45 117.55 19.3 L117.5 19.3 Q117.45 19.2 117.4 19.05 117.4 19.0 117.45 18.95 M120.95 18.25 L121.0 18.25 121.2 18.4 121.25 18.45 121.2 18.6 121.15 18.7 121.1 18.65 121.05 18.65 Q121.0 18.65 120.95 18.75 120.85 18.85 120.7 18.9 L120.5 18.95 120.5 19.05 120.55 19.15 120.4 19.0 120.35 18.9 Q120.3 18.8 120.25 18.8 120.15 18.85 120.1 18.9 120.05 18.95 120.05 19.05 L120.05 19.1 120.1 19.2 120.05 19.15 120.0 19.15 119.95 19.05 119.95 19.0 119.85 18.85 119.85 18.75 Q119.8 18.6 119.95 18.5 L120.25 18.3 Q120.5 18.1 120.65 18.1 L120.8 18.2 120.95 18.25 M119.65 19.5 L119.8 19.45 119.8 19.5 119.75 19.6 119.7 19.65 119.7 19.7 119.65 19.7 119.6 19.7 119.5 19.65 119.55 19.6 119.65 19.5 M121.05 19.15 L121.05 19.3 121.1 19.4 121.15 19.55 Q121.1 19.55 121.1 19.55 L121.0 19.55 120.95 19.5 120.95 19.4 Q120.9 19.3 120.95 19.25 L121.05 19.15 M122.2 18.3 Q122.35 18.45 122.35 18.6 L122.4 18.6 122.35 18.7 122.35 18.8 Q122.35 18.9 122.4 18.95 L122.55 19.05 Q122.55 19.2 122.4 19.25 122.3 19.25 122.05 19.0 L121.95 18.85 121.85 18.75 121.8 18.6 Q121.8 18.45 121.9 18.45 L122.1 18.45 122.2 18.3 M125.95 22.55 L125.95 22.5 Q125.9 22.35 126.05 22.35 L126.2 22.3 126.35 22.3 126.35 22.5 126.25 22.65 126.15 22.7 126.05 22.65 125.95 22.55 M126.3 21.5 L126.15 21.7 126.1 21.75 125.75 21.8 125.7 21.85 Q125.6 21.85 125.55 22.0 125.45 22.2 125.35 22.2 L125.3 22.2 125.35 22.05 Q125.35 21.85 125.45 21.8 L126.2 21.4 126.3 21.4 126.3 21.5 M125.1 20.25 L125.3 20.25 125.3 20.45 Q125.35 20.75 125.05 20.85 L124.9 20.9 Q124.75 20.95 124.65 21.1 L124.65 21.05 Q124.5 20.95 124.45 20.6 124.45 20.45 124.5 20.3 L124.55 20.2 Q124.6 20.3 124.8 20.3 L124.8 20.4 124.85 20.4 125.05 20.3 125.1 20.25 M123.75 21.0 L123.75 21.15 123.7 21.25 Q123.65 21.25 123.6 21.25 L123.55 21.2 123.5 21.1 123.45 21.05 123.5 20.85 123.6 20.7 123.65 20.8 Q123.75 20.9 123.75 21.0 M123.7 21.6 Q123.8 21.6 123.85 21.75 123.9 21.95 124.0 21.95 L124.1 21.9 Q124.15 21.8 124.2 21.8 L124.3 21.85 124.35 21.9 Q124.35 22.1 124.2 22.35 L124.0 22.65 123.8 22.4 Q123.8 22.35 123.7 22.35 L123.65 22.25 123.65 21.8 123.6 21.65 123.7 21.6 M122.2 21.1 L122.2 21.0 Q122.35 21.05 122.55 21.35 L122.45 21.4 122.35 21.4 122.25 21.5 122.25 21.55 Q122.2 21.55 122.15 21.35 L122.15 21.25 122.2 21.15 122.2 21.1 M121.9 21.95 L121.9 21.7 Q121.85 21.7 121.9 21.65 L122.0 21.7 122.0 21.75 122.05 21.9 122.0 21.95 122.0 22.05 121.95 22.0 121.9 21.95 M122.65 22.2 Q122.65 22.05 122.75 21.9 L122.8 21.85 122.95 22.0 122.95 22.15 122.75 22.2 122.65 22.25 122.65 22.2 M123.4 22.1 Q123.5 22.15 123.5 22.3 L123.5 22.6 123.35 22.75 123.15 22.65 123.0 22.65 123.0 22.45 123.1 22.3 Q123.1 22.3 123.15 22.25 L123.25 22.25 Q123.35 22.2 123.35 22.05 L123.35 21.95 123.4 22.05 123.4 22.1 M122.55 22.5 L122.6 22.55 Q122.75 22.65 122.75 22.75 122.8 22.9 122.75 23.05 122.7 23.15 122.55 23.15 L122.55 23.2 122.5 23.25 122.6 23.35 122.65 23.4 122.65 23.6 Q122.65 23.7 122.7 23.75 L122.8 23.8 122.75 23.9 122.7 23.95 Q122.6 23.95 122.5 23.8 L122.5 23.75 122.45 23.5 122.3 23.35 122.25 23.25 122.2 23.1 Q122.15 23.0 122.25 22.95 L122.35 22.85 Q122.55 22.8 122.55 22.75 L122.55 22.5 M121.75 22.8 L121.7 22.85 121.65 23.0 121.5 23.1 121.4 23.2 Q121.25 23.2 121.2 23.0 L121.15 22.75 121.0 22.65 120.9 22.55 120.85 22.5 Q120.85 22.3 120.95 22.15 121.05 22.05 121.15 22.05 L121.25 21.95 121.3 21.85 121.4 22.0 121.35 22.1 121.35 22.2 Q121.4 22.35 121.55 22.5 121.75 22.6 121.75 22.7 L121.75 22.8 M121.1 19.9 L121.15 19.95 121.15 20.0 120.95 20.0 121.0 19.9 121.05 19.85 121.1 19.9 M120.5 20.5 Q120.75 20.45 120.8 20.6 L120.85 20.6 121.0 20.85 121.0 20.9 Q121.0 21.1 120.85 21.1 L120.25 20.9 119.95 21.0 119.9 20.95 Q119.9 20.85 120.0 20.75 L120.15 20.6 Q120.35 20.5 120.5 20.5 M119.75 20.7 L119.7 20.8 119.7 21.05 119.75 21.25 119.8 21.4 119.7 21.45 119.55 21.4 119.5 21.4 Q119.45 21.35 119.4 21.2 119.4 21.1 119.6 20.7 L119.65 20.55 119.7 20.45 119.7 20.35 119.85 20.45 119.8 20.6 119.75 20.7 M119.6 21.9 L119.5 22.05 119.4 22.15 119.35 22.25 119.25 22.15 119.15 22.05 119.05 21.95 118.95 21.9 118.95 21.6 119.0 21.3 119.1 21.4 119.2 21.5 119.2 21.65 119.25 21.8 119.4 21.8 119.65 21.8 119.6 21.9 M120.4 22.05 L120.55 22.1 Q120.65 22.2 120.7 22.4 L120.7 22.6 120.6 22.85 120.4 23.05 Q120.35 22.95 120.3 22.8 L120.3 22.5 120.3 22.25 120.25 22.1 120.2 21.95 120.15 21.85 Q120.3 22.0 120.4 22.05 M118.7 20.25 L118.5 20.25 Q118.3 20.25 118.3 20.15 118.25 20.05 118.35 19.95 118.4 19.8 118.5 19.75 118.6 19.75 118.9 20.05 L119.0 20.15 118.95 20.15 118.7 20.25 M118.5 20.05 L118.45 20.05 118.5 20.1 118.5 20.05 M119.35 22.85 L119.4 22.95 119.45 23.05 119.5 23.1 119.55 23.2 119.65 23.35 119.8 23.4 119.8 23.45 119.75 23.55 119.65 23.65 119.5 23.5 119.3 23.35 119.25 23.3 119.2 23.25 119.1 23.2 119.1 23.1 Q119.05 22.95 119.15 22.75 L119.25 22.6 119.3 22.45 Q119.4 22.5 119.4 22.65 L119.4 22.75 119.35 22.75 119.35 22.85 M116.7 20.45 L116.5 20.3 Q116.25 20.2 116.1 20.0 L116.15 19.85 116.25 19.8 Q116.3 19.8 116.45 19.9 116.65 20.05 116.7 20.0 L116.75 19.8 Q116.85 19.75 116.95 19.85 L117.25 20.05 117.1 20.15 117.0 20.35 116.9 20.45 116.7 20.45" fill="#ffe693" fill-rule="evenodd" stroke="none"/>
  </g>
</svg>
