<?xml version="1.0" encoding="UTF-8" standalone="no"?>
<svg xmlns:xlink="http://www.w3.org/1999/xlink" height="10.35px" width="8.95px" xmlns="http://www.w3.org/2000/svg">
  <g transform="matrix(1.0, 0.0, 0.0, 1.0, -124.6, -12.05)">
    <path d="M130.95 12.55 L130.95 12.6 130.95 12.75 130.9 12.85 130.85 12.85 130.85 12.75 130.9 12.65 130.9 12.6 130.95 12.55 M129.7 12.3 L129.7 12.35 129.7 12.45 129.7 12.6 129.65 12.6 129.6 12.55 129.6 12.3 Q129.65 12.3 129.7 12.3 M131.05 13.5 L131.05 13.4 131.0 13.35 131.0 13.25 131.1 13.2 131.15 13.25 131.2 13.35 131.15 13.4 131.1 13.45 131.05 13.5 M130.7 13.5 L130.8 13.6 130.8 13.65 130.85 13.65 130.8 13.65 130.8 13.8 130.7 14.0 130.65 13.9 130.65 13.55 130.7 13.5 M130.3 13.3 L130.2 13.45 130.2 13.3 130.2 13.2 130.3 13.25 130.3 13.3 M129.75 13.55 L129.75 13.5 129.75 13.35 129.8 13.35 Q129.8 13.35 129.85 13.4 L129.85 13.5 129.8 13.6 129.75 13.55 M130.1 13.2 L130.15 13.3 130.05 13.35 130.05 13.4 130.1 13.5 130.05 13.55 129.95 13.4 129.95 13.25 130.0 13.2 129.95 13.2 129.9 13.15 129.95 13.1 130.0 13.1 130.1 13.2 M130.3 14.2 L130.3 14.15 130.35 14.15 130.35 14.3 130.4 14.4 130.3 14.4 130.2 14.3 130.25 14.25 130.3 14.2 M129.65 14.7 L129.65 14.8 129.6 14.85 129.6 14.95 129.65 15.0 Q129.65 15.0 129.6 15.05 L129.5 14.95 129.5 14.85 129.5 14.75 129.45 14.65 129.5 14.6 129.55 14.6 129.65 14.7 M129.8 13.85 L129.8 13.9 129.85 13.95 129.8 13.95 129.85 14.0 129.85 14.1 129.8 14.15 129.75 14.2 129.75 14.1 129.75 13.9 129.8 13.85 M130.05 14.75 L130.1 14.85 130.15 14.85 Q130.15 14.8 130.2 14.8 130.25 14.8 130.25 14.85 L130.3 15.05 130.25 15.05 130.3 15.15 130.4 15.15 130.4 15.25 130.35 15.3 130.35 15.45 130.4 15.35 Q130.45 15.35 130.45 15.35 L130.5 15.45 130.45 15.45 130.5 15.5 130.5 15.55 130.45 15.55 130.3 15.7 130.3 15.7 130.3 15.5 130.35 15.45 130.35 15.4 130.3 15.35 130.3 15.3 130.25 15.2 130.2 15.2 130.2 15.25 130.15 15.25 130.1 15.25 130.1 15.05 130.1 15.0 130.05 14.95 130.05 14.75 M130.5 14.25 L130.55 14.15 130.65 14.2 130.6 14.25 130.6 14.3 130.55 14.55 130.5 14.6 Q130.45 14.55 130.45 14.4 L130.5 14.25 M131.15 14.05 L131.2 13.95 131.2 13.9 131.25 14.0 131.35 13.9 131.4 13.95 131.45 14.1 131.5 14.1 131.4 14.25 131.25 14.5 131.25 14.35 131.25 14.15 131.2 14.25 131.2 14.2 131.15 14.15 131.15 14.05 M130.55 14.8 Q130.55 14.75 130.6 14.75 L130.65 14.75 130.7 14.75 130.75 14.75 130.8 14.85 130.7 15.0 130.6 15.15 Q130.55 15.25 130.45 15.2 130.45 15.15 130.5 15.0 L130.55 14.9 130.5 14.85 130.55 14.8 M130.95 13.9 L130.95 14.0 130.9 14.0 130.8 14.2 130.75 14.2 130.75 14.1 130.8 13.95 Q130.8 13.9 130.9 13.85 L130.95 13.8 130.95 13.9 M132.75 16.0 L132.75 16.05 132.7 16.1 132.7 16.15 132.65 16.2 132.55 16.2 132.55 16.1 Q132.55 16.0 132.65 15.95 132.65 15.9 132.7 15.95 L132.75 16.0 M131.95 15.7 L131.95 16.0 131.9 16.25 131.8 16.35 Q131.7 16.25 131.75 16.1 L131.8 16.05 131.8 15.9 131.85 15.75 131.95 15.7 M132.1 16.9 L132.15 16.9 132.2 16.8 132.25 16.85 132.25 16.9 132.2 16.95 132.1 17.0 132.1 16.9 M132.1 16.1 L132.15 16.05 132.15 16.25 132.15 16.4 132.05 16.3 Q132.05 16.3 132.05 16.4 L132.0 16.45 Q132.0 16.4 131.95 16.4 131.95 16.35 132.0 16.25 L132.0 16.2 Q132.0 16.15 132.05 16.15 L132.1 16.15 132.1 16.1 M131.65 15.6 L131.75 15.65 131.8 15.6 131.75 15.7 131.6 15.75 131.55 15.75 131.55 15.9 131.5 15.9 131.45 15.9 131.45 15.85 131.5 15.75 Q131.45 15.75 131.4 15.65 L131.4 15.55 Q131.45 15.5 131.5 15.5 L131.6 15.55 131.65 15.6 M131.7 17.15 L131.65 17.25 Q131.6 17.25 131.6 17.2 L131.55 17.15 131.55 17.35 Q131.5 17.3 131.45 17.35 L131.45 17.15 131.5 17.05 Q131.5 17.05 131.55 17.05 L131.55 16.95 131.6 16.9 131.65 16.95 131.65 17.0 131.7 17.0 131.75 17.0 131.75 17.05 131.7 17.15 M132.55 17.3 L132.5 17.3 132.55 17.25 132.6 17.2 132.65 17.15 132.65 17.25 132.55 17.3 M132.75 17.25 L132.8 17.3 132.8 17.5 132.75 17.55 Q132.7 17.55 132.65 17.5 L132.6 17.45 132.65 17.4 132.7 17.3 132.75 17.25 M129.9 15.15 Q129.9 15.3 129.8 15.35 L129.75 15.3 129.75 14.9 129.85 14.95 129.9 14.95 129.9 15.15 M129.8 15.65 L129.85 15.7 129.9 15.8 129.9 15.9 Q129.9 15.95 129.85 15.9 L129.8 15.9 129.75 15.85 129.8 15.8 129.8 15.7 129.8 15.65 M129.0 15.05 L128.95 15.1 128.95 15.3 128.85 15.2 128.85 15.1 128.8 15.05 128.75 15.15 128.7 15.05 128.7 14.95 128.8 14.9 128.8 14.9 128.85 14.85 128.95 14.85 129.0 14.85 129.05 14.75 129.05 14.75 129.1 14.8 129.05 14.95 129.0 15.0 129.0 15.05 M128.45 15.05 L128.45 14.9 128.4 14.75 128.55 14.75 128.6 14.8 128.6 15.0 128.6 15.15 128.6 15.2 128.55 15.15 128.5 15.15 128.45 15.05 M128.8 16.15 L128.85 16.4 128.8 16.4 128.8 16.25 128.75 16.1 128.8 16.1 128.8 16.15 M128.45 16.45 L128.55 16.65 128.45 16.75 128.4 16.65 Q128.35 16.6 128.3 16.4 L128.2 16.45 128.15 16.4 Q128.05 16.35 128.05 16.15 L128.05 15.85 128.0 15.7 128.0 15.6 128.05 15.55 128.15 15.65 128.25 15.65 128.25 15.75 128.2 15.85 128.2 15.9 128.25 15.9 128.3 16.1 128.4 16.25 128.45 16.45 M127.9 17.0 L127.9 17.1 127.8 16.95 127.75 16.9 127.7 16.75 127.7 16.6 127.75 16.55 127.8 16.55 127.8 16.7 127.9 17.0 M129.6 16.3 L129.6 16.25 129.65 16.35 129.7 16.4 129.8 16.55 129.85 16.7 129.85 16.8 129.9 16.8 129.75 16.7 129.65 16.55 129.6 16.45 129.6 16.3 M131.15 16.6 L131.2 16.6 131.2 16.7 131.1 16.8 131.05 16.8 Q130.9 16.85 130.85 16.75 L130.8 16.65 130.9 16.55 131.0 16.55 131.1 16.65 131.15 16.6 M131.1 17.2 L131.2 17.05 131.25 17.2 131.25 17.25 131.2 17.5 131.1 17.6 131.1 17.7 131.05 17.55 Q131.05 17.4 131.1 17.3 L131.1 17.2 M130.85 18.45 L130.85 18.4 Q130.85 18.3 130.9 18.25 L130.95 18.35 130.95 18.6 130.95 18.65 130.9 18.75 130.9 18.9 130.85 18.7 130.8 18.5 130.85 18.45 M131.4 18.0 L131.4 18.1 131.35 18.15 131.35 18.25 Q131.3 18.25 131.3 18.2 L131.25 18.15 131.25 18.05 131.35 18.0 Q131.4 18.0 131.4 18.0 M133.5 17.4 L133.55 17.4 133.55 17.45 133.5 17.45 133.45 17.5 133.35 17.55 133.35 17.45 133.45 17.4 133.5 17.4 M132.85 17.9 L132.85 18.0 132.9 18.0 132.85 18.0 132.75 18.05 132.6 18.1 Q132.55 18.05 132.6 18.0 132.65 17.9 132.8 17.8 L132.85 17.9 M132.95 18.55 L133.0 18.5 133.0 18.65 132.95 18.7 132.85 18.75 132.85 18.65 132.9 18.55 132.95 18.55 M132.45 17.95 L132.5 18.0 132.5 18.1 132.45 18.15 132.35 18.15 132.3 18.15 132.35 18.05 132.35 17.95 132.4 17.9 132.45 17.95 M132.25 17.6 L132.2 17.6 132.05 17.55 132.0 17.55 132.1 17.5 132.15 17.45 132.3 17.45 132.35 17.55 Q132.35 17.55 132.3 17.55 L132.3 17.6 132.25 17.6 M132.0 18.25 L132.1 18.25 132.05 18.35 132.0 18.35 132.0 18.4 Q132.0 18.35 131.95 18.4 L131.8 18.4 131.75 18.4 131.8 18.35 131.9 18.25 132.0 18.25 M132.35 20.95 L132.3 21.0 132.25 20.9 132.35 20.8 132.45 20.8 132.5 20.85 Q132.5 20.9 132.5 20.85 L132.55 20.85 132.6 20.85 132.6 20.9 132.5 21.0 132.45 21.05 132.45 20.95 Q132.4 20.9 132.35 20.95 M132.45 19.95 L132.45 20.1 132.5 20.2 132.55 20.25 132.5 20.25 Q132.45 20.25 132.35 20.15 L132.35 20.1 Q132.2 20.0 132.3 19.9 L132.35 19.8 132.45 19.9 132.45 19.95 M131.7 21.15 L131.6 21.15 Q131.55 21.1 131.6 21.05 L131.6 21.0 131.65 20.95 131.7 21.05 Q131.75 21.0 131.75 21.05 L131.8 21.1 131.7 21.15 M131.95 21.9 L132.0 22.0 131.9 22.0 131.85 21.95 131.7 21.7 Q131.75 21.7 131.8 21.7 131.85 21.7 131.9 21.75 L131.95 21.9 M132.35 22.15 L132.4 22.2 132.45 22.3 132.4 22.35 132.35 22.4 132.25 22.4 132.25 22.3 132.2 22.2 132.3 22.2 132.35 22.15 M131.0 20.8 L131.15 20.65 Q131.2 20.65 131.2 20.65 L131.35 20.65 131.3 20.75 131.25 20.8 Q131.25 20.85 131.1 20.9 L131.0 20.9 130.95 20.9 131.0 20.8 M127.25 12.2 L127.2 12.15 127.2 12.1 127.25 12.1 127.3 12.1 127.25 12.15 127.3 12.2 127.35 12.25 127.35 12.3 127.3 12.35 127.25 12.3 127.25 12.2 M127.65 12.2 L127.65 12.05 127.7 12.05 127.85 12.05 127.85 12.2 127.9 12.55 127.8 12.5 127.75 12.4 Q127.65 12.3 127.65 12.2 M127.3 12.95 L127.35 13.0 127.4 13.05 127.45 13.25 127.45 13.4 Q127.4 13.35 127.35 13.2 L127.3 13.05 127.25 12.95 Q127.25 12.95 127.3 12.95 M126.4 14.85 L126.5 14.85 126.55 14.9 126.55 14.95 126.5 14.95 126.35 14.9 126.35 14.85 126.4 14.85 M126.35 14.3 L126.4 14.3 126.5 14.3 126.7 14.35 126.7 14.4 126.75 14.4 126.8 14.55 126.9 14.85 126.85 14.85 126.85 14.95 126.8 14.9 126.75 14.8 126.75 14.75 Q126.65 14.7 126.6 14.6 L126.6 14.55 126.55 14.5 126.35 14.4 126.3 14.35 126.3 14.25 126.35 14.3 M125.95 14.75 L125.95 14.8 126.0 14.85 126.05 14.9 126.1 15.0 126.05 15.0 126.05 15.05 126.0 15.0 Q125.95 15.0 125.85 14.85 L125.9 14.8 125.95 14.75 M126.4 13.25 L126.45 13.3 126.5 13.4 126.55 13.45 126.5 13.5 126.45 13.5 126.3 13.35 126.35 13.25 126.4 13.25 M127.2 13.3 L127.25 13.25 127.3 13.3 127.35 13.4 127.35 13.45 127.25 13.4 127.2 13.3 M126.75 13.6 L126.8 13.6 126.8 13.65 126.85 13.7 126.85 13.8 126.85 13.85 126.8 13.8 126.75 13.75 126.75 13.6 M127.4 13.75 L127.55 13.85 127.6 14.15 127.55 14.15 127.5 14.15 127.45 14.05 127.35 13.9 127.4 13.75 M127.1 13.75 L127.15 13.85 127.2 14.0 127.15 14.0 127.1 14.0 127.05 13.9 127.05 13.8 127.1 13.75 M127.35 14.45 L127.4 14.6 127.45 14.8 Q127.45 14.85 127.4 14.8 L127.2 14.55 127.2 14.5 127.25 14.45 127.3 14.45 127.35 14.4 127.35 14.45 M129.1 12.9 L129.15 13.05 129.25 13.25 129.2 13.4 Q129.1 13.4 129.1 13.25 L129.05 13.2 129.0 13.1 128.95 12.95 128.95 12.8 129.0 12.75 129.1 12.9 M128.25 12.7 L128.3 12.75 128.3 12.8 128.35 12.9 128.25 12.95 128.2 12.85 128.2 12.75 128.15 12.7 128.25 12.7 M129.5 13.15 L129.55 13.2 129.55 13.3 129.5 13.4 129.5 13.45 129.45 13.5 Q129.4 13.65 129.3 13.6 L129.25 13.5 129.3 13.4 129.3 13.35 129.45 13.3 129.5 13.25 129.5 13.15 M128.75 13.2 L128.85 13.3 128.8 13.35 128.8 13.4 128.75 13.4 128.75 13.2 M127.8 12.9 L127.8 12.95 127.85 13.05 127.9 13.3 127.85 13.3 127.65 13.05 127.65 13.0 127.75 12.95 127.8 12.95 127.8 12.9 M127.8 14.2 L127.8 14.25 127.85 14.3 127.9 14.45 127.85 14.45 127.8 14.45 127.75 14.35 127.7 14.25 127.7 14.2 127.8 14.2 M128.5 14.05 L128.55 14.0 128.6 14.05 128.6 14.1 128.65 14.15 128.65 14.25 128.6 14.35 128.55 14.35 128.55 14.3 Q128.5 14.2 128.5 14.05 M127.7 13.25 L127.8 13.25 127.8 13.4 127.8 13.6 Q127.85 13.8 127.75 13.8 L127.65 13.65 127.65 13.4 Q127.6 13.35 127.7 13.3 L127.7 13.25 M128.05 14.7 L128.1 14.8 128.2 14.9 Q128.3 15.0 128.3 15.1 L128.35 15.3 Q128.25 15.3 128.2 15.2 L128.15 15.1 128.1 15.0 128.0 14.9 128.0 14.8 128.05 14.7 M125.2 15.05 L125.3 15.15 125.5 15.35 125.45 15.35 125.35 15.4 125.2 15.35 125.1 15.25 125.1 15.2 125.2 15.05 M129.25 14.75 L129.3 14.8 129.35 14.85 129.3 15.0 129.25 15.0 129.25 14.95 129.25 14.75 M125.5 16.2 L125.55 16.2 125.7 16.25 125.8 16.35 125.75 16.35 125.6 16.35 125.5 16.3 125.4 16.35 125.45 16.2 125.5 16.2 M125.5 17.55 L125.55 17.55 125.65 17.6 Q125.8 17.75 125.7 17.85 L125.55 17.8 125.5 17.75 125.4 17.7 Q125.35 17.65 125.35 17.55 L125.35 17.5 125.4 17.45 125.5 17.55 M124.75 16.55 L124.85 16.65 125.05 16.85 124.95 16.85 124.9 16.9 124.7 16.85 124.6 16.75 124.65 16.7 124.7 16.55 124.75 16.55 M125.25 17.75 L125.3 17.9 125.25 17.9 125.15 17.9 125.05 17.85 124.95 17.85 Q124.95 17.75 125.0 17.7 L125.05 17.75 Q125.05 17.7 125.05 17.7 L125.25 17.75 M127.85 15.2 Q127.95 15.25 127.95 15.35 L127.95 15.4 127.9 15.45 127.9 15.4 127.8 15.25 127.85 15.2 M125.5 18.2 L125.5 18.15 125.65 18.05 125.8 18.2 125.85 18.15 125.9 18.1 126.0 18.15 126.05 18.2 126.15 18.35 126.1 18.4 Q126.05 18.45 125.9 18.35 L125.85 18.3 125.8 18.3 125.7 18.35 125.55 18.3 Q125.5 18.3 125.5 18.2 M129.05 17.05 L129.0 17.15 Q129.0 17.35 128.9 17.45 L128.8 17.5 128.85 17.3 128.85 17.25 128.9 17.0 128.9 16.95 128.95 17.0 129.0 17.0 129.05 17.05 M126.85 15.6 L126.9 15.6 127.0 15.8 127.05 15.95 Q127.1 16.15 127.0 16.15 L126.85 16.0 126.85 15.9 126.8 15.8 Q126.75 15.75 126.8 15.65 L126.85 15.6 M126.6 15.4 L126.6 15.35 126.65 15.3 126.7 15.4 126.75 15.5 126.7 15.5 126.65 15.5 126.6 15.45 126.5 15.4 126.45 15.3 126.5 15.2 126.55 15.25 126.55 15.3 126.6 15.4 M126.65 15.7 L126.65 15.85 126.6 15.85 126.5 15.7 126.45 15.6 126.4 15.55 126.35 15.55 126.35 15.6 126.3 15.55 126.15 15.45 126.2 15.35 126.25 15.4 126.3 15.3 126.4 15.4 126.45 15.45 126.45 15.4 126.5 15.5 126.6 15.7 126.65 15.7 M126.05 15.85 L126.25 15.85 126.35 16.0 Q126.25 16.1 126.15 16.05 L126.1 16.05 126.0 16.0 Q125.95 15.95 125.9 15.95 L126.0 16.05 126.05 16.05 126.15 16.1 Q126.25 16.2 126.2 16.35 L125.95 16.25 Q125.95 16.2 125.9 16.2 125.85 16.15 125.85 16.05 L125.8 16.0 125.85 15.95 125.8 15.9 125.8 15.8 125.9 15.8 125.95 15.8 126.0 15.85 126.05 15.85 M126.55 16.55 Q126.5 16.5 126.65 16.5 L126.75 16.5 126.75 16.45 126.65 16.4 Q126.6 16.3 126.65 16.25 L126.7 16.2 126.85 16.25 126.9 16.5 126.9 16.55 126.95 16.6 Q126.95 16.55 127.1 16.65 L127.25 16.75 127.25 16.85 127.15 16.9 126.95 16.8 126.9 16.9 126.85 16.95 Q126.75 16.95 126.65 16.8 L126.55 16.6 126.55 16.55 M126.3 16.7 L126.3 16.8 126.25 16.8 126.15 16.8 126.05 16.8 126.0 16.65 125.95 16.6 126.15 16.55 126.3 16.7 M126.4 18.85 L126.45 18.8 126.6 18.85 126.6 18.9 126.4 19.05 126.25 19.1 126.25 18.95 126.3 18.85 126.4 18.85 M126.35 18.6 L126.45 18.55 126.5 18.65 126.45 18.7 Q126.45 18.75 126.4 18.7 L126.35 18.65 Q126.35 18.65 126.35 18.6 M126.05 18.05 L126.05 17.95 126.1 17.95 126.15 18.0 126.2 18.15 126.1 18.15 126.05 18.05 M127.45 18.45 L127.35 18.5 127.3 18.5 127.2 18.55 127.2 18.5 127.25 18.45 Q127.35 18.35 127.4 18.35 L127.45 18.4 127.45 18.45 M127.15 16.15 L127.3 16.25 127.3 16.35 127.25 16.25 127.2 16.2 127.1 16.15 127.1 16.1 127.15 16.15 M125.9 16.4 L125.9 16.35 125.95 16.35 Q126.0 16.3 126.05 16.35 L126.05 16.4 126.1 16.45 126.05 16.45 126.0 16.45 125.9 16.4 M126.35 19.25 Q126.35 19.2 126.45 19.15 L126.6 19.15 126.75 19.15 127.05 19.25 127.05 19.35 127.0 19.4 126.8 19.35 126.8 19.45 126.75 19.55 Q126.7 19.6 126.55 19.45 L126.35 19.3 126.35 19.25 M127.4 19.0 Q127.4 18.95 127.5 18.9 L127.55 18.9 Q127.55 18.85 127.65 18.8 L127.75 18.85 127.7 19.0 Q127.7 19.0 127.65 19.0 L127.75 19.25 127.75 19.4 127.6 19.25 127.55 19.2 127.6 19.25 127.6 19.35 Q127.55 19.4 127.35 19.45 L127.15 19.45 Q127.1 19.4 127.15 19.25 L127.3 19.1 Q127.35 19.05 127.4 19.0 M127.05 18.7 L127.0 18.75 127.05 18.8 126.95 18.75 126.9 18.7 Q126.85 18.65 126.8 18.65 L126.8 18.6 126.85 18.65 Q127.0 18.65 127.05 18.7 M127.4 19.6 Q127.45 19.6 127.5 19.65 127.65 19.65 127.7 19.75 L127.75 19.85 127.6 19.85 Q127.6 19.85 127.55 19.85 L127.4 19.8 127.35 19.8 127.35 19.7 127.4 19.65 127.4 19.6 M127.85 18.3 L127.85 18.15 127.85 18.1 127.95 18.15 128.2 18.2 128.25 18.35 128.1 18.35 128.05 18.35 127.85 18.3 M127.25 20.4 L127.2 20.5 127.05 20.6 127.1 20.75 127.1 20.85 Q127.05 20.95 126.9 20.95 L126.75 21.0 126.7 20.95 Q126.65 20.9 126.75 20.8 L126.85 20.65 126.95 20.55 Q126.95 20.5 127.05 20.4 L127.2 20.3 127.25 20.4 M126.05 20.15 L126.0 20.2 Q125.95 20.25 125.9 20.2 125.85 20.15 125.85 20.1 L125.95 20.05 126.05 20.15 M126.1 20.35 L126.1 20.45 125.95 20.55 Q125.85 20.55 125.8 20.6 L125.8 20.35 125.9 20.35 125.95 20.3 126.1 20.35 M126.9 19.9 L126.95 19.9 126.95 19.95 126.9 20.0 126.85 20.0 126.75 20.05 126.75 20.0 126.8 20.0 126.9 19.9" fill="#421818" fill-rule="evenodd" stroke="none"/>
    <path d="M129.0 15.05 L129.05 15.15 129.15 15.2 129.2 15.25 129.25 15.3 Q129.35 15.3 129.45 15.4 L129.5 15.6 129.55 15.75 Q129.55 15.9 129.65 15.95 L129.7 16.0 129.75 16.15 129.85 16.4 129.95 16.8 129.95 17.05 129.9 17.15 129.85 17.05 129.8 16.9 129.75 16.75 129.75 16.7 129.9 16.8 129.85 16.8 129.85 16.7 129.8 16.55 129.7 16.4 129.65 16.35 129.6 16.25 129.6 16.3 Q129.4 16.2 129.35 16.2 L129.3 16.3 129.15 16.5 128.9 16.7 Q128.9 16.7 128.65 16.8 128.6 16.8 128.6 16.95 L128.7 17.4 128.8 17.85 128.75 17.9 128.7 17.95 128.6 17.9 Q128.55 17.85 128.5 17.9 L128.3 17.9 Q128.25 17.85 128.25 17.8 128.3 17.7 128.35 17.7 L128.4 17.7 128.5 17.55 128.5 17.45 128.55 17.3 128.4 17.05 128.35 16.95 128.4 16.95 128.4 16.9 128.45 16.85 128.45 16.8 128.4 16.7 128.25 16.85 128.25 16.9 128.15 17.05 127.95 17.25 127.9 17.25 127.9 17.1 127.9 17.0 128.0 16.7 Q128.0 16.45 128.15 16.4 L128.2 16.45 128.3 16.4 Q128.35 16.6 128.4 16.65 L128.45 16.75 128.55 16.65 128.45 16.45 128.5 16.45 128.65 16.35 128.8 16.25 128.8 16.4 128.85 16.4 128.8 16.15 128.85 16.15 128.95 15.95 Q129.0 15.85 129.0 15.7 L128.9 15.4 128.75 15.25 128.65 15.2 128.6 15.15 128.6 15.0 128.6 14.8 128.55 14.75 128.4 14.75 128.45 14.9 128.45 15.05 128.45 15.0 128.25 14.9 128.25 14.8 128.3 14.7 Q128.35 14.65 128.45 14.65 L128.55 14.65 128.7 14.7 128.8 14.7 128.9 14.75 128.95 14.85 128.85 14.85 128.8 14.9 128.8 14.9 128.7 14.95 128.7 15.05 128.75 15.15 128.8 15.05 128.85 15.1 128.85 15.2 128.95 15.3 128.95 15.1 129.0 15.05 M129.75 19.2 L129.9 19.3 Q130.0 19.3 130.0 19.4 L130.0 19.65 Q130.0 19.75 130.15 19.8 L130.2 19.85 Q130.3 19.85 130.3 19.9 130.35 19.95 130.4 20.05 L130.4 20.35 Q130.5 20.9 130.4 20.9 130.35 20.9 130.25 20.85 L130.2 20.75 130.15 20.55 130.05 20.35 Q130.0 20.1 129.9 20.0 129.8 19.9 129.7 19.9 129.55 19.9 129.55 20.15 129.5 20.35 129.4 20.4 L129.25 20.45 129.15 20.45 129.1 20.5 Q129.05 20.55 129.05 20.6 L129.15 20.9 Q129.25 20.95 129.25 21.05 L129.25 21.25 129.2 21.4 129.2 21.55 129.25 21.65 129.2 21.7 129.0 21.6 128.9 21.5 Q128.8 21.45 128.75 21.45 L128.7 21.5 128.65 21.5 128.6 21.55 128.6 21.5 Q128.6 21.4 128.7 21.25 L128.8 21.05 128.7 20.85 128.7 20.8 128.65 20.75 Q128.5 20.75 128.35 20.95 L128.3 21.0 128.25 21.0 128.2 20.9 128.2 20.65 128.2 20.6 128.25 20.4 128.3 20.2 Q128.35 20.1 128.4 20.05 L128.55 19.95 128.85 19.85 129.0 19.9 129.1 19.9 129.25 19.8 Q129.35 19.75 129.35 19.65 129.45 19.35 129.45 19.25 L129.35 19.05 129.25 18.85 129.15 18.75 129.1 18.65 129.1 18.55 128.95 18.5 Q128.75 18.5 128.75 18.45 128.75 18.35 128.75 18.25 128.8 18.25 128.85 18.25 L129.1 18.25 129.1 18.3 129.15 18.3 129.35 18.45 129.4 18.6 129.45 18.75 129.55 18.85 129.6 18.9 129.7 19.0 129.75 19.2 M128.25 21.0 L128.25 21.1 128.15 21.05 128.15 20.95 128.25 21.0 M129.4 22.2 L129.4 21.95 129.45 21.9 129.5 22.0 129.45 22.35 Q129.4 22.35 129.4 22.25 L129.4 22.2" fill="#2a2a27" fill-rule="evenodd" stroke="none"/>
  </g>
</svg>
