<?xml version="1.0" encoding="UTF-8" standalone="no"?>
<svg xmlns:xlink="http://www.w3.org/1999/xlink" height="11.4px" width="13.25px" xmlns="http://www.w3.org/2000/svg">
  <g transform="matrix(1.0, 0.0, 0.0, 1.0, -121.7, -15.5)">
    <path d="M130.4 19.85 L130.45 19.85 130.6 19.65 130.75 19.65 130.85 19.65 Q130.9 19.65 130.9 19.75 L130.9 19.85 130.85 20.0 130.85 20.05 130.8 20.2 130.75 20.35 130.7 20.35 130.55 20.45 130.55 20.35 130.6 20.2 Q130.65 20.2 130.65 20.1 130.65 20.0 130.4 19.85 M130.8 20.35 L130.95 20.3 Q131.0 20.25 131.1 20.25 L131.15 20.2 131.6 20.15 131.6 20.2 131.65 20.2 131.55 20.35 Q131.5 20.45 131.55 20.55 L131.75 20.55 132.0 20.6 132.15 20.8 Q132.2 20.9 132.35 20.9 L132.2 21.1 132.1 21.25 Q131.9 21.35 131.85 21.4 L131.8 21.45 Q131.8 21.6 131.85 21.65 L131.9 21.65 Q131.75 21.7 131.55 21.85 L131.2 22.1 130.95 22.2 Q130.7 22.3 130.75 22.55 130.75 22.65 130.8 22.75 130.9 22.8 130.95 22.8 L131.25 22.7 131.45 22.75 131.55 22.85 Q131.7 22.95 131.8 22.95 L132.1 22.85 132.1 22.9 Q132.0 23.1 131.6 23.15 131.25 23.15 131.2 23.4 L131.2 23.45 Q131.05 23.45 130.95 23.3 130.85 23.2 130.7 23.2 L130.7 23.25 130.0 23.6 129.6 23.7 Q129.4 23.8 129.45 24.0 L129.4 24.1 129.3 24.05 129.2 24.05 129.15 24.0 129.05 23.9 129.1 23.85 129.1 23.8 129.05 23.7 128.95 23.6 Q129.3 23.3 129.45 23.3 L129.6 23.35 129.75 23.35 129.85 23.25 Q129.9 23.15 129.95 23.15 L130.1 23.25 130.3 23.3 130.45 23.2 130.55 23.0 130.5 22.9 130.45 22.8 130.55 22.65 130.65 22.5 130.65 22.4 130.6 22.25 130.6 22.0 130.6 21.95 130.75 21.85 130.95 21.7 131.15 21.65 131.35 21.6 131.4 21.6 Q131.55 21.55 131.5 21.35 131.45 21.2 131.55 21.2 L131.6 21.2 131.65 21.2 131.75 21.1 131.75 20.85 Q131.7 20.55 131.4 20.55 L131.35 20.6 131.25 20.65 131.2 20.7 Q131.1 20.75 131.0 20.75 L130.95 20.8 130.95 20.65 131.0 20.6 Q130.95 20.45 130.9 20.4 L130.8 20.35 M132.0 21.6 L132.5 21.35 132.6 21.35 132.75 21.45 Q132.85 21.55 132.9 21.55 L132.95 21.55 133.0 21.6 132.95 21.6 132.95 21.65 133.05 21.75 133.1 21.75 132.95 21.9 Q132.9 22.0 132.75 22.0 L132.75 22.05 Q132.55 22.15 132.4 22.3 L132.4 22.35 132.25 22.5 132.25 22.55 132.25 22.4 132.3 22.3 132.3 22.1 132.3 22.05 132.45 21.85 Q132.55 21.8 132.65 21.8 132.8 21.75 132.85 21.65 132.8 21.55 132.7 21.55 L132.3 21.55 132.0 21.6 M133.55 22.25 L133.95 22.2 Q134.1 22.3 134.45 22.35 L134.9 22.35 134.9 22.4 134.95 22.4 134.95 22.5 Q134.7 22.55 134.55 22.7 134.45 22.85 134.3 22.85 L133.95 22.85 Q133.8 22.85 133.65 23.0 133.5 23.15 133.3 23.2 133.15 23.2 132.85 23.4 132.35 23.7 132.2 23.85 132.3 24.0 132.35 23.95 L132.35 24.0 132.4 24.0 132.3 24.1 132.2 24.15 Q132.1 24.25 132.0 24.25 L132.05 24.4 132.05 24.5 Q131.85 24.5 131.75 24.65 L131.45 24.9 131.75 25.0 131.85 24.9 131.9 24.85 132.1 24.95 132.3 25.1 132.0 25.35 Q131.95 25.35 131.9 25.4 L131.8 25.4 131.7 25.4 Q131.55 25.4 131.4 25.6 131.3 25.75 131.25 25.9 131.2 26.05 131.1 26.2 131.0 26.4 130.9 26.45 130.8 26.45 130.7 26.25 L130.65 25.95 130.5 25.95 Q130.4 26.15 130.45 26.3 130.55 26.4 130.4 26.55 L130.25 26.6 130.15 26.7 129.95 26.9 Q129.9 26.9 129.75 26.75 L129.6 26.5 Q129.55 26.35 129.4 26.2 L129.3 26.1 129.25 26.15 129.05 26.2 128.95 26.15 128.85 26.15 128.75 26.15 128.65 26.15 128.6 26.2 128.5 26.2 128.45 26.25 128.4 26.25 128.35 26.2 128.25 26.2 128.1 26.25 Q128.1 26.25 128.1 26.4 128.05 26.4 128.0 26.35 L127.9 26.35 127.85 26.35 127.8 26.35 127.65 26.3 127.45 26.3 127.35 26.3 127.15 26.4 126.9 26.45 Q126.8 26.45 126.7 26.4 126.6 26.25 126.45 26.25 L126.25 26.15 126.0 26.15 125.8 26.2 125.3 25.85 125.2 25.85 Q125.05 25.85 124.85 25.8 L124.55 25.5 124.3 25.25 Q124.25 25.15 123.95 25.05 L123.6 24.8 123.6 24.75 123.65 24.65 123.65 24.6 123.55 24.4 123.45 24.3 123.4 24.25 123.2 24.05 123.0 23.85 122.95 23.85 122.9 23.7 122.7 23.55 Q122.4 23.25 122.4 23.15 L122.65 23.1 Q122.45 22.85 122.45 22.75 L122.6 22.7 122.8 22.75 Q122.7 22.6 122.35 22.0 L122.15 21.65 122.0 21.35 121.9 21.15 Q121.9 21.05 121.95 21.0 122.0 20.95 122.0 20.8 L121.9 20.5 121.75 20.1 121.7 20.05 121.75 20.0 Q122.0 20.0 122.05 19.8 122.1 19.55 122.25 19.55 122.45 19.5 122.6 19.65 L122.8 19.85 122.95 19.85 122.95 19.6 Q122.95 19.45 123.05 19.4 L122.95 19.0 Q122.9 18.65 123.1 18.65 L123.2 18.7 123.3 18.7 123.4 18.65 Q123.5 18.55 123.55 18.55 123.7 18.55 123.8 18.7 L124.1 19.0 124.15 18.7 Q124.15 18.5 124.25 18.5 124.35 18.5 124.5 18.95 L124.6 19.25 124.8 19.2 124.9 19.25 124.95 19.25 125.0 19.2 125.0 19.1 Q125.0 19.05 125.0 19.05 L125.05 18.95 125.0 18.85 125.0 18.65 125.0 18.35 125.0 18.25 125.05 18.3 125.1 18.3 125.15 18.25 125.25 18.25 Q125.25 18.25 125.3 18.25 L125.35 18.3 125.4 18.25 125.45 18.2 125.5 18.2 125.55 18.25 125.65 18.1 125.7 17.95 Q125.7 17.9 125.75 17.95 L125.8 17.85 125.85 17.65 126.05 17.75 126.1 17.75 126.15 17.7 126.5 17.85 126.5 17.7 126.5 17.55 126.45 17.55 126.45 17.3 126.45 17.0 126.55 16.95 126.55 16.85 126.6 16.7 126.65 16.55 126.65 15.5 Q126.7 15.5 126.75 15.65 L126.85 16.05 Q126.9 16.3 127.0 16.5 L127.05 16.6 Q127.05 16.65 127.05 16.7 L127.1 16.8 127.15 16.75 Q127.2 16.75 127.25 16.85 L127.3 17.0 Q127.4 17.0 127.45 16.9 L127.45 16.6 127.45 16.45 127.45 16.35 127.5 16.3 127.55 16.3 127.55 16.35 127.6 16.4 127.6 16.5 127.65 16.5 127.65 16.45 127.7 16.5 127.75 16.55 127.7 16.65 127.7 16.8 127.75 16.8 127.8 16.85 127.75 17.05 127.8 17.2 127.9 17.3 127.9 17.55 Q127.9 17.6 127.95 17.65 L128.0 17.75 Q128.05 17.95 128.1 17.95 L128.25 17.85 128.35 17.9 128.45 18.0 128.6 17.9 Q128.7 17.9 128.75 17.95 L128.85 18.05 128.95 18.1 Q129.05 18.15 129.05 18.3 L129.05 18.6 129.1 18.7 129.15 18.85 Q129.3 18.9 129.3 19.1 L129.3 19.25 129.25 19.45 129.3 19.5 129.35 19.6 129.4 19.7 129.45 19.65 129.5 19.65 129.5 19.9 129.45 20.15 129.45 20.25 129.45 20.3 129.4 20.45 129.25 20.5 129.15 20.6 129.15 20.65 Q129.1 20.7 129.15 20.8 129.15 20.85 129.25 20.95 129.35 21.0 129.35 21.1 L129.3 21.2 Q129.25 21.3 129.3 21.35 L129.35 21.45 129.45 21.65 129.4 21.7 129.4 21.8 129.45 21.85 129.45 21.9 129.5 21.95 Q129.45 21.95 129.45 22.0 L129.4 22.0 129.3 22.05 129.25 22.0 129.2 21.85 Q129.1 21.7 129.05 21.7 L128.95 21.75 128.95 21.8 Q128.9 21.85 128.9 21.95 L128.9 22.05 128.85 22.1 128.8 22.1 128.7 22.2 Q128.65 22.2 128.65 22.25 128.55 22.3 128.55 22.4 L128.55 22.65 128.5 22.7 128.4 22.75 128.3 22.85 128.2 22.85 128.15 22.8 128.05 22.85 127.95 22.95 127.9 22.95 Q127.95 22.85 128.0 22.85 L128.0 22.8 Q128.0 22.75 127.95 22.7 127.85 22.65 127.85 22.4 L127.95 22.5 128.05 22.5 128.1 22.65 Q128.2 22.75 128.25 22.75 L128.3 22.65 128.35 22.55 128.35 22.45 128.3 22.4 128.35 22.3 128.45 22.3 128.5 22.25 128.6 22.15 128.7 22.05 128.75 22.0 128.8 21.8 128.8 21.7 128.75 21.6 Q128.85 21.55 128.9 21.35 L128.9 21.05 Q128.9 21.0 128.85 20.95 L128.7 20.9 Q128.75 20.85 128.7 20.75 128.65 20.7 128.6 20.65 L128.4 20.65 128.3 20.6 128.25 20.7 128.2 20.85 128.3 20.95 128.35 21.0 Q128.35 21.15 128.25 21.25 L128.2 21.25 Q128.15 21.35 128.0 21.35 127.95 21.4 127.95 21.6 128.0 21.75 127.9 21.8 L127.85 21.8 127.8 21.8 127.8 21.65 Q127.8 21.55 127.7 21.55 L127.65 21.55 127.6 21.55 127.55 21.5 127.55 21.4 127.55 21.3 127.7 21.35 Q127.75 21.4 127.8 21.4 L127.9 21.3 127.95 21.1 Q127.95 21.0 127.9 21.0 L127.8 21.0 Q127.75 21.0 127.75 20.9 L127.7 20.85 127.6 20.8 127.55 20.75 Q127.55 20.7 127.6 20.6 L127.6 20.5 Q127.65 20.7 127.75 20.75 L127.85 20.75 127.9 20.75 128.0 20.7 128.05 20.5 128.05 20.4 127.9 20.35 127.85 20.3 127.85 20.25 Q127.85 20.15 127.7 20.1 L127.65 20.0 127.65 19.9 127.7 19.85 127.6 19.75 127.55 19.65 127.55 19.5 127.6 19.5 127.65 19.45 127.7 19.5 127.7 19.55 127.75 19.65 127.8 19.65 127.9 19.45 127.95 19.5 127.95 19.55 128.0 19.6 127.95 19.7 127.95 19.75 128.05 19.85 128.15 19.9 128.2 19.85 128.2 19.65 128.15 19.55 Q128.15 19.5 128.15 19.5 L128.15 19.45 128.3 19.65 Q128.4 19.85 128.5 19.85 L128.65 19.75 Q128.75 19.75 128.75 19.7 128.85 19.65 128.85 19.5 L128.9 19.35 128.8 19.15 128.65 18.95 128.7 18.8 128.7 18.65 128.5 18.45 Q128.35 18.3 128.25 18.3 128.25 18.3 128.15 18.35 L128.0 18.45 127.95 18.25 Q127.9 18.15 127.8 18.15 L127.65 18.15 Q127.6 18.1 127.6 18.0 L127.6 17.75 127.55 17.55 Q127.4 17.4 127.35 17.45 L127.3 17.45 127.25 17.35 127.2 17.25 Q127.15 17.15 127.1 17.15 L127.05 17.1 126.7 16.95 126.65 17.0 126.65 17.25 126.75 17.35 126.8 17.4 126.75 17.55 Q126.7 17.65 126.7 17.7 L126.8 17.9 126.9 18.1 126.85 18.35 126.75 18.45 Q126.65 18.5 126.5 18.4 L126.35 18.3 126.3 18.35 126.15 18.45 126.05 18.45 126.05 18.4 125.9 18.55 Q125.8 18.6 125.8 18.7 125.75 18.7 125.75 18.7 L125.8 18.9 125.85 19.15 125.95 19.35 126.0 19.4 126.0 19.55 125.85 19.65 125.7 19.55 125.6 19.45 125.55 19.5 125.45 19.55 125.35 19.5 125.3 19.5 125.25 19.7 125.25 19.85 125.3 19.9 125.35 20.0 125.4 20.35 125.4 20.4 Q125.3 20.4 125.3 20.25 L125.15 20.1 Q124.9 20.1 124.85 20.0 124.85 19.95 124.9 19.75 124.85 19.6 124.75 19.6 L124.6 19.55 124.55 19.45 124.55 19.4 124.55 19.3 124.5 18.95 Q124.45 18.9 124.35 18.9 124.25 18.95 124.3 19.3 L124.3 19.35 Q124.25 19.35 124.25 19.4 123.8 18.85 123.6 18.9 123.5 18.9 123.45 19.0 123.35 19.1 123.4 19.25 123.4 19.55 123.5 19.7 L123.55 19.8 123.6 19.85 123.85 20.1 124.0 20.25 Q123.95 20.35 123.8 20.4 123.65 20.4 123.7 20.6 L123.7 20.8 123.7 20.75 123.65 20.7 123.6 20.7 123.55 20.4 123.55 20.2 Q123.5 20.0 123.4 19.9 L123.35 19.85 Q123.2 19.75 123.0 19.8 L122.95 19.85 122.95 19.9 Q122.9 20.05 122.8 20.05 L122.4 19.75 Q122.25 19.75 122.15 19.85 122.05 20.0 122.05 20.1 L122.15 20.35 122.3 20.65 122.35 20.7 122.5 21.15 Q122.6 21.3 122.7 21.35 L122.8 21.45 123.1 21.45 123.15 21.45 123.4 21.45 123.6 21.3 Q123.7 21.15 123.85 21.2 L123.9 21.25 123.85 21.0 123.9 21.05 123.95 21.05 124.0 21.05 124.05 21.05 124.15 21.2 Q124.2 21.35 124.35 21.45 L124.4 21.5 124.65 21.35 Q124.8 21.3 124.85 21.25 L124.85 21.2 124.95 21.15 125.2 21.2 Q125.05 21.2 125.05 21.3 L125.0 21.45 Q124.95 21.5 124.95 21.55 L124.95 21.65 124.9 21.75 124.85 21.9 124.85 21.95 124.6 21.9 Q124.5 21.9 124.3 21.8 L124.3 21.75 Q124.15 21.6 124.0 21.65 123.7 21.65 123.7 21.9 L123.7 21.95 Q123.75 22.3 124.0 22.5 124.2 22.65 124.35 22.65 L124.45 22.7 124.55 22.65 124.7 22.5 124.8 22.35 125.0 22.25 125.1 22.45 125.05 22.55 125.05 22.75 124.95 22.85 124.75 22.85 124.35 22.8 124.3 22.8 Q124.25 22.8 124.15 22.75 L124.0 22.6 123.9 22.5 123.75 22.3 123.55 22.1 123.5 22.1 123.45 22.1 Q123.35 22.05 123.3 21.9 L123.25 21.75 Q123.15 21.7 123.05 21.7 L122.8 21.6 122.5 21.35 122.35 21.4 122.35 21.55 Q122.35 21.7 122.55 21.95 L122.75 22.15 Q122.7 22.45 122.85 22.65 123.1 22.9 123.45 22.95 L123.45 23.0 Q123.65 23.05 123.75 23.35 L123.3 23.5 Q123.3 23.6 123.55 23.8 L123.75 24.0 123.85 23.95 123.9 23.9 124.0 23.85 124.75 24.0 125.1 23.9 125.25 23.8 Q125.35 23.8 125.4 23.9 L125.5 24.15 Q125.55 24.35 125.65 24.4 L125.65 24.45 125.75 24.45 Q125.85 24.45 125.85 24.45 L126.05 24.45 Q126.35 24.45 126.4 24.35 L126.4 24.1 126.4 23.95 126.5 23.95 126.6 23.8 Q126.65 23.6 126.75 23.6 L126.85 23.6 126.95 23.7 127.05 23.65 127.1 23.7 127.15 23.75 Q127.4 24.1 127.65 24.15 L127.65 23.9 Q127.7 23.75 127.8 23.75 L127.85 23.75 127.95 23.75 128.0 23.65 128.05 23.6 Q128.15 23.6 128.2 23.65 L128.3 23.8 128.25 23.9 128.25 24.05 128.3 24.15 128.45 24.3 128.5 24.4 128.6 24.5 Q128.65 24.9 129.15 24.85 129.3 24.85 129.35 24.75 L129.5 24.45 129.75 24.35 129.9 24.25 129.95 24.25 130.5 24.25 130.6 24.25 Q130.95 24.2 131.15 23.9 L131.3 23.75 131.45 23.6 131.8 23.5 131.9 23.45 132.25 23.3 132.5 23.25 132.8 23.25 Q133.0 23.2 133.15 23.05 133.3 22.85 133.35 22.6 133.35 22.5 133.45 22.35 L133.55 22.25 M130.25 21.0 L130.25 20.9 Q130.25 20.75 130.3 20.7 L130.5 20.55 Q130.45 20.65 130.45 20.75 130.4 21.0 130.45 21.45 L130.5 21.85 130.55 21.9 130.5 21.9 130.4 22.0 130.25 22.1 130.2 22.05 130.1 22.1 130.05 22.1 Q130.0 22.1 130.05 22.1 L130.05 22.0 130.05 21.85 130.0 21.7 130.0 21.55 130.1 21.4 130.05 21.35 130.05 21.2 130.15 21.15 130.15 21.1 130.25 21.0 M126.5 19.5 L126.6 19.65 126.65 19.8 126.65 20.1 126.65 20.2 126.7 20.2 Q126.8 20.25 126.85 20.3 L126.85 20.4 126.75 20.35 Q126.65 20.4 126.55 20.5 L126.5 20.55 126.35 20.7 Q126.3 20.7 126.25 20.65 L126.15 20.5 125.95 20.3 125.9 20.25 125.95 20.15 126.0 20.05 126.1 20.1 126.15 20.15 126.3 20.2 126.35 20.2 126.4 20.2 126.45 20.1 126.5 19.9 126.5 19.55 126.5 19.5 M127.45 19.0 Q127.5 18.9 127.6 18.9 L127.6 18.95 Q127.65 19.05 127.7 19.1 L127.65 19.1 127.5 19.15 127.3 19.25 127.4 19.15 Q127.4 19.05 127.45 19.0 M126.55 21.5 L126.55 21.55 126.6 21.6 126.65 21.7 126.65 21.85 126.65 22.1 126.55 22.05 126.55 22.0 126.5 21.9 126.45 21.75 126.5 21.55 126.55 21.5 M125.6 20.65 L125.7 20.8 125.55 21.05 125.4 21.25 125.3 21.25 125.2 21.2 125.25 21.2 Q125.4 21.2 125.5 21.1 L125.6 20.9 125.6 20.65 M126.4 22.85 Q126.25 22.9 126.15 23.05 L126.05 23.2 126.0 23.45 125.9 23.4 125.85 23.3 125.85 23.25 Q125.85 23.05 126.0 22.9 L126.1 22.85 126.2 22.8 Q126.3 22.8 126.4 22.85 M127.05 24.45 Q126.9 24.65 126.95 24.8 126.95 24.95 127.05 25.05 127.15 25.2 127.2 25.2 L127.3 25.1 127.35 25.0 127.35 24.95 127.3 24.85 127.25 24.8 Q127.25 24.65 127.35 24.4 127.35 24.35 127.4 24.3 127.2 24.3 127.05 24.45 M128.0 24.65 L128.05 24.7 128.1 24.85 128.15 24.85 128.3 24.75 128.35 24.5 128.35 24.45 128.3 24.35 128.25 24.25 128.25 24.35 Q128.2 24.5 128.15 24.55 L128.0 24.45 Q127.95 24.45 127.95 24.6 L128.0 24.65 M126.85 25.95 L126.9 25.85 126.9 25.8 126.8 25.75 Q126.75 25.7 126.75 25.75 126.7 25.75 126.7 25.9 L126.7 26.1 126.75 26.05 126.85 26.0 126.85 25.95 M127.95 25.15 Q127.9 25.25 127.9 25.35 L127.95 25.4 128.0 25.45 128.0 25.4 128.05 25.35 128.05 25.25 128.0 25.15 127.95 25.15 M126.15 25.05 L125.85 24.95 Q125.7 25.0 125.55 25.4 L125.6 25.6 Q125.7 25.7 125.75 25.7 L125.8 25.75 125.85 25.75 125.95 25.7 126.05 25.6 125.95 25.55 125.95 25.45 126.0 25.3 Q126.05 25.2 126.15 25.2 L126.3 25.1 126.3 25.05 126.2 25.05 Q126.2 25.0 126.15 25.05" fill="#722c28" fill-rule="evenodd" stroke="none"/>
    <path d="M130.75 20.35 L130.75 20.4 130.8 20.35 130.9 20.4 Q130.95 20.45 131.0 20.6 L130.95 20.65 Q130.75 20.7 130.7 20.55 L130.65 20.7 Q130.6 20.85 130.6 21.0 130.65 21.35 130.8 21.45 130.9 21.35 131.05 21.25 131.1 21.25 131.2 21.25 131.5 21.15 131.45 20.8 L131.45 20.65 131.25 20.65 131.35 20.6 131.4 20.55 Q131.7 20.55 131.75 20.85 L131.75 21.1 131.65 21.2 131.6 21.2 131.55 21.2 Q131.45 21.2 131.5 21.35 131.55 21.55 131.4 21.6 L131.35 21.6 131.15 21.65 130.95 21.7 130.75 21.85 130.6 21.95 130.6 22.0 130.6 22.25 130.65 22.4 130.65 22.5 130.55 22.65 130.45 22.8 130.5 22.9 130.55 23.0 130.45 23.2 130.3 23.3 130.1 23.25 129.95 23.15 Q129.9 23.15 129.85 23.25 L129.75 23.35 129.6 23.35 129.45 23.3 Q129.3 23.3 128.95 23.6 L129.05 23.7 129.1 23.8 129.1 23.85 129.05 23.9 129.15 24.0 129.2 24.05 129.3 24.05 129.4 24.1 129.45 24.0 Q129.4 23.8 129.6 23.7 L130.0 23.6 130.7 23.25 130.7 23.2 Q130.85 23.2 130.95 23.3 131.05 23.45 131.2 23.45 L131.2 23.4 Q131.25 23.15 131.6 23.15 132.0 23.1 132.1 22.9 L132.2 23.05 132.3 23.05 132.4 23.0 132.5 22.85 132.5 22.7 132.35 22.7 132.2 22.7 Q132.05 22.75 132.1 22.85 L131.8 22.95 Q131.7 22.95 131.55 22.85 L131.45 22.75 131.25 22.7 130.95 22.8 Q130.9 22.8 130.8 22.75 130.75 22.65 130.75 22.55 130.7 22.3 130.95 22.2 L131.2 22.1 131.55 21.85 Q131.75 21.7 131.9 21.65 L131.95 21.65 132.0 21.6 132.3 21.55 132.7 21.55 Q132.8 21.55 132.85 21.65 132.8 21.75 132.65 21.8 132.55 21.8 132.45 21.85 L132.45 21.8 132.35 21.8 131.6 22.2 Q131.5 22.25 131.5 22.45 L131.45 22.6 131.5 22.6 Q131.6 22.55 131.7 22.4 131.75 22.25 131.85 22.2 L131.9 22.2 132.25 22.1 132.3 22.1 132.3 22.3 132.25 22.4 132.25 22.55 132.25 22.5 132.4 22.35 132.4 22.3 Q132.55 22.15 132.75 22.05 L133.0 22.05 133.1 22.1 133.05 22.1 133.4 22.25 133.55 22.25 133.45 22.35 Q133.35 22.5 133.35 22.6 133.3 22.85 133.15 23.05 133.0 23.2 132.8 23.25 L132.5 23.25 132.25 23.3 131.9 23.45 131.8 23.5 131.45 23.6 131.3 23.75 131.15 23.9 Q130.95 24.2 130.6 24.25 L130.5 24.25 129.95 24.25 129.9 24.25 129.75 24.35 129.5 24.45 129.35 24.75 Q129.3 24.85 129.15 24.85 128.65 24.9 128.6 24.5 L128.5 24.4 128.45 24.3 128.3 24.15 128.25 24.05 128.25 23.9 128.3 23.8 128.2 23.65 Q128.15 23.6 128.05 23.6 L128.0 23.65 127.95 23.75 127.85 23.75 127.8 23.75 Q127.7 23.75 127.65 23.9 L127.65 24.15 Q127.4 24.1 127.15 23.75 L127.1 23.7 127.05 23.65 126.95 23.7 126.85 23.6 126.75 23.6 Q126.65 23.6 126.6 23.8 L126.5 23.95 126.4 23.95 126.4 24.1 126.4 24.35 Q126.35 24.45 126.05 24.45 L125.85 24.45 Q125.85 24.45 125.75 24.45 L125.65 24.45 125.65 24.4 Q125.55 24.35 125.5 24.15 L125.4 23.9 Q125.35 23.8 125.25 23.8 L125.1 23.9 124.75 24.0 124.0 23.85 123.9 23.9 123.85 23.95 123.75 24.0 123.55 23.8 Q123.3 23.6 123.3 23.5 L123.75 23.35 Q123.65 23.05 123.45 23.0 L123.45 22.95 Q123.1 22.9 122.85 22.65 122.7 22.45 122.75 22.15 L122.55 21.95 Q122.35 21.7 122.35 21.55 L122.35 21.4 122.5 21.35 122.8 21.6 123.05 21.7 Q123.15 21.7 123.25 21.75 L123.3 21.9 Q123.35 22.05 123.45 22.1 L123.5 22.1 123.55 22.1 123.75 22.3 123.9 22.5 123.55 22.4 Q123.45 22.4 123.4 22.35 L123.2 22.2 123.15 22.15 123.15 22.3 Q123.2 22.65 123.6 22.95 L123.75 23.0 Q124.0 23.2 124.1 23.2 L124.15 23.2 124.5 23.2 124.7 23.15 124.55 23.1 124.3 22.95 124.25 22.9 124.15 22.75 Q124.25 22.8 124.3 22.8 L124.35 22.8 124.75 22.85 124.95 22.85 125.05 22.75 125.05 22.55 125.1 22.45 125.0 22.25 124.8 22.35 124.7 22.5 124.55 22.65 124.45 22.7 124.35 22.65 Q124.2 22.65 124.0 22.5 123.75 22.3 123.7 21.95 L123.7 21.9 Q123.7 21.65 124.0 21.65 124.15 21.6 124.3 21.75 L124.3 21.8 Q124.5 21.9 124.6 21.9 L124.85 21.95 124.85 21.9 124.9 21.75 124.95 21.65 124.95 21.55 Q124.95 21.5 125.0 21.45 L125.05 21.3 Q125.05 21.2 125.2 21.2 L124.95 21.15 124.85 21.2 124.85 21.25 Q124.8 21.3 124.65 21.35 L124.4 21.5 124.35 21.45 Q124.2 21.35 124.15 21.2 L124.05 21.05 124.0 21.05 123.95 21.05 123.9 21.05 123.85 21.0 123.9 21.25 123.85 21.2 Q123.7 21.15 123.6 21.3 L123.4 21.45 123.15 21.45 123.1 21.45 122.8 21.45 122.7 21.35 Q122.6 21.3 122.5 21.15 L122.35 20.7 122.3 20.65 122.15 20.35 122.05 20.1 Q122.05 20.0 122.15 19.85 122.25 19.75 122.4 19.75 L122.8 20.05 Q122.9 20.05 122.95 19.9 L122.95 19.85 123.0 19.8 Q123.2 19.75 123.35 19.85 L123.4 19.9 Q123.5 20.0 123.55 20.2 L123.55 20.4 123.6 20.7 123.65 20.7 123.7 20.75 123.7 20.8 123.7 20.6 Q123.65 20.4 123.8 20.4 123.95 20.35 124.0 20.25 L123.85 20.1 123.6 19.85 123.55 19.8 123.5 19.7 Q123.4 19.55 123.4 19.25 123.35 19.1 123.45 19.0 123.5 18.9 123.6 18.9 123.8 18.85 124.25 19.4 124.25 19.35 124.3 19.35 L124.3 19.45 124.3 19.5 124.45 19.75 124.5 19.8 124.5 19.65 124.55 19.45 124.6 19.55 124.75 19.6 Q124.85 19.6 124.9 19.75 124.85 19.95 124.85 20.0 124.9 20.1 125.15 20.1 L125.3 20.25 Q125.3 20.4 125.4 20.4 L125.4 20.35 125.35 20.0 125.3 19.9 125.25 19.85 125.25 19.7 125.3 19.5 125.35 19.5 125.45 19.55 125.55 19.5 125.6 19.45 125.7 19.55 125.85 19.65 126.0 19.55 126.0 19.4 125.95 19.35 125.85 19.15 125.8 18.9 125.75 18.7 Q125.75 18.7 125.8 18.7 125.8 18.6 125.9 18.55 L126.05 18.4 126.05 18.45 126.15 18.45 126.3 18.35 126.35 18.3 126.5 18.4 Q126.65 18.5 126.75 18.45 L126.85 18.35 126.9 18.1 126.8 17.9 126.7 17.7 Q126.7 17.65 126.75 17.55 L126.8 17.4 126.75 17.35 126.65 17.25 126.65 17.0 126.7 16.95 127.05 17.1 127.1 17.15 Q127.15 17.15 127.2 17.25 L127.25 17.35 127.3 17.45 127.35 17.45 Q127.4 17.4 127.55 17.55 L127.6 17.75 127.6 18.0 Q127.6 18.1 127.65 18.15 L127.8 18.15 Q127.9 18.15 127.95 18.25 L128.0 18.45 128.15 18.35 Q128.25 18.3 128.25 18.3 128.35 18.3 128.5 18.45 L128.7 18.65 128.7 18.8 128.65 18.95 128.8 19.15 128.9 19.35 128.85 19.5 Q128.85 19.65 128.75 19.7 128.75 19.75 128.65 19.75 L128.5 19.85 Q128.4 19.85 128.3 19.65 L128.15 19.45 128.15 19.5 Q128.15 19.5 128.15 19.55 L128.2 19.65 128.2 19.85 128.15 19.9 128.05 19.85 127.95 19.75 127.95 19.7 128.0 19.6 127.95 19.55 127.95 19.5 127.9 19.45 127.8 19.65 127.75 19.65 127.7 19.55 127.7 19.5 127.65 19.45 127.6 19.5 127.55 19.5 127.55 19.65 127.6 19.75 127.7 19.85 127.65 19.9 127.65 20.0 127.7 20.1 Q127.85 20.15 127.85 20.25 L127.85 20.3 127.9 20.35 128.05 20.4 128.05 20.5 128.0 20.7 127.9 20.75 127.85 20.75 127.75 20.75 Q127.65 20.7 127.6 20.5 L127.6 20.6 Q127.55 20.7 127.55 20.75 L127.6 20.8 127.7 20.85 127.75 20.9 Q127.75 21.0 127.8 21.0 L127.9 21.0 Q127.95 21.0 127.95 21.1 L127.9 21.3 127.8 21.4 Q127.75 21.4 127.7 21.35 L127.55 21.3 127.55 21.4 127.55 21.5 127.6 21.55 127.65 21.55 127.7 21.55 Q127.8 21.55 127.8 21.65 L127.8 21.8 127.85 21.8 127.9 21.8 Q128.0 21.75 127.95 21.6 127.95 21.4 128.0 21.35 128.15 21.35 128.2 21.25 L128.25 21.25 Q128.35 21.15 128.35 21.0 L128.3 20.95 128.2 20.85 128.25 20.7 128.3 20.6 128.4 20.65 128.6 20.65 Q128.65 20.7 128.7 20.75 128.75 20.85 128.7 20.9 L128.85 20.95 Q128.9 21.0 128.9 21.05 L128.9 21.35 Q128.85 21.55 128.75 21.6 L128.8 21.7 128.8 21.8 128.75 22.0 128.7 22.05 128.6 22.15 128.5 22.25 128.45 22.3 128.35 22.3 128.3 22.4 128.35 22.45 128.35 22.55 128.3 22.65 128.25 22.75 Q128.2 22.75 128.1 22.65 L128.05 22.5 127.95 22.5 127.85 22.4 Q127.85 22.65 127.95 22.7 128.0 22.75 128.0 22.8 L128.0 22.85 Q127.95 22.85 127.9 22.95 L127.95 22.95 128.05 22.85 128.15 22.8 128.2 22.85 128.3 22.85 128.4 22.75 128.5 22.7 128.55 22.65 128.55 22.4 Q128.55 22.3 128.65 22.25 128.65 22.2 128.7 22.2 L128.8 22.1 128.85 22.1 128.9 22.05 128.9 21.95 Q128.9 21.85 128.95 21.8 L128.95 21.75 129.05 21.7 Q129.1 21.7 129.2 21.85 L129.25 22.0 129.3 22.05 129.4 22.0 129.45 22.0 Q129.45 21.95 129.5 21.95 L129.45 21.9 129.45 21.85 129.4 21.8 129.4 21.7 129.45 21.65 129.35 21.45 129.3 21.35 Q129.25 21.3 129.3 21.2 L129.35 21.1 Q129.35 21.0 129.25 20.95 129.15 20.85 129.15 20.8 129.1 20.7 129.15 20.65 L129.15 20.6 129.25 20.5 129.4 20.45 129.35 20.5 129.4 20.55 129.45 20.6 129.5 20.65 129.4 20.85 129.45 20.85 129.5 20.85 Q129.5 20.9 129.5 20.85 L129.55 20.75 Q129.65 20.65 129.7 20.65 L129.8 20.7 129.85 20.65 129.9 20.75 Q130.0 20.85 130.05 20.85 L130.05 20.75 Q130.05 20.75 130.15 20.7 L130.2 20.7 130.25 20.7 130.3 20.65 130.35 20.5 130.4 20.45 130.45 20.25 130.3 20.15 130.2 20.05 130.4 19.85 Q130.65 20.0 130.65 20.1 130.65 20.2 130.6 20.2 L130.55 20.35 130.55 20.45 130.7 20.35 130.75 20.35 M130.25 21.0 L130.15 21.1 130.15 21.15 130.05 21.2 130.05 21.35 130.1 21.4 130.0 21.55 130.0 21.7 130.05 21.85 130.05 22.0 130.05 22.1 Q130.0 22.1 130.05 22.1 L130.1 22.1 130.2 22.05 130.25 22.1 130.4 22.0 130.5 21.9 130.55 21.9 130.5 21.85 130.45 21.45 Q130.4 21.0 130.45 20.75 130.45 20.65 130.5 20.55 L130.3 20.7 Q130.25 20.75 130.25 20.9 L130.25 21.0 M129.85 22.0 L129.75 22.0 129.8 22.2 129.8 22.65 129.85 22.75 Q129.95 22.75 129.95 22.8 L130.15 23.05 130.35 22.7 Q130.5 22.5 130.5 22.3 L130.45 22.2 130.35 22.15 Q130.3 22.15 130.25 22.25 L130.15 22.35 Q130.05 22.35 130.0 22.15 129.95 22.0 129.85 22.0 M129.75 21.1 L129.65 21.25 129.6 21.4 129.65 21.45 129.7 21.55 129.75 21.6 Q129.8 21.65 129.85 21.65 L129.9 21.5 129.9 21.35 Q129.9 21.3 129.8 21.2 L129.75 21.1 M129.65 22.8 L129.65 22.7 Q129.65 22.55 129.55 22.45 L129.55 22.4 129.5 22.35 129.5 22.4 Q129.5 22.6 129.4 22.65 L129.3 22.65 Q129.25 22.65 129.25 22.7 L129.15 22.8 129.15 23.0 129.4 23.1 129.5 23.1 129.65 22.95 129.65 22.8 M124.3 19.3 Q124.25 18.95 124.35 18.9 124.45 18.9 124.5 18.95 L124.55 19.3 124.55 19.4 124.45 19.3 124.3 19.25 124.3 19.3 M123.65 19.7 L123.7 19.7 Q123.8 19.85 123.9 19.8 123.95 19.8 124.1 19.65 L124.15 19.65 124.1 19.6 124.05 19.5 Q123.8 19.2 123.7 19.2 123.65 19.2 123.6 19.3 123.55 19.4 123.55 19.45 123.6 19.6 123.65 19.7 M127.15 17.7 L127.0 17.75 126.9 18.0 127.05 18.15 Q127.15 18.25 127.15 18.25 L127.25 18.15 127.3 18.2 127.35 18.25 127.4 18.25 127.45 18.25 127.4 18.25 127.4 18.2 127.35 18.1 127.35 17.9 127.3 17.7 127.15 17.7 M126.95 18.55 L126.8 18.45 126.4 18.7 126.1 18.85 Q125.95 19.0 126.0 19.15 L126.0 19.25 126.1 19.4 126.15 19.55 126.2 19.55 126.25 19.6 126.2 19.5 126.2 19.4 Q126.2 19.35 126.25 19.3 126.3 19.2 126.4 19.2 126.45 19.2 126.5 19.3 L126.55 19.35 126.55 19.4 126.7 19.55 126.65 19.4 126.65 19.3 126.85 19.25 Q127.0 19.25 127.1 19.15 127.15 19.0 127.2 19.0 L127.25 19.05 127.3 19.05 127.35 19.0 127.4 18.85 127.35 18.8 127.15 18.65 127.1 18.65 126.95 18.55 M127.45 19.0 Q127.4 19.05 127.4 19.15 L127.3 19.25 127.5 19.15 127.65 19.1 127.7 19.1 Q127.65 19.05 127.6 18.95 L127.6 18.9 Q127.5 18.9 127.45 19.0 M126.5 19.5 L126.5 19.55 126.5 19.9 126.45 20.1 126.4 20.2 126.35 20.2 126.3 20.2 126.15 20.15 126.1 20.1 126.0 20.05 125.95 20.15 125.9 20.25 125.95 20.3 126.15 20.5 126.25 20.65 Q126.3 20.7 126.35 20.7 L126.5 20.55 126.55 20.5 Q126.65 20.4 126.75 20.35 L126.85 20.4 126.85 20.3 Q126.8 20.25 126.7 20.2 L126.65 20.2 126.65 20.1 126.65 19.8 126.6 19.65 126.5 19.5 M127.2 20.25 L127.15 20.25 127.1 20.35 127.1 20.4 127.3 20.4 127.3 20.35 127.25 20.3 127.2 20.25 M128.05 22.05 Q128.0 22.05 128.05 22.1 L128.05 22.35 128.1 22.4 Q128.1 22.45 128.15 22.45 L128.15 22.35 128.2 22.25 128.15 22.15 128.15 22.1 128.05 22.05 M128.35 21.35 L128.35 21.55 128.3 21.6 128.3 21.7 Q128.35 21.9 128.4 21.9 L128.4 21.85 128.5 21.8 128.6 21.75 Q128.65 21.75 128.7 21.7 128.5 21.4 128.35 21.35 M128.5 19.1 L128.55 19.0 128.5 18.95 Q128.5 18.85 128.35 18.7 L128.35 18.65 128.25 18.8 128.05 18.8 Q127.95 18.85 127.95 19.0 L128.0 19.15 128.1 19.25 128.2 19.4 Q128.45 19.65 128.55 19.6 128.7 19.6 128.7 19.45 128.7 19.4 128.55 19.35 128.5 19.3 128.5 19.2 L128.5 19.1 M127.2 19.55 L127.1 19.6 Q127.05 19.65 127.1 19.75 L127.1 19.85 127.15 19.9 127.25 19.95 Q127.25 19.9 127.3 19.9 L127.25 19.8 127.2 19.7 127.2 19.55 M126.95 21.0 Q126.9 20.85 126.65 20.85 126.5 20.9 126.3 21.0 L126.15 21.1 Q126.05 21.2 126.05 21.35 L126.1 21.35 126.4 21.3 Q126.5 21.3 126.7 21.35 L127.0 21.45 Q127.15 21.45 127.15 21.25 L127.15 21.2 127.0 21.0 126.95 21.0 M125.95 20.95 L126.0 20.85 125.85 20.75 125.85 20.85 125.8 20.95 125.75 21.05 Q125.55 21.45 125.55 21.55 125.6 21.7 125.65 21.8 L125.7 21.8 125.85 21.85 125.95 21.75 125.9 21.6 125.85 21.4 125.85 21.2 125.9 21.1 125.95 20.95 M125.85 20.0 L125.9 20.0 125.95 19.9 125.95 19.85 125.8 19.9 125.7 19.95 125.65 20.0 125.75 20.05 125.8 20.05 125.85 20.05 125.85 20.0 M125.6 20.65 L125.6 20.9 125.5 21.1 Q125.4 21.2 125.25 21.2 L125.2 21.2 125.3 21.25 125.4 21.25 125.55 21.05 125.7 20.8 125.6 20.65 M126.55 21.5 L126.5 21.55 126.45 21.75 126.5 21.9 126.55 22.0 126.55 22.05 126.65 22.1 126.65 21.85 126.65 21.7 126.6 21.6 126.55 21.55 126.55 21.5 M126.85 22.8 Q126.8 22.6 126.7 22.5 L126.55 22.4 Q126.45 22.4 126.3 22.25 L126.35 22.3 126.4 22.45 126.45 22.65 126.45 22.85 126.45 23.15 126.55 23.45 126.75 23.2 126.85 22.95 126.85 22.8 M127.3 22.4 Q127.2 22.4 127.1 22.5 127.0 22.7 127.0 22.85 L127.05 22.95 127.15 23.0 Q127.3 23.1 127.3 23.15 127.35 23.3 127.35 23.4 127.4 23.6 127.55 23.6 L127.65 23.5 127.8 23.35 127.85 23.25 127.9 23.2 127.9 23.1 Q127.9 22.95 127.7 22.85 127.55 22.7 127.5 22.55 L127.5 22.45 127.55 22.35 127.45 22.25 127.4 22.3 127.3 22.4 M125.8 22.15 L125.55 22.2 125.4 22.15 125.35 22.05 125.35 21.9 125.25 21.8 125.15 21.7 125.1 21.95 125.1 22.3 125.3 22.4 125.4 22.55 Q125.45 22.65 125.5 22.65 L125.55 22.55 125.65 22.4 125.75 22.3 125.8 22.2 125.8 22.15 M126.4 22.85 Q126.3 22.8 126.2 22.8 L126.1 22.85 126.0 22.9 Q125.85 23.05 125.85 23.25 L125.85 23.3 125.9 23.4 126.0 23.45 126.05 23.2 126.15 23.05 Q126.25 22.9 126.4 22.85 M125.65 23.5 L125.6 23.4 125.55 23.35 125.5 23.25 125.5 23.15 125.55 23.1 125.55 23.0 Q125.55 22.9 125.45 22.85 L125.4 22.95 125.3 23.15 Q125.2 23.35 125.25 23.45 L125.25 23.6 125.35 23.65 125.4 23.7 125.45 23.75 125.65 23.9 Q125.75 24.0 125.8 24.0 L125.9 23.95 125.95 23.8 125.8 23.75 125.7 23.6 125.65 23.5 M127.05 24.45 Q127.2 24.3 127.4 24.3 127.35 24.35 127.35 24.4 127.25 24.65 127.25 24.8 L127.3 24.85 127.35 24.95 127.35 25.0 127.3 25.1 127.2 25.2 Q127.15 25.2 127.05 25.05 126.95 24.95 126.95 24.8 126.9 24.65 127.05 24.45 M128.9 23.4 Q128.95 23.3 128.9 23.1 128.9 23.0 128.75 22.9 L128.7 22.9 128.7 23.1 Q128.7 23.2 128.5 23.2 L128.4 23.3 Q128.3 23.4 128.35 23.45 L128.4 23.65 128.45 23.7 128.6 23.9 128.65 24.15 Q128.75 24.35 128.85 24.35 L128.9 24.25 128.95 24.2 128.85 24.15 Q128.8 24.1 128.8 24.0 L128.8 23.8 128.75 23.75 128.65 23.6 128.7 23.6 128.7 23.55 Q128.85 23.55 128.9 23.4 M128.8 22.6 L128.9 22.6 129.1 22.55 129.1 22.35 128.95 22.25 128.9 22.3 Q128.8 22.45 128.8 22.6 M128.0 24.65 L127.95 24.6 Q127.95 24.45 128.0 24.45 L128.15 24.55 Q128.2 24.5 128.25 24.35 L128.25 24.25 128.3 24.35 128.35 24.45 128.35 24.5 128.3 24.75 128.15 24.85 128.1 24.85 128.05 24.7 128.0 24.65 M124.85 20.65 L125.1 20.55 125.15 20.5 125.05 20.45 Q124.75 20.15 124.65 20.15 124.55 20.15 124.5 20.3 124.4 20.45 124.45 20.5 124.45 20.65 124.65 20.65 L124.85 20.65 M124.65 20.5 L124.6 20.45 Q124.6 20.4 124.65 20.4 L124.65 20.5 M122.85 20.4 Q122.8 20.4 122.6 20.3 L122.4 20.15 122.3 20.25 122.25 20.4 Q122.4 20.55 122.65 20.7 L122.85 20.8 123.05 20.85 123.15 20.75 123.25 20.5 Q123.3 20.45 123.4 20.45 L123.1 20.25 Q123.0 20.15 122.9 20.15 L122.85 20.4 M127.95 25.15 L128.0 25.15 128.05 25.25 128.05 25.35 128.0 25.4 128.0 25.45 127.95 25.4 127.9 25.35 Q127.9 25.25 127.95 25.15 M126.85 25.95 L126.85 26.0 126.75 26.05 126.7 26.1 126.7 25.9 Q126.7 25.75 126.75 25.75 126.75 25.7 126.8 25.75 L126.9 25.8 126.9 25.85 126.85 25.95 M126.15 25.05 Q126.2 25.0 126.2 25.05 L126.3 25.05 126.3 25.1 126.15 25.2 Q126.05 25.2 126.0 25.3 L125.95 25.45 125.95 25.55 126.05 25.6 125.95 25.7 125.85 25.75 125.8 25.75 125.75 25.7 Q125.7 25.7 125.6 25.6 L125.55 25.4 Q125.7 25.0 125.85 24.95 L126.15 25.05" fill="#b97814" fill-rule="evenodd" stroke="none"/>
    <path d="M129.85 20.65 L129.85 20.55 129.95 20.4 130.0 20.4 130.05 20.4 130.05 20.3 130.1 20.2 130.1 20.15 130.2 20.05 130.3 20.15 130.45 20.25 130.4 20.45 130.35 20.5 130.3 20.65 130.25 20.7 130.2 20.7 130.15 20.7 Q130.05 20.75 130.05 20.75 L130.05 20.85 Q130.0 20.85 129.9 20.75 L129.85 20.65 M131.25 20.65 L131.45 20.65 131.45 20.8 Q131.5 21.15 131.2 21.25 131.1 21.25 131.05 21.25 130.9 21.35 130.8 21.45 130.65 21.35 130.6 21.0 130.6 20.85 130.65 20.7 L130.7 20.55 Q130.75 20.7 130.95 20.65 L130.95 20.8 131.0 20.75 Q131.1 20.75 131.2 20.7 L131.25 20.65 M132.3 22.1 L132.25 22.1 131.9 22.2 131.85 22.2 Q131.75 22.25 131.7 22.4 131.6 22.55 131.5 22.6 L131.45 22.6 131.5 22.45 Q131.5 22.25 131.6 22.2 L132.35 21.8 132.45 21.8 132.45 21.85 132.3 22.05 132.3 22.1 M129.75 21.1 L129.8 21.2 Q129.9 21.3 129.9 21.35 L129.9 21.5 129.85 21.65 Q129.8 21.65 129.75 21.6 L129.7 21.55 129.65 21.45 129.6 21.4 129.65 21.25 129.75 21.1 M129.85 22.0 Q129.95 22.0 130.0 22.15 130.05 22.35 130.15 22.35 L130.25 22.25 Q130.3 22.15 130.35 22.15 L130.45 22.2 130.5 22.3 Q130.5 22.5 130.35 22.7 L130.15 23.05 129.95 22.8 Q129.95 22.75 129.85 22.75 L129.8 22.65 129.8 22.2 129.75 22.0 129.85 22.0 M132.1 22.85 Q132.05 22.75 132.2 22.7 L132.35 22.7 132.5 22.7 132.5 22.85 132.4 23.0 132.3 23.05 132.2 23.05 132.1 22.9 132.1 22.85 M129.65 22.8 L129.65 22.95 129.5 23.1 129.4 23.1 129.15 23.0 129.15 22.8 129.25 22.7 Q129.25 22.65 129.3 22.65 L129.4 22.65 Q129.5 22.6 129.5 22.4 L129.5 22.35 129.55 22.4 129.55 22.45 Q129.65 22.55 129.65 22.7 L129.65 22.8 M124.15 22.75 L124.25 22.9 124.3 22.95 124.55 23.1 124.7 23.15 124.5 23.2 124.15 23.2 124.1 23.2 Q124.0 23.2 123.75 23.0 L123.6 22.95 Q123.2 22.65 123.15 22.3 L123.15 22.15 123.2 22.2 123.4 22.35 Q123.45 22.4 123.55 22.4 L123.9 22.5 124.0 22.6 124.15 22.75 M124.3 19.3 L124.3 19.25 124.45 19.3 124.55 19.4 124.55 19.45 124.5 19.65 124.5 19.8 124.45 19.75 124.3 19.5 124.3 19.45 124.3 19.35 124.3 19.3 M123.65 19.7 Q123.6 19.6 123.55 19.45 123.55 19.4 123.6 19.3 123.65 19.2 123.7 19.2 123.8 19.2 124.05 19.5 L124.1 19.6 124.15 19.65 124.1 19.65 Q123.95 19.8 123.9 19.8 123.8 19.85 123.7 19.7 L123.65 19.7 M127.15 17.7 L127.3 17.7 127.35 17.9 127.35 18.1 127.4 18.2 127.4 18.25 127.45 18.25 127.4 18.25 127.35 18.25 127.3 18.2 127.25 18.15 127.15 18.25 Q127.15 18.25 127.05 18.15 L126.9 18.0 127.0 17.75 127.15 17.7 M126.95 18.55 L127.1 18.65 127.15 18.65 127.35 18.8 127.4 18.85 127.35 19.0 127.3 19.05 127.25 19.05 127.2 19.0 Q127.15 19.0 127.1 19.15 127.0 19.25 126.85 19.25 L126.65 19.3 126.65 19.4 126.7 19.55 126.55 19.4 126.55 19.35 126.5 19.3 Q126.45 19.2 126.4 19.2 126.3 19.2 126.25 19.3 126.2 19.35 126.2 19.4 L126.2 19.5 126.25 19.6 126.2 19.55 126.15 19.55 126.1 19.4 126.0 19.25 126.0 19.15 Q125.95 19.0 126.1 18.85 L126.4 18.7 126.8 18.45 126.95 18.55 M127.2 19.55 L127.2 19.7 127.25 19.8 127.3 19.9 Q127.25 19.9 127.25 19.95 L127.15 19.9 127.1 19.85 127.1 19.75 Q127.05 19.65 127.1 19.6 L127.2 19.55 M128.5 19.1 L128.5 19.2 Q128.5 19.3 128.55 19.35 128.7 19.4 128.7 19.45 128.7 19.6 128.55 19.6 128.45 19.65 128.2 19.4 L128.1 19.25 128.0 19.15 127.95 19.0 Q127.95 18.85 128.05 18.8 L128.25 18.8 128.35 18.65 128.35 18.7 Q128.5 18.85 128.5 18.95 L128.55 19.0 128.5 19.1 M128.35 21.35 Q128.5 21.4 128.7 21.7 128.65 21.75 128.6 21.75 L128.5 21.8 128.4 21.85 128.4 21.9 Q128.35 21.9 128.3 21.7 L128.3 21.6 128.35 21.55 128.35 21.35 M128.05 22.05 L128.15 22.1 128.15 22.15 128.2 22.25 128.15 22.35 128.15 22.45 Q128.1 22.45 128.1 22.4 L128.05 22.35 128.05 22.1 Q128.0 22.05 128.05 22.05 M127.2 20.25 L127.25 20.3 127.3 20.35 127.3 20.4 127.1 20.4 127.1 20.35 127.15 20.25 127.2 20.25 M126.95 21.0 L127.0 21.0 127.15 21.2 127.15 21.25 Q127.15 21.45 127.0 21.45 L126.7 21.35 Q126.5 21.3 126.4 21.3 L126.1 21.35 126.05 21.35 Q126.05 21.2 126.15 21.1 L126.3 21.0 Q126.5 20.9 126.65 20.85 126.9 20.85 126.95 21.0 M125.85 20.0 L125.85 20.05 125.8 20.05 125.75 20.05 125.65 20.0 125.7 19.95 125.8 19.9 125.95 19.85 125.95 19.9 125.9 20.0 125.85 20.0 M125.95 20.95 L125.9 21.1 125.85 21.2 125.85 21.4 125.9 21.6 125.95 21.75 125.85 21.85 125.7 21.8 125.65 21.8 Q125.6 21.7 125.55 21.55 125.55 21.45 125.75 21.05 L125.8 20.95 125.85 20.85 125.85 20.75 126.0 20.85 125.95 20.95 M125.8 22.15 L125.8 22.2 125.75 22.3 125.65 22.4 125.55 22.55 125.5 22.65 Q125.45 22.65 125.4 22.55 L125.3 22.4 125.1 22.3 125.1 21.95 125.15 21.7 125.25 21.8 125.35 21.9 125.35 22.05 125.4 22.15 125.55 22.2 125.8 22.15 M127.3 22.4 L127.4 22.3 127.45 22.25 127.55 22.35 127.5 22.45 127.5 22.55 Q127.55 22.7 127.7 22.85 127.9 22.95 127.9 23.1 L127.9 23.2 127.85 23.25 127.8 23.35 127.65 23.5 127.55 23.6 Q127.4 23.6 127.35 23.4 127.35 23.3 127.3 23.15 127.3 23.1 127.15 23.0 L127.05 22.95 127.0 22.85 Q127.0 22.7 127.1 22.5 127.2 22.4 127.3 22.4 M126.85 22.8 L126.85 22.95 126.75 23.2 126.55 23.45 126.45 23.15 126.45 22.85 126.45 22.65 126.4 22.45 126.35 22.3 126.3 22.25 Q126.45 22.4 126.55 22.4 L126.7 22.5 Q126.8 22.6 126.85 22.8 M125.65 23.5 L125.7 23.6 125.8 23.75 125.95 23.8 125.9 23.95 125.8 24.0 Q125.75 24.0 125.65 23.9 L125.45 23.75 125.4 23.7 125.35 23.65 125.25 23.6 125.25 23.45 Q125.2 23.35 125.3 23.15 L125.4 22.95 125.45 22.85 Q125.55 22.9 125.55 23.0 L125.55 23.1 125.5 23.15 125.5 23.25 125.55 23.35 125.6 23.4 125.65 23.5 M128.8 22.6 Q128.8 22.45 128.9 22.3 L128.95 22.25 129.1 22.35 129.1 22.55 128.9 22.6 128.8 22.6 M128.9 23.4 Q128.85 23.55 128.7 23.55 L128.7 23.6 128.65 23.6 128.75 23.75 128.8 23.8 128.8 24.0 Q128.8 24.1 128.85 24.15 L128.95 24.2 128.9 24.25 128.85 24.35 Q128.75 24.35 128.65 24.15 L128.6 23.9 128.45 23.7 128.4 23.65 128.35 23.45 Q128.3 23.4 128.4 23.3 L128.5 23.2 Q128.7 23.2 128.7 23.1 L128.7 22.9 128.75 22.9 Q128.9 23.0 128.9 23.1 128.95 23.3 128.9 23.4 M124.85 20.65 L124.65 20.65 Q124.45 20.65 124.45 20.5 124.4 20.45 124.5 20.3 124.55 20.15 124.65 20.15 124.75 20.15 125.05 20.45 L125.15 20.5 125.1 20.55 124.85 20.65 M124.65 20.5 L124.65 20.4 Q124.6 20.4 124.6 20.45 L124.65 20.5 M122.85 20.4 L122.9 20.15 Q123.0 20.15 123.1 20.25 L123.4 20.45 Q123.3 20.45 123.25 20.5 L123.15 20.75 123.05 20.85 122.85 20.8 122.65 20.7 Q122.4 20.55 122.25 20.4 L122.3 20.25 122.4 20.15 122.6 20.3 Q122.8 20.4 122.85 20.4" fill="#ffe693" fill-rule="evenodd" stroke="none"/>
  </g>
</svg>
