<?xml version="1.0" encoding="UTF-8" standalone="no"?>
<svg xmlns:xlink="http://www.w3.org/1999/xlink" height="4.15px" width="5.65px" xmlns="http://www.w3.org/2000/svg">
  <g transform="matrix(1.0, 0.0, 0.0, 1.0, -108.3, -16.95)">
    <path d="M113.55 17.0 L113.55 17.05 Q113.5 17.1 113.5 17.15 L113.55 17.15 113.5 17.15 113.45 17.1 113.45 17.0 113.5 16.95 113.55 16.95 113.55 17.0 M108.8 17.95 L108.8 18.0 108.75 17.95 108.75 17.9 108.8 17.85 108.8 17.95 M111.35 18.05 L111.35 17.95 111.4 17.95 111.4 18.05 111.4 18.05 111.35 18.05 M109.6 18.3 L109.65 18.25 109.7 18.3 109.7 18.4 109.6 18.35 109.6 18.3 M113.35 18.1 L113.35 18.15 113.3 18.2 113.3 18.25 113.2 18.25 Q113.15 18.15 113.3 18.15 L113.25 18.05 113.3 18.1 113.35 18.1 M111.4 18.65 Q111.4 18.65 111.45 18.65 L111.55 18.6 111.55 18.75 111.45 18.75 111.4 18.7 111.4 18.65 M113.0 19.7 L112.95 19.6 113.0 19.55 113.05 19.55 113.05 19.65 113.0 19.7 M113.85 20.1 L113.85 20.05 113.9 20.0 113.95 20.1 113.9 20.1 113.9 20.2 113.85 20.15 113.85 20.1" fill="#421818" fill-rule="evenodd" stroke="none"/>
    <path d="M108.45 19.55 Q108.55 19.45 108.65 19.45 L108.8 19.45 108.75 19.6 Q108.8 19.75 108.75 19.75 L108.7 19.8 108.7 19.9 108.8 20.0 108.85 20.0 Q108.9 20.05 108.9 20.1 L108.8 20.2 108.75 20.3 108.75 20.35 108.8 20.55 108.8 20.75 108.65 20.85 Q108.55 20.85 108.45 21.1 L108.4 21.1 108.35 21.0 108.3 20.85 Q108.3 20.65 108.35 20.5 L108.4 20.45 108.45 20.2 108.3 19.9 Q108.3 19.85 108.35 19.7 L108.45 19.55 M109.9 17.25 L110.0 17.55 110.0 17.65 109.9 17.8 109.65 18.0 Q109.55 17.9 109.55 17.8 L109.55 17.7 Q109.55 17.65 109.55 17.6 L109.7 17.5 109.75 17.3 Q109.75 17.2 109.8 17.2 L109.9 17.25 M110.05 19.05 L110.45 19.1 110.6 19.25 Q110.7 19.35 110.7 19.45 L110.7 19.75 110.65 19.95 110.55 20.15 110.45 20.0 110.45 19.85 110.5 19.6 110.45 19.45 110.45 19.5 110.25 19.4 110.1 19.4 109.95 19.35 110.0 19.15 Q110.0 19.05 110.05 19.05" fill="#2a2a27" fill-rule="evenodd" stroke="none"/>
  </g>
</svg>
