<?xml version="1.0" encoding="UTF-8" standalone="no"?>
<svg xmlns:xlink="http://www.w3.org/1999/xlink" height="7.7px" width="5.25px" xmlns="http://www.w3.org/2000/svg">
  <g transform="matrix(1.0, 0.0, 0.0, 1.0, -123.0, -21.2)">
    <path d="M127.9 21.25 L127.85 21.4 127.8 21.35 127.75 21.3 127.8 21.25 127.8 21.2 127.9 21.2 127.9 21.25 M127.7 22.25 L127.7 22.3 127.65 22.35 127.6 22.4 127.55 22.4 127.5 22.35 127.5 22.35 Q127.5 22.25 127.55 22.2 L127.6 22.2 127.65 22.25 127.7 22.25 M125.6 22.4 L125.5 22.5 125.45 22.5 125.4 22.45 Q125.4 22.35 125.4 22.35 L125.5 22.3 125.6 22.3 125.65 22.35 125.6 22.4 M125.75 22.95 L125.7 23.05 125.7 23.1 125.65 23.0 125.65 22.95 125.7 22.9 125.75 22.95 M127.25 24.0 L127.25 23.9 127.3 23.9 127.4 23.9 127.25 24.0 M128.2 24.45 L128.1 24.4 128.15 24.3 128.15 24.3 Q128.25 24.25 128.25 24.3 L128.2 24.4 128.2 24.45 M123.05 22.25 L123.05 22.2 123.0 22.2 123.05 22.1 123.05 22.0 Q123.1 21.9 123.15 21.9 L123.2 21.95 123.2 22.05 123.1 22.15 123.05 22.25 M124.05 22.6 L124.05 22.55 Q124.2 22.55 124.2 22.6 L124.2 22.65 124.25 22.75 124.1 22.65 124.05 22.6" fill="#421818" fill-rule="evenodd" stroke="none"/>
    <path d="M124.35 21.4 Q124.5 21.35 124.6 21.55 L124.7 21.8 124.65 21.7 124.5 21.55 Q124.45 21.55 124.4 21.65 124.3 21.7 124.3 21.75 L124.3 21.95 124.25 22.0 124.25 22.05 124.15 21.95 Q124.1 21.9 124.1 21.85 124.05 21.65 124.15 21.5 124.2 21.4 124.35 21.4 M123.5 24.35 Q123.55 24.4 123.65 24.4 L123.75 24.45 123.7 24.55 Q123.65 24.6 123.6 24.6 123.4 24.6 123.3 24.45 123.2 24.35 123.15 24.15 123.15 24.0 123.25 23.8 123.35 23.5 123.55 23.5 123.55 23.5 123.6 23.55 123.45 23.55 123.5 23.75 L123.55 23.95 123.65 24.05 123.65 24.1 123.5 24.05 123.4 23.95 123.35 24.05 123.5 24.35 M124.85 22.9 L125.1 22.95 Q125.2 23.05 125.2 23.1 125.2 23.2 125.15 23.3 L125.15 23.35 124.9 23.2 Q124.85 23.2 124.8 23.4 L124.75 23.7 124.6 23.9 124.45 24.0 124.25 24.0 124.2 23.9 Q124.15 23.85 124.35 23.65 L124.6 23.4 124.7 23.1 Q124.75 22.9 124.85 22.9 M125.35 23.95 L125.35 24.15 125.4 24.35 125.3 24.5 125.25 24.5 Q125.15 24.55 125.1 24.45 L125.05 24.4 Q125.1 24.35 125.15 24.35 125.2 24.3 125.2 24.15 L125.2 23.85 Q125.2 23.7 125.25 23.65 L125.3 23.75 125.35 23.95 M125.0 25.35 Q124.95 25.3 124.9 25.3 124.8 25.35 124.75 25.5 L124.65 25.75 Q124.55 25.7 124.55 25.5 124.5 25.35 124.55 25.2 124.6 25.1 124.75 25.1 124.85 25.05 124.95 25.2 L125.0 25.35 M124.0 27.15 L124.15 27.15 124.05 27.25 Q123.95 27.3 123.95 27.4 123.95 27.45 124.1 27.55 L124.2 27.7 124.2 27.75 124.15 27.75 124.05 27.7 124.0 27.7 124.0 27.8 124.05 28.0 124.15 28.15 Q124.15 28.2 124.05 28.2 124.05 28.2 124.0 28.15 L123.9 28.05 123.8 27.95 123.75 27.8 123.85 27.35 123.9 27.2 Q123.95 27.15 124.0 27.15 M125.35 26.7 L125.6 26.75 125.65 26.85 125.75 27.0 125.7 27.05 125.6 27.15 125.45 27.1 Q125.3 27.0 125.3 27.0 125.25 27.05 125.15 27.4 125.1 27.8 124.9 27.85 L124.75 27.75 124.75 27.7 124.9 27.65 124.95 27.5 125.0 27.3 125.1 26.95 Q125.25 26.7 125.35 26.7 M123.3 24.9 L123.25 25.05 123.2 25.15 123.15 25.1 123.1 25.05 Q123.1 24.95 123.15 24.9 L123.25 24.8 123.35 24.85 123.3 24.9 M123.9 28.45 L123.8 28.55 Q123.75 28.55 123.75 28.6 L123.7 28.8 123.6 28.9 Q123.6 28.9 123.6 28.85 123.55 28.65 123.65 28.55 123.75 28.4 123.8 28.4 123.85 28.4 123.9 28.45 M125.8 27.65 L125.8 28.05 125.8 28.1 125.75 28.15 125.6 28.05 Q125.7 28.0 125.65 27.9 125.65 27.8 125.7 27.7 L125.7 27.6 125.75 27.55 125.8 27.65" fill="#2a2a27" fill-rule="evenodd" stroke="none"/>
  </g>
</svg>
