<?xml version="1.0" encoding="UTF-8" standalone="no"?>
<svg xmlns:xlink="http://www.w3.org/1999/xlink" height="4.4px" width="4.4px" xmlns="http://www.w3.org/2000/svg">
  <g transform="matrix(1.0, 0.0, 0.0, 1.0, 2.2, 2.2)">
    <path d="M-2.2 -1.5 L-2.2 -2.2 -1.45 -2.2 Q-1.5 -2.15 -1.45 -2.05 L-1.5 -1.95 -1.55 -1.9 -1.6 -1.85 -1.65 -1.8 -1.65 -1.75 -1.55 -1.75 Q-1.65 -1.65 -1.85 -1.6 L-2.2 -1.5" fill="#362275" fill-rule="evenodd" stroke="none"/>
    <path d="M-2.2 -0.55 L-2.2 -0.85 -2.1 -0.85 Q-2.1 -0.85 -2.1 -0.9 L-2.0 -0.95 -1.95 -0.95 -1.9 -0.9 -1.85 -0.8 Q-1.85 -0.8 -1.85 -0.7 L-1.9 -0.65 -1.85 -0.6 Q-1.7 -0.55 -1.6 -0.35 L-1.5 0.0 -1.5 0.25 Q-1.5 0.4 -1.4 0.45 L-1.4 0.55 -1.7 0.55 -1.55 0.5 -1.45 0.5 -1.45 0.45 -1.55 0.45 -1.6 0.45 -1.6 0.4 -1.55 0.3 -1.55 0.15 Q-1.55 0.0 -1.65 -0.15 L-1.8 -0.45 -1.95 -0.5 -2.05 -0.6 -2.1 -0.55 -2.2 -0.55" fill="#403090" fill-rule="evenodd" stroke="none"/>
    <path d="M-2.2 -0.85 L-2.2 -1.0 Q-2.0 -1.1 -1.9 -1.3 L-1.85 -1.3 -1.85 -1.2 -1.8 -1.25 -1.75 -1.3 Q-1.7 -1.3 -1.7 -1.25 L-1.75 -1.2 -1.75 -1.15 -1.65 -1.15 -1.55 -1.1 -1.7 -1.1 -1.7 -0.65 -1.5 -0.65 -1.35 -0.65 -1.25 -0.65 -1.25 -0.65 -1.25 -0.2 -1.2 -0.15 -1.15 -0.15 -1.0 -0.15 -0.8 -0.2 -0.8 -0.65 -0.75 -0.65 -0.75 -0.7 -0.8 -0.8 -0.6 -0.8 -0.6 -0.8 Q-0.55 -0.7 -0.65 -0.65 L-0.7 -0.65 -0.75 -0.6 -0.75 -0.5 Q-0.75 -0.45 -0.75 -0.3 -0.75 -0.15 -0.85 -0.1 L-0.8 -0.05 -0.8 0.0 -0.9 0.0 -0.95 0.05 -1.15 0.05 -1.3 0.1 -1.35 0.15 -1.35 0.25 -1.4 0.25 -1.4 0.45 Q-1.5 0.4 -1.5 0.25 L-1.5 0.0 -1.6 -0.35 Q-1.7 -0.55 -1.85 -0.6 L-1.9 -0.65 -1.85 -0.7 Q-1.85 -0.8 -1.85 -0.8 L-1.9 -0.9 -1.95 -0.95 -2.0 -0.95 -2.1 -0.9 Q-2.1 -0.85 -2.1 -0.85 L-2.2 -0.85" fill="#3e2f86" fill-rule="evenodd" stroke="none"/>
    <path d="M-2.2 0.5 L-2.2 0.45 -1.95 0.4 Q-1.85 0.35 -1.8 0.25 -1.75 0.1 -1.8 0.0 -1.8 -0.15 -1.9 -0.25 L-2.05 -0.3 -2.2 -0.3 -2.2 -0.35 -2.05 -0.35 -1.9 -0.3 -1.75 -0.1 Q-1.7 0.0 -1.75 0.1 -1.75 0.25 -1.8 0.35 L-2.0 0.5 -2.1 0.5 -2.2 0.5" fill="#503ac6" fill-rule="evenodd" stroke="none"/>
    <path d="M-2.2 0.55 L-2.2 0.5 -2.1 0.5 -2.0 0.5 -1.8 0.35 Q-1.75 0.25 -1.75 0.1 -1.7 0.0 -1.75 -0.1 L-1.9 -0.3 -2.05 -0.35 -2.2 -0.35 -2.2 -0.45 -1.9 -0.4 -1.75 -0.2 Q-1.65 -0.05 -1.65 0.05 -1.65 0.2 -1.7 0.35 L-1.9 0.5 -2.2 0.55" fill="#4c37ae" fill-rule="evenodd" stroke="none"/>
    <path d="M-2.2 0.65 L-2.2 0.55 -1.9 0.5 -1.7 0.35 Q-1.65 0.2 -1.65 0.05 -1.65 -0.05 -1.75 -0.2 L-1.9 -0.4 -2.2 -0.45 -2.2 -0.55 -2.1 -0.55 -2.05 -0.6 -1.95 -0.5 -1.8 -0.45 -1.65 -0.15 Q-1.55 0.0 -1.55 0.15 L-1.55 0.3 -1.6 0.4 -1.6 0.45 -1.55 0.45 -1.45 0.45 -1.45 0.5 -1.55 0.5 -1.7 0.55 -1.7 0.8 -1.55 0.65 -1.45 0.65 -1.4 0.65 -1.35 0.65 -1.3 0.7 -1.25 0.7 -1.2 0.65 -1.15 0.65 -1.15 0.65 -1.0 0.65 -0.9 0.55 -0.9 0.7 Q-0.9 0.8 -1.0 0.8 L-0.85 0.8 -0.85 0.75 -0.8 0.7 Q-0.75 0.75 -0.75 0.8 L-0.75 0.95 Q-0.8 1.05 -0.9 1.05 -1.05 1.05 -1.1 1.0 L-1.15 0.95 -1.15 1.0 Q-1.15 1.1 -1.2 1.1 L-1.35 1.0 -1.3 0.9 -1.3 0.8 Q-1.25 0.75 -1.3 0.75 L-1.4 0.8 -1.4 0.95 -1.45 0.95 Q-1.4 0.85 -1.45 0.85 L-1.5 0.85 -1.55 0.85 -1.65 0.85 -1.7 0.75 -1.75 0.7 -1.75 0.8 -1.8 0.9 -1.8 0.8 -1.85 0.65 -1.9 0.65 -2.0 0.7 Q-2.1 0.7 -2.2 0.65 M-0.85 0.85 L-1.0 0.85 -1.05 0.85 Q-1.1 0.8 -1.1 0.85 L-1.1 0.9 Q-1.05 1.0 -0.95 1.0 -0.8 1.0 -0.8 0.9 -0.75 0.85 -0.85 0.8 L-0.85 0.85 M-1.55 0.65 L-1.55 0.65 M-1.7 0.55 L-1.7 0.55" fill="#47359b" fill-rule="evenodd" stroke="none"/>
    <path d="M-2.2 0.35 L-2.2 0.25 Q-2.1 0.25 -2.05 0.2 L-2.0 0.05 -2.05 -0.05 -2.2 -0.1 -2.2 -0.15 Q-2.1 -0.15 -2.0 -0.1 -1.9 -0.05 -1.9 0.05 -1.9 0.15 -2.0 0.25 L-2.2 0.35" fill="#7955ff" fill-rule="evenodd" stroke="none"/>
    <path d="M-2.2 0.4 L-2.2 0.35 -2.0 0.25 Q-1.9 0.15 -1.9 0.05 -1.9 -0.05 -2.0 -0.1 -2.1 -0.15 -2.2 -0.15 L-2.2 -0.25 -2.0 -0.2 -1.85 -0.1 Q-1.8 -0.05 -1.8 0.05 L-1.85 0.25 -2.0 0.35 -2.2 0.4" fill="#6246fc" fill-rule="evenodd" stroke="none"/>
    <path d="M-2.2 0.45 L-2.2 0.4 -2.0 0.35 -1.85 0.25 -1.8 0.05 Q-1.8 -0.05 -1.85 -0.1 L-2.0 -0.2 -2.2 -0.25 -2.2 -0.3 -2.05 -0.3 -1.9 -0.25 Q-1.8 -0.15 -1.8 0.0 -1.75 0.1 -1.8 0.25 -1.85 0.35 -1.95 0.4 L-2.2 0.45" fill="#563ee2" fill-rule="evenodd" stroke="none"/>
    <path d="M-2.2 0.25 L-2.2 -0.1 -2.05 -0.05 -2.0 0.05 -2.05 0.2 Q-2.1 0.25 -2.2 0.25" fill="#9367fe" fill-rule="evenodd" stroke="none"/>
    <path d="M-2.2 -1.0 L-2.2 -1.5 -1.85 -1.6 Q-1.65 -1.65 -1.55 -1.75 L-1.65 -1.75 -1.65 -1.8 -1.6 -1.85 -1.55 -1.9 -1.5 -1.95 -1.45 -2.05 Q-1.5 -2.15 -1.45 -2.2 L-0.85 -2.2 -0.8 -2.05 -0.8 -1.95 -0.9 -1.8 -1.05 -1.7 -1.15 -1.65 -1.2 -1.55 -1.25 -1.55 -1.25 -1.1 -1.4 -1.1 -1.55 -1.1 -1.65 -1.15 -1.75 -1.15 -1.75 -1.2 -1.7 -1.25 Q-1.7 -1.3 -1.75 -1.3 L-1.8 -1.25 -1.85 -1.2 -1.85 -1.3 -1.9 -1.3 Q-2.0 -1.1 -2.2 -1.0" fill="#352a7f" fill-rule="evenodd" stroke="none"/>
    <path d="M1.45 -2.2 L1.5 -2.1 1.5 -2.05 1.6 -2.05 1.7 -1.95 Q1.8 -1.9 1.85 -1.95 2.05 -1.95 2.2 -2.05 L2.2 -1.15 2.15 -1.15 2.1 -1.2 2.05 -1.1 2.0 -1.1 1.95 -1.25 1.9 -1.4 1.95 -1.45 1.95 -1.6 1.9 -1.65 1.85 -1.7 Q1.85 -1.75 1.85 -1.8 L1.85 -1.85 1.8 -1.85 Q1.75 -1.85 1.8 -1.8 L1.7 -1.75 1.65 -1.65 1.65 -1.75 1.6 -1.85 1.45 -1.85 1.4 -1.75 1.45 -1.65 1.4 -1.65 1.4 -1.65 1.35 -1.65 1.35 -1.65 1.3 -1.65 Q1.2 -1.65 1.25 -1.6 L1.25 -1.55 Q1.25 -1.45 1.25 -1.5 L1.35 -1.5 1.4 -1.5 1.4 -1.4 1.45 -1.3 1.45 -1.25 1.4 -1.2 1.35 -1.15 1.2 -1.05 1.2 -0.95 1.15 -0.85 1.15 -1.05 1.2 -1.2 1.3 -1.2 1.3 -1.25 0.9 -1.55 0.8 -1.6 0.75 -1.6 0.7 -1.5 0.7 -1.4 0.8 -1.4 0.9 -1.25 0.85 -1.2 0.85 -1.1 0.8 -1.15 0.85 -1.25 0.8 -1.35 0.7 -1.35 0.6 -1.35 0.65 -1.5 Q0.65 -1.6 0.6 -1.65 L0.45 -1.7 Q0.35 -1.65 0.3 -1.6 L0.3 -1.5 Q0.3 -1.4 0.35 -1.4 L0.45 -1.35 0.5 -1.35 0.5 -1.2 Q0.5 -1.15 0.55 -1.1 L0.65 -1.1 0.75 -1.1 0.8 -1.1 Q0.7 -1.1 0.7 -1.05 0.65 -1.0 0.65 -0.95 L0.7 -0.8 0.7 -0.65 0.7 -0.6 0.7 -0.45 Q0.65 -0.45 0.6 -0.4 L0.5 -0.4 0.25 -0.15 0.2 -0.15 0.2 -0.1 0.25 -0.1 Q0.25 -0.1 0.3 -0.1 L0.25 0.0 0.25 0.2 0.35 0.25 0.4 0.3 Q0.45 0.3 0.45 0.25 L0.35 0.15 Q0.3 0.15 0.3 0.1 0.35 0.05 0.45 0.05 L0.55 0.0 0.6 0.0 0.6 0.05 0.55 0.1 0.45 0.15 Q0.45 0.2 0.45 0.25 L0.5 0.35 0.4 0.45 0.25 0.5 0.25 0.4 0.2 0.3 0.05 0.3 0.05 0.25 0.0 0.15 -0.15 0.15 Q-0.1 0.05 -0.15 0.0 L-0.25 -0.05 -0.2 -0.15 -0.1 -0.2 0.05 -0.2 0.2 -0.25 Q0.35 -0.25 0.45 -0.4 L0.55 -0.5 0.65 -0.6 0.65 -0.65 0.6 -0.7 0.65 -0.8 0.65 -0.9 0.55 -0.95 Q0.5 -1.0 0.5 -1.05 L0.3 -1.15 Q0.2 -1.2 0.2 -1.3 L0.2 -1.35 0.15 -1.35 0.1 -1.35 0.1 -1.4 0.1 -1.5 Q0.05 -1.55 0.0 -1.55 L-0.05 -1.55 -0.15 -1.55 -0.15 -1.6 -0.2 -1.7 -0.3 -1.75 Q-0.45 -1.8 -0.5 -1.7 -0.55 -1.6 -0.45 -1.5 L-0.4 -1.4 -0.3 -1.3 -0.4 -1.25 -0.45 -1.1 Q-0.55 -1.1 -0.55 -1.2 L-0.5 -1.3 Q-0.4 -1.35 -0.45 -1.4 L-0.55 -1.55 Q-0.6 -1.6 -0.55 -1.75 L-0.4 -1.9 -0.25 -1.85 -0.3 -2.05 -0.4 -2.2 1.45 -2.2 M1.15 -0.85 L1.15 -0.85 M1.2 -2.1 Q1.1 -2.15 1.0 -2.15 L0.85 -2.1 0.7 -2.1 0.55 -2.0 0.55 -1.95 0.5 -1.9 0.5 -1.85 0.6 -1.8 0.65 -1.75 Q0.65 -1.7 0.7 -1.75 L0.85 -1.75 0.95 -1.7 1.15 -1.75 Q1.25 -1.8 1.25 -1.9 1.25 -2.0 1.2 -2.1 M0.1 -2.0 Q0.1 -1.9 0.15 -1.85 L0.25 -1.85 0.3 -1.95 0.3 -2.05 0.2 -2.1 Q0.1 -2.1 0.1 -2.0" fill="#382d80" fill-rule="evenodd" stroke="none"/>
    <path d="M-0.4 -2.2 L-0.3 -2.05 -0.25 -1.85 -0.4 -1.9 -0.55 -1.75 Q-0.6 -1.6 -0.55 -1.55 L-0.45 -1.4 Q-0.4 -1.35 -0.5 -1.3 L-0.55 -1.2 Q-0.55 -1.1 -0.45 -1.1 L-0.35 -1.1 -0.3 -1.1 -0.3 -1.0 -0.3 -0.85 -0.3 -0.8 -0.3 -0.7 -0.35 -0.6 -0.45 -0.5 -0.65 -0.6 -0.5 -0.65 -0.35 -0.65 -0.35 -0.95 -0.45 -0.95 -0.35 -1.1 -0.8 -1.1 -0.85 -1.15 -0.85 -1.25 Q-0.8 -1.4 -0.85 -1.55 L-0.8 -1.55 -1.0 -1.55 -1.2 -1.55 -1.15 -1.65 -1.05 -1.7 -0.9 -1.8 -0.8 -1.95 -0.8 -2.05 -0.85 -2.2 -0.4 -2.2" fill="#342b72" fill-rule="evenodd" stroke="none"/>
    <path d="M-1.2 -1.55 L-1.0 -1.55 -0.8 -1.55 -0.85 -1.55 -0.95 -1.4 -1.1 -1.45 -1.25 -1.55 -1.2 -1.55" fill="#81feff" fill-rule="evenodd" stroke="none"/>
    <path d="M-0.85 -1.55 Q-0.8 -1.4 -0.85 -1.25 L-0.85 -1.15 -0.8 -1.1 -0.85 -1.05 -0.9 -1.0 -0.95 -1.2 -0.95 -1.4 -0.85 -1.55 M-0.8 -1.1 L-0.8 -1.1" fill="#353581" fill-rule="evenodd" stroke="none"/>
    <path d="M-0.15 -1.6 L-0.15 -1.55 Q-0.15 -1.5 -0.2 -1.45 -0.25 -1.4 -0.3 -1.4 L-0.45 -1.55 Q-0.5 -1.65 -0.45 -1.7 -0.35 -1.75 -0.3 -1.7 L-0.2 -1.65 -0.15 -1.6 M-0.4 -1.65 L-0.4 -1.55 -0.35 -1.5 -0.25 -1.45 -0.2 -1.5 -0.25 -1.6 -0.4 -1.65" fill="#5a50f8" fill-rule="evenodd" stroke="none"/>
    <path d="M-0.45 -1.1 L-0.4 -1.25 -0.3 -1.3 -0.4 -1.4 -0.45 -1.5 Q-0.55 -1.6 -0.5 -1.7 -0.45 -1.8 -0.3 -1.75 L-0.2 -1.7 -0.15 -1.6 -0.2 -1.65 -0.3 -1.7 Q-0.35 -1.75 -0.45 -1.7 -0.5 -1.65 -0.45 -1.55 L-0.3 -1.4 Q-0.25 -1.4 -0.2 -1.45 -0.15 -1.5 -0.15 -1.55 L-0.05 -1.55 0.0 -1.55 Q0.05 -1.55 0.1 -1.5 L0.1 -1.4 0.1 -1.5 Q0.05 -1.55 0.0 -1.55 L-0.1 -1.5 -0.05 -1.4 Q0.0 -1.35 -0.05 -1.3 L-0.15 -1.3 -0.3 -1.25 -0.35 -1.1 -0.45 -1.1" fill="#4338b2" fill-rule="evenodd" stroke="none"/>
    <path d="M-0.4 -1.65 L-0.25 -1.6 -0.2 -1.5 -0.25 -1.45 -0.35 -1.5 -0.4 -1.55 -0.4 -1.65" fill="#737dff" fill-rule="evenodd" stroke="none"/>
    <path d="M0.1 -1.4 L0.1 -1.35 0.05 -1.3 0.05 -1.25 Q0.05 -1.15 0.15 -1.1 L0.3 -1.05 0.35 -1.05 0.4 -1.05 Q0.45 -1.1 0.45 -1.05 L0.45 -0.95 0.55 -0.9 Q0.65 -0.85 0.6 -0.8 L0.55 -0.75 0.5 -0.7 Q0.5 -0.65 0.5 -0.65 L0.6 -0.65 0.65 -0.65 0.65 -0.6 0.55 -0.55 0.5 -0.6 0.45 -0.6 Q0.45 -0.5 0.35 -0.4 L0.1 -0.35 Q0.0 -0.3 -0.05 -0.45 L-0.15 -0.7 Q-0.15 -0.75 -0.2 -0.8 L-0.3 -0.85 -0.3 -1.0 Q-0.25 -0.95 -0.15 -0.9 L0.05 -0.9 0.0 -0.75 Q0.0 -0.65 -0.1 -0.65 L-0.05 -0.6 0.0 -0.5 0.1 -0.4 0.2 -0.4 0.3 -0.45 0.35 -0.5 0.35 -0.6 0.4 -0.75 0.4 -0.85 0.35 -0.95 0.25 -1.0 0.1 -0.95 0.05 -0.95 0.0 -1.0 0.0 -1.2 0.0 -1.3 -0.05 -1.3 -0.1 -1.25 -0.2 -1.15 -0.3 -1.1 -0.35 -1.1 -0.3 -1.25 -0.15 -1.3 -0.05 -1.3 Q0.0 -1.35 -0.05 -1.4 L-0.1 -1.5 0.0 -1.55 Q0.05 -1.55 0.1 -1.5 L0.1 -1.4 M0.05 -1.3 L0.05 -1.45 -0.05 -1.45 0.0 -1.35 0.05 -1.3 M0.6 -0.85 Q0.6 -0.9 0.55 -0.85 L0.5 -0.75 0.5 -0.75 0.55 -0.75 0.6 -0.85" fill="#5a4df9" fill-rule="evenodd" stroke="none"/>
    <path d="M-0.3 -1.1 L-0.2 -1.15 -0.1 -1.25 -0.05 -1.3 0.0 -1.3 0.0 -1.2 0.0 -1.0 0.05 -0.95 0.1 -0.95 0.25 -1.0 0.35 -0.95 0.4 -0.85 0.4 -0.75 0.35 -0.6 0.35 -0.5 0.3 -0.55 0.25 -0.6 0.25 -0.65 0.3 -0.7 Q0.4 -0.75 0.4 -0.85 L0.3 -0.9 0.2 -0.9 0.1 -0.75 Q0.1 -0.65 0.05 -0.65 0.0 -0.6 0.05 -0.55 L0.1 -0.45 0.2 -0.45 0.3 -0.45 0.2 -0.4 0.1 -0.4 0.0 -0.5 -0.05 -0.6 -0.1 -0.65 Q0.0 -0.65 0.0 -0.75 L0.05 -0.9 -0.15 -0.9 Q-0.25 -0.95 -0.3 -1.0 L-0.3 -1.1" fill="#715dff" fill-rule="evenodd" stroke="none"/>
    <path d="M-0.6 -0.8 L-0.6 -0.8 -0.8 -0.8 -0.9 -0.75 -0.95 -0.65 -1.0 -0.6 -1.0 -0.55 -1.05 -0.55 -1.1 -0.6 Q-1.1 -0.65 -1.15 -0.65 L-1.2 -0.65 -1.1 -0.65 Q-1.1 -0.65 -1.1 -0.7 L-1.15 -0.8 -1.25 -0.8 -1.35 -0.95 -1.2 -0.95 Q-1.15 -0.95 -1.1 -1.05 -1.05 -1.1 -1.1 -1.1 L-1.2 -1.1 -1.25 -1.1 -1.25 -1.55 -1.1 -1.45 -0.95 -1.4 -0.95 -1.2 -0.9 -1.0 -0.85 -1.05 -0.8 -1.1 -0.8 -1.0 -0.85 -0.95 -0.65 -0.95 -0.45 -0.95 -0.45 -0.8 -0.6 -0.8 M-1.2 -0.65 L-1.2 -0.65 -1.2 -0.65" fill="#4095fa" fill-rule="evenodd" stroke="none"/>
    <path d="M-1.7 -1.1 L-1.55 -1.1 -1.4 -1.1 -1.25 -1.1 -1.2 -1.1 -1.1 -1.05 Q-1.15 -0.95 -1.2 -0.95 L-1.35 -0.95 -1.55 -0.95 -1.7 -1.1" fill="#96ffff" fill-rule="evenodd" stroke="none"/>
    <path d="M-1.1 -1.05 L-1.2 -1.1 -1.1 -1.1 Q-1.05 -1.1 -1.1 -1.05" fill="#5dd4fe" fill-rule="evenodd" stroke="none"/>
    <path d="M-1.25 -0.65 L-1.25 -0.65 -1.35 -0.65 -1.5 -0.65 -1.7 -0.65 -1.5 -0.8 -1.25 -0.8 -1.15 -0.8 -1.1 -0.7 -1.2 -0.65 -1.2 -0.65 -1.25 -0.65" fill="#3c3898" fill-rule="evenodd" stroke="none"/>
    <path d="M-1.25 -0.2 L-1.25 -0.65 -1.2 -0.65 -1.15 -0.65 Q-1.1 -0.65 -1.1 -0.6 L-1.05 -0.55 -1.0 -0.55 -1.0 -0.6 -0.95 -0.65 -0.95 -0.3 -1.1 -0.3 -1.25 -0.2" fill="#4cabfe" fill-rule="evenodd" stroke="none"/>
    <path d="M-1.1 -0.7 Q-1.1 -0.65 -1.1 -0.65 L-1.2 -0.65 -1.1 -0.7" fill="#3e60cb" fill-rule="evenodd" stroke="none"/>
    <path d="M-1.7 -0.65 L-1.7 -1.1 -1.55 -0.95 -1.35 -0.95 -1.25 -0.8 -1.5 -0.8 -1.7 -0.65" fill="#48a3fe" fill-rule="evenodd" stroke="none"/>
    <path d="M-0.8 -0.8 L-0.75 -0.7 -0.75 -0.65 -0.8 -0.65 -0.8 -0.2 -1.0 -0.15 -1.15 -0.15 -1.2 -0.15 -1.25 -0.2 -1.1 -0.3 -0.95 -0.3 -0.95 -0.65 -0.9 -0.75 -0.8 -0.8" fill="#3f3a95" fill-rule="evenodd" stroke="none"/>
    <path d="M-0.1 -0.2 L-0.2 -0.15 -0.25 -0.05 -0.15 0.0 Q-0.1 0.05 -0.15 0.15 L-0.15 0.3 -0.15 0.35 -0.2 0.35 -0.2 0.3 -0.3 0.3 Q-0.4 0.3 -0.35 0.4 L-0.35 0.5 -0.25 0.5 -0.15 0.5 -0.15 0.55 -0.15 0.6 -0.15 0.6 -0.2 0.55 -0.35 0.6 -0.45 0.65 -0.5 0.8 -0.5 0.95 -0.6 1.15 -0.6 1.35 -0.65 1.35 -0.7 1.3 Q-0.8 1.2 -0.9 1.15 L-0.9 1.1 Q-0.9 1.1 -0.85 1.1 L-0.75 1.1 Q-0.7 1.15 -0.65 1.1 -0.65 1.05 -0.7 1.0 L-0.75 1.0 -0.75 0.95 -0.75 0.8 Q-0.75 0.75 -0.8 0.7 L-0.85 0.75 -0.85 0.8 -1.0 0.8 Q-0.9 0.8 -0.9 0.7 L-0.9 0.55 -1.0 0.55 -1.15 0.55 -1.15 0.4 -1.2 0.3 Q-1.15 0.25 -1.25 0.25 L-1.35 0.25 -1.35 0.15 -1.3 0.1 -1.15 0.05 -0.95 0.05 -0.9 0.0 -0.8 0.0 -0.8 -0.05 -0.85 -0.1 Q-0.75 -0.15 -0.75 -0.3 -0.75 -0.45 -0.75 -0.5 L-0.75 -0.6 -0.7 -0.65 -0.65 -0.65 Q-0.55 -0.7 -0.6 -0.8 L-0.45 -0.8 -0.45 -0.95 -0.35 -0.95 -0.35 -0.65 -0.5 -0.65 -0.65 -0.6 -0.45 -0.5 -0.35 -0.6 -0.3 -0.7 Q-0.25 -0.65 -0.2 -0.55 L-0.2 -0.3 -0.15 -0.3 -0.15 -0.25 -0.1 -0.2 M-0.85 0.8 L-0.85 0.8" fill="#3b2d7a" fill-rule="evenodd" stroke="none"/>
    <path d="M-0.8 -1.1 L-0.35 -1.1 -0.45 -0.95 -0.65 -0.95 -0.85 -0.95 -0.8 -1.0 -0.8 -1.1 -0.8 -1.1" fill="#7bfcff" fill-rule="evenodd" stroke="none"/>
    <path d="M-0.3 -0.85 L-0.2 -0.8 Q-0.15 -0.75 -0.15 -0.7 L-0.05 -0.45 Q0.0 -0.3 0.1 -0.35 L0.35 -0.4 Q0.45 -0.5 0.45 -0.6 L0.5 -0.6 0.55 -0.55 0.3 -0.35 Q0.15 -0.25 0.0 -0.3 -0.05 -0.35 -0.1 -0.4 L-0.15 -0.55 -0.2 -0.7 -0.3 -0.8 -0.3 -0.85" fill="#4a3cc6" fill-rule="evenodd" stroke="none"/>
    <path d="M0.65 -0.6 L0.55 -0.5 0.45 -0.4 Q0.35 -0.25 0.2 -0.25 L0.05 -0.2 -0.1 -0.2 -0.15 -0.25 -0.15 -0.3 -0.2 -0.3 -0.2 -0.55 Q-0.25 -0.65 -0.3 -0.7 L-0.3 -0.8 -0.2 -0.7 -0.15 -0.55 -0.1 -0.4 Q-0.05 -0.35 0.0 -0.3 0.15 -0.25 0.3 -0.35 L0.55 -0.55 0.65 -0.6 0.65 -0.6" fill="#413599" fill-rule="evenodd" stroke="none"/>
    <path d="M2.2 -2.05 Q2.05 -1.95 1.85 -1.95 1.8 -1.9 1.7 -1.95 L1.6 -2.05 1.5 -2.05 1.5 -2.1 1.45 -2.2 2.2 -2.2 2.2 -2.05" fill="#2e2773" fill-rule="evenodd" stroke="none"/>
    <path d="M1.2 -2.1 Q1.25 -2.0 1.25 -1.9 1.25 -1.8 1.15 -1.75 L0.95 -1.7 0.85 -1.75 0.7 -1.75 Q0.65 -1.7 0.65 -1.75 L0.6 -1.8 0.5 -1.85 0.5 -1.9 0.55 -1.95 0.55 -2.0 0.7 -2.1 0.85 -2.1 1.0 -2.15 Q1.1 -2.15 1.2 -2.1 M1.15 -2.05 L1.0 -2.05 Q0.9 -2.05 0.85 -1.95 0.85 -1.85 0.95 -1.8 L1.1 -1.75 Q1.2 -1.8 1.2 -1.9 1.25 -2.0 1.15 -2.05" fill="#372f8e" fill-rule="evenodd" stroke="none"/>
    <path d="M1.15 -2.05 Q1.25 -2.0 1.2 -1.9 1.2 -1.8 1.1 -1.75 L0.95 -1.8 Q0.85 -1.85 0.85 -1.95 0.9 -2.05 1.0 -2.05 L1.15 -2.05 M1.15 -2.0 Q1.1 -2.05 1.0 -2.05 L0.95 -1.95 Q0.9 -1.9 0.95 -1.85 1.0 -1.8 1.05 -1.8 1.1 -1.8 1.15 -1.85 L1.15 -2.0" fill="#3f35b5" fill-rule="evenodd" stroke="none"/>
    <path d="M1.1 -1.95 L1.05 -2.0 1.0 -1.95 1.0 -1.85 1.1 -1.85 Q1.15 -1.85 1.1 -1.95 M1.15 -2.0 L1.15 -1.85 Q1.1 -1.8 1.05 -1.8 1.0 -1.8 0.95 -1.85 0.9 -1.9 0.95 -1.95 L1.0 -2.05 Q1.1 -2.05 1.15 -2.0" fill="#5445f7" fill-rule="evenodd" stroke="none"/>
    <path d="M1.1 -1.95 Q1.15 -1.85 1.1 -1.85 L1.0 -1.85 1.0 -1.95 1.05 -2.0 1.1 -1.95" fill="#715cfe" fill-rule="evenodd" stroke="none"/>
    <path d="M1.45 -1.65 L1.4 -1.75 1.45 -1.85 1.45 -1.8 1.45 -1.65 1.45 -1.65" fill="#4251c5" fill-rule="evenodd" stroke="none"/>
    <path d="M1.45 -1.85 L1.6 -1.85 1.55 -1.8 1.5 -1.75 1.45 -1.8 1.45 -1.85 M1.6 -1.85 L1.6 -1.85" fill="#8af8fe" fill-rule="evenodd" stroke="none"/>
    <path d="M1.25 -1.5 Q1.25 -1.45 1.25 -1.55 L1.25 -1.6 Q1.2 -1.65 1.3 -1.65 L1.35 -1.65 1.35 -1.65 1.4 -1.65 1.4 -1.65 1.35 -1.65 1.25 -1.65 1.3 -1.55 1.25 -1.5" fill="#508efe" fill-rule="evenodd" stroke="none"/>
    <path d="M1.4 -1.65 L1.45 -1.65 1.45 -1.65 Q1.5 -1.65 1.5 -1.65 L1.5 -1.65 1.5 -1.55 1.45 -1.55 1.3 -1.55 1.25 -1.65 1.35 -1.65 1.4 -1.65" fill="#9dfefe" fill-rule="evenodd" stroke="none"/>
    <path d="M1.5 -1.65 L1.5 -1.65 Q1.5 -1.65 1.45 -1.65 L1.45 -1.8 1.5 -1.75 1.5 -1.65" fill="#4ba4fe" fill-rule="evenodd" stroke="none"/>
    <path d="M1.45 -1.3 L1.4 -1.4 1.4 -1.5 1.35 -1.5 1.25 -1.5 1.3 -1.55 1.45 -1.55 1.5 -1.55 1.5 -1.65 1.5 -1.75 1.55 -1.8 1.6 -1.85 1.6 -1.65 1.55 -1.6 Q1.5 -1.55 1.6 -1.55 L1.7 -1.55 1.75 -1.65 1.8 -1.65 1.8 -1.5 1.7 -1.45 1.6 -1.45 Q1.6 -1.45 1.6 -1.35 L1.6 -1.3 1.45 -1.3 1.45 -1.3 1.5 -1.35 1.5 -1.4 Q1.55 -1.5 1.45 -1.45 L1.45 -1.3" fill="#3b399b" fill-rule="evenodd" stroke="none"/>
    <path d="M1.45 -1.3 L1.45 -1.45 Q1.55 -1.5 1.5 -1.4 L1.5 -1.35 1.45 -1.3 1.45 -1.3" fill="#4497fc" fill-rule="evenodd" stroke="none"/>
    <path d="M1.15 -0.85 L1.2 -0.95 1.2 -1.05 1.35 -1.15 1.4 -1.2 1.45 -1.25 1.45 -1.3 1.45 -1.3 1.6 -1.3 1.6 -1.35 Q1.6 -1.45 1.6 -1.45 L1.7 -1.45 1.8 -1.5 1.8 -1.65 1.6 -1.65 1.6 -1.85 1.65 -1.75 1.65 -1.65 1.7 -1.75 1.8 -1.8 Q1.75 -1.85 1.8 -1.85 L1.85 -1.85 1.85 -1.8 Q1.85 -1.75 1.85 -1.7 L1.9 -1.65 1.95 -1.6 1.95 -1.45 1.9 -1.4 1.95 -1.25 2.0 -1.1 2.05 -1.1 2.1 -1.2 2.15 -1.15 2.2 -1.15 2.2 0.2 Q2.1 0.1 2.0 0.1 L1.8 0.05 Q1.75 0.1 1.7 0.15 1.65 0.25 1.65 0.35 L1.65 0.5 1.8 0.65 2.0 0.65 2.2 0.5 2.2 1.1 2.15 1.1 2.1 1.15 Q1.95 1.15 1.9 1.1 1.8 1.0 1.8 0.9 L1.7 0.95 1.75 1.0 1.75 1.1 1.7 1.1 1.65 1.2 Q1.65 1.25 1.6 1.2 L1.6 1.1 1.55 1.15 1.55 1.25 1.55 1.4 1.5 1.45 1.4 1.45 1.35 1.5 1.35 1.55 1.4 1.55 1.5 1.55 1.55 1.7 1.6 1.7 1.7 1.75 1.8 1.6 1.8 1.65 1.8 1.7 1.75 1.75 1.75 1.85 1.7 1.85 1.65 1.8 Q1.7 1.75 1.65 1.75 L1.6 1.75 Q1.55 1.85 1.5 1.8 L1.4 1.8 1.35 1.75 1.25 1.65 1.15 1.55 1.3 1.45 1.45 1.3 1.5 1.2 Q1.55 1.15 1.45 1.15 L1.4 1.1 1.4 1.0 1.45 0.95 1.5 1.0 1.45 1.0 Q1.45 1.1 1.5 1.1 L1.65 1.05 1.65 1.0 1.65 0.95 Q1.65 0.9 1.65 0.9 1.6 0.85 1.55 0.9 L1.6 0.8 Q1.55 0.7 1.5 0.65 L1.4 0.6 1.35 0.55 1.45 0.5 1.5 0.5 1.5 0.25 Q1.45 0.1 1.4 0.05 1.4 0.0 1.4 0.05 L1.45 0.05 1.65 0.0 1.85 0.0 1.85 -0.05 1.75 -0.1 1.7 -0.05 1.65 0.0 Q1.6 0.0 1.6 0.0 L1.6 -0.1 1.55 -0.1 1.55 -0.1 1.7 -0.1 1.8 -0.1 1.8 -0.25 1.9 -0.3 1.95 -0.4 1.5 -0.4 1.5 -0.65 1.45 -0.85 1.35 -0.85 1.15 -0.85 M1.6 -1.85 L1.6 -1.85 M1.45 -1.3 L1.45 -1.3 M1.5 -0.4 L1.5 -0.4 M1.55 1.0 Q1.5 1.0 1.55 0.9 L1.55 1.0 M1.75 1.0 L1.7 1.0 1.65 1.05 1.7 1.05 1.75 1.0 M2.0 1.1 L2.05 1.1 2.1 1.1 2.15 1.0 2.1 0.9 2.1 0.85 2.0 0.8 1.9 0.85 1.85 0.9 Q1.8 0.95 1.9 1.05 1.95 1.1 2.0 1.1 M1.45 1.65 L1.5 1.65 Q1.5 1.6 1.45 1.6 L1.4 1.6 1.45 1.65" fill="#3d2f85" fill-rule="evenodd" stroke="none"/>
    <path d="M0.55 0.0 L0.45 0.05 Q0.35 0.05 0.3 0.1 0.3 0.15 0.35 0.15 L0.45 0.25 Q0.45 0.3 0.4 0.3 L0.35 0.25 0.25 0.2 0.25 0.0 0.3 -0.1 Q0.25 -0.1 0.25 -0.1 L0.2 -0.1 0.2 -0.15 0.25 -0.15 0.5 -0.4 0.6 -0.4 Q0.65 -0.45 0.7 -0.45 L0.7 -0.6 0.7 -0.65 0.7 -0.8 0.65 -0.95 Q0.65 -1.0 0.7 -1.05 0.7 -1.1 0.8 -1.1 L0.85 -1.1 0.85 -1.2 0.9 -1.25 0.8 -1.4 0.7 -1.4 0.7 -1.5 0.75 -1.6 0.8 -1.6 0.9 -1.55 1.3 -1.25 1.3 -1.2 1.2 -1.2 1.15 -1.05 1.15 -0.85 1.05 -0.85 1.05 -0.4 1.05 -0.4 0.8 -0.4 0.55 -0.4 0.55 0.0" fill="#362c75" fill-rule="evenodd" stroke="none"/>
    <path d="M1.8 -1.65 L1.75 -1.65 1.65 -1.65 Q1.6 -1.65 1.6 -1.55 1.5 -1.55 1.55 -1.6 L1.6 -1.65 1.8 -1.65" fill="#5073f3" fill-rule="evenodd" stroke="none"/>
    <path d="M1.75 -1.65 L1.7 -1.55 1.6 -1.55 Q1.6 -1.65 1.65 -1.65 L1.75 -1.65" fill="#84fafe" fill-rule="evenodd" stroke="none"/>
    <path d="M0.2 -1.9 L0.25 -1.9 0.3 -1.95 0.3 -2.0 0.25 -2.05 0.2 -2.05 0.15 -2.0 0.15 -1.95 0.2 -1.9 M0.1 -2.0 Q0.1 -2.1 0.2 -2.1 L0.3 -2.05 0.3 -1.95 0.25 -1.85 0.15 -1.85 Q0.1 -1.9 0.1 -2.0" fill="#3e34ab" fill-rule="evenodd" stroke="none"/>
    <path d="M0.2 -1.9 L0.15 -1.95 0.15 -2.0 0.2 -2.05 0.25 -2.05 0.3 -2.0 0.3 -1.95 0.25 -1.9 0.2 -1.9" fill="#5b4bfa" fill-rule="evenodd" stroke="none"/>
    <path d="M0.75 -1.1 L0.65 -1.1 0.55 -1.1 Q0.5 -1.15 0.5 -1.2 L0.5 -1.35 0.45 -1.35 0.35 -1.4 Q0.3 -1.4 0.3 -1.5 L0.3 -1.6 Q0.35 -1.65 0.45 -1.7 L0.6 -1.65 Q0.65 -1.6 0.65 -1.5 L0.6 -1.35 0.7 -1.35 0.8 -1.35 0.85 -1.25 0.8 -1.15 0.75 -1.1 M0.45 -1.6 L0.35 -1.6 0.35 -1.45 0.4 -1.4 0.5 -1.4 0.55 -1.45 Q0.6 -1.55 0.55 -1.6 L0.45 -1.6 M0.6 -1.3 Q0.5 -1.25 0.55 -1.15 0.6 -1.1 0.65 -1.15 L0.8 -1.2 Q0.85 -1.25 0.8 -1.3 L0.7 -1.35 0.6 -1.3" fill="#4237a9" fill-rule="evenodd" stroke="none"/>
    <path d="M0.45 -1.6 L0.55 -1.6 Q0.6 -1.55 0.55 -1.45 L0.5 -1.4 0.4 -1.4 0.35 -1.45 0.35 -1.6 0.45 -1.6" fill="#5f4cf9" fill-rule="evenodd" stroke="none"/>
    <path d="M0.1 -1.35 L0.15 -1.35 Q0.15 -1.3 0.15 -1.3 0.2 -1.25 0.2 -1.3 0.2 -1.2 0.3 -1.15 L0.5 -1.05 Q0.5 -1.0 0.55 -0.95 L0.65 -0.9 0.65 -0.8 0.6 -0.7 0.65 -0.65 0.65 -0.6 0.65 -0.65 0.6 -0.65 0.5 -0.65 Q0.5 -0.65 0.5 -0.7 L0.55 -0.75 0.6 -0.8 Q0.65 -0.85 0.55 -0.9 L0.45 -0.95 0.45 -1.05 Q0.45 -1.1 0.4 -1.05 L0.2 -1.1 0.05 -1.25 0.05 -1.3 0.1 -1.35 M0.65 -0.6 L0.65 -0.6" fill="#4338ae" fill-rule="evenodd" stroke="none"/>
    <path d="M0.05 -1.3 L0.0 -1.35 -0.05 -1.45 0.05 -1.45 0.05 -1.3" fill="#7291fe" fill-rule="evenodd" stroke="none"/>
    <path d="M0.15 -1.35 L0.2 -1.35 0.2 -1.3 Q0.2 -1.25 0.15 -1.3 0.15 -1.3 0.15 -1.35" fill="#5a61f5" fill-rule="evenodd" stroke="none"/>
    <path d="M0.7 -1.3 L0.65 -1.25 Q0.55 -1.25 0.6 -1.2 L0.65 -1.2 0.75 -1.2 0.8 -1.25 0.8 -1.25 Q0.75 -1.3 0.7 -1.3 M0.6 -1.3 L0.7 -1.35 0.8 -1.3 Q0.85 -1.25 0.8 -1.2 L0.65 -1.15 Q0.6 -1.1 0.55 -1.15 0.5 -1.25 0.6 -1.3" fill="#595bf9" fill-rule="evenodd" stroke="none"/>
    <path d="M0.7 -1.3 Q0.75 -1.3 0.8 -1.25 L0.8 -1.25 0.75 -1.2 0.65 -1.2 0.6 -1.2 Q0.55 -1.25 0.65 -1.25 L0.7 -1.3" fill="#7591fe" fill-rule="evenodd" stroke="none"/>
    <path d="M0.8 -1.1 L0.75 -1.1 0.8 -1.15 0.85 -1.1 0.8 -1.1" fill="#5a5eef" fill-rule="evenodd" stroke="none"/>
    <path d="M0.6 -0.85 L0.55 -0.75 0.5 -0.75 0.5 -0.75 0.55 -0.85 Q0.6 -0.9 0.6 -0.85" fill="#7287ff" fill-rule="evenodd" stroke="none"/>
    <path d="M0.7 -0.6 L0.7 -0.65 0.7 -0.6" fill="#5359de" fill-rule="evenodd" stroke="none"/>
    <path d="M0.4 -1.05 L0.35 -1.05 0.3 -1.05 0.15 -1.1 Q0.05 -1.15 0.05 -1.25 L0.2 -1.1 0.4 -1.05" fill="#4c3ed6" fill-rule="evenodd" stroke="none"/>
    <path d="M0.35 -0.5 L0.3 -0.45 0.2 -0.45 0.1 -0.45 0.05 -0.55 Q0.0 -0.6 0.05 -0.65 0.1 -0.65 0.1 -0.75 L0.2 -0.9 0.3 -0.9 0.4 -0.85 Q0.4 -0.75 0.3 -0.7 L0.25 -0.65 0.25 -0.6 0.3 -0.55 0.35 -0.5 M0.15 -0.75 L0.25 -0.7 0.3 -0.75 Q0.35 -0.8 0.35 -0.85 L0.25 -0.9 Q0.15 -0.85 0.15 -0.75" fill="#8273ff" fill-rule="evenodd" stroke="none"/>
    <path d="M0.15 -0.75 Q0.15 -0.85 0.25 -0.9 L0.35 -0.85 Q0.35 -0.8 0.3 -0.75 L0.25 -0.7 0.15 -0.75" fill="#849ffe" fill-rule="evenodd" stroke="none"/>
    <path d="M0.2 0.3 L0.25 0.4 0.25 0.5 0.4 0.45 0.5 0.35 0.45 0.25 Q0.45 0.2 0.45 0.15 L0.55 0.1 0.6 0.05 0.6 0.0 0.65 -0.05 0.8 -0.1 1.0 -0.1 1.15 -0.05 1.15 0.0 1.05 0.05 Q1.05 0.1 1.05 0.25 L1.05 0.5 1.15 0.4 1.35 0.4 1.35 0.0 1.4 -0.1 1.55 -0.1 1.55 -0.1 1.6 -0.1 1.6 0.0 Q1.6 0.0 1.65 0.0 L1.7 -0.05 1.75 -0.1 1.85 -0.05 1.85 0.0 1.65 0.0 1.45 0.05 1.4 0.05 Q1.4 0.0 1.4 0.05 1.45 0.1 1.5 0.25 L1.5 0.5 1.45 0.5 1.35 0.55 1.4 0.6 1.5 0.65 Q1.55 0.7 1.6 0.8 L1.55 0.9 Q1.5 1.0 1.55 1.0 L1.5 1.0 Q1.55 0.95 1.5 0.9 L1.5 0.75 1.35 0.65 1.25 0.55 1.2 0.55 1.1 0.55 1.05 0.55 1.0 0.5 Q1.0 0.4 0.85 0.4 L0.75 0.4 0.7 0.35 0.75 0.3 0.75 0.2 Q0.75 0.1 0.65 0.1 0.6 0.05 0.55 0.15 0.5 0.2 0.5 0.25 L0.6 0.4 0.4 0.55 0.25 0.7 0.2 0.7 0.15 0.65 0.05 0.7 -0.05 0.75 -0.15 0.75 -0.2 0.65 -0.2 0.6 -0.2 0.6 -0.25 0.6 Q-0.4 0.7 -0.45 0.8 L-0.45 0.9 -0.5 1.0 -0.5 0.95 -0.5 0.8 -0.45 0.65 -0.35 0.6 -0.2 0.55 -0.15 0.6 -0.15 0.6 -0.15 0.65 -0.05 0.55 Q-0.05 0.5 -0.1 0.5 L-0.15 0.55 -0.15 0.5 -0.25 0.5 -0.35 0.5 -0.25 0.4 -0.15 0.4 -0.05 0.4 0.0 0.4 0.1 0.4 0.2 0.35 0.2 0.3 M0.9 0.05 L0.95 0.15 Q1.05 0.15 1.0 0.05 L0.9 0.05" fill="#3f3492" fill-rule="evenodd" stroke="none"/>
    <path d="M0.6 0.0 L0.55 0.0 0.55 -0.4 Q0.65 -0.25 0.75 -0.25 L1.05 -0.25 1.1 -0.25 1.2 -0.15 1.25 -0.05 1.25 -0.05 1.3 -0.05 Q1.25 -0.1 1.25 -0.15 L1.3 -0.3 Q1.3 -0.35 1.3 -0.3 L1.35 -0.3 1.4 -0.3 1.45 -0.35 1.5 -0.4 1.5 -0.4 1.45 -0.25 1.6 -0.25 1.8 -0.25 1.8 -0.1 1.7 -0.1 1.55 -0.1 1.4 -0.1 1.35 0.0 1.35 0.4 1.15 0.4 1.05 0.5 1.05 0.25 Q1.05 0.1 1.05 0.05 L1.15 0.05 1.15 -0.05 1.0 -0.1 0.8 -0.1 0.65 -0.05 0.6 0.0" fill="#479efe" fill-rule="evenodd" stroke="none"/>
    <path d="M1.05 -0.25 L0.75 -0.25 Q0.65 -0.25 0.55 -0.4 L0.8 -0.4 1.05 -0.4 1.05 -0.25" fill="#8dffff" fill-rule="evenodd" stroke="none"/>
    <path d="M1.15 -0.85 L1.15 -0.85 1.35 -0.85 1.45 -0.85 1.35 -0.75 1.15 -0.75 1.05 -0.85 1.15 -0.85" fill="#9cfffe" fill-rule="evenodd" stroke="none"/>
    <path d="M1.05 -0.85 L1.15 -0.75 1.35 -0.75 1.35 -0.5 Q1.3 -0.35 1.4 -0.3 L1.35 -0.3 1.3 -0.3 Q1.3 -0.35 1.3 -0.3 L1.25 -0.15 Q1.25 -0.1 1.3 -0.05 L1.25 -0.05 1.25 -0.05 1.2 -0.15 1.1 -0.25 1.15 -0.3 1.2 -0.35 Q1.2 -0.4 1.15 -0.4 L1.05 -0.4 1.05 -0.85 M1.05 -0.4 L1.05 -0.4" fill="#4daffe" fill-rule="evenodd" stroke="none"/>
    <path d="M1.4 -0.3 Q1.3 -0.35 1.35 -0.5 L1.35 -0.75 1.45 -0.85 1.5 -0.65 1.5 -0.4 1.45 -0.35 1.4 -0.3" fill="#443da3" fill-rule="evenodd" stroke="none"/>
    <path d="M1.05 -0.25 L1.05 -0.4 1.05 -0.4 1.2 -0.35 1.15 -0.3 1.1 -0.25 1.05 -0.25 M1.05 -0.4 L1.05 -0.4" fill="#c3fffe" fill-rule="evenodd" stroke="none"/>
    <path d="M1.05 -0.4 L1.15 -0.4 Q1.2 -0.4 1.2 -0.35 L1.05 -0.4" fill="#73f4ff" fill-rule="evenodd" stroke="none"/>
    <path d="M1.5 -0.4 L1.95 -0.4 1.9 -0.3 1.8 -0.25 1.6 -0.25 1.45 -0.25 1.5 -0.4" fill="#8dfeff" fill-rule="evenodd" stroke="none"/>
    <path d="M2.2 0.5 L2.0 0.65 1.8 0.65 1.65 0.5 1.65 0.35 Q1.65 0.25 1.7 0.15 1.75 0.1 1.8 0.05 L1.75 0.15 1.7 0.25 Q1.65 0.35 1.7 0.45 L1.7 0.5 Q1.8 0.65 1.95 0.6 2.1 0.55 2.2 0.45 L2.2 0.5" fill="#45339f" fill-rule="evenodd" stroke="none"/>
    <path d="M2.05 0.4 L2.05 0.3 Q2.0 0.25 1.95 0.25 1.85 0.2 1.85 0.3 L1.8 0.4 1.75 0.45 Q1.7 0.5 1.75 0.5 L1.85 0.5 1.95 0.5 2.05 0.4 M2.05 0.2 Q2.1 0.3 2.1 0.35 L2.0 0.5 1.9 0.55 1.75 0.5 Q1.7 0.5 1.7 0.45 L1.8 0.3 1.9 0.2 2.05 0.2" fill="#7656fe" fill-rule="evenodd" stroke="none"/>
    <path d="M2.05 0.4 L1.95 0.5 1.85 0.5 1.75 0.5 Q1.7 0.5 1.75 0.45 L1.8 0.4 1.85 0.3 Q1.85 0.2 1.95 0.25 2.0 0.25 2.05 0.3 L2.05 0.4" fill="#9469fe" fill-rule="evenodd" stroke="none"/>
    <path d="M2.05 0.2 L1.9 0.2 1.8 0.3 1.7 0.45 Q1.7 0.5 1.75 0.5 L1.9 0.55 2.0 0.5 2.1 0.35 Q2.1 0.3 2.05 0.2 M1.7 0.45 L1.75 0.3 Q1.75 0.2 1.8 0.15 1.85 0.1 1.95 0.15 2.1 0.15 2.1 0.25 2.2 0.3 2.15 0.4 L2.0 0.55 1.85 0.6 1.7 0.5 1.7 0.45" fill="#5d45f5" fill-rule="evenodd" stroke="none"/>
    <path d="M1.8 0.05 L2.0 0.1 Q2.1 0.1 2.2 0.2 L2.2 0.45 Q2.1 0.55 1.95 0.6 1.8 0.65 1.7 0.5 L1.85 0.6 2.0 0.55 2.15 0.4 Q2.2 0.3 2.1 0.25 2.1 0.15 1.95 0.15 1.85 0.1 1.8 0.15 1.75 0.2 1.75 0.3 L1.7 0.45 Q1.65 0.35 1.7 0.25 L1.75 0.15 1.8 0.05" fill="#4c39bf" fill-rule="evenodd" stroke="none"/>
    <path d="M2.1 1.1 L2.05 1.1 2.0 1.1 1.95 1.05 1.9 0.95 1.9 0.9 1.95 0.85 2.05 0.85 2.1 0.9 2.1 1.1" fill="#654df9" fill-rule="evenodd" stroke="none"/>
    <path d="M2.0 1.1 Q1.95 1.1 1.9 1.05 1.8 0.95 1.85 0.9 L1.9 0.85 2.0 0.8 2.1 0.85 2.1 0.9 2.15 1.0 2.1 1.1 2.1 0.9 2.05 0.85 1.95 0.85 1.9 0.9 1.9 0.95 1.95 1.05 2.0 1.1" fill="#4636b2" fill-rule="evenodd" stroke="none"/>
    <path d="M1.8 1.6 L1.7 1.75 1.6 1.7 1.55 1.7 1.5 1.55 1.4 1.55 1.35 1.55 1.35 1.5 1.4 1.45 1.5 1.45 1.55 1.4 1.55 1.25 1.55 1.15 1.6 1.2 Q1.65 1.25 1.65 1.2 L1.7 1.1 1.75 1.1 1.75 1.0 1.7 0.95 1.8 0.9 Q1.8 1.0 1.9 1.1 1.95 1.15 2.1 1.15 L2.15 1.1 2.2 1.1 2.2 2.2 1.85 2.2 1.8 2.1 Q1.8 2.0 1.85 2.0 L2.0 1.9 2.0 1.75 Q2.15 1.7 2.15 1.6 L2.1 1.55 2.1 1.5 2.0 1.35 1.8 1.3 Q1.75 1.35 1.75 1.45 L1.8 1.5 1.8 1.6" fill="#3a2c7a" fill-rule="evenodd" stroke="none"/>
    <path d="M1.45 1.15 Q1.55 1.15 1.5 1.2 L1.45 1.3 1.3 1.45 1.15 1.55 1.25 1.65 1.35 1.75 1.4 1.8 1.5 1.8 Q1.55 1.85 1.6 1.75 L1.6 1.85 1.55 1.85 1.5 1.9 Q1.45 1.95 1.55 1.95 L1.65 1.9 1.65 1.85 1.65 1.8 1.7 1.85 1.75 1.85 1.8 1.85 1.85 1.9 Q1.85 1.95 1.85 1.95 1.9 1.95 1.95 1.9 L1.95 1.8 1.9 1.7 Q1.9 1.65 1.95 1.65 L2.05 1.65 2.0 1.5 1.95 1.35 Q1.95 1.35 1.9 1.35 L1.85 1.35 1.8 1.4 1.8 1.45 Q1.9 1.6 1.8 1.65 L1.8 1.6 1.8 1.5 1.75 1.45 Q1.75 1.35 1.8 1.3 L2.0 1.35 2.1 1.5 2.1 1.55 2.15 1.6 Q2.15 1.7 2.0 1.75 L2.0 1.9 1.85 2.0 Q1.8 2.0 1.8 2.1 L1.85 2.2 1.35 2.2 Q1.35 2.1 1.3 2.1 1.25 2.1 1.25 2.2 L0.8 2.2 0.85 2.1 0.9 2.0 0.9 1.95 Q0.9 1.9 0.85 1.9 L0.8 1.9 0.85 1.75 0.85 1.6 0.9 1.65 1.0 1.65 1.1 1.6 1.05 1.5 0.85 1.5 0.85 1.3 0.75 1.3 0.75 1.25 0.85 1.25 0.9 1.3 0.9 1.35 0.9 1.4 1.15 1.4 1.35 1.3 1.45 1.2 1.45 1.15 M1.0 1.7 L0.95 1.7 Q0.95 1.7 0.9 1.75 L0.9 1.8 Q0.95 1.9 1.0 1.9 1.1 1.9 1.15 1.85 1.25 1.75 1.2 1.7 L1.15 1.6 Q1.1 1.6 1.1 1.65 L1.1 1.7 1.0 1.7 M1.8 1.9 L1.8 1.85 1.7 1.9 1.75 1.95 1.8 1.9 M1.6 2.0 L1.6 2.1 1.65 2.0 1.65 1.95 1.6 2.0" fill="#473090" fill-rule="evenodd" stroke="none"/>
    <path d="M1.05 0.05 L1.15 0.0 1.15 -0.05 1.15 0.05 1.05 0.05" fill="#4564de" fill-rule="evenodd" stroke="none"/>
    <path d="M1.5 1.0 L1.45 0.95 1.45 0.8 Q1.4 0.75 1.25 0.65 L1.1 0.55 1.2 0.55 1.25 0.55 1.35 0.65 1.5 0.75 1.5 0.9 Q1.55 0.95 1.5 1.0" fill="#4836b0" fill-rule="evenodd" stroke="none"/>
    <path d="M1.45 0.95 L1.4 1.0 1.35 0.8 Q1.3 0.7 1.2 0.65 L1.05 0.6 Q0.95 0.55 1.0 0.5 L1.05 0.55 1.1 0.55 1.25 0.65 Q1.4 0.75 1.45 0.8 L1.45 0.95" fill="#503cd8" fill-rule="evenodd" stroke="none"/>
    <path d="M1.05 1.1 Q1.1 1.15 1.15 1.15 L1.25 1.1 1.25 1.0 1.2 0.9 1.15 0.85 1.05 0.9 1.0 0.95 1.0 1.05 1.0 1.1 1.05 1.1 M0.55 0.6 L0.75 0.55 0.9 0.5 0.95 0.5 1.0 0.5 0.95 0.55 0.95 0.6 0.95 0.75 1.1 0.75 1.25 0.8 1.3 0.9 1.35 1.05 1.25 1.15 Q1.2 1.2 1.15 1.2 L1.05 1.15 1.0 1.1 0.95 1.05 Q0.95 1.0 0.9 1.0 L0.75 1.0 0.65 0.95 Q0.55 0.9 0.5 0.8 L0.5 0.7 0.55 0.6 0.55 0.7 0.6 0.8 0.7 0.9 0.8 0.85 0.9 0.7 Q0.95 0.65 0.9 0.55 0.9 0.5 0.8 0.55 L0.7 0.6 0.55 0.6" fill="#7b5dfe" fill-rule="evenodd" stroke="none"/>
    <path d="M1.0 0.5 Q0.95 0.55 1.05 0.6 L1.2 0.65 Q1.3 0.7 1.35 0.8 L1.4 1.0 1.35 1.15 1.2 1.25 1.1 1.25 1.0 1.2 Q0.9 1.15 0.75 1.1 L0.55 1.0 0.4 0.9 Q0.4 0.8 0.4 0.7 0.45 0.55 0.6 0.5 L0.9 0.45 0.95 0.45 1.0 0.5 0.95 0.5 0.9 0.5 0.75 0.55 0.55 0.6 0.5 0.7 0.5 0.8 Q0.55 0.9 0.65 0.95 L0.75 1.0 0.9 1.0 Q0.95 1.0 0.95 1.05 L1.0 1.1 1.05 1.15 1.15 1.2 Q1.2 1.2 1.25 1.15 L1.35 1.05 1.3 0.9 1.25 0.8 1.1 0.75 0.95 0.75 0.95 0.6 0.95 0.55 1.0 0.5" fill="#6148fa" fill-rule="evenodd" stroke="none"/>
    <path d="M1.0 1.05 L1.0 0.95 1.05 0.9 1.15 0.85 1.2 0.9 1.25 1.0 1.25 1.1 1.15 1.15 Q1.1 1.15 1.05 1.1 L1.1 1.1 1.15 1.1 1.2 1.05 1.15 1.0 1.1 1.0 Q1.05 1.05 1.0 1.05" fill="#9071fe" fill-rule="evenodd" stroke="none"/>
    <path d="M1.05 1.1 L1.0 1.1 1.0 1.05 Q1.05 1.05 1.1 1.0 L1.15 1.0 1.2 1.05 1.15 1.1 1.1 1.1 1.05 1.1" fill="#9599fe" fill-rule="evenodd" stroke="none"/>
    <path d="M1.4 1.0 L1.4 1.1 1.3 1.2 1.15 1.25 1.05 1.25 0.95 1.25 0.9 1.25 0.85 1.2 0.75 1.15 Q0.7 1.15 0.7 1.2 0.7 1.1 0.65 1.1 L0.6 1.05 0.55 1.0 0.75 1.1 Q0.9 1.15 1.0 1.2 L1.1 1.25 1.2 1.25 1.35 1.15 1.4 1.0" fill="#553fe5" fill-rule="evenodd" stroke="none"/>
    <path d="M1.65 1.0 L1.65 1.05 1.55 1.05 1.45 1.0 1.5 1.0 1.55 1.0 1.65 1.0" fill="#9efefe" fill-rule="evenodd" stroke="none"/>
    <path d="M1.65 1.05 L1.5 1.1 Q1.45 1.1 1.45 1.0 L1.55 1.05 1.65 1.05" fill="#4c9dfc" fill-rule="evenodd" stroke="none"/>
    <path d="M1.4 1.1 L1.45 1.15 1.45 1.2 1.35 1.3 1.15 1.4 0.9 1.4 0.9 1.35 Q1.0 1.4 1.0 1.35 L0.95 1.3 0.9 1.3 0.85 1.25 0.75 1.25 0.7 1.25 0.7 1.2 Q0.7 1.15 0.75 1.15 L0.85 1.2 0.9 1.25 0.95 1.25 1.05 1.25 1.15 1.25 1.3 1.2 1.4 1.1" fill="#6750fa" fill-rule="evenodd" stroke="none"/>
    <path d="M1.55 0.9 Q1.6 0.85 1.65 0.9 1.65 0.9 1.65 0.95 L1.55 0.9" fill="#8ee6fe" fill-rule="evenodd" stroke="none"/>
    <path d="M1.75 1.0 L1.7 1.05 1.65 1.05 1.7 1.0 1.75 1.0" fill="#6edeff" fill-rule="evenodd" stroke="none"/>
    <path d="M1.55 1.0 L1.55 0.9 1.65 0.95 1.65 1.0 1.55 1.0" fill="#489efd" fill-rule="evenodd" stroke="none"/>
    <path d="M1.55 1.15 L1.6 1.1 1.6 1.2 1.55 1.15" fill="#448cf7" fill-rule="evenodd" stroke="none"/>
    <path d="M0.9 0.05 L1.0 0.05 Q1.05 0.15 0.95 0.15 L0.9 0.05" fill="#5f58f2" fill-rule="evenodd" stroke="none"/>
    <path d="M0.6 0.1 Q0.55 0.1 0.55 0.15 L0.55 0.3 Q0.6 0.3 0.6 0.3 L0.7 0.3 0.7 0.15 0.6 0.1 M0.05 0.7 L0.15 0.65 0.2 0.7 0.25 0.7 0.4 0.55 0.6 0.4 0.5 0.25 Q0.5 0.2 0.55 0.15 0.6 0.05 0.65 0.1 0.75 0.1 0.75 0.2 L0.75 0.3 0.7 0.35 0.75 0.4 0.85 0.4 Q1.0 0.4 1.0 0.5 L0.95 0.45 0.9 0.45 0.7 0.45 Q0.55 0.45 0.5 0.55 L0.4 0.65 0.35 0.75 0.35 0.9 0.45 1.0 0.5 1.05 0.45 1.05 Q0.35 1.1 0.4 1.15 0.35 1.2 0.4 1.2 0.5 1.25 0.5 1.2 L0.5 1.15 0.45 1.25 Q0.35 1.25 0.35 1.2 L0.35 1.05 Q0.35 0.95 0.25 0.95 L0.1 1.15 Q0.0 1.25 -0.15 1.25 L-0.1 1.2 -0.05 1.15 0.05 1.1 0.15 0.95 0.15 0.8 0.05 0.7" fill="#4935ac" fill-rule="evenodd" stroke="none"/>
    <path d="M0.6 0.1 L0.7 0.15 0.7 0.3 0.6 0.3 Q0.6 0.3 0.55 0.3 L0.55 0.15 Q0.55 0.1 0.6 0.1" fill="#6c50f9" fill-rule="evenodd" stroke="none"/>
    <path d="M0.55 0.6 L0.7 0.6 0.8 0.55 Q0.9 0.5 0.9 0.55 0.95 0.65 0.9 0.7 L0.8 0.75 Q0.75 0.75 0.7 0.7 L0.65 0.7 0.55 0.7 0.55 0.6 M0.8 0.55 L0.75 0.6 0.8 0.7 0.9 0.65 0.9 0.6 0.8 0.55" fill="#8f8ffe" fill-rule="evenodd" stroke="none"/>
    <path d="M0.8 0.55 L0.9 0.6 0.9 0.65 0.8 0.7 0.75 0.6 0.8 0.55" fill="#99b9fe" fill-rule="evenodd" stroke="none"/>
    <path d="M0.7 1.2 L0.7 1.25 0.65 1.15 0.6 1.1 0.55 1.1 0.5 1.15 0.5 1.2 Q0.5 1.1 0.45 1.1 0.4 1.1 0.4 1.15 0.35 1.1 0.45 1.05 L0.5 1.05 0.45 1.0 0.35 0.9 0.35 0.75 0.4 0.65 0.5 0.55 Q0.55 0.45 0.7 0.45 L0.9 0.45 0.6 0.5 Q0.45 0.55 0.4 0.7 0.4 0.8 0.4 0.9 L0.55 1.0 0.6 1.05 0.65 1.1 Q0.7 1.1 0.7 1.2" fill="#503aca" fill-rule="evenodd" stroke="none"/>
    <path d="M0.0 0.15 L0.05 0.25 0.05 0.3 -0.05 0.4 -0.05 0.3 -0.05 0.25 -0.05 0.2 0.0 0.15" fill="#3f3b9d" fill-rule="evenodd" stroke="none"/>
    <path d="M0.05 0.3 L0.2 0.3 0.2 0.35 0.05 0.35 Q0.0 0.35 0.0 0.4 L-0.05 0.4 0.05 0.3 M-0.05 0.4 L-0.05 0.4" fill="#5170f0" fill-rule="evenodd" stroke="none"/>
    <path d="M0.2 0.35 L0.1 0.4 0.0 0.4 Q0.0 0.35 0.05 0.35 L0.2 0.35" fill="#8bfafe" fill-rule="evenodd" stroke="none"/>
    <path d="M0.05 0.7 L0.15 0.8 0.15 0.95 0.05 1.1 -0.05 1.15 0.05 1.1 0.1 0.95 0.1 0.8 0.05 0.7 M-0.05 1.15 L-0.05 1.15" fill="#523ac8" fill-rule="evenodd" stroke="none"/>
    <path d="M-0.05 0.75 L0.05 0.7 0.1 0.8 0.1 0.95 0.05 1.1 -0.05 1.15 -0.05 1.1 Q0.05 1.05 0.05 0.95 L0.05 0.8 -0.05 0.75" fill="#6245f6" fill-rule="evenodd" stroke="none"/>
    <path d="M0.5 2.2 L0.45 2.2 Q0.35 2.1 0.35 1.95 L0.35 1.7 Q0.3 1.65 0.3 1.55 L0.2 1.45 0.15 1.45 0.05 1.5 0.1 1.45 0.1 1.4 0.05 1.4 0.0 1.4 0.05 1.35 Q0.05 1.35 -0.05 1.35 L-0.1 1.35 -0.15 1.3 -0.2 1.25 -0.3 1.25 -0.25 1.2 Q-0.25 1.2 -0.3 1.15 L-0.3 1.2 -0.4 1.2 -0.45 1.15 Q-0.4 1.1 -0.35 1.1 L-0.25 1.1 -0.25 1.05 -0.25 1.0 Q-0.2 0.95 -0.25 0.95 L-0.3 0.95 -0.3 1.05 -0.45 1.05 -0.5 1.05 -0.5 1.0 -0.45 0.9 -0.45 0.8 Q-0.4 0.7 -0.25 0.6 L-0.2 0.6 -0.2 0.6 Q-0.3 0.65 -0.4 0.75 -0.45 0.9 -0.4 1.0 -0.4 1.05 -0.35 1.05 -0.3 1.0 -0.35 0.95 L-0.3 0.9 -0.25 0.9 -0.2 0.95 -0.2 1.05 -0.1 1.05 -0.05 1.1 -0.05 1.15 -0.1 1.2 -0.15 1.25 Q0.0 1.25 0.1 1.15 L0.25 0.95 Q0.35 0.95 0.35 1.05 L0.35 1.2 Q0.35 1.25 0.45 1.25 L0.5 1.15 0.55 1.1 0.6 1.1 0.65 1.15 0.7 1.25 0.75 1.25 0.75 1.3 Q0.7 1.3 0.7 1.3 L0.7 1.5 0.6 1.5 0.5 1.5 0.5 1.65 0.6 1.55 0.75 1.55 0.8 1.55 Q0.8 1.6 0.85 1.55 L0.95 1.55 1.05 1.5 1.1 1.6 1.0 1.65 0.9 1.65 0.85 1.6 0.85 1.75 0.8 1.9 0.75 1.9 0.7 1.9 0.65 1.85 0.65 1.8 Q0.7 1.65 0.55 1.7 L0.5 1.7 0.4 1.75 Q0.4 1.9 0.4 2.05 L0.45 2.1 0.5 2.2 M0.85 1.3 L0.85 1.5 0.8 1.55 0.8 1.45 0.8 1.4 0.8 1.35 0.85 1.3 M0.55 1.45 L0.65 1.45 0.65 1.4 Q0.7 1.3 0.6 1.35 0.55 1.35 0.5 1.4 L0.4 1.45 Q0.35 1.45 0.35 1.5 0.3 1.55 0.35 1.6 L0.5 1.6 0.5 1.5 Q0.5 1.45 0.55 1.45 M0.7 1.8 L0.7 1.85 0.8 1.75 Q0.8 1.65 0.75 1.65 0.7 1.65 0.7 1.75 L0.7 1.8 M-0.15 1.05 L-0.2 1.05 -0.25 1.1 -0.2 1.1 -0.15 1.1 -0.15 1.1 Q-0.1 1.05 -0.15 1.05 M-0.05 1.15 L-0.05 1.15" fill="#4a3499" fill-rule="evenodd" stroke="none"/>
    <path d="M0.5 1.2 Q0.5 1.25 0.4 1.2 0.35 1.2 0.4 1.15 0.4 1.1 0.45 1.1 0.5 1.1 0.5 1.2" fill="#6c4af7" fill-rule="evenodd" stroke="none"/>
    <path d="M-0.25 0.9 L-0.2 0.8 Q-0.2 0.8 -0.15 0.8 L-0.05 0.8 0.05 0.9 0.0 1.0 -0.1 1.05 -0.2 1.05 -0.2 0.95 -0.25 0.9" fill="#9e6cff" fill-rule="evenodd" stroke="none"/>
    <path d="M-0.15 0.75 L-0.05 0.75 0.05 0.8 0.05 0.95 Q0.05 1.05 -0.05 1.1 L-0.1 1.05 0.0 1.0 0.05 0.9 -0.05 0.8 -0.15 0.8 Q-0.2 0.8 -0.2 0.8 L-0.25 0.9 -0.3 0.9 -0.25 0.8 Q-0.25 0.75 -0.15 0.75" fill="#7c57ff" fill-rule="evenodd" stroke="none"/>
    <path d="M0.9 0.7 L0.8 0.85 0.7 0.9 0.6 0.8 0.55 0.7 0.65 0.7 0.7 0.7 Q0.75 0.75 0.8 0.75 L0.9 0.7" fill="#9771fe" fill-rule="evenodd" stroke="none"/>
    <path d="M0.9 1.35 L0.9 1.3 0.95 1.3 1.0 1.35 Q1.0 1.4 0.9 1.35" fill="#8586ff" fill-rule="evenodd" stroke="none"/>
    <path d="M0.75 1.3 L0.85 1.3 0.8 1.35 0.8 1.4 0.7 1.3 Q0.7 1.3 0.75 1.3" fill="#a2fdfe" fill-rule="evenodd" stroke="none"/>
    <path d="M0.85 1.5 L1.05 1.5 0.95 1.5 Q0.85 1.5 0.85 1.55 0.8 1.6 0.8 1.55 L0.85 1.5" fill="#5a7af5" fill-rule="evenodd" stroke="none"/>
    <path d="M0.8 1.4 L0.8 1.45 0.75 1.5 0.7 1.5 0.7 1.3 0.8 1.4" fill="#53abfe" fill-rule="evenodd" stroke="none"/>
    <path d="M0.8 1.45 L0.8 1.55 0.75 1.55 0.6 1.55 0.5 1.5 0.6 1.5 0.7 1.5 0.75 1.5 0.8 1.45" fill="#b3fefe" fill-rule="evenodd" stroke="none"/>
    <path d="M0.6 1.55 L0.5 1.65 0.5 1.5 0.6 1.5 0.7 1.5 0.6 1.5 0.5 1.5 0.6 1.55" fill="#578ffe" fill-rule="evenodd" stroke="none"/>
    <path d="M0.55 1.45 Q0.55 1.4 0.6 1.4 L0.65 1.4 0.65 1.45 0.55 1.45" fill="#98b4fe" fill-rule="evenodd" stroke="none"/>
    <path d="M0.65 1.4 L0.6 1.4 Q0.55 1.4 0.55 1.45 0.5 1.45 0.5 1.5 L0.5 1.6 0.35 1.6 Q0.3 1.55 0.35 1.5 0.35 1.45 0.4 1.45 L0.5 1.4 Q0.55 1.35 0.6 1.35 0.7 1.3 0.65 1.4" fill="#7354f7" fill-rule="evenodd" stroke="none"/>
    <path d="M0.7 1.8 L0.7 1.75 Q0.7 1.65 0.75 1.65 0.8 1.65 0.8 1.75 L0.7 1.85 0.7 1.8" fill="#5493fd" fill-rule="evenodd" stroke="none"/>
    <path d="M0.65 1.8 L0.65 1.85 Q0.6 1.8 0.55 1.85 0.5 1.95 0.6 2.0 L0.7 2.0 0.7 1.9 0.75 1.9 Q0.8 1.95 0.75 2.05 L0.6 2.05 0.55 2.0 0.5 1.9 Q0.5 1.85 0.55 1.8 0.6 1.75 0.65 1.8" fill="#8f50fe" fill-rule="evenodd" stroke="none"/>
    <path d="M0.8 1.9 L0.85 1.9 Q0.85 2.0 0.8 2.05 0.7 2.15 0.6 2.1 0.5 2.1 0.45 2.0 0.4 1.85 0.5 1.75 L0.55 1.7 Q0.7 1.65 0.65 1.8 0.6 1.75 0.55 1.8 0.5 1.85 0.5 1.9 L0.55 2.0 0.6 2.05 0.75 2.05 Q0.8 1.95 0.75 1.9 L0.8 1.9" fill="#7140f5" fill-rule="evenodd" stroke="none"/>
    <path d="M0.95 1.7 L1.0 1.7 1.0 1.75 1.05 1.8 1.1 1.75 1.1 1.7 1.1 1.65 Q1.2 1.65 1.15 1.75 1.15 1.8 1.1 1.85 L1.0 1.8 Q0.95 1.75 0.95 1.7" fill="#6e46f6" fill-rule="evenodd" stroke="none"/>
    <path d="M0.8 1.55 L0.75 1.55 0.8 1.55" fill="#4d89fa" fill-rule="evenodd" stroke="none"/>
    <path d="M1.1 1.65 Q1.1 1.6 1.15 1.6 L1.2 1.7 Q1.25 1.75 1.15 1.85 1.1 1.9 1.0 1.9 0.95 1.9 0.9 1.8 L0.9 1.75 Q0.95 1.7 0.95 1.7 0.95 1.75 1.0 1.8 L1.1 1.85 Q1.15 1.8 1.15 1.75 1.2 1.65 1.1 1.65" fill="#5536b6" fill-rule="evenodd" stroke="none"/>
    <path d="M0.85 1.55 Q0.85 1.5 0.95 1.5 L1.05 1.5 0.95 1.55 0.85 1.55" fill="#96fbfe" fill-rule="evenodd" stroke="none"/>
    <path d="M1.0 1.7 L1.1 1.7 1.1 1.75 1.05 1.8 1.0 1.75 1.0 1.7" fill="#9660fd" fill-rule="evenodd" stroke="none"/>
    <path d="M0.05 1.5 Q0.0 1.45 0.0 1.5 L-0.05 1.55 -0.1 1.6 -0.15 1.65 -0.2 1.7 -0.25 1.75 -0.35 1.85 -0.35 1.9 Q-0.35 1.95 -0.4 1.95 L-0.4 1.95 -0.45 1.95 -0.5 2.0 -0.55 2.05 -0.6 2.05 -0.65 2.05 -0.65 2.0 -0.65 2.0 Q-0.55 2.05 -0.5 1.95 L-0.5 1.75 Q-0.4 1.8 -0.3 1.7 -0.3 1.65 -0.35 1.65 L-0.45 1.65 -0.5 1.7 -0.55 1.75 -0.55 1.65 -0.55 1.6 -0.5 1.5 -0.55 1.5 Q-0.5 1.45 -0.5 1.35 L-0.55 1.2 Q-0.45 1.2 -0.45 1.3 L-0.45 1.35 -0.4 1.4 -0.4 1.2 -0.3 1.2 -0.3 1.25 -0.2 1.25 -0.15 1.3 -0.1 1.35 -0.05 1.35 Q0.05 1.35 0.05 1.35 L0.0 1.4 0.05 1.4 0.1 1.4 0.1 1.45 0.05 1.5 M-0.65 2.05 L-0.65 2.05" fill="#573595" fill-rule="evenodd" stroke="none"/>
    <path d="M0.45 2.2 L0.15 2.2 Q-0.1 2.15 -0.2 2.0 L-0.3 1.9 -0.35 1.85 -0.25 1.75 -0.2 1.7 -0.15 1.65 -0.1 1.6 -0.05 1.55 0.0 1.5 Q0.0 1.45 0.05 1.5 L0.15 1.45 0.2 1.45 0.3 1.55 Q0.3 1.65 0.35 1.7 L0.35 1.95 Q0.35 2.1 0.45 2.2" fill="#4a2c81" fill-rule="evenodd" stroke="none"/>
    <path d="M0.8 2.2 L0.5 2.2 0.45 2.1 0.4 2.05 Q0.4 1.9 0.4 1.75 L0.5 1.7 0.55 1.7 0.5 1.75 Q0.4 1.8 0.4 1.9 L0.45 2.05 0.6 2.15 0.75 2.15 0.85 2.05 0.85 1.9 Q0.9 1.9 0.9 1.95 L0.9 2.0 0.85 2.1 0.8 2.2" fill="#5733ae" fill-rule="evenodd" stroke="none"/>
    <path d="M0.5 1.75 Q0.4 1.85 0.45 2.0 0.5 2.1 0.6 2.1 0.7 2.15 0.8 2.05 0.85 2.0 0.85 1.9 L0.85 2.05 0.75 2.15 0.6 2.15 0.45 2.05 0.4 1.9 Q0.4 1.8 0.5 1.75" fill="#6037cc" fill-rule="evenodd" stroke="none"/>
    <path d="M0.7 1.9 L0.7 2.0 0.6 2.0 Q0.5 1.95 0.55 1.85 0.6 1.8 0.65 1.85 L0.7 1.9" fill="#bf62fe" fill-rule="evenodd" stroke="none"/>
    <path d="M1.8 1.7 L1.8 1.65 Q1.9 1.6 1.8 1.45 L1.8 1.4 1.85 1.35 1.9 1.35 Q1.95 1.35 1.95 1.35 L2.0 1.5 2.05 1.65 1.95 1.65 1.95 1.6 1.9 1.6 1.85 1.65 1.8 1.7 M1.85 1.4 Q1.8 1.45 1.85 1.5 L1.95 1.55 1.95 1.45 Q1.9 1.35 1.85 1.4 M1.95 1.6 Q2.0 1.65 2.0 1.65 L2.0 1.55 Q1.95 1.6 1.95 1.6" fill="#5e56f5" fill-rule="evenodd" stroke="none"/>
    <path d="M1.85 1.4 Q1.9 1.35 1.95 1.45 L1.95 1.55 1.85 1.5 Q1.8 1.45 1.85 1.4" fill="#7c93fe" fill-rule="evenodd" stroke="none"/>
    <path d="M1.95 1.9 Q1.9 1.95 1.85 1.95 1.85 1.95 1.85 1.9 L1.9 1.85 1.9 1.8 Q1.85 1.75 1.85 1.8 L1.8 1.85 1.75 1.85 1.8 1.75 1.85 1.75 Q1.9 1.75 1.95 1.8 L1.95 1.9" fill="#6654f7" fill-rule="evenodd" stroke="none"/>
    <path d="M1.75 1.85 L1.75 1.75 1.8 1.7 1.85 1.65 1.9 1.6 1.95 1.6 1.95 1.65 Q1.9 1.65 1.9 1.7 L1.95 1.8 1.95 1.9 1.95 1.8 Q1.9 1.75 1.85 1.75 L1.8 1.75 1.75 1.85" fill="#4a3ab7" fill-rule="evenodd" stroke="none"/>
    <path d="M1.6 1.75 L1.65 1.75 Q1.7 1.75 1.65 1.8 L1.6 1.75" fill="#9ee2ff" fill-rule="evenodd" stroke="none"/>
    <path d="M1.65 1.8 L1.65 1.85 1.6 1.85 1.6 1.75 1.65 1.8" fill="#589bfe" fill-rule="evenodd" stroke="none"/>
    <path d="M1.95 1.6 Q1.95 1.6 2.0 1.55 L2.0 1.65 Q2.0 1.65 1.95 1.6" fill="#8193fe" fill-rule="evenodd" stroke="none"/>
    <path d="M1.85 1.9 L1.8 1.85 1.85 1.8 Q1.85 1.75 1.9 1.8 L1.9 1.85 1.85 1.9" fill="#8d93fe" fill-rule="evenodd" stroke="none"/>
    <path d="M1.45 1.65 L1.4 1.6 1.45 1.6 Q1.5 1.6 1.5 1.65 L1.45 1.65" fill="#6547f3" fill-rule="evenodd" stroke="none"/>
    <path d="M1.35 2.2 L1.25 2.2 Q1.25 2.1 1.3 2.1 1.35 2.1 1.35 2.2" fill="#8667fb" fill-rule="evenodd" stroke="none"/>
    <path d="M1.8 1.9 L1.75 1.95 1.7 1.9 1.8 1.85 1.8 1.9" fill="#87defe" fill-rule="evenodd" stroke="none"/>
    <path d="M1.65 1.85 L1.65 1.9 1.55 1.9 Q1.5 1.9 1.5 1.9 L1.55 1.85 1.6 1.85 1.65 1.85" fill="#cbfcff" fill-rule="evenodd" stroke="none"/>
    <path d="M1.6 2.0 L1.65 1.95 1.65 2.0 1.6 2.1 1.6 2.0" fill="#528cfc" fill-rule="evenodd" stroke="none"/>
    <path d="M1.65 1.9 L1.55 1.95 Q1.45 1.95 1.5 1.9 1.5 1.9 1.55 1.9 L1.65 1.9" fill="#629bfe" fill-rule="evenodd" stroke="none"/>
    <path d="M-0.15 0.15 L0.0 0.15 -0.05 0.2 -0.05 0.25 -0.15 0.15 -0.15 0.15" fill="#9afefe" fill-rule="evenodd" stroke="none"/>
    <path d="M-0.15 0.15 L-0.15 0.3 -0.15 0.15 -0.15 0.15 M-0.15 0.3 L-0.15 0.3" fill="#4453c5" fill-rule="evenodd" stroke="none"/>
    <path d="M-0.05 0.25 L-0.05 0.3 Q-0.05 0.35 -0.1 0.35 L-0.15 0.3 -0.15 0.15 -0.05 0.25" fill="#4ca7ff" fill-rule="evenodd" stroke="none"/>
    <path d="M-0.25 0.4 L-0.35 0.5 -0.35 0.4 Q-0.4 0.3 -0.3 0.3 L-0.2 0.3 -0.2 0.35 -0.15 0.35 -0.25 0.35 -0.35 0.35 -0.25 0.4" fill="#528ffd" fill-rule="evenodd" stroke="none"/>
    <path d="M-0.15 0.4 L-0.25 0.4 -0.35 0.35 -0.25 0.35 -0.15 0.35 -0.15 0.3 -0.1 0.35 Q-0.05 0.35 -0.05 0.3 L-0.05 0.4 -0.05 0.4 -0.1 0.4 -0.15 0.4 M-0.15 0.3 L-0.15 0.3" fill="#a3fdfe" fill-rule="evenodd" stroke="none"/>
    <path d="M-0.05 0.4 L-0.15 0.4 -0.1 0.4 -0.05 0.4" fill="#4687f7" fill-rule="evenodd" stroke="none"/>
    <path d="M-0.15 0.55 L-0.1 0.5 Q-0.05 0.5 -0.05 0.55 L-0.15 0.65 -0.15 0.6 -0.15 0.55" fill="#4d94fa" fill-rule="evenodd" stroke="none"/>
    <path d="M-1.15 0.55 L-1.0 0.55 -0.9 0.55 -1.0 0.55 -1.15 0.55 -1.15 0.55" fill="#75acfd" fill-rule="evenodd" stroke="none"/>
    <path d="M-0.85 0.85 L-0.85 0.85 -0.9 0.9 -0.95 0.9 -1.0 0.85 -0.85 0.85" fill="#889afe" fill-rule="evenodd" stroke="none"/>
    <path d="M-0.85 0.8 L-0.85 0.8 Q-0.75 0.85 -0.8 0.9 -0.9 1.05 -1.0 0.95 L-1.05 0.9 -1.05 0.85 -1.0 0.85 -0.95 0.9 -0.9 0.9 -0.85 0.85 -0.85 0.85 -0.85 0.8" fill="#6358f5" fill-rule="evenodd" stroke="none"/>
    <path d="M-2.2 1.35 L-2.2 0.65 Q-2.1 0.7 -2.0 0.7 L-1.9 0.65 -1.85 0.65 -1.8 0.8 -1.8 0.9 -1.65 1.1 Q-1.55 1.2 -1.45 1.2 L-1.3 1.2 -1.25 1.1 -1.25 1.1 -1.2 1.1 Q-1.15 1.1 -1.15 1.0 L-1.15 0.95 -1.1 1.0 Q-1.05 1.05 -0.9 1.05 -0.8 1.05 -0.75 0.95 L-0.75 1.0 -0.7 1.0 Q-0.65 1.05 -0.65 1.1 -0.7 1.15 -0.75 1.1 L-0.85 1.1 Q-0.9 1.1 -0.9 1.1 L-0.9 1.15 Q-0.8 1.2 -0.7 1.3 L-0.65 1.35 -0.6 1.35 -0.6 1.15 -0.5 0.95 -0.5 1.0 -0.5 1.05 -0.45 1.05 -0.45 1.1 -0.45 1.15 -0.4 1.2 -0.4 1.4 -0.45 1.35 -0.45 1.3 Q-0.45 1.2 -0.55 1.2 L-0.5 1.35 Q-0.5 1.45 -0.55 1.5 L-0.65 1.5 -0.65 1.55 -0.7 1.5 -0.7 1.4 Q-0.7 1.3 -0.8 1.3 -0.85 1.2 -0.95 1.25 L-1.1 1.3 Q-1.15 1.4 -1.1 1.5 L-1.0 1.6 -0.9 1.6 -0.8 1.6 Q-0.75 1.55 -0.75 1.6 L-0.7 1.65 -0.85 1.65 -0.85 1.85 Q-0.85 1.9 -0.9 1.9 L-0.95 1.95 Q-0.95 1.9 -1.05 1.9 L-1.1 1.85 -1.15 1.8 -1.15 1.7 Q-1.1 1.65 -1.15 1.6 L-1.2 1.55 -1.3 1.6 -1.35 1.65 -1.4 1.75 -1.4 1.8 -1.45 1.8 -1.45 1.75 -1.5 1.65 -1.5 1.6 -1.45 1.6 Q-1.4 1.55 -1.4 1.5 L-1.5 1.5 Q-1.5 1.5 -1.55 1.55 L-1.55 1.5 -1.55 1.45 Q-1.5 1.4 -1.55 1.4 L-1.6 1.4 -1.6 1.5 -1.7 1.5 Q-1.85 1.45 -1.9 1.55 -2.0 1.65 -1.95 1.75 L-2.05 1.7 -2.05 1.65 -2.0 1.5 Q-1.95 1.45 -2.0 1.35 L-2.1 1.35 -2.2 1.35 M-0.7 1.05 Q-0.7 1.0 -0.75 1.05 L-0.75 1.1 -0.7 1.1 -0.7 1.05" fill="#502e88" fill-rule="evenodd" stroke="none"/>
    <path d="M-0.7 1.05 L-0.7 1.1 -0.75 1.1 -0.75 1.05 Q-0.7 1.0 -0.7 1.05" fill="#7269f1" fill-rule="evenodd" stroke="none"/>
    <path d="M-1.05 0.85 L-1.05 0.9 -1.0 0.95 Q-0.9 1.05 -0.8 0.9 -0.8 1.0 -0.95 1.0 -1.05 1.0 -1.1 0.9 L-1.1 0.85 Q-1.1 0.8 -1.05 0.85" fill="#513fbd" fill-rule="evenodd" stroke="none"/>
    <path d="M-0.2 0.65 L-0.15 0.75 Q-0.25 0.75 -0.25 0.8 L-0.3 0.9 -0.35 0.95 Q-0.4 0.85 -0.35 0.75 -0.3 0.7 -0.2 0.65" fill="#5f46f4" fill-rule="evenodd" stroke="none"/>
    <path d="M-0.25 1.05 L-0.3 1.05 -0.3 0.95 -0.25 1.0 -0.25 1.05" fill="#5bb3fe" fill-rule="evenodd" stroke="none"/>
    <path d="M-0.25 1.0 L-0.3 0.95 -0.25 0.95 Q-0.2 0.95 -0.25 1.0" fill="#a7f4fe" fill-rule="evenodd" stroke="none"/>
    <path d="M-0.2 0.6 L-0.2 0.65 Q-0.3 0.7 -0.35 0.75 -0.4 0.85 -0.35 0.95 -0.3 1.0 -0.35 1.05 -0.4 1.05 -0.4 1.0 -0.45 0.9 -0.4 0.75 -0.3 0.65 -0.2 0.6" fill="#503ac0" fill-rule="evenodd" stroke="none"/>
    <path d="M-0.3 1.05 L-0.25 1.05 -0.25 1.1 -0.35 1.1 -0.45 1.1 -0.45 1.05 -0.3 1.05" fill="#cafefe" fill-rule="evenodd" stroke="none"/>
    <path d="M-0.45 1.1 L-0.35 1.1 -0.25 1.1 -0.35 1.1 Q-0.4 1.1 -0.45 1.15 L-0.45 1.1" fill="#5dadfd" fill-rule="evenodd" stroke="none"/>
    <path d="M-0.3 1.2 L-0.3 1.15 Q-0.25 1.2 -0.25 1.2 L-0.3 1.25 -0.3 1.2" fill="#5b9dff" fill-rule="evenodd" stroke="none"/>
    <path d="M-0.15 1.05 Q-0.1 1.05 -0.15 1.1 L-0.15 1.1 -0.2 1.1 -0.25 1.1 -0.2 1.05 -0.15 1.05" fill="#8ae7fe" fill-rule="evenodd" stroke="none"/>
    <path d="M-0.9 0.55 L-1.0 0.65 -1.15 0.65 -1.15 0.65 -1.2 0.6 -1.15 0.55 -1.0 0.55 -0.9 0.55" fill="#90fcff" fill-rule="evenodd" stroke="none"/>
    <path d="M-1.4 0.25 L-1.35 0.25 -1.25 0.25 Q-1.15 0.25 -1.2 0.3 L-1.3 0.4 -1.4 0.25" fill="#a5fefe" fill-rule="evenodd" stroke="none"/>
    <path d="M-1.7 0.55 L-1.4 0.55 -1.4 0.65 -1.45 0.65 -1.55 0.65 -1.6 0.6 Q-1.65 0.55 -1.65 0.55 L-1.7 0.55 -1.7 0.55 M-1.3 0.65 L-1.4 0.55 -1.35 0.55 -1.3 0.5 -1.3 0.6 -1.3 0.65" fill="#a6f8fe" fill-rule="evenodd" stroke="none"/>
    <path d="M-1.2 0.3 L-1.15 0.4 -1.15 0.55 -1.15 0.55 -1.2 0.6 -1.3 0.6 -1.3 0.5 -1.3 0.4 -1.2 0.3" fill="#443c9f" fill-rule="evenodd" stroke="none"/>
    <path d="M-1.4 0.55 L-1.4 0.45 -1.4 0.25 -1.3 0.4 -1.3 0.5 -1.35 0.55 -1.4 0.55" fill="#52a4fd" fill-rule="evenodd" stroke="none"/>
    <path d="M-1.35 0.65 L-1.4 0.65 -1.4 0.55 -1.3 0.65 -1.35 0.65" fill="#e4fffe" fill-rule="evenodd" stroke="none"/>
    <path d="M-1.15 0.65 L-1.2 0.65 -1.25 0.7 -1.3 0.7 -1.35 0.65 -1.3 0.65 -1.3 0.6 -1.2 0.6 -1.15 0.55 -1.2 0.6 -1.15 0.65" fill="#509dfd" fill-rule="evenodd" stroke="none"/>
    <path d="M-1.55 0.65 L-1.55 0.65 -1.65 0.55 Q-1.65 0.55 -1.6 0.6 L-1.55 0.65" fill="#effffe" fill-rule="evenodd" stroke="none"/>
    <path d="M-1.55 0.65 L-1.7 0.8 -1.7 0.55 -1.65 0.55 -1.55 0.65" fill="#5bb1fe" fill-rule="evenodd" stroke="none"/>
    <path d="M-1.2 1.1 L-1.25 1.1 -1.25 1.1 -1.3 1.2 -1.45 1.2 Q-1.55 1.2 -1.65 1.1 L-1.8 0.9 -1.75 0.8 -1.75 0.7 -1.7 0.75 -1.65 0.85 Q-1.75 0.8 -1.7 0.9 L-1.65 1.0 -1.55 1.1 Q-1.45 1.1 -1.45 1.05 L-1.45 1.0 -1.45 0.95 -1.4 0.95 -1.4 1.05 -1.35 1.0 -1.2 1.1" fill="#58349c" fill-rule="evenodd" stroke="none"/>
    <path d="M-1.65 0.85 L-1.55 0.85 -1.55 0.95 -1.45 1.0 -1.45 1.05 -1.6 1.0 -1.65 0.85" fill="#7a4af8" fill-rule="evenodd" stroke="none"/>
    <path d="M-1.45 1.05 Q-1.45 1.1 -1.55 1.1 L-1.65 1.0 -1.7 0.9 Q-1.75 0.8 -1.65 0.85 L-1.6 1.0 -1.45 1.05" fill="#6138bf" fill-rule="evenodd" stroke="none"/>
    <path d="M-1.55 0.85 L-1.5 0.85 -1.45 0.85 Q-1.4 0.85 -1.45 0.95 L-1.45 1.0 -1.55 0.95 -1.55 0.85" fill="#b36efe" fill-rule="evenodd" stroke="none"/>
    <path d="M-1.4 0.95 L-1.4 0.8 -1.3 0.8 -1.3 0.9 -1.35 1.0 -1.4 1.05 -1.4 0.95" fill="#589dfe" fill-rule="evenodd" stroke="none"/>
    <path d="M-1.4 0.8 L-1.3 0.75 Q-1.25 0.75 -1.3 0.8 L-1.4 0.8" fill="#4a59d7" fill-rule="evenodd" stroke="none"/>
    <path d="M-1.0 1.5 Q-0.95 1.6 -0.85 1.55 -0.75 1.55 -0.75 1.45 -0.7 1.35 -0.8 1.3 -0.85 1.25 -0.95 1.25 -1.0 1.25 -1.05 1.35 -1.1 1.45 -1.0 1.5 M-0.7 1.65 L-0.75 1.6 Q-0.75 1.55 -0.8 1.6 L-0.9 1.6 -1.0 1.6 -1.1 1.5 Q-1.15 1.4 -1.1 1.3 L-0.95 1.25 Q-0.85 1.2 -0.8 1.3 -0.7 1.3 -0.7 1.4 L-0.7 1.5 -0.65 1.55 -0.65 1.65 -0.7 1.65" fill="#5a369d" fill-rule="evenodd" stroke="none"/>
    <path d="M-1.0 1.5 Q-1.1 1.45 -1.05 1.35 -1.0 1.25 -0.95 1.25 -0.85 1.25 -0.8 1.3 -0.7 1.35 -0.75 1.45 -0.75 1.55 -0.85 1.55 -0.95 1.6 -1.0 1.5 L-0.9 1.55 -0.8 1.5 Q-0.75 1.45 -0.8 1.35 -0.8 1.3 -0.9 1.3 L-1.0 1.35 -1.0 1.5" fill="#623dbf" fill-rule="evenodd" stroke="none"/>
    <path d="M-1.5 1.55 L-1.5 1.5 -1.4 1.5 -1.45 1.55 -1.5 1.55" fill="#b0eafe" fill-rule="evenodd" stroke="none"/>
    <path d="M-1.5 1.5 L-1.5 1.55 -1.55 1.55 Q-1.5 1.5 -1.5 1.5 M-1.55 1.55 L-1.55 1.55" fill="#6680f0" fill-rule="evenodd" stroke="none"/>
    <path d="M-0.85 2.2 L-2.1 2.2 -2.0 2.1 -1.9 2.05 -1.9 1.9 -1.95 1.75 Q-2.0 1.65 -1.9 1.55 -1.85 1.45 -1.7 1.5 L-1.7 1.5 Q-1.75 1.6 -1.65 1.55 L-1.6 1.55 -1.6 1.55 -1.55 1.55 -1.55 1.55 -1.5 1.55 -1.45 1.55 -1.4 1.5 Q-1.4 1.55 -1.45 1.6 L-1.5 1.6 -1.5 1.65 -1.45 1.75 -1.45 1.8 -1.4 1.8 -1.4 1.75 -1.35 1.65 -1.3 1.6 -1.2 1.55 -1.15 1.6 Q-1.1 1.65 -1.15 1.7 L-1.15 1.8 -1.1 1.85 -1.05 1.9 Q-0.95 1.9 -0.95 1.95 L-0.9 1.9 Q-0.85 1.9 -0.85 1.85 L-0.85 1.8 -0.75 1.85 -0.65 1.85 -0.65 2.05 -0.65 2.05 -0.7 2.05 -0.7 2.15 -0.8 2.15 -0.85 2.2 M-1.25 1.65 Q-1.25 1.7 -1.2 1.7 L-1.15 1.65 -1.15 1.6 -1.2 1.6 -1.25 1.6 -1.25 1.65 M-1.75 1.55 Q-1.75 1.55 -1.8 1.6 L-1.85 1.7 -1.85 1.75 -1.8 1.8 -1.75 1.9 Q-1.7 2.0 -1.65 1.95 L-1.6 1.95 -1.55 1.85 -1.5 1.8 Q-1.55 1.75 -1.6 1.75 L-1.7 1.7 -1.65 1.65 -1.75 1.6 -1.75 1.55 M-1.6 1.7 L-1.55 1.65 Q-1.55 1.6 -1.55 1.6 -1.6 1.6 -1.6 1.7" fill="#652b91" fill-rule="evenodd" stroke="none"/>
    <path d="M-1.25 1.65 L-1.25 1.6 -1.2 1.6 -1.15 1.6 -1.15 1.65 -1.2 1.7 Q-1.25 1.7 -1.25 1.65" fill="#994cf7" fill-rule="evenodd" stroke="none"/>
    <path d="M-1.6 1.4 L-1.55 1.4 Q-1.5 1.4 -1.55 1.45 L-1.6 1.4" fill="#d8e7fe" fill-rule="evenodd" stroke="none"/>
    <path d="M-1.55 1.55 L-1.55 1.55 -1.55 1.55 -1.6 1.55 -1.6 1.55 -1.65 1.55 -1.7 1.5 -1.7 1.5 -1.6 1.5 -1.55 1.5 -1.55 1.55" fill="#effdff" fill-rule="evenodd" stroke="none"/>
    <path d="M-1.55 1.45 L-1.55 1.5 -1.6 1.5 -1.6 1.4 -1.55 1.45" fill="#77a1fe" fill-rule="evenodd" stroke="none"/>
    <path d="M-1.7 1.5 L-1.65 1.55 -1.6 1.55 -1.6 1.55 -1.6 1.55 -1.65 1.55 Q-1.75 1.6 -1.7 1.5" fill="#7f9bfe" fill-rule="evenodd" stroke="none"/>
    <path d="M-2.1 2.2 L-2.2 2.2 -2.2 1.35 -2.1 1.35 -2.0 1.35 Q-1.95 1.45 -2.0 1.5 L-2.05 1.65 -2.05 1.7 -1.95 1.75 -1.9 1.9 -1.9 2.05 -2.0 2.1 -2.1 2.2" fill="#422475" fill-rule="evenodd" stroke="none"/>
    <path d="M-1.8 1.75 L-1.8 1.75 -1.75 1.75 -1.75 1.7 -1.8 1.75 M-1.6 1.75 Q-1.55 1.75 -1.55 1.8 L-1.6 1.9 Q-1.65 1.95 -1.65 1.95 L-1.75 1.9 Q-1.7 1.85 -1.75 1.8 L-1.85 1.7 -1.8 1.65 -1.75 1.55 -1.75 1.6 -1.65 1.65 -1.7 1.7 -1.6 1.75 M-1.65 1.8 L-1.7 1.85 -1.7 1.9 -1.65 1.9 -1.6 1.85 -1.6 1.8 -1.65 1.8" fill="#9c41fa" fill-rule="evenodd" stroke="none"/>
    <path d="M-1.8 1.75 L-1.75 1.7 -1.75 1.75 -1.8 1.75 -1.8 1.75" fill="#e75cff" fill-rule="evenodd" stroke="none"/>
    <path d="M-1.6 1.75 Q-1.55 1.75 -1.5 1.8 L-1.55 1.85 -1.6 1.95 -1.65 1.95 Q-1.7 2.0 -1.75 1.9 L-1.8 1.8 -1.85 1.75 -1.85 1.7 -1.8 1.6 Q-1.75 1.55 -1.75 1.55 L-1.8 1.65 -1.85 1.7 -1.75 1.8 Q-1.7 1.85 -1.75 1.9 L-1.65 1.95 Q-1.65 1.95 -1.6 1.9 L-1.55 1.8 Q-1.55 1.75 -1.6 1.75" fill="#7630b5" fill-rule="evenodd" stroke="none"/>
    <path d="M-1.6 1.7 Q-1.6 1.6 -1.55 1.6 -1.55 1.6 -1.55 1.65 L-1.6 1.7" fill="#718afc" fill-rule="evenodd" stroke="none"/>
    <path d="M-1.65 1.8 L-1.6 1.8 -1.6 1.85 -1.65 1.9 -1.7 1.9 -1.7 1.85 -1.65 1.8" fill="#e65efe" fill-rule="evenodd" stroke="none"/>
    <path d="M-0.5 1.75 L-0.55 1.75 -0.5 1.7 -0.45 1.65 -0.35 1.65 Q-0.3 1.65 -0.3 1.7 L-0.45 1.7 -0.5 1.75 M-0.55 1.75 L-0.55 1.75" fill="#7772f7" fill-rule="evenodd" stroke="none"/>
    <path d="M-0.5 1.75 L-0.5 1.75 -0.45 1.7 -0.3 1.7 Q-0.4 1.8 -0.5 1.75" fill="#c6fafe" fill-rule="evenodd" stroke="none"/>
    <path d="M-0.5 1.75 L-0.5 1.95 Q-0.55 2.05 -0.65 2.0 L-0.65 2.05 -0.65 1.85 -0.75 1.85 -0.85 1.8 -0.8 1.8 -0.75 1.75 -0.65 1.75 -0.55 1.75 -0.5 1.75 -0.5 1.75 M-0.65 2.0 L-0.6 1.95 -0.6 1.85 Q-0.65 1.85 -0.65 1.9 L-0.65 2.0" fill="#6338a9" fill-rule="evenodd" stroke="none"/>
    <path d="M-0.65 1.5 L-0.55 1.5 -0.5 1.5 -0.55 1.6 -0.65 1.5 -0.65 1.5" fill="#d3feff" fill-rule="evenodd" stroke="none"/>
    <path d="M-0.65 1.55 L-0.65 1.5 -0.65 1.5 -0.65 1.65 -0.65 1.55 M-0.65 1.65 L-0.65 1.65" fill="#685ae3" fill-rule="evenodd" stroke="none"/>
    <path d="M-0.85 1.4 L-0.85 1.35 -0.95 1.35 Q-1.0 1.4 -0.95 1.45 L-0.9 1.45 -0.85 1.45 -0.85 1.4 M-1.0 1.35 L-0.9 1.3 Q-0.8 1.3 -0.8 1.35 -0.75 1.45 -0.8 1.5 L-0.9 1.55 -1.0 1.5 -1.0 1.35" fill="#7d4cf9" fill-rule="evenodd" stroke="none"/>
    <path d="M-0.85 1.4 L-0.85 1.45 -0.9 1.45 -0.95 1.45 Q-1.0 1.4 -0.95 1.35 L-0.85 1.35 -0.85 1.4" fill="#b36bfe" fill-rule="evenodd" stroke="none"/>
    <path d="M-0.65 1.75 L-0.75 1.75 -0.85 1.7 -0.75 1.7 -0.65 1.65 -0.65 1.65 -0.6 1.7 Q-0.55 1.7 -0.55 1.65 L-0.55 1.75 -0.55 1.75 -0.6 1.75 -0.65 1.75" fill="#f2fefe" fill-rule="evenodd" stroke="none"/>
    <path d="M-0.85 1.85 L-0.85 1.65 -0.7 1.65 -0.65 1.65 -0.75 1.7 -0.85 1.7 -0.75 1.75 -0.8 1.8 -0.85 1.8 -0.85 1.85" fill="#748bfc" fill-rule="evenodd" stroke="none"/>
    <path d="M-0.65 1.5 L-0.55 1.6 -0.55 1.65 Q-0.55 1.7 -0.6 1.7 L-0.65 1.65 -0.65 1.5" fill="#7ab8fe" fill-rule="evenodd" stroke="none"/>
    <path d="M-0.55 1.75 L-0.65 1.75 -0.6 1.75 -0.55 1.75" fill="#758aff" fill-rule="evenodd" stroke="none"/>
    <path d="M-0.65 2.0 L-0.65 1.9 Q-0.65 1.85 -0.6 1.85 L-0.6 1.95 -0.65 2.0 -0.65 2.0" fill="#7593fd" fill-rule="evenodd" stroke="none"/>
    <path d="M0.15 2.2 L-0.05 2.2 Q-0.05 2.15 -0.1 2.15 L-0.15 2.2 -0.85 2.2 -0.8 2.15 -0.7 2.15 -0.7 2.05 -0.65 2.05 -0.6 2.05 -0.55 2.05 -0.5 2.0 -0.45 1.95 -0.4 1.95 -0.4 1.95 Q-0.35 1.95 -0.35 1.9 L-0.35 1.85 -0.3 1.9 -0.2 2.0 Q-0.1 2.15 0.15 2.2" fill="#582b89" fill-rule="evenodd" stroke="none"/>
    <path d="M-0.05 2.2 L-0.15 2.2 -0.1 2.15 Q-0.05 2.15 -0.05 2.2" fill="#8843f7" fill-rule="evenodd" stroke="none"/>
  </g>
</svg>
