<?xml version="1.0" encoding="UTF-8" standalone="no"?>
<svg xmlns:xlink="http://www.w3.org/1999/xlink" height="4.2px" width="5.65px" xmlns="http://www.w3.org/2000/svg">
  <g transform="matrix(1.0, 0.0, 0.0, 1.0, -128.15, -20.65)">
    <path d="M133.75 23.85 L133.75 23.9 133.7 23.85 133.7 23.8 133.75 23.75 133.8 23.8 133.75 23.85 M133.35 20.7 L133.4 20.7 133.4 20.8 Q133.35 20.8 133.35 20.85 L133.35 20.9 133.3 20.85 133.3 20.75 133.35 20.65 133.35 20.7 M133.15 21.85 L133.1 21.8 133.15 21.8 133.15 21.9 133.15 22.0 133.1 22.0 133.05 22.0 Q133.0 21.85 133.15 21.85 M131.25 21.8 L131.2 21.8 131.15 21.65 131.25 21.7 131.25 21.8 M131.4 22.4 L131.35 22.5 131.3 22.5 131.25 22.4 Q131.25 22.35 131.3 22.35 L131.4 22.35 131.4 22.4 M132.85 23.3 L132.85 23.45 132.8 23.4 132.8 23.3 132.85 23.3 M128.55 21.7 L128.55 21.6 128.65 21.6 128.65 21.75 128.6 21.7 128.55 21.7 M129.5 22.0 L129.5 22.05 129.55 22.15 129.45 22.1 129.45 22.05 129.5 22.0" fill="#421818" fill-rule="evenodd" stroke="none"/>
    <path d="M129.75 20.95 L129.85 21.25 129.8 21.35 129.75 21.55 129.5 21.7 Q129.4 21.65 129.4 21.5 L129.4 21.4 Q129.4 21.35 129.4 21.35 L129.5 21.2 129.6 21.0 Q129.55 20.95 129.65 20.95 L129.75 20.95 M129.9 22.75 L130.25 22.85 130.45 22.95 Q130.55 23.05 130.55 23.2 L130.55 23.45 130.5 23.7 130.35 23.85 130.3 23.75 130.3 23.55 130.35 23.35 130.3 23.2 130.25 23.2 129.95 23.1 129.8 23.05 Q129.8 22.95 129.8 22.85 129.85 22.75 129.85 22.75 L129.9 22.75 M128.6 23.35 Q128.6 23.45 128.55 23.5 L128.5 23.55 128.5 23.65 128.6 23.75 128.7 23.75 128.75 23.85 128.65 23.95 Q128.6 23.95 128.55 24.05 L128.65 24.3 128.6 24.45 Q128.6 24.55 128.5 24.55 128.4 24.6 128.3 24.85 L128.25 24.8 128.2 24.75 128.15 24.55 Q128.1 24.35 128.2 24.2 L128.25 23.9 128.15 23.6 Q128.15 23.55 128.2 23.45 L128.3 23.3 Q128.4 23.2 128.5 23.15 L128.6 23.2 128.6 23.35" fill="#2a2a27" fill-rule="evenodd" stroke="none"/>
  </g>
</svg>
