<?xml version="1.0" encoding="UTF-8" standalone="no"?>
<svg xmlns:xlink="http://www.w3.org/1999/xlink" height="4.4px" width="4.4px" xmlns="http://www.w3.org/2000/svg">
  <g transform="matrix(1.0, 0.0, 0.0, 1.0, 2.2, 2.2)">
    <path d="M-1.65 -1.05 L-1.75 -1.15 -1.75 -1.2 -1.7 -1.3 Q-1.7 -1.35 -1.75 -1.35 L-1.8 -1.4 -1.8 -1.45 Q-1.75 -1.5 -1.85 -1.5 L-1.9 -1.45 -2.0 -1.4 -2.05 -1.35 -2.1 -1.35 -2.2 -1.35 -2.2 -1.6 -2.05 -1.6 -1.85 -1.6 -1.7 -1.65 -1.55 -1.7 -1.6 -1.75 Q-1.65 -1.75 -1.65 -1.8 L-1.6 -1.8 -1.55 -1.85 -1.55 -1.9 -1.5 -1.9 -1.4 -2.0 -1.35 -2.05 -1.2 -2.1 Q-1.15 -2.1 -1.15 -2.05 L-1.1 -1.95 -1.05 -1.9 -1.2 -1.7 -1.35 -1.6 Q-1.35 -1.55 -1.4 -1.5 L-1.4 -1.4 Q-1.4 -1.35 -1.5 -1.3 L-1.6 -1.35 -1.65 -1.25 -1.65 -1.15 -1.65 -1.05" fill="#812298" fill-rule="evenodd" stroke="none"/>
    <path d="M-1.8 -2.2 L-0.85 -2.2 -0.85 -2.05 -0.9 -1.9 -0.95 -1.85 -0.95 -1.75 -1.05 -1.65 Q-1.05 -1.65 -1.1 -1.65 L-1.2 -1.5 -1.25 -1.4 -1.3 -1.35 -1.35 -1.3 -1.4 -1.25 Q-1.45 -1.2 -1.5 -1.25 L-1.55 -1.2 -1.65 -1.15 -1.65 -1.25 -1.6 -1.35 -1.5 -1.3 Q-1.4 -1.35 -1.4 -1.4 L-1.4 -1.5 Q-1.35 -1.55 -1.35 -1.6 L-1.2 -1.7 -1.05 -1.9 -1.1 -1.95 -1.15 -2.05 Q-1.15 -2.1 -1.2 -2.1 L-1.35 -2.05 -1.4 -2.0 -1.5 -1.9 -1.55 -1.9 -1.55 -1.85 -1.6 -1.8 -1.65 -1.8 Q-1.65 -1.75 -1.6 -1.75 L-1.55 -1.7 -1.7 -1.65 -1.85 -1.6 -2.05 -1.6 -2.2 -1.6 -2.2 -1.7 -2.0 -1.75 -1.85 -1.75 Q-1.9 -1.85 -1.8 -1.9 L-1.85 -1.95 -1.95 -1.95 -1.9 -2.05 -1.85 -2.1 -1.8 -2.15 -1.8 -2.2" fill="#781f8c" fill-rule="evenodd" stroke="none"/>
    <path d="M-2.2 -1.35 L-2.1 -1.35 -2.05 -1.35 -2.0 -1.4 -1.9 -1.45 -1.85 -1.5 Q-1.75 -1.5 -1.8 -1.45 L-1.8 -1.4 -1.75 -1.35 Q-1.7 -1.35 -1.7 -1.3 L-1.75 -1.2 -1.75 -1.15 -1.65 -1.05 -1.75 -0.95 -1.8 -0.85 -1.9 -0.75 -2.2 -1.05 -2.2 -1.35" fill="#8925a2" fill-rule="evenodd" stroke="none"/>
    <path d="M-2.2 -1.7 L-2.2 -2.2 -1.8 -2.2 -1.8 -2.15 -1.85 -2.1 -1.9 -2.05 -1.95 -1.95 -1.85 -1.95 -1.8 -1.9 Q-1.9 -1.85 -1.85 -1.75 L-2.0 -1.75 -2.2 -1.7" fill="#781c80" fill-rule="evenodd" stroke="none"/>
    <path d="M-2.1 -0.2 L-2.15 -0.25 -2.15 -0.35 Q-2.1 -0.4 -2.0 -0.55 L-1.9 -0.75 -1.85 -0.7 -1.8 -0.65 -1.75 -0.6 Q-1.8 -0.55 -1.75 -0.55 L-1.65 -0.55 -1.7 -0.45 -1.75 -0.35 -1.75 -0.45 -1.8 -0.35 -1.85 -0.25 -1.9 -0.25 -1.9 -0.3 -1.85 -0.4 -1.9 -0.4 -2.0 -0.4 -2.05 -0.3 -2.1 -0.2 M-1.75 -0.6 L-1.75 -0.6" fill="#f96eba" fill-rule="evenodd" stroke="none"/>
    <path d="M-2.15 -0.35 L-2.15 -0.25 -2.1 -0.2 -2.0 -0.05 -1.95 -0.05 -2.2 -0.1 -2.2 -0.25 -2.15 -0.3 -2.15 -0.35" fill="#fd58e2" fill-rule="evenodd" stroke="none"/>
    <path d="M-2.2 -1.05 L-1.9 -0.75 -2.0 -0.55 Q-2.1 -0.4 -2.15 -0.35 L-2.15 -0.3 -2.2 -0.25 -2.2 -1.05 M-1.9 -0.75 L-1.9 -0.75" fill="#ff6afd" fill-rule="evenodd" stroke="none"/>
    <path d="M-2.1 -0.2 L-2.05 -0.3 -2.0 -0.4 -1.9 -0.4 -1.85 -0.4 -1.9 -0.3 -1.9 -0.25 -1.85 -0.25 -1.6 -0.1 -1.55 -0.05 -1.5 0.0 -1.6 0.0 -1.65 -0.05 -1.65 -0.05 Q-1.65 0.0 -1.7 0.0 L-1.75 -0.1 -1.85 -0.2 -2.0 -0.05 -2.1 -0.2" fill="#ea5fa9" fill-rule="evenodd" stroke="none"/>
    <path d="M-0.3 -1.65 L-0.35 -1.9 -0.35 -2.1 -0.25 -1.9 -0.2 -1.7 Q-0.2 -1.65 -0.25 -1.65 L-0.3 -1.65" fill="#a73398" fill-rule="evenodd" stroke="none"/>
    <path d="M1.15 -2.2 L1.05 -2.15 Q1.05 -2.1 1.05 -2.05 L1.1 -1.95 1.05 -1.85 Q1.05 -1.75 0.95 -1.7 0.9 -1.6 0.8 -1.6 L0.7 -1.6 0.6 -1.65 0.55 -1.7 0.5 -1.75 0.3 -1.75 0.05 -1.8 0.0 -1.8 -0.1 -1.75 -0.2 -1.7 -0.25 -1.9 -0.35 -2.1 -0.35 -1.9 -0.3 -1.65 Q-0.35 -1.65 -0.4 -1.7 L-0.5 -1.8 -0.45 -1.75 -0.4 -1.65 Q-0.45 -1.65 -0.5 -1.75 L-0.5 -1.8 -0.55 -1.85 -0.65 -1.9 Q-0.7 -1.95 -0.7 -2.0 L-0.75 -2.0 -0.85 -1.95 -0.9 -1.85 -0.95 -1.75 -0.95 -1.85 -0.9 -1.9 -0.85 -2.05 -0.85 -2.2 0.65 -2.2 0.55 -2.1 0.45 -2.0 0.4 -2.0 Q0.35 -2.0 0.4 -1.95 0.45 -1.8 0.6 -1.85 L0.65 -1.75 0.8 -1.7 0.9 -1.8 0.95 -1.85 1.0 -2.05 0.85 -2.2 1.15 -2.2 M-0.2 -1.7 L-0.2 -1.7" fill="#74227e" fill-rule="evenodd" stroke="none"/>
    <path d="M-0.95 -1.75 L-0.9 -1.85 -0.85 -1.95 -0.75 -2.0 -0.7 -2.0 Q-0.7 -1.95 -0.65 -1.9 L-0.55 -1.85 -0.5 -1.8 -0.5 -1.75 Q-0.45 -1.65 -0.4 -1.65 L-0.35 -1.55 -0.25 -1.45 Q-0.3 -1.45 -0.35 -1.5 L-0.4 -1.6 -0.45 -1.6 -0.5 -1.55 -0.55 -1.6 -0.6 -1.65 -0.7 -1.7 -0.7 -1.85 -0.75 -1.85 -0.85 -1.7 Q-0.95 -1.55 -1.0 -1.55 L-0.95 -1.5 -0.95 -1.4 -1.05 -1.35 -1.15 -1.3 -1.3 -1.35 -1.25 -1.4 -1.2 -1.5 -1.1 -1.65 Q-1.05 -1.65 -1.05 -1.65 L-0.95 -1.75" fill="#671e7c" fill-rule="evenodd" stroke="none"/>
    <path d="M-1.15 -1.3 L-1.05 -1.35 -0.95 -1.4 -0.95 -1.5 -1.0 -1.55 Q-0.95 -1.55 -0.85 -1.7 L-0.75 -1.85 -0.7 -1.85 -0.7 -1.7 -0.6 -1.65 -0.55 -1.6 -0.5 -1.55 -0.45 -1.6 -0.4 -1.6 -0.35 -1.5 Q-0.3 -1.45 -0.25 -1.45 L-0.2 -1.25 -0.15 -1.1 -0.25 -1.1 -0.35 -1.05 -0.35 -1.0 -0.4 -1.05 -0.45 -1.1 -0.5 -1.3 Q-0.5 -1.4 -0.6 -1.4 L-0.85 -1.4 -1.0 -1.25 -1.1 -1.3 -1.15 -1.3" fill="#5e1d72" fill-rule="evenodd" stroke="none"/>
    <path d="M-1.65 -1.05 L-1.65 -1.15 -1.55 -1.2 -1.5 -1.25 Q-1.45 -1.2 -1.4 -1.25 L-1.35 -1.3 -1.3 -1.35 -1.15 -1.3 -1.1 -1.3 -1.0 -1.25 -0.85 -1.4 -0.6 -1.4 Q-0.5 -1.4 -0.5 -1.3 L-0.45 -1.1 -0.4 -1.05 -0.35 -1.0 -0.5 -1.0 -0.6 -0.95 -0.65 -0.95 -0.65 -0.9 -0.75 -0.9 -0.85 -0.95 -0.8 -0.8 Q-0.8 -0.75 -0.7 -0.75 L-0.75 -0.65 -0.9 -0.8 -1.1 -0.9 -1.0 -1.0 -1.05 -1.05 -1.1 -1.0 -1.2 -0.95 -1.3 -1.05 -1.4 -1.0 -1.5 -1.0 -1.6 -0.95 -1.6 -1.0 -1.55 -1.05 Q-1.5 -1.1 -1.55 -1.1 L-1.65 -1.05 -1.75 -0.95 -1.65 -1.05 M-1.35 -0.8 L-1.3 -0.85 -1.3 -0.95 -1.25 -0.95 -1.2 -0.95 -1.25 -0.85 -1.2 -0.75 -1.3 -0.75 -1.35 -0.75 -1.35 -0.8 M-0.5 -1.1 Q-0.45 -1.15 -0.5 -1.15 L-0.5 -1.25 Q-0.55 -1.3 -0.55 -1.25 -0.65 -1.25 -0.6 -1.2 L-0.5 -1.1 -0.5 -1.1 M-0.75 -1.1 Q-0.8 -1.15 -0.8 -1.1 L-0.85 -1.15 -0.85 -1.15 Q-0.9 -1.15 -0.9 -1.1 L-0.8 -1.05 Q-0.75 -1.05 -0.75 -1.1" fill="#552764" fill-rule="evenodd" stroke="none"/>
    <path d="M-0.2 -1.7 L-0.15 -1.55 -0.05 -1.3 0.05 -1.05 0.0 -1.0 -0.05 -1.0 -0.1 -1.05 -0.15 -1.1 -0.2 -1.25 -0.25 -1.45 -0.35 -1.55 -0.4 -1.65 -0.45 -1.75 -0.5 -1.8 -0.4 -1.7 Q-0.35 -1.65 -0.3 -1.65 L-0.25 -1.65 Q-0.2 -1.65 -0.2 -1.7 L-0.2 -1.7" fill="#8a2e85" fill-rule="evenodd" stroke="none"/>
    <path d="M0.3 -1.75 Q0.35 -1.7 0.4 -1.7 0.45 -1.7 0.55 -1.6 L0.7 -1.5 Q0.75 -1.45 0.7 -1.4 L0.6 -1.35 0.65 -1.4 0.65 -1.5 0.6 -1.5 Q0.55 -1.45 0.5 -1.45 L0.4 -1.4 0.3 -1.4 0.2 -1.35 0.1 -1.35 0.0 -1.45 -0.05 -1.5 -0.15 -1.55 -0.2 -1.7 -0.1 -1.75 0.0 -1.8 0.05 -1.8 0.3 -1.75" fill="#631f6f" fill-rule="evenodd" stroke="none"/>
    <path d="M0.6 -1.35 L0.45 -1.25 0.35 -1.2 0.3 -1.15 0.2 -1.15 0.1 -1.1 0.05 -1.05 -0.05 -1.3 -0.15 -1.55 -0.05 -1.5 0.0 -1.45 0.1 -1.35 0.2 -1.35 0.3 -1.4 0.4 -1.4 0.5 -1.45 Q0.55 -1.45 0.6 -1.5 L0.65 -1.5 0.65 -1.4 0.6 -1.35" fill="#581d65" fill-rule="evenodd" stroke="none"/>
    <path d="M-1.2 -0.95 L-1.1 -1.0 -1.05 -1.05 -1.0 -1.0 -1.1 -0.9 -1.1 -0.85 -0.95 -0.7 -0.8 -0.55 -0.85 -0.5 -0.9 -0.45 -0.9 -0.5 -0.95 -0.5 -1.0 -0.55 Q-1.05 -0.6 -1.0 -0.7 -1.15 -0.65 -1.1 -0.75 L-1.15 -0.85 -1.2 -0.95" fill="#524b88" fill-rule="evenodd" stroke="none"/>
    <path d="M-1.4 -1.0 L-1.3 -1.05 -1.2 -0.95 -1.25 -0.95 -1.3 -0.95 -1.3 -0.85 -1.35 -0.8 Q-1.4 -0.8 -1.4 -0.8 L-1.35 -0.85 -1.35 -0.9 -1.4 -0.95 -1.45 -0.95 -1.4 -1.0" fill="#844986" fill-rule="evenodd" stroke="none"/>
    <path d="M-1.9 -0.75 L-1.8 -0.85 -1.75 -0.95 -1.65 -1.05 -1.55 -1.1 Q-1.5 -1.1 -1.55 -1.05 L-1.6 -1.0 -1.6 -0.95 -1.5 -1.0 -1.4 -1.0 -1.45 -0.95 -1.4 -0.95 -1.35 -0.9 -1.35 -0.85 -1.4 -0.8 Q-1.4 -0.8 -1.35 -0.8 L-1.35 -0.75 -1.35 -0.55 -1.5 -0.5 -1.6 -0.55 -1.6 -0.65 -1.65 -0.65 -1.65 -0.55 -1.7 -0.6 Q-1.7 -0.6 -1.7 -0.7 L-1.7 -0.75 -1.75 -0.7 -1.75 -0.6 -1.8 -0.65 -1.8 -0.75 -1.85 -0.75 -1.85 -0.7 -1.9 -0.75 -1.9 -0.75 M-1.45 -0.9 L-1.45 -0.85 -1.4 -0.8 -1.4 -0.9 -1.45 -0.9" fill="#6a2f7b" fill-rule="evenodd" stroke="none"/>
    <path d="M-1.45 -0.9 L-1.4 -0.9 -1.4 -0.8 -1.45 -0.85 -1.45 -0.9" fill="#94529c" fill-rule="evenodd" stroke="none"/>
    <path d="M-1.35 -0.75 L-1.3 -0.75 -1.2 -0.75 -1.25 -0.65 -1.3 -0.55 -1.35 -0.55 -1.35 -0.75" fill="#8b4e8a" fill-rule="evenodd" stroke="none"/>
    <path d="M-1.2 -0.75 L-1.25 -0.85 -1.2 -0.95 -1.15 -0.85 -1.1 -0.75 Q-1.15 -0.65 -1.0 -0.7 -1.05 -0.6 -1.0 -0.55 L-0.95 -0.5 -0.9 -0.5 -0.9 -0.45 -0.95 -0.4 -1.0 -0.45 -1.05 -0.5 -1.1 -0.55 -1.15 -0.65 -1.2 -0.7 -1.25 -0.6 -1.25 -0.55 -1.25 -0.35 -1.25 -0.45 -1.3 -0.4 -1.35 -0.35 -1.4 -0.35 -1.4 -0.4 Q-1.3 -0.45 -1.3 -0.55 L-1.25 -0.65 -1.2 -0.75 M-1.1 -0.55 L-1.1 -0.55" fill="#482e74" fill-rule="evenodd" stroke="none"/>
    <path d="M-1.1 -0.9 L-0.9 -0.8 -0.75 -0.65 -0.8 -0.6 -0.8 -0.55 -0.95 -0.7 -1.1 -0.85 -1.1 -0.9" fill="#613773" fill-rule="evenodd" stroke="none"/>
    <path d="M-1.35 -0.35 L-1.3 -0.4 -1.25 -0.45 -1.25 -0.35 -1.25 -0.55 -1.25 -0.6 -1.2 -0.7 -1.15 -0.65 -1.1 -0.55 -1.15 -0.5 Q-1.15 -0.45 -1.2 -0.45 L-1.15 -0.35 Q-1.1 -0.3 -1.05 -0.35 -1.0 -0.35 -1.05 -0.3 L-1.1 -0.25 -1.2 -0.3 -1.25 -0.3 -1.35 -0.35" fill="#754187" fill-rule="evenodd" stroke="none"/>
    <path d="M-1.8 -0.65 L-1.85 -0.7 -1.85 -0.75 -1.8 -0.75 -1.8 -0.65" fill="#a0528f" fill-rule="evenodd" stroke="none"/>
    <path d="M-1.75 -0.6 L-1.75 -0.6 -1.75 -0.7 -1.7 -0.75 -1.7 -0.7 Q-1.7 -0.6 -1.7 -0.6 L-1.75 -0.6" fill="#8b4d86" fill-rule="evenodd" stroke="none"/>
    <path d="M-1.85 -0.25 L-1.8 -0.35 -1.75 -0.45 -1.75 -0.35 -1.7 -0.45 -1.65 -0.55 -1.65 -0.65 -1.6 -0.65 -1.6 -0.55 -1.65 -0.5 -1.6 -0.45 -1.6 -0.35 -1.65 -0.2 -1.6 -0.1 -1.85 -0.25 M-1.65 -0.55 L-1.65 -0.55" fill="#b7559b" fill-rule="evenodd" stroke="none"/>
    <path d="M-1.35 -0.55 L-1.3 -0.55 Q-1.3 -0.45 -1.4 -0.4 L-1.45 -0.35 -1.45 -0.4 -1.65 -0.5 -1.6 -0.55 -1.5 -0.5 -1.35 -0.55" fill="#5e4991" fill-rule="evenodd" stroke="none"/>
    <path d="M-1.65 -0.55 L-1.75 -0.55 Q-1.8 -0.55 -1.75 -0.6 L-1.7 -0.6 -1.65 -0.55 -1.65 -0.55" fill="#f6d3f8" fill-rule="evenodd" stroke="none"/>
    <path d="M-1.45 -0.4 L-1.45 -0.35 Q-1.55 -0.35 -1.5 -0.3 L-1.45 -0.35 -1.4 -0.35 -1.4 -0.35 -1.45 -0.2 Q-1.4 -0.1 -1.35 -0.1 L-1.5 -0.15 -1.55 -0.25 -1.55 -0.4 -1.45 -0.4" fill="#cc5c9d" fill-rule="evenodd" stroke="none"/>
    <path d="M-1.65 -0.5 L-1.45 -0.4 -1.55 -0.4 -1.55 -0.25 -1.6 -0.35 -1.6 -0.45 -1.65 -0.5" fill="#d8b2d2" fill-rule="evenodd" stroke="none"/>
    <path d="M-1.95 -0.05 L-2.0 -0.05 -1.85 -0.2 -1.75 -0.1 -1.7 0.0 Q-1.65 0.0 -1.65 -0.05 L-1.65 -0.05 -1.6 0.0 -1.5 0.0 -1.55 -0.05 Q-1.5 -0.05 -1.5 0.0 L-1.55 0.05 -1.6 0.05 -1.95 -0.05" fill="#bb5497" fill-rule="evenodd" stroke="none"/>
    <path d="M-1.6 -0.35 L-1.55 -0.25 -1.5 -0.15 -1.35 -0.1 -1.35 -0.15 -1.3 -0.2 -1.25 -0.25 -1.2 -0.2 Q-1.2 -0.2 -1.2 -0.25 L-1.2 -0.25 -1.1 -0.15 -1.1 -0.1 -1.15 -0.05 -1.2 -0.05 -1.2 0.0 -1.15 0.05 -1.1 0.05 -1.05 0.15 -1.15 0.1 -1.25 0.15 -1.3 0.15 -1.3 0.1 -1.45 0.05 -1.55 0.05 -1.5 0.0 Q-1.5 -0.05 -1.55 -0.05 L-1.6 -0.1 -1.65 -0.2 -1.6 -0.35 M-1.3 -0.05 L-1.35 0.0 -1.35 0.05 -1.3 0.0 -1.25 0.0 -1.3 0.05 -1.25 0.05 Q-1.2 0.05 -1.25 -0.05 -1.25 -0.1 -1.3 -0.05" fill="#a5498a" fill-rule="evenodd" stroke="none"/>
    <path d="M-1.1 -0.55 L-1.1 -0.55 -1.05 -0.4 -1.2 -0.45 Q-1.15 -0.45 -1.15 -0.5 L-1.1 -0.55" fill="#b47ad8" fill-rule="evenodd" stroke="none"/>
    <path d="M-1.1 -0.55 L-1.05 -0.5 -1.05 -0.4 -1.0 -0.35 -1.0 -0.3 -1.05 -0.25 -1.05 -0.25 -1.1 -0.25 -1.05 -0.3 Q-1.0 -0.35 -1.05 -0.35 -1.1 -0.3 -1.15 -0.35 L-1.2 -0.45 -1.05 -0.4 -1.1 -0.55" fill="#915aac" fill-rule="evenodd" stroke="none"/>
    <path d="M-1.05 -0.5 L-1.0 -0.45 -0.95 -0.4 -1.0 -0.3 -1.0 -0.35 -1.05 -0.4 -1.05 -0.5" fill="#b782d8" fill-rule="evenodd" stroke="none"/>
    <path d="M-1.45 -0.35 L-1.4 -0.4 -1.4 -0.35 -1.4 -0.35 -1.45 -0.35 -1.5 -0.3 Q-1.55 -0.35 -1.45 -0.35 M-1.35 -0.1 Q-1.4 -0.1 -1.45 -0.2 L-1.4 -0.35 -1.35 -0.25 -1.35 -0.15 -1.35 -0.1" fill="#fd9bb1" fill-rule="evenodd" stroke="none"/>
    <path d="M-1.4 -0.35 L-1.35 -0.35 -1.25 -0.3 -1.2 -0.3 -1.2 -0.25 -1.25 -0.25 -1.25 -0.25 -1.3 -0.2 -1.35 -0.15 -1.35 -0.25 -1.4 -0.35 M-1.2 -0.25 L-1.2 -0.25" fill="#ca5c98" fill-rule="evenodd" stroke="none"/>
    <path d="M-1.3 -0.05 Q-1.25 -0.1 -1.25 -0.05 -1.2 0.05 -1.25 0.05 L-1.3 0.05 -1.25 0.0 -1.3 0.0 -1.35 0.05 -1.35 0.0 -1.3 -0.05" fill="#e179b6" fill-rule="evenodd" stroke="none"/>
    <path d="M-1.05 -0.25 L-1.05 -0.2 -1.1 -0.15 -1.2 -0.25 -1.2 -0.3 -1.1 -0.25 -1.05 -0.25 -1.05 -0.25" fill="#e18ec9" fill-rule="evenodd" stroke="none"/>
    <path d="M-0.55 -0.15 L-0.55 -0.15 -0.55 -0.05 -0.55 0.1 -0.5 0.2 -0.5 0.25 -0.65 0.1 -0.85 0.0 -0.8 0.1 Q-0.75 0.15 -0.7 0.15 L-0.7 0.2 -0.85 0.2 Q-0.95 0.15 -0.9 0.1 L-0.9 0.1 -0.85 0.05 -0.75 -0.1 -0.75 -0.1 -0.7 -0.1 -0.7 -0.15 -0.75 -0.15 -0.75 -0.15 -0.8 -0.2 -0.85 -0.2 -0.95 -0.2 -1.05 -0.2 -1.05 -0.25 -1.0 -0.3 -0.9 -0.45 -0.85 -0.5 -0.8 -0.55 -0.8 -0.6 -0.75 -0.6 -0.75 -0.65 Q-0.7 -0.7 -0.7 -0.65 L-0.7 -0.5 -0.75 -0.35 -0.7 -0.3 -0.65 -0.3 -0.65 -0.3 -0.6 -0.3 Q-0.6 -0.2 -0.55 -0.15 M-0.75 -0.15 L-0.75 -0.15 -0.75 -0.15 -0.75 -0.15 -0.75 -0.15 M-0.8 -0.5 L-0.85 -0.5 -0.85 -0.45 -0.8 -0.45 Q-0.75 -0.45 -0.8 -0.5" fill="#4a3845" fill-rule="evenodd" stroke="none"/>
    <path d="M-1.05 -0.2 L-0.95 -0.2 -0.85 -0.2 -0.8 -0.2 -0.75 -0.15 -0.75 -0.15 -0.75 -0.1 -0.85 0.05 -0.9 0.1 -0.9 0.1 -0.95 0.15 -1.0 0.15 -1.05 0.15 -1.05 0.15 -1.1 0.05 -1.15 -0.05 -1.1 -0.1 -1.1 -0.15 -1.05 -0.2 M-0.75 -0.15 L-0.75 -0.15" fill="#734a53" fill-rule="evenodd" stroke="none"/>
    <path d="M-1.25 -0.25 L-1.25 -0.25 -1.2 -0.25 Q-1.2 -0.2 -1.2 -0.2 L-1.25 -0.25" fill="#f899c2" fill-rule="evenodd" stroke="none"/>
    <path d="M-1.15 -0.05 L-1.1 0.05 -1.15 0.05 -1.2 0.0 -1.2 -0.05 -1.15 -0.05" fill="#c46ca3" fill-rule="evenodd" stroke="none"/>
    <path d="M-0.05 -1.0 Q0.0 -1.0 0.0 -0.9 -0.05 -0.85 -0.1 -0.8 L-0.1 -0.75 -0.15 -1.05 -0.1 -1.05 -0.05 -1.0" fill="#7d5257" fill-rule="evenodd" stroke="none"/>
    <path d="M-0.15 -0.7 L-0.2 -0.65 -0.25 -0.65 -0.2 -0.55 -0.2 -0.5 -0.3 -0.5 -0.35 -0.5 -0.35 -0.5 -0.3 -0.55 -0.25 -0.6 Q-0.25 -0.65 -0.3 -0.65 L-0.3 -0.7 -0.25 -0.7 Q-0.2 -0.7 -0.2 -0.75 L-0.3 -0.8 -0.4 -0.75 -0.35 -0.65 Q-0.3 -0.6 -0.4 -0.55 L-0.4 -0.6 -0.35 -0.65 -0.4 -0.65 -0.45 -0.65 -0.45 -0.6 -0.45 -0.55 Q-0.45 -0.5 -0.5 -0.5 L-0.55 -0.5 -0.6 -0.5 -0.65 -0.45 -0.65 -0.35 -0.65 -0.3 -0.7 -0.35 Q-0.65 -0.4 -0.65 -0.45 L-0.7 -0.5 -0.6 -0.7 -0.4 -0.75 Q-0.4 -0.75 -0.4 -0.85 L-0.4 -0.9 -0.35 -0.9 -0.3 -0.9 -0.3 -0.85 -0.25 -0.9 -0.25 -1.0 -0.3 -1.0 -0.35 -1.05 -0.25 -1.1 -0.15 -1.1 -0.1 -1.05 -0.15 -1.05 -0.1 -0.75 -0.1 -0.75 -0.15 -0.7" fill="#51354b" fill-rule="evenodd" stroke="none"/>
    <path d="M-0.35 -1.0 L-0.35 -1.05 -0.3 -1.0 -0.25 -1.0 -0.25 -0.9 -0.3 -0.85 -0.3 -0.9 -0.35 -0.9 -0.4 -0.9 -0.4 -0.85 Q-0.4 -0.75 -0.4 -0.75 L-0.6 -0.7 -0.7 -0.5 -0.7 -0.65 Q-0.7 -0.7 -0.75 -0.65 L-0.75 -0.6 -0.8 -0.6 -0.75 -0.65 -0.7 -0.75 -0.7 -0.8 -0.7 -0.8 -0.65 -0.85 -0.65 -0.9 -0.65 -0.95 -0.6 -0.95 -0.5 -1.0 -0.35 -1.0 M-0.7 -0.5 L-0.7 -0.5" fill="#3f2540" fill-rule="evenodd" stroke="none"/>
    <path d="M-0.5 -1.1 L-0.5 -1.1 -0.6 -1.2 Q-0.65 -1.25 -0.55 -1.25 -0.55 -1.3 -0.5 -1.25 L-0.5 -1.15 Q-0.45 -1.15 -0.5 -1.1" fill="#6a437e" fill-rule="evenodd" stroke="none"/>
    <path d="M-0.45 -0.6 L-0.45 -0.65 -0.4 -0.65 -0.35 -0.65 -0.4 -0.6 -0.4 -0.6 -0.45 -0.6" fill="#a58892" fill-rule="evenodd" stroke="none"/>
    <path d="M-0.4 -0.55 Q-0.3 -0.6 -0.35 -0.65 L-0.4 -0.75 -0.3 -0.8 -0.2 -0.75 Q-0.2 -0.7 -0.25 -0.7 L-0.3 -0.7 -0.3 -0.65 Q-0.25 -0.65 -0.25 -0.6 L-0.3 -0.55 -0.4 -0.55" fill="#957d79" fill-rule="evenodd" stroke="none"/>
    <path d="M0.2 -1.15 Q0.15 -1.15 0.2 -1.1 L0.25 -1.05 0.2 -1.0 0.15 -0.9 0.1 -0.9 0.1 -0.95 0.05 -0.85 0.0 -0.75 Q0.0 -0.7 -0.05 -0.65 L-0.05 -0.7 0.0 -0.7 0.0 -0.75 -0.05 -0.8 -0.1 -0.8 Q-0.05 -0.85 0.0 -0.9 0.0 -1.0 -0.05 -1.0 L0.0 -1.0 0.05 -1.05 0.1 -1.1 0.2 -1.15 M-0.05 -0.65 L-0.05 -0.65" fill="#473849" fill-rule="evenodd" stroke="none"/>
    <path d="M-0.1 -0.8 L-0.05 -0.8 0.0 -0.75 0.0 -0.7 -0.05 -0.7 -0.1 -0.75 -0.1 -0.8 M-0.1 -0.75 L-0.1 -0.75" fill="#60c6a6" fill-rule="evenodd" stroke="none"/>
    <path d="M0.0 -0.4 L0.0 -0.3 Q0.05 -0.25 0.1 -0.25 0.1 -0.2 0.15 -0.2 L0.1 -0.1 0.1 -0.05 0.05 -0.05 0.1 -0.15 0.0 -0.2 -0.05 -0.25 -0.1 -0.3 -0.15 -0.35 -0.15 -0.4 -0.2 -0.5 -0.25 -0.4 -0.25 -0.3 -0.25 -0.15 -0.15 -0.05 -0.15 0.0 -0.2 0.0 Q-0.2 -0.05 -0.2 -0.05 L-0.25 0.0 -0.25 -0.15 Q-0.25 -0.25 -0.3 -0.15 -0.35 -0.15 -0.35 -0.15 L-0.45 -0.1 -0.5 -0.1 -0.55 -0.1 -0.55 -0.15 -0.4 -0.15 -0.3 -0.25 -0.55 -0.2 -0.45 -0.2 -0.4 -0.2 Q-0.3 -0.25 -0.3 -0.3 L-0.25 -0.4 -0.2 -0.5 -0.2 -0.55 -0.2 -0.65 -0.15 -0.7 -0.15 -0.6 -0.1 -0.5 -0.1 -0.45 -0.1 -0.4 Q-0.05 -0.45 -0.05 -0.45 L0.0 -0.4 M-0.55 -0.15 L-0.55 -0.15 M-0.1 -0.3 L-0.1 -0.3" fill="#314660" fill-rule="evenodd" stroke="none"/>
    <path d="M-0.2 -0.65 L-0.2 -0.55 -0.25 -0.65 -0.2 -0.65" fill="#887e93" fill-rule="evenodd" stroke="none"/>
    <path d="M-0.05 -0.7 L-0.05 -0.65 -0.1 -0.65 -0.1 -0.6 0.05 -0.5 0.2 -0.35 0.1 -0.35 0.0 -0.4 -0.05 -0.45 Q-0.05 -0.45 -0.1 -0.4 L-0.1 -0.45 -0.1 -0.5 -0.15 -0.6 -0.15 -0.7 -0.1 -0.75 -0.05 -0.7 M-0.05 -0.65 L-0.05 -0.65" fill="#4c928d" fill-rule="evenodd" stroke="none"/>
    <path d="M-0.05 -0.65 L-0.05 -0.65 0.1 -0.5 Q0.05 -0.55 0.0 -0.55 L-0.05 -0.65 -0.05 -0.65" fill="#c0aa99" fill-rule="evenodd" stroke="none"/>
    <path d="M0.2 -0.8 L0.2 -0.7 0.15 -0.75 0.15 -0.75 0.15 -0.8 0.1 -0.8 0.1 -0.8 0.05 -0.75 0.05 -0.7 Q0.05 -0.65 0.1 -0.6 L0.15 -0.55 0.15 -0.45 0.15 -0.45 0.2 -0.4 0.25 -0.45 0.3 -0.4 0.25 -0.35 0.2 -0.35 0.05 -0.5 -0.1 -0.6 -0.1 -0.65 -0.05 -0.65 Q0.0 -0.7 0.0 -0.75 L0.05 -0.85 0.1 -0.95 0.1 -0.9 0.15 -0.85 0.2 -0.8 M-0.05 -0.65 L0.0 -0.55 Q0.05 -0.55 0.1 -0.5 L-0.05 -0.65" fill="#64565a" fill-rule="evenodd" stroke="none"/>
    <path d="M-0.75 -1.1 Q-0.75 -1.05 -0.8 -1.05 L-0.9 -1.1 Q-0.9 -1.15 -0.85 -1.15 L-0.85 -1.15 -0.8 -1.1 Q-0.8 -1.15 -0.75 -1.1" fill="#814981" fill-rule="evenodd" stroke="none"/>
    <path d="M-0.7 -0.75 Q-0.8 -0.75 -0.8 -0.8 L-0.85 -0.95 -0.75 -0.9 -0.65 -0.9 -0.65 -0.85 -0.75 -0.85 -0.8 -0.8 -0.75 -0.8 -0.7 -0.8 -0.7 -0.75" fill="#9762a2" fill-rule="evenodd" stroke="none"/>
    <path d="M-0.7 -0.8 L-0.75 -0.8 -0.8 -0.8 -0.75 -0.85 -0.65 -0.85 -0.7 -0.8 -0.7 -0.8" fill="#65326e" fill-rule="evenodd" stroke="none"/>
    <path d="M-0.45 -0.6 L-0.4 -0.6 -0.4 -0.6 -0.4 -0.55 -0.3 -0.55 -0.35 -0.5 -0.35 -0.5 -0.35 -0.3 -0.45 -0.25 -0.6 -0.25 -0.6 -0.4 -0.65 -0.35 -0.65 -0.45 -0.6 -0.5 -0.55 -0.5 -0.5 -0.5 Q-0.45 -0.5 -0.45 -0.55 L-0.45 -0.6" fill="#604c69" fill-rule="evenodd" stroke="none"/>
    <path d="M-0.7 -0.5 L-0.7 -0.5 -0.65 -0.45 Q-0.65 -0.4 -0.7 -0.35 L-0.75 -0.35 -0.7 -0.5" fill="#877262" fill-rule="evenodd" stroke="none"/>
    <path d="M-0.75 -0.35 L-0.7 -0.35 -0.65 -0.3 -0.65 -0.3 -0.7 -0.3 -0.75 -0.35" fill="#dcd5ec" fill-rule="evenodd" stroke="none"/>
    <path d="M-0.65 -0.35 L-0.6 -0.4 -0.6 -0.25 -0.65 -0.3 -0.65 -0.35 M-0.65 -0.3 L-0.65 -0.3 -0.65 -0.3" fill="#ba9e6e" fill-rule="evenodd" stroke="none"/>
    <path d="M-0.8 -0.5 Q-0.75 -0.45 -0.8 -0.45 L-0.85 -0.45 -0.85 -0.5 -0.8 -0.5" fill="#a97b6f" fill-rule="evenodd" stroke="none"/>
    <path d="M-0.75 -0.15 L-0.7 -0.15 -0.7 -0.1 -0.75 -0.1 -0.75 -0.1 -0.75 -0.1 -0.75 -0.15 -0.75 -0.15 -0.75 -0.15" fill="#756867" fill-rule="evenodd" stroke="none"/>
    <path d="M-0.3 -0.3 Q-0.3 -0.25 -0.4 -0.2 L-0.45 -0.2 -0.55 -0.2 -0.3 -0.25 -0.4 -0.15 -0.55 -0.15 Q-0.6 -0.2 -0.6 -0.3 L-0.65 -0.3 -0.6 -0.25 -0.45 -0.25 -0.35 -0.3 -0.3 -0.3" fill="#4b8690" fill-rule="evenodd" stroke="none"/>
    <path d="M-0.55 -0.15 L-0.55 -0.1 -0.5 -0.05 -0.5 0.0 -0.55 -0.05 -0.55 -0.15" fill="#d3b77d" fill-rule="evenodd" stroke="none"/>
    <path d="M-0.55 -0.1 L-0.5 -0.1 -0.45 -0.05 Q-0.4 -0.05 -0.45 -0.1 L-0.35 -0.15 Q-0.35 -0.15 -0.3 -0.15 L-0.3 -0.05 -0.25 0.05 -0.25 0.0 -0.2 0.1 -0.2 0.1 -0.1 0.1 -0.1 0.15 -0.15 0.15 -0.2 0.15 -0.2 0.15 -0.3 0.2 Q-0.35 0.25 -0.35 0.3 L-0.35 0.25 -0.4 0.2 -0.45 0.25 -0.5 0.25 Q-0.45 0.2 -0.45 0.1 L-0.5 0.0 -0.5 -0.05 -0.55 -0.1 M-0.35 0.3 L-0.35 0.3 M-0.4 -0.1 L-0.45 0.0 -0.4 0.05 -0.35 0.15 -0.3 0.1 -0.35 0.0 -0.4 -0.1" fill="#6b4b56" fill-rule="evenodd" stroke="none"/>
    <path d="M-0.15 -0.05 L-0.25 -0.15 -0.25 -0.3 -0.25 -0.4 -0.2 -0.5 -0.15 -0.4 -0.15 -0.35 -0.2 -0.3 -0.2 -0.2 -0.1 -0.1 0.0 -0.1 -0.05 0.0 -0.1 0.05 -0.15 0.0 -0.1 0.0 -0.1 -0.05 -0.15 -0.1 -0.15 -0.05" fill="#73677a" fill-rule="evenodd" stroke="none"/>
    <path d="M-0.2 -0.5 L-0.25 -0.4 -0.3 -0.3 -0.35 -0.3 -0.35 -0.5 -0.3 -0.5 -0.2 -0.5" fill="#9f877b" fill-rule="evenodd" stroke="none"/>
    <path d="M-0.4 -0.1 L-0.35 0.0 -0.3 0.1 -0.35 0.15 -0.4 0.05 -0.45 0.0 -0.4 -0.1" fill="#c2a773" fill-rule="evenodd" stroke="none"/>
    <path d="M-0.5 -0.1 L-0.45 -0.1 Q-0.4 -0.05 -0.45 -0.05 L-0.5 -0.1" fill="#d9bf9f" fill-rule="evenodd" stroke="none"/>
    <path d="M-0.3 -0.15 Q-0.25 -0.25 -0.25 -0.15 L-0.25 0.0 -0.25 0.05 -0.3 -0.05 -0.3 -0.15 M-0.25 0.0 L-0.25 0.0" fill="#8d7561" fill-rule="evenodd" stroke="none"/>
    <path d="M-0.1 -0.3 L-0.1 -0.3 -0.05 -0.15 -0.15 -0.2 Q-0.2 -0.2 -0.1 -0.25 L-0.15 -0.3 -0.1 -0.3" fill="#f1eef9" fill-rule="evenodd" stroke="none"/>
    <path d="M-0.15 -0.35 L-0.1 -0.3 -0.05 -0.25 -0.05 -0.2 0.0 -0.15 0.0 -0.05 0.0 0.05 -0.1 0.05 -0.05 0.0 0.0 -0.1 -0.1 -0.1 -0.2 -0.2 -0.2 -0.3 -0.15 -0.35 M-0.1 -0.3 L-0.15 -0.3 -0.1 -0.25 Q-0.2 -0.2 -0.15 -0.2 L-0.05 -0.15 -0.1 -0.3" fill="#b1a7bd" fill-rule="evenodd" stroke="none"/>
    <path d="M-0.05 -0.25 L0.0 -0.2 0.1 -0.15 0.05 -0.05 0.0 -0.05 0.0 -0.15 -0.05 -0.2 -0.05 -0.25" fill="#f0eef7" fill-rule="evenodd" stroke="none"/>
    <path d="M-0.15 0.0 L-0.15 -0.05 -0.15 -0.1 -0.1 -0.05 -0.1 0.0 -0.15 0.0 -0.15 0.0" fill="#aea2b9" fill-rule="evenodd" stroke="none"/>
    <path d="M-0.25 0.0 L-0.2 -0.05 Q-0.2 -0.05 -0.2 0.0 L-0.2 0.1 -0.25 0.0 -0.25 0.0" fill="#d1af97" fill-rule="evenodd" stroke="none"/>
    <path d="M-2.2 -0.1 L-1.95 -0.05 -2.05 0.2 -2.15 0.35 -2.15 0.45 -2.2 0.5 -2.2 -0.1" fill="#862891" fill-rule="evenodd" stroke="none"/>
    <path d="M1.65 -2.2 L1.7 -2.15 Q1.7 -2.1 1.65 -2.1 L1.75 -2.0 Q1.8 -1.95 1.9 -1.95 L2.05 -2.0 2.2 -2.05 2.2 -1.1 2.15 -1.0 2.15 -0.95 Q2.1 -0.85 2.05 -0.9 L2.05 -0.75 2.1 -0.6 2.1 -0.3 Q2.1 -0.25 2.1 -0.2 L2.1 -0.1 1.95 -0.2 Q1.85 -0.3 1.85 -0.35 L1.75 -0.4 1.7 -0.35 1.8 -0.25 1.75 -0.15 1.7 -0.05 1.85 -0.05 1.85 0.05 1.9 0.1 1.8 0.1 1.7 0.1 1.55 0.05 1.5 0.1 1.45 0.1 1.5 0.2 1.55 0.3 Q1.45 0.45 1.5 0.6 L1.6 0.65 1.65 0.7 Q1.7 0.65 1.7 0.65 1.75 0.65 1.7 0.7 L1.9 0.9 Q2.05 1.0 2.2 1.0 L2.2 2.2 1.9 2.2 1.8 2.15 1.9 2.1 1.85 1.95 1.9 1.95 1.95 1.9 1.95 1.85 1.95 1.8 Q1.95 1.75 1.85 1.7 L1.7 1.7 1.65 1.65 Q1.65 1.6 1.65 1.55 L1.7 1.5 1.65 1.4 1.65 1.3 1.7 1.2 Q1.75 1.15 1.75 1.05 L1.75 0.9 1.7 0.8 1.6 0.8 1.6 0.7 1.55 0.7 1.45 0.7 1.4 0.75 1.4 0.85 Q1.35 0.95 1.3 0.95 L1.3 0.85 1.25 0.75 1.2 0.65 1.3 0.6 1.4 0.55 1.45 0.5 1.45 0.4 Q1.45 0.35 1.45 0.35 1.5 0.3 1.45 0.2 L1.4 0.2 1.4 0.1 1.3 0.05 Q1.25 0.0 1.3 0.0 L1.3 -0.05 1.45 -0.05 1.55 -0.2 1.6 -0.35 1.7 -0.45 1.85 -0.5 1.95 -0.6 1.9 -0.65 1.85 -0.75 1.75 -0.75 1.75 -0.8 1.8 -0.85 Q1.75 -0.9 1.8 -0.9 L1.9 -0.95 2.0 -1.0 Q1.95 -1.05 2.0 -1.1 L2.0 -1.2 1.95 -1.25 1.95 -1.35 Q1.95 -1.4 1.95 -1.45 L1.95 -1.6 1.9 -1.65 1.85 -1.75 1.9 -1.85 1.85 -1.9 1.65 -1.9 Q1.55 -1.85 1.45 -1.75 1.45 -1.7 1.55 -1.6 L1.55 -1.6 1.5 -1.6 1.45 -1.6 1.4 -1.65 1.4 -1.7 1.35 -1.75 1.2 -1.65 1.0 -1.6 Q0.85 -1.5 0.75 -1.4 L0.7 -1.35 0.75 -1.3 0.55 -1.2 0.6 -1.15 0.65 -1.1 0.7 -1.15 0.75 -1.2 Q0.8 -1.15 0.85 -1.15 L0.9 -1.15 0.9 -1.15 Q0.85 -1.15 0.85 -1.2 L0.85 -1.3 1.0 -1.3 1.15 -1.35 1.2 -1.3 1.15 -1.25 1.2 -1.15 1.2 -1.1 1.15 -1.0 Q1.15 -0.95 1.1 -0.9 L1.1 -0.85 1.0 -0.75 Q0.95 -0.7 1.0 -0.6 L1.05 -0.55 1.05 -0.5 1.0 -0.55 0.95 -0.6 0.85 -0.55 0.7 -0.55 0.65 -0.5 0.6 -0.5 Q0.55 -0.45 0.5 -0.5 L0.5 -0.65 0.5 -0.7 0.55 -0.65 0.6 -0.7 0.6 -0.8 0.5 -0.85 0.55 -0.85 0.55 -0.9 0.55 -0.95 0.45 -1.1 0.4 -1.15 0.35 -1.2 0.45 -1.25 0.6 -1.35 0.7 -1.4 Q0.75 -1.45 0.7 -1.5 L0.55 -1.6 Q0.45 -1.7 0.4 -1.7 0.35 -1.7 0.3 -1.75 L0.5 -1.75 0.55 -1.7 0.6 -1.65 0.7 -1.6 0.8 -1.6 Q0.9 -1.6 0.95 -1.7 1.05 -1.75 1.05 -1.85 L1.1 -1.95 1.05 -2.05 Q1.05 -2.1 1.05 -2.15 L1.15 -2.2 1.65 -2.2 M1.7 0.7 L1.7 0.7 1.65 0.7 1.7 0.7 M1.35 -2.1 Q1.3 -2.15 1.25 -2.15 1.1 -1.95 1.1 -1.65 L1.3 -1.75 1.5 -1.85 1.45 -1.9 1.4 -1.9 1.4 -2.0 1.35 -2.1 M2.1 1.9 L2.15 1.85 2.1 1.85 Q2.1 1.9 2.1 1.9" fill="#732271" fill-rule="evenodd" stroke="none"/>
    <path d="M2.2 -2.05 L2.05 -2.0 1.9 -1.95 Q1.8 -1.95 1.75 -2.0 L1.65 -2.1 Q1.7 -2.1 1.7 -2.15 L1.65 -2.2 2.2 -2.2 2.2 -2.05" fill="#631d67" fill-rule="evenodd" stroke="none"/>
    <path d="M0.5 -0.5 Q0.55 -0.45 0.6 -0.5 L0.65 -0.5 0.7 -0.55 0.85 -0.55 0.95 -0.6 1.0 -0.55 1.05 -0.5 1.05 -0.55 1.0 -0.6 Q0.95 -0.7 1.0 -0.75 L1.1 -0.85 1.1 -0.9 Q1.15 -0.95 1.15 -1.0 L1.2 -1.1 1.2 -1.15 1.15 -1.25 1.2 -1.3 1.15 -1.35 1.0 -1.3 0.85 -1.3 0.85 -1.2 Q0.85 -1.15 0.9 -1.15 L0.9 -1.15 0.85 -1.15 Q0.8 -1.15 0.75 -1.2 L0.7 -1.15 0.65 -1.1 0.6 -1.15 0.55 -1.2 0.75 -1.3 0.7 -1.35 0.75 -1.4 Q0.85 -1.5 1.0 -1.6 L1.2 -1.65 1.35 -1.75 1.4 -1.7 1.4 -1.65 1.45 -1.6 1.5 -1.6 1.55 -1.6 1.55 -1.6 Q1.45 -1.7 1.45 -1.75 1.55 -1.85 1.65 -1.9 L1.85 -1.9 1.9 -1.85 1.85 -1.75 1.9 -1.65 1.95 -1.6 1.95 -1.45 Q1.95 -1.4 1.95 -1.35 L1.95 -1.25 2.0 -1.2 2.0 -1.1 Q1.95 -1.05 2.0 -1.0 L1.9 -0.95 1.8 -0.9 Q1.75 -0.9 1.8 -0.85 L1.75 -0.8 1.75 -0.75 1.85 -0.75 1.9 -0.65 1.95 -0.6 1.85 -0.5 1.7 -0.45 1.6 -0.35 1.55 -0.2 1.45 -0.05 1.3 -0.05 1.3 0.0 Q1.25 0.0 1.3 0.05 L1.4 0.1 1.4 0.2 1.45 0.2 Q1.5 0.3 1.45 0.35 1.45 0.35 1.45 0.4 L1.45 0.5 1.4 0.55 1.3 0.6 1.2 0.65 1.25 0.75 1.3 0.85 1.3 0.95 Q1.35 0.95 1.4 0.85 L1.4 0.75 1.45 0.7 1.55 0.7 1.55 0.75 1.6 0.75 1.6 0.7 1.6 0.8 1.7 0.8 1.75 0.9 1.75 1.05 Q1.75 1.15 1.7 1.2 L1.65 1.3 1.65 1.4 1.7 1.5 1.65 1.55 Q1.65 1.6 1.65 1.65 L1.7 1.7 1.85 1.7 Q1.95 1.75 1.95 1.8 L1.9 1.8 1.85 1.8 Q1.8 1.8 1.8 1.85 L1.85 1.9 1.95 1.9 1.9 1.95 1.85 1.95 1.9 2.1 1.8 2.15 1.75 2.1 1.8 2.1 1.8 2.05 1.7 2.0 1.65 1.9 Q1.6 1.95 1.6 1.9 L1.6 1.85 1.55 1.8 1.6 1.75 1.65 1.7 1.65 1.65 Q1.6 1.6 1.65 1.55 L1.65 1.4 1.55 1.35 1.5 1.3 1.45 1.2 Q1.4 1.1 1.3 1.1 L1.1 1.1 1.05 1.2 1.05 1.3 1.1 1.4 1.15 1.5 1.0 1.45 Q0.9 1.45 0.85 1.45 L0.8 1.4 Q0.75 1.3 0.85 1.3 L1.0 1.3 1.05 1.15 0.9 1.1 0.8 1.1 0.7 1.1 0.6 1.2 0.55 1.1 0.45 1.0 0.45 0.95 0.4 0.9 0.3 0.8 0.3 0.7 0.35 0.65 0.35 0.6 0.3 0.65 0.25 0.6 0.2 0.5 0.15 0.45 0.1 0.4 0.35 0.45 0.55 0.45 0.5 0.5 0.4 0.55 0.45 0.6 0.45 0.7 0.5 0.75 0.6 0.8 0.5 0.85 0.5 0.95 0.9 1.05 0.95 1.1 1.0 1.1 Q1.05 1.1 1.1 1.0 L1.1 0.95 1.15 0.9 0.95 0.75 1.0 0.65 1.1 0.65 1.15 0.55 Q1.15 0.5 1.2 0.55 L1.3 0.55 1.35 0.5 1.3 0.45 1.25 0.4 1.25 0.25 Q1.25 0.2 1.2 0.15 1.15 0.15 1.15 0.1 L1.15 0.0 Q1.1 0.0 1.1 -0.05 L1.05 -0.15 1.0 -0.15 1.0 -0.2 1.05 -0.25 Q1.1 -0.3 1.15 -0.25 L1.15 -0.2 1.2 -0.15 1.3 -0.3 1.35 -0.45 Q1.4 -0.5 1.4 -0.55 L1.3 -0.6 Q1.3 -0.65 1.35 -0.65 L1.4 -0.7 Q1.45 -0.85 1.5 -0.95 1.6 -1.05 1.75 -1.1 L1.85 -1.2 1.85 -1.3 Q1.85 -1.4 1.85 -1.45 L1.8 -1.45 1.8 -1.5 1.85 -1.55 Q1.9 -1.6 1.85 -1.65 L1.8 -1.7 1.75 -1.75 1.65 -1.7 1.6 -1.75 1.55 -1.75 1.55 -1.7 1.6 -1.65 1.6 -1.55 Q1.6 -1.5 1.6 -1.5 L1.6 -1.45 1.55 -1.35 1.45 -1.25 Q1.4 -1.25 1.35 -1.2 L1.3 -1.1 1.25 -1.05 Q1.2 -1.05 1.2 -1.0 L1.2 -0.95 1.15 -0.85 Q1.15 -0.85 1.15 -0.75 L1.2 -0.65 Q1.2 -0.65 1.15 -0.7 L1.15 -0.7 1.05 -0.7 1.1 -0.6 1.15 -0.5 1.1 -0.4 1.05 -0.3 1.0 -0.35 1.0 -0.45 0.9 -0.5 0.85 -0.5 0.8 -0.45 0.8 -0.35 0.85 -0.3 0.85 -0.3 0.85 -0.2 0.8 -0.1 Q0.8 -0.05 0.8 0.0 L0.85 0.1 0.75 0.1 0.55 0.0 Q0.45 0.0 0.45 -0.05 L0.45 -0.1 0.5 -0.15 0.5 -0.35 Q0.45 -0.45 0.5 -0.5 M1.7 1.2 L1.7 1.1 1.65 1.0 1.6 1.0 1.55 1.0 1.5 1.1 1.55 1.15 1.65 1.15 1.7 1.2" fill="#7e2478" fill-rule="evenodd" stroke="none"/>
    <path d="M1.35 -2.1 L1.4 -2.0 1.4 -1.9 1.45 -1.9 1.5 -1.85 1.3 -1.75 1.1 -1.65 Q1.1 -1.95 1.25 -2.15 1.3 -2.15 1.35 -2.1" fill="#661e6b" fill-rule="evenodd" stroke="none"/>
    <path d="M0.85 -0.3 L0.8 -0.35 0.8 -0.45 0.85 -0.5 0.9 -0.5 1.0 -0.45 1.0 -0.35 1.05 -0.3 1.1 -0.4 1.15 -0.5 1.1 -0.6 1.05 -0.7 1.15 -0.7 1.15 -0.7 Q1.2 -0.65 1.2 -0.65 L1.15 -0.75 Q1.15 -0.85 1.15 -0.85 L1.2 -0.95 1.2 -1.0 Q1.2 -1.05 1.25 -1.05 L1.3 -1.1 1.35 -1.2 Q1.4 -1.25 1.45 -1.25 L1.55 -1.35 1.6 -1.45 1.6 -1.5 Q1.6 -1.5 1.6 -1.55 L1.6 -1.65 1.55 -1.7 1.55 -1.75 1.6 -1.75 1.65 -1.7 1.75 -1.75 1.8 -1.7 1.85 -1.65 Q1.9 -1.6 1.85 -1.55 L1.8 -1.5 1.8 -1.45 1.85 -1.45 Q1.85 -1.4 1.85 -1.3 L1.85 -1.2 1.75 -1.1 Q1.6 -1.05 1.5 -0.95 1.45 -0.85 1.4 -0.7 L1.35 -0.65 Q1.3 -0.65 1.3 -0.6 L1.4 -0.55 Q1.4 -0.5 1.35 -0.45 L1.3 -0.3 1.2 -0.15 1.15 -0.2 1.15 -0.25 Q1.1 -0.3 1.05 -0.25 L1.0 -0.2 1.0 -0.15 1.05 -0.15 1.1 -0.05 Q1.1 0.0 1.15 0.0 L1.15 0.1 Q1.15 0.15 1.2 0.15 1.25 0.2 1.25 0.25 L1.25 0.4 1.3 0.45 1.35 0.5 1.3 0.55 1.2 0.55 Q1.15 0.5 1.15 0.55 L1.1 0.65 1.0 0.65 0.95 0.75 1.15 0.9 1.1 0.95 1.1 1.0 Q1.05 1.1 1.0 1.1 L0.95 1.1 0.9 1.05 0.5 0.95 0.5 0.85 0.6 0.8 0.5 0.75 0.45 0.7 0.45 0.6 0.4 0.55 0.5 0.5 0.55 0.45 0.35 0.45 0.1 0.4 0.15 0.3 0.25 0.2 0.35 0.15 0.35 0.1 0.35 0.05 0.4 0.1 0.4 0.15 0.35 0.15 0.45 0.25 0.5 0.15 0.45 0.1 0.45 0.0 0.45 -0.05 Q0.45 0.0 0.55 0.0 L0.75 0.1 0.85 0.1 0.8 0.0 Q0.8 -0.05 0.8 -0.1 L0.85 -0.2 0.85 -0.3 0.9 -0.35 0.95 -0.35 1.0 -0.4 0.95 -0.45 0.9 -0.5 0.85 -0.45 0.8 -0.45 0.8 -0.35 0.85 -0.35 0.85 -0.3 M0.95 -0.1 L0.9 -0.1 0.9 -0.1 0.85 -0.05 0.85 0.05 Q0.85 0.05 0.9 0.1 L1.0 0.05 1.05 0.0 1.05 -0.05 1.0 -0.1 0.95 -0.1 M0.9 1.05 L1.0 1.05 1.05 1.0 1.05 0.9 0.95 0.85 0.9 0.85 Q0.85 0.85 0.8 0.9 L0.8 1.0 0.85 1.0 0.9 1.05 M0.5 0.45 Q0.55 0.4 0.5 0.35 L0.4 0.35 0.4 0.4 0.5 0.45 M0.8 0.6 Q0.75 0.55 0.7 0.6 0.65 0.6 0.65 0.6 L0.6 0.65 0.65 0.75 0.7 0.75 0.75 0.75 0.8 0.7 Q0.8 0.7 0.8 0.6" fill="#8a2782" fill-rule="evenodd" stroke="none"/>
    <path d="M0.65 -2.2 L0.85 -2.2 1.0 -2.05 0.95 -1.85 0.9 -1.8 0.8 -1.7 0.65 -1.75 0.6 -1.85 Q0.45 -1.8 0.4 -1.95 0.35 -2.0 0.4 -2.0 L0.45 -2.0 0.55 -2.1 0.65 -2.2" fill="#822487" fill-rule="evenodd" stroke="none"/>
    <path d="M0.35 -1.2 L0.4 -1.15 0.45 -1.1 0.45 -1.05 0.4 -1.0 0.4 -0.95 Q0.45 -0.9 0.5 -0.9 L0.55 -0.95 0.55 -0.9 0.5 -0.9 0.55 -0.85 0.5 -0.85 0.55 -0.8 0.6 -0.75 0.55 -0.75 0.45 -0.75 Q0.4 -0.75 0.4 -0.65 L0.35 -0.65 0.3 -0.65 Q0.2 -0.7 0.2 -0.75 L0.3 -0.7 Q0.35 -0.7 0.35 -0.75 L0.3 -0.75 0.3 -0.8 0.25 -0.8 0.2 -0.85 0.2 -0.9 0.15 -0.9 0.2 -1.0 0.25 -1.05 0.2 -1.1 Q0.15 -1.15 0.2 -1.15 L0.3 -1.15 0.35 -1.2 M0.4 -0.95 L0.3 -1.0 Q0.25 -0.95 0.3 -0.9 L0.35 -0.85 Q0.4 -0.9 0.4 -0.95" fill="#68535e" fill-rule="evenodd" stroke="none"/>
    <path d="M0.55 -0.9 L0.55 -0.85 0.5 -0.9 0.55 -0.9" fill="#e1d3da" fill-rule="evenodd" stroke="none"/>
    <path d="M0.5 -0.85 L0.6 -0.8 0.6 -0.7 0.55 -0.65 0.5 -0.7 0.5 -0.65 0.45 -0.6 0.45 -0.55 0.4 -0.45 0.35 -0.4 0.3 -0.4 0.25 -0.45 0.2 -0.4 0.15 -0.45 0.15 -0.55 0.2 -0.5 0.25 -0.5 0.35 -0.5 0.3 -0.55 0.3 -0.6 0.35 -0.6 0.4 -0.55 0.35 -0.65 0.3 -0.65 0.25 -0.65 0.2 -0.7 0.2 -0.8 0.25 -0.8 0.3 -0.8 0.3 -0.75 0.35 -0.75 Q0.35 -0.7 0.3 -0.7 L0.2 -0.75 Q0.2 -0.7 0.3 -0.65 L0.35 -0.65 0.4 -0.65 Q0.4 -0.75 0.45 -0.75 L0.55 -0.75 0.6 -0.75 0.55 -0.8 0.5 -0.85 M0.2 -0.7 L0.2 -0.7 M0.35 -0.4 L0.35 -0.4" fill="#332334" fill-rule="evenodd" stroke="none"/>
    <path d="M0.45 -1.1 L0.55 -0.95 0.5 -0.9 Q0.45 -0.9 0.4 -0.95 L0.4 -1.0 0.45 -1.05 0.45 -1.1" fill="#8d8187" fill-rule="evenodd" stroke="none"/>
    <path d="M0.4 -0.95 Q0.4 -0.9 0.35 -0.85 L0.3 -0.9 Q0.25 -0.95 0.3 -1.0 L0.4 -0.95" fill="#a08e95" fill-rule="evenodd" stroke="none"/>
    <path d="M0.15 -0.9 L0.2 -0.9 0.2 -0.85 0.25 -0.8 0.2 -0.8 0.15 -0.85 0.1 -0.9 0.15 -0.9" fill="#e5bb9d" fill-rule="evenodd" stroke="none"/>
    <path d="M0.25 -0.5 L0.2 -0.5 0.15 -0.55 0.1 -0.6 Q0.05 -0.65 0.05 -0.7 L0.05 -0.75 0.1 -0.8 0.1 -0.8 0.15 -0.8 0.15 -0.75 0.15 -0.75 0.15 -0.7 Q0.15 -0.65 0.15 -0.65 L0.2 -0.6 0.15 -0.55 0.2 -0.55 0.25 -0.5" fill="#4e3d47" fill-rule="evenodd" stroke="none"/>
    <path d="M0.2 -0.7 L0.2 -0.7 0.15 -0.65 Q0.15 -0.65 0.15 -0.7 L0.15 -0.75 0.15 -0.75 0.15 -0.75 0.2 -0.7" fill="#a07b7e" fill-rule="evenodd" stroke="none"/>
    <path d="M0.2 -0.7 L0.25 -0.65 0.3 -0.65 0.35 -0.65 0.4 -0.55 0.35 -0.6 0.3 -0.6 0.25 -0.6 0.2 -0.6 0.15 -0.65 0.2 -0.7" fill="#e5d4cf" fill-rule="evenodd" stroke="none"/>
    <path d="M0.5 -0.65 L0.5 -0.5 Q0.45 -0.45 0.5 -0.35 L0.5 -0.15 0.45 -0.1 0.45 -0.05 0.45 0.0 0.4 0.0 0.4 -0.05 0.3 -0.05 0.3 0.05 0.25 0.0 0.25 -0.05 Q0.25 -0.05 0.3 -0.05 L0.3 -0.05 0.35 -0.2 0.35 -0.3 0.35 -0.4 0.35 -0.4 0.4 -0.45 0.45 -0.55 0.45 -0.6 0.5 -0.65 M0.35 -0.3 L0.35 -0.3" fill="#5c3b4d" fill-rule="evenodd" stroke="none"/>
    <path d="M0.35 -0.4 L0.4 -0.45 0.45 -0.55 0.4 -0.45 0.35 -0.4" fill="#76628c" fill-rule="evenodd" stroke="none"/>
    <path d="M0.3 -0.6 L0.3 -0.55 0.2 -0.55 0.15 -0.55 0.2 -0.6 0.25 -0.6 0.3 -0.6" fill="#825a6a" fill-rule="evenodd" stroke="none"/>
    <path d="M0.3 -0.55 L0.35 -0.5 0.25 -0.5 0.2 -0.55 0.3 -0.55" fill="#efe2da" fill-rule="evenodd" stroke="none"/>
    <path d="M0.3 -0.4 L0.35 -0.4 0.35 -0.3 0.25 -0.25 0.2 -0.2 0.15 -0.2 Q0.1 -0.2 0.1 -0.25 0.05 -0.25 0.0 -0.3 L0.0 -0.4 0.1 -0.35 0.2 -0.35 0.25 -0.35 0.3 -0.4" fill="#54aa98" fill-rule="evenodd" stroke="none"/>
    <path d="M0.15 -0.45 L0.2 -0.4 0.15 -0.45 0.15 -0.45" fill="#c4ad9d" fill-rule="evenodd" stroke="none"/>
    <path d="M0.35 -0.3 L0.35 -0.2 0.3 -0.05 0.25 -0.05 0.25 0.0 0.3 0.05 0.25 0.05 0.2 0.15 0.1 0.2 0.05 0.3 0.0 0.25 0.0 0.2 0.1 0.15 Q0.1 0.1 0.05 0.1 L0.15 0.05 0.2 0.0 Q0.25 -0.1 0.2 -0.1 L0.1 -0.1 0.15 -0.2 0.2 -0.2 0.3 -0.25 0.35 -0.3" fill="#1b1722" fill-rule="evenodd" stroke="none"/>
    <path d="M-0.2 0.0 L-0.15 0.0 -0.1 0.05 0.0 0.05 0.0 -0.05 0.05 -0.05 0.1 -0.05 0.1 -0.1 0.2 -0.1 Q0.25 -0.1 0.2 0.0 L0.15 0.05 0.05 0.1 Q0.1 0.1 0.1 0.15 L0.0 0.2 -0.1 0.2 -0.15 0.15 -0.15 0.15 -0.1 0.15 -0.1 0.1 -0.2 0.1 -0.2 0.1 -0.2 0.0 M-0.15 0.0 L-0.15 0.0" fill="#352937" fill-rule="evenodd" stroke="none"/>
    <path d="M0.35 -0.3 L0.35 -0.3 0.3 -0.25 0.2 -0.2 0.25 -0.25 0.35 -0.3" fill="#366c81" fill-rule="evenodd" stroke="none"/>
    <path d="M0.3 -0.05 L0.3 -0.05 Q0.25 -0.05 0.25 -0.05 L0.3 -0.05" fill="#e9e2dd" fill-rule="evenodd" stroke="none"/>
    <path d="M0.4 0.0 L0.45 0.0 0.45 0.1 0.5 0.15 0.45 0.25 0.35 0.15 0.4 0.15 0.4 0.1 0.35 0.05 0.4 0.05 0.4 0.0 0.4 0.0 M0.45 0.1 L0.4 0.2 0.5 0.15 0.45 0.1" fill="#f154da" fill-rule="evenodd" stroke="none"/>
    <path d="M0.4 -0.05 L0.4 0.0 0.4 -0.05 M0.4 0.0 L0.4 0.0" fill="#ad6e7b" fill-rule="evenodd" stroke="none"/>
    <path d="M0.3 0.05 L0.3 -0.05 0.4 -0.05 0.4 0.0 0.4 0.05 0.35 0.05 0.25 0.05 0.3 0.05" fill="#fdf8f9" fill-rule="evenodd" stroke="none"/>
    <path d="M0.85 -0.45 L0.85 -0.4 Q0.85 -0.35 0.9 -0.35 L0.9 -0.4 0.95 -0.4 0.9 -0.45 0.85 -0.45 0.9 -0.45 0.95 -0.45 0.95 -0.35 0.9 -0.35 0.85 -0.35 Q0.8 -0.4 0.85 -0.45" fill="#fe66f0" fill-rule="evenodd" stroke="none"/>
    <path d="M0.85 -0.45 L0.9 -0.45 0.95 -0.4 0.9 -0.4 0.9 -0.35 Q0.85 -0.35 0.85 -0.4 L0.85 -0.45" fill="#fff0ff" fill-rule="evenodd" stroke="none"/>
    <path d="M0.95 -0.45 L0.9 -0.45 0.85 -0.45 Q0.8 -0.4 0.85 -0.35 L0.9 -0.35 0.85 -0.3 0.85 -0.35 0.8 -0.35 0.8 -0.45 0.85 -0.45 0.9 -0.5 0.95 -0.45 M0.85 -0.3 L0.85 -0.3" fill="#cb3db1" fill-rule="evenodd" stroke="none"/>
    <path d="M0.95 -0.35 L0.95 -0.45 1.0 -0.4 0.95 -0.35" fill="#c838af" fill-rule="evenodd" stroke="none"/>
    <path d="M0.95 -0.1 L1.0 -0.05 1.0 0.05 0.9 0.05 0.85 0.0 0.9 -0.1 0.9 -0.1 0.95 -0.1 0.9 -0.05 0.9 0.0 0.95 0.0 1.0 -0.05 0.95 -0.1" fill="#fc63ed" fill-rule="evenodd" stroke="none"/>
    <path d="M0.9 -0.1 L0.85 0.0 0.9 0.05 1.0 0.05 1.0 -0.05 0.95 -0.1 1.0 -0.1 1.05 -0.05 1.05 0.0 1.0 0.05 0.9 0.1 Q0.85 0.05 0.85 0.05 L0.85 -0.05 0.9 -0.1" fill="#c237a8" fill-rule="evenodd" stroke="none"/>
    <path d="M0.95 -0.1 L1.0 -0.05 0.95 0.0 0.9 0.0 0.9 -0.05 0.95 -0.1" fill="#fef2fe" fill-rule="evenodd" stroke="none"/>
    <path d="M1.3 -0.05 L1.3 0.0 1.3 -0.05" fill="#fe48e7" fill-rule="evenodd" stroke="none"/>
    <path d="M2.2 1.0 Q2.05 1.0 1.9 0.9 L1.7 0.7 Q1.75 0.65 1.7 0.65 1.7 0.65 1.65 0.7 L1.6 0.65 1.5 0.6 Q1.45 0.45 1.55 0.3 L1.5 0.2 1.45 0.1 1.5 0.1 1.55 0.05 1.7 0.1 1.8 0.1 1.9 0.1 1.85 0.05 1.85 -0.05 1.7 -0.05 1.75 -0.15 1.8 -0.25 1.7 -0.35 1.75 -0.4 1.85 -0.35 Q1.85 -0.3 1.95 -0.2 L2.1 -0.1 2.1 -0.2 Q2.1 -0.25 2.1 -0.3 L2.1 -0.6 2.05 -0.75 2.05 -0.9 Q2.1 -0.85 2.15 -0.95 L2.15 -1.0 2.2 -1.1 2.2 1.0" fill="#671e68" fill-rule="evenodd" stroke="none"/>
    <path d="M2.1 1.9 Q2.1 1.9 2.1 1.85 L2.15 1.85 2.1 1.9" fill="#f163d9" fill-rule="evenodd" stroke="none"/>
    <path d="M1.35 1.2 L1.45 1.3 1.45 1.55 Q1.45 1.6 1.4 1.6 L1.35 1.55 1.35 1.45 Q1.3 1.4 1.25 1.45 L1.2 1.45 Q1.15 1.4 1.2 1.4 L1.2 1.35 1.15 1.3 1.1 1.25 Q1.1 1.25 1.1 1.2 L1.25 1.2 1.35 1.2 M1.4 1.4 Q1.45 1.35 1.4 1.3 L1.35 1.25 1.25 1.2 1.25 1.25 Q1.2 1.3 1.25 1.3 L1.25 1.4 1.4 1.4 M1.4 1.5 L1.35 1.5 1.35 1.55 1.4 1.55 1.4 1.5 M1.15 1.3 L1.2 1.25 Q1.2 1.2 1.15 1.2 L1.1 1.25 1.15 1.3" fill="#fd75f0" fill-rule="evenodd" stroke="none"/>
    <path d="M1.1 1.2 L1.25 1.15 Q1.35 1.15 1.35 1.2 L1.25 1.2 1.1 1.2" fill="#ca3da9" fill-rule="evenodd" stroke="none"/>
    <path d="M0.85 1.45 Q0.9 1.45 1.0 1.45 L1.15 1.5 1.1 1.4 1.05 1.3 1.05 1.2 1.1 1.1 1.3 1.1 Q1.4 1.1 1.45 1.2 L1.5 1.3 1.55 1.35 1.65 1.4 1.65 1.55 Q1.6 1.6 1.65 1.65 L1.65 1.7 1.6 1.75 1.55 1.8 1.6 1.85 1.6 1.9 Q1.6 1.95 1.65 1.9 L1.7 2.0 1.8 2.05 1.8 2.1 1.75 2.1 1.35 1.9 1.4 1.8 1.4 1.75 Q1.35 1.7 1.35 1.75 L1.3 1.85 1.2 1.8 1.1 1.7 1.0 1.6 0.85 1.45 M1.35 1.2 Q1.35 1.15 1.25 1.15 L1.1 1.2 Q1.05 1.2 1.1 1.3 L1.2 1.4 Q1.15 1.4 1.2 1.45 L1.25 1.45 1.3 1.5 1.35 1.55 1.35 1.6 1.45 1.6 Q1.5 1.5 1.55 1.6 L1.55 1.7 1.6 1.7 1.6 1.65 1.6 1.55 1.65 1.55 1.65 1.5 1.6 1.45 1.55 1.45 1.5 1.45 Q1.45 1.45 1.5 1.4 L1.55 1.35 1.45 1.3 1.35 1.2" fill="#8b2c7f" fill-rule="evenodd" stroke="none"/>
    <path d="M0.85 1.0 L0.8 1.0 0.8 0.9 Q0.85 0.85 0.9 0.85 L0.95 0.85 1.05 0.9 1.05 1.0 1.0 1.05 0.9 1.05 0.95 1.05 1.0 1.0 Q1.05 0.9 1.0 0.9 L0.9 0.9 Q0.85 0.95 0.85 1.0" fill="#b4379d" fill-rule="evenodd" stroke="none"/>
    <path d="M1.55 1.15 L1.5 1.1 1.55 1.0 1.6 1.0 1.65 1.0 1.7 1.1 1.7 1.2 1.65 1.15 1.55 1.15 1.7 1.1 Q1.7 1.05 1.65 1.0 1.6 1.0 1.55 1.05 L1.55 1.15" fill="#bf3ea8" fill-rule="evenodd" stroke="none"/>
    <path d="M1.55 1.15 L1.55 1.05 Q1.6 1.0 1.65 1.0 1.7 1.05 1.7 1.1 L1.55 1.15 M1.6 1.05 L1.6 1.1 1.65 1.1 1.65 1.05 Q1.65 1.0 1.6 1.05" fill="#fd70ed" fill-rule="evenodd" stroke="none"/>
    <path d="M1.6 1.05 Q1.65 1.0 1.65 1.05 L1.65 1.1 1.6 1.1 1.6 1.05" fill="#fffcff" fill-rule="evenodd" stroke="none"/>
    <path d="M0.75 0.75 L0.75 0.7 0.75 0.6 0.65 0.6 Q0.6 0.65 0.65 0.7 L0.7 0.75 0.75 0.75 0.7 0.75 0.65 0.75 0.6 0.65 0.65 0.6 Q0.65 0.6 0.7 0.6 0.75 0.55 0.8 0.6 0.8 0.7 0.8 0.7 L0.75 0.75" fill="#c0399f" fill-rule="evenodd" stroke="none"/>
    <path d="M0.7 0.75 L0.65 0.7 Q0.6 0.65 0.65 0.6 L0.75 0.6 0.75 0.7 0.75 0.75 0.75 0.7 0.7 0.65 Q0.65 0.65 0.65 0.7 L0.7 0.75" fill="#fe6ae9" fill-rule="evenodd" stroke="none"/>
    <path d="M0.45 0.1 L0.5 0.15 0.4 0.2 0.45 0.1" fill="#fff1fe" fill-rule="evenodd" stroke="none"/>
    <path d="M0.1 0.4 L0.15 0.45 0.1 0.5 0.05 0.55 0.15 0.55 0.2 0.5 0.25 0.6 0.3 0.65 0.25 0.7 0.2 0.65 0.25 0.75 0.2 0.75 0.2 0.7 Q0.2 0.65 0.2 0.7 L0.1 0.7 0.15 0.65 Q0.15 0.6 0.15 0.65 L0.05 0.7 -0.05 0.7 -0.05 0.75 -0.1 0.8 -0.15 0.7 -0.25 0.75 -0.25 0.8 -0.2 0.85 -0.05 1.05 -0.1 1.05 -0.2 1.0 -0.25 0.9 Q-0.25 0.8 -0.3 0.7 L-0.35 0.8 -0.35 0.85 -0.4 0.8 Q-0.35 0.8 -0.35 0.8 L-0.35 0.75 -0.35 0.7 -0.25 0.7 -0.2 0.65 -0.2 0.6 -0.15 0.55 -0.1 0.55 -0.05 0.55 -0.1 0.6 -0.1 0.7 -0.05 0.65 0.0 0.65 0.0 0.6 -0.05 0.55 -0.05 0.55 0.0 0.5 0.0 0.45 -0.05 0.45 -0.1 0.4 Q-0.15 0.4 -0.15 0.4 L-0.15 0.45 -0.2 0.4 Q-0.2 0.35 -0.3 0.35 L-0.35 0.3 -0.35 0.3 -0.3 0.25 -0.25 0.2 -0.25 0.3 -0.2 0.25 -0.2 0.15 -0.2 0.15 -0.15 0.15 Q-0.2 0.2 -0.15 0.25 L-0.1 0.3 -0.05 0.25 -0.1 0.2 0.0 0.2 0.0 0.25 0.05 0.3 0.2 0.2 0.25 0.1 0.35 0.1 0.35 0.15 0.25 0.2 0.15 0.3 0.1 0.4 M-0.35 0.7 L-0.35 0.7 M-0.15 0.15 L-0.15 0.15" fill="#573e51" fill-rule="evenodd" stroke="none"/>
    <path d="M0.2 0.15 L0.25 0.05 0.35 0.05 0.35 0.1 0.25 0.1 0.2 0.2 0.2 0.15" fill="#e0cc79" fill-rule="evenodd" stroke="none"/>
    <path d="M0.4 0.15 L0.35 0.15 0.4 0.15" fill="#fff4ff" fill-rule="evenodd" stroke="none"/>
    <path d="M0.05 0.3 L0.1 0.2 0.2 0.15 0.2 0.2 0.05 0.3" fill="#6ba18d" fill-rule="evenodd" stroke="none"/>
    <path d="M0.15 0.45 L0.2 0.5 0.15 0.55 0.05 0.55 0.1 0.5 0.15 0.45" fill="#77627b" fill-rule="evenodd" stroke="none"/>
    <path d="M0.5 0.45 L0.4 0.4 0.4 0.35 0.5 0.35 Q0.55 0.4 0.5 0.45 M0.45 0.4 L0.5 0.35 0.4 0.35 0.45 0.4" fill="#f253da" fill-rule="evenodd" stroke="none"/>
    <path d="M0.45 0.4 L0.4 0.35 0.5 0.35 0.45 0.4" fill="#fedffe" fill-rule="evenodd" stroke="none"/>
    <path d="M0.35 0.65 L0.3 0.7 0.25 0.75 0.2 0.65 0.25 0.7 0.3 0.65 0.35 0.65" fill="#836385" fill-rule="evenodd" stroke="none"/>
    <path d="M0.3 0.65 L0.35 0.6 0.35 0.65 0.3 0.65" fill="#bda6a2" fill-rule="evenodd" stroke="none"/>
    <path d="M0.3 0.7 L0.3 0.8 0.25 0.85 0.2 0.85 0.25 0.9 0.25 1.2 0.2 1.25 0.25 1.15 0.2 1.2 Q0.15 1.15 0.1 1.15 L0.0 1.2 Q0.0 1.15 -0.05 1.1 -0.1 1.1 -0.1 1.15 L-0.1 1.05 -0.05 1.05 0.0 1.1 0.05 1.15 0.1 1.1 0.15 1.05 0.1 1.05 Q0.05 1.05 0.05 1.0 L-0.05 0.95 0.0 0.9 0.05 0.85 0.0 0.8 -0.1 0.8 -0.05 0.75 -0.05 0.7 0.05 0.7 0.15 0.65 Q0.15 0.6 0.15 0.65 L0.1 0.7 0.2 0.7 Q0.2 0.65 0.2 0.7 L0.15 0.75 0.1 0.75 0.05 0.75 0.05 0.8 0.1 0.85 0.15 0.8 0.2 0.75 0.25 0.75 0.3 0.7 M0.05 0.95 L0.05 1.0 0.05 0.95 0.1 0.95 0.15 0.95 0.15 0.9 0.2 0.9 0.15 0.85 Q0.1 0.85 0.1 0.9 L0.1 0.95 0.05 0.95 M-0.05 1.05 L-0.05 1.05 -0.05 1.05" fill="#3e2c40" fill-rule="evenodd" stroke="none"/>
    <path d="M0.3 0.8 L0.4 0.9 Q0.35 0.95 0.35 0.95 0.4 1.0 0.45 0.95 L0.45 1.0 Q0.45 1.0 0.4 1.05 L0.4 1.1 0.3 1.0 0.25 0.9 0.2 0.85 0.25 0.85 0.3 0.8" fill="#6f6d86" fill-rule="evenodd" stroke="none"/>
    <path d="M0.2 0.75 L0.15 0.8 0.1 0.75 0.15 0.75 0.2 0.7 0.2 0.75" fill="#f9efe3" fill-rule="evenodd" stroke="none"/>
    <path d="M-0.05 0.55 L0.0 0.6 0.0 0.65 -0.05 0.65 -0.1 0.6 -0.05 0.55" fill="#f9f0ee" fill-rule="evenodd" stroke="none"/>
    <path d="M0.15 0.8 L0.1 0.85 0.05 0.8 0.05 0.75 0.1 0.75 0.15 0.8" fill="#dda1af" fill-rule="evenodd" stroke="none"/>
    <path d="M0.05 0.85 L0.0 0.9 -0.05 0.95 -0.1 0.9 Q-0.15 0.8 -0.2 0.85 L-0.25 0.8 -0.25 0.75 -0.15 0.7 -0.1 0.8 -0.05 0.85 0.05 0.85" fill="#a58887" fill-rule="evenodd" stroke="none"/>
    <path d="M-0.1 0.8 L0.0 0.8 0.05 0.85 -0.05 0.85 -0.1 0.8" fill="#6a4e4b" fill-rule="evenodd" stroke="none"/>
    <path d="M0.15 0.85 L0.2 0.9 0.15 0.9 0.15 0.85" fill="#cfbbc3" fill-rule="evenodd" stroke="none"/>
    <path d="M0.1 0.95 L0.1 0.9 Q0.1 0.85 0.15 0.85 L0.15 0.9 0.15 0.95 0.1 0.95" fill="#8a6e71" fill-rule="evenodd" stroke="none"/>
    <path d="M0.05 0.95 L0.1 0.95 0.05 0.95 M0.15 0.95 L0.1 0.95 0.15 0.95" fill="#cbb9c1" fill-rule="evenodd" stroke="none"/>
    <path d="M0.05 1.0 Q0.05 1.05 0.1 1.05 L0.15 1.05 0.1 1.1 0.05 1.15 0.0 1.1 -0.05 1.05 0.0 1.05 0.0 1.0 0.05 1.0" fill="#5a4d5f" fill-rule="evenodd" stroke="none"/>
    <path d="M-0.05 0.95 L0.05 1.0 0.0 1.0 0.0 1.05 0.0 1.0 -0.05 1.05 -0.2 0.85 Q-0.15 0.8 -0.1 0.9 L-0.05 0.95 M-0.05 1.05 L-0.05 1.05" fill="#8f706c" fill-rule="evenodd" stroke="none"/>
    <path d="M0.05 1.0 L0.05 0.95 0.05 1.0 0.0 1.0 0.05 1.0" fill="#cfbac2" fill-rule="evenodd" stroke="none"/>
    <path d="M-0.1 1.15 Q-0.1 1.1 -0.05 1.1 0.0 1.15 0.0 1.2 L0.1 1.15 Q0.15 1.15 0.2 1.2 L0.25 1.15 0.2 1.25 0.2 1.35 0.15 1.45 0.15 1.5 0.1 1.5 0.1 1.55 0.0 1.55 -0.05 1.55 -0.05 1.55 -0.05 1.5 -0.1 1.5 Q-0.15 1.5 -0.2 1.55 L-0.25 1.65 -0.2 1.7 -0.15 1.7 -0.1 1.7 -0.15 1.75 Q-0.15 1.8 -0.1 1.8 L-0.15 1.85 -0.15 1.9 -0.2 1.85 -0.3 1.8 Q-0.25 1.75 -0.25 1.65 L-0.2 1.5 -0.1 1.45 Q-0.05 1.4 -0.05 1.3 L-0.1 1.3 -0.15 1.3 Q-0.2 1.4 -0.25 1.35 L-0.25 1.3 -0.2 1.25 -0.15 1.2 -0.1 1.15 M0.1 1.2 L0.05 1.2 0.05 1.25 0.1 1.3 0.1 1.2 M0.1 1.35 L0.0 1.35 0.05 1.4 0.15 1.4 0.1 1.35 M-0.25 1.3 L-0.25 1.3" fill="#5f4f5c" fill-rule="evenodd" stroke="none"/>
    <path d="M0.1 1.2 L0.1 1.3 0.05 1.25 0.05 1.2 0.1 1.2" fill="#957c72" fill-rule="evenodd" stroke="none"/>
    <path d="M0.2 1.25 L0.25 1.2 0.35 1.15 0.45 1.15 0.45 1.2 0.55 1.25 0.6 1.35 0.6 1.5 0.5 1.55 0.35 1.55 0.15 1.45 0.2 1.35 0.2 1.25 M0.4 1.5 L0.45 1.55 0.5 1.5 0.55 1.45 0.5 1.35 Q0.5 1.3 0.45 1.3 0.4 1.3 0.35 1.35 L0.3 1.4 Q0.2 1.4 0.25 1.45 L0.3 1.45 0.4 1.5" fill="#a33189" fill-rule="evenodd" stroke="none"/>
    <path d="M0.25 1.2 L0.25 0.9 0.3 1.0 0.4 1.1 0.45 1.15 0.55 1.25 0.45 1.2 0.45 1.15 0.35 1.15 0.25 1.2" fill="#752672" fill-rule="evenodd" stroke="none"/>
    <path d="M0.45 1.0 L0.55 1.1 0.6 1.2 0.8 1.4 0.85 1.45 1.0 1.6 1.1 1.7 1.05 1.75 1.05 1.8 1.0 1.7 0.9 1.65 0.85 1.6 0.8 1.55 0.75 1.45 0.7 1.4 0.7 1.45 0.65 1.4 0.6 1.35 0.55 1.25 0.45 1.15 0.4 1.1 0.4 1.05 Q0.45 1.0 0.45 1.0" fill="#888797" fill-rule="evenodd" stroke="none"/>
    <path d="M0.4 0.9 L0.45 0.95 Q0.4 1.0 0.35 0.95 0.35 0.95 0.4 0.9" fill="#e5e6e7" fill-rule="evenodd" stroke="none"/>
    <path d="M0.9 1.05 L0.85 1.0 Q0.85 0.95 0.9 0.9 L1.0 0.9 Q1.05 0.9 1.0 1.0 L0.95 1.05 1.0 0.95 0.95 0.9 0.9 0.95 0.9 1.05" fill="#f963e3" fill-rule="evenodd" stroke="none"/>
    <path d="M0.75 0.75 L0.7 0.75 0.65 0.7 Q0.65 0.65 0.7 0.65 L0.75 0.7 0.75 0.75" fill="#fff5ff" fill-rule="evenodd" stroke="none"/>
    <path d="M0.6 1.2 L0.7 1.1 0.8 1.1 0.9 1.1 1.05 1.15 1.0 1.3 0.85 1.3 Q0.75 1.3 0.8 1.4 L0.6 1.2" fill="#6d226e" fill-rule="evenodd" stroke="none"/>
    <path d="M0.95 1.05 L0.9 1.05 0.9 0.95 0.95 0.9 1.0 0.95 0.95 1.05 M0.6 1.7 L0.6 1.65 0.65 1.7 0.6 1.7 M1.4 1.4 L1.25 1.4 1.25 1.3 Q1.2 1.3 1.25 1.25 L1.25 1.2 1.35 1.25 1.4 1.3 Q1.45 1.35 1.4 1.4" fill="#fff7fe" fill-rule="evenodd" stroke="none"/>
    <path d="M0.5 1.35 L0.55 1.45 0.5 1.5 0.45 1.55 0.4 1.5 0.35 1.45 0.4 1.35 0.45 1.35 0.5 1.35 M0.5 1.4 L0.4 1.35 0.4 1.5 0.5 1.5 0.55 1.45 0.5 1.4" fill="#fd6ce9" fill-rule="evenodd" stroke="none"/>
    <path d="M0.6 1.5 L0.6 1.35 0.65 1.4 0.7 1.45 0.75 1.45 0.8 1.55 0.85 1.6 0.75 1.65 0.65 1.6 0.6 1.6 0.55 1.6 0.5 1.65 0.5 1.6 0.55 1.55 Q0.6 1.5 0.6 1.5" fill="#772673" fill-rule="evenodd" stroke="none"/>
    <path d="M0.7 1.45 L0.7 1.4 0.75 1.45 0.7 1.45" fill="#d6d6d0" fill-rule="evenodd" stroke="none"/>
    <path d="M0.85 1.6 L0.9 1.65 1.0 1.7 1.05 1.8 1.1 1.8 1.15 1.85 1.05 1.9 Q1.0 1.9 1.0 1.95 L0.55 1.8 0.55 1.75 0.65 1.75 Q0.7 1.75 0.65 1.65 L0.55 1.65 0.45 1.7 0.4 1.7 0.25 1.6 0.15 1.5 0.15 1.45 0.35 1.55 0.5 1.55 0.6 1.5 Q0.6 1.5 0.55 1.55 L0.5 1.6 0.5 1.65 0.55 1.6 0.6 1.6 0.65 1.6 0.75 1.65 0.85 1.6 M0.9 1.65 Q0.85 1.6 0.75 1.7 0.7 1.75 0.8 1.8 L0.85 1.8 0.95 1.85 Q0.9 1.85 0.9 1.75 L0.9 1.65" fill="#8d2c79" fill-rule="evenodd" stroke="none"/>
    <path d="M0.65 1.65 L0.65 1.7 0.6 1.65 0.6 1.7 0.6 1.65 Q0.6 1.65 0.65 1.65" fill="#ff7bf7" fill-rule="evenodd" stroke="none"/>
    <path d="M0.65 1.7 L0.65 1.65 Q0.6 1.65 0.6 1.65 L0.6 1.7 0.65 1.7 M0.45 1.7 L0.55 1.65 0.65 1.65 Q0.7 1.75 0.65 1.75 L0.55 1.75 0.5 1.75 0.45 1.7" fill="#e845b5" fill-rule="evenodd" stroke="none"/>
    <path d="M0.55 1.75 L0.5 1.8 0.45 1.8 0.4 1.75 0.45 1.7 0.5 1.75 0.55 1.75" fill="#ffe3f6" fill-rule="evenodd" stroke="none"/>
    <path d="M0.4 1.7 L0.45 1.7 0.4 1.75 0.45 1.8 0.5 1.8 0.55 1.75 0.55 1.8 0.5 1.8 0.45 1.8 0.4 1.8 0.4 1.75 Q0.4 1.7 0.4 1.7" fill="#b973a2" fill-rule="evenodd" stroke="none"/>
    <path d="M0.45 1.8 L0.5 1.8 0.55 1.8 1.0 1.95 1.0 2.0 0.85 2.0 0.7 1.95 0.65 1.95 0.55 1.85 0.45 1.8" fill="#7d4b7b" fill-rule="evenodd" stroke="none"/>
    <path d="M0.8 1.8 Q0.7 1.75 0.75 1.7 0.85 1.6 0.9 1.65 L0.9 1.75 Q0.9 1.85 0.95 1.85 L0.85 1.8 0.9 1.75 0.9 1.7 Q0.85 1.65 0.8 1.65 0.75 1.7 0.8 1.75 L0.8 1.8" fill="#c83c9e" fill-rule="evenodd" stroke="none"/>
    <path d="M0.85 1.75 L0.85 1.7 0.8 1.7 0.8 1.75 0.85 1.75 M0.8 1.8 L0.8 1.75 Q0.75 1.7 0.8 1.65 0.85 1.65 0.9 1.7 L0.9 1.75 0.85 1.8 0.8 1.8" fill="#fd65e1" fill-rule="evenodd" stroke="none"/>
    <path d="M0.85 1.75 L0.8 1.75 0.8 1.7 0.85 1.7 0.85 1.75" fill="#feedfe" fill-rule="evenodd" stroke="none"/>
    <path d="M0.5 1.35 L0.45 1.35 0.4 1.35 0.35 1.45 0.4 1.5 0.3 1.45 0.25 1.45 Q0.2 1.4 0.3 1.4 L0.35 1.35 Q0.4 1.3 0.45 1.3 0.5 1.3 0.5 1.35" fill="#ed50c1" fill-rule="evenodd" stroke="none"/>
    <path d="M0.5 1.4 L0.55 1.45 0.5 1.5 0.4 1.5 0.4 1.35 0.5 1.4" fill="#fff3fe" fill-rule="evenodd" stroke="none"/>
    <path d="M0.1 1.35 L0.15 1.4 0.05 1.4 0.0 1.35 0.1 1.35" fill="#897470" fill-rule="evenodd" stroke="none"/>
    <path d="M0.1 1.55 L0.1 1.5 0.15 1.55 0.1 1.6 0.1 1.55 M0.05 1.6 L0.1 1.6 0.05 1.65 Q0.0 1.65 0.05 1.6" fill="#e873c4" fill-rule="evenodd" stroke="none"/>
    <path d="M0.1 1.55 L0.1 1.6 0.05 1.6 0.0 1.6 0.0 1.55 0.1 1.55 M0.0 1.6 L0.0 1.6" fill="#f7eaf2" fill-rule="evenodd" stroke="none"/>
    <path d="M0.15 1.5 L0.25 1.6 0.4 1.7 Q0.4 1.7 0.4 1.75 L0.4 1.8 0.15 1.65 0.1 1.6 0.15 1.55 0.1 1.5 0.15 1.5" fill="#855783" fill-rule="evenodd" stroke="none"/>
    <path d="M0.05 1.6 Q0.0 1.65 0.05 1.65 L0.1 1.6 0.15 1.65 0.1 1.7 0.0 1.75 -0.05 1.8 -0.1 1.75 -0.05 1.7 -0.05 1.65 0.0 1.6 0.05 1.6" fill="#973578" fill-rule="evenodd" stroke="none"/>
    <path d="M0.0 1.6 L0.0 1.6 -0.05 1.65 -0.05 1.7 Q-0.1 1.7 -0.15 1.65 L-0.2 1.6 -0.1 1.65 -0.05 1.6 -0.05 1.6 0.0 1.6" fill="#dec9ba" fill-rule="evenodd" stroke="none"/>
    <path d="M-0.1 1.75 L-0.05 1.8 0.0 1.75 0.1 1.7 0.15 1.65 0.4 1.8 0.45 1.8 0.55 1.85 0.65 1.95 0.6 1.95 0.55 1.95 0.6 2.0 0.65 2.05 0.7 2.0 0.7 1.95 0.85 2.0 1.0 2.0 1.0 2.2 0.2 2.2 0.2 2.15 0.15 2.1 0.1 2.1 0.1 2.05 0.05 2.0 0.05 2.05 0.0 2.05 -0.15 1.9 -0.15 1.85 -0.1 1.8 -0.1 1.75 M0.3 2.05 Q0.25 2.0 0.2 2.05 L0.2 2.1 Q0.2 2.15 0.25 2.1 0.3 2.1 0.3 2.05 M0.4 2.1 L0.45 2.1 0.4 2.05 0.4 2.1" fill="#82286b" fill-rule="evenodd" stroke="none"/>
    <path d="M0.0 1.55 L0.0 1.6 -0.05 1.6 -0.05 1.6 -0.05 1.55 -0.05 1.55 0.0 1.55" fill="#a08a8b" fill-rule="evenodd" stroke="none"/>
    <path d="M0.3 2.05 Q0.3 2.1 0.25 2.1 0.2 2.15 0.2 2.1 L0.2 2.05 Q0.25 2.0 0.3 2.05 M0.25 2.1 L0.25 2.05 0.2 2.1 Q0.25 2.1 0.25 2.1" fill="#e148ae" fill-rule="evenodd" stroke="none"/>
    <path d="M0.25 2.1 Q0.25 2.1 0.2 2.1 L0.25 2.05 0.25 2.1" fill="#ffb6fe" fill-rule="evenodd" stroke="none"/>
    <path d="M0.4 2.1 L0.4 2.05 0.45 2.1 0.4 2.1" fill="#f065c9" fill-rule="evenodd" stroke="none"/>
    <path d="M0.0 2.05 L0.05 2.05 0.05 2.0 0.1 2.05 0.1 2.1 0.05 2.1 Q-0.05 2.1 0.0 2.05" fill="#f0b0cc" fill-rule="evenodd" stroke="none"/>
    <path d="M0.1 2.1 L0.15 2.1 0.1 2.15 0.15 2.15 0.2 2.15 0.2 2.2 -0.25 2.2 -0.2 2.05 -0.3 2.05 -0.35 2.1 -0.35 2.15 -0.4 2.1 -0.4 2.0 -0.3 2.0 -0.15 2.0 -0.15 1.9 0.0 2.05 Q-0.05 2.1 0.05 2.1 L0.1 2.1 M-0.35 2.15 L-0.35 2.15 M-0.05 2.15 L-0.05 2.1 -0.1 2.05 -0.1 2.1 -0.15 2.1 -0.1 2.15 -0.1 2.15 -0.05 2.15" fill="#594957" fill-rule="evenodd" stroke="none"/>
    <path d="M0.15 2.1 L0.2 2.15 0.15 2.15 0.15 2.15 0.1 2.15 0.15 2.1" fill="#cf819e" fill-rule="evenodd" stroke="none"/>
    <path d="M1.0 2.0 L1.0 1.95 Q1.0 1.9 1.05 1.9 L1.15 1.85 1.15 1.9 Q1.1 1.85 1.05 1.9 1.0 2.0 1.05 2.0 1.1 2.05 1.15 2.0 L1.2 1.9 Q1.25 1.95 1.2 2.0 L1.15 2.05 1.05 2.05 1.0 2.0" fill="#b83994" fill-rule="evenodd" stroke="none"/>
    <path d="M1.0 2.2 L1.0 2.0 1.05 2.05 1.15 2.05 1.2 2.0 Q1.25 1.95 1.2 1.9 L1.15 1.9 1.15 1.85 1.35 2.0 1.65 2.2 1.0 2.2" fill="#8f2c7a" fill-rule="evenodd" stroke="none"/>
    <path d="M0.65 1.95 L0.7 1.95 0.7 2.0 0.65 2.05 0.6 2.0 0.55 1.95 0.6 1.95 0.65 1.95" fill="#ef5dc9" fill-rule="evenodd" stroke="none"/>
    <path d="M1.6 1.45 L1.65 1.5 1.65 1.55 1.6 1.55 1.55 1.55 Q1.5 1.5 1.55 1.45 L1.6 1.45 M1.6 1.55 L1.6 1.5 Q1.6 1.45 1.55 1.45 1.55 1.5 1.55 1.5 1.55 1.55 1.6 1.55" fill="#fc66ea" fill-rule="evenodd" stroke="none"/>
    <path d="M1.45 1.3 L1.55 1.35 1.5 1.4 Q1.45 1.45 1.5 1.45 L1.55 1.45 1.6 1.45 1.55 1.45 Q1.5 1.5 1.55 1.55 L1.6 1.55 1.65 1.55 1.6 1.55 1.6 1.65 1.6 1.6 1.55 1.6 Q1.5 1.5 1.45 1.6 L1.35 1.6 1.35 1.55 1.3 1.5 1.25 1.45 Q1.3 1.4 1.35 1.45 L1.35 1.55 1.4 1.6 Q1.45 1.6 1.45 1.55 L1.45 1.3" fill="#c640ab" fill-rule="evenodd" stroke="none"/>
    <path d="M1.6 1.55 Q1.55 1.55 1.55 1.5 1.55 1.5 1.55 1.45 1.6 1.45 1.6 1.5 L1.6 1.55" fill="#ffe6ff" fill-rule="evenodd" stroke="none"/>
    <path d="M1.6 1.65 L1.6 1.7 1.55 1.7 1.55 1.6 1.6 1.6 1.6 1.65" fill="#f660dd" fill-rule="evenodd" stroke="none"/>
    <path d="M1.95 1.8 L1.95 1.85 1.85 1.9 Q1.8 1.85 1.85 1.8 1.85 1.8 1.9 1.8 L1.95 1.8" fill="#ffe8fc" fill-rule="evenodd" stroke="none"/>
    <path d="M1.95 1.85 L1.95 1.9 1.85 1.9 1.8 1.85 Q1.8 1.8 1.85 1.8 L1.9 1.8 Q1.85 1.8 1.85 1.8 1.8 1.85 1.85 1.9 L1.95 1.85" fill="#f361d4" fill-rule="evenodd" stroke="none"/>
    <path d="M1.4 1.5 L1.4 1.55 1.35 1.55 1.35 1.5 1.4 1.5" fill="#fff8fe" fill-rule="evenodd" stroke="none"/>
    <path d="M1.15 1.3 L1.1 1.25 1.15 1.2 Q1.2 1.2 1.2 1.25 L1.15 1.3" fill="#fef4fe" fill-rule="evenodd" stroke="none"/>
    <path d="M1.2 1.4 L1.1 1.3 Q1.05 1.2 1.1 1.2 1.1 1.25 1.1 1.25 L1.15 1.3 1.2 1.35 1.2 1.4" fill="#cc3dad" fill-rule="evenodd" stroke="none"/>
    <path d="M1.05 1.8 L1.05 1.75 1.1 1.7 1.2 1.8 1.15 1.8 1.1 1.8 1.05 1.8" fill="#f3f4f1" fill-rule="evenodd" stroke="none"/>
    <path d="M1.8 2.15 L1.9 2.2 1.7 2.2 1.35 2.0 1.15 1.85 1.1 1.8 1.15 1.8 1.2 1.8 1.3 1.85 Q1.25 1.85 1.25 1.9 L1.35 1.9 1.75 2.1 1.8 2.15" fill="#7d7c92" fill-rule="evenodd" stroke="none"/>
    <path d="M1.3 1.85 L1.35 1.75 Q1.35 1.7 1.4 1.75 L1.4 1.8 1.35 1.9 1.35 1.8 1.3 1.85" fill="#ec5cc7" fill-rule="evenodd" stroke="none"/>
    <path d="M1.3 1.85 L1.35 1.8 1.35 1.9 1.25 1.9 Q1.25 1.85 1.3 1.85" fill="#fbecf8" fill-rule="evenodd" stroke="none"/>
    <path d="M1.65 2.2 L1.35 2.0 1.7 2.2 1.65 2.2" fill="#4f3562" fill-rule="evenodd" stroke="none"/>
    <path d="M1.15 1.9 L1.2 1.9 1.15 2.0 Q1.1 2.05 1.05 2.0 1.0 2.0 1.05 1.9 1.1 1.85 1.15 1.9 M1.1 1.9 Q1.05 1.95 1.05 2.0 1.1 2.0 1.15 2.0 L1.15 1.95 Q1.1 1.9 1.1 1.9" fill="#fb62d8" fill-rule="evenodd" stroke="none"/>
    <path d="M1.1 1.9 Q1.1 1.9 1.15 1.95 L1.15 2.0 Q1.1 2.0 1.05 2.0 1.05 1.95 1.1 1.9" fill="#fee7fe" fill-rule="evenodd" stroke="none"/>
    <path d="M-0.35 0.3 Q-0.35 0.25 -0.3 0.2 L-0.2 0.15 -0.2 0.25 -0.25 0.3 -0.25 0.2 -0.3 0.25 -0.35 0.3" fill="#a98d96" fill-rule="evenodd" stroke="none"/>
    <path d="M-0.1 0.2 L-0.05 0.25 -0.1 0.3 -0.15 0.25 Q-0.2 0.2 -0.15 0.15 L-0.1 0.2" fill="#7e687c" fill-rule="evenodd" stroke="none"/>
    <path d="M-0.05 0.55 L-0.1 0.55 -0.15 0.55 -0.2 0.6 -0.2 0.65 -0.3 0.65 -0.35 0.7 -0.4 0.7 -0.45 0.75 -0.45 0.75 -0.5 0.8 -0.5 0.65 Q-0.5 0.6 -0.55 0.6 L-0.6 0.7 -0.65 0.8 -0.65 0.7 -0.7 0.7 -0.75 0.7 -0.8 0.75 -0.8 0.75 -0.75 0.65 -0.7 0.55 -0.7 0.5 -0.65 0.4 -0.55 0.35 -0.65 0.3 -0.65 0.2 -0.65 0.2 -0.6 0.2 -0.5 0.25 -0.5 0.2 -0.55 0.1 -0.55 -0.05 -0.5 0.0 -0.45 0.1 Q-0.45 0.2 -0.5 0.25 L-0.45 0.25 -0.4 0.2 -0.35 0.25 -0.35 0.3 -0.3 0.35 -0.25 0.4 -0.2 0.4 -0.15 0.45 -0.1 0.45 -0.05 0.55 M-0.35 0.7 L-0.35 0.7 M-0.25 0.45 L-0.35 0.45 -0.4 0.5 -0.4 0.55 -0.45 0.55 -0.4 0.65 -0.25 0.65 -0.2 0.6 -0.2 0.5 -0.25 0.45 M-0.4 0.4 L-0.4 0.35 -0.4 0.45 -0.3 0.45 Q-0.3 0.4 -0.4 0.4" fill="#3b2e40" fill-rule="evenodd" stroke="none"/>
    <path d="M-0.2 0.4 L-0.25 0.4 -0.3 0.35 Q-0.2 0.35 -0.2 0.4" fill="#846b8a" fill-rule="evenodd" stroke="none"/>
    <path d="M-0.25 0.45 L-0.2 0.5 -0.2 0.6 -0.25 0.65 -0.4 0.65 -0.45 0.55 -0.4 0.55 -0.4 0.5 -0.35 0.45 -0.25 0.45" fill="#4c495f" fill-rule="evenodd" stroke="none"/>
    <path d="M-0.4 0.4 Q-0.3 0.4 -0.3 0.45 L-0.4 0.45 -0.4 0.35 -0.4 0.4" fill="#9587a6" fill-rule="evenodd" stroke="none"/>
    <path d="M-0.05 0.55 L-0.05 0.55 -0.1 0.45 -0.15 0.45 -0.15 0.4 Q-0.15 0.4 -0.1 0.4 L-0.05 0.45 -0.05 0.5 -0.05 0.55 -0.05 0.55" fill="#8a6479" fill-rule="evenodd" stroke="none"/>
    <path d="M0.0 0.5 L-0.05 0.55 -0.05 0.5 0.0 0.5" fill="#d6a7a4" fill-rule="evenodd" stroke="none"/>
    <path d="M-0.05 0.45 L0.0 0.45 0.0 0.5 -0.05 0.5 -0.05 0.45" fill="#f6f1ed" fill-rule="evenodd" stroke="none"/>
    <path d="M-0.7 0.2 L-0.7 0.15 Q-0.75 0.1 -0.65 0.15 L-0.6 0.2 -0.65 0.2 -0.65 0.2 -0.7 0.2" fill="#89374b" fill-rule="evenodd" stroke="none"/>
    <path d="M-0.7 0.15 Q-0.75 0.15 -0.8 0.1 L-0.85 0.0 -0.65 0.1 -0.5 0.25 -0.6 0.2 -0.65 0.15 Q-0.75 0.1 -0.7 0.15" fill="#b7595c" fill-rule="evenodd" stroke="none"/>
    <path d="M-0.7 0.2 L-0.65 0.2 -0.65 0.3 -0.7 0.25 -0.75 0.35 -0.7 0.4 -0.65 0.4 -0.7 0.5 -0.7 0.55 -0.75 0.65 -0.8 0.75 -0.85 0.75 -0.95 0.65 Q-0.9 0.6 -0.95 0.6 L-1.05 0.55 -1.1 0.6 -1.15 0.8 -1.15 1.0 -1.15 1.05 -1.1 1.1 -1.1 1.05 -1.05 1.15 -0.95 1.15 -0.95 1.2 -0.9 1.2 -0.9 1.2 -0.85 1.1 -0.8 1.15 -0.95 1.3 -1.05 1.4 -1.05 1.35 -1.0 1.3 -1.05 1.35 -1.1 1.35 -1.2 1.25 -1.2 1.1 -1.25 1.15 -1.3 1.2 -1.25 1.1 -1.2 1.0 -1.25 1.05 -1.2 0.9 -1.15 0.75 -1.15 0.7 -1.1 0.65 -1.1 0.55 -1.05 0.5 -1.05 0.5 -0.95 0.5 Q-0.95 0.55 -0.95 0.45 L-0.9 0.3 Q-0.85 0.25 -0.8 0.35 L-0.75 0.3 -0.7 0.2 M-1.05 1.15 L-1.05 1.15 M-1.0 1.2 L-1.1 1.2 -1.05 1.25 -0.95 1.25 -1.0 1.2" fill="#473b4d" fill-rule="evenodd" stroke="none"/>
    <path d="M-0.65 0.4 L-0.7 0.4 -0.75 0.35 -0.7 0.25 -0.65 0.3 -0.55 0.35 -0.65 0.4" fill="#535167" fill-rule="evenodd" stroke="none"/>
    <path d="M-0.9 0.1 Q-0.95 0.15 -0.85 0.2 L-0.7 0.2 -0.75 0.3 -0.8 0.35 Q-0.85 0.25 -0.9 0.3 L-0.95 0.45 Q-0.95 0.55 -0.95 0.5 L-1.05 0.5 -1.0 0.45 -1.0 0.4 -0.95 0.3 -0.95 0.2 -1.0 0.2 -1.0 0.15 -0.95 0.15 -0.9 0.1" fill="#332b39" fill-rule="evenodd" stroke="none"/>
    <path d="M-1.05 0.15 L-1.05 0.15 -1.0 0.15 -1.0 0.2 -0.95 0.2 -0.95 0.3 -1.0 0.4 -1.0 0.35 -1.05 0.3 -1.05 0.4 -1.0 0.45 -1.05 0.5 -1.05 0.5 -1.1 0.55 -1.15 0.5 -1.2 0.45 -1.25 0.45 -1.25 0.5 -1.2 0.6 -1.15 0.7 -1.15 0.75 -1.3 0.6 -1.35 0.65 -1.4 0.65 Q-1.35 0.75 -1.4 0.8 -1.45 0.9 -1.5 0.9 L-1.55 0.9 -1.6 0.85 Q-1.65 0.9 -1.65 0.85 L-1.6 0.8 -1.55 0.8 -1.6 0.8 -1.65 0.75 -1.65 0.75 -1.6 0.7 -1.6 0.75 Q-1.6 0.75 -1.55 0.7 -1.5 0.65 -1.45 0.65 L-1.45 0.65 -1.5 0.6 -1.55 0.65 -1.6 0.65 -1.6 0.65 Q-1.55 0.55 -1.55 0.6 L-1.45 0.6 -1.45 0.6 -1.4 0.55 -1.35 0.55 -1.35 0.5 Q-1.35 0.45 -1.4 0.45 -1.45 0.45 -1.45 0.5 L-1.5 0.55 -1.5 0.4 Q-1.5 0.35 -1.55 0.3 L-1.6 0.4 -1.65 0.5 Q-1.65 0.4 -1.7 0.4 L-1.8 0.45 -1.75 0.35 -1.7 0.3 Q-1.75 0.2 -1.7 0.2 L-1.55 0.15 Q-1.55 0.1 -1.55 0.1 L-1.6 0.05 -1.55 0.05 -1.45 0.05 -1.3 0.1 -1.3 0.15 -1.25 0.15 -1.15 0.1 -1.05 0.15 M-1.05 0.2 L-1.1 0.25 -1.05 0.3 -1.0 0.2 -1.05 0.2 M-1.35 0.15 L-1.45 0.15 -1.4 0.2 -1.3 0.2 -1.35 0.15" fill="#632f66" fill-rule="evenodd" stroke="none"/>
    <path d="M-1.0 0.45 L-1.05 0.4 -1.05 0.3 -1.0 0.35 -1.0 0.4 -1.0 0.45" fill="#8b5484" fill-rule="evenodd" stroke="none"/>
    <path d="M-0.6 0.7 L-0.55 0.75 -0.55 0.8 -0.55 0.85 Q-0.55 0.9 -0.6 0.9 L-0.65 0.8 -0.6 0.7 M-0.65 0.8 L-0.65 0.8" fill="#795283" fill-rule="evenodd" stroke="none"/>
    <path d="M-0.55 0.8 L-0.55 0.75 -0.6 0.7 -0.55 0.6 Q-0.5 0.6 -0.5 0.65 L-0.5 0.8 -0.5 0.85 -0.55 0.8" fill="#6f2672" fill-rule="evenodd" stroke="none"/>
    <path d="M-0.8 0.75 L-0.75 0.7 -0.7 0.7 -0.65 0.7 -0.65 0.8 -0.8 0.75" fill="#4a7782" fill-rule="evenodd" stroke="none"/>
    <path d="M-0.8 1.15 L-0.85 1.1 -0.8 1.05 -0.8 0.95 -0.75 0.85 Q-0.75 0.8 -0.85 0.8 L-0.9 0.95 -0.95 1.1 -1.0 1.1 -1.05 1.15 -1.05 1.15 -1.05 1.1 -1.05 1.0 -1.0 0.95 -0.95 0.9 -1.0 0.8 -0.95 0.75 Q-1.0 0.7 -1.05 0.7 -1.15 0.7 -1.1 0.8 L-1.15 1.0 -1.15 0.8 -1.1 0.6 -1.0 0.65 Q-0.95 0.75 -0.85 0.75 L-0.8 0.75 -0.65 0.8 -0.65 0.8 -0.7 1.0 -0.8 1.15 M-0.8 0.75 L-0.8 0.75 M-0.95 0.8 L-0.95 0.9 -0.9 0.85 Q-0.9 0.8 -0.95 0.8" fill="#624848" fill-rule="evenodd" stroke="none"/>
    <path d="M-0.4 0.8 L-0.35 0.85 -0.35 0.8 -0.3 0.7 Q-0.25 0.8 -0.25 0.9 -0.3 0.8 -0.3 0.9 L-0.3 1.0 Q-0.3 0.95 -0.35 0.95 L-0.35 0.9 -0.35 1.0 -0.35 1.05 -0.4 1.1 -0.4 1.0 Q-0.35 0.95 -0.45 0.9 L-0.55 0.9 -0.55 0.85 -0.55 0.8 -0.5 0.85 -0.45 0.85 -0.4 0.8 -0.4 0.8 M-0.35 1.05 L-0.35 1.05" fill="#452b41" fill-rule="evenodd" stroke="none"/>
    <path d="M-1.05 1.4 L-0.95 1.3 -0.8 1.15 -0.7 1.0 -0.65 0.8 -0.6 0.9 Q-0.55 0.9 -0.55 0.85 L-0.55 0.9 -0.55 0.95 -0.6 1.0 -0.65 1.0 -0.6 1.05 -0.55 1.05 -0.5 1.0 -0.55 1.05 -0.6 1.05 Q-0.65 1.1 -0.6 1.15 L-0.6 1.15 -0.5 1.35 -0.55 1.5 -0.65 1.5 -0.75 1.55 -0.75 1.65 -0.8 1.7 -0.85 1.75 Q-0.9 1.75 -0.95 1.8 L-1.2 1.7 -1.1 1.55 Q-1.05 1.5 -1.05 1.4 M-0.95 1.8 L-0.95 1.8" fill="#7d2a6c" fill-rule="evenodd" stroke="none"/>
    <path d="M-0.95 0.65 L-0.85 0.75 Q-0.95 0.75 -1.0 0.65 L-0.95 0.65" fill="#92899a" fill-rule="evenodd" stroke="none"/>
    <path d="M-1.1 0.6 L-1.05 0.55 -0.95 0.6 Q-0.9 0.6 -0.95 0.65 L-1.0 0.65 -1.1 0.6" fill="#497b88" fill-rule="evenodd" stroke="none"/>
    <path d="M-1.1 0.8 Q-1.15 0.7 -1.05 0.7 -1.0 0.7 -0.95 0.75 L-1.0 0.8 -0.95 0.9 -1.0 0.95 -1.05 1.0 -1.1 0.9 -1.1 0.8" fill="#ab8c8d" fill-rule="evenodd" stroke="none"/>
    <path d="M-0.95 0.8 Q-0.9 0.8 -0.9 0.85 L-0.95 0.9 -0.95 0.8" fill="#ab8d8d" fill-rule="evenodd" stroke="none"/>
    <path d="M-0.85 1.1 L-0.9 1.2 -0.95 1.15 -0.95 1.2 -0.95 1.15 -1.0 1.1 -0.95 1.1 Q-0.9 1.1 -0.85 1.0 L-0.85 0.95 -0.8 0.95 -0.8 1.05 -0.85 1.1" fill="#937470" fill-rule="evenodd" stroke="none"/>
    <path d="M-0.8 0.95 L-0.85 0.95 -0.85 1.0 Q-0.9 1.1 -0.95 1.1 L-0.9 0.95 -0.85 0.8 Q-0.75 0.8 -0.75 0.85 L-0.8 0.95" fill="#ad8e8b" fill-rule="evenodd" stroke="none"/>
    <path d="M-0.9 1.2 L-0.9 1.2 -0.95 1.2 -0.95 1.15 -0.9 1.2" fill="#e7d4d9" fill-rule="evenodd" stroke="none"/>
    <path d="M-0.95 1.15 L-1.05 1.15 -1.0 1.1 -0.95 1.15" fill="#ddc9d2" fill-rule="evenodd" stroke="none"/>
    <path d="M-0.55 0.9 L-0.45 0.9 Q-0.35 0.95 -0.4 1.0 L-0.45 1.0 Q-0.4 0.95 -0.45 0.95 L-0.45 0.9 -0.5 0.9 -0.5 0.95 -0.55 1.0 -0.6 1.0 -0.55 0.95 -0.55 0.9" fill="#946482" fill-rule="evenodd" stroke="none"/>
    <path d="M-0.6 1.0 L-0.55 1.0 -0.5 0.95 -0.5 0.9 -0.45 0.9 -0.45 0.95 Q-0.4 0.95 -0.45 1.0 L-0.45 1.05 -0.55 1.1 -0.6 1.15 Q-0.65 1.1 -0.6 1.05 L-0.55 1.05 -0.5 1.0 -0.55 1.05 -0.6 1.05 -0.65 1.0 -0.6 1.0 M-0.45 1.0 L-0.45 1.0" fill="#432641" fill-rule="evenodd" stroke="none"/>
    <path d="M-0.6 1.15 L-0.55 1.1 -0.45 1.05 -0.5 1.05 -0.5 1.15 -0.5 1.15 -0.4 1.15 Q-0.3 1.15 -0.3 1.2 -0.3 1.2 -0.4 1.2 L-0.5 1.25 -0.55 1.2 -0.6 1.15 -0.6 1.15 M-0.3 1.2 L-0.3 1.2" fill="#9b3f85" fill-rule="evenodd" stroke="none"/>
    <path d="M-0.6 1.15 L-0.55 1.2 -0.5 1.25 -0.4 1.2 Q-0.3 1.2 -0.3 1.2 L-0.25 1.3 -0.25 1.3 -0.25 1.35 -0.3 1.55 -0.35 1.7 -0.55 1.7 Q-0.65 1.7 -0.7 1.65 -0.7 1.7 -0.8 1.75 L-0.9 1.8 -0.95 1.8 Q-0.9 1.75 -0.85 1.75 L-0.8 1.7 -0.75 1.65 -0.75 1.55 -0.65 1.5 -0.55 1.5 -0.5 1.35 -0.6 1.15" fill="#8e2c6f" fill-rule="evenodd" stroke="none"/>
    <path d="M-0.1 0.6 L-0.05 0.65 -0.1 0.7 -0.1 0.6" fill="#221423" fill-rule="evenodd" stroke="none"/>
    <path d="M-0.2 0.65 L-0.25 0.7 -0.35 0.7 -0.3 0.65 -0.2 0.65" fill="#547782" fill-rule="evenodd" stroke="none"/>
    <path d="M-0.35 0.7 L-0.35 0.75 -0.35 0.8 Q-0.35 0.8 -0.4 0.8 L-0.4 0.8 -0.45 0.85 -0.5 0.85 -0.5 0.8 -0.45 0.75 -0.45 0.75 -0.4 0.7 -0.35 0.7" fill="#977c84" fill-rule="evenodd" stroke="none"/>
    <path d="M-0.35 1.0 L-0.35 0.9 -0.35 0.95 Q-0.3 0.95 -0.3 1.0 L-0.35 1.0" fill="#917a8c" fill-rule="evenodd" stroke="none"/>
    <path d="M-0.1 1.05 L-0.1 1.15 -0.15 1.2 -0.35 1.05 -0.35 1.0 -0.3 1.0 -0.3 0.9 Q-0.3 0.8 -0.25 0.9 L-0.2 1.0 -0.1 1.05" fill="#872a7c" fill-rule="evenodd" stroke="none"/>
    <path d="M-0.35 1.05 L-0.35 1.05 -0.15 1.2 -0.2 1.25 -0.25 1.3 -0.3 1.2 -0.3 1.2 Q-0.25 1.2 -0.3 1.15 L-0.35 1.05" fill="#a06897" fill-rule="evenodd" stroke="none"/>
    <path d="M-0.4 1.0 L-0.4 1.1 -0.35 1.05 -0.3 1.15 Q-0.25 1.2 -0.3 1.2 -0.3 1.15 -0.4 1.15 L-0.5 1.15 -0.5 1.15 Q-0.45 1.15 -0.4 1.1 -0.4 1.05 -0.45 1.0 L-0.4 1.0 M-0.45 1.0 L-0.45 1.0" fill="#d879b7" fill-rule="evenodd" stroke="none"/>
    <path d="M-0.45 1.05 L-0.45 1.0 Q-0.4 1.05 -0.4 1.1 -0.45 1.15 -0.5 1.15 L-0.5 1.05 -0.45 1.05" fill="#fff0f6" fill-rule="evenodd" stroke="none"/>
    <path d="M-0.05 1.05 L-0.05 1.05 0.0 1.0 0.0 1.05 -0.05 1.05" fill="#decacd" fill-rule="evenodd" stroke="none"/>
    <path d="M-1.05 0.2 L-1.0 0.2 -1.05 0.3 -1.1 0.25 -1.05 0.2" fill="#8f5483" fill-rule="evenodd" stroke="none"/>
    <path d="M-1.35 0.15 L-1.3 0.2 -1.4 0.2 -1.45 0.15 -1.35 0.15" fill="#8d569f" fill-rule="evenodd" stroke="none"/>
    <path d="M-1.5 0.55 L-1.45 0.5 Q-1.45 0.45 -1.4 0.45 -1.35 0.45 -1.35 0.5 L-1.35 0.55 -1.4 0.55 -1.45 0.6 -1.45 0.6 -1.55 0.6 -1.5 0.55" fill="#93568c" fill-rule="evenodd" stroke="none"/>
    <path d="M-1.5 0.55 L-1.55 0.6 Q-1.55 0.55 -1.6 0.65 L-1.6 0.65 -1.55 0.65 -1.5 0.6 -1.45 0.65 -1.45 0.65 Q-1.5 0.65 -1.55 0.7 -1.6 0.75 -1.6 0.75 L-1.6 0.7 -1.65 0.75 -1.65 0.75 -1.6 0.8 -1.55 0.8 -1.6 0.8 -1.65 0.85 -1.75 0.9 Q-1.8 0.9 -1.8 0.85 L-1.75 0.7 -1.7 0.6 -1.65 0.5 -1.6 0.4 -1.55 0.3 Q-1.5 0.35 -1.5 0.4 L-1.5 0.55" fill="#8a2e87" fill-rule="evenodd" stroke="none"/>
    <path d="M-1.1 0.55 L-1.1 0.65 -1.15 0.7 -1.2 0.6 -1.25 0.5 -1.25 0.45 -1.2 0.45 -1.15 0.5 -1.1 0.55" fill="#905480" fill-rule="evenodd" stroke="none"/>
    <path d="M-1.6 0.05 L-1.55 0.1 Q-1.55 0.1 -1.55 0.15 L-1.7 0.2 Q-1.75 0.2 -1.7 0.3 L-1.75 0.35 -1.8 0.45 -1.7 0.4 Q-1.65 0.4 -1.65 0.5 L-1.7 0.6 -1.9 0.5 -1.9 0.45 -1.95 0.45 Q-2.0 0.45 -1.95 0.4 -1.95 0.35 -2.0 0.3 L-2.05 0.3 -2.05 0.4 -2.15 0.35 -2.05 0.2 -1.95 -0.05 -1.6 0.05" fill="#683779" fill-rule="evenodd" stroke="none"/>
    <path d="M-2.05 0.4 L-2.05 0.3 -2.0 0.3 Q-1.95 0.35 -1.95 0.4 -2.0 0.45 -1.95 0.45 L-1.9 0.45 -1.9 0.5 -2.0 0.45 -2.05 0.4" fill="#765899" fill-rule="evenodd" stroke="none"/>
    <path d="M-1.7 0.6 L-1.75 0.7 -1.8 0.85 -1.9 0.95 -2.0 1.05 -2.05 1.1 -2.05 1.2 -2.1 1.3 -2.2 1.35 -2.2 0.5 -2.15 0.45 -2.15 0.35 -2.05 0.4 -2.0 0.45 -1.9 0.5 -1.7 0.6 M-1.95 0.55 L-1.95 0.65 -1.9 0.6 Q-1.9 0.55 -1.95 0.55 M-2.05 0.85 Q-2.1 0.8 -2.05 0.75 L-2.0 0.65 -2.05 0.6 -2.0 0.55 Q-1.95 0.5 -1.95 0.5 L-2.0 0.45 Q-2.1 0.4 -2.15 0.5 L-2.15 0.85 Q-2.1 0.8 -2.1 0.85 L-2.05 0.85 -2.05 0.9 -2.0 0.9 -1.9 0.95 -1.85 0.8 -1.75 0.65 Q-1.75 0.6 -1.8 0.6 L-1.85 0.55 -1.9 0.65 -1.9 0.7 -1.95 0.8 -2.05 0.85" fill="#743a6b" fill-rule="evenodd" stroke="none"/>
    <path d="M-1.95 0.55 Q-1.9 0.55 -1.9 0.6 L-1.95 0.65 -1.95 0.55" fill="#a05f94" fill-rule="evenodd" stroke="none"/>
    <path d="M-2.05 0.85 L-2.1 0.85 Q-2.1 0.8 -2.15 0.85 L-2.15 0.5 Q-2.1 0.4 -2.0 0.45 L-1.95 0.5 Q-1.95 0.5 -2.0 0.55 L-2.05 0.6 -2.0 0.65 -2.05 0.75 Q-2.1 0.8 -2.05 0.85" fill="#9e5e92" fill-rule="evenodd" stroke="none"/>
    <path d="M-2.05 0.85 L-1.95 0.8 -1.9 0.7 -1.9 0.65 -1.85 0.55 -1.8 0.6 Q-1.75 0.6 -1.75 0.65 L-1.85 0.8 -1.9 0.95 -2.0 0.9 -2.05 0.9 -2.05 0.85" fill="#9c5b8a" fill-rule="evenodd" stroke="none"/>
    <path d="M-1.15 0.75 L-1.2 0.9 -1.25 1.05 -1.45 1.35 -1.55 1.35 -1.65 1.35 -1.7 1.45 -1.85 1.5 -1.95 1.55 -2.0 1.7 -2.05 1.65 -2.05 1.5 Q-2.05 1.45 -2.1 1.4 -2.15 1.4 -2.1 1.3 L-2.05 1.25 -2.05 1.2 -2.05 1.1 -2.0 1.05 -1.9 0.95 -1.8 0.85 Q-1.8 0.9 -1.75 0.9 L-1.65 0.85 Q-1.65 0.9 -1.6 0.85 L-1.55 0.9 -1.5 0.9 Q-1.45 0.9 -1.4 0.8 -1.35 0.75 -1.4 0.65 L-1.35 0.65 -1.3 0.6 -1.15 0.75" fill="#8a2977" fill-rule="evenodd" stroke="none"/>
    <path d="M-1.15 1.05 L-1.15 1.0 -1.1 0.8 -1.1 0.9 -1.05 1.0 -1.05 1.1 -1.1 1.05 -1.1 1.05 -1.15 1.05" fill="#91726d" fill-rule="evenodd" stroke="none"/>
    <path d="M-1.1 1.05 L-1.1 1.1 -1.15 1.05 -1.1 1.05 -1.1 1.05" fill="#dac5cf" fill-rule="evenodd" stroke="none"/>
    <path d="M-1.25 1.05 L-1.2 1.0 -1.25 1.1 -1.3 1.2 -1.25 1.15 -1.2 1.1 -1.2 1.25 -1.1 1.35 -1.05 1.35 -1.0 1.3 -1.05 1.35 -1.05 1.4 -1.1 1.5 -1.15 1.55 -1.15 1.5 -1.15 1.4 -1.2 1.45 -1.3 1.55 -1.35 1.75 -1.45 1.9 Q-1.5 1.9 -1.55 2.0 L-1.6 2.15 -1.6 2.2 -1.7 2.2 -1.6 2.1 -1.6 1.95 -1.55 1.95 -1.55 1.9 -1.5 1.6 -1.45 1.35 -1.25 1.05 M-1.35 1.3 L-1.4 1.45 -1.45 1.7 -1.45 1.7 -1.4 1.7 -1.35 1.5 -1.3 1.35 -1.2 1.35 -1.3 1.3 Q-1.35 1.25 -1.35 1.3" fill="#5b495b" fill-rule="evenodd" stroke="none"/>
    <path d="M-1.0 1.2 L-0.95 1.25 -1.05 1.25 -1.1 1.2 -1.0 1.2" fill="#75677a" fill-rule="evenodd" stroke="none"/>
    <path d="M-1.05 1.15 L-1.1 1.05 -1.05 1.1 -1.05 1.15" fill="#c6b2bf" fill-rule="evenodd" stroke="none"/>
    <path d="M-1.45 1.9 L-1.35 1.75 -1.3 1.55 -1.2 1.45 -1.15 1.4 -1.15 1.5 -1.15 1.55 -1.1 1.5 -1.05 1.4 Q-1.05 1.5 -1.1 1.55 L-1.2 1.7 -1.3 1.8 -1.35 1.95 -1.35 2.05 Q-1.35 2.15 -1.4 2.2 L-1.5 2.2 -1.4 2.05 -1.4 1.95 -1.45 1.9" fill="#47384b" fill-rule="evenodd" stroke="none"/>
    <path d="M-1.35 1.3 L-1.3 1.35 -1.35 1.5 -1.4 1.7 -1.45 1.7 -1.45 1.7 -1.4 1.45 -1.35 1.3" fill="#493d4c" fill-rule="evenodd" stroke="none"/>
    <path d="M-1.3 1.35 L-1.35 1.3 Q-1.35 1.25 -1.3 1.3 L-1.2 1.35 -1.3 1.35" fill="#917977" fill-rule="evenodd" stroke="none"/>
    <path d="M-1.2 1.7 L-0.95 1.8 Q-1.0 1.9 -1.1 1.9 L-1.2 1.9 -1.3 1.95 -1.35 1.95 -1.3 1.8 -1.2 1.7" fill="#693158" fill-rule="evenodd" stroke="none"/>
    <path d="M-1.45 1.35 L-1.5 1.6 -1.55 1.9 -1.55 1.95 -1.6 1.95 -1.9 2.0 Q-1.9 2.05 -1.95 2.05 L-2.05 2.1 -2.05 2.15 -2.1 2.2 -2.2 2.2 -2.2 2.1 -1.9 2.0 Q-1.9 1.9 -1.95 1.85 L-2.0 1.7 -1.95 1.55 -1.85 1.5 -1.7 1.45 -1.65 1.35 -1.55 1.35 -1.45 1.35" fill="#942964" fill-rule="evenodd" stroke="none"/>
    <path d="M-2.0 1.7 L-1.95 1.85 Q-1.9 1.9 -1.9 2.0 L-2.2 2.1 -2.2 1.35 -2.1 1.3 -2.05 1.2 -2.05 1.25 -2.1 1.3 Q-2.15 1.4 -2.1 1.4 -2.05 1.45 -2.05 1.5 L-2.05 1.65 -2.0 1.7" fill="#7b2367" fill-rule="evenodd" stroke="none"/>
    <path d="M-1.6 1.95 L-1.6 2.1 -1.7 2.2 -2.1 2.2 -2.05 2.15 -2.05 2.1 -1.95 2.05 Q-1.9 2.05 -1.9 2.0 L-1.6 1.95" fill="#b53262" fill-rule="evenodd" stroke="none"/>
    <path d="M-1.6 2.15 L-1.55 2.0 Q-1.5 1.9 -1.45 1.9 L-1.4 1.95 -1.45 2.1 Q-1.5 2.15 -1.6 2.15" fill="#c9b096" fill-rule="evenodd" stroke="none"/>
    <path d="M-1.6 2.2 L-1.6 2.15 Q-1.5 2.15 -1.45 2.1 L-1.4 1.95 -1.4 2.05 -1.5 2.2 -1.6 2.2" fill="#7b6568" fill-rule="evenodd" stroke="none"/>
    <path d="M-0.95 1.8 L-0.95 1.8 -0.9 1.8 -0.8 1.9 -0.8 2.0 -1.05 2.0 -1.3 1.95 -1.2 1.9 -1.1 1.9 Q-1.0 1.9 -0.95 1.8" fill="#813e5a" fill-rule="evenodd" stroke="none"/>
    <path d="M-1.4 2.2 Q-1.35 2.15 -1.35 2.05 L-1.35 1.95 -1.3 1.95 -1.05 2.0 -0.8 2.0 -0.8 1.9 Q-0.85 1.85 -0.75 1.8 L-0.6 1.75 -0.5 1.75 -0.5 1.85 -0.65 2.0 -0.7 2.1 -0.75 2.2 -1.4 2.2" fill="#ac3264" fill-rule="evenodd" stroke="none"/>
    <path d="M-0.25 1.35 Q-0.2 1.4 -0.15 1.3 L-0.1 1.3 -0.05 1.3 Q-0.05 1.4 -0.1 1.45 L-0.2 1.5 -0.25 1.65 Q-0.25 1.75 -0.3 1.8 -0.4 1.85 -0.3 1.9 L-0.2 1.95 -0.3 1.95 -0.4 1.85 -0.4 1.8 -0.35 1.7 -0.3 1.55 -0.25 1.35 -0.25 1.35" fill="#4d3e4b" fill-rule="evenodd" stroke="none"/>
    <path d="M-0.25 1.3 L-0.25 1.35 -0.25 1.35 -0.25 1.3" fill="#f37ed9" fill-rule="evenodd" stroke="none"/>
    <path d="M-0.1 1.5 L-0.05 1.5 -0.05 1.55 -0.05 1.6 -0.1 1.65 -0.2 1.6 -0.15 1.55 -0.1 1.5" fill="#fefef8" fill-rule="evenodd" stroke="none"/>
    <path d="M-0.35 2.15 L-0.35 2.15 -0.3 2.2 -0.75 2.2 -0.7 2.1 -0.65 2.0 -0.5 1.85 -0.5 1.75 -0.6 1.75 -0.75 1.8 Q-0.85 1.85 -0.8 1.9 L-0.9 1.8 -0.8 1.75 Q-0.7 1.7 -0.7 1.65 -0.65 1.7 -0.55 1.7 L-0.35 1.7 -0.4 1.8 -0.4 1.85 -0.45 1.95 -0.5 2.05 Q-0.45 2.2 -0.35 2.15" fill="#9b2f67" fill-rule="evenodd" stroke="none"/>
    <path d="M-0.1 1.8 Q-0.15 1.8 -0.15 1.75 L-0.1 1.7 -0.15 1.7 -0.2 1.7 -0.25 1.65 -0.2 1.55 Q-0.15 1.5 -0.1 1.5 L-0.15 1.55 -0.2 1.6 -0.15 1.65 Q-0.1 1.7 -0.05 1.7 L-0.1 1.8" fill="#937f80" fill-rule="evenodd" stroke="none"/>
    <path d="M-0.15 1.9 L-0.15 2.0 -0.2 1.95 -0.3 1.9 Q-0.4 1.85 -0.3 1.8 L-0.2 1.85 -0.15 1.9" fill="#b39a80" fill-rule="evenodd" stroke="none"/>
    <path d="M-0.15 2.0 L-0.3 2.0 -0.4 2.0 -0.4 2.1 -0.35 2.15 Q-0.45 2.2 -0.5 2.05 L-0.45 1.95 -0.4 1.85 -0.3 1.95 -0.2 1.95 -0.15 2.0" fill="#3a2a3c" fill-rule="evenodd" stroke="none"/>
    <path d="M-0.1 2.1 L-0.1 2.05 -0.05 2.1 -0.05 2.15 Q-0.05 2.1 -0.05 2.1 L-0.1 2.1" fill="#ad9698" fill-rule="evenodd" stroke="none"/>
    <path d="M-0.05 2.15 L-0.1 2.15 -0.1 2.15 -0.05 2.15" fill="#b69e9d" fill-rule="evenodd" stroke="none"/>
    <path d="M-0.1 2.1 L-0.05 2.1 Q-0.05 2.1 -0.05 2.15 L-0.1 2.15 -0.1 2.1" fill="#fefcfa" fill-rule="evenodd" stroke="none"/>
    <path d="M-0.1 2.15 L-0.15 2.1 -0.1 2.1 -0.1 2.15" fill="#b9a0a0" fill-rule="evenodd" stroke="none"/>
    <path d="M-0.35 2.15 L-0.35 2.1 -0.25 2.1 -0.25 2.2 -0.3 2.2 -0.35 2.15" fill="#f9eced" fill-rule="evenodd" stroke="none"/>
    <path d="M-0.35 2.1 L-0.3 2.05 -0.2 2.05 -0.25 2.2 -0.25 2.1 -0.35 2.1 M-0.25 2.2 L-0.25 2.2" fill="#a1888e" fill-rule="evenodd" stroke="none"/>
  </g>
</svg>
