<?xml version="1.0" encoding="UTF-8" standalone="no"?>
<svg xmlns:xlink="http://www.w3.org/1999/xlink" height="9.0px" width="2.9px" xmlns="http://www.w3.org/2000/svg">
  <g transform="matrix(1.0, 0.0, 0.0, 1.0, 1.4, 4.45)">
    <path d="M0.8 -3.7 L0.85 -3.65 0.85 -3.65 0.95 -3.35 0.95 -3.3 0.85 -3.05 0.85 -3.05 0.75 -2.9 0.65 -2.8 0.7 -2.65 0.6 -2.5 0.55 -2.4 0.55 -2.4 0.5 -2.2 0.35 -2.1 0.3 -2.2 0.35 -2.4 0.4 -2.55 0.45 -2.6 0.5 -2.75 0.55 -3.0 0.7 -3.4 0.7 -3.5 0.8 -3.7 M-1.15 -2.45 L-1.15 -2.6 -1.1 -2.8 -1.1 -2.8 -1.05 -2.95 -1.05 -3.0 -1.0 -2.95 -0.9 -2.9 -0.75 -2.7 -0.75 -2.7 -0.7 -2.7 -0.65 -2.55 -0.6 -2.5 -0.55 -2.45 -0.5 -2.4 -0.5 -2.35 -0.45 -2.2 -0.4 -2.2 -0.3 -1.9 -0.3 -1.9 Q-0.35 -1.9 -0.45 -2.0 L-0.5 -2.05 -0.65 -2.2 -0.8 -2.35 -0.85 -2.4 -0.95 -2.5 Q-1.0 -2.5 -0.95 -2.4 L-0.95 -2.4 -1.0 -2.4 -1.0 -2.4 -1.05 -2.35 -0.95 -2.2 -0.9 -2.15 -0.9 -2.05 -0.85 -1.95 -0.85 -1.9 -0.95 -2.1 -1.15 -2.45 M0.0 -0.75 L0.0 -0.55 0.05 -0.5 0.05 0.0 0.05 0.05 0.05 0.5 0.05 0.65 0.05 0.7 0.0 0.7 0.05 0.3 0.05 0.05 -0.05 -0.7 0.0 -0.75 M0.25 0.7 L0.25 0.05 0.25 -0.05 0.25 -0.5 0.35 -0.4 0.35 -0.1 0.3 0.45 0.35 0.85 0.35 0.95 0.3 1.0 0.25 0.85 0.25 0.7" fill="#886943" fill-rule="evenodd" stroke="none"/>
    <path d="M-1.2 -2.3 L-1.2 -2.35 -1.15 -2.45 -0.95 -2.1 -0.85 -1.9 -0.85 -1.95 -0.9 -2.05 -0.9 -2.15 -0.95 -2.2 -1.05 -2.35 -1.0 -2.4 -1.0 -2.4 -0.95 -2.4 -0.95 -2.4 Q-1.0 -2.5 -0.95 -2.5 L-0.85 -2.4 -0.8 -2.35 -0.65 -2.2 -0.5 -2.05 -0.45 -2.0 Q-0.35 -1.9 -0.3 -1.9 L-0.3 -1.9 -0.4 -2.2 -0.45 -2.2 -0.5 -2.35 -0.5 -2.4 -0.5 -2.35 -0.4 -2.25 -0.25 -2.05 -0.2 -1.95 0.0 -1.5 0.1 -1.35 0.1 -1.35 Q0.15 -1.35 0.2 -1.65 L0.25 -1.95 0.25 -2.0 0.3 -2.2 0.35 -2.1 0.5 -2.2 0.55 -2.4 0.55 -2.4 0.6 -2.5 0.7 -2.65 0.65 -2.8 0.75 -2.9 0.85 -3.05 0.85 -3.05 0.85 -3.0 0.75 -2.6 0.7 -2.55 0.65 -2.4 0.6 -2.1 Q0.45 -1.5 0.45 -1.2 L0.4 -1.15 0.4 -0.4 0.4 0.0 0.4 0.2 0.35 0.35 0.35 1.15 0.35 1.75 0.5 2.1 0.55 2.2 0.6 2.35 0.65 2.45 0.55 2.9 0.55 3.15 0.35 2.85 Q0.2 2.7 0.1 2.7 L-0.05 2.85 -0.15 2.9 -0.25 3.05 -0.3 3.15 -0.4 3.3 -0.5 3.4 -0.55 3.5 -0.6 3.35 -0.7 3.0 -0.7 2.95 -0.55 2.65 -0.4 2.45 -0.3 2.4 -0.25 2.35 -0.25 2.3 -0.2 2.05 -0.15 1.9 -0.15 1.45 -0.1 1.05 -0.1 0.2 -0.1 -0.45 -0.15 -0.55 -0.2 -0.7 -0.25 -0.95 -0.3 -1.0 Q-0.3 -1.15 -0.45 -1.3 L-0.5 -1.35 -0.55 -1.4 -0.6 -1.45 -0.65 -1.6 -0.85 -1.85 -1.0 -2.05 -1.0 -2.1 -1.15 -2.25 -1.2 -2.3 M0.25 -0.5 L0.25 -0.75 0.25 -0.9 0.25 -1.0 0.3 -1.35 0.3 -1.45 0.2 -1.25 0.05 -1.25 0.0 -1.3 -0.35 -1.55 -0.15 -1.2 -0.1 -1.0 -0.05 -0.9 0.0 -0.8 0.0 -0.75 -0.05 -0.7 0.05 0.05 0.05 0.3 0.0 0.7 0.05 0.7 0.05 0.65 0.05 0.95 0.05 1.25 0.05 1.55 0.0 1.55 0.0 1.85 0.05 2.0 0.0 2.3 -0.05 2.35 -0.05 2.35 -0.1 2.45 Q-0.15 2.5 -0.15 2.6 L-0.15 2.6 0.0 2.5 0.15 2.4 0.2 2.4 0.3 2.45 0.35 2.45 0.3 2.4 0.25 2.35 Q0.2 2.15 0.2 1.9 L0.2 1.2 0.25 0.7 0.25 0.85 0.3 1.0 0.35 0.95 0.35 0.85 0.3 0.45 0.35 -0.1 0.35 -0.4 0.25 -0.5" fill="#694a36" fill-rule="evenodd" stroke="none"/>
    <path d="M-1.05 -3.0 L-1.0 -3.1 -1.0 -3.2 -0.95 -3.3 -0.95 -3.4 -0.8 -3.7 -0.75 -3.75 -0.65 -3.2 -0.65 -3.15 -0.5 -2.5 -0.5 -2.35 -0.5 -2.4 -0.55 -2.45 -0.6 -2.5 -0.65 -2.55 -0.7 -2.7 -0.75 -2.7 -0.75 -2.7 -0.9 -2.9 -1.0 -2.95 -1.05 -3.0 M-0.35 -4.2 L-0.25 -4.3 0.05 -4.35 0.2 -4.3 0.2 -4.2 0.25 -3.7 0.35 -2.95 0.45 -2.6 0.4 -2.55 0.35 -2.4 0.3 -2.2 0.25 -2.0 0.25 -1.95 0.2 -1.65 Q0.15 -1.35 0.1 -1.35 L0.1 -1.35 0.05 -2.45 -0.1 -3.2 -0.15 -3.5 -0.35 -4.2" fill="#1e1416" fill-rule="evenodd" stroke="none"/>
    <path d="M-0.75 -3.75 L-0.75 -3.8 -0.7 -3.8 -0.65 -3.9 -0.6 -3.95 -0.6 -3.95 -0.6 -3.95 -0.35 -4.2 -0.15 -3.5 -0.1 -3.2 0.05 -2.45 0.1 -1.35 0.0 -1.5 -0.2 -1.95 -0.25 -2.05 -0.4 -2.25 -0.5 -2.35 -0.5 -2.5 -0.65 -3.15 -0.65 -3.2 -0.75 -3.75 M0.2 -4.3 Q0.3 -4.25 0.35 -4.2 L0.55 -3.8 0.6 -3.7 0.7 -3.5 0.7 -3.4 0.55 -3.0 0.5 -2.75 0.45 -2.6 0.35 -2.95 0.25 -3.7 0.2 -4.2 0.2 -4.3" fill="#834139" fill-rule="evenodd" stroke="none"/>
    <path d="M-0.6 -3.95 Q-0.5 -4.15 -0.3 -4.3 L-0.25 -4.3 -0.2 -4.35 -0.15 -4.35 -0.15 -4.35 0.05 -4.4 0.1 -4.4 0.35 -4.3 0.35 -4.3 Q0.5 -4.2 0.6 -4.05 L0.65 -3.95 0.75 -3.8 0.75 -3.8 0.8 -3.7 0.7 -3.5 0.6 -3.7 0.55 -3.8 0.35 -4.2 Q0.3 -4.25 0.2 -4.3 L0.05 -4.35 -0.25 -4.3 -0.35 -4.2 -0.6 -3.95 -0.6 -3.95 M0.95 -3.3 L1.0 -2.95 1.0 -2.8 1.1 -2.5 1.1 -2.4 1.15 -2.3 1.15 -2.25 1.25 -2.05 1.35 -1.75 1.35 -1.55 1.4 -1.3 1.4 -1.1 1.45 -0.85 1.45 -0.55 1.4 -0.25 1.4 -0.25 1.3 0.15 1.25 0.45 1.2 0.85 1.15 1.1 1.15 1.4 1.05 1.65 1.0 2.0 0.95 2.3 0.9 2.35 0.9 2.5 0.85 2.85 0.8 3.2 0.75 3.55 0.75 3.6 0.7 3.6 Q0.7 3.75 0.75 3.9 L0.75 4.0 0.75 4.05 0.7 4.05 0.55 4.2 Q0.35 4.35 0.15 4.4 L0.1 4.45 0.0 4.45 -0.05 4.5 -0.35 4.45 -0.4 4.45 -0.5 4.35 -0.75 4.2 -0.75 4.15 -0.8 4.1 -0.85 4.05 -0.85 3.85 -0.85 3.7 -0.8 3.6 -0.8 3.4 -0.8 3.4 -0.85 3.2 -0.85 3.0 -0.85 2.8 -0.85 2.55 -0.85 2.35 -0.85 2.35 -0.9 2.2 -0.9 2.1 -0.9 2.0 -0.75 2.0 -0.7 2.0 -0.65 1.95 -0.55 1.9 -0.3 1.75 -0.3 1.7 -0.25 1.65 -0.25 1.55 -0.3 1.5 -0.3 1.5 -0.3 1.4 -0.25 1.35 Q-0.25 1.3 -0.3 1.3 L-0.3 1.3 -0.4 1.3 -0.4 1.3 -0.45 1.25 -0.5 1.25 -0.45 1.2 -0.35 1.1 -0.35 1.05 -0.3 1.0 -0.3 0.95 -0.25 0.85 -0.2 0.8 -0.2 0.65 -0.2 0.55 -0.2 0.3 -0.2 0.3 -0.15 0.15 -0.15 0.1 -0.2 0.1 -0.25 0.05 -0.35 0.0 -0.35 -0.1 -0.4 -0.15 -0.75 -0.3 -0.8 -0.35 -0.85 -0.35 -1.05 -0.45 -1.05 -0.45 -1.15 -0.55 -1.25 -0.8 -1.25 -0.85 -1.3 -1.0 -1.35 -1.15 -1.35 -1.25 -1.3 -1.5 -1.2 -2.3 -1.15 -2.25 -1.0 -2.1 -1.0 -2.05 -0.85 -1.85 -0.65 -1.6 -0.6 -1.45 -0.55 -1.4 -0.5 -1.35 -0.45 -1.3 Q-0.3 -1.15 -0.3 -1.0 L-0.25 -0.95 -0.2 -0.7 -0.15 -0.55 -0.1 -0.45 -0.1 0.2 -0.1 1.05 -0.15 1.45 -0.15 1.9 -0.2 2.05 -0.25 2.3 -0.25 2.35 -0.3 2.4 -0.4 2.45 -0.55 2.65 -0.7 2.95 -0.7 3.0 -0.6 3.35 -0.55 3.5 -0.5 3.4 -0.4 3.3 -0.3 3.15 -0.25 3.05 -0.15 2.9 -0.05 2.85 0.1 2.7 Q0.2 2.7 0.35 2.85 L0.55 3.15 0.55 2.9 0.65 2.45 0.6 2.35 0.55 2.2 0.5 2.1 0.35 1.75 0.35 1.15 0.35 0.35 0.4 0.2 0.4 0.0 0.4 -0.4 0.4 -1.15 0.45 -1.2 Q0.45 -1.5 0.6 -2.1 L0.65 -2.4 0.7 -2.55 0.75 -2.6 0.85 -3.0 0.85 -3.05 0.95 -3.3 M0.0 -0.75 L0.0 -0.8 -0.05 -0.9 -0.1 -1.0 -0.15 -1.2 -0.35 -1.55 0.0 -1.3 0.05 -1.25 0.2 -1.25 0.3 -1.45 0.3 -1.35 0.25 -1.0 0.25 -0.9 0.25 -0.75 0.25 -0.5 0.25 -0.05 0.25 0.05 0.25 0.7 0.2 1.2 0.2 1.9 Q0.2 2.15 0.25 2.35 L0.3 2.4 0.35 2.45 0.3 2.45 0.2 2.4 0.15 2.4 0.0 2.5 -0.15 2.6 -0.15 2.6 Q-0.15 2.5 -0.1 2.45 L-0.05 2.35 -0.05 2.35 0.0 2.3 0.05 2.0 0.0 1.85 0.0 1.55 0.05 1.55 0.05 1.25 0.05 0.95 0.05 0.65 0.05 0.5 0.05 0.05 0.05 0.0 0.05 -0.5 0.0 -0.55 0.0 -0.75 M1.15 -0.15 L1.2 -0.5 1.2 -0.6 1.15 -0.55 0.85 -0.2 0.6 0.0 0.45 0.1 0.45 0.15 0.5 0.2 0.55 0.45 0.6 0.55 0.6 0.65 0.55 0.75 0.55 1.3 0.55 1.6 0.6 1.65 0.8 1.8 0.85 1.65 1.0 1.0 1.05 0.65 1.05 0.35 1.1 -0.05 1.15 -0.05 1.15 -0.15" fill="#201b1a" fill-rule="evenodd" stroke="none"/>
    <path d="M-0.9 2.0 L-0.9 1.95 -0.95 1.9 -0.9 1.85 -0.9 1.7 -0.9 1.6 -0.9 1.35 -0.9 1.2 -0.95 1.15 Q-0.9 1.1 -0.95 1.0 L-0.95 0.95 -1.0 0.95 -1.0 0.8 -1.0 0.7 -1.0 0.7 -1.1 0.45 -1.1 0.35 -1.15 0.2 -1.15 0.2 -1.2 0.15 -1.25 -0.05 -1.25 -0.05 -1.3 -0.1 -1.3 -0.3 -1.35 -0.35 -1.35 -0.45 -1.35 -0.65 -1.35 -1.15 -1.3 -1.0 -1.25 -0.85 -1.25 -0.8 -1.15 -0.55 -1.05 -0.45 -1.05 -0.45 -0.85 -0.35 -0.8 -0.35 -0.75 -0.3 -0.4 -0.15 -0.35 -0.1 -0.35 0.0 -0.25 0.05 -0.2 0.1 -0.15 0.1 -0.15 0.15 -0.2 0.3 -0.2 0.3 -0.2 0.55 -0.2 0.65 -0.2 0.8 -0.25 0.85 -0.3 0.95 -0.3 1.0 -0.35 1.05 -0.35 1.1 -0.45 1.2 -0.5 1.25 -0.45 1.25 -0.4 1.3 -0.4 1.3 -0.3 1.3 -0.3 1.3 Q-0.25 1.3 -0.25 1.35 L-0.3 1.4 -0.3 1.5 -0.3 1.5 -0.25 1.55 -0.25 1.65 -0.3 1.7 -0.3 1.75 -0.55 1.9 -0.65 1.95 -0.7 2.0 -0.75 2.0 -0.9 2.0 M1.15 -0.15 L1.15 -0.05 1.1 -0.05 1.05 0.35 1.05 0.65 1.0 1.0 0.85 1.65 0.8 1.8 0.6 1.65 0.55 1.6 0.55 1.3 0.55 0.75 0.6 0.65 0.6 0.55 0.55 0.45 0.5 0.2 0.45 0.15 0.45 0.1 0.6 0.0 0.85 -0.2 1.15 -0.55 1.2 -0.6 1.2 -0.5 1.15 -0.15" fill="#3f3c39" fill-rule="evenodd" stroke="none"/>
    <path d="M-0.6 -3.95 Q-0.5 -4.15 -0.3 -4.3 L-0.25 -4.3 -0.2 -4.35 -0.15 -4.35 -0.15 -4.35 0.05 -4.4 0.1 -4.4 0.35 -4.3 0.35 -4.3 Q0.5 -4.2 0.6 -4.05 L0.65 -3.95 0.75 -3.8 0.75 -3.8 0.8 -3.7 0.85 -3.65 0.85 -3.65 0.95 -3.35 0.95 -3.3 1.0 -2.95 1.0 -2.8 1.1 -2.5 1.1 -2.4 1.15 -2.3 1.15 -2.25 1.25 -2.05 1.35 -1.75 1.35 -1.55 1.4 -1.3 1.4 -1.1 1.45 -0.85 1.45 -0.55 1.4 -0.25 1.4 -0.25 1.3 0.15 1.25 0.45 1.2 0.85 1.15 1.1 1.15 1.4 1.05 1.65 1.0 2.0 0.95 2.3 0.9 2.35 0.9 2.5 0.85 2.85 0.8 3.2 0.75 3.55 0.75 3.6 0.7 3.6 Q0.7 3.75 0.75 3.9 L0.75 4.0 0.75 4.05 0.7 4.05 0.55 4.2 Q0.35 4.35 0.15 4.4 L0.1 4.45 0.0 4.45 -0.05 4.5 -0.35 4.45 -0.4 4.45 -0.5 4.35 -0.75 4.2 -0.75 4.15 -0.8 4.1 -0.85 4.05 -0.85 3.85 -0.85 3.7 -0.8 3.6 -0.8 3.4 -0.8 3.4 -0.85 3.2 -0.85 3.0 -0.85 2.8 -0.85 2.55 -0.85 2.35 -0.85 2.35 -0.9 2.2 -0.9 2.1 -0.9 2.0 -0.9 1.95 -0.95 1.9 -0.9 1.85 -0.9 1.7 -0.9 1.6 -0.9 1.35 -0.9 1.2 -0.95 1.15 Q-0.9 1.1 -0.95 1.0 L-0.95 0.95 -1.0 0.95 -1.0 0.8 -1.0 0.7 -1.0 0.7 -1.1 0.45 -1.1 0.35 -1.15 0.2 -1.15 0.2 -1.2 0.15 -1.25 -0.05 -1.25 -0.05 -1.3 -0.1 -1.3 -0.3 -1.35 -0.35 -1.35 -0.45 -1.35 -0.65 -1.35 -1.15 -1.35 -1.25 -1.3 -1.5 -1.2 -2.3 -1.2 -2.35 -1.15 -2.45 -1.15 -2.6 -1.1 -2.8 -1.1 -2.8 -1.05 -2.95 -1.05 -3.0 -1.0 -3.1 -1.0 -3.2 -0.95 -3.3 -0.95 -3.4 -0.8 -3.7 -0.75 -3.75 -0.75 -3.8 -0.7 -3.8 -0.65 -3.9 -0.6 -3.95 -0.6 -3.95 M0.95 -3.35 L0.95 -3.3 0.85 -3.05 0.85 -3.0" fill="none" stroke="#000000" stroke-linecap="round" stroke-linejoin="round" stroke-opacity="0.4509804" stroke-width="0.1"/>
  </g>
</svg>
