<?xml version="1.0" encoding="UTF-8" standalone="no"?>
<svg xmlns:xlink="http://www.w3.org/1999/xlink" height="8.95px" width="2.8px" xmlns="http://www.w3.org/2000/svg">
  <g transform="matrix(1.0, 0.0, 0.0, 1.0, 1.35, 4.4)">
    <path d="M0.35 4.25 L0.05 4.4 -0.1 4.45 -0.2 4.45 Q-0.6 4.4 -0.75 4.25 L-0.8 4.15 -0.8 4.05 -0.75 4.0 -0.8 3.95 -0.75 3.0 -0.8 2.7 -0.75 2.5 -0.8 2.3 -0.9 1.85 -0.8 1.6 -0.9 1.0 -0.9 1.0 Q-0.8 1.05 -0.75 1.15 -0.65 1.35 -0.6 1.5 L-0.7 1.55 -0.75 1.65 -0.7 1.75 -0.65 1.7 -0.6 1.7 -0.65 1.9 -0.65 2.0 Q-0.6 1.9 -0.5 1.95 L-0.65 3.15 Q-0.65 3.45 -0.6 3.7 -0.55 3.9 -0.5 3.9 L-0.45 3.9 -0.4 3.65 Q-0.35 3.25 -0.45 3.0 -0.5 2.75 -0.5 2.5 L-0.5 1.75 Q-0.45 1.5 -0.6 0.75 L-0.75 -0.05 -0.65 -0.05 -0.6 -0.1 Q-0.6 -0.15 -0.7 -0.35 -0.8 -0.55 -0.75 -0.65 L-0.8 -0.7 -0.85 -0.75 -0.8 -0.9 -0.8 -0.9 Q-0.7 -0.95 -0.65 -0.95 -0.65 -1.1 -0.75 -1.25 L-0.9 -1.6 Q-1.0 -1.95 -1.1 -2.1 L-1.2 -2.2 -1.15 -2.55 -0.95 -3.15 -0.85 -3.5 -0.7 -3.75 -0.45 -4.1 Q-0.3 -4.3 -0.05 -4.35 L0.15 -4.35 0.25 -4.35 0.4 -4.25 Q0.5 -4.2 0.45 -4.05 L0.35 -3.9 0.0 -3.25 0.05 -3.25 Q0.1 -3.25 0.3 -3.45 L0.1 -3.25 Q0.0 -3.1 0.0 -3.0 0.0 -2.85 0.05 -2.85 L0.3 -2.8 0.5 -2.85 0.55 -2.9 0.7 -3.0 0.8 -3.1 0.85 -2.9 1.0 -2.45 0.7 -2.2 Q0.6 -2.3 0.65 -2.45 0.65 -2.55 0.55 -2.55 L0.55 -2.55 0.5 -2.55 0.5 -2.55 0.45 -2.5 0.4 -2.45 Q0.3 -2.45 0.3 -2.5 L0.35 -2.65 0.3 -2.7 Q0.25 -2.7 0.0 -2.3 L-0.2 -2.3 Q-0.2 -2.25 -0.1 -2.15 L-0.2 -1.95 Q-0.25 -1.8 -0.15 -1.8 L-0.05 -1.8 -0.15 -1.6 -0.1 -1.55 Q-0.1 -1.55 -0.05 -1.6 L0.0 -1.55 0.1 -1.5 -0.15 -1.15 Q-0.05 -1.05 0.0 -1.05 L0.25 -1.3 0.0 -0.8 0.0 -0.8 -0.05 -0.7 -0.05 -0.7 -0.15 -0.6 -0.05 -0.5 0.0 -0.5 0.05 -0.5 0.0 -0.45 0.0 -0.45 0.05 -0.4 -0.15 -0.15 -0.1 -0.05 -0.3 0.2 -0.25 0.35 -0.15 0.45 0.0 0.3 Q0.15 0.15 0.2 0.15 L0.25 0.15 0.15 0.35 0.05 0.5 0.05 0.55 0.25 0.55 0.6 0.15 1.0 -0.45 1.25 -0.75 1.2 -0.5 0.65 2.95 0.5 4.0 0.35 4.25 M0.05 -1.7 L0.2 -1.85 0.25 -1.8 0.15 -1.6 0.1 -1.7 0.05 -1.7 M0.45 2.5 L0.35 2.55 0.2 2.7 0.15 2.7 0.05 2.55 0.05 2.6 0.0 2.6 0.1 2.8 0.0 2.95 0.0 3.0 0.15 2.9 0.25 2.95 0.3 2.95 0.3 2.9 0.25 2.9 0.25 2.8 0.3 2.75 0.5 2.55 Q0.5 2.5 0.45 2.5 M0.25 1.8 L0.05 1.65 Q0.05 1.75 0.15 1.9 L0.0 2.05 Q0.0 2.15 0.05 2.15 L0.25 2.0 Q0.3 2.05 0.3 2.05 L0.4 2.05 0.4 2.0 0.35 1.95 0.4 1.9 0.55 1.6 0.4 1.65 0.25 1.8 M0.65 0.6 L0.6 0.55 0.4 0.7 0.3 0.85 Q0.2 0.7 0.05 0.65 L0.05 0.7 0.2 0.95 0.0 1.15 0.05 1.2 0.25 1.05 0.4 1.2 0.5 1.2 0.4 1.0 0.35 0.95 0.4 0.95 0.65 0.6" fill="#25201a" fill-rule="evenodd" stroke="none"/>
    <path d="M0.25 -4.35 L0.25 -4.35 Q0.45 -4.25 0.55 -4.1 L0.7 -3.85 0.85 -3.65 0.9 -3.4 0.95 -2.9 1.0 -2.7 1.05 -2.45 1.05 -2.35 1.05 -2.35 1.1 -2.25 1.3 -1.75 1.3 -1.65 1.4 -1.4 1.4 -0.85 1.4 -0.55 1.35 -0.35 1.3 -0.35 1.3 -0.25 1.1 1.35 1.1 1.45 0.9 2.25 0.9 2.3 0.85 2.55 0.85 2.6 0.75 2.85 0.7 3.2 0.7 3.55 0.7 3.85 0.5 4.15 0.35 4.25 0.5 4.0 0.65 2.95 1.2 -0.5 1.25 -0.75 1.0 -0.45 0.6 0.15 0.25 0.55 0.05 0.55 0.05 0.5 0.15 0.35 0.25 0.15 0.2 0.15 Q0.15 0.15 0.0 0.3 L-0.15 0.45 -0.25 0.35 -0.3 0.2 -0.1 -0.05 -0.15 -0.15 0.05 -0.4 0.15 -0.25 0.2 -0.25 -0.05 -0.05 0.0 0.05 0.0 0.05 0.3 -0.15 Q0.5 0.05 0.6 0.1 L0.65 0.05 Q0.6 -0.05 0.4 -0.2 L0.4 -0.25 0.65 -0.55 Q0.7 -0.7 0.25 -0.3 L0.25 -0.35 0.05 -0.5 0.05 -0.5 0.0 -0.5 -0.05 -0.5 -0.15 -0.6 -0.05 -0.7 -0.05 -0.7 0.0 -0.8 0.0 -0.8 0.25 -1.3 0.0 -1.05 Q-0.05 -1.05 -0.15 -1.15 L0.1 -1.5 0.15 -1.4 0.05 -1.3 -0.1 -1.2 0.0 -1.15 0.25 -1.3 0.35 -1.25 Q0.5 -1.15 0.6 -1.15 L0.65 -1.15 0.65 -1.2 0.4 -1.45 0.6 -1.7 0.6 -1.85 0.55 -1.75 0.25 -1.55 0.2 -1.55 0.15 -1.6 0.25 -1.8 0.2 -1.85 0.05 -1.7 Q-0.1 -1.8 -0.1 -1.75 L-0.05 -1.6 Q-0.1 -1.55 -0.1 -1.55 L-0.15 -1.6 -0.05 -1.8 -0.15 -1.8 Q-0.25 -1.8 -0.2 -1.95 L-0.1 -2.15 Q-0.2 -2.25 -0.2 -2.3 L0.0 -2.3 Q0.25 -2.7 0.3 -2.7 L0.35 -2.65 0.3 -2.5 Q0.3 -2.45 0.4 -2.45 L0.45 -2.5 0.5 -2.55 0.5 -2.55 0.55 -2.55 0.55 -2.55 Q0.65 -2.55 0.65 -2.45 0.6 -2.3 0.7 -2.2 L1.0 -2.45 0.85 -2.9 0.8 -3.1 0.7 -3.0 0.55 -2.9 0.5 -2.85 0.3 -2.8 0.05 -2.85 Q0.0 -2.85 0.0 -3.0 0.0 -3.1 0.1 -3.25 L0.3 -3.45 Q0.1 -3.25 0.05 -3.25 L0.0 -3.25 0.35 -3.9 0.45 -4.05 Q0.5 -4.2 0.4 -4.25 L0.25 -4.35 M-0.1 4.45 L-0.4 4.5 -0.4 4.5 Q-0.6 4.45 -0.8 4.2 L-0.8 4.15 -0.75 4.25 Q-0.6 4.4 -0.2 4.45 L-0.1 4.45 M-0.9 1.0 L-0.95 0.95 -1.1 0.5 -1.1 0.5 -1.2 0.1 -1.2 0.0 -1.2 -0.05 -1.25 -0.2 -1.3 -0.3 -1.3 -0.65 -1.3 -1.05 -1.25 -1.1 -1.2 -1.6 -1.2 -2.2 -1.1 -2.1 Q-1.0 -1.95 -0.9 -1.6 L-0.75 -1.25 Q-0.65 -1.1 -0.65 -0.95 -0.7 -0.95 -0.8 -0.9 L-0.8 -0.9 -0.85 -0.75 -0.8 -0.7 -0.75 -0.65 Q-0.8 -0.55 -0.7 -0.35 -0.6 -0.15 -0.6 -0.1 L-0.65 -0.05 -0.75 -0.05 -0.6 0.75 Q-0.45 1.5 -0.5 1.75 L-0.5 2.5 Q-0.5 2.75 -0.45 3.0 -0.35 3.25 -0.4 3.65 L-0.45 3.9 -0.5 3.9 Q-0.55 3.9 -0.6 3.7 -0.65 3.45 -0.65 3.15 L-0.5 1.95 Q-0.6 1.9 -0.65 2.0 L-0.65 1.9 -0.6 1.7 -0.65 1.7 -0.7 1.75 -0.75 1.65 -0.7 1.55 -0.6 1.5 Q-0.65 1.35 -0.75 1.15 -0.8 1.05 -0.9 1.0 L-0.9 1.0" fill="#2e2821" fill-rule="evenodd" stroke="none"/>
    <path d="M-0.05 -1.6 L-0.1 -1.75 Q-0.1 -1.8 0.05 -1.7 L0.1 -1.7 0.15 -1.6 0.2 -1.55 0.25 -1.55 0.55 -1.75 0.6 -1.85 0.6 -1.7 0.4 -1.45 0.65 -1.2 0.65 -1.15 0.6 -1.15 Q0.5 -1.15 0.35 -1.25 L0.25 -1.3 0.0 -1.15 -0.1 -1.2 0.05 -1.3 0.15 -1.4 0.1 -1.5 0.0 -1.55 -0.05 -1.6 M0.05 -0.5 L0.05 -0.5 0.25 -0.35 0.25 -0.3 Q0.7 -0.7 0.65 -0.55 L0.4 -0.25 0.4 -0.2 Q0.6 -0.05 0.65 0.05 L0.6 0.1 Q0.5 0.05 0.3 -0.15 L0.0 0.05 0.0 0.05 -0.05 -0.05 0.2 -0.25 0.15 -0.25 0.05 -0.4 0.0 -0.45 0.0 -0.45 0.05 -0.5 M0.65 0.6 L0.4 0.95 0.35 0.95 0.4 1.0 0.5 1.2 0.4 1.2 0.25 1.05 0.05 1.2 0.0 1.15 0.2 0.95 0.05 0.7 0.05 0.65 Q0.2 0.7 0.3 0.85 L0.4 0.7 0.6 0.55 0.65 0.6 M0.25 1.8 L0.4 1.65 0.55 1.6 0.4 1.9 0.35 1.95 0.4 2.0 0.4 2.05 0.3 2.05 Q0.3 2.05 0.25 2.0 L0.05 2.15 Q0.0 2.15 0.0 2.05 L0.15 1.9 Q0.05 1.75 0.05 1.65 L0.25 1.8 M0.45 2.5 Q0.5 2.5 0.5 2.55 L0.3 2.75 0.25 2.8 0.25 2.9 0.3 2.9 0.3 2.95 0.25 2.95 0.15 2.9 0.0 3.0 0.0 2.95 0.1 2.8 0.0 2.6 0.05 2.6 0.05 2.55 0.15 2.7 0.2 2.7 0.35 2.55 0.45 2.5" fill="#4d4237" fill-rule="evenodd" stroke="none"/>
    <path d="M0.25 -4.35 L0.25 -4.35 Q0.45 -4.25 0.55 -4.1 L0.7 -3.85 0.85 -3.65 0.9 -3.4 0.95 -2.9 1.0 -2.7 1.05 -2.45 1.05 -2.35 1.05 -2.35 1.1 -2.25 1.3 -1.75 1.3 -1.65 1.4 -1.4 1.4 -0.85 1.4 -0.55 1.35 -0.35 1.3 -0.35 1.3 -0.25 1.1 1.35 1.1 1.45 0.9 2.25 0.9 2.3 0.85 2.55 0.85 2.6 0.75 2.85 0.7 3.2 0.7 3.55 0.7 3.85 0.5 4.15 0.35 4.25 0.05 4.4 -0.1 4.45 -0.4 4.5 -0.4 4.5 Q-0.6 4.45 -0.8 4.2 L-0.8 4.15 -0.8 4.05 -0.75 4.0 -0.8 3.95 -0.75 3.0 -0.8 2.7 -0.75 2.5 -0.8 2.3 -0.9 1.85 -0.8 1.6 -0.9 1.0 -0.95 0.95 -1.1 0.5 -1.1 0.5 -1.2 0.1 -1.2 0.0 -1.2 -0.05 -1.25 -0.2 -1.3 -0.3 -1.3 -0.65 -1.3 -1.05 -1.25 -1.1 -1.2 -1.6 -1.2 -2.2 -1.15 -2.55 -0.95 -3.15 -0.85 -3.5 -0.7 -3.75 -0.45 -4.1 Q-0.3 -4.3 -0.05 -4.35 L0.15 -4.35 0.25 -4.35 Z" fill="none" stroke="#000000" stroke-linecap="round" stroke-linejoin="round" stroke-opacity="0.4509804" stroke-width="0.1"/>
  </g>
</svg>
