<?xml version="1.0" encoding="UTF-8" standalone="no"?>
<svg xmlns:xlink="http://www.w3.org/1999/xlink" height="4.4px" width="4.4px" xmlns="http://www.w3.org/2000/svg">
  <g transform="matrix(1.0, 0.0, 0.0, 1.0, 2.2, 2.2)">
    <path d="M2.2 -1.8 L2.05 -1.8 Q2.0 -1.8 1.95 -1.85 L1.75 -1.95 1.55 -2.0 1.6 -2.1 1.6 -2.2 2.2 -2.2 2.2 -1.8" fill="#6b3095" fill-rule="evenodd" stroke="none"/>
    <path d="M1.6 -2.2 L1.6 -2.1 1.55 -2.0 1.5 -1.95 1.3 -1.9 1.15 -1.95 1.3 -2.2 1.6 -2.2 M1.15 -1.95 L1.15 -1.95" fill="#7839a7" fill-rule="evenodd" stroke="none"/>
    <path d="M1.55 -2.0 L1.75 -1.95 1.95 -1.85 Q2.0 -1.8 2.05 -1.8 L2.2 -1.8 2.2 -1.7 1.85 -1.65 1.55 -1.5 1.3 -1.45 Q1.1 -1.45 1.05 -1.55 L1.3 -1.75 1.5 -1.95 1.55 -2.0" fill="#7b2b90" fill-rule="evenodd" stroke="none"/>
    <path d="M0.85 -1.7 L1.05 -1.9 1.2 -2.1 1.05 -2.0 0.9 -1.85 0.95 -1.95 0.95 -2.0 Q0.9 -2.0 0.85 -2.05 L0.75 -2.1 Q0.6 -2.0 0.55 -2.0 L0.35 -1.85 0.25 -1.75 0.15 -1.7 0.05 -1.8 0.15 -1.9 0.3 -1.9 Q0.4 -1.95 0.5 -2.0 L0.65 -2.2 1.3 -2.2 1.15 -1.95 1.0 -1.8 0.85 -1.7" fill="#9247bf" fill-rule="evenodd" stroke="none"/>
    <path d="M0.9 -1.85 L1.05 -2.0 1.2 -2.1 1.05 -1.9 0.85 -1.7 0.7 -1.5 0.65 -1.45 0.6 -1.4 0.5 -1.45 0.55 -1.45 0.55 -1.5 0.75 -1.7 0.9 -1.85 M0.6 -1.4 L0.6 -1.4" fill="#b44ad2" fill-rule="evenodd" stroke="none"/>
    <path d="M1.15 -1.95 L0.95 -1.75 0.8 -1.5 1.15 -1.45 1.5 -1.45 1.85 -1.5 2.2 -1.4 1.85 -1.4 1.45 -1.45 Q1.15 -1.35 0.75 -1.45 L0.75 -1.45 0.7 -1.5 0.85 -1.7 1.0 -1.8 1.15 -1.95 1.15 -1.95 M2.2 -1.4 L2.2 -1.4" fill="#9443ab" fill-rule="evenodd" stroke="none"/>
    <path d="M1.5 -1.95 L1.3 -1.75 1.05 -1.55 Q1.1 -1.45 1.3 -1.45 L1.55 -1.5 1.85 -1.65 2.2 -1.7 2.2 -1.4 1.85 -1.5 1.5 -1.45 1.15 -1.45 0.8 -1.5 0.95 -1.75 1.15 -1.95 1.3 -1.9 1.5 -1.95" fill="#86339f" fill-rule="evenodd" stroke="none"/>
    <path d="M0.6 -1.4 L0.65 -1.45 0.7 -1.4 0.7 -1.4 Q1.05 -1.3 1.4 -1.4 L1.8 -1.35 2.2 -1.35 2.2 -1.3 1.95 -1.3 1.7 -1.35 1.4 -1.35 1.1 -1.3 0.85 -1.35 0.65 -1.35 0.6 -1.4" fill="#ad71c0" fill-rule="evenodd" stroke="none"/>
    <path d="M0.6 -1.4 L0.6 -1.4 0.65 -1.35 0.85 -1.35 1.1 -1.3 1.4 -1.35 1.7 -1.35 1.95 -1.3 2.2 -1.3 2.15 -1.25 1.85 -1.3 1.6 -1.3 1.1 -1.3 0.6 -1.3 Q0.55 -1.4 0.45 -1.35 L0.4 -1.3 0.3 -1.3 0.1 -1.35 -0.1 -1.3 -0.35 -1.35 -0.6 -1.35 -1.1 -1.3 -1.6 -1.3 -1.85 -1.3 -2.1 -1.3 -2.1 -1.35 -2.05 -1.35 -1.65 -1.3 -1.4 -1.35 -1.2 -1.35 -0.9 -1.35 Q-0.75 -1.35 -0.6 -1.4 L-0.55 -1.45 -0.15 -1.35 0.1 -1.4 0.35 -1.35 0.45 -1.4 0.6 -1.4 M2.2 -1.3 L2.2 -1.3" fill="#b884ce" fill-rule="evenodd" stroke="none"/>
    <path d="M-2.1 -1.3 L-1.85 -1.3 -1.6 -1.3 -1.1 -1.3 -0.6 -1.35 -0.35 -1.35 -0.1 -1.3 0.1 -1.35 0.3 -1.3 0.4 -1.3 0.45 -1.35 Q0.55 -1.4 0.6 -1.3 L1.1 -1.3 1.6 -1.3 1.85 -1.3 2.15 -1.25 2.1 -1.2 1.7 -1.25 1.3 -1.25 Q0.95 -1.2 0.55 -1.25 L0.55 -1.3 0.5 -1.35 0.4 -1.3 0.3 -1.3 0.0 -1.3 -0.15 -1.25 -0.3 -1.25 -0.5 -1.3 -0.7 -1.3 -1.2 -1.25 -1.7 -1.25 -1.95 -1.25 -2.15 -1.3 -2.1 -1.3" fill="#c399d5" fill-rule="evenodd" stroke="none"/>
    <path d="M-2.15 -1.3 L-1.95 -1.25 -1.7 -1.25 -1.2 -1.25 -0.7 -1.3 -0.5 -1.3 -0.3 -1.25 -0.15 -1.25 0.0 -1.3 0.3 -1.3 0.4 -1.3 0.5 -1.35 0.55 -1.3 0.55 -1.25 Q0.95 -1.2 1.3 -1.25 L1.7 -1.25 2.1 -1.2 2.05 -1.2 1.8 -1.2 1.5 -1.2 1.0 -1.2 0.5 -1.25 0.45 -1.3 0.35 -1.25 0.25 -1.25 Q0.25 -1.25 0.2 -1.25 L-0.05 -1.25 -0.35 -1.2 -0.5 -1.25 -0.7 -1.25 -1.45 -1.2 -2.2 -1.25 -2.2 -1.3 -2.15 -1.3" fill="#cfabdd" fill-rule="evenodd" stroke="none"/>
    <path d="M0.65 -1.45 L0.7 -1.5 0.75 -1.45 0.75 -1.45 Q1.15 -1.35 1.45 -1.45 L1.85 -1.4 2.2 -1.4 2.2 -1.35 1.8 -1.35 1.4 -1.4 Q1.05 -1.3 0.7 -1.4 L0.7 -1.4 0.65 -1.45" fill="#a05bb5" fill-rule="evenodd" stroke="none"/>
    <path d="M0.75 -1.7 L0.55 -1.5 Q0.5 -1.45 0.5 -1.5 L0.45 -1.6 0.35 -1.6 0.3 -1.65 0.35 -1.75 0.45 -1.85 0.6 -1.9 0.75 -1.95 0.8 -1.95 0.85 -1.95 0.8 -1.8 0.75 -1.7" fill="#9039a6" fill-rule="evenodd" stroke="none"/>
    <path d="M0.9 -1.85 L0.75 -1.7 0.8 -1.8 0.85 -1.95 0.8 -1.95 0.75 -1.95 0.6 -1.9 0.45 -1.85 0.35 -1.75 0.3 -1.65 0.35 -1.6 0.45 -1.6 0.5 -1.5 Q0.5 -1.45 0.55 -1.5 L0.55 -1.45 0.4 -1.45 0.3 -1.5 0.15 -1.5 0.05 -1.45 -0.15 -1.5 0.0 -1.6 0.15 -1.7 0.25 -1.75 0.35 -1.85 0.55 -2.0 Q0.6 -2.0 0.75 -2.1 L0.85 -2.05 Q0.9 -2.0 0.95 -2.0 L0.95 -1.95 0.9 -1.85" fill="#9942b1" fill-rule="evenodd" stroke="none"/>
    <path d="M0.65 -2.2 L0.5 -2.0 Q0.4 -1.95 0.3 -1.9 L0.25 -2.05 0.1 -2.05 -0.1 -2.0 -0.35 -2.0 -0.3 -2.05 -0.15 -2.1 Q-0.05 -2.15 0.0 -2.2 L0.65 -2.2 M-0.35 -2.0 L-0.35 -2.0" fill="#7a51c6" fill-rule="evenodd" stroke="none"/>
    <path d="M0.3 -1.9 L0.15 -1.9 0.05 -1.8 0.0 -1.85 -0.05 -1.85 -0.35 -1.95 -0.35 -2.0 -0.1 -2.0 0.1 -2.05 0.25 -2.05 0.3 -1.9" fill="#8b53ce" fill-rule="evenodd" stroke="none"/>
    <path d="M0.55 -1.45 L0.5 -1.45 0.45 -1.4 0.45 -1.4 0.2 -1.45 -0.05 -1.4 -0.2 -1.4 -0.3 -1.45 -0.2 -1.6 -0.05 -1.7 0.0 -1.75 0.0 -1.85 0.05 -1.8 0.15 -1.7 0.0 -1.6 -0.15 -1.5 0.05 -1.45 0.15 -1.5 0.3 -1.5 0.4 -1.45 0.55 -1.45" fill="#a253be" fill-rule="evenodd" stroke="none"/>
    <path d="M0.5 -1.45 L0.6 -1.4 0.45 -1.4 0.35 -1.35 0.1 -1.4 -0.15 -1.35 -0.55 -1.45 -0.3 -1.45 -0.2 -1.4 -0.05 -1.4 0.2 -1.45 0.45 -1.4 0.45 -1.4 0.5 -1.45" fill="#b26cc5" fill-rule="evenodd" stroke="none"/>
    <path d="M0.35 -1.25 L0.45 -1.3 0.5 -1.25 1.0 -1.2 1.5 -1.2 1.8 -1.2 2.05 -1.2 2.05 -1.15 1.65 -1.15 1.25 -1.2 0.85 -1.15 0.5 -1.2 0.4 -1.25 0.35 -1.25" fill="#dcbee7" fill-rule="evenodd" stroke="none"/>
    <path d="M1.3 -0.85 L1.0 -0.95 0.65 -0.95 0.45 -0.95 0.25 -0.9 0.0 -0.95 -0.25 -0.9 -0.35 -0.8 -0.4 -0.75 -0.3 -0.6 -0.15 -0.6 -0.1 -0.6 0.0 -0.55 0.15 -0.55 0.55 -0.45 0.85 -0.45 0.6 -0.4 0.1 -0.5 Q-0.05 -0.55 -0.1 -0.6 L-0.25 -0.55 Q-0.35 -0.6 -0.4 -0.65 L-0.7 -0.75 -0.55 -0.85 Q-0.5 -0.9 -0.45 -0.95 L-0.15 -0.95 0.15 -0.95 0.4 -0.95 0.7 -0.95 1.3 -0.9 1.3 -0.85" fill="#ce9fd9" fill-rule="evenodd" stroke="none"/>
    <path d="M0.85 -0.45 L0.55 -0.45 0.15 -0.55 0.0 -0.55 -0.1 -0.6 -0.15 -0.6 -0.3 -0.6 -0.4 -0.75 -0.35 -0.8 -0.25 -0.9 0.0 -0.95 0.25 -0.9 0.45 -0.95 0.65 -0.95 1.0 -0.95 1.3 -0.85 1.25 -0.8 0.85 -0.9 0.4 -0.9 0.25 -0.9 0.1 -0.9 -0.1 -0.85 -0.25 -0.75 Q-0.3 -0.65 -0.2 -0.65 L-0.1 -0.65 0.0 -0.65 Q0.0 -0.6 0.05 -0.6 L0.25 -0.55 0.65 -0.45 0.9 -0.45 0.85 -0.45 M1.3 -0.85 L1.3 -0.85" fill="#c38fd3" fill-rule="evenodd" stroke="none"/>
    <path d="M0.85 -0.75 L0.55 -0.75 0.5 -0.75 0.4 -0.75 0.65 -0.6 0.95 -0.6 1.05 -0.65 1.1 -0.7 Q1.0 -0.75 0.85 -0.75 M0.95 -0.55 Q0.85 -0.5 0.7 -0.55 L0.4 -0.65 0.25 -0.65 0.1 -0.65 Q0.1 -0.75 0.15 -0.8 L0.3 -0.8 0.75 -0.8 1.2 -0.75 Q1.2 -0.7 1.1 -0.65 L0.95 -0.55" fill="#9558ba" fill-rule="evenodd" stroke="none"/>
    <path d="M0.85 -0.75 Q1.0 -0.75 1.1 -0.7 L1.05 -0.65 0.95 -0.6 0.65 -0.6 0.4 -0.75 0.5 -0.75 0.55 -0.75 0.85 -0.75" fill="#8241ac" fill-rule="evenodd" stroke="none"/>
    <path d="M0.95 -0.5 L0.75 -0.5 0.35 -0.6 0.1 -0.6 0.05 -0.65 Q0.0 -0.65 0.0 -0.7 L-0.1 -0.7 -0.2 -0.7 -0.1 -0.8 0.05 -0.85 0.2 -0.85 0.35 -0.85 0.55 -0.85 0.8 -0.85 1.2 -0.8 1.2 -0.75 0.75 -0.8 0.3 -0.8 0.15 -0.8 Q0.1 -0.75 0.1 -0.65 L0.25 -0.65 0.4 -0.65 0.7 -0.55 Q0.85 -0.5 0.95 -0.55 L0.95 -0.5" fill="#aa6dc1" fill-rule="evenodd" stroke="none"/>
    <path d="M0.9 -0.45 L0.65 -0.45 0.25 -0.55 0.05 -0.6 Q0.0 -0.6 0.0 -0.65 L-0.1 -0.65 -0.2 -0.65 Q-0.3 -0.65 -0.25 -0.75 L-0.1 -0.85 0.1 -0.9 0.25 -0.9 0.4 -0.9 0.85 -0.9 1.25 -0.8 1.2 -0.8 0.8 -0.85 0.55 -0.85 0.35 -0.85 0.2 -0.85 0.05 -0.85 -0.1 -0.8 -0.2 -0.7 -0.1 -0.7 0.0 -0.7 Q0.0 -0.65 0.05 -0.65 L0.1 -0.6 0.35 -0.6 0.75 -0.5 0.95 -0.5 0.9 -0.45 M0.95 -0.5 L0.95 -0.5" fill="#b580c9" fill-rule="evenodd" stroke="none"/>
    <path d="M2.0 -1.15 L1.65 -1.15 1.3 -1.1 1.2 -1.15 1.05 -1.15 0.75 -1.1 0.45 -1.15 0.4 -1.2 0.3 -1.2 0.35 -1.25 0.4 -1.25 0.5 -1.2 0.85 -1.15 1.25 -1.2 1.65 -1.15 2.05 -1.15 2.0 -1.15" fill="#e7cfef" fill-rule="evenodd" stroke="none"/>
    <path d="M0.3 -1.2 L0.4 -1.2 0.45 -1.15 0.75 -1.1 1.05 -1.15 1.2 -1.15 1.3 -1.1 1.65 -1.15 2.0 -1.15 1.9 -1.1 1.8 -1.05 1.75 -1.0 1.65 -0.95 Q1.7 -1.05 1.6 -1.05 L1.4 -1.0 1.15 -1.05 0.9 -1.05 Q0.6 -1.05 0.05 -1.05 L-0.75 -1.05 Q-0.85 -1.05 -1.0 -0.9 L-1.2 -0.8 -1.6 -0.8 -1.8 -0.85 -2.05 -0.85 -2.1 -0.8 -2.15 -0.75 -2.2 -0.7 -2.2 -0.8 -2.1 -0.85 -1.9 -0.9 -1.5 -0.8 -1.3 -0.8 Q-1.25 -0.8 -1.2 -0.85 L-1.05 -0.95 -1.0 -1.0 -1.0 -1.05 -1.25 -1.1 -1.5 -1.1 -1.85 -1.1 -2.2 -1.1 -2.2 -1.15 -1.4 -1.15 -0.6 -1.15 -0.25 -1.15 0.1 -1.2 Q0.15 -1.15 0.2 -1.15 0.25 -1.15 0.3 -1.2" fill="#f3dbf7" fill-rule="evenodd" stroke="none"/>
    <path d="M0.3 -1.2 Q0.25 -1.15 0.2 -1.15 0.15 -1.15 0.1 -1.2 L-0.25 -1.15 -0.6 -1.15 -1.4 -1.15 -2.2 -1.15 -2.2 -1.2 -1.6 -1.15 -1.0 -1.2 -0.7 -1.2 -0.45 -1.2 -0.2 -1.2 0.05 -1.2 0.15 -1.2 0.3 -1.2" fill="#e5d1ed" fill-rule="evenodd" stroke="none"/>
    <path d="M-2.2 -1.25 L-1.45 -1.2 -0.7 -1.25 -0.5 -1.25 -0.35 -1.2 -0.05 -1.25 0.2 -1.25 Q0.25 -1.25 0.25 -1.25 L0.35 -1.25 0.3 -1.2 0.15 -1.2 0.05 -1.2 -0.2 -1.2 -0.45 -1.2 -0.7 -1.2 -1.0 -1.2 -1.6 -1.15 -2.2 -1.2 -2.2 -1.25" fill="#d9bee5" fill-rule="evenodd" stroke="none"/>
    <path d="M1.3 -0.9 L0.7 -0.95 0.4 -0.95 0.15 -0.95 -0.15 -0.95 -0.45 -0.95 Q-0.5 -0.9 -0.55 -0.85 L-0.7 -0.75 -0.4 -0.65 Q-0.35 -0.6 -0.25 -0.55 L-0.1 -0.6 Q-0.05 -0.55 0.1 -0.5 L0.6 -0.4 0.85 -0.45 0.9 -0.45 0.8 -0.35 0.15 -0.45 -0.1 -0.5 -0.2 -0.55 -0.35 -0.5 -0.45 -0.6 Q-0.5 -0.65 -0.55 -0.65 L-0.7 -0.65 -0.8 -0.75 -0.65 -0.9 -0.5 -1.0 -0.1 -1.0 0.35 -1.0 0.75 -1.0 1.15 -1.0 1.25 -0.95 Q1.35 -0.9 1.4 -0.95 L1.3 -0.9" fill="#d6b0e0" fill-rule="evenodd" stroke="none"/>
    <path d="M0.2 -0.05 L0.1 0.0 0.05 0.05 0.1 0.0 0.15 -0.05 0.1 -0.1 -0.05 -0.15 -0.15 -0.15 -0.45 -0.15 Q-0.45 -0.15 -0.5 -0.2 L-0.6 -0.2 -1.35 -0.4 -1.35 -0.4 -0.6 -0.3 -0.45 -0.2 -0.35 -0.2 Q-0.25 -0.25 -0.15 -0.2 L-0.05 -0.2 0.05 -0.15 0.15 -0.15 0.2 -0.05" fill="#ab6db9" fill-rule="evenodd" stroke="none"/>
    <path d="M0.25 -0.1 L0.2 -0.05 0.15 -0.15 0.05 -0.15 -0.05 -0.2 -0.15 -0.2 Q-0.25 -0.25 -0.35 -0.2 L-0.45 -0.2 -0.6 -0.3 -1.35 -0.4 -1.45 -0.45 -1.25 -0.45 -1.05 -0.45 -0.35 -0.25 -0.1 -0.25 0.0 -0.2 0.1 -0.2 0.2 -0.2 0.25 -0.1" fill="#b982c6" fill-rule="evenodd" stroke="none"/>
    <path d="M0.2 -0.05 L0.25 -0.1 0.3 -0.15 -0.3 0.35 -0.95 0.75 -0.9 0.7 -0.85 0.65 -0.75 0.6 -0.35 0.35 0.05 0.05 0.1 0.0 0.2 -0.05 M-0.95 0.75 L-0.95 0.75 M0.3 -0.15 L0.3 -0.15" fill="#e8a6ee" fill-rule="evenodd" stroke="none"/>
    <path d="M0.3 -0.15 L0.25 -0.1 0.2 -0.2 0.1 -0.2 0.0 -0.2 -0.1 -0.25 -0.35 -0.25 -1.05 -0.45 -1.25 -0.45 -1.25 -0.5 -1.05 -0.5 -0.85 -0.45 -0.75 -0.4 -0.6 -0.4 Q-0.4 -0.35 -0.35 -0.3 L-0.25 -0.3 -0.2 -0.3 0.0 -0.3 0.15 -0.25 0.25 -0.25 0.3 -0.15" fill="#c599d0" fill-rule="evenodd" stroke="none"/>
    <path d="M-2.15 -0.75 L-2.1 -0.8 -2.05 -0.8 -2.05 -0.8 -2.0 -0.75 -1.75 -0.75 -1.45 -0.65 -1.25 -0.55 -0.35 -0.4 -0.25 -0.35 -0.1 -0.35 0.35 -0.25 0.35 -0.2 0.3 -0.15 0.25 -0.25 0.15 -0.25 0.0 -0.3 -0.2 -0.3 -0.25 -0.3 -0.35 -0.3 Q-0.4 -0.35 -0.6 -0.4 L-0.75 -0.4 -0.85 -0.45 -1.05 -0.5 -1.25 -0.5 -1.8 -0.7 -1.9 -0.7 -2.0 -0.7 Q-2.1 -0.7 -2.15 -0.75 M0.3 -0.15 L0.3 -0.15" fill="#d4a9e1" fill-rule="evenodd" stroke="none"/>
    <path d="M-1.35 -0.4 L-0.6 -0.2 -0.5 -0.2 Q-0.45 -0.15 -0.45 -0.15 L-0.15 -0.15 -0.05 -0.15 0.1 -0.1 0.15 -0.05 0.1 0.0 0.05 -0.05 0.0 -0.1 -0.25 -0.15 -0.45 -0.1 -0.55 -0.1 -0.65 -0.15 -1.45 -0.35 -1.35 -0.4 M-1.45 -0.35 L-1.45 -0.35" fill="#9b56ac" fill-rule="evenodd" stroke="none"/>
    <path d="M0.3 -0.15 L0.3 -0.15 0.35 -0.2 0.35 -0.25 -0.1 -0.35 -0.25 -0.35 -0.35 -0.4 -1.25 -0.55 -1.1 -0.55 -0.9 -0.55 -0.8 -0.5 -0.7 -0.5 Q-0.55 -0.5 -0.5 -0.6 -0.5 -0.65 -0.6 -0.65 L-0.7 -0.6 -0.75 -0.65 -0.9 -0.65 Q-0.95 -0.7 -0.95 -0.75 L-0.85 -0.8 -0.75 -0.9 -0.55 -1.0 -0.1 -1.0 0.35 -1.0 -0.1 -1.0 -0.5 -1.0 -0.65 -0.9 -0.8 -0.75 -0.7 -0.65 -0.55 -0.65 Q-0.5 -0.65 -0.45 -0.6 L-0.35 -0.5 -0.2 -0.55 -0.1 -0.5 0.15 -0.45 0.8 -0.35 0.7 -0.35 0.6 -0.35 Q0.5 -0.3 0.45 -0.25 L0.3 -0.15" fill="#debce6" fill-rule="evenodd" stroke="none"/>
    <path d="M2.15 -1.25 L2.2 -1.3 2.2 -0.85 1.8 -0.6 1.45 -0.3 Q1.4 -0.25 1.3 -0.25 L1.15 -0.2 1.0 -0.2 Q0.9 -0.2 0.85 -0.1 L0.25 0.3 -0.35 0.7 -0.65 0.95 Q-0.8 1.0 -1.0 1.15 L-1.35 1.4 -1.4 1.45 -1.5 1.55 -1.95 1.9 -2.1 2.0 -2.2 2.05 -2.2 1.7 -1.95 1.5 -1.65 1.3 -1.45 1.15 -1.3 1.0 -1.2 0.9 -1.05 0.85 -1.0 0.8 -0.95 0.75 -0.3 0.35 0.3 -0.15 0.45 -0.25 0.6 -0.3 Q0.75 -0.3 0.8 -0.35 1.3 -0.6 1.65 -0.95 L1.75 -1.0 1.8 -1.05 1.9 -1.1 2.0 -1.15 2.05 -1.15 2.05 -1.2 2.1 -1.2 2.15 -1.25" fill="#fefbff" fill-rule="evenodd" stroke="none"/>
    <path d="M1.3 -0.85 L1.3 -0.9 1.4 -0.95 1.45 -0.95 1.55 -0.9 1.5 -0.85 1.45 -0.8 0.9 -0.45 0.95 -0.5 1.15 -0.65 1.35 -0.75 1.35 -0.8 1.3 -0.85 1.3 -0.85 M0.85 -0.45 L0.9 -0.45 0.85 -0.45" fill="#c3a3f5" fill-rule="evenodd" stroke="none"/>
    <path d="M1.4 -1.0 L1.6 -1.05 Q1.7 -1.05 1.65 -0.95 1.3 -0.6 0.8 -0.35 0.75 -0.3 0.6 -0.3 L0.45 -0.25 Q0.5 -0.3 0.6 -0.35 L0.7 -0.35 0.8 -0.35 0.9 -0.45 1.45 -0.8 1.5 -0.85 1.55 -0.9 1.45 -0.95 1.4 -0.95 1.35 -1.0 1.4 -1.0" fill="#dfcdfa" fill-rule="evenodd" stroke="none"/>
    <path d="M0.95 -0.5 L0.95 -0.55 1.1 -0.65 Q1.2 -0.7 1.2 -0.75 L1.2 -0.8 1.3 -0.85 1.35 -0.8 1.35 -0.75 1.15 -0.65 0.95 -0.5 0.95 -0.5" fill="#a275e5" fill-rule="evenodd" stroke="none"/>
    <path d="M0.8 -0.05 L0.85 -0.05 0.75 0.05 Q0.65 0.1 0.5 0.2 L0.25 0.35 0.8 -0.05" fill="#d679e5" fill-rule="evenodd" stroke="none"/>
    <path d="M0.85 -0.05 L0.8 -0.05 0.95 -0.1 1.15 -0.1 1.4 -0.05 2.2 0.05 2.2 0.1 1.7 0.05 1.05 -0.1 0.85 -0.05" fill="#cbb0d7" fill-rule="evenodd" stroke="none"/>
    <path d="M0.95 -0.15 L0.85 -0.1 Q0.9 -0.2 1.0 -0.2 L1.15 -0.2 1.3 -0.25 Q1.4 -0.25 1.45 -0.3 L1.8 -0.6 2.2 -0.85 2.2 -0.8 1.95 -0.65 1.75 -0.5 1.65 -0.4 1.55 -0.3 1.5 -0.25 1.5 -0.2 1.8 -0.2 2.05 -0.15 2.0 -0.1 2.0 -0.1 2.2 -0.05 2.2 0.0 2.0 0.0 1.8 -0.05 Q1.55 -0.05 1.45 -0.15 L1.2 -0.15 0.95 -0.15" fill="#ead9f7" fill-rule="evenodd" stroke="none"/>
    <path d="M0.8 -0.05 L0.25 0.35 0.0 0.5 -0.2 0.65 -0.4 0.8 -0.5 0.9 -0.6 1.0 -0.8 1.05 -0.8 1.1 -0.9 1.15 -1.0 1.2 -1.2 1.35 -1.4 1.5 -1.45 1.5 -1.5 1.55 -1.4 1.45 -1.35 1.4 -1.0 1.15 Q-0.8 1.0 -0.65 0.95 L-0.35 0.7 0.25 0.3 0.85 -0.1 0.95 -0.15 0.95 -0.1 0.8 -0.05 M-0.4 0.8 L-0.4 0.8" fill="#f6b1fb" fill-rule="evenodd" stroke="none"/>
    <path d="M2.2 0.05 L1.4 -0.05 1.15 -0.1 0.95 -0.1 0.95 -0.15 1.2 -0.15 1.45 -0.15 Q1.55 -0.05 1.8 -0.05 L2.0 0.0 2.2 0.0 2.2 0.05" fill="#dcc9e5" fill-rule="evenodd" stroke="none"/>
    <path d="M-2.05 -0.85 L-1.8 -0.85 -1.6 -0.8 -1.2 -0.8 -1.0 -0.9 Q-0.85 -1.05 -0.75 -1.05 L0.05 -1.05 Q0.6 -1.05 0.9 -1.05 L1.15 -1.05 1.4 -1.0 1.35 -1.0 0.65 -1.05 0.0 -1.0 -0.35 -1.05 -0.7 -1.05 -0.9 -0.9 -1.1 -0.75 -1.4 -0.7 Q-1.6 -0.7 -1.75 -0.8 L-1.9 -0.8 -2.05 -0.85" fill="#eecdf2" fill-rule="evenodd" stroke="none"/>
    <path d="M-1.25 -0.55 L-1.45 -0.65 -1.75 -0.75 -2.0 -0.75 -2.05 -0.8 -2.05 -0.8 -2.05 -0.85 -1.9 -0.8 -1.75 -0.8 Q-1.6 -0.7 -1.4 -0.7 L-1.1 -0.75 -0.9 -0.9 -0.7 -1.05 -0.35 -1.05 0.0 -1.0 0.65 -1.05 1.35 -1.0 1.4 -0.95 Q1.35 -0.9 1.25 -0.95 L1.15 -1.0 0.75 -1.0 0.35 -1.0 -0.1 -1.0 -0.55 -1.0 -0.75 -0.9 -0.85 -0.8 -0.95 -0.75 Q-0.95 -0.7 -0.9 -0.65 L-0.75 -0.65 -0.7 -0.6 -0.6 -0.65 Q-0.5 -0.65 -0.5 -0.6 -0.55 -0.5 -0.7 -0.5 L-0.8 -0.5 -0.9 -0.55 -1.1 -0.55 -1.25 -0.55" fill="#e7c0ed" fill-rule="evenodd" stroke="none"/>
    <path d="M0.85 -0.05 L1.05 -0.1 1.7 0.05 2.2 0.1 2.2 0.15 2.15 0.15 1.35 0.05 0.8 0.0 0.85 -0.05" fill="#b897c9" fill-rule="evenodd" stroke="none"/>
    <path d="M2.2 -0.4 L1.8 -0.4 Q1.8 -0.5 1.9 -0.6 L2.0 -0.65 2.1 -0.7 2.2 -0.75 2.2 -0.7 2.05 -0.6 1.95 -0.5 2.05 -0.45 2.2 -0.45 2.2 -0.4" fill="#9466e2" fill-rule="evenodd" stroke="none"/>
    <path d="M2.1 -0.7 L2.0 -0.65 1.9 -0.6 Q1.8 -0.5 1.8 -0.4 L2.2 -0.4 2.2 -0.25 2.15 -0.25 1.7 -0.35 1.7 -0.45 2.1 -0.7" fill="#ab8aec" fill-rule="evenodd" stroke="none"/>
    <path d="M2.05 -0.15 L1.8 -0.2 1.5 -0.2 1.5 -0.25 1.55 -0.3 1.65 -0.4 1.75 -0.5 1.7 -0.45 1.65 -0.4 Q1.6 -0.35 1.6 -0.3 L2.1 -0.2 2.05 -0.15" fill="#d5c4f7" fill-rule="evenodd" stroke="none"/>
    <path d="M1.75 -0.5 L1.95 -0.65 2.2 -0.8 2.2 -0.75 2.1 -0.7 1.7 -0.45 1.7 -0.35 2.15 -0.25 2.1 -0.2 1.6 -0.3 Q1.6 -0.35 1.65 -0.4 L1.7 -0.45 1.75 -0.5" fill="#c5a6f4" fill-rule="evenodd" stroke="none"/>
    <path d="M2.2 -0.05 L2.0 -0.1 2.0 -0.1 2.05 -0.15 2.1 -0.2 2.15 -0.25 2.2 -0.25 2.2 -0.05" fill="#fbf7fd" fill-rule="evenodd" stroke="none"/>
    <path d="M2.2 -0.45 L2.05 -0.45 1.95 -0.5 2.05 -0.6 2.2 -0.7 2.2 -0.45" fill="#7e4bce" fill-rule="evenodd" stroke="none"/>
    <path d="M2.05 0.25 L2.1 0.2 2.15 0.15 2.2 0.15 Q2.1 0.3 1.9 0.3 L1.6 0.3 1.05 0.2 0.8 0.1 0.65 0.15 0.5 0.2 0.65 0.15 Q0.8 0.05 1.05 0.15 L1.25 0.2 1.75 0.3 2.05 0.25" fill="#773b97" fill-rule="evenodd" stroke="none"/>
    <path d="M2.1 0.2 L2.05 0.25 1.65 0.2 1.0 0.05 0.7 0.1 0.75 0.05 1.05 0.0 1.3 0.1 2.1 0.2" fill="#9567ae" fill-rule="evenodd" stroke="none"/>
    <path d="M2.15 0.15 L2.1 0.2 1.3 0.1 1.05 0.0 0.75 0.05 0.8 0.0 1.35 0.05 2.15 0.15" fill="#a67ebb" fill-rule="evenodd" stroke="none"/>
    <path d="M0.5 0.2 L0.65 0.15 0.8 0.1 1.05 0.2 1.6 0.3 1.9 0.3 Q2.1 0.3 2.2 0.15 L2.2 0.2 2.05 0.35 1.85 0.4 1.7 0.4 1.6 0.5 1.5 0.55 1.35 0.5 1.35 0.45 Q1.4 0.35 1.35 0.35 L1.15 0.35 1.05 0.25 Q0.95 0.2 0.85 0.15 L0.7 0.15 Q0.55 0.25 0.35 0.35 L0.05 0.6 1.3 0.8 2.2 0.9 2.2 0.95 1.25 0.85 -0.05 0.65 0.15 0.5 0.4 0.3 0.45 0.3 0.45 0.25 0.5 0.2" fill="#6a2886" fill-rule="evenodd" stroke="none"/>
    <path d="M2.2 0.2 L2.2 0.9 1.3 0.8 0.05 0.6 0.35 0.35 Q0.55 0.25 0.7 0.15 L0.85 0.15 Q0.95 0.2 1.05 0.25 L1.15 0.35 1.35 0.35 Q1.4 0.35 1.35 0.45 L1.35 0.5 1.5 0.55 1.6 0.5 1.7 0.4 1.85 0.4 2.05 0.35 2.2 0.2" fill="#621f78" fill-rule="evenodd" stroke="none"/>
    <path d="M2.2 1.0 L2.15 1.0 -0.1 0.75 -0.15 0.7 -0.15 0.65 -0.1 0.6 -0.1 0.7 0.0 0.7 0.6 0.8 2.2 1.0" fill="#874498" fill-rule="evenodd" stroke="none"/>
    <path d="M2.2 0.95 L2.2 1.0 0.6 0.8 0.0 0.7 -0.1 0.7 -0.1 0.6 0.15 0.45 Q0.3 0.35 0.45 0.25 L0.45 0.3 0.4 0.3 0.15 0.5 -0.05 0.65 1.25 0.85 2.2 0.95" fill="#7d3191" fill-rule="evenodd" stroke="none"/>
    <path d="M2.2 1.0 L2.2 1.1 2.15 1.1 2.1 1.1 1.8 1.1 1.5 1.05 0.55 0.95 -0.2 0.85 -0.25 0.8 -0.25 0.75 -0.2 0.7 Q-0.2 0.8 -0.15 0.8 L0.0 0.8 1.95 1.05 2.0 1.05 2.1 1.05 2.15 1.0 2.2 1.0 M-0.25 0.75 L-0.25 0.75" fill="#a973b7" fill-rule="evenodd" stroke="none"/>
    <path d="M2.15 1.0 L2.1 1.05 -0.15 0.75 -0.15 0.75 -0.2 0.7 -0.15 0.65 -0.15 0.7 -0.1 0.75 2.15 1.0" fill="#9254a2" fill-rule="evenodd" stroke="none"/>
    <path d="M2.2 1.1 L2.2 1.15 2.15 1.15 0.8 1.0 -0.05 0.9 -0.1 0.85 -0.2 0.85 -0.3 0.8 -0.25 0.75 -0.25 0.8 -0.2 0.85 0.55 0.95 1.5 1.05 1.8 1.1 2.1 1.1 2.15 1.1 2.2 1.1" fill="#b686c2" fill-rule="evenodd" stroke="none"/>
    <path d="M2.2 1.15 L2.2 1.35 2.1 1.35 2.0 1.35 2.05 1.25 2.1 1.2 2.15 1.15 2.2 1.15" fill="#f8e2fa" fill-rule="evenodd" stroke="none"/>
    <path d="M-0.4 0.8 L-0.4 0.8 -0.35 0.8 -0.35 0.85 -0.25 0.9 0.6 1.0 2.1 1.2 1.9 1.2 1.75 1.2 0.95 1.1 0.0 1.0 -0.2 0.95 -0.4 0.95 -0.4 0.8" fill="#cfaad7" fill-rule="evenodd" stroke="none"/>
    <path d="M2.15 1.15 L2.1 1.2 0.6 1.0 -0.25 0.9 -0.35 0.85 -0.35 0.8 -0.3 0.8 -0.2 0.85 -0.1 0.85 -0.05 0.9 0.8 1.0 2.15 1.15" fill="#c399cd" fill-rule="evenodd" stroke="none"/>
    <path d="M-0.8 1.05 L-0.6 1.0 -0.5 0.9 -0.4 0.8 -0.4 0.95 -0.2 0.95 0.0 1.0 0.95 1.1 1.75 1.2 1.9 1.2 2.1 1.2 2.05 1.25 2.0 1.35 2.1 1.35 2.2 1.35 2.2 1.45 0.65 1.25 -0.05 1.1 -0.8 1.05" fill="#ddb3e3" fill-rule="evenodd" stroke="none"/>
    <path d="M-0.8 1.1 L-0.8 1.05 -0.05 1.1 0.65 1.25 2.2 1.45 1.8 1.4 1.45 1.4 -0.1 1.15 -0.35 1.15 -0.6 1.1 -0.7 1.1 -0.8 1.1" fill="#d0a4d7" fill-rule="evenodd" stroke="none"/>
    <path d="M-0.9 1.15 L-0.8 1.1 -0.7 1.1 -0.6 1.1 -0.35 1.15 -0.1 1.15 1.45 1.4 1.8 1.4 2.2 1.45 2.2 1.5 2.15 1.5 1.0 1.35 -0.3 1.15 -0.45 1.15 -0.6 1.15 Q-0.75 1.1 -0.9 1.15" fill="#c392cc" fill-rule="evenodd" stroke="none"/>
    <path d="M2.2 1.5 L2.2 1.55 2.1 1.6 2.05 1.6 2.05 1.55 2.1 1.55 2.15 1.5 2.2 1.5" fill="#a734b2" fill-rule="evenodd" stroke="none"/>
    <path d="M-1.0 1.2 L-0.9 1.15 Q-0.75 1.1 -0.6 1.15 L-0.45 1.15 -0.3 1.15 1.0 1.35 2.15 1.5 2.1 1.55 1.25 1.45 -0.35 1.2 -0.45 1.2 -0.6 1.15 Q-0.75 1.15 -0.85 1.15 L-0.95 1.2 -1.0 1.2" fill="#b67fc1" fill-rule="evenodd" stroke="none"/>
    <path d="M2.2 1.55 L2.2 2.2 -1.75 2.2 -1.45 2.1 -1.15 2.05 -0.85 2.05 -0.6 2.0 -0.3 1.95 0.0 1.9 Q0.05 1.85 0.15 1.85 L0.3 1.85 0.65 1.75 1.0 1.7 1.45 1.7 1.9 1.75 2.0 1.7 2.05 1.65 2.1 1.6 2.2 1.55" fill="#5d1d75" fill-rule="evenodd" stroke="none"/>
    <path d="M-0.95 1.25 L0.6 1.5 2.05 1.65 1.95 1.7 1.9 1.7 0.15 1.5 -1.0 1.3 -0.95 1.25" fill="#78298b" fill-rule="evenodd" stroke="none"/>
    <path d="M2.05 1.55 L2.05 1.6 -0.85 1.2 -0.9 1.25 -0.95 1.25 -1.0 1.25 Q-0.95 1.2 -0.95 1.2 L-0.85 1.15 2.05 1.55" fill="#9c5aaa" fill-rule="evenodd" stroke="none"/>
    <path d="M2.05 1.6 L2.1 1.6 2.05 1.65 0.6 1.5 -0.95 1.25 -0.9 1.25 1.75 1.6 1.9 1.65 2.05 1.6" fill="#853696" fill-rule="evenodd" stroke="none"/>
    <path d="M2.1 1.55 L2.05 1.55 -0.85 1.15 Q-0.75 1.15 -0.6 1.15 L-0.45 1.2 -0.35 1.2 1.25 1.45 2.1 1.55" fill="#a96db5" fill-rule="evenodd" stroke="none"/>
    <path d="M2.05 0.25 L1.75 0.3 1.25 0.2 1.05 0.15 Q0.8 0.05 0.65 0.15 L0.7 0.1 1.0 0.05 1.65 0.2 2.05 0.25" fill="#8551a0" fill-rule="evenodd" stroke="none"/>
    <path d="M2.1 1.05 L2.0 1.05 1.95 1.05 0.0 0.8 -0.15 0.8 Q-0.2 0.8 -0.2 0.7 L-0.15 0.75 -0.15 0.75 2.1 1.05 M-0.2 0.7 L-0.2 0.7" fill="#9d64ac" fill-rule="evenodd" stroke="none"/>
    <path d="M0.25 0.35 L0.5 0.2 Q0.65 0.1 0.75 0.05 L0.7 0.1 0.65 0.15 0.5 0.2 0.45 0.25 Q0.3 0.35 0.15 0.45 L-0.1 0.6 -0.15 0.65 -0.2 0.7 -0.2 0.7 -0.25 0.75 -0.2 0.65 0.0 0.5 0.25 0.35" fill="#b843ce" fill-rule="evenodd" stroke="none"/>
    <path d="M0.05 0.05 L-0.35 0.35 -0.75 0.6 -0.75 0.55 -0.45 0.35 -0.15 0.15 0.0 0.05 0.05 0.05 M-0.75 0.6 L-0.75 0.6" fill="#b559c2" fill-rule="evenodd" stroke="none"/>
    <path d="M0.1 0.0 L0.05 0.05 0.0 0.05 Q0.05 0.0 0.0 -0.05 L-0.2 -0.1 -0.45 -0.1 -0.55 0.0 -0.7 0.1 -0.65 0.0 -0.65 -0.1 -1.3 -0.3 -1.5 -0.25 -1.7 -0.2 -1.75 -0.2 -1.6 -0.3 -1.45 -0.35 -0.65 -0.15 -0.55 -0.1 -0.45 -0.1 -0.25 -0.15 0.0 -0.1 0.05 -0.05 0.1 0.0" fill="#8c3da3" fill-rule="evenodd" stroke="none"/>
    <path d="M-1.75 2.2 L-2.15 2.2 -2.0 2.05 -1.8 1.9 -1.75 1.85 -1.65 1.8 -1.65 1.85 -1.6 1.85 -1.2 1.8 -0.8 1.65 -0.55 1.6 Q-0.4 1.55 -0.3 1.6 L-0.15 1.55 0.0 1.5 -0.3 1.45 -0.8 1.35 -1.0 1.35 -1.25 1.5 -1.5 1.7 Q-1.3 1.5 -1.0 1.3 L0.15 1.5 1.9 1.7 1.95 1.7 2.05 1.65 2.0 1.7 1.9 1.75 1.45 1.7 1.0 1.7 0.65 1.75 0.3 1.85 0.15 1.85 Q0.05 1.85 0.0 1.9 L-0.3 1.95 -0.6 2.0 -0.85 2.05 -1.15 2.05 -1.45 2.1 -1.75 2.2" fill="#681f7f" fill-rule="evenodd" stroke="none"/>
    <path d="M2.05 1.6 L1.9 1.65 1.75 1.6 -0.9 1.25 -0.85 1.2 2.05 1.6" fill="#90479f" fill-rule="evenodd" stroke="none"/>
    <path d="M-2.05 -1.35 L-2.1 -1.35 -2.2 -1.3 -2.2 -1.55 -2.05 -1.6 -1.9 -1.6 Q-1.9 -1.5 -1.8 -1.45 L-1.65 -1.45 -1.35 -1.45 Q-1.25 -1.5 -1.15 -1.65 L-1.1 -1.65 -1.05 -1.65 -0.9 -1.55 -0.85 -1.55 -0.8 -1.5 -0.9 -1.45 -1.0 -1.45 -1.3 -1.45 -1.55 -1.4 -1.75 -1.4 -1.95 -1.45 -2.0 -1.45 -2.05 -1.4 -2.05 -1.35" fill="#874dc2" fill-rule="evenodd" stroke="none"/>
    <path d="M-1.9 -1.6 L-2.05 -1.6 -2.2 -1.55 -2.2 -2.2 -1.8 -2.2 -1.8 -1.95 Q-1.8 -1.85 -1.75 -1.8 L-1.8 -1.7 -1.9 -1.6 -1.9 -1.6" fill="#6f56e4" fill-rule="evenodd" stroke="none"/>
    <path d="M-0.6 -1.4 Q-0.75 -1.35 -0.9 -1.35 L-1.2 -1.35 -1.4 -1.35 -1.65 -1.3 -2.05 -1.35 -2.05 -1.4 -1.75 -1.4 -1.5 -1.4 -1.1 -1.4 -0.65 -1.45 -0.6 -1.4" fill="#a474c8" fill-rule="evenodd" stroke="none"/>
    <path d="M-2.2 -1.1 L-1.85 -1.1 -1.5 -1.1 -1.25 -1.1 -1.0 -1.05 -1.0 -1.0 -1.05 -0.95 -1.2 -0.85 Q-1.25 -0.8 -1.3 -0.8 L-1.5 -0.8 -1.9 -0.9 -2.1 -0.85 Q-2.0 -0.95 -1.85 -0.95 L-1.75 -0.9 -1.65 -0.9 -1.35 -0.85 Q-1.25 -0.95 -1.15 -1.05 L-1.65 -1.1 -2.2 -1.1 -2.2 -1.1" fill="#faebfc" fill-rule="evenodd" stroke="none"/>
    <path d="M-2.1 -0.85 L-2.2 -0.8 -2.2 -1.1 -1.65 -1.1 -1.15 -1.05 Q-1.25 -0.95 -1.35 -0.85 L-1.65 -0.9 -1.75 -0.9 -1.85 -0.95 Q-2.0 -0.95 -2.1 -0.85" fill="#fefcff" fill-rule="evenodd" stroke="none"/>
    <path d="M-2.2 -0.7 L-2.15 -0.75 Q-2.1 -0.7 -2.0 -0.7 L-1.9 -0.7 -1.8 -0.7 -1.25 -0.5 -1.25 -0.45 -1.45 -0.45 -1.75 -0.65 -2.1 -0.6 -2.2 -0.55 -2.2 -0.7" fill="#cb8be1" fill-rule="evenodd" stroke="none"/>
    <path d="M-1.45 -0.45 L-1.35 -0.4 -1.45 -0.35 -1.65 -0.4 -1.85 -0.5 -2.2 -0.55 -2.2 -0.55 -2.1 -0.6 -1.45 -0.45 M-1.35 -0.4 L-1.35 -0.4" fill="#aa60cc" fill-rule="evenodd" stroke="none"/>
    <path d="M-2.2 0.05 L-2.2 0.0 -2.05 -0.1 -2.0 -0.25 -2.05 -0.25 -2.1 -0.25 -2.05 -0.35 -1.95 -0.45 -1.85 -0.45 Q-1.8 -0.4 -1.85 -0.35 L-1.7 -0.3 -1.6 -0.3 -1.75 -0.2 -2.0 -0.1 -2.2 0.05" fill="#8441bd" fill-rule="evenodd" stroke="none"/>
    <path d="M-2.2 0.0 L-2.2 -0.55 -1.85 -0.5 -1.65 -0.4 -1.45 -0.35 -1.45 -0.35 -1.6 -0.3 -1.7 -0.3 -1.85 -0.35 Q-1.8 -0.4 -1.85 -0.45 L-1.95 -0.45 -2.05 -0.35 -2.1 -0.25 -2.05 -0.25 -2.0 -0.25 -2.05 -0.1 -2.2 0.0" fill="#9248c6" fill-rule="evenodd" stroke="none"/>
    <path d="M0.0 -2.2 Q-0.05 -2.15 -0.15 -2.1 L-0.3 -2.05 -0.5 -2.1 -0.65 -2.1 -0.65 -2.2 0.0 -2.2" fill="#5e58ce" fill-rule="evenodd" stroke="none"/>
    <path d="M-0.3 -2.05 L-0.35 -2.0 Q-0.55 -2.0 -0.75 -1.9 L-1.1 -1.65 -1.1 -1.7 -1.05 -1.75 -0.95 -1.8 -0.8 -1.95 -0.65 -2.1 -0.5 -2.1 -0.3 -2.05" fill="#6862e0" fill-rule="evenodd" stroke="none"/>
    <path d="M-0.35 -1.95 L-0.05 -1.85 -0.25 -1.85 -0.4 -1.85 -0.5 -1.8 -0.5 -1.7 -0.55 -1.55 -0.6 -1.5 -0.7 -1.55 -0.8 -1.55 -1.0 -1.65 -0.85 -1.75 -0.65 -1.85 -0.5 -1.9 -0.35 -1.95" fill="#9b60dd" fill-rule="evenodd" stroke="none"/>
    <path d="M-0.35 -2.0 L-0.35 -1.95 -0.5 -1.9 -0.65 -1.85 -0.85 -1.75 -1.0 -1.65 -1.05 -1.65 -1.1 -1.65 -0.75 -1.9 Q-0.55 -2.0 -0.35 -2.0 L-0.35 -2.0 M-1.1 -1.65 L-1.1 -1.65" fill="#8163e2" fill-rule="evenodd" stroke="none"/>
    <path d="M-1.3 -2.2 L-0.65 -2.2 -0.65 -2.1 -0.8 -1.95 -0.95 -1.8 -1.05 -1.75 -1.1 -1.7 -1.35 -1.7 -1.55 -1.75 Q-1.55 -1.9 -1.45 -1.9 -1.35 -1.9 -1.35 -2.0 L-1.35 -2.1 -1.3 -2.2" fill="#5156e1" fill-rule="evenodd" stroke="none"/>
    <path d="M-0.05 -1.85 L0.0 -1.85 0.0 -1.75 -0.05 -1.7 -0.2 -1.6 -0.3 -1.45 -0.55 -1.45 -0.6 -1.4 -0.65 -1.45 -0.6 -1.5 -0.55 -1.55 -0.5 -1.7 -0.5 -1.8 -0.4 -1.85 -0.25 -1.85 -0.05 -1.85" fill="#ac5dd7" fill-rule="evenodd" stroke="none"/>
    <path d="M-2.05 -1.4 L-2.0 -1.45 -1.95 -1.45 -1.75 -1.4 -1.55 -1.4 -1.3 -1.45 -1.0 -1.45 -0.9 -1.45 -0.8 -1.5 -0.85 -1.55 -0.9 -1.55 -1.05 -1.65 -1.0 -1.65 -0.8 -1.55 -0.7 -1.55 -0.6 -1.5 -0.65 -1.45 -1.1 -1.4 -1.5 -1.4 -1.75 -1.4 -2.05 -1.4" fill="#955cc6" fill-rule="evenodd" stroke="none"/>
    <path d="M-1.8 -2.2 L-1.3 -2.2 -1.35 -2.1 -1.35 -2.0 Q-1.35 -1.9 -1.45 -1.9 -1.55 -1.9 -1.55 -1.75 L-1.75 -1.8 Q-1.8 -1.85 -1.8 -1.95 L-1.8 -2.2" fill="#604fea" fill-rule="evenodd" stroke="none"/>
    <path d="M-1.1 -1.65 L-1.15 -1.65 -1.35 -1.6 -1.5 -1.6 -1.7 -1.6 -1.9 -1.6 -1.8 -1.7 -1.75 -1.8 -1.55 -1.75 -1.35 -1.7 -1.1 -1.7 -1.1 -1.65 -1.1 -1.65" fill="#5f4ed0" fill-rule="evenodd" stroke="none"/>
    <path d="M-1.15 -1.65 Q-1.25 -1.5 -1.35 -1.45 L-1.65 -1.45 -1.8 -1.45 Q-1.9 -1.5 -1.9 -1.6 L-1.7 -1.6 -1.5 -1.6 -1.35 -1.6 -1.15 -1.65 M-1.9 -1.6 L-1.9 -1.6" fill="#6a4abf" fill-rule="evenodd" stroke="none"/>
    <path d="M-2.2 0.45 L-2.2 0.25 -2.0 0.1 -1.85 0.0 -1.65 -0.15 -1.5 -0.2 -1.5 -0.15 -1.6 -0.1 -1.6 0.05 -1.55 0.05 -1.5 0.1 Q-1.45 0.05 -1.4 0.15 L-1.35 0.2 -1.2 0.2 -1.0 0.25 -0.95 0.2 -0.85 0.2 -1.0 0.35 -1.25 0.3 -1.5 0.3 -1.55 0.35 -1.6 0.45 -1.8 0.45 -2.05 0.45 -2.0 0.4 -2.0 0.3 -2.1 0.35 -2.2 0.45" fill="#682784" fill-rule="evenodd" stroke="none"/>
    <path d="M-2.2 0.65 L-2.2 0.45 -2.1 0.35 -2.0 0.3 -2.0 0.4 -2.05 0.45 -1.8 0.45 -1.6 0.45 -1.55 0.35 -1.5 0.3 -1.25 0.3 -1.0 0.35 -0.85 0.2 -0.95 0.2 -1.0 0.25 -1.2 0.2 -1.35 0.2 -1.4 0.15 Q-1.45 0.05 -1.5 0.1 L-1.55 0.05 -1.6 0.05 -1.6 -0.1 -1.5 -0.15 -1.5 -0.2 -1.65 -0.15 -1.85 0.0 -2.0 0.1 -2.2 0.25 -2.2 0.2 -2.05 0.1 -2.0 0.0 -1.8 -0.15 -1.5 -0.25 -1.25 -0.2 -1.25 -0.15 Q-1.3 -0.1 -1.25 -0.1 L-1.2 -0.05 -1.15 0.05 -1.0 0.1 -0.8 0.1 Q-0.75 0.15 -0.8 0.2 L-0.9 0.3 -1.0 0.4 -1.15 0.5 -1.4 0.45 -1.7 0.45 -1.85 0.45 -2.0 0.5 -2.05 0.55 -2.1 0.6 -2.15 0.65 -2.2 0.65 M-2.05 0.55 L-2.05 0.55" fill="#6f2b8b" fill-rule="evenodd" stroke="none"/>
    <path d="M-2.2 0.2 L-2.2 0.05 -2.0 -0.1 -1.75 -0.2 -1.7 -0.2 -1.8 -0.15 -2.0 0.0 -2.05 0.1 -2.2 0.2" fill="#713aa7" fill-rule="evenodd" stroke="none"/>
    <path d="M0.0 0.05 L-0.15 0.15 -0.45 0.35 -0.75 0.55 -0.85 0.55 -0.95 0.55 -0.95 0.45 -0.9 0.4 -1.0 0.45 -1.1 0.5 -1.55 0.5 -2.0 0.5 -1.85 0.45 -1.7 0.45 -1.4 0.45 -1.15 0.5 -1.0 0.4 -0.9 0.3 -0.8 0.2 Q-0.75 0.15 -0.8 0.1 L-1.0 0.1 -1.15 0.05 -1.2 -0.05 -1.25 -0.1 Q-1.3 -0.1 -1.25 -0.15 L-1.25 -0.2 -1.5 -0.25 -1.8 -0.15 -1.7 -0.2 -1.5 -0.25 -1.3 -0.3 -0.65 -0.1 -0.65 0.0 -0.7 0.1 -0.55 0.0 -0.45 -0.1 -0.2 -0.1 0.0 -0.05 Q0.05 0.0 0.0 0.05 M-0.15 0.15 L-0.05 0.1 Q-0.05 0.05 -0.1 0.0 L-0.25 -0.05 -0.45 -0.05 -0.7 0.2 -0.9 0.45 -0.9 0.55 -0.8 0.5 Q-0.75 0.45 -0.5 0.35 L-0.15 0.15" fill="#7d3095" fill-rule="evenodd" stroke="none"/>
    <path d="M-2.1 -0.6 L-1.75 -0.65 -1.45 -0.45 -2.1 -0.6" fill="#b67dd2" fill-rule="evenodd" stroke="none"/>
    <path d="M-0.15 0.15 L-0.5 0.35 Q-0.75 0.45 -0.8 0.5 L-0.9 0.55 -0.9 0.45 -0.7 0.2 -0.45 -0.05 -0.25 -0.05 -0.1 0.0 Q-0.05 0.05 -0.05 0.1 L-0.15 0.15" fill="#68207d" fill-rule="evenodd" stroke="none"/>
    <path d="M-0.75 0.55 L-0.75 0.6 -0.85 0.6 -0.9 0.6 -1.0 0.55 -1.5 0.55 -2.05 0.55 -2.0 0.5 -1.55 0.5 -1.1 0.5 -1.0 0.45 -0.9 0.4 -0.95 0.45 -0.95 0.55 -0.85 0.55 -0.75 0.55" fill="#8945a1" fill-rule="evenodd" stroke="none"/>
    <path d="M-0.75 0.6 L-0.85 0.65 -0.95 0.65 -1.05 0.55 -1.15 0.6 -1.25 0.6 -1.65 0.6 -2.05 0.55 -2.05 0.55 -1.5 0.55 -1.0 0.55 -0.9 0.6 -0.85 0.6 -0.75 0.6 -0.75 0.6" fill="#995daf" fill-rule="evenodd" stroke="none"/>
    <path d="M-0.9 0.7 L-0.95 0.75 -1.05 0.75 -1.2 0.65 -1.45 0.7 -1.65 0.7 -1.9 0.65 -2.15 0.65 -2.1 0.6 -1.95 0.65 -1.85 0.6 -1.65 0.65 -1.45 0.65 -1.1 0.6 -1.0 0.7 -0.9 0.7" fill="#b98bca" fill-rule="evenodd" stroke="none"/>
    <path d="M-0.95 0.75 L-0.95 0.75 -1.0 0.8 -1.1 0.8 Q-1.2 0.8 -1.2 0.75 L-1.7 0.75 -2.2 0.75 -2.2 0.65 -2.15 0.65 -1.9 0.65 -1.65 0.7 -1.45 0.7 -1.2 0.65 -1.05 0.75 -0.95 0.75" fill="#c9a5d7" fill-rule="evenodd" stroke="none"/>
    <path d="M-0.85 0.65 L-0.9 0.7 -1.0 0.7 -1.1 0.6 -1.45 0.65 -1.65 0.65 -1.85 0.6 -1.95 0.65 -2.1 0.6 -2.05 0.55 -1.65 0.6 -1.25 0.6 -1.15 0.6 -1.05 0.55 -0.95 0.65 -0.85 0.65" fill="#a974bc" fill-rule="evenodd" stroke="none"/>
    <path d="M-1.4 1.5 L-1.2 1.35 -1.0 1.2 -0.95 1.2 Q-0.95 1.2 -1.0 1.25 L-1.2 1.4 Q-1.35 1.5 -1.45 1.55 L-1.4 1.5" fill="#bc44d1" fill-rule="evenodd" stroke="none"/>
    <path d="M-0.4 0.8 L-0.2 0.65 -0.25 0.75 -0.25 0.75 -0.3 0.8 -0.35 0.8 -0.4 0.8" fill="#d779e4" fill-rule="evenodd" stroke="none"/>
    <path d="M-2.2 1.05 L-2.2 0.8 -1.85 0.85 -1.95 0.9 -2.05 0.95 -2.1 0.95 -2.1 1.0 -2.15 1.0 -2.2 1.05" fill="#f7e8fb" fill-rule="evenodd" stroke="none"/>
    <path d="M-2.2 0.8 L-2.2 0.75 -1.75 0.8 -1.3 0.8 -1.2 0.85 -1.05 0.85 -1.2 0.9 -1.3 1.0 -1.45 1.15 -1.65 1.3 -1.45 1.1 -1.35 1.05 -1.35 1.0 -1.3 0.95 -1.65 0.9 -1.85 0.95 -2.05 0.95 -1.95 0.9 -1.85 0.85 -2.2 0.8" fill="#eaccf0" fill-rule="evenodd" stroke="none"/>
    <path d="M-2.2 1.2 L-2.2 1.15 -1.7 1.1 -1.6 1.1 -1.6 1.2 -1.65 1.2 -1.65 1.15 -1.7 1.15 -1.95 1.15 -2.2 1.2" fill="#9551aa" fill-rule="evenodd" stroke="none"/>
    <path d="M-2.2 1.15 L-2.2 1.1 -1.9 1.05 -1.6 1.05 -1.55 1.1 -1.55 1.15 -1.6 1.2 -1.6 1.1 -1.7 1.1 -2.2 1.15" fill="#a76dbb" fill-rule="evenodd" stroke="none"/>
    <path d="M-2.2 1.2 L-2.2 1.2 -1.95 1.15 -1.7 1.15 -1.65 1.15 -1.65 1.2 -1.7 1.25 -1.75 1.3 -1.75 1.2 -1.95 1.2 -2.2 1.2" fill="#823598" fill-rule="evenodd" stroke="none"/>
    <path d="M-2.2 1.7 L-2.2 1.65 -1.95 1.5 -1.75 1.3 -1.7 1.25 -1.65 1.2 -1.6 1.2 -1.55 1.15 -1.45 1.05 -1.45 1.1 -1.65 1.3 -1.95 1.5 -2.2 1.7" fill="#de75e8" fill-rule="evenodd" stroke="none"/>
    <path d="M-2.2 1.1 L-2.2 1.05 -2.15 1.0 -1.85 1.0 -1.55 1.0 Q-1.5 0.95 -1.5 1.0 L-1.45 1.05 -1.55 1.15 -1.55 1.1 -1.6 1.05 -1.9 1.05 -2.2 1.1" fill="#b988cc" fill-rule="evenodd" stroke="none"/>
    <path d="M-1.45 1.05 L-1.5 1.0 Q-1.5 0.95 -1.55 1.0 L-1.85 1.0 -2.15 1.0 -2.1 1.0 -2.1 0.95 -1.75 0.95 -1.45 0.95 -1.35 1.05 -1.45 1.1 -1.45 1.05" fill="#cca1da" fill-rule="evenodd" stroke="none"/>
    <path d="M-1.35 1.05 L-1.45 0.95 -1.75 0.95 -2.1 0.95 -2.05 0.95 -1.85 0.95 -1.65 0.9 -1.3 0.95 -1.35 1.0 -1.35 1.05" fill="#ddb8e6" fill-rule="evenodd" stroke="none"/>
    <path d="M-2.2 1.65 L-2.2 1.2 -1.95 1.2 -1.75 1.2 -1.75 1.3 -1.95 1.5 -2.2 1.65" fill="#692180" fill-rule="evenodd" stroke="none"/>
    <path d="M-2.2 0.75 L-2.2 0.75 -1.7 0.75 -1.2 0.75 Q-1.2 0.8 -1.1 0.8 L-1.0 0.8 -1.05 0.85 -1.2 0.85 -1.3 0.8 -1.75 0.8 -2.2 0.75" fill="#d8bde1" fill-rule="evenodd" stroke="none"/>
    <path d="M-1.0 1.3 Q-1.3 1.5 -1.5 1.7 L-1.6 1.75 -1.65 1.8 -1.75 1.85 -1.8 1.9 -1.8 1.85 -1.75 1.75 -1.6 1.65 -1.45 1.55 Q-1.35 1.5 -1.2 1.4 L-1.0 1.25 -0.95 1.25 -1.0 1.3" fill="#8b29a4" fill-rule="evenodd" stroke="none"/>
    <path d="M-1.5 1.55 L-1.45 1.5 -1.4 1.5 -1.45 1.55 -1.6 1.65 -1.75 1.75 -1.95 1.95 -2.2 2.15 -2.2 2.05 -2.1 2.0 -1.95 1.9 -1.5 1.55" fill="#e45df7" fill-rule="evenodd" stroke="none"/>
    <path d="M-1.5 1.7 L-1.25 1.5 -1.0 1.35 -0.8 1.35 -0.3 1.45 0.0 1.5 -0.15 1.55 -0.3 1.6 Q-0.4 1.55 -0.55 1.6 L-0.8 1.65 -1.2 1.8 -1.6 1.85 -1.65 1.85 -1.65 1.8 -1.6 1.75 -1.5 1.7" fill="#601c74" fill-rule="evenodd" stroke="none"/>
    <path d="M-2.15 2.2 L-2.2 2.2 -2.2 2.15 -1.95 1.95 -1.75 1.75 -1.8 1.85 -1.8 1.9 -2.0 2.05 -2.15 2.2" fill="#992cb6" fill-rule="evenodd" stroke="none"/>
  </g>
</svg>
