<?xml version="1.0" encoding="UTF-8" standalone="no"?>
<svg xmlns:xlink="http://www.w3.org/1999/xlink" height="4.4px" width="4.4px" xmlns="http://www.w3.org/2000/svg">
  <g transform="matrix(1.0, 0.0, 0.0, 1.0, 2.2, 2.2)">
    <path d="M2.2 -2.0 L1.8 -2.2 2.2 -2.2 2.2 -2.0" fill="#fe8efe" fill-rule="evenodd" stroke="none"/>
    <path d="M0.9 -1.5 L0.85 -1.5 0.85 -1.6 0.9 -1.65 Q1.0 -1.65 1.0 -1.7 L1.05 -1.85 1.1 -1.9 1.05 -1.9 1.0 -1.95 1.05 -2.0 1.1 -2.1 1.15 -2.2 1.8 -2.2 2.2 -2.0 2.2 -1.95 Q1.95 -2.1 1.75 -2.1 L1.45 -2.1 Q1.3 -2.1 1.2 -2.0 1.2 -1.9 1.1 -1.75 L1.0 -1.55 Q0.95 -1.5 0.9 -1.5 M-0.8 -1.4 L-0.75 -1.35 -0.65 -1.3 -0.65 -1.25 -0.7 -1.25 -0.7 -1.1 -0.6 -1.05 -0.55 -1.0 Q-0.55 -0.95 -0.6 -1.0 L-0.8 -1.1 Q-0.85 -1.1 -0.85 -1.05 L-0.8 -1.05 Q-0.75 -1.0 -0.8 -1.0 L-0.9 -0.95 Q-0.95 -0.95 -1.0 -1.0 L-0.9 -1.05 Q-0.9 -1.05 -0.9 -1.1 L-0.95 -1.2 -0.95 -1.3 -0.9 -1.35 -0.8 -1.4" fill="#ffb4fe" fill-rule="evenodd" stroke="none"/>
    <path d="M0.95 -1.45 L1.0 -1.4 1.05 -1.35 1.1 -1.45 1.2 -1.55 1.25 -1.65 1.35 -1.8 1.4 -1.85 1.5 -1.9 1.7 -1.9 1.85 -1.9 2.05 -1.85 2.2 -1.7 2.2 -1.4 2.0 -1.55 1.75 -1.6 1.5 -1.55 1.35 -1.4 1.2 -1.0 Q1.2 -0.95 1.2 -0.9 L1.3 -0.8 1.3 -0.75 Q1.3 -0.7 1.3 -0.7 L1.4 -0.65 1.5 -0.55 1.95 -0.55 2.05 -0.5 2.0 -0.4 1.95 -0.35 1.85 -0.35 1.8 -0.35 1.75 -0.35 1.45 -0.4 Q1.3 -0.45 1.25 -0.6 L1.2 -0.7 1.1 -0.8 1.05 -0.9 1.0 -1.0 0.9 -1.05 0.8 -1.05 Q0.7 -1.1 0.75 -1.25 L0.8 -1.35 0.85 -1.45 0.85 -1.5 0.9 -1.5 0.95 -1.45 M0.4 -1.3 L0.6 -1.2 0.55 -1.05 0.45 -0.95 0.35 -0.95 Q0.3 -0.95 0.25 -1.0 0.25 -1.0 0.2 -1.05 L0.25 -1.15 0.3 -1.25 Q0.35 -1.25 0.4 -1.3" fill="#fffaff" fill-rule="evenodd" stroke="none"/>
    <path d="M2.2 -1.7 L2.05 -1.85 1.85 -1.9 1.7 -1.9 1.5 -1.9 1.4 -1.85 1.35 -1.8 1.25 -1.65 1.2 -1.55 1.1 -1.45 1.05 -1.35 1.0 -1.4 0.95 -1.45 Q1.0 -1.4 1.05 -1.5 L1.1 -1.55 1.15 -1.6 1.2 -1.8 1.3 -1.95 1.5 -2.0 1.75 -2.0 2.2 -1.85 2.2 -1.7" fill="#ffe5fe" fill-rule="evenodd" stroke="none"/>
    <path d="M0.95 -1.45 L0.9 -1.5 Q0.95 -1.5 1.0 -1.55 L1.1 -1.75 Q1.2 -1.9 1.2 -2.0 1.3 -2.1 1.45 -2.1 L1.75 -2.1 Q1.95 -2.1 2.2 -1.95 L2.2 -1.85 1.75 -2.0 1.5 -2.0 1.3 -1.95 1.2 -1.8 1.15 -1.6 1.1 -1.55 1.05 -1.5 Q1.0 -1.4 0.95 -1.45 M0.7 -0.35 Q0.75 -0.35 0.8 -0.35 L0.9 -0.35 1.0 -0.35 1.05 -0.25 1.05 -0.2 0.95 -0.2 0.9 -0.2 0.9 -0.25 0.8 -0.25 0.75 -0.3 0.7 -0.35 0.65 -0.35 0.7 -0.35" fill="#ffcdfe" fill-rule="evenodd" stroke="none"/>
    <path d="M0.85 -1.5 L0.85 -1.45 0.75 -1.35 0.65 -1.2 0.6 -1.3 0.5 -1.35 0.6 -1.35 0.7 -1.35 0.8 -1.45 0.75 -1.6 0.75 -1.65 0.85 -1.7 0.9 -1.75 0.9 -1.8 Q0.9 -1.9 0.9 -2.0 L1.0 -2.2 1.15 -2.2 1.1 -2.1 1.05 -2.0 1.0 -1.95 1.05 -1.9 1.1 -1.9 1.05 -1.85 1.0 -1.7 Q1.0 -1.65 0.9 -1.65 L0.85 -1.6 0.85 -1.5" fill="#fe98fe" fill-rule="evenodd" stroke="none"/>
    <path d="M0.8 -1.05 L0.9 -1.05 1.0 -1.0 1.05 -0.9 1.1 -0.8 1.2 -0.7 1.25 -0.6 Q1.3 -0.45 1.45 -0.4 L1.75 -0.35 1.8 -0.35 1.85 -0.35 1.95 -0.35 2.0 -0.4 2.05 -0.5 1.95 -0.55 1.5 -0.55 1.4 -0.65 1.3 -0.7 Q1.3 -0.7 1.3 -0.75 L1.3 -0.8 1.2 -0.9 Q1.2 -0.95 1.2 -1.0 L1.35 -1.4 1.5 -1.55 1.75 -1.6 2.0 -1.55 2.2 -1.4 2.2 -1.2 2.0 -1.45 Q1.9 -1.55 1.75 -1.55 1.55 -1.6 1.45 -1.4 1.3 -1.3 1.3 -1.1 1.25 -1.0 1.3 -0.9 1.3 -0.8 1.4 -0.8 L1.4 -0.75 1.45 -0.65 1.7 -0.6 Q1.8 -0.55 1.9 -0.6 L2.05 -0.8 2.2 -1.0 2.2 -0.35 2.1 -0.35 Q2.1 -0.35 2.05 -0.3 L2.0 -0.25 1.9 -0.3 1.75 -0.25 1.55 -0.3 1.45 -0.3 1.35 -0.35 Q1.25 -0.4 1.2 -0.45 L1.15 -0.55 1.1 -0.7 1.05 -0.7 0.95 -0.75 Q1.0 -0.8 1.0 -0.9 L0.85 -1.0 0.8 -1.05" fill="#ffe2fe" fill-rule="evenodd" stroke="none"/>
    <path d="M1.3 -1.1 L1.35 -1.2 1.4 -1.3 Q1.45 -1.4 1.5 -1.45 L1.7 -1.5 1.9 -1.5 2.05 -1.4 Q2.1 -1.35 2.1 -1.3 L1.9 -1.45 1.6 -1.45 1.45 -1.4 1.4 -1.25 1.4 -1.15 1.35 -1.1 Q1.3 -1.05 1.35 -0.95 L1.4 -0.8 Q1.3 -0.8 1.3 -0.9 1.25 -1.0 1.3 -1.1 M1.4 -0.8 L1.4 -0.8" fill="#f99dfe" fill-rule="evenodd" stroke="none"/>
    <path d="M2.1 -1.3 Q2.1 -1.35 2.05 -1.4 L1.9 -1.5 1.7 -1.5 1.5 -1.45 Q1.45 -1.4 1.4 -1.3 L1.35 -1.2 1.3 -1.1 Q1.3 -1.3 1.45 -1.4 1.55 -1.6 1.75 -1.55 1.9 -1.55 2.0 -1.45 L2.2 -1.2 2.2 -1.0 2.05 -0.8 1.9 -0.6 Q1.8 -0.55 1.7 -0.6 L1.45 -0.65 1.4 -0.75 1.4 -0.8 1.4 -0.8 1.55 -0.7 1.75 -0.65 Q1.75 -0.6 1.8 -0.6 L1.9 -0.65 2.0 -0.75 2.1 -0.95 2.15 -1.1 2.1 -1.3" fill="#febefe" fill-rule="evenodd" stroke="none"/>
    <path d="M1.35 -1.1 L1.4 -1.15 1.4 -1.25 Q1.45 -1.35 1.55 -1.4 L1.75 -1.45 Q1.9 -1.45 2.0 -1.35 2.1 -1.25 2.1 -1.1 L2.05 -0.95 1.95 -0.8 Q1.85 -0.7 1.7 -0.7 1.6 -0.75 1.45 -0.85 1.35 -0.95 1.35 -1.1 M2.0 -1.3 L1.8 -1.4 1.6 -1.4 1.5 -1.3 Q1.4 -1.15 1.4 -1.05 1.4 -0.9 1.55 -0.85 1.6 -0.75 1.7 -0.75 1.8 -0.75 1.85 -0.8 L2.0 -0.9 2.05 -1.05 Q2.1 -1.2 2.0 -1.3" fill="#c25dfe" fill-rule="evenodd" stroke="none"/>
    <path d="M1.4 -0.8 L1.35 -0.95 Q1.3 -1.05 1.35 -1.1 1.35 -0.95 1.45 -0.85 1.6 -0.75 1.7 -0.7 1.85 -0.7 1.95 -0.8 L2.05 -0.95 2.1 -1.1 Q2.1 -1.25 2.0 -1.35 1.9 -1.45 1.75 -1.45 L1.55 -1.4 Q1.45 -1.35 1.4 -1.25 L1.45 -1.4 1.6 -1.45 1.9 -1.45 2.1 -1.3 2.15 -1.1 2.1 -0.95 1.95 -0.75 Q1.85 -0.65 1.75 -0.65 L1.55 -0.7 1.4 -0.8" fill="#e479fe" fill-rule="evenodd" stroke="none"/>
    <path d="M1.55 -1.3 Q1.6 -1.4 1.75 -1.4 1.85 -1.35 1.95 -1.3 2.05 -1.2 2.0 -1.1 2.0 -0.95 1.95 -0.85 1.85 -0.8 1.75 -0.8 L1.55 -0.85 Q1.45 -0.9 1.45 -1.05 1.45 -1.2 1.55 -1.3 M1.8 -1.3 L1.7 -1.35 1.55 -1.2 Q1.45 -1.15 1.5 -1.05 1.5 -0.95 1.55 -0.9 1.6 -0.85 1.65 -0.85 L1.8 -0.85 Q1.85 -0.85 1.9 -0.9 1.95 -1.0 2.0 -1.1 2.0 -1.2 1.9 -1.25 L1.8 -1.3" fill="#7138fd" fill-rule="evenodd" stroke="none"/>
    <path d="M1.55 -1.3 Q1.45 -1.2 1.45 -1.05 1.45 -0.9 1.55 -0.85 L1.75 -0.8 Q1.85 -0.8 1.95 -0.85 2.0 -0.95 2.0 -1.1 2.05 -1.2 1.95 -1.3 1.85 -1.35 1.75 -1.4 1.6 -1.4 1.55 -1.3 M2.0 -1.3 Q2.1 -1.2 2.05 -1.05 L2.0 -0.9 1.85 -0.8 Q1.8 -0.75 1.7 -0.75 1.6 -0.75 1.55 -0.85 1.4 -0.9 1.4 -1.05 1.4 -1.15 1.5 -1.3 L1.6 -1.4 1.8 -1.4 2.0 -1.3" fill="#9947fe" fill-rule="evenodd" stroke="none"/>
    <path d="M1.8 -1.3 L1.9 -1.25 Q2.0 -1.2 2.0 -1.1 1.95 -1.0 1.9 -0.9 1.85 -0.85 1.8 -0.85 L1.65 -0.85 Q1.6 -0.85 1.55 -0.9 1.5 -0.95 1.5 -1.05 1.45 -1.15 1.55 -1.2 L1.7 -1.35 1.8 -1.3 M1.85 -1.25 Q1.8 -1.3 1.7 -1.25 L1.6 -1.2 1.55 -1.1 Q1.55 -1.05 1.55 -1.0 L1.65 -0.9 1.85 -0.9 Q1.95 -1.0 1.9 -1.1 1.95 -1.2 1.85 -1.25" fill="#522cee" fill-rule="evenodd" stroke="none"/>
    <path d="M0.85 -2.2 L1.0 -2.2 0.9 -2.0 Q0.9 -1.9 0.9 -1.8 L0.9 -1.75 0.85 -1.7 0.75 -1.65 0.75 -1.6 0.8 -1.45 0.7 -1.35 0.6 -1.35 0.5 -1.35 0.4 -1.3 0.3 -1.25 Q0.2 -1.25 0.2 -1.15 L0.2 -1.0 0.15 -1.05 0.15 -1.1 0.15 -1.15 Q0.2 -1.25 0.3 -1.35 L0.55 -1.4 0.6 -1.5 0.65 -1.65 0.75 -1.7 0.8 -1.8 0.75 -1.85 Q0.7 -1.9 0.75 -1.95 L0.8 -2.05 0.85 -2.2" fill="#fe7dfe" fill-rule="evenodd" stroke="none"/>
    <path d="M0.65 -2.2 L0.6 -2.05 0.5 -1.95 Q0.45 -1.9 0.5 -1.85 L0.5 -1.8 0.45 -1.75 0.4 -1.7 0.35 -1.55 Q0.35 -1.45 0.3 -1.45 L0.15 -1.25 Q0.05 -1.15 0.1 -1.05 0.1 -0.95 0.2 -0.85 L0.3 -0.8 0.35 -0.7 0.35 -0.6 0.4 -0.5 0.25 -0.55 Q0.2 -0.6 0.2 -0.65 L-0.05 -0.75 -0.1 -0.85 -0.05 -0.9 Q0.0 -0.95 0.0 -0.95 0.05 -0.95 0.05 -1.0 L0.05 -1.15 0.2 -1.35 Q0.3 -1.5 0.25 -1.65 L0.35 -1.75 Q0.45 -1.85 0.4 -1.9 0.5 -2.0 0.55 -2.2 L0.65 -2.2" fill="#b83dfe" fill-rule="evenodd" stroke="none"/>
    <path d="M0.65 -2.2 L0.75 -2.2 0.65 -2.05 0.6 -1.9 0.6 -1.8 0.55 -1.65 0.5 -1.6 0.5 -1.5 0.4 -1.4 0.25 -1.3 Q0.15 -1.25 0.15 -1.15 L0.15 -1.1 0.2 -0.95 0.25 -0.85 0.55 -0.75 0.55 -0.45 0.45 -0.45 0.35 -0.4 0.3 -0.4 0.25 -0.4 Q0.2 -0.4 0.2 -0.45 L0.25 -0.5 0.1 -0.65 0.05 -0.65 -0.05 -0.7 -0.05 -0.75 0.2 -0.65 Q0.2 -0.6 0.25 -0.55 L0.4 -0.5 0.35 -0.6 0.35 -0.7 0.3 -0.8 0.2 -0.85 Q0.1 -0.95 0.1 -1.05 0.05 -1.15 0.15 -1.25 L0.3 -1.45 Q0.35 -1.45 0.35 -1.55 L0.4 -1.7 0.45 -1.75 0.5 -1.8 0.5 -1.85 Q0.45 -1.9 0.5 -1.95 L0.6 -2.05 0.65 -2.2 M-0.05 -0.7 L-0.05 -0.7" fill="#dd4ffe" fill-rule="evenodd" stroke="none"/>
    <path d="M0.15 -1.15 Q0.15 -1.25 0.25 -1.3 L0.4 -1.4 0.5 -1.5 0.5 -1.6 0.55 -1.65 0.6 -1.8 0.6 -1.9 0.65 -2.05 0.75 -2.2 0.85 -2.2 0.8 -2.05 0.75 -1.95 Q0.7 -1.9 0.75 -1.85 L0.8 -1.8 0.75 -1.7 0.65 -1.65 0.6 -1.5 0.55 -1.4 0.3 -1.35 Q0.2 -1.25 0.15 -1.15" fill="#f562fe" fill-rule="evenodd" stroke="none"/>
    <path d="M0.45 -2.2 L0.5 -2.2 0.4 -2.0 0.3 -1.9 0.3 -1.8 0.25 -1.75 0.2 -1.7 0.15 -1.6 0.15 -1.45 Q0.15 -1.3 0.05 -1.25 L-0.05 -1.3 -0.15 -1.25 -0.25 -1.4 -0.35 -1.55 -0.3 -1.65 -0.35 -1.7 -0.45 -1.85 -0.6 -1.95 -0.5 -2.0 -0.4 -1.9 -0.25 -1.75 -0.25 -1.7 -0.2 -1.6 -0.15 -1.55 -0.15 -1.5 Q-0.1 -1.4 -0.05 -1.45 L0.0 -1.45 0.05 -1.45 0.05 -1.5 Q0.05 -1.6 0.1 -1.65 L0.2 -1.8 0.2 -1.9 0.3 -2.0 0.4 -2.1 0.45 -2.2" fill="#8330fe" fill-rule="evenodd" stroke="none"/>
    <path d="M0.45 -2.2 L0.4 -2.1 0.3 -2.0 0.2 -1.9 0.2 -1.8 0.1 -1.65 Q0.05 -1.6 0.05 -1.5 L0.05 -1.45 0.0 -1.45 -0.05 -1.45 Q-0.1 -1.4 -0.15 -1.5 L-0.15 -1.55 -0.2 -1.6 -0.25 -1.7 -0.25 -1.75 -0.4 -1.9 -0.5 -2.0 -0.6 -2.1 -0.7 -2.2 -0.6 -2.2 -0.55 -2.15 -0.45 -2.05 Q-0.4 -2.0 -0.35 -2.0 L-0.15 -1.95 -0.1 -1.95 0.0 -2.0 Q0.1 -1.95 0.15 -2.05 L0.3 -2.2 0.45 -2.2 M-0.05 -1.95 Q-0.1 -1.95 -0.05 -1.9 -0.05 -1.85 0.0 -1.85 L0.05 -1.9 0.05 -1.95 0.0 -1.95 -0.05 -1.95" fill="#6c2fff" fill-rule="evenodd" stroke="none"/>
    <path d="M0.05 -1.95 L0.05 -1.9 0.0 -1.85 Q-0.05 -1.85 -0.05 -1.9 -0.1 -1.95 -0.05 -1.95 L-0.05 -1.9 0.0 -1.9 0.05 -1.9 0.05 -1.95" fill="#ce65ff" fill-rule="evenodd" stroke="none"/>
    <path d="M0.05 -1.95 L0.05 -1.9 0.0 -1.9 -0.05 -1.9 -0.05 -1.95 0.0 -1.95 0.05 -1.95 M0.6 1.8 L0.65 1.8 0.7 1.8 0.65 1.85 0.6 1.8" fill="#ffe7fe" fill-rule="evenodd" stroke="none"/>
    <path d="M0.55 -2.2 Q0.5 -2.0 0.4 -1.9 0.45 -1.85 0.35 -1.75 L0.25 -1.65 Q0.3 -1.5 0.2 -1.35 L0.05 -1.15 0.05 -1.0 Q0.05 -0.95 0.0 -0.95 L-0.05 -1.0 -0.1 -1.0 -0.15 -1.05 -0.15 -1.15 -0.2 -1.25 Q-0.25 -1.25 -0.3 -1.35 L-0.35 -1.55 Q-0.4 -1.75 -0.6 -1.9 L-0.6 -2.0 -0.6 -1.95 -0.45 -1.85 -0.35 -1.7 -0.3 -1.65 -0.35 -1.55 -0.25 -1.4 -0.15 -1.25 -0.05 -1.3 0.05 -1.25 Q0.15 -1.3 0.15 -1.45 L0.15 -1.6 0.2 -1.7 0.25 -1.75 0.3 -1.8 0.3 -1.9 0.4 -2.0 0.5 -2.2 0.55 -2.2" fill="#9b36fe" fill-rule="evenodd" stroke="none"/>
    <path d="M0.3 -2.2 L0.15 -2.05 Q0.1 -1.95 0.0 -2.0 L-0.1 -1.95 -0.15 -1.95 -0.35 -2.0 Q-0.4 -2.0 -0.45 -2.05 L-0.55 -2.15 -0.6 -2.2 0.3 -2.2" fill="#4f2bfc" fill-rule="evenodd" stroke="none"/>
    <path d="M0.85 -1.45 L0.8 -1.35 0.75 -1.25 Q0.7 -1.1 0.8 -1.05 L0.75 -1.1 0.7 -1.1 Q0.6 -1.1 0.65 -1.05 L0.65 -0.95 Q0.65 -1.0 0.6 -0.95 L0.5 -0.9 0.4 -0.9 0.3 -0.9 Q0.25 -0.9 0.25 -0.95 L0.2 -1.0 0.2 -1.15 Q0.2 -1.25 0.3 -1.25 L0.4 -1.3 0.5 -1.35 0.6 -1.3 0.65 -1.2 0.75 -1.35 0.85 -1.45 M2.2 -0.3 Q2.1 -0.35 2.05 -0.3 L2.0 -0.2 Q1.55 -0.2 1.25 -0.3 1.15 -0.4 1.1 -0.45 L1.0 -0.65 0.95 -0.8 0.9 -0.95 0.8 -1.05 0.85 -1.0 1.0 -0.9 Q1.0 -0.8 0.95 -0.75 L1.05 -0.7 1.1 -0.7 1.15 -0.55 1.2 -0.45 Q1.25 -0.4 1.35 -0.35 L1.45 -0.3 1.55 -0.3 1.75 -0.25 1.9 -0.3 2.0 -0.25 2.05 -0.3 Q2.1 -0.35 2.1 -0.35 L2.2 -0.35 2.2 -0.3 M0.4 -1.3 Q0.35 -1.25 0.3 -1.25 L0.25 -1.15 0.2 -1.05 Q0.25 -1.0 0.25 -1.0 0.3 -0.95 0.35 -0.95 L0.45 -0.95 0.55 -1.05 0.6 -1.2 0.4 -1.3" fill="#fec4fe" fill-rule="evenodd" stroke="none"/>
    <path d="M0.8 -1.05 L0.9 -0.95 0.95 -0.8 1.0 -0.65 1.1 -0.45 Q1.15 -0.4 1.25 -0.3 1.55 -0.2 2.0 -0.2 L2.05 -0.3 Q2.1 -0.35 2.2 -0.3 L2.2 -0.25 Q2.1 -0.25 2.0 -0.2 1.95 -0.15 1.85 -0.15 L1.7 -0.15 1.5 -0.2 1.25 -0.2 1.15 -0.2 1.05 -0.25 1.0 -0.35 0.9 -0.35 0.8 -0.35 Q0.75 -0.35 0.7 -0.35 L0.8 -0.35 0.9 -0.4 1.0 -0.35 1.05 -0.3 1.05 -0.4 1.0 -0.5 0.9 -0.75 0.8 -1.05" fill="#fea3fe" fill-rule="evenodd" stroke="none"/>
    <path d="M0.65 -0.95 L0.65 -1.05 Q0.6 -1.1 0.7 -1.1 L0.75 -0.95 0.7 -0.9 Q0.65 -0.9 0.65 -0.95 M1.25 2.2 L1.15 2.2 1.2 2.1 1.25 2.05 1.3 2.05 1.35 2.1 1.35 2.15 1.25 2.2" fill="#fff3fe" fill-rule="evenodd" stroke="none"/>
    <path d="M0.3 -0.9 L0.4 -0.9 0.5 -0.9 0.6 -0.95 Q0.65 -1.0 0.65 -0.95 0.65 -0.9 0.7 -0.9 L0.75 -0.95 0.7 -1.1 0.75 -1.1 0.8 -1.05 0.9 -0.75 1.0 -0.5 1.05 -0.4 1.05 -0.3 1.0 -0.35 0.9 -0.4 0.8 -0.35 0.7 -0.35 0.65 -0.35 Q0.65 -0.4 0.75 -0.4 L0.85 -0.5 0.85 -0.7 0.8 -0.75 0.75 -0.8 0.65 -0.85 0.55 -0.85 0.4 -0.85 0.3 -0.9 M0.65 -0.35 L0.65 -0.35" fill="#fe89fe" fill-rule="evenodd" stroke="none"/>
    <path d="M0.35 -0.4 L0.45 -0.45 0.55 -0.45 0.55 -0.75 0.25 -0.85 0.2 -0.95 0.15 -1.1 0.15 -1.05 0.2 -1.0 0.25 -0.95 Q0.25 -0.9 0.3 -0.9 L0.4 -0.85 0.55 -0.85 0.65 -0.85 0.75 -0.8 0.8 -0.75 0.85 -0.7 0.85 -0.5 0.75 -0.4 Q0.65 -0.4 0.65 -0.35 L0.6 -0.3 Q0.55 -0.3 0.55 -0.35 L0.5 -0.4 0.4 -0.35 0.35 -0.4" fill="#fc66fe" fill-rule="evenodd" stroke="none"/>
    <path d="M-0.05 -0.7 L0.05 -0.65 0.1 -0.65 0.25 -0.5 0.2 -0.45 Q0.2 -0.4 0.25 -0.4 L0.3 -0.4 0.35 -0.4 0.4 -0.35 0.35 -0.35 0.3 -0.3 0.25 -0.35 0.15 -0.35 0.15 -0.45 0.15 -0.55 0.05 -0.6 -0.05 -0.7" fill="#f79ffe" fill-rule="evenodd" stroke="none"/>
    <path d="M0.4 -0.35 L0.5 -0.4 0.55 -0.35 Q0.55 -0.3 0.6 -0.3 L0.65 -0.35 0.65 -0.35 0.7 -0.35 0.75 -0.3 0.8 -0.25 0.9 -0.25 0.9 -0.2 0.95 -0.2 1.05 -0.2 1.1 -0.05 1.1 0.0 1.05 0.0 0.85 -0.1 Q0.8 -0.1 0.75 -0.15 L0.65 -0.15 0.6 -0.1 0.55 -0.05 Q0.5 0.0 0.4 -0.05 L0.3 -0.2 0.3 -0.25 0.25 -0.2 0.1 -0.15 Q0.0 -0.15 -0.05 -0.2 -0.05 -0.35 -0.2 -0.4 L-0.45 -0.35 -0.7 -0.1 Q-0.85 0.0 -1.0 0.05 L-1.2 0.15 -1.45 0.15 -1.5 0.15 -1.2 0.1 Q-1.05 0.05 -0.95 0.0 L-0.85 -0.05 -0.75 -0.15 -0.5 -0.35 -0.25 -0.45 -0.35 -0.6 -0.4 -0.75 -0.3 -0.8 -0.3 -0.85 Q-0.25 -0.85 -0.3 -0.75 L-0.35 -0.65 Q-0.3 -0.6 -0.2 -0.65 L-0.1 -0.65 0.0 -0.6 0.05 -0.55 0.15 -0.45 0.15 -0.35 0.25 -0.35 0.3 -0.3 0.35 -0.35 0.4 -0.35 M-1.5 0.15 L-1.5 0.15" fill="#fff4fe" fill-rule="evenodd" stroke="none"/>
    <path d="M0.15 -0.45 L0.05 -0.55 0.0 -0.6 -0.1 -0.65 -0.2 -0.65 Q-0.3 -0.6 -0.35 -0.65 L-0.3 -0.75 Q-0.25 -0.85 -0.3 -0.85 L-0.4 -0.95 -0.3 -0.95 -0.2 -0.95 -0.2 -0.8 -0.15 -0.7 -0.1 -0.65 Q-0.1 -0.65 -0.05 -0.7 L0.05 -0.6 0.15 -0.55 0.15 -0.45" fill="#fecffe" fill-rule="evenodd" stroke="none"/>
    <path d="M-0.1 -0.05 L-0.1 -0.05 -0.05 -0.1 0.05 -0.1 0.15 -0.1 0.15 0.0 0.35 0.0 0.4 0.05 0.35 0.05 0.3 0.05 0.2 0.05 0.1 0.05 0.05 -0.05 -0.05 -0.05 -0.15 0.05 Q-0.2 0.15 -0.3 0.1 L-0.4 0.1 -0.4 0.2 -0.45 0.05 Q-0.4 0.05 -0.3 0.1 L-0.15 0.05 -0.1 -0.05" fill="#ce6dfe" fill-rule="evenodd" stroke="none"/>
    <path d="M0.35 0.0 L0.15 0.0 0.15 -0.1 0.05 -0.1 -0.05 -0.1 -0.1 -0.05 -0.1 -0.05 -0.1 -0.1 -0.05 -0.15 0.1 -0.1 0.3 -0.15 Q0.25 -0.1 0.25 -0.05 L0.35 0.0" fill="#e997fe" fill-rule="evenodd" stroke="none"/>
    <path d="M-0.05 -0.2 Q0.0 -0.15 0.1 -0.15 L0.25 -0.2 0.3 -0.25 0.3 -0.2 0.35 -0.05 Q0.4 0.05 0.45 0.0 L0.5 0.05 0.6 0.05 0.6 0.0 0.65 -0.05 0.8 -0.05 1.0 0.05 1.05 0.1 1.3 0.2 1.25 0.2 1.1 0.2 0.95 0.15 0.95 0.05 0.75 0.0 0.7 0.0 0.6 0.1 0.5 0.1 0.45 0.1 0.4 0.05 0.35 0.0 0.25 -0.05 Q0.25 -0.1 0.3 -0.15 L0.1 -0.1 -0.05 -0.15 -0.1 -0.1 -0.1 -0.05 -0.15 0.05 -0.2 0.05 Q-0.1 0.0 -0.1 -0.1 -0.1 -0.15 -0.2 -0.2 L-0.3 -0.2 -0.35 -0.15 -0.4 -0.05 -0.35 0.05 -0.4 0.0 -0.45 -0.05 Q-0.5 -0.1 -0.55 -0.05 L-0.7 0.05 -0.9 0.15 -0.95 0.2 -1.0 0.2 -1.05 0.15 Q-0.95 0.15 -0.85 0.1 L-0.65 -0.05 -0.45 -0.2 -0.2 -0.35 -0.1 -0.3 -0.05 -0.2" fill="#fdc5fe" fill-rule="evenodd" stroke="none"/>
    <path d="M0.3 -0.2 L0.4 -0.05 Q0.5 0.0 0.55 -0.05 L0.6 -0.1 0.65 -0.15 0.75 -0.15 Q0.8 -0.1 0.85 -0.1 L1.05 0.0 1.1 0.0 1.1 -0.05 1.15 0.0 1.25 0.05 1.3 0.1 1.3 0.15 1.3 0.2 1.05 0.1 1.0 0.05 0.8 -0.05 0.65 -0.05 0.6 0.0 0.6 0.05 0.5 0.05 0.45 0.0 Q0.4 0.05 0.35 -0.05 L0.3 -0.2" fill="#fedefe" fill-rule="evenodd" stroke="none"/>
    <path d="M1.85 -1.25 Q1.95 -1.2 1.9 -1.1 1.95 -1.0 1.85 -0.9 L1.65 -0.9 1.55 -1.0 Q1.55 -1.05 1.55 -1.1 L1.6 -1.2 1.7 -1.25 Q1.8 -1.3 1.85 -1.25 M1.85 -1.05 Q1.9 -1.1 1.85 -1.15 1.8 -1.25 1.7 -1.2 1.65 -1.2 1.6 -1.1 1.55 -1.05 1.65 -1.0 1.7 -0.95 1.75 -0.95 L1.85 -1.05" fill="#3d23ce" fill-rule="evenodd" stroke="none"/>
    <path d="M1.85 -1.05 L1.75 -0.95 Q1.7 -0.95 1.65 -1.0 1.55 -1.05 1.6 -1.1 1.65 -1.2 1.7 -1.2 1.8 -1.25 1.85 -1.15 1.9 -1.1 1.85 -1.05" fill="#2f1ca8" fill-rule="evenodd" stroke="none"/>
    <path d="M2.1 -0.95 L2.0 -0.75 1.9 -0.65 1.8 -0.6 Q1.75 -0.6 1.75 -0.65 1.85 -0.65 1.95 -0.75 L2.1 -0.95" fill="#f999fe" fill-rule="evenodd" stroke="none"/>
    <path d="M1.05 -0.25 L1.15 -0.2 1.25 -0.2 1.5 -0.2 1.7 -0.15 1.85 -0.15 Q1.95 -0.15 2.0 -0.2 2.1 -0.25 2.2 -0.25 L2.2 -0.2 2.05 -0.15 1.95 -0.1 1.85 -0.1 1.75 -0.1 Q1.65 -0.05 1.5 -0.1 L1.3 -0.15 1.25 -0.1 1.25 -0.05 Q1.2 0.0 1.25 0.05 L1.15 0.0 1.1 -0.05 1.05 -0.2 1.05 -0.25" fill="#ff86fe" fill-rule="evenodd" stroke="none"/>
    <path d="M1.3 0.15 L1.3 0.1 1.25 0.05 Q1.2 0.0 1.25 -0.05 L1.25 -0.1 1.3 -0.15 1.5 -0.1 Q1.65 -0.05 1.75 -0.1 L1.85 -0.1 1.95 -0.1 2.05 -0.15 2.2 -0.2 2.2 -0.05 Q2.15 -0.05 2.05 0.0 L1.85 0.05 1.85 0.15 1.8 0.25 1.7 0.3 Q1.6 0.25 1.6 0.2 1.6 0.1 1.5 0.1 L1.35 0.1 1.35 0.15 1.3 0.15 M1.8 0.25 Q1.85 0.15 1.8 0.1 L1.65 0.05 Q1.6 0.1 1.6 0.15 L1.65 0.2 1.7 0.25 1.8 0.25" fill="#fd6cfe" fill-rule="evenodd" stroke="none"/>
    <path d="M1.3 0.2 L1.3 0.15 1.35 0.15 1.35 0.1 1.5 0.1 Q1.6 0.1 1.6 0.2 1.6 0.25 1.7 0.3 L1.8 0.25 1.85 0.15 1.85 0.05 2.05 0.0 Q2.15 -0.05 2.2 -0.05 L2.2 0.05 1.85 0.3 1.6 0.3 1.5 0.25 1.35 0.25 1.3 0.25 1.3 0.3 1.3 0.2" fill="#e24cfe" fill-rule="evenodd" stroke="none"/>
    <path d="M2.2 0.25 L2.2 0.55 2.05 0.5 1.9 0.4 2.05 0.3 2.1 0.3 2.2 0.25" fill="#561fff" fill-rule="evenodd" stroke="none"/>
    <path d="M2.2 0.15 L2.2 0.25 2.1 0.3 2.05 0.3 1.9 0.4 1.85 0.45 1.7 0.45 1.55 0.4 Q1.55 0.45 1.55 0.45 L1.55 0.5 1.45 0.5 1.4 0.45 1.35 0.4 1.3 0.35 1.55 0.35 1.7 0.35 1.85 0.35 2.0 0.25 2.2 0.15" fill="#802cfe" fill-rule="evenodd" stroke="none"/>
    <path d="M-0.4 0.2 L-0.4 0.1 -0.3 0.1 Q-0.2 0.15 -0.15 0.05 L-0.05 -0.05 0.05 -0.05 0.1 0.05 0.2 0.1 0.35 0.1 0.55 0.15 0.6 0.15 0.65 0.2 0.65 0.3 0.7 0.35 0.85 0.4 1.0 0.55 1.2 0.6 1.3 0.6 1.4 0.7 Q1.45 0.65 1.5 0.65 L1.65 0.65 1.7 0.65 1.8 0.6 1.9 0.55 1.85 0.45 1.9 0.4 2.05 0.5 2.2 0.55 2.2 0.6 Q2.0 0.55 1.9 0.65 L1.7 0.75 1.5 0.75 1.45 0.75 1.4 0.8 1.35 0.8 Q1.35 0.7 1.25 0.7 L1.0 0.6 0.95 0.55 Q0.8 0.6 0.85 0.5 0.9 0.45 0.8 0.45 L0.7 0.4 Q0.6 0.45 0.6 0.35 L0.6 0.25 0.55 0.2 0.4 0.15 0.25 0.15 0.1 0.1 0.05 0.05 Q0.05 0.0 0.0 0.0 L-0.1 0.05 -0.15 0.15 -0.3 0.15 -0.45 0.2 -0.4 0.2 M1.4 0.7 Q1.35 0.7 1.35 0.75 L1.4 0.75 1.45 0.75 1.4 0.7" fill="#9345fe" fill-rule="evenodd" stroke="none"/>
    <path d="M2.2 0.05 L2.2 0.15 2.0 0.25 1.85 0.35 1.7 0.35 1.55 0.35 1.3 0.35 1.3 0.3 1.3 0.25 1.35 0.25 1.5 0.25 1.6 0.3 1.85 0.3 2.2 0.05" fill="#b238fe" fill-rule="evenodd" stroke="none"/>
    <path d="M2.2 0.65 L2.2 1.0 2.05 1.05 1.85 0.95 Q1.85 0.95 1.8 0.9 L1.75 0.85 Q1.75 0.8 1.85 0.8 1.95 0.8 1.95 0.75 2.0 0.7 2.05 0.65 L2.2 0.65" fill="#6933ed" fill-rule="evenodd" stroke="none"/>
    <path d="M2.2 0.6 L2.2 0.65 2.05 0.65 Q2.0 0.7 1.95 0.75 1.95 0.8 1.85 0.8 1.75 0.8 1.75 0.85 L1.8 0.9 Q1.85 0.95 1.85 0.95 L1.65 1.0 1.5 0.95 1.3 1.0 1.25 1.0 Q1.2 0.9 1.05 0.85 0.9 0.85 0.85 1.0 L0.75 1.05 0.85 0.9 Q0.95 0.8 1.0 0.8 L1.1 0.8 1.1 0.75 1.0 0.7 0.95 0.6 0.85 0.6 Q0.8 0.6 0.75 0.55 0.75 0.5 0.65 0.55 L0.6 0.55 0.5 0.55 Q0.45 0.5 0.5 0.4 L0.55 0.3 0.55 0.25 -0.05 0.15 -0.1 0.2 -0.2 0.25 Q-0.25 0.35 -0.35 0.35 L-0.4 0.4 -0.45 0.45 Q-0.4 0.4 -0.45 0.4 L-0.5 0.45 -0.5 0.4 -0.45 0.35 -0.45 0.2 -0.3 0.15 -0.15 0.15 -0.1 0.05 0.0 0.0 Q0.05 0.0 0.05 0.05 L0.1 0.1 0.25 0.15 0.4 0.15 0.55 0.2 0.6 0.25 0.6 0.35 Q0.6 0.45 0.7 0.4 L0.8 0.45 Q0.9 0.45 0.85 0.5 0.8 0.6 0.95 0.55 L1.0 0.6 1.25 0.7 Q1.35 0.7 1.35 0.8 L1.35 0.85 1.4 0.8 1.45 0.75 1.5 0.75 1.7 0.75 1.9 0.65 Q2.0 0.55 2.2 0.6" fill="#763dfc" fill-rule="evenodd" stroke="none"/>
    <path d="M2.2 1.0 L2.2 1.25 2.1 1.25 2.1 1.2 1.75 1.35 Q1.55 1.4 1.45 1.5 L1.35 1.7 Q1.3 1.8 1.2 1.8 L1.15 1.75 Q1.2 1.8 1.3 1.75 L1.35 1.65 1.4 1.5 1.45 1.4 Q1.45 1.35 1.5 1.35 L1.5 1.25 1.45 1.2 Q1.4 1.2 1.4 1.25 L1.3 1.3 1.25 1.3 1.3 1.15 1.25 1.0 1.3 1.0 1.5 0.95 1.65 1.0 1.85 0.95 2.05 1.05 2.2 1.0" fill="#7747ed" fill-rule="evenodd" stroke="none"/>
    <path d="M2.2 1.5 L2.2 1.9 2.05 1.85 1.9 1.75 Q1.85 1.75 1.8 1.7 L1.65 1.75 1.8 1.7 1.8 1.55 2.0 1.6 2.2 1.5" fill="#552dd1" fill-rule="evenodd" stroke="none"/>
    <path d="M2.2 1.9 L2.2 2.2 1.4 2.2 1.45 2.1 1.4 2.0 Q1.3 1.95 1.2 2.0 1.1 2.1 1.15 2.2 L0.85 2.2 Q0.85 2.1 0.8 2.1 0.8 2.1 0.75 2.15 L0.7 2.15 Q0.65 2.1 0.7 2.1 L0.7 2.0 0.7 1.9 0.75 1.85 0.75 1.8 0.75 1.75 0.7 1.75 0.6 1.7 0.6 1.65 0.55 1.55 Q0.55 1.5 0.55 1.5 L0.65 1.55 0.75 1.55 0.9 1.55 1.05 1.7 1.2 1.8 1.25 1.8 1.35 1.8 Q1.5 1.8 1.5 1.65 1.45 1.6 1.5 1.6 L1.6 1.65 1.6 1.75 1.55 1.8 1.6 1.75 1.65 1.75 1.8 1.7 Q1.85 1.75 1.9 1.75 L2.05 1.85 2.2 1.9 M0.8 1.65 Q0.75 1.65 0.8 1.7 0.8 1.75 0.85 1.7 L0.85 1.65 0.8 1.65 M1.45 1.9 L1.5 1.9 1.55 1.85 1.5 1.85 Q1.45 1.8 1.45 1.85 L1.45 1.9 M1.65 1.9 Q1.7 1.85 1.65 1.85 L1.6 1.9 1.65 1.9" fill="#3c1b85" fill-rule="evenodd" stroke="none"/>
    <path d="M2.2 1.25 L2.2 1.5 2.0 1.6 1.8 1.55 1.8 1.7 1.75 1.6 Q1.7 1.55 1.65 1.6 L1.6 1.7 1.6 1.75 1.6 1.65 1.6 1.65 1.5 1.55 Q1.45 1.55 1.45 1.6 L1.35 1.8 1.25 1.8 1.2 1.8 Q1.3 1.8 1.35 1.7 L1.45 1.5 Q1.55 1.4 1.75 1.35 L2.1 1.2 2.1 1.25 2.2 1.25" fill="#653cdf" fill-rule="evenodd" stroke="none"/>
    <path d="M1.8 0.25 L1.7 0.25 1.65 0.2 1.6 0.15 Q1.6 0.1 1.65 0.05 L1.8 0.1 Q1.85 0.15 1.8 0.25" fill="#ffeffe" fill-rule="evenodd" stroke="none"/>
    <path d="M1.55 0.5 L1.55 0.45 Q1.55 0.45 1.55 0.4 L1.7 0.45 1.85 0.45 1.9 0.55 1.8 0.6 1.7 0.65 1.65 0.65 1.6 0.55 1.55 0.5" fill="#5c24fe" fill-rule="evenodd" stroke="none"/>
    <path d="M-2.2 0.15 L-2.2 0.1 Q-1.9 0.3 -1.55 0.35 L-1.45 0.4 -1.35 0.4 -1.35 0.35 -1.3 0.4 -1.1 0.3 -0.85 0.2 -0.8 0.2 -0.8 0.3 -0.9 0.35 -0.95 0.35 -1.0 0.4 -1.05 0.4 -1.1 0.4 -1.25 0.4 -1.3 0.45 -1.35 0.45 -1.55 0.4 -1.7 0.45 -1.85 0.35 -1.95 0.35 -2.05 0.25 -2.2 0.15 M1.4 0.45 L1.45 0.5 1.55 0.5 1.6 0.55 Q1.55 0.6 1.45 0.6 L1.2 0.5 1.1 0.5 Q0.95 0.45 0.9 0.4 L0.75 0.35 0.65 0.25 0.65 0.15 0.7 0.15 0.7 0.25 Q0.8 0.35 1.0 0.4 L1.15 0.4 1.3 0.45 1.35 0.5 1.4 0.45 M-1.1 0.4 L-1.0 0.4 -1.0 0.35 -1.05 0.35 -1.1 0.4" fill="#b859fe" fill-rule="evenodd" stroke="none"/>
    <path d="M1.3 0.3 L1.3 0.35 1.05 0.3 0.8 0.2 Q0.8 0.15 0.7 0.1 L0.6 0.1 0.5 0.1 0.6 0.1 0.7 0.05 0.8 0.1 Q0.9 0.25 1.2 0.3 L1.25 0.25 1.25 0.2 1.3 0.2 1.3 0.3" fill="#eb7efe" fill-rule="evenodd" stroke="none"/>
    <path d="M1.25 0.2 L1.25 0.25 1.2 0.3 Q0.9 0.25 0.8 0.1 L0.7 0.05 0.6 0.1 0.7 0.0 0.75 0.0 0.95 0.05 0.95 0.15 1.1 0.2 1.25 0.2" fill="#fca2fe" fill-rule="evenodd" stroke="none"/>
    <path d="M1.65 0.65 L1.5 0.65 Q1.45 0.65 1.4 0.7 L1.3 0.6 1.2 0.6 1.0 0.55 0.85 0.4 0.7 0.35 0.65 0.3 0.65 0.2 0.6 0.15 0.65 0.15 0.65 0.25 0.75 0.35 0.9 0.4 Q0.95 0.45 1.1 0.5 L1.2 0.5 1.45 0.6 Q1.55 0.6 1.6 0.55 L1.65 0.65" fill="#a450fe" fill-rule="evenodd" stroke="none"/>
    <path d="M1.3 0.35 L1.35 0.4 1.4 0.45 1.35 0.5 1.3 0.45 1.15 0.4 1.0 0.4 Q0.8 0.35 0.7 0.25 L0.7 0.15 0.65 0.15 0.55 0.15 0.5 0.1 0.4 0.05 0.45 0.1 0.5 0.1 0.6 0.1 0.7 0.1 Q0.8 0.15 0.8 0.2 L1.05 0.3 1.3 0.35" fill="#d268fe" fill-rule="evenodd" stroke="none"/>
    <path d="M1.4 0.7 L1.45 0.75 1.4 0.75 1.35 0.75 Q1.35 0.7 1.4 0.7" fill="#fbdaff" fill-rule="evenodd" stroke="none"/>
    <path d="M1.4 0.8 L1.35 0.85 1.35 0.8 1.4 0.8" fill="#f5cafe" fill-rule="evenodd" stroke="none"/>
    <path d="M-0.5 0.4 L-0.5 0.45 -0.45 0.45 -0.45 0.45 -0.4 0.4 -0.35 0.35 Q-0.25 0.35 -0.2 0.25 L-0.1 0.2 -0.05 0.15 0.55 0.25 0.55 0.3 0.5 0.4 Q0.45 0.5 0.5 0.55 L0.6 0.55 0.65 0.55 Q0.75 0.5 0.75 0.55 0.8 0.6 0.85 0.6 L0.95 0.6 1.0 0.7 1.1 0.75 1.1 0.8 1.0 0.8 Q0.95 0.8 0.85 0.9 L0.75 1.05 0.7 1.1 0.85 0.9 0.95 0.75 Q0.9 0.65 0.75 0.65 L0.45 0.65 0.45 0.8 Q0.4 0.9 0.3 0.85 0.25 0.85 0.25 0.75 0.25 0.7 0.3 0.65 L0.35 0.65 0.4 0.6 0.45 0.45 0.5 0.3 0.35 0.25 0.25 0.25 0.0 0.25 -0.15 0.35 -0.25 0.5 -0.25 0.55 -0.2 0.55 -0.15 0.55 -0.1 0.55 -0.15 0.55 -0.15 0.65 -0.2 0.65 -0.2 0.6 -0.3 0.55 -0.35 0.65 -0.3 0.55 -0.3 0.5 -0.4 0.5 -0.5 0.5 -0.6 0.5 -0.65 0.6 -0.55 0.7 Q-0.55 0.75 -0.6 0.75 -0.55 0.7 -0.6 0.7 -0.65 0.65 -0.65 0.7 -0.7 0.75 -0.6 0.8 -0.65 0.8 -0.7 0.75 L-0.75 0.7 -0.85 0.7 -0.85 0.7 -0.9 0.75 -0.95 0.8 -0.9 0.7 -0.85 0.65 -0.8 0.65 -0.85 0.6 -0.85 0.5 -0.9 0.5 -0.9 0.5 -0.8 0.45 -0.75 0.4 -0.7 0.4 -0.7 0.4 -0.75 0.3 -0.65 0.3 -0.6 0.3 -0.5 0.4 M0.3 0.85 Q0.4 0.9 0.4 0.8 L0.4 0.7 Q0.3 0.65 0.3 0.7 L0.25 0.75 0.3 0.8 0.3 0.85 M-0.8 0.55 L-0.8 0.6 -0.75 0.6 -0.75 0.65 -0.7 0.65 -0.7 0.6 Q-0.65 0.55 -0.7 0.55 -0.7 0.5 -0.75 0.5 L-0.8 0.55" fill="#6436fa" fill-rule="evenodd" stroke="none"/>
    <path d="M0.85 1.0 Q0.9 0.85 1.05 0.85 1.2 0.9 1.25 1.0 L1.3 1.15 1.25 1.3 1.3 1.3 1.4 1.25 1.3 1.35 1.15 1.4 Q1.1 1.4 1.1 1.45 L1.0 1.4 0.9 1.3 Q0.85 1.3 0.85 1.2 L0.8 1.1 0.8 1.05 0.85 1.0 M1.0 1.35 Q1.0 1.4 1.05 1.35 L1.1 1.35 1.15 1.3 1.2 1.25 Q1.25 1.25 1.25 1.15 L1.2 1.05 1.05 0.9 Q0.95 0.9 0.9 1.0 0.85 1.05 0.85 1.1 0.85 1.2 0.95 1.2 L0.95 1.3 1.0 1.35" fill="#a160fc" fill-rule="evenodd" stroke="none"/>
    <path d="M1.2 1.25 L1.2 1.05 1.25 1.15 Q1.25 1.25 1.2 1.25 M0.95 1.2 Q0.85 1.2 0.85 1.1 0.85 1.05 0.9 1.0 0.95 0.9 1.05 0.9 L1.2 1.05 Q1.2 0.95 1.05 0.95 0.95 0.95 0.9 1.0 0.85 1.05 0.9 1.1 L0.95 1.2" fill="#cf8afe" fill-rule="evenodd" stroke="none"/>
    <path d="M1.2 1.05 L1.2 1.25 1.1 1.25 1.1 1.35 1.05 1.35 Q1.0 1.4 1.0 1.35 L1.0 1.25 0.95 1.2 0.9 1.1 Q0.9 1.05 0.95 1.0 1.0 0.95 1.05 1.0 L1.2 1.05" fill="#fff9fe" fill-rule="evenodd" stroke="none"/>
    <path d="M1.2 1.05 L1.05 1.0 Q1.0 0.95 0.95 1.0 0.9 1.05 0.9 1.1 L0.95 1.2 0.9 1.1 Q0.85 1.05 0.9 1.0 0.95 0.95 1.05 0.95 1.2 0.95 1.2 1.05" fill="#f3bffe" fill-rule="evenodd" stroke="none"/>
    <path d="M0.1 0.05 L0.2 0.05 0.3 0.05 0.35 0.05 0.4 0.05 0.5 0.1 0.55 0.15 0.35 0.1 0.2 0.1 0.1 0.05" fill="#ab63fe" fill-rule="evenodd" stroke="none"/>
    <path d="M-0.1 0.55 L-0.15 0.55 -0.2 0.55 -0.25 0.55 -0.25 0.5 -0.15 0.35 0.0 0.25 0.25 0.25 0.35 0.25 0.5 0.3 0.45 0.45 0.4 0.6 0.35 0.65 0.3 0.65 Q0.3 0.6 0.25 0.55 L0.1 0.55 0.0 0.55 -0.05 0.55 -0.1 0.55 -0.1 0.55" fill="#4e2bef" fill-rule="evenodd" stroke="none"/>
    <path d="M0.1 0.55 L0.25 0.55 Q0.3 0.6 0.3 0.65 0.25 0.7 0.25 0.75 0.25 0.85 0.3 0.85 0.4 0.9 0.45 0.8 L0.45 0.65 0.75 0.65 Q0.9 0.65 0.95 0.75 L0.85 0.9 0.7 1.1 0.65 1.05 0.55 0.95 0.5 0.85 0.4 0.9 0.3 0.9 0.2 0.8 0.1 0.75 0.05 0.8 0.0 0.9 -0.2 0.8 -0.25 0.8 -0.25 0.75 Q-0.4 0.75 -0.4 0.65 L-0.5 0.7 -0.6 0.85 -0.6 0.9 Q-0.6 0.95 -0.6 1.0 L-0.7 1.0 -0.75 0.9 -0.7 0.95 -0.7 1.0 -0.6 0.95 Q-0.55 0.9 -0.6 0.9 L-0.65 0.85 Q-0.7 0.9 -0.7 0.8 L-0.7 0.75 Q-0.65 0.8 -0.6 0.8 L-0.6 0.75 Q-0.55 0.75 -0.55 0.7 L-0.65 0.6 -0.6 0.5 -0.5 0.5 -0.4 0.5 -0.3 0.5 -0.3 0.55 -0.35 0.65 -0.3 0.7 -0.25 0.7 -0.2 0.7 -0.1 0.75 Q-0.05 0.75 -0.05 0.7 -0.05 0.6 0.0 0.6 L0.05 0.6 0.1 0.55" fill="#4f2fe0" fill-rule="evenodd" stroke="none"/>
    <path d="M-0.05 0.55 L0.0 0.55 0.1 0.55 0.05 0.6 0.0 0.6 Q-0.05 0.6 -0.05 0.7 -0.05 0.75 -0.1 0.75 L-0.2 0.7 -0.15 0.7 -0.1 0.7 -0.1 0.65 -0.05 0.55" fill="#663def" fill-rule="evenodd" stroke="none"/>
    <path d="M0.3 0.85 L0.3 0.8 0.25 0.75 0.3 0.7 Q0.3 0.65 0.4 0.7 L0.4 0.8 Q0.4 0.9 0.3 0.85 M0.3 0.8 L0.4 0.8 0.4 0.75 0.3 0.7 Q0.25 0.75 0.3 0.8" fill="#c375fe" fill-rule="evenodd" stroke="none"/>
    <path d="M0.35 2.2 L0.3 2.2 0.35 2.1 0.35 2.05 0.25 2.0 Q0.2 2.0 0.2 1.95 L0.15 1.85 Q0.15 1.8 0.05 1.8 L-0.05 1.8 -0.15 1.85 -0.15 2.05 0.0 2.15 0.1 2.15 0.2 2.1 0.2 2.2 -0.25 2.2 -0.25 1.95 -0.3 1.9 -0.3 1.85 -0.25 1.85 -0.2 1.85 -0.1 1.75 0.0 1.65 0.0 1.7 0.2 1.8 0.25 1.7 0.3 1.6 0.35 1.55 0.4 1.5 0.4 1.4 Q0.35 1.3 0.3 1.35 L0.25 1.3 0.2 1.35 0.25 1.35 0.2 1.45 Q0.2 1.4 0.1 1.35 L-0.05 1.25 0.0 1.25 0.1 1.25 0.15 1.25 0.2 1.25 Q0.25 1.25 0.3 1.2 L0.3 1.15 0.45 0.95 0.3 0.9 0.4 0.9 0.5 0.85 0.55 0.95 0.65 1.05 0.6 1.1 0.55 1.15 0.55 1.3 0.45 1.35 Q0.4 1.4 0.4 1.45 0.45 1.5 0.5 1.5 0.5 1.5 0.5 1.55 L0.5 1.6 0.35 1.6 Q0.25 1.6 0.3 1.7 0.25 1.75 0.3 1.85 0.35 1.9 0.4 1.9 L0.5 1.85 0.55 1.8 0.55 1.95 0.45 2.0 0.4 2.1 0.35 2.2" fill="#4828b3" fill-rule="evenodd" stroke="none"/>
    <path d="M-0.6 1.0 Q-0.6 0.95 -0.6 0.9 L-0.6 0.85 -0.5 0.7 -0.4 0.65 Q-0.4 0.75 -0.25 0.75 L-0.25 0.8 -0.2 0.8 0.0 0.9 0.05 0.8 0.1 0.75 0.2 0.8 0.3 0.9 0.45 0.95 0.3 1.15 0.3 1.2 Q0.25 1.25 0.2 1.25 L0.15 1.25 0.1 1.25 0.0 1.25 -0.05 1.25 Q-0.1 1.35 -0.15 1.35 L-0.45 1.25 Q-0.5 1.3 -0.55 1.35 -0.5 1.4 -0.6 1.4 L-0.7 1.4 -0.8 1.35 -0.85 1.25 Q-0.9 1.2 -0.95 1.25 L-1.05 1.25 -1.1 1.2 Q-1.2 1.15 -1.35 1.1 -1.35 1.05 -1.45 1.05 L-1.6 1.05 Q-1.55 0.95 -1.4 1.0 L-1.15 0.95 -1.05 0.95 -0.95 0.95 -0.9 0.95 -0.8 0.9 -0.75 1.0 -0.6 1.0 M-0.25 1.1 L-0.2 1.15 -0.2 1.1 -0.25 1.1" fill="#3620b7" fill-rule="evenodd" stroke="none"/>
    <path d="M0.3 0.8 Q0.25 0.75 0.3 0.7 L0.4 0.75 0.4 0.8 0.3 0.8" fill="#feeffe" fill-rule="evenodd" stroke="none"/>
    <path d="M0.45 1.35 L0.55 1.3 0.55 1.15 0.6 1.1 0.65 1.05 0.6 1.2 Q0.55 1.3 0.6 1.35 L0.75 1.4 0.85 1.4 0.9 1.5 0.9 1.55 Q0.85 1.5 0.75 1.5 L0.7 1.45 0.6 1.45 0.55 1.45 0.5 1.5 0.55 1.4 0.45 1.35" fill="#6932b3" fill-rule="evenodd" stroke="none"/>
    <path d="M0.65 1.05 L0.7 1.1 0.8 1.25 0.9 1.4 0.85 1.4 0.75 1.4 0.6 1.35 Q0.55 1.3 0.6 1.2 L0.65 1.05" fill="#7a46c4" fill-rule="evenodd" stroke="none"/>
    <path d="M0.75 1.05 L0.85 1.0 0.8 1.05 0.8 1.1 0.85 1.2 Q0.85 1.3 0.9 1.3 L1.0 1.4 1.1 1.45 Q1.05 1.5 1.05 1.6 L1.15 1.7 Q1.05 1.7 1.05 1.6 L1.0 1.45 0.95 1.4 0.9 1.4 0.8 1.25 0.7 1.1 0.75 1.05" fill="#8248ed" fill-rule="evenodd" stroke="none"/>
    <path d="M0.95 1.2 L1.0 1.25 1.0 1.35 0.95 1.3 0.95 1.2" fill="#ecb4fe" fill-rule="evenodd" stroke="none"/>
    <path d="M1.2 1.8 L1.05 1.7 0.9 1.55 0.9 1.5 0.85 1.4 0.9 1.4 0.95 1.4 1.0 1.45 1.05 1.6 Q1.05 1.7 1.15 1.7 L1.15 1.75 1.2 1.8" fill="#602cd1" fill-rule="evenodd" stroke="none"/>
    <path d="M0.9 1.55 L0.75 1.55 0.65 1.55 0.55 1.5 Q0.55 1.5 0.55 1.55 L0.6 1.65 0.6 1.7 0.7 1.75 0.75 1.75 0.75 1.8 0.75 1.85 0.7 1.75 0.6 1.8 0.55 1.7 0.5 1.6 0.5 1.55 Q0.5 1.5 0.5 1.5 L0.55 1.45 0.6 1.45 0.7 1.45 0.75 1.5 Q0.85 1.5 0.9 1.55" fill="#5a1d9f" fill-rule="evenodd" stroke="none"/>
    <path d="M0.5 1.6 L0.55 1.7 0.6 1.8 0.55 1.8 0.5 1.85 0.4 1.9 Q0.35 1.9 0.3 1.85 0.25 1.75 0.3 1.7 0.25 1.6 0.35 1.6 L0.5 1.6 M0.55 1.65 Q0.45 1.6 0.4 1.6 0.35 1.6 0.3 1.65 0.3 1.75 0.35 1.8 L0.4 1.85 0.5 1.8 0.55 1.75 0.55 1.65" fill="#642ad5" fill-rule="evenodd" stroke="none"/>
    <path d="M0.85 2.2 L0.35 2.2 0.4 2.1 0.45 2.0 0.55 1.95 0.55 1.8 0.6 1.8 0.65 1.9 0.7 1.9 0.75 1.85 0.7 1.9 0.7 2.0 0.7 2.1 Q0.65 2.1 0.7 2.15 L0.75 2.15 Q0.8 2.1 0.8 2.1 0.85 2.1 0.85 2.2" fill="#3d1f99" fill-rule="evenodd" stroke="none"/>
    <path d="M0.6 1.8 L0.7 1.75 0.75 1.85 0.65 1.9 0.6 1.8 0.65 1.85 0.7 1.8 0.65 1.8 0.6 1.8" fill="#c14ffa" fill-rule="evenodd" stroke="none"/>
    <path d="M0.75 1.75 L0.75 1.8 0.75 1.75" fill="#ab4cf2" fill-rule="evenodd" stroke="none"/>
    <path d="M0.55 1.65 L0.55 1.75 0.5 1.8 0.4 1.85 0.35 1.8 Q0.3 1.75 0.3 1.65 0.35 1.6 0.4 1.6 0.45 1.6 0.55 1.65 M0.4 1.6 Q0.3 1.65 0.35 1.75 L0.35 1.8 0.45 1.8 0.5 1.75 0.5 1.7 0.45 1.6 0.4 1.6" fill="#9f3cf8" fill-rule="evenodd" stroke="none"/>
    <path d="M0.8 1.65 L0.85 1.65 0.85 1.7 Q0.8 1.75 0.8 1.7 0.75 1.65 0.8 1.65" fill="#ba3bf1" fill-rule="evenodd" stroke="none"/>
    <path d="M0.45 1.35 L0.55 1.4 0.5 1.5 Q0.45 1.5 0.4 1.45 0.4 1.4 0.45 1.35 M0.45 1.4 L0.45 1.45 0.5 1.45 0.5 1.4 0.45 1.4" fill="#ae49f4" fill-rule="evenodd" stroke="none"/>
    <path d="M0.25 1.3 L0.3 1.35 0.25 1.35 0.2 1.35 0.25 1.3 0.25 1.3" fill="#7a44ee" fill-rule="evenodd" stroke="none"/>
    <path d="M0.45 1.4 L0.5 1.4 0.5 1.45 0.45 1.45 0.45 1.4" fill="#fedffe" fill-rule="evenodd" stroke="none"/>
    <path d="M0.25 1.35 L0.3 1.35 Q0.35 1.3 0.4 1.4 L0.4 1.5 0.35 1.55 0.3 1.6 0.25 1.7 0.2 1.8 0.0 1.7 0.05 1.6 Q0.05 1.55 0.1 1.55 L0.15 1.55 0.2 1.45 0.25 1.35" fill="#3a1f97" fill-rule="evenodd" stroke="none"/>
    <path d="M-0.25 2.2 L-0.25 2.2 -0.25 2.15 -0.3 2.1 -0.3 2.0 -0.35 1.9 Q-0.4 1.75 -0.35 1.7 -0.35 1.55 -0.45 1.55 L-0.65 1.5 -0.7 1.4 -0.6 1.4 Q-0.5 1.4 -0.55 1.35 -0.5 1.3 -0.45 1.25 L-0.15 1.35 Q-0.1 1.35 -0.05 1.25 L0.1 1.35 Q0.2 1.4 0.2 1.45 L0.15 1.55 0.1 1.55 Q0.05 1.55 0.05 1.6 L0.0 1.7 0.0 1.65 Q-0.05 1.65 -0.1 1.65 L-0.25 1.65 -0.3 1.75 -0.3 1.85 -0.3 1.9 -0.25 1.95 -0.25 2.2 M0.15 1.55 L0.15 1.5 Q0.2 1.45 0.15 1.45 L0.1 1.5 0.15 1.55" fill="#4228c0" fill-rule="evenodd" stroke="none"/>
    <path d="M0.15 1.55 L0.1 1.5 0.15 1.45 Q0.2 1.45 0.15 1.5 L0.15 1.55" fill="#f1c8fe" fill-rule="evenodd" stroke="none"/>
    <path d="M0.3 2.2 L0.2 2.2 0.2 2.1 0.1 2.15 0.0 2.15 -0.15 2.05 -0.15 1.85 -0.05 1.8 0.05 1.8 Q0.15 1.8 0.15 1.85 L0.2 1.95 Q0.2 2.0 0.25 2.0 L0.35 2.05 0.35 2.1 0.3 2.2 M0.15 2.05 L0.2 1.95 0.15 1.9 Q0.1 1.8 0.05 1.8 -0.05 1.8 -0.1 1.9 L-0.1 2.0 Q-0.05 2.1 0.05 2.1 L0.15 2.05" fill="#5f2dd6" fill-rule="evenodd" stroke="none"/>
    <path d="M0.45 1.65 L0.4 1.65 Q0.35 1.65 0.35 1.7 L0.4 1.75 0.45 1.75 0.5 1.7 0.45 1.65 M0.4 1.6 L0.45 1.6 0.5 1.7 0.5 1.75 0.45 1.8 0.35 1.8 0.35 1.75 Q0.3 1.65 0.4 1.6" fill="#e86dfe" fill-rule="evenodd" stroke="none"/>
    <path d="M0.45 1.65 L0.5 1.7 0.45 1.75 0.4 1.75 0.35 1.7 Q0.35 1.65 0.4 1.65 L0.45 1.65" fill="#ffeefe" fill-rule="evenodd" stroke="none"/>
    <path d="M0.15 2.0 L0.15 1.9 0.2 1.95 0.15 2.05 0.15 2.0 M0.15 2.05 L0.05 2.1 Q-0.05 2.1 -0.1 2.0 L-0.1 1.9 Q-0.05 1.8 0.05 1.8 0.1 1.8 0.15 1.9 L0.1 1.85 0.0 1.85 -0.05 1.85 -0.1 1.9 Q-0.1 2.0 0.0 2.05 L0.15 2.05" fill="#9742f9" fill-rule="evenodd" stroke="none"/>
    <path d="M0.15 1.9 L0.15 2.0 0.05 2.05 0.0 2.0 -0.05 1.95 0.0 1.85 0.05 1.85 0.15 1.9" fill="#fff0ff" fill-rule="evenodd" stroke="none"/>
    <path d="M0.15 1.9 L0.05 1.85 0.0 1.85 -0.05 1.95 0.0 2.0 0.05 2.05 0.15 2.0 0.15 2.05 0.0 2.05 Q-0.1 2.0 -0.1 1.9 L-0.05 1.85 0.0 1.85 0.1 1.85 0.15 1.9" fill="#e175fe" fill-rule="evenodd" stroke="none"/>
    <path d="M0.75 1.85 L0.7 1.9 0.65 1.9 0.75 1.85" fill="#5e27c6" fill-rule="evenodd" stroke="none"/>
    <path d="M1.6 1.7 L1.65 1.65 Q1.7 1.6 1.75 1.65 L1.7 1.7 1.65 1.75 1.6 1.7" fill="#ffeafe" fill-rule="evenodd" stroke="none"/>
    <path d="M1.65 1.75 L1.7 1.7 1.75 1.65 Q1.7 1.6 1.65 1.65 L1.6 1.7 1.65 1.6 Q1.7 1.55 1.75 1.6 L1.8 1.7 1.65 1.75" fill="#c367fe" fill-rule="evenodd" stroke="none"/>
    <path d="M1.6 1.65 L1.5 1.6 Q1.45 1.6 1.5 1.65 1.5 1.8 1.35 1.8 L1.45 1.6 Q1.45 1.55 1.5 1.55 L1.6 1.65" fill="#562bcb" fill-rule="evenodd" stroke="none"/>
    <path d="M1.65 1.75 L1.6 1.75 1.55 1.8 1.6 1.75 1.6 1.7 1.65 1.75" fill="#db54fe" fill-rule="evenodd" stroke="none"/>
    <path d="M1.45 1.35 Q1.4 1.35 1.4 1.3 L1.4 1.25 1.45 1.25 1.5 1.25 1.5 1.3 1.45 1.35" fill="#fef2fe" fill-rule="evenodd" stroke="none"/>
    <path d="M1.45 1.35 L1.4 1.4 1.35 1.35 1.3 1.35 1.25 1.4 Q1.25 1.4 1.2 1.4 L1.15 1.4 1.3 1.35 1.4 1.25 1.4 1.3 Q1.4 1.35 1.45 1.35" fill="#e6a7fe" fill-rule="evenodd" stroke="none"/>
    <path d="M1.4 1.25 Q1.4 1.2 1.45 1.2 L1.5 1.25 1.5 1.35 Q1.45 1.35 1.45 1.4 L1.4 1.5 1.35 1.65 1.3 1.75 Q1.2 1.8 1.15 1.75 L1.15 1.7 1.05 1.6 Q1.05 1.5 1.1 1.45 1.1 1.4 1.15 1.4 1.05 1.45 1.1 1.55 L1.2 1.7 1.3 1.7 1.3 1.55 1.35 1.5 1.4 1.45 1.4 1.4 1.45 1.35 1.5 1.3 1.5 1.25 1.45 1.25 1.4 1.25" fill="#cb71fe" fill-rule="evenodd" stroke="none"/>
    <path d="M1.4 1.4 L1.4 1.45 1.35 1.5 Q1.25 1.45 1.3 1.5 L1.3 1.65 1.25 1.7 1.2 1.7 1.1 1.55 Q1.05 1.45 1.15 1.4 L1.2 1.4 Q1.25 1.4 1.25 1.4 L1.3 1.35 1.35 1.35 1.4 1.4" fill="#fff7fe" fill-rule="evenodd" stroke="none"/>
    <path d="M1.35 1.5 L1.3 1.55 1.3 1.7 1.2 1.7 1.25 1.7 1.3 1.65 1.3 1.5 Q1.25 1.45 1.35 1.5" fill="#fab2fe" fill-rule="evenodd" stroke="none"/>
    <path d="M1.1 1.35 L1.1 1.25 1.2 1.25 1.15 1.3 1.1 1.35" fill="#dba1fe" fill-rule="evenodd" stroke="none"/>
    <path d="M1.45 1.85 Q1.45 1.8 1.5 1.85 L1.55 1.85 1.5 1.9 1.45 1.9 1.5 1.85 1.45 1.85" fill="#8c33e7" fill-rule="evenodd" stroke="none"/>
    <path d="M1.45 1.9 L1.45 1.85 1.5 1.85 1.45 1.9" fill="#f5b2fe" fill-rule="evenodd" stroke="none"/>
    <path d="M1.35 2.2 L1.25 2.2 1.35 2.15 1.35 2.1 1.3 2.05 1.25 2.05 1.2 2.1 1.15 2.2 1.2 2.1 1.25 2.0 Q1.35 2.0 1.35 2.05 1.4 2.15 1.35 2.2" fill="#cb63fe" fill-rule="evenodd" stroke="none"/>
    <path d="M1.4 2.2 L1.35 2.2 Q1.4 2.15 1.35 2.05 1.35 2.0 1.25 2.0 L1.2 2.1 1.15 2.2 Q1.1 2.1 1.2 2.0 1.3 1.95 1.4 2.0 L1.45 2.1 1.4 2.2" fill="#5f2bcd" fill-rule="evenodd" stroke="none"/>
    <path d="M1.65 1.9 L1.6 1.9 1.65 1.85 Q1.7 1.85 1.65 1.9" fill="#8934ed" fill-rule="evenodd" stroke="none"/>
    <path d="M-2.2 -1.85 L-2.2 -1.95 -2.05 -2.0 -1.95 -2.05 -1.75 -2.1 -1.6 -2.15 -1.3 -2.05 -0.95 -1.95 -0.75 -1.85 -0.85 -1.85 -0.95 -1.85 -1.0 -1.9 -1.35 -2.0 -1.5 -2.05 -1.65 -2.05 -1.9 -2.0 -2.05 -1.95 -2.2 -1.85" fill="#e57bfe" fill-rule="evenodd" stroke="none"/>
    <path d="M-2.2 -1.95 L-2.2 -2.0 Q-2.15 -2.05 -2.0 -2.1 L-1.85 -2.2 -1.4 -2.2 -1.25 -2.1 -1.0 -2.0 -0.9 -2.0 Q-0.75 -1.95 -0.7 -1.85 L-0.7 -1.8 -0.75 -1.8 -0.75 -1.85 -0.95 -1.95 -1.3 -2.05 -1.6 -2.15 -1.75 -2.1 -1.95 -2.05 -2.05 -2.0 -2.2 -1.95 M-0.7 -1.85 L-0.7 -1.85" fill="#d069fe" fill-rule="evenodd" stroke="none"/>
    <path d="M-2.2 -2.0 L-2.2 -2.2 -1.85 -2.2 -2.0 -2.1 Q-2.15 -2.05 -2.2 -2.0" fill="#aa51fe" fill-rule="evenodd" stroke="none"/>
    <path d="M-2.2 -1.85 L-2.2 -1.85 -2.05 -1.95 -1.9 -2.0 -1.65 -2.05 -1.5 -2.05 -1.35 -2.0 -1.0 -1.9 -1.0 -1.8 -1.1 -1.7 -1.1 -1.65 Q-1.1 -1.6 -1.15 -1.6 L-1.25 -1.55 Q-1.35 -1.55 -1.35 -1.5 L-1.35 -1.4 -1.4 -1.4 -1.45 -1.4 -1.45 -1.5 -1.4 -1.5 Q-1.4 -1.5 -1.4 -1.55 L-1.3 -1.6 -1.15 -1.65 -1.15 -1.7 -1.1 -1.75 -1.1 -1.85 -1.15 -1.9 -1.95 -1.95 -2.05 -1.9 -2.2 -1.85" fill="#f692fe" fill-rule="evenodd" stroke="none"/>
    <path d="M-2.2 -1.7 L-2.2 -1.75 -2.1 -1.8 -1.85 -1.8 -1.65 -1.85 -1.55 -1.85 -1.5 -1.85 Q-1.4 -1.8 -1.4 -1.75 L-1.45 -1.6 -1.5 -1.6 -1.55 -1.65 Q-1.75 -1.6 -1.8 -1.5 L-1.8 -1.45 -1.75 -1.4 -1.65 -1.35 Q-1.6 -1.3 -1.7 -1.3 L-1.75 -1.25 -1.8 -1.2 -1.8 -1.1 -1.9 -0.95 -1.95 -0.8 -1.95 -0.65 -1.75 -0.5 -1.5 -0.5 Q-1.35 -0.55 -1.25 -0.6 L-1.2 -0.7 -1.2 -0.8 -1.15 -0.9 Q-1.1 -1.0 -1.15 -1.0 L-1.2 -1.05 -1.25 -1.05 -1.3 -1.2 -1.3 -1.3 -1.25 -1.25 -1.15 -1.2 -1.1 -1.2 Q-1.1 -1.15 -1.15 -1.1 L-1.15 -1.2 Q-1.2 -1.2 -1.2 -1.1 -1.2 -1.05 -1.15 -1.05 L-1.1 -0.95 -1.1 -0.85 -1.05 -0.85 -1.0 -0.8 Q-1.0 -0.7 -1.1 -0.7 L-1.3 -0.5 Q-1.4 -0.4 -1.55 -0.4 L-1.75 -0.45 -1.9 -0.45 -2.0 -0.55 -2.0 -0.7 -2.05 -0.8 -2.0 -0.9 -1.95 -0.95 -1.9 -1.1 -1.8 -1.3 Q-1.75 -1.3 -1.8 -1.35 L-1.85 -1.35 Q-1.8 -1.5 -2.0 -1.75 L-2.1 -1.7 -2.2 -1.7" fill="#fddafe" fill-rule="evenodd" stroke="none"/>
    <path d="M-2.2 -1.75 L-2.2 -1.8 Q-2.1 -1.85 -1.95 -1.85 L-1.75 -1.9 -1.5 -1.9 -1.3 -1.85 Q-1.25 -1.85 -1.25 -1.75 L-1.25 -1.65 -1.35 -1.65 -1.4 -1.6 -1.45 -1.55 -1.45 -1.55 -1.6 -1.55 -1.7 -1.5 -1.75 -1.45 -1.75 -1.4 -1.8 -1.45 -1.8 -1.5 Q-1.75 -1.6 -1.55 -1.65 L-1.5 -1.6 -1.45 -1.6 -1.4 -1.75 Q-1.4 -1.8 -1.5 -1.85 L-1.55 -1.85 -1.65 -1.85 -1.85 -1.8 -2.1 -1.8 -2.2 -1.75" fill="#fec0fe" fill-rule="evenodd" stroke="none"/>
    <path d="M-2.2 -1.8 L-2.2 -1.85 -2.05 -1.9 -1.95 -1.95 -1.15 -1.9 -1.1 -1.85 -1.1 -1.75 -1.15 -1.7 -1.15 -1.65 -1.3 -1.6 -1.4 -1.55 Q-1.4 -1.5 -1.4 -1.5 L-1.45 -1.5 -1.45 -1.55 -1.45 -1.55 -1.4 -1.6 -1.35 -1.65 -1.25 -1.65 -1.25 -1.75 Q-1.25 -1.85 -1.3 -1.85 L-1.5 -1.9 -1.75 -1.9 -1.95 -1.85 Q-2.1 -1.85 -2.2 -1.8" fill="#fea8fe" fill-rule="evenodd" stroke="none"/>
    <path d="M-0.4 -0.95 L-0.3 -0.85 -0.3 -0.8 -0.4 -0.75 -0.35 -0.6 -0.25 -0.45 -0.5 -0.35 -0.75 -0.15 -0.85 -0.05 -0.95 0.0 Q-1.05 0.05 -1.2 0.1 L-1.5 0.15 -1.85 -0.05 Q-2.1 -0.2 -2.2 -0.3 L-2.2 -1.7 -2.1 -1.7 -2.0 -1.75 Q-1.8 -1.5 -1.85 -1.35 L-1.8 -1.35 Q-1.75 -1.3 -1.8 -1.3 L-1.9 -1.1 -1.95 -0.95 -2.0 -0.9 -2.05 -0.8 -2.0 -0.7 -2.0 -0.55 -1.9 -0.45 -1.75 -0.45 -1.55 -0.4 Q-1.4 -0.4 -1.3 -0.5 L-1.1 -0.7 Q-1.0 -0.7 -1.0 -0.8 L-1.05 -0.85 -1.1 -0.85 -1.1 -0.95 -1.15 -1.05 Q-1.2 -1.05 -1.2 -1.1 -1.2 -1.2 -1.15 -1.2 L-1.15 -1.1 -1.05 -1.1 -1.0 -1.0 Q-0.95 -0.95 -0.9 -0.95 L-0.8 -1.0 Q-0.75 -1.0 -0.8 -1.05 L-0.85 -1.05 Q-0.85 -1.1 -0.8 -1.1 L-0.6 -1.0 Q-0.55 -0.95 -0.55 -1.0 L-0.45 -1.0 -0.4 -0.95 -0.4 -0.95 M-1.4 2.2 L-1.55 2.2 -1.7 2.0 Q-1.75 1.9 -1.7 1.8 -1.65 1.7 -1.75 1.6 L-1.75 1.55 -1.7 1.5 -1.65 1.55 -1.6 1.6 -1.4 1.6 -1.25 1.65 -1.2 1.7 -1.15 1.7 -1.05 1.75 -0.95 1.75 Q-0.85 1.75 -0.85 1.65 L-0.8 1.65 -0.75 1.75 -0.7 1.75 -0.6 1.9 -0.5 2.0 Q-0.5 2.05 -0.55 2.1 L-0.6 2.1 -0.7 2.1 -0.8 2.15 -1.15 2.05 -1.25 2.1 -1.4 2.2" fill="#fffcff" fill-rule="evenodd" stroke="none"/>
    <path d="M-1.5 0.15 L-1.45 0.15 -1.25 0.2 -1.35 0.2 Q-1.4 0.2 -1.35 0.3 -1.4 0.3 -1.4 0.3 L-1.45 0.3 -1.45 0.25 -1.55 0.25 -1.6 0.25 -1.65 0.2 Q-1.7 0.15 -1.8 0.15 L-2.05 0.0 -2.2 -0.1 -2.2 -0.25 -2.15 -0.2 -2.1 -0.1 Q-1.85 0.05 -1.5 0.15" fill="#febcfe" fill-rule="evenodd" stroke="none"/>
    <path d="M-1.5 0.15 L-1.5 0.15 Q-1.85 0.05 -2.1 -0.1 L-2.15 -0.2 -2.2 -0.25 -2.2 -0.3 Q-2.1 -0.2 -1.85 -0.05 L-1.5 0.15" fill="#ffdcfe" fill-rule="evenodd" stroke="none"/>
    <path d="M-1.4 -2.2 L-1.25 -2.2 -0.95 -2.05 Q-0.75 -2.0 -0.65 -1.95 L-0.65 -1.9 -0.7 -1.85 Q-0.75 -1.95 -0.9 -2.0 L-1.0 -2.0 -1.25 -2.1 -1.4 -2.2" fill="#b95cfe" fill-rule="evenodd" stroke="none"/>
    <path d="M-0.65 -1.9 L-0.65 -1.95 -0.6 -1.9 Q-0.4 -1.75 -0.35 -1.55 L-0.3 -1.35 Q-0.25 -1.25 -0.2 -1.25 L-0.15 -1.15 -0.15 -1.05 -0.25 -1.1 -0.35 -1.35 -0.45 -1.55 Q-0.45 -1.65 -0.55 -1.75 L-0.65 -1.9 M-0.15 -1.05 L-0.15 -1.05" fill="#b43afe" fill-rule="evenodd" stroke="none"/>
    <path d="M-0.5 -2.0 L-0.6 -1.95 -0.6 -2.0 -0.8 -2.1 Q-0.95 -2.1 -1.0 -2.2 L-0.7 -2.2 -0.6 -2.1 -0.5 -2.0" fill="#7a46ff" fill-rule="evenodd" stroke="none"/>
    <path d="M-1.25 -2.2 L-1.0 -2.2 Q-0.95 -2.1 -0.8 -2.1 L-0.6 -2.0 -0.6 -1.9 -0.65 -1.95 Q-0.75 -2.0 -0.95 -2.05 L-1.25 -2.2" fill="#9c50fe" fill-rule="evenodd" stroke="none"/>
    <path d="M-0.7 -1.85 L-0.7 -1.85 -0.65 -1.9 -0.55 -1.75 Q-0.45 -1.65 -0.45 -1.55 L-0.35 -1.35 -0.25 -1.1 -0.15 -1.05 -0.25 -1.05 -0.3 -1.0 -0.3 -1.05 -0.35 -1.2 -0.4 -1.3 -0.5 -1.5 -0.6 -1.75 -0.65 -1.8 -0.7 -1.85" fill="#ca41fe" fill-rule="evenodd" stroke="none"/>
    <path d="M-0.3 -0.95 L-0.4 -0.95 -0.4 -1.1 -0.5 -1.3 -0.6 -1.55 -0.65 -1.65 -0.7 -1.8 -0.7 -1.85 -0.65 -1.8 -0.6 -1.75 -0.5 -1.5 -0.4 -1.3 -0.35 -1.2 -0.3 -1.05 -0.3 -1.0 -0.3 -0.95 M-0.4 -0.95 L-0.4 -0.95" fill="#e148fe" fill-rule="evenodd" stroke="none"/>
    <path d="M-0.75 -1.8 L-0.7 -1.8 -0.65 -1.65 -0.6 -1.55 -0.5 -1.3 -0.4 -1.1 -0.4 -0.95 -0.45 -1.0 -0.5 -1.0 -0.45 -1.15 -0.55 -1.2 -0.6 -1.35 -0.7 -1.45 -0.75 -1.55 -0.75 -1.65 -0.7 -1.75 -0.75 -1.8" fill="#f255fe" fill-rule="evenodd" stroke="none"/>
    <path d="M-0.75 -1.85 L-0.75 -1.8 -0.7 -1.75 -0.75 -1.65 -0.75 -1.55 -0.7 -1.45 -0.6 -1.35 -0.55 -1.2 -0.45 -1.15 -0.5 -1.0 Q-0.55 -1.0 -0.55 -1.05 L-0.6 -1.15 -0.6 -1.3 -0.65 -1.4 -0.75 -1.4 Q-0.9 -1.45 -0.9 -1.55 -0.95 -1.6 -0.9 -1.6 L-0.85 -1.65 -0.8 -1.7 -0.8 -1.75 -0.85 -1.85 -0.75 -1.85" fill="#fc68fe" fill-rule="evenodd" stroke="none"/>
    <path d="M-1.0 -1.9 L-0.95 -1.85 -0.85 -1.85 -0.8 -1.75 -0.8 -1.7 -0.85 -1.65 -0.9 -1.6 Q-0.95 -1.6 -0.9 -1.55 -0.9 -1.45 -0.75 -1.4 L-0.65 -1.4 -0.6 -1.3 -0.6 -1.15 -0.55 -1.05 Q-0.55 -1.0 -0.5 -1.0 L-0.45 -1.0 -0.55 -1.0 -0.6 -1.05 -0.7 -1.1 -0.7 -1.25 -0.65 -1.25 -0.65 -1.3 -0.75 -1.35 -0.8 -1.4 Q-0.85 -1.45 -0.95 -1.4 -1.0 -1.35 -1.0 -1.25 -1.0 -1.2 -1.0 -1.2 L-1.1 -1.2 -1.05 -1.3 -1.0 -1.4 -1.2 -1.5 -1.35 -1.5 Q-1.35 -1.55 -1.25 -1.55 L-1.15 -1.6 Q-1.1 -1.6 -1.1 -1.65 L-1.1 -1.7 -1.0 -1.8 -1.0 -1.9" fill="#fd7cfe" fill-rule="evenodd" stroke="none"/>
    <path d="M-1.1 -1.2 L-1.0 -1.2 Q-1.0 -1.2 -1.0 -1.25 -1.0 -1.35 -0.95 -1.4 -0.85 -1.45 -0.8 -1.4 L-0.9 -1.35 -0.95 -1.3 -0.95 -1.2 -0.9 -1.1 Q-0.9 -1.05 -0.9 -1.05 L-1.0 -1.0 -1.05 -1.1 -1.15 -1.1 Q-1.1 -1.15 -1.1 -1.2 L-1.15 -1.2 -1.1 -1.2" fill="#f699fe" fill-rule="evenodd" stroke="none"/>
    <path d="M-1.65 -1.35 L-1.55 -1.35 Q-1.45 -1.35 -1.45 -1.4 L-1.4 -1.4 -1.35 -1.4 -1.25 -1.35 -1.25 -1.25 -1.3 -1.3 -1.3 -1.2 -1.25 -1.05 -1.3 -1.1 -1.3 -1.15 -1.5 -1.25 -1.65 -1.2 -1.8 -1.2 -1.75 -1.25 -1.7 -1.3 Q-1.6 -1.3 -1.65 -1.35" fill="#f0bffe" fill-rule="evenodd" stroke="none"/>
    <path d="M-1.75 -1.4 L-1.75 -1.45 -1.7 -1.5 -1.6 -1.55 -1.45 -1.55 -1.45 -1.5 -1.45 -1.4 Q-1.45 -1.35 -1.55 -1.35 L-1.65 -1.35 -1.75 -1.4" fill="#e388fe" fill-rule="evenodd" stroke="none"/>
    <path d="M-1.35 -1.5 L-1.2 -1.5 -1.0 -1.4 -1.05 -1.3 -1.1 -1.2 -1.15 -1.2 -1.25 -1.25 -1.25 -1.35 -1.35 -1.4 -1.35 -1.5" fill="#dc5afe" fill-rule="evenodd" stroke="none"/>
    <path d="M-1.25 -1.05 L-1.2 -1.05 -1.3 -1.05 Q-1.3 -1.0 -1.3 -1.05 -1.35 -1.1 -1.4 -1.15 L-1.45 -1.15 -1.55 -1.2 -1.7 -1.15 -1.8 -1.05 -1.8 -0.95 -1.85 -0.8 Q-1.85 -0.7 -1.75 -0.65 -1.7 -0.6 -1.6 -0.6 L-1.55 -0.6 -1.45 -0.6 -1.3 -0.65 -1.25 -0.65 -1.2 -0.7 -1.2 -0.75 Q-1.25 -0.8 -1.25 -0.8 L-1.25 -0.85 -1.2 -0.85 -1.15 -1.0 Q-1.1 -1.0 -1.15 -0.9 L-1.2 -0.8 -1.2 -0.7 -1.25 -0.6 -1.45 -0.55 -1.65 -0.55 -1.8 -0.6 Q-1.9 -0.7 -1.9 -0.75 L-1.85 -0.95 -1.8 -1.1 -1.8 -1.2 -1.65 -1.2 -1.5 -1.25 -1.3 -1.15 -1.3 -1.1 -1.25 -1.05" fill="#d8a6fe" fill-rule="evenodd" stroke="none"/>
    <path d="M-1.2 -1.05 L-1.15 -1.0 -1.2 -0.85 -1.25 -0.85 -1.25 -0.8 -1.3 -0.8 -1.3 -0.85 -1.25 -0.9 Q-1.2 -0.9 -1.2 -0.9 L-1.2 -1.0 -1.25 -1.0 Q-1.25 -0.95 -1.3 -0.95 -1.4 -1.0 -1.45 -1.1 L-1.55 -1.15 -1.65 -1.15 -1.7 -1.0 -1.75 -0.9 -1.8 -0.85 -1.85 -0.8 -1.8 -0.95 -1.8 -1.05 -1.7 -1.15 -1.55 -1.2 -1.45 -1.15 -1.4 -1.15 Q-1.35 -1.1 -1.3 -1.05 -1.3 -1.0 -1.3 -1.05 L-1.2 -1.05" fill="#b690f6" fill-rule="evenodd" stroke="none"/>
    <path d="M-1.3 -0.95 Q-1.25 -0.95 -1.25 -1.0 L-1.2 -1.0 -1.2 -0.9 Q-1.2 -0.9 -1.25 -0.9 L-1.3 -0.85 -1.3 -0.8 -1.25 -0.7 -1.4 -0.7 -1.5 -0.65 -1.7 -0.7 Q-1.8 -0.75 -1.8 -0.85 L-1.75 -0.9 -1.7 -0.85 Q-1.7 -0.75 -1.6 -0.75 -1.55 -0.7 -1.5 -0.8 L-1.4 -0.8 -1.35 -0.85 -1.35 -0.9 -1.3 -0.95" fill="#9b65f8" fill-rule="evenodd" stroke="none"/>
    <path d="M-1.75 -0.9 L-1.7 -1.0 -1.65 -1.15 -1.55 -1.15 -1.45 -1.1 Q-1.4 -1.0 -1.3 -0.95 L-1.35 -0.9 -1.35 -0.85 -1.4 -0.8 -1.5 -0.8 Q-1.45 -0.85 -1.45 -0.9 L-1.45 -1.05 -1.65 -1.0 -1.7 -0.85 -1.75 -0.9" fill="#9474e3" fill-rule="evenodd" stroke="none"/>
    <path d="M-1.5 -0.8 Q-1.55 -0.7 -1.6 -0.75 -1.7 -0.75 -1.7 -0.85 L-1.65 -1.0 -1.45 -1.05 -1.45 -0.9 Q-1.45 -0.85 -1.5 -0.8" fill="#7556d7" fill-rule="evenodd" stroke="none"/>
    <path d="M-1.3 -0.8 L-1.25 -0.8 Q-1.25 -0.8 -1.2 -0.75 L-1.2 -0.7 -1.25 -0.65 -1.3 -0.65 -1.45 -0.6 -1.55 -0.6 -1.6 -0.6 Q-1.7 -0.6 -1.75 -0.65 -1.85 -0.7 -1.85 -0.8 L-1.8 -0.85 Q-1.8 -0.75 -1.7 -0.7 L-1.5 -0.65 -1.4 -0.7 -1.25 -0.7 -1.3 -0.8" fill="#c17dfe" fill-rule="evenodd" stroke="none"/>
    <path d="M-1.25 -0.6 Q-1.35 -0.55 -1.5 -0.5 L-1.75 -0.5 -1.95 -0.65 -1.95 -0.8 -1.9 -0.95 -1.8 -1.1 -1.85 -0.95 -1.9 -0.75 Q-1.9 -0.7 -1.8 -0.6 L-1.65 -0.55 -1.45 -0.55 -1.25 -0.6 M-0.85 0.6 L-0.8 0.65 -0.85 0.65 -0.85 0.6" fill="#f1bdfe" fill-rule="evenodd" stroke="none"/>
    <path d="M-0.05 -0.7 L-0.05 -0.7 Q-0.1 -0.65 -0.1 -0.65 L-0.15 -0.7 -0.2 -0.8 -0.2 -0.95 -0.3 -0.95 -0.3 -1.0 -0.25 -1.05 -0.15 -1.05 -0.1 -1.0 -0.05 -1.0 -0.15 -0.95 -0.15 -0.85 -0.1 -0.75 -0.05 -0.7 M-0.15 -1.05 L-0.15 -1.05" fill="#fba1fe" fill-rule="evenodd" stroke="none"/>
    <path d="M-0.05 -0.75 L-0.05 -0.7 -0.1 -0.75 -0.15 -0.85 -0.15 -0.95 -0.05 -1.0 0.0 -0.95 Q0.0 -0.95 -0.05 -0.9 L-0.1 -0.85 -0.05 -0.75" fill="#e96dfe" fill-rule="evenodd" stroke="none"/>
    <path d="M-0.35 0.05 L-0.4 -0.05 -0.35 -0.15 -0.3 -0.2 -0.2 -0.2 Q-0.1 -0.15 -0.1 -0.1 -0.1 0.0 -0.2 0.05 L-0.25 0.05 -0.25 0.05 -0.35 0.05 -0.35 0.05" fill="#fff8ff" fill-rule="evenodd" stroke="none"/>
    <path d="M-1.45 0.15 L-1.2 0.15 -1.0 0.05 Q-0.85 0.0 -0.7 -0.1 L-0.45 -0.35 -0.2 -0.4 Q-0.05 -0.35 -0.05 -0.2 L-0.1 -0.3 -0.2 -0.35 -0.45 -0.2 -0.65 -0.05 -0.85 0.1 Q-0.95 0.15 -1.05 0.15 L-1.15 0.15 -1.2 0.2 -1.25 0.2 -1.45 0.15" fill="#ffddfe" fill-rule="evenodd" stroke="none"/>
    <path d="M-0.15 0.05 L-0.3 0.1 Q-0.4 0.05 -0.45 0.05 L-0.4 0.2 -0.45 0.15 -0.45 0.1 -0.55 0.1 -0.6 0.2 -0.6 0.3 -0.6 0.15 -0.55 0.15 -0.6 0.1 -0.75 0.15 -0.9 0.15 -0.7 0.05 -0.55 -0.05 Q-0.5 -0.1 -0.45 -0.05 L-0.4 0.0 -0.35 0.05 -0.35 0.05 -0.25 0.05 -0.25 0.05 -0.2 0.05 -0.15 0.05" fill="#f5a0fe" fill-rule="evenodd" stroke="none"/>
    <path d="M-2.2 0.1 L-2.2 0.0 -2.0 0.15 -1.8 0.2 -1.6 0.3 -1.55 0.3 -1.45 0.3 -1.4 0.3 Q-1.4 0.3 -1.35 0.3 L-1.0 0.2 -0.95 0.2 -0.9 0.15 -0.75 0.15 -0.6 0.1 -0.55 0.15 -0.6 0.15 -0.6 0.3 -0.55 0.3 -0.5 0.3 -0.5 0.25 -0.45 0.15 -0.4 0.2 -0.45 0.2 -0.45 0.35 -0.5 0.35 -0.5 0.4 -0.6 0.3 -0.65 0.3 -0.7 0.3 -0.65 0.2 -0.65 0.15 -0.7 0.2 -0.8 0.2 -0.85 0.2 -1.1 0.3 -1.3 0.4 -1.35 0.35 -1.35 0.4 -1.45 0.4 -1.55 0.35 Q-1.9 0.3 -2.2 0.1" fill="#d46dfe" fill-rule="evenodd" stroke="none"/>
    <path d="M-0.45 0.15 L-0.5 0.25 -0.5 0.3 -0.55 0.3 -0.6 0.3 -0.6 0.2 -0.55 0.1 -0.45 0.1 -0.45 0.15" fill="#fff2fe" fill-rule="evenodd" stroke="none"/>
    <path d="M-0.5 0.45 L-0.45 0.4 Q-0.4 0.4 -0.45 0.45 L-0.45 0.45 -0.5 0.45" fill="#f2c1fe" fill-rule="evenodd" stroke="none"/>
    <path d="M-0.1 0.55 L-0.1 0.55 -0.1 0.6 -0.15 0.55 -0.1 0.55" fill="#fbeaff" fill-rule="evenodd" stroke="none"/>
    <path d="M-0.1 0.55 L-0.05 0.55 -0.1 0.65 -0.15 0.65 -0.15 0.55 -0.1 0.6 -0.1 0.55" fill="#be75fe" fill-rule="evenodd" stroke="none"/>
    <path d="M-0.2 0.7 L-0.25 0.7 -0.3 0.7 -0.35 0.65 -0.3 0.55 -0.2 0.6 -0.2 0.65 -0.15 0.65 -0.15 0.7 -0.2 0.7 M-0.3 0.55 L-0.3 0.65 -0.3 0.7 -0.25 0.7 Q-0.2 0.7 -0.2 0.65 L-0.3 0.55" fill="#ac6afe" fill-rule="evenodd" stroke="none"/>
    <path d="M-0.7 0.3 Q-0.65 0.25 -0.7 0.25 L-0.75 0.25 -0.85 0.4 -1.0 0.4 -0.95 0.35 -0.9 0.35 -0.8 0.3 -0.8 0.2 -0.7 0.2 -0.65 0.15 -0.65 0.2 -0.7 0.3" fill="#9b42fe" fill-rule="evenodd" stroke="none"/>
    <path d="M-2.2 0.5 L-2.2 0.25 -2.1 0.35 -2.0 0.4 -1.7 0.5 -1.6 0.5 -1.55 0.5 -1.5 0.55 -1.5 0.5 Q-1.45 0.45 -1.4 0.5 L-1.3 0.5 -1.2 0.45 -1.05 0.4 -1.0 0.4 -0.85 0.4 -0.75 0.25 -0.7 0.25 Q-0.65 0.25 -0.7 0.3 L-0.65 0.3 -0.75 0.3 -0.7 0.4 -0.75 0.4 -0.75 0.4 -0.8 0.45 -0.9 0.5 -1.05 0.5 -1.2 0.55 Q-1.5 0.5 -1.55 0.65 -1.65 0.65 -1.75 0.6 L-1.95 0.5 -2.05 0.5 -2.2 0.5 M-1.55 0.6 Q-1.6 0.55 -1.6 0.55 L-1.65 0.6 Q-1.6 0.65 -1.6 0.65 -1.55 0.65 -1.55 0.6" fill="#763cfe" fill-rule="evenodd" stroke="none"/>
    <path d="M-2.2 0.6 L-2.2 0.5 -2.05 0.5 -1.95 0.5 -1.75 0.6 Q-1.65 0.65 -1.55 0.65 -1.5 0.5 -1.2 0.55 L-1.05 0.5 -0.9 0.5 -0.9 0.5 -0.85 0.5 -0.85 0.6 -0.85 0.65 -0.9 0.7 -0.95 0.8 -1.0 0.85 -0.95 0.9 -0.9 0.9 -0.85 0.8 Q-0.8 0.8 -0.8 0.85 L-0.9 0.9 -1.0 0.9 -1.0 0.8 -0.95 0.7 -1.05 0.75 -1.1 0.85 Q-1.15 0.95 -1.25 0.9 -1.35 0.9 -1.35 0.8 L-1.45 0.8 -1.5 0.8 -1.55 0.9 -1.6 0.9 -1.65 0.85 -1.65 0.8 -1.95 0.75 -2.2 0.6 M-1.9 0.6 Q-1.95 0.55 -1.95 0.55 L-2.0 0.6 Q-2.0 0.65 -1.95 0.65 L-1.9 0.6 M-1.6 0.85 L-1.55 0.85 -1.6 0.85 -1.6 0.85 M-1.25 0.85 L-1.25 0.9 -1.15 0.9 Q-1.1 0.85 -1.15 0.8 L-1.2 0.75 -1.25 0.75 -1.3 0.8 -1.3 0.85 -1.25 0.85" fill="#512df3" fill-rule="evenodd" stroke="none"/>
    <path d="M-0.75 0.65 L-0.75 0.6 -0.8 0.55 -0.75 0.55 -0.7 0.55 -0.7 0.6 -0.75 0.65" fill="#fce5fe" fill-rule="evenodd" stroke="none"/>
    <path d="M-0.75 0.6 L-0.8 0.6 -0.8 0.55 -0.75 0.6" fill="#b661ff" fill-rule="evenodd" stroke="none"/>
    <path d="M-0.45 0.35 L-0.5 0.4 -0.5 0.35 -0.45 0.35" fill="#fde1fe" fill-rule="evenodd" stroke="none"/>
    <path d="M-0.75 0.4 L-0.75 0.4 -0.7 0.4 -0.7 0.4 -0.75 0.4" fill="#ebaafe" fill-rule="evenodd" stroke="none"/>
    <path d="M-0.7 0.55 Q-0.65 0.55 -0.7 0.6 L-0.7 0.65 -0.75 0.65 -0.7 0.6 -0.7 0.55" fill="#ae66fe" fill-rule="evenodd" stroke="none"/>
    <path d="M-0.8 0.55 L-0.75 0.5 Q-0.7 0.5 -0.7 0.55 L-0.75 0.55 -0.8 0.55" fill="#c26aff" fill-rule="evenodd" stroke="none"/>
    <path d="M-0.6 0.75 L-0.6 0.8 Q-0.7 0.75 -0.65 0.7 -0.65 0.65 -0.6 0.7 -0.55 0.7 -0.6 0.75" fill="#efcafe" fill-rule="evenodd" stroke="none"/>
    <path d="M-0.7 0.8 Q-0.7 0.9 -0.65 0.85 -0.75 0.9 -0.7 0.95 L-0.75 0.9 -0.75 0.85 -0.75 0.85 -0.7 0.8" fill="#8748fd" fill-rule="evenodd" stroke="none"/>
    <path d="M-0.7 0.75 L-0.7 0.8 -0.75 0.85 -0.75 0.85 -0.75 0.8 -0.8 0.8 -0.85 0.75 -0.85 0.7 -0.85 0.7 -0.75 0.7 -0.7 0.75 M-0.75 0.85 L-0.75 0.85" fill="#f8d7fe" fill-rule="evenodd" stroke="none"/>
    <path d="M-0.65 0.85 L-0.6 0.9 -0.6 0.95 -0.7 1.0 -0.7 0.95 Q-0.75 0.9 -0.65 0.85" fill="#fbdefe" fill-rule="evenodd" stroke="none"/>
    <path d="M-0.95 0.8 L-0.9 0.75 -0.85 0.7 -0.85 0.75 -0.8 0.8 -0.75 0.8 -0.75 0.85 -0.8 0.85 Q-0.8 0.8 -0.85 0.8 L-0.9 0.9 -0.95 0.9 -1.0 0.85 -0.95 0.8 -0.95 0.9 -0.9 0.9 Q-0.85 0.85 -0.9 0.8 -0.9 0.8 -0.95 0.8" fill="#ad5cfe" fill-rule="evenodd" stroke="none"/>
    <path d="M-0.95 0.9 L-0.95 0.8 Q-0.9 0.8 -0.9 0.8 -0.85 0.85 -0.9 0.9 L-0.95 0.9" fill="#fce3fe" fill-rule="evenodd" stroke="none"/>
    <path d="M-2.2 1.4 L-2.2 0.6 -1.95 0.75 -1.65 0.8 -1.65 0.85 -1.6 0.9 -1.55 0.9 -1.5 0.8 -1.45 0.8 -1.35 0.8 Q-1.35 0.9 -1.25 0.9 -1.15 0.95 -1.1 0.85 L-1.05 0.75 -0.95 0.7 -1.0 0.8 -1.0 0.9 -0.9 0.9 -0.8 0.85 -0.75 0.85 -0.75 0.9 -0.7 1.0 -0.6 1.0 -0.75 1.0 -0.8 0.9 -0.9 0.95 -0.95 0.95 -1.05 0.95 -1.15 0.95 -1.4 1.0 Q-1.55 0.95 -1.6 1.05 L-1.45 1.05 Q-1.35 1.05 -1.35 1.1 -1.2 1.15 -1.1 1.2 L-1.05 1.25 -0.95 1.25 Q-0.9 1.2 -0.85 1.25 L-0.8 1.35 -0.7 1.4 -0.65 1.5 -0.7 1.45 -0.8 1.45 -0.85 1.35 Q-0.85 1.25 -0.95 1.25 -1.05 1.25 -1.1 1.35 L-1.55 1.1 -1.7 1.1 -1.8 1.05 Q-1.8 1.1 -1.85 1.15 L-1.95 1.25 -1.95 1.35 -2.0 1.45 -2.1 1.4 -2.2 1.4" fill="#3a22ca" fill-rule="evenodd" stroke="none"/>
    <path d="M-0.6 0.9 Q-0.55 0.9 -0.6 0.95 L-0.7 1.0 -0.6 0.95 -0.6 0.9" fill="#9c4efe" fill-rule="evenodd" stroke="none"/>
    <path d="M-0.15 0.65 L-0.1 0.65 -0.1 0.7 -0.15 0.7 -0.15 0.65" fill="#f4d8fe" fill-rule="evenodd" stroke="none"/>
    <path d="M-0.3 0.55 L-0.2 0.65 Q-0.2 0.7 -0.25 0.7 L-0.3 0.7 -0.3 0.65 -0.3 0.55" fill="#fcecff" fill-rule="evenodd" stroke="none"/>
    <path d="M-0.25 1.1 L-0.2 1.1 -0.2 1.15 -0.25 1.1" fill="#f6ccfe" fill-rule="evenodd" stroke="none"/>
    <path d="M-1.05 0.15 L-1.0 0.2 -1.35 0.3 Q-1.4 0.2 -1.35 0.2 L-1.25 0.2 -1.2 0.2 -1.15 0.15 -1.05 0.15" fill="#f186fe" fill-rule="evenodd" stroke="none"/>
    <path d="M-2.2 0.0 L-2.2 -0.1 -2.05 0.0 -1.8 0.15 Q-1.7 0.15 -1.65 0.2 L-1.6 0.25 -1.55 0.25 -1.45 0.25 -1.45 0.3 -1.55 0.3 -1.6 0.3 -1.8 0.2 -2.0 0.15 -2.2 0.0" fill="#f090fe" fill-rule="evenodd" stroke="none"/>
    <path d="M-1.5 0.5 L-1.5 0.55 -1.55 0.5 -1.5 0.5 -1.5 0.5" fill="#feebfe" fill-rule="evenodd" stroke="none"/>
    <path d="M-2.2 0.25 L-2.2 0.15 -2.05 0.25 -1.95 0.35 -1.85 0.35 -1.7 0.45 -1.55 0.4 -1.35 0.45 -1.3 0.45 -1.25 0.4 -1.1 0.4 -1.05 0.4 -1.2 0.45 -1.3 0.5 -1.4 0.5 Q-1.45 0.45 -1.5 0.5 L-1.5 0.5 -1.55 0.5 -1.6 0.5 -1.7 0.5 -2.0 0.4 -2.1 0.35 -2.2 0.25" fill="#984cfe" fill-rule="evenodd" stroke="none"/>
    <path d="M-1.1 0.4 L-1.05 0.35 -1.0 0.35 -1.0 0.4 -1.1 0.4" fill="#fdd5fe" fill-rule="evenodd" stroke="none"/>
    <path d="M-1.9 0.6 L-1.95 0.65 Q-2.0 0.65 -2.0 0.6 L-1.95 0.55 Q-1.95 0.55 -1.9 0.6" fill="#eab8ff" fill-rule="evenodd" stroke="none"/>
    <path d="M-1.55 0.6 Q-1.55 0.65 -1.6 0.65 -1.6 0.65 -1.65 0.6 L-1.6 0.55 Q-1.6 0.55 -1.55 0.6" fill="#f4cefe" fill-rule="evenodd" stroke="none"/>
    <path d="M-1.6 0.85 L-1.6 0.85 -1.55 0.85 -1.6 0.85" fill="#efc2fe" fill-rule="evenodd" stroke="none"/>
    <path d="M-2.2 1.8 L-2.2 1.4 -2.1 1.4 -2.0 1.45 -1.95 1.35 -1.95 1.25 -1.85 1.15 Q-1.8 1.1 -1.8 1.05 L-1.7 1.1 -1.55 1.1 -1.1 1.35 Q-1.05 1.25 -0.95 1.25 -0.85 1.25 -0.85 1.35 L-0.8 1.45 -0.7 1.45 -0.65 1.5 -0.45 1.55 Q-0.35 1.55 -0.35 1.7 -0.4 1.75 -0.35 1.9 L-0.3 2.0 -0.3 2.1 Q-0.4 1.95 -0.45 1.75 L-0.45 1.65 Q-0.55 1.6 -0.65 1.55 L-0.9 1.45 -0.9 1.4 -0.85 1.35 -0.85 1.35 -0.9 1.3 Q-0.9 1.25 -0.95 1.3 L-1.0 1.35 Q-1.0 1.4 -1.1 1.4 L-1.2 1.35 Q-1.3 1.35 -1.45 1.25 L-1.55 1.15 Q-1.6 1.15 -1.65 1.1 -1.75 1.1 -1.85 1.2 -1.9 1.3 -1.9 1.4 -1.85 1.5 -2.0 1.55 L-2.05 1.6 -2.1 1.7 -2.1 1.75 -2.2 1.8" fill="#502dde" fill-rule="evenodd" stroke="none"/>
    <path d="M-1.85 2.2 L-1.95 2.2 -2.0 2.05 -2.1 2.0 -2.1 1.95 -2.05 1.95 -2.0 1.8 -1.9 1.65 -1.85 1.6 Q-1.8 1.55 -1.8 1.5 L-1.85 1.35 Q-1.85 1.25 -1.75 1.2 L-1.7 1.15 Q-1.7 1.2 -1.7 1.2 L-1.8 1.3 Q-1.85 1.4 -1.8 1.45 -1.75 1.55 -1.8 1.6 L-1.9 1.7 -1.95 1.8 Q-1.95 1.85 -1.95 2.0 L-1.85 2.2" fill="#9856fe" fill-rule="evenodd" stroke="none"/>
    <path d="M-2.2 1.9 L-2.2 1.8 -2.1 1.75 -2.1 1.7 -2.05 1.6 -2.0 1.55 Q-1.85 1.5 -1.9 1.4 -1.9 1.3 -1.85 1.2 -1.75 1.1 -1.65 1.1 -1.6 1.15 -1.55 1.15 L-1.45 1.25 Q-1.3 1.35 -1.2 1.35 L-1.1 1.4 Q-1.0 1.4 -1.0 1.35 L-1.0 1.4 -0.9 1.4 -0.85 1.35 -0.9 1.4 -0.9 1.45 -0.65 1.55 Q-0.55 1.6 -0.45 1.65 L-0.45 1.75 Q-0.4 1.95 -0.3 2.1 L-0.25 2.15 -0.3 2.1 -0.35 2.05 -0.45 1.9 -0.45 1.8 -0.5 1.7 Q-0.6 1.6 -0.7 1.55 L-0.95 1.5 -1.3 1.4 Q-1.35 1.4 -1.45 1.3 L-1.5 1.25 Q-1.55 1.2 -1.6 1.2 L-1.65 1.15 -1.7 1.15 -1.75 1.2 Q-1.85 1.2 -1.85 1.35 L-1.85 1.55 -1.9 1.6 -2.0 1.65 -2.05 1.8 Q-2.1 1.85 -2.2 1.9 M-1.65 1.15 L-1.65 1.15 M-1.6 1.2 L-1.6 1.2 M-1.0 1.35 L-1.0 1.35" fill="#6438f1" fill-rule="evenodd" stroke="none"/>
    <path d="M-1.8 1.45 Q-1.85 1.4 -1.8 1.3 L-1.7 1.2 Q-1.7 1.2 -1.7 1.15 L-1.65 1.15 -1.6 1.2 -1.6 1.25 -1.5 1.3 -1.55 1.3 Q-1.6 1.25 -1.65 1.25 L-1.75 1.25 -1.8 1.3 -1.75 1.45 -1.75 1.5 -1.7 1.5 -1.75 1.55 -1.8 1.45 M-1.65 1.15 L-1.65 1.15" fill="#e48ffe" fill-rule="evenodd" stroke="none"/>
    <path d="M-1.65 1.15 L-1.65 1.15 -1.65 1.15" fill="#ffecfe" fill-rule="evenodd" stroke="none"/>
    <path d="M-1.6 1.2 L-1.6 1.2 -1.45 1.35 -1.3 1.45 -1.1 1.5 -0.9 1.6 Q-0.55 1.6 -0.5 1.8 L-0.45 2.0 -0.5 1.85 -0.6 1.7 Q-0.65 1.65 -0.8 1.6 L-0.95 1.6 -1.05 1.6 -1.3 1.5 -1.5 1.35 -1.5 1.3 -1.6 1.25 -1.6 1.2" fill="#a056fe" fill-rule="evenodd" stroke="none"/>
    <path d="M-1.3 0.85 L-1.3 0.8 -1.25 0.75 -1.2 0.75 -1.15 0.8 Q-1.1 0.85 -1.15 0.9 L-1.25 0.9 -1.25 0.85 -1.2 0.85 -1.15 0.8 Q-1.15 0.75 -1.25 0.75 -1.3 0.8 -1.3 0.85" fill="#be6bfe" fill-rule="evenodd" stroke="none"/>
    <path d="M-1.25 0.85 L-1.3 0.85 Q-1.3 0.8 -1.25 0.75 -1.15 0.75 -1.15 0.8 L-1.2 0.85 -1.25 0.85" fill="#fdeffe" fill-rule="evenodd" stroke="none"/>
    <path d="M-1.6 1.2 Q-1.55 1.2 -1.5 1.25 L-1.45 1.3 Q-1.35 1.4 -1.3 1.4 L-0.95 1.5 -0.7 1.55 Q-0.6 1.6 -0.5 1.7 L-0.45 1.8 -0.45 1.9 -0.35 2.05 -0.45 2.05 -0.45 2.0 -0.5 1.8 Q-0.55 1.6 -0.9 1.6 L-1.1 1.5 -1.3 1.45 -1.45 1.35 -1.6 1.2" fill="#8145fc" fill-rule="evenodd" stroke="none"/>
    <path d="M-0.25 2.2 L-0.3 2.2 -0.3 2.15 -0.35 2.1 -0.4 2.1 -0.4 2.2 -0.65 2.2 Q-0.65 2.15 -0.6 2.15 L-0.5 2.1 Q-0.5 2.05 -0.5 1.95 L-0.55 1.8 -0.65 1.7 Q-0.7 1.65 -0.85 1.65 L-0.95 1.65 -1.05 1.65 -1.4 1.5 -1.45 1.45 -1.5 1.35 -1.3 1.5 -1.05 1.6 -0.95 1.6 -0.8 1.6 Q-0.65 1.65 -0.6 1.7 L-0.5 1.85 -0.45 2.0 -0.45 2.05 -0.35 2.05 -0.3 2.1 -0.25 2.15 -0.25 2.2" fill="#bc65fe" fill-rule="evenodd" stroke="none"/>
    <path d="M-1.5 1.35 L-1.45 1.45 -1.4 1.5 -1.05 1.65 -0.95 1.65 -0.85 1.65 Q-0.7 1.65 -0.65 1.7 L-0.55 1.8 -0.5 1.95 -0.65 1.8 Q-0.7 1.7 -0.8 1.65 L-0.85 1.65 -1.05 1.7 -1.2 1.6 -1.35 1.55 -1.45 1.55 -1.5 1.45 -1.5 1.3 -1.5 1.35" fill="#e092fe" fill-rule="evenodd" stroke="none"/>
    <path d="M-1.5 1.3 L-1.5 1.45 -1.45 1.55 -1.35 1.55 -1.2 1.6 -1.05 1.7 -0.85 1.65 Q-0.85 1.75 -0.95 1.75 L-1.05 1.75 -1.15 1.7 -1.2 1.7 -1.25 1.65 -1.4 1.6 -1.6 1.6 -1.65 1.55 -1.7 1.5 -1.75 1.5 -1.75 1.45 Q-1.7 1.45 -1.65 1.5 L-1.55 1.45 -1.55 1.3 -1.5 1.3" fill="#fac8fe" fill-rule="evenodd" stroke="none"/>
    <path d="M-1.55 1.3 L-1.55 1.45 -1.65 1.5 Q-1.7 1.45 -1.75 1.45 L-1.8 1.3 -1.75 1.25 -1.65 1.25 Q-1.6 1.25 -1.55 1.3" fill="#fff7ff" fill-rule="evenodd" stroke="none"/>
    <path d="M-1.95 2.2 L-2.2 2.2 -2.2 1.9 Q-2.1 1.85 -2.05 1.8 L-2.0 1.65 -1.9 1.6 -1.85 1.55 -1.85 1.35 Q-1.85 1.2 -1.75 1.2 -1.85 1.25 -1.85 1.35 L-1.8 1.5 Q-1.8 1.55 -1.85 1.6 L-1.9 1.65 -2.0 1.8 -2.05 1.95 -2.1 1.95 -2.1 2.0 -2.0 2.05 -1.95 2.2" fill="#7844f6" fill-rule="evenodd" stroke="none"/>
    <path d="M-1.8 2.2 L-1.85 2.2 -1.95 2.0 Q-1.95 1.85 -1.95 1.8 L-1.9 1.7 -1.8 1.6 Q-1.75 1.55 -1.8 1.45 L-1.75 1.55 -1.75 1.6 Q-1.9 1.7 -1.9 1.9 -1.9 2.05 -1.8 2.2" fill="#b66cfe" fill-rule="evenodd" stroke="none"/>
    <path d="M-1.55 2.2 L-1.65 2.2 -1.7 2.1 -1.8 2.0 -1.75 1.6 Q-1.65 1.7 -1.7 1.8 -1.75 1.9 -1.7 2.0 L-1.55 2.2" fill="#fdd1fe" fill-rule="evenodd" stroke="none"/>
    <path d="M-1.7 2.2 L-1.8 2.2 Q-1.9 2.05 -1.9 1.9 -1.9 1.7 -1.75 1.6 L-1.75 1.65 Q-1.85 1.75 -1.85 1.9 -1.8 2.1 -1.7 2.2" fill="#d286ff" fill-rule="evenodd" stroke="none"/>
    <path d="M-1.65 2.2 L-1.7 2.2 Q-1.8 2.1 -1.85 1.9 -1.85 1.75 -1.75 1.65 L-1.75 1.6 -1.8 2.0 -1.7 2.1 -1.65 2.2 M-1.75 1.55 L-1.75 1.6 -1.75 1.55" fill="#eca6fe" fill-rule="evenodd" stroke="none"/>
    <path d="M-0.8 2.2 L-0.85 2.2 -1.05 2.15 Q-1.2 2.1 -1.25 2.2 L-1.4 2.2 -1.25 2.1 -1.15 2.05 -0.8 2.15 -0.7 2.1 -0.6 2.1 -0.8 2.2" fill="#fedfff" fill-rule="evenodd" stroke="none"/>
    <path d="M-0.85 2.2 L-1.25 2.2 Q-1.2 2.1 -1.05 2.15 L-0.85 2.2" fill="#f4b0fe" fill-rule="evenodd" stroke="none"/>
    <path d="M0.0 1.65 L-0.1 1.75 -0.2 1.85 -0.25 1.85 -0.3 1.85 -0.3 1.75 -0.25 1.65 -0.1 1.65 Q-0.05 1.65 0.0 1.65" fill="#3a219d" fill-rule="evenodd" stroke="none"/>
    <path d="M-1.0 1.35 L-0.95 1.3 Q-0.9 1.25 -0.9 1.3 L-0.85 1.35 -0.85 1.35 -0.9 1.4 -1.0 1.4 -0.9 1.35 Q-0.9 1.3 -0.95 1.3 L-1.0 1.35 -1.0 1.35" fill="#aa58fe" fill-rule="evenodd" stroke="none"/>
    <path d="M-1.0 1.4 L-1.0 1.35 -0.95 1.3 Q-0.9 1.3 -0.9 1.35 L-1.0 1.4" fill="#f9cdfe" fill-rule="evenodd" stroke="none"/>
    <path d="M-0.65 2.2 L-0.8 2.2 -0.6 2.1 -0.55 2.1 Q-0.5 2.05 -0.5 2.0 L-0.6 1.9 -0.7 1.75 -0.75 1.75 -0.8 1.65 Q-0.7 1.7 -0.65 1.8 L-0.5 1.95 Q-0.5 2.05 -0.5 2.1 L-0.6 2.15 Q-0.65 2.15 -0.65 2.2" fill="#fab5ff" fill-rule="evenodd" stroke="none"/>
    <path d="M-0.3 2.2 L-0.4 2.2 -0.4 2.1 -0.35 2.1 -0.3 2.15 -0.3 2.2" fill="#fee1fe" fill-rule="evenodd" stroke="none"/>
  </g>
</svg>
