<?xml version="1.0" encoding="UTF-8" standalone="no"?>
<svg xmlns:xlink="http://www.w3.org/1999/xlink" height="3.5px" width="2.35px" xmlns="http://www.w3.org/2000/svg">
  <g transform="matrix(1.0, 0.0, 0.0, 1.0, 1.1, 1.85)">
    <path d="M-0.15 -1.75 L-0.15 -1.65 -0.15 -1.6 -0.2 -1.4 -0.2 -1.25 -0.2 -1.05 -0.2 -0.9 -0.2 -0.85 -0.25 -0.7 -0.25 -0.6 -0.2 -0.5 -0.2 -0.4 -0.15 -0.25 -0.1 -0.25 -0.05 -0.2 Q0.0 -0.15 0.0 -0.2 L0.05 -0.25 0.1 -0.3 0.15 -0.4 0.2 -0.45 0.3 -0.55 0.35 -0.6 0.35 -0.6 0.4 -0.6 0.4 -0.65 0.45 -0.65 0.45 -0.7 0.5 -0.75 0.55 -0.8 0.55 -0.9 0.6 -0.95 0.6 -1.0 0.6 -1.05 0.65 -1.2 0.65 -1.4 0.65 -1.5 0.65 -1.6 0.7 -1.55 0.7 -1.55 0.75 -1.5 0.75 -1.5 0.8 -1.4 0.8 -1.3 0.8 -1.05 0.75 -1.05 0.7 -0.9 0.7 -0.85 0.65 -0.75 0.65 -0.7 0.6 -0.6 0.55 -0.55 0.55 -0.4 0.5 -0.3 0.45 -0.25 0.45 -0.25 0.45 -0.2 0.4 -0.1 0.35 -0.1 0.35 -0.05 0.3 0.05 0.3 0.1 0.3 0.25 0.35 0.5 0.35 0.55 0.4 0.75 Q0.35 0.8 0.35 0.8 L0.35 0.85 0.35 0.95 0.25 1.05 0.25 1.1 0.15 1.2 0.1 1.2 0.05 1.25 0.0 1.25 0.0 1.25 -0.05 1.2 -0.15 1.15 -0.2 1.1 -0.25 1.05 -0.25 1.05 -0.3 1.0 -0.3 0.95 -0.35 0.9 -0.35 0.9 -0.45 0.7 -0.45 0.7 -0.5 0.65 -0.5 0.65 Q-0.6 0.5 -0.55 0.4 L-0.55 0.35 -0.5 0.3 -0.4 0.2 -0.4 0.15 -0.35 0.0 -0.3 -0.1 -0.3 -0.3 -0.3 -0.4 Q-0.3 -0.45 -0.3 -0.45 L-0.3 -0.55 -0.35 -0.7 -0.35 -0.9 -0.4 -1.05 -0.45 -1.3 -0.45 -1.4 -0.45 -1.45 -0.45 -1.5 -0.4 -1.55 -0.2 -1.7 -0.15 -1.7 -0.15 -1.75 M0.45 -0.25 L0.45 -0.25" fill="#343129" fill-rule="evenodd" stroke="none"/>
    <path d="M-0.15 -1.75 L-0.1 -1.75 -0.05 -1.75 0.0 -1.8 0.1 -1.8 0.1 -1.8 0.3 -1.75 0.35 -1.75 0.35 -1.75 0.4 -1.7 0.5 -1.7 Q0.7 -1.7 0.85 -1.6 0.95 -1.55 1.05 -1.3 L1.15 -0.9 1.1 -0.95 1.1 -1.0 1.05 -1.05 1.05 -1.05 1.0 -1.15 1.0 -1.15 0.95 -1.25 0.9 -1.3 0.9 -1.3 0.85 -1.35 0.8 -1.4 0.75 -1.5 0.75 -1.5 0.7 -1.55 0.7 -1.55 0.65 -1.6 0.65 -1.5 0.65 -1.4 0.65 -1.2 0.6 -1.05 0.6 -1.0 0.6 -0.95 0.55 -0.9 0.55 -0.8 0.5 -0.75 0.45 -0.7 0.45 -0.65 0.4 -0.65 0.4 -0.6 0.35 -0.6 0.35 -0.6 0.3 -0.55 0.2 -0.45 0.15 -0.4 0.1 -0.3 0.05 -0.25 0.0 -0.2 Q0.0 -0.15 -0.05 -0.2 L-0.1 -0.25 -0.15 -0.25 -0.2 -0.4 -0.2 -0.5 -0.25 -0.6 -0.25 -0.7 -0.2 -0.85 -0.2 -0.9 -0.2 -1.05 -0.2 -1.25 -0.2 -1.4 -0.15 -1.6 -0.15 -1.65 -0.15 -1.75" fill="#1e1d1c" fill-rule="evenodd" stroke="none"/>
    <path d="M-0.85 0.75 L-0.9 0.7 -0.9 0.65 -0.95 0.55 -1.0 0.35 -1.0 0.25 -1.05 0.2 -1.05 0.1 -0.8 -0.5 -0.5 -1.25 -0.5 -1.35 -0.5 -1.4 -0.45 -1.45 -0.45 -1.4 -0.45 -1.3 -0.4 -1.05 -0.35 -0.9 -0.35 -0.7 -0.3 -0.55 -0.3 -0.45 Q-0.3 -0.45 -0.3 -0.4 L-0.3 -0.3 -0.3 -0.1 -0.35 0.0 -0.4 0.15 -0.4 0.2 -0.5 0.3 -0.55 0.35 -0.55 0.4 Q-0.6 0.5 -0.5 0.65 L-0.5 0.65 -0.45 0.7 -0.45 0.7 -0.35 0.9 -0.35 0.9 -0.3 0.95 -0.3 1.0 -0.25 1.05 -0.3 1.0 -0.35 0.95 -0.35 0.95 Q-0.4 1.0 -0.35 1.05 L-0.3 1.1 -0.3 1.15 Q-0.25 1.15 -0.25 1.2 L-0.2 1.3 -0.2 1.3 -0.15 1.35 -0.2 1.4 -0.25 1.4 -0.3 1.35 -0.35 1.3 -0.4 1.25 -0.45 1.25 -0.55 1.05 -0.6 1.0 -0.6 1.0 -0.65 0.95 -0.65 0.9 -0.7 0.9 -0.75 0.85 -0.8 0.8 -0.85 0.75 -0.85 0.75 M0.45 -0.25 L0.45 -0.25 0.5 -0.3 0.55 -0.4 0.55 -0.55 0.6 -0.6 0.65 -0.7 0.65 -0.75 0.7 -0.85 0.75 -0.85 0.75 -0.85 0.8 -0.8 0.8 -0.75 0.8 -0.6 0.8 -0.5 0.8 -0.45 0.85 -0.4 0.85 -0.35 0.85 -0.2 0.85 -0.15 0.9 -0.1 0.85 0.0 0.9 0.05 0.95 0.15 1.0 0.15 0.95 0.3 0.9 0.4 0.9 0.5 0.85 0.55 0.8 0.65 0.75 0.65 0.75 0.7 0.65 0.8 0.6 0.85 0.55 0.9 0.5 0.95 0.45 1.0 0.45 1.15 0.4 1.2 0.35 1.25 0.3 1.25 0.25 1.3 0.25 1.25 0.2 1.25 0.15 1.2 0.1 1.2 0.15 1.2 0.25 1.1 0.25 1.05 0.35 0.95 0.35 0.85 0.35 0.8 Q0.35 0.8 0.4 0.75 L0.35 0.55 0.35 0.5 0.3 0.25 0.3 0.1 0.3 0.05 0.35 -0.05 0.35 -0.1 0.4 -0.1 0.45 -0.2 0.45 -0.25 0.45 -0.25" fill="#3f3c39" fill-rule="evenodd" stroke="none"/>
    <path d="M0.8 -1.4 L0.85 -1.35 0.9 -1.3 0.9 -1.3 0.95 -1.25 1.0 -1.15 1.0 -1.15 1.05 -1.05 1.05 -1.05 1.1 -1.0 1.1 -0.95 1.15 -0.9 1.15 -0.9 1.15 -0.4 1.1 -0.05 1.1 0.05 1.15 0.45 1.2 0.55 Q1.1 0.85 1.1 1.1 L0.95 1.25 Q0.75 1.4 0.6 1.45 L0.6 1.5 0.55 1.5 0.5 1.55 0.35 1.55 0.3 1.55 0.2 1.55 0.15 1.55 0.0 1.55 -0.05 1.55 -0.05 1.55 -0.1 1.55 -0.15 1.55 -0.2 1.55 -0.25 1.5 -0.3 1.45 -0.3 1.45 -0.4 1.4 -0.45 1.35 -0.5 1.25 -0.55 1.2 -0.6 1.2 -0.65 1.1 -0.65 1.1 -0.7 0.95 -0.75 0.95 -0.75 0.9 -0.8 0.85 -0.85 0.75 -0.85 0.75 -0.8 0.8 -0.75 0.85 -0.7 0.9 -0.65 0.9 -0.65 0.95 -0.6 1.0 -0.6 1.0 -0.55 1.05 -0.45 1.25 -0.4 1.25 -0.35 1.3 -0.3 1.35 -0.25 1.4 -0.2 1.4 -0.15 1.35 -0.2 1.3 -0.2 1.3 -0.25 1.2 Q-0.25 1.15 -0.3 1.15 L-0.3 1.1 -0.35 1.05 Q-0.4 1.0 -0.35 0.95 L-0.35 0.95 -0.3 1.0 -0.25 1.05 -0.25 1.05 -0.2 1.1 -0.15 1.15 -0.05 1.2 0.0 1.25 0.0 1.25 0.05 1.25 0.1 1.2 0.15 1.2 0.2 1.25 0.25 1.25 0.25 1.3 0.3 1.25 0.35 1.25 0.4 1.2 0.45 1.15 0.45 1.0 0.5 0.95 0.55 0.9 0.6 0.85 0.65 0.8 0.75 0.7 0.75 0.65 0.8 0.65 0.85 0.55 0.9 0.5 0.9 0.4 0.95 0.3 1.0 0.15 0.95 0.15 0.9 0.05 0.85 0.0 0.9 -0.1 0.85 -0.15 0.85 -0.2 0.85 -0.35 0.85 -0.4 0.8 -0.45 0.8 -0.5 0.8 -0.6 0.8 -0.75 0.8 -0.8 0.75 -0.85 0.75 -0.85 0.7 -0.85 0.7 -0.9 0.75 -1.05 0.8 -1.05 0.8 -1.3 0.8 -1.4" fill="#2e2621" fill-rule="evenodd" stroke="none"/>
    <path d="M1.15 -0.9 L1.05 -1.3 Q0.95 -1.55 0.85 -1.6 0.7 -1.7 0.5 -1.7 L0.4 -1.7 0.35 -1.75 0.35 -1.75 0.3 -1.75 0.1 -1.8 0.1 -1.8 0.0 -1.8 -0.05 -1.75 -0.1 -1.75 -0.15 -1.75 -0.15 -1.7 -0.2 -1.7 -0.4 -1.55 -0.45 -1.5 -0.45 -1.45 -0.5 -1.4 -0.5 -1.35 -0.5 -1.25 -0.8 -0.5 -1.05 0.1 -1.05 0.2 -1.0 0.25 -1.0 0.35 -0.95 0.55 -0.9 0.65 -0.9 0.7 -0.85 0.75 -0.8 0.85 -0.75 0.9 -0.75 0.95 -0.7 0.95 -0.65 1.1 -0.65 1.1 -0.6 1.2 -0.55 1.2 -0.5 1.25 -0.45 1.35 -0.4 1.4 -0.3 1.45 -0.3 1.45 -0.25 1.5 -0.2 1.55 -0.15 1.55 -0.1 1.55 -0.05 1.55 -0.05 1.55 0.0 1.55 0.15 1.55 0.2 1.55 0.3 1.55 0.35 1.55 0.5 1.55 0.55 1.5 0.6 1.5 0.6 1.45 Q0.75 1.4 0.95 1.25 L1.1 1.1 Q1.1 0.85 1.2 0.55 L1.15 0.45 1.1 0.05 1.1 -0.05 1.15 -0.4 1.15 -0.9 1.15 -0.9 Z" fill="none" stroke="#000000" stroke-linecap="round" stroke-linejoin="round" stroke-opacity="0.4509804" stroke-width="0.1"/>
  </g>
</svg>
