<?xml version="1.0" encoding="UTF-8" standalone="no"?>
<svg xmlns:xlink="http://www.w3.org/1999/xlink" height="9.5px" width="4.0px" xmlns="http://www.w3.org/2000/svg">
  <g transform="matrix(1.0, 0.0, 0.0, 1.0, 1.95, 4.75)">
    <path d="M1.25 0.85 L1.25 0.8 1.2 0.75 1.2 0.7 1.25 0.8 1.25 0.7 1.15 0.65 1.15 0.6 1.2 0.5 1.2 0.4 1.2 0.25 1.25 0.3 1.25 0.5 1.3 0.55 1.35 0.5 1.45 0.45 Q1.5 0.4 1.55 0.3 L1.5 0.15 1.5 0.05 1.55 -0.05 1.55 -0.3 1.6 -0.55 1.55 -0.65 1.55 -0.8 Q1.5 -0.9 1.55 -1.1 L1.55 -1.7 Q1.55 -1.9 1.45 -2.15 L1.3 -2.4 1.35 -2.6 1.5 -2.75 1.5 -2.95 1.55 -3.1 1.6 -3.45 1.4 -3.9 1.4 -3.9 1.35 -3.95 Q1.1 -4.4 0.7 -4.45 -0.05 -4.5 -0.7 -3.85 -1.25 -3.3 -1.3 -2.5 L-1.35 -2.3 -1.25 -2.3 Q-1.2 -2.3 -1.2 -2.35 L-1.1 -2.45 -1.05 -2.5 -1.0 -2.5 -1.0 -2.5 -0.95 -2.5 -0.9 -2.6 -0.9 -2.55 -0.85 -2.45 -0.85 -2.4 -0.9 -2.25 -0.8 -2.35 Q-0.75 -2.35 -0.7 -2.45 L-0.65 -2.55 -0.55 -2.65 -0.4 -2.75 -0.45 -2.75 Q-0.5 -2.55 -0.3 -2.55 L-0.2 -2.55 -0.1 -2.65 0.0 -2.75 0.1 -2.75 0.2 -2.8 Q0.2 -2.75 0.25 -2.8 L0.3 -2.85 0.3 -2.85 0.4 -2.9 0.45 -2.85 0.55 -2.8 0.6 -2.8 0.5 -2.7 0.45 -2.7 0.4 -2.65 0.3 -2.6 0.25 -2.55 0.2 -2.5 -0.4 -2.1 -0.5 -2.1 -0.55 -2.05 -0.65 -2.0 -0.7 -1.95 -0.8 -1.8 -0.85 -1.7 -0.8 -1.75 -0.7 -1.8 -0.55 -1.85 -0.25 -1.95 -0.2 -1.95 -0.2 -1.95 -0.15 -1.9 -0.15 -1.9 -0.1 -1.9 -0.1 -1.9 -0.05 -1.95 0.0 -1.95 0.0 -1.95 0.1 -1.95 0.15 -2.0 0.15 -1.95 -0.2 -1.75 -0.35 -1.55 -0.5 -1.5 -0.55 -1.5 -0.75 -1.45 -0.85 -1.4 -0.9 -1.35 -0.85 -1.3 -0.85 -1.25 -0.95 -1.15 -0.95 -1.15 -0.9 -1.15 -0.7 -1.25 -0.6 -1.25 -0.45 -1.25 Q-0.45 -1.25 -0.35 -1.3 L-0.25 -1.3 -0.15 -1.3 -0.05 -1.25 0.0 -1.25 0.15 -1.2 0.15 -1.2 0.05 -1.15 -0.05 -1.15 -0.15 -1.2 -0.25 -1.1 -0.1 -1.1 -0.05 -1.1 0.0 -1.1 0.35 -1.05 0.5 -1.05 0.6 -0.95 0.45 -0.95 0.25 -0.95 0.15 -0.95 -0.3 -0.9 -0.45 -0.95 -0.5 -0.95 -0.55 -0.9 -0.85 -0.75 -0.7 -0.65 -0.65 -0.6 -0.5 -0.55 -0.5 -0.5 -0.55 -0.45 -0.6 -0.4 -0.4 -0.35 -0.35 -0.3 -0.4 -0.25 -0.5 -0.2 -0.5 0.0 -0.45 0.1 Q-0.4 0.15 -0.4 0.15 L-0.35 0.2 -0.25 0.3 -0.25 0.3 -0.3 0.4 -0.35 0.5 -0.35 0.5 -0.35 0.55 -0.4 0.6 -0.4 0.65 -0.35 0.7 -0.5 0.75 Q-0.65 0.8 -0.65 0.9 -0.7 0.95 -0.75 1.15 L-0.7 1.15 -0.7 1.15 -0.75 1.25 -0.75 1.3 -0.8 1.3 -0.85 1.4 -0.85 1.45 -0.9 1.5 -0.95 1.5 -1.0 1.5 -1.1 1.1 -1.05 0.9 -1.05 0.65 -1.15 0.5 -1.15 0.25 -1.2 0.25 -1.2 0.1 Q-1.2 0.1 -1.2 0.05 L-1.25 -0.05 -1.35 -0.35 -1.4 -0.4 -1.4 -0.55 -1.5 -0.8 -1.5 -0.85 -1.5 -0.95 -1.5 -1.05 -1.5 -1.15 -1.55 -1.25 -1.6 -1.35 -1.7 -1.55 -1.65 -1.6 -1.7 -1.7 -1.75 -1.8 -1.7 -1.8 -1.8 -2.05 -1.85 -2.3 -1.9 -2.65 -1.9 -2.7 -1.85 -3.0 -1.8 -3.1 Q-1.7 -3.25 -1.7 -3.3 L-1.65 -3.5 -1.3 -4.0 Q-0.95 -4.35 -0.85 -4.35 -0.8 -4.35 -0.75 -4.4 L-0.6 -4.45 -0.45 -4.45 -0.3 -4.55 -0.25 -4.55 -0.2 -4.6 -0.05 -4.6 0.0 -4.6 0.1 -4.65 0.3 -4.65 Q0.5 -4.65 0.8 -4.55 L1.2 -4.35 1.5 -3.95 Q1.65 -3.6 1.65 -3.5 L1.7 -3.0 1.75 -2.7 1.8 -2.2 1.85 -1.9 1.9 -1.65 1.9 -1.45 1.85 -0.95 1.85 -0.85 1.85 -0.75 1.85 -0.85 1.75 -1.15 Q1.7 -1.3 1.7 -1.45 L1.7 -1.55 1.65 -1.9 1.6 -2.0 1.6 -2.25 1.55 -2.4 1.55 -2.35 1.5 -2.25 1.5 -2.15 1.55 -2.05 1.55 -1.8 1.6 -1.65 1.6 -1.55 1.6 -1.05 1.6 -0.9 1.65 -0.65 1.65 -0.5 1.6 -0.25 1.65 0.0 Q1.7 0.2 1.75 0.35 L1.8 0.4 1.9 0.55 1.7 1.15 1.7 1.35 1.65 1.5 1.6 1.6 1.5 1.95 Q1.4 2.2 1.4 2.5 L1.4 2.65 1.45 3.05 1.35 3.35 1.35 3.55 1.4 3.6 1.4 3.7 1.3 3.95 1.25 4.05 1.2 4.15 1.15 4.25 Q1.15 4.25 1.1 4.25 L1.15 4.05 1.15 4.0 1.1 3.9 1.05 3.85 1.05 3.75 0.95 3.55 0.95 3.5 1.15 3.3 Q1.2 3.15 1.15 3.1 1.2 2.95 1.3 2.9 L1.35 2.85 1.35 2.8 Q1.4 2.65 1.35 2.55 L1.3 2.45 1.3 2.4 1.35 2.3 1.35 2.25 1.3 2.15 1.15 2.05 1.15 1.8 1.1 1.75 1.15 1.7 1.25 1.7 1.25 1.65 1.2 1.55 1.15 1.5 1.2 1.2 1.25 1.1 1.25 1.05 1.25 0.9 1.3 0.9 1.25 0.85 M-0.8 1.55 L-0.8 1.55 -0.7 1.5 -0.6 1.4 -0.6 1.4 -0.55 1.4 -0.5 1.4 -0.65 1.5 -0.7 1.55 -0.7 1.55 -0.75 1.6 -0.75 1.65 -0.7 1.65 -0.7 1.65 Q-0.6 1.7 -0.65 1.75 L-0.65 1.85 -0.7 1.9 -0.7 2.0 -0.65 2.1 -0.65 2.1 -0.6 2.15 -0.6 2.15 -0.65 2.35 -0.6 2.45 -0.45 2.55 -0.4 2.65 -0.45 2.65 -0.45 2.75 -0.45 2.8 -0.4 2.9 -0.4 3.05 -0.35 3.05 -0.3 3.15 -0.25 3.2 -0.3 3.2 -0.35 3.15 -0.35 3.2 -0.4 3.2 -0.4 3.25 -0.4 3.25 -0.3 3.35 -0.3 3.35 -0.2 3.35 -0.15 3.3 0.05 3.15 0.25 3.05 0.25 3.15 Q0.15 3.3 0.0 3.35 L0.0 3.4 -0.05 3.45 0.0 3.5 0.2 3.55 0.1 3.65 0.1 3.9 0.05 4.0 0.05 4.05 0.0 4.3 0.0 4.4 0.05 4.4 0.1 4.45 0.45 4.55 0.5 4.55 0.65 4.55 0.55 4.6 Q0.4 4.7 0.3 4.7 L0.1 4.75 -0.15 4.65 Q-0.25 4.65 -0.45 4.35 L-0.65 3.95 -0.75 3.55 -0.8 3.4 Q-0.8 3.3 -0.8 3.2 L-0.85 3.05 Q-0.85 2.95 -0.9 2.85 L-0.9 2.85 -0.9 2.75 -1.0 2.65 -1.0 2.6 -1.05 2.5 -1.0 2.3 -0.95 2.1 -0.9 2.0 -0.95 1.6 -0.95 1.6 -0.9 1.55 -0.85 1.55 -0.85 1.55 -0.8 1.55 M-0.75 1.6 L-0.8 1.6 -0.8 1.65 -0.95 1.75 -0.75 1.6" fill="#3f3937" fill-rule="evenodd" stroke="none"/>
    <path d="M-0.85 1.45 L-0.85 1.4 -0.8 1.3 -0.75 1.3 -0.75 1.25 -0.7 1.15 -0.7 1.15 -0.75 1.15 Q-0.7 0.95 -0.65 0.9 -0.65 0.8 -0.5 0.75 L-0.35 0.7 -0.4 0.65 -0.4 0.6 -0.35 0.55 -0.35 0.5 -0.35 0.5 -0.3 0.4 -0.25 0.3 -0.25 0.3 -0.35 0.2 -0.4 0.15 Q-0.4 0.15 -0.45 0.1 L-0.5 0.0 -0.5 -0.2 -0.4 -0.25 -0.35 -0.3 -0.4 -0.35 -0.6 -0.4 -0.55 -0.45 -0.5 -0.5 -0.5 -0.55 -0.65 -0.6 -0.7 -0.65 -0.85 -0.75 -0.55 -0.9 -0.5 -0.95 -0.45 -0.95 -0.3 -0.9 0.15 -0.95 0.25 -0.95 0.45 -0.95 0.6 -0.95 0.5 -1.05 0.35 -1.05 0.0 -1.1 -0.05 -1.1 -0.1 -1.1 -0.25 -1.1 -0.15 -1.2 -0.05 -1.15 0.05 -1.15 0.15 -1.2 0.15 -1.2 0.0 -1.25 -0.05 -1.25 -0.15 -1.3 -0.25 -1.3 -0.35 -1.3 Q-0.45 -1.25 -0.45 -1.25 L-0.6 -1.25 -0.7 -1.25 -0.9 -1.15 -0.95 -1.15 -0.95 -1.15 -0.85 -1.25 -0.85 -1.3 -0.9 -1.35 -0.85 -1.4 -0.75 -1.45 -0.55 -1.5 -0.5 -1.5 -0.35 -1.55 -0.2 -1.75 0.15 -1.95 0.15 -2.0 0.1 -1.95 0.0 -1.95 0.0 -1.95 -0.05 -1.95 -0.1 -1.9 -0.1 -1.9 -0.15 -1.9 -0.15 -1.9 -0.2 -1.95 -0.2 -1.95 -0.25 -1.95 -0.55 -1.85 -0.7 -1.8 -0.8 -1.75 -0.85 -1.7 -0.8 -1.8 -0.7 -1.95 -0.65 -2.0 -0.55 -2.05 -0.5 -2.1 -0.4 -2.1 0.2 -2.5 0.25 -2.55 0.3 -2.6 0.4 -2.65 0.45 -2.7 0.5 -2.7 0.6 -2.8 0.55 -2.8 0.45 -2.85 0.4 -2.9 0.3 -2.85 0.3 -2.85 0.25 -2.8 Q0.2 -2.75 0.2 -2.8 L0.1 -2.75 0.0 -2.75 -0.1 -2.65 -0.2 -2.55 -0.3 -2.55 Q-0.5 -2.55 -0.45 -2.75 L-0.4 -2.75 -0.55 -2.65 -0.65 -2.55 -0.7 -2.45 Q-0.75 -2.35 -0.8 -2.35 L-0.9 -2.25 -0.85 -2.4 -0.85 -2.45 -0.9 -2.55 -0.9 -2.6 -0.95 -2.5 -1.0 -2.5 -1.0 -2.5 -1.05 -2.5 -1.1 -2.45 -1.2 -2.35 Q-1.2 -2.3 -1.25 -2.3 L-1.35 -2.3 -1.3 -2.5 Q-1.25 -3.3 -0.7 -3.85 -0.05 -4.5 0.7 -4.45 1.1 -4.4 1.35 -3.95 L1.4 -3.9 1.4 -3.9 1.6 -3.45 1.55 -3.1 1.5 -2.95 1.5 -2.75 1.35 -2.6 1.3 -2.4 1.45 -2.15 Q1.55 -1.9 1.55 -1.7 L1.55 -1.1 Q1.5 -0.9 1.55 -0.8 L1.55 -0.65 1.6 -0.55 1.55 -0.3 1.55 -0.05 1.5 0.05 1.5 0.15 1.55 0.3 Q1.5 0.4 1.45 0.45 L1.35 0.5 1.3 0.55 1.25 0.5 1.25 0.3 1.2 0.25 1.2 0.4 1.2 0.5 1.15 0.6 1.15 0.65 1.25 0.7 1.25 0.8 1.2 0.7 1.2 0.75 1.25 0.8 1.25 0.85 1.25 0.9 1.25 1.05 1.25 1.1 1.2 1.2 1.15 1.5 1.2 1.55 1.25 1.65 1.25 1.7 1.15 1.7 1.1 1.75 1.15 1.8 1.15 2.05 1.3 2.15 1.35 2.25 1.35 2.3 1.3 2.4 1.3 2.45 1.35 2.55 Q1.4 2.65 1.35 2.8 L1.35 2.85 1.3 2.9 Q1.2 2.95 1.15 3.1 1.2 3.15 1.15 3.3 L0.95 3.5 0.95 3.55 1.05 3.75 1.05 3.85 1.1 3.9 1.15 4.0 1.15 4.05 1.1 4.25 1.05 4.35 0.95 4.4 0.95 4.45 0.85 4.5 0.7 4.55 0.65 4.55 0.5 4.55 0.45 4.55 0.1 4.45 0.05 4.4 0.0 4.4 0.0 4.3 0.05 4.05 0.05 4.0 0.1 3.9 0.1 3.65 0.2 3.55 0.0 3.5 -0.05 3.45 0.0 3.4 0.0 3.35 Q0.15 3.3 0.25 3.15 L0.25 3.05 0.05 3.15 -0.15 3.3 -0.2 3.35 -0.3 3.35 -0.3 3.35 -0.4 3.25 -0.4 3.25 -0.4 3.2 -0.35 3.2 -0.35 3.15 -0.3 3.2 -0.25 3.2 -0.3 3.15 -0.35 3.05 -0.4 3.05 -0.4 2.9 -0.45 2.8 -0.45 2.75 -0.45 2.65 -0.4 2.65 -0.45 2.55 -0.6 2.45 -0.65 2.35 -0.6 2.15 -0.6 2.15 -0.65 2.1 -0.65 2.1 -0.7 2.0 -0.7 1.9 -0.65 1.85 -0.65 1.75 Q-0.6 1.7 -0.7 1.65 L-0.7 1.65 -0.75 1.65 -0.75 1.6 -0.7 1.55 -0.7 1.55 -0.65 1.5 -0.5 1.4 -0.55 1.4 -0.6 1.4 -0.6 1.4 -0.7 1.5 -0.8 1.55 -0.8 1.55 -0.85 1.5 -0.85 1.45 M1.9 0.55 L1.8 0.4 1.75 0.35 Q1.7 0.2 1.65 0.0 L1.6 -0.25 1.65 -0.5 1.65 -0.65 1.6 -0.9 1.6 -1.05 1.6 -1.55 1.6 -1.65 1.55 -1.8 1.55 -2.05 1.5 -2.15 1.5 -2.25 1.55 -2.35 1.55 -2.4 1.6 -2.25 1.6 -2.0 1.65 -1.9 1.7 -1.55 1.7 -1.45 Q1.7 -1.3 1.75 -1.15 L1.85 -0.85 1.85 -0.75 1.9 -0.6 1.9 -0.5 1.95 -0.1 1.95 0.0 1.95 0.3 1.9 0.35 1.9 0.55 M-0.75 1.6 L-0.75 1.6 M0.35 -0.05 L0.25 0.05 0.15 0.1 0.25 0.1 0.1 0.3 -0.1 0.45 -0.1 0.45 -0.05 0.35 -0.05 0.35 -0.15 0.45 -0.2 0.5 -0.2 0.6 -0.2 0.6 -0.2 0.7 -0.15 0.75 -0.15 0.8 -0.1 0.8 -0.1 0.95 -0.05 1.0 -0.05 0.95 -0.05 0.95 -0.1 0.8 -0.1 0.6 -0.1 0.55 -0.05 0.5 0.05 0.4 0.15 0.3 0.15 0.25 0.2 0.2 0.25 0.15 0.3 0.1 0.35 0.05 0.3 0.0 0.35 0.0 0.35 -0.05 M1.05 0.3 L1.1 0.25 1.0 0.15 0.85 0.15 0.9 0.25 0.95 0.3 1.0 0.35 1.05 0.3 M-0.15 0.4 L-0.1 0.3 -0.15 0.35 -0.2 0.4 -0.15 0.4 M-0.55 1.2 L-0.55 1.15 -0.65 1.2 -0.7 1.25 -0.7 1.25 -0.6 1.2 -0.55 1.2" fill="#5f4c43" fill-rule="evenodd" stroke="none"/>
    <path d="M1.25 0.85 L1.3 0.9 1.25 0.9 1.25 0.85 M-1.0 1.5 L-0.95 1.5 -0.9 1.5 -0.85 1.45 -0.85 1.5 -0.8 1.55 -0.85 1.55 -0.85 1.55 -0.9 1.55 -0.95 1.6 -0.95 1.6 -1.0 1.5 -1.0 1.5 M-0.75 1.6 L-0.75 1.6 -0.95 1.75 -0.8 1.65 -0.8 1.6 -0.75 1.6 M0.35 -0.05 L0.35 0.0 0.3 0.0 0.35 0.05 0.3 0.1 0.25 0.15 0.2 0.2 0.15 0.25 0.15 0.3 0.05 0.4 -0.05 0.5 -0.1 0.55 -0.1 0.6 -0.1 0.8 -0.05 0.95 -0.05 0.95 -0.05 1.0 -0.1 0.95 -0.1 0.8 -0.15 0.8 -0.15 0.75 -0.2 0.7 -0.2 0.6 -0.2 0.6 -0.2 0.5 -0.15 0.45 -0.05 0.35 -0.05 0.35 -0.1 0.45 -0.1 0.45 0.1 0.3 0.25 0.1 0.15 0.1 0.25 0.05 0.35 -0.05 M1.05 0.3 L1.0 0.35 0.95 0.3 0.9 0.25 0.85 0.15 1.0 0.15 1.1 0.25 1.05 0.3" fill="#5c4b43" fill-rule="evenodd" stroke="none"/>
    <path d="M-0.15 0.4 L-0.2 0.4 -0.15 0.35 -0.1 0.3 -0.15 0.4 M-0.55 1.2 L-0.6 1.2 -0.7 1.25 -0.7 1.25 -0.65 1.2 -0.55 1.15 -0.55 1.2" fill="#392f2e" fill-rule="evenodd" stroke="none"/>
    <path d="M1.2 4.15 L1.25 4.05 1.3 3.95 1.4 3.7 1.4 3.6 1.35 3.55 1.35 3.35 1.45 3.05 1.4 2.65 1.4 2.5 Q1.4 2.2 1.5 1.95 L1.6 1.6 1.65 1.5 1.7 1.35 1.7 1.15 1.9 0.55 1.9 0.35 1.95 0.3 1.95 0.0 1.95 -0.1 1.9 -0.5 1.9 -0.6 1.85 -0.75 1.85 -0.85 1.85 -0.95 1.9 -1.45 1.9 -1.65 1.85 -1.9 1.8 -2.2 1.75 -2.7 1.7 -3.0 1.65 -3.5 Q1.65 -3.6 1.5 -3.95 L1.2 -4.35 0.8 -4.55 Q0.5 -4.65 0.3 -4.65 L0.1 -4.65 0.0 -4.6 -0.05 -4.6 -0.2 -4.6 -0.25 -4.55 -0.3 -4.55 -0.45 -4.45 -0.6 -4.45 -0.75 -4.4 Q-0.8 -4.35 -0.85 -4.35 -0.95 -4.35 -1.3 -4.0 L-1.65 -3.5 -1.7 -3.3 Q-1.7 -3.25 -1.8 -3.1 L-1.85 -3.0 -1.9 -2.7 -1.9 -2.65 -1.85 -2.3 -1.8 -2.05 -1.7 -1.8 -1.75 -1.8 -1.7 -1.7 -1.65 -1.6 -1.7 -1.55 -1.6 -1.35 -1.55 -1.25 -1.5 -1.15 -1.5 -1.05 -1.5 -0.95 -1.5 -0.85 -1.5 -0.8 -1.4 -0.55 -1.4 -0.4 -1.35 -0.35 -1.25 -0.05 -1.2 0.05 Q-1.2 0.1 -1.2 0.1 L-1.2 0.25 -1.15 0.25 -1.15 0.5 -1.05 0.65 -1.05 0.9 -1.1 1.1 -1.0 1.5 -1.0 1.5 -0.95 1.6 -0.9 2.0 -0.95 2.1 -1.0 2.3 -1.05 2.5 -1.0 2.6 -1.0 2.65 -0.9 2.75 -0.9 2.85 -0.9 2.85 Q-0.85 2.95 -0.85 3.05 L-0.8 3.2 Q-0.8 3.3 -0.8 3.4 L-0.75 3.55" fill="none" stroke="#000000" stroke-linecap="round" stroke-linejoin="round" stroke-opacity="0.4509804" stroke-width="0.1"/>
  </g>
</svg>
