<?xml version="1.0" encoding="UTF-8" standalone="no"?>
<svg xmlns:xlink="http://www.w3.org/1999/xlink" height="9.55px" width="3.95px" xmlns="http://www.w3.org/2000/svg">
  <g transform="matrix(1.0, 0.0, 0.0, 1.0, 1.95, 4.8)">
    <path d="M-1.0 1.4 L-1.05 1.15 -1.05 1.15 -1.15 1.0 -1.25 0.85 -1.2 0.75 -1.25 0.7 -1.25 0.55 -1.25 0.4 -1.3 0.4 -1.35 0.25 -1.35 0.15 -1.4 0.05 -1.45 0.0 -1.4 -0.05 Q-1.5 -0.25 -1.5 -0.35 -1.5 -0.5 -1.55 -0.6 L-1.6 -0.75 -1.65 -0.9 -1.7 -1.05 -1.75 -1.25 -1.7 -1.35 -1.75 -1.35 -1.7 -1.5 -1.7 -1.6 -1.8 -1.95 -1.85 -2.15 -1.9 -2.6 Q-1.9 -2.95 -1.8 -3.2 L-1.75 -3.25 -1.75 -3.25 Q-1.7 -3.5 -1.55 -3.7 L-1.5 -3.8 -1.3 -4.05 -0.85 -4.4 Q-0.6 -4.55 -0.3 -4.65 L0.05 -4.7 Q0.45 -4.75 0.8 -4.65 L0.85 -4.6 0.95 -4.55 Q1.2 -4.45 1.35 -4.25 L1.55 -3.95 1.7 -3.55 1.7 -3.45 1.85 -2.1 Q1.75 -2.3 1.75 -2.4 1.75 -2.45 1.7 -2.45 L1.65 -2.4 1.6 -2.4 1.55 -2.45 1.45 -2.4 1.45 -2.35 1.4 -2.5 1.4 -2.45 1.35 -2.35 1.35 -2.3 1.4 -2.15 1.45 -1.9 1.45 -1.65 1.45 -1.4 1.5 -1.15 1.5 -1.05 1.5 -0.8 1.55 -0.7 1.55 -0.6 1.5 -0.4 1.55 -0.1 1.65 0.25 1.7 0.3 1.85 0.5 1.9 0.5 1.9 0.6 1.85 0.7 1.8 1.0 1.8 1.05 1.75 1.05 1.7 1.0 1.5 0.9 1.45 0.85 1.4 0.8 1.35 0.75 1.35 0.8 1.3 0.75 1.25 0.75 1.2 0.7 1.15 0.7 1.1 0.65 1.1 0.6 1.15 0.65 1.1 0.6 1.05 0.55 1.05 0.5 1.1 0.4 1.1 0.25 1.1 0.15 1.15 0.2 1.15 0.4 1.15 0.45 1.2 0.45 1.25 0.4 1.35 0.3 Q1.4 0.25 1.4 0.2 L1.4 -0.1 1.45 -0.15 1.45 -0.65 1.45 -0.85 1.4 -0.95 1.4 -1.5 1.4 -1.8 Q1.4 -2.0 1.3 -2.25 1.3 -2.35 1.25 -2.4 L1.2 -2.4 1.15 -2.55 Q1.15 -2.65 1.2 -2.7 L1.35 -2.85 1.35 -3.25 1.4 -3.55 1.25 -4.0 1.25 -4.0 1.2 -4.05 Q0.95 -4.55 0.55 -4.55 -0.25 -4.6 -0.85 -3.95 -1.4 -3.4 -1.45 -2.6 L-1.45 -2.4 -1.4 -2.45 -1.35 -2.45 -1.25 -2.55 -1.2 -2.6 -1.15 -2.6 -1.15 -2.6 -1.1 -2.6 -1.1 -2.65 -1.05 -2.7 -1.0 -2.65 -1.0 -2.5 -1.0 -2.35 -0.9 -2.45 Q-0.85 -2.45 -0.85 -2.55 L-0.8 -2.65 -0.7 -2.75 -0.55 -2.85 -0.55 -2.85 Q-0.65 -2.65 -0.45 -2.65 L-0.35 -2.65 -0.25 -2.75 -0.15 -2.85 -0.05 -2.9 0.05 -2.9 Q0.05 -2.9 0.1 -2.9 L0.15 -2.95 0.15 -2.95 0.25 -3.0 0.3 -2.95 0.4 -2.9 0.45 -2.9 0.35 -2.85 Q0.35 -2.8 0.3 -2.8 L0.25 -2.75 0.2 -2.7 0.1 -2.65 0.05 -2.6 -0.55 -2.2 -0.6 -2.2 -0.65 -2.15 -0.75 -2.1 -0.8 -2.05 -0.95 -1.95 -1.0 -1.85 -0.95 -1.85 -0.85 -1.9 -0.7 -1.95 -0.35 -2.1 -0.35 -2.05 -0.3 -2.0 -0.25 -2.05 -0.25 -2.05 -0.2 -2.05 -0.2 -2.05 -0.15 -2.05 -0.1 -2.05 -0.05 -2.1 0.0 -2.1 0.05 -2.1 0.0 -2.05 -0.35 -1.85 -0.5 -1.7 -0.6 -1.65 -0.7 -1.6 -0.9 -1.55 -0.95 -1.5 -1.0 -1.45 -1.0 -1.4 -0.95 -1.4 -1.1 -1.25 -1.05 -1.25 -1.0 -1.25 -0.8 -1.35 -0.7 -1.35 -0.6 -1.35 Q-0.55 -1.35 -0.5 -1.4 L-0.35 -1.45 -0.3 -1.4 -0.2 -1.35 -0.1 -1.35 0.0 -1.35 0.0 -1.3 Q0.0 -1.3 -0.1 -1.3 L-0.15 -1.3 -0.25 -1.3 -0.35 -1.25 -0.2 -1.2 -0.15 -1.2 -0.15 -1.2 0.2 -1.15 0.35 -1.2 0.5 -1.1 0.35 -1.05 0.15 -1.05 0.0 -1.05 -0.4 -1.05 -0.6 -1.05 -0.65 -1.05 -0.7 -1.0 Q-0.95 -0.9 -0.95 -0.85 L-0.85 -0.75 -0.8 -0.75 -0.65 -0.65 -0.65 -0.6 -0.6 -0.6 -0.65 -0.55 -0.7 -0.55 -0.5 -0.45 -0.45 -0.4 -0.55 -0.35 -0.6 -0.3 -0.6 -0.1 -0.55 0.0 -0.5 0.05 -0.45 0.1 -0.35 0.15 -0.35 0.2 -0.4 0.3 -0.45 0.4 -0.35 0.4 -0.25 0.25 -0.1 0.0 0.4 -0.4 0.55 -0.4 0.65 -0.35 0.7 -0.35 0.75 -0.3 0.75 -0.25 0.8 -0.25 0.85 -0.15 0.9 -0.05 1.05 0.05 1.0 0.1 1.0 0.15 0.9 0.05 0.75 0.05 0.8 0.15 0.85 0.15 0.9 0.2 0.9 0.3 0.95 0.35 0.95 0.45 0.95 0.5 0.55 0.05 Q0.4 0.0 0.25 0.3 L0.05 0.85 Q-0.15 1.3 -0.3 1.4 L-0.45 1.45 -0.35 2.1 Q-0.4 2.2 -0.5 2.15 L-0.6 2.2 Q-0.55 2.35 -0.35 2.55 L-0.05 2.9 0.0 2.9 -0.05 2.95 -0.2 2.85 -0.25 2.9 0.05 3.25 -0.05 3.25 -0.15 3.2 -0.25 3.1 -0.35 3.15 -0.3 3.45 Q-0.2 3.65 -0.05 3.7 L0.05 3.85 0.25 4.0 0.3 4.1 0.4 4.15 0.65 4.15 0.85 4.1 Q0.85 4.0 0.95 3.9 L1.15 3.75 Q1.2 3.6 1.15 3.45 1.05 3.3 1.1 3.15 L1.2 2.95 1.2 2.65 1.5 1.75 Q1.55 1.45 1.5 1.3 L1.3 0.9 1.4 0.95 1.5 1.05 1.5 1.1 1.55 1.15 1.6 1.15 1.7 1.25 1.75 1.25 1.4 2.4 1.4 2.8 1.4 3.05 1.4 3.2 1.4 3.6 1.35 3.7 1.35 3.75 1.3 3.85 1.2 4.0 1.1 4.15 1.0 4.25 0.95 4.3 0.85 4.4 0.65 4.55 Q0.4 4.75 0.15 4.75 L0.0 4.75 -0.05 4.75 -0.4 4.45 -0.4 4.45 -0.55 4.25 -0.55 4.25 -1.0 2.8 -1.0 2.6 -1.0 2.55 Q-1.05 2.3 -0.95 2.1 L-0.95 1.95 -0.95 1.75 -0.95 1.65 -1.0 1.6 -1.0 1.5 -1.0 1.45 -0.95 1.45 -0.9 1.4 -0.8 1.4 -0.7 1.35 -0.65 1.3 -0.65 1.3 -0.55 1.25 -0.7 1.4 -0.75 1.4 -0.8 1.45 -0.9 1.5 -0.9 1.55 -1.0 1.6 -0.75 1.45 -0.6 1.4 -0.5 1.3 -0.45 1.3 -0.4 1.25 -0.35 1.2 -0.35 1.1 -0.3 1.0 -0.3 1.0 -0.4 1.0 -0.55 1.15 -0.6 1.2 -0.6 1.2 -0.65 1.2 -0.7 1.25 -0.7 1.25 -0.75 1.25 -0.8 1.25 -0.9 1.3 -0.9 1.35 -1.0 1.4 -1.0 1.4 M0.15 -0.1 L0.05 0.0 0.05 0.0 -0.05 0.1 -0.1 0.15 -0.15 0.25 -0.25 0.3 -0.3 0.4 -0.3 0.5 -0.3 0.5 -0.3 0.6 -0.25 0.65 -0.25 0.7 -0.2 0.7 -0.2 0.85 -0.15 0.9 -0.15 0.85 -0.2 0.65 -0.2 0.5 -0.2 0.4 -0.15 0.35 -0.05 0.3 0.05 0.2 0.05 0.15 0.1 0.1 0.15 0.05 0.2 0.0 0.25 -0.05 0.2 -0.1 0.2 -0.15 0.15 -0.1 M0.45 -0.3 L0.45 -0.3 0.4 -0.3 0.3 -0.25 0.3 -0.15 0.3 -0.1 0.3 -0.1 0.25 -0.05 0.25 0.0 0.3 -0.05 0.35 -0.05 0.35 -0.1 0.4 -0.1 0.45 -0.1 0.5 -0.1 0.55 -0.1 0.6 -0.1 0.75 -0.05 0.8 -0.05 0.8 -0.05 0.65 -0.2 0.45 -0.3 M1.05 0.7 L1.1 0.7 1.15 0.75 1.1 0.75 1.05 0.7 M-0.8 1.05 L-0.8 1.05 -0.85 1.15 -0.85 1.2 -0.8 1.15 -0.7 1.1 -0.55 0.95 -0.4 0.9 -0.35 0.85 -0.35 0.8 -0.4 0.7 -0.45 0.55 -0.6 0.65 -0.75 0.8 -0.8 1.05 M-0.45 0.5 L-0.45 0.55 -0.4 0.4 -0.45 0.5" fill="#64372b" fill-rule="evenodd" stroke="none"/>
    <path d="M1.85 -2.1 L1.85 -2.0 Q1.95 -1.45 1.95 -0.7 L1.95 -0.5 1.95 -0.05 1.95 0.05 1.9 0.3 1.9 0.6 1.9 0.5 1.85 0.5 1.7 0.3 1.65 0.25 1.55 -0.1 1.5 -0.4 1.55 -0.6 1.55 -0.7 1.5 -0.8 1.5 -1.05 1.5 -1.15 1.45 -1.4 1.45 -1.65 1.45 -1.9 1.4 -2.15 1.35 -2.3 1.35 -2.35 1.4 -2.45 1.4 -2.5 1.45 -2.35 1.45 -2.4 1.55 -2.45 1.6 -2.4 1.65 -2.4 1.7 -2.45 Q1.75 -2.45 1.75 -2.4 1.75 -2.3 1.85 -2.1 M1.8 1.05 L1.75 1.25 1.7 1.25 1.6 1.15 1.55 1.15 1.5 1.1 1.5 1.05 1.4 0.95 1.3 0.9 1.5 1.3 Q1.55 1.45 1.5 1.75 L1.2 2.65 1.2 2.95 1.1 3.15 Q1.05 3.3 1.15 3.45 1.2 3.6 1.15 3.75 L0.95 3.9 Q0.85 4.0 0.85 4.1 L0.65 4.15 0.4 4.15 0.3 4.1 0.25 4.0 0.05 3.85 -0.05 3.7 Q-0.2 3.65 -0.3 3.45 L-0.35 3.15 -0.25 3.1 -0.15 3.2 -0.05 3.25 0.05 3.25 -0.25 2.9 -0.2 2.85 -0.05 2.95 0.0 2.9 -0.05 2.9 -0.35 2.55 Q-0.55 2.35 -0.6 2.2 L-0.5 2.15 Q-0.4 2.2 -0.35 2.1 L-0.45 1.45 -0.3 1.4 Q-0.15 1.3 0.05 0.85 L0.25 0.3 Q0.4 0.0 0.55 0.05 L0.95 0.5 0.95 0.45 0.95 0.35 0.9 0.3 0.9 0.2 0.85 0.15 0.8 0.15 0.75 0.05 0.9 0.05 1.0 0.15 1.0 0.1 1.05 0.05 0.9 -0.05 0.85 -0.15 0.8 -0.25 0.75 -0.25 0.75 -0.3 0.7 -0.35 0.65 -0.35 0.55 -0.4 0.4 -0.4 -0.1 0.0 -0.25 0.25 -0.35 0.4 -0.45 0.4 -0.4 0.3 -0.35 0.2 -0.35 0.15 -0.45 0.1 -0.5 0.05 -0.55 0.0 -0.6 -0.1 -0.6 -0.3 -0.55 -0.35 -0.45 -0.4 -0.5 -0.45 -0.7 -0.55 -0.65 -0.55 -0.6 -0.6 -0.65 -0.6 -0.65 -0.65 -0.8 -0.75 -0.85 -0.75 -0.95 -0.85 Q-0.95 -0.9 -0.7 -1.0 L-0.65 -1.05 -0.6 -1.05 -0.4 -1.05 0.0 -1.05 0.15 -1.05 0.35 -1.05 0.5 -1.1 0.35 -1.2 0.2 -1.15 -0.15 -1.2 -0.15 -1.2 -0.2 -1.2 -0.35 -1.25 -0.25 -1.3 -0.15 -1.3 -0.1 -1.3 Q0.0 -1.3 0.0 -1.3 L0.0 -1.35 -0.1 -1.35 -0.2 -1.35 -0.3 -1.4 -0.35 -1.45 -0.5 -1.4 Q-0.55 -1.35 -0.6 -1.35 L-0.7 -1.35 -0.8 -1.35 -1.0 -1.25 -1.05 -1.25 -1.1 -1.25 -0.95 -1.4 -1.0 -1.4 -1.0 -1.45 -0.95 -1.5 -0.9 -1.55 -0.7 -1.6 -0.6 -1.65 -0.5 -1.7 -0.35 -1.85 0.0 -2.05 0.05 -2.1 0.0 -2.1 -0.05 -2.1 -0.1 -2.05 -0.15 -2.05 -0.2 -2.05 -0.2 -2.05 -0.25 -2.05 -0.25 -2.05 -0.3 -2.0 -0.35 -2.05 -0.35 -2.1 -0.7 -1.95 -0.85 -1.9 -0.95 -1.85 -1.0 -1.85 -0.95 -1.95 -0.8 -2.05 -0.75 -2.1 -0.65 -2.15 -0.6 -2.2 -0.55 -2.2 0.05 -2.6 0.1 -2.65 0.2 -2.7 0.25 -2.75 0.3 -2.8 Q0.35 -2.8 0.35 -2.85 L0.45 -2.9 0.4 -2.9 0.3 -2.95 0.25 -3.0 0.15 -2.95 0.15 -2.95 0.1 -2.9 Q0.05 -2.9 0.05 -2.9 L-0.05 -2.9 -0.15 -2.85 -0.25 -2.75 -0.35 -2.65 -0.45 -2.65 Q-0.65 -2.65 -0.55 -2.85 L-0.55 -2.85 -0.7 -2.75 -0.8 -2.65 -0.85 -2.55 Q-0.85 -2.45 -0.9 -2.45 L-1.0 -2.35 -1.0 -2.5 -1.0 -2.65 -1.05 -2.7 -1.1 -2.65 -1.1 -2.6 -1.15 -2.6 -1.15 -2.6 -1.2 -2.6 -1.25 -2.55 -1.35 -2.45 -1.4 -2.45 -1.45 -2.4 -1.45 -2.6 Q-1.4 -3.4 -0.85 -3.95 -0.25 -4.6 0.55 -4.55 0.95 -4.55 1.2 -4.05 L1.25 -4.0 1.25 -4.0 1.4 -3.55 1.35 -3.25 1.35 -2.85 1.2 -2.7 Q1.15 -2.65 1.15 -2.55 L1.2 -2.4 1.15 -2.4 Q1.1 -2.45 1.1 -2.55 L1.05 -2.6 0.95 -2.75 Q0.9 -2.8 0.95 -2.85 L0.9 -3.0 Q0.8 -3.1 0.75 -3.2 L0.65 -3.45 Q0.55 -3.25 0.65 -2.9 L0.75 -2.45 0.7 -2.35 0.6 -2.2 0.45 -2.35 0.25 -2.35 0.4 -2.1 Q0.45 -1.9 0.55 -1.8 L0.55 -1.8 0.6 -1.85 0.65 -1.9 0.65 -2.0 Q0.7 -2.05 0.75 -1.95 0.65 -1.9 0.7 -1.85 L0.8 -1.75 0.85 -1.75 Q0.9 -1.7 0.9 -1.65 L0.8 -1.55 0.9 -1.45 1.15 -1.3 Q1.3 -1.2 1.35 -1.2 L1.25 -1.55 Q1.1 -1.85 1.15 -1.9 1.15 -1.9 1.2 -1.95 L1.25 -2.0 1.25 -2.2 1.3 -2.25 Q1.4 -2.0 1.4 -1.8 L1.4 -1.5 1.4 -0.95 1.45 -0.85 1.45 -0.65 1.45 -0.15 1.4 -0.1 1.4 0.2 Q1.4 0.25 1.35 0.3 L1.25 0.4 1.2 0.45 1.15 0.45 1.15 0.4 1.15 0.2 1.1 0.15 1.1 0.25 1.1 0.4 1.05 0.5 1.05 0.55 1.1 0.6 1.15 0.65 1.1 0.6 1.1 0.65 1.15 0.7 1.2 0.7 1.25 0.75 1.3 0.75 1.35 0.8 1.35 0.75 1.4 0.8 1.45 0.85 1.5 0.9 1.7 1.0 1.75 1.05 1.8 1.05 M-1.0 1.6 L-1.0 1.6 -0.9 1.55 -0.9 1.5 -0.8 1.45 -0.75 1.4 -0.7 1.4 -0.55 1.25 -0.65 1.3 -0.65 1.3 -0.7 1.35 -0.8 1.4 -0.9 1.4 -0.95 1.45 -1.0 1.45 -1.0 1.5 -1.0 1.4 -1.0 1.4 -0.9 1.35 -0.9 1.3 -0.8 1.25 -0.75 1.25 -0.7 1.25 -0.7 1.25 -0.65 1.2 -0.6 1.2 -0.6 1.2 -0.55 1.15 -0.4 1.0 -0.3 1.0 -0.3 1.0 -0.35 1.1 -0.35 1.2 -0.4 1.25 -0.45 1.3 -0.5 1.3 -0.6 1.4 -0.75 1.45 -1.0 1.6 M0.15 -0.1 L0.2 -0.15 0.2 -0.1 0.25 -0.05 0.2 0.0 0.15 0.05 0.1 0.1 0.05 0.15 0.05 0.2 -0.05 0.3 -0.15 0.35 -0.2 0.4 -0.2 0.5 -0.2 0.65 -0.15 0.85 -0.15 0.9 -0.2 0.85 -0.2 0.7 -0.25 0.7 -0.25 0.65 -0.3 0.6 -0.3 0.5 -0.3 0.5 -0.3 0.4 -0.25 0.3 -0.15 0.25 -0.1 0.15 -0.05 0.1 0.05 0.0 0.05 0.0 0.15 -0.1 M0.45 -0.3 L0.65 -0.2 0.8 -0.05 0.8 -0.05 0.75 -0.05 0.6 -0.1 0.55 -0.1 0.5 -0.1 0.45 -0.1 0.4 -0.1 0.35 -0.1 0.35 -0.05 0.3 -0.05 0.25 0.0 0.25 -0.05 0.3 -0.1 0.3 -0.1 0.3 -0.15 0.3 -0.25 0.4 -0.3 0.45 -0.3 0.45 -0.3 M1.05 0.7 L1.1 0.75 1.15 0.75 1.1 0.7 1.05 0.7 M-0.45 0.5 L-0.4 0.4 -0.45 0.55 -0.45 0.5 M-0.8 1.05 L-0.75 0.8 -0.6 0.65 -0.45 0.55 -0.4 0.7 -0.35 0.8 -0.35 0.85 -0.4 0.9 -0.55 0.95 -0.7 1.1 -0.8 1.15 -0.85 1.2 -0.85 1.15 -0.8 1.05 -0.8 1.05" fill="#8c432f" fill-rule="evenodd" stroke="none"/>
    <path d="M1.3 -2.25 L1.25 -2.2 1.25 -2.0 1.2 -1.95 Q1.15 -1.9 1.15 -1.9 1.1 -1.85 1.25 -1.55 L1.35 -1.2 Q1.3 -1.2 1.15 -1.3 L0.9 -1.45 0.8 -1.55 0.9 -1.65 Q0.9 -1.7 0.85 -1.75 L0.8 -1.75 0.7 -1.85 Q0.65 -1.9 0.75 -1.95 0.7 -2.05 0.65 -2.0 L0.65 -1.9 0.6 -1.85 0.55 -1.8 0.55 -1.8 Q0.45 -1.9 0.4 -2.1 L0.25 -2.35 0.45 -2.35 0.6 -2.2 0.7 -2.35 0.75 -2.45 0.65 -2.9 Q0.55 -3.25 0.65 -3.45 L0.75 -3.2 Q0.8 -3.1 0.9 -3.0 L0.95 -2.85 Q0.9 -2.8 0.95 -2.75 L1.05 -2.6 1.1 -2.55 Q1.1 -2.45 1.15 -2.4 L1.2 -2.4 1.25 -2.4 Q1.3 -2.35 1.3 -2.25" fill="#a35e34" fill-rule="evenodd" stroke="none"/>
    <path d="M-1.0 1.4 L-1.05 1.15 -1.05 1.15 -1.15 1.0 -1.25 0.85 -1.2 0.75 -1.25 0.7 -1.25 0.55 -1.25 0.4 -1.3 0.4 -1.35 0.25 -1.35 0.15 -1.4 0.05 -1.45 0.0 -1.4 -0.05 Q-1.5 -0.25 -1.5 -0.35 -1.5 -0.5 -1.55 -0.6 L-1.6 -0.75 -1.65 -0.9 -1.7 -1.05 -1.75 -1.25 -1.7 -1.35 -1.75 -1.35 -1.7 -1.5 -1.7 -1.6 -1.8 -1.95 -1.85 -2.15 -1.9 -2.6 Q-1.9 -2.95 -1.8 -3.2 L-1.75 -3.25 -1.75 -3.25 Q-1.7 -3.5 -1.55 -3.7 L-1.5 -3.8 -1.3 -4.05 -0.85 -4.4 Q-0.6 -4.55 -0.3 -4.65 L0.05 -4.7 Q0.45 -4.75 0.8 -4.65 L0.85 -4.6 0.95 -4.55 Q1.2 -4.45 1.35 -4.25 L1.55 -3.95 1.7 -3.55 1.7 -3.45 1.85 -2.1 1.85 -2.0 Q1.95 -1.45 1.95 -0.7 L1.95 -0.5 1.95 -0.05 1.95 0.05 1.9 0.3 1.9 0.6 1.85 0.7 1.8 1.0 1.8 1.05 1.75 1.25 1.4 2.4 1.4 2.8 1.4 3.05 1.4 3.2 1.4 3.6 1.35 3.7 1.35 3.75 1.3 3.85 1.2 4.0 M-0.4 4.45 L-0.55 4.25 -0.55 4.25 -1.0 2.8 -1.0 2.6 -1.0 2.55 Q-1.05 2.3 -0.95 2.1 L-0.95 1.95 -0.95 1.75 -0.95 1.65 -1.0 1.6 -1.0 1.6 -1.0 1.5 -1.0 1.4" fill="none" stroke="#000000" stroke-linecap="round" stroke-linejoin="round" stroke-opacity="0.4509804" stroke-width="0.1"/>
  </g>
</svg>
