<?xml version="1.0" encoding="UTF-8" standalone="no"?>
<svg xmlns:xlink="http://www.w3.org/1999/xlink" height="6.95px" width="4.3px" xmlns="http://www.w3.org/2000/svg">
  <g transform="matrix(1.0, 0.0, 0.0, 1.0, 2.15, 3.5)">
    <path d="M-0.1 -3.4 L0.5 -3.5 1.15 -3.4 1.2 -3.4 1.0 -3.2 1.05 -3.2 0.95 -3.15 0.9 -3.1 0.5 -2.75 0.15 -2.4 0.1 -2.35 0.05 -2.45 Q0.05 -2.55 -0.05 -2.55 -0.2 -2.45 -0.25 -2.45 L-0.4 -2.55 -0.65 -2.55 -0.7 -2.6 -0.65 -2.75 -0.7 -2.8 Q-1.0 -2.55 -1.3 -2.15 L-1.35 -2.05 Q-1.15 -2.65 -0.7 -3.05 L-0.65 -3.1 -0.2 -3.35 -0.1 -3.4 M1.6 -3.05 L1.65 -3.0 1.75 -2.85 1.6 -2.65 1.6 -2.65 1.55 -2.5 1.55 -2.5 1.45 -2.35 1.25 -1.9 1.2 -1.8 1.05 -1.5 0.85 -1.55 0.75 -1.55 0.7 -1.6 0.65 -1.6 0.65 -1.6 Q0.6 -1.6 0.55 -1.65 L0.5 -1.65 Q0.45 -1.65 0.45 -1.65 L0.5 -1.8 0.75 -2.15 1.25 -2.7 1.3 -2.75 1.35 -2.8 1.45 -2.9 1.45 -2.9 1.6 -3.05 M1.9 -2.45 L1.95 -2.25 2.0 -1.95 2.05 -1.8 2.05 -1.55 2.0 -1.35 1.9 -0.35 Q1.75 -0.45 1.65 -0.7 L1.55 -0.9 1.55 -0.9 1.45 -0.9 1.5 -1.0 1.5 -1.05 1.65 -1.4 1.65 -1.5 1.75 -2.0 1.75 -2.35 1.8 -2.2 1.9 -2.45" fill="#4e272a" fill-rule="evenodd" stroke="none"/>
    <path d="M0.15 -2.4 L0.5 -2.75 0.9 -3.1 0.95 -3.15 1.05 -3.2 1.0 -3.2 1.2 -3.4 1.4 -3.2 1.6 -3.05 1.45 -2.9 1.45 -2.9 1.35 -2.8 1.3 -2.75 1.25 -2.7 0.75 -2.15 0.5 -1.8 0.45 -1.65 0.35 -1.8 0.2 -1.95 Q0.15 -2.0 0.15 -2.05 L0.15 -2.4 M1.75 -2.85 L1.75 -2.8 1.85 -2.65 1.9 -2.5 1.9 -2.45 1.8 -2.2 1.75 -2.35 1.65 -2.6 1.6 -2.65 1.75 -2.85 M1.25 -1.9 L1.35 -1.8 1.5 -1.7 Q1.5 -1.55 1.6 -1.4 L1.65 -1.4 1.5 -1.05 1.5 -1.0 1.45 -0.9 1.4 -0.9 1.15 -0.9 1.0 -1.0 0.95 -1.1 Q0.85 -1.05 0.8 -1.05 L0.8 -1.05 1.05 -1.5 1.2 -1.8 1.25 -1.9" fill="#201518" fill-rule="evenodd" stroke="none"/>
    <path d="M0.1 -2.35 L0.15 -2.4 0.15 -2.05 Q0.15 -2.0 0.2 -1.95 L0.35 -1.8 0.45 -1.65 0.0 -1.15 0.1 -1.15 0.0 -0.8 0.0 -0.7 Q-0.05 -0.4 -0.15 -0.25 L-0.1 -0.25 Q0.1 -0.25 0.3 -0.4 L0.45 -0.5 0.65 -0.65 0.8 -1.05 0.8 -1.05 Q0.85 -1.05 0.95 -1.1 L1.0 -1.0 1.15 -0.9 1.4 -0.9 1.45 -0.9 1.25 -0.5 1.15 -0.2 1.2 -0.15 1.2 0.55 Q1.25 0.65 1.35 0.65 L1.7 0.45 Q1.5 0.95 1.25 1.0 L1.2 1.0 1.15 0.95 1.05 0.8 0.85 0.75 0.8 0.75 0.75 0.75 0.45 0.5 0.4 0.5 0.3 0.75 0.3 0.8 0.25 1.0 0.25 1.05 0.3 1.05 0.7 1.25 0.7 1.3 0.95 1.35 1.0 1.35 0.95 1.6 Q0.9 1.95 0.65 2.25 L0.35 2.2 0.25 2.2 -0.15 2.1 0.1 1.55 0.25 1.05 -0.6 0.75 -0.75 1.3 -0.75 1.35 -0.9 1.8 -1.6 1.45 -1.45 0.95 -1.3 0.45 -0.6 0.75 -0.4 0.3 -0.4 0.15 -0.35 0.05 -0.4 0.05 -0.45 -0.1 -0.45 -0.15 -0.85 -0.4 -1.0 -0.35 -1.0 -0.35 -1.05 -0.35 -1.1 -0.15 -1.15 -0.05 -1.3 0.45 -1.6 0.25 -1.65 0.25 -1.65 0.25 -1.65 0.2 -1.7 0.15 -1.8 0.1 -1.9 0.1 -1.9 0.1 -1.7 -0.3 -1.65 -0.4 -1.45 -0.7 -1.45 -0.7 -1.45 -0.7 -1.15 -0.55 -1.2 -0.65 Q-1.2 -0.85 -1.1 -1.0 L-0.9 -1.35 -0.9 -1.4 -1.0 -1.4 Q-1.15 -1.25 -1.3 -1.25 L-1.45 -1.25 -1.55 -1.2 Q-1.65 -1.2 -1.75 -1.4 L-1.5 -1.75 Q-1.35 -1.65 -1.0 -1.65 L-0.75 -1.75 -0.65 -1.75 -0.55 -1.75 0.1 -2.35 M0.0 2.85 L-0.3 3.1 -0.65 3.3 -0.75 3.35 -0.75 3.35 -0.75 3.35 -0.7 3.25 -0.75 3.3 -0.75 3.3 -0.7 3.25 -0.5 2.9 -0.45 2.8 -0.25 2.85 -0.15 2.85 -0.15 2.85 -0.05 2.8 -0.05 2.85 0.0 2.85 M-0.8 3.35 L-1.1 3.45 -1.5 3.4 -1.5 3.35 -1.45 3.2 -1.7 3.0 -1.75 2.9 -1.75 3.0 -1.8 2.95 -1.85 2.8 -1.9 2.65 -1.9 2.6 -1.85 2.65 -1.85 2.6 -1.85 2.55 -1.8 2.25 -1.9 2.2 -1.9 2.2 -2.05 2.15 -2.05 1.9 -2.0 1.2 -1.9 1.3 -1.9 1.25 -1.8 1.3 -1.8 1.3 -1.6 1.45 -1.65 1.55 -1.7 1.75 -1.8 2.25 -1.4 2.55 -1.2 2.65 -1.2 2.6 -0.95 1.85 -0.9 1.8 -0.15 2.1 -0.25 2.4 -0.45 2.8 -1.1 2.7 -1.2 2.65 -1.35 3.15 -1.15 3.25 -0.8 3.35 M-2.0 0.45 L-2.0 0.1 -1.9 0.1 -1.9 0.1 -2.0 0.45 M1.25 -1.9 L1.45 -2.35 1.55 -2.5 1.55 -2.5 1.6 -2.65 1.6 -2.65 1.65 -2.6 1.75 -2.35 1.75 -2.0 1.65 -1.5 1.65 -1.4 1.6 -1.4 Q1.5 -1.55 1.5 -1.7 L1.35 -1.8 1.25 -1.9 M0.3 -0.3 L0.05 -0.05 -0.15 0.05 0.3 0.45 Q0.25 0.35 0.25 0.1 0.2 -0.1 0.35 -0.35 L0.3 -0.3" fill="#100e0e" fill-rule="evenodd" stroke="none"/>
    <path d="M-1.35 -2.05 L-1.3 -2.15 Q-1.0 -2.55 -0.7 -2.8 L-0.65 -2.75 -0.7 -2.6 -0.65 -2.55 -0.4 -2.55 -0.25 -2.45 Q-0.2 -2.45 -0.05 -2.55 0.05 -2.55 0.05 -2.45 L0.1 -2.35 -0.55 -1.75 -0.65 -1.75 -0.75 -1.75 -1.0 -1.65 Q-1.35 -1.65 -1.5 -1.75 L-1.4 -1.95 -1.35 -2.05 M1.9 -0.35 Q1.8 0.15 1.7 0.45 L1.35 0.65 Q1.25 0.65 1.2 0.55 L1.2 -0.15 1.15 -0.2 1.25 -0.5 1.45 -0.9 1.55 -0.9 1.55 -0.9 1.65 -0.7 Q1.75 -0.45 1.9 -0.35 M1.05 -1.5 L0.8 -1.05 0.65 -0.65 0.45 -0.5 0.3 -0.4 Q0.1 -0.25 -0.1 -0.25 L-0.15 -0.25 Q-0.05 -0.4 0.0 -0.7 L0.0 -0.8 0.1 -1.15 0.0 -1.15 0.45 -1.65 Q0.45 -1.65 0.5 -1.65 L0.55 -1.65 Q0.6 -1.6 0.65 -1.6 L0.65 -1.6 0.7 -1.6 0.75 -1.55 0.85 -1.55 1.05 -1.5" fill="#2a1c21" fill-rule="evenodd" stroke="none"/>
    <path d="M1.05 0.8 L1.0 1.05 0.75 1.0 0.5 0.9 0.3 0.75 0.4 0.5 0.45 0.5 0.75 0.75 0.8 0.75 0.85 0.75 1.05 0.8 M-1.5 -1.0 L-1.45 -1.05 -1.45 -1.25 -1.3 -1.25 Q-1.15 -1.25 -1.0 -1.4 L-0.9 -1.4 -0.9 -1.35 -1.1 -1.0 Q-1.2 -0.85 -1.2 -0.65 L-1.15 -0.55 -1.45 -0.7 -1.45 -0.7 -1.5 -0.8 -1.5 -1.0 M0.3 -0.3 L0.35 -0.35 Q0.2 -0.1 0.25 0.1 0.25 0.35 0.3 0.45 L-0.15 0.05 0.05 -0.05 0.3 -0.3 M-1.15 -0.05 L-1.1 -0.15 -1.05 -0.35 -1.0 -0.35 -1.0 -0.35 -0.85 -0.4 -0.45 -0.15 -0.45 -0.1 -0.4 0.05 -0.35 0.05 -0.4 0.15 -0.4 0.3 -0.45 0.3 -0.6 0.25 -0.65 0.2 -0.8 0.25 -0.95 0.05 -1.1 0.0 -1.15 -0.05" fill="#665a5b" fill-rule="evenodd" stroke="none"/>
    <path d="M1.0 1.05 L1.0 1.35 0.95 1.35 0.7 1.3 0.7 1.25 0.3 1.05 0.25 1.05 0.25 1.0 0.3 0.8 0.3 0.75 0.5 0.9 0.75 1.0 1.0 1.05 M-2.0 0.65 L-2.0 0.45 -1.9 0.1 -1.9 0.1 -1.8 0.1 -1.7 0.15 -1.65 0.2 -1.65 0.25 -1.65 0.25 -1.6 0.25 -1.3 0.45 -1.15 -0.05 -1.1 0.0 -0.95 0.05 -0.8 0.25 -0.65 0.2 -0.6 0.25 -0.45 0.3 -0.4 0.3 -0.6 0.75 -1.3 0.45 -1.45 0.95 -1.65 0.8 -1.75 0.7 -1.8 0.7 -1.8 0.7 -2.0 0.65 M-1.8 -0.5 L-1.5 -1.0 -1.5 -0.8 -1.45 -0.7 -1.45 -0.7 -1.65 -0.4 -1.8 -0.5 M-0.75 1.3 L-0.6 0.75 0.25 1.05 0.1 1.55 0.0 1.55 Q-0.05 1.65 -0.15 1.65 -0.35 1.65 -0.4 1.5 -0.5 1.3 -0.55 1.3 L-0.75 1.3 M-1.9 0.1 L-1.9 0.1 M-1.9 2.2 L-1.9 2.2 -1.8 2.25 -1.85 2.55 -1.9 2.2" fill="#807072" fill-rule="evenodd" stroke="none"/>
    <path d="M0.65 2.25 L0.45 2.45 0.1 2.75 0.0 2.85 -0.05 2.85 -0.05 2.8 -0.15 2.85 -0.15 2.85 -0.25 2.85 -0.45 2.8 -0.25 2.4 -0.15 2.1 -0.9 1.8 -0.95 1.85 -1.2 2.6 -1.2 2.65 -1.4 2.55 -1.8 2.25 -1.7 1.75 -1.65 1.55 -1.6 1.45 -1.8 1.3 -1.8 1.3 -1.9 1.25 -1.9 1.3 -2.0 1.2 -2.0 0.65 -1.8 0.7 -1.8 0.7 -1.75 0.7 -1.65 0.8 -1.45 0.95 -1.6 1.45 -0.9 1.8 -0.75 1.35 -0.75 1.3 -0.55 1.3 Q-0.5 1.3 -0.4 1.5 -0.35 1.65 -0.15 1.65 -0.05 1.65 0.0 1.55 L0.1 1.55 -0.15 2.1 0.25 2.2 0.35 2.2 0.65 2.25 M-0.75 3.35 L-0.8 3.35 -1.15 3.25 -1.35 3.15 -1.2 2.65 -1.1 2.7 -0.45 2.8 -0.5 2.9 -0.7 3.25 -0.75 3.3 -0.75 3.3 -0.7 3.25 -0.75 3.35 -0.75 3.35 M-1.5 3.4 L-1.65 3.25 -1.75 3.1 -1.75 3.0 -1.75 2.9 -1.7 3.0 -1.45 3.2 -1.5 3.35 -1.5 3.4 M-1.9 2.6 L-1.95 2.6 -1.95 2.5 -1.95 2.5 -2.0 2.4 -2.05 2.15 -1.9 2.2 -1.85 2.55 -1.85 2.6 -1.85 2.65 -1.9 2.6 M-2.0 0.1 Q-1.95 -0.2 -1.8 -0.5 L-1.65 -0.4 -1.7 -0.3 -1.9 0.1 -1.9 0.1 -2.0 0.1 M-1.9 0.1 L-1.9 0.1" fill="#a1989b" fill-rule="evenodd" stroke="none"/>
    <path d="M-0.1 -3.4 L-0.2 -3.35 -0.65 -3.1 -0.7 -3.05 Q-1.15 -2.65 -1.35 -2.05 L-1.4 -1.95 -1.5 -1.75 -1.75 -1.4 Q-1.65 -1.2 -1.55 -1.2 L-1.45 -1.25 -1.45 -1.05 -1.5 -1.0 -1.8 -0.5 Q-1.95 -0.2 -2.0 0.1 L-2.0 0.45 -2.0 0.65 -2.0 1.2 -2.05 1.9 -2.05 2.15 -2.0 2.4 -1.95 2.5 -1.95 2.5 M1.65 -3.0 L1.75 -2.85 1.75 -2.8 1.85 -2.65 1.9 -2.5 1.9 -2.45 1.95 -2.25 2.0 -1.95 2.05 -1.8 2.05 -1.55 2.0 -1.35 1.9 -0.35 Q1.8 0.15 1.7 0.45 1.5 0.95 1.25 1.0 L1.2 1.0 1.15 0.95 1.05 0.8 1.0 1.05 1.0 1.35 0.95 1.6 Q0.9 1.95 0.65 2.25 L0.45 2.45 0.1 2.75 0.0 2.85 -0.3 3.1 -0.65 3.3 -0.75 3.35 -0.75 3.35 -0.8 3.35" fill="none" stroke="#000000" stroke-linecap="round" stroke-linejoin="round" stroke-opacity="0.4509804" stroke-width="0.1"/>
  </g>
</svg>
