<?xml version="1.0" encoding="UTF-8" standalone="no"?>
<svg xmlns:xlink="http://www.w3.org/1999/xlink" height="4.4px" width="4.4px" xmlns="http://www.w3.org/2000/svg">
  <g transform="matrix(1.0, 0.0, 0.0, 1.0, 2.2, 2.2)">
    <path d="M2.2 -1.95 L1.9 -1.85 1.65 -1.9 Q1.6 -1.9 1.5 -2.0 L1.45 -2.2 1.5 -2.2 Q1.6 -2.0 1.8 -1.95 L2.2 -2.05 2.2 -1.95" fill="#804097" fill-rule="evenodd" stroke="none"/>
    <path d="M1.45 -2.2 L1.5 -2.0 Q1.6 -1.9 1.65 -1.9 L1.9 -1.85 2.2 -1.95 2.2 -1.85 1.65 -1.8 1.45 -1.95 1.35 -2.2 1.45 -2.2" fill="#76398e" fill-rule="evenodd" stroke="none"/>
    <path d="M2.2 -2.05 L1.8 -1.95 Q1.6 -2.0 1.5 -2.2 L1.6 -2.2 Q1.7 -2.05 1.85 -2.05 2.05 -2.05 2.15 -2.2 L2.2 -2.2 2.2 -2.05" fill="#8b459f" fill-rule="evenodd" stroke="none"/>
    <path d="M1.6 -2.2 L2.15 -2.2 Q2.05 -2.05 1.85 -2.05 1.7 -2.05 1.6 -2.2" fill="#964aa8" fill-rule="evenodd" stroke="none"/>
    <path d="M1.35 -2.2 L1.45 -1.95 1.65 -1.8 2.2 -1.85 2.2 -1.8 1.95 -1.7 1.7 -1.75 1.4 -1.9 Q1.25 -2.05 1.25 -2.2 L1.35 -2.2" fill="#6a3486" fill-rule="evenodd" stroke="none"/>
    <path d="M1.15 -2.2 L1.15 -2.05 1.1 -1.9 1.0 -1.95 0.9 -1.9 0.9 -1.8 0.95 -1.7 0.9 -1.7 0.8 -1.9 0.8 -2.2 1.15 -2.2" fill="#563473" fill-rule="evenodd" stroke="none"/>
    <path d="M1.25 -2.2 Q1.25 -2.05 1.4 -1.9 L1.7 -1.75 1.95 -1.7 2.2 -1.8 2.2 -1.7 1.85 -1.65 1.7 -1.65 Q1.65 -1.65 1.6 -1.7 L1.5 -1.8 1.45 -1.85 1.35 -1.85 1.25 -1.8 1.25 -1.65 1.2 -1.75 1.1 -1.8 1.1 -1.9 1.15 -2.05 1.15 -2.2 1.25 -2.2" fill="#5f2d7e" fill-rule="evenodd" stroke="none"/>
    <path d="M1.25 -1.65 L1.25 -1.8 1.35 -1.85 1.45 -1.85 1.5 -1.8 1.6 -1.7 Q1.65 -1.65 1.7 -1.65 L1.85 -1.65 2.2 -1.7 2.2 -1.65 2.0 -1.6 1.8 -1.55 1.6 -1.55 1.4 -1.65 1.3 -1.55 1.25 -1.6 1.25 -1.65" fill="#56257c" fill-rule="evenodd" stroke="none"/>
    <path d="M1.1 -1.8 L1.2 -1.75 1.25 -1.65 1.25 -1.6 1.15 -1.55 1.05 -1.55 1.05 -1.6 1.1 -1.65 1.1 -1.8" fill="#6a2a87" fill-rule="evenodd" stroke="none"/>
    <path d="M1.25 -1.6 L1.3 -1.55 1.3 -1.4 1.2 -1.35 1.1 -1.35 1.1 -1.15 1.05 -1.25 1.1 -1.4 1.15 -1.4 Q1.2 -1.4 1.25 -1.4 L1.2 -1.5 1.15 -1.55 1.25 -1.6" fill="#5d2492" fill-rule="evenodd" stroke="none"/>
    <path d="M1.3 -1.55 L1.4 -1.65 1.6 -1.55 1.8 -1.55 Q1.7 -1.4 1.55 -1.4 L1.55 -1.2 Q1.5 -1.2 1.5 -1.25 L1.4 -1.3 Q1.35 -1.4 1.25 -1.35 1.15 -1.3 1.15 -1.2 L1.2 -1.15 1.25 -1.05 1.3 -1.0 1.35 -0.95 1.45 -0.95 1.55 -1.0 1.6 -0.95 1.55 -0.95 1.5 -0.9 1.35 -0.85 1.15 -0.95 1.1 -1.05 1.1 -1.15 1.1 -1.35 1.2 -1.35 1.3 -1.4 1.3 -1.55 M1.1 -1.05 L1.1 -1.05" fill="#4d1d85" fill-rule="evenodd" stroke="none"/>
    <path d="M1.1 -1.9 L1.1 -1.8 1.1 -1.65 1.05 -1.7 1.0 -1.75 0.95 -1.65 0.95 -1.7 0.9 -1.8 0.9 -1.9 1.0 -1.95 1.1 -1.9 M0.95 -1.65 L0.95 -1.65" fill="#643f7f" fill-rule="evenodd" stroke="none"/>
    <path d="M1.15 -1.55 L1.2 -1.5 1.25 -1.4 Q1.2 -1.4 1.15 -1.4 L1.1 -1.4 1.05 -1.55 1.15 -1.55" fill="#712999" fill-rule="evenodd" stroke="none"/>
    <path d="M1.05 -1.6 L1.0 -1.6 Q1.0 -1.6 1.0 -1.55 L0.95 -1.65 1.0 -1.75 1.05 -1.7 1.1 -1.65 1.05 -1.6" fill="#715489" fill-rule="evenodd" stroke="none"/>
    <path d="M1.1 -1.4 L1.05 -1.25 1.0 -1.2 0.95 -1.2 1.0 -1.4 1.0 -1.55 Q1.0 -1.6 1.0 -1.6 L1.05 -1.6 1.05 -1.55 1.1 -1.4 M0.95 -1.2 L0.95 -1.2" fill="#7e7594" fill-rule="evenodd" stroke="none"/>
    <path d="M1.55 -1.0 L1.45 -0.95 1.35 -0.95 1.3 -1.0 1.25 -1.05 1.2 -1.15 1.15 -1.2 Q1.15 -1.3 1.25 -1.35 1.35 -1.4 1.4 -1.3 L1.5 -1.25 Q1.5 -1.2 1.55 -1.2 L1.6 -1.35 1.7 -1.4 1.8 -1.45 Q1.85 -1.5 2.0 -1.55 L2.2 -1.6 2.2 -1.55 1.95 -1.45 1.75 -1.3 Q1.75 -1.25 1.75 -1.2 L1.7 -1.1 1.65 -1.15 1.65 -1.15 1.55 -1.15 1.45 -1.2 1.4 -1.2 1.4 -1.3 1.25 -1.3 Q1.2 -1.3 1.2 -1.25 1.25 -1.15 1.3 -1.2 L1.35 -1.1 Q1.35 -1.05 1.35 -1.0 1.4 -1.0 1.45 -1.0 L1.55 -1.0 1.55 -1.0" fill="#401b73" fill-rule="evenodd" stroke="none"/>
    <path d="M1.55 -1.0 L1.45 -1.0 Q1.4 -1.0 1.35 -1.0 1.35 -1.05 1.35 -1.1 L1.3 -1.2 Q1.25 -1.15 1.2 -1.25 1.2 -1.3 1.25 -1.3 L1.4 -1.3 1.4 -1.2 1.45 -1.2 1.55 -1.15 1.65 -1.15 1.65 -1.15 1.7 -1.1 1.75 -1.2 Q1.75 -1.25 1.75 -1.3 L1.95 -1.45 2.2 -1.55 2.2 -1.4 2.05 -1.35 1.9 -1.3 1.85 -1.2 1.8 -1.05 1.7 -1.05 1.55 -1.1 1.5 -1.1 Q1.45 -1.1 1.45 -1.05 L1.5 -1.05 1.55 -1.0 1.55 -1.0" fill="#371868" fill-rule="evenodd" stroke="none"/>
    <path d="M1.8 -1.55 L2.0 -1.6 2.2 -1.65 2.2 -1.6 2.0 -1.55 Q1.85 -1.5 1.8 -1.45 L1.7 -1.4 1.6 -1.35 1.55 -1.2 1.55 -1.4 Q1.7 -1.4 1.8 -1.55" fill="#471f7a" fill-rule="evenodd" stroke="none"/>
    <path d="M0.6 -2.0 L0.55 -2.1 0.55 -2.15 0.65 -2.05 0.75 -1.9 0.8 -1.85 0.8 -1.75 0.7 -1.6 0.65 -1.5 0.55 -1.45 0.45 -1.45 0.4 -1.45 0.35 -1.5 0.3 -1.55 0.25 -1.55 Q0.2 -1.7 0.25 -1.8 L0.35 -1.9 0.35 -1.75 0.45 -1.65 Q0.55 -1.55 0.65 -1.6 0.7 -1.7 0.65 -1.8 L0.6 -2.0" fill="#462166" fill-rule="evenodd" stroke="none"/>
    <path d="M0.8 -1.75 L0.8 -1.85 0.75 -1.9 0.65 -2.05 0.55 -2.15 0.55 -2.2 0.8 -2.2 0.8 -1.9 0.8 -1.85 0.85 -1.75 0.8 -1.75" fill="#4d296b" fill-rule="evenodd" stroke="none"/>
    <path d="M0.55 -2.15 L0.55 -2.1 0.6 -2.0 Q0.5 -2.0 0.45 -1.95 L0.35 -1.75 0.35 -1.9 0.3 -1.95 0.25 -2.0 Q0.2 -2.1 0.2 -2.2 L0.55 -2.2 0.55 -2.15" fill="#3d2c5e" fill-rule="evenodd" stroke="none"/>
    <path d="M0.35 -1.9 L0.25 -1.8 0.25 -1.85 0.2 -1.95 0.1 -2.05 0.1 -2.2 0.2 -2.2 Q0.2 -2.1 0.25 -2.0 L0.3 -1.95 0.35 -1.9" fill="#483b68" fill-rule="evenodd" stroke="none"/>
    <path d="M0.1 -2.2 L0.1 -2.05 -0.15 -2.0 Q-0.2 -2.1 -0.3 -2.05 L-0.5 -2.05 -0.6 -2.2 0.1 -2.2 M-0.15 -2.0 L-0.15 -2.0" fill="#554f72" fill-rule="evenodd" stroke="none"/>
    <path d="M0.1 -2.05 L0.2 -1.95 0.25 -1.85 0.2 -1.85 Q0.15 -1.9 0.05 -1.9 L-0.1 -1.9 -0.1 -1.95 -0.15 -2.0 0.1 -2.05" fill="#573f74" fill-rule="evenodd" stroke="none"/>
    <path d="M-0.15 -2.0 L-0.1 -1.95 -0.1 -1.9 0.05 -1.9 Q0.15 -1.9 0.2 -1.85 L0.15 -1.75 0.15 -1.85 0.05 -1.8 Q0.0 -1.8 -0.05 -1.8 L-0.25 -1.9 -0.15 -2.0 -0.15 -2.0" fill="#653f7f" fill-rule="evenodd" stroke="none"/>
    <path d="M0.6 -2.0 L0.65 -1.8 Q0.7 -1.7 0.65 -1.6 0.55 -1.55 0.45 -1.65 L0.35 -1.75 0.45 -1.95 Q0.5 -2.0 0.6 -2.0" fill="#3a1e5c" fill-rule="evenodd" stroke="none"/>
    <path d="M0.25 -1.8 Q0.2 -1.7 0.25 -1.55 L0.15 -1.65 0.15 -1.7 0.15 -1.75 0.2 -1.85 0.25 -1.85 0.25 -1.8 M0.25 -1.55 L0.25 -1.55 0.25 -1.55" fill="#5f2c7a" fill-rule="evenodd" stroke="none"/>
    <path d="M-0.25 -1.9 L-0.05 -1.8 Q0.0 -1.8 0.05 -1.8 L0.15 -1.85 0.15 -1.75 0.15 -1.7 0.1 -1.75 Q0.1 -1.8 0.05 -1.75 L-0.1 -1.75 -0.3 -1.8 -0.3 -1.85 -0.25 -1.9 -0.25 -1.9" fill="#723f8a" fill-rule="evenodd" stroke="none"/>
    <path d="M-0.3 -1.8 L-0.1 -1.75 0.05 -1.75 Q0.1 -1.8 0.1 -1.75 L0.15 -1.7 0.15 -1.65 0.0 -1.65 -0.2 -1.75 -0.3 -1.75 -0.3 -1.8 -0.3 -1.8" fill="#823c97" fill-rule="evenodd" stroke="none"/>
    <path d="M0.25 -1.55 L0.3 -1.55 0.35 -1.5 0.4 -1.45 0.45 -1.45 0.55 -1.45 0.65 -1.5 0.7 -1.6 0.8 -1.75 0.85 -1.75 0.8 -1.85 0.8 -1.9 0.9 -1.7 Q0.85 -1.7 0.9 -1.6 L0.9 -1.5 0.8 -1.45 0.7 -1.4 0.55 -1.4 0.45 -1.35 Q0.4 -1.35 0.35 -1.45 L0.25 -1.55 0.25 -1.55" fill="#542173" fill-rule="evenodd" stroke="none"/>
    <path d="M-0.2 -1.75 L0.0 -1.65 0.15 -1.65 0.25 -1.55 0.2 -1.45 0.2 -1.4 0.1 -1.4 0.15 -1.5 0.15 -1.55 -0.1 -1.65 Q-0.15 -1.65 -0.15 -1.65 -0.25 -1.7 -0.2 -1.75" fill="#a238b2" fill-rule="evenodd" stroke="none"/>
    <path d="M0.25 -1.55 L0.25 -1.55 0.35 -1.45 Q0.4 -1.35 0.45 -1.35 L0.35 -1.35 0.25 -1.35 0.2 -1.35 0.2 -1.4 0.2 -1.45 0.25 -1.55 M0.5 -1.35 L0.45 -1.35 0.5 -1.35" fill="#9630ad" fill-rule="evenodd" stroke="none"/>
    <path d="M-0.1 -1.65 L0.15 -1.55 0.15 -1.5 0.1 -1.4 0.2 -1.4 0.2 -1.35 Q0.15 -1.35 0.1 -1.3 0.05 -1.25 0.0 -1.3 L-0.05 -1.35 -0.05 -1.4 0.0 -1.45 0.0 -1.5 -0.1 -1.5 -0.15 -1.55 -0.1 -1.65" fill="#b539c2" fill-rule="evenodd" stroke="none"/>
    <path d="M0.0 -1.3 Q0.05 -1.25 0.1 -1.3 0.15 -1.35 0.2 -1.35 L0.25 -1.35 0.3 -1.2 0.25 -1.15 0.2 -1.15 0.1 -1.25 0.0 -1.3" fill="#c03bcb" fill-rule="evenodd" stroke="none"/>
    <path d="M0.25 -1.35 L0.35 -1.35 0.45 -1.35 0.45 -1.25 Q0.55 -1.3 0.6 -1.2 L0.5 -1.15 0.45 -1.2 0.35 -1.15 Q0.35 -1.2 0.3 -1.2 L0.25 -1.35" fill="#ac36ca" fill-rule="evenodd" stroke="none"/>
    <path d="M0.6 -1.2 Q0.55 -1.3 0.45 -1.25 L0.45 -1.35 0.5 -1.35 0.55 -1.35 0.6 -1.35 Q0.6 -1.3 0.65 -1.3 L0.75 -1.3 Q0.75 -1.25 0.7 -1.25 L0.6 -1.2 0.6 -1.2" fill="#8f2bc7" fill-rule="evenodd" stroke="none"/>
    <path d="M0.5 -1.35 L0.45 -1.35 0.55 -1.4 0.7 -1.4 0.75 -1.35 0.75 -1.3 0.65 -1.3 Q0.6 -1.3 0.6 -1.35 L0.55 -1.35 0.5 -1.35 M0.75 -1.35 L0.75 -1.35" fill="#7d27b3" fill-rule="evenodd" stroke="none"/>
    <path d="M1.0 -1.55 L1.0 -1.4 0.95 -1.2 0.9 -1.3 0.9 -1.4 1.0 -1.35 0.95 -1.5 Q0.95 -1.6 0.95 -1.65 L1.0 -1.55 M0.95 -1.65 L0.95 -1.65" fill="#762d8f" fill-rule="evenodd" stroke="none"/>
    <path d="M0.9 -1.7 L0.95 -1.7 0.95 -1.65 Q0.95 -1.6 0.95 -1.5 L1.0 -1.35 0.9 -1.4 0.85 -1.4 0.75 -1.35 0.7 -1.4 0.8 -1.45 0.9 -1.5 0.9 -1.6 Q0.85 -1.7 0.9 -1.7" fill="#692583" fill-rule="evenodd" stroke="none"/>
    <path d="M0.75 -1.3 L0.75 -1.35 0.85 -1.35 0.9 -1.25 0.8 -1.25 0.7 -1.2 0.6 -1.2 0.7 -1.25 Q0.75 -1.25 0.75 -1.3" fill="#ac34c6" fill-rule="evenodd" stroke="none"/>
    <path d="M0.95 -1.2 L0.95 -1.2 0.9 -1.25 0.85 -1.35 0.75 -1.35 0.85 -1.4 0.9 -1.4 0.9 -1.3 0.95 -1.2 0.95 -1.2 M0.75 -1.35 L0.75 -1.35" fill="#953faa" fill-rule="evenodd" stroke="none"/>
    <path d="M0.5 -1.15 L0.6 -1.2 0.7 -1.2 0.8 -1.25 0.9 -1.25 0.95 -1.2 0.9 -1.15 Q0.9 -1.15 0.85 -1.2 L0.8 -1.2 0.75 -1.15 0.7 -1.1 Q0.65 -1.1 0.6 -1.15 L0.5 -1.15 0.5 -1.15 M0.6 -1.2 L0.6 -1.2" fill="#cb3ad8" fill-rule="evenodd" stroke="none"/>
    <path d="M0.95 -1.2 L1.0 -1.2 1.0 -1.15 0.95 -1.1 0.95 -1.05 0.9 -1.1 0.9 -1.15 0.95 -1.2 0.95 -1.2" fill="#cbc9d4" fill-rule="evenodd" stroke="none"/>
    <path d="M0.9 -1.15 L0.9 -1.1 0.85 -1.1 0.8 -1.1 0.75 -1.1 0.6 -1.05 Q0.5 -1.1 0.5 -1.15 L0.6 -1.15 Q0.65 -1.1 0.7 -1.1 L0.75 -1.15 0.8 -1.2 0.85 -1.2 Q0.9 -1.15 0.9 -1.15" fill="#df3fe5" fill-rule="evenodd" stroke="none"/>
    <path d="M1.1 -1.05 L1.1 -1.05 1.1 -0.9 Q1.05 -0.9 1.05 -0.95 L1.05 -1.0 1.0 -1.1 0.95 -1.1 1.0 -1.15 1.05 -1.1 1.1 -1.05 M1.05 -1.0 L1.05 -1.0" fill="#af3bd3" fill-rule="evenodd" stroke="none"/>
    <path d="M0.95 -1.05 L0.95 -1.1 1.0 -1.1 1.0 -1.05 1.05 -1.0 1.05 -1.0 0.95 -0.9 0.9 -0.85 0.8 -0.8 Q0.8 -0.75 0.75 -0.75 L0.8 -0.95 0.95 -1.05" fill="#eb59ef" fill-rule="evenodd" stroke="none"/>
    <path d="M1.1 -1.15 L1.1 -1.05 1.05 -1.1 1.0 -1.15 1.0 -1.2 1.05 -1.25 1.1 -1.15" fill="#6e2aad" fill-rule="evenodd" stroke="none"/>
    <path d="M0.45 -1.2 L0.5 -1.15 Q0.5 -1.1 0.6 -1.05 L0.75 -1.1 0.8 -1.1 0.85 -1.1 Q0.7 -0.95 0.65 -0.7 L0.45 -0.8 0.45 -0.75 0.4 -0.7 Q0.35 -0.7 0.35 -0.7 L0.35 -0.75 0.3 -0.75 0.3 -1.05 0.35 -1.1 0.35 -1.15 0.4 -1.15 0.45 -1.2 M0.5 -1.15 L0.5 -1.15" fill="#f245f6" fill-rule="evenodd" stroke="none"/>
    <path d="M0.85 -1.1 L0.9 -1.1 0.95 -1.05 0.8 -0.95 0.75 -0.75 0.65 -0.5 0.6 -0.35 0.55 -0.3 0.5 -0.3 0.55 -0.4 0.6 -0.55 0.65 -0.7 Q0.7 -0.95 0.85 -1.1" fill="#eee5f1" fill-rule="evenodd" stroke="none"/>
    <path d="M1.0 -1.1 L1.05 -1.0 1.0 -1.05 1.0 -1.1" fill="#d8bcdf" fill-rule="evenodd" stroke="none"/>
    <path d="M0.45 -0.75 L0.45 -0.8 0.65 -0.7 0.6 -0.55 0.6 -0.65 0.55 -0.7 0.45 -0.75" fill="#d63dea" fill-rule="evenodd" stroke="none"/>
    <path d="M0.45 -0.75 L0.55 -0.7 0.6 -0.65 0.5 -0.65 0.4 -0.65 0.4 -0.4 0.35 -0.4 0.35 -0.45 0.3 -0.6 0.3 -0.75 0.35 -0.75 0.35 -0.7 Q0.35 -0.7 0.4 -0.7 L0.45 -0.75" fill="#b537f0" fill-rule="evenodd" stroke="none"/>
    <path d="M1.05 -1.0 L1.05 -0.95 Q1.05 -0.9 1.1 -0.9 L1.2 -0.85 1.25 -0.75 1.15 -0.85 Q1.05 -0.85 1.05 -0.75 L1.05 -0.6 1.0 -0.5 0.95 -0.5 Q0.85 -0.5 0.85 -0.55 L0.75 -0.55 0.65 -0.5 0.75 -0.75 Q0.8 -0.75 0.8 -0.8 L0.9 -0.85 0.95 -0.9 1.05 -1.0 M1.2 -0.85 L1.2 -0.85 M0.9 -0.55 L0.95 -0.6 1.0 -0.65 1.05 -0.7 1.0 -0.75 0.9 -0.8 0.8 -0.7 Q0.75 -0.65 0.8 -0.6 0.8 -0.6 0.9 -0.55" fill="#de45e8" fill-rule="evenodd" stroke="none"/>
    <path d="M0.9 -0.55 L0.85 -0.65 0.85 -0.7 0.9 -0.75 1.0 -0.75 1.0 -0.65 0.95 -0.6 0.9 -0.55" fill="#dcd3e2" fill-rule="evenodd" stroke="none"/>
    <path d="M1.0 -0.75 L0.9 -0.75 0.85 -0.7 0.85 -0.65 0.9 -0.55 Q0.8 -0.6 0.8 -0.6 0.75 -0.65 0.8 -0.7 L0.9 -0.8 1.0 -0.75 1.0 -0.75" fill="#df69e4" fill-rule="evenodd" stroke="none"/>
    <path d="M1.0 -0.65 L1.0 -0.75 1.0 -0.75 1.05 -0.7 1.0 -0.65" fill="#d983e0" fill-rule="evenodd" stroke="none"/>
    <path d="M0.35 -1.15 L0.45 -1.2 0.4 -1.15 0.35 -1.15" fill="#d944e5" fill-rule="evenodd" stroke="none"/>
    <path d="M0.3 -1.2 Q0.35 -1.2 0.35 -1.15 L0.35 -1.1 0.3 -1.05 0.3 -1.05 0.2 -1.05 Q0.1 -1.05 0.1 -1.1 0.1 -1.15 0.05 -1.15 L0.0 -1.1 -0.05 -1.1 -0.1 -1.15 -0.2 -1.25 -0.2 -1.45 -0.1 -1.45 -0.05 -1.4 -0.05 -1.35 0.0 -1.3 0.1 -1.25 0.2 -1.15 0.25 -1.15 0.3 -1.2" fill="#d647de" fill-rule="evenodd" stroke="none"/>
    <path d="M0.3 -1.05 L0.3 -0.75 0.3 -0.6 0.25 -0.6 0.25 -0.75 0.25 -1.0 0.3 -1.05 0.3 -1.05" fill="#f47bf6" fill-rule="evenodd" stroke="none"/>
    <path d="M0.3 -1.05 L0.25 -1.0 0.15 -1.0 0.05 -0.95 0.05 -0.8 0.0 -0.75 -0.05 -0.85 -0.05 -1.0 -0.1 -1.05 -0.1 -1.15 -0.05 -1.1 0.0 -1.1 0.05 -1.15 Q0.1 -1.15 0.1 -1.1 0.1 -1.05 0.2 -1.05 L0.3 -1.05" fill="#e747eb" fill-rule="evenodd" stroke="none"/>
    <path d="M0.25 -1.0 L0.25 -0.75 0.2 -0.75 0.15 -0.8 0.1 -0.8 0.05 -0.8 0.05 -0.95 0.15 -1.0 0.25 -1.0" fill="#f343f7" fill-rule="evenodd" stroke="none"/>
    <path d="M0.25 -0.75 L0.25 -0.6 0.2 -0.6 0.15 -0.55 0.1 -0.55 0.1 -0.5 0.05 -0.55 0.05 -0.5 0.0 -0.55 0.05 -0.65 0.0 -0.75 0.05 -0.8 0.1 -0.8 0.15 -0.8 0.2 -0.75 0.25 -0.75 M0.2 -0.65 Q0.25 -0.65 0.2 -0.75 L0.1 -0.8 Q0.0 -0.75 0.05 -0.7 0.15 -0.6 0.2 -0.65" fill="#f163f6" fill-rule="evenodd" stroke="none"/>
    <path d="M-0.05 -0.85 L0.0 -0.75 0.05 -0.65 0.0 -0.55 0.0 -0.55 0.0 -0.6 -0.05 -0.8 -0.05 -0.85" fill="#f2d7f5" fill-rule="evenodd" stroke="none"/>
    <path d="M0.2 -0.65 Q0.15 -0.6 0.05 -0.7 0.0 -0.75 0.1 -0.8 L0.2 -0.75 Q0.25 -0.65 0.2 -0.65" fill="#f7e3f8" fill-rule="evenodd" stroke="none"/>
    <path d="M0.4 -0.4 L0.4 -0.65 0.5 -0.65 0.6 -0.65 0.6 -0.55 0.55 -0.4 0.45 -0.45 0.4 -0.4" fill="#a631f1" fill-rule="evenodd" stroke="none"/>
    <path d="M0.3 -0.6 L0.35 -0.45 0.35 -0.25 0.3 -0.3 Q0.35 -0.35 0.25 -0.5 L0.15 -0.5 0.15 -0.55 0.2 -0.6 0.25 -0.6 0.3 -0.6 0.3 -0.6" fill="#c346ed" fill-rule="evenodd" stroke="none"/>
    <path d="M0.35 -0.45 L0.35 -0.4 0.4 -0.4 0.45 -0.45 0.55 -0.4 0.5 -0.3 0.45 -0.3 0.4 -0.25 0.4 -0.25 0.35 -0.2 0.35 -0.25 0.35 -0.45 M0.5 -0.3 L0.5 -0.3" fill="#9532e4" fill-rule="evenodd" stroke="none"/>
    <path d="M0.3 -0.75 L0.3 -0.6 0.3 -0.75 M0.3 -0.6 L0.3 -0.6" fill="#e252f7" fill-rule="evenodd" stroke="none"/>
    <path d="M0.35 -0.25 L0.35 -0.2 0.45 -0.15 0.4 -0.05 0.35 -0.15 0.25 -0.25 0.15 -0.35 0.1 -0.5 0.1 -0.55 0.15 -0.55 0.15 -0.5 0.2 -0.4 0.3 -0.3 0.35 -0.25 M0.4 -0.05 L0.4 -0.05" fill="#db92e2" fill-rule="evenodd" stroke="none"/>
    <path d="M0.0 -0.5 L0.0 -0.55 0.05 -0.5 0.0 -0.35 0.0 -0.4 0.0 -0.5 M0.0 -0.55 L0.0 -0.55" fill="#e197e6" fill-rule="evenodd" stroke="none"/>
    <path d="M0.0 -0.35 L0.05 -0.5 0.05 -0.55 0.1 -0.5 0.15 -0.35 0.15 -0.25 0.15 -0.2 0.1 -0.3 0.0 -0.3 0.0 -0.35" fill="#9739da" fill-rule="evenodd" stroke="none"/>
    <path d="M0.0 -0.55 L0.0 -0.5 Q-0.05 -0.55 -0.05 -0.5 L-0.1 -0.6 0.0 -0.6 0.0 -0.55" fill="#c641f2" fill-rule="evenodd" stroke="none"/>
    <path d="M0.0 -0.4 L0.0 -0.35 0.0 -0.3 0.0 -0.25 -0.05 -0.15 -0.1 -0.05 -0.15 0.05 -0.2 0.15 -0.2 0.1 -0.2 0.1 Q-0.1 0.0 -0.1 -0.1 L-0.15 -0.2 -0.1 -0.2 -0.05 -0.3 0.0 -0.4 0.0 -0.4" fill="#c37fd6" fill-rule="evenodd" stroke="none"/>
    <path d="M0.15 -0.35 L0.25 -0.25 Q0.2 -0.25 0.25 -0.2 L0.3 -0.1 0.15 -0.25 0.15 -0.35 M0.3 -0.1 L0.3 -0.1" fill="#a64cdf" fill-rule="evenodd" stroke="none"/>
    <path d="M0.15 -0.5 L0.25 -0.5 0.2 -0.45 0.2 -0.4 0.15 -0.5" fill="#aa37e8" fill-rule="evenodd" stroke="none"/>
    <path d="M0.25 -0.5 Q0.35 -0.35 0.3 -0.3 L0.2 -0.4 0.2 -0.45 0.25 -0.5" fill="#9231e1" fill-rule="evenodd" stroke="none"/>
    <path d="M0.0 -0.5 L0.0 -0.4 -0.05 -0.45 -0.1 -0.45 -0.15 -0.5 -0.2 -0.45 -0.25 -0.55 -0.25 -0.7 -0.2 -0.65 -0.2 -0.6 -0.05 -0.5 -0.05 -0.5 Q-0.05 -0.55 0.0 -0.5 M0.0 -0.4 L0.0 -0.4" fill="#a535ec" fill-rule="evenodd" stroke="none"/>
    <path d="M0.25 0.2 Q0.25 0.15 0.2 0.15 0.15 0.1 0.15 0.0 L0.2 0.0 0.2 -0.05 0.15 -0.15 0.05 0.05 -0.1 0.2 -0.2 0.3 -0.2 0.4 -0.25 0.4 -0.25 0.5 -0.3 0.65 -0.35 0.5 -0.4 0.55 -0.4 0.5 -0.35 0.4 -0.3 0.3 -0.2 0.15 -0.15 0.05 -0.1 -0.05 -0.05 -0.15 0.0 -0.25 0.0 -0.25 0.05 -0.3 0.1 -0.2 0.15 -0.2 0.15 -0.25 0.3 -0.1 0.3 0.1 0.25 0.2 M-0.45 0.85 L-0.4 0.85 -0.35 0.8 Q-0.3 0.75 -0.3 0.65 L-0.3 0.8 Q-0.3 0.95 -0.4 0.9 L-0.45 0.9 -0.5 0.95 -0.45 0.9 -0.45 0.85 -0.45 0.85" fill="#65269b" fill-rule="evenodd" stroke="none"/>
    <path d="M0.15 -0.2 L0.1 -0.2 0.05 -0.3 0.0 -0.25 0.0 -0.25 0.0 -0.3 0.1 -0.3 0.15 -0.2" fill="#7028b4" fill-rule="evenodd" stroke="none"/>
    <path d="M-0.1 0.2 L0.05 0.05 0.15 -0.15 0.2 -0.05 0.2 0.0 0.15 0.0 Q0.15 0.1 0.2 0.15 0.25 0.15 0.25 0.2 L0.15 0.45 0.0 0.4 Q-0.1 0.35 -0.15 0.35 L-0.1 0.2" fill="#5d1f8e" fill-rule="evenodd" stroke="none"/>
    <path d="M0.35 -0.2 L0.4 -0.25 0.4 -0.25 0.45 -0.3 0.5 -0.3 0.45 -0.2 0.45 -0.15 0.35 -0.2" fill="#8734cd" fill-rule="evenodd" stroke="none"/>
    <path d="M0.5 -0.3 L0.5 -0.3 0.55 -0.3 0.5 -0.15 0.45 -0.05 0.4 -0.05 0.45 -0.15 0.45 -0.2 0.5 -0.3" fill="#d5c2dd" fill-rule="evenodd" stroke="none"/>
    <path d="M0.25 -0.25 L0.35 -0.15 0.4 -0.05 0.35 0.05 0.3 -0.05 0.3 -0.1 0.25 -0.2 Q0.2 -0.25 0.25 -0.25" fill="#913fd3" fill-rule="evenodd" stroke="none"/>
    <path d="M0.3 0.1 L0.3 -0.1 0.3 -0.05 0.35 0.05 0.3 0.1 M0.3 -0.1 L0.3 -0.1" fill="#c770e8" fill-rule="evenodd" stroke="none"/>
    <path d="M0.4 -0.05 L0.4 -0.05 0.45 -0.05 0.45 0.0 0.45 0.1 Q0.35 0.1 0.35 0.15 L0.35 0.25 0.35 0.45 Q0.3 0.45 0.3 0.4 L0.3 0.35 0.25 0.5 0.2 0.6 0.15 0.65 0.1 0.7 0.1 0.65 0.15 0.55 0.15 0.45 0.25 0.2 0.3 0.1 0.35 0.05 0.4 -0.05" fill="#f4e9f7" fill-rule="evenodd" stroke="none"/>
    <path d="M0.45 0.0 L0.45 -0.05 0.5 -0.15 0.55 -0.3 0.65 -0.3 0.75 -0.25 0.7 -0.25 Q0.7 -0.2 0.75 -0.2 L0.8 -0.2 0.85 -0.25 0.9 -0.25 0.9 -0.2 0.85 -0.1 0.9 -0.05 0.85 0.0 0.8 0.05 0.8 0.1 0.8 -0.05 Q0.75 -0.05 0.65 -0.1 L0.55 -0.15 0.5 0.1 0.5 0.15 0.45 0.0" fill="#7f2cc7" fill-rule="evenodd" stroke="none"/>
    <path d="M0.8 -0.35 L0.85 -0.4 0.85 -0.35 Q0.85 -0.3 0.8 -0.35" fill="#ec62fa" fill-rule="evenodd" stroke="none"/>
    <path d="M0.65 -0.5 L0.75 -0.55 0.85 -0.55 Q0.85 -0.5 0.95 -0.5 L1.0 -0.5 1.05 -0.45 0.95 -0.4 Q0.9 -0.4 0.95 -0.3 L0.9 -0.25 0.85 -0.35 0.85 -0.4 0.8 -0.35 0.7 -0.4 Q0.65 -0.35 0.6 -0.35 L0.65 -0.5" fill="#b436f7" fill-rule="evenodd" stroke="none"/>
    <path d="M0.85 -0.35 L0.9 -0.25 0.95 -0.3 Q0.9 -0.4 0.95 -0.4 L1.05 -0.45 1.05 -0.4 1.1 -0.2 Q1.05 -0.2 1.0 -0.2 L0.9 -0.2 0.9 -0.25 0.85 -0.25 0.8 -0.2 0.75 -0.2 Q0.7 -0.2 0.7 -0.25 L0.75 -0.25 0.65 -0.3 0.55 -0.3 0.6 -0.35 Q0.65 -0.35 0.7 -0.4 L0.8 -0.35 Q0.85 -0.3 0.85 -0.35 M1.05 -0.45 L1.05 -0.45" fill="#912ce8" fill-rule="evenodd" stroke="none"/>
    <path d="M0.5 0.1 L0.55 -0.15 0.65 -0.1 Q0.75 -0.05 0.8 -0.05 L0.8 0.1 Q0.75 0.0 0.65 0.0 0.55 0.0 0.5 0.1" fill="#7024b0" fill-rule="evenodd" stroke="none"/>
    <path d="M0.8 0.05 L0.85 0.0 0.9 -0.05 0.85 -0.1 0.9 -0.2 1.0 -0.15 1.15 -0.15 1.25 -0.1 1.3 -0.1 1.25 -0.15 Q1.25 -0.2 1.25 -0.25 L1.3 -0.25 1.35 -0.25 1.4 -0.15 1.45 -0.15 1.45 -0.1 1.4 -0.05 1.35 0.05 1.45 0.1 1.45 0.2 1.5 0.25 1.4 0.25 1.4 0.15 1.35 0.1 1.3 0.05 1.1 -0.05 Q1.05 -0.15 1.0 -0.15 L0.95 0.05 Q0.9 0.1 0.8 0.05" fill="#6e23af" fill-rule="evenodd" stroke="none"/>
    <path d="M0.9 -0.2 L1.0 -0.2 Q1.05 -0.2 1.1 -0.2 L1.05 -0.4 1.05 -0.45 1.1 -0.5 1.1 -0.5 Q1.1 -0.55 1.15 -0.55 L1.25 -0.55 1.2 -0.4 1.15 -0.2 1.2 -0.2 1.25 -0.25 Q1.25 -0.2 1.25 -0.15 L1.3 -0.1 1.25 -0.1 1.15 -0.15 1.0 -0.15 0.9 -0.2" fill="#8027d0" fill-rule="evenodd" stroke="none"/>
    <path d="M1.55 -1.0 L1.5 -1.05 1.45 -1.05 Q1.45 -1.1 1.5 -1.1 L1.55 -1.1 1.7 -1.05 1.8 -1.05 1.85 -1.2 1.9 -1.3 2.05 -1.35 2.2 -1.4 2.2 -0.7 1.95 -0.75 1.75 -0.9 1.55 -1.0" fill="#2d165b" fill-rule="evenodd" stroke="none"/>
    <path d="M1.6 -0.95 L1.55 -1.0 1.55 -1.0 1.75 -0.9 1.95 -0.75 2.2 -0.7 2.2 -0.6 1.95 -0.6 1.75 -0.65 Q1.7 -0.65 1.7 -0.7 L1.75 -0.75 Q1.8 -0.85 1.6 -0.95 M1.55 -1.0 L1.55 -1.0" fill="#3c186b" fill-rule="evenodd" stroke="none"/>
    <path d="M1.5 -0.9 L1.55 -0.95 1.6 -0.95 1.65 -0.85 1.65 -0.7 Q1.65 -0.65 1.6 -0.65 L1.65 -0.7 1.6 -0.8 1.6 -0.85 1.55 -0.9 1.55 -0.9 1.5 -0.9" fill="#993dc5" fill-rule="evenodd" stroke="none"/>
    <path d="M1.55 -0.9 L1.6 -0.85 1.6 -0.8 1.55 -0.85 1.5 -0.9 1.55 -0.9 M1.6 -0.8 L1.6 -0.8" fill="#c8c4d1" fill-rule="evenodd" stroke="none"/>
    <path d="M1.6 -0.8 L1.6 -0.8 1.65 -0.7 1.6 -0.65 1.55 -0.65 1.6 -0.7 1.6 -0.8 M1.4 -0.75 L1.5 -0.8 1.5 -0.7 1.55 -0.65 1.45 -0.7 1.4 -0.75 1.4 -0.75" fill="#e568ea" fill-rule="evenodd" stroke="none"/>
    <path d="M1.5 -0.9 L1.55 -0.85 1.6 -0.8 1.6 -0.7 1.55 -0.65 1.5 -0.7 1.5 -0.8 1.4 -0.75 1.45 -0.85 1.5 -0.9" fill="#e2d8e7" fill-rule="evenodd" stroke="none"/>
    <path d="M1.35 -0.85 L1.5 -0.9 1.55 -0.9 1.55 -0.9 1.5 -0.9 1.45 -0.85 1.4 -0.75 Q1.35 -0.75 1.35 -0.8 L1.35 -0.85 M1.4 -0.75 L1.4 -0.75" fill="#c852e5" fill-rule="evenodd" stroke="none"/>
    <path d="M1.15 -0.95 L1.35 -0.85 1.35 -0.8 Q1.35 -0.75 1.4 -0.75 L1.45 -0.65 Q1.5 -0.6 1.55 -0.65 L1.6 -0.65 Q1.65 -0.65 1.65 -0.7 L1.65 -0.85 1.7 -0.75 1.7 -0.6 1.55 -0.55 Q1.5 -0.55 1.5 -0.5 1.45 -0.5 1.4 -0.55 L1.3 -0.7 1.25 -0.7 1.25 -0.8 1.2 -0.85 1.15 -0.95 M1.2 -0.85 L1.2 -0.85" fill="#6d24aa" fill-rule="evenodd" stroke="none"/>
    <path d="M1.65 -0.85 L1.6 -0.95 Q1.8 -0.85 1.75 -0.75 L1.7 -0.7 Q1.7 -0.65 1.75 -0.65 L1.95 -0.6 2.2 -0.6 2.2 -0.55 2.0 -0.55 1.8 -0.6 1.8 -0.55 1.8 -0.5 1.7 -0.5 1.5 -0.5 Q1.5 -0.55 1.55 -0.55 L1.7 -0.6 1.7 -0.75 1.65 -0.85 M1.8 -0.55 L1.8 -0.55 1.8 -0.55" fill="#531d86" fill-rule="evenodd" stroke="none"/>
    <path d="M1.1 -1.05 L1.15 -0.95 1.2 -0.85 1.1 -0.9 1.1 -1.05" fill="#8b31d4" fill-rule="evenodd" stroke="none"/>
    <path d="M1.25 -0.75 L1.2 -0.85 1.25 -0.8 1.25 -0.7 1.25 -0.75" fill="#9e32e1" fill-rule="evenodd" stroke="none"/>
    <path d="M1.05 -0.6 L1.05 -0.75 Q1.05 -0.85 1.15 -0.85 L1.25 -0.75 1.25 -0.7 1.3 -0.7 1.3 -0.55 1.25 -0.6 1.2 -0.65 1.1 -0.6 Q1.1 -0.55 1.05 -0.6" fill="#c943dd" fill-rule="evenodd" stroke="none"/>
    <path d="M1.4 -0.75 L1.45 -0.7 1.55 -0.65 Q1.5 -0.6 1.45 -0.65 L1.4 -0.75" fill="#a135e4" fill-rule="evenodd" stroke="none"/>
    <path d="M1.0 -0.5 L1.05 -0.6 Q1.1 -0.55 1.1 -0.6 L1.2 -0.65 1.25 -0.6 1.3 -0.55 1.3 -0.7 1.4 -0.55 Q1.45 -0.5 1.5 -0.5 L1.7 -0.5 1.65 -0.45 1.5 -0.45 Q1.6 -0.35 1.75 -0.3 L1.75 -0.1 1.8 -0.1 1.75 0.0 1.75 0.1 1.7 0.05 1.65 -0.05 1.7 -0.1 Q1.75 -0.1 1.7 -0.15 L1.7 -0.25 1.65 -0.3 1.55 -0.25 Q1.5 -0.2 1.45 -0.3 L1.45 -0.4 1.35 -0.5 1.4 -0.4 Q1.4 -0.3 1.35 -0.3 1.3 -0.25 1.3 -0.35 L1.3 -0.4 1.25 -0.4 1.25 -0.55 1.15 -0.55 Q1.1 -0.55 1.1 -0.5 L1.1 -0.5 1.05 -0.45 1.0 -0.5 M1.05 -0.45 L1.05 -0.45" fill="#a730e6" fill-rule="evenodd" stroke="none"/>
    <path d="M1.25 -0.25 L1.2 -0.2 1.15 -0.2 1.2 -0.4 1.25 -0.55 1.25 -0.4 1.3 -0.4 1.3 -0.35 Q1.3 -0.25 1.35 -0.3 1.4 -0.3 1.4 -0.4 L1.35 -0.5 1.45 -0.4 1.45 -0.3 Q1.5 -0.2 1.55 -0.25 L1.55 -0.2 1.5 -0.2 Q1.45 -0.2 1.4 -0.15 L1.35 -0.25 1.3 -0.25 1.25 -0.25" fill="#912ce1" fill-rule="evenodd" stroke="none"/>
    <path d="M0.5 0.1 Q0.55 0.0 0.65 0.0 0.75 0.0 0.8 0.1 L0.8 0.05 Q0.9 0.1 0.95 0.05 L1.0 -0.15 Q1.05 -0.15 1.1 -0.05 L1.3 0.05 1.35 0.1 1.4 0.15 1.4 0.25 1.3 0.2 1.25 0.25 1.25 0.35 1.3 0.45 1.3 0.6 1.05 0.55 0.9 0.45 0.85 0.4 0.9 0.35 1.0 0.35 1.05 0.4 1.05 0.5 Q1.2 0.45 1.2 0.25 L1.1 0.15 0.95 0.1 0.95 0.15 0.9 0.25 0.85 0.35 0.85 0.45 0.8 0.55 Q0.75 0.45 0.65 0.45 L0.55 0.4 0.55 0.35 0.5 0.25 Q0.45 0.2 0.45 0.15 L0.5 0.15 0.5 0.1 M0.6 0.15 L0.55 0.2 0.55 0.25 0.65 0.25 0.65 0.15 0.6 0.15" fill="#64229b" fill-rule="evenodd" stroke="none"/>
    <path d="M1.4 -0.15 Q1.45 -0.2 1.5 -0.2 L1.55 -0.2 Q1.65 -0.25 1.65 -0.15 1.65 -0.05 1.55 -0.05 L1.45 -0.15 1.4 -0.15" fill="#7426bc" fill-rule="evenodd" stroke="none"/>
    <path d="M1.45 -0.1 L1.5 -0.05 1.5 0.1 1.55 0.25 1.55 0.3 1.5 0.35 1.45 0.3 1.45 0.5 1.4 0.55 1.45 0.7 1.4 0.7 1.35 0.75 1.35 0.8 Q1.3 0.75 1.25 0.75 L1.15 0.75 1.25 0.7 1.4 0.65 1.4 0.6 1.35 0.55 1.4 0.35 1.3 0.25 1.4 0.25 1.5 0.25 1.45 0.2 1.45 0.1 1.35 0.05 1.4 -0.05 1.45 -0.1" fill="#7325bc" fill-rule="evenodd" stroke="none"/>
    <path d="M1.55 -0.25 L1.65 -0.3 1.7 -0.25 1.7 -0.15 Q1.75 -0.1 1.7 -0.1 L1.65 -0.05 1.7 0.05 1.75 0.1 1.75 0.15 1.7 0.2 1.7 0.3 1.65 0.45 1.6 0.6 1.55 0.75 1.45 0.85 1.4 0.95 1.25 0.9 1.3 0.95 1.25 1.0 1.2 0.85 1.15 0.8 Q1.2 0.85 1.25 0.85 L1.4 0.85 1.4 0.7 1.45 0.7 1.5 0.55 1.5 0.45 Q1.5 0.4 1.55 0.4 L1.6 0.3 1.6 0.2 1.55 0.15 1.55 0.05 1.5 -0.05 1.45 -0.1 1.45 -0.15 1.55 -0.05 Q1.65 -0.05 1.65 -0.15 1.65 -0.25 1.55 -0.2 L1.55 -0.25" fill="#8b2cda" fill-rule="evenodd" stroke="none"/>
    <path d="M1.8 -0.55 L1.8 -0.6 2.0 -0.55 2.2 -0.55 2.2 -0.5 2.0 -0.55 1.8 -0.55" fill="#652491" fill-rule="evenodd" stroke="none"/>
    <path d="M1.8 -0.55 L1.8 -0.55 2.0 -0.55 2.2 -0.5 2.2 -0.45 1.8 -0.55" fill="#7c2ca0" fill-rule="evenodd" stroke="none"/>
    <path d="M1.8 -0.55 L1.8 -0.55 2.2 -0.45 2.2 -0.4 Q2.0 -0.45 1.85 -0.5 L1.8 -0.55" fill="#9536b0" fill-rule="evenodd" stroke="none"/>
    <path d="M1.8 -0.5 L1.8 -0.55 1.85 -0.5 1.9 -0.45 2.05 -0.4 1.95 -0.2 1.9 -0.05 1.85 0.1 Q1.8 -0.05 1.9 -0.2 L1.85 -0.35 1.8 -0.5" fill="#bc44c8" fill-rule="evenodd" stroke="none"/>
    <path d="M1.7 -0.5 L1.8 -0.5 1.85 -0.35 1.9 -0.2 Q1.8 -0.05 1.85 0.1 L1.75 0.2 1.75 0.15 1.75 0.1 1.75 0.0 1.8 -0.1 1.75 -0.1 1.75 -0.3 1.7 -0.4 1.65 -0.45 1.7 -0.5" fill="#c238d3" fill-rule="evenodd" stroke="none"/>
    <path d="M1.85 -0.5 Q2.0 -0.45 2.2 -0.4 L2.2 -0.25 Q2.1 -0.25 2.05 -0.15 L1.95 0.0 1.9 -0.05 1.95 -0.2 2.05 -0.4 1.9 -0.45 1.85 -0.5" fill="#ab43bb" fill-rule="evenodd" stroke="none"/>
    <path d="M1.75 -0.3 Q1.6 -0.35 1.5 -0.45 L1.65 -0.45 1.7 -0.4 1.75 -0.3" fill="#be33e5" fill-rule="evenodd" stroke="none"/>
    <path d="M1.95 0.0 L2.05 -0.15 Q2.1 -0.25 2.2 -0.25 L2.2 -0.15 2.1 -0.1 2.05 -0.05 1.9 0.2 1.8 0.4 Q1.8 0.35 1.85 0.2 L1.95 0.0" fill="#a03ab0" fill-rule="evenodd" stroke="none"/>
    <path d="M1.8 0.4 L1.9 0.2 2.05 -0.05 2.1 -0.1 2.2 -0.15 2.2 -0.05 2.05 0.05 1.95 0.2 1.9 0.35 Q1.85 0.4 1.9 0.45 L2.0 0.7 Q2.05 0.85 2.0 1.0 1.95 1.1 1.8 1.15 L1.65 1.15 1.55 1.2 1.45 1.25 1.3 1.25 1.5 1.2 1.75 1.1 1.85 1.1 1.95 1.0 1.95 0.65 1.9 0.55 1.85 0.45 1.8 0.4" fill="#9236a4" fill-rule="evenodd" stroke="none"/>
    <path d="M2.2 0.65 L2.0 0.55 Q2.0 0.5 2.0 0.45 L2.0 0.35 2.1 0.25 2.2 0.2 2.2 0.3 2.1 0.35 2.05 0.4 Q2.0 0.45 2.05 0.5 L2.2 0.55 2.2 0.65" fill="#682b82" fill-rule="evenodd" stroke="none"/>
    <path d="M2.2 0.2 L2.1 0.25 2.0 0.35 2.0 0.45 Q2.0 0.5 2.0 0.55 L2.2 0.65 2.2 1.0 2.0 1.1 1.8 1.2 1.65 1.25 Q1.55 1.25 1.55 1.3 L1.45 1.35 1.35 1.35 1.3 1.35 1.4 1.3 1.5 1.3 Q1.55 1.2 1.7 1.2 L1.9 1.15 2.1 1.0 Q2.15 0.85 2.1 0.75 L2.0 0.6 1.95 0.45 Q1.9 0.4 1.95 0.3 L2.05 0.15 2.1 0.1 2.2 0.05 2.2 0.2" fill="#782d8f" fill-rule="evenodd" stroke="none"/>
    <path d="M1.3 1.25 L1.45 1.25 1.55 1.2 1.65 1.15 1.8 1.15 Q1.95 1.1 2.0 1.0 2.05 0.85 2.0 0.7 L1.9 0.45 Q1.85 0.4 1.9 0.35 L1.95 0.2 2.05 0.05 2.2 -0.05 2.2 0.05 2.1 0.1 2.05 0.15 1.95 0.3 Q1.9 0.4 1.95 0.45 L2.0 0.6 2.1 0.75 Q2.15 0.85 2.1 1.0 L1.9 1.15 1.7 1.2 Q1.55 1.2 1.5 1.3 L1.4 1.3 1.3 1.35 1.3 1.3 1.3 1.25" fill="#843299" fill-rule="evenodd" stroke="none"/>
    <path d="M2.2 0.55 L2.05 0.5 Q2.0 0.45 2.05 0.4 L2.1 0.35 2.2 0.3 2.2 0.55" fill="#582775" fill-rule="evenodd" stroke="none"/>
    <path d="M1.35 1.35 L1.45 1.35 1.55 1.3 Q1.55 1.25 1.65 1.25 L1.8 1.2 2.0 1.1 2.2 1.0 2.2 1.1 1.7 1.3 1.5 1.35 1.35 1.4 1.35 1.35" fill="#6b2786" fill-rule="evenodd" stroke="none"/>
    <path d="M2.2 1.15 L1.6 1.35 Q1.45 1.45 1.2 1.5 L1.2 1.45 1.3 1.45 1.35 1.4 1.5 1.35 1.7 1.3 2.2 1.1 2.2 1.15" fill="#5e257b" fill-rule="evenodd" stroke="none"/>
    <path d="M2.2 1.15 L2.2 1.2 Q1.85 1.25 1.55 1.45 L1.45 1.5 1.35 1.5 1.2 1.5 Q1.45 1.45 1.6 1.35 L2.2 1.15" fill="#512170" fill-rule="evenodd" stroke="none"/>
    <path d="M2.2 1.45 L2.2 2.2 1.75 2.2 1.75 2.05 1.7 1.9 1.7 1.75 1.75 1.6 1.85 1.55 2.0 1.45 2.2 1.45" fill="#1e1546" fill-rule="evenodd" stroke="none"/>
    <path d="M2.2 1.4 L2.2 1.45 2.0 1.45 1.85 1.55 1.75 1.6 1.7 1.75 1.7 1.9 1.75 2.05 1.75 2.2 1.6 2.2 1.55 1.95 Q1.5 1.85 1.5 1.75 L1.6 1.65 1.7 1.55 Q1.85 1.4 2.2 1.4" fill="#24174b" fill-rule="evenodd" stroke="none"/>
    <path d="M2.2 1.35 L2.2 1.4 Q1.85 1.4 1.7 1.55 L1.6 1.65 1.5 1.75 Q1.5 1.85 1.55 1.95 L1.6 2.2 1.5 2.2 1.35 1.9 1.2 1.8 Q1.1 1.8 1.1 1.75 L1.3 1.7 1.5 1.65 1.65 1.55 1.8 1.45 Q1.85 1.4 2.0 1.35 L2.2 1.35" fill="#2a1b4f" fill-rule="evenodd" stroke="none"/>
    <path d="M1.5 2.2 L1.4 2.2 1.3 2.0 0.95 1.8 0.95 1.75 1.15 1.7 1.35 1.6 Q1.5 1.65 1.65 1.5 1.75 1.4 1.9 1.35 L2.2 1.35 2.0 1.35 Q1.85 1.4 1.8 1.45 L1.65 1.55 1.5 1.65 1.3 1.7 1.1 1.75 Q1.1 1.8 1.2 1.8 L1.35 1.9 1.5 2.2" fill="#301e54" fill-rule="evenodd" stroke="none"/>
    <path d="M2.2 1.25 L2.2 1.35 1.9 1.35 Q1.75 1.4 1.65 1.5 1.5 1.65 1.35 1.6 L1.35 1.55 1.4 1.55 1.5 1.55 Q1.8 1.3 2.2 1.25" fill="#3a1b5d" fill-rule="evenodd" stroke="none"/>
    <path d="M1.35 1.5 L1.45 1.5 1.55 1.45 Q1.85 1.25 2.2 1.2 L2.2 1.25 Q1.8 1.3 1.5 1.55 L1.4 1.55 1.35 1.55 1.35 1.5" fill="#451e67" fill-rule="evenodd" stroke="none"/>
    <path d="M1.9 -0.05 L1.95 0.0 1.85 0.2 Q1.8 0.35 1.8 0.4 L1.75 0.25 1.75 0.2 1.85 0.1 1.9 -0.05" fill="#b137c0" fill-rule="evenodd" stroke="none"/>
    <path d="M1.5 -0.05 L1.55 0.05 1.55 0.15 1.6 0.2 1.6 0.3 1.55 0.4 Q1.5 0.4 1.5 0.45 L1.5 0.55 1.45 0.7 1.4 0.55 1.45 0.5 1.45 0.3 1.5 0.35 1.55 0.3 1.55 0.25 1.5 0.1 1.5 -0.05" fill="#7d27ce" fill-rule="evenodd" stroke="none"/>
    <path d="M1.7 0.3 L1.7 0.25 1.75 0.25 1.8 0.4 1.85 0.55 1.75 0.6 1.65 0.55 1.7 0.45 1.7 0.3" fill="#c242ce" fill-rule="evenodd" stroke="none"/>
    <path d="M1.7 0.3 L1.7 0.2 1.75 0.15 1.75 0.2 1.75 0.25 1.7 0.25 1.7 0.3" fill="#a232d0" fill-rule="evenodd" stroke="none"/>
    <path d="M1.55 0.75 L1.6 0.6 1.65 0.45 1.7 0.3 1.7 0.45 1.65 0.55 1.65 0.7 1.65 0.75 1.55 0.75" fill="#9b2ed1" fill-rule="evenodd" stroke="none"/>
    <path d="M1.8 0.4 L1.85 0.45 1.9 0.7 1.9 0.9 1.85 1.0 1.75 1.05 Q1.7 1.05 1.5 1.15 L1.25 1.2 1.25 1.1 1.25 1.05 1.3 1.05 Q1.25 1.1 1.3 1.15 L1.35 1.15 1.5 1.1 1.65 1.0 Q1.8 1.0 1.85 0.95 L1.9 0.8 1.85 0.7 1.8 0.7 1.75 0.7 1.65 0.7 1.65 0.55 1.75 0.6 1.85 0.55 1.8 0.4" fill="#b03fbf" fill-rule="evenodd" stroke="none"/>
    <path d="M1.85 0.45 L1.9 0.55 1.95 0.65 1.95 1.0 1.85 1.1 1.75 1.1 1.5 1.2 1.3 1.25 Q1.25 1.25 1.15 1.15 L1.05 1.05 1.05 0.95 1.1 0.95 1.15 1.05 Q1.2 1.1 1.25 1.1 L1.25 1.2 1.5 1.15 Q1.7 1.05 1.75 1.05 L1.85 1.0 1.9 0.9 1.9 0.7 1.85 0.45" fill="#a03eb2" fill-rule="evenodd" stroke="none"/>
    <path d="M1.4 0.25 L1.3 0.25 1.4 0.35 1.35 0.55 1.4 0.6 1.4 0.65 1.25 0.7 1.15 0.75 1.05 0.7 1.05 0.75 1.0 0.75 0.95 0.7 0.9 0.7 0.8 0.65 0.75 0.55 0.65 0.45 Q0.75 0.45 0.8 0.55 L0.85 0.45 0.85 0.35 0.9 0.25 0.95 0.15 0.95 0.25 0.9 0.35 0.85 0.4 0.9 0.45 0.9 0.5 1.0 0.55 1.05 0.55 1.3 0.6 1.3 0.45 1.25 0.35 1.25 0.25 1.3 0.2 1.4 0.25" fill="#6d26ac" fill-rule="evenodd" stroke="none"/>
    <path d="M0.9 0.35 L0.95 0.25 0.95 0.15 0.95 0.1 1.1 0.15 1.2 0.25 Q1.2 0.45 1.05 0.5 L1.05 0.4 1.0 0.35 0.9 0.35" fill="#5d1f91" fill-rule="evenodd" stroke="none"/>
    <path d="M1.4 0.7 L1.4 0.85 1.25 0.85 Q1.2 0.85 1.15 0.8 L1.15 0.75 1.25 0.75 Q1.3 0.75 1.35 0.8 L1.35 0.75 1.4 0.7" fill="#7d27cd" fill-rule="evenodd" stroke="none"/>
    <path d="M0.9 0.7 L0.95 0.7 1.0 0.75 1.05 0.75 1.05 0.7 1.05 0.9 0.95 0.8 0.9 0.7" fill="#792ac5" fill-rule="evenodd" stroke="none"/>
    <path d="M1.15 0.8 L1.2 0.85 1.1 0.8 1.1 0.95 1.05 0.95 Q1.0 0.9 1.0 0.9 L0.9 0.95 0.85 0.75 0.7 0.6 0.75 0.55 0.8 0.65 0.9 0.7 0.95 0.8 1.05 0.9 1.05 0.7 1.15 0.75 1.15 0.8" fill="#913bd2" fill-rule="evenodd" stroke="none"/>
    <path d="M1.2 0.85 L1.25 1.0 1.2 0.95 1.1 0.95 1.1 0.8 1.2 0.85" fill="#812bcd" fill-rule="evenodd" stroke="none"/>
    <path d="M1.25 1.05 L1.25 1.1 Q1.2 1.1 1.15 1.05 L1.1 0.95 1.2 0.95 1.25 1.0 1.25 1.05" fill="#8d2ebc" fill-rule="evenodd" stroke="none"/>
    <path d="M1.05 0.95 L1.05 1.05 1.05 1.15 0.8 1.0 0.9 0.95 1.0 0.9 Q1.0 0.9 1.05 0.95" fill="#7d34b3" fill-rule="evenodd" stroke="none"/>
    <path d="M1.05 1.15 L1.05 1.05 1.15 1.15 Q1.25 1.25 1.3 1.25 L1.3 1.3 1.05 1.2 1.0 1.2 1.05 1.15" fill="#8e43a3" fill-rule="evenodd" stroke="none"/>
    <path d="M1.0 1.2 L1.05 1.2 1.05 1.3 1.05 1.4 1.0 1.35 1.0 1.2" fill="#74748c" fill-rule="evenodd" stroke="none"/>
    <path d="M0.8 1.0 L1.05 1.15 1.0 1.2 Q0.95 1.1 0.85 1.05 L0.8 1.05 0.8 1.0" fill="#946da7" fill-rule="evenodd" stroke="none"/>
    <path d="M1.65 0.7 L1.75 0.7 1.8 0.8 1.8 0.9 1.7 0.95 1.65 1.0 1.5 1.1 1.35 1.15 1.3 1.15 Q1.25 1.1 1.3 1.05 1.3 1.15 1.4 1.1 L1.5 1.05 1.65 0.95 Q1.75 0.85 1.7 0.8 L1.7 0.75 1.65 0.75 1.65 0.7" fill="#c443cf" fill-rule="evenodd" stroke="none"/>
    <path d="M1.65 0.8 L1.65 0.75 1.7 0.75 1.7 0.8 Q1.75 0.85 1.65 0.95 L1.5 1.05 1.4 1.1 Q1.3 1.15 1.3 1.05 L1.4 1.0 1.45 1.0 1.55 0.95 1.6 0.9 1.65 0.8" fill="#d041dd" fill-rule="evenodd" stroke="none"/>
    <path d="M1.4 1.0 L1.45 0.95 1.5 0.85 1.55 0.8 1.65 0.8 1.6 0.9 1.55 0.95 1.45 1.0 1.4 1.0" fill="#b834e6" fill-rule="evenodd" stroke="none"/>
    <path d="M1.25 1.0 L1.3 0.95 1.25 0.9 1.4 0.95 1.45 0.85 1.55 0.75 1.65 0.75 1.65 0.8 1.55 0.8 1.5 0.85 1.45 0.95 1.4 1.0 1.3 1.05 1.25 1.05 1.25 1.0" fill="#a632e3" fill-rule="evenodd" stroke="none"/>
    <path d="M1.75 0.7 L1.8 0.7 1.85 0.7 1.9 0.8 1.85 0.95 Q1.8 1.0 1.65 1.0 L1.7 0.95 1.8 0.9 1.8 0.8 1.75 0.7" fill="#ba49c6" fill-rule="evenodd" stroke="none"/>
    <path d="M0.6 0.15 L0.65 0.15 0.65 0.25 0.55 0.25 0.55 0.2 0.6 0.15" fill="#d566f5" fill-rule="evenodd" stroke="none"/>
    <path d="M0.55 0.35 L0.55 0.4 0.55 0.45 0.5 0.5 Q0.55 0.4 0.5 0.35 L0.55 0.35" fill="#b15cf2" fill-rule="evenodd" stroke="none"/>
    <path d="M0.65 0.45 L0.75 0.55 0.7 0.6 0.65 0.55 0.7 0.7 0.7 0.85 0.6 0.75 0.5 0.65 0.45 0.55 0.5 0.55 0.5 0.45 0.45 0.4 0.45 0.35 0.5 0.35 Q0.55 0.4 0.5 0.5 L0.6 0.55 0.65 0.55 0.55 0.45 0.55 0.4 0.65 0.45" fill="#8234c3" fill-rule="evenodd" stroke="none"/>
    <path d="M0.45 0.15 L0.45 0.1 0.45 0.0 0.5 0.15 0.45 0.15 Q0.45 0.2 0.5 0.25 L0.55 0.35 0.45 0.25 0.45 0.15" fill="#7c36b3" fill-rule="evenodd" stroke="none"/>
    <path d="M0.5 0.5 L0.55 0.45 0.65 0.55 0.6 0.55 0.5 0.5" fill="#9b46df" fill-rule="evenodd" stroke="none"/>
    <path d="M0.9 0.95 L0.8 1.0 0.7 0.85 0.7 0.7 0.65 0.55 0.7 0.6 0.85 0.75 0.9 0.95" fill="#792fc0" fill-rule="evenodd" stroke="none"/>
    <path d="M1.05 0.55 L1.0 0.55 0.9 0.5 0.9 0.45 1.05 0.55" fill="#7f34bf" fill-rule="evenodd" stroke="none"/>
    <path d="M0.45 0.1 L0.45 0.15 0.35 0.25 0.35 0.15 Q0.35 0.1 0.45 0.1" fill="#ea9cfa" fill-rule="evenodd" stroke="none"/>
    <path d="M0.35 0.45 L0.35 0.25 0.35 0.45" fill="#a453e0" fill-rule="evenodd" stroke="none"/>
    <path d="M0.35 0.45 L0.35 0.25 0.4 0.3 0.45 0.35 0.45 0.4 0.5 0.45 0.5 0.55 0.45 0.55 Q0.35 0.55 0.35 0.45" fill="#6f26a9" fill-rule="evenodd" stroke="none"/>
    <path d="M0.55 0.35 L0.5 0.35 0.45 0.35 0.4 0.3 0.35 0.25 0.45 0.15 0.45 0.25 0.55 0.35" fill="#944bcc" fill-rule="evenodd" stroke="none"/>
    <path d="M0.2 0.6 L0.25 0.5 0.3 0.35 0.3 0.45 0.25 0.55 0.3 0.65 0.35 0.75 0.3 0.8 0.25 0.9 0.15 0.95 Q0.1 0.85 0.2 0.8 L0.25 0.7 Q0.25 0.6 0.2 0.6" fill="#8f3cd3" fill-rule="evenodd" stroke="none"/>
    <path d="M-0.2 0.4 L-0.2 0.3 -0.1 0.2 -0.15 0.35 Q-0.1 0.35 0.0 0.4 L0.15 0.45 0.15 0.55 0.05 0.5 -0.05 0.4 -0.2 0.4" fill="#762ab1" fill-rule="evenodd" stroke="none"/>
    <path d="M0.05 0.5 L0.15 0.55 0.1 0.65 Q0.05 0.7 0.1 0.8 L0.05 0.85 0.05 0.7 -0.15 0.7 0.0 0.65 0.05 0.5" fill="#8d31db" fill-rule="evenodd" stroke="none"/>
    <path d="M0.3 0.35 L0.3 0.4 Q0.3 0.45 0.35 0.45 0.35 0.55 0.45 0.55 L0.5 0.65 0.4 0.55 Q0.35 0.5 0.3 0.5 L0.35 0.65 0.4 0.75 0.4 0.8 0.35 0.75 0.3 0.65 0.25 0.55 0.3 0.45 0.3 0.35" fill="#e698f0" fill-rule="evenodd" stroke="none"/>
    <path d="M0.4 0.75 L0.35 0.65 0.3 0.5 Q0.35 0.5 0.4 0.55 L0.5 0.65 0.55 0.7 0.6 0.8 0.65 0.85 0.7 0.95 0.55 0.95 0.4 0.75" fill="#883aca" fill-rule="evenodd" stroke="none"/>
    <path d="M0.25 0.9 L0.3 0.85 0.4 0.8 0.5 0.9 0.45 1.05 0.4 1.0 Q0.35 0.95 0.3 1.0 L0.2 1.0 0.25 0.95 0.25 0.9" fill="#933fbc" fill-rule="evenodd" stroke="none"/>
    <path d="M0.25 0.9 L0.3 0.8 0.35 0.75 0.4 0.8 0.3 0.85 0.25 0.9" fill="#a64cd3" fill-rule="evenodd" stroke="none"/>
    <path d="M0.4 0.75 L0.55 0.95 0.5 0.95 0.5 0.9 0.4 0.8 0.4 0.75" fill="#ba87c7" fill-rule="evenodd" stroke="none"/>
    <path d="M0.1 0.65 L0.1 0.7 0.1 0.8 Q0.05 0.7 0.1 0.65" fill="#d26fe4" fill-rule="evenodd" stroke="none"/>
    <path d="M0.2 0.8 Q0.1 0.85 0.15 0.95 L0.15 1.05 0.1 1.15 0.05 1.1 0.05 0.95 0.05 0.85 0.1 0.8 0.2 0.8" fill="#bdbac9" fill-rule="evenodd" stroke="none"/>
    <path d="M-0.3 0.8 L-0.3 0.65 -0.2 0.6 -0.2 0.65 -0.15 0.7 0.05 0.7 0.05 0.85 0.05 0.9 -0.05 0.9 -0.15 0.9 -0.25 0.85 -0.3 0.8" fill="#762fb6" fill-rule="evenodd" stroke="none"/>
    <path d="M0.1 0.7 L0.15 0.65 0.2 0.8 0.1 0.8 0.1 0.7" fill="#e1d4e6" fill-rule="evenodd" stroke="none"/>
    <path d="M0.15 0.65 L0.2 0.6 Q0.25 0.6 0.25 0.7 L0.2 0.8 0.15 0.65" fill="#9939ea" fill-rule="evenodd" stroke="none"/>
    <path d="M0.15 0.95 L0.25 0.9 0.25 0.95 0.2 1.0 0.3 1.0 0.4 1.0 0.4 1.05 0.15 1.15 0.15 1.05 0.15 0.95" fill="#a746bc" fill-rule="evenodd" stroke="none"/>
    <path d="M-0.4 0.9 Q-0.3 0.95 -0.3 0.8 L-0.25 0.85 -0.15 0.9 -0.05 0.9 0.05 0.9 0.05 0.95 -0.1 0.95 -0.2 1.0 -0.25 0.95 -0.25 1.0 -0.3 0.95 -0.35 0.95 -0.35 1.05 -0.35 1.1 -0.45 1.1 -0.45 1.05 -0.4 1.0 -0.4 0.9" fill="#8939cd" fill-rule="evenodd" stroke="none"/>
    <path d="M0.05 0.95 L0.05 1.1 0.05 1.15 -0.05 1.2 -0.1 1.35 -0.15 1.35 -0.2 1.35 -0.25 1.25 -0.2 1.2 -0.2 1.1 -0.1 1.1 0.0 1.1 -0.05 1.05 -0.05 1.05 0.0 1.0 0.05 0.95" fill="#b549c3" fill-rule="evenodd" stroke="none"/>
    <path d="M0.05 0.95 L0.0 1.0 -0.05 1.05 -0.15 1.0 Q-0.2 1.0 -0.2 1.0 L-0.1 0.95 0.05 0.95" fill="#a13fcf" fill-rule="evenodd" stroke="none"/>
    <path d="M0.05 1.1 L0.1 1.15 0.1 1.25 0.05 1.3 -0.05 1.25 -0.05 1.4 -0.15 1.4 -0.1 1.35 -0.05 1.2 0.05 1.15 0.05 1.1 M-0.05 1.4 L-0.05 1.4" fill="#a15bb1" fill-rule="evenodd" stroke="none"/>
    <path d="M0.15 1.05 L0.15 1.15 0.2 1.2 0.1 1.25 0.1 1.15 0.15 1.05" fill="#a1a0b1" fill-rule="evenodd" stroke="none"/>
    <path d="M0.3 1.0 Q0.35 0.95 0.4 1.0 L0.45 1.05 0.5 0.9 0.5 0.95 0.55 1.1 Q0.5 1.1 0.45 1.15 L0.4 1.15 0.3 1.15 0.25 1.3 0.2 1.3 0.2 1.2 0.15 1.15 0.4 1.05 0.4 1.0 0.3 1.0" fill="#9c45af" fill-rule="evenodd" stroke="none"/>
    <path d="M0.25 1.3 L0.3 1.15 0.4 1.15 0.45 1.15 Q0.5 1.1 0.55 1.1 L0.6 1.1 0.6 1.15 0.6 1.25 0.5 1.25 0.4 1.25 0.25 1.3" fill="#934ca5" fill-rule="evenodd" stroke="none"/>
    <path d="M0.5 0.65 L0.6 0.75 0.6 0.8 0.55 0.7 0.5 0.65" fill="#d181e5" fill-rule="evenodd" stroke="none"/>
    <path d="M0.7 0.85 L0.8 1.0 0.8 1.05 0.7 0.95 0.65 0.85 0.6 0.8 0.6 0.75 0.7 0.85" fill="#b27bc0" fill-rule="evenodd" stroke="none"/>
    <path d="M0.55 0.95 L0.7 0.95 0.8 1.05 0.85 1.05 0.8 1.1 0.75 1.1 0.6 1.1 0.55 1.1 0.5 0.95 0.55 0.95" fill="#883aaf" fill-rule="evenodd" stroke="none"/>
    <path d="M0.6 1.15 L0.6 1.1 0.75 1.1 0.8 1.1 0.85 1.05 Q0.95 1.1 1.0 1.2 0.95 1.25 0.85 1.25 L0.7 1.25 0.65 1.2 0.6 1.15" fill="#84399e" fill-rule="evenodd" stroke="none"/>
    <path d="M0.25 1.3 L0.4 1.25 0.5 1.25 0.6 1.25 0.6 1.15 0.65 1.2 0.7 1.25 0.6 1.3 0.45 1.35 0.4 1.35 0.3 1.35 0.2 1.4 0.2 1.3 0.25 1.3" fill="#844a99" fill-rule="evenodd" stroke="none"/>
    <path d="M1.0 1.35 L0.85 1.3 Q0.75 1.3 0.7 1.35 L0.6 1.4 0.5 1.4 0.45 1.35 0.6 1.3 0.7 1.25 0.85 1.25 Q0.95 1.25 1.0 1.2 L1.0 1.35" fill="#7a4991" fill-rule="evenodd" stroke="none"/>
    <path d="M-0.25 0.4 L-0.2 0.4 -0.05 0.4 0.05 0.5 0.0 0.65 -0.15 0.7 -0.2 0.65 -0.2 0.6 -0.1 0.65 0.0 0.55 Q0.0 0.5 -0.1 0.45 L-0.25 0.4" fill="#aa3ae8" fill-rule="evenodd" stroke="none"/>
    <path d="M1.2 1.45 L1.2 1.5 1.1 1.45 1.1 1.5 1.05 1.55 0.95 1.55 0.8 1.55 0.8 1.6 0.75 1.55 0.8 1.5 Q0.8 1.45 0.85 1.45 L1.05 1.4 1.2 1.45" fill="#503c6e" fill-rule="evenodd" stroke="none"/>
    <path d="M1.35 1.4 L1.3 1.45 1.2 1.45 1.05 1.4 0.85 1.45 Q0.8 1.45 0.8 1.5 L0.75 1.55 0.75 1.6 Q0.75 1.55 0.7 1.55 0.65 1.6 0.6 1.6 L0.6 1.8 0.55 1.75 0.55 1.7 0.45 1.7 0.35 1.8 0.2 1.8 0.2 1.75 0.35 1.7 0.5 1.65 0.55 1.55 0.55 1.5 0.7 1.5 0.75 1.45 0.8 1.4 0.9 1.35 1.0 1.35 1.05 1.4 Q1.1 1.35 1.2 1.35 L1.35 1.4" fill="#623c7d" fill-rule="evenodd" stroke="none"/>
    <path d="M0.5 1.4 L0.6 1.4 0.7 1.35 Q0.75 1.3 0.85 1.3 L1.0 1.35 0.9 1.35 0.8 1.4 0.75 1.45 0.7 1.5 0.55 1.5 0.55 1.55 0.5 1.65 0.35 1.7 0.2 1.75 0.2 1.7 0.3 1.65 0.35 1.6 0.4 1.6 0.45 1.65 0.5 1.55 0.5 1.45 0.5 1.4" fill="#6c4485" fill-rule="evenodd" stroke="none"/>
    <path d="M0.6 1.8 L0.6 1.6 Q0.65 1.6 0.7 1.55 0.75 1.55 0.75 1.6 L0.75 1.7 0.7 1.8 0.65 1.85 0.6 1.8" fill="#713789" fill-rule="evenodd" stroke="none"/>
    <path d="M0.8 1.6 L0.85 1.65 0.85 1.75 0.8 1.8 0.7 1.85 0.65 1.9 0.4 1.85 0.2 1.85 0.2 1.8 0.35 1.8 0.45 1.7 0.55 1.7 0.55 1.75 0.6 1.8 0.65 1.85 0.7 1.8 0.75 1.7 0.75 1.6 0.75 1.55 0.8 1.6" fill="#5a2f76" fill-rule="evenodd" stroke="none"/>
    <path d="M1.2 1.5 L1.35 1.5 1.35 1.55 Q1.05 1.55 0.9 1.7 L0.85 1.65 0.8 1.6 0.8 1.55 0.95 1.55 1.05 1.55 1.1 1.5 1.1 1.45 1.2 1.5" fill="#453065" fill-rule="evenodd" stroke="none"/>
    <path d="M0.85 1.65 L0.9 1.7 0.8 1.85 0.7 1.95 0.6 2.0 0.35 1.9 0.2 1.9 0.2 1.85 0.4 1.85 0.65 1.9 0.7 1.85 0.8 1.8 0.85 1.75 0.85 1.65" fill="#50266e" fill-rule="evenodd" stroke="none"/>
    <path d="M1.4 2.2 L0.75 2.2 0.85 2.0 0.9 1.75 0.95 1.75 0.95 1.8 1.3 2.0 1.4 2.2" fill="#351f59" fill-rule="evenodd" stroke="none"/>
    <path d="M0.2 1.9 L0.35 1.9 0.6 2.0 0.7 1.95 0.8 1.85 0.9 1.7 0.9 1.75 0.9 1.85 0.85 1.9 0.7 2.0 0.55 2.05 0.25 1.95 0.2 1.9" fill="#452165" fill-rule="evenodd" stroke="none"/>
    <path d="M0.9 1.7 Q1.05 1.55 1.35 1.55 L1.35 1.6 1.15 1.7 0.95 1.75 0.9 1.75 0.9 1.7" fill="#372b5a" fill-rule="evenodd" stroke="none"/>
    <path d="M0.75 2.2 L0.45 2.2 0.35 2.05 0.25 2.0 0.25 1.95 0.55 2.05 0.7 2.0 0.85 1.9 0.9 1.85 0.9 1.75 0.85 2.0 0.75 2.2" fill="#3b1d5e" fill-rule="evenodd" stroke="none"/>
    <path d="M0.45 1.35 L0.5 1.4 0.5 1.45 0.45 1.4 0.4 1.35 0.45 1.35" fill="#9a5fab" fill-rule="evenodd" stroke="none"/>
    <path d="M0.5 1.45 L0.5 1.55 0.45 1.65 0.4 1.6 0.35 1.6 0.3 1.65 0.2 1.7 0.2 1.55 0.2 1.4 0.3 1.35 0.4 1.35 0.45 1.4 0.5 1.45" fill="#774a8e" fill-rule="evenodd" stroke="none"/>
    <path d="M0.1 1.25 L0.15 1.55 0.15 1.7 0.05 1.65 0.0 1.6 0.0 1.55 -0.05 1.55 -0.1 1.5 -0.05 1.4 0.05 1.4 0.05 1.3 0.1 1.25 M-0.05 1.4 L-0.05 1.4" fill="#88519c" fill-rule="evenodd" stroke="none"/>
    <path d="M0.05 1.3 L0.05 1.4 -0.05 1.4 -0.05 1.25 0.05 1.3" fill="#9290a5" fill-rule="evenodd" stroke="none"/>
    <path d="M0.2 1.4 L0.2 1.55 0.15 1.55 0.1 1.25 0.2 1.2 0.2 1.3 0.2 1.4" fill="#87879b" fill-rule="evenodd" stroke="none"/>
    <path d="M0.2 1.55 L0.2 1.7 0.15 1.7 0.15 1.55 0.2 1.55" fill="#777a8e" fill-rule="evenodd" stroke="none"/>
    <path d="M-0.1 1.5 L-0.05 1.55 0.0 1.55 0.0 1.6 -0.05 1.65 -0.05 1.75 Q-0.1 1.75 -0.1 1.7 L-0.1 1.6 Q-0.1 1.55 -0.15 1.55 L-0.25 1.55 -0.3 1.55 -0.4 1.55 -0.4 1.5 -0.4 1.35 -0.35 1.4 -0.35 1.5 -0.25 1.5 -0.2 1.45 -0.1 1.5" fill="#72308b" fill-rule="evenodd" stroke="none"/>
    <path d="M0.2 1.75 L0.2 1.8 0.2 1.85 0.15 1.85 0.15 1.7 0.2 1.7 0.2 1.75" fill="#64667f" fill-rule="evenodd" stroke="none"/>
    <path d="M0.15 1.7 L0.15 1.85 0.05 1.85 -0.05 1.8 -0.1 1.7 -0.2 1.65 -0.3 1.65 -0.4 1.7 -0.4 1.65 -0.45 1.5 -0.4 1.5 -0.4 1.55 -0.3 1.55 -0.25 1.55 -0.15 1.55 Q-0.1 1.55 -0.1 1.6 L-0.1 1.7 Q-0.1 1.75 -0.05 1.75 L0.05 1.75 0.15 1.7" fill="#632d7e" fill-rule="evenodd" stroke="none"/>
    <path d="M0.2 1.85 L0.2 1.9 0.15 1.95 0.1 1.9 0.0 1.95 0.0 1.9 0.05 1.85 0.15 1.85 0.2 1.85" fill="#4a3d69" fill-rule="evenodd" stroke="none"/>
    <path d="M0.0 1.6 L0.05 1.65 0.15 1.7 0.05 1.75 -0.05 1.75 -0.05 1.65 0.0 1.6" fill="#823598" fill-rule="evenodd" stroke="none"/>
    <path d="M0.25 1.95 L0.25 2.0 0.2 2.0 0.15 2.0 0.05 1.95 -0.1 1.95 -0.25 1.95 Q-0.35 1.85 -0.4 1.9 L-0.5 1.85 -0.55 1.75 -0.5 1.75 -0.45 1.75 -0.4 1.8 -0.4 1.8 -0.25 1.85 -0.15 1.95 -0.1 1.95 0.0 1.95 0.1 1.9 0.15 1.95 0.2 1.9 0.25 1.95 M-0.45 1.75 L-0.45 1.75" fill="#3b285c" fill-rule="evenodd" stroke="none"/>
    <path d="M0.45 2.2 L0.25 2.2 0.15 2.05 -0.05 2.05 -0.2 2.05 -0.35 2.0 -0.6 1.9 -0.65 1.9 -0.75 1.85 -0.7 1.8 -0.65 1.75 -0.55 1.75 -0.5 1.85 -0.4 1.9 Q-0.35 1.85 -0.25 1.95 L-0.1 1.95 0.05 1.95 0.15 2.0 0.2 2.0 0.25 2.0 0.35 2.05 0.45 2.2" fill="#321e55" fill-rule="evenodd" stroke="none"/>
    <path d="M0.25 2.2 L-0.15 2.2 -0.3 2.05 -0.85 1.9 -0.85 1.85 -0.8 1.85 -0.75 1.85 -0.65 1.9 -0.6 1.9 -0.35 2.0 -0.2 2.05 -0.05 2.05 0.15 2.05 0.25 2.2" fill="#281b4d" fill-rule="evenodd" stroke="none"/>
    <path d="M1.05 1.2 L1.3 1.3 1.3 1.35 1.25 1.35 1.2 1.3 1.05 1.3 1.05 1.2" fill="#7f4895" fill-rule="evenodd" stroke="none"/>
    <path d="M1.3 1.35 L1.35 1.35 1.35 1.4 1.2 1.35 Q1.1 1.35 1.05 1.4 L1.05 1.3 1.2 1.3 1.25 1.35 1.3 1.35" fill="#6e4387" fill-rule="evenodd" stroke="none"/>
    <path d="M-2.2 -1.9 L-2.2 -2.2 -1.85 -2.2 -1.9 -2.05 -1.85 -1.9 -1.9 -1.8 -2.2 -1.9 M-1.85 -1.9 L-1.85 -1.9" fill="#9a42b8" fill-rule="evenodd" stroke="none"/>
    <path d="M-2.2 -1.8 L-2.2 -1.9 -1.9 -1.8 -1.85 -1.7 -1.75 -1.6 -1.75 -1.55 -1.75 -1.55 -1.85 -1.55 -2.2 -1.8" fill="#8d3bbf" fill-rule="evenodd" stroke="none"/>
    <path d="M-2.2 -1.65 L-2.2 -1.8 -1.85 -1.55 -1.85 -1.5 -1.9 -1.55 -2.0 -1.55 -2.2 -1.65" fill="#7e33b8" fill-rule="evenodd" stroke="none"/>
    <path d="M-2.2 -1.5 L-2.2 -1.65 -2.0 -1.55 -1.8 -1.4 Q-1.8 -1.35 -1.85 -1.25 L-2.0 -1.1 -1.95 -1.0 -1.95 -0.95 -1.85 -0.95 -1.8 -1.0 -1.7 -1.0 -1.55 -0.9 -1.65 -0.9 -1.75 -1.0 -1.8 -0.95 -1.9 -0.9 Q-1.95 -0.9 -2.0 -0.95 L-2.1 -1.1 -2.0 -1.25 Q-1.95 -1.3 -1.95 -1.4 L-2.2 -1.5" fill="#6e29b3" fill-rule="evenodd" stroke="none"/>
    <path d="M-2.2 -0.95 L-2.2 -1.5 -1.95 -1.4 Q-1.95 -1.3 -2.0 -1.25 L-2.1 -1.1 -2.0 -0.95 Q-1.95 -0.9 -1.9 -0.9 L-1.8 -0.95 -1.75 -1.0 -1.65 -0.9 -1.55 -0.9 -1.5 -0.95 -1.5 -1.0 -1.45 -1.0 -1.5 -0.9 -1.45 -0.85 -1.5 -0.85 -1.55 -0.8 -1.55 -0.65 -1.55 -0.6 -1.6 -0.65 -1.65 -0.7 Q-1.7 -0.75 -1.8 -0.75 -1.75 -0.85 -1.8 -0.85 L-1.85 -0.8 -1.95 -0.8 -2.05 -0.85 Q-2.15 -0.9 -2.2 -0.95" fill="#6826aa" fill-rule="evenodd" stroke="none"/>
    <path d="M-1.65 0.15 L-1.85 0.05 -2.1 -0.1 Q-2.15 -0.15 -2.1 -0.2 L-2.1 -0.3 -2.0 -0.45 -1.9 -0.45 -1.8 -0.35 Q-1.7 -0.45 -1.65 -0.35 L-1.45 -0.55 -1.4 -0.5 -1.35 -0.45 -1.5 -0.4 -1.6 -0.4 -1.65 -0.35 -1.75 -0.3 -1.8 -0.3 -1.9 -0.3 -1.95 -0.3 -1.95 -0.2 Q-2.0 -0.1 -1.9 -0.05 L-1.75 0.05 -1.65 0.15" fill="#6a25af" fill-rule="evenodd" stroke="none"/>
    <path d="M-2.2 -0.05 L-2.2 -0.95 Q-2.15 -0.9 -2.05 -0.85 L-1.95 -0.8 -1.85 -0.8 -1.8 -0.85 Q-1.75 -0.85 -1.8 -0.75 -1.7 -0.75 -1.65 -0.7 L-1.6 -0.65 -1.55 -0.6 -1.45 -0.6 Q-1.4 -0.65 -1.4 -0.7 L-1.4 -0.8 -1.35 -0.8 -1.35 -0.55 Q-1.25 -0.55 -1.15 -0.6 L-1.1 -0.6 -1.05 -0.55 -1.15 -0.55 -1.25 -0.55 -1.3 -0.45 -1.35 -0.45 -1.4 -0.5 -1.45 -0.55 -1.65 -0.35 Q-1.7 -0.45 -1.8 -0.35 L-1.9 -0.45 -2.0 -0.45 -2.1 -0.3 -2.1 -0.2 Q-2.15 -0.15 -2.1 -0.1 L-1.85 0.05 -1.65 0.15 Q-1.6 0.2 -1.6 0.25 L-1.6 0.45 -1.65 0.55 -1.65 0.65 Q-1.7 0.6 -1.65 0.5 L-1.7 0.3 Q-1.65 0.3 -1.65 0.25 -1.7 0.2 -1.75 0.2 -1.9 0.05 -2.2 -0.05" fill="#6123a0" fill-rule="evenodd" stroke="none"/>
    <path d="M-0.75 -2.2 L-0.65 -2.2 Q-0.6 -2.05 -0.5 -2.0 L-0.35 -2.0 Q-0.25 -1.95 -0.25 -1.9 L-0.3 -1.85 -0.35 -1.9 -0.65 -2.05 -0.75 -2.2" fill="#6e6587" fill-rule="evenodd" stroke="none"/>
    <path d="M-0.3 -1.8 L-0.3 -1.8 -0.35 -1.8 -0.4 -1.85 -0.65 -2.0 -0.8 -2.05 -0.85 -2.2 -0.75 -2.2 -0.65 -2.05 -0.35 -1.9 -0.3 -1.85 -0.3 -1.8" fill="#7e6d94" fill-rule="evenodd" stroke="none"/>
    <path d="M-0.65 -2.2 L-0.6 -2.2 -0.5 -2.05 -0.3 -2.05 Q-0.2 -2.1 -0.15 -2.0 L-0.25 -1.9 -0.25 -1.9 Q-0.25 -1.95 -0.35 -2.0 L-0.5 -2.0 Q-0.6 -2.05 -0.65 -2.2" fill="#61577c" fill-rule="evenodd" stroke="none"/>
    <path d="M-0.8 -2.05 L-0.65 -2.0 -0.4 -1.85 -0.6 -1.9 -0.8 -2.0 -0.8 -2.05" fill="#8b779f" fill-rule="evenodd" stroke="none"/>
    <path d="M-1.0 -2.2 L-0.85 -2.2 -0.8 -2.05 -0.8 -2.0 -0.9 -2.0 -1.0 -2.2" fill="#8f65a2" fill-rule="evenodd" stroke="none"/>
    <path d="M-0.9 -2.0 L-0.9 -1.95 -0.9 -1.9 -1.0 -1.9 -1.1 -1.95 -1.1 -2.0 -1.05 -2.0 -0.9 -2.0" fill="#ad5dbb" fill-rule="evenodd" stroke="none"/>
    <path d="M-0.9 -1.95 L-0.55 -1.85 -0.45 -1.8 -0.35 -1.7 -0.4 -1.7 -0.9 -1.9 -0.9 -1.95 M-0.9 -1.9 L-0.9 -1.9" fill="#ae78bc" fill-rule="evenodd" stroke="none"/>
    <path d="M-1.0 -1.9 L-0.9 -1.9 -0.9 -1.9 -0.9 -1.8 -1.0 -1.8 -1.05 -1.85 -1.0 -1.9" fill="#c266cd" fill-rule="evenodd" stroke="none"/>
    <path d="M-0.3 -1.8 L-0.3 -1.75 -0.35 -1.7 -0.45 -1.8 -0.55 -1.85 -0.9 -1.95 -0.9 -2.0 -0.9 -2.0 -0.8 -2.0 -0.6 -1.9 -0.4 -1.85 -0.35 -1.8 -0.3 -1.8 M-0.35 -1.7 L-0.35 -1.7" fill="#9b75ac" fill-rule="evenodd" stroke="none"/>
    <path d="M-1.2 -2.2 L-1.0 -2.2 -0.9 -2.0 -0.9 -2.0 -1.05 -2.0 -1.1 -2.1 -1.2 -2.2" fill="#9955ab" fill-rule="evenodd" stroke="none"/>
    <path d="M-0.75 -1.65 L-0.7 -1.7 -0.65 -1.5 -0.7 -1.55 -0.75 -1.55 -0.75 -1.65" fill="#edbbf0" fill-rule="evenodd" stroke="none"/>
    <path d="M-0.75 -1.55 L-0.7 -1.55 -0.65 -1.5 -0.7 -1.7 -0.75 -1.65 -0.8 -1.6 -0.8 -1.55 -0.8 -1.6 -0.85 -1.6 -0.8 -1.7 -0.85 -1.75 -0.9 -1.7 -0.9 -1.75 Q-0.7 -1.8 -0.5 -1.65 L-0.55 -1.6 -0.65 -1.55 -0.6 -1.5 -0.55 -1.4 -0.6 -1.4 -0.6 -1.35 -0.65 -1.3 -0.7 -1.45 -0.75 -1.55 M-0.8 -1.55 L-0.8 -1.55" fill="#e58de9" fill-rule="evenodd" stroke="none"/>
    <path d="M-0.6 -1.35 L-0.6 -1.4 -0.55 -1.4 -0.6 -1.5 -0.65 -1.55 -0.55 -1.6 -0.5 -1.65 -0.35 -1.6 -0.35 -1.55 -0.45 -1.5 -0.5 -1.45 -0.55 -1.4 Q-0.55 -1.35 -0.6 -1.35 M-0.35 -1.55 L-0.35 -1.55 M-0.5 -1.65 L-0.5 -1.65" fill="#de70e4" fill-rule="evenodd" stroke="none"/>
    <path d="M-0.9 -1.75 L-0.9 -1.7 -0.9 -1.6 -0.9 -1.5 -0.9 -1.55 -0.95 -1.65 Q-0.95 -1.75 -1.0 -1.75 L-1.0 -1.8 -0.9 -1.8 -0.9 -1.75" fill="#e067e7" fill-rule="evenodd" stroke="none"/>
    <path d="M-0.5 -1.65 Q-0.7 -1.8 -0.9 -1.75 L-0.9 -1.8 -0.7 -1.8 Q-0.55 -1.75 -0.5 -1.65 L-0.5 -1.65" fill="#d28ada" fill-rule="evenodd" stroke="none"/>
    <path d="M-1.0 -1.8 L-1.0 -1.75 -1.35 -1.85 Q-1.35 -1.8 -1.35 -1.7 -1.3 -1.65 -1.25 -1.65 L-0.9 -1.55 -0.9 -1.5 -0.95 -1.5 -1.1 -1.6 Q-1.3 -1.55 -1.5 -1.8 L-1.35 -1.85 -1.15 -1.85 -1.0 -1.8" fill="#d049e5" fill-rule="evenodd" stroke="none"/>
    <path d="M-0.9 -1.7 L-0.85 -1.75 -0.8 -1.7 -0.85 -1.6 -0.9 -1.6 -0.9 -1.7 M-0.85 -1.6 L-0.85 -1.6" fill="#e9a9ed" fill-rule="evenodd" stroke="none"/>
    <path d="M-0.85 -1.6 L-0.8 -1.6 -0.8 -1.55 -0.75 -1.4 Q-0.75 -1.3 -0.8 -1.25 L-0.85 -1.3 -0.9 -1.35 -0.85 -1.6 -0.85 -1.6 M-0.8 -1.55 L-0.8 -1.55" fill="#c957d2" fill-rule="evenodd" stroke="none"/>
    <path d="M-0.9 -1.5 L-0.9 -1.6 -0.85 -1.6 -0.9 -1.35 -0.9 -1.3 -0.95 -1.4 -0.9 -1.5" fill="#cfa0d7" fill-rule="evenodd" stroke="none"/>
    <path d="M-0.75 -1.65 L-0.75 -1.55 -0.7 -1.45 -0.65 -1.3 -0.65 -1.25 -0.7 -1.25 -0.7 -1.4 -0.8 -1.55 -0.8 -1.55 -0.8 -1.6 -0.75 -1.65" fill="#d5d2dc" fill-rule="evenodd" stroke="none"/>
    <path d="M-1.0 -1.75 Q-0.95 -1.75 -0.95 -1.65 L-0.9 -1.55 -1.25 -1.65 Q-1.3 -1.65 -1.35 -1.7 -1.35 -1.8 -1.35 -1.85 L-1.0 -1.75" fill="#dc4cec" fill-rule="evenodd" stroke="none"/>
    <path d="M-0.95 -1.5 L-0.9 -1.5 -0.95 -1.4 -0.9 -1.3 -0.85 -1.2 Q-1.0 -1.2 -1.0 -1.3 L-0.95 -1.4 -0.95 -1.5 M-0.85 -1.2 L-0.85 -1.2" fill="#c64ed6" fill-rule="evenodd" stroke="none"/>
    <path d="M-0.95 -1.5 L-0.95 -1.4 -1.0 -1.3 -1.05 -1.35 -1.05 -1.4 -1.1 -1.45 -1.25 -1.5 -1.4 -1.6 -1.55 -1.65 -1.6 -1.75 -1.5 -1.8 Q-1.3 -1.55 -1.1 -1.6 L-0.95 -1.5" fill="#c142e1" fill-rule="evenodd" stroke="none"/>
    <path d="M-0.9 -1.3 L-0.9 -1.35 -0.85 -1.3 -0.8 -1.25 -0.75 -1.2 Q-0.7 -1.2 -0.7 -1.25 L-0.65 -1.25 -0.6 -1.2 -0.55 -1.1 -0.45 -1.05 -0.4 -1.0 -0.3 -0.95 -0.3 -0.9 -0.5 -1.0 -0.5 -1.05 -0.55 -1.05 -0.55 -0.95 -0.65 -0.95 -0.75 -0.9 -0.75 -0.9 -0.75 -0.95 -0.7 -1.05 -0.7 -1.15 -0.75 -1.2 -0.85 -1.2 -0.9 -1.3 M-0.3 -0.9 L-0.3 -0.9" fill="#c0baca" fill-rule="evenodd" stroke="none"/>
    <path d="M-0.8 -1.25 Q-0.75 -1.3 -0.75 -1.4 L-0.8 -1.55 -0.7 -1.4 -0.7 -1.25 Q-0.7 -1.2 -0.75 -1.2 L-0.8 -1.25" fill="#c275cd" fill-rule="evenodd" stroke="none"/>
    <path d="M-0.55 -1.4 L-0.5 -1.45 -0.45 -1.5 -0.35 -1.55 -0.3 -1.35 -0.4 -1.4 -0.4 -1.3 -0.5 -1.3 -0.5 -1.4 -0.55 -1.4" fill="#d25bda" fill-rule="evenodd" stroke="none"/>
    <path d="M-0.65 -1.3 L-0.6 -1.35 Q-0.55 -1.35 -0.55 -1.4 L-0.5 -1.4 -0.5 -1.3 -0.45 -1.2 -0.55 -1.25 -0.5 -1.15 -0.6 -1.2 -0.65 -1.25 -0.65 -1.3" fill="#c160cc" fill-rule="evenodd" stroke="none"/>
    <path d="M-0.35 -1.7 L-0.35 -1.7 -0.35 -1.6 -0.5 -1.65 Q-0.55 -1.75 -0.7 -1.8 L-0.9 -1.8 -0.9 -1.9 -0.4 -1.7 -0.35 -1.7" fill="#c17dcc" fill-rule="evenodd" stroke="none"/>
    <path d="M-0.3 -1.75 L-0.2 -1.75 Q-0.25 -1.7 -0.15 -1.65 -0.15 -1.65 -0.1 -1.65 L-0.15 -1.55 -0.2 -1.65 -0.3 -1.7 -0.3 -1.75" fill="#b24bbf" fill-rule="evenodd" stroke="none"/>
    <path d="M-0.15 -1.55 L-0.1 -1.5 0.0 -1.5 0.0 -1.45 -0.05 -1.4 -0.05 -1.35 0.0 -1.3 -0.05 -1.35 -0.05 -1.4 -0.1 -1.45 -0.2 -1.45 -0.25 -1.45 -0.3 -1.7 -0.2 -1.65 -0.15 -1.55" fill="#c849d2" fill-rule="evenodd" stroke="none"/>
    <path d="M-0.35 -1.7 L-0.3 -1.75 -0.3 -1.7 -0.25 -1.45 -0.25 -1.35 Q-0.25 -1.25 -0.2 -1.25 L-0.1 -1.15 -0.15 -1.1 -0.2 -1.2 -0.3 -1.3 -0.3 -1.45 Q-0.3 -1.5 -0.35 -1.55 L-0.35 -1.6 -0.35 -1.7" fill="#cbaed4" fill-rule="evenodd" stroke="none"/>
    <path d="M-0.3 -1.35 L-0.35 -1.55 -0.35 -1.55 Q-0.3 -1.5 -0.3 -1.45 L-0.3 -1.3 -0.3 -1.35" fill="#cf7dd7" fill-rule="evenodd" stroke="none"/>
    <path d="M-0.5 -1.3 L-0.4 -1.3 -0.4 -1.4 -0.3 -1.35 -0.3 -1.3 -0.2 -1.2 -0.15 -1.1 -0.15 -1.05 Q-0.15 -1.05 -0.2 -1.05 L-0.3 -1.0 -0.3 -0.95 -0.4 -1.0 -0.45 -1.05 -0.5 -1.15 -0.55 -1.25 -0.45 -1.2 -0.5 -1.3" fill="#c34dce" fill-rule="evenodd" stroke="none"/>
    <path d="M-0.2 -1.45 L-0.2 -1.25 Q-0.25 -1.25 -0.25 -1.35 L-0.25 -1.45 -0.2 -1.45" fill="#d061d8" fill-rule="evenodd" stroke="none"/>
    <path d="M-1.85 -1.9 L-1.85 -1.9 Q-1.85 -2.05 -1.7 -2.05 L-1.45 -2.1 -1.25 -2.1 -1.1 -2.0 -1.1 -1.95 Q-1.5 -2.05 -1.7 -1.9 L-1.8 -1.85 -1.85 -1.9" fill="#ad4abf" fill-rule="evenodd" stroke="none"/>
    <path d="M-1.85 -2.2 L-1.2 -2.2 -1.1 -2.1 -1.05 -2.0 -1.1 -2.0 -1.25 -2.1 -1.45 -2.1 -1.7 -2.05 Q-1.85 -2.05 -1.85 -1.9 L-1.9 -2.05 -1.85 -2.2" fill="#a448b5" fill-rule="evenodd" stroke="none"/>
    <path d="M-1.5 -1.8 L-1.6 -1.75 Q-1.6 -1.85 -1.5 -1.9 L-1.35 -1.95 -1.05 -1.85 -1.0 -1.8 -1.15 -1.85 -1.35 -1.85 -1.5 -1.8" fill="#c54dd6" fill-rule="evenodd" stroke="none"/>
    <path d="M-1.1 -1.95 L-1.0 -1.9 -1.05 -1.85 -1.35 -1.95 -1.5 -1.9 Q-1.6 -1.85 -1.6 -1.75 L-1.65 -1.75 -1.7 -1.9 Q-1.5 -2.05 -1.1 -1.95" fill="#b84cc9" fill-rule="evenodd" stroke="none"/>
    <path d="M-1.9 -1.8 L-1.85 -1.9 -1.8 -1.85 Q-1.8 -1.75 -1.7 -1.65 L-1.7 -1.6 -1.75 -1.6 -1.85 -1.7 -1.9 -1.8" fill="#9b3fc8" fill-rule="evenodd" stroke="none"/>
    <path d="M-1.65 -1.75 L-1.65 -1.65 -1.7 -1.65 Q-1.8 -1.75 -1.8 -1.85 L-1.7 -1.9 -1.65 -1.75" fill="#a944d0" fill-rule="evenodd" stroke="none"/>
    <path d="M-1.75 -1.55 L-1.75 -1.55 -1.55 -1.45 -1.4 -1.25 -1.25 -1.25 -1.05 -1.15 -1.1 -1.15 -1.4 -1.2 -1.5 -1.2 -1.55 -1.15 Q-1.55 -1.3 -1.6 -1.25 L-1.7 -1.15 -1.7 -1.05 -1.7 -1.25 -1.65 -1.3 -1.6 -1.35 -1.7 -1.45 -1.75 -1.55 M-1.55 -1.15 L-1.55 -1.15" fill="#8631cf" fill-rule="evenodd" stroke="none"/>
    <path d="M-1.65 -1.65 L-1.4 -1.55 -1.25 -1.4 -1.25 -1.35 -1.2 -1.35 -1.15 -1.3 -1.25 -1.3 Q-1.3 -1.3 -1.35 -1.35 L-1.4 -1.4 -1.7 -1.6 -1.7 -1.65 -1.65 -1.65" fill="#a13adf" fill-rule="evenodd" stroke="none"/>
    <path d="M-1.6 -1.75 L-1.55 -1.65 -1.4 -1.6 -1.25 -1.5 -1.1 -1.45 -1.05 -1.4 -1.05 -1.35 Q-1.15 -1.4 -1.25 -1.4 L-1.4 -1.55 -1.65 -1.65 -1.65 -1.75 -1.6 -1.75" fill="#b23fe0" fill-rule="evenodd" stroke="none"/>
    <path d="M-1.75 -1.55 L-1.75 -1.6 -1.7 -1.6 -1.4 -1.4 -1.35 -1.35 Q-1.3 -1.3 -1.25 -1.3 L-1.15 -1.3 -1.1 -1.25 -1.0 -1.15 -1.05 -1.15 -1.25 -1.25 -1.4 -1.25 -1.55 -1.45 -1.75 -1.55" fill="#9435d6" fill-rule="evenodd" stroke="none"/>
    <path d="M-1.7 -1.0 L-1.8 -1.0 -1.85 -0.95 -1.95 -0.95 -1.95 -1.0 -2.0 -1.1 -1.85 -1.25 Q-1.8 -1.35 -1.8 -1.4 L-2.0 -1.55 -1.9 -1.55 -1.85 -1.5 -1.75 -1.45 -1.7 -1.35 -1.75 -1.25 -1.8 -1.2 -1.75 -1.1 -1.7 -1.0" fill="#742abc" fill-rule="evenodd" stroke="none"/>
    <path d="M-1.55 -0.9 L-1.7 -1.0 -1.75 -1.1 -1.8 -1.2 -1.75 -1.25 -1.7 -1.35 -1.75 -1.45 -1.85 -1.5 -1.85 -1.55 -1.75 -1.55 -1.7 -1.45 -1.6 -1.35 -1.65 -1.3 -1.7 -1.25 -1.7 -1.05 -1.65 -1.0 -1.6 -0.95 -1.5 -0.95 -1.55 -0.9" fill="#7e2ec5" fill-rule="evenodd" stroke="none"/>
    <path d="M-1.05 -1.35 L-1.0 -1.3 Q-1.0 -1.2 -0.85 -1.2 L-1.0 -1.15 -1.1 -1.25 -1.15 -1.3 -1.2 -1.35 -1.25 -1.35 -1.25 -1.4 Q-1.15 -1.4 -1.05 -1.35 M-1.0 -1.15 L-1.0 -1.15" fill="#ac3bd5" fill-rule="evenodd" stroke="none"/>
    <path d="M-1.45 -1.0 L-1.5 -1.0 Q-1.5 -1.05 -1.55 -1.15 L-1.5 -1.2 -1.4 -1.2 -1.1 -1.15 -1.1 -0.95 Q-1.05 -0.85 -0.95 -0.85 L-0.9 -0.8 Q-0.85 -0.75 -0.85 -0.7 L-0.85 -0.5 -0.9 -0.5 -0.9 -0.5 -1.0 -0.45 -1.05 -0.5 -1.15 -0.55 -1.05 -0.55 Q-1.0 -0.55 -0.95 -0.6 L-0.9 -0.65 -0.9 -0.75 -1.1 -0.9 Q-1.15 -1.0 -1.15 -1.1 L-1.3 -1.15 -1.45 -1.15 -1.45 -1.0" fill="#7528bf" fill-rule="evenodd" stroke="none"/>
    <path d="M-1.1 -1.15 L-1.05 -1.15 -1.0 -1.1 Q-0.95 -1.1 -0.95 -1.05 L-0.9 -0.9 -0.85 -0.8 -0.85 -0.7 Q-0.85 -0.75 -0.9 -0.8 L-0.95 -0.85 Q-1.05 -0.85 -1.1 -0.95 L-1.1 -1.15" fill="#802ac4" fill-rule="evenodd" stroke="none"/>
    <path d="M-0.9 -0.65 Q-0.95 -0.7 -1.0 -0.7 L-1.05 -0.7 -1.15 -0.9 -1.25 -1.1 -1.3 -1.1 -1.4 -1.15 Q-1.4 -1.05 -1.45 -1.0 L-1.45 -1.15 -1.3 -1.15 -1.15 -1.1 Q-1.15 -1.0 -1.1 -0.9 L-0.9 -0.75 -0.9 -0.65" fill="#6624ac" fill-rule="evenodd" stroke="none"/>
    <path d="M-1.45 -0.85 L-1.5 -0.9 -1.45 -1.0 Q-1.4 -1.05 -1.4 -1.15 L-1.3 -1.1 -1.25 -1.1 -1.15 -0.9 -1.05 -0.7 -1.0 -0.7 Q-0.95 -0.7 -0.9 -0.65 L-0.95 -0.6 Q-1.0 -0.55 -1.05 -0.55 L-1.1 -0.6 -1.15 -0.6 -1.15 -0.65 -1.15 -0.8 -1.25 -0.9 -1.3 -0.95 -1.35 -0.95 -1.4 -0.85 -1.35 -0.8 -1.4 -0.8 -1.45 -0.85" fill="#5a2098" fill-rule="evenodd" stroke="none"/>
    <path d="M-1.15 -0.6 Q-1.25 -0.55 -1.35 -0.55 L-1.35 -0.8 -1.4 -0.85 -1.35 -0.95 -1.3 -0.95 -1.25 -0.9 -1.15 -0.8 -1.15 -0.65 -1.15 -0.6" fill="#511d88" fill-rule="evenodd" stroke="none"/>
    <path d="M-1.55 -0.8 L-1.5 -0.85 -1.45 -0.85 -1.4 -0.8 -1.4 -0.75 Q-1.45 -0.85 -1.55 -0.8" fill="#842dc4" fill-rule="evenodd" stroke="none"/>
    <path d="M-1.45 -0.65 L-1.5 -0.65 -1.55 -0.7 -1.55 -0.8 Q-1.45 -0.85 -1.4 -0.75 L-1.4 -0.7 -1.45 -0.65 -1.45 -0.75 -1.5 -0.75 Q-1.55 -0.75 -1.5 -0.7 L-1.45 -0.65" fill="#bd4cce" fill-rule="evenodd" stroke="none"/>
    <path d="M-1.55 -0.6 L-1.55 -0.65 Q-1.5 -0.6 -1.45 -0.65 L-1.4 -0.7 Q-1.4 -0.65 -1.45 -0.6 L-1.55 -0.6" fill="#7a28bf" fill-rule="evenodd" stroke="none"/>
    <path d="M-1.55 -0.65 L-1.55 -0.8 -1.55 -0.7 -1.5 -0.65 -1.45 -0.65 Q-1.5 -0.6 -1.55 -0.65" fill="#9531d5" fill-rule="evenodd" stroke="none"/>
    <path d="M-1.5 -0.7 Q-1.55 -0.75 -1.5 -0.75 L-1.45 -0.75 -1.45 -0.65 -1.5 -0.7" fill="#c5aecf" fill-rule="evenodd" stroke="none"/>
    <path d="M-1.5 -1.0 L-1.5 -0.95 -1.6 -0.95 -1.65 -1.0 -1.65 -1.1 -1.6 -1.2 -1.55 -1.15 -1.55 -1.15 Q-1.5 -1.05 -1.5 -1.0 M-1.6 -1.0 Q-1.6 -1.0 -1.55 -1.0 L-1.55 -1.0 -1.55 -1.1 Q-1.6 -1.15 -1.65 -1.1 -1.65 -1.0 -1.6 -1.0" fill="#a848ca" fill-rule="evenodd" stroke="none"/>
    <path d="M-1.7 -1.05 L-1.7 -1.15 -1.6 -1.25 Q-1.55 -1.3 -1.55 -1.15 L-1.6 -1.2 -1.65 -1.1 -1.65 -1.0 -1.7 -1.05" fill="#963ad0" fill-rule="evenodd" stroke="none"/>
    <path d="M-1.6 -1.0 Q-1.65 -1.0 -1.65 -1.1 -1.6 -1.15 -1.55 -1.1 L-1.6 -1.0" fill="#b966d0" fill-rule="evenodd" stroke="none"/>
    <path d="M-1.55 -1.1 L-1.55 -1.0 -1.55 -1.0 Q-1.6 -1.0 -1.6 -1.0 L-1.55 -1.1" fill="#be8fca" fill-rule="evenodd" stroke="none"/>
    <path d="M-1.75 0.05 L-1.9 -0.05 Q-2.0 -0.1 -1.95 -0.2 L-1.95 -0.3 -1.9 -0.3 -1.8 -0.3 -1.75 -0.3 -1.65 -0.35 -1.6 -0.4 -1.5 -0.4 -1.35 -0.45 -1.3 -0.45 -1.25 -0.55 -1.15 -0.55 -1.2 -0.5 -1.25 -0.5 -1.25 -0.4 Q-1.25 -0.35 -1.3 -0.35 L-1.4 -0.4 Q-1.45 -0.4 -1.45 -0.35 L-1.6 -0.35 -1.7 -0.3 -1.8 -0.2 Q-1.9 -0.15 -1.85 -0.1 L-1.8 -0.05 -1.7 0.0 -1.65 0.05 -1.75 0.05" fill="#7627bf" fill-rule="evenodd" stroke="none"/>
    <path d="M-1.7 0.0 L-1.8 -0.05 -1.85 -0.1 Q-1.9 -0.15 -1.8 -0.2 L-1.7 -0.3 -1.75 -0.2 -1.75 -0.1 -1.5 0.0 -1.45 -0.1 -1.55 -0.15 -1.45 -0.2 -1.35 -0.2 Q-1.35 -0.25 -1.35 -0.3 -1.4 -0.35 -1.45 -0.35 -1.45 -0.4 -1.4 -0.4 L-1.3 -0.35 Q-1.25 -0.35 -1.25 -0.4 L-1.25 -0.5 -1.2 -0.5 -1.15 -0.55 -1.05 -0.5 -1.0 -0.45 -1.0 -0.4 -1.1 -0.3 -1.1 -0.25 -1.2 -0.25 -1.3 -0.2 -1.35 -0.1 -1.4 -0.05 -1.45 0.1 -1.7 0.0 M-1.05 -0.4 L-1.05 -0.5 -1.2 -0.45 -1.2 -0.35 Q-1.2 -0.3 -1.15 -0.35 L-1.05 -0.4" fill="#872ad8" fill-rule="evenodd" stroke="none"/>
    <path d="M-1.7 -0.3 L-1.6 -0.35 -1.45 -0.35 Q-1.4 -0.35 -1.35 -0.3 -1.35 -0.25 -1.35 -0.2 L-1.45 -0.2 -1.55 -0.15 -1.45 -0.1 -1.5 0.0 -1.75 -0.1 -1.75 -0.2 -1.7 -0.3" fill="#952de4" fill-rule="evenodd" stroke="none"/>
    <path d="M-1.05 -0.4 L-1.15 -0.35 Q-1.2 -0.3 -1.2 -0.35 L-1.2 -0.45 -1.05 -0.5 -1.05 -0.4" fill="#9b2de3" fill-rule="evenodd" stroke="none"/>
    <path d="M-1.7 0.0 L-1.45 0.1 -1.4 -0.05 -1.35 -0.1 -1.3 -0.2 -1.2 -0.25 -1.3 -0.2 Q-1.25 -0.1 -1.3 0.0 L-1.2 0.0 -1.1 0.05 -1.2 0.05 Q-1.25 0.1 -1.2 0.15 L-1.15 0.2 Q-1.25 0.2 -1.35 0.3 L-1.45 0.25 -1.45 0.15 Q-1.6 0.1 -1.65 0.05 L-1.7 0.0" fill="#7f2fc9" fill-rule="evenodd" stroke="none"/>
    <path d="M-1.1 0.05 L-1.2 0.0 -1.3 0.0 Q-1.25 -0.1 -1.3 -0.2 L-1.2 -0.25 -1.1 -0.25 -1.15 -0.15 -1.1 -0.05 -1.05 0.05 -1.1 0.05" fill="#7627bb" fill-rule="evenodd" stroke="none"/>
    <path d="M-1.0 -0.45 L-0.9 -0.5 -0.9 -0.3 -0.8 -0.2 Q-0.9 -0.1 -0.9 0.0 L-1.0 0.05 -1.05 0.1 -1.05 0.15 -1.05 0.05 -1.1 -0.05 -1.15 -0.15 -1.1 -0.25 -1.1 -0.3 Q-1.0 -0.25 -1.0 -0.3 -0.95 -0.35 -1.0 -0.4 L-1.0 -0.45" fill="#6c24aa" fill-rule="evenodd" stroke="none"/>
    <path d="M-0.1 -1.15 L-0.1 -1.05 -0.05 -1.0 -0.05 -0.85 -0.05 -0.8 0.0 -0.6 -0.1 -0.6 -0.1 -0.65 -0.1 -0.75 -0.15 -0.8 Q-0.15 -0.9 -0.2 -0.95 L-0.3 -1.0 -0.2 -1.05 Q-0.15 -1.05 -0.15 -1.05 L-0.15 -1.1 -0.1 -1.15" fill="#ed5ff0" fill-rule="evenodd" stroke="none"/>
    <path d="M-0.3 -1.0 L-0.2 -0.95 -0.2 -0.9 -0.15 -0.85 -0.2 -0.85 -0.25 -0.85 -0.3 -0.9 -0.3 -0.9 -0.3 -0.95 -0.3 -1.0" fill="#ece9f0" fill-rule="evenodd" stroke="none"/>
    <path d="M-0.5 -1.15 L-0.45 -1.05 -0.55 -1.1 -0.6 -1.2 -0.5 -1.15" fill="#c87bd1" fill-rule="evenodd" stroke="none"/>
    <path d="M-0.1 -0.6 L-0.05 -0.5 -0.05 -0.5 -0.2 -0.6 -0.2 -0.65 -0.25 -0.7 -0.35 -0.8 -0.3 -0.9 -0.3 -0.85 -0.3 -0.8 -0.2 -0.8 -0.1 -0.65 -0.1 -0.6 M-0.3 -0.9 L-0.3 -0.9 -0.3 -0.9" fill="#de4af1" fill-rule="evenodd" stroke="none"/>
    <path d="M-0.3 -0.9 L-0.35 -0.8 -0.4 -0.75 -0.45 -0.8 -0.45 -0.9 -0.5 -1.0 -0.3 -0.9" fill="#bd4bc8" fill-rule="evenodd" stroke="none"/>
    <path d="M-0.3 -0.9 L-0.25 -0.85 -0.2 -0.85 -0.2 -0.8 -0.3 -0.8 -0.3 -0.85 -0.3 -0.9" fill="#ed7af1" fill-rule="evenodd" stroke="none"/>
    <path d="M-0.45 -0.8 L-0.5 -0.9 -0.55 -0.95 -0.55 -1.05 -0.5 -1.05 -0.5 -1.0 -0.45 -0.9 -0.45 -0.8" fill="#c384cd" fill-rule="evenodd" stroke="none"/>
    <path d="M-0.5 -0.9 L-0.45 -0.8 -0.4 -0.75 -0.35 -0.75 -0.4 -0.7 -0.5 -0.7 -0.5 -0.6 Q-0.55 -0.6 -0.55 -0.65 L-0.55 -0.7 -0.65 -0.7 -0.75 -0.65 -0.75 -0.55 -0.8 -0.5 Q-0.85 -0.6 -0.8 -0.7 L-0.75 -0.9 -0.6 -0.9 -0.5 -0.9" fill="#aa34c3" fill-rule="evenodd" stroke="none"/>
    <path d="M-0.8 -0.5 L-0.75 -0.55 -0.75 -0.65 -0.65 -0.7 -0.55 -0.7 -0.55 -0.65 Q-0.55 -0.6 -0.5 -0.6 L-0.5 -0.7 -0.4 -0.7 -0.35 -0.65 -0.3 -0.55 -0.25 -0.5 -0.25 -0.5 -0.25 -0.4 Q-0.3 -0.4 -0.35 -0.35 L-0.35 -0.45 -0.4 -0.5 -0.45 -0.5 -0.55 -0.55 Q-0.65 -0.55 -0.6 -0.45 L-0.65 -0.4 -0.75 -0.45 -0.8 -0.5 M-0.65 -0.4 L-0.65 -0.4 M-0.3 -0.55 L-0.3 -0.55" fill="#832bca" fill-rule="evenodd" stroke="none"/>
    <path d="M-0.35 -0.8 L-0.25 -0.7 -0.25 -0.55 -0.2 -0.45 -0.25 -0.5 -0.25 -0.5 -0.3 -0.55 Q-0.25 -0.65 -0.3 -0.7 L-0.35 -0.7 -0.35 -0.75 -0.4 -0.75 -0.35 -0.8" fill="#e986ee" fill-rule="evenodd" stroke="none"/>
    <path d="M-0.4 -0.7 L-0.35 -0.75 -0.35 -0.7 -0.3 -0.7 -0.3 -0.55 -0.35 -0.65 -0.4 -0.7" fill="#962ce4" fill-rule="evenodd" stroke="none"/>
    <path d="M-0.15 -0.8 L-0.1 -0.75 -0.1 -0.65 -0.2 -0.8 -0.2 -0.85 -0.15 -0.85 -0.15 -0.8" fill="#f3b9f5" fill-rule="evenodd" stroke="none"/>
    <path d="M-0.2 -0.95 Q-0.15 -0.9 -0.15 -0.8 L-0.15 -0.85 -0.2 -0.9 -0.2 -0.95" fill="#f299f4" fill-rule="evenodd" stroke="none"/>
    <path d="M-0.55 -0.95 L-0.5 -0.9 -0.6 -0.9 -0.75 -0.9 -0.65 -0.95 -0.55 -0.95" fill="#b75ec3" fill-rule="evenodd" stroke="none"/>
    <path d="M-0.85 -1.2 L-0.75 -1.2 -0.7 -1.15 -0.7 -1.05 -0.75 -0.95 -0.8 -1.05 -0.85 -1.2" fill="#bc65c7" fill-rule="evenodd" stroke="none"/>
    <path d="M-0.85 -1.2 L-0.85 -1.2 -0.8 -1.05 -0.75 -0.95 -0.75 -0.9 -0.8 -0.85 -0.85 -1.0 -0.9 -1.15 -1.0 -1.15 -0.85 -1.2" fill="#a83ebb" fill-rule="evenodd" stroke="none"/>
    <path d="M-0.85 -0.8 L-0.9 -0.9 -0.95 -1.05 Q-0.95 -1.1 -1.0 -1.1 L-1.05 -1.15 -1.0 -1.15 -1.0 -1.15 -0.9 -1.15 -0.85 -1.0 -0.8 -0.85 -0.85 -0.8" fill="#9230be" fill-rule="evenodd" stroke="none"/>
    <path d="M-0.85 -0.5 L-0.85 -0.7 -0.85 -0.8 -0.8 -0.85 -0.75 -0.9 -0.8 -0.7 Q-0.85 -0.6 -0.8 -0.5 L-0.75 -0.45 -0.65 -0.4 -0.7 -0.35 -0.85 -0.5 M-0.75 -0.9 L-0.75 -0.9" fill="#b773c7" fill-rule="evenodd" stroke="none"/>
    <path d="M-0.65 -0.4 L-0.65 -0.4 -0.65 -0.35 -0.6 -0.35 -0.6 -0.3 -0.6 -0.3 -0.65 -0.3 -0.7 -0.35 -0.65 -0.4 M-0.65 -0.3 L-0.65 -0.3 M-0.6 -0.3 L-0.6 -0.3" fill="#d991e6" fill-rule="evenodd" stroke="none"/>
    <path d="M-0.9 -0.5 L-0.9 -0.5 -0.85 -0.5 -0.7 -0.35 -0.65 -0.3 -0.7 -0.2 -0.7 -0.15 -0.65 -0.05 -0.7 0.0 -0.75 0.1 -0.8 0.2 -0.85 0.2 -0.9 0.2 -1.0 0.2 -0.95 0.1 -0.9 0.0 Q-0.9 -0.1 -0.8 -0.2 L-0.9 -0.3 -0.9 -0.5" fill="#612297" fill-rule="evenodd" stroke="none"/>
    <path d="M-0.65 -0.4 L-0.6 -0.45 -0.55 -0.5 -0.45 -0.5 -0.45 -0.45 -0.5 -0.45 -0.55 -0.45 -0.6 -0.45 -0.6 -0.35 -0.65 -0.35 -0.65 -0.4" fill="#c54fda" fill-rule="evenodd" stroke="none"/>
    <path d="M-0.35 -0.45 L-0.35 -0.35 -0.35 -0.35 -0.45 -0.35 -0.45 -0.25 Q-0.45 -0.3 -0.5 -0.3 L-0.6 -0.3 -0.6 -0.35 -0.6 -0.45 -0.55 -0.35 Q-0.5 -0.35 -0.5 -0.45 L-0.45 -0.45 -0.4 -0.45 -0.35 -0.45" fill="#de66e6" fill-rule="evenodd" stroke="none"/>
    <path d="M-0.6 -0.45 L-0.55 -0.45 -0.5 -0.45 Q-0.5 -0.35 -0.55 -0.35 L-0.6 -0.45" fill="#d9c9e0" fill-rule="evenodd" stroke="none"/>
    <path d="M-0.6 -0.45 Q-0.65 -0.55 -0.55 -0.55 L-0.45 -0.5 -0.55 -0.5 -0.6 -0.45" fill="#9b31d3" fill-rule="evenodd" stroke="none"/>
    <path d="M-1.1 -0.3 L-1.0 -0.4 Q-0.95 -0.35 -1.0 -0.3 -1.0 -0.25 -1.1 -0.3" fill="#7425c1" fill-rule="evenodd" stroke="none"/>
    <path d="M-0.65 -0.3 L-0.6 -0.3 -0.6 -0.3 -0.5 -0.2 -0.5 -0.15 -0.55 -0.2 -0.6 -0.25 -0.65 -0.3" fill="#d056e7" fill-rule="evenodd" stroke="none"/>
    <path d="M-0.65 -0.3 L-0.65 -0.3 -0.6 -0.25 -0.65 -0.2 -0.7 -0.2 -0.65 -0.3" fill="#7f33c4" fill-rule="evenodd" stroke="none"/>
    <path d="M-0.6 -0.25 L-0.55 -0.2 -0.5 -0.15 -0.55 -0.15 Q-0.65 -0.15 -0.6 -0.25 M-0.55 -0.15 L-0.55 -0.15" fill="#8337c7" fill-rule="evenodd" stroke="none"/>
    <path d="M-0.5 -0.15 L-0.5 -0.2 -0.45 -0.15 -0.5 -0.15 -0.55 -0.15 -0.5 -0.15" fill="#e99fed" fill-rule="evenodd" stroke="none"/>
    <path d="M-0.6 -0.3 L-0.6 -0.3 -0.5 -0.3 Q-0.45 -0.3 -0.45 -0.25 L-0.4 -0.25 -0.4 -0.2 -0.45 -0.15 -0.5 -0.2 -0.6 -0.3 M-0.45 -0.25 L-0.45 -0.25" fill="#e5d8ea" fill-rule="evenodd" stroke="none"/>
    <path d="M-0.7 -0.2 L-0.65 -0.2 -0.6 -0.25 Q-0.65 -0.15 -0.55 -0.15 L-0.65 -0.05 -0.7 -0.15 -0.7 -0.2" fill="#6c2ba6" fill-rule="evenodd" stroke="none"/>
    <path d="M-0.65 -0.05 L-0.55 -0.15 -0.55 -0.15 -0.5 -0.15 -0.65 0.0 -0.7 0.0 -0.65 -0.05" fill="#c27ce1" fill-rule="evenodd" stroke="none"/>
    <path d="M-0.2 -0.35 L-0.2 -0.45 -0.15 -0.5 -0.1 -0.45 -0.1 -0.35 0.0 -0.4 -0.05 -0.3 -0.1 -0.2 -0.1 -0.4 -0.15 -0.4 -0.2 -0.35" fill="#742cb9" fill-rule="evenodd" stroke="none"/>
    <path d="M-0.35 0.4 L-0.4 0.5 -0.4 0.55 -0.45 0.6 -0.5 0.65 -0.5 0.55 Q-0.5 0.55 -0.5 0.65 L-0.5 0.75 -0.55 0.8 -0.6 0.75 -0.55 0.7 -0.55 0.6 -0.55 0.55 -0.5 0.5 -0.5 0.4 -0.55 0.35 -0.55 0.2 -0.6 0.15 -0.4 -0.1 -0.35 -0.15 -0.4 -0.2 -0.4 -0.25 -0.35 -0.2 -0.3 -0.2 -0.25 -0.4 -0.25 -0.5 -0.2 -0.45 -0.2 -0.35 -0.3 -0.2 -0.25 -0.05 -0.3 -0.1 -0.3 -0.15 -0.55 0.1 -0.5 0.3 -0.45 0.45 -0.4 0.4 -0.4 0.35 -0.35 0.4 M-0.55 0.6 L-0.55 0.6 M-0.25 0.0 L-0.25 -0.05 -0.2 -0.05 -0.2 0.0 -0.25 0.0" fill="#c984e1" fill-rule="evenodd" stroke="none"/>
    <path d="M-0.2 -0.35 L-0.15 -0.4 -0.1 -0.4 -0.1 -0.2 -0.15 -0.2 -0.2 -0.1 -0.25 -0.05 -0.3 -0.2 -0.2 -0.35" fill="#6524a2" fill-rule="evenodd" stroke="none"/>
    <path d="M0.0 -0.4 L-0.1 -0.35 -0.1 -0.45 -0.05 -0.45 0.0 -0.4" fill="#8630d2" fill-rule="evenodd" stroke="none"/>
    <path d="M-0.3 -0.7 Q-0.25 -0.65 -0.3 -0.55 L-0.3 -0.7 M-0.3 -0.55 L-0.3 -0.55" fill="#b740f2" fill-rule="evenodd" stroke="none"/>
    <path d="M-0.45 -0.5 L-0.4 -0.5 -0.35 -0.45 -0.4 -0.45 -0.45 -0.45 -0.45 -0.5" fill="#a234e3" fill-rule="evenodd" stroke="none"/>
    <path d="M-0.35 -0.35 Q-0.3 -0.4 -0.25 -0.4 L-0.3 -0.2 -0.35 -0.2 -0.4 -0.25 -0.45 -0.25 -0.4 -0.3 -0.35 -0.35 -0.35 -0.35" fill="#782abc" fill-rule="evenodd" stroke="none"/>
    <path d="M-0.35 -0.35 L-0.4 -0.3 -0.45 -0.25 -0.45 -0.35 -0.35 -0.35 M-0.45 -0.25 L-0.45 -0.25" fill="#a433e8" fill-rule="evenodd" stroke="none"/>
    <path d="M-0.5 -0.15 L-0.45 -0.15 -0.4 -0.2 -0.35 -0.15 -0.4 -0.1 -0.6 0.15 -0.55 0.2 -0.55 0.35 -0.7 0.3 -0.65 0.15 -0.6 0.05 -0.65 0.0 -0.5 -0.15" fill="#622792" fill-rule="evenodd" stroke="none"/>
    <path d="M-0.4 0.35 L-0.4 0.4 -0.45 0.45 -0.5 0.3 -0.55 0.1 -0.3 -0.15 -0.3 -0.1 -0.3 0.1 -0.35 0.3 -0.4 0.35" fill="#5b2288" fill-rule="evenodd" stroke="none"/>
    <path d="M-0.35 0.3 L-0.3 0.1 -0.3 -0.1 -0.25 -0.05 -0.25 0.0 -0.25 0.15 -0.3 0.2 -0.35 0.3" fill="#7837ad" fill-rule="evenodd" stroke="none"/>
    <path d="M-0.2 -0.05 L-0.25 -0.05 -0.2 -0.1 -0.15 -0.2 -0.1 -0.1 -0.15 -0.1 -0.2 -0.05" fill="#8d48c6" fill-rule="evenodd" stroke="none"/>
    <path d="M-0.2 0.0 L-0.2 -0.05 -0.15 -0.1 -0.1 -0.1 Q-0.1 0.0 -0.2 0.1 L-0.2 0.0" fill="#6b2da2" fill-rule="evenodd" stroke="none"/>
    <path d="M-0.2 0.15 L-0.3 0.3 -0.35 0.4 -0.4 0.35 -0.35 0.3 -0.3 0.2 -0.25 0.15 -0.2 0.1 -0.2 0.15" fill="#dd99ef" fill-rule="evenodd" stroke="none"/>
    <path d="M-0.25 0.0 L-0.2 0.0 -0.2 0.1 -0.2 0.1 -0.25 0.15 -0.25 0.0" fill="#9d52d9" fill-rule="evenodd" stroke="none"/>
    <path d="M-0.4 0.55 L-0.35 0.5 -0.3 0.65 Q-0.3 0.75 -0.35 0.8 L-0.4 0.85 -0.45 0.85 -0.45 0.6 -0.4 0.55" fill="#542182" fill-rule="evenodd" stroke="none"/>
    <path d="M-0.5 0.4 L-0.5 0.5 -0.55 0.55 -0.55 0.45 -0.55 0.5 -0.5 0.45 -0.5 0.4" fill="#a54cdf" fill-rule="evenodd" stroke="none"/>
    <path d="M-0.25 0.5 L-0.25 0.4 -0.1 0.45 Q0.0 0.5 0.0 0.55 L-0.1 0.65 -0.2 0.6 -0.25 0.5 -0.2 0.6 -0.15 0.6 -0.05 0.6 Q-0.05 0.5 -0.1 0.45 L-0.2 0.45 -0.25 0.5" fill="#e166e9" fill-rule="evenodd" stroke="none"/>
    <path d="M-0.2 0.6 L-0.25 0.5 -0.2 0.45 -0.1 0.45 Q-0.05 0.5 -0.05 0.6 L-0.15 0.6 -0.2 0.6" fill="#dfd8e5" fill-rule="evenodd" stroke="none"/>
    <path d="M-0.3 0.65 L-0.25 0.5 -0.2 0.6 -0.3 0.65" fill="#a947e2" fill-rule="evenodd" stroke="none"/>
    <path d="M-0.55 0.2 L-0.55 0.35 -0.6 0.4 -0.7 0.35 -0.8 0.2 -0.75 0.1 -0.7 0.0 -0.65 0.0 -0.7 0.15 -0.7 0.3 -0.55 0.35 -0.55 0.2" fill="#6e31a1" fill-rule="evenodd" stroke="none"/>
    <path d="M-0.7 0.3 L-0.7 0.15 -0.65 0.0 -0.6 0.05 -0.65 0.15 -0.7 0.3" fill="#8d4fbf" fill-rule="evenodd" stroke="none"/>
    <path d="M-0.55 0.7 L-0.6 0.75 -0.6 0.8 -0.65 0.9 -0.85 0.8 -0.9 0.6 -0.9 0.75 Q-0.9 0.85 -0.95 0.9 L-0.9 0.55 -1.1 0.45 Q-1.15 0.5 -1.3 0.55 L-1.25 0.6 -1.3 0.65 -1.3 0.55 -1.3 0.5 -1.35 0.4 -1.2 0.3 -1.1 0.2 -1.05 0.15 -1.05 0.1 -1.0 0.05 -0.9 0.0 -0.95 0.1 -1.0 0.2 -0.9 0.2 -0.85 0.2 -0.9 0.2 Q-0.95 0.25 -0.95 0.35 L-0.9 0.45 -0.85 0.5 -0.9 0.55 -0.85 0.55 -0.75 0.55 Q-0.7 0.6 -0.6 0.6 L-0.55 0.7 M-1.4 0.7 L-1.4 0.65 -1.3 0.65 -1.3 0.75 -1.35 0.7 -1.35 0.7 -1.4 0.7 M-1.3 0.75 L-1.3 0.75 -1.3 0.75" fill="#692aa0" fill-rule="evenodd" stroke="none"/>
    <path d="M-0.9 0.25 L-0.9 0.2 -0.85 0.25 Q-0.8 0.25 -0.85 0.3 L-0.85 0.3 -0.9 0.3 -0.9 0.25" fill="#e3dae8" fill-rule="evenodd" stroke="none"/>
    <path d="M-0.9 0.2 L-0.9 0.25 -0.9 0.25 -0.9 0.35 Q-0.85 0.35 -0.85 0.35 L-0.85 0.4 -0.9 0.45 -0.95 0.35 Q-0.95 0.25 -0.9 0.2" fill="#8130c5" fill-rule="evenodd" stroke="none"/>
    <path d="M-0.9 0.25 L-0.9 0.3 -0.85 0.3 -0.85 0.3 Q-0.8 0.25 -0.85 0.25 L-0.9 0.2 -0.8 0.2 -0.8 0.3 -0.9 0.35 -0.9 0.25 -0.9 0.25 M-0.8 0.3 L-0.8 0.3" fill="#d35fe5" fill-rule="evenodd" stroke="none"/>
    <path d="M-0.8 0.2 L-0.7 0.35 -0.75 0.35 Q-0.75 0.3 -0.8 0.3 L-0.8 0.2 -0.9 0.2 -0.85 0.2 -0.8 0.2 M-0.7 0.35 L-0.7 0.35" fill="#873bc5" fill-rule="evenodd" stroke="none"/>
    <path d="M-0.8 0.3 Q-0.75 0.3 -0.75 0.35 -0.8 0.45 -0.75 0.55 L-0.85 0.55 -0.9 0.55 -0.85 0.5 -0.8 0.45 -0.8 0.3 -0.8 0.3" fill="#752eb2" fill-rule="evenodd" stroke="none"/>
    <path d="M-0.8 0.3 L-0.8 0.45 -0.85 0.5 -0.9 0.45 -0.85 0.4 -0.85 0.35 Q-0.85 0.35 -0.9 0.35 L-0.8 0.3" fill="#923ed7" fill-rule="evenodd" stroke="none"/>
    <path d="M-0.55 0.35 L-0.5 0.4 -0.5 0.45 -0.55 0.5 -0.55 0.45 -0.6 0.4 -0.6 0.4 -0.55 0.35" fill="#7c32b6" fill-rule="evenodd" stroke="none"/>
    <path d="M-0.7 0.35 L-0.6 0.4 -0.7 0.4 -0.7 0.35 -0.7 0.35 -0.7 0.35 M-0.6 0.4 L-0.6 0.4" fill="#ab47e3" fill-rule="evenodd" stroke="none"/>
    <path d="M-0.55 0.55 L-0.55 0.6 -0.55 0.6 -0.6 0.45 -0.7 0.4 -0.6 0.4 -0.55 0.45 -0.55 0.55 M-0.7 0.4 L-0.7 0.4" fill="#d55ee6" fill-rule="evenodd" stroke="none"/>
    <path d="M-0.75 0.35 L-0.7 0.35 -0.7 0.35 -0.7 0.5 -0.65 0.6 Q-0.65 0.6 -0.6 0.6 -0.7 0.6 -0.75 0.55 -0.8 0.45 -0.75 0.35" fill="#a940de" fill-rule="evenodd" stroke="none"/>
    <path d="M-0.7 0.4 L-0.7 0.4 Q-0.7 0.5 -0.65 0.6 L-0.7 0.5 -0.7 0.35 -0.7 0.4" fill="#d783e0" fill-rule="evenodd" stroke="none"/>
    <path d="M-0.55 0.6 L-0.55 0.6 -0.55 0.6 -0.6 0.6 Q-0.65 0.6 -0.65 0.6 L-0.6 0.55 -0.6 0.45 -0.55 0.6" fill="#df98e5" fill-rule="evenodd" stroke="none"/>
    <path d="M-0.55 0.6 L-0.55 0.7 -0.6 0.6 -0.55 0.6" fill="#a65fd5" fill-rule="evenodd" stroke="none"/>
    <path d="M-0.7 0.4 L-0.6 0.45 -0.6 0.55 -0.65 0.6 Q-0.7 0.5 -0.7 0.4" fill="#dbd9e2" fill-rule="evenodd" stroke="none"/>
    <path d="M-0.6 0.75 L-0.55 0.8 Q-0.55 0.9 -0.6 1.1 L-0.65 1.05 -0.6 0.95 -0.6 0.8 -0.6 0.75" fill="#b17ec2" fill-rule="evenodd" stroke="none"/>
    <path d="M-0.45 0.85 L-0.45 0.9 -0.5 0.95 -0.45 0.9 -0.4 0.9 -0.4 1.0 -0.45 1.05 -0.45 1.1 -0.4 1.2 -0.4 1.25 -0.4 1.3 Q-0.45 1.15 -0.55 1.15 L-0.55 1.2 -0.55 1.25 -0.55 1.15 -0.6 1.1 Q-0.55 0.9 -0.55 0.8 L-0.5 0.75 -0.5 0.85 Q-0.5 0.9 -0.45 0.85 M-0.5 0.75 L-0.5 0.75" fill="#7334b0" fill-rule="evenodd" stroke="none"/>
    <path d="M-0.5 0.75 L-0.5 0.65 Q-0.5 0.55 -0.5 0.55 L-0.5 0.65 -0.5 0.75 -0.5 0.75" fill="#8b4dbf" fill-rule="evenodd" stroke="none"/>
    <path d="M-0.95 0.9 Q-0.9 0.85 -0.9 0.75 L-0.9 0.6 -0.85 0.8 -0.65 0.9 -0.7 0.95 Q-0.7 0.9 -0.75 0.95 L-0.8 1.0 -0.85 1.0 -0.9 0.95 -0.85 1.05 -0.85 1.2 -0.9 1.15 -0.95 1.15 -1.05 1.2 -1.05 1.05 -1.1 0.95 -1.0 0.95 -0.95 0.9 -0.95 0.9" fill="#6f32ac" fill-rule="evenodd" stroke="none"/>
    <path d="M-0.65 0.9 L-0.6 0.8 -0.6 0.95 -0.65 1.05 -0.65 1.0 Q-0.65 0.95 -0.7 0.95 L-0.65 0.9 M-0.65 1.05 L-0.65 1.05" fill="#8747be" fill-rule="evenodd" stroke="none"/>
    <path d="M-1.3 0.75 L-1.3 0.75 -1.15 0.75 Q-1.15 0.7 -1.15 0.65 -1.2 0.6 -1.25 0.6 L-1.3 0.55 Q-1.15 0.5 -1.1 0.45 L-0.9 0.55 -0.95 0.9 -0.95 0.9 Q-1.05 0.85 -1.1 0.85 -1.2 0.8 -1.25 0.85 L-1.25 0.95 -1.2 1.05 -1.3 1.05 Q-1.35 1.05 -1.35 1.1 L-1.45 1.2 -1.45 1.3 -1.4 1.35 -1.35 1.25 -1.25 1.25 -1.25 1.2 -1.1 1.2 -1.05 1.25 -1.2 1.35 -1.25 1.35 -1.35 1.35 -1.4 1.35 -1.45 1.35 Q-1.5 1.35 -1.5 1.25 -1.5 1.2 -1.5 1.15 L-1.5 1.0 -1.45 0.95 -1.35 0.85 Q-1.25 0.85 -1.3 0.75" fill="#59288e" fill-rule="evenodd" stroke="none"/>
    <path d="M-1.05 1.25 L-0.95 1.2 Q-0.9 1.2 -0.85 1.2 L-0.95 1.2 -1.05 1.25" fill="#582994" fill-rule="evenodd" stroke="none"/>
    <path d="M-0.95 0.9 L-1.0 0.95 -1.1 0.95 -1.05 1.05 -1.05 1.2 -0.95 1.15 -0.9 1.15 -0.85 1.2 -0.85 1.05 -0.9 0.95 -0.85 1.0 -0.8 1.0 -0.75 0.95 Q-0.7 0.9 -0.7 0.95 -0.65 0.95 -0.65 1.0 L-0.65 1.05 -0.7 1.15 -0.7 1.3 -0.7 1.2 -0.85 1.2 Q-0.9 1.2 -0.95 1.2 L-1.05 1.25 -1.1 1.2 -1.25 1.2 -1.25 1.25 -1.35 1.25 -1.3 1.15 Q-1.25 1.05 -1.35 1.1 -1.35 1.05 -1.3 1.05 L-1.2 1.05 -1.25 0.95 -1.25 0.85 Q-1.2 0.8 -1.1 0.85 -1.05 0.85 -0.95 0.9" fill="#642ea0" fill-rule="evenodd" stroke="none"/>
    <path d="M-0.85 1.2 L-0.7 1.2 -0.7 1.3 -0.65 1.35 -0.65 1.4 -0.75 1.35 -0.75 1.25 -0.95 1.25 -1.05 1.35 -1.2 1.45 -1.3 1.4 -1.35 1.4 -1.45 1.4 -1.55 1.3 -1.55 0.95 -1.35 0.85 -1.45 0.95 -1.5 1.0 -1.5 1.15 Q-1.5 1.2 -1.5 1.25 -1.5 1.35 -1.45 1.35 L-1.4 1.35 -1.35 1.35 -1.25 1.35 -1.2 1.35 -1.05 1.25 -0.95 1.2 -0.85 1.2 M-0.7 1.3 L-0.7 1.3" fill="#502786" fill-rule="evenodd" stroke="none"/>
    <path d="M-0.55 1.25 L-0.55 1.2 -0.55 1.15 Q-0.45 1.15 -0.4 1.3 L-0.4 1.35 -0.4 1.5 -0.45 1.5 -0.55 1.35 -0.55 1.25" fill="#592792" fill-rule="evenodd" stroke="none"/>
    <path d="M-0.65 1.15 Q-0.65 1.1 -0.6 1.15 L-0.55 1.25 -0.55 1.35 -0.55 1.4 -0.6 1.3 -0.65 1.15" fill="#82569d" fill-rule="evenodd" stroke="none"/>
    <path d="M-0.55 1.25 L-0.55 1.25 -0.6 1.15 Q-0.65 1.1 -0.65 1.15 L-0.65 1.25 -0.65 1.05 Q-0.65 1.1 -0.6 1.1 L-0.55 1.15 -0.55 1.25" fill="#9e71b0" fill-rule="evenodd" stroke="none"/>
    <path d="M-0.7 1.3 L-0.7 1.15 -0.65 1.05 -0.65 1.25 -0.7 1.3 -0.7 1.3 -0.7 1.3" fill="#814ba4" fill-rule="evenodd" stroke="none"/>
    <path d="M-0.45 0.85 L-0.45 0.85 Q-0.5 0.9 -0.5 0.85 L-0.5 0.75 -0.5 0.65 -0.45 0.6 -0.45 0.85" fill="#b170cf" fill-rule="evenodd" stroke="none"/>
    <path d="M-0.35 1.05 L-0.35 0.95 -0.3 0.95 -0.25 1.0 -0.3 1.05 Q-0.35 1.05 -0.35 1.05" fill="#a542db" fill-rule="evenodd" stroke="none"/>
    <path d="M-0.2 1.0 Q-0.2 1.0 -0.15 1.0 L-0.05 1.05 -0.05 1.05 0.0 1.1 -0.1 1.1 -0.2 1.1 Q-0.45 1.2 -0.35 1.1 L-0.35 1.05 Q-0.35 1.05 -0.3 1.05 L-0.25 1.0 -0.25 0.95 -0.2 1.0" fill="#bd4ccf" fill-rule="evenodd" stroke="none"/>
    <path d="M-0.2 1.1 L-0.2 1.2 -0.25 1.25 -0.2 1.35 -0.15 1.35 -0.1 1.35 -0.15 1.4 -0.25 1.3 -0.4 1.2 -0.45 1.1 -0.35 1.1 Q-0.45 1.2 -0.2 1.1" fill="#a945b9" fill-rule="evenodd" stroke="none"/>
    <path d="M-1.15 0.2 L-1.2 0.15 Q-1.25 0.1 -1.2 0.05 L-1.1 0.05 -1.05 0.05 -1.05 0.15 -1.1 0.2 -1.15 0.2 M-1.15 0.15 L-1.1 0.1 Q-1.1 0.05 -1.15 0.05 L-1.2 0.15 -1.15 0.15" fill="#ab3fe5" fill-rule="evenodd" stroke="none"/>
    <path d="M-1.15 0.15 L-1.2 0.15 -1.15 0.05 Q-1.1 0.05 -1.1 0.1 L-1.15 0.15" fill="#e598e9" fill-rule="evenodd" stroke="none"/>
    <path d="M-1.65 0.15 L-1.75 0.05 -1.65 0.05 Q-1.6 0.1 -1.45 0.15 L-1.45 0.25 -1.35 0.3 Q-1.25 0.2 -1.15 0.2 L-1.1 0.2 -1.2 0.3 -1.35 0.4 -1.3 0.5 -1.3 0.55 -1.4 0.4 -1.6 0.45 -1.6 0.25 Q-1.6 0.2 -1.65 0.15" fill="#732cb5" fill-rule="evenodd" stroke="none"/>
    <path d="M-1.3 0.55 L-1.3 0.65 -1.4 0.65 -1.4 0.7 -1.55 0.7 -1.65 0.65 -1.65 0.55 -1.6 0.45 -1.4 0.4 -1.3 0.55 M-1.45 0.45 Q-1.55 0.45 -1.6 0.5 -1.65 0.6 -1.55 0.65 L-1.4 0.65 -1.35 0.55 Q-1.4 0.45 -1.45 0.45" fill="#8934c8" fill-rule="evenodd" stroke="none"/>
    <path d="M-1.45 0.45 Q-1.4 0.45 -1.35 0.55 L-1.4 0.65 -1.55 0.65 Q-1.65 0.6 -1.6 0.5 -1.55 0.45 -1.45 0.45 M-1.4 0.6 Q-1.4 0.55 -1.45 0.5 L-1.55 0.5 -1.55 0.6 -1.45 0.65 -1.4 0.6" fill="#bf56cf" fill-rule="evenodd" stroke="none"/>
    <path d="M-1.4 0.6 L-1.45 0.65 -1.55 0.6 -1.55 0.5 -1.45 0.5 Q-1.4 0.55 -1.4 0.6" fill="#c1b9cc" fill-rule="evenodd" stroke="none"/>
    <path d="M-2.2 0.05 L-2.2 -0.05 Q-1.9 0.05 -1.75 0.2 -1.7 0.2 -1.65 0.25 -1.65 0.3 -1.7 0.3 L-1.65 0.5 Q-1.7 0.6 -1.65 0.65 L-1.55 0.7 -1.4 0.7 -1.35 0.7 -1.35 0.7 Q-1.4 0.7 -1.5 0.7 L-1.6 0.7 -1.65 0.65 -1.7 0.55 -1.7 0.45 -1.8 0.25 Q-1.9 0.15 -1.95 0.1 L-2.2 0.05" fill="#592394" fill-rule="evenodd" stroke="none"/>
    <path d="M-2.2 0.15 L-2.2 0.05 -1.95 0.1 Q-1.9 0.15 -1.8 0.25 L-1.7 0.45 -1.7 0.55 -1.65 0.65 -1.6 0.7 -1.5 0.7 -1.75 0.7 -1.8 0.6 Q-1.8 0.5 -1.8 0.5 L-1.85 0.4 -1.9 0.3 -2.05 0.2 Q-2.1 0.15 -2.2 0.15" fill="#4f2089" fill-rule="evenodd" stroke="none"/>
    <path d="M-2.2 0.2 L-2.2 0.15 Q-2.1 0.15 -2.05 0.2 L-1.9 0.3 -1.85 0.4 -1.8 0.5 Q-1.8 0.5 -1.8 0.6 L-1.75 0.7 -1.5 0.7 Q-1.4 0.7 -1.35 0.7 L-1.3 0.75 Q-1.25 0.85 -1.35 0.85 L-1.55 0.95 -1.55 1.3 -1.45 1.4 -1.35 1.4 -1.3 1.4 -1.2 1.45 -1.05 1.35 -0.95 1.25 -0.75 1.25 -0.75 1.35 -0.65 1.4 Q-0.7 1.5 -0.65 1.55 L-0.6 1.5 -0.55 1.4 -0.5 1.5 -0.45 1.65 -0.55 1.6 -0.65 1.65 -0.65 1.65 -0.7 1.6 -0.75 1.55 -0.8 1.45 Q-0.8 1.4 -0.75 1.45 L-0.7 1.4 -0.8 1.35 -0.85 1.3 Q-0.9 1.3 -0.95 1.3 L-1.0 1.4 -1.05 1.4 -1.1 1.4 -1.05 1.5 -1.05 1.5 -1.2 1.5 Q-1.3 1.5 -1.35 1.45 -1.35 1.4 -1.45 1.4 L-1.55 1.4 -1.6 1.3 -1.65 1.2 -1.6 1.05 -1.6 0.95 -1.65 0.85 -1.65 0.8 -1.75 0.75 -1.8 0.7 -1.85 0.6 Q-1.85 0.5 -1.85 0.5 L-1.9 0.4 Q-1.9 0.3 -1.95 0.3 L-2.2 0.2 M-0.45 1.65 L-0.45 1.65" fill="#49227c" fill-rule="evenodd" stroke="none"/>
    <path d="M-2.2 0.4 L-2.2 0.3 -2.0 0.4 -1.95 0.6 -1.85 0.75 -1.8 0.85 -1.7 0.95 -1.7 1.3 -1.6 1.4 -1.5 1.5 Q-1.45 1.5 -1.35 1.55 L-1.25 1.6 -0.75 1.6 -0.7 1.65 -0.65 1.7 -0.55 1.7 Q-0.5 1.7 -0.5 1.75 L-0.55 1.75 -0.65 1.75 -0.75 1.65 -0.85 1.65 -1.0 1.65 -1.1 1.65 -1.25 1.65 -1.4 1.6 Q-1.5 1.55 -1.55 1.55 L-1.65 1.45 -1.75 1.3 -1.75 1.15 Q-1.75 1.0 -1.8 0.95 L-1.85 0.85 -1.9 0.7 -2.0 0.5 Q-2.05 0.4 -2.2 0.4" fill="#361c67" fill-rule="evenodd" stroke="none"/>
    <path d="M-2.2 0.3 L-2.2 0.3 Q-2.1 0.3 -1.95 0.4 L-1.9 0.5 -1.85 0.65 -1.8 0.8 -1.7 0.8 -1.65 0.85 -1.65 1.0 -1.7 1.2 -1.55 1.4 Q-1.5 1.5 -1.4 1.45 -1.3 1.55 -1.2 1.55 L-1.0 1.5 Q-1.05 1.45 -1.0 1.4 L-0.95 1.4 -0.9 1.45 -0.8 1.55 -0.7 1.6 -0.65 1.65 -0.65 1.65 -0.55 1.6 -0.45 1.65 -0.45 1.75 -0.5 1.75 Q-0.5 1.7 -0.55 1.7 L-0.65 1.7 -0.7 1.65 -0.75 1.6 -1.25 1.6 -1.35 1.55 Q-1.45 1.5 -1.5 1.5 L-1.6 1.4 -1.7 1.3 -1.7 0.95 -1.8 0.85 -1.85 0.75 -1.95 0.6 -2.0 0.4 -2.2 0.3" fill="#3c1e6e" fill-rule="evenodd" stroke="none"/>
    <path d="M-2.2 0.3 L-2.2 0.2 -1.95 0.3 Q-1.9 0.3 -1.9 0.4 L-1.85 0.5 Q-1.85 0.5 -1.85 0.6 L-1.8 0.7 -1.75 0.75 -1.65 0.8 -1.65 0.85 -1.6 0.95 -1.6 1.05 -1.65 1.2 -1.6 1.3 -1.55 1.4 -1.45 1.4 Q-1.35 1.4 -1.35 1.45 -1.3 1.5 -1.2 1.5 L-1.05 1.5 -1.05 1.5 -1.1 1.4 -1.05 1.4 -1.0 1.4 -0.95 1.3 Q-0.9 1.3 -0.85 1.3 L-0.8 1.35 -0.7 1.4 -0.75 1.45 Q-0.8 1.4 -0.8 1.45 L-0.75 1.55 -0.7 1.6 -0.8 1.55 -0.9 1.45 -0.95 1.4 -1.0 1.4 Q-1.05 1.45 -1.0 1.5 L-1.2 1.55 Q-1.3 1.55 -1.4 1.45 -1.5 1.5 -1.55 1.4 L-1.7 1.2 -1.65 1.0 -1.65 0.85 -1.7 0.8 -1.8 0.8 -1.85 0.65 -1.9 0.5 -1.95 0.4 Q-2.1 0.3 -2.2 0.3" fill="#412077" fill-rule="evenodd" stroke="none"/>
    <path d="M-2.2 0.45 L-2.2 0.4 Q-2.05 0.4 -2.0 0.5 L-1.9 0.7 -1.85 0.85 -1.8 0.95 Q-1.75 1.0 -1.75 1.15 L-1.75 1.3 -1.65 1.45 -1.55 1.55 Q-1.5 1.55 -1.4 1.6 L-1.25 1.65 -1.1 1.65 -1.0 1.65 -0.85 1.65 -0.75 1.65 -0.65 1.75 -0.7 1.8 -0.9 1.75 -1.05 1.75 -1.35 1.65 -1.45 1.65 -1.6 1.6 -1.75 1.45 -1.8 1.25 -1.8 1.1 Q-1.8 1.0 -1.85 0.95 L-1.95 0.85 -2.0 0.7 Q-2.05 0.5 -2.2 0.45" fill="#301a60" fill-rule="evenodd" stroke="none"/>
    <path d="M-2.2 0.6 L-2.2 0.45 Q-2.05 0.5 -2.0 0.7 L-1.95 0.85 -1.85 0.95 Q-1.8 1.0 -1.8 1.1 L-1.8 1.25 -1.75 1.45 -1.6 1.6 -1.45 1.65 -1.35 1.65 -1.05 1.75 -0.9 1.75 -0.7 1.8 -0.75 1.85 -0.8 1.85 -1.35 1.75 Q-1.5 1.65 -1.6 1.7 L-1.8 1.5 -1.85 1.3 Q-1.85 1.15 -1.9 1.0 L-2.05 0.75 -2.1 0.65 -2.2 0.6" fill="#2a1859" fill-rule="evenodd" stroke="none"/>
    <path d="M-0.15 2.2 L-0.25 2.2 -0.45 2.05 -1.0 1.95 -1.55 1.85 Q-1.7 1.85 -1.75 1.8 L-1.95 1.6 -2.05 1.35 -2.1 1.15 Q-2.15 1.05 -2.2 1.0 L-2.2 0.8 Q-2.05 0.85 -2.0 0.95 -1.95 1.05 -1.95 1.2 L-1.85 1.5 Q-1.8 1.7 -1.6 1.75 L-0.85 1.9 -0.3 2.05 -0.15 2.2" fill="#20164a" fill-rule="evenodd" stroke="none"/>
    <path d="M-2.2 0.8 L-2.2 0.6 -2.1 0.65 -2.05 0.75 -1.9 1.0 Q-1.85 1.15 -1.85 1.3 L-1.8 1.5 -1.6 1.7 Q-1.5 1.65 -1.35 1.75 L-0.8 1.85 -0.85 1.85 -0.85 1.9 -1.6 1.75 Q-1.8 1.7 -1.85 1.5 L-1.95 1.2 Q-1.95 1.05 -2.0 0.95 -2.05 0.85 -2.2 0.8" fill="#241751" fill-rule="evenodd" stroke="none"/>
    <path d="M-1.3 0.75 L-1.3 0.75 -1.25 0.75 -1.2 0.7 -1.2 0.7 Q-1.2 0.65 -1.25 0.65 L-1.3 0.65 -1.25 0.6 Q-1.2 0.6 -1.15 0.65 -1.15 0.7 -1.15 0.75 L-1.3 0.75" fill="#8c39bf" fill-rule="evenodd" stroke="none"/>
    <path d="M-1.25 0.75 L-1.25 0.7 -1.2 0.7 -1.2 0.7 -1.25 0.75" fill="#b4a7c0" fill-rule="evenodd" stroke="none"/>
    <path d="M-1.3 0.75 L-1.3 0.65 -1.25 0.65 Q-1.2 0.65 -1.2 0.7 L-1.25 0.7 -1.25 0.75 -1.3 0.75" fill="#b161c0" fill-rule="evenodd" stroke="none"/>
    <path d="M-1.35 1.1 Q-1.25 1.05 -1.3 1.15 L-1.35 1.25 -1.4 1.35 -1.45 1.3 -1.45 1.2 -1.35 1.1" fill="#6e39a1" fill-rule="evenodd" stroke="none"/>
    <path d="M-0.25 2.2 L-0.45 2.2 Q-0.7 1.95 -1.25 2.1 L-1.6 2.0 -1.9 1.8 -2.05 1.65 Q-2.1 1.5 -2.2 1.45 L-2.2 1.0 Q-2.15 1.05 -2.1 1.15 L-2.05 1.35 -1.95 1.6 -1.75 1.8 Q-1.7 1.85 -1.55 1.85 L-1.0 1.95 -0.45 2.05 -0.25 2.2" fill="#1b1545" fill-rule="evenodd" stroke="none"/>
    <path d="M-0.45 2.2 L-2.2 2.2 -2.2 1.45 Q-2.1 1.5 -2.05 1.65 L-1.9 1.8 -1.6 2.0 -1.25 2.1 Q-0.7 1.95 -0.45 2.2" fill="#171540" fill-rule="evenodd" stroke="none"/>
    <path d="M-0.05 1.4 L-0.1 1.5 -0.2 1.45 -0.25 1.4 -0.3 1.35 -0.4 1.3 -0.4 1.25 -0.4 1.2 -0.25 1.3 -0.15 1.4 -0.05 1.4" fill="#903ca4" fill-rule="evenodd" stroke="none"/>
    <path d="M-0.4 1.3 L-0.4 1.25 -0.4 1.3 -0.3 1.35 -0.25 1.4 -0.2 1.45 -0.25 1.5 -0.35 1.5 -0.35 1.4 -0.4 1.35 -0.4 1.3" fill="#7f3797" fill-rule="evenodd" stroke="none"/>
    <path d="M-0.45 1.75 L-0.45 1.65 -0.4 1.65 -0.4 1.7 -0.45 1.75 -0.45 1.75 M-0.45 1.65 L-0.45 1.65 M-0.4 1.7 L-0.4 1.7" fill="#50426d" fill-rule="evenodd" stroke="none"/>
    <path d="M-0.4 1.65 L-0.45 1.65 -0.5 1.5 -0.55 1.4 -0.55 1.35 -0.45 1.5 -0.4 1.65" fill="#674a82" fill-rule="evenodd" stroke="none"/>
    <path d="M0.0 1.9 L0.0 1.95 -0.1 1.95 -0.15 1.95 -0.25 1.85 -0.4 1.8 -0.4 1.8 -0.45 1.75 -0.4 1.7 Q-0.3 1.75 -0.25 1.8 L-0.15 1.9 Q-0.15 1.9 -0.1 1.9 L-0.05 1.9 0.0 1.9" fill="#452765" fill-rule="evenodd" stroke="none"/>
    <path d="M-0.4 1.7 L-0.4 1.7 -0.3 1.65 -0.2 1.65 -0.1 1.7 -0.05 1.8 -0.1 1.85 -0.05 1.9 -0.1 1.9 Q-0.15 1.9 -0.15 1.9 L-0.25 1.8 Q-0.3 1.75 -0.4 1.7" fill="#522770" fill-rule="evenodd" stroke="none"/>
    <path d="M-0.65 1.15 L-0.6 1.3 -0.55 1.4 -0.6 1.5 -0.65 1.55 Q-0.7 1.5 -0.65 1.4 L-0.65 1.35 -0.7 1.3 -0.7 1.3 -0.65 1.25 -0.65 1.15 M-0.55 1.4 L-0.55 1.4" fill="#5b2f8c" fill-rule="evenodd" stroke="none"/>
    <path d="M0.05 1.85 L0.0 1.9 -0.05 1.9 -0.1 1.85 -0.05 1.8 0.05 1.85" fill="#595575" fill-rule="evenodd" stroke="none"/>
  </g>
</svg>
