<?xml version="1.0" encoding="UTF-8" standalone="no"?>
<svg xmlns:xlink="http://www.w3.org/1999/xlink" height="4.4px" width="4.4px" xmlns="http://www.w3.org/2000/svg">
  <g transform="matrix(1.0, 0.0, 0.0, 1.0, 2.2, 2.2)">
    <path d="M2.2 -1.25 L2.1 -1.3 1.95 -1.3 1.85 -1.3 1.7 -1.25 1.5 -1.35 1.2 -1.45 1.15 -1.5 1.1 -1.45 1.05 -1.4 1.05 -1.35 1.0 -1.35 1.0 -1.45 Q1.0 -1.5 1.1 -1.5 L1.2 -1.5 1.3 -1.55 1.4 -1.6 1.75 -1.6 1.95 -1.55 Q2.05 -1.5 2.0 -1.4 L2.1 -1.4 2.2 -1.4 2.2 -1.25" fill="#2c113e" fill-rule="evenodd" stroke="none"/>
    <path d="M1.05 -1.35 L1.05 -1.4 1.1 -1.45 1.15 -1.5 1.2 -1.45 1.5 -1.35 1.7 -1.25 1.85 -1.3 1.95 -1.3 2.1 -1.3 2.2 -1.25 2.2 -1.2 2.05 -1.15 1.95 -1.15 1.55 -1.25 1.45 -1.25 1.35 -1.25 Q1.3 -1.25 1.3 -1.3 L1.2 -1.35 1.05 -1.35" fill="#32154e" fill-rule="evenodd" stroke="none"/>
    <path d="M0.1 -1.1 L0.15 -1.0 0.25 -1.05 0.35 -1.1 0.6 -1.15 0.85 -1.2 0.95 -1.2 1.05 -1.2 1.0 -1.25 1.0 -1.3 1.05 -1.3 1.05 -1.25 1.05 -1.05 1.15 -1.0 Q1.1 -0.95 1.05 -0.85 L1.1 -0.85 1.15 -0.95 1.2 -0.95 1.2 -0.9 1.25 -0.95 1.35 -0.95 1.45 -0.9 1.45 -0.75 1.5 -0.8 1.55 -0.85 1.6 -0.8 Q1.65 -0.9 1.7 -0.85 1.7 -0.8 1.7 -0.8 L1.75 -0.85 1.8 -0.85 1.9 -0.8 1.9 -0.9 1.95 -0.8 1.9 -0.75 1.8 -0.75 1.8 -0.65 1.85 -0.6 2.0 -0.6 2.2 -0.65 2.2 -0.6 2.05 -0.6 Q2.0 -0.6 2.0 -0.55 L1.9 -0.55 Q1.85 -0.55 1.8 -0.55 1.85 -0.45 1.7 -0.45 L1.65 -0.55 1.65 -0.4 Q1.6 -0.35 1.5 -0.35 L1.4 -0.35 1.4 -0.5 1.35 -0.45 1.25 -0.4 1.25 -0.5 1.2 -0.6 1.1 -0.55 Q1.05 -0.55 1.05 -0.65 0.95 -0.6 0.8 -0.7 L0.7 -0.75 0.7 -0.8 0.65 -0.75 0.65 -0.8 0.6 -0.8 0.35 -0.85 0.1 -0.8 0.1 -0.85 0.2 -0.85 0.25 -0.9 0.2 -0.95 0.1 -0.95 0.1 -1.05 0.1 -1.1 M1.25 -0.4 L1.25 -0.4" fill="#3d1c62" fill-rule="evenodd" stroke="none"/>
    <path d="M1.0 -1.35 L1.05 -1.35 Q1.1 -1.35 1.15 -1.3 L1.25 -1.3 1.25 -1.2 Q1.25 -1.1 1.15 -1.15 1.1 -1.15 1.1 -1.2 L1.05 -1.25 1.05 -1.3 1.0 -1.3 1.0 -1.25 1.05 -1.2 0.95 -1.2 0.85 -1.2 0.6 -1.15 0.35 -1.1 0.25 -1.05 0.15 -1.0 0.1 -1.1 0.15 -1.15 0.2 -1.1 0.45 -1.15 0.7 -1.25 0.8 -1.2 0.8 -1.3 0.85 -1.3 0.9 -1.3 Q0.9 -1.4 0.9 -1.4 L0.95 -1.35 1.0 -1.35" fill="#381856" fill-rule="evenodd" stroke="none"/>
    <path d="M2.2 -1.4 L2.1 -1.4 2.0 -1.4 Q2.05 -1.5 1.95 -1.55 L1.75 -1.6 1.4 -1.6 1.3 -1.55 1.2 -1.5 1.1 -1.5 Q1.0 -1.5 1.0 -1.45 L0.85 -1.5 0.8 -1.4 Q0.75 -1.4 0.7 -1.4 L0.6 -1.5 0.6 -1.4 0.5 -1.45 Q0.5 -1.25 0.35 -1.25 L0.25 -1.2 0.1 -1.2 0.0 -1.2 -0.1 -1.2 -0.1 -1.0 Q-0.1 -0.95 -0.1 -0.9 L-0.15 -0.9 Q-0.2 -0.85 -0.2 -0.85 L-0.25 -0.9 -0.2 -1.1 Q-0.2 -1.2 -0.25 -1.25 L-0.3 -1.3 -0.25 -1.35 Q-0.2 -1.4 -0.25 -1.4 L-0.45 -1.4 -0.4 -1.45 -0.35 -1.4 -0.35 -1.5 -0.5 -1.55 -0.4 -1.55 -0.35 -1.55 -0.3 -1.55 -0.25 -1.55 -0.25 -1.6 -0.3 -1.6 -0.65 -1.6 -0.65 -1.55 -0.6 -1.5 Q-0.65 -1.5 -0.7 -1.55 L-0.85 -1.6 -0.9 -1.65 -0.9 -1.7 -0.95 -1.8 -1.0 -1.95 -1.1 -2.1 -1.15 -2.1 -1.25 -2.1 Q-1.3 -2.1 -1.25 -2.2 L-0.9 -2.2 -0.4 -2.2 -0.45 -2.05 -0.5 -1.95 -0.35 -1.85 -0.2 -1.85 -0.25 -1.85 -0.2 -1.9 -0.1 -1.9 0.0 -1.85 0.1 -1.9 0.2 -1.95 Q0.45 -1.9 0.7 -2.2 L2.2 -2.2 2.2 -1.4 M-0.9 -2.2 L-0.9 -2.05 Q-0.85 -2.0 -0.85 -2.05 L-0.9 -2.2 M-0.9 -1.65 L-0.9 -1.65 M-0.25 -1.4 L-0.25 -1.5 -0.35 -1.45 -0.25 -1.4 M0.6 -1.5 L0.6 -1.65 0.55 -1.75 Q0.55 -1.6 0.6 -1.5" fill="#240e30" fill-rule="evenodd" stroke="none"/>
    <path d="M1.05 -1.35 L1.2 -1.35 1.3 -1.3 Q1.3 -1.25 1.35 -1.25 L1.45 -1.25 1.4 -1.2 1.35 -1.2 1.35 -1.1 1.4 -1.1 1.4 -1.05 1.3 -1.05 1.25 -1.05 1.15 -1.0 1.25 -1.0 1.35 -1.0 Q1.45 -1.0 1.45 -0.9 L1.35 -0.95 1.25 -0.95 1.2 -0.9 1.2 -0.95 1.15 -0.95 1.1 -0.85 1.05 -0.85 Q1.1 -0.95 1.15 -1.0 L1.15 -1.1 1.1 -1.2 Q1.1 -1.15 1.15 -1.15 1.25 -1.1 1.25 -1.2 L1.25 -1.3 1.15 -1.3 Q1.1 -1.35 1.05 -1.35" fill="#3e206a" fill-rule="evenodd" stroke="none"/>
    <path d="M1.45 -1.25 L1.55 -1.25 1.95 -1.15 2.05 -1.15 2.2 -1.2 2.2 -0.8 Q2.15 -0.8 2.1 -0.85 L2.05 -0.9 2.0 -0.85 1.95 -0.8 1.9 -0.9 1.7 -1.05 1.55 -1.2 Q1.55 -1.15 1.5 -1.15 1.45 -1.15 1.4 -1.2 L1.45 -1.25" fill="#361e63" fill-rule="evenodd" stroke="none"/>
    <path d="M0.5 -2.2 L0.5 -2.15 0.55 -2.1 0.55 -2.2 0.7 -2.2 Q0.45 -1.9 0.2 -1.95 L0.1 -1.9 0.0 -1.85 -0.1 -1.9 -0.2 -1.9 -0.25 -1.85 -0.2 -1.85 -0.35 -1.85 -0.5 -1.95 -0.45 -2.05 -0.4 -2.2 0.5 -2.2" fill="#321243" fill-rule="evenodd" stroke="none"/>
    <path d="M0.5 -2.2 L0.55 -2.2 0.55 -2.1 0.5 -2.15 0.5 -2.2" fill="#9435b8" fill-rule="evenodd" stroke="none"/>
    <path d="M0.6 -1.5 Q0.55 -1.6 0.55 -1.75 L0.6 -1.65 0.6 -1.5 0.6 -1.5" fill="#6c2790" fill-rule="evenodd" stroke="none"/>
    <path d="M1.0 -1.45 L1.0 -1.35 0.95 -1.35 0.9 -1.4 Q0.9 -1.4 0.9 -1.3 L0.85 -1.3 0.8 -1.3 0.8 -1.2 0.7 -1.25 0.45 -1.15 0.2 -1.1 0.15 -1.15 0.1 -1.1 0.1 -1.05 0.1 -0.95 0.05 -0.9 -0.1 -0.85 -0.2 -0.75 -0.2 -0.85 Q-0.2 -0.85 -0.15 -0.9 L-0.1 -0.9 Q-0.1 -0.95 -0.1 -1.0 L-0.1 -1.2 0.0 -1.2 0.1 -1.2 0.25 -1.2 0.35 -1.25 Q0.5 -1.25 0.5 -1.45 L0.6 -1.4 0.6 -1.5 0.7 -1.4 Q0.75 -1.4 0.8 -1.4 L0.85 -1.5 1.0 -1.45 M0.6 -1.5 L0.6 -1.5" fill="#301347" fill-rule="evenodd" stroke="none"/>
    <path d="M0.1 -0.8 L0.35 -0.85 0.6 -0.8 0.65 -0.8 0.65 -0.75 0.7 -0.8 0.7 -0.75 0.8 -0.7 Q0.95 -0.6 1.05 -0.65 1.05 -0.55 1.1 -0.55 L1.2 -0.6 1.25 -0.5 1.25 -0.4 1.1 -0.35 1.05 -0.45 Q0.95 -0.45 0.9 -0.5 L0.75 -0.6 0.65 -0.75 0.65 -0.65 0.6 -0.7 0.6 -0.65 0.5 -0.75 0.15 -0.75 Q0.1 -0.75 0.1 -0.8" fill="#4e1d7a" fill-rule="evenodd" stroke="none"/>
    <path d="M0.6 -0.65 L0.6 -0.7 0.65 -0.65 0.55 -0.55 0.5 -0.6 0.3 -0.6 0.1 -0.65 0.1 -0.65 0.3 -0.65 0.5 -0.65 0.55 -0.65 0.6 -0.65" fill="#7020bf" fill-rule="evenodd" stroke="none"/>
    <path d="M0.1 -0.8 Q0.1 -0.75 0.15 -0.75 L0.5 -0.75 0.6 -0.65 0.55 -0.65 0.5 -0.65 0.5 -0.7 0.3 -0.7 0.1 -0.7 0.05 -0.7 0.05 -0.65 -0.1 -0.65 -0.2 -0.6 -0.2 -0.65 -0.05 -0.7 0.1 -0.75 0.1 -0.85 0.1 -0.85 0.1 -0.8 M-0.2 -0.6 L-0.2 -0.6" fill="#591b8e" fill-rule="evenodd" stroke="none"/>
    <path d="M0.65 -0.65 L0.65 -0.75 0.75 -0.6 0.7 -0.55 0.7 -0.5 0.65 -0.65" fill="#7424bf" fill-rule="evenodd" stroke="none"/>
    <path d="M0.1 -1.05 L0.1 -0.95 0.2 -0.95 0.25 -0.9 0.2 -0.85 0.1 -0.85 -0.2 -0.7 -0.2 -0.75 -0.1 -0.85 0.05 -0.9 0.1 -0.95 0.1 -1.05 M-0.2 -0.75 L-0.2 -0.75 M0.1 -0.85 L0.1 -0.85" fill="#3a155a" fill-rule="evenodd" stroke="none"/>
    <path d="M0.1 -0.65 L0.1 -0.65 0.3 -0.6 0.5 -0.6 0.25 -0.6 0.0 -0.6 0.05 -0.65 0.05 -0.7 0.1 -0.65" fill="#8021e5" fill-rule="evenodd" stroke="none"/>
    <path d="M0.5 -0.65 L0.3 -0.65 0.1 -0.65 0.05 -0.7 0.1 -0.7 0.3 -0.7 0.5 -0.7 0.5 -0.65" fill="#651da8" fill-rule="evenodd" stroke="none"/>
    <path d="M-0.2 -0.7 L0.1 -0.85 0.1 -0.75 -0.05 -0.7 -0.2 -0.65 -0.2 -0.7 -0.2 -0.7 -0.2 -0.7" fill="#481771" fill-rule="evenodd" stroke="none"/>
    <path d="M0.5 -0.6 L0.55 -0.55 0.65 -0.65 0.7 -0.5 0.7 -0.55 0.75 -0.5 Q0.75 -0.35 0.85 -0.3 L0.9 -0.2 0.8 -0.2 Q0.8 -0.3 0.75 -0.3 L0.6 -0.5 0.55 -0.5 0.55 -0.5 0.25 -0.5 0.0 -0.55 -0.05 -0.5 -0.1 -0.45 -0.1 -0.4 -0.1 -0.35 -0.1 -0.4 -0.15 -0.4 -0.15 -0.45 -0.15 -0.45 -0.15 -0.5 -0.05 -0.55 0.0 -0.6 0.25 -0.6 0.5 -0.6" fill="#9b2bfa" fill-rule="evenodd" stroke="none"/>
    <path d="M0.1 -0.1 L0.1 -0.1 0.05 -0.2 0.05 -0.2 0.0 -0.25 0.0 -0.35 -0.05 -0.3 -0.05 -0.25 -0.15 -0.35 -0.15 -0.35 -0.1 -0.35 -0.1 -0.4 -0.1 -0.45 -0.05 -0.5 0.0 -0.45 0.3 -0.45 0.55 -0.4 0.6 -0.35 0.65 -0.35 Q0.65 -0.2 0.75 -0.2 L0.75 -0.15 0.5 -0.1 Q0.45 -0.2 0.3 -0.2 0.15 -0.2 0.1 -0.1 M-0.15 -0.35 L-0.15 -0.35" fill="#fd43fe" fill-rule="evenodd" stroke="none"/>
    <path d="M-0.05 -0.2 L-0.05 -0.25 -0.05 -0.3 0.0 -0.35 0.0 -0.25 0.05 -0.2 0.0 -0.2 -0.05 -0.2" fill="#ff72ff" fill-rule="evenodd" stroke="none"/>
    <path d="M0.1 -0.1 L0.1 -0.05 0.25 -0.1 0.4 -0.1 0.5 -0.1 0.75 -0.15 0.8 -0.2 0.8 -0.2 0.9 -0.2 0.95 -0.2 0.85 -0.15 0.8 -0.1 0.6 -0.05 0.55 0.0 0.35 0.05 Q0.4 0.2 0.5 0.15 L0.6 0.2 0.7 0.15 0.8 0.1 0.85 0.05 0.95 0.05 1.05 0.05 0.95 0.05 0.85 0.1 0.8 0.15 0.7 0.2 0.85 0.2 1.05 0.3 1.2 0.35 1.35 0.4 2.05 0.55 2.2 0.65 2.2 0.7 2.1 0.65 1.9 0.55 1.3 0.45 1.2 0.4 0.95 0.3 0.9 0.3 0.8 0.25 0.65 0.25 0.5 0.25 0.35 0.25 0.3 0.35 Q0.25 0.35 0.3 0.2 L0.25 0.25 0.25 0.3 0.2 0.3 Q0.15 0.3 0.2 0.25 L0.15 0.2 Q0.15 0.15 0.1 0.15 L-0.1 0.05 -0.15 0.05 -0.3 0.1 -0.4 0.1 -0.45 0.1 -0.5 0.1 -0.6 0.1 -0.55 0.05 -0.65 0.0 -0.6 -0.05 -0.55 0.0 -0.5 0.05 -0.5 -0.05 -0.4 -0.05 -0.25 -0.05 -0.1 -0.1 -0.15 -0.1 -0.2 -0.15 -0.2 -0.2 -0.1 -0.1 -0.1 -0.2 -0.15 -0.25 -0.15 -0.35 -0.05 -0.25 -0.05 -0.2 0.05 -0.1 0.05 -0.2 0.1 -0.1 0.1 -0.1 M0.8 -0.1 L0.8 -0.1 M0.9 -0.25 L0.9 -0.2 0.9 -0.25" fill="#fef5ff" fill-rule="evenodd" stroke="none"/>
    <path d="M0.05 -0.2 L0.05 -0.1 -0.05 -0.2 0.0 -0.2 0.05 -0.2 0.05 -0.2" fill="#ffb4ff" fill-rule="evenodd" stroke="none"/>
    <path d="M0.4 -0.1 L0.25 -0.1 0.1 -0.05 0.1 -0.1 0.25 -0.15 0.4 -0.1 M0.7 0.15 L0.6 0.2 0.5 0.15 Q0.4 0.2 0.35 0.05 L0.55 0.0 0.55 0.05 0.6 0.15 0.7 0.15" fill="#ff11ff" fill-rule="evenodd" stroke="none"/>
    <path d="M0.5 -0.1 L0.4 -0.1 0.25 -0.15 0.1 -0.1 Q0.15 -0.2 0.3 -0.2 0.45 -0.2 0.5 -0.1" fill="#ff2eff" fill-rule="evenodd" stroke="none"/>
    <path d="M0.65 -0.35 L0.6 -0.45 0.3 -0.5 0.0 -0.45 -0.05 -0.5 0.0 -0.55 0.25 -0.5 0.55 -0.5 0.55 -0.5 0.6 -0.5 0.75 -0.3 0.75 -0.2 Q0.65 -0.2 0.65 -0.35" fill="#c534ff" fill-rule="evenodd" stroke="none"/>
    <path d="M0.0 -0.45 L0.3 -0.5 0.6 -0.45 0.65 -0.35 0.6 -0.35 0.55 -0.4 0.3 -0.45 0.0 -0.45" fill="#e637ff" fill-rule="evenodd" stroke="none"/>
    <path d="M0.75 -0.6 L0.9 -0.5 Q0.95 -0.45 1.05 -0.45 L1.1 -0.35 1.1 -0.3 1.05 -0.3 1.0 -0.25 Q0.95 -0.35 1.0 -0.4 L0.9 -0.4 0.7 -0.55 0.75 -0.6" fill="#5c2496" fill-rule="evenodd" stroke="none"/>
    <path d="M0.9 -0.25 L0.9 -0.2 0.85 -0.3 0.8 -0.4 0.75 -0.5 0.7 -0.55 0.9 -0.4 1.0 -0.4 Q0.95 -0.35 1.0 -0.25 L0.9 -0.25 0.9 -0.25" fill="#6e28bd" fill-rule="evenodd" stroke="none"/>
    <path d="M0.55 0.0 L0.6 -0.05 0.6 0.15 0.55 0.05 0.55 0.0" fill="#ff35ff" fill-rule="evenodd" stroke="none"/>
    <path d="M0.8 -0.1 L0.85 -0.15 0.95 -0.2 0.9 -0.2 0.9 -0.25 0.9 -0.25 1.0 -0.25 1.05 -0.3 1.05 -0.2 0.9 -0.1 0.85 -0.1 0.85 -0.1 0.85 -0.1 0.8 -0.1" fill="#e6c2f0" fill-rule="evenodd" stroke="none"/>
    <path d="M0.8 -0.2 L0.8 -0.2 0.75 -0.15 0.8 -0.2" fill="#af3eff" fill-rule="evenodd" stroke="none"/>
    <path d="M1.05 0.05 L0.95 0.05 0.85 0.05 0.85 0.0 0.8 -0.05 0.8 -0.1 0.8 -0.1 0.85 -0.1 0.85 -0.1 0.85 -0.1 0.9 0.0 1.0 0.0 1.05 0.05" fill="#b353ff" fill-rule="evenodd" stroke="none"/>
    <path d="M0.85 0.05 L0.8 0.1 0.75 0.0 Q0.75 -0.05 0.8 -0.05 L0.85 0.0 0.85 0.05" fill="#d652ff" fill-rule="evenodd" stroke="none"/>
    <path d="M0.8 0.1 L0.7 0.15 0.6 0.15 0.6 -0.05 0.8 -0.1 0.8 -0.05 Q0.75 -0.05 0.75 0.0 L0.8 0.1" fill="#fd52ff" fill-rule="evenodd" stroke="none"/>
    <path d="M1.0 0.0 L0.9 0.0 0.85 -0.1 0.85 -0.1 0.85 -0.1 0.9 -0.1 0.95 -0.05 1.0 0.0" fill="#884efe" fill-rule="evenodd" stroke="none"/>
    <path d="M1.0 0.0 L0.95 -0.05 0.9 -0.1 1.0 -0.15 1.1 -0.05 1.25 0.05 1.15 0.05 1.05 0.05 1.0 0.0" fill="#6f4cf4" fill-rule="evenodd" stroke="none"/>
    <path d="M0.85 -0.3 Q0.75 -0.35 0.75 -0.5 L0.8 -0.4 0.85 -0.3" fill="#812ae0" fill-rule="evenodd" stroke="none"/>
    <path d="M0.05 -0.65 L0.0 -0.6 Q-0.15 -0.6 -0.2 -0.55 L-0.2 -0.55 -0.2 -0.6 -0.1 -0.65 0.05 -0.65" fill="#6a1fb0" fill-rule="evenodd" stroke="none"/>
    <path d="M1.9 -0.9 L1.9 -0.8 1.8 -0.85 1.75 -0.85 1.7 -0.8 Q1.7 -0.8 1.7 -0.85 1.65 -0.9 1.6 -0.8 L1.55 -0.85 1.5 -0.8 1.45 -0.75 1.45 -0.9 Q1.45 -1.0 1.35 -1.0 L1.25 -1.0 1.15 -1.0 1.25 -1.05 1.3 -1.05 1.4 -1.05 1.4 -1.1 1.35 -1.1 1.35 -1.2 1.4 -1.2 Q1.45 -1.15 1.5 -1.15 1.55 -1.15 1.55 -1.2 L1.7 -1.05 1.9 -0.9" fill="#3f2472" fill-rule="evenodd" stroke="none"/>
    <path d="M2.2 -0.65 L2.0 -0.6 1.85 -0.6 1.8 -0.65 1.8 -0.75 1.9 -0.75 1.95 -0.8 2.0 -0.85 2.05 -0.9 2.1 -0.85 Q2.15 -0.8 2.2 -0.8 L2.2 -0.65" fill="#30174d" fill-rule="evenodd" stroke="none"/>
    <path d="M1.05 -1.25 L1.1 -1.2 1.15 -1.1 1.15 -1.0 1.05 -1.05 1.05 -1.25" fill="#502787" fill-rule="evenodd" stroke="none"/>
    <path d="M1.25 -0.4 L1.35 -0.45 1.4 -0.5 1.4 -0.35 1.35 -0.35 1.3 -0.35 1.25 -0.4" fill="#6f7572" fill-rule="evenodd" stroke="none"/>
    <path d="M1.1 -0.35 L1.25 -0.4 1.25 -0.4 1.3 -0.35 1.2 -0.3 1.15 -0.25 1.1 -0.3 1.1 -0.35" fill="#97919a" fill-rule="evenodd" stroke="none"/>
    <path d="M1.4 -0.35 L1.5 -0.35 Q1.6 -0.35 1.65 -0.4 L1.65 -0.55 1.7 -0.45 1.75 -0.4 1.85 -0.35 1.85 -0.5 Q1.9 -0.4 2.0 -0.4 L2.1 -0.5 2.15 -0.45 2.2 -0.4 2.2 -0.35 2.1 -0.35 Q2.05 -0.3 2.05 -0.3 L1.9 -0.4 1.95 -0.3 1.9 -0.25 1.85 -0.3 1.75 -0.35 1.7 -0.25 1.65 -0.2 1.6 -0.2 1.6 -0.35 1.55 -0.25 1.45 -0.25 1.35 -0.25 1.2 -0.3 1.35 -0.35 1.4 -0.35" fill="#423084" fill-rule="evenodd" stroke="none"/>
    <path d="M1.05 -0.2 L1.15 -0.25 Q1.2 -0.2 1.3 -0.15 L1.4 -0.1 1.4 -0.15 1.45 -0.15 1.4 -0.05 1.4 0.0 1.4 0.0 1.35 0.1 1.3 0.05 1.25 -0.05 1.15 -0.1 1.05 -0.2" fill="#5142b8" fill-rule="evenodd" stroke="none"/>
    <path d="M1.05 -0.3 L1.1 -0.3 1.15 -0.25 1.05 -0.2 1.05 -0.3 M1.05 -0.2 L1.05 -0.2 M1.15 -0.25 L1.15 -0.25" fill="#b2a4b5" fill-rule="evenodd" stroke="none"/>
    <path d="M1.0 -0.15 L1.05 -0.2 1.05 -0.2 1.15 -0.1 1.25 -0.05 1.3 0.05 1.35 0.1 1.25 0.1 1.25 0.05 1.1 -0.05 1.0 -0.15" fill="#5847cd" fill-rule="evenodd" stroke="none"/>
    <path d="M1.15 -0.25 L1.15 -0.25 1.2 -0.3 1.35 -0.25 1.45 -0.25 1.55 -0.25 1.6 -0.35 1.6 -0.2 1.65 -0.2 1.7 -0.25 1.75 -0.35 1.85 -0.3 1.9 -0.25 1.95 -0.3 1.9 -0.4 2.05 -0.3 Q2.0 -0.3 1.95 -0.25 L1.85 -0.15 1.85 -0.15 1.75 -0.1 1.65 -0.1 1.5 -0.05 1.4 -0.05 1.45 -0.15 1.4 -0.15 1.4 -0.1 1.3 -0.15 Q1.2 -0.2 1.15 -0.25" fill="#463b9b" fill-rule="evenodd" stroke="none"/>
    <path d="M2.05 -0.3 Q2.05 -0.3 2.1 -0.35 L2.2 -0.35 2.2 0.35 2.1 0.4 1.8 0.4 1.55 0.25 1.5 0.15 1.4 0.05 1.45 0.0 1.4 0.0 1.4 -0.05 1.5 -0.05 Q1.5 0.0 1.55 -0.05 L1.65 -0.05 1.8 -0.05 1.85 -0.15 1.85 -0.15 1.95 -0.25 Q2.0 -0.3 2.05 -0.3 M2.1 0.4 L2.05 0.25 2.0 0.15 2.05 0.3 2.1 0.4" fill="#6d30a5" fill-rule="evenodd" stroke="none"/>
    <path d="M1.4 0.0 L1.45 0.0 1.4 0.05 1.4 0.0 1.4 0.0" fill="#9d43f0" fill-rule="evenodd" stroke="none"/>
    <path d="M1.7 -0.45 Q1.85 -0.45 1.8 -0.55 1.85 -0.55 1.9 -0.55 L2.0 -0.55 Q2.0 -0.6 2.05 -0.6 L2.2 -0.6 2.2 -0.4 2.15 -0.45 2.1 -0.5 2.0 -0.4 Q1.9 -0.4 1.85 -0.5 L1.85 -0.35 1.75 -0.4 1.7 -0.45" fill="#432573" fill-rule="evenodd" stroke="none"/>
    <path d="M1.5 -0.05 L1.65 -0.1 1.75 -0.1 1.85 -0.15 1.8 -0.05 1.65 -0.05 1.55 -0.05 Q1.5 0.0 1.5 -0.05" fill="#5e319c" fill-rule="evenodd" stroke="none"/>
    <path d="M1.8 0.4 L2.1 0.4 2.2 0.35 2.2 0.4 Q2.1 0.4 2.1 0.5 L2.1 0.45 1.75 0.4 1.8 0.4" fill="#9b64d2" fill-rule="evenodd" stroke="none"/>
    <path d="M2.2 0.65 L2.05 0.55 1.35 0.4 1.35 0.35 1.4 0.3 1.4 0.25 1.45 0.25 Q1.5 0.3 1.5 0.25 L1.5 0.2 1.55 0.25 1.8 0.4 1.75 0.4 2.1 0.45 2.1 0.5 Q2.1 0.4 2.2 0.4 L2.2 0.65" fill="#753dbd" fill-rule="evenodd" stroke="none"/>
    <path d="M2.1 0.4 L2.05 0.3 2.0 0.15 2.05 0.25 2.1 0.4" fill="#793ac1" fill-rule="evenodd" stroke="none"/>
    <path d="M2.1 0.65 L2.2 0.7 2.15 0.75 2.1 0.65" fill="#8347e1" fill-rule="evenodd" stroke="none"/>
    <path d="M2.2 0.7 L2.2 0.9 2.05 0.95 2.1 0.85 2.15 0.75 2.2 0.7" fill="#5f35a6" fill-rule="evenodd" stroke="none"/>
    <path d="M1.9 0.55 L2.1 0.65 2.15 0.75 2.1 0.85 2.05 0.95 2.0 0.95 1.85 0.95 1.75 1.05 1.65 1.1 1.5 1.2 1.4 1.25 1.35 1.3 1.25 1.3 Q1.15 1.3 1.1 1.35 L1.1 1.4 1.05 1.5 1.05 1.4 1.05 1.25 1.25 1.15 1.25 1.1 1.3 0.95 1.3 0.8 1.35 0.6 1.35 0.55 1.4 0.5 Q1.45 0.5 1.5 0.55 L1.5 0.6 Q1.55 0.55 1.55 0.55 L1.75 0.6 1.9 0.55 M1.5 0.85 L1.35 0.85 1.6 0.95 1.6 0.9 Q1.55 0.85 1.5 0.85" fill="#5541b2" fill-rule="evenodd" stroke="none"/>
    <path d="M2.2 0.9 L2.2 1.25 2.1 1.3 2.0 1.3 1.95 1.3 1.75 1.2 Q1.75 1.15 1.85 1.1 L1.95 1.0 2.0 0.95 2.05 0.95 2.2 0.9" fill="#732ba2" fill-rule="evenodd" stroke="none"/>
    <path d="M2.2 1.25 L2.2 1.75 2.05 1.75 Q1.95 1.75 1.9 1.85 L2.05 1.95 Q2.1 2.0 2.1 2.1 L2.05 2.05 2.05 2.0 1.7 1.8 Q1.6 1.75 1.5 1.75 L1.45 1.7 1.4 1.65 1.35 1.65 1.3 1.65 1.4 1.75 1.25 1.8 1.15 1.9 1.05 1.95 0.95 2.0 0.9 1.85 1.0 1.75 1.1 1.7 1.05 1.65 0.95 1.6 1.0 1.55 1.05 1.5 1.1 1.4 1.1 1.35 Q1.15 1.3 1.25 1.3 L1.35 1.3 1.4 1.3 1.45 1.3 1.7 1.1 Q1.85 1.0 1.95 1.0 L1.85 1.1 Q1.75 1.15 1.75 1.2 L1.95 1.3 2.0 1.3 2.1 1.3 2.2 1.25 M1.2 1.45 Q1.25 1.5 1.25 1.45 L1.2 1.4 Q1.15 1.4 1.15 1.5 L1.2 1.5 1.2 1.45" fill="#6b2fa2" fill-rule="evenodd" stroke="none"/>
    <path d="M2.2 1.75 L2.2 2.2 2.1 2.2 2.15 2.1 2.1 2.1 Q2.1 2.0 2.05 1.95 L1.9 1.85 Q1.95 1.75 2.05 1.75 L2.2 1.75" fill="#5e37a3" fill-rule="evenodd" stroke="none"/>
    <path d="M2.1 2.2 L2.0 2.2 Q1.95 2.15 1.9 2.15 L2.05 2.0 2.05 2.05 2.1 2.1 2.15 2.1 2.1 2.2" fill="#6b33a4" fill-rule="evenodd" stroke="none"/>
    <path d="M1.3 0.45 L1.9 0.55 1.75 0.6 1.55 0.55 Q1.55 0.55 1.5 0.6 L1.5 0.55 Q1.45 0.5 1.4 0.5 L1.35 0.55 1.35 0.6 1.3 0.45" fill="#803bc4" fill-rule="evenodd" stroke="none"/>
    <path d="M1.25 0.1 L1.35 0.1 1.4 0.15 1.35 0.15 1.25 0.1" fill="#e0b1ff" fill-rule="evenodd" stroke="none"/>
    <path d="M1.4 0.05 L1.5 0.15 1.4 0.15 1.35 0.1 1.4 0.0 1.4 0.05" fill="#7f35c3" fill-rule="evenodd" stroke="none"/>
    <path d="M1.4 0.3 L1.35 0.35 1.35 0.15 1.4 0.3" fill="#bb70ef" fill-rule="evenodd" stroke="none"/>
    <path d="M1.35 0.4 L1.2 0.35 1.15 0.3 1.2 0.1 1.25 0.1 1.35 0.15 1.35 0.35 1.35 0.4" fill="#7940d9" fill-rule="evenodd" stroke="none"/>
    <path d="M1.35 0.15 L1.4 0.15 1.5 0.2 1.5 0.25 Q1.5 0.3 1.45 0.25 L1.4 0.25 1.4 0.3 1.35 0.15" fill="#8132c3" fill-rule="evenodd" stroke="none"/>
    <path d="M1.5 0.15 L1.55 0.25 1.5 0.2 1.4 0.15 1.5 0.15" fill="#c995ee" fill-rule="evenodd" stroke="none"/>
    <path d="M1.25 0.05 L1.25 0.1 1.2 0.1 1.05 0.05 1.15 0.05 1.25 0.05" fill="#e8afff" fill-rule="evenodd" stroke="none"/>
    <path d="M0.95 0.05 L1.05 0.05 1.2 0.1 1.15 0.3 1.05 0.3 0.95 0.25 0.85 0.15 0.95 0.05" fill="#7858fc" fill-rule="evenodd" stroke="none"/>
    <path d="M1.2 0.35 L1.05 0.3 1.15 0.3 1.2 0.35" fill="#9747fc" fill-rule="evenodd" stroke="none"/>
    <path d="M1.2 0.4 L1.3 0.45 Q1.15 0.5 1.2 0.6 L1.1 0.55 1.05 0.6 1.05 0.65 1.0 0.55 1.1 0.4 1.15 0.45 1.2 0.4" fill="#7446e6" fill-rule="evenodd" stroke="none"/>
    <path d="M0.95 0.3 L1.2 0.4 1.15 0.45 1.1 0.4 0.9 0.4 0.9 0.35 0.95 0.3" fill="#964cfe" fill-rule="evenodd" stroke="none"/>
    <path d="M1.05 0.6 L1.1 0.55 1.2 0.6 Q1.15 0.5 1.3 0.45 L1.3 0.7 1.05 0.6" fill="#643fc5" fill-rule="evenodd" stroke="none"/>
    <path d="M1.1 0.4 L1.0 0.55 0.95 0.6 0.9 0.55 0.9 0.4 1.1 0.4" fill="#7457fd" fill-rule="evenodd" stroke="none"/>
    <path d="M1.35 0.6 L1.3 0.8 1.3 0.95 1.3 0.8 1.3 0.7 1.3 0.45 1.35 0.6" fill="#9061dd" fill-rule="evenodd" stroke="none"/>
    <path d="M1.05 0.6 L1.3 0.7 1.3 0.8 1.15 0.8 Q1.1 0.85 1.05 0.9 L1.0 0.9 1.0 0.95 Q0.95 1.0 0.95 1.05 L1.0 1.1 1.05 1.15 1.05 1.2 1.0 1.2 0.95 1.15 0.95 1.2 0.85 1.2 0.85 1.25 0.9 1.35 0.8 1.35 0.7 1.3 0.7 1.4 0.65 1.3 Q0.6 1.3 0.6 1.3 L0.55 1.35 Q0.55 1.3 0.45 1.3 L0.35 1.25 0.5 1.15 0.55 1.15 0.6 1.15 0.6 1.2 0.65 1.2 0.6 1.1 0.7 1.05 0.8 1.1 Q0.75 1.0 0.8 0.95 L0.85 0.9 Q0.9 0.95 0.9 0.9 0.9 0.85 0.9 0.9 L0.95 0.95 0.95 0.8 1.0 0.75 1.05 0.65 1.05 0.6" fill="#584bcb" fill-rule="evenodd" stroke="none"/>
    <path d="M1.5 0.85 Q1.55 0.85 1.6 0.9 L1.6 0.95 1.35 0.85 1.5 0.85" fill="#584cc6" fill-rule="evenodd" stroke="none"/>
    <path d="M1.0 0.55 L1.05 0.65 1.0 0.75 0.95 0.8 0.9 0.85 0.9 0.75 0.85 0.8 0.8 0.7 Q0.9 0.6 0.95 0.7 L0.95 0.6 1.0 0.55" fill="#6458f5" fill-rule="evenodd" stroke="none"/>
    <path d="M1.25 1.1 L1.25 1.15 1.05 1.25 1.05 1.2 1.05 1.15 1.0 1.1 0.95 1.05 Q0.95 1.0 1.0 0.95 L1.0 0.9 1.05 0.9 Q1.1 0.85 1.15 0.8 L1.3 0.8 1.3 0.95 1.25 1.05 1.2 1.15 1.25 1.1 M1.0 0.95 L1.0 1.05 1.05 1.05 1.0 0.95" fill="#653eb7" fill-rule="evenodd" stroke="none"/>
    <path d="M1.3 0.95 L1.25 1.1 1.2 1.15 1.25 1.05 1.3 0.95" fill="#905ece" fill-rule="evenodd" stroke="none"/>
    <path d="M1.05 1.4 L1.05 1.5 0.95 1.55 0.9 1.55 0.85 1.6 0.85 1.7 0.8 1.65 0.65 1.7 0.55 1.75 0.5 1.65 0.45 1.5 0.4 1.5 0.35 1.45 0.25 1.45 0.6 1.5 0.7 1.45 0.75 1.55 0.75 1.35 0.85 1.45 0.9 1.35 0.85 1.25 0.85 1.2 0.95 1.2 0.95 1.15 1.0 1.2 1.05 1.2 1.05 1.25 1.0 1.3 1.05 1.4" fill="#4a49b6" fill-rule="evenodd" stroke="none"/>
    <path d="M1.95 1.0 Q1.85 1.0 1.7 1.1 L1.45 1.3 1.4 1.3 1.35 1.3 1.4 1.25 1.5 1.2 1.65 1.1 1.75 1.05 1.85 0.95 2.0 0.95 1.95 1.0" fill="#5a3aa9" fill-rule="evenodd" stroke="none"/>
    <path d="M1.05 0.3 L0.85 0.2 0.8 0.15 0.85 0.1 0.95 0.05 0.85 0.15 0.95 0.25 1.05 0.3" fill="#c468ff" fill-rule="evenodd" stroke="none"/>
    <path d="M0.8 0.25 L0.9 0.3 0.75 0.35 0.7 0.45 0.65 0.5 0.65 0.45 0.7 0.4 0.7 0.35 0.75 0.3 0.8 0.25" fill="#d677ff" fill-rule="evenodd" stroke="none"/>
    <path d="M0.65 0.25 L0.8 0.25 0.75 0.3 0.6 0.3 0.65 0.25" fill="#fe49ff" fill-rule="evenodd" stroke="none"/>
    <path d="M0.85 0.2 L0.7 0.2 0.8 0.15 0.85 0.2" fill="#f55bff" fill-rule="evenodd" stroke="none"/>
    <path d="M0.75 0.3 L0.7 0.35 0.7 0.4 0.6 0.45 0.5 0.45 0.4 0.5 0.25 0.5 0.3 0.5 0.5 0.4 0.6 0.3 0.75 0.3" fill="#fd74ff" fill-rule="evenodd" stroke="none"/>
    <path d="M0.1 0.15 Q0.15 0.15 0.15 0.2 L0.2 0.25 Q0.15 0.3 0.2 0.3 L0.25 0.3 0.25 0.25 0.3 0.2 Q0.25 0.35 0.3 0.35 L0.35 0.25 0.5 0.25 0.65 0.25 0.6 0.3 0.45 0.4 0.25 0.45 0.15 0.4 0.05 0.4 0.0 0.3 -0.05 0.2 0.0 0.2 0.05 0.25 0.15 0.35 0.15 0.25 0.1 0.15" fill="#ff17ff" fill-rule="evenodd" stroke="none"/>
    <path d="M0.9 0.3 L0.95 0.3 0.9 0.35 Q0.85 0.35 0.85 0.35 L0.85 0.4 0.7 0.55 0.65 0.5 0.7 0.45 0.75 0.35 0.9 0.3" fill="#b37bff" fill-rule="evenodd" stroke="none"/>
    <path d="M0.65 0.5 L0.55 0.6 Q0.5 0.6 0.5 0.7 L0.4 0.65 0.3 0.7 0.25 0.7 0.25 0.65 0.35 0.65 0.5 0.6 0.65 0.5" fill="#c797ff" fill-rule="evenodd" stroke="none"/>
    <path d="M0.25 0.7 L0.3 0.7 0.4 0.65 0.5 0.7 Q0.5 0.6 0.55 0.6 L0.65 0.5 0.7 0.55 0.6 0.6 Q0.55 0.65 0.55 0.7 L0.55 0.75 0.5 0.7 0.4 0.7 Q0.4 0.7 0.35 0.75 L0.35 0.8 Q0.3 0.75 0.2 0.75 L0.05 0.7 0.05 0.8 0.0 0.85 0.0 0.7 Q0.05 0.7 0.1 0.7 L0.25 0.7" fill="#a890ff" fill-rule="evenodd" stroke="none"/>
    <path d="M0.65 0.45 L0.65 0.5 0.5 0.6 0.35 0.65 Q0.4 0.6 0.5 0.55 L0.65 0.45" fill="#ec99ff" fill-rule="evenodd" stroke="none"/>
    <path d="M0.7 0.4 L0.65 0.45 0.5 0.55 Q0.4 0.6 0.35 0.65 L0.25 0.65 0.15 0.65 0.0 0.6 Q0.05 0.55 0.0 0.45 L-0.1 0.3 Q-0.1 0.25 -0.15 0.25 -0.2 0.2 -0.2 0.25 L-0.25 0.2 -0.15 0.2 -0.1 0.2 Q-0.05 0.35 0.05 0.4 0.15 0.5 0.25 0.5 L0.4 0.5 0.5 0.45 0.6 0.45 0.7 0.4 M-0.2 0.25 L-0.2 0.25" fill="#fd88ff" fill-rule="evenodd" stroke="none"/>
    <path d="M0.9 0.55 L0.95 0.6 0.95 0.7 Q0.9 0.6 0.8 0.7 L0.65 0.75 Q0.6 0.8 0.65 0.9 L0.55 0.85 Q0.5 0.85 0.45 0.9 L0.45 0.85 0.6 0.75 0.75 0.7 Q0.8 0.55 0.9 0.5 L0.9 0.55" fill="#706cff" fill-rule="evenodd" stroke="none"/>
    <path d="M0.9 0.4 L0.9 0.55 0.9 0.5 0.85 0.5 0.55 0.7 Q0.55 0.65 0.6 0.6 L0.7 0.55 0.85 0.4 0.85 0.35 Q0.85 0.35 0.9 0.35 L0.9 0.4" fill="#977aff" fill-rule="evenodd" stroke="none"/>
    <path d="M0.55 0.75 L0.55 0.7 0.85 0.5 0.9 0.5 Q0.8 0.55 0.75 0.7 L0.6 0.75 0.45 0.85 Q0.4 0.8 0.45 0.75 L0.55 0.75" fill="#7f76ff" fill-rule="evenodd" stroke="none"/>
    <path d="M-0.1 0.05 L0.1 0.15 0.15 0.25 0.15 0.35 0.05 0.25 0.0 0.2 -0.05 0.2 Q-0.05 0.15 -0.1 0.05" fill="#ff2cff" fill-rule="evenodd" stroke="none"/>
    <path d="M0.6 0.3 L0.5 0.4 0.3 0.5 0.05 0.4 0.15 0.4 0.25 0.45 0.45 0.4 0.6 0.3" fill="#ff49ff" fill-rule="evenodd" stroke="none"/>
    <path d="M-0.15 0.05 L-0.1 0.05 Q-0.05 0.15 -0.05 0.2 L0.0 0.3 0.05 0.4 0.3 0.5 0.25 0.5 Q0.15 0.5 0.05 0.4 -0.05 0.35 -0.1 0.2 L-0.15 0.15 Q-0.2 0.1 -0.15 0.05" fill="#ff5fff" fill-rule="evenodd" stroke="none"/>
    <path d="M0.05 0.8 L0.05 0.7 0.2 0.75 Q0.3 0.75 0.35 0.8 L0.35 0.75 Q0.4 0.7 0.4 0.7 L0.5 0.7 0.55 0.75 0.45 0.75 Q0.4 0.8 0.45 0.85 L0.45 0.9 0.5 1.0 0.45 0.95 0.4 0.9 Q0.35 0.8 0.25 0.85 L0.15 0.8 0.05 0.8" fill="#8889ff" fill-rule="evenodd" stroke="none"/>
    <path d="M0.0 0.7 L0.0 0.85 0.05 0.8 0.15 0.8 0.25 0.85 Q0.35 0.8 0.4 0.9 L0.25 0.9 0.15 0.9 0.1 0.9 Q0.05 0.85 0.0 0.9 0.0 0.85 -0.1 0.8 -0.15 0.8 -0.2 0.85 L-0.2 0.65 Q-0.2 0.65 -0.1 0.7 L0.0 0.7" fill="#767cff" fill-rule="evenodd" stroke="none"/>
    <path d="M0.6 1.1 L0.65 1.2 0.6 1.2 0.6 1.15 0.55 1.15 0.5 1.15 0.45 1.05 0.4 1.1 0.4 1.15 0.35 1.05 0.2 1.1 0.05 1.1 -0.1 1.05 Q-0.2 1.0 -0.2 0.95 L-0.25 1.0 -0.25 0.85 -0.25 0.65 -0.2 0.65 -0.2 0.85 Q-0.15 0.8 -0.1 0.8 0.0 0.85 0.0 0.9 0.05 0.85 0.1 0.9 L0.15 0.9 0.25 0.9 0.4 0.9 0.45 0.95 0.5 1.0 0.45 0.9 Q0.5 0.85 0.55 0.85 L0.65 0.9 Q0.6 0.8 0.65 0.75 L0.8 0.7 0.85 0.8 0.7 0.85 Q0.65 0.9 0.7 1.0 L0.6 0.95 Q0.55 0.95 0.55 1.0 L0.55 1.05 0.6 1.1" fill="#5d64fc" fill-rule="evenodd" stroke="none"/>
    <path d="M0.25 0.65 L0.25 0.7 0.1 0.7 Q0.05 0.7 0.0 0.7 0.0 0.65 -0.1 0.55 L-0.05 0.55 0.0 0.6 0.15 0.65 0.25 0.65" fill="#d191ff" fill-rule="evenodd" stroke="none"/>
    <path d="M-0.25 1.0 L-0.2 0.95 Q-0.2 1.0 -0.1 1.05 L0.05 1.1 0.2 1.1 0.35 1.05 0.4 1.15 0.3 1.2 0.2 1.3 0.15 1.3 0.1 1.25 0.0 1.2 -0.05 1.2 -0.15 1.15 -0.2 1.15 -0.25 1.0 -0.25 1.0 -0.25 1.0" fill="#4c5fe9" fill-rule="evenodd" stroke="none"/>
    <path d="M0.5 1.15 L0.35 1.25 0.2 1.3 0.3 1.2 0.4 1.15 0.4 1.1 0.45 1.05 0.5 1.15" fill="#5155db" fill-rule="evenodd" stroke="none"/>
    <path d="M0.95 0.8 L0.95 0.95 0.9 0.9 Q0.9 0.85 0.9 0.9 0.9 0.95 0.85 0.9 L0.8 0.95 Q0.75 1.0 0.8 1.1 L0.7 1.05 0.6 1.1 0.55 1.05 0.55 1.0 Q0.55 0.95 0.6 0.95 L0.7 1.0 Q0.65 0.9 0.7 0.85 L0.85 0.8 0.9 0.75 0.9 0.85 0.95 0.8" fill="#5358e7" fill-rule="evenodd" stroke="none"/>
    <path d="M1.0 0.95 L1.05 1.05 1.0 1.05 1.0 0.95" fill="#7e48df" fill-rule="evenodd" stroke="none"/>
    <path d="M0.35 1.25 L0.45 1.3 Q0.55 1.3 0.55 1.35 L0.6 1.3 Q0.6 1.3 0.65 1.3 L0.7 1.4 0.7 1.3 0.8 1.35 0.9 1.35 0.85 1.45 0.75 1.35 0.75 1.55 0.7 1.45 0.6 1.5 0.25 1.45 0.15 1.35 0.15 1.3 0.2 1.3 0.35 1.25" fill="#4b51c7" fill-rule="evenodd" stroke="none"/>
    <path d="M0.35 1.45 L0.4 1.5 0.45 1.5 0.5 1.65 0.55 1.75 0.65 1.7 0.8 1.65 0.85 1.7 0.85 1.6 0.9 1.55 0.95 1.55 0.9 1.65 0.85 1.7 0.95 1.75 0.85 1.75 Q0.85 1.85 0.65 1.9 L0.55 1.8 0.35 1.7 0.35 1.65 0.4 1.6 0.35 1.55 0.35 1.45" fill="#563dab" fill-rule="evenodd" stroke="none"/>
    <path d="M0.85 1.85 Q0.85 1.8 0.9 1.85 L0.9 1.95 0.9 1.95 0.85 1.85" fill="#8c39cd" fill-rule="evenodd" stroke="none"/>
    <path d="M0.55 2.2 L-0.1 2.2 0.0 2.1 -0.15 2.0 -0.2 1.9 -0.15 1.8 Q-0.1 1.8 -0.05 1.9 L-0.05 2.0 0.0 1.85 Q0.05 1.8 0.15 1.85 L0.1 1.75 0.15 1.7 0.15 1.6 0.2 1.55 0.25 1.7 Q0.25 1.75 0.2 1.8 L0.35 1.85 0.45 1.8 0.35 1.8 Q0.35 1.75 0.35 1.7 L0.55 1.8 0.65 1.9 Q0.85 1.85 0.85 1.75 L0.95 1.75 0.85 1.7 0.9 1.65 0.95 1.55 1.05 1.5 1.0 1.55 0.95 1.6 1.05 1.65 1.1 1.7 1.0 1.75 0.9 1.85 Q0.85 1.8 0.85 1.85 L0.75 1.9 Q0.65 1.95 0.7 2.0 L0.75 2.05 0.8 2.05 0.75 2.1 0.7 2.1 0.6 2.1 0.55 2.2 M0.2 2.05 L0.15 2.0 0.1 2.0 Q0.1 2.0 0.15 2.05 L0.2 2.05" fill="#6535a8" fill-rule="evenodd" stroke="none"/>
    <path d="M0.0 1.2 L-0.05 1.3 0.05 1.25 0.1 1.35 0.0 1.35 -0.1 1.35 -0.2 1.35 -0.25 1.25 -0.35 1.15 -0.35 1.1 -0.25 1.1 -0.2 1.25 -0.1 1.25 -0.15 1.15 -0.05 1.2 0.0 1.2" fill="#5b3e43" fill-rule="evenodd" stroke="none"/>
    <path d="M0.15 1.35 L0.05 1.4 -0.1 1.35 0.0 1.35 0.1 1.35 0.05 1.25 -0.05 1.3 0.0 1.2 0.1 1.25 0.15 1.3 0.15 1.35" fill="#7f585e" fill-rule="evenodd" stroke="none"/>
    <path d="M0.25 1.45 L0.35 1.45 0.35 1.55 0.4 1.6 0.35 1.65 0.35 1.7 Q0.35 1.75 0.35 1.8 L0.45 1.8 0.35 1.85 0.2 1.8 Q0.25 1.75 0.25 1.7 L0.2 1.55 0.15 1.6 0.1 1.55 0.0 1.5 -0.05 1.55 -0.15 1.55 -0.1 1.45 0.05 1.4 0.15 1.35 0.25 1.45" fill="#613db2" fill-rule="evenodd" stroke="none"/>
    <path d="M-0.15 1.55 L-0.05 1.55 0.0 1.5 0.1 1.55 0.15 1.6 0.15 1.7 0.1 1.75 0.15 1.85 Q0.05 1.8 0.0 1.85 L-0.05 2.0 -0.05 1.9 Q-0.1 1.8 -0.15 1.8 L-0.15 1.75 -0.1 1.75 -0.05 1.8 Q0.05 1.7 -0.05 1.65 L-0.1 1.75 -0.15 1.7 Q-0.15 1.7 -0.2 1.65 L-0.25 1.6 -0.2 1.6 -0.15 1.55" fill="#6f35af" fill-rule="evenodd" stroke="none"/>
    <path d="M0.2 2.05 L0.15 2.05 Q0.1 2.0 0.1 2.0 L0.15 2.0 0.2 2.05" fill="#7840c7" fill-rule="evenodd" stroke="none"/>
    <path d="M2.0 2.2 L0.55 2.2 0.6 2.1 0.7 2.1 0.75 2.1 0.8 2.05 0.75 2.05 0.7 2.0 Q0.65 1.95 0.75 1.9 L0.85 1.85 0.9 1.95 0.9 1.95 0.9 1.85 0.95 2.0 1.05 1.95 1.15 1.9 1.25 1.8 1.4 1.75 1.45 1.75 1.5 1.75 1.6 1.8 1.7 1.8 2.05 2.0 1.9 2.15 Q1.95 2.15 2.0 2.2" fill="#702da2" fill-rule="evenodd" stroke="none"/>
    <path d="M1.5 1.75 Q1.6 1.75 1.7 1.8 L1.6 1.8 1.5 1.75" fill="#8440b5" fill-rule="evenodd" stroke="none"/>
    <path d="M1.05 1.25 L1.05 1.4 1.0 1.3 1.05 1.25" fill="#906bde" fill-rule="evenodd" stroke="none"/>
    <path d="M1.2 1.45 L1.2 1.5 1.15 1.5 Q1.15 1.4 1.2 1.4 L1.25 1.45 Q1.25 1.5 1.2 1.45" fill="#8339c6" fill-rule="evenodd" stroke="none"/>
    <path d="M1.4 1.75 L1.3 1.65 1.35 1.65 1.4 1.65 1.45 1.7 1.5 1.75 1.45 1.75 1.4 1.75" fill="#9444ce" fill-rule="evenodd" stroke="none"/>
    <path d="M-1.25 -2.2 Q-1.3 -2.1 -1.25 -2.1 L-1.15 -2.1 -1.1 -2.1 -1.0 -1.95 -0.95 -1.8 -0.9 -1.7 -0.9 -1.65 -0.95 -1.6 -1.0 -1.55 -1.05 -1.5 -1.1 -1.5 -1.15 -1.5 -1.3 -1.35 -1.4 -1.2 -1.5 -1.05 -1.55 -1.05 -1.6 -0.95 -1.65 -0.85 -1.75 -0.95 -1.85 -1.0 -1.8 -0.9 -1.8 -0.85 -1.85 -0.85 -1.95 -0.85 -1.95 -0.8 -2.0 -0.75 Q-2.0 -0.75 -2.05 -0.8 L-2.05 -0.8 -2.05 -0.85 -2.05 -1.0 -2.1 -1.15 -2.1 -1.25 -2.15 -1.4 -2.2 -1.5 -2.2 -2.2 -1.25 -2.2 M-2.05 -0.85 L-2.05 -0.85" fill="#1e0b29" fill-rule="evenodd" stroke="none"/>
    <path d="M-2.2 -0.1 L-2.2 -1.5 -2.15 -1.4 -2.1 -1.25 -2.1 -1.15 -2.1 -1.0 -2.05 -0.85 -2.05 -0.8 -2.05 -0.7 Q-2.05 -0.65 -2.0 -0.7 L-1.95 -0.55 -1.9 -0.45 -1.75 -0.45 -1.65 -0.45 -1.55 -0.3 Q-1.55 -0.25 -1.45 -0.2 L-1.35 -0.05 -1.4 0.05 Q-1.4 0.15 -1.5 0.15 L-1.55 0.0 -1.55 0.0 -1.55 0.1 -1.7 0.0 -1.75 -0.2 -1.8 -0.1 -1.9 -0.05 -2.05 -0.1 -2.2 -0.1 M-2.05 -0.85 L-2.05 -0.85 M-1.95 -0.15 L-1.95 -0.3 -2.0 -0.25 -1.95 -0.15" fill="#411a58" fill-rule="evenodd" stroke="none"/>
    <path d="M-2.1 -1.15 L-2.05 -1.0 -2.05 -0.85 -2.1 -1.0 -2.1 -1.15" fill="#fcd7ff" fill-rule="evenodd" stroke="none"/>
    <path d="M-2.05 -0.85 L-2.05 -0.8 -2.05 -0.85 M-2.0 -0.7 Q-2.05 -0.65 -2.05 -0.7 L-2.05 -0.8 -2.0 -0.7" fill="#c062e3" fill-rule="evenodd" stroke="none"/>
    <path d="M-2.05 -0.8 L-2.05 -0.8 Q-2.0 -0.75 -2.0 -0.75 L-1.95 -0.8 -1.95 -0.85 -1.85 -0.85 -1.8 -0.85 -1.8 -0.9 -1.85 -1.0 -1.75 -0.95 -1.65 -0.85 -1.75 -0.7 Q-1.75 -0.65 -1.7 -0.55 L-1.7 -0.5 -1.65 -0.45 -1.75 -0.45 -1.9 -0.45 -1.95 -0.55 -2.0 -0.7 -2.05 -0.8" fill="#301241" fill-rule="evenodd" stroke="none"/>
    <path d="M-2.2 -0.05 L-2.2 -0.1 -2.05 -0.1 -1.9 -0.05 -1.8 -0.1 -1.75 -0.2 -1.7 0.0 -1.55 0.1 -1.55 0.0 -1.55 0.0 -1.5 0.15 Q-1.4 0.15 -1.4 0.05 L-1.35 -0.05 -1.3 0.05 -1.25 0.15 -1.2 0.2 -1.35 0.15 Q-1.35 0.2 -1.4 0.2 L-1.5 0.15 -1.5 0.2 -1.6 0.25 -1.6 0.15 Q-1.65 0.15 -1.7 0.15 L-1.65 0.2 -1.7 0.2 -1.75 0.15 -1.8 0.1 -1.8 0.05 -1.8 0.0 -2.0 -0.05 -2.2 -0.05" fill="#431e65" fill-rule="evenodd" stroke="none"/>
    <path d="M-0.9 -2.2 L-0.85 -2.05 Q-0.85 -2.0 -0.9 -2.05 L-0.9 -2.2 -0.9 -2.2" fill="#531e71" fill-rule="evenodd" stroke="none"/>
    <path d="M-0.6 -1.5 L-0.65 -1.55 -0.65 -1.6 -0.55 -1.55 -0.5 -1.6 -0.45 -1.6 -0.35 -1.6 -0.35 -1.55 -0.4 -1.55 -0.5 -1.55 -0.35 -1.5 -0.35 -1.4 -0.4 -1.45 -0.45 -1.4 -0.45 -1.4 -0.4 -1.35 Q-0.35 -1.4 -0.3 -1.3 L-0.35 -1.3 -0.4 -1.3 -0.5 -1.3 -0.45 -1.25 -0.35 -1.25 -0.35 -1.2 -0.45 -1.25 -0.5 -1.25 -0.55 -1.3 -0.6 -1.35 -0.55 -1.4 Q-0.5 -1.45 -0.55 -1.45 L-0.55 -1.5 -0.6 -1.5" fill="#413530" fill-rule="evenodd" stroke="none"/>
    <path d="M-0.65 -1.6 L-0.3 -1.6 -0.35 -1.6 -0.45 -1.6 -0.5 -1.6 -0.55 -1.55 -0.65 -1.6" fill="#7b8285" fill-rule="evenodd" stroke="none"/>
    <path d="M-0.9 -1.65 L-0.9 -1.65 -0.85 -1.45 -0.8 -1.25 -0.85 -1.25 -0.85 -1.3 -0.9 -1.3 -0.9 -1.4 -0.9 -1.5 Q-0.9 -1.6 -0.95 -1.6 L-0.9 -1.65 M-0.8 -1.25 L-0.8 -1.25 -0.8 -1.25" fill="#775647" fill-rule="evenodd" stroke="none"/>
    <path d="M-0.9 -1.65 L-0.85 -1.6 -0.8 -1.55 -0.8 -1.45 -0.8 -1.35 -0.8 -1.3 -0.8 -1.25 -0.85 -1.45 -0.9 -1.65" fill="#f9efe0" fill-rule="evenodd" stroke="none"/>
    <path d="M-0.85 -1.6 L-0.7 -1.55 Q-0.65 -1.5 -0.6 -1.5 L-0.55 -1.5 -0.55 -1.45 -0.6 -1.45 -0.65 -1.4 -0.65 -1.4 -0.8 -1.35 -0.8 -1.45 -0.75 -1.4 -0.8 -1.55 -0.85 -1.6" fill="#6a4c38" fill-rule="evenodd" stroke="none"/>
    <path d="M-1.15 -1.5 L-1.1 -1.5 -1.05 -1.5 -1.0 -1.55 -0.95 -1.6 Q-0.9 -1.6 -0.9 -1.5 L-0.9 -1.4 -0.95 -1.45 -1.0 -1.5 Q-1.0 -1.45 -1.05 -1.4 -1.05 -1.35 -1.1 -1.35 L-1.15 -1.45 -1.15 -1.5" fill="#442c28" fill-rule="evenodd" stroke="none"/>
    <path d="M-1.4 -1.2 L-1.3 -1.35 -1.15 -1.5 -1.15 -1.45 -1.1 -1.35 Q-1.05 -1.35 -1.05 -1.4 -1.0 -1.45 -1.0 -1.5 L-0.95 -1.45 -0.9 -1.4 -0.9 -1.3 -0.9 -1.25 -1.1 -1.25 -1.25 -1.3 -1.3 -1.25 -1.35 -1.15 -1.4 -1.2" fill="#503d31" fill-rule="evenodd" stroke="none"/>
    <path d="M-0.9 -1.3 L-0.85 -1.3 -0.85 -1.25 -0.85 -1.2 -0.9 -1.1 -0.9 -1.25 -0.9 -1.3" fill="#fff2b8" fill-rule="evenodd" stroke="none"/>
    <path d="M-0.8 -1.3 L-0.8 -1.35 -0.65 -1.4 -0.7 -1.3 -0.7 -1.15 -0.7 -1.1 -0.75 -1.05 -0.8 -1.2 Q-0.7 -1.15 -0.75 -1.2 L-0.8 -1.3 M-0.75 -1.05 L-0.75 -1.05" fill="#b99561" fill-rule="evenodd" stroke="none"/>
    <path d="M-0.8 -1.25 L-0.8 -1.3 -0.75 -1.2 Q-0.7 -1.15 -0.8 -1.2 L-0.8 -1.25" fill="#47322b" fill-rule="evenodd" stroke="none"/>
    <path d="M-0.85 -1.25 L-0.8 -1.25 -0.8 -1.1 -0.85 -1.05 -0.85 -1.1 -0.9 -1.1 -0.85 -1.2 -0.85 -1.25 M-0.9 -1.1 L-0.9 -1.1" fill="#78423d" fill-rule="evenodd" stroke="none"/>
    <path d="M-0.8 -1.25 L-0.8 -1.25 -0.8 -1.2 -0.75 -1.05 -0.75 -1.0 -0.7 -0.95 -0.7 -0.85 -0.7 -0.8 -0.75 -0.95 Q-0.75 -1.0 -0.8 -1.05 -0.75 -1.1 -0.8 -1.1 L-0.8 -1.25" fill="#fdeeeb" fill-rule="evenodd" stroke="none"/>
    <path d="M-0.55 -1.45 Q-0.5 -1.45 -0.55 -1.4 L-0.6 -1.35 -0.55 -1.3 -0.6 -1.25 -0.65 -1.35 -0.65 -1.4 -0.6 -1.45 -0.55 -1.45" fill="#83787f" fill-rule="evenodd" stroke="none"/>
    <path d="M-0.7 -1.15 L-0.7 -1.3 -0.65 -1.4 -0.65 -1.35 -0.7 -1.25 -0.7 -1.15 -0.7 -1.15 M-0.65 -1.4 L-0.65 -1.4" fill="#7f6551" fill-rule="evenodd" stroke="none"/>
    <path d="M-0.65 -1.35 L-0.6 -1.25 -0.6 -1.2 -0.65 -1.15 -0.7 -1.15 -0.7 -1.25 -0.65 -1.35 M-0.65 -1.15 L-0.65 -1.15" fill="#6a4a4b" fill-rule="evenodd" stroke="none"/>
    <path d="M-0.55 -1.3 L-0.5 -1.25 Q-0.55 -1.2 -0.5 -1.2 L-0.45 -1.2 -0.5 -1.15 -0.55 -1.15 -0.6 -1.15 -0.65 -1.15 -0.6 -1.2 -0.6 -1.25 -0.55 -1.3" fill="#b19b8f" fill-rule="evenodd" stroke="none"/>
    <path d="M-0.8 -1.45 L-0.8 -1.55 -0.75 -1.4 -0.8 -1.45" fill="#a6775b" fill-rule="evenodd" stroke="none"/>
    <path d="M-0.3 -1.6 L-0.25 -1.6 -0.25 -1.55 -0.3 -1.55 -0.35 -1.55 -0.35 -1.6 -0.3 -1.6" fill="#5a6063" fill-rule="evenodd" stroke="none"/>
    <path d="M-0.25 -1.4 L-0.35 -1.45 -0.25 -1.5 -0.25 -1.4" fill="#807974" fill-rule="evenodd" stroke="none"/>
    <path d="M-0.45 -1.4 L-0.25 -1.4 Q-0.2 -1.4 -0.25 -1.35 L-0.3 -1.3 Q-0.35 -1.4 -0.4 -1.35 L-0.45 -1.4 -0.45 -1.4 M-0.3 -1.3 L-0.3 -1.3" fill="#6b6a66" fill-rule="evenodd" stroke="none"/>
    <path d="M-0.3 -1.3 L-0.25 -1.25 -0.3 -1.2 -0.35 -1.2 -0.35 -1.25 -0.35 -1.3 -0.3 -1.3 -0.3 -1.3" fill="#1e1112" fill-rule="evenodd" stroke="none"/>
    <path d="M-0.35 -1.25 L-0.45 -1.25 -0.5 -1.3 -0.4 -1.3 -0.35 -1.3 -0.35 -1.25" fill="#6f4948" fill-rule="evenodd" stroke="none"/>
    <path d="M-1.35 -1.15 L-1.3 -1.25 -1.25 -1.3 -1.1 -1.25 -0.9 -1.25 -0.9 -1.1 -0.9 -1.05 -0.95 -1.0 -1.0 -1.05 -1.0 -1.1 Q-1.05 -1.2 -1.1 -1.25 L-1.15 -1.2 -1.2 -1.15 -1.15 -1.05 -1.1 -1.0 -1.05 -0.95 -1.0 -0.9 -1.05 -0.85 Q-1.05 -0.8 -1.15 -0.8 L-1.1 -0.75 -1.0 -0.75 -1.0 -0.7 -1.15 -0.7 -1.15 -0.8 -1.2 -0.9 -1.2 -0.75 -1.2 -0.75 -1.25 -0.7 -1.35 -0.65 -1.35 -0.8 -1.2 -0.9 -1.25 -0.95 -1.3 -0.95 Q-1.3 -0.9 -1.3 -0.9 L-1.35 -0.95 -1.4 -1.0 -1.45 -1.05 -1.35 -1.15 M-1.3 -0.8 L-1.3 -0.75 -1.25 -0.8 -1.2 -0.85 -1.25 -0.85 -1.3 -0.8" fill="#a08153" fill-rule="evenodd" stroke="none"/>
    <path d="M-1.2 -1.15 L-1.15 -1.2 -1.1 -1.25 Q-1.05 -1.2 -1.0 -1.1 L-1.05 -1.1 -1.05 -1.0 -1.0 -1.05 -0.95 -1.0 Q-1.0 -0.95 -1.05 -0.95 L-1.1 -1.0 Q-1.05 -1.0 -1.1 -1.05 L-1.15 -1.15 -1.2 -1.15" fill="#92754d" fill-rule="evenodd" stroke="none"/>
    <path d="M-1.1 -1.0 L-1.15 -1.05 -1.2 -1.15 -1.15 -1.15 -1.1 -1.05 Q-1.05 -1.0 -1.1 -1.0" fill="#7e664a" fill-rule="evenodd" stroke="none"/>
    <path d="M-1.0 -1.1 L-1.0 -1.05 -1.05 -1.0 -1.05 -1.1 -1.0 -1.1" fill="#786146" fill-rule="evenodd" stroke="none"/>
    <path d="M-1.5 -1.05 L-1.4 -1.2 -1.35 -1.15 -1.45 -1.05 -1.5 -1.05" fill="#6d503a" fill-rule="evenodd" stroke="none"/>
    <path d="M-1.55 -1.05 L-1.5 -1.05 -1.45 -1.05 -1.4 -1.0 -1.35 -0.95 -1.4 -0.8 -1.35 -0.7 -1.4 -0.7 -1.4 -0.75 Q-1.5 -0.75 -1.55 -0.65 L-1.6 -0.55 Q-1.65 -0.55 -1.7 -0.5 L-1.7 -0.55 -1.7 -0.65 -1.65 -0.7 Q-1.6 -0.7 -1.55 -0.8 L-1.45 -0.9 -1.55 -1.05" fill="#51392f" fill-rule="evenodd" stroke="none"/>
    <path d="M-1.35 -0.65 L-1.35 -0.65 -1.4 -0.75 -1.4 -0.7 -1.35 -0.7 -1.35 -0.65" fill="#9e8847" fill-rule="evenodd" stroke="none"/>
    <path d="M-1.35 -0.95 L-1.3 -0.9 Q-1.3 -0.9 -1.3 -0.95 L-1.25 -0.95 -1.2 -0.9 -1.35 -0.8 -1.35 -0.65 -1.35 -0.7 -1.4 -0.8 -1.35 -0.95" fill="#6e5a42" fill-rule="evenodd" stroke="none"/>
    <path d="M-1.35 -0.65 L-1.25 -0.7 -1.2 -0.75 -1.2 -0.75 -1.15 -0.7 -1.0 -0.7 -1.0 -0.6 -1.15 -0.6 -1.25 -0.55 -1.25 -0.5 -1.3 -0.45 -1.3 -0.55 -1.35 -0.65 -1.35 -0.65 M-1.0 -0.7 L-1.0 -0.7" fill="#735f48" fill-rule="evenodd" stroke="none"/>
    <path d="M-1.35 -0.65 L-1.3 -0.55 -1.3 -0.45 -1.35 -0.5 -1.55 -0.3 -1.65 -0.45 -1.7 -0.5 Q-1.65 -0.55 -1.6 -0.55 L-1.55 -0.65 Q-1.5 -0.75 -1.4 -0.75 L-1.35 -0.65 M-1.4 -0.65 L-1.5 -0.7 -1.45 -0.6 Q-1.4 -0.55 -1.4 -0.55 -1.35 -0.6 -1.4 -0.65" fill="#3f2a21" fill-rule="evenodd" stroke="none"/>
    <path d="M-1.3 -0.8 L-1.25 -0.85 -1.2 -0.85 -1.25 -0.8 -1.3 -0.75 -1.3 -0.8" fill="#796249" fill-rule="evenodd" stroke="none"/>
    <path d="M-1.4 -0.65 Q-1.35 -0.6 -1.4 -0.55 -1.4 -0.55 -1.45 -0.6 L-1.5 -0.7 -1.4 -0.65" fill="#957441" fill-rule="evenodd" stroke="none"/>
    <path d="M-1.0 -0.75 L-1.1 -0.75 -1.15 -0.8 Q-1.05 -0.8 -1.05 -0.85 L-1.05 -0.8 -1.0 -0.75" fill="#7b6348" fill-rule="evenodd" stroke="none"/>
    <path d="M-1.05 -0.85 L-1.0 -0.9 -1.0 -0.85 -1.05 -0.8 -1.05 -0.85" fill="#39161b" fill-rule="evenodd" stroke="none"/>
    <path d="M-1.2 -0.75 L-1.2 -0.9 -1.15 -0.8 -1.15 -0.7 -1.2 -0.75" fill="#d5ae70" fill-rule="evenodd" stroke="none"/>
    <path d="M-1.0 -0.7 L-1.0 -0.75 -1.05 -0.8 -1.0 -0.85 -0.9 -0.95 -0.95 -0.8 -1.0 -0.7 -1.0 -0.7" fill="#b4905c" fill-rule="evenodd" stroke="none"/>
    <path d="M-1.65 -0.85 L-1.6 -0.95 -1.55 -1.05 -1.45 -0.9 -1.55 -0.8 Q-1.6 -0.7 -1.65 -0.7 L-1.7 -0.65 -1.7 -0.55 Q-1.75 -0.65 -1.75 -0.7 L-1.65 -0.85" fill="#5a4132" fill-rule="evenodd" stroke="none"/>
    <path d="M-2.2 0.1 L-2.2 -0.05 -2.0 -0.05 -1.8 0.0 -1.8 0.05 -1.8 0.1 -1.8 0.1 -1.85 0.1 -1.85 0.15 -1.85 0.15 -1.9 0.1 -1.9 0.1 -1.95 0.15 -1.95 0.15 -2.0 0.1 Q-2.05 0.1 -2.05 0.15 L-2.1 0.1 Q-2.15 0.05 -2.2 0.1" fill="#4f1f71" fill-rule="evenodd" stroke="none"/>
    <path d="M-1.95 -0.15 L-2.0 -0.25 -1.95 -0.3 -1.95 -0.15" fill="#66258b" fill-rule="evenodd" stroke="none"/>
    <path d="M-1.25 -0.4 L-1.05 -0.45 -0.95 -0.35 -0.9 -0.2 -1.0 -0.3 -1.05 -0.4 -1.05 -0.35 -1.1 -0.3 -1.15 -0.25 -1.25 -0.35 -1.3 -0.4 -1.25 -0.4 -1.2 -0.35 -1.25 -0.4" fill="#493433" fill-rule="evenodd" stroke="none"/>
    <path d="M-1.25 -0.4 L-1.2 -0.35 -1.25 -0.4" fill="#6e4748" fill-rule="evenodd" stroke="none"/>
    <path d="M-1.0 -0.6 L-0.9 -0.5 -0.8 -0.45 -0.8 -0.3 Q-0.75 -0.2 -0.65 -0.15 L-0.7 -0.1 -0.75 -0.1 -0.8 -0.15 -0.85 -0.3 Q-0.85 -0.4 -0.9 -0.35 L-0.95 -0.4 -0.95 -0.45 -1.05 -0.45 -1.25 -0.4 -1.3 -0.45 -1.25 -0.5 -1.25 -0.55 -1.15 -0.6 -1.0 -0.6 M-1.25 -0.4 L-1.25 -0.4" fill="#301e1f" fill-rule="evenodd" stroke="none"/>
    <path d="M-0.95 -0.4 L-0.9 -0.35 -0.9 -0.25 -0.8 -0.15 -0.75 -0.1 -0.75 -0.05 -0.75 0.0 -0.8 -0.1 -0.85 -0.05 -0.9 -0.1 -1.1 -0.3 -1.05 -0.35 -1.05 -0.4 -1.0 -0.3 -0.9 -0.2 -0.95 -0.35 -0.95 -0.4" fill="#7a4d52" fill-rule="evenodd" stroke="none"/>
    <path d="M-1.55 -0.3 L-1.35 -0.5 -1.3 -0.45 -1.25 -0.4 -1.3 -0.4 -1.35 -0.4 -1.35 -0.4 -1.3 -0.35 -1.25 -0.3 -1.2 -0.2 -1.1 -0.25 -1.05 -0.2 -1.05 -0.15 -1.15 -0.15 -1.3 -0.2 -1.35 -0.25 -1.4 -0.35 Q-1.4 -0.25 -1.35 -0.15 -1.25 -0.1 -1.15 -0.05 L-1.1 -0.1 -1.0 -0.15 -0.95 -0.1 -0.9 0.0 -1.0 -0.05 -1.1 -0.05 -1.2 0.0 Q-1.25 0.05 -1.2 0.1 L-1.25 0.15 -1.3 0.05 -1.35 -0.05 -1.45 -0.2 Q-1.55 -0.25 -1.55 -0.3" fill="#644e44" fill-rule="evenodd" stroke="none"/>
    <path d="M-1.3 -0.4 L-1.25 -0.35 -1.25 -0.3 -1.3 -0.35 -1.35 -0.4 -1.35 -0.4 -1.3 -0.4" fill="#b3994a" fill-rule="evenodd" stroke="none"/>
    <path d="M-1.0 -0.15 L-1.1 -0.1 -1.15 -0.05 Q-1.25 -0.1 -1.35 -0.15 -1.4 -0.25 -1.4 -0.35 L-1.35 -0.25 -1.3 -0.2 -1.15 -0.15 -1.05 -0.15 -1.05 -0.2 -1.0 -0.15" fill="#443b3a" fill-rule="evenodd" stroke="none"/>
    <path d="M-1.25 -0.35 L-1.15 -0.25 -1.1 -0.25 -1.2 -0.2 -1.25 -0.3 -1.25 -0.35" fill="#e4d48d" fill-rule="evenodd" stroke="none"/>
    <path d="M-1.15 -0.25 L-1.1 -0.3 -0.9 -0.1 -0.85 0.0 -0.85 0.1 -0.85 0.15 -0.9 0.1 -0.9 0.0 -0.9 0.0 -0.95 -0.1 -1.0 -0.15 -1.05 -0.2 -1.1 -0.25 -1.15 -0.25" fill="#2b1b1c" fill-rule="evenodd" stroke="none"/>
    <path d="M-0.5 -1.25 L-0.45 -1.25 -0.35 -1.2 -0.3 -1.2 -0.3 -1.15 -0.35 -1.15 -0.4 -1.2 -0.45 -1.2 -0.5 -1.2 Q-0.55 -1.2 -0.5 -1.25" fill="#d9c9c1" fill-rule="evenodd" stroke="none"/>
    <path d="M-0.3 -1.15 L-0.3 -1.1 -0.35 -1.0 -0.4 -1.0 -0.45 -1.0 -0.4 -1.1 -0.35 -1.15 -0.3 -1.15" fill="#91808d" fill-rule="evenodd" stroke="none"/>
    <path d="M-0.25 -1.25 Q-0.2 -1.2 -0.2 -1.1 L-0.25 -0.9 -0.25 -0.8 -0.2 -0.75 -0.2 -0.7 -0.3 -0.75 -0.3 -0.85 -0.35 -0.9 -0.35 -0.85 Q-0.35 -0.85 -0.4 -0.85 L-0.45 -0.85 -0.4 -0.95 Q-0.35 -0.95 -0.35 -0.95 L-0.35 -1.0 -0.3 -1.1 -0.3 -1.15 -0.3 -1.2 -0.25 -1.25 M-0.2 -0.7 L-0.2 -0.7" fill="#704f44" fill-rule="evenodd" stroke="none"/>
    <path d="M-0.4 -1.1 L-0.4 -1.15 -0.5 -1.15 -0.45 -1.2 -0.4 -1.2 -0.35 -1.15 -0.4 -1.1" fill="#463032" fill-rule="evenodd" stroke="none"/>
    <path d="M-0.5 -1.15 L-0.4 -1.15 -0.4 -1.1 -0.45 -1.0 -0.45 -1.05 -0.55 -1.05 -0.55 -1.1 Q-0.5 -1.1 -0.5 -1.15" fill="#dbc4b6" fill-rule="evenodd" stroke="none"/>
    <path d="M-0.35 -1.0 L-0.35 -0.95 Q-0.35 -0.95 -0.4 -0.95 L-0.5 -1.0 -0.45 -1.05 -0.45 -1.0 -0.4 -1.0 -0.35 -1.0 M-0.4 -0.95 L-0.4 -0.95" fill="#b38b5e" fill-rule="evenodd" stroke="none"/>
    <path d="M-0.4 -0.95 L-0.45 -0.85 -0.45 -0.8 -0.5 -0.85 -0.45 -0.9 -0.4 -0.95 -0.4 -0.95" fill="#431b21" fill-rule="evenodd" stroke="none"/>
    <path d="M-0.75 -1.05 L-0.7 -1.1 -0.7 -1.15 -0.65 -1.15 -0.6 -1.05 Q-0.6 -1.05 -0.55 -1.05 L-0.45 -1.05 -0.5 -1.0 -0.55 -0.95 -0.65 -1.0 Q-0.65 -0.9 -0.6 -0.9 L-0.6 -0.85 -0.65 -0.8 -0.7 -0.85 -0.7 -0.95 Q-0.65 -0.95 -0.7 -1.0 L-0.75 -1.05 M-0.7 -1.15 L-0.7 -1.15" fill="#482e2f" fill-rule="evenodd" stroke="none"/>
    <path d="M-0.5 -1.0 L-0.4 -0.95 -0.45 -0.9 -0.5 -0.95 -0.5 -1.0" fill="#53453b" fill-rule="evenodd" stroke="none"/>
    <path d="M-0.5 -1.0 L-0.5 -0.95 -0.45 -0.9 -0.5 -0.85 -0.55 -0.75 -0.6 -0.65 -0.65 -0.6 -0.65 -0.7 Q-0.65 -0.8 -0.7 -0.75 L-0.7 -0.8 -0.7 -0.85 -0.65 -0.8 -0.6 -0.85 -0.6 -0.9 -0.55 -0.95 -0.5 -1.0" fill="#be926e" fill-rule="evenodd" stroke="none"/>
    <path d="M-0.45 -0.85 L-0.4 -0.85 Q-0.35 -0.85 -0.35 -0.85 L-0.35 -0.9 -0.3 -0.85 -0.3 -0.7 -0.35 -0.75 -0.4 -0.75 -0.35 -0.7 -0.4 -0.65 -0.3 -0.65 Q-0.25 -0.6 -0.35 -0.55 -0.35 -0.65 -0.45 -0.6 L-0.5 -0.5 -0.6 -0.5 -0.6 -0.5 -0.65 -0.5 -0.55 -0.65 -0.45 -0.8 -0.45 -0.85 M-0.35 -0.55 L-0.35 -0.55 M-0.65 -0.5 L-0.65 -0.5" fill="#d49e7d" fill-rule="evenodd" stroke="none"/>
    <path d="M-0.5 -0.85 L-0.45 -0.8 -0.55 -0.65 -0.6 -0.65 -0.55 -0.75 -0.5 -0.85" fill="#a24950" fill-rule="evenodd" stroke="none"/>
    <path d="M-0.2 -0.65 L-0.2 -0.6 -0.35 -0.55 Q-0.25 -0.6 -0.3 -0.65 -0.25 -0.6 -0.2 -0.7 L-0.2 -0.65 M-0.3 -0.7 L-0.3 -0.65 -0.35 -0.7 -0.4 -0.75 -0.35 -0.75 -0.3 -0.7" fill="#f7b0a4" fill-rule="evenodd" stroke="none"/>
    <path d="M-0.3 -0.85 L-0.3 -0.75 -0.2 -0.7 Q-0.25 -0.6 -0.3 -0.65 L-0.3 -0.7 -0.3 -0.85 M-0.2 -0.7 L-0.2 -0.7" fill="#b47d74" fill-rule="evenodd" stroke="none"/>
    <path d="M-0.35 -0.7 L-0.3 -0.65 -0.4 -0.65 -0.35 -0.7" fill="#9b6e68" fill-rule="evenodd" stroke="none"/>
    <path d="M-0.25 -0.9 L-0.2 -0.85 -0.2 -0.75 -0.25 -0.8 -0.25 -0.9 M-0.2 -0.75 L-0.2 -0.75" fill="#915e55" fill-rule="evenodd" stroke="none"/>
    <path d="M-0.6 -1.15 L-0.55 -1.15 -0.5 -1.15 Q-0.5 -1.1 -0.55 -1.1 L-0.6 -1.15" fill="#f0dabc" fill-rule="evenodd" stroke="none"/>
    <path d="M-0.6 -1.15 L-0.55 -1.1 -0.55 -1.05 Q-0.6 -1.05 -0.6 -1.05 L-0.65 -1.15 -0.65 -1.15 -0.6 -1.15" fill="#986c6e" fill-rule="evenodd" stroke="none"/>
    <path d="M-0.75 -1.05 L-0.75 -1.05 -0.7 -1.0 Q-0.65 -0.95 -0.7 -0.95 L-0.75 -1.0 -0.75 -1.05 M-0.9 0.5 L-0.85 0.55 -0.9 0.65 -0.9 0.7 -0.9 0.75 -0.95 0.8 -0.95 0.75 -1.0 0.7 -1.05 0.65 -1.0 0.65 -0.95 0.7 -0.95 0.65 Q-0.9 0.6 -0.95 0.55 L-0.9 0.5" fill="#784e4f" fill-rule="evenodd" stroke="none"/>
    <path d="M-0.6 -0.9 Q-0.65 -0.9 -0.65 -1.0 L-0.55 -0.95 -0.6 -0.9" fill="#694247" fill-rule="evenodd" stroke="none"/>
    <path d="M-1.05 -0.95 Q-1.0 -0.95 -0.95 -1.0 L-0.95 -0.95 -0.9 -0.95 -1.0 -0.85 -1.05 -0.95" fill="#5f302f" fill-rule="evenodd" stroke="none"/>
    <path d="M-0.95 -1.0 L-0.9 -1.05 -0.9 -1.1 -0.9 -1.1 -0.85 -1.0 -0.85 -0.9 -0.85 -0.85 -0.85 -0.8 -0.9 -0.8 -0.95 -0.65 -0.85 -0.55 -0.9 -0.5 -1.0 -0.6 -1.0 -0.7 -0.95 -0.8 -0.9 -0.95 -0.95 -0.95 -0.95 -1.0" fill="#8f6652" fill-rule="evenodd" stroke="none"/>
    <path d="M-0.9 -1.1 L-0.85 -1.1 -0.85 -1.05 -0.8 -1.1 Q-0.75 -1.1 -0.8 -1.05 L-0.85 -0.9 -0.85 -1.0 -0.9 -1.1" fill="#dcb487" fill-rule="evenodd" stroke="none"/>
    <path d="M-0.85 -0.85 L-0.85 -0.9 -0.8 -1.05 Q-0.75 -1.0 -0.75 -0.95 L-0.7 -0.8 -0.7 -0.75 -0.8 -0.75 Q-0.8 -0.75 -0.85 -0.75 L-0.8 -0.75 -0.75 -0.75 -0.8 -0.85 -0.85 -0.85 M-0.7 -0.75 L-0.7 -0.75 -0.7 -0.75" fill="#3b2526" fill-rule="evenodd" stroke="none"/>
    <path d="M-0.85 -0.8 L-0.85 -0.85 -0.8 -0.85 Q-0.85 -0.85 -0.8 -0.85 L-0.8 -0.75 -0.85 -0.75 -0.85 -0.8" fill="#c98389" fill-rule="evenodd" stroke="none"/>
    <path d="M-0.8 -0.85 L-0.75 -0.75 -0.8 -0.75 -0.8 -0.85 Q-0.85 -0.85 -0.8 -0.85" fill="#714a4b" fill-rule="evenodd" stroke="none"/>
    <path d="M-0.9 -0.8 L-0.85 -0.8 -0.85 -0.75 Q-0.8 -0.75 -0.8 -0.75 L-0.7 -0.75 -0.8 -0.65 -0.8 -0.7 -0.9 -0.75 -0.9 -0.8" fill="#1c0f12" fill-rule="evenodd" stroke="none"/>
    <path d="M-0.85 -0.55 L-0.95 -0.65 -0.9 -0.8 -0.9 -0.75 -0.8 -0.7 -0.8 -0.65 -0.85 -0.55" fill="#3b2422" fill-rule="evenodd" stroke="none"/>
    <path d="M-0.9 -0.5 L-0.85 -0.55 -0.8 -0.65 -0.7 -0.75 -0.7 -0.5 -0.7 -0.45 -0.8 -0.45 -0.75 -0.35 -0.8 -0.3 -0.8 -0.45 -0.9 -0.5 M-0.7 -0.75 L-0.7 -0.75" fill="#9c7f6b" fill-rule="evenodd" stroke="none"/>
    <path d="M-0.7 -0.75 L-0.7 -0.75 Q-0.65 -0.8 -0.65 -0.7 L-0.65 -0.6 -0.7 -0.5 -0.7 -0.75" fill="#faeae0" fill-rule="evenodd" stroke="none"/>
    <path d="M-0.6 -0.65 L-0.55 -0.65 -0.65 -0.5 -0.7 -0.5 -0.65 -0.6 -0.6 -0.65 M-0.7 -0.45 L-0.7 -0.5 -0.7 -0.45" fill="#591b27" fill-rule="evenodd" stroke="none"/>
    <path d="M-0.6 -0.5 L-0.6 -0.5 -0.5 -0.5 -0.5 -0.45 -0.55 -0.45 -0.6 -0.5" fill="#5d3841" fill-rule="evenodd" stroke="none"/>
    <path d="M-0.55 0.0 L-0.6 -0.05 -0.65 -0.05 -0.65 -0.05 -0.7 -0.05 -0.75 -0.05 -0.75 -0.1 -0.7 -0.1 -0.65 -0.15 Q-0.6 -0.2 -0.65 -0.3 L-0.7 -0.5 -0.65 -0.5 -0.65 -0.5 -0.6 -0.35 -0.6 -0.25 -0.6 -0.2 -0.55 -0.15 -0.5 -0.1 -0.55 -0.05 -0.55 0.0" fill="#efb7db" fill-rule="evenodd" stroke="none"/>
    <path d="M-0.65 -0.15 Q-0.75 -0.2 -0.8 -0.3 L-0.75 -0.35 -0.7 -0.45 -0.7 -0.5 -0.65 -0.3 Q-0.6 -0.2 -0.65 -0.15" fill="#855a55" fill-rule="evenodd" stroke="none"/>
    <path d="M-0.6 -0.5 L-0.55 -0.45 -0.5 -0.45 -0.45 -0.45 -0.45 -0.35 -0.5 -0.4 Q-0.45 -0.45 -0.5 -0.4 L-0.55 -0.3 -0.6 -0.25 -0.6 -0.35 -0.65 -0.5 -0.6 -0.5 M-0.55 -0.3 L-0.55 -0.3" fill="#8e575f" fill-rule="evenodd" stroke="none"/>
    <path d="M-1.05 -0.45 L-0.95 -0.45 -0.95 -0.4 -0.95 -0.35 -1.05 -0.45" fill="#c3a3a8" fill-rule="evenodd" stroke="none"/>
    <path d="M-0.75 -0.35 L-0.8 -0.45 -0.7 -0.45 -0.75 -0.35" fill="#421d1f" fill-rule="evenodd" stroke="none"/>
    <path d="M-0.9 -0.35 Q-0.85 -0.4 -0.85 -0.3 L-0.8 -0.15 -0.9 -0.25 -0.9 -0.35" fill="#4b2e32" fill-rule="evenodd" stroke="none"/>
    <path d="M-1.1 -0.05 L-1.0 -0.05 -0.9 0.0 -0.95 0.05 -1.0 0.05 -1.05 0.0 -1.05 0.05 -1.1 0.05 -1.1 -0.05 M-0.9 0.0 L-0.9 0.0" fill="#a06d4a" fill-rule="evenodd" stroke="none"/>
    <path d="M-0.85 -0.05 L-0.8 -0.1 -0.75 0.0 -0.8 0.05 -0.85 -0.05" fill="#b37081" fill-rule="evenodd" stroke="none"/>
    <path d="M-0.9 -0.1 L-0.85 -0.05 -0.8 0.05 -0.8 0.1 -0.85 0.1 -0.85 0.0 -0.9 -0.1" fill="#59363c" fill-rule="evenodd" stroke="none"/>
    <path d="M-0.6 -0.25 L-0.55 -0.3 -0.55 -0.15 -0.6 -0.2 -0.6 -0.25" fill="#7127b1" fill-rule="evenodd" stroke="none"/>
    <path d="M-0.55 -0.3 L-0.55 -0.3 -0.55 -0.3 -0.5 -0.25 -0.5 -0.2 Q-0.45 -0.25 -0.5 -0.4 L-0.45 -0.35 -0.4 -0.3 -0.4 -0.3 -0.35 -0.3 -0.35 -0.25 -0.35 -0.2 -0.4 -0.25 -0.4 -0.15 -0.45 -0.15 -0.5 -0.2 -0.45 -0.1 -0.45 -0.05 -0.5 -0.1 -0.55 -0.15 -0.55 -0.3" fill="#a331f6" fill-rule="evenodd" stroke="none"/>
    <path d="M-0.6 -0.05 L-0.65 0.0 -0.7 0.1 -0.65 0.15 -0.65 0.1 -0.6 0.1 -0.55 0.2 -0.55 0.2 -0.6 0.2 -0.65 0.2 -0.65 0.3 -0.65 0.35 -0.7 0.35 -0.75 0.3 -0.9 0.25 -0.85 0.3 -0.8 0.35 -0.8 0.4 -0.75 0.45 -0.8 0.45 -0.9 0.35 -1.0 0.3 -1.05 0.25 -1.1 0.15 -1.05 0.15 -1.0 0.15 -0.95 0.1 -0.9 0.1 -0.85 0.15 -0.85 0.1 -0.8 0.1 -0.8 0.05 -0.75 0.0 -0.75 -0.05 -0.7 -0.05 -0.65 -0.05 -0.65 -0.05 -0.6 -0.05 M-0.75 0.2 L-0.7 0.15 -0.7 0.1 -0.75 0.1 -0.8 0.15 -0.8 0.2 -0.75 0.2 M-0.75 0.45 L-0.75 0.45" fill="#6d5053" fill-rule="evenodd" stroke="none"/>
    <path d="M-0.4 -0.05 L-0.5 -0.05 -0.5 0.05 -0.55 0.0 -0.55 -0.05 -0.5 -0.1 -0.45 -0.05 -0.4 -0.05" fill="#9f5ca0" fill-rule="evenodd" stroke="none"/>
    <path d="M-0.5 -0.4 Q-0.45 -0.25 -0.5 -0.2 L-0.5 -0.25 -0.55 -0.3 -0.5 -0.4" fill="#7725c2" fill-rule="evenodd" stroke="none"/>
    <path d="M-0.55 -0.3 L-0.5 -0.4 Q-0.45 -0.45 -0.5 -0.4 L-0.55 -0.3 -0.55 -0.3" fill="#d27895" fill-rule="evenodd" stroke="none"/>
    <path d="M-0.2 -0.6 L-0.2 -0.6 -0.2 -0.55 -0.3 -0.5 -0.35 -0.5 -0.35 -0.45 -0.45 -0.35 -0.45 -0.45 Q-0.4 -0.5 -0.35 -0.55 L-0.2 -0.6 M-0.35 -0.55 L-0.35 -0.55" fill="#fdbdb9" fill-rule="evenodd" stroke="none"/>
    <path d="M-0.15 -0.5 L-0.25 -0.5 -0.3 -0.5 -0.2 -0.55 -0.15 -0.5 M-0.2 -0.55 L-0.2 -0.55" fill="#ffdcef" fill-rule="evenodd" stroke="none"/>
    <path d="M-0.15 -0.5 L-0.15 -0.5 -0.2 -0.55 Q-0.15 -0.6 0.0 -0.6 L-0.05 -0.55 -0.15 -0.5" fill="#7a22d4" fill-rule="evenodd" stroke="none"/>
    <path d="M-0.3 -0.5 L-0.25 -0.5 -0.15 -0.5 -0.15 -0.45 -0.15 -0.45 -0.2 -0.45 -0.2 -0.4 -0.2 -0.4 -0.25 -0.4 -0.3 -0.4 -0.3 -0.35 Q-0.35 -0.35 -0.35 -0.4 L-0.3 -0.45 -0.35 -0.45 -0.35 -0.5 -0.3 -0.5 M-0.15 -0.5 L-0.15 -0.5" fill="#f696d3" fill-rule="evenodd" stroke="none"/>
    <path d="M-0.2 -0.4 L-0.2 -0.45 -0.15 -0.45 -0.15 -0.4 -0.1 -0.4 -0.1 -0.35 -0.15 -0.35 -0.15 -0.35 -0.15 -0.35 -0.2 -0.4" fill="#ffe3ff" fill-rule="evenodd" stroke="none"/>
    <path d="M-0.3 -0.35 L-0.3 -0.4 -0.25 -0.4 -0.2 -0.4 -0.2 -0.4 -0.15 -0.35 -0.25 -0.35 Q-0.25 -0.3 -0.3 -0.3 L-0.35 -0.3 -0.35 -0.3 -0.4 -0.3 -0.4 -0.3 -0.35 -0.35 -0.3 -0.35" fill="#fdc3f8" fill-rule="evenodd" stroke="none"/>
    <path d="M-0.15 -0.35 L-0.15 -0.25 -0.2 -0.25 -0.15 -0.35 -0.15 -0.35 -0.15 -0.35" fill="#5116b2" fill-rule="evenodd" stroke="none"/>
    <path d="M-0.15 -0.35 L-0.2 -0.25 -0.2 -0.2 Q-0.2 -0.2 -0.25 -0.2 L-0.3 -0.2 Q-0.25 -0.2 -0.25 -0.25 L-0.3 -0.3 Q-0.25 -0.3 -0.25 -0.35 L-0.15 -0.35" fill="#c74ae9" fill-rule="evenodd" stroke="none"/>
    <path d="M-0.35 -0.45 L-0.3 -0.45 -0.35 -0.4 Q-0.35 -0.35 -0.3 -0.35 L-0.35 -0.35 -0.4 -0.3 -0.45 -0.35 -0.35 -0.45" fill="#ac6891" fill-rule="evenodd" stroke="none"/>
    <path d="M-0.5 -0.45 L-0.5 -0.5 -0.45 -0.6 Q-0.35 -0.65 -0.35 -0.55 -0.4 -0.5 -0.45 -0.45 L-0.5 -0.45" fill="#eca290" fill-rule="evenodd" stroke="none"/>
    <path d="M-0.2 -0.2 L-0.2 -0.15 -0.15 -0.1 -0.25 -0.1 -0.3 -0.15 -0.35 -0.2 -0.35 -0.25 -0.3 -0.2 -0.25 -0.2 Q-0.2 -0.2 -0.2 -0.2" fill="#fd95f8" fill-rule="evenodd" stroke="none"/>
    <path d="M-0.35 -0.2 L-0.3 -0.15 -0.35 -0.1 -0.4 -0.15 -0.4 -0.25 -0.35 -0.2" fill="#ca39ff" fill-rule="evenodd" stroke="none"/>
    <path d="M-0.3 -0.3 L-0.25 -0.25 Q-0.25 -0.2 -0.3 -0.2 L-0.35 -0.25 -0.35 -0.3 -0.35 -0.3 -0.3 -0.3" fill="#562358" fill-rule="evenodd" stroke="none"/>
    <path d="M-0.15 -0.1 L-0.1 -0.1 -0.25 -0.05 -0.4 -0.05 -0.45 -0.05 -0.45 -0.1 -0.5 -0.2 -0.45 -0.15 -0.4 -0.15 -0.35 -0.1 -0.3 -0.15 -0.25 -0.1 -0.15 -0.1" fill="#f94cff" fill-rule="evenodd" stroke="none"/>
    <path d="M-0.15 -0.25 L-0.1 -0.2 -0.1 -0.1 -0.2 -0.2 -0.2 -0.25 -0.15 -0.25" fill="#ff90ff" fill-rule="evenodd" stroke="none"/>
    <path d="M-0.4 0.1 L-0.3 0.1 -0.15 0.05 Q-0.2 0.1 -0.15 0.15 L-0.1 0.2 -0.15 0.2 -0.25 0.2 -0.3 0.15 Q-0.3 0.1 -0.35 0.1 L-0.4 0.1" fill="#f873fe" fill-rule="evenodd" stroke="none"/>
    <path d="M-0.2 0.25 Q-0.2 0.2 -0.15 0.25 -0.1 0.25 -0.1 0.3 L0.0 0.45 Q0.05 0.55 0.0 0.6 L-0.05 0.55 Q-0.05 0.5 -0.1 0.45 -0.15 0.35 -0.15 0.3 -0.1 0.25 -0.15 0.25 L-0.15 0.3 -0.2 0.25" fill="#fea0ff" fill-rule="evenodd" stroke="none"/>
    <path d="M-0.2 0.25 L-0.2 0.25 -0.15 0.3 -0.2 0.4 -0.25 0.4 -0.25 0.3 -0.2 0.25" fill="#fff5ff" fill-rule="evenodd" stroke="none"/>
    <path d="M-0.25 0.2 L-0.2 0.25 -0.25 0.3 -0.25 0.4 -0.3 0.4 -0.3 0.3 -0.35 0.25 -0.35 0.15 -0.3 0.15 -0.25 0.2" fill="#ffd6ff" fill-rule="evenodd" stroke="none"/>
    <path d="M-0.35 0.1 Q-0.3 0.1 -0.3 0.15 L-0.35 0.15 -0.35 0.25 -0.3 0.3 -0.3 0.4 -0.35 0.35 -0.4 0.25 -0.4 0.15 -0.35 0.1" fill="#ffb6ff" fill-rule="evenodd" stroke="none"/>
    <path d="M-0.5 0.1 L-0.45 0.1 -0.45 0.2 Q-0.45 0.25 -0.5 0.25 L-0.5 0.1" fill="#f08bd6" fill-rule="evenodd" stroke="none"/>
    <path d="M-0.45 0.1 L-0.4 0.1 -0.35 0.1 -0.4 0.15 -0.4 0.25 -0.35 0.35 -0.4 0.4 -0.45 0.3 -0.5 0.25 Q-0.45 0.25 -0.45 0.2 L-0.45 0.1" fill="#fe9df9" fill-rule="evenodd" stroke="none"/>
    <path d="M-0.6 0.1 L-0.5 0.1 -0.5 0.25 -0.45 0.3 -0.4 0.4 -0.5 0.3 -0.5 0.2 Q-0.55 0.15 -0.55 0.2 L-0.6 0.1" fill="#d381b5" fill-rule="evenodd" stroke="none"/>
    <path d="M-0.35 0.35 L-0.3 0.4 -0.3 0.45 -0.35 0.45 -0.4 0.4 -0.35 0.35" fill="#cb7ce8" fill-rule="evenodd" stroke="none"/>
    <path d="M-0.05 0.55 L-0.1 0.55 -0.2 0.5 -0.15 0.5 -0.2 0.45 -0.25 0.5 -0.2 0.55 -0.25 0.65 -0.3 0.65 -0.35 0.55 -0.3 0.5 -0.3 0.45 -0.3 0.4 -0.25 0.4 -0.2 0.4 -0.15 0.3 -0.15 0.25 Q-0.1 0.25 -0.15 0.3 -0.15 0.35 -0.1 0.45 -0.05 0.5 -0.05 0.55" fill="#fcb7fb" fill-rule="evenodd" stroke="none"/>
    <path d="M-0.25 0.65 L-0.25 0.85 -0.25 0.8 -0.3 0.75 -0.35 0.75 -0.35 0.7 Q-0.35 0.55 -0.45 0.5 L-0.45 0.45 -0.5 0.45 Q-0.5 0.4 -0.45 0.4 L-0.35 0.45 -0.3 0.45 -0.3 0.5 -0.35 0.55 -0.3 0.65 -0.25 0.65" fill="#b36088" fill-rule="evenodd" stroke="none"/>
    <path d="M-0.5 0.45 L-0.45 0.45 -0.45 0.5 -0.45 0.55 -0.45 0.55 -0.55 0.5 -0.5 0.45" fill="#28171f" fill-rule="evenodd" stroke="none"/>
    <path d="M-0.45 0.5 Q-0.35 0.55 -0.35 0.7 L-0.45 0.7 -0.5 0.75 -0.55 0.6 -0.45 0.7 -0.45 0.55 -0.45 0.5" fill="#683c4f" fill-rule="evenodd" stroke="none"/>
    <path d="M-0.45 0.55 L-0.45 0.55 -0.45 0.7 -0.55 0.6 -0.55 0.55 -0.45 0.55" fill="#ac6380" fill-rule="evenodd" stroke="none"/>
    <path d="M-0.35 0.45 L-0.45 0.4 Q-0.5 0.4 -0.5 0.45 L-0.55 0.5 Q-0.55 0.4 -0.65 0.35 L-0.65 0.3 -0.55 0.3 Q-0.55 0.35 -0.5 0.3 L-0.4 0.4 -0.35 0.45 M-0.55 0.5 L-0.55 0.5" fill="#7d5880" fill-rule="evenodd" stroke="none"/>
    <path d="M-0.2 0.55 L-0.25 0.5 -0.2 0.45 -0.15 0.5 -0.2 0.5 -0.2 0.55" fill="#cd9eff" fill-rule="evenodd" stroke="none"/>
    <path d="M-0.2 0.65 L-0.25 0.65 -0.2 0.55 -0.2 0.5 -0.1 0.55 Q0.0 0.65 0.0 0.7 L-0.1 0.7 Q-0.2 0.65 -0.2 0.65" fill="#a58bf8" fill-rule="evenodd" stroke="none"/>
    <path d="M-0.65 0.0 L-0.55 0.05 -0.6 0.1 -0.65 0.1 -0.65 0.15 -0.7 0.1 -0.65 0.0" fill="#d4a8d4" fill-rule="evenodd" stroke="none"/>
    <path d="M-0.75 0.2 L-0.8 0.2 -0.8 0.15 -0.75 0.1 -0.7 0.1 -0.7 0.15 -0.75 0.2" fill="#3c2229" fill-rule="evenodd" stroke="none"/>
    <path d="M-0.5 0.3 Q-0.55 0.35 -0.55 0.3 L-0.55 0.2 Q-0.55 0.15 -0.5 0.2 L-0.5 0.3 M-0.55 0.2 L-0.55 0.2" fill="#fb9df0" fill-rule="evenodd" stroke="none"/>
    <path d="M-0.55 0.3 L-0.65 0.3 -0.65 0.2 -0.6 0.2 -0.55 0.2 -0.55 0.3" fill="#cd83a7" fill-rule="evenodd" stroke="none"/>
    <path d="M-0.95 0.1 L-1.0 0.15 -1.05 0.15 -1.1 0.1 -1.1 0.05 -1.05 0.05 -1.05 0.0 -1.0 0.05 -0.95 0.1 -0.95 0.1" fill="#653f2b" fill-rule="evenodd" stroke="none"/>
    <path d="M-0.9 0.1 L-0.95 0.1 -0.95 0.1 -1.0 0.05 -0.95 0.05 -0.9 0.0 -0.9 0.1" fill="#7f4e33" fill-rule="evenodd" stroke="none"/>
    <path d="M-0.75 0.45 L-0.8 0.4 -0.8 0.35 -0.85 0.3 -0.9 0.25 -0.75 0.3 -0.7 0.35 -0.7 0.45 -0.75 0.45" fill="#7f5e62" fill-rule="evenodd" stroke="none"/>
    <path d="M-0.8 0.45 L-0.75 0.45 -0.8 0.5 -0.85 0.55 -0.9 0.5 Q-1.0 0.5 -1.0 0.4 -0.95 0.4 -0.9 0.4 L-0.8 0.45 M-0.85 0.55 L-0.85 0.55" fill="#62453f" fill-rule="evenodd" stroke="none"/>
    <path d="M-1.25 0.15 L-1.2 0.1 -1.15 0.15 -1.1 0.15 -1.05 0.25 -1.0 0.3 -0.9 0.35 -0.8 0.45 -0.9 0.4 Q-0.95 0.4 -1.0 0.4 -1.0 0.5 -0.9 0.5 L-0.95 0.55 -1.0 0.55 -1.05 0.5 -1.05 0.35 -1.2 0.2 -1.25 0.15" fill="#43373c" fill-rule="evenodd" stroke="none"/>
    <path d="M-1.05 0.5 L-1.0 0.55 -0.95 0.55 Q-0.9 0.6 -0.95 0.65 L-0.95 0.7 -1.0 0.65 -1.05 0.65 -1.05 0.55 -1.05 0.5 M-1.05 0.65 L-1.05 0.65" fill="#a47679" fill-rule="evenodd" stroke="none"/>
    <path d="M-0.75 0.45 L-0.75 0.45 -0.7 0.45 -0.7 0.5 Q-0.75 0.5 -0.8 0.55 L-0.8 0.6 -0.85 0.55 -0.8 0.5 -0.75 0.45" fill="#2a1d20" fill-rule="evenodd" stroke="none"/>
    <path d="M-0.8 0.6 L-0.8 0.55 Q-0.75 0.5 -0.7 0.5 L-0.75 0.65 -0.8 0.7 -0.8 0.6 M-0.7 0.5 L-0.7 0.5" fill="#88575d" fill-rule="evenodd" stroke="none"/>
    <path d="M-0.85 0.55 L-0.85 0.55 -0.8 0.6 -0.8 0.7 -0.9 0.7 -0.9 0.65 -0.85 0.55" fill="#492f30" fill-rule="evenodd" stroke="none"/>
    <path d="M-0.55 0.6 L-0.5 0.75 -0.45 0.85 -0.5 0.95 -0.5 0.8 -0.55 0.8 -0.55 0.95 -0.6 0.85 -0.6 1.0 -0.65 0.95 -0.65 0.9 -0.6 0.75 -0.65 0.75 Q-0.6 0.65 -0.7 0.65 L-0.7 0.5 -0.7 0.45 -0.7 0.35 -0.65 0.35 Q-0.55 0.4 -0.55 0.5 L-0.55 0.55 -0.55 0.6" fill="#5765f5" fill-rule="evenodd" stroke="none"/>
    <path d="M-0.55 0.5 L-0.55 0.5 -0.45 0.55 -0.55 0.55 -0.55 0.5" fill="#e78dcb" fill-rule="evenodd" stroke="none"/>
    <path d="M-0.65 0.75 L-0.6 0.75 -0.65 0.9 -0.7 0.8 Q-0.65 0.8 -0.65 0.75" fill="#4d55da" fill-rule="evenodd" stroke="none"/>
    <path d="M-0.8 0.7 L-0.75 0.65 -0.75 0.7 -0.75 0.75 -0.8 0.75 -0.8 0.7" fill="#513439" fill-rule="evenodd" stroke="none"/>
    <path d="M-0.75 0.65 L-0.7 0.5 -0.7 0.65 -0.75 0.7 -0.75 0.65" fill="#3c3462" fill-rule="evenodd" stroke="none"/>
    <path d="M-0.7 0.65 Q-0.6 0.65 -0.65 0.75 -0.65 0.8 -0.7 0.8 L-0.65 0.9 -0.65 0.95 -0.6 1.0 -0.6 1.05 -0.65 1.15 -0.65 1.05 -0.7 1.2 -0.75 1.15 -0.75 1.05 -0.75 0.9 -0.75 0.75 -0.75 0.7 -0.7 0.65" fill="#464bbb" fill-rule="evenodd" stroke="none"/>
    <path d="M-0.6 1.0 L-0.6 0.85 -0.55 0.95 -0.55 0.8 -0.5 0.8 -0.5 0.95 -0.45 0.85 -0.45 1.0 -0.45 1.3 -0.55 1.25 -0.6 1.2 -0.6 1.15 -0.55 1.15 -0.6 1.05 -0.6 1.0 M-0.55 1.1 L-0.55 1.1 Q-0.5 1.1 -0.5 1.15 L-0.5 1.2 -0.45 1.1 Q-0.45 1.05 -0.5 1.05 -0.5 1.05 -0.55 1.1" fill="#4653c9" fill-rule="evenodd" stroke="none"/>
    <path d="M-0.75 0.75 L-0.75 0.9 -0.75 1.05 -0.75 1.15 -0.8 1.1 -0.85 1.1 -0.8 1.2 -0.7 1.25 -0.7 1.2 -0.65 1.2 -0.65 1.3 -0.7 1.35 -0.9 1.3 -1.0 1.3 -1.05 1.15 -0.95 1.0 -0.95 0.9 -1.0 0.7 -0.95 0.75 -0.95 0.8 Q-0.9 0.85 -0.9 0.8 -0.85 0.75 -0.9 0.7 L-0.8 0.7 -0.8 0.75 -0.75 0.75 M-0.9 1.3 L-0.9 1.3" fill="#39272a" fill-rule="evenodd" stroke="none"/>
    <path d="M-0.9 0.7 Q-0.85 0.75 -0.9 0.8 -0.9 0.85 -0.95 0.8 L-0.9 0.75 -0.9 0.7" fill="#543737" fill-rule="evenodd" stroke="none"/>
    <path d="M-0.75 1.15 L-0.7 1.2 -0.7 1.25 -0.8 1.2 -0.85 1.1 -0.8 1.1 -0.75 1.15" fill="#875e5e" fill-rule="evenodd" stroke="none"/>
    <path d="M-0.95 0.9 L-0.95 1.0 -1.05 1.15 -1.0 1.3 -1.1 1.3 -1.15 1.25 -1.15 1.3 -1.2 1.35 -1.25 1.3 -1.25 1.35 -1.4 1.4 Q-1.45 1.45 -1.5 1.35 L-1.5 1.45 -1.55 1.4 -1.5 1.35 Q-1.45 1.35 -1.45 1.3 L-1.45 1.15 -1.35 1.05 Q-1.3 1.0 -1.3 0.95 L-1.25 1.0 -1.15 1.0 -1.05 1.0 -1.0 0.95 -0.95 0.9 M-1.5 1.45 L-1.5 1.45" fill="#3b42a0" fill-rule="evenodd" stroke="none"/>
    <path d="M-0.7 1.2 L-0.65 1.05 -0.65 1.15 -0.6 1.05 -0.55 1.15 -0.6 1.15 -0.6 1.2 -0.65 1.2 -0.7 1.2" fill="#5e6df2" fill-rule="evenodd" stroke="none"/>
    <path d="M-0.7 1.35 L-0.65 1.3 -0.65 1.2 -0.6 1.2 -0.55 1.25 -0.45 1.3 -0.45 1.35 -0.5 1.35 -0.55 1.4 -0.65 1.4 -0.7 1.35 M-0.5 1.35 Q-0.5 1.3 -0.55 1.3 -0.55 1.25 -0.6 1.25 -0.6 1.35 -0.5 1.35" fill="#8a6066" fill-rule="evenodd" stroke="none"/>
    <path d="M-0.55 1.1 Q-0.5 1.05 -0.5 1.05 -0.45 1.05 -0.45 1.1 L-0.5 1.2 -0.5 1.15 Q-0.5 1.1 -0.55 1.1 L-0.55 1.1" fill="#5767f2" fill-rule="evenodd" stroke="none"/>
    <path d="M-0.75 0.9 L-0.75 1.05 -0.75 0.9" fill="#2f2647" fill-rule="evenodd" stroke="none"/>
    <path d="M-2.2 1.2 L-2.2 0.55 Q-2.15 0.6 -2.1 0.6 L-2.05 0.55 -1.95 0.45 -1.8 0.4 -1.75 0.3 -1.75 0.25 -1.7 0.25 -1.7 0.2 -1.7 0.2 -1.65 0.2 -1.7 0.15 Q-1.65 0.15 -1.6 0.15 L-1.6 0.25 -1.5 0.2 -1.5 0.15 -1.4 0.2 Q-1.35 0.2 -1.35 0.15 L-1.2 0.2 -1.05 0.35 -1.05 0.5 -1.05 0.55 -1.1 0.5 -1.1 0.55 -1.05 0.65 -1.05 0.65 -1.0 0.7 -0.95 0.9 -1.0 0.95 -1.05 0.8 Q-1.05 0.8 -1.05 0.85 L-1.05 1.0 -1.15 1.0 -1.25 1.0 -1.3 0.95 Q-1.3 1.0 -1.35 1.05 L-1.45 1.15 -1.45 1.05 -1.55 1.1 -1.65 1.15 Q-1.75 1.2 -1.75 1.15 L-1.75 1.0 -1.85 1.05 -1.8 0.9 -1.85 0.95 -1.85 0.9 Q-1.8 0.85 -1.85 0.85 L-1.9 0.95 -1.9 1.1 -2.05 1.15 -2.2 1.2 M-1.45 0.3 Q-1.45 0.3 -1.5 0.25 L-1.6 0.25 -1.55 0.3 -1.5 0.3 Q-1.5 0.45 -1.4 0.6 -1.4 0.55 -1.45 0.45 L-1.45 0.3" fill="#43338c" fill-rule="evenodd" stroke="none"/>
    <path d="M-0.25 0.85 L-0.25 1.0 -0.35 0.9 -0.4 0.95 -0.45 1.0 -0.45 0.85 -0.5 0.75 -0.45 0.7 -0.35 0.7 -0.35 0.75 -0.3 0.85 -0.25 0.8 -0.25 0.85 M-0.25 1.0 L-0.25 1.0" fill="#3a2531" fill-rule="evenodd" stroke="none"/>
    <path d="M-0.35 0.75 L-0.3 0.75 -0.25 0.8 -0.3 0.85 -0.35 0.75" fill="#663b48" fill-rule="evenodd" stroke="none"/>
    <path d="M-0.45 1.3 L-0.45 1.0 -0.4 0.95 -0.35 0.9 -0.25 1.0 -0.25 1.1 -0.35 1.1 -0.35 1.15 -0.25 1.25 -0.2 1.35 -0.2 1.3 -0.4 1.3 -0.45 1.35 -0.45 1.3 M-0.25 1.0 L-0.25 1.0" fill="#2d1e21" fill-rule="evenodd" stroke="none"/>
    <path d="M-0.25 1.1 L-0.25 1.0 -0.2 1.15 -0.25 1.1 M-0.2 1.15 L-0.2 1.15" fill="#48303d" fill-rule="evenodd" stroke="none"/>
    <path d="M-0.2 1.15 L-0.2 1.25 -0.25 1.1 -0.2 1.15" fill="#a26e73" fill-rule="evenodd" stroke="none"/>
    <path d="M-0.2 1.25 L-0.2 1.15 -0.15 1.15 -0.1 1.25 -0.2 1.25 M-0.2 1.15 L-0.2 1.15" fill="#85595d" fill-rule="evenodd" stroke="none"/>
    <path d="M-1.05 0.15 L-1.1 0.15 -1.15 0.15 Q-1.2 0.1 -1.1 0.05 L-1.1 0.1 -1.05 0.15" fill="#3d2215" fill-rule="evenodd" stroke="none"/>
    <path d="M-1.2 0.1 Q-1.25 0.05 -1.2 0.0 L-1.1 -0.05 -1.1 0.05 Q-1.2 0.1 -1.15 0.15 L-1.2 0.1" fill="#68452f" fill-rule="evenodd" stroke="none"/>
    <path d="M-1.45 0.3 L-1.45 0.45 Q-1.4 0.55 -1.4 0.6 -1.5 0.45 -1.5 0.3 L-1.55 0.3 -1.6 0.25 -1.5 0.25 Q-1.45 0.3 -1.45 0.3" fill="#574ac1" fill-rule="evenodd" stroke="none"/>
    <path d="M-1.05 0.55 L-1.05 0.65 -1.1 0.55 -1.1 0.5 -1.05 0.55" fill="#555dda" fill-rule="evenodd" stroke="none"/>
    <path d="M-2.2 0.55 L-2.2 0.1 Q-2.15 0.05 -2.1 0.1 L-2.05 0.15 Q-2.05 0.1 -2.0 0.1 L-1.95 0.15 -1.95 0.15 -1.9 0.1 -1.9 0.2 -1.85 0.15 -1.85 0.15 -1.85 0.1 -1.8 0.1 -1.8 0.1 -1.8 0.05 -1.8 0.1 -1.75 0.15 Q-1.8 0.15 -1.75 0.15 -1.75 0.2 -1.7 0.2 L-1.7 0.25 -1.75 0.25 -1.75 0.3 -1.8 0.4 -1.95 0.45 -2.05 0.55 -2.1 0.6 Q-2.15 0.6 -2.2 0.55" fill="#512882" fill-rule="evenodd" stroke="none"/>
    <path d="M-1.7 0.2 Q-1.75 0.2 -1.75 0.15 -1.8 0.15 -1.75 0.15 L-1.7 0.2 -1.7 0.2" fill="#7839bc" fill-rule="evenodd" stroke="none"/>
    <path d="M-1.85 0.15 L-1.9 0.2 -1.9 0.1 -1.9 0.1 -1.85 0.15" fill="#7a38bd" fill-rule="evenodd" stroke="none"/>
    <path d="M-1.45 1.15 L-1.45 1.3 Q-1.45 1.35 -1.5 1.35 L-1.55 1.4 -1.5 1.45 -1.6 1.55 Q-1.65 1.65 -1.7 1.6 L-1.75 1.45 Q-1.75 1.4 -1.8 1.35 L-1.8 1.5 -1.75 1.65 -1.8 1.65 -1.9 1.6 -1.95 1.5 -1.9 1.45 -1.85 1.5 -1.85 1.35 -1.9 1.2 -1.9 1.1 -1.9 0.95 -1.85 0.85 Q-1.8 0.85 -1.85 0.9 L-1.85 0.95 -1.8 0.9 -1.85 1.05 -1.75 1.0 -1.75 1.15 Q-1.75 1.2 -1.65 1.15 L-1.55 1.1 -1.45 1.05 -1.45 1.15" fill="#4345ad" fill-rule="evenodd" stroke="none"/>
    <path d="M-1.9 1.1 L-1.9 1.2 -1.85 1.35 -1.85 1.5 -1.9 1.45 Q-1.9 1.4 -1.9 1.35 L-1.95 1.2 -1.95 1.15 -1.9 1.1" fill="#5659dc" fill-rule="evenodd" stroke="none"/>
    <path d="M-2.2 1.6 L-2.2 1.2 -2.05 1.15 -1.9 1.1 -1.95 1.15 -1.95 1.2 -1.9 1.35 Q-1.9 1.4 -1.9 1.45 L-1.95 1.5 -1.95 1.4 Q-2.0 1.35 -1.95 1.45 L-1.95 1.55 -2.05 1.6 -2.2 1.6 M-1.95 1.55 L-1.95 1.55" fill="#3d44a8" fill-rule="evenodd" stroke="none"/>
    <path d="M-1.0 0.95 L-1.05 1.0 -1.05 0.85 Q-1.05 0.8 -1.05 0.8 L-1.0 0.95" fill="#554cc5" fill-rule="evenodd" stroke="none"/>
    <path d="M-1.0 1.3 L-0.9 1.3 -1.05 1.35 -1.15 1.45 -1.25 1.5 -1.35 1.5 -1.4 1.5 -1.5 1.45 -1.5 1.35 Q-1.45 1.45 -1.4 1.4 L-1.25 1.35 -1.25 1.4 -1.2 1.35 -1.15 1.3 -1.15 1.25 -1.1 1.3 -1.0 1.3" fill="#3e4aae" fill-rule="evenodd" stroke="none"/>
    <path d="M-1.25 1.35 L-1.25 1.3 -1.2 1.35 -1.25 1.4 -1.25 1.35" fill="#485ad2" fill-rule="evenodd" stroke="none"/>
    <path d="M-1.05 2.2 L-1.25 2.2 Q-1.25 2.15 -1.25 2.15 L-1.35 2.15 -1.35 2.1 -1.25 2.05 -1.3 1.95 Q-1.35 1.9 -1.4 1.9 L-1.4 1.85 -1.35 1.85 Q-1.3 1.8 -1.35 1.75 L-1.4 1.7 -1.45 1.65 -1.6 1.7 -1.65 1.8 -1.65 1.9 -1.75 1.9 -1.8 1.85 -1.85 1.7 -1.9 1.65 -1.9 1.6 -1.8 1.65 -1.75 1.65 -1.8 1.5 -1.8 1.35 Q-1.75 1.4 -1.75 1.45 L-1.7 1.6 Q-1.65 1.65 -1.6 1.55 L-1.5 1.45 -1.5 1.45 -1.4 1.5 -1.35 1.5 -1.25 1.5 -1.15 1.45 -1.05 1.35 -0.9 1.3 -0.9 1.3 -0.8 1.35 Q-0.75 1.35 -0.75 1.4 -0.8 1.4 -0.8 1.4 L-0.85 1.5 -0.8 1.45 -0.75 1.45 -0.7 1.5 -0.65 1.5 Q-0.7 1.45 -0.65 1.4 L-0.55 1.4 Q-0.6 1.4 -0.55 1.45 L-0.5 1.55 -0.45 1.65 -0.5 1.7 -0.55 1.8 -0.5 1.85 -0.8 2.0 -1.05 2.2 M-1.15 1.55 Q-1.15 1.5 -1.2 1.5 L-1.15 1.6 -1.15 1.55 M-1.05 1.65 Q-1.0 1.65 -1.0 1.6 L-1.05 1.55 -1.1 1.6 -1.1 1.65 -1.15 1.65 -1.2 1.65 -1.2 1.7 -1.15 1.75 -1.1 1.75 -1.1 1.75 -1.05 1.7 -1.05 1.65 M-1.25 1.8 L-1.3 1.8 -1.3 1.85 -1.2 1.85 -1.25 1.8 M-1.2 2.05 L-1.2 2.1 Q-1.2 2.1 -1.15 2.05 L-1.2 2.0 -1.2 2.05 M-0.55 1.4 L-0.55 1.4 M-0.95 1.5 L-0.9 1.45 Q-0.9 1.4 -0.9 1.4 L-0.95 1.45 -0.95 1.5" fill="#4352c0" fill-rule="evenodd" stroke="none"/>
    <path d="M-1.15 1.55 L-1.15 1.6 -1.2 1.5 Q-1.15 1.5 -1.15 1.55" fill="#4f65e9" fill-rule="evenodd" stroke="none"/>
    <path d="M-1.25 2.2 L-2.2 2.2 -2.2 1.8 -2.15 1.75 -2.1 1.7 Q-2.0 1.65 -1.95 1.55 L-1.9 1.6 -1.9 1.65 -1.85 1.7 -1.85 1.8 -1.8 1.85 -1.75 1.9 -1.65 1.9 -1.65 1.8 -1.6 1.7 -1.45 1.65 -1.4 1.75 Q-1.4 1.8 -1.35 1.75 -1.3 1.8 -1.35 1.85 L-1.4 1.85 -1.4 1.9 Q-1.35 1.9 -1.3 1.95 L-1.25 2.05 -1.35 2.1 -1.35 2.15 -1.25 2.15 Q-1.25 2.15 -1.25 2.2 M-1.95 1.55 L-1.95 1.55 M-1.45 2.0 Q-1.45 1.95 -1.45 1.95 L-1.55 1.95 -1.5 2.0 -1.5 2.05 -1.4 2.0 -1.45 2.0" fill="#3c5ac9" fill-rule="evenodd" stroke="none"/>
    <path d="M-1.45 1.65 L-1.4 1.7 -1.35 1.75 Q-1.4 1.8 -1.4 1.75 L-1.45 1.65" fill="#4864e3" fill-rule="evenodd" stroke="none"/>
    <path d="M-1.1 1.65 L-1.1 1.6 -1.05 1.55 -1.0 1.6 Q-1.0 1.65 -1.05 1.65 L-1.1 1.65 -1.1 1.65" fill="#4861dd" fill-rule="evenodd" stroke="none"/>
    <path d="M-1.05 1.65 L-1.05 1.7 -1.1 1.75 -1.1 1.75 -1.15 1.75 -1.2 1.7 -1.2 1.65 -1.15 1.65 -1.1 1.65 -1.1 1.65 -1.05 1.65" fill="#5b72f7" fill-rule="evenodd" stroke="none"/>
    <path d="M-1.25 1.8 L-1.2 1.85 -1.3 1.85 -1.3 1.8 -1.25 1.8" fill="#5161e2" fill-rule="evenodd" stroke="none"/>
    <path d="M-1.95 1.5 L-1.9 1.6 -1.95 1.55 -1.95 1.45 Q-2.0 1.35 -1.95 1.4 L-1.95 1.5 M-1.9 1.65 L-1.9 1.6 -1.9 1.65" fill="#5c6bed" fill-rule="evenodd" stroke="none"/>
    <path d="M-1.8 1.85 L-1.85 1.8 -1.85 1.7 -1.8 1.85" fill="#4566e5" fill-rule="evenodd" stroke="none"/>
    <path d="M-1.2 2.05 L-1.2 2.0 -1.15 2.05 Q-1.2 2.1 -1.2 2.1 L-1.2 2.05" fill="#4f6cee" fill-rule="evenodd" stroke="none"/>
    <path d="M-1.45 2.0 L-1.4 2.0 -1.5 2.05 -1.5 2.0 -1.55 1.95 -1.45 1.95 Q-1.45 1.95 -1.45 2.0" fill="#4e76f9" fill-rule="evenodd" stroke="none"/>
    <path d="M0.05 1.4 L-0.1 1.45 -0.15 1.55 -0.2 1.6 -0.25 1.6 Q-0.3 1.6 -0.35 1.55 L-0.45 1.55 -0.4 1.65 Q-0.4 1.65 -0.45 1.65 L-0.5 1.55 Q-0.45 1.55 -0.5 1.5 L-0.5 1.4 -0.45 1.4 Q-0.45 1.4 -0.45 1.35 L-0.3 1.45 -0.35 1.35 -0.2 1.3 -0.2 1.35 -0.1 1.35 0.05 1.4 M-0.25 1.6 L-0.25 1.6" fill="#4456c8" fill-rule="evenodd" stroke="none"/>
    <path d="M-0.35 1.35 L-0.3 1.45 -0.45 1.35 -0.45 1.35 -0.4 1.3 -0.35 1.35" fill="#4664e3" fill-rule="evenodd" stroke="none"/>
    <path d="M-0.2 1.3 L-0.35 1.35 -0.4 1.3 -0.2 1.3" fill="#2d387e" fill-rule="evenodd" stroke="none"/>
    <path d="M-0.45 1.35 Q-0.45 1.4 -0.45 1.4 L-0.5 1.4 -0.55 1.4 -0.5 1.35 -0.45 1.35 -0.45 1.35 M-0.55 1.4 L-0.55 1.4" fill="#4d4366" fill-rule="evenodd" stroke="none"/>
    <path d="M-0.45 1.65 Q-0.4 1.65 -0.4 1.65 L-0.45 1.55 -0.35 1.55 Q-0.3 1.6 -0.25 1.6 L-0.3 1.65 -0.4 1.7 -0.5 1.7 -0.45 1.65" fill="#5a42b6" fill-rule="evenodd" stroke="none"/>
    <path d="M-0.25 1.6 L-0.25 1.6 -0.2 1.65 Q-0.15 1.7 -0.15 1.7 L-0.25 1.7 -0.3 1.65 -0.25 1.6" fill="#8d4cea" fill-rule="evenodd" stroke="none"/>
    <path d="M-0.1 2.2 L-1.05 2.2 -0.8 2.0 -0.5 1.85 -0.55 1.8 -0.5 1.7 -0.4 1.7 -0.3 1.65 -0.25 1.7 -0.15 1.7 -0.1 1.75 -0.15 1.75 -0.15 1.8 -0.2 1.9 -0.15 2.0 0.0 2.1 -0.1 2.2 M-0.05 1.8 L-0.1 1.75 -0.05 1.8 M-0.25 2.1 L-0.3 1.9 Q-0.3 1.8 -0.4 1.75 -0.3 1.9 -0.3 2.1 L-0.25 2.1" fill="#6e30a6" fill-rule="evenodd" stroke="none"/>
    <path d="M-0.05 1.8 L-0.1 1.75 -0.05 1.65 Q0.05 1.7 -0.05 1.8" fill="#843bca" fill-rule="evenodd" stroke="none"/>
    <path d="M-0.5 1.35 Q-0.6 1.35 -0.6 1.25 -0.55 1.25 -0.55 1.3 -0.5 1.3 -0.5 1.35" fill="#4f3434" fill-rule="evenodd" stroke="none"/>
    <path d="M-0.9 1.3 L-0.7 1.35 -0.65 1.4 Q-0.7 1.45 -0.65 1.5 L-0.7 1.5 -0.75 1.45 -0.8 1.45 -0.85 1.5 -0.8 1.4 Q-0.8 1.4 -0.75 1.4 -0.75 1.35 -0.8 1.35 L-0.9 1.3" fill="#4964e0" fill-rule="evenodd" stroke="none"/>
    <path d="M-0.5 1.4 L-0.5 1.5 Q-0.45 1.55 -0.5 1.55 L-0.55 1.45 Q-0.6 1.4 -0.55 1.4 L-0.5 1.4" fill="#4a68eb" fill-rule="evenodd" stroke="none"/>
    <path d="M-0.95 1.5 L-0.95 1.45 -0.9 1.4 Q-0.9 1.4 -0.9 1.45 L-0.95 1.5" fill="#516bee" fill-rule="evenodd" stroke="none"/>
    <path d="M-0.25 2.1 L-0.3 2.1 Q-0.3 1.9 -0.4 1.75 -0.3 1.8 -0.3 1.9 L-0.25 2.1" fill="#8e3dd5" fill-rule="evenodd" stroke="none"/>
    <path d="M-2.2 1.8 L-2.2 1.6 -2.05 1.6 -1.95 1.55 Q-2.0 1.65 -2.1 1.7 L-2.15 1.75 -2.2 1.8" fill="#3b4eb8" fill-rule="evenodd" stroke="none"/>
  </g>
</svg>
