<?xml version="1.0" encoding="UTF-8" standalone="no"?>
<svg xmlns:xlink="http://www.w3.org/1999/xlink" height="10.55px" width="7.3px" xmlns="http://www.w3.org/2000/svg">
  <g transform="matrix(1.0, 0.0, 0.0, 1.0, 3.05, 4.3)">
    <path d="M1.45 -3.7 L1.4 -3.9 1.7 -3.75 1.75 -3.7 1.85 -3.6 1.8 -3.6 1.75 -3.6 1.7 -3.6 1.45 -3.7 M1.95 -2.85 L2.05 -2.85 2.0 -2.85 1.6 -2.15 1.55 -2.0 1.1 -1.4 0.75 -1.0 0.75 -1.05 Q0.8 -1.2 1.2 -1.7 1.35 -1.85 1.45 -2.1 L1.55 -2.5 1.45 -2.55 1.45 -2.55 Q1.4 -2.55 1.15 -2.3 L1.0 -2.1 0.6 -1.6 0.2 -1.1 0.0 -0.8 -0.05 -0.65 -0.2 -0.6 -0.35 -0.5 -0.45 -0.55 -0.45 -0.4 -0.5 -0.35 -0.7 -0.15 -1.0 0.1 -1.0 0.05 -1.05 0.0 -1.1 -0.1 -1.05 -0.1 -0.25 -0.8 0.55 -1.75 0.85 -2.1 1.05 -2.35 1.3 -2.7 1.4 -2.95 1.95 -2.8 1.95 -2.85 M2.6 -1.4 Q2.9 -1.25 3.15 -1.2 3.05 -0.9 2.95 -0.9 2.55 -1.15 2.45 -1.15 2.1 -1.15 1.95 -1.35 L2.0 -1.45 2.0 -1.55 2.55 -1.3 2.6 -1.4 M-0.75 -2.25 L-1.1 -2.35 Q-1.35 -2.4 -1.95 -2.85 L-2.05 -2.9 -2.15 -3.0 -2.15 -3.05 -2.05 -3.05 -1.95 -2.9 -1.6 -2.7 Q-1.3 -2.55 -1.1 -2.55 L-0.95 -2.6 -1.15 -2.75 -1.2 -2.8 -1.5 -3.1 -1.35 -3.15 -1.35 -3.3 -1.25 -3.3 -1.25 -3.45 0.05 -2.8 0.05 -2.7 0.0 -2.7 -0.05 -2.7 -0.05 -2.75 -0.1 -2.65 -0.2 -2.6 Q-0.25 -2.6 -0.5 -2.75 L-0.85 -2.95 -0.75 -2.8 -0.5 -2.6 -0.65 -2.6 -0.55 -2.5 -0.4 -2.45 -0.35 -2.45 Q-0.2 -2.35 -0.15 -2.35 -0.1 -2.35 -0.05 -2.45 L-0.05 -2.6 0.1 -2.55 0.2 -2.6 Q0.25 -2.6 0.4 -2.45 L0.5 -2.35 Q0.45 -2.25 0.45 -2.2 L0.45 -2.1 Q0.4 -2.05 0.4 -2.05 L-0.8 -2.45 -0.85 -2.45 -0.75 -2.25 M-2.45 -3.25 Q-2.9 -3.65 -3.0 -3.95 L-2.7 -4.2 -2.7 -4.2 -2.45 -4.2 -2.3 -4.1 -2.1 -3.9 -2.0 -3.8 -1.9 -3.6 -1.9 -3.6 -1.9 -3.55 -2.15 -3.65 -2.35 -3.8 -2.45 -3.6 -2.45 -3.55 -2.4 -3.45 -2.45 -3.35 -2.5 -3.3 -2.45 -3.25" fill="#394b5b" fill-rule="evenodd" stroke="none"/>
    <path d="M1.45 -3.7 L1.7 -3.6 1.75 -3.6 1.8 -3.6 1.85 -3.6 1.85 -3.5 1.75 -3.5 1.85 -3.4 Q1.85 -3.35 1.75 -3.35 L1.6 -3.4 1.55 -3.45 1.45 -3.5 1.45 -3.7 M1.95 -3.0 L1.95 -2.85 1.95 -2.8 1.4 -2.95 1.45 -3.15 1.95 -3.0 M-2.2 -3.05 L-2.45 -3.25 -2.5 -3.3 -2.45 -3.35 -2.4 -3.45 -2.45 -3.55 -2.45 -3.6 -2.35 -3.8 -2.15 -3.65 -1.9 -3.55 -1.95 -3.55 Q-2.05 -3.35 -2.0 -3.25 L-2.0 -3.25 -2.15 -3.15 -2.2 -3.05 M-2.0 -3.8 L-1.95 -3.75 -1.85 -3.7 -1.9 -3.6 -2.0 -3.8 M-1.55 -3.6 L-1.25 -3.45 -1.25 -3.3 -1.35 -3.3 -1.35 -3.15 -1.5 -3.1 -1.2 -2.8 -1.15 -2.75 -0.95 -2.6 -1.1 -2.55 Q-1.3 -2.55 -1.6 -2.7 L-1.95 -2.9 -1.85 -3.0 -1.7 -3.05 -1.7 -3.15 -1.75 -3.25 -1.6 -3.45 -1.55 -3.6" fill="#49869a" fill-rule="evenodd" stroke="none"/>
    <path d="M1.85 -3.5 L1.9 -3.45 1.95 -3.0 1.45 -3.15 1.45 -3.5 1.55 -3.45 1.6 -3.4 1.75 -3.35 Q1.85 -3.35 1.85 -3.4 L1.75 -3.5 1.85 -3.5 M-2.15 -3.0 L-2.2 -3.05 -2.15 -3.15 -2.0 -3.25 -2.0 -3.25 Q-2.05 -3.35 -1.95 -3.55 L-1.9 -3.55 -1.9 -3.6 -1.9 -3.6 -1.85 -3.7 -1.55 -3.6 -1.6 -3.45 -1.75 -3.25 -1.7 -3.15 -1.7 -3.05 -1.85 -3.0 -1.95 -2.9 -2.05 -3.05 -2.15 -3.05 -2.15 -3.0" fill="#75acbf" fill-rule="evenodd" stroke="none"/>
    <path d="M1.8 -1.8 L1.95 -1.75 2.35 -1.5 Q2.5 -1.45 2.6 -1.4 L2.55 -1.3 2.0 -1.55 2.0 -1.45 1.95 -1.35 Q2.1 -1.15 2.45 -1.15 2.55 -1.15 2.95 -0.9 3.05 -0.9 3.15 -1.2 L3.25 -1.2 Q3.4 -1.2 3.4 -1.15 L3.3 -0.8 Q3.2 -0.55 3.15 -0.55 3.1 -0.55 2.8 -0.7 L2.35 -1.0 1.7 -1.15 1.6 -1.2 1.75 -1.6 1.8 -1.8 M0.75 -1.0 L0.55 -0.8 -0.05 -0.2 -0.1 -0.25 Q-0.15 -0.1 -0.25 -0.1 L-0.45 -0.05 -0.6 0.1 -0.75 0.25 -0.8 0.2 -0.85 0.2 Q-0.95 0.2 -0.95 0.3 L-0.95 0.35 -0.95 0.35 -1.0 0.4 Q-1.15 0.5 -1.15 0.6 L-1.2 0.65 Q-1.3 0.6 -1.3 0.35 L-1.3 0.3 -1.35 0.25 -1.45 0.25 -1.4 0.45 -1.4 0.45 -1.5 0.4 Q-1.6 0.4 -1.6 0.45 L-1.55 0.55 -1.45 0.7 Q-1.5 0.85 -1.5 0.8 L-1.55 0.75 Q-1.65 0.75 -1.65 0.8 L-1.65 0.95 -1.65 0.95 -1.75 0.8 -1.75 0.75 -1.85 0.7 Q-1.9 0.7 -1.9 0.75 L-1.9 0.85 -1.85 0.9 -1.8 1.05 -1.9 1.15 -2.0 1.0 Q-2.1 1.0 -2.1 1.1 L-2.0 1.35 Q-2.05 1.35 -2.1 1.35 L-2.2 1.25 -2.3 1.2 -2.3 1.2 -2.2 1.1 -2.15 0.95 -2.15 0.75 -1.1 -0.1 -1.05 0.0 -1.0 0.05 -1.0 0.1 -0.7 -0.15 -0.5 -0.35 -0.45 -0.4 -0.45 -0.55 -0.35 -0.5 -0.2 -0.6 -0.05 -0.65 0.0 -0.8 0.2 -1.1 0.6 -1.6 1.0 -2.1 1.15 -2.3 Q1.4 -2.55 1.45 -2.55 L1.45 -2.55 1.55 -2.5 1.45 -2.1 Q1.35 -1.85 1.2 -1.7 0.8 -1.2 0.75 -1.05 L0.75 -1.0 M0.55 -1.75 L-0.15 -2.05 Q-0.5 -2.2 -0.75 -2.25 L-0.85 -2.45 -0.8 -2.45 0.4 -2.05 Q0.4 -2.05 0.45 -2.1 L0.45 -2.2 Q0.45 -2.25 0.5 -2.35 L0.4 -2.45 Q0.25 -2.6 0.2 -2.6 L0.1 -2.55 -0.05 -2.6 -0.05 -2.45 Q-0.1 -2.35 -0.15 -2.35 -0.2 -2.35 -0.35 -2.45 L-0.4 -2.45 -0.55 -2.5 -0.65 -2.6 -0.5 -2.6 -0.75 -2.8 -0.85 -2.95 -0.5 -2.75 Q-0.25 -2.6 -0.2 -2.6 L-0.1 -2.65 -0.05 -2.75 -0.05 -2.7 0.0 -2.7 0.05 -2.7 0.05 -2.8 Q0.55 -2.55 1.05 -2.35 L0.85 -2.1 0.55 -1.75" fill="#2a323c" fill-rule="evenodd" stroke="none"/>
    <path d="M1.55 -2.0 Q1.65 -1.9 1.8 -1.8 L1.75 -1.6 1.6 -1.2 1.4 -1.25 Q1.15 -1.35 1.1 -1.4 L1.55 -2.0 M-0.05 -0.2 L-0.9 0.65 -1.0 0.75 Q-2.1 1.8 -2.3 1.8 -2.4 1.75 -2.55 1.5 L-2.7 1.2 -2.15 0.75 -2.15 0.95 -2.2 1.1 -2.3 1.2 -2.3 1.2 -2.2 1.25 -2.1 1.35 Q-2.05 1.35 -2.0 1.35 L-2.1 1.1 Q-2.1 1.0 -2.0 1.0 L-1.9 1.15 -1.8 1.05 -1.85 0.9 -1.9 0.85 -1.9 0.75 Q-1.9 0.7 -1.85 0.7 L-1.75 0.75 -1.75 0.8 -1.65 0.95 -1.65 0.95 -1.65 0.8 Q-1.65 0.75 -1.55 0.75 L-1.5 0.8 Q-1.5 0.85 -1.45 0.7 L-1.55 0.55 -1.6 0.45 Q-1.6 0.4 -1.5 0.4 L-1.4 0.45 -1.4 0.45 -1.45 0.25 -1.35 0.25 -1.3 0.3 -1.3 0.35 Q-1.3 0.6 -1.2 0.65 L-1.15 0.6 Q-1.15 0.5 -1.0 0.4 L-0.95 0.35 -0.95 0.35 -0.95 0.3 Q-0.95 0.2 -0.85 0.2 L-0.8 0.2 -0.75 0.25 -0.6 0.1 -0.45 -0.05 -0.25 -0.1 Q-0.15 -0.1 -0.1 -0.25 L-0.05 -0.2" fill="#181d23" fill-rule="evenodd" stroke="none"/>
    <path d="M-2.05 3.1 L-2.05 3.05 Q-2.05 2.95 -1.95 2.95 L-1.85 2.95 Q-1.4 2.7 -1.0 2.65 L-0.45 2.5 0.2 2.4 0.35 2.4 0.45 2.4 0.6 2.35 0.65 2.35 1.2 2.2 1.2 2.25 1.15 2.35 1.05 2.45 1.0 2.4 Q0.4 2.75 0.3 2.8 L0.2 2.8 -0.1 2.85 Q-0.05 2.75 0.0 2.6 L0.1 2.65 0.2 2.6 0.45 2.4 0.2 2.5 0.05 2.55 Q-0.65 2.85 -1.4 2.9 L-1.5 2.95 Q-1.4 2.95 -1.35 3.0 L-1.35 3.0 -1.15 3.15 -1.3 3.15 -1.85 3.2 -2.0 3.15 -2.05 3.1 M1.5 2.2 L1.65 2.15 1.7 2.15 2.0 2.15 2.1 2.1 2.45 2.0 3.45 2.2 3.5 2.15 3.7 2.35 3.75 2.4 3.7 2.4 3.6 2.4 3.15 2.4 2.7 2.3 2.2 2.15 2.1 2.2 2.2 2.35 2.1 2.35 2.05 2.3 2.05 2.35 2.25 2.45 2.6 2.4 3.2 2.45 3.35 2.45 2.85 2.55 2.4 2.5 Q2.55 2.7 3.2 2.7 3.35 2.7 3.6 2.75 L3.65 2.8 3.75 2.85 3.7 3.0 3.65 3.05 3.45 3.05 3.2 3.05 3.05 2.95 Q2.65 2.8 2.55 2.75 L2.5 2.75 2.35 2.8 2.2 2.65 2.15 2.65 Q1.9 2.45 1.8 2.45 1.75 2.45 1.65 2.5 L1.65 2.55 1.65 2.5 1.55 2.5 1.5 2.35 1.5 2.2 M2.7 3.4 L2.7 3.9 2.5 4.35 2.45 4.45 Q2.25 4.75 2.2 4.95 L2.15 5.1 2.1 5.15 2.05 5.15 1.85 5.1 1.85 5.3 1.75 5.35 1.65 5.05 Q1.6 5.1 1.6 5.15 L1.6 5.3 Q1.6 5.35 1.55 5.35 L1.4 5.25 1.4 5.15 1.4 5.1 Q1.4 4.85 0.95 4.35 L0.85 4.15 0.7 3.95 0.8 3.9 0.85 3.8 0.95 3.7 0.95 3.75 1.0 3.8 1.05 3.9 1.15 4.05 1.9 4.7 Q2.15 4.2 2.2 3.9 L2.25 3.3 2.3 3.35 2.55 3.45 2.65 3.4 2.7 3.4 M0.8 2.65 L0.75 2.7 0.85 2.7 1.15 2.6 1.2 2.65 Q1.1 2.7 1.1 2.8 L1.15 2.9 1.2 2.95 1.2 3.0 Q1.0 3.0 0.8 3.1 L0.75 3.15 0.55 3.2 Q0.4 3.3 0.25 3.35 L0.6 3.15 0.65 3.05 0.8 2.9 0.8 2.85 0.3 2.95 0.8 2.65 M0.05 3.5 L-0.1 3.55 -0.3 3.6 Q-0.75 3.8 -1.15 3.8 L-1.2 3.8 -1.45 3.8 -1.5 3.8 -1.75 3.8 -1.75 3.8 Q-1.6 3.75 -1.45 3.75 L-1.2 3.75 Q-0.9 3.7 -0.8 3.55 L-0.8 3.55 -1.1 3.65 -1.2 3.65 -1.7 3.55 -1.7 3.5 -1.6 3.5 -1.45 3.5 -1.3 3.45 -1.0 3.5 -0.7 3.45 -0.75 3.4 -0.85 3.4 -0.8 3.35 -0.75 3.3 -0.6 3.35 -0.4 3.3 -0.35 3.35 Q-0.35 3.45 -0.5 3.5 -0.65 3.55 -0.7 3.6 L-0.7 3.65 -0.45 3.6 -0.25 3.55 -0.1 3.5 0.05 3.5 M-0.75 4.3 L-0.75 4.3 -0.8 4.5 Q-0.8 4.8 -0.6 5.0 -0.4 5.2 -0.15 5.2 -0.05 5.2 0.05 5.1 0.15 5.0 0.15 4.9 0.15 4.7 0.05 4.45 L0.15 4.6 0.25 4.65 0.35 4.65 0.15 4.25 0.15 4.2 0.5 4.45 Q0.65 4.55 0.65 4.85 L0.6 5.2 0.45 5.35 0.4 5.45 Q0.25 5.6 0.05 5.6 L-0.45 5.5 -0.95 5.15 -1.05 5.05 Q-1.3 4.75 -1.45 4.35 L-1.45 4.3 -1.5 4.0 Q-1.45 4.15 -1.35 4.3 L-1.3 4.35 Q-1.2 4.6 -0.95 4.75 L-0.9 4.75 -0.95 4.35 -0.95 4.25 -0.9 4.2 -0.85 4.25 -0.75 4.3 M-0.55 4.25 L-0.65 4.2 -0.65 4.2 -0.65 4.2 -0.6 4.25 -0.55 4.25 M-0.9 4.8 L-0.9 4.75 -0.9 4.8" fill="#13151c" fill-rule="evenodd" stroke="none"/>
    <path d="M2.4 5.85 L2.15 6.05 1.8 6.1 1.2 6.25 1.2 6.2 1.1 6.2 1.05 6.2 1.15 6.0 1.25 5.85 1.3 5.85 1.3 5.8 1.35 5.5 1.35 5.4 1.4 5.25 1.55 5.35 Q1.6 5.35 1.6 5.3 L1.6 5.15 Q1.6 5.1 1.65 5.05 L1.75 5.35 1.85 5.3 1.85 5.1 2.05 5.15 2.1 5.15 2.15 5.1 2.2 5.7 Q2.25 5.9 2.25 5.9 L2.4 5.85 M-2.05 3.45 L-2.1 3.35 -2.05 3.15 -2.05 3.1 -2.0 3.15 -1.85 3.2 -1.3 3.15 -1.15 3.15 Q-0.75 3.05 -0.4 2.95 L-0.1 2.85 0.2 2.8 0.3 2.8 Q0.4 2.75 1.0 2.4 L1.05 2.45 0.8 2.65 0.3 2.95 0.25 2.95 0.2 3.0 -0.3 3.25 -0.4 3.3 -0.6 3.35 -0.75 3.3 -0.8 3.35 -0.85 3.4 -0.75 3.4 -0.7 3.45 -1.0 3.5 -1.3 3.45 -1.45 3.5 -1.6 3.5 -1.7 3.5 -1.7 3.55 -1.2 3.65 -1.1 3.65 -0.8 3.55 -0.8 3.55 Q-0.9 3.7 -1.2 3.75 L-1.45 3.75 Q-1.6 3.75 -1.75 3.8 L-1.85 3.75 -1.95 3.65 -2.05 3.45 M3.75 2.4 L3.8 2.55 3.8 2.6 3.75 2.85 3.65 2.8 3.6 2.75 Q3.35 2.7 3.2 2.7 2.55 2.7 2.4 2.5 L2.85 2.55 3.35 2.45 3.2 2.45 2.6 2.4 2.25 2.45 2.05 2.35 2.05 2.3 2.1 2.35 2.2 2.35 2.1 2.2 2.2 2.15 2.7 2.3 3.15 2.4 3.6 2.4 3.7 2.4 3.75 2.4 M2.65 3.3 L2.7 3.4 2.65 3.4 2.55 3.45 2.3 3.35 2.25 3.3 2.25 3.2 2.25 3.0 2.2 2.65 2.35 2.8 2.5 2.75 2.55 2.75 2.65 3.15 2.65 3.3 M0.55 3.2 L0.75 3.15 0.8 3.1 0.8 3.2 Q0.8 3.45 0.95 3.7 L0.85 3.8 0.8 3.9 0.7 3.95 0.65 3.9 Q0.55 3.6 0.55 3.4 0.55 3.3 0.55 3.2 M-0.1 3.55 Q-0.1 3.95 -0.15 4.05 L-0.25 4.25 -0.45 4.3 -0.45 4.3 -0.55 4.25 -0.55 4.25 -0.6 4.25 -0.65 4.2 -0.65 4.2 -0.75 4.3 -0.85 4.25 -0.9 4.2 Q-0.85 4.05 -0.7 4.0 -0.4 3.9 -0.3 3.6 L-0.1 3.55" fill="#0b0c10" fill-rule="evenodd" stroke="none"/>
    <path d="M1.2 2.2 L1.5 2.2 1.5 2.35 1.55 2.5 1.65 2.5 1.65 2.55 1.55 2.6 Q1.35 2.8 1.35 2.8 L1.35 2.95 1.2 3.0 1.2 2.95 1.15 2.9 1.1 2.8 Q1.1 2.7 1.2 2.65 L1.15 2.6 0.85 2.7 0.75 2.7 0.8 2.65 1.05 2.45 1.15 2.35 1.2 2.25 1.2 2.2 M-0.1 2.85 L-0.4 2.95 Q-0.75 3.05 -1.15 3.15 L-1.35 3.0 -1.35 3.0 Q-1.4 2.95 -1.5 2.95 L-1.4 2.9 Q-0.65 2.85 0.05 2.55 L0.2 2.5 0.45 2.4 0.2 2.6 0.1 2.65 0.0 2.6 Q-0.05 2.75 -0.1 2.85 M0.3 2.95 L0.8 2.85 0.8 2.9 0.65 3.05 0.6 3.15 0.25 3.35 0.2 3.4 0.15 3.4 0.05 3.45 0.05 3.5 -0.1 3.5 -0.25 3.55 -0.45 3.6 -0.7 3.65 -0.7 3.6 Q-0.65 3.55 -0.5 3.5 -0.35 3.45 -0.35 3.35 L-0.4 3.3 -0.3 3.25 0.2 3.0 0.25 2.95 0.3 2.95" fill="#222633" fill-rule="evenodd" stroke="none"/>
    <path d="M-0.45 5.7 L-0.45 5.7 -0.6 5.65 Q-0.7 5.6 -0.75 5.6 L-1.05 5.45 -1.1 5.4 -1.2 5.35 -1.4 5.25 -1.55 5.1 -1.65 5.05 -1.8 4.85 -1.85 4.75 -1.9 4.7 -2.0 4.6 -2.0 4.55 -2.1 4.25 -2.1 4.2 -2.0 4.2 -1.75 4.25 -1.7 4.25 -1.65 4.45 -1.6 4.55 -1.5 4.75 Q-1.3 5.0 -1.15 5.15 L-1.05 5.25 -0.45 5.7 M3.55 3.3 L3.6 3.55 3.6 3.6 3.55 3.9 3.4 4.4 3.25 4.75 3.0 4.95 2.9 4.95 Q2.8 4.95 2.75 4.75 L2.75 4.7 2.7 4.45 Q2.7 4.05 2.95 3.9 L2.95 4.2 Q3.0 4.35 3.2 4.35 L3.35 4.3 3.45 4.15 3.5 3.9 3.5 3.85 Q3.5 3.75 3.25 3.6 L3.15 3.45 3.3 3.4 3.55 3.3 M0.95 3.7 L1.05 3.6 1.15 3.55 1.35 3.35 Q1.75 3.0 1.8 3.0 L1.85 3.05 1.85 3.2 2.0 3.2 2.05 3.15 2.2 3.2 2.25 3.2 2.25 3.3 2.2 3.9 Q2.15 4.2 1.9 4.7 L1.15 4.05 1.05 3.9 1.0 3.8 0.95 3.75 0.95 3.7 M-1.35 4.3 L-0.95 4.25 -0.95 4.25 -0.95 4.35 -0.9 4.75 -0.95 4.75 Q-1.2 4.6 -1.3 4.35 L-1.35 4.3 M-1.8 4.85 L-1.85 4.75 -1.8 4.85 M-0.9 4.8 L-0.9 4.75 -0.9 4.8" fill="#622525" fill-rule="evenodd" stroke="none"/>
    <path d="M-2.1 4.2 L-2.15 3.9 -2.15 3.75 -2.1 3.55 -2.05 3.45 -2.05 3.45 -1.95 3.65 -1.85 3.75 -1.8 3.85 -1.75 4.15 -1.7 4.25 -1.75 4.25 -2.0 4.2 -2.1 4.2 M3.15 3.45 L3.1 3.4 Q3.05 3.3 3.05 3.15 L3.05 2.95 3.2 3.05 3.45 3.05 3.55 3.3 3.3 3.4 3.15 3.45 M1.2 3.0 L1.35 2.95 1.35 2.8 Q1.35 2.8 1.55 2.6 L1.65 2.55 1.65 2.5 Q1.75 2.45 1.8 2.45 1.9 2.45 2.15 2.65 L2.2 2.65 2.25 3.0 2.25 3.2 2.2 3.2 2.05 3.15 2.0 3.2 1.85 3.2 1.85 3.05 1.8 3.0 Q1.75 3.0 1.35 3.35 L1.15 3.55 1.05 3.6 0.95 3.7 Q0.8 3.45 0.8 3.2 L0.8 3.1 Q1.0 3.0 1.2 3.0 M-1.45 3.8 L-1.2 3.8 -1.15 3.8 Q-0.75 3.8 -0.3 3.6 -0.4 3.9 -0.7 4.0 -0.85 4.05 -0.9 4.2 L-0.95 4.25 -0.95 4.25 -1.35 4.3 Q-1.45 4.15 -1.5 4.0 L-1.5 3.85 -1.45 3.8" fill="#411818" fill-rule="evenodd" stroke="none"/>
    <path d="M3.7 3.0 L3.65 3.2 3.65 3.25 3.55 3.3 3.45 3.05 3.65 3.05 3.7 3.0 M3.1 3.4 Q3.05 3.45 3.0 3.45 L2.85 3.5 Q2.85 3.5 2.75 3.4 L2.65 3.3 2.65 3.15 2.55 2.75 Q2.65 2.8 3.05 2.95 L3.05 3.15 Q3.05 3.3 3.1 3.4 M0.25 3.35 Q0.4 3.3 0.55 3.2 0.55 3.3 0.55 3.4 0.55 3.6 0.65 3.9 L0.6 3.95 Q0.45 4.15 0.35 4.15 L0.2 4.1 0.15 4.05 0.0 4.15 -0.05 4.1 -0.15 4.05 Q-0.1 3.95 -0.1 3.55 L0.05 3.5 0.05 3.45 0.15 3.4 0.2 3.4 0.25 3.35 M-1.75 3.8 L-1.75 3.8 -1.5 3.8 -1.5 4.0 -1.45 4.3 -1.45 4.35 -1.6 4.4 -1.65 4.45 -1.7 4.25 -1.75 4.15 -1.8 3.85 -1.85 3.75 -1.75 3.8" fill="#35131f" fill-rule="evenodd" stroke="none"/>
    <path d="M-0.15 4.05 L-0.05 4.1 0.0 4.15 0.15 4.05 0.2 4.1 0.35 4.15 Q0.45 4.15 0.6 3.95 L0.65 3.9 0.7 3.95 0.85 4.15 0.95 4.35 Q1.4 4.85 1.4 5.1 L1.4 5.15 1.25 5.1 1.2 5.1 1.05 5.05 Q1.0 5.05 0.95 5.1 L0.9 5.1 0.8 5.05 0.75 5.0 0.65 5.1 0.6 5.2 0.65 4.85 Q0.65 4.55 0.5 4.45 L0.15 4.2 0.15 4.25 0.35 4.65 0.25 4.65 0.15 4.6 0.05 4.45 Q0.15 4.7 0.15 4.9 0.15 5.0 0.05 5.1 -0.05 5.2 -0.15 5.2 -0.4 5.2 -0.6 5.0 -0.8 4.8 -0.8 4.5 L-0.75 4.3 -0.75 4.3 -0.65 4.2 -0.65 4.2 -0.55 4.25 -0.55 4.25 -0.45 4.3 -0.45 4.3 -0.25 4.25 -0.15 4.05 M-0.95 5.15 L-1.05 5.1 -1.15 5.15 Q-1.3 5.0 -1.5 4.75 L-1.6 4.55 -1.65 4.45 -1.6 4.4 -1.45 4.35 Q-1.3 4.75 -1.05 5.05 L-0.95 5.15" fill="#622439" fill-rule="evenodd" stroke="none"/>
    <path d="M3.8 2.6 Q3.95 2.8 4.0 3.15 L4.1 3.5 4.15 3.65 4.2 3.9 4.15 4.25 4.1 4.45 Q4.0 4.6 4.0 4.7 L4.0 4.8 3.95 4.85 3.9 4.9 3.85 5.0 3.65 5.15 3.45 5.3 3.1 5.5 Q2.65 5.8 2.4 5.85 L2.25 5.9 Q2.25 5.9 2.2 5.7 L2.15 5.1 2.2 4.95 Q2.25 4.75 2.45 4.45 L2.5 4.35 2.7 3.9 2.7 3.4 2.65 3.3 2.75 3.4 Q2.85 3.5 2.85 3.5 L3.0 3.45 Q3.05 3.45 3.1 3.4 L3.15 3.45 3.25 3.6 Q3.5 3.75 3.5 3.85 L3.5 3.9 3.45 4.15 3.35 4.3 3.2 4.35 Q3.0 4.35 2.95 4.2 L2.95 3.9 Q2.7 4.05 2.7 4.45 L2.75 4.7 2.75 4.75 Q2.8 4.95 2.9 4.95 L3.0 4.95 3.25 4.75 3.4 4.4 3.55 3.9 3.6 3.6 3.6 3.55 3.55 3.3 3.65 3.25 3.65 3.2 3.7 3.0 3.75 2.85 3.8 2.6 M1.1 6.2 L0.95 6.2 0.85 6.25 0.45 6.1 0.15 6.05 -0.25 5.75 -0.4 5.75 -0.45 5.7 -1.05 5.25 -1.15 5.15 -1.05 5.1 -0.95 5.15 -0.45 5.5 0.05 5.6 Q0.25 5.6 0.4 5.45 L0.45 5.35 0.6 5.2 0.65 5.1 0.75 5.0 0.8 5.05 0.9 5.1 0.95 5.1 Q1.0 5.05 1.05 5.05 L1.2 5.1 1.25 5.1 1.4 5.15 1.4 5.25 1.35 5.4 1.35 5.5 1.3 5.8 1.3 5.85 1.25 5.85 1.15 6.0 1.05 6.2 1.1 6.2" fill="#481a2a" fill-rule="evenodd" stroke="none"/>
    <path d="M-1.5 3.8 L-1.45 3.8 -1.5 3.85 -1.5 4.0 -1.5 3.8" fill="#1c304d" fill-rule="evenodd" stroke="none"/>
    <path d="M1.85 -3.6 L1.75 -3.7 1.7 -3.75 1.4 -3.9 1.45 -3.7 1.45 -3.5 1.45 -3.15 1.4 -2.95 1.3 -2.7 1.05 -2.35 Q0.55 -2.55 0.05 -2.8 L-1.25 -3.45 -1.55 -3.6 -1.85 -3.7 -1.95 -3.75 -2.0 -3.8 -2.1 -3.9 -2.3 -4.1 -2.45 -4.2 -2.7 -4.2 -2.7 -4.2 -3.0 -3.95 Q-2.9 -3.65 -2.45 -3.25 L-2.2 -3.05 -2.15 -3.0 -2.05 -2.9 -1.95 -2.85 Q-1.35 -2.4 -1.1 -2.35 L-0.75 -2.25 Q-0.5 -2.2 -0.15 -2.05 L0.55 -1.75 -0.25 -0.8 -1.05 -0.1 -1.1 -0.1 -2.15 0.75 -2.7 1.2 -2.55 1.5 Q-2.4 1.75 -2.3 1.8 -2.1 1.8 -1.0 0.75 L-0.9 0.65 -0.05 -0.2 0.55 -0.8 0.75 -1.0 1.1 -1.4 Q1.15 -1.35 1.4 -1.25 L1.6 -1.2 1.7 -1.15 2.35 -1.0 2.8 -0.7 Q3.1 -0.55 3.15 -0.55 3.2 -0.55 3.3 -0.8 L3.4 -1.15 Q3.4 -1.2 3.25 -1.2 L3.15 -1.2 Q2.9 -1.25 2.6 -1.4 2.5 -1.45 2.35 -1.5 L1.95 -1.75 1.8 -1.8 Q1.65 -1.9 1.55 -2.0 L1.6 -2.15 2.0 -2.85 2.05 -2.85 1.95 -2.85 1.95 -3.0 1.9 -3.45 1.85 -3.5 1.85 -3.6 M3.8 2.6 Q3.95 2.8 4.0 3.15 L4.1 3.5 4.15 3.65 4.2 3.9 4.15 4.25 M-1.2 5.35 L-1.4 5.25 -1.55 5.1 -1.65 5.05 -1.8 4.85 -1.85 4.75 -1.9 4.7 -2.0 4.6 -2.0 4.55 -2.1 4.25 -2.1 4.2 -2.15 3.9 -2.15 3.75 -2.1 3.55 -2.05 3.45 -2.05 3.45 -2.1 3.35 -2.05 3.15 -2.05 3.1 -2.05 3.05 Q-2.05 2.95 -1.95 2.95 L-1.85 2.95 Q-1.4 2.7 -1.0 2.65 L-0.45 2.5 0.2 2.4 0.35 2.4 0.45 2.4 0.6 2.35 0.65 2.35 1.2 2.2 1.5 2.2 1.65 2.15 1.7 2.15 2.0 2.15 2.1 2.1 2.45 2.0 3.45 2.2 3.5 2.15 3.7 2.35 3.75 2.4 3.8 2.55 3.8 2.6" fill="none" stroke="#000000" stroke-linecap="round" stroke-linejoin="round" stroke-opacity="0.4509804" stroke-width="0.1"/>
  </g>
</svg>
