<?xml version="1.0" encoding="UTF-8" standalone="no"?>
<svg xmlns:xlink="http://www.w3.org/1999/xlink" height="4.4px" width="4.4px" xmlns="http://www.w3.org/2000/svg">
  <g transform="matrix(1.0, 0.0, 0.0, 1.0, 2.2, 2.2)">
    <path d="M-2.2 -1.6 L-2.2 -2.2 -1.75 -2.2 -1.7 -2.1 -1.65 -2.0 Q-1.6 -1.95 -1.7 -1.95 L-1.7 -1.9 Q-1.75 -1.8 -1.8 -1.9 L-1.9 -2.0 -2.0 -2.1 -2.05 -1.95 -2.15 -1.85 -1.9 -1.65 -1.8 -1.55 -1.7 -1.5 -1.75 -1.3 -2.2 -1.6" fill="#152a40" fill-rule="evenodd" stroke="none"/>
    <path d="M-1.9 -1.65 L-2.15 -1.85 -2.05 -1.95 -2.0 -2.1 -1.9 -2.0 Q-1.95 -1.95 -1.9 -1.9 L-1.8 -1.9 Q-1.75 -1.8 -1.7 -1.9 L-1.7 -1.85 -1.6 -1.85 -1.65 -1.75 -1.8 -1.75 Q-1.9 -1.75 -1.9 -1.65" fill="#25526e" fill-rule="evenodd" stroke="none"/>
    <path d="M-2.2 -1.3 L-2.2 -1.6 -1.75 -1.3 -1.75 -1.1 -1.8 -1.05 -2.2 -1.3" fill="#46738c" fill-rule="evenodd" stroke="none"/>
    <path d="M-2.2 -0.4 L-2.2 -0.6 -1.8 -0.5 -1.9 -0.3 -2.2 -0.4" fill="#577c90" fill-rule="evenodd" stroke="none"/>
    <path d="M-2.2 -0.2 L-2.2 -0.4 -1.9 -0.3 -1.9 -0.15 -2.05 -0.2 -2.2 -0.2" fill="#273545" fill-rule="evenodd" stroke="none"/>
    <path d="M-2.2 0.0 L-2.2 -0.2 -2.05 -0.2 -1.9 -0.15 -1.9 0.0 -2.2 0.0" fill="#3f5c6b" fill-rule="evenodd" stroke="none"/>
    <path d="M-2.2 -0.8 L-2.2 -1.05 Q-2.15 -1.05 -2.0 -0.95 L-1.8 -0.85 -1.8 -0.65 -2.0 -0.7 Q-2.1 -0.75 -2.2 -0.8" fill="#5c869d" fill-rule="evenodd" stroke="none"/>
    <path d="M-2.2 -0.6 L-2.2 -0.8 Q-2.1 -0.75 -2.0 -0.7 L-1.8 -0.65 Q-1.8 -0.55 -1.8 -0.5 L-2.2 -0.6" fill="#31475f" fill-rule="evenodd" stroke="none"/>
    <path d="M-2.2 -1.05 L-2.2 -1.3 -1.8 -1.05 -1.75 -1.1 -1.8 -0.85 -2.0 -0.95 Q-2.15 -1.05 -2.2 -1.05" fill="#2b445f" fill-rule="evenodd" stroke="none"/>
    <path d="M-0.1 -2.2 L-0.1 -2.2 -0.05 -2.15 -0.05 -1.9 -0.1 -1.85 -0.25 -1.85 -0.3 -1.95 -0.3 -2.1 -0.2 -2.15 -0.1 -2.2" fill="#5afdff" fill-rule="evenodd" stroke="none"/>
    <path d="M-0.25 -2.2 L-0.1 -2.2 -0.2 -2.15 -0.3 -2.1 -0.3 -1.95 -0.25 -1.85 -0.4 -1.8 -0.5 -2.15 -0.4 -2.1 -0.3 -2.1 -0.25 -2.2" fill="#2395fb" fill-rule="evenodd" stroke="none"/>
    <path d="M-0.5 -2.2 L-0.25 -2.2 -0.3 -2.1 -0.4 -2.1 -0.5 -2.15 -0.5 -2.2" fill="#1b457f" fill-rule="evenodd" stroke="none"/>
    <path d="M-0.05 -2.15 L0.0 -2.1 0.1 -2.1 0.1 -1.95 0.0 -1.95 -0.05 -1.9 -0.05 -2.15" fill="#2cd3ff" fill-rule="evenodd" stroke="none"/>
    <path d="M0.85 2.2 L0.65 2.2 0.55 1.8 0.45 1.45 0.45 1.9 0.5 2.0 0.45 2.05 Q0.4 2.15 0.45 2.2 L-0.45 2.2 Q-0.4 2.0 -0.4 1.75 L-0.4 1.35 -0.55 1.75 -0.65 2.2 -0.85 2.2 -0.65 1.75 -0.5 1.35 Q-0.35 1.05 -0.4 0.85 L-0.95 1.9 Q-0.95 1.95 -1.0 2.05 L-1.1 2.2 -1.3 2.2 Q-1.25 2.1 -1.3 2.1 -1.3 2.05 -1.4 2.05 L-1.55 2.1 -1.6 2.2 -1.9 2.2 -1.85 2.1 Q-1.8 2.05 -1.85 2.05 L-1.9 1.95 -1.9 1.85 -2.05 1.95 -2.2 2.1 -2.2 1.75 -2.05 1.7 -1.95 1.6 -1.9 1.3 -2.2 1.45 -2.2 1.25 -1.95 1.1 Q-1.85 1.0 -1.9 0.9 L-2.2 1.0 -2.2 0.8 -2.1 0.75 -2.0 0.75 Q-1.9 0.7 -1.9 0.6 -1.9 0.5 -2.0 0.5 L-2.2 0.55 -2.2 0.4 -1.9 0.35 -1.9 0.15 -1.9 0.0 -1.9 -0.15 -1.9 -0.3 -1.8 -0.5 Q-1.8 -0.55 -1.8 -0.65 L-1.8 -0.85 -1.75 -1.1 -1.75 -1.3 -1.7 -1.5 -1.7 -1.55 -1.65 -1.7 -1.65 -1.75 -1.6 -1.95 -1.5 -2.0 -1.45 -1.95 -1.4 -1.85 -1.4 -1.8 -1.35 -1.65 -1.3 -1.35 -1.25 -1.1 -1.1 -0.9 -0.8 -0.65 -0.55 -0.4 -0.95 -0.7 -1.25 -0.9 Q-1.3 -0.75 -1.25 -0.7 -1.2 -0.6 -1.05 -0.6 L-0.9 -0.45 -0.7 -0.3 -1.25 -0.55 Q-1.25 -0.4 -1.05 -0.3 L-0.75 -0.2 -0.8 -0.15 -1.0 -0.25 Q-1.15 -0.3 -1.1 -0.15 L-0.95 -0.1 -0.85 -0.1 -0.75 -0.05 -0.85 -0.05 -1.05 -0.05 Q-1.15 -0.05 -1.1 0.05 L-0.95 0.05 -0.8 0.1 -1.0 0.1 Q-1.15 0.15 -1.1 0.25 L-0.9 0.25 -0.75 0.2 -0.85 0.25 -1.0 0.3 Q-1.15 0.3 -1.1 0.45 L-0.9 0.4 -0.7 0.35 -0.85 0.4 -1.0 0.45 Q-1.15 0.55 -1.1 0.65 L-0.9 0.55 -0.65 0.5 -0.8 0.6 -0.95 0.7 Q-1.15 0.8 -1.1 0.95 L-0.85 0.8 -0.6 0.6 -0.75 0.75 -0.95 0.9 Q-1.15 1.1 -1.1 1.3 L-0.8 1.0 -0.55 0.75 -0.7 1.0 -0.9 1.25 Q-1.15 1.55 -1.1 1.8 L-0.4 0.75 -0.35 -0.3 -0.3 -0.5 Q-0.25 -0.6 -0.3 -0.65 L-0.25 -0.75 -0.25 -1.0 Q-0.25 -1.15 -0.25 -1.25 -0.2 -1.3 -0.2 -1.45 L-0.15 -1.65 -0.1 -1.85 -0.05 -1.9 0.0 -1.95 0.1 -1.95 0.15 -1.7 0.2 -1.45 0.25 -1.15 0.3 -1.0 0.3 -0.65 0.3 -0.5 0.4 -0.3 0.4 -0.05 0.4 0.05 0.4 0.35 Q0.4 0.5 0.45 0.65 L0.4 0.75 0.45 0.85 Q0.4 0.95 0.45 1.2 L0.6 1.55 0.7 1.85 0.85 2.2 M0.05 -1.85 L0.05 -1.9 0.05 -1.95 0.0 -1.95 0.0 -1.9 -0.1 -1.55 -0.1 -1.5 -0.15 -1.35 -0.15 -1.25 -0.2 -1.1 -0.2 -1.0 -0.2 -0.95 -0.15 -0.85 -0.2 -0.7 -0.2 -0.55 -0.25 -0.4 -0.3 -0.3 -0.3 0.0 -0.35 0.0 -0.35 1.8 Q-0.3 1.85 -0.3 1.9 L-0.3 2.0 -0.1 2.0 0.1 2.0 0.25 2.0 0.35 2.0 0.3 1.9 0.35 1.85 0.35 1.8 0.35 1.05 0.35 0.05 0.35 -0.05 0.4 -0.15 0.35 -0.25 0.25 -0.45 0.25 -0.65 0.2 -0.85 0.2 -0.9 Q0.25 -0.9 0.2 -1.0 L0.2 -1.15 0.2 -1.2 0.2 -1.25 0.2 -1.35 0.15 -1.45 0.15 -1.55 0.1 -1.6 0.15 -1.65 0.1 -1.65 0.1 -1.7 0.1 -1.8 0.05 -1.85 M0.35 -0.25 L0.35 -0.25 M-1.6 -1.95 L-1.6 -1.95 M-1.5 -1.85 Q-1.45 -1.9 -1.5 -1.9 L-1.5 -1.9 -1.55 -1.65 -1.6 -1.6 -1.7 -1.25 -1.7 -0.85 -1.75 -0.7 -1.7 -0.55 -1.85 -0.3 -1.85 0.0 -1.85 1.8 Q-1.85 1.85 -1.85 1.9 L-1.85 2.0 -1.55 2.0 -1.4 2.0 -1.3 2.0 -1.25 2.0 -1.15 2.0 -1.15 1.95 -1.2 1.95 -1.15 1.85 -1.15 1.05 -1.15 0.55 Q-1.15 0.25 -1.2 0.05 L-1.2 -0.25 -1.3 -0.45 -1.3 -0.9 Q-1.3 -1.0 -1.3 -1.1 -1.3 -1.25 -1.35 -1.3 L-1.4 -1.5 -1.45 -1.65 -1.45 -1.8 -1.5 -1.85 -1.5 -1.85 M-1.3 -0.9 L-1.3 -0.9 M-1.7 -0.85 L-1.7 -0.85" fill="#060709" fill-rule="evenodd" stroke="none"/>
    <path d="M-0.1 -2.2 L0.1 -2.2 0.1 -2.1 0.0 -2.1 -0.05 -2.15 -0.1 -2.2" fill="#2388ff" fill-rule="evenodd" stroke="none"/>
    <path d="M-0.75 -2.2 L-0.5 -2.2 -0.5 -2.15 -0.4 -1.8 -0.55 -1.8 -0.6 -1.8 -0.6 -1.85 -0.65 -2.0 -0.7 -2.05 -0.75 -2.2" fill="#43f7fe" fill-rule="evenodd" stroke="none"/>
    <path d="M-0.75 -2.2 L-0.75 -2.2 -0.7 -2.05 -0.75 -2.1 -0.75 -2.2" fill="#1964ec" fill-rule="evenodd" stroke="none"/>
    <path d="M-0.9 -2.2 L-0.75 -2.2 -0.75 -2.1 -0.7 -2.05 -0.65 -2.0 -0.75 -2.0 Q-0.8 -2.0 -0.8 -1.95 -0.8 -1.8 -0.9 -1.85 L-0.9 -1.85 Q-0.8 -1.9 -0.85 -2.0 L-0.9 -2.2" fill="#164083" fill-rule="evenodd" stroke="none"/>
    <path d="M-1.2 -2.2 L-0.9 -2.2 -0.85 -2.0 Q-0.8 -1.9 -0.9 -1.85 L-0.95 -1.9 -1.05 -1.9 -1.15 -2.15 -1.2 -2.2 M-1.05 -1.9 L-1.05 -1.9" fill="#3fedff" fill-rule="evenodd" stroke="none"/>
    <path d="M-1.05 -1.9 L-0.95 -1.9 -0.9 -1.85 -1.0 -1.85 -1.05 -1.9 M-1.0 -1.85 L-1.0 -1.85 M-0.9 -1.85 L-0.9 -1.85" fill="#2889d9" fill-rule="evenodd" stroke="none"/>
    <path d="M-0.8 -1.95 Q-0.8 -2.0 -0.75 -2.0 L-0.65 -2.0 -0.6 -1.85 -0.7 -1.85 -0.8 -1.95" fill="#155bf8" fill-rule="evenodd" stroke="none"/>
    <path d="M-0.7 -1.85 L-0.6 -1.85 -0.6 -1.8 -0.5 -1.55 -0.45 -1.25 -0.4 -1.15 -0.35 -0.95 -0.25 -0.75 -0.3 -0.65 -0.3 -0.75 -0.45 -1.0 -0.55 -1.3 -0.65 -1.6 Q-0.65 -1.65 -0.65 -1.65 -0.7 -1.7 -0.75 -1.7 L-0.8 -1.8 Q-0.8 -1.9 -0.7 -1.85" fill="#0b101b" fill-rule="evenodd" stroke="none"/>
    <path d="M-0.75 -1.7 Q-0.7 -1.7 -0.65 -1.65 -0.65 -1.65 -0.65 -1.6 L-0.75 -1.65 -0.75 -1.7" fill="#164eca" fill-rule="evenodd" stroke="none"/>
    <path d="M-1.0 -1.85 L-0.9 -1.85 Q-0.8 -1.8 -0.8 -1.95 L-0.7 -1.85 Q-0.8 -1.9 -0.8 -1.8 L-0.75 -1.7 -0.75 -1.65 -0.65 -1.6 -0.55 -1.3 -0.45 -1.0 -0.5 -0.95 -0.5 -0.85 -1.0 -1.85" fill="#16303f" fill-rule="evenodd" stroke="none"/>
    <path d="M-0.45 -1.25 L-0.5 -1.55 -0.6 -1.8 -0.55 -1.8 -0.4 -1.75 -0.35 -1.65 -0.45 -1.6 -0.45 -1.5 -0.4 -1.4 -0.4 -1.3 -0.45 -1.25" fill="#1f4660" fill-rule="evenodd" stroke="none"/>
    <path d="M-0.4 -1.8 L-0.25 -1.85 -0.25 -1.65 Q-0.25 -1.5 -0.2 -1.45 -0.2 -1.3 -0.25 -1.25 L-0.3 -1.25 -0.35 -1.65 -0.4 -1.75 -0.4 -1.8" fill="#14253d" fill-rule="evenodd" stroke="none"/>
    <path d="M-0.55 -1.8 L-0.4 -1.8 -0.4 -1.75 -0.55 -1.8" fill="#3080c0" fill-rule="evenodd" stroke="none"/>
    <path d="M-0.35 -1.65 L-0.3 -1.25 -0.3 -1.15 Q-0.3 -1.25 -0.3 -1.3 L-0.4 -1.3 -0.4 -1.4 -0.45 -1.5 -0.45 -1.6 -0.35 -1.65" fill="#255f91" fill-rule="evenodd" stroke="none"/>
    <path d="M-0.25 -0.75 L-0.35 -0.95 -0.4 -1.15 -0.3 -1.15 -0.3 -1.25 -0.25 -1.25 Q-0.25 -1.15 -0.25 -1.0 L-0.25 -0.75" fill="#2b4858" fill-rule="evenodd" stroke="none"/>
    <path d="M-0.4 -1.15 L-0.45 -1.25 -0.4 -1.3 -0.3 -1.3 Q-0.3 -1.25 -0.3 -1.15 L-0.4 -1.15" fill="#3bcbfa" fill-rule="evenodd" stroke="none"/>
    <path d="M-0.1 -1.55 L-0.1 -1.2 -0.1 -1.5 -0.1 -1.55" fill="#bdaa94" fill-rule="evenodd" stroke="none"/>
    <path d="M-0.1 -1.2 L-0.1 -1.05 -0.05 -0.85 -0.1 -0.85 -0.15 -0.85 -0.15 -0.85 -0.2 -0.95 -0.2 -1.0 Q-0.1 -1.05 -0.15 -1.25 L-0.15 -1.35 -0.1 -1.5 -0.1 -1.2" fill="#a77c57" fill-rule="evenodd" stroke="none"/>
    <path d="M-0.25 -1.85 L-0.1 -1.85 -0.15 -1.65 -0.2 -1.45 Q-0.25 -1.5 -0.25 -1.65 L-0.25 -1.85" fill="#3b8bcc" fill-rule="evenodd" stroke="none"/>
    <path d="M-1.45 -2.2 L-1.2 -2.2 -1.15 -2.15 Q-1.15 -2.05 -1.2 -2.05 L-1.35 -2.05 -1.4 -2.1 -1.45 -2.2" fill="#153a6e" fill-rule="evenodd" stroke="none"/>
    <path d="M-1.4 -1.85 L-1.45 -1.95 -1.5 -2.0 -1.5 -2.1 -1.45 -2.1 -1.4 -2.1 -1.35 -2.05 -1.3 -2.0 Q-1.25 -1.95 -1.3 -1.9 L-1.4 -1.85" fill="#47f4ff" fill-rule="evenodd" stroke="none"/>
    <path d="M-1.4 -1.85 L-1.3 -1.9 Q-1.25 -1.95 -1.3 -2.0 -1.25 -2.0 -1.25 -2.0 -1.25 -1.95 -1.25 -1.95 L-1.4 -1.8 -1.4 -1.85" fill="#2fa1f8" fill-rule="evenodd" stroke="none"/>
    <path d="M-1.25 -1.95 Q-1.25 -1.95 -1.25 -2.0 -1.25 -2.0 -1.3 -2.0 L-1.35 -2.05 -1.2 -2.05 Q-1.15 -2.05 -1.15 -2.15 L-1.05 -1.9 -1.15 -1.95 -1.25 -1.95 -1.25 -1.95" fill="#185fdf" fill-rule="evenodd" stroke="none"/>
    <path d="M-1.7 -2.2 L-1.45 -2.2 -1.4 -2.1 -1.45 -2.1 -1.5 -2.1 -1.55 -2.05 -1.6 -1.95 -1.7 -1.95 Q-1.6 -1.95 -1.65 -2.0 L-1.7 -2.1 Q-1.65 -2.1 -1.65 -2.15 L-1.7 -2.2 M-1.6 -1.95 L-1.6 -1.95" fill="#2e6589" fill-rule="evenodd" stroke="none"/>
    <path d="M-1.5 -2.0 L-1.6 -1.95 -1.55 -2.05 -1.5 -2.1 -1.5 -2.0" fill="#36adf6" fill-rule="evenodd" stroke="none"/>
    <path d="M-1.05 -1.9 L-1.0 -1.85 -1.1 -1.85 -1.2 -1.85 -1.25 -1.9 -1.25 -1.95 -1.15 -1.95 -1.05 -1.9 -1.05 -1.9" fill="#11274c" fill-rule="evenodd" stroke="none"/>
    <path d="M-1.4 -1.8 L-1.25 -1.95 -1.25 -1.95 -1.25 -1.9 -1.25 -1.8 -1.2 -1.7 -1.25 -1.6 -1.3 -1.6 -1.35 -1.65 -1.4 -1.8" fill="#2c71a7" fill-rule="evenodd" stroke="none"/>
    <path d="M-1.75 -2.2 L-1.7 -2.2 -1.65 -2.15 Q-1.65 -2.1 -1.7 -2.1 L-1.75 -2.2" fill="#3aaddf" fill-rule="evenodd" stroke="none"/>
    <path d="M-1.9 -2.0 L-1.8 -1.9 -1.9 -1.9 Q-1.95 -1.95 -1.9 -2.0" fill="#2576be" fill-rule="evenodd" stroke="none"/>
    <path d="M-1.7 -1.9 L-1.7 -1.95 -1.6 -1.95 -1.6 -1.85 -1.7 -1.85 -1.7 -1.9" fill="#1b8aff" fill-rule="evenodd" stroke="none"/>
    <path d="M-1.5 -1.9 L-1.5 -1.9 Q-1.45 -1.9 -1.5 -1.85 L-1.5 -1.9" fill="#324e7d" fill-rule="evenodd" stroke="none"/>
    <path d="M-1.65 -1.7 L-1.7 -1.6 -1.7 -1.65 Q-1.7 -1.7 -1.65 -1.7" fill="#49cef7" fill-rule="evenodd" stroke="none"/>
    <path d="M-1.65 -1.75 L-1.65 -1.7 Q-1.7 -1.7 -1.7 -1.65 L-1.7 -1.6 -1.7 -1.55 -1.7 -1.5 -1.8 -1.55 -1.9 -1.65 Q-1.9 -1.75 -1.8 -1.75 L-1.65 -1.75" fill="#3677a3" fill-rule="evenodd" stroke="none"/>
    <path d="M-1.6 -1.6 L-1.55 -1.65 -1.6 -1.5 -1.6 -1.6" fill="#d9beab" fill-rule="evenodd" stroke="none"/>
    <path d="M-1.7 -0.85 L-1.7 -1.25 -1.6 -1.6 -1.6 -1.5 -1.6 -0.9 -1.6 -0.85 -1.7 -0.85" fill="#a6714d" fill-rule="evenodd" stroke="none"/>
    <path d="M-1.5 -1.85 L-1.5 -1.85 -1.5 -1.75 Q-1.5 -1.75 -1.45 -1.8 L-1.45 -1.65 -1.45 -1.65 -1.5 -1.7 -1.5 -1.7 Q-1.55 -1.75 -1.55 -1.6 L-1.5 -1.4 -1.5 -1.25 -1.5 -1.05 Q-1.5 -0.9 -1.6 -0.9 L-1.6 -1.5 -1.55 -1.65 -1.5 -1.9 -1.5 -1.85" fill="#eaf6f9" fill-rule="evenodd" stroke="none"/>
    <path d="M-1.25 -1.9 L-1.2 -1.85 -1.1 -1.7 -1.15 -1.55 -1.25 -1.5 -1.3 -1.6 -1.25 -1.6 -1.2 -1.7 -1.25 -1.8 -1.25 -1.9" fill="#25506b" fill-rule="evenodd" stroke="none"/>
    <path d="M-1.0 -1.85 L-1.0 -1.85 -0.5 -0.85 -0.45 -0.7 -0.35 -0.5 -0.75 -1.1 -1.1 -1.7 -1.2 -1.85 -1.1 -1.85 -1.0 -1.85" fill="#090d13" fill-rule="evenodd" stroke="none"/>
    <path d="M-0.3 -0.75 L-0.3 -0.65 Q-0.25 -0.6 -0.3 -0.5 L-0.35 -0.3 -0.55 -0.4 -0.8 -0.65 -1.1 -0.9 Q-1.05 -0.9 -1.05 -0.95 L-1.05 -1.05 -0.75 -0.75 -0.45 -0.45 -0.85 -0.95 -1.25 -1.5 -1.15 -1.55 -1.1 -1.7 -0.75 -1.1 -0.35 -0.5 -0.45 -0.7 -0.3 -0.75" fill="#17303e" fill-rule="evenodd" stroke="none"/>
    <path d="M-1.5 -1.85 L-1.45 -1.8 Q-1.5 -1.75 -1.5 -1.75 L-1.5 -1.85" fill="#984d58" fill-rule="evenodd" stroke="none"/>
    <path d="M-1.45 -1.65 L-1.4 -1.5 -1.35 -1.3 -1.35 -1.15 -1.4 -1.25 -1.4 -1.15 -1.45 -1.4 -1.45 -1.65 -1.45 -1.65" fill="#99a6a9" fill-rule="evenodd" stroke="none"/>
    <path d="M-1.45 -1.65 L-1.45 -1.4 -1.4 -1.15 -1.4 -1.05 -1.4 -0.9 -1.5 -0.9 Q-1.45 -1.05 -1.45 -1.3 L-1.5 -1.7 -1.45 -1.65 M-1.5 -0.9 L-1.5 -0.9" fill="#a96a3e" fill-rule="evenodd" stroke="none"/>
    <path d="M-1.25 -1.5 L-0.85 -0.95 -0.45 -0.45 -0.75 -0.75 -1.05 -1.05 -1.3 -1.35 -1.35 -1.65 -1.3 -1.6 -1.25 -1.5" fill="#0c1016" fill-rule="evenodd" stroke="none"/>
    <path d="M-1.5 -1.7 L-1.45 -1.3 Q-1.45 -1.05 -1.5 -0.9 L-1.5 -1.25 -1.5 -1.4 -1.5 -1.7 -1.5 -1.7 M-1.5 -0.9 L-1.5 -0.9" fill="#3b0e09" fill-rule="evenodd" stroke="none"/>
    <path d="M-1.5 -1.7 L-1.5 -1.4 -1.55 -1.6 Q-1.55 -1.75 -1.5 -1.7" fill="#a5a1a4" fill-rule="evenodd" stroke="none"/>
    <path d="M-1.05 -1.05 L-1.05 -0.95 Q-1.05 -0.9 -1.1 -0.9 L-1.25 -1.1 -1.3 -1.35 -1.05 -1.05" fill="#2b424d" fill-rule="evenodd" stroke="none"/>
    <path d="M-1.3 -0.9 L-1.3 -0.9 -1.35 -0.5 -1.35 -0.75 -1.4 -1.05 -1.4 -1.15 -1.4 -1.25 -1.35 -1.15 -1.35 -1.0 -1.3 -0.9 M-1.35 -0.5 Q-1.3 -0.45 -1.35 -0.45 L-1.35 -0.5" fill="#ab957a" fill-rule="evenodd" stroke="none"/>
    <path d="M-1.35 -1.3 Q-1.3 -1.25 -1.3 -1.1 -1.3 -1.0 -1.3 -0.9 L-1.35 -1.0 -1.35 -1.15 -1.35 -1.3" fill="#67412e" fill-rule="evenodd" stroke="none"/>
    <path d="M-1.5 -0.9 L-1.4 -0.9 -1.4 -0.45 -1.35 -0.35 -1.3 -0.25 Q-1.45 -0.3 -1.45 -0.2 L-1.45 0.05 -1.45 -0.4 -1.5 -0.75 -1.5 -0.8 -1.5 -0.9 M-1.45 0.05 L-1.45 0.05" fill="#d69931" fill-rule="evenodd" stroke="none"/>
    <path d="M-1.15 1.85 L-1.2 1.95 -1.15 1.95 -1.15 2.0 -1.25 2.0 -1.3 2.0 -1.3 1.95 Q-1.3 1.9 -1.35 1.85 -1.4 1.85 -1.45 1.85 L-1.45 1.8 -1.3 1.8 -1.25 1.8 -1.2 1.8 -1.2 1.8 Q-1.2 1.8 -1.15 1.85 M-1.4 2.0 L-1.55 2.0 -1.85 2.0 -1.75 2.0 -1.65 2.0 Q-1.55 2.05 -1.55 1.95 L-1.55 1.8 -1.55 -0.25 -1.55 -0.5 -1.55 -0.85 -1.5 -0.9 -1.5 -0.9 -1.5 -0.9 -1.5 -0.8 -1.5 -0.75 -1.5 2.0 -1.45 2.0 -1.4 2.0" fill="#837060" fill-rule="evenodd" stroke="none"/>
    <path d="M-1.3 -0.9 L-1.3 -0.45 -1.35 -0.5 -1.3 -0.9" fill="#bb8b3f" fill-rule="evenodd" stroke="none"/>
    <path d="M-1.4 -0.9 L-1.4 -1.05 -1.35 -0.75 -1.35 -0.5 -1.4 -0.45 -1.4 -0.9" fill="#4198ac" fill-rule="evenodd" stroke="none"/>
    <path d="M-1.05 -0.6 Q-1.2 -0.6 -1.25 -0.7 -1.3 -0.75 -1.25 -0.9 L-0.95 -0.7 -1.05 -0.6" fill="#22353e" fill-rule="evenodd" stroke="none"/>
    <path d="M-1.5 -1.25 L-1.5 -0.9 -1.55 -0.85 -1.6 -0.85 -1.6 -0.9 Q-1.5 -0.9 -1.5 -1.05 L-1.5 -1.25 M-1.6 -0.85 L-1.6 -0.85" fill="#afa8a7" fill-rule="evenodd" stroke="none"/>
    <path d="M-1.6 -0.85 L-1.6 -0.85 -1.6 -0.65 Q-1.6 -0.5 -1.55 -0.5 L-1.55 -0.25 -1.65 -0.25 -1.65 -0.35 -1.6 -0.5 -1.6 -0.85" fill="#e6c7a5" fill-rule="evenodd" stroke="none"/>
    <path d="M1.2 -0.85 L1.25 -0.85 1.3 -0.85 1.3 -0.5 Q1.2 -0.5 1.2 -0.65 L1.25 -0.75 1.2 -0.85 M-1.6 -0.85 L-1.55 -0.85 -1.55 -0.5 Q-1.6 -0.5 -1.6 -0.65 L-1.6 -0.85 M-1.65 -0.25 L-1.55 -0.25 -1.55 1.8 -1.65 1.8 -1.65 -0.25" fill="#ffffff" fill-rule="evenodd" stroke="none"/>
    <path d="M-1.7 -0.85 L-1.7 -0.85 -1.6 -0.85 -1.6 -0.5 Q-1.7 -0.5 -1.7 -0.65 L-1.7 -0.85" fill="#e6a329" fill-rule="evenodd" stroke="none"/>
    <path d="M-1.7 -0.55 L-1.75 -0.7 -1.7 -0.85 -1.7 -0.65 Q-1.7 -0.5 -1.6 -0.5 L-1.65 -0.35 -1.65 -0.25 -1.7 -0.25 -1.8 -0.25 -1.75 -0.4 Q-1.7 -0.5 -1.7 -0.55" fill="#c28c3e" fill-rule="evenodd" stroke="none"/>
    <path d="M-1.85 -0.3 L-1.7 -0.55 Q-1.7 -0.5 -1.75 -0.4 L-1.8 -0.25 -1.85 -0.3" fill="#5a442e" fill-rule="evenodd" stroke="none"/>
    <path d="M-1.85 0.0 L-1.85 -0.3 -1.8 -0.25 -1.8 1.8 -1.85 1.8 -1.85 0.0 -1.85 0.0" fill="#9e7034" fill-rule="evenodd" stroke="none"/>
    <path d="M-1.85 1.8 L-1.85 0.0 -1.85 0.0 -1.85 1.8 -1.85 1.8" fill="#d6a35e" fill-rule="evenodd" stroke="none"/>
    <path d="M-1.7 -0.25 L-1.65 -0.25 -1.65 1.8 -1.7 1.8 -1.7 -0.25" fill="#eec386" fill-rule="evenodd" stroke="none"/>
    <path d="M-1.8 -0.25 L-1.7 -0.25 -1.7 1.8 -1.8 1.8 -1.8 -0.25" fill="#eaa627" fill-rule="evenodd" stroke="none"/>
    <path d="M-0.55 -0.4 L-0.35 -0.3 -0.4 0.75 -1.1 1.8 Q-1.15 1.55 -0.9 1.25 L-0.7 1.0 -0.55 0.75 -0.8 1.0 -1.1 1.3 Q-1.15 1.1 -0.95 0.9 L-0.75 0.75 -0.6 0.6 -0.85 0.8 -1.1 0.95 Q-1.15 0.8 -0.95 0.7 L-0.8 0.6 -0.65 0.5 -0.9 0.55 -1.1 0.65 Q-1.15 0.55 -1.0 0.45 L-0.85 0.4 -0.7 0.35 -0.65 0.3 -0.6 0.3 Q-0.6 0.25 -0.7 0.2 L-0.7 0.2 Q-0.6 0.2 -0.65 0.15 -0.75 0.1 -0.8 0.1 L-0.95 0.05 -1.1 0.05 Q-1.15 -0.05 -1.05 -0.05 L-0.85 -0.05 -0.75 -0.05 -0.85 -0.1 -0.8 -0.1 Q-0.75 -0.15 -0.8 -0.15 L-0.75 -0.2 -1.05 -0.3 Q-1.25 -0.4 -1.25 -0.55 L-0.7 -0.3 -0.9 -0.45 -1.05 -0.6 -0.95 -0.7 -0.55 -0.4" fill="#0e1e25" fill-rule="evenodd" stroke="none"/>
    <path d="M-1.3 -0.45 L-1.2 -0.25 -1.25 -0.3 -1.25 -0.25 -1.3 -0.25 -1.35 -0.35 -1.4 -0.45 -1.35 -0.5 -1.35 -0.45 Q-1.3 -0.45 -1.35 -0.5 L-1.3 -0.45 M-1.2 -0.25 L-1.2 -0.25 -1.2 -0.25" fill="#7a6951" fill-rule="evenodd" stroke="none"/>
    <path d="M-1.3 -0.25 L-1.25 -0.25 -1.25 0.15 -1.25 1.45 -1.25 1.8 -1.3 1.8 -1.3 1.0 -1.3 0.05 -1.3 -0.25" fill="#57a3a7" fill-rule="evenodd" stroke="none"/>
    <path d="M-1.45 0.05 L-1.45 -0.2 Q-1.45 -0.3 -1.3 -0.25 L-1.3 0.05 -1.3 1.0 -1.3 1.8 -1.45 1.8 -1.45 1.75 -1.45 0.05" fill="#eba72a" fill-rule="evenodd" stroke="none"/>
    <path d="M-1.25 1.8 L-1.25 1.45 -1.25 0.15 -1.25 -0.25 -1.25 -0.3 -1.2 -0.25 -1.2 1.0 -1.2 1.8 -1.25 1.8" fill="#d7bd96" fill-rule="evenodd" stroke="none"/>
    <path d="M-1.2 -0.25 L-1.2 0.05 -1.2 0.55 -1.15 1.05 -1.15 1.85 Q-1.2 1.8 -1.2 1.8 L-1.2 1.05 -1.2 1.0 -1.2 -0.25 -1.2 -0.25" fill="#db9e2e" fill-rule="evenodd" stroke="none"/>
    <path d="M-1.2 -0.25 L-1.2 -0.25 -1.2 1.0 -1.2 1.0 -1.2 -0.25" fill="#af7d37" fill-rule="evenodd" stroke="none"/>
    <path d="M-1.5 -0.75 L-1.45 -0.4 -1.45 0.05 -1.45 1.75 -1.45 1.8 -1.45 1.85 -1.45 2.0 -1.5 2.0 -1.5 -0.75" fill="#56301c" fill-rule="evenodd" stroke="none"/>
    <path d="M-0.2 -1.0 L-0.2 -1.1 -0.15 -1.25 Q-0.1 -1.05 -0.2 -1.0" fill="#a1b2a5" fill-rule="evenodd" stroke="none"/>
    <path d="M0.05 -1.9 L0.05 -1.85 0.0 -1.8 Q0.0 -1.75 0.05 -1.75 L0.05 -1.75 0.1 -1.7 0.1 -1.65 0.1 -1.6 0.15 -1.55 Q0.1 -1.45 0.15 -1.45 L0.2 -1.35 0.2 -1.25 0.15 -1.15 0.1 -1.2 0.1 -1.35 0.05 -1.45 0.05 -1.5 0.05 -1.6 0.0 -1.7 0.0 -1.3 0.0 -0.9 0.0 -0.65 0.0 -0.5 0.0 -0.3 -0.1 -0.3 -0.1 -0.35 -0.1 -0.65 -0.05 -0.75 -0.05 -0.85 -0.1 -1.05 -0.1 -1.2 -0.1 -1.55 0.0 -1.9 0.05 -1.9" fill="#edfcfd" fill-rule="evenodd" stroke="none"/>
    <path d="M-0.45 -1.0 L-0.3 -0.75 -0.45 -0.7 -0.5 -0.85 -0.5 -0.95 -0.45 -1.0" fill="#1f4662" fill-rule="evenodd" stroke="none"/>
    <path d="M-0.2 -0.55 L-0.2 -0.7 -0.15 -0.85 -0.15 -0.85 -0.1 -0.85 -0.1 -0.65 Q-0.15 -0.65 -0.15 -0.55 L-0.15 -0.35 -0.15 -0.25 -0.25 -0.25 -0.2 -0.4 -0.2 -0.55 M-0.15 -0.25 L-0.15 -0.25" fill="#d0a63f" fill-rule="evenodd" stroke="none"/>
    <path d="M-0.05 -0.85 L-0.05 -0.75 -0.1 -0.65 -0.1 -0.85 -0.05 -0.85" fill="#efcf8f" fill-rule="evenodd" stroke="none"/>
    <path d="M-0.8 -0.15 Q-0.75 -0.15 -0.8 -0.1 L-0.85 -0.1 -0.95 -0.1 -1.1 -0.15 Q-1.15 -0.3 -1.0 -0.25 L-0.8 -0.15" fill="#0e2a40" fill-rule="evenodd" stroke="none"/>
    <path d="M-0.1 -0.65 L-0.1 -0.35 -0.15 -0.35 -0.15 -0.55 Q-0.15 -0.65 -0.1 -0.65" fill="#e2e649" fill-rule="evenodd" stroke="none"/>
    <path d="M-0.1 -0.35 L-0.1 -0.3 0.0 -0.3 0.0 -0.25 -0.15 -0.25 -0.15 -0.35 -0.1 -0.35" fill="#dbdcbd" fill-rule="evenodd" stroke="none"/>
    <path d="M-0.3 -0.3 L-0.25 -0.4 -0.2 -0.55 -0.2 -0.4 -0.25 -0.25 -0.3 -0.3" fill="#5e4f37" fill-rule="evenodd" stroke="none"/>
    <path d="M-0.3 0.0 L-0.3 -0.3 -0.25 -0.25 -0.25 0.5 -0.25 0.6 -0.25 1.8 -0.3 1.8 -0.3 0.0" fill="#9e7234" fill-rule="evenodd" stroke="none"/>
    <path d="M-0.35 1.8 L-0.35 0.0 -0.3 0.0 -0.3 1.8 -0.35 1.8" fill="#d6a460" fill-rule="evenodd" stroke="none"/>
    <path d="M-0.15 -0.25 L-0.15 -0.25 -0.15 0.35 -0.15 -0.25" fill="#f1cb91" fill-rule="evenodd" stroke="none"/>
    <path d="M-0.15 -0.25 L-0.15 0.35 -0.15 0.5 -0.25 0.5 -0.25 -0.25 -0.15 -0.25" fill="#eaa928" fill-rule="evenodd" stroke="none"/>
    <path d="M1.8 -2.2 L1.8 -2.2 1.7 -2.1 1.55 -2.05 1.4 -2.0 Q1.4 -1.95 1.4 -1.9 L1.45 -1.85 1.4 -1.85 1.35 -2.0 Q1.35 -2.05 1.45 -2.05 1.55 -2.05 1.6 -2.1 L1.7 -2.15 1.8 -2.2" fill="#4db3f3" fill-rule="evenodd" stroke="none"/>
    <path d="M1.45 -1.85 L1.4 -1.9 Q1.4 -1.95 1.4 -2.0 L1.55 -2.05 1.7 -2.1 1.6 -1.95 1.5 -1.85 1.55 -1.75 1.6 -1.65 1.55 -1.65 Q1.55 -1.7 1.5 -1.75 L1.45 -1.85" fill="#4687b6" fill-rule="evenodd" stroke="none"/>
    <path d="M1.8 -2.2 L2.05 -2.2 2.0 -2.1 1.85 -1.95 1.75 -1.8 1.65 -1.75 1.6 -1.65 1.55 -1.75 1.5 -1.85 1.6 -1.95 1.7 -2.1 1.8 -2.2 M1.85 -1.95 L1.85 -1.95" fill="#1b3555" fill-rule="evenodd" stroke="none"/>
    <path d="M1.45 -2.2 L1.8 -2.2 1.7 -2.15 1.6 -2.1 Q1.55 -2.05 1.45 -2.05 1.35 -2.05 1.35 -2.0 L1.35 -2.05 1.3 -2.15 Q1.4 -2.1 1.45 -2.2 M1.3 -2.0 L1.35 -2.0 1.3 -2.0" fill="#5df9ff" fill-rule="evenodd" stroke="none"/>
    <path d="M2.15 -2.2 L2.2 -2.2 2.2 -1.9 2.1 -1.85 1.85 -1.95 2.0 -2.1 Q2.1 -2.1 2.15 -2.2" fill="#265067" fill-rule="evenodd" stroke="none"/>
    <path d="M1.85 -1.95 L1.85 -1.95 2.1 -1.85 1.95 -1.7 1.85 -1.55 1.8 -1.55 1.85 -1.65 1.95 -1.85 1.85 -1.95" fill="#2f6487" fill-rule="evenodd" stroke="none"/>
    <path d="M1.3 -2.2 L1.45 -2.2 Q1.4 -2.1 1.3 -2.15 L1.35 -2.05 1.35 -2.0 1.3 -2.1 1.3 -2.2" fill="#309ffd" fill-rule="evenodd" stroke="none"/>
    <path d="M1.1 -2.2 L1.2 -2.2 1.15 -2.1 1.1 -2.1 1.1 -2.2" fill="#51a8dc" fill-rule="evenodd" stroke="none"/>
    <path d="M1.2 -2.2 L1.3 -2.2 1.3 -2.1 1.35 -2.0 1.3 -2.0 1.2 -1.9 Q1.15 -1.9 1.1 -1.85 1.05 -1.8 1.0 -1.85 L1.1 -2.0 1.15 -2.05 1.15 -2.1 1.2 -2.2" fill="#295d9c" fill-rule="evenodd" stroke="none"/>
    <path d="M0.9 -2.2 L1.1 -2.2 1.1 -2.1 1.15 -2.1 1.15 -2.05 1.1 -2.0 0.95 -1.9 0.8 -1.9 0.85 -2.0 0.85 -2.05 Q0.85 -2.15 0.9 -2.2" fill="#63f8ff" fill-rule="evenodd" stroke="none"/>
    <path d="M1.0 -1.85 Q1.05 -1.8 1.1 -1.85 1.15 -1.9 1.2 -1.9 L1.2 -1.8 Q1.15 -1.8 1.15 -1.8 L1.15 -1.7 1.0 -1.75 1.0 -1.85" fill="#2e71c6" fill-rule="evenodd" stroke="none"/>
    <path d="M2.2 -0.8 L2.2 -0.6 2.05 -0.55 1.9 -0.55 1.6 -0.45 1.65 -0.35 1.7 -0.25 1.7 -0.15 1.7 0.0 1.7 0.65 1.75 0.7 1.75 0.8 Q1.65 0.95 1.85 1.1 L2.2 1.25 2.2 1.45 1.95 1.3 1.7 1.2 1.75 1.45 2.2 1.75 2.2 2.1 1.95 1.85 1.7 1.65 1.7 1.85 Q1.7 1.95 1.8 1.95 1.8 2.05 1.8 2.1 L1.9 2.2 1.6 2.2 1.45 2.05 1.25 2.05 1.3 2.2 1.1 2.2 1.05 2.1 Q1.0 2.05 0.95 2.05 0.9 2.0 0.9 1.9 L0.9 1.75 0.5 0.95 Q0.45 0.9 0.5 0.9 L0.55 1.0 0.7 1.25 0.9 1.45 Q0.95 1.3 0.85 1.15 L0.65 0.9 0.55 0.75 0.5 0.65 0.65 0.8 0.75 0.95 0.9 1.05 Q0.95 0.95 0.85 0.85 L0.7 0.7 0.65 0.65 0.55 0.55 Q0.6 0.55 0.65 0.6 L0.75 0.7 0.9 0.7 0.8 0.55 0.65 0.5 0.8 0.5 0.9 0.55 Q0.95 0.45 0.85 0.4 L0.85 0.4 Q0.95 0.4 0.9 0.3 L0.75 0.25 0.75 0.2 0.85 0.2 Q0.95 0.2 0.9 0.15 0.85 0.1 0.8 0.1 L0.85 0.05 0.9 0.0 Q0.9 -0.1 0.75 -0.05 L0.9 -0.1 Q0.95 -0.1 0.9 -0.2 L0.8 -0.2 0.65 -0.15 0.85 -0.25 Q0.95 -0.3 0.95 -0.4 L0.8 -0.35 0.65 -0.3 0.7 -0.35 0.8 -0.4 1.0 -0.5 Q1.05 -0.6 1.0 -0.7 L0.85 -0.6 0.7 -0.45 0.5 -0.35 0.65 -0.5 0.85 -0.7 Q1.0 -0.8 1.0 -0.85 L1.05 -1.0 1.05 -1.2 1.05 -1.3 1.2 -1.8 1.2 -1.9 1.3 -2.0 1.35 -2.0 1.4 -1.85 1.5 -1.55 1.55 -1.3 1.55 -1.15 1.55 -0.9 1.55 -0.75 1.55 -0.7 1.6 -0.55 1.75 -0.6 1.9 -0.65 2.2 -0.8 M1.3 -1.85 Q1.35 -1.9 1.3 -1.9 L1.3 -1.9 1.25 -1.75 1.2 -1.6 1.1 -1.25 Q1.1 -1.05 1.1 -0.85 1.05 -0.85 1.1 -0.7 L1.1 -0.55 1.05 -0.45 1.0 -0.3 1.0 -0.2 Q0.95 0.05 0.95 0.3 L0.95 1.05 1.0 1.8 1.0 1.9 Q0.95 2.0 1.0 2.0 L1.15 2.0 1.2 2.0 1.3 2.0 Q1.4 2.0 1.35 2.0 L1.55 2.0 1.65 2.0 1.6 1.9 1.6 1.85 1.65 1.8 1.65 1.0 1.65 0.05 1.65 -0.05 1.65 -0.25 1.6 -0.35 1.55 -0.4 1.5 -0.9 1.5 -1.1 1.45 -1.3 1.45 -1.4 1.45 -1.5 1.4 -1.55 1.35 -1.7 1.35 -1.8 1.3 -1.85 1.3 -1.85 M1.65 -0.25 L1.65 -0.25 M1.1 -0.85 L1.1 -0.85" fill="#090a0d" fill-rule="evenodd" stroke="none"/>
    <path d="M1.3 -1.9 L1.3 -1.9 Q1.35 -1.9 1.3 -1.85 L1.3 -1.9" fill="#3569e6" fill-rule="evenodd" stroke="none"/>
    <path d="M1.3 -1.9 L1.3 -1.85 1.3 -1.85 1.3 -1.8 Q1.3 -1.7 1.3 -1.55 L1.3 -1.3 Q1.25 -1.25 1.3 -1.2 L1.3 -1.05 Q1.3 -0.9 1.2 -0.9 L1.2 -0.95 1.2 -1.35 1.2 -1.6 1.25 -1.75 1.3 -1.9" fill="#f0f7f6" fill-rule="evenodd" stroke="none"/>
    <path d="M1.4 -1.85 L1.45 -1.85 1.5 -1.75 Q1.55 -1.7 1.55 -1.65 1.65 -1.65 1.6 -1.55 L1.5 -1.55 1.4 -1.85" fill="#53e4fd" fill-rule="evenodd" stroke="none"/>
    <path d="M1.3 -1.85 L1.35 -1.8 1.35 -1.7 1.3 -1.7 1.3 -1.8 1.3 -1.85" fill="#765064" fill-rule="evenodd" stroke="none"/>
    <path d="M1.4 -1.55 L1.45 -1.5 1.45 -1.4 1.4 -1.25 1.35 -1.45 1.35 -1.6 1.4 -1.55" fill="#999993" fill-rule="evenodd" stroke="none"/>
    <path d="M1.35 -1.8 L1.35 -1.7 1.4 -1.55 1.35 -1.6 1.35 -1.7 1.35 -1.8 M1.35 -1.7 L1.35 -1.7" fill="#a4e7f7" fill-rule="evenodd" stroke="none"/>
    <path d="M1.35 -1.7 L1.35 -1.6 1.35 -1.45 1.4 -1.25 1.4 -1.2 Q1.35 -1.2 1.4 -1.05 1.45 -0.9 1.35 -0.9 L1.35 -1.05 1.35 -1.7" fill="#b06b3c" fill-rule="evenodd" stroke="none"/>
    <path d="M1.35 -1.7 L1.35 -1.7 1.35 -1.05 1.35 -0.95 1.3 -0.9 1.3 -1.3 1.3 -1.7 1.35 -1.7" fill="#3c0e08" fill-rule="evenodd" stroke="none"/>
    <path d="M1.3 -1.3 L1.3 -1.55 Q1.3 -1.7 1.3 -1.8 L1.3 -1.7 1.3 -1.3 1.3 -1.3" fill="#a4d0e8" fill-rule="evenodd" stroke="none"/>
    <path d="M1.15 -1.7 L1.15 -1.8 Q1.15 -1.8 1.2 -1.8 L1.05 -1.3 0.95 -1.4 1.05 -1.55 1.15 -1.7" fill="#5dbbf2" fill-rule="evenodd" stroke="none"/>
    <path d="M1.0 -1.75 L1.15 -1.7 1.05 -1.55 0.95 -1.4 0.9 -1.35 0.8 -1.4 0.9 -1.6 1.0 -1.75 M0.8 -1.4 L0.8 -1.4" fill="#366599" fill-rule="evenodd" stroke="none"/>
    <path d="M1.45 -1.4 L1.45 -1.3 1.45 -1.25 1.45 -1.25 1.4 -1.2 1.4 -1.25 1.45 -1.4" fill="#9ac6dc" fill-rule="evenodd" stroke="none"/>
    <path d="M1.45 -1.25 L1.45 -1.25 1.5 -1.05 1.5 -0.9 1.45 -1.05 1.45 -1.25" fill="#ccac90" fill-rule="evenodd" stroke="none"/>
    <path d="M1.45 -1.3 L1.5 -1.1 1.5 -0.9 1.5 -1.05 1.45 -1.25 1.45 -1.3 M1.5 -0.9 L1.5 -0.9" fill="#6b4634" fill-rule="evenodd" stroke="none"/>
    <path d="M1.1 -0.85 Q1.1 -1.05 1.1 -1.25 L1.2 -1.6 1.2 -1.35 Q1.15 -1.1 1.15 -0.9 L1.2 -0.95 1.2 -0.9 Q1.3 -0.9 1.3 -1.05 L1.3 -1.2 Q1.25 -1.25 1.3 -1.3 L1.3 -0.9 1.3 -0.85 1.25 -0.85 1.2 -0.85 1.2 -0.85 1.15 -0.85 1.1 -0.85 M1.3 -1.3 L1.3 -1.3 M1.3 -0.9 L1.3 -0.9 M1.2 -0.85 L1.2 -0.85" fill="#9f8e7c" fill-rule="evenodd" stroke="none"/>
    <path d="M1.75 -1.8 L1.85 -1.95 1.95 -1.85 1.85 -1.65 Q1.75 -1.7 1.75 -1.8" fill="#3998eb" fill-rule="evenodd" stroke="none"/>
    <path d="M1.6 -1.65 L1.65 -1.75 1.75 -1.8 Q1.75 -1.7 1.85 -1.65 L1.8 -1.55 1.7 -1.4 1.55 -1.3 1.5 -1.55 1.6 -1.55 Q1.65 -1.65 1.55 -1.65 L1.6 -1.65" fill="#4e768d" fill-rule="evenodd" stroke="none"/>
    <path d="M2.2 -1.9 L2.2 -1.6 2.05 -1.5 1.95 -1.4 1.85 -1.35 1.85 -1.55 1.95 -1.7 2.1 -1.85 2.2 -1.9" fill="#131c2b" fill-rule="evenodd" stroke="none"/>
    <path d="M1.85 -1.55 L1.85 -1.35 1.7 -1.25 1.55 -1.15 1.55 -1.3 1.7 -1.4 1.8 -1.55 1.85 -1.55" fill="#243041" fill-rule="evenodd" stroke="none"/>
    <path d="M1.85 -1.35 L1.95 -1.4 1.9 -1.25 1.85 -1.05 1.7 -1.0 Q1.65 -0.95 1.55 -0.9 L1.55 -1.15 1.7 -1.25 1.85 -1.35" fill="#415e6e" fill-rule="evenodd" stroke="none"/>
    <path d="M0.8 -2.2 L0.9 -2.2 Q0.85 -2.15 0.85 -2.05 L0.85 -2.0 0.8 -1.9 0.7 -1.55 0.65 -1.55 0.55 -1.55 0.55 -1.65 Q0.6 -1.75 0.65 -1.85 0.7 -2.0 0.7 -2.05 L0.75 -2.1 0.8 -2.2" fill="#338af1" fill-rule="evenodd" stroke="none"/>
    <path d="M0.55 -2.2 L0.6 -2.2 0.7 -2.05 Q0.5 -2.05 0.55 -2.2" fill="#53b1e6" fill-rule="evenodd" stroke="none"/>
    <path d="M0.5 -2.2 L0.55 -2.2 Q0.5 -2.05 0.7 -2.05 0.7 -2.0 0.65 -1.85 0.6 -1.75 0.55 -1.65 L0.5 -1.75 Q0.4 -1.75 0.4 -1.8 L0.4 -1.85 0.5 -2.1 0.5 -2.2" fill="#80fcff" fill-rule="evenodd" stroke="none"/>
    <path d="M1.1 -2.0 L1.0 -1.85 1.0 -1.75 0.9 -1.6 0.8 -1.4 0.75 -1.5 0.7 -1.55 0.8 -1.9 0.95 -1.9 1.1 -2.0" fill="#5ed1fc" fill-rule="evenodd" stroke="none"/>
    <path d="M0.6 -2.2 L0.8 -2.2 0.75 -2.1 0.7 -2.05 0.6 -2.2" fill="#3872a1" fill-rule="evenodd" stroke="none"/>
    <path d="M0.3 -2.2 L0.35 -2.2 0.4 -2.1 0.5 -2.1 0.4 -1.85 0.35 -1.9 0.3 -1.9 0.3 -2.2" fill="#40faff" fill-rule="evenodd" stroke="none"/>
    <path d="M0.35 -2.2 L0.5 -2.2 0.5 -2.1 0.4 -2.1 0.35 -2.2" fill="#2ca0ff" fill-rule="evenodd" stroke="none"/>
    <path d="M0.1 -2.2 L0.3 -2.2 0.3 -1.9 0.25 -1.7 0.2 -1.45 0.15 -1.7 0.1 -1.95 0.1 -2.1 0.1 -2.2" fill="#76faff" fill-rule="evenodd" stroke="none"/>
    <path d="M0.05 -1.9 L0.0 -1.9 0.0 -1.95 0.05 -1.95 0.05 -1.9" fill="#286af0" fill-rule="evenodd" stroke="none"/>
    <path d="M0.3 -1.9 L0.35 -1.9 0.4 -1.85 0.4 -1.8 0.35 -1.45 0.25 -1.15 0.2 -1.45 0.25 -1.7 0.3 -1.9" fill="#3d91f0" fill-rule="evenodd" stroke="none"/>
    <path d="M0.55 -1.65 L0.55 -1.55 0.45 -1.3 0.4 -1.1 0.35 -0.95 Q0.3 -0.9 0.3 -1.0 L0.25 -1.15 0.35 -1.45 0.4 -1.8 Q0.4 -1.75 0.5 -1.75 L0.55 -1.65" fill="#66c7f4" fill-rule="evenodd" stroke="none"/>
    <path d="M0.1 -1.7 L0.05 -1.75 0.05 -1.75 Q0.0 -1.75 0.0 -1.8 L0.05 -1.85 0.1 -1.8 0.1 -1.7" fill="#6263b3" fill-rule="evenodd" stroke="none"/>
    <path d="M0.1 -1.6 L0.1 -1.65 0.15 -1.65 0.1 -1.6" fill="#296ede" fill-rule="evenodd" stroke="none"/>
    <path d="M0.0 -1.3 L0.0 -1.7 0.05 -1.6 0.05 -1.5 0.05 -1.3 0.05 -1.25 0.1 -0.95 0.0 -0.9 0.0 -1.3" fill="#421109" fill-rule="evenodd" stroke="none"/>
    <path d="M0.15 -1.45 Q0.1 -1.45 0.15 -1.55 L0.15 -1.45" fill="#427fea" fill-rule="evenodd" stroke="none"/>
    <path d="M0.05 -1.5 L0.05 -1.45 0.05 -1.3 0.05 -1.5" fill="#8b7465" fill-rule="evenodd" stroke="none"/>
    <path d="M0.05 -1.45 L0.1 -1.35 0.1 -1.2 0.05 -1.25 0.05 -1.3 0.05 -1.45" fill="#fdde92" fill-rule="evenodd" stroke="none"/>
    <path d="M0.65 -1.55 L0.7 -1.55 0.75 -1.5 0.8 -1.4 0.65 -1.1 0.55 -1.05 Q0.5 -1.0 0.45 -1.0 L0.45 -1.05 0.5 -1.15 0.55 -1.15 0.65 -1.2 0.65 -1.25 0.55 -1.3 0.65 -1.55 M0.8 -1.4 L0.8 -1.4" fill="#5f95b7" fill-rule="evenodd" stroke="none"/>
    <path d="M0.55 -1.55 L0.65 -1.55 0.55 -1.3 0.5 -1.15 0.45 -1.05 0.4 -1.1 0.45 -1.3 0.55 -1.55" fill="#396ba7" fill-rule="evenodd" stroke="none"/>
    <path d="M0.55 -1.3 L0.65 -1.25 0.65 -1.2 0.55 -1.15 0.5 -1.15 0.55 -1.3" fill="#5bbefa" fill-rule="evenodd" stroke="none"/>
    <path d="M0.65 -1.1 L0.8 -1.4 0.9 -1.35 0.85 -1.25 0.75 -1.1 0.55 -0.8 0.5 -0.7 0.4 -0.6 0.45 -0.55 0.5 -0.55 0.5 -0.5 0.6 -0.6 0.75 -0.7 0.7 -0.6 0.65 -0.5 0.5 -0.35 0.7 -0.45 0.8 -0.4 0.7 -0.35 0.65 -0.3 0.8 -0.35 0.95 -0.4 Q0.95 -0.3 0.85 -0.25 L0.65 -0.15 0.8 -0.2 0.9 -0.2 Q0.95 -0.1 0.9 -0.1 L0.75 -0.05 Q0.9 -0.1 0.9 0.0 L0.85 0.05 0.8 0.1 Q0.85 0.1 0.9 0.15 0.95 0.2 0.85 0.2 L0.75 0.2 0.75 0.25 0.9 0.3 Q0.95 0.4 0.85 0.4 L0.85 0.4 Q0.95 0.45 0.9 0.55 L0.8 0.5 0.65 0.5 0.8 0.55 0.9 0.7 0.75 0.7 0.65 0.6 Q0.6 0.55 0.55 0.55 L0.65 0.65 0.7 0.7 0.65 0.8 0.5 0.65 0.55 0.75 0.65 0.9 0.6 0.95 0.55 1.0 0.5 0.9 0.45 0.85 0.4 0.75 0.45 0.65 Q0.4 0.5 0.4 0.35 L0.4 0.05 0.45 0.15 0.45 0.35 Q0.4 0.45 0.5 0.5 0.6 0.55 0.6 0.45 L0.6 0.45 Q0.7 0.45 0.7 0.35 0.65 0.35 0.7 0.3 L0.75 0.25 0.7 0.2 0.6 0.2 Q0.75 0.25 0.7 0.15 L0.7 0.0 0.6 0.0 0.5 -0.1 0.45 -0.1 0.4 -0.05 0.4 -0.3 0.3 -0.5 0.5 -0.8 0.65 -1.1" fill="#293f4d" fill-rule="evenodd" stroke="none"/>
    <path d="M0.95 -1.4 L1.05 -1.3 1.05 -1.2 0.95 -1.1 0.85 -1.0 0.75 -1.1 0.85 -1.25 0.9 -1.35 0.95 -1.4" fill="#507387" fill-rule="evenodd" stroke="none"/>
    <path d="M0.85 -1.0 L0.95 -1.1 1.05 -1.2 1.05 -1.0 Q1.05 -1.1 0.95 -1.0 L0.85 -0.85 1.0 -0.85 Q1.0 -0.8 0.85 -0.7 L0.65 -0.5 0.7 -0.6 0.75 -0.7 0.6 -0.6 0.5 -0.5 0.5 -0.55 0.65 -0.7 0.85 -1.0" fill="#1a2a38" fill-rule="evenodd" stroke="none"/>
    <path d="M0.45 -1.0 Q0.5 -1.0 0.55 -1.05 L0.65 -1.1 0.5 -0.8 0.3 -0.5 0.3 -0.65 0.35 -0.85 0.45 -1.0" fill="#45697f" fill-rule="evenodd" stroke="none"/>
    <path d="M0.75 -1.1 L0.85 -1.0 0.65 -0.7 0.55 -0.8 0.75 -1.1" fill="#375261" fill-rule="evenodd" stroke="none"/>
    <path d="M0.55 -0.8 L0.65 -0.7 0.5 -0.55 0.45 -0.55 0.4 -0.6 0.5 -0.7 0.55 -0.8" fill="#326892" fill-rule="evenodd" stroke="none"/>
    <path d="M1.0 -0.85 L0.85 -0.85 0.95 -1.0 Q1.05 -1.1 1.05 -1.0 L1.0 -0.85" fill="#2d608a" fill-rule="evenodd" stroke="none"/>
    <path d="M0.45 -1.05 L0.45 -1.0 0.35 -0.85 0.3 -0.65 0.3 -1.0 Q0.3 -0.9 0.35 -0.95 L0.4 -1.1 0.45 -1.05" fill="#2f4459" fill-rule="evenodd" stroke="none"/>
    <path d="M0.2 -1.1 L0.2 -0.9 0.2 -0.85 Q0.2 -0.7 0.2 -0.5 L0.2 -0.45 0.15 -0.5 0.15 -0.9 0.2 -1.0 0.2 -1.1" fill="#b1ad94" fill-rule="evenodd" stroke="none"/>
    <path d="M0.1 -1.2 L0.15 -1.15 0.2 -1.25 0.2 -1.2 0.2 -1.15 0.2 -1.1 0.2 -1.0 0.15 -0.9 0.15 -1.05 Q0.1 -1.0 0.15 -0.85 L0.05 -0.85 0.05 -0.9 0.1 -0.95 0.05 -1.25 0.1 -1.2" fill="#ae7f5a" fill-rule="evenodd" stroke="none"/>
    <path d="M0.2 -1.1 L0.2 -1.15 0.2 -1.0 Q0.25 -0.9 0.2 -0.9 L0.2 -1.1" fill="#664331" fill-rule="evenodd" stroke="none"/>
    <path d="M0.1 -0.95 L0.05 -0.9 0.05 -0.85 0.05 -0.3 0.05 0.55 0.05 1.15 0.1 1.75 0.1 1.8 0.05 1.9 0.1 1.95 0.1 2.0 0.05 2.0 0.0 2.0 0.0 -0.5 0.0 -0.65 0.0 -0.9 0.1 -0.95 M0.0 -0.9 L0.0 -0.9" fill="#563420" fill-rule="evenodd" stroke="none"/>
    <path d="M0.0 -0.65 L0.0 -0.9 0.0 -0.65 0.0 -0.65 M0.0 -0.9 L0.0 -0.9" fill="#797373" fill-rule="evenodd" stroke="none"/>
    <path d="M0.0 -0.9 L0.0 -1.3 0.0 -0.9 0.0 -0.9 0.0 -0.9" fill="#abc1d1" fill-rule="evenodd" stroke="none"/>
    <path d="M0.0 -0.5 L0.0 -0.65 0.0 -0.5 0.0 -0.5 M0.0 -0.65 L0.0 -0.65" fill="#75a6d4" fill-rule="evenodd" stroke="none"/>
    <path d="M0.05 -0.3 L0.05 -0.85 0.15 -0.85 0.15 -0.45 0.15 -0.4 0.05 -0.3" fill="#dbbf43" fill-rule="evenodd" stroke="none"/>
    <path d="M0.15 -0.9 L0.15 -0.5 0.15 -0.45 0.15 -0.85 Q0.1 -1.0 0.15 -1.05 L0.15 -0.9" fill="#40a7c5" fill-rule="evenodd" stroke="none"/>
    <path d="M0.2 -0.5 Q0.2 -0.7 0.2 -0.85 L0.25 -0.65 0.25 -0.45 0.2 -0.5" fill="#b88c41" fill-rule="evenodd" stroke="none"/>
    <path d="M0.0 -0.3 L0.0 -0.5 0.0 2.0 0.05 2.0 0.1 2.0 -0.1 2.0 -0.3 2.0 -0.25 2.0 -0.15 2.0 0.0 1.95 0.0 1.8 0.0 -0.2 0.0 -0.25 0.0 -0.3 M0.0 -0.5 L0.0 -0.5" fill="#827772" fill-rule="evenodd" stroke="none"/>
    <path d="M0.15 -0.5 L0.2 -0.45 0.2 -0.5 0.25 -0.45 0.35 -0.25 0.3 -0.25 0.25 -0.3 Q0.25 -0.3 0.25 -0.25 L0.2 -0.25 0.15 -0.4 0.15 -0.45 0.15 -0.5" fill="#7a6b53" fill-rule="evenodd" stroke="none"/>
    <path d="M0.05 0.55 L0.05 -0.3 0.15 -0.4 0.2 -0.25 0.1 -0.25 0.1 0.25 0.1 0.5 0.1 0.55 0.05 0.55" fill="#c09235" fill-rule="evenodd" stroke="none"/>
    <path d="M0.0 -0.25 L0.0 -0.2 0.0 1.8 -0.15 1.8 -0.15 0.5 -0.15 0.35 -0.15 -0.25 0.0 -0.25 M-0.15 0.5 L-0.15 0.5" fill="#fffffe" fill-rule="evenodd" stroke="none"/>
    <path d="M0.1 1.8 L0.1 1.75 0.1 0.55 0.1 0.5 Q0.2 0.45 0.2 0.35 0.2 0.3 0.1 0.25 L0.1 -0.25 0.2 -0.25 0.2 0.05 0.2 0.25 0.2 0.3 0.2 0.75 0.25 1.2 0.25 1.8 0.1 1.8" fill="#ebab2a" fill-rule="evenodd" stroke="none"/>
    <path d="M0.25 -0.25 Q0.25 -0.3 0.25 -0.3 L0.3 -0.25 0.3 0.0 0.25 0.05 0.25 0.0 0.25 -0.25" fill="#cbb68e" fill-rule="evenodd" stroke="none"/>
    <path d="M0.35 -0.25 L0.35 -0.25 0.35 -0.05 0.3 0.05 0.3 0.0 0.3 -0.25 0.35 -0.25" fill="#ca9530" fill-rule="evenodd" stroke="none"/>
    <path d="M0.4 -0.05 L0.45 -0.1 0.5 -0.1 0.6 0.0 0.7 0.0 0.7 0.15 Q0.75 0.25 0.6 0.2 0.55 0.2 0.45 0.15 L0.4 0.05 0.4 -0.05" fill="#3b6886" fill-rule="evenodd" stroke="none"/>
    <path d="M0.2 -0.25 L0.25 -0.25 0.25 0.0 0.2 0.05 0.2 -0.25" fill="#62a6a2" fill-rule="evenodd" stroke="none"/>
    <path d="M2.2 2.1 L2.2 2.2 1.9 2.2 1.8 2.1 Q1.8 2.05 1.8 1.95 1.7 1.95 1.7 1.85 L1.7 1.65 1.95 1.85 2.2 2.1 M0.8 -0.4 L0.7 -0.45 0.85 -0.6 1.0 -0.7 Q1.05 -0.6 1.0 -0.5 L0.8 -0.4" fill="#11242c" fill-rule="evenodd" stroke="none"/>
    <path d="M1.0 -0.2 L1.0 -0.3 1.0 -0.25 1.0 0.3 1.0 -0.2" fill="#a09c61" fill-rule="evenodd" stroke="none"/>
    <path d="M2.2 -1.6 L2.2 -1.3 2.0 -1.2 1.85 -1.05 1.9 -1.25 1.95 -1.4 2.05 -1.5 2.2 -1.6" fill="#2a4552" fill-rule="evenodd" stroke="none"/>
    <path d="M2.2 -1.3 L2.2 -1.05 1.85 -0.9 1.75 -0.85 1.65 -0.8 1.55 -0.75 1.55 -0.9 Q1.65 -0.95 1.7 -1.0 L1.85 -1.05 2.0 -1.2 2.2 -1.3 M-2.2 0.2 L-2.2 0.0 -1.9 0.0 -1.9 0.15 -2.2 0.2" fill="#13171f" fill-rule="evenodd" stroke="none"/>
    <path d="M1.55 -0.75 L1.65 -0.8 1.7 -0.75 1.7 -0.7 1.55 -0.7 1.55 -0.75" fill="#3975a4" fill-rule="evenodd" stroke="none"/>
    <path d="M1.65 -0.8 L1.75 -0.85 1.85 -0.9 Q1.95 -0.9 1.9 -0.8 L1.9 -0.65 1.75 -0.6 1.6 -0.55 1.55 -0.7 1.7 -0.7 1.7 -0.75 1.65 -0.8" fill="#334e5d" fill-rule="evenodd" stroke="none"/>
    <path d="M2.2 -1.05 L2.2 -0.8 1.9 -0.65 1.9 -0.8 Q1.95 -0.9 1.85 -0.9 L2.2 -1.05" fill="#1f333d" fill-rule="evenodd" stroke="none"/>
    <path d="M1.3 -0.9 L1.35 -0.95 1.35 -1.05 1.35 -0.9 1.35 -0.85 1.35 -0.25 1.35 -0.15 1.35 0.0 1.35 1.75 1.35 1.8 1.35 1.95 1.35 2.0 1.3 2.0 1.3 -0.9 1.3 -0.9" fill="#57321e" fill-rule="evenodd" stroke="none"/>
    <path d="M1.5 -0.9 L1.55 -0.4 1.55 -0.3 1.55 -0.25 1.5 -0.25 1.5 -0.3 1.4 -0.5 1.45 -0.5 Q1.5 -0.45 1.5 -0.55 L1.5 -0.8 1.45 -0.85 1.4 -0.85 1.35 -0.85 1.35 -0.9 Q1.45 -0.9 1.4 -1.05 1.35 -1.2 1.4 -1.2 L1.45 -1.25 1.45 -1.05 1.5 -0.9 1.5 -0.9" fill="#948262" fill-rule="evenodd" stroke="none"/>
    <path d="M1.2 -1.35 L1.2 -0.95 1.15 -0.9 Q1.15 -1.1 1.2 -1.35" fill="#ad6134" fill-rule="evenodd" stroke="none"/>
    <path d="M1.1 -0.85 L1.1 -0.85 1.15 -0.85 1.2 -0.85 1.2 -0.85 1.2 -0.5 Q1.1 -0.5 1.1 -0.65 L1.1 -0.85" fill="#e7a82a" fill-rule="evenodd" stroke="none"/>
    <path d="M1.2 -0.85 L1.2 -0.85 1.25 -0.75 1.2 -0.65 Q1.2 -0.5 1.3 -0.5 L1.3 -0.45 1.2 -0.45 1.2 -0.5 1.2 -0.85" fill="#ebc28c" fill-rule="evenodd" stroke="none"/>
    <path d="M1.1 -0.55 L1.1 -0.7 Q1.05 -0.85 1.1 -0.85 L1.1 -0.65 Q1.1 -0.5 1.2 -0.5 L1.2 -0.45 1.2 -0.35 1.15 -0.25 1.0 -0.25 1.1 -0.4 1.1 -0.55" fill="#c38f3f" fill-rule="evenodd" stroke="none"/>
    <path d="M1.4 -0.85 L1.45 -0.85 1.45 -0.5 1.4 -0.5 1.4 -0.6 1.4 -0.85" fill="#30b2d1" fill-rule="evenodd" stroke="none"/>
    <path d="M1.45 -0.85 L1.5 -0.8 1.5 -0.55 Q1.5 -0.45 1.45 -0.5 L1.45 -0.85" fill="#aea98c" fill-rule="evenodd" stroke="none"/>
    <path d="M1.35 2.0 Q1.4 2.0 1.3 2.0 L1.2 2.0 Q1.3 2.0 1.3 1.95 L1.3 1.8 1.3 -0.25 1.3 -0.45 1.3 -0.5 1.3 -0.85 1.3 -0.9 1.3 2.0 1.35 2.0" fill="#81726c" fill-rule="evenodd" stroke="none"/>
    <path d="M1.35 -0.85 L1.4 -0.85 1.4 -0.6 1.35 -0.55 1.4 -0.5 1.5 -0.3 1.4 -0.3 1.35 -0.25 1.35 -0.85" fill="#d9aa37" fill-rule="evenodd" stroke="none"/>
    <path d="M1.4 -0.6 L1.4 -0.5 1.35 -0.55 1.4 -0.6" fill="#e1ed64" fill-rule="evenodd" stroke="none"/>
    <path d="M1.3 -0.45 L1.3 -0.25 1.25 -0.3 1.2 -0.35 1.2 -0.45 1.3 -0.45" fill="#e6e0d4" fill-rule="evenodd" stroke="none"/>
    <path d="M1.0 -0.3 L1.05 -0.45 1.1 -0.55 1.1 -0.4 1.0 -0.25 1.0 -0.3" fill="#5b4630" fill-rule="evenodd" stroke="none"/>
    <path d="M1.0 -0.25 L1.15 -0.25 1.15 0.0 1.15 0.3 1.0 0.35 1.0 0.3 1.0 -0.25" fill="#eadc40" fill-rule="evenodd" stroke="none"/>
    <path d="M1.35 0.0 L1.35 -0.15 1.4 -0.1 1.5 -0.1 1.5 0.05 1.5 1.05 1.55 1.45 1.55 1.8 1.35 1.8 1.35 1.75 1.4 0.85 1.35 0.0" fill="#eaa82a" fill-rule="evenodd" stroke="none"/>
    <path d="M1.5 -0.3 L1.5 -0.25 1.5 -0.1 1.4 -0.1 1.35 -0.15 1.35 -0.25 1.4 -0.3 1.5 -0.3" fill="#e4ea51" fill-rule="evenodd" stroke="none"/>
    <path d="M1.5 -0.25 L1.55 -0.25 1.55 -0.1 1.5 -0.1 1.5 -0.25" fill="#5cd6ea" fill-rule="evenodd" stroke="none"/>
    <path d="M1.3 -0.25 L1.3 1.8 1.15 1.8 1.15 0.0 1.15 -0.25 1.2 -0.35 1.25 -0.3 1.3 -0.25" fill="#fefefd" fill-rule="evenodd" stroke="none"/>
    <path d="M1.9 -0.55 L1.95 -0.35 1.7 -0.25 1.65 -0.35 1.6 -0.45 1.9 -0.55" fill="#334955" fill-rule="evenodd" stroke="none"/>
    <path d="M2.2 -0.6 L2.2 -0.4 1.95 -0.35 1.9 -0.55 2.05 -0.55 2.2 -0.6" fill="#1d313a" fill-rule="evenodd" stroke="none"/>
    <path d="M1.55 -0.4 L1.6 -0.35 1.65 -0.25 1.6 -0.25 1.55 -0.3 1.55 -0.4 M1.6 -0.25 L1.6 -0.25" fill="#6d5431" fill-rule="evenodd" stroke="none"/>
    <path d="M1.55 -0.25 L1.55 -0.3 1.6 -0.25 1.6 1.0 1.6 1.8 1.55 1.8 1.55 1.45 1.55 0.15 1.55 -0.1 1.55 -0.25" fill="#d7c29b" fill-rule="evenodd" stroke="none"/>
    <path d="M1.65 -0.25 L1.65 -0.05 1.65 -0.25" fill="#5e4e2a" fill-rule="evenodd" stroke="none"/>
    <path d="M1.65 -0.25 L1.65 -0.25 1.65 -0.05 1.65 0.05 1.65 1.05 1.6 1.0 1.6 -0.25 1.65 -0.25" fill="#e2a42f" fill-rule="evenodd" stroke="none"/>
    <path d="M1.6 -0.25 L1.6 -0.25 1.6 1.0 1.6 -0.25" fill="#af7e37" fill-rule="evenodd" stroke="none"/>
    <path d="M2.2 -0.4 L2.2 -0.2 1.95 -0.2 1.7 -0.15 1.7 -0.25 1.95 -0.35 2.2 -0.4" fill="#13161d" fill-rule="evenodd" stroke="none"/>
    <path d="M2.2 -0.2 L2.2 0.0 1.7 0.0 1.7 -0.15 1.95 -0.2 2.2 -0.2" fill="#3a5360" fill-rule="evenodd" stroke="none"/>
    <path d="M1.5 -0.1 L1.55 -0.1 1.55 0.15 1.55 1.45 1.55 1.8 1.55 1.45 1.5 1.05 1.55 0.55 1.5 0.05 1.5 -0.1" fill="#57a5aa" fill-rule="evenodd" stroke="none"/>
    <path d="M2.05 -2.2 L2.15 -2.2 Q2.1 -2.1 2.0 -2.1 L2.05 -2.2" fill="#2e84cc" fill-rule="evenodd" stroke="none"/>
    <path d="M2.2 0.2 L2.2 0.4 1.7 0.3 1.7 0.15 1.95 0.15 2.2 0.2" fill="#476574" fill-rule="evenodd" stroke="none"/>
    <path d="M2.2 1.0 L2.2 1.25 1.85 1.1 Q1.65 0.95 1.75 0.8 L2.2 1.0" fill="#2d4957" fill-rule="evenodd" stroke="none"/>
    <path d="M2.2 0.0 L2.2 0.2 1.95 0.15 1.7 0.15 1.7 0.3 2.2 0.4 2.2 0.55 1.7 0.45 1.7 0.65 1.7 0.0 2.2 0.0" fill="#202935" fill-rule="evenodd" stroke="none"/>
    <path d="M2.2 0.55 L2.2 0.8 1.95 0.7 1.7 0.65 1.7 0.45 2.2 0.55" fill="#3f5d6c" fill-rule="evenodd" stroke="none"/>
    <path d="M2.2 0.8 L2.2 1.0 1.75 0.8 1.75 0.7 1.7 0.65 1.95 0.7 2.2 0.8" fill="#171e29" fill-rule="evenodd" stroke="none"/>
    <path d="M2.2 1.45 L2.2 1.75 1.75 1.45 1.7 1.2 1.95 1.3 2.2 1.45" fill="#1a313c" fill-rule="evenodd" stroke="none"/>
    <path d="M1.65 0.05 L1.65 1.0 1.65 1.05 1.65 0.05" fill="#5b4926" fill-rule="evenodd" stroke="none"/>
    <path d="M1.5 1.05 L1.5 0.05 1.55 0.55 1.5 1.05" fill="#ada56c" fill-rule="evenodd" stroke="none"/>
    <path d="M1.0 1.9 L1.0 1.8 1.0 0.3 1.0 0.35 1.0 1.05 1.05 1.8 1.05 1.9 1.0 1.9" fill="#996d30" fill-rule="evenodd" stroke="none"/>
    <path d="M1.0 0.35 L1.15 0.3 1.15 1.8 1.05 1.8 1.0 1.05 1.0 0.35 M-0.25 0.6 L-0.15 0.55 -0.15 1.8 -0.25 1.8 -0.25 0.6" fill="#eaa727" fill-rule="evenodd" stroke="none"/>
    <path d="M1.15 1.8 L1.15 0.3 1.15 0.0 1.15 1.8" fill="#edc587" fill-rule="evenodd" stroke="none"/>
    <path d="M1.6 1.8 L1.6 1.0 1.6 1.8" fill="#c39963" fill-rule="evenodd" stroke="none"/>
    <path d="M1.65 1.0 L1.65 1.8 1.65 1.05 1.65 1.0" fill="#eead34" fill-rule="evenodd" stroke="none"/>
    <path d="M1.65 1.8 L1.6 1.85 1.6 1.9 1.6 1.8 1.6 1.0 1.65 1.05 1.65 1.8" fill="#b6812e" fill-rule="evenodd" stroke="none"/>
    <path d="M1.55 1.45 L1.55 0.15 1.55 1.45" fill="#9ba680" fill-rule="evenodd" stroke="none"/>
    <path d="M0.95 0.3 Q0.95 0.05 1.0 -0.2 L1.0 0.3 0.95 0.3" fill="#d3ddb4" fill-rule="evenodd" stroke="none"/>
    <path d="M1.0 1.8 L0.95 1.05 0.95 0.3 1.0 0.3 1.0 1.8" fill="#d39e58" fill-rule="evenodd" stroke="none"/>
    <path d="M0.6 0.2 L0.7 0.2 0.75 0.25 0.7 0.3 Q0.65 0.35 0.7 0.35 0.7 0.45 0.6 0.45 L0.6 0.45 Q0.6 0.55 0.5 0.5 0.4 0.45 0.45 0.35 L0.6 0.35 Q0.65 0.3 0.6 0.2" fill="#355d76" fill-rule="evenodd" stroke="none"/>
    <path d="M0.45 0.35 L0.45 0.15 Q0.55 0.2 0.6 0.2 0.65 0.3 0.6 0.35 L0.45 0.35" fill="#3d80b9" fill-rule="evenodd" stroke="none"/>
    <path d="M0.25 0.25 L0.25 0.05 0.3 0.0 0.3 0.05 0.3 0.2 0.3 0.3 0.25 0.25" fill="#d0fbf0" fill-rule="evenodd" stroke="none"/>
    <path d="M0.25 0.0 L0.25 0.05 0.25 0.25 0.25 0.3 0.2 0.25 0.2 0.05 0.25 0.0" fill="#71dee2" fill-rule="evenodd" stroke="none"/>
    <path d="M0.35 -0.05 L0.35 0.05 0.35 0.3 0.3 0.2 0.3 0.05 0.35 -0.05" fill="#d8e05c" fill-rule="evenodd" stroke="none"/>
    <path d="M0.25 0.3 L0.25 0.25 0.3 0.3 0.3 1.8 0.25 1.5 0.3 1.0 0.25 0.45 0.25 0.3" fill="#d4c39d" fill-rule="evenodd" stroke="none"/>
    <path d="M0.35 1.8 L0.35 1.85 0.3 1.9 0.3 1.8 0.3 0.3 0.3 0.2 0.35 0.3 Q0.3 1.15 0.35 1.8" fill="#b48745" fill-rule="evenodd" stroke="none"/>
    <path d="M0.1 0.25 Q0.2 0.3 0.2 0.35 0.2 0.45 0.1 0.5 L0.1 0.25" fill="#ede143" fill-rule="evenodd" stroke="none"/>
    <path d="M0.1 1.75 L0.05 1.15 0.05 0.55 0.1 0.55 0.1 1.75" fill="#8a5929" fill-rule="evenodd" stroke="none"/>
    <path d="M0.35 1.05 L0.35 1.8 Q0.3 1.15 0.35 0.3 L0.35 1.05" fill="#e0a330" fill-rule="evenodd" stroke="none"/>
    <path d="M0.2 0.25 L0.25 0.3 0.25 0.45 0.25 1.5 0.3 1.8 0.25 1.8 0.25 1.2 0.25 0.75 0.2 0.3 0.2 0.25" fill="#56a7ad" fill-rule="evenodd" stroke="none"/>
    <path d="M0.35 0.05 L0.35 1.05 0.35 0.3 0.35 0.05" fill="#736b3f" fill-rule="evenodd" stroke="none"/>
    <path d="M1.1 2.2 L0.85 2.2 0.7 1.85 0.6 1.55 0.45 1.2 Q0.4 0.95 0.45 0.85 L0.5 0.9 Q0.45 0.9 0.5 0.95 L0.9 1.75 0.9 1.9 Q0.9 2.0 0.95 2.05 1.0 2.05 1.05 2.1 L1.1 2.2" fill="#122229" fill-rule="evenodd" stroke="none"/>
    <path d="M0.2 0.3 L0.25 0.75 0.25 1.2 0.2 0.75 0.2 0.3" fill="#bba862" fill-rule="evenodd" stroke="none"/>
    <path d="M0.65 0.8 L0.7 0.7 0.85 0.85 Q0.95 0.95 0.9 1.05 L0.75 0.95 0.65 0.8" fill="#182931" fill-rule="evenodd" stroke="none"/>
    <path d="M0.55 1.0 L0.6 0.95 0.65 0.9 0.85 1.15 Q0.95 1.3 0.9 1.45 L0.7 1.25 0.55 1.0" fill="#13242c" fill-rule="evenodd" stroke="none"/>
    <path d="M0.25 1.5 L0.25 0.45 0.3 1.0 0.25 1.5" fill="#94a581" fill-rule="evenodd" stroke="none"/>
    <path d="M0.1 1.95 L0.05 1.9 0.1 1.8 0.25 1.8 0.3 1.8 0.25 1.9 0.1 1.85 Q0.05 1.9 0.1 1.95" fill="#8d6a3a" fill-rule="evenodd" stroke="none"/>
    <path d="M0.3 1.9 L0.35 2.0 0.25 2.0 0.25 1.9 0.3 1.8 0.3 1.9" fill="#a09e88" fill-rule="evenodd" stroke="none"/>
    <path d="M0.65 2.2 L0.45 2.2 Q0.4 2.15 0.45 2.05 L0.5 2.0 0.45 1.9 0.45 1.45 0.55 1.8 0.65 2.2" fill="#0f1f26" fill-rule="evenodd" stroke="none"/>
    <path d="M0.1 2.0 L0.1 1.95 Q0.05 1.9 0.1 1.85 L0.25 1.9 0.25 2.0 0.1 2.0" fill="#d0973e" fill-rule="evenodd" stroke="none"/>
    <path d="M1.2 2.0 L1.15 2.0 1.15 1.8 1.3 1.8 1.3 1.95 Q1.3 2.0 1.2 2.0 M0.0 1.8 L0.0 1.95 -0.15 2.0 -0.1 1.9 Q-0.1 1.85 -0.15 1.8 L0.0 1.8 M-1.65 1.8 L-1.55 1.8 -1.55 1.95 Q-1.55 2.05 -1.65 2.0 L-1.65 1.8" fill="#e1cdb9" fill-rule="evenodd" stroke="none"/>
    <path d="M1.6 1.9 L1.65 2.0 1.55 2.0 1.5 1.9 1.55 1.8 1.6 1.8 1.6 1.9" fill="#9d9a83" fill-rule="evenodd" stroke="none"/>
    <path d="M1.55 1.8 L1.5 1.9 Q1.45 1.85 1.4 1.85 1.35 1.9 1.35 1.95 L1.35 1.8 1.55 1.8" fill="#8c693a" fill-rule="evenodd" stroke="none"/>
    <path d="M1.15 2.0 L1.0 2.0 Q0.95 2.0 1.0 1.9 L1.05 1.9 1.05 1.8 1.15 1.8 1.15 2.0" fill="#c28e43" fill-rule="evenodd" stroke="none"/>
    <path d="M1.55 2.0 L1.35 2.0 1.35 1.95 Q1.35 1.9 1.4 1.85 1.45 1.85 1.5 1.9 L1.55 2.0" fill="#d0973d" fill-rule="evenodd" stroke="none"/>
    <path d="M1.6 2.2 L1.3 2.2 1.25 2.05 1.45 2.05 1.6 2.2" fill="#0d1e24" fill-rule="evenodd" stroke="none"/>
    <path d="M1.35 1.75 L1.35 0.0 1.4 0.85 1.35 1.75" fill="#95632a" fill-rule="evenodd" stroke="none"/>
    <path d="M-0.25 0.5 L-0.15 0.5 -0.15 0.55 -0.25 0.6 -0.25 0.5 M-0.15 0.5 L-0.15 0.5" fill="#eae540" fill-rule="evenodd" stroke="none"/>
    <path d="M-0.15 0.55 L-0.15 0.5 -0.15 1.8 -0.15 1.8 -0.15 0.55" fill="#ecc284" fill-rule="evenodd" stroke="none"/>
    <path d="M-0.8 0.1 Q-0.75 0.1 -0.65 0.15 -0.6 0.2 -0.7 0.2 L-0.7 0.2 Q-0.6 0.25 -0.6 0.3 L-0.65 0.3 -0.7 0.35 -0.9 0.4 -1.1 0.45 Q-1.15 0.3 -1.0 0.3 L-0.85 0.25 -0.75 0.2 -0.9 0.25 -1.1 0.25 Q-1.15 0.15 -1.0 0.1 L-0.8 0.1" fill="#0e283a" fill-rule="evenodd" stroke="none"/>
    <path d="M-1.2 0.05 Q-1.15 0.25 -1.15 0.55 L-1.15 1.05 -1.2 0.55 -1.2 0.05" fill="#5f4f2b" fill-rule="evenodd" stroke="none"/>
    <path d="M-1.45 0.05 L-1.45 0.05 -1.45 1.75 -1.45 0.05" fill="#95622a" fill-rule="evenodd" stroke="none"/>
    <path d="M-1.3 0.05 L-1.3 1.0 -1.3 0.05" fill="#aaa56e" fill-rule="evenodd" stroke="none"/>
    <path d="M-2.2 0.8 L-2.2 0.55 -2.0 0.5 Q-1.9 0.5 -1.9 0.6 -1.9 0.7 -2.0 0.75 L-2.1 0.75 -2.2 0.8" fill="#0f2027" fill-rule="evenodd" stroke="none"/>
    <path d="M-2.2 0.4 L-2.2 0.2 -1.9 0.15 -1.9 0.35 -2.2 0.4" fill="#1f343d" fill-rule="evenodd" stroke="none"/>
    <path d="M-2.2 1.25 L-2.2 1.0 -1.9 0.9 Q-1.85 1.0 -1.95 1.1 L-2.2 1.25" fill="#0f2028" fill-rule="evenodd" stroke="none"/>
    <path d="M-1.2 1.0 L-1.2 1.05 -1.2 1.8 -1.2 1.0 -1.2 1.0 M-1.2 1.8 L-1.2 1.8" fill="#c39962" fill-rule="evenodd" stroke="none"/>
    <path d="M-1.25 1.45 L-1.25 0.15 -1.25 1.45" fill="#9ba781" fill-rule="evenodd" stroke="none"/>
    <path d="M-2.2 1.75 L-2.2 1.45 -1.9 1.3 -1.95 1.6 -2.05 1.7 -2.2 1.75" fill="#0e1f25" fill-rule="evenodd" stroke="none"/>
    <path d="M-1.85 2.0 L-1.85 1.9 Q-1.85 1.85 -1.85 1.8 L-1.85 1.8 -1.8 1.8 -1.75 1.9 -1.75 2.0 -1.85 2.0" fill="#72502b" fill-rule="evenodd" stroke="none"/>
    <path d="M-0.15 2.0 L-0.25 2.0 -0.25 1.8 -0.15 1.8 -0.15 1.8 Q-0.1 1.85 -0.1 1.9 L-0.15 2.0 M-1.7 1.8 L-1.65 1.8 -1.65 2.0 -1.75 2.0 -1.75 1.9 -1.8 1.8 -1.7 1.8" fill="#c28b3a" fill-rule="evenodd" stroke="none"/>
    <path d="M-1.3 2.2 L-1.6 2.2 -1.55 2.1 -1.4 2.05 Q-1.3 2.05 -1.3 2.1 -1.25 2.1 -1.3 2.2 M-1.9 2.2 L-2.2 2.2 -2.2 2.1 -2.05 1.95 -1.9 1.85 -1.9 1.95 -1.85 2.05 Q-1.8 2.05 -1.85 2.1 L-1.9 2.2" fill="#0e1f26" fill-rule="evenodd" stroke="none"/>
    <path d="M-1.3 2.0 L-1.4 2.0 -1.45 2.0 -1.45 1.85 Q-1.4 1.85 -1.35 1.85 -1.3 1.9 -1.3 1.95 L-1.3 2.0" fill="#cd953b" fill-rule="evenodd" stroke="none"/>
    <path d="M-0.3 2.0 L-0.3 1.9 Q-0.3 1.85 -0.35 1.8 L-0.3 1.8 -0.25 1.8 -0.25 2.0 -0.3 2.0" fill="#6e4d29" fill-rule="evenodd" stroke="none"/>
    <path d="M-0.45 2.2 L-0.65 2.2 -0.55 1.75 -0.4 1.35 -0.4 1.75 Q-0.4 2.0 -0.45 2.2" fill="#0e1e24" fill-rule="evenodd" stroke="none"/>
    <path d="M-0.85 2.2 L-1.1 2.2 -1.0 2.05 Q-0.95 1.95 -0.95 1.9 L-0.4 0.85 Q-0.35 1.05 -0.5 1.35 L-0.65 1.75 -0.85 2.2" fill="#0e1d24" fill-rule="evenodd" stroke="none"/>
  </g>
</svg>
