<?xml version="1.0" encoding="UTF-8" standalone="no"?>
<svg xmlns:xlink="http://www.w3.org/1999/xlink" height="6.7px" width="3.1px" xmlns="http://www.w3.org/2000/svg">
  <g transform="matrix(1.0, 0.0, 0.0, 1.0, 1.6, 3.4)">
    <path d="M0.1 -3.15 L0.2 -3.2 0.4 -3.2 Q0.5 -3.15 0.5 -3.05 L0.5 -3.0 0.55 -2.9 0.5 -2.95 0.35 -3.0 0.25 -2.75 0.2 -2.6 0.1 -2.75 0.05 -2.75 -0.1 -2.65 -0.3 -2.5 -0.45 -2.4 -0.5 -2.45 Q-0.6 -2.55 -0.7 -2.5 -0.85 -2.5 -0.9 -2.45 L-1.0 -2.35 Q-1.1 -2.2 -1.0 -2.0 L-1.1 -1.95 -1.2 -2.15 -1.4 -2.25 -1.35 -2.35 Q-1.3 -2.4 -1.35 -2.45 L-1.35 -2.5 -1.35 -2.55 -1.4 -2.55 -1.4 -2.75 -1.35 -2.75 -1.0 -2.7 -0.75 -2.8 -0.65 -2.8 Q-0.55 -2.85 -0.45 -2.95 L-0.35 -2.95 0.1 -3.15 M1.45 2.1 L1.4 2.2 1.4 2.15 1.2 2.3 1.15 2.35 1.1 2.05 1.1 1.95 1.15 1.95 1.2 1.9 1.45 2.1 M1.4 2.45 L1.4 2.6 1.3 2.85 1.1 3.05 1.05 3.1 0.95 2.85 1.05 2.8 1.25 2.65 1.4 2.45 M0.35 -2.4 L0.35 -2.55 Q0.45 -2.55 0.5 -2.35 0.5 -2.25 0.45 -2.2 L0.35 -2.4 M1.05 0.35 L1.1 0.4 1.1 0.5 Q1.05 0.55 1.05 0.65 L1.0 0.75 1.05 0.35" fill="#8c3530" fill-rule="evenodd" stroke="none"/>
    <path d="M0.1 -3.15 L-0.35 -2.95 -0.6 -3.15 -0.95 -3.35 -0.8 -3.35 Q-0.6 -3.4 0.1 -3.15 M-0.65 -2.8 L-0.75 -2.8 -1.0 -2.7 -1.35 -2.75 -1.4 -2.75 -1.4 -2.8 -1.35 -2.9 -1.3 -3.0 Q-1.25 -3.05 -1.25 -3.05 L-1.25 -3.15 -1.1 -3.25 -0.65 -2.85 -0.65 -2.8 M-0.45 -2.4 L-0.3 -2.5 0.15 -1.65 0.25 -1.7 Q0.3 -1.7 0.4 -1.5 L0.55 -1.15 Q0.55 -0.75 0.3 -0.75 L0.35 -0.65 Q0.45 -0.65 0.6 -0.1 0.8 0.5 0.85 0.6 0.85 0.4 0.9 0.3 L0.85 0.05 0.65 -0.75 0.65 -1.05 Q0.6 -1.5 -0.1 -2.65 L0.05 -2.75 0.1 -2.75 0.2 -2.6 0.15 -2.45 Q0.2 -2.3 0.3 -2.35 0.35 -2.35 0.35 -2.4 L0.45 -2.2 0.45 -2.2 Q0.4 -2.15 0.4 -2.05 0.4 -2.0 0.5 -1.85 0.6 -1.65 0.7 -1.7 L0.85 -1.75 0.9 -1.7 0.95 -1.65 Q1.0 -1.6 0.85 -1.55 L0.8 -1.55 0.75 -1.5 0.75 -1.4 0.9 -1.2 1.05 -1.0 Q1.05 -0.9 1.0 -0.85 0.9 -0.8 0.9 -0.7 L0.9 -0.6 Q1.0 -0.55 1.1 -0.4 L1.05 -0.15 1.0 -0.05 0.95 0.05 0.9 0.0 0.9 0.15 Q0.9 0.2 1.0 0.3 L1.05 0.35 1.0 0.75 0.9 0.75 0.95 0.95 Q0.95 1.1 1.1 1.3 1.1 1.4 1.0 1.4 0.95 1.4 0.95 1.5 L0.95 1.55 Q1.0 1.7 1.2 1.9 L1.15 1.95 1.1 1.95 1.1 2.05 1.15 2.35 1.05 2.4 0.95 2.3 0.85 2.35 0.85 2.45 0.75 2.4 0.8 2.3 0.8 2.15 0.75 2.05 0.65 2.1 0.65 2.05 0.6 1.7 0.6 1.4 Q0.55 1.1 0.35 1.1 0.2 1.1 0.2 1.0 0.15 0.95 0.2 0.85 L0.3 0.85 Q0.3 1.0 0.35 0.95 0.5 0.95 0.5 0.75 L0.5 0.45 0.4 0.3 Q0.3 0.25 0.25 0.25 0.2 0.25 0.2 0.4 0.2 0.6 0.1 0.6 L-0.1 0.45 -0.1 0.35 0.0 0.35 Q0.0 0.45 0.1 0.45 L0.1 0.25 0.15 0.05 0.1 -0.3 0.1 -0.5 -0.05 -0.95 Q-0.1 -1.1 -0.2 -1.1 L-0.25 -1.05 -0.5 -1.15 -0.55 -1.15 -0.65 -1.25 Q-0.7 -1.5 -0.55 -1.5 L-0.5 -1.5 -0.5 -1.5 -0.45 -1.45 -0.5 -1.45 -0.5 -1.45 -0.6 -1.35 -0.5 -1.25 -0.4 -1.25 Q-0.1 -1.3 -0.15 -1.65 L-0.25 -1.8 -0.25 -1.8 -0.4 -1.85 -0.6 -1.75 Q-0.75 -1.75 -0.8 -1.95 L-0.75 -2.15 -0.7 -2.25 -0.65 -2.25 -0.55 -2.2 -0.55 -2.1 -0.55 -2.15 -0.6 -2.1 -0.65 -2.1 -0.65 -2.05 -0.6 -1.95 -0.5 -1.95 Q-0.3 -2.0 -0.35 -2.2 -0.35 -2.35 -0.45 -2.4 M1.05 3.1 Q0.9 3.2 0.65 3.2 L0.4 3.15 Q0.2 3.1 0.2 3.1 L0.15 3.1 0.1 3.1 0.1 3.0 0.3 3.05 0.35 3.05 0.45 3.05 0.7 2.95 0.95 2.85 1.05 3.1" fill="#a65130" fill-rule="evenodd" stroke="none"/>
    <path d="M-1.35 -2.5 L-1.35 -2.45 Q-1.3 -2.4 -1.35 -2.35 L-1.35 -2.5 -1.35 -2.5 M-1.2 -2.15 L-1.1 -1.95 -1.0 -2.0 Q-1.1 -2.2 -1.0 -2.35 L-0.9 -2.45 Q-0.75 -2.4 -0.7 -2.25 L-0.75 -2.15 -0.8 -1.95 Q-0.75 -1.75 -0.6 -1.75 L-0.4 -1.85 -0.25 -1.8 -0.25 -1.8 -0.3 -1.65 -0.35 -1.5 -0.45 -1.5 -0.5 -1.5 -0.5 -1.5 -0.55 -1.5 Q-0.7 -1.5 -0.65 -1.25 L-0.55 -1.15 -0.6 -0.95 -0.6 -1.0 -0.7 -0.9 -0.7 -0.85 -0.65 -0.75 -0.55 -0.7 -0.55 -0.65 Q-0.5 -0.55 -0.65 -0.5 -0.8 -0.5 -0.85 -0.6 L-0.95 -0.7 -0.95 -0.75 Q-0.9 -0.8 -0.9 -0.85 L-0.95 -0.85 -1.0 -0.8 -1.05 -0.85 -1.1 -0.9 Q-1.1 -1.0 -1.0 -1.0 -0.85 -1.0 -0.9 -1.15 L-0.95 -1.25 -0.9 -1.45 -0.8 -1.6 -0.95 -1.7 -1.05 -1.85 -1.1 -1.85 -1.2 -2.05 -1.2 -2.15 M0.2 -2.6 L0.25 -2.75 0.35 -3.0 0.5 -2.95 0.55 -2.9 0.65 -2.8 0.6 -2.8 0.45 -2.85 0.45 -2.7 0.65 -2.4 0.65 -2.3 0.6 -2.25 0.6 -2.2 0.65 -2.2 0.7 -2.25 Q0.85 -2.3 0.85 -2.15 L0.85 -2.1 0.75 -2.05 Q0.75 -1.95 0.85 -1.95 L1.0 -1.9 1.15 -1.55 1.05 -1.3 Q1.1 -1.2 1.2 -1.2 L1.3 -1.1 Q1.35 -0.95 1.25 -0.75 L1.2 -0.5 1.25 -0.45 1.3 -0.4 1.3 -0.15 1.3 -0.1 1.3 -0.05 1.25 0.0 Q1.1 0.2 1.15 0.3 L1.2 0.4 1.15 0.65 Q1.1 0.9 1.1 1.0 L1.2 1.2 1.2 1.45 1.4 1.75 1.45 2.1 1.2 1.9 Q1.0 1.7 0.95 1.55 L0.95 1.5 Q0.95 1.4 1.0 1.4 1.1 1.4 1.1 1.3 0.95 1.1 0.95 0.95 L0.9 0.75 1.0 0.75 1.05 0.65 Q1.05 0.55 1.1 0.5 L1.1 0.4 1.05 0.35 1.0 0.3 Q0.9 0.2 0.9 0.15 L0.9 0.0 0.95 0.05 1.0 -0.05 1.05 -0.15 1.1 -0.4 Q1.0 -0.55 0.9 -0.6 L0.9 -0.7 Q0.9 -0.8 1.0 -0.85 1.05 -0.9 1.05 -1.0 L0.9 -1.2 0.75 -1.4 0.75 -1.5 0.8 -1.55 0.85 -1.55 Q1.0 -1.6 0.95 -1.65 L0.9 -1.7 0.85 -1.75 0.7 -1.7 Q0.6 -1.65 0.5 -1.85 0.4 -2.0 0.4 -2.05 0.4 -2.15 0.45 -2.2 L0.45 -2.2 Q0.5 -2.25 0.5 -2.35 0.45 -2.55 0.35 -2.55 L0.35 -2.4 Q0.35 -2.35 0.3 -2.35 0.2 -2.3 0.15 -2.45 L0.2 -2.6 M-0.05 2.8 L-0.1 2.65 -0.2 2.5 -0.1 2.6 0.2 2.65 Q0.55 2.6 0.5 2.4 L0.5 2.3 0.4 2.4 Q0.35 2.4 0.25 2.3 0.2 2.2 0.2 2.15 L0.25 2.15 0.3 2.15 0.2 2.1 0.15 2.0 0.15 1.8 0.3 1.75 Q0.35 1.75 0.4 1.85 L0.35 1.95 Q0.4 2.0 0.45 2.05 L0.5 1.95 0.5 1.85 Q0.4 1.4 0.2 1.35 0.0 1.2 -0.05 1.0 L-0.05 0.85 Q-0.05 0.75 -0.15 0.8 -0.15 0.85 -0.25 0.9 L-0.3 0.85 Q-0.3 0.8 -0.35 0.8 L-0.4 0.7 -0.45 0.75 Q-0.6 0.8 -0.65 0.55 -0.7 0.45 -0.6 0.4 L-0.5 0.45 -0.5 0.45 Q-0.55 0.1 -0.25 0.05 L0.1 0.25 0.1 0.45 Q0.0 0.45 0.0 0.35 L-0.1 0.35 -0.1 0.45 0.1 0.6 Q0.2 0.6 0.2 0.4 0.2 0.25 0.25 0.25 0.3 0.25 0.4 0.3 L0.5 0.45 0.5 0.75 Q0.5 0.95 0.35 0.95 0.3 1.0 0.3 0.85 L0.2 0.85 Q0.15 0.95 0.2 1.0 0.2 1.1 0.35 1.1 0.55 1.1 0.6 1.4 L0.6 1.7 0.65 2.05 0.65 2.1 0.75 2.05 0.8 2.15 0.8 2.3 0.75 2.4 0.85 2.45 0.85 2.35 0.95 2.3 1.05 2.4 1.05 2.5 1.0 2.6 0.9 2.7 0.7 2.6 0.7 2.65 0.65 2.65 0.25 2.95 Q0.1 2.95 -0.05 2.8 M-1.4 -0.55 L-1.45 -0.75 -1.45 -0.85 -1.35 -0.75 -1.4 -0.6 -1.4 -0.55 M-0.1 -0.4 L-0.15 -0.6 -0.2 -0.7 -0.05 -0.95 0.1 -0.5 -0.1 -0.45 -0.1 -0.4 M-1.4 -1.5 Q-1.45 -1.65 -1.3 -1.65 -1.2 -1.65 -1.2 -1.55 -1.15 -1.4 -1.2 -1.4 -1.4 -1.4 -1.4 -1.5 M-0.7 -0.25 Q-0.7 -0.15 -0.8 -0.15 -0.85 -0.15 -0.9 -0.25 -0.9 -0.3 -0.8 -0.3 -0.75 -0.3 -0.7 -0.25 M-0.85 0.15 Q-0.85 0.25 -0.9 0.25 -1.05 0.25 -1.0 0.2 -1.05 0.1 -0.95 0.1 -0.85 0.05 -0.85 0.15 M-0.1 1.35 Q0.0 1.3 0.05 1.45 0.05 1.55 -0.1 1.55 -0.15 1.6 -0.15 1.5 -0.2 1.4 -0.1 1.35" fill="#bb9f40" fill-rule="evenodd" stroke="none"/>
    <path d="M0.65 -2.8 L1.05 -2.2 1.25 -1.8 1.25 -1.8 1.3 -1.6 1.35 -1.45 1.3 -0.4 1.25 -0.45 1.2 -0.5 1.25 -0.75 Q1.35 -0.95 1.3 -1.1 L1.2 -1.2 Q1.1 -1.2 1.05 -1.3 L1.15 -1.55 1.0 -1.9 0.85 -1.95 Q0.75 -1.95 0.75 -2.05 L0.85 -2.1 0.85 -2.15 Q0.85 -2.3 0.7 -2.25 L0.65 -2.2 0.6 -2.2 0.6 -2.25 0.65 -2.3 0.65 -2.4 0.45 -2.7 0.45 -2.85 0.6 -2.8 0.65 -2.8 M1.3 -0.05 L1.3 0.8 1.35 0.9 Q1.3 1.25 1.35 1.5 L1.4 1.75 1.2 1.45 1.2 1.2 1.1 1.0 Q1.1 0.9 1.15 0.65 L1.2 0.4 1.15 0.3 Q1.1 0.2 1.25 0.0 L1.3 -0.05 M-0.2 2.5 L-0.3 2.35 -0.7 1.4 -0.7 1.35 -1.2 0.25 -1.3 0.0 -1.3 -0.05 -1.4 -0.55 -1.4 -0.6 -1.35 -0.75 -1.45 -0.85 Q-1.45 -1.1 -1.55 -1.4 L-1.5 -1.6 -1.5 -1.95 -1.45 -1.95 Q-1.4 -1.85 -1.25 -1.85 L-1.1 -1.85 -1.05 -1.85 -0.95 -1.7 -0.8 -1.6 -0.9 -1.45 -0.95 -1.25 -0.9 -1.15 Q-0.85 -1.0 -1.0 -1.0 -1.1 -1.0 -1.1 -0.9 L-1.05 -0.85 -1.0 -0.8 -0.95 -0.85 -0.9 -0.85 Q-0.9 -0.8 -0.95 -0.75 L-0.95 -0.7 -0.85 -0.6 Q-0.8 -0.5 -0.65 -0.5 -0.5 -0.55 -0.55 -0.65 L-0.55 -0.7 -0.65 -0.75 -0.7 -0.85 -0.7 -0.9 -0.6 -1.0 -0.6 -0.95 -0.2 -0.7 -0.15 -0.6 -0.1 -0.4 -0.1 -0.2 -0.05 -0.1 -0.05 0.0 -0.1 0.05 -0.25 0.05 Q-0.55 0.1 -0.5 0.45 L-0.5 0.45 -0.6 0.4 Q-0.7 0.45 -0.65 0.55 -0.6 0.8 -0.45 0.75 L-0.4 0.7 -0.35 0.8 Q-0.3 0.8 -0.3 0.85 L-0.25 0.9 Q-0.15 0.85 -0.15 0.8 -0.05 0.75 -0.05 0.85 L-0.05 1.0 Q0.0 1.2 0.2 1.35 0.4 1.4 0.5 1.85 L0.5 1.95 0.45 2.05 Q0.4 2.0 0.35 1.95 L0.4 1.85 Q0.35 1.75 0.3 1.75 L0.15 1.8 0.15 2.0 0.2 2.1 0.3 2.15 0.25 2.15 0.2 2.15 Q0.2 2.2 0.25 2.3 0.35 2.4 0.4 2.4 L0.5 2.3 0.5 2.4 Q0.55 2.6 0.2 2.65 L-0.1 2.6 -0.2 2.5 M1.05 2.4 L1.15 2.35 1.15 2.4 1.25 2.65 1.05 2.8 0.95 2.85 0.7 2.95 0.65 2.8 0.65 2.65 0.7 2.65 0.7 2.6 0.9 2.7 1.0 2.6 1.05 2.5 1.05 2.4 M-1.4 -1.5 Q-1.4 -1.4 -1.2 -1.4 -1.15 -1.4 -1.2 -1.55 -1.2 -1.65 -1.3 -1.65 -1.45 -1.65 -1.4 -1.5 M-0.1 1.35 Q-0.2 1.4 -0.15 1.5 -0.15 1.6 -0.1 1.55 0.05 1.55 0.05 1.45 0.0 1.3 -0.1 1.35 M-0.85 0.15 Q-0.85 0.05 -0.95 0.1 -1.05 0.1 -1.0 0.2 -1.05 0.25 -0.9 0.25 -0.85 0.25 -0.85 0.15 M-0.7 -0.25 Q-0.75 -0.3 -0.8 -0.3 -0.9 -0.3 -0.9 -0.25 -0.85 -0.15 -0.8 -0.15 -0.7 -0.15 -0.7 -0.25" fill="#2e2625" fill-rule="evenodd" stroke="none"/>
    <path d="M-0.35 -2.95 L-0.45 -2.95 Q-0.55 -2.85 -0.65 -2.8 L-0.65 -2.85 -1.1 -3.25 -0.95 -3.35 -0.6 -3.15 -0.35 -2.95 M-0.3 -2.5 L-0.1 -2.65 Q0.6 -1.5 0.65 -1.05 L0.65 -0.75 0.85 0.05 0.9 0.3 Q0.85 0.4 0.85 0.6 0.8 0.5 0.6 -0.1 0.45 -0.65 0.35 -0.65 L0.3 -0.75 Q0.55 -0.75 0.55 -1.15 L0.4 -1.5 Q0.3 -1.7 0.25 -1.7 L0.15 -1.65 -0.3 -2.5" fill="#c27b60" fill-rule="evenodd" stroke="none"/>
    <path d="M-1.35 -2.55 L-1.35 -2.5 -1.35 -2.55 M-1.4 -2.25 L-1.2 -2.15 -1.2 -2.05 -1.1 -1.85 -1.25 -1.85 Q-1.4 -1.85 -1.45 -1.95 L-1.5 -1.95 -1.45 -2.1 -1.4 -2.25 M-0.9 -2.45 Q-0.85 -2.5 -0.7 -2.5 -0.6 -2.55 -0.5 -2.45 L-0.45 -2.4 Q-0.35 -2.35 -0.35 -2.2 -0.3 -2.0 -0.5 -1.95 L-0.6 -1.95 -0.65 -2.05 -0.65 -2.1 -0.6 -2.1 -0.55 -2.15 -0.55 -2.1 -0.55 -2.2 -0.65 -2.25 -0.7 -2.25 Q-0.75 -2.4 -0.9 -2.45 M0.1 -0.5 L0.1 -0.3 0.15 0.05 0.1 0.25 -0.25 0.05 -0.1 0.05 -0.05 0.0 -0.05 -0.1 -0.1 -0.2 -0.1 -0.4 -0.1 -0.45 0.1 -0.5 M-0.2 -0.7 L-0.6 -0.95 -0.55 -1.15 -0.5 -1.15 -0.25 -1.05 -0.2 -1.1 Q-0.1 -1.1 -0.05 -0.95 L-0.2 -0.7 M-1.35 -2.5 L-1.35 -2.5 M-0.25 -1.8 L-0.15 -1.65 Q-0.1 -1.3 -0.4 -1.25 L-0.5 -1.25 -0.6 -1.35 -0.5 -1.45 -0.5 -1.45 -0.45 -1.45 -0.5 -1.5 -0.45 -1.5 -0.35 -1.5 -0.3 -1.65 -0.25 -1.8" fill="#987239" fill-rule="evenodd" stroke="none"/>
    <path d="M1.4 2.2 L1.45 2.25 1.45 2.4 1.4 2.45 1.25 2.65 1.15 2.4 1.15 2.35 1.2 2.3 1.4 2.15 1.4 2.2 M0.1 3.0 L0.05 3.0 -0.05 2.9 -0.05 2.8 Q0.1 2.95 0.25 2.95 L0.65 2.65 0.65 2.8 0.7 2.95 0.45 3.05 0.35 3.05 0.3 3.05 0.1 3.0" fill="#1e1918" fill-rule="evenodd" stroke="none"/>
    <path d="M0.55 -2.9 L0.5 -3.0 0.5 -3.05 Q0.5 -3.15 0.4 -3.2 L0.2 -3.2 0.1 -3.15 Q-0.6 -3.4 -0.8 -3.35 L-0.95 -3.35 -1.1 -3.25 -1.25 -3.15 -1.25 -3.05 Q-1.25 -3.05 -1.3 -3.0 L-1.35 -2.9 -1.4 -2.8 -1.4 -2.75 -1.4 -2.55 -1.35 -2.55 -1.35 -2.5 -1.35 -2.35 -1.4 -2.25 -1.45 -2.1 -1.5 -1.95 -1.5 -1.6 -1.55 -1.4 Q-1.45 -1.1 -1.45 -0.85 L-1.45 -0.75 -1.4 -0.55 -1.3 -0.05 -1.3 0.0 -1.2 0.25 -0.7 1.35 -0.7 1.4 -0.3 2.35 -0.2 2.5 -0.1 2.65 -0.05 2.8 -0.05 2.9 0.05 3.0 0.1 3.0 0.1 3.1 0.15 3.1 0.2 3.1 Q0.2 3.1 0.4 3.15 L0.65 3.2 Q0.9 3.2 1.05 3.1 L1.1 3.05 1.3 2.85 1.4 2.6 1.4 2.45 1.45 2.4 1.45 2.25 1.4 2.2 1.45 2.1 1.4 1.75 1.35 1.5 Q1.3 1.25 1.35 0.9 L1.3 0.8 1.3 -0.05 1.3 -0.1 M0.55 -2.9 L0.65 -2.8 1.05 -2.2 1.25 -1.8 1.25 -1.8 1.3 -1.6 1.35 -1.45 1.3 -0.4 1.3 -0.15" fill="none" stroke="#000000" stroke-linecap="round" stroke-linejoin="round" stroke-opacity="0.4509804" stroke-width="0.1"/>
  </g>
</svg>
