<?xml version="1.0" encoding="UTF-8" standalone="no"?>
<svg xmlns:xlink="http://www.w3.org/1999/xlink" height="27.9px" width="6.0px" xmlns="http://www.w3.org/2000/svg">
  <g transform="matrix(1.0, 0.0, 0.0, 1.0, 1.3, 15.45)">
    <path d="M1.5 -14.7 L1.4 -14.8 1.4 -14.95 1.35 -14.95 1.25 -14.85 Q1.2 -14.8 1.15 -14.8 L1.1 -14.8 1.15 -15.0 1.25 -15.2 1.45 -15.35 1.65 -15.4 1.7 -15.4 Q1.65 -15.35 1.65 -15.25 L1.7 -15.2 1.7 -15.2 1.95 -15.1 2.0 -14.95 1.95 -14.85 1.9 -14.75 Q1.8 -14.65 1.65 -14.65 L1.5 -14.7" fill="#5d5d5d" fill-rule="evenodd" stroke="none"/>
    <path d="M1.1 -14.8 L1.15 -14.8 Q1.2 -14.8 1.25 -14.85 L1.35 -14.95 1.4 -14.95 1.4 -14.8 1.5 -14.7 1.5 -14.6 Q1.5 -14.45 1.55 -14.3 L1.55 -14.25 Q1.45 -14.2 1.45 -14.2 L1.45 -14.2 1.4 -14.2 1.25 -14.3 1.15 -14.5 Q1.05 -14.65 1.05 -14.7 L1.1 -14.8 M1.95 -14.85 L2.0 -14.95 1.95 -15.1 1.7 -15.2 1.7 -15.2 1.75 -15.25 1.8 -15.25 2.0 -15.2 Q2.15 -15.1 2.15 -15.0 L2.1 -14.9 2.05 -14.8 1.95 -14.85" fill="#9ba0a4" fill-rule="evenodd" stroke="none"/>
    <path d="M1.5 -14.7 L1.65 -14.65 Q1.8 -14.65 1.9 -14.75 L1.95 -14.85 2.05 -14.8 2.1 -14.9 2.15 -15.0 Q2.15 -15.1 2.0 -15.2 L1.8 -15.25 1.75 -15.25 1.7 -15.2 1.65 -15.25 Q1.65 -15.35 1.7 -15.4 L2.1 -15.25 Q2.2 -15.2 2.25 -15.0 L2.35 -14.75 2.15 -14.6 2.0 -14.5 1.9 -14.5 1.8 -14.5 1.75 -14.45 1.75 -14.3 1.6 -14.25 1.55 -14.25 1.55 -14.3 Q1.5 -14.45 1.5 -14.6 L1.5 -14.7" fill="#7c7879" fill-rule="evenodd" stroke="none"/>
    <path d="M2.35 -14.75 L2.35 -14.45 2.2 -14.25 1.95 -14.0 1.95 -14.05 Q1.9 -14.3 1.8 -14.3 L1.75 -14.3 1.75 -14.45 1.8 -14.5 1.9 -14.5 2.0 -14.5 2.15 -14.6 2.35 -14.75 M2.05 -13.2 L2.1 -13.0 2.2 -12.2 2.2 -11.8 2.25 -11.45 2.2 -10.6 2.2 -10.45 2.15 -9.6 2.1 -9.4 2.1 -9.35 2.05 -9.1 2.05 -8.9 1.95 -8.95 1.9 -8.95 1.85 -8.95 1.85 -9.0 1.85 -9.3 1.85 -9.4 1.8 -9.95 1.75 -10.0 1.65 -10.05 1.55 -10.15 Q1.5 -10.15 1.5 -10.2 L1.55 -10.2 1.65 -10.3 1.8 -10.45 1.85 -10.6 1.9 -10.8 1.9 -11.15 Q1.9 -11.35 1.8 -11.35 L1.9 -11.45 2.0 -11.5 1.95 -11.6 1.9 -11.65 Q1.75 -11.7 1.75 -11.75 L1.8 -11.9 1.8 -12.1 Q1.8 -12.2 1.85 -12.25 1.95 -12.35 1.95 -12.45 L1.9 -12.65 Q1.8 -12.7 1.8 -12.75 1.8 -12.9 1.9 -13.0 L1.95 -13.15 2.05 -13.2 2.05 -13.2" fill="#433937" fill-rule="evenodd" stroke="none"/>
    <path d="M1.45 -14.2 Q1.45 -14.2 1.55 -14.25 L1.6 -14.25 1.75 -14.3 1.8 -14.3 Q1.9 -14.3 1.95 -14.05 L1.95 -14.0 2.0 -13.9 2.0 -13.75 2.05 -13.2 2.05 -13.2 1.95 -13.15 1.9 -13.0 Q1.8 -12.9 1.8 -12.75 1.8 -12.7 1.9 -12.65 L1.95 -12.45 Q1.95 -12.35 1.85 -12.25 1.8 -12.2 1.8 -12.1 L1.8 -11.9 1.75 -11.75 Q1.75 -11.7 1.9 -11.65 L1.95 -11.6 2.0 -11.5 1.9 -11.45 1.8 -11.35 Q1.9 -11.35 1.9 -11.15 L1.9 -10.8 1.85 -10.6 1.8 -10.45 1.65 -10.3 1.55 -10.2 1.5 -10.2 Q1.5 -10.15 1.55 -10.15 L1.65 -10.05 1.75 -10.0 1.8 -9.95 1.85 -9.4 1.85 -9.3 1.85 -9.0 1.85 -8.95 1.7 -8.9 1.4 -8.85 1.4 -8.85 1.35 -9.0 1.35 -9.05 1.4 -9.15 1.3 -9.45 1.25 -10.05 1.2 -10.7 1.2 -11.0 1.2 -11.2 1.25 -11.95 1.25 -12.65 1.3 -13.3 1.35 -13.75 1.4 -13.9 1.4 -14.1 1.45 -14.2 M1.4 -12.75 L1.4 -12.6 1.4 -12.55 1.4 -12.2 1.4 -12.05 1.4 -11.95 1.35 -11.85 1.4 -11.5 Q1.4 -11.4 1.45 -11.4 L1.5 -11.4 1.5 -11.45 1.55 -11.45 1.55 -11.7 1.55 -11.85 1.55 -11.95 1.6 -12.0 1.65 -12.15 1.6 -12.25 1.6 -12.5 1.6 -12.6 1.55 -12.7 1.55 -12.8 1.5 -12.85 1.4 -12.8 1.4 -12.75 M1.4 -11.2 L1.4 -10.65 1.35 -10.4 1.4 -10.35 1.4 -10.35 1.55 -10.4 1.55 -10.4 1.6 -10.5 1.55 -10.6 1.55 -10.9 1.5 -11.05 1.5 -11.15 1.5 -11.25 1.4 -11.2 M1.6 -9.4 Q1.6 -9.85 1.55 -9.95 L1.55 -9.9 1.5 -9.85 Q1.45 -9.8 1.5 -9.75 L1.5 -9.6 1.45 -9.5 1.45 -9.4 1.5 -9.4 1.5 -9.2 Q1.5 -9.15 1.55 -9.1 L1.6 -9.1 1.6 -9.25 1.6 -9.4" fill="#87604d" fill-rule="evenodd" stroke="none"/>
    <path d="M1.35 -9.05 L1.35 -9.15 1.25 -9.35 1.25 -9.4 1.2 -9.6 1.15 -9.95 1.15 -10.45 1.15 -10.7 1.2 -11.0 1.2 -10.7 1.25 -10.05 1.3 -9.45 1.4 -9.15 1.35 -9.05 M1.4 -11.2 L1.5 -11.25 1.5 -11.15 1.5 -11.05 1.55 -10.9 1.55 -10.6 1.6 -10.5 1.55 -10.4 1.55 -10.4 1.4 -10.35 1.4 -10.35 1.35 -10.4 1.4 -10.65 1.4 -11.2 M1.4 -12.75 L1.4 -12.8 1.5 -12.85 1.55 -12.8 1.55 -12.7 1.6 -12.6 1.6 -12.5 1.6 -12.25 1.65 -12.15 1.6 -12.0 1.55 -11.95 1.55 -11.85 1.55 -11.7 1.55 -11.45 1.5 -11.45 1.5 -11.4 1.45 -11.4 Q1.4 -11.4 1.4 -11.5 L1.35 -11.85 1.4 -11.95 1.4 -12.05 1.4 -12.2 1.4 -12.55 1.4 -12.6 1.4 -12.75 M1.6 -9.4 L1.6 -9.25 1.6 -9.1 1.55 -9.1 Q1.5 -9.15 1.5 -9.2 L1.5 -9.4 1.45 -9.4 1.45 -9.5 1.5 -9.6 1.5 -9.75 Q1.45 -9.8 1.5 -9.85 L1.55 -9.9 1.55 -9.95 Q1.6 -9.85 1.6 -9.4" fill="#af896b" fill-rule="evenodd" stroke="none"/>
    <path d="M2.1 -8.65 L2.15 -8.65 2.2 -8.65 2.25 -8.65 2.35 -8.65 2.45 -8.65 2.55 -8.65 2.95 -8.65 3.5 -8.6 3.8 -8.6 4.0 -8.55 4.05 -8.55 4.1 -8.55 4.1 -8.55 Q4.15 -8.5 4.25 -8.5 4.35 -8.5 4.35 -8.55 L4.35 -8.6 4.45 -8.6 4.55 -8.6 4.65 -8.5 4.6 -8.45 4.55 -8.4 4.5 -8.35 4.4 -8.3 4.2 -8.35 4.1 -8.4 4.0 -8.4 3.9 -8.4 3.85 -8.4 3.8 -8.4 3.65 -8.4 3.5 -8.4 3.25 -8.35 3.2 -8.35 3.25 -8.4 3.2 -8.45 3.1 -8.45 2.8 -8.4 2.7 -8.45 2.6 -8.45 2.5 -8.45 Q2.45 -8.4 2.5 -8.3 L2.45 -8.3 2.4 -8.3 2.35 -8.35 2.3 -8.45 2.2 -8.45 2.15 -8.45 2.05 -8.4 2.0 -8.4 1.95 -8.5 Q1.9 -8.55 1.8 -8.55 L1.65 -8.55 1.6 -8.5 1.6 -8.55 1.55 -8.55 1.5 -8.55 1.5 -8.55 1.45 -8.55 1.3 -8.55 1.05 -8.6 1.0 -8.6 0.95 -8.55 0.95 -8.45 1.0 -8.45 1.05 -8.45 1.5 -8.45 1.5 -8.45 1.55 -8.45 1.45 -8.35 1.45 -8.3 1.4 -8.2 Q1.4 -8.0 1.5 -7.9 L1.5 -7.9 1.4 -7.85 1.35 -7.7 1.35 -7.65 1.25 -7.8 1.25 -7.95 1.2 -8.0 1.2 -8.1 1.25 -8.3 1.25 -8.35 1.15 -8.35 1.15 -8.35 1.05 -8.35 0.85 -8.35 -0.1 -8.45 -0.3 -8.45 -0.45 -8.4 -0.55 -8.45 -0.6 -8.45 -0.8 -8.4 -1.0 -8.4 -1.2 -8.4 -1.25 -8.5 -1.25 -8.6 -1.2 -8.65 -1.1 -8.7 -1.05 -8.7 -1.1 -8.6 -1.05 -8.55 -1.05 -8.5 -1.0 -8.5 -0.95 -8.45 -0.9 -8.5 -0.8 -8.55 -0.85 -8.6 -0.8 -8.65 -0.75 -8.65 -0.7 -8.65 -0.6 -8.6 -0.55 -8.6 Q-0.55 -8.5 -0.45 -8.5 L-0.4 -8.55 -0.35 -8.6 -0.35 -8.6 -0.25 -8.6 0.2 -8.6 0.65 -8.6 1.15 -8.65 Q1.25 -8.65 1.3 -8.75 L1.35 -8.8 1.4 -8.85 1.4 -8.85 1.7 -8.9 1.85 -8.95 1.9 -8.95 1.95 -8.95 1.9 -8.9 1.9 -8.85 1.9 -8.75 1.85 -8.7 1.7 -8.7 Q1.7 -8.65 1.75 -8.65 L1.85 -8.65 1.9 -8.65 2.0 -8.65 2.1 -8.65 M1.7 -8.25 L1.7 -8.3 1.7 -8.25 M1.55 -8.45 L1.55 -8.45" fill="#808080" fill-rule="evenodd" stroke="none"/>
    <path d="M4.1 -8.55 L4.35 -8.6 4.35 -8.55 Q4.35 -8.5 4.25 -8.5 4.15 -8.5 4.1 -8.55 L4.1 -8.55 M-1.05 -8.7 L-1.0 -8.7 -0.9 -8.7 Q-0.8 -8.7 -0.75 -8.65 L-0.8 -8.65 -0.85 -8.6 -0.8 -8.55 -0.9 -8.5 -0.95 -8.45 -1.0 -8.5 -1.05 -8.5 -1.05 -8.55 -1.1 -8.6 -1.05 -8.7 M-0.55 -8.6 L-0.45 -8.65 -0.4 -8.6 -0.35 -8.6 -0.35 -8.6 -0.4 -8.55 -0.45 -8.5 Q-0.55 -8.5 -0.55 -8.6" fill="#c6c6c8" fill-rule="evenodd" stroke="none"/>
    <path d="M2.05 -8.9 L2.1 -8.85 2.2 -8.65 2.1 -8.65 2.0 -8.65 1.9 -8.65 1.85 -8.65 1.75 -8.65 Q1.7 -8.65 1.7 -8.7 L1.85 -8.7 1.9 -8.75 1.9 -8.85 1.9 -8.9 1.95 -8.95 2.05 -8.9 M3.2 -8.35 L2.75 -8.3 2.55 -8.25 2.55 -8.25 2.35 -8.2 2.3 -8.2 2.3 -8.2 2.25 -8.2 2.25 -8.1 2.2 -7.95 2.15 -7.85 2.05 -7.6 1.95 -7.5 1.9 -7.45 1.9 -7.45 1.85 -7.4 1.85 -7.4 1.8 -7.35 1.75 -7.35 1.7 -7.35 1.6 -7.35 1.55 -7.45 1.4 -7.6 1.35 -7.65 1.35 -7.7 1.4 -7.85 1.5 -7.9 1.5 -7.9 1.5 -7.85 Q1.55 -7.8 1.65 -7.8 L1.7 -7.75 1.75 -7.75 1.8 -7.75 1.85 -7.75 1.85 -7.75 Q2.1 -7.8 2.1 -8.05 L2.05 -8.25 2.05 -8.35 2.0 -8.4 2.0 -8.4 2.05 -8.4 2.15 -8.45 2.2 -8.45 2.3 -8.45 2.35 -8.35 2.4 -8.3 2.45 -8.3 2.5 -8.3 Q2.45 -8.4 2.5 -8.45 L2.6 -8.45 2.7 -8.45 2.8 -8.4 3.1 -8.45 3.2 -8.45 3.25 -8.4 3.2 -8.35 M1.7 -7.35 L1.7 -7.35" fill="#5f4d4d" fill-rule="evenodd" stroke="none"/>
    <path d="M2.0 -8.4 L2.0 -8.4 2.05 -8.35 2.05 -8.25 2.1 -8.05 Q2.1 -7.8 1.85 -7.75 L1.85 -7.75 1.8 -7.75 1.75 -7.75 1.7 -7.75 1.65 -7.8 Q1.55 -7.8 1.5 -7.85 L1.5 -7.9 Q1.4 -8.0 1.4 -8.2 L1.45 -8.3 1.45 -8.35 1.55 -8.45 1.55 -8.45 1.6 -8.45 1.65 -8.4 1.6 -8.35 1.55 -8.35 1.6 -8.3 1.65 -8.3 1.7 -8.35 1.75 -8.3 1.7 -8.3 1.7 -8.25 1.65 -8.25 Q1.6 -8.2 1.6 -8.15 1.6 -8.1 1.65 -8.1 L1.65 -8.1 1.7 -8.15 1.7 -8.15 1.75 -8.1 Q1.75 -8.05 1.8 -8.05 L1.85 -8.05 1.85 -8.05 Q1.95 -8.05 1.95 -8.15 L1.95 -8.2 1.95 -8.3 1.9 -8.3 1.85 -8.4 1.85 -8.4 1.9 -8.5 2.0 -8.4 2.0 -8.4 M1.6 -8.3 L1.6 -8.3 M2.0 -8.05 L1.9 -7.95 1.85 -7.9 1.8 -7.9 1.8 -7.9 1.75 -7.9 1.7 -7.9 1.6 -7.95 1.65 -7.9 1.7 -7.85 1.75 -7.85 1.8 -7.85 1.85 -7.85 1.85 -7.85 Q1.95 -7.85 2.0 -8.05" fill="#805d42" fill-rule="evenodd" stroke="none"/>
    <path d="M1.35 -7.65 L1.4 -7.6 1.55 -7.45 1.6 -7.35 1.7 -7.35 1.7 -7.05 1.7 -6.65 1.65 -6.8 1.65 -6.9 1.6 -7.1 1.55 -7.15 1.5 -7.25 1.5 -7.25 1.45 -7.35 1.4 -7.4 1.35 -7.5 1.3 -7.65 1.2 -7.9 Q1.15 -8.05 1.15 -8.25 L1.15 -8.35 1.25 -8.35 1.25 -8.3 1.2 -8.1 1.2 -8.0 1.25 -7.95 1.25 -7.8 1.35 -7.65 M1.9 -7.45 L1.9 -7.45 1.95 -7.5 2.05 -7.6 2.15 -7.85 2.2 -7.95 2.25 -8.1 2.25 -8.2 2.3 -8.2 2.3 -8.2 2.3 -7.95 2.25 -7.85 2.15 -7.75 2.05 -7.55 2.0 -7.4 1.9 -7.3 1.9 -7.35 1.9 -7.45" fill="#74746e" fill-rule="evenodd" stroke="none"/>
    <path d="M2.35 -8.2 L2.0 11.65 Q2.0 12.05 1.75 12.35 L1.75 12.1 1.8 11.35 1.75 10.6 1.75 8.5 1.7 8.2 1.75 8.1 1.7 7.9 1.7 7.65 1.7 7.0 1.75 6.75 1.7 6.7 1.7 6.65 1.65 6.45 1.6 6.2 1.6 6.05 1.7 -6.65 1.7 -7.05 1.7 -7.35 1.75 -7.35 1.75 6.55 1.9 1.15 1.9 -7.35 1.9 -7.3 2.0 -7.4 2.05 -7.55 2.15 -7.75 2.25 -7.85 2.3 -7.95 2.3 -8.2 2.35 -8.2" fill="#e4e9dc" fill-rule="evenodd" stroke="none"/>
    <path d="M1.55 -8.45 L1.5 -8.45 1.5 -8.45 1.05 -8.45 1.0 -8.45 0.95 -8.45 0.95 -8.55 1.0 -8.6 1.05 -8.6 1.3 -8.55 1.45 -8.55 1.5 -8.55 1.5 -8.55 1.55 -8.55 1.6 -8.55 1.6 -8.5 1.55 -8.45" fill="#cac7d0" fill-rule="evenodd" stroke="none"/>
    <path d="M1.6 -8.5 L1.65 -8.55 1.8 -8.55 Q1.9 -8.55 1.95 -8.5 L2.0 -8.4 2.0 -8.4 1.9 -8.5 1.85 -8.4 1.85 -8.4 1.9 -8.3 1.95 -8.3 1.95 -8.2 1.95 -8.15 Q1.95 -8.05 1.85 -8.05 L1.85 -8.05 1.8 -8.05 Q1.75 -8.05 1.75 -8.1 L1.7 -8.15 1.7 -8.15 1.65 -8.1 1.65 -8.1 Q1.6 -8.1 1.6 -8.15 1.6 -8.2 1.65 -8.25 L1.7 -8.25 1.7 -8.3 1.75 -8.3 1.7 -8.35 1.65 -8.3 1.6 -8.3 1.55 -8.35 1.6 -8.35 1.65 -8.4 1.6 -8.45 1.55 -8.45 1.55 -8.45 1.55 -8.45 1.6 -8.5 M1.6 -8.3 L1.6 -8.3" fill="#af974d" fill-rule="evenodd" stroke="none"/>
    <path d="M1.35 8.65 L1.15 -8.35 1.15 -8.25 Q1.15 -8.05 1.2 -7.9 L1.3 -7.65 1.35 -7.5 1.4 -7.4 1.45 -7.35 1.5 -7.25 1.5 -7.25 1.55 -7.15 1.6 -7.1 1.65 -6.9 1.65 -6.8 1.7 -6.65 1.6 6.05 1.6 6.2 1.65 6.45 1.7 6.65 1.7 6.7 1.75 6.75 1.7 7.0 1.7 7.65 1.7 7.9 1.75 8.1 1.7 8.2 1.55 8.35 1.5 8.45 1.5 8.6 1.4 8.65 1.35 8.65 M1.7 -7.35 L1.7 -7.35 1.7 -7.05 1.7 -7.35 M1.75 -7.35 L1.8 -7.35 1.85 -7.4 1.85 -7.4 1.9 -7.45 1.9 -7.35 1.9 1.15 1.75 6.55 1.75 -7.35 M1.6 -8.3 L1.6 -8.3 1.6 -8.3 M1.15 -8.35 L1.15 -8.35" fill="#a2a39a" fill-rule="evenodd" stroke="none"/>
    <path d="M2.0 -8.05 Q1.95 -7.85 1.85 -7.85 L1.85 -7.85 1.8 -7.85 1.75 -7.85 1.7 -7.85 1.65 -7.9 1.6 -7.95 1.7 -7.9 1.75 -7.9 1.8 -7.9 1.8 -7.9 1.85 -7.9 1.9 -7.95 2.0 -8.05" fill="#514d31" fill-rule="evenodd" stroke="none"/>
    <path d="M1.75 12.35 L1.7 12.4 Q1.35 12.3 1.35 11.65 L1.35 8.65 1.4 8.65 1.5 8.6 1.5 8.45 1.55 8.35 1.7 8.2 1.75 8.5 1.75 10.6 1.8 11.35 1.75 12.1 1.75 12.35" fill="#aeafa5" fill-rule="evenodd" stroke="none"/>
    <path d="M1.7 -15.4 L1.65 -15.4 1.45 -15.35 1.25 -15.2 1.15 -15.0 1.1 -14.8 1.05 -14.7 Q1.05 -14.65 1.15 -14.5 L1.25 -14.3 1.4 -14.2 1.45 -14.2 1.45 -14.2 1.4 -14.1 1.4 -13.9 1.35 -13.75 1.3 -13.3 1.25 -12.65 1.25 -11.95 1.2 -11.2 1.2 -11.0 1.15 -10.7 1.15 -10.45 1.15 -9.95 1.2 -9.6 1.25 -9.4 1.25 -9.35 1.35 -9.15 1.35 -9.05 1.35 -9.0 1.4 -8.85 1.35 -8.8 1.3 -8.75 Q1.25 -8.65 1.15 -8.65 L0.65 -8.6 0.2 -8.6 -0.25 -8.6 -0.35 -8.6 -0.4 -8.6 -0.45 -8.65 -0.55 -8.6 -0.6 -8.6 -0.7 -8.65 -0.75 -8.65 Q-0.8 -8.7 -0.9 -8.7 L-1.0 -8.7 -1.05 -8.7 -1.1 -8.7 -1.2 -8.65 -1.25 -8.6 -1.25 -8.5 -1.2 -8.4 -1.0 -8.4 -0.8 -8.4 -0.6 -8.45 -0.55 -8.45 -0.45 -8.4 -0.3 -8.45 -0.1 -8.45 0.85 -8.35 1.05 -8.35 1.15 -8.35 1.35 8.65 1.35 11.65 Q1.35 12.3 1.7 12.4 L1.75 12.35 Q2.0 12.05 2.0 11.65 L2.35 -8.2 2.55 -8.25 2.55 -8.25 2.75 -8.3 3.2 -8.35 3.25 -8.35 3.5 -8.4 3.65 -8.4 3.8 -8.4 3.85 -8.4 3.9 -8.4 4.0 -8.4 4.1 -8.4 4.2 -8.35 4.4 -8.3 4.5 -8.35 4.55 -8.4 4.6 -8.45 4.65 -8.5 4.55 -8.6 4.45 -8.6 4.35 -8.6 4.1 -8.55 4.05 -8.55 4.0 -8.55 3.8 -8.6 3.5 -8.6 2.95 -8.65 2.55 -8.65 2.45 -8.65 2.35 -8.65 2.25 -8.65 2.2 -8.65 2.1 -8.65 2.15 -8.65 2.2 -8.65 2.1 -8.85 2.05 -8.9 2.05 -9.1 2.1 -9.35 2.1 -9.4 2.15 -9.6 2.2 -10.45 2.2 -10.6 2.25 -11.45 2.2 -11.8 2.2 -12.2 2.1 -13.0 2.05 -13.2 2.0 -13.75 2.0 -13.9 1.95 -14.0 2.2 -14.25 2.35 -14.45 2.35 -14.75 2.25 -15.0 Q2.2 -15.2 2.1 -15.25 L1.7 -15.4 Z" fill="none" stroke="#000000" stroke-linecap="round" stroke-linejoin="round" stroke-opacity="0.4" stroke-width="0.1"/>
  </g>
</svg>
