<?xml version="1.0" encoding="UTF-8" standalone="no"?>
<svg xmlns:xlink="http://www.w3.org/1999/xlink" height="33.6px" width="8.8px" xmlns="http://www.w3.org/2000/svg">
  <g transform="matrix(1.0, 0.0, 0.0, 1.0, 2.75, 16.7)">
    <path d="M1.35 -16.1 L1.35 -16.15 1.5 -16.3 1.6 -16.45 1.65 -16.45 1.65 -16.45 1.65 -16.3 1.6 -16.05 1.6 -16.1 1.55 -16.1 1.45 -16.0 1.4 -16.05 1.4 -16.05 1.35 -16.05 1.35 -16.1 M1.6 -16.05 L1.6 -16.05 M1.85 -15.5 L1.85 -15.45 1.8 -15.4 1.8 -15.35 1.75 -15.35 1.75 -15.45 1.8 -15.5 1.8 -15.5 1.85 -15.5" fill="#7d6c62" fill-rule="evenodd" stroke="none"/>
    <path d="M1.65 -16.45 L1.65 -16.45 1.6 -16.45 1.55 -16.6 Q1.55 -16.65 1.7 -16.65 L1.8 -16.65 1.8 -16.5 1.85 -16.45 1.9 -16.35 1.95 -16.3 2.0 -16.25 2.1 -16.15 2.15 -16.05 2.2 -15.95 2.2 -15.7 2.15 -15.6 2.1 -15.6 2.15 -15.7 2.05 -15.9 2.0 -15.85 1.95 -15.8 1.95 -15.65 1.9 -15.55 1.85 -15.45 1.85 -15.5 1.8 -15.5 1.8 -15.5 1.75 -15.45 1.75 -15.35 1.8 -15.35 1.8 -15.4 Q1.85 -15.35 1.9 -15.3 L1.95 -15.3 1.95 -15.2 1.9 -15.15 1.85 -15.15 1.8 -15.15 1.8 -15.15 1.65 -15.2 1.6 -15.2 1.6 -15.25 1.55 -15.25 1.5 -15.25 1.45 -15.3 Q1.4 -15.35 1.4 -15.4 L1.4 -15.45 1.45 -15.45 1.5 -15.5 1.45 -15.6 1.45 -15.65 1.4 -15.7 1.35 -15.7 Q1.35 -15.7 1.35 -15.8 L1.35 -15.85 1.4 -15.85 1.4 -15.8 1.55 -15.85 1.55 -15.7 1.6 -15.65 1.6 -15.7 1.65 -15.6 1.65 -15.55 1.65 -15.45 1.7 -15.6 1.7 -15.7 1.7 -15.7 1.75 -15.7 1.7 -15.85 1.7 -15.9 1.8 -15.95 1.85 -15.95 1.9 -15.95 2.05 -15.95 2.0 -16.05 1.95 -16.1 1.9 -16.2 1.85 -16.3 1.8 -16.4 1.8 -16.45 1.75 -16.5 1.7 -16.55 1.65 -16.5 1.65 -16.45 M1.7 -15.9 L1.7 -15.9" fill="#b0a39a" fill-rule="evenodd" stroke="none"/>
    <path d="M1.6 -16.05 L1.65 -16.3 1.65 -16.45 1.65 -16.5 1.7 -16.55 1.75 -16.5 1.8 -16.45 1.8 -16.4 1.85 -16.3 1.9 -16.2 1.95 -16.1 2.0 -16.05 2.05 -15.95 1.9 -15.95 1.85 -15.95 1.8 -15.95 1.7 -15.9 1.7 -15.95 1.7 -16.0 1.65 -16.05 1.65 -16.0 1.6 -16.0 1.6 -16.05" fill="#49352c" fill-rule="evenodd" stroke="none"/>
    <path d="M2.15 -15.6 L2.1 -15.55 1.95 -15.3 1.9 -15.3 Q1.85 -15.35 1.8 -15.4 L1.85 -15.45 1.85 -15.5 1.85 -15.45 1.9 -15.55 1.95 -15.65 1.95 -15.8 2.0 -15.85 2.05 -15.9 2.15 -15.7 2.1 -15.6 2.15 -15.6" fill="#d2c5bd" fill-rule="evenodd" stroke="none"/>
    <path d="M1.6 -16.05 L1.6 -16.0 1.65 -16.0 1.65 -16.05 1.7 -16.0 1.7 -15.95 1.7 -15.9 1.65 -15.9 1.6 -15.9 1.55 -15.9 1.55 -16.0 1.6 -16.0 1.6 -16.05" fill="#e5dad6" fill-rule="evenodd" stroke="none"/>
    <path d="M1.35 -16.1 L1.35 -16.05 1.4 -16.05 1.4 -16.05 1.45 -16.0 1.55 -16.1 1.6 -16.1 1.6 -16.05 1.6 -16.0 1.55 -16.0 1.55 -15.9 1.6 -15.9 1.65 -15.9 1.7 -15.9 1.7 -15.9 1.7 -15.85 1.75 -15.7 1.7 -15.7 1.7 -15.7 1.7 -15.6 1.65 -15.45 1.65 -15.55 1.65 -15.6 1.6 -15.7 1.6 -15.65 1.55 -15.7 1.55 -15.85 1.4 -15.8 1.4 -15.85 1.35 -15.85 1.35 -15.8 Q1.35 -15.7 1.35 -15.7 L1.4 -15.7 1.45 -15.65 1.45 -15.6 1.5 -15.5 1.45 -15.45 1.4 -15.45 1.4 -15.4 Q1.4 -15.35 1.45 -15.3 L1.5 -15.25 1.55 -15.25 1.6 -15.25 1.6 -15.2 1.55 -15.2 1.45 -15.15 1.4 -15.15 1.4 -15.2 1.45 -15.25 1.35 -15.3 1.3 -15.35 1.3 -15.4 1.25 -15.45 1.2 -15.6 1.15 -15.8 1.2 -15.9 1.2 -15.95 1.3 -16.05 1.35 -16.1" fill="#d0c6c5" fill-rule="evenodd" stroke="none"/>
    <path d="M1.9 -14.95 L1.9 -14.95 1.95 -14.85 1.95 -14.8 1.9 -14.65 1.9 -14.45 1.95 -14.05 1.95 -13.7 2.0 -13.4 2.0 -13.15 2.0 -13.0 2.05 -12.8 2.05 -12.6 2.1 -12.4 2.1 -12.3 2.15 -12.25 2.15 -12.2 2.1 -12.15 2.1 -12.0 2.05 -11.85 2.05 -11.75 2.0 -8.5 2.0 -8.5 2.0 -8.5 1.95 -8.5 1.85 -8.55 Q1.8 -8.55 1.8 -8.6 L1.8 -8.75 1.75 -8.8 1.75 -8.85 1.75 -8.95 1.8 -9.05 1.8 -9.45 1.8 -9.55 1.75 -9.6 1.55 -9.7 1.5 -9.65 1.55 -9.55 1.55 -9.55 1.6 -9.35 1.55 -9.3 Q1.55 -9.25 1.55 -9.15 L1.55 -9.05 1.55 -8.85 1.6 -8.75 1.6 -8.65 Q1.55 -8.55 1.6 -8.5 L1.55 -8.5 1.55 -8.5 1.5 -8.5 1.5 -8.45 1.45 -8.4 1.4 -8.4 1.35 -8.4 1.4 -8.25 1.45 -8.15 1.45 -8.15 1.4 -8.15 1.35 -8.1 1.35 -8.15 1.35 -8.25 1.3 -8.4 1.3 -8.4 1.35 -8.45 1.35 -8.75 1.25 -11.75 1.25 -12.05 1.2 -12.15 1.15 -12.2 1.2 -12.25 1.25 -12.3 1.3 -12.45 1.3 -12.8 1.35 -12.9 1.4 -13.25 1.4 -14.05 1.45 -14.25 1.45 -14.6 1.45 -14.7 1.4 -14.8 1.45 -14.95 1.45 -15.1 1.55 -15.1 1.6 -15.05 1.65 -15.1 1.7 -15.05 1.65 -15.0 1.7 -14.95 1.7 -14.95 1.65 -14.9 1.55 -14.8 1.6 -14.75 1.65 -14.7 1.75 -14.75 1.85 -14.8 1.85 -14.95 1.9 -14.95 M1.55 -14.45 L1.55 -14.25 1.6 -14.25 1.6 -14.35 1.55 -14.45 1.55 -14.45 M1.55 -14.2 L1.5 -14.15 1.5 -13.95 1.5 -13.8 1.55 -13.8 1.6 -13.85 1.6 -14.05 1.55 -14.2 M1.7 -14.15 L1.65 -14.1 1.65 -13.95 Q1.7 -13.9 1.75 -13.85 L1.8 -13.8 Q1.8 -13.7 1.85 -13.6 L1.85 -13.7 1.9 -13.85 1.8 -14.05 1.7 -14.15 M1.55 -13.7 L1.5 -13.6 1.5 -13.4 1.45 -13.3 1.5 -13.25 1.55 -13.3 1.55 -13.35 1.6 -13.45 1.6 -13.5 1.55 -13.55 1.55 -13.7 1.55 -13.7 M1.9 -13.35 L1.85 -13.45 1.85 -13.35 1.85 -13.25 Q1.85 -13.2 1.75 -13.15 L1.7 -13.15 1.7 -13.1 1.65 -12.95 1.65 -12.8 1.65 -12.7 1.65 -12.55 1.7 -12.5 1.7 -12.4 1.7 -12.2 1.65 -12.25 1.6 -12.25 1.5 -12.25 1.45 -12.25 1.35 -12.25 1.6 -12.1 1.55 -11.95 1.55 -11.65 1.55 -11.45 Q1.55 -11.3 1.6 -11.3 L1.8 -11.35 Q1.85 -11.35 1.9 -11.4 L1.85 -11.5 1.8 -11.55 1.85 -11.7 1.8 -11.85 1.85 -11.9 Q1.95 -11.9 1.95 -11.95 L1.9 -12.05 1.95 -12.15 Q2.05 -12.15 2.05 -12.2 L2.0 -12.25 2.05 -12.3 2.0 -12.35 2.0 -12.4 2.0 -12.65 1.95 -12.75 1.9 -13.35 M1.75 -13.35 L1.75 -13.35 1.8 -13.45 1.75 -13.5 1.7 -13.5 1.65 -13.45 1.65 -13.35 1.75 -13.35 M1.5 -13.2 L1.45 -13.2 1.5 -13.0 1.45 -12.95 1.45 -12.75 1.45 -12.75 1.55 -12.7 1.6 -12.7 1.6 -12.9 1.6 -13.1 1.6 -13.25 1.5 -13.2 M1.55 -12.45 L1.6 -12.5 1.6 -12.55 1.55 -12.6 1.55 -12.7 1.5 -12.65 1.45 -12.65 1.4 -12.55 1.45 -12.45 1.4 -12.45 1.4 -12.4 1.4 -12.35 1.45 -12.35 1.55 -12.35 1.65 -12.4 1.55 -12.45 M1.55 -11.2 L1.55 -11.15 1.5 -11.1 1.55 -11.0 1.55 -10.85 1.55 -10.65 1.55 -10.35 1.6 -10.25 1.55 -10.2 1.5 -10.15 1.55 -10.05 1.55 -9.9 1.6 -9.85 1.55 -9.8 1.6 -9.75 1.7 -9.75 1.75 -9.75 1.8 -9.75 1.8 -9.75 1.8 -9.85 1.8 -10.0 1.8 -10.2 1.85 -10.3 1.9 -10.4 1.85 -10.45 Q1.8 -10.5 1.8 -10.5 L1.75 -10.6 1.75 -10.7 1.75 -11.1 1.7 -11.15 1.55 -11.2" fill="#413831" fill-rule="evenodd" stroke="none"/>
    <path d="M1.9 -15.15 L1.9 -14.95 1.85 -14.95 1.85 -14.8 1.75 -14.75 1.65 -14.7 1.6 -14.75 1.55 -14.8 1.65 -14.9 1.7 -14.95 1.7 -14.95 1.65 -15.0 1.7 -15.05 1.65 -15.1 1.6 -15.05 1.55 -15.1 1.45 -15.1 1.45 -15.15 1.55 -15.2 1.6 -15.2 1.8 -15.15 1.85 -15.15 1.9 -15.15 M2.0 -8.5 L2.0 -8.45 2.05 -8.35 2.0 -8.25 2.0 -8.1 2.0 -8.05 1.95 -8.1 1.95 -8.15 1.85 -8.15 1.85 -8.15 1.75 -8.15 1.75 -8.15 1.6 -8.2 1.5 -8.15 1.45 -8.15 1.4 -8.25 1.35 -8.4 1.4 -8.4 1.45 -8.4 1.55 -8.4 1.65 -8.45 Q1.8 -8.4 1.8 -8.45 L1.8 -8.5 1.7 -8.5 1.65 -8.5 1.6 -8.5 1.6 -8.5 Q1.55 -8.55 1.6 -8.65 L1.6 -8.75 1.55 -8.85 1.55 -9.05 1.55 -9.15 Q1.55 -9.25 1.55 -9.3 L1.6 -9.35 1.55 -9.55 1.55 -9.55 1.5 -9.65 1.55 -9.7 1.75 -9.6 1.8 -9.55 1.8 -9.45 1.8 -9.05 1.75 -8.95 1.75 -8.85 1.75 -8.8 1.8 -8.75 1.8 -8.6 Q1.8 -8.55 1.85 -8.55 L1.95 -8.5 2.0 -8.5 M1.7 -14.15 L1.8 -14.05 1.9 -13.85 1.85 -13.7 1.85 -13.6 Q1.8 -13.7 1.8 -13.8 L1.75 -13.85 Q1.7 -13.9 1.65 -13.95 L1.65 -14.1 1.7 -14.15 M1.9 -13.35 L1.95 -12.75 2.0 -12.65 2.0 -12.4 2.0 -12.35 2.05 -12.3 2.0 -12.25 2.05 -12.2 Q2.05 -12.15 1.95 -12.15 L1.9 -12.05 1.95 -11.95 Q1.95 -11.9 1.85 -11.9 L1.8 -11.85 1.85 -11.7 1.8 -11.55 1.85 -11.5 1.9 -11.4 Q1.85 -11.35 1.8 -11.35 L1.6 -11.3 Q1.55 -11.3 1.55 -11.45 L1.55 -11.65 1.55 -11.95 1.6 -12.1 1.35 -12.25 1.45 -12.25 1.5 -12.25 1.6 -12.25 1.65 -12.25 1.7 -12.2 1.7 -12.4 1.7 -12.5 1.65 -12.55 1.65 -12.7 1.65 -12.8 1.65 -12.95 1.7 -13.1 1.7 -13.15 1.75 -13.15 Q1.85 -13.2 1.85 -13.25 L1.85 -13.35 1.85 -13.45 1.9 -13.35 M1.75 -13.35 L1.65 -13.35 1.65 -13.45 1.7 -13.5 1.75 -13.5 1.8 -13.45 1.75 -13.35 1.75 -13.35 M1.55 -11.2 L1.7 -11.15 1.75 -11.1 1.75 -10.7 1.75 -10.6 1.8 -10.5 Q1.8 -10.5 1.85 -10.45 L1.9 -10.4 1.85 -10.3 1.8 -10.2 1.8 -10.0 1.8 -9.85 1.8 -9.75 1.8 -9.75 1.75 -9.75 1.7 -9.75 1.6 -9.75 1.55 -9.8 1.6 -9.85 1.55 -9.9 1.55 -10.05 1.5 -10.15 1.55 -10.2 1.6 -10.25 1.55 -10.35 1.55 -10.65 1.55 -10.85 1.55 -11.0 1.5 -11.1 1.55 -11.15 1.55 -11.2" fill="#211716" fill-rule="evenodd" stroke="none"/>
    <path d="M1.55 -14.2 L1.6 -14.05 1.6 -13.85 1.55 -13.8 1.5 -13.8 1.5 -13.95 1.5 -14.15 1.55 -14.2 M1.55 -14.45 L1.55 -14.45 1.6 -14.35 1.6 -14.25 1.55 -14.25 1.55 -14.45" fill="#74675f" fill-rule="evenodd" stroke="none"/>
    <path d="M1.55 -13.7 L1.55 -13.7 1.55 -13.55 1.6 -13.5 1.6 -13.45 1.55 -13.35 1.55 -13.3 1.5 -13.25 1.45 -13.3 1.5 -13.4 1.5 -13.6 1.55 -13.7 M1.45 -12.45 L1.4 -12.55 1.45 -12.65 1.5 -12.65 1.55 -12.7 1.55 -12.6 1.6 -12.55 1.6 -12.5 1.55 -12.45 1.5 -12.45 1.45 -12.45 M1.5 -13.2 L1.6 -13.25 1.6 -13.1 1.6 -12.9 1.6 -12.7 1.55 -12.7 1.45 -12.75 1.45 -12.75 1.45 -12.95 1.5 -13.0 1.45 -13.2 1.5 -13.2" fill="#75625b" fill-rule="evenodd" stroke="none"/>
    <path d="M1.45 -12.45 L1.5 -12.45 1.55 -12.45 1.65 -12.4 1.55 -12.35 1.45 -12.35 1.4 -12.35 1.4 -12.4 1.4 -12.45 1.45 -12.45" fill="#ac9992" fill-rule="evenodd" stroke="none"/>
    <path d="M4.6 -8.1 L4.85 -8.15 4.85 -8.1 4.8 -8.05 4.75 -8.0 4.75 -7.95 4.7 -7.9 4.75 -7.8 4.75 -7.75 4.8 -7.7 4.9 -7.55 4.6 -7.55 4.55 -7.6 Q4.5 -7.7 4.5 -7.75 L4.5 -7.8 4.55 -7.8 4.55 -7.85 4.5 -7.85 4.55 -7.95 4.6 -8.1 M4.95 -8.15 L4.95 -8.15 5.7 -8.2 5.7 -8.05 5.7 -8.05 5.75 -7.95 5.75 -7.9 5.8 -7.95 5.8 -7.95 5.8 -7.8 5.85 -7.75 Q5.85 -7.7 5.85 -7.7 L5.85 -7.7 5.8 -7.7 5.8 -7.7 5.75 -7.65 5.75 -7.65 5.75 -7.6 5.7 -7.6 5.7 -7.55 5.7 -8.05 5.7 -8.05 5.65 -7.95 5.65 -7.9 5.6 -7.9 5.5 -7.9 5.4 -7.85 Q5.45 -7.85 5.5 -7.85 L5.6 -7.85 5.6 -7.8 5.55 -7.75 5.4 -7.75 5.4 -7.7 Q5.4 -7.65 5.45 -7.65 L5.5 -7.65 Q5.6 -7.65 5.6 -7.55 L5.65 -7.5 5.1 -7.55 4.95 -7.55 4.9 -7.65 4.85 -7.7 4.8 -7.75 4.9 -7.95 4.95 -8.1 4.95 -8.15 M4.35 -7.9 L4.35 -7.9 4.3 -7.85 4.25 -7.85 4.15 -7.8 4.0 -7.85 3.95 -7.85 3.95 -7.85 4.15 -7.85 4.3 -7.9 4.35 -7.9 M4.95 -7.55 L4.95 -7.55 5.1 -7.55 4.95 -7.55" fill="#5d4c45" fill-rule="evenodd" stroke="none"/>
    <path d="M4.85 -8.15 L4.9 -8.15 4.95 -8.15 4.95 -8.1 4.9 -7.95 4.8 -7.75 4.85 -7.7 4.9 -7.65 4.95 -7.55 4.95 -7.55 4.9 -7.55 4.8 -7.7 4.75 -7.75 4.75 -7.8 4.7 -7.9 4.75 -7.95 4.75 -8.0 4.8 -8.05 4.85 -8.1 4.85 -8.15 M5.7 -8.05 L5.7 -8.05 5.7 -8.05 5.7 -7.55 5.7 -7.5 5.65 -7.5 5.6 -7.55 Q5.6 -7.65 5.5 -7.65 L5.45 -7.65 Q5.4 -7.65 5.4 -7.7 L5.4 -7.75 5.55 -7.75 5.6 -7.8 5.6 -7.85 5.5 -7.85 Q5.45 -7.85 5.4 -7.85 L5.5 -7.9 5.6 -7.9 5.65 -7.9 5.65 -7.95 5.7 -8.05 M4.95 -7.55 L4.9 -7.55 4.95 -7.55" fill="#a59b91" fill-rule="evenodd" stroke="none"/>
    <path d="M3.05 -8.0 L4.6 -8.1 4.55 -7.95 4.5 -7.85 4.55 -7.85 4.55 -7.8 4.5 -7.8 4.5 -7.75 Q4.5 -7.7 4.55 -7.6 L4.6 -7.55 3.1 -7.7 3.1 -7.7 3.15 -7.75 3.35 -7.8 3.45 -7.8 3.5 -7.8 3.55 -7.85 3.55 -7.85 3.35 -7.85 3.25 -7.85 3.2 -7.85 3.2 -7.85 3.15 -7.85 3.15 -7.9 3.1 -7.95 3.05 -8.0 M4.35 -7.9 L4.3 -7.9 4.15 -7.85 3.95 -7.85 3.95 -7.85 4.0 -7.85 4.15 -7.8 4.25 -7.85 4.3 -7.85 4.35 -7.9 4.35 -7.9" fill="#3d3630" fill-rule="evenodd" stroke="none"/>
    <path d="M5.8 -7.95 L5.85 -7.95 5.9 -7.95 5.95 -7.9 6.0 -7.85 6.0 -7.8 5.95 -7.75 5.95 -7.7 5.9 -7.7 5.85 -7.7 Q5.85 -7.7 5.85 -7.75 L5.8 -7.8 5.8 -7.95" fill="#c5beb8" fill-rule="evenodd" stroke="none"/>
    <path d="M2.05 -8.1 L2.1 -8.1 2.15 -8.1 2.2 -8.1 2.55 -8.05 Q2.65 -8.05 2.7 -8.0 L2.7 -7.95 2.7 -7.9 2.7 -7.9 2.65 -7.9 2.6 -7.95 2.55 -7.95 2.55 -7.85 2.55 -7.85 2.45 -7.85 2.4 -7.8 2.4 -7.7 2.35 -7.6 2.25 -7.6 2.25 -7.6 2.25 -7.6 2.3 -7.75 2.35 -7.8 2.4 -7.85 2.35 -7.9 2.3 -7.95 2.3 -7.95 2.2 -8.0 2.2 -8.05 2.05 -7.9 2.0 -7.9 1.95 -7.95 2.0 -8.0 2.05 -8.1 M2.3 -7.9 L2.3 -7.8 2.3 -7.75 2.25 -7.75 2.2 -7.7 2.2 -7.75 2.2 -7.8 2.15 -7.8 2.1 -7.85 2.15 -7.85 Q2.2 -7.85 2.2 -7.9 L2.25 -7.95 2.35 -7.9 2.35 -7.85 2.3 -7.9" fill="#c8baaf" fill-rule="evenodd" stroke="none"/>
    <path d="M2.0 -8.1 L2.05 -8.1 2.0 -8.0 1.95 -7.95 2.0 -7.9 2.05 -7.9 2.2 -8.05 2.2 -8.0 2.3 -7.95 2.3 -7.95 2.35 -7.9 2.4 -7.85 2.35 -7.8 2.3 -7.75 2.25 -7.6 2.25 -7.6 2.15 -7.6 2.15 -7.55 2.15 -7.6 2.15 -7.75 2.1 -7.8 2.05 -7.8 1.95 -7.8 1.9 -7.8 1.85 -7.8 1.85 -7.8 1.8 -7.8 1.8 -7.75 1.85 -7.75 1.95 -7.7 Q1.95 -7.7 2.0 -7.7 L2.1 -7.65 Q2.05 -7.65 1.95 -7.7 L1.85 -7.75 1.8 -7.7 1.85 -7.65 2.0 -7.65 2.05 -7.55 2.05 -7.55 2.0 -7.55 1.9 -7.6 1.85 -7.6 1.8 -7.65 1.8 -7.6 1.85 -7.55 1.75 -7.55 1.7 -7.55 1.55 -7.6 1.45 -7.6 1.4 -7.6 1.35 -7.6 1.4 -7.6 1.55 -7.65 1.55 -7.7 1.6 -7.7 1.6 -7.85 1.55 -7.85 1.55 -7.9 1.45 -7.85 1.45 -7.95 1.5 -8.0 1.5 -8.0 1.6 -8.05 1.6 -8.05 Q1.6 -8.1 1.65 -8.1 L1.7 -8.05 1.75 -8.15 1.75 -8.15 1.85 -8.15 1.85 -8.15 1.95 -8.1 2.0 -8.05 2.0 -8.1 M2.3 -7.9 L2.35 -7.85 2.35 -7.9 2.25 -7.95 2.2 -7.9 Q2.2 -7.85 2.15 -7.85 L2.1 -7.85 2.15 -7.8 2.2 -7.8 2.2 -7.75 2.2 -7.7 2.25 -7.75 2.3 -7.75 2.3 -7.8 2.3 -7.9" fill="#847264" fill-rule="evenodd" stroke="none"/>
    <path d="M2.6 -7.7 L2.55 -7.7 2.55 -7.7 2.55 -7.7 2.5 -7.8 2.5 -7.8 2.55 -7.85 2.55 -7.85 2.55 -7.95 2.6 -7.95 2.65 -7.9 2.7 -7.9 2.7 -7.85 2.7 -7.75 2.6 -7.7" fill="#937f76" fill-rule="evenodd" stroke="none"/>
    <path d="M2.55 -7.7 L2.5 -7.65 Q2.45 -7.6 2.35 -7.6 L2.4 -7.7 2.4 -7.8 2.45 -7.85 2.55 -7.85 2.5 -7.8 2.5 -7.8 2.55 -7.7 2.55 -7.7" fill="#efe7e4" fill-rule="evenodd" stroke="none"/>
    <path d="M2.15 -7.55 L2.15 -7.55 2.1 -7.6 2.1 -7.55 2.05 -7.55 2.05 -7.55 2.05 -7.55 2.0 -7.65 1.85 -7.65 1.8 -7.7 1.85 -7.75 1.95 -7.7 Q2.05 -7.65 2.1 -7.65 L2.0 -7.7 Q1.95 -7.7 1.95 -7.7 L1.85 -7.75 1.8 -7.75 1.8 -7.8 1.85 -7.8 1.85 -7.8 1.9 -7.8 1.95 -7.8 2.05 -7.8 2.1 -7.8 2.15 -7.75 2.15 -7.6 2.15 -7.55 M1.15 -8.05 L1.2 -8.0 1.2 -7.9 1.25 -7.9 1.3 -7.9 1.3 -7.95 1.35 -7.95 1.4 -8.0 1.35 -8.05 1.3 -8.1 1.35 -8.15 1.35 -8.1 1.4 -8.15 1.4 -8.05 1.4 -8.0 1.45 -8.0 1.5 -8.0 1.5 -8.0 1.45 -7.95 1.45 -7.85 1.45 -7.85 1.4 -7.85 1.35 -7.8 1.25 -7.85 1.15 -7.8 1.2 -7.8 1.3 -7.8 1.4 -7.8 1.35 -7.75 1.35 -7.75 1.25 -7.7 1.25 -7.7 1.2 -7.7 1.15 -7.7 1.1 -7.75 1.1 -7.75 1.05 -7.75 1.0 -7.7 Q1.0 -7.7 0.95 -7.8 L0.95 -7.85 0.9 -7.85 1.0 -7.9 1.0 -7.9 1.05 -7.9 1.05 -7.9 1.1 -7.9 1.15 -7.95 1.15 -8.05" fill="#bcafa7" fill-rule="evenodd" stroke="none"/>
    <path d="M2.05 -7.55 L2.1 -7.5 2.1 -7.4 2.05 -7.0 2.05 -6.85 1.7 -6.8 2.4 -6.85 2.45 -6.5 2.4 -5.85 2.4 -5.55 2.25 -5.5 1.9 -5.35 1.95 -5.3 2.05 -5.15 Q2.05 -5.1 2.1 -5.05 L2.25 -5.05 2.35 -5.0 2.35 -5.0 2.4 -4.9 2.35 -4.75 2.35 -4.6 2.25 -4.6 2.1 -4.55 2.1 -4.5 Q2.05 -4.35 1.95 -4.35 L1.8 -4.3 1.75 -4.25 Q1.75 -4.15 1.65 -4.15 L1.55 -4.15 1.4 -4.2 1.3 -4.1 1.35 -4.05 1.4 -3.95 1.4 -3.8 1.45 -3.75 1.65 -3.8 1.85 -3.8 2.2 -3.9 2.35 -3.85 2.4 -3.85 2.4 -3.7 2.25 -3.65 2.1 -3.65 1.95 -3.5 2.0 -3.5 2.1 -3.45 2.5 -3.5 Q2.6 -3.5 2.65 -3.4 2.7 -3.3 2.8 -3.2 L2.4 -3.15 2.1 -3.1 1.95 -3.15 Q1.9 -3.15 1.9 -3.2 L1.95 -3.35 Q1.95 -3.4 1.8 -3.4 L1.7 -3.0 1.65 -2.5 1.65 -3.0 1.6 -3.3 1.45 -3.35 1.4 -3.35 1.4 -3.35 1.45 -3.25 1.4 -3.2 1.3 -3.1 1.3 -3.2 1.2 -3.2 1.3 -3.35 1.25 -3.45 1.3 -3.5 1.4 -3.55 1.3 -3.6 1.2 -3.7 1.05 -3.7 0.85 -3.7 0.8 -3.7 0.85 -3.75 0.85 -4.0 0.85 -4.1 0.8 -4.4 0.8 -4.75 0.8 -4.95 0.9 -5.0 0.95 -4.95 1.0 -5.65 1.05 -5.8 1.0 -5.95 1.0 -6.25 1.05 -6.35 1.05 -6.75 1.3 -6.8 1.4 -6.8 1.4 -7.1 1.35 -7.25 1.4 -7.35 1.35 -7.6 1.4 -7.6 1.45 -7.6 1.55 -7.6 1.7 -7.55 1.75 -7.55 1.85 -7.55 1.85 -7.55 1.95 -7.55 2.0 -7.55 2.05 -7.55 M1.35 -7.6 L1.35 -7.6" fill="#837163" fill-rule="evenodd" stroke="none"/>
    <path d="M2.9 -7.7 L2.6 -7.7 2.7 -7.75 2.7 -7.85 2.8 -7.85 2.85 -7.85 2.9 -7.85 2.9 -7.7" fill="#eeddd5" fill-rule="evenodd" stroke="none"/>
    <path d="M3.05 -7.7 L3.0 -7.7 2.9 -7.7 2.9 -7.85 2.9 -7.85 3.1 -7.85 3.1 -7.8 3.05 -7.7" fill="#cab9b1" fill-rule="evenodd" stroke="none"/>
    <path d="M2.7 -7.95 L3.05 -8.0 3.1 -7.95 3.15 -7.9 3.15 -7.85 3.2 -7.85 3.2 -7.85 3.25 -7.85 3.35 -7.85 3.55 -7.85 3.55 -7.85 3.5 -7.8 3.45 -7.8 3.35 -7.8 3.15 -7.75 3.1 -7.7 3.1 -7.7 3.05 -7.7 3.1 -7.8 3.1 -7.85 2.9 -7.85 2.9 -7.85 2.85 -7.85 2.8 -7.85 2.7 -7.85 2.7 -7.9 2.7 -7.9 2.7 -7.95" fill="#84736b" fill-rule="evenodd" stroke="none"/>
    <path d="M1.15 -7.65 L1.15 -7.65 1.05 -7.6 0.55 -7.7 0.45 -7.7 0.45 -7.75 0.6 -7.75 0.55 -7.8 0.6 -7.8 0.6 -7.9 0.65 -8.0 0.6 -8.0 0.8 -8.0 0.85 -8.05 0.95 -8.1 1.0 -8.05 1.05 -8.05 1.0 -8.05 0.95 -8.0 Q0.9 -7.95 0.9 -7.85 L0.95 -7.7 0.95 -7.7 1.0 -7.7 1.15 -7.65" fill="#c8bebd" fill-rule="evenodd" stroke="none"/>
    <path d="M-2.4 -8.0 L-2.4 -8.2 -2.4 -8.2 -2.35 -8.2 -2.35 -8.2 -2.3 -8.15 -2.2 -8.2 -2.15 -8.15 -2.2 -8.1 -2.3 -8.0 -2.2 -8.0 -2.1 -8.05 -2.0 -8.1 -1.95 -8.1 -1.95 -8.15 -1.9 -8.15 -1.85 -8.1 -1.75 -8.15 -1.65 -8.15 -1.65 -8.15 -1.65 -8.15 -1.7 -8.1 -1.75 -8.0 -1.85 -7.95 -1.85 -7.95 Q-1.9 -7.9 -1.9 -7.9 L-1.95 -7.9 -2.05 -7.85 -2.2 -7.9 -2.35 -7.9 -2.4 -7.9 -2.4 -8.0 M-0.6 -8.0 L-0.55 -8.0 -0.4 -8.0 -0.25 -8.0 0.05 -8.0 0.15 -8.0 0.25 -8.05 0.6 -8.0 0.65 -8.0 0.6 -7.9 0.6 -7.9 0.55 -7.9 0.45 -7.9 0.4 -7.9 0.4 -7.9 0.3 -7.9 0.2 -7.9 0.1 -7.9 0.05 -7.9 0.0 -7.9 -0.1 -7.9 -0.15 -7.9 -0.25 -7.9 -0.35 -7.95 -0.4 -7.9 -0.5 -7.9 -0.6 -7.9 -0.65 -7.85 -0.75 -7.85 -1.05 -7.85 -1.15 -7.85 -1.25 -7.85 -1.3 -7.9 -1.4 -7.9 -1.4 -7.9 -1.45 -7.9 -1.45 -7.9 -1.65 -7.85 -1.75 -7.85 -1.8 -7.85 -1.8 -7.85 -1.65 -8.0 -1.6 -8.05 -1.55 -8.05 -1.5 -8.0 -1.4 -7.95 -1.1 -7.95 -0.9 -7.95 -0.8 -7.95 -0.75 -8.0 -0.65 -8.0 -0.6 -8.0" fill="#cebfba" fill-rule="evenodd" stroke="none"/>
    <path d="M-1.25 -7.6 L-1.95 -7.55 -1.95 -7.6 -2.0 -7.65 -2.05 -7.65 -2.15 -7.7 -2.15 -7.65 -2.2 -7.65 -2.2 -7.6 -2.15 -7.55 -2.15 -7.55 -2.4 -7.55 -2.4 -7.8 -2.45 -7.8 -2.45 -7.8 Q-2.45 -7.75 -2.5 -7.75 L-2.6 -7.75 -2.65 -7.8 -2.7 -7.85 -2.65 -7.95 -2.6 -8.0 -2.55 -8.0 -2.5 -8.05 -2.45 -8.05 -2.45 -8.0 Q-2.45 -8.0 -2.4 -8.0 L-2.4 -7.9 -2.35 -7.9 -2.2 -7.9 -2.05 -7.85 -1.95 -7.9 -1.9 -7.85 Q-1.9 -7.8 -1.85 -7.8 L-1.8 -7.8 -1.75 -7.85 -1.65 -7.85 -1.45 -7.9 -1.45 -7.9 -1.4 -7.9 -1.4 -7.9 -1.3 -7.9 -1.25 -7.85 -1.15 -7.85 -1.05 -7.85 -0.75 -7.85 -0.65 -7.85 -0.6 -7.9 -0.5 -7.9 -0.4 -7.9 -0.35 -7.95 -0.25 -7.9 -0.15 -7.9 -0.1 -7.9 0.0 -7.9 0.05 -7.9 0.1 -7.9 0.2 -7.9 0.3 -7.9 0.4 -7.9 0.4 -7.9 0.45 -7.9 0.55 -7.9 0.6 -7.9 0.6 -7.9 0.6 -7.8 0.5 -7.8 0.4 -7.8 0.4 -7.8 0.2 -7.85 0.05 -7.85 0.0 -7.85 -0.35 -7.8 -0.4 -7.8 -0.7 -7.75 -0.85 -7.7 -0.9 -7.75 -1.05 -7.7 -1.1 -7.7 -1.25 -7.6" fill="#81705e" fill-rule="evenodd" stroke="none"/>
    <path d="M0.45 -7.75 L-1.25 -7.6 -1.1 -7.7 -1.05 -7.7 -0.9 -7.75 -0.85 -7.7 -0.7 -7.75 -0.4 -7.8 -0.35 -7.8 0.0 -7.85 0.05 -7.85 0.2 -7.85 0.4 -7.8 0.4 -7.8 0.5 -7.8 0.6 -7.8 0.55 -7.8 0.6 -7.75 0.45 -7.75 M-1.95 -7.55 L-2.15 -7.55 -2.15 -7.55 -2.2 -7.6 -2.2 -7.65 -2.15 -7.65 -2.15 -7.7 -2.05 -7.65 -2.0 -7.65 -1.95 -7.6 -1.95 -7.55 M-1.65 -8.15 L-1.6 -8.15 -1.6 -8.1 -1.6 -8.05 -1.65 -8.0 -1.8 -7.85 -1.8 -7.85 -1.75 -7.85 -1.8 -7.8 -1.85 -7.8 Q-1.9 -7.8 -1.9 -7.85 L-1.95 -7.9 -1.9 -7.9 Q-1.9 -7.9 -1.85 -7.95 L-1.85 -7.95 -1.75 -8.0 -1.7 -8.1 -1.65 -8.15 -1.65 -8.15" fill="#443635" fill-rule="evenodd" stroke="none"/>
    <path d="M1.25 -7.65 L1.2 -7.65 1.15 -7.65 1.0 -7.7 0.95 -7.7 0.95 -7.7 0.9 -7.85 Q0.9 -7.95 0.95 -8.0 L1.0 -8.05 1.05 -8.05 1.1 -8.05 1.15 -8.05 1.15 -7.95 1.1 -7.9 1.05 -7.9 1.05 -7.9 1.0 -7.9 1.0 -7.9 0.9 -7.85 0.95 -7.85 0.95 -7.8 Q1.0 -7.7 1.0 -7.7 L1.05 -7.75 1.1 -7.75 1.1 -7.75 1.15 -7.7 1.2 -7.7 1.25 -7.7 1.25 -7.7 1.35 -7.75 1.35 -7.75 1.4 -7.8 1.3 -7.8 1.2 -7.8 1.15 -7.8 1.25 -7.85 1.35 -7.8 1.4 -7.85 1.45 -7.85 1.45 -7.85 1.55 -7.9 1.55 -7.85 1.6 -7.85 1.6 -7.7 1.55 -7.7 1.55 -7.65 1.4 -7.6 1.35 -7.6 1.35 -7.65 1.25 -7.65 M1.35 -7.6 L1.35 -7.6" fill="#a8968c" fill-rule="evenodd" stroke="none"/>
    <path d="M1.65 -8.5 L1.7 -8.5 1.8 -8.5 1.8 -8.45 Q1.8 -8.4 1.65 -8.45 L1.55 -8.4 1.45 -8.4 1.5 -8.45 1.5 -8.5 1.55 -8.5 1.55 -8.5 1.6 -8.5 1.65 -8.5" fill="#685a59" fill-rule="evenodd" stroke="none"/>
    <path d="M1.2 -8.0 L1.2 -8.0 Q1.2 -8.0 1.3 -8.1 L1.35 -8.05 1.4 -8.0 1.35 -7.95 1.3 -7.95 1.3 -7.9 1.25 -7.9 1.2 -7.9 1.2 -8.0 M1.45 -8.15 L1.5 -8.15 1.6 -8.2 1.75 -8.15 1.75 -8.15 1.75 -8.15 1.7 -8.05 1.65 -8.1 Q1.6 -8.1 1.6 -8.05 L1.6 -8.05 1.5 -8.0 1.45 -8.0 1.4 -8.0 1.4 -8.05 1.4 -8.15 1.45 -8.15 1.45 -8.15" fill="#f1e4de" fill-rule="evenodd" stroke="none"/>
    <path d="M0.8 -4.95 L0.8 -5.3 0.8 -5.5 0.85 -5.65 0.9 -5.9 0.9 -6.5 0.85 -6.75 1.05 -6.75 1.05 -6.35 1.0 -6.25 1.0 -5.95 1.05 -5.8 1.0 -5.65 0.95 -4.95 0.9 -5.0 0.8 -4.95 M1.3 -6.8 L1.25 -6.9 1.25 -7.65 1.35 -7.65 1.35 -7.6 1.35 -7.6 1.4 -7.35 1.35 -7.25 1.4 -7.1 1.4 -6.8 1.3 -6.8" fill="#42382f" fill-rule="evenodd" stroke="none"/>
    <path d="M2.4 -5.55 L2.35 -5.15 2.35 -5.0 2.25 -5.05 2.1 -5.05 Q2.05 -5.1 2.05 -5.15 L1.95 -5.3 1.9 -5.35 2.25 -5.5 2.4 -5.55 M2.35 -4.6 L2.35 -4.35 2.4 -3.85 2.35 -3.85 2.2 -3.9 1.85 -3.8 1.65 -3.8 1.45 -3.75 1.4 -3.8 1.4 -3.95 1.35 -4.05 1.3 -4.1 1.4 -4.2 1.55 -4.15 1.65 -4.15 Q1.75 -4.15 1.75 -4.25 L1.8 -4.3 1.95 -4.35 Q2.05 -4.35 2.1 -4.5 L2.1 -4.55 2.25 -4.6 2.35 -4.6" fill="#b79c87" fill-rule="evenodd" stroke="none"/>
    <path d="M2.4 -3.7 L2.4 -3.6 2.45 -3.6 2.6 -3.55 2.8 -3.55 3.15 -3.45 3.65 -3.45 4.6 -3.3 4.0 -3.3 3.75 -3.25 3.65 -3.2 3.3 -3.15 3.0 -3.15 2.7 -3.1 2.55 -3.0 2.55 -2.95 2.5 -2.95 2.4 -2.9 2.35 -2.8 2.25 -2.75 2.25 -2.75 2.2 -2.7 2.25 -2.65 2.1 -2.45 2.2 -2.35 2.3 -2.25 2.3 -2.2 2.15 -2.15 2.15 -2.15 2.1 -2.1 2.15 -1.95 2.1 -1.85 2.1 -1.65 2.1 -1.5 2.05 -1.45 2.1 -1.3 2.1 -1.25 2.05 -1.15 2.1 -0.95 2.1 -0.7 2.15 -0.6 2.2 -0.45 Q2.2 -0.35 2.25 -0.3 L2.35 -0.2 2.3 -0.1 2.25 -0.05 2.3 0.05 2.3 0.15 2.35 0.3 2.4 0.35 2.25 6.2 2.2 6.1 2.15 5.95 2.1 5.9 2.15 5.8 2.15 5.6 2.2 5.5 2.15 5.45 2.1 5.35 2.15 5.25 2.2 5.2 2.1 4.95 2.1 4.85 2.15 4.8 2.1 4.65 2.1 4.45 2.1 4.35 2.1 4.2 2.1 4.15 2.05 4.05 2.05 3.6 2.1 3.45 2.1 3.3 Q1.95 3.25 1.95 3.15 1.95 3.05 2.05 2.9 L2.1 2.7 Q2.05 2.6 2.1 2.5 L2.2 2.3 2.1 2.15 2.05 2.0 2.0 1.95 2.0 1.85 1.95 1.75 1.95 1.65 1.9 1.55 1.95 1.4 1.95 1.3 Q1.95 1.2 2.0 1.15 L1.95 0.95 2.0 0.85 1.95 0.75 1.95 0.55 1.9 0.65 1.9 0.7 Q1.8 0.7 1.85 0.6 L1.75 0.4 1.75 0.45 1.8 0.9 Q1.75 1.35 1.8 1.5 L1.75 2.0 1.8 2.4 1.75 2.75 1.7 2.95 1.7 3.2 1.65 3.25 1.7 3.4 1.7 3.55 1.8 3.65 1.85 3.7 1.85 4.05 Q1.75 4.05 1.75 4.0 L1.75 3.85 Q1.75 3.75 1.65 3.65 1.6 3.65 1.6 3.75 L1.65 3.95 1.65 4.1 1.7 4.2 1.75 4.25 1.75 4.3 1.75 4.45 Q1.7 4.55 1.75 4.65 L1.7 4.8 1.65 4.8 1.65 5.0 1.6 5.0 1.55 4.9 1.55 4.7 1.55 5.7 1.55 5.85 1.55 6.95 1.5 7.4 Q1.45 7.3 1.45 6.85 L1.45 6.3 1.45 6.25 1.4 5.65 1.4 5.85 1.4 6.8 1.35 7.35 1.35 7.8 Q1.3 7.75 1.3 7.75 L1.3 7.45 1.35 7.3 1.35 7.05 1.3 6.35 1.3 5.3 1.25 5.25 1.2 5.2 1.2 5.15 1.25 5.05 1.3 4.95 1.25 4.75 1.25 4.55 1.3 4.25 1.3 4.05 1.25 4.05 Q1.2 4.25 1.2 4.4 L1.2 4.7 1.15 4.8 1.1 4.85 1.1 4.95 Q0.95 4.85 1.0 4.75 L1.0 4.05 1.0 3.8 1.05 3.6 1.05 2.8 1.0 2.7 1.1 2.5 1.05 2.2 1.05 1.4 1.05 1.05 0.95 1.0 0.9 0.95 0.9 0.9 0.85 0.95 0.85 1.0 0.9 1.05 0.9 1.1 0.95 1.2 0.9 1.35 Q0.85 1.35 0.8 1.35 L0.8 1.45 0.8 1.5 0.7 1.65 0.75 1.7 0.75 1.8 0.8 1.85 0.8 2.1 0.75 2.1 0.75 2.15 0.8 2.2 0.8 2.25 0.75 2.35 0.8 2.45 0.7 2.6 0.75 2.65 0.75 2.7 0.7 2.8 0.7 2.85 0.75 2.95 0.8 3.0 0.85 3.0 0.8 3.15 0.8 3.25 0.7 3.35 0.7 3.55 0.7 3.8 0.75 3.9 0.65 4.05 0.7 4.25 0.65 4.4 0.6 4.5 0.55 -2.65 0.6 -2.9 Q0.6 -3.0 0.4 -3.1 L-0.05 -3.2 -0.05 -3.2 -0.1 -3.25 -0.2 -3.3 -0.3 -3.3 -0.4 -3.25 -0.5 -3.35 -0.6 -3.35 -0.6 -3.35 -0.45 -3.4 -0.15 -3.45 0.2 -3.45 0.25 -3.45 0.2 -3.45 0.15 -3.35 0.2 -3.3 0.4 -3.2 0.45 -3.25 0.6 -3.3 Q0.75 -3.3 0.75 -3.4 L0.7 -3.4 0.65 -3.45 0.6 -3.45 0.6 -3.45 0.55 -3.45 0.45 -3.45 Q0.35 -3.45 0.35 -3.5 L0.35 -3.5 0.55 -3.55 0.7 -3.65 0.8 -3.7 0.8 -3.7 0.85 -3.7 1.05 -3.7 1.2 -3.7 1.3 -3.6 1.4 -3.55 1.3 -3.5 1.25 -3.45 1.3 -3.35 1.2 -3.2 1.3 -3.2 1.3 -3.1 1.4 -3.2 1.45 -3.25 1.4 -3.35 1.4 -3.35 1.45 -3.35 1.6 -3.3 1.65 -3.0 1.65 -2.5 1.7 -3.0 1.8 -3.4 Q1.95 -3.4 1.95 -3.35 L1.9 -3.2 Q1.9 -3.15 1.95 -3.15 L2.1 -3.1 2.4 -3.15 2.8 -3.2 Q2.7 -3.3 2.65 -3.4 2.6 -3.5 2.5 -3.5 L2.1 -3.45 2.0 -3.5 1.95 -3.5 2.1 -3.65 2.25 -3.65 2.4 -3.7 M0.9 -3.2 Q0.9 -3.2 0.95 -3.15 L1.0 -3.15 1.1 -3.15 1.1 -3.2 Q1.1 -3.25 0.95 -3.3 L0.9 -3.2 M1.1 0.35 L1.15 0.45 1.25 0.6 1.3 -1.3 1.3 -1.5 1.3 -2.2 1.25 -2.4 1.2 -2.6 Q1.15 -2.65 1.2 -2.8 L1.15 -3.0 1.1 -2.9 1.15 -2.5 1.1 -2.25 1.1 -2.05 1.05 -1.8 1.0 -1.45 1.0 -1.3 1.05 -1.25 1.0 -1.2 0.95 -1.15 0.9 -1.15 0.9 -1.1 1.0 -0.9 1.05 -0.7 1.1 -0.65 1.1 -0.5 1.05 -0.55 1.0 -0.6 1.0 -0.55 0.95 -0.45 1.0 -0.25 0.95 -0.2 0.9 -0.2 0.85 -0.25 Q0.8 -0.25 0.8 -0.15 0.8 -0.05 0.9 0.0 0.95 0.05 0.95 0.1 0.95 0.2 1.0 0.25 L1.1 0.35 1.05 0.45 1.1 0.55 1.1 0.65 1.1 0.35 M1.65 -1.45 L1.7 -1.85 Q1.65 -1.95 1.7 -2.15 L1.7 -2.25 1.65 -2.25 1.65 -1.95 1.6 -1.65 1.65 -0.85 1.6 -0.75 1.65 -0.6 1.6 -0.45 1.65 -0.15 1.6 0.0 1.55 0.6 1.55 0.85 1.65 0.55 1.65 0.2 1.65 0.05 1.7 -0.05 1.7 -0.15 1.75 -0.2 1.85 -0.3 1.85 -0.6 1.85 -0.8 1.9 -0.85 1.85 -0.95 1.75 -1.05 Q1.75 -1.1 1.75 -1.15 L1.7 -1.35 1.65 -1.4 1.65 -1.4 1.65 -1.45 M0.8 -1.9 L0.8 -1.8 0.85 -1.7 0.9 -1.8 0.95 -1.85 1.0 -1.9 Q1.0 -1.95 0.9 -2.0 L0.85 -1.95 0.8 -1.9" fill="#bbaea5" fill-rule="evenodd" stroke="none"/>
    <path d="M2.55 -2.95 L2.5 -2.7 2.5 -2.15 2.4 0.35 2.35 0.3 2.3 0.15 2.3 0.05 2.25 -0.05 2.3 -0.1 2.35 -0.2 2.25 -0.3 Q2.2 -0.35 2.2 -0.45 L2.15 -0.6 2.1 -0.7 2.1 -0.95 2.05 -1.15 2.1 -1.25 2.1 -1.3 2.05 -1.45 2.1 -1.5 2.1 -1.65 2.1 -1.85 2.15 -1.95 2.1 -2.1 2.15 -2.15 2.15 -2.15 2.3 -2.2 2.3 -2.25 2.2 -2.35 2.1 -2.45 2.25 -2.65 2.2 -2.7 2.25 -2.75 2.25 -2.75 2.35 -2.8 2.4 -2.9 2.5 -2.95 2.55 -2.95" fill="#eae5e2" fill-rule="evenodd" stroke="none"/>
    <path d="M0.25 -3.45 L0.35 -3.5 0.35 -3.5 Q0.35 -3.45 0.45 -3.45 L0.55 -3.45 0.6 -3.45 0.6 -3.45 0.65 -3.45 0.7 -3.4 0.75 -3.4 Q0.75 -3.3 0.6 -3.3 L0.45 -3.25 0.4 -3.2 0.2 -3.3 0.15 -3.35 0.2 -3.45 0.25 -3.45 M0.4 -3.35 Q0.4 -3.3 0.45 -3.3 L0.5 -3.3 0.45 -3.4 0.4 -3.4 0.4 -3.35" fill="#968375" fill-rule="evenodd" stroke="none"/>
    <path d="M0.4 -3.35 L0.4 -3.4 0.45 -3.4 0.5 -3.3 0.45 -3.3 Q0.4 -3.3 0.4 -3.35" fill="#6a5749" fill-rule="evenodd" stroke="none"/>
    <path d="M1.05 -1.25 L1.0 -1.3 1.0 -1.45 1.05 -1.8 1.1 -2.05 1.1 -2.25 1.15 -2.5 1.1 -2.9 1.15 -3.0 1.2 -2.8 Q1.15 -2.65 1.2 -2.6 L1.25 -2.4 1.3 -2.2 1.3 -1.5 1.3 -1.3 1.25 0.6 1.15 0.45 1.1 0.35 1.1 0.3 1.15 0.2 1.2 -0.2 1.15 -0.3 1.2 -0.4 1.15 -0.45 1.1 -0.5 1.1 -0.5 1.1 -0.65 1.1 -0.8 1.1 -0.85 1.1 -1.3 1.05 -1.25 M1.65 -1.4 L1.65 -1.4 1.7 -1.35 1.75 -1.15 Q1.75 -1.1 1.75 -1.05 L1.85 -0.95 1.9 -0.85 1.85 -0.8 1.85 -0.6 1.85 -0.3 1.75 -0.2 1.7 -0.15 1.7 -0.05 1.65 0.05 1.65 0.2 1.65 0.55 1.55 0.85 1.55 0.6 1.6 0.0 1.65 -0.15 1.6 -0.45 1.65 -0.6 1.6 -0.75 1.65 -0.85 1.6 -1.65 1.65 -1.95 1.65 -2.25 1.7 -2.25 1.7 -2.15 Q1.65 -1.95 1.7 -1.85 L1.65 -1.45 1.65 -1.4" fill="#e4d6d3" fill-rule="evenodd" stroke="none"/>
    <path d="M1.05 -1.25 L1.1 -1.3 1.1 -0.85 1.1 -0.8 1.1 -0.65 1.05 -0.7 1.0 -0.9 0.9 -1.1 0.9 -1.15 0.95 -1.15 1.0 -1.2 1.05 -1.25 M1.1 -0.5 L1.1 -0.5 1.15 -0.45 1.2 -0.4 1.15 -0.3 1.2 -0.2 1.15 0.2 1.1 0.3 1.1 0.35 1.1 0.65 1.1 0.55 1.05 0.45 1.1 0.35 1.0 0.25 Q0.95 0.2 0.95 0.1 0.95 0.05 0.9 0.0 0.8 -0.05 0.8 -0.15 0.8 -0.25 0.85 -0.25 L0.9 -0.2 0.95 -0.2 1.0 -0.25 0.95 -0.45 1.0 -0.55 1.0 -0.6 1.05 -0.55 1.1 -0.5 M0.8 -1.9 L0.85 -1.95 0.9 -2.0 Q1.0 -1.95 1.0 -1.9 L0.95 -1.85 0.9 -1.8 0.85 -1.7 0.8 -1.8 0.8 -1.9" fill="#a18d86" fill-rule="evenodd" stroke="none"/>
    <path d="M2.25 6.2 L2.2 10.0 2.1 12.5 2.1 13.85 2.05 13.85 Q1.9 13.85 1.9 13.95 L1.95 14.05 1.9 14.05 Q1.85 14.1 1.85 14.15 L1.85 14.3 1.75 14.3 1.65 14.35 1.6 14.25 1.6 14.15 1.55 14.05 1.5 13.95 Q1.45 14.0 1.5 14.15 L1.45 14.3 1.3 14.3 1.2 14.25 1.0 14.15 Q0.95 14.15 0.9 14.2 L0.85 14.3 0.9 14.45 0.9 14.55 1.0 14.65 1.1 14.7 1.05 14.8 1.3 14.95 1.25 15.0 1.15 15.05 1.05 15.0 Q1.0 15.0 1.0 15.05 L0.95 15.1 Q0.95 15.15 1.1 15.2 L1.2 15.2 1.3 15.2 1.35 15.25 1.45 15.35 1.5 15.3 1.5 15.25 Q1.65 15.3 1.65 15.35 L1.6 15.4 1.6 15.45 1.55 15.45 Q1.45 15.45 1.45 15.5 L1.45 15.7 1.5 15.75 1.55 15.85 1.6 16.0 1.65 16.1 1.45 16.2 Q1.5 16.3 1.4 16.3 L1.3 16.25 1.15 16.3 Q1.05 16.35 1.05 16.35 L1.05 16.4 1.0 16.5 Q0.6 16.0 0.7 15.35 L0.6 9.15 0.7 9.05 0.7 8.0 0.75 7.55 0.7 7.25 0.7 7.15 0.7 7.0 Q0.65 7.0 0.6 7.0 L0.6 4.5 0.65 4.4 0.7 4.25 0.65 4.05 0.75 3.9 0.7 3.8 0.7 3.55 0.7 3.35 0.8 3.25 0.8 3.15 0.85 3.0 0.8 3.0 0.75 2.95 0.7 2.85 0.7 2.8 0.75 2.7 0.75 2.65 0.7 2.6 0.8 2.45 0.75 2.35 0.8 2.25 0.8 2.2 0.75 2.15 0.75 2.1 0.8 2.1 0.8 1.85 0.75 1.8 0.75 1.7 0.7 1.65 0.8 1.5 0.8 1.45 0.8 1.35 Q0.85 1.35 0.9 1.35 L0.95 1.2 0.9 1.1 0.9 1.05 0.85 1.0 0.85 0.95 0.9 0.9 0.9 0.95 0.95 1.0 1.05 1.05 1.05 1.4 1.05 2.2 1.1 2.5 1.0 2.7 1.05 2.8 1.05 3.6 1.0 3.8 1.0 4.05 1.0 4.75 Q0.95 4.85 1.1 4.95 L1.1 4.85 1.15 4.8 1.2 4.7 1.2 4.4 Q1.2 4.25 1.25 4.05 L1.3 4.05 1.3 4.25 1.25 4.55 1.25 4.75 1.3 4.95 1.25 5.05 1.2 5.15 1.2 5.2 1.25 5.25 1.3 5.3 1.3 6.35 1.35 7.05 1.35 7.3 1.3 7.45 1.3 7.75 Q1.3 7.75 1.35 7.8 L1.35 7.35 1.4 6.8 1.4 5.85 1.4 5.65 1.45 6.25 1.45 6.3 1.45 6.85 Q1.45 7.3 1.5 7.4 L1.55 6.95 1.55 5.85 1.55 5.7 1.55 4.7 1.55 4.9 1.6 5.0 1.65 5.0 1.65 4.8 1.7 4.8 1.75 4.65 Q1.7 4.55 1.75 4.45 L1.75 4.3 1.75 4.25 1.7 4.2 1.65 4.1 1.65 3.95 1.6 3.75 Q1.6 3.65 1.65 3.65 1.75 3.75 1.75 3.85 L1.75 4.0 Q1.75 4.05 1.85 4.05 L1.85 3.7 1.8 3.65 1.7 3.55 1.7 3.4 1.65 3.25 1.7 3.2 1.7 2.95 1.75 2.75 1.8 2.4 1.75 2.0 1.8 1.5 Q1.75 1.35 1.8 0.9 L1.75 0.45 1.75 0.4 1.85 0.6 Q1.8 0.7 1.9 0.7 L1.9 0.65 1.95 0.55 1.95 0.75 2.0 0.85 1.95 0.95 2.0 1.15 Q1.95 1.2 1.95 1.3 L1.95 1.4 1.9 1.55 1.95 1.65 1.95 1.75 2.0 1.85 2.0 1.95 2.05 2.0 2.1 2.15 2.2 2.3 2.1 2.5 Q2.05 2.6 2.1 2.7 L2.05 2.9 Q1.95 3.05 1.95 3.15 1.95 3.25 2.1 3.3 L2.1 3.45 2.05 3.6 2.05 4.05 2.1 4.15 2.1 4.2 2.1 4.35 2.1 4.45 2.1 4.65 2.15 4.8 2.1 4.85 2.1 4.95 2.2 5.2 2.15 5.25 2.1 5.35 2.15 5.45 2.2 5.5 2.15 5.6 2.15 5.8 2.1 5.9 2.15 5.95 2.2 6.1 2.25 6.2" fill="#82786c" fill-rule="evenodd" stroke="none"/>
    <path d="M0.6 9.15 L0.6 7.1 0.7 7.15 0.7 7.25 0.75 7.55 0.7 8.0 0.7 9.05 0.6 9.15" fill="#c2bcae" fill-rule="evenodd" stroke="none"/>
    <path d="M2.1 13.85 L2.1 15.3 Q2.25 16.3 1.4 16.85 L1.0 16.5 1.05 16.4 1.05 16.35 Q1.05 16.35 1.15 16.3 L1.3 16.25 1.4 16.3 Q1.5 16.3 1.45 16.2 L1.65 16.1 1.6 16.0 1.55 15.85 1.5 15.75 1.45 15.7 1.45 15.5 Q1.45 15.45 1.55 15.45 L1.6 15.45 1.6 15.4 1.65 15.35 Q1.65 15.3 1.5 15.25 L1.5 15.3 1.45 15.35 1.35 15.25 1.3 15.2 1.2 15.2 1.1 15.2 Q0.95 15.15 0.95 15.1 L1.0 15.05 Q1.0 15.0 1.05 15.0 L1.15 15.05 1.25 15.0 1.3 14.95 1.05 14.8 1.1 14.7 1.0 14.65 0.9 14.55 0.9 14.45 0.85 14.3 0.9 14.2 Q0.95 14.15 1.0 14.15 L1.2 14.25 1.3 14.3 1.45 14.3 1.5 14.15 Q1.45 14.0 1.5 13.95 L1.55 14.05 1.6 14.15 1.6 14.25 1.65 14.35 1.75 14.3 1.85 14.3 1.85 14.15 Q1.85 14.1 1.9 14.05 L1.95 14.05 1.9 13.95 Q1.9 13.85 2.05 13.85 L2.1 13.85 M1.7 14.75 L1.75 14.9 Q1.75 15.0 1.8 15.0 L1.95 14.95 1.95 14.8 1.85 14.75 1.7 14.75" fill="#5b4538" fill-rule="evenodd" stroke="none"/>
    <path d="M-1.6 -8.1 L-1.55 -8.1 -1.5 -8.1 -1.4 -8.1 -1.3 -8.05 -1.0 -8.05 -0.75 -8.05 -0.7 -8.05 -0.6 -8.0 -0.65 -8.0 -0.75 -8.0 -0.8 -7.95 -0.9 -7.95 -1.1 -7.95 -1.4 -7.95 -1.5 -8.0 -1.55 -8.05 -1.6 -8.05 -1.6 -8.1" fill="#eeeced" fill-rule="evenodd" stroke="none"/>
    <path d="M-2.15 -8.15 L-2.15 -8.15 -2.05 -8.15 -2.0 -8.2 Q-1.95 -8.2 -1.95 -8.15 L-1.95 -8.1 -2.0 -8.1 -2.1 -8.05 -2.2 -8.0 -2.3 -8.0 -2.2 -8.1 -2.15 -8.15" fill="#928d8a" fill-rule="evenodd" stroke="none"/>
    <path d="M-0.05 -3.2 L-1.15 -3.3 -1.1 -3.3 -0.7 -3.35 -0.6 -3.35 -0.6 -3.35 -0.5 -3.35 -0.4 -3.25 -0.3 -3.3 -0.2 -3.3 -0.1 -3.25 -0.05 -3.2" fill="#7d7369" fill-rule="evenodd" stroke="none"/>
    <path d="M1.6 -16.45 L1.5 -16.3 1.35 -16.15 1.3 -16.05 1.2 -15.95 1.2 -15.9 1.15 -15.8 1.2 -15.6 1.25 -15.45 1.3 -15.4 1.3 -15.35 1.35 -15.3 1.45 -15.25 1.4 -15.2 1.4 -15.15 1.45 -15.15 1.45 -15.1 1.45 -14.95 1.4 -14.8 1.45 -14.7 1.45 -14.6 1.45 -14.25 1.4 -14.05 1.4 -13.25 1.35 -12.9 1.3 -12.8 1.3 -12.45 1.25 -12.3 1.2 -12.25 1.15 -12.2 1.2 -12.15 1.25 -12.05 1.25 -11.75 1.35 -8.75 1.35 -8.45 1.3 -8.4 1.3 -8.4 1.35 -8.25 1.35 -8.15 1.3 -8.1 Q1.2 -8.0 1.2 -8.0 L1.2 -8.0 1.15 -8.05 1.1 -8.05 1.05 -8.05 1.0 -8.05 0.95 -8.1 0.85 -8.05 0.8 -8.0 0.6 -8.0 0.25 -8.05 0.15 -8.0 0.05 -8.0 -0.25 -8.0 -0.4 -8.0 -0.55 -8.0 -0.6 -8.0 -0.7 -8.05 -0.75 -8.05 -1.0 -8.05 -1.3 -8.05 -1.4 -8.1 -1.5 -8.1 -1.55 -8.1 -1.6 -8.1 -1.6 -8.15 -1.65 -8.15 -1.65 -8.15 -1.75 -8.15 -1.85 -8.1 -1.9 -8.15 -1.95 -8.15 Q-1.95 -8.2 -2.0 -8.2 L-2.05 -8.15 -2.15 -8.15 -2.15 -8.15 -2.2 -8.2 -2.3 -8.15 -2.35 -8.2 -2.35 -8.2 -2.4 -8.2 -2.4 -8.2 -2.4 -8.0 Q-2.45 -8.0 -2.45 -8.0 L-2.45 -8.05 -2.5 -8.05 -2.55 -8.0 -2.6 -8.0 -2.65 -7.95 -2.7 -7.85 -2.65 -7.8 -2.6 -7.75 -2.5 -7.75 Q-2.45 -7.75 -2.45 -7.8 L-2.45 -7.8 -2.4 -7.8 -2.4 -7.55 -2.15 -7.55 -1.95 -7.55 -1.25 -7.6 0.45 -7.75 0.45 -7.7 0.55 -7.7 1.05 -7.6 1.15 -7.65 1.15 -7.65 1.2 -7.65 1.25 -7.65 1.25 -6.9 1.3 -6.8 1.05 -6.75 0.85 -6.75 0.9 -6.5 0.9 -5.9 0.85 -5.65 0.8 -5.5 0.8 -5.3 0.8 -4.95 0.8 -4.75 0.8 -4.4 0.85 -4.1 0.85 -4.0 0.85 -3.75 0.8 -3.7 0.8 -3.7 0.7 -3.65 0.55 -3.55 0.35 -3.5 0.25 -3.45 0.2 -3.45 -0.15 -3.45 -0.45 -3.4 -0.6 -3.35 -0.7 -3.35 -1.1 -3.3 -1.15 -3.3 -0.05 -3.2 -0.05 -3.2 0.4 -3.1 Q0.6 -3.0 0.6 -2.9 L0.55 -2.65 0.6 4.5 0.6 7.0 Q0.65 7.0 0.7 7.0 L0.7 7.15 0.6 7.1 0.6 9.15 0.7 15.35 Q0.6 16.0 1.0 16.5 L1.4 16.85 Q2.25 16.3 2.1 15.3 L2.1 13.85 2.1 12.5 2.2 10.0 2.25 6.2 2.4 0.35 2.5 -2.15 2.5 -2.7 2.55 -2.95 2.55 -3.0 2.7 -3.1 3.0 -3.15 3.3 -3.15 3.65 -3.2 3.75 -3.25 4.0 -3.3 4.6 -3.3 3.65 -3.45 3.15 -3.45 2.8 -3.55 2.6 -3.55 2.45 -3.6 2.4 -3.6 2.4 -3.7 2.4 -3.85 2.35 -4.35 2.35 -4.6 2.35 -4.75 2.4 -4.9 2.35 -5.0 2.35 -5.0 2.35 -5.15 2.4 -5.55 2.4 -5.85 2.45 -6.5 2.4 -6.85 1.7 -6.8 2.05 -6.85 2.05 -7.0 2.1 -7.4 2.1 -7.5 2.05 -7.55 2.05 -7.55 2.1 -7.55 2.1 -7.6 2.15 -7.55 2.15 -7.55 2.15 -7.6 2.25 -7.6 2.25 -7.6 2.35 -7.6 Q2.45 -7.6 2.5 -7.65 L2.55 -7.7 2.55 -7.7 2.6 -7.7 2.9 -7.7 3.0 -7.7 3.05 -7.7 3.1 -7.7 4.6 -7.55 4.9 -7.55 4.95 -7.55 5.1 -7.55 5.65 -7.5 5.7 -7.5 5.7 -7.55 5.7 -7.6 5.75 -7.6 5.75 -7.65 5.75 -7.65 5.8 -7.7 5.8 -7.7 5.85 -7.7 5.85 -7.7 5.9 -7.7 5.95 -7.7 5.95 -7.75 6.0 -7.8 6.0 -7.85 5.95 -7.9 5.9 -7.95 5.85 -7.95 5.8 -7.95 5.8 -7.95 5.75 -7.9 5.75 -7.95 5.7 -8.05 5.7 -8.05 5.7 -8.05 5.7 -8.2 4.95 -8.15 M1.6 -16.45 L1.55 -16.6 Q1.55 -16.65 1.7 -16.65 L1.8 -16.65 1.8 -16.5 1.85 -16.45 1.9 -16.35 1.95 -16.3 2.0 -16.25 2.1 -16.15 2.15 -16.05 2.2 -15.95 2.2 -15.7 2.15 -15.6 2.1 -15.55 1.95 -15.3 1.95 -15.2 1.9 -15.15 1.9 -14.95 1.9 -14.95 1.95 -14.85 1.95 -14.8 1.9 -14.65 1.9 -14.45 1.95 -14.05 1.95 -13.7 2.0 -13.4 2.0 -13.15 2.0 -13.0 2.05 -12.8 2.05 -12.6 2.1 -12.4 2.1 -12.3 2.15 -12.25 2.15 -12.2 2.1 -12.15 2.1 -12.0 2.05 -11.85 2.05 -11.75 2.0 -8.5 2.0 -8.5 2.0 -8.5 2.0 -8.45 2.05 -8.35 2.0 -8.25 2.0 -8.1 2.05 -8.1 2.1 -8.1 2.15 -8.1 2.2 -8.1 2.55 -8.05 Q2.65 -8.05 2.7 -8.0 L2.7 -7.95 3.05 -8.0 4.6 -8.1 4.85 -8.15 4.9 -8.15 M1.6 -15.2 L1.65 -15.2 1.8 -15.15 1.8 -15.15 1.85 -15.15 1.9 -15.15 M1.85 -15.15 L1.8 -15.15 1.6 -15.2" fill="none" stroke="#000000" stroke-linecap="round" stroke-linejoin="round" stroke-opacity="0.4" stroke-width="0.1"/>
  </g>
</svg>
