<?xml version="1.0" encoding="UTF-8" standalone="no"?>
<svg xmlns:xlink="http://www.w3.org/1999/xlink" height="4.4px" width="4.4px" xmlns="http://www.w3.org/2000/svg">
  <g transform="matrix(1.0, 0.0, 0.0, 1.0, 2.2, 2.2)">
    <path d="M-2.2 -1.85 L-2.2 -2.2 -1.8 -2.2 -1.75 -2.1 -1.8 -2.05 -1.85 -2.05 -1.8 -2.0 -1.7 -1.95 -1.75 -1.75 -1.8 -1.8 -1.8 -1.85 -1.9 -1.85 -1.9 -1.75 -2.0 -1.8 -2.05 -1.8 -2.15 -1.8 -2.2 -1.85 M-1.9 -1.75 L-1.9 -1.75" fill="#1a1c2d" fill-rule="evenodd" stroke="none"/>
    <path d="M-2.2 -1.35 L-2.2 -1.75 -2.1 -1.8 -2.0 -1.75 -2.05 -1.65 -2.05 -1.55 -2.1 -1.45 -2.2 -1.35" fill="#0d0d1b" fill-rule="evenodd" stroke="none"/>
    <path d="M-2.2 -0.85 L-2.2 -1.35 -2.1 -1.45 -2.05 -1.55 -2.05 -1.65 -2.0 -1.75 -2.1 -1.8 -2.2 -1.75 -2.2 -1.85 -2.15 -1.8 -2.05 -1.8 -2.0 -1.8 -1.9 -1.75 -1.95 -1.65 -2.0 -1.55 -2.0 -1.5 -1.95 -1.4 -2.0 -1.35 -2.0 -1.3 -1.9 -1.3 -1.8 -1.25 -1.7 -1.25 -1.7 -1.2 -1.7 -1.15 -1.75 -1.1 -1.9 -1.15 -2.05 -1.15 -2.1 -1.0 Q-2.1 -0.9 -2.2 -0.85" fill="#111122" fill-rule="evenodd" stroke="none"/>
    <path d="M-2.2 -0.4 L-2.2 -0.85 Q-2.1 -0.9 -2.1 -1.0 L-2.05 -1.15 -1.9 -1.15 -1.75 -1.1 -1.8 -0.85 -1.85 -0.7 -1.85 -0.5 -2.05 -0.5 -2.2 -0.4" fill="#0c0c1b" fill-rule="evenodd" stroke="none"/>
    <path d="M-2.2 -0.15 L-2.2 -0.4 -2.05 -0.5 -1.85 -0.5 -1.85 -0.45 -1.8 -0.45 -1.7 -0.45 -1.65 -0.4 -1.75 -0.25 -1.9 -0.15 -2.0 -0.15 Q-2.05 -0.15 -2.1 -0.15 L-2.15 -0.2 -2.2 -0.15 M-1.8 -0.35 L-1.85 -0.4 -2.0 -0.45 -2.0 -0.35 Q-2.05 -0.25 -2.0 -0.2 L-1.85 -0.25 -1.8 -0.35" fill="#121225" fill-rule="evenodd" stroke="none"/>
    <path d="M-2.2 0.65 L-2.2 -0.15 -2.15 -0.2 -2.1 -0.15 Q-2.05 -0.15 -2.0 -0.15 L-1.9 -0.15 -1.75 -0.25 -1.65 -0.4 -1.55 -0.35 -1.5 -0.3 -1.5 -0.25 Q-1.5 -0.2 -1.55 -0.15 -1.6 -0.1 -1.65 -0.1 L-1.65 0.0 -1.6 0.1 Q-1.6 0.15 -1.65 0.2 L-1.7 0.25 -1.75 0.4 -1.8 0.45 -1.95 0.55 -2.15 0.6 -2.2 0.65" fill="#0e0e20" fill-rule="evenodd" stroke="none"/>
    <path d="M2.2 -1.3 L2.2 -1.0 Q2.0 -1.0 1.95 -0.9 L1.85 -0.9 1.75 -0.95 1.9 -1.0 1.95 -1.1 1.95 -1.2 1.85 -1.25 Q1.75 -1.25 1.75 -1.35 1.75 -1.45 1.7 -1.55 L1.5 -1.65 1.35 -1.55 1.15 -1.55 Q0.9 -1.45 0.8 -1.25 L0.7 -1.2 0.65 -1.15 0.7 -1.05 0.9 -1.0 1.1 -1.05 1.05 -1.0 1.05 -0.95 1.0 -0.95 0.85 -0.95 0.7 -0.9 0.65 -1.0 0.6 -1.0 0.55 -1.0 0.5 -1.05 0.5 -1.15 Q0.45 -1.15 0.45 -1.15 L0.45 -1.2 0.55 -1.2 Q0.75 -1.2 0.9 -1.5 L0.9 -1.5 0.7 -1.45 0.5 -1.35 Q0.45 -1.3 0.4 -1.35 L0.3 -1.35 0.25 -1.3 0.2 -1.25 Q0.2 -1.25 0.1 -1.3 L0.0 -1.35 0.0 -1.25 -0.05 -1.2 -0.1 -1.2 -0.2 -1.2 -0.35 -1.15 -0.4 -1.15 -0.4 -1.1 Q-0.45 -1.2 -0.55 -1.25 L-0.55 -1.5 -0.55 -1.6 -0.5 -1.6 -0.45 -1.6 Q-0.5 -1.65 -0.5 -1.8 L-0.45 -1.85 -0.4 -1.85 -0.25 -1.9 -0.15 -1.95 -0.1 -1.95 -0.05 -1.9 -0.1 -1.85 -0.15 -1.8 -0.2 -1.7 -0.25 -1.55 -0.1 -1.5 Q0.0 -1.5 0.05 -1.6 L0.15 -1.7 0.15 -1.8 Q0.15 -1.85 0.2 -1.9 L0.3 -1.9 0.3 -2.0 0.45 -2.0 0.45 -1.9 0.55 -1.95 0.65 -1.95 0.75 -2.0 0.8 -2.0 0.85 -1.95 Q0.8 -1.9 0.8 -1.85 L0.8 -1.7 0.9 -1.6 1.0 -1.55 1.05 -1.6 1.1 -1.7 1.2 -1.65 Q1.25 -1.6 1.25 -1.6 L1.4 -1.65 Q1.5 -1.65 1.5 -1.7 L1.55 -1.75 1.85 -1.65 1.85 -1.6 Q1.8 -1.55 1.85 -1.5 L1.8 -1.35 Q1.8 -1.35 1.85 -1.3 L1.9 -1.3 1.95 -1.25 2.0 -1.3 2.1 -1.3 2.2 -1.3 M0.75 -2.0 L0.75 -2.0 M1.05 -0.95 L1.05 -0.95" fill="#0e0e1c" fill-rule="evenodd" stroke="none"/>
    <path d="M-0.4 -2.2 L0.15 -2.2 0.1 -2.05 -0.05 -2.0 0.0 -1.9 Q0.05 -1.8 0.0 -1.8 L-0.1 -1.7 Q-0.15 -1.65 -0.15 -1.55 L0.05 -1.6 Q0.0 -1.5 -0.1 -1.5 L-0.25 -1.55 -0.2 -1.7 -0.15 -1.8 -0.1 -1.85 -0.05 -1.9 -0.1 -1.95 -0.15 -1.95 -0.25 -1.9 -0.4 -1.85 -0.45 -1.85 -0.5 -1.8 -0.5 -1.85 -0.55 -1.9 -0.5 -1.9 -0.45 -1.95 -0.35 -1.95 -0.4 -2.0 -0.45 -2.1 -0.45 -2.15 -0.4 -2.2" fill="#171a27" fill-rule="evenodd" stroke="none"/>
    <path d="M-0.65 -2.2 L-0.4 -2.2 -0.45 -2.15 -0.45 -2.1 -0.4 -2.0 -0.35 -1.95 -0.45 -1.95 -0.5 -1.9 -0.5 -1.95 Q-0.5 -2.0 -0.55 -2.1 L-0.65 -2.2" fill="#222734" fill-rule="evenodd" stroke="none"/>
    <path d="M-0.7 -2.2 L-0.65 -2.2 -0.55 -2.1 Q-0.5 -2.0 -0.5 -1.95 L-0.55 -2.0 -0.65 -2.05 -0.7 -2.0 Q-0.7 -2.05 -0.7 -2.05 L-0.8 -2.05 -1.0 -2.0 Q-1.0 -2.05 -1.0 -2.1 L-0.9 -2.1 Q-0.75 -2.1 -0.7 -2.2" fill="#2e3644" fill-rule="evenodd" stroke="none"/>
    <path d="M-0.95 -2.0 L-1.0 -2.0 -0.8 -2.05 -0.9 -1.95 -0.95 -2.0" fill="#516c68" fill-rule="evenodd" stroke="none"/>
    <path d="M-1.15 -1.8 L-1.1 -1.7 -1.0 -1.75 -0.9 -1.75 -1.0 -1.85 Q-1.1 -1.85 -1.1 -1.95 L-1.05 -2.0 -0.95 -2.0 -0.9 -1.95 -0.8 -2.05 -0.7 -2.05 Q-0.7 -2.05 -0.7 -2.0 L-0.7 -1.85 -0.8 -1.8 -0.75 -1.7 -0.8 -1.75 -0.9 -1.75 -0.9 -1.65 -0.95 -1.6 -0.95 -1.7 Q-0.95 -1.75 -1.0 -1.7 L-1.0 -1.65 -0.95 -1.6 -1.0 -1.55 -1.0 -1.55 -1.1 -1.6 -1.15 -1.7 -1.15 -1.75 -1.15 -1.8" fill="#151a1d" fill-rule="evenodd" stroke="none"/>
    <path d="M-0.9 -2.1 L-1.0 -2.1 Q-1.0 -2.05 -1.0 -2.0 L-0.95 -2.0 -1.05 -2.0 -1.1 -1.95 Q-1.1 -1.85 -1.0 -1.85 L-0.9 -1.75 -1.0 -1.75 -1.1 -1.7 -1.15 -1.8 -1.2 -1.9 -1.25 -2.0 -1.35 -2.0 Q-1.4 -1.95 -1.4 -1.95 -1.4 -1.95 -1.5 -2.0 -1.55 -2.05 -1.55 -2.05 L-1.45 -2.05 -1.4 -2.0 -1.25 -2.05 -1.1 -2.1 -1.0 -2.15 -0.9 -2.1" fill="#262c39" fill-rule="evenodd" stroke="none"/>
    <path d="M-1.8 -2.2 L-0.7 -2.2 Q-0.75 -2.1 -0.9 -2.1 L-1.0 -2.15 -1.1 -2.1 -1.25 -2.05 -1.4 -2.0 -1.45 -2.05 -1.55 -2.05 -1.65 -2.05 -1.7 -2.0 -1.65 -1.95 -1.65 -1.7 -1.75 -1.65 -1.8 -1.65 Q-1.85 -1.55 -1.8 -1.55 -1.8 -1.5 -1.7 -1.5 L-1.8 -1.5 Q-1.85 -1.5 -1.85 -1.55 -1.8 -1.6 -1.85 -1.65 L-1.9 -1.75 -1.9 -1.85 -1.8 -1.85 -1.8 -1.8 -1.75 -1.75 -1.7 -1.95 -1.8 -2.0 -1.85 -2.05 -1.8 -2.05 -1.75 -2.1 -1.8 -2.2" fill="#1f2333" fill-rule="evenodd" stroke="none"/>
    <path d="M-0.7 -2.0 L-0.65 -2.05 -0.6 -1.95 Q-0.55 -1.9 -0.5 -1.9 L-0.55 -1.9 -0.6 -1.75 Q-0.65 -1.7 -0.7 -1.7 L-0.75 -1.7 -0.8 -1.8 -0.7 -1.85 -0.7 -2.0" fill="#3b4e4a" fill-rule="evenodd" stroke="none"/>
    <path d="M-0.65 -2.05 L-0.55 -2.0 -0.5 -1.95 -0.5 -1.9 Q-0.55 -1.9 -0.6 -1.95 L-0.65 -2.05" fill="#63837d" fill-rule="evenodd" stroke="none"/>
    <path d="M-0.5 -1.8 Q-0.5 -1.65 -0.45 -1.6 L-0.6 -1.65 -0.55 -1.75 -0.5 -1.85 -0.5 -1.8" fill="#445a55" fill-rule="evenodd" stroke="none"/>
    <path d="M-0.5 -1.6 L-0.55 -1.6 -0.55 -1.5 Q-0.55 -1.45 -0.6 -1.4 L-0.75 -1.4 -0.65 -1.5 -0.65 -1.6 -0.7 -1.55 -0.7 -1.6 -0.65 -1.6 Q-0.6 -1.65 -0.65 -1.7 L-0.7 -1.7 Q-0.65 -1.7 -0.6 -1.75 L-0.55 -1.9 -0.5 -1.85 -0.55 -1.75 -0.6 -1.65 -0.5 -1.6" fill="#20292a" fill-rule="evenodd" stroke="none"/>
    <path d="M-0.75 -1.7 L-0.7 -1.7 -0.65 -1.7 Q-0.6 -1.65 -0.65 -1.6 L-0.7 -1.6 -0.7 -1.55 -0.8 -1.55 -0.8 -1.5 -0.85 -1.55 -0.95 -1.55 -0.95 -1.6 -0.9 -1.65 -0.9 -1.65 -0.85 -1.65 -0.75 -1.6 -0.8 -1.65 -0.9 -1.75 -0.8 -1.75 -0.75 -1.7" fill="#94c7bb" fill-rule="evenodd" stroke="none"/>
    <path d="M-0.95 -1.55 L-0.85 -1.55 -0.8 -1.5 -0.8 -1.55 -0.7 -1.55 -0.65 -1.6 -0.65 -1.5 -0.75 -1.4 -0.8 -1.35 -0.9 -1.4 -1.0 -1.5 -0.95 -1.55 M-0.8 -1.35 L-0.8 -1.35" fill="#6b9388" fill-rule="evenodd" stroke="none"/>
    <path d="M-0.95 -1.6 L-1.0 -1.65 -1.0 -1.7 Q-0.95 -1.75 -0.95 -1.7 L-0.95 -1.6" fill="#5d8176" fill-rule="evenodd" stroke="none"/>
    <path d="M-0.9 -1.75 L-0.8 -1.65 -0.75 -1.6 -0.85 -1.65 -0.9 -1.65 -0.9 -1.65 -0.9 -1.75" fill="#63887d" fill-rule="evenodd" stroke="none"/>
    <path d="M-0.95 -1.6 L-0.95 -1.55 -1.0 -1.5 -0.9 -1.4 -1.05 -1.45 -1.0 -1.55 -0.95 -1.6" fill="#48645d" fill-rule="evenodd" stroke="none"/>
    <path d="M-1.0 -1.55 L-1.0 -1.55 -1.05 -1.45 -0.9 -1.4 -0.8 -1.35 -0.9 -1.25 -0.9 -1.35 Q-0.95 -1.35 -1.0 -1.35 -1.05 -1.35 -1.1 -1.5 L-1.0 -1.55" fill="#222d2f" fill-rule="evenodd" stroke="none"/>
    <path d="M-1.0 -1.35 Q-0.95 -1.35 -0.9 -1.35 L-0.9 -1.25 -0.85 -1.2 -0.9 -1.2 -1.0 -1.25 -1.0 -1.35" fill="#3b4855" fill-rule="evenodd" stroke="none"/>
    <path d="M-0.55 -1.25 Q-0.45 -1.2 -0.4 -1.1 L-0.4 -1.05 -0.35 -1.0 -0.35 -0.95 -0.3 -1.0 -0.2 -0.85 Q-0.15 -0.8 -0.05 -0.8 L-0.05 -0.95 -0.1 -1.0 0.15 -0.9 0.05 -0.85 0.05 -0.75 -0.05 -0.75 -0.2 -0.8 -0.3 -0.8 -0.3 -0.85 -0.35 -0.85 -0.4 -0.75 -0.4 -0.65 -0.45 -0.65 -0.5 -0.65 -0.45 -0.65 -0.45 -0.8 Q-0.5 -0.85 -0.55 -0.85 L-0.65 -0.9 -0.8 -0.9 -0.75 -1.0 Q-0.8 -0.95 -0.8 -0.95 L-0.85 -1.0 -0.9 -0.95 -0.95 -0.9 -1.0 -1.0 -0.9 -1.0 -0.95 -1.05 -1.0 -1.05 Q-1.05 -1.0 -1.05 -1.0 L-1.15 -1.05 -1.15 -1.1 -1.2 -1.1 -1.25 -1.0 -1.3 -0.9 -1.4 -0.85 -1.45 -1.0 -1.45 -1.05 -1.4 -1.05 -1.3 -1.15 -1.2 -1.15 -1.1 -1.15 -1.15 -1.25 -1.25 -1.25 -1.2 -1.3 -1.15 -1.35 -1.15 -1.4 -1.2 -1.4 -1.15 -1.45 -1.1 -1.5 Q-1.05 -1.35 -1.0 -1.35 L-1.0 -1.25 -0.9 -1.2 -0.9 -1.05 -0.85 -1.1 -0.85 -1.1 -0.8 -1.1 -0.75 -1.05 Q-0.7 -1.1 -0.7 -1.2 L-0.7 -1.25 -0.65 -1.3 -0.6 -1.25 -0.65 -1.2 Q-0.6 -1.15 -0.6 -1.2 L-0.6 -1.25 -0.55 -1.25 M-1.4 -0.85 L-1.4 -0.85 M-0.45 -1.05 L-0.45 -1.15 -0.5 -1.15 Q-0.55 -1.1 -0.5 -1.1 L-0.45 -1.05" fill="#171d21" fill-rule="evenodd" stroke="none"/>
    <path d="M-0.9 -1.25 L-0.8 -1.35 -0.8 -1.35 -0.8 -1.25 -0.8 -1.25 -0.85 -1.2 -0.9 -1.25 M-0.85 -1.2 L-0.85 -1.2" fill="#11151a" fill-rule="evenodd" stroke="none"/>
    <path d="M-0.55 -1.5 L-0.55 -1.25 -0.6 -1.25 -0.6 -1.2 Q-0.6 -1.15 -0.65 -1.2 L-0.6 -1.25 -0.65 -1.3 -0.7 -1.25 -0.7 -1.2 -0.75 -1.2 -0.8 -1.25 -0.8 -1.35 -0.75 -1.4 -0.6 -1.4 Q-0.55 -1.45 -0.55 -1.5" fill="#263430" fill-rule="evenodd" stroke="none"/>
    <path d="M-0.8 -1.25 L-0.75 -1.2 -0.75 -1.05 -0.8 -1.1 -0.8 -1.25 -0.8 -1.25" fill="#6f918a" fill-rule="evenodd" stroke="none"/>
    <path d="M0.15 -2.2 L0.2 -2.2 Q0.2 -2.15 0.2 -2.05 L0.25 -1.95 0.3 -2.0 0.3 -1.9 0.2 -1.9 Q0.2 -2.0 0.1 -1.95 0.05 -1.9 0.05 -1.85 L0.05 -1.75 Q0.05 -1.7 0.15 -1.7 L0.05 -1.6 -0.15 -1.55 Q-0.15 -1.65 -0.1 -1.7 L0.0 -1.8 Q0.05 -1.8 0.0 -1.9 L-0.05 -2.0 0.1 -2.05 0.15 -2.2" fill="#1e2433" fill-rule="evenodd" stroke="none"/>
    <path d="M-1.55 -2.05 Q-1.55 -2.05 -1.5 -2.0 -1.4 -1.95 -1.4 -1.95 -1.4 -1.95 -1.35 -2.0 L-1.25 -2.0 -1.2 -1.9 -1.15 -1.8 -1.15 -1.75 -1.25 -1.8 -1.25 -1.85 -1.3 -1.9 -1.35 -1.95 -1.45 -1.95 -1.5 -1.95 -1.55 -1.95 Q-1.6 -2.05 -1.65 -1.95 L-1.7 -2.0 -1.65 -2.05 -1.55 -2.05 M-1.6 -1.9 L-1.55 -1.85 -1.55 -1.75 -1.45 -1.8 -1.35 -1.85 -1.35 -1.8 -1.45 -1.75 -1.45 -1.6 -1.55 -1.55 -1.6 -1.5 -1.6 -1.6 Q-1.55 -1.65 -1.55 -1.7 L-1.6 -1.8 -1.6 -1.9 -1.6 -1.9 M-1.65 -1.95 L-1.65 -1.95" fill="#363d53" fill-rule="evenodd" stroke="none"/>
    <path d="M-1.55 -1.95 L-1.5 -1.95 -1.45 -1.95 -1.4 -1.9 -1.35 -1.9 -1.45 -1.85 -1.55 -1.85 -1.6 -1.9 Q-1.6 -1.95 -1.55 -1.95" fill="#5b6982" fill-rule="evenodd" stroke="none"/>
    <path d="M-1.55 -1.85 L-1.45 -1.85 -1.35 -1.9 -1.4 -1.9 -1.45 -1.95 -1.35 -1.95 -1.3 -1.9 -1.25 -1.85 -1.25 -1.8 -1.3 -1.8 -1.35 -1.8 -1.35 -1.85 -1.45 -1.8 -1.55 -1.75 -1.55 -1.85" fill="#454f67" fill-rule="evenodd" stroke="none"/>
    <path d="M-1.55 -1.95 Q-1.6 -1.95 -1.6 -1.9 L-1.6 -1.9 -1.65 -1.95 Q-1.6 -2.05 -1.55 -1.95" fill="#495468" fill-rule="evenodd" stroke="none"/>
    <path d="M-1.65 -1.95 L-1.65 -1.95 -1.6 -1.9 -1.6 -1.8 -1.55 -1.7 Q-1.55 -1.65 -1.6 -1.6 L-1.6 -1.5 -1.65 -1.5 -1.7 -1.5 -1.7 -1.5 Q-1.8 -1.5 -1.8 -1.55 -1.85 -1.55 -1.8 -1.65 L-1.75 -1.65 -1.65 -1.7 -1.65 -1.95" fill="#2a2f41" fill-rule="evenodd" stroke="none"/>
    <path d="M-1.9 -1.75 L-1.9 -1.75 -1.85 -1.65 Q-1.8 -1.6 -1.85 -1.55 -1.85 -1.5 -1.8 -1.5 L-1.7 -1.5 -1.7 -1.5 -1.65 -1.5 Q-1.6 -1.45 -1.6 -1.35 L-1.7 -1.2 -1.7 -1.25 -1.8 -1.25 -1.9 -1.3 -2.0 -1.3 -2.0 -1.35 -1.95 -1.4 -2.0 -1.5 -2.0 -1.55 -1.95 -1.65 -1.9 -1.75" fill="#161727" fill-rule="evenodd" stroke="none"/>
    <path d="M-1.7 -1.15 L-1.7 -1.2 -1.6 -1.35 Q-1.6 -1.45 -1.65 -1.5 L-1.6 -1.5 -1.55 -1.55 -1.45 -1.6 Q-1.45 -1.6 -1.4 -1.65 L-1.35 -1.7 Q-1.3 -1.65 -1.3 -1.6 L-1.3 -1.5 -1.35 -1.5 Q-1.4 -1.5 -1.45 -1.55 L-1.4 -1.4 -1.35 -1.4 -1.3 -1.35 -1.25 -1.35 -1.2 -1.35 -1.15 -1.35 -1.2 -1.3 -1.25 -1.25 -1.15 -1.25 -1.1 -1.15 -1.2 -1.15 -1.3 -1.15 -1.4 -1.05 -1.45 -1.05 -1.45 -1.0 -1.55 -0.95 -1.6 -0.85 -1.6 -0.95 Q-1.6 -1.05 -1.65 -1.0 L-1.65 -1.1 -1.7 -1.15" fill="#1d2629" fill-rule="evenodd" stroke="none"/>
    <path d="M-1.25 -1.8 L-1.15 -1.75 -1.15 -1.7 -1.25 -1.7 -1.35 -1.7 -1.4 -1.7 -1.35 -1.7 -1.4 -1.65 Q-1.45 -1.6 -1.45 -1.6 L-1.45 -1.75 -1.35 -1.8 -1.3 -1.8 -1.25 -1.8" fill="#232837" fill-rule="evenodd" stroke="none"/>
    <path d="M-1.0 -1.55 L-1.1 -1.5 -1.15 -1.45 -1.2 -1.4 -1.2 -1.35 -1.25 -1.35 -1.3 -1.35 -1.35 -1.4 -1.4 -1.4 -1.45 -1.55 Q-1.4 -1.5 -1.35 -1.5 L-1.3 -1.5 -1.3 -1.6 Q-1.3 -1.65 -1.35 -1.7 L-1.4 -1.7 -1.35 -1.7 -1.25 -1.7 -1.15 -1.7 -1.1 -1.6 -1.0 -1.55" fill="#2a3b33" fill-rule="evenodd" stroke="none"/>
    <path d="M-1.2 -1.35 L-1.2 -1.4 -1.15 -1.4 -1.15 -1.35 -1.2 -1.35" fill="#678780" fill-rule="evenodd" stroke="none"/>
    <path d="M-0.5 -0.65 L-0.6 -0.7 -0.65 -0.55 -0.7 -0.4 -0.7 -0.5 -0.8 -0.45 -0.85 -0.45 -0.85 -0.5 -0.8 -0.6 -0.75 -0.7 -0.65 -0.75 -0.7 -0.85 -0.85 -0.8 -0.85 -0.85 -0.9 -0.85 -0.9 -0.9 -0.95 -0.9 -1.0 -0.85 Q-1.05 -0.85 -1.05 -0.9 L-1.15 -0.95 -1.15 -1.05 -1.05 -1.0 Q-1.05 -1.0 -1.0 -1.05 L-1.0 -1.0 -0.95 -0.9 -0.9 -0.95 -0.85 -1.0 -0.8 -0.95 Q-0.8 -0.95 -0.75 -1.0 L-0.8 -0.9 -0.65 -0.9 -0.55 -0.85 Q-0.5 -0.85 -0.45 -0.8 L-0.45 -0.65 -0.5 -0.65" fill="#293734" fill-rule="evenodd" stroke="none"/>
    <path d="M-1.25 -1.0 L-1.2 -1.1 -1.15 -1.1 -1.15 -1.05 -1.15 -0.95 -1.15 -0.95 -1.15 -0.6 -1.1 -0.6 -1.05 -0.6 -1.05 -0.55 -1.1 -0.5 -1.2 -0.55 Q-1.2 -0.6 -1.3 -0.6 -1.25 -0.65 -1.25 -0.7 L-1.2 -0.85 -1.2 -0.95 -1.25 -1.0" fill="#3f514e" fill-rule="evenodd" stroke="none"/>
    <path d="M-1.15 -0.95 L-1.05 -0.9 Q-1.05 -0.85 -1.0 -0.85 L-0.95 -0.9 -0.9 -0.9 -1.0 -0.7 -1.05 -0.7 -1.1 -0.85 -1.15 -0.95 -1.15 -0.95" fill="#151a1e" fill-rule="evenodd" stroke="none"/>
    <path d="M-1.3 -0.9 L-1.25 -1.0 -1.2 -0.95 -1.2 -0.85 -1.25 -0.7 Q-1.25 -0.65 -1.3 -0.6 L-1.3 -0.55 Q-1.35 -0.55 -1.35 -0.55 L-1.35 -0.6 -1.3 -0.75 -1.3 -0.9" fill="#5b7864" fill-rule="evenodd" stroke="none"/>
    <path d="M-1.8 -0.45 L-1.85 -0.45 -1.85 -0.5 -1.85 -0.7 -1.8 -0.85 -1.7 -0.85 -1.6 -0.8 -1.55 -0.85 -1.4 -0.85 -1.4 -0.85 Q-1.35 -0.7 -1.45 -0.55 L-1.5 -0.55 -1.65 -0.55 -1.65 -0.55 -1.7 -0.55 -1.75 -0.5 -1.8 -0.45" fill="#283a2f" fill-rule="evenodd" stroke="none"/>
    <path d="M-1.4 -0.85 L-1.3 -0.9 -1.3 -0.75 -1.35 -0.6 Q-1.35 -0.65 -1.4 -0.65 L-1.45 -0.55 Q-1.35 -0.7 -1.4 -0.85" fill="#435752" fill-rule="evenodd" stroke="none"/>
    <path d="M-1.15 -0.95 L-1.1 -0.85 -1.05 -0.7 -1.05 -0.6 -1.1 -0.6 -1.15 -0.6 -1.15 -0.95" fill="#556f5e" fill-rule="evenodd" stroke="none"/>
    <path d="M-1.05 -0.7 L-1.0 -0.7 -0.95 -0.55 -1.0 -0.5 -1.05 -0.6 -1.05 -0.7" fill="#364546" fill-rule="evenodd" stroke="none"/>
    <path d="M-1.8 -0.85 L-1.75 -1.1 -1.7 -1.15 -1.65 -1.1 -1.65 -1.0 Q-1.6 -1.05 -1.6 -0.95 L-1.6 -0.85 -1.55 -0.95 -1.45 -1.0 -1.4 -0.85 -1.55 -0.85 -1.6 -0.8 -1.7 -0.85 -1.8 -0.85" fill="#23312b" fill-rule="evenodd" stroke="none"/>
    <path d="M-1.65 -0.4 L-1.7 -0.45 -1.8 -0.45 -1.75 -0.5 -1.7 -0.55 -1.65 -0.55 -1.65 -0.55 -1.5 -0.55 -1.5 -0.5 -1.4 -0.5 -1.35 -0.55 -1.3 -0.5 -1.25 -0.4 -1.2 -0.35 -1.35 -0.4 Q-1.45 -0.4 -1.5 -0.45 L-1.55 -0.45 -1.55 -0.35 -1.65 -0.4" fill="#1d252a" fill-rule="evenodd" stroke="none"/>
    <path d="M-1.55 -0.35 L-1.55 -0.45 -1.5 -0.45 Q-1.45 -0.4 -1.35 -0.4 L-1.2 -0.35 -1.15 -0.35 -1.1 -0.4 -1.1 -0.2 -1.15 -0.25 -1.15 -0.3 -1.2 -0.25 -1.25 -0.2 -1.5 -0.3 -1.55 -0.35" fill="#334640" fill-rule="evenodd" stroke="none"/>
    <path d="M-1.8 -0.35 L-1.85 -0.25 -2.0 -0.2 Q-2.05 -0.25 -2.0 -0.35 L-2.0 -0.45 -1.85 -0.4 -1.8 -0.35" fill="#18192f" fill-rule="evenodd" stroke="none"/>
    <path d="M-2.2 0.9 L-2.2 0.65 -2.15 0.6 -1.95 0.55 -1.8 0.45 -1.75 0.4 -1.7 0.25 -1.65 0.2 Q-1.6 0.15 -1.6 0.1 L-1.65 0.0 -1.65 -0.1 Q-1.6 -0.1 -1.55 -0.15 -1.5 -0.2 -1.5 -0.25 L-1.4 -0.15 -1.35 -0.05 -1.2 0.1 -1.05 0.25 -1.1 0.25 -1.15 0.25 -1.15 0.35 -1.25 0.4 -1.35 0.45 Q-1.4 0.45 -1.5 0.55 L-1.6 0.65 -1.65 0.65 -1.8 0.65 Q-1.9 0.65 -1.9 0.75 L-2.0 0.85 -2.0 0.9 -2.05 0.95 -2.1 0.95 -2.2 0.9" fill="#121227" fill-rule="evenodd" stroke="none"/>
    <path d="M-1.2 -0.55 L-1.1 -0.5 -1.05 -0.55 -1.1 -0.45 -1.15 -0.4 -1.2 -0.45 -1.2 -0.55" fill="#313e42" fill-rule="evenodd" stroke="none"/>
    <path d="M-1.3 -0.55 L-1.3 -0.6 Q-1.2 -0.6 -1.2 -0.55 L-1.2 -0.45 -1.15 -0.4 -1.1 -0.45 -1.05 -0.55 -1.05 -0.6 -1.0 -0.5 -0.95 -0.55 -0.9 -0.5 -0.9 -0.4 Q-0.9 -0.35 -0.85 -0.4 L-0.85 -0.35 -0.9 -0.3 -1.0 -0.35 -1.05 -0.4 Q-1.05 -0.45 -1.1 -0.45 L-1.1 -0.4 -1.15 -0.35 -1.2 -0.35 -1.25 -0.4 -1.3 -0.5 -1.35 -0.55 -1.3 -0.55 M-0.95 -0.55 L-0.95 -0.55" fill="#263034" fill-rule="evenodd" stroke="none"/>
    <path d="M-0.8 -0.2 L-0.7 -0.1 -0.7 -0.05 Q-0.75 -0.05 -0.8 -0.15 -0.85 -0.25 -0.9 -0.2 L-0.95 -0.15 Q-1.0 -0.1 -1.05 -0.1 -1.15 -0.15 -1.1 -0.2 L-1.1 -0.4 -1.1 -0.45 Q-1.05 -0.45 -1.05 -0.4 L-1.0 -0.35 -0.9 -0.3 -0.85 -0.25 -0.8 -0.2" fill="#3c5448" fill-rule="evenodd" stroke="none"/>
    <path d="M-1.35 -0.6 L-1.35 -0.55 Q-1.35 -0.55 -1.3 -0.55 L-1.35 -0.55 -1.4 -0.5 -1.5 -0.5 -1.5 -0.55 -1.45 -0.55 -1.4 -0.65 Q-1.35 -0.65 -1.35 -0.6" fill="#32413f" fill-rule="evenodd" stroke="none"/>
    <path d="M-1.5 -0.3 L-1.25 -0.2 -1.2 -0.25 -1.15 -0.3 -1.15 -0.25 -1.1 -0.2 Q-1.15 -0.15 -1.05 -0.1 -1.0 -0.1 -0.95 -0.15 L-0.85 -0.05 -0.9 -0.05 -0.9 0.05 -0.8 0.15 -0.8 0.25 -0.75 0.4 -0.9 0.4 -1.0 0.3 -0.9 0.3 Q-0.9 0.25 -0.95 0.25 L-1.0 0.15 -1.1 0.0 -1.3 -0.15 -1.35 -0.05 -1.4 -0.15 -1.5 -0.25 -1.5 -0.3" fill="#2d3e3b" fill-rule="evenodd" stroke="none"/>
    <path d="M-1.35 -0.05 L-1.3 -0.15 -1.1 0.0 -1.0 0.15 -0.95 0.25 Q-0.9 0.25 -0.9 0.3 L-1.0 0.3 -1.05 0.25 -1.2 0.1 -1.35 -0.05" fill="#374949" fill-rule="evenodd" stroke="none"/>
    <path d="M-0.4 -1.1 L-0.4 -1.15 -0.35 -1.15 -0.25 -1.05 Q-0.15 -0.95 -0.1 -1.0 L-0.05 -0.95 -0.05 -0.8 Q-0.15 -0.8 -0.2 -0.85 L-0.3 -1.0 -0.35 -0.95 -0.35 -1.0 -0.4 -1.05 -0.4 -1.1" fill="#2a3837" fill-rule="evenodd" stroke="none"/>
    <path d="M-0.35 -1.15 L-0.2 -1.2 -0.1 -1.2 -0.05 -1.2 0.0 -1.25 0.0 -1.35 0.1 -1.3 Q0.2 -1.25 0.2 -1.25 L0.25 -1.3 0.3 -1.35 0.4 -1.35 Q0.45 -1.3 0.5 -1.35 L0.7 -1.45 0.9 -1.5 0.9 -1.5 Q0.75 -1.2 0.55 -1.2 L0.45 -1.2 0.45 -1.15 Q0.45 -1.15 0.5 -1.15 L0.5 -1.05 0.55 -1.0 0.6 -1.0 0.65 -1.0 0.7 -0.9 0.85 -0.95 1.0 -0.95 0.95 -0.9 0.9 -0.9 0.8 -0.8 0.6 -0.85 0.4 -0.9 0.35 -0.9 0.3 -0.9 0.35 -0.85 0.4 -0.8 Q0.35 -0.8 0.35 -0.8 L0.4 -0.7 Q0.35 -0.7 0.4 -0.65 L0.45 -0.65 0.5 -0.75 0.55 -0.8 0.6 -0.75 0.55 -0.7 Q0.55 -0.65 0.6 -0.7 L0.65 -0.65 0.5 -0.65 0.4 -0.6 Q0.35 -0.6 0.35 -0.65 L0.35 -0.55 0.2 -0.5 Q0.1 -0.45 0.05 -0.5 L0.05 -0.6 0.15 -0.55 Q0.2 -0.55 0.25 -0.6 L0.25 -0.75 0.2 -0.7 0.2 -0.75 0.2 -0.8 Q0.25 -0.8 0.25 -0.85 L0.15 -0.9 0.15 -0.9 -0.1 -1.0 Q-0.15 -0.95 -0.25 -1.05 L-0.35 -1.15 M0.6 -0.7 L0.6 -0.7 M0.2 -0.7 L0.2 -0.7" fill="#141825" fill-rule="evenodd" stroke="none"/>
    <path d="M-0.45 -1.05 L-0.5 -1.1 Q-0.55 -1.1 -0.5 -1.15 L-0.45 -1.15 -0.45 -1.05" fill="#63867f" fill-rule="evenodd" stroke="none"/>
    <path d="M-0.3 -0.65 L-0.4 -0.65 -0.4 -0.75 -0.35 -0.85 -0.3 -0.85 -0.3 -0.8 -0.3 -0.7 -0.3 -0.65 -0.3 -0.65 M-0.3 -0.8 L-0.3 -0.8" fill="#2d3c39" fill-rule="evenodd" stroke="none"/>
    <path d="M-0.3 -0.8 L-0.2 -0.8 -0.15 -0.75 -0.2 -0.75 -0.3 -0.8 -0.3 -0.8" fill="#405755" fill-rule="evenodd" stroke="none"/>
    <path d="M0.5 -0.65 L0.5 -0.6 0.4 -0.55 0.35 -0.5 0.3 -0.5 0.25 -0.45 0.25 -0.4 0.3 -0.35 0.4 -0.35 Q0.4 -0.3 0.5 -0.3 L0.6 -0.3 0.65 -0.25 0.6 -0.2 0.35 -0.2 0.3 -0.2 0.25 -0.15 0.2 -0.15 0.3 -0.3 0.05 -0.4 -0.25 -0.4 -0.55 -0.4 -0.6 -0.35 Q-0.65 -0.3 -0.7 -0.3 L-0.7 -0.4 -0.65 -0.55 -0.6 -0.7 -0.5 -0.65 -0.45 -0.65 -0.4 -0.65 -0.3 -0.65 -0.25 -0.65 -0.1 -0.65 0.0 -0.65 0.05 -0.6 0.05 -0.5 Q0.1 -0.45 0.2 -0.5 L0.35 -0.55 0.35 -0.65 Q0.35 -0.6 0.4 -0.6 L0.5 -0.65 M0.05 -0.6 L0.05 -0.6 M-0.05 0.65 L-0.05 0.6 0.0 0.55 0.05 0.5 0.05 0.4 0.0 0.45 -0.05 0.45 Q-0.05 0.35 0.05 0.25 L0.2 0.1 0.1 0.0 Q0.05 0.0 0.05 -0.1 0.1 -0.1 0.2 -0.15 L0.15 -0.1 0.1 -0.05 Q0.1 0.0 0.2 0.0 L0.35 0.1 0.25 0.2 Q0.2 0.3 0.2 0.35 L0.15 0.45 0.1 0.5 0.05 0.6 0.0 0.65 -0.05 0.7 -0.05 0.65" fill="#191a31" fill-rule="evenodd" stroke="none"/>
    <path d="M-0.3 -0.7 L-0.2 -0.7 -0.15 -0.7 -0.3 -0.65 -0.3 -0.65 -0.3 -0.7" fill="#516f68" fill-rule="evenodd" stroke="none"/>
    <path d="M0.1 -0.7 L0.05 -0.6 0.0 -0.65 -0.1 -0.65 -0.25 -0.65 -0.3 -0.65 -0.3 -0.65 -0.15 -0.7 -0.2 -0.7 -0.3 -0.7 -0.3 -0.8 -0.2 -0.75 -0.15 -0.75 -0.05 -0.75 0.1 -0.7 M-0.3 -0.65 L-0.3 -0.65" fill="#668b85" fill-rule="evenodd" stroke="none"/>
    <path d="M0.0 -0.65 L-0.1 -0.65 -0.25 -0.65 -0.1 -0.65 0.0 -0.65" fill="#42595a" fill-rule="evenodd" stroke="none"/>
    <path d="M-0.75 -1.2 L-0.7 -1.2 Q-0.7 -1.1 -0.75 -1.05 L-0.75 -1.2" fill="#566f6e" fill-rule="evenodd" stroke="none"/>
    <path d="M-0.85 -1.2 L-0.85 -1.2 -0.85 -1.1 -0.85 -1.1 -0.9 -1.05 -0.9 -1.2 -0.85 -1.2" fill="#263037" fill-rule="evenodd" stroke="none"/>
    <path d="M-0.85 -1.1 L-0.85 -1.2 -0.8 -1.25 -0.8 -1.1 -0.85 -1.1" fill="#465b5a" fill-rule="evenodd" stroke="none"/>
    <path d="M-1.0 -1.05 L-0.95 -1.05 -0.9 -1.0 -1.0 -1.0 -1.0 -1.05" fill="#648681" fill-rule="evenodd" stroke="none"/>
    <path d="M-0.9 -0.85 L-0.85 -0.85 -0.85 -0.8 -0.8 -0.8 Q-0.75 -0.75 -0.75 -0.7 L-0.8 -0.6 Q-0.8 -0.65 -0.85 -0.65 L-0.9 -0.5 -0.95 -0.55 -0.9 -0.85" fill="#344344" fill-rule="evenodd" stroke="none"/>
    <path d="M-0.9 -0.9 L-0.9 -0.85 -0.95 -0.55 -0.95 -0.55 -1.0 -0.7 -0.9 -0.9" fill="#4c6358" fill-rule="evenodd" stroke="none"/>
    <path d="M-0.85 -0.8 L-0.7 -0.85 -0.65 -0.75 -0.75 -0.7 Q-0.75 -0.75 -0.8 -0.8 L-0.85 -0.8" fill="#14191f" fill-rule="evenodd" stroke="none"/>
    <path d="M-0.7 -0.4 L-0.7 -0.3 -0.75 -0.25 -0.8 -0.2 -0.85 -0.25 -0.9 -0.3 -0.85 -0.35 -0.85 -0.4 -0.85 -0.45 -0.8 -0.45 -0.7 -0.5 -0.7 -0.4" fill="#1f2a2a" fill-rule="evenodd" stroke="none"/>
    <path d="M-0.7 -0.3 Q-0.65 -0.3 -0.6 -0.35 L-0.55 -0.4 -0.25 -0.4 0.05 -0.4 0.3 -0.3 0.2 -0.15 Q0.1 -0.1 0.05 -0.1 0.05 0.0 0.1 0.0 L0.2 0.1 0.05 0.25 Q-0.05 0.35 -0.05 0.45 L0.0 0.45 0.05 0.4 0.05 0.5 0.0 0.55 -0.05 0.6 -0.05 0.65 Q-0.05 0.65 -0.15 0.6 L-0.2 0.5 -0.25 0.5 -0.3 0.45 -0.3 0.4 -0.25 0.4 -0.25 0.4 -0.2 0.35 -0.15 0.3 Q-0.05 0.3 -0.1 0.2 L-0.05 0.15 0.05 0.1 0.0 0.0 0.0 -0.1 -0.05 -0.15 Q-0.1 -0.15 -0.2 -0.2 -0.25 -0.3 -0.35 -0.25 L-0.45 -0.25 Q-0.55 -0.2 -0.55 -0.2 L-0.65 -0.2 -0.75 -0.2 -0.7 -0.1 -0.8 -0.2 -0.75 -0.25 -0.7 -0.3" fill="#121226" fill-rule="evenodd" stroke="none"/>
    <path d="M-0.8 -0.6 L-0.85 -0.5 -0.85 -0.45 -0.85 -0.4 Q-0.9 -0.35 -0.9 -0.4 L-0.9 -0.5 -0.85 -0.65 Q-0.8 -0.65 -0.8 -0.6" fill="#485e59" fill-rule="evenodd" stroke="none"/>
    <path d="M-0.85 -0.05 L-0.95 -0.15 -0.9 -0.2 Q-0.85 -0.25 -0.8 -0.15 -0.75 -0.05 -0.7 -0.05 L-0.65 -0.05 -0.65 0.1 -0.75 0.0 -0.85 -0.05" fill="#48615c" fill-rule="evenodd" stroke="none"/>
    <path d="M-0.9 -0.05 L-0.85 -0.05 -0.75 0.0 -0.65 0.1 -0.65 -0.05 -0.6 0.05 -0.6 0.1 -0.7 0.1 -0.8 0.1 -0.9 -0.05" fill="#344842" fill-rule="evenodd" stroke="none"/>
    <path d="M-0.7 -0.1 L-0.75 -0.2 -0.65 -0.2 -0.55 -0.2 Q-0.55 -0.2 -0.45 -0.25 L-0.35 -0.25 Q-0.25 -0.3 -0.2 -0.2 -0.1 -0.15 -0.05 -0.15 L0.0 -0.1 0.0 0.0 0.05 0.1 -0.05 0.15 -0.1 0.2 Q-0.05 0.3 -0.15 0.3 L-0.2 0.35 -0.25 0.4 -0.25 0.4 -0.3 0.4 Q-0.4 0.2 -0.55 0.1 L-0.6 0.05 -0.65 -0.05 -0.7 -0.05 -0.7 -0.1" fill="#0c0c1d" fill-rule="evenodd" stroke="none"/>
    <path d="M1.6 -2.1 L1.6 -2.05 1.45 -2.05 1.35 -2.05 1.3 -2.1 1.3 -2.2 1.4 -2.2 1.6 -2.1" fill="#29323f" fill-rule="evenodd" stroke="none"/>
    <path d="M1.3 -2.2 L1.3 -2.1 1.35 -2.05 1.45 -2.05 1.6 -2.05 1.6 -2.1 1.65 -2.05 1.6 -2.0 Q1.55 -2.0 1.5 -1.95 L1.5 -2.0 1.45 -2.0 1.2 -2.1 1.15 -2.05 1.0 -2.1 1.1 -2.2 1.3 -2.2" fill="#354150" fill-rule="evenodd" stroke="none"/>
    <path d="M1.65 -1.85 L1.6 -1.85 1.55 -1.9 1.55 -1.95 1.6 -2.0 1.65 -2.0 1.85 -2.1 Q1.9 -2.15 2.0 -2.1 L2.0 -1.95 1.9 -1.85 1.75 -1.8 1.65 -1.85" fill="#748d9e" fill-rule="evenodd" stroke="none"/>
    <path d="M1.5 -1.95 Q1.55 -2.0 1.6 -2.0 L1.55 -1.95 1.55 -1.9 1.6 -1.85 1.65 -1.85 1.6 -1.85 1.55 -1.8 1.5 -1.8 1.5 -1.75 1.45 -1.75 1.3 -1.75 Q1.25 -1.75 1.2 -1.8 L1.2 -1.95 1.2 -2.0 1.2 -2.0 1.2 -2.05 1.35 -2.0 Q1.45 -1.95 1.5 -1.95 M1.2 -1.8 L1.3 -1.8 1.4 -1.9 1.2 -1.95 1.2 -1.8" fill="#4d5e76" fill-rule="evenodd" stroke="none"/>
    <path d="M1.6 -2.0 L1.65 -2.05 1.6 -2.1 1.6 -2.2 1.85 -2.2 Q1.85 -2.15 1.75 -2.1 1.65 -2.1 1.65 -2.0 L1.6 -2.0" fill="#4d5d6c" fill-rule="evenodd" stroke="none"/>
    <path d="M2.0 -2.1 Q1.9 -2.15 1.85 -2.1 L1.65 -2.0 Q1.65 -2.1 1.75 -2.1 1.85 -2.15 1.85 -2.2 L2.15 -2.2 2.0 -2.1 2.0 -2.1" fill="#5d707f" fill-rule="evenodd" stroke="none"/>
    <path d="M2.0 -1.95 L2.0 -2.1 Q2.05 -2.05 2.0 -1.95 M2.0 -2.1 L2.0 -2.1" fill="#3c4755" fill-rule="evenodd" stroke="none"/>
    <path d="M1.9 -1.85 L2.0 -1.95 Q2.05 -2.05 2.0 -2.1 L2.15 -2.2 2.2 -2.2 2.2 -1.65 2.05 -1.55 2.05 -1.45 1.95 -1.4 1.95 -1.3 Q1.95 -1.3 2.0 -1.3 L1.95 -1.25 1.9 -1.3 Q1.85 -1.35 1.9 -1.4 1.9 -1.45 2.0 -1.45 L1.95 -1.55 2.0 -1.55 2.05 -1.6 1.95 -1.7 1.9 -1.75 1.8 -1.7 1.7 -1.75 1.8 -1.75 1.85 -1.8 1.9 -1.85" fill="#191c2a" fill-rule="evenodd" stroke="none"/>
    <path d="M1.6 -2.1 L1.4 -2.2 1.6 -2.2 1.6 -2.1" fill="#384552" fill-rule="evenodd" stroke="none"/>
    <path d="M1.2 -2.0 L1.2 -1.95 Q1.15 -1.9 1.1 -1.85 1.1 -1.8 1.15 -1.8 L1.2 -1.75 1.05 -1.75 Q1.05 -1.9 1.2 -2.0" fill="#2f3a49" fill-rule="evenodd" stroke="none"/>
    <path d="M1.0 -2.1 L1.15 -2.05 1.2 -2.0 Q1.05 -1.9 1.05 -1.75 L1.0 -1.9 0.9 -2.05 0.8 -2.05 0.9 -2.05 0.95 -2.1 1.0 -2.1 M1.2 -2.0 L1.2 -2.0" fill="#222836" fill-rule="evenodd" stroke="none"/>
    <path d="M1.15 -2.05 L1.2 -2.1 1.45 -2.0 1.5 -2.0 1.5 -1.95 Q1.45 -1.95 1.35 -2.0 L1.2 -2.05 1.2 -2.0 1.15 -2.05" fill="#415060" fill-rule="evenodd" stroke="none"/>
    <path d="M1.2 -1.8 L1.2 -1.95 1.4 -1.9 1.3 -1.8 1.2 -1.8" fill="#678394" fill-rule="evenodd" stroke="none"/>
    <path d="M1.1 -2.2 L1.0 -2.1 0.95 -2.1 0.65 -2.1 0.7 -2.15 0.7 -2.2 1.1 -2.2" fill="#435363" fill-rule="evenodd" stroke="none"/>
    <path d="M1.45 -1.75 L1.5 -1.75 1.5 -1.7 1.45 -1.7 1.4 -1.7 1.45 -1.75" fill="#293043" fill-rule="evenodd" stroke="none"/>
    <path d="M1.5 -1.75 L1.5 -1.8 1.6 -1.75 1.7 -1.75 1.8 -1.7 1.9 -1.75 1.95 -1.7 2.05 -1.6 2.0 -1.55 1.95 -1.55 2.0 -1.45 Q1.9 -1.45 1.9 -1.4 1.85 -1.35 1.9 -1.3 L1.85 -1.3 Q1.8 -1.35 1.8 -1.35 L1.85 -1.5 Q1.8 -1.55 1.85 -1.6 L1.85 -1.65 1.55 -1.75 1.5 -1.7 1.5 -1.75" fill="#141624" fill-rule="evenodd" stroke="none"/>
    <path d="M1.2 -1.75 L1.15 -1.8 Q1.1 -1.8 1.1 -1.85 1.15 -1.9 1.2 -1.95 L1.2 -1.8 Q1.25 -1.75 1.3 -1.75 L1.45 -1.75 1.4 -1.7 1.35 -1.7 1.3 -1.65 1.25 -1.7 1.2 -1.75 1.2 -1.75" fill="#384458" fill-rule="evenodd" stroke="none"/>
    <path d="M1.2 -1.75 L1.25 -1.7 1.3 -1.65 1.35 -1.7 1.4 -1.7 1.45 -1.7 1.5 -1.7 Q1.5 -1.65 1.4 -1.65 L1.25 -1.6 Q1.25 -1.6 1.2 -1.65 L1.1 -1.7 1.05 -1.6 1.0 -1.55 0.9 -1.6 0.8 -1.7 0.8 -1.85 Q0.8 -1.9 0.85 -1.95 L0.8 -2.0 0.75 -2.0 0.8 -2.05 0.9 -2.05 0.95 -2.0 0.95 -1.9 0.9 -1.9 Q0.9 -1.8 0.9 -1.75 0.95 -1.7 1.05 -1.7 L1.15 -1.7 1.2 -1.75 M0.75 -2.0 L0.75 -2.0" fill="#151725" fill-rule="evenodd" stroke="none"/>
    <path d="M1.05 -1.75 L1.2 -1.75 1.2 -1.75 1.15 -1.7 1.05 -1.7 Q0.95 -1.7 0.9 -1.75 0.9 -1.8 0.9 -1.9 L0.95 -1.9 0.95 -2.0 0.9 -2.05 1.0 -1.9 1.05 -1.75" fill="#1a1e2c" fill-rule="evenodd" stroke="none"/>
    <path d="M1.1 -1.05 L0.9 -1.0 0.7 -1.05 0.65 -1.15 0.7 -1.2 0.8 -1.25 Q0.9 -1.45 1.15 -1.55 L1.35 -1.55 1.5 -1.65 1.7 -1.55 Q1.75 -1.45 1.75 -1.35 1.75 -1.25 1.85 -1.25 L1.95 -1.2 1.95 -1.1 1.9 -1.0 1.75 -0.95 1.6 -0.9 Q1.45 -0.9 1.45 -0.85 L1.4 -0.85 1.35 -0.85 1.35 -1.0 1.25 -1.1 1.15 -1.1 1.1 -1.05" fill="#0a0a18" fill-rule="evenodd" stroke="none"/>
    <path d="M1.5 -1.8 L1.55 -1.8 1.75 -1.8 1.85 -1.8 1.8 -1.75 1.7 -1.75 1.6 -1.75 1.5 -1.8" fill="#282f3e" fill-rule="evenodd" stroke="none"/>
    <path d="M1.75 -1.8 L1.9 -1.85 1.85 -1.8 1.75 -1.8 1.75 -1.8" fill="#4f6070" fill-rule="evenodd" stroke="none"/>
    <path d="M1.65 -1.85 L1.75 -1.8 1.55 -1.8 1.6 -1.85 1.65 -1.85 M1.75 -1.8 L1.75 -1.8" fill="#394454" fill-rule="evenodd" stroke="none"/>
    <path d="M2.2 -1.65 L2.2 -1.3 2.1 -1.3 2.0 -1.3 Q1.95 -1.3 1.95 -1.3 L1.95 -1.4 2.05 -1.45 2.05 -1.55 2.2 -1.65" fill="#24293a" fill-rule="evenodd" stroke="none"/>
    <path d="M0.75 -2.0 L0.65 -1.95 0.55 -1.95 0.65 -2.0 0.75 -2.0" fill="#151726" fill-rule="evenodd" stroke="none"/>
    <path d="M0.35 -2.2 L0.7 -2.2 0.7 -2.15 0.65 -2.1 0.95 -2.1 0.9 -2.05 0.8 -2.05 0.75 -2.0 0.45 -2.0 0.3 -2.0 0.4 -2.05 0.45 -2.15 0.35 -2.2" fill="#2d3649" fill-rule="evenodd" stroke="none"/>
    <path d="M0.75 -2.0 L0.75 -2.0 0.75 -2.0 0.65 -2.0 0.55 -1.95 0.45 -1.9 0.45 -2.0 0.75 -2.0" fill="#212738" fill-rule="evenodd" stroke="none"/>
    <path d="M0.2 -2.2 L0.25 -2.2 0.3 -2.05 0.35 -2.05 0.35 -2.2 0.35 -2.2 0.45 -2.15 0.4 -2.05 0.3 -2.0 0.25 -1.95 0.2 -2.05 Q0.2 -2.15 0.2 -2.2" fill="#364257" fill-rule="evenodd" stroke="none"/>
    <path d="M0.2 -1.9 Q0.15 -1.85 0.15 -1.8 L0.15 -1.7 Q0.05 -1.7 0.05 -1.75 L0.05 -1.85 Q0.05 -1.9 0.1 -1.95 0.2 -2.0 0.2 -1.9" fill="#262d3e" fill-rule="evenodd" stroke="none"/>
    <path d="M0.25 -2.2 L0.35 -2.2 0.35 -2.05 0.3 -2.05 0.25 -2.2" fill="#50627b" fill-rule="evenodd" stroke="none"/>
    <path d="M0.6 -0.7 L0.6 -0.7 0.65 -0.7 0.7 -0.7 0.6 -0.7 M0.7 -0.7 L0.7 -0.7" fill="#8acb8d" fill-rule="evenodd" stroke="none"/>
    <path d="M0.7 -0.7 L0.65 -0.7 0.6 -0.7 Q0.55 -0.65 0.55 -0.7 L0.6 -0.75 0.7 -0.7" fill="#2f4d2d" fill-rule="evenodd" stroke="none"/>
    <path d="M0.7 -0.7 L0.7 -0.7 0.6 -0.75 0.55 -0.8 0.5 -0.75 0.45 -0.75 0.4 -0.7 0.35 -0.8 Q0.35 -0.8 0.4 -0.8 0.45 -0.8 0.45 -0.85 L0.4 -0.9 0.6 -0.85 0.65 -0.8 0.7 -0.7" fill="#497045" fill-rule="evenodd" stroke="none"/>
    <path d="M0.6 -0.7 L0.7 -0.7 0.65 -0.8 0.6 -0.85 0.8 -0.8 0.85 -0.75 0.85 -0.8 0.9 -0.8 0.95 -0.85 1.0 -0.8 1.05 -0.75 1.05 -0.8 1.2 -0.85 1.1 -0.8 1.1 -0.75 1.05 -0.75 1.05 -0.7 1.2 -0.55 1.1 -0.55 1.05 -0.45 1.0 -0.45 0.95 -0.5 0.9 -0.55 0.85 -0.45 0.8 -0.5 0.8 -0.7 0.75 -0.65 0.7 -0.65 0.65 -0.65 0.6 -0.7" fill="#bcfceb" fill-rule="evenodd" stroke="none"/>
    <path d="M0.7 -0.65 L0.75 -0.65 0.8 -0.7 0.8 -0.5 0.75 -0.5 0.75 -0.55 0.7 -0.6 0.7 -0.65" fill="#85c689" fill-rule="evenodd" stroke="none"/>
    <path d="M0.65 -0.65 L0.7 -0.65 0.7 -0.6 0.75 -0.55 0.65 -0.5 0.6 -0.5 0.5 -0.55 0.45 -0.55 0.5 -0.6 0.5 -0.65 0.65 -0.65" fill="#abe1e7" fill-rule="evenodd" stroke="none"/>
    <path d="M0.95 -0.85 L0.9 -0.8 0.85 -0.8 0.9 -0.9 1.0 -0.9 1.05 -0.9 0.95 -0.85" fill="#517e67" fill-rule="evenodd" stroke="none"/>
    <path d="M1.0 -0.95 L1.05 -0.95 1.0 -0.9 0.9 -0.9 0.95 -0.9 1.0 -0.95" fill="#1e3534" fill-rule="evenodd" stroke="none"/>
    <path d="M1.0 -0.8 L0.95 -0.85 1.05 -0.9 1.05 -0.85 1.0 -0.8" fill="#5d8298" fill-rule="evenodd" stroke="none"/>
    <path d="M0.8 -0.8 L0.9 -0.9 0.9 -0.9 0.85 -0.8 0.85 -0.75 0.8 -0.8" fill="#2d582a" fill-rule="evenodd" stroke="none"/>
    <path d="M0.15 -0.9 L0.25 -0.85 Q0.25 -0.8 0.2 -0.8 L0.15 -0.85 0.15 -0.9" fill="#425a58" fill-rule="evenodd" stroke="none"/>
    <path d="M0.15 -0.9 L0.15 -0.9 0.15 -0.85 0.1 -0.8 0.1 -0.8 0.15 -0.75 0.1 -0.7 -0.05 -0.75 0.05 -0.75 0.05 -0.85 0.15 -0.9" fill="#2a373a" fill-rule="evenodd" stroke="none"/>
    <path d="M0.2 -0.8 L0.2 -0.75 0.1 -0.8 0.15 -0.85 0.2 -0.8" fill="#6e948e" fill-rule="evenodd" stroke="none"/>
    <path d="M0.2 -0.75 L0.2 -0.7 0.15 -0.75 0.1 -0.8 0.1 -0.8 0.2 -0.75" fill="#486260" fill-rule="evenodd" stroke="none"/>
    <path d="M0.2 -0.7 L0.2 -0.7 0.2 -0.65 0.15 -0.55 0.05 -0.6 0.1 -0.7 0.15 -0.75 0.2 -0.7 M0.05 -0.6 L0.05 -0.6" fill="#80aba8" fill-rule="evenodd" stroke="none"/>
    <path d="M0.2 -0.7 L0.25 -0.75 0.25 -0.6 Q0.2 -0.55 0.15 -0.55 L0.2 -0.65 0.2 -0.7" fill="#5b7b77" fill-rule="evenodd" stroke="none"/>
    <path d="M0.4 -0.8 L0.35 -0.85 0.3 -0.9 0.35 -0.9 0.4 -0.9 0.45 -0.85 Q0.45 -0.8 0.4 -0.8" fill="#23322a" fill-rule="evenodd" stroke="none"/>
    <path d="M0.5 -0.75 L0.45 -0.65 0.4 -0.65 Q0.35 -0.7 0.4 -0.7 L0.45 -0.75 0.5 -0.75" fill="#304834" fill-rule="evenodd" stroke="none"/>
    <path d="M0.5 -0.6 L0.45 -0.55 0.45 -0.5 Q0.45 -0.45 0.4 -0.5 L0.35 -0.5 0.4 -0.55 0.5 -0.6" fill="#493ac7" fill-rule="evenodd" stroke="none"/>
    <path d="M0.45 -0.55 L0.5 -0.55 0.55 -0.45 0.5 -0.45 Q0.6 -0.4 0.55 -0.3 L0.45 -0.35 0.45 -0.4 0.4 -0.5 Q0.45 -0.45 0.45 -0.5 L0.45 -0.55" fill="#393583" fill-rule="evenodd" stroke="none"/>
    <path d="M0.35 -0.5 L0.4 -0.5 0.45 -0.4 0.45 -0.35 0.4 -0.35 0.35 -0.4 0.3 -0.5 0.35 -0.5" fill="#2e2b6a" fill-rule="evenodd" stroke="none"/>
    <path d="M0.45 -0.35 L0.55 -0.3 0.6 -0.35 0.7 -0.35 0.8 -0.3 0.8 -0.2 0.75 -0.15 0.55 -0.15 0.35 -0.15 0.35 -0.2 0.6 -0.2 0.65 -0.25 0.6 -0.3 0.5 -0.3 Q0.4 -0.3 0.4 -0.35 L0.45 -0.35 M0.75 -0.15 L0.75 -0.15 0.75 -0.15" fill="#21233f" fill-rule="evenodd" stroke="none"/>
    <path d="M0.4 -0.35 L0.3 -0.35 0.25 -0.4 0.25 -0.45 0.3 -0.5 0.35 -0.4 0.4 -0.35" fill="#222149" fill-rule="evenodd" stroke="none"/>
    <path d="M0.2 0.35 Q0.2 0.3 0.25 0.2 L0.35 0.1 0.2 0.0 Q0.1 0.0 0.1 -0.05 L0.15 -0.1 0.2 -0.15 0.15 -0.1 0.15 -0.05 0.2 -0.05 0.25 -0.1 0.3 0.0 Q0.35 0.05 0.4 0.05 L0.35 0.15 0.3 0.2 Q0.25 0.25 0.25 0.35 L0.25 0.4 0.2 0.35" fill="#1f203b" fill-rule="evenodd" stroke="none"/>
    <path d="M0.2 -0.15 L0.25 -0.15 0.3 -0.1 0.35 0.0 0.5 0.05 Q0.6 0.05 0.65 0.05 L0.65 0.1 0.6 0.15 Q0.75 0.25 0.8 0.2 L0.8 0.15 0.75 0.1 Q0.85 0.05 0.95 0.05 L1.1 0.05 1.2 -0.05 1.2 -0.1 1.15 -0.2 1.35 -0.1 1.15 0.1 1.05 0.1 Q0.95 0.1 0.9 0.15 L0.95 0.2 1.0 0.3 0.85 0.4 0.8 0.55 Q0.9 0.5 0.95 0.6 L0.85 0.7 0.8 0.75 0.65 0.8 0.45 0.75 0.4 0.75 0.35 0.75 Q0.25 0.7 0.3 0.6 L0.25 0.55 0.2 0.55 0.2 0.35 0.25 0.4 0.25 0.5 0.3 0.55 0.35 0.55 0.4 0.45 0.5 0.35 0.5 0.15 Q0.45 0.1 0.4 0.2 L0.35 0.25 Q0.35 0.25 0.3 0.3 L0.25 0.35 Q0.25 0.25 0.3 0.2 L0.35 0.15 0.4 0.05 Q0.35 0.05 0.3 0.0 L0.25 -0.1 0.2 -0.05 0.15 -0.05 0.15 -0.1 0.2 -0.15 M1.15 -0.2 L1.15 -0.2" fill="#252942" fill-rule="evenodd" stroke="none"/>
    <path d="M0.35 -0.15 L0.55 -0.15 0.75 -0.15 0.65 -0.1 0.65 -0.05 Q0.7 0.0 0.8 0.0 L0.95 -0.05 1.05 0.0 Q1.1 0.05 1.15 0.0 L1.15 -0.1 1.1 -0.15 1.15 -0.2 1.2 -0.1 1.2 -0.05 1.1 0.05 0.95 0.05 Q0.85 0.05 0.75 0.1 L0.8 0.15 0.8 0.2 Q0.75 0.25 0.6 0.15 L0.65 0.1 0.65 0.05 Q0.6 0.05 0.5 0.05 L0.35 0.0 0.3 -0.1 0.35 -0.1 0.35 -0.15" fill="#2a2e4e" fill-rule="evenodd" stroke="none"/>
    <path d="M0.35 -0.2 L0.35 -0.15 0.35 -0.1 0.3 -0.1 0.25 -0.15 0.3 -0.2 0.35 -0.2" fill="#333073" fill-rule="evenodd" stroke="none"/>
    <path d="M0.95 -0.5 L1.0 -0.45 1.05 -0.45 1.05 -0.4 1.05 -0.4 0.95 -0.45 0.9 -0.4 0.9 -0.45 0.95 -0.5" fill="#8ceb37" fill-rule="evenodd" stroke="none"/>
    <path d="M0.8 -0.5 L0.85 -0.45 0.9 -0.55 0.95 -0.5 0.9 -0.45 0.85 -0.4 0.8 -0.45 0.75 -0.5 0.8 -0.5" fill="#9ff083" fill-rule="evenodd" stroke="none"/>
    <path d="M0.8 -0.2 L0.8 -0.3 0.7 -0.35 0.7 -0.4 0.75 -0.4 0.8 -0.45 0.85 -0.4 0.9 -0.45 0.9 -0.4 0.95 -0.4 1.0 -0.4 1.1 -0.35 1.15 -0.3 1.15 -0.25 1.1 -0.25 Q1.15 -0.2 1.2 -0.25 L1.15 -0.2 1.1 -0.15 1.05 -0.2 1.0 -0.15 0.9 -0.2 0.8 -0.2 M1.15 -0.3 L1.15 -0.3 M1.15 -0.2 L1.15 -0.2" fill="#26353a" fill-rule="evenodd" stroke="none"/>
    <path d="M0.65 -0.5 L0.75 -0.55 0.75 -0.5 0.8 -0.45 0.75 -0.4 0.7 -0.45 0.65 -0.5 M0.75 -0.4 L0.75 -0.4" fill="#689294" fill-rule="evenodd" stroke="none"/>
    <path d="M1.0 -0.4 L0.95 -0.4 0.9 -0.4 0.95 -0.45 1.05 -0.4 1.0 -0.4" fill="#61ac29" fill-rule="evenodd" stroke="none"/>
    <path d="M0.5 -0.55 L0.6 -0.5 Q0.6 -0.45 0.6 -0.4 L0.7 -0.4 0.7 -0.35 0.6 -0.35 0.55 -0.3 Q0.6 -0.4 0.5 -0.45 L0.55 -0.45 0.5 -0.55" fill="#282c52" fill-rule="evenodd" stroke="none"/>
    <path d="M0.6 -0.5 L0.65 -0.5 0.7 -0.45 0.75 -0.4 0.7 -0.4 0.6 -0.4 Q0.6 -0.45 0.6 -0.5" fill="#424a8f" fill-rule="evenodd" stroke="none"/>
    <path d="M0.75 -0.15 L0.75 -0.15 0.8 -0.2 0.9 -0.2 1.0 -0.15 1.05 -0.15 1.05 -0.05 1.1 0.0 1.0 -0.05 0.95 -0.05 0.8 0.0 Q0.7 0.0 0.65 -0.05 L0.65 -0.1 0.75 -0.15 0.8 -0.1 Q0.85 -0.05 0.9 -0.05 L0.95 -0.05 1.0 -0.1 0.75 -0.15" fill="#393e64" fill-rule="evenodd" stroke="none"/>
    <path d="M0.75 -0.15 L0.75 -0.15 1.0 -0.1 0.95 -0.05 0.9 -0.05 Q0.85 -0.05 0.8 -0.1 L0.75 -0.15" fill="#424875" fill-rule="evenodd" stroke="none"/>
    <path d="M1.1 -0.15 L1.15 -0.1 1.15 0.0 Q1.1 0.05 1.05 0.0 L0.95 -0.05 1.0 -0.05 1.1 0.0 1.05 -0.05 1.05 -0.15 1.0 -0.15 1.05 -0.2 1.1 -0.15" fill="#303558" fill-rule="evenodd" stroke="none"/>
    <path d="M2.2 -0.85 L2.2 -0.65 2.05 -0.65 Q2.0 -0.5 2.0 -0.3 L1.95 -0.25 1.95 -0.25 1.9 -0.15 2.0 -0.15 2.0 -0.05 1.9 -0.05 1.85 -0.1 1.9 -0.25 Q1.95 -0.35 1.95 -0.4 L1.8 -0.45 1.85 -0.45 1.85 -0.5 Q1.85 -0.55 1.95 -0.6 2.05 -0.65 2.05 -0.7 2.0 -0.7 1.9 -0.8 L1.7 -0.85 1.7 -0.85 Q1.75 -0.9 1.8 -0.9 L1.9 -0.85 1.95 -0.85 2.0 -0.85 2.1 -0.85 2.2 -0.85" fill="#23224b" fill-rule="evenodd" stroke="none"/>
    <path d="M1.7 -0.85 L1.7 -0.85 Q1.75 -0.75 1.8 -0.75 1.85 -0.7 1.95 -0.7 L1.95 -0.65 1.85 -0.6 1.9 -0.65 1.8 -0.7 1.7 -0.75 Q1.65 -0.8 1.6 -0.8 L1.7 -0.85 1.7 -0.85 M1.6 -0.8 L1.6 -0.8 1.6 -0.8 M1.8 -0.7 L1.8 -0.7" fill="#2f277e" fill-rule="evenodd" stroke="none"/>
    <path d="M2.2 -1.0 L2.2 -0.95 2.0 -0.9 Q1.95 -0.9 1.9 -0.85 L1.8 -0.9 Q1.75 -0.9 1.7 -0.85 L1.7 -0.85 1.5 -0.85 1.4 -0.8 1.35 -0.85 1.4 -0.85 1.45 -0.85 Q1.45 -0.9 1.6 -0.9 L1.75 -0.95 1.85 -0.9 1.95 -0.9 Q2.0 -1.0 2.2 -1.0" fill="#131429" fill-rule="evenodd" stroke="none"/>
    <path d="M1.6 -0.8 L1.6 -0.8 1.55 -0.75 1.5 -0.7 1.5 -0.65 1.45 -0.75 1.4 -0.8 1.5 -0.85 1.6 -0.8" fill="#3d4b8e" fill-rule="evenodd" stroke="none"/>
    <path d="M1.6 -0.8 L1.6 -0.8 1.65 -0.75 1.6 -0.7 1.5 -0.7 1.55 -0.75 1.6 -0.8" fill="#5750f1" fill-rule="evenodd" stroke="none"/>
    <path d="M1.7 -0.85 L1.6 -0.8 1.5 -0.85 1.7 -0.85" fill="#211e5b" fill-rule="evenodd" stroke="none"/>
    <path d="M1.5 -0.55 L1.55 -0.6 1.55 -0.65 1.5 -0.65 1.6 -0.65 1.65 -0.65 1.65 -0.55 1.6 -0.5 1.5 -0.55" fill="#7084e8" fill-rule="evenodd" stroke="none"/>
    <path d="M1.5 -0.65 L1.5 -0.7 1.6 -0.7 1.65 -0.75 Q1.65 -0.7 1.75 -0.65 1.7 -0.65 1.75 -0.6 L1.7 -0.6 1.65 -0.55 1.6 -0.5 1.65 -0.55 Q1.7 -0.55 1.7 -0.6 L1.65 -0.65 1.6 -0.65 1.5 -0.65 1.5 -0.65 M1.6 -0.5 L1.6 -0.5" fill="#4a4eb8" fill-rule="evenodd" stroke="none"/>
    <path d="M1.45 -0.75 L1.5 -0.65 1.55 -0.65 1.55 -0.6 1.5 -0.55 1.5 -0.6 1.45 -0.6 1.35 -0.55 1.4 -0.6 1.35 -0.6 1.35 -0.65 1.4 -0.7 1.45 -0.75 M1.5 -0.65 L1.5 -0.65 M1.35 -0.65 L1.35 -0.65" fill="#b6eefa" fill-rule="evenodd" stroke="none"/>
    <path d="M1.65 -0.55 L1.65 -0.65 1.6 -0.65 1.65 -0.65 1.7 -0.6 Q1.7 -0.55 1.65 -0.55" fill="#5d59f2" fill-rule="evenodd" stroke="none"/>
    <path d="M1.6 -0.8 Q1.65 -0.8 1.7 -0.75 L1.8 -0.7 1.75 -0.65 Q1.65 -0.7 1.65 -0.75 L1.6 -0.8" fill="#392f9f" fill-rule="evenodd" stroke="none"/>
    <path d="M2.2 -0.95 L2.2 -0.85 2.1 -0.85 2.0 -0.85 1.95 -0.85 1.9 -0.85 Q1.95 -0.9 2.0 -0.9 L2.2 -0.95" fill="#1c1d38" fill-rule="evenodd" stroke="none"/>
    <path d="M1.8 -0.7 L1.8 -0.7 1.8 -0.65 Q1.8 -0.6 1.75 -0.6 1.7 -0.65 1.75 -0.65 L1.8 -0.7" fill="#4c39dc" fill-rule="evenodd" stroke="none"/>
    <path d="M1.8 -0.7 L1.9 -0.65 1.85 -0.6 1.85 -0.6 1.75 -0.6 1.7 -0.55 1.75 -0.5 1.75 -0.45 1.7 -0.45 1.7 -0.45 1.65 -0.55 1.7 -0.6 1.75 -0.6 Q1.8 -0.6 1.8 -0.65 L1.8 -0.7" fill="#3a3599" fill-rule="evenodd" stroke="none"/>
    <path d="M1.85 -0.6 L1.95 -0.65 1.95 -0.7 Q1.85 -0.7 1.8 -0.75 1.75 -0.75 1.7 -0.85 L1.9 -0.8 Q2.0 -0.7 2.05 -0.7 2.05 -0.65 1.95 -0.6 1.85 -0.55 1.85 -0.5 L1.85 -0.45 1.8 -0.45 1.65 -0.45 1.65 -0.45 1.7 -0.45 1.7 -0.45 1.75 -0.45 1.8 -0.5 1.85 -0.6 1.85 -0.6" fill="#2a2665" fill-rule="evenodd" stroke="none"/>
    <path d="M1.05 -1.0 L1.1 -1.05 1.15 -1.1 1.25 -1.1 1.35 -1.0 1.35 -0.85 1.35 -0.9 1.3 -1.0 1.05 -1.0" fill="#121228" fill-rule="evenodd" stroke="none"/>
    <path d="M1.05 -0.95 L1.05 -1.0 1.3 -1.0 1.35 -0.9 Q1.3 -0.9 1.3 -0.85 L1.3 -0.8 1.2 -0.85 1.05 -0.95" fill="#1f1f4d" fill-rule="evenodd" stroke="none"/>
    <path d="M1.05 -0.95 L1.05 -0.95 1.2 -0.85 1.05 -0.8 1.05 -0.85 1.05 -0.9 1.0 -0.9 1.05 -0.95 M1.1 -0.8 L1.2 -0.85 1.2 -0.8 1.1 -0.8" fill="#3a458c" fill-rule="evenodd" stroke="none"/>
    <path d="M1.2 -0.8 L1.2 -0.85 1.3 -0.8 1.25 -0.75 1.2 -0.8 M1.3 -0.8 L1.3 -0.8" fill="#2e3a64" fill-rule="evenodd" stroke="none"/>
    <path d="M1.05 -0.8 L1.05 -0.75 1.0 -0.8 1.05 -0.85 1.05 -0.8" fill="#9cf173" fill-rule="evenodd" stroke="none"/>
    <path d="M1.05 -0.7 L1.05 -0.75 1.1 -0.75 1.1 -0.7 1.05 -0.7" fill="#9cdfa7" fill-rule="evenodd" stroke="none"/>
    <path d="M1.1 -0.75 L1.1 -0.8 1.2 -0.8 1.25 -0.75 1.2 -0.75 1.1 -0.7 1.1 -0.75 M1.1 -0.7 L1.1 -0.7" fill="#7594c1" fill-rule="evenodd" stroke="none"/>
    <path d="M1.2 -0.55 L1.05 -0.7 1.1 -0.7 1.1 -0.7 1.2 -0.65 1.25 -0.65 1.25 -0.6 1.2 -0.55" fill="#8fe753" fill-rule="evenodd" stroke="none"/>
    <path d="M1.25 -0.75 L1.3 -0.8 1.25 -0.65 1.2 -0.65 1.1 -0.7 1.2 -0.75 1.25 -0.75" fill="#57739b" fill-rule="evenodd" stroke="none"/>
    <path d="M1.3 -0.8 L1.3 -0.8 1.3 -0.85 Q1.3 -0.9 1.35 -0.9 L1.4 -0.8 1.35 -0.8 1.3 -0.8" fill="#4d6281" fill-rule="evenodd" stroke="none"/>
    <path d="M1.4 -0.8 L1.45 -0.75 1.4 -0.7 1.35 -0.65 1.35 -0.8 1.4 -0.8" fill="#88b4cb" fill-rule="evenodd" stroke="none"/>
    <path d="M1.25 -0.65 L1.3 -0.8 1.35 -0.8 1.35 -0.65 1.35 -0.65 1.25 -0.6 1.25 -0.65" fill="#6a939c" fill-rule="evenodd" stroke="none"/>
    <path d="M1.5 -0.55 L1.6 -0.5 1.6 -0.45 1.55 -0.45 1.5 -0.45 1.5 -0.6 1.5 -0.55 M1.6 -0.5 L1.6 -0.5" fill="#3e6750" fill-rule="evenodd" stroke="none"/>
    <path d="M1.5 -0.6 L1.45 -0.5 1.4 -0.5 1.35 -0.5 Q1.3 -0.55 1.35 -0.6 L1.4 -0.6 1.35 -0.55 1.45 -0.6 1.5 -0.6 M1.35 -0.5 L1.35 -0.5" fill="#aaf99f" fill-rule="evenodd" stroke="none"/>
    <path d="M1.35 -0.5 L1.4 -0.5 1.45 -0.5 1.5 -0.4 1.45 -0.35 1.35 -0.35 Q1.3 -0.4 1.3 -0.35 L1.25 -0.3 Q1.2 -0.35 1.15 -0.3 L1.15 -0.4 1.2 -0.45 1.3 -0.45 Q1.35 -0.45 1.35 -0.5 M1.15 -0.4 L1.15 -0.4 M1.15 -0.3 L1.15 -0.3" fill="#b9fddb" fill-rule="evenodd" stroke="none"/>
    <path d="M1.5 -0.6 L1.5 -0.45 1.55 -0.45 1.55 -0.4 1.5 -0.4 1.45 -0.5 1.5 -0.6" fill="#7ac84e" fill-rule="evenodd" stroke="none"/>
    <path d="M1.35 -0.6 Q1.3 -0.55 1.35 -0.5 L1.25 -0.5 1.2 -0.55 1.25 -0.6 1.35 -0.65 1.35 -0.6" fill="#96db9c" fill-rule="evenodd" stroke="none"/>
    <path d="M1.05 -0.45 L1.1 -0.55 1.2 -0.55 1.25 -0.5 1.35 -0.5 1.35 -0.5 Q1.35 -0.45 1.3 -0.45 L1.2 -0.45 1.1 -0.5 Q1.1 -0.5 1.1 -0.45 L1.05 -0.45" fill="#8be251" fill-rule="evenodd" stroke="none"/>
    <path d="M1.3 -0.35 Q1.3 -0.4 1.35 -0.35 L1.45 -0.35 1.4 -0.3 1.4 -0.3 1.35 -0.25 1.3 -0.35" fill="#a2ef97" fill-rule="evenodd" stroke="none"/>
    <path d="M1.5 -0.4 L1.55 -0.4 1.5 -0.3 1.4 -0.3 1.4 -0.3 1.45 -0.35 1.5 -0.4" fill="#539a1c" fill-rule="evenodd" stroke="none"/>
    <path d="M1.2 -0.45 L1.15 -0.4 1.1 -0.45 Q1.1 -0.5 1.1 -0.5 L1.2 -0.45" fill="#497e44" fill-rule="evenodd" stroke="none"/>
    <path d="M1.0 -0.4 L1.05 -0.4 1.05 -0.4 1.15 -0.4 1.15 -0.3 1.1 -0.35 1.0 -0.4" fill="#436e4f" fill-rule="evenodd" stroke="none"/>
    <path d="M1.15 -0.4 L1.15 -0.4 1.05 -0.4 1.05 -0.45 1.1 -0.45 1.15 -0.4" fill="#6fba43" fill-rule="evenodd" stroke="none"/>
    <path d="M1.25 -0.2 Q1.2 -0.3 1.2 -0.25 1.15 -0.2 1.1 -0.25 L1.15 -0.25 1.15 -0.3 Q1.2 -0.35 1.25 -0.3 L1.25 -0.2" fill="#386724" fill-rule="evenodd" stroke="none"/>
    <path d="M1.55 -0.45 L1.6 -0.45 1.65 -0.45 1.65 -0.2 1.5 -0.1 Q1.45 -0.05 1.35 -0.1 L1.15 -0.2 1.2 -0.25 Q1.2 -0.3 1.25 -0.2 1.3 -0.15 1.35 -0.2 L1.4 -0.25 1.5 -0.2 1.5 -0.25 1.55 -0.25 1.55 -0.3 Q1.6 -0.3 1.6 -0.35 L1.55 -0.45 M1.65 -0.45 L1.65 -0.45" fill="#1e2c31" fill-rule="evenodd" stroke="none"/>
    <path d="M1.5 -0.25 L1.5 -0.2 1.4 -0.25 1.35 -0.2 Q1.3 -0.15 1.25 -0.2 L1.25 -0.3 1.3 -0.35 1.35 -0.25 1.4 -0.3 1.5 -0.25" fill="#498523" fill-rule="evenodd" stroke="none"/>
    <path d="M1.55 -0.4 L1.55 -0.45 1.6 -0.35 Q1.6 -0.3 1.55 -0.3 L1.55 -0.25 1.5 -0.25 1.4 -0.3 1.5 -0.3 1.55 -0.4" fill="#2f582f" fill-rule="evenodd" stroke="none"/>
    <path d="M1.35 -0.1 Q1.45 -0.05 1.5 -0.1 L1.65 -0.2 1.7 -0.2 1.75 -0.15 1.65 -0.1 1.6 0.05 1.45 0.0 1.3 0.05 1.3 0.1 1.35 0.2 1.45 0.15 1.45 0.25 1.5 0.35 1.4 0.4 1.35 0.45 1.2 0.4 1.1 0.45 Q1.05 0.45 1.05 0.5 L1.1 0.55 0.95 0.6 Q0.9 0.5 0.8 0.55 L0.85 0.4 1.0 0.3 0.95 0.2 0.9 0.15 Q0.95 0.1 1.05 0.1 L1.15 0.1 1.35 -0.1" fill="#20233c" fill-rule="evenodd" stroke="none"/>
    <path d="M1.85 -0.6 L1.8 -0.5 1.75 -0.45 1.75 -0.5 1.7 -0.55 1.75 -0.6 1.85 -0.6" fill="#332e81" fill-rule="evenodd" stroke="none"/>
    <path d="M2.2 -0.05 L2.2 0.05 2.05 0.1 2.0 0.2 2.0 0.3 1.8 0.45 1.7 0.4 1.6 0.4 1.55 0.5 1.45 0.55 Q1.5 0.65 1.45 0.65 L1.35 0.65 1.35 0.55 Q1.35 0.5 1.3 0.5 L1.25 0.55 1.2 0.6 1.1 0.55 1.05 0.5 Q1.05 0.45 1.1 0.45 L1.2 0.4 1.35 0.45 1.4 0.4 1.5 0.35 1.45 0.25 1.45 0.15 1.35 0.2 1.3 0.1 1.3 0.05 1.45 0.0 1.6 0.05 1.65 -0.1 1.75 -0.15 1.7 -0.2 1.65 -0.2 1.65 -0.45 1.8 -0.45 1.95 -0.4 Q1.95 -0.35 1.9 -0.25 L1.85 -0.1 1.9 -0.05 2.0 -0.05 1.95 -0.05 1.8 -0.05 1.7 -0.05 Q1.65 0.0 1.65 0.05 L1.7 0.2 Q1.65 0.25 1.75 0.25 L1.85 0.2 Q1.85 0.15 1.9 0.1 L2.05 0.05 Q2.1 0.05 2.2 -0.05" fill="#1d1e39" fill-rule="evenodd" stroke="none"/>
    <path d="M1.6 -0.45 L1.6 -0.5 1.65 -0.55 1.7 -0.45 1.65 -0.45 1.6 -0.45" fill="#3a497b" fill-rule="evenodd" stroke="none"/>
    <path d="M2.0 -0.15 L1.9 -0.15 1.95 -0.25 2.0 -0.25 2.0 -0.2 2.0 -0.15" fill="#3e4566" fill-rule="evenodd" stroke="none"/>
    <path d="M2.2 -0.65 L2.2 -0.55 2.1 -0.55 2.1 -0.55 2.05 -0.45 Q2.0 -0.35 2.05 -0.35 2.05 -0.3 2.1 -0.35 L2.1 -0.4 2.1 -0.2 2.0 -0.2 2.0 -0.25 1.95 -0.25 1.95 -0.25 2.0 -0.3 Q2.0 -0.5 2.05 -0.65 L2.2 -0.65" fill="#2e3156" fill-rule="evenodd" stroke="none"/>
    <path d="M2.2 -0.35 L2.2 -0.05 Q2.1 0.05 2.05 0.05 L1.95 0.05 Q1.9 0.05 1.9 0.0 L2.0 -0.05 2.0 -0.15 2.0 -0.2 2.1 -0.2 2.15 -0.25 2.2 -0.35" fill="#131329" fill-rule="evenodd" stroke="none"/>
    <path d="M1.95 -0.05 L1.9 0.0 Q1.9 0.05 1.95 0.05 L2.05 0.05 1.9 0.1 Q1.85 0.15 1.85 0.2 L1.75 0.25 Q1.65 0.25 1.7 0.2 L1.65 0.05 Q1.65 0.0 1.7 -0.05 L1.8 -0.05 1.95 -0.05" fill="#1a1b32" fill-rule="evenodd" stroke="none"/>
    <path d="M2.2 -0.55 L2.2 -0.4 2.1 -0.4 2.1 -0.35 Q2.05 -0.3 2.05 -0.35 2.0 -0.35 2.05 -0.45 L2.1 -0.55 2.1 -0.55 2.2 -0.55" fill="#393c68" fill-rule="evenodd" stroke="none"/>
    <path d="M2.2 -0.4 L2.2 -0.35 2.15 -0.25 2.1 -0.2 2.1 -0.4 2.2 -0.4" fill="#22233f" fill-rule="evenodd" stroke="none"/>
    <path d="M2.2 0.05 L2.2 0.3 2.1 0.35 2.05 0.4 2.0 0.5 1.9 0.55 1.7 0.5 Q1.6 0.55 1.5 0.6 L1.55 0.5 1.6 0.4 1.7 0.4 1.8 0.45 2.0 0.3 2.0 0.2 2.05 0.1 2.2 0.05" fill="#222340" fill-rule="evenodd" stroke="none"/>
    <path d="M2.2 0.5 L2.2 0.6 2.1 0.65 2.05 0.7 1.95 0.7 1.9 0.75 1.8 0.8 1.75 0.85 1.65 0.95 1.65 1.05 1.7 1.1 Q1.65 1.15 1.6 1.05 L1.55 0.95 1.65 0.9 1.7 0.8 1.75 0.75 1.7 0.65 1.9 0.65 2.05 0.65 Q2.1 0.55 2.2 0.5" fill="#282a50" fill-rule="evenodd" stroke="none"/>
    <path d="M2.2 0.3 L2.2 0.5 Q2.1 0.55 2.05 0.65 L1.9 0.65 1.7 0.65 1.75 0.75 1.7 0.8 1.65 0.9 1.55 0.95 1.6 1.05 Q1.65 1.15 1.7 1.1 L1.7 1.15 1.65 1.15 1.6 1.15 1.55 1.1 1.55 1.0 1.5 0.85 1.45 0.85 1.4 0.8 1.45 0.7 1.5 0.6 Q1.6 0.55 1.7 0.5 L1.9 0.55 2.0 0.5 2.05 0.4 2.1 0.35 2.2 0.3" fill="#252648" fill-rule="evenodd" stroke="none"/>
    <path d="M2.2 0.95 L2.2 1.0 2.1 1.0 2.0 1.15 1.95 1.2 1.85 1.15 1.8 1.15 Q1.8 1.1 1.85 1.0 L1.9 0.9 Q1.9 0.85 1.95 0.8 L2.1 0.8 2.1 0.85 2.2 0.95" fill="#333560" fill-rule="evenodd" stroke="none"/>
    <path d="M2.2 0.6 L2.2 0.95 2.1 0.85 2.1 0.8 1.95 0.8 Q1.9 0.85 1.9 0.9 L1.85 1.0 Q1.8 1.1 1.8 1.15 L1.85 1.15 Q1.85 1.2 1.8 1.2 L1.7 1.15 1.7 1.1 1.65 1.05 1.65 0.95 1.75 0.85 1.8 0.8 1.9 0.75 1.95 0.7 2.05 0.7 2.1 0.65 2.2 0.6" fill="#2c2d58" fill-rule="evenodd" stroke="none"/>
    <path d="M2.2 1.0 L2.2 1.3 2.1 1.2 Q2.1 1.15 2.1 1.1 L2.0 1.15 2.1 1.0 2.2 1.0" fill="#212240" fill-rule="evenodd" stroke="none"/>
    <path d="M2.2 1.3 L2.2 1.6 Q2.1 1.6 2.05 1.55 L1.95 1.4 2.05 1.4 2.1 1.35 2.05 1.25 1.95 1.2 2.0 1.15 2.1 1.1 Q2.1 1.15 2.1 1.2 L2.2 1.3" fill="#1a1939" fill-rule="evenodd" stroke="none"/>
    <path d="M2.2 1.6 L2.2 1.75 2.1 1.7 2.0 1.7 1.9 1.55 1.8 1.5 Q1.6 1.4 1.55 1.3 L1.65 1.25 1.7 1.15 1.8 1.2 Q1.85 1.2 1.85 1.15 L1.95 1.2 2.05 1.25 2.1 1.35 2.05 1.4 1.95 1.4 2.05 1.55 Q2.1 1.6 2.2 1.6" fill="#161432" fill-rule="evenodd" stroke="none"/>
    <path d="M2.2 1.75 L2.2 1.8 2.05 1.75 2.0 1.8 Q1.95 1.8 1.95 1.75 L1.9 1.7 1.8 1.65 Q1.75 1.6 1.7 1.5 1.6 1.45 1.5 1.4 L1.35 1.45 1.15 1.5 1.05 1.35 1.15 1.35 1.25 1.35 1.3 1.35 1.3 1.25 1.25 1.15 1.2 1.05 1.2 0.95 1.05 1.0 0.95 1.05 0.8 1.05 0.65 1.05 0.75 0.95 0.9 0.95 1.1 0.9 Q1.3 0.85 1.35 0.85 L1.35 1.05 1.4 1.1 1.45 1.2 1.5 1.2 1.6 1.15 1.65 1.15 1.7 1.15 1.65 1.25 1.55 1.3 Q1.6 1.4 1.8 1.5 L1.9 1.55 2.0 1.7 2.1 1.7 2.2 1.75" fill="#12112a" fill-rule="evenodd" stroke="none"/>
    <path d="M2.2 1.8 L2.2 1.9 2.0 1.9 1.85 1.85 Q1.8 1.85 1.8 1.9 L1.75 1.95 1.6 2.0 1.4 2.05 1.25 2.1 1.1 2.1 1.05 2.1 0.95 2.05 0.95 2.2 0.9 2.2 0.9 2.0 1.05 2.0 1.15 2.05 1.3 1.95 1.5 1.9 1.65 1.9 1.75 1.75 1.7 1.65 Q1.65 1.55 1.55 1.6 1.5 1.6 1.45 1.55 L1.45 1.5 1.25 1.5 1.05 1.55 1.1 1.5 1.05 1.4 Q0.95 1.5 0.95 1.55 L1.0 1.55 1.05 1.55 1.05 1.65 1.0 1.65 0.95 1.6 Q0.9 1.6 0.9 1.6 L0.85 1.7 0.75 1.8 0.75 1.85 0.7 1.95 0.6 1.95 0.55 1.9 0.5 1.95 0.45 1.95 0.35 1.8 0.3 1.75 0.25 1.75 0.2 1.7 0.15 1.65 0.05 1.6 0.0 1.55 0.05 1.55 0.1 1.5 0.1 1.45 0.15 1.4 0.2 1.4 0.3 1.4 0.3 1.45 0.35 1.5 0.55 1.55 0.75 1.55 0.8 1.55 Q0.85 1.5 0.85 1.5 L0.75 1.45 0.7 1.45 0.6 1.4 0.5 1.3 0.6 1.2 0.65 1.05 0.8 1.05 0.95 1.05 1.05 1.0 1.2 0.95 1.2 1.05 1.25 1.15 1.3 1.25 1.3 1.35 1.25 1.35 1.15 1.35 1.05 1.35 1.15 1.5 1.35 1.45 1.5 1.4 Q1.6 1.45 1.7 1.5 1.75 1.6 1.8 1.65 L1.9 1.7 1.95 1.75 Q1.95 1.8 2.0 1.8 L2.05 1.75 2.2 1.8" fill="#0e0d22" fill-rule="evenodd" stroke="none"/>
    <path d="M2.2 1.9 L2.2 2.2 0.95 2.2 0.95 2.05 1.05 2.1 1.1 2.1 1.25 2.1 1.4 2.05 1.6 2.0 1.75 1.95 1.8 1.9 Q1.8 1.85 1.85 1.85 L2.0 1.9 2.2 1.9" fill="#13112b" fill-rule="evenodd" stroke="none"/>
    <path d="M1.1 0.55 L1.2 0.6 1.25 0.55 1.3 0.5 Q1.35 0.5 1.35 0.55 L1.35 0.65 1.45 0.65 Q1.5 0.65 1.45 0.55 L1.55 0.5 1.5 0.6 1.45 0.7 1.4 0.8 1.45 0.85 1.5 0.85 1.55 1.0 1.55 1.1 1.6 1.15 1.65 1.15 1.6 1.15 Q1.55 1.15 1.5 1.1 L1.5 1.0 1.4 0.85 1.3 0.8 0.95 0.95 0.9 0.9 0.85 0.85 Q0.75 0.9 0.65 0.95 L0.5 1.1 Q0.45 1.1 0.45 1.05 L0.45 0.75 0.65 0.8 0.8 0.75 0.85 0.7 0.95 0.6 1.1 0.55" fill="#1e1e40" fill-rule="evenodd" stroke="none"/>
    <path d="M0.65 1.05 L0.6 1.2 0.5 1.3 0.45 1.3 Q0.35 1.3 0.3 1.15 L0.2 1.0 0.15 0.95 0.1 0.9 0.2 0.85 Q0.25 0.9 0.25 0.9 0.25 0.95 0.3 0.95 L0.4 1.0 0.4 1.05 0.45 1.05 Q0.45 1.1 0.5 1.1 L0.65 0.95 Q0.75 0.9 0.85 0.85 L0.9 0.9 0.95 0.95 1.3 0.8 1.4 0.85 1.5 1.0 1.5 1.1 Q1.55 1.15 1.6 1.15 L1.5 1.2 1.45 1.2 1.4 1.1 1.35 1.05 1.35 0.85 Q1.3 0.85 1.1 0.9 L0.9 0.95 0.75 0.95 0.65 1.05" fill="#171733" fill-rule="evenodd" stroke="none"/>
    <path d="M0.25 0.35 L0.3 0.3 Q0.35 0.25 0.35 0.25 L0.4 0.2 Q0.45 0.1 0.5 0.15 L0.5 0.35 0.4 0.45 0.35 0.55 0.3 0.55 0.25 0.5 0.25 0.4 0.25 0.35" fill="#2e3448" fill-rule="evenodd" stroke="none"/>
    <path d="M0.0 0.65 L0.05 0.6 0.1 0.5 0.15 0.45 0.2 0.35 0.2 0.55 0.25 0.55 0.3 0.6 Q0.25 0.7 0.35 0.75 L0.4 0.75 0.45 0.75 0.45 1.05 0.4 1.05 0.4 1.0 0.3 0.95 Q0.25 0.95 0.25 0.9 0.25 0.9 0.2 0.85 L0.1 0.9 0.05 0.75 0.0 0.65" fill="#1e2039" fill-rule="evenodd" stroke="none"/>
    <path d="M-0.05 0.7 L0.0 0.65 0.05 0.75 0.1 0.9 0.15 0.95 0.2 1.0 0.3 1.15 Q0.35 1.3 0.45 1.3 L0.45 1.35 0.3 1.4 0.2 1.4 0.15 1.4 0.1 1.45 0.15 1.35 0.15 1.25 0.05 1.25 -0.05 1.3 -0.05 1.45 Q0.0 1.55 0.1 1.5 L0.05 1.55 0.0 1.55 -0.05 1.45 -0.15 1.35 -0.2 1.25 -0.25 1.2 -0.3 1.0 Q-0.25 0.95 -0.35 0.85 L-0.4 0.8 -0.45 0.75 -0.45 0.7 -0.5 0.65 -0.45 0.7 -0.4 0.75 -0.25 0.75 -0.15 0.85 -0.1 0.95 -0.05 1.0 0.05 1.05 0.15 1.2 0.2 1.25 0.25 1.3 0.35 1.35 0.3 1.25 0.2 1.15 0.1 1.0 Q0.0 0.9 -0.05 0.7" fill="#131524" fill-rule="evenodd" stroke="none"/>
    <path d="M0.05 1.05 L0.1 1.05 0.1 1.0 0.2 1.15 0.3 1.25 0.35 1.35 0.25 1.3 0.2 1.25 0.15 1.2 0.05 1.05" fill="#20282d" fill-rule="evenodd" stroke="none"/>
    <path d="M-0.05 0.65 L-0.05 0.7 Q0.0 0.9 0.1 1.0 L0.1 1.05 0.05 1.05 -0.05 1.0 -0.1 0.95 -0.15 0.85 -0.25 0.75 -0.3 0.65 -0.35 0.6 Q-0.3 0.5 -0.2 0.5 L-0.15 0.6 Q-0.05 0.65 -0.05 0.65" fill="#273334" fill-rule="evenodd" stroke="none"/>
    <path d="M0.7 1.45 L0.75 1.45 0.85 1.5 0.7 1.55 0.7 1.45" fill="#344e3a" fill-rule="evenodd" stroke="none"/>
    <path d="M0.6 1.4 L0.7 1.45 0.7 1.55 0.85 1.5 Q0.85 1.5 0.8 1.55 L0.75 1.55 0.55 1.55 0.35 1.5 0.3 1.45 0.3 1.4 0.45 1.35 0.5 1.35 0.6 1.4" fill="#22302b" fill-rule="evenodd" stroke="none"/>
    <path d="M0.5 1.3 L0.6 1.4 0.5 1.35 0.45 1.35 0.45 1.3 0.5 1.3" fill="#324a37" fill-rule="evenodd" stroke="none"/>
    <path d="M0.9 2.2 L0.1 2.2 0.15 2.05 0.15 1.9 0.0 1.9 -0.1 2.0 -0.05 2.05 -0.05 2.15 -0.1 2.15 -0.15 2.15 -0.2 2.15 -0.3 2.15 -0.35 2.1 Q-0.45 2.05 -0.5 2.05 -0.6 1.95 -0.6 1.85 L-0.45 1.7 -0.35 1.7 -0.2 1.7 -0.2 1.75 -0.05 1.75 0.25 1.85 Q0.3 1.85 0.35 1.8 L0.45 1.95 0.5 1.95 0.55 1.9 0.6 1.95 0.7 1.95 0.75 1.85 0.75 1.8 0.85 1.7 0.9 1.6 Q0.9 1.6 0.95 1.6 L1.0 1.65 1.05 1.65 1.05 1.55 1.0 1.55 0.95 1.55 Q0.95 1.5 1.05 1.4 L1.1 1.5 1.05 1.55 1.25 1.5 1.45 1.5 1.45 1.55 Q1.5 1.6 1.55 1.6 1.65 1.55 1.7 1.65 L1.75 1.75 1.65 1.9 1.5 1.9 1.3 1.95 1.15 2.05 1.05 2.0 0.9 2.0 0.9 2.2" fill="#0c0b1e" fill-rule="evenodd" stroke="none"/>
    <path d="M0.1 1.45 L0.1 1.5 Q0.0 1.55 -0.05 1.45 L-0.05 1.3 0.05 1.25 0.15 1.25 0.15 1.35 0.1 1.45" fill="#19163d" fill-rule="evenodd" stroke="none"/>
    <path d="M0.05 1.55 L0.0 1.55 0.0 1.55 -0.05 1.6 -0.1 1.65 -0.2 1.6 Q-0.15 1.55 -0.15 1.55 L-0.2 1.5 -0.2 1.45 Q-0.25 1.35 -0.35 1.2 L-0.5 1.0 -0.45 1.05 -0.4 1.1 -0.35 1.05 -0.3 1.0 -0.25 1.2 -0.2 1.25 -0.15 1.35 -0.2 1.35 -0.15 1.45 -0.15 1.5 0.0 1.55 0.05 1.55" fill="#181d26" fill-rule="evenodd" stroke="none"/>
    <path d="M0.05 1.6 L0.15 1.65 0.2 1.7 Q0.15 1.75 0.2 1.8 L0.3 1.75 0.35 1.8 Q0.3 1.85 0.25 1.85 L-0.05 1.75 -0.2 1.75 -0.2 1.7 -0.2 1.65 -0.2 1.6 -0.1 1.65 -0.05 1.6 0.0 1.6 0.05 1.6" fill="#23322c" fill-rule="evenodd" stroke="none"/>
    <path d="M0.0 1.55 L0.05 1.6 0.0 1.6 -0.05 1.6 0.0 1.55 0.0 1.55" fill="#39553b" fill-rule="evenodd" stroke="none"/>
    <path d="M0.2 1.7 L0.25 1.75 0.3 1.75 0.2 1.8 Q0.15 1.75 0.2 1.7" fill="#304737" fill-rule="evenodd" stroke="none"/>
    <path d="M0.1 2.2 L-0.55 2.2 -0.65 2.05 Q-0.7 2.0 -0.75 2.0 L-0.8 2.0 -0.8 1.95 -0.7 1.95 -0.6 1.85 Q-0.6 1.95 -0.5 2.05 -0.45 2.05 -0.35 2.1 L-0.3 2.15 -0.2 2.15 -0.15 2.15 -0.1 2.15 -0.05 2.15 -0.05 2.05 -0.1 2.0 0.0 1.9 0.15 1.9 0.15 2.05 0.1 2.2" fill="#100f25" fill-rule="evenodd" stroke="none"/>
    <path d="M-2.2 1.3 L-2.2 1.15 -2.1 1.15 -2.0 1.15 -1.95 1.1 -1.9 1.1 -1.85 1.15 -1.85 1.2 -1.45 1.2 -1.45 1.05 -1.25 1.05 -1.2 1.0 -1.2 0.95 -1.4 0.8 -1.5 0.8 -1.65 0.75 -1.75 0.75 -1.85 0.7 -1.95 0.85 -2.05 1.0 -2.1 1.0 -2.2 0.95 -2.2 0.9 -2.1 0.95 -2.05 0.95 -2.0 0.9 -2.0 0.85 -1.9 0.75 Q-1.9 0.65 -1.8 0.65 L-1.65 0.65 -1.6 0.7 -1.55 0.7 -1.5 0.65 -1.45 0.65 -1.35 0.7 -1.3 0.7 -1.2 0.7 -1.15 0.75 -1.05 0.65 -1.0 0.5 -0.9 0.5 -0.8 0.5 -0.8 0.55 -0.75 0.55 -0.75 0.55 -0.65 0.65 -0.55 0.6 -0.55 0.55 -0.6 0.4 -0.45 0.5 -0.35 0.5 -0.35 0.6 -0.3 0.65 -0.25 0.75 -0.4 0.75 -0.45 0.7 -0.5 0.65 -0.6 0.7 -0.6 0.8 -0.5 1.0 -0.55 1.1 -0.6 1.2 -0.75 1.2 Q-0.8 1.15 -0.8 1.1 -0.8 1.0 -0.8 0.9 L-0.85 0.7 -0.9 0.75 -0.95 0.8 -1.15 0.8 Q-1.25 0.75 -1.3 0.8 L-1.25 0.9 -1.15 0.95 -1.15 1.2 -1.2 1.25 -1.3 1.3 -1.4 1.35 -1.5 1.45 -1.65 1.4 -1.75 1.4 -1.85 1.4 -1.95 1.4 -1.95 1.25 -2.0 1.3 -2.05 1.35 -2.2 1.3" fill="#0d0c1d" fill-rule="evenodd" stroke="none"/>
    <path d="M-0.3 0.4 L-0.3 0.45 -0.25 0.5 -0.2 0.5 Q-0.3 0.5 -0.35 0.6 L-0.35 0.5 -0.45 0.5 -0.6 0.4 -0.55 0.55 -0.55 0.6 -0.65 0.65 -0.75 0.55 -0.75 0.55 -0.7 0.5 -0.6 0.4 -0.65 0.45 -0.65 0.4 -0.75 0.3 -0.8 0.15 -0.9 0.05 -0.9 -0.05 -0.8 0.1 -0.7 0.2 -0.55 0.25 -0.55 0.1 Q-0.4 0.2 -0.3 0.4" fill="#212a2f" fill-rule="evenodd" stroke="none"/>
    <path d="M-0.6 0.05 L-0.55 0.1 -0.55 0.25 -0.7 0.2 -0.8 0.1 -0.7 0.1 -0.6 0.1 -0.6 0.05" fill="#293837" fill-rule="evenodd" stroke="none"/>
    <path d="M-0.9 0.4 L-0.75 0.4 -0.8 0.25 -0.8 0.15 -0.75 0.3 -0.65 0.4 -0.65 0.45 -0.6 0.4 -0.7 0.5 -0.75 0.55 -0.8 0.55 -0.8 0.5 -0.9 0.4" fill="#283736" fill-rule="evenodd" stroke="none"/>
    <path d="M-1.0 0.3 L-0.9 0.4 -0.8 0.5 -0.9 0.5 -1.0 0.5 -1.05 0.65 -1.15 0.75 -1.2 0.7 -1.3 0.7 -1.35 0.7 -1.45 0.65 -1.5 0.65 -1.55 0.7 -1.6 0.7 -1.65 0.65 -1.6 0.65 -1.5 0.55 Q-1.4 0.45 -1.35 0.45 L-1.25 0.4 -1.15 0.35 -1.15 0.25 -1.1 0.25 -1.05 0.25 -1.0 0.3" fill="#0f0f21" fill-rule="evenodd" stroke="none"/>
    <path d="M-0.5 1.0 L-0.6 0.8 -0.6 0.7 -0.5 0.65 -0.45 0.7 -0.45 0.75 -0.4 0.8 -0.35 0.85 Q-0.25 0.95 -0.3 1.0 L-0.35 1.05 -0.4 1.1 -0.45 1.05 -0.5 1.0 -0.5 1.0" fill="#212b2f" fill-rule="evenodd" stroke="none"/>
    <path d="M-0.8 0.9 L-0.85 1.0 -0.9 1.1 -0.9 1.1 -0.95 1.05 -1.05 1.05 -1.1 1.0 -1.1 0.9 -1.0 0.9 -0.9 0.9 -0.85 0.9 -0.8 0.9" fill="#161431" fill-rule="evenodd" stroke="none"/>
    <path d="M-2.2 1.5 L-2.2 1.3 -2.05 1.35 -2.0 1.3 -1.95 1.25 -1.95 1.4 -1.85 1.4 -1.75 1.4 -1.65 1.4 -1.5 1.45 -1.4 1.35 -1.3 1.3 -1.2 1.25 -1.15 1.2 -1.15 0.95 -1.25 0.9 -1.3 0.8 Q-1.25 0.75 -1.15 0.8 L-0.95 0.8 -0.9 0.75 -0.85 0.7 -0.8 0.9 -0.8 0.9 -0.85 0.9 -0.9 0.9 -1.0 0.9 -1.1 0.9 -1.1 1.0 -1.05 1.2 -1.1 1.35 -1.05 1.45 -1.0 1.45 Q-0.95 1.5 -1.0 1.55 -1.05 1.65 -1.1 1.6 -1.1 1.55 -1.15 1.6 L-1.25 1.65 -1.3 1.6 -1.35 1.6 -1.35 1.7 -1.4 1.8 Q-1.45 1.85 -1.55 1.85 L-1.6 1.85 -1.65 1.85 -1.6 1.9 -1.55 1.9 Q-1.55 2.0 -1.65 2.0 L-1.75 1.95 -1.7 1.85 Q-1.7 1.8 -1.75 1.8 L-1.7 1.75 -1.7 1.7 Q-1.7 1.65 -1.75 1.65 L-1.8 1.7 -1.8 1.65 -1.85 1.55 -2.05 1.55 -2.2 1.5" fill="#0f0e24" fill-rule="evenodd" stroke="none"/>
    <path d="M-1.75 2.2 L-2.2 2.2 -2.2 1.5 -2.05 1.55 -1.85 1.55 -1.8 1.65 -1.8 1.7 -1.75 1.65 Q-1.7 1.65 -1.7 1.7 L-1.7 1.75 -1.75 1.8 Q-1.7 1.8 -1.7 1.85 L-1.75 1.95 -1.65 2.0 Q-1.55 2.0 -1.55 1.9 L-1.6 1.9 -1.65 1.85 -1.6 1.85 -1.55 1.85 Q-1.45 1.85 -1.4 1.8 L-1.35 1.7 -1.35 1.6 -1.3 1.6 -1.25 1.65 -1.15 1.6 Q-1.1 1.55 -1.1 1.6 -1.05 1.65 -1.0 1.55 -0.95 1.5 -1.0 1.45 L-1.05 1.45 -1.1 1.35 -1.05 1.2 -1.1 1.0 -1.05 1.05 -0.95 1.05 -0.9 1.1 -0.9 1.1 -0.85 1.0 -0.8 0.9 Q-0.8 1.0 -0.8 1.1 -0.8 1.15 -0.75 1.2 L-0.6 1.2 -0.55 1.1 -0.5 1.0 -0.35 1.2 Q-0.25 1.35 -0.2 1.45 L-0.35 1.35 -0.55 1.35 Q-0.7 1.45 -0.85 1.4 -0.9 1.4 -0.9 1.45 L-0.9 1.55 -1.05 1.7 -1.2 1.8 Q-1.25 1.8 -1.3 1.9 L-1.35 2.0 -1.55 2.1 -1.75 2.2 M-0.5 1.0 L-0.5 1.0 M-0.8 0.9 L-0.8 0.9" fill="#121129" fill-rule="evenodd" stroke="none"/>
    <path d="M-2.2 1.15 L-2.2 0.95 -2.1 1.0 -2.05 1.0 -1.95 0.85 -1.85 0.7 -1.75 0.75 -1.65 0.75 -1.5 0.8 -1.4 0.8 -1.2 0.95 -1.2 1.0 -1.25 1.05 -1.45 1.05 -1.45 1.2 -1.85 1.2 -1.85 1.15 -1.9 1.1 -1.95 1.1 -2.0 1.15 -2.1 1.15 -2.2 1.15" fill="#0a0919" fill-rule="evenodd" stroke="none"/>
    <path d="M-0.55 2.2 L-1.75 2.2 -1.55 2.1 -1.35 2.0 -1.3 1.9 Q-1.25 1.8 -1.2 1.8 L-1.05 1.7 -0.9 1.55 Q-0.9 1.6 -0.95 1.65 L-1.0 1.75 -0.95 1.85 -0.9 1.9 -0.75 1.85 Q-0.65 1.85 -0.6 1.8 L-0.5 1.7 Q-0.45 1.65 -0.4 1.65 L-0.3 1.65 -0.2 1.65 -0.2 1.7 -0.35 1.7 -0.45 1.7 -0.6 1.85 -0.7 1.95 -0.8 1.95 -0.8 2.0 -0.75 2.0 Q-0.7 2.0 -0.65 2.05 L-0.55 2.2" fill="#161530" fill-rule="evenodd" stroke="none"/>
    <path d="M0.0 1.55 L-0.15 1.5 -0.15 1.45 -0.2 1.35 -0.15 1.35 -0.05 1.45 0.0 1.55" fill="#283434" fill-rule="evenodd" stroke="none"/>
    <path d="M-0.2 1.6 L-0.2 1.65 -0.3 1.65 -0.4 1.65 Q-0.45 1.65 -0.5 1.7 L-0.6 1.8 -0.7 1.85 -0.85 1.85 -0.9 1.65 -0.85 1.5 -0.7 1.5 -0.55 1.55 -0.5 1.6 -0.45 1.6 -0.4 1.55 -0.4 1.5 -0.2 1.5 -0.15 1.55 Q-0.15 1.55 -0.2 1.6" fill="#1a1842" fill-rule="evenodd" stroke="none"/>
    <path d="M-0.2 1.45 L-0.2 1.5 -0.4 1.5 -0.4 1.55 -0.45 1.6 -0.5 1.6 -0.55 1.55 -0.7 1.5 -0.85 1.5 -0.9 1.65 -0.85 1.85 -0.7 1.85 -0.6 1.8 Q-0.65 1.85 -0.75 1.85 L-0.9 1.9 -0.95 1.85 -1.0 1.75 -0.95 1.65 Q-0.9 1.6 -0.9 1.55 L-0.9 1.45 Q-0.9 1.4 -0.85 1.4 -0.7 1.45 -0.55 1.35 L-0.35 1.35 -0.2 1.45" fill="#161437" fill-rule="evenodd" stroke="none"/>
    <path d="M-2.2 -1.65 L-2.2 -2.2 -1.8 -2.2 Q-1.75 -2.0 -1.9 -1.85 -2.0 -1.7 -2.2 -1.65" fill="#27e0fc" fill-rule="evenodd" stroke="none"/>
    <path d="M-2.2 -1.6 L-2.2 -1.65 Q-2.0 -1.7 -1.9 -1.85 -1.75 -2.0 -1.8 -2.2 L-0.55 -2.2 Q-0.55 -2.05 -0.45 -1.85 L-0.35 -1.7 -0.35 -1.55 Q-0.3 -1.45 -0.35 -1.4 L-0.45 -1.25 Q-0.4 -1.15 -0.3 -1.2 -0.3 -1.15 -0.35 -1.15 L-0.45 -1.15 -0.5 -1.25 -0.45 -1.35 -0.45 -1.65 Q-0.45 -1.75 -0.55 -1.75 L-0.7 -1.8 Q-0.8 -1.9 -0.95 -1.9 L-1.2 -1.9 Q-1.3 -1.9 -1.4 -1.8 L-1.5 -1.6 -1.85 -1.6 -2.2 -1.6" fill="#33f5ff" fill-rule="evenodd" stroke="none"/>
    <path d="M-0.1 -1.25 Q0.0 -1.25 -0.05 -1.2 -0.05 -1.15 -0.1 -1.15 L-0.15 -1.05 -0.1 -1.0 -0.05 -0.95 -0.1 -0.9 Q-0.15 -0.8 -0.25 -0.85 L-0.25 -0.9 Q-0.2 -0.95 -0.25 -0.95 L-0.25 -1.05 -0.35 -1.1 -0.25 -1.1 -0.2 -1.15 -0.3 -1.2 Q-0.4 -1.15 -0.45 -1.25 L-0.35 -1.4 Q-0.3 -1.45 -0.35 -1.55 L-0.35 -1.7 -0.45 -1.85 Q-0.55 -2.05 -0.55 -2.2 L-0.3 -2.2 Q-0.4 -1.9 -0.25 -1.7 -0.2 -1.65 -0.25 -1.5 L-0.25 -1.35 -0.2 -1.3 -0.1 -1.25" fill="#51fcff" fill-rule="evenodd" stroke="none"/>
    <path d="M-0.3 -2.2 L-0.1 -2.2 -0.2 -2.0 Q-0.25 -1.9 -0.2 -1.8 -0.15 -1.55 -0.25 -1.35 L-0.25 -1.5 Q-0.2 -1.65 -0.25 -1.7 -0.4 -1.9 -0.3 -2.2" fill="#73ffff" fill-rule="evenodd" stroke="none"/>
    <path d="M-0.1 -2.2 L0.05 -2.2 -0.05 -2.0 -0.1 -1.75 Q-0.1 -1.7 -0.15 -1.55 L-0.2 -1.3 -0.25 -1.35 Q-0.15 -1.55 -0.2 -1.8 -0.25 -1.9 -0.2 -2.0 L-0.1 -2.2" fill="#9affff" fill-rule="evenodd" stroke="none"/>
    <path d="M0.25 -2.2 L0.15 -2.0 0.05 -1.85 -0.05 -1.65 -0.1 -1.45 -0.15 -1.35 -0.1 -1.25 -0.2 -1.3 -0.15 -1.55 Q-0.1 -1.7 -0.1 -1.75 L-0.05 -2.0 0.05 -2.2 0.25 -2.2" fill="#cbffff" fill-rule="evenodd" stroke="none"/>
    <path d="M0.9 -1.5 Q0.9 -1.6 0.75 -1.65 0.65 -1.65 0.65 -1.75 0.6 -1.9 0.75 -2.05 0.9 -2.15 1.05 -2.1 L1.15 -2.0 1.3 -1.9 1.25 -2.05 1.2 -2.2 1.4 -2.2 1.45 -2.05 1.45 -1.9 Q1.25 -1.8 1.1 -1.9 L1.0 -1.95 0.85 -1.95 0.75 -1.9 0.7 -1.75 Q0.7 -1.65 0.8 -1.65 L1.0 -1.65 0.95 -1.6 0.9 -1.5" fill="#dcfbfc" fill-rule="evenodd" stroke="none"/>
    <path d="M1.6 -2.2 L1.6 -2.0 1.65 -1.85 1.45 -1.9 1.45 -2.05 1.4 -2.2 1.6 -2.2" fill="#b5fcfc" fill-rule="evenodd" stroke="none"/>
    <path d="M1.7 -2.2 Q1.7 -2.1 1.8 -1.95 L1.85 -1.7 1.7 -1.75 1.65 -1.75 1.65 -1.85 1.6 -2.0 1.6 -2.2 1.7 -2.2" fill="#8ff9fb" fill-rule="evenodd" stroke="none"/>
    <path d="M1.85 -1.7 L1.8 -1.95 Q1.7 -2.1 1.7 -2.2 L1.85 -2.2 Q1.95 -1.8 2.2 -1.65 L2.2 -1.35 1.85 -1.7" fill="#6bfbfd" fill-rule="evenodd" stroke="none"/>
    <path d="M2.2 -1.65 Q1.95 -1.8 1.85 -2.2 L2.2 -2.2 2.2 -1.65" fill="#4cfeff" fill-rule="evenodd" stroke="none"/>
    <path d="M1.0 -1.65 L0.8 -1.65 Q0.7 -1.65 0.7 -1.75 L0.75 -1.9 0.85 -1.95 1.0 -1.95 1.1 -1.9 1.05 -1.85 0.9 -1.9 Q0.8 -1.85 0.75 -1.8 0.75 -1.7 0.85 -1.7 L1.0 -1.7 1.0 -1.65" fill="#b1fafc" fill-rule="evenodd" stroke="none"/>
    <path d="M-0.45 -1.35 L-0.5 -1.55 -0.65 -1.6 Q-0.7 -1.6 -0.75 -1.65 -0.85 -1.8 -0.95 -1.8 L-1.2 -1.75 Q-1.3 -1.7 -1.35 -1.6 -1.45 -1.5 -1.4 -1.35 L-1.5 -1.35 -1.5 -1.6 -1.4 -1.8 Q-1.3 -1.9 -1.2 -1.9 L-0.95 -1.9 Q-0.8 -1.9 -0.7 -1.8 L-0.55 -1.75 Q-0.45 -1.75 -0.45 -1.65 L-0.45 -1.35" fill="#2ad9f9" fill-rule="evenodd" stroke="none"/>
    <path d="M1.05 -1.85 L1.05 -1.8 1.0 -1.7 0.85 -1.7 Q0.75 -1.7 0.75 -1.8 0.8 -1.85 0.9 -1.9 L1.05 -1.85" fill="#7df1f5" fill-rule="evenodd" stroke="none"/>
    <path d="M1.65 -1.85 L1.65 -1.75 1.35 -1.75 1.05 -1.8 1.05 -1.85 1.1 -1.9 Q1.25 -1.8 1.45 -1.9 L1.65 -1.85" fill="#bbdce1" fill-rule="evenodd" stroke="none"/>
    <path d="M-1.35 -1.15 L-1.4 -1.15 -1.4 -1.35 Q-1.45 -1.5 -1.35 -1.6 -1.3 -1.7 -1.2 -1.75 L-0.95 -1.8 Q-0.85 -1.8 -0.75 -1.65 -0.7 -1.6 -0.65 -1.6 L-0.5 -1.55 -0.45 -1.35 -0.5 -1.25 -0.45 -1.15 -0.35 -1.15 Q-0.3 -1.15 -0.3 -1.2 L-0.2 -1.15 -0.25 -1.1 -0.35 -1.1 -0.25 -1.05 -0.25 -0.95 Q-0.35 -0.95 -0.25 -1.0 -0.35 -1.0 -0.35 -0.95 L-0.45 -0.9 -0.5 -0.95 -0.45 -1.05 -0.4 -1.05 -0.4 -1.1 -0.45 -1.15 Q-0.55 -1.2 -0.5 -1.3 -0.45 -1.4 -0.55 -1.5 -0.6 -1.55 -0.75 -1.55 -0.8 -1.65 -0.95 -1.7 -1.1 -1.7 -1.2 -1.65 -1.3 -1.55 -1.3 -1.4 L-1.35 -1.15" fill="#29b8f0" fill-rule="evenodd" stroke="none"/>
    <path d="M1.65 -1.75 L1.7 -1.75 1.85 -1.5 Q1.7 -1.65 1.55 -1.7 L1.15 -1.7 1.05 -1.7 1.0 -1.6 0.95 -1.5 Q0.9 -1.45 0.95 -1.4 L0.85 -1.4 0.9 -1.5 0.95 -1.6 1.0 -1.65 1.0 -1.7 1.05 -1.8 1.35 -1.75 1.65 -1.75 M1.85 -1.5 L1.85 -1.5" fill="#96c3ca" fill-rule="evenodd" stroke="none"/>
    <path d="M1.7 -1.75 L1.85 -1.7 2.2 -1.35 2.2 -1.25 2.05 -1.4 1.85 -1.5 1.7 -1.75" fill="#71e0e7" fill-rule="evenodd" stroke="none"/>
    <path d="M1.85 -1.4 L1.65 -1.55 Q1.55 -1.65 1.4 -1.65 L1.2 -1.7 Q1.05 -1.7 1.0 -1.6 L1.05 -1.7 1.15 -1.7 1.55 -1.7 Q1.7 -1.65 1.85 -1.5 L1.9 -1.35 1.85 -1.4" fill="#7aa1a9" fill-rule="evenodd" stroke="none"/>
    <path d="M-1.35 -1.1 L-1.35 -1.15 -1.35 -1.15 -1.3 -1.4 Q-1.3 -1.55 -1.2 -1.65 -1.1 -1.7 -0.95 -1.7 -0.8 -1.65 -0.75 -1.55 -0.6 -1.55 -0.55 -1.5 -0.45 -1.4 -0.5 -1.3 -0.55 -1.2 -0.45 -1.15 L-0.4 -1.1 -0.4 -1.05 -0.45 -1.05 -0.5 -0.95 -0.55 -1.0 -0.5 -1.1 Q-0.5 -1.1 -0.5 -1.15 L-0.5 -1.35 Q-0.55 -1.45 -0.65 -1.5 L-0.8 -1.5 -0.9 -1.55 Q-1.0 -1.6 -1.1 -1.55 -1.2 -1.5 -1.2 -1.35 L-1.25 -1.2 -1.35 -1.1" fill="#2095da" fill-rule="evenodd" stroke="none"/>
    <path d="M1.0 -1.4 Q0.95 -1.45 0.95 -1.45 L1.0 -1.55 1.25 -1.6 1.5 -1.55 Q1.65 -1.5 1.8 -1.3 L2.0 -0.9 2.0 -0.8 2.05 -0.65 Q2.05 -0.5 2.0 -0.4 L2.0 -0.7 1.95 -0.95 1.75 -1.25 1.5 -1.45 1.35 -1.5 1.25 -1.5 Q1.05 -1.55 1.0 -1.4 L1.0 -1.4" fill="#21373c" fill-rule="evenodd" stroke="none"/>
    <path d="M1.0 -1.55 Q1.2 -1.7 1.5 -1.6 1.75 -1.5 1.85 -1.25 L2.05 -0.95 Q2.1 -0.8 2.1 -0.65 2.1 -0.55 2.05 -0.45 L1.95 -0.3 1.85 -0.15 1.8 0.0 Q1.8 -0.1 1.85 -0.2 L2.0 -0.4 Q2.05 -0.5 2.05 -0.65 L2.0 -0.8 2.0 -0.9 1.8 -1.3 Q1.65 -1.5 1.5 -1.55 L1.25 -1.6 1.0 -1.55" fill="#2c565f" fill-rule="evenodd" stroke="none"/>
    <path d="M1.0 -1.6 Q1.05 -1.7 1.2 -1.7 L1.4 -1.65 Q1.55 -1.65 1.65 -1.55 L1.85 -1.4 1.9 -1.25 1.85 -1.25 Q1.75 -1.5 1.5 -1.6 1.2 -1.7 1.0 -1.55 L0.95 -1.45 Q0.95 -1.45 1.0 -1.4 L0.95 -1.4 Q0.9 -1.45 0.95 -1.5 L1.0 -1.6" fill="#5a7880" fill-rule="evenodd" stroke="none"/>
    <path d="M-0.9 -1.35 L-1.0 -1.35 -1.05 -1.45 -1.15 -1.45 -1.2 -1.35 Q-1.2 -1.5 -1.1 -1.55 -1.0 -1.6 -0.9 -1.55 L-0.8 -1.5 -0.65 -1.5 Q-0.55 -1.45 -0.5 -1.35 L-0.7 -1.4 -0.9 -1.35" fill="#1574c7" fill-rule="evenodd" stroke="none"/>
    <path d="M-2.2 -1.3 L-2.2 -1.6 -1.85 -1.6 -1.5 -1.6 -1.5 -1.35 -1.85 -1.4 -2.2 -1.3" fill="#43ecf9" fill-rule="evenodd" stroke="none"/>
    <path d="M1.3 -1.1 L1.35 -1.25 Q1.4 -1.4 1.3 -1.4 L1.15 -1.4 1.05 -1.35 1.05 -1.3 1.0 -1.25 1.0 -1.4 Q1.05 -1.55 1.25 -1.5 L1.35 -1.5 1.5 -1.45 1.75 -1.25 1.95 -0.95 2.0 -0.7 2.0 -0.4 1.85 -0.2 Q1.8 -0.1 1.8 0.0 L1.7 0.1 Q1.65 0.1 1.6 0.0 L1.55 -0.05 1.5 -0.15 1.5 -0.3 1.4 -0.4 1.45 -0.5 1.55 -0.6 1.5 -0.65 1.7 -0.7 1.85 -0.65 Q1.95 -0.75 1.9 -0.9 L1.8 -1.1 1.65 -1.3 Q1.55 -1.4 1.45 -1.35 L1.5 -1.15 1.5 -0.9 1.4 -0.9 1.3 -0.9 1.3 -0.95 1.3 -1.05 1.3 -1.1 M1.3 -0.9 L1.3 -0.9 M1.0 -1.25 L1.0 -1.25" fill="#111a23" fill-rule="evenodd" stroke="none"/>
    <path d="M1.3 -0.9 L1.4 -0.9 1.5 -0.9 1.5 -1.15 1.45 -1.35 Q1.55 -1.4 1.65 -1.3 L1.8 -1.1 1.9 -0.9 Q1.95 -0.75 1.85 -0.65 L1.7 -0.7 1.5 -0.65 1.45 -0.7 1.4 -0.8 1.3 -0.9" fill="#080d0e" fill-rule="evenodd" stroke="none"/>
    <path d="M1.9 -1.35 L1.85 -1.5 1.85 -1.5 2.05 -1.4 2.2 -1.25 2.2 -1.1 Q2.0 -1.2 1.9 -1.35" fill="#56c2d2" fill-rule="evenodd" stroke="none"/>
    <path d="M1.85 -1.25 L1.9 -1.25 2.2 -0.95 2.2 -0.45 1.95 -0.3 2.05 -0.45 Q2.1 -0.55 2.1 -0.65 2.1 -0.8 2.05 -0.95 L1.85 -1.25" fill="#297587" fill-rule="evenodd" stroke="none"/>
    <path d="M1.9 -1.25 L1.85 -1.4 1.9 -1.35 Q2.0 -1.2 2.2 -1.1 L2.2 -0.95 1.9 -1.25" fill="#3c99ad" fill-rule="evenodd" stroke="none"/>
    <path d="M0.6 -1.15 L0.7 -1.2 0.8 -1.25 Q0.8 -1.15 0.85 -1.1 L0.95 -1.15 1.0 -1.15 1.1 -1.1 1.15 -1.05 1.25 -1.0 1.3 -0.95 1.3 -0.9 1.3 -0.8 1.05 -0.8 0.85 -0.7 0.8 -0.7 0.7 -0.75 0.65 -0.85 0.7 -0.9 0.75 -0.95 0.7 -0.95 Q0.65 -0.95 0.7 -1.0 L0.65 -1.05 0.65 -1.1 0.65 -1.15 Q0.6 -1.1 0.6 -1.15" fill="#09101e" fill-rule="evenodd" stroke="none"/>
    <path d="M0.9 -1.15 L0.95 -1.15 0.85 -1.1 Q0.8 -1.15 0.8 -1.25 L0.9 -1.15" fill="#78c5f9" fill-rule="evenodd" stroke="none"/>
    <path d="M0.8 -1.25 L0.85 -1.4 0.95 -1.4 1.0 -1.4 1.0 -1.25 Q0.9 -1.25 0.9 -1.15 L0.8 -1.25 M1.0 -1.4 L1.0 -1.4" fill="#2f5364" fill-rule="evenodd" stroke="none"/>
    <path d="M1.0 -1.25 L1.05 -1.3 1.05 -1.35 1.15 -1.4 1.3 -1.4 Q1.4 -1.4 1.35 -1.25 L1.3 -1.1 1.3 -1.15 1.25 -1.2 1.15 -1.2 1.1 -1.2 Q1.05 -1.25 1.0 -1.2 1.0 -1.15 1.0 -1.15 L0.95 -1.15 0.9 -1.15 Q0.95 -1.15 1.0 -1.25" fill="#293941" fill-rule="evenodd" stroke="none"/>
    <path d="M1.1 -1.2 L1.15 -1.2 1.15 -1.05 1.1 -1.1 1.1 -1.2" fill="#314e59" fill-rule="evenodd" stroke="none"/>
    <path d="M1.0 -1.15 Q1.0 -1.15 1.0 -1.2 1.05 -1.25 1.1 -1.2 L1.1 -1.1 1.0 -1.15" fill="#86aecf" fill-rule="evenodd" stroke="none"/>
    <path d="M1.0 -1.25 Q0.95 -1.15 0.9 -1.15 0.9 -1.25 1.0 -1.25 L1.0 -1.25" fill="#8cbdfa" fill-rule="evenodd" stroke="none"/>
    <path d="M1.15 -1.2 L1.25 -1.2 1.3 -1.15 1.3 -1.1 1.3 -1.05 1.25 -1.15 1.15 -1.2" fill="#466276" fill-rule="evenodd" stroke="none"/>
    <path d="M-1.4 -1.05 L-1.35 -1.1 -1.25 -1.2 -1.2 -1.35 -1.15 -1.45 -1.05 -1.45 -1.0 -1.35 -0.9 -1.35 -1.0 -1.3 -1.0 -1.25 -0.95 -1.2 -0.85 -1.2 -0.75 -1.2 Q-0.7 -1.2 -0.65 -1.15 L-0.7 -1.1 -0.85 -1.1 -0.95 -1.1 -1.05 -1.1 -1.25 -1.1 -1.4 -1.0 -1.4 -1.05" fill="#2079ab" fill-rule="evenodd" stroke="none"/>
    <path d="M-0.65 -1.15 Q-0.7 -1.2 -0.75 -1.2 L-0.85 -1.2 -0.95 -1.2 -1.0 -1.25 -1.0 -1.3 -0.9 -1.35 -0.7 -1.4 -0.5 -1.35 -0.5 -1.15 Q-0.55 -1.05 -0.6 -1.1 L-0.65 -1.15" fill="#145a94" fill-rule="evenodd" stroke="none"/>
    <path d="M-2.05 -0.35 L-1.95 -0.55 -1.9 -0.7 Q-1.85 -0.8 -1.95 -0.85 L-2.1 -0.95 -2.1 -1.1 -1.95 -1.2 -1.8 -1.2 -1.7 -1.2 Q-1.6 -1.1 -1.5 -1.1 -1.45 -1.05 -1.35 -1.15 L-1.35 -1.1 -1.4 -1.05 -1.5 -0.95 -1.65 -0.9 Q-1.6 -1.0 -1.7 -1.05 L-1.85 -1.05 Q-1.9 -1.0 -1.85 -0.95 L-1.8 -0.85 -1.75 -0.8 -1.85 -0.6 -1.95 -0.35 -2.05 -0.35" fill="#54aab7" fill-rule="evenodd" stroke="none"/>
    <path d="M-2.2 -0.25 L-2.2 -0.4 -2.1 -0.5 Q-2.05 -0.6 -2.0 -0.65 -2.0 -0.75 -2.05 -0.8 L-2.2 -0.9 -2.2 -1.15 -2.0 -1.25 -1.85 -1.3 Q-1.75 -1.35 -1.6 -1.2 -1.45 -1.1 -1.4 -1.15 L-1.35 -1.15 Q-1.45 -1.05 -1.5 -1.1 -1.6 -1.1 -1.7 -1.2 L-1.8 -1.2 -1.95 -1.2 -2.1 -1.1 -2.1 -0.95 -1.95 -0.85 Q-1.85 -0.8 -1.9 -0.7 L-1.95 -0.55 -2.05 -0.35 -2.2 -0.25 M-1.35 -1.15 L-1.35 -1.15" fill="#53c0cd" fill-rule="evenodd" stroke="none"/>
    <path d="M-2.2 -1.15 L-2.2 -1.3 -1.85 -1.4 -1.5 -1.35 -1.4 -1.35 -1.4 -1.15 Q-1.45 -1.1 -1.6 -1.2 -1.75 -1.35 -1.85 -1.3 L-2.0 -1.25 -2.2 -1.15" fill="#47d4e4" fill-rule="evenodd" stroke="none"/>
    <path d="M1.3 -0.9 L1.3 -0.9 1.4 -0.8 1.45 -0.7 1.45 -0.5 1.4 -0.55 1.35 -0.4 1.35 -0.2 1.3 -0.15 Q1.3 -0.2 1.3 -0.25 L1.3 -0.3 1.2 -0.3 1.2 -0.35 Q1.3 -0.4 1.25 -0.45 L1.3 -0.55 1.35 -0.65 Q1.4 -0.75 1.3 -0.8 L1.3 -0.9" fill="#81feff" fill-rule="evenodd" stroke="none"/>
    <path d="M0.45 -0.95 Q0.35 -1.0 0.45 -1.05 L0.5 -1.1 0.6 -1.15 Q0.6 -1.1 0.65 -1.15 L0.65 -1.1 0.6 -1.05 Q0.6 -1.05 0.55 -1.1 L0.45 -0.95" fill="#2d63e4" fill-rule="evenodd" stroke="none"/>
    <path d="M1.15 -1.05 L1.15 -1.2 1.25 -1.15 1.3 -1.05 1.25 -1.0 1.15 -1.05" fill="#c0e1f7" fill-rule="evenodd" stroke="none"/>
    <path d="M0.35 -1.15 L0.45 -1.15 0.3 -1.1 Q0.25 -1.05 0.2 -1.15 L0.3 -1.2 0.35 -1.15" fill="#b9ffff" fill-rule="evenodd" stroke="none"/>
    <path d="M0.05 -1.05 Q0.15 -1.05 0.2 -0.95 L0.1 -0.95 0.05 -1.05" fill="#111d66" fill-rule="evenodd" stroke="none"/>
    <path d="M0.4 -0.95 L0.25 -0.95 Q0.2 -0.95 0.2 -1.05 L0.4 -0.95" fill="#1d439f" fill-rule="evenodd" stroke="none"/>
    <path d="M-0.1 -1.15 Q-0.05 -1.1 -0.05 -0.95 L-0.05 -0.85 0.0 -0.75 -0.05 -0.8 -0.1 -0.8 -0.15 -0.7 -0.2 -0.75 Q-0.2 -0.8 -0.25 -0.85 L-0.35 -0.95 Q-0.35 -1.0 -0.25 -1.0 -0.35 -0.95 -0.25 -0.95 -0.2 -0.95 -0.25 -0.9 L-0.25 -0.85 Q-0.15 -0.8 -0.1 -0.9 L-0.05 -0.95 -0.1 -1.0 -0.15 -1.05 -0.1 -1.15" fill="#71feff" fill-rule="evenodd" stroke="none"/>
    <path d="M-0.65 -1.15 L-0.6 -1.1 -0.55 -1.0 -0.5 -0.95 -0.45 -0.9 -0.35 -0.95 -0.25 -0.85 Q-0.2 -0.8 -0.2 -0.75 L-0.3 -0.7 Q-0.35 -0.8 -0.4 -0.75 L-0.4 -0.65 -0.55 -0.9 -0.7 -1.1 -0.65 -1.15" fill="#46f2fe" fill-rule="evenodd" stroke="none"/>
    <path d="M-0.25 -0.6 Q-0.1 -0.65 -0.15 -0.7 L-0.1 -0.8 -0.05 -0.8 0.0 -0.75 Q0.05 -0.7 -0.05 -0.65 L-0.15 -0.6 -0.2 -0.55 -0.25 -0.55 -0.25 -0.6" fill="#30a1e7" fill-rule="evenodd" stroke="none"/>
    <path d="M1.3 -1.05 L1.3 -0.95 1.25 -1.0 1.3 -1.05" fill="#3d596c" fill-rule="evenodd" stroke="none"/>
    <path d="M0.5 -0.9 L0.45 -0.95 0.55 -1.1 Q0.6 -1.05 0.6 -1.05 L0.65 -1.1 0.65 -1.05 0.7 -1.0 Q0.65 -0.95 0.7 -0.95 L0.75 -0.95 0.7 -0.9 0.6 -0.95 0.55 -0.95 0.5 -0.9" fill="#091178" fill-rule="evenodd" stroke="none"/>
    <path d="M0.6 -0.75 L0.55 -0.85 0.5 -0.9 0.55 -0.95 0.6 -0.95 0.7 -0.9 0.65 -0.85 0.6 -0.75" fill="#2c47f2" fill-rule="evenodd" stroke="none"/>
    <path d="M0.55 -0.6 L0.55 -0.65 0.6 -0.7 0.6 -0.75 0.65 -0.85 0.7 -0.75 0.8 -0.7 0.55 -0.6 M0.6 -0.7 L0.6 -0.7" fill="#090f57" fill-rule="evenodd" stroke="none"/>
    <path d="M-1.95 -0.35 L-1.85 -0.6 -1.75 -0.8 -1.8 -0.85 -1.85 -0.95 Q-1.9 -1.0 -1.85 -1.05 L-1.7 -1.05 Q-1.6 -1.0 -1.65 -0.9 L-1.5 -0.95 -1.4 -1.05 -1.4 -1.0 -1.5 -0.85 -1.65 -0.7 Q-1.85 -0.55 -1.9 -0.4 L-1.9 -0.35 -1.95 -0.3 -1.95 -0.35" fill="#54929f" fill-rule="evenodd" stroke="none"/>
    <path d="M-1.05 -1.1 L-0.95 -1.1 -0.85 -1.1 Q-0.9 -1.05 -1.0 -1.05 L-1.2 -1.0 -1.1 -0.8 -1.15 -0.8 -1.15 -0.9 Q-1.2 -0.9 -1.2 -0.9 L-1.3 -0.85 -1.4 -0.85 -1.25 -1.0 Q-1.2 -1.1 -1.05 -1.1" fill="#24444b" fill-rule="evenodd" stroke="none"/>
    <path d="M-1.4 -1.0 L-1.25 -1.1 -1.05 -1.1 Q-1.2 -1.1 -1.25 -1.0 L-1.4 -0.85 -1.3 -0.85 -1.2 -0.9 Q-1.2 -0.9 -1.15 -0.9 L-1.15 -0.8 -1.1 -0.8 -1.1 -0.75 Q-1.1 -0.7 -1.1 -0.7 L-1.3 -0.65 -1.35 -0.6 Q-1.4 -0.6 -1.4 -0.65 L-1.5 -0.7 Q-1.7 -0.7 -1.75 -0.5 -1.85 -0.35 -1.75 -0.2 L-1.75 -0.1 -1.85 -0.25 -1.9 -0.4 Q-1.85 -0.55 -1.65 -0.7 L-1.5 -0.85 -1.4 -1.0 M-1.3 -0.65 Q-1.2 -0.75 -1.2 -0.85 L-1.3 -0.85 -1.4 -0.75 -1.4 -0.7 Q-1.35 -0.65 -1.3 -0.65" fill="#39626e" fill-rule="evenodd" stroke="none"/>
    <path d="M-1.3 -0.65 Q-1.35 -0.65 -1.4 -0.7 L-1.4 -0.75 -1.3 -0.85 -1.2 -0.85 Q-1.2 -0.75 -1.3 -0.65 L-1.3 -0.65" fill="#5c838e" fill-rule="evenodd" stroke="none"/>
    <path d="M-2.2 -0.4 L-2.2 -0.9 -2.05 -0.8 Q-2.0 -0.75 -2.0 -0.65 -2.05 -0.6 -2.1 -0.5 L-2.2 -0.4" fill="#65dce4" fill-rule="evenodd" stroke="none"/>
    <path d="M-0.6 -1.1 Q-0.55 -1.05 -0.5 -1.15 -0.5 -1.1 -0.5 -1.1 L-0.55 -1.0 -0.6 -1.1" fill="#29aef3" fill-rule="evenodd" stroke="none"/>
    <path d="M0.05 -0.75 Q0.1 -0.8 0.2 -0.8 L0.2 -0.75 0.25 -0.7 Q0.2 -0.65 0.25 -0.6 L0.2 -0.6 0.1 -0.6 0.15 -0.65 0.05 -0.75" fill="#83f8fb" fill-rule="evenodd" stroke="none"/>
    <path d="M0.0 -0.75 L0.05 -0.75 0.15 -0.65 0.1 -0.6 -0.15 -0.6 -0.05 -0.65 Q0.05 -0.7 0.0 -0.75" fill="#4aeafb" fill-rule="evenodd" stroke="none"/>
    <path d="M0.55 -0.65 L0.5 -0.6 0.4 -0.55 0.45 -0.6 0.4 -0.7 0.5 -0.65 0.55 -0.65" fill="#2860ff" fill-rule="evenodd" stroke="none"/>
    <path d="M-0.3 -0.7 L-0.35 -0.65 -0.25 -0.6 -0.3 -0.6 -0.35 -0.65 -0.4 -0.65 -0.4 -0.75 Q-0.35 -0.8 -0.3 -0.7" fill="#269be7" fill-rule="evenodd" stroke="none"/>
    <path d="M-0.25 -0.6 L-0.35 -0.65 -0.3 -0.7 -0.2 -0.75 -0.15 -0.7 Q-0.1 -0.65 -0.25 -0.6" fill="#226ba0" fill-rule="evenodd" stroke="none"/>
    <path d="M0.85 -0.65 L1.05 -0.75 1.15 -0.7 1.0 -0.5 Q0.9 -0.45 0.8 -0.4 L0.6 -0.45 0.65 -0.55 0.7 -0.6 0.85 -0.65" fill="#1664b8" fill-rule="evenodd" stroke="none"/>
    <path d="M1.05 -0.75 Q1.1 -0.8 1.25 -0.75 1.35 -0.7 1.25 -0.6 1.25 -0.65 1.2 -0.6 L1.15 -0.55 1.1 -0.4 1.0 -0.3 Q1.0 -0.4 0.9 -0.35 L0.8 -0.35 0.65 -0.4 0.55 -0.3 0.45 -0.35 Q0.55 -0.55 0.7 -0.6 L0.65 -0.55 0.6 -0.45 0.8 -0.4 Q0.9 -0.45 1.0 -0.5 L1.15 -0.7 1.05 -0.75" fill="#25a8f8" fill-rule="evenodd" stroke="none"/>
    <path d="M0.6 -0.7 Q0.55 -0.65 0.55 -0.7 0.55 -0.75 0.6 -0.7 L0.6 -0.7" fill="#2342ff" fill-rule="evenodd" stroke="none"/>
    <path d="M-1.75 -0.2 Q-1.85 -0.35 -1.75 -0.5 -1.7 -0.7 -1.5 -0.7 L-1.4 -0.65 Q-1.4 -0.6 -1.35 -0.6 L-1.45 -0.6 -1.55 -0.65 -1.65 -0.6 -1.75 -0.45 Q-1.8 -0.3 -1.65 -0.2 -1.6 -0.15 -1.5 -0.15 L-1.35 -0.1 -1.3 -0.05 -1.55 -0.1 Q-1.7 -0.1 -1.75 -0.2" fill="#21414f" fill-rule="evenodd" stroke="none"/>
    <path d="M-1.3 -0.65 L-1.1 -0.7 -1.25 -0.65 -1.35 -0.55 -1.55 -0.6 Q-1.7 -0.55 -1.7 -0.45 -1.75 -0.3 -1.6 -0.2 L-1.35 -0.1 -1.5 -0.15 Q-1.6 -0.15 -1.65 -0.2 -1.8 -0.3 -1.75 -0.45 L-1.65 -0.6 -1.55 -0.65 -1.45 -0.6 -1.35 -0.6 -1.3 -0.65" fill="#16272d" fill-rule="evenodd" stroke="none"/>
    <path d="M-0.9 -0.65 L-0.95 -0.7 -0.95 -0.8 -0.8 -0.8 Q-0.75 -0.8 -0.75 -0.7 -0.7 -0.65 -0.75 -0.6 L-0.85 -0.6 Q-0.8 -0.65 -0.8 -0.7 -0.8 -0.75 -0.85 -0.75 L-0.9 -0.75 -0.9 -0.65" fill="#1b8ea0" fill-rule="evenodd" stroke="none"/>
    <path d="M-0.85 -0.6 L-0.85 -0.65 -0.9 -0.65 -0.9 -0.75 -0.85 -0.75 Q-0.8 -0.75 -0.8 -0.7 -0.8 -0.65 -0.85 -0.6" fill="#104660" fill-rule="evenodd" stroke="none"/>
    <path d="M0.3 -0.35 L0.45 -0.45 0.55 -0.6 0.8 -0.7 0.85 -0.7 0.85 -0.65 0.7 -0.6 Q0.55 -0.55 0.45 -0.35 L0.55 -0.3 0.9 0.2 0.75 0.35 0.6 0.5 Q0.55 0.6 0.45 0.55 0.35 0.5 0.35 0.4 L0.35 0.2 Q0.35 0.05 0.25 0.05 L0.2 -0.05 0.15 -0.15 0.05 -0.2 Q0.0 -0.25 -0.05 -0.2 L-0.15 -0.15 -0.2 -0.15 -0.1 -0.2 Q-0.05 -0.25 0.0 -0.3 L0.05 -0.3 0.2 -0.25 Q0.3 -0.2 0.25 -0.15 L0.4 0.05 Q0.45 0.15 0.45 0.3 0.45 0.35 0.5 0.4 L0.6 0.45 0.7 0.3 0.75 0.15 0.7 0.1 0.6 0.1 0.65 0.0 0.7 -0.05 0.55 -0.05 Q0.5 -0.1 0.5 -0.2 L0.35 -0.2 Q0.25 -0.25 0.3 -0.35" fill="#4ffcff" fill-rule="evenodd" stroke="none"/>
    <path d="M1.5 -0.65 L1.55 -0.6 1.45 -0.5 1.4 -0.4 1.35 -0.3 1.35 -0.2 1.35 -0.4 1.4 -0.55 1.45 -0.5 1.45 -0.7 1.5 -0.65" fill="#d6f8fc" fill-rule="evenodd" stroke="none"/>
    <path d="M1.4 -0.4 L1.5 -0.3 1.5 -0.15 1.55 -0.05 1.6 0.0 Q1.65 0.1 1.7 0.1 L1.7 0.2 1.6 0.35 1.55 0.55 1.45 0.7 1.35 0.9 1.2 1.0 1.15 1.0 1.1 1.05 1.05 1.15 0.9 1.15 0.85 1.15 0.8 1.15 0.75 1.15 Q0.65 1.1 0.75 1.05 L0.9 0.9 1.05 0.7 Q1.1 0.55 1.25 0.45 L1.4 0.3 1.55 0.2 1.45 0.15 1.4 0.15 Q1.3 0.1 1.25 -0.05 L1.3 -0.15 1.35 -0.2 1.35 -0.3 1.4 -0.4" fill="#061a4e" fill-rule="evenodd" stroke="none"/>
    <path d="M2.2 -0.2 L2.0 -0.2 1.9 -0.1 Q1.9 -0.2 2.0 -0.25 L2.2 -0.35 2.2 -0.2" fill="#46c9dc" fill-rule="evenodd" stroke="none"/>
    <path d="M1.9 -0.1 L2.0 -0.2 2.2 -0.2 2.2 0.7 2.0 0.6 1.9 0.45 1.85 0.35 1.8 0.3 1.65 0.45 1.55 0.55 1.6 0.35 1.7 0.2 1.8 0.05 1.9 -0.1" fill="#4bf7fc" fill-rule="evenodd" stroke="none"/>
    <path d="M1.7 0.1 L1.8 0.0 1.85 -0.15 1.95 -0.3 2.2 -0.45 2.2 -0.35 2.0 -0.25 Q1.9 -0.2 1.9 -0.1 L1.8 0.05 1.7 0.2 1.7 0.1" fill="#3c99ab" fill-rule="evenodd" stroke="none"/>
    <path d="M0.25 -0.6 L0.3 -0.6 0.2 -0.55 Q0.2 -0.5 0.25 -0.45 L0.25 -0.45 0.05 -0.3 0.0 -0.3 0.1 -0.45 0.2 -0.6 0.25 -0.6" fill="#091158" fill-rule="evenodd" stroke="none"/>
    <path d="M0.3 -0.6 L0.4 -0.6 0.35 -0.5 0.3 -0.5 0.3 -0.45 0.25 -0.45 Q0.2 -0.5 0.2 -0.55 L0.3 -0.6" fill="#1f40f7" fill-rule="evenodd" stroke="none"/>
    <path d="M-0.35 -0.65 L-0.3 -0.6 -0.25 -0.6 -0.25 -0.55 -0.5 -0.5 -0.35 -0.65" fill="#43f5fd" fill-rule="evenodd" stroke="none"/>
    <path d="M0.35 -0.5 L0.3 -0.45 0.3 -0.5 0.35 -0.5" fill="#47bcff" fill-rule="evenodd" stroke="none"/>
    <path d="M0.25 0.05 L0.25 0.3 0.2 0.45 Q0.2 0.5 0.3 0.5 0.25 0.55 0.3 0.65 0.35 0.75 0.35 0.8 L0.6 0.95 Q0.65 0.95 0.6 1.0 L0.55 1.05 Q0.5 1.0 0.45 1.0 L0.35 1.0 0.25 0.95 0.2 0.9 0.2 0.8 0.15 0.65 0.2 0.55 0.1 0.5 0.05 0.4 Q0.05 0.35 0.1 0.3 0.2 0.25 0.2 0.15 0.2 0.0 0.1 -0.05 L0.05 -0.1 0.05 -0.15 -0.05 -0.2 Q0.0 -0.25 0.05 -0.2 L0.15 -0.15 0.2 -0.05 0.25 0.05" fill="#2abdfd" fill-rule="evenodd" stroke="none"/>
    <path d="M0.25 -0.45 L0.3 -0.35 Q0.25 -0.25 0.35 -0.2 L0.5 -0.2 Q0.5 -0.1 0.55 -0.05 L0.7 -0.05 0.65 0.0 0.6 0.1 0.7 0.1 0.75 0.15 0.7 0.3 0.6 0.45 0.5 0.4 Q0.45 0.35 0.45 0.3 0.45 0.15 0.4 0.05 L0.25 -0.15 Q0.3 -0.2 0.2 -0.25 L0.05 -0.3 0.25 -0.45" fill="#67feff" fill-rule="evenodd" stroke="none"/>
    <path d="M-2.2 0.3 L-2.2 0.15 -2.0 0.1 Q-1.85 0.05 -1.85 -0.05 L-1.9 -0.35 -1.9 -0.4 -1.85 -0.25 -1.75 -0.1 -1.75 -0.1 Q-1.65 0.0 -1.7 0.1 L-1.85 0.2 -2.2 0.3" fill="#2167a7" fill-rule="evenodd" stroke="none"/>
    <path d="M-2.2 0.0 L-2.2 -0.25 -2.05 -0.35 -1.95 -0.35 -1.95 -0.3 -2.0 -0.1 Q-2.05 0.0 -2.2 0.0" fill="#3b9ccd" fill-rule="evenodd" stroke="none"/>
    <path d="M-1.75 -0.1 L-1.75 -0.2 Q-1.7 -0.1 -1.55 -0.1 L-1.3 -0.05 -1.25 -0.05 -1.35 -0.05 Q-1.4 -0.05 -1.4 0.0 L-1.3 0.05 Q-1.2 0.1 -1.25 0.2 -1.3 0.25 -1.25 0.35 L-1.15 0.5 -1.3 0.45 -1.4 0.35 -1.5 0.3 -1.55 0.2 -1.6 0.1 -1.55 0.05 -1.75 -0.1 -1.75 -0.1" fill="#11467f" fill-rule="evenodd" stroke="none"/>
    <path d="M-2.2 0.15 L-2.2 0.0 Q-2.05 0.0 -2.0 -0.1 L-1.95 -0.3 -1.9 -0.35 -1.85 -0.05 Q-1.85 0.05 -2.0 0.1 L-2.2 0.15" fill="#2c7ebb" fill-rule="evenodd" stroke="none"/>
    <path d="M-0.75 -0.35 Q-0.85 -0.4 -0.8 -0.45 L-0.7 -0.5 -0.65 -0.55 Q-0.55 -0.55 -0.55 -0.45 L-0.6 -0.35 Q-0.65 -0.25 -0.75 -0.35" fill="#7cb4cb" fill-rule="evenodd" stroke="none"/>
    <path d="M0.8 1.15 L0.7 1.2 0.55 1.1 Q0.55 1.05 0.65 1.05 L0.7 0.95 0.8 0.85 0.8 0.7 0.95 0.55 1.05 0.4 Q1.15 0.45 1.25 0.4 L1.35 0.25 1.15 0.15 1.2 0.05 1.25 -0.05 Q1.3 0.1 1.4 0.15 L1.45 0.15 1.55 0.2 1.4 0.3 1.25 0.45 Q1.1 0.55 1.05 0.7 L0.9 0.9 0.75 1.05 Q0.65 1.1 0.75 1.15 L0.8 1.15" fill="#07306c" fill-rule="evenodd" stroke="none"/>
    <path d="M0.05 -0.1 L0.1 -0.05 0.1 0.1 0.05 0.2 0.05 -0.1" fill="#2376c5" fill-rule="evenodd" stroke="none"/>
    <path d="M-0.15 -0.1 Q-0.35 -0.1 -0.35 0.1 L-0.4 0.3 -0.4 0.45 -0.45 0.65 Q-0.45 0.75 -0.5 0.8 L-0.5 0.95 Q-0.5 1.05 -0.55 1.0 L-0.45 0.5 -0.4 0.0 Q-0.4 -0.05 -0.35 -0.1 L-0.2 -0.15 -0.15 -0.15 -0.15 -0.1" fill="#1aa1e1" fill-rule="evenodd" stroke="none"/>
    <path d="M-0.05 -0.2 L0.05 -0.15 0.05 -0.1 0.05 0.2 0.05 0.25 Q0.05 0.25 0.0 0.25 L-0.05 0.3 Q-0.1 0.25 -0.1 0.15 L0.0 0.0 -0.05 -0.1 -0.15 -0.1 -0.15 -0.15 -0.05 -0.2" fill="#1a5c9a" fill-rule="evenodd" stroke="none"/>
    <path d="M-2.2 0.45 L-2.2 0.3 -1.85 0.2 -1.7 0.1 Q-1.65 0.0 -1.75 -0.1 L-1.55 0.05 -1.6 0.1 -1.55 0.2 Q-1.6 0.3 -1.5 0.35 L-1.35 0.45 Q-1.5 0.4 -1.6 0.5 -1.75 0.55 -1.75 0.7 -1.75 0.55 -1.9 0.45 L-2.2 0.45" fill="#15549f" fill-rule="evenodd" stroke="none"/>
    <path d="M0.1 -0.05 Q0.2 0.0 0.2 0.15 0.2 0.25 0.1 0.3 0.05 0.35 0.05 0.4 L0.1 0.5 0.2 0.55 0.15 0.65 0.1 0.55 0.0 0.45 0.0 0.35 0.05 0.25 0.05 0.2 0.1 0.1 0.1 -0.05" fill="#2497f8" fill-rule="evenodd" stroke="none"/>
    <path d="M-2.2 0.5 L-2.2 0.45 -1.9 0.45 Q-1.75 0.55 -1.75 0.7 -1.7 0.85 -1.55 0.9 L-1.25 0.85 Q-1.2 0.75 -1.2 0.6 -1.25 0.45 -1.35 0.45 L-1.5 0.35 Q-1.6 0.3 -1.55 0.2 L-1.5 0.3 -1.4 0.35 -1.3 0.45 -1.15 0.5 -1.25 0.35 Q-1.3 0.25 -1.25 0.2 -1.2 0.1 -1.3 0.05 L-1.4 0.0 Q-1.4 -0.05 -1.35 -0.05 L-1.25 -0.05 -1.1 0.05 Q-0.95 0.05 -0.9 0.15 L-0.85 0.35 Q-0.95 0.4 -0.95 0.35 L-0.95 0.2 -1.05 0.2 Q-1.05 0.15 -1.1 0.15 -1.15 0.1 -1.2 0.2 -1.25 0.25 -1.2 0.3 L-1.05 0.4 -0.95 0.4 Q-1.0 0.4 -1.05 0.5 L-1.15 0.65 -1.15 0.8 Q-1.15 0.9 -1.2 0.95 L-1.6 0.95 Q-1.8 0.9 -1.85 0.7 -1.9 0.65 -2.0 0.55 -2.05 0.5 -2.2 0.5" fill="#0c4599" fill-rule="evenodd" stroke="none"/>
    <path d="M-1.1 0.05 Q-1.0 0.0 -0.95 0.05 L-0.8 0.15 -0.85 0.45 -0.8 0.8 -0.85 0.9 -0.85 0.95 -0.9 0.95 -0.9 0.8 -0.85 0.6 -0.9 0.55 -0.85 0.35 -0.9 0.15 Q-0.95 0.05 -1.1 0.05" fill="#0e80c9" fill-rule="evenodd" stroke="none"/>
    <path d="M-0.85 0.35 L-0.9 0.55 -0.95 0.4 -1.05 0.4 -1.2 0.3 Q-1.25 0.25 -1.2 0.2 -1.15 0.1 -1.1 0.15 -1.05 0.15 -1.05 0.2 L-0.95 0.2 -0.95 0.35 Q-0.95 0.4 -0.85 0.35" fill="#094bcd" fill-rule="evenodd" stroke="none"/>
    <path d="M1.05 0.4 L1.1 0.35 1.15 0.25 1.15 0.15 1.35 0.25 1.25 0.4 Q1.15 0.45 1.05 0.4" fill="#0e4e97" fill-rule="evenodd" stroke="none"/>
    <path d="M1.1 0.35 L1.1 0.2 1.15 0.15 1.15 0.25 1.1 0.35" fill="#89f9ff" fill-rule="evenodd" stroke="none"/>
    <path d="M0.6 1.25 L0.5 1.4 0.4 1.45 0.3 1.45 0.25 1.35 Q0.05 1.3 0.1 1.2 0.15 0.95 0.0 0.8 L0.0 0.55 -0.05 0.3 0.0 0.25 Q0.05 0.25 0.05 0.25 L0.0 0.35 0.0 0.45 0.1 0.55 0.15 0.65 Q0.05 0.65 0.05 0.75 L0.15 0.9 Q0.1 1.0 0.15 1.05 L0.3 1.1 0.25 1.2 0.3 1.3 0.45 1.3 0.6 1.25" fill="#166ac8" fill-rule="evenodd" stroke="none"/>
    <path d="M0.0 0.8 L-0.05 0.65 -0.1 0.45 -0.2 0.45 -0.2 0.4 -0.15 0.3 -0.05 0.3 0.0 0.55 0.0 0.8 Q0.15 0.95 0.1 1.2 0.05 1.3 0.25 1.35 L0.3 1.45 0.4 1.45 0.5 1.4 0.6 1.25 0.75 1.25 0.95 1.2 0.95 1.3 1.0 1.4 1.1 1.25 1.2 1.1 Q1.25 1.05 1.2 1.0 L1.35 0.9 Q1.3 1.0 1.35 1.0 L1.4 0.9 1.45 0.9 1.55 0.9 1.6 1.15 1.7 1.4 Q1.95 1.6 2.2 1.55 L2.2 1.7 Q2.0 1.75 1.8 1.65 L1.55 1.4 Q1.5 1.35 1.5 1.25 L1.45 1.1 Q1.45 1.05 1.35 1.05 L1.25 1.1 1.15 1.3 1.05 1.45 0.95 1.45 0.9 1.4 0.85 1.35 0.8 1.45 0.75 1.5 0.5 1.5 0.3 1.55 Q0.1 1.45 0.0 1.2 -0.1 1.0 0.0 0.8" fill="#0f54a6" fill-rule="evenodd" stroke="none"/>
    <path d="M1.55 0.55 L1.65 0.45 1.8 0.3 1.85 0.35 1.9 0.45 2.0 0.6 2.2 0.7 2.2 1.05 Q2.0 1.05 1.95 0.85 L1.8 0.6 1.8 0.5 1.75 0.4 1.65 0.55 1.55 0.7 1.5 0.7 1.45 0.7 1.55 0.55" fill="#34e2fe" fill-rule="evenodd" stroke="none"/>
    <path d="M2.2 1.05 L2.2 1.2 Q2.0 1.2 1.85 1.05 1.75 0.9 1.7 0.7 L1.65 0.65 Q1.6 0.65 1.55 0.7 L1.65 0.55 1.75 0.4 1.8 0.5 1.8 0.6 1.95 0.85 Q2.0 1.05 2.2 1.05" fill="#2ac4fd" fill-rule="evenodd" stroke="none"/>
    <path d="M1.4 0.9 L1.35 1.0 Q1.3 1.0 1.35 0.9 L1.45 0.7 1.5 0.7 1.55 0.7 Q1.6 0.65 1.65 0.65 L1.7 0.7 Q1.75 0.9 1.85 1.05 2.0 1.2 2.2 1.2 L2.2 1.3 Q2.0 1.3 1.85 1.2 1.7 1.1 1.65 0.9 L1.55 0.8 1.5 0.8 1.4 0.9" fill="#20a2ef" fill-rule="evenodd" stroke="none"/>
    <path d="M2.2 1.3 L2.2 1.45 1.85 1.35 Q1.7 1.3 1.65 1.15 L1.6 0.95 Q1.55 0.8 1.5 0.8 L1.55 0.8 1.65 0.9 Q1.7 1.1 1.85 1.2 2.0 1.3 2.2 1.3" fill="#1982dd" fill-rule="evenodd" stroke="none"/>
    <path d="M1.9 2.2 L0.5 2.2 Q0.5 2.0 0.25 1.85 L0.1 1.7 -0.05 1.5 -0.15 1.35 -0.2 1.15 Q-0.2 1.1 -0.25 1.05 L-0.4 0.95 -0.4 1.0 -0.45 1.1 Q-0.45 1.25 -0.55 1.2 L-0.55 1.15 Q-0.5 1.15 -0.45 1.05 L-0.45 0.95 -0.4 0.85 -0.3 0.8 -0.3 0.8 -0.25 0.75 -0.2 0.75 Q-0.15 0.8 -0.15 1.05 -0.15 1.25 -0.1 1.35 L0.1 1.55 0.35 1.7 0.55 1.75 0.8 1.7 1.0 1.7 1.2 1.7 Q1.4 1.65 1.6 1.85 L1.75 2.05 1.9 2.2" fill="#092d54" fill-rule="evenodd" stroke="none"/>
    <path d="M-2.2 0.65 L-2.2 0.5 Q-2.05 0.5 -2.0 0.55 -1.9 0.65 -1.85 0.7 -1.8 0.9 -1.6 0.95 L-1.2 0.95 Q-1.15 0.9 -1.15 0.8 L-1.15 0.65 -1.05 0.5 Q-1.0 0.4 -0.95 0.4 L-0.9 0.55 -0.85 0.6 Q-0.9 0.55 -1.0 0.55 -1.05 0.55 -1.05 0.65 -1.15 0.65 -1.1 0.8 -1.1 0.95 -1.15 0.95 L-1.55 1.05 Q-1.8 1.05 -1.9 0.85 L-2.2 0.65" fill="#0a3d88" fill-rule="evenodd" stroke="none"/>
    <path d="M-2.2 0.95 L-2.2 0.65 -1.9 0.85 Q-1.8 1.05 -1.55 1.05 L-1.15 0.95 Q-1.1 0.95 -1.1 0.8 -1.15 0.65 -1.05 0.65 -1.05 0.55 -1.0 0.55 -0.9 0.55 -0.85 0.6 L-0.9 0.8 -0.9 0.95 -0.85 0.95 -0.85 0.9 -0.85 1.0 -0.9 1.1 -1.0 1.0 Q-1.05 0.95 -1.1 1.0 L-1.4 1.1 -1.7 1.15 -2.2 0.95" fill="#093775" fill-rule="evenodd" stroke="none"/>
    <path d="M-1.3 0.55 Q-1.2 0.65 -1.25 0.7 -1.3 0.8 -1.4 0.8 -1.5 0.85 -1.55 0.75 -1.6 0.7 -1.6 0.6 -1.55 0.55 -1.45 0.5 -1.35 0.45 -1.3 0.55" fill="#0e57d3" fill-rule="evenodd" stroke="none"/>
    <path d="M-0.4 0.45 L-0.4 0.65 -0.3 0.8 -0.5 0.8 Q-0.45 0.75 -0.45 0.65 L-0.4 0.45 M-0.3 0.8 L-0.3 0.8" fill="#0b57c3" fill-rule="evenodd" stroke="none"/>
    <path d="M0.7 0.55 L0.75 0.5 0.85 0.5 Q0.8 0.45 0.85 0.45 L0.95 0.4 Q1.0 0.45 0.9 0.55 L0.75 0.7 0.6 0.75 Q0.55 0.7 0.55 0.6 L0.65 0.6 0.7 0.55" fill="#27c9fe" fill-rule="evenodd" stroke="none"/>
    <path d="M0.7 0.95 L0.6 0.9 0.5 0.75 Q0.7 0.8 0.8 0.7 L0.8 0.85 0.7 0.95" fill="#094189" fill-rule="evenodd" stroke="none"/>
    <path d="M0.55 1.05 Q0.5 1.2 0.65 1.2 L0.8 1.2 0.9 1.15 1.05 1.15 1.1 1.05 1.15 1.0 1.2 1.0 Q1.25 1.05 1.2 1.1 L1.05 1.2 0.95 1.2 0.75 1.25 0.6 1.25 0.45 1.3 0.3 1.3 0.25 1.2 0.3 1.1 0.15 1.05 Q0.1 1.0 0.15 0.9 L0.05 0.75 Q0.05 0.65 0.15 0.65 L0.2 0.8 0.2 0.9 0.25 0.95 0.35 1.0 0.45 1.0 Q0.5 1.0 0.55 1.05" fill="#1a93eb" fill-rule="evenodd" stroke="none"/>
    <path d="M-0.2 0.6 L-0.25 0.55 Q-0.25 0.5 -0.15 0.5 L-0.1 0.5 -0.15 0.55 -0.2 0.6" fill="#0c47a8" fill-rule="evenodd" stroke="none"/>
    <path d="M2.2 1.45 L2.2 1.55 Q1.95 1.6 1.7 1.4 L1.6 1.15 1.55 0.9 1.45 0.9 1.4 0.9 1.5 0.8 Q1.55 0.8 1.6 0.95 L1.65 1.15 Q1.7 1.3 1.85 1.35 L2.2 1.45" fill="#1469c1" fill-rule="evenodd" stroke="none"/>
    <path d="M2.2 1.7 L2.2 1.9 1.8 1.8 1.5 1.6 Q1.35 1.45 1.2 1.5 1.1 1.6 0.9 1.6 L0.7 1.6 0.5 1.6 0.3 1.6 0.1 1.4 Q-0.05 1.3 -0.1 1.15 -0.15 0.95 0.0 0.8 -0.1 1.0 0.0 1.2 0.1 1.45 0.3 1.55 L0.5 1.5 0.75 1.5 0.8 1.45 0.85 1.35 0.9 1.4 0.95 1.45 1.05 1.45 1.15 1.3 1.25 1.1 1.35 1.05 Q1.45 1.05 1.45 1.1 L1.5 1.25 Q1.5 1.35 1.55 1.4 L1.8 1.65 Q2.0 1.75 2.2 1.7" fill="#0c4488" fill-rule="evenodd" stroke="none"/>
    <path d="M-2.2 1.25 L-2.2 0.95 -1.7 1.15 -1.4 1.1 -1.1 1.0 Q-1.05 0.95 -1.0 1.0 L-0.9 1.1 -0.85 1.0 -0.85 0.9 -0.8 0.8 -0.8 1.0 -0.8 1.1 -0.9 1.2 -1.0 1.2 -1.15 1.15 -1.35 1.25 -1.75 1.3 -2.2 1.25" fill="#082d5a" fill-rule="evenodd" stroke="none"/>
    <path d="M-0.55 1.15 L-0.55 1.05 -0.55 1.0 Q-0.5 1.05 -0.5 0.95 L-0.5 0.8 -0.3 0.8 -0.4 0.85 -0.45 0.95 -0.45 1.05 Q-0.5 1.15 -0.55 1.15" fill="#093f7b" fill-rule="evenodd" stroke="none"/>
    <path d="M-2.2 1.4 L-2.2 1.25 -1.75 1.3 -1.35 1.25 -1.15 1.15 -1.0 1.2 -0.9 1.2 -0.8 1.1 Q-0.8 1.3 -0.9 1.45 -1.0 1.65 -1.2 1.7 L-1.25 1.6 Q-1.3 1.5 -1.35 1.5 L-2.2 1.4" fill="#082440" fill-rule="evenodd" stroke="none"/>
    <path d="M0.2 2.2 L-1.5 2.2 -1.5 1.95 -1.6 1.75 -2.2 1.6 -2.2 1.4 -1.35 1.5 Q-1.3 1.5 -1.25 1.6 L-1.2 1.7 Q-1.0 1.65 -0.9 1.45 -0.8 1.3 -0.8 1.1 L-0.8 1.0 -0.75 1.2 -0.75 1.4 -0.7 1.45 -0.65 1.4 Q-0.6 1.4 -0.55 1.25 L-0.55 1.05 -0.55 1.15 -0.55 1.2 -0.5 1.4 -0.4 1.3 -0.35 1.25 -0.3 1.35 -0.2 1.5 0.0 1.85 Q0.15 2.05 0.2 2.2" fill="#091f2f" fill-rule="evenodd" stroke="none"/>
    <path d="M-1.5 2.2 L-2.2 2.2 -2.2 1.6 -1.6 1.75 -1.5 1.95 -1.5 2.2" fill="#061723" fill-rule="evenodd" stroke="none"/>
    <path d="M0.5 2.2 L0.2 2.2 Q0.15 2.05 0.0 1.85 L-0.2 1.5 -0.3 1.35 -0.35 1.25 -0.4 1.3 -0.5 1.4 -0.55 1.2 Q-0.45 1.25 -0.45 1.1 L-0.4 1.0 -0.4 0.95 -0.25 1.05 Q-0.2 1.1 -0.2 1.15 L-0.15 1.35 -0.05 1.5 0.1 1.7 0.25 1.85 Q0.5 2.0 0.5 2.2" fill="#072541" fill-rule="evenodd" stroke="none"/>
    <path d="M1.2 1.1 L1.1 1.25 1.0 1.4 0.95 1.3 0.95 1.2 1.05 1.2 1.2 1.1" fill="#0c5ec8" fill-rule="evenodd" stroke="none"/>
    <path d="M1.2 -2.2 L1.25 -2.05 1.3 -1.9 1.15 -2.0 1.05 -2.1 Q0.9 -2.15 0.75 -2.05 0.6 -1.9 0.65 -1.75 0.65 -1.65 0.75 -1.65 0.9 -1.6 0.9 -1.5 L0.85 -1.4 0.8 -1.25 0.7 -1.2 0.6 -1.15 0.5 -1.1 0.45 -1.05 Q0.35 -1.0 0.45 -0.95 L0.5 -0.9 0.55 -0.85 0.6 -0.75 0.6 -0.7 0.55 -0.65 0.55 -0.6 0.45 -0.45 0.3 -0.35 0.25 -0.45 0.3 -0.45 0.35 -0.5 0.4 -0.6 0.3 -0.6 0.25 -0.6 Q0.2 -0.65 0.25 -0.7 L0.2 -0.75 0.2 -0.8 Q0.1 -0.8 0.05 -0.75 L0.0 -0.75 -0.05 -0.85 -0.05 -0.95 Q-0.05 -1.1 -0.1 -1.15 -0.05 -1.15 -0.05 -1.2 0.0 -1.25 -0.1 -1.25 L-0.15 -1.35 -0.1 -1.45 -0.05 -1.65 0.05 -1.85 0.15 -2.0 0.25 -2.2 1.2 -2.2 M0.25 -0.45 L0.25 -0.45 M0.55 -0.65 L0.5 -0.65 0.4 -0.7 0.45 -0.6 0.4 -0.55 0.5 -0.6 0.55 -0.65 M0.6 -0.7 Q0.55 -0.75 0.55 -0.7 0.55 -0.65 0.6 -0.7 M0.35 -1.15 L0.3 -1.2 0.2 -1.15 Q0.25 -1.05 0.3 -1.1 L0.45 -1.15 0.35 -1.15 M0.4 -0.95 L0.2 -1.05 Q0.2 -0.95 0.25 -0.95 L0.4 -0.95 M0.05 -1.05 L0.1 -0.95 0.2 -0.95 Q0.15 -1.05 0.05 -1.05 L0.05 -1.05 0.0 -1.0 Q0.0 -1.0 0.05 -1.05" fill="#f9feff" fill-rule="evenodd" stroke="none"/>
    <path d="M0.2 -0.6 L0.1 -0.45 0.0 -0.3 Q-0.05 -0.25 -0.1 -0.2 L-0.2 -0.15 -0.35 -0.1 Q-0.4 -0.05 -0.4 0.0 L-0.45 0.5 -0.55 1.0 -0.55 1.05 -0.55 1.25 Q-0.6 1.4 -0.65 1.4 L-0.7 1.45 -0.75 1.4 -0.75 1.2 -0.8 1.0 -0.8 0.8 -0.85 0.45 -0.8 0.15 -0.95 0.05 Q-1.0 0.0 -1.1 0.05 L-1.25 -0.05 -1.3 -0.05 -1.35 -0.1 -1.6 -0.2 Q-1.75 -0.3 -1.7 -0.45 -1.7 -0.55 -1.55 -0.6 L-1.35 -0.55 -1.25 -0.65 -1.1 -0.7 Q-1.1 -0.7 -1.1 -0.75 L-1.1 -0.8 -1.2 -1.0 -1.0 -1.05 Q-0.9 -1.05 -0.85 -1.1 L-0.7 -1.1 -0.55 -0.9 -0.4 -0.65 -0.35 -0.65 -0.5 -0.5 -0.25 -0.55 -0.2 -0.55 -0.15 -0.6 0.1 -0.6 0.2 -0.6 M-0.85 -0.6 L-0.75 -0.6 Q-0.7 -0.65 -0.75 -0.7 -0.75 -0.8 -0.8 -0.8 L-0.95 -0.8 -0.95 -0.7 -0.9 -0.65 -0.85 -0.65 -0.85 -0.6 M-0.75 -0.35 Q-0.65 -0.25 -0.6 -0.35 L-0.55 -0.45 Q-0.55 -0.55 -0.65 -0.55 L-0.7 -0.5 -0.8 -0.45 Q-0.85 -0.4 -0.75 -0.35" fill="#030607" fill-rule="evenodd" stroke="none"/>
    <path d="M0.85 -0.65 L0.85 -0.7 1.05 -0.8 1.3 -0.8 Q1.4 -0.75 1.35 -0.65 L1.3 -0.55 1.25 -0.45 Q1.3 -0.4 1.2 -0.35 L1.2 -0.3 1.3 -0.3 1.3 -0.25 Q1.3 -0.2 1.3 -0.15 L1.25 -0.05 1.2 0.05 1.15 0.15 1.1 0.2 1.1 0.35 1.05 0.4 0.95 0.55 0.8 0.7 Q0.7 0.8 0.5 0.75 L0.6 0.9 0.7 0.95 0.65 1.05 Q0.55 1.05 0.55 1.1 L0.7 1.2 0.8 1.15 0.85 1.15 0.9 1.15 0.8 1.2 0.65 1.2 Q0.5 1.2 0.55 1.05 L0.6 1.0 Q0.65 0.95 0.6 0.95 L0.35 0.8 Q0.35 0.75 0.3 0.65 0.25 0.55 0.3 0.5 0.2 0.5 0.2 0.45 L0.25 0.3 0.25 0.05 Q0.35 0.05 0.35 0.2 L0.35 0.4 Q0.35 0.5 0.45 0.55 0.55 0.6 0.6 0.5 L0.75 0.35 0.9 0.2 0.55 -0.3 0.65 -0.4 0.8 -0.35 0.9 -0.35 Q1.0 -0.4 1.0 -0.3 L1.1 -0.4 1.15 -0.55 1.2 -0.6 Q1.25 -0.65 1.25 -0.6 1.35 -0.7 1.25 -0.75 1.1 -0.8 1.05 -0.75 L0.85 -0.65 M0.7 0.55 L0.65 0.6 0.55 0.6 Q0.55 0.7 0.6 0.75 L0.75 0.7 0.9 0.55 Q1.0 0.45 0.95 0.4 L0.85 0.45 Q0.8 0.45 0.85 0.5 L0.75 0.5 0.7 0.55" fill="#3df6fe" fill-rule="evenodd" stroke="none"/>
    <path d="M2.2 1.9 L2.2 2.2 1.9 2.2 1.75 2.05 1.6 1.85 Q1.4 1.65 1.2 1.7 L1.0 1.7 0.8 1.7 0.55 1.75 0.35 1.7 0.1 1.55 -0.1 1.35 Q-0.15 1.25 -0.15 1.05 -0.15 0.8 -0.2 0.75 L-0.25 0.75 -0.3 0.8 -0.4 0.65 -0.4 0.45 -0.4 0.3 -0.35 0.1 Q-0.35 -0.1 -0.15 -0.1 L-0.05 -0.1 0.0 0.0 -0.1 0.15 Q-0.1 0.25 -0.05 0.3 L-0.15 0.3 -0.2 0.4 -0.2 0.45 -0.1 0.45 -0.05 0.65 0.0 0.8 Q-0.15 0.95 -0.1 1.15 -0.05 1.3 0.1 1.4 L0.3 1.6 0.5 1.6 0.7 1.6 0.9 1.6 Q1.1 1.6 1.2 1.5 1.35 1.45 1.5 1.6 L1.8 1.8 2.2 1.9 M-0.2 0.6 L-0.15 0.55 -0.1 0.5 -0.15 0.5 Q-0.25 0.5 -0.25 0.55 L-0.2 0.6" fill="#0b396e" fill-rule="evenodd" stroke="none"/>
    <path d="M-1.3 0.55 Q-1.35 0.45 -1.45 0.5 -1.55 0.55 -1.6 0.6 -1.6 0.7 -1.55 0.75 -1.5 0.85 -1.4 0.8 -1.3 0.8 -1.25 0.7 -1.2 0.65 -1.3 0.55 M-1.35 0.45 Q-1.25 0.45 -1.2 0.6 -1.2 0.75 -1.25 0.85 L-1.55 0.9 Q-1.7 0.85 -1.75 0.7 -1.75 0.55 -1.6 0.5 -1.5 0.4 -1.35 0.45" fill="#0d4eb6" fill-rule="evenodd" stroke="none"/>
  </g>
</svg>
