<?xml version="1.0" encoding="UTF-8" standalone="no"?>
<svg xmlns:xlink="http://www.w3.org/1999/xlink" height="28.8px" width="6.5px" xmlns="http://www.w3.org/2000/svg">
  <g transform="matrix(1.0, 0.0, 0.0, 1.0, 1.9, 16.2)">
    <path d="M1.8 -16.05 L2.05 -15.8 2.15 -15.4 Q2.2 -15.25 2.1 -14.95 2.0 -14.7 2.05 -14.55 L2.05 -10.8 2.0 -9.85 2.05 -8.95 2.05 -8.9 2.0 -8.9 2.0 -10.8 2.0 -13.0 2.0 -14.3 1.2 -14.35 1.25 -14.5 1.35 -14.75 1.15 -14.95 Q1.0 -15.15 0.95 -15.4 L0.9 -15.55 0.9 -15.65 0.95 -15.4 1.25 -15.35 1.3 -15.05 1.7 -15.0 2.0 -14.6 2.05 -15.0 2.15 -15.4 2.0 -15.75 1.8 -16.05 M2.15 -8.95 L2.2 -8.95 2.2 -8.9 2.15 -8.9 2.15 -8.95 M0.9 -12.85 L0.9 -12.9 0.95 -12.9 1.0 -12.85 0.9 -12.85 M1.3 -13.85 L1.3 -13.6 1.65 -13.6 1.85 -13.3 1.95 -13.0 1.95 -12.9 1.45 -12.9 1.1 -12.9 1.0 -13.15 1.15 -13.8 1.15 -14.0 1.3 -13.85" fill="#aea59e" fill-rule="evenodd" stroke="none"/>
    <path d="M0.9 -15.65 L1.0 -15.75 1.1 -15.65 1.2 -15.55 1.45 -15.6 Q1.6 -15.65 1.7 -15.5 1.75 -15.45 1.75 -15.3 L1.7 -15.0 1.3 -15.05 1.25 -15.35 0.95 -15.4 0.9 -15.65" fill="#85776d" fill-rule="evenodd" stroke="none"/>
    <path d="M2.05 -8.95 L2.15 -8.95 2.15 -8.9 2.05 -8.9 2.05 -8.95 M-0.6 -7.25 L-0.8 -7.35 -0.65 -7.35 -0.65 -7.4 Q-0.55 -7.6 -0.5 -7.65 L-0.5 -7.65 -0.45 -7.6 -0.45 -7.4 -0.6 -7.35 -0.6 -7.25 M-1.25 -7.35 L-1.4 -7.35 -1.7 -7.35 -1.85 -7.45 -1.8 -7.55 -1.8 -7.45 -1.6 -7.65 -1.4 -7.8 -1.15 -7.8 Q-1.35 -7.8 -1.45 -7.65 L-1.75 -7.4 -1.25 -7.35 M0.75 -8.9 L0.75 -8.95 0.95 -8.95 0.95 -10.1 0.95 -9.95 1.0 -9.8 1.25 -9.85 1.6 -9.9 Q1.25 -10.05 1.1 -10.2 L1.4 -10.45 1.65 -10.5 1.65 -10.75 1.25 -10.85 1.1 -11.05 1.05 -11.0 1.1 -10.9 1.1 -10.8 0.95 -10.4 0.95 -10.3 0.95 -11.1 0.95 -11.8 Q0.9 -12.5 0.95 -12.8 L0.9 -12.85 1.0 -12.85 0.95 -12.9 0.9 -12.9 0.95 -13.0 0.95 -14.3 0.95 -14.55 0.9 -15.1 0.9 -15.55 0.95 -15.4 Q1.0 -15.15 1.15 -14.95 L1.35 -14.75 1.25 -14.5 1.2 -14.35 2.0 -14.3 2.0 -13.0 2.0 -10.8 2.0 -8.9 1.8 -8.9 1.75 -8.9 1.65 -8.9 1.65 -9.2 1.25 -9.25 1.05 -9.45 1.0 -9.4 Q0.95 -9.35 0.95 -9.25 0.95 -9.2 1.05 -8.95 L1.05 -8.9 1.0 -8.9 0.95 -8.9 0.95 -8.9 0.95 -8.95 0.95 -8.9 0.85 -8.9 0.8 -8.9 0.75 -8.9 M1.65 -13.6 L1.65 -13.9 1.3 -13.85 1.15 -14.0 1.15 -13.8 1.0 -13.15 1.1 -12.9 1.45 -12.9 1.95 -12.9 1.95 -13.0 1.85 -13.3 1.65 -13.6 M1.25 -12.45 L1.15 -12.55 1.1 -12.5 1.1 -12.4 Q1.1 -12.35 1.1 -12.3 L1.15 -12.2 1.1 -12.1 1.05 -11.95 1.05 -11.7 1.15 -11.4 1.15 -11.3 1.45 -11.3 1.95 -11.25 1.95 -11.45 1.9 -11.65 1.8 -11.85 1.65 -12.0 1.65 -12.45 1.25 -12.45 M-1.45 -8.2 L-1.15 -8.25 -1.15 -8.0 -1.35 -8.05 -1.4 -7.85 Q-1.7 -7.85 -1.8 -8.05 L-1.45 -8.2" fill="#47413d" fill-rule="evenodd" stroke="none"/>
    <path d="M1.0 -15.75 L1.2 -16.0 Q1.3 -16.1 1.45 -16.1 1.7 -16.15 1.8 -16.05 L2.0 -15.75 2.15 -15.4 2.05 -15.0 2.0 -14.6 1.7 -15.0 1.75 -15.3 Q1.75 -15.45 1.7 -15.5 1.6 -15.65 1.45 -15.6 L1.2 -15.55 1.1 -15.65 1.0 -15.75" fill="#473f3a" fill-rule="evenodd" stroke="none"/>
    <path d="M1.3 -13.85 L1.65 -13.9 1.65 -13.6 1.3 -13.6 1.3 -13.85" fill="#877971" fill-rule="evenodd" stroke="none"/>
    <path d="M1.65 -12.0 L1.8 -11.85 1.9 -11.65 1.95 -11.45 1.95 -11.25 1.45 -11.3 1.15 -11.3 1.15 -11.4 1.05 -11.7 1.05 -11.95 1.1 -12.1 1.15 -12.2 1.1 -12.3 Q1.1 -12.35 1.1 -12.4 L1.1 -12.5 1.15 -12.55 1.25 -12.45 1.3 -12.05 1.65 -12.0 M0.95 -10.4 L1.1 -10.8 1.1 -10.9 1.05 -11.0 1.1 -11.05 1.25 -10.85 1.25 -10.7 1.1 -10.3 0.95 -10.4" fill="#afa7a2" fill-rule="evenodd" stroke="none"/>
    <path d="M1.25 -12.45 L1.65 -12.45 1.65 -12.0 1.3 -12.05 1.25 -12.45" fill="#90847c" fill-rule="evenodd" stroke="none"/>
    <path d="M0.95 -10.1 L0.95 -10.3 0.95 -10.4 1.1 -10.3 1.25 -10.7 1.4 -10.45 1.1 -10.2 Q1.25 -10.05 1.6 -9.9 L1.25 -9.85 1.0 -9.8 0.95 -9.95 0.95 -10.1" fill="#c0b9b5" fill-rule="evenodd" stroke="none"/>
    <path d="M1.25 -10.85 L1.65 -10.75 1.65 -10.5 1.4 -10.45 1.25 -10.7 1.25 -10.85" fill="#877c7a" fill-rule="evenodd" stroke="none"/>
    <path d="M2.2 -8.9 L3.05 -8.9 3.95 -8.9 Q4.1 -8.9 4.25 -8.8 L4.5 -8.55 4.55 -7.95 4.55 -7.4 4.15 -7.4 4.1 -7.55 4.0 -8.0 3.8 -8.5 3.6 -8.45 3.4 -8.35 3.35 -8.35 3.35 -8.35 3.4 -8.45 2.9 -8.45 2.4 -8.5 1.7 -8.55 1.7 -8.75 1.6 -8.75 1.5 -8.8 1.45 -8.8 1.25 -8.85 0.95 -8.9 1.0 -8.9 1.05 -8.9 1.25 -8.9 1.65 -8.9 1.75 -8.9 1.8 -8.9 2.0 -8.9 2.05 -8.9 2.15 -8.9 2.2 -8.9 M1.85 -8.7 Q1.75 -8.65 1.8 -8.6 L1.95 -8.6 Q2.0 -8.65 1.95 -8.7 L1.85 -8.7" fill="#5b534f" fill-rule="evenodd" stroke="none"/>
    <path d="M2.4 -8.5 L2.9 -8.45 3.4 -8.45 3.35 -8.35 3.35 -8.35 3.35 -8.3 3.3 -8.25 3.3 -8.2 2.8 -8.15 3.0 -8.05 3.0 -8.0 2.85 -7.85 2.65 -8.05 2.8 -8.25 2.5 -8.25 2.4 -8.5" fill="#aea29d" fill-rule="evenodd" stroke="none"/>
    <path d="M3.0 -8.05 L2.8 -8.15 3.3 -8.2 3.2 -8.05 3.0 -8.05" fill="#f4e4de" fill-rule="evenodd" stroke="none"/>
    <path d="M2.5 -8.25 L2.8 -8.25 2.65 -8.05 2.85 -7.85 2.9 -7.8 2.5 -7.8 Q2.35 -7.9 2.2 -7.9 L1.9 -7.85 2.1 -7.5 2.1 -7.5 2.05 -7.45 2.0 -7.45 1.85 -7.5 1.75 -7.8 1.75 -7.9 1.5 -7.9 1.3 -7.9 1.1 -8.1 1.55 -8.15 2.0 -8.15 2.25 -8.2 2.5 -8.25 M2.5 -7.8 L2.5 -7.8" fill="#6b6260" fill-rule="evenodd" stroke="none"/>
    <path d="M1.6 -8.75 L1.7 -8.75 1.7 -8.55 2.4 -8.5 2.5 -8.25 2.25 -8.2 2.0 -8.15 Q1.85 -8.25 1.7 -8.4 1.6 -8.6 1.5 -8.8 L1.6 -8.75" fill="#fffefe" fill-rule="evenodd" stroke="none"/>
    <path d="M2.5 -7.8 L2.5 -7.8 2.8 -7.55 2.5 -7.4 2.3 -7.6 2.5 -7.8 M0.55 5.2 L0.6 5.1 0.85 5.45 0.95 5.7 0.95 5.9 0.85 6.0 0.85 5.55 0.65 5.4 0.55 5.2 M1.2 1.2 L1.3 1.25 1.25 1.45 1.0 1.25 1.2 1.2 M1.1 1.7 L0.85 1.7 0.7 1.5 0.8 1.2 0.8 1.35 0.85 1.6 1.0 1.65 1.1 1.7 M1.65 6.35 L1.7 6.4 1.75 6.55 1.6 6.5 1.65 6.35" fill="#f3e2d6" fill-rule="evenodd" stroke="none"/>
    <path d="M2.1 -7.5 L1.9 -7.85 2.2 -7.9 Q2.35 -7.9 2.5 -7.8 L2.3 -7.6 2.15 -7.5 2.15 -7.5 2.1 -7.5" fill="#fffffe" fill-rule="evenodd" stroke="none"/>
    <path d="M3.45 -7.35 L3.4 -7.35 3.4 -7.35 3.35 -7.35 2.6 -7.4 1.9 -7.4 1.95 -7.4 1.95 -7.45 2.0 -7.45 2.05 -7.45 2.1 -7.5 2.1 -7.5 2.15 -7.5 2.15 -7.5 2.3 -7.6 2.5 -7.4 2.8 -7.55 2.5 -7.8 2.9 -7.8 3.05 -7.85 3.3 -7.8 3.45 -7.35" fill="#bcaba3" fill-rule="evenodd" stroke="none"/>
    <path d="M2.85 -7.85 L3.0 -8.0 3.05 -7.85 2.9 -7.8 2.85 -7.85" fill="#ede2df" fill-rule="evenodd" stroke="none"/>
    <path d="M3.75 -7.35 L3.45 -7.35 3.45 -7.35 3.3 -7.8 3.05 -7.85 3.0 -8.0 3.0 -8.05 3.2 -8.05 3.3 -8.2 3.3 -8.25 3.35 -8.3 3.4 -8.35 3.6 -8.45 3.6 -7.95 3.35 -8.05 Q3.45 -7.75 3.7 -7.6 L3.75 -7.35" fill="#857a73" fill-rule="evenodd" stroke="none"/>
    <path d="M3.6 -8.45 L3.8 -8.5 4.0 -8.0 3.75 -7.9 3.7 -7.75 3.7 -7.6 Q3.45 -7.75 3.35 -8.05 L3.6 -7.95 3.6 -8.45" fill="#a4978e" fill-rule="evenodd" stroke="none"/>
    <path d="M4.1 -7.55 L3.8 -7.65 3.75 -7.35 3.7 -7.6 3.7 -7.75 3.75 -7.9 4.0 -8.0 4.1 -7.55 M1.55 -0.55 L1.35 -0.8 1.5 -0.85 1.55 -0.55 M0.3 6.95 L0.3 7.15 0.1 7.2 0.3 6.95" fill="#eedbd2" fill-rule="evenodd" stroke="none"/>
    <path d="M1.25 -8.85 L1.45 -8.8 1.3 -8.6 1.25 -8.85" fill="#f4eeed" fill-rule="evenodd" stroke="none"/>
    <path d="M0.95 -8.9 L1.25 -8.85 1.3 -8.6 1.45 -8.8 1.5 -8.8 Q1.6 -8.6 1.7 -8.4 1.85 -8.25 2.0 -8.15 L1.55 -8.15 1.1 -8.1 1.3 -7.9 1.5 -7.9 1.75 -7.9 1.75 -7.8 1.5 -7.6 1.45 -7.6 0.75 -7.55 0.7 -7.55 0.7 -7.75 0.6 -7.9 0.8 -7.9 0.7 -8.15 Q0.65 -8.3 0.7 -8.4 L0.8 -8.3 0.95 -8.0 0.9 -8.2 1.45 -8.2 1.0 -8.75 0.95 -8.8 0.95 -8.9 M1.5 -8.8 L1.5 -8.8" fill="#998e87" fill-rule="evenodd" stroke="none"/>
    <path d="M1.25 -8.9 L1.05 -8.9 1.05 -8.95 Q0.95 -9.2 0.95 -9.25 0.95 -9.35 1.0 -9.4 L1.05 -9.45 1.25 -9.25 1.25 -8.9" fill="#aaa3a1" fill-rule="evenodd" stroke="none"/>
    <path d="M1.65 -8.9 L1.25 -8.9 1.25 -9.25 1.65 -9.2 1.65 -8.9" fill="#8c8079" fill-rule="evenodd" stroke="none"/>
    <path d="M1.85 -8.7 L1.95 -8.7 Q2.0 -8.65 1.95 -8.6 L1.8 -8.6 Q1.75 -8.65 1.85 -8.7" fill="#fbf7f6" fill-rule="evenodd" stroke="none"/>
    <path d="M0.65 -8.9 L0.7 -8.9 0.75 -8.9 0.75 -8.9 0.8 -8.9 0.85 -8.9 0.95 -8.9 0.95 -8.9 1.0 -8.9 0.95 -8.9 0.95 -8.8 1.0 -8.75 1.45 -8.2 0.9 -8.2 0.8 -8.3 0.7 -8.4 0.65 -8.4 0.6 -8.45 0.65 -8.9 M0.8 -8.8 Q0.7 -8.8 0.7 -8.75 0.7 -8.65 0.75 -8.65 0.85 -8.65 0.85 -8.75 L0.8 -8.8" fill="#6a615e" fill-rule="evenodd" stroke="none"/>
    <path d="M0.8 -8.8 L0.85 -8.75 Q0.85 -8.65 0.75 -8.65 0.7 -8.65 0.7 -8.75 0.7 -8.8 0.8 -8.8" fill="#e8dfdb" fill-rule="evenodd" stroke="none"/>
    <path d="M-0.6 -0.15 L-0.65 -0.65 -0.6 -0.95 -0.55 -1.1 -0.55 -1.05 -0.55 -0.55 -0.05 -0.65 0.4 -0.8 0.55 -0.45 Q0.2 -0.5 -0.1 -0.1 L-0.6 -0.15 -0.6 -0.15 M1.75 -7.8 L1.85 -7.5 2.0 -7.45 1.95 -7.45 1.95 -7.4 1.9 -7.4 1.75 -7.4 1.75 -7.55 1.55 -7.55 1.5 -7.6 1.5 -7.6 1.75 -7.8 M0.9 -8.2 L0.95 -8.0 0.8 -8.3 0.9 -8.2 M0.7 -8.4 Q0.65 -8.3 0.7 -8.15 L0.8 -7.9 0.6 -7.9 Q0.5 -8.2 0.6 -8.45 L0.65 -8.4 0.7 -8.4 M0.35 3.15 L0.35 3.6 Q0.25 3.35 0.35 3.15 M2.25 3.6 Q2.2 2.8 2.3 2.2 2.45 3.0 2.25 3.6 M1.05 -3.75 Q1.05 -3.8 1.15 -3.8 L1.2 -3.7 Q1.15 -3.6 1.1 -3.65 1.0 -3.65 1.05 -3.75 M1.75 -2.9 L1.7 -2.9 1.65 -2.95 1.2 -3.55 1.55 -3.25 1.85 -2.9 1.75 -2.9 M2.3 -2.25 Q2.4 -2.2 2.35 -2.1 L2.2 -2.2 2.15 -2.3 2.3 -2.25 M0.45 1.4 L0.65 1.6 0.9 1.8 0.95 1.85 Q0.75 1.9 0.6 1.75 0.45 1.6 0.45 1.4 M1.55 1.8 L1.75 1.85 Q1.85 1.9 1.9 2.0 1.95 2.3 1.9 2.7 L1.75 2.35 1.8 2.2 Q1.85 2.15 1.8 2.05 L1.6 1.9 1.35 1.85 1.55 1.8 M0.65 2.5 L0.75 2.7 0.9 2.95 0.9 3.1 0.95 3.3 1.35 3.35 1.3 3.55 1.3 3.75 Q1.4 3.8 1.5 3.85 L1.7 3.9 1.6 4.0 1.45 3.9 1.2 3.8 1.25 3.6 Q1.25 3.5 1.2 3.4 L1.0 3.4 0.8 3.4 0.85 2.95 0.7 2.85 0.6 2.7 0.55 2.6 Q0.55 2.5 0.65 2.5 M1.4 2.7 Q1.25 2.3 1.0 2.1 L1.15 2.15 Q1.25 2.15 1.3 2.2 1.4 2.3 1.4 2.45 L1.4 2.7 M0.75 8.05 L0.55 7.8 0.6 7.65 0.65 7.55 Q0.6 7.8 0.8 7.95 0.9 8.05 0.9 8.2 L0.95 8.5 1.3 8.45 1.4 8.5 1.8 8.55 0.85 8.55 0.85 8.15 0.75 8.05 M1.95 9.05 L1.95 9.1 Q1.9 9.2 1.8 9.15 1.8 9.05 1.95 9.05 M1.5 9.3 L1.75 9.55 1.45 9.5 Q1.4 9.4 1.5 9.3" fill="#fffefc" fill-rule="evenodd" stroke="none"/>
    <path d="M0.0 -8.05 L0.1 -7.75 0.3 -7.5 0.5 -7.45 0.65 -7.45 1.05 -7.4 0.6 -7.4 0.15 -7.4 0.2 -7.25 0.1 -7.25 -0.05 -7.45 -0.15 -7.6 0.0 -8.05" fill="#bfb0a6" fill-rule="evenodd" stroke="none"/>
    <path d="M-1.85 -8.35 L-1.7 -8.6 -1.55 -8.9 -1.5 -8.8 Q-1.45 -8.75 -1.4 -8.75 L-1.25 -8.85 -1.05 -8.9 0.65 -8.9 0.6 -8.45 Q0.5 -8.2 0.6 -7.9 L0.7 -7.75 Q0.6 -7.65 0.65 -7.55 L0.65 -7.45 0.5 -7.45 0.3 -7.5 0.1 -7.75 0.0 -8.05 0.15 -8.5 -0.35 -8.45 -0.25 -7.8 -0.85 -7.95 -0.95 -8.0 Q-1.05 -8.2 -1.15 -8.25 L-1.45 -8.2 -1.85 -8.35" fill="#413b38" fill-rule="evenodd" stroke="none"/>
    <path d="M0.7 -7.55 L0.75 -7.55 1.45 -7.6 1.55 -7.55 1.75 -7.55 1.75 -7.4 1.65 -7.35 1.5 -7.35 1.55 -7.35 Q1.55 -7.5 1.45 -7.5 1.3 -7.5 1.35 -7.35 L1.05 -7.4 0.65 -7.45 0.65 -7.55 0.7 -7.55" fill="#6b6361" fill-rule="evenodd" stroke="none"/>
    <path d="M0.7 -7.75 L0.7 -7.55 0.65 -7.55 Q0.6 -7.65 0.7 -7.75" fill="#f4efec" fill-rule="evenodd" stroke="none"/>
    <path d="M0.0 -8.05 L-0.15 -7.6 -0.05 -7.45 -0.2 -7.35 -0.45 -7.6 -0.5 -7.65 -0.5 -7.65 -0.45 -7.85 -0.85 -7.95 -0.25 -7.8 -0.35 -8.45 0.15 -8.5 0.0 -8.05" fill="#6b625d" fill-rule="evenodd" stroke="none"/>
    <path d="M3.35 -7.35 L3.35 -5.3 3.3 -5.0 Q3.2 -4.8 3.2 -4.55 L3.15 -4.0 Q3.15 -3.85 3.25 -3.55 L3.35 -3.05 3.35 9.95 Q3.35 10.2 3.15 10.45 L2.6 11.05 2.05 11.7 1.7 12.1 1.35 12.5 1.35 12.45 1.35 11.05 1.35 11.0 1.75 10.55 Q1.65 10.0 1.75 9.55 L1.5 9.3 1.65 9.15 1.9 9.4 1.95 9.25 1.95 9.1 1.95 9.05 1.75 8.9 2.2 9.05 Q2.4 9.15 2.55 9.3 L2.65 9.7 2.75 10.1 3.1 10.15 3.15 10.05 3.1 9.85 3.0 9.5 2.75 9.3 2.55 9.05 Q2.4 8.95 2.4 8.8 2.4 8.6 2.4 8.2 L2.4 6.25 Q2.45 6.05 2.2 5.8 L2.4 5.8 2.4 4.5 2.4 4.45 2.4 3.6 2.2 3.8 2.25 3.6 Q2.45 3.0 2.3 2.2 2.3 2.05 2.35 1.8 L2.4 1.45 2.4 -0.6 2.4 -0.75 2.4 -1.7 2.15 -1.8 2.4 -1.95 2.4 -2.5 Q2.4 -2.8 2.3 -3.05 2.15 -3.35 2.1 -3.7 2.0 -3.7 1.95 -3.75 L2.1 -3.95 2.15 -4.2 2.2 -4.6 2.25 -5.0 Q2.4 -5.55 2.4 -6.25 L2.4 -7.2 1.75 -7.2 1.1 -7.2 0.7 -7.2 0.3 -7.2 0.2 -7.25 0.15 -7.4 0.6 -7.4 1.05 -7.4 1.35 -7.35 1.5 -7.35 1.65 -7.35 1.9 -7.4 2.6 -7.4 3.35 -7.35" fill="#3c3734" fill-rule="evenodd" stroke="none"/>
    <path d="M1.5 -7.35 L1.35 -7.35 Q1.3 -7.5 1.45 -7.5 1.55 -7.5 1.55 -7.35 L1.5 -7.35" fill="#cebab6" fill-rule="evenodd" stroke="none"/>
    <path d="M1.6 -7.0 L1.55 -6.85 1.65 -6.8 1.75 -6.95 1.9 -6.7 1.65 -6.7 1.6 -6.45 1.55 -6.25 1.35 -6.1 1.0 -6.4 1.1 -6.6 1.2 -6.8 1.4 -6.95 1.6 -7.0" fill="#695c54" fill-rule="evenodd" stroke="none"/>
    <path d="M1.6 -7.0 L1.4 -6.95 1.2 -6.8 1.1 -6.6 1.0 -6.4 1.35 -6.1 1.55 -6.25 1.6 -6.45 1.65 -6.7 1.9 -6.7 1.75 -6.95 1.65 -6.8 1.55 -6.85 1.6 -7.0 M0.3 -7.2 L0.7 -7.2 1.1 -7.2 1.75 -7.2 2.4 -7.2 2.4 -6.25 Q2.4 -5.55 2.25 -5.0 L2.2 -4.6 2.15 -4.2 2.1 -3.95 1.95 -3.75 Q2.0 -3.7 2.1 -3.7 2.15 -3.35 2.3 -3.05 2.4 -2.8 2.4 -2.5 L2.4 -1.95 2.15 -1.8 2.4 -1.7 2.4 -0.75 2.25 -0.75 2.3 -1.05 2.15 -1.15 1.8 -0.55 2.4 -0.6 2.4 1.45 2.35 1.8 Q2.3 2.05 2.3 2.2 2.2 2.8 2.25 3.6 L2.2 3.8 2.4 3.6 2.4 4.45 2.4 4.3 2.25 4.4 1.95 4.3 1.8 4.5 2.4 4.5 2.4 5.8 2.2 5.8 Q2.45 6.05 2.4 6.25 L1.95 6.7 2.05 6.5 2.15 6.25 2.05 6.15 2.0 6.05 1.95 6.3 1.7 6.2 Q1.45 5.95 1.05 6.0 L1.1 6.15 1.2 6.3 1.6 6.5 1.25 6.95 1.3 7.2 1.2 7.2 1.1 7.2 0.8 6.95 0.7 7.25 0.5 6.95 0.65 6.8 0.5 6.65 0.6 6.3 1.0 7.05 1.15 6.8 1.05 6.5 Q0.95 6.3 1.0 6.2 L0.5 5.95 0.65 5.85 0.75 5.65 0.65 5.4 0.85 5.55 0.85 6.0 0.95 5.9 1.2 5.9 Q1.3 6.0 1.45 5.9 L1.85 5.9 1.5 5.8 1.6 5.45 1.7 5.45 1.7 5.4 1.75 5.25 Q1.8 5.1 1.75 5.05 1.45 4.75 1.15 4.65 L0.85 4.7 0.55 4.8 0.55 4.65 0.5 4.6 Q0.4 4.6 0.4 4.7 0.4 4.8 0.5 4.8 L0.75 4.9 0.65 5.0 0.65 5.05 0.6 5.1 0.55 5.2 0.5 5.25 0.2 5.25 0.5 4.95 0.1 4.85 0.3 4.75 0.3 4.05 0.2 4.0 0.4 3.85 Q0.5 3.85 0.5 3.75 0.45 3.65 0.35 3.7 L0.35 3.6 0.35 3.15 0.35 3.1 0.2 3.05 Q0.3 2.9 0.3 2.6 L0.3 2.15 0.1 2.15 0.2 2.0 0.3 1.85 Q0.35 1.6 0.35 1.3 L0.3 0.75 -0.1 0.8 0.05 0.6 0.35 0.65 Q0.45 0.35 0.3 0.2 L0.3 0.05 0.6 -0.1 0.55 -0.45 0.4 -0.8 0.4 -1.0 0.35 -1.25 0.65 -1.05 Q0.6 -1.35 0.3 -1.7 L0.35 -2.55 0.45 -2.4 0.55 -2.25 0.6 -2.0 0.55 -1.7 1.0 -1.8 1.0 -1.9 0.8 -1.95 0.9 -2.1 Q0.95 -2.2 0.9 -2.35 L0.85 -2.55 0.65 -2.7 0.45 -2.8 0.4 -2.9 0.55 -2.9 0.65 -2.9 0.6 -3.1 0.8 -3.35 0.35 -3.35 0.3 -4.15 0.1 -4.1 0.2 -4.25 0.35 -4.35 0.65 -4.1 Q0.8 -3.9 0.95 -3.85 L0.7 -4.2 0.45 -4.5 Q0.35 -4.6 0.35 -4.75 L0.3 -5.05 0.35 -6.15 0.3 -7.2 M0.75 -5.75 L0.9 -5.8 1.0 -5.75 1.2 -5.6 1.35 -5.45 1.3 -5.2 1.0 -5.4 1.05 -5.2 1.45 -5.0 1.65 -4.85 1.7 -4.95 1.5 -5.2 1.7 -5.6 1.3 -5.8 Q1.05 -5.9 0.9 -5.95 L1.2 -6.1 0.85 -6.2 Q0.8 -5.9 0.7 -5.75 L0.65 -5.7 Q0.75 -5.5 1.0 -5.4 L0.75 -5.75 M2.15 -4.45 L1.95 -4.6 1.95 -4.95 1.6 -4.75 Q1.8 -4.4 2.15 -4.25 L2.15 -4.45 M2.05 -2.5 Q2.0 -2.4 2.1 -2.35 2.15 -2.35 2.2 -2.45 2.2 -2.5 2.15 -2.55 2.05 -2.55 2.05 -2.5 M1.05 -3.75 Q1.0 -3.65 1.1 -3.65 1.15 -3.6 1.2 -3.7 L1.15 -3.8 Q1.05 -3.8 1.05 -3.75 M1.7 -2.9 L1.7 -2.85 1.6 -2.85 1.6 -2.85 1.5 -2.85 1.5 -2.55 1.35 -2.4 1.3 -2.25 1.15 -2.2 Q1.35 -1.95 1.6 -1.85 L1.95 -1.65 Q2.1 -1.45 2.25 -1.45 2.2 -1.7 2.1 -1.8 L1.85 -2.1 Q1.65 -2.25 1.55 -2.35 L1.8 -2.3 Q1.85 -2.25 2.0 -2.15 L2.1 -2.25 1.9 -2.45 1.85 -2.55 1.7 -2.7 1.75 -2.9 1.85 -2.9 1.55 -3.25 1.2 -3.55 1.65 -2.95 1.7 -2.9 M1.85 -2.65 L2.05 -2.65 1.85 -2.85 1.85 -2.65 M1.55 -0.55 L1.5 -0.85 1.35 -0.8 1.55 -0.55 M2.3 -2.25 L2.15 -2.3 2.2 -2.2 2.35 -2.1 Q2.4 -2.2 2.3 -2.25 M1.9 2.7 Q1.8 3.05 1.9 3.25 L1.9 3.0 Q1.95 2.85 1.95 2.7 2.1 2.3 1.95 1.95 1.9 1.8 1.65 1.75 L1.3 1.7 1.4 1.4 Q1.45 1.25 1.35 1.1 1.3 1.0 1.15 0.95 L0.85 0.95 0.85 1.1 0.7 1.05 0.7 1.25 0.55 1.4 0.45 1.4 Q0.45 1.6 0.6 1.75 0.75 1.9 0.95 1.85 L0.9 1.8 1.2 1.8 1.55 1.8 1.35 1.85 1.6 1.9 1.8 2.05 Q1.85 2.15 1.8 2.2 L1.75 2.35 1.9 2.7 M1.7 2.8 L1.85 2.7 1.55 2.75 1.55 2.55 1.6 2.45 1.35 2.15 Q1.15 2.0 1.0 2.05 0.85 2.05 0.75 2.2 L0.65 2.5 Q0.55 2.5 0.55 2.6 L0.6 2.7 0.7 2.85 0.85 2.95 0.8 3.4 1.0 3.4 1.2 3.4 Q1.25 3.5 1.25 3.6 L1.2 3.8 1.45 3.9 1.5 4.15 1.7 4.15 1.6 4.0 1.7 3.9 1.75 3.85 1.8 3.85 Q1.85 4.0 1.9 3.85 2.05 3.85 2.15 3.65 L1.8 3.75 1.5 3.75 Q1.3 3.65 1.55 3.4 1.6 3.35 1.65 3.35 L1.85 3.35 Q1.45 3.1 1.6 2.85 1.6 2.95 1.7 2.9 1.75 2.85 1.7 2.8 M0.75 3.2 L0.45 3.25 0.7 3.45 0.5 3.6 0.8 3.7 0.75 3.2 M0.35 4.15 L0.55 4.2 Q0.5 4.1 0.4 3.95 L0.35 4.15 M0.45 4.45 L0.55 4.45 Q0.6 4.35 0.55 4.35 0.5 4.3 0.45 4.35 0.4 4.4 0.45 4.45 M1.95 5.0 L1.95 5.35 2.05 5.25 2.0 5.0 Q2.0 4.85 1.9 4.75 1.85 4.7 1.75 4.65 L1.55 4.65 1.55 4.75 1.95 5.0" fill="#766e67" fill-rule="evenodd" stroke="none"/>
    <path d="M-0.6 -6.3 L-0.6 -7.25 -0.6 -7.35 -0.45 -7.4 -0.45 -7.6 -0.2 -7.35 -0.05 -7.45 0.1 -7.25 0.2 -7.25 0.3 -7.2 0.1 -6.85 0.2 -6.65 -0.05 -6.4 0.05 -6.3 -0.05 -6.2 -0.2 -6.35 -0.45 -6.25 -0.6 -6.3" fill="#85756d" fill-rule="evenodd" stroke="none"/>
    <path d="M-0.6 -2.2 L-0.6 -6.3 -0.45 -6.25 -0.2 -6.35 -0.05 -6.2 0.05 -6.3 -0.05 -6.4 0.2 -6.65 0.1 -6.85 0.3 -7.2 0.35 -6.15 0.3 -5.05 0.35 -4.75 Q0.35 -4.6 0.45 -4.5 L0.7 -4.2 0.95 -3.85 Q0.8 -3.9 0.65 -4.1 L0.35 -4.35 0.2 -4.25 0.1 -4.1 0.3 -4.15 0.35 -3.35 0.35 -2.55 0.3 -1.7 0.2 -1.8 0.1 -1.9 -0.1 -1.95 -0.25 -1.9 -0.35 -1.95 0.3 -2.15 0.2 -2.25 0.05 -2.3 -0.2 -2.2 -0.4 -2.05 -0.6 -2.2 M0.2 -3.0 L0.25 -3.25 Q0.05 -3.1 0.0 -3.0 -0.15 -2.8 -0.15 -2.65 L0.1 -2.65 0.0 -2.85 0.2 -3.0" fill="#a79d96" fill-rule="evenodd" stroke="none"/>
    <path d="M0.35 -1.25 L0.4 -1.0 -0.3 -1.15 -0.4 -1.2 0.0 -1.3 0.35 -1.25 M0.75 -5.75 L1.0 -5.4 Q0.75 -5.5 0.65 -5.7 L0.7 -5.75 0.75 -5.75" fill="#d9cdc3" fill-rule="evenodd" stroke="none"/>
    <path d="M1.3 -5.2 L1.35 -5.45 1.2 -5.6 1.0 -5.75 0.9 -5.8 0.75 -5.75 0.7 -5.75 Q0.8 -5.9 0.85 -6.2 L1.2 -6.1 0.9 -5.95 Q1.05 -5.9 1.3 -5.8 L1.7 -5.6 1.5 -5.2 1.7 -4.95 1.65 -4.85 1.45 -5.0 1.3 -5.2" fill="#5f5552" fill-rule="evenodd" stroke="none"/>
    <path d="M1.45 -5.0 L1.05 -5.2 1.0 -5.4 1.3 -5.2 1.45 -5.0" fill="#a6998d" fill-rule="evenodd" stroke="none"/>
    <path d="M3.3 -5.0 L3.35 -4.45 3.35 -3.05 3.25 -3.55 Q3.15 -3.85 3.15 -4.0 L3.2 -4.55 Q3.2 -4.8 3.3 -5.0" fill="#9c9692" fill-rule="evenodd" stroke="none"/>
    <path d="M2.15 -4.45 L2.15 -4.25 Q1.8 -4.4 1.6 -4.75 L1.95 -4.95 1.95 -4.6 2.15 -4.45" fill="#918984" fill-rule="evenodd" stroke="none"/>
    <path d="M2.05 -2.5 Q2.05 -2.55 2.15 -2.55 2.2 -2.5 2.2 -2.45 2.15 -2.35 2.1 -2.35 2.0 -2.4 2.05 -2.5" fill="#d7c4b8" fill-rule="evenodd" stroke="none"/>
    <path d="M0.35 -3.35 L0.8 -3.35 0.6 -3.1 0.65 -2.9 0.55 -2.9 0.4 -2.9 0.45 -2.8 0.65 -2.7 0.85 -2.55 0.9 -2.35 Q0.95 -2.2 0.9 -2.1 L0.8 -1.95 1.0 -1.9 1.0 -1.8 0.55 -1.7 0.6 -2.0 0.55 -2.25 0.45 -2.4 0.35 -2.55 0.35 -3.35" fill="#857d77" fill-rule="evenodd" stroke="none"/>
    <path d="M0.2 -3.0 L0.0 -2.85 0.1 -2.65 -0.15 -2.65 Q-0.15 -2.8 0.0 -3.0 0.05 -3.1 0.25 -3.25 L0.2 -3.0" fill="#8d8179" fill-rule="evenodd" stroke="none"/>
    <path d="M1.3 -2.25 L1.35 -2.4 1.5 -2.55 1.5 -2.85 1.6 -2.85 1.6 -2.85 1.7 -2.85 1.7 -2.9 1.75 -2.9 1.7 -2.7 1.85 -2.55 1.9 -2.45 2.1 -2.25 2.0 -2.15 Q1.85 -2.25 1.8 -2.3 L1.55 -2.35 1.3 -2.25" fill="#615953" fill-rule="evenodd" stroke="none"/>
    <path d="M1.85 -2.65 L1.85 -2.85 2.05 -2.65 1.85 -2.65" fill="#cfbfb1" fill-rule="evenodd" stroke="none"/>
    <path d="M1.3 -2.25 L1.55 -2.35 Q1.65 -2.25 1.85 -2.1 L2.1 -1.8 Q2.2 -1.7 2.25 -1.45 2.1 -1.45 1.95 -1.65 L1.6 -1.85 Q1.35 -1.95 1.15 -2.2 L1.3 -2.25" fill="#8b837c" fill-rule="evenodd" stroke="none"/>
    <path d="M-0.6 -1.15 L-0.6 -1.35 -0.6 -2.2 -0.4 -2.05 -0.2 -2.2 0.05 -2.3 0.2 -2.25 0.3 -2.15 -0.35 -1.95 -0.25 -1.9 -0.1 -1.95 0.1 -1.9 0.2 -1.8 0.3 -1.7 Q0.6 -1.35 0.65 -1.05 L0.35 -1.25 0.0 -1.3 -0.4 -1.2 -0.6 -1.15" fill="#9d9189" fill-rule="evenodd" stroke="none"/>
    <path d="M0.4 -1.0 L0.4 -0.8 -0.05 -0.65 -0.55 -0.55 -0.55 -1.05 -0.3 -1.15 0.4 -1.0" fill="#a79993" fill-rule="evenodd" stroke="none"/>
    <path d="M0.55 -0.45 L0.6 -0.1 -0.1 -0.1 Q0.2 -0.5 0.55 -0.45" fill="#d3bfa6" fill-rule="evenodd" stroke="none"/>
    <path d="M2.4 -0.6 L1.8 -0.55 2.15 -1.15 2.3 -1.05 2.25 -0.75 2.4 -0.75 2.4 -0.6" fill="#8b827c" fill-rule="evenodd" stroke="none"/>
    <path d="M0.85 1.1 L0.85 0.95 1.15 0.95 Q1.3 1.0 1.35 1.1 1.45 1.25 1.4 1.4 L1.3 1.7 1.65 1.75 Q1.9 1.8 1.95 1.95 2.1 2.3 1.95 2.7 1.95 2.85 1.9 3.0 L1.9 3.25 Q1.8 3.05 1.9 2.7 1.95 2.3 1.9 2.0 1.85 1.9 1.75 1.85 L1.55 1.8 1.2 1.8 0.9 1.8 0.65 1.6 0.45 1.4 0.55 1.4 0.7 1.5 0.85 1.7 1.1 1.7 1.2 1.7 1.3 1.25 1.2 1.2 0.85 1.1" fill="#3f3a37" fill-rule="evenodd" stroke="none"/>
    <path d="M0.85 1.1 L1.2 1.2 1.0 1.25 1.25 1.45 1.3 1.25 1.2 1.7 1.1 1.7 1.0 1.65 1.15 1.5 0.8 1.35 0.8 1.2 0.7 1.5 0.55 1.4 0.7 1.25 0.7 1.05 0.85 1.1" fill="#8c847b" fill-rule="evenodd" stroke="none"/>
    <path d="M0.3 0.05 L0.3 0.2 Q0.45 0.35 0.35 0.65 L0.05 0.6 -0.35 0.4 Q-0.55 0.25 -0.55 0.05 -0.4 0.0 -0.15 0.0 L0.3 0.05" fill="#615a55" fill-rule="evenodd" stroke="none"/>
    <path d="M1.0 1.65 L0.85 1.6 0.8 1.35 1.15 1.5 1.0 1.65" fill="#524a45" fill-rule="evenodd" stroke="none"/>
    <path d="M-0.6 6.75 L-0.6 6.35 -0.15 6.35 0.1 5.9 0.0 5.75 -0.2 6.1 -0.5 6.0 -0.6 6.1 -0.6 -0.15 -0.6 -0.15 -0.1 -0.1 0.6 -0.1 0.3 0.05 -0.15 0.0 Q-0.4 0.0 -0.55 0.05 -0.55 0.25 -0.35 0.4 L0.05 0.6 -0.1 0.8 0.3 0.75 0.35 1.3 Q0.35 1.6 0.3 1.85 L0.2 2.0 0.1 2.15 0.3 2.15 0.3 2.6 Q0.3 2.9 0.2 3.05 L0.35 3.1 0.35 3.15 Q0.25 3.35 0.35 3.6 L0.35 3.7 0.4 3.85 0.2 4.0 0.3 4.05 0.3 4.75 0.1 4.85 0.5 4.95 0.2 5.25 0.5 5.25 Q0.4 5.35 0.4 5.55 L0.35 5.9 Q0.3 6.2 0.35 6.55 L0.3 6.75 0.3 6.9 0.05 7.0 Q-0.05 6.9 -0.25 6.75 L-0.6 6.6 -0.6 6.75" fill="#a0948c" fill-rule="evenodd" stroke="none"/>
    <path d="M1.4 2.7 L1.4 2.75 1.15 2.75 0.85 2.7 Q0.75 2.65 0.8 2.5 L0.9 2.3 0.85 2.2 1.0 2.1 Q1.25 2.3 1.4 2.7" fill="#716763" fill-rule="evenodd" stroke="none"/>
    <path d="M0.65 2.5 L0.75 2.2 Q0.85 2.05 1.0 2.05 1.15 2.0 1.35 2.15 L1.6 2.45 1.55 2.55 1.55 2.75 1.85 2.7 1.7 2.8 Q1.6 2.8 1.6 2.85 1.45 3.1 1.85 3.35 L1.65 3.35 Q1.6 3.35 1.55 3.4 1.3 3.65 1.5 3.75 L1.8 3.75 2.15 3.65 Q2.05 3.85 1.9 3.85 L1.85 3.85 1.8 3.85 1.75 3.85 1.7 3.9 1.5 3.85 Q1.4 3.8 1.3 3.75 L1.3 3.55 1.35 3.35 0.95 3.3 0.9 3.1 0.9 2.95 0.75 2.7 0.65 2.5 M1.0 2.1 L0.85 2.2 0.9 2.3 0.8 2.5 Q0.75 2.65 0.85 2.7 L1.15 2.75 1.4 2.75 1.4 2.7 1.4 2.45 Q1.4 2.3 1.3 2.2 1.25 2.15 1.15 2.15 L1.0 2.1 M1.2 2.8 L1.05 2.8 1.05 3.25 1.45 3.25 1.4 3.2 1.4 2.8 1.2 2.8" fill="#4d4742" fill-rule="evenodd" stroke="none"/>
    <path d="M1.35 12.5 L-0.55 10.25 -0.6 10.15 -0.35 10.0 -0.45 10.1 -0.55 10.25 Q-0.35 10.25 -0.15 10.15 L-0.05 10.15 0.05 10.15 Q-0.1 10.45 0.05 10.75 L0.5 10.5 0.3 10.4 0.3 10.15 0.15 9.9 0.2 9.9 0.35 9.85 0.85 10.4 1.35 11.0 1.35 11.05 Q1.25 11.1 1.2 11.25 1.2 11.3 1.15 11.45 L1.3 11.45 1.05 11.6 Q1.15 11.95 1.1 12.15 L1.15 12.25 1.3 12.1 1.35 12.45 1.35 12.5 M-0.6 -0.95 L-0.6 -1.15 -0.4 -1.2 -0.3 -1.15 -0.55 -1.05 -0.55 -1.1 -0.6 -0.95 M1.6 2.85 Q1.6 2.8 1.7 2.8 1.75 2.85 1.7 2.9 1.6 2.95 1.6 2.85" fill="#ffffff" fill-rule="evenodd" stroke="none"/>
    <path d="M1.2 2.8 L1.4 2.8 1.4 3.2 1.2 2.8" fill="#f9f6ee" fill-rule="evenodd" stroke="none"/>
    <path d="M1.4 3.2 L1.45 3.25 1.05 3.25 1.05 2.8 1.2 2.8 1.4 3.2" fill="#867a76" fill-rule="evenodd" stroke="none"/>
    <path d="M0.75 3.2 L0.8 3.7 0.5 3.6 0.7 3.45 0.45 3.25 0.75 3.2" fill="#57504b" fill-rule="evenodd" stroke="none"/>
    <path d="M0.35 4.15 L0.4 3.95 Q0.5 4.1 0.55 4.2 L0.35 4.15" fill="#e6d9cd" fill-rule="evenodd" stroke="none"/>
    <path d="M0.35 3.7 Q0.45 3.65 0.5 3.75 0.5 3.85 0.4 3.85 L0.35 3.7" fill="#ebdfd7" fill-rule="evenodd" stroke="none"/>
    <path d="M0.5 4.8 Q0.4 4.8 0.4 4.7 0.4 4.6 0.5 4.6 L0.55 4.65 0.55 4.8 0.5 4.8 M1.55 4.65 L1.8 4.8 Q1.9 4.9 1.95 5.0 L1.55 4.75 1.55 4.65 M1.55 5.15 Q1.65 5.15 1.65 5.25 1.6 5.35 1.55 5.3 1.5 5.25 1.5 5.2 1.5 5.15 1.55 5.15 M1.4 5.8 L1.35 5.6 1.1 5.6 1.2 5.4 1.4 5.4 1.4 5.8 M0.15 9.9 L0.3 10.15 0.3 10.4 0.5 10.5 0.05 10.75 Q-0.1 10.45 0.05 10.15 L-0.05 10.15 -0.15 10.15 Q-0.35 10.25 -0.55 10.25 L-0.45 10.1 -0.35 10.0 -0.1 9.95 0.15 9.9" fill="#f9dfd9" fill-rule="evenodd" stroke="none"/>
    <path d="M0.45 4.45 Q0.4 4.4 0.45 4.35 0.5 4.3 0.55 4.35 0.6 4.35 0.55 4.45 L0.45 4.45" fill="#dfcac2" fill-rule="evenodd" stroke="none"/>
    <path d="M0.65 5.05 L0.65 5.0 0.75 4.9 0.5 4.8 0.55 4.8 0.85 4.7 1.15 4.65 Q1.45 4.75 1.75 5.05 1.8 5.1 1.75 5.25 L1.7 5.4 1.6 5.4 1.6 5.45 1.5 5.8 1.85 5.9 1.45 5.9 1.4 5.8 1.4 5.4 1.2 5.4 1.05 5.4 1.05 5.8 1.3 5.85 1.2 5.9 0.95 5.9 0.95 5.7 0.85 5.45 0.6 5.1 0.65 5.05 M1.1 7.2 L1.2 7.2 1.35 7.3 1.45 7.4 1.5 7.65 1.55 7.9 1.9 8.0 1.55 8.0 1.55 8.35 1.85 8.55 1.8 8.55 1.4 8.5 1.4 8.0 1.3 8.0 1.25 8.0 1.2 8.0 1.15 8.0 1.1 8.0 1.05 8.0 1.05 8.4 1.3 8.45 0.95 8.5 0.9 8.2 Q0.9 8.05 0.8 7.95 0.6 7.8 0.65 7.55 0.7 7.4 0.85 7.3 0.95 7.2 1.1 7.2 M1.1 4.7 L1.1 4.65 0.9 4.75 0.75 5.3 1.45 5.35 1.4 5.3 Q1.45 5.1 1.4 4.95 1.3 4.75 1.1 4.7 M1.55 5.15 Q1.5 5.15 1.5 5.2 1.5 5.25 1.55 5.3 1.6 5.35 1.65 5.25 1.65 5.15 1.55 5.15 M1.1 7.3 L1.1 7.25 0.85 7.35 1.0 7.4 Q0.8 7.6 0.75 7.9 L1.4 7.9 Q1.45 7.65 1.4 7.55 1.3 7.35 1.1 7.3" fill="#403b37" fill-rule="evenodd" stroke="none"/>
    <path d="M1.45 3.9 L1.6 4.0 1.7 4.15 1.5 4.15 1.45 3.9" fill="#c2b1af" fill-rule="evenodd" stroke="none"/>
    <path d="M1.1 4.7 Q1.3 4.75 1.4 4.95 1.45 5.1 1.4 5.3 L1.1 4.7 M3.0 9.5 L3.1 9.85 2.75 9.9 2.75 9.85 3.0 9.5" fill="#fffffd" fill-rule="evenodd" stroke="none"/>
    <path d="M1.4 5.3 L1.45 5.35 0.75 5.3 0.9 4.75 1.1 4.65 1.1 4.7 1.4 5.3" fill="#766d66" fill-rule="evenodd" stroke="none"/>
    <path d="M1.95 5.0 Q1.9 4.9 1.8 4.8 L1.55 4.65 1.75 4.65 Q1.85 4.7 1.9 4.75 2.0 4.85 2.0 5.0 L2.05 5.25 1.95 5.35 1.95 5.0" fill="#413933" fill-rule="evenodd" stroke="none"/>
    <path d="M2.4 4.5 L1.8 4.5 1.95 4.3 2.25 4.4 2.4 4.3 2.4 4.45 2.4 4.5" fill="#978e86" fill-rule="evenodd" stroke="none"/>
    <path d="M1.2 7.2 L1.3 7.2 1.25 6.95 1.6 6.5 1.2 6.3 1.1 6.15 1.05 6.0 Q1.45 5.95 1.7 6.2 L1.65 6.35 1.6 6.5 1.75 6.55 1.7 6.4 1.8 6.45 1.9 6.5 2.0 6.05 2.05 6.15 2.15 6.25 2.05 6.5 1.95 6.7 2.4 6.25 2.4 8.2 Q2.4 8.6 2.4 8.8 2.4 8.95 2.55 9.05 L2.75 9.3 2.75 9.85 2.75 9.9 2.75 9.95 2.75 10.1 2.65 9.7 2.55 9.3 Q2.4 9.15 2.2 9.05 L1.75 8.9 1.95 9.05 Q1.8 9.05 1.8 9.15 1.9 9.2 1.95 9.1 L1.95 9.25 1.9 9.4 1.65 9.15 1.5 9.3 Q1.4 9.4 1.45 9.5 L1.75 9.55 Q1.65 10.0 1.75 10.55 L1.35 11.0 0.85 10.4 0.35 9.85 0.2 9.9 -0.15 9.75 0.2 9.45 0.55 9.5 1.0 9.6 Q1.1 9.55 1.2 9.45 1.3 9.3 1.25 9.15 1.25 9.05 1.1 9.05 L0.8 9.05 1.05 9.35 0.9 9.4 0.5 9.1 0.7 8.8 Q0.8 8.65 0.75 8.5 0.7 8.2 0.75 8.05 L0.85 8.15 0.85 8.55 1.8 8.55 1.85 8.55 1.55 8.35 1.55 8.0 1.9 8.0 1.55 7.9 1.5 7.65 1.45 7.4 1.35 7.3 1.2 7.2" fill="#6c625b" fill-rule="evenodd" stroke="none"/>
    <path d="M1.7 5.4 L1.7 5.45 1.6 5.45 1.6 5.4 1.7 5.4" fill="#ffffe6" fill-rule="evenodd" stroke="none"/>
    <path d="M1.3 5.85 L1.05 5.8 1.05 5.4 1.2 5.4 1.1 5.6 1.35 5.6 1.4 5.8 1.45 5.9 1.3 5.85" fill="#7b7268" fill-rule="evenodd" stroke="none"/>
    <path d="M1.45 5.9 Q1.3 6.0 1.2 5.9 L1.3 5.85 1.45 5.9" fill="#f6e5cd" fill-rule="evenodd" stroke="none"/>
    <path d="M0.5 5.25 L0.55 5.2 0.65 5.4 0.75 5.65 0.65 5.85 0.5 5.95 1.0 6.2 Q0.95 6.3 1.05 6.5 L1.15 6.8 1.0 7.05 0.6 6.3 0.5 6.65 0.65 6.8 0.5 6.95 0.7 7.25 0.8 6.95 1.1 7.2 Q0.95 7.2 0.85 7.3 0.7 7.4 0.65 7.55 L0.6 7.65 0.55 7.8 0.75 8.05 Q0.7 8.2 0.75 8.5 0.8 8.65 0.7 8.8 L0.5 9.1 0.9 9.4 1.05 9.35 0.8 9.05 1.1 9.05 Q1.25 9.05 1.25 9.15 1.3 9.3 1.2 9.45 1.1 9.55 1.0 9.6 L0.55 9.5 0.65 9.35 0.35 9.45 Q0.3 9.05 0.45 8.75 L0.3 8.75 0.3 8.45 0.6 8.5 0.6 8.4 0.3 8.35 0.35 8.15 0.45 7.8 0.3 7.55 0.4 7.2 0.3 7.15 0.3 6.95 0.3 6.9 0.3 6.75 0.35 6.55 Q0.3 6.2 0.35 5.9 L0.4 5.55 Q0.4 5.35 0.5 5.25" fill="#5b524e" fill-rule="evenodd" stroke="none"/>
    <path d="M-0.6 6.35 L-0.6 6.1 -0.5 6.0 -0.2 6.1 0.0 5.75 0.1 5.9 -0.15 6.35 -0.6 6.35" fill="#8c8077" fill-rule="evenodd" stroke="none"/>
    <path d="M-0.6 7.05 L-0.6 6.75 -0.6 6.6 -0.25 6.75 Q-0.05 6.9 0.05 7.0 L0.3 6.9 0.3 6.95 0.1 7.2 0.3 7.15 0.4 7.2 0.3 7.55 0.45 7.8 0.35 8.15 0.35 7.75 0.1 7.95 0.0 7.85 -0.25 7.95 -0.3 7.85 -0.1 7.75 0.1 7.7 0.15 7.4 -0.1 7.45 -0.2 7.2 -0.4 7.2 -0.45 6.9 -0.6 7.05" fill="#7f706d" fill-rule="evenodd" stroke="none"/>
    <path d="M1.4 7.9 L0.75 7.9 Q0.8 7.6 1.0 7.4 L0.85 7.35 1.1 7.25 1.1 7.3 1.4 7.9" fill="#6c645c" fill-rule="evenodd" stroke="none"/>
    <path d="M1.7 6.2 L1.95 6.3 1.9 6.5 1.8 6.45 1.65 6.35 1.7 6.2" fill="#403932" fill-rule="evenodd" stroke="none"/>
    <path d="M1.3 8.45 L1.05 8.4 1.05 8.0 1.1 8.0 1.15 8.0 1.2 8.0 1.4 8.4 1.4 8.5 1.3 8.45" fill="#7b746c" fill-rule="evenodd" stroke="none"/>
    <path d="M1.4 7.9 L1.1 7.3 Q1.3 7.35 1.4 7.55 1.45 7.65 1.4 7.9" fill="#f0e6cb" fill-rule="evenodd" stroke="none"/>
    <path d="M-0.6 10.15 L-0.6 8.6 Q-0.6 7.65 -0.6 7.05 L-0.45 6.9 -0.4 7.2 -0.2 7.2 -0.1 7.45 0.15 7.4 0.1 7.7 -0.1 7.75 -0.3 7.85 -0.25 7.95 0.0 7.85 0.1 7.95 0.35 7.75 0.35 8.15 0.3 8.35 0.6 8.4 0.6 8.5 0.3 8.45 0.3 8.75 0.45 8.75 Q0.3 9.05 0.35 9.45 L0.65 9.35 0.55 9.5 0.2 9.45 -0.15 9.75 0.2 9.9 0.15 9.9 -0.1 9.95 -0.35 10.0 -0.6 10.15" fill="#95897f" fill-rule="evenodd" stroke="none"/>
    <path d="M2.75 9.3 L3.0 9.5 2.75 9.85 2.75 9.3" fill="#b4a49a" fill-rule="evenodd" stroke="none"/>
    <path d="M3.15 10.05 L3.1 10.15 3.05 10.1 3.15 10.05" fill="#fffbf1" fill-rule="evenodd" stroke="none"/>
    <path d="M3.1 9.85 L3.15 10.05 3.05 10.1 3.1 10.15 2.75 10.1 2.75 9.95 2.75 9.9 3.1 9.85" fill="#908278" fill-rule="evenodd" stroke="none"/>
    <path d="M1.35 11.05 L1.35 12.45 1.3 12.1 1.15 12.25 1.1 12.15 Q1.15 11.95 1.05 11.6 L1.3 11.45 1.15 11.45 Q1.2 11.3 1.2 11.25 1.25 11.1 1.35 11.05" fill="#efdbcb" fill-rule="evenodd" stroke="none"/>
    <path d="M-1.8 -7.55 L-1.85 -8.35 -1.45 -8.2 -1.8 -8.05 Q-1.7 -7.85 -1.4 -7.85 L-1.4 -7.8 -1.6 -7.65 -1.8 -7.45 -1.8 -7.55" fill="#907f70" fill-rule="evenodd" stroke="none"/>
    <path d="M-0.95 -7.4 L-1.25 -7.35 -1.75 -7.4 -1.45 -7.65 Q-1.35 -7.8 -1.15 -7.8 L-1.1 -7.8 -1.1 -7.8 -0.95 -7.4" fill="#9d9288" fill-rule="evenodd" stroke="none"/>
    <path d="M-0.8 -7.35 L-0.95 -7.4 -1.1 -7.8 -1.1 -7.8 -1.15 -7.8 -1.4 -7.8 -1.4 -7.85 -1.35 -8.05 -1.15 -8.0 -1.15 -8.25 Q-1.05 -8.2 -0.95 -8.0 L-0.9 -7.85 Q-0.75 -7.65 -0.65 -7.4 L-0.65 -7.35 -0.8 -7.35" fill="#68605b" fill-rule="evenodd" stroke="none"/>
    <path d="M-0.85 -7.95 L-0.45 -7.85 -0.5 -7.65 Q-0.55 -7.6 -0.65 -7.4 -0.75 -7.65 -0.9 -7.85 L-0.95 -8.0 -0.85 -7.95" fill="#a3968a" fill-rule="evenodd" stroke="none"/>
    <path d="M0.9 -15.65 L1.0 -15.75 1.2 -16.0 Q1.3 -16.1 1.45 -16.1 1.7 -16.15 1.8 -16.05 L2.05 -15.8 2.15 -15.4 Q2.2 -15.25 2.1 -14.95 2.0 -14.7 2.05 -14.55 L2.05 -10.8 2.0 -9.85 2.05 -8.95 2.05 -8.9 M2.2 -8.95 L2.2 -8.9 3.05 -8.9 3.95 -8.9 Q4.1 -8.9 4.25 -8.8 L4.5 -8.55 4.55 -7.95 4.55 -7.4 4.15 -7.4 4.1 -7.55 3.8 -7.65 3.75 -7.35 3.45 -7.35 3.4 -7.35 3.4 -7.35 3.35 -7.35 3.35 -5.3 3.3 -5.0 3.35 -4.45 3.35 -3.05 3.35 9.95 Q3.35 10.2 3.15 10.45 L2.6 11.05 2.05 11.7 1.7 12.1 1.35 12.5 -0.55 10.25 -0.6 10.15 -0.6 8.6 Q-0.6 7.65 -0.6 7.05 L-0.6 6.75 -0.6 6.35 -0.6 6.1 -0.6 -0.15 -0.65 -0.65 -0.6 -0.95 -0.6 -1.15 -0.6 -1.35 -0.6 -2.2 -0.6 -6.3 -0.6 -7.25 -0.8 -7.35 -0.95 -7.4 -1.25 -7.35 -1.4 -7.35 -1.7 -7.35 -1.85 -7.45 -1.8 -7.55 -1.85 -8.35 -1.7 -8.6 -1.55 -8.9 -1.5 -8.8 Q-1.45 -8.75 -1.4 -8.75 L-1.25 -8.85 -1.05 -8.9 0.65 -8.9 0.7 -8.9 0.75 -8.9 0.75 -8.9 0.75 -8.95 M0.95 -8.95 L0.95 -10.1 0.95 -10.3 0.95 -11.1 0.95 -11.8 Q0.9 -12.5 0.95 -12.8 L0.9 -12.85 0.9 -12.9 0.95 -13.0 0.95 -14.3 0.95 -14.55 0.9 -15.1 0.9 -15.55 0.9 -15.65 M0.95 -8.95 L0.95 -8.9 M0.8 -8.9 L0.75 -8.9" fill="none" stroke="#000000" stroke-linecap="round" stroke-linejoin="round" stroke-opacity="0.4509804" stroke-width="0.1"/>
  </g>
</svg>
