<?xml version="1.0" encoding="UTF-8" standalone="no"?>
<svg xmlns:xlink="http://www.w3.org/1999/xlink" height="43.6px" width="12.75px" xmlns="http://www.w3.org/2000/svg">
  <g transform="matrix(1.0, 0.0, 0.0, 1.0, 4.9, 16.0)">
    <path d="M1.0 -14.9 L1.05 -15.7 Q1.05 -15.8 1.05 -15.8 1.25 -15.95 1.45 -16.0 1.7 -15.95 1.85 -15.8 L1.9 -15.7 1.9 -15.35 1.7 -15.3 1.7 -15.5 Q1.7 -15.65 1.5 -15.65 1.3 -15.65 1.25 -15.45 L1.25 -15.4 1.25 -15.1 1.0 -14.9 M1.95 -14.55 L1.95 -13.3 1.7 -13.2 Q1.65 -13.15 1.6 -13.15 L1.5 -14.35 1.6 -14.4 1.95 -14.55 M1.95 -12.1 L1.95 -11.05 1.7 -10.9 1.7 -11.2 1.65 -11.75 1.65 -11.95 1.7 -12.0 1.95 -12.1 M2.0 -9.8 L2.0 -8.4 1.7 -8.3 1.7 -8.95 1.7 -9.7 1.7 -9.75 2.0 -9.8 M2.0 -7.0 L1.95 -5.9 1.65 -5.9 1.45 -5.9 0.95 -5.9 0.95 -6.55 1.1 -6.7 1.15 -6.7 1.2 -6.55 Q1.2 -6.4 1.2 -6.3 1.3 -6.15 1.55 -6.15 L1.65 -6.15 1.7 -6.6 1.7 -6.75 1.7 -6.95 2.0 -7.0 M3.45 -7.5 Q3.4 -7.15 3.25 -6.8 L3.15 -6.55 3.15 -6.5 3.05 -6.35 3.1 -6.45 Q3.1 -6.55 2.95 -6.8 2.85 -7.0 2.7 -7.0 2.6 -7.0 2.45 -6.7 L2.3 -6.4 2.45 -7.1 2.55 -7.7 2.65 -7.5 Q2.75 -7.15 2.9 -7.15 3.0 -7.2 3.05 -7.2 3.05 -7.15 3.15 -7.15 3.25 -7.15 3.3 -7.3 3.35 -7.5 3.4 -7.5 L3.45 -7.5 M3.55 -6.9 L4.15 -7.45 Q4.6 -7.85 4.9 -8.05 L4.95 -7.85 5.05 -7.55 4.9 -7.45 4.9 -7.4 5.05 -7.45 5.1 -7.35 5.05 -7.35 5.05 -7.35 5.1 -7.35 5.15 -7.35 5.25 -7.4 5.3 -7.4 5.4 -7.35 4.75 -6.9 4.65 -7.05 Q4.45 -7.25 4.3 -7.25 4.15 -7.25 3.9 -7.05 L3.65 -6.85 Q3.6 -6.85 3.55 -6.9 L3.55 -6.9 M7.7 -5.15 Q7.6 -4.9 7.3 -4.65 L6.8 -4.9 Q6.2 -5.25 6.2 -5.5 L6.35 -5.8 6.35 -5.85 6.6 -6.05 6.9 -6.2 6.95 -6.15 7.0 -6.1 Q7.0 -6.0 6.75 -5.8 L6.45 -5.55 6.45 -5.55 6.5 -5.55 Q6.6 -5.55 6.7 -5.65 L7.0 -5.85 7.1 -5.85 7.1 -5.85 7.0 -5.7 6.9 -5.6 6.9 -5.55 6.95 -5.6 7.05 -5.65 7.05 -5.6 6.9 -5.35 6.75 -5.1 6.75 -5.1 7.1 -5.15 Q7.2 -5.15 7.35 -5.35 L7.4 -5.35 7.35 -5.2 7.4 -5.2 Q7.5 -5.2 7.5 -5.1 L7.7 -5.15 M6.0 -3.8 L5.55 -3.65 5.8 -4.0 Q6.05 -4.35 6.05 -4.45 L5.95 -4.55 5.75 -4.65 5.7 -4.7 5.75 -4.75 5.75 -4.75 Q5.75 -4.85 5.55 -4.95 L5.1 -5.15 Q4.95 -5.25 4.9 -5.35 L4.9 -5.35 5.15 -5.4 5.3 -5.3 5.45 -5.25 Q5.5 -5.25 5.7 -5.35 L5.9 -5.4 Q5.95 -5.4 5.95 -5.25 6.15 -5.2 6.35 -4.95 L6.45 -4.65 Q6.45 -4.2 6.2 -4.2 L6.1 -4.0 6.0 -3.8 M-3.2 -3.85 Q-3.5 -4.0 -3.85 -4.2 -4.55 -4.65 -4.8 -5.15 L-4.6 -5.2 -4.5 -5.15 -4.25 -5.1 -3.9 -6.35 -3.85 -6.25 Q-3.65 -5.9 -3.05 -5.65 L-2.7 -5.5 -2.9 -5.4 -3.4 -5.0 -3.3 -4.8 -3.2 -4.6 -3.2 -4.55 -3.25 -4.55 -3.5 -4.75 -3.5 -4.7 -3.25 -4.5 Q-3.1 -4.4 -3.1 -4.3 -3.1 -4.2 -3.15 -4.15 L-3.4 -4.35 -3.45 -4.3 Q-3.5 -4.25 -3.3 -4.0 L-3.2 -3.85 M0.95 -7.9 L0.95 -9.3 1.1 -9.45 1.15 -8.3 1.2 -8.05 1.1 -8.0 0.95 -7.9 M0.95 -10.55 L0.95 -11.55 1.15 -11.75 1.15 -11.5 1.2 -11.35 1.2 -11.05 1.15 -10.7 0.95 -10.55 M0.95 -12.65 L0.95 -13.95 1.2 -14.15 1.25 -14.15 1.2 -12.95 1.15 -12.9 0.95 -12.65 M1.25 -15.1 L1.25 -15.1 M1.7 -10.9 L1.7 -10.9 M0.1 -5.85 L0.3 -6.05 Q0.45 -6.25 0.45 -6.45 0.45 -6.8 0.35 -7.05 0.2 -7.3 0.2 -7.75 L0.15 -7.9 0.15 -7.95 Q0.15 -8.15 0.25 -8.25 L0.3 -8.35 0.3 -8.2 Q0.3 -7.9 0.45 -7.1 0.6 -6.3 0.75 -5.85 L0.2 -5.7 0.1 -5.85 M2.7 -5.2 L2.65 -5.3 2.65 -5.35 Q2.9 -5.3 3.3 -4.9 3.85 -4.45 3.85 -4.25 L4.1 -4.0 Q4.4 -3.75 4.4 -3.65 L4.4 -3.6 4.3 -3.35 Q4.25 -3.75 2.85 -4.65 L2.7 -5.2 M-1.4 -3.85 Q-1.0 -4.8 -0.6 -4.95 L-0.25 -5.25 Q0.05 -5.5 0.2 -5.5 0.25 -5.5 0.3 -5.35 L0.35 -5.15 0.25 -4.9 0.25 -4.85 -0.05 -4.75 Q-0.3 -4.75 -0.55 -4.5 -0.85 -4.3 -0.95 -3.95 L-1.4 -3.85" fill="#a82424" fill-rule="evenodd" stroke="none"/>
    <path d="M1.25 -15.1 L1.25 -15.1 1.35 -15.15 1.65 -15.3 1.6 -14.4 1.5 -14.35 1.35 -14.25 1.25 -14.15 1.2 -14.15 1.2 -14.55 1.25 -14.95 1.25 -15.1 M1.25 -10.75 L1.35 -10.8 1.7 -10.9 1.7 -10.9 1.7 -9.75 1.7 -9.7 1.4 -9.6 1.2 -9.5 1.25 -10.75" fill="#3c69a8" fill-rule="evenodd" stroke="none"/>
    <path d="M1.9 -15.35 L1.95 -14.55 1.6 -14.4 1.65 -15.3 1.7 -15.3 1.9 -15.35 M1.95 -11.05 L2.0 -9.8 1.7 -9.75 1.7 -10.9 1.95 -11.05 M0.95 -9.3 L0.95 -10.55 1.15 -10.7 1.25 -10.75 1.2 -9.5 1.1 -9.45 0.95 -9.3 M0.95 -13.95 L1.0 -14.9 1.25 -15.1 1.25 -14.95 1.2 -14.55 1.2 -14.15 0.95 -13.95" fill="#31568a" fill-rule="evenodd" stroke="none"/>
    <path d="M7.3 -4.65 L6.75 -4.2 6.0 -3.8 6.1 -4.0 6.2 -4.2 Q6.45 -4.2 6.45 -4.65 L6.35 -4.95 Q6.15 -5.2 5.95 -5.25 5.95 -5.4 5.9 -5.4 L5.7 -5.35 Q5.5 -5.25 5.45 -5.25 L5.3 -5.3 5.15 -5.4 Q5.6 -5.5 5.95 -5.65 L6.35 -5.85 6.35 -5.8 6.2 -5.5 Q6.2 -5.25 6.8 -4.9 L7.3 -4.65 M4.65 -1.45 Q4.4 -0.75 3.85 -0.2 L3.2 0.35 2.75 0.55 Q2.15 0.35 1.75 0.0 2.45 -0.1 2.75 -0.25 2.9 -0.3 3.05 -0.45 L3.1 -0.5 3.25 -0.65 3.35 -0.65 3.3 -0.65 3.3 -0.65 3.35 -0.65 Q3.65 -0.8 3.75 -1.1 3.95 -1.15 4.2 -1.25 4.45 -1.35 4.65 -1.45 M-0.3 21.0 L-0.3 18.8 Q-0.15 18.25 -0.2 17.9 -0.2 17.4 0.05 16.85 L0.3 16.15 0.15 15.8 -0.2 15.1 -0.3 14.6 -0.3 9.0 -0.2 8.9 0.0 8.9 Q0.05 9.05 0.1 9.1 L0.15 9.2 0.2 9.05 Q0.25 8.95 0.25 9.0 L0.55 9.35 0.7 9.2 0.4 9.0 Q0.25 8.85 0.25 8.7 L0.4 8.7 0.45 8.75 0.5 8.8 0.55 8.7 0.35 8.45 Q0.15 8.35 0.15 8.25 0.15 8.15 0.2 8.15 L0.25 8.1 0.2 8.1 0.15 8.05 0.05 8.05 0.1 7.9 Q0.15 7.75 0.35 7.8 L0.2 7.65 Q0.05 7.55 -0.1 7.55 -0.05 7.7 -0.2 7.8 L-0.3 7.9 -0.3 2.05 -0.25 2.1 Q-0.05 2.2 0.05 2.2 0.15 2.2 0.25 2.3 0.2 2.4 0.2 2.6 0.15 2.65 0.3 2.65 0.4 2.65 0.5 2.5 L0.55 2.7 0.45 2.9 0.3 3.05 Q0.35 3.3 0.55 3.65 L0.8 4.2 0.8 3.9 0.85 3.65 Q0.85 3.5 1.0 3.4 1.2 3.3 1.2 3.1 1.2 3.05 1.2 3.0 1.2 2.95 1.15 2.95 1.1 2.95 1.1 2.95 L1.1 2.9 1.05 2.9 1.05 2.8 Q1.05 2.65 1.15 2.5 1.25 2.4 1.25 2.15 L1.3 2.1 Q1.4 2.2 1.45 2.5 L1.45 3.5 1.45 4.8 1.6 5.1 1.7 5.45 1.45 6.15 1.45 6.95 1.45 8.5 1.45 10.15 Q1.65 10.2 1.7 10.35 L1.9 10.7 2.25 10.7 2.3 10.6 2.4 10.55 Q2.45 10.5 2.5 10.5 2.5 10.65 2.6 10.75 L2.7 10.9 Q2.65 10.9 2.65 10.95 L2.4 11.0 2.25 11.05 2.0 10.75 2.05 10.8 1.95 10.85 1.65 10.75 Q1.65 10.9 1.55 10.95 L1.45 10.95 1.45 12.65 1.55 12.95 Q1.7 13.35 2.0 13.5 L1.9 13.55 1.9 13.7 1.95 14.0 1.95 14.1 1.95 14.15 2.0 14.25 1.5 14.55 1.7 14.25 1.65 14.2 1.45 14.2 1.4 14.25 1.3 13.95 Q1.15 14.15 1.0 14.45 L0.8 14.9 1.2 15.1 Q1.35 15.2 1.3 15.45 L1.4 15.4 1.4 15.25 1.35 15.15 1.3 15.1 1.3 14.9 Q1.35 14.7 1.45 14.6 L1.45 15.3 1.45 18.5 1.45 19.1 1.95 19.25 2.0 19.1 2.15 19.15 2.25 19.15 Q2.2 19.45 2.3 19.8 L2.45 20.3 2.3 20.45 Q2.3 20.4 2.2 20.4 2.25 20.15 2.05 20.15 2.05 20.25 1.75 20.45 1.5 20.6 1.45 20.85 L1.45 23.4 1.45 26.1 1.4 26.0 1.3 25.65 1.05 25.8 0.85 25.5 0.75 25.5 Q0.75 25.75 0.8 25.85 0.3 25.6 0.05 24.85 -0.2 24.2 -0.2 23.4 L0.05 23.0 Q0.3 22.45 0.4 22.05 L0.3 22.05 0.3 22.0 0.25 21.9 0.3 21.75 0.35 21.6 0.2 21.25 Q-0.05 20.95 -0.25 21.05 L-0.3 21.0 M-0.3 0.35 L-0.9 -0.2 Q-1.4 -0.65 -1.65 -1.25 L-1.55 -1.55 -1.35 -1.8 Q-1.3 -1.3 -0.8 -0.8 -0.4 -0.35 -0.05 -0.25 0.0 0.05 0.1 0.35 L0.2 0.55 -0.3 0.35 M1.25 -15.1 L1.25 -15.4 1.25 -15.45 Q1.3 -15.65 1.5 -15.65 1.7 -15.65 1.7 -15.5 L1.7 -15.3 1.65 -15.3 1.35 -15.15 1.25 -15.1 M1.25 -14.15 L1.35 -14.25 1.5 -14.35 1.6 -13.15 1.4 -13.05 1.2 -12.9 1.15 -12.9 1.2 -12.95 1.25 -14.15 M1.65 -11.95 L1.65 -11.75 1.7 -11.2 1.7 -10.9 1.35 -10.8 1.25 -10.75 1.15 -10.7 1.2 -11.05 1.2 -11.35 1.15 -11.5 1.15 -11.75 1.2 -11.75 1.35 -11.85 1.65 -11.95 M2.45 -5.8 L2.7 -5.7 2.7 -5.7 3.35 -5.35 3.85 -4.95 Q4.25 -4.5 4.5 -3.95 L4.4 -3.65 Q4.4 -3.75 4.1 -4.0 L3.85 -4.25 Q3.85 -4.45 3.3 -4.9 2.9 -5.3 2.65 -5.35 L2.45 -5.8 M1.2 -9.5 L1.4 -9.6 1.7 -9.7 1.7 -8.95 1.7 -8.3 1.65 -8.25 1.5 -8.2 1.2 -8.05 1.15 -8.3 1.1 -9.45 1.2 -9.5 M1.7 -6.95 L1.7 -6.95 1.7 -6.75 1.7 -6.6 1.65 -6.15 1.55 -6.15 Q1.3 -6.15 1.2 -6.3 1.2 -6.4 1.2 -6.55 L1.15 -6.7 1.5 -6.85 1.7 -6.95 M0.05 -5.6 Q0.4 -5.55 0.65 -5.35 L0.9 -5.15 0.95 -5.1 0.85 -5.1 0.8 -5.05 0.4 -4.9 0.25 -4.85 0.25 -4.9 0.35 -5.15 0.3 -5.35 Q0.25 -5.5 0.2 -5.5 0.05 -5.5 -0.25 -5.25 L-0.6 -4.95 Q-1.0 -4.8 -1.4 -3.85 L-1.45 -3.8 -1.45 -3.8 -1.7 -3.7 Q-1.5 -4.4 -0.9 -4.95 L-0.5 -5.3 -0.4 -5.35 -0.3 -5.45 0.05 -5.6" fill="#cd2d2d" fill-rule="evenodd" stroke="none"/>
    <path d="M3.2 0.35 L3.2 4.8 3.1 4.75 Q2.85 4.6 2.95 4.15 2.8 4.15 2.7 3.95 2.7 3.8 2.75 3.8 L2.9 3.8 3.0 3.8 2.95 3.35 2.9 2.85 2.9 2.3 2.8 1.8 2.75 1.7 2.7 1.8 2.65 1.9 2.5 1.9 2.5 2.15 Q2.5 2.35 2.35 2.4 L2.3 2.25 2.2 2.2 2.1 2.25 2.05 2.25 Q2.1 2.5 2.05 2.8 L1.8 3.35 Q1.75 3.25 1.65 3.25 L1.55 3.2 1.55 3.5 1.45 3.5 1.45 2.5 1.45 0.8 Q2.15 0.8 2.75 0.55 L3.2 0.35 M3.2 5.8 L3.2 8.6 3.1 8.6 Q3.0 8.6 2.9 8.5 2.8 8.4 2.7 8.35 L2.65 8.55 2.65 8.7 2.55 8.7 2.45 8.45 Q2.4 8.35 2.25 8.35 2.15 8.35 1.7 8.55 L1.5 8.5 1.45 8.5 1.45 6.95 1.5 6.85 1.95 6.45 Q2.1 6.5 2.2 6.65 L2.3 6.85 2.45 6.6 Q2.6 6.4 2.75 6.5 2.9 6.15 3.0 6.0 L3.2 5.8 M3.2 10.05 L3.2 13.5 2.85 13.1 2.7 13.15 2.65 13.05 2.65 12.85 2.85 12.9 2.9 12.8 2.95 12.65 2.85 12.45 2.7 12.2 2.85 12.05 2.9 12.15 2.95 12.2 Q2.95 12.15 3.0 12.15 3.0 12.1 3.0 12.15 L3.05 12.05 2.95 11.8 Q2.9 11.55 2.9 11.4 L2.65 11.4 2.65 11.05 2.55 11.1 2.4 11.05 2.4 11.0 2.65 10.95 Q2.65 10.9 2.7 10.9 L2.6 10.75 Q2.5 10.65 2.5 10.5 2.45 10.5 2.4 10.55 L2.4 10.4 Q2.5 10.35 2.6 10.45 L2.65 10.45 2.65 10.3 2.85 10.3 2.95 10.4 3.05 10.45 Q3.0 10.35 3.1 10.2 L3.2 10.05 M3.2 18.8 L3.2 23.65 3.05 24.7 Q2.7 26.0 2.1 26.0 L1.95 25.9 1.8 25.85 Q1.8 26.05 1.65 26.15 L1.5 26.2 1.45 26.2 1.45 26.1 1.45 23.4 Q1.55 23.6 1.7 23.6 L1.8 23.6 1.8 23.4 2.0 23.45 Q2.0 23.25 2.1 23.15 2.2 23.0 2.2 22.8 L2.25 22.8 2.25 22.75 Q2.45 22.85 2.45 23.05 2.7 22.9 2.75 22.5 L2.85 21.7 2.85 21.45 3.0 21.5 3.0 21.1 Q2.75 20.85 2.75 20.8 L2.8 20.65 2.9 20.45 2.8 20.45 2.65 20.4 2.65 20.3 2.6 20.15 Q2.6 19.9 2.9 19.35 L3.2 18.8 M1.6 -13.15 Q1.65 -13.15 1.7 -13.2 L1.7 -12.0 1.65 -11.95 1.35 -11.85 1.2 -11.75 1.2 -12.55 1.2 -12.9 1.4 -13.05 1.6 -13.15 M1.2 -8.05 L1.5 -8.2 1.65 -8.25 1.7 -6.95 1.5 -6.85 1.15 -6.7 1.1 -6.7 1.1 -8.0 1.2 -8.05 M1.95 14.1 L2.1 14.25 2.25 14.35 Q2.25 14.5 2.35 14.6 2.4 14.7 2.4 14.85 L2.35 15.05 2.15 15.3 Q2.05 15.15 1.95 15.15 L1.75 15.2 1.55 15.3 1.45 15.3 1.45 14.6 1.5 14.6 1.5 14.55 2.0 14.25 1.95 14.15 1.95 14.1 M1.45 18.5 Q1.6 18.45 2.0 18.25 L2.1 18.3 Q2.1 18.5 2.2 18.6 L2.3 18.75 2.2 18.95 2.15 19.15 2.0 19.1 1.95 19.25 1.45 19.1 1.45 18.5" fill="#649a2b" fill-rule="evenodd" stroke="none"/>
    <path d="M1.95 -13.3 L1.95 -12.1 1.7 -12.0 1.7 -13.2 1.95 -13.3 M2.0 -8.4 L2.0 -7.0 1.7 -6.95 1.7 -6.95 1.65 -8.25 1.7 -8.3 2.0 -8.4 M0.95 -6.55 L0.95 -7.9 1.1 -8.0 1.1 -6.7 0.95 -6.55 M0.95 -11.55 L0.95 -12.65 1.15 -12.9 1.2 -12.9 1.2 -12.55 1.2 -11.75 1.15 -11.75 0.95 -11.55" fill="#4b7420" fill-rule="evenodd" stroke="none"/>
    <path d="M2.15 -5.85 Q2.05 -6.45 2.05 -7.05 L2.05 -8.5 Q2.15 -8.75 2.3 -8.85 2.45 -8.95 2.75 -8.95 3.2 -8.95 3.35 -8.8 3.45 -8.65 3.45 -8.35 L3.3 -8.55 3.25 -8.45 3.3 -7.9 3.3 -7.55 Q3.25 -7.3 3.1 -7.3 3.1 -7.3 2.95 -7.35 L2.8 -7.4 2.75 -7.55 Q2.75 -7.9 2.8 -8.15 L2.85 -8.45 2.75 -8.65 2.65 -8.75 2.55 -8.6 2.5 -8.65 Q2.35 -8.65 2.3 -8.55 L2.2 -8.3 Q2.2 -8.1 2.2 -7.7 L2.2 -7.25 2.25 -7.25 2.25 -7.95 2.45 -8.4 2.5 -8.4 2.5 -8.45 2.6 -8.35 2.6 -8.2 2.55 -7.7 2.45 -7.1 2.3 -6.4 2.2 -5.85 2.15 -5.85 M4.95 -3.6 L4.85 -3.65 4.65 -3.65 4.5 -3.95 Q4.25 -4.5 3.85 -4.95 L3.35 -5.35 2.7 -5.7 2.7 -5.7 2.45 -5.8 2.35 -5.8 Q2.3 -6.1 2.4 -6.35 L2.65 -6.85 2.7 -6.9 Q2.9 -6.9 2.95 -6.7 L3.0 -6.45 2.95 -6.1 3.2 -5.95 3.35 -5.9 Q3.5 -6.45 4.2 -7.05 L4.2 -6.95 4.25 -6.85 4.2 -6.75 4.2 -6.65 4.25 -6.65 4.35 -6.75 Q4.45 -6.85 4.5 -6.85 L4.5 -6.8 4.4 -6.65 4.75 -6.9 5.4 -7.35 5.3 -7.4 5.25 -7.4 5.15 -7.35 5.1 -7.35 5.05 -7.35 5.05 -7.35 5.1 -7.35 5.2 -7.4 5.25 -7.5 5.05 -7.45 4.9 -7.4 4.9 -7.45 5.05 -7.55 5.2 -7.7 Q5.4 -7.8 5.45 -7.8 5.75 -7.8 6.3 -7.4 6.8 -6.95 6.8 -6.6 6.8 -6.4 6.75 -6.25 L6.0 -6.4 Q5.45 -6.4 4.8 -5.8 L4.3 -5.7 3.8 -5.6 3.65 -5.6 3.45 -5.55 3.3 -5.6 3.3 -5.55 3.3 -5.4 3.45 -5.4 3.5 -5.4 3.65 -5.3 3.8 -5.15 4.05 -5.15 4.4 -5.15 5.15 -4.95 Q5.55 -4.75 5.55 -4.4 5.55 -4.25 5.3 -3.95 L4.95 -3.6 M-1.7 -3.65 L-1.75 -3.65 -1.95 -3.65 -2.15 -3.6 -2.45 -3.65 -2.4 -3.7 -2.3 -3.95 Q-2.3 -4.05 -2.75 -4.5 -3.15 -4.9 -3.15 -5.0 -3.15 -5.1 -2.25 -5.15 L-0.5 -5.3 -0.9 -4.95 Q-1.5 -4.4 -1.7 -3.7 L-1.7 -3.65 M-4.9 -5.85 Q-4.8 -6.75 -3.9 -7.45 -3.05 -8.2 -2.35 -8.2 -2.2 -8.2 -1.95 -8.0 L-2.0 -7.95 -2.25 -7.8 -2.55 -7.9 Q-3.35 -7.9 -3.85 -6.95 L-4.4 -5.45 -4.55 -5.6 -4.7 -5.75 -4.9 -5.85 M-0.9 -7.15 L-0.2 -6.5 0.1 -5.85 0.2 -5.7 0.05 -5.6 -0.3 -5.45 -0.4 -5.4 -0.7 -5.35 -1.4 -5.3 -1.45 -5.3 Q-2.3 -6.4 -3.1 -6.4 L-3.45 -6.35 -3.85 -6.25 -3.9 -6.35 -3.9 -6.6 Q-3.9 -6.95 -3.4 -7.4 -2.85 -7.8 -2.55 -7.8 -2.5 -7.8 -2.3 -7.7 L-2.15 -7.55 Q-2.1 -7.25 -1.8 -7.15 -1.45 -7.1 -1.45 -7.0 L-1.5 -6.95 -1.75 -7.1 Q-2.0 -7.25 -2.15 -7.25 L-2.75 -7.15 -3.25 -6.8 -3.25 -6.8 -3.2 -6.75 Q-3.05 -6.75 -2.9 -6.85 L-2.6 -6.9 Q-2.5 -6.9 -2.45 -6.85 L-2.65 -6.7 -2.6 -6.7 -2.55 -6.65 -2.25 -6.7 Q-2.1 -6.7 -2.0 -6.6 -1.9 -6.5 -1.75 -6.5 -1.7 -6.5 -1.65 -6.55 L-1.6 -6.55 -0.5 -6.1 Q-0.7 -6.5 -1.15 -6.9 L-1.0 -7.05 -0.9 -7.15 M-0.6 -7.75 L-0.6 -7.85 Q-0.6 -8.55 -0.45 -8.8 -0.3 -8.95 0.15 -8.95 0.45 -8.95 0.6 -8.85 0.75 -8.75 0.85 -8.5 L0.85 -7.4 0.8 -6.3 0.75 -5.85 Q0.6 -6.3 0.45 -7.1 0.3 -7.9 0.3 -8.2 L0.3 -8.35 0.3 -8.35 0.4 -8.5 0.4 -8.55 Q0.35 -8.65 0.25 -8.65 -0.05 -8.65 -0.05 -8.35 -0.05 -8.05 0.05 -7.9 0.15 -7.75 0.15 -7.65 L0.1 -7.45 -0.35 -7.5 Q-0.5 -7.6 -0.6 -7.75 M0.75 -5.85 L0.75 -5.85" fill="#691616" fill-rule="evenodd" stroke="none"/>
    <path d="M3.45 -8.35 L3.5 -7.85 3.45 -7.5 3.4 -7.5 Q3.35 -7.5 3.3 -7.3 3.25 -7.15 3.15 -7.15 3.05 -7.15 3.05 -7.2 3.0 -7.2 2.9 -7.15 2.75 -7.15 2.65 -7.5 L2.55 -7.7 2.6 -8.2 2.6 -8.35 2.5 -8.45 2.5 -8.4 2.45 -8.4 2.25 -7.95 2.25 -7.25 2.2 -7.25 2.2 -7.7 Q2.2 -8.1 2.2 -8.3 L2.3 -8.55 Q2.35 -8.65 2.5 -8.65 L2.55 -8.6 2.65 -8.75 2.75 -8.65 2.85 -8.45 2.8 -8.15 Q2.75 -7.9 2.75 -7.55 L2.8 -7.4 2.95 -7.35 Q3.1 -7.3 3.1 -7.3 3.25 -7.3 3.3 -7.55 L3.3 -7.9 3.25 -8.45 3.3 -8.55 3.45 -8.35 M3.15 -6.5 L3.55 -6.9 3.55 -6.9 Q3.6 -6.85 3.65 -6.85 L3.9 -7.05 Q4.15 -7.25 4.3 -7.25 4.45 -7.25 4.65 -7.05 L4.75 -6.9 4.4 -6.65 4.5 -6.8 4.5 -6.85 Q4.45 -6.85 4.35 -6.75 L4.25 -6.65 4.2 -6.65 4.2 -6.75 4.25 -6.85 4.2 -6.95 4.2 -7.05 Q3.5 -6.45 3.35 -5.9 L3.2 -5.95 2.95 -6.1 3.0 -6.45 2.95 -6.7 Q2.9 -6.9 2.7 -6.9 L2.65 -6.85 2.4 -6.35 Q2.3 -6.1 2.35 -5.8 L2.2 -5.85 2.3 -6.4 2.45 -6.7 Q2.6 -7.0 2.7 -7.0 2.85 -7.0 2.95 -6.8 3.1 -6.55 3.1 -6.45 L3.05 -6.35 3.15 -6.5 M4.9 -8.05 Q5.15 -8.2 5.25 -8.2 5.95 -8.2 6.8 -7.45 7.8 -6.65 7.8 -5.6 7.8 -5.35 7.7 -5.15 L7.5 -5.1 Q7.5 -5.2 7.4 -5.2 L7.35 -5.2 7.4 -5.35 7.35 -5.35 Q7.2 -5.15 7.1 -5.15 L6.75 -5.1 6.75 -5.1 6.9 -5.35 7.05 -5.6 7.05 -5.65 6.95 -5.6 6.9 -5.55 6.9 -5.6 7.0 -5.7 7.1 -5.85 7.1 -5.85 7.0 -5.85 6.7 -5.65 Q6.6 -5.55 6.5 -5.55 L6.45 -5.55 6.45 -5.55 6.75 -5.8 Q7.0 -6.0 7.0 -6.1 L6.95 -6.15 6.9 -6.2 6.6 -6.05 6.75 -6.25 Q6.8 -6.4 6.8 -6.6 6.8 -6.95 6.3 -7.4 5.75 -7.8 5.45 -7.8 5.4 -7.8 5.2 -7.7 L5.05 -7.55 4.95 -7.85 4.9 -8.05 M5.55 -3.65 L5.1 -3.6 4.95 -3.6 5.3 -3.95 Q5.55 -4.25 5.55 -4.4 5.55 -4.75 5.15 -4.95 L4.4 -5.15 4.05 -5.15 3.8 -5.15 3.65 -5.3 3.5 -5.4 3.65 -5.35 4.3 -5.3 4.35 -5.3 4.9 -5.35 4.9 -5.35 Q4.95 -5.25 5.1 -5.15 L5.55 -4.95 Q5.75 -4.85 5.75 -4.75 L5.75 -4.75 5.7 -4.7 5.75 -4.65 5.95 -4.55 6.05 -4.45 Q6.05 -4.35 5.8 -4.0 L5.55 -3.65 M-2.45 -3.65 Q-2.75 -3.7 -3.2 -3.85 L-3.3 -4.0 Q-3.5 -4.25 -3.45 -4.3 L-3.4 -4.35 -3.15 -4.15 Q-3.1 -4.2 -3.1 -4.3 -3.1 -4.4 -3.25 -4.5 L-3.5 -4.7 -3.5 -4.75 -3.25 -4.55 -3.2 -4.55 -3.2 -4.6 -3.3 -4.8 -3.4 -5.0 -2.9 -5.4 -2.7 -5.5 Q-2.1 -5.3 -1.45 -5.3 L-1.4 -5.3 -0.7 -5.35 -0.4 -5.4 -0.3 -5.45 -0.4 -5.35 -0.5 -5.3 -2.25 -5.15 Q-3.15 -5.1 -3.15 -5.0 -3.15 -4.9 -2.75 -4.5 -2.3 -4.05 -2.3 -3.95 L-2.4 -3.7 -2.45 -3.65 M-4.8 -5.15 Q-4.9 -5.35 -4.9 -5.6 L-4.9 -5.85 -4.7 -5.75 -4.55 -5.6 -4.4 -5.45 -3.85 -6.95 Q-3.35 -7.9 -2.55 -7.9 L-2.25 -7.8 -2.0 -7.95 -1.95 -8.0 -1.2 -7.45 -0.9 -7.15 -1.0 -7.05 -1.15 -6.9 Q-0.7 -6.5 -0.5 -6.1 L-1.6 -6.55 -1.65 -6.55 Q-1.7 -6.5 -1.75 -6.5 -1.9 -6.5 -2.0 -6.6 -2.1 -6.7 -2.25 -6.7 L-2.55 -6.65 -2.6 -6.7 -2.65 -6.7 -2.45 -6.85 Q-2.5 -6.9 -2.6 -6.9 L-2.9 -6.85 Q-3.05 -6.75 -3.2 -6.75 L-3.25 -6.8 -3.25 -6.8 -2.75 -7.15 -2.15 -7.25 Q-2.0 -7.25 -1.75 -7.1 L-1.5 -6.95 -1.45 -7.0 Q-1.45 -7.1 -1.8 -7.15 -2.1 -7.25 -2.15 -7.55 L-2.3 -7.7 Q-2.5 -7.8 -2.55 -7.8 -2.85 -7.8 -3.4 -7.4 -3.9 -6.95 -3.9 -6.6 L-3.9 -6.35 -4.25 -5.1 -4.5 -5.15 -4.6 -5.2 -4.8 -5.15 M-0.2 -6.5 L-0.25 -6.55 Q-0.55 -7.2 -0.6 -7.75 -0.5 -7.6 -0.35 -7.5 L0.1 -7.45 0.15 -7.65 Q0.15 -7.75 0.05 -7.9 -0.05 -8.05 -0.05 -8.35 -0.05 -8.65 0.25 -8.65 0.35 -8.65 0.4 -8.55 L0.4 -8.5 0.3 -8.35 0.3 -8.35 0.25 -8.25 Q0.15 -8.15 0.15 -7.95 L0.15 -7.9 0.2 -7.75 Q0.2 -7.3 0.35 -7.05 0.45 -6.8 0.45 -6.45 0.45 -6.25 0.3 -6.05 L0.1 -5.85 -0.2 -6.5 M5.05 -7.45 L5.25 -7.5 5.2 -7.4 5.1 -7.35 5.05 -7.45" fill="#8c1e1e" fill-rule="evenodd" stroke="none"/>
    <path d="M4.8 -5.8 L4.35 -5.3 4.3 -5.3 3.65 -5.35 3.5 -5.4 3.45 -5.4 3.3 -5.4 3.3 -5.55 3.3 -5.6 3.45 -5.55 3.65 -5.6 3.8 -5.6 4.3 -5.7 4.8 -5.8" fill="#4a0f0f" fill-rule="evenodd" stroke="none"/>
    <path d="M1.95 -5.9 L2.15 -5.85 2.2 -5.85 2.35 -5.8 2.45 -5.8 2.65 -5.35 2.65 -5.3 2.7 -5.2 1.9 -5.5 1.75 -5.45 1.55 -5.5 1.2 -5.35 0.9 -5.15 0.65 -5.35 Q0.4 -5.55 0.05 -5.6 L0.2 -5.7 0.75 -5.85 0.95 -5.9 1.45 -5.9 1.65 -5.9 1.95 -5.9 M-1.65 -1.25 Q-1.9 -1.85 -1.9 -2.55 -1.9 -3.15 -1.7 -3.65 L-1.7 -3.7 -1.45 -3.8 -1.45 -3.8 -1.4 -3.85 -0.95 -3.95 -0.65 -4.0 -0.9 -3.6 Q-0.95 -3.4 -1.05 -3.35 L-1.25 -3.2 -1.35 -3.0 Q-1.45 -3.0 -1.55 -2.65 L-1.6 -2.0 -1.6 -1.7 -1.55 -1.55 -1.65 -1.25 M0.75 -5.85 L0.75 -5.85 M3.65 -2.7 L3.75 -2.75 Q3.8 -2.6 3.8 -2.55 L3.75 -2.35 Q3.75 -2.0 3.45 -1.6 3.15 -1.25 2.9 -1.1 2.0 -1.35 1.4 -2.5 1.05 -1.5 1.3 -0.75 L1.15 -0.7 Q1.1 -0.6 1.05 -0.65 L0.95 -0.75 Q0.9 -0.75 0.9 -0.65 L0.8 -0.6 Q0.8 -0.6 0.75 -0.6 L0.7 -0.6 Q0.65 -0.55 0.6 -0.55 L0.55 -0.6 0.45 -0.6 Q0.25 -0.6 0.2 -0.65 L-0.05 -0.85 0.0 -1.05 Q0.25 -1.9 1.3 -2.45 L1.4 -2.5 1.4 -2.5 Q1.6 -3.65 1.35 -4.4 L1.35 -4.45 1.35 -4.45 1.65 -4.55 1.9 -4.55 Q1.95 -4.55 2.0 -4.6 L2.0 -4.65 Q2.65 -4.45 2.85 -4.25 L2.75 -3.95 Q2.5 -3.1 1.4 -2.5 2.85 -2.25 3.65 -2.7 M-0.5 -4.0 L-0.1 -3.95 Q0.8 -3.7 1.35 -2.6 L1.4 -2.5 Q0.2 -2.9 -0.6 -2.5 L-0.6 -2.55 -0.75 -2.85 -0.85 -3.2 -0.8 -3.35 -0.5 -4.0 M-0.6 -2.5 L-0.6 -2.5" fill="#d6ccba" fill-rule="evenodd" stroke="none"/>
    <path d="M4.65 -3.65 Q4.8 -3.15 4.8 -2.55 4.8 -1.95 4.65 -1.45 4.45 -1.35 4.2 -1.25 3.95 -1.15 3.75 -1.1 L3.35 -1.05 Q3.85 -1.7 3.85 -2.55 L3.85 -2.85 Q4.05 -3.0 4.25 -3.25 L4.3 -3.35 4.4 -3.6 4.4 -3.65 4.5 -3.95 4.65 -3.65 M0.9 -5.15 L1.2 -5.35 1.55 -5.5 1.75 -5.45 1.9 -5.5 2.7 -5.2 2.85 -4.65 2.8 -4.65 2.75 -4.7 1.75 -5.1 1.35 -5.05 1.05 -5.0 0.95 -5.1 0.9 -5.15 M-0.05 -0.7 L0.2 -0.5 Q0.75 -0.15 1.45 -0.15 L1.6 -0.15 1.75 0.0 Q2.15 0.35 2.75 0.55 2.15 0.8 1.45 0.8 0.75 0.8 0.2 0.55 L0.1 0.35 Q0.0 0.05 -0.05 -0.25 L-0.05 -0.7 M-1.35 -1.8 L-1.55 -1.55 -1.6 -1.7 -1.6 -2.0 -1.55 -2.65 Q-1.45 -3.0 -1.35 -3.0 L-1.25 -3.2 -1.05 -3.35 Q-0.95 -3.4 -0.9 -3.6 L-0.65 -4.0 -0.65 -4.0 -0.5 -4.0 -0.8 -3.35 -0.85 -3.2 Q-0.95 -2.9 -0.95 -2.55 L-0.95 -2.3 -1.35 -1.8" fill="#f5f3da" fill-rule="evenodd" stroke="none"/>
    <path d="M0.25 -4.85 L0.4 -4.9 0.8 -5.05 0.85 -5.1 0.95 -5.1 1.05 -5.0 1.1 -4.95 1.1 -4.95 0.95 -4.9 0.95 -4.9 0.55 -4.8 0.2 -4.6 0.1 -4.55 -0.25 -4.25 -0.5 -4.0 -0.65 -4.0 -0.65 -4.0 -0.95 -3.95 Q-0.85 -4.3 -0.55 -4.5 -0.3 -4.75 -0.05 -4.75 L0.25 -4.85 M2.85 -4.5 L2.85 -4.65 Q4.25 -3.75 4.3 -3.35 L4.25 -3.25 Q4.05 -3.0 3.85 -2.85 L3.7 -3.35 Q3.55 -3.85 3.15 -4.25 L2.85 -4.5 M3.35 -1.05 L3.75 -1.1 Q3.65 -0.8 3.35 -0.65 L3.35 -0.65 3.4 -0.75 Q3.4 -0.85 3.3 -0.95 L3.25 -0.95 3.35 -1.05 M2.6 -0.45 L2.6 -0.45 2.7 -0.45 2.75 -0.5 2.8 -0.4 2.95 -0.4 3.05 -0.45 Q2.9 -0.3 2.75 -0.25 2.45 -0.1 1.75 0.0 L1.6 -0.15 Q2.15 -0.2 2.6 -0.45 M-0.05 -0.25 Q-0.4 -0.35 -0.8 -0.8 -1.3 -1.3 -1.35 -1.8 L-0.95 -2.3 Q-0.85 -1.45 -0.25 -0.85 L-0.05 -0.7 -0.05 -0.25" fill="#ee3434" fill-rule="evenodd" stroke="none"/>
    <path d="M1.05 -5.0 L1.35 -5.05 1.75 -5.1 2.75 -4.7 2.8 -4.65 2.85 -4.65 2.85 -4.5 2.8 -4.55 2.35 -4.8 2.0 -4.9 1.95 -4.9 1.8 -4.95 1.45 -4.95 1.1 -4.95 1.05 -5.0" fill="#fffce2" fill-rule="evenodd" stroke="none"/>
    <path d="M1.1 -4.95 L1.45 -4.95 1.8 -4.95 1.95 -4.9 2.0 -4.9 2.35 -4.8 2.8 -4.55 2.85 -4.5 2.85 -4.25 Q2.65 -4.45 2.0 -4.65 L2.0 -4.6 Q1.95 -4.55 1.9 -4.55 L1.65 -4.55 1.35 -4.45 1.35 -4.45 1.35 -4.5 1.1 -4.95 M3.75 -2.75 L3.85 -2.85 3.85 -2.55 Q3.85 -1.7 3.35 -1.05 L3.3 -1.05 2.9 -1.1 Q3.15 -1.25 3.45 -1.6 3.75 -2.0 3.75 -2.35 L3.8 -2.55 Q3.8 -2.6 3.75 -2.75 M-0.05 -0.85 L0.2 -0.65 Q0.25 -0.6 0.45 -0.6 L0.55 -0.6 0.6 -0.55 Q0.65 -0.55 0.7 -0.6 L0.75 -0.6 Q0.8 -0.6 0.8 -0.6 L0.9 -0.65 Q0.9 -0.75 0.95 -0.75 L1.05 -0.65 Q1.1 -0.6 1.15 -0.7 L1.3 -0.75 Q1.4 -0.45 1.6 -0.15 L1.45 -0.15 Q0.75 -0.15 0.2 -0.5 L-0.05 -0.7 -0.05 -0.85 M-0.85 -3.2 L-0.75 -2.85 -0.6 -2.55 -0.6 -2.5 -0.95 -2.3 -0.95 -2.55 Q-0.95 -2.9 -0.85 -3.2" fill="#a89981" fill-rule="evenodd" stroke="none"/>
    <path d="M2.85 -4.25 L2.85 -4.5 3.15 -4.25 Q3.55 -3.85 3.7 -3.35 L3.85 -2.85 3.75 -2.75 3.65 -2.7 3.65 -2.8 3.5 -2.9 3.55 -3.0 Q3.55 -3.1 3.5 -3.15 L3.4 -3.25 3.45 -3.35 Q3.45 -3.45 3.3 -3.45 3.25 -3.45 3.2 -3.6 L3.25 -3.7 3.0 -3.8 2.75 -3.95 2.85 -4.25 M1.1 -4.95 L1.35 -4.5 1.35 -4.45 1.35 -4.4 1.25 -4.3 1.05 -4.4 0.95 -4.4 0.9 -4.3 0.8 -4.35 0.45 -4.1 0.25 -4.15 0.0 -4.0 -0.1 -3.95 -0.5 -4.0 -0.25 -4.25 0.1 -4.55 0.2 -4.6 0.55 -4.8 0.95 -4.9 0.95 -4.9 1.1 -4.95 1.1 -4.95 M0.0 -1.05 L-0.05 -0.85 -0.05 -0.7 -0.25 -0.85 Q-0.85 -1.45 -0.95 -2.3 L-0.6 -2.5 -0.55 -2.5 -0.5 -2.4 -0.55 -2.3 Q-0.55 -2.1 -0.35 -2.05 -0.35 -1.95 -0.25 -1.95 -0.15 -1.9 -0.15 -1.75 L-0.25 -1.55 0.0 -1.05 M-0.6 -2.5 L-0.6 -2.5" fill="#791a1a" fill-rule="evenodd" stroke="none"/>
    <path d="M2.75 -3.95 L3.0 -3.8 3.25 -3.7 3.2 -3.6 Q3.25 -3.45 3.3 -3.45 3.45 -3.45 3.45 -3.35 L3.4 -3.25 3.5 -3.15 Q3.55 -3.1 3.55 -3.0 L3.5 -2.9 3.65 -2.8 3.65 -2.7 Q2.85 -2.25 1.4 -2.5 2.5 -3.1 2.75 -3.95 M1.35 -4.4 Q1.6 -3.65 1.4 -2.5 L1.4 -2.5 1.3 -2.45 Q0.25 -1.9 0.0 -1.05 L-0.25 -1.55 -0.15 -1.75 Q-0.15 -1.9 -0.25 -1.95 -0.35 -1.95 -0.35 -2.05 -0.55 -2.1 -0.55 -2.3 L-0.5 -2.4 -0.55 -2.5 -0.6 -2.5 Q0.2 -2.9 1.4 -2.5 L1.35 -2.6 Q0.8 -3.7 -0.1 -3.95 L0.0 -4.0 0.25 -4.15 0.45 -4.1 0.8 -4.35 0.9 -4.3 0.95 -4.4 1.05 -4.4 1.25 -4.3 1.35 -4.4 M1.3 -0.75 Q1.05 -1.5 1.4 -2.5 2.0 -1.35 2.9 -1.1 L3.3 -1.05 3.35 -1.05 3.25 -0.95 3.15 -0.85 2.7 -0.5 2.6 -0.45 Q2.15 -0.2 1.6 -0.15 1.4 -0.45 1.3 -0.75" fill="#982121" fill-rule="evenodd" stroke="none"/>
    <path d="M3.25 -0.95 L3.3 -0.95 Q3.4 -0.85 3.4 -0.75 L3.35 -0.65 3.35 -0.65 3.3 -0.65 3.3 -0.65 3.35 -0.65 3.25 -0.65 3.1 -0.5 3.05 -0.45 2.95 -0.4 2.8 -0.4 2.75 -0.5 2.7 -0.45 2.6 -0.45 2.6 -0.45 2.7 -0.5 3.15 -0.85 3.25 -0.95" fill="#ff7474" fill-rule="evenodd" stroke="none"/>
    <path d="M3.2 4.8 L3.2 5.8 3.0 6.0 Q2.9 6.15 2.75 6.5 2.6 6.4 2.45 6.6 L2.3 6.85 2.2 6.65 Q2.1 6.5 1.95 6.45 L1.5 6.85 1.45 6.95 1.45 6.15 1.7 5.45 1.6 5.1 1.45 4.8 1.45 3.5 1.55 3.5 1.55 3.2 1.65 3.25 Q1.75 3.25 1.8 3.35 L2.05 2.8 Q2.1 2.5 2.05 2.25 L2.1 2.25 2.2 2.2 2.3 2.25 2.35 2.4 Q2.5 2.35 2.5 2.15 L2.5 1.9 2.65 1.9 2.7 1.8 2.75 1.7 2.8 1.8 2.9 2.3 2.9 2.85 2.95 3.35 3.0 3.8 2.9 3.8 2.75 3.8 Q2.7 3.8 2.7 3.95 2.8 4.15 2.95 4.15 2.85 4.6 3.1 4.75 L3.2 4.8 M3.2 8.6 L3.2 10.05 3.1 10.2 Q3.0 10.35 3.05 10.45 L2.95 10.4 2.85 10.3 2.65 10.3 2.65 10.45 2.6 10.45 Q2.5 10.35 2.4 10.4 L2.4 10.55 2.3 10.6 2.25 10.7 1.9 10.7 1.7 10.35 Q1.65 10.2 1.45 10.15 L1.45 8.5 1.5 8.5 1.7 8.55 Q2.15 8.35 2.25 8.35 2.4 8.35 2.45 8.45 L2.55 8.7 2.65 8.7 2.65 8.55 2.7 8.35 Q2.8 8.4 2.9 8.5 3.0 8.6 3.1 8.6 L3.2 8.6 M3.2 13.5 L3.2 18.8 2.9 19.35 Q2.6 19.9 2.6 20.15 L2.65 20.3 2.65 20.4 2.8 20.45 2.9 20.45 2.8 20.65 2.75 20.8 Q2.75 20.85 3.0 21.1 L3.0 21.5 2.85 21.45 2.85 21.7 2.75 22.5 Q2.7 22.9 2.45 23.05 2.45 22.85 2.25 22.75 L2.25 22.8 2.2 22.8 Q2.2 23.0 2.1 23.15 2.0 23.25 2.0 23.45 L1.8 23.4 1.8 23.6 1.7 23.6 Q1.55 23.6 1.45 23.4 L1.45 20.85 Q1.5 20.6 1.75 20.45 2.05 20.25 2.05 20.15 2.25 20.15 2.2 20.4 2.3 20.4 2.3 20.45 L2.45 20.3 2.3 19.8 Q2.2 19.45 2.25 19.15 L2.15 19.15 2.2 18.95 2.3 18.75 2.2 18.6 Q2.1 18.5 2.1 18.3 L2.0 18.25 Q1.6 18.45 1.45 18.5 L1.45 15.3 1.55 15.3 1.75 15.2 1.95 15.15 Q2.05 15.15 2.15 15.3 L2.35 15.05 2.4 14.85 Q2.4 14.7 2.35 14.6 2.25 14.5 2.25 14.35 L2.1 14.25 1.95 14.1 1.95 14.0 1.9 13.7 1.9 13.55 2.0 13.5 Q1.7 13.35 1.55 12.95 L1.45 12.65 1.45 10.95 1.55 10.95 Q1.65 10.9 1.65 10.75 L1.95 10.85 2.05 10.8 2.0 10.75 2.25 11.05 2.4 11.0 2.4 11.05 2.55 11.1 2.65 11.05 2.65 11.4 2.9 11.4 Q2.9 11.55 2.95 11.8 L3.05 12.05 3.0 12.15 Q3.0 12.1 3.0 12.15 2.95 12.15 2.95 12.2 L2.9 12.15 2.85 12.05 2.7 12.2 2.85 12.45 2.95 12.65 2.9 12.8 2.85 12.9 2.65 12.85 2.65 13.05 2.7 13.15 2.85 13.1 3.2 13.5" fill="#84cb39" fill-rule="evenodd" stroke="none"/>
    <path d="M1.45 27.6 Q0.25 27.1 -0.3 24.25 L-0.3 21.0 -0.25 21.05 Q-0.05 20.95 0.2 21.25 L0.35 21.6 0.3 21.75 0.25 21.9 0.3 22.0 0.3 22.05 0.4 22.05 Q0.3 22.45 0.05 23.0 L-0.2 23.4 Q-0.2 24.2 0.05 24.85 0.3 25.6 0.8 25.85 0.75 25.75 0.75 25.5 L0.85 25.5 1.05 25.8 1.3 25.65 1.4 26.0 1.45 26.1 1.45 26.2 1.45 27.6 M-0.3 18.8 L-0.3 14.6 -0.2 15.1 0.15 15.8 0.3 16.15 0.05 16.85 Q-0.2 17.4 -0.2 17.9 -0.15 18.25 -0.3 18.8 M-0.3 9.0 L-0.3 8.6 -0.2 8.4 Q-0.1 8.2 -0.1 8.1 -0.15 8.05 0.0 8.05 L0.05 8.05 0.15 8.05 0.2 8.1 0.25 8.1 0.2 8.15 Q0.15 8.15 0.15 8.25 0.15 8.35 0.35 8.45 L0.55 8.7 0.5 8.8 0.45 8.75 0.4 8.7 0.25 8.7 Q0.25 8.85 0.4 9.0 L0.7 9.2 0.55 9.35 0.25 9.0 Q0.25 8.95 0.2 9.05 L0.15 9.2 0.1 9.1 Q0.05 9.05 0.0 8.9 L-0.2 8.9 -0.3 9.0 M-0.3 2.05 L-0.3 0.35 0.2 0.55 Q0.75 0.8 1.45 0.8 L1.45 2.5 Q1.4 2.2 1.3 2.1 L1.25 2.15 Q1.25 2.4 1.15 2.5 1.05 2.65 1.05 2.8 L1.05 2.9 1.1 2.9 1.1 2.95 Q1.1 2.95 1.15 2.95 1.2 2.95 1.2 3.0 1.2 3.05 1.2 3.1 1.2 3.3 1.0 3.4 0.85 3.5 0.85 3.65 L0.8 3.9 0.8 4.2 0.55 3.65 Q0.35 3.3 0.3 3.05 L0.45 2.9 0.55 2.7 0.5 2.5 Q0.4 2.65 0.3 2.65 0.15 2.65 0.2 2.6 0.2 2.4 0.25 2.3 0.15 2.2 0.05 2.2 -0.05 2.2 -0.25 2.1 L-0.3 2.05 M1.45 14.6 Q1.35 14.7 1.3 14.9 L1.3 15.1 1.35 15.15 1.4 15.25 1.4 15.4 1.3 15.45 Q1.35 15.2 1.2 15.1 L0.8 14.9 1.0 14.45 Q1.15 14.15 1.3 13.95 L1.4 14.25 1.45 14.2 1.65 14.2 1.7 14.25 1.5 14.55 1.45 14.6" fill="#9f2222" fill-rule="evenodd" stroke="none"/>
    <path d="M-0.3 8.6 L-0.3 7.9 -0.2 7.8 Q-0.05 7.7 -0.1 7.55 0.05 7.55 0.2 7.65 L0.35 7.8 Q0.15 7.75 0.1 7.9 L0.05 8.05 0.0 8.05 Q-0.15 8.05 -0.1 8.1 -0.1 8.2 -0.2 8.4 L-0.3 8.6" fill="#e54444" fill-rule="evenodd" stroke="none"/>
    <path d="M1.5 14.55 L1.5 14.6 1.45 14.6 1.5 14.55" fill="#f7f6e9" fill-rule="evenodd" stroke="none"/>
    <path d="M3.2 23.65 L3.2 24.25 Q2.65 27.1 1.45 27.6 L1.45 26.2 1.5 26.2 1.65 26.15 Q1.8 26.05 1.8 25.85 L1.95 25.9 2.1 26.0 Q2.7 26.0 3.05 24.7 L3.2 23.65" fill="#4d7721" fill-rule="evenodd" stroke="none"/>
    <path d="M1.0 -14.9 L1.05 -15.7 Q1.05 -15.8 1.05 -15.8 1.25 -15.95 1.45 -16.0 1.7 -15.95 1.85 -15.8 L1.9 -15.7 1.9 -15.35 1.95 -14.55 1.95 -13.3 1.95 -12.1 1.95 -11.05 2.0 -9.8 2.0 -8.4 2.0 -7.0 1.95 -5.9 2.15 -5.85 Q2.05 -6.45 2.05 -7.05 L2.05 -8.5 Q2.15 -8.75 2.3 -8.85 2.45 -8.95 2.75 -8.95 3.2 -8.95 3.35 -8.8 3.45 -8.65 3.45 -8.35 L3.5 -7.85 3.45 -7.5 Q3.4 -7.15 3.25 -6.8 L3.15 -6.55 3.15 -6.5 3.55 -6.9 4.15 -7.45 Q4.6 -7.85 4.9 -8.05 5.15 -8.2 5.25 -8.2 5.95 -8.2 6.8 -7.45 7.8 -6.65 7.8 -5.6 7.8 -5.35 7.7 -5.15 7.6 -4.9 7.3 -4.65 L6.75 -4.2 6.0 -3.8 5.55 -3.65 5.1 -3.6 4.95 -3.6 4.85 -3.65 4.65 -3.65 Q4.8 -3.15 4.8 -2.55 4.8 -1.95 4.65 -1.45 4.4 -0.75 3.85 -0.2 L3.2 0.35 3.2 4.8 3.2 5.8 3.2 8.6 3.2 10.05 3.2 13.5 3.2 18.8 3.2 23.65 3.2 24.25 Q2.65 27.1 1.45 27.6 0.25 27.1 -0.3 24.25 L-0.3 21.0 -0.3 18.8 -0.3 14.6 -0.3 9.0 -0.3 8.6 -0.3 7.9 -0.3 2.05 -0.3 0.35 -0.9 -0.2 Q-1.4 -0.65 -1.65 -1.25 -1.9 -1.85 -1.9 -2.55 -1.9 -3.15 -1.7 -3.65 L-1.75 -3.65 -1.95 -3.65 -2.15 -3.6 -2.45 -3.65 Q-2.75 -3.7 -3.2 -3.85 -3.5 -4.0 -3.85 -4.2 -4.55 -4.65 -4.8 -5.15 -4.9 -5.35 -4.9 -5.6 L-4.9 -5.85 Q-4.8 -6.75 -3.9 -7.45 -3.05 -8.2 -2.35 -8.2 -2.2 -8.2 -1.95 -8.0 L-1.2 -7.45 -0.9 -7.15 -0.2 -6.5 -0.25 -6.55 Q-0.55 -7.2 -0.6 -7.75 L-0.6 -7.85 Q-0.6 -8.55 -0.45 -8.8 -0.3 -8.95 0.15 -8.95 0.45 -8.95 0.6 -8.85 0.75 -8.75 0.85 -8.5 L0.85 -7.4 0.8 -6.3 0.75 -5.85 0.95 -5.9 0.95 -6.55 0.95 -7.9 0.95 -9.3 0.95 -10.55 0.95 -11.55 0.95 -12.65 0.95 -13.95 1.0 -14.9 M6.75 -6.25 L6.6 -6.05 6.35 -5.85 5.95 -5.65 Q5.6 -5.5 5.15 -5.4 L4.9 -5.35 4.35 -5.3 4.8 -5.8 Q5.45 -6.4 6.0 -6.4 L6.75 -6.25 M-1.45 -5.3 Q-2.3 -6.4 -3.1 -6.4 L-3.45 -6.35 -3.85 -6.25 Q-3.65 -5.9 -3.05 -5.65 L-2.7 -5.5 Q-2.1 -5.3 -1.45 -5.3 Z" fill="none" stroke="#000000" stroke-linecap="round" stroke-linejoin="round" stroke-opacity="0.4509804" stroke-width="1.0"/>
  </g>
</svg>
