<?xml version="1.0" encoding="UTF-8" standalone="no"?>
<svg xmlns:xlink="http://www.w3.org/1999/xlink" height="2.1px" width="2.2px" xmlns="http://www.w3.org/2000/svg">
  <g transform="matrix(1.0, 0.0, 0.0, 1.0, 1.1, 1.0)">
    <path d="M-1.0 -0.1 L-1.0 -0.3 -1.0 -0.1 -1.0 -0.1" fill="#666663" fill-rule="evenodd" stroke="none"/>
    <path d="M-1.0 0.0 L-1.0 -0.1 -1.0 0.0 M-1.0 -0.1 L-1.0 -0.1" fill="#a4a5a3" fill-rule="evenodd" stroke="none"/>
    <path d="M0.35 0.9 L0.25 0.95 0.3 0.9 0.25 0.8 0.25 0.75 0.2 0.75 0.2 0.65 0.15 0.55 0.2 0.55 0.2 0.6 0.35 0.85 0.4 0.9 0.35 0.9 M0.05 0.95 L0.0 0.95 -0.05 0.95 -0.1 0.8 -0.1 0.8 -0.15 0.65 -0.1 0.55 0.0 0.8 0.05 0.95 M-0.25 1.05 L-0.4 1.0 -0.4 1.0 -0.45 1.0 -0.45 1.0 -0.5 0.9 -0.5 0.9 -0.7 0.7 -0.65 0.7 -0.65 0.65 -0.6 0.7 -0.5 0.85 -0.5 0.7 -0.5 0.65 -0.25 1.05 M-0.8 -0.75 L-0.75 -0.75 0.0 -1.0 0.15 -1.0 0.15 -0.95 0.2 -0.95 0.2 -0.95 -0.05 -0.7 Q-0.25 -0.6 -0.35 -0.6 L-0.5 -0.7 -0.6 -0.65 Q-0.6 -0.6 -0.65 -0.6 L-0.7 -0.6 -0.65 -0.6 -0.65 -0.65 Q-0.8 -0.65 -0.8 -0.7 L-0.8 -0.75" fill="#1c1d1f" fill-rule="evenodd" stroke="none"/>
    <path d="M0.85 0.0 L0.8 0.05 0.8 -0.05 0.85 0.0 M0.7 0.2 L0.65 0.45 0.65 0.8 0.45 0.95 0.4 0.95 0.35 0.9 0.4 0.9 0.35 0.85 0.2 0.6 0.2 0.55 0.15 0.55 0.2 0.65 0.2 0.75 0.25 0.75 0.25 0.8 0.3 0.9 0.25 0.95 0.05 0.95 0.0 0.8 -0.1 0.55 -0.15 0.65 -0.1 0.8 -0.1 0.8 -0.05 0.95 -0.15 1.0 -0.2 1.0 -0.25 1.05 -0.5 0.65 -0.5 0.7 -0.5 0.85 -0.6 0.7 -0.65 0.65 -0.65 0.7 -0.7 0.7 -0.5 0.9 -0.5 0.9 -0.45 1.0 -0.45 1.0 Q-0.6 1.05 -0.65 0.95 L-0.65 0.95 -0.85 0.6 -0.9 0.5 -0.8 0.55 -0.75 0.5 -0.7 0.45 -0.6 0.5 -0.45 0.5 -0.4 0.5 -0.35 0.5 -0.35 0.45 -0.3 0.4 -0.2 0.45 -0.1 0.45 0.0 0.45 0.05 0.4 0.1 0.4 0.15 0.4 0.3 0.4 0.5 0.4 0.55 0.35 0.55 0.3 0.65 0.25 0.65 0.2 0.7 0.2 M-1.0 -0.3 L-1.0 -0.5 -1.0 -0.5 -0.9 -0.65 -0.9 -0.65 -0.8 -0.75 -0.8 -0.7 Q-0.8 -0.65 -0.65 -0.65 L-0.65 -0.6 -0.7 -0.6 -0.65 -0.6 Q-0.6 -0.6 -0.6 -0.65 L-0.5 -0.7 -0.35 -0.6 Q-0.25 -0.6 -0.05 -0.7 L0.2 -0.95 0.25 -0.85 0.3 -0.8 0.0 -0.5 -0.05 -0.45 -0.2 -0.4 -0.35 -0.4 -0.45 -0.35 -0.6 -0.35 -0.65 -0.3 -0.65 -0.25 -0.7 -0.15 -0.7 -0.15 -0.75 -0.1 -0.8 -0.15 -0.85 -0.2 Q-0.8 -0.3 -0.9 -0.25 L-1.0 -0.3" fill="#2a2a2a" fill-rule="evenodd" stroke="none"/>
    <path d="M0.4 -0.8 L0.35 -0.75 0.35 -0.75 0.25 -0.7 0.25 -0.65 0.2 -0.5 0.2 -0.5 0.15 -0.5 0.05 -0.5 0.0 -0.45 -0.05 -0.35 -0.05 -0.25 -0.05 -0.25 -0.15 -0.3 -0.2 -0.3 -0.1 0.25 -0.1 0.25 -0.1 0.3 -0.05 0.35 0.0 0.35 0.05 0.35 0.1 0.35 0.1 0.25 0.1 0.1 0.1 0.0 Q0.1 -0.05 0.15 -0.05 L0.25 0.0 0.25 0.0 0.3 0.0 Q0.35 0.0 0.4 -0.1 L0.65 0.0 0.65 -0.05 0.7 -0.15 0.75 -0.15 0.7 -0.15 0.75 -0.25 0.8 -0.3 0.85 -0.35 0.7 -0.65 0.65 -0.7 0.6 -0.7 0.6 -0.75 0.55 -0.75 0.6 -0.75 1.0 -0.45 1.0 -0.25 1.0 -0.15 0.9 -0.05 0.85 0.0 0.8 -0.05 0.8 0.05 0.7 0.2 0.65 0.2 0.65 0.25 0.55 0.3 0.55 0.35 0.5 0.4 0.3 0.4 0.15 0.4 0.1 0.4 0.05 0.4 0.0 0.45 -0.1 0.45 -0.2 0.45 -0.3 0.4 -0.35 0.45 -0.35 0.5 -0.4 0.5 -0.45 0.5 -0.6 0.5 -0.7 0.45 -0.75 0.5 -0.8 0.55 -0.9 0.5 -1.0 0.05 -1.0 0.0 -1.0 -0.1 -1.0 -0.3 -0.9 -0.25 Q-0.8 -0.3 -0.85 -0.2 L-0.8 -0.15 -0.75 -0.1 -0.7 -0.15 -0.7 -0.15 -0.65 -0.25 -0.65 -0.3 -0.6 -0.35 -0.45 -0.35 -0.35 -0.4 -0.2 -0.4 -0.05 -0.45 0.0 -0.5 0.3 -0.8 0.25 -0.85 0.3 -0.85 Q0.35 -0.8 0.4 -0.8 M-0.3 -0.1 L-0.35 -0.1 -0.4 0.0 -0.4 0.05 -0.35 0.1 -0.45 0.15 -0.45 0.2 -0.5 0.2 -0.55 0.3 -0.55 0.3 -0.55 0.3 -0.55 0.3 -0.5 0.25 -0.5 0.3 -0.45 0.35 -0.45 0.35 -0.4 0.35 -0.35 0.35 -0.3 0.35 -0.3 0.35 -0.3 0.05 -0.3 -0.1" fill="#343129" fill-rule="evenodd" stroke="none"/>
    <path d="M0.4 -0.8 L0.4 -0.8 0.55 -0.75 0.55 -0.75 0.6 -0.75 0.6 -0.7 0.65 -0.7 0.7 -0.65 0.85 -0.35 0.8 -0.3 0.75 -0.25 0.7 -0.15 0.75 -0.15 0.7 -0.15 0.65 -0.05 0.65 0.0 0.4 -0.1 Q0.35 0.0 0.3 0.0 L0.25 0.0 0.25 0.0 0.15 -0.05 Q0.1 -0.05 0.1 0.0 L0.1 0.1 0.1 0.25 0.1 0.35 0.05 0.35 0.0 0.35 -0.05 0.35 -0.1 0.3 -0.1 0.25 -0.1 0.25 -0.2 -0.3 -0.15 -0.3 -0.05 -0.25 -0.05 -0.25 -0.05 -0.35 0.0 -0.45 0.05 -0.5 0.15 -0.5 0.2 -0.5 0.2 -0.5 0.25 -0.65 0.25 -0.7 0.35 -0.75 0.35 -0.75 0.4 -0.8 M-0.3 -0.1 L-0.3 0.05 -0.3 0.35 -0.3 0.35 -0.35 0.35 -0.4 0.35 -0.45 0.35 -0.45 0.35 -0.5 0.3 -0.5 0.25 -0.55 0.3 -0.55 0.3 -0.55 0.3 -0.55 0.3 -0.5 0.2 -0.45 0.2 -0.45 0.15 -0.35 0.1 -0.4 0.05 -0.4 0.0 -0.35 -0.1 -0.3 -0.1" fill="#524836" fill-rule="evenodd" stroke="none"/>
    <path d="M0.55 -0.75 L0.55 -0.75 0.4 -0.8 0.4 -0.8 Q0.35 -0.8 0.3 -0.85 L0.25 -0.85 0.2 -0.95 M0.55 -0.75 L0.6 -0.75 1.0 -0.45 1.0 -0.25 1.0 -0.15 0.9 -0.05 0.85 0.0 0.8 0.05 0.7 0.2 0.65 0.45 0.65 0.8 0.45 0.95 0.4 0.95 0.35 0.9 0.25 0.95 0.05 0.95 0.0 0.95 -0.05 0.95 -0.15 1.0 -0.2 1.0 -0.25 1.05 -0.4 1.0 -0.4 1.0 -0.45 1.0 Q-0.6 1.05 -0.65 0.95 L-0.65 0.95 -0.85 0.6 -0.9 0.5 -1.0 0.05 -1.0 0.0 -1.0 -0.1 -1.0 -0.3 -1.0 -0.5 -1.0 -0.5 -0.9 -0.65 -0.9 -0.65 -0.8 -0.75" fill="none" stroke="#000000" stroke-linecap="round" stroke-linejoin="round" stroke-opacity="0.4509804" stroke-width="0.1"/>
  </g>
</svg>
