<?xml version="1.0" encoding="UTF-8" standalone="no"?>
<svg xmlns:xlink="http://www.w3.org/1999/xlink" height="1.7px" width="2.15px" xmlns="http://www.w3.org/2000/svg">
  <g transform="matrix(1.0, 0.0, 0.0, 1.0, 1.1, 1.1)">
    <path d="M0.05 -1.05 L0.1 -1.05 0.2 -1.0 Q0.15 -0.9 0.15 -0.85 L0.15 -0.75 0.0 -0.7 0.0 -0.65 0.0 -0.7 0.0 -0.7 -0.15 -0.7 -0.2 -0.65 -0.3 -0.7 -0.5 -0.6 -0.5 -0.6 -0.55 -0.6 -0.65 -0.65 -0.6 -0.65 -0.5 -0.65 -0.45 -0.7 Q-0.45 -0.75 -0.55 -0.75 L-0.7 -0.75 -0.7 -0.75 -0.5 -0.75 -0.5 -0.8 -0.65 -0.8 Q-0.75 -0.8 -0.8 -0.85 -0.7 -0.95 -0.5 -1.0 L0.05 -1.05 M0.85 -0.65 L0.9 -0.6 0.9 -0.35 Q0.85 -0.3 0.7 -0.25 L0.35 -0.25 Q0.2 -0.35 0.15 -0.45 0.1 -0.65 0.25 -0.65 L0.25 -0.7 0.25 -0.55 Q0.3 -0.5 0.4 -0.5 L0.5 -0.6 0.6 -0.6 0.6 -0.5 0.7 -0.45 Q0.8 -0.5 0.85 -0.65 M-1.05 0.1 L-1.05 -0.25 -0.95 -0.25 Q-0.85 -0.25 -0.85 -0.15 L-0.85 -0.05 -0.8 -0.05 Q-0.75 -0.05 -0.75 -0.15 L-0.7 -0.35 -0.7 -0.35 -0.7 -0.35 -0.65 -0.3 -0.65 0.05 -0.6 0.1 -0.55 0.05 -0.6 0.0 -0.45 0.05 -0.4 0.1 -0.35 0.05 -0.25 0.1 -0.25 0.15 -0.25 0.25 -0.3 0.25 -0.4 0.2 -0.4 0.3 -0.35 0.35 -0.65 0.35 -0.65 0.3 Q-0.95 0.25 -1.05 0.1 M-0.35 -0.15 L-0.25 -0.05 Q-0.2 -0.25 -0.15 -0.25 L0.05 -0.2 0.1 -0.2 -0.05 0.2 Q-0.1 0.1 -0.45 -0.05 L-0.45 -0.2 -0.35 -0.15" fill="#1f2425" fill-rule="evenodd" stroke="none"/>
    <path d="M-0.8 -0.85 Q-0.75 -0.8 -0.65 -0.8 L-0.5 -0.8 -0.5 -0.75 -0.7 -0.75 -0.7 -0.75 -0.55 -0.75 Q-0.45 -0.75 -0.45 -0.7 L-0.5 -0.65 -0.6 -0.65 -0.65 -0.65 -0.55 -0.6 -0.5 -0.6 -0.5 -0.6 -0.3 -0.7 -0.2 -0.65 -0.25 -0.65 -0.3 -0.6 -0.3 -0.6 -0.15 -0.45 -0.3 -0.35 Q-0.35 -0.25 -0.35 -0.15 L-0.45 -0.2 -0.45 -0.05 Q-0.1 0.1 -0.05 0.2 L0.1 -0.2 0.2 -0.1 Q0.25 0.05 0.15 0.15 L-0.05 0.3 -0.35 0.35 -0.4 0.3 -0.4 0.2 -0.3 0.25 -0.25 0.25 -0.25 0.15 -0.25 0.1 -0.35 0.05 -0.4 0.1 -0.45 0.05 -0.6 0.0 -0.55 0.05 -0.6 0.1 -0.65 0.05 -0.65 -0.3 -0.65 -0.35 -0.6 -0.3 -0.6 -0.25 -0.55 -0.15 -0.45 -0.35 -0.4 -0.45 -0.4 -0.55 -0.45 -0.6 -0.45 -0.6 -0.5 -0.55 -0.5 -0.55 -0.55 -0.55 -0.6 -0.55 -0.6 -0.55 -0.65 -0.5 -0.7 -0.5 -0.8 -0.5 -0.8 -0.5 -0.9 -0.5 -0.95 -0.5 -0.95 -0.45 -0.95 -0.45 -0.7 -0.35 -0.7 -0.35 -0.75 -0.15 Q-0.75 -0.05 -0.8 -0.05 L-0.85 -0.05 -0.85 -0.15 Q-0.85 -0.25 -0.95 -0.25 L-1.05 -0.25 -1.0 -0.45 -1.0 -0.45 -0.95 -0.55 -0.95 -0.6 -0.9 -0.7 -0.85 -0.8 -0.8 -0.85 -0.8 -0.85 M0.15 -0.75 L0.15 -0.85 Q0.15 -0.9 0.2 -1.0 0.25 -1.0 0.25 -0.95 L0.5 -0.85 0.85 -0.65 Q0.8 -0.5 0.7 -0.45 L0.6 -0.5 0.6 -0.6 0.5 -0.6 0.4 -0.5 Q0.3 -0.5 0.25 -0.55 L0.25 -0.7 0.3 -0.7 0.3 -0.75 0.25 -0.75 0.15 -0.75 M0.35 -0.9 L0.5 -0.85 0.35 -0.9 M-0.35 0.35 L-0.35 0.35" fill="#2c3335" fill-rule="evenodd" stroke="none"/>
    <path d="M-0.2 -0.65 L-0.15 -0.7 0.0 -0.7 0.0 -0.7 0.0 -0.65 0.0 -0.7 0.15 -0.75 0.25 -0.75 0.3 -0.75 0.3 -0.7 0.25 -0.7 0.25 -0.65 Q0.1 -0.65 0.15 -0.45 0.2 -0.35 0.35 -0.25 L0.7 -0.25 Q0.85 -0.3 0.9 -0.35 L0.9 -0.6 0.95 -0.6 1.0 -0.45 0.95 -0.35 Q0.9 -0.2 0.85 -0.2 L0.55 -0.1 Q0.4 -0.15 0.2 -0.25 L0.2 -0.2 0.3 -0.1 Q0.35 0.0 0.3 0.1 0.25 0.2 0.25 0.25 L0.3 0.3 0.3 0.35 0.1 0.45 -0.2 0.5 -0.2 0.4 -0.3 0.4 -0.35 0.35 -0.05 0.3 0.15 0.15 Q0.25 0.05 0.2 -0.1 L0.1 -0.2 0.05 -0.2 -0.15 -0.25 Q-0.2 -0.25 -0.25 -0.05 L-0.35 -0.15 Q-0.35 -0.25 -0.3 -0.35 L-0.15 -0.45 -0.3 -0.6 -0.3 -0.6 -0.25 -0.65 -0.2 -0.65 M-0.6 0.5 Q-0.95 0.5 -1.0 0.35 L-1.0 0.25 -1.05 0.15 -1.05 0.1 Q-0.95 0.25 -0.65 0.3 L-0.65 0.35 -0.6 0.5" fill="#692b27" fill-rule="evenodd" stroke="none"/>
    <path d="M1.0 -0.45 L1.0 -0.45 0.95 -0.25 Q0.9 -0.1 0.8 -0.05 L0.6 -0.05 0.45 -0.05 0.35 0.15 0.3 0.3 0.25 0.25 Q0.25 0.2 0.3 0.1 0.35 0.0 0.3 -0.1 L0.2 -0.2 0.2 -0.25 Q0.4 -0.15 0.55 -0.1 L0.85 -0.2 Q0.9 -0.2 0.95 -0.35 L1.0 -0.45 M-0.2 0.5 L-0.45 0.55 -0.6 0.5 -0.65 0.35 -0.35 0.35 -0.3 0.4 -0.2 0.4 -0.2 0.5 M-0.35 0.35 L-0.35 0.35" fill="#4d1f1c" fill-rule="evenodd" stroke="none"/>
    <path d="M-0.7 -0.35 L-0.95 -0.45 -0.95 -0.45 -0.95 -0.5 -0.9 -0.5 -0.8 -0.5 -0.8 -0.5 -0.7 -0.5 -0.65 -0.5 -0.6 -0.55 -0.6 -0.55 -0.55 -0.55 -0.5 -0.55 -0.5 -0.55 -0.45 -0.6 -0.45 -0.6 -0.4 -0.55 -0.4 -0.45 -0.45 -0.35 -0.55 -0.15 -0.6 -0.25 -0.6 -0.3 -0.65 -0.35 -0.65 -0.3 -0.7 -0.35 -0.7 -0.35" fill="#585e5f" fill-rule="evenodd" stroke="none"/>
    <path d="M0.2 -1.0 L0.1 -1.05 0.05 -1.05 M0.2 -1.0 Q0.25 -1.0 0.25 -0.95 L0.5 -0.85 0.85 -0.65 0.9 -0.6 0.95 -0.6 1.0 -0.45 1.0 -0.45 0.95 -0.25 Q0.9 -0.1 0.8 -0.05 L0.6 -0.05 0.45 -0.05 0.35 0.15 0.3 0.3 0.3 0.35 0.1 0.45 -0.2 0.5 -0.45 0.55 -0.6 0.5 Q-0.95 0.5 -1.0 0.35 L-1.0 0.25 -1.05 0.15 -1.05 0.1 -1.05 -0.25 -1.0 -0.45 -0.95 -0.55 -0.95 -0.6 -0.9 -0.7 -0.85 -0.8 M0.5 -0.85 L0.35 -0.9" fill="none" stroke="#000000" stroke-linecap="round" stroke-linejoin="round" stroke-opacity="0.4509804" stroke-width="0.1"/>
  </g>
</svg>
