<?xml version="1.0" encoding="UTF-8" standalone="no"?>
<svg xmlns:xlink="http://www.w3.org/1999/xlink" height="4.4px" width="4.4px" xmlns="http://www.w3.org/2000/svg">
  <g transform="matrix(1.0, 0.0, 0.0, 1.0, 2.2, 2.2)">
    <path d="M2.2 -1.8 L2.1 -1.8 2.05 -1.85 Q1.95 -1.9 1.7 -1.9 L1.4 -1.95 1.05 -1.95 0.7 -1.95 0.9 -2.2 2.2 -2.2 2.2 -1.8" fill="#04090d" fill-rule="evenodd" stroke="none"/>
    <path d="M0.9 -2.2 L0.7 -1.95 1.05 -1.95 1.4 -1.95 1.7 -1.9 Q1.95 -1.9 2.05 -1.85 L2.1 -1.8 2.2 -1.8 2.2 -1.65 2.0 -1.65 1.85 -1.7 Q1.75 -1.7 1.6 -1.75 L1.4 -1.8 1.3 -1.8 1.2 -1.85 Q1.05 -1.85 1.0 -1.8 L0.95 -1.8 0.65 -1.85 0.3 -1.95 0.25 -2.0 -0.05 -2.1 0.0 -2.2 0.9 -2.2" fill="#061219" fill-rule="evenodd" stroke="none"/>
    <path d="M1.4 -1.45 L1.4 -1.55 1.5 -1.55 1.55 -1.55 1.6 -1.45 1.5 -1.45 1.4 -1.45" fill="#294e6d" fill-rule="evenodd" stroke="none"/>
    <path d="M1.55 -1.55 L1.5 -1.55 1.4 -1.55 1.4 -1.45 1.3 -1.65 1.35 -1.65 1.35 -1.65 1.85 -1.55 2.0 -1.45 2.2 -1.4 2.05 -1.35 1.9 -1.35 1.85 -1.35 1.55 -1.55 M2.2 -1.4 L2.2 -1.4 M1.4 -1.45 L1.4 -1.45" fill="#0f2d41" fill-rule="evenodd" stroke="none"/>
    <path d="M2.2 -1.4 L2.0 -1.45 1.85 -1.55 1.35 -1.65 1.35 -1.65 1.3 -1.65 1.3 -1.65 1.25 -1.75 1.65 -1.65 1.75 -1.65 1.85 -1.6 2.05 -1.55 Q2.15 -1.5 2.2 -1.5 L2.2 -1.4" fill="#0c2433" fill-rule="evenodd" stroke="none"/>
    <path d="M1.3 -1.65 L1.4 -1.45 1.35 -1.35 1.35 -1.3 1.25 -1.25 Q1.15 -1.25 1.1 -1.3 L1.2 -1.35 1.2 -1.4 1.15 -1.4 1.1 -1.45 1.0 -1.5 1.0 -1.75 1.1 -1.8 Q1.15 -1.8 1.15 -1.7 L1.15 -1.65 Q1.2 -1.6 1.25 -1.65 L1.3 -1.65 1.3 -1.65 M1.4 -1.45 L1.4 -1.45" fill="#111516" fill-rule="evenodd" stroke="none"/>
    <path d="M1.0 -1.8 Q1.05 -1.85 1.2 -1.85 L1.3 -1.8 1.4 -1.8 1.6 -1.75 Q1.75 -1.7 1.85 -1.7 L2.0 -1.65 2.2 -1.65 2.2 -1.5 Q2.15 -1.5 2.05 -1.55 L1.85 -1.6 1.75 -1.65 1.65 -1.65 1.25 -1.75 1.3 -1.65 1.25 -1.65 1.2 -1.7 1.15 -1.7 Q1.15 -1.8 1.1 -1.8 L1.0 -1.75 1.0 -1.8" fill="#091a25" fill-rule="evenodd" stroke="none"/>
    <path d="M1.15 -1.7 L1.2 -1.7 1.25 -1.65 Q1.2 -1.6 1.15 -1.65 L1.15 -1.7" fill="#2d2f2e" fill-rule="evenodd" stroke="none"/>
    <path d="M1.1 -1.3 L1.15 -1.4 1.2 -1.4 1.2 -1.35 1.1 -1.3 1.1 -1.3" fill="#8f726e" fill-rule="evenodd" stroke="none"/>
    <path d="M1.15 -1.4 L1.1 -1.3 1.1 -1.2 1.05 -1.15 0.9 -1.15 0.9 -1.2 Q0.9 -1.25 0.95 -1.25 L1.0 -1.25 0.95 -1.35 Q0.9 -1.35 0.95 -1.4 L0.9 -1.4 Q0.85 -1.45 0.9 -1.45 L1.0 -1.5 1.1 -1.45 1.15 -1.4" fill="#ead0ba" fill-rule="evenodd" stroke="none"/>
    <path d="M1.1 -1.3 L1.1 -1.3 Q1.15 -1.25 1.25 -1.25 L1.35 -1.3 1.4 -1.3 1.45 -1.25 1.5 -1.2 1.45 -1.15 Q1.4 -1.1 1.4 -1.05 L1.45 -1.05 1.5 -1.0 1.3 -1.1 1.25 -1.15 1.2 -1.2 1.1 -1.15 1.05 -1.15 1.1 -1.2 1.1 -1.3" fill="#32251d" fill-rule="evenodd" stroke="none"/>
    <path d="M1.4 -1.45 L1.4 -1.45 1.5 -1.45 1.6 -1.45 1.7 -1.35 1.8 -1.35 1.85 -1.35 1.85 -1.25 1.9 -1.2 2.05 -1.1 Q2.1 -1.05 2.2 -1.05 L2.2 -1.0 2.05 -1.05 2.0 -1.1 1.95 -1.15 1.8 -1.2 1.8 -1.3 Q1.75 -1.35 1.7 -1.3 L1.55 -1.35 1.4 -1.45 1.4 -1.45" fill="#3f6a91" fill-rule="evenodd" stroke="none"/>
    <path d="M1.1 -1.15 L1.2 -1.2 1.25 -1.15 1.3 -1.1 1.5 -1.0 1.45 -1.05 1.4 -1.05 Q1.4 -1.1 1.45 -1.15 L1.5 -1.2 1.45 -1.25 1.4 -1.3 1.55 -1.3 1.55 -1.25 Q1.55 -1.2 1.6 -1.15 L1.65 -1.05 Q1.7 -1.0 1.7 -0.95 L1.65 -0.65 1.7 -0.4 1.7 -0.35 1.65 -0.25 1.65 -0.1 1.5 0.0 1.35 0.0 1.25 0.0 1.25 -0.15 1.25 -0.35 1.25 -0.3 1.3 -0.25 1.35 -0.35 1.4 -0.35 1.4 -0.2 Q1.4 -0.15 1.45 -0.15 L1.45 -0.25 1.5 -0.35 1.55 -0.25 Q1.6 -0.25 1.6 -0.35 1.65 -0.4 1.65 -0.45 L1.55 -0.45 1.65 -0.5 1.65 -0.6 1.5 -0.6 1.5 -0.4 Q1.45 -0.4 1.45 -0.45 L1.45 -0.55 1.4 -0.6 1.3 -0.55 Q1.45 -0.65 1.45 -0.9 L1.35 -0.85 1.3 -0.85 1.3 -0.9 1.35 -0.95 1.3 -1.0 1.25 -1.0 1.25 -1.05 1.15 -1.0 1.15 -0.9 Q1.05 -0.95 1.05 -1.0 1.05 -1.1 1.1 -1.15 M1.25 -0.15 L1.25 -0.15 M1.25 0.0 L1.25 0.0 M1.35 0.0 L1.35 0.0 M1.65 -0.1 L1.65 -0.1" fill="#241d1a" fill-rule="evenodd" stroke="none"/>
    <path d="M1.35 -1.3 L1.35 -1.35 1.55 -1.3 1.4 -1.3 1.35 -1.3" fill="#173449" fill-rule="evenodd" stroke="none"/>
    <path d="M1.35 -1.35 L1.4 -1.45 1.55 -1.35 1.7 -1.3 Q1.75 -1.35 1.8 -1.3 L1.8 -1.2 1.95 -1.15 1.85 -1.1 1.7 -1.15 1.65 -1.2 1.6 -1.2 1.55 -1.25 1.55 -1.3 1.35 -1.35" fill="#4e7dac" fill-rule="evenodd" stroke="none"/>
    <path d="M1.6 -1.45 L1.8 -1.35 1.7 -1.35 1.6 -1.45" fill="#254966" fill-rule="evenodd" stroke="none"/>
    <path d="M1.55 -1.55 L1.85 -1.35 1.8 -1.35 1.6 -1.45 1.55 -1.55 M1.85 -1.35 L1.85 -1.35" fill="#16384f" fill-rule="evenodd" stroke="none"/>
    <path d="M1.85 -1.35 L1.9 -1.35 Q1.9 -1.25 2.0 -1.2 L2.15 -1.25 2.1 -1.3 Q2.05 -1.3 2.05 -1.35 L2.2 -1.4 2.2 -1.15 Q2.1 -1.15 2.1 -1.1 L2.2 -1.1 2.2 -1.05 Q2.1 -1.05 2.05 -1.1 L1.9 -1.2 1.85 -1.25 1.85 -1.35 1.85 -1.35" fill="#305574" fill-rule="evenodd" stroke="none"/>
    <path d="M0.0 -2.2 L-0.05 -2.1 0.25 -2.0 0.3 -1.95 0.65 -1.85 0.95 -1.8 0.85 -1.7 0.8 -1.6 0.75 -1.6 0.75 -1.65 0.65 -1.65 0.5 -1.7 Q0.35 -1.75 0.2 -1.8 L-0.05 -1.9 -0.2 -2.05 -0.4 -2.2 0.0 -2.2" fill="#0c2636" fill-rule="evenodd" stroke="none"/>
    <path d="M0.4 -1.65 L0.4 -1.7 0.5 -1.7 0.65 -1.65 0.7 -1.6 0.65 -1.5 0.65 -1.5 Q0.6 -1.6 0.4 -1.65" fill="#3a668c" fill-rule="evenodd" stroke="none"/>
    <path d="M0.4 -1.65 L0.35 -1.65 0.3 -1.65 0.25 -1.7 0.4 -1.7 0.4 -1.65" fill="#5285b7" fill-rule="evenodd" stroke="none"/>
    <path d="M0.25 -1.7 L0.3 -1.65 0.35 -1.65 0.4 -1.65 0.5 -1.55 0.55 -1.45 0.5 -1.45 0.45 -1.35 0.4 -1.25 0.25 -1.45 0.1 -1.7 0.25 -1.7" fill="#6ca7da" fill-rule="evenodd" stroke="none"/>
    <path d="M0.4 -1.7 L0.25 -1.7 0.15 -1.75 Q0.1 -1.8 0.05 -1.8 L0.0 -1.8 -0.15 -1.85 Q-0.2 -2.0 -0.4 -2.1 L-0.5 -2.2 -0.4 -2.2 -0.2 -2.05 -0.05 -1.9 0.2 -1.8 Q0.35 -1.75 0.5 -1.7 L0.4 -1.7" fill="#1e4a67" fill-rule="evenodd" stroke="none"/>
    <path d="M0.5 -1.45 L0.55 -1.45 0.5 -1.55 0.4 -1.65 Q0.6 -1.6 0.65 -1.5 0.6 -1.5 0.65 -1.45 0.65 -1.45 0.7 -1.45 L0.75 -1.35 0.75 -1.25 0.65 -1.35 0.5 -1.45" fill="#5283b5" fill-rule="evenodd" stroke="none"/>
    <path d="M0.05 -1.8 Q0.1 -1.8 0.15 -1.75 L0.25 -1.7 0.1 -1.7 0.05 -1.8" fill="#5286b9" fill-rule="evenodd" stroke="none"/>
    <path d="M0.05 -1.8 L0.1 -1.7 0.25 -1.45 0.4 -1.25 0.5 -1.15 0.55 -1.1 0.55 -1.0 0.5 -1.05 Q0.45 -1.05 0.45 -1.15 L0.2 -1.45 0.0 -1.8 0.05 -1.8" fill="#7dc0f3" fill-rule="evenodd" stroke="none"/>
    <path d="M0.9 -1.2 L0.9 -1.15 0.9 -1.15 0.8 -1.05 0.75 -0.9 Q0.75 -0.95 0.65 -1.0 L0.6 -1.1 0.55 -1.2 Q0.65 -1.15 0.6 -1.25 0.55 -1.3 0.5 -1.3 L0.5 -1.4 Q0.55 -1.45 0.55 -1.4 0.55 -1.35 0.55 -1.3 L0.65 -1.25 0.65 -1.3 0.7 -1.25 0.8 -1.2 0.9 -1.25 0.9 -1.2 M0.5 -1.3 L0.5 -1.3 M0.65 -1.1 Q0.7 -1.0 0.75 -1.0 L0.75 -1.1 0.7 -1.2 Q0.65 -1.15 0.65 -1.1" fill="#2e241a" fill-rule="evenodd" stroke="none"/>
    <path d="M0.5 -1.3 L0.5 -1.3 0.55 -1.2 0.6 -1.1 0.65 -1.0 0.6 -0.95 0.6 -0.9 0.65 -0.8 0.75 -0.75 0.7 -0.65 0.65 -0.75 0.6 -0.75 0.55 -0.75 0.55 -0.8 0.4 -0.8 0.3 -0.8 0.1 -0.8 -0.1 -0.8 -0.1 -0.8 -0.15 -0.85 -0.15 -0.85 -0.2 -0.85 -0.3 -0.95 -0.25 -0.95 -0.2 -0.95 Q-0.15 -1.0 -0.2 -1.05 L-0.3 -1.1 -0.2 -1.1 -0.1 -1.1 -0.05 -1.05 0.05 -1.05 0.05 -0.9 0.1 -0.85 0.15 -0.85 0.15 -0.9 0.1 -0.95 0.25 -1.0 0.35 -1.0 0.25 -0.95 0.2 -0.9 0.3 -0.9 0.4 -0.9 0.45 -0.85 Q0.45 -0.8 0.45 -0.85 L0.55 -0.9 0.5 -0.95 0.5 -1.0 0.55 -1.0 0.55 -1.1 0.5 -1.15 0.45 -1.25 Q0.45 -1.3 0.5 -1.3 M-0.3 -0.95 L-0.3 -0.95 -0.3 -0.95" fill="#1f2427" fill-rule="evenodd" stroke="none"/>
    <path d="M0.5 -1.45 L0.65 -1.35 0.75 -1.25 0.7 -1.25 0.65 -1.3 0.55 -1.4 Q0.55 -1.45 0.5 -1.4 L0.5 -1.3 Q0.45 -1.3 0.45 -1.25 L0.5 -1.15 0.4 -1.25 0.45 -1.35 0.5 -1.45" fill="#233e50" fill-rule="evenodd" stroke="none"/>
    <path d="M-0.15 -1.85 L0.0 -1.8 0.2 -1.45 0.45 -1.15 Q0.45 -1.05 0.5 -1.05 L0.4 -1.0 0.3 -1.0 0.3 -1.05 0.35 -1.1 Q0.4 -1.1 0.4 -1.15 L0.35 -1.25 0.2 -1.4 0.1 -1.55 -0.05 -1.7 -0.2 -1.85 -0.15 -1.85" fill="#9cecfe" fill-rule="evenodd" stroke="none"/>
    <path d="M0.1 -1.55 L0.2 -1.4 0.35 -1.25 0.4 -1.15 Q0.4 -1.1 0.35 -1.1 L0.2 -1.3 Q0.1 -1.45 0.1 -1.55" fill="#c9ffff" fill-rule="evenodd" stroke="none"/>
    <path d="M0.1 -1.55 Q0.1 -1.45 0.2 -1.3 L0.35 -1.1 0.3 -1.05 0.2 -1.05 0.2 -1.1 0.15 -1.15 0.05 -1.15 Q0.05 -1.15 0.05 -1.1 0.05 -1.1 0.1 -1.1 L0.15 -1.1 0.1 -1.05 0.05 -1.05 -0.15 -1.25 -0.35 -1.5 -0.4 -1.65 -0.55 -1.75 -0.6 -1.8 -0.7 -1.9 -0.75 -1.9 -0.75 -1.95 -0.7 -2.0 -0.55 -1.95 -0.45 -2.05 -0.35 -2.05 -0.25 -1.95 -0.2 -1.85 -0.05 -1.7 0.1 -1.55" fill="#f7ffff" fill-rule="evenodd" stroke="none"/>
    <path d="M0.95 -1.8 L1.0 -1.8 1.0 -1.75 1.0 -1.5 0.9 -1.45 0.9 -1.5 0.85 -1.55 0.85 -1.5 0.75 -1.5 0.8 -1.6 0.85 -1.7 0.95 -1.8" fill="#232726" fill-rule="evenodd" stroke="none"/>
    <path d="M0.65 -1.5 L0.7 -1.6 0.65 -1.65 0.75 -1.65 0.75 -1.6 0.65 -1.5" fill="#1a3b54" fill-rule="evenodd" stroke="none"/>
    <path d="M0.7 -1.45 Q0.65 -1.45 0.65 -1.45 0.6 -1.5 0.65 -1.5 L0.65 -1.5 Q0.7 -1.45 0.7 -1.45" fill="#102c40" fill-rule="evenodd" stroke="none"/>
    <path d="M0.9 -1.45 Q0.85 -1.45 0.9 -1.4 L0.85 -1.35 Q0.85 -1.3 0.9 -1.25 L0.8 -1.2 0.7 -1.25 0.75 -1.25 0.75 -1.35 0.7 -1.45 Q0.7 -1.45 0.65 -1.5 L0.75 -1.6 0.8 -1.6 0.75 -1.5 0.85 -1.5 0.85 -1.55 0.9 -1.5 0.9 -1.45" fill="#171d1f" fill-rule="evenodd" stroke="none"/>
    <path d="M0.55 -1.4 L0.65 -1.3 0.65 -1.25 0.55 -1.3 Q0.55 -1.35 0.55 -1.4" fill="#b5a579" fill-rule="evenodd" stroke="none"/>
    <path d="M0.9 -1.4 L0.95 -1.4 Q0.9 -1.35 0.95 -1.35 L1.0 -1.25 0.95 -1.25 Q0.9 -1.25 0.9 -1.2 L0.9 -1.25 Q0.85 -1.3 0.85 -1.35 L0.9 -1.4" fill="#d8b2a5" fill-rule="evenodd" stroke="none"/>
    <path d="M0.5 -1.3 Q0.55 -1.3 0.6 -1.25 0.65 -1.15 0.55 -1.2 L0.5 -1.3" fill="#c8b683" fill-rule="evenodd" stroke="none"/>
    <path d="M0.9 -1.15 L1.05 -1.15 1.1 -1.15 Q1.05 -1.1 1.05 -1.0 1.05 -0.95 1.15 -0.9 L1.1 -0.75 1.0 -0.6 1.05 -0.55 0.95 -0.45 1.0 -0.4 1.0 -0.3 0.9 -0.35 0.8 -0.5 0.8 -0.55 0.9 -0.55 0.9 -0.6 0.8 -0.75 0.85 -0.95 0.9 -0.95 0.9 -1.05 0.85 -1.05 0.8 -1.0 0.8 -0.95 0.75 -0.9 0.8 -1.05 0.9 -1.15 0.9 -1.15 M0.9 -0.95 L0.95 -0.85 Q0.95 -0.8 1.0 -0.8 L1.05 -0.95 Q1.05 -1.05 1.0 -1.1 L0.9 -0.95 M1.15 -0.9 L1.15 -0.9" fill="#202221" fill-rule="evenodd" stroke="none"/>
    <path d="M0.8 -0.95 L0.8 -1.0 Q0.9 -1.0 0.85 -0.95 L0.85 -0.9 Q0.85 -0.85 0.8 -0.85 L0.8 -0.95" fill="#94babb" fill-rule="evenodd" stroke="none"/>
    <path d="M0.85 -0.95 Q0.9 -1.0 0.8 -1.0 L0.85 -1.05 0.9 -1.05 0.9 -0.95 0.85 -0.95 M0.9 -0.95 L0.9 -0.95" fill="#2e3632" fill-rule="evenodd" stroke="none"/>
    <path d="M0.9 -0.95 L1.0 -1.1 Q1.05 -1.05 1.05 -0.95 L1.0 -0.8 Q0.95 -0.8 0.95 -0.85 L0.9 -0.95 0.9 -0.95" fill="#1d2e34" fill-rule="evenodd" stroke="none"/>
    <path d="M0.65 -1.0 Q0.75 -0.95 0.75 -0.9 0.75 -0.8 0.8 -0.75 L0.9 -0.6 0.9 -0.55 0.8 -0.55 0.75 -0.65 0.75 -0.75 0.65 -0.8 0.6 -0.9 0.6 -0.95 0.65 -1.0" fill="#f4ddc9" fill-rule="evenodd" stroke="none"/>
    <path d="M0.65 -1.1 Q0.65 -1.15 0.7 -1.2 L0.75 -1.1 0.75 -1.0 Q0.7 -1.0 0.65 -1.1" fill="#cba871" fill-rule="evenodd" stroke="none"/>
    <path d="M0.75 -0.75 L0.75 -0.65 0.7 -0.6 0.7 -0.45 Q0.7 -0.4 0.7 -0.35 L0.75 -0.4 0.8 -0.4 0.85 -0.35 0.85 -0.25 0.8 -0.2 0.7 -0.2 0.75 -0.25 0.8 -0.25 0.7 -0.3 0.6 -0.25 0.6 -0.3 0.65 -0.4 0.65 -0.6 Q0.65 -0.6 0.6 -0.6 L0.6 -0.75 0.65 -0.75 0.7 -0.65 0.75 -0.75" fill="#35322c" fill-rule="evenodd" stroke="none"/>
    <path d="M0.55 -0.75 L0.6 -0.75 0.6 -0.6 0.6 -0.3 0.6 -0.25 0.7 -0.3 0.8 -0.25 0.75 -0.25 0.7 -0.2 0.65 -0.15 0.65 0.2 0.65 0.15 Q0.65 -0.05 0.55 -0.15 L0.55 -0.45 0.55 -0.75" fill="#252828" fill-rule="evenodd" stroke="none"/>
    <path d="M0.55 -0.75 L0.55 -0.45 0.4 -0.4 0.35 -0.4 0.3 -0.45 0.2 -0.4 0.15 -0.4 0.1 -0.4 0.35 -0.45 Q0.45 -0.4 0.5 -0.5 L0.45 -0.55 0.35 -0.55 0.3 -0.65 0.25 -0.7 0.25 -0.75 0.3 -0.8 0.4 -0.8 0.55 -0.8 0.45 -0.75 0.4 -0.75 Q0.4 -0.7 0.45 -0.65 0.55 -0.65 0.5 -0.7 L0.55 -0.8 0.55 -0.75 M0.35 -0.55 L0.35 -0.55" fill="#1a4d6e" fill-rule="evenodd" stroke="none"/>
    <path d="M0.55 -0.8 L0.5 -0.7 Q0.45 -0.65 0.4 -0.75 L0.45 -0.75 0.55 -0.8" fill="#72c5f8" fill-rule="evenodd" stroke="none"/>
    <path d="M0.8 -0.95 L0.8 -0.85 Q0.85 -0.85 0.85 -0.9 L0.85 -0.95 0.8 -0.75 Q0.75 -0.8 0.75 -0.9 L0.8 -0.95" fill="#2e3731" fill-rule="evenodd" stroke="none"/>
    <path d="M0.3 -1.05 L0.3 -1.0 0.1 -1.0 0.05 -1.0 0.05 -1.05 0.1 -1.05 0.15 -1.1 0.1 -1.1 Q0.05 -1.1 0.05 -1.1 0.05 -1.15 0.05 -1.15 L0.15 -1.15 0.2 -1.1 0.2 -1.05 0.3 -1.05" fill="#d4ffff" fill-rule="evenodd" stroke="none"/>
    <path d="M0.3 -1.0 L0.4 -1.0 0.55 -1.0 0.5 -1.0 0.35 -1.0 0.25 -1.0 0.1 -0.95 0.1 -1.0 0.1 -1.0 0.3 -1.0" fill="#1d5173" fill-rule="evenodd" stroke="none"/>
    <path d="M0.35 -1.0 L0.5 -1.0 0.5 -0.95 0.55 -0.9 0.45 -0.85 Q0.45 -0.8 0.45 -0.85 L0.4 -0.9 0.3 -0.9 0.2 -0.9 0.25 -0.95 0.35 -1.0 M0.5 -0.95 L0.45 -0.95 Q0.4 -0.9 0.45 -0.85 L0.5 -0.9 0.5 -0.95" fill="#423d3a" fill-rule="evenodd" stroke="none"/>
    <path d="M0.5 -0.95 L0.5 -0.9 0.45 -0.85 Q0.4 -0.9 0.45 -0.95 L0.5 -0.95" fill="#fae5e2" fill-rule="evenodd" stroke="none"/>
    <path d="M0.05 -1.0 L0.1 -1.0 0.1 -1.0 0.1 -0.95 0.15 -0.9 0.15 -0.85 0.1 -0.85 0.05 -0.9 0.05 -1.05 0.05 -1.0" fill="#2f3536" fill-rule="evenodd" stroke="none"/>
    <path d="M0.05 -1.05 L0.05 -1.0 0.05 -1.05 -0.05 -1.05 -0.2 -1.25 -0.35 -1.5 -0.5 -1.7 Q-0.65 -1.75 -0.7 -1.9 L-0.6 -1.8 -0.55 -1.75 -0.4 -1.65 -0.35 -1.5 -0.15 -1.25 0.05 -1.05" fill="#c4fdfe" fill-rule="evenodd" stroke="none"/>
    <path d="M0.5 -0.7 Q0.55 -0.65 0.45 -0.65 0.4 -0.7 0.4 -0.75 0.45 -0.65 0.5 -0.7" fill="#3b7fb0" fill-rule="evenodd" stroke="none"/>
    <path d="M0.3 -0.8 L0.25 -0.75 0.25 -0.7 0.3 -0.65 0.35 -0.55 0.2 -0.55 Q0.1 -0.55 0.1 -0.45 L0.1 -0.4 0.15 -0.4 0.05 -0.3 Q0.05 -0.3 0.1 -0.25 L0.05 -0.25 Q0.0 -0.25 0.0 -0.3 -0.05 -0.3 -0.1 -0.3 L-0.2 -0.3 -0.25 -0.35 -0.3 -0.35 -0.35 -0.3 -0.4 -0.35 -0.35 -0.45 Q-0.25 -0.4 -0.2 -0.5 L-0.1 -0.5 0.0 -0.5 Q0.0 -0.55 -0.05 -0.55 L0.0 -0.65 0.0 -0.7 -0.05 -0.75 -0.05 -0.8 -0.1 -0.8 0.1 -0.8 0.3 -0.8" fill="#13374d" fill-rule="evenodd" stroke="none"/>
    <path d="M0.35 -0.55 L0.45 -0.55 0.5 -0.5 Q0.45 -0.4 0.35 -0.45 L0.4 -0.5 0.35 -0.55" fill="#2b6188" fill-rule="evenodd" stroke="none"/>
    <path d="M0.35 -0.55 L0.35 -0.55 0.4 -0.5 0.35 -0.45 0.1 -0.4 0.1 -0.45 Q0.1 -0.55 0.2 -0.55 L0.35 -0.55" fill="#3e6c96" fill-rule="evenodd" stroke="none"/>
    <path d="M0.15 -0.4 L0.2 -0.4 0.3 -0.45 0.35 -0.4 0.4 -0.4 0.45 -0.3 0.45 -0.2 0.4 -0.15 0.3 -0.2 Q0.25 -0.2 0.25 -0.15 0.2 -0.15 0.15 -0.2 L0.1 -0.25 Q0.05 -0.3 0.05 -0.3 L0.15 -0.4 M0.25 -0.15 L0.25 -0.15 M0.4 -0.15 L0.4 -0.15" fill="#0f2f42" fill-rule="evenodd" stroke="none"/>
    <path d="M0.55 -0.45 L0.55 -0.15 0.55 -0.2 0.45 -0.2 0.45 -0.3 0.4 -0.4 0.55 -0.45 M0.55 -0.15 L0.55 -0.15 0.55 -0.15" fill="#143c54" fill-rule="evenodd" stroke="none"/>
    <path d="M-0.2 -0.3 L-0.1 -0.3 Q-0.05 -0.3 0.0 -0.3 0.0 -0.25 0.05 -0.25 L0.1 -0.25 0.15 -0.2 Q0.2 -0.15 0.25 -0.15 L0.2 -0.1 0.15 -0.1 0.1 -0.2 -0.05 -0.2 Q-0.05 -0.25 -0.1 -0.3 L-0.2 -0.3 -0.2 -0.3" fill="#294f6d" fill-rule="evenodd" stroke="none"/>
    <path d="M0.45 -0.05 L0.4 0.0 Q0.3 0.0 0.25 0.0 L0.15 -0.1 0.2 -0.1 Q0.2 -0.05 0.2 -0.05 L0.25 -0.05 0.45 -0.05 M0.15 -0.1 L0.15 -0.1" fill="#518bb5" fill-rule="evenodd" stroke="none"/>
    <path d="M0.55 -0.15 L0.55 -0.15 0.5 -0.15 0.4 -0.1 0.25 -0.05 0.2 -0.05 Q0.2 -0.05 0.2 -0.1 L0.25 -0.15 0.25 -0.15 0.3 -0.15 0.4 -0.15 0.55 -0.15 M0.4 -0.15 L0.4 -0.15" fill="#336080" fill-rule="evenodd" stroke="none"/>
    <path d="M0.15 -0.1 L0.25 0.0 Q0.3 0.0 0.4 0.0 L0.45 -0.05 0.5 0.0 0.5 0.1 0.55 0.1 0.6 0.15 0.45 0.1 0.3 0.1 0.25 0.15 0.2 0.15 0.2 0.05 0.15 0.0 Q0.0 -0.15 -0.3 -0.2 -0.35 -0.25 -0.4 -0.25 L-0.35 -0.25 -0.2 -0.3 -0.15 -0.25 -0.05 -0.2 0.15 -0.1 M-0.4 -0.25 L-0.4 -0.25" fill="#62a1ca" fill-rule="evenodd" stroke="none"/>
    <path d="M0.15 -0.1 L0.15 -0.1 -0.05 -0.2 0.1 -0.2 0.15 -0.1" fill="#4776a0" fill-rule="evenodd" stroke="none"/>
    <path d="M0.25 -0.15 Q0.25 -0.2 0.3 -0.2 L0.4 -0.15 0.3 -0.15 0.25 -0.15" fill="#254d6a" fill-rule="evenodd" stroke="none"/>
    <path d="M0.45 -0.2 L0.55 -0.2 0.55 -0.15 0.4 -0.15 0.45 -0.2" fill="#244e6b" fill-rule="evenodd" stroke="none"/>
    <path d="M0.45 -0.05 L0.25 -0.05 0.4 -0.1 0.5 -0.15 0.45 -0.05" fill="#42749a" fill-rule="evenodd" stroke="none"/>
    <path d="M0.8 -0.55 L0.8 -0.5 0.9 -0.35 1.0 -0.3 1.0 -0.25 0.95 -0.2 0.95 -0.2 1.0 -0.15 0.9 -0.15 0.9 -0.25 0.85 -0.25 0.85 -0.35 0.8 -0.4 0.75 -0.4 0.7 -0.35 Q0.7 -0.4 0.7 -0.45 L0.7 -0.6 0.75 -0.65 0.8 -0.55 M1.0 -0.3 L1.0 -0.3" fill="#3e4a44" fill-rule="evenodd" stroke="none"/>
    <path d="M1.25 -1.0 L1.3 -1.0 1.35 -0.95 1.3 -0.9 1.3 -0.85 1.35 -0.85 1.45 -0.9 Q1.45 -0.65 1.3 -0.55 L1.3 -0.45 1.25 -0.35 1.25 -0.15 Q1.1 -0.15 1.0 -0.3 L1.0 -0.4 0.95 -0.45 1.05 -0.55 1.1 -0.7 1.15 -0.85 1.2 -0.9 1.25 -1.0 M1.0 -0.3 L1.0 -0.3 M1.25 -0.65 L1.25 -0.65 1.2 -0.65 1.2 -0.6 1.25 -0.65" fill="#171715" fill-rule="evenodd" stroke="none"/>
    <path d="M0.6 -0.3 L0.6 -0.6 Q0.65 -0.6 0.65 -0.6 L0.65 -0.4 0.6 -0.3" fill="#483529" fill-rule="evenodd" stroke="none"/>
    <path d="M0.55 -0.15 Q0.65 -0.05 0.65 0.15 L0.6 0.15 0.55 0.1 0.5 0.1 0.5 0.0 0.45 -0.05 0.5 -0.15 0.55 -0.15 0.55 -0.15" fill="#518ab2" fill-rule="evenodd" stroke="none"/>
    <path d="M0.7 -0.15 L0.7 -0.1 0.7 0.0 0.65 -0.15 0.7 -0.15" fill="#ac7d6d" fill-rule="evenodd" stroke="none"/>
    <path d="M0.65 -0.15 L0.7 -0.2 0.8 -0.2 0.75 -0.2 0.7 -0.15 0.65 -0.15" fill="#695447" fill-rule="evenodd" stroke="none"/>
    <path d="M0.7 -0.1 L0.7 -0.15 0.75 -0.2 0.8 -0.2 0.85 -0.25 0.9 -0.25 0.85 -0.15 0.85 0.0 0.8 0.05 0.7 0.0 0.7 -0.1" fill="#fff8c7" fill-rule="evenodd" stroke="none"/>
    <path d="M1.25 -0.15 L1.25 -0.15 1.15 -0.15 1.0 -0.15 0.95 -0.2 0.95 -0.2 1.0 -0.25 1.0 -0.3 Q1.1 -0.15 1.25 -0.15" fill="#393b35" fill-rule="evenodd" stroke="none"/>
    <path d="M1.25 0.0 L1.25 0.0 1.3 0.1 1.3 0.15 1.3 0.6 1.25 0.65 1.2 0.55 1.15 0.45 1.05 0.35 1.0 0.2 1.05 0.1 1.0 0.05 Q0.95 0.0 0.9 -0.05 L0.9 -0.15 1.0 -0.15 1.15 -0.15 1.2 -0.1 1.25 0.0" fill="#fff9cb" fill-rule="evenodd" stroke="none"/>
    <path d="M0.85 0.0 L0.85 -0.15 0.9 -0.25 0.9 -0.15 0.9 -0.05 Q0.95 0.0 1.0 0.05 L0.95 0.05 0.95 0.15 0.95 0.1 0.9 0.05 0.85 0.0 0.85 0.0" fill="#f7b4a2" fill-rule="evenodd" stroke="none"/>
    <path d="M1.95 -1.15 L2.0 -1.1 2.05 -1.05 2.2 -1.0 2.2 -0.8 2.1 -0.8 Q2.1 -0.85 2.1 -0.85 L2.1 -0.95 1.9 -0.95 1.7 -1.0 1.7 -1.1 1.6 -1.15 1.6 -1.2 1.65 -1.2 1.7 -1.15 1.85 -1.1 1.95 -1.15" fill="#5689bb" fill-rule="evenodd" stroke="none"/>
    <path d="M1.6 -1.15 Q1.55 -1.2 1.55 -1.25 L1.6 -1.2 1.6 -1.15" fill="#132c3e" fill-rule="evenodd" stroke="none"/>
    <path d="M1.7 -0.4 L1.65 -0.65 1.7 -0.95 Q1.7 -1.0 1.65 -1.05 L1.6 -1.15 1.7 -1.1 1.7 -1.0 1.7 -0.5 1.7 -0.4" fill="#102a3c" fill-rule="evenodd" stroke="none"/>
    <path d="M1.7 -1.0 L1.9 -0.95 2.1 -0.95 2.1 -0.85 Q2.1 -0.85 2.1 -0.8 L2.2 -0.8 2.2 -0.6 1.95 -0.5 1.7 -0.5 1.7 -1.0" fill="#6095ca" fill-rule="evenodd" stroke="none"/>
    <path d="M1.15 -0.9 L1.15 -1.0 1.25 -1.05 1.25 -1.0 1.2 -0.9 1.15 -0.85 1.15 -0.9 1.15 -0.9" fill="#9cc1c1" fill-rule="evenodd" stroke="none"/>
    <path d="M1.25 -0.65 L1.2 -0.6 1.2 -0.65 1.25 -0.65 1.25 -0.65" fill="#b99798" fill-rule="evenodd" stroke="none"/>
    <path d="M1.05 -0.55 L1.0 -0.6 1.1 -0.75 1.15 -0.9 1.15 -0.85 1.1 -0.7 1.05 -0.55" fill="#23312b" fill-rule="evenodd" stroke="none"/>
    <path d="M1.3 -0.55 L1.4 -0.6 1.45 -0.55 1.45 -0.45 Q1.45 -0.4 1.5 -0.4 L1.5 -0.6 1.65 -0.6 1.65 -0.5 1.55 -0.45 1.65 -0.45 Q1.65 -0.4 1.6 -0.35 1.6 -0.25 1.55 -0.25 L1.5 -0.35 1.45 -0.25 1.45 -0.15 Q1.4 -0.15 1.4 -0.2 L1.4 -0.35 1.35 -0.35 1.3 -0.25 1.25 -0.3 1.25 -0.35 1.3 -0.45 1.3 -0.55" fill="#2f231b" fill-rule="evenodd" stroke="none"/>
    <path d="M1.25 -0.15 L1.25 0.0 1.2 -0.1 1.15 -0.15 1.25 -0.15" fill="#eab899" fill-rule="evenodd" stroke="none"/>
    <path d="M1.35 0.0 L1.5 0.0 1.65 -0.1 1.65 -0.05 1.7 -0.05 1.75 0.05 Q1.7 0.05 1.6 0.1 L1.55 0.25 1.5 0.15 1.45 0.1 Q1.5 0.05 1.45 0.0 L1.35 0.0" fill="#51a8cb" fill-rule="evenodd" stroke="none"/>
    <path d="M1.65 -0.1 L1.65 -0.1 1.7 -0.2 1.7 -0.35 1.7 -0.4 1.7 -0.5 1.95 -0.5 2.2 -0.6 2.2 -0.5 2.05 -0.4 1.9 -0.35 1.9 -0.3 1.95 -0.2 1.95 -0.1 1.9 0.0 1.9 0.05 1.85 0.05 1.7 -0.1 1.7 -0.05 1.65 -0.05 1.65 -0.1" fill="#64a3cf" fill-rule="evenodd" stroke="none"/>
    <path d="M1.7 -0.05 L1.7 -0.1 1.85 0.05 1.75 0.05 1.7 -0.05" fill="#3d839d" fill-rule="evenodd" stroke="none"/>
    <path d="M1.65 -0.1 L1.65 -0.25 1.7 -0.35 1.7 -0.2 1.65 -0.1" fill="#132a39" fill-rule="evenodd" stroke="none"/>
    <path d="M1.95 -0.1 L1.95 -0.2 1.9 -0.3 1.9 -0.35 2.05 -0.4 2.2 -0.5 2.2 -0.45 2.15 -0.4 2.1 -0.35 2.15 -0.25 2.05 -0.2 2.0 -0.15 1.95 -0.1" fill="#5c92c6" fill-rule="evenodd" stroke="none"/>
    <path d="M1.9 0.0 L1.95 -0.1 2.0 -0.15 2.05 -0.2 2.15 -0.25 2.1 -0.35 2.15 -0.4 2.2 -0.45 2.2 -0.05 Q2.15 0.0 2.05 -0.05 L1.9 0.0" fill="#4b87b4" fill-rule="evenodd" stroke="none"/>
    <path d="M1.9 -1.35 L2.05 -1.35 Q2.05 -1.3 2.1 -1.3 L2.15 -1.25 2.0 -1.2 Q1.9 -1.25 1.9 -1.35" fill="#274963" fill-rule="evenodd" stroke="none"/>
    <path d="M2.2 -1.1 L2.1 -1.1 Q2.1 -1.15 2.2 -1.15 L2.2 -1.1" fill="#183b54" fill-rule="evenodd" stroke="none"/>
    <path d="M1.85 0.05 L1.9 0.05 1.9 0.0 2.05 -0.05 Q2.15 0.0 2.2 -0.05 L2.2 0.05 Q2.15 0.1 2.05 0.0 L1.95 0.0 1.95 0.15 Q1.9 0.1 1.85 0.15 1.8 0.15 1.8 0.2 L1.7 0.15 1.75 0.05 1.85 0.05" fill="#23566d" fill-rule="evenodd" stroke="none"/>
    <path d="M2.2 0.2 L2.2 0.35 2.0 0.35 1.8 0.4 Q1.75 0.4 1.75 0.45 L1.75 0.6 1.6 0.65 1.4 0.65 1.35 0.65 1.35 0.6 1.35 0.35 1.35 0.4 1.4 0.5 1.5 0.5 1.6 0.45 1.65 0.4 1.75 0.3 1.95 0.2 2.2 0.2" fill="#0c2734" fill-rule="evenodd" stroke="none"/>
    <path d="M2.2 0.35 L2.2 0.45 2.0 0.45 1.85 0.5 1.9 0.55 1.9 0.6 1.75 0.7 1.65 0.75 1.6 0.8 1.55 0.85 Q1.55 0.95 1.7 0.95 L1.7 0.9 1.75 0.9 2.0 1.0 2.2 0.9 2.2 1.1 1.95 1.1 1.85 1.1 1.8 1.05 1.7 1.0 1.6 1.2 1.45 1.35 Q1.45 1.4 1.45 1.4 1.45 1.45 1.5 1.45 L1.75 1.55 Q1.85 1.55 1.9 1.6 L2.05 1.75 2.2 1.75 2.2 1.8 2.05 1.8 1.9 1.7 1.75 1.7 1.55 1.7 1.45 1.6 1.45 1.45 Q1.4 1.35 1.5 1.25 L1.55 1.2 1.6 1.1 1.55 1.0 1.45 0.95 1.4 0.85 Q1.4 0.8 1.35 0.8 L1.35 0.6 1.35 0.65 1.4 0.65 1.6 0.65 1.75 0.6 1.75 0.45 Q1.75 0.4 1.8 0.4 L2.0 0.35 2.2 0.35" fill="#09171e" fill-rule="evenodd" stroke="none"/>
    <path d="M2.2 0.05 L2.2 0.2 1.95 0.2 1.75 0.3 1.65 0.4 1.6 0.45 1.5 0.5 1.4 0.5 1.35 0.4 1.35 0.35 Q1.35 0.4 1.45 0.4 L1.55 0.4 1.55 0.35 1.65 0.3 1.65 0.25 1.75 0.25 1.8 0.2 Q1.8 0.15 1.85 0.15 1.9 0.1 1.95 0.15 L1.95 0.0 2.05 0.0 Q2.15 0.1 2.2 0.05" fill="#123849" fill-rule="evenodd" stroke="none"/>
    <path d="M2.2 1.15 L2.2 1.3 2.05 1.4 2.1 1.5 2.15 1.6 2.1 1.65 2.05 1.7 1.95 1.65 1.9 1.55 Q1.8 1.45 1.7 1.45 L1.6 1.45 1.55 1.35 1.55 1.4 1.65 1.4 1.7 1.35 1.9 1.4 Q2.05 1.35 2.05 1.25 L2.0 1.2 1.95 1.2 1.9 1.15 1.85 1.1 1.95 1.1 2.1 1.2 2.15 1.2 2.2 1.15" fill="#1e2e33" fill-rule="evenodd" stroke="none"/>
    <path d="M2.2 1.1 L2.2 1.15 2.15 1.2 2.1 1.2 1.95 1.1 2.2 1.1 M2.2 1.3 L2.2 1.75 2.05 1.75 1.9 1.6 Q1.85 1.55 1.75 1.55 L1.5 1.45 Q1.45 1.45 1.45 1.4 1.45 1.4 1.45 1.35 L1.6 1.2 1.7 1.0 1.8 1.05 1.85 1.1 1.8 1.1 1.8 1.15 1.75 1.15 1.7 1.2 1.65 1.25 1.65 1.3 1.6 1.3 1.55 1.35 1.6 1.45 1.7 1.45 Q1.8 1.45 1.9 1.55 L1.95 1.65 2.05 1.7 2.1 1.65 2.15 1.6 2.1 1.5 2.05 1.4 2.2 1.3" fill="#142228" fill-rule="evenodd" stroke="none"/>
    <path d="M2.2 0.45 L2.2 0.9 2.0 1.0 1.75 0.9 1.7 0.9 1.7 0.95 Q1.55 0.95 1.55 0.85 L1.6 0.8 1.65 0.75 1.75 0.7 1.9 0.6 1.9 0.55 1.85 0.5 2.0 0.45 2.2 0.45" fill="#051015" fill-rule="evenodd" stroke="none"/>
    <path d="M2.2 1.8 L2.2 2.05 2.0 2.05 1.9 2.0 1.85 1.9 1.85 1.8 Q1.85 1.75 1.8 1.75 L1.7 1.8 1.55 1.75 1.5 1.7 1.45 1.65 Q1.45 1.7 1.5 1.8 L1.55 1.9 1.6 1.95 1.65 2.05 1.7 2.1 1.8 2.2 1.45 2.2 1.45 2.1 Q1.45 2.0 1.4 2.0 L1.3 1.95 1.25 2.05 1.25 2.2 1.15 2.2 1.2 2.05 1.25 1.95 1.2 1.8 Q1.15 1.75 1.2 1.7 L1.25 1.6 1.25 1.45 1.2 1.4 1.15 1.3 1.05 1.2 Q1.05 1.1 0.95 1.05 0.95 1.1 0.95 1.2 L0.95 1.35 0.9 1.4 0.9 1.1 Q0.9 0.9 0.9 0.8 L0.95 0.65 1.0 0.7 1.1 0.7 1.15 0.85 1.2 1.0 1.2 1.2 1.3 1.4 1.3 1.9 1.35 1.9 1.4 1.85 1.4 1.2 1.35 1.0 1.3 0.8 1.35 0.8 Q1.4 0.8 1.4 0.85 L1.45 0.95 1.55 1.0 1.6 1.1 1.55 1.2 1.5 1.25 Q1.4 1.35 1.45 1.45 L1.45 1.6 1.55 1.7 1.75 1.7 1.9 1.7 2.05 1.8 2.2 1.8" fill="#0a1115" fill-rule="evenodd" stroke="none"/>
    <path d="M2.2 2.05 L2.2 2.2 1.8 2.2 1.7 2.1 1.65 2.05 1.6 1.95 1.55 1.9 1.5 1.8 Q1.45 1.7 1.45 1.65 L1.5 1.7 1.55 1.75 1.7 1.8 1.8 1.75 Q1.85 1.75 1.85 1.8 L1.85 1.9 1.85 1.85 Q1.8 1.8 1.8 1.8 L1.75 1.95 Q1.7 2.0 1.75 2.05 L1.85 2.1 1.9 2.0 2.0 2.05 2.2 2.05" fill="#0b181f" fill-rule="evenodd" stroke="none"/>
    <path d="M1.75 0.05 L1.7 0.15 1.8 0.2 1.65 0.2 Q1.6 0.2 1.6 0.25 L1.55 0.25 1.6 0.1 Q1.7 0.05 1.75 0.05" fill="#438db6" fill-rule="evenodd" stroke="none"/>
    <path d="M1.55 0.35 L1.55 0.4 1.45 0.4 Q1.35 0.4 1.35 0.35 L1.5 0.35 1.4 0.3 1.55 0.25 1.6 0.25 1.55 0.3 1.5 0.3 1.55 0.35" fill="#275c76" fill-rule="evenodd" stroke="none"/>
    <path d="M1.35 0.0 L1.35 0.0 1.45 0.0 Q1.5 0.05 1.45 0.1 L1.5 0.15 1.55 0.25 1.5 0.25 1.35 0.1 1.35 0.0" fill="#57bedd" fill-rule="evenodd" stroke="none"/>
    <path d="M1.65 0.25 L1.65 0.3 1.55 0.35 1.5 0.3 1.55 0.3 1.6 0.25 1.65 0.25" fill="#1a465c" fill-rule="evenodd" stroke="none"/>
    <path d="M1.8 0.2 L1.75 0.25 1.65 0.25 1.6 0.25 Q1.6 0.2 1.65 0.2 L1.8 0.2" fill="#376f8e" fill-rule="evenodd" stroke="none"/>
    <path d="M1.25 0.0 L1.35 0.0 1.35 0.1 1.35 0.25 1.35 0.35 1.35 0.25 1.3 0.15 1.3 0.1 1.25 0.0" fill="#283f46" fill-rule="evenodd" stroke="none"/>
    <path d="M1.4 0.3 L1.5 0.35 1.35 0.35 1.35 0.25 1.35 0.3 1.4 0.3" fill="#144b65" fill-rule="evenodd" stroke="none"/>
    <path d="M1.5 0.25 L1.35 0.3 1.35 0.25 1.35 0.1 1.5 0.25" fill="#6ae2fa" fill-rule="evenodd" stroke="none"/>
    <path d="M1.3 0.6 L1.3 0.15 1.35 0.25 1.35 0.35 1.35 0.6 1.35 0.8 1.3 0.8 1.3 0.9 1.2 0.9 Q1.15 0.8 1.15 0.7 L1.2 0.75 1.3 0.75 1.3 0.6" fill="#44382e" fill-rule="evenodd" stroke="none"/>
    <path d="M1.55 0.25 L1.4 0.3 1.35 0.3 1.5 0.25 1.55 0.25" fill="#377ba4" fill-rule="evenodd" stroke="none"/>
    <path d="M1.0 0.05 L1.05 0.1 1.0 0.2 1.0 0.15 0.95 0.05 1.0 0.05" fill="#534436" fill-rule="evenodd" stroke="none"/>
    <path d="M1.0 0.2 L1.05 0.35 1.05 0.4 Q1.0 0.4 1.0 0.45 L1.0 0.5 Q1.0 0.55 1.0 0.5 L1.0 0.45 0.9 0.5 0.9 0.4 0.95 0.3 0.95 0.25 0.95 0.15 0.95 0.05 1.0 0.15 1.0 0.2" fill="#2b3232" fill-rule="evenodd" stroke="none"/>
    <path d="M1.3 0.8 L1.35 1.0 1.4 1.2 1.4 1.85 1.35 1.9 1.3 1.9 1.3 1.4 1.2 1.2 1.2 1.0 1.15 0.85 1.1 0.7 1.0 0.7 0.95 0.65 0.9 0.8 Q0.9 0.75 0.9 0.7 L0.9 0.55 0.9 0.5 1.0 0.45 1.0 0.5 Q1.0 0.55 1.0 0.5 L1.0 0.45 Q1.0 0.4 1.05 0.4 L1.1 0.5 1.1 0.55 1.1 0.6 1.15 0.6 1.15 0.7 Q1.15 0.8 1.2 0.9 L1.3 0.9 1.3 0.8" fill="#1e1f1e" fill-rule="evenodd" stroke="none"/>
    <path d="M1.05 0.35 L1.15 0.45 1.15 0.6 1.1 0.6 1.1 0.55 1.05 0.4 1.05 0.35" fill="#d79d8a" fill-rule="evenodd" stroke="none"/>
    <path d="M1.1 0.55 L1.1 0.5 1.05 0.4 1.1 0.55" fill="#45362f" fill-rule="evenodd" stroke="none"/>
    <path d="M1.15 0.45 L1.2 0.55 1.25 0.65 1.3 0.6 1.3 0.75 1.2 0.75 1.2 0.65 1.15 0.6 1.15 0.45" fill="#e8c49b" fill-rule="evenodd" stroke="none"/>
    <path d="M1.15 0.6 L1.2 0.65 1.2 0.75 1.15 0.7 1.15 0.6" fill="#b58575" fill-rule="evenodd" stroke="none"/>
    <path d="M1.8 1.2 L1.8 1.3 1.85 1.35 1.75 1.3 1.65 1.3 1.65 1.25 1.7 1.2 1.8 1.2" fill="#48606b" fill-rule="evenodd" stroke="none"/>
    <path d="M1.7 1.2 L1.75 1.15 1.8 1.15 Q1.75 1.15 1.7 1.2 M1.8 1.2 Q1.85 1.15 1.8 1.15 L1.85 1.15 1.85 1.25 2.0 1.25 1.95 1.35 1.85 1.35 1.8 1.3 1.8 1.2" fill="#2f444b" fill-rule="evenodd" stroke="none"/>
    <path d="M1.85 1.35 L1.95 1.35 2.0 1.25 1.85 1.25 1.85 1.15 1.8 1.15 1.8 1.1 1.85 1.1 1.9 1.15 1.95 1.2 2.0 1.2 2.05 1.25 Q2.05 1.35 1.9 1.4 L1.7 1.35 1.65 1.4 1.55 1.4 1.55 1.35 1.6 1.3 1.65 1.3 1.75 1.3 1.85 1.35" fill="#27393f" fill-rule="evenodd" stroke="none"/>
    <path d="M1.7 1.2 Q1.75 1.15 1.8 1.15 1.85 1.15 1.8 1.2 L1.7 1.2" fill="#6b97b1" fill-rule="evenodd" stroke="none"/>
    <path d="M0.7 0.0 L0.8 0.05 0.85 0.0 0.85 0.0 0.9 0.05 0.95 0.1 0.95 0.15 0.95 0.25 0.9 0.15 Q0.85 0.1 0.8 0.1 L0.75 0.1 0.7 0.0" fill="#fbe6b3" fill-rule="evenodd" stroke="none"/>
    <path d="M0.7 0.55 L0.75 0.55 0.8 0.6 0.8 0.2 0.9 0.25 0.95 0.3 0.9 0.45 0.9 0.55 0.85 0.65 0.8 0.75 0.75 0.65 0.7 0.6 0.7 0.55" fill="#d4b58e" fill-rule="evenodd" stroke="none"/>
    <path d="M0.7 0.0 L0.7 -0.1 0.7 0.0 0.75 0.1 0.8 0.1 Q0.85 0.1 0.9 0.15 L0.95 0.25 0.95 0.3 0.9 0.25 0.8 0.2 0.8 0.6 0.75 0.55 0.7 0.55 0.7 0.35 0.65 0.2 0.7 0.0" fill="#e1cc9d" fill-rule="evenodd" stroke="none"/>
    <path d="M0.65 0.15 L0.65 0.2 0.7 0.35 0.7 0.55 0.65 0.55 0.6 0.6 0.3 0.5 0.2 0.6 0.25 0.7 0.2 0.7 0.15 0.65 0.15 0.55 0.2 0.5 0.25 0.4 0.4 0.45 0.55 0.4 0.65 0.5 0.65 0.15" fill="#26363b" fill-rule="evenodd" stroke="none"/>
    <path d="M0.2 0.15 L0.25 0.15 0.3 0.1 0.45 0.1 0.6 0.15 0.65 0.15 0.65 0.5 0.55 0.4 0.4 0.4 0.25 0.4 0.2 0.5 0.15 0.55 0.15 0.35 Q0.2 0.3 0.15 0.2 L0.05 0.1 0.05 0.05 0.15 0.1 0.2 0.15" fill="#78bacf" fill-rule="evenodd" stroke="none"/>
    <path d="M0.75 0.85 L0.75 1.3 0.75 1.55 0.7 1.85 0.7 1.75 0.7 1.7 0.7 1.65 0.7 1.45 Q0.75 1.35 0.65 1.3 0.6 1.2 0.6 1.15 L0.7 1.1 0.7 1.0 0.65 0.9 0.6 0.85 0.55 0.75 0.3 0.75 0.25 0.75 0.25 0.7 0.2 0.6 0.3 0.5 0.6 0.6 0.65 0.55 0.7 0.55 0.7 0.6 0.7 0.75 0.75 0.85" fill="#0f191e" fill-rule="evenodd" stroke="none"/>
    <path d="M0.95 0.3 L0.9 0.4 0.9 0.5 0.9 0.55 0.9 0.45 0.95 0.3" fill="#ad7b6f" fill-rule="evenodd" stroke="none"/>
    <path d="M0.9 0.55 L0.9 0.7 Q0.9 0.75 0.9 0.8 L0.85 0.85 0.75 0.85 0.7 0.75 0.7 0.6 0.75 0.65 0.8 0.75 Q0.85 0.75 0.85 0.7 L0.9 0.55" fill="#3e3029" fill-rule="evenodd" stroke="none"/>
    <path d="M0.05 0.1 L0.15 0.2 Q0.2 0.3 0.15 0.35 L0.15 0.55 0.15 0.6 0.05 0.6 0.1 0.5 0.1 0.4 0.0 0.2 -0.1 0.05 0.0 0.1 0.05 0.1" fill="#7ecbdf" fill-rule="evenodd" stroke="none"/>
    <path d="M-0.3 -0.2 Q0.0 -0.15 0.15 0.0 L0.2 0.05 0.2 0.15 0.15 0.1 0.05 0.05 -0.3 -0.2" fill="#6bb6d5" fill-rule="evenodd" stroke="none"/>
    <path d="M-0.4 -0.25 Q-0.35 -0.25 -0.3 -0.2 L0.05 0.05 0.05 0.1 0.0 0.1 -0.1 0.05 -0.4 -0.25" fill="#73c9e2" fill-rule="evenodd" stroke="none"/>
    <path d="M-0.1 0.05 L0.0 0.2 0.1 0.4 0.1 0.5 0.05 0.6 0.0 0.55 0.05 0.45 0.05 0.4 -0.2 0.05 -0.45 -0.25 -0.4 -0.25 -0.1 0.05" fill="#89e1f6" fill-rule="evenodd" stroke="none"/>
    <path d="M0.15 0.55 L0.15 0.65 0.2 0.7 0.2 0.8 0.15 0.9 0.1 0.85 0.1 0.7 0.15 0.6 0.15 0.55" fill="#8bdff6" fill-rule="evenodd" stroke="none"/>
    <path d="M0.05 0.6 L0.15 0.6 0.1 0.7 0.1 0.85 0.15 0.9 0.1 0.9 0.05 0.9 0.0 0.85 -0.15 0.8 -0.35 0.55 -0.55 0.35 -0.65 0.2 -0.75 0.1 -0.85 -0.1 -1.0 -0.25 -1.1 -0.4 -1.25 -0.55 -1.3 -0.65 -1.4 -0.75 -1.55 -0.9 -1.6 -0.9 -1.65 -0.8 -1.65 -0.75 -1.7 -0.75 -1.9 -0.9 Q-1.9 -0.95 -1.85 -1.0 L-1.7 -1.0 Q-1.65 -1.0 -1.65 -1.05 L-1.7 -1.1 -1.85 -1.4 -1.85 -1.45 -1.8 -1.4 -1.75 -1.3 -1.7 -1.25 -1.55 -0.95 -1.45 -0.85 -1.3 -0.7 -1.2 -0.6 -1.1 -0.45 Q-1.0 -0.45 -1.0 -0.5 L-0.95 -0.6 Q-0.95 -0.65 -0.9 -0.65 L-0.8 -0.7 -0.85 -0.8 -0.9 -0.9 Q-0.85 -0.9 -0.8 -0.8 L-0.75 -0.65 -0.75 -0.6 -0.7 -0.5 -0.85 -0.5 Q-0.95 -0.5 -0.95 -0.4 L-0.85 -0.4 Q-0.75 -0.4 -0.75 -0.45 L-0.6 -0.4 -0.5 -0.3 -0.45 -0.25 -0.2 0.05 0.05 0.4 0.05 0.45 0.0 0.55 0.05 0.6 M-0.15 0.8 L-0.15 0.8 M-0.75 -0.35 L-0.8 -0.3 -0.85 -0.3 -0.9 -0.35 Q-0.95 -0.35 -0.9 -0.3 L-0.9 -0.2 -0.85 -0.15 -0.65 0.15 -0.4 0.45 -0.3 0.5 -0.25 0.5 -0.2 0.6 -0.15 0.65 Q-0.05 0.7 -0.05 0.65 L-0.1 0.55 -0.05 0.45 -0.05 0.35 -0.15 0.25 Q-0.2 0.1 -0.25 0.1 L-0.35 0.05 -0.4 -0.05 -0.5 -0.05 Q-0.55 -0.05 -0.6 -0.05 L-0.55 -0.15 Q-0.5 -0.2 -0.5 -0.25 -0.5 -0.3 -0.6 -0.35 L-0.75 -0.35" fill="#9afcff" fill-rule="evenodd" stroke="none"/>
    <path d="M0.55 0.4 L0.4 0.45 0.25 0.4 0.4 0.4 0.55 0.4" fill="#5a8099" fill-rule="evenodd" stroke="none"/>
    <path d="M0.25 0.75 L0.3 0.75 0.3 0.8 0.35 0.85 Q0.4 0.85 0.5 0.9 L0.7 1.0 0.7 1.1 0.6 1.15 Q0.6 1.2 0.65 1.3 0.75 1.35 0.7 1.45 L0.65 1.4 0.65 1.35 Q0.55 1.25 0.4 1.2 L0.25 1.15 Q0.25 1.1 0.35 1.05 0.45 1.0 0.4 0.95 L0.3 0.9 0.2 0.9 0.25 0.8 0.25 0.75" fill="#112d3c" fill-rule="evenodd" stroke="none"/>
    <path d="M0.3 0.75 L0.55 0.75 0.6 0.85 0.65 0.9 0.7 1.0 0.5 0.9 Q0.4 0.85 0.35 0.85 L0.3 0.8 0.3 0.75" fill="#0c222e" fill-rule="evenodd" stroke="none"/>
    <path d="M0.2 0.7 L0.25 0.7 0.25 0.75 0.25 0.8 0.2 0.9 0.3 0.9 0.4 0.95 Q0.45 1.0 0.35 1.05 0.25 1.1 0.25 1.15 L0.4 1.2 0.4 1.25 0.1 1.15 Q0.1 1.25 0.15 1.25 L0.1 1.3 0.05 1.3 Q0.1 1.3 0.1 1.3 L0.05 1.25 0.0 1.2 0.0 1.15 -0.1 1.05 0.0 1.0 0.0 0.85 0.05 0.9 0.05 0.95 Q0.0 0.95 0.05 0.95 L0.1 1.0 Q0.15 1.05 0.2 1.05 L0.25 1.0 0.35 1.0 0.3 0.95 0.2 0.95 0.15 0.95 0.15 0.9 0.2 0.8 0.2 0.7" fill="#193a4d" fill-rule="evenodd" stroke="none"/>
    <path d="M0.05 0.9 L0.1 0.9 0.15 0.9 0.15 0.95 0.2 0.95 0.2 1.05 Q0.15 1.05 0.1 1.0 L0.05 0.95 Q0.0 0.95 0.05 0.95 L0.05 0.9" fill="#34607b" fill-rule="evenodd" stroke="none"/>
    <path d="M0.2 0.95 L0.3 0.95 0.35 1.0 0.25 1.0 0.2 1.05 0.2 0.95" fill="#264d65" fill-rule="evenodd" stroke="none"/>
    <path d="M0.15 1.25 Q0.1 1.25 0.1 1.15 L0.4 1.25 0.45 1.3 0.4 1.3 0.45 1.4 0.35 1.35 Q0.3 1.35 0.25 1.25 L0.2 1.3 0.15 1.25" fill="#2f5267" fill-rule="evenodd" stroke="none"/>
    <path d="M0.8 0.75 L0.85 0.65 0.9 0.55 0.85 0.7 Q0.85 0.75 0.8 0.75" fill="#b58274" fill-rule="evenodd" stroke="none"/>
    <path d="M0.9 0.8 Q0.9 0.9 0.9 1.1 L0.9 1.4 0.85 1.65 0.85 1.9 0.75 1.9 0.65 1.85 0.7 1.85 0.75 1.55 0.75 1.3 0.75 0.85 0.85 0.85 0.9 0.8" fill="#21201e" fill-rule="evenodd" stroke="none"/>
    <path d="M0.95 1.35 L0.95 1.2 Q0.95 1.1 0.95 1.05 1.05 1.1 1.05 1.2 L1.15 1.3 1.2 1.4 1.2 1.5 1.05 1.5 Q1.0 1.5 0.95 1.45 L0.95 1.35" fill="#102836" fill-rule="evenodd" stroke="none"/>
    <path d="M0.9 1.4 L0.95 1.35 0.95 1.45 Q1.0 1.5 1.05 1.5 L1.2 1.5 1.2 1.4 1.25 1.45 1.2 1.55 1.1 1.6 1.0 1.6 Q0.9 1.65 0.9 1.55 L0.9 1.4" fill="#0b1f2a" fill-rule="evenodd" stroke="none"/>
    <path d="M1.15 2.2 L1.1 2.2 1.05 2.15 0.95 2.1 0.95 2.05 0.9 2.0 0.85 2.05 0.85 1.9 0.85 1.65 0.9 1.4 0.9 1.55 Q0.9 1.65 1.0 1.6 L1.1 1.6 1.2 1.55 1.25 1.45 1.25 1.6 1.2 1.7 Q1.15 1.75 1.2 1.8 L1.25 1.95 1.2 2.05 1.15 2.2" fill="#0a1419" fill-rule="evenodd" stroke="none"/>
    <path d="M0.7 1.45 L0.7 1.65 0.5 1.6 0.45 1.55 0.4 1.45 Q0.35 1.4 0.3 1.4 L0.25 1.4 0.2 1.3 0.25 1.25 Q0.3 1.35 0.35 1.35 L0.45 1.4 0.55 1.4 0.6 1.35 0.5 1.3 0.45 1.3 0.4 1.25 0.4 1.2 Q0.55 1.25 0.65 1.35 L0.65 1.4 0.7 1.45" fill="#223b46" fill-rule="evenodd" stroke="none"/>
    <path d="M0.45 1.4 L0.4 1.3 0.45 1.3 0.5 1.3 0.6 1.35 0.55 1.4 0.45 1.4" fill="#5587a7" fill-rule="evenodd" stroke="none"/>
    <path d="M0.7 1.65 L0.7 1.7 0.6 1.7 0.5 1.7 0.35 1.65 Q0.25 1.65 0.2 1.6 L0.3 1.55 0.35 1.45 0.2 1.45 0.1 1.45 0.05 1.4 0.25 1.4 0.3 1.4 Q0.35 1.4 0.4 1.45 L0.45 1.55 0.5 1.6 0.7 1.65" fill="#1c2e35" fill-rule="evenodd" stroke="none"/>
    <path d="M0.7 1.7 L0.7 1.75 0.65 1.75 0.6 1.75 0.3 1.7 Q0.15 1.65 0.05 1.55 L0.0 1.45 0.1 1.45 0.2 1.45 0.35 1.45 0.3 1.55 0.2 1.6 Q0.25 1.65 0.35 1.65 L0.5 1.7 0.6 1.7 0.7 1.7" fill="#15242a" fill-rule="evenodd" stroke="none"/>
    <path d="M-2.2 1.4 L-2.2 1.35 Q-2.1 1.35 -2.05 1.4 -2.0 1.5 -2.0 1.55 L-1.85 1.65 -1.7 1.7 -1.65 1.75 -1.55 1.75 -1.2 1.85 Q-1.15 1.8 -1.15 1.75 L-1.2 1.7 -1.15 1.6 -1.05 1.55 -0.7 1.65 -0.4 1.65 -0.3 1.7 -0.15 1.7 -0.05 1.6 0.05 1.55 Q0.15 1.65 0.3 1.7 L0.6 1.75 0.65 1.75 0.7 1.75 0.65 1.8 0.6 1.8 0.4 1.8 0.2 1.75 0.1 1.75 0.0 1.75 0.0 1.8 -0.05 1.85 -0.15 1.9 -0.25 1.8 -0.8 1.65 -0.9 1.65 -1.0 1.7 -1.05 1.75 -1.05 1.85 -0.95 1.85 -0.8 1.8 -0.75 1.9 -0.75 1.95 -0.7 2.05 Q-0.7 2.1 -0.75 2.1 L-1.1 1.95 -1.3 1.9 -1.45 1.8 Q-1.5 1.8 -1.6 1.8 L-1.7 1.85 -1.75 1.75 -1.8 1.7 -2.1 1.7 Q-2.05 1.65 -2.1 1.55 L-2.2 1.4" fill="#0a1821" fill-rule="evenodd" stroke="none"/>
    <path d="M0.25 2.2 L-0.9 2.2 Q-0.95 2.1 -1.1 2.05 L-1.3 2.0 Q-1.4 1.9 -1.45 1.9 L-1.65 1.9 -1.85 1.85 -2.05 1.85 -2.2 1.9 -2.2 1.4 -2.1 1.55 Q-2.05 1.65 -2.1 1.7 L-1.8 1.7 -1.75 1.75 -1.7 1.85 -1.6 1.8 Q-1.5 1.8 -1.45 1.8 L-1.3 1.9 -1.1 1.95 -0.75 2.1 Q-0.7 2.1 -0.7 2.05 L-0.75 1.95 -0.75 1.9 -0.8 1.8 -0.95 1.85 -1.05 1.85 -1.05 1.75 -1.0 1.7 -0.9 1.65 -0.8 1.65 -0.25 1.8 -0.15 1.9 -0.05 1.85 0.0 1.8 0.0 1.75 0.1 1.75 0.2 1.75 0.4 1.8 0.6 1.8 0.65 1.8 0.7 1.75 0.7 1.85 0.65 1.85 0.65 1.9 0.5 1.9 0.35 1.9 0.2 1.85 Q0.1 1.85 0.05 1.95 L0.15 2.05 0.25 2.2" fill="#061016" fill-rule="evenodd" stroke="none"/>
    <path d="M0.15 1.25 L0.2 1.3 0.25 1.4 0.05 1.4 0.0 1.35 0.0 1.3 -0.2 1.35 Q-0.2 1.45 -0.3 1.5 L-0.5 1.5 -0.35 1.45 Q-0.3 1.45 -0.25 1.4 -0.25 1.35 -0.3 1.35 L-0.4 1.35 -0.5 1.3 -0.55 1.35 -0.55 1.4 Q-0.55 1.45 -0.6 1.45 L-0.7 1.35 Q-0.8 1.25 -0.85 1.3 L-0.85 1.35 -0.85 1.4 -0.75 1.5 -0.6 1.55 Q-0.65 1.6 -0.75 1.55 L-0.9 1.4 -0.9 1.35 -1.0 1.25 -1.15 1.35 Q-1.2 1.4 -1.2 1.5 -1.2 1.55 -1.3 1.55 L-1.4 1.55 -1.5 1.6 -1.55 1.55 -1.65 1.55 -1.8 1.55 Q-1.8 1.5 -1.7 1.45 L-1.6 1.5 -1.6 1.45 -1.65 1.45 -1.75 1.35 -1.8 1.3 -2.0 1.25 -2.1 1.15 -2.0 1.15 -1.95 1.15 -1.85 1.2 -1.8 1.2 -1.75 1.25 -1.65 1.35 -1.6 1.35 -1.45 1.4 -1.5 1.45 -1.55 1.55 -1.45 1.5 -1.35 1.45 -1.35 1.35 -1.3 1.3 -1.25 1.2 -1.15 1.15 -1.15 1.15 -1.0 1.2 -0.85 1.2 -0.75 1.0 -0.75 0.9 -0.8 0.85 -0.7 0.8 -0.6 0.7 Q-0.55 0.75 -0.65 0.8 -0.75 0.85 -0.75 0.85 L-0.7 0.95 -0.65 1.05 -0.7 1.15 -0.7 1.25 -0.6 1.25 -0.45 1.25 -0.35 1.3 -0.25 1.3 Q-0.15 1.3 -0.15 1.25 L-0.15 1.1 -0.15 1.2 -0.1 1.3 0.0 1.3 0.05 1.3 0.1 1.3 0.15 1.25 M-0.6 0.7 L-0.6 0.7 M-2.1 1.15 L-2.1 1.15" fill="#143244" fill-rule="evenodd" stroke="none"/>
    <path d="M0.05 1.3 L0.0 1.3 -0.1 1.3 -0.05 1.2 0.0 1.15 0.0 1.2 0.05 1.25 0.1 1.3 Q0.1 1.3 0.05 1.3" fill="#31556e" fill-rule="evenodd" stroke="none"/>
    <path d="M-2.2 1.2 L-2.2 1.05 -2.1 1.15 -2.0 1.25 -1.8 1.3 -1.75 1.35 -1.65 1.45 -1.6 1.45 -1.6 1.5 -1.7 1.45 Q-1.8 1.5 -1.8 1.55 L-1.65 1.55 -1.55 1.55 -1.5 1.6 -1.4 1.55 -1.3 1.55 Q-1.2 1.55 -1.2 1.5 -1.2 1.4 -1.15 1.35 L-1.0 1.25 -0.9 1.35 -0.9 1.4 -0.75 1.55 Q-0.65 1.6 -0.6 1.55 L-0.5 1.5 -0.3 1.5 Q-0.2 1.45 -0.2 1.35 L0.0 1.3 0.0 1.35 0.05 1.4 0.1 1.45 0.0 1.45 -0.15 1.45 Q-0.25 1.5 -0.15 1.6 L-0.2 1.65 -0.3 1.65 -0.3 1.6 -0.35 1.55 -0.5 1.55 -0.7 1.6 -0.8 1.55 Q-0.8 1.55 -0.9 1.5 L-0.95 1.5 -1.05 1.55 -1.15 1.6 -1.2 1.7 -1.2 1.8 -1.3 1.75 -1.3 1.7 -1.25 1.65 -1.35 1.65 -1.5 1.65 Q-1.55 1.7 -1.6 1.65 -1.6 1.6 -1.6 1.6 L-1.65 1.6 Q-1.75 1.65 -1.8 1.6 L-1.9 1.55 -1.9 1.45 Q-1.9 1.4 -1.95 1.4 L-2.05 1.3 -2.2 1.2" fill="#0f2a39" fill-rule="evenodd" stroke="none"/>
    <path d="M0.0 1.45 L0.05 1.55 -0.05 1.6 -0.15 1.7 -0.3 1.7 -0.4 1.65 -0.7 1.65 -1.05 1.55 -0.95 1.5 -0.9 1.5 Q-0.8 1.55 -0.8 1.55 L-0.7 1.6 -0.5 1.55 -0.35 1.55 -0.3 1.6 -0.3 1.65 -0.2 1.65 -0.15 1.6 Q-0.25 1.5 -0.15 1.45 L0.0 1.45" fill="#0b212c" fill-rule="evenodd" stroke="none"/>
    <path d="M0.65 1.85 L0.75 1.9 0.85 1.9 0.85 2.05 0.6 2.05 0.4 2.1 Q0.4 2.05 0.5 2.0 L0.65 1.9 0.65 1.85" fill="#36241c" fill-rule="evenodd" stroke="none"/>
    <path d="M1.1 2.2 L0.25 2.2 0.15 2.05 0.05 1.95 Q0.1 1.85 0.2 1.85 L0.35 1.9 0.5 1.9 0.65 1.9 0.5 2.0 Q0.4 2.05 0.4 2.1 L0.65 2.1 0.75 2.05 0.85 2.05 0.9 2.0 0.95 2.05 0.95 2.1 1.05 2.15 1.1 2.2" fill="#060c0f" fill-rule="evenodd" stroke="none"/>
    <path d="M0.4 2.1 L0.6 2.05 0.85 2.05 0.75 2.05 0.65 2.1 0.4 2.1" fill="#211713" fill-rule="evenodd" stroke="none"/>
    <path d="M1.9 2.0 L1.85 2.1 1.75 2.05 Q1.7 2.0 1.75 1.95 L1.8 1.8 Q1.8 1.8 1.85 1.85 L1.85 1.9 1.9 2.0" fill="#11242e" fill-rule="evenodd" stroke="none"/>
    <path d="M1.45 2.2 L1.35 2.2 1.35 2.1 1.3 2.05 Q1.3 2.0 1.35 2.0 1.4 2.0 1.45 2.1 L1.45 2.2" fill="#634133" fill-rule="evenodd" stroke="none"/>
    <path d="M1.35 2.2 L1.25 2.2 1.25 2.05 1.3 1.95 1.4 2.0 Q1.45 2.0 1.45 2.1 1.4 2.0 1.35 2.0 1.3 2.0 1.3 2.05 L1.35 2.1 1.35 2.2" fill="#3d291f" fill-rule="evenodd" stroke="none"/>
    <path d="M-1.7 -1.25 L-1.75 -1.3 -1.75 -1.45 -1.8 -1.5 -1.9 -1.5 -2.0 -1.65 Q-1.95 -1.7 -2.0 -1.75 L-2.05 -1.8 -2.05 -1.9 -2.1 -1.95 -2.1 -2.0 -2.05 -2.05 Q-1.95 -2.05 -1.9 -2.15 L-1.9 -2.15 -1.85 -2.15 -1.8 -2.1 -1.8 -2.05 -1.75 -2.0 -1.7 -2.0 -1.75 -1.9 -1.7 -1.85 -1.5 -1.7 -1.45 -1.6 -1.4 -1.5 -1.3 -1.45 -1.25 -1.35 -1.2 -1.35 -1.1 -1.35 Q-1.05 -1.3 -1.05 -1.2 L-1.05 -1.05 -1.05 -0.9 Q-1.1 -0.85 -1.2 -0.85 L-1.3 -0.8 -1.4 -0.9 -1.5 -1.0 -1.6 -1.15 -1.7 -1.25 M-1.9 -1.5 L-1.9 -1.5" fill="#fcffff" fill-rule="evenodd" stroke="none"/>
    <path d="M-2.2 -2.05 L-2.2 -2.1 -2.1 -2.15 -2.05 -2.15 -2.05 -2.1 -2.0 -2.1 -1.9 -2.15 Q-1.95 -2.05 -2.05 -2.05 L-2.1 -2.0 -2.1 -1.95 -2.05 -1.9 -2.05 -1.8 -2.1 -1.95 -2.2 -2.05" fill="#409cfa" fill-rule="evenodd" stroke="none"/>
    <path d="M-2.2 -2.1 L-2.2 -2.2 -1.9 -2.2 -1.9 -2.15 -2.0 -2.1 -2.05 -2.1 -2.05 -2.15 -2.1 -2.15 -2.2 -2.1 M-1.9 -2.15 L-1.9 -2.15" fill="#317cd0" fill-rule="evenodd" stroke="none"/>
    <path d="M-2.2 -1.95 L-2.2 -2.05 -2.1 -1.95 -2.05 -1.8 -2.0 -1.75 Q-1.95 -1.7 -2.0 -1.65 L-2.1 -1.8 -2.2 -1.95 M-2.0 -1.65 L-2.0 -1.65" fill="#357eca" fill-rule="evenodd" stroke="none"/>
    <path d="M-2.2 -1.45 L-2.2 -1.6 -2.15 -1.55 -2.1 -1.55 -2.1 -1.65 -2.05 -1.6 -2.0 -1.55 -2.1 -1.45 -2.2 -1.45 M-2.1 -1.65 L-2.1 -1.65" fill="#74ffff" fill-rule="evenodd" stroke="none"/>
    <path d="M-2.2 -1.6 L-2.2 -1.7 -2.15 -1.65 -2.1 -1.65 -2.1 -1.55 -2.15 -1.55 -2.2 -1.6" fill="#abc5fc" fill-rule="evenodd" stroke="none"/>
    <path d="M-2.2 -1.7 L-2.2 -1.95 -2.1 -1.8 -2.0 -1.65 -2.05 -1.65 -2.1 -1.65 -2.1 -1.65 -2.15 -1.65 -2.2 -1.7" fill="#183d63" fill-rule="evenodd" stroke="none"/>
    <path d="M-2.0 -1.65 L-1.9 -1.5 -2.0 -1.6 Q-2.0 -1.65 -2.05 -1.6 L-2.1 -1.65 -2.05 -1.65 -2.0 -1.65 -2.0 -1.65" fill="#ccf7ff" fill-rule="evenodd" stroke="none"/>
    <path d="M-2.2 -1.0 L-2.2 -1.45 -2.1 -1.45 -2.0 -1.55 -2.05 -1.6 Q-2.0 -1.65 -2.0 -1.6 L-1.9 -1.5 -1.9 -1.5 -1.95 -1.5 -2.0 -1.4 -2.0 -1.25 -1.9 -1.15 -1.75 -1.1 -1.75 -1.15 -1.8 -1.25 -1.9 -1.45 -1.9 -1.5 -1.85 -1.45 -1.85 -1.4 -1.7 -1.1 Q-1.65 -1.05 -1.7 -1.05 L-1.75 -1.05 -1.9 -1.05 -1.95 -0.95 -2.05 -0.85 -2.05 -0.85 -2.1 -0.9 -2.1 -1.0 -2.2 -1.0" fill="#89ffff" fill-rule="evenodd" stroke="none"/>
    <path d="M-2.2 -0.75 L-2.2 -0.9 -2.1 -0.9 -2.05 -0.85 -2.05 -0.85 -1.95 -0.8 -1.95 -0.75 -2.0 -0.75 -2.2 -0.75" fill="#acffff" fill-rule="evenodd" stroke="none"/>
    <path d="M-2.2 -0.9 L-2.2 -1.0 -2.1 -1.0 -2.1 -0.9 -2.2 -0.9" fill="#d2ffff" fill-rule="evenodd" stroke="none"/>
    <path d="M-2.2 -0.3 L-2.2 -0.5 -2.15 -0.5 -2.15 -0.4 -2.1 -0.35 -2.2 -0.3" fill="#30669d" fill-rule="evenodd" stroke="none"/>
    <path d="M-2.2 -0.5 L-2.2 -0.75 -2.0 -0.75 -2.0 -0.65 Q-2.05 -0.55 -2.1 -0.55 L-2.0 -0.4 Q-1.95 -0.35 -1.9 -0.4 L-1.8 -0.35 -1.75 -0.35 -1.75 -0.3 Q-1.7 -0.3 -1.7 -0.25 L-1.7 -0.1 -1.65 0.0 Q-1.6 0.05 -1.65 0.1 L-1.65 0.15 -1.55 0.15 -1.5 0.25 -1.65 0.2 -1.7 0.2 -1.8 0.2 -1.8 0.15 -1.75 0.1 -1.9 -0.1 -2.05 -0.3 Q-2.0 -0.3 -2.05 -0.3 L-2.05 -0.35 -2.1 -0.4 -2.15 -0.5 -2.2 -0.5" fill="#f3ffff" fill-rule="evenodd" stroke="none"/>
    <path d="M-2.15 -0.5 L-2.1 -0.4 -2.05 -0.35 -2.1 -0.35 -2.15 -0.4 -2.15 -0.5" fill="#669ee7" fill-rule="evenodd" stroke="none"/>
    <path d="M-2.1 -0.35 L-2.05 -0.35 -2.05 -0.3 Q-2.0 -0.3 -2.05 -0.3 L-1.9 -0.1 -1.75 0.1 -1.8 0.15 -1.8 0.2 -1.85 0.2 -1.9 0.2 Q-1.85 0.15 -1.9 0.1 L-1.95 -0.05 -2.05 -0.15 -2.1 -0.25 -2.1 -0.35 M-1.9 0.2 L-1.9 0.2" fill="#c6fcff" fill-rule="evenodd" stroke="none"/>
    <path d="M-2.2 -0.2 L-2.2 -0.3 -2.1 -0.35 -2.1 -0.25 -2.2 -0.2" fill="#7dace9" fill-rule="evenodd" stroke="none"/>
    <path d="M-2.2 0.0 L-2.2 -0.2 -2.1 -0.25 -2.05 -0.15 -1.95 -0.05 -1.9 0.1 Q-1.85 0.15 -1.9 0.2 L-2.0 0.2 -2.05 0.2 -2.0 0.15 -2.0 0.15 -1.95 0.1 Q-1.95 0.05 -2.0 0.05 -2.0 0.05 -2.05 0.05 L-2.2 0.0" fill="#99eefc" fill-rule="evenodd" stroke="none"/>
    <path d="M-0.4 -2.1 Q-0.2 -2.0 -0.15 -1.85 L-0.2 -1.85 -0.25 -1.95 -0.35 -2.05 -0.4 -2.1 -0.4 -2.1" fill="#3888bc" fill-rule="evenodd" stroke="none"/>
    <path d="M-0.4 -2.1 L-0.4 -2.1 -0.45 -2.1 -0.55 -2.1 -0.65 -2.1 -0.75 -2.05 -0.75 -2.15 -0.6 -2.15 -0.4 -2.1" fill="#3394de" fill-rule="evenodd" stroke="none"/>
    <path d="M-0.4 -2.1 L-0.35 -2.05 -0.45 -2.05 -0.55 -1.95 -0.7 -2.0 -0.75 -2.05 -0.65 -2.1 -0.55 -2.1 -0.45 -2.1 -0.4 -2.1" fill="#44b4fa" fill-rule="evenodd" stroke="none"/>
    <path d="M-0.5 -2.2 L-0.4 -2.1 -0.6 -2.15 -0.75 -2.15 -0.75 -2.05 -0.7 -2.0 -0.75 -1.95 -0.85 -1.95 -0.85 -2.0 Q-0.75 -2.0 -0.8 -2.05 L-0.85 -2.2 -0.5 -2.2" fill="#2977b3" fill-rule="evenodd" stroke="none"/>
    <path d="M-1.55 -2.2 L-1.2 -2.2 -1.15 -2.1 -1.0 -2.05 -0.95 -2.0 Q-0.9 -2.0 -0.9 -2.05 -0.85 -2.05 -0.85 -2.1 L-0.85 -2.2 -0.85 -2.2 -0.8 -2.05 Q-0.75 -2.0 -0.85 -2.0 L-0.95 -2.0 -1.05 -1.95 -1.15 -2.05 Q-1.25 -2.05 -1.3 -2.1 L-1.35 -2.1 -1.45 -2.1 -1.5 -2.1 -1.55 -2.15 -1.55 -2.05 Q-1.6 -2.0 -1.7 -2.0 L-1.7 -2.15 -1.6 -2.15 -1.55 -2.2 M-1.7 -2.0 L-1.7 -2.0" fill="#1a4672" fill-rule="evenodd" stroke="none"/>
    <path d="M-0.85 -1.95 L-1.05 -1.95 -0.95 -2.0 -0.85 -2.0 -0.85 -1.95" fill="#6497dc" fill-rule="evenodd" stroke="none"/>
    <path d="M-0.85 -1.95 L-0.75 -1.95 -0.75 -1.9 -1.1 -1.9 -1.2 -2.0 Q-1.25 -2.05 -1.3 -2.05 L-1.3 -2.1 Q-1.25 -2.05 -1.15 -2.05 L-1.05 -1.95 -0.85 -1.95" fill="#bae9fe" fill-rule="evenodd" stroke="none"/>
    <path d="M-1.2 -2.2 L-0.85 -2.2 -0.85 -2.1 Q-0.85 -2.05 -0.9 -2.05 -0.9 -2.0 -0.95 -2.0 L-1.0 -2.05 -1.15 -2.1 -1.2 -2.2" fill="#103656" fill-rule="evenodd" stroke="none"/>
    <path d="M-1.3 -2.05 Q-1.25 -2.05 -1.2 -2.0 L-1.1 -1.9 -0.75 -1.9 -0.7 -1.9 Q-0.65 -1.75 -0.5 -1.7 L-0.5 -1.65 -0.6 -1.65 -0.65 -1.7 -0.7 -1.6 -0.7 -1.55 -0.8 -1.4 -0.9 -1.35 Q-1.0 -1.3 -1.0 -1.4 L-1.1 -1.45 -1.15 -1.5 -1.25 -1.5 -1.4 -1.55 -1.45 -1.65 -1.5 -1.7 Q-1.5 -1.8 -1.6 -1.85 L-1.55 -1.85 -1.5 -1.8 -1.5 -2.0 -1.4 -2.0 -1.35 -2.0 -1.45 -2.05 -1.4 -2.05 -1.3 -2.05 M-0.85 -1.55 Q-0.8 -1.6 -0.8 -1.65 L-0.75 -1.75 -0.75 -1.75 -0.8 -1.75 -0.85 -1.85 -0.9 -1.9 -1.05 -1.9 Q-1.2 -1.85 -1.25 -1.9 L-1.3 -1.9 -1.4 -1.95 -1.4 -1.85 -1.3 -1.75 -1.25 -1.7 -1.35 -1.65 -1.3 -1.6 -1.25 -1.6 -1.25 -1.65 -1.2 -1.65 -1.15 -1.6 -1.1 -1.65 -1.05 -1.6 -1.0 -1.6 -0.95 -1.6 -0.9 -1.55 -0.85 -1.55" fill="#8afeff" fill-rule="evenodd" stroke="none"/>
    <path d="M-0.9 -1.35 L-0.8 -1.4 -0.7 -1.55 -0.7 -1.6 -0.65 -1.7 -0.6 -1.65 -0.5 -1.65 Q-0.4 -1.55 -0.4 -1.45 L-0.45 -1.4 -0.45 -1.4 -0.35 -1.35 -0.35 -1.3 -0.35 -1.15 -0.4 -1.15 -0.45 -1.15 -0.45 -1.15 -0.5 -1.15 -0.55 -1.25 -0.55 -1.3 Q-0.55 -1.35 -0.55 -1.35 L-0.65 -1.3 -0.85 -1.35 -0.9 -1.35" fill="#6bf7fe" fill-rule="evenodd" stroke="none"/>
    <path d="M-0.5 -1.7 L-0.35 -1.5 -0.2 -1.25 -0.05 -1.05 -0.1 -1.1 -0.2 -1.2 -0.35 -1.3 -0.35 -1.35 -0.4 -1.45 Q-0.4 -1.55 -0.5 -1.65 L-0.5 -1.7" fill="#9cf7ff" fill-rule="evenodd" stroke="none"/>
    <path d="M-0.85 -1.55 L-0.9 -1.55 -0.95 -1.6 -1.0 -1.6 -1.05 -1.6 -1.1 -1.65 -1.15 -1.6 -1.2 -1.65 -1.25 -1.65 -1.25 -1.6 -1.3 -1.6 -1.35 -1.65 -1.25 -1.7 -1.3 -1.75 -1.4 -1.85 -1.4 -1.95 -1.3 -1.9 -1.25 -1.9 Q-1.2 -1.85 -1.05 -1.9 L-0.9 -1.9 -0.85 -1.85 -0.8 -1.75 -0.75 -1.75 -0.75 -1.75 -0.8 -1.65 Q-0.8 -1.6 -0.85 -1.55" fill="#96ffff" fill-rule="evenodd" stroke="none"/>
    <path d="M-0.85 -1.35 L-0.85 -1.3 -0.95 -1.3 Q-1.0 -1.3 -1.05 -1.35 L-1.15 -1.45 Q-1.15 -1.35 -1.25 -1.35 L-1.3 -1.45 -1.4 -1.5 -1.4 -1.55 -1.25 -1.5 -1.15 -1.5 -1.1 -1.45 -1.0 -1.4 Q-1.0 -1.3 -0.9 -1.35 L-0.85 -1.35" fill="#9efcff" fill-rule="evenodd" stroke="none"/>
    <path d="M-0.85 -1.3 L-0.85 -1.35 -0.65 -1.3 -0.55 -1.3 -0.55 -1.25 -0.6 -1.2 -0.55 -1.05 -0.6 -1.05 -0.7 -1.05 Q-0.75 -1.05 -0.75 -1.1 L-0.85 -1.15 -0.9 -1.1 -0.9 -1.15 -0.85 -1.2 -0.85 -1.3 M-0.6 -1.2 L-0.7 -1.15 -0.7 -1.1 -0.6 -1.05 -0.65 -1.15 -0.6 -1.2 M-0.8 -1.3 L-0.75 -1.25 -0.7 -1.2 Q-0.65 -1.25 -0.7 -1.3 L-0.8 -1.3" fill="#3c3737" fill-rule="evenodd" stroke="none"/>
    <path d="M-0.8 -1.3 L-0.7 -1.3 Q-0.65 -1.25 -0.7 -1.2 L-0.75 -1.25 -0.8 -1.3" fill="#ebbe8f" fill-rule="evenodd" stroke="none"/>
    <path d="M-0.85 -1.3 L-0.85 -1.2 -0.9 -1.15 -0.9 -1.1 -1.0 -1.1 -1.05 -1.1 -1.0 -1.2 -0.95 -1.3 -0.85 -1.3" fill="#e0c7f9" fill-rule="evenodd" stroke="none"/>
    <path d="M-0.55 -1.3 L-0.65 -1.3 -0.55 -1.35 Q-0.55 -1.35 -0.55 -1.3" fill="#274e5b" fill-rule="evenodd" stroke="none"/>
    <path d="M-0.4 -1.45 L-0.35 -1.35 -0.45 -1.4 -0.45 -1.4 -0.4 -1.45" fill="#72dfff" fill-rule="evenodd" stroke="none"/>
    <path d="M-1.3 -2.1 L-1.3 -2.05 -1.4 -2.05 -1.45 -2.1 -1.35 -2.1 -1.3 -2.1" fill="#3767a3" fill-rule="evenodd" stroke="none"/>
    <path d="M-1.45 -2.1 L-1.4 -2.05 -1.45 -2.05 -1.55 -2.0 -1.6 -1.95 -1.7 -2.0 Q-1.6 -2.0 -1.55 -2.05 L-1.55 -2.15 -1.5 -2.1 -1.45 -2.1" fill="#9dbaf6" fill-rule="evenodd" stroke="none"/>
    <path d="M-1.6 -1.95 L-1.55 -2.0 -1.45 -2.05 -1.35 -2.0 -1.4 -2.0 -1.5 -2.0 -1.5 -1.8 -1.55 -1.85 -1.6 -1.85 -1.65 -1.85 Q-1.7 -1.95 -1.6 -1.95" fill="#73ffff" fill-rule="evenodd" stroke="none"/>
    <path d="M-1.7 -2.2 L-1.55 -2.2 -1.6 -2.15 -1.7 -2.15 -1.7 -2.2" fill="#96a1f4" fill-rule="evenodd" stroke="none"/>
    <path d="M-1.75 -2.2 L-1.7 -2.2 -1.7 -2.15 -1.7 -2.0 -1.8 -2.05 -1.8 -2.1 -1.8 -2.1 -1.75 -2.1 -1.75 -2.2" fill="#5471b3" fill-rule="evenodd" stroke="none"/>
    <path d="M-1.9 -2.2 L-1.8 -2.2 -1.8 -2.1 -1.85 -2.15 -1.9 -2.15 -1.9 -2.2 M-1.8 -2.1 L-1.8 -2.1" fill="#cfd6ff" fill-rule="evenodd" stroke="none"/>
    <path d="M-1.7 -2.0 L-1.6 -1.95 Q-1.7 -1.95 -1.65 -1.85 L-1.7 -1.9 -1.7 -2.0 -1.7 -2.0 -1.75 -2.0 -1.8 -2.05 -1.7 -2.0" fill="#9fecff" fill-rule="evenodd" stroke="none"/>
    <path d="M-1.7 -2.0 L-1.7 -1.9 -1.65 -1.85 -1.6 -1.85 Q-1.5 -1.8 -1.5 -1.7 L-1.7 -1.85 -1.75 -1.9 -1.7 -2.0" fill="#bdffff" fill-rule="evenodd" stroke="none"/>
    <path d="M-1.8 -2.2 L-1.75 -2.2 -1.75 -2.1 -1.8 -2.1 -1.8 -2.2" fill="#929df3" fill-rule="evenodd" stroke="none"/>
    <path d="M-1.9 -1.45 L-1.8 -1.25 -1.75 -1.15 -1.75 -1.1 -1.9 -1.15 -2.0 -1.25 -2.0 -1.4 -1.95 -1.5 -1.9 -1.5 -1.9 -1.45" fill="#7affff" fill-rule="evenodd" stroke="none"/>
    <path d="M-1.75 -1.3 L-1.8 -1.4 -1.85 -1.45 -1.9 -1.5 -1.8 -1.5 -1.75 -1.45 -1.75 -1.3" fill="#cdffff" fill-rule="evenodd" stroke="none"/>
    <path d="M-1.4 -1.55 L-1.4 -1.5 -1.45 -1.6 -1.5 -1.7 -1.45 -1.65 -1.4 -1.55" fill="#bbffff" fill-rule="evenodd" stroke="none"/>
    <path d="M-0.9 -0.9 L-0.85 -0.8 -0.8 -0.7 -0.9 -0.65 Q-0.95 -0.65 -0.95 -0.6 L-1.0 -0.5 Q-1.0 -0.45 -1.1 -0.45 L-1.2 -0.6 -1.3 -0.7 -1.25 -0.7 -1.2 -0.65 -1.1 -0.6 -1.0 -0.65 -0.9 -0.7 Q-0.85 -0.8 -0.9 -0.85 L-1.0 -1.0 -1.05 -1.05 -1.05 -1.05 -1.05 -1.2 Q-1.05 -1.3 -1.1 -1.35 L-1.2 -1.35 -1.25 -1.35 Q-1.15 -1.35 -1.15 -1.45 L-1.05 -1.35 Q-1.0 -1.3 -0.95 -1.3 L-1.0 -1.2 -1.05 -1.1 -1.0 -1.1 -0.9 -0.9" fill="#afffff" fill-rule="evenodd" stroke="none"/>
    <path d="M-1.05 -1.05 L-1.05 -1.05 -1.0 -1.0 -1.0 -0.9 -0.95 -0.8 -1.0 -0.75 -1.15 -0.7 Q-1.2 -0.7 -1.25 -0.7 L-1.3 -0.8 -1.2 -0.85 Q-1.1 -0.85 -1.05 -0.9 L-1.05 -1.05" fill="#dbffff" fill-rule="evenodd" stroke="none"/>
    <path d="M-1.4 -0.75 L-1.3 -0.65 -1.25 -0.55 -1.1 -0.4 -1.0 -0.25 -1.15 -0.25 -1.35 -0.25 -1.5 -0.25 -1.65 -0.4 -1.75 -0.45 -1.75 -0.55 -1.8 -0.6 -1.65 -0.6 -1.6 -0.7 -1.5 -0.8 -1.4 -0.75 M-1.7 -0.5 Q-1.7 -0.45 -1.65 -0.45 L-1.6 -0.45 Q-1.55 -0.35 -1.5 -0.4 -1.4 -0.4 -1.4 -0.5 L-1.55 -0.5 -1.7 -0.5" fill="#84feff" fill-rule="evenodd" stroke="none"/>
    <path d="M-1.3 -0.7 L-1.45 -0.85 -1.55 -0.95 -1.7 -1.25 -1.6 -1.15 -1.5 -1.0 -1.4 -0.9 -1.3 -0.8 -1.25 -0.7 Q-1.2 -0.7 -1.15 -0.7 L-1.0 -0.75 -0.95 -0.8 -1.0 -0.9 -1.0 -1.0 -0.9 -0.85 Q-0.85 -0.8 -0.9 -0.7 L-1.0 -0.65 -1.1 -0.6 -1.2 -0.65 -1.25 -0.7 -1.3 -0.7" fill="#c4ffff" fill-rule="evenodd" stroke="none"/>
    <path d="M-1.7 -1.1 L-1.65 -1.05 Q-1.65 -1.0 -1.7 -1.0 L-1.85 -1.0 Q-1.9 -0.95 -1.9 -0.9 L-1.7 -0.75 -1.65 -0.75 -1.65 -0.8 -1.6 -0.9 -1.55 -0.9 -1.4 -0.75 -1.5 -0.8 -1.6 -0.7 -1.65 -0.6 -1.8 -0.6 -1.75 -0.55 -1.75 -0.45 -1.65 -0.4 -1.7 -0.4 -1.75 -0.4 -1.8 -0.45 -1.8 -0.55 -1.85 -0.6 -1.9 -0.65 -1.95 -0.65 -1.95 -0.7 -2.0 -0.75 -1.95 -0.75 -1.95 -0.8 -2.05 -0.85 -1.95 -0.95 -1.9 -1.05 -1.75 -1.05 -1.7 -1.05 Q-1.65 -1.05 -1.7 -1.1" fill="#94ffff" fill-rule="evenodd" stroke="none"/>
    <path d="M-1.9 -0.4 Q-1.95 -0.35 -2.0 -0.4 L-2.1 -0.55 Q-2.05 -0.55 -2.0 -0.65 L-2.0 -0.75 -1.95 -0.7 -1.95 -0.65 -1.9 -0.65 -1.85 -0.6 Q-1.9 -0.6 -1.95 -0.55 L-1.95 -0.45 -1.9 -0.4" fill="#ceffff" fill-rule="evenodd" stroke="none"/>
    <path d="M-1.65 -0.4 L-1.5 -0.25 -1.45 -0.2 -1.4 -0.15 -1.35 -0.05 -1.25 0.05 -1.1 0.15 -1.05 0.35 -0.95 0.5 -0.9 0.65 -0.9 0.7 -0.9 0.65 Q-0.95 0.65 -0.95 0.7 L-1.0 0.7 -1.05 0.7 -1.1 0.65 -1.15 0.65 -1.15 0.6 -1.05 0.6 Q-1.0 0.55 -1.05 0.5 L-1.2 0.25 -1.35 0.05 -1.45 -0.05 -1.5 -0.2 -1.6 -0.25 -1.65 -0.3 -1.7 -0.35 -1.7 -0.4 -1.65 -0.4" fill="#9efafe" fill-rule="evenodd" stroke="none"/>
    <path d="M-1.65 0.2 L-1.5 0.25 -1.55 0.15 -1.65 0.15 -1.65 0.1 Q-1.6 0.05 -1.65 0.0 L-1.7 -0.1 -1.7 -0.25 Q-1.7 -0.3 -1.75 -0.3 L-1.75 -0.35 -1.7 -0.35 -1.65 -0.3 -1.55 -0.1 -1.4 0.1 -1.3 0.2 Q-1.25 0.25 -1.3 0.3 L-1.3 0.35 -1.4 0.35 -1.4 0.5 -1.5 0.5 -1.6 0.4 -1.55 0.4 -1.55 0.4 -1.6 0.3 -1.65 0.2" fill="#d8ffff" fill-rule="evenodd" stroke="none"/>
    <path d="M-1.75 -0.35 L-1.8 -0.35 -1.9 -0.4 -1.95 -0.45 -1.95 -0.55 Q-1.9 -0.6 -1.85 -0.6 L-1.8 -0.55 -1.8 -0.45 -1.75 -0.4 -1.7 -0.4 -1.7 -0.35 -1.75 -0.35" fill="#b6ffff" fill-rule="evenodd" stroke="none"/>
    <path d="M-1.7 -0.5 L-1.55 -0.5 -1.4 -0.5 Q-1.4 -0.4 -1.5 -0.4 -1.55 -0.35 -1.6 -0.45 L-1.65 -0.45 Q-1.7 -0.45 -1.7 -0.5" fill="#74feff" fill-rule="evenodd" stroke="none"/>
    <path d="M-1.65 -0.3 L-1.6 -0.25 -1.5 -0.2 -1.45 -0.05 -1.35 0.05 -1.2 0.25 -1.05 0.5 Q-1.0 0.55 -1.05 0.6 L-1.15 0.6 Q-1.15 0.55 -1.2 0.45 -1.3 0.4 -1.4 0.35 L-1.3 0.35 -1.3 0.3 Q-1.25 0.25 -1.3 0.2 L-1.4 0.1 -1.55 -0.1 -1.65 -0.3" fill="#bcfeff" fill-rule="evenodd" stroke="none"/>
    <path d="M-1.35 -0.05 L-1.4 -0.15 -1.3 -0.1 -1.35 -0.05" fill="#8dedfc" fill-rule="evenodd" stroke="none"/>
    <path d="M-1.3 -0.1 L-1.2 -0.05 -1.15 -0.05 -1.05 -0.1 -0.95 -0.1 Q-0.95 -0.05 -0.95 -0.05 L-1.0 0.0 -1.1 0.05 -1.2 0.05 -1.25 0.0 -1.35 -0.05 -1.3 -0.1" fill="#87e1f3" fill-rule="evenodd" stroke="none"/>
    <path d="M-1.0 -0.25 L-0.85 -0.1 -0.75 0.1 -1.0 0.0 -0.95 -0.05 Q-0.95 -0.05 -0.95 -0.1 L-1.05 -0.1 -1.15 -0.05 -1.2 -0.05 -1.3 -0.1 -1.4 -0.15 -1.45 -0.2 -1.5 -0.25 -1.35 -0.25 -1.15 -0.25 -1.0 -0.25" fill="#81e4fc" fill-rule="evenodd" stroke="none"/>
    <path d="M-1.05 0.35 L-1.1 0.15 -1.25 0.05 -1.35 -0.05 -1.25 0.0 -1.2 0.05 -1.1 0.05 -1.0 0.0 -0.95 0.15 -0.9 0.3 -1.0 0.3 Q-1.05 0.3 -1.05 0.35" fill="#90edf7" fill-rule="evenodd" stroke="none"/>
    <path d="M-0.3 -1.1 L-0.2 -1.05 Q-0.15 -1.0 -0.2 -0.95 L-0.25 -0.95 -0.3 -0.95 -0.4 -1.05 -0.5 -1.1 -0.5 -1.15 -0.45 -1.15 -0.45 -1.15 Q-0.4 -1.1 -0.35 -1.1 L-0.3 -1.1" fill="#f0cdbb" fill-rule="evenodd" stroke="none"/>
    <path d="M-0.35 -1.3 L-0.2 -1.2 -0.1 -1.1 -0.2 -1.1 -0.3 -1.1 -0.35 -1.1 Q-0.4 -1.1 -0.45 -1.15 L-0.4 -1.15 -0.35 -1.15 -0.35 -1.3" fill="#73c0eb" fill-rule="evenodd" stroke="none"/>
    <path d="M-0.55 -1.05 L-0.6 -1.2 -0.55 -1.25 -0.5 -1.15 -0.5 -1.1 -0.55 -1.05 M-0.6 -1.2 L-0.6 -1.2" fill="#f7e8d9" fill-rule="evenodd" stroke="none"/>
    <path d="M-0.4 -1.05 L-0.3 -0.95 -0.3 -0.95 -0.35 -1.0 -0.4 -1.0 -0.4 -1.05" fill="#464a53" fill-rule="evenodd" stroke="none"/>
    <path d="M-0.4 -1.05 L-0.4 -1.0 -0.35 -0.85 -0.35 -0.7 -0.45 -0.6 -0.5 -0.45 -0.55 -0.45 -0.55 -0.6 Q-0.5 -0.65 -0.45 -0.65 -0.4 -0.75 -0.45 -0.85 L-0.6 -0.95 -0.5 -1.0 -0.4 -1.05" fill="#5eeafe" fill-rule="evenodd" stroke="none"/>
    <path d="M-0.6 -1.05 L-0.55 -1.05 -0.5 -1.1 -0.4 -1.05 -0.5 -1.0 -0.6 -0.95 -0.6 -1.05" fill="#1c2020" fill-rule="evenodd" stroke="none"/>
    <path d="M-0.3 -0.95 L-0.3 -0.95 -0.3 -0.85 -0.2 -0.8 -0.25 -0.7 -0.3 -0.6 -0.4 -0.55 -0.4 -0.5 -0.5 -0.45 -0.45 -0.6 -0.35 -0.7 -0.35 -0.85 -0.4 -1.0 -0.35 -1.0 -0.3 -0.95" fill="#57d5fc" fill-rule="evenodd" stroke="none"/>
    <path d="M-0.9 -1.1 L-0.85 -1.15 -0.75 -1.1 Q-0.75 -1.05 -0.7 -1.05 L-0.6 -1.05 -0.6 -0.95 -0.45 -0.85 Q-0.4 -0.75 -0.45 -0.65 -0.5 -0.65 -0.55 -0.6 L-0.55 -0.45 -0.55 -0.4 Q-0.6 -0.45 -0.65 -0.55 L-0.7 -0.75 -0.7 -0.9 Q-0.7 -0.95 -0.85 -1.0 -0.95 -1.05 -0.9 -1.1" fill="#70fdff" fill-rule="evenodd" stroke="none"/>
    <path d="M-0.1 -0.8 L-0.05 -0.8 -0.1 -0.7 -0.1 -0.7 -0.05 -0.65 -0.1 -0.55 Q-0.1 -0.55 -0.2 -0.55 L-0.25 -0.5 -0.3 -0.45 -0.25 -0.55 -0.15 -0.65 -0.1 -0.7 -0.15 -0.8 -0.15 -0.85 -0.1 -0.8 -0.1 -0.8 M-0.2 -0.55 L-0.2 -0.55" fill="#6aa8d8" fill-rule="evenodd" stroke="none"/>
    <path d="M-0.35 -0.45 L-0.4 -0.35 -0.45 -0.35 -0.4 -0.5 -0.4 -0.55 -0.3 -0.6 Q-0.2 -0.6 -0.2 -0.7 -0.15 -0.8 -0.2 -0.85 L-0.15 -0.85 -0.15 -0.85 -0.15 -0.8 -0.1 -0.7 -0.15 -0.65 -0.25 -0.55 -0.3 -0.45 -0.35 -0.45 M-0.45 -0.35 L-0.45 -0.35" fill="#6eb4e5" fill-rule="evenodd" stroke="none"/>
    <path d="M-0.05 -0.8 L-0.05 -0.75 -0.05 -0.65 -0.1 -0.7 -0.1 -0.7 -0.05 -0.8" fill="#4a7dac" fill-rule="evenodd" stroke="none"/>
    <path d="M-0.05 -0.75 L0.0 -0.7 0.0 -0.65 -0.05 -0.55 Q-0.05 -0.5 -0.1 -0.5 -0.15 -0.5 -0.2 -0.55 -0.1 -0.55 -0.1 -0.55 L-0.05 -0.65 -0.05 -0.75" fill="#3a688e" fill-rule="evenodd" stroke="none"/>
    <path d="M-0.3 -0.95 L-0.2 -0.85 Q-0.15 -0.8 -0.2 -0.7 -0.2 -0.6 -0.3 -0.6 L-0.25 -0.7 -0.2 -0.8 -0.3 -0.85 -0.3 -0.95" fill="#63c0f0" fill-rule="evenodd" stroke="none"/>
    <path d="M-0.6 -1.2 L-0.65 -1.15 -0.6 -1.05 -0.7 -1.1 -0.7 -1.15 -0.6 -1.2 -0.6 -1.2" fill="#f1d2c6" fill-rule="evenodd" stroke="none"/>
    <path d="M-0.5 -0.3 L-0.6 -0.4 -0.75 -0.45 Q-0.75 -0.4 -0.85 -0.4 L-0.95 -0.4 Q-0.95 -0.5 -0.85 -0.5 L-0.7 -0.5 -0.75 -0.6 -0.75 -0.65 -0.8 -0.8 Q-0.85 -0.9 -0.9 -0.9 L-1.0 -1.1 -0.9 -1.1 Q-0.95 -1.05 -0.85 -1.0 -0.7 -0.95 -0.7 -0.9 L-0.7 -0.75 -0.65 -0.55 Q-0.6 -0.45 -0.55 -0.4 L-0.5 -0.35 -0.5 -0.35 -0.5 -0.35 -0.5 -0.3" fill="#88feff" fill-rule="evenodd" stroke="none"/>
    <path d="M-0.5 -0.45 L-0.4 -0.5 -0.45 -0.35 -0.5 -0.35 -0.5 -0.35 -0.55 -0.4 -0.55 -0.45 -0.5 -0.45" fill="#74d0fa" fill-rule="evenodd" stroke="none"/>
    <path d="M-0.75 -0.35 L-0.6 -0.35 Q-0.5 -0.3 -0.5 -0.25 -0.5 -0.2 -0.55 -0.15 L-0.6 -0.05 Q-0.55 -0.05 -0.5 -0.05 L-0.4 -0.05 -0.35 0.05 -0.25 0.1 Q-0.2 0.1 -0.15 0.25 L-0.05 0.35 -0.05 0.45 -0.1 0.55 -0.05 0.65 Q-0.05 0.7 -0.15 0.65 L-0.2 0.6 -0.25 0.5 -0.3 0.5 -0.4 0.45 -0.65 0.15 -0.85 -0.15 -0.9 -0.2 -0.9 -0.3 Q-0.95 -0.35 -0.9 -0.35 L-0.85 -0.3 -0.8 -0.3 -0.75 -0.35 M-0.55 0.0 L-0.7 -0.05 Q-0.7 0.05 -0.55 0.2 L-0.35 0.4 Q-0.3 0.45 -0.35 0.35 L-0.3 0.3 -0.3 0.25 -0.25 0.2 -0.3 0.15 -0.35 0.15 -0.4 0.05 Q-0.45 0.0 -0.55 0.0" fill="#a5ffff" fill-rule="evenodd" stroke="none"/>
    <path d="M-0.55 0.0 Q-0.45 0.0 -0.4 0.05 L-0.35 0.15 -0.3 0.15 -0.25 0.2 -0.3 0.25 -0.3 0.3 -0.35 0.35 Q-0.3 0.45 -0.35 0.4 L-0.55 0.2 Q-0.7 0.05 -0.7 -0.05 L-0.55 0.0" fill="#b0ffff" fill-rule="evenodd" stroke="none"/>
    <path d="M-0.05 -0.55 Q0.0 -0.55 0.0 -0.5 L-0.1 -0.5 -0.2 -0.5 -0.2 -0.55 -0.2 -0.55 Q-0.15 -0.5 -0.1 -0.5 -0.05 -0.5 -0.05 -0.55" fill="#264f6d" fill-rule="evenodd" stroke="none"/>
    <path d="M-0.2 -0.5 Q-0.25 -0.4 -0.35 -0.45 L-0.3 -0.45 -0.25 -0.5 -0.2 -0.55 -0.2 -0.5" fill="#406f98" fill-rule="evenodd" stroke="none"/>
    <path d="M-0.4 -0.25 L-0.4 -0.25 -0.45 -0.25 -0.5 -0.3 -0.5 -0.35 -0.45 -0.35 -0.4 -0.25 M-0.45 -0.35 L-0.45 -0.35" fill="#6bafe3" fill-rule="evenodd" stroke="none"/>
    <path d="M-0.4 -0.35 L-0.35 -0.3 -0.3 -0.35 -0.35 -0.25 -0.4 -0.25 -0.45 -0.35 -0.4 -0.35" fill="#355e7d" fill-rule="evenodd" stroke="none"/>
    <path d="M-0.05 -0.2 L-0.15 -0.25 -0.2 -0.3 -0.1 -0.3 Q-0.05 -0.25 -0.05 -0.2" fill="#45749c" fill-rule="evenodd" stroke="none"/>
    <path d="M-0.3 -0.35 L-0.25 -0.35 -0.2 -0.3 -0.35 -0.25 -0.3 -0.35 M-0.2 -0.3 L-0.2 -0.3" fill="#47749b" fill-rule="evenodd" stroke="none"/>
    <path d="M-0.15 0.8 L0.0 0.85 0.0 1.0 -0.1 1.05 -0.15 1.1 -0.15 1.25 Q-0.15 1.3 -0.25 1.3 L-0.35 1.3 -0.45 1.25 -0.6 1.25 -0.7 1.25 -0.7 1.15 -0.65 1.05 -0.7 0.95 -0.75 0.85 Q-0.75 0.85 -0.65 0.8 -0.55 0.75 -0.6 0.7 L-0.55 0.6 -0.6 0.6 -0.55 0.55 -0.5 0.6 -0.45 0.6 -0.4 0.65 -0.35 0.7 Q-0.35 0.8 -0.25 0.8 L-0.15 0.8" fill="#0f232e" fill-rule="evenodd" stroke="none"/>
    <path d="M-0.45 0.6 L-0.5 0.6 -0.55 0.55 -0.65 0.55 -0.5 0.55 Q-0.45 0.55 -0.45 0.6" fill="#79bace" fill-rule="evenodd" stroke="none"/>
    <path d="M-0.75 0.1 L-0.65 0.2 -0.55 0.35 -0.35 0.55 -0.15 0.8 -0.2 0.75 -0.3 0.7 -0.35 0.6 Q-0.45 0.5 -0.55 0.5 L-0.7 0.45 -0.85 0.35 Q-0.85 0.3 -0.9 0.3 L-1.0 0.35 -0.85 0.55 Q-0.8 0.65 -0.8 0.75 L-0.85 0.8 -0.9 0.75 -0.9 0.7 -0.9 0.65 -0.95 0.5 -1.05 0.35 Q-1.05 0.3 -1.0 0.3 L-0.9 0.3 -0.95 0.15 -1.0 0.0 -0.75 0.1" fill="#8ce5ef" fill-rule="evenodd" stroke="none"/>
    <path d="M-0.8 0.75 Q-0.8 0.65 -0.85 0.55 L-1.0 0.35 -0.9 0.3 Q-0.85 0.3 -0.85 0.35 L-0.7 0.45 -0.55 0.5 Q-0.45 0.5 -0.35 0.6 L-0.3 0.7 -0.2 0.75 -0.3 0.75 -0.35 0.7 -0.4 0.65 -0.45 0.6 Q-0.45 0.55 -0.5 0.55 L-0.65 0.55 -0.7 0.55 -0.75 0.6 -0.75 0.7 Q-0.75 0.75 -0.8 0.75" fill="#85d6e1" fill-rule="evenodd" stroke="none"/>
    <path d="M-0.55 0.55 L-0.6 0.6 -0.7 0.65 -0.65 0.55 -0.55 0.55" fill="#71a7c7" fill-rule="evenodd" stroke="none"/>
    <path d="M-0.6 0.7 L-0.7 0.8 -0.8 0.85 -0.85 0.8 -0.8 0.75 Q-0.75 0.75 -0.75 0.7 L-0.75 0.6 -0.7 0.55 -0.65 0.55 -0.7 0.65 -0.65 0.7 -0.6 0.7" fill="#77b4cb" fill-rule="evenodd" stroke="none"/>
    <path d="M-0.6 0.7 L-0.6 0.7 -0.65 0.7 -0.7 0.65 -0.6 0.6 -0.55 0.6 -0.6 0.7" fill="#577c93" fill-rule="evenodd" stroke="none"/>
    <path d="M-1.0 0.7 L-0.95 0.7 -0.95 0.75 -1.0 0.75 -1.0 0.7" fill="#406f89" fill-rule="evenodd" stroke="none"/>
    <path d="M-1.05 0.7 L-1.0 0.7 -1.0 0.75 -0.95 0.75 -0.95 0.7 Q-0.95 0.65 -0.9 0.65 L-0.9 0.7 -0.9 0.75 -0.85 0.8 -0.8 0.85 Q-0.85 0.85 -0.85 0.9 L-0.9 0.95 -0.9 0.85 -1.0 0.85 -1.05 0.85 -1.1 0.8 -1.1 0.8 Q-1.1 0.8 -1.05 0.75 L-1.05 0.7 M-0.8 0.85 L-0.8 0.85" fill="#61a3cb" fill-rule="evenodd" stroke="none"/>
    <path d="M-1.1 0.8 L-1.05 0.85 -1.0 0.85 -0.9 0.85 -0.9 0.95 Q-0.85 1.0 -0.85 1.0 L-0.9 1.05 -1.05 1.05 -1.15 1.05 -1.15 1.0 Q-1.15 0.95 -1.2 0.85 L-1.1 0.8" fill="#88f7fe" fill-rule="evenodd" stroke="none"/>
    <path d="M-1.15 1.15 L-1.15 1.15 -1.25 1.2 -1.3 1.3 -1.35 1.35 -1.35 1.45 -1.45 1.5 -1.55 1.55 -1.5 1.45 -1.45 1.4 -1.6 1.35 -1.5 1.35 -1.4 1.35 -1.3 1.25 Q-1.3 1.2 -1.3 1.15 L-1.3 1.1 -1.1 1.1 -0.9 1.05 -0.85 1.0 Q-0.85 1.0 -0.9 0.95 L-0.85 0.9 Q-0.85 0.85 -0.8 0.85 L-0.85 0.9 -0.8 0.95 Q-0.8 1.0 -0.8 1.05 L-0.85 1.1 -1.0 1.15 -1.15 1.15" fill="#315870" fill-rule="evenodd" stroke="none"/>
    <path d="M-0.8 0.85 L-0.75 0.9 -0.75 1.0 -0.85 1.2 -1.0 1.2 -1.15 1.15 -1.0 1.15 -0.85 1.1 -0.8 1.05 Q-0.8 1.0 -0.8 0.95 L-0.85 0.9 -0.8 0.85 -0.8 0.85" fill="#1c4052" fill-rule="evenodd" stroke="none"/>
    <path d="M-0.15 0.8 L-0.15 0.8 -0.25 0.8 Q-0.35 0.8 -0.35 0.7 L-0.3 0.75 -0.2 0.75 -0.15 0.8" fill="#74afc7" fill-rule="evenodd" stroke="none"/>
    <path d="M-0.1 1.3 L-0.15 1.2 -0.15 1.1 -0.1 1.05 0.0 1.15 -0.05 1.2 -0.1 1.3" fill="#538cb4" fill-rule="evenodd" stroke="none"/>
    <path d="M-1.15 0.6 L-1.15 0.65 -1.2 0.7 -1.2 0.65 -1.3 0.6 -1.35 0.55 -1.4 0.5 -1.4 0.35 Q-1.3 0.4 -1.2 0.45 -1.15 0.55 -1.15 0.6" fill="#204051" fill-rule="evenodd" stroke="none"/>
    <path d="M-1.8 0.2 L-1.7 0.2 -1.65 0.3 -1.55 0.4 -1.6 0.4 -1.5 0.5 -1.4 0.5 -1.35 0.55 -1.4 0.6 -1.45 0.65 -1.5 0.6 -1.55 0.55 -1.65 0.45 Q-1.6 0.35 -1.65 0.3 -1.7 0.3 -1.7 0.3 L-1.9 0.2 -1.85 0.2 -1.8 0.2" fill="#99f6fe" fill-rule="evenodd" stroke="none"/>
    <path d="M-1.35 0.55 L-1.3 0.6 -1.2 0.65 -1.25 0.75 -1.2 0.75 -1.1 0.8 -1.2 0.85 Q-1.15 0.95 -1.15 1.0 L-1.3 0.85 -1.4 0.7 -1.4 0.6 -1.35 0.55 M-1.1 0.8 L-1.1 0.8" fill="#76e6fa" fill-rule="evenodd" stroke="none"/>
    <path d="M-1.7 0.2 L-1.65 0.2 -1.6 0.3 -1.55 0.4 -1.55 0.4 -1.65 0.3 -1.7 0.2" fill="#b8ffff" fill-rule="evenodd" stroke="none"/>
    <path d="M-2.0 0.05 Q-1.95 0.05 -1.95 0.1 L-2.0 0.15 -2.0 0.15 -2.05 0.2 -2.1 0.2 -2.1 0.15 -2.05 0.1 -2.0 0.05 M-2.1 0.2 L-2.1 0.2" fill="#80d3f2" fill-rule="evenodd" stroke="none"/>
    <path d="M-1.9 0.2 L-1.9 0.2 -1.7 0.3 -1.75 0.35 -1.7 0.4 -1.75 0.4 -1.8 0.45 -1.85 0.45 -1.85 0.4 -1.8 0.4 -1.85 0.35 -1.9 0.25 -2.05 0.25 -2.1 0.2 -2.05 0.2 -2.0 0.2 -1.9 0.2" fill="#73bed8" fill-rule="evenodd" stroke="none"/>
    <path d="M-1.85 0.4 L-1.9 0.3 -1.95 0.3 -2.05 0.25 -1.9 0.25 -1.85 0.35 -1.8 0.4 -1.85 0.4" fill="#486e86" fill-rule="evenodd" stroke="none"/>
    <path d="M-2.2 0.45 L-2.2 0.2 -2.1 0.2 -2.1 0.2 -2.05 0.25 -1.95 0.3 -1.9 0.3 -1.85 0.4 -2.0 0.4 -2.05 0.45 -2.2 0.45" fill="#1e333b" fill-rule="evenodd" stroke="none"/>
    <path d="M-1.85 0.45 L-1.9 0.45 -2.0 0.4 -1.85 0.4 -1.85 0.45" fill="#4a6f82" fill-rule="evenodd" stroke="none"/>
    <path d="M-2.2 0.85 L-2.2 0.6 -2.15 0.55 -2.15 0.5 -2.1 0.5 -2.05 0.45 -1.9 0.45 -1.85 0.45 -1.8 0.45 -1.9 0.55 -2.0 0.6 Q-2.1 0.65 -2.1 0.75 -2.1 0.9 -2.0 0.9 L-1.8 0.9 -1.6 0.85 Q-1.6 0.8 -1.7 0.75 -1.8 0.75 -1.8 0.7 L-1.65 0.65 -1.5 0.65 Q-1.6 0.65 -1.6 0.7 L-1.55 0.85 -1.7 0.9 -1.8 0.9 Q-1.85 0.9 -1.95 0.95 -2.0 1.05 -2.05 1.0 L-2.2 0.85" fill="#76cedb" fill-rule="evenodd" stroke="none"/>
    <path d="M-1.9 0.45 L-2.05 0.45 -2.0 0.4 -1.9 0.45 M-2.05 0.45 L-2.05 0.45" fill="#5f94b0" fill-rule="evenodd" stroke="none"/>
    <path d="M-1.5 0.65 L-1.65 0.65 -1.8 0.7 Q-1.8 0.75 -1.7 0.75 -1.6 0.8 -1.6 0.85 L-1.8 0.9 -2.0 0.9 Q-2.1 0.9 -2.1 0.75 -2.1 0.65 -2.0 0.6 L-1.9 0.55 -1.8 0.45 -1.75 0.4 -1.7 0.4 -1.7 0.35 Q-1.65 0.4 -1.7 0.45 L-1.75 0.5 -1.7 0.5 -1.65 0.55 -1.55 0.6 -1.5 0.6 -1.45 0.65 -1.5 0.65" fill="#7cd8e4" fill-rule="evenodd" stroke="none"/>
    <path d="M-1.7 0.35 L-1.7 0.4 -1.75 0.35 -1.7 0.3 Q-1.7 0.3 -1.65 0.3 L-1.7 0.35" fill="#3d667d" fill-rule="evenodd" stroke="none"/>
    <path d="M-1.5 0.6 L-1.55 0.6 -1.65 0.55 -1.7 0.5 -1.75 0.5 -1.7 0.45 Q-1.65 0.4 -1.7 0.35 L-1.65 0.3 Q-1.6 0.35 -1.65 0.45 L-1.55 0.55 -1.5 0.6" fill="#88e1ef" fill-rule="evenodd" stroke="none"/>
    <path d="M-1.4 0.6 L-1.4 0.7 Q-1.45 0.75 -1.4 0.8 L-1.3 0.9 -1.35 0.9 -1.4 0.85 -1.5 0.9 -1.55 0.9 -1.55 0.85 -1.6 0.7 Q-1.6 0.65 -1.5 0.65 L-1.45 0.65 -1.4 0.6" fill="#64c4db" fill-rule="evenodd" stroke="none"/>
    <path d="M-2.2 1.05 L-2.2 0.85 -2.05 1.0 Q-2.0 1.05 -1.95 0.95 -1.85 0.9 -1.8 0.9 L-1.7 0.9 -1.55 0.85 -1.55 0.9 -1.5 0.9 -1.4 0.85 -1.35 0.9 -1.3 0.9 -1.25 1.0 -1.15 1.05 -1.05 1.05 -0.9 1.05 -1.1 1.1 -1.3 1.1 -1.35 1.1 -1.4 1.2 -1.65 1.05 -1.8 1.05 -1.9 1.0 -1.95 1.05 -2.2 1.05" fill="#6cc4d7" fill-rule="evenodd" stroke="none"/>
    <path d="M-1.3 1.1 L-1.3 1.15 -1.35 1.2 -1.45 1.2 -1.5 1.15 -1.65 1.15 -1.8 1.15 -1.85 1.1 -1.95 1.05 -1.9 1.0 -1.8 1.05 -1.65 1.05 -1.4 1.2 -1.35 1.1 -1.3 1.1" fill="#68b3d0" fill-rule="evenodd" stroke="none"/>
    <path d="M-1.8 1.2 L-1.85 1.2 -1.95 1.15 -2.0 1.15 -2.1 1.15 -1.95 1.1 Q-1.85 1.15 -1.8 1.2" fill="#2e4a62" fill-rule="evenodd" stroke="none"/>
    <path d="M-1.6 1.35 L-1.65 1.35 -1.75 1.25 -1.8 1.2 Q-1.85 1.15 -1.95 1.1 L-1.85 1.1 -1.8 1.15 -1.75 1.2 -1.7 1.3 -1.55 1.3 -1.4 1.3 -1.35 1.2 -1.3 1.15 Q-1.3 1.2 -1.3 1.25 L-1.4 1.35 -1.5 1.35 -1.6 1.35" fill="#3f688c" fill-rule="evenodd" stroke="none"/>
    <path d="M-2.2 1.05 L-2.2 1.05 -1.95 1.05 -1.85 1.1 -1.95 1.1 -2.1 1.15 -2.1 1.15 -2.2 1.05" fill="#588ab8" fill-rule="evenodd" stroke="none"/>
    <path d="M-1.8 1.15 L-1.65 1.15 -1.5 1.15 -1.45 1.2 -1.35 1.2 -1.4 1.3 -1.55 1.3 -1.7 1.3 -1.75 1.2 -1.8 1.15" fill="#5991bf" fill-rule="evenodd" stroke="none"/>
    <path d="M-1.15 0.65 L-1.1 0.65 -1.05 0.7 -1.05 0.75 Q-1.1 0.8 -1.1 0.8 L-1.2 0.75 -1.2 0.7 -1.15 0.65" fill="#3a7b9f" fill-rule="evenodd" stroke="none"/>
    <path d="M-1.2 0.65 L-1.2 0.7 -1.2 0.75 -1.25 0.75 -1.2 0.65" fill="#4ca1d0" fill-rule="evenodd" stroke="none"/>
    <path d="M-1.4 0.7 L-1.3 0.85 -1.15 1.0 -1.15 1.05 -1.25 1.0 -1.3 0.9 -1.4 0.8 Q-1.45 0.75 -1.4 0.7" fill="#6dd4e7" fill-rule="evenodd" stroke="none"/>
    <path d="M-2.2 1.35 L-2.2 1.2 -2.05 1.3 -1.95 1.4 Q-1.9 1.4 -1.9 1.45 L-1.9 1.55 -1.8 1.6 Q-1.75 1.65 -1.65 1.6 L-1.6 1.6 Q-1.6 1.6 -1.6 1.65 -1.55 1.7 -1.5 1.65 L-1.35 1.65 -1.25 1.65 -1.3 1.7 -1.3 1.75 -1.2 1.8 -1.2 1.7 -1.15 1.75 Q-1.15 1.8 -1.2 1.85 L-1.55 1.75 -1.65 1.75 -1.7 1.7 -1.85 1.65 -2.0 1.55 Q-2.0 1.5 -2.05 1.4 -2.1 1.35 -2.2 1.35" fill="#0d212e" fill-rule="evenodd" stroke="none"/>
    <path d="M-0.9 2.2 L-2.2 2.2 -2.2 1.9 -2.05 1.85 -1.85 1.85 -1.65 1.9 -1.45 1.9 Q-1.4 1.9 -1.3 2.0 L-1.1 2.05 Q-0.95 2.1 -0.9 2.2" fill="#040a0f" fill-rule="evenodd" stroke="none"/>
    <path d="M-0.6 1.55 L-0.75 1.5 -0.85 1.4 -0.75 1.4 -0.8 1.35 Q-0.85 1.3 -0.85 1.35 L-0.85 1.3 Q-0.8 1.25 -0.7 1.35 L-0.6 1.45 Q-0.55 1.45 -0.55 1.4 L-0.55 1.35 -0.5 1.3 -0.4 1.35 -0.3 1.35 Q-0.25 1.35 -0.25 1.4 -0.3 1.45 -0.35 1.45 L-0.5 1.5 -0.6 1.55 M-0.5 1.45 L-0.45 1.4 Q-0.45 1.35 -0.5 1.4 L-0.5 1.45" fill="#113c52" fill-rule="evenodd" stroke="none"/>
    <path d="M-0.5 1.45 L-0.5 1.4 Q-0.45 1.35 -0.45 1.4 L-0.5 1.45" fill="#2f6688" fill-rule="evenodd" stroke="none"/>
    <path d="M-0.85 1.4 L-0.85 1.35 Q-0.85 1.3 -0.8 1.35 L-0.75 1.4 -0.85 1.4" fill="#2d6485" fill-rule="evenodd" stroke="none"/>
    <path d="M-2.2 0.15 L-2.2 0.0 -2.05 0.05 Q-2.0 0.05 -2.0 0.05 L-2.05 0.1 -2.1 0.15 -2.2 0.15" fill="#17293a" fill-rule="evenodd" stroke="none"/>
    <path d="M-2.2 0.2 L-2.2 0.15 -2.1 0.15 -2.1 0.2 -2.2 0.2" fill="#8784db" fill-rule="evenodd" stroke="none"/>
    <path d="M-2.2 0.6 L-2.2 0.45 -2.05 0.45 -2.1 0.5 -2.15 0.5 -2.15 0.55 -2.2 0.6 M-2.05 0.45 L-2.05 0.45" fill="#70b6cd" fill-rule="evenodd" stroke="none"/>
  </g>
</svg>
