<?xml version="1.0" encoding="UTF-8" standalone="no"?>
<svg xmlns:xlink="http://www.w3.org/1999/xlink" height="4.4px" width="4.4px" xmlns="http://www.w3.org/2000/svg">
  <g transform="matrix(1.0, 0.0, 0.0, 1.0, 2.2, 2.2)">
    <path d="M-1.55 -2.2 L-1.4 -2.2 -1.35 -2.1 -1.35 -2.0 -1.35 -1.95 -1.4 -1.85 -1.4 -1.75 Q-1.35 -1.65 -1.4 -1.55 L-1.4 -1.35 Q-1.45 -1.3 -1.65 -1.3 L-1.85 -1.2 Q-1.85 -1.35 -1.75 -1.45 -1.65 -1.55 -1.55 -1.5 -1.5 -1.5 -1.5 -1.55 L-1.5 -1.65 Q-1.45 -1.75 -1.5 -1.85 L-1.55 -2.05 -1.55 -2.2" fill="#205584" fill-rule="evenodd" stroke="none"/>
    <path d="M-1.4 -2.2 L-1.1 -2.2 -1.15 -2.1 -1.2 -2.0 -1.25 -2.0 -1.35 -2.0 -1.35 -2.1 -1.4 -2.2" fill="#3977a6" fill-rule="evenodd" stroke="none"/>
    <path d="M-0.2 -2.2 L-0.2 -2.2 Q-0.2 -2.1 -0.2 -2.0 L-0.2 -1.85 -0.2 -2.2" fill="#6a685e" fill-rule="evenodd" stroke="none"/>
    <path d="M-0.15 -2.2 L-0.05 -2.15 Q-0.15 -2.15 -0.1 -2.05 L-0.1 -1.85 -0.1 -1.75 Q-0.05 -1.65 -0.1 -1.6 L-0.15 -1.7 -0.2 -1.85 -0.2 -2.0 Q-0.2 -2.1 -0.2 -2.2 L-0.15 -2.2" fill="#adb5a6" fill-rule="evenodd" stroke="none"/>
    <path d="M0.05 -1.55 L0.15 -1.5 0.15 -1.35 0.15 -1.25 0.1 -1.3 Q0.05 -1.35 -0.05 -1.4 L-0.2 -1.45 -0.25 -1.45 -0.25 -1.3 Q-0.25 -1.3 -0.3 -1.3 L-0.35 -1.3 -0.4 -1.4 -0.4 -1.55 Q-0.3 -1.6 -0.3 -1.75 -0.25 -1.85 -0.45 -1.9 -0.4 -1.95 -0.4 -2.0 L-0.5 -2.1 -0.95 -2.05 -0.95 -1.9 Q-1.05 -1.85 -1.05 -1.95 L-1.05 -2.15 -0.8 -2.2 -0.2 -2.2 -0.2 -1.85 -0.15 -1.7 -0.1 -1.6 0.05 -1.55 M-0.25 -1.55 L-0.35 -1.55 -0.35 -1.45 -0.3 -1.45 -0.25 -1.5 -0.25 -1.55" fill="#2e2520" fill-rule="evenodd" stroke="none"/>
    <path d="M-1.1 -2.2 L-0.8 -2.2 -1.05 -2.15 -1.1 -2.1 -1.15 -2.05 -1.2 -2.05 -1.2 -2.0 -1.15 -2.1 -1.1 -2.2" fill="#81acb2" fill-rule="evenodd" stroke="none"/>
    <path d="M-2.2 -1.5 L-2.2 -2.0 -2.1 -2.05 Q-2.05 -2.1 -2.0 -2.05 L-1.95 -2.05 Q-1.9 -2.05 -1.9 -2.0 L-1.9 -1.9 -1.8 -2.0 -1.8 -1.9 -1.75 -1.8 -1.7 -1.65 Q-1.7 -1.6 -1.75 -1.55 L-1.85 -1.45 -1.9 -1.35 -2.05 -1.45 -2.2 -1.5" fill="#1c344f" fill-rule="evenodd" stroke="none"/>
    <path d="M-2.2 -2.0 L-2.2 -2.2 -1.55 -2.2 -1.55 -2.05 -1.6 -2.1 -1.7 -2.1 -1.75 -1.95 Q-1.75 -1.85 -1.75 -1.8 L-1.8 -1.9 -1.8 -2.0 -1.9 -1.9 -1.9 -2.0 Q-1.9 -2.05 -1.95 -2.05 L-2.0 -2.05 Q-2.05 -2.1 -2.1 -2.05 L-2.2 -2.0" fill="#354668" fill-rule="evenodd" stroke="none"/>
    <path d="M-2.2 -1.35 L-2.2 -1.5 -2.05 -1.45 -1.9 -1.35 -1.85 -1.45 -1.75 -1.55 Q-1.7 -1.6 -1.7 -1.65 L-1.75 -1.8 Q-1.75 -1.85 -1.75 -1.95 L-1.7 -2.1 -1.6 -2.1 -1.55 -2.05 -1.5 -1.85 Q-1.45 -1.75 -1.5 -1.65 L-1.5 -1.55 Q-1.5 -1.5 -1.55 -1.5 -1.65 -1.55 -1.75 -1.45 -1.85 -1.35 -1.85 -1.2 L-2.1 -1.3 -2.2 -1.35" fill="#1d4164" fill-rule="evenodd" stroke="none"/>
    <path d="M-2.2 -0.55 L-2.2 -1.35 -2.1 -1.3 -1.85 -1.2 -1.65 -1.3 Q-1.45 -1.3 -1.4 -1.35 L-1.4 -1.25 -1.35 -1.2 Q-1.35 -1.15 -1.4 -1.1 L-1.55 -1.05 -1.55 -0.9 -1.5 -0.8 Q-1.5 -0.7 -1.55 -0.7 -1.6 -0.65 -1.65 -0.65 -1.6 -0.7 -1.65 -0.8 L-1.7 -1.0 -1.85 -0.8 -1.9 -0.55 Q-2.0 -0.5 -2.2 -0.55" fill="#2c6680" fill-rule="evenodd" stroke="none"/>
    <path d="M-2.2 -0.2 L-2.2 -0.55 Q-2.0 -0.5 -1.9 -0.55 L-1.85 -0.8 -1.7 -1.0 -1.65 -0.8 Q-1.6 -0.7 -1.65 -0.65 -1.6 -0.65 -1.55 -0.7 -1.5 -0.7 -1.5 -0.8 L-1.5 -0.7 -1.55 -0.6 -1.65 -0.55 -1.75 -0.4 Q-1.7 -0.6 -1.95 -0.5 -2.05 -0.35 -1.9 -0.15 L-2.05 0.05 Q-2.0 -0.05 -2.05 -0.15 -2.1 -0.3 -2.2 -0.2" fill="#307fa0" fill-rule="evenodd" stroke="none"/>
    <path d="M-2.2 0.3 L-2.2 0.25 -2.1 0.15 -2.05 0.05 -1.9 -0.15 -1.85 -0.2 -1.8 -0.2 -1.7 -0.2 Q-1.7 -0.2 -1.7 -0.15 L-1.85 0.05 Q-1.9 0.15 -1.8 0.2 L-1.8 0.5 -1.8 0.55 -2.1 0.3 -2.2 0.3" fill="#314758" fill-rule="evenodd" stroke="none"/>
    <path d="M-1.85 -0.2 L-1.8 -0.25 -1.8 -0.2 -1.85 -0.2" fill="#589ab6" fill-rule="evenodd" stroke="none"/>
    <path d="M-1.8 -0.25 L-1.7 -0.3 Q-1.65 -0.3 -1.6 -0.25 L-1.6 -0.2 Q-1.65 -0.15 -1.6 -0.1 L-1.55 0.0 -1.65 0.0 -1.7 -0.15 Q-1.7 -0.2 -1.7 -0.2 L-1.8 -0.2 -1.8 -0.25" fill="#50869a" fill-rule="evenodd" stroke="none"/>
    <path d="M-2.2 0.25 L-2.2 -0.2 Q-2.1 -0.3 -2.05 -0.15 -2.0 -0.05 -2.05 0.05 L-2.1 0.15 -2.2 0.25" fill="#306787" fill-rule="evenodd" stroke="none"/>
    <path d="M-1.55 -0.6 L-1.65 -0.4 -1.8 -0.25 -1.85 -0.2 -1.9 -0.15 Q-2.05 -0.35 -1.95 -0.5 -1.7 -0.6 -1.75 -0.4 L-1.65 -0.55 -1.55 -0.6" fill="#39a0ca" fill-rule="evenodd" stroke="none"/>
    <path d="M0.0 -2.05 L0.05 -1.95 0.0 -1.85 0.05 -1.75 0.05 -1.55 -0.1 -1.6 Q-0.05 -1.65 -0.1 -1.75 L-0.1 -1.85 -0.1 -2.05 Q-0.15 -2.15 -0.05 -2.15 L0.0 -2.15 0.0 -2.05" fill="#707269" fill-rule="evenodd" stroke="none"/>
    <path d="M-0.95 -1.9 L-0.95 -2.05 -0.5 -2.1 -0.4 -2.0 Q-0.4 -1.95 -0.45 -1.9 -0.25 -1.85 -0.3 -1.75 L-0.4 -1.7 -0.45 -1.6 -0.5 -1.65 -0.55 -1.7 -0.65 -1.7 -0.75 -1.6 -0.85 -1.6 -0.85 -1.8 Q-0.85 -1.9 -0.95 -1.9 M-0.6 -1.85 L-0.6 -1.95 Q-0.65 -2.0 -0.7 -2.0 -0.8 -1.95 -0.75 -1.9 -0.7 -1.8 -0.75 -1.75 -0.7 -1.75 -0.65 -1.75 L-0.6 -1.85" fill="#5a564a" fill-rule="evenodd" stroke="none"/>
    <path d="M-0.3 -1.75 Q-0.3 -1.6 -0.4 -1.55 L-0.4 -1.4 -0.35 -1.3 Q-0.45 -1.25 -0.5 -1.4 L-0.45 -1.5 -0.45 -1.6 -0.4 -1.7 -0.3 -1.75" fill="#697266" fill-rule="evenodd" stroke="none"/>
    <path d="M-0.6 -1.85 L-0.65 -1.75 Q-0.7 -1.75 -0.75 -1.75 -0.7 -1.8 -0.75 -1.9 -0.8 -1.95 -0.7 -2.0 -0.65 -2.0 -0.6 -1.95 L-0.6 -1.85" fill="#2c221d" fill-rule="evenodd" stroke="none"/>
    <path d="M-0.85 -1.6 L-0.9 -1.7 -0.9 -1.8 -1.0 -1.85 -1.05 -1.85 -1.15 -1.9 -1.15 -2.05 -1.1 -2.1 -1.05 -2.15 -1.05 -1.95 Q-1.05 -1.85 -0.95 -1.9 -0.85 -1.9 -0.85 -1.8 L-0.85 -1.6" fill="#6c786e" fill-rule="evenodd" stroke="none"/>
    <path d="M-0.65 -1.7 L-0.6 -1.65 -0.55 -1.7 -0.5 -1.65 Q-0.55 -1.5 -0.5 -1.3 L-0.45 -1.15 -0.4 -1.0 Q-0.45 -0.85 -0.3 -0.65 L-0.35 -0.2 -0.4 -0.15 -0.5 -0.1 -0.45 0.0 -0.5 0.05 Q-0.45 0.1 -0.5 0.2 L-0.6 0.05 -0.6 -0.1 -0.7 -0.15 -0.75 -0.25 -0.75 -0.3 -0.8 -0.35 Q-0.7 -0.35 -0.7 -0.45 L-0.75 -0.55 -0.75 -0.85 -0.8 -1.4 -0.8 -1.45 -0.8 -1.5 -0.75 -1.6 -0.65 -1.7 M-0.8 -1.45 L-0.8 -1.45" fill="#f8fefd" fill-rule="evenodd" stroke="none"/>
    <path d="M-0.55 -1.7 L-0.6 -1.65 -0.65 -1.7 -0.55 -1.7" fill="#9da59c" fill-rule="evenodd" stroke="none"/>
    <path d="M-0.75 -1.6 L-0.8 -1.5 -0.8 -1.45 -0.8 -1.4 -0.75 -0.85 -0.8 -0.85 Q-0.95 -0.95 -0.9 -1.2 -0.85 -1.2 -0.85 -1.25 L-0.95 -1.35 Q-0.85 -1.35 -0.8 -1.45 L-0.8 -1.45 -0.85 -1.6 -0.75 -1.6 M-1.05 -1.85 L-1.0 -1.85 -0.9 -1.8 -0.9 -1.7 -0.85 -1.6 -0.95 -1.7 -1.0 -1.8 -1.05 -1.85" fill="#a8f9ef" fill-rule="evenodd" stroke="none"/>
    <path d="M-0.35 -1.3 L-0.3 -1.3 Q-0.35 -1.3 -0.35 -1.15 L-0.35 -1.05 Q-0.35 -1.0 -0.4 -1.0 L-0.45 -1.15 -0.5 -1.3 Q-0.55 -1.5 -0.5 -1.65 L-0.45 -1.6 -0.45 -1.5 -0.5 -1.4 Q-0.45 -1.25 -0.35 -1.3" fill="#b8ccbc" fill-rule="evenodd" stroke="none"/>
    <path d="M-0.8 -1.45 L-0.8 -1.45 -0.8 -1.45 Q-0.85 -1.35 -0.95 -1.35 L-1.05 -1.35 -0.95 -1.5 -0.85 -1.6 -0.8 -1.45 M-1.05 -1.35 L-1.05 -1.35" fill="#5df8fd" fill-rule="evenodd" stroke="none"/>
    <path d="M0.1 -1.3 L0.1 -1.2 0.05 -1.2 0.0 -1.15 0.0 -1.0 -0.1 -1.1 -0.2 -1.15 -0.2 -1.2 -0.1 -1.2 Q-0.05 -1.2 -0.1 -1.3 L-0.2 -1.45 -0.05 -1.4 Q0.05 -1.35 0.1 -1.3" fill="#6d8176" fill-rule="evenodd" stroke="none"/>
    <path d="M-0.25 -1.55 L-0.25 -1.5 -0.3 -1.45 -0.35 -1.45 -0.35 -1.55 -0.25 -1.55" fill="#64685d" fill-rule="evenodd" stroke="none"/>
    <path d="M-0.15 -0.95 L-0.2 -0.9 -0.15 -0.85 -0.15 -0.7 -0.2 -0.65 -0.15 -0.5 -0.15 -0.35 -0.2 -0.3 -0.2 -0.25 -0.3 -0.2 Q-0.35 -0.15 -0.2 -0.15 L-0.2 -0.05 -0.15 0.1 -0.2 0.1 Q-0.35 0.0 -0.5 0.2 -0.45 0.1 -0.5 0.05 L-0.45 0.0 -0.5 -0.1 -0.4 -0.15 -0.35 -0.2 -0.3 -0.65 Q-0.45 -0.85 -0.4 -1.0 -0.35 -1.0 -0.35 -1.05 L-0.35 -1.15 Q-0.35 -1.3 -0.3 -1.3 -0.25 -1.3 -0.25 -1.3 L-0.25 -1.45 -0.2 -1.45 -0.1 -1.3 Q-0.05 -1.2 -0.1 -1.2 L-0.2 -1.2 -0.2 -1.15 -0.3 -1.15 Q-0.35 -1.1 -0.3 -1.1 L-0.25 -1.0 -0.15 -1.0 -0.15 -0.95" fill="#cff2ed" fill-rule="evenodd" stroke="none"/>
    <path d="M-0.3 -1.1 Q-0.35 -1.1 -0.3 -1.15 L-0.2 -1.15 -0.3 -1.1" fill="#8aaca4" fill-rule="evenodd" stroke="none"/>
    <path d="M0.0 -1.0 L0.0 -0.9 -0.05 -0.9 -0.1 -0.9 -0.15 -0.95 -0.15 -1.0 -0.25 -1.0 -0.3 -1.1 -0.2 -1.15 -0.1 -1.1 0.0 -1.0" fill="#35312b" fill-rule="evenodd" stroke="none"/>
    <path d="M-1.15 -2.05 L-1.15 -1.9 -1.05 -1.85 -1.0 -1.8 -1.15 -1.8 -1.2 -1.9 -1.25 -2.0 -1.2 -2.0 -1.2 -2.05 -1.15 -2.05" fill="#7ad1eb" fill-rule="evenodd" stroke="none"/>
    <path d="M-1.55 -0.9 L-1.45 -1.05 Q-1.4 -1.05 -1.3 -1.15 L-1.15 -1.2 Q-1.1 -1.25 -1.1 -1.35 L-1.2 -1.35 -1.3 -1.3 -1.3 -1.45 -1.2 -1.5 Q-1.15 -1.55 -1.15 -1.6 -1.15 -1.65 -1.2 -1.65 L-1.3 -1.7 Q-1.15 -1.65 -1.15 -1.75 L-1.25 -1.85 -1.35 -1.85 Q-1.4 -1.85 -1.35 -1.95 L-1.35 -2.0 -1.25 -2.0 -1.2 -1.9 -1.15 -1.8 -1.05 -1.75 -1.0 -1.65 -1.05 -1.5 -1.05 -1.35 -1.1 -1.2 -1.15 -1.0 Q-1.2 -0.95 -1.3 -0.95 L-1.4 -0.85 Q-1.3 -0.8 -1.4 -0.7 -1.45 -0.65 -1.55 -0.6 L-1.5 -0.7 -1.5 -0.8 -1.55 -0.9" fill="#3299c5" fill-rule="evenodd" stroke="none"/>
    <path d="M-1.4 -1.35 L-1.4 -1.55 Q-1.35 -1.65 -1.4 -1.75 L-1.4 -1.85 -1.35 -1.95 Q-1.4 -1.85 -1.35 -1.85 L-1.25 -1.85 -1.15 -1.75 Q-1.15 -1.65 -1.3 -1.7 L-1.35 -1.6 Q-1.35 -1.5 -1.3 -1.45 L-1.3 -1.3 -1.2 -1.35 -1.1 -1.35 Q-1.1 -1.25 -1.15 -1.2 L-1.3 -1.15 Q-1.4 -1.05 -1.45 -1.05 L-1.55 -0.9 -1.55 -1.05 -1.4 -1.1 Q-1.35 -1.15 -1.35 -1.2 L-1.4 -1.25 -1.4 -1.35" fill="#2976a4" fill-rule="evenodd" stroke="none"/>
    <path d="M-1.3 -1.45 Q-1.35 -1.5 -1.35 -1.6 L-1.3 -1.7 -1.2 -1.65 Q-1.15 -1.65 -1.15 -1.6 -1.15 -1.55 -1.2 -1.5 L-1.3 -1.45" fill="#2ba0ec" fill-rule="evenodd" stroke="none"/>
    <path d="M-1.0 -1.8 L-0.95 -1.7 -0.85 -1.6 -0.95 -1.5 -1.05 -1.35 -1.05 -1.5 -1.0 -1.65 -1.05 -1.75 -1.15 -1.8 -1.0 -1.8 M-1.05 -1.35 L-1.05 -1.35" fill="#3fccf6" fill-rule="evenodd" stroke="none"/>
    <path d="M-1.05 -1.35 L-1.05 -1.35 -1.05 -1.35 -1.05 -1.2 Q-1.05 -1.1 -1.15 -0.95 L-1.3 -0.75 -1.35 -0.55 -1.4 -0.5 -1.4 -0.45 -1.35 -0.35 Q-1.35 -0.25 -1.35 -0.25 L-1.4 -0.35 Q-1.45 -0.4 -1.55 -0.3 L-1.6 -0.25 Q-1.65 -0.3 -1.7 -0.3 L-1.8 -0.25 -1.65 -0.4 -1.55 -0.6 Q-1.45 -0.65 -1.4 -0.7 -1.3 -0.8 -1.4 -0.85 L-1.3 -0.95 Q-1.2 -0.95 -1.15 -1.0 L-1.1 -1.2 -1.05 -1.35" fill="#60b8d5" fill-rule="evenodd" stroke="none"/>
    <path d="M-0.95 -1.35 L-0.85 -1.25 Q-0.85 -1.2 -0.9 -1.2 L-1.05 -1.2 -1.05 -1.35 -0.95 -1.35" fill="#94d4a6" fill-rule="evenodd" stroke="none"/>
    <path d="M-0.9 -1.2 Q-0.95 -0.95 -0.8 -0.85 -0.75 -0.8 -0.8 -0.75 L-0.85 -0.75 -0.9 -0.7 -0.75 -0.65 -0.75 -0.5 Q-0.85 -0.5 -0.9 -0.6 L-0.95 -0.65 -1.0 -0.65 Q-1.05 -0.7 -1.05 -0.65 L-1.05 -0.5 -1.05 -0.55 -1.1 -0.6 -1.1 -0.7 -1.0 -0.8 -0.95 -0.9 Q-0.9 -0.95 -0.95 -1.0 L-1.0 -0.9 Q-1.0 -0.85 -1.05 -0.85 L-1.15 -0.95 Q-1.05 -1.1 -1.05 -1.2 L-0.9 -1.2" fill="#7aad92" fill-rule="evenodd" stroke="none"/>
    <path d="M-1.2 -0.45 L-1.15 -0.55 -1.15 -0.75 -1.05 -0.85 Q-1.0 -0.85 -1.0 -0.9 L-0.95 -1.0 Q-0.9 -0.95 -0.95 -0.9 L-1.0 -0.8 -1.1 -0.7 -1.1 -0.6 -1.1 -0.5 Q-1.05 -0.4 -1.1 -0.35 L-1.15 -0.4 -1.2 -0.45" fill="#5593a4" fill-rule="evenodd" stroke="none"/>
    <path d="M-1.35 -0.25 Q-1.35 -0.25 -1.35 -0.35 L-1.4 -0.45 -1.4 -0.5 -1.35 -0.55 -1.3 -0.75 -1.15 -0.95 -1.05 -0.85 -1.15 -0.75 -1.15 -0.55 -1.2 -0.45 -1.2 -0.3 -1.15 -0.2 -1.25 -0.2 -1.35 -0.25" fill="#397388" fill-rule="evenodd" stroke="none"/>
    <path d="M-1.15 -0.2 L-1.2 -0.3 -1.2 -0.45 -1.15 -0.4 -1.1 -0.35 Q-1.05 -0.4 -1.1 -0.5 L-1.1 -0.6 -1.05 -0.55 -1.05 -0.5 -1.0 -0.45 -1.05 -0.35 -1.05 -0.3 Q-1.05 -0.25 -1.1 -0.25 L-1.15 -0.2 -1.15 -0.2" fill="#85d5d6" fill-rule="evenodd" stroke="none"/>
    <path d="M-0.75 -0.85 L-0.75 -0.55 -0.7 -0.45 Q-0.7 -0.35 -0.8 -0.35 L-0.75 -0.45 Q-0.75 -0.5 -0.8 -0.5 -0.85 -0.45 -0.9 -0.55 L-1.0 -0.65 -0.95 -0.65 -0.9 -0.6 Q-0.85 -0.5 -0.75 -0.5 L-0.75 -0.65 -0.9 -0.7 -0.85 -0.75 -0.8 -0.75 Q-0.75 -0.8 -0.8 -0.85 L-0.75 -0.85" fill="#a5e5d0" fill-rule="evenodd" stroke="none"/>
    <path d="M-0.8 -0.35 L-0.75 -0.3 -0.9 -0.35 -1.0 -0.45 -1.05 -0.5 -1.05 -0.65 Q-1.05 -0.7 -1.0 -0.65 L-0.9 -0.55 Q-0.85 -0.45 -0.8 -0.5 -0.75 -0.5 -0.75 -0.45 L-0.8 -0.35" fill="#bdd582" fill-rule="evenodd" stroke="none"/>
    <path d="M-1.55 0.0 L-1.6 -0.1 Q-1.65 -0.15 -1.6 -0.2 L-1.5 -0.05 -1.4 0.1 -1.35 0.15 -1.35 0.2 Q-1.4 0.3 -1.45 0.2 L-1.5 0.05 -1.55 0.0" fill="#91dae1" fill-rule="evenodd" stroke="none"/>
    <path d="M-1.6 -0.25 L-1.55 -0.3 -1.45 -0.25 -1.4 -0.2 -1.35 -0.15 -1.25 -0.1 -1.35 0.0 Q-1.35 0.1 -1.4 0.1 L-1.5 -0.05 -1.6 -0.2 -1.6 -0.25" fill="#b1df9c" fill-rule="evenodd" stroke="none"/>
    <path d="M-1.7 -0.15 L-1.65 0.0 -1.55 0.0 -1.5 0.05 -1.65 0.05 Q-1.7 0.05 -1.75 0.1 -1.7 0.1 -1.7 0.1 L-1.75 0.15 -1.8 0.2 Q-1.9 0.15 -1.85 0.05 L-1.7 -0.15 M-1.5 0.05 L-1.5 0.05" fill="#3d6278" fill-rule="evenodd" stroke="none"/>
    <path d="M-1.4 -0.2 L-1.35 -0.25 -1.25 -0.2 -1.15 -0.2 -1.15 -0.2 -1.2 -0.1 -1.25 -0.1 -1.35 -0.15 -1.4 -0.2 M-1.15 -0.2 L-1.15 -0.2" fill="#82b2a5" fill-rule="evenodd" stroke="none"/>
    <path d="M-1.55 -0.3 Q-1.45 -0.4 -1.4 -0.35 L-1.35 -0.25 -1.4 -0.2 -1.45 -0.25 -1.55 -0.3" fill="#94eef4" fill-rule="evenodd" stroke="none"/>
    <path d="M-0.75 -0.3 L-0.75 -0.25 -0.7 -0.15 -0.7 -0.05 Q-0.75 -0.1 -0.8 -0.05 L-0.85 0.0 -0.85 0.0 -0.9 -0.1 Q-0.85 -0.2 -0.9 -0.25 -0.95 -0.35 -1.05 -0.3 L-1.05 -0.35 -1.0 -0.45 -0.9 -0.35 -0.75 -0.3" fill="#a1ba7b" fill-rule="evenodd" stroke="none"/>
    <path d="M-1.15 -0.2 L-1.1 -0.25 Q-1.05 -0.25 -1.05 -0.3 -0.95 -0.35 -0.9 -0.25 -0.85 -0.2 -0.9 -0.1 L-1.0 0.05 -1.05 0.1 -1.05 0.05 -0.95 -0.1 Q-0.9 -0.15 -1.0 -0.2 L-1.15 -0.2 -1.15 -0.2" fill="#abf3e3" fill-rule="evenodd" stroke="none"/>
    <path d="M-1.2 -0.1 L-1.15 -0.05 -1.1 -0.1 Q-1.0 -0.15 -0.95 -0.1 L-1.05 0.05 -1.1 -0.05 Q-1.2 -0.05 -1.2 0.0 -1.2 0.0 -1.25 0.0 -1.3 -0.05 -1.25 0.05 -1.25 0.1 -1.25 0.15 L-1.35 0.15 -1.4 0.1 Q-1.35 0.1 -1.35 0.0 L-1.25 -0.1 -1.2 -0.1" fill="#8a9d64" fill-rule="evenodd" stroke="none"/>
    <path d="M-1.2 -0.1 L-1.15 -0.2 -1.0 -0.2 Q-0.9 -0.15 -0.95 -0.1 -1.0 -0.15 -1.1 -0.1 L-1.15 -0.05 -1.2 -0.1" fill="#b2d48e" fill-rule="evenodd" stroke="none"/>
    <path d="M0.2 -0.75 Q0.2 -0.75 0.15 -0.7 L0.15 -0.65 0.1 -0.65 0.05 -0.7 Q0.0 -0.75 0.05 -0.6 0.05 -0.5 0.0 -0.45 L-0.1 -0.4 -0.05 -0.6 Q-0.05 -0.7 -0.2 -0.65 L-0.15 -0.7 -0.15 -0.85 -0.2 -0.9 -0.15 -0.95 -0.1 -0.9 -0.05 -0.9 0.0 -0.9 0.0 -1.0 Q0.1 -1.0 0.1 -0.9 0.15 -0.75 0.2 -0.75" fill="#697569" fill-rule="evenodd" stroke="none"/>
    <path d="M-0.2 -0.65 Q-0.05 -0.7 -0.05 -0.6 L-0.1 -0.4 -0.15 -0.35 -0.15 -0.5 -0.2 -0.65" fill="#82a59f" fill-rule="evenodd" stroke="none"/>
    <path d="M-0.75 -0.25 L-0.7 -0.15 -0.6 -0.1 -0.6 0.05 -0.5 0.2 Q-0.6 0.2 -0.6 0.3 L-0.6 0.45 -0.7 0.35 Q-0.65 0.3 -0.7 0.15 L-0.7 -0.05 -0.7 -0.15 -0.75 -0.25 M-0.7 0.35 L-0.7 0.35" fill="#cae9e1" fill-rule="evenodd" stroke="none"/>
    <path d="M-0.85 0.0 L-0.8 -0.05 Q-0.75 -0.1 -0.7 -0.05 L-0.7 0.15 Q-0.65 0.3 -0.7 0.35 -0.75 0.3 -0.85 0.35 L-0.95 0.4 Q-0.95 0.35 -1.0 0.3 L-1.1 0.3 -1.15 0.25 -1.15 0.2 -1.05 0.25 -0.95 0.2 -0.9 0.2 -0.8 0.2 -0.75 0.25 -0.75 0.15 Q-0.75 0.1 -0.85 0.1 L-0.85 0.0" fill="#e5fdd6" fill-rule="evenodd" stroke="none"/>
    <path d="M0.25 -0.75 L0.25 -0.7 0.25 -0.7 0.25 -0.55 Q0.15 -0.5 0.2 -0.4 L0.3 -0.2 Q0.25 -0.15 0.15 -0.15 L0.0 -0.15 -0.05 -0.15 -0.1 -0.2 Q-0.1 -0.3 -0.2 -0.3 L-0.1 -0.4 0.0 -0.45 Q0.05 -0.5 0.05 -0.6 0.0 -0.75 0.05 -0.7 L0.1 -0.65 0.15 -0.65 0.15 -0.7 Q0.2 -0.75 0.2 -0.75 L0.25 -0.75 M0.25 -0.7 L0.25 -0.7" fill="#34302a" fill-rule="evenodd" stroke="none"/>
    <path d="M-0.2 -0.25 L-0.1 -0.1 -0.05 0.05 0.0 -0.05 0.05 -0.15 0.15 -0.15 0.25 -0.05 0.25 0.0 0.15 0.1 0.15 0.15 Q0.1 0.05 0.15 -0.1 0.1 -0.1 0.05 -0.05 L0.05 0.05 -0.15 0.15 -0.15 0.1 -0.2 -0.05 -0.2 -0.15 Q-0.35 -0.15 -0.3 -0.2 L-0.2 -0.25" fill="#bdc152" fill-rule="evenodd" stroke="none"/>
    <path d="M-0.2 -0.3 Q-0.1 -0.3 -0.1 -0.2 L-0.05 -0.15 0.0 -0.15 0.15 -0.15 Q0.25 -0.15 0.3 -0.2 L0.35 -0.15 0.4 -0.05 0.4 0.05 0.3 0.1 0.15 0.1 0.25 0.0 0.25 -0.05 0.15 -0.15 0.05 -0.15 0.0 -0.05 -0.05 0.05 -0.1 -0.1 -0.2 -0.25 -0.2 -0.3" fill="#6b786b" fill-rule="evenodd" stroke="none"/>
    <path d="M-0.9 -0.1 L-0.85 0.0 -0.85 0.0 -0.85 0.1 -0.8 0.15 -0.85 0.15 -1.0 0.05 -0.9 -0.1" fill="#5d8593" fill-rule="evenodd" stroke="none"/>
    <path d="M0.1 -1.95 L0.05 -2.1 Q0.0 -2.15 0.0 -2.05 L0.0 -2.15 -0.05 -2.15 -0.15 -2.2 0.15 -2.2 0.1 -1.95" fill="#66b3ca" fill-rule="evenodd" stroke="none"/>
    <path d="M2.2 -1.45 L2.05 -1.45 Q2.0 -1.5 2.05 -1.6 L2.05 -1.75 2.0 -1.9 Q2.0 -2.1 2.15 -2.2 L2.2 -2.2 2.2 -1.45" fill="#0c151c" fill-rule="evenodd" stroke="none"/>
    <path d="M0.9 -2.2 L0.75 -2.1 Q0.65 -2.05 0.75 -1.95 L0.7 -2.0 0.65 -2.05 0.65 -2.05 0.75 -2.2 0.9 -2.2" fill="#4e7275" fill-rule="evenodd" stroke="none"/>
    <path d="M0.1 -1.7 L0.1 -1.95 0.15 -2.2 0.75 -2.2 0.65 -2.05 Q0.6 -2.0 0.55 -2.05 L0.45 -2.1 0.4 -2.0 0.4 -1.9 0.35 -1.8 0.25 -1.75 0.1 -1.7" fill="#3492b7" fill-rule="evenodd" stroke="none"/>
    <path d="M1.25 -2.05 L1.1 -2.1 Q1.05 -2.1 1.0 -2.2 L1.25 -2.2 1.25 -2.05" fill="#31798a" fill-rule="evenodd" stroke="none"/>
    <path d="M1.3 -2.0 L1.35 -2.0 1.25 -1.95 1.4 -1.8 Q1.5 -1.75 1.45 -1.65 L1.2 -1.95 0.9 -2.2 1.0 -2.2 Q1.05 -2.1 1.1 -2.1 L1.25 -2.05 1.3 -2.0" fill="#54a6b4" fill-rule="evenodd" stroke="none"/>
    <path d="M1.75 -2.2 Q1.75 -2.1 1.85 -2.05 L1.95 -1.85 Q2.0 -1.7 1.95 -1.65 2.0 -1.5 1.95 -1.35 1.9 -1.2 1.75 -1.1 L1.7 -0.9 Q1.7 -0.75 1.8 -0.75 L1.7 -0.65 1.6 -0.7 1.5 -0.7 1.55 -0.85 1.55 -1.0 1.65 -1.15 1.8 -1.25 1.75 -1.3 1.75 -1.5 1.85 -1.55 Q1.95 -1.6 1.9 -1.75 L1.75 -1.9 1.7 -1.95 1.5 -2.2 1.75 -2.2" fill="#173b4e" fill-rule="evenodd" stroke="none"/>
    <path d="M1.5 -2.2 L1.7 -1.95 1.6 -2.0 1.5 -2.0 1.5 -1.95 1.45 -1.95 Q1.35 -2.0 1.45 -2.05 L1.3 -2.0 1.25 -2.05 1.25 -2.2 1.5 -2.2" fill="#1e5565" fill-rule="evenodd" stroke="none"/>
    <path d="M1.45 -1.65 L1.45 -1.6 1.35 -1.5 1.2 -1.55 Q1.1 -1.6 1.2 -1.6 1.25 -1.75 1.15 -1.85 L0.95 -2.05 0.85 -2.05 0.75 -1.95 Q0.65 -2.05 0.75 -2.1 L0.9 -2.2 1.2 -1.95 1.45 -1.65 M0.9 -2.2 L0.9 -2.2" fill="#2d4d54" fill-rule="evenodd" stroke="none"/>
    <path d="M1.7 -1.95 L1.75 -1.9 Q1.7 -1.85 1.75 -1.8 L1.8 -1.65 1.6 -1.3 1.6 -1.45 1.55 -1.55 1.45 -1.6 1.45 -1.65 Q1.5 -1.75 1.4 -1.8 L1.25 -1.95 1.35 -2.0 1.3 -2.0 1.45 -2.05 Q1.35 -2.0 1.45 -1.95 L1.5 -1.95 1.5 -2.0 1.6 -2.0 1.7 -1.95" fill="#277486" fill-rule="evenodd" stroke="none"/>
    <path d="M1.75 -1.9 L1.9 -1.75 Q1.95 -1.6 1.85 -1.55 L1.75 -1.5 1.75 -1.3 1.8 -1.25 1.65 -1.15 1.55 -1.0 1.55 -0.85 1.5 -0.7 1.6 -0.7 1.7 -0.65 1.7 -0.6 1.45 -0.55 1.15 -0.55 Q1.15 -0.65 1.25 -0.7 L1.4 -0.85 1.4 -0.95 Q1.4 -1.05 1.45 -1.1 1.55 -1.05 1.55 -1.15 L1.6 -1.3 1.8 -1.65 1.75 -1.8 Q1.7 -1.85 1.75 -1.9" fill="#1c516a" fill-rule="evenodd" stroke="none"/>
    <path d="M0.75 -1.95 L0.85 -2.05 0.95 -2.05 1.15 -1.85 Q1.25 -1.75 1.2 -1.6 1.1 -1.6 1.2 -1.55 L1.35 -1.5 1.25 -1.4 1.2 -1.3 1.15 -1.35 1.05 -1.35 1.15 -1.35 Q1.2 -1.4 1.15 -1.45 L1.1 -1.55 0.95 -1.6 0.9 -1.65 Q0.85 -1.65 0.85 -1.65 0.8 -1.7 0.85 -1.75 0.9 -1.8 0.9 -1.8 0.75 -1.9 0.75 -1.95 M1.35 -1.5 L1.35 -1.5" fill="#426f76" fill-rule="evenodd" stroke="none"/>
    <path d="M0.95 -1.6 L1.1 -1.55 1.15 -1.45 Q1.2 -1.4 1.15 -1.35 L1.05 -1.35 0.9 -1.3 Q0.85 -1.35 0.8 -1.25 L0.75 -1.1 Q0.65 -1.15 0.65 -1.2 L0.7 -1.25 0.8 -1.35 0.9 -1.45 0.95 -1.5 0.95 -1.6" fill="#53929f" fill-rule="evenodd" stroke="none"/>
    <path d="M0.85 -1.65 Q0.85 -1.65 0.9 -1.65 L0.95 -1.6 0.95 -1.5 0.9 -1.45 0.9 -1.45 Q0.9 -1.55 0.85 -1.6 L0.7 -1.6 0.65 -1.65 0.65 -1.75 0.75 -1.7 Q0.8 -1.65 0.85 -1.65" fill="#5dc4d6" fill-rule="evenodd" stroke="none"/>
    <path d="M1.05 -1.35 L1.15 -1.35 1.2 -1.3 1.15 -1.2 1.1 -1.1 1.15 -1.05 1.15 -0.95 1.2 -0.9 1.2 -0.85 0.95 -0.55 Q0.85 -0.55 0.9 -0.65 L1.0 -0.75 Q1.05 -0.8 1.0 -0.9 L0.95 -1.1 0.9 -1.15 0.95 -1.2 1.0 -1.2 0.9 -1.3 0.9 -1.3 1.05 -1.35" fill="#305364" fill-rule="evenodd" stroke="none"/>
    <path d="M0.9 -1.3 L0.9 -1.3 1.0 -1.2 0.95 -1.2 0.9 -1.15 0.8 -1.05 Q0.75 -1.05 0.75 -1.1 L0.8 -1.25 Q0.85 -1.35 0.9 -1.3" fill="#3c7085" fill-rule="evenodd" stroke="none"/>
    <path d="M0.55 -1.05 L0.65 -1.3 Q0.75 -1.4 0.9 -1.45 L0.8 -1.35 0.7 -1.25 0.65 -1.2 Q0.65 -1.15 0.75 -1.1 0.75 -1.05 0.8 -1.05 L0.9 -1.15 0.95 -1.1 0.9 -0.95 0.85 -0.85 0.75 -0.9 0.65 -0.9 0.65 -0.95 0.55 -1.0 0.5 -0.95 0.5 -0.85 Q0.5 -0.85 0.55 -0.85 L0.6 -0.8 0.6 -0.7 Q0.55 -0.7 0.5 -0.75 L0.5 -0.6 Q0.45 -0.55 0.4 -0.55 0.35 -0.6 0.4 -0.55 L0.45 -0.5 0.5 -0.45 0.5 -0.4 0.4 -0.3 Q0.45 -0.25 0.5 -0.2 0.4 -0.2 0.3 -0.3 0.2 -0.45 0.3 -0.55 L0.35 -0.65 0.3 -0.75 Q0.3 -0.85 0.4 -0.95 L0.55 -1.05 M0.9 -1.45 L0.9 -1.45" fill="#a4f2f8" fill-rule="evenodd" stroke="none"/>
    <path d="M1.2 -1.3 L1.25 -1.4 1.35 -1.5 1.35 -1.35 1.25 -1.25 1.2 -1.15 1.1 -1.1 1.15 -1.2 1.2 -1.3" fill="#92e3ea" fill-rule="evenodd" stroke="none"/>
    <path d="M1.15 -0.95 L1.15 -1.05 1.1 -1.1 1.2 -1.15 1.25 -1.25 Q1.3 -1.2 1.25 -1.1 L1.15 -0.95" fill="#5d8f9c" fill-rule="evenodd" stroke="none"/>
    <path d="M1.35 -1.35 Q1.4 -1.25 1.5 -1.3 L1.55 -1.35 1.55 -1.3 1.4 -1.15 1.25 -1.0 1.2 -0.9 1.15 -0.95 1.25 -1.1 Q1.3 -1.2 1.25 -1.25 L1.35 -1.35" fill="#6ab4c4" fill-rule="evenodd" stroke="none"/>
    <path d="M1.45 -1.6 L1.55 -1.55 1.55 -1.5 1.45 -1.5 1.4 -1.4 1.35 -1.35 1.35 -1.5 1.35 -1.5 1.45 -1.6" fill="#79afb2" fill-rule="evenodd" stroke="none"/>
    <path d="M1.55 -1.55 L1.6 -1.45 1.6 -1.3 1.55 -1.3 1.55 -1.35 1.5 -1.3 Q1.4 -1.25 1.35 -1.35 L1.4 -1.4 1.45 -1.5 1.55 -1.5 1.55 -1.55" fill="#53838a" fill-rule="evenodd" stroke="none"/>
    <path d="M1.55 -1.3 L1.6 -1.3 1.55 -1.15 Q1.55 -1.05 1.45 -1.1 1.4 -1.05 1.4 -0.95 L1.4 -0.85 1.25 -0.7 Q1.15 -0.65 1.15 -0.55 L1.1 -0.55 Q1.05 -0.5 1.05 -0.55 L1.05 -0.65 1.25 -0.8 Q1.3 -0.85 1.25 -1.0 L1.4 -1.15 1.55 -1.3" fill="#266a8d" fill-rule="evenodd" stroke="none"/>
    <path d="M0.75 -1.95 Q0.75 -1.9 0.9 -1.8 0.9 -1.8 0.85 -1.75 0.8 -1.7 0.85 -1.65 0.8 -1.65 0.75 -1.7 L0.65 -1.75 0.7 -1.85 0.7 -2.0 0.75 -1.95" fill="#5597a0" fill-rule="evenodd" stroke="none"/>
    <path d="M0.65 -2.05 L0.65 -1.85 0.5 -1.85 0.4 -1.9 0.4 -2.0 0.45 -2.1 0.55 -2.05 Q0.6 -2.0 0.65 -2.05 L0.65 -2.05" fill="#37b6de" fill-rule="evenodd" stroke="none"/>
    <path d="M0.7 -2.0 L0.7 -1.85 0.65 -1.75 0.65 -1.65 0.7 -1.6 Q0.6 -1.65 0.55 -1.55 L0.45 -1.45 0.35 -1.4 0.25 -1.3 0.2 -1.4 0.2 -1.45 0.15 -1.5 0.05 -1.55 0.05 -1.75 0.05 -1.95 0.0 -2.05 Q0.0 -2.15 0.05 -2.1 L0.1 -1.95 0.1 -1.7 0.15 -1.6 0.25 -1.5 0.3 -1.5 0.35 -1.55 Q0.45 -1.45 0.55 -1.6 L0.65 -1.85 0.65 -2.05 0.7 -2.0" fill="#87f2f8" fill-rule="evenodd" stroke="none"/>
    <path d="M0.65 -1.85 L0.55 -1.6 Q0.45 -1.45 0.35 -1.55 L0.4 -1.7 Q0.45 -1.8 0.35 -1.8 L0.4 -1.9 0.5 -1.85 0.65 -1.85" fill="#47f8ff" fill-rule="evenodd" stroke="none"/>
    <path d="M0.05 -1.95 L0.05 -1.75 0.0 -1.85 0.05 -1.95" fill="#93b4ae" fill-rule="evenodd" stroke="none"/>
    <path d="M0.35 -1.55 L0.3 -1.5 0.25 -1.5 0.15 -1.6 0.1 -1.7 0.25 -1.75 0.35 -1.8 Q0.45 -1.8 0.4 -1.7 L0.35 -1.55" fill="#39d4f8" fill-rule="evenodd" stroke="none"/>
    <path d="M0.15 -1.5 L0.2 -1.45 0.15 -1.35 0.15 -1.5 M0.15 -1.35 L0.15 -1.35" fill="#76a59f" fill-rule="evenodd" stroke="none"/>
    <path d="M0.2 -1.45 L0.2 -1.4 0.25 -1.3 0.35 -1.4 0.45 -1.45 0.55 -1.55 Q0.6 -1.65 0.7 -1.6 L0.85 -1.6 Q0.9 -1.55 0.9 -1.45 0.75 -1.4 0.65 -1.3 L0.55 -1.05 0.5 -1.1 0.45 -1.15 Q0.45 -1.2 0.55 -1.3 0.6 -1.35 0.55 -1.4 L0.45 -1.4 0.4 -1.35 0.3 -1.25 0.25 -1.25 Q0.2 -1.35 0.2 -1.3 L0.2 -1.2 0.15 -1.35 0.2 -1.45" fill="#d1ffff" fill-rule="evenodd" stroke="none"/>
    <path d="M0.15 -1.35 L0.15 -1.35 0.2 -1.2 0.2 -1.05 Q0.15 -1.05 0.1 -1.1 L0.1 -1.2 0.1 -1.3 0.15 -1.25 0.15 -1.35" fill="#435250" fill-rule="evenodd" stroke="none"/>
    <path d="M0.1 -1.2 L0.1 -1.1 Q0.15 -1.05 0.2 -1.05 L0.25 -0.75 0.2 -0.75 Q0.15 -0.75 0.1 -0.9 0.1 -1.0 0.0 -1.0 L0.0 -1.15 0.05 -1.2 0.1 -1.2" fill="#7eb0ab" fill-rule="evenodd" stroke="none"/>
    <path d="M0.2 -1.2 L0.2 -1.3 Q0.2 -1.35 0.25 -1.25 L0.3 -1.25 0.4 -1.35 0.45 -1.4 0.55 -1.4 Q0.6 -1.35 0.55 -1.3 0.45 -1.2 0.45 -1.15 L0.5 -1.1 0.55 -1.05 0.4 -0.95 Q0.3 -0.85 0.3 -0.75 L0.25 -0.7 0.25 -0.7 0.25 -0.75 0.2 -1.05 0.2 -1.2" fill="#f5ffff" fill-rule="evenodd" stroke="none"/>
    <path d="M0.95 -1.1 L1.0 -0.9 Q1.05 -0.8 1.0 -0.75 L0.9 -0.65 Q0.85 -0.55 0.95 -0.55 L0.85 -0.5 0.7 -0.6 Q0.75 -0.65 0.75 -0.75 L0.65 -0.9 0.75 -0.9 0.85 -0.85 0.9 -0.95 0.95 -1.1" fill="#558595" fill-rule="evenodd" stroke="none"/>
    <path d="M0.55 -0.85 Q0.5 -0.85 0.5 -0.85 L0.5 -0.95 0.55 -1.0 0.65 -0.95 0.55 -0.85" fill="#91cfd4" fill-rule="evenodd" stroke="none"/>
    <path d="M0.65 -0.9 L0.75 -0.75 Q0.75 -0.65 0.7 -0.6 L0.65 -0.6 0.55 -0.65 0.6 -0.7 0.6 -0.8 0.55 -0.85 0.65 -0.95 0.65 -0.9" fill="#375f73" fill-rule="evenodd" stroke="none"/>
    <path d="M0.7 -0.6 L0.85 -0.5 0.8 -0.45 Q0.75 -0.4 0.7 -0.45 L0.7 -0.5 0.45 -0.5 0.4 -0.55 Q0.35 -0.6 0.4 -0.55 0.45 -0.55 0.5 -0.6 L0.5 -0.75 Q0.55 -0.7 0.6 -0.7 L0.6 -0.8 0.6 -0.7 0.55 -0.65 0.65 -0.6 0.7 -0.6" fill="#6d9eaa" fill-rule="evenodd" stroke="none"/>
    <path d="M0.3 -0.2 L0.2 -0.4 Q0.15 -0.5 0.25 -0.55 L0.25 -0.7 0.25 -0.7 0.3 -0.75 0.35 -0.65 0.3 -0.55 Q0.2 -0.45 0.3 -0.3 0.4 -0.2 0.5 -0.2 L0.55 -0.15 0.6 -0.05 0.55 0.0 Q0.5 0.0 0.5 0.05 L0.55 0.15 0.55 0.25 0.55 0.3 0.6 0.35 0.5 0.35 0.45 0.1 0.45 -0.1 0.4 -0.15 0.35 -0.15 0.3 -0.2" fill="#dafcfa" fill-rule="evenodd" stroke="none"/>
    <path d="M0.25 -0.55 L0.25 -0.7 0.25 -0.55" fill="#749b95" fill-rule="evenodd" stroke="none"/>
    <path d="M-0.15 0.15 L0.05 0.05 0.05 -0.05 Q0.1 -0.1 0.15 -0.1 0.1 0.05 0.15 0.15 L0.2 0.2 0.15 0.2 0.1 0.2 0.05 0.15 Q0.0 0.2 -0.05 0.2 L-0.15 0.15" fill="#718070" fill-rule="evenodd" stroke="none"/>
    <path d="M0.15 0.1 L0.3 0.1 0.4 0.05 0.4 -0.05 0.35 -0.15 0.4 -0.15 0.45 -0.1 0.45 0.1 0.5 0.35 0.45 0.35 Q0.45 0.25 0.4 0.25 L0.3 0.25 0.2 0.2 0.15 0.15 0.15 0.1" fill="#d2ea72" fill-rule="evenodd" stroke="none"/>
    <path d="M0.45 -0.5 L0.7 -0.5 0.7 -0.45 Q0.75 -0.4 0.8 -0.45 L0.7 -0.3 0.65 -0.35 0.55 -0.35 0.55 -0.4 0.5 -0.4 0.5 -0.45 0.45 -0.5" fill="#8fc5ce" fill-rule="evenodd" stroke="none"/>
    <path d="M0.95 -0.55 L1.0 -0.5 1.05 -0.5 1.1 -0.4 Q1.15 -0.35 1.1 -0.35 1.05 -0.35 0.95 -0.25 0.9 -0.2 0.85 -0.2 L0.75 -0.2 0.75 -0.15 Q0.75 -0.05 0.85 -0.05 L0.85 0.0 0.8 0.05 Q0.75 0.0 0.65 0.0 L0.5 0.05 Q0.5 0.0 0.55 0.0 L0.6 -0.05 0.55 -0.15 0.65 -0.2 0.7 -0.3 0.8 -0.45 0.95 -0.55" fill="#aef2fb" fill-rule="evenodd" stroke="none"/>
    <path d="M0.5 -0.2 Q0.45 -0.25 0.4 -0.3 L0.5 -0.4 0.55 -0.4 0.55 -0.35 0.65 -0.35 0.7 -0.3 0.65 -0.2 0.55 -0.15 0.5 -0.2" fill="#6a94a0" fill-rule="evenodd" stroke="none"/>
    <path d="M1.05 -0.5 Q1.15 -0.5 1.25 -0.4 L1.25 -0.35 1.2 -0.35 1.15 -0.25 Q1.1 -0.2 1.0 -0.2 0.9 -0.25 0.9 -0.2 L0.95 -0.1 0.9 -0.05 0.85 -0.05 Q0.75 -0.05 0.75 -0.15 L0.75 -0.2 0.85 -0.2 Q0.9 -0.2 0.95 -0.25 1.05 -0.35 1.1 -0.35 1.15 -0.35 1.1 -0.4 L1.05 -0.5" fill="#8cbed2" fill-rule="evenodd" stroke="none"/>
    <path d="M1.7 -0.65 L1.8 -0.75 2.0 -0.8 Q2.1 -0.75 2.15 -0.7 L2.15 -0.5 2.1 -0.55 Q2.15 -0.65 2.1 -0.7 L1.95 -0.75 1.85 -0.7 Q1.8 -0.65 1.8 -0.6 L1.9 -0.55 2.0 -0.55 2.0 -0.25 Q2.0 -0.1 1.9 0.0 1.95 0.05 2.05 0.05 L2.05 0.15 1.95 0.2 1.65 0.15 Q1.45 0.15 1.35 0.25 L1.3 0.2 1.25 0.1 Q1.3 0.05 1.2 0.05 L1.1 0.05 1.15 -0.1 Q1.15 -0.2 1.3 -0.15 L1.4 -0.15 1.5 -0.15 1.55 -0.3 1.5 -0.4 Q1.5 -0.5 1.6 -0.55 L1.8 -0.55 1.8 -0.6 1.7 -0.6 1.7 -0.65" fill="#314c54" fill-rule="evenodd" stroke="none"/>
    <path d="M1.5 -0.4 Q1.45 -0.45 1.3 -0.45 1.15 -0.5 1.1 -0.55 L1.15 -0.55 1.45 -0.55 1.7 -0.6 1.8 -0.6 1.8 -0.55 1.6 -0.55 Q1.5 -0.5 1.5 -0.4" fill="#517681" fill-rule="evenodd" stroke="none"/>
    <path d="M1.2 -0.85 L1.2 -0.9 1.25 -1.0 Q1.3 -0.85 1.25 -0.8 L1.05 -0.65 1.15 -0.75 1.2 -0.85" fill="#488cab" fill-rule="evenodd" stroke="none"/>
    <path d="M0.95 -0.55 L1.2 -0.85 1.15 -0.75 1.05 -0.65 1.05 -0.55 Q1.05 -0.5 1.1 -0.55 1.15 -0.5 1.3 -0.45 1.45 -0.45 1.5 -0.4 L1.55 -0.3 1.5 -0.15 1.25 -0.25 Q1.1 -0.25 1.15 -0.1 L1.1 0.05 1.05 0.0 Q1.0 -0.05 0.95 0.0 L1.0 -0.05 Q1.0 -0.1 0.95 -0.1 L0.9 -0.2 Q0.9 -0.25 1.0 -0.2 1.1 -0.2 1.15 -0.25 L1.2 -0.35 1.25 -0.35 1.25 -0.4 Q1.15 -0.5 1.05 -0.5 L1.0 -0.5 0.95 -0.55" fill="#799ba6" fill-rule="evenodd" stroke="none"/>
    <path d="M0.95 -0.1 Q1.0 -0.1 1.0 -0.05 L0.95 0.0 1.0 0.05 1.0 0.1 0.9 0.15 0.85 0.1 0.85 0.0 0.85 -0.05 0.9 -0.05 0.95 -0.1" fill="#3c748d" fill-rule="evenodd" stroke="none"/>
    <path d="M1.15 -0.1 Q1.1 -0.25 1.25 -0.25 L1.5 -0.15 1.4 -0.15 1.3 -0.15 Q1.15 -0.2 1.15 -0.1" fill="#5f797e" fill-rule="evenodd" stroke="none"/>
    <path d="M1.8 -0.75 Q1.7 -0.75 1.7 -0.9 L1.75 -1.1 Q1.9 -1.2 1.95 -1.35 2.0 -1.5 1.95 -1.65 2.0 -1.7 1.95 -1.85 L1.85 -2.05 Q1.75 -2.1 1.75 -2.2 L2.15 -2.2 Q2.0 -2.1 2.0 -1.9 L2.05 -1.75 2.05 -1.6 Q2.0 -1.5 2.05 -1.45 L2.2 -1.45 2.2 -0.4 2.15 -0.5 2.15 -0.7 Q2.1 -0.75 2.0 -0.8 L1.8 -0.75" fill="#132232" fill-rule="evenodd" stroke="none"/>
    <path d="M2.05 0.05 Q1.95 0.05 1.9 0.0 2.0 -0.1 2.0 -0.25 L2.0 -0.55 1.9 -0.55 1.8 -0.6 Q1.8 -0.65 1.85 -0.7 L1.95 -0.75 2.1 -0.7 Q2.15 -0.65 2.1 -0.55 L2.1 -0.2 2.05 0.05" fill="#26343a" fill-rule="evenodd" stroke="none"/>
    <path d="M2.15 -0.5 L2.2 -0.4 2.2 0.1 2.1 0.1 2.1 -0.2 2.1 -0.55 2.15 -0.5" fill="#345e6b" fill-rule="evenodd" stroke="none"/>
    <path d="M1.65 0.45 L1.85 0.45 Q1.95 0.45 1.95 0.35 L2.05 0.25 2.1 0.1 2.2 0.1 2.2 0.85 2.05 0.85 1.9 0.9 Q1.9 0.85 1.85 0.75 L1.7 0.75 Q1.7 0.7 1.75 0.7 L1.8 0.65 Q1.8 0.6 1.7 0.55 L1.6 0.5 1.65 0.45" fill="#297f98" fill-rule="evenodd" stroke="none"/>
    <path d="M2.05 0.05 L2.1 -0.2 2.1 0.1 2.05 0.25 1.95 0.35 Q1.95 0.45 1.85 0.45 L1.65 0.45 Q1.7 0.4 1.6 0.4 L1.45 0.4 1.35 0.35 1.35 0.25 Q1.45 0.15 1.65 0.15 L1.95 0.2 2.05 0.15 2.05 0.05" fill="#52858d" fill-rule="evenodd" stroke="none"/>
    <path d="M1.7 0.75 L1.85 0.75 Q1.9 0.85 1.9 0.9 L2.05 0.85 2.2 0.85 2.2 0.95 2.0 1.0 Q1.85 1.05 1.8 1.0 L1.7 1.0 1.65 1.0 Q1.6 0.9 1.5 0.95 L1.35 1.05 1.35 0.9 1.4 0.9 1.5 0.85 1.6 0.85 1.65 0.8 1.7 0.75" fill="#256a85" fill-rule="evenodd" stroke="none"/>
    <path d="M2.2 0.95 L2.2 1.4 2.1 1.35 Q2.05 1.35 2.05 1.4 2.0 1.45 1.85 1.5 1.75 1.55 1.75 1.65 L1.65 1.65 Q1.6 1.7 1.6 1.65 1.55 1.65 1.55 1.65 L1.45 1.65 1.4 1.65 1.4 1.5 1.35 1.3 1.35 1.05 1.5 0.95 Q1.6 0.9 1.65 1.0 L1.7 1.0 1.8 1.0 Q1.85 1.05 2.0 1.0 L2.2 0.95" fill="#26536f" fill-rule="evenodd" stroke="none"/>
    <path d="M2.2 1.4 L2.2 1.5 2.1 1.6 1.95 1.65 Q1.8 1.75 1.85 1.85 L1.8 2.0 1.65 2.1 Q1.6 2.1 1.6 2.2 L1.5 2.2 Q1.55 2.1 1.6 2.05 L1.7 1.95 Q1.7 1.9 1.7 1.8 L1.75 1.65 Q1.75 1.55 1.85 1.5 2.0 1.45 2.05 1.4 2.05 1.35 2.1 1.35 L2.2 1.4" fill="#1b3c65" fill-rule="evenodd" stroke="none"/>
    <path d="M2.2 1.5 L2.2 1.65 2.1 1.9 2.1 2.2 1.6 2.2 Q1.6 2.1 1.65 2.1 L1.8 2.0 1.85 1.85 Q1.8 1.75 1.95 1.65 L2.1 1.6 2.2 1.5" fill="#182c51" fill-rule="evenodd" stroke="none"/>
    <path d="M2.2 1.65 L2.2 2.2 2.1 2.2 2.1 1.9 2.2 1.65" fill="#3b475e" fill-rule="evenodd" stroke="none"/>
    <path d="M1.45 0.4 L1.6 0.4 Q1.7 0.4 1.65 0.45 L1.6 0.5 Q1.55 0.5 1.5 0.55 L1.35 0.65 Q1.3 0.6 1.4 0.5 L1.45 0.4" fill="#40bbd9" fill-rule="evenodd" stroke="none"/>
    <path d="M1.35 0.35 L1.45 0.4 1.4 0.5 Q1.3 0.6 1.35 0.65 L1.35 0.75 1.4 0.85 1.25 0.75 1.2 0.65 1.1 0.5 1.25 0.45 1.3 0.4 1.35 0.35" fill="#47d6f6" fill-rule="evenodd" stroke="none"/>
    <path d="M1.6 0.5 L1.7 0.55 Q1.8 0.6 1.8 0.65 L1.75 0.7 Q1.7 0.7 1.7 0.75 L1.65 0.8 1.6 0.85 1.5 0.85 1.4 0.9 1.4 0.85 1.35 0.75 1.35 0.65 1.5 0.55 Q1.55 0.5 1.6 0.5" fill="#2f9fbd" fill-rule="evenodd" stroke="none"/>
    <path d="M1.35 0.25 L1.35 0.35 1.3 0.4 1.25 0.45 1.2 0.4 1.2 0.3 Q1.15 0.3 1.2 0.25 L1.15 0.15 1.25 0.1 1.3 0.2 1.35 0.25" fill="#357a90" fill-rule="evenodd" stroke="none"/>
    <path d="M0.95 0.0 Q1.0 -0.05 1.05 0.0 L1.1 0.05 1.2 0.05 Q1.3 0.05 1.25 0.1 L1.15 0.15 1.1 0.2 1.05 0.2 1.0 0.1 1.0 0.05 0.95 0.0" fill="#84d7ee" fill-rule="evenodd" stroke="none"/>
    <path d="M0.85 0.0 L0.85 0.1 0.9 0.15 1.0 0.1 1.0 0.05 1.0 0.1 1.05 0.2 1.1 0.2 1.15 0.15 1.2 0.25 Q1.15 0.3 1.2 0.3 L1.2 0.4 1.25 0.45 1.2 0.45 1.1 0.45 0.9 0.4 0.85 0.4 Q0.8 0.35 0.95 0.3 L0.8 0.2 Q0.7 0.2 0.65 0.1 0.7 0.1 0.75 0.1 L0.8 0.05 0.85 0.0" fill="#4a91a9" fill-rule="evenodd" stroke="none"/>
    <path d="M0.9 0.4 L1.1 0.45 1.2 0.45 1.25 0.45 1.1 0.5 1.2 0.65 1.25 0.75 1.2 0.8 1.1 0.85 1.0 0.85 0.95 0.75 0.9 0.6 0.9 0.4" fill="#78e7fc" fill-rule="evenodd" stroke="none"/>
    <path d="M1.4 0.85 L1.4 0.9 1.35 0.9 Q1.35 0.85 1.2 0.85 L1.05 0.9 0.9 0.9 0.95 0.75 1.0 0.85 1.1 0.85 1.2 0.8 1.25 0.75 1.4 0.85" fill="#61bedd" fill-rule="evenodd" stroke="none"/>
    <path d="M0.6 0.35 L0.55 0.3 0.55 0.25 0.85 0.4 0.9 0.4 0.9 0.6 0.95 0.75 0.9 0.9 0.85 0.9 0.8 0.95 0.75 1.05 0.7 1.1 Q0.6 1.15 0.65 1.2 0.7 1.25 0.8 1.3 L0.95 1.3 1.1 1.3 1.0 1.35 0.85 1.35 0.8 1.35 0.75 1.35 0.6 1.2 Q0.55 1.15 0.55 1.05 L0.7 1.0 0.85 0.85 Q0.9 0.7 0.85 0.55 0.75 0.4 0.6 0.35" fill="#a8eff2" fill-rule="evenodd" stroke="none"/>
    <path d="M1.05 0.9 L1.2 1.1 1.1 1.2 1.15 1.3 1.05 1.3 0.95 1.3 0.8 1.3 Q0.7 1.25 0.65 1.2 L0.7 1.1 0.75 1.1 Q0.9 1.15 0.85 1.1 L0.8 0.95 0.85 0.9 0.9 0.9 1.05 0.9" fill="#3a90b8" fill-rule="evenodd" stroke="none"/>
    <path d="M1.05 0.9 L1.2 0.85 Q1.35 0.85 1.35 0.9 L1.35 1.05 1.2 1.1 1.05 0.9" fill="#5b99b2" fill-rule="evenodd" stroke="none"/>
    <path d="M0.55 0.25 L0.55 0.15 0.5 0.05 0.65 0.0 Q0.75 0.0 0.8 0.05 L0.75 0.1 Q0.7 0.1 0.65 0.1 L0.55 0.25" fill="#85eafb" fill-rule="evenodd" stroke="none"/>
    <path d="M0.65 0.1 Q0.7 0.2 0.8 0.2 L0.95 0.3 Q0.8 0.35 0.85 0.4 L0.55 0.25 0.65 0.1" fill="#7ac7db" fill-rule="evenodd" stroke="none"/>
    <path d="M0.5 0.35 L0.6 0.35 Q0.75 0.4 0.85 0.55 0.9 0.7 0.85 0.85 L0.7 1.0 0.55 1.05 0.55 1.0 Q0.75 1.0 0.8 0.8 0.85 0.6 0.7 0.45 0.7 0.4 0.6 0.4 L0.5 0.35" fill="#4b5651" fill-rule="evenodd" stroke="none"/>
    <path d="M0.7 0.55 L0.55 0.45 0.5 0.6 Q0.5 0.65 0.55 0.65 L0.65 0.6 Q0.7 0.6 0.7 0.55 M0.5 0.35 L0.6 0.4 Q0.7 0.4 0.7 0.45 0.85 0.6 0.8 0.8 0.75 1.0 0.55 1.0 L0.45 0.95 0.4 0.85 0.55 0.8 0.65 0.75 0.75 0.65 0.6 0.7 0.45 0.7 Q0.4 0.65 0.45 0.55 L0.4 0.45 Q0.4 0.4 0.45 0.35 L0.5 0.35 M0.7 0.75 L0.6 0.8 0.5 0.85 Q0.5 0.95 0.55 0.95 0.65 0.95 0.7 0.9 L0.75 0.8 Q0.75 0.75 0.7 0.75" fill="#baf5f5" fill-rule="evenodd" stroke="none"/>
    <path d="M0.7 0.55 Q0.7 0.6 0.65 0.6 L0.55 0.65 Q0.5 0.65 0.5 0.6 L0.55 0.45 0.7 0.55" fill="#7ef7ff" fill-rule="evenodd" stroke="none"/>
    <path d="M0.45 0.35 Q0.4 0.4 0.4 0.45 L0.45 0.55 Q0.4 0.55 0.35 0.6 L0.3 0.65 0.25 0.6 0.2 0.55 Q0.2 0.4 0.1 0.3 L0.15 0.3 0.2 0.25 0.3 0.25 0.4 0.25 Q0.45 0.25 0.45 0.35" fill="#3a413f" fill-rule="evenodd" stroke="none"/>
    <path d="M-0.15 0.15 L-0.05 0.2 Q0.0 0.2 0.05 0.15 L0.1 0.2 0.15 0.2 0.2 0.2 0.3 0.25 0.2 0.25 0.0 0.25 Q-0.1 0.35 -0.1 0.45 L-0.15 0.55 -0.25 0.55 -0.3 0.45 Q-0.35 0.35 -0.4 0.35 L-0.3 0.35 -0.2 0.5 Q-0.15 0.45 -0.2 0.4 L-0.25 0.3 -0.2 0.2 Q-0.15 0.15 -0.2 0.1 L-0.15 0.1 -0.15 0.15" fill="#88a178" fill-rule="evenodd" stroke="none"/>
    <path d="M0.2 0.25 L0.15 0.3 0.1 0.3 Q0.05 0.35 0.05 0.4 L0.0 0.55 Q0.0 0.45 -0.1 0.45 -0.1 0.35 0.0 0.25 L0.2 0.25" fill="#9adba9" fill-rule="evenodd" stroke="none"/>
    <path d="M0.0 0.55 L0.05 0.4 Q0.05 0.35 0.1 0.3 0.2 0.4 0.2 0.55 L0.25 0.6 0.3 0.65 0.15 0.7 Q0.05 0.75 0.0 0.8 L0.0 0.75 0.0 0.7 0.05 0.65 0.0 0.55" fill="#789685" fill-rule="evenodd" stroke="none"/>
    <path d="M0.45 0.55 Q0.4 0.65 0.45 0.7 L0.6 0.7 0.65 0.75 0.55 0.8 0.4 0.85 0.45 0.95 0.55 1.0 0.55 1.05 Q0.55 1.15 0.6 1.2 L0.75 1.35 0.85 1.35 0.95 1.4 Q1.0 1.4 1.0 1.35 L1.2 1.4 Q1.3 1.55 1.25 1.75 L1.0 2.05 0.9 2.0 0.9 1.9 1.0 1.85 1.1 1.8 1.1 1.6 0.95 1.6 0.9 1.5 0.75 1.5 0.6 1.5 Q0.55 1.5 0.5 1.55 L0.4 1.5 Q0.35 1.45 0.35 1.45 L0.3 1.5 0.25 1.45 Q0.2 1.3 0.15 1.35 L0.15 1.3 0.25 1.3 0.4 1.3 Q0.45 1.3 0.45 1.2 L0.35 1.1 Q0.25 1.05 0.2 1.1 L0.15 1.15 0.15 1.2 0.05 1.15 -0.05 1.15 -0.15 1.2 -0.25 1.25 -0.3 1.3 -0.35 1.25 -0.45 1.2 -0.55 1.25 -0.65 1.25 -0.45 1.05 -0.35 1.05 -0.3 1.1 -0.1 1.05 0.0 0.9 0.0 0.8 Q0.05 0.75 0.15 0.7 L0.3 0.65 0.35 0.6 Q0.4 0.55 0.45 0.55 M0.25 0.8 Q0.2 0.8 0.2 0.85 L0.2 1.0 0.25 0.95 Q0.3 0.85 0.25 0.8 M0.15 0.95 L0.2 0.85 Q0.15 0.8 0.15 0.85 0.05 0.9 0.1 0.95 L0.15 1.0 0.15 0.95 M0.7 1.45 L0.6 1.35 Q0.55 1.3 0.55 1.35 L0.45 1.35 0.5 1.4 0.6 1.45 0.7 1.45" fill="#2a2727" fill-rule="evenodd" stroke="none"/>
    <path d="M0.25 0.95 L0.2 1.0 0.2 0.85 Q0.2 0.8 0.25 0.8 L0.2 0.9 Q0.2 0.95 0.25 0.95" fill="#707a78" fill-rule="evenodd" stroke="none"/>
    <path d="M0.15 0.95 L0.15 1.0 0.1 0.95 Q0.05 0.9 0.15 0.85 L0.15 0.95" fill="#e5edeb" fill-rule="evenodd" stroke="none"/>
    <path d="M0.15 0.85 Q0.15 0.8 0.2 0.85 L0.15 0.95 0.15 0.85" fill="#8c9d99" fill-rule="evenodd" stroke="none"/>
    <path d="M0.25 0.8 Q0.3 0.85 0.25 0.95 0.2 0.95 0.2 0.9 L0.25 0.8" fill="#e3f9f8" fill-rule="evenodd" stroke="none"/>
    <path d="M0.0 0.8 L0.0 0.9 Q-0.05 0.9 -0.1 0.95 L-0.25 1.0 Q-0.3 1.0 -0.3 1.0 L-0.3 1.1 -0.35 1.05 -0.45 1.05 -0.65 1.25 -0.75 1.2 -0.8 1.1 -0.75 1.0 Q-0.75 0.9 -0.85 0.95 L-0.85 0.9 Q-0.85 0.85 -0.8 0.85 L-0.6 0.95 -0.45 0.95 -0.35 0.95 -0.15 0.9 0.0 0.75 0.0 0.8" fill="#5f6a68" fill-rule="evenodd" stroke="none"/>
    <path d="M0.7 0.75 Q0.75 0.75 0.75 0.8 L0.7 0.9 Q0.65 0.95 0.55 0.95 0.5 0.95 0.5 0.85 L0.6 0.8 0.7 0.75" fill="#64d6f7" fill-rule="evenodd" stroke="none"/>
    <path d="M0.6 0.7 L0.75 0.65 0.65 0.75 0.6 0.7" fill="#4f6b6d" fill-rule="evenodd" stroke="none"/>
    <path d="M0.65 1.2 Q0.6 1.15 0.7 1.1 L0.75 1.05 0.8 0.95 0.85 1.1 Q0.9 1.15 0.75 1.1 L0.7 1.1 0.65 1.2" fill="#5fc4ef" fill-rule="evenodd" stroke="none"/>
    <path d="M0.85 1.35 L0.75 1.35 0.8 1.35 0.85 1.35" fill="#718f87" fill-rule="evenodd" stroke="none"/>
    <path d="M0.7 1.45 L0.6 1.45 0.5 1.4 0.45 1.35 0.55 1.35 Q0.55 1.3 0.6 1.35 L0.7 1.45" fill="#647a7f" fill-rule="evenodd" stroke="none"/>
    <path d="M0.15 1.35 Q0.2 1.3 0.25 1.45 L0.3 1.5 0.35 1.45 Q0.35 1.45 0.4 1.5 L0.5 1.55 Q0.55 1.5 0.6 1.5 L0.75 1.5 0.7 1.5 0.65 1.55 Q0.75 1.5 0.8 1.6 L0.75 1.75 Q0.7 1.8 0.65 1.75 L0.5 1.7 0.4 1.75 0.3 1.7 0.4 1.7 0.5 1.7 0.25 1.6 Q0.1 1.55 0.05 1.5 L0.1 1.4 0.1 1.35 0.15 1.35" fill="#5e6f73" fill-rule="evenodd" stroke="none"/>
    <path d="M0.75 1.5 L0.9 1.5 0.95 1.6 1.1 1.6 1.1 1.8 1.0 1.85 0.9 1.9 0.9 2.0 0.75 1.95 Q0.8 1.85 0.7 1.85 0.6 1.8 0.55 1.9 L0.4 1.8 0.2 1.75 0.3 1.7 0.4 1.75 0.5 1.7 0.65 1.75 Q0.7 1.8 0.75 1.75 L0.8 1.6 Q0.75 1.5 0.65 1.55 L0.7 1.5 0.75 1.5" fill="#698b94" fill-rule="evenodd" stroke="none"/>
    <path d="M0.15 1.2 L0.15 1.15 0.2 1.1 Q0.2 1.15 0.3 1.25 L0.3 1.3 0.25 1.3 0.15 1.3 Q0.2 1.25 0.15 1.2" fill="#95bbbe" fill-rule="evenodd" stroke="none"/>
    <path d="M0.2 1.1 Q0.25 1.05 0.35 1.1 L0.45 1.2 Q0.45 1.3 0.4 1.3 L0.25 1.3 0.3 1.3 0.3 1.25 Q0.2 1.15 0.2 1.1" fill="#617277" fill-rule="evenodd" stroke="none"/>
    <path d="M-0.35 1.25 L-0.3 1.3 -0.25 1.25 -0.1 1.25 -0.05 1.15 0.05 1.15 0.15 1.2 Q0.2 1.25 0.15 1.3 L0.15 1.35 0.1 1.35 0.1 1.4 0.05 1.5 0.0 1.4 Q-0.05 1.35 -0.1 1.35 L-0.2 1.35 -0.25 1.35 -0.3 1.4 -0.35 1.4 -0.4 1.4 -0.4 1.35 -0.35 1.25 M-0.4 1.4 L-0.4 1.4" fill="#809494" fill-rule="evenodd" stroke="none"/>
    <path d="M0.05 1.5 Q0.1 1.55 0.25 1.6 L0.5 1.7 0.4 1.7 0.3 1.7 0.2 1.75 0.1 1.65 0.0 1.6 -0.1 1.35 Q-0.05 1.35 0.0 1.4 L0.05 1.5" fill="#262528" fill-rule="evenodd" stroke="none"/>
    <path d="M0.2 1.75 L0.4 1.8 0.55 1.9 0.65 1.9 0.75 1.95 0.75 2.0 0.7 2.0 0.5 1.95 0.35 1.85 0.2 1.75" fill="#a7f2f8" fill-rule="evenodd" stroke="none"/>
    <path d="M0.2 1.85 L0.05 1.75 -0.15 1.7 -0.15 1.8 -0.2 1.95 Q-0.2 1.8 -0.3 1.65 L-0.5 1.4 Q-0.5 1.35 -0.45 1.4 L-0.4 1.4 0.2 1.75 0.35 1.85 0.35 1.9 Q0.25 1.9 0.2 1.85 M-0.4 1.4 L-0.4 1.4" fill="#2c5486" fill-rule="evenodd" stroke="none"/>
    <path d="M0.35 1.9 L0.35 1.85 0.5 1.95 0.7 2.0 0.65 2.0 0.5 1.95 Q0.4 1.9 0.35 1.9" fill="#52adf8" fill-rule="evenodd" stroke="none"/>
    <path d="M0.15 2.2 L-0.4 2.2 Q-0.3 2.15 -0.25 2.1 L-0.2 1.95 -0.15 1.8 -0.15 1.7 0.05 1.75 0.2 1.85 Q0.15 1.85 0.05 1.95 L-0.05 2.1 0.05 2.1 Q0.15 2.1 0.15 2.2" fill="#17346c" fill-rule="evenodd" stroke="none"/>
    <path d="M0.2 1.75 L-0.4 1.4 -0.35 1.4 -0.3 1.4 -0.25 1.35 -0.2 1.35 Q-0.25 1.45 -0.15 1.5 L-0.1 1.55 Q-0.05 1.55 0.0 1.6 L0.1 1.65 0.2 1.75" fill="#95c9ca" fill-rule="evenodd" stroke="none"/>
    <path d="M0.8 2.2 L0.7 2.2 Q0.65 2.15 0.55 2.15 L0.45 2.15 Q0.45 2.1 0.5 2.1 L0.5 2.05 0.4 2.05 Q0.35 2.1 0.4 2.2 L0.3 2.2 Q0.25 2.1 0.3 2.05 L0.35 1.9 Q0.4 1.9 0.5 1.95 L0.65 2.0 0.6 2.05 Q0.55 2.05 0.6 2.05 0.65 2.05 0.7 2.1 L0.8 2.2" fill="#1f60e4" fill-rule="evenodd" stroke="none"/>
    <path d="M0.3 2.2 L0.15 2.2 Q0.15 2.1 0.05 2.1 L-0.05 2.1 0.05 1.95 Q0.15 1.85 0.2 1.85 0.25 1.9 0.35 1.9 L0.3 2.05 Q0.25 2.1 0.3 2.2" fill="#184195" fill-rule="evenodd" stroke="none"/>
    <path d="M0.65 2.0 L0.7 2.0 0.75 2.0 0.95 2.05 1.2 2.05 Q1.1 2.15 0.9 2.1 L0.65 2.0" fill="#4b7caf" fill-rule="evenodd" stroke="none"/>
    <path d="M0.7 2.2 L0.4 2.2 Q0.35 2.1 0.4 2.05 L0.5 2.05 0.5 2.1 Q0.45 2.1 0.45 2.15 L0.55 2.15 Q0.65 2.15 0.7 2.2" fill="#1a4aac" fill-rule="evenodd" stroke="none"/>
    <path d="M1.5 2.2 L0.8 2.2 0.7 2.1 Q0.65 2.05 0.6 2.05 0.55 2.05 0.6 2.05 L0.65 2.0 0.9 2.1 Q1.1 2.15 1.2 2.05 L1.3 1.95 1.4 1.9 1.5 1.95 1.55 2.0 1.6 1.8 Q1.55 1.7 1.45 1.65 L1.55 1.65 Q1.55 1.65 1.6 1.65 1.6 1.7 1.65 1.65 L1.75 1.65 1.7 1.8 Q1.7 1.9 1.7 1.95 L1.6 2.05 Q1.55 2.1 1.5 2.2" fill="#1c417e" fill-rule="evenodd" stroke="none"/>
    <path d="M0.9 2.0 L1.0 2.05 Q1.15 2.05 1.25 1.9 L1.35 1.65 1.4 1.7 1.3 1.95 1.2 2.05 0.95 2.05 0.75 2.0 0.75 1.95 0.9 2.0" fill="#96d2da" fill-rule="evenodd" stroke="none"/>
    <path d="M0.55 1.9 Q0.6 1.8 0.7 1.85 0.8 1.85 0.75 1.95 L0.65 1.9 0.55 1.9" fill="#7abed4" fill-rule="evenodd" stroke="none"/>
    <path d="M1.2 1.1 L1.35 1.05 1.35 1.3 1.4 1.5 1.4 1.65 Q1.4 1.55 1.35 1.45 L1.15 1.3 1.1 1.2 1.2 1.1" fill="#386b84" fill-rule="evenodd" stroke="none"/>
    <path d="M1.15 1.3 L1.35 1.45 Q1.4 1.55 1.4 1.65 L1.4 1.7 1.35 1.65 1.3 1.5 Q1.3 1.4 1.2 1.4 L1.0 1.35 1.1 1.3 0.95 1.3 1.05 1.3 1.15 1.3" fill="#80adb0" fill-rule="evenodd" stroke="none"/>
    <path d="M1.0 1.35 Q1.0 1.4 0.95 1.4 L0.85 1.35 1.0 1.35" fill="#5f7470" fill-rule="evenodd" stroke="none"/>
    <path d="M1.0 2.05 L1.25 1.75 Q1.3 1.55 1.2 1.4 1.3 1.4 1.3 1.5 L1.35 1.65 1.25 1.9 Q1.15 2.05 1.0 2.05" fill="#657576" fill-rule="evenodd" stroke="none"/>
    <path d="M1.3 1.95 L1.4 1.7 1.4 1.65 1.45 1.65 Q1.55 1.7 1.6 1.8 L1.55 2.0 1.5 1.95 1.4 1.9 1.3 1.95" fill="#275da0" fill-rule="evenodd" stroke="none"/>
    <path d="M-0.2 0.1 Q-0.15 0.15 -0.2 0.2 L-0.25 0.3 -0.45 0.3 Q-0.55 0.35 -0.55 0.45 L-0.6 0.45 -0.6 0.3 Q-0.6 0.2 -0.5 0.2 -0.35 0.0 -0.2 0.1" fill="#7a7c58" fill-rule="evenodd" stroke="none"/>
    <path d="M-0.35 0.95 L-0.45 0.95 -0.45 0.75 -0.45 0.7 Q-0.45 0.65 -0.5 0.65 L-0.4 0.6 Q-0.3 0.6 -0.35 0.55 L-0.55 0.5 -0.5 0.45 -0.45 0.4 -0.4 0.35 Q-0.35 0.35 -0.3 0.45 L-0.25 0.55 -0.15 0.55 -0.05 0.6 0.0 0.7 -0.1 0.65 Q-0.15 0.65 -0.15 0.7 -0.15 0.65 -0.2 0.6 L-0.3 0.6 -0.35 0.7 -0.3 0.75 -0.35 0.85 -0.35 0.95" fill="#c3cb55" fill-rule="evenodd" stroke="none"/>
    <path d="M-0.25 0.3 L-0.2 0.4 Q-0.15 0.45 -0.2 0.5 L-0.3 0.35 -0.4 0.35 -0.45 0.4 -0.5 0.45 -0.55 0.45 Q-0.55 0.35 -0.45 0.3 L-0.25 0.3" fill="#332e29" fill-rule="evenodd" stroke="none"/>
    <path d="M-1.2 0.0 Q-1.2 -0.05 -1.1 -0.05 L-1.05 0.05 -1.05 0.1 -1.0 0.05 -0.85 0.15 -0.8 0.15 -0.85 0.1 Q-0.75 0.1 -0.75 0.15 L-0.75 0.25 -0.8 0.2 -0.9 0.2 -0.95 0.2 -1.05 0.25 -1.15 0.2 -1.15 0.15 -1.15 0.1 -1.2 0.0 M-1.15 0.25 L-1.1 0.3 Q-1.25 0.3 -1.15 0.35 L-1.05 0.4 -1.1 0.45 -1.15 0.4 -1.25 0.35 -1.25 0.25 -1.15 0.25" fill="#9dc08b" fill-rule="evenodd" stroke="none"/>
    <path d="M-1.1 0.3 L-1.0 0.3 Q-0.95 0.35 -0.95 0.4 L-0.85 0.35 Q-0.75 0.3 -0.7 0.35 L-0.8 0.4 -0.85 0.45 -0.9 0.55 -0.95 0.55 Q-0.9 0.45 -1.05 0.4 L-1.15 0.35 Q-1.25 0.3 -1.1 0.3 M-0.7 0.35 L-0.7 0.35" fill="#e9f687" fill-rule="evenodd" stroke="none"/>
    <path d="M-0.55 0.45 L-0.5 0.45 -0.55 0.5 -0.65 0.55 Q-0.75 0.45 -0.85 0.45 L-0.8 0.4 -0.7 0.35 -0.6 0.45 -0.55 0.45 M-0.65 0.55 L-0.65 0.55" fill="#b0a549" fill-rule="evenodd" stroke="none"/>
    <path d="M-0.6 0.75 L-0.65 0.55 -0.65 0.55 -0.6 0.6 -0.5 0.65 Q-0.45 0.65 -0.45 0.7 L-0.45 0.75 -0.6 0.75" fill="#678085" fill-rule="evenodd" stroke="none"/>
    <path d="M-0.65 0.55 L-0.55 0.5 -0.35 0.55 Q-0.3 0.6 -0.4 0.6 L-0.5 0.65 -0.6 0.6 -0.65 0.55" fill="#f2f987" fill-rule="evenodd" stroke="none"/>
    <path d="M-0.45 0.95 L-0.6 0.95 -0.8 0.85 Q-0.85 0.85 -0.85 0.9 L-0.85 0.95 Q-0.75 0.9 -0.75 1.0 L-0.8 1.1 Q-0.9 1.05 -1.05 1.05 -1.05 1.05 -1.05 1.0 L-1.1 0.9 -0.9 0.85 Q-0.75 0.8 -0.8 0.7 -0.8 0.65 -0.75 0.65 L-0.7 0.7 -0.6 0.8 Q-0.55 0.85 -0.6 0.75 L-0.45 0.75 -0.45 0.95" fill="#b1a647" fill-rule="evenodd" stroke="none"/>
    <path d="M-0.85 0.75 Q-0.9 0.65 -0.8 0.6 -0.75 0.55 -0.7 0.6 L-0.7 0.7 -0.75 0.65 Q-0.8 0.65 -0.8 0.7 -0.75 0.8 -0.9 0.85 L-1.1 0.9 -1.05 1.0 Q-1.05 1.05 -1.05 1.05 L-1.2 1.05 -1.25 1.0 -1.25 0.95 -1.1 0.9 -0.95 0.85 -0.9 0.8 -0.85 0.75" fill="#dedd6c" fill-rule="evenodd" stroke="none"/>
    <path d="M-0.8 0.6 L-0.75 0.55 Q-0.75 0.5 -0.8 0.5 L-0.9 0.55 -0.9 0.55 -0.85 0.45 Q-0.75 0.45 -0.65 0.55 L-0.6 0.75 Q-0.55 0.85 -0.6 0.8 L-0.7 0.7 -0.7 0.6 Q-0.75 0.55 -0.8 0.6" fill="#dbf7e4" fill-rule="evenodd" stroke="none"/>
    <path d="M-0.9 0.55 L-0.9 0.55 -0.8 0.5 Q-0.75 0.5 -0.75 0.55 L-0.8 0.6 Q-0.9 0.65 -0.85 0.75 L-0.9 0.75 Q-0.9 0.65 -0.95 0.65 L-1.0 0.55 -0.95 0.55 -0.9 0.55" fill="#9cc1a3" fill-rule="evenodd" stroke="none"/>
    <path d="M0.0 0.75 L-0.15 0.9 -0.35 0.95 -0.35 0.85 -0.3 0.75 Q-0.2 0.75 -0.15 0.7 -0.15 0.65 -0.1 0.65 L0.0 0.7 0.0 0.75" fill="#b2a845" fill-rule="evenodd" stroke="none"/>
    <path d="M-0.05 0.6 L0.0 0.55 0.05 0.65 0.0 0.7 -0.05 0.6" fill="#94cda3" fill-rule="evenodd" stroke="none"/>
    <path d="M-0.1 0.45 Q0.0 0.45 0.0 0.55 L-0.05 0.6 -0.15 0.55 -0.1 0.45" fill="#ddf98b" fill-rule="evenodd" stroke="none"/>
    <path d="M-0.15 0.7 Q-0.2 0.75 -0.3 0.75 L-0.35 0.7 -0.3 0.6 -0.2 0.6 Q-0.15 0.65 -0.15 0.7" fill="#f4fa82" fill-rule="evenodd" stroke="none"/>
    <path d="M0.0 0.9 L-0.1 1.05 -0.3 1.1 -0.3 1.0 Q-0.3 1.0 -0.25 1.0 L-0.1 0.95 Q-0.05 0.9 0.0 0.9" fill="#aaac77" fill-rule="evenodd" stroke="none"/>
    <path d="M-1.35 0.15 L-1.25 0.15 Q-1.25 0.1 -1.25 0.05 -1.3 -0.05 -1.25 0.0 -1.2 0.0 -1.2 0.0 L-1.15 0.1 -1.15 0.15 -1.15 0.2 -1.15 0.25 -1.25 0.25 -1.25 0.35 -1.15 0.4 -1.25 0.45 -1.3 0.45 -1.4 0.35 -1.35 0.2 -1.35 0.15 M-1.3 0.45 L-1.3 0.45" fill="#506a70" fill-rule="evenodd" stroke="none"/>
    <path d="M-1.2 0.6 L-1.25 0.55 -1.3 0.45 -1.25 0.45 -1.2 0.5 Q-1.15 0.55 -1.2 0.6" fill="#9bcfc7" fill-rule="evenodd" stroke="none"/>
    <path d="M-1.0 0.55 L-0.95 0.65 Q-0.9 0.8 -1.05 0.75 L-1.3 0.65 -1.2 0.6 Q-1.15 0.55 -1.2 0.5 L-1.25 0.45 -1.15 0.4 -1.1 0.45 Q-1.05 0.5 -1.0 0.55" fill="#455759" fill-rule="evenodd" stroke="none"/>
    <path d="M-1.5 0.05 L-1.45 0.2 Q-1.4 0.3 -1.35 0.2 L-1.4 0.35 -1.4 0.5 Q-1.35 0.5 -1.35 0.5 L-1.3 0.45 -1.25 0.55 -1.2 0.6 -1.3 0.65 -1.3 0.75 Q-1.35 0.65 -1.4 0.55 L-1.55 0.55 -1.6 0.6 -1.65 0.55 -1.55 0.45 -1.45 0.4 Q-1.4 0.4 -1.45 0.3 -1.45 0.25 -1.5 0.25 L-1.55 0.15 -1.5 0.05 -1.5 0.05 M-1.3 0.75 L-1.3 0.75 M-1.3 0.45 L-1.3 0.45" fill="#548c9e" fill-rule="evenodd" stroke="none"/>
    <path d="M-0.95 0.55 L-1.0 0.55 Q-1.05 0.5 -1.1 0.45 L-1.05 0.4 Q-0.9 0.45 -0.95 0.55" fill="#c9f1dc" fill-rule="evenodd" stroke="none"/>
    <path d="M-1.5 0.05 L-1.55 0.15 -1.5 0.25 Q-1.45 0.25 -1.45 0.3 -1.4 0.4 -1.45 0.4 -1.5 0.3 -1.6 0.35 L-1.7 0.45 -1.7 0.3 Q-1.65 0.2 -1.75 0.15 L-1.7 0.1 Q-1.7 0.1 -1.75 0.1 -1.7 0.05 -1.65 0.05 L-1.5 0.05" fill="#294c64" fill-rule="evenodd" stroke="none"/>
    <path d="M-1.45 0.4 L-1.55 0.45 -1.65 0.55 -1.7 0.7 -1.8 0.5 -1.8 0.2 -1.75 0.15 Q-1.65 0.2 -1.7 0.3 L-1.7 0.45 -1.6 0.35 Q-1.5 0.3 -1.45 0.4" fill="#1e3245" fill-rule="evenodd" stroke="none"/>
    <path d="M-1.3 0.45 L-1.35 0.5 Q-1.35 0.5 -1.4 0.5 L-1.4 0.35 -1.3 0.45" fill="#86d9e6" fill-rule="evenodd" stroke="none"/>
    <path d="M-2.2 1.1 L-2.2 0.9 Q-2.05 1.0 -1.9 1.0 -1.75 1.0 -1.7 0.85 L-1.65 0.8 -1.65 0.75 Q-1.6 0.6 -1.55 0.6 L-1.45 0.7 -1.3 0.75 -1.3 0.75 -1.3 1.0 -1.3 1.05 -1.3 1.1 -1.35 1.0 -1.35 0.85 -1.6 0.75 -1.7 0.95 Q-1.75 1.05 -1.8 1.1 -1.95 1.2 -2.2 1.1" fill="#283642" fill-rule="evenodd" stroke="none"/>
    <path d="M-1.65 0.55 L-1.6 0.6 -1.55 0.55 -1.4 0.55 Q-1.35 0.65 -1.3 0.75 L-1.45 0.7 -1.55 0.6 Q-1.6 0.6 -1.65 0.75 L-1.65 0.8 -1.7 0.85 -1.7 0.7 -1.65 0.55" fill="#2b5875" fill-rule="evenodd" stroke="none"/>
    <path d="M-2.2 1.7 L-2.2 1.1 Q-1.95 1.2 -1.8 1.1 -1.75 1.05 -1.7 0.95 L-1.6 0.75 -1.35 0.85 -1.35 1.0 -1.3 1.1 -1.25 1.2 -1.4 1.45 Q-1.5 1.55 -1.5 1.65 L-1.65 1.85 Q-1.7 1.9 -1.85 1.9 L-1.95 1.8 -2.1 1.8 -2.15 1.75 -2.2 1.7" fill="#091122" fill-rule="evenodd" stroke="none"/>
    <path d="M-2.2 0.9 L-2.2 0.75 Q-2.15 0.85 -2.05 0.85 -1.95 0.85 -1.9 0.8 -1.95 0.7 -1.85 0.7 -1.8 0.65 -1.8 0.55 L-1.8 0.5 -1.7 0.7 -1.7 0.85 Q-1.75 1.0 -1.9 1.0 -2.05 1.0 -2.2 0.9" fill="#151722" fill-rule="evenodd" stroke="none"/>
    <path d="M-0.9 0.75 L-0.85 0.75 -0.9 0.8 -0.95 0.85 -1.05 0.85 -0.95 0.8 -0.9 0.75" fill="#c9eacf" fill-rule="evenodd" stroke="none"/>
    <path d="M-0.95 0.65 Q-0.9 0.65 -0.9 0.75 L-0.95 0.8 -1.05 0.8 -1.15 0.8 Q-1.3 0.85 -1.25 0.95 L-1.25 1.0 -1.3 1.0 -1.3 0.75 -1.3 0.65 -1.05 0.75 Q-0.9 0.8 -0.95 0.65" fill="#687d79" fill-rule="evenodd" stroke="none"/>
    <path d="M-1.25 0.95 Q-1.3 0.85 -1.15 0.8 L-1.05 0.8 -0.95 0.8 -1.05 0.85 -0.95 0.85 -1.1 0.9 -1.25 0.95" fill="#a3b899" fill-rule="evenodd" stroke="none"/>
    <path d="M-0.65 1.25 L-0.55 1.25 -0.45 1.2 -0.5 1.25 -0.55 1.3 -0.8 1.2 -0.85 1.15 -0.85 1.15 -1.05 1.15 -1.1 1.15 -1.1 1.15 -1.15 1.15 Q-1.25 1.15 -1.3 1.05 L-1.3 1.0 -1.25 1.0 -1.2 1.05 -1.05 1.05 Q-0.9 1.05 -0.8 1.1 L-0.75 1.2 -0.65 1.25" fill="#94af94" fill-rule="evenodd" stroke="none"/>
    <path d="M-0.55 1.8 Q-0.5 1.7 -0.6 1.6 L-0.75 1.45 -0.85 1.4 Q-0.9 1.35 -0.9 1.25 L-0.95 1.25 -0.95 1.2 Q-0.9 1.15 -0.85 1.15 L-0.8 1.2 -0.75 1.35 -0.65 1.45 -0.65 1.35 Q-0.6 1.3 -0.55 1.3 L-0.5 1.5 -0.35 1.65 -0.3 1.75 -0.25 1.9 -0.35 2.0 -0.5 2.05 -0.75 2.15 Q-0.9 2.15 -0.9 2.0 -0.85 2.0 -0.85 1.9 L-0.8 1.95 -0.75 2.0 Q-0.7 2.05 -0.65 2.05 L-0.6 2.05 -0.5 2.0 -0.5 1.9 Q-0.5 1.8 -0.55 1.8" fill="#1f283c" fill-rule="evenodd" stroke="none"/>
    <path d="M-0.85 1.15 Q-0.9 1.15 -0.95 1.2 L-0.95 1.25 -0.9 1.25 Q-0.9 1.35 -0.85 1.4 L-0.75 1.45 -0.6 1.6 Q-0.5 1.7 -0.55 1.8 L-0.65 1.8 -0.65 2.0 -0.6 2.0 -0.6 2.05 -0.65 2.05 Q-0.7 2.05 -0.75 2.0 L-0.8 1.95 -0.85 1.9 Q-0.85 2.0 -0.9 2.0 L-1.0 1.8 Q-1.05 1.7 -1.0 1.65 L-1.1 1.5 Q-1.2 1.45 -1.15 1.35 -1.05 1.35 -1.05 1.4 L-0.95 1.5 -1.05 1.3 -1.1 1.15 -1.1 1.15 -1.05 1.15 -0.85 1.15 -0.85 1.15" fill="#415161" fill-rule="evenodd" stroke="none"/>
    <path d="M-1.1 1.15 L-1.05 1.3 -0.95 1.5 -1.05 1.4 Q-1.05 1.35 -1.15 1.35 L-1.2 1.3 -1.2 1.15 -1.15 1.15 -1.1 1.15" fill="#1d212d" fill-rule="evenodd" stroke="none"/>
    <path d="M-1.3 1.1 L-1.3 1.05 Q-1.25 1.15 -1.15 1.15 L-1.2 1.15 -1.2 1.3 -1.2 1.5 -1.25 1.2 -1.3 1.1 M-1.2 1.5 L-1.2 1.5" fill="#4b615e" fill-rule="evenodd" stroke="none"/>
    <path d="M-0.4 2.2 L-0.85 2.2 -1.05 1.85 -1.2 1.5 -1.2 1.3 -1.15 1.35 Q-1.2 1.45 -1.1 1.5 L-1.0 1.65 Q-1.05 1.7 -1.0 1.8 L-0.9 2.0 Q-0.9 2.15 -0.75 2.15 L-0.5 2.05 -0.45 2.15 -0.35 2.1 -0.25 2.0 -0.25 1.9 -0.3 1.75 -0.35 1.65 -0.5 1.5 -0.55 1.3 Q-0.6 1.3 -0.65 1.35 L-0.65 1.45 -0.75 1.35 -0.8 1.2 -0.55 1.3 -0.45 1.3 -0.4 1.35 -0.4 1.4 -0.45 1.4 Q-0.5 1.35 -0.5 1.4 L-0.3 1.65 Q-0.2 1.8 -0.2 1.95 L-0.25 2.1 Q-0.3 2.15 -0.4 2.2" fill="#597c8a" fill-rule="evenodd" stroke="none"/>
    <path d="M-0.85 2.2 L-1.25 2.2 -1.15 2.1 Q-1.15 2.0 -1.15 1.95 -1.15 1.85 -1.15 1.75 L-1.2 1.5 -1.05 1.85 -0.85 2.2 M-1.2 1.5 L-1.2 1.5" fill="#162b51" fill-rule="evenodd" stroke="none"/>
    <path d="M-1.25 2.2 L-2.2 2.2 -2.2 1.7 -2.15 1.75 -2.1 1.8 -1.95 1.8 -1.85 1.9 Q-1.7 1.9 -1.65 1.85 L-1.5 1.65 Q-1.5 1.55 -1.4 1.45 L-1.25 1.2 -1.2 1.5 -1.15 1.75 Q-1.15 1.85 -1.15 1.95 -1.15 2.0 -1.15 2.1 L-1.25 2.2" fill="#0c1831" fill-rule="evenodd" stroke="none"/>
    <path d="M-0.25 1.25 L-0.15 1.2 -0.05 1.15 -0.1 1.25 -0.25 1.25" fill="#596568" fill-rule="evenodd" stroke="none"/>
    <path d="M-0.45 1.2 L-0.35 1.25 -0.4 1.35 -0.45 1.3 -0.55 1.3 -0.5 1.25 -0.45 1.2" fill="#beede2" fill-rule="evenodd" stroke="none"/>
    <path d="M0.0 1.6 Q-0.05 1.55 -0.1 1.55 L-0.15 1.5 Q-0.25 1.45 -0.2 1.35 L-0.1 1.35 0.0 1.6" fill="#66787a" fill-rule="evenodd" stroke="none"/>
    <path d="M-0.6 2.05 L-0.6 2.0 -0.65 2.0 -0.65 1.8 -0.55 1.8 Q-0.5 1.8 -0.5 1.9 L-0.5 2.0 -0.6 2.05" fill="#496d8c" fill-rule="evenodd" stroke="none"/>
    <path d="M-0.25 1.9 L-0.25 2.0 -0.35 2.1 -0.45 2.15 -0.5 2.05 -0.35 2.0 -0.25 1.9" fill="#445262" fill-rule="evenodd" stroke="none"/>
    <path d="M-2.2 0.75 L-2.2 0.3 -2.1 0.3 -1.8 0.55 Q-1.8 0.65 -1.85 0.7 -1.95 0.7 -1.9 0.8 -1.95 0.85 -2.05 0.85 -2.15 0.85 -2.2 0.75" fill="#2d343d" fill-rule="evenodd" stroke="none"/>
  </g>
</svg>
