<?xml version="1.0" encoding="UTF-8" standalone="no"?>
<svg xmlns:xlink="http://www.w3.org/1999/xlink" height="4.85px" width="7.4px" xmlns="http://www.w3.org/2000/svg">
  <g transform="matrix(1.0, 0.0, 0.0, 1.0, 3.25, 2.05)">
    <path d="M0.4 -2.05 L0.6 -1.85 Q0.65 -1.85 0.75 -1.8 L1.05 -1.6 Q1.2 -1.45 1.25 -1.45 L1.3 -1.5 1.35 -1.4 1.4 -1.45 1.5 -1.4 1.5 -1.4 1.4 -1.35 1.4 -1.3 1.6 -1.3 1.65 -1.3 1.65 -1.3 1.6 -1.25 1.55 -1.25 1.5 -1.25 1.5 -1.15 1.6 -1.15 1.7 -1.05 1.7 -0.9 1.75 -0.9 1.8 -0.8 2.0 -0.65 1.95 -0.6 2.1 -0.5 2.05 -0.45 1.55 -0.45 1.4 -0.4 1.3 -0.4 0.8 -0.45 0.45 -0.4 -0.05 -0.4 -0.1 -0.4 -0.2 -0.45 -0.1 -0.5 0.05 -0.55 Q0.0 -0.6 0.05 -0.65 L0.15 -0.75 0.1 -0.75 0.1 -0.95 Q0.2 -0.95 0.25 -1.1 L0.25 -1.4 0.2 -1.45 0.1 -1.45 0.1 -1.55 0.15 -1.55 Q0.2 -1.55 0.2 -1.65 L0.25 -1.65 0.25 -1.7 0.3 -1.75 0.2 -1.85 0.15 -1.85 0.2 -2.0 0.3 -2.05 0.35 -2.0 0.35 -2.05 0.4 -2.05 M4.1 -0.65 L3.9 -0.6 3.75 -0.55 3.5 -0.5 3.45 -0.55 3.4 -0.55 3.45 -0.5 3.05 -0.5 Q3.0 -0.55 3.1 -0.6 L3.05 -0.65 3.1 -0.75 Q3.1 -0.8 2.75 -0.9 L2.75 -1.05 2.65 -1.1 Q2.6 -1.1 2.6 -1.1 L2.5 -1.2 2.4 -1.2 2.4 -1.25 Q2.35 -1.25 2.25 -1.3 L2.15 -1.35 2.1 -1.35 2.0 -1.35 1.95 -1.35 1.9 -1.4 1.9 -1.45 1.7 -1.45 Q1.6 -1.45 1.6 -1.55 L1.45 -1.65 0.95 -1.8 Q0.8 -1.85 0.7 -1.95 L1.6 -1.7 Q3.7 -1.05 4.1 -0.65 M0.05 -1.95 L0.05 -1.95 -0.4 -1.75 -0.45 -1.75 -0.55 -1.65 -0.75 -1.6 -0.9 -1.6 -1.05 -1.5 Q-1.05 -1.45 -1.15 -1.45 L-1.3 -1.4 -1.35 -1.45 -1.85 -1.25 -1.85 -1.2 -1.95 -1.2 -2.0 -1.15 -1.95 -1.05 -2.0 -1.0 -2.05 -1.0 Q-2.05 -0.95 -2.1 -0.9 L-2.2 -0.85 -2.2 -0.8 -2.25 -0.7 -2.3 -0.7 -2.35 -0.65 -2.45 -0.6 -2.45 -0.65 -2.5 -0.7 -2.5 -0.7 -2.55 -0.7 -2.5 -0.65 -2.55 -0.6 -2.5 -0.6 Q-2.5 -0.55 -2.7 -0.55 L-2.95 -0.6 -3.15 -0.7 Q-2.8 -1.1 -0.25 -1.85 L0.05 -1.95" fill="#161918" fill-rule="evenodd" stroke="none"/>
    <path d="M1.6 -1.3 L1.4 -1.3 1.4 -1.35 1.5 -1.4 1.5 -1.4 1.4 -1.45 1.35 -1.4 1.3 -1.5 1.25 -1.45 Q1.2 -1.45 1.05 -1.6 L0.75 -1.8 Q0.65 -1.85 0.6 -1.85 L0.4 -2.05 0.7 -1.95 Q0.8 -1.85 0.95 -1.8 L1.45 -1.65 1.6 -1.55 Q1.6 -1.45 1.7 -1.45 L1.9 -1.45 1.9 -1.4 1.95 -1.35 2.0 -1.35 2.1 -1.35 2.15 -1.35 2.25 -1.3 Q2.35 -1.25 2.4 -1.25 L2.4 -1.2 2.5 -1.2 2.6 -1.1 Q2.6 -1.1 2.65 -1.1 L2.75 -1.05 2.75 -0.9 Q3.1 -0.8 3.1 -0.75 L3.05 -0.65 3.1 -0.6 Q3.0 -0.55 3.05 -0.5 L3.45 -0.5 3.4 -0.55 3.45 -0.55 3.5 -0.5 3.75 -0.55 3.9 -0.6 4.1 -0.65 4.1 -0.6 Q4.15 -0.45 3.15 -0.4 L3.0 -0.45 Q2.9 -0.45 2.8 -0.55 L2.05 -1.15 Q1.7 -1.3 1.6 -1.4 L1.6 -1.4 1.6 -1.3 M0.15 -1.85 L0.2 -1.85 0.3 -1.75 0.25 -1.7 0.25 -1.65 0.2 -1.65 Q0.2 -1.55 0.15 -1.55 L0.1 -1.55 0.1 -1.45 0.2 -1.45 0.25 -1.4 0.25 -1.1 Q0.2 -0.95 0.1 -0.95 L0.1 -0.75 0.15 -0.75 0.05 -0.65 Q0.0 -0.6 0.05 -0.55 L-0.1 -0.5 -0.2 -0.45 -0.1 -0.4 -0.05 -0.4 0.45 -0.4 0.8 -0.45 1.3 -0.4 1.4 -0.4 1.55 -0.45 2.05 -0.45 2.1 -0.5 1.95 -0.6 2.0 -0.65 1.8 -0.8 1.75 -0.9 1.7 -0.9 1.7 -1.05 1.6 -1.15 1.5 -1.15 1.5 -1.25 1.55 -1.25 1.6 -1.25 1.65 -1.3 2.05 -0.9 Q2.25 -0.8 2.25 -0.5 2.3 -0.35 2.2 -0.3 L2.05 -0.3 1.95 -0.3 1.85 -0.3 1.7 -0.3 1.65 -0.3 0.6 -0.3 0.45 -0.3 0.35 -0.3 0.05 -0.3 -0.85 -0.3 -0.8 -0.4 -0.8 -0.5 -0.65 -0.5 -0.65 -0.55 Q-0.6 -0.55 -0.6 -0.6 -0.5 -0.7 -0.5 -0.75 -0.5 -0.9 -0.45 -0.9 -0.4 -0.95 -0.4 -1.0 L-0.4 -1.1 -0.35 -1.2 Q-0.25 -1.2 -0.25 -1.2 L-0.25 -1.25 Q-0.15 -1.35 -0.15 -1.45 L-0.1 -1.5 -0.05 -1.55 -0.05 -1.75 0.05 -1.9 0.15 -1.85 M-0.4 -1.75 L-0.7 -1.5 Q-1.0 -1.25 -1.05 -1.25 L-1.1 -1.3 -1.15 -1.25 -1.2 -1.2 -1.35 -1.2 -1.45 -1.1 -1.55 -1.0 -1.6 -0.95 Q-1.6 -0.9 -1.7 -0.9 L-1.8 -0.8 -1.9 -0.75 -1.8 -0.55 Q-1.8 -0.5 -1.85 -0.5 L-2.1 -0.6 -2.4 -0.55 -2.5 -0.6 -2.55 -0.6 -2.5 -0.65 -2.55 -0.7 -2.5 -0.7 -2.5 -0.7 -2.45 -0.65 -2.45 -0.6 -2.35 -0.65 -2.3 -0.7 -2.25 -0.7 -2.2 -0.8 -2.2 -0.85 -2.1 -0.9 Q-2.05 -0.95 -2.05 -1.0 L-2.0 -1.0 -1.95 -1.05 -2.0 -1.15 -1.95 -1.2 -1.85 -1.2 -1.85 -1.25 -1.35 -1.45 -1.3 -1.4 -1.15 -1.45 Q-1.05 -1.45 -1.05 -1.5 L-0.9 -1.6 -0.75 -1.6 -0.55 -1.65 -0.45 -1.75 -0.4 -1.75" fill="#252a28" fill-rule="evenodd" stroke="none"/>
    <path d="M1.6 -1.3 L1.6 -1.4 1.6 -1.4 Q1.7 -1.3 2.05 -1.15 L2.8 -0.55 Q2.9 -0.45 3.0 -0.45 L3.15 -0.4 3.1 -0.4 2.2 -0.3 Q2.3 -0.35 2.25 -0.5 2.25 -0.8 2.05 -0.9 L1.65 -1.3 1.65 -1.3 1.6 -1.3 M0.35 -2.05 L0.35 -2.0 0.3 -2.05 0.35 -2.05 0.35 -2.05 M0.2 -2.0 L0.15 -1.85 0.05 -1.9 -0.05 -1.75 -0.05 -1.55 -0.1 -1.5 -0.15 -1.45 Q-0.15 -1.35 -0.25 -1.25 L-0.25 -1.2 Q-0.25 -1.2 -0.35 -1.2 L-0.4 -1.1 -0.4 -1.0 Q-0.4 -0.95 -0.45 -0.9 -0.5 -0.9 -0.5 -0.75 -0.5 -0.7 -0.6 -0.6 -0.6 -0.55 -0.65 -0.55 L-0.65 -0.5 -0.8 -0.5 -0.8 -0.4 -0.85 -0.3 -0.9 -0.3 -0.95 -0.5 Q-1.0 -0.7 -0.55 -1.15 -0.1 -1.6 -0.1 -1.65 L-0.15 -1.7 -0.8 -1.2 Q-1.25 -0.85 -1.4 -0.65 -1.45 -0.55 -1.6 -0.5 L-1.9 -0.45 -2.3 -0.4 -2.45 -0.4 Q-3.2 -0.5 -3.2 -0.6 L-3.15 -0.7 -2.95 -0.6 -2.7 -0.55 Q-2.5 -0.55 -2.5 -0.6 L-2.4 -0.55 -2.1 -0.6 -1.85 -0.5 Q-1.8 -0.5 -1.8 -0.55 L-1.9 -0.75 -1.8 -0.8 -1.7 -0.9 Q-1.6 -0.9 -1.6 -0.95 L-1.55 -1.0 -1.45 -1.1 -1.35 -1.2 -1.2 -1.2 -1.15 -1.25 -1.1 -1.3 -1.05 -1.25 Q-1.0 -1.25 -0.7 -1.5 L-0.4 -1.75 0.05 -1.95 0.05 -1.95 0.1 -1.95 0.2 -2.0" fill="#3b4340" fill-rule="evenodd" stroke="none"/>
    <path d="M1.65 -0.3 L1.7 -0.3 1.7 -0.25 1.65 -0.15 1.65 -0.1 1.65 -0.25 1.65 -0.3 M1.85 -0.3 L1.95 -0.3 1.9 -0.25 1.9 -0.15 1.85 0.05 1.8 0.35 1.7 1.15 1.5 1.65 1.6 1.4 1.75 0.9 1.8 0.05 1.85 -0.15 1.85 -0.3 M1.15 2.05 Q1.25 2.0 1.3 1.75 L1.3 1.65 1.3 1.5 1.35 1.4 1.4 1.3 1.45 1.1 1.65 -0.1 1.55 0.7 1.4 1.4 1.45 1.5 1.5 1.65 1.4 1.9 1.35 2.0 1.35 2.05 1.4 2.1 1.35 2.2 1.25 2.15 Q1.2 2.15 1.2 2.2 L1.15 2.1 1.15 2.05 M1.0 2.05 L1.0 2.15 0.95 2.15 0.8 2.05 0.75 2.0 0.5 1.75 0.25 1.6 Q0.05 1.4 0.0 1.4 L0.0 1.45 Q0.0 1.7 0.7 2.05 L0.8 2.15 0.75 2.2 0.6 2.05 -0.15 1.5 -0.55 1.15 Q-0.95 0.8 -1.25 0.1 L-1.35 -0.15 -1.4 -0.25 -1.45 -0.3 -1.4 -0.3 -1.35 -0.25 -1.3 -0.15 -1.25 0.05 -0.95 0.6 -0.6 1.1 -0.35 1.25 -0.2 1.3 -0.15 1.3 -0.15 1.25 -0.45 0.95 -0.75 0.6 -1.05 -0.05 -1.1 -0.15 -1.15 -0.25 -1.2 -0.3 -1.15 -0.3 -1.1 -0.25 -1.05 -0.15 Q-0.85 0.45 -0.65 0.6 L0.1 1.35 0.65 1.85 1.0 2.05 M1.0 2.35 L1.0 2.3 1.05 2.35 1.0 2.55 0.95 2.65 0.95 2.75 1.05 2.6 Q1.0 2.55 1.1 2.45 L1.15 2.55 1.1 2.6 Q1.05 2.75 0.95 2.75 0.9 2.75 0.9 2.6 0.9 2.45 1.0 2.45 L1.0 2.35 M1.25 2.65 L1.35 2.55 1.4 2.45 1.4 2.55 Q1.4 2.7 1.3 2.7 L1.25 2.65" fill="#352e29" fill-rule="evenodd" stroke="none"/>
    <path d="M1.7 -0.3 L1.85 -0.3 1.85 -0.15 1.8 0.05 Q1.7 0.05 1.65 -0.1 L1.65 -0.15 1.7 -0.25 1.7 -0.3 M-1.2 -0.3 L-1.15 -0.25 -1.1 -0.15 -1.05 -0.05 -1.2 0.0 -1.25 0.05 -1.3 -0.15 -1.35 -0.25 -1.4 -0.3 -1.2 -0.3" fill="#231e1a" fill-rule="evenodd" stroke="none"/>
    <path d="M1.15 2.05 L1.15 2.1 1.2 2.2 Q1.2 2.15 1.25 2.15 L1.35 2.2 1.25 2.3 1.35 2.45 1.4 2.45 1.35 2.55 1.25 2.65 1.25 2.6 1.2 2.4 Q1.15 2.4 1.15 2.55 L1.1 2.45 Q1.0 2.55 1.05 2.6 L0.95 2.75 0.95 2.65 1.0 2.55 1.05 2.35 1.0 2.3 1.0 2.35 0.9 2.4 0.9 2.45 0.85 2.45 Q0.8 2.45 0.8 2.35 L0.8 2.2 0.75 2.2 0.8 2.15 0.7 2.05 Q0.0 1.7 0.0 1.45 L0.0 1.4 Q0.05 1.4 0.25 1.6 L0.5 1.75 0.75 2.0 0.8 2.05 0.95 2.15 1.0 2.15 1.0 2.05 1.1 2.05 1.15 2.05 M1.5 1.65 L1.45 1.5 1.4 1.4 1.55 0.7 1.65 -0.1 Q1.7 0.05 1.8 0.05 L1.75 0.9 1.6 1.4 1.5 1.65 M-1.05 -0.05 L-0.75 0.6 -0.45 0.95 -0.15 1.25 -0.15 1.3 -0.2 1.3 -0.35 1.25 -0.6 1.1 -0.95 0.6 -1.25 0.05 -1.2 0.0 -1.05 -0.05" fill="#27221e" fill-rule="evenodd" stroke="none"/>
    <path d="M-2.3 -0.4 L-1.9 -0.45 -1.6 -0.5 Q-1.45 -0.55 -1.4 -0.65 -1.25 -0.85 -0.8 -1.2 L-0.15 -1.7 -0.1 -1.65 Q-0.1 -1.6 -0.55 -1.15 -1.0 -0.7 -0.95 -0.5 L-0.9 -0.3 -1.15 -0.3 -1.2 -0.3 -1.4 -0.3 -1.45 -0.3 -2.15 -0.4 -2.3 -0.4" fill="#56625d" fill-rule="evenodd" stroke="none"/>
    <path d="M3.15 -0.4 Q4.15 -0.45 4.1 -0.6 L4.1 -0.65 Q3.7 -1.05 1.6 -1.7 L0.7 -1.95 0.4 -2.05 0.35 -2.05 0.35 -2.05 0.3 -2.05 0.2 -2.0 0.1 -1.95 0.05 -1.95 -0.25 -1.85 Q-2.8 -1.1 -3.15 -0.7 L-3.2 -0.6 Q-3.2 -0.5 -2.45 -0.4 L-2.3 -0.4 -2.15 -0.4 -1.45 -0.3 -1.4 -0.25 -1.35 -0.15 -1.25 0.1 Q-0.95 0.8 -0.55 1.15 L-0.15 1.5 0.6 2.05 0.75 2.2 0.8 2.2 0.8 2.35 Q0.8 2.45 0.85 2.45 L0.9 2.45 0.9 2.4 1.0 2.35 1.0 2.45 Q0.9 2.45 0.9 2.6 0.9 2.75 0.95 2.75 1.05 2.75 1.1 2.6 L1.15 2.55 Q1.15 2.4 1.2 2.4 L1.25 2.6 1.25 2.65 1.3 2.7 Q1.4 2.7 1.4 2.55 L1.4 2.45 1.35 2.45 1.25 2.3 1.35 2.2 1.4 2.1 1.35 2.05 1.35 2.0 1.4 1.9 1.5 1.65 1.7 1.15 1.8 0.35 1.85 0.05 1.9 -0.15 1.9 -0.25 1.95 -0.3 2.05 -0.3 2.2 -0.3 3.1 -0.4 3.15 -0.4 M-0.9 -0.3 L-0.85 -0.3 0.05 -0.3 0.35 -0.3 0.45 -0.3 0.6 -0.3 1.65 -0.3 1.65 -0.25 1.65 -0.1 1.45 1.1 1.4 1.3 1.35 1.4 1.3 1.5 1.3 1.65 1.3 1.75 Q1.25 2.0 1.15 2.05 L1.1 2.05 1.0 2.05 0.65 1.85 0.1 1.35 -0.65 0.6 Q-0.85 0.45 -1.05 -0.15 L-1.1 -0.25 -1.15 -0.3 -0.9 -0.3 Z" fill="none" stroke="#000000" stroke-linecap="round" stroke-linejoin="round" stroke-opacity="0.4509804" stroke-width="1.0"/>
  </g>
</svg>
