<?xml version="1.0" encoding="UTF-8" standalone="no"?>
<svg xmlns:xlink="http://www.w3.org/1999/xlink" height="16.75px" width="7.55px" xmlns="http://www.w3.org/2000/svg">
  <g transform="matrix(1.0, 0.0, 0.0, 1.0, 13.95, -53.3)">
    <path d="M-8.25 55.95 L-8.2 55.7 -8.1 55.45 -7.9 55.25 -8.0 54.95 -7.95 54.75 Q-7.85 54.6 -7.55 54.55 -7.9 54.25 -7.9 54.05 L-7.8 53.75 Q-7.65 53.5 -7.55 53.5 L-7.35 53.55 Q-7.35 53.35 -7.25 53.35 L-7.0 53.35 -6.9 53.3 Q-6.8 53.25 -6.7 53.35 L-6.6 53.4 -6.55 53.5 -6.45 53.7 -6.4 53.85 Q-6.4 54.0 -6.6 54.15 -6.75 54.25 -6.75 54.45 -6.7 54.65 -6.9 54.8 -7.05 54.9 -7.2 54.95 L-7.2 55.0 Q-7.05 55.3 -7.05 55.4 -7.05 55.5 -7.1 55.65 -7.2 55.8 -7.35 55.85 L-7.3 55.95 Q-7.3 56.25 -7.4 56.6 -7.55 57.15 -7.85 57.2 L-7.85 57.35 -7.8 57.55 Q-7.7 57.65 -7.7 57.7 -7.7 57.85 -7.8 58.15 -7.9 58.45 -8.0 58.5 L-8.0 58.6 Q-8.0 58.75 -8.05 58.85 L-8.05 59.05 -8.1 59.2 -8.05 59.4 -8.15 59.65 Q-8.25 59.9 -8.4 59.9 L-8.45 59.9 -8.45 59.9 -8.5 60.1 -8.45 60.25 -8.5 60.35 -8.35 60.75 -8.4 60.9 -8.45 61.1 Q-8.45 61.15 -8.55 61.25 -8.65 61.35 -8.8 61.35 L-8.95 61.35 -8.9 61.4 Q-8.9 61.6 -9.05 61.8 -9.25 62.15 -9.7 62.15 -10.0 62.15 -10.25 62.05 L-10.45 61.95 Q-10.85 61.9 -11.2 61.65 L-11.5 61.65 Q-11.95 61.65 -12.4 61.35 L-12.45 61.35 -12.65 61.7 -12.85 61.95 -12.85 62.05 Q-12.85 62.25 -12.75 62.35 -12.65 62.5 -12.65 62.6 -12.65 62.7 -12.8 62.95 L-12.8 63.05 -12.75 63.9 Q-12.75 64.05 -12.6 64.1 L-12.5 64.2 -12.3 64.15 Q-11.4 64.15 -11.3 64.35 L-11.25 64.4 -11.2 64.4 -10.55 64.4 Q-10.1 64.65 -9.9 64.85 -9.85 64.7 -9.65 64.9 -9.55 65.0 -9.5 65.2 L-9.45 65.5 -9.45 66.5 -9.4 66.9 Q-9.4 67.0 -9.6 67.1 L-9.6 67.15 -9.65 67.95 Q-9.75 68.45 -9.85 68.6 -9.85 69.0 -9.95 69.2 -10.25 69.7 -11.0 69.7 -11.35 69.7 -11.45 69.6 L-11.75 69.65 Q-12.0 69.65 -12.25 69.5 L-12.45 69.35 -13.25 69.25 -13.35 69.7 Q-13.45 70.05 -13.6 70.05 -13.8 70.05 -13.95 69.5 L-13.8 68.95 -13.8 68.8 Q-13.8 68.6 -13.5 68.6 -13.15 68.6 -12.55 68.8 L-12.15 68.95 -12.05 68.9 Q-11.85 68.9 -11.5 69.1 L-11.45 69.1 -11.4 69.05 Q-11.15 68.9 -10.65 68.9 L-10.35 68.55 Q-10.4 68.45 -10.4 68.4 -10.4 68.2 -10.1 67.3 L-10.05 67.0 -10.05 67.0 -10.1 66.85 -10.1 66.55 Q-10.1 65.7 -10.0 65.35 L-10.25 65.4 -10.95 65.05 Q-11.05 65.0 -11.4 64.85 L-11.4 64.85 -11.7 64.85 Q-11.9 64.85 -12.05 64.9 L-12.4 65.0 Q-12.7 65.0 -12.85 64.85 L-12.9 64.75 -13.05 64.75 Q-13.35 64.75 -13.45 64.6 L-13.5 64.35 Q-13.7 64.0 -13.7 63.85 -13.7 63.65 -13.5 63.6 L-13.55 63.5 -13.45 63.05 -13.6 62.9 -13.65 62.5 -13.6 62.05 Q-13.5 61.7 -13.35 61.6 L-13.35 61.6 Q-13.35 61.55 -13.4 61.4 L-13.5 61.15 Q-13.5 60.7 -12.95 60.55 -12.55 60.45 -12.45 60.75 L-12.35 60.75 Q-11.9 60.75 -11.5 60.95 -11.35 60.8 -10.7 61.2 -10.55 61.3 -10.35 61.4 L-10.3 61.3 Q-10.25 61.2 -10.1 61.1 L-9.9 61.05 Q-9.8 61.05 -9.8 61.0 L-9.65 60.8 -9.65 60.8 -9.8 60.35 Q-9.8 60.15 -9.6 60.05 L-9.1 59.8 -9.3 59.4 Q-9.3 59.05 -9.0 59.2 -9.2 59.0 -9.2 58.9 L-9.1 58.8 -8.9 58.65 Q-8.85 58.6 -8.85 58.5 -8.8 58.4 -8.75 58.35 L-8.75 58.2 Q-8.75 58.05 -8.6 58.0 L-8.55 57.95 Q-8.9 57.7 -8.9 57.55 -8.9 57.45 -8.6 57.2 L-8.3 57.0 -8.45 56.85 Q-8.55 56.6 -8.55 56.45 -8.55 56.3 -8.45 56.2 L-8.25 55.95" fill="#ffb500" fill-rule="evenodd" stroke="none"/>
  </g>
</svg>
