<?xml version="1.0" encoding="UTF-8" standalone="no"?>
<svg xmlns:xlink="http://www.w3.org/1999/xlink" height="11.65px" width="7.0px" xmlns="http://www.w3.org/2000/svg">
  <g transform="matrix(1.0, 0.0, 0.0, 1.0, 3.85, 6.85)">
    <path d="M0.35 -6.25 L0.3 -6.25 0.2 -6.35 0.1 -6.3 0.1 -6.3 -0.05 -6.4 -0.15 -6.35 -0.35 -6.15 -0.35 -6.25 -0.2 -6.4 0.1 -6.75 0.15 -6.7 0.15 -6.6 0.3 -6.35 0.35 -6.25 M1.2 -5.45 L0.85 -5.75 1.1 -5.6 1.2 -5.45 1.2 -5.45" fill="#9e9996" fill-rule="evenodd" stroke="none"/>
    <path d="M0.1 -6.3 L0.1 -6.3 0.2 -6.35 0.3 -6.25 0.35 -6.25 0.55 -5.9 0.85 -5.75 1.2 -5.45 1.45 -5.25 1.45 -5.2 1.55 -5.15 Q1.6 -5.1 1.65 -5.1 L1.7 -5.1 1.55 -5.0 1.5 -5.0 1.1 -5.1 0.4 -4.65 Q0.5 -5.0 0.65 -5.25 L0.85 -5.4 0.95 -5.45 0.55 -5.85 0.35 -6.0 0.05 -5.75 0.35 -5.45 0.1 -5.6 0.0 -5.15 -0.4 -5.35 -0.05 -5.55 Q-0.1 -5.75 -0.2 -5.85 -0.85 -5.45 -1.45 -4.9 L-1.05 -5.5 -0.4 -6.15 -0.4 -6.05 -0.2 -5.85 0.15 -6.1 0.3 -6.15 0.1 -6.3" fill="#3c5a81" fill-rule="evenodd" stroke="none"/>
    <path d="M0.35 -5.45 L0.05 -5.75 0.35 -6.0 0.55 -5.85 0.35 -5.55 0.6 -5.3 0.5 -5.35 0.45 -5.35 0.35 -5.45" fill="#a9afb2" fill-rule="evenodd" stroke="none"/>
    <path d="M-0.15 -6.35 L-0.05 -6.4 0.1 -6.3 0.3 -6.15 0.15 -6.1 -0.1 -6.3 -0.15 -6.3 -0.15 -6.35" fill="#c9c0a2" fill-rule="evenodd" stroke="none"/>
    <path d="M0.0 -5.15 L0.1 -5.6 0.35 -5.45 0.45 -5.35 0.5 -5.35 0.6 -5.3 0.65 -5.25 Q0.5 -5.0 0.4 -4.65 -0.2 -4.25 -0.7 -3.7 L-0.85 -3.5 -0.95 -3.4 -0.95 -3.35 -0.95 -3.15 -1.1 -3.3 -1.05 -3.35 -1.0 -3.5 -0.95 -3.55 Q-0.8 -3.9 -0.7 -4.35 L-0.55 -4.45 -0.25 -4.75 0.0 -4.95 0.0 -5.15" fill="#6d8eb2" fill-rule="evenodd" stroke="none"/>
    <path d="M0.55 -5.85 L0.95 -5.45 0.85 -5.4 0.65 -5.25 0.6 -5.3 0.35 -5.55 0.55 -5.85" fill="#f9fcfe" fill-rule="evenodd" stroke="none"/>
    <path d="M1.7 -5.1 L1.65 -5.1 Q1.6 -5.1 1.55 -5.15 L1.45 -5.2 1.45 -5.25 1.5 -5.25 1.65 -5.35 1.75 -5.35 Q1.85 -5.35 1.9 -5.25 L2.0 -5.05 2.05 -4.65 1.95 -4.8 1.9 -5.0 1.85 -5.05 1.8 -5.2 1.7 -5.1" fill="#c0bca9" fill-rule="evenodd" stroke="none"/>
    <path d="M0.4 -4.65 L1.1 -5.1 1.5 -5.0 1.55 -5.0 1.7 -5.1 1.8 -5.2 1.85 -5.05 1.9 -5.0 1.95 -4.8 1.75 -4.2 1.65 -4.25 1.5 -4.5 Q1.45 -4.7 1.35 -4.75 1.15 -4.7 0.9 -4.5 L0.55 -4.25 0.35 -4.1 0.3 -4.05 0.2 -3.95 -0.15 -3.7 -0.75 -3.05 0.0 -2.3 0.65 -1.75 0.7 -1.7 0.85 -1.6 0.85 -1.6 1.2 -1.95 1.45 -1.95 1.7 -1.5 1.6 -1.45 1.4 -1.25 1.15 -1.0 0.3 -0.5 0.25 -0.45 0.1 -0.4 Q-0.15 -0.25 -0.4 -0.15 L-0.65 -0.1 -0.7 -0.1 -0.8 -0.05 -1.15 0.05 -1.45 0.15 -1.5 0.15 -1.75 0.25 -1.95 0.05 -1.8 -0.3 -1.8 -0.3 -1.6 -0.35 -1.1 -0.55 -0.55 -0.8 Q-0.3 -0.9 0.05 -1.1 L0.15 -1.2 0.25 -1.25 -0.15 -1.65 -0.7 -2.15 -0.95 -2.45 -1.0 -2.5 -0.95 -2.7 -0.95 -2.8 -0.95 -3.15 -0.95 -3.35 -0.95 -3.4 -0.85 -3.5 -0.7 -3.7 Q-0.2 -4.25 0.4 -4.65 M-3.55 2.15 L-3.55 2.05 -3.65 1.75 -3.65 1.5 -3.5 1.6 Q-3.2 1.75 -3.1 1.75 L-2.65 1.7 -2.35 1.7 -2.05 1.65 -2.0 1.6 -1.95 1.6 -1.75 1.55 Q-1.7 1.55 -1.7 1.55 L-1.65 1.6 -1.9 1.8 -1.9 1.8 -2.0 1.85 -2.2 1.9 -2.7 1.95 -3.15 2.0 -3.2 2.05 Q-3.05 2.2 -2.75 2.2 L-2.6 2.2 -2.55 2.2 -2.45 2.15 -2.3 2.15 Q-2.35 2.25 -2.45 2.3 L-2.6 2.3 -2.75 2.35 -2.8 2.35 Q-2.85 2.35 -2.85 2.4 L-2.9 2.4 -2.8 2.5 -2.75 2.5 -2.55 2.5 -2.55 2.55 -2.4 2.65 -2.2 2.65 -2.0 2.7 -1.95 2.75 -1.9 2.8 -1.85 2.85 -2.15 2.9 -2.15 2.9 -2.7 2.8 -2.75 2.8 -2.8 2.8 -3.1 2.8 -3.2 2.75 -3.15 2.7 -3.05 2.7 -2.95 2.7 -2.9 2.65 Q-2.95 2.6 -3.0 2.6 L-3.25 2.5 -3.25 2.45 -3.05 2.45 -3.0 2.4 -3.1 2.3 -3.2 2.25 -3.3 2.25 Q-3.3 2.2 -3.35 2.2 L-3.55 2.15 M-1.15 0.05 L-1.15 0.05" fill="#ffffff" fill-rule="evenodd" stroke="none"/>
    <path d="M1.95 -4.8 L2.05 -4.65 Q2.45 -3.95 2.75 -3.55 L2.65 -3.6 2.35 -3.8 2.2 -3.5 2.0 -3.65 1.6 -4.3 1.65 -4.25 1.75 -4.2 1.95 -4.8" fill="#b6cddf" fill-rule="evenodd" stroke="none"/>
    <path d="M2.65 -3.6 L2.7 -3.5 2.35 -3.2 2.0 -3.65 2.2 -3.5 2.35 -3.8 2.65 -3.6" fill="#8cacbd" fill-rule="evenodd" stroke="none"/>
    <path d="M2.35 -3.2 L2.45 -3.1 2.4 -3.1 1.95 -2.7 1.55 -2.25 1.35 -2.1 1.2 -1.95 1.25 -2.7 1.45 -2.75 1.5 -2.9 1.5 -3.45 1.5 -3.55 1.45 -3.65 1.4 -3.9 Q1.35 -4.1 1.4 -4.4 L1.6 -4.3 2.0 -3.65 2.35 -3.2" fill="#a34844" fill-rule="evenodd" stroke="none"/>
    <path d="M2.7 -3.5 L3.1 -3.0 2.8 -2.6 2.45 -3.1 2.35 -3.2 2.7 -3.5" fill="#fdd943" fill-rule="evenodd" stroke="none"/>
    <path d="M1.8 -2.45 L2.0 -2.6 2.1 -2.65 2.2 -2.75 2.25 -2.15 2.25 -2.05 2.05 -1.95 1.9 -2.2 1.8 -2.45" fill="#adcee8" fill-rule="evenodd" stroke="none"/>
    <path d="M2.8 -2.6 L2.8 -2.6 2.6 -2.5 2.5 -2.4 2.25 -2.15 2.2 -2.75 2.1 -2.65 2.0 -2.6 1.8 -2.45 1.55 -2.25 1.95 -2.7 2.4 -3.1 2.45 -3.1 2.8 -2.6" fill="#8a9eb2" fill-rule="evenodd" stroke="none"/>
    <path d="M2.8 -2.6 L2.9 -2.35 2.9 -2.3 2.85 -2.25 2.95 -2.1 3.05 -1.95 Q3.05 -1.9 3.0 -1.9 L2.95 -1.9 Q2.9 -1.85 2.9 -1.75 L3.1 -1.6 3.1 -1.55 3.05 -1.5 3.05 -1.3 3.0 -1.1 2.9 -0.7 2.9 -0.65 Q2.85 -0.45 2.75 -0.3 L2.55 -0.1 2.15 0.15 1.95 0.2 1.9 0.2 Q1.75 0.2 1.5 0.35 L1.3 0.45 0.95 0.5 0.75 0.5 0.2 0.25 0.1 0.15 0.3 0.05 0.2 0.0 0.1 0.0 -0.1 0.0 -0.15 -0.05 0.0 -0.1 0.4 -0.15 Q0.55 -0.15 0.55 0.0 L0.55 0.05 Q0.5 0.05 0.45 0.05 L0.5 0.2 0.7 0.1 0.85 0.15 0.85 0.2 1.05 0.15 1.15 0.0 1.1 -0.05 Q1.2 -0.1 1.25 -0.1 L1.35 -0.05 1.4 0.05 1.55 0.0 1.7 -0.05 1.6 -0.2 Q1.6 -0.3 1.7 -0.3 L1.75 -0.3 1.8 -0.25 1.9 -0.2 2.1 -0.3 2.3 -0.2 Q2.4 -0.2 2.6 -0.7 L2.85 -1.3 2.55 -1.4 2.5 -1.4 2.45 -1.3 2.35 -1.4 2.3 -1.4 2.1 -1.45 1.85 -1.4 1.75 -1.4 1.7 -1.35 Q1.65 -1.35 1.6 -1.45 L1.7 -1.5 1.8 -1.55 1.85 -1.55 2.05 -1.55 2.35 -1.8 2.4 -1.85 2.5 -1.9 2.4 -1.95 2.45 -1.95 2.5 -2.2 2.6 -2.45 2.6 -2.5 2.8 -2.6 M-3.05 0.75 L-3.0 0.55 -3.0 0.35 -2.85 0.4 -2.65 0.4 -2.1 0.3 -1.8 0.5 -1.55 0.5 -1.65 0.65 Q-1.65 0.8 -1.8 0.8 L-1.85 0.8 -2.15 0.65 Q-2.4 0.55 -2.45 0.55 L-2.75 0.65 -2.75 0.65 -2.8 0.65 Q-2.95 0.65 -3.05 0.75" fill="#2d2620" fill-rule="evenodd" stroke="none"/>
    <path d="M1.6 -4.3 L1.4 -4.4 Q1.35 -4.1 1.4 -3.9 L1.45 -3.65 1.5 -3.55 1.0 -3.75 0.75 -3.75 0.7 -3.7 0.6 -3.7 0.6 -3.75 0.7 -4.1 0.75 -4.25 0.9 -4.5 Q1.15 -4.7 1.35 -4.75 1.45 -4.7 1.5 -4.5 L1.65 -4.25 1.6 -4.3" fill="#d96b64" fill-rule="evenodd" stroke="none"/>
    <path d="M0.85 -1.6 L0.7 -1.7 0.65 -1.75 0.0 -2.3 -0.75 -3.05 -0.15 -3.7 0.2 -3.95 0.3 -4.05 0.35 -4.1 0.55 -4.25 0.9 -4.5 0.75 -4.25 0.7 -4.1 0.6 -3.75 0.3 -3.7 0.25 -3.35 0.25 -3.05 Q0.3 -2.8 0.6 -2.65 0.55 -2.4 0.6 -2.2 L0.65 -2.05 Q0.7 -1.85 0.8 -1.65 L0.85 -1.6" fill="#ff9390" fill-rule="evenodd" stroke="none"/>
    <path d="M0.7 -3.7 L0.75 -3.75 1.0 -3.75 1.0 -3.35 0.85 -3.55 0.7 -3.7" fill="#a98488" fill-rule="evenodd" stroke="none"/>
    <path d="M1.5 -3.55 L1.5 -3.45 1.3 -3.35 1.15 -3.25 0.95 -3.15 1.1 -2.7 1.2 -3.2 1.5 -2.9 1.45 -2.75 1.25 -2.7 0.6 -2.65 0.5 -3.15 0.25 -3.05 0.25 -3.35 0.65 -3.2 0.5 -3.45 0.6 -3.7 0.7 -3.7 0.85 -3.55 1.0 -3.35 1.0 -3.75 1.5 -3.55" fill="#c9a9b2" fill-rule="evenodd" stroke="none"/>
    <path d="M0.25 -3.35 L0.3 -3.7 0.6 -3.75 0.6 -3.7 0.5 -3.45 0.65 -3.2 0.25 -3.35" fill="#685f60" fill-rule="evenodd" stroke="none"/>
    <path d="M0.6 -2.65 Q0.3 -2.8 0.25 -3.05 L0.5 -3.15 0.6 -2.65" fill="#9d858a" fill-rule="evenodd" stroke="none"/>
    <path d="M1.5 -3.45 L1.5 -2.9 1.2 -3.2 1.15 -3.25 1.3 -3.35 1.5 -3.45" fill="#ad8386" fill-rule="evenodd" stroke="none"/>
    <path d="M1.15 -3.25 L1.2 -3.2 1.1 -2.7 0.95 -3.15 1.15 -3.25" fill="#dad5e1" fill-rule="evenodd" stroke="none"/>
    <path d="M1.25 -2.7 L1.2 -1.95 0.85 -1.6 0.85 -1.6 0.8 -1.65 Q0.7 -1.85 0.65 -2.05 L0.6 -2.2 Q0.55 -2.4 0.6 -2.65 L1.25 -2.7" fill="#e76e6f" fill-rule="evenodd" stroke="none"/>
    <path d="M1.2 -1.95 L1.35 -2.1 1.55 -2.25 1.8 -2.45 1.9 -2.2 2.05 -1.95 2.25 -2.05 2.4 -1.95 2.5 -1.9 2.4 -1.85 2.1 -1.7 1.8 -1.55 1.7 -1.5 1.45 -1.95 1.2 -1.95" fill="#d3f0fe" fill-rule="evenodd" stroke="none"/>
    <path d="M-3.25 1.1 L-3.1 0.9 -3.05 0.75 Q-2.95 0.65 -2.8 0.65 L-2.75 0.65 -2.75 0.65 -2.45 0.55 Q-2.4 0.55 -2.15 0.65 L-1.85 0.8 -1.8 0.8 Q-1.65 0.8 -1.65 0.65 L-1.55 0.5 -1.25 0.5 -1.15 0.65 -1.25 0.7 -1.4 0.65 -1.25 0.8 -1.1 0.7 Q-1.1 0.7 -1.0 0.8 L-1.0 0.8 -0.85 0.85 -0.65 0.8 -0.65 0.75 -0.5 0.7 -0.45 0.7 -0.5 0.9 -0.6 0.9 -0.65 0.9 -0.55 1.2 -0.55 1.2 -0.6 1.2 -0.55 1.2 -0.5 1.25 -0.55 1.25 -0.8 1.15 -0.95 1.05 -1.05 0.95 -1.15 0.95 Q-1.05 1.0 -1.0 1.05 L-0.9 1.15 Q-0.8 1.2 -0.65 1.25 L-0.65 1.35 -0.7 1.4 -0.7 1.4 -0.9 1.45 -1.05 1.65 -0.95 1.7 -0.9 1.7 -0.7 1.8 -0.75 2.0 Q-0.8 2.1 -0.75 2.15 L-0.8 2.15 -0.85 2.15 Q-0.95 2.15 -0.95 2.2 L-0.8 2.25 -0.7 2.25 -0.65 2.25 Q-0.65 2.3 -0.7 2.3 L-0.7 2.3 -0.85 2.25 -0.9 2.3 -0.85 2.3 -0.95 2.35 -0.95 2.4 -0.8 2.4 -0.7 2.4 -0.7 2.45 -0.75 2.5 -0.9 2.45 -0.95 2.45 -0.95 2.45 -1.0 2.5 -1.15 2.55 -1.05 2.55 -0.95 2.6 -1.1 2.6 -1.3 2.6 -1.3 2.6 -0.85 2.75 -0.95 2.8 -1.1 2.8 -1.1 2.8 -1.3 2.75 -1.3 2.75 -1.35 2.8 -1.25 2.95 -1.15 3.1 -1.2 3.15 -1.25 3.15 -1.4 3.1 -1.4 3.15 Q-1.4 3.25 -1.25 3.25 L-1.25 3.3 -1.3 3.4 -1.35 3.3 Q-1.35 3.25 -1.4 3.25 L-1.4 3.35 -1.55 3.3 -1.4 3.1 -1.4 3.1 -1.3 2.35 -1.2 1.6 -1.2 1.35 -1.95 1.25 -2.1 1.25 Q-2.25 1.25 -2.3 1.35 -2.4 1.45 -2.45 1.45 L-2.6 1.4 Q-2.65 1.4 -2.75 1.35 -2.95 1.35 -3.25 1.1 L-3.25 1.1 M1.6 -1.45 Q1.65 -1.35 1.7 -1.35 L1.75 -1.4 1.85 -1.4 2.1 -1.45 2.3 -1.4 2.35 -1.4 2.0 -0.95 2.0 -0.95 Q1.65 -0.55 1.55 -0.55 L1.55 -0.55 1.3 -0.5 1.15 -0.5 1.3 -0.3 1.25 -0.25 1.2 -0.2 1.15 -0.15 1.05 -0.15 1.05 -0.15 Q1.0 -0.2 0.9 -0.1 L0.95 -0.05 1.05 -0.05 1.05 -0.05 1.1 -0.05 1.15 0.0 1.05 0.15 0.85 0.2 0.85 0.15 0.7 0.1 0.5 0.2 0.45 0.05 Q0.5 0.05 0.55 0.05 L0.55 0.0 Q0.55 -0.15 0.4 -0.15 L0.0 -0.1 -0.15 -0.05 -0.1 0.0 0.1 0.0 0.2 0.0 0.3 0.05 0.1 0.15 -0.1 0.2 -0.2 0.15 -0.25 0.15 -0.3 0.1 -0.55 0.2 -0.55 0.2 Q-0.65 0.15 -0.75 0.1 L-0.85 0.0 -0.95 0.05 -1.1 0.1 -1.15 0.05 -0.8 -0.05 -0.8 -0.05 Q-0.75 -0.05 -0.7 -0.1 L-0.65 -0.1 -0.4 -0.15 Q-0.15 -0.25 0.1 -0.4 L0.15 -0.35 0.25 -0.45 0.3 -0.5 1.15 -1.0 1.4 -1.25 1.6 -1.45" fill="#57504b" fill-rule="evenodd" stroke="none"/>
    <path d="M0.0 3.75 Q-0.3 4.1 -0.5 4.1 L-0.5 4.1 Q-0.7 4.25 -0.85 4.25 L-1.05 4.35 -1.3 4.5 -2.3 4.8 -2.35 4.8 Q-2.15 4.75 -2.0 4.6 -1.75 4.35 -1.45 4.35 -1.4 4.35 -1.2 4.2 L-0.95 4.0 Q-0.6 3.85 -0.5 3.85 L-0.4 3.8 -0.35 3.8 Q-0.5 3.6 -0.65 3.6 L-0.65 3.6 -0.7 3.6 -0.7 3.55 -0.75 3.5 -0.7 3.4 -0.7 3.4 -0.65 3.4 Q-0.35 3.5 -0.3 3.55 L-0.55 3.1 -0.6 3.1 -0.6 3.1 -0.55 2.95 -0.5 3.0 -0.25 3.15 Q-0.1 3.3 0.0 3.55 L0.0 3.75 M-2.55 4.7 L-2.55 4.7 Q-2.95 4.7 -3.15 4.25 -3.3 3.95 -3.3 3.55 L-2.9 3.4 -2.05 3.35 -1.75 3.5 -1.85 3.5 -2.0 3.5 -1.9 3.55 -1.8 3.55 -1.85 3.6 -2.05 3.6 -2.2 3.65 -2.25 3.65 -1.8 3.75 -1.55 3.8 -1.55 3.85 -1.55 3.85 Q-1.55 3.9 -1.75 4.0 -1.95 4.15 -2.0 4.15 L-2.2 4.0 -2.25 4.05 -2.3 4.1 -2.25 4.15 -2.2 4.2 -2.25 4.4 -2.4 4.6 -2.55 4.7 M2.25 -2.15 L2.5 -2.4 2.6 -2.5 2.6 -2.45 2.5 -2.2 2.45 -1.95 2.4 -1.95 2.25 -2.05 2.25 -2.15 M1.8 -1.55 L2.1 -1.7 2.4 -1.85 2.35 -1.8 2.05 -1.55 1.85 -1.55 1.8 -1.55 M2.35 -1.4 L2.45 -1.3 2.5 -1.4 2.55 -1.4 2.85 -1.3 2.6 -0.7 Q2.4 -0.2 2.3 -0.2 L2.1 -0.3 1.9 -0.2 1.8 -0.25 1.75 -0.3 1.7 -0.3 Q1.6 -0.3 1.6 -0.2 L1.7 -0.05 1.55 0.0 1.4 0.05 1.35 -0.05 1.25 -0.1 Q1.2 -0.1 1.1 -0.05 L1.05 -0.05 1.05 -0.05 0.95 -0.05 0.9 -0.1 Q1.0 -0.2 1.05 -0.15 L1.05 -0.15 1.15 -0.15 1.2 -0.2 1.25 -0.25 1.3 -0.3 1.15 -0.5 1.3 -0.5 1.55 -0.55 1.55 -0.55 Q1.65 -0.55 2.0 -0.95 L2.0 -0.95 2.35 -1.4 M0.1 0.15 L0.2 0.25 -0.3 0.4 -0.9 0.35 -0.95 0.3 -1.05 0.25 -1.15 0.25 -1.5 0.15 -1.45 0.15 -1.35 0.15 -1.25 0.2 -1.2 0.1 -1.15 0.05 -1.1 0.1 -0.95 0.05 -0.85 0.0 -0.75 0.1 Q-0.65 0.15 -0.55 0.2 L-0.55 0.2 -0.3 0.1 -0.25 0.15 -0.2 0.15 -0.1 0.2 0.1 0.15 M-0.7 -0.1 Q-0.75 -0.05 -0.8 -0.05 L-0.8 -0.05 -0.7 -0.1 M-1.15 0.05 L-1.15 0.05 M-0.15 2.0 L-0.3 2.4 -0.4 2.5 -0.45 2.5 -0.5 2.5 -0.55 2.45 -0.6 2.5 Q-0.65 2.5 -0.65 2.5 L-0.55 2.45 -0.55 2.45 Q-0.45 2.45 -0.5 2.45 L-0.5 2.4 Q-0.45 2.4 -0.5 2.3 L-0.6 2.25 Q-0.7 2.15 -0.6 2.1 -0.55 2.1 -0.55 2.15 L-0.6 2.2 -0.5 2.2 -0.4 2.2 -0.35 2.25 -0.3 2.2 -0.3 2.1 -0.25 2.0 Q-0.25 1.9 -0.45 1.85 L-0.65 1.75 Q-0.75 1.7 -0.85 1.7 L-0.75 1.65 -0.6 1.6 -0.55 1.5 Q-0.45 1.6 -0.35 1.6 -0.2 1.6 -0.15 1.8 L-0.15 2.0 M-1.6 3.35 L-1.5 3.4 Q-1.4 3.45 -1.4 3.5 L-1.6 3.55 -1.75 3.5 -1.6 3.35 M-1.5 3.65 L-1.7 3.55 -1.45 3.6 -1.5 3.65 M-1.15 0.65 L-1.1 0.65 -1.1 0.7 -1.15 0.65" fill="#38312c" fill-rule="evenodd" stroke="none"/>
    <path d="M0.25 -0.45 L0.15 -0.35 0.1 -0.4 0.25 -0.45" fill="#585147" fill-rule="evenodd" stroke="none"/>
    <path d="M-0.15 -1.65 L0.25 -1.25 0.15 -1.2 0.05 -1.1 Q-0.3 -0.9 -0.55 -0.8 L-0.55 -1.1 -0.3 -1.35 -0.35 -1.4 -0.5 -1.7 -0.6 -1.95 -0.15 -1.65" fill="#3f5792" fill-rule="evenodd" stroke="none"/>
    <path d="M2.75 -0.3 L2.7 -0.15 2.6 0.1 2.5 0.3 2.45 0.45 Q2.2 0.95 2.05 0.95 L1.75 1.0 1.7 1.0 Q1.6 1.0 1.45 1.1 L1.35 1.2 1.25 1.15 Q0.9 1.0 0.7 0.75 L0.65 0.85 0.6 0.8 0.55 1.4 0.45 1.55 0.35 1.75 0.35 2.0 Q0.25 2.0 0.2 2.0 L0.2 2.15 Q0.2 2.2 0.25 2.25 L0.35 2.4 0.25 2.55 0.2 2.55 0.1 2.55 Q0.05 2.55 0.05 2.45 L-0.05 2.5 -0.05 2.55 0.1 2.85 0.3 3.2 Q0.25 3.45 0.05 3.75 L0.0 3.75 0.0 3.55 Q-0.1 3.3 -0.25 3.15 L-0.5 3.0 -0.55 2.95 -0.45 2.7 -0.55 2.7 Q-0.65 2.7 -0.65 2.65 -0.7 2.6 -0.6 2.65 L-0.45 2.65 Q-0.4 2.6 -0.5 2.55 L-0.6 2.5 -0.55 2.45 -0.5 2.5 -0.45 2.5 -0.4 2.5 -0.3 2.4 -0.15 2.0 0.0 1.7 0.05 1.55 0.05 1.5 Q0.05 1.45 0.1 1.4 L0.1 1.3 0.05 1.2 -0.1 1.35 -0.2 1.25 -0.05 1.1 0.0 1.1 0.0 1.05 0.05 0.95 0.1 0.75 0.1 0.7 0.05 0.65 0.1 0.65 Q0.2 0.55 0.25 0.55 0.4 0.7 0.55 0.75 L0.4 0.5 0.2 0.25 0.75 0.5 0.95 0.5 1.3 0.45 1.5 0.35 Q1.75 0.2 1.9 0.2 L1.95 0.2 2.15 0.15 2.55 -0.1 2.75 -0.3 M-0.55 2.45 L-0.55 2.45" fill="#1f1610" fill-rule="evenodd" stroke="none"/>
    <path d="M1.35 1.2 Q1.3 1.2 1.3 1.2 L1.25 1.25 Q1.25 1.25 1.15 1.3 L1.1 1.35 1.05 1.5 0.8 2.1 0.35 3.0 0.35 3.1 0.3 3.2 0.1 2.85 -0.05 2.55 -0.05 2.5 0.05 2.45 Q0.05 2.55 0.1 2.55 L0.2 2.55 0.25 2.55 0.35 2.4 0.25 2.25 Q0.2 2.2 0.2 2.15 L0.2 2.0 Q0.25 2.0 0.35 2.0 L0.35 1.75 0.45 1.55 0.55 1.4 0.6 0.8 0.65 0.85 0.7 0.75 Q0.9 1.0 1.25 1.15 L1.35 1.2" fill="#3b342f" fill-rule="evenodd" stroke="none"/>
    <path d="M-1.75 0.25 L-1.5 0.15 -1.15 0.25 -1.05 0.25 -0.95 0.3 -0.9 0.35 -0.3 0.4 0.2 0.25 0.4 0.5 0.55 0.75 Q0.4 0.7 0.25 0.55 0.2 0.55 0.1 0.65 L0.05 0.65 -0.1 0.6 Q-0.15 0.55 -0.2 0.55 L-0.45 0.7 -0.5 0.7 -0.65 0.75 -0.65 0.8 -0.85 0.85 -1.0 0.8 -1.0 0.8 Q-1.1 0.7 -1.1 0.7 L-1.25 0.8 -1.4 0.65 -1.25 0.7 -1.15 0.65 -1.25 0.5 -1.55 0.5 -1.8 0.5 -2.1 0.3 -2.05 0.3 -2.0 0.3 -1.75 0.25 M-1.15 0.65 L-1.1 0.7 -1.1 0.65 -1.15 0.65" fill="#0e0a08" fill-rule="evenodd" stroke="none"/>
    <path d="M0.05 0.65 L0.1 0.7 0.1 0.75 0.05 0.95 0.0 1.05 0.0 1.1 -0.05 1.1 -0.2 1.25 -0.1 1.35 0.05 1.2 0.1 1.3 0.1 1.4 Q0.05 1.45 0.05 1.5 L0.05 1.55 0.0 1.7 -0.15 2.0 -0.15 1.8 Q-0.2 1.6 -0.35 1.6 -0.45 1.6 -0.55 1.5 L-0.6 1.6 -0.75 1.65 -0.85 1.7 Q-0.75 1.7 -0.65 1.75 L-0.45 1.85 Q-0.25 1.9 -0.25 2.0 L-0.3 2.1 -0.3 2.2 -0.35 2.25 -0.4 2.2 -0.5 2.2 -0.6 2.2 -0.55 2.15 Q-0.55 2.1 -0.6 2.1 -0.7 2.15 -0.6 2.25 L-0.5 2.3 Q-0.45 2.4 -0.5 2.4 L-0.5 2.45 Q-0.45 2.45 -0.55 2.45 L-0.55 2.45 -0.65 2.5 Q-0.65 2.5 -0.6 2.5 L-0.5 2.55 Q-0.4 2.6 -0.45 2.65 L-0.6 2.65 Q-0.7 2.6 -0.65 2.65 -0.65 2.7 -0.55 2.7 L-0.45 2.7 -0.55 2.95 -0.6 3.1 -0.6 3.1 -0.7 3.25 -0.7 3.4 -0.75 3.45 -0.85 3.4 -0.8 3.45 -0.85 3.55 -0.9 3.6 Q-0.9 3.7 -0.95 3.7 L-1.2 3.65 -1.3 3.65 -1.45 3.6 -1.7 3.55 -1.5 3.65 -1.4 3.7 Q-1.25 3.75 -1.2 3.8 L-1.35 3.85 -1.55 3.85 -1.55 3.8 -1.8 3.75 -2.25 3.65 -2.2 3.65 -2.05 3.6 -1.85 3.6 -1.8 3.55 -1.9 3.55 -2.0 3.5 -1.85 3.5 -1.75 3.5 -1.6 3.55 -1.4 3.5 Q-1.4 3.45 -1.5 3.4 L-1.6 3.35 -1.65 3.35 Q-1.6 3.3 -1.55 3.3 L-1.4 3.35 -1.4 3.25 Q-1.35 3.25 -1.35 3.3 L-1.3 3.4 -1.25 3.3 -1.25 3.25 -1.2 3.2 -1.2 3.15 -1.15 3.1 -1.15 3.0 -1.1 2.8 -1.1 2.8 -0.95 2.8 -0.85 2.75 -1.3 2.6 -1.3 2.6 -1.1 2.6 -0.95 2.6 -1.05 2.55 -1.15 2.55 -1.0 2.5 -0.95 2.45 -0.95 2.45 -0.9 2.45 -0.75 2.5 -0.7 2.45 -0.7 2.4 -0.8 2.4 -0.95 2.4 -0.95 2.35 -0.85 2.3 -0.9 2.3 -0.85 2.25 -0.7 2.3 -0.7 2.3 Q-0.65 2.3 -0.65 2.25 L-0.7 2.25 -0.8 2.25 -0.95 2.2 Q-0.95 2.15 -0.85 2.15 L-0.8 2.15 -0.75 2.15 Q-0.8 2.1 -0.75 2.0 L-0.7 1.8 -0.9 1.7 -0.95 1.7 -1.05 1.65 -0.9 1.45 -0.7 1.4 -0.7 1.4 -0.65 1.35 -0.65 1.25 Q-0.8 1.2 -0.9 1.15 L-1.0 1.05 Q-1.05 1.0 -1.15 0.95 L-1.05 0.95 -0.95 1.05 -0.8 1.15 -0.55 1.25 -0.5 1.25 -0.55 1.2 -0.6 1.2 -0.55 1.2 -0.55 1.2 -0.65 0.9 -0.6 0.9 -0.5 0.9 -0.45 0.7 -0.2 0.55 Q-0.15 0.55 -0.1 0.6 L0.05 0.65 M-0.55 2.45 L-0.55 2.45 M-1.75 3.5 L-1.75 3.5 M-0.7 3.4 L-0.7 3.4" fill="#786f76" fill-rule="evenodd" stroke="none"/>
    <path d="M-0.35 -6.15 L-0.15 -6.35 -0.15 -6.3 -0.1 -6.3 0.15 -6.1 -0.2 -5.85 -0.4 -6.05 -0.4 -6.15 -0.35 -6.15" fill="#cea434" fill-rule="evenodd" stroke="none"/>
    <path d="M-1.05 -5.5 L-1.45 -4.9 -1.9 -4.4 -1.7 -4.05 -1.8 -4.1 Q-1.55 -3.6 -1.6 -3.2 L-1.6 -3.2 -1.45 -3.1 -1.5 -2.9 -1.7 -3.15 -1.85 -3.3 -2.3 -3.9 Q-2.6 -3.5 -2.85 -2.9 L-3.25 -1.8 -3.35 -1.75 Q-3.3 -2.15 -3.0 -2.85 -2.7 -3.55 -2.7 -3.9 L-2.25 -4.35 -1.95 -4.75 -1.85 -4.9 -1.85 -4.9 -1.75 -5.05 -1.4 -5.3 -1.05 -5.55 -1.05 -5.5 -1.3 -5.3 -1.05 -5.5" fill="#86888a" fill-rule="evenodd" stroke="none"/>
    <path d="M-0.35 -6.25 L-0.35 -6.15 -0.4 -6.15 -0.4 -6.15 -0.35 -6.25" fill="#bbb5b1" fill-rule="evenodd" stroke="none"/>
    <path d="M-1.45 -4.9 Q-0.85 -5.45 -0.2 -5.85 -0.1 -5.75 -0.05 -5.55 L-0.4 -5.35 -0.5 -5.3 -0.6 -5.3 -0.5 -5.2 -0.55 -4.8 -0.9 -5.1 Q-1.0 -4.8 -0.95 -4.6 L-0.95 -4.45 -1.3 -4.65 -1.5 -4.45 -1.15 -4.05 -1.4 -3.7 -1.65 -3.95 -1.7 -4.05 -1.9 -4.4 -1.45 -4.9" fill="#313b54" fill-rule="evenodd" stroke="none"/>
    <path d="M-0.4 -5.35 L0.0 -5.15 0.0 -4.95 -0.25 -4.75 -0.25 -4.75 -0.5 -5.2 -0.6 -5.3 -0.5 -5.3 -0.4 -5.35" fill="#c2a64f" fill-rule="evenodd" stroke="none"/>
    <path d="M-0.55 -4.45 L-0.55 -4.8 -0.5 -5.2 -0.25 -4.75 -0.25 -4.75 -0.55 -4.45" fill="#798376" fill-rule="evenodd" stroke="none"/>
    <path d="M-0.55 -4.8 L-0.55 -4.45 -0.7 -4.35 -0.95 -4.6 Q-1.0 -4.8 -0.9 -5.1 L-0.55 -4.8" fill="#bea861" fill-rule="evenodd" stroke="none"/>
    <path d="M-0.95 -4.6 L-0.7 -4.35 Q-0.8 -3.9 -0.95 -3.55 L-1.0 -3.5 -1.05 -3.35 -1.4 -3.7 -1.15 -4.05 -0.9 -4.15 -0.95 -4.45 -0.95 -4.6" fill="#456792" fill-rule="evenodd" stroke="none"/>
    <path d="M-0.95 -4.45 L-0.9 -4.15 -1.15 -4.05 -1.5 -4.45 -1.3 -4.65 -0.95 -4.45" fill="#c8ae4d" fill-rule="evenodd" stroke="none"/>
    <path d="M-1.4 -3.7 L-1.05 -3.35 -1.1 -3.3 -1.45 -3.1 -1.6 -3.2 -1.6 -3.2 Q-1.55 -3.6 -1.8 -4.1 L-1.65 -3.95 -1.4 -3.7" fill="#a0afc1" fill-rule="evenodd" stroke="none"/>
    <path d="M-1.85 -3.3 L-1.7 -3.15 -1.5 -2.9 -1.55 -2.8 -1.55 -2.75 Q-1.65 -2.8 -1.65 -2.65 L-1.75 -2.55 -2.0 -2.15 -2.1 -2.05 -2.3 -1.8 -2.55 -1.6 -2.55 -2.15 -2.4 -2.2 -2.3 -2.25 Q-2.15 -2.35 -2.1 -2.45 L-2.1 -2.7 -2.15 -2.8 -2.2 -3.15 -1.85 -3.3 M-1.5 -2.9 L-1.5 -2.9" fill="#cf5f64" fill-rule="evenodd" stroke="none"/>
    <path d="M-1.3 -2.7 L-1.55 -2.7 -1.65 -2.5 -1.7 -2.4 -1.95 -1.6 -2.0 -1.55 -1.8 -1.75 -1.9 -1.6 -2.0 -1.45 -2.0 -1.45 -2.15 -1.2 -2.4 -1.05 -2.3 -1.4 -2.25 -1.5 -2.2 -1.7 -2.1 -2.05 -2.0 -2.15 -1.75 -2.55 -1.65 -2.65 Q-1.65 -2.8 -1.55 -2.75 L-1.55 -2.8 -1.5 -2.9 -1.3 -2.7" fill="#96a1b6" fill-rule="evenodd" stroke="none"/>
    <path d="M-1.8 -1.75 L-2.0 -1.55 -1.95 -1.6 -1.7 -2.4 -1.65 -2.5 -1.55 -2.7 -1.3 -2.7 -1.1 -2.7 -1.05 -2.7 -0.95 -2.7 -1.0 -2.5 -0.95 -2.45 -0.7 -2.15 -0.15 -1.65 -0.6 -1.95 -0.5 -1.7 -0.35 -1.4 -0.6 -1.65 -0.9 -1.9 -0.95 -2.0 -1.15 -2.25 -0.9 -2.25 -0.85 -2.25 -1.15 -2.6 -1.4 -2.25 -1.5 -2.1 -1.55 -2.05 -1.55 -2.0 -1.8 -1.75" fill="#b4caeb" fill-rule="evenodd" stroke="none"/>
    <path d="M-3.0 0.35 L-3.05 0.35 -3.25 0.3 -3.35 0.1 -3.35 -0.15 -3.25 -0.4 -3.1 -0.65 -2.9 -0.35 -2.7 -0.1 -2.7 -0.1 -2.65 0.4 -2.85 0.4 -3.0 0.35 M-1.25 -2.85 Q-1.35 -2.9 -1.3 -3.0 L-1.2 -3.15 Q-1.1 -3.1 -1.05 -3.0 L-1.0 -2.85 -1.0 -2.85 -1.25 -2.85 M-3.05 0.35 L-3.25 0.3 -3.05 0.35" fill="#fed741" fill-rule="evenodd" stroke="none"/>
    <path d="M-1.45 -3.1 L-1.1 -3.3 -0.95 -3.15 -0.95 -2.8 -0.95 -2.7 -1.05 -2.7 -1.1 -2.7 -1.3 -2.7 -1.5 -2.9 -1.45 -3.1 M-1.25 -2.85 L-1.0 -2.85 -1.0 -2.85 -1.05 -3.0 Q-1.1 -3.1 -1.2 -3.15 L-1.3 -3.0 Q-1.35 -2.9 -1.25 -2.85 M-1.5 -2.9 L-1.5 -2.9" fill="#4e4542" fill-rule="evenodd" stroke="none"/>
    <path d="M-2.2 -3.15 L-2.15 -2.8 -2.1 -2.7 -2.1 -2.45 Q-2.15 -2.35 -2.3 -2.25 L-2.4 -2.2 -2.55 -2.15 -2.6 -2.15 -2.2 -3.15" fill="#a28a91" fill-rule="evenodd" stroke="none"/>
    <path d="M-2.2 -3.15 L-2.45 -3.05 -2.65 -2.85 -2.75 -2.55 -2.75 -2.2 Q-2.85 -1.5 -3.3 -1.0 L-3.25 -1.8 -2.85 -2.9 Q-2.6 -3.5 -2.3 -3.9 L-1.85 -3.3 -2.2 -3.15" fill="#904246" fill-rule="evenodd" stroke="none"/>
    <path d="M-2.2 -3.15 L-2.6 -2.15 -2.75 -2.2 -2.75 -2.55 -2.65 -2.85 -2.45 -3.05 -2.2 -3.15" fill="#968286" fill-rule="evenodd" stroke="none"/>
    <path d="M-2.6 -2.15 L-2.55 -2.15 -2.55 -1.6 -2.3 -1.8 -2.65 -1.3 -2.7 -1.2 -2.7 -1.2 -2.9 -0.95 -3.1 -0.65 -3.4 -0.75 -3.3 -1.0 Q-2.85 -1.5 -2.75 -2.2 L-2.6 -2.15" fill="#ab4f55" fill-rule="evenodd" stroke="none"/>
    <path d="M-2.1 -2.05 L-2.2 -1.7 -2.25 -1.5 -2.3 -1.4 -2.4 -1.05 -2.15 -1.2 -2.35 -1.0 -2.45 -0.85 -2.65 -0.6 -2.9 -0.35 -3.1 -0.65 -2.9 -0.95 -2.7 -1.2 -2.7 -1.2 -2.65 -1.3 -2.3 -1.8 -2.1 -2.05" fill="#8b909b" fill-rule="evenodd" stroke="none"/>
    <path d="M-3.5 -0.85 L-3.35 -1.7 -3.35 -1.75 -3.25 -1.8 -3.3 -1.0 -3.4 -0.75 -3.5 -0.85" fill="#d2c9d1" fill-rule="evenodd" stroke="none"/>
    <path d="M-3.25 0.3 L-3.45 0.3 -3.5 0.3 -3.6 0.3 -3.6 0.25 Q-3.4 -0.35 -3.55 -0.8 L-3.5 -0.85 -3.4 -0.75 -3.1 -0.65 -3.25 -0.4 -3.35 -0.15 -3.35 0.1 -3.25 0.3 -3.45 0.3 -3.25 0.3" fill="#caa545" fill-rule="evenodd" stroke="none"/>
    <path d="M-3.6 0.3 L-3.75 0.25 -3.75 0.0 -3.75 -0.65 -3.65 -0.75 -3.55 -0.8 Q-3.4 -0.35 -3.6 0.25 L-3.6 0.3" fill="#9a7821" fill-rule="evenodd" stroke="none"/>
    <path d="M-2.15 -1.2 L-2.0 -1.45 -2.0 -1.45 -1.9 -1.6 -1.8 -1.75 -1.55 -2.0 -1.6 -1.8 -1.6 -1.65 -1.65 -1.55 -1.7 -1.45 -1.7 -1.45 -1.8 -1.25 Q-1.95 -1.1 -1.95 -0.9 L-1.95 -0.9 -2.1 -0.4 -2.15 -0.25 -2.7 -0.1 -2.9 -0.35 -2.65 -0.6 -2.45 -0.85 -2.35 -1.0 -2.15 -1.2" fill="#375382" fill-rule="evenodd" stroke="none"/>
    <path d="M-2.65 0.4 L-2.7 -0.1 -2.7 -0.1 -2.15 -0.25 -2.15 -0.2 -2.2 0.0 -2.15 0.15 -2.0 0.3 -2.05 0.3 -2.1 0.3 -2.65 0.4" fill="#a8b4cb" fill-rule="evenodd" stroke="none"/>
    <path d="M-1.6 -0.35 L-1.8 -0.3 -1.8 -0.3 -1.9 -0.25 -2.1 -0.2 Q-2.1 -0.2 -2.15 -0.2 L-2.15 -0.25 -2.1 -0.4 -1.95 -0.9 -1.95 -0.9 -1.7 -0.8 -1.7 -0.75 -1.65 -0.75 -1.6 -0.35" fill="#4a75b9" fill-rule="evenodd" stroke="none"/>
    <path d="M-1.8 -0.3 L-1.95 0.05 -1.75 0.25 -2.0 0.3 -2.15 0.15 -2.2 0.0 -2.15 -0.2 Q-2.1 -0.2 -2.1 -0.2 L-1.9 -0.25 -1.8 -0.3" fill="#cee1f9" fill-rule="evenodd" stroke="none"/>
    <path d="M-1.15 -2.25 L-0.95 -2.0 -0.9 -1.9 -0.75 -1.4 -1.15 -1.6 -1.4 -1.85 -1.15 -2.25" fill="#fed66b" fill-rule="evenodd" stroke="none"/>
    <path d="M-1.55 -2.0 L-1.55 -2.05 -1.5 -2.1 -1.4 -2.25 -1.15 -2.6 -0.85 -2.25 -0.9 -2.25 -1.15 -2.25 -1.4 -1.85 -1.15 -1.6 -1.25 -1.55 -1.55 -1.65 -1.6 -1.65 -1.6 -1.8 -1.55 -2.0" fill="#6688ba" fill-rule="evenodd" stroke="none"/>
    <path d="M-0.9 -1.9 L-0.6 -1.65 -0.35 -1.4 -0.3 -1.35 -0.55 -1.1 -0.75 -1.4 -0.9 -1.9" fill="#fffb91" fill-rule="evenodd" stroke="none"/>
    <path d="M-1.7 -1.45 L-1.7 -1.45 -1.65 -1.55 -1.6 -1.65 -1.55 -1.65 -1.25 -1.55 -1.3 -1.4 -1.45 -1.15 -1.7 -1.45" fill="#ffe870" fill-rule="evenodd" stroke="none"/>
    <path d="M-1.8 -1.25 L-1.7 -1.45 -1.45 -1.15 -1.4 -1.15 -1.4 -1.1 -1.45 -0.9 -1.45 -0.9 -1.55 -1.0 -1.65 -1.05 -1.65 -1.05 -1.7 -1.15 -1.8 -1.2 -1.8 -1.25" fill="#708ebc" fill-rule="evenodd" stroke="none"/>
    <path d="M-1.3 -1.4 L-1.2 -1.35 -0.85 -0.95 -1.1 -0.8 -1.4 -1.1 -1.4 -1.15 -1.45 -1.15 -1.3 -1.4" fill="#fffeb6" fill-rule="evenodd" stroke="none"/>
    <path d="M-0.55 -0.8 L-1.1 -0.55 -1.6 -0.35 -1.65 -0.75 -1.65 -0.75 -1.6 -0.75 -1.45 -0.7 -1.45 -0.9 -1.45 -0.9 -1.4 -1.1 -1.1 -0.8 -0.85 -0.95 -1.2 -1.35 -1.3 -1.4 -1.25 -1.55 -1.15 -1.6 -0.75 -1.4 -0.55 -1.1 -0.55 -0.8" fill="#94c5fd" fill-rule="evenodd" stroke="none"/>
    <path d="M-1.95 -0.9 L-1.95 -0.9 Q-1.95 -1.1 -1.8 -1.25 L-1.8 -1.2 -1.7 -1.15 -1.65 -1.05 -1.65 -1.05 -1.55 -1.0 -1.45 -0.9 -1.45 -0.7 -1.6 -0.75 -1.65 -0.75 -1.65 -0.75 -1.7 -0.75 -1.7 -0.8 -1.95 -0.9 -1.95 -0.9" fill="#fcda65" fill-rule="evenodd" stroke="none"/>
    <path d="M-1.45 0.15 L-1.15 0.05 -1.2 0.1 -1.25 0.2 -1.35 0.15 -1.45 0.15" fill="#969089" fill-rule="evenodd" stroke="none"/>
    <path d="M-3.3 3.55 L-3.3 3.45 -3.35 3.25 -3.4 3.1 Q-3.2 2.95 -3.15 2.95 -3.1 2.95 -3.05 3.0 L-2.95 3.0 -2.8 2.9 -2.8 2.9 -2.4 3.15 Q-2.25 3.15 -2.2 3.0 L-2.15 2.9 -1.85 2.85 -1.9 2.8 -1.95 2.75 -2.0 2.7 -2.2 2.65 -2.4 2.65 -2.55 2.55 -2.55 2.5 -2.75 2.5 -2.8 2.5 -2.9 2.4 -2.85 2.4 Q-2.85 2.35 -2.8 2.35 L-2.75 2.35 -2.6 2.3 -2.45 2.3 Q-2.35 2.25 -2.3 2.15 L-2.45 2.15 -2.55 2.2 -2.6 2.2 -2.75 2.2 Q-3.05 2.2 -3.2 2.05 L-3.15 2.0 -2.7 1.95 -2.2 1.9 -2.0 1.85 -1.9 1.8 -1.9 1.8 -1.65 1.6 -1.7 1.55 Q-1.7 1.55 -1.75 1.55 L-1.95 1.6 -2.0 1.6 -2.05 1.65 -2.35 1.7 -2.65 1.7 -3.1 1.75 Q-3.2 1.75 -3.5 1.6 L-3.65 1.5 -3.65 1.45 -3.7 1.4 -3.2 1.5 -3.0 1.5 -2.85 1.4 Q-3.0 1.3 -3.25 1.2 L-3.5 1.15 -3.7 1.05 Q-3.65 0.95 -3.55 0.95 L-3.3 1.1 -3.25 1.1 -3.25 1.1 Q-2.95 1.35 -2.75 1.35 -2.65 1.4 -2.6 1.4 L-2.45 1.45 Q-2.4 1.45 -2.3 1.35 -2.25 1.25 -2.1 1.25 L-1.95 1.25 -1.2 1.35 -1.2 1.6 -1.3 2.35 -1.4 3.1 -1.4 3.1 -1.55 3.3 Q-1.6 3.3 -1.65 3.35 L-1.6 3.35 -1.75 3.5 -1.75 3.5 -2.05 3.35 -2.9 3.4 -3.3 3.55 M-1.9 2.1 L-2.0 2.1 -2.0 2.1 -2.3 2.2 -2.1 2.35 Q-1.95 2.45 -1.95 2.5 L-1.9 2.55 -1.85 2.5 -1.95 2.25 -1.9 2.1" fill="#aca7b7" fill-rule="evenodd" stroke="none"/>
    <path d="M-3.7 1.4 L-3.7 1.05 -3.5 1.15 -3.25 1.2 Q-3.0 1.3 -2.85 1.4 L-3.0 1.5 -3.2 1.5 -3.7 1.4 M-1.9 2.1 L-1.95 2.25 -1.85 2.5 -1.9 2.55 -1.95 2.5 Q-1.95 2.45 -2.1 2.35 L-2.3 2.2 -2.0 2.1 -2.0 2.1 -1.9 2.1" fill="#928a84" fill-rule="evenodd" stroke="none"/>
    <path d="M-3.4 3.1 L-3.4 3.05 Q-3.55 2.85 -3.55 2.5 L-3.55 2.15 -3.35 2.2 Q-3.3 2.2 -3.3 2.25 L-3.2 2.25 -3.1 2.3 -3.0 2.4 -3.05 2.45 -3.25 2.45 -3.25 2.5 -3.0 2.6 Q-2.95 2.6 -2.9 2.65 L-2.95 2.7 -3.05 2.7 -3.15 2.7 -3.2 2.75 -3.1 2.8 -2.8 2.8 -2.75 2.8 -2.7 2.8 -2.8 2.9 -2.8 2.9 -2.8 2.9 -2.95 3.0 -3.05 3.0 Q-3.1 2.95 -3.15 2.95 -3.2 2.95 -3.4 3.1" fill="#66615b" fill-rule="evenodd" stroke="none"/>
    <path d="M-1.2 3.65 L-0.95 3.7 Q-0.9 3.7 -0.9 3.6 L-0.85 3.55 -0.7 3.55 -0.7 3.6 -0.95 3.8 Q-1.15 4.0 -1.3 4.0 L-1.2 3.8 -1.2 3.65 M-2.15 2.9 L-2.2 3.0 Q-2.25 3.15 -2.4 3.15 L-2.8 2.9 -2.8 2.9 -2.7 2.8 -2.15 2.9 -2.15 2.9" fill="#6d645b" fill-rule="evenodd" stroke="none"/>
    <path d="M-2.35 4.8 L-2.55 4.7 -2.4 4.6 -2.25 4.4 -2.2 4.2 -2.25 4.15 -2.3 4.1 -2.25 4.05 -2.2 4.0 -2.0 4.15 Q-1.95 4.15 -1.75 4.0 -1.55 3.9 -1.55 3.85 L-1.55 3.85 -1.35 3.85 -1.2 3.8 Q-1.25 3.75 -1.4 3.7 L-1.5 3.65 -1.45 3.6 -1.3 3.65 -1.2 3.65 -1.2 3.8 -1.3 4.0 Q-1.15 4.0 -0.95 3.8 L-0.7 3.6 -0.65 3.6 -0.65 3.6 Q-0.5 3.6 -0.35 3.8 L-0.4 3.8 -0.5 3.85 Q-0.6 3.85 -0.95 4.0 L-1.2 4.2 Q-1.4 4.35 -1.45 4.35 -1.75 4.35 -2.0 4.6 -2.15 4.75 -2.35 4.8 M-1.1 2.8 L-1.15 3.0 -1.15 3.1 -1.25 2.95 -1.35 2.8 -1.3 2.75 -1.3 2.75 -1.1 2.8 M-1.2 3.15 L-1.2 3.2 -1.25 3.25 Q-1.4 3.25 -1.4 3.15 L-1.4 3.1 -1.25 3.15 -1.2 3.15 M-0.85 3.55 L-0.8 3.45 -0.85 3.4 -0.75 3.45 -0.7 3.4 -0.7 3.25 -0.6 3.1 -0.55 3.1 -0.3 3.55 Q-0.35 3.5 -0.65 3.4 L-0.7 3.4 -0.75 3.5 -0.7 3.55 -0.85 3.55" fill="#4b443d" fill-rule="evenodd" stroke="none"/>
    <path d="M0.35 -6.25 L0.3 -6.35 0.15 -6.6 0.15 -6.7 0.1 -6.75 -0.2 -6.4 -0.35 -6.25 -0.35 -6.15 -0.4 -6.15 -1.05 -5.5 -1.3 -5.3 M1.45 -5.25 L1.2 -5.45 1.2 -5.45 1.1 -5.6 0.85 -5.75 0.55 -5.9 0.35 -6.25 M2.05 -4.65 L2.0 -5.05 1.9 -5.25 Q1.85 -5.35 1.75 -5.35 L1.65 -5.35 1.5 -5.25 1.45 -5.25 M2.05 -4.65 Q2.45 -3.95 2.75 -3.55 L2.65 -3.6 2.7 -3.5 3.1 -3.0 2.8 -2.6 2.8 -2.6 2.9 -2.35 2.9 -2.3 2.85 -2.25 2.95 -2.1 3.05 -1.95 Q3.05 -1.9 3.0 -1.9 L2.95 -1.9 Q2.9 -1.85 2.9 -1.75 L3.1 -1.6 3.1 -1.55 3.05 -1.5 3.05 -1.3 3.0 -1.1 2.9 -0.7 2.9 -0.65 Q2.85 -0.45 2.75 -0.3 L2.7 -0.15 2.6 0.1 2.5 0.3 2.45 0.45 Q2.2 0.95 2.05 0.95 L1.75 1.0 1.7 1.0 Q1.6 1.0 1.45 1.1 L1.35 1.2 Q1.3 1.2 1.3 1.2 L1.25 1.25 Q1.25 1.25 1.15 1.3 L1.1 1.35 1.05 1.5 0.8 2.1 0.35 3.0 0.35 3.1 0.3 3.2 Q0.25 3.45 0.05 3.75 L0.0 3.75 Q-0.3 4.1 -0.5 4.1 M-3.15 4.25 Q-3.3 3.95 -3.3 3.55 L-3.3 3.45 -3.35 3.25 -3.4 3.1 -3.4 3.05 Q-3.55 2.85 -3.55 2.5 L-3.55 2.15 -3.55 2.05 -3.65 1.75 -3.65 1.5 -3.65 1.45 -3.7 1.4 -3.7 1.05 Q-3.65 0.95 -3.55 0.95 L-3.3 1.1 -3.25 1.1 -3.1 0.9 -3.05 0.75 -3.0 0.55 -3.0 0.35 -3.05 0.35 -3.25 0.3 -3.45 0.3 -3.5 0.3 -3.6 0.3 -3.75 0.25 -3.75 0.0 -3.75 -0.65 -3.65 -0.75 -3.55 -0.8 -3.5 -0.85 -3.35 -1.7 -3.35 -1.75 Q-3.3 -2.15 -3.0 -2.85 -2.7 -3.55 -2.7 -3.9 L-2.25 -4.35 -1.95 -4.75 -1.85 -4.9 -1.85 -4.9 -1.75 -5.05 -1.4 -5.3 -1.05 -5.55 -1.05 -5.5 M-0.2 -6.4 L-0.35 -6.25 -0.35 -6.25" fill="none" stroke="#000000" stroke-linecap="round" stroke-linejoin="round" stroke-opacity="0.4509804" stroke-width="0.1"/>
  </g>
</svg>
