<?xml version="1.0" encoding="UTF-8" standalone="no"?>
<svg xmlns:xlink="http://www.w3.org/1999/xlink" height="10.0px" width="4.5px" xmlns="http://www.w3.org/2000/svg">
  <g transform="matrix(1.0, 0.0, 0.0, 1.0, 2.25, 5.0)">
    <path d="M2.05 -4.15 L2.1 -4.05 2.1 -4.0 2.15 -3.95 2.2 -3.7 2.2 -3.65 2.25 -3.55 2.25 -3.5 2.25 -3.3 2.25 -3.1 2.25 -3.0 2.25 -2.8 2.25 -2.4 2.25 -2.3 2.2 -2.05 2.2 -1.95 2.1 -1.3 2.1 -1.05 2.05 -1.0 2.05 -0.75 2.0 -0.6 2.0 -0.6 1.95 -0.55 1.9 -0.3 1.85 -0.25 1.85 -0.15 1.8 -0.1 1.75 -0.05 1.75 0.05 1.7 0.15 1.65 0.25 1.5 0.35 1.45 0.4 1.35 0.5 1.35 0.55 1.25 0.65 1.2 0.7 1.15 0.8 1.1 0.85 1.0 0.95 1.0 1.0 0.95 1.1 0.9 1.15 0.9 1.2 0.85 1.25 0.85 1.3 0.8 1.45 0.75 1.55 0.7 1.7 0.65 1.8 0.6 1.9 0.6 2.0 0.55 2.05 0.55 2.1 0.5 2.25 0.45 2.35 0.45 2.4 0.4 2.4 0.35 2.55 0.3 2.6 0.3 2.7 0.25 2.8 0.2 2.85 0.15 3.0 0.15 3.05 Q0.1 3.15 0.1 3.2 L0.05 3.4 0.0 3.5 0.0 3.6 -0.05 3.65 -0.05 3.7 -0.15 3.95 -0.25 4.15 -0.3 4.25 -0.3 4.4 -0.3 4.45 Q-0.3 4.5 -0.3 4.5 L-0.3 4.55 -0.35 4.6 -0.35 4.7 -0.4 4.8 -0.5 4.85 -0.7 4.9 -0.85 4.95 -0.95 5.0 -1.05 5.0 -1.2 5.0 -1.45 4.95 -1.6 4.85 -1.65 4.8 -2.0 4.6 -2.15 4.45 -2.25 4.2 -2.25 4.15 -2.2 4.1 Q-2.15 3.95 -2.1 3.75 L-2.05 3.3 -1.95 2.5 -1.95 2.4 -1.9 2.05 -1.9 0.8 -1.9 0.7 -1.85 0.45 -1.8 -0.15 -1.8 -0.2 -1.75 -0.55 -1.65 -1.15 -1.65 -1.2 -1.5 -1.75 -1.3 -2.3 -1.25 -2.35 -1.15 -2.5 -1.15 -2.55 -0.95 -2.8 -0.95 -2.8 -0.9 -2.85 -0.55 -3.2 -0.55 -3.25 -0.5 -3.3 -0.35 -3.55 -0.3 -3.65 -0.25 -3.8 -0.15 -4.15 -0.1 -4.15 -0.1 -4.2 0.1 -4.4 Q0.35 -4.5 0.45 -4.8 L0.55 -4.85 Q0.9 -5.1 1.25 -4.95 L1.45 -4.9 1.55 -4.85 Q1.75 -4.7 1.9 -4.45 L2.0 -4.25 2.0 -4.2 2.0 -4.15 2.05 -4.15 2.05 -4.15" fill="#b8905c" fill-rule="evenodd" stroke="none"/>
  </g>
</svg>
