<?xml version="1.0" encoding="UTF-8" standalone="no"?>
<svg xmlns:xlink="http://www.w3.org/1999/xlink" height="10.2px" width="5.35px" xmlns="http://www.w3.org/2000/svg">
  <g transform="matrix(1.0, 0.0, 0.0, 1.0, 2.45, 5.1)">
    <path d="M-0.45 -3.75 L-0.25 -4.05 0.0 -4.4 0.15 -4.6 Q0.3 -4.8 0.4 -4.8 0.65 -5.0 0.8 -5.0 L0.9 -5.0 0.95 -5.05 Q1.2 -5.05 1.55 -4.85 2.0 -4.7 2.0 -4.5 2.2 -4.15 2.2 -4.05 2.2 -3.95 2.3 -3.8 L2.35 -3.6 2.35 -3.4 2.0 -3.5 1.6 -3.6 1.45 -3.65 1.15 -3.8 0.9 -3.9 0.85 -3.9 0.75 -3.9 0.3 -3.9 0.1 -3.85 0.05 -3.85 -0.45 -3.75" fill="#303541" fill-rule="evenodd" stroke="none"/>
    <path d="M2.35 -3.4 L2.45 -3.35 2.5 -3.15 2.45 -2.8 Q2.35 -2.75 2.3 -2.55 2.3 -2.35 2.3 -2.15 2.3 -1.95 2.4 -1.85 2.55 -1.75 2.65 -1.9 L2.75 -1.85 2.8 -1.6 2.65 -1.5 Q2.55 -1.6 2.3 -1.5 2.05 -1.5 2.0 -1.65 1.95 -1.9 1.85 -1.75 L1.75 -1.55 Q1.6 -1.6 1.35 -1.85 1.15 -2.15 0.95 -2.1 L0.55 -2.0 0.1 -2.0 0.0 -2.1 Q0.1 -2.3 0.5 -2.3 L1.05 -2.35 1.65 -2.55 Q2.05 -2.65 2.2 -2.75 2.45 -2.8 2.4 -3.0 2.35 -3.2 2.2 -3.3 2.05 -3.35 2.0 -3.5 L2.35 -3.4 M-0.7 -3.7 L-0.45 -3.75 0.05 -3.85 Q0.05 -3.75 0.1 -3.85 L0.1 -3.85 0.3 -3.9 0.3 -3.85 0.1 -3.5 Q0.0 -3.35 -0.15 -3.55 -0.2 -3.75 -0.35 -3.75 L-0.5 -3.7 -0.7 -3.65 -0.7 -3.7 M0.9 -3.9 L1.15 -3.8 Q1.15 -3.55 0.95 -3.4 0.85 -3.1 0.55 -3.25 0.25 -3.35 0.3 -3.65 L0.65 -3.65 Q0.75 -3.55 0.75 -3.6 L0.85 -3.75 0.9 -3.9 M1.45 -3.65 L1.6 -3.6 1.5 -3.3 Q1.45 -3.5 1.45 -3.65" fill="#3b302c" fill-rule="evenodd" stroke="none"/>
    <path d="M2.45 -3.35 L2.5 -3.35 2.6 -3.3 2.5 -3.15 2.45 -3.35" fill="#6c7071" fill-rule="evenodd" stroke="none"/>
    <path d="M-0.85 -3.65 L-0.7 -3.7 -0.7 -3.65 -0.5 -3.7 -0.35 -3.75 Q-0.2 -3.75 -0.15 -3.55 0.0 -3.35 0.1 -3.5 L0.3 -3.85 0.3 -3.65 Q0.25 -3.35 0.55 -3.25 0.85 -3.1 0.95 -3.4 1.15 -3.55 1.15 -3.8 L1.45 -3.65 Q1.45 -3.5 1.5 -3.3 L1.6 -3.6 2.0 -3.5 Q2.05 -3.35 2.2 -3.3 2.35 -3.2 2.4 -3.0 2.45 -2.8 2.2 -2.75 2.05 -2.65 1.65 -2.55 L1.05 -2.35 0.5 -2.3 Q0.1 -2.3 0.0 -2.1 -0.1 -2.3 0.0 -2.45 L0.35 -2.7 -0.05 -3.0 Q-0.3 -3.15 -0.35 -3.35 -0.4 -3.5 -0.6 -3.45 L-0.85 -3.45 Q-0.85 -3.6 -0.85 -3.65" fill="#282020" fill-rule="evenodd" stroke="none"/>
    <path d="M2.45 -2.8 L2.65 -1.9 Q2.55 -1.75 2.4 -1.85 2.3 -1.95 2.3 -2.15 2.3 -2.35 2.3 -2.55 2.35 -2.75 2.45 -2.8" fill="#86523e" fill-rule="evenodd" stroke="none"/>
    <path d="M0.05 -3.85 L0.1 -3.85 0.1 -3.85 Q0.05 -3.75 0.05 -3.85 M0.3 -3.9 L0.75 -3.9 0.85 -3.9 0.9 -3.9 0.85 -3.75 0.75 -3.6 Q0.75 -3.55 0.65 -3.65 L0.3 -3.65 0.3 -3.85 0.3 -3.9" fill="#805834" fill-rule="evenodd" stroke="none"/>
    <path d="M2.65 -1.5 L2.3 -1.3 2.3 -1.3 2.1 -1.1 1.9 -0.85 1.5 -0.2 Q1.3 0.15 0.95 0.25 0.8 0.2 0.9 -0.1 1.0 -0.4 0.9 -0.55 L0.75 -0.45 Q0.6 -0.45 0.6 -0.5 0.65 -0.75 0.55 -0.9 0.45 -1.05 0.25 -0.85 0.25 -1.05 0.1 -1.45 -0.05 -1.85 0.0 -2.1 L0.1 -2.0 0.2 -1.8 Q0.05 -1.15 1.1 -1.35 L1.5 -1.35 Q1.7 -1.35 1.75 -1.55 L1.85 -1.75 Q1.95 -1.9 2.0 -1.65 2.05 -1.5 2.3 -1.5 2.55 -1.6 2.65 -1.5" fill="#242127" fill-rule="evenodd" stroke="none"/>
    <path d="M0.1 -2.0 L0.55 -2.0 0.95 -2.1 Q1.15 -2.15 1.35 -1.85 1.6 -1.6 1.75 -1.55 1.7 -1.35 1.5 -1.35 L1.1 -1.35 Q1.05 -1.45 0.85 -1.45 L0.6 -1.5 Q0.25 -1.5 0.2 -1.8 L0.1 -2.0" fill="#5f4c39" fill-rule="evenodd" stroke="none"/>
    <path d="M1.1 -1.35 Q0.05 -1.15 0.2 -1.8 0.25 -1.5 0.6 -1.5 L0.85 -1.45 Q1.05 -1.45 1.1 -1.35" fill="#c39e64" fill-rule="evenodd" stroke="none"/>
    <path d="M0.25 -0.85 Q0.45 -1.05 0.55 -0.9 0.65 -0.75 0.6 -0.5 0.55 -0.25 0.45 -0.2 0.35 -0.05 0.15 -0.2 L0.25 -0.5 0.25 -0.85" fill="#5a4b3e" fill-rule="evenodd" stroke="none"/>
    <path d="M2.3 -1.3 L2.25 -1.0 2.2 -0.65 Q2.2 -0.4 1.75 0.35 L1.2 1.0 0.85 1.6 0.65 1.95 Q0.6 1.95 0.6 2.05 L0.55 2.15 0.45 2.15 Q-0.1 2.2 0.6 1.55 0.45 1.45 0.3 1.6 L0.1 1.85 -0.1 1.7 Q-0.4 1.85 -0.65 2.3 -0.95 2.85 -1.1 3.0 -1.2 2.6 -0.8 2.15 L-0.45 1.8 Q-0.3 1.6 -0.25 1.4 -0.4 1.4 -0.45 1.3 -0.45 1.15 -0.35 1.0 L-0.15 1.1 Q-0.1 1.15 -0.15 1.15 -0.25 1.3 -0.1 1.35 0.05 1.4 0.05 1.5 L0.15 1.65 Q0.25 1.65 0.25 1.5 0.35 1.25 0.2 1.15 L0.5 0.95 Q0.6 0.9 0.65 0.7 L0.7 0.45 0.5 0.55 0.2 0.65 Q0.3 0.2 0.1 -0.05 L0.15 -0.2 Q0.35 -0.05 0.45 -0.2 0.55 -0.25 0.6 -0.5 0.6 -0.45 0.75 -0.45 L0.9 -0.55 Q1.0 -0.4 0.9 -0.1 0.8 0.2 0.95 0.25 1.3 0.15 1.5 -0.2 L1.9 -0.85 2.1 -1.1 2.3 -1.3 2.3 -1.3" fill="#3c3233" fill-rule="evenodd" stroke="none"/>
    <path d="M-1.0 -3.6 L-0.85 -3.65 Q-0.85 -3.6 -0.85 -3.45 L-0.6 -3.45 Q-0.4 -3.5 -0.35 -3.35 -0.3 -3.15 -0.05 -3.0 L0.35 -2.7 0.0 -2.45 Q-0.1 -2.3 0.0 -2.1 -0.05 -1.85 0.1 -1.45 0.25 -1.05 0.25 -0.85 L0.25 -0.5 0.15 -0.2 0.1 -0.05 -0.15 0.25 -0.4 0.45 -0.75 0.5 -1.05 0.1 Q-1.55 -0.3 -1.4 -1.0 -1.3 -1.7 -0.75 -2.05 L-0.45 -2.3 Q-0.35 -2.5 -0.5 -2.65 -0.8 -2.9 -0.9 -3.1 -1.05 -3.35 -1.0 -3.6" fill="#18161e" fill-rule="evenodd" stroke="none"/>
    <path d="M0.5 2.5 L0.15 3.6 Q-0.3 4.9 -0.5 4.9 L-0.55 4.9 -0.65 4.95 -0.7 4.95 -0.8 5.0 -1.1 5.05 Q-1.8 4.85 -1.8 4.7 L-2.1 4.5 -2.3 4.2 -2.2 3.8 -2.15 3.4 -2.1 3.15 Q-2.25 3.1 -2.4 3.05 L-2.15 2.65 -1.9 2.15 -1.9 2.05 -1.85 1.85 -1.85 1.4 Q-1.9 1.15 -1.7 1.05 -1.5 0.95 -1.6 0.85 L-1.75 0.6 -1.7 -0.1 -1.65 -0.75 Q-1.5 -0.95 -1.7 -1.0 L-1.8 -1.05 -2.1 -1.05 -1.85 -1.4 -1.65 -1.8 Q-1.6 -1.9 -1.7 -2.1 L-1.9 -2.5 -1.8 -2.65 -1.3 -3.4 -1.2 -3.45 Q-1.15 -3.45 -1.1 -3.5 L-1.05 -3.6 -1.0 -3.65 -1.0 -3.6 Q-1.05 -3.35 -0.9 -3.1 -0.8 -2.9 -0.5 -2.65 -0.35 -2.5 -0.45 -2.3 L-0.75 -2.05 Q-1.3 -1.7 -1.4 -1.0 -1.55 -0.3 -1.05 0.1 L-0.75 0.5 -0.4 0.45 -0.15 0.25 0.1 -0.05 Q0.3 0.2 0.2 0.65 0.1 0.8 -0.1 0.65 -0.1 0.9 -0.35 1.0 -0.45 1.15 -0.45 1.3 -0.4 1.4 -0.25 1.4 -0.3 1.6 -0.45 1.8 L-0.8 2.15 Q-1.2 2.6 -1.1 3.0 L-1.2 3.1 -1.45 2.9 Q-1.65 2.75 -1.75 2.85 L-1.4 3.4 -1.45 3.6 -1.5 3.7 -1.3 3.85 Q-0.95 4.15 -0.5 4.4 L-0.25 4.05 -0.25 3.8 Q-0.25 3.7 -0.05 3.5 L0.0 3.4 Q0.0 3.05 0.1 2.85 0.25 2.55 0.5 2.5 M-1.5 1.2 L-1.55 1.35 Q-1.45 1.4 -1.4 1.3 -1.3 1.2 -1.4 1.15 -1.5 1.05 -1.5 1.2" fill="#24232a" fill-rule="evenodd" stroke="none"/>
    <path d="M-1.2 -3.45 L-1.2 -3.55 -1.05 -3.6 -1.1 -3.5 Q-1.15 -3.45 -1.2 -3.45" fill="#474952" fill-rule="evenodd" stroke="none"/>
    <path d="M-1.9 2.15 L-1.95 -0.15 -1.9 -0.4 -1.85 -0.65 -2.0 -0.6 Q-2.15 -0.65 -2.2 -0.85 L-2.1 -1.05 -1.8 -1.05 -1.7 -1.0 Q-1.5 -0.95 -1.65 -0.75 L-1.7 -0.1 -1.75 0.6 -1.6 0.85 Q-1.5 0.95 -1.7 1.05 -1.9 1.15 -1.85 1.4 L-1.85 1.85 -1.9 2.05 -1.9 2.15" fill="#4e4541" fill-rule="evenodd" stroke="none"/>
    <path d="M0.2 0.65 L0.5 0.55 0.7 0.45 0.65 0.7 Q0.6 0.9 0.5 0.95 0.35 0.75 0.1 0.9 -0.2 1.05 -0.05 1.25 L0.2 1.15 Q0.35 1.25 0.25 1.5 0.25 1.65 0.15 1.65 L0.05 1.5 Q0.05 1.4 -0.1 1.35 -0.25 1.3 -0.15 1.15 -0.1 1.15 -0.15 1.1 L-0.35 1.0 Q-0.1 0.9 -0.1 0.65 0.1 0.8 0.2 0.65" fill="#64574c" fill-rule="evenodd" stroke="none"/>
    <path d="M-1.5 1.2 Q-1.5 1.05 -1.4 1.15 -1.3 1.2 -1.4 1.3 -1.45 1.4 -1.55 1.35 L-1.5 1.2" fill="#5e5e63" fill-rule="evenodd" stroke="none"/>
    <path d="M-1.1 3.0 Q-0.95 2.85 -0.65 2.3 -0.4 1.85 -0.1 1.7 L0.1 1.85 0.0 2.0 -0.35 2.9 Q-0.6 3.4 -1.1 3.25 -1.25 3.25 -1.2 3.1 L-1.1 3.0" fill="#554a4b" fill-rule="evenodd" stroke="none"/>
    <path d="M0.65 1.95 L0.7 2.05 Q0.7 2.35 0.55 2.5 L0.5 2.5 Q0.25 2.55 0.1 2.85 0.0 3.05 0.0 3.4 L-0.05 3.5 Q-0.25 3.7 -0.25 3.8 L-0.25 4.05 -0.5 4.4 Q-0.95 4.15 -1.3 3.85 -1.25 3.85 -1.2 3.7 L-1.05 3.9 -0.85 3.85 -1.05 3.6 Q-1.2 3.4 -1.4 3.4 L-1.75 2.85 Q-1.65 2.75 -1.45 2.9 L-1.2 3.1 Q-1.25 3.25 -1.1 3.25 -0.6 3.4 -0.35 2.9 L0.0 2.0 Q0.15 2.2 0.3 2.3 L0.5 2.3 0.55 2.25 0.55 2.15 0.6 2.05 Q0.6 1.95 0.65 1.95" fill="#322c33" fill-rule="evenodd" stroke="none"/>
    <path d="M-1.4 3.4 Q-1.2 3.4 -1.05 3.6 L-0.85 3.85 -1.05 3.9 -1.2 3.7 Q-1.25 3.85 -1.3 3.85 L-1.5 3.7 -1.45 3.6 -1.4 3.4" fill="#5b5151" fill-rule="evenodd" stroke="none"/>
    <path d="M0.5 0.95 L0.2 1.15 -0.05 1.25 Q-0.2 1.05 0.1 0.9 0.35 0.75 0.5 0.95" fill="#9d8974" fill-rule="evenodd" stroke="none"/>
    <path d="M0.1 1.85 L0.3 1.6 Q0.45 1.45 0.6 1.55 -0.1 2.2 0.45 2.15 L0.55 2.15 0.55 2.25 0.5 2.3 0.3 2.3 Q0.15 2.2 0.0 2.0 L0.1 1.85" fill="#b09978" fill-rule="evenodd" stroke="none"/>
    <path d="M-0.45 -3.75 L-0.25 -4.05 0.0 -4.4 0.15 -4.6 Q0.3 -4.8 0.4 -4.8 0.65 -5.0 0.8 -5.0 L0.9 -5.0 0.95 -5.05 Q1.2 -5.05 1.55 -4.85 2.0 -4.7 2.0 -4.5 2.2 -4.15 2.2 -4.05 2.2 -3.95 2.3 -3.8 L2.35 -3.6 2.35 -3.4 2.45 -3.35 2.5 -3.35 2.6 -3.3 2.5 -3.15 2.45 -2.8 2.65 -1.9 2.75 -1.85 2.8 -1.6 2.65 -1.5 2.3 -1.3 2.25 -1.0 2.2 -0.65 Q2.2 -0.4 1.75 0.35 L1.2 1.0 0.85 1.6 0.65 1.95 0.7 2.05 Q0.7 2.35 0.55 2.5 L0.5 2.5 0.15 3.6 Q-0.3 4.9 -0.5 4.9 L-0.55 4.9 -0.65 4.95 -0.7 4.95 -0.8 5.0 -1.1 5.05 Q-1.8 4.85 -1.8 4.7 L-2.1 4.5 -2.3 4.2 -2.2 3.8 -2.15 3.4 -2.1 3.15 Q-2.25 3.1 -2.4 3.05 L-2.15 2.65 -1.9 2.15 -1.95 -0.15 -1.9 -0.4 -1.85 -0.65 -2.0 -0.6 Q-2.15 -0.65 -2.2 -0.85 L-2.1 -1.05 -1.85 -1.4 -1.65 -1.8 Q-1.6 -1.9 -1.7 -2.1 L-1.9 -2.5 -1.8 -2.65 -1.3 -3.4 -1.2 -3.45 -1.2 -3.55 -1.05 -3.6 -1.0 -3.65 -1.0 -3.6 -0.85 -3.65 -0.7 -3.7 -0.45 -3.75 Z" fill="none" stroke="#000000" stroke-linecap="round" stroke-linejoin="round" stroke-opacity="0.4509804" stroke-width="0.1"/>
  </g>
</svg>
