<?xml version="1.0" encoding="UTF-8" standalone="no"?>
<svg xmlns:xlink="http://www.w3.org/1999/xlink" height="10.5px" width="5.25px" xmlns="http://www.w3.org/2000/svg">
  <g transform="matrix(1.0, 0.0, 0.0, 1.0, 2.4, 5.3)">
    <path d="M1.5 -5.15 L1.45 -5.0 1.15 -4.2 1.1 -4.0 1.05 -3.95 1.05 -4.0 1.0 -4.05 0.95 -4.1 0.8 -4.3 0.45 -4.75 0.8 -5.25 0.8 -5.25 1.5 -5.15 M2.05 -3.8 L2.05 -3.9 2.15 -4.65 2.15 -4.7 2.3 -4.5 Q2.75 -3.85 2.8 -3.1 L2.5 -3.25 Q2.35 -3.3 2.25 -3.35 2.1 -3.5 2.0 -3.55 L2.05 -3.8 M2.65 -1.75 Q2.5 -1.05 2.3 -1.05 L2.2 -1.0 2.15 -1.0 2.15 -0.9 Q2.15 -0.65 1.85 0.0 L1.5 0.05 1.35 0.05 1.3 0.0 1.35 -0.1 1.7 -0.75 1.8 -0.95 1.55 -0.95 1.45 -0.9 1.6 -1.05 1.85 -1.35 1.85 -1.4 1.9 -1.5 1.95 -1.6 Q2.15 -1.6 2.65 -1.75 M0.2 3.2 L0.2 3.3 0.15 3.4 -0.05 3.9 -0.05 3.95 Q-0.1 4.2 -0.4 4.9 L-0.4 4.9 -0.5 4.95 -0.55 4.95 -0.15 3.7 -0.1 3.5 -0.05 3.35 0.2 3.2 M-1.05 5.1 Q-1.35 5.1 -1.65 4.95 L-1.75 4.85 -1.6 4.4 -1.45 3.9 -1.25 3.25 -1.2 3.25 Q-0.8 3.55 -0.65 3.55 L-0.65 3.65 Q-0.85 4.1 -0.85 4.3 L-1.05 5.1 M-2.15 4.5 L-2.25 4.4 -2.25 4.3 Q-2.25 4.25 -2.35 4.25 L-2.35 4.15 -2.25 3.8 Q-2.15 3.55 -2.15 3.1 L-2.2 2.95 -2.15 2.6 -2.15 2.5 -2.0 2.75 -1.95 2.8 -1.8 3.0 -1.75 3.1 -1.8 3.3 -1.85 3.6 -1.95 3.8 -1.95 3.8 -2.0 4.05 -2.15 4.5 M-1.75 -1.15 L-1.5 -1.95 -1.3 -1.7 -1.2 -1.6 -1.05 -1.5 -1.05 -1.4 -1.1 -1.15 Q-1.1 -1.05 -1.2 -0.65 L-1.3 -0.8 -1.35 -0.85 -1.45 -1.0 -1.45 -1.0 Q-1.6 -1.0 -1.7 -1.1 L-1.75 -1.15 M-0.15 -1.95 L-0.2 -1.9 Q-0.3 -1.7 -0.3 -1.5 L-0.3 -1.5 -0.25 -1.25 -0.25 -1.25 -0.4 -1.3 -0.4 -1.3 -0.5 -1.35 -0.75 -1.35 Q-0.85 -1.4 -1.0 -1.45 L-1.05 -1.5 -1.15 -1.7 -1.2 -1.75 -1.25 -1.8 -1.3 -1.9 -1.3 -1.95 Q-1.4 -2.1 -1.4 -2.25 L-1.4 -2.35 -1.2 -2.2 -1.15 -2.15 -1.05 -2.1 -0.65 -1.95 Q-0.6 -1.95 -0.55 -2.0 L-0.5 -2.05 -0.25 -1.95 -0.2 -1.95 -0.2 -1.95 -0.15 -1.95 M-0.25 -0.35 L-0.05 -1.1 0.0 -1.15 0.25 -1.05 0.65 -1.0 0.7 -1.0 0.8 -0.95 0.8 -0.9 0.6 -0.3 0.55 -0.3 0.4 -0.35 0.2 -0.35 -0.05 -0.3 -0.05 -0.3 -0.25 -0.35 M-1.25 3.25 L-1.25 3.25 M-0.4 4.85 L-0.45 4.85 -0.4 4.9 -0.4 4.85" fill="#0e122f" fill-rule="evenodd" stroke="none"/>
    <path d="M0.8 -5.25 L0.45 -4.75 Q0.05 -4.25 -0.6 -3.6 L-0.65 -3.55 Q-1.2 -3.0 -1.35 -2.55 L-1.5 -2.7 -1.65 -3.0 -1.2 -3.7 -0.4 -4.65 -0.1 -5.0 0.0 -5.05 0.25 -5.15 0.8 -5.25 M2.0 -3.3 L2.0 -3.2 2.05 -2.85 2.05 -2.5 Q2.05 -1.95 1.95 -1.6 L1.9 -1.5 1.85 -1.4 1.3 -1.55 1.3 -1.55 0.9 -1.5 Q0.7 -1.5 0.2 -1.7 L0.15 -1.75 Q0.0 -1.8 -0.15 -1.9 L-0.2 -1.9 -0.15 -1.95 -0.15 -2.0 -0.05 -2.1 -0.05 -2.15 0.05 -2.25 0.7 -3.25 0.95 -3.65 1.05 -3.6 Q1.45 -3.25 1.7 -3.25 L1.85 -3.3 1.9 -3.3 2.0 -3.3 M0.5 0.05 Q0.7 0.15 0.9 0.15 L0.95 0.15 1.25 0.05 0.9 0.55 Q0.65 0.85 0.65 1.2 L0.0 3.2 -0.05 3.35 -0.1 3.5 -0.2 3.55 -0.2 3.55 -0.3 3.55 -0.65 3.65 -0.65 3.55 -0.45 3.1 -0.05 2.0 0.0 1.7 Q0.2 1.05 0.5 0.05 M-0.35 0.0 L-0.8 1.65 -1.25 3.25 -1.4 3.3 -1.55 3.35 -1.65 3.35 -1.8 3.3 -1.75 3.1 -1.7 2.9 -1.6 2.5 -1.55 2.1 -1.6 1.75 -1.55 1.3 -1.5 0.9 -1.35 0.1 -1.35 -0.05 -1.25 -0.6 -1.2 -0.65 -1.0 -0.35 -0.65 -0.15 -0.35 0.0 M-1.25 3.25 L-1.25 3.25" fill="#9a5715" fill-rule="evenodd" stroke="none"/>
    <path d="M1.1 -4.0 L1.15 -4.2 1.45 -5.0 1.5 -5.15 1.6 -5.1 Q1.75 -5.0 1.9 -4.9 L2.15 -4.7 2.15 -4.65 2.05 -3.9 2.05 -3.8 1.95 -3.8 1.9 -3.8 1.85 -3.8 1.4 -3.95 1.3 -3.95 1.1 -4.0 M-1.75 4.85 Q-1.95 4.75 -2.0 4.75 L-2.05 4.7 -2.05 4.6 -2.15 4.55 -2.15 4.5 -2.0 4.05 -1.95 4.0 -1.9 4.0 -1.75 4.0 -1.7 4.0 -1.45 3.9 -1.6 4.4 -1.75 4.85" fill="#5e2d11" fill-rule="evenodd" stroke="none"/>
    <path d="M0.45 -4.75 L0.8 -4.3 0.95 -4.1 1.0 -4.05 1.05 -4.0 1.05 -3.95 1.05 -3.9 0.95 -3.65 0.7 -3.25 0.05 -2.25 -0.05 -2.15 -0.05 -2.1 -0.15 -2.0 -0.15 -1.95 -0.2 -1.95 -0.2 -1.95 -0.25 -1.95 -0.5 -2.05 -0.55 -2.0 Q-0.6 -1.95 -0.65 -1.95 L-1.05 -2.1 -1.15 -2.15 -1.2 -2.2 -1.4 -2.35 -1.35 -2.55 Q-1.2 -3.0 -0.65 -3.55 L-0.6 -3.6 Q0.05 -4.25 0.45 -4.75 M2.0 -3.55 Q2.1 -3.5 2.25 -3.35 2.35 -3.3 2.5 -3.25 L2.8 -3.1 2.8 -3.05 2.7 -2.25 2.65 -1.75 Q2.15 -1.6 1.95 -1.6 2.05 -1.95 2.05 -2.5 L2.05 -2.85 2.0 -3.2 2.0 -3.3 2.0 -3.55 M1.85 0.0 L1.75 0.1 Q1.45 0.7 1.25 0.8 L1.15 0.8 Q1.05 0.8 0.85 1.45 L0.55 2.4 0.2 3.2 -0.05 3.35 0.0 3.2 0.65 1.2 Q0.65 0.85 0.9 0.55 L1.25 0.05 1.3 0.0 1.35 0.05 1.5 0.05 1.85 0.0 M-2.15 2.5 L-2.15 2.4 -2.05 1.6 -2.0 1.4 -2.0 1.25 -1.95 1.1 -1.9 0.05 -1.85 -0.4 -1.85 -0.7 -1.75 -1.15 -1.7 -1.1 Q-1.6 -1.0 -1.45 -1.0 L-1.45 -1.0 -1.35 -0.85 -1.3 -0.8 -1.2 -0.65 -1.25 -0.6 -1.35 -0.05 -1.35 0.1 -1.5 0.9 -1.55 1.3 -1.6 1.75 -1.55 2.1 -1.6 2.5 -1.7 2.9 -1.75 3.1 -1.8 3.0 -1.95 2.8 -2.0 2.75 -2.15 2.5 M0.6 -0.3 L0.5 0.05 Q0.2 1.05 0.0 1.7 L-0.05 2.0 -0.45 3.1 -0.65 3.55 Q-0.8 3.55 -1.2 3.25 L-1.25 3.25 -0.8 1.65 -0.35 0.0 -0.25 -0.35 -0.05 -0.3 -0.05 -0.3 0.2 -0.35 0.4 -0.35 0.55 -0.3 0.6 -0.3" fill="#161c4a" fill-rule="evenodd" stroke="none"/>
    <path d="M1.1 -4.0 L1.3 -3.95 1.4 -3.95 1.85 -3.8 1.9 -3.8 1.95 -3.8 2.05 -3.8 2.0 -3.55 2.0 -3.3 1.9 -3.3 1.85 -3.3 1.7 -3.25 Q1.45 -3.25 1.05 -3.6 L0.95 -3.65 1.05 -3.9 1.05 -3.95 1.1 -4.0 M-0.55 4.95 L-0.7 5.05 -0.8 5.1 -0.8 5.1 -0.95 5.1 -1.05 5.1 -1.05 5.1 -0.85 4.3 Q-0.85 4.1 -0.65 3.65 L-0.3 3.55 -0.2 3.55 -0.2 3.55 -0.1 3.5 -0.15 3.7 -0.55 4.95 M-1.5 -1.95 L-1.8 -2.4 Q-1.8 -2.65 -1.65 -3.0 L-1.5 -2.7 -1.35 -2.55 -1.4 -2.35 -1.4 -2.25 Q-1.4 -2.1 -1.3 -1.95 L-1.3 -1.9 -1.25 -1.8 -1.2 -1.75 -1.15 -1.7 -1.05 -1.5 -1.0 -1.45 Q-0.85 -1.4 -0.75 -1.35 L-0.5 -1.35 -0.4 -1.3 -0.4 -1.3 -0.25 -1.25 -0.25 -1.25 -0.3 -1.5 -0.3 -1.5 Q-0.3 -1.7 -0.2 -1.9 L-0.15 -1.9 Q0.0 -1.8 0.15 -1.75 L0.2 -1.7 Q0.7 -1.5 0.9 -1.5 L1.3 -1.55 1.3 -1.55 1.85 -1.4 1.85 -1.35 1.6 -1.05 1.45 -0.9 1.55 -0.95 1.8 -0.95 1.7 -0.75 1.35 -0.1 1.3 0.0 1.25 0.05 0.95 0.15 0.9 0.15 Q0.7 0.15 0.5 0.05 L0.6 -0.3 0.8 -0.9 0.8 -0.95 0.7 -1.0 0.65 -1.0 0.25 -1.05 0.0 -1.15 -0.05 -1.1 -0.25 -0.35 -0.35 0.0 -0.65 -0.15 -1.0 -0.35 -1.2 -0.65 Q-1.1 -1.05 -1.1 -1.15 L-1.05 -1.4 -1.05 -1.5 -1.2 -1.6 -1.3 -1.7 -1.5 -1.95 M-1.8 3.3 L-1.65 3.35 -1.55 3.35 -1.4 3.3 -1.25 3.25 -1.45 3.9 -1.7 4.0 -1.75 4.0 -1.9 4.0 -1.95 4.0 -2.0 4.05 -1.95 3.8 -1.95 3.8 -1.85 3.6 -1.8 3.3" fill="#7f4a29" fill-rule="evenodd" stroke="none"/>
    <path d="M2.15 -4.7 L1.9 -4.9 Q1.75 -5.0 1.6 -5.1 L1.5 -5.15 0.8 -5.25 0.8 -5.25 0.25 -5.15 0.0 -5.05 -0.1 -5.0 -0.4 -4.65 -1.2 -3.7 -1.65 -3.0 Q-1.8 -2.65 -1.8 -2.4 L-1.5 -1.95 -1.75 -1.15 -1.85 -0.7 -1.85 -0.4 -1.9 0.05 -1.95 1.1 -2.0 1.25 -2.0 1.4 -2.05 1.6 -2.15 2.4 -2.15 2.5 -2.15 2.6 -2.2 2.95 -2.15 3.1 Q-2.15 3.55 -2.25 3.8 L-2.35 4.15 -2.35 4.25 Q-2.25 4.25 -2.25 4.3 L-2.25 4.4 -2.15 4.5 -2.15 4.55 -2.05 4.6 -2.05 4.7 -2.0 4.75 Q-1.95 4.75 -1.75 4.85 L-1.65 4.95 Q-1.35 5.1 -1.05 5.1 L-1.05 5.1 -0.95 5.1 -0.8 5.1 -0.8 5.1 -0.7 5.05 -0.55 4.95 -0.5 4.95 -0.4 4.9 -0.4 4.9 -0.4 4.85 -0.45 4.85 -0.4 4.9 Q-0.1 4.2 -0.05 3.95 L-0.05 3.9 0.15 3.4 0.2 3.3 0.2 3.2 0.55 2.4 0.85 1.45 Q1.05 0.8 1.15 0.8 L1.25 0.8 Q1.45 0.7 1.75 0.1 L1.85 0.0 Q2.15 -0.65 2.15 -0.9 L2.15 -1.0 2.2 -1.0 2.3 -1.05 Q2.5 -1.05 2.65 -1.75 L2.7 -2.25 2.8 -3.05 2.8 -3.1 Q2.75 -3.85 2.3 -4.5 L2.15 -4.7 Z" fill="none" stroke="#000000" stroke-linecap="round" stroke-linejoin="round" stroke-opacity="0.4509804" stroke-width="0.1"/>
  </g>
</svg>
