<?xml version="1.0" encoding="UTF-8" standalone="no"?>
<svg xmlns:xlink="http://www.w3.org/1999/xlink" height="10.25px" width="4.65px" xmlns="http://www.w3.org/2000/svg">
  <g transform="matrix(1.0, 0.0, 0.0, 1.0, 2.3, 5.15)">
    <path d="M-0.45 -3.5 Q-0.3 -3.7 -0.25 -3.8 -0.15 -4.2 0.0 -4.35 L0.4 -4.8 Q0.65 -5.05 1.05 -5.15 L1.5 -5.05 Q1.75 -4.85 1.9 -4.6 L1.9 -4.45 1.85 -4.4 1.8 -4.35 Q1.75 -4.25 1.6 -4.25 L1.45 -4.4 1.15 -4.25 Q1.0 -4.3 1.0 -4.45 L1.0 -4.6 1.1 -4.8 Q1.1 -4.85 1.05 -4.9 L1.0 -4.9 0.8 -4.55 Q0.75 -4.35 0.75 -4.2 L0.65 -4.15 Q0.6 -4.15 0.5 -4.25 L0.45 -4.35 Q0.45 -4.45 0.35 -4.65 L0.1 -4.3 Q0.1 -4.25 0.25 -4.05 0.45 -3.8 0.55 -3.55 L0.95 -4.0 1.35 -4.05 Q1.5 -4.05 1.7 -3.7 L1.45 -3.05 1.25 -3.35 Q1.1 -3.3 0.85 -3.2 0.65 -3.1 0.5 -3.1 0.4 -3.1 -0.1 -3.55 L-0.4 -3.2 -0.3 -3.1 Q-0.2 -3.05 -0.05 -2.9 0.05 -2.75 0.15 -2.8 L0.15 -2.55 Q0.1 -2.05 -0.15 -2.05 L-0.25 -2.15 -0.35 -2.35 -0.5 -2.3 -0.5 -2.1 Q-0.3 -2.1 -0.15 -1.85 -0.05 -1.7 -0.05 -1.6 L-0.15 -1.6 Q-0.15 -1.1 -0.4 -1.0 L-0.55 -1.15 -0.65 -1.15 -0.85 -1.3 -0.9 -1.3 -0.9 -1.4 -0.8 -1.6 -0.75 -1.8 -0.7 -2.75 -0.45 -3.5 M-2.15 3.6 L-2.05 3.3 -2.05 2.85 -1.9 2.8 -1.85 2.75 -1.85 2.75 -1.75 2.65 -1.65 2.55 -1.45 2.7 -1.45 2.75 -1.5 2.7 -1.85 2.9 -1.8 2.95 Q-1.55 2.85 -1.45 2.75 -1.5 2.85 -1.6 2.9 L-1.75 3.05 -1.7 3.1 -1.45 2.95 -1.35 2.9 -1.3 2.9 Q-1.25 2.95 -1.15 2.7 L-1.05 2.75 -1.05 2.9 Q-1.05 2.95 -1.2 3.0 L-1.5 3.15 -1.45 3.2 -1.2 3.15 -1.2 3.15 -1.45 3.35 Q-1.65 3.45 -1.7 3.4 L-1.85 3.25 -1.9 3.1 -2.05 3.2 -1.95 3.45 Q-2.0 3.65 -1.9 3.65 L-1.65 3.6 Q-1.55 3.5 -1.5 3.5 L-1.35 3.6 -1.3 3.65 -1.55 3.7 -1.9 3.85 -2.15 3.6 M0.55 -3.55 Q0.45 -3.55 0.4 -3.5 L0.45 -3.6 0.4 -3.65 Q0.35 -3.65 0.25 -3.45 L0.3 -3.45 Q0.35 -3.45 0.4 -3.5 L0.4 -3.4 0.45 -3.35 0.6 -3.45 0.55 -3.55 M0.25 -3.6 Q0.35 -3.6 0.45 -3.7 L0.4 -3.75 0.2 -3.65 0.2 -3.6 Q0.2 -3.6 0.25 -3.6 M0.95 -3.45 L1.0 -3.45 1.05 -3.5 1.05 -3.45 1.3 -3.6 1.3 -3.65 1.2 -3.65 1.05 -3.65 1.1 -3.65 1.05 -3.7 Q0.9 -3.7 0.8 -3.6 L0.85 -3.55 1.0 -3.6 0.95 -3.55 0.95 -3.45 M0.15 -3.8 L0.2 -3.75 0.25 -3.75 0.25 -3.85 0.15 -3.8 M0.8 -1.4 L0.85 -1.35 Q0.85 -1.25 0.6 -1.05 L0.55 -1.0 0.35 -0.85 0.25 -1.05 0.0 -0.85 Q-0.15 -1.1 0.0 -1.45 L0.05 -1.45 0.1 -1.55 Q0.2 -1.65 0.8 -1.75 L0.85 -1.8 0.7 -1.95 0.35 -1.85 Q0.25 -1.85 0.2 -1.95 L0.25 -2.1 Q0.35 -2.7 0.75 -2.65 L0.95 -2.7 1.2 -2.55 1.25 -2.6 1.1 -2.05 Q1.1 -1.95 0.9 -1.75 L0.75 -1.55 0.75 -1.5 Q0.6 -1.45 0.45 -1.25 L0.5 -1.2 Q0.55 -1.25 0.7 -1.35 L0.8 -1.4 M1.4 -3.5 L1.35 -3.55 Q1.2 -3.55 1.15 -3.45 L1.2 -3.4 Q1.3 -3.4 1.4 -3.5 M0.7 -2.35 L0.7 -2.35 0.65 -2.45 0.6 -2.4 0.55 -2.5 Q0.35 -2.4 0.3 -2.35 L0.35 -2.25 0.35 -2.25 0.5 -2.3 0.45 -2.25 Q0.45 -2.2 0.45 -2.15 L0.5 -2.15 0.65 -2.3 0.6 -2.25 0.7 -2.15 0.8 -2.05 Q0.95 -2.0 1.0 -2.2 L1.1 -2.35 0.9 -2.4 0.7 -2.35 M0.05 -0.85 L-0.05 -0.75 0.0 -0.7 0.2 -0.75 0.2 -0.75 0.3 -0.65 0.3 -0.45 0.25 -0.4 0.25 -0.3 0.25 -0.1 Q0.25 0.1 0.0 0.65 L0.0 0.65 -0.05 0.6 -0.3 0.85 -0.3 0.9 -0.05 0.8 -0.3 1.25 -0.45 0.9 -0.55 0.5 -0.55 0.45 Q-0.6 0.5 -0.7 0.85 -0.75 1.0 -0.9 1.05 L-0.8 1.25 -0.9 1.45 -0.9 1.5 -1.0 1.5 -1.0 1.5 -1.2 1.5 Q-1.35 1.55 -1.35 1.65 L-1.3 1.7 -1.2 1.65 -1.3 1.85 -1.25 1.9 Q-1.0 1.75 -0.9 1.6 L-0.95 1.7 Q-0.8 1.65 -0.75 1.5 -0.75 1.35 -0.65 1.3 L-0.5 1.45 -0.4 1.55 -0.45 1.8 -0.45 2.2 Q-0.45 2.35 -0.65 2.4 L-0.85 2.45 -0.85 2.3 -1.0 1.95 Q-1.1 2.0 -1.15 2.2 -1.15 2.25 -1.3 2.35 L-1.4 2.4 -1.65 2.25 -1.75 2.3 -1.75 2.2 -1.7 2.1 -1.75 1.9 -1.75 1.75 -1.65 1.4 -1.55 1.2 Q-1.5 1.35 -1.5 1.4 L-1.45 1.45 -1.3 1.25 Q-1.3 1.2 -0.95 1.05 L-1.15 1.05 Q-1.25 1.05 -1.3 0.95 -1.3 0.8 -1.35 0.8 L-1.4 0.8 -1.3 0.45 Q-1.15 0.05 -1.15 -0.15 -1.15 -0.35 -1.0 -0.55 L-0.9 -0.7 Q-0.8 -0.7 -0.7 -0.8 -0.55 -0.95 -0.5 -0.95 -0.25 -0.9 -0.35 -0.75 -0.4 -0.5 -0.6 -0.05 -0.7 -0.05 -0.8 -0.25 L-0.95 -0.25 -0.95 -0.2 Q-0.6 0.1 -0.5 0.35 -0.4 0.35 -0.3 0.25 -0.15 0.1 0.0 0.15 L0.05 0.1 0.0 -0.05 Q-0.15 0.0 -0.25 0.1 -0.3 -0.1 -0.25 -0.35 -0.1 -0.9 0.05 -0.85 M0.5 -1.4 L0.6 -1.45 0.65 -1.55 0.6 -1.6 Q0.55 -1.6 0.45 -1.45 L0.5 -1.4 M0.35 -1.6 Q0.35 -1.55 0.4 -1.5 L0.5 -1.55 0.55 -1.6 0.55 -1.7 Q0.4 -1.7 0.35 -1.6 M0.3 -0.5 L0.25 -0.55 0.25 -0.5 0.3 -0.6 0.1 -0.6 0.0 -0.5 0.0 -0.45 0.05 -0.45 0.15 -0.45 0.05 -0.35 0.1 -0.3 Q0.25 -0.35 0.3 -0.5 M-0.6 -2.55 L-0.3 -2.7 -0.45 -2.95 -0.6 -2.75 -0.6 -2.55 M-0.75 -1.65 L-0.8 -1.5 Q-0.75 -1.45 -0.7 -1.45 -0.6 -1.4 -0.45 -1.5 L-0.6 -1.8 -0.75 -1.65 M-0.95 0.35 L-0.85 0.25 Q-0.95 0.15 -1.05 0.25 L-1.2 0.4 -1.1 0.45 -0.95 0.35 M-0.75 0.4 L-0.8 0.35 Q-1.05 0.45 -1.1 0.6 L-1.05 0.6 Q-0.8 0.5 -0.75 0.4 M-0.05 0.55 Q-0.2 0.5 -0.3 0.6 L-0.25 0.65 -0.2 0.65 -0.15 0.65 -0.05 0.55 M-0.2 0.5 L-0.1 0.45 -0.15 0.4 Q-0.25 0.3 -0.35 0.45 L-0.35 0.5 -0.3 0.5 -0.2 0.5 M-1.25 1.45 Q-1.1 1.45 -1.1 1.3 L-1.15 1.3 -1.3 1.4 -1.25 1.45 M-0.95 3.05 Q-1.05 3.05 -1.0 2.95 -1.0 2.85 -0.8 2.75 -0.6 2.65 -0.5 2.65 L-0.5 2.7 -0.7 2.85 -0.95 3.05 M-0.55 2.8 L-0.55 2.85 Q-0.55 2.95 -0.85 3.2 -0.95 3.2 -0.95 3.1 L-0.75 2.9 Q-0.6 2.8 -0.55 2.8" fill="#312a27" fill-rule="evenodd" stroke="none"/>
    <path d="M2.1 -4.05 L2.2 -3.85 Q2.35 -3.55 2.35 -3.3 L2.3 -3.1 2.35 -3.05 2.3 -2.75 2.3 -2.7 2.25 -1.9 2.05 -0.7 2.0 -0.55 2.0 -0.5 Q2.0 -0.15 1.65 0.35 L1.65 0.4 Q1.6 0.6 1.35 0.9 L0.95 1.4 Q0.7 1.75 0.45 2.35 L0.4 2.55 0.3 2.95 0.15 3.35 -0.05 4.0 Q-0.15 4.45 -0.15 4.45 L-0.35 4.7 -0.35 4.8 -0.4 4.9 -0.45 4.95 Q-0.7 5.15 -1.0 5.1 L-1.05 5.1 -0.95 4.9 Q-0.95 4.8 -1.55 4.5 -1.85 4.35 -2.0 4.25 L-2.0 4.25 -2.05 4.25 Q-2.1 4.15 -2.1 4.05 L-1.15 4.25 Q-1.0 4.3 -1.0 4.2 L-1.0 4.15 -1.15 4.15 -1.25 4.1 -1.3 4.0 Q-0.9 3.85 -0.75 3.85 L-0.7 3.9 -0.7 3.8 -0.7 3.75 -0.75 3.7 Q-0.7 3.6 -0.45 3.5 L-0.4 3.45 -0.4 3.4 -0.85 3.65 -0.9 3.6 Q-0.6 3.3 -0.4 3.35 L-0.4 3.25 -0.35 3.05 -0.35 2.6 Q-0.35 2.4 -0.1 1.95 0.05 1.65 0.15 1.55 L0.2 1.45 0.4 1.05 0.65 0.35 0.6 0.15 0.7 0.0 1.0 -0.3 1.15 -0.4 Q1.1 -0.45 1.05 -0.7 L1.05 -1.1 Q1.1 -1.4 1.55 -2.1 L1.55 -2.4 Q1.55 -2.5 1.65 -2.55 1.75 -2.6 1.75 -2.7 L1.75 -2.9 2.0 -3.55 2.15 -3.85 2.1 -4.05 M-2.05 2.85 L-2.0 2.55 -2.0 2.45 -1.95 2.2 -1.95 1.8 Q-1.9 1.55 -1.95 1.35 L-2.0 1.1 -1.95 1.0 -1.9 0.55 -1.9 0.45 -1.9 0.2 -1.85 -0.65 Q-1.85 -0.95 -1.7 -1.35 L-1.65 -1.05 -1.65 -1.1 -1.55 -1.4 -1.45 -1.6 -1.35 -1.8 -1.2 -2.25 -1.2 -2.35 -1.1 -2.7 -1.0 -2.8 Q-0.7 -3.1 -0.6 -3.25 L-0.45 -3.5 -0.7 -2.75 -0.75 -1.8 -0.8 -1.6 -0.9 -1.4 -0.9 -1.3 -0.85 -1.15 Q-0.8 -1.0 -0.8 -0.9 L-0.85 -0.9 -0.9 -0.7 -1.0 -0.55 Q-1.15 -0.35 -1.15 -0.15 -1.15 0.05 -1.3 0.45 L-1.4 0.8 -1.4 0.85 -1.45 1.05 -1.55 1.2 -1.65 1.4 -1.75 1.75 -1.75 1.9 -1.7 2.1 -1.75 2.2 -1.75 2.3 -1.75 2.3 -1.7 2.45 Q-1.75 2.6 -1.85 2.75 L-1.9 2.8 -2.05 2.85 M-1.85 0.55 L-1.85 0.5 -1.9 0.5 -1.85 0.55 M-0.6 3.3 L-0.85 3.5 -0.95 3.45 -0.85 3.3 Q-0.75 3.2 -0.6 3.25 L-0.6 3.3 M-0.9 3.3 Q-0.9 3.35 -1.0 3.4 L-1.1 3.35 Q-1.05 3.2 -0.9 3.25 L-0.9 3.3" fill="#1c1815" fill-rule="evenodd" stroke="none"/>
    <path d="M1.9 -4.6 L2.0 -4.4 2.05 -4.35 2.05 -4.3 2.1 -4.05 2.15 -3.85 2.0 -3.55 1.75 -2.9 1.75 -2.7 Q1.75 -2.6 1.65 -2.55 1.55 -2.5 1.55 -2.4 L1.55 -2.1 Q1.1 -1.4 1.05 -1.1 L1.05 -0.7 Q1.1 -0.45 1.15 -0.4 L1.0 -0.3 0.7 0.0 0.6 0.15 0.65 0.35 0.4 1.05 0.2 1.45 0.15 1.55 Q0.05 1.65 -0.1 1.95 -0.35 2.4 -0.35 2.6 L-0.35 3.05 -0.4 3.25 -0.4 3.35 Q-0.6 3.3 -0.9 3.6 L-0.85 3.65 -0.4 3.4 -0.4 3.45 -0.45 3.5 Q-0.7 3.6 -0.75 3.7 L-0.7 3.75 -0.7 3.8 -0.7 3.9 -0.75 3.85 Q-0.9 3.85 -1.3 4.0 L-1.25 4.1 -1.15 4.15 -1.0 4.15 -1.0 4.2 Q-1.0 4.3 -1.15 4.25 L-2.1 4.05 Q-2.1 4.15 -2.05 4.25 L-2.0 4.25 -2.0 4.25 Q-1.85 4.35 -1.55 4.5 -0.95 4.8 -0.95 4.9 L-1.05 5.1 Q-1.3 5.05 -1.6 4.85 -1.95 4.65 -2.1 4.45 L-2.25 4.15 -2.25 4.1 -2.2 3.85 -2.2 3.7 -2.15 3.6 -1.9 3.85 -1.55 3.7 -1.3 3.65 -1.35 3.6 -1.5 3.5 Q-1.55 3.5 -1.65 3.6 L-1.9 3.65 Q-2.0 3.65 -1.95 3.45 L-2.05 3.2 -1.9 3.1 -1.85 3.25 -1.7 3.4 Q-1.65 3.45 -1.45 3.35 L-1.2 3.15 -1.2 3.15 -1.45 3.2 -1.5 3.15 -1.2 3.0 Q-1.05 2.95 -1.05 2.9 L-1.05 2.75 -1.15 2.7 Q-1.25 2.95 -1.3 2.9 L-1.35 2.9 -1.25 2.8 Q-1.25 2.6 -1.45 2.65 L-1.45 2.7 -1.65 2.55 -1.75 2.65 -1.85 2.75 -1.85 2.75 Q-1.75 2.6 -1.7 2.45 L-1.75 2.3 -1.75 2.3 -1.65 2.25 -1.4 2.4 -1.3 2.35 Q-1.15 2.25 -1.15 2.2 -1.1 2.0 -1.0 1.95 L-0.85 2.3 -0.85 2.45 -0.65 2.4 Q-0.45 2.35 -0.45 2.2 L-0.45 1.8 -0.4 1.55 -0.5 1.45 -0.65 1.3 Q-0.75 1.35 -0.75 1.5 -0.8 1.65 -0.95 1.7 L-0.9 1.6 -0.9 1.5 -0.9 1.45 -0.8 1.25 -0.9 1.05 Q-0.75 1.0 -0.7 0.85 -0.6 0.5 -0.55 0.45 L-0.55 0.5 -0.45 0.9 -0.3 1.25 -0.05 0.8 0.0 0.7 0.0 0.65 0.0 0.65 Q0.25 0.1 0.25 -0.1 L0.25 -0.3 0.25 -0.4 0.3 -0.45 0.3 -0.65 0.2 -0.75 0.2 -0.75 0.2 -0.8 Q0.25 -0.9 0.2 -0.85 L0.05 -0.85 Q-0.1 -0.9 -0.25 -0.35 -0.3 -0.1 -0.25 0.1 -0.15 0.0 0.0 -0.05 L0.05 0.1 0.0 0.15 Q-0.15 0.1 -0.3 0.25 -0.4 0.35 -0.5 0.35 -0.6 0.1 -0.95 -0.2 L-0.95 -0.25 -0.8 -0.25 Q-0.7 -0.05 -0.6 -0.05 -0.4 -0.5 -0.35 -0.75 -0.25 -0.9 -0.5 -0.95 -0.55 -0.95 -0.7 -0.8 -0.8 -0.7 -0.9 -0.7 L-0.85 -0.9 -0.8 -0.9 Q-0.8 -1.0 -0.85 -1.15 L-0.9 -1.3 -0.85 -1.3 -0.65 -1.15 -0.55 -1.15 -0.4 -1.0 Q-0.15 -1.1 -0.15 -1.6 L-0.05 -1.6 Q-0.05 -1.7 -0.15 -1.85 -0.3 -2.1 -0.5 -2.1 L-0.5 -2.3 -0.35 -2.35 -0.25 -2.15 -0.15 -2.05 Q0.1 -2.05 0.15 -2.55 L0.15 -2.8 Q0.05 -2.75 -0.05 -2.9 -0.2 -3.05 -0.3 -3.1 L-0.4 -3.2 -0.1 -3.55 Q0.4 -3.1 0.5 -3.1 0.65 -3.1 0.85 -3.2 1.1 -3.3 1.25 -3.35 L1.45 -3.05 1.7 -3.7 Q1.5 -4.05 1.35 -4.05 L0.95 -4.0 0.55 -3.55 Q0.45 -3.8 0.25 -4.05 0.1 -4.25 0.1 -4.3 L0.35 -4.65 Q0.45 -4.45 0.45 -4.35 L0.5 -4.25 Q0.6 -4.15 0.65 -4.15 L0.75 -4.2 Q0.75 -4.35 0.8 -4.55 L1.0 -4.9 1.05 -4.9 Q1.1 -4.85 1.1 -4.8 L1.0 -4.6 1.0 -4.45 Q1.0 -4.3 1.15 -4.25 L1.45 -4.4 1.6 -4.25 Q1.75 -4.25 1.8 -4.35 L1.85 -4.4 1.9 -4.45 1.9 -4.6 M-2.0 2.55 L-2.0 2.15 -2.0 1.1 -1.95 1.35 Q-1.9 1.55 -1.95 1.8 L-1.95 2.2 -2.0 2.45 -2.0 2.55 M0.75 -1.5 L0.75 -1.55 0.9 -1.75 Q1.1 -1.95 1.1 -2.05 L1.25 -2.6 1.2 -2.55 0.95 -2.7 0.75 -2.65 Q0.35 -2.7 0.25 -2.1 L0.2 -1.95 Q0.25 -1.85 0.35 -1.85 L0.7 -1.95 0.85 -1.8 0.8 -1.75 Q0.2 -1.65 0.1 -1.55 L0.05 -1.45 0.0 -1.45 Q-0.15 -1.1 0.0 -0.85 L0.25 -1.05 0.35 -0.85 0.55 -1.0 0.6 -1.05 Q0.85 -1.25 0.85 -1.35 L0.8 -1.4 0.9 -1.5 0.9 -1.5 0.75 -1.5 M0.7 -2.35 L0.9 -2.4 1.1 -2.35 1.0 -2.2 Q0.95 -2.0 0.8 -2.05 L0.7 -2.15 0.6 -2.25 0.65 -2.3 0.7 -2.35 M-1.4 0.8 L-1.35 0.8 Q-1.3 0.8 -1.3 0.95 -1.25 1.05 -1.15 1.05 L-0.95 1.05 Q-1.3 1.2 -1.3 1.25 L-1.45 1.45 -1.5 1.4 Q-1.5 1.35 -1.55 1.2 L-1.45 1.05 -1.4 0.85 -1.4 0.8 M-0.75 -1.65 L-0.6 -1.8 -0.45 -1.5 Q-0.6 -1.4 -0.7 -1.45 -0.75 -1.45 -0.8 -1.5 L-0.75 -1.65 M-0.6 -2.55 L-0.6 -2.75 -0.45 -2.95 -0.3 -2.7 -0.6 -2.55 M-0.55 2.8 Q-0.6 2.8 -0.75 2.9 L-0.95 3.1 Q-0.95 3.2 -0.85 3.2 -0.55 2.95 -0.55 2.85 L-0.55 2.8 M-0.95 3.05 L-0.7 2.85 -0.5 2.7 -0.5 2.65 Q-0.6 2.65 -0.8 2.75 -1.0 2.85 -1.0 2.95 -1.05 3.05 -0.95 3.05 M-0.9 3.3 L-0.9 3.25 Q-1.05 3.2 -1.1 3.35 L-1.0 3.4 Q-0.9 3.35 -0.9 3.3 M-0.6 3.3 L-0.6 3.25 Q-0.75 3.2 -0.85 3.3 L-0.95 3.45 -0.85 3.5 -0.6 3.3" fill="#25201d" fill-rule="evenodd" stroke="none"/>
    <path d="M0.55 -3.55 L0.6 -3.45 0.45 -3.35 0.4 -3.4 0.4 -3.5 Q0.35 -3.45 0.3 -3.45 L0.25 -3.45 Q0.35 -3.65 0.4 -3.65 L0.45 -3.6 0.4 -3.5 Q0.45 -3.55 0.55 -3.55 M0.15 -3.8 L0.25 -3.85 0.25 -3.75 0.2 -3.75 0.15 -3.8 M0.95 -3.45 L0.95 -3.55 1.0 -3.6 0.85 -3.55 0.8 -3.6 Q0.9 -3.7 1.05 -3.7 L1.1 -3.65 1.05 -3.65 1.2 -3.65 1.3 -3.65 1.3 -3.6 1.05 -3.45 1.05 -3.5 1.0 -3.45 0.95 -3.45 M0.25 -3.6 Q0.2 -3.6 0.2 -3.6 L0.2 -3.65 0.4 -3.75 0.45 -3.7 Q0.35 -3.6 0.25 -3.6 M0.75 -1.5 L0.9 -1.5 0.9 -1.5 0.8 -1.4 0.7 -1.35 Q0.55 -1.25 0.5 -1.2 L0.45 -1.25 Q0.6 -1.45 0.75 -1.5 M0.65 -2.3 L0.5 -2.15 0.45 -2.15 Q0.45 -2.2 0.45 -2.25 L0.5 -2.3 0.35 -2.25 0.35 -2.25 0.3 -2.35 Q0.35 -2.4 0.55 -2.5 L0.6 -2.4 0.65 -2.45 0.7 -2.35 0.7 -2.35 0.65 -2.3 M0.35 -1.6 Q0.4 -1.7 0.55 -1.7 L0.55 -1.6 0.5 -1.55 0.4 -1.5 Q0.35 -1.55 0.35 -1.6 M0.5 -1.4 L0.45 -1.45 Q0.55 -1.6 0.6 -1.6 L0.65 -1.55 0.6 -1.45 0.5 -1.4 M0.2 -0.75 L0.0 -0.7 -0.05 -0.75 0.05 -0.85 0.2 -0.85 Q0.25 -0.9 0.2 -0.8 L0.2 -0.75 M-0.9 1.6 Q-1.0 1.75 -1.25 1.9 L-1.3 1.85 -1.2 1.65 -1.3 1.7 -1.35 1.65 Q-1.35 1.55 -1.2 1.5 L-1.0 1.5 -1.0 1.5 -0.9 1.5 -0.9 1.6 M-0.05 0.8 L-0.3 0.9 -0.3 0.85 -0.05 0.6 0.0 0.65 0.0 0.7 -0.05 0.8 M0.3 -0.5 Q0.25 -0.35 0.1 -0.3 L0.05 -0.35 0.15 -0.45 0.05 -0.45 0.0 -0.45 0.0 -0.5 0.1 -0.6 0.3 -0.6 0.25 -0.5 0.25 -0.55 0.3 -0.5 M-0.2 0.5 L-0.3 0.5 -0.35 0.5 -0.35 0.45 Q-0.25 0.3 -0.15 0.4 L-0.1 0.45 -0.2 0.5 M-0.05 0.55 L-0.15 0.65 -0.2 0.65 -0.25 0.65 -0.3 0.6 Q-0.2 0.5 -0.05 0.55 M-0.75 0.4 Q-0.8 0.5 -1.05 0.6 L-1.1 0.6 Q-1.05 0.45 -0.8 0.35 L-0.75 0.4 M-0.95 0.35 L-1.1 0.45 -1.2 0.4 -1.05 0.25 Q-0.95 0.15 -0.85 0.25 L-0.95 0.35 M-1.25 1.45 L-1.3 1.4 -1.15 1.3 -1.1 1.3 Q-1.1 1.45 -1.25 1.45 M-1.45 2.7 L-1.45 2.65 Q-1.25 2.6 -1.25 2.8 L-1.35 2.9 -1.45 2.95 -1.7 3.1 -1.75 3.05 -1.6 2.9 Q-1.5 2.85 -1.45 2.75 -1.55 2.85 -1.8 2.95 L-1.85 2.9 -1.5 2.7 -1.45 2.75 -1.45 2.7" fill="#3f3733" fill-rule="evenodd" stroke="none"/>
    <path d="M1.4 -3.5 Q1.3 -3.4 1.2 -3.4 L1.15 -3.45 Q1.2 -3.55 1.35 -3.55 L1.4 -3.5" fill="#564b46" fill-rule="evenodd" stroke="none"/>
    <path d="M-1.7 -1.35 L-1.7 -1.35 Q-1.6 -1.5 -1.55 -1.7 L-1.5 -1.85 -1.4 -2.3 -1.1 -2.7 -1.2 -2.35 -1.2 -2.25 -1.35 -1.8 -1.45 -1.6 -1.55 -1.4 -1.65 -1.1 -1.65 -1.05 -1.7 -1.35" fill="#171412" fill-rule="evenodd" stroke="none"/>
    <path d="M-0.45 -3.5 Q-0.3 -3.7 -0.25 -3.8 -0.15 -4.2 0.0 -4.35 L0.4 -4.8 Q0.65 -5.05 1.05 -5.15 L1.5 -5.05 Q1.75 -4.85 1.9 -4.6 L2.0 -4.4 2.05 -4.35 2.05 -4.3 2.1 -4.05 2.2 -3.85 Q2.35 -3.55 2.35 -3.3 L2.3 -3.1 2.35 -3.05 2.3 -2.75 2.3 -2.7 2.25 -1.9 2.05 -0.7 2.0 -0.55 2.0 -0.5 Q2.0 -0.15 1.65 0.35 L1.65 0.4 Q1.6 0.6 1.35 0.9 L0.95 1.4 Q0.7 1.75 0.45 2.35 L0.4 2.55 0.3 2.95 0.15 3.35 -0.05 4.0 Q-0.15 4.45 -0.15 4.45 L-0.35 4.7 -0.35 4.8 -0.4 4.9 -0.45 4.95 Q-0.7 5.15 -1.0 5.1 L-1.05 5.1 Q-1.3 5.05 -1.6 4.85 -1.95 4.65 -2.1 4.45 L-2.25 4.15 -2.25 4.1 -2.2 3.85 -2.2 3.7 -2.15 3.6 -2.05 3.3 -2.05 2.85 -2.0 2.55 -2.0 2.15 -2.0 1.1 -1.95 1.0 -1.9 0.55 -1.9 0.45 -1.9 0.2 -1.85 -0.65 Q-1.85 -0.95 -1.7 -1.35 L-1.7 -1.35 Q-1.6 -1.5 -1.55 -1.7 L-1.5 -1.85 -1.4 -2.3 -1.1 -2.7 -1.0 -2.8 Q-0.7 -3.1 -0.6 -3.25 L-0.45 -3.5 Z" fill="none" stroke="#000000" stroke-linecap="round" stroke-linejoin="round" stroke-opacity="0.4509804" stroke-width="1.0"/>
  </g>
</svg>
