<?xml version="1.0" encoding="UTF-8" standalone="no"?>
<svg xmlns:xlink="http://www.w3.org/1999/xlink" height="4.5px" width="6.6px" xmlns="http://www.w3.org/2000/svg">
  <g transform="matrix(1.0, 0.0, 0.0, 1.0, 3.6, 2.0)">
    <path d="M1.3 -1.3 L0.4 -1.55 0.65 -1.75 0.7 -1.85 0.75 -1.9 1.3 -1.8 Q1.35 -1.65 1.45 -1.55 L1.5 -1.5 1.6 -1.4 1.75 -1.25 1.75 -1.25 1.4 -1.3 1.35 -1.3 1.3 -1.3 M-0.4 -0.7 L-0.4 -0.7 Q0.1 -0.5 0.35 -0.45 L0.55 -0.35 0.9 -0.25 0.95 -0.25 1.35 -0.15 1.4 -0.15 1.35 -0.1 1.3 -0.1 1.05 0.0 0.5 -0.05 0.45 -0.05 Q0.3 -0.05 0.35 0.15 L0.35 0.3 0.3 0.25 -0.45 0.0 -0.55 0.0 -0.7 -0.1 -1.05 -0.25 Q-0.95 -0.35 -0.9 -0.45 L-0.75 -0.85 -0.4 -0.7" fill="#bfb4a9" fill-rule="evenodd" stroke="none"/>
    <path d="M0.0 -1.7 L-0.05 -1.55 -0.2 -1.35 -0.3 -1.4 -0.5 -1.5 -0.45 -1.55 -0.25 -1.8 0.0 -1.7 M1.15 -0.85 L1.1 -0.95 Q1.1 -1.15 1.15 -1.2 L1.3 -1.3 1.35 -1.3 1.4 -1.3 1.75 -1.25 2.5 -1.1 2.75 -1.15 2.85 -0.75 2.9 -0.6 2.8 -0.55 2.1 -0.65 1.85 -0.65 1.35 -0.75 1.15 -0.85 M0.35 0.3 L0.95 0.45 1.25 0.5 1.3 0.55 1.25 0.55 0.7 0.65 0.5 0.65 0.0 0.45 -0.05 0.45 0.3 0.25 0.35 0.3 M-0.7 0.2 L-1.15 -0.2 -1.05 -0.25 -0.7 -0.1 -0.7 0.2" fill="#234851" fill-rule="evenodd" stroke="none"/>
    <path d="M0.4 -1.55 L0.0 -1.7 -0.25 -1.8 -0.05 -2.0 0.35 -1.9 0.45 -1.9 0.7 -1.9 0.75 -1.9 0.7 -1.85 0.65 -1.75 0.4 -1.55 M1.75 -1.25 L1.75 -1.25 1.6 -1.4 1.5 -1.5 1.45 -1.55 Q1.35 -1.65 1.3 -1.8 L1.45 -1.8 1.85 -1.7 Q2.5 -1.45 2.7 -1.25 L2.75 -1.2 2.75 -1.15 2.75 -1.15 2.5 -1.1 1.75 -1.25 M1.4 -0.15 L2.25 -0.05 2.9 -0.05 2.85 0.2 2.6 0.3 Q2.15 0.3 1.6 0.45 L1.45 0.5 1.3 0.55 1.25 0.5 0.95 0.45 0.35 0.3 0.35 0.15 Q0.3 -0.05 0.45 -0.05 L0.5 -0.05 1.05 0.0 1.3 -0.1 1.35 -0.1 1.4 -0.15 M-1.2 -0.3 L-1.25 -0.5 -1.4 -0.65 -1.15 -0.8 -0.95 -0.95 -0.75 -0.85 -0.9 -0.45 Q-0.95 -0.35 -1.05 -0.25 L-1.2 -0.3" fill="#9f8e7e" fill-rule="evenodd" stroke="none"/>
    <path d="M0.4 -1.55 L1.3 -1.3 1.15 -1.2 Q1.1 -1.15 1.1 -0.95 L1.15 -0.85 1.05 -0.85 0.7 -1.0 -0.15 -1.3 -0.2 -1.35 -0.05 -1.55 0.0 -1.7 0.4 -1.55 M-0.05 0.45 L-0.55 0.25 -0.65 0.25 -0.7 0.2 -0.7 -0.1 -0.55 0.0 -0.45 0.0 0.3 0.25 -0.05 0.45 M-1.15 -0.2 L-1.15 -0.25 -1.2 -0.3 -1.05 -0.25 -1.15 -0.2" fill="#356d7b" fill-rule="evenodd" stroke="none"/>
    <path d="M-0.2 -1.35 L-0.15 -1.3 0.7 -1.0 1.05 -0.85 1.05 -0.85 0.9 -0.65 0.7 -0.5 0.85 -0.35 0.9 -0.25 0.9 -0.25 0.55 -0.35 0.35 -0.45 Q0.1 -0.5 -0.4 -0.7 L-0.4 -0.7 -0.4 -0.8 -0.35 -0.8 -0.35 -0.85 -0.3 -1.2 -0.3 -1.4 -0.2 -1.35" fill="#46251c" fill-rule="evenodd" stroke="none"/>
    <path d="M1.05 -0.85 L1.15 -0.85 1.35 -0.75 1.85 -0.65 2.1 -0.65 2.8 -0.55 2.9 -0.6 2.9 -0.05 2.25 -0.05 1.4 -0.15 1.35 -0.15 0.95 -0.25 0.9 -0.25 0.9 -0.25 0.85 -0.35 0.7 -0.5 0.9 -0.65 1.05 -0.85 1.05 -0.85 M-0.5 -1.5 L-0.3 -1.4 -0.3 -1.2 -0.35 -0.85 -0.35 -0.8 -0.4 -0.8 -0.4 -0.7 -0.75 -0.85 -0.95 -0.95 -0.95 -1.0 Q-0.95 -1.2 -0.75 -1.3 L-0.5 -1.5" fill="#311913" fill-rule="evenodd" stroke="none"/>
    <path d="M1.6 0.45 Q2.15 0.3 2.6 0.3 L2.85 0.2 Q2.95 0.2 2.95 0.25 2.95 0.95 2.45 1.2 2.15 1.35 1.4 1.35 L1.1 1.25 1.05 1.25 0.85 1.3 0.65 1.25 Q0.3 1.25 -0.05 1.45 -0.3 1.55 -0.75 1.8 L-1.05 2.05 Q-1.2 2.2 -1.3 2.2 L-1.65 2.3 -1.95 2.35 -2.25 2.45 -3.0 2.4 Q-3.25 2.35 -3.45 2.05 L-3.55 1.8 -3.5 1.65 -3.45 1.4 -3.4 1.15 -3.25 0.85 -3.2 0.95 -3.05 1.35 -2.4 1.6 -2.3 1.6 -2.2 1.55 Q-2.15 1.6 -2.1 1.6 L-1.95 1.5 Q-1.85 1.4 -1.75 1.4 L-1.7 1.4 -1.7 1.35 -1.6 1.4 Q-1.6 1.5 -1.7 1.55 L-1.85 1.7 -2.05 1.8 Q-2.15 1.75 -2.2 1.85 -2.1 1.9 -2.0 1.9 L-1.3 1.65 -1.15 1.55 -0.9 1.5 Q-0.8 1.45 -0.7 1.4 L-0.6 1.3 Q-0.3 1.1 -0.25 1.1 L0.05 1.15 0.15 1.15 0.25 1.1 0.3 1.05 0.3 1.0 0.2 0.9 0.25 0.8 0.45 0.75 0.5 0.8 0.55 0.8 0.7 0.85 1.2 0.8 1.25 0.75 1.5 0.6 1.6 0.45 M-1.85 -0.55 L-1.75 -0.4 -1.6 -0.15 Q-1.25 0.35 -1.2 0.35 -1.15 0.35 -1.15 0.35 L-1.1 0.4 -1.2 0.45 -1.55 0.3 -1.8 0.3 -1.7 0.2 -1.7 0.15 -1.8 0.1 -1.85 0.15 -1.9 0.2 -2.0 0.05 Q-2.15 0.1 -2.25 -0.1 -2.15 -0.2 -2.05 -0.35 L-1.85 -0.55" fill="#100e0d" fill-rule="evenodd" stroke="none"/>
    <path d="M1.3 0.55 L1.45 0.5 1.6 0.45 1.5 0.6 1.25 0.75 1.2 0.8 0.7 0.85 0.55 0.8 0.5 0.8 0.45 0.75 0.25 0.8 0.2 0.9 0.3 1.0 0.3 1.05 0.25 1.1 0.15 1.15 0.05 1.15 -0.25 1.1 Q-0.3 1.1 -0.6 1.3 L-0.7 1.4 Q-0.8 1.45 -0.9 1.5 L-1.15 1.55 -1.3 1.65 -2.0 1.9 Q-2.1 1.9 -2.2 1.85 -2.15 1.75 -2.05 1.8 L-1.85 1.7 -1.7 1.55 Q-1.6 1.5 -1.6 1.4 L-1.7 1.35 -1.7 1.4 -1.75 1.4 Q-1.85 1.4 -1.95 1.5 L-2.1 1.6 Q-2.15 1.6 -2.2 1.55 L-2.3 1.6 -2.4 1.6 -3.05 1.35 -3.2 0.95 -3.25 0.85 -3.15 0.7 Q-2.95 0.4 -2.65 0.2 L-2.25 -0.1 Q-2.15 0.1 -2.0 0.05 L-1.9 0.2 -1.85 0.15 -1.8 0.1 -1.7 0.15 -1.7 0.2 -1.8 0.3 -1.55 0.3 -1.2 0.45 -1.1 0.4 -1.15 0.35 Q-1.15 0.35 -1.2 0.35 -1.25 0.35 -1.6 -0.15 L-1.75 -0.4 -1.85 -0.55 -1.85 -0.6 -1.8 -0.6 -1.5 -0.7 -1.45 -0.7 -1.4 -0.65 -1.25 -0.5 -1.2 -0.3 -1.15 -0.25 -1.15 -0.2 -0.7 0.2 -0.65 0.25 -0.55 0.25 -0.05 0.45 0.0 0.45 0.5 0.65 0.7 0.65 1.25 0.55 1.3 0.55" fill="#1c1917" fill-rule="evenodd" stroke="none"/>
    <path d="M2.9 -0.05 L2.9 -0.6 2.85 -0.75 2.75 -1.15 2.75 -1.15 2.75 -1.2 2.7 -1.25 M2.85 0.2 L2.9 -0.05 M-3.25 0.85 L-3.4 1.15 -3.45 1.4 -3.5 1.65 -3.55 1.8 -3.45 2.05 Q-3.25 2.35 -3.0 2.4 L-2.25 2.45 -1.95 2.35 -1.65 2.3 -1.3 2.2 Q-1.2 2.2 -1.05 2.05 L-0.75 1.8 Q-0.3 1.55 -0.05 1.45 0.3 1.25 0.65 1.25 L0.85 1.3 1.05 1.25 1.1 1.25 1.4 1.35 Q2.15 1.35 2.45 1.2 2.95 0.95 2.95 0.25 2.95 0.2 2.85 0.2 M-1.4 -0.65 L-1.45 -0.7 -1.5 -0.7 -1.8 -0.6 -1.85 -0.6 -1.85 -0.55 -2.05 -0.35 Q-2.15 -0.2 -2.25 -0.1 L-2.65 0.2 Q-2.95 0.4 -3.15 0.7 L-3.25 0.85 M-0.25 -1.8 L-0.45 -1.55 -0.5 -1.5 -0.75 -1.3 Q-0.95 -1.2 -0.95 -1.0 L-0.95 -0.95 -1.15 -0.8 -1.4 -0.65" fill="none" stroke="#000000" stroke-linecap="round" stroke-linejoin="round" stroke-opacity="0.4509804" stroke-width="0.1"/>
  </g>
</svg>
