<?xml version="1.0" encoding="UTF-8" standalone="no"?>
<svg xmlns:xlink="http://www.w3.org/1999/xlink" height="3.15px" width="3.8px" xmlns="http://www.w3.org/2000/svg">
  <g transform="matrix(1.0, 0.0, 0.0, 1.0, 0.85, 1.95)">
    <path d="M0.3 -1.95 L0.35 -1.95 0.75 -1.85 1.15 -1.8 1.15 -1.8 1.15 -1.75 1.1 -1.6 Q1.05 -1.25 1.05 -1.15 L1.05 -0.6 1.1 -0.4 Q0.95 -0.55 0.8 -0.85 L0.35 -0.7 0.15 -0.6 -0.05 -0.6 0.0 -0.95 0.05 -1.1 0.05 -1.15 Q0.15 -1.55 0.3 -1.95" fill="#3c9894" fill-rule="evenodd" stroke="none"/>
    <path d="M1.15 -1.8 L1.9 -1.65 Q2.0 -1.05 2.1 -0.7 L2.2 -0.4 2.1 -0.3 Q2.0 -0.15 1.75 -0.05 1.4 0.15 1.2 0.15 L1.1 0.15 1.1 -0.4 1.05 -0.6 1.05 -1.15 Q1.05 -1.25 1.1 -1.6 L1.15 -1.75 1.15 -1.8" fill="#792c2c" fill-rule="evenodd" stroke="none"/>
    <path d="M1.9 -1.65 L2.55 -1.35 2.65 -1.2 2.75 -1.1 2.8 -0.8 2.8 -0.45 2.6 -0.25 2.3 -0.1 2.25 -0.15 2.2 -0.4 2.1 -0.7 Q2.0 -1.05 1.9 -1.65 M-0.05 -0.55 L-0.1 -0.6 -0.05 -0.6 -0.05 -0.55 M-0.55 -1.4 L-0.5 -1.45 Q-0.3 -1.6 -0.3 -1.7 -0.3 -1.8 -0.2 -1.85 L-0.05 -1.9 -0.05 -1.9 0.3 -1.95 Q0.15 -1.55 0.05 -1.15 L-0.05 -1.25 -0.1 -1.3 Q-0.2 -1.4 -0.45 -1.4 L-0.55 -1.4" fill="#334770" fill-rule="evenodd" stroke="none"/>
    <path d="M1.1 0.45 L1.05 0.4 0.85 0.15 -0.05 -0.55 -0.05 -0.6 0.15 -0.6 0.35 -0.7 0.8 -0.85 Q0.95 -0.55 1.1 -0.4 L1.1 0.15 1.1 0.45" fill="#317b78" fill-rule="evenodd" stroke="none"/>
    <path d="M2.8 -0.45 L2.8 -0.35 2.85 -0.15 2.8 -0.05 2.85 0.1 2.8 0.3 2.85 0.55 2.9 0.75 2.85 1.0 2.4 1.1 2.35 1.1 2.3 0.8 2.3 0.7 Q2.3 0.0 2.3 -0.1 L2.6 -0.25 2.8 -0.45 M-0.1 -0.6 L-0.8 -1.05 -0.7 -1.15 -0.55 -1.4 -0.45 -1.4 Q-0.2 -1.4 -0.1 -1.3 L-0.05 -1.25 0.05 -1.15 0.05 -1.1 0.0 -0.95 -0.05 -0.6 -0.1 -0.6" fill="#24324f" fill-rule="evenodd" stroke="none"/>
    <path d="M2.35 1.1 L2.0 1.05 1.95 1.1 1.8 1.1 Q1.7 1.1 1.35 0.7 L1.1 0.45 1.1 0.15 1.2 0.15 Q1.4 0.15 1.75 -0.05 2.0 -0.15 2.1 -0.3 L2.2 -0.4 2.25 -0.15 2.3 -0.1 Q2.3 0.0 2.3 0.7 L2.3 0.8 2.35 1.1" fill="#5b2121" fill-rule="evenodd" stroke="none"/>
    <path d="M2.75 -1.1 L2.8 -0.8 2.8 -0.45 2.8 -0.35 2.85 -0.15 2.8 -0.05 2.85 0.1 2.8 0.3 2.85 0.55 2.9 0.75 2.85 1.0 2.4 1.1 2.35 1.1 2.0 1.05 1.95 1.1 1.8 1.1 Q1.7 1.1 1.35 0.7 L1.1 0.45 1.05 0.4 0.85 0.15 -0.05 -0.55 -0.1 -0.6 -0.8 -1.05 -0.7 -1.15 -0.55 -1.4 -0.5 -1.45 Q-0.3 -1.6 -0.3 -1.7 -0.3 -1.8 -0.2 -1.85 L-0.05 -1.9" fill="none" stroke="#000000" stroke-linecap="round" stroke-linejoin="round" stroke-opacity="0.4509804" stroke-width="0.1"/>
  </g>
</svg>
