<?xml version="1.0" encoding="UTF-8" standalone="no"?>
<svg xmlns:xlink="http://www.w3.org/1999/xlink" height="4.35px" width="6.45px" xmlns="http://www.w3.org/2000/svg">
  <g transform="matrix(1.0, 0.0, 0.0, 1.0, 3.55, 2.05)">
    <path d="M0.9 -2.05 L0.8 -1.9 0.75 -1.9 0.75 -1.9 0.65 -1.75 0.4 -1.55 0.25 -1.4 0.15 -1.35 0.15 -1.5 0.5 -1.85 0.55 -1.9 0.6 -1.95 Q0.75 -2.05 0.9 -2.05 M1.15 -1.1 L1.55 -1.35 1.75 -1.55 1.9 -1.8 2.15 -1.65 2.05 -1.45 Q1.7 -1.0 1.6 -1.0 L1.35 -1.0 Q1.25 -1.0 1.15 -1.1" fill="#171412" fill-rule="evenodd" stroke="none"/>
    <path d="M0.9 -2.05 L1.0 -2.05 1.7 -1.9 1.9 -1.8 1.75 -1.55 1.55 -1.35 1.15 -1.1 1.05 -1.0 0.6 -0.8 Q0.55 -0.75 0.5 -0.75 L0.3 -0.6 0.25 -0.6 0.05 -0.6 -0.05 -0.55 Q-0.15 -0.5 -0.15 -0.5 L-0.3 -0.45 -0.25 -0.5 -0.25 -0.55 -0.2 -0.6 -0.15 -0.65 -0.1 -0.8 -0.05 -0.8 0.0 -0.95 0.05 -1.0 0.05 -1.1 0.1 -1.3 0.15 -1.35 0.25 -1.4 0.4 -1.55 0.65 -1.75 0.75 -1.9 0.75 -1.9 0.8 -1.9 0.9 -2.05" fill="#1c1815" fill-rule="evenodd" stroke="none"/>
    <path d="M0.3 -0.6 L0.5 -0.75 Q0.55 -0.75 0.6 -0.8 L0.65 -0.75 Q0.75 -0.7 0.85 -0.7 L1.2 -0.6 1.65 -0.7 1.7 -0.7 1.8 -0.75 2.0 -0.8 2.25 -1.1 2.35 -1.35 2.4 -1.5 2.5 -1.45 2.55 -1.4 2.7 -1.2 2.7 -1.15 2.75 -0.65 2.8 -0.25 2.85 0.15 2.85 0.65 2.9 0.8 2.85 1.0 2.6 1.1 2.4 1.15 1.95 1.2 0.85 1.1 0.4 1.2 -0.05 1.45 -0.05 1.45 -0.15 1.5 -0.4 1.7 -0.45 1.75 Q-0.7 1.9 -0.9 1.9 L-1.05 1.85 -1.2 1.85 -1.55 1.9 -1.95 1.85 -1.95 1.85 Q-2.15 2.0 -2.4 2.0 L-2.8 1.95 -3.2 1.8 -3.25 1.75 -3.4 1.65 -3.4 1.55 -3.35 1.5 -3.35 1.4 -3.3 1.35 -3.15 1.1 -3.1 1.1 -2.9 0.9 -2.85 0.8 -2.8 0.75 -2.8 0.75 -2.7 0.65 -2.65 0.6 -2.55 0.55 -2.35 0.45 -2.35 0.45 -2.1 0.3 Q-2.1 0.25 -2.0 0.2 L-1.95 0.25 -1.9 0.3 -1.8 0.35 -1.75 0.35 -1.7 0.35 -1.55 0.35 -1.55 0.35 -1.45 0.35 -1.3 0.3 -1.3 0.25 -1.25 0.25 Q-1.45 0.45 -1.6 0.75 L-1.7 1.1 -1.75 1.4 -1.75 1.6 -1.65 1.65 -1.55 1.6 -1.5 1.55 -1.4 1.65 -1.25 1.75 -0.7 1.65 -0.2 1.5 0.15 1.1 Q0.55 0.7 0.65 0.7 L0.85 0.8 0.95 0.75 1.05 0.7 1.2 0.8 Q1.3 0.95 1.45 0.95 L1.5 0.85 1.55 0.85 1.6 0.8 1.65 0.8 1.75 0.9 1.8 0.85 1.95 0.8 2.2 0.7 Q2.5 0.15 2.5 0.05 2.5 -0.1 2.4 -0.25 2.3 -0.4 2.15 -0.4 L1.65 -0.35 0.75 -0.5 0.45 -0.5 0.3 -0.6 0.3 -0.6 M-2.45 -0.05 L-2.4 -0.15 Q-2.1 -0.5 -1.85 -0.6 -1.45 -0.7 -1.25 -0.85 L-0.9 -1.05 -0.85 -1.1 -0.6 -1.35 -0.3 -1.75 Q-0.05 -2.0 0.0 -2.0 L0.05 -1.95 -0.25 -1.55 Q-0.35 -1.2 -0.55 -1.0 -0.8 -0.6 -0.9 -0.55 -1.4 -0.15 -1.55 -0.15 -1.6 -0.15 -1.7 -0.25 -1.8 -0.3 -1.85 -0.3 -2.05 -0.3 -2.45 -0.05" fill="#312a27" fill-rule="evenodd" stroke="none"/>
    <path d="M0.15 -1.35 L0.1 -1.3 0.05 -1.1 0.05 -1.0 0.0 -0.95 -0.05 -0.8 -0.1 -0.8 -0.15 -0.65 -0.2 -0.6 -0.25 -0.55 -0.25 -0.5 -0.3 -0.45 -0.15 -0.5 Q-0.15 -0.5 -0.05 -0.55 L0.05 -0.6 0.25 -0.6 0.25 -0.6 0.0 -0.4 -0.4 -0.2 Q-0.5 -0.15 -0.8 0.0 L-0.95 0.1 -1.15 0.2 -1.25 0.25 -1.3 0.25 -1.3 0.3 -1.45 0.35 -1.55 0.35 -1.55 0.35 -1.7 0.35 -1.75 0.35 -1.8 0.35 -1.9 0.3 -1.95 0.25 -2.0 0.2 Q-2.1 0.25 -2.1 0.3 L-2.35 0.45 -2.35 0.45 -2.55 0.55 -2.65 0.6 -2.7 0.65 -2.8 0.75 -2.8 0.75 -2.85 0.8 -2.9 0.9 -3.1 1.1 -3.15 1.1 -3.3 1.35 -3.35 1.4 -3.35 1.5 -3.3 1.1 Q-3.25 0.85 -3.15 0.7 L-2.8 0.3 -2.45 -0.05 Q-2.05 -0.3 -1.85 -0.3 -1.8 -0.3 -1.7 -0.25 -1.6 -0.15 -1.55 -0.15 -1.4 -0.15 -0.9 -0.55 -0.8 -0.6 -0.55 -1.0 -0.35 -1.2 -0.25 -1.55 L0.05 -1.95 0.2 -1.95 0.35 -1.95 0.5 -1.95 0.55 -1.9 0.5 -1.85 0.15 -1.5 0.15 -1.35 M0.6 -0.8 L1.05 -1.0 1.15 -1.1 Q1.25 -1.0 1.35 -1.0 L1.6 -1.0 Q1.7 -1.0 2.05 -1.45 L2.15 -1.65 2.2 -1.65 2.35 -1.55 2.4 -1.5 2.35 -1.35 2.25 -1.1 2.0 -0.8 1.8 -0.75 1.7 -0.7 1.65 -0.7 1.2 -0.6 0.85 -0.7 Q0.75 -0.7 0.65 -0.75 L0.6 -0.8" fill="#25201d" fill-rule="evenodd" stroke="none"/>
    <path d="M0.25 -0.6 L0.3 -0.6 0.3 -0.6 0.45 -0.5 0.75 -0.5 1.65 -0.35 2.15 -0.4 Q2.3 -0.4 2.4 -0.25 2.5 -0.1 2.5 0.05 2.5 0.15 2.2 0.7 L1.95 0.8 1.8 0.85 1.75 0.9 1.65 0.8 1.6 0.8 1.55 0.85 1.5 0.85 1.45 0.95 Q1.3 0.95 1.2 0.8 L1.05 0.7 0.95 0.75 0.85 0.8 0.65 0.7 Q0.55 0.7 0.15 1.1 L-0.2 1.5 -0.7 1.65 -1.25 1.75 -1.4 1.65 -1.5 1.55 -1.55 1.6 -1.65 1.65 -1.75 1.6 -1.75 1.4 -1.7 1.1 -1.6 0.75 Q-1.45 0.45 -1.25 0.25 L-1.15 0.2 -0.95 0.1 -0.8 0.0 Q-0.5 -0.15 -0.4 -0.2 L0.0 -0.4 0.25 -0.6 0.25 -0.6 M2.6 1.1 L2.5 1.2 2.45 1.2 2.2 1.25 1.85 1.3 1.7 1.35 1.6 1.3 1.35 1.25 0.9 1.25 0.45 1.3 Q0.15 1.4 -0.05 1.45 L-0.05 1.45 0.4 1.2 0.85 1.1 1.95 1.2 2.4 1.15 2.6 1.1 M-0.45 1.75 L-0.55 1.85 -0.8 2.0 -0.95 2.1 -1.0 2.1 -1.15 2.1 -1.25 2.1 -1.3 2.1 -1.4 2.1 -1.45 2.15 -1.6 2.15 -1.65 2.15 -1.7 2.15 -1.95 2.2 -2.0 2.2 -2.1 2.2 -2.15 2.25 -2.15 2.25 -2.4 2.25 -2.4 2.25 -2.6 2.3 -2.75 2.3 -2.75 2.3 -2.9 2.3 -2.95 2.3 -3.05 2.3 -3.3 2.3 -3.5 2.1 -3.55 2.1 -3.5 2.0 -3.45 1.85 Q-3.45 1.75 -3.45 1.7 L-3.45 1.65 -3.4 1.65 -3.25 1.75 -3.2 1.8 -2.8 1.95 -2.4 2.0 Q-2.15 2.0 -1.95 1.85 L-1.95 1.85 -1.55 1.9 -1.2 1.85 -1.05 1.85 -0.9 1.9 Q-0.7 1.9 -0.45 1.75" fill="#3f3733" fill-rule="evenodd" stroke="none"/>
    <path d="M2.4 -1.5 L2.5 -1.45 2.55 -1.4 2.7 -1.2 2.7 -1.15 2.75 -0.65 2.8 -0.25 2.85 0.15 2.85 0.65 2.9 0.8 2.85 1.0 2.6 1.1 2.5 1.2 2.45 1.2 2.2 1.25 1.85 1.3 1.7 1.35 1.6 1.3 1.35 1.25 0.9 1.25 0.45 1.3 Q0.15 1.4 -0.05 1.45 L-0.15 1.5 -0.4 1.7 -0.45 1.75 -0.55 1.85 -0.8 2.0 -0.95 2.1 -1.0 2.1 -1.15 2.1 -1.25 2.1 -1.3 2.1 -1.4 2.1 -1.45 2.15 -1.6 2.15 -1.65 2.15 -1.7 2.15 -1.95 2.2 -2.0 2.2 -2.1 2.2 -2.15 2.25 -2.15 2.25 -2.4 2.25 -2.4 2.25 -2.6 2.3 -2.75 2.3 -2.75 2.3 -2.9 2.3 -2.95 2.3 -3.05 2.3 -3.3 2.3 -3.5 2.1 -3.55 2.1 -3.5 2.0 -3.45 1.85 Q-3.45 1.75 -3.45 1.7 L-3.45 1.65 -3.4 1.65 -3.4 1.55 -3.35 1.5 -3.3 1.1 Q-3.25 0.85 -3.15 0.7 L-2.8 0.3 -2.45 -0.05 -2.4 -0.15 Q-2.1 -0.5 -1.85 -0.6 -1.45 -0.7 -1.25 -0.85 L-0.9 -1.05 -0.85 -1.1" fill="none" stroke="#000000" stroke-linecap="round" stroke-linejoin="round" stroke-opacity="0.4509804" stroke-width="1.0"/>
  </g>
</svg>
