<?xml version="1.0" encoding="UTF-8" standalone="no"?>
<svg xmlns:xlink="http://www.w3.org/1999/xlink" height="4.5px" width="6.75px" xmlns="http://www.w3.org/2000/svg">
  <g transform="matrix(1.0, 0.0, 0.0, 1.0, 3.7, 2.0)">
    <path d="M1.0 -1.25 Q1.1 -1.4 1.1 -1.5 1.1 -1.7 1.05 -1.75 L1.0 -1.8 1.2 -1.75 1.45 -1.75 1.75 -1.75 2.0 -1.65 2.0 -1.45 1.9 -1.45 1.8 -1.5 Q1.7 -1.5 1.7 -1.35 L1.7 -1.2 1.75 -1.2 1.85 -1.3 1.9 -1.3 Q2.1 -1.3 2.2 -1.15 L2.45 -0.75 Q2.2 -0.65 2.25 -0.5 2.25 -0.4 2.1 -0.4 2.0 -0.4 1.9 -0.65 L1.9 -0.7 1.8 -0.95 1.7 -0.85 1.7 -0.8 1.75 -0.5 1.75 -0.3 1.55 -0.15 1.5 -0.15 1.4 -0.15 1.25 -0.25 1.1 -0.05 1.0 0.0 0.95 0.0 0.85 0.0 0.75 -0.05 Q0.7 -0.05 0.3 0.15 -0.1 0.35 -0.2 0.35 L-0.4 0.3 -0.6 0.2 -0.7 0.25 -0.75 0.3 -0.7 0.35 -0.7 0.35 -0.65 0.35 Q-0.55 0.35 -0.55 0.5 L-0.6 0.55 Q-0.65 0.6 -0.85 0.75 L-1.15 0.9 -1.2 0.95 Q-1.05 1.05 -1.25 1.2 -1.6 1.4 -1.65 1.45 L-1.7 1.5 -1.75 1.6 -1.85 1.7 -1.85 1.75 -2.15 2.15 -2.45 2.45 -2.5 2.45 -2.6 2.4 -3.2 2.3 Q-3.45 2.3 -3.65 1.8 L-3.5 1.6 -3.4 1.5 -3.35 1.55 Q-3.3 1.55 -3.25 1.6 L-3.2 1.6 -3.05 1.55 Q-3.0 1.55 -2.95 1.45 L-2.95 1.45 -2.9 1.6 -2.9 1.6 Q-2.9 1.7 -2.8 1.7 L-2.8 1.7 -2.55 1.55 -2.55 1.5 -2.4 1.35 -2.5 1.6 -2.55 1.65 -2.55 1.7 -2.5 1.7 -2.5 1.7 -2.45 1.7 -2.25 1.65 -1.9 1.35 -1.8 1.2 Q-1.6 0.95 -1.4 0.8 L-1.2 0.65 -0.95 0.55 -0.95 0.5 -1.0 0.45 -1.1 0.45 -1.55 0.6 -1.8 0.65 -1.8 0.65 -1.9 0.65 -1.95 0.65 -1.95 0.65 -1.9 0.6 Q-1.7 0.45 -1.25 0.25 -1.05 0.15 -0.85 0.05 L-0.75 0.0 -0.6 -0.1 -0.4 -0.25 -0.35 -0.3 Q-0.05 -0.5 0.1 -0.55 L0.25 -0.6 0.3 -0.65 0.35 -0.65 0.5 -0.7 0.5 -0.75 0.6 -0.8 0.75 -0.95 1.0 -1.25 M2.7 -0.65 L2.75 -0.5 2.8 -0.3 2.85 0.15 2.8 0.4 2.8 0.5 2.75 0.5 2.7 0.55 2.65 0.65 Q2.75 0.65 2.8 0.7 L2.85 0.75 2.8 0.8 2.65 0.9 Q2.5 0.95 2.35 0.95 L2.05 0.9 1.9 0.95 1.85 0.95 1.75 1.0 Q1.55 1.0 1.3 0.75 L1.5 0.6 1.6 0.5 1.85 0.3 2.1 0.15 2.3 -0.05 2.5 -0.25 Q2.6 -0.45 2.55 -0.65 L2.7 -0.65" fill="#512b20" fill-rule="evenodd" stroke="none"/>
    <path d="M-2.55 1.5 L-2.55 1.55 -2.8 1.7 -2.8 1.7 Q-2.9 1.7 -2.9 1.6 L-2.9 1.6 -2.95 1.45 -2.95 1.45 Q-3.0 1.55 -3.05 1.55 L-3.2 1.6 -3.25 1.6 Q-3.3 1.55 -3.35 1.55 L-3.4 1.5 -3.35 1.35 Q-3.35 1.15 -3.25 0.95 L-3.25 0.95 -3.2 0.95 -3.1 1.0 -3.05 1.0 -3.0 1.05 -2.85 1.1 -2.8 1.1 -2.75 1.1 Q-2.6 1.1 -2.55 1.25 L-2.55 1.5 M-2.45 2.45 L-2.15 2.15 -1.85 1.75 -1.85 1.7 -1.75 1.6 -1.7 1.5 -1.65 1.45 Q-1.6 1.4 -1.25 1.2 -1.05 1.05 -1.2 0.95 L-1.15 0.9 -0.85 0.75 Q-0.65 0.6 -0.6 0.55 L-0.55 0.5 Q-0.55 0.35 -0.65 0.35 L-0.7 0.35 -0.7 0.35 -0.75 0.3 -0.7 0.25 -0.6 0.2 -0.4 0.3 -0.2 0.35 Q-0.1 0.35 0.3 0.15 0.7 -0.05 0.75 -0.05 L0.85 0.0 0.95 0.0 1.0 0.0 1.1 -0.05 1.25 -0.25 1.4 -0.15 1.5 -0.15 1.55 -0.15 1.75 -0.3 1.75 -0.5 1.7 -0.8 1.7 -0.85 1.8 -0.95 1.9 -0.7 1.9 -0.65 Q2.0 -0.4 2.1 -0.4 2.25 -0.4 2.25 -0.5 2.2 -0.65 2.45 -0.75 L2.2 -1.15 Q2.1 -1.3 1.9 -1.3 L1.85 -1.3 1.75 -1.2 1.7 -1.2 1.7 -1.35 Q1.7 -1.5 1.8 -1.5 L1.9 -1.45 2.0 -1.45 2.0 -1.65 2.35 -1.5 Q2.45 -1.45 2.5 -1.45 L2.6 -1.4 Q2.7 -1.2 2.8 -0.7 3.0 -0.05 3.0 0.35 L2.9 0.9 Q2.9 1.05 2.85 1.05 L2.65 1.05 2.1 1.15 2.05 1.15 1.5 1.25 1.2 1.35 0.75 1.25 Q0.4 1.25 -0.05 1.5 L-0.1 1.5 Q-0.2 1.55 -0.8 1.95 L-0.85 1.95 Q-1.0 2.05 -1.25 2.1 L-1.65 2.15 Q-1.9 2.25 -2.4 2.45 L-2.45 2.45 M2.7 -0.65 L2.55 -0.65 Q2.6 -0.45 2.5 -0.25 L2.3 -0.05 2.1 0.15 1.85 0.3 1.6 0.5 1.5 0.6 1.3 0.75 Q1.55 1.0 1.75 1.0 L1.85 0.95 1.9 0.95 2.05 0.9 2.35 0.95 Q2.5 0.95 2.65 0.9 L2.8 0.8 2.85 0.75 2.8 0.7 Q2.75 0.65 2.65 0.65 L2.7 0.55 2.75 0.5 2.8 0.5 2.8 0.4 2.85 0.15 2.8 -0.3 2.75 -0.5 2.7 -0.65" fill="#3f2118" fill-rule="evenodd" stroke="none"/>
    <path d="M1.0 -1.8 L1.05 -1.75 Q1.1 -1.7 1.1 -1.5 1.1 -1.4 1.0 -1.25 L0.95 -1.25 0.7 -1.25 0.55 -1.3 0.35 -1.25 0.2 -1.2 0.15 -1.2 Q0.05 -1.2 0.0 -1.3 -0.05 -1.4 -0.15 -1.4 L-0.3 -1.35 -0.25 -1.5 -0.25 -1.6 -0.25 -1.65 -0.25 -1.65 -0.2 -1.75 -0.15 -1.8 -0.05 -1.9 0.05 -1.95 0.2 -2.0 1.0 -1.8 M0.5 -0.75 L0.5 -0.7 0.35 -0.65 0.3 -0.65 0.25 -0.6 0.1 -0.55 Q-0.05 -0.5 -0.35 -0.3 L-0.4 -0.3 -0.7 -0.2 -1.3 0.05 -1.75 0.25 -1.9 0.35 -2.0 0.35 -2.0 0.35 -2.1 0.4 -2.2 0.35 -2.3 0.25 -2.3 0.2 -2.35 0.15 -2.4 0.1 -2.4 0.2 -2.4 0.3 -2.45 0.35 Q-2.45 0.5 -2.6 0.6 L-2.75 0.75 -2.8 0.8 -2.95 0.85 -3.1 0.9 -3.2 0.95 -3.25 0.95 Q-3.15 0.75 -2.95 0.6 L-2.75 0.4 -2.6 0.25 Q-2.6 0.2 -2.5 0.05 L-2.4 -0.05 -2.2 -0.25 -2.0 -0.35 -1.95 -0.4 -1.4 -0.75 -1.1 -1.0 -1.1 -1.0 -0.8 -1.2 -0.8 -1.2 Q-0.8 -1.1 -0.95 -1.05 L-1.1 -0.9 -1.15 -0.8 -1.15 -0.65 -1.15 -0.65 -1.25 -0.45 Q-1.4 -0.2 -1.55 -0.2 -1.5 -0.1 -1.25 -0.2 L-1.2 -0.2 -0.95 -0.3 -0.8 -0.4 -0.75 -0.4 -0.7 -0.5 Q-0.5 -0.65 -0.35 -0.65 L-0.25 -0.65 -0.25 -0.55 0.2 -0.65 0.25 -0.7 0.3 -0.7 0.5 -0.75 M0.3 -1.05 L0.15 -0.9 0.05 -0.85 0.0 -0.85 -0.05 -0.85 -0.25 -0.85 -0.55 -0.85 -0.3 -1.05 -0.15 -1.1 -0.05 -1.1 0.15 -1.15 0.4 -1.15 0.3 -1.05" fill="#853924" fill-rule="evenodd" stroke="none"/>
    <path d="M-1.95 -0.4 L-2.0 -0.35 -2.0 -0.4 -1.95 -0.4" fill="#14190c" fill-rule="evenodd" stroke="none"/>
    <path d="M-2.5 1.7 L-2.5 1.7 -2.55 1.7 -2.55 1.65 -2.5 1.7" fill="#352c25" fill-rule="evenodd" stroke="none"/>
    <path d="M1.0 -1.25 L0.75 -0.95 0.6 -0.8 0.5 -0.75 0.3 -0.7 0.25 -0.7 0.2 -0.65 -0.25 -0.55 -0.25 -0.65 -0.35 -0.65 Q-0.5 -0.65 -0.7 -0.5 L-0.75 -0.4 -0.8 -0.4 -0.95 -0.3 -1.2 -0.2 -1.25 -0.2 Q-1.5 -0.1 -1.55 -0.2 -1.4 -0.2 -1.25 -0.45 L-1.15 -0.65 -1.15 -0.8 -1.1 -0.9 -0.95 -1.05 Q-0.8 -1.1 -0.8 -1.2 L-0.55 -1.35 -0.5 -1.45 -0.45 -1.5 -0.25 -1.65 -0.25 -1.6 -0.25 -1.5 -0.3 -1.35 -0.15 -1.4 Q-0.05 -1.4 0.0 -1.3 0.05 -1.2 0.15 -1.2 L0.2 -1.2 0.35 -1.25 0.55 -1.3 0.7 -1.25 0.95 -1.25 1.0 -1.25 M-0.35 -0.3 L-0.4 -0.25 -0.6 -0.1 -0.75 0.0 -0.85 0.05 Q-1.05 0.15 -1.25 0.25 -1.7 0.45 -1.9 0.6 L-1.95 0.65 -1.95 0.65 -1.9 0.65 -1.8 0.65 -1.8 0.65 -1.55 0.6 -1.1 0.45 -1.0 0.45 -0.95 0.5 -0.95 0.55 -1.2 0.65 -1.4 0.8 Q-1.6 0.95 -1.8 1.2 L-1.9 1.35 -2.25 1.65 -2.45 1.7 -2.5 1.7 -2.55 1.65 -2.5 1.6 -2.4 1.35 -2.55 1.5 -2.55 1.25 Q-2.6 1.1 -2.75 1.1 L-2.8 1.1 -2.85 1.1 -3.0 1.05 -3.05 1.0 -3.1 1.0 -3.2 0.95 -3.1 0.9 -2.95 0.85 -2.8 0.8 -2.75 0.75 -2.6 0.6 Q-2.45 0.5 -2.45 0.35 L-2.4 0.3 -2.4 0.2 -2.4 0.1 -2.35 0.15 -2.3 0.2 -2.3 0.25 -2.2 0.35 -2.1 0.4 -2.0 0.35 -2.0 0.35 -1.9 0.35 -1.75 0.25 -1.3 0.05 -0.7 -0.2 -0.4 -0.3 -0.35 -0.3 M0.3 -1.05 L0.4 -1.15 0.15 -1.15 -0.05 -1.1 -0.15 -1.1 -0.3 -1.05 -0.55 -0.85 -0.25 -0.85 -0.05 -0.85 0.0 -0.85 0.05 -0.85 0.15 -0.9 0.3 -1.05 M-1.15 -0.65 L-1.15 -0.65" fill="#5f3225" fill-rule="evenodd" stroke="none"/>
    <path d="M-3.4 1.5 L-3.5 1.6 -3.65 1.8 Q-3.45 2.3 -3.2 2.3 L-2.6 2.4 -2.5 2.45 -2.45 2.45 -2.4 2.45 Q-1.9 2.25 -1.65 2.15 L-1.25 2.1 Q-1.0 2.05 -0.85 1.95 L-0.8 1.95 Q-0.2 1.55 -0.1 1.5 L-0.05 1.5 Q0.4 1.25 0.75 1.25 L1.2 1.35 1.5 1.25 2.05 1.15 2.1 1.15 2.65 1.05 2.85 1.05 Q2.9 1.05 2.9 0.9 L3.0 0.35 Q3.0 -0.05 2.8 -0.7 2.7 -1.2 2.6 -1.4 M-2.0 -0.35 L-2.2 -0.25 -2.4 -0.05 -2.5 0.05 Q-2.6 0.2 -2.6 0.25 L-2.75 0.4 -2.95 0.6 Q-3.15 0.75 -3.25 0.95 L-3.25 0.95 Q-3.35 1.15 -3.35 1.35 L-3.4 1.5 M-0.5 -1.45 L-0.55 -1.35 -0.8 -1.2 -0.8 -1.2 -1.1 -1.0 -1.1 -1.0 -1.4 -0.75 -1.95 -0.4 -2.0 -0.35" fill="none" stroke="#000000" stroke-linecap="round" stroke-linejoin="round" stroke-opacity="0.4509804" stroke-width="0.1"/>
    <path d="M-1.15 -0.65 L-1.15 -0.65 M-2.0 -0.35 L-2.0 -0.4" fill="none" stroke="#000000" stroke-linecap="round" stroke-linejoin="miter-clip" stroke-miterlimit="3.0" stroke-opacity="0.4509804" stroke-width="0.1"/>
  </g>
</svg>
