<?xml version="1.0" encoding="UTF-8" standalone="no"?>
<svg xmlns:xlink="http://www.w3.org/1999/xlink" height="5.25px" width="3.65px" xmlns="http://www.w3.org/2000/svg">
  <g transform="matrix(1.0, 0.0, 0.0, 1.0, 1.8, 2.45)">
    <path d="M0.75 -2.25 L0.8 -2.2 1.05 -1.8 1.05 -1.8 1.1 -1.75 1.0 -1.45 0.8 -1.05 0.75 -1.2 0.7 -1.3 0.15 -2.4 0.35 -2.45 0.55 -2.35 Q0.65 -2.35 0.75 -2.25 M-1.65 -0.8 L-1.65 -0.9 -1.65 -1.05 -1.6 -1.35 -1.55 -1.45 -1.55 -1.55 -1.5 -1.75 -1.4 -0.75 -1.4 -0.75 -1.4 -0.5 -1.5 -0.6 -1.5 -0.65 -1.65 -0.8 M-1.05 -2.15 L-0.8 -2.25 -0.45 -2.3 -0.25 -1.65 0.05 -0.7 0.1 -0.5 0.15 -0.4 -0.2 -0.35 Q-0.25 -0.35 -0.35 -0.4 -0.45 -0.5 -0.55 -0.5 L-0.8 -0.45 -0.8 -0.5 -0.85 -1.15 -0.85 -1.5 -1.0 -1.95 -1.05 -2.15" fill="#161c4a" fill-rule="evenodd" stroke="none"/>
    <path d="M0.15 -2.4 L0.7 -1.3 0.75 -1.2 0.65 -1.0 0.55 -0.85 0.55 -0.85 Q0.35 -0.55 0.1 -0.5 L0.05 -0.7 -0.25 -1.65 -0.45 -2.3 -0.15 -2.4 0.15 -2.4 M-1.5 -1.75 L-1.5 -1.75 -1.4 -1.85 Q-1.4 -2.0 -1.05 -2.15 L-1.0 -1.95 -0.85 -1.5 -0.85 -1.15 -0.8 -0.5 -1.2 -0.65 -1.25 -0.65 Q-1.35 -0.7 -1.4 -0.75 L-1.4 -0.75 -1.5 -1.75" fill="#9a5715" fill-rule="evenodd" stroke="none"/>
    <path d="M0.75 -1.2 L0.8 -1.05 Q1.0 -0.65 1.05 -0.2 L0.95 0.0 0.75 0.25 0.45 0.6 0.15 -0.4 0.1 -0.5 Q0.35 -0.55 0.55 -0.85 L0.55 -0.85 0.65 -1.0 0.75 -1.2 M-0.8 -0.5 L-0.8 -0.45 -0.8 -0.4 -0.6 0.4 -0.55 0.5 -0.75 0.4 -0.85 0.3 -0.95 0.25 -1.05 0.15 -1.15 0.05 -1.35 -0.05 -1.4 -0.35 -1.4 -0.5 -1.4 -0.75 Q-1.35 -0.7 -1.25 -0.65 L-1.2 -0.65 -0.8 -0.5" fill="#7f4a29" fill-rule="evenodd" stroke="none"/>
    <path d="M0.8 -1.05 L1.0 -1.45 1.1 -1.75 1.35 -1.1 1.4 -1.1 1.3 -0.9 1.2 -0.45 1.05 -0.2 Q1.0 -0.65 0.8 -1.05 M-1.65 -0.3 L-1.65 -0.5 -1.65 -0.8 -1.5 -0.65 -1.5 -0.6 -1.4 -0.5 -1.4 -0.35 -1.35 -0.05 -1.65 -0.3 M0.15 -0.4 L0.45 0.6 0.1 0.8 Q-0.15 0.8 -0.55 0.5 L-0.6 0.4 -0.8 -0.4 -0.8 -0.45 -0.55 -0.5 Q-0.45 -0.5 -0.35 -0.4 -0.25 -0.35 -0.2 -0.35 L0.15 -0.4" fill="#0e122f" fill-rule="evenodd" stroke="none"/>
    <path d="M1.4 -1.1 L1.8 0.1 1.7 0.35 1.7 0.55 Q1.7 1.4 1.25 2.0 0.75 2.7 -0.35 2.7 L-1.05 2.5 Q-1.75 2.5 -1.75 1.15 L-1.7 0.5 -1.75 0.2 -1.65 -0.3 -1.35 -0.05 -1.15 0.05 -1.05 0.15 -0.95 0.25 -0.85 0.3 -0.75 0.4 -0.55 0.5 Q-0.15 0.8 0.1 0.8 L0.45 0.6 0.75 0.25 0.95 0.0 1.05 -0.2 1.2 -0.45 1.3 -0.9 1.4 -1.1" fill="#13131e" fill-rule="evenodd" stroke="none"/>
    <path d="M1.1 -1.75 L1.05 -1.8 1.05 -1.8 0.8 -2.2 0.75 -2.25 M1.1 -1.75 L1.35 -1.1 1.4 -1.1 1.8 0.1 1.7 0.35 1.7 0.55 Q1.7 1.4 1.25 2.0 0.75 2.7 -0.35 2.7 L-1.05 2.5 Q-1.75 2.5 -1.75 1.15 L-1.7 0.5 -1.75 0.2 -1.65 -0.3 -1.65 -0.5 M-1.65 -0.9 L-1.65 -1.05 -1.6 -1.35 -1.55 -1.45 -1.55 -1.55" fill="none" stroke="#000000" stroke-linecap="round" stroke-linejoin="round" stroke-opacity="0.4509804" stroke-width="0.1"/>
  </g>
</svg>
