<?xml version="1.0" encoding="UTF-8" standalone="no"?>
<svg xmlns:xlink="http://www.w3.org/1999/xlink" height="4.4px" width="4.4px" xmlns="http://www.w3.org/2000/svg">
  <g transform="matrix(1.0, 0.0, 0.0, 1.0, 2.2, 2.2)">
    <path d="M-2.2 -1.4 L-2.2 -2.2 -0.9 -2.2 -0.95 -2.1 -1.0 -2.0 -0.95 -1.95 -1.0 -1.85 -0.95 -1.8 Q-0.9 -1.8 -0.95 -1.75 -1.05 -1.75 -1.15 -1.7 L-1.35 -1.7 -1.45 -1.6 -1.55 -1.55 -1.6 -1.55 -1.65 -1.55 -1.7 -1.55 -1.7 -1.45 Q-1.7 -1.4 -1.75 -1.45 L-1.85 -1.4 -1.9 -1.35 -1.95 -1.3 Q-2.0 -1.25 -2.0 -1.3 -2.0 -1.35 -2.05 -1.35 L-2.15 -1.35 Q-2.15 -1.35 -2.2 -1.4 M-1.45 -1.6 L-1.45 -1.6" fill="#49212c" fill-rule="evenodd" stroke="none"/>
    <path d="M-0.9 -2.2 L-0.75 -2.2 -0.75 -2.05 -0.8 -1.95 -0.75 -1.95 -0.7 -2.0 -0.65 -1.9 -0.55 -1.9 -0.5 -1.9 -0.45 -1.95 -0.7 -1.8 -0.75 -1.85 -0.85 -1.8 -0.95 -1.75 -1.05 -1.75 -1.1 -1.7 Q-1.15 -1.7 -1.2 -1.7 L-1.25 -1.65 -1.35 -1.65 -1.45 -1.6 -1.45 -1.6 -1.35 -1.7 -1.15 -1.7 Q-1.05 -1.75 -0.95 -1.75 -0.9 -1.8 -0.95 -1.8 L-1.0 -1.85 -0.95 -1.95 -1.0 -2.0 -0.95 -2.1 -0.9 -2.2" fill="#633a43" fill-rule="evenodd" stroke="none"/>
    <path d="M-0.75 -2.2 L0.3 -2.2 0.2 -2.1 Q0.1 -2.05 0.05 -2.05 L0.0 -2.0 -0.15 -1.95 Q-0.05 -1.95 -0.1 -1.9 L-0.2 -1.85 -0.35 -1.8 -0.45 -1.7 -0.3 -1.75 -0.2 -1.85 0.05 -1.95 0.15 -1.95 0.2 -2.05 0.3 -2.1 0.4 -2.1 Q0.45 -2.05 0.35 -2.0 L0.3 -2.0 0.35 -1.95 0.4 -1.95 0.4 -1.95 0.45 -1.9 0.4 -1.9 Q0.35 -1.9 0.35 -1.9 L0.15 -1.75 0.05 -1.75 -0.05 -1.7 -0.1 -1.7 -0.15 -1.65 -0.35 -1.5 Q-0.45 -1.45 -0.55 -1.45 L-0.6 -1.4 -0.55 -1.35 -0.55 -1.35 -0.5 -1.35 -0.5 -1.35 -0.45 -1.35 -0.45 -1.4 -0.4 -1.4 -0.4 -1.4 -0.3 -1.5 -0.15 -1.55 0.0 -1.65 Q0.05 -1.7 0.1 -1.65 L0.15 -1.65 0.15 -1.7 0.1 -1.7 0.15 -1.7 0.3 -1.75 0.45 -1.75 0.45 -1.7 0.4 -1.7 0.35 -1.65 0.3 -1.6 0.2 -1.6 0.15 -1.55 Q0.15 -1.5 0.1 -1.5 L0.0 -1.4 -0.05 -1.4 -0.15 -1.4 -0.1 -1.35 Q-0.1 -1.3 -0.15 -1.3 L-0.25 -1.2 -0.4 -1.1 Q-0.75 -1.3 -0.75 -1.6 L-0.8 -1.7 -0.7 -1.8 -0.45 -1.95 -0.5 -1.9 -0.55 -1.9 -0.65 -1.9 -0.7 -2.0 -0.75 -1.95 -0.8 -1.95 -0.75 -2.05 -0.75 -2.2 M0.45 -1.9 L0.45 -1.9" fill="#372024" fill-rule="evenodd" stroke="none"/>
    <path d="M0.3 -2.2 L0.95 -2.2 0.65 -2.05 0.35 -1.95 0.3 -2.0 0.35 -2.0 Q0.45 -2.05 0.4 -2.1 L0.3 -2.1 0.2 -2.05 0.15 -1.95 0.05 -1.95 0.1 -2.0 Q0.15 -2.05 0.15 -2.05 L0.15 -2.05 0.05 -2.05 Q0.1 -2.05 0.2 -2.1 L0.3 -2.2" fill="#5a2a43" fill-rule="evenodd" stroke="none"/>
    <path d="M0.95 -2.2 L1.3 -2.2 1.1 -2.05 0.85 -1.9 0.8 -1.95 0.75 -2.0 0.6 -2.0 0.4 -1.95 0.35 -1.95 0.65 -2.05 0.95 -2.2" fill="#bd4f80" fill-rule="evenodd" stroke="none"/>
    <path d="M1.4 -2.2 L1.15 -2.0 0.9 -1.85 0.85 -1.9 1.1 -2.05 1.3 -2.2 1.4 -2.2" fill="#f76eb8" fill-rule="evenodd" stroke="none"/>
    <path d="M1.4 -2.2 L1.5 -2.2 1.25 -2.0 1.0 -1.85 0.95 -1.85 Q0.9 -1.8 0.9 -1.85 L1.15 -2.0 1.4 -2.2" fill="#ffa6f6" fill-rule="evenodd" stroke="none"/>
    <path d="M2.2 -2.05 L2.2 -2.0 1.85 -1.85 1.55 -1.65 1.55 -1.7 1.85 -1.9 2.2 -2.05" fill="#ffa2f4" fill-rule="evenodd" stroke="none"/>
    <path d="M0.05 -2.05 L0.15 -2.05 0.15 -2.05 Q0.15 -2.05 0.1 -2.0 L0.05 -1.95 -0.2 -1.85 -0.3 -1.75 -0.45 -1.7 -0.35 -1.8 -0.2 -1.85 -0.1 -1.9 Q-0.05 -1.95 -0.15 -1.95 L0.0 -2.0 0.05 -2.05" fill="#b16377" fill-rule="evenodd" stroke="none"/>
    <path d="M0.85 -1.9 L0.7 -1.85 0.55 -1.9 0.65 -1.95 0.7 -1.95 0.7 -2.0 0.6 -1.95 0.45 -1.9 0.4 -1.95 0.4 -1.95 0.6 -2.0 0.75 -2.0 0.8 -1.95 0.85 -1.9" fill="#e292af" fill-rule="evenodd" stroke="none"/>
    <path d="M2.2 -2.0 L2.2 -1.85 1.8 -1.65 1.75 -1.6 1.7 -1.6 Q1.65 -1.55 1.6 -1.6 L1.6 -1.65 1.55 -1.65 1.85 -1.85 2.2 -2.0" fill="#ee64a8" fill-rule="evenodd" stroke="none"/>
    <path d="M0.45 -1.9 Q0.55 -1.85 0.6 -1.85 L0.7 -1.75 0.55 -1.7 0.45 -1.65 0.4 -1.65 0.45 -1.65 0.5 -1.6 Q0.45 -1.6 0.4 -1.6 L0.35 -1.6 0.4 -1.6 0.4 -1.55 0.35 -1.5 0.3 -1.5 0.2 -1.5 Q0.15 -1.5 0.15 -1.5 L0.25 -1.45 0.15 -1.45 0.15 -1.45 0.2 -1.4 0.15 -1.35 Q0.1 -1.35 0.15 -1.4 L0.1 -1.4 0.1 -1.35 0.0 -1.35 -0.1 -1.3 Q-0.05 -1.25 -0.15 -1.2 L-0.25 -1.1 -0.3 -1.1 -0.3 -1.1 Q-0.25 -1.05 -0.3 -1.05 L-0.4 -1.1 -0.25 -1.2 -0.15 -1.3 Q-0.1 -1.3 -0.1 -1.35 L-0.15 -1.4 -0.05 -1.4 0.0 -1.4 0.1 -1.5 Q0.15 -1.5 0.15 -1.55 L0.2 -1.6 0.3 -1.6 0.35 -1.65 0.4 -1.7 0.45 -1.7 0.45 -1.75 0.3 -1.75 0.15 -1.7 0.1 -1.7 0.15 -1.7 0.15 -1.65 0.1 -1.65 Q0.05 -1.7 0.0 -1.65 L-0.15 -1.55 -0.3 -1.5 -0.4 -1.4 -0.4 -1.4 -0.45 -1.4 -0.45 -1.35 -0.5 -1.35 -0.5 -1.35 -0.55 -1.35 -0.55 -1.35 -0.6 -1.4 -0.55 -1.45 Q-0.45 -1.45 -0.35 -1.5 L-0.15 -1.65 -0.1 -1.7 -0.05 -1.7 0.05 -1.75 0.15 -1.75 0.35 -1.9 Q0.35 -1.9 0.4 -1.9 L0.45 -1.9" fill="#7d4e4e" fill-rule="evenodd" stroke="none"/>
    <path d="M2.2 -1.7 L2.2 -1.65 1.75 -1.45 1.75 -1.4 1.7 -1.35 1.65 -1.35 1.6 -1.25 1.6 -1.35 1.65 -1.4 1.7 -1.45 2.2 -1.7" fill="#a74f75" fill-rule="evenodd" stroke="none"/>
    <path d="M2.2 -1.75 L2.2 -1.7 1.7 -1.45 1.7 -1.5 1.75 -1.5 2.0 -1.6 2.2 -1.75" fill="#fe89db" fill-rule="evenodd" stroke="none"/>
    <path d="M2.2 -1.85 L2.2 -1.8 1.9 -1.65 1.65 -1.55 1.6 -1.55 1.6 -1.6 Q1.65 -1.55 1.7 -1.6 L1.75 -1.6 1.8 -1.65 2.2 -1.85" fill="#ffa1f2" fill-rule="evenodd" stroke="none"/>
    <path d="M0.7 -1.75 L0.75 -1.75 0.8 -1.75 0.75 -1.7 0.7 -1.7 0.55 -1.6 0.4 -1.5 0.35 -1.5 0.35 -1.5 0.4 -1.55 0.4 -1.6 0.35 -1.6 0.4 -1.6 Q0.45 -1.6 0.5 -1.6 L0.45 -1.65 0.4 -1.65 0.45 -1.65 0.55 -1.7 0.7 -1.75" fill="#ea9f9f" fill-rule="evenodd" stroke="none"/>
    <path d="M-0.75 -1.6 L-1.15 -1.35 -1.2 -1.5 Q-1.25 -1.6 -1.35 -1.55 L-1.45 -1.4 -1.5 -1.2 -1.6 -1.15 -1.55 -1.4 -1.45 -1.6 -1.35 -1.65 -1.25 -1.65 -1.2 -1.7 Q-1.15 -1.7 -1.1 -1.7 L-1.05 -1.75 -0.95 -1.75 -0.85 -1.8 -0.75 -1.85 -0.7 -1.8 -0.8 -1.7 -0.75 -1.6" fill="#e7e2bb" fill-rule="evenodd" stroke="none"/>
    <path d="M2.2 -1.65 L2.2 -1.6 2.0 -1.5 1.8 -1.4 Q1.75 -1.4 1.75 -1.3 L1.8 -1.2 1.85 -1.1 Q1.9 -0.95 1.95 -0.9 L2.0 -0.85 2.1 -0.8 2.1 -0.7 2.2 -0.7 2.2 -0.3 2.1 -0.3 Q2.1 -0.3 2.05 -0.25 1.9 -0.1 1.85 0.1 1.8 0.3 1.9 0.45 1.85 0.65 1.95 0.75 2.05 0.9 2.2 0.95 L2.2 1.25 2.0 1.1 1.8 1.0 1.7 1.2 1.65 1.25 1.6 1.35 Q1.55 1.45 1.45 1.35 L1.4 1.3 1.3 1.25 1.25 1.15 1.2 1.1 1.15 1.0 1.15 0.95 1.2 0.95 Q1.25 0.9 1.25 0.9 L1.3 1.0 Q1.3 1.05 1.25 1.05 1.25 1.1 1.35 1.2 L1.4 1.25 1.45 1.3 1.5 1.1 1.45 0.85 1.55 0.9 1.6 0.95 Q1.55 1.0 1.55 1.1 L1.55 1.3 Q1.65 1.3 1.65 1.25 L1.65 1.1 Q1.6 1.05 1.65 1.05 L1.7 1.05 Q1.75 1.0 1.75 0.9 L1.7 0.7 1.75 0.35 1.65 0.05 1.6 0.0 1.55 -0.05 1.55 0.0 1.5 0.1 1.4 0.2 1.5 0.1 1.55 -0.05 1.65 -0.05 1.75 -0.25 1.75 -0.3 1.7 -0.35 1.7 -0.45 1.65 -0.5 1.65 -0.9 1.6 -1.25 1.65 -1.35 1.7 -1.35 1.75 -1.4 1.75 -1.45 2.2 -1.65" fill="#5c3a48" fill-rule="evenodd" stroke="none"/>
    <path d="M1.55 -1.25 Q1.55 -1.3 1.6 -1.35 L1.7 -1.45 1.65 -1.4 1.6 -1.35 1.6 -1.25 1.65 -0.9 1.65 -0.5 1.65 -0.3 1.6 -0.1 1.6 -0.1 1.55 -0.1 Q1.7 -0.6 1.55 -1.25" fill="#c1a294" fill-rule="evenodd" stroke="none"/>
    <path d="M1.25 -1.5 Q1.3 -1.5 1.3 -1.5 L1.3 -1.55 1.3 -1.5 1.25 -1.55 1.3 -1.55 Q1.35 -1.55 1.4 -1.55 L1.45 -1.45 Q1.4 -1.4 1.35 -1.4 L1.3 -1.4 1.35 -1.4 1.3 -1.35 1.25 -1.35 1.3 -1.35 1.25 -1.35 1.2 -1.35 1.2 -1.3 1.15 -1.3 1.15 -1.3 1.1 -1.3 1.15 -1.35 1.15 -1.45 1.2 -1.45 1.2 -1.5 1.25 -1.5" fill="#b06e6e" fill-rule="evenodd" stroke="none"/>
    <path d="M1.0 -1.0 L1.05 -1.05 1.1 -1.1 Q1.2 -1.15 1.25 -1.15 L1.35 -1.25 1.45 -1.3 1.5 -1.2 1.5 -0.35 Q1.5 -0.15 1.35 0.15 L1.2 0.35 1.1 0.6 0.95 0.7 0.8 0.75 Q0.75 0.7 0.75 0.6 L0.7 0.45 Q0.6 -0.1 0.8 -0.5 L0.85 -0.7 0.95 -0.85 0.95 -0.95 1.0 -1.0" fill="#2b1b1b" fill-rule="evenodd" stroke="none"/>
    <path d="M1.0 -1.0 L1.1 -1.15 1.3 -1.25 1.4 -1.3 1.45 -1.3 1.35 -1.25 1.25 -1.15 Q1.2 -1.15 1.1 -1.1 L1.05 -1.05 1.0 -1.0" fill="#a46766" fill-rule="evenodd" stroke="none"/>
    <path d="M2.2 -1.6 L2.2 -0.7 2.1 -0.7 2.1 -0.8 2.0 -0.85 1.95 -0.9 Q1.9 -0.95 1.85 -1.1 L1.8 -1.2 1.75 -1.3 Q1.75 -1.4 1.8 -1.4 L2.0 -1.5 2.2 -1.6" fill="#401a2c" fill-rule="evenodd" stroke="none"/>
    <path d="M0.1 -1.35 L0.0 -1.3 -0.05 -1.25 -0.1 -1.2 Q-0.1 -1.15 -0.15 -1.1 L-0.2 -1.15 -0.2 -1.1 -0.25 -1.1 -0.15 -1.2 Q-0.05 -1.25 -0.1 -1.3 L0.0 -1.35 0.1 -1.35" fill="#e49595" fill-rule="evenodd" stroke="none"/>
    <path d="M0.3 -1.5 L0.3 -1.5 0.35 -1.45 0.25 -1.4 0.2 -1.4 0.15 -1.45 0.15 -1.45 0.25 -1.45 0.15 -1.5 Q0.15 -1.5 0.2 -1.5 L0.3 -1.5" fill="#e79898" fill-rule="evenodd" stroke="none"/>
    <path d="M-1.15 -1.35 L-1.0 -1.0 -0.85 -0.7 -0.95 -0.6 Q-1.0 -0.55 -1.1 -0.6 -1.0 -0.55 -1.05 -0.5 L-1.2 -0.45 -1.25 -0.35 -1.35 -0.35 -1.3 -0.4 -1.25 -0.4 -1.35 -0.4 -1.4 -0.35 -1.4 -0.35 Q-1.3 -0.35 -1.3 -0.35 L-1.4 -0.3 -1.35 -0.3 -1.5 -0.3 -1.5 -1.2 -1.45 -1.4 -1.35 -1.55 Q-1.25 -1.6 -1.2 -1.5 L-1.15 -1.35" fill="#3c2626" fill-rule="evenodd" stroke="none"/>
    <path d="M-2.2 -0.55 L-2.2 -1.4 Q-2.15 -1.35 -2.15 -1.35 L-2.05 -1.35 Q-2.0 -1.35 -2.0 -1.3 -2.0 -1.25 -1.95 -1.3 L-1.9 -1.35 -1.85 -1.4 -1.75 -1.45 Q-1.7 -1.4 -1.7 -1.45 L-1.7 -1.55 -1.65 -1.55 -1.6 -1.55 -1.55 -1.55 -1.45 -1.6 Q-1.6 -1.35 -1.65 -1.0 L-1.65 -0.65 -1.7 -0.7 -1.75 -0.7 -1.85 -0.7 -1.9 -0.75 -1.95 -0.7 -2.1 -0.65 -2.2 -0.55 M-1.65 -0.4 L-1.65 -0.55 -1.65 -0.4" fill="#623537" fill-rule="evenodd" stroke="none"/>
    <path d="M-1.6 -1.15 L-1.65 -0.75 -1.6 -0.3 -1.65 -0.25 -1.65 -0.4 -1.65 -0.4 -1.65 -0.55 -1.65 -0.65 -1.65 -1.0 Q-1.6 -1.35 -1.45 -1.6 L-1.45 -1.6 -1.45 -1.6 -1.55 -1.4 -1.6 -1.15" fill="#c1765d" fill-rule="evenodd" stroke="none"/>
    <path d="M1.5 -1.2 L1.55 -1.25 Q1.7 -0.6 1.55 -0.1 L1.55 -0.05 1.5 0.1 1.4 0.2 1.35 0.25 1.3 0.4 1.2 0.5 1.2 0.55 1.1 0.6 1.2 0.35 1.35 0.15 Q1.5 -0.15 1.5 -0.35 L1.5 -1.2" fill="#efebbe" fill-rule="evenodd" stroke="none"/>
    <path d="M0.95 -0.95 L0.95 -0.85 0.55 -0.6 0.15 -0.35 0.15 0.3 0.1 0.35 0.05 0.4 0.0 0.45 -0.05 0.4 -0.1 0.35 -0.15 0.3 Q-0.15 0.2 -0.2 0.1 L-0.3 -0.1 -0.35 -0.05 -0.3 0.0 Q-0.4 0.1 -0.35 -0.05 L-0.5 0.05 Q-0.6 0.1 -0.65 0.1 L-0.65 0.05 -0.5 -0.05 -0.3 -0.15 -0.25 -0.15 -0.25 -0.15 -0.2 -0.2 -0.15 -0.15 -0.05 -0.25 0.05 -0.3 0.2 -0.45 0.55 -0.7 0.95 -0.95" fill="#dfdabb" fill-rule="evenodd" stroke="none"/>
    <path d="M0.95 -0.85 L0.85 -0.7 0.8 -0.5 0.7 -0.5 0.65 -0.4 0.55 -0.3 Q0.55 -0.25 0.45 -0.3 L0.45 -0.25 0.45 -0.2 0.4 -0.15 0.45 -0.3 Q0.4 -0.35 0.35 -0.3 L0.25 0.0 0.15 0.3 0.15 -0.35 0.55 -0.6 0.95 -0.85" fill="#c1bfa9" fill-rule="evenodd" stroke="none"/>
    <path d="M-2.2 -0.25 L-2.2 -0.55 -2.1 -0.65 -1.95 -0.7 -1.9 -0.75 -1.85 -0.7 -1.75 -0.7 -1.7 -0.7 -1.65 -0.65 -1.65 -0.55 -1.65 -0.4 -1.65 -0.3 -1.75 -0.25 -1.85 -0.15 -2.0 -0.1 -2.1 -0.2 -2.2 -0.25 M-1.65 -0.4 L-1.65 -0.4" fill="#5e2226" fill-rule="evenodd" stroke="none"/>
    <path d="M-0.85 -0.7 L-0.85 -0.6 -0.9 -0.55 -1.0 -0.45 -1.05 -0.45 -1.1 -0.4 -1.05 -0.4 -1.05 -0.4 -1.1 -0.4 -1.2 -0.35 -1.1 -0.35 -1.15 -0.35 -1.15 -0.3 -1.2 -0.3 -1.25 -0.3 -1.35 -0.25 -1.3 -0.25 -1.25 -0.25 -1.3 -0.2 -1.4 -0.15 Q-1.45 -0.15 -1.5 -0.2 L-1.5 -0.3 -1.35 -0.3 -1.4 -0.3 -1.3 -0.35 Q-1.3 -0.35 -1.4 -0.35 L-1.4 -0.35 -1.35 -0.4 -1.25 -0.4 -1.3 -0.4 -1.35 -0.35 -1.25 -0.35 -1.2 -0.45 -1.05 -0.5 Q-1.0 -0.55 -1.1 -0.6 -1.0 -0.55 -0.95 -0.6 L-0.85 -0.7" fill="#a36666" fill-rule="evenodd" stroke="none"/>
    <path d="M1.65 -0.5 L1.7 -0.45 1.7 -0.35 1.75 -0.3 1.75 -0.25 1.65 -0.05 1.55 -0.05 1.55 -0.1 1.6 -0.1 1.6 -0.1 1.65 -0.3 1.65 -0.5" fill="#7f626d" fill-rule="evenodd" stroke="none"/>
    <path d="M2.2 -0.3 L2.2 0.95 Q2.05 0.9 1.95 0.75 1.85 0.65 1.9 0.45 1.8 0.3 1.85 0.1 1.9 -0.1 2.05 -0.25 2.1 -0.3 2.1 -0.3 L2.2 -0.3" fill="#472423" fill-rule="evenodd" stroke="none"/>
    <path d="M-2.2 0.05 L-2.2 -0.25 -2.1 -0.2 -2.0 -0.1 -1.85 -0.15 -1.75 -0.25 -1.65 -0.3 -1.65 -0.4 -1.65 -0.25 -1.6 -0.2 -2.0 0.0 -2.1 0.0 -2.2 0.05" fill="#8a3034" fill-rule="evenodd" stroke="none"/>
    <path d="M-2.2 0.3 L-2.2 0.15 -2.1 0.1 -1.95 0.05 -1.8 0.0 -1.65 -0.1 Q-1.6 -0.1 -1.6 -0.15 L-1.6 -0.2 -1.65 -0.25 -1.6 -0.3 -1.6 -0.15 Q-1.6 -0.05 -1.7 0.0 L-1.8 0.05 -1.9 0.1 -2.05 0.2 -2.2 0.3" fill="#fb6b71" fill-rule="evenodd" stroke="none"/>
    <path d="M-2.2 0.15 L-2.2 0.05 -2.1 0.0 -2.0 0.0 -1.6 -0.2 -1.6 -0.15 Q-1.6 -0.1 -1.65 -0.1 L-1.8 0.0 -1.95 0.05 -2.1 0.1 -2.2 0.15" fill="#c24449" fill-rule="evenodd" stroke="none"/>
    <path d="M-0.85 -0.6 Q-0.8 -0.55 -0.9 -0.5 L-0.95 -0.45 -1.05 -0.4 Q-1.0 -0.35 -1.05 -0.35 L-1.15 -0.3 -1.15 -0.35 -1.1 -0.35 -1.2 -0.35 -1.1 -0.4 -1.05 -0.4 -1.05 -0.4 -1.1 -0.4 -1.05 -0.45 -1.0 -0.45 -0.9 -0.55 -0.85 -0.6" fill="#f7afaf" fill-rule="evenodd" stroke="none"/>
    <path d="M-1.2 -0.3 Q-1.25 -0.25 -1.2 -0.25 L-1.1 -0.3 -1.15 -0.25 -1.25 -0.25 -1.3 -0.25 -1.35 -0.25 -1.25 -0.3 -1.2 -0.3" fill="#fab0b1" fill-rule="evenodd" stroke="none"/>
    <path d="M-2.2 0.35 L-2.2 0.3 -2.05 0.2 -1.9 0.1 -1.8 0.05 -1.7 0.0 Q-1.6 -0.05 -1.6 -0.15 -1.55 -0.05 -1.65 0.05 L-1.85 0.15 -2.0 0.25 -2.2 0.35" fill="#ffa9b4" fill-rule="evenodd" stroke="none"/>
    <path d="M-0.9 0.0 L-0.85 0.0 -0.8 0.0 -0.8 -0.05 Q-0.7 -0.05 -0.7 -0.1 L-0.7 0.05 -0.7 0.1 -0.75 0.05 Q-0.8 0.0 -0.8 0.05 L-0.8 0.1 -0.85 0.1 -0.9 0.1 -0.85 0.1 -0.9 0.15 -0.95 0.15 -1.0 0.15 -1.0 0.15 -0.95 0.2 Q-0.9 0.25 -0.95 0.25 L-1.05 0.3 -1.0 0.25 -0.95 0.25 -1.0 0.2 -1.05 0.2 -1.1 0.2 -1.15 0.25 -1.15 0.3 -1.2 0.3 -1.25 0.3 -1.3 0.25 -1.2 0.2 -1.15 0.25 -1.15 0.2 -1.05 0.1 Q-0.95 0.05 -0.9 0.0" fill="#915a5a" fill-rule="evenodd" stroke="none"/>
    <path d="M-0.65 0.1 Q-0.6 0.1 -0.5 0.05 L-0.35 -0.05 Q-0.4 0.1 -0.3 0.0 L-0.25 0.2 -0.15 0.4 -0.15 0.45 -0.2 0.5 -0.2 0.5 -0.25 0.5 -0.3 0.5 -0.4 0.4 -0.4 0.25 -0.35 0.1 Q-0.35 0.0 -0.45 0.05 L-0.5 0.1 -0.6 0.2 Q-0.7 0.25 -0.65 0.1" fill="#c3c2aa" fill-rule="evenodd" stroke="none"/>
    <path d="M0.35 0.2 L0.4 0.3 0.4 0.4 Q0.4 0.5 0.3 0.5 0.3 0.45 0.25 0.5 L0.2 0.5 Q0.1 0.45 0.15 0.35 L0.2 0.3 0.2 0.25 0.35 -0.05 0.35 0.2" fill="#c3c3aa" fill-rule="evenodd" stroke="none"/>
    <path d="M1.4 0.2 L1.5 0.1 1.55 0.0 1.55 -0.05 1.6 0.0 1.65 0.05 1.75 0.35 1.7 0.7 1.75 0.9 Q1.75 1.0 1.7 1.05 L1.65 1.05 Q1.6 1.05 1.65 1.1 L1.65 1.25 Q1.65 1.3 1.55 1.3 L1.55 1.1 Q1.55 1.0 1.6 0.95 L1.55 0.9 1.45 0.85 1.5 1.1 1.45 1.3 1.4 1.25 1.35 1.2 Q1.25 1.1 1.25 1.05 1.3 1.05 1.3 1.0 L1.25 0.9 Q1.25 0.9 1.2 0.95 L1.15 0.95 1.1 0.9 1.1 0.85 1.05 0.8 1.05 0.75 1.2 0.55 1.2 0.65 1.15 0.75 Q1.1 0.8 1.15 0.85 L1.2 0.85 1.25 0.85 1.3 0.9 1.3 0.85 1.3 0.85 1.35 0.85 1.35 0.8 1.4 0.7 1.45 0.8 Q1.5 0.85 1.55 0.8 L1.6 0.85 1.65 0.9 1.65 0.85 1.6 0.75 1.55 0.7 1.55 0.6 1.5 0.5 1.5 0.4 1.45 0.4 1.4 0.45 1.4 0.4 1.35 0.3 1.35 0.25 1.4 0.2" fill="#301a2a" fill-rule="evenodd" stroke="none"/>
    <path d="M1.35 0.25 L1.35 0.3 1.4 0.45 1.4 0.6 1.35 0.55 1.35 0.5 Q1.3 0.4 1.25 0.45 L1.25 0.5 1.2 0.5 1.3 0.4 1.35 0.25" fill="#68845d" fill-rule="evenodd" stroke="none"/>
    <path d="M-1.25 0.3 L-1.2 0.3 -1.15 0.3 -1.15 0.25 -1.1 0.2 -1.05 0.2 -1.0 0.2 -0.95 0.25 -1.0 0.25 -1.05 0.3 -0.95 0.25 Q-0.9 0.25 -0.95 0.2 L-1.0 0.15 -1.0 0.15 -0.95 0.15 -0.9 0.15 -0.85 0.1 -0.9 0.1 -0.85 0.1 -0.8 0.1 -0.8 0.05 Q-0.8 0.0 -0.75 0.05 L-0.7 0.1 Q-0.65 0.3 -0.7 0.45 L-0.75 0.6 -0.8 0.75 Q-0.9 0.75 -0.95 0.7 L-1.05 0.65 -1.1 0.6 -1.15 0.45 -1.25 0.3" fill="#362222" fill-rule="evenodd" stroke="none"/>
    <path d="M-0.9 0.0 Q-0.95 0.05 -1.05 0.1 L-1.15 0.2 -1.15 0.25 -1.2 0.2 -1.25 0.2 -1.25 0.15 -1.15 0.1 -1.0 0.05 -1.0 0.0 -0.95 0.0 -0.9 0.0" fill="#eb9b9d" fill-rule="evenodd" stroke="none"/>
    <path d="M-1.45 0.35 L-1.45 0.4 -1.5 0.4 -1.5 0.4 -1.55 0.45 -1.6 0.45 -1.65 0.45 -1.65 0.45 -1.65 0.35 -1.6 0.35 -1.6 0.3 -1.55 0.3 -1.5 0.25 Q-1.45 0.25 -1.45 0.35" fill="#e181ef" fill-rule="evenodd" stroke="none"/>
    <path d="M1.35 0.3 L1.4 0.4 1.4 0.45 1.45 0.4 1.5 0.4 1.5 0.5 1.55 0.6 1.55 0.7 1.6 0.75 1.65 0.85 1.65 0.9 1.6 0.85 1.55 0.8 Q1.5 0.85 1.45 0.8 L1.4 0.7 1.35 0.8 1.35 0.85 1.3 0.85 1.3 0.85 1.3 0.9 1.25 0.85 1.2 0.85 1.15 0.85 Q1.1 0.8 1.15 0.75 L1.2 0.65 1.2 0.55 1.2 0.5 1.25 0.5 1.25 0.45 Q1.3 0.4 1.35 0.5 L1.35 0.55 1.4 0.6 1.4 0.45 1.35 0.3" fill="#334c27" fill-rule="evenodd" stroke="none"/>
    <path d="M-1.2 0.5 L-1.25 0.45 Q-1.3 0.4 -1.35 0.4 L-1.35 0.4 -1.4 0.45 Q-1.45 0.45 -1.45 0.4 L-1.45 0.35 -1.4 0.35 -1.35 0.35 Q-1.3 0.4 -1.2 0.5" fill="#f39998" fill-rule="evenodd" stroke="none"/>
    <path d="M-2.2 2.15 L-2.2 1.0 -2.05 0.95 Q-2.0 0.9 -2.1 0.85 L-2.05 0.8 -1.95 0.75 Q-1.85 0.7 -1.8 0.65 L-1.75 0.6 -1.7 0.6 -1.7 0.65 -1.65 0.65 -1.65 0.55 Q-1.65 0.5 -1.65 0.5 L-1.65 0.45 -1.65 0.45 -1.6 0.45 -1.55 0.45 -1.5 0.4 -1.5 0.4 -1.45 0.4 Q-1.45 0.45 -1.4 0.45 L-1.35 0.4 -1.35 0.4 Q-1.3 0.4 -1.25 0.45 L-1.2 0.5 -1.2 0.55 -1.15 0.6 -1.1 0.65 -1.2 0.6 -1.25 0.5 -1.35 0.55 -1.5 0.6 -1.45 0.45 Q-1.6 0.45 -1.65 0.55 L-1.6 0.55 -1.6 0.6 -1.65 0.6 -1.65 0.65 Q-1.65 0.7 -1.7 0.7 L-1.7 0.65 -1.8 0.7 -1.8 0.75 -1.9 0.8 -2.0 0.9 -1.95 0.9 -1.85 0.9 -1.8 0.9 -1.75 0.95 -1.95 1.1 -2.05 1.15 -2.15 1.2 -2.1 1.3 -2.1 1.35 -2.15 1.65 -2.15 1.95 -2.1 2.05 -2.05 2.15 -2.2 2.15" fill="#a15556" fill-rule="evenodd" stroke="none"/>
    <path d="M-2.2 0.7 L-2.2 0.65 -1.95 0.55 -1.75 0.45 -1.75 0.4 -1.7 0.4 Q-1.7 0.4 -1.7 0.45 L-2.2 0.7" fill="#fdb1ba" fill-rule="evenodd" stroke="none"/>
    <path d="M-1.1 0.65 L-1.1 0.7 -1.15 0.7 -1.15 0.65 -1.2 0.55 -1.35 0.6 -1.45 0.7 -1.45 0.75 -1.45 0.85 -1.5 0.85 -1.55 0.85 -1.6 0.9 -1.6 1.0 Q-1.65 1.0 -1.65 1.1 L-1.6 1.2 -1.6 1.25 -1.7 1.1 -1.75 0.95 -1.8 0.9 -1.85 0.9 -1.95 0.9 -2.0 0.9 -1.9 0.8 -1.8 0.75 -1.8 0.7 -1.7 0.65 -1.7 0.7 Q-1.65 0.7 -1.65 0.65 L-1.65 0.6 -1.6 0.6 -1.6 0.55 -1.65 0.55 Q-1.6 0.45 -1.45 0.45 L-1.5 0.6 -1.35 0.55 -1.25 0.5 -1.2 0.6 -1.1 0.65" fill="#662a34" fill-rule="evenodd" stroke="none"/>
    <path d="M0.7 0.45 L0.75 0.6 Q0.75 0.7 0.8 0.75 L0.95 0.7 1.1 0.6 1.2 0.55 1.05 0.75 Q1.0 0.85 0.85 0.85 L0.6 0.75 0.4 0.75 0.25 0.75 0.15 0.65 0.0 0.6 -0.15 0.65 -0.25 0.75 -0.35 0.8 -0.45 0.75 -0.55 0.75 Q-0.6 0.75 -0.65 0.8 L-0.85 0.8 -1.05 0.75 -1.1 0.7 -1.1 0.7 -1.1 0.65 -1.15 0.6 -1.2 0.55 -1.1 0.6 -1.05 0.65 -0.95 0.7 Q-0.9 0.75 -0.8 0.75 L-0.75 0.6 -0.7 0.45 -0.65 0.5 -0.6 0.5 -0.5 0.55 -0.45 0.55 -0.3 0.55 -0.1 0.55 Q-0.1 0.5 0.0 0.5 0.05 0.5 0.1 0.55 L0.5 0.55 0.6 0.5 Q0.65 0.45 0.7 0.45 M-1.05 0.75 L-1.05 0.75" fill="#8c8d7b" fill-rule="evenodd" stroke="none"/>
    <path d="M-1.05 0.75 L-1.05 0.75 -1.05 0.85 -1.15 0.95 -1.25 0.95 -1.3 0.95 -1.3 0.9 -1.35 0.9 Q-1.4 0.95 -1.4 1.1 L-1.35 1.2 -1.3 1.3 -1.35 1.35 -1.4 1.3 -1.45 1.25 -1.5 1.25 -1.5 1.05 -1.45 0.95 -1.45 0.85 -1.45 0.75 -1.45 0.7 -1.35 0.6 -1.2 0.55 -1.15 0.65 -1.15 0.7 -1.2 0.7 -1.25 0.7 -1.3 0.75 -1.15 0.8 -1.05 0.75" fill="#3a1d28" fill-rule="evenodd" stroke="none"/>
    <path d="M-1.1 0.7 L-1.1 0.7 -1.05 0.75 -1.15 0.8 -1.3 0.75 -1.25 0.7 -1.2 0.7 -1.15 0.7 -1.1 0.7" fill="#3c6737" fill-rule="evenodd" stroke="none"/>
    <path d="M-0.25 0.75 L-0.25 0.9 -0.55 0.95 -0.85 1.0 -0.9 1.0 -0.85 0.95 -0.95 0.95 -1.0 0.95 -1.05 0.9 -1.05 0.85 -1.05 0.75 -0.85 0.8 -0.65 0.8 Q-0.6 0.75 -0.55 0.75 L-0.45 0.75 -0.35 0.8 -0.25 0.75" fill="#563f26" fill-rule="evenodd" stroke="none"/>
    <path d="M-2.2 1.0 L-2.2 0.7 -1.7 0.45 -1.7 0.55 -1.7 0.6 -1.75 0.6 -1.8 0.65 Q-1.85 0.7 -1.95 0.75 L-2.05 0.8 -2.1 0.85 Q-2.0 0.9 -2.05 0.95 L-2.2 1.0" fill="#f57473" fill-rule="evenodd" stroke="none"/>
    <path d="M-1.65 0.5 Q-1.65 0.5 -1.65 0.55 L-1.65 0.65 -1.7 0.65 -1.7 0.6 -1.7 0.55 -1.65 0.55 -1.65 0.5" fill="#94f4b5" fill-rule="evenodd" stroke="none"/>
    <path d="M1.05 0.75 L1.05 0.8 1.1 0.85 1.1 0.9 1.15 0.95 1.05 0.9 Q1.0 0.85 1.0 0.95 L0.9 0.95 Q0.85 0.95 0.9 1.0 L0.85 1.0 0.8 0.95 0.75 0.95 0.5 0.95 0.25 0.95 0.25 0.75 0.4 0.75 0.6 0.75 0.85 0.85 Q1.0 0.85 1.05 0.75" fill="#563f28" fill-rule="evenodd" stroke="none"/>
    <path d="M0.1 0.75 L0.15 0.8 0.1 0.8 0.05 0.8 0.05 0.9 0.0 0.95 -0.05 0.95 -0.1 0.9 -0.05 0.8 -0.1 0.8 -0.15 0.75 -0.1 0.7 -0.05 0.7 0.05 0.7 0.1 0.75" fill="#402d1b" fill-rule="evenodd" stroke="none"/>
    <path d="M-1.65 2.15 L-2.05 2.15 -2.1 2.05 -2.15 1.95 -2.15 1.65 -2.1 1.35 -2.1 1.3 -2.15 1.2 -2.05 1.15 -1.95 1.1 -1.75 0.95 -1.7 1.1 -1.6 1.25 -1.6 1.2 -1.65 1.1 Q-1.65 1.0 -1.6 1.0 L-1.6 0.9 -1.55 0.85 -1.5 0.85 -1.45 0.85 -1.45 0.95 -1.5 1.05 -1.5 1.25 -1.45 1.25 -1.4 1.3 -1.35 1.35 -1.35 1.4 -1.3 1.45 -1.35 1.6 -1.35 1.7 -1.2 1.85 -1.4 1.75 -1.35 1.6 -1.3 1.45 -1.35 1.45 -1.35 1.5 -1.45 1.5 -1.55 1.45 -1.65 1.5 -1.75 1.5 -1.85 1.55 -1.9 1.65 Q-1.95 1.8 -1.85 1.95 L-1.65 2.15 M-1.2 1.85 L-1.2 1.85" fill="#884b45" fill-rule="evenodd" stroke="none"/>
    <path d="M1.15 0.95 L1.15 1.0 1.2 1.1 1.25 1.15 1.3 1.25 1.4 1.3 1.45 1.35 Q1.55 1.45 1.6 1.35 L1.65 1.35 1.7 1.25 Q1.75 1.2 1.8 1.25 1.9 1.3 1.9 1.4 L1.8 1.6 Q1.75 1.65 1.8 1.8 L1.85 1.9 1.85 2.0 1.95 2.1 2.0 2.15 1.8 2.15 1.65 2.15 Q1.7 2.0 1.6 1.9 L1.35 1.75 1.4 1.7 1.35 1.6 1.35 1.5 Q1.35 1.45 1.35 1.45 L1.3 1.45 1.3 1.5 1.25 1.5 1.15 1.2 1.0 0.95 Q1.0 0.85 1.05 0.9 L1.15 0.95" fill="#987b75" fill-rule="evenodd" stroke="none"/>
    <path d="M0.85 1.0 L0.9 1.0 Q0.85 0.95 0.9 0.95 L1.0 0.95 1.15 1.2 1.25 1.5 1.3 1.5 1.35 1.6 1.4 1.7 1.3 1.8 1.2 1.85 1.05 1.85 0.9 1.8 Q0.85 1.75 0.85 1.7 L0.9 1.55 0.9 1.25 0.85 1.0 M-1.0 0.95 L-0.95 0.95 -0.85 0.95 -0.9 1.0 -0.85 1.0 Q-0.95 1.25 -0.9 1.5 L-0.9 1.8 -1.05 1.85 -1.2 1.85 -1.35 1.7 -1.35 1.6 -1.3 1.45 -1.25 1.5 -1.25 1.5 -1.2 1.35 -1.15 1.2 -1.0 0.95" fill="#2d1d1c" fill-rule="evenodd" stroke="none"/>
    <path d="M-1.15 0.95 L-1.25 1.05 -1.3 1.2 -1.3 1.3 -1.35 1.2 -1.4 1.1 Q-1.4 0.95 -1.35 0.9 L-1.3 0.9 -1.3 0.95 -1.25 0.95 -1.15 0.95" fill="#68434a" fill-rule="evenodd" stroke="none"/>
    <path d="M-1.0 0.95 L-1.15 1.2 -1.2 1.35 -1.25 1.5 -1.25 1.5 -1.3 1.45 -1.35 1.4 -1.35 1.35 -1.3 1.3 -1.3 1.2 -1.25 1.05 -1.15 0.95 -1.05 0.85 -1.05 0.9 -1.0 0.95" fill="#948e7c" fill-rule="evenodd" stroke="none"/>
    <path d="M-0.25 0.9 L-0.25 0.95 -0.25 1.05 -0.35 1.1 -0.35 1.2 -0.4 1.2 -0.45 1.2 -0.45 1.1 Q-0.6 1.1 -0.6 1.2 L-0.6 1.35 Q-0.65 1.45 -0.7 1.45 L-0.8 1.5 -0.85 1.55 -0.9 1.5 Q-0.95 1.25 -0.85 1.0 L-0.55 0.95 -0.25 0.9 M0.9 1.55 L0.8 1.5 0.75 1.5 0.6 1.4 0.6 1.25 0.6 1.15 0.55 1.15 0.5 1.1 0.45 1.15 0.45 1.2 0.4 1.2 0.35 1.1 0.3 1.1 0.25 1.05 0.25 0.95 0.5 0.95 0.75 0.95 0.8 0.95 0.85 1.0 0.9 1.25 0.9 1.55" fill="#dbd8b0" fill-rule="evenodd" stroke="none"/>
    <path d="M-0.25 0.95 L-0.05 1.05 0.1 1.05 0.25 0.95 0.25 1.05 0.3 1.1 0.35 1.1 0.4 1.2 0.45 1.2 0.45 1.15 0.5 1.1 0.55 1.15 0.6 1.15 0.6 1.25 0.6 1.4 0.75 1.5 0.8 1.5 0.9 1.55 0.85 1.7 Q0.85 1.75 0.9 1.8 L0.9 1.85 0.85 1.85 0.85 1.9 0.7 1.9 0.65 1.85 0.55 1.85 0.45 1.9 0.35 1.95 0.2 2.0 Q0.1 2.0 0.05 1.95 0.05 1.9 0.0 1.9 L-0.05 1.9 -0.1 1.95 -0.2 2.0 -0.4 1.95 -0.6 1.85 -0.65 1.9 -0.65 1.9 -0.8 1.9 -0.9 1.9 -1.05 1.85 -1.15 1.85 -1.2 1.85 -1.05 1.85 -0.9 1.8 -0.9 1.5 -0.85 1.55 -0.8 1.5 -0.7 1.45 Q-0.65 1.45 -0.6 1.35 L-0.6 1.2 Q-0.6 1.1 -0.45 1.1 L-0.45 1.2 -0.4 1.2 -0.35 1.2 -0.35 1.1 -0.25 1.05 -0.25 0.95 M-1.2 1.85 L-1.2 1.85" fill="#c7c7a8" fill-rule="evenodd" stroke="none"/>
    <path d="M2.2 1.25 L2.2 1.5 Q2.05 1.6 2.05 1.75 2.05 1.95 2.2 2.05 L2.2 2.15 2.1 2.15 2.0 2.15 1.95 2.1 1.85 2.0 1.85 1.9 1.8 1.8 Q1.75 1.65 1.8 1.6 L1.9 1.4 Q1.9 1.3 1.8 1.25 1.75 1.2 1.7 1.25 L1.65 1.35 1.6 1.35 1.65 1.25 1.7 1.2 1.8 1.0 2.0 1.1 2.2 1.25" fill="#84544f" fill-rule="evenodd" stroke="none"/>
    <path d="M1.3 1.5 L1.3 1.45 1.35 1.45 Q1.35 1.45 1.35 1.5 L1.35 1.6 1.4 1.7 1.35 1.75 Q1.3 1.8 1.25 1.8 L1.2 1.85 1.3 1.8 1.4 1.7 1.35 1.6 1.3 1.5" fill="#dfbd9c" fill-rule="evenodd" stroke="none"/>
    <path d="M2.2 1.5 L2.2 2.05 Q2.05 1.95 2.05 1.75 2.05 1.6 2.2 1.5" fill="#79362b" fill-rule="evenodd" stroke="none"/>
    <path d="M-0.05 1.95 Q-0.1 2.0 -0.05 2.05 L0.0 2.1 0.0 2.15 -0.25 2.15 -0.5 2.15 -0.55 2.05 -0.6 1.9 -0.35 2.0 Q-0.15 2.05 -0.05 1.95 M-1.35 2.15 L-1.65 2.15 -1.85 1.95 Q-1.95 1.8 -1.9 1.65 L-1.85 1.55 -1.75 1.5 -1.65 1.5 -1.55 1.45 -1.45 1.5 -1.35 1.5 -1.35 1.45 -1.3 1.45 -1.35 1.6 -1.4 1.75 -1.2 1.85 Q-1.2 1.95 -1.25 2.0 L-1.35 2.15" fill="#682f2b" fill-rule="evenodd" stroke="none"/>
    <path d="M0.35 1.95 Q0.3 2.0 0.2 2.0 L0.05 1.95 0.0 1.95 -0.05 1.95 Q-0.15 2.05 -0.35 2.0 L-0.6 1.9 -0.55 2.05 -0.5 2.15 -1.35 2.15 -1.25 2.0 Q-1.2 1.95 -1.2 1.85 L-1.15 1.85 -1.05 1.85 -0.9 1.9 -0.8 1.9 -0.65 1.9 -0.65 1.9 -0.6 1.85 -0.4 1.95 -0.2 2.0 -0.1 1.95 -0.05 1.9 0.0 1.9 Q0.05 1.9 0.05 1.95 0.1 2.0 0.2 2.0 L0.35 1.95" fill="#83544d" fill-rule="evenodd" stroke="none"/>
    <path d="M2.2 2.15 L2.2 2.2 -2.2 2.2 -2.2 2.15 -2.05 2.15 -1.65 2.15 -1.35 2.15 -0.5 2.15 -0.25 2.15 0.0 2.15 0.0 2.1 -0.05 2.05 Q-0.1 2.0 -0.05 1.95 L0.0 1.95 0.05 1.95 0.2 2.0 Q0.3 2.0 0.35 1.95 L0.45 1.9 0.55 1.85 0.55 1.9 0.6 2.15 0.7 2.15 0.8 2.15 0.8 2.0 0.85 1.85 0.9 1.9 0.85 2.05 0.85 2.15 1.15 2.15 1.45 2.15 1.7 2.15 2.0 2.15 2.1 2.15 2.2 2.15" fill="#3e2121" fill-rule="evenodd" stroke="none"/>
    <path d="M0.55 1.9 L0.55 1.85 0.65 1.85 0.7 1.9 0.85 1.9 0.8 1.95 0.75 1.95 0.65 1.9 0.55 1.9" fill="#7ca77d" fill-rule="evenodd" stroke="none"/>
    <path d="M0.85 1.85 L0.8 2.0 0.8 2.15 0.7 2.15 0.6 2.15 0.55 1.9 0.65 1.9 0.75 1.95 0.8 1.95 0.85 1.9 0.85 1.85" fill="#346938" fill-rule="evenodd" stroke="none"/>
    <path d="M1.35 1.75 L1.6 1.9 Q1.7 2.0 1.65 2.15 L1.8 2.15 2.0 2.15 1.7 2.15 1.45 2.15 1.35 2.0 1.2 1.85 1.15 1.85 1.05 1.85 Q0.95 1.85 0.9 1.9 L0.85 1.85 0.9 1.85 0.9 1.8 1.05 1.85 1.2 1.85 1.25 1.8 Q1.3 1.8 1.35 1.75" fill="#885952" fill-rule="evenodd" stroke="none"/>
    <path d="M1.45 2.15 L1.15 2.15 0.85 2.15 0.85 2.05 0.9 1.9 Q0.95 1.85 1.05 1.85 L1.15 1.85 1.2 1.85 1.35 2.0 1.45 2.15" fill="#642e27" fill-rule="evenodd" stroke="none"/>
    <path d="M0.9 -1.85 Q0.9 -1.8 0.95 -1.85 L1.0 -1.85 1.25 -2.0 1.5 -2.2 2.2 -2.2 2.2 -2.05 1.85 -1.9 1.55 -1.7 1.55 -1.65 1.6 -1.65 1.6 -1.6 1.6 -1.55 1.65 -1.55 1.9 -1.65 2.2 -1.8 2.2 -1.75 2.0 -1.6 1.75 -1.5 1.7 -1.5 1.7 -1.45 1.6 -1.35 Q1.55 -1.3 1.55 -1.25 L1.5 -1.2 1.45 -1.3 1.4 -1.3 1.3 -1.25 1.1 -1.15 1.0 -1.0 0.95 -0.95 0.55 -0.7 0.2 -0.45 0.05 -0.3 -0.05 -0.25 -0.15 -0.15 -0.2 -0.2 -0.25 -0.15 -0.25 -0.15 -0.3 -0.15 -0.5 -0.05 -0.65 0.05 -0.7 0.05 -0.7 -0.1 Q-0.7 -0.05 -0.8 -0.05 L-0.8 0.0 -0.85 0.0 -0.9 0.0 -0.95 0.0 -1.0 0.0 -1.0 0.05 -1.15 0.1 -1.25 0.15 -1.25 0.2 -1.2 0.2 -1.3 0.25 -1.25 0.3 -1.15 0.45 -1.1 0.6 -1.2 0.55 -1.2 0.5 Q-1.3 0.4 -1.35 0.35 L-1.4 0.35 -1.45 0.35 Q-1.45 0.25 -1.5 0.25 L-1.55 0.3 -1.6 0.3 -1.6 0.35 -1.65 0.35 -1.65 0.45 -1.65 0.5 -1.65 0.55 -1.7 0.55 -1.7 0.45 Q-1.7 0.4 -1.7 0.4 L-1.75 0.4 -1.75 0.45 -1.95 0.55 -2.2 0.65 -2.2 0.35 -2.0 0.25 -1.85 0.15 -1.65 0.05 Q-1.55 -0.05 -1.6 -0.15 L-1.6 -0.3 -1.65 -0.75 -1.6 -1.15 -1.5 -1.2 -1.5 -0.3 -1.5 -0.2 Q-1.45 -0.15 -1.4 -0.15 L-1.3 -0.2 -1.25 -0.25 -1.15 -0.25 -1.1 -0.3 -1.2 -0.25 Q-1.25 -0.25 -1.2 -0.3 L-1.15 -0.3 -1.05 -0.35 Q-1.0 -0.35 -1.05 -0.4 L-0.95 -0.45 -0.9 -0.5 Q-0.8 -0.55 -0.85 -0.6 L-0.85 -0.7 -1.0 -1.0 -1.15 -1.35 -0.75 -1.6 Q-0.75 -1.3 -0.4 -1.1 L-0.3 -1.05 Q-0.25 -1.05 -0.3 -1.1 L-0.3 -1.1 -0.25 -1.1 -0.2 -1.1 -0.2 -1.15 -0.15 -1.1 Q-0.1 -1.15 -0.1 -1.2 L-0.05 -1.25 0.0 -1.3 0.1 -1.35 0.1 -1.4 0.15 -1.4 Q0.1 -1.35 0.15 -1.35 L0.2 -1.4 0.25 -1.4 0.35 -1.45 0.3 -1.5 0.3 -1.5 0.35 -1.5 0.35 -1.5 0.4 -1.5 0.55 -1.6 0.7 -1.7 0.75 -1.7 0.8 -1.75 0.75 -1.75 0.7 -1.75 0.6 -1.85 Q0.55 -1.85 0.45 -1.9 L0.6 -1.95 0.7 -2.0 0.7 -1.95 0.65 -1.95 0.55 -1.9 0.7 -1.85 0.85 -1.9 0.9 -1.85 M1.25 -1.5 L1.2 -1.5 1.2 -1.45 1.15 -1.45 1.15 -1.35 1.1 -1.3 1.15 -1.3 1.15 -1.3 1.2 -1.3 1.2 -1.35 1.25 -1.35 1.3 -1.35 1.25 -1.35 1.3 -1.35 1.35 -1.4 1.3 -1.4 1.35 -1.4 Q1.4 -1.4 1.45 -1.45 L1.4 -1.55 Q1.35 -1.55 1.3 -1.55 L1.25 -1.55 1.3 -1.5 1.3 -1.55 1.3 -1.5 Q1.3 -1.5 1.25 -1.5 M0.45 -1.9 L0.45 -1.9" fill="#fffdfc" fill-rule="evenodd" stroke="none"/>
    <path d="M0.8 -0.5 Q0.6 -0.1 0.7 0.45 0.65 0.45 0.6 0.5 L0.5 0.55 0.1 0.55 Q0.05 0.5 0.0 0.5 -0.1 0.5 -0.1 0.55 L-0.3 0.55 -0.45 0.55 -0.5 0.55 -0.6 0.5 -0.65 0.5 -0.7 0.45 Q-0.65 0.3 -0.7 0.1 L-0.7 0.05 -0.65 0.05 -0.65 0.1 Q-0.7 0.25 -0.6 0.2 L-0.5 0.1 -0.45 0.05 Q-0.35 0.0 -0.35 0.1 L-0.4 0.25 -0.4 0.4 -0.3 0.5 -0.25 0.5 -0.2 0.5 -0.2 0.5 -0.15 0.45 -0.15 0.4 -0.25 0.2 -0.3 0.0 -0.35 -0.05 -0.3 -0.1 -0.2 0.1 Q-0.15 0.2 -0.15 0.3 L-0.1 0.35 -0.05 0.4 0.0 0.45 0.05 0.4 0.1 0.35 0.15 0.3 0.25 0.0 0.35 -0.3 Q0.4 -0.35 0.45 -0.3 L0.4 -0.15 0.45 -0.2 0.45 -0.25 0.45 -0.3 Q0.55 -0.25 0.55 -0.3 L0.65 -0.4 0.7 -0.5 0.8 -0.5 M0.35 0.2 L0.35 -0.05 0.2 0.25 0.2 0.3 0.15 0.35 Q0.1 0.45 0.2 0.5 L0.25 0.5 Q0.3 0.45 0.3 0.5 0.4 0.5 0.4 0.4 L0.4 0.3 0.35 0.2" fill="#a5a390" fill-rule="evenodd" stroke="none"/>
    <path d="M0.1 0.75 L0.05 0.7 -0.05 0.7 -0.1 0.7 -0.15 0.75 -0.1 0.8 -0.05 0.8 -0.1 0.9 -0.05 0.95 0.0 0.95 0.05 0.9 0.05 0.8 0.1 0.8 0.15 0.8 0.1 0.75 M-0.25 0.75 L-0.15 0.65 0.0 0.6 0.15 0.65 0.25 0.75 0.25 0.95 0.1 1.05 -0.05 1.05 -0.25 0.95 -0.25 0.9 -0.25 0.75" fill="#a2684a" fill-rule="evenodd" stroke="none"/>
  </g>
</svg>
