<?xml version="1.0" encoding="UTF-8" standalone="no"?>
<svg xmlns:xlink="http://www.w3.org/1999/xlink" height="8.55px" width="5.7px" xmlns="http://www.w3.org/2000/svg">
  <g transform="matrix(1.0, 0.0, 0.0, 1.0, 3.0, 2.75)">
    <path d="M0.1 -0.85 L0.25 -0.8 1.15 -0.6 1.7 -0.6 2.35 -0.7 2.55 -0.7 2.7 -0.85 Q2.45 -0.2 2.05 0.4 L2.0 0.4 1.6 0.95 1.35 1.35 Q1.05 1.85 1.05 2.15 L1.0 2.6 0.9 2.9 Q0.8 3.0 0.75 3.35 0.65 3.7 0.4 3.95 L0.0 4.3 -0.35 4.6 -0.8 5.15 -0.9 5.3 -1.05 5.4 -1.25 5.6 Q-1.55 5.8 -1.8 5.8 -2.1 5.8 -2.55 5.2 -2.85 4.8 -2.95 4.5 L-3.0 4.3 Q-3.0 4.05 -2.75 3.6 L-2.65 3.1 Q-2.55 2.5 -2.55 2.0 L-2.65 1.3 -2.65 1.3 -2.7 0.65 -2.65 -0.2 -2.5 -1.25 Q-2.35 -1.95 -2.1 -2.75 L-1.95 -2.5 -1.65 -2.1 Q-1.4 -1.75 -1.05 -1.5 L-0.3 -1.0 0.1 -0.85" fill="#fad195" fill-rule="evenodd" stroke="none"/>
  </g>
</svg>
