<?xml version="1.0" encoding="UTF-8" standalone="no"?>
<svg xmlns:xlink="http://www.w3.org/1999/xlink" height="12.2px" width="6.45px" xmlns="http://www.w3.org/2000/svg">
  <g transform="matrix(1.0, 0.0, 0.0, 1.0, 3.3, 6.3)">
    <path d="M1.5 1.25 L1.35 1.55 Q1.15 1.95 1.1 2.15 L1.1 2.3 Q0.95 3.5 0.35 4.15 L0.1 4.2 -0.15 4.2 -0.55 4.3 -1.05 4.35 -1.65 4.4 -2.0 4.35 -2.0 4.2 Q-1.95 4.2 -1.9 4.05 -1.65 4.0 -1.55 3.85 -1.4 3.6 -1.3 3.6 -1.15 3.6 -1.15 3.75 L-1.0 3.75 Q-0.95 3.65 -0.9 3.65 L-0.85 3.7 Q-0.75 3.6 -0.7 3.6 -0.65 3.6 -0.6 3.65 L-0.65 3.8 Q-0.45 4.0 -0.1 3.95 0.35 3.95 0.65 3.35 0.85 2.85 0.85 2.3 L0.65 2.25 0.35 2.15 0.3 2.15 0.35 2.05 0.3 1.9 0.75 1.95 1.05 1.9 1.15 1.65 1.15 1.35 Q1.35 1.4 1.5 1.25 M-2.95 3.4 L-2.9 3.3 -2.75 2.65 Q-2.65 2.7 -2.65 2.8 -2.65 2.9 -2.75 3.0 -2.8 3.1 -2.7 3.2 L-2.85 3.5 -2.9 3.45 -2.95 3.4 M-2.7 2.25 Q-3.2 2.2 -3.2 2.1 L-2.95 1.3 -2.85 1.35 -2.6 1.55 -2.75 1.75 Q-2.8 1.85 -2.8 2.0 L-2.8 2.0 -2.7 1.9 -2.6 1.85 -2.6 1.85 -2.65 2.0 -2.7 2.1 -1.95 2.0 -1.55 1.95 -1.55 2.1 -1.35 2.15 -1.3 2.2 -1.4 2.2 -2.35 2.25 -2.45 2.25 -2.7 2.25 M-2.8 0.5 Q-3.25 0.35 -3.25 0.25 L-2.95 -0.3 Q-2.65 -0.9 -2.55 -1.35 L-2.1 -3.25 Q-1.95 -3.7 -1.4 -4.5 L-1.3 -4.35 -1.25 -4.3 -1.35 -4.0 -1.45 -3.85 -1.45 -3.85 -1.4 -4.1 -1.5 -4.05 Q-1.5 -4.0 -1.6 -3.95 L-1.6 -4.1 Q-1.75 -3.95 -2.05 -2.85 -2.35 -1.85 -2.35 -1.65 L-2.35 -1.55 -2.3 -1.5 Q-2.25 -1.6 -2.25 -1.7 L-2.05 -1.75 -2.15 -1.2 Q-2.2 -0.9 -2.4 -0.7 -2.55 -0.55 -2.6 -0.2 -2.6 -0.05 -2.65 0.1 L-3.0 0.15 -2.6 0.25 -2.8 0.5 M1.25 -6.05 L1.45 -5.95 1.45 -5.9 Q1.05 -4.05 1.05 -3.2 L1.1 -2.2 1.25 -1.1 1.3 -0.7 Q1.45 0.2 1.6 0.7 L1.6 0.75 1.6 1.0 Q1.55 1.1 1.45 1.1 L1.1 1.05 0.95 1.05 -0.3 0.95 Q-0.2 0.85 -0.2 0.75 L0.7 0.85 1.05 0.8 1.25 0.75 Q1.0 0.55 0.25 0.3 -0.6 -0.05 -0.95 -0.05 L-1.9 0.0 -1.9 -0.2 -1.85 -0.75 Q-1.85 -1.0 -1.75 -1.4 L-1.6 -1.9 -1.35 -2.05 -1.25 -1.95 -1.15 -1.9 -0.95 -2.05 Q-0.75 -2.2 -0.5 -2.2 -0.2 -2.2 -0.05 -2.0 0.1 -1.7 0.25 -1.6 0.3 -1.8 0.35 -1.85 0.4 -1.75 0.45 -1.75 L0.5 -1.85 0.4 -2.15 0.45 -2.3 0.5 -2.25 Q0.5 -2.2 0.55 -2.05 L0.6 -2.1 Q0.5 -2.25 0.5 -2.65 L0.55 -3.0 0.6 -2.95 0.65 -2.8 Q0.7 -2.8 0.7 -2.85 L0.7 -2.95 Q0.7 -3.3 0.75 -3.85 0.9 -4.75 1.25 -6.05 M0.35 -1.0 L0.55 -0.75 0.75 -0.35 0.9 0.0 1.1 0.25 1.1 0.15 0.9 -1.0 Q0.75 -1.65 0.75 -2.05 L0.35 -1.0 M-1.95 0.4 L-2.05 0.7 -2.3 0.65 -2.3 0.55 Q-2.3 0.45 -2.25 0.35 L-1.95 0.4 M-2.4 4.1 L-2.4 4.2 -2.45 4.3 -2.6 4.25 -2.95 4.0 -2.9 3.8 -2.7 3.95 -2.4 4.1" fill="#52456d" fill-rule="evenodd" stroke="none"/>
    <path d="M-2.9 0.95 L-2.75 0.5 -2.3 0.65 -2.05 0.7 -0.3 0.95 0.95 1.05 1.1 1.05 0.95 1.15 Q0.9 1.15 0.9 1.3 0.9 1.5 -0.2 1.5 L-1.3 1.35 -1.75 1.5 -2.0 1.5 -2.0 1.35 -2.1 1.4 -2.15 1.45 -2.25 1.45 Q-2.25 1.4 -2.2 1.3 L-2.3 1.25 -2.25 1.1 -2.4 1.1 -2.9 0.95 M-1.0 -5.0 Q-0.15 -6.15 0.4 -6.15 L0.6 -6.2 0.8 -6.2 1.25 -6.05 Q0.9 -4.75 0.75 -3.85 L0.75 -3.75 0.5 -3.75 0.45 -3.85 0.4 -3.85 Q0.35 -3.85 0.3 -3.8 L0.25 -3.75 Q0.1 -3.75 -0.2 -4.25 -0.55 -4.8 -0.7 -4.9 L-0.75 -4.85 -0.85 -4.8 Q-0.95 -4.8 -1.0 -5.0 M-1.3 2.2 L-1.2 2.15 -0.25 2.1 0.3 2.15 0.35 2.15 0.65 2.25 0.45 2.65 Q0.35 2.65 0.05 3.0 -0.25 3.35 -0.55 3.35 L-0.65 3.35 -0.7 3.3 -1.0 3.25 -1.25 3.25 Q-1.55 3.25 -1.6 3.35 -1.6 3.45 -1.8 3.45 L-2.15 3.5 Q-2.25 3.5 -2.3 3.45 L-2.3 3.3 -2.4 3.3 -2.45 3.2 -2.4 3.0 -2.45 2.7 -2.4 2.4 -2.4 2.3 -2.45 2.25 -2.35 2.25 -1.4 2.2 -1.3 2.2" fill="#322b43" fill-rule="evenodd" stroke="none"/>
    <path d="M1.45 -5.9 L1.95 -5.55 Q2.35 -5.25 2.6 -5.0 2.85 -4.7 3.0 -4.05 L3.1 -3.3 2.8 -3.4 2.75 -3.3 Q2.6 -3.35 2.45 -3.55 2.35 -3.75 2.1 -3.85 L2.0 -3.65 1.95 -3.5 Q1.95 -3.35 2.05 -3.3 L1.9 -3.3 Q1.8 -3.3 1.8 -3.2 L1.85 -3.0 1.95 -2.8 1.85 -2.6 Q1.7 -2.7 1.7 -2.85 1.6 -2.8 1.6 -2.6 L1.5 -2.7 1.5 -2.75 Q1.4 -2.75 1.35 -2.65 1.35 -2.6 1.25 -2.6 L1.1 -2.2 1.05 -3.2 Q1.05 -4.05 1.45 -5.9 M-2.45 4.3 L-2.0 4.35 -2.0 4.4 -2.05 4.45 Q-2.1 4.5 -2.0 4.65 L-2.1 4.7 -2.25 4.75 Q-2.35 4.75 -2.6 4.45 L-2.55 4.4 Q-2.5 4.4 -2.45 4.3" fill="#0c1020" fill-rule="evenodd" stroke="none"/>
    <path d="M3.1 -3.3 L3.1 -2.95 Q3.1 -1.85 2.75 -0.85 L2.5 -1.15 Q2.7 -1.45 2.45 -1.45 2.45 -1.45 2.35 -1.15 L2.2 -0.65 2.15 -0.85 2.05 -0.85 2.25 -1.05 Q2.3 -1.15 2.3 -1.35 L2.3 -1.55 Q2.25 -1.6 2.15 -1.6 2.05 -1.6 2.05 -1.5 L2.0 -1.35 2.0 -1.4 Q2.0 -1.45 1.9 -1.5 L1.9 -1.2 Q1.9 -1.05 1.75 -1.0 1.7 -1.05 1.7 -1.25 L1.7 -1.45 1.6 -1.45 1.55 -1.25 1.5 -1.15 1.5 -1.25 1.4 -1.25 1.4 -0.85 1.5 -0.7 1.45 -0.6 1.4 -0.6 Q1.4 -0.7 1.3 -0.7 L1.25 -1.1 1.1 -2.2 1.25 -2.6 Q1.35 -2.6 1.35 -2.65 1.4 -2.75 1.5 -2.75 L1.5 -2.7 1.6 -2.6 Q1.6 -2.8 1.7 -2.85 1.7 -2.7 1.85 -2.6 L1.95 -2.8 1.85 -3.0 1.8 -3.2 Q1.8 -3.3 1.9 -3.3 L2.05 -3.3 Q1.95 -3.35 1.95 -3.5 L2.0 -3.65 2.1 -3.85 Q2.35 -3.75 2.45 -3.55 2.6 -3.35 2.75 -3.3 L2.8 -3.4 3.1 -3.3 M-0.05 4.55 L-0.65 5.25 Q-1.25 5.85 -1.75 5.85 L-2.1 5.8 -2.3 5.55 -2.35 5.55 -2.85 4.8 Q-3.15 4.4 -3.15 3.95 L-3.1 3.8 -2.95 4.0 -2.95 4.05 Q-2.95 4.35 -2.7 4.8 -2.6 4.75 -2.6 4.6 L-2.6 4.45 Q-2.35 4.75 -2.25 4.75 L-2.1 4.7 -2.0 4.65 -2.0 4.85 -2.05 4.85 -2.05 5.1 -2.1 5.15 -2.15 5.25 -2.15 5.4 Q-1.9 5.5 -1.7 5.5 -1.4 5.5 -0.85 5.0 -0.3 4.5 -0.2 4.5 -0.15 4.5 -0.05 4.55 M2.2 -2.05 L2.15 -1.9 2.2 -1.8 Q2.25 -1.75 2.3 -1.75 2.45 -1.75 2.45 -1.85 L2.45 -1.95 Q2.4 -1.95 2.35 -2.05 L2.2 -2.05 M-2.05 4.85 L-2.1 4.8 -2.1 4.85 -2.05 4.85" fill="#131931" fill-rule="evenodd" stroke="none"/>
    <path d="M1.55 1.15 L1.5 1.25 Q1.35 1.4 1.15 1.35 L1.15 1.65 1.05 1.9 0.75 1.95 0.3 1.9 -0.65 1.85 -1.55 1.95 -1.95 2.0 -2.7 2.1 -2.65 2.0 -2.6 1.85 -2.6 1.85 -2.7 1.9 -2.8 2.0 -2.8 2.0 Q-2.8 1.85 -2.75 1.75 L-2.6 1.55 -2.85 1.35 -2.95 1.3 -2.9 0.95 -2.4 1.1 -2.25 1.1 -2.3 1.25 -2.2 1.3 Q-2.25 1.4 -2.25 1.45 L-2.15 1.45 -2.1 1.4 -2.0 1.35 -2.0 1.5 -1.75 1.5 -1.3 1.35 -0.2 1.5 Q0.9 1.5 0.9 1.3 0.9 1.15 0.95 1.15 L1.1 1.05 1.45 1.1 Q1.55 1.1 1.6 1.0 L1.55 1.15 M-2.75 2.65 L-2.7 2.25 -2.45 2.25 -2.4 2.3 -2.4 2.4 -2.45 2.7 -2.4 3.0 -2.45 3.2 -2.4 3.3 -2.3 3.3 -2.3 3.45 Q-2.25 3.5 -2.15 3.5 L-1.8 3.45 Q-1.6 3.45 -1.6 3.35 -1.55 3.25 -1.25 3.25 L-1.0 3.25 -0.7 3.3 -0.65 3.35 -0.55 3.35 Q-0.25 3.35 0.05 3.0 0.35 2.65 0.45 2.65 L0.65 2.25 0.85 2.3 Q0.85 2.85 0.65 3.35 0.35 3.95 -0.1 3.95 -0.45 4.0 -0.65 3.8 L-0.6 3.65 Q-0.65 3.6 -0.7 3.6 -0.75 3.6 -0.85 3.7 L-0.9 3.65 Q-0.95 3.65 -1.0 3.75 L-1.15 3.75 Q-1.15 3.6 -1.3 3.6 -1.4 3.6 -1.55 3.85 -1.65 4.0 -1.9 4.05 L-2.3 4.1 -2.4 4.1 -2.7 3.95 -2.9 3.8 -2.95 3.75 -2.85 3.5 -2.7 3.2 Q-2.8 3.1 -2.75 3.0 -2.65 2.9 -2.65 2.8 -2.65 2.7 -2.75 2.65 M-1.4 -4.5 L-1.1 -4.9 -1.0 -5.0 Q-0.95 -4.8 -0.85 -4.8 L-0.75 -4.85 -0.7 -4.9 Q-0.55 -4.8 -0.2 -4.25 0.1 -3.75 0.25 -3.75 L0.3 -3.8 Q0.35 -3.85 0.4 -3.85 L0.45 -3.85 0.5 -3.75 0.75 -3.75 0.75 -3.85 Q0.7 -3.3 0.7 -2.95 L0.7 -2.85 Q0.7 -2.8 0.65 -2.8 L0.6 -2.95 0.55 -3.0 0.5 -2.65 Q0.5 -2.25 0.6 -2.1 L0.55 -2.05 Q0.5 -2.2 0.5 -2.25 L0.45 -2.3 0.4 -2.15 0.5 -1.85 0.45 -1.75 Q0.4 -1.75 0.35 -1.85 0.3 -1.8 0.25 -1.6 0.1 -1.7 -0.05 -2.0 -0.2 -2.2 -0.5 -2.2 -0.75 -2.2 -0.95 -2.05 L-1.15 -1.9 -1.25 -1.95 -1.35 -2.05 -1.6 -1.9 -1.7 -1.85 Q-1.9 -1.75 -2.05 -1.75 L-2.25 -1.7 Q-2.25 -1.6 -2.3 -1.5 L-2.35 -1.55 -2.35 -1.65 Q-2.35 -1.85 -2.05 -2.85 -1.75 -3.95 -1.6 -4.1 L-1.6 -3.95 Q-1.5 -4.0 -1.5 -4.05 L-1.4 -4.1 -1.45 -3.85 -1.45 -3.85 -1.35 -4.0 -1.25 -4.3 -1.3 -4.35 -1.4 -4.5 M-1.9 0.0 L-0.95 -0.05 Q-0.6 -0.05 0.25 0.3 1.0 0.55 1.25 0.75 L1.05 0.8 0.7 0.85 -0.2 0.75 -1.95 0.4 -2.25 0.35 -2.6 0.25 -3.0 0.15 -2.65 0.1 -2.5 0.05 -1.9 0.0 M0.35 -1.0 L0.75 -2.05 Q0.75 -1.65 0.9 -1.0 L1.1 0.15 1.1 0.25 0.9 0.0 0.75 -0.35 0.55 -0.75 0.35 -1.0" fill="#423858" fill-rule="evenodd" stroke="none"/>
    <path d="M2.75 -0.85 L2.7 -0.8 2.6 -0.5 Q2.2 0.55 1.55 1.15 L1.6 1.0 1.6 0.75 1.6 0.7 Q1.45 0.2 1.3 -0.7 1.4 -0.7 1.4 -0.6 L1.45 -0.6 1.5 -0.7 1.4 -0.85 1.4 -1.25 1.5 -1.25 1.5 -1.15 1.55 -1.25 1.6 -1.45 1.7 -1.45 1.7 -1.25 Q1.7 -1.05 1.75 -1.0 1.9 -1.05 1.9 -1.2 L1.9 -1.5 Q2.0 -1.45 2.0 -1.4 L2.0 -1.35 2.05 -1.5 Q2.05 -1.6 2.15 -1.6 2.25 -1.6 2.3 -1.55 L2.3 -1.35 Q2.3 -1.15 2.25 -1.05 L2.05 -0.85 2.15 -0.85 2.2 -0.65 2.35 -1.15 Q2.45 -1.45 2.45 -1.45 2.7 -1.45 2.5 -1.15 L2.75 -0.85 M0.35 4.15 L0.1 4.4 -0.05 4.55 Q-0.15 4.5 -0.2 4.5 -0.3 4.5 -0.85 5.0 -1.4 5.5 -1.7 5.5 -1.9 5.5 -2.15 5.4 L-2.15 5.25 -2.1 5.15 -2.05 5.1 -2.05 4.85 -2.0 4.85 -2.0 4.65 Q-2.1 4.5 -2.05 4.45 L-2.0 4.4 -2.0 4.35 -1.65 4.4 -1.05 4.35 -0.55 4.3 -0.15 4.2 0.1 4.2 0.35 4.15 M2.2 -2.05 L2.35 -2.05 Q2.4 -1.95 2.45 -1.95 L2.45 -1.85 Q2.45 -1.75 2.3 -1.75 2.25 -1.75 2.2 -1.8 L2.15 -1.9 2.2 -2.05 M-2.95 4.0 L-2.6 4.25 -2.45 4.3 Q-2.5 4.4 -2.55 4.4 L-2.6 4.45 -2.6 4.6 Q-2.6 4.75 -2.7 4.8 -2.95 4.35 -2.95 4.05 L-2.95 4.0" fill="#25305f" fill-rule="evenodd" stroke="none"/>
    <path d="M-3.1 3.8 L-2.95 3.4 -2.9 3.45 -2.85 3.5 -2.95 3.75 -2.9 3.8 -2.95 4.0 -3.1 3.8 M-2.75 0.5 L-2.8 0.5 -2.6 0.25 -2.25 0.35 Q-2.3 0.45 -2.3 0.55 L-2.3 0.65 -2.75 0.5 M-1.6 -1.9 L-1.75 -1.4 Q-1.85 -1.0 -1.85 -0.75 L-1.9 -0.2 -1.9 0.0 -2.5 0.05 -2.65 0.1 Q-2.6 -0.05 -2.6 -0.2 -2.55 -0.55 -2.4 -0.7 -2.2 -0.9 -2.15 -1.2 L-2.05 -1.75 Q-1.9 -1.75 -1.7 -1.85 L-1.6 -1.9 M-0.2 0.75 Q-0.2 0.85 -0.3 0.95 L-2.05 0.7 -1.95 0.4 -0.2 0.75 M-1.55 1.95 L-0.65 1.85 0.3 1.9 0.35 2.05 0.3 2.15 -0.25 2.1 -1.2 2.15 -1.3 2.2 -1.35 2.15 -1.55 2.1 -1.55 1.95 M-2.45 4.3 L-2.4 4.2 -2.4 4.1 -2.3 4.1 -1.9 4.05 Q-1.95 4.2 -2.0 4.2 L-2.0 4.35 -2.45 4.3" fill="#786b91" fill-rule="evenodd" stroke="none"/>
    <path d="M-2.05 4.85 L-2.1 4.85 -2.1 4.8 -2.05 4.85" fill="#b6ae96" fill-rule="evenodd" stroke="none"/>
    <path d="M1.45 -5.9 L1.95 -5.55 Q2.35 -5.25 2.6 -5.0 2.85 -4.7 3.0 -4.05 L3.1 -3.3 3.1 -2.95 Q3.1 -1.85 2.75 -0.85 L2.7 -0.8 2.6 -0.5 Q2.2 0.55 1.55 1.15 L1.5 1.25 1.35 1.55 Q1.15 1.95 1.1 2.15 L1.1 2.3 Q0.95 3.5 0.35 4.15 L0.1 4.4 -0.05 4.55 -0.65 5.25 Q-1.25 5.85 -1.75 5.85 L-2.1 5.8 -2.3 5.55 -2.35 5.55 -2.85 4.8 Q-3.15 4.4 -3.15 3.95 L-3.1 3.8 -2.95 3.4 -2.9 3.3 -2.75 2.65 -2.7 2.25 Q-3.2 2.2 -3.2 2.1 L-2.95 1.3 -2.9 0.95 -2.75 0.5 -2.8 0.5 Q-3.25 0.35 -3.25 0.25 L-2.95 -0.3 Q-2.65 -0.9 -2.55 -1.35 L-2.1 -3.25 Q-1.95 -3.7 -1.4 -4.5 L-1.1 -4.9 -1.0 -5.0 Q-0.15 -6.15 0.4 -6.15 L0.6 -6.2 0.8 -6.2 1.25 -6.05 1.45 -5.95 1.45 -5.9 M-2.95 4.0 L-2.6 4.25 -2.45 4.3 -2.0 4.35 -1.65 4.4 -1.05 4.35 -0.55 4.3 -0.15 4.2 0.1 4.2 0.35 4.15 M-3.1 3.8 L-2.95 4.0" fill="none" stroke="#000000" stroke-linecap="round" stroke-linejoin="round" stroke-opacity="0.4509804" stroke-width="0.1"/>
  </g>
</svg>
