<?xml version="1.0" encoding="UTF-8" standalone="no"?>
<svg xmlns:xlink="http://www.w3.org/1999/xlink" height="12.45px" width="6.6px" xmlns="http://www.w3.org/2000/svg">
  <g transform="matrix(1.0, 0.0, 0.0, 1.0, 3.3, 6.35)">
    <path d="M0.05 -6.15 L0.15 -6.15 0.5 -6.2 1.05 -6.3 1.5 -6.2 1.7 -6.1 1.85 -6.0 1.55 -5.4 1.25 -4.75 Q1.25 -4.55 0.85 -3.85 L0.7 -3.6 0.25 -3.5 0.25 -3.5 -0.2 -3.7 0.15 -4.05 Q0.15 -4.15 0.1 -4.2 0.0 -4.25 -0.05 -4.25 L-0.3 -4.2 -0.6 -4.15 Q-0.8 -4.15 -0.95 -4.25 L-1.05 -4.35 Q-0.65 -5.15 0.05 -6.15 M2.65 -5.2 Q2.85 -4.7 3.1 -3.8 3.25 -3.4 3.25 -3.2 L3.2 -2.3 2.55 -2.75 Q2.75 -3.65 2.75 -4.35 L2.7 -4.85 2.65 -5.2 M2.6 0.05 L2.35 0.8 2.3 0.9 Q2.25 0.95 2.25 1.0 L2.2 1.05 2.15 1.1 1.95 1.5 1.75 1.95 Q1.65 1.75 1.55 1.7 1.5 1.65 1.4 1.65 1.15 1.65 1.0 1.5 L0.95 1.45 1.1 1.1 1.15 0.95 1.55 0.1 1.7 -0.3 1.75 -0.4 1.9 -0.25 1.95 -0.25 2.0 -0.2 Q2.05 -0.2 2.05 -0.2 L2.4 -0.15 2.6 0.05 M-2.25 5.85 L-2.3 5.85 -2.35 5.75 -2.6 5.55 -2.75 5.3 -2.85 5.15 -2.95 5.0 Q-3.0 5.0 -3.1 4.8 L-3.05 4.5 -3.0 4.25 -2.9 4.4 Q-2.55 4.85 -2.15 4.9 L-2.25 5.85 M-0.25 -1.3 L-0.35 -1.1 -0.4 -0.95 -0.4 -0.95 -0.5 -0.65 -0.7 0.2 -0.7 0.35 -0.8 0.85 -0.95 1.35 -1.1 1.8 -1.1 1.7 Q-1.15 1.6 -1.15 1.6 L-1.4 1.65 -1.4 1.5 Q-1.4 1.45 -1.4 1.4 L-1.6 1.4 -1.8 1.3 -1.95 1.35 Q-1.95 1.15 -2.1 0.95 L-2.0 0.5 -2.0 0.25 -1.9 -0.15 -1.9 -0.3 -1.85 -0.5 -1.8 -1.55 -1.75 -1.5 -1.6 -1.35 -1.45 -1.45 Q-1.35 -1.55 -1.25 -1.55 -1.15 -1.55 -1.05 -1.2 L-0.7 -1.5 -0.65 -1.55 Q-0.55 -1.55 -0.45 -1.45 -0.4 -1.35 -0.25 -1.3" fill="#0e122f" fill-rule="evenodd" stroke="none"/>
    <path d="M-2.9 1.85 L-2.9 0.75 -2.7 0.5 -2.65 0.45 -2.5 0.3 -2.4 0.2 -2.05 0.25 -2.0 0.25 -2.0 0.5 -2.1 0.95 -2.15 1.15 -2.15 1.15 -2.25 1.6 -2.35 1.9 -2.85 1.85 -2.9 1.85 M-2.15 -3.15 L-2.15 -3.2 -2.05 -3.4 -1.45 -4.55 -1.4 -4.6 Q-1.4 -4.65 -1.4 -4.7 L-1.3 -4.85 Q-1.25 -4.9 -1.25 -4.95 L-1.2 -5.0 -1.15 -5.05 -1.15 -5.1 -1.1 -5.15 -1.0 -5.3 -0.85 -5.45 -0.85 -5.45 Q-0.8 -5.45 -0.8 -5.5 -0.8 -5.55 -0.45 -5.8 -0.1 -6.0 -0.1 -6.05 L-0.1 -6.1 -0.05 -6.1 Q-0.05 -6.15 0.0 -6.15 L0.05 -6.15 Q-0.65 -5.15 -1.05 -4.35 L-1.35 -3.75 Q-1.55 -3.15 -1.7 -2.45 L-1.8 -1.7 Q-1.95 -1.85 -2.0 -2.05 L-2.05 -2.55 -2.1 -2.8 -2.15 -3.15 M2.35 -2.05 L1.75 -0.4 1.7 -0.3 1.65 -0.35 1.55 -0.5 Q1.45 -0.5 1.3 -0.3 L1.05 -0.1 0.85 -0.3 Q0.8 -0.3 0.7 -0.2 0.6 -0.1 0.45 -0.05 L0.4 -0.15 0.15 -0.3 Q0.0 -0.2 -0.05 -0.2 -0.15 -0.2 -0.3 -0.4 L-0.4 -0.5 -0.4 -0.95 -0.4 -0.95 -0.35 -1.1 -0.25 -1.3 0.25 -2.7 0.55 -3.35 0.9 -3.3 Q1.4 -3.2 1.4 -3.1 L1.4 -3.05 1.35 -2.95 1.3 -2.9 1.25 -2.9 1.25 -2.85 1.3 -2.85 1.35 -2.85 1.35 -2.8 Q1.55 -2.8 2.05 -2.45 L2.2 -2.2 2.35 -2.05 M0.1 3.7 L0.05 3.75 -0.05 3.8 Q-0.3 4.0 -0.3 4.1 -0.3 4.15 -0.35 4.25 L-0.45 4.35 Q-0.9 4.85 -1.15 4.85 -1.45 4.85 -1.45 4.7 -1.45 4.5 -1.2 4.35 L-0.95 4.1 -1.0 3.95 Q-1.05 3.85 -1.1 3.85 -1.2 3.85 -1.25 3.9 L-1.5 3.95 -1.6 3.9 -1.65 3.7 -1.55 3.7 -1.55 3.65 Q-1.25 3.4 -1.25 3.35 L-1.3 3.25 Q-1.3 3.3 -1.35 3.25 L-1.45 3.25 -1.45 3.3 -1.4 3.15 -1.4 3.1 -1.35 2.9 Q-1.35 2.75 -1.1 2.4 L-1.05 2.3 Q-0.85 2.0 -0.85 1.85 -0.85 1.65 -0.7 0.95 -0.1 1.55 0.1 1.55 L0.2 1.5 0.25 1.55 Q0.35 2.05 0.55 2.05 L0.6 2.0 0.75 1.75 Q0.85 1.55 0.9 1.5 L0.4 2.75 0.3 3.0 0.1 3.7" fill="#9a5715" fill-rule="evenodd" stroke="none"/>
    <path d="M1.85 -6.0 Q2.0 -5.9 2.15 -5.9 L2.3 -5.65 Q2.45 -5.65 2.65 -5.2 L2.7 -4.85 2.75 -4.35 Q2.75 -3.65 2.55 -2.75 L2.35 -2.05 2.2 -2.2 2.05 -2.45 Q1.55 -2.8 1.35 -2.8 L1.35 -2.85 1.3 -2.85 1.25 -2.85 1.25 -2.9 1.3 -2.9 1.35 -2.95 1.4 -3.05 1.4 -3.1 Q1.4 -3.2 0.9 -3.3 L0.55 -3.35 0.7 -3.6 0.85 -3.85 Q1.25 -4.55 1.25 -4.75 L1.55 -5.4 1.85 -6.0 M-3.0 2.65 L-2.95 2.45 -2.9 1.85 -2.85 1.85 -2.35 1.9 -2.45 2.05 -2.45 2.35 -2.5 2.45 -2.5 2.5 -2.55 2.8 -2.6 2.95 -2.65 2.95 -3.0 2.65 M-2.9 0.75 L-2.9 -0.5 -2.85 -0.8 -2.8 -1.0 -2.8 -1.15 -2.65 -1.55 -2.6 -1.7 -2.4 -2.3 -2.4 -2.4 -2.35 -2.6 -2.3 -2.8 -2.25 -3.0 -2.15 -3.15 -2.1 -2.8 -2.05 -2.55 -2.0 -2.05 Q-1.95 -1.85 -1.8 -1.7 L-1.8 -1.55 -1.85 -0.5 -1.9 -0.3 -1.9 -0.15 -2.0 0.25 -2.05 0.25 -2.4 0.2 -2.5 0.3 -2.65 0.45 -2.7 0.5 -2.9 0.75 M-0.4 -0.95 L-0.4 -0.5 -0.3 -0.4 Q-0.15 -0.2 -0.05 -0.2 0.0 -0.2 0.15 -0.3 L0.4 -0.15 0.45 -0.05 Q0.6 -0.1 0.7 -0.2 0.8 -0.3 0.85 -0.3 L1.05 -0.1 1.3 -0.3 Q1.45 -0.5 1.55 -0.5 L1.65 -0.35 1.7 -0.3 1.55 0.1 1.15 0.95 1.1 1.1 0.95 1.45 0.9 1.5 Q0.85 1.55 0.75 1.75 L0.6 2.0 0.55 2.05 Q0.35 2.05 0.25 1.55 L0.2 1.5 0.1 1.55 Q-0.1 1.55 -0.7 0.95 -0.85 1.65 -0.85 1.85 -0.85 2.0 -1.05 2.3 L-1.1 2.4 Q-1.35 2.75 -1.35 2.9 L-1.4 3.1 -1.4 3.15 -1.45 3.3 -1.45 3.25 -1.35 3.25 Q-1.3 3.3 -1.3 3.25 L-1.25 3.35 Q-1.25 3.4 -1.55 3.65 L-1.55 3.7 -1.65 3.7 -1.6 3.9 -1.5 3.95 -1.25 3.9 Q-1.2 3.85 -1.1 3.85 -1.05 3.85 -1.0 3.95 L-0.95 4.1 -1.2 4.35 Q-1.45 4.5 -1.45 4.7 -1.45 4.85 -1.15 4.85 -0.9 4.85 -0.45 4.35 L-0.35 4.25 Q-0.3 4.15 -0.3 4.1 -0.3 4.0 -0.05 3.8 L0.05 3.75 0.1 3.7 0.05 3.8 -0.2 4.5 -0.35 5.1 Q-0.7 5.5 -1.05 5.5 L-1.3 5.4 -1.35 5.4 -1.35 5.35 Q-1.6 5.35 -1.8 5.15 L-2.0 4.9 -2.15 4.9 -2.1 4.55 Q-1.95 3.9 -1.7 3.25 L-1.55 2.9 -1.25 2.15 -1.15 1.95 -1.1 1.8 -0.95 1.35 -0.8 0.85 -0.7 0.35 -0.7 0.2 -0.5 -0.65 -0.4 -0.95" fill="#7f4a29" fill-rule="evenodd" stroke="none"/>
    <path d="M3.2 -2.3 L3.1 -1.6 3.1 -1.55 3.05 -1.5 3.0 -1.25 2.6 0.05 2.4 -0.15 2.05 -0.2 Q2.05 -0.2 2.0 -0.2 L1.95 -0.25 1.9 -0.25 1.75 -0.4 2.35 -2.05 2.55 -2.75 3.2 -2.3 M1.75 1.95 L1.65 2.1 1.55 2.25 1.45 2.4 1.35 2.55 1.3 2.75 1.25 2.8 1.25 2.9 1.2 3.0 1.15 3.05 1.15 3.15 1.1 3.2 1.1 3.3 1.05 3.35 1.0 3.55 0.95 3.7 0.9 3.75 0.85 3.8 0.85 3.9 0.8 4.0 0.7 4.15 Q0.6 4.3 0.6 4.35 0.6 4.45 0.3 4.75 0.05 5.05 -0.05 5.05 L-0.2 5.2 -0.35 5.35 Q-0.35 5.4 -0.45 5.5 L-0.4 5.35 -0.35 5.1 -0.2 4.5 0.05 3.8 0.1 3.7 0.3 3.0 0.4 2.75 0.9 1.5 0.95 1.45 1.0 1.5 Q1.15 1.65 1.4 1.65 1.5 1.65 1.55 1.7 1.65 1.75 1.75 1.95 M-1.05 -4.35 L-0.95 -4.25 Q-0.8 -4.15 -0.6 -4.15 L-0.3 -4.2 -0.05 -4.25 Q0.0 -4.25 0.1 -4.2 0.15 -4.15 0.15 -4.05 L-0.2 -3.7 0.25 -3.5 0.25 -3.5 0.7 -3.6 0.55 -3.35 0.25 -2.7 -0.25 -1.3 Q-0.4 -1.35 -0.45 -1.45 -0.55 -1.55 -0.65 -1.55 L-0.7 -1.5 -1.05 -1.2 Q-1.15 -1.55 -1.25 -1.55 -1.35 -1.55 -1.45 -1.45 L-1.6 -1.35 -1.75 -1.5 -1.8 -1.55 -1.8 -1.7 -1.7 -2.45 Q-1.55 -3.15 -1.35 -3.75 L-1.05 -4.35 M-1.1 1.8 L-1.15 1.95 -1.25 2.15 -1.55 2.9 -1.7 3.25 Q-1.95 3.9 -2.1 4.55 L-2.15 4.9 Q-2.55 4.85 -2.9 4.4 L-3.0 4.25 -2.95 3.95 -2.9 3.6 -2.7 3.15 -2.6 2.95 -2.55 2.8 -2.5 2.5 -2.5 2.45 -2.45 2.35 -2.45 2.05 -2.35 1.9 -2.25 1.6 -2.15 1.15 -2.15 1.15 -2.1 0.95 Q-1.95 1.15 -1.95 1.35 L-1.8 1.3 -1.6 1.4 -1.4 1.4 Q-1.4 1.45 -1.4 1.5 L-1.4 1.65 -1.15 1.6 Q-1.15 1.6 -1.1 1.7 L-1.1 1.8" fill="#161c4a" fill-rule="evenodd" stroke="none"/>
    <path d="M-0.45 5.5 L-0.7 5.75 Q-1.05 6.0 -1.15 6.0 L-1.35 6.05 -1.55 6.1 -1.55 6.05 Q-1.6 6.0 -1.6 6.05 L-1.6 6.1 -1.65 6.05 -1.75 6.05 -1.95 5.95 -2.2 5.9 -2.25 5.85 -2.15 4.9 -2.0 4.9 -1.8 5.15 Q-1.6 5.35 -1.35 5.35 L-1.35 5.4 -1.3 5.4 -1.05 5.5 Q-0.7 5.5 -0.35 5.1 L-0.4 5.35 -0.45 5.5 M-3.1 4.8 L-3.15 4.4 -3.15 4.35 -3.2 4.0 -3.25 3.9 -3.25 3.85 -3.2 3.7 -3.15 3.6 Q-3.1 3.6 -3.1 3.5 L-3.15 3.4 -3.1 3.3 -3.1 3.3 -3.05 3.05 -3.0 2.65 -2.65 2.95 -2.6 2.95 -2.7 3.15 -2.9 3.6 -2.95 3.95 -3.0 4.25 -3.05 4.5 -3.1 4.8" fill="#5e2d11" fill-rule="evenodd" stroke="none"/>
    <path d="M0.05 -6.15 L0.15 -6.15 0.5 -6.2 1.05 -6.3 1.5 -6.2 1.7 -6.1 1.85 -6.0 Q2.0 -5.9 2.15 -5.9 L2.3 -5.65 Q2.45 -5.65 2.65 -5.2 2.85 -4.7 3.1 -3.8 3.25 -3.4 3.25 -3.2 L3.2 -2.3 3.1 -1.6 3.1 -1.55 3.05 -1.5 3.0 -1.25 2.6 0.05 2.35 0.8 2.3 0.9 Q2.25 0.95 2.25 1.0 L2.2 1.05 2.15 1.1 1.95 1.5 1.75 1.95 1.65 2.1 1.55 2.25 1.45 2.4 1.35 2.55 1.3 2.75 1.25 2.8 1.25 2.9 1.2 3.0 1.15 3.05 1.15 3.15 1.1 3.2 M-3.15 4.4 L-3.15 4.35 -3.2 4.0 -3.25 3.9 -3.25 3.85 -3.2 3.7 -3.15 3.6 Q-3.1 3.6 -3.1 3.5 L-3.15 3.4 -3.1 3.3 -3.1 3.3 -3.05 3.05 -3.0 2.65 -2.95 2.45 -2.9 1.85 -2.9 0.75 -2.9 -0.5 -2.85 -0.8 -2.8 -1.0 -2.8 -1.15 -2.65 -1.55 -2.6 -1.7 -2.4 -2.3 -2.4 -2.4 -2.35 -2.6 -2.3 -2.8 -2.25 -3.0 -2.15 -3.15 -2.15 -3.2 -2.05 -3.4 -1.45 -4.55 -1.4 -4.6 Q-1.4 -4.65 -1.4 -4.7 L-1.3 -4.85 Q-1.25 -4.9 -1.25 -4.95 L-1.2 -5.0 -1.15 -5.05 -1.15 -5.1 -1.1 -5.15 -1.0 -5.3 -0.85 -5.45 -0.85 -5.45 Q-0.8 -5.45 -0.8 -5.5 -0.8 -5.55 -0.45 -5.8 -0.1 -6.0 -0.1 -6.05 L-0.1 -6.1 -0.05 -6.1 Q-0.05 -6.15 0.0 -6.15 L0.05 -6.15" fill="none" stroke="#000000" stroke-linecap="round" stroke-linejoin="round" stroke-opacity="0.4509804" stroke-width="0.1"/>
  </g>
</svg>
