<?xml version="1.0" encoding="UTF-8" standalone="no"?>
<svg xmlns:xlink="http://www.w3.org/1999/xlink" height="13.1px" width="7.1px" xmlns="http://www.w3.org/2000/svg">
  <g transform="matrix(1.0, 0.0, 0.0, 1.0, 3.55, 6.9)">
    <path d="M1.05 -6.85 L1.1 -6.85 1.45 -6.8 1.05 -5.7 0.45 -4.0 0.4 -3.85 0.25 -3.45 0.0 -2.8 -0.85 -0.15 -1.0 0.3 -1.0 0.4 -1.1 0.65 -1.25 1.5 -1.7 3.55 -1.8 4.0 -1.9 4.5 -2.05 5.05 -2.05 5.1 -2.3 5.95 Q-2.6 5.85 -2.65 5.65 L-2.5 5.05 -2.45 4.8 -2.45 4.8 -2.4 4.5 -2.25 3.75 -2.2 3.5 Q-1.9 2.3 -1.6 1.15 L-1.25 0.0 -1.05 -0.5 -0.05 -3.4 0.15 -4.0 0.15 -4.05 0.9 -6.35 1.05 -6.85 M2.2 -6.45 L2.55 -6.15 Q2.15 -5.0 1.85 -3.8 L1.8 -3.7 1.65 -3.1 1.6 -2.75 Q1.2 -1.05 0.7 0.1 L0.65 0.25 0.3 1.2 -0.5 3.35 -0.6 3.6 -0.7 3.85 -0.9 4.45 -1.05 4.8 -1.1 4.85 -1.1 4.95 -1.15 5.05 Q-1.45 5.7 -1.65 6.1 L-1.85 6.05 -1.5 5.05 -1.5 5.0 -1.3 4.55 -1.2 4.2 -1.1 3.85 -1.0 3.6 -0.95 3.5 -0.2 1.2 -0.1 1.05 0.0 0.7 0.0 0.7 0.2 0.1 1.25 -3.3 1.4 -3.85 1.4 -3.85 2.2 -6.45 M3.05 -5.2 L3.15 -4.85 3.35 -4.25 3.35 -4.25 3.05 -2.9 2.95 -2.5 2.8 -2.0 2.35 -0.7 2.0 0.1 1.9 0.45 1.1 3.5 Q0.55 4.45 0.1 5.05 L0.4 4.2 0.4 4.15 0.5 3.9 Q0.9 2.5 1.25 1.5 L1.4 1.05 1.6 0.45 1.7 0.3 1.75 0.05 2.45 -1.95 2.7 -2.8 Q3.05 -4.15 3.05 -5.2 M0.3 -6.7 Q0.55 -6.8 0.8 -6.8 L-0.3 -4.75 -0.45 -4.45 -0.55 -4.15 -0.65 -4.05 Q-1.1 -3.15 -1.35 -2.35 L-1.75 -0.8 -2.1 0.8 -2.5 2.6 -2.45 2.75 -2.4 2.85 -2.5 3.35 -2.6 3.7 -2.7 4.2 -2.7 4.25 -2.75 4.45 -2.9 5.25 -3.05 5.1 -3.25 4.75 -2.85 2.45 -2.4 0.15 -2.25 -0.5 -2.0 -1.4 Q-1.7 -2.4 -1.15 -3.6 L-0.9 -4.15 -0.85 -4.2 -0.75 -4.45 0.3 -6.7 M-1.65 -4.7 L-1.55 -4.5 -1.6 -4.3 -2.25 -2.85 -2.3 -2.6 -3.0 -0.65 -3.25 0.15 -3.2 -0.9 Q-3.1 -2.15 -2.3 -3.55 L-2.25 -3.7 -1.95 -4.2 -1.65 -4.7" fill="#2a1a1a" fill-rule="evenodd" stroke="none"/>
    <path d="M1.05 -6.85 L0.9 -6.35 0.15 -4.05 0.15 -4.0 -0.05 -3.4 Q-0.2 -3.45 -0.35 -3.65 -0.55 -3.9 -0.55 -4.05 L-0.65 -4.05 -0.55 -4.15 -0.45 -4.45 -0.3 -4.75 0.8 -6.8 0.8 -6.8 1.05 -6.85 M-1.6 1.15 Q-1.9 2.3 -2.2 3.5 L-2.35 3.45 -2.35 3.45 Q-2.4 3.4 -2.5 3.35 L-2.5 3.35 -2.4 2.85 -2.45 2.75 -2.5 2.6 -2.1 0.8 -1.6 1.15 M-2.45 4.8 L-2.45 4.8 -2.5 5.05 -2.65 5.65 -2.65 5.65 -2.9 5.25 -2.75 4.45 -2.65 4.6 -2.6 4.65 -2.5 4.75 -2.45 4.8 M2.55 -6.15 L2.8 -5.75 3.05 -5.2 Q3.05 -4.15 2.7 -2.8 L2.45 -2.8 2.45 -3.6 2.3 -3.55 2.15 -3.5 Q2.1 -3.5 2.0 -3.6 L1.85 -3.7 1.8 -3.7 1.85 -3.8 Q2.15 -5.0 2.55 -6.15 M0.1 5.05 Q-0.75 6.1 -1.45 6.1 L-1.65 6.1 Q-1.45 5.7 -1.15 5.05 L-0.85 5.1 Q-0.5 5.1 0.05 4.6 L0.4 4.15 0.4 4.2 0.1 5.05 M0.7 0.1 L1.2 -0.4 Q1.6 -0.4 1.6 -0.15 1.55 0.15 1.7 0.3 L1.6 0.45 1.4 1.05 1.25 1.5 Q0.9 2.5 0.5 3.9 L-0.35 3.65 -0.6 3.6 -0.5 3.35 0.3 1.2 0.65 0.25 0.7 0.1 M-1.65 -4.7 L-1.3 -5.3 -0.95 -5.75 -1.55 -4.5 -1.65 -4.7 M-3.25 0.15 L-3.0 -0.65 -2.95 -0.4 Q-2.9 -0.1 -2.75 0.1 -2.95 1.05 -3.1 2.65 L-3.35 4.65 Q-3.45 4.3 -3.45 3.95 -3.45 2.9 -3.4 1.75 L-3.25 0.15" fill="#3c1f1f" fill-rule="evenodd" stroke="none"/>
    <path d="M-2.3 5.95 L-2.05 5.1 -2.05 5.05 -2.0 5.05 -2.0 5.05 -1.65 5.1 -1.5 5.05 -1.85 6.05 -2.3 5.95 M-1.7 3.55 L-1.25 1.5 -1.2 1.5 -1.05 1.45 -0.95 1.45 -0.9 1.5 -0.7 1.55 Q-0.65 1.55 -0.4 1.35 L-0.2 1.2 -0.95 3.5 -1.0 3.6 -1.35 3.35 -1.35 3.35 -1.5 3.45 -1.65 3.55 -1.7 3.55 M0.4 -3.85 L0.45 -4.0 1.05 -5.7 1.45 -6.8 Q1.85 -6.75 2.2 -6.45 L1.4 -3.85 1.4 -3.85 1.3 -3.75 0.95 -3.55 Q0.75 -3.55 0.55 -3.7 L0.4 -3.85 M3.35 -4.25 L3.35 -4.2 Q3.35 -4.0 3.4 -3.8 L3.5 -3.5 Q3.5 -3.2 3.4 -2.7 L3.3 -2.65 2.95 -2.5 3.05 -2.9 3.35 -4.25 M2.55 0.25 Q2.2 1.15 1.8 2.1 L1.1 3.5 1.9 0.45 2.15 0.4 2.55 0.25 M0.3 -6.7 L-0.75 -4.45 Q-0.9 -4.45 -1.05 -4.6 L-1.15 -4.8 Q-0.7 -5.65 -0.2 -6.4 L0.3 -6.7 M-2.4 0.15 L-2.85 2.45 -3.25 4.75 -3.35 4.65 -3.1 2.65 Q-2.95 1.05 -2.75 0.1 L-2.7 -0.35 -2.65 -0.5 -2.65 -0.3 Q-2.65 -0.15 -2.45 0.1 L-2.4 0.15" fill="#775f3c" fill-rule="evenodd" stroke="none"/>
    <path d="M-0.05 -3.4 L-1.05 -0.5 -1.25 0.0 -1.6 1.15 -2.1 0.8 -1.75 -0.8 -1.35 -2.35 Q-1.1 -3.15 -0.65 -4.05 L-0.55 -4.05 Q-0.55 -3.9 -0.35 -3.65 -0.2 -3.45 -0.05 -3.4 M-2.2 3.5 L-2.25 3.75 -2.4 3.75 -2.55 3.7 -2.6 3.7 -2.5 3.35 -2.5 3.35 Q-2.4 3.4 -2.35 3.45 L-2.35 3.45 -2.2 3.5 M-2.4 4.5 L-2.45 4.8 -2.5 4.75 -2.6 4.65 -2.65 4.6 -2.75 4.45 -2.7 4.25 -2.6 4.35 -2.5 4.45 -2.4 4.5 M1.8 -3.7 L1.85 -3.7 2.0 -3.6 Q2.1 -3.5 2.15 -3.5 L2.3 -3.55 2.45 -3.6 2.45 -2.8 2.7 -2.8 2.45 -1.95 1.75 0.05 1.7 0.3 Q1.55 0.15 1.6 -0.15 1.6 -0.4 1.2 -0.4 L0.7 0.1 Q1.2 -1.05 1.6 -2.75 L1.65 -3.1 1.8 -3.7 M0.5 3.9 L0.4 4.15 0.05 4.6 Q-0.5 5.1 -0.85 5.1 L-1.15 5.05 -1.1 4.95 -1.1 4.85 -1.05 4.8 -0.95 4.8 -0.5 4.65 -0.4 4.6 Q0.05 4.35 0.05 4.05 0.05 4.0 -0.1 3.9 L-0.15 3.9 Q-0.25 3.8 -0.3 3.8 L-0.4 3.85 -0.45 3.9 -0.5 3.9 -0.7 3.85 -0.6 3.6 -0.35 3.65 0.5 3.9 M-1.55 -4.5 L-0.95 -5.75 Q-0.55 -6.15 -0.2 -6.4 -0.7 -5.65 -1.15 -4.8 L-1.4 -4.3 -1.4 -4.3 Q-1.9 -3.25 -2.25 -2.15 -2.5 -1.35 -2.65 -0.5 L-2.7 -0.35 -2.75 0.1 Q-2.9 -0.1 -2.95 -0.4 L-3.0 -0.65 -2.3 -2.6 -2.25 -2.85 -1.6 -4.3 -1.55 -4.5" fill="#521f1f" fill-rule="evenodd" stroke="none"/>
    <path d="M-2.05 5.05 L-1.9 4.5 -1.9 4.5 -1.75 4.55 -1.7 4.6 -1.6 4.6 -1.3 4.55 -1.5 5.0 -1.5 5.05 -1.65 5.1 -2.0 5.05 -2.0 5.05 -2.05 5.05 M-1.8 4.0 L-1.7 3.55 -1.65 3.55 -1.5 3.45 -1.35 3.35 -1.35 3.35 -1.0 3.6 -1.1 3.85 -1.2 4.2 -1.55 4.1 -1.8 4.0 M-1.25 1.5 L-1.1 0.65 -1.0 0.4 -0.65 0.6 -0.1 0.7 0.0 0.7 0.0 0.7 -0.1 1.05 -0.2 1.2 -0.4 1.35 Q-0.65 1.55 -0.7 1.55 L-0.9 1.5 -0.95 1.45 -1.05 1.45 -1.2 1.5 -1.25 1.5 M-0.85 -0.15 L0.0 -2.8 0.25 -3.45 0.4 -3.85 0.55 -3.7 Q0.75 -3.55 0.95 -3.55 L1.3 -3.75 1.4 -3.85 1.25 -3.3 0.2 0.1 -0.05 0.15 -0.15 0.05 Q-0.15 0.0 -0.2 0.0 L-0.5 0.05 Q-0.75 0.0 -0.85 -0.15 M3.4 -2.7 Q3.3 -2.05 3.0 -1.15 L2.55 0.25 2.15 0.4 1.9 0.45 2.0 0.1 2.35 -0.7 2.8 -2.0 2.95 -2.5 3.3 -2.65 3.4 -2.7 M-0.75 -4.45 L-0.85 -4.2 -0.9 -4.15 -1.15 -3.6 Q-1.7 -2.4 -2.0 -1.4 L-2.25 -0.5 -2.4 0.15 -2.45 0.1 Q-2.65 -0.15 -2.65 -0.3 L-2.65 -0.5 Q-2.5 -1.35 -2.25 -2.15 -1.9 -3.25 -1.4 -4.3 L-1.4 -4.3 -1.15 -4.8 -1.05 -4.6 Q-0.9 -4.45 -0.75 -4.45" fill="#a37938" fill-rule="evenodd" stroke="none"/>
    <path d="M-1.9 4.5 L-1.8 4.0 -1.55 4.1 -1.2 4.2 -1.3 4.55 -1.6 4.6 -1.7 4.6 -1.75 4.55 -1.9 4.5 -1.9 4.5 M-1.0 0.4 L-1.0 0.3 -0.85 -0.15 Q-0.75 0.0 -0.5 0.05 L-0.2 0.0 Q-0.15 0.0 -0.15 0.05 L-0.05 0.15 0.2 0.1 0.0 0.7 -0.1 0.7 -0.65 0.6 -1.0 0.4" fill="#c99545" fill-rule="evenodd" stroke="none"/>
    <path d="M-2.25 3.75 L-2.4 4.5 -2.5 4.45 -2.6 4.35 -2.7 4.25 -2.7 4.2 -2.6 3.7 -2.55 3.7 -2.4 3.75 -2.25 3.75 M-1.05 4.8 L-0.9 4.45 -0.7 3.85 -0.5 3.9 -0.45 3.9 -0.4 3.85 -0.3 3.8 Q-0.25 3.8 -0.15 3.9 L-0.1 3.9 Q0.05 4.0 0.05 4.05 0.05 4.35 -0.4 4.6 L-0.5 4.65 -0.95 4.8 -1.05 4.8" fill="#742c2c" fill-rule="evenodd" stroke="none"/>
    <path d="M1.45 -6.8 L1.1 -6.85 1.05 -6.85 0.8 -6.8 Q0.55 -6.8 0.3 -6.7 L-0.2 -6.4 Q-0.55 -6.15 -0.95 -5.75 L-1.3 -5.3 -1.65 -4.7 -1.95 -4.2 -2.25 -3.7 -2.3 -3.55 Q-3.1 -2.15 -3.2 -0.9 L-3.25 0.15 -3.4 1.75 Q-3.45 2.9 -3.45 3.95 -3.45 4.3 -3.35 4.65 L-3.25 4.75 -3.05 5.1 -2.9 5.25 -2.65 5.65 -2.65 5.65 Q-2.6 5.85 -2.3 5.95 L-1.85 6.05 -1.65 6.1 -1.45 6.1 Q-0.75 6.1 0.1 5.05 0.55 4.45 1.1 3.5 L1.8 2.1 Q2.2 1.15 2.55 0.25 L3.0 -1.15 Q3.3 -2.05 3.4 -2.7 3.5 -3.2 3.5 -3.5 L3.4 -3.8 Q3.35 -4.0 3.35 -4.2 L3.35 -4.25 3.35 -4.25 3.15 -4.85 3.05 -5.2 2.8 -5.75 2.55 -6.15 2.2 -6.45 Q1.85 -6.75 1.45 -6.8 M0.8 -6.8 L0.8 -6.8 Z" fill="none" stroke="#000000" stroke-linecap="round" stroke-linejoin="round" stroke-opacity="0.4509804" stroke-width="0.1"/>
  </g>
</svg>
