<?xml version="1.0" encoding="UTF-8" standalone="no"?>
<svg xmlns:xlink="http://www.w3.org/1999/xlink" height="18.4px" width="15.05px" xmlns="http://www.w3.org/2000/svg">
  <g transform="matrix(1.0, 0.0, 0.0, 1.0, 7.15, 7.45)">
    <path d="M-1.2 -6.25 Q-0.95 -6.1 -0.65 -6.0 L-0.05 -5.9 Q0.2 -5.85 0.45 -5.7 L0.95 -5.5 1.05 -5.55 0.9 -5.85 0.7 -6.15 1.2 -6.15 1.25 -5.7 1.6 -5.65 Q1.5 -5.3 1.3 -5.0 L1.9 -4.6 2.05 -5.4 Q2.15 -5.9 2.0 -6.2 2.3 -6.4 2.65 -6.55 L3.1 -5.65 2.9 -5.8 2.5 -5.3 Q2.3 -5.0 2.3 -4.75 2.35 -4.6 2.5 -4.4 L2.7 -4.1 Q2.35 -3.55 2.15 -3.15 L1.4 -3.7 1.4 -4.15 Q1.4 -4.45 1.2 -4.55 0.7 -5.1 -0.1 -5.45 -0.45 -5.6 -0.9 -5.7 L-1.75 -5.85 -1.7 -5.85 -1.2 -6.25" fill="#302924" fill-rule="evenodd" stroke="none"/>
    <path d="M2.65 -6.55 Q2.3 -6.4 2.0 -6.2 2.15 -5.9 2.05 -5.4 L1.9 -4.6 1.3 -5.0 Q1.5 -5.3 1.6 -5.65 L1.25 -5.7 1.2 -6.15 0.7 -6.15 0.9 -5.85 1.05 -5.55 0.95 -5.5 0.45 -5.7 Q0.2 -5.85 -0.05 -5.9 L-0.65 -6.0 Q-0.95 -6.1 -1.2 -6.25 L-1.15 -6.3 -0.65 -6.75 Q-0.2 -7.05 0.6 -7.4 1.1 -7.45 1.7 -7.2 2.1 -7.0 2.65 -6.55" fill="#0f0c07" fill-rule="evenodd" stroke="none"/>
    <path d="M2.15 -3.15 Q2.35 -3.55 2.7 -4.1 L2.5 -4.4 Q2.35 -4.6 2.3 -4.75 2.3 -5.0 2.5 -5.3 L2.9 -5.8 3.1 -5.65 3.45 -5.3 Q3.25 -4.9 2.8 -4.45 L3.4 -4.45 Q3.3 -4.2 3.0 -3.85 L2.6 -3.35 Q3.15 -3.45 3.85 -3.8 L3.3 -2.85 3.1 -2.8 3.3 -2.6 3.35 -2.5 2.9 -2.5 2.75 -2.55 2.75 -2.9 Q2.7 -3.1 2.6 -3.15 2.5 -3.25 2.35 -3.2 L2.15 -3.15" fill="#3f3833" fill-rule="evenodd" stroke="none"/>
    <path d="M2.15 -3.15 L2.35 -3.2 Q2.5 -3.25 2.6 -3.15 2.7 -3.1 2.75 -2.9 L2.75 -2.55 2.65 -2.6 2.55 -2.7 Q2.5 -2.7 2.45 -2.7 L2.4 -3.1 2.0 -2.9 1.85 -2.85 2.15 -3.15" fill="#c0bca9" fill-rule="evenodd" stroke="none"/>
    <path d="M2.75 -2.55 L2.9 -2.5 Q2.95 -2.15 3.1 -1.55 3.3 -0.6 3.2 0.35 3.25 0.45 3.15 0.55 L3.0 0.7 Q2.75 0.9 2.65 1.05 L2.55 1.25 1.2 1.25 0.5 1.25 Q0.65 1.85 0.8 2.25 1.0 2.8 1.3 3.4 L1.4 3.65 1.25 4.0 0.95 4.0 0.35 2.9 0.2 2.6 Q0.0 2.2 -0.1 1.8 L-0.15 1.6 -0.35 0.75 -0.4 0.35 -0.4 -0.1 0.15 -0.25 0.35 -0.05 0.35 0.5 2.75 0.65 Q2.8 -0.7 2.6 -1.8 L2.45 -2.4 2.1 -2.35 1.8 -2.2 1.7 -2.25 2.0 -2.9 2.4 -3.1 2.45 -2.7 Q2.5 -2.7 2.55 -2.7 L2.65 -2.6 2.75 -2.55 M0.25 -2.6 L0.4 -2.55 0.5 -2.45 0.4 -2.45 -0.3 -2.4 -0.4 -1.8 -0.4 -1.6 -1.05 -2.1 -0.65 -2.15 -0.45 -2.2 -0.35 -2.45 0.25 -2.6 M-0.45 8.3 L-0.15 8.2 Q-0.2 8.8 -0.4 9.3 -0.85 8.8 -1.15 8.6 L-0.45 8.3 M-2.3 -1.55 Q-1.8 -1.9 -1.3 -2.1 L-1.2 -1.85 -1.1 -1.6 -0.55 -1.4 -0.75 -1.3 -1.05 -1.15 Q-1.25 -1.05 -1.4 -1.0 -1.55 -1.0 -1.7 -1.1 L-2.05 -1.2 -2.3 -1.55" fill="#ffffff" fill-rule="evenodd" stroke="none"/>
    <path d="M3.35 -2.5 L3.3 -2.6 Q3.6 -2.65 3.9 -2.6 L3.85 -2.25 3.45 -2.2 3.4 -2.2 3.35 -2.5" fill="#f9fcfe" fill-rule="evenodd" stroke="none"/>
    <path d="M3.3 -2.6 L3.1 -2.8 3.3 -2.85 4.0 -2.65 Q4.2 -2.7 4.5 -2.8 L5.0 -2.95 4.95 -2.2 4.9 -2.1 4.9 -2.4 4.85 -2.55 4.4 -2.65 4.45 -2.5 4.5 -2.0 4.1 -2.05 3.8 -2.15 4.25 -2.15 4.2 -2.55 3.9 -2.6 Q3.6 -2.65 3.3 -2.6" fill="#9e9996" fill-rule="evenodd" stroke="none"/>
    <path d="M3.45 -5.3 L4.05 -4.95 Q4.4 -4.75 4.5 -4.45 4.55 -4.1 5.0 -3.7 L4.8 -3.75 Q4.45 -3.15 4.0 -2.65 L3.3 -2.85 3.85 -3.8 Q3.15 -3.45 2.6 -3.35 L3.0 -3.85 Q3.3 -4.2 3.4 -4.45 L2.8 -4.45 Q3.25 -4.9 3.45 -5.3" fill="#2c2620" fill-rule="evenodd" stroke="none"/>
    <path d="M2.9 -2.5 L3.35 -2.5 3.4 -2.2 Q3.3 -1.9 3.1 -1.55 2.95 -2.15 2.9 -2.5" fill="#3c5a81" fill-rule="evenodd" stroke="none"/>
    <path d="M-1.75 -5.85 L-0.9 -5.7 Q-0.45 -5.6 -0.1 -5.45 0.7 -5.1 1.2 -4.55 1.4 -4.45 1.4 -4.15 L1.4 -3.7 2.15 -3.15 1.85 -2.85 Q0.95 -2.6 0.4 -2.55 L0.25 -2.6 0.0 -2.9 -0.25 -2.85 -0.3 -2.8 Q-0.75 -2.85 -1.05 -3.2 L0.1 -3.05 0.55 -3.1 0.95 -3.25 -0.7 -3.55 Q-0.85 -3.55 -1.0 -3.7 L-1.2 -3.95 -1.0 -4.05 -0.8 -4.1 -0.45 -3.8 0.35 -3.9 Q0.85 -3.9 1.1 -4.1 0.9 -4.25 0.65 -4.3 L-0.4 -4.65 -0.95 -4.75 -1.4 -4.7 -1.85 -4.7 -2.2 -4.9 -2.5 -5.15 -2.2 -5.45 -1.75 -5.85" fill="#4c4440" fill-rule="evenodd" stroke="none"/>
    <path d="M5.35 -3.45 Q5.8 -3.25 6.1 -2.8 L6.55 -1.9 Q6.9 -1.15 7.0 -0.2 7.1 0.45 7.15 1.55 L7.0 1.3 6.5 1.45 6.65 0.75 Q6.7 0.35 6.6 0.05 L6.5 0.0 Q6.25 0.2 5.9 0.5 L5.4 1.1 5.1 0.75 5.15 0.5 5.2 0.25 5.05 0.05 5.1 -0.15 5.4 -0.2 5.65 0.2 5.95 0.05 Q6.15 -0.05 6.2 -0.2 6.35 -0.55 6.35 -1.0 L6.15 -1.8 5.6 -2.25 5.15 -0.85 5.1 -1.05 Q5.1 -1.25 5.3 -2.25 5.45 -2.95 5.35 -3.45 M-5.5 -3.7 L-4.75 -3.9 Q-4.25 -4.0 -4.0 -4.1 L-3.75 -4.3 Q-3.4 -4.2 -2.65 -3.95 -1.95 -3.7 -1.55 -3.65 L-1.8 -4.1 -1.15 -4.05 -1.45 -4.3 Q-1.6 -4.45 -1.8 -4.5 L-2.6 -4.75 -2.7 -4.55 Q-2.7 -4.4 -2.8 -4.35 L-3.1 -4.45 -3.15 -5.0 Q-2.95 -5.05 -2.6 -5.2 L-2.5 -5.15 -2.2 -4.9 -1.85 -4.7 -1.4 -4.7 -0.95 -4.75 -0.4 -4.65 0.65 -4.3 Q0.9 -4.25 1.1 -4.1 0.85 -3.9 0.35 -3.9 L-0.45 -3.8 -0.8 -4.1 -1.0 -4.05 -1.2 -3.95 -1.0 -3.7 Q-0.85 -3.55 -0.7 -3.55 L0.95 -3.25 0.55 -3.1 0.1 -3.05 -1.05 -3.2 Q-1.7 -3.25 -2.4 -3.45 L-3.7 -3.9 -4.6 -3.85 -5.5 -3.7" fill="#3b342f" fill-rule="evenodd" stroke="none"/>
    <path d="M-0.3 -2.8 L-0.25 -2.85 0.0 -2.9 0.25 -2.6 -0.35 -2.45 -0.45 -2.2 -0.65 -2.15 -0.7 -2.4 -0.7 -2.65 -0.3 -2.8" fill="#aea5a3" fill-rule="evenodd" stroke="none"/>
    <path d="M2.0 -2.9 L1.7 -2.25 1.8 -2.2 1.9 -2.2 1.05 -2.05 0.8 -2.05 0.9 -2.45 0.5 -2.45 0.4 -2.55 Q0.95 -2.6 1.85 -2.85 L2.0 -2.9" fill="#b6cddf" fill-rule="evenodd" stroke="none"/>
    <path d="M1.8 -2.2 L2.1 -2.35 2.45 -2.4 2.6 -1.8 Q2.55 -1.45 2.25 -1.0 L2.2 -0.95 2.15 -1.05 2.1 -1.1 1.95 -1.3 1.4 -1.55 Q1.75 -1.7 2.1 -2.1 L1.9 -2.2 1.8 -2.2" fill="#d96b64" fill-rule="evenodd" stroke="none"/>
    <path d="M1.4 -1.55 L1.3 -1.5 Q1.1 -1.35 0.85 -1.0 L0.75 -0.9 0.9 -0.65 0.35 -0.05 0.3 -0.3 0.3 -0.5 0.35 -1.2 0.3 -1.9 0.3 -1.95 0.4 -1.95 1.05 -2.05 1.9 -2.2 2.1 -2.1 Q1.75 -1.7 1.4 -1.55" fill="#a34844" fill-rule="evenodd" stroke="none"/>
    <path d="M1.4 -1.55 L1.95 -1.3 1.6 -1.0 1.85 -1.05 2.15 -1.05 2.2 -0.95 2.1 -0.65 1.75 -0.6 2.2 -0.4 1.95 -0.15 1.8 -0.45 1.35 -0.1 Q1.05 -0.4 0.9 -0.65 L0.75 -0.9 0.85 -1.0 1.35 -1.0 1.0 -0.55 1.45 -0.75 1.4 -1.0 Q1.35 -1.1 1.35 -1.25 L1.3 -1.5 1.4 -1.55" fill="#c9a9b2" fill-rule="evenodd" stroke="none"/>
    <path d="M1.3 -1.5 L1.35 -1.25 Q1.35 -1.1 1.4 -1.0 L1.35 -1.0 0.85 -1.0 Q1.1 -1.35 1.3 -1.5" fill="#ad8386" fill-rule="evenodd" stroke="none"/>
    <path d="M0.3 -1.95 L0.3 -1.9 0.35 -1.2 0.3 -0.5 0.3 -0.7 0.25 -0.9 0.2 -1.2 0.2 -1.45 -0.3 -1.05 Q-0.25 -1.2 -0.3 -1.4 L-0.4 -1.8 0.3 -1.95" fill="#8a9eb2" fill-rule="evenodd" stroke="none"/>
    <path d="M-0.3 -1.05 L0.2 -1.45 0.2 -1.2 0.25 -0.9 -0.35 -0.7 -0.45 -0.95 -0.3 -1.05" fill="#adcee8" fill-rule="evenodd" stroke="none"/>
    <path d="M0.4 -1.95 L0.3 -1.95 -0.4 -1.8 -0.3 -2.4 0.4 -2.45 0.4 -1.95" fill="#fdd943" fill-rule="evenodd" stroke="none"/>
    <path d="M1.05 -2.05 L0.4 -1.95 0.4 -2.45 0.5 -2.45 0.9 -2.45 0.8 -2.05 1.05 -2.05" fill="#8cacbd" fill-rule="evenodd" stroke="none"/>
    <path d="M0.35 -0.05 L0.15 -0.25 -0.4 -0.1 Q-0.45 -0.3 -0.55 -0.55 L-0.7 -1.0 -0.45 -0.95 -0.35 -0.7 0.25 -0.9 0.3 -0.7 0.3 -0.3 0.35 -0.05" fill="#d3f0fe" fill-rule="evenodd" stroke="none"/>
    <path d="M0.35 0.5 L0.35 -0.05 0.9 -0.65 Q1.05 -0.4 1.35 -0.1 1.0 0.35 0.35 0.5" fill="#e76e6f" fill-rule="evenodd" stroke="none"/>
    <path d="M1.35 -0.1 L1.8 -0.45 1.95 -0.15 1.35 -0.1" fill="#9d858a" fill-rule="evenodd" stroke="none"/>
    <path d="M2.6 -1.8 Q2.8 -0.7 2.75 0.65 L0.35 0.5 Q1.0 0.35 1.35 -0.1 L1.95 -0.15 2.2 -0.4 2.45 -0.7 2.25 -1.0 Q2.55 -1.45 2.6 -1.8" fill="#ff9390" fill-rule="evenodd" stroke="none"/>
    <path d="M1.4 -1.0 L1.45 -0.75 1.0 -0.55 1.35 -1.0 1.4 -1.0" fill="#dad5e1" fill-rule="evenodd" stroke="none"/>
    <path d="M2.15 -1.05 L1.85 -1.05 1.6 -1.0 1.95 -1.3 2.1 -1.1 2.15 -1.05" fill="#a98488" fill-rule="evenodd" stroke="none"/>
    <path d="M3.0 0.7 L3.15 0.55 Q3.25 0.45 3.2 0.35 3.3 -0.6 3.1 -1.55 3.3 -1.9 3.4 -2.2 L3.45 -2.2 3.55 -2.2 3.6 -2.15 3.8 -2.15 4.1 -2.05 3.85 -1.6 3.65 -1.45 3.65 -1.1 3.7 -0.65 3.75 -0.45 Q3.35 0.15 3.25 0.65 L3.25 0.7 3.0 0.7" fill="#6d8eb2" fill-rule="evenodd" stroke="none"/>
    <path d="M3.9 -2.6 L4.2 -2.55 4.25 -2.15 3.8 -2.15 3.6 -2.15 3.55 -2.2 3.45 -2.2 3.85 -2.25 3.9 -2.6" fill="#a9afb2" fill-rule="evenodd" stroke="none"/>
    <path d="M3.65 -1.1 L3.65 -1.45 3.85 -1.6 4.3 -1.45 4.35 -1.35 4.4 -1.25 4.25 -1.25 3.7 -1.1 3.65 -1.1" fill="#c2a64f" fill-rule="evenodd" stroke="none"/>
    <path d="M2.2 -0.4 L1.75 -0.6 2.1 -0.65 2.2 -0.95 2.25 -1.0 2.45 -0.7 2.2 -0.4 M-4.9 -2.8 L-5.4 -2.7 -5.55 -2.95 -5.65 -3.2 -5.5 -3.7 -4.6 -3.85 -3.7 -3.9 -2.4 -3.45 Q-1.7 -3.25 -1.05 -3.2 -0.75 -2.85 -0.3 -2.8 L-0.7 -2.65 -0.8 -2.7 Q-1.25 -2.95 -1.65 -2.9 L-2.3 -2.85 -2.4 -2.35 -2.45 -1.85 -2.7 -1.7 -2.95 -1.6 Q-2.85 -2.15 -2.85 -2.35 -2.8 -2.75 -3.0 -3.05 -3.55 -2.8 -3.7 -2.4 L-4.05 -2.6 Q-4.35 -2.9 -4.9 -2.8" fill="#685f60" fill-rule="evenodd" stroke="none"/>
    <path d="M3.65 -1.1 L3.7 -1.1 4.25 -1.25 3.95 -0.95 3.7 -0.65 3.65 -1.1" fill="#798376" fill-rule="evenodd" stroke="none"/>
    <path d="M3.85 0.2 L3.75 -0.15 4.0 -0.35 4.4 -0.2 4.45 0.1 3.85 0.2" fill="#c8ae4d" fill-rule="evenodd" stroke="none"/>
    <path d="M4.0 -0.35 L3.75 -0.15 3.85 0.2 3.8 0.6 3.25 0.65 Q3.35 0.15 3.75 -0.45 L4.1 -0.4 4.0 -0.35" fill="#456792" fill-rule="evenodd" stroke="none"/>
    <path d="M4.1 -0.4 L3.75 -0.45 3.7 -0.65 3.95 -0.95 4.5 -0.85 Q4.3 -0.55 4.1 -0.4" fill="#bea861" fill-rule="evenodd" stroke="none"/>
    <path d="M5.0 -3.7 L5.35 -3.45 Q5.45 -2.95 5.3 -2.25 5.1 -1.25 5.1 -1.05 L5.15 -0.85 5.2 -0.6 Q5.75 -1.0 6.15 -1.8 L6.35 -1.0 Q6.35 -0.55 6.2 -0.2 6.15 -0.05 5.95 0.05 L5.65 0.2 5.4 -0.2 5.1 -0.15 5.05 -0.6 4.95 -1.1 4.95 -2.2 5.0 -2.95 4.5 -2.8 Q4.2 -2.7 4.0 -2.65 4.45 -3.15 4.8 -3.75 L5.0 -3.7" fill="#544e48" fill-rule="evenodd" stroke="none"/>
    <path d="M4.45 -2.5 L4.4 -2.65 4.85 -2.55 4.9 -2.4 4.85 -2.4 4.45 -2.5" fill="#c9c0a2" fill-rule="evenodd" stroke="none"/>
    <path d="M4.5 -2.0 L4.45 -2.5 4.85 -2.4 4.9 -2.4 4.9 -2.1 4.85 -2.0 4.5 -2.0" fill="#cea434" fill-rule="evenodd" stroke="none"/>
    <path d="M4.1 -2.05 L4.5 -2.0 4.85 -2.0 4.9 -2.1 4.95 -2.2 4.95 -1.1 4.75 -0.25 Q4.7 -1.15 4.5 -2.0 L4.15 -1.9 4.3 -1.45 3.85 -1.6 4.1 -2.05" fill="#6a6a6b" fill-rule="evenodd" stroke="none"/>
    <path d="M4.25 -1.25 L4.4 -1.25 4.35 -1.35 4.3 -1.45 4.15 -1.9 4.5 -2.0 Q4.7 -1.15 4.75 -0.25 L4.75 0.5 4.3 0.6 4.15 0.6 3.8 0.6 3.85 0.2 4.45 0.1 4.4 -0.2 4.0 -0.35 4.1 -0.4 Q4.3 -0.55 4.5 -0.85 L3.95 -0.95 4.25 -1.25" fill="#313b54" fill-rule="evenodd" stroke="none"/>
    <path d="M4.95 -1.1 L5.05 -0.6 5.1 -0.15 5.05 0.05 Q5.0 0.35 5.0 0.75 L4.95 1.5 Q4.7 1.8 4.35 2.6 4.05 3.35 3.75 3.7 L3.75 3.55 4.3 2.4 Q4.55 1.75 4.65 1.2 L3.8 1.3 3.25 1.35 3.35 1.15 3.55 1.2 Q3.8 0.85 4.4 0.6 L4.3 0.6 4.75 0.5 4.75 -0.25 4.95 -1.1" fill="#86888a" fill-rule="evenodd" stroke="none"/>
    <path d="M6.15 -1.8 Q5.75 -1.0 5.2 -0.6 L5.15 -0.85 5.6 -2.25 6.15 -1.8" fill="#756c63" fill-rule="evenodd" stroke="none"/>
    <path d="M7.15 1.9 L7.0 2.4 6.7 2.9 6.6 2.85 6.5 2.75 6.05 2.5 Q5.8 2.35 5.4 2.4 L5.45 2.35 6.25 2.25 Q6.75 2.15 7.15 1.9" fill="#3c3530" fill-rule="evenodd" stroke="none"/>
    <path d="M7.15 1.55 L7.15 1.9 Q6.75 2.15 6.25 2.25 L5.45 2.35 5.4 2.4 5.35 2.4 5.3 2.4 4.85 2.5 4.95 1.5 5.0 0.75 Q5.0 0.35 5.05 0.05 L5.2 0.25 5.15 0.5 5.1 0.75 5.4 1.1 5.9 0.5 Q6.25 0.2 6.5 0.0 L6.6 0.05 Q6.7 0.35 6.65 0.75 L6.5 1.45 7.0 1.3 7.15 1.55" fill="#57504b" fill-rule="evenodd" stroke="none"/>
    <path d="M3.25 0.65 L3.8 0.6 4.15 0.6 4.4 0.6 Q3.8 0.85 3.55 1.2 L3.35 1.15 3.25 0.7 3.25 0.65" fill="#a0afc1" fill-rule="evenodd" stroke="none"/>
    <path d="M4.0 1.7 L4.1 2.0 Q4.15 2.15 4.1 2.25 4.05 2.45 3.9 2.6 L3.65 2.9 3.5 2.8 4.0 1.7" fill="#968286" fill-rule="evenodd" stroke="none"/>
    <path d="M3.8 1.3 L4.65 1.2 Q4.55 1.75 4.3 2.4 L3.75 3.55 3.15 4.25 Q3.2 3.5 3.65 2.9 L3.9 2.6 Q4.05 2.45 4.1 2.25 4.15 2.15 4.1 2.0 L4.0 1.7 3.8 1.3" fill="#904246" fill-rule="evenodd" stroke="none"/>
    <path d="M5.85 10.2 L5.75 10.2 5.45 9.95 5.95 9.9 6.2 9.8 6.3 10.05 5.85 10.2 M-0.1 9.5 L-0.4 9.9 Q-0.75 9.65 -1.0 9.3 -1.1 9.1 -1.3 9.0 L-1.65 8.8 -1.65 8.45 -1.15 8.6 Q-0.85 8.8 -0.4 9.3 -0.2 8.8 -0.15 8.2 L-0.45 8.3 Q-0.3 8.0 -0.05 7.7 L0.4 7.1 0.5 7.9 Q0.35 8.15 0.2 8.7 0.1 9.3 -0.1 9.5 M-1.25 10.6 L-1.5 10.75 -1.55 10.75 -2.2 10.65 -2.3 10.35 -1.6 10.5 -1.25 10.6 -1.55 10.75 -1.25 10.6 M-2.65 10.75 Q-2.9 10.55 -3.25 10.05 L-3.65 9.5 -4.0 8.85 -3.8 8.25 -3.6 8.8 Q-3.45 8.95 -3.25 9.05 L-2.9 9.2 -2.75 8.9 -2.6 8.65 -2.3 9.1 -2.8 9.5 Q-2.85 9.7 -2.7 9.95 L-2.4 10.25 -2.65 10.75 M0.95 4.0 L1.25 4.0 1.4 3.65 1.45 3.7 1.55 3.9 1.6 4.0 Q1.5 4.3 1.1 4.25 L0.95 4.0 M4.85 2.5 L5.3 2.4 5.35 2.4 5.4 2.4 Q5.8 2.35 6.05 2.5 L5.9 2.7 4.95 3.0 5.5 2.5 4.85 2.6 4.85 2.5 M4.8 3.1 L4.4 3.5 Q4.2 3.75 4.1 3.95 3.75 5.05 3.9 5.8 L3.7 5.85 Q3.65 5.1 3.7 4.4 L3.8 4.25 4.25 3.45 4.65 2.65 4.65 2.95 4.8 3.1 M4.2 6.55 L4.55 7.1 Q4.8 7.4 4.75 7.65 4.7 8.15 4.8 8.65 L5.45 8.0 5.75 7.9 5.85 8.15 5.55 8.35 Q5.35 8.5 5.3 8.65 L5.0 9.15 4.7 9.1 Q4.5 8.85 4.4 8.25 4.25 7.6 4.1 7.35 L4.2 6.55 M0.5 4.6 L0.8 4.35 1.05 4.95 1.0 6.45 0.75 6.4 Q0.85 6.0 0.75 5.5 L0.5 4.6 M6.4 8.55 L6.6 8.05 6.85 8.65 Q7.35 8.4 7.5 8.0 L7.5 8.35 7.4 8.7 Q7.0 9.45 6.6 9.95 L6.55 9.55 6.7 9.3 Q6.8 9.1 6.8 8.95 L6.4 8.55" fill="#cee1f9" fill-rule="evenodd" stroke="none"/>
    <path d="M6.7 2.9 L6.95 3.05 6.7 3.3 6.5 2.95 5.9 2.7 6.05 2.5 6.5 2.75 6.6 2.85 6.7 2.9 M7.65 7.7 L7.8 7.95 7.8 8.05 7.4 8.95 7.05 9.6 6.7 10.2 5.85 10.2 6.3 10.05 6.2 9.8 6.45 9.7 6.55 9.55 6.6 9.95 Q7.0 9.45 7.4 8.7 L7.5 8.35 7.5 8.0 7.65 7.7 M5.45 9.95 L4.85 9.35 4.7 9.1 5.0 9.15 5.3 8.65 5.3 9.0 5.35 9.35 Q5.45 9.5 5.6 9.65 L5.95 9.9 5.45 9.95 M-0.4 9.9 Q-0.8 10.3 -1.25 10.6 L-1.6 10.5 -1.35 10.25 -1.1 9.95 Q-1.0 9.8 -1.0 9.6 L-1.0 9.3 Q-0.75 9.65 -0.4 9.9 M-1.5 10.75 L-1.8 10.9 -2.4 10.9 -2.65 10.75 -2.4 10.25 -2.3 10.35 -2.2 10.65 -1.55 10.75 -1.5 10.75 M-4.0 8.85 Q-4.1 8.65 -4.1 8.35 L-4.05 7.8 -4.0 7.65 -3.8 8.25 -4.0 8.85 M3.9 5.8 Q4.05 6.25 4.2 6.55 L4.1 7.35 4.0 7.1 3.95 6.95 3.9 6.9 3.9 6.85 3.85 6.7 Q3.6 5.95 3.5 5.05 3.5 4.7 3.7 4.4 3.65 5.1 3.7 5.85 L3.9 5.8 M5.75 7.9 L6.15 7.85 6.6 8.05 6.4 8.55 5.85 8.15 5.75 7.9 M1.65 3.95 L2.0 4.5 Q1.8 4.6 1.5 4.8 1.3 4.55 1.15 4.3 L1.1 4.25 Q1.5 4.3 1.6 4.0 L1.65 3.95 M1.05 4.95 Q1.3 5.5 1.2 6.15 L0.85 7.25 0.5 7.9 0.4 7.1 Q0.55 6.9 0.75 6.4 L1.0 6.45 1.05 4.95 M-1.65 8.45 L-1.65 8.8 -2.3 9.1 -2.6 8.65 Q-2.25 8.5 -1.65 8.45 M-1.55 10.75 L-1.8 10.9 -1.55 10.75" fill="#a8b4cb" fill-rule="evenodd" stroke="none"/>
    <path d="M6.4 3.85 L6.3 4.25 6.15 4.6 5.4 4.45 Q5.3 3.75 5.75 3.4 L5.95 3.5 Q5.7 3.55 5.6 3.85 5.55 4.0 5.6 4.35 5.95 4.2 6.05 3.9 L6.4 3.85" fill="#58524d" fill-rule="evenodd" stroke="none"/>
    <path d="M6.7 3.3 Q6.55 3.55 6.4 3.85 L6.05 3.9 6.05 3.55 5.95 3.5 5.75 3.4 4.8 3.45 Q4.65 3.55 4.5 3.8 L4.2 4.2 4.8 4.55 4.2 4.75 4.2 5.1 4.3 5.4 Q4.4 5.55 4.55 5.65 L4.85 5.8 4.7 6.1 Q4.6 6.25 4.65 6.4 4.8 6.8 5.05 7.0 5.3 7.1 5.7 7.1 6.35 6.85 6.8 6.95 6.5 7.2 6.05 7.55 L6.15 7.85 5.75 7.9 5.45 8.0 Q5.1 7.9 4.75 7.65 4.8 7.4 4.55 7.1 L4.2 6.55 Q4.05 6.25 3.9 5.8 3.75 5.05 4.1 3.95 4.2 3.75 4.4 3.5 L4.8 3.1 4.95 3.0 5.9 2.7 6.5 2.95 6.7 3.3" fill="#1c1512" fill-rule="evenodd" stroke="none"/>
    <path d="M5.95 3.5 L6.05 3.55 6.05 3.9 Q5.95 4.2 5.6 4.35 5.55 4.0 5.6 3.85 5.7 3.55 5.95 3.5" fill="#7d736b" fill-rule="evenodd" stroke="none"/>
    <path d="M4.85 2.6 L5.5 2.5 4.95 3.0 4.8 3.1 4.65 2.95 4.65 2.65 4.85 2.6" fill="#fffff1" fill-rule="evenodd" stroke="none"/>
    <path d="M3.75 3.7 Q4.05 3.35 4.35 2.6 4.7 1.8 4.95 1.5 L4.85 2.5 4.85 2.6 4.65 2.65 4.25 3.45 3.8 4.25 3.75 3.75 3.75 3.7" fill="#5a5959" fill-rule="evenodd" stroke="none"/>
    <path d="M6.15 4.6 L6.0 4.95 5.8 4.85 5.4 4.7 4.95 4.8 5.05 5.15 Q5.1 5.35 5.2 5.5 5.35 5.6 5.65 5.6 L6.15 5.6 Q6.35 5.85 6.7 6.15 L6.25 6.7 6.2 6.0 5.25 6.1 5.7 7.05 5.7 7.1 Q5.3 7.1 5.05 7.0 4.8 6.8 4.65 6.4 4.6 6.25 4.7 6.1 L4.85 5.8 4.55 5.65 Q4.4 5.55 4.3 5.4 L4.2 5.1 4.2 4.75 4.8 4.55 4.2 4.2 4.5 3.8 Q4.65 3.55 4.8 3.45 L5.75 3.4 Q5.3 3.75 5.4 4.45 L6.15 4.6" fill="#3a332f" fill-rule="evenodd" stroke="none"/>
    <path d="M5.4 4.7 L5.8 4.85 5.5 5.6 5.4 4.7" fill="#7e746c" fill-rule="evenodd" stroke="none"/>
    <path d="M6.0 4.95 Q6.05 5.25 6.15 5.6 L5.65 5.6 Q5.35 5.6 5.2 5.5 5.1 5.35 5.05 5.15 L4.95 4.8 5.4 4.7 5.5 5.6 5.8 4.85 6.0 4.95" fill="#5a544e" fill-rule="evenodd" stroke="none"/>
    <path d="M2.55 10.0 L2.05 10.05 1.35 9.95 -0.1 9.5 Q0.1 9.3 0.2 8.7 0.35 8.15 0.5 7.9 L0.65 7.7 1.6 7.6 2.55 7.4 Q3.25 7.25 3.95 6.95 L4.0 7.1 Q3.85 7.25 3.75 7.55 L3.65 8.05 3.35 8.2 3.0 8.3 1.85 8.6 0.65 8.8 1.85 8.9 2.75 8.7 3.65 8.7 Q3.35 8.9 2.75 9.05 2.05 9.2 1.85 9.3 2.2 9.4 2.75 9.3 L3.65 9.2 3.5 9.5 Q3.4 9.7 3.3 9.75 L2.9 9.9 2.55 10.0 M2.65 1.05 Q2.75 0.9 3.0 0.7 L3.25 0.7 3.35 1.15 3.25 1.35 3.2 1.35 2.9 1.35 2.75 1.2 2.7 1.15 2.65 1.05 M3.15 1.1 L3.15 0.9 2.95 0.9 2.75 1.0 3.0 1.2 Q3.15 1.2 3.15 1.1" fill="#4e4542" fill-rule="evenodd" stroke="none"/>
    <path d="M3.15 1.1 Q3.15 1.2 3.0 1.2 L2.75 1.0 2.95 0.9 3.15 0.9 3.15 1.1 M2.0 4.5 L2.3 4.45 2.7 4.4 2.65 4.7 2.5 4.95 2.3 5.15 2.05 5.25 1.7 5.0 1.5 4.8 Q1.8 4.6 2.0 4.5" fill="#fed741" fill-rule="evenodd" stroke="none"/>
    <path d="M1.2 1.25 L2.55 1.25 2.65 1.05 2.7 1.15 2.75 1.2 2.9 1.35 3.1 1.55 Q2.85 2.25 2.55 2.75 L2.5 2.5 2.55 2.1 2.7 1.3 2.2 1.35 2.4 1.6 1.95 1.65 1.55 1.65 1.1 1.6 1.75 1.4 1.2 1.25" fill="#b4caeb" fill-rule="evenodd" stroke="none"/>
    <path d="M2.55 2.1 L2.45 2.25 2.3 2.4 1.95 2.2 1.9 2.05 2.3 2.05 2.4 1.6 2.2 1.35 2.7 1.3 2.55 2.1" fill="#6688ba" fill-rule="evenodd" stroke="none"/>
    <path d="M2.3 2.4 L2.45 2.25 2.55 2.1 2.5 2.5 2.4 3.2 Q2.3 3.9 2.3 4.45 L2.0 4.5 1.65 3.95 2.0 3.25 Q2.15 3.1 2.2 2.9 L2.25 2.65 2.3 2.4" fill="#375382" fill-rule="evenodd" stroke="none"/>
    <path d="M2.4 1.6 L2.3 2.05 1.9 2.05 1.45 1.9 1.95 1.65 2.4 1.6" fill="#fed66b" fill-rule="evenodd" stroke="none"/>
    <path d="M3.45 2.75 L3.35 2.45 Q3.3 2.3 3.35 2.15 3.45 2.0 3.65 1.9 3.75 1.8 4.0 1.7 L3.5 2.8 3.45 2.75" fill="#a28a91" fill-rule="evenodd" stroke="none"/>
    <path d="M3.25 1.35 L3.8 1.3 4.0 1.7 Q3.75 1.8 3.65 1.9 3.45 2.0 3.35 2.15 3.3 2.3 3.35 2.45 L3.45 2.75 3.0 3.2 2.95 2.85 3.0 2.45 3.2 1.35 3.25 1.35" fill="#cf5f64" fill-rule="evenodd" stroke="none"/>
    <path d="M2.9 1.35 L3.2 1.35 3.0 2.45 2.45 3.5 2.4 3.2 2.5 2.5 2.55 2.75 Q2.85 2.25 3.1 1.55 L2.9 1.35" fill="#96a1b6" fill-rule="evenodd" stroke="none"/>
    <path d="M0.8 2.25 Q0.65 1.85 0.5 1.25 L1.2 1.25 1.75 1.4 1.1 1.6 1.05 1.6 1.05 2.0 0.8 2.25" fill="#3f5792" fill-rule="evenodd" stroke="none"/>
    <path d="M1.1 1.6 L1.55 1.65 1.95 1.65 1.45 1.9 1.05 2.0 1.05 1.6 1.1 1.6" fill="#fffb91" fill-rule="evenodd" stroke="none"/>
    <path d="M1.3 3.4 Q1.0 2.8 0.8 2.25 L1.05 2.0 1.45 1.9 1.9 2.05 1.95 2.2 1.9 2.35 1.15 2.35 1.25 2.65 1.75 2.65 1.6 2.85 1.6 2.9 1.55 3.0 1.45 3.05 1.6 3.1 1.65 3.15 1.3 3.4" fill="#94c5fd" fill-rule="evenodd" stroke="none"/>
    <path d="M1.95 2.2 L2.3 2.4 2.25 2.65 2.0 2.65 1.95 2.65 1.8 2.65 1.9 2.35 1.95 2.2" fill="#ffe870" fill-rule="evenodd" stroke="none"/>
    <path d="M1.9 2.35 L1.8 2.65 1.75 2.65 1.25 2.65 1.15 2.35 1.9 2.35" fill="#fffeb6" fill-rule="evenodd" stroke="none"/>
    <path d="M2.25 2.65 L2.2 2.9 1.6 2.9 1.6 2.85 1.75 2.65 1.8 2.65 1.95 2.65 2.0 2.65 2.25 2.65" fill="#708ebc" fill-rule="evenodd" stroke="none"/>
    <path d="M2.2 2.9 Q2.15 3.1 2.0 3.25 L1.7 3.15 1.65 3.15 1.6 3.1 1.45 3.05 1.55 3.0 1.6 2.9 2.2 2.9" fill="#fcda65" fill-rule="evenodd" stroke="none"/>
    <path d="M1.4 3.65 L1.3 3.4 1.65 3.15 1.7 3.15 2.0 3.25 1.65 3.95 1.6 4.0 1.55 3.9 1.45 3.7 1.4 3.65" fill="#4a75b9" fill-rule="evenodd" stroke="none"/>
    <path d="M-0.15 1.6 L-0.1 1.8 Q-0.1 2.0 -0.3 2.1 L-0.65 2.2 -0.45 1.85 -0.3 1.5 -0.85 1.55 Q-1.15 1.6 -1.3 1.8 -1.35 2.0 -1.25 2.2 -1.15 2.35 -1.0 2.45 -0.75 2.6 -0.4 2.65 L0.2 2.6 0.35 2.9 -0.2 3.25 Q-0.55 3.05 -0.9 3.0 L-1.65 2.95 Q-1.8 3.0 -2.05 3.15 L-2.4 3.3 -2.85 2.95 -3.15 2.95 -3.4 3.0 -3.6 2.65 -3.8 2.25 Q-3.95 2.05 -4.2 1.75 L-4.65 1.3 -5.45 0.45 -5.75 0.1 Q-5.9 -0.15 -5.9 -0.35 -5.95 -0.9 -5.75 -1.55 -5.5 -2.35 -5.4 -2.7 L-4.9 -2.8 -4.75 -2.3 Q-4.7 -2.0 -4.75 -1.75 L-4.9 -1.25 -5.1 -0.75 Q-4.8 -0.55 -4.55 -0.1 L-4.2 0.2 -3.8 0.4 -3.45 -0.35 -4.15 -0.35 -3.7 -0.7 -4.25 -0.9 Q-4.6 -1.0 -4.8 -1.15 L-4.0 -1.1 -4.05 -2.6 -3.7 -2.4 -3.9 -1.85 Q-3.95 -1.5 -3.8 -1.35 L-3.25 -1.45 -3.15 -1.1 -2.75 -1.25 -2.7 -0.8 -2.05 -0.9 -2.45 -0.35 -2.2 -0.25 -1.5 -0.85 Q-1.15 -0.65 -1.0 -0.45 L-1.1 0.1 -1.4 0.05 -1.25 -0.55 -1.7 -0.4 Q-1.9 -0.3 -2.0 -0.1 -1.95 0.15 -1.8 0.3 -1.6 0.45 -1.4 0.45 L-1.15 0.3 -0.9 0.1 -0.75 0.55 -1.4 0.7 -1.65 0.8 -1.9 1.05 -2.2 0.85 -2.7 1.0 -2.5 0.55 Q-2.6 0.35 -2.8 0.2 L-3.2 -0.1 -3.5 0.35 -3.7 0.85 Q-3.8 1.0 -3.7 1.2 L-3.5 1.5 -2.65 2.5 -2.55 1.6 -3.15 1.6 -2.7 1.2 -2.05 1.6 -1.8 1.3 -1.55 1.4 -1.3 1.45 -1.05 1.4 -0.8 1.25 -0.3 1.05 -0.15 1.6 M-1.75 2.05 Q-2.05 1.8 -2.35 1.65 -2.4 2.15 -2.25 2.7 -2.0 2.45 -1.75 2.05" fill="#786f76" fill-rule="evenodd" stroke="none"/>
    <path d="M-3.0 4.25 L-3.2 4.25 -3.4 3.9 Q-3.0 3.6 -2.4 3.3 L-2.05 3.15 Q-1.8 3.0 -1.65 2.95 L-0.9 3.0 Q-0.55 3.05 -0.2 3.25 L0.3 3.7 0.75 4.2 0.8 4.35 0.5 4.6 Q0.35 4.3 0.1 4.05 L-0.4 3.7 -1.65 3.35 Q-2.0 3.35 -2.3 3.5 -2.55 3.7 -2.75 3.95 L-3.0 4.25" fill="#fffffd" fill-rule="evenodd" stroke="none"/>
    <path d="M0.8 4.35 L0.75 4.2 1.15 4.3 Q1.3 4.55 1.5 4.8 L1.7 5.0 2.05 5.25 2.25 5.4 2.3 5.45 2.35 5.5 2.5 5.6 2.65 5.5 Q3.0 5.3 3.25 5.15 3.15 5.7 3.5 6.5 L3.0 6.25 Q2.7 6.15 2.45 6.15 1.9 6.2 1.2 6.15 1.3 5.5 1.05 4.95 L0.8 4.35" fill="#403834" fill-rule="evenodd" stroke="none"/>
    <path d="M0.15 5.25 L-0.3 5.15 0.35 4.9 0.05 4.35 Q-0.15 4.05 -0.45 3.95 -0.8 3.8 -1.6 3.95 -2.4 4.1 -2.75 3.95 -2.55 3.7 -2.3 3.5 -2.0 3.35 -1.65 3.35 L-0.4 3.7 0.1 4.05 Q0.35 4.3 0.5 4.6 L0.75 5.5 Q0.85 6.0 0.75 6.4 0.55 6.9 0.4 7.1 L-0.05 7.7 Q-0.3 8.0 -0.45 8.3 L-1.15 8.6 -1.65 8.45 -1.9 8.4 Q-2.0 8.1 -2.25 7.9 L-2.75 7.6 -2.3 7.55 -1.3 7.75 -0.8 7.7 Q-0.45 7.6 -0.25 7.3 -0.1 7.05 -0.1 6.7 -0.1 6.6 -0.2 6.5 L-0.35 6.4 -0.05 6.25 0.25 6.1 Q0.35 5.95 0.4 5.75 L0.4 5.3 0.15 5.25" fill="#281e1b" fill-rule="evenodd" stroke="none"/>
    <path d="M-2.9 4.75 Q-2.95 4.45 -3.0 4.25 L-2.75 3.95 Q-2.4 4.1 -1.6 3.95 -0.8 3.8 -0.45 3.95 -0.15 4.05 0.05 4.35 L0.35 4.9 -0.3 5.15 0.15 5.25 Q0.25 5.65 0.15 6.05 L-0.85 6.2 -0.55 5.4 -1.1 5.3 -1.65 5.45 -2.15 5.55 -2.0 6.25 Q-2.4 6.2 -2.7 6.0 L-2.55 5.55 -3.05 5.6 -2.95 5.3 Q-2.6 5.2 -2.6 4.7 L-2.9 4.75 M-1.9 4.55 L-2.4 4.45 -2.3 4.8 Q-2.25 5.05 -2.1 5.1 L-1.6 5.15 -1.1 5.05 -0.05 4.65 -0.3 4.35 Q-0.5 4.2 -0.65 4.1 L-1.05 4.0 -1.45 4.0 -1.4 4.05 -1.95 4.2 -1.9 4.55" fill="#534a4a" fill-rule="evenodd" stroke="none"/>
    <path d="M0.35 2.9 L0.95 4.0 1.1 4.25 1.15 4.3 0.75 4.2 0.3 3.7 -0.2 3.25 0.35 2.9 M-0.85 6.2 L-2.0 6.25 -2.15 5.55 -1.65 5.45 -1.25 6.2 -1.1 5.3 -0.55 5.4 -0.85 6.2" fill="#918c91" fill-rule="evenodd" stroke="none"/>
    <path d="M3.65 2.9 Q3.2 3.5 3.15 4.25 L3.0 4.5 2.7 4.4 2.85 3.6 2.95 2.85 3.0 3.2 3.45 2.75 3.5 2.8 3.65 2.9" fill="#ab4f55" fill-rule="evenodd" stroke="none"/>
    <path d="M-0.4 -0.1 L-0.4 0.35 -0.35 0.75 -0.7 0.65 -0.55 -0.35 -0.9 -0.35 -1.0 -0.45 Q-1.15 -0.65 -1.5 -0.85 -1.85 -1.0 -2.05 -1.2 L-1.7 -1.1 Q-1.55 -1.0 -1.4 -1.0 -1.25 -1.05 -1.05 -1.15 L-0.75 -1.3 -0.7 -1.0 -0.55 -0.55 Q-0.45 -0.3 -0.4 -0.1 M3.75 3.55 L3.75 3.7 3.75 3.75 3.2 4.55 3.0 4.5 3.15 4.25 3.75 3.55" fill="#d2c9d1" fill-rule="evenodd" stroke="none"/>
    <path d="M2.3 4.45 Q2.3 3.9 2.4 3.2 L2.45 3.5 3.0 2.45 2.95 2.85 2.85 3.6 2.7 4.4 2.3 4.45" fill="#8b909b" fill-rule="evenodd" stroke="none"/>
    <path d="M2.7 4.4 L3.0 4.5 3.2 4.55 3.2 4.6 Q2.7 4.85 2.35 5.5 L2.3 5.45 2.25 5.4 2.05 5.25 2.3 5.15 2.5 4.95 2.65 4.7 2.7 4.4" fill="#caa545" fill-rule="evenodd" stroke="none"/>
    <path d="M2.35 5.5 Q2.7 4.85 3.2 4.6 L3.2 4.75 3.2 4.9 2.65 5.5 2.5 5.6 2.35 5.5" fill="#9a7821" fill-rule="evenodd" stroke="none"/>
    <path d="M3.8 4.25 L3.7 4.4 Q3.5 4.7 3.5 5.05 L3.25 5.15 Q3.0 5.3 2.65 5.5 L3.2 4.9 3.2 4.75 3.2 4.55 3.75 3.75 3.8 4.25" fill="#747675" fill-rule="evenodd" stroke="none"/>
    <path d="M3.25 5.15 L3.5 5.05 Q3.6 5.95 3.85 6.7 L3.6 6.9 3.15 6.85 2.65 6.9 0.75 7.5 0.85 7.25 1.15 6.85 1.65 7.1 Q1.55 6.55 1.2 6.15 1.9 6.2 2.45 6.15 2.7 6.15 3.0 6.25 L3.5 6.5 Q3.15 5.7 3.25 5.15" fill="#221a16" fill-rule="evenodd" stroke="none"/>
    <path d="M0.75 7.5 L2.65 6.9 3.15 6.85 3.6 6.9 3.85 6.7 3.9 6.85 3.9 6.9 3.95 6.95 Q3.25 7.25 2.55 7.4 L1.6 7.6 0.65 7.7 0.75 7.5" fill="#39312c" fill-rule="evenodd" stroke="none"/>
    <path d="M-4.0 7.65 L-3.65 7.0 -3.5 6.65 -3.05 7.0 -3.0 6.55 -3.45 6.55 -3.15 5.75 -2.7 6.0 Q-2.4 6.2 -2.0 6.25 L-0.85 6.2 0.15 6.05 Q0.25 5.65 0.15 5.25 L0.4 5.3 0.4 5.75 Q0.35 5.95 0.25 6.1 L-0.05 6.25 -0.35 6.4 -0.2 6.5 Q-0.1 6.6 -0.1 6.7 -0.1 7.05 -0.25 7.3 -0.45 7.6 -0.8 7.7 L-1.3 7.75 -2.3 7.55 -2.75 7.6 -2.25 7.9 Q-2.0 8.1 -1.9 8.4 L-1.65 8.45 Q-2.25 8.5 -2.6 8.65 L-2.75 8.9 Q-2.9 8.75 -3.15 8.75 L-3.6 8.8 -3.8 8.25 -4.0 7.65 M-1.35 7.6 L-0.85 7.5 Q-0.55 7.4 -0.4 7.2 -0.15 6.85 -0.25 6.65 L-1.0 6.6 -1.75 6.65 -2.1 6.55 -2.2 6.85 Q-2.2 7.0 -2.15 7.15 -2.15 7.25 -2.0 7.4 L-1.75 7.55 -1.7 7.5 -1.35 7.6 M-3.45 7.8 L-3.15 7.6 -3.55 7.2 -3.45 7.8" fill="#463e3b" fill-rule="evenodd" stroke="none"/>
    <path d="M1.2 6.15 Q1.55 6.55 1.65 7.1 L1.15 6.85 0.85 7.25 1.2 6.15" fill="#584f4d" fill-rule="evenodd" stroke="none"/>
    <path d="M4.85 9.35 L3.95 9.7 Q3.3 10.0 2.55 10.0 L2.9 9.9 3.3 9.75 Q3.4 9.7 3.5 9.5 L3.65 9.2 2.75 9.3 Q2.2 9.4 1.85 9.3 2.05 9.2 2.75 9.05 3.35 8.9 3.65 8.7 L2.75 8.7 1.85 8.9 0.65 8.8 1.85 8.6 3.0 8.3 3.35 8.2 3.65 8.05 3.75 7.55 Q3.85 7.25 4.0 7.1 L4.1 7.35 Q4.25 7.6 4.4 8.25 4.5 8.85 4.7 9.1 L4.85 9.35" fill="#3d3631" fill-rule="evenodd" stroke="none"/>
    <path d="M6.7 6.15 L7.0 6.45 Q7.2 6.65 7.4 7.05 L7.65 7.7 7.5 8.0 Q7.35 8.4 6.85 8.65 L6.6 8.05 6.15 7.85 6.05 7.55 Q6.5 7.2 6.8 6.95 6.35 6.85 5.7 7.1 L5.7 7.05 6.25 6.7 6.7 6.15" fill="#2c2621" fill-rule="evenodd" stroke="none"/>
    <path d="M5.7 7.05 L5.25 6.1 6.2 6.0 6.25 6.7 5.7 7.05" fill="#5c5650" fill-rule="evenodd" stroke="none"/>
    <path d="M5.3 8.65 Q5.35 8.5 5.55 8.35 L5.85 8.15 6.4 8.55 6.8 8.95 Q6.8 9.1 6.7 9.3 L6.55 9.55 6.45 9.7 6.2 9.8 5.95 9.9 5.6 9.65 Q5.45 9.5 5.35 9.35 L5.3 9.0 5.3 8.65" fill="#352f2b" fill-rule="evenodd" stroke="none"/>
    <path d="M4.75 7.65 Q5.1 7.9 5.45 8.0 L4.8 8.65 Q4.7 8.15 4.75 7.65" fill="#ffffe0" fill-rule="evenodd" stroke="none"/>
    <path d="M-3.4 3.9 L-3.65 3.75 -3.85 2.8 -4.95 2.45 -4.6 2.3 -5.25 1.95 Q-5.6 1.75 -5.8 1.5 -6.05 1.2 -6.2 0.75 L-6.5 -0.05 Q-6.6 -0.3 -6.6 -0.6 L-6.6 -1.2 -6.8 -1.4 -7.0 -1.55 Q-6.9 -2.55 -6.4 -2.95 L-5.95 -3.3 -5.55 -3.7 -5.5 -3.7 -5.65 -3.2 -5.55 -2.95 -5.4 -2.7 Q-5.5 -2.35 -5.75 -1.55 -5.95 -0.9 -5.9 -0.35 -5.9 -0.15 -5.75 0.1 L-5.45 0.45 -4.65 1.3 -4.2 1.75 Q-3.95 2.05 -3.8 2.25 L-3.6 2.65 -3.4 3.0 -3.15 2.95 -2.85 2.95 -2.4 3.3 Q-3.0 3.6 -3.4 3.9" fill="#524949" fill-rule="evenodd" stroke="none"/>
    <path d="M-3.65 3.75 L-5.55 2.85 Q-5.9 2.7 -6.05 2.45 L-6.55 1.8 Q-6.75 1.45 -6.85 1.1 L-7.1 0.05 -7.1 -0.95 -7.0 -1.55 -6.8 -1.4 -6.6 -1.2 -6.6 -0.6 Q-6.6 -0.3 -6.5 -0.05 L-6.2 0.75 Q-6.05 1.2 -5.8 1.5 -5.6 1.75 -5.25 1.95 L-4.6 2.3 -4.95 2.45 -3.85 2.8 -3.65 3.75" fill="#19140e" fill-rule="evenodd" stroke="none"/>
    <path d="M-4.05 -2.6 L-4.0 -1.1 -4.8 -1.15 Q-4.6 -1.0 -4.25 -0.9 L-3.7 -0.7 -4.15 -0.35 -3.45 -0.35 -3.8 0.4 -4.2 0.2 -4.55 -0.1 Q-4.8 -0.55 -5.1 -0.75 L-4.9 -1.25 -4.75 -1.75 Q-4.7 -2.0 -4.75 -2.3 L-4.9 -2.8 Q-4.35 -2.9 -4.05 -2.6" fill="#a9a4b3" fill-rule="evenodd" stroke="none"/>
    <path d="M-3.75 -4.3 L-3.75 -4.45 Q-3.65 -4.8 -3.3 -4.95 L-3.15 -5.0 -3.1 -4.45 -2.8 -4.35 Q-2.7 -4.4 -2.7 -4.55 L-2.6 -4.75 -1.8 -4.5 Q-1.6 -4.45 -1.45 -4.3 L-1.15 -4.05 -1.8 -4.1 -1.55 -3.65 Q-1.95 -3.7 -2.65 -3.95 -3.4 -4.2 -3.75 -4.3" fill="#15110b" fill-rule="evenodd" stroke="none"/>
    <path d="M-0.7 -2.65 L-0.7 -2.4 -1.2 -2.3 -1.2 -2.65 -0.8 -2.7 -0.7 -2.65" fill="#f6f4fd" fill-rule="evenodd" stroke="none"/>
    <path d="M-0.7 -2.4 L-0.65 -2.15 -1.05 -2.1 -0.4 -1.6 -0.4 -1.8 -0.3 -1.4 Q-0.25 -1.2 -0.3 -1.05 L-0.45 -0.95 -0.7 -1.0 -0.75 -1.3 -0.55 -1.4 -1.1 -1.6 -1.2 -1.85 -1.3 -2.1 Q-1.8 -1.9 -2.3 -1.55 L-2.4 -1.9 Q-1.85 -2.25 -1.65 -2.9 -1.25 -2.95 -0.8 -2.7 L-1.2 -2.65 -1.2 -2.3 -0.7 -2.4" fill="#c4bbbf" fill-rule="evenodd" stroke="none"/>
    <path d="M-1.65 -2.9 Q-1.85 -2.25 -2.4 -1.9 L-2.45 -1.85 -2.4 -2.35 -2.3 -2.85 -1.65 -2.9" fill="#908b90" fill-rule="evenodd" stroke="none"/>
    <path d="M-2.4 -1.9 L-2.3 -1.55 -2.05 -1.2 Q-1.85 -1.0 -1.5 -0.85 L-2.2 -0.25 -2.45 -0.35 -2.05 -0.9 -2.7 -0.8 -2.75 -1.25 -3.15 -1.1 -3.25 -1.45 -3.8 -1.35 Q-3.95 -1.5 -3.9 -1.85 L-3.7 -2.4 Q-3.55 -2.8 -3.0 -3.05 -2.8 -2.75 -2.85 -2.35 -2.85 -2.15 -2.95 -1.6 L-2.7 -1.7 -2.45 -1.85 -2.4 -1.9" fill="#9f9aa5" fill-rule="evenodd" stroke="none"/>
    <path d="M-0.1 1.8 Q0.0 2.2 0.2 2.6 L-0.4 2.65 Q-0.75 2.6 -1.0 2.45 -1.15 2.35 -1.25 2.2 -1.35 2.0 -1.3 1.8 -1.15 1.6 -0.85 1.55 L-0.3 1.5 -0.45 1.85 -0.65 2.2 -0.3 2.1 Q-0.1 2.0 -0.1 1.8 M-1.4 0.7 L-0.75 0.55 -0.9 0.1 -1.15 0.3 -1.4 0.45 Q-1.6 0.45 -1.8 0.3 -1.95 0.15 -2.0 -0.1 -1.9 -0.3 -1.7 -0.4 L-1.25 -0.55 -1.4 0.05 -1.1 0.1 -1.0 -0.45 -0.9 -0.35 -0.55 -0.35 -0.7 0.65 -0.35 0.75 -0.3 1.05 -0.8 1.25 Q-1.05 0.75 -1.4 0.7" fill="#a39eaa" fill-rule="evenodd" stroke="none"/>
    <path d="M-0.8 1.25 L-1.05 1.4 -1.3 1.45 -1.55 1.4 -1.8 1.3 -2.05 1.6 -2.7 1.2 -3.15 1.6 -2.55 1.6 -2.65 2.5 -3.5 1.5 -3.7 1.2 Q-3.8 1.0 -3.7 0.85 L-3.5 0.35 -3.2 -0.1 -2.8 0.2 Q-2.6 0.35 -2.5 0.55 L-2.7 1.0 -2.2 0.85 -1.9 1.05 -1.65 0.8 -1.4 0.7 Q-1.05 0.75 -0.8 1.25 M-1.75 2.05 Q-2.0 2.45 -2.25 2.7 -2.4 2.15 -2.35 1.65 -2.05 1.8 -1.75 2.05" fill="#aca7b7" fill-rule="evenodd" stroke="none"/>
    <path d="M-1.1 5.05 L-1.6 5.15 -2.1 5.1 Q-2.25 5.05 -2.3 4.8 L-2.4 4.45 -1.9 4.55 Q-1.75 4.8 -1.35 4.95 -1.35 4.55 -1.4 4.05 -1.05 4.45 -1.1 5.05" fill="#99949c" fill-rule="evenodd" stroke="none"/>
    <path d="M-2.95 5.3 L-2.9 4.75 -2.6 4.7 Q-2.6 5.2 -2.95 5.3" fill="#918b91" fill-rule="evenodd" stroke="none"/>
    <path d="M-1.9 4.55 L-1.95 4.2 -1.4 4.05 Q-1.35 4.55 -1.35 4.95 -1.75 4.8 -1.9 4.55" fill="#dbd3df" fill-rule="evenodd" stroke="none"/>
    <path d="M-1.4 4.05 L-1.45 4.0 -1.05 4.0 -0.65 4.1 Q-0.5 4.2 -0.3 4.35 L-0.05 4.65 -1.1 5.05 Q-1.05 4.45 -1.4 4.05" fill="#635b5f" fill-rule="evenodd" stroke="none"/>
    <path d="M-1.1 5.3 L-1.25 6.2 -1.65 5.45 -1.1 5.3" fill="#cfc6cd" fill-rule="evenodd" stroke="none"/>
    <path d="M-1.2 6.7 L-1.6 6.65 -1.75 6.65 -1.0 6.6 -0.25 6.65 Q-0.15 6.85 -0.4 7.2 -0.55 7.4 -0.85 7.5 L-1.35 7.6 -0.95 6.7 -1.2 6.7" fill="#575050" fill-rule="evenodd" stroke="none"/>
    <path d="M-1.2 6.7 L-0.95 6.7 -1.35 7.6 -1.7 7.5 -1.2 6.7 M-1.75 6.65 L-1.6 6.65 -1.75 7.55 -2.0 7.4 Q-2.15 7.25 -2.15 7.15 -2.2 7.0 -2.2 6.85 L-2.1 6.55 -1.75 6.65" fill="#868082" fill-rule="evenodd" stroke="none"/>
    <path d="M-1.6 6.65 L-1.2 6.7 -1.7 7.5 -1.75 7.55 -1.6 6.65" fill="#bfb6b8" fill-rule="evenodd" stroke="none"/>
    <path d="M-2.7 6.0 L-3.15 5.75 -3.05 5.6 -2.55 5.55 -2.7 6.0" fill="#827c7f" fill-rule="evenodd" stroke="none"/>
    <path d="M-3.45 6.55 L-3.0 6.55 -3.05 7.0 -3.5 6.65 -3.45 6.55" fill="#827c7c" fill-rule="evenodd" stroke="none"/>
    <path d="M-3.45 7.8 L-3.55 7.2 -3.15 7.6 -3.45 7.8" fill="#736c6b" fill-rule="evenodd" stroke="none"/>
    <path d="M-3.6 8.8 L-3.15 8.75 Q-2.9 8.75 -2.75 8.9 L-2.9 9.2 -3.25 9.05 Q-3.45 8.95 -3.6 8.8" fill="#241b18" fill-rule="evenodd" stroke="none"/>
    <path d="M-1.65 8.8 L-1.3 9.0 Q-1.1 9.1 -1.0 9.3 L-1.0 9.6 Q-1.0 9.8 -1.1 9.95 L-1.35 10.25 -1.6 10.5 -2.3 10.35 -2.4 10.25 -2.7 9.95 Q-2.85 9.7 -2.8 9.5 L-2.3 9.1 -1.65 8.8" fill="#4d4644" fill-rule="evenodd" stroke="none"/>
    <path d="M-1.2 -6.25 L-1.7 -5.85 -1.75 -5.85 -2.2 -5.45 -2.5 -5.15 -2.6 -5.2 Q-2.95 -5.05 -3.15 -5.0 L-3.3 -4.95 Q-3.65 -4.8 -3.75 -4.45 L-3.75 -4.3 -4.0 -4.1 Q-4.25 -4.0 -4.75 -3.9 L-5.5 -3.7 -5.55 -3.7 -5.95 -3.3 -6.4 -2.95 Q-6.9 -2.55 -7.0 -1.55 L-7.1 -0.95 -7.1 0.05 -6.85 1.1 Q-6.75 1.45 -6.55 1.8 L-6.05 2.45 Q-5.9 2.7 -5.55 2.85 L-3.65 3.75 -3.4 3.9 -3.2 4.25 -3.0 4.25 Q-2.95 4.45 -2.9 4.75 L-2.95 5.3 -3.5 6.65 -3.65 7.0 -4.0 7.65 -4.05 7.8 -4.1 8.35 Q-4.1 8.65 -4.0 8.85 L-3.65 9.5 -3.25 10.05 Q-2.9 10.55 -2.65 10.75 L-2.4 10.9 -1.8 10.9 -1.55 10.75 -1.25 10.6 Q-0.8 10.3 -0.4 9.9 L-0.1 9.5 1.35 9.95 2.05 10.05 2.55 10.0 Q3.3 10.0 3.95 9.7 L4.85 9.35 5.45 9.95 5.75 10.2 5.85 10.2 6.7 10.2 7.05 9.6 7.4 8.95 7.8 8.05 7.8 7.95 7.65 7.7 7.4 7.05 Q7.2 6.65 7.0 6.45 L6.7 6.15 Q6.35 5.85 6.15 5.6 6.05 5.25 6.0 4.95 L6.15 4.6 6.3 4.25 6.4 3.85 Q6.55 3.55 6.7 3.3 L6.95 3.05 6.7 2.9 7.0 2.4 7.15 1.9 7.15 1.55 Q7.1 0.45 7.0 -0.2 6.9 -1.15 6.55 -1.9 L6.1 -2.8 Q5.8 -3.25 5.35 -3.45 L5.0 -3.7 Q4.55 -4.1 4.5 -4.45 4.4 -4.75 4.05 -4.95 L3.45 -5.3 3.1 -5.65 2.65 -6.55 Q2.1 -7.0 1.7 -7.2 1.1 -7.45 0.6 -7.4 -0.2 -7.05 -0.65 -6.75 L-1.15 -6.3 -1.2 -6.25 Z" fill="none" stroke="#000000" stroke-linecap="round" stroke-linejoin="round" stroke-opacity="0.4509804" stroke-width="0.1"/>
  </g>
</svg>
