<?xml version="1.0" encoding="UTF-8" standalone="no"?>
<svg xmlns:xlink="http://www.w3.org/1999/xlink" height="15.95px" width="9.7px" xmlns="http://www.w3.org/2000/svg">
  <g transform="matrix(1.0, 0.0, 0.0, 1.0, 5.35, 6.45)">
    <path d="M-1.65 -6.35 Q-1.55 -6.2 -1.7 -6.05 L-1.85 -5.9 Q-1.9 -5.85 -1.85 -5.8 L0.2 -5.7 Q1.95 -5.65 3.75 -5.65 L3.65 -5.55 0.55 -5.55 0.2 -5.55 -3.75 -5.55 Q-3.8 -5.65 -4.05 -5.8 -4.35 -6.0 -4.35 -6.15 L-4.2 -6.25 -4.0 -6.3 -2.8 -6.35 -1.65 -6.35" fill="#b4c1ca" fill-rule="evenodd" stroke="none"/>
    <path d="M4.1 -5.5 Q4.15 -5.55 4.1 -5.65 4.05 -5.75 4.0 -5.7 L3.95 -5.65 3.95 -5.55 4.0 -5.45 Q4.05 -5.45 4.1 -5.5 M-1.65 -6.35 L0.2 -6.35 0.45 -6.35 2.0 -6.3 Q2.0 -6.4 1.85 -6.35 1.7 -6.3 1.65 -6.4 L3.1 -6.3 3.7 -6.35 4.3 -6.35 Q4.25 -5.4 4.3 -3.5 L4.3 -0.7 4.15 -1.05 3.9 -1.35 3.95 -1.8 3.85 -2.25 Q3.85 -2.5 3.9 -2.7 3.95 -2.85 4.1 -2.95 4.1 -3.05 4.0 -3.15 L3.8 -3.35 3.8 -5.65 3.75 -5.65 Q1.95 -5.65 0.2 -5.7 L-1.85 -5.8 Q-1.9 -5.85 -1.85 -5.9 L-1.7 -6.05 Q-1.55 -6.2 -1.65 -6.35 M0.4 -6.05 L0.4 -6.15 0.3 -6.15 Q0.25 -6.15 0.25 -6.05 0.25 -5.9 0.3 -5.9 L0.4 -5.9 0.4 -6.05 M2.1 -5.9 Q2.2 -5.9 2.2 -6.05 2.15 -6.25 2.05 -6.15 2.0 -6.1 2.0 -6.0 2.05 -5.85 2.1 -5.9 M3.85 -5.95 L3.9 -6.05 3.85 -6.15 3.75 -6.2 3.7 -6.05 Q3.7 -5.95 3.8 -5.9 L3.85 -5.95" fill="#d6dee4" fill-rule="evenodd" stroke="none"/>
    <path d="M-5.3 -6.25 L-5.2 -6.25 -4.65 -6.3 -4.0 -6.3 -4.2 -6.25 -4.35 -6.15 Q-4.35 -6.0 -4.05 -5.8 -3.8 -5.65 -3.75 -5.55 L-4.1 -5.5 -4.45 -5.55 -4.4 -1.8 Q-4.35 0.45 -4.35 1.9 L-4.4 1.4 Q-4.5 1.15 -4.75 1.1 -4.85 1.1 -4.9 0.95 L-4.9 0.7 Q-4.9 0.55 -4.95 0.5 L-5.15 0.45 -5.15 -0.55 -5.15 -1.0 Q-5.0 -1.0 -5.0 -0.8 L-5.0 -0.5 -4.75 -0.5 -4.45 -0.7 -4.45 -2.9 -4.5 -5.15 Q-4.4 -5.45 -4.7 -5.75 L-5.0 -6.0 -5.2 -6.2 -5.3 -6.25" fill="#909ba2" fill-rule="evenodd" stroke="none"/>
    <path d="M-5.2 -2.3 L-5.3 -6.25 -5.2 -6.2 -5.0 -6.0 -4.7 -5.75 Q-4.4 -5.45 -4.5 -5.15 L-4.45 -2.9 -4.45 -0.7 -4.75 -0.5 -5.0 -0.5 -5.0 -0.8 Q-5.0 -1.0 -5.15 -1.0 L-5.15 -0.55 -5.2 -2.3" fill="#adb8c2" fill-rule="evenodd" stroke="none"/>
    <path d="M-3.75 -5.55 L0.2 -5.55 0.55 -5.55 3.65 -5.55 3.75 -5.55 3.8 -3.2 3.8 -0.85 3.8 0.3 Q3.85 2.4 3.05 4.65 3.0 4.85 2.75 5.25 2.5 5.65 2.5 5.9 L2.4 6.1 2.25 6.3 1.45 7.5 Q0.95 8.1 0.5 8.55 0.35 8.55 0.35 8.75 0.35 8.6 0.25 8.5 L0.2 8.5 -0.2 8.2 Q-3.75 5.15 -4.35 1.9 -4.35 0.45 -4.4 -1.8 L-4.45 -5.55 -4.1 -5.5 -3.75 -5.55 M0.9 -4.35 Q0.9 -4.3 0.95 -4.25 0.95 -4.15 1.0 -4.15 L1.05 -4.25 1.05 -4.35 1.0 -4.4 0.9 -4.35 M-0.55 4.35 L-0.7 4.35 -0.75 4.2 -0.7 4.1 Q-0.65 4.05 -0.55 4.1 -0.4 4.1 -0.25 4.3 L0.05 4.6 Q0.1 4.55 0.1 4.25 0.1 3.95 0.2 3.95 L0.2 4.0 0.25 4.05 0.3 4.1 0.4 4.05 0.35 3.95 Q0.5 3.85 0.5 3.65 L0.45 3.25 Q0.5 3.1 0.5 2.95 0.45 2.75 0.35 2.85 L0.45 2.55 Q0.45 2.35 0.4 2.25 0.4 2.2 0.3 2.2 L0.2 2.25 0.1 2.25 Q0.05 2.2 0.1 2.05 L0.2 1.95 0.4 1.75 Q0.55 1.65 0.7 1.75 0.75 1.6 0.8 1.45 0.9 1.3 0.95 1.45 L1.0 1.55 1.1 1.5 1.1 1.4 1.05 1.35 Q0.9 1.05 0.85 0.75 0.8 0.4 0.9 0.15 0.95 0.05 0.8 0.0 L0.75 -0.05 Q0.75 -0.05 0.8 -0.1 0.75 -0.35 0.5 -0.3 L0.2 -0.15 0.2 0.1 Q0.25 0.3 0.35 0.5 L0.5 0.85 0.55 1.15 0.3 1.15 0.2 1.0 0.2 0.9 Q0.15 0.8 0.2 0.65 0.2 0.5 0.0 0.4 L-0.3 0.2 Q-0.35 0.1 -0.3 0.05 -0.3 0.0 -0.2 -0.05 L-0.05 -0.1 Q0.0 -0.2 -0.05 -0.3 L-0.35 -1.4 Q-0.5 -2.0 -0.5 -2.5 -0.45 -2.65 -0.55 -2.75 L-0.8 -2.75 -1.05 -2.9 Q-1.2 -3.0 -1.25 -3.15 -1.4 -3.55 -1.05 -3.7 L-1.15 -3.85 Q-1.2 -3.95 -1.05 -3.95 -1.0 -4.1 -1.1 -4.1 -1.15 -4.15 -1.2 -4.0 -1.3 -3.75 -1.6 -3.6 L-2.15 -3.4 Q-2.15 -3.65 -2.3 -4.0 -2.45 -4.35 -2.45 -4.6 -2.75 -4.65 -2.7 -4.4 L-2.6 -4.0 Q-2.7 -3.95 -2.7 -3.8 L-2.65 -3.65 -2.55 -3.45 Q-2.5 -3.35 -2.6 -3.25 L-2.6 -3.0 -2.5 -2.8 Q-2.35 -2.5 -2.5 -2.3 -2.35 -2.25 -2.2 -1.95 -2.1 -1.7 -2.0 -1.6 -2.05 -1.45 -1.9 -1.2 -1.75 -0.95 -1.85 -0.85 -1.95 -0.95 -2.1 -0.95 L-2.4 -0.9 -2.35 -0.65 Q-2.3 -0.45 -2.35 -0.35 -2.5 -0.35 -2.7 -0.45 L-3.0 -0.65 Q-3.05 -0.55 -3.0 -0.45 -2.9 -0.35 -2.95 -0.25 -3.0 -0.1 -2.95 0.1 L-2.75 0.4 -2.55 0.65 Q-2.45 0.85 -2.5 1.0 -2.55 1.4 -2.5 1.7 -2.35 2.05 -2.05 2.15 -2.4 2.65 -2.1 3.25 L-1.8 3.8 -1.45 4.3 Q-1.25 4.35 -1.2 4.45 -1.1 4.6 -1.1 4.75 -1.3 4.6 -1.4 4.6 -1.55 4.55 -1.55 4.75 L-1.2 5.35 Q-0.95 5.65 -0.7 5.75 L-0.7 5.35 Q-0.75 5.1 -0.65 5.0 L-0.7 4.7 Q-0.75 4.55 -0.65 4.5 -0.55 4.6 -0.5 4.6 -0.4 4.6 -0.4 4.5 -0.4 4.4 -0.45 4.35 L-0.55 4.35" fill="#342a27" fill-rule="evenodd" stroke="none"/>
    <path d="M3.8 -3.35 L4.0 -3.15 Q4.1 -3.05 4.1 -2.95 3.95 -2.85 3.9 -2.7 3.85 -2.5 3.85 -2.25 L3.95 -1.8 3.9 -1.35 4.15 -1.05 4.3 -0.7 4.3 1.1 Q4.1 1.0 3.95 0.8 3.8 0.6 3.8 0.3 L3.8 -0.85 3.8 -3.35 M0.35 9.4 L0.2 9.35 Q-0.9 8.85 -1.85 7.95 -2.75 7.05 -3.5 5.85 L-3.85 5.4 -4.1 4.9 Q-4.6 4.05 -4.9 3.05 -5.15 2.15 -5.2 1.1 L-5.2 -0.7 -5.2 -2.3 -5.15 -0.55 -5.15 0.45 -4.95 0.5 Q-4.9 0.55 -4.9 0.7 L-4.9 0.95 Q-4.85 1.1 -4.75 1.1 -4.5 1.15 -4.4 1.4 L-4.35 1.9 Q-3.75 5.15 -0.2 8.2 L0.2 8.5 0.25 8.5 Q0.35 8.6 0.35 8.75 L0.35 8.85 0.3 8.95 Q0.3 9.25 0.35 9.4" fill="#a4b0b8" fill-rule="evenodd" stroke="none"/>
    <path d="M-0.65 4.5 Q-0.75 4.55 -0.7 4.7 L-0.65 5.0 Q-0.75 5.1 -0.7 5.35 L-0.7 5.75 Q-0.95 5.65 -1.2 5.35 L-1.55 4.75 Q-1.55 4.55 -1.4 4.6 -1.3 4.6 -1.1 4.75 -1.1 4.6 -1.2 4.45 -1.25 4.35 -1.45 4.3 L-1.8 3.8 -2.1 3.25 Q-2.4 2.65 -2.05 2.15 -2.35 2.05 -2.5 1.7 -2.55 1.4 -2.5 1.0 -2.45 0.85 -2.55 0.65 L-2.75 0.4 -2.95 0.1 Q-3.0 -0.1 -2.95 -0.25 -2.9 -0.35 -3.0 -0.45 -3.05 -0.55 -3.0 -0.65 L-2.7 -0.45 Q-2.5 -0.35 -2.35 -0.35 -2.3 -0.45 -2.35 -0.65 L-2.4 -0.9 -2.1 -0.95 Q-1.95 -0.95 -1.85 -0.85 -1.75 -0.95 -1.9 -1.2 -2.05 -1.45 -2.0 -1.6 -2.1 -1.7 -2.2 -1.95 -2.35 -2.25 -2.5 -2.3 -2.35 -2.5 -2.5 -2.8 L-2.6 -3.0 -2.6 -3.25 Q-2.5 -3.35 -2.55 -3.45 L-2.65 -3.65 -2.7 -3.8 Q-2.7 -3.95 -2.6 -4.0 L-2.7 -4.4 Q-2.75 -4.65 -2.45 -4.6 -2.45 -4.35 -2.3 -4.0 -2.15 -3.65 -2.15 -3.4 L-1.6 -3.6 Q-1.3 -3.75 -1.2 -4.0 -1.15 -4.15 -1.1 -4.1 -1.0 -4.1 -1.05 -3.95 -1.2 -3.95 -1.15 -3.85 L-1.05 -3.7 Q-1.4 -3.55 -1.25 -3.15 -1.2 -3.0 -1.05 -2.9 L-0.8 -2.75 -0.55 -2.75 Q-0.45 -2.65 -0.5 -2.5 -0.5 -2.0 -0.35 -1.4 L-0.05 -0.3 Q0.0 -0.2 -0.05 -0.1 L-0.2 -0.05 Q-0.3 0.0 -0.3 0.05 -0.35 0.1 -0.3 0.2 L0.0 0.4 Q0.2 0.5 0.2 0.65 0.15 0.8 0.2 0.9 L0.2 1.0 0.3 1.15 0.55 1.15 0.5 0.85 0.35 0.5 Q0.25 0.3 0.2 0.1 L0.2 -0.15 0.5 -0.3 Q0.75 -0.35 0.8 -0.1 0.75 -0.05 0.75 -0.05 L0.8 0.0 Q0.95 0.05 0.9 0.15 0.8 0.4 0.85 0.75 0.9 1.05 1.05 1.35 L1.1 1.4 1.1 1.5 1.0 1.55 0.95 1.45 Q0.9 1.3 0.8 1.45 0.75 1.6 0.7 1.75 0.55 1.65 0.4 1.75 L0.2 1.95 0.1 2.05 Q0.05 2.2 0.1 2.25 L0.2 2.25 0.3 2.2 Q0.4 2.2 0.4 2.25 0.45 2.35 0.45 2.55 L0.35 2.85 Q0.45 2.75 0.5 2.95 0.5 3.1 0.45 3.25 L0.5 3.65 Q0.5 3.85 0.35 3.95 L0.4 4.05 0.3 4.1 0.25 4.05 0.2 4.0 0.2 3.95 Q0.1 3.95 0.1 4.25 0.1 4.55 0.05 4.6 L-0.25 4.3 Q-0.4 4.1 -0.55 4.1 -0.65 4.05 -0.7 4.1 L-0.75 4.2 -0.7 4.35 -0.55 4.35 -0.55 4.45 -0.65 4.5" fill="#3e302a" fill-rule="evenodd" stroke="none"/>
    <path d="M4.1 -5.5 Q4.05 -5.45 4.0 -5.45 L3.95 -5.55 3.95 -5.65 4.0 -5.7 Q4.05 -5.75 4.1 -5.65 4.15 -5.55 4.1 -5.5" fill="#696f73" fill-rule="evenodd" stroke="none"/>
    <path d="M0.4 -6.05 L0.4 -5.9 0.3 -5.9 Q0.25 -5.9 0.25 -6.05 0.25 -6.15 0.3 -6.15 L0.4 -6.15 0.4 -6.05" fill="#73777e" fill-rule="evenodd" stroke="none"/>
    <path d="M2.1 -5.9 Q2.05 -5.85 2.0 -6.0 2.0 -6.1 2.05 -6.15 2.15 -6.25 2.2 -6.05 2.2 -5.9 2.1 -5.9" fill="#7c8388" fill-rule="evenodd" stroke="none"/>
    <path d="M3.85 -5.95 L3.8 -5.9 Q3.7 -5.95 3.7 -6.05 L3.75 -6.2 3.85 -6.15 3.9 -6.05 3.85 -5.95" fill="#747a80" fill-rule="evenodd" stroke="none"/>
    <path d="M3.75 -5.65 L3.8 -5.65 3.8 -3.35 3.8 -0.85 3.8 -3.2 3.75 -5.55 3.65 -5.55 3.75 -5.65" fill="#6d7777" fill-rule="evenodd" stroke="none"/>
    <path d="M0.9 -4.35 L1.0 -4.4 1.05 -4.35 1.05 -4.25 1.0 -4.15 Q0.95 -4.15 0.95 -4.25 0.9 -4.3 0.9 -4.35" fill="#989996" fill-rule="evenodd" stroke="none"/>
    <path d="M4.3 1.1 Q4.25 2.15 4.05 3.05 3.85 4.05 3.5 4.9 L3.3 4.65 Q3.15 4.55 3.05 4.65 3.85 2.4 3.8 0.3 3.8 0.6 3.95 0.8 4.1 1.0 4.3 1.1" fill="#575c5f" fill-rule="evenodd" stroke="none"/>
    <path d="M3.5 4.9 L3.3 5.4 3.1 5.85 Q2.9 5.75 2.8 5.75 2.6 5.75 2.5 5.9 2.5 5.65 2.75 5.25 3.0 4.85 3.05 4.65 3.15 4.55 3.3 4.65 L3.5 4.9" fill="#86939c" fill-rule="evenodd" stroke="none"/>
    <path d="M3.1 5.85 Q2.6 7.05 1.95 7.95 1.2 8.95 0.35 9.4 L0.35 9.15 0.35 8.85 0.35 8.75 Q0.35 8.55 0.5 8.55 1.0 8.2 1.5 7.6 1.95 7.05 2.25 6.3 L2.4 6.1 2.5 5.9 Q2.6 5.75 2.8 5.75 2.9 5.75 3.1 5.85" fill="#bcccd6" fill-rule="evenodd" stroke="none"/>
    <path d="M0.5 8.55 Q0.95 8.1 1.45 7.5 L2.25 6.3 Q1.95 7.05 1.5 7.6 1.0 8.2 0.5 8.55 M0.35 8.85 L0.35 9.15 0.35 9.4 Q0.3 9.25 0.3 8.95 L0.35 8.85" fill="#677278" fill-rule="evenodd" stroke="none"/>
    <path d="M-0.55 4.35 L-0.45 4.35 Q-0.4 4.4 -0.4 4.5 -0.4 4.6 -0.5 4.6 -0.55 4.6 -0.65 4.5 L-0.55 4.45 -0.55 4.35" fill="#92908f" fill-rule="evenodd" stroke="none"/>
    <path d="M4.3 -0.7 L4.3 -3.5 Q4.25 -5.4 4.3 -6.35 L3.7 -6.35 3.1 -6.3 1.65 -6.4 Q1.7 -6.3 1.85 -6.35 2.0 -6.4 2.0 -6.3 L0.45 -6.35 0.2 -6.35 -1.65 -6.35 -2.8 -6.35 -4.0 -6.3 -4.65 -6.3 -5.2 -6.25 -5.3 -6.25 -5.2 -2.3 -5.2 -0.7 -5.2 1.1 Q-5.15 2.15 -4.9 3.05 -4.6 4.05 -4.1 4.9 L-3.85 5.4 -3.5 5.85 Q-2.75 7.05 -1.85 7.95 -0.9 8.85 0.2 9.35 L0.35 9.4 Q1.2 8.95 1.95 7.95 2.6 7.05 3.1 5.85 L3.3 5.4 3.5 4.9 Q3.85 4.05 4.05 3.05 4.25 2.15 4.3 1.1 L4.3 -0.7 Z" fill="none" stroke="#000000" stroke-linecap="round" stroke-linejoin="round" stroke-opacity="0.4509804" stroke-width="0.1"/>
  </g>
</svg>
