<?xml version="1.0" encoding="UTF-8" standalone="no"?>
<svg xmlns:xlink="http://www.w3.org/1999/xlink" height="20.4px" width="13.85px" xmlns="http://www.w3.org/2000/svg">
  <g transform="matrix(1.0, 0.0, 0.0, 1.0, 9.4, 9.85)">
    <path d="M-0.7 -8.5 L-0.5 -8.0 -0.25 -7.55 0.05 -7.05 0.3 -6.55 0.35 -6.4 0.3 -6.3 -0.5 -7.65 -1.0 -8.55 -1.55 -9.4 Q-1.85 -9.2 -2.15 -8.8 L-2.65 -8.1 -3.55 -6.95 Q-4.05 -6.2 -4.4 -5.8 L-4.05 -6.4 -3.65 -6.95 -2.85 -8.05 -2.05 -9.1 -1.4 -9.75 -1.0 -9.15 Q-0.8 -8.75 -0.7 -8.5 M-0.3 -1.05 L0.35 -1.05 1.05 -1.0 1.1 -1.0 Q0.65 -0.95 -0.15 -1.0 L-1.35 -1.0 -2.9 -1.0 -4.4 -0.95 -4.4 -1.05 Q-3.1 -1.0 -2.25 -1.05 L-1.3 -1.05 -0.3 -1.05" fill="#8699b6" fill-rule="evenodd" stroke="none"/>
    <path d="M0.3 -6.3 L0.35 -6.4 0.3 -6.55 0.05 -7.05 -0.25 -7.55 -0.5 -8.0 -0.7 -8.5 -0.3 -7.9 0.05 -7.25 1.1 -5.5 1.3 -5.1 1.5 -4.7 Q1.55 -4.5 1.5 -4.25 L1.05 -5.0 0.6 -5.7 0.45 -6.0 0.3 -6.3" fill="#74859e" fill-rule="evenodd" stroke="none"/>
    <path d="M0.6 -5.7 L1.05 -5.0 1.5 -4.25 Q1.95 -3.45 2.45 -2.7 L2.5 -3.0 2.9 -2.35 3.25 -1.65 Q3.05 -1.85 2.85 -2.1 2.95 -1.8 3.15 -1.4 L3.5 -0.8 3.9 -0.1 4.0 0.1 4.0 0.35 3.85 0.7 3.65 1.05 1.4 4.9 Q-0.1 7.5 -0.8 8.7 L-1.2 9.35 -1.6 10.0 Q-1.9 9.75 -2.05 9.5 -2.2 9.2 -2.45 8.8 L-2.95 8.2 -3.65 7.25 -3.95 6.9 -4.25 6.6 Q-4.6 6.1 -5.1 5.5 L-5.95 4.4 Q-6.15 4.1 -6.45 3.95 L-6.0 4.6 -5.2 5.7 -4.35 6.75 -3.15 8.4 -1.9 10.0 Q-1.8 10.2 -1.5 10.25 L-1.35 9.95 Q-1.2 9.65 -0.9 9.15 L-0.4 8.4 0.35 7.15 1.05 5.95 Q1.25 5.5 1.6 4.85 L2.2 3.85 2.6 3.1 3.1 2.35 3.45 1.8 3.8 1.25 3.85 1.4 1.45 5.6 -1.0 9.8 -1.2 10.1 -1.4 10.45 -1.65 10.5 Q-1.8 10.45 -1.85 10.35 L-6.55 4.2 -9.35 0.55 -9.35 0.55 -9.3 0.45 Q-9.0 0.7 -8.7 1.1 L-8.1 1.85 -7.55 2.6 -7.2 3.05 -6.8 3.45 Q-6.9 3.1 -7.1 2.9 L-7.5 2.3 -7.95 1.7 -8.9 0.45 Q-9.0 0.35 -8.95 0.2 L-8.8 -0.05 -8.35 -0.65 -7.85 -1.25 -7.35 -1.9 Q-7.05 -2.3 -6.9 -2.6 L-6.3 -3.35 -6.2 -3.15 -8.85 0.3 Q-8.6 0.45 -8.35 0.75 L-8.0 1.25 -8.1 1.25 -7.15 2.65 -6.1 4.0 -5.75 4.5 Q-5.5 4.8 -5.25 4.95 -5.35 4.7 -5.6 4.4 L-6.0 3.9 -6.7 2.95 -7.4 2.0 -7.7 1.6 Q-7.8 1.35 -8.1 0.95 L-8.55 0.35 -8.45 0.15 -8.3 -0.05 -7.4 -1.3 -6.45 -2.55 -5.9 -1.9 -6.15 -2.05 -6.2 -1.85 -6.2 -1.65 -6.95 -1.65 -6.75 -1.6 Q-6.85 -1.5 -6.9 -1.5 L-7.05 -1.4 -7.2 -1.15 -7.4 -0.9 -7.45 -0.9 -7.55 -0.75 Q-7.6 -0.7 -7.55 -0.65 L-7.5 -0.6 -7.9 -0.3 -7.55 -0.3 -6.75 -0.4 -6.85 -0.25 Q-7.4 -0.25 -7.85 -0.05 L-7.85 -0.25 Q-8.1 -0.1 -8.35 0.25 L-8.15 0.65 -7.9 0.9 -7.85 1.0 -7.7 1.3 Q-7.55 1.5 -7.4 1.5 L-7.3 1.5 -7.45 1.65 Q-7.35 1.8 -7.1 1.95 -6.75 2.1 -6.7 2.2 L-7.05 2.1 -6.6 2.7 -6.4 2.5 -6.4 2.7 -6.25 2.65 -6.4 3.0 -5.95 3.6 -5.55 4.2 -5.1 4.75 -5.25 4.85 -4.85 5.45 -4.4 6.0 -3.65 6.95 -2.9 7.9 -2.6 8.35 -2.25 8.8 -1.95 9.25 -1.55 9.6 -1.5 9.5 -0.55 7.95 0.4 6.35 3.25 1.45 3.55 0.9 3.8 0.35 3.65 0.5 3.55 0.3 3.7 0.2 3.25 -0.55 3.1 -0.4 2.3 -0.9 3.0 -0.95 2.65 -1.0 2.85 -1.05 2.45 -1.7 2.1 -1.5 1.8 -1.25 1.5 -1.45 1.9 -1.65 2.25 -1.9 2.25 -2.25 2.75 -1.5 3.25 -0.7 2.45 -2.3 1.6 -3.85 1.05 -4.7 Q0.7 -5.2 0.5 -5.6 L0.6 -5.7 M-6.3 -2.1 L-6.8 -1.8 -6.3 -1.7 -6.3 -2.1" fill="#424b5f" fill-rule="evenodd" stroke="none"/>
    <path d="M-4.4 -5.8 Q-4.05 -6.2 -3.55 -6.95 L-2.65 -8.1 -2.15 -8.8 Q-1.85 -9.2 -1.55 -9.4 L-1.0 -8.55 -0.5 -7.65 0.3 -6.3 0.45 -6.0 0.6 -5.7 0.5 -5.6 Q0.7 -5.2 1.05 -4.7 L1.6 -3.85 2.45 -2.3 3.25 -0.7 2.75 -1.5 2.25 -2.25 1.35 -3.85 0.45 -5.4 0.0 -6.2 -0.5 -7.0 -0.95 -7.8 -1.35 -8.6 -1.55 -9.2 -2.0 -8.7 -2.4 -8.15 -3.95 -6.1 -5.55 -4.0 -6.2 -3.15 -6.3 -3.35 -5.35 -4.55 -4.4 -5.8" fill="#4d5869" fill-rule="evenodd" stroke="none"/>
    <path d="M2.25 -2.25 L2.25 -1.9 1.9 -1.65 1.5 -1.45 1.15 -1.75 Q0.9 -1.9 0.75 -2.0 0.3 -2.15 0.0 -2.45 L0.2 -2.85 0.05 -2.8 -0.25 -2.75 -0.9 -2.9 -1.25 -3.3 -1.0 -3.5 -1.25 -3.5 -1.35 -3.7 -1.55 -3.8 -2.0 -3.8 -1.45 -4.1 -1.5 -4.3 -1.55 -4.5 -1.5 -4.65 -1.4 -4.8 -1.55 -4.8 -1.55 -6.95 -1.55 -7.1 -1.85 -7.3 -1.55 -7.2 -1.55 -7.75 Q-1.5 -8.0 -1.6 -8.25 L-1.35 -8.2 Q-1.25 -8.15 -1.2 -8.05 L-0.9 -7.55 -0.65 -7.05 -0.5 -7.0 0.0 -6.2 0.45 -5.4 1.35 -3.85 2.25 -2.25 M1.15 -3.85 L1.15 -4.0 0.9 -4.0 0.6 -3.95 Q0.55 -3.95 0.5 -3.85 L0.4 -3.7 0.75 -3.85 0.85 -3.7 0.9 -3.9 1.15 -3.85 M0.05 -3.95 Q0.1 -4.05 0.05 -4.15 L-0.15 -3.8 Q0.0 -3.85 0.05 -3.95 M0.25 -3.05 Q0.3 -3.25 0.0 -3.4 L-0.05 -2.95 0.25 -3.05 M1.3 -2.15 L1.45 -2.15 1.4 -2.4 1.35 -2.6 Q1.15 -2.4 1.15 -2.2 1.2 -2.15 1.3 -2.15 M-0.45 -6.15 Q-0.45 -5.9 -0.3 -5.7 L-0.35 -6.55 -0.45 -6.15 M-0.15 -6.1 L-0.1 -5.6 0.0 -6.0 -0.15 -6.1 M-1.05 -6.35 Q-0.95 -6.7 -0.9 -7.1 -1.15 -6.7 -1.05 -6.35" fill="#29385e" fill-rule="evenodd" stroke="none"/>
    <path d="M1.5 -4.25 Q1.55 -4.5 1.5 -4.7 L1.9 -4.1 2.25 -3.5 2.4 -3.25 2.5 -3.0 2.45 -2.7 Q1.95 -3.45 1.5 -4.25" fill="#566376" fill-rule="evenodd" stroke="none"/>
    <path d="M1.15 -3.85 L0.9 -3.9 0.85 -3.7 0.75 -3.85 0.4 -3.7 0.5 -3.85 Q0.55 -3.95 0.6 -3.95 L0.9 -4.0 1.15 -4.0 1.15 -3.85" fill="#465887" fill-rule="evenodd" stroke="none"/>
    <path d="M0.05 -3.95 Q0.0 -3.85 -0.15 -3.8 L0.05 -4.15 Q0.1 -4.05 0.05 -3.95" fill="#787290" fill-rule="evenodd" stroke="none"/>
    <path d="M2.65 -1.0 L3.0 -0.95 2.3 -0.9 3.1 -0.4 3.25 -0.55 3.7 0.2 3.55 0.3 2.95 0.35 2.4 0.35 1.1 0.35 -0.15 0.35 -0.15 0.5 Q-0.35 0.4 -0.6 0.35 L-1.05 0.35 -1.55 0.35 -2.0 0.3 -2.3 0.35 -2.6 0.5 -2.7 0.2 -2.95 0.45 -3.3 0.35 -3.55 0.35 -3.55 0.85 -3.4 1.15 -3.2 1.4 -3.5 1.45 -3.65 0.35 -3.95 0.35 -4.75 0.35 Q-4.8 0.55 -4.85 0.85 L-4.9 1.35 Q-4.95 1.15 -4.95 0.85 L-4.85 0.3 -5.0 0.55 Q-5.1 0.65 -5.1 0.8 L-5.1 1.1 -5.15 1.4 Q-5.3 0.85 -5.05 0.3 L-5.5 0.35 -5.5 0.9 -5.6 1.4 -5.6 0.35 -5.8 0.5 -6.0 0.35 -6.25 0.35 Q-6.5 0.4 -7.0 0.35 -7.0 0.55 -7.05 0.7 -7.15 0.9 -7.3 1.0 -7.15 0.7 -7.1 0.4 L-7.5 0.35 -7.9 0.4 Q-8.0 0.4 -8.05 0.5 L-8.15 0.65 -8.35 0.25 Q-8.1 -0.1 -7.85 -0.25 L-7.85 -0.05 Q-7.4 -0.25 -6.85 -0.25 L-6.75 -0.4 -7.55 -0.3 -7.3 -0.5 -7.45 -0.55 -7.45 -0.6 -7.55 -0.65 Q-7.05 -0.55 -6.7 -0.8 L-7.45 -0.9 -7.4 -0.9 -5.6 -1.0 -6.3 -1.05 -6.05 -1.15 Q-6.45 -1.2 -6.75 -1.35 L-6.35 -1.3 -5.95 -1.3 Q-5.75 -1.35 -5.55 -1.45 L-5.15 -1.65 -5.05 -2.2 -5.0 -1.7 Q-4.55 -2.0 -4.1 -2.0 L-4.2 -2.1 -2.6 -2.95 -1.95 -3.3 Q-1.6 -3.45 -1.25 -3.5 L-1.0 -3.5 -1.25 -3.3 -0.9 -2.9 -0.25 -2.75 -0.6 -2.3 -0.25 -2.55 0.05 -2.8 0.2 -2.85 0.0 -2.45 Q0.3 -2.15 0.75 -2.0 L0.75 -1.75 0.2 -1.65 Q-0.1 -1.6 -0.35 -1.65 L-0.3 -1.05 -1.3 -1.05 -2.25 -1.05 Q-3.1 -1.0 -4.4 -1.05 L-4.4 -0.95 -2.9 -1.0 -1.35 -1.0 -0.15 -1.0 Q0.65 -0.95 1.1 -1.0 1.75 -0.9 2.65 -1.0 M-2.75 -4.7 L-2.35 -4.5 -2.65 -4.55 -3.0 -4.55 -3.1 -4.7 -2.75 -4.7 M-4.65 -1.5 L-4.8 -1.55 -5.0 -1.5 Q-4.95 -1.4 -4.8 -1.4 -4.7 -1.4 -4.65 -1.5 M-6.7 -0.55 L-6.0 -0.7 Q-6.5 -0.85 -6.7 -0.55 M-2.75 -2.0 Q-2.8 -2.1 -2.95 -2.1 L-3.25 -2.1 -2.75 -2.0 M-2.35 -2.0 L-2.5 -1.95 -2.55 -1.8 Q-2.45 -1.75 -2.35 -1.85 -2.25 -1.95 -2.35 -2.0 M-2.8 -1.45 Q-2.45 -1.4 -2.15 -1.7 L-2.8 -1.45 M-3.8 -1.6 L-3.9 -1.55 Q-3.9 -1.5 -3.85 -1.5 -3.75 -1.45 -3.75 -1.55 -3.7 -1.6 -3.8 -1.6 M-3.3 -0.75 Q-3.5 -0.85 -3.75 -0.85 L-4.25 -0.75 -3.3 -0.75 M-2.55 -0.65 L-2.85 -0.65 Q-3.0 -0.65 -3.1 -0.55 -2.8 -0.55 -2.55 -0.65 M-0.75 -2.0 Q-0.7 -1.95 -0.6 -2.05 -0.55 -2.2 -0.65 -2.2 L-0.75 -2.15 Q-0.8 -2.05 -0.75 -2.0 M-1.25 -1.95 Q-1.2 -1.95 -1.15 -2.0 -1.15 -2.05 -1.2 -2.05 -1.3 -2.1 -1.35 -2.05 -1.35 -1.95 -1.25 -1.95 M-1.15 -0.1 Q-1.25 -0.1 -1.25 -0.05 -1.3 0.05 -1.2 0.05 -1.1 0.05 -1.1 0.0 -1.05 -0.05 -1.15 -0.1 M-2.05 -0.2 Q-1.65 -0.25 -1.35 -0.45 -1.75 -0.45 -2.05 -0.2 M-6.95 0.1 Q-6.95 0.0 -7.05 0.0 L-7.1 0.1 Q-7.15 0.15 -7.1 0.2 -7.0 0.2 -6.95 0.1 M-7.55 0.05 L-7.5 0.1 Q-7.4 0.1 -7.35 0.05 -7.35 0.0 -7.45 0.0 -7.5 -0.05 -7.55 0.05" fill="#18243c" fill-rule="evenodd" stroke="none"/>
    <path d="M0.25 -3.05 L-0.05 -2.95 0.0 -3.4 Q0.3 -3.25 0.25 -3.05" fill="#827585" fill-rule="evenodd" stroke="none"/>
    <path d="M1.3 -2.15 Q1.2 -2.15 1.15 -2.2 1.15 -2.4 1.35 -2.6 L1.4 -2.4 1.45 -2.15 1.3 -2.15" fill="#747775" fill-rule="evenodd" stroke="none"/>
    <path d="M1.5 -1.45 L1.8 -1.25 2.0 -1.15 1.05 -1.0 0.35 -1.05 -0.3 -1.05 -0.35 -1.65 Q-0.1 -1.6 0.2 -1.65 L0.75 -1.75 0.75 -2.0 Q0.9 -1.9 1.15 -1.75 L1.5 -1.45" fill="#343240" fill-rule="evenodd" stroke="none"/>
    <path d="M1.8 -1.25 L2.1 -1.5 2.45 -1.7 2.85 -1.05 2.65 -1.0 Q1.75 -0.9 1.1 -1.0 L1.05 -1.0 2.0 -1.15 1.8 -1.25" fill="#60596c" fill-rule="evenodd" stroke="none"/>
    <path d="M3.85 1.4 L3.8 1.25 4.05 0.85 4.25 0.4 Q4.3 0.2 4.2 0.05 L4.0 -0.3 3.9 -0.1 3.5 -0.8 3.15 -1.4 Q2.95 -1.8 2.85 -2.1 3.05 -1.85 3.25 -1.65 3.45 -1.5 3.6 -1.15 L3.9 -0.65 Q4.0 -0.45 4.25 -0.1 4.4 0.25 4.35 0.5 L4.15 1.0 3.85 1.4" fill="#556074" fill-rule="evenodd" stroke="none"/>
    <path d="M3.8 1.25 L3.45 1.8 3.1 2.35 2.6 3.1 2.2 3.85 1.6 4.85 Q1.25 5.5 1.05 5.95 L0.35 7.15 -0.4 8.4 -0.9 9.15 Q-1.2 9.65 -1.35 9.95 L-1.6 10.1 -1.6 10.0 -1.2 9.35 -0.8 8.7 Q-0.1 7.5 1.4 4.9 L3.65 1.05 3.85 0.7 4.0 0.35 4.0 0.1 3.9 -0.1 4.0 -0.3 4.2 0.05 Q4.3 0.2 4.25 0.4 L4.05 0.85 3.8 1.25" fill="#cdd7e4" fill-rule="evenodd" stroke="none"/>
    <path d="M-6.9 -2.6 Q-7.05 -2.3 -7.35 -1.9 L-7.85 -1.25 -8.35 -0.65 -8.8 -0.05 -8.95 0.2 Q-9.0 0.35 -8.9 0.45 L-7.95 1.7 -8.1 1.85 -8.7 1.1 Q-9.0 0.7 -9.3 0.45 L-9.2 0.25 -9.05 0.05 -8.65 -0.4 -8.0 -1.25 -7.35 -2.15 -6.9 -2.6" fill="#7f90ac" fill-rule="evenodd" stroke="none"/>
    <path d="M-1.4 -9.75 L-2.05 -9.1 -2.85 -8.05 -3.65 -6.95 -4.05 -6.4 -4.4 -5.8 -5.35 -4.55 -6.3 -3.35 -6.9 -2.6 -7.35 -2.15 -8.0 -1.25 -8.65 -0.4 -9.05 0.05 -9.2 0.25 -9.3 0.45 -9.35 0.55 -9.35 0.35 Q-9.35 0.2 -9.3 0.1 L-8.9 -0.45 -7.5 -2.25 -6.15 -4.1 -5.25 -5.25 -4.4 -6.4 -1.9 -9.65 Q-1.8 -9.75 -1.65 -9.8 L-1.35 -9.75 -1.4 -9.75" fill="#d2dbea" fill-rule="evenodd" stroke="none"/>
    <path d="M3.65 0.5 L3.8 0.35 3.55 0.9 3.25 1.45 0.4 6.35 -0.55 7.95 -1.5 9.5 -1.6 9.4 -1.55 9.3 -0.9 8.25 -0.3 7.2 1.05 4.95 3.4 0.85 3.65 0.5 M-6.45 -2.55 L-7.4 -1.3 -8.3 -0.05 -8.45 0.15 -8.55 0.35 -8.1 0.95 Q-7.8 1.35 -7.7 1.6 L-8.0 1.25 -8.35 0.75 Q-8.6 0.45 -8.85 0.3 L-6.2 -3.15 -5.55 -4.0 -3.95 -6.1 -2.4 -8.15 -2.0 -8.7 -1.55 -9.2 -1.35 -8.6 -1.55 -8.85 -2.2 -8.1 -3.65 -6.2 -5.15 -4.25 -6.05 -3.05 -6.45 -2.55" fill="#c8d0db" fill-rule="evenodd" stroke="none"/>
    <path d="M-0.5 -7.0 L-0.65 -7.05 -0.9 -7.55 -1.2 -8.05 Q-1.25 -8.15 -1.35 -8.2 L-1.6 -8.25 -1.6 -8.6 -2.05 -8.0 -2.35 -7.6 -2.65 -7.2 -3.0 -6.75 -3.3 -6.35 Q-3.45 -6.1 -3.75 -5.8 L-3.45 -5.55 -3.85 -5.65 -3.9 -5.35 -4.0 -5.45 -4.3 -5.0 -4.55 -4.65 -4.85 -4.3 Q-4.95 -4.2 -4.95 -4.0 L-5.0 -3.7 -5.1 -3.95 -5.35 -3.7 -5.55 -3.4 -5.7 -3.05 -5.8 -2.7 -5.85 -3.0 -6.05 -3.05 -5.15 -4.25 -3.65 -6.2 -2.2 -8.1 -1.55 -8.85 -1.35 -8.6 -0.95 -7.8 -0.5 -7.0" fill="#394555" fill-rule="evenodd" stroke="none"/>
    <path d="M-1.6 -8.25 Q-1.5 -8.0 -1.55 -7.75 L-1.55 -7.2 -1.85 -7.3 -1.55 -7.1 -1.55 -6.95 -1.7 -7.0 -2.3 -6.45 -2.0 -6.2 -2.15 -6.2 -2.3 -6.25 -2.45 -6.55 -2.6 -6.8 -2.65 -6.65 -2.5 -6.55 -2.7 -6.45 -3.0 -6.75 -2.65 -7.2 -2.35 -7.6 -2.05 -8.0 -1.6 -8.6 -1.6 -8.25 M-3.2 4.1 L-2.95 3.9 Q-3.1 4.25 -3.45 4.35 -3.85 4.45 -4.1 4.2 L-3.8 4.25 -3.5 4.25 -3.2 4.1" fill="#5972a4" fill-rule="evenodd" stroke="none"/>
    <path d="M-1.55 -6.95 L-1.55 -4.8 -1.4 -4.8 -1.5 -4.65 -1.55 -4.5 -1.5 -4.3 -1.45 -4.1 -2.0 -3.8 Q-2.15 -3.75 -2.2 -3.55 L-2.25 -3.2 -2.4 -3.45 -2.5 -3.4 -2.95 -3.25 -3.05 -3.25 -3.25 -3.0 -3.45 -3.2 -3.35 -3.3 -3.15 -3.35 -3.35 -3.45 -3.6 -3.5 -3.85 -3.4 -4.15 -3.3 -4.05 -3.2 -4.55 -3.15 -4.5 -3.25 -4.2 -3.35 -4.5 -3.4 -4.75 -3.3 -4.95 -3.15 -5.05 -3.35 -5.0 -3.4 -4.65 -3.55 -4.9 -3.95 -4.7 -3.8 -4.6 -3.75 -4.6 -3.75 -4.55 -3.75 -4.55 -3.85 -4.35 -3.75 Q-4.2 -3.7 -4.1 -3.65 L-3.9 -3.75 -3.75 -3.85 -3.7 -3.85 -3.55 -3.7 -3.35 -3.7 -3.2 -3.9 -3.1 -3.6 Q-3.05 -3.45 -2.85 -3.45 -2.65 -3.45 -2.45 -3.6 L-2.15 -3.95 -2.25 -4.15 -2.6 -4.05 -2.2 -4.3 -2.7 -4.35 -3.15 -4.55 -3.0 -4.55 -2.65 -4.55 -2.35 -4.5 -2.75 -4.7 -2.85 -4.75 Q-2.65 -5.15 -2.7 -5.6 -2.8 -6.05 -3.1 -6.4 L-3.1 -6.15 -3.3 -6.35 -3.0 -6.75 -2.7 -6.45 -2.5 -6.55 -2.65 -6.65 -2.6 -6.8 -2.45 -6.55 -2.3 -6.25 -2.15 -6.2 -2.0 -6.2 -2.3 -6.45 -1.7 -7.0 -1.55 -6.95 M-2.6 -6.0 Q-2.55 -5.7 -2.35 -5.65 -2.25 -5.7 -2.25 -5.8 -2.2 -5.95 -2.3 -6.05 L-2.7 -6.4 -2.6 -6.0 M-2.3 -5.6 L-2.15 -5.4 -1.95 -5.65 -2.3 -5.6 M-1.9 -5.8 L-1.9 -6.15 -2.0 -6.0 -2.2 -6.05 Q-2.15 -5.85 -1.9 -5.8 M-1.65 -4.8 Q-1.6 -4.85 -1.7 -4.9 L-1.8 -4.9 Q-1.85 -4.85 -1.8 -4.8 L-1.65 -4.8 M-2.05 -0.2 Q-1.75 -0.45 -1.35 -0.45 -1.65 -0.25 -2.05 -0.2 M-6.95 0.1 Q-7.0 0.2 -7.1 0.2 -7.15 0.15 -7.1 0.1 L-7.05 0.0 Q-6.95 0.0 -6.95 0.1" fill="#687caa" fill-rule="evenodd" stroke="none"/>
    <path d="M-7.4 -0.9 L-7.2 -1.15 -7.05 -1.4 -6.9 -1.5 Q-6.85 -1.5 -6.75 -1.6 L-6.95 -1.65 -6.2 -1.65 -6.2 -1.85 -6.15 -2.05 -5.9 -1.9 -6.45 -2.55 -6.05 -3.05 -5.85 -3.0 -5.8 -2.7 -5.7 -3.05 -5.55 -3.4 -5.35 -3.7 -5.1 -3.95 -5.0 -3.7 -4.95 -4.0 Q-4.95 -4.2 -4.85 -4.3 L-4.55 -4.65 -4.3 -5.0 -4.0 -5.45 -3.9 -5.35 -3.85 -5.65 -3.45 -5.55 -3.75 -5.8 Q-3.45 -6.1 -3.3 -6.35 L-3.1 -6.15 -3.1 -6.4 Q-2.8 -6.05 -2.7 -5.6 -2.65 -5.15 -2.85 -4.75 L-2.75 -4.7 -3.1 -4.7 -3.0 -4.55 -3.15 -4.55 -2.7 -4.35 -2.2 -4.3 -2.6 -4.05 -2.25 -4.15 -2.15 -3.95 -2.45 -3.6 Q-2.65 -3.45 -2.85 -3.45 -3.05 -3.45 -3.1 -3.6 L-3.2 -3.9 -3.35 -3.7 -3.55 -3.7 -3.7 -3.85 -3.75 -3.85 -4.2 -3.75 -4.4 -3.9 -4.6 -4.1 -4.65 -3.8 -4.7 -3.8 -4.9 -3.95 -4.65 -3.55 -5.0 -3.4 -5.2 -3.35 -5.35 -3.2 -5.4 -2.85 -5.05 -3.35 -4.95 -3.15 -4.75 -3.3 -4.5 -3.4 -4.2 -3.35 -4.5 -3.25 -4.55 -3.15 -4.55 -3.1 -3.95 -3.1 -4.05 -3.2 -4.15 -3.3 -3.85 -3.4 -3.6 -3.5 -3.35 -3.45 -3.15 -3.35 -3.35 -3.3 Q-3.55 -3.25 -3.6 -3.05 L-3.7 -2.7 -3.45 -3.2 -3.25 -3.0 -2.9 -3.1 -3.05 -3.25 -2.95 -3.25 -2.5 -3.4 -2.4 -3.45 -2.25 -3.2 -2.2 -3.55 Q-2.15 -3.75 -2.0 -3.8 L-1.55 -3.8 -1.35 -3.7 -1.25 -3.5 Q-1.6 -3.45 -1.95 -3.3 L-2.6 -2.95 -4.2 -2.1 -4.1 -2.0 Q-4.55 -2.0 -5.0 -1.7 L-5.05 -2.2 -5.15 -1.65 -5.55 -1.45 Q-5.75 -1.35 -5.95 -1.3 L-6.35 -1.3 -6.75 -1.35 Q-6.45 -1.2 -6.05 -1.15 L-6.3 -1.05 -5.6 -1.0 -7.4 -0.9 M-3.1 -5.55 Q-3.1 -5.35 -3.15 -5.25 L-3.3 -5.05 -3.45 -4.9 Q-3.2 -4.95 -3.05 -5.25 L-2.9 -5.7 -3.15 -5.9 -3.1 -5.55 M-2.2 5.45 L-2.55 5.45 -2.55 5.6 -2.7 5.6 -2.6 5.35 -2.4 5.35 -2.25 5.1 -2.05 5.2 -2.3 5.3 -2.2 5.45" fill="#566fa1" fill-rule="evenodd" stroke="none"/>
    <path d="M-7.4 1.5 Q-7.55 1.5 -7.7 1.3 L-7.85 1.0 -7.6 1.05 -7.45 0.45 Q-7.45 0.75 -7.5 1.15 L-6.85 1.25 -7.3 1.3 -6.8 1.35 -7.4 1.5 M-3.1 -5.55 L-3.15 -5.9 -2.9 -5.7 -3.05 -5.25 Q-3.2 -4.95 -3.45 -4.9 L-3.3 -5.05 -3.15 -5.25 Q-3.1 -5.35 -3.1 -5.55 M-2.3 -5.6 L-1.95 -5.65 -2.15 -5.4 -2.3 -5.6" fill="#233866" fill-rule="evenodd" stroke="none"/>
    <path d="M-2.6 -6.0 L-2.7 -6.4 -2.3 -6.05 Q-2.2 -5.95 -2.25 -5.8 -2.25 -5.7 -2.35 -5.65 -2.55 -5.7 -2.6 -6.0 M-3.9 4.85 L-4.3 4.55 -4.1 4.6 -4.15 4.4 -3.9 4.65 -4.05 4.65 -3.9 4.85" fill="#45659a" fill-rule="evenodd" stroke="none"/>
    <path d="M-1.9 -5.8 Q-2.15 -5.85 -2.2 -6.05 L-2.0 -6.0 -1.9 -6.15 -1.9 -5.8" fill="#304977" fill-rule="evenodd" stroke="none"/>
    <path d="M-0.15 -6.1 L0.0 -6.0 -0.1 -5.6 -0.15 -6.1" fill="#556d9a" fill-rule="evenodd" stroke="none"/>
    <path d="M-0.45 -6.15 L-0.35 -6.55 -0.3 -5.7 Q-0.45 -5.9 -0.45 -6.15" fill="#4c638e" fill-rule="evenodd" stroke="none"/>
    <path d="M-1.05 -6.35 Q-1.15 -6.7 -0.9 -7.1 -0.95 -6.7 -1.05 -6.35" fill="#5975a2" fill-rule="evenodd" stroke="none"/>
    <path d="M-5.1 4.75 L-5.55 4.2 -5.95 3.6 -6.4 3.0 -6.25 2.65 -6.4 2.7 -6.4 2.5 -6.6 2.7 -7.05 2.1 -6.7 2.2 Q-6.75 2.1 -7.1 1.95 -7.35 1.8 -7.45 1.65 L-7.3 1.5 -6.95 1.55 Q-6.7 1.55 -6.6 1.65 L-6.25 1.8 Q-6.05 1.85 -5.9 1.75 -5.8 1.6 -5.75 1.35 L-5.7 0.9 Q-5.65 1.25 -5.65 1.45 -5.7 1.75 -5.9 1.95 L-5.4 2.25 Q-5.2 2.3 -4.85 2.5 L-4.5 2.6 -4.2 2.35 -3.9 2.05 -3.7 2.15 -4.05 2.3 -4.25 2.5 -4.4 2.75 -4.1 2.85 -3.85 2.55 -4.0 3.0 -3.7 3.0 -3.65 3.0 -3.7 3.3 -3.3 3.15 -3.2 3.3 -3.05 3.4 -2.85 3.35 -2.8 3.6 -2.75 3.6 -2.75 3.6 -2.7 3.6 -2.55 3.6 -2.3 3.8 -1.9 3.95 Q-1.75 3.65 -1.5 3.45 L-1.85 4.15 Q-1.5 4.1 -1.05 3.85 L-0.35 3.35 Q-0.05 3.65 0.0 4.0 L0.15 3.85 0.15 4.5 Q0.35 4.55 0.6 4.7 L1.05 4.95 -0.3 7.2 -0.9 8.25 -1.55 9.3 Q-1.8 9.05 -2.15 8.55 L-2.75 7.8 -3.35 7.0 -3.95 6.25 -4.5 5.5 -5.1 4.75 M-0.5 0.95 L-0.4 1.05 -0.55 1.3 -0.75 1.6 -0.5 0.95 M-1.5 1.85 L-1.55 1.8 -1.6 1.75 -1.7 1.7 Q-1.35 1.7 -1.05 1.5 L-1.05 1.6 -1.5 1.85 M-2.35 1.7 L-2.4 2.15 -2.45 2.6 -2.6 2.3 -2.85 2.5 -2.55 2.5 -2.65 2.65 -2.85 2.6 -2.9 2.35 -2.7 2.3 -2.8 2.1 -2.55 2.2 -2.45 1.7 -2.35 1.7 M-2.7 3.0 L-2.65 2.9 -2.4 2.75 -2.2 2.55 -2.05 2.25 -1.95 1.95 -1.65 2.1 -1.9 2.1 -2.0 2.4 -2.15 2.7 -2.35 2.85 -2.65 3.0 -2.7 3.0 M-3.75 -3.85 L-3.9 -3.75 -4.1 -3.65 Q-4.2 -3.7 -4.35 -3.75 L-4.55 -3.85 -4.55 -3.75 -4.6 -3.75 -4.6 -3.75 -4.65 -3.8 -4.6 -4.1 -4.4 -3.9 -4.2 -3.75 -3.75 -3.85 M-3.2 3.55 L-3.45 3.6 -3.7 3.5 -3.55 3.8 Q-3.3 3.7 -3.2 3.55 M-3.2 4.1 L-3.5 4.25 -3.8 4.25 -4.1 4.2 Q-3.85 4.45 -3.45 4.35 -3.1 4.25 -2.95 3.9 L-3.2 4.1 M-3.95 3.75 Q-3.85 3.85 -3.65 3.9 L-3.35 3.9 -3.95 3.75 M-3.9 4.85 L-4.05 4.65 -3.9 4.65 -4.15 4.4 -4.1 4.6 -4.3 4.55 -3.9 4.85 M-3.45 4.15 Q-3.7 4.05 -4.0 4.05 -3.8 4.2 -3.45 4.15 M-2.35 4.65 Q-2.25 4.55 -2.2 4.45 -2.15 4.3 -2.15 4.15 L-2.3 4.4 -2.35 4.65 M-1.8 4.35 Q-1.8 4.25 -1.95 4.3 L-2.05 4.4 Q-2.05 4.5 -1.95 4.5 -1.85 4.45 -1.8 4.35 M-4.8 1.7 L-4.7 1.6 Q-4.55 1.65 -4.6 1.8 L-4.7 2.05 -4.75 2.25 -4.75 2.45 -4.8 2.3 -4.8 2.15 -4.75 1.95 -4.65 1.75 -4.85 1.85 -4.8 1.7 M-6.2 0.55 Q-6.0 0.95 -6.1 1.35 L-6.25 1.5 -6.4 1.65 -6.35 1.35 -6.2 1.35 Q-6.15 1.2 -6.15 0.95 L-6.2 0.55 M-1.6 5.4 Q-1.85 5.45 -2.0 5.7 -2.15 5.9 -2.2 6.2 L-1.95 5.95 Q-2.05 5.75 -1.9 5.6 -1.8 5.55 -1.6 5.4 M-2.2 5.45 L-2.3 5.3 -2.05 5.2 -2.25 5.1 -2.4 5.35 -2.6 5.35 -2.7 5.6 -2.55 5.6 -2.55 5.45 -2.2 5.45 M-2.6 5.8 Q-2.8 5.9 -2.8 6.1 L-2.7 6.1 Q-2.65 5.95 -2.5 5.85 L-2.2 5.75 -2.3 5.65 Q-2.55 5.75 -2.6 5.8 M-0.95 7.7 Q-0.75 7.6 -0.55 7.45 L-1.1 7.6 -0.95 7.7 M-2.35 4.85 Q-2.6 4.95 -2.65 5.25 -2.45 5.2 -2.35 4.85" fill="#1b2740" fill-rule="evenodd" stroke="none"/>
    <path d="M-5.0 -3.4 L-5.05 -3.35 -5.4 -2.85 -5.35 -3.2 -5.2 -3.35 -5.0 -3.4" fill="#142c50" fill-rule="evenodd" stroke="none"/>
    <path d="M-4.55 -3.15 L-4.05 -3.2 -3.95 -3.1 -4.55 -3.1 -4.55 -3.15" fill="#223252" fill-rule="evenodd" stroke="none"/>
    <path d="M-6.3 -2.1 L-6.3 -1.7 -6.8 -1.8 -6.3 -2.1 M-3.3 -0.75 L-4.25 -0.75 -3.75 -0.85 Q-3.5 -0.85 -3.3 -0.75 M-1.6 5.4 Q-1.8 5.55 -1.9 5.6 -2.05 5.75 -1.95 5.95 L-2.2 6.2 Q-2.15 5.9 -2.0 5.7 -1.85 5.45 -1.6 5.4" fill="#5774a7" fill-rule="evenodd" stroke="none"/>
    <path d="M-7.55 -0.65 Q-7.6 -0.7 -7.55 -0.75 L-7.45 -0.9 -6.7 -0.8 Q-7.05 -0.55 -7.55 -0.65 M-2.75 -2.0 L-3.25 -2.1 -2.95 -2.1 Q-2.8 -2.1 -2.75 -2.0" fill="#5f75a6" fill-rule="evenodd" stroke="none"/>
    <path d="M-7.55 -0.3 L-7.9 -0.3 -7.5 -0.6 -7.45 -0.6 -7.45 -0.55 -7.3 -0.5 -7.55 -0.3" fill="#5c74a2" fill-rule="evenodd" stroke="none"/>
    <path d="M-4.65 -1.5 Q-4.7 -1.4 -4.8 -1.4 -4.95 -1.4 -5.0 -1.5 L-4.8 -1.55 -4.65 -1.5" fill="#6376a8" fill-rule="evenodd" stroke="none"/>
    <path d="M-6.7 -0.55 Q-6.5 -0.85 -6.0 -0.7 L-6.7 -0.55" fill="#556a97" fill-rule="evenodd" stroke="none"/>
    <path d="M-1.65 -4.8 L-1.8 -4.8 Q-1.85 -4.85 -1.8 -4.9 L-1.7 -4.9 Q-1.6 -4.85 -1.65 -4.8" fill="#2d3c63" fill-rule="evenodd" stroke="none"/>
    <path d="M-3.35 -3.3 L-3.45 -3.2 -3.7 -2.7 -3.6 -3.05 Q-3.55 -3.25 -3.35 -3.3" fill="#26375a" fill-rule="evenodd" stroke="none"/>
    <path d="M-3.25 -3.0 L-3.05 -3.25 -2.9 -3.1 -3.25 -3.0" fill="#1e3054" fill-rule="evenodd" stroke="none"/>
    <path d="M-2.35 -2.0 Q-2.25 -1.95 -2.35 -1.85 -2.45 -1.75 -2.55 -1.8 L-2.5 -1.95 -2.35 -2.0" fill="#535f8a" fill-rule="evenodd" stroke="none"/>
    <path d="M3.55 0.3 L3.65 0.5 3.4 0.85 2.35 1.6 1.25 2.25 1.2 2.15 1.15 2.05 0.95 2.05 1.2 2.15 0.85 2.55 0.25 2.95 -0.35 3.35 -1.05 3.85 Q-1.5 4.1 -1.85 4.15 L-1.5 3.45 Q-1.75 3.65 -1.9 3.95 L-2.3 3.8 Q-2.4 3.3 -2.65 3.0 L-2.35 2.85 -2.15 2.7 -2.0 2.4 -1.9 2.1 -1.65 2.1 -1.95 1.95 -2.05 2.25 -2.2 2.55 -2.4 2.75 -2.65 2.9 -2.7 3.0 -2.55 3.6 -2.7 3.6 -2.8 2.85 -2.65 2.65 -2.55 2.5 -2.85 2.5 -2.6 2.3 -2.45 2.6 -2.4 2.15 -2.35 1.7 -1.95 1.75 -1.6 1.75 -1.6 1.75 -1.55 1.8 -1.5 1.85 -1.35 1.95 -1.0 1.8 -0.9 2.1 Q-0.7 2.15 -0.5 1.95 -0.4 1.85 -0.25 1.6 -0.25 1.5 -0.35 1.4 L-0.55 1.3 -0.4 1.05 -0.5 0.95 -0.1 0.95 -0.25 1.2 Q0.05 1.1 0.2 0.75 L-0.15 0.5 -0.15 0.35 1.1 0.35 2.4 0.35 2.95 0.35 3.55 0.3 M1.25 1.1 L1.35 0.85 Q1.05 0.8 0.95 0.9 L1.05 1.1 1.25 1.1 M0.9 1.6 L0.9 1.8 1.0 2.0 Q1.1 2.0 1.15 1.9 L1.2 1.75 0.9 1.6 M0.3 1.5 L0.3 1.75 0.35 2.0 0.25 2.1 0.35 2.15 0.45 1.95 0.65 2.0 Q0.65 1.7 0.55 1.5 0.45 1.45 0.3 1.5 M0.25 2.0 L0.15 1.45 -0.15 1.5 -0.15 1.9 0.25 2.0 M-2.8 -1.45 L-2.15 -1.7 Q-2.45 -1.4 -2.8 -1.45" fill="#6d7da8" fill-rule="evenodd" stroke="none"/>
    <path d="M-3.8 -1.6 Q-3.7 -1.6 -3.75 -1.55 -3.75 -1.45 -3.85 -1.5 -3.9 -1.5 -3.9 -1.55 L-3.8 -1.6" fill="#5773a1" fill-rule="evenodd" stroke="none"/>
    <path d="M-2.55 -0.65 Q-2.8 -0.55 -3.1 -0.55 -3.0 -0.65 -2.85 -0.65 L-2.55 -0.65" fill="#577199" fill-rule="evenodd" stroke="none"/>
    <path d="M1.25 1.1 L1.05 1.1 0.95 0.9 Q1.05 0.8 1.35 0.85 L1.25 1.1 M-0.75 -2.0 Q-0.8 -2.05 -0.75 -2.15 L-0.65 -2.2 Q-0.55 -2.2 -0.6 -2.05 -0.7 -1.95 -0.75 -2.0" fill="#b5bcc3" fill-rule="evenodd" stroke="none"/>
    <path d="M-1.25 -1.95 Q-1.35 -1.95 -1.35 -2.05 -1.3 -2.1 -1.2 -2.05 -1.15 -2.05 -1.15 -2.0 -1.2 -1.95 -1.25 -1.95" fill="#787e9b" fill-rule="evenodd" stroke="none"/>
    <path d="M-1.15 -0.1 Q-1.05 -0.05 -1.1 0.0 -1.1 0.05 -1.2 0.05 -1.3 0.05 -1.25 -0.05 -1.25 -0.1 -1.15 -0.1" fill="#62799f" fill-rule="evenodd" stroke="none"/>
    <path d="M-0.25 -2.75 L0.05 -2.8 -0.25 -2.55 -0.6 -2.3 -0.25 -2.75" fill="#4f5b89" fill-rule="evenodd" stroke="none"/>
    <path d="M-7.3 1.5 L-7.4 1.5 -6.8 1.35 -7.3 1.3 -6.85 1.25 -7.5 1.15 Q-7.45 0.75 -7.45 0.45 L-7.6 1.05 -7.85 1.0 -7.9 0.9 -8.15 0.65 -8.05 0.5 Q-8.0 0.4 -7.9 0.4 L-7.5 0.35 -7.1 0.4 Q-7.15 0.7 -7.3 1.0 -7.15 0.9 -7.05 0.7 -7.0 0.55 -7.0 0.35 -6.5 0.4 -6.25 0.35 L-6.0 0.35 -5.8 0.5 -5.6 0.35 -5.6 1.4 -5.5 0.9 -5.5 0.35 -5.05 0.3 Q-5.3 0.85 -5.15 1.4 -5.2 1.55 -5.15 1.65 L-4.95 1.85 -4.75 1.55 Q-4.7 1.4 -4.65 1.25 L-4.55 0.85 Q-4.45 0.65 -4.25 0.55 -4.15 0.6 -3.9 0.75 L-3.95 0.35 -3.65 0.35 -3.5 1.45 -3.2 1.4 -3.4 1.15 -3.55 0.85 -3.55 0.35 -3.3 0.35 -3.25 0.85 -3.15 0.65 -3.05 0.8 -2.95 0.45 -2.7 0.2 -2.6 0.5 -2.3 0.35 -2.0 0.3 -1.55 0.35 -1.05 0.35 -0.6 0.35 Q-0.35 0.4 -0.15 0.5 L0.2 0.75 -0.1 0.95 -0.5 0.95 -0.75 1.6 -0.85 1.75 -0.85 1.55 -1.05 1.7 -1.05 1.6 -1.05 1.5 Q-1.35 1.7 -1.7 1.7 L-1.6 1.75 -1.6 1.75 -1.95 1.75 -2.35 1.7 -2.45 1.7 -2.55 2.2 -2.8 2.1 -2.7 2.3 -2.9 2.35 -2.85 2.6 -2.65 2.65 -2.8 2.85 -3.15 2.8 -3.45 2.8 Q-3.55 2.85 -3.6 2.9 L-3.7 3.0 -4.0 3.0 -3.85 2.55 -4.1 2.85 -4.4 2.75 -4.25 2.5 -4.05 2.3 -3.7 2.15 -3.9 2.05 -4.2 2.35 -4.5 2.6 -4.85 2.5 Q-5.2 2.3 -5.4 2.25 L-5.9 1.95 Q-5.7 1.75 -5.65 1.45 -5.65 1.25 -5.7 0.9 L-5.75 1.35 Q-5.8 1.6 -5.9 1.75 -6.05 1.85 -6.25 1.8 L-6.6 1.65 Q-6.7 1.55 -6.95 1.55 L-7.3 1.5 M-1.25 0.55 Q-1.35 0.45 -1.5 0.4 L-1.85 0.4 Q-2.0 0.45 -2.25 0.7 L-2.65 1.0 -2.5 1.3 -2.25 0.9 Q-2.1 0.65 -1.95 0.55 -1.8 0.5 -1.65 0.5 L-1.35 0.55 -1.75 0.6 -1.75 0.75 -1.45 0.7 Q-2.1 1.1 -1.95 1.55 L-1.85 1.3 -1.75 1.1 -1.55 0.95 -1.35 0.85 -1.2 1.0 -1.15 0.75 Q-1.15 0.6 -1.25 0.55 M-3.45 2.1 L-3.45 1.85 Q-3.6 2.05 -3.55 2.35 -3.45 2.25 -3.45 2.1 M-4.8 1.7 L-4.85 1.85 -4.65 1.75 -4.75 1.95 -4.8 2.15 -4.8 2.3 -4.75 2.45 -4.75 2.25 -4.7 2.05 -4.6 1.8 Q-4.55 1.65 -4.7 1.6 L-4.8 1.7 M-4.5 1.95 Q-4.5 2.1 -4.4 2.3 L-4.3 1.6 Q-4.45 1.75 -4.5 1.95 M-6.5 0.95 L-6.25 0.8 -6.4 0.6 -6.5 0.95 Q-6.7 0.85 -6.9 0.9 -7.1 0.95 -7.2 1.1 L-6.85 1.05 -6.5 0.95 M-6.2 0.55 L-6.15 0.95 Q-6.15 1.2 -6.2 1.35 L-6.35 1.35 -6.4 1.65 -6.25 1.5 -6.1 1.35 Q-6.0 0.95 -6.2 0.55" fill="#5d75a5" fill-rule="evenodd" stroke="none"/>
    <path d="M0.2 0.75 Q0.05 1.1 -0.25 1.2 L-0.1 0.95 0.2 0.75" fill="#29375a" fill-rule="evenodd" stroke="none"/>
    <path d="M-1.25 0.55 Q-1.15 0.6 -1.15 0.75 L-1.2 1.0 -1.35 0.85 -1.55 0.95 -1.75 1.1 -1.85 1.3 -1.95 1.55 Q-2.1 1.1 -1.45 0.7 L-1.75 0.75 -1.75 0.6 -1.35 0.55 -1.65 0.5 Q-1.8 0.5 -1.95 0.55 -2.1 0.65 -2.25 0.9 L-2.5 1.3 -2.65 1.0 -2.25 0.7 Q-2.0 0.45 -1.85 0.4 L-1.5 0.4 Q-1.35 0.45 -1.25 0.55" fill="#3e4f84" fill-rule="evenodd" stroke="none"/>
    <path d="M-0.55 1.3 L-0.35 1.4 Q-0.25 1.5 -0.25 1.6 -0.4 1.85 -0.5 1.95 -0.7 2.15 -0.9 2.1 L-1.0 1.8 -1.35 1.95 -1.5 1.85 -1.05 1.6 -1.05 1.7 -0.85 1.55 -0.85 1.75 -0.75 1.6 -0.55 1.3" fill="#8f92ad" fill-rule="evenodd" stroke="none"/>
    <path d="M0.25 2.0 L-0.15 1.9 -0.15 1.5 0.15 1.45 0.25 2.0 M-2.35 4.65 L-2.3 4.4 -2.15 4.15 Q-2.15 4.3 -2.2 4.45 -2.25 4.55 -2.35 4.65 M-0.95 7.7 L-1.1 7.6 -0.55 7.45 Q-0.75 7.6 -0.95 7.7" fill="#8d8cad" fill-rule="evenodd" stroke="none"/>
    <path d="M-2.95 0.45 L-3.05 0.8 -3.15 0.65 -3.25 0.85 -3.3 0.35 -2.95 0.45" fill="#3d538b" fill-rule="evenodd" stroke="none"/>
    <path d="M-3.95 0.35 L-3.9 0.75 Q-4.15 0.6 -4.25 0.55 -4.45 0.65 -4.55 0.85 L-4.65 1.25 Q-4.7 1.4 -4.75 1.55 L-4.95 1.85 -5.15 1.65 Q-5.2 1.55 -5.15 1.4 L-5.1 1.1 -5.1 0.8 Q-5.1 0.65 -5.0 0.55 L-4.85 0.3 -4.95 0.85 Q-4.95 1.15 -4.9 1.35 L-4.85 0.85 Q-4.8 0.55 -4.75 0.35 L-3.95 0.35" fill="#526e9f" fill-rule="evenodd" stroke="none"/>
    <path d="M-3.45 2.1 Q-3.45 2.25 -3.55 2.35 -3.6 2.05 -3.45 1.85 L-3.45 2.1" fill="#254063" fill-rule="evenodd" stroke="none"/>
    <path d="M-2.55 3.6 L-2.7 3.0 -2.65 3.0 Q-2.4 3.3 -2.3 3.8 L-2.55 3.6" fill="#475a8d" fill-rule="evenodd" stroke="none"/>
    <path d="M-2.8 2.85 L-2.7 3.6 -2.75 3.6 -2.75 3.6 -2.8 3.6 -2.85 3.35 -3.05 3.15 Q-3.15 3.0 -3.25 2.95 L-3.45 2.95 -3.65 3.0 -3.7 3.0 -3.6 2.9 Q-3.55 2.85 -3.45 2.8 L-3.15 2.8 -2.8 2.85" fill="#405280" fill-rule="evenodd" stroke="none"/>
    <path d="M-3.65 3.0 L-3.45 2.95 -3.25 2.95 Q-3.15 3.0 -3.05 3.15 L-2.85 3.35 -3.05 3.4 -3.2 3.3 -3.3 3.15 -3.7 3.3 -3.65 3.0" fill="#677aa7" fill-rule="evenodd" stroke="none"/>
    <path d="M-3.2 3.55 Q-3.3 3.7 -3.55 3.8 L-3.7 3.5 -3.45 3.6 -3.2 3.55" fill="#465f91" fill-rule="evenodd" stroke="none"/>
    <path d="M-3.95 3.75 L-3.35 3.9 -3.65 3.9 Q-3.85 3.85 -3.95 3.75" fill="#53658e" fill-rule="evenodd" stroke="none"/>
    <path d="M-3.45 4.15 Q-3.8 4.2 -4.0 4.05 -3.7 4.05 -3.45 4.15" fill="#6778a3" fill-rule="evenodd" stroke="none"/>
    <path d="M-1.8 4.35 Q-1.85 4.45 -1.95 4.5 -2.05 4.5 -2.05 4.4 L-1.95 4.3 Q-1.8 4.25 -1.8 4.35" fill="#5f6f9c" fill-rule="evenodd" stroke="none"/>
    <path d="M-4.5 1.95 Q-4.45 1.75 -4.3 1.6 L-4.4 2.3 Q-4.5 2.1 -4.5 1.95" fill="#314675" fill-rule="evenodd" stroke="none"/>
    <path d="M-6.5 0.95 L-6.4 0.6 -6.25 0.8 -6.5 0.95" fill="#243255" fill-rule="evenodd" stroke="none"/>
    <path d="M-6.5 0.95 L-6.85 1.05 -7.2 1.1 Q-7.1 0.95 -6.9 0.9 -6.7 0.85 -6.5 0.95" fill="#1b2b4b" fill-rule="evenodd" stroke="none"/>
    <path d="M-7.55 0.05 Q-7.5 -0.05 -7.45 0.0 -7.35 0.0 -7.35 0.05 -7.4 0.1 -7.5 0.1 L-7.55 0.05" fill="#5d74a0" fill-rule="evenodd" stroke="none"/>
    <path d="M-7.7 1.6 L-7.4 2.0 -6.7 2.95 -6.0 3.9 -5.6 4.4 Q-5.35 4.7 -5.25 4.95 -5.5 4.8 -5.75 4.5 L-6.1 4.0 -7.15 2.65 -8.1 1.25 -8.0 1.25 -7.7 1.6" fill="#2e353f" fill-rule="evenodd" stroke="none"/>
    <path d="M-7.95 1.7 L-7.5 2.3 -7.1 2.9 Q-6.9 3.1 -6.8 3.45 L-7.2 3.05 -7.55 2.6 -8.1 1.85 -7.95 1.7" fill="#65748a" fill-rule="evenodd" stroke="none"/>
    <path d="M-2.9 7.9 L-3.65 6.95 -4.4 6.0 -4.85 5.45 -5.25 4.85 -5.1 4.75 -4.5 5.5 -3.95 6.25 -3.6 6.85 -3.15 7.4 Q-3.05 7.6 -2.9 7.9" fill="#8193b0" fill-rule="evenodd" stroke="none"/>
    <path d="M-4.35 6.75 L-5.2 5.7 -6.0 4.6 -6.45 3.95 Q-6.15 4.1 -5.95 4.4 L-5.1 5.5 Q-4.6 6.1 -4.25 6.6 L-4.35 6.75" fill="#6a7a91" fill-rule="evenodd" stroke="none"/>
    <path d="M-1.35 9.95 L-1.5 10.25 Q-1.8 10.2 -1.9 10.0 L-3.15 8.4 -4.35 6.75 -4.25 6.6 -3.95 6.9 -3.65 7.25 -2.95 8.2 -2.45 8.8 Q-2.2 9.2 -2.05 9.5 -1.9 9.75 -1.6 10.0 L-1.6 10.1 -1.35 9.95" fill="#7b8ca7" fill-rule="evenodd" stroke="none"/>
    <path d="M-2.6 5.8 Q-2.55 5.75 -2.3 5.65 L-2.2 5.75 -2.5 5.85 Q-2.65 5.95 -2.7 6.1 L-2.8 6.1 Q-2.8 5.9 -2.6 5.8" fill="#354e7a" fill-rule="evenodd" stroke="none"/>
    <path d="M-1.5 9.5 L-1.55 9.6 -1.95 9.25 -2.25 8.8 -2.6 8.35 -2.9 7.9 Q-3.05 7.6 -3.15 7.4 L-3.6 6.85 -3.95 6.25 -3.35 7.0 -2.75 7.8 -2.15 8.55 Q-1.8 9.05 -1.55 9.3 L-1.6 9.4 -1.5 9.5" fill="#5a677b" fill-rule="evenodd" stroke="none"/>
    <path d="M-2.35 4.85 Q-2.45 5.2 -2.65 5.25 -2.6 4.95 -2.35 4.85" fill="#5c5d83" fill-rule="evenodd" stroke="none"/>
    <path d="M-0.35 3.35 L0.25 2.95 0.85 2.55 1.2 2.15 0.95 2.05 1.15 2.05 1.2 2.15 1.25 2.25 2.35 1.6 3.4 0.85 1.05 4.95 0.6 4.7 Q0.35 4.55 0.15 4.5 L0.15 3.85 0.0 4.0 Q-0.05 3.65 -0.35 3.35 M0.85 3.0 Q0.6 2.95 0.4 3.1 L0.15 3.45 0.45 3.2 Q0.7 3.05 0.85 3.0 M0.45 3.75 Q0.35 3.75 0.35 3.8 0.35 3.9 0.4 3.9 0.5 3.9 0.5 3.8 0.55 3.7 0.45 3.75" fill="#262a3f" fill-rule="evenodd" stroke="none"/>
    <path d="M0.9 1.6 L1.2 1.75 1.15 1.9 Q1.1 2.0 1.0 2.0 L0.9 1.8 0.9 1.6" fill="#cdcbc4" fill-rule="evenodd" stroke="none"/>
    <path d="M0.3 1.5 Q0.45 1.45 0.55 1.5 0.65 1.7 0.65 2.0 L0.45 1.95 0.35 2.15 0.25 2.1 0.35 2.0 0.3 1.75 0.3 1.5" fill="#a6a3b9" fill-rule="evenodd" stroke="none"/>
    <path d="M0.85 3.0 Q0.7 3.05 0.45 3.2 L0.15 3.45 0.4 3.1 Q0.6 2.95 0.85 3.0" fill="#516084" fill-rule="evenodd" stroke="none"/>
    <path d="M0.45 3.75 Q0.55 3.7 0.5 3.8 0.5 3.9 0.4 3.9 0.35 3.9 0.35 3.8 0.35 3.75 0.45 3.75" fill="#9f9aa0" fill-rule="evenodd" stroke="none"/>
    <path d="M-0.7 -8.5 Q-0.8 -8.75 -1.0 -9.15 L-1.4 -9.75 -1.35 -9.75 -1.65 -9.8 Q-1.8 -9.75 -1.9 -9.65 L-4.4 -6.4 -5.25 -5.25 -6.15 -4.1 -7.5 -2.25 -8.9 -0.45 -9.3 0.1 Q-9.35 0.2 -9.35 0.35 L-9.35 0.55 -9.35 0.55 -6.55 4.2 -1.85 10.35 Q-1.8 10.45 -1.65 10.5 L-1.4 10.45 -1.2 10.1 -1.0 9.8 1.45 5.6 3.85 1.4 4.15 1.0 4.35 0.5 Q4.4 0.25 4.25 -0.1 4.0 -0.45 3.9 -0.65 L3.6 -1.15 Q3.45 -1.5 3.25 -1.65 L2.9 -2.35 2.5 -3.0 2.4 -3.25 2.25 -3.5 1.9 -4.1 1.5 -4.7 1.3 -5.1 1.1 -5.5 0.05 -7.25 -0.3 -7.9 -0.7 -8.5 Z" fill="none" stroke="#000000" stroke-linecap="round" stroke-linejoin="round" stroke-opacity="0.4509804" stroke-width="0.1"/>
  </g>
</svg>
