<?xml version="1.0" encoding="UTF-8" standalone="no"?>
<svg xmlns:xlink="http://www.w3.org/1999/xlink" height="4.4px" width="4.4px" xmlns="http://www.w3.org/2000/svg">
  <g transform="matrix(1.0, 0.0, 0.0, 1.0, 2.2, 2.2)">
    <path d="M1.05 -1.65 L1.15 -1.6 1.2 -1.55 Q1.15 -1.5 1.1 -1.5 L1.0 -1.55 Q1.0 -1.5 0.95 -1.55 L0.9 -1.6 0.8 -1.65 0.75 -1.7 Q0.7 -1.7 0.65 -1.75 0.6 -1.8 0.65 -1.8 L0.85 -1.75 0.95 -1.7 Q1.0 -1.65 1.05 -1.65 M1.1 -1.55 L1.1 -1.6 1.0 -1.65 Q0.95 -1.6 1.0 -1.55 L1.05 -1.55 1.1 -1.55" fill="#c3ffff" fill-rule="evenodd" stroke="none"/>
    <path d="M1.05 -1.65 Q1.0 -1.65 0.95 -1.7 L0.85 -1.75 0.65 -1.8 Q0.6 -1.8 0.65 -1.75 0.7 -1.7 0.75 -1.7 L0.8 -1.65 0.9 -1.6 0.95 -1.55 Q1.0 -1.5 1.0 -1.55 L1.1 -1.5 Q1.15 -1.5 1.2 -1.55 L1.15 -1.6 1.05 -1.65 M1.15 -1.65 Q1.65 -1.25 1.85 -0.8 L1.9 -0.7 1.95 -0.7 2.1 -0.75 2.2 -0.7 2.2 -0.5 2.15 -0.55 2.1 -0.55 2.05 -0.55 2.0 -0.55 2.0 -0.6 1.9 -0.65 1.85 -0.7 1.85 -0.75 1.8 -0.9 1.7 -1.05 1.65 -1.15 1.55 -1.2 1.5 -1.1 Q1.5 -1.05 1.55 -1.0 1.5 -0.95 1.55 -0.9 L1.65 -0.85 1.7 -0.75 1.65 -0.7 Q1.65 -0.7 1.6 -0.7 L1.65 -0.7 1.65 -0.75 1.6 -0.85 1.5 -0.85 1.45 -0.8 Q1.4 -0.75 1.5 -0.7 L1.55 -0.65 1.45 -0.7 Q1.45 -0.7 1.45 -0.6 1.45 -0.6 1.5 -0.6 L1.55 -0.6 1.55 -0.55 Q1.55 -0.5 1.55 -0.45 L1.55 -0.4 Q1.55 -0.35 1.5 -0.35 L1.4 -0.4 1.25 -0.4 1.2 -0.35 1.2 -0.25 Q1.15 -0.25 1.1 -0.3 1.05 -0.35 1.1 -0.4 1.1 -0.5 1.2 -0.6 L1.3 -0.65 1.35 -0.7 1.4 -0.75 1.35 -0.8 1.3 -0.75 1.2 -0.7 1.15 -0.7 1.05 -0.65 1.15 -0.7 1.3 -0.8 1.45 -0.85 1.5 -0.95 1.45 -1.05 Q1.35 -1.05 1.3 -1.1 L1.2 -1.2 1.1 -1.3 1.1 -1.35 Q1.1 -1.4 1.15 -1.4 1.15 -1.35 1.25 -1.3 L1.3 -1.25 1.4 -1.15 Q1.4 -1.1 1.45 -1.1 L1.5 -1.2 1.45 -1.25 1.35 -1.35 1.25 -1.45 1.15 -1.5 1.0 -1.5 0.95 -1.5 0.9 -1.5 0.9 -1.55 0.8 -1.6 Q0.75 -1.7 0.65 -1.65 L0.6 -1.75 0.6 -1.8 0.55 -1.8 0.45 -1.8 0.5 -1.85 0.5 -1.9 0.6 -1.9 0.7 -1.9 0.85 -1.8 1.0 -1.75 1.15 -1.65 M0.65 -1.0 L0.6 -0.95 0.6 -0.85 Q0.65 -0.85 0.7 -0.8 L0.8 -0.75 0.85 -0.7 0.9 -0.6 0.95 -0.6 1.05 -0.65 0.95 -0.6 0.85 -0.55 0.9 -0.45 0.9 -0.35 0.7 -0.45 0.65 -0.5 0.55 -0.5 0.55 -0.55 0.5 -0.55 0.5 -0.6 0.45 -0.7 0.4 -0.75 Q0.4 -0.85 0.3 -0.85 L0.15 -0.85 Q0.1 -0.85 0.1 -0.9 L0.15 -1.0 0.3 -0.95 0.55 -0.85 0.6 -0.95 0.65 -1.0 0.7 -1.1 Q0.75 -1.15 0.75 -1.2 0.65 -1.2 0.65 -1.1 L0.6 -1.0 0.5 -1.0 0.4 -1.0 Q0.25 -1.05 0.2 -1.15 L0.1 -1.15 0.1 -1.15 0.05 -1.15 0.0 -1.15 -0.1 -1.15 -0.15 -1.15 -0.25 -1.05 -0.4 -1.05 -0.45 -1.0 -0.55 -1.0 -0.6 -1.05 -0.6 -1.15 -0.7 -1.2 -0.75 -1.3 -0.8 -1.35 -0.8 -1.2 -0.7 -1.1 Q-0.7 -1.0 -0.75 -0.95 L-0.8 -0.95 -0.8 -0.95 -0.85 -0.9 -0.9 -0.85 -0.9 -0.8 -0.85 -0.75 -0.9 -0.7 -0.9 -0.6 -0.95 -0.6 -1.0 -0.6 -1.05 -0.65 -1.25 -0.75 -1.45 -0.85 Q-1.5 -0.9 -1.5 -0.95 L-1.4 -1.05 Q-1.35 -1.05 -1.3 -1.05 L-1.25 -1.15 -1.2 -1.2 -1.1 -1.25 -1.05 -1.35 -1.05 -1.45 -0.9 -1.45 -0.9 -1.55 -0.8 -1.6 -0.65 -1.7 Q-0.6 -1.75 -0.55 -1.85 L-0.75 -1.85 -0.9 -1.8 -1.0 -1.8 -1.0 -1.9 -1.05 -1.9 -1.1 -1.95 -1.15 -2.0 Q-1.15 -1.95 -1.2 -1.95 L-1.3 -1.95 -1.35 -2.0 -1.35 -1.95 Q-1.35 -1.9 -1.3 -1.9 L-1.25 -1.9 -1.2 -1.9 -1.2 -1.85 -1.15 -1.8 -1.1 -1.7 -1.2 -1.65 Q-1.25 -1.6 -1.3 -1.6 L-1.35 -1.55 -1.4 -1.55 -1.4 -1.55 -1.45 -1.6 -1.45 -1.65 -1.4 -1.65 -1.35 -1.7 -1.35 -1.8 -1.45 -1.8 Q-1.5 -1.8 -1.55 -1.85 L-1.6 -1.9 -1.6 -2.0 -1.5 -2.05 -1.45 -2.1 -1.4 -2.0 -1.3 -2.0 -1.2 -1.95 Q-1.15 -2.0 -1.2 -2.05 L-1.25 -2.05 -1.3 -2.1 -1.25 -2.15 -1.25 -2.15 -1.2 -2.15 -1.05 -2.1 Q-0.95 -2.05 -0.95 -2.0 L-0.95 -1.95 -0.9 -1.9 Q-0.9 -1.85 -0.8 -1.85 L-0.65 -1.9 -0.55 -1.9 -0.5 -1.85 Q-0.45 -1.8 -0.5 -1.8 L-0.55 -1.8 -0.55 -1.75 -0.6 -1.7 -0.6 -1.65 -0.65 -1.65 -0.7 -1.65 Q-0.75 -1.6 -0.8 -1.6 L-0.85 -1.55 -0.85 -1.45 -0.8 -1.4 -0.65 -1.2 -0.5 -1.05 -0.45 -1.05 -0.35 -1.05 Q-0.25 -1.1 -0.2 -1.15 L-0.25 -1.25 -0.25 -1.35 Q-0.3 -1.45 -0.25 -1.55 L-0.2 -1.55 -0.2 -1.45 -0.15 -1.35 -0.1 -1.2 -0.05 -1.15 0.1 -1.15 0.15 -1.25 0.15 -1.35 0.2 -1.45 0.25 -1.55 0.3 -1.55 0.3 -1.45 0.25 -1.3 0.2 -1.15 Q0.25 -1.1 0.35 -1.05 L0.55 -1.05 0.6 -1.1 0.65 -1.2 0.7 -1.25 0.75 -1.3 0.8 -1.3 0.65 -1.0 M0.3 -1.45 L0.3 -1.45 0.25 -1.5 0.2 -1.4 0.2 -1.35 Q0.25 -1.35 0.25 -1.35 L0.3 -1.4 0.3 -1.45 M-1.35 -2.2 L-1.35 -2.15 -1.45 -2.1 -1.45 -2.15 -1.55 -2.2 -1.35 -2.2 M-1.45 -2.1 L-1.45 -2.1 M-1.05 -0.65 L-1.05 -0.65 M0.4 -1.0 L0.4 -1.0 M1.5 -0.7 L1.5 -0.7 M0.7 -0.7 Q0.75 -0.6 0.85 -0.6 L0.8 -0.75 Q0.75 -0.8 0.65 -0.8 0.65 -0.8 0.65 -0.75 L0.7 -0.7 0.6 -0.8 0.45 -0.85 0.45 -0.75 0.5 -0.7 0.5 -0.65 Q0.5 -0.6 0.55 -0.6 L0.55 -0.55 0.6 -0.55 Q0.65 -0.5 0.65 -0.55 L0.75 -0.5 0.75 -0.45 0.8 -0.4 0.85 -0.4 0.85 -0.5 0.8 -0.5 0.8 -0.55 0.7 -0.6 0.7 -0.7 M-0.85 -1.25 L-0.85 -1.3 Q-0.85 -1.35 -0.9 -1.4 L-1.0 -1.45 -1.05 -1.35 Q-1.05 -1.25 -1.0 -1.25 L-0.95 -1.2 -0.9 -1.2 -0.85 -1.25 M-1.2 -1.15 L-1.25 -1.1 Q-1.25 -1.05 -1.35 -1.05 L-1.45 -1.0 Q-1.5 -0.9 -1.4 -0.85 L-1.25 -0.75 -1.0 -0.65 -0.95 -0.6 -0.9 -0.6 -0.95 -0.65 -1.0 -0.75 -1.0 -0.85 Q-0.95 -0.85 -0.9 -0.85 L-0.85 -0.95 -0.85 -1.05 -0.9 -1.1 -1.0 -1.1 Q-1.05 -1.1 -1.05 -1.15 L-1.1 -1.2 -1.15 -1.2 -1.2 -1.15" fill="#9bf6ff" fill-rule="evenodd" stroke="none"/>
    <path d="M1.1 -1.55 L1.05 -1.55 1.0 -1.55 Q0.95 -1.6 1.0 -1.65 L1.1 -1.6 1.1 -1.55" fill="#e5ffff" fill-rule="evenodd" stroke="none"/>
    <path d="M1.15 -1.65 L1.25 -1.55 1.4 -1.45 1.7 -1.15 1.9 -0.75 1.95 -0.7 1.9 -0.7 1.85 -0.8 Q1.65 -1.25 1.15 -1.65" fill="#7bccfc" fill-rule="evenodd" stroke="none"/>
    <path d="M1.95 -0.7 L1.9 -0.75 1.7 -1.15 1.4 -1.45 1.25 -1.55 1.15 -1.65 1.0 -1.75 0.25 -2.0 0.15 -2.0 0.05 -2.0 0.0 -2.0 0.0 -2.0 -0.05 -2.0 -0.4 -1.95 -0.8 -1.95 -0.85 -1.95 -0.8 -2.0 Q-0.75 -2.0 -0.8 -2.05 L-0.85 -2.05 -0.9 -2.05 Q-0.9 -2.05 -0.95 -2.05 L-1.0 -2.1 -1.05 -2.2 -0.75 -2.2 -0.7 -2.1 -0.7 -2.0 -0.55 -1.95 0.0 -2.05 Q0.45 -2.05 0.9 -1.85 1.35 -1.6 1.65 -1.25 L1.95 -0.75 1.95 -0.75 2.0 -0.75 2.05 -0.8 2.05 -0.75 Q2.1 -0.75 2.1 -0.8 L2.15 -0.85 2.2 -0.85 2.2 -0.8 2.1 -0.75 2.05 -0.75 2.0 -0.75 1.95 -0.7" fill="#6aace9" fill-rule="evenodd" stroke="none"/>
    <path d="M1.25 -1.45 L1.35 -1.35 1.45 -1.25 1.5 -1.2 1.5 -1.15 1.4 -1.15 1.35 -1.25 1.25 -1.3 1.15 -1.4 1.2 -1.45 1.25 -1.45" fill="#73bdf8" fill-rule="evenodd" stroke="none"/>
    <path d="M1.0 -1.5 L1.15 -1.5 1.25 -1.45 1.2 -1.45 1.15 -1.4 1.25 -1.3 1.35 -1.25 1.4 -1.15 1.5 -1.15 1.5 -1.2 1.45 -1.25 1.5 -1.2 1.45 -1.1 Q1.4 -1.1 1.4 -1.15 L1.3 -1.25 1.25 -1.3 Q1.15 -1.35 1.15 -1.4 1.1 -1.4 1.1 -1.35 L1.1 -1.3 1.1 -1.4 1.05 -1.45 1.0 -1.5 M1.05 -1.45 L1.05 -1.45" fill="#83dfff" fill-rule="evenodd" stroke="none"/>
    <path d="M1.1 -1.3 L1.2 -1.2 1.3 -1.1 Q1.35 -1.05 1.45 -1.05 L1.5 -0.95 1.45 -0.85 1.3 -0.8 1.15 -0.7 1.05 -0.65 0.95 -0.65 0.9 -0.65 0.8 -0.8 0.7 -0.85 0.65 -0.9 0.65 -1.0 0.8 -1.3 0.75 -1.3 0.8 -1.35 0.85 -1.4 0.9 -1.45 0.9 -1.55 0.85 -1.55 0.8 -1.6 0.9 -1.55 0.9 -1.5 0.95 -1.5 1.0 -1.5 1.05 -1.45 Q0.95 -1.5 0.85 -1.4 0.8 -1.35 0.8 -1.2 L0.75 -1.05 0.7 -0.9 Q0.7 -0.85 0.8 -0.85 L0.85 -0.75 0.95 -0.7 1.1 -0.7 1.25 -0.8 1.45 -0.85 1.45 -0.9 1.5 -0.95 Q1.5 -1.05 1.4 -1.05 1.35 -1.05 1.3 -1.1 L1.25 -1.15 1.15 -1.25 1.1 -1.3 1.05 -1.4 1.05 -1.45 1.1 -1.4 1.1 -1.3 M0.8 -1.6 L0.8 -1.6" fill="#78c6fb" fill-rule="evenodd" stroke="none"/>
    <path d="M1.05 -1.45 L1.05 -1.45 1.05 -1.4 1.1 -1.3 1.15 -1.25 1.25 -1.15 1.3 -1.1 Q1.35 -1.05 1.4 -1.05 1.5 -1.05 1.5 -0.95 L1.45 -0.9 1.45 -0.85 1.25 -0.8 1.1 -0.7 0.95 -0.7 0.85 -0.75 0.8 -0.85 Q0.7 -0.85 0.7 -0.9 L0.75 -1.05 0.8 -1.2 Q0.8 -1.35 0.85 -1.4 0.95 -1.5 1.05 -1.45 M1.05 -1.3 L1.05 -1.4 Q1.05 -1.45 1.0 -1.4 L0.9 -1.35 0.85 -1.25 0.8 -1.1 0.75 -0.95 0.75 -0.9 Q0.75 -0.85 0.8 -0.85 L0.9 -0.8 Q0.95 -0.7 1.0 -0.7 L1.25 -0.8 Q1.35 -0.85 1.45 -0.95 1.45 -1.0 1.4 -1.0 L1.35 -1.0 1.3 -1.0 1.2 -1.1 1.15 -1.2 Q1.05 -1.25 1.05 -1.3" fill="#69a9e6" fill-rule="evenodd" stroke="none"/>
    <path d="M1.05 -1.3 Q1.05 -1.25 1.15 -1.2 L1.2 -1.1 1.3 -1.0 1.35 -1.0 1.4 -1.0 Q1.45 -1.0 1.45 -0.95 1.35 -0.85 1.25 -0.8 L1.0 -0.7 Q0.95 -0.7 0.9 -0.8 L0.8 -0.85 Q0.75 -0.85 0.75 -0.9 L0.75 -0.95 0.8 -1.1 0.85 -1.25 0.9 -1.35 1.0 -1.4 Q1.05 -1.45 1.05 -1.4 L1.05 -1.3" fill="#5e95ca" fill-rule="evenodd" stroke="none"/>
    <path d="M2.2 -1.0 L2.1 -1.0 2.15 -1.05 2.15 -1.05 2.1 -1.05 2.1 -1.0 1.95 -1.05 1.95 -1.1 2.0 -1.1 2.0 -1.05 2.05 -1.05 2.1 -1.05 2.05 -1.1 2.05 -1.15 2.0 -1.2 Q1.95 -1.25 1.95 -1.3 L1.85 -1.35 1.75 -1.35 1.75 -1.25 Q1.7 -1.25 1.7 -1.25 L1.65 -1.35 Q1.55 -1.35 1.55 -1.4 L1.5 -1.5 0.95 -1.85 0.45 -2.0 -0.05 -2.05 -0.5 -2.05 -0.5 -2.2 2.2 -2.2 2.2 -1.0" fill="#598ebe" fill-rule="evenodd" stroke="none"/>
    <path d="M2.2 -0.85 L2.15 -0.85 2.1 -0.8 Q2.1 -0.75 2.05 -0.75 L2.05 -0.8 2.0 -0.75 1.95 -0.75 1.95 -0.75 1.65 -1.25 Q1.35 -1.6 0.9 -1.85 0.45 -2.05 0.0 -2.05 L-0.55 -1.95 -0.7 -2.0 -0.7 -2.1 -0.75 -2.2 -0.5 -2.2 -0.5 -2.05 -0.05 -2.05 0.45 -2.0 0.95 -1.85 1.5 -1.5 1.55 -1.4 Q1.55 -1.35 1.65 -1.35 L1.7 -1.25 Q1.7 -1.25 1.75 -1.25 L1.75 -1.35 1.85 -1.35 1.95 -1.3 Q1.95 -1.25 2.0 -1.2 L2.05 -1.15 2.05 -1.1 2.1 -1.05 2.05 -1.05 2.0 -1.05 2.0 -1.1 1.95 -1.1 1.95 -1.05 2.1 -1.0 2.1 -1.05 2.15 -1.05 2.15 -1.05 2.1 -1.0 2.2 -1.0 2.2 -0.85" fill="#5e97cc" fill-rule="evenodd" stroke="none"/>
    <path d="M-0.05 -2.0 L0.0 -2.0 0.0 -2.0 0.05 -2.0 0.15 -2.0 0.25 -2.0 0.7 -1.9 0.6 -1.9 0.5 -1.9 0.5 -1.85 0.45 -1.8 0.55 -1.8 0.6 -1.8 0.6 -1.75 0.65 -1.65 Q0.75 -1.7 0.8 -1.6 L0.8 -1.6 0.75 -1.65 0.75 -1.65 0.7 -1.65 0.65 -1.6 0.6 -1.65 0.6 -1.75 0.55 -1.75 0.5 -1.7 Q0.45 -1.7 0.45 -1.7 L0.45 -1.8 0.4 -1.85 0.35 -1.8 0.3 -1.75 0.3 -1.8 0.25 -1.8 0.1 -1.8 0.1 -1.75 0.05 -1.7 0.0 -1.7 -0.05 -1.75 -0.1 -1.75 -0.1 -1.8 -0.15 -1.85 -0.25 -1.8 -0.25 -1.75 -0.3 -1.75 -0.3 -1.75 -0.35 -1.8 -0.35 -1.85 -0.45 -1.85 -0.4 -1.75 Q-0.4 -1.7 -0.45 -1.7 L-0.5 -1.7 -0.55 -1.75 -0.6 -1.7 -0.65 -1.6 -0.75 -1.6 -0.85 -1.55 -0.85 -1.45 -0.8 -1.4 -0.85 -1.45 -0.85 -1.55 -0.8 -1.6 Q-0.75 -1.6 -0.7 -1.65 L-0.65 -1.65 -0.6 -1.65 -0.6 -1.7 -0.55 -1.75 -0.55 -1.8 -0.5 -1.8 Q-0.45 -1.8 -0.5 -1.85 L-0.55 -1.9 -0.65 -1.9 -0.35 -1.95 -0.05 -2.0 -0.1 -1.95 -0.2 -1.95 Q-0.3 -1.95 -0.3 -1.85 L-0.2 -1.85 -0.1 -1.85 0.0 -1.75 Q0.05 -1.7 0.1 -1.8 0.1 -1.85 0.2 -1.85 L0.3 -1.8 0.35 -1.9 0.3 -1.95 -0.05 -2.0" fill="#80e7ff" fill-rule="evenodd" stroke="none"/>
    <path d="M0.35 -1.9 L0.3 -1.8 0.2 -1.85 Q0.1 -1.85 0.1 -1.8 0.05 -1.7 0.0 -1.75 L-0.1 -1.85 -0.2 -1.85 -0.3 -1.85 Q-0.3 -1.95 -0.2 -1.95 L-0.1 -1.95 -0.05 -2.0 0.3 -1.95 0.35 -1.9" fill="#98fdff" fill-rule="evenodd" stroke="none"/>
    <path d="M0.25 -2.0 L1.0 -1.75 0.85 -1.8 0.7 -1.9 0.25 -2.0" fill="#73c8fb" fill-rule="evenodd" stroke="none"/>
    <path d="M0.75 -1.3 L0.7 -1.25 0.65 -1.2 0.55 -1.1 0.45 -1.05 0.4 -1.05 0.3 -1.1 Q0.25 -1.1 0.25 -1.2 L0.3 -1.3 0.3 -1.45 0.3 -1.45 0.3 -1.6 Q0.3 -1.7 0.3 -1.75 L0.35 -1.8 0.4 -1.85 0.45 -1.8 0.45 -1.7 Q0.45 -1.7 0.5 -1.7 L0.55 -1.75 0.6 -1.75 0.6 -1.65 0.65 -1.6 0.7 -1.65 0.75 -1.65 0.75 -1.65 0.8 -1.6 0.85 -1.55 0.9 -1.55 0.9 -1.45 0.85 -1.4 0.8 -1.35 0.75 -1.3 M0.35 -1.55 L0.35 -1.45 0.3 -1.3 0.25 -1.2 Q0.3 -1.1 0.35 -1.1 L0.5 -1.1 Q0.55 -1.1 0.6 -1.2 L0.7 -1.3 0.85 -1.4 0.85 -1.55 0.8 -1.6 0.7 -1.6 0.65 -1.6 0.55 -1.65 0.5 -1.7 0.45 -1.7 0.4 -1.7 0.35 -1.7 0.35 -1.55" fill="#6db4f3" fill-rule="evenodd" stroke="none"/>
    <path d="M0.3 -1.45 L0.3 -1.55 0.25 -1.55 0.2 -1.45 0.15 -1.35 0.15 -1.25 0.1 -1.15 -0.05 -1.15 -0.1 -1.2 -0.15 -1.35 -0.2 -1.45 -0.2 -1.55 -0.25 -1.55 Q-0.3 -1.45 -0.25 -1.35 L-0.25 -1.25 -0.2 -1.15 Q-0.25 -1.1 -0.35 -1.05 L-0.45 -1.05 -0.5 -1.05 -0.65 -1.2 -0.8 -1.4 -0.85 -1.45 -0.85 -1.55 -0.75 -1.6 -0.65 -1.6 -0.7 -1.55 -0.75 -1.45 -0.6 -1.2 -0.55 -1.1 -0.5 -1.05 -0.35 -1.1 Q-0.3 -1.1 -0.25 -1.15 L-0.25 -1.3 -0.3 -1.45 Q-0.25 -1.6 -0.3 -1.75 L-0.3 -1.75 -0.25 -1.75 -0.25 -1.8 -0.15 -1.85 -0.1 -1.8 -0.1 -1.75 -0.05 -1.75 0.0 -1.7 -0.1 -1.75 -0.15 -1.8 -0.2 -1.8 -0.2 -1.8 -0.25 -1.75 -0.25 -1.7 -0.2 -1.55 -0.1 -1.35 -0.1 -1.25 -0.05 -1.2 0.05 -1.2 0.1 -1.25 0.15 -1.4 0.25 -1.6 0.25 -1.7 Q0.3 -1.8 0.2 -1.8 L0.15 -1.8 0.15 -1.75 0.1 -1.75 0.1 -1.8 0.25 -1.8 0.3 -1.8 0.3 -1.75 Q0.3 -1.7 0.3 -1.6 L0.3 -1.45" fill="#7bcdfe" fill-rule="evenodd" stroke="none"/>
    <path d="M0.35 -1.55 L0.35 -1.7 0.4 -1.7 0.45 -1.7 0.5 -1.7 0.55 -1.65 0.65 -1.6 0.7 -1.6 0.8 -1.6 0.85 -1.55 0.85 -1.4 0.7 -1.3 0.6 -1.2 Q0.55 -1.1 0.5 -1.1 L0.35 -1.1 Q0.3 -1.1 0.25 -1.2 L0.3 -1.3 0.35 -1.45 0.35 -1.55 M0.45 -1.65 L0.4 -1.7 0.35 -1.5 0.35 -1.3 0.4 -1.25 0.5 -1.25 0.55 -1.2 0.55 -1.2 0.7 -1.35 0.85 -1.5 0.75 -1.55 0.7 -1.55 Q0.65 -1.55 0.6 -1.6 L0.55 -1.65 0.5 -1.65 0.45 -1.65" fill="#629dd6" fill-rule="evenodd" stroke="none"/>
    <path d="M0.45 -1.65 L0.5 -1.65 0.55 -1.65 0.6 -1.6 Q0.65 -1.55 0.7 -1.55 L0.75 -1.55 0.85 -1.5 0.7 -1.35 0.55 -1.2 0.55 -1.2 0.5 -1.25 0.4 -1.25 0.35 -1.3 0.35 -1.5 0.4 -1.7 0.45 -1.65" fill="#5a8fc2" fill-rule="evenodd" stroke="none"/>
    <path d="M0.1 -1.75 L0.15 -1.75 0.15 -1.8 0.2 -1.8 Q0.3 -1.8 0.25 -1.7 L0.25 -1.6 0.15 -1.4 0.1 -1.25 0.05 -1.2 -0.05 -1.2 -0.1 -1.25 -0.1 -1.35 -0.2 -1.55 -0.25 -1.7 -0.25 -1.75 -0.2 -1.8 -0.2 -1.8 -0.15 -1.8 -0.1 -1.75 0.0 -1.7 0.05 -1.7 0.1 -1.75 M0.1 -1.7 Q0.05 -1.65 0.0 -1.7 L-0.1 -1.7 -0.2 -1.75 -0.2 -1.6 -0.1 -1.45 -0.05 -1.25 0.05 -1.25 0.1 -1.3 0.15 -1.4 0.2 -1.55 Q0.25 -1.65 0.2 -1.75 L0.1 -1.7" fill="#69abeb" fill-rule="evenodd" stroke="none"/>
    <path d="M0.1 -1.7 L0.2 -1.75 Q0.25 -1.65 0.2 -1.55 L0.15 -1.4 0.1 -1.3 0.05 -1.25 -0.05 -1.25 -0.1 -1.45 -0.2 -1.6 -0.2 -1.75 -0.1 -1.7 0.0 -1.7 Q0.05 -1.65 0.1 -1.7" fill="#5d95cb" fill-rule="evenodd" stroke="none"/>
    <path d="M0.25 -1.5 L0.3 -1.45 0.3 -1.4 0.25 -1.35 Q0.25 -1.35 0.2 -1.35 L0.2 -1.4 0.25 -1.5" fill="#bdfeff" fill-rule="evenodd" stroke="none"/>
    <path d="M0.65 -1.2 L0.6 -1.1 0.55 -1.05 0.35 -1.05 Q0.25 -1.1 0.2 -1.15 L0.25 -1.3 0.3 -1.45 0.3 -1.3 0.25 -1.2 Q0.25 -1.1 0.3 -1.1 L0.4 -1.05 0.45 -1.05 0.55 -1.1 0.65 -1.2" fill="#7fcffe" fill-rule="evenodd" stroke="none"/>
    <path d="M0.05 -1.15 L0.1 -1.15 0.1 -1.15 0.2 -1.15 Q0.25 -1.05 0.4 -1.0 L0.5 -1.0 0.6 -1.0 0.65 -1.1 Q0.65 -1.2 0.75 -1.2 0.75 -1.15 0.7 -1.1 L0.65 -1.0 0.6 -0.95 0.55 -0.85 0.3 -0.95 0.15 -1.0 0.1 -0.9 Q0.1 -0.85 0.15 -0.85 L0.3 -0.85 Q0.4 -0.85 0.4 -0.75 L0.45 -0.7 0.5 -0.6 0.5 -0.55 0.55 -0.55 0.5 -0.6 0.4 -0.65 0.35 -0.6 0.35 -0.55 Q0.25 -0.5 0.2 -0.55 L0.15 -0.6 0.1 -0.65 0.2 -0.75 0.35 -0.75 0.35 -0.85 0.3 -0.85 0.2 -0.85 0.1 -0.85 Q0.05 -0.9 0.05 -0.95 L0.1 -1.0 0.2 -1.0 0.25 -1.05 0.15 -1.1 0.15 -1.1 0.15 -1.15 0.05 -1.15 M0.4 -1.0 L0.35 -1.0 0.3 -1.0 Q0.35 -0.9 0.5 -0.85 L0.55 -0.9 0.55 -0.95 0.4 -1.0 M0.2 -0.75 Q0.1 -0.7 0.15 -0.65 L0.2 -0.6 0.25 -0.55 0.35 -0.6 0.3 -0.7 0.2 -0.75" fill="#c9ffff" fill-rule="evenodd" stroke="none"/>
    <path d="M1.05 -0.65 L0.95 -0.6 0.9 -0.6 0.85 -0.7 0.8 -0.75 0.7 -0.8 Q0.65 -0.85 0.6 -0.85 L0.6 -0.95 0.65 -1.0 0.65 -0.9 0.7 -0.85 0.8 -0.8 0.9 -0.65 0.95 -0.65 1.05 -0.65 M-0.55 -0.75 L-0.55 -0.7 -0.5 -0.7 Q-0.5 -0.65 -0.55 -0.6 L-0.6 -0.55 -0.65 -0.6 -0.7 -0.65 -0.6 -0.75 -0.55 -0.75" fill="#89dcff" fill-rule="evenodd" stroke="none"/>
    <path d="M0.4 -1.0 L0.4 -1.0 0.55 -0.95 0.55 -0.9 0.5 -0.85 Q0.35 -0.9 0.3 -1.0 L0.35 -1.0 0.4 -1.0 M-0.3 -1.0 L-0.4 -0.9 -0.55 -0.85 -0.55 -0.95 -0.5 -1.0 -0.45 -1.0 -0.3 -1.0" fill="#f5ffff" fill-rule="evenodd" stroke="none"/>
    <path d="M0.7 -0.75 L0.7 -0.7 Q0.8 -0.6 0.8 -0.65 L0.8 -0.75 0.7 -0.75 0.7 -0.75 M0.7 -0.7 L0.65 -0.75 Q0.65 -0.8 0.65 -0.8 0.75 -0.8 0.8 -0.75 L0.85 -0.6 Q0.75 -0.6 0.7 -0.7" fill="#bcfeff" fill-rule="evenodd" stroke="none"/>
    <path d="M0.7 -0.75 L0.7 -0.75 0.8 -0.75 0.8 -0.65 Q0.8 -0.6 0.7 -0.7 L0.7 -0.75 M-1.1 -0.55 L-1.2 -0.6 -1.3 -0.7 -1.15 -0.7 -1.1 -0.65 -1.05 -0.6 -1.1 -0.55" fill="#edffff" fill-rule="evenodd" stroke="none"/>
    <path d="M0.7 -0.65 L0.65 -0.7 0.6 -0.8 0.5 -0.8 0.5 -0.75 0.55 -0.65 Q0.5 -0.6 0.55 -0.6 L0.65 -0.55 0.7 -0.65 M0.7 -0.7 L0.7 -0.6 0.8 -0.55 0.8 -0.5 0.85 -0.5 0.85 -0.4 0.8 -0.4 0.75 -0.45 0.75 -0.5 0.65 -0.55 Q0.65 -0.5 0.6 -0.55 L0.55 -0.55 0.55 -0.6 Q0.5 -0.6 0.5 -0.65 L0.5 -0.7 0.45 -0.75 0.45 -0.85 0.6 -0.8 0.7 -0.7" fill="#87d8ff" fill-rule="evenodd" stroke="none"/>
    <path d="M0.7 -0.65 L0.65 -0.55 0.55 -0.6 Q0.5 -0.6 0.55 -0.65 L0.5 -0.75 0.5 -0.8 0.6 -0.8 0.65 -0.7 0.7 -0.65" fill="#76bcf9" fill-rule="evenodd" stroke="none"/>
    <path d="M0.0 -1.15 L0.05 -1.15 0.15 -1.15 0.15 -1.1 0.15 -1.1 0.25 -1.05 0.2 -1.0 0.1 -1.0 0.05 -0.95 Q0.05 -0.9 0.1 -0.85 L0.2 -0.85 0.3 -0.85 0.35 -0.85 0.35 -0.75 0.2 -0.75 0.1 -0.65 0.15 -0.6 0.2 -0.55 Q0.25 -0.5 0.35 -0.55 L0.35 -0.6 0.4 -0.65 0.5 -0.6 0.55 -0.55 0.55 -0.5 0.6 -0.5 0.6 -0.4 Q0.6 -0.35 0.55 -0.35 L0.35 -0.45 0.1 -0.45 0.15 -0.4 0.2 -0.35 Q0.2 -0.35 0.25 -0.35 L0.3 -0.3 0.35 -0.2 0.45 -0.1 0.45 -0.15 0.5 -0.2 0.55 -0.2 Q0.55 -0.15 0.6 -0.15 L0.7 -0.15 Q0.8 -0.15 0.8 -0.2 L0.8 -0.35 0.85 -0.3 0.95 -0.3 0.9 -0.25 Q0.9 -0.2 0.95 -0.2 1.0 -0.25 0.95 -0.35 0.9 -0.45 0.9 -0.5 L1.0 -0.6 1.05 -0.65 1.15 -0.7 1.2 -0.7 1.3 -0.75 1.2 -0.6 1.05 -0.55 1.05 -0.4 Q1.05 -0.3 1.1 -0.25 L1.2 -0.2 Q1.25 -0.2 1.25 -0.25 L1.3 -0.3 1.3 -0.3 1.45 -0.3 1.55 -0.3 Q1.6 -0.3 1.65 -0.4 L1.7 -0.5 1.65 -0.6 1.5 -0.65 1.65 -0.65 Q1.7 -0.7 1.7 -0.75 L1.65 -0.9 1.55 -0.95 Q1.55 -0.95 1.55 -1.0 L1.55 -1.1 1.65 -1.1 1.75 -0.95 1.85 -0.75 1.85 -0.7 1.9 -0.65 2.0 -0.55 2.15 -0.45 2.1 -0.4 2.05 -0.4 2.05 -0.25 Q2.05 -0.2 2.1 -0.2 L2.2 -0.2 2.2 0.05 2.15 0.0 2.1 0.0 2.05 0.25 2.0 0.35 Q1.95 0.4 1.9 0.4 L1.85 0.35 1.8 0.3 Q1.85 0.25 1.8 0.2 L1.75 0.1 1.75 0.05 1.7 -0.05 Q1.7 -0.1 1.75 -0.15 L1.75 -0.15 1.7 -0.15 1.6 -0.1 1.55 -0.05 Q1.5 0.0 1.45 0.0 1.35 0.0 1.35 0.05 L1.35 0.1 1.4 0.1 1.45 0.05 Q1.45 0.05 1.45 0.1 L1.4 0.15 1.45 0.15 1.5 0.15 1.6 0.2 1.6 0.3 1.4 0.3 Q1.3 0.3 1.25 0.2 L1.3 0.15 1.25 0.1 1.15 0.25 1.05 0.35 1.05 0.45 1.0 0.55 0.95 0.55 0.95 0.45 1.0 0.35 1.0 0.2 0.95 0.15 Q0.9 0.15 0.9 0.2 L0.85 0.25 0.85 0.3 0.75 0.2 0.7 0.1 Q0.65 0.1 0.65 0.15 L0.55 0.2 0.5 0.2 0.55 0.1 0.55 0.05 0.5 0.05 0.4 0.1 0.3 0.1 0.25 0.15 0.3 0.2 0.35 0.2 0.35 0.3 0.4 0.3 0.45 0.4 0.4 0.45 0.45 0.5 0.5 0.45 0.6 0.45 0.7 0.45 0.75 0.45 0.8 0.45 0.8 0.5 0.75 0.55 0.75 0.65 0.8 0.65 0.9 0.6 0.85 0.7 0.85 0.8 0.8 0.85 0.7 0.85 0.65 0.85 0.6 0.95 0.65 1.05 0.7 1.15 0.75 1.25 0.75 1.35 Q0.65 1.3 0.6 1.2 L0.55 1.05 0.5 1.05 0.4 1.05 Q0.3 1.05 0.15 1.2 L0.05 1.2 -0.1 1.25 -0.1 1.35 -0.1 1.4 Q-0.1 1.45 -0.15 1.5 L-0.15 1.5 -0.2 1.55 Q-0.25 1.6 -0.25 1.6 -0.3 1.5 -0.3 1.4 L-0.2 1.25 Q-0.15 1.2 -0.2 1.2 L-0.3 1.2 -0.3 1.15 -0.3 1.1 -0.4 1.05 -0.5 1.05 -0.5 1.1 Q-0.5 1.1 -0.45 1.15 L-0.55 1.2 -0.65 1.3 -0.7 1.35 -0.8 1.4 -0.8 1.25 -0.7 1.1 -0.7 1.1 -0.6 1.0 -0.55 0.95 -0.5 0.9 -0.35 1.0 -0.15 1.05 -0.05 1.0 0.05 0.95 0.1 1.0 0.15 1.05 0.25 1.05 0.3 1.0 0.35 0.95 0.25 0.9 0.1 0.9 0.05 0.9 -0.05 0.85 -0.1 0.85 -0.05 0.8 0.0 0.75 0.1 0.75 Q0.05 0.7 0.1 0.6 L0.15 0.5 0.1 0.45 Q0.1 0.45 0.05 0.5 L-0.05 0.5 -0.1 0.45 -0.25 0.4 -0.35 0.3 -0.4 0.3 -0.45 0.3 -0.5 0.4 -0.45 0.5 -0.45 0.55 -0.5 0.6 -0.55 0.55 -0.65 0.45 -0.6 0.4 -0.55 0.35 Q-0.55 0.3 -0.55 0.25 L-0.65 0.25 -0.75 0.35 -0.7 0.4 -0.7 0.45 -0.75 0.4 -0.85 0.35 -0.85 0.05 -0.9 0.0 -0.85 -0.05 Q-0.85 -0.1 -0.85 -0.15 L-0.85 -0.3 -0.8 -0.35 -0.7 -0.4 -0.65 -0.4 -0.6 -0.5 -0.55 -0.5 -0.55 -0.55 -0.45 -0.6 -0.4 -0.7 -0.4 -0.8 -0.35 -0.85 -0.3 -0.85 -0.2 -0.85 -0.05 -0.85 Q-0.05 -0.85 -0.05 -0.9 L-0.1 -0.95 -0.15 -1.0 -0.25 -1.05 -0.15 -1.1 0.0 -1.15 M0.7 -0.15 L0.7 -0.15 M-0.3 -0.7 L-0.35 -0.65 -0.3 -0.6 -0.2 -0.6 -0.1 -0.6 -0.05 -0.65 -0.05 -0.7 -0.1 -0.75 -0.15 -0.75 -0.2 -0.7 -0.2 -0.65 -0.25 -0.65 -0.3 -0.7 M-0.45 -0.4 L-0.55 -0.35 -0.5 -0.25 -0.55 -0.3 -0.6 -0.35 -0.65 -0.35 -0.75 -0.3 -0.8 -0.25 -0.8 -0.25 -0.75 -0.2 -0.75 -0.1 Q-0.7 -0.05 -0.65 -0.05 L-0.65 0.0 -0.7 0.05 -0.65 0.1 -0.55 0.1 -0.6 0.1 -0.65 0.15 -0.7 0.15 -0.7 0.2 -0.65 0.2 -0.6 0.15 Q-0.55 0.1 -0.5 0.15 L-0.45 0.2 -0.4 0.25 Q-0.35 0.25 -0.4 0.15 L-0.45 0.0 Q-0.4 -0.05 -0.35 -0.15 L-0.3 -0.35 -0.25 -0.35 -0.2 -0.35 -0.2 -0.35 -0.15 -0.4 -0.3 -0.5 Q-0.4 -0.5 -0.45 -0.45 L-0.45 -0.4" fill="#fbffff" fill-rule="evenodd" stroke="none"/>
    <path d="M0.2 -0.75 L0.3 -0.7 0.35 -0.6 0.25 -0.55 0.2 -0.6 0.15 -0.65 Q0.1 -0.7 0.2 -0.75 M-0.6 -0.2 L-0.6 -0.15 -0.7 -0.15 -0.75 -0.2 -0.75 -0.25 -0.65 -0.3 -0.6 -0.3 -0.6 -0.2" fill="#9ef4ff" fill-rule="evenodd" stroke="none"/>
    <path d="M0.4 -0.35 L0.35 -0.35 0.4 -0.4 0.5 -0.35 Q0.55 -0.3 0.5 -0.3 L0.45 -0.25 0.4 -0.3 0.4 -0.35" fill="#96eaff" fill-rule="evenodd" stroke="none"/>
    <path d="M0.4 -0.3 L0.45 -0.25 0.5 -0.3 Q0.55 -0.3 0.5 -0.35 L0.4 -0.4 0.35 -0.35 0.4 -0.35 0.35 -0.3 0.35 -0.3 Q0.35 -0.25 0.35 -0.3 L0.25 -0.35 0.2 -0.35 0.15 -0.4 0.1 -0.45 0.35 -0.45 0.55 -0.35 0.55 -0.3 0.5 -0.2 Q0.45 -0.2 0.45 -0.25 L0.4 -0.3" fill="#c0feff" fill-rule="evenodd" stroke="none"/>
    <path d="M0.4 -0.35 L0.4 -0.3 0.45 -0.25 Q0.45 -0.2 0.5 -0.2 L0.55 -0.3 0.55 -0.35 Q0.6 -0.35 0.6 -0.4 L0.6 -0.5 0.6 -0.45 0.65 -0.5 0.65 -0.35 0.55 -0.25 Q0.55 -0.2 0.6 -0.15 L0.7 -0.15 0.6 -0.15 Q0.55 -0.15 0.55 -0.2 L0.5 -0.2 0.45 -0.15 0.45 -0.1 0.35 -0.2 0.3 -0.3 0.25 -0.35 Q0.2 -0.35 0.2 -0.35 L0.25 -0.35 0.35 -0.3 Q0.35 -0.25 0.35 -0.3 L0.35 -0.3 0.4 -0.35" fill="#e4ffff" fill-rule="evenodd" stroke="none"/>
    <path d="M0.55 -0.5 L0.65 -0.5 0.7 -0.45 0.9 -0.35 0.9 -0.45 0.85 -0.55 0.95 -0.6 1.05 -0.65 1.0 -0.6 0.9 -0.5 Q0.9 -0.45 0.95 -0.35 L0.95 -0.35 0.85 -0.35 0.75 -0.35 0.75 -0.25 0.7 -0.15 0.7 -0.15 0.6 -0.15 Q0.55 -0.2 0.55 -0.25 L0.65 -0.35 0.65 -0.5 0.6 -0.45 0.6 -0.5 0.55 -0.5 M0.7 -0.15 L0.75 -0.2 0.75 -0.25 0.7 -0.3 0.6 -0.25 Q0.6 -0.2 0.65 -0.15 L0.7 -0.15" fill="#bfffff" fill-rule="evenodd" stroke="none"/>
    <path d="M0.95 -0.35 Q1.0 -0.25 0.95 -0.2 0.9 -0.2 0.9 -0.25 L0.95 -0.3 0.85 -0.3 0.8 -0.35 0.8 -0.2 Q0.8 -0.15 0.7 -0.15 L0.75 -0.25 0.75 -0.35 0.85 -0.35 0.95 -0.35 0.95 -0.35 M-0.15 1.05 L-0.05 1.0 -0.05 0.95 0.0 0.9 -0.1 0.9 Q-0.15 0.9 -0.15 0.85 L-0.15 0.8 -0.1 0.75 -0.05 0.75 0.05 0.75 0.05 0.5 -0.05 0.5 -0.1 0.5 -0.1 0.45 -0.05 0.5 0.05 0.5 Q0.1 0.45 0.1 0.45 L0.15 0.5 0.1 0.6 Q0.05 0.7 0.1 0.75 L0.0 0.75 -0.05 0.8 -0.1 0.85 -0.05 0.85 0.05 0.9 0.1 0.9 0.25 0.9 0.35 0.95 0.3 1.0 0.25 1.05 0.3 1.0 0.3 0.95 0.2 0.95 0.15 0.95 0.1 0.95 0.1 1.0 0.05 0.95 -0.05 1.0 -0.15 1.05" fill="#e2ffff" fill-rule="evenodd" stroke="none"/>
    <path d="M0.7 -0.15 L0.65 -0.15 Q0.6 -0.2 0.6 -0.25 L0.7 -0.3 0.75 -0.25 0.75 -0.2 0.7 -0.15" fill="#9ef3ff" fill-rule="evenodd" stroke="none"/>
    <path d="M1.7 -0.75 L1.65 -0.85 1.55 -0.9 Q1.5 -0.95 1.55 -1.0 1.5 -1.05 1.5 -1.1 L1.55 -1.2 1.65 -1.15 1.7 -1.05 1.8 -0.9 1.85 -0.75 1.75 -0.95 1.65 -1.1 1.55 -1.1 1.55 -1.0 Q1.55 -0.95 1.55 -0.95 L1.65 -0.9 1.7 -0.75" fill="#c2feff" fill-rule="evenodd" stroke="none"/>
    <path d="M1.5 -0.7 L1.5 -0.7 1.45 -0.75 1.5 -0.8 1.55 -0.85 1.6 -0.8 1.65 -0.75 1.6 -0.7 1.55 -0.65 1.5 -0.7" fill="#6fb1ee" fill-rule="evenodd" stroke="none"/>
    <path d="M1.55 -0.65 L1.5 -0.7 Q1.4 -0.75 1.45 -0.8 L1.5 -0.85 1.6 -0.85 1.65 -0.75 1.65 -0.7 1.6 -0.7 1.65 -0.75 1.6 -0.8 1.55 -0.85 1.5 -0.8 1.45 -0.75 1.5 -0.7 1.55 -0.65 1.6 -0.7 Q1.6 -0.65 1.55 -0.65 L1.55 -0.65" fill="#7fcefd" fill-rule="evenodd" stroke="none"/>
    <path d="M1.2 -0.7 L1.3 -0.75 1.35 -0.8 1.4 -0.75 1.35 -0.7 1.3 -0.65 1.2 -0.6 Q1.1 -0.5 1.1 -0.4 1.05 -0.35 1.1 -0.3 1.15 -0.25 1.2 -0.25 L1.2 -0.35 1.25 -0.4 1.4 -0.4 1.5 -0.35 Q1.55 -0.35 1.55 -0.4 L1.55 -0.45 Q1.55 -0.5 1.55 -0.55 L1.55 -0.6 1.5 -0.6 Q1.45 -0.6 1.45 -0.6 1.45 -0.7 1.45 -0.7 L1.55 -0.65 1.55 -0.65 Q1.6 -0.65 1.6 -0.7 1.65 -0.7 1.65 -0.7 L1.7 -0.75 Q1.7 -0.7 1.65 -0.65 L1.5 -0.65 1.65 -0.6 1.7 -0.5 1.65 -0.4 Q1.6 -0.3 1.55 -0.3 L1.45 -0.3 1.3 -0.3 1.3 -0.3 1.25 -0.25 Q1.25 -0.2 1.2 -0.2 L1.1 -0.25 Q1.05 -0.3 1.05 -0.4 L1.05 -0.55 1.2 -0.6 1.3 -0.75 1.2 -0.7" fill="#c2ffff" fill-rule="evenodd" stroke="none"/>
    <path d="M1.9 -0.65 L2.0 -0.6 2.0 -0.55 2.05 -0.55 2.1 -0.55 2.15 -0.55 2.2 -0.5 2.2 -0.2 2.1 -0.2 Q2.05 -0.2 2.05 -0.25 L2.05 -0.4 2.1 -0.4 2.15 -0.45 2.0 -0.55 1.9 -0.65 M1.95 0.55 Q1.95 0.5 2.0 0.4 L2.05 0.3 2.05 0.25 2.1 0.0 2.15 0.0 2.2 0.05 2.2 0.15 2.15 0.1 Q2.1 0.1 2.1 0.15 L2.05 0.25 2.05 0.4 Q2.0 0.45 1.95 0.55 L1.9 0.75 1.95 0.65 1.95 0.55 M-0.05 1.0 Q-0.05 0.9 -0.2 0.9 L-0.25 0.9 -0.35 0.85 -0.3 0.8 -0.25 0.85 -0.1 0.75 -0.1 0.7 -0.2 0.6 -0.35 0.6 -0.5 0.6 -0.45 0.6 -0.45 0.5 -0.5 0.4 -0.45 0.3 -0.4 0.3 -0.35 0.3 -0.25 0.4 -0.1 0.45 -0.1 0.5 -0.05 0.5 0.05 0.5 0.05 0.75 -0.05 0.75 -0.1 0.75 -0.15 0.8 -0.15 0.85 Q-0.15 0.9 -0.1 0.9 L0.0 0.9 -0.05 0.95 -0.05 1.0 M-0.55 0.6 L-0.65 0.55 -0.75 0.55 -0.75 0.65 -0.7 0.75 -0.65 0.8 -0.65 0.85 -0.7 0.85 -0.8 0.8 -0.85 0.7 Q-0.85 0.65 -0.9 0.6 L-1.0 0.65 -1.05 0.7 -1.1 0.75 -1.05 0.7 -1.05 0.65 -1.1 0.65 -1.15 0.65 -1.1 0.65 -1.05 0.6 -1.05 0.45 Q-1.05 0.4 -1.05 0.3 L-1.2 0.2 -1.15 0.1 Q-1.15 0.15 -1.1 0.25 L-1.05 0.3 -1.05 0.45 -1.0 0.55 -0.95 0.6 -0.85 0.6 -0.9 0.45 -0.95 0.35 -1.0 0.3 -1.05 0.2 Q-1.05 0.1 -0.9 0.1 -0.85 0.15 -0.85 0.25 L-0.85 0.4 -0.8 0.45 -0.75 0.5 Q-0.6 0.45 -0.55 0.6 M-0.3 -0.7 L-0.25 -0.65 -0.2 -0.65 -0.2 -0.7 -0.15 -0.75 -0.1 -0.75 -0.05 -0.7 -0.05 -0.65 -0.1 -0.6 -0.2 -0.6 -0.3 -0.6 -0.35 -0.65 -0.3 -0.7 M-0.35 0.35 L-0.45 0.35 Q-0.5 0.4 -0.45 0.45 L-0.35 0.55 -0.25 0.5 -0.15 0.45 -0.2 0.4 -0.3 0.4 -0.35 0.35 M-0.2 0.6 L-0.1 0.65 Q-0.05 0.65 -0.05 0.7 L-0.05 0.65 -0.1 0.55 -0.25 0.5 -0.25 0.55 -0.2 0.6 M-0.9 0.15 Q-0.9 0.1 -0.95 0.1 -1.05 0.15 -1.0 0.2 L-0.95 0.35 Q-0.9 0.4 -0.9 0.35 L-0.9 0.15 M-0.75 0.7 L-0.8 0.65 -0.8 0.8 Q-0.75 0.85 -0.65 0.85 L-0.65 0.8 -0.7 0.75 -0.75 0.7" fill="#c6ffff" fill-rule="evenodd" stroke="none"/>
    <path d="M1.95 -0.7 L2.0 -0.75 2.05 -0.75 2.1 -0.75 2.2 -0.8 2.2 -0.7 2.1 -0.75 1.95 -0.7" fill="#86d4fd" fill-rule="evenodd" stroke="none"/>
    <path d="M1.75 0.5 Q1.75 0.45 1.8 0.45 L1.85 0.45 1.9 0.45 1.85 0.4 1.8 0.35 1.8 0.25 Q1.8 0.2 1.75 0.15 1.7 0.1 1.65 0.05 L1.65 -0.05 1.6 -0.05 1.55 -0.05 1.5 0.0 1.45 0.05 1.55 0.1 1.6 0.2 1.65 0.25 1.7 0.3 1.6 0.35 1.45 0.35 1.25 0.25 1.2 0.2 1.15 0.25 1.25 0.1 1.3 0.15 1.25 0.2 Q1.3 0.3 1.4 0.3 L1.6 0.3 1.6 0.2 1.5 0.15 1.45 0.15 1.4 0.15 1.45 0.1 Q1.45 0.05 1.45 0.05 L1.4 0.1 1.35 0.1 1.35 0.05 Q1.35 0.0 1.45 0.0 1.5 0.0 1.55 -0.05 L1.6 -0.1 1.7 -0.15 1.75 -0.15 1.75 -0.15 Q1.7 -0.1 1.7 -0.05 L1.75 0.05 1.75 0.1 1.8 0.2 Q1.85 0.25 1.8 0.3 L1.85 0.35 1.9 0.4 Q1.95 0.4 2.0 0.35 L2.05 0.25 2.05 0.3 2.0 0.4 Q1.95 0.5 1.95 0.55 L1.95 0.5 1.9 0.45 1.85 0.45 1.8 0.45 1.75 0.5 1.8 0.55 1.75 0.6 1.7 0.65 1.7 0.7 1.7 0.6 1.75 0.6 1.75 0.5" fill="#e0ffff" fill-rule="evenodd" stroke="none"/>
    <path d="M1.15 0.25 L1.2 0.2 1.25 0.25 1.45 0.35 1.6 0.35 1.7 0.3 1.65 0.25 1.6 0.2 1.55 0.1 1.45 0.05 1.5 0.0 1.55 -0.05 1.6 -0.05 1.65 -0.05 1.65 0.05 Q1.7 0.1 1.75 0.15 1.8 0.2 1.8 0.25 L1.8 0.35 1.85 0.4 1.9 0.45 1.85 0.45 1.8 0.45 Q1.75 0.45 1.75 0.5 L1.75 0.45 1.8 0.45 1.85 0.4 1.75 0.35 1.7 0.35 1.45 0.35 Q1.3 0.35 1.25 0.25 L1.2 0.25 1.15 0.25 Q1.1 0.3 1.1 0.35 L1.05 0.45 1.05 0.35 1.15 0.25 M1.75 0.5 L1.75 0.6 1.7 0.6 1.75 0.55 1.75 0.5" fill="#beffff" fill-rule="evenodd" stroke="none"/>
    <path d="M-2.2 -2.0 L-2.2 -2.2 -2.0 -2.2 -2.0 -2.1 -2.05 -2.0 -2.1 -2.0 -2.2 -2.0" fill="#a0fcff" fill-rule="evenodd" stroke="none"/>
    <path d="M-1.45 -2.1 L-1.45 -2.1 -1.6 -2.05 Q-1.65 -2.0 -1.6 -1.95 L-1.65 -1.9 -1.7 -1.9 -1.75 -1.9 -1.8 -1.9 -1.8 -1.85 -1.85 -1.85 -1.9 -1.85 -1.85 -1.8 -1.85 -1.75 -1.9 -1.75 -1.95 -1.8 -2.05 -1.7 -2.1 -1.65 -2.05 -1.6 -1.95 -1.55 -2.2 -1.65 -2.2 -1.7 -2.15 -1.7 -2.1 -1.75 -2.05 -1.75 Q-2.0 -1.75 -2.0 -1.8 L-2.0 -1.85 Q-2.0 -1.95 -2.05 -1.9 L-2.1 -1.95 -2.2 -1.95 -2.2 -2.0 -2.1 -2.0 -2.05 -2.0 -2.0 -2.1 -2.0 -2.2 -1.9 -2.2 -1.95 -2.05 -1.95 -1.95 -1.9 -1.9 -1.85 -1.95 -1.85 -2.05 -1.85 -2.1 -1.8 -2.2 -1.65 -2.2 -1.65 -2.0 -1.45 -2.1" fill="#bdffff" fill-rule="evenodd" stroke="none"/>
    <path d="M-2.2 -1.7 L-2.2 -1.95 -2.1 -1.95 -2.05 -1.9 Q-2.0 -1.95 -2.0 -1.85 L-2.0 -1.8 Q-2.0 -1.75 -2.05 -1.75 L-2.1 -1.75 -2.15 -1.7 -2.2 -1.7 M1.15 1.7 Q0.95 1.8 0.7 1.9 L0.6 1.95 0.55 1.95 Q0.45 1.95 0.5 1.9 0.55 1.9 0.65 1.8 0.7 1.75 0.75 1.75 0.75 1.75 0.85 1.7 L0.95 1.6 1.0 1.55 1.1 1.55 1.2 1.55 1.3 1.5 1.4 1.35 1.55 1.3 1.45 1.45 1.35 1.5 1.3 1.6 1.25 1.65 1.15 1.7 M0.1 2.05 L-0.15 2.05 -0.3 1.95 Q-0.35 1.9 -0.25 1.9 L-0.2 1.9 -0.15 1.9 -0.1 1.85 0.0 1.8 0.05 1.8 0.1 1.9 0.15 1.9 0.25 1.9 0.3 1.9 0.35 1.95 0.25 2.0 0.1 2.05" fill="#f7ffff" fill-rule="evenodd" stroke="none"/>
    <path d="M-2.2 -1.35 L-2.2 -1.65 -1.95 -1.55 Q-1.9 -1.5 -1.9 -1.4 L-1.95 -1.4 -2.0 -1.4 -2.0 -1.4 -2.05 -1.4 -2.1 -1.35 -2.15 -1.3 -2.2 -1.35 M-1.75 -1.4 L-1.7 -1.4 -1.7 -1.35 -1.65 -1.35 -1.65 -1.45 -1.6 -1.45 -1.55 -1.5 Q-1.5 -1.45 -1.55 -1.45 L-1.55 -1.35 -1.5 -1.35 -1.25 -1.55 -1.0 -1.75 -0.75 -1.75 -0.8 -1.65 -0.85 -1.6 -0.95 -1.55 -1.0 -1.5 -1.1 -1.5 -1.2 -1.5 -1.35 -1.35 -1.45 -1.25 -1.5 -1.15 -1.55 -0.95 -1.6 -0.85 -1.65 -0.75 -1.65 -0.75 -1.7 -0.65 Q-1.7 -0.6 -1.75 -0.6 L-1.8 -0.5 -1.85 -0.45 -1.9 -0.45 -1.9 -0.6 -1.85 -0.7 -1.8 -0.85 -1.75 -0.95 -1.7 -1.05 -1.6 -1.2 Q-1.6 -1.25 -1.65 -1.25 L-1.7 -1.3 -1.7 -1.35 -1.75 -1.35 -1.75 -1.4 -1.75 -1.4 M-1.95 -1.55 L-1.95 -1.55" fill="#f8ffff" fill-rule="evenodd" stroke="none"/>
    <path d="M-1.45 -2.1 L-1.5 -2.05 -1.6 -2.0 -1.6 -1.9 -1.55 -1.85 Q-1.5 -1.8 -1.45 -1.8 L-1.35 -1.8 -1.35 -1.7 -1.4 -1.65 -1.45 -1.65 -1.45 -1.6 -1.4 -1.55 -1.4 -1.55 -1.35 -1.55 -1.3 -1.6 Q-1.25 -1.6 -1.2 -1.65 L-1.1 -1.7 -1.15 -1.8 -1.2 -1.85 -1.2 -1.9 -1.25 -1.9 -1.3 -1.9 Q-1.35 -1.9 -1.35 -1.95 L-1.35 -2.0 -1.3 -1.95 -1.2 -1.95 Q-1.15 -1.95 -1.15 -2.0 L-1.1 -1.95 -1.05 -1.9 -1.0 -1.9 -1.0 -1.8 -0.9 -1.8 -0.75 -1.85 -0.55 -1.85 Q-0.6 -1.75 -0.65 -1.7 L-0.8 -1.6 -0.9 -1.55 -0.9 -1.45 -1.05 -1.45 -1.05 -1.35 -1.1 -1.25 -1.2 -1.2 -1.25 -1.15 -1.3 -1.05 Q-1.35 -1.05 -1.4 -1.05 L-1.5 -0.95 Q-1.5 -0.9 -1.45 -0.85 L-1.25 -0.75 -1.05 -0.65 -1.1 -0.65 -1.15 -0.7 -1.3 -0.7 -1.2 -0.6 -1.1 -0.55 -1.05 -0.5 -1.05 -0.4 Q-1.0 -0.35 -1.05 -0.25 L-1.15 -0.15 -1.15 -0.05 -1.2 -0.1 -1.2 -0.15 -1.15 -0.15 -1.1 -0.2 Q-1.05 -0.25 -1.05 -0.35 -1.05 -0.45 -1.1 -0.5 L-1.3 -0.7 -1.55 -0.85 -1.6 -0.8 Q-1.65 -0.7 -1.65 -0.65 -1.6 -0.6 -1.75 -0.55 L-1.75 -0.4 -1.85 -0.4 -1.85 -0.3 -1.8 -0.25 -1.85 -0.2 -1.85 -0.15 -1.85 -0.1 -1.8 -0.05 -1.8 -0.05 Q-1.75 0.0 -1.75 0.05 L-1.8 0.1 -1.85 0.2 -1.85 0.35 -1.9 0.35 -1.95 0.35 -2.0 0.25 -2.0 0.15 -2.0 -0.05 -2.0 -0.25 -1.95 -0.45 -1.9 -0.65 -1.85 -0.8 -1.8 -0.95 -1.75 -1.1 -1.8 -1.1 -1.85 -1.15 -1.8 -1.2 -1.75 -1.2 Q-1.8 -1.2 -1.85 -1.25 L-1.85 -1.3 -1.9 -1.35 Q-1.95 -1.35 -1.95 -1.35 L-2.0 -1.35 Q-2.05 -1.4 -2.05 -1.35 L-2.1 -1.3 -2.1 -1.25 Q-2.15 -1.2 -2.2 -1.2 L-2.2 -1.35 -2.15 -1.3 -2.1 -1.35 -2.05 -1.4 -2.0 -1.4 -2.0 -1.4 Q-1.95 -1.4 -1.9 -1.35 -1.85 -1.3 -1.8 -1.3 -1.75 -1.3 -1.7 -1.25 L-1.65 -1.2 -1.7 -1.1 -1.75 -0.95 -1.8 -0.85 -1.85 -0.7 -1.9 -0.55 -1.9 -0.4 -1.85 -0.45 Q-1.8 -0.45 -1.8 -0.5 L-1.75 -0.55 -1.7 -0.6 -1.7 -0.65 -1.65 -0.75 -1.6 -0.8 -1.55 -0.85 Q-1.5 -0.95 -1.5 -1.0 -1.5 -1.05 -1.4 -1.05 L-1.35 -1.1 -1.3 -1.1 -1.25 -1.2 -1.15 -1.25 -1.1 -1.3 -1.1 -1.4 -1.0 -1.45 Q-0.95 -1.5 -0.9 -1.55 L-0.85 -1.6 -0.8 -1.65 -0.75 -1.65 -0.7 -1.75 Q-0.65 -1.8 -0.65 -1.8 L-0.8 -1.8 -0.95 -1.8 -1.0 -1.8 -1.05 -1.8 -1.05 -1.85 -1.1 -1.8 -1.1 -1.75 Q-1.05 -1.7 -1.1 -1.7 L-1.3 -1.55 -1.45 -1.45 -1.5 -1.5 -1.55 -1.55 -1.65 -1.55 -1.7 -1.6 -1.75 -1.65 -1.8 -1.6 -1.75 -1.55 -1.7 -1.55 -1.75 -1.5 -1.8 -1.5 -1.75 -1.45 Q-1.75 -1.4 -1.75 -1.4 -1.8 -1.4 -1.85 -1.4 -1.9 -1.4 -1.9 -1.45 -1.9 -1.5 -1.9 -1.5 L-1.95 -1.55 -2.05 -1.6 -2.1 -1.65 -2.05 -1.7 -1.95 -1.8 -1.9 -1.75 -1.85 -1.75 -1.85 -1.8 -1.9 -1.85 -1.85 -1.85 -1.8 -1.85 -1.8 -1.9 -1.75 -1.9 -1.7 -1.9 -1.65 -1.9 -1.6 -1.95 Q-1.65 -2.0 -1.6 -2.05 L-1.45 -2.1 M-1.65 -0.75 L-1.65 -0.75 M-1.95 -1.55 L-1.95 -1.55 M-1.75 -1.4 L-1.75 -1.4 M-1.9 -0.2 L-1.85 -0.2 -1.85 -0.25 Q-1.85 -0.3 -1.95 -0.3 L-2.0 -0.2 -2.0 0.15 -1.95 0.35 -1.9 0.3 -1.9 0.25 -1.85 0.15 -1.8 0.1 -1.8 0.05 Q-1.8 0.0 -1.8 0.0 L-1.85 -0.05 -1.9 -0.1 -1.9 -0.15 -1.9 -0.2" fill="#aafeff" fill-rule="evenodd" stroke="none"/>
    <path d="M-2.2 -1.2 L-2.2 -1.2 Q-2.15 -1.2 -2.1 -1.25 L-2.1 -1.3 -2.05 -1.35 Q-2.05 -1.4 -2.0 -1.35 L-1.95 -1.35 Q-1.95 -1.35 -1.9 -1.35 L-1.85 -1.3 -1.85 -1.25 Q-1.8 -1.2 -1.75 -1.2 L-1.8 -1.2 -1.85 -1.15 -1.8 -1.1 -1.75 -1.1 -1.8 -0.95 -1.85 -0.8 -1.9 -0.65 -1.95 -0.45 -2.0 -0.25 -2.0 -0.05 -2.0 -0.2 -1.95 -0.55 -1.85 -0.9 Q-1.8 -0.95 -1.85 -1.0 L-1.9 -1.0 -1.9 -1.05 Q-1.85 -1.15 -1.9 -1.25 L-1.9 -1.25 -1.95 -1.3 -2.05 -1.3 -2.1 -1.2 Q-2.15 -1.15 -2.2 -1.2" fill="#96f0ff" fill-rule="evenodd" stroke="none"/>
    <path d="M-2.2 -1.15 L-2.2 -1.2 Q-2.15 -1.15 -2.1 -1.2 L-2.05 -1.3 -1.95 -1.3 -1.9 -1.25 -1.9 -1.25 Q-1.85 -1.15 -1.9 -1.05 L-1.9 -1.0 -1.85 -1.0 Q-1.8 -0.95 -1.85 -0.9 L-1.95 -0.55 -2.0 -0.2 -1.95 -0.6 -1.85 -0.95 -1.9 -1.0 -1.95 -1.0 -2.05 -1.0 Q-2.1 -1.0 -2.1 -1.05 L-2.0 -1.05 Q-1.95 -1.05 -2.0 -1.1 -2.0 -1.15 -2.05 -1.15 L-2.2 -1.15" fill="#82d3ff" fill-rule="evenodd" stroke="none"/>
    <path d="M-2.1 2.2 L-2.2 2.2 -2.2 1.9 -2.15 1.85 -2.1 1.8 -2.0 1.8 -1.95 1.85 -1.9 1.9 -1.8 1.9 -1.75 1.85 -1.7 1.8 -1.65 1.7 Q-1.6 1.65 -1.65 1.6 L-1.65 1.6 -1.6 1.6 -1.55 1.6 -1.5 1.55 -1.5 1.6 -1.45 1.65 -1.4 1.65 -1.35 1.65 -1.4 1.6 -1.45 1.55 -1.5 1.5 -1.55 1.45 Q-1.55 1.4 -1.6 1.3 L-1.7 1.15 Q-1.9 0.8 -2.0 0.45 -2.1 0.05 -2.0 -0.35 L-2.0 -0.7 -2.05 -0.75 Q-2.1 -0.7 -2.15 -0.7 L-2.2 -0.7 -2.2 -1.15 -2.05 -1.15 Q-2.0 -1.15 -2.0 -1.1 -1.95 -1.05 -2.0 -1.05 L-2.1 -1.05 Q-2.1 -1.0 -2.05 -1.0 L-1.95 -1.0 -1.9 -1.0 -1.85 -0.95 -1.95 -0.6 -2.0 -0.2 -2.0 -0.05 -2.0 0.15 Q-2.0 0.4 -1.9 0.7 L-1.65 1.15 -1.6 1.25 -1.55 1.3 -1.45 1.5 -1.3 1.65 Q-1.3 1.65 -1.35 1.7 L-1.4 1.7 -1.45 1.7 -1.4 1.7 -1.4 1.7 -1.35 1.7 -1.3 1.7 -1.35 1.75 -1.4 1.8 -1.4 1.85 Q-1.35 1.9 -1.35 1.95 L-1.4 1.95 -1.5 1.85 Q-1.45 1.8 -1.5 1.75 -1.55 1.75 -1.6 1.75 L-1.65 1.8 -1.65 1.9 -1.75 1.9 -1.8 1.95 -1.9 1.95 -1.95 1.95 -2.0 2.05 -2.1 2.15 -2.1 2.2" fill="#73bbfb" fill-rule="evenodd" stroke="none"/>
    <path d="M-2.2 1.9 L-2.2 1.85 -2.15 1.8 -2.1 1.7 -2.15 1.65 -2.15 1.6 -2.1 1.6 -2.05 1.65 -2.0 1.6 -1.9 1.65 -1.95 1.7 -2.0 1.75 -1.9 1.85 Q-1.85 1.9 -1.8 1.85 L-1.8 1.75 -1.75 1.7 -1.7 1.6 -1.7 1.5 -1.75 1.55 -1.8 1.6 Q-1.8 1.5 -1.85 1.5 L-1.9 1.5 -1.9 1.45 -1.85 1.45 -1.85 1.45 -1.8 1.4 -1.8 1.4 Q-1.75 1.4 -1.75 1.45 L-1.7 1.5 -1.6 1.55 -1.55 1.4 Q-1.55 1.35 -1.65 1.3 L-1.7 1.2 -1.75 1.05 -1.85 0.9 -1.95 0.75 Q-2.1 0.25 -2.05 -0.4 -2.05 -0.45 -2.1 -0.5 L-2.2 -0.5 -2.2 -0.7 -2.15 -0.7 Q-2.1 -0.7 -2.05 -0.75 L-2.0 -0.7 -2.0 -0.35 Q-2.1 0.05 -2.0 0.45 -1.9 0.8 -1.7 1.15 L-1.6 1.3 Q-1.55 1.4 -1.55 1.45 L-1.5 1.5 -1.45 1.55 -1.4 1.6 -1.35 1.65 -1.4 1.65 -1.45 1.65 -1.5 1.6 -1.5 1.55 -1.55 1.6 -1.6 1.6 -1.65 1.6 -1.65 1.6 Q-1.6 1.65 -1.65 1.7 L-1.7 1.8 -1.75 1.85 -1.8 1.9 -1.9 1.9 -1.95 1.85 -2.0 1.8 -2.1 1.8 -2.15 1.85 -2.2 1.9" fill="#6aabec" fill-rule="evenodd" stroke="none"/>
    <path d="M-2.2 1.6 L-2.2 0.9 -2.1 0.9 -2.05 0.85 -2.0 0.95 -2.05 0.95 -2.05 1.05 -2.0 1.1 -1.95 1.0 -1.9 0.95 -2.0 0.55 -2.05 0.1 -2.1 -0.1 -2.1 -0.25 -2.2 -0.25 -2.2 -0.5 -2.1 -0.5 Q-2.05 -0.45 -2.05 -0.4 -2.1 0.25 -1.95 0.75 L-1.9 0.9 -1.8 1.05 -1.75 1.15 Q-1.7 1.25 -1.7 1.3 -1.7 1.35 -1.75 1.4 L-1.85 1.4 -1.9 1.4 -1.95 1.45 -1.95 1.5 -1.95 1.55 -2.0 1.6 -2.1 1.55 -2.2 1.6 M-1.3 0.6 L-1.35 0.65 -1.45 0.8 -1.55 0.85 -1.6 0.8 -1.6 0.65 -1.65 0.6 -1.7 0.5 -1.7 0.4 -1.65 0.4 -1.5 0.4 Q-1.4 0.35 -1.35 0.45 -1.35 0.45 -1.35 0.5 L-1.35 0.55 Q-1.3 0.55 -1.3 0.6" fill="#609bd6" fill-rule="evenodd" stroke="none"/>
    <path d="M-2.2 0.9 L-2.2 -0.25 -2.1 -0.25 -2.1 -0.1 -2.05 0.1 -2.0 0.55 -1.9 0.95 -1.95 1.0 -2.0 1.1 -2.05 1.05 -2.05 0.95 -2.0 0.95 -2.05 0.85 -2.1 0.9 -2.2 0.9" fill="#598fc6" fill-rule="evenodd" stroke="none"/>
    <path d="M-1.05 -2.2 L-1.0 -2.1 -0.95 -2.05 Q-0.9 -2.05 -0.9 -2.05 L-0.85 -2.05 -0.8 -2.05 Q-0.75 -2.0 -0.8 -2.0 L-0.85 -1.95 -0.8 -1.95 -0.4 -1.95 -0.05 -2.0 -0.35 -1.95 -0.65 -1.9 -0.8 -1.85 Q-0.9 -1.85 -0.9 -1.9 L-0.95 -1.95 -0.95 -2.0 Q-0.95 -2.05 -1.05 -2.1 L-1.2 -2.15 -1.25 -2.15 -1.25 -2.15 -1.35 -2.2 -1.05 -2.2" fill="#78c5fd" fill-rule="evenodd" stroke="none"/>
    <path d="M-0.7 -1.2 L-0.6 -1.15 -0.6 -1.05 -0.55 -1.0 -0.45 -1.0 -0.4 -1.05 -0.25 -1.05 -0.15 -1.15 -0.1 -1.15 0.0 -1.15 -0.15 -1.1 -0.25 -1.05 -0.15 -1.0 -0.1 -0.95 -0.05 -0.9 Q-0.05 -0.85 -0.05 -0.85 L-0.2 -0.85 -0.1 -0.85 Q-0.05 -0.9 -0.1 -0.95 -0.1 -1.0 -0.2 -1.0 -0.3 -1.0 -0.35 -0.9 L-0.3 -0.85 -0.2 -0.85 -0.3 -0.85 -0.35 -0.85 -0.4 -0.8 -0.4 -0.7 -0.45 -0.6 -0.55 -0.55 -0.5 -0.6 -0.45 -0.65 -0.45 -0.75 -0.4 -0.85 -0.5 -0.85 -0.55 -0.85 -0.6 -0.95 -0.65 -1.0 -0.65 -1.0 -0.65 -1.0 -0.6 -1.0 -0.65 -1.1 -0.7 -1.2 -0.7 -1.15 -0.75 -1.2 -0.75 -1.25 -0.7 -1.25 -0.7 -1.2 M-1.75 -1.4 Q-1.75 -1.4 -1.75 -1.45 L-1.8 -1.5 -1.75 -1.5 -1.7 -1.55 -1.75 -1.55 -1.8 -1.6 -1.75 -1.65 -1.7 -1.6 -1.65 -1.55 -1.55 -1.55 -1.5 -1.5 -1.45 -1.45 -1.3 -1.55 -1.1 -1.7 Q-1.05 -1.7 -1.1 -1.75 L-1.1 -1.8 -1.05 -1.85 -1.05 -1.8 -1.0 -1.8 -0.95 -1.8 -0.8 -1.8 -0.65 -1.8 Q-0.65 -1.8 -0.7 -1.75 L-0.75 -1.65 -0.8 -1.65 -0.85 -1.6 -0.9 -1.55 Q-0.95 -1.5 -1.0 -1.45 L-1.1 -1.4 -1.1 -1.3 -1.15 -1.25 -1.25 -1.2 -1.3 -1.1 -1.35 -1.1 -1.4 -1.05 Q-1.5 -1.05 -1.5 -1.0 -1.5 -0.95 -1.55 -0.85 L-1.6 -0.8 -1.65 -0.75 -1.6 -0.85 -1.55 -0.95 -1.5 -1.15 -1.45 -1.25 -1.35 -1.35 -1.2 -1.5 -1.1 -1.5 -1.0 -1.5 -0.95 -1.55 -0.85 -1.6 -0.8 -1.65 -0.75 -1.75 -1.0 -1.75 -1.25 -1.55 -1.5 -1.35 -1.55 -1.35 -1.55 -1.45 Q-1.5 -1.45 -1.55 -1.5 L-1.6 -1.45 -1.65 -1.45 -1.65 -1.35 -1.7 -1.35 -1.7 -1.4 -1.75 -1.4 M-1.3 -1.35 L-1.4 -1.25 -1.45 -1.2 -1.4 -1.15 Q-1.4 -1.1 -1.35 -1.15 L-1.35 -1.25 -1.2 -1.35 Q-1.15 -1.35 -1.1 -1.45 L-1.15 -1.45 -1.2 -1.45 -1.3 -1.35 M-1.9 -0.15 L-1.9 -0.1 -1.85 -0.05 -1.8 0.0 Q-1.8 0.0 -1.8 0.05 L-1.8 0.1 -1.85 0.15 -1.9 0.25 Q-1.95 0.15 -1.8 0.05 L-1.85 -0.05 -1.9 -0.1 -1.9 -0.15 M-0.3 -1.0 L-0.45 -1.0 -0.5 -1.0 -0.55 -0.95 -0.55 -0.85 -0.4 -0.9 -0.3 -1.0 M-1.7 0.85 L-1.65 0.95 Q-1.55 0.95 -1.55 1.05 -1.5 1.1 -1.55 1.15 L-1.6 1.15 -1.65 1.1 -1.75 0.95 -1.8 0.8 -1.85 0.7 -1.85 0.65 -1.75 0.7 -1.75 0.8 -1.7 0.85 M-1.55 1.05 Q-1.6 1.0 -1.65 1.0 L-1.65 1.1 -1.6 1.15 -1.55 1.1 -1.55 1.05" fill="#ccffff" fill-rule="evenodd" stroke="none"/>
    <path d="M-0.3 -1.75 Q-0.25 -1.6 -0.3 -1.45 L-0.25 -1.3 -0.25 -1.15 Q-0.3 -1.1 -0.35 -1.1 L-0.5 -1.05 -0.55 -1.1 -0.6 -1.2 -0.75 -1.45 -0.7 -1.55 -0.65 -1.6 -0.6 -1.7 -0.55 -1.75 -0.5 -1.7 -0.45 -1.7 Q-0.4 -1.7 -0.4 -1.75 L-0.45 -1.85 -0.35 -1.85 -0.35 -1.8 -0.3 -1.75 M-0.5 -1.7 L-0.6 -1.6 -0.65 -1.55 -0.65 -1.4 Q-0.65 -1.3 -0.55 -1.3 L-0.55 -1.2 -0.5 -1.15 -0.4 -1.15 -0.25 -1.15 -0.3 -1.25 -0.3 -1.35 -0.35 -1.55 -0.3 -1.65 Q-0.35 -1.75 -0.4 -1.7 L-0.45 -1.7 -0.5 -1.7" fill="#6eb5f4" fill-rule="evenodd" stroke="none"/>
    <path d="M-0.5 -1.7 L-0.45 -1.7 -0.4 -1.7 Q-0.35 -1.75 -0.3 -1.65 L-0.35 -1.55 -0.3 -1.35 -0.3 -1.25 -0.25 -1.15 -0.4 -1.15 -0.5 -1.15 -0.55 -1.2 -0.55 -1.3 Q-0.65 -1.3 -0.65 -1.4 L-0.65 -1.55 -0.6 -1.6 -0.5 -1.7" fill="#64a0da" fill-rule="evenodd" stroke="none"/>
    <path d="M-0.85 -1.25 L-0.9 -1.2 -0.95 -1.2 -1.0 -1.25 Q-1.05 -1.25 -1.05 -1.35 L-1.0 -1.45 -0.9 -1.4 Q-0.85 -1.35 -0.85 -1.3 L-0.85 -1.25" fill="#85d6ff" fill-rule="evenodd" stroke="none"/>
    <path d="M-1.05 -0.65 L-1.0 -0.6 -0.95 -0.6 -0.9 -0.6 -0.9 -0.7 -0.85 -0.75 -0.9 -0.8 -0.9 -0.85 -0.85 -0.9 -0.8 -0.95 -0.8 -0.95 -0.75 -0.95 Q-0.7 -1.0 -0.7 -1.1 L-0.8 -1.2 -0.8 -1.35 -0.75 -1.3 -0.7 -1.2 -0.7 -1.25 -0.75 -1.25 -0.75 -1.2 -0.7 -1.15 -0.7 -1.1 -0.65 -1.0 -0.65 -1.0 -0.6 -0.95 -0.55 -0.85 -0.5 -0.85 -0.4 -0.85 -0.45 -0.75 -0.45 -0.65 -0.5 -0.6 -0.55 -0.55 -0.55 -0.5 -0.7 -0.45 -0.85 -0.4 -0.85 -0.5 Q-0.75 -0.45 -0.75 -0.55 L-0.7 -0.7 -0.65 -0.7 -0.65 -0.8 -0.7 -0.8 -0.7 -0.85 -0.7 -0.9 -0.8 -0.85 -0.85 -0.8 -0.8 -0.8 -0.8 -0.75 -0.85 -0.7 -0.85 -0.6 Q-0.85 -0.6 -0.9 -0.55 L-0.95 -0.55 -1.05 -0.65 M-0.55 -0.75 L-0.6 -0.75 -0.7 -0.65 -0.65 -0.6 -0.6 -0.55 -0.55 -0.6 Q-0.5 -0.65 -0.5 -0.7 L-0.55 -0.7 -0.55 -0.75" fill="#a9fcff" fill-rule="evenodd" stroke="none"/>
    <path d="M-1.25 -2.15 L-1.3 -2.1 -1.25 -2.05 -1.2 -2.05 Q-1.15 -2.0 -1.2 -1.95 L-1.3 -2.0 -1.4 -2.0 -1.45 -2.1 -1.35 -2.15 -1.35 -2.2 -1.35 -2.2 -1.25 -2.15" fill="#8de2ff" fill-rule="evenodd" stroke="none"/>
    <path d="M-1.55 -2.2 L-1.45 -2.15 -1.45 -2.1 -1.65 -2.0 -1.65 -2.2 -1.55 -2.2 M-1.55 1.05 L-1.55 1.1 -1.6 1.15 -1.65 1.1 -1.65 1.0 Q-1.6 1.0 -1.55 1.05" fill="#eeffff" fill-rule="evenodd" stroke="none"/>
    <path d="M-1.9 -2.2 L-1.8 -2.2 -1.85 -2.1 -1.85 -2.05 -1.85 -1.95 -1.9 -1.9 -1.95 -1.95 -1.95 -2.05 -1.9 -2.2 M-1.1 0.75 L-1.2 0.8 -1.25 0.75 -1.2 0.7 -1.15 0.65 -1.1 0.65 -1.05 0.65 -1.05 0.7 -1.1 0.75" fill="#e3ffff" fill-rule="evenodd" stroke="none"/>
    <path d="M0.7 1.9 L0.65 1.95 0.55 1.95 0.5 1.95 Q0.45 1.95 0.45 1.9 0.45 1.85 0.55 1.85 L0.6 1.8 0.65 1.75 0.75 1.75 Q0.7 1.75 0.65 1.8 0.55 1.9 0.5 1.9 0.45 1.95 0.55 1.95 L0.6 1.95 0.7 1.9 M-1.75 -0.95 L-1.7 -1.1 -1.65 -1.2 -1.7 -1.25 Q-1.75 -1.3 -1.8 -1.3 -1.85 -1.3 -1.9 -1.35 -1.95 -1.4 -2.0 -1.4 L-1.95 -1.4 -1.9 -1.4 Q-1.9 -1.5 -1.95 -1.55 L-1.9 -1.5 Q-1.9 -1.5 -1.9 -1.45 -1.9 -1.4 -1.85 -1.4 -1.8 -1.4 -1.75 -1.4 L-1.75 -1.35 -1.7 -1.35 -1.7 -1.3 -1.65 -1.25 Q-1.6 -1.25 -1.6 -1.2 L-1.7 -1.05 -1.75 -0.95 M-1.9 0.25 L-1.9 0.3 -1.95 0.35 -2.0 0.15 -2.0 -0.2 -1.95 -0.3 Q-1.85 -0.3 -1.85 -0.25 L-1.85 -0.2 -1.9 -0.2 -1.9 -0.25 -1.95 -0.25 -1.95 -0.2 -2.0 0.05 -1.95 0.25 -1.9 0.3 -1.9 0.25 M-1.45 -0.25 L-1.4 -0.25 -1.35 -0.2 -1.45 -0.15 -1.5 -0.2 -1.45 -0.25" fill="#caffff" fill-rule="evenodd" stroke="none"/>
    <path d="M-1.3 -1.35 L-1.2 -1.45 -1.15 -1.45 -1.1 -1.45 Q-1.15 -1.35 -1.2 -1.35 L-1.35 -1.25 -1.35 -1.15 Q-1.4 -1.1 -1.4 -1.15 L-1.45 -1.2 -1.4 -1.25 -1.3 -1.35" fill="#b3ffff" fill-rule="evenodd" stroke="none"/>
    <path d="M-1.05 -1.1 L-1.1 -1.05 -1.15 -1.0 -1.25 -1.05 -1.35 -1.0 -1.45 -1.0 -1.45 -0.95 -1.3 -0.8 -1.1 -0.75 -1.1 -0.75 -1.05 -0.75 Q-1.0 -0.8 -1.05 -0.8 L-1.1 -0.9 Q-0.95 -0.85 -0.9 -0.95 -0.85 -1.0 -0.9 -1.05 L-1.05 -1.1 M-1.2 -1.15 L-1.15 -1.2 -1.1 -1.2 -1.05 -1.15 Q-1.05 -1.1 -1.0 -1.1 L-0.9 -1.1 -0.85 -1.05 -0.85 -0.95 -0.9 -0.85 Q-0.95 -0.85 -1.0 -0.85 L-1.0 -0.75 -0.95 -0.65 -0.9 -0.6 -0.95 -0.6 -1.0 -0.65 -1.25 -0.75 -1.4 -0.85 Q-1.5 -0.9 -1.45 -1.0 L-1.35 -1.05 Q-1.25 -1.05 -1.25 -1.1 L-1.2 -1.15" fill="#8fe6ff" fill-rule="evenodd" stroke="none"/>
    <path d="M-1.0 0.7 L-0.95 0.65 -0.9 0.65 Q-0.9 0.65 -0.9 0.7 L-0.9 0.8 -0.85 0.85 Q-0.85 0.9 -0.85 0.95 L-0.95 0.95 -1.0 0.9 -0.95 1.0 -0.95 1.2 -0.95 1.3 Q-0.95 1.35 -0.95 1.4 L-1.0 1.5 -1.05 1.45 -1.0 1.4 Q-1.0 1.35 -1.1 1.35 L-1.15 1.3 -1.2 1.25 -1.25 1.2 -1.15 1.3 -1.0 1.3 -1.05 1.2 -1.0 1.15 -1.0 1.1 -1.0 0.95 -1.05 0.95 -1.1 0.9 -1.2 0.85 -1.3 0.85 -1.35 0.85 -1.2 0.8 -1.1 0.8 -1.05 0.75 -1.0 0.7 M-1.05 -1.1 L-0.9 -1.05 Q-0.85 -1.0 -0.9 -0.95 -0.95 -0.85 -1.1 -0.9 L-1.05 -0.8 Q-1.0 -0.8 -1.05 -0.75 L-1.1 -0.75 -1.1 -0.75 -1.3 -0.8 -1.45 -0.95 -1.45 -1.0 -1.35 -1.0 -1.25 -1.05 -1.15 -1.0 -1.1 -1.05 -1.05 -1.1" fill="#84d4ff" fill-rule="evenodd" stroke="none"/>
    <path d="M-1.05 -0.65 L-1.05 -0.65 -0.95 -0.55 -0.9 -0.55 Q-0.85 -0.6 -0.85 -0.6 L-0.85 -0.7 -0.8 -0.75 -0.8 -0.8 -0.85 -0.8 -0.8 -0.85 -0.7 -0.9 -0.7 -0.85 -0.7 -0.8 -0.65 -0.8 -0.65 -0.7 -0.7 -0.75 -0.7 -0.8 -0.75 -0.75 -0.8 -0.7 -0.8 -0.65 -0.85 -0.6 -0.75 -0.6 -0.7 -0.7 -0.75 -0.55 Q-0.75 -0.45 -0.85 -0.5 L-0.85 -0.4 -0.7 -0.45 -0.55 -0.5 -0.6 -0.5 -0.6 -0.45 -0.65 -0.4 Q-0.7 -0.45 -0.75 -0.4 L-0.85 -0.3 -0.85 -0.15 Q-0.85 -0.05 -0.95 -0.05 -1.0 -0.05 -1.0 -0.05 L-1.05 -0.15 -1.0 -0.25 -0.95 -0.3 -0.9 -0.4 -0.85 -0.5 -1.0 -0.55 -1.0 -0.45 -1.05 -0.4 -1.05 -0.5 -1.1 -0.55 -1.05 -0.6 -1.1 -0.65 -1.05 -0.65 M-0.95 -0.3 L-1.0 -0.25 -1.0 -0.1 -0.95 -0.05 -0.9 -0.05 -0.9 -0.25 Q-0.9 -0.35 -0.95 -0.3" fill="#c5ffff" fill-rule="evenodd" stroke="none"/>
    <path d="M-1.35 -0.25 L-1.45 -0.25 -1.55 -0.25 Q-1.65 -0.25 -1.7 -0.25 L-1.85 -0.35 -1.8 -0.4 Q-1.75 -0.4 -1.7 -0.4 L-1.75 -0.5 -1.7 -0.55 Q-1.6 -0.55 -1.6 -0.65 L-1.6 -0.75 -1.55 -0.8 -1.55 -0.8 -1.5 -0.8 -1.1 -0.5 -1.1 -0.35 -1.15 -0.2 -1.25 -0.2 -1.35 -0.25 M-1.55 -0.6 L-1.6 -0.55 -1.7 -0.45 -1.75 -0.35 Q-1.75 -0.3 -1.65 -0.3 L-1.55 -0.3 -1.5 -0.3 -1.15 -0.2 -1.1 -0.3 -1.1 -0.4 Q-1.1 -0.5 -1.2 -0.55 L-1.25 -0.6 -1.5 -0.7 -1.55 -0.6" fill="#7ac8fe" fill-rule="evenodd" stroke="none"/>
    <path d="M-1.1 -0.2 L-1.25 -0.15 Q-1.3 -0.2 -1.35 -0.25 L-1.25 -0.2 -1.15 -0.2 -1.1 -0.35 -1.1 -0.5 -1.5 -0.8 -1.55 -0.8 -1.55 -0.8 -1.6 -0.75 -1.6 -0.65 Q-1.6 -0.55 -1.7 -0.55 L-1.75 -0.5 -1.7 -0.4 Q-1.75 -0.4 -1.8 -0.4 L-1.85 -0.35 -1.7 -0.25 Q-1.65 -0.25 -1.55 -0.25 L-1.45 -0.25 -1.5 -0.25 -1.55 -0.25 -1.55 -0.15 -1.65 -0.25 -1.8 -0.2 -1.85 -0.2 -1.85 -0.15 -1.85 -0.15 -1.85 -0.15 -1.85 -0.2 -1.8 -0.25 -1.85 -0.3 -1.85 -0.4 -1.75 -0.4 -1.75 -0.55 Q-1.6 -0.6 -1.65 -0.65 -1.65 -0.7 -1.6 -0.8 L-1.55 -0.85 -1.3 -0.7 -1.1 -0.5 Q-1.05 -0.45 -1.05 -0.35 -1.05 -0.25 -1.1 -0.2" fill="#8deaff" fill-rule="evenodd" stroke="none"/>
    <path d="M-1.65 -0.75 L-1.7 -0.65 -1.7 -0.6 -1.75 -0.55 -1.8 -0.5 Q-1.8 -0.45 -1.85 -0.45 L-1.9 -0.4 -1.9 -0.55 -1.85 -0.7 -1.9 -0.6 -1.9 -0.45 -1.85 -0.45 -1.8 -0.5 -1.75 -0.6 Q-1.7 -0.6 -1.7 -0.65 L-1.65 -0.75" fill="#cbffff" fill-rule="evenodd" stroke="none"/>
    <path d="M-1.55 -0.6 L-1.5 -0.7 -1.25 -0.6 -1.2 -0.55 Q-1.1 -0.5 -1.1 -0.4 L-1.1 -0.3 -1.15 -0.2 -1.5 -0.3 -1.55 -0.3 -1.65 -0.3 Q-1.75 -0.3 -1.75 -0.35 L-1.7 -0.45 -1.6 -0.55 -1.55 -0.6 M-1.65 -0.45 L-1.7 -0.35 -1.55 -0.3 -1.4 -0.3 -1.3 -0.25 -1.15 -0.25 -1.15 -0.35 Q-1.15 -0.4 -1.2 -0.4 -1.25 -0.4 -1.3 -0.45 L-1.3 -0.5 -1.4 -0.55 -1.4 -0.55 -1.45 -0.55 -1.5 -0.55 -1.55 -0.55 -1.65 -0.45" fill="#6caeef" fill-rule="evenodd" stroke="none"/>
    <path d="M-1.65 -0.45 L-1.55 -0.55 -1.5 -0.55 -1.45 -0.55 -1.4 -0.55 -1.4 -0.55 -1.3 -0.5 -1.3 -0.45 Q-1.25 -0.4 -1.2 -0.4 -1.15 -0.4 -1.15 -0.35 L-1.15 -0.25 -1.3 -0.25 -1.4 -0.3 -1.55 -0.3 -1.7 -0.35 -1.65 -0.45" fill="#64a0db" fill-rule="evenodd" stroke="none"/>
    <path d="M-1.55 -0.15 L-1.45 -0.15 -1.35 -0.15 -1.25 -0.1 -1.2 -0.05 -1.2 0.1 -1.25 0.15 -1.45 0.2 Q-1.6 0.25 -1.6 0.3 L-1.55 0.35 -1.45 0.35 -1.6 0.35 -1.75 0.35 -1.75 0.3 -1.8 0.3 -1.85 0.25 -1.85 0.2 -1.8 0.15 -1.75 0.15 -1.8 0.2 -1.85 0.25 -1.75 0.3 -1.6 0.25 Q-1.55 0.2 -1.4 0.15 L-1.2 0.1 -1.2 0.0 Q-1.2 -0.05 -1.25 -0.05 L-1.6 -0.2 -1.75 -0.2 Q-1.8 -0.2 -1.85 -0.15 L-1.85 -0.2 -1.8 -0.2 -1.65 -0.25 -1.55 -0.15" fill="#7ed3fe" fill-rule="evenodd" stroke="none"/>
    <path d="M0.3 1.5 L0.3 1.55 0.25 1.6 0.2 1.6 0.2 1.55 Q0.1 1.4 0.2 1.35 L0.25 1.4 0.3 1.5 M-1.9 0.25 L-1.9 0.3 -1.95 0.25 -2.0 0.05 -1.95 -0.2 -1.95 -0.25 -1.9 -0.25 -1.9 -0.2 -1.9 -0.15 -1.9 -0.1 -1.85 -0.05 -1.8 0.05 Q-1.95 0.15 -1.9 0.25 M-0.75 0.7 L-0.7 0.75 -0.65 0.8 -0.65 0.85 Q-0.75 0.85 -0.8 0.8 L-0.8 0.65 -0.75 0.7" fill="#f4ffff" fill-rule="evenodd" stroke="none"/>
    <path d="M-1.85 -0.15 Q-1.8 -0.2 -1.75 -0.2 L-1.6 -0.2 -1.25 -0.05 Q-1.2 -0.05 -1.2 0.0 L-1.2 0.1 -1.4 0.15 Q-1.55 0.2 -1.6 0.25 L-1.75 0.3 -1.85 0.25 -1.8 0.2 -1.75 0.15 -1.75 0.05 -1.75 -0.1 -1.8 -0.1 -1.85 -0.15 -1.85 -0.15 M-1.7 -0.15 L-1.75 -0.15 -1.75 -0.15 Q-1.7 -0.1 -1.7 0.0 L-1.75 0.15 -1.8 0.2 -1.75 0.25 -1.65 0.25 -1.55 0.2 -1.4 0.15 -1.25 0.1 -1.25 -0.05 -1.35 -0.1 -1.5 -0.1 -1.6 -0.15 -1.7 -0.15" fill="#6cb0f0" fill-rule="evenodd" stroke="none"/>
    <path d="M-1.85 -0.1 L-1.85 -0.15 -1.8 -0.1 -1.75 -0.1 -1.8 -0.1 -1.85 -0.1 M-1.85 -0.15 L-1.85 -0.15" fill="#79d2fd" fill-rule="evenodd" stroke="none"/>
    <path d="M-1.3 0.75 L-1.3 0.8 -1.25 0.8 -1.2 0.8 -1.1 0.75 -1.05 0.75 -1.0 0.7 -1.05 0.75 -1.1 0.8 -1.2 0.8 -1.35 0.85 -1.45 0.9 -1.5 1.0 -1.5 1.1 Q-1.45 1.15 -1.4 1.1 -1.35 1.1 -1.3 1.15 L-1.25 1.2 -1.2 1.25 -1.3 1.2 Q-1.3 1.15 -1.35 1.2 -1.35 1.35 -1.25 1.4 L-1.2 1.4 -1.2 1.5 -1.25 1.5 -1.3 1.45 -1.35 1.45 -1.35 1.55 -1.45 1.45 -1.55 1.3 -1.6 1.25 -1.65 1.15 -1.9 0.7 Q-2.0 0.4 -2.0 0.15 L-2.0 0.25 -1.95 0.35 -1.9 0.35 -1.85 0.35 -1.85 0.2 -1.8 0.1 -1.75 0.05 Q-1.75 0.0 -1.8 -0.05 L-1.8 -0.05 -1.85 -0.1 -1.8 -0.1 -1.75 -0.1 -1.75 0.05 -1.75 0.15 -1.8 0.15 -1.85 0.2 -1.85 0.25 -1.8 0.3 -1.75 0.3 -1.75 0.35 -1.85 0.4 Q-1.9 0.4 -1.85 0.45 L-1.75 0.45 -1.7 0.5 -1.75 0.55 -1.75 0.6 -1.7 0.65 -1.65 0.7 -1.65 0.7 -1.65 0.8 -1.6 0.85 -1.55 0.95 Q-1.5 0.9 -1.45 0.85 L-1.3 0.75 M-1.95 0.55 L-1.9 0.65 -1.8 0.9 -1.65 1.15 -1.6 1.2 -1.55 1.25 Q-1.5 1.15 -1.5 1.05 -1.5 1.0 -1.55 0.95 L-1.6 0.95 -1.65 0.9 -1.7 0.8 -1.7 0.65 -1.8 0.6 -1.8 0.55 Q-1.8 0.5 -1.85 0.5 L-1.9 0.5 -1.95 0.55 M-1.45 1.2 L-1.5 1.25 -1.5 1.3 -1.4 1.4 -1.25 1.45 Q-1.25 1.45 -1.25 1.4 L-1.3 1.4 -1.3 1.35 -1.35 1.3 -1.35 1.25 Q-1.4 1.15 -1.45 1.2" fill="#8bf0ff" fill-rule="evenodd" stroke="none"/>
    <path d="M-1.7 -0.15 L-1.6 -0.15 -1.5 -0.1 -1.35 -0.1 -1.25 -0.05 -1.25 0.1 -1.4 0.15 -1.55 0.2 -1.65 0.25 -1.75 0.25 -1.8 0.2 -1.75 0.15 -1.7 0.0 Q-1.7 -0.1 -1.75 -0.15 L-1.75 -0.15 -1.7 -0.15" fill="#5e96cf" fill-rule="evenodd" stroke="none"/>
    <path d="M2.2 0.15 L2.2 0.45 2.1 0.4 2.0 0.45 2.0 0.6 1.95 0.75 Q1.9 0.75 1.9 0.8 L1.95 0.8 2.0 0.85 2.05 0.8 2.1 0.8 2.2 0.8 Q2.15 0.85 2.15 0.8 L2.1 0.8 2.05 0.85 2.05 0.9 2.1 0.95 2.2 0.9 2.2 1.0 2.15 1.0 2.1 1.0 Q2.1 1.0 2.05 1.0 L1.95 1.05 1.95 0.95 1.9 0.9 1.9 0.85 1.85 0.95 1.8 1.05 1.85 1.0 Q1.9 1.05 1.85 1.05 L1.8 1.15 Q1.7 1.2 1.6 1.3 L1.45 1.5 1.5 1.55 1.55 1.65 1.6 1.65 1.6 1.7 1.65 1.75 1.65 1.8 1.65 1.9 1.6 1.9 1.55 1.9 1.55 1.85 1.5 1.85 Q1.45 1.85 1.4 1.75 L1.3 1.7 1.2 1.7 1.15 1.75 1.0 1.8 0.85 1.9 0.55 2.0 0.25 2.05 0.0 2.05 -0.3 2.05 -0.45 2.05 -0.55 2.0 -0.75 1.95 -0.95 1.85 -1.05 1.85 -1.1 1.9 -1.2 1.9 -1.2 1.85 -1.15 1.8 -1.15 1.75 -1.2 1.65 -1.25 1.6 -1.35 1.55 -1.35 1.45 -1.3 1.45 -1.25 1.5 -1.2 1.5 -1.2 1.4 -1.25 1.4 Q-1.35 1.35 -1.35 1.2 -1.3 1.15 -1.3 1.2 L-1.2 1.25 -1.15 1.3 -1.1 1.35 Q-1.0 1.35 -1.0 1.4 L-1.05 1.45 -1.0 1.5 -0.95 1.4 Q-0.95 1.35 -0.95 1.3 L-0.95 1.2 -0.95 1.0 -1.0 0.9 -0.95 0.95 -0.85 0.95 Q-0.85 0.9 -0.85 0.85 L-0.9 0.8 -0.9 0.7 Q-0.9 0.65 -0.9 0.65 L-0.95 0.65 -1.0 0.7 -1.05 0.75 -1.1 0.75 -1.2 0.8 -1.25 0.8 -1.3 0.8 -1.3 0.75 -1.15 0.65 Q-1.05 0.6 -1.05 0.5 L-1.05 0.4 -1.1 0.3 Q-1.1 0.25 -1.2 0.25 -1.25 0.25 -1.35 0.3 L-1.45 0.35 -1.55 0.35 -1.6 0.3 Q-1.6 0.25 -1.45 0.2 L-1.25 0.15 -1.2 0.1 -1.2 -0.05 -1.25 -0.1 -1.35 -0.15 -1.45 -0.15 -1.55 -0.15 -1.55 -0.25 -1.5 -0.25 -1.45 -0.25 -1.5 -0.2 -1.45 -0.15 -1.35 -0.2 -1.4 -0.25 -1.45 -0.25 -1.35 -0.25 Q-1.3 -0.2 -1.25 -0.15 L-1.1 -0.2 -1.15 -0.15 -1.2 -0.15 -1.2 -0.1 -1.15 -0.05 -1.15 0.1 -1.2 0.2 -1.05 0.3 Q-1.05 0.4 -1.05 0.45 L-1.05 0.6 -1.1 0.65 -1.15 0.65 -1.2 0.7 -1.25 0.75 -1.2 0.8 -1.1 0.75 -1.05 0.7 -1.0 0.65 -0.9 0.6 Q-0.85 0.65 -0.85 0.7 L-0.8 0.8 -0.7 0.85 -0.65 0.85 -0.65 0.8 -0.7 0.75 -0.75 0.65 -0.75 0.55 -0.65 0.55 -0.55 0.6 -0.5 0.6 -0.35 0.6 -0.2 0.6 -0.1 0.7 -0.1 0.75 -0.25 0.85 -0.3 0.8 -0.35 0.85 -0.25 0.9 -0.2 0.9 Q-0.05 0.9 -0.05 1.0 L-0.15 1.05 -0.35 1.0 -0.5 0.9 -0.55 0.95 -0.6 1.0 -0.7 1.1 -0.7 1.1 -0.75 1.15 -0.8 1.15 -0.85 1.2 Q-0.9 1.15 -0.95 1.2 L-0.95 1.35 -0.9 1.35 -0.85 1.4 -0.85 1.4 -0.9 1.45 -0.95 1.5 Q-0.95 1.55 -1.0 1.55 L-1.15 1.6 Q-1.2 1.65 -1.15 1.7 L-1.0 1.8 -0.8 1.9 -0.75 1.9 -0.55 2.0 -0.45 2.0 -0.35 2.0 -0.25 2.05 -0.15 2.05 0.1 2.05 Q0.25 2.05 0.4 1.95 L0.5 1.95 0.55 1.95 0.65 1.95 0.7 1.9 Q0.95 1.8 1.15 1.7 L1.3 1.65 1.45 1.7 1.5 1.7 1.5 1.65 1.45 1.55 1.4 1.55 1.45 1.5 1.5 1.45 1.6 1.3 1.7 1.15 1.75 1.05 1.8 0.95 1.85 0.85 1.9 0.75 1.95 0.55 Q2.0 0.45 2.05 0.4 L2.05 0.25 2.1 0.15 Q2.1 0.1 2.15 0.1 L2.2 0.15 M-0.2 0.6 L-0.2 0.6 M-0.5 0.65 Q-0.5 0.6 -0.55 0.6 L-0.65 0.55 -0.7 0.65 -0.65 0.75 -0.6 0.8 -0.6 0.85 -0.5 0.9 -0.4 0.9 Q-0.35 0.95 -0.35 0.85 L-0.4 0.75 -0.45 0.7 -0.45 0.65 -0.5 0.65 M-0.8 1.1 L-0.75 1.1 -0.75 1.05 -0.7 1.0 -0.65 1.0 -0.6 0.95 Q-0.65 0.9 -0.7 0.9 L-0.75 0.9 -0.8 1.0 -0.8 1.1 M-0.2 0.65 Q-0.2 0.65 -0.25 0.6 L-0.3 0.65 -0.4 0.65 -0.35 0.75 -0.3 0.8 -0.2 0.8 Q-0.15 0.8 -0.15 0.75 L-0.2 0.65 M-0.15 0.9 L-0.2 0.9 -0.3 0.95 -0.15 1.0 -0.1 1.0 -0.1 0.95 -0.15 0.9 M-1.5 0.25 L-1.5 0.3 -1.4 0.3 -1.35 0.25 -1.4 0.2 -1.45 0.2 -1.5 0.25" fill="#a4f8ff" fill-rule="evenodd" stroke="none"/>
    <path d="M-0.5 0.6 L-0.55 0.6 Q-0.6 0.45 -0.75 0.5 L-0.8 0.45 -0.85 0.4 -0.85 0.25 Q-0.85 0.15 -0.9 0.1 -1.05 0.1 -1.05 0.2 L-1.0 0.3 -0.95 0.35 -0.9 0.45 -0.85 0.6 -0.95 0.6 -1.0 0.55 -1.05 0.45 -1.05 0.3 -1.1 0.25 Q-1.15 0.15 -1.15 0.1 L-1.15 -0.05 -1.15 -0.15 -1.05 -0.25 Q-1.0 -0.35 -1.05 -0.4 L-1.0 -0.45 -1.0 -0.55 -0.85 -0.5 -0.9 -0.4 -0.95 -0.3 -1.0 -0.25 -1.05 -0.15 -1.0 -0.05 Q-1.0 -0.05 -0.95 -0.05 -0.85 -0.05 -0.85 -0.15 L-0.85 -0.3 -0.75 -0.4 Q-0.7 -0.45 -0.65 -0.4 L-0.6 -0.45 -0.6 -0.5 -0.65 -0.4 -0.7 -0.4 -0.8 -0.35 -0.85 -0.3 -0.85 -0.15 Q-0.85 -0.1 -0.85 -0.05 L-0.9 0.0 -0.85 0.05 -0.85 0.35 -0.75 0.4 -0.7 0.45 -0.7 0.4 -0.75 0.35 -0.65 0.25 -0.55 0.25 Q-0.55 0.3 -0.55 0.35 L-0.6 0.4 -0.65 0.45 -0.55 0.55 -0.5 0.6 -0.45 0.55 -0.45 0.5 -0.45 0.6 -0.5 0.6 M-0.7 -0.7 L-0.75 -0.6 -0.85 -0.6 -0.8 -0.65 -0.8 -0.7 -0.75 -0.75 -0.7 -0.8 -0.7 -0.75 -0.65 -0.7 -0.7 -0.7 M-0.55 0.3 L-0.6 0.25 -0.65 0.25 -0.7 0.3 Q-0.7 0.35 -0.65 0.35 L-0.6 0.35 -0.55 0.3" fill="#f1ffff" fill-rule="evenodd" stroke="none"/>
    <path d="M-0.15 -0.95 L-0.2 -0.95 -0.25 -0.95 Q-0.3 -0.9 -0.25 -0.85 L-0.15 -0.9 -0.1 -0.9 -0.1 -0.95 -0.15 -0.95 M-0.2 -0.85 L-0.3 -0.85 -0.35 -0.9 Q-0.3 -1.0 -0.2 -1.0 -0.1 -1.0 -0.1 -0.95 -0.05 -0.9 -0.1 -0.85 L-0.2 -0.85" fill="#a4f7ff" fill-rule="evenodd" stroke="none"/>
    <path d="M-0.15 -0.95 L-0.1 -0.95 -0.1 -0.9 -0.15 -0.9 -0.25 -0.85 Q-0.3 -0.9 -0.25 -0.95 L-0.2 -0.95 -0.15 -0.95" fill="#83d4ff" fill-rule="evenodd" stroke="none"/>
    <path d="M-0.2 0.6 L-0.2 0.6 -0.25 0.55 -0.25 0.5 -0.1 0.55 -0.05 0.65 -0.05 0.7 Q-0.05 0.65 -0.1 0.65 L-0.2 0.6 M-0.7 -1.15 L-0.7 -1.2 -0.65 -1.1 -0.6 -1.0 -0.65 -1.0 -0.65 -1.0 -0.7 -1.1 -0.7 -1.15" fill="#e9ffff" fill-rule="evenodd" stroke="none"/>
    <path d="M-0.75 -0.3 L-0.65 -0.35 -0.6 -0.35 -0.55 -0.3 -0.5 -0.25 -0.55 -0.35 -0.45 -0.4 -0.5 -0.3 -0.5 -0.2 Q-0.45 -0.15 -0.5 -0.1 -0.55 -0.05 -0.65 0.0 L-0.6 0.05 -0.5 0.1 -0.5 0.15 -0.4 0.15 -0.45 0.1 -0.45 0.0 -0.4 -0.15 Q-0.35 -0.2 -0.4 -0.3 L-0.35 -0.35 -0.3 -0.4 -0.25 -0.35 Q-0.2 -0.35 -0.2 -0.4 L-0.3 -0.45 -0.45 -0.45 Q-0.4 -0.5 -0.3 -0.5 L-0.15 -0.4 -0.2 -0.35 -0.2 -0.35 -0.25 -0.35 -0.3 -0.35 -0.35 -0.15 Q-0.4 -0.05 -0.45 0.0 L-0.4 0.15 Q-0.35 0.25 -0.4 0.25 L-0.45 0.2 -0.5 0.15 Q-0.55 0.1 -0.6 0.15 L-0.65 0.2 -0.7 0.2 -0.7 0.15 -0.65 0.15 -0.6 0.1 -0.55 0.1 -0.65 0.1 -0.7 0.05 -0.65 0.0 -0.65 -0.05 Q-0.7 -0.05 -0.75 -0.1 L-0.75 -0.2 -0.8 -0.25 -0.8 -0.25 -0.75 -0.2 -0.75 -0.15 -0.65 -0.1 -0.55 -0.15 Q-0.55 -0.25 -0.6 -0.3 -0.6 -0.35 -0.65 -0.35 L-0.75 -0.3" fill="#e8ffff" fill-rule="evenodd" stroke="none"/>
    <path d="M-0.95 -0.3 Q-0.9 -0.35 -0.9 -0.25 L-0.9 -0.05 -0.95 -0.05 -1.0 -0.1 -1.0 -0.25 -0.95 -0.3 M-0.95 -0.25 L-0.95 -0.2 -1.0 -0.15 -0.95 -0.1 Q-0.9 -0.1 -0.9 -0.1 L-0.9 -0.2 Q-0.9 -0.25 -0.95 -0.25" fill="#a3f8ff" fill-rule="evenodd" stroke="none"/>
    <path d="M-0.95 -0.25 Q-0.9 -0.25 -0.9 -0.2 L-0.9 -0.1 Q-0.9 -0.1 -0.95 -0.1 L-1.0 -0.15 -0.95 -0.2 -0.95 -0.25" fill="#88dbff" fill-rule="evenodd" stroke="none"/>
    <path d="M-0.8 -0.25 L-0.75 -0.3 -0.65 -0.35 Q-0.6 -0.35 -0.6 -0.3 -0.55 -0.25 -0.55 -0.15 L-0.65 -0.1 -0.75 -0.15 -0.75 -0.2 -0.8 -0.25 M-0.6 -0.2 L-0.6 -0.3 -0.65 -0.3 -0.75 -0.25 -0.75 -0.2 -0.7 -0.15 -0.6 -0.15 -0.6 -0.2" fill="#c1ffff" fill-rule="evenodd" stroke="none"/>
    <path d="M-0.45 -0.4 L-0.45 -0.45 -0.3 -0.45 -0.2 -0.4 Q-0.2 -0.35 -0.25 -0.35 L-0.3 -0.4 -0.35 -0.35 -0.4 -0.3 Q-0.35 -0.2 -0.4 -0.15 L-0.45 0.0 -0.45 0.1 -0.4 0.15 -0.5 0.15 -0.5 0.1 -0.6 0.05 -0.65 0.0 Q-0.55 -0.05 -0.5 -0.1 -0.45 -0.15 -0.5 -0.2 L-0.5 -0.3 -0.45 -0.4" fill="#c7ffff" fill-rule="evenodd" stroke="none"/>
    <path d="M-0.35 0.35 L-0.3 0.4 -0.2 0.4 -0.15 0.45 -0.25 0.5 -0.35 0.55 -0.45 0.45 Q-0.5 0.4 -0.45 0.35 L-0.35 0.35" fill="#a5fcff" fill-rule="evenodd" stroke="none"/>
    <path d="M1.7 1.15 L1.6 1.3 1.5 1.45 1.45 1.5 1.4 1.55 1.45 1.55 1.5 1.65 1.5 1.7 1.45 1.7 1.3 1.65 1.15 1.7 1.25 1.65 1.3 1.6 1.35 1.5 1.45 1.45 1.55 1.3 1.4 1.35 1.3 1.5 1.2 1.55 1.1 1.55 1.0 1.55 0.95 1.6 0.85 1.7 Q0.75 1.75 0.75 1.75 L0.8 1.7 0.95 1.6 Q0.95 1.55 1.0 1.55 L1.05 1.5 1.1 1.45 1.1 1.35 1.15 1.25 1.25 1.2 1.3 1.1 1.35 1.05 1.3 1.0 1.25 1.0 1.2 0.95 1.1 0.95 1.1 1.0 1.0 1.0 1.0 0.95 1.05 0.9 1.1 0.9 Q1.15 0.8 1.1 0.8 L0.95 0.75 1.0 0.7 1.05 0.6 1.1 0.65 1.05 0.65 1.05 0.7 1.1 0.8 1.15 0.85 Q1.1 0.9 1.15 0.95 L1.25 0.95 1.3 0.9 1.3 0.95 1.4 1.0 1.5 1.0 Q1.5 0.95 1.55 0.95 L1.5 0.95 1.5 1.1 1.55 1.25 1.6 1.25 1.7 1.15 M1.4 1.15 L1.3 1.1 1.3 1.2 1.2 1.25 1.15 1.3 1.1 1.35 1.1 1.45 Q1.1 1.45 1.15 1.45 1.15 1.4 1.2 1.4 L1.3 1.4 1.35 1.3 1.4 1.2 1.4 1.15 M1.5 1.2 L1.45 1.2 1.35 1.25 Q1.35 1.3 1.4 1.35 L1.45 1.3 1.5 1.25 1.5 1.2 M-0.55 0.3 L-0.6 0.35 -0.65 0.35 Q-0.7 0.35 -0.7 0.3 L-0.65 0.25 -0.6 0.25 -0.55 0.3" fill="#c8ffff" fill-rule="evenodd" stroke="none"/>
    <path d="M-0.9 0.3 L-0.9 0.2 -0.95 0.15 -1.0 0.2 -0.95 0.3 -0.9 0.3 M-0.9 0.15 L-0.9 0.35 Q-0.9 0.4 -0.95 0.35 L-1.0 0.2 Q-1.05 0.15 -0.95 0.1 -0.9 0.1 -0.9 0.15" fill="#a3f9ff" fill-rule="evenodd" stroke="none"/>
    <path d="M-0.9 0.3 L-0.95 0.3 -1.0 0.2 -0.95 0.15 -0.9 0.2 -0.9 0.3" fill="#89ddff" fill-rule="evenodd" stroke="none"/>
    <path d="M-0.45 0.7 L-0.4 0.75 -0.35 0.85 Q-0.35 0.95 -0.4 0.9 L-0.5 0.9 -0.6 0.85 -0.6 0.8 -0.65 0.75 -0.7 0.65 -0.65 0.55 -0.55 0.6 Q-0.5 0.6 -0.5 0.65 L-0.55 0.65 -0.65 0.6 -0.6 0.75 -0.55 0.85 -0.5 0.85 -0.5 0.9 -0.4 0.85 -0.45 0.75 -0.45 0.7" fill="#8ce2ff" fill-rule="evenodd" stroke="none"/>
    <path d="M-0.5 0.65 L-0.45 0.65 -0.45 0.7 -0.45 0.75 -0.4 0.85 -0.5 0.9 -0.5 0.85 -0.55 0.85 -0.6 0.75 -0.65 0.6 -0.55 0.65 -0.5 0.65" fill="#7dc8ff" fill-rule="evenodd" stroke="none"/>
    <path d="M-1.35 0.85 L-1.3 0.85 -1.2 0.85 -1.1 0.9 -1.05 0.95 -1.0 0.95 -1.0 1.1 -1.0 1.15 -1.05 1.2 -1.0 1.3 -1.15 1.3 -1.25 1.2 -1.3 1.15 Q-1.35 1.1 -1.4 1.1 -1.45 1.15 -1.5 1.1 L-1.5 1.0 -1.45 0.9 -1.35 0.85 M-1.15 0.9 L-1.25 0.9 -1.3 0.9 -1.4 0.9 -1.45 1.0 Q-1.5 1.05 -1.45 1.1 -1.2 1.1 -1.15 1.25 L-1.05 1.15 Q-1.0 1.1 -1.05 1.05 L-1.05 1.0 Q-1.05 1.0 -1.1 1.0 L-1.15 1.0 -1.15 0.9" fill="#75bcfb" fill-rule="evenodd" stroke="none"/>
    <path d="M-0.8 1.1 L-0.8 1.0 -0.75 0.9 -0.7 0.9 Q-0.65 0.9 -0.6 0.95 L-0.65 1.0 -0.7 1.0 -0.75 1.05 -0.75 1.1 -0.8 1.1" fill="#85d5ff" fill-rule="evenodd" stroke="none"/>
    <path d="M-0.15 2.05 L-0.25 2.05 -0.35 2.0 -0.45 2.0 -0.55 2.0 -0.5 1.95 -0.45 1.95 Q-0.45 1.9 -0.5 1.85 L-0.55 1.8 -0.6 1.75 Q-0.65 1.75 -0.7 1.75 L-0.8 1.7 Q-0.8 1.7 -0.85 1.65 L-0.95 1.6 -1.05 1.6 -1.15 1.65 -1.05 1.75 -0.8 1.85 -0.75 1.9 -0.8 1.9 -1.0 1.8 -1.15 1.7 Q-1.2 1.65 -1.15 1.6 L-1.0 1.55 Q-0.95 1.55 -0.95 1.5 L-0.9 1.45 -0.85 1.4 -0.85 1.4 -0.9 1.35 -0.95 1.35 -0.95 1.2 Q-0.9 1.15 -0.85 1.2 L-0.8 1.15 -0.75 1.15 -0.7 1.1 -0.8 1.25 -0.8 1.4 -0.7 1.35 -0.65 1.3 -0.55 1.2 -0.45 1.15 Q-0.5 1.1 -0.5 1.1 L-0.5 1.05 -0.4 1.05 -0.3 1.1 -0.3 1.15 -0.35 1.1 -0.45 1.1 -0.5 1.2 -0.6 1.25 Q-0.6 1.35 -0.65 1.4 L-0.75 1.4 -0.8 1.45 -0.85 1.5 -0.9 1.6 -0.8 1.65 -0.75 1.7 -0.65 1.7 -0.55 1.75 Q-0.55 1.8 -0.5 1.8 -0.45 1.8 -0.45 1.85 L-0.45 1.9 -0.4 1.9 Q-0.35 1.95 -0.35 1.9 L-0.3 1.85 Q-0.3 1.8 -0.3 1.85 L-0.25 1.9 -0.15 1.85 -0.05 1.8 Q0.0 1.75 0.05 1.8 L0.1 1.9 0.05 1.8 0.0 1.8 -0.1 1.85 -0.15 1.9 -0.2 1.9 -0.25 1.9 Q-0.35 1.9 -0.3 1.95 L-0.15 2.05" fill="#ceffff" fill-rule="evenodd" stroke="none"/>
    <path d="M-0.2 0.75 Q-0.15 0.7 -0.2 0.65 L-0.3 0.65 -0.35 0.7 -0.3 0.75 -0.25 0.8 -0.2 0.75 M-0.2 0.65 L-0.15 0.75 Q-0.15 0.8 -0.2 0.8 L-0.3 0.8 -0.35 0.75 -0.4 0.65 -0.3 0.65 -0.25 0.6 Q-0.2 0.65 -0.2 0.65" fill="#85d8ff" fill-rule="evenodd" stroke="none"/>
    <path d="M-0.2 0.75 L-0.25 0.8 -0.3 0.75 -0.35 0.7 -0.3 0.65 -0.2 0.65 Q-0.15 0.7 -0.2 0.75" fill="#71b5f4" fill-rule="evenodd" stroke="none"/>
    <path d="M-0.15 0.9 L-0.1 0.95 -0.1 1.0 -0.15 1.0 -0.3 0.95 -0.2 0.9 -0.15 0.9" fill="#83d2fe" fill-rule="evenodd" stroke="none"/>
    <path d="M0.55 1.95 L0.5 1.95 0.4 1.95 Q0.25 2.05 0.1 2.05 L0.25 2.0 0.35 1.95 0.3 1.9 0.25 1.9 0.15 1.9 0.1 1.9 0.05 1.8 Q0.0 1.75 -0.05 1.8 L-0.15 1.85 -0.25 1.9 -0.3 1.85 Q-0.3 1.8 -0.3 1.85 L-0.35 1.9 Q-0.35 1.95 -0.4 1.9 L-0.45 1.9 -0.45 1.85 Q-0.45 1.8 -0.5 1.8 -0.55 1.8 -0.55 1.75 L-0.65 1.7 -0.75 1.7 -0.8 1.65 -0.9 1.6 -0.85 1.5 -0.8 1.45 -0.75 1.4 -0.65 1.4 Q-0.6 1.35 -0.6 1.25 L-0.5 1.2 -0.45 1.1 -0.35 1.1 -0.3 1.15 -0.3 1.2 -0.25 1.2 -0.25 1.25 -0.3 1.25 -0.35 1.25 -0.35 1.3 -0.3 1.35 -0.35 1.45 -0.35 1.5 -0.3 1.6 -0.25 1.65 -0.2 1.6 -0.15 1.5 -0.05 1.5 Q-0.05 1.55 0.0 1.5 L0.0 1.4 0.0 1.35 -0.05 1.3 Q-0.15 1.3 -0.1 1.25 L-0.05 1.25 0.05 1.2 Q0.1 1.2 0.15 1.25 L0.15 1.4 Q0.1 1.5 0.2 1.55 L0.2 1.6 0.25 1.6 0.3 1.55 0.3 1.5 0.3 1.4 0.25 1.35 0.2 1.25 0.2 1.2 0.25 1.25 0.25 1.35 Q0.35 1.4 0.3 1.5 L0.3 1.75 0.25 1.7 0.2 1.65 Q0.15 1.55 0.1 1.55 L0.05 1.6 0.0 1.7 -0.1 1.65 -0.1 1.6 -0.2 1.65 -0.25 1.75 -0.25 1.8 -0.2 1.85 Q-0.15 1.9 -0.15 1.85 L-0.1 1.8 -0.05 1.75 0.05 1.75 0.15 1.85 0.25 1.85 0.3 1.8 0.35 1.85 0.4 1.9 0.45 1.9 0.45 1.85 Q0.45 1.8 0.5 1.8 L0.55 1.8 0.6 1.75 0.65 1.7 0.7 1.7 0.75 1.75 0.65 1.75 0.6 1.8 0.55 1.85 Q0.45 1.85 0.45 1.9 0.45 1.95 0.5 1.95 L0.55 1.95 M-0.35 1.55 Q-0.4 1.5 -0.5 1.5 L-0.6 1.5 -0.7 1.5 -0.75 1.5 -0.8 1.55 Q-0.85 1.6 -0.8 1.6 L-0.7 1.65 Q-0.65 1.65 -0.6 1.7 L-0.5 1.75 Q-0.4 1.8 -0.4 1.85 L-0.3 1.8 Q-0.3 1.7 -0.3 1.7 -0.3 1.6 -0.35 1.55" fill="#adfdff" fill-rule="evenodd" stroke="none"/>
    <path d="M0.6 1.2 L0.6 1.15 0.55 1.1 0.5 1.1 0.35 1.1 Q0.25 1.15 0.2 1.2 L0.2 1.25 0.25 1.35 0.3 1.4 0.3 1.5 0.25 1.4 0.2 1.35 Q0.1 1.4 0.2 1.55 0.1 1.5 0.15 1.4 L0.15 1.25 Q0.1 1.2 0.05 1.2 L-0.05 1.25 -0.1 1.25 Q-0.15 1.3 -0.05 1.3 L0.0 1.35 0.0 1.4 0.0 1.5 Q-0.05 1.55 -0.05 1.5 L-0.15 1.5 -0.2 1.6 -0.25 1.65 -0.3 1.6 -0.35 1.5 -0.35 1.45 -0.3 1.35 -0.35 1.3 -0.35 1.25 -0.3 1.25 -0.25 1.25 -0.25 1.2 -0.3 1.2 -0.2 1.2 Q-0.15 1.2 -0.2 1.25 L-0.3 1.4 Q-0.3 1.5 -0.25 1.6 -0.25 1.6 -0.2 1.55 L-0.15 1.5 -0.15 1.5 Q-0.1 1.45 -0.1 1.4 L-0.1 1.35 -0.1 1.25 0.05 1.2 0.15 1.2 Q0.3 1.05 0.4 1.05 L0.5 1.05 0.55 1.05 0.6 1.2" fill="#cdffff" fill-rule="evenodd" stroke="none"/>
    <path d="M-1.5 0.25 L-1.45 0.2 -1.4 0.2 -1.35 0.25 -1.4 0.3 -1.5 0.3 -1.5 0.25" fill="#d2ffff" fill-rule="evenodd" stroke="none"/>
    <path d="M-1.45 0.35 L-1.35 0.3 -1.25 0.3 -1.2 0.25 Q-1.15 0.25 -1.1 0.35 L-1.1 0.6 -1.2 0.65 -1.25 0.7 -1.3 0.75 -1.45 0.85 Q-1.5 0.9 -1.55 0.95 L-1.6 0.85 -1.65 0.8 -1.65 0.7 -1.7 0.65 -1.75 0.6 -1.75 0.55 -1.7 0.5 -1.75 0.45 -1.85 0.45 Q-1.9 0.4 -1.85 0.4 L-1.75 0.35 -1.6 0.35 -1.45 0.35 M-1.65 0.7 L-1.6 0.85 -1.5 0.9 -1.4 0.8 -1.35 0.7 -1.15 0.55 -1.15 0.5 -1.2 0.45 -1.2 0.5 -1.25 0.5 -1.3 0.45 -1.25 0.45 -1.2 0.4 -1.15 0.35 Q-1.15 0.3 -1.2 0.3 L-1.4 0.35 -1.55 0.35 -1.6 0.35 -1.7 0.35 -1.75 0.4 -1.7 0.45 -1.75 0.55 -1.7 0.6 -1.7 0.6 Q-1.6 0.65 -1.65 0.7" fill="#75c0fc" fill-rule="evenodd" stroke="none"/>
    <path d="M-1.35 0.3 Q-1.25 0.25 -1.2 0.25 -1.1 0.25 -1.1 0.3 L-1.05 0.4 -1.05 0.5 Q-1.05 0.6 -1.15 0.65 L-1.3 0.75 -1.25 0.7 -1.2 0.65 -1.1 0.6 -1.1 0.35 Q-1.15 0.25 -1.2 0.25 L-1.25 0.3 -1.35 0.3" fill="#8de4ff" fill-rule="evenodd" stroke="none"/>
    <path d="M-1.3 0.6 Q-1.3 0.55 -1.35 0.55 L-1.35 0.5 Q-1.35 0.45 -1.35 0.45 -1.4 0.35 -1.5 0.4 L-1.65 0.4 -1.7 0.4 -1.7 0.5 -1.65 0.6 -1.6 0.65 -1.6 0.8 -1.55 0.85 -1.45 0.8 -1.35 0.65 -1.3 0.6 M-1.65 0.7 Q-1.6 0.65 -1.7 0.6 L-1.7 0.6 -1.75 0.55 -1.7 0.45 -1.75 0.4 -1.7 0.35 -1.6 0.35 -1.55 0.35 -1.4 0.35 -1.2 0.3 Q-1.15 0.3 -1.15 0.35 L-1.2 0.4 -1.25 0.45 -1.3 0.45 -1.25 0.5 -1.2 0.5 -1.2 0.45 -1.15 0.5 -1.15 0.55 -1.35 0.7 -1.4 0.8 -1.5 0.9 -1.6 0.85 -1.65 0.7 -1.65 0.7" fill="#6aaaeb" fill-rule="evenodd" stroke="none"/>
    <path d="M-1.95 0.55 L-1.9 0.5 -1.85 0.5 Q-1.8 0.5 -1.8 0.55 L-1.8 0.6 -1.7 0.65 -1.7 0.8 -1.65 0.9 -1.6 0.95 -1.55 0.95 Q-1.5 1.0 -1.5 1.05 -1.5 1.15 -1.55 1.25 L-1.6 1.2 -1.65 1.15 -1.8 0.9 -1.9 0.65 -1.95 0.55 M-1.7 0.85 L-1.75 0.8 -1.75 0.7 -1.85 0.65 -1.85 0.7 -1.8 0.8 -1.75 0.95 -1.65 1.1 -1.6 1.15 -1.55 1.15 Q-1.5 1.1 -1.55 1.05 -1.55 0.95 -1.65 0.95 L-1.7 0.85" fill="#a7feff" fill-rule="evenodd" stroke="none"/>
    <path d="M-2.2 1.85 L-2.2 1.6 -2.1 1.55 -2.0 1.6 -1.95 1.55 -1.95 1.5 -1.95 1.45 -1.9 1.4 -1.85 1.4 -1.75 1.4 Q-1.7 1.35 -1.7 1.3 -1.7 1.25 -1.75 1.15 L-1.8 1.05 -1.9 0.9 -1.95 0.75 -1.85 0.9 -1.75 1.05 -1.7 1.2 -1.65 1.3 Q-1.55 1.35 -1.55 1.4 L-1.6 1.55 -1.7 1.5 -1.75 1.45 Q-1.75 1.4 -1.8 1.4 L-1.8 1.4 -1.85 1.45 -1.85 1.45 -1.9 1.45 -1.9 1.5 -1.85 1.5 Q-1.8 1.5 -1.8 1.6 L-1.75 1.55 -1.7 1.5 -1.7 1.6 -1.75 1.7 -1.8 1.75 -1.8 1.85 Q-1.85 1.9 -1.9 1.85 L-2.0 1.75 -1.95 1.7 -1.9 1.65 -2.0 1.6 -2.05 1.65 -2.1 1.6 -2.15 1.6 -2.15 1.65 -2.1 1.7 -2.15 1.8 -2.2 1.85" fill="#65a2e1" fill-rule="evenodd" stroke="none"/>
    <path d="M-1.15 0.9 L-1.15 1.0 -1.1 1.0 Q-1.05 1.0 -1.05 1.0 L-1.05 1.05 Q-1.0 1.1 -1.05 1.15 L-1.15 1.25 Q-1.2 1.1 -1.45 1.1 -1.5 1.05 -1.45 1.0 L-1.4 0.9 -1.3 0.9 -1.25 0.9 -1.15 0.9" fill="#69a9e9" fill-rule="evenodd" stroke="none"/>
    <path d="M-1.45 1.2 Q-1.4 1.15 -1.35 1.25 L-1.35 1.3 -1.3 1.35 -1.3 1.4 -1.25 1.4 Q-1.25 1.45 -1.25 1.45 L-1.4 1.4 -1.5 1.3 -1.5 1.25 -1.45 1.2" fill="#78c6fd" fill-rule="evenodd" stroke="none"/>
    <path d="M-1.95 2.2 L-2.1 2.2 -2.1 2.15 -2.0 2.05 -1.95 1.95 -1.9 1.95 -1.8 1.95 -1.75 1.9 -1.65 1.9 -1.65 1.8 -1.6 1.75 Q-1.55 1.75 -1.5 1.75 -1.45 1.8 -1.5 1.85 L-1.4 1.95 -1.35 1.95 Q-1.35 1.9 -1.4 1.85 L-1.4 1.8 -1.35 1.75 -1.3 1.7 -1.35 1.7 -1.4 1.7 -1.4 1.7 -1.45 1.7 -1.4 1.7 -1.35 1.7 Q-1.3 1.65 -1.3 1.65 L-1.45 1.5 -1.55 1.3 -1.45 1.45 -1.35 1.55 -1.3 1.6 -1.25 1.7 -1.2 1.7 Q-1.2 1.75 -1.2 1.75 -1.2 1.75 -1.25 1.8 L-1.35 1.85 -1.35 1.95 Q-1.3 2.0 -1.25 1.95 L-1.2 1.95 -1.2 1.95 -1.15 1.95 -1.1 1.9 -1.05 1.85 -0.95 1.85 -0.75 1.95 -0.55 2.0 -0.45 2.05 -0.3 2.05 0.0 2.05 0.25 2.05 0.1 2.1 0.0 2.1 -0.25 2.1 -0.5 2.05 -0.65 2.05 -0.9 1.9 Q-1.0 1.85 -1.05 1.85 L-1.1 1.95 Q-1.15 2.0 -1.15 2.0 -1.2 1.95 -1.25 1.95 -1.3 1.95 -1.3 2.0 L-1.4 2.05 -1.45 2.1 -1.55 2.1 -1.6 2.0 -1.65 2.0 -1.75 1.95 -1.75 2.0 -1.8 2.05 -1.85 2.05 -1.9 2.05 -1.95 2.1 -1.95 2.2 M-1.6 2.0 L-1.55 2.0 Q-1.5 2.05 -1.55 2.05 -1.5 2.1 -1.5 2.1 L-1.45 2.05 -1.45 2.0 Q-1.4 2.0 -1.45 1.95 L-1.5 1.85 Q-1.55 1.8 -1.6 1.8 L-1.6 1.85 -1.55 1.9 -1.6 1.95 -1.6 1.9 -1.65 1.9 -1.65 1.95 -1.6 2.0" fill="#82d1ff" fill-rule="evenodd" stroke="none"/>
    <path d="M-1.35 1.55 L-1.25 1.6 -1.2 1.65 -1.15 1.75 -1.15 1.8 -1.2 1.85 -1.2 1.9 -1.1 1.9 -1.15 1.95 -1.2 1.95 -1.2 1.95 -1.25 1.95 Q-1.3 2.0 -1.35 1.95 L-1.35 1.85 -1.25 1.8 Q-1.2 1.75 -1.2 1.75 -1.2 1.75 -1.2 1.7 L-1.25 1.7 -1.3 1.6 -1.35 1.55" fill="#90e7ff" fill-rule="evenodd" stroke="none"/>
    <path d="M-0.55 2.0 L-0.75 1.9 -0.8 1.85 -1.05 1.75 -1.15 1.65 -1.05 1.6 -0.95 1.6 -0.85 1.65 Q-0.8 1.7 -0.8 1.7 L-0.7 1.75 Q-0.65 1.75 -0.6 1.75 L-0.55 1.8 -0.5 1.85 Q-0.45 1.9 -0.45 1.95 L-0.5 1.95 -0.55 2.0" fill="#f9ffff" fill-rule="evenodd" stroke="none"/>
    <path d="M-1.6 2.0 L-1.65 1.95 -1.65 1.9 -1.6 1.9 -1.6 1.95 -1.55 1.9 -1.6 1.85 -1.6 1.8 Q-1.55 1.8 -1.5 1.85 L-1.45 1.95 Q-1.4 2.0 -1.45 2.0 L-1.45 2.05 -1.5 2.1 Q-1.5 2.1 -1.55 2.05 -1.5 2.05 -1.55 2.0 L-1.6 2.0" fill="#99f0ff" fill-rule="evenodd" stroke="none"/>
    <path d="M-1.4 2.2 L-1.95 2.2 -1.95 2.1 -1.9 2.05 -1.85 2.05 -1.8 2.05 -1.75 2.0 -1.75 1.95 -1.65 2.0 -1.6 2.0 -1.55 2.1 -1.45 2.1 -1.4 2.05 -1.3 2.0 Q-1.3 1.95 -1.25 1.95 -1.2 1.95 -1.15 2.0 -1.15 2.0 -1.1 1.95 L-1.05 1.85 Q-1.0 1.85 -0.9 1.9 L-0.65 2.05 -0.5 2.05 -0.25 2.1 0.0 2.1 0.1 2.1 0.25 2.05 0.2 2.1 -0.05 2.1 -0.25 2.1 -0.45 2.1 -0.65 2.1 -0.75 2.15 -0.8 2.15 -0.85 2.0 Q-0.9 1.95 -0.95 1.95 L-1.0 1.95 -1.05 1.95 -1.1 2.05 -1.15 2.1 Q-1.15 2.1 -1.2 2.05 -1.25 2.0 -1.25 2.05 -1.3 2.05 -1.35 2.1 L-1.4 2.2" fill="#72b6f8" fill-rule="evenodd" stroke="none"/>
    <path d="M-0.15 2.2 L-1.4 2.2 -1.35 2.1 Q-1.3 2.05 -1.25 2.05 -1.25 2.0 -1.2 2.05 -1.15 2.1 -1.15 2.1 L-1.1 2.05 -1.05 1.95 -1.0 1.95 -0.95 1.95 Q-0.9 1.95 -0.85 2.0 L-0.8 2.15 -0.75 2.15 -0.65 2.1 -0.45 2.1 -0.25 2.1 -0.05 2.1 0.2 2.1 0.15 2.1 0.05 2.1 Q-0.1 2.1 -0.15 2.2" fill="#66a3e1" fill-rule="evenodd" stroke="none"/>
    <path d="M-0.35 1.55 Q-0.3 1.6 -0.3 1.7 -0.3 1.7 -0.3 1.8 L-0.4 1.85 Q-0.4 1.8 -0.5 1.75 L-0.6 1.7 Q-0.65 1.65 -0.7 1.65 L-0.8 1.6 Q-0.85 1.6 -0.8 1.55 L-0.75 1.5 -0.7 1.5 -0.6 1.5 -0.5 1.5 Q-0.4 1.5 -0.35 1.55 M-0.45 1.75 L-0.4 1.75 -0.35 1.75 -0.35 1.7 -0.4 1.6 -0.5 1.55 -0.6 1.55 -0.6 1.65 -0.5 1.7 -0.45 1.75" fill="#98f1ff" fill-rule="evenodd" stroke="none"/>
    <path d="M-0.45 1.75 L-0.5 1.7 -0.6 1.65 -0.6 1.55 -0.5 1.55 -0.4 1.6 -0.35 1.7 -0.35 1.75 -0.4 1.75 -0.45 1.75" fill="#85d4ff" fill-rule="evenodd" stroke="none"/>
    <path d="M0.6 1.15 Q0.6 1.25 0.75 1.35 L0.85 1.45 0.9 1.55 0.9 1.6 Q0.9 1.55 0.85 1.5 L0.8 1.45 Q0.65 1.35 0.6 1.15 0.55 1.1 0.45 1.1 0.35 1.15 0.25 1.2 0.2 1.25 0.25 1.3 L0.35 1.4 0.3 1.65 Q0.3 1.8 0.4 1.9 L0.4 1.85 0.45 1.8 0.45 1.75 0.5 1.8 0.6 1.75 0.6 1.7 Q0.65 1.65 0.65 1.65 L0.75 1.7 0.8 1.7 0.8 1.65 0.8 1.7 0.75 1.75 0.7 1.7 0.65 1.7 0.6 1.75 0.55 1.8 0.5 1.8 Q0.45 1.8 0.45 1.85 L0.45 1.9 0.4 1.9 0.35 1.85 0.3 1.8 0.25 1.85 0.15 1.85 0.05 1.75 -0.05 1.75 -0.1 1.8 -0.15 1.85 Q-0.15 1.9 -0.2 1.85 L-0.25 1.8 -0.25 1.75 -0.2 1.65 -0.1 1.6 -0.1 1.65 0.0 1.7 0.05 1.6 0.1 1.55 Q0.15 1.55 0.2 1.65 L0.25 1.7 0.3 1.75 0.3 1.5 Q0.35 1.4 0.25 1.35 L0.25 1.25 0.2 1.2 Q0.25 1.15 0.35 1.1 L0.5 1.1 0.55 1.1 0.6 1.15 M0.1 1.6 L0.05 1.7 0.1 1.8 0.2 1.85 0.25 1.85 0.25 1.8 0.2 1.65 Q0.15 1.6 0.1 1.6" fill="#95ecff" fill-rule="evenodd" stroke="none"/>
    <path d="M2.2 0.45 L2.2 0.5 2.1 0.5 2.05 0.5 2.05 0.6 2.05 0.7 2.0 0.75 Q1.9 0.75 1.95 0.8 L1.9 0.8 Q1.9 0.75 1.95 0.75 L2.0 0.6 2.0 0.45 2.1 0.4 2.2 0.45" fill="#87d5ff" fill-rule="evenodd" stroke="none"/>
    <path d="M2.2 0.5 L2.2 0.8 2.1 0.8 2.05 0.8 2.0 0.85 1.95 0.8 Q1.9 0.75 2.0 0.75 L2.05 0.7 2.05 0.6 2.05 0.5 2.1 0.5 2.2 0.5" fill="#77bbf8" fill-rule="evenodd" stroke="none"/>
    <path d="M2.2 0.8 L2.2 0.9 2.1 0.95 2.05 0.9 2.05 0.85 2.1 0.8 2.15 0.8 Q2.15 0.85 2.2 0.8 M1.05 0.45 L1.0 0.55 1.0 0.6 0.95 0.6 0.9 0.65 0.9 0.75 0.85 0.8 0.85 0.7 0.9 0.6 0.8 0.65 0.75 0.65 0.75 0.55 0.8 0.5 0.8 0.55 0.85 0.55 0.9 0.55 0.95 0.45 0.95 0.55 1.0 0.55 1.05 0.45" fill="#d0ffff" fill-rule="evenodd" stroke="none"/>
    <path d="M1.15 1.75 L1.2 1.7 1.3 1.7 1.4 1.75 Q1.45 1.85 1.5 1.85 L1.55 1.85 1.55 1.9 1.6 1.9 1.65 1.9 1.65 1.8 1.65 1.75 1.6 1.7 1.6 1.65 1.55 1.65 1.5 1.55 1.45 1.5 1.6 1.3 Q1.7 1.2 1.8 1.15 L1.85 1.05 Q1.9 1.05 1.85 1.0 L1.9 1.0 1.9 0.9 1.95 0.95 1.95 1.05 2.05 1.0 Q2.1 1.0 2.1 1.0 L2.15 1.0 2.2 1.0 2.15 1.05 2.1 1.05 Q2.1 1.05 2.05 1.05 2.0 1.05 2.0 1.05 L1.95 1.1 1.9 1.15 Q1.75 1.15 1.65 1.25 1.55 1.35 1.55 1.45 L1.5 1.5 1.55 1.55 1.6 1.6 Q1.65 1.6 1.7 1.6 L1.75 1.7 Q1.7 1.7 1.7 1.75 L1.75 1.8 1.65 1.9 1.6 1.95 Q1.5 2.0 1.45 2.0 L1.45 1.9 1.4 1.85 1.35 1.8 Q1.35 1.7 1.25 1.7 L1.15 1.75" fill="#93e6ff" fill-rule="evenodd" stroke="none"/>
    <path d="M2.2 1.0 L2.2 1.1 2.15 1.15 2.1 1.15 2.1 1.1 Q2.05 1.05 2.0 1.1 L1.95 1.2 1.85 1.3 1.8 1.3 1.75 1.25 1.7 1.4 1.75 1.4 1.75 1.5 1.75 1.55 1.8 1.6 1.9 1.65 1.95 1.65 1.95 1.6 2.2 1.7 2.2 2.2 2.15 2.2 2.1 2.1 2.15 2.05 Q2.15 2.0 2.1 1.95 L2.05 1.95 Q2.05 1.95 2.1 1.9 L2.1 1.75 2.05 1.65 2.0 1.65 1.95 1.7 2.0 1.75 2.0 1.8 1.95 1.85 1.9 1.8 1.85 1.8 1.8 1.8 1.8 1.85 1.85 1.95 1.85 2.05 1.8 2.05 1.75 2.0 Q1.75 2.1 1.8 2.1 L1.85 2.1 1.9 2.15 1.95 2.15 2.0 2.2 1.85 2.2 1.75 2.15 Q1.7 2.1 1.7 2.05 L1.7 2.0 1.65 2.0 1.55 2.0 1.45 2.05 Q1.45 2.05 1.45 2.1 L1.4 2.15 1.4 2.05 1.35 2.05 Q1.3 2.05 1.3 2.0 L1.3 1.95 Q1.25 1.9 1.25 1.9 1.2 1.9 1.25 1.8 L1.25 1.75 1.3 1.75 Q1.2 1.75 1.05 1.8 L0.95 1.85 0.85 1.9 1.0 1.8 1.15 1.75 1.25 1.7 Q1.35 1.7 1.35 1.8 L1.4 1.85 1.45 1.9 1.45 2.0 Q1.5 2.0 1.6 1.95 L1.65 1.9 1.75 1.8 1.7 1.75 Q1.7 1.7 1.75 1.7 L1.7 1.6 Q1.65 1.6 1.6 1.6 L1.55 1.55 1.5 1.5 1.55 1.45 Q1.55 1.35 1.65 1.25 1.75 1.15 1.9 1.15 L1.95 1.1 2.0 1.05 Q2.0 1.05 2.05 1.05 2.1 1.05 2.1 1.05 L2.15 1.05 2.2 1.0" fill="#86d2ff" fill-rule="evenodd" stroke="none"/>
    <path d="M2.2 1.1 L2.2 1.7 1.95 1.6 1.95 1.65 1.9 1.65 1.8 1.6 1.75 1.55 1.75 1.5 1.75 1.4 1.7 1.4 1.75 1.25 1.8 1.3 1.85 1.3 1.95 1.2 2.0 1.1 Q2.05 1.05 2.1 1.1 L2.1 1.15 2.15 1.15 2.2 1.1" fill="#7dc3ff" fill-rule="evenodd" stroke="none"/>
    <path d="M2.1 2.2 L2.0 2.2 1.95 2.15 1.9 2.15 1.85 2.1 1.8 2.1 Q1.75 2.1 1.75 2.0 L1.8 2.05 1.85 2.05 1.85 1.95 1.8 1.85 1.8 1.8 1.85 1.8 1.9 1.8 1.95 1.85 2.0 1.8 2.0 1.75 1.95 1.7 2.0 1.65 2.05 1.65 2.1 1.75 2.1 1.9 Q2.05 1.95 2.05 1.95 L2.05 1.9 1.95 1.9 1.9 1.85 1.9 1.8 1.85 1.85 1.85 1.95 1.9 2.05 2.0 2.1 2.1 2.2 M2.05 1.8 L2.05 1.75 Q2.05 1.7 2.0 1.7 L2.0 1.75 2.05 1.8" fill="#98eaff" fill-rule="evenodd" stroke="none"/>
    <path d="M2.05 1.8 L2.0 1.75 2.0 1.7 Q2.05 1.7 2.05 1.75 L2.05 1.8" fill="#d3feff" fill-rule="evenodd" stroke="none"/>
    <path d="M2.15 2.2 L2.1 2.2 2.0 2.1 1.9 2.05 1.85 1.95 1.85 1.85 1.9 1.8 1.9 1.85 1.95 1.9 2.05 1.9 2.05 1.95 2.1 1.95 Q2.15 2.0 2.15 2.05 L2.1 2.1 2.15 2.2 M2.1 2.05 L2.05 2.0 2.0 2.0 2.0 2.05 Q2.05 2.15 2.1 2.15 L2.1 2.05" fill="#abfbff" fill-rule="evenodd" stroke="none"/>
    <path d="M2.1 2.05 L2.1 2.15 Q2.05 2.15 2.0 2.05 L2.0 2.0 2.05 2.0 2.1 2.05" fill="#d5ffff" fill-rule="evenodd" stroke="none"/>
    <path d="M1.05 0.45 L1.1 0.35 Q1.1 0.3 1.15 0.25 L1.2 0.25 1.25 0.25 Q1.3 0.35 1.45 0.35 L1.7 0.35 1.75 0.35 1.85 0.4 1.8 0.45 1.75 0.45 1.75 0.5 1.75 0.55 1.7 0.6 1.7 0.7 1.7 0.85 1.6 0.95 1.55 0.95 1.65 0.85 Q1.7 0.75 1.65 0.7 L1.65 0.6 1.7 0.55 1.7 0.45 1.75 0.4 1.7 0.4 1.5 0.4 1.3 0.35 1.25 0.3 1.15 0.3 1.1 0.4 Q1.05 0.45 1.05 0.55 L1.05 0.6 1.1 0.6 Q1.2 0.65 1.35 0.75 L1.55 0.95 Q1.5 0.95 1.5 1.0 L1.45 0.9 1.35 0.85 1.3 0.85 Q1.3 0.9 1.3 0.95 L1.3 0.9 1.25 0.75 Q1.2 0.65 1.1 0.65 L1.05 0.6 1.0 0.7 0.95 0.75 1.1 0.8 Q1.15 0.8 1.1 0.9 L1.05 0.9 1.0 0.95 1.0 1.0 1.1 1.0 1.1 0.95 1.2 0.95 1.25 1.0 1.3 1.0 1.35 1.05 1.3 1.1 1.25 1.2 1.15 1.25 1.1 1.35 1.1 1.45 1.05 1.5 1.0 1.55 Q0.95 1.55 0.95 1.6 L0.8 1.7 0.8 1.65 Q0.85 1.65 0.85 1.65 L0.9 1.6 0.9 1.55 0.85 1.45 0.75 1.35 Q0.6 1.25 0.6 1.15 L0.6 1.2 Q0.65 1.3 0.75 1.35 L0.75 1.25 0.7 1.15 Q0.7 1.1 0.75 1.05 L0.85 1.05 0.9 1.05 0.9 1.0 0.75 1.0 0.6 0.95 0.65 0.85 0.7 0.85 0.8 0.85 0.85 0.8 0.9 0.75 0.9 0.65 0.95 0.6 1.0 0.6 1.0 0.55 1.05 0.45 M0.85 1.05 L0.8 1.1 0.75 1.15 0.85 1.3 0.9 1.45 0.95 1.5 1.0 1.5 1.05 1.5 1.05 1.45 Q1.05 1.35 1.1 1.3 L1.15 1.25 1.15 1.15 1.2 1.1 1.2 1.0 Q1.1 1.0 1.0 1.1 L0.95 1.1 0.85 1.05 M1.05 0.9 L1.1 0.85 1.0 0.8 0.9 0.8 Q0.85 0.8 0.85 0.85 L0.75 0.9 0.85 0.95 0.95 0.95 1.0 0.95 1.05 0.9" fill="#a7f8ff" fill-rule="evenodd" stroke="none"/>
    <path d="M1.05 0.55 Q1.05 0.45 1.1 0.4 L1.15 0.3 1.25 0.3 1.3 0.35 1.5 0.4 1.7 0.4 1.75 0.4 1.7 0.45 1.7 0.55 1.65 0.6 1.65 0.7 1.6 0.65 1.65 0.6 1.7 0.55 1.65 0.5 1.65 0.45 1.6 0.45 1.6 0.5 1.55 0.5 1.5 0.5 Q1.45 0.55 1.45 0.5 L1.4 0.45 1.4 0.4 1.35 0.4 1.25 0.4 1.2 0.3 1.15 0.3 1.1 0.4 1.05 0.55" fill="#8cdcff" fill-rule="evenodd" stroke="none"/>
    <path d="M1.65 0.7 Q1.7 0.75 1.65 0.85 L1.55 0.95 1.35 0.75 Q1.2 0.65 1.1 0.6 L1.05 0.6 1.05 0.55 1.1 0.4 1.15 0.3 1.2 0.3 1.25 0.4 1.35 0.4 1.4 0.4 1.4 0.45 1.45 0.5 Q1.45 0.55 1.5 0.5 L1.55 0.5 1.6 0.5 1.6 0.45 1.65 0.45 1.65 0.5 1.7 0.55 1.65 0.6 1.6 0.65 1.65 0.7 M1.55 0.55 L1.45 0.55 1.35 0.5 1.35 0.45 1.3 0.45 1.25 0.45 1.2 0.4 1.15 0.4 Q1.1 0.4 1.1 0.45 L1.1 0.55 1.2 0.65 1.35 0.75 1.45 0.85 1.55 0.9 1.6 0.8 Q1.65 0.75 1.6 0.7 L1.6 0.55 1.55 0.55" fill="#7ec8fe" fill-rule="evenodd" stroke="none"/>
    <path d="M1.55 0.55 L1.6 0.55 1.6 0.7 Q1.65 0.75 1.6 0.8 L1.55 0.9 1.45 0.85 1.35 0.75 1.2 0.65 1.1 0.55 1.1 0.45 Q1.1 0.4 1.15 0.4 L1.2 0.4 1.25 0.45 1.3 0.45 1.35 0.45 1.35 0.5 1.45 0.55 1.55 0.55 1.4 0.55 Q1.3 0.55 1.3 0.45 L1.25 0.45 1.15 0.45 Q1.1 0.45 1.1 0.5 L1.1 0.55 1.35 0.7 1.45 0.8 1.55 0.85 1.6 0.75 1.55 0.65 1.6 0.6 1.55 0.55" fill="#71b3f2" fill-rule="evenodd" stroke="none"/>
    <path d="M1.6 0.6 L1.55 0.65 1.6 0.75 1.55 0.85 1.45 0.8 1.35 0.7 1.1 0.55 1.1 0.5 Q1.1 0.45 1.15 0.45 L1.25 0.45 1.3 0.45 Q1.3 0.55 1.4 0.55 L1.55 0.55 1.6 0.6" fill="#67a2dd" fill-rule="evenodd" stroke="none"/>
    <path d="M1.7 0.7 L1.7 0.65 1.75 0.6 1.8 0.55 1.75 0.5 1.8 0.45 1.85 0.45 1.9 0.45 1.95 0.5 1.95 0.55 1.95 0.65 1.9 0.75 1.85 0.85 1.8 0.95 1.75 1.05 1.7 1.15 1.6 1.25 1.55 1.25 1.5 1.1 1.5 0.95 1.55 0.95 1.6 0.95 1.7 0.85 1.7 0.7" fill="#faffff" fill-rule="evenodd" stroke="none"/>
    <path d="M1.3 0.95 Q1.3 0.9 1.3 0.85 L1.35 0.85 1.45 0.9 1.5 1.0 1.4 1.0 1.3 0.95" fill="#7bc5fc" fill-rule="evenodd" stroke="none"/>
    <path d="M1.1 0.65 Q1.2 0.65 1.25 0.75 L1.3 0.9 1.25 0.95 1.15 0.95 Q1.1 0.9 1.15 0.85 L1.1 0.8 1.05 0.7 1.05 0.65 1.1 0.65 M1.4 1.15 L1.4 1.2 1.35 1.3 1.3 1.4 1.2 1.4 Q1.15 1.4 1.15 1.45 1.1 1.45 1.1 1.45 L1.1 1.35 1.15 1.3 1.2 1.25 1.3 1.2 1.3 1.1 1.4 1.15" fill="#f3ffff" fill-rule="evenodd" stroke="none"/>
    <path d="M1.05 0.9 L1.0 0.95 0.95 0.95 0.85 0.95 0.75 0.9 0.85 0.85 Q0.85 0.8 0.9 0.8 L1.0 0.8 1.1 0.85 1.05 0.9" fill="#85d3ff" fill-rule="evenodd" stroke="none"/>
    <path d="M0.85 1.05 L0.95 1.1 1.0 1.1 Q1.1 1.0 1.2 1.0 L1.2 1.1 1.15 1.15 1.15 1.25 1.1 1.3 Q1.05 1.35 1.05 1.45 L1.05 1.5 1.0 1.5 0.95 1.5 0.9 1.45 0.85 1.3 0.75 1.15 0.8 1.1 0.85 1.05" fill="#8ddeff" fill-rule="evenodd" stroke="none"/>
    <path d="M1.5 1.2 L1.5 1.25 1.45 1.3 1.4 1.35 Q1.35 1.3 1.35 1.25 L1.45 1.2 1.5 1.2" fill="#a3f6ff" fill-rule="evenodd" stroke="none"/>
    <path d="M1.85 1.0 L1.8 1.05 1.85 0.95 1.9 0.85 1.9 0.9 1.9 1.0 1.85 1.0" fill="#81cdfe" fill-rule="evenodd" stroke="none"/>
    <path d="M0.95 0.45 L0.9 0.55 0.85 0.55 0.8 0.55 0.8 0.5 0.8 0.45 0.75 0.45 0.7 0.45 0.6 0.45 0.5 0.45 0.45 0.5 0.4 0.45 0.45 0.4 0.4 0.3 0.35 0.3 0.35 0.2 0.4 0.15 Q0.45 0.1 0.5 0.15 L0.5 0.2 0.55 0.25 0.6 0.2 Q0.65 0.15 0.7 0.15 L0.75 0.2 0.8 0.3 0.8 0.35 0.85 0.35 0.9 0.3 0.9 0.2 0.95 0.15 1.0 0.2 1.0 0.35 0.95 0.45 M0.55 0.3 L0.6 0.4 0.7 0.4 0.75 0.35 Q0.8 0.3 0.75 0.25 L0.6 0.2 Q0.6 0.25 0.55 0.3 M0.5 0.4 L0.5 0.3 0.45 0.25 Q0.35 0.25 0.4 0.35 L0.5 0.4 M0.9 0.4 L0.85 0.4 0.85 0.45 0.8 0.5 0.85 0.55 Q0.85 0.55 0.9 0.55 L0.9 0.4" fill="#b1fcff" fill-rule="evenodd" stroke="none"/>
    <path d="M0.4 0.3 L0.35 0.3 0.35 0.2 0.3 0.2 0.25 0.15 0.3 0.1 0.4 0.1 0.5 0.05 0.55 0.05 0.55 0.1 0.5 0.2 0.55 0.2 0.65 0.15 Q0.65 0.1 0.7 0.1 L0.75 0.2 0.85 0.3 0.85 0.25 0.9 0.2 Q0.9 0.15 0.95 0.15 L0.9 0.2 0.9 0.3 0.85 0.35 0.8 0.35 0.8 0.3 0.75 0.2 0.7 0.15 Q0.65 0.15 0.6 0.2 L0.55 0.25 0.5 0.2 0.5 0.15 Q0.45 0.1 0.4 0.15 L0.35 0.2 0.35 0.3 0.4 0.3" fill="#dcffff" fill-rule="evenodd" stroke="none"/>
    <path d="M0.6 0.25 L0.6 0.35 0.65 0.4 0.7 0.35 0.75 0.3 0.75 0.25 0.7 0.25 0.6 0.25 M0.55 0.3 Q0.6 0.25 0.6 0.2 L0.75 0.25 Q0.8 0.3 0.75 0.35 L0.7 0.4 0.6 0.4 0.55 0.3" fill="#8fe5ff" fill-rule="evenodd" stroke="none"/>
    <path d="M0.6 0.25 L0.7 0.25 0.75 0.25 0.75 0.3 0.7 0.35 0.65 0.4 0.6 0.35 0.6 0.25" fill="#74b9f4" fill-rule="evenodd" stroke="none"/>
    <path d="M0.5 0.4 L0.4 0.35 Q0.35 0.25 0.45 0.25 L0.5 0.3 0.5 0.4" fill="#86d8ff" fill-rule="evenodd" stroke="none"/>
    <path d="M0.9 0.4 L0.9 0.55 Q0.85 0.55 0.85 0.55 L0.8 0.5 0.85 0.45 0.85 0.4 0.9 0.4" fill="#8de3ff" fill-rule="evenodd" stroke="none"/>
    <path d="M0.25 1.05 L0.15 1.05 0.1 1.0 0.1 0.95 0.15 0.95 0.2 0.95 0.3 0.95 0.3 1.0 0.25 1.05" fill="#b4fcff" fill-rule="evenodd" stroke="none"/>
    <path d="M0.35 1.15 L0.3 1.25 0.45 1.25 0.55 1.2 Q0.55 1.15 0.5 1.15 L0.45 1.15 0.35 1.15 M0.25 1.2 Q0.35 1.15 0.45 1.1 0.55 1.1 0.6 1.15 L0.55 1.25 0.45 1.3 0.4 1.3 0.35 1.3 Q0.25 1.25 0.25 1.2" fill="#79c0fb" fill-rule="evenodd" stroke="none"/>
    <path d="M0.35 1.15 L0.45 1.15 0.5 1.15 Q0.55 1.15 0.55 1.2 L0.45 1.25 0.3 1.25 0.35 1.15" fill="#6cabea" fill-rule="evenodd" stroke="none"/>
    <path d="M0.6 0.95 L0.75 1.0 0.9 1.0 0.9 1.05 0.85 1.05 0.75 1.05 Q0.7 1.1 0.7 1.15 L0.65 1.05 0.6 0.95" fill="#d8ffff" fill-rule="evenodd" stroke="none"/>
    <path d="M0.9 1.6 L0.85 1.65 Q0.85 1.65 0.8 1.65 L0.85 1.6 0.85 1.55 0.65 1.45 0.55 1.45 0.5 1.45 0.45 1.5 0.4 1.5 0.35 1.55 0.35 1.8 0.4 1.8 0.45 1.8 0.4 1.85 0.4 1.9 Q0.3 1.8 0.3 1.65 L0.35 1.4 0.25 1.3 Q0.2 1.25 0.25 1.2 0.25 1.25 0.35 1.3 L0.4 1.3 0.45 1.3 0.55 1.25 0.6 1.15 Q0.65 1.35 0.8 1.45 L0.85 1.5 Q0.9 1.55 0.9 1.6 M0.6 1.7 Q0.6 1.65 0.7 1.65 L0.75 1.65 0.8 1.65 0.8 1.7 0.75 1.7 0.65 1.65 Q0.65 1.65 0.6 1.7" fill="#84d1ff" fill-rule="evenodd" stroke="none"/>
    <path d="M0.45 1.8 L0.4 1.8 0.35 1.8 0.35 1.55 0.4 1.5 0.45 1.5 0.5 1.45 0.55 1.45 0.65 1.45 0.85 1.55 0.85 1.6 0.8 1.65 0.75 1.65 0.7 1.65 Q0.6 1.65 0.6 1.7 L0.6 1.75 0.5 1.8 0.45 1.75 0.45 1.8 M0.6 1.65 L0.55 1.6 0.5 1.6 0.4 1.55 0.35 1.65 0.35 1.7 0.4 1.75 0.45 1.75 0.5 1.75 0.55 1.7 0.6 1.65" fill="#77bdfc" fill-rule="evenodd" stroke="none"/>
    <path d="M0.6 1.65 L0.55 1.7 0.5 1.75 0.45 1.75 0.4 1.75 0.35 1.7 0.35 1.65 0.4 1.55 0.5 1.6 0.55 1.6 0.6 1.65" fill="#69a6e4" fill-rule="evenodd" stroke="none"/>
    <path d="M0.1 1.6 Q0.15 1.6 0.2 1.65 L0.25 1.8 0.25 1.85 0.2 1.85 0.1 1.8 0.05 1.7 0.1 1.6" fill="#7cc6fd" fill-rule="evenodd" stroke="none"/>
    <path d="M1.85 2.2 L1.4 2.2 1.2 2.0 1.05 1.85 0.95 1.9 0.85 1.9 0.55 2.0 0.25 2.05 0.55 2.0 0.85 1.9 0.95 1.85 1.05 1.8 Q1.2 1.75 1.3 1.75 L1.25 1.75 1.25 1.8 Q1.2 1.9 1.25 1.9 1.25 1.9 1.3 1.95 L1.3 2.0 Q1.3 2.05 1.35 2.05 L1.4 2.05 1.4 2.15 1.45 2.1 Q1.45 2.05 1.45 2.05 L1.55 2.0 1.65 2.0 1.7 2.0 1.7 2.05 Q1.7 2.1 1.75 2.15 L1.85 2.2" fill="#77bbfa" fill-rule="evenodd" stroke="none"/>
    <path d="M1.25 2.2 L1.05 2.2 0.9 2.1 0.8 2.0 0.45 2.05 0.05 2.2 -0.15 2.2 Q-0.1 2.1 0.05 2.1 L0.15 2.1 0.2 2.1 0.6 2.0 0.95 1.9 1.0 1.95 1.05 1.95 1.05 2.0 1.15 2.1 1.2 2.15 1.25 2.2" fill="#5f96ce" fill-rule="evenodd" stroke="none"/>
    <path d="M1.4 2.2 L1.25 2.2 1.2 2.15 1.15 2.1 1.05 2.0 1.05 1.95 1.0 1.95 0.95 1.9 0.6 2.0 0.2 2.1 0.25 2.05 0.55 2.0 0.85 1.9 0.95 1.9 1.05 1.85 1.2 2.0 1.4 2.2" fill="#69a6e3" fill-rule="evenodd" stroke="none"/>
    <path d="M1.05 2.2 L0.05 2.2 0.45 2.05 0.8 2.0 0.9 2.1 1.05 2.2" fill="#5687ba" fill-rule="evenodd" stroke="none"/>
  </g>
</svg>
