<?xml version="1.0" encoding="UTF-8" standalone="no"?>
<svg xmlns:xlink="http://www.w3.org/1999/xlink" height="38.9px" width="4.45px" xmlns="http://www.w3.org/2000/svg">
  <g transform="matrix(1.0, 0.0, 0.0, 1.0, 2.4, 29.6)">
    <path d="M0.3 -29.0 L0.4 -28.95 0.6 -28.9 0.65 -28.85 0.6 -28.75 0.5 -28.7 0.35 -28.65 0.35 -28.55 0.25 -28.55 0.25 -28.55 0.15 -28.6 Q0.05 -28.75 -0.15 -28.7 L-0.5 -28.65 -0.75 -28.65 -0.85 -28.7 -1.0 -28.85 Q-1.0 -28.9 -0.75 -28.95 -0.25 -29.0 0.3 -29.0 M0.4 -28.95 L0.4 -28.95" fill="#282726" fill-rule="evenodd" stroke="none"/>
    <path d="M-0.15 -28.7 Q0.05 -28.75 0.15 -28.6 L0.25 -28.55 0.25 -28.55 0.35 -28.55 0.35 -27.55 0.35 -26.9 0.4 -26.35 Q0.45 -24.4 0.45 -22.6 L0.5 -22.6 Q0.5 -21.4 0.6 -20.6 L0.6 -20.6 0.65 -18.45 0.65 -17.7 0.65 -17.8 0.55 -17.8 0.55 -18.0 0.5 -19.65 0.4 -20.55 Q0.4 -21.1 0.4 -21.45 L0.35 -23.95 0.35 -24.55 0.35 -24.65 0.35 -24.75 0.3 -25.65 0.25 -26.4 0.25 -27.3 Q0.2 -27.9 0.2 -28.25 0.25 -28.35 0.2 -28.4 L0.0 -28.45 Q-0.15 -28.5 -0.2 -28.55 -0.25 -28.6 -0.15 -28.7 M-0.2 -25.85 L-0.1 -25.75 Q-0.15 -25.7 -0.2 -25.65 L-0.2 -25.65 -0.3 -25.65 -0.35 -25.65 -0.35 -25.8 -0.25 -25.95 -0.25 -25.9 -0.2 -25.85 -0.2 -25.85 M-0.35 -24.75 L-0.3 -24.8 -0.2 -24.85 -0.2 -24.85 -0.15 -24.7 -0.2 -24.65 -0.2 -24.65 -0.25 -24.65 -0.3 -24.6 -0.3 -24.6 Q-0.35 -24.6 -0.35 -24.75 L-0.35 -24.75 M-0.4 -23.15 L-0.3 -23.2 -0.3 -23.2 -0.3 -23.25 -0.2 -23.05 -0.25 -23.05 -0.25 -23.0 -0.3 -23.0 -0.4 -23.0 -0.4 -23.15 M-0.4 -23.85 L-0.35 -23.95 -0.25 -23.85 -0.25 -23.8 -0.2 -23.8 -0.3 -23.75 -0.4 -23.75 -0.4 -23.85 M-0.25 -21.65 L-0.25 -21.6 Q-0.2 -21.6 -0.2 -21.45 L-0.3 -21.45 -0.35 -21.5 -0.4 -21.5 -0.35 -21.6 -0.3 -21.65 -0.3 -21.65 -0.25 -21.65 M-0.35 -22.35 L-0.3 -22.4 -0.2 -22.25 -0.3 -22.25 -0.3 -22.25 -0.35 -22.25 -0.35 -22.35" fill="#555555" fill-rule="evenodd" stroke="none"/>
    <path d="M0.4 -28.95 L0.3 -29.0 Q-0.25 -29.0 -0.75 -28.95 -0.75 -29.1 -0.55 -29.3 L-0.55 -29.3 -0.5 -29.35 Q-0.4 -29.45 -0.2 -29.5 L-0.15 -29.5 Q0.05 -29.45 0.2 -29.3 0.35 -29.15 0.4 -28.95" fill="#aaa9a9" fill-rule="evenodd" stroke="none"/>
    <path d="M-0.75 -28.65 L-0.5 -28.65 -0.15 -28.7 Q-0.25 -28.6 -0.2 -28.55 -0.15 -28.5 0.0 -28.45 L0.2 -28.4 Q0.25 -28.35 0.2 -28.25 L-0.25 -28.25 -0.65 -28.4 -0.6 -27.65 Q-0.6 -27.25 -0.7 -26.9 L-0.75 -27.0 -0.75 -27.55 -0.75 -28.65 M0.6 -28.75 L0.65 -28.85 0.6 -28.9 0.65 -28.85 0.6 -28.75 M1.5 3.2 L0.95 3.15 0.85 3.1 0.9 3.0 0.9 2.95 1.0 2.95 1.05 3.0 1.35 3.15 1.5 3.2 M0.75 8.7 Q0.85 9.1 0.55 9.2 L0.65 8.9 0.75 8.7 M0.3 8.15 L0.4 8.2 0.35 8.2 0.3 8.2 0.3 8.15 M-0.8 -13.05 L-0.75 -13.05 Q-0.7 -13.0 -0.75 -13.0 L-0.95 -13.0 -0.8 -13.05" fill="#686868" fill-rule="evenodd" stroke="none"/>
    <path d="M0.2 -28.25 Q0.2 -27.9 0.25 -27.3 L0.25 -26.4 Q0.05 -26.55 -0.1 -26.5 L-0.2 -25.95 -0.1 -25.9 -0.05 -25.85 0.05 -25.7 0.05 -25.55 Q0.0 -25.45 -0.05 -25.45 L-0.2 -25.5 -0.25 -25.5 -0.2 -25.35 -0.1 -25.15 -0.2 -24.85 -0.2 -24.85 -0.3 -24.85 -0.35 -24.9 -0.45 -25.1 -0.3 -25.5 Q-0.45 -25.55 -0.45 -25.6 L-0.35 -25.75 -0.25 -25.95 -0.3 -26.4 -0.35 -26.2 Q-0.55 -26.1 -0.55 -26.45 L-0.55 -26.65 Q-0.55 -26.8 -0.6 -26.8 -0.75 -26.75 -0.65 -26.5 L-0.65 -26.35 -0.75 -26.35 -0.7 -26.9 Q-0.6 -27.25 -0.6 -27.65 L-0.65 -28.4 -0.25 -28.25 0.2 -28.25 M-0.25 -20.7 L-0.25 -20.75 -0.3 -20.75 -0.3 -20.75 -0.35 -20.85 Q-0.4 -21.0 -0.3 -21.1 L-0.4 -21.15 -0.35 -21.4 Q-0.45 -21.4 -0.45 -21.5 -0.45 -21.65 -0.35 -21.65 L-0.45 -21.8 -0.35 -22.0 -0.35 -22.15 Q-0.45 -22.15 -0.45 -22.25 L-0.4 -22.35 -0.3 -22.45 -0.25 -22.4 -0.2 -22.35 -0.1 -22.25 -0.15 -22.15 -0.2 -22.15 -0.2 -21.9 -0.25 -21.65 -0.15 -21.6 -0.1 -21.4 -0.15 -21.4 -0.2 -21.4 -0.2 -21.15 -0.25 -20.7 M-0.2 -25.85 L-0.2 -25.85 -0.25 -25.9 -0.25 -25.95 -0.35 -25.8 -0.35 -25.65 -0.3 -25.65 -0.2 -25.65 -0.2 -25.65 Q-0.15 -25.7 -0.1 -25.75 L-0.2 -25.85 M-0.2 -24.85 L-0.1 -24.75 -0.05 -24.6 -0.1 -24.55 -0.15 -24.5 -0.2 -24.5 -0.1 -24.15 -0.2 -23.95 -0.15 -23.9 -0.1 -23.8 Q-0.1 -23.75 -0.25 -23.7 L-0.25 -23.65 -0.2 -23.55 -0.1 -23.35 -0.2 -23.2 -0.15 -23.15 -0.1 -23.05 -0.1 -23.05 Q-0.15 -22.95 -0.25 -22.9 L-0.15 -22.75 -0.2 -22.4 -0.25 -22.45 -0.25 -22.5 Q-0.3 -22.55 -0.4 -22.55 L-0.35 -22.9 -0.35 -22.9 Q-0.5 -22.9 -0.5 -23.0 L-0.4 -23.15 -0.4 -23.0 -0.3 -23.0 -0.25 -23.0 -0.25 -23.05 -0.2 -23.05 -0.3 -23.25 -0.3 -23.2 -0.3 -23.25 -0.4 -23.35 -0.3 -23.7 Q-0.45 -23.7 -0.45 -23.8 L-0.4 -23.95 -0.3 -24.0 -0.35 -24.1 -0.4 -24.25 -0.35 -24.5 -0.45 -24.55 -0.35 -24.75 -0.35 -24.75 Q-0.35 -24.6 -0.3 -24.6 L-0.3 -24.6 -0.25 -24.65 -0.2 -24.65 -0.2 -24.65 -0.15 -24.7 -0.2 -24.85 M-0.4 -23.85 L-0.4 -23.75 -0.3 -23.75 -0.2 -23.8 -0.25 -23.8 -0.25 -23.85 -0.35 -23.95 -0.4 -23.85 M-0.35 -22.35 L-0.35 -22.25 -0.3 -22.25 -0.3 -22.25 -0.2 -22.25 -0.3 -22.4 -0.35 -22.35 M-0.25 -21.65 L-0.3 -21.65 -0.3 -21.65 -0.35 -21.6 -0.4 -21.5 -0.35 -21.5 -0.3 -21.45 -0.2 -21.45 Q-0.2 -21.6 -0.25 -21.6 L-0.25 -21.65" fill="#858384" fill-rule="evenodd" stroke="none"/>
    <path d="M-0.75 -26.35 L-0.65 -26.35 -0.65 -26.5 Q-0.75 -26.75 -0.6 -26.8 -0.55 -26.8 -0.55 -26.65 L-0.55 -26.45 Q-0.55 -26.1 -0.35 -26.2 L-0.3 -26.4 -0.25 -25.95 -0.35 -25.75 -0.45 -25.6 Q-0.45 -25.55 -0.3 -25.5 L-0.45 -25.1 -0.35 -24.9 -0.3 -24.85 -0.2 -24.85 -0.2 -24.85 -0.1 -25.15 -0.2 -25.35 -0.25 -25.5 -0.2 -25.5 -0.05 -25.45 Q0.0 -25.45 0.05 -25.55 L0.05 -25.7 -0.05 -25.85 -0.1 -25.9 -0.2 -25.95 -0.1 -26.5 Q0.05 -26.55 0.25 -26.4 L0.3 -25.65 0.35 -24.75 0.35 -24.65 0.35 -24.55 0.35 -23.95 0.4 -21.45 Q0.0 -21.35 0.0 -21.15 -0.05 -20.9 0.35 -20.8 0.25 -20.65 0.1 -20.6 L-0.05 -20.6 -0.25 -20.7 -0.2 -21.15 -0.2 -21.4 -0.15 -21.4 -0.1 -21.4 -0.15 -21.6 -0.25 -21.65 -0.2 -21.9 -0.2 -22.15 -0.15 -22.15 -0.1 -22.25 -0.2 -22.35 -0.25 -22.4 -0.3 -22.45 -0.4 -22.35 -0.45 -22.25 Q-0.45 -22.15 -0.35 -22.15 L-0.35 -22.0 -0.45 -21.8 -0.35 -21.65 Q-0.45 -21.65 -0.45 -21.5 -0.45 -21.4 -0.35 -21.4 L-0.4 -21.15 Q-0.6 -21.25 -0.65 -20.95 L-0.65 -20.65 Q-0.65 -20.5 -0.7 -20.5 -0.85 -20.75 -0.8 -21.1 L-0.75 -21.7 Q-0.4 -21.8 -0.6 -22.05 L-0.7 -22.25 Q-0.7 -22.3 -0.55 -22.3 L-0.7 -22.4 Q-0.85 -22.5 -0.8 -22.6 -0.8 -24.4 -0.75 -26.35 M-0.3 -20.3 L-0.25 -20.3 0.05 -20.3 0.1 -20.3 0.1 -20.3 0.2 -20.3 0.2 -20.3 0.35 -20.15 0.35 -20.05 0.2 -20.05 Q0.1 -19.9 -0.25 -19.85 L-0.5 -19.85 -0.7 -19.85 Q-0.8 -19.9 -0.8 -20.05 -0.8 -20.2 -0.45 -20.25 L-0.3 -20.3 M-0.7 -19.05 L-0.7 -19.05 -0.05 -19.1 0.2 -19.05 0.2 -19.0 0.3 -18.7 Q0.25 -18.7 0.15 -18.65 L-0.1 -18.6 -0.55 -18.65 -0.7 -18.6 -0.85 -18.55 Q-0.9 -18.55 -0.9 -18.6 L-0.85 -18.9 Q-0.8 -19.05 -0.7 -19.05 M0.2 -19.85 L0.25 -19.6 Q0.05 -19.45 -0.25 -19.45 L-0.6 -19.5 Q-0.9 -19.55 -0.9 -19.6 L-0.85 -19.75 -0.75 -19.85 -0.3 -19.75 0.15 -19.85 0.2 -19.85 M-0.7 -17.45 L-0.1 -17.55 0.25 -17.65 0.4 -17.5 0.55 -17.3 Q0.4 -17.2 0.2 -17.1 L-0.1 -17.0 -0.35 -17.0 Q-0.6 -17.0 -0.75 -17.05 -0.9 -17.15 -0.9 -17.3 L-0.9 -17.5 -0.8 -17.45 -0.8 -17.3 -0.7 -17.45 M0.1 -16.45 L0.25 -16.35 0.3 -16.3 Q0.2 -16.2 0.05 -16.15 L-0.15 -16.1 Q-0.2 -16.05 -0.2 -15.95 L-0.05 -15.55 0.05 -15.55 Q0.15 -15.65 0.15 -15.55 0.15 -15.45 0.2 -15.45 L0.3 -15.45 0.4 -15.4 0.5 -15.25 Q0.5 -15.05 0.4 -15.05 L-0.25 -14.95 -0.95 -15.0 Q-1.05 -15.1 -1.05 -15.65 L-0.95 -16.0 -1.0 -16.3 Q-1.0 -16.35 -0.7 -16.4 L-0.15 -16.45 0.1 -16.45 M-0.5 -14.3 L0.0 -14.4 0.15 -14.3 0.1 -14.3 0.1 -14.25 Q0.0 -14.15 -0.1 -14.15 L-0.25 -14.15 -0.3 -14.1 -0.65 -14.05 -0.3 -14.05 -0.1 -13.9 Q0.1 -13.8 0.1 -13.75 0.1 -13.55 0.15 -13.25 L0.1 -13.2 Q0.05 -13.15 -0.1 -13.15 L-0.7 -13.2 Q-0.95 -13.3 -0.95 -13.45 L-0.9 -13.75 -0.95 -14.1 Q-0.95 -14.15 -0.75 -14.2 -0.6 -14.25 -0.5 -14.3 M-0.2 -11.05 L-0.35 -11.05 0.0 -11.05 0.05 -11.05 0.55 -10.95 0.55 -10.95 0.45 -10.9 -1.0 -10.9 -1.05 -10.85 -1.1 -10.95 -1.1 -11.7 -1.0 -12.3 Q-0.95 -12.25 -0.75 -12.25 L-0.45 -12.35 0.05 -12.4 0.25 -12.35 0.35 -12.3 0.0 -12.25 Q-0.1 -12.25 -0.1 -12.1 L0.1 -11.25 Q0.1 -11.15 0.0 -11.15 L-0.15 -11.2 Q-0.3 -11.2 -0.35 -11.1 L-0.2 -11.05 M0.55 -10.15 L0.55 -10.05 0.6 -9.75 0.65 -9.15 0.7 -8.55 Q0.7 -8.25 0.6 -8.05 0.55 -7.95 0.3 -7.9 L-0.05 -7.85 Q0.2 -7.8 0.2 -7.75 L0.2 -7.7 -0.1 -7.65 -0.05 -7.65 0.25 -7.65 Q0.45 -7.6 0.6 -7.5 L0.6 -7.5 0.1 -7.4 -0.6 -7.5 -1.1 -7.5 -1.1 -7.55 -1.05 -7.8 -0.9 -8.0 -0.65 -8.0 Q-0.55 -8.0 -0.5 -8.1 L-1.15 -8.25 -1.1 -8.35 -0.9 -8.3 Q-0.8 -8.3 -0.8 -8.4 L-1.05 -8.4 Q-1.25 -8.45 -1.25 -8.55 -1.25 -8.65 -1.15 -8.7 -1.1 -8.7 -1.1 -8.8 L-1.15 -8.95 Q-1.05 -9.1 -1.05 -9.2 -1.05 -9.3 -1.1 -9.35 L-1.1 -9.55 -1.05 -9.8 -1.15 -10.05 Q-1.15 -10.3 -0.1 -10.3 L0.35 -10.3 Q0.45 -10.3 0.55 -10.15 M-0.15 -6.2 L0.0 -6.2 0.25 -6.2 0.6 -6.0 Q0.95 -5.75 1.05 -5.5 L1.0 -5.45 0.7 -5.45 -0.5 -5.45 -0.8 -5.4 -0.7 -5.5 -0.6 -5.5 -0.3 -5.55 Q-0.25 -5.55 -0.3 -5.65 L-0.15 -5.85 -0.15 -6.2 M-0.2 -24.85 L-0.2 -24.85 -0.3 -24.8 -0.35 -24.75 -0.45 -24.55 -0.35 -24.5 -0.4 -24.25 -0.35 -24.1 -0.3 -24.0 -0.4 -23.95 -0.45 -23.8 Q-0.45 -23.7 -0.3 -23.7 L-0.4 -23.35 -0.3 -23.25 -0.3 -23.2 -0.3 -23.2 -0.4 -23.15 -0.5 -23.0 Q-0.5 -22.9 -0.35 -22.9 L-0.35 -22.9 -0.4 -22.55 Q-0.3 -22.55 -0.25 -22.5 L-0.25 -22.45 -0.2 -22.4 -0.15 -22.75 -0.25 -22.9 Q-0.15 -22.95 -0.1 -23.05 L-0.1 -23.05 -0.15 -23.15 -0.2 -23.2 -0.1 -23.35 -0.2 -23.55 -0.25 -23.65 -0.25 -23.7 Q-0.1 -23.75 -0.1 -23.8 L-0.15 -23.9 -0.2 -23.95 -0.1 -24.15 -0.2 -24.5 -0.15 -24.5 -0.1 -24.55 -0.05 -24.6 -0.1 -24.75 -0.2 -24.85" fill="#9e9c9a" fill-rule="evenodd" stroke="none"/>
    <path d="M0.4 -21.45 Q0.4 -21.1 0.4 -20.55 L0.3 -20.5 0.15 -20.5 -0.05 -20.6 -0.05 -20.6 0.1 -20.6 Q0.25 -20.65 0.35 -20.8 -0.05 -20.9 0.0 -21.15 0.0 -21.35 0.4 -21.45 M0.55 -18.0 L0.55 -17.8 -0.1 -17.8 -0.35 -17.75 Q-0.7 -17.65 -0.8 -17.45 L-0.9 -17.5 -0.9 -17.3 Q-0.9 -17.15 -0.75 -17.05 -0.6 -17.0 -0.35 -17.0 L-0.1 -17.0 0.2 -17.1 Q0.4 -17.2 0.55 -17.3 L0.4 -17.5 0.25 -17.65 -0.1 -17.55 -0.7 -17.45 Q-0.55 -17.6 -0.25 -17.65 L-0.1 -17.7 0.5 -17.65 0.65 -17.35 0.65 -17.25 Q0.65 -17.1 0.5 -16.85 0.4 -16.85 0.1 -16.85 L-0.1 -16.85 -0.45 -16.9 Q-1.0 -16.9 -0.85 -16.55 -0.45 -16.6 -0.1 -16.55 0.15 -16.5 0.4 -16.35 L0.55 -16.25 Q0.5 -16.2 0.35 -16.15 L0.1 -16.1 Q0.4 -16.1 0.55 -15.65 L0.65 -15.25 0.7 -15.1 0.75 -14.9 0.7 -14.9 -0.1 -14.9 -0.95 -14.9 -0.95 -14.25 -0.75 -14.2 Q-0.95 -14.15 -0.95 -14.1 L-0.9 -13.75 -0.95 -13.45 Q-0.95 -13.3 -0.7 -13.2 L-0.1 -13.15 Q0.05 -13.15 0.1 -13.2 L0.15 -13.25 Q0.1 -13.55 0.1 -13.75 0.1 -13.8 -0.1 -13.9 L-0.3 -14.05 Q0.0 -14.05 0.2 -13.8 0.4 -13.5 0.3 -13.15 0.05 -13.05 0.15 -13.0 L0.2 -12.95 0.05 -12.9 -0.6 -12.9 Q-0.8 -12.9 -0.95 -13.0 L-1.0 -12.8 -1.0 -12.6 -1.0 -12.6 Q-1.05 -12.4 -1.0 -12.3 L-1.1 -11.7 -1.1 -10.95 -1.05 -10.85 Q-1.1 -10.8 -1.1 -10.65 L-1.05 -10.35 -0.6 -10.35 -0.1 -10.4 Q0.45 -10.5 0.75 -10.3 L0.75 -10.3 0.75 -9.7 Q0.75 -9.35 0.75 -9.15 L0.8 -8.25 0.85 -7.35 0.8 -7.35 0.0 -7.35 -0.4 -7.35 -0.85 -7.35 Q-1.3 -7.35 -1.15 -7.0 -1.3 -7.0 -1.3 -7.2 L-1.25 -7.6 Q-1.2 -7.9 -1.2 -8.0 -1.3 -8.15 -1.55 -8.1 L-1.55 -8.3 Q-1.3 -8.4 -1.3 -8.55 -1.25 -8.7 -1.4 -8.9 -1.2 -9.65 -1.2 -10.9 L-1.15 -12.95 -1.1 -13.6 Q-1.1 -13.95 -1.25 -14.2 L-1.2 -15.25 -1.15 -16.3 Q-1.05 -17.05 -1.0 -18.15 L-1.0 -18.15 -0.7 -18.1 -0.05 -18.2 0.4 -18.1 0.55 -18.0 M-0.3 -20.75 L-0.35 -20.65 -0.4 -20.5 -0.55 -20.5 -0.65 -20.4 Q-0.6 -20.3 -0.3 -20.3 L-0.45 -20.25 Q-0.8 -20.2 -0.8 -20.05 -0.8 -19.9 -0.7 -19.85 L-0.5 -19.85 -0.25 -19.85 Q0.1 -19.9 0.2 -20.05 L0.35 -20.05 0.45 -19.75 Q0.45 -19.4 0.15 -19.3 L-0.55 -19.25 -0.75 -19.3 -0.9 -19.25 -1.0 -19.2 -0.95 -20.6 Q-0.85 -21.4 -0.9 -22.6 L-0.8 -22.6 Q-0.85 -22.5 -0.7 -22.4 L-0.55 -22.3 Q-0.7 -22.3 -0.7 -22.25 L-0.6 -22.05 Q-0.4 -21.8 -0.75 -21.7 L-0.8 -21.1 Q-0.85 -20.75 -0.7 -20.5 -0.65 -20.5 -0.65 -20.65 L-0.65 -20.95 Q-0.6 -21.25 -0.4 -21.15 L-0.3 -21.1 Q-0.4 -21.0 -0.35 -20.85 L-0.3 -20.75 -0.3 -20.75 M0.1 -20.3 L0.15 -20.35 0.2 -20.3 0.1 -20.3 0.1 -20.3 M-1.0 -19.1 L-0.7 -19.05 Q-0.8 -19.05 -0.85 -18.9 L-0.9 -18.6 Q-0.9 -18.55 -0.85 -18.55 L-0.7 -18.6 -0.55 -18.65 -0.1 -18.6 0.15 -18.65 Q0.25 -18.7 0.3 -18.7 L0.2 -19.0 0.45 -18.8 0.5 -18.55 Q0.5 -18.45 0.35 -18.35 L0.2 -18.25 0.0 -18.3 -0.15 -18.25 -0.35 -18.2 -0.9 -18.3 -1.0 -18.3 -1.0 -19.1 M0.2 -19.85 L0.15 -19.85 -0.3 -19.75 -0.75 -19.85 -0.85 -19.75 -0.9 -19.6 Q-0.9 -19.55 -0.6 -19.5 L-0.25 -19.45 Q0.05 -19.45 0.25 -19.6 L0.2 -19.85 M0.1 -16.45 L-0.15 -16.45 -0.7 -16.4 Q-1.0 -16.35 -1.0 -16.3 L-0.95 -16.0 -1.05 -15.65 Q-1.05 -15.1 -0.95 -15.0 L-0.25 -14.95 0.4 -15.05 Q0.5 -15.05 0.5 -15.25 L0.4 -15.4 0.3 -15.45 0.2 -15.45 Q0.15 -15.45 0.15 -15.55 0.15 -15.65 0.05 -15.55 L-0.05 -15.55 -0.2 -15.95 Q-0.2 -16.05 -0.15 -16.1 L0.05 -16.15 Q0.2 -16.2 0.3 -16.3 L0.25 -16.35 0.1 -16.45 M-0.3 -14.1 L-0.25 -14.15 -0.1 -14.15 Q0.0 -14.15 0.1 -14.25 L0.1 -14.3 0.15 -14.3 0.0 -14.4 -0.5 -14.3 -0.5 -14.3 -0.25 -14.6 Q-0.1 -14.4 0.2 -14.4 L0.4 -14.4 Q0.5 -14.2 0.05 -14.15 L-0.3 -14.1 M0.7 -12.15 L0.05 -12.1 Q-0.3 -12.05 0.25 -12.05 0.8 -12.05 0.55 -12.0 L0.0 -12.0 0.05 -11.55 Q0.1 -11.35 0.25 -11.2 0.35 -11.05 0.1 -11.05 L-0.2 -11.05 -0.35 -11.1 Q-0.3 -11.2 -0.15 -11.2 L0.0 -11.15 Q0.1 -11.15 0.1 -11.25 L-0.1 -12.1 Q-0.1 -12.25 0.0 -12.25 L0.35 -12.3 0.25 -12.35 0.05 -12.4 -0.45 -12.35 -0.35 -12.35 0.0 -12.4 0.45 -12.35 Q0.75 -12.3 0.7 -12.15 M0.0 -11.05 L0.2 -11.05 0.6 -11.0 0.7 -10.9 0.45 -10.9 0.55 -10.95 0.55 -10.95 0.05 -11.05 0.0 -11.05 M0.55 -10.15 Q0.45 -10.3 0.35 -10.3 L-0.1 -10.3 Q-1.15 -10.3 -1.15 -10.05 L-1.05 -9.8 -1.1 -9.55 -1.1 -9.35 Q-1.05 -9.3 -1.05 -9.2 -1.05 -9.1 -1.15 -8.95 L-1.1 -8.8 Q-1.1 -8.7 -1.15 -8.7 -1.25 -8.65 -1.25 -8.55 -1.25 -8.45 -1.05 -8.4 L-0.8 -8.4 Q-0.8 -8.3 -0.9 -8.3 L-1.1 -8.35 -1.15 -8.25 -0.5 -8.1 Q-0.55 -8.0 -0.65 -8.0 L-0.9 -8.0 -1.05 -7.8 -1.1 -7.55 -1.1 -7.5 -0.6 -7.5 0.1 -7.4 0.6 -7.5 0.6 -7.5 Q0.45 -7.6 0.25 -7.65 L-0.05 -7.65 -0.1 -7.65 0.2 -7.7 0.2 -7.75 Q0.2 -7.8 -0.05 -7.85 L0.3 -7.9 Q0.55 -7.95 0.6 -8.05 0.7 -8.25 0.7 -8.55 L0.65 -9.15 0.6 -9.75 0.55 -10.05 0.55 -10.15 M-0.8 -13.05 L-0.95 -13.0 -0.75 -13.0 Q-0.7 -13.0 -0.75 -13.05 L-0.8 -13.05" fill="#757472" fill-rule="evenodd" stroke="none"/>
    <path d="M0.4 -20.55 L0.5 -19.65 0.55 -18.0 0.4 -18.1 -0.05 -18.2 -0.7 -18.1 -1.0 -18.15 -1.0 -18.15 -1.0 -18.3 -0.9 -18.3 -0.35 -18.2 -0.15 -18.25 0.0 -18.3 0.2 -18.25 0.35 -18.35 Q0.5 -18.45 0.5 -18.55 L0.45 -18.8 0.2 -19.0 0.2 -19.05 -0.05 -19.1 -0.7 -19.05 -0.7 -19.05 -1.0 -19.1 -1.0 -19.2 -0.9 -19.25 -0.75 -19.3 -0.55 -19.25 0.15 -19.3 Q0.45 -19.4 0.45 -19.75 L0.35 -20.05 0.35 -20.15 0.2 -20.3 0.2 -20.3 0.15 -20.35 0.1 -20.3 0.05 -20.3 -0.25 -20.3 -0.3 -20.3 Q-0.6 -20.3 -0.65 -20.4 L-0.55 -20.5 -0.4 -20.5 -0.35 -20.65 -0.3 -20.75 -0.25 -20.75 -0.25 -20.7 -0.05 -20.6 -0.05 -20.6 0.15 -20.5 0.3 -20.5 0.4 -20.55 M0.55 -17.8 L0.65 -17.8 0.65 -17.7 0.65 -17.65 0.7 -16.9 0.65 -16.85 0.5 -16.85 Q0.65 -17.1 0.65 -17.25 L0.65 -17.35 0.5 -17.65 -0.1 -17.7 -0.25 -17.65 Q-0.55 -17.6 -0.7 -17.45 L-0.8 -17.3 -0.8 -17.45 Q-0.7 -17.65 -0.35 -17.75 L-0.1 -17.8 0.55 -17.8" fill="#3f3e3b" fill-rule="evenodd" stroke="none"/>
    <path d="M0.5 -16.85 L0.65 -16.85 0.65 -16.65 Q0.65 -16.4 0.75 -16.1 L0.7 -15.6 0.7 -15.1 0.65 -15.25 0.55 -15.65 Q0.4 -16.1 0.1 -16.1 L0.35 -16.15 Q0.5 -16.2 0.55 -16.25 L0.4 -16.35 Q0.15 -16.5 -0.1 -16.55 -0.45 -16.6 -0.85 -16.55 -1.0 -16.9 -0.45 -16.9 L-0.1 -16.85 0.1 -16.85 Q0.4 -16.85 0.5 -16.85 M0.7 -14.9 L0.7 -14.35 0.4 -14.4 0.2 -14.4 Q-0.1 -14.4 -0.25 -14.6 L-0.5 -14.3 -0.5 -14.3 Q-0.6 -14.25 -0.75 -14.2 L-0.95 -14.25 -0.95 -14.9 -0.1 -14.9 0.7 -14.9" fill="#252626" fill-rule="evenodd" stroke="none"/>
    <path d="M0.65 -16.85 L0.7 -16.9 0.75 -16.3 0.85 -15.25 0.85 -14.25 0.7 -14.35 0.7 -14.9 0.75 -14.9 0.7 -15.1 0.7 -15.6 0.75 -16.1 Q0.65 -16.4 0.65 -16.65 L0.65 -16.85 M0.85 -14.2 L0.85 -14.2 0.95 -13.9 0.95 -13.3 0.95 -13.3 Q0.8 -13.35 0.75 -13.4 L0.65 -13.5 Q0.55 -13.65 0.5 -13.8 0.5 -13.95 0.6 -14.1 L0.7 -14.15 0.7 -13.9 Q0.65 -13.8 0.7 -13.45 L0.75 -13.4 0.7 -13.45 Q0.65 -13.8 0.7 -13.9 L0.7 -14.15 0.85 -14.2 M0.95 -13.05 L1.0 -12.5 1.0 -11.35 0.85 -11.5 Q0.65 -11.6 0.65 -11.8 L0.7 -12.15 0.8 -12.15 Q1.0 -12.2 0.85 -12.3 L0.9 -12.35 1.0 -12.5 0.95 -12.6 0.9 -12.75 0.8 -12.9 0.95 -13.05 M1.05 -11.0 Q1.1 -9.5 1.2 -8.3 L1.2 -7.3 Q1.15 -6.85 1.25 -6.6 L1.25 -5.7 1.1 -5.9 Q0.95 -6.0 0.95 -6.1 0.65 -6.2 0.65 -6.5 L0.6 -6.7 Q0.6 -6.85 0.5 -6.9 0.15 -6.85 0.1 -7.0 0.05 -7.25 0.0 -7.35 L0.8 -7.35 0.85 -7.35 0.8 -8.25 0.75 -9.15 Q0.75 -9.35 0.75 -9.7 L0.75 -10.3 Q1.1 -10.2 0.95 -10.35 L0.85 -10.4 1.0 -10.55 0.9 -10.65 Q0.75 -10.8 0.75 -10.9 0.95 -10.9 1.05 -11.0 M1.15 -5.45 L1.2 -5.4 1.35 -5.1 1.2 -4.65 1.2 -4.65 1.15 -4.5 1.15 -4.8 0.9 -4.45 Q0.8 -4.25 0.55 -4.2 L0.55 -4.55 0.55 -4.85 Q0.55 -5.0 0.45 -5.1 0.25 -5.0 0.0 -4.95 -0.25 -4.95 -0.3 -5.15 L0.65 -5.15 Q0.55 -5.25 0.55 -5.3 0.55 -5.4 0.7 -5.45 L1.0 -5.45 1.05 -5.45 1.1 -5.45 1.15 -5.45 M1.2 -4.65 L1.2 -4.7 1.15 -4.9 1.1 -5.25 1.1 -5.45 1.1 -5.25 1.15 -4.9 1.2 -4.7 1.2 -4.65" fill="#242425" fill-rule="evenodd" stroke="none"/>
    <path d="M0.85 -14.25 L0.85 -14.2 0.7 -14.15 0.6 -14.1 Q0.5 -13.95 0.5 -13.8 0.55 -13.65 0.65 -13.5 L0.75 -13.4 Q0.8 -13.35 0.95 -13.3 L0.95 -13.3 0.95 -13.05 0.8 -12.9 0.8 -12.9 Q0.55 -12.85 0.05 -12.9 L0.2 -12.95 0.15 -13.0 Q0.05 -13.05 0.3 -13.15 0.4 -13.5 0.2 -13.8 0.0 -14.05 -0.3 -14.05 L-0.65 -14.05 -0.3 -14.1 0.05 -14.15 Q0.5 -14.2 0.4 -14.4 L0.7 -14.35 0.85 -14.25" fill="#4f4d4a" fill-rule="evenodd" stroke="none"/>
    <path d="M1.0 -12.5 L1.0 -12.5 0.9 -12.35 0.85 -12.3 0.85 -12.3 Q0.7 -12.4 0.45 -12.55 0.4 -12.85 -0.15 -12.8 -0.65 -12.75 -1.0 -12.6 L-1.0 -12.6 -0.6 -12.9 0.05 -12.9 Q0.55 -12.85 0.8 -12.9 L0.8 -12.9 0.9 -12.75 0.95 -12.6 1.0 -12.5 M0.7 -10.9 L0.75 -10.9 Q0.75 -10.8 0.9 -10.65 L1.0 -10.55 0.85 -10.4 0.6 -10.65 Q0.45 -10.8 0.2 -10.8 L-0.3 -10.7 -0.8 -10.7 Q-0.95 -10.7 -1.0 -10.85 L-1.0 -10.9 0.45 -10.9 0.7 -10.9" fill="#121314" fill-rule="evenodd" stroke="none"/>
    <path d="M1.0 -11.35 L1.0 -11.1 1.05 -11.0 Q0.95 -10.9 0.75 -10.9 L0.7 -10.9 0.6 -11.0 0.2 -11.05 0.0 -11.05 -0.35 -11.05 -0.2 -11.05 0.1 -11.05 Q0.35 -11.05 0.25 -11.2 0.1 -11.35 0.05 -11.55 L0.0 -12.0 0.55 -12.0 Q0.8 -12.05 0.25 -12.05 -0.3 -12.05 0.05 -12.1 L0.7 -12.15 0.65 -11.8 Q0.65 -11.6 0.85 -11.5 L1.0 -11.35" fill="#514f4b" fill-rule="evenodd" stroke="none"/>
    <path d="M-1.0 -12.6 Q-0.65 -12.75 -0.15 -12.8 0.4 -12.85 0.45 -12.55 0.7 -12.4 0.85 -12.3 L0.85 -12.3 Q1.0 -12.2 0.8 -12.15 L0.7 -12.15 Q0.75 -12.3 0.45 -12.35 L0.0 -12.4 -0.35 -12.35 -0.45 -12.35 -0.75 -12.25 Q-0.95 -12.25 -1.0 -12.3 -1.05 -12.4 -1.0 -12.6" fill="#434140" fill-rule="evenodd" stroke="none"/>
    <path d="M-1.05 -10.85 L-1.0 -10.9 -1.0 -10.85 Q-0.95 -10.7 -0.8 -10.7 L-0.3 -10.7 0.2 -10.8 Q0.45 -10.8 0.6 -10.65 L0.85 -10.4 0.95 -10.35 Q1.1 -10.2 0.75 -10.3 L0.75 -10.3 Q0.45 -10.5 -0.1 -10.4 L-0.6 -10.35 -1.05 -10.35 -1.1 -10.65 Q-1.1 -10.8 -1.05 -10.85" fill="#4b4a47" fill-rule="evenodd" stroke="none"/>
    <path d="M1.25 -5.7 L1.2 -5.5 1.15 -5.5 1.15 -5.45 1.1 -5.45 1.05 -5.45 1.0 -5.45 1.05 -5.5 Q1.1 -5.7 0.95 -5.85 L0.95 -5.9 0.6 -6.1 0.25 -6.2 0.0 -6.2 -0.15 -6.2 Q-0.35 -6.2 -0.55 -6.1 -0.55 -6.0 -0.5 -5.9 L-0.35 -5.7 -0.3 -5.65 Q-0.25 -5.55 -0.3 -5.55 L-0.6 -5.5 -0.7 -5.5 Q-1.0 -5.45 -1.15 -5.55 -1.25 -5.65 -1.25 -5.9 -1.1 -6.5 -1.2 -6.7 -1.35 -6.6 -1.35 -6.4 L-1.3 -6.0 Q-1.25 -5.75 -1.3 -5.65 -1.35 -5.55 -1.45 -5.5 L-1.55 -5.5 Q-1.65 -5.95 -1.65 -6.6 -1.55 -6.85 -1.55 -7.3 L-1.55 -8.1 Q-1.3 -8.15 -1.2 -8.0 -1.2 -7.9 -1.25 -7.6 L-1.3 -7.2 Q-1.3 -7.0 -1.15 -7.0 -1.3 -7.35 -0.85 -7.35 L-0.4 -7.35 0.0 -7.35 Q0.05 -7.25 0.1 -7.0 0.15 -6.85 0.5 -6.9 0.6 -6.85 0.6 -6.7 L0.65 -6.5 Q0.65 -6.2 0.95 -6.1 0.95 -6.0 1.1 -5.9 L1.25 -5.7" fill="#4c4a47" fill-rule="evenodd" stroke="none"/>
    <path d="M-1.5 -5.5 L-1.55 -5.5 -1.45 -5.5 Q-1.35 -5.55 -1.3 -5.65 -1.25 -5.75 -1.3 -6.0 L-1.35 -6.4 Q-1.35 -6.6 -1.2 -6.7 -1.1 -6.5 -1.25 -5.9 -1.25 -5.65 -1.15 -5.55 -1.0 -5.45 -0.7 -5.5 L-0.8 -5.4 -1.5 -5.5 M-0.15 -6.2 L-0.15 -5.85 -0.3 -5.65 -0.35 -5.7 -0.5 -5.9 Q-0.55 -6.0 -0.55 -6.1 -0.35 -6.2 -0.15 -6.2 M1.05 -5.5 Q0.95 -5.75 0.6 -6.0 L0.25 -6.2 0.6 -6.1 0.95 -5.9 0.95 -5.85 Q1.1 -5.7 1.05 -5.5" fill="#7c7875" fill-rule="evenodd" stroke="none"/>
    <path d="M-1.5 -4.3 L-1.55 -4.65 -1.7 -5.1 -1.55 -5.4 -1.5 -5.5 -0.8 -5.4 -0.5 -5.45 0.7 -5.45 Q0.55 -5.4 0.55 -5.3 0.55 -5.25 0.65 -5.15 L-0.3 -5.15 Q-0.25 -4.95 0.0 -4.95 0.25 -5.0 0.45 -5.1 0.55 -5.0 0.55 -4.85 L0.55 -4.55 Q0.2 -4.25 -0.4 -4.45 L-1.35 -4.7 -1.5 -4.3" fill="#363535" fill-rule="evenodd" stroke="none"/>
    <path d="M1.15 -4.5 L1.1 -4.3 1.35 -3.15 1.55 -2.3 1.55 -1.4 1.45 -2.2 Q1.35 -2.95 1.35 -3.25 0.95 -3.15 0.95 -2.65 L1.0 -2.3 Q1.0 -2.05 0.9 -1.95 0.75 -1.8 0.75 -1.6 0.75 -1.4 0.9 -1.2 0.65 -0.75 0.7 -0.1 L0.7 -0.05 Q0.75 0.35 1.0 1.1 0.85 1.15 0.85 1.65 L0.8 1.85 0.7 1.65 Q0.6 1.15 0.65 0.0 L0.65 -0.1 Q0.6 -1.1 0.55 -1.65 0.6 -1.85 0.5 -2.8 0.5 -3.5 0.7 -3.8 L-0.15 -3.75 -0.95 -3.8 -0.4 -3.8 Q-0.15 -3.85 -0.35 -4.05 -0.05 -3.9 0.2 -3.9 0.45 -3.95 0.55 -4.2 0.8 -4.25 0.9 -4.45 L1.15 -4.8 1.15 -4.5 M0.85 3.1 L0.55 3.55 Q0.25 4.2 0.25 4.9 0.25 5.1 0.4 5.5 L0.45 5.65 0.05 5.7 -0.35 5.75 Q-0.25 5.6 -0.1 5.55 L0.2 5.4 Q0.1 5.2 0.1 4.85 L0.2 4.2 Q0.25 3.85 0.2 3.65 0.1 3.4 -0.2 3.35 L-0.5 3.2 Q-0.6 3.5 -0.55 3.95 L-0.5 4.7 Q-0.4 5.65 -0.75 6.1 L-0.4 6.1 0.05 6.15 Q0.5 6.1 0.5 5.75 L0.5 5.7 0.5 5.8 0.55 5.9 0.4 6.25 -0.4 6.2 Q-0.95 6.25 -0.55 6.55 L-0.55 7.05 -0.6 7.2 -0.55 7.2 -0.6 7.25 -0.6 7.25 -0.65 7.4 -0.65 7.45 Q-0.6 7.45 -0.55 7.5 L-0.45 7.25 -0.45 7.2 -0.5 7.15 -0.45 7.15 -0.4 7.15 -0.4 7.2 -0.45 7.2 -0.45 7.25 -0.5 7.45 -0.55 7.75 -0.6 7.8 -0.65 7.7 -0.7 7.5 -0.7 7.25 -0.65 6.9 -0.65 6.85 -0.75 6.3 -0.9 5.9 -0.75 5.5 Q-0.6 5.1 -0.6 4.9 -0.6 4.2 -0.9 3.55 L-1.2 3.1 -1.05 3.0 -0.9 2.85 -0.5 2.2 Q-0.15 1.8 0.2 2.0 L0.45 2.0 Q0.55 2.1 0.6 2.2 0.65 2.35 0.6 2.4 0.5 2.5 0.35 2.45 L0.6 2.6 0.75 2.75 Q0.8 2.85 0.9 2.95 L0.9 3.0 0.85 3.1 M0.4 6.4 L0.3 6.65 0.3 6.8 0.3 6.9 0.3 7.15 0.25 7.0 0.2 6.9 0.2 6.65 Q0.0 6.6 0.0 6.7 L0.0 6.8 0.1 7.1 0.1 7.25 Q0.1 7.45 0.05 7.45 L-0.15 7.35 -0.1 7.25 -0.05 7.0 -0.05 6.85 Q-0.1 6.5 -0.15 7.05 L-0.15 7.15 -0.2 7.15 -0.25 7.05 Q-0.4 6.85 -0.3 6.7 -0.3 6.6 -0.2 6.5 L0.05 6.5 0.3 6.45 0.35 6.4 0.4 6.4 M0.35 7.5 L0.25 7.7 0.2 7.4 0.15 7.4 0.15 7.3 Q0.2 7.5 0.3 7.5 L0.35 7.5 M-0.6 2.9 L-0.55 3.0 Q-0.4 3.15 -0.05 3.15 0.3 3.15 0.5 3.0 L0.55 2.95 Q0.7 2.75 0.3 2.55 L-0.35 2.5 Q-0.55 2.5 -0.7 2.7 -0.85 2.9 -0.6 2.9" fill="#373737" fill-rule="evenodd" stroke="none"/>
    <path d="M-2.3 2.85 Q-2.2 2.65 -2.15 2.2 L-2.05 1.15 -2.0 1.05 Q-1.9 1.3 -1.95 1.7 -2.05 2.15 -2.0 2.35 -1.6 2.4 -1.7 2.15 L-1.8 1.7 Q-1.4 1.3 -1.35 0.55 L-1.3 0.0 -1.3 -0.1 -1.2 -0.6 Q-0.9 -1.4 -1.3 -2.3 -1.65 -2.25 -1.65 -1.95 L-1.65 -1.65 Q-1.65 -1.5 -1.7 -1.45 -1.8 -1.85 -1.8 -1.75 L-1.8 -1.3 Q-1.75 -0.45 -1.85 -0.9 L-1.9 -0.75 -1.9 -1.35 -1.95 -2.25 -1.95 -2.3 -1.75 -3.15 -1.5 -4.3 -1.35 -4.7 -0.4 -4.45 Q0.2 -4.25 0.55 -4.55 L0.55 -4.2 Q0.45 -3.95 0.2 -3.9 -0.05 -3.9 -0.35 -4.05 -0.15 -3.85 -0.4 -3.8 L-0.95 -3.8 -0.15 -3.75 0.7 -3.8 Q0.5 -3.5 0.5 -2.8 0.6 -1.85 0.55 -1.65 0.35 -1.55 0.4 -1.35 0.1 -1.35 0.05 -1.6 0.05 -1.8 0.2 -2.0 -0.05 -2.0 -0.25 -2.15 -0.35 -2.2 -0.5 -2.4 L-0.55 -2.15 Q-0.6 -2.35 -0.65 -2.45 -0.65 -2.3 -0.7 -2.0 -0.75 -1.75 -0.45 -1.65 -0.5 -1.15 -0.65 -0.5 -0.7 -0.6 -0.65 -0.95 -0.6 -1.35 -0.7 -1.55 L-0.75 -0.35 Q-0.6 -0.5 -0.55 -0.1 L-0.6 0.55 Q-0.15 0.75 -0.15 1.15 -0.1 1.55 -0.35 1.9 L-0.65 2.15 Q-0.8 2.3 -0.8 2.45 -0.85 2.4 -0.8 2.05 -0.75 1.8 -0.85 1.7 L-0.9 2.15 Q-0.9 2.4 -1.0 2.6 -0.9 2.4 -1.05 2.25 -1.15 2.15 -1.15 2.5 L-1.35 2.45 -1.3 2.55 Q-1.05 2.75 -1.15 2.85 L-1.15 2.85 Q-1.25 2.95 -1.45 3.0 L-1.5 3.0 -1.95 3.05 -2.1 3.0 -2.25 2.9 -2.3 2.85 M-1.95 -0.4 L-2.0 -0.4 -1.95 -0.55 -1.95 -0.4" fill="#5f5e5e" fill-rule="evenodd" stroke="none"/>
    <path d="M1.55 -1.4 L1.55 -1.15 1.15 -0.9 Q0.95 -0.7 1.15 -0.55 L1.25 -0.1 1.35 0.6 Q1.45 1.3 1.1 1.8 0.7 2.1 0.9 2.65 0.75 2.5 0.75 2.15 L0.7 1.65 0.8 1.85 0.85 1.65 Q0.85 1.15 1.0 1.1 0.75 0.35 0.7 -0.05 L0.7 -0.1 Q0.65 -0.75 0.9 -1.2 0.75 -1.4 0.75 -1.6 0.75 -1.8 0.9 -1.95 1.0 -2.05 1.0 -2.3 L0.95 -2.65 Q0.95 -3.15 1.35 -3.25 1.35 -2.95 1.45 -2.2 L1.55 -1.4" fill="#646362" fill-rule="evenodd" stroke="none"/>
    <path d="M1.55 -1.15 L1.55 -0.8 1.55 -0.7 1.6 -0.55 1.6 -0.4 1.55 -0.4 1.45 -0.4 1.55 -0.1 1.6 0.35 1.65 1.05 1.7 1.15 1.75 2.2 1.8 2.5 1.45 2.45 Q1.25 2.45 1.15 2.6 L1.1 2.7 Q1.05 2.75 1.05 2.85 L1.15 3.0 1.35 3.15 1.05 3.0 1.0 2.95 0.9 2.95 Q0.8 2.85 0.75 2.75 L0.6 2.6 0.35 2.45 Q0.5 2.5 0.6 2.4 0.65 2.35 0.6 2.2 0.55 2.1 0.45 2.0 L0.2 2.0 Q-0.15 1.8 -0.5 2.2 L-0.9 2.85 -1.05 3.0 -1.2 3.1 -1.35 3.15 -1.9 3.2 Q-2.2 3.15 -2.3 3.0 L-2.35 3.0 -2.3 2.85 -2.25 2.9 -2.1 3.0 -1.95 3.05 -1.5 3.0 -1.45 3.0 Q-1.25 2.95 -1.15 2.85 L-1.15 2.85 Q-1.05 2.75 -1.3 2.55 L-1.35 2.45 -1.15 2.5 Q-1.15 2.15 -1.05 2.25 -0.9 2.4 -1.0 2.6 -0.9 2.4 -0.9 2.15 L-0.85 1.7 Q-0.75 1.8 -0.8 2.05 -0.85 2.4 -0.8 2.45 -0.8 2.3 -0.65 2.15 L-0.35 1.9 Q-0.1 1.55 -0.15 1.15 -0.15 0.75 -0.6 0.55 L-0.55 -0.1 Q-0.6 -0.5 -0.75 -0.35 L-0.7 -1.55 Q-0.6 -1.35 -0.65 -0.95 -0.7 -0.6 -0.65 -0.5 -0.5 -1.15 -0.45 -1.65 -0.75 -1.75 -0.7 -2.0 -0.65 -2.3 -0.65 -2.45 -0.6 -2.35 -0.55 -2.15 L-0.5 -2.4 Q-0.35 -2.2 -0.25 -2.15 -0.05 -2.0 0.2 -2.0 0.05 -1.8 0.05 -1.6 0.1 -1.35 0.4 -1.35 0.35 -1.55 0.55 -1.65 0.6 -1.1 0.65 -0.1 L0.65 0.0 Q0.6 1.15 0.7 1.65 L0.75 2.15 Q0.75 2.5 0.9 2.65 0.7 2.1 1.1 1.8 1.45 1.3 1.35 0.6 L1.25 -0.1 1.15 -0.55 Q0.95 -0.7 1.15 -0.9 L1.55 -1.15" fill="#979594" fill-rule="evenodd" stroke="none"/>
    <path d="M1.8 2.5 L1.9 2.85 2.0 3.0 1.95 3.0 Q1.85 3.15 1.55 3.2 L1.5 3.2 1.35 3.15 1.15 3.0 1.05 2.85 Q1.05 2.75 1.1 2.7 L1.15 2.6 Q1.25 2.45 1.45 2.45 L1.8 2.5" fill="#5d5c5e" fill-rule="evenodd" stroke="none"/>
    <path d="M-0.6 2.9 L0.05 2.85 Q0.1 2.95 0.15 2.8 0.5 2.7 0.2 2.6 L0.15 2.8 0.1 2.8 0.05 2.85 0.0 2.55 -0.4 2.6 Q-0.6 2.7 -0.35 2.85 L-0.55 2.75 Q-0.65 2.75 -0.6 2.9 -0.85 2.9 -0.7 2.7 -0.55 2.5 -0.35 2.5 L0.3 2.55 Q0.7 2.75 0.55 2.95 L0.5 3.0 Q0.3 3.15 -0.05 3.15 -0.4 3.15 -0.55 3.0 L-0.6 2.9" fill="#5c5b5e" fill-rule="evenodd" stroke="none"/>
    <path d="M-0.6 2.9 Q-0.65 2.75 -0.55 2.75 L-0.35 2.85 Q-0.6 2.7 -0.4 2.6 L0.0 2.55 0.05 2.85 0.1 2.8 0.15 2.8 0.2 2.6 Q0.5 2.7 0.15 2.8 0.1 2.95 0.05 2.85 L-0.6 2.9" fill="#a6a5a7" fill-rule="evenodd" stroke="none"/>
    <path d="M0.45 5.65 L0.45 5.7 0.5 5.7 0.5 5.75 Q0.5 6.1 0.05 6.15 L-0.4 6.1 -0.75 6.1 Q-0.4 5.65 -0.5 4.7 L-0.55 3.95 Q-0.6 3.5 -0.5 3.2 L-0.2 3.35 Q0.1 3.4 0.2 3.65 0.25 3.85 0.2 4.2 L0.1 4.85 Q0.1 5.2 0.2 5.4 L-0.1 5.55 Q-0.25 5.6 -0.35 5.75 L0.05 5.7 0.45 5.65" fill="#4c3a28" fill-rule="evenodd" stroke="none"/>
    <path d="M0.4 6.25 L0.4 6.35 0.4 6.4 0.35 6.4 0.3 6.45 0.05 6.5 -0.2 6.5 Q-0.3 6.6 -0.3 6.7 -0.4 6.85 -0.25 7.05 L-0.2 7.15 -0.15 7.15 -0.15 7.05 Q-0.1 6.5 -0.05 6.85 L-0.05 7.0 -0.1 7.25 -0.15 7.35 0.05 7.45 Q0.1 7.45 0.1 7.25 L0.1 7.1 0.0 6.8 0.0 6.7 Q0.0 6.6 0.2 6.65 L0.2 6.9 0.25 7.0 0.3 7.15 0.3 7.25 0.35 7.45 0.35 7.5 0.3 7.5 Q0.2 7.5 0.15 7.3 L0.15 7.4 0.2 7.4 0.25 7.7 0.2 7.8 0.35 8.1 0.3 8.15 0.15 8.15 0.15 8.25 0.1 8.45 Q0.1 8.55 0.0 8.6 L-0.05 8.0 Q-0.05 7.65 -0.15 7.45 L-0.15 8.0 -0.1 8.5 -0.35 8.5 Q-0.5 8.45 -0.4 8.25 -0.55 8.3 -0.7 8.4 -0.8 8.5 -0.85 8.65 L0.1 8.7 0.7 8.65 0.75 8.7 0.65 8.9 0.55 9.2 0.5 9.2 0.1 9.25 -0.2 9.25 -0.45 9.25 -0.85 9.2 Q-1.25 9.1 -1.05 8.6 -0.75 8.3 -0.6 7.8 L-0.55 7.75 -0.5 7.45 -0.45 7.25 -0.45 7.2 -0.4 7.2 -0.4 7.15 -0.45 7.15 -0.5 7.15 -0.45 7.2 -0.45 7.25 -0.55 7.5 Q-0.6 7.45 -0.65 7.45 L-0.65 7.4 -0.6 7.25 -0.6 7.25 -0.55 7.2 -0.6 7.2 -0.55 7.05 -0.55 6.55 Q-0.95 6.25 -0.4 6.2 L0.4 6.25" fill="#666561" fill-rule="evenodd" stroke="none"/>
    <path d="M0.35 8.1 Q0.5 8.4 0.7 8.6 L0.7 8.65 0.1 8.7 -0.85 8.65 Q-0.8 8.5 -0.7 8.4 -0.55 8.3 -0.4 8.25 -0.5 8.45 -0.35 8.5 L-0.1 8.5 -0.15 8.0 -0.15 7.45 Q-0.05 7.65 -0.05 8.0 L0.0 8.6 Q0.1 8.55 0.1 8.45 L0.15 8.25 0.15 8.15 0.3 8.15 0.3 8.2 0.35 8.2 0.4 8.2 0.3 8.15 0.35 8.1" fill="#a3a3a0" fill-rule="evenodd" stroke="none"/>
    <path d="M-1.55 -8.3 L-1.4 -11.1 -1.3 -13.9 -1.25 -14.2 Q-1.1 -13.95 -1.1 -13.6 L-1.15 -12.95 -1.2 -10.9 Q-1.2 -9.65 -1.4 -8.9 -1.25 -8.7 -1.3 -8.55 -1.3 -8.4 -1.55 -8.3" fill="#4e4d4e" fill-rule="evenodd" stroke="none"/>
    <path d="M-0.6 -12.9 L-1.0 -12.6 -1.0 -12.8 -0.95 -13.0 Q-0.8 -12.9 -0.6 -12.9" fill="#292826" fill-rule="evenodd" stroke="none"/>
    <path d="M-2.0 1.05 L-2.0 0.35 -1.9 -0.1 -1.85 -0.4 -1.95 -0.4 -1.95 -0.4 -1.95 -0.55 -1.95 -0.7 -1.9 -0.75 -1.85 -0.9 Q-1.75 -0.45 -1.8 -1.3 L-1.8 -1.75 Q-1.8 -1.85 -1.7 -1.45 -1.65 -1.5 -1.65 -1.65 L-1.65 -1.95 Q-1.65 -2.25 -1.3 -2.3 -0.9 -1.4 -1.2 -0.6 L-1.3 -0.1 -1.3 0.0 -1.35 0.55 Q-1.4 1.3 -1.8 1.7 L-1.7 2.15 Q-1.6 2.4 -2.0 2.35 -2.05 2.15 -1.95 1.7 -1.9 1.3 -2.0 1.05" fill="#959492" fill-rule="evenodd" stroke="none"/>
    <path d="M0.4 -28.95 L0.3 -29.0 M-0.75 -28.95 Q-1.0 -28.9 -1.0 -28.85 L-0.85 -28.7 -0.75 -28.65 -0.75 -27.55 -0.75 -27.0 -0.7 -26.9 -0.75 -26.35 Q-0.8 -24.4 -0.8 -22.6 L-0.9 -22.6 Q-0.85 -21.4 -0.95 -20.6 L-1.0 -19.2 -1.0 -19.1 -1.0 -18.3 -1.0 -18.15 Q-1.05 -17.05 -1.15 -16.3 L-1.2 -15.25 -1.25 -14.2 -1.3 -13.9 -1.4 -11.1 -1.55 -8.3 -1.55 -8.1 -1.55 -7.3 Q-1.55 -6.85 -1.65 -6.6 -1.65 -5.95 -1.55 -5.5 L-1.5 -5.5 -1.55 -5.4 -1.7 -5.1 -1.55 -4.65 -1.5 -4.3 -1.75 -3.15 -1.95 -2.3 -1.95 -2.25 -1.9 -1.35 -1.9 -0.75 -1.95 -0.7 -1.95 -0.55 -2.0 -0.4 -1.95 -0.4 -1.95 -0.4 -1.85 -0.4 -1.9 -0.1 -2.0 0.35 -2.0 1.05 -2.05 1.15 -2.15 2.2 Q-2.2 2.65 -2.3 2.85 L-2.35 3.0 -2.3 3.0 Q-2.2 3.15 -1.9 3.2 L-1.35 3.15 -1.2 3.1 -0.9 3.55 Q-0.6 4.2 -0.6 4.9 -0.6 5.1 -0.75 5.5 L-0.9 5.9 -0.75 6.3 -0.65 6.85 -0.65 6.9 -0.7 7.25 -0.7 7.5 -0.65 7.7 -0.6 7.8 Q-0.75 8.3 -1.05 8.6 -1.25 9.1 -0.85 9.2 L-0.45 9.25 -0.2 9.25 0.1 9.25 0.5 9.2 0.55 9.2 Q0.85 9.1 0.75 8.7 L0.7 8.65 0.7 8.6 Q0.5 8.4 0.35 8.1 L0.2 7.8 0.25 7.7 0.35 7.5 0.35 7.45 0.3 7.25 0.3 7.15 0.3 6.9 0.3 6.8 M0.25 -28.55 L0.25 -28.55 0.35 -28.55 0.35 -28.65 0.5 -28.7 0.6 -28.75 0.65 -28.85 0.6 -28.9 0.4 -28.95 Q0.35 -29.15 0.2 -29.3 0.05 -29.45 -0.15 -29.5 L-0.2 -29.5 Q-0.4 -29.45 -0.5 -29.35 L-0.55 -29.3 -0.55 -29.3 Q-0.75 -29.1 -0.75 -28.95 M0.6 -28.75 L0.65 -28.85 0.6 -28.9 M0.3 -25.65 L0.35 -24.75 0.35 -24.65 M0.55 -17.8 L0.65 -17.8 M0.65 -17.7 L0.65 -18.45 0.6 -20.6 0.6 -20.6 Q0.5 -21.4 0.5 -22.6 L0.45 -22.6 Q0.45 -24.4 0.4 -26.35 L0.35 -26.9 0.35 -27.55 0.35 -28.55 M0.7 -16.9 L0.65 -17.65 0.65 -17.7 M0.65 -16.85 L0.7 -16.9 0.75 -16.3 0.85 -15.25 0.85 -14.25 0.85 -14.2 0.85 -14.2 0.95 -13.9 0.95 -13.3 0.95 -13.05 1.0 -12.5 1.0 -12.5 1.0 -11.35 1.0 -11.1 1.05 -11.0 Q1.1 -9.5 1.2 -8.3 L1.2 -7.3 Q1.15 -6.85 1.25 -6.6 L1.25 -5.7 1.2 -5.5 1.15 -5.5 1.15 -5.45 1.2 -5.4 1.35 -5.1 1.2 -4.65 1.2 -4.65 1.15 -4.5 1.1 -4.3 1.35 -3.15 1.55 -2.3 1.55 -1.4 M1.55 -0.8 L1.55 -0.7 1.6 -0.55 1.6 -0.4 1.55 -0.4 1.45 -0.4 1.55 -0.1 1.6 0.35 1.65 1.05 1.7 1.15 1.75 2.2 1.8 2.5 1.9 2.85 2.0 3.0 1.95 3.0 Q1.85 3.15 1.55 3.2 M1.5 3.2 L0.95 3.15 0.85 3.1 0.55 3.55 Q0.25 4.2 0.25 4.9 0.25 5.1 0.4 5.5 L0.45 5.65 M0.55 5.9 L0.4 6.25 M0.65 -16.85 L0.65 -16.65 Q0.65 -16.4 0.75 -16.1 L0.7 -15.6 0.7 -15.1 0.75 -14.9 0.7 -14.9 0.7 -14.35 0.85 -14.25 M0.7 -14.15 L0.85 -14.2 M0.75 -13.4 L0.7 -13.45 Q0.65 -13.8 0.7 -13.9 L0.7 -14.15 M0.75 -13.4 Q0.8 -13.35 0.95 -13.3 L0.95 -13.3 M0.8 -12.9 L0.95 -13.05 M0.95 -12.6 L0.9 -12.75 0.8 -12.9 M0.85 -12.3 L0.9 -12.35 1.0 -12.5 M0.7 -12.15 L0.65 -11.8 Q0.65 -11.6 0.85 -11.5 L1.0 -11.35 M0.85 -12.3 Q1.0 -12.2 0.8 -12.15 L0.7 -12.15 M0.75 -10.9 Q0.95 -10.9 1.05 -11.0 M0.75 -10.9 Q0.75 -10.8 0.9 -10.65 L1.0 -10.55 0.85 -10.4 0.95 -10.35 Q1.1 -10.2 0.75 -10.3 L0.75 -9.7 Q0.75 -9.35 0.75 -9.15 L0.8 -8.25 0.85 -7.35 0.8 -7.35 M0.95 -6.1 Q0.95 -6.0 1.1 -5.9 L1.25 -5.7 M1.1 -5.45 L1.15 -5.45 M1.1 -5.45 L1.1 -5.25 1.15 -4.9 1.2 -4.7 1.2 -4.65 M1.35 3.15 L1.5 3.2 M1.35 3.15 L1.05 3.0 1.0 2.95 0.9 2.95 0.9 3.0 0.85 3.1" fill="none" stroke="#000000" stroke-linecap="round" stroke-linejoin="round" stroke-opacity="0.4509804" stroke-width="0.1"/>
  </g>
</svg>
