<?xml version="1.0" encoding="UTF-8" standalone="no"?>
<svg xmlns:xlink="http://www.w3.org/1999/xlink" height="47.05px" width="11.35px" xmlns="http://www.w3.org/2000/svg">
  <g transform="matrix(1.0, 0.0, 0.0, 1.0, 5.75, 32.25)">
    <path d="M0.15 -30.15 L0.05 -30.2 -0.05 -30.2 Q0.0 -30.35 -0.1 -30.4 L-0.2 -30.45 -0.25 -30.45 -0.35 -30.45 -0.2 -32.2 -0.1 -32.05 -0.1 -32.0 Q0.05 -31.75 0.1 -31.35 L0.15 -30.2 0.15 -30.15 M-0.4 -28.95 L-0.35 -28.95 Q-0.35 -28.95 -0.3 -28.95 L-0.2 -29.05 -0.25 -27.9 -0.15 -27.55 -0.15 -27.5 -0.05 -27.2 0.0 -27.4 0.1 -27.7 -0.1 -29.25 Q-0.05 -29.35 0.05 -29.35 L0.1 -29.3 0.1 -29.3 0.2 -29.25 0.2 -29.0 0.3 -27.55 0.3 -27.4 0.25 -27.35 0.3 -27.2 0.25 -27.05 Q0.1 -26.45 0.15 -26.3 L0.2 -25.8 0.2 -25.75 0.2 -25.45 0.25 -25.4 0.35 -24.9 0.45 -24.75 0.5 -24.55 0.7 -24.05 0.65 -23.85 0.55 -23.6 0.5 -23.8 0.4 -23.9 0.3 -23.9 Q0.2 -23.6 0.2 -23.05 L0.15 -22.2 0.15 -22.1 0.15 -21.65 Q0.15 -21.4 0.2 -21.15 L0.2 -21.0 Q0.3 -20.6 0.55 -20.25 L0.65 -20.0 0.5 -19.95 0.25 -19.9 0.2 -20.0 0.15 -20.15 -0.05 -20.55 -0.05 -20.55 Q-0.2 -20.7 -0.25 -21.05 L-0.3 -21.45 -0.25 -21.65 -0.3 -22.05 -0.3 -22.15 -0.3 -23.05 -0.35 -23.35 -0.45 -23.9 Q-0.55 -23.95 -0.65 -23.8 L-0.65 -23.7 -0.7 -23.6 -0.8 -23.85 -0.85 -24.05 -0.65 -24.55 -0.6 -24.65 -0.5 -24.95 -0.35 -25.4 -0.35 -25.45 -0.3 -25.8 -0.25 -26.3 Q-0.25 -26.45 -0.4 -27.05 L-0.4 -27.1 -0.5 -27.25 -0.4 -28.95 M0.9 -19.35 L0.9 -19.25 0.6 -18.5 0.55 -18.45 0.5 -18.4 0.4 -18.25 0.55 -18.15 Q1.0 -17.85 1.0 -17.45 L1.0 -17.35 Q1.05 -16.7 0.75 -16.15 L0.6 -15.85 0.35 -15.55 0.6 -15.15 0.65 -15.1 0.8 -14.85 Q1.0 -14.5 0.95 -14.05 L0.9 -13.6 0.7 -13.2 0.65 -13.1 0.65 -13.15 0.55 -13.15 0.55 -13.3 0.7 -13.75 0.75 -14.4 0.65 -14.85 0.65 -14.9 Q0.55 -15.1 0.4 -15.2 L0.4 -15.05 0.5 -14.7 0.55 -14.25 0.55 -13.7 Q0.45 -13.3 0.35 -13.3 L0.3 -13.3 0.2 -13.3 0.35 -13.6 0.4 -13.75 0.45 -14.15 Q0.45 -14.5 0.25 -14.85 L0.05 -15.1 0.0 -15.15 -0.45 -15.65 -0.8 -16.05 -0.95 -16.35 -1.0 -16.5 -1.0 -16.5 -0.95 -16.5 -0.75 -16.55 -0.75 -16.55 -0.65 -16.85 -0.55 -16.85 -0.4 -16.5 -0.4 -16.5 -0.2 -16.2 -0.15 -16.15 -0.05 -16.05 -0.05 -16.0 0.25 -15.65 0.55 -16.35 0.65 -16.55 0.75 -16.85 Q0.85 -17.1 0.85 -17.3 0.85 -17.7 0.55 -17.95 L0.5 -18.0 0.05 -18.4 0.0 -18.45 -0.05 -18.45 -0.05 -18.35 0.05 -18.2 0.3 -17.95 0.5 -17.75 0.6 -17.6 0.7 -17.25 0.7 -17.25 Q0.7 -16.95 0.55 -16.55 L0.55 -16.55 Q0.35 -16.05 0.15 -16.05 L0.0 -16.05 0.25 -16.5 0.35 -16.7 0.4 -16.75 0.45 -17.05 Q0.45 -17.15 0.3 -17.4 L0.25 -17.5 0.05 -17.75 0.0 -17.8 -0.15 -17.95 -0.15 -17.95 -0.5 -17.6 -0.55 -17.45 -0.55 -17.4 -0.65 -17.35 -0.7 -17.7 -0.7 -17.75 Q-0.85 -17.7 -0.85 -17.05 L-0.9 -17.05 -0.95 -17.45 Q-0.95 -17.6 -1.15 -17.6 -1.1 -17.9 -1.0 -18.0 L-0.8 -18.2 -0.75 -18.25 -0.75 -18.25 -0.65 -18.3 -0.55 -18.35 -0.6 -18.4 -0.65 -18.45 -0.7 -18.55 -0.75 -18.6 Q-0.95 -19.05 -1.0 -19.35 L-1.05 -19.55 -1.0 -19.6 -0.65 -20.25 -0.65 -20.3 -0.5 -20.5 -0.5 -20.45 -0.45 -20.4 -0.5 -20.35 -0.65 -20.15 -0.65 -20.1 Q-0.75 -19.9 -0.75 -19.7 -0.75 -19.5 -0.65 -19.1 L-0.6 -18.95 -0.4 -18.35 Q-0.35 -18.35 -0.25 -18.4 -0.4 -18.6 -0.5 -18.9 L-0.6 -19.1 -0.65 -19.4 -0.55 -19.85 -0.5 -20.0 Q-0.45 -20.25 -0.35 -20.25 -0.3 -20.25 -0.25 -20.2 L-0.35 -20.0 Q-0.55 -19.55 -0.55 -19.4 L-0.5 -19.15 -0.45 -18.85 -0.1 -18.55 -0.05 -18.5 0.05 -18.45 0.05 -18.45 0.3 -18.3 0.55 -18.75 0.65 -19.0 0.7 -19.25 0.7 -19.25 0.75 -19.25 0.85 -19.3 0.9 -19.35 M3.6 -1.05 L4.0 -1.15 4.15 -1.05 3.7 -0.85 3.7 -0.85 3.1 -0.6 3.0 -0.55 2.85 -0.5 2.55 -0.3 2.35 -0.15 1.7 0.05 1.15 0.15 1.1 0.15 0.85 0.2 0.8 0.2 0.8 0.15 0.75 0.2 0.6 0.3 0.55 0.3 0.5 0.2 0.6 0.0 Q0.45 -0.05 0.4 -0.15 L0.4 -0.3 0.5 -0.3 0.55 -0.15 0.65 -0.15 0.7 -0.2 0.65 -0.3 0.6 -0.35 0.55 -0.45 0.55 -0.6 0.7 -0.45 Q0.8 -0.35 0.8 -0.25 L0.85 -0.25 0.95 -0.35 1.1 -0.45 1.4 -0.35 1.7 -0.3 1.95 -0.35 2.1 -0.4 2.2 -0.45 2.25 -0.45 2.45 -0.6 2.7 -0.75 2.8 -0.8 3.0 -0.85 3.35 -1.0 3.6 -1.05 M4.25 -0.85 L4.25 -0.75 Q4.25 -0.55 4.05 -0.35 L3.9 -0.2 Q3.55 0.05 2.8 0.35 L2.6 0.4 2.2 0.5 2.1 0.55 1.8 0.65 Q1.1 0.85 0.6 1.1 L0.45 1.15 0.2 1.3 -0.05 1.4 -0.3 1.3 Q-0.85 1.0 -1.65 0.75 L-1.75 0.7 -2.0 0.6 -2.2 0.55 -2.75 0.4 -3.15 0.25 -3.35 0.15 Q-3.95 -0.1 -4.15 -0.35 L-4.35 -0.65 -4.2 -0.65 -3.5 -0.4 -2.9 -0.2 -2.75 -0.2 -2.35 -0.05 Q-2.25 -0.05 -1.75 0.2 L-1.6 0.25 -1.55 0.25 -1.3 0.35 -0.7 0.55 -0.65 0.65 Q-0.5 0.9 -0.2 1.2 L0.1 0.95 0.2 0.9 0.25 0.95 0.35 0.95 0.45 0.95 0.5 0.9 0.85 0.7 1.2 0.4 1.7 0.3 1.85 0.25 2.2 0.05 2.4 -0.05 2.6 -0.15 2.8 -0.25 2.85 -0.25 3.0 -0.3 Q3.6 -0.45 3.8 -0.55 L3.85 -0.6 4.25 -0.85 M-4.25 -1.1 L-4.15 -1.15 -3.75 -1.05 -3.5 -1.0 -2.9 -0.75 -2.85 -0.75 -2.7 -0.65 -2.65 -0.6 -2.2 -0.4 Q-1.95 -0.3 -1.85 -0.3 L-1.5 -0.35 -1.45 -0.35 -1.35 -0.4 -1.2 -0.45 -1.1 -0.5 -1.0 -0.3 -0.8 -0.4 -0.75 -0.35 Q-0.7 -0.3 -0.6 -0.3 L-0.55 -0.1 Q-0.65 -0.05 -0.7 0.0 L-0.75 0.0 -0.75 0.0 -0.85 0.0 -0.85 -0.05 -1.15 0.0 -1.2 0.0 -1.45 0.0 -1.55 0.0 -1.6 -0.05 Q-2.05 -0.15 -2.7 -0.4 L-2.8 -0.45 -3.0 -0.5 -3.0 -0.5 -4.25 -1.1 M0.05 -25.15 L0.0 -25.4 0.0 -25.7 -0.05 -25.9 Q-0.15 -25.85 -0.2 -25.45 L-0.25 -25.1 -0.3 -24.95 -0.6 -24.25 Q-0.6 -24.15 -0.45 -24.15 L-0.3 -24.15 -0.3 -24.15 -0.25 -22.5 -0.25 -22.3 Q-0.25 -21.7 -0.15 -21.35 L0.0 -21.1 0.15 -20.95 Q0.05 -21.35 0.05 -21.8 L0.05 -21.85 0.0 -22.85 Q0.0 -23.55 0.05 -24.0 L0.05 -24.05 0.1 -24.1 Q0.15 -24.15 0.2 -24.15 L0.25 -24.15 0.35 -24.1 0.4 -24.05 0.5 -24.05 0.5 -24.15 0.45 -24.25 0.4 -24.35 0.35 -24.45 0.3 -24.55 0.1 -24.95 0.05 -25.15 M0.65 -19.25 L0.5 -18.85 Q0.35 -18.55 0.25 -18.55 L0.15 -18.65 0.15 -18.65 0.2 -18.75 0.3 -18.95 0.4 -19.25 0.65 -19.25 M0.4 -19.25 L0.4 -19.25 M-0.4 -13.55 L-0.35 -13.5 -0.3 -13.45 -0.05 -13.15 0.0 -13.1 0.0 -13.1 0.05 -13.05 0.25 -12.9 0.35 -12.8 0.45 -12.7 0.6 -12.5 0.65 -12.5 0.7 -12.45 0.75 -12.35 0.9 -12.2 0.95 -12.15 1.05 -11.9 0.95 -11.95 0.85 -11.95 0.8 -11.95 0.8 -12.05 0.75 -12.15 Q0.6 -12.35 0.3 -12.65 L0.3 -12.7 0.05 -12.85 -0.05 -12.95 -0.35 -13.1 -0.35 -13.1 -0.05 -12.75 0.1 -12.6 0.15 -12.55 0.2 -12.5 0.2 -12.5 Q0.5 -12.2 0.55 -11.9 L0.35 -12.0 0.35 -12.05 0.3 -12.05 0.1 -12.3 0.0 -12.4 -0.05 -12.4 -0.05 -12.4 -0.35 -12.7 -0.4 -12.75 -0.4 -12.75 Q-0.75 -13.1 -0.85 -13.4 L-0.9 -13.45 -0.95 -13.55 -1.0 -13.8 -1.05 -13.9 -1.0 -13.85 -0.95 -14.1 -0.9 -14.1 -0.85 -14.05 -0.75 -14.0 -0.7 -14.1 Q-0.7 -14.05 -0.65 -13.95 L-0.55 -13.8 -0.55 -13.9 -0.5 -13.9 -0.45 -13.65 -0.4 -13.6 -0.4 -13.55 M0.45 -11.1 L0.15 -10.6 0.1 -10.5 0.1 -10.5 0.15 -10.45 0.35 -10.3 0.65 -11.05 0.7 -11.2 0.75 -11.15 0.8 -11.15 0.85 -11.15 0.9 -11.15 0.9 -11.15 0.9 -11.05 0.85 -11.0 0.8 -10.9 0.4 -10.35 0.35 -10.3 0.7 -10.05 0.85 -9.9 0.85 -9.85 0.95 -9.8 0.9 -9.75 0.85 -9.65 0.85 -9.6 Q0.8 -9.6 0.7 -9.65 L0.65 -9.65 0.6 -9.45 0.4 -9.45 0.2 -9.7 0.15 -9.75 0.05 -9.8 0.05 -9.85 -0.05 -9.9 -0.05 -9.95 -0.35 -10.15 -0.35 -10.15 -0.5 -10.3 -0.55 -10.35 -0.75 -10.6 -0.9 -10.9 -0.95 -11.0 -0.8 -11.15 Q-0.8 -11.25 -0.85 -11.45 L-0.95 -11.8 -1.0 -11.8 -1.1 -11.8 -1.15 -11.75 -1.15 -11.75 -1.1 -12.0 -1.0 -12.25 -0.95 -12.35 -0.85 -12.4 -0.75 -12.55 -0.7 -12.6 -0.6 -12.35 -0.7 -12.2 -0.85 -12.0 -0.8 -11.8 -0.75 -11.8 Q-0.7 -11.85 -0.6 -12.1 -0.5 -12.25 -0.4 -12.25 L-0.4 -12.25 Q-0.35 -12.25 -0.35 -12.25 L-0.35 -12.2 -0.35 -12.15 -0.4 -12.1 -0.6 -11.85 -0.65 -11.8 Q-0.85 -11.7 -0.85 -11.5 L-0.8 -11.25 -0.65 -11.1 -0.5 -11.2 -0.45 -11.1 -0.35 -10.95 -0.15 -10.75 -0.1 -10.7 0.0 -10.8 0.0 -10.85 0.1 -10.95 0.2 -11.1 Q0.2 -11.0 0.3 -11.0 L0.4 -11.05 0.45 -11.1 M-0.25 -9.75 L-0.3 -9.7 -0.35 -9.65 -0.55 -9.45 -0.65 -9.25 -0.65 -8.95 -0.6 -8.45 -0.45 -8.15 -0.4 -8.05 -0.35 -7.95 -0.35 -7.9 -0.3 -7.9 -0.05 -7.55 0.0 -7.5 0.25 -7.25 0.25 -7.25 0.45 -7.6 0.55 -7.85 0.65 -8.05 0.8 -8.45 0.9 -8.45 0.95 -8.45 1.0 -8.5 1.05 -8.55 1.05 -8.55 1.1 -8.55 1.05 -8.45 1.0 -8.25 0.9 -8.1 0.75 -7.85 0.6 -7.55 0.45 -7.35 0.4 -7.3 0.35 -7.2 0.4 -7.1 0.5 -7.0 0.75 -6.8 0.9 -6.6 Q1.35 -6.1 1.4 -5.6 1.4 -5.2 1.15 -5.05 L1.05 -4.95 0.4 -4.6 0.4 -4.6 0.35 -4.55 0.0 -4.35 -0.05 -4.35 -0.15 -4.3 -0.45 -4.05 -0.6 -3.8 -0.75 -3.5 -0.75 -3.5 -0.8 -3.4 -0.8 -3.25 Q-0.75 -3.0 -0.45 -2.65 L-0.05 -2.2 0.35 -2.65 0.35 -2.7 0.5 -2.85 0.5 -2.9 Q0.65 -3.15 0.65 -3.35 L0.65 -3.6 0.6 -3.65 0.4 -3.9 0.35 -4.0 0.3 -4.05 0.35 -4.1 0.35 -4.1 0.4 -4.1 Q0.6 -4.1 0.75 -3.8 L0.75 -3.7 Q0.85 -3.4 0.85 -3.1 0.85 -2.95 0.75 -2.75 L0.55 -2.5 0.4 -2.35 0.4 -2.2 0.5 -2.2 0.6 -2.25 Q0.8 -2.4 0.9 -2.7 1.1 -3.05 1.1 -3.4 1.1 -3.55 0.8 -3.95 L0.55 -4.3 Q0.55 -4.4 0.6 -4.5 L0.85 -4.25 1.05 -3.95 1.35 -3.35 1.4 -3.1 1.4 -2.8 Q1.3 -2.35 0.9 -2.2 L0.6 -2.0 Q0.35 -1.85 0.35 -1.65 0.35 -1.35 0.5 -1.05 L0.55 -0.95 0.5 -1.0 0.5 -1.0 0.35 -1.0 0.3 -0.85 0.2 -0.9 0.15 -0.75 0.15 -0.55 -0.05 -1.05 -0.25 -0.6 -0.3 -0.65 Q-0.35 -0.8 -0.4 -0.8 L-0.4 -1.0 -0.65 -0.9 -0.65 -0.95 Q-0.5 -1.25 -0.5 -1.65 L-0.5 -1.75 -0.45 -1.65 Q-0.4 -1.55 -0.3 -1.5 L-0.2 -1.45 0.0 -1.45 Q0.15 -1.45 0.2 -1.55 L0.2 -1.6 Q0.2 -1.8 -0.35 -2.3 -0.7 -2.55 -0.8 -2.85 L-0.85 -3.0 -0.9 -3.25 Q-0.9 -3.8 -0.75 -4.1 L-0.75 -4.1 -0.7 -4.15 Q-0.55 -4.4 -0.15 -4.6 L-0.15 -4.75 -0.7 -4.3 -0.75 -4.25 -0.9 -4.05 -0.9 -4.05 Q-1.2 -3.55 -1.2 -3.05 -1.2 -2.8 -1.05 -2.6 L-1.05 -2.55 -0.95 -2.4 -0.85 -2.3 -0.8 -2.15 -0.85 -2.15 -0.95 -2.15 -1.0 -2.15 -1.0 -2.2 Q-1.25 -2.25 -1.4 -2.45 -1.55 -2.7 -1.55 -3.1 -1.55 -3.4 -1.15 -3.95 L-0.85 -4.4 -0.8 -4.5 -0.75 -4.55 -0.7 -4.6 -0.6 -4.65 -0.65 -4.7 -0.7 -4.75 -0.95 -4.85 -1.05 -4.85 -1.25 -5.05 -1.3 -5.05 -1.45 -5.25 Q-1.5 -5.4 -1.5 -5.6 -1.5 -5.9 -1.35 -6.15 L-1.1 -6.55 -0.85 -6.8 -0.75 -6.85 -0.7 -6.9 -0.65 -6.85 -0.6 -6.8 -0.6 -6.75 -0.65 -6.75 Q-0.9 -6.7 -1.0 -6.45 L-1.1 -6.2 -1.1 -5.85 Q-1.1 -5.45 -1.0 -5.25 L-0.7 -5.0 -0.65 -4.95 -0.4 -4.85 -0.35 -4.85 -0.25 -4.9 -0.65 -5.2 -0.7 -5.2 -0.75 -5.25 Q-1.0 -5.45 -1.0 -5.8 L-0.95 -5.8 Q-0.95 -6.0 -0.8 -6.35 L-0.65 -6.6 -0.55 -6.65 -0.45 -6.75 -0.35 -6.75 -0.2 -6.7 -0.15 -6.65 -0.2 -6.6 -0.4 -6.45 -0.45 -6.4 -0.5 -6.35 -0.6 -6.2 -0.65 -6.1 -0.75 -5.95 -0.75 -5.85 -0.75 -5.85 -0.7 -5.6 -0.6 -5.5 Q-0.5 -5.3 -0.15 -5.05 L-0.05 -5.0 0.3 -5.3 0.45 -5.4 0.65 -5.75 0.65 -5.9 0.65 -5.95 0.6 -5.9 0.5 -6.2 0.3 -6.45 0.15 -6.6 0.15 -6.6 -0.05 -6.75 -0.25 -6.95 -0.45 -7.15 -0.45 -7.2 -0.5 -7.25 -0.55 -7.35 -0.6 -7.4 -0.65 -7.45 -0.7 -7.55 -0.9 -7.85 -1.05 -8.1 -1.2 -8.55 -1.25 -8.65 -1.35 -9.1 -1.35 -9.15 -1.3 -9.3 Q-1.3 -9.5 -1.15 -9.65 L-1.0 -9.85 -1.0 -9.85 -1.0 -9.85 -0.8 -10.1 -0.7 -10.0 Q-1.0 -9.8 -1.0 -9.2 -1.0 -8.65 -0.8 -8.2 L-0.8 -8.2 -0.6 -7.75 -0.45 -7.5 -0.35 -7.35 -0.25 -7.35 -0.25 -7.4 -0.45 -7.65 -0.6 -7.95 Q-0.7 -8.2 -0.75 -8.5 L-0.8 -9.05 Q-0.8 -9.55 -0.7 -9.75 L-0.5 -9.95 -0.4 -9.95 -0.35 -9.95 -0.35 -9.9 -0.25 -9.75 M0.05 -7.65 L0.1 -7.75 0.2 -7.9 0.3 -8.15 0.4 -8.3 0.5 -8.7 0.65 -8.75 Q0.7 -8.55 0.7 -8.55 L0.75 -8.5 0.6 -8.1 0.55 -8.0 0.4 -7.75 Q0.3 -7.55 0.25 -7.55 L0.25 -7.55 0.1 -7.65 0.05 -7.65 M0.2 -7.2 L0.0 -7.45 -0.1 -7.35 -0.15 -7.25 0.35 -6.8 0.5 -6.65 Q0.85 -6.25 0.85 -5.95 0.85 -5.65 0.7 -5.35 0.6 -5.1 0.4 -5.05 L0.35 -5.0 0.35 -5.0 0.45 -4.85 0.85 -5.25 Q1.1 -5.55 1.1 -5.85 1.1 -6.1 0.75 -6.5 L0.75 -6.55 0.6 -6.7 0.5 -6.85 0.25 -7.1 0.2 -7.2 M-0.85 -15.0 L-0.8 -15.1 -0.6 -15.4 -0.45 -15.35 -0.4 -15.3 -0.65 -14.9 Q-0.75 -14.95 -0.85 -15.0 M-0.3 -14.7 L-0.3 -14.7 -0.4 -14.7 -0.55 -14.8 -0.5 -14.9 -0.4 -15.1 -0.4 -15.1 -0.3 -15.05 -0.25 -15.05 -0.15 -14.95 -0.25 -14.8 -0.25 -14.7 -0.3 -14.7" fill="#ada088" fill-rule="evenodd" stroke="none"/>
    <path d="M-0.35 -30.45 L-0.25 -30.45 -0.2 -30.45 -0.1 -30.4 Q0.0 -30.35 -0.05 -30.2 L0.05 -30.2 0.15 -30.15 0.2 -29.25 0.1 -29.3 0.1 -29.3 0.05 -29.35 Q-0.05 -29.35 -0.1 -29.25 L-0.15 -29.75 -0.15 -29.75 -0.2 -29.05 -0.2 -29.05 -0.3 -28.95 Q-0.35 -28.95 -0.35 -28.95 L-0.4 -28.95 -0.4 -29.55 -0.35 -30.45 M0.85 -19.7 L0.9 -19.55 0.9 -19.35 0.85 -19.3 0.75 -19.25 0.7 -19.25 0.65 -19.25 0.65 -19.25 0.4 -19.25 0.4 -19.4 0.25 -19.9 0.5 -19.95 0.65 -20.0 0.75 -19.85 0.85 -19.7 M0.4 -19.25 L0.4 -19.25 M-0.55 -16.85 L-0.65 -16.85 -0.75 -16.55 -0.75 -16.55 -0.95 -16.5 -1.0 -16.5 -1.0 -16.5 Q-1.15 -16.9 -1.15 -17.35 L-1.15 -17.6 Q-0.95 -17.6 -0.95 -17.45 L-0.9 -17.05 -0.85 -17.05 Q-0.85 -17.7 -0.7 -17.75 L-0.7 -17.7 -0.65 -17.35 -0.55 -17.4 -0.6 -17.1 Q-0.6 -17.0 -0.55 -16.85 M0.55 -11.9 L0.55 -11.8 Q0.55 -11.45 0.45 -11.15 L0.45 -11.1 0.4 -11.05 0.3 -11.0 Q0.2 -11.0 0.2 -11.1 L0.35 -11.5 Q0.45 -11.6 0.4 -11.8 L0.35 -12.0 0.35 -12.05 0.35 -12.0 0.55 -11.9 M0.7 -11.2 L0.75 -11.45 0.8 -11.55 0.8 -11.7 0.85 -11.85 0.8 -11.95 0.85 -11.95 0.95 -11.95 1.05 -11.9 1.05 -11.65 1.0 -11.35 0.95 -11.15 0.95 -11.15 0.9 -11.15 0.9 -11.15 0.85 -11.15 0.8 -11.15 0.75 -11.15 0.7 -11.2 M1.2 -9.35 L1.2 -9.1 1.1 -8.6 1.05 -8.55 1.05 -8.55 0.95 -8.5 0.95 -8.5 0.85 -8.55 0.85 -8.55 0.85 -8.7 0.8 -9.15 0.85 -9.4 0.85 -9.45 1.0 -9.65 1.0 -9.65 1.05 -9.65 1.2 -9.35 M-0.65 -11.8 L-0.65 -11.4 -0.5 -11.2 -0.65 -11.1 -0.8 -11.25 -0.85 -11.5 Q-0.85 -11.7 -0.65 -11.8 M-0.9 -14.95 L-0.85 -15.0 Q-0.75 -14.95 -0.65 -14.9 L-0.6 -14.85 -0.55 -14.8 -0.4 -14.7 -0.3 -14.7 -0.3 -14.7 -0.4 -14.45 -0.45 -14.1 -0.5 -13.9 -0.55 -13.9 -0.55 -13.8 -0.65 -13.95 Q-0.7 -14.05 -0.7 -14.1 L-0.75 -14.0 -0.85 -14.05 -0.9 -14.1 -0.95 -14.1 -1.0 -13.85 -1.05 -13.9 -1.1 -14.3 -1.1 -14.5 -0.95 -14.9 -0.9 -14.95 M-1.15 -11.75 L-1.15 -11.75 -1.1 -11.8 -1.0 -11.8 -0.95 -11.8 -0.85 -11.45 Q-0.8 -11.25 -0.8 -11.15 L-0.95 -11.0 -1.05 -11.15 -1.15 -11.5 -1.15 -11.75" fill="#e2d2b2" fill-rule="evenodd" stroke="none"/>
    <path d="M-0.2 -29.05 L-0.2 -29.05 -0.15 -29.75 -0.15 -29.75 -0.1 -29.25 0.1 -27.7 0.0 -27.4 -0.05 -27.2 -0.15 -27.5 -0.15 -27.55 -0.25 -27.9 -0.2 -29.05 M4.15 -1.05 L4.15 -1.0 4.25 -0.85 3.85 -0.6 3.8 -0.55 Q3.6 -0.45 3.0 -0.3 L2.85 -0.25 2.8 -0.25 2.6 -0.15 2.4 -0.05 2.2 0.05 1.85 0.25 1.7 0.3 1.2 0.4 1.0 0.45 0.9 0.5 Q0.65 0.55 0.55 0.65 L0.45 0.7 0.25 0.85 0.2 0.9 0.1 0.95 -0.2 1.2 Q-0.5 0.9 -0.65 0.65 L-0.7 0.55 -1.3 0.35 -1.55 0.25 -1.6 0.25 -1.75 0.2 Q-2.25 -0.05 -2.35 -0.05 L-2.75 -0.2 -2.9 -0.2 -3.5 -0.4 -4.2 -0.65 -4.35 -0.65 -4.35 -0.75 -4.3 -1.0 -4.25 -1.1 -3.0 -0.5 -3.0 -0.5 -2.8 -0.45 -2.7 -0.4 Q-2.05 -0.15 -1.6 -0.05 L-1.55 0.0 -1.45 0.0 -1.2 0.0 -1.15 0.0 -0.85 -0.05 -0.85 0.0 -0.75 0.0 -0.75 0.0 -0.7 0.0 Q-0.65 -0.05 -0.55 -0.1 -0.4 -0.25 -0.3 -0.55 L-0.25 -0.55 -0.25 -0.6 -0.05 -1.05 0.15 -0.55 0.15 -0.55 Q0.25 -0.3 0.4 -0.15 0.45 -0.05 0.6 0.0 L0.5 0.2 0.55 0.3 0.6 0.3 0.75 0.2 0.8 0.15 0.8 0.2 0.85 0.2 1.1 0.15 1.15 0.15 1.7 0.05 2.35 -0.15 2.55 -0.3 2.85 -0.5 3.0 -0.55 3.1 -0.6 3.7 -0.85 3.7 -0.85 4.15 -1.05 M0.05 -25.15 L0.1 -24.95 0.3 -24.55 0.35 -24.45 0.4 -24.35 0.45 -24.25 0.5 -24.15 0.5 -24.05 0.4 -24.05 0.35 -24.1 0.25 -24.15 0.2 -24.15 Q0.15 -24.15 0.1 -24.1 L0.05 -24.05 0.05 -24.0 Q0.0 -23.55 0.0 -22.85 L0.05 -21.85 0.05 -21.8 Q0.05 -21.35 0.15 -20.95 L0.0 -21.1 -0.15 -21.35 Q-0.25 -21.7 -0.25 -22.3 L-0.25 -22.5 -0.3 -24.15 -0.3 -24.15 -0.45 -24.15 Q-0.6 -24.15 -0.6 -24.25 L-0.3 -24.95 -0.25 -25.1 -0.2 -25.45 Q-0.15 -25.85 -0.05 -25.9 L0.0 -25.7 0.0 -25.4 0.05 -25.15 M0.65 -19.25 L0.65 -19.25 0.7 -19.25 0.7 -19.25 0.65 -19.0 0.55 -18.75 0.3 -18.3 0.05 -18.45 0.05 -18.45 -0.05 -18.5 0.05 -18.6 0.15 -18.65 0.15 -18.65 0.25 -18.55 Q0.35 -18.55 0.5 -18.85 L0.65 -19.25 M0.0 -16.05 L0.15 -16.05 Q0.35 -16.05 0.55 -16.55 L0.55 -16.55 Q0.7 -16.95 0.7 -17.25 L0.7 -17.25 0.6 -17.6 0.5 -17.75 0.3 -17.95 0.05 -18.2 -0.05 -18.35 -0.05 -18.45 0.0 -18.45 0.05 -18.4 0.5 -18.0 0.55 -17.95 Q0.85 -17.7 0.85 -17.3 0.85 -17.1 0.75 -16.85 L0.65 -16.55 0.55 -16.35 0.25 -15.65 -0.05 -16.0 0.0 -16.05 M-0.45 -15.65 L0.0 -15.15 -0.1 -15.0 -0.15 -14.95 -0.15 -14.95 -0.25 -15.05 -0.3 -15.05 -0.4 -15.1 -0.4 -15.1 -0.5 -14.9 -0.55 -14.8 -0.6 -14.85 -0.65 -14.9 -0.4 -15.3 -0.45 -15.35 -0.6 -15.4 -0.45 -15.65 M0.2 -13.3 L0.3 -13.3 0.35 -13.3 Q0.45 -13.3 0.55 -13.7 L0.55 -14.25 0.5 -14.7 0.4 -15.05 0.4 -15.2 Q0.55 -15.1 0.65 -14.9 L0.65 -14.85 0.75 -14.4 0.7 -13.75 0.55 -13.3 0.55 -13.15 0.65 -13.15 0.65 -13.1 0.45 -12.75 0.45 -12.7 0.35 -12.8 0.25 -12.9 0.05 -13.05 0.0 -13.1 0.05 -13.1 0.1 -13.15 0.15 -13.2 0.2 -13.3 M0.55 -11.9 Q0.5 -12.2 0.2 -12.5 L0.2 -12.5 0.15 -12.55 0.1 -12.6 -0.05 -12.75 -0.35 -13.1 -0.35 -13.1 -0.05 -12.95 0.05 -12.85 0.3 -12.7 0.3 -12.65 Q0.6 -12.35 0.75 -12.15 L0.8 -12.05 0.8 -11.95 0.85 -11.85 0.8 -11.7 0.8 -11.55 0.75 -11.45 0.7 -11.2 0.65 -11.05 0.35 -10.3 0.15 -10.45 0.1 -10.5 0.1 -10.5 0.15 -10.6 0.45 -11.1 0.45 -11.15 Q0.55 -11.45 0.55 -11.8 L0.55 -11.9 M0.0 -12.4 L-0.05 -12.35 -0.05 -12.35 -0.35 -12.2 -0.35 -12.25 Q-0.35 -12.25 -0.4 -12.25 L-0.4 -12.25 Q-0.5 -12.25 -0.6 -12.1 -0.7 -11.85 -0.75 -11.8 L-0.8 -11.8 -0.85 -12.0 -0.7 -12.2 -0.6 -12.35 -0.7 -12.6 -0.4 -12.75 -0.4 -12.75 -0.35 -12.7 -0.05 -12.4 -0.05 -12.4 0.0 -12.4 M-0.1 -9.85 L-0.15 -9.85 -0.2 -9.8 -0.25 -9.75 -0.35 -9.9 -0.35 -9.95 -0.4 -9.95 -0.5 -9.95 -0.7 -9.75 Q-0.8 -9.55 -0.8 -9.05 L-0.75 -8.5 Q-0.7 -8.2 -0.6 -7.95 L-0.45 -7.65 -0.25 -7.4 -0.25 -7.35 -0.35 -7.35 -0.45 -7.5 -0.6 -7.75 -0.8 -8.2 -0.8 -8.2 Q-1.0 -8.65 -1.0 -9.2 -1.0 -9.8 -0.7 -10.0 L-0.8 -10.1 -0.75 -10.15 -0.7 -10.25 -0.55 -10.35 -0.5 -10.3 -0.35 -10.15 -0.35 -10.15 -0.05 -9.95 -0.1 -9.85 M-0.05 -7.55 L0.0 -7.6 0.05 -7.65 0.05 -7.65 0.1 -7.65 0.25 -7.55 0.25 -7.55 Q0.3 -7.55 0.4 -7.75 L0.55 -8.0 0.6 -8.1 0.75 -8.5 0.8 -8.45 0.65 -8.05 0.55 -7.85 0.45 -7.6 0.25 -7.25 0.25 -7.25 0.0 -7.5 -0.05 -7.55 M0.2 -7.2 L0.25 -7.1 0.5 -6.85 0.6 -6.7 0.75 -6.55 0.75 -6.5 Q1.1 -6.1 1.1 -5.85 1.1 -5.55 0.85 -5.25 L0.45 -4.85 0.35 -5.0 0.35 -5.0 0.4 -5.05 Q0.6 -5.1 0.7 -5.35 0.85 -5.65 0.85 -5.95 0.85 -6.25 0.5 -6.65 L0.35 -6.8 -0.15 -7.25 -0.1 -7.35 0.0 -7.45 0.2 -7.2 M-0.05 -6.75 L-0.15 -6.65 -0.2 -6.7 -0.35 -6.75 -0.45 -6.75 -0.55 -6.65 -0.65 -6.6 -0.8 -6.35 Q-0.95 -6.0 -0.95 -5.8 L-1.0 -5.8 Q-1.0 -5.45 -0.75 -5.25 L-0.7 -5.2 -0.65 -5.2 -0.25 -4.9 -0.35 -4.85 -0.4 -4.85 -0.65 -4.95 -0.7 -5.0 -1.0 -5.25 Q-1.1 -5.45 -1.1 -5.85 L-1.1 -6.2 -1.0 -6.45 Q-0.9 -6.7 -0.65 -6.75 L-0.6 -6.75 -0.6 -6.8 -0.65 -6.85 -0.7 -6.9 -0.65 -6.95 -0.6 -7.0 -0.55 -7.05 -0.45 -7.2 -0.45 -7.15 -0.25 -6.95 -0.05 -6.75 M0.4 -4.6 L0.6 -4.5 Q0.55 -4.4 0.55 -4.3 L0.8 -3.95 Q1.1 -3.55 1.1 -3.4 1.1 -3.05 0.9 -2.7 0.8 -2.4 0.6 -2.25 L0.5 -2.2 0.4 -2.2 0.4 -2.35 0.55 -2.5 0.75 -2.75 Q0.85 -2.95 0.85 -3.1 0.85 -3.4 0.75 -3.7 L0.75 -3.8 Q0.6 -4.1 0.4 -4.1 L0.35 -4.1 0.35 -4.1 0.3 -4.05 0.0 -4.3 -0.05 -4.35 0.0 -4.35 0.35 -4.55 0.4 -4.6 0.4 -4.6 M-0.95 -2.15 L-0.85 -2.15 -0.8 -2.15 -0.85 -2.3 -0.95 -2.4 -1.05 -2.55 -1.05 -2.6 Q-1.2 -2.8 -1.2 -3.05 -1.2 -3.55 -0.9 -4.05 L-0.9 -4.05 -0.75 -4.25 -0.7 -4.3 -0.15 -4.75 -0.15 -4.6 Q-0.55 -4.4 -0.7 -4.15 L-0.75 -4.1 -0.75 -4.1 Q-0.9 -3.8 -0.9 -3.25 L-0.85 -3.0 -0.8 -2.85 Q-0.7 -2.55 -0.35 -2.3 0.2 -1.8 0.2 -1.6 L0.2 -1.55 Q0.15 -1.45 0.0 -1.45 L-0.2 -1.45 -0.3 -1.5 Q-0.4 -1.55 -0.45 -1.65 L-0.5 -1.75 -0.65 -1.95 -0.9 -2.1 -0.95 -2.15 M0.15 0.15 L0.05 -0.15 Q0.05 -0.25 -0.1 -0.25 -0.2 -0.25 -0.3 -0.05 -0.35 0.15 -0.5 0.15 -0.75 0.25 -0.85 0.25 L-0.85 0.3 Q-0.3 0.35 -0.05 0.75 L0.2 0.6 0.25 0.55 0.4 0.4 0.45 0.35 0.4 0.35 0.25 0.25 0.15 0.15 M-0.3 -21.45 L-0.25 -21.05 Q-0.2 -20.7 -0.05 -20.55 L-0.25 -20.2 Q-0.3 -20.25 -0.35 -20.25 -0.45 -20.25 -0.5 -20.0 L-0.55 -19.85 -0.65 -19.4 -0.6 -19.1 -0.5 -18.9 Q-0.4 -18.6 -0.25 -18.4 -0.35 -18.35 -0.4 -18.35 L-0.6 -18.95 -0.65 -19.1 Q-0.75 -19.5 -0.75 -19.7 -0.75 -19.9 -0.65 -20.1 L-0.65 -20.15 -0.5 -20.35 -0.45 -20.4 -0.5 -20.45 -0.5 -20.5 -0.45 -20.65 -0.3 -21.15 -0.3 -21.45" fill="#8e785f" fill-rule="evenodd" stroke="none"/>
    <path d="M0.25 -27.05 L0.35 -25.85 0.2 -25.75 0.2 -25.8 0.15 -26.3 Q0.1 -26.45 0.25 -27.05 M-2.3 -7.85 Q-1.85 -10.95 -1.4 -15.05 L-1.35 -15.05 -1.35 -14.8 -1.3 -14.8 Q-1.25 -14.75 -1.2 -14.8 L-1.1 -14.5 -1.1 -14.3 -1.05 -13.9 -1.0 -13.8 -1.0 -13.75 -1.25 -13.35 Q-1.6 -12.9 -1.65 -12.55 L-1.7 -11.7 -1.7 -11.0 Q-1.7 -10.8 -1.85 -10.25 L-2.05 -9.7 -1.95 -9.45 -1.9 -9.2 -1.95 -8.75 -2.15 -8.3 -2.3 -7.85 M-0.3 -22.05 L-0.25 -21.65 -0.3 -21.45 -0.3 -21.15 -0.3 -22.05 M-1.1 -12.4 L-1.1 -12.0 -1.15 -11.75 -1.15 -11.5 -1.3 -9.3 -1.35 -9.15 -1.35 -9.1 -1.4 -8.05 -1.4 -7.85 -1.5 -6.25 Q-1.6 -6.35 -1.6 -6.6 L-1.6 -7.35 Q-1.6 -7.5 -1.65 -8.05 L-1.75 -8.5 -1.55 -9.5 Q-1.35 -10.35 -1.35 -10.45 L-1.4 -10.65 Q-1.5 -10.75 -1.5 -10.85 L-1.4 -11.55 Q-1.25 -12.15 -1.1 -12.4" fill="#bd8d5d" fill-rule="evenodd" stroke="none"/>
    <path d="M-0.1 -32.0 L-0.1 -32.05 -0.1 -32.0 M0.35 -25.85 L0.4 -25.3 0.4 -25.15 0.35 -24.9 0.25 -25.4 0.2 -25.45 0.2 -25.75 0.35 -25.85 M-2.85 -4.35 L-2.35 -7.5 -2.3 -7.85 -2.15 -8.3 -1.95 -8.75 -1.9 -9.2 -1.95 -9.45 -2.05 -9.7 -1.85 -10.25 Q-1.7 -10.8 -1.7 -11.0 L-1.7 -11.7 -1.65 -12.55 Q-1.6 -12.9 -1.25 -13.35 L-1.0 -13.75 -1.05 -13.5 -1.05 -12.85 -1.05 -12.75 -1.1 -12.4 -1.1 -12.4 Q-1.25 -12.15 -1.4 -11.55 L-1.5 -10.85 Q-1.5 -10.75 -1.4 -10.65 L-1.35 -10.45 Q-1.35 -10.35 -1.55 -9.5 L-1.75 -8.5 -1.65 -8.05 Q-1.6 -7.5 -1.6 -7.35 L-1.6 -6.6 Q-1.6 -6.35 -1.5 -6.25 L-1.6 -5.15 -1.7 -4.55 -2.0 -4.4 -2.05 -4.6 Q-2.05 -4.8 -1.9 -5.05 -1.8 -5.25 -1.8 -5.5 L-1.85 -6.0 -1.85 -6.1 -1.8 -6.35 -1.65 -6.85 -1.7 -7.15 -1.75 -7.4 -1.7 -7.55 -1.65 -7.75 -1.75 -8.45 Q-2.05 -8.15 -2.25 -7.45 L-2.35 -6.8 -2.25 -6.5 -2.2 -6.4 -2.5 -5.1 Q-2.65 -4.65 -2.85 -4.35 M-1.4 -15.05 L-1.0 -19.35 Q-0.95 -19.05 -0.75 -18.6 L-0.7 -18.55 -0.75 -18.25 -0.75 -18.25 -0.8 -18.2 -1.0 -18.0 Q-1.1 -17.9 -1.15 -17.6 L-1.15 -17.35 Q-1.15 -16.9 -1.0 -16.5 L-0.95 -16.35 -1.0 -15.9 -0.95 -15.3 -0.95 -15.25 -0.9 -15.05 -0.8 -16.05 -0.45 -15.65 -0.6 -15.4 -0.8 -15.1 -0.85 -15.0 -0.9 -14.95 -0.9 -15.0 -0.95 -14.9 -1.1 -14.5 -1.2 -14.8 Q-1.25 -14.75 -1.3 -14.8 L-1.35 -14.8 -1.35 -15.05 -1.4 -15.05 M-1.0 -19.6 L-0.65 -23.7 -0.65 -23.8 Q-0.55 -23.95 -0.45 -23.9 -0.45 -23.2 -0.55 -22.05 -0.65 -21.15 -0.65 -20.3 L-0.65 -20.25 -1.0 -19.6 M-0.6 -24.65 L-0.55 -25.25 -0.5 -25.0 -0.5 -24.95 -0.6 -24.65 M-0.05 -9.9 L-0.1 -9.85 -0.05 -9.95 -0.05 -9.9 M-0.35 -23.35 L-0.3 -23.05 -0.3 -22.15 -0.3 -22.05 -0.3 -21.15 -0.45 -20.65 -0.45 -21.25 -0.4 -21.35 -0.35 -23.35 M-0.65 -18.45 L-0.6 -18.4 -0.55 -18.35 -0.65 -18.3 -0.65 -18.45 M-1.0 -12.25 L-1.0 -12.45 -0.95 -12.55 -0.9 -12.7 -0.95 -12.8 -0.9 -13.4 -0.9 -13.45 -0.85 -13.4 Q-0.75 -13.1 -0.4 -12.75 L-0.7 -12.6 -0.75 -12.55 -0.85 -12.4 -0.95 -12.35 -1.0 -12.25 M-1.05 -11.15 L-0.95 -11.0 -0.9 -10.9 -0.75 -10.6 -0.55 -10.35 -0.7 -10.25 -0.75 -10.15 -0.75 -10.3 Q-0.85 -10.2 -1.0 -9.85 L-1.0 -9.85 -1.0 -9.85 -1.15 -9.65 -1.15 -10.0 -1.05 -11.15 M-1.1 -6.55 Q-1.05 -6.8 -0.95 -7.0 -0.8 -7.3 -0.8 -7.45 L-0.85 -7.6 -0.9 -7.8 -0.9 -7.85 -0.7 -7.55 -0.65 -7.45 -0.6 -7.4 -0.6 -7.0 -0.65 -6.95 -0.7 -6.9 -0.75 -6.85 -0.85 -6.8 -1.1 -6.55" fill="#9a6c4d" fill-rule="evenodd" stroke="none"/>
    <path d="M0.4 -25.15 L0.45 -24.75 0.35 -24.9 0.4 -25.15 M2.25 -7.15 L2.65 -4.8 2.6 -4.8 Q2.5 -4.8 2.3 -4.3 L2.3 -4.3 2.25 -4.35 Q2.2 -4.3 2.2 -4.2 2.2 -3.95 2.35 -4.0 2.5 -4.0 2.5 -3.85 2.5 -3.7 2.3 -3.7 L2.3 -3.65 Q2.3 -3.55 2.9 -2.15 L2.9 -2.1 Q2.55 -2.25 2.2 -2.6 L1.8 -3.0 Q1.9 -2.25 2.15 -1.5 L2.25 -1.25 2.45 -0.6 2.25 -0.45 2.2 -0.45 1.95 -1.1 Q1.65 -2.2 1.6 -3.35 L1.6 -3.6 1.5 -3.6 1.45 -3.65 Q1.5 -3.8 1.55 -3.85 L1.6 -3.65 1.6 -3.6 1.7 -3.55 1.65 -3.75 1.75 -3.95 Q1.75 -4.4 1.5 -6.5 L1.25 -8.55 1.25 -8.7 1.25 -8.75 Q1.35 -8.7 1.5 -8.45 1.65 -8.1 1.8 -7.95 1.9 -7.85 2.05 -7.4 2.1 -7.2 2.25 -7.15 M3.35 1.85 L3.25 1.85 3.05 1.45 2.6 0.4 2.8 0.35 3.15 1.3 3.35 1.85 M-1.25 4.8 L-1.05 4.6 -0.4 4.75 -0.25 5.15 Q-1.05 5.15 -1.25 4.8 M-4.25 1.7 L-4.6 1.65 -4.45 1.5 Q-4.35 1.35 -4.25 1.3 L-4.25 1.2 -4.4 1.25 -4.35 1.15 -4.3 1.0 Q-4.4 0.95 -4.45 0.95 -4.5 0.95 -4.6 1.0 L-4.95 0.7 -5.15 0.5 -4.9 0.35 Q-4.55 0.1 -4.2 -0.3 L-4.1 -0.25 -4.15 0.05 -4.05 0.3 Q-3.9 0.4 -4.0 0.6 L-3.95 0.6 -3.9 0.65 -3.85 0.6 Q-3.8 0.55 -3.75 0.55 -3.7 0.55 -3.7 0.65 L-3.35 0.15 -3.15 0.25 Q-3.35 0.5 -3.75 0.95 L-3.75 1.0 Q-4.15 1.4 -4.25 1.65 L-4.25 1.7 M-3.15 -3.0 L-2.85 -4.35 Q-2.65 -4.65 -2.5 -5.1 L-2.2 -6.4 -2.1 -6.7 -1.95 -6.65 -1.9 -6.25 -1.85 -6.1 -1.85 -6.0 -1.8 -5.5 Q-1.8 -5.25 -1.9 -5.05 -2.05 -4.8 -2.05 -4.6 L-2.0 -4.4 -1.7 -4.55 -1.75 -4.25 -2.0 -3.0 -2.15 -2.3 Q-2.25 -1.8 -2.55 -1.0 L-2.55 -1.0 -2.7 -0.65 -2.85 -0.75 -2.9 -0.75 -2.9 -0.8 Q-2.5 -1.6 -2.3 -2.35 L-2.3 -2.5 -2.45 -2.35 Q-2.5 -2.45 -2.5 -2.6 L-2.5 -2.65 Q-2.5 -2.65 -2.6 -2.65 L-2.65 -2.6 Q-2.75 -2.55 -2.8 -2.6 L-3.1 -2.95 -3.15 -3.0 M-0.55 -25.25 L-0.4 -27.1 -0.4 -27.05 Q-0.25 -26.45 -0.25 -26.3 L-0.3 -25.8 -0.35 -25.45 -0.35 -25.4 -0.5 -24.95 -0.5 -25.0 -0.55 -25.25 M0.4 -23.9 L0.2 -21.15 Q0.15 -21.4 0.15 -21.65 L0.15 -22.1 0.15 -22.2 0.2 -23.05 Q0.2 -23.6 0.3 -23.9 L0.4 -23.9 M0.75 -16.15 L0.75 -15.3 0.8 -14.85 0.65 -15.1 0.6 -15.15 0.6 -15.85 0.75 -16.15 M0.9 -13.6 L0.9 -13.45 0.85 -13.2 0.75 -12.95 0.7 -13.2 0.9 -13.6 M-0.95 -16.35 L-0.8 -16.05 -0.9 -15.05 -0.95 -15.25 -0.95 -15.3 -1.0 -15.9 -0.95 -16.35 M0.75 -12.95 L0.75 -12.95 M1.2 -7.6 L1.35 -7.15 1.3 -7.1 1.25 -7.25 1.2 -7.6 M-0.45 -23.9 L-0.35 -23.35 -0.4 -21.35 -0.45 -21.25 -0.45 -20.65 -0.5 -20.5 -0.65 -20.3 Q-0.65 -21.15 -0.55 -22.05 -0.45 -23.2 -0.45 -23.9 M-0.65 -18.3 L-0.75 -18.25 -0.7 -18.55 -0.65 -18.45 -0.65 -18.3 M-1.1 -12.4 L-1.1 -12.4 -1.05 -12.4 -1.1 -12.4 M-1.3 -5.05 L-1.25 -5.05 -1.05 -4.85 -0.95 -4.85 -0.85 -4.55 -0.85 -4.4 -1.15 -3.95 Q-1.55 -3.4 -1.55 -3.1 -1.55 -2.7 -1.4 -2.45 L-1.3 -2.3 -1.25 -2.2 -1.35 -2.0 -1.45 -1.75 -1.5 -1.6 -1.6 -1.6 -1.7 -1.4 Q-1.75 -1.3 -1.8 -1.3 L-2.0 -1.25 -2.2 -1.15 -2.25 -1.15 -2.3 -1.2 -2.3 -1.3 Q-2.15 -1.6 -2.15 -1.7 -2.15 -1.95 -1.9 -3.05 L-1.85 -3.05 -1.65 -3.3 Q-1.55 -3.45 -1.45 -4.0 L-1.3 -5.05 M-1.35 -0.75 L-1.4 -0.6 -1.45 -0.65 -1.45 -0.9 -1.35 -0.75 M-1.25 -0.7 L-1.25 -0.75 -1.25 -0.7 -1.25 -0.7" fill="#7a5645" fill-rule="evenodd" stroke="none"/>
    <path d="M0.5 -23.8 L0.8 -20.2 0.75 -19.85 0.65 -20.0 0.55 -20.25 Q0.3 -20.6 0.2 -21.0 L0.2 -21.15 0.4 -23.9 0.5 -23.8 M1.55 -12.55 L1.65 -11.85 1.1 -11.4 Q1.1 -11.35 1.2 -11.3 L1.35 -11.25 1.3 -11.15 1.3 -11.0 1.4 -10.95 1.5 -10.85 1.4 -10.75 1.35 -10.65 1.45 -10.45 1.45 -10.4 Q1.2 -10.35 1.1 -10.15 L1.0 -11.0 1.0 -11.35 1.05 -11.65 1.05 -11.9 0.95 -12.15 0.9 -12.2 0.9 -12.3 0.85 -12.85 0.9 -12.85 1.05 -12.8 Q1.4 -12.7 1.55 -12.55 M0.55 -18.45 L0.55 -18.15 0.4 -18.25 0.5 -18.4 0.55 -18.45 M0.65 -13.1 L0.7 -13.2 0.75 -12.95 0.75 -12.9 0.7 -12.85 Q0.65 -12.65 0.65 -12.5 L0.6 -12.5 0.6 -12.55 0.45 -12.75 0.65 -13.1 M0.6 -15.85 L0.6 -15.15 0.35 -15.55 0.6 -15.85 M0.85 -11.0 L0.9 -10.6 0.95 -9.75 0.95 -9.8 0.85 -9.85 0.85 -9.9 0.8 -10.55 0.8 -10.9 0.85 -11.0 M1.0 -8.25 L1.05 -8.45 1.05 -8.4 1.0 -7.55 Q0.95 -7.0 1.0 -6.7 L0.9 -6.6 0.75 -6.8 0.5 -7.0 0.45 -7.1 0.45 -7.35 0.6 -7.55 0.75 -7.85 0.95 -7.8 1.0 -8.1 1.0 -8.25" fill="#956548" fill-rule="evenodd" stroke="none"/>
    <path d="M0.8 -20.2 L0.85 -19.7 0.75 -19.85 0.8 -20.2 M0.9 -19.25 Q1.2 -15.6 1.55 -12.55 1.4 -12.7 1.05 -12.8 L0.9 -12.85 0.85 -12.85 0.85 -13.2 0.9 -13.45 0.9 -13.6 0.95 -14.05 Q1.0 -14.5 0.8 -14.85 L0.75 -15.3 0.75 -16.15 Q1.05 -16.7 1.0 -17.35 L1.0 -17.45 Q1.0 -17.85 0.55 -18.15 L0.55 -18.45 0.6 -18.5 0.9 -19.25 M0.75 -12.95 L0.75 -12.9 0.75 -12.95 0.75 -12.95" fill="#a67756" fill-rule="evenodd" stroke="none"/>
    <path d="M0.15 -20.15 L0.2 -20.0 0.25 -19.9 0.4 -19.4 0.4 -19.25 0.1 -19.05 -0.1 -19.0 -0.15 -19.0 Q-0.4 -19.0 -0.4 -19.55 -0.4 -19.7 -0.2 -19.9 L-0.05 -20.0 0.15 -20.15 M0.4 -19.25 L0.4 -19.25 M0.35 -16.7 L0.2 -16.6 -0.05 -16.5 Q-0.2 -16.5 -0.3 -16.65 L-0.35 -17.05 -0.35 -17.1 Q-0.35 -17.35 -0.3 -17.45 L-0.2 -17.55 -0.05 -17.55 0.0 -17.55 0.25 -17.5 0.3 -17.4 Q0.45 -17.15 0.45 -17.05 L0.4 -16.75 0.35 -16.7 0.35 -16.7 M-0.4 -13.55 L-0.35 -13.7 -0.3 -13.8 Q-0.2 -14.0 -0.1 -14.0 L-0.1 -14.0 Q0.0 -14.0 0.25 -13.9 L0.15 -13.55 0.1 -13.35 0.0 -13.25 0.0 -13.25 -0.1 -13.3 -0.3 -13.45 -0.35 -13.5 -0.4 -13.55 M0.15 -14.7 L0.2 -14.7 0.2 -14.7 0.25 -14.5 0.25 -14.25 Q0.15 -14.05 0.05 -14.05 L-0.1 -14.1 Q-0.25 -14.2 -0.25 -14.4 -0.25 -14.55 -0.15 -14.65 L-0.1 -14.65 0.05 -14.7 0.15 -14.7 M0.35 -11.5 Q0.25 -11.4 0.1 -11.4 L0.0 -11.35 -0.15 -11.35 Q-0.25 -11.35 -0.35 -11.55 L-0.35 -11.65 -0.4 -11.8 -0.35 -11.9 -0.25 -12.05 -0.2 -12.1 0.0 -12.2 0.05 -12.2 0.1 -12.25 0.15 -12.1 0.4 -11.8 0.4 -11.75 0.35 -11.5 M0.1 -9.55 L0.15 -9.5 0.3 -9.4 Q0.5 -9.2 0.5 -9.0 L0.3 -8.85 0.3 -8.85 0.15 -8.75 -0.05 -8.75 Q-0.35 -8.75 -0.35 -8.9 L-0.25 -9.3 Q-0.15 -9.55 0.0 -9.55 L0.1 -9.55 M0.3 -5.8 L0.25 -5.75 Q0.05 -5.6 -0.1 -5.6 L-0.4 -5.65 -0.5 -5.7 Q-0.5 -6.0 -0.4 -6.2 L-0.35 -6.25 Q-0.25 -6.4 -0.15 -6.4 L-0.1 -6.4 Q0.2 -6.4 0.3 -6.3 0.35 -6.2 0.4 -5.9 L0.3 -5.8 M0.1 -4.05 L0.25 -4.0 0.3 -3.95 0.35 -3.95 0.4 -3.85 0.6 -3.6 0.45 -3.45 0.35 -3.35 0.35 -3.35 0.25 -3.25 Q0.1 -3.15 -0.25 -3.15 L-0.35 -3.2 -0.35 -3.4 -0.3 -3.7 -0.3 -3.75 Q-0.25 -4.1 0.05 -4.1 L0.1 -4.05" fill="#743877" fill-rule="evenodd" stroke="none"/>
    <path d="M0.4 -19.25 L0.4 -19.25 0.4 -19.25 0.4 -19.25 M0.4 -16.75 L0.35 -16.7 0.35 -16.7 0.4 -16.75 M0.35 -11.5 L0.4 -11.75 0.4 -11.8 Q0.45 -11.6 0.35 -11.5 M1.05 -8.55 L1.05 -8.55 1.1 -8.6 1.1 -8.55 1.05 -8.55 1.05 -8.55" fill="#a8ad9c" fill-rule="evenodd" stroke="none"/>
    <path d="M0.15 -20.15 L-0.05 -20.0 -0.2 -19.9 Q-0.4 -19.7 -0.4 -19.55 -0.4 -19.0 -0.15 -19.0 L-0.1 -19.0 0.1 -19.05 0.4 -19.25 0.3 -18.95 0.2 -18.75 0.15 -18.65 0.05 -18.6 -0.05 -18.5 -0.1 -18.55 -0.45 -18.85 -0.5 -19.15 -0.55 -19.4 Q-0.55 -19.55 -0.35 -20.0 L-0.25 -20.2 -0.05 -20.55 -0.05 -20.55 0.15 -20.15 M0.0 -16.05 L-0.05 -16.0 -0.05 -16.05 -0.15 -16.15 -0.2 -16.2 -0.4 -16.5 -0.4 -16.5 -0.55 -16.85 Q-0.6 -17.0 -0.6 -17.1 L-0.55 -17.4 -0.55 -17.45 -0.5 -17.6 -0.15 -17.95 -0.15 -17.95 0.0 -17.8 0.05 -17.75 0.25 -17.5 0.0 -17.55 -0.05 -17.55 -0.2 -17.55 -0.3 -17.45 Q-0.35 -17.35 -0.35 -17.1 L-0.35 -17.05 -0.3 -16.65 Q-0.2 -16.5 -0.05 -16.5 L0.2 -16.6 0.35 -16.7 0.25 -16.5 0.0 -16.05 M0.0 -15.15 L0.05 -15.1 0.25 -14.85 Q0.45 -14.5 0.45 -14.15 L0.4 -13.75 0.35 -13.6 0.2 -13.3 0.15 -13.2 0.1 -13.15 0.05 -13.1 0.0 -13.1 0.0 -13.1 -0.05 -13.15 -0.3 -13.45 -0.1 -13.3 0.0 -13.25 0.0 -13.25 0.1 -13.35 0.15 -13.55 0.25 -13.9 Q0.0 -14.0 -0.1 -14.0 L-0.1 -14.0 Q-0.2 -14.0 -0.3 -13.8 L-0.35 -13.7 -0.4 -13.55 -0.4 -13.6 -0.45 -13.65 -0.5 -13.9 -0.45 -14.1 -0.4 -14.45 -0.3 -14.7 -0.25 -14.7 -0.25 -14.8 -0.15 -14.95 -0.15 -14.95 -0.1 -15.0 0.0 -15.15 M0.15 -14.7 L0.05 -14.7 -0.1 -14.65 -0.15 -14.65 Q-0.25 -14.55 -0.25 -14.4 -0.25 -14.2 -0.1 -14.1 L0.05 -14.05 Q0.15 -14.05 0.25 -14.25 L0.25 -14.5 0.2 -14.7 0.2 -14.7 0.15 -14.7 M0.4 -11.8 L0.15 -12.1 0.1 -12.25 0.05 -12.2 0.0 -12.2 -0.2 -12.1 -0.25 -12.05 -0.35 -11.9 -0.4 -11.8 -0.35 -11.65 -0.35 -11.55 Q-0.25 -11.35 -0.15 -11.35 L0.0 -11.35 0.1 -11.4 Q0.25 -11.4 0.35 -11.5 L0.2 -11.1 0.1 -10.95 0.0 -10.85 0.0 -10.8 -0.1 -10.7 -0.15 -10.75 -0.35 -10.95 -0.45 -11.1 -0.5 -11.2 -0.65 -11.4 -0.65 -11.8 -0.6 -11.85 -0.4 -12.1 -0.35 -12.15 -0.35 -12.2 -0.05 -12.35 -0.05 -12.35 0.0 -12.4 0.1 -12.3 0.3 -12.05 0.35 -12.05 0.35 -12.0 0.4 -11.8 M0.1 -9.55 L0.0 -9.55 Q-0.15 -9.55 -0.25 -9.3 L-0.35 -8.9 Q-0.35 -8.75 -0.05 -8.75 L0.15 -8.75 0.3 -8.85 0.3 -8.85 0.5 -9.0 Q0.5 -9.2 0.3 -9.4 L0.15 -9.5 0.1 -9.55 M-0.05 -9.9 L0.05 -9.85 0.05 -9.8 0.15 -9.75 0.2 -9.7 0.4 -9.45 Q0.55 -9.25 0.55 -9.05 L0.55 -9.0 0.5 -8.7 0.4 -8.3 0.3 -8.15 0.2 -7.9 0.1 -7.75 0.05 -7.65 0.05 -7.65 0.0 -7.6 -0.05 -7.55 -0.3 -7.9 -0.35 -7.9 -0.35 -7.95 -0.4 -8.05 -0.45 -8.15 -0.6 -8.45 -0.65 -8.95 -0.65 -9.25 -0.55 -9.45 -0.35 -9.65 -0.3 -9.7 -0.25 -9.75 -0.2 -9.8 -0.15 -9.85 -0.1 -9.85 -0.05 -9.9 M-0.05 -6.75 L0.15 -6.6 0.15 -6.6 0.3 -6.45 0.5 -6.2 0.6 -5.9 0.65 -5.9 0.65 -5.75 0.45 -5.4 0.3 -5.3 -0.05 -5.0 -0.15 -5.05 Q-0.5 -5.3 -0.6 -5.5 L-0.7 -5.6 -0.75 -5.85 -0.75 -5.85 -0.75 -5.95 -0.65 -6.1 -0.6 -6.2 -0.5 -6.35 -0.45 -6.4 -0.4 -6.45 -0.2 -6.6 -0.15 -6.65 -0.05 -6.75 M0.3 -5.8 L0.4 -5.9 Q0.35 -6.2 0.3 -6.3 0.2 -6.4 -0.1 -6.4 L-0.15 -6.4 Q-0.25 -6.4 -0.35 -6.25 L-0.4 -6.2 Q-0.5 -6.0 -0.5 -5.7 L-0.4 -5.65 -0.1 -5.6 Q0.05 -5.6 0.25 -5.75 L0.3 -5.8 M-0.05 -4.35 L0.0 -4.3 0.3 -4.05 0.35 -4.0 0.4 -3.9 0.6 -3.65 0.65 -3.6 0.65 -3.35 Q0.65 -3.15 0.5 -2.9 L0.5 -2.85 0.35 -2.7 0.35 -2.65 -0.05 -2.2 -0.45 -2.65 Q-0.75 -3.0 -0.8 -3.25 L-0.8 -3.4 -0.75 -3.5 -0.75 -3.5 -0.6 -3.8 -0.45 -4.05 -0.15 -4.3 -0.05 -4.35 M0.1 -4.05 L0.05 -4.1 Q-0.25 -4.1 -0.3 -3.75 L-0.3 -3.7 -0.35 -3.4 -0.35 -3.2 -0.25 -3.15 Q0.1 -3.15 0.25 -3.25 L0.35 -3.35 0.35 -3.35 0.45 -3.45 0.6 -3.6 0.4 -3.85 0.35 -3.95 0.3 -3.95 0.25 -4.0 0.1 -4.05" fill="#3d2851" fill-rule="evenodd" stroke="none"/>
    <path d="M0.45 -12.7 L0.45 -12.75 0.6 -12.55 0.6 -12.5 0.45 -12.7 M0.8 -10.9 L0.8 -10.55 0.85 -9.9 0.7 -10.05 0.35 -10.3 0.4 -10.35 0.8 -10.9 M0.75 -7.85 L0.9 -8.1 1.0 -8.25 1.0 -8.1 0.95 -7.8 0.75 -7.85" fill="#a37250" fill-rule="evenodd" stroke="none"/>
    <path d="M3.2 -2.2 L3.25 -2.0 Q3.4 -1.45 3.6 -1.05 L3.35 -1.0 3.0 -0.85 2.95 -1.0 Q2.8 -1.3 2.8 -1.4 L2.8 -1.9 2.95 -1.75 3.0 -1.75 Q3.05 -2.05 3.15 -2.15 L3.2 -2.2 M4.05 -0.35 L4.05 -0.3 3.9 -0.2 4.05 -0.35 M4.65 0.25 L4.8 0.35 Q5.55 0.8 5.55 1.05 5.55 1.45 4.0 1.75 L3.35 1.85 3.15 1.3 Q3.35 0.95 3.75 0.7 L4.65 0.25 M1.3 2.4 L0.75 4.35 0.65 4.35 Q0.6 4.35 0.5 4.4 0.35 4.1 0.35 3.95 0.35 3.75 0.55 2.95 L0.7 2.45 1.3 2.4 M1.1 5.15 L1.1 5.5 Q1.0 5.7 0.6 5.75 L0.45 5.8 -0.05 5.8 -0.75 5.75 Q-1.1 5.7 -1.25 5.5 L-1.25 5.25 -0.75 5.45 Q-0.3 5.6 0.0 5.6 L0.35 5.5 0.7 5.35 1.1 5.15 M-1.0 4.55 L-0.85 4.4 -1.0 3.9 -0.8 3.45 -0.95 2.45 -0.75 2.45 Q-0.65 2.8 -0.55 3.9 -0.55 4.4 -0.45 4.7 L-0.55 4.65 Q-0.7 4.45 -0.8 4.45 L-1.0 4.55 M-1.05 3.65 L-1.4 2.5 -1.25 2.65 Q-1.0 2.95 -1.0 3.35 L-1.05 3.6 -1.05 3.65 M0.85 -13.2 L0.85 -12.85 0.9 -12.3 0.9 -12.2 0.75 -12.35 0.75 -12.9 0.75 -12.95 0.85 -13.2 M1.1 -10.15 L1.2 -9.35 1.05 -9.65 1.0 -9.75 0.95 -10.15 0.95 -10.15 0.95 -10.35 0.9 -11.05 0.9 -11.15 0.95 -11.15 0.95 -11.15 1.0 -11.35 1.0 -11.0 1.1 -10.15 M1.2 -9.1 L1.25 -8.7 1.25 -8.55 1.5 -6.5 Q1.75 -4.4 1.75 -3.95 L1.65 -3.75 Q1.55 -4.5 1.55 -5.2 1.55 -5.85 1.45 -6.7 L1.35 -7.15 1.2 -7.6 1.1 -8.55 1.1 -8.6 1.2 -9.1 M1.35 -3.35 Q1.35 -3.45 1.45 -3.6 L1.45 -3.65 1.5 -3.6 1.6 -3.6 1.6 -3.35 Q1.65 -2.2 1.95 -1.1 L1.9 -1.1 Q1.85 -1.0 1.8 -1.0 L1.95 -0.35 1.7 -0.3 1.4 -0.35 1.45 -0.5 1.3 -1.7 1.35 -1.95 1.4 -2.25 1.4 -2.8 1.4 -3.1 1.35 -3.35 M2.15 -1.5 L2.5 -1.1 2.8 -0.8 2.7 -0.75 2.45 -0.6 2.25 -1.25 2.15 -1.5 M-0.65 -1.95 L-0.5 -1.75 -0.5 -1.65 Q-0.5 -1.25 -0.65 -0.95 L-0.75 -0.85 -0.7 -1.35 -0.65 -1.95 M0.5 -1.05 Q0.35 -1.35 0.35 -1.65 0.35 -1.85 0.6 -2.0 L0.5 -1.05 M1.8 0.65 L1.75 0.85 Q1.65 1.25 1.45 1.25 L1.4 1.15 1.3 1.1 Q1.25 1.2 1.25 1.3 L1.25 1.45 Q1.25 1.55 1.2 1.65 L1.05 1.7 Q0.9 1.7 0.65 1.15 L0.6 1.1 Q1.1 0.85 1.8 0.65 M0.2 1.3 Q0.15 1.5 -0.2 1.65 -0.5 1.85 -0.7 1.85 L-0.95 1.8 -1.0 1.75 -1.4 1.75 -1.55 1.4 Q-1.45 1.5 -1.25 1.55 L-0.95 1.55 Q-0.85 1.55 -0.3 1.3 L-0.05 1.4 0.2 1.3 M-0.35 4.6 L-0.45 4.4 -0.3 2.5 0.15 2.45 Q0.25 2.5 0.25 2.75 L0.1 3.7 Q0.1 3.85 0.35 4.45 L0.05 4.3 Q0.0 4.3 -0.15 4.45 L-0.35 4.6 M-1.1 -0.5 L-1.2 -0.45 -1.25 -0.7 -0.95 -0.6 -1.1 -0.5" fill="#5c4137" fill-rule="evenodd" stroke="none"/>
    <path d="M1.65 -11.85 Q1.95 -9.25 2.25 -7.15 2.1 -7.2 2.05 -7.4 1.9 -7.85 1.8 -7.95 1.65 -8.1 1.5 -8.45 1.35 -8.7 1.25 -8.75 L1.25 -8.7 1.2 -9.1 1.2 -9.35 1.1 -10.15 Q1.2 -10.35 1.45 -10.4 L1.45 -10.45 1.35 -10.65 1.4 -10.75 1.5 -10.85 1.4 -10.95 1.3 -11.0 1.3 -11.15 1.35 -11.25 1.2 -11.3 Q1.1 -11.35 1.1 -11.4 L1.65 -11.85 M0.75 -12.35 L0.7 -12.45 0.65 -12.5 Q0.65 -12.65 0.7 -12.85 L0.75 -12.9 0.75 -12.35 M0.9 -11.05 L0.95 -10.35 0.95 -10.15 0.95 -10.15 1.0 -9.75 0.95 -9.75 0.9 -10.6 0.85 -11.0 0.9 -11.05 M1.05 -8.45 L1.1 -8.55 1.1 -8.6 1.1 -8.55 1.2 -7.6 1.25 -7.25 1.3 -7.1 Q1.5 -5.3 1.55 -3.85 1.5 -3.8 1.45 -3.65 L1.45 -3.6 Q1.35 -3.45 1.35 -3.35 L1.05 -3.95 0.85 -4.25 0.6 -4.5 0.4 -4.6 1.05 -4.95 1.15 -5.05 Q1.4 -5.2 1.4 -5.6 1.35 -6.1 0.9 -6.6 L1.0 -6.7 Q0.95 -7.0 1.0 -7.55 L1.05 -8.4 1.05 -8.45 M0.65 -5.9 L0.6 -5.9 0.65 -5.95 0.65 -5.9 M1.4 -2.8 L1.4 -2.25 1.35 -1.95 1.3 -1.7 1.45 -0.5 1.4 -0.35 1.1 -0.45 0.8 -0.7 0.55 -0.95 0.5 -1.05 0.6 -2.0 0.9 -2.2 Q1.3 -2.35 1.4 -2.8 M-0.9 -14.95 L-0.95 -14.9 -0.9 -15.0 -0.9 -14.95 M-1.0 -13.75 L-1.0 -13.8 -0.95 -13.55 -0.9 -13.45 -0.9 -13.4 -0.95 -12.8 -1.0 -12.8 -1.05 -12.85 -1.05 -13.5 -1.0 -13.75 M-0.55 -7.35 L-0.5 -7.25 -0.45 -7.2 -0.55 -7.05 -0.55 -7.35 M-0.65 -4.7 L-0.6 -4.65 -0.7 -4.6 -0.65 -4.7" fill="#78523f" fill-rule="evenodd" stroke="none"/>
    <path d="M1.0 -9.75 L1.05 -9.65 1.0 -9.65 1.0 -9.65 0.85 -9.45 0.85 -9.4 0.8 -9.15 0.85 -8.7 0.85 -8.55 0.85 -8.55 0.95 -8.5 0.95 -8.5 1.05 -8.55 1.0 -8.5 0.95 -8.45 0.9 -8.45 0.8 -8.45 0.75 -8.5 0.7 -8.55 Q0.7 -8.55 0.65 -8.75 L0.5 -8.7 0.55 -9.0 0.55 -9.05 Q0.55 -9.25 0.4 -9.45 L0.6 -9.45 0.65 -9.65 0.7 -9.65 Q0.8 -9.6 0.85 -9.6 L0.85 -9.65 0.9 -9.75 0.95 -9.8 0.95 -9.75 1.0 -9.75 M-0.65 -0.95 L-0.65 -0.9 -0.4 -1.0 -0.4 -0.8 Q-0.35 -0.8 -0.3 -0.65 L-0.25 -0.6 -0.25 -0.55 -0.3 -0.55 Q-0.4 -0.25 -0.55 -0.1 L-0.6 -0.3 Q-0.7 -0.3 -0.75 -0.35 L-0.8 -0.4 -1.0 -0.3 -1.1 -0.5 -0.95 -0.6 -0.9 -0.7 -0.75 -0.85 -0.65 -0.95 M0.15 -0.55 L0.15 -0.75 0.2 -0.9 0.3 -0.85 0.35 -1.0 0.5 -1.0 0.5 -1.0 0.55 -0.95 0.8 -0.7 1.1 -0.45 0.95 -0.35 0.85 -0.25 0.8 -0.25 Q0.8 -0.35 0.7 -0.45 L0.55 -0.6 0.55 -0.45 0.6 -0.35 0.65 -0.3 0.7 -0.2 0.65 -0.15 0.55 -0.15 0.5 -0.3 0.4 -0.3 0.4 -0.15 Q0.25 -0.3 0.15 -0.55 L0.15 -0.55 M1.2 0.4 L0.85 0.7 0.5 0.9 0.45 0.95 0.35 0.95 0.25 0.95 0.2 0.9 0.25 0.85 0.45 0.7 0.55 0.65 Q0.65 0.55 0.9 0.5 L1.0 0.45 1.2 0.4" fill="#c9ba9e" fill-rule="evenodd" stroke="none"/>
    <path d="M0.45 -7.35 L0.45 -7.1 0.5 -7.0 0.4 -7.1 0.35 -7.2 0.4 -7.3 0.45 -7.35 M1.35 -7.15 L1.45 -6.7 Q1.55 -5.85 1.55 -5.2 1.55 -4.5 1.65 -3.75 L1.7 -3.55 1.6 -3.6 1.6 -3.65 1.55 -3.85 Q1.5 -5.3 1.3 -7.1 L1.35 -7.15 M-0.9 -2.1 L-0.65 -1.95 -0.7 -1.35 -0.75 -0.85 -0.9 -0.7 -0.95 -0.6 -1.25 -0.7 -1.25 -0.75 -1.25 -0.85 -0.9 -2.1" fill="#69493b" fill-rule="evenodd" stroke="none"/>
    <path d="M2.65 -4.8 Q2.9 -3.35 3.2 -2.2 L3.15 -2.15 Q3.05 -2.05 3.0 -1.75 L2.95 -1.75 2.8 -1.9 2.8 -1.4 Q2.8 -1.3 2.95 -1.0 L3.0 -0.85 2.8 -0.8 2.5 -1.1 2.15 -1.5 Q1.9 -2.25 1.8 -3.0 L2.2 -2.6 Q2.55 -2.25 2.9 -2.1 L2.9 -2.15 Q2.3 -3.55 2.3 -3.65 L2.3 -3.7 Q2.5 -3.7 2.5 -3.85 2.5 -4.0 2.35 -4.0 2.2 -3.95 2.2 -4.2 2.2 -4.3 2.25 -4.35 L2.3 -4.3 2.3 -4.3 Q2.5 -4.8 2.6 -4.8 L2.65 -4.8 M0.75 4.35 L0.7 4.4 1.1 4.8 Q1.0 4.95 0.75 5.05 L0.55 4.55 0.5 4.45 0.5 4.4 Q0.6 4.35 0.65 4.35 L0.75 4.35 M-1.05 4.6 L-1.0 4.55 -0.8 4.45 Q-0.7 4.45 -0.55 4.65 L-0.45 4.7 -0.4 4.75 -1.05 4.6 M-0.35 4.6 L-0.15 4.45 Q0.0 4.3 0.05 4.3 L0.35 4.45 0.6 5.1 0.0 5.15 -0.25 4.8 -0.25 4.75 -0.25 4.75 -0.35 4.6" fill="#794e38" fill-rule="evenodd" stroke="none"/>
    <path d="M4.05 -0.3 Q4.3 0.0 4.65 0.25 L3.75 0.7 Q3.35 0.95 3.15 1.3 L2.8 0.35 Q3.55 0.05 3.9 -0.2 L4.05 -0.3 M3.25 1.85 L2.05 1.95 1.4 2.0 1.3 2.4 0.7 2.45 0.55 2.95 Q0.35 3.75 0.35 3.95 0.35 4.1 0.5 4.4 L0.5 4.45 0.55 4.55 0.75 5.05 Q1.0 4.95 1.1 4.8 L1.1 5.15 0.7 5.35 0.35 5.5 0.0 5.6 Q-0.3 5.6 -0.75 5.45 L-1.25 5.25 -1.25 4.8 Q-1.05 5.15 -0.25 5.15 L-0.4 4.75 -0.45 4.7 Q-0.55 4.4 -0.55 3.9 -0.65 2.8 -0.75 2.45 L-0.95 2.45 -0.8 3.45 -1.0 3.9 -1.05 3.65 -1.05 3.6 -1.0 3.35 Q-1.0 2.95 -1.25 2.65 L-1.4 2.5 -1.55 2.0 -1.0 2.0 -0.35 2.0 0.0 2.0 0.15 2.0 0.2 2.0 0.5 2.0 0.45 1.15 0.6 1.1 0.65 1.15 Q0.9 1.7 1.05 1.7 L1.2 1.65 Q1.25 1.55 1.25 1.45 L1.25 1.3 Q1.25 1.2 1.3 1.1 L1.4 1.15 1.45 1.25 Q1.65 1.25 1.75 0.85 L1.8 0.65 2.1 0.55 2.2 0.5 2.6 0.4 3.05 1.45 3.25 1.85 M0.35 12.8 L0.45 12.95 0.5 13.2 0.45 13.45 Q0.25 13.55 0.05 13.55 L0.0 12.9 Q0.15 12.75 0.3 12.75 0.3 12.75 0.35 12.8 M0.5 13.7 L0.65 13.95 0.75 14.15 0.4 14.35 0.35 14.2 Q0.25 14.0 0.25 13.8 0.4 13.75 0.45 13.7 L0.5 13.7 M-0.6 13.55 L-0.6 13.5 -0.65 13.2 -0.6 12.95 -0.5 12.8 -0.45 12.75 -0.4 12.75 -0.45 13.0 -0.5 13.4 -0.5 13.65 -0.6 13.55 M1.95 -0.35 L1.8 -1.0 Q1.85 -1.0 1.9 -1.1 L1.95 -1.1 2.2 -0.45 2.1 -0.4 1.95 -0.35 M0.35 4.45 Q0.1 3.85 0.1 3.7 L0.25 2.75 Q0.25 2.5 0.15 2.45 L-0.3 2.5 -0.45 4.4 -0.35 4.6 -0.25 4.75 -0.25 4.75 -0.25 4.8 0.0 5.15 0.6 5.1 0.35 4.45 M0.05 5.15 L0.0 5.15 0.05 5.2 0.05 5.15 M-0.4 7.9 Q-0.65 7.3 -0.65 6.9 -0.65 6.65 -0.55 6.45 L-0.4 6.15 Q-0.35 6.15 -0.15 6.2 L0.1 6.3 0.2 6.25 0.45 6.15 0.5 6.75 Q0.5 7.0 0.35 7.65 L0.25 8.15 0.3 7.45 0.25 7.25 Q0.2 7.0 0.2 6.8 L0.2 6.55 -0.1 6.45 Q-0.3 6.45 -0.3 6.9 L-0.25 7.35 Q-0.25 7.5 -0.4 7.8 L-0.4 7.9 M0.2 8.45 L0.2 8.55 Q0.2 8.85 0.3 8.95 0.35 9.1 0.35 9.25 L0.25 9.95 0.05 10.2 -0.1 10.2 Q-0.15 10.0 -0.3 9.85 L-0.35 9.95 Q-0.4 10.05 -0.35 10.1 -0.55 9.9 -0.65 9.45 L-0.7 8.85 -0.65 8.3 Q-0.6 7.95 -0.45 7.95 L-0.5 8.1 -0.45 8.25 -0.35 8.4 -0.4 8.5 -0.45 8.6 -0.2 9.35 -0.25 9.6 -0.25 9.65 Q0.0 9.45 0.15 8.75 L0.2 8.45 M-0.15 13.9 L-0.2 14.3 Q-0.75 14.2 -0.75 14.1 L-0.75 14.0 Q-0.7 13.9 -0.6 13.9 -0.55 13.9 -0.55 13.95 L-0.45 14.0 -0.15 13.9" fill="#49352c" fill-rule="evenodd" stroke="none"/>
    <path d="M0.15 0.15 L0.25 0.25 0.4 0.35 0.45 0.35 0.4 0.4 0.25 0.55 0.2 0.6 -0.05 0.75 Q-0.3 0.35 -0.85 0.3 L-0.85 0.25 Q-0.75 0.25 -0.5 0.15 -0.35 0.15 -0.3 -0.05 -0.2 -0.25 -0.1 -0.25 0.05 -0.25 0.05 -0.15 L0.15 0.15" fill="#695846" fill-rule="evenodd" stroke="none"/>
    <path d="M-1.55 2.0 L-1.75 2.0 Q-1.75 1.45 -1.65 0.85 L-1.55 1.25 -1.55 1.4 -1.4 1.75 -1.0 1.75 -0.95 1.8 -0.7 1.85 Q-0.5 1.85 -0.2 1.65 0.15 1.5 0.2 1.3 L0.45 1.15 0.5 2.0 0.2 2.0 0.15 2.0 0.0 2.0 -0.35 2.0 -1.0 2.0 -1.55 2.0 M-2.15 1.95 L-3.1 1.9 -2.35 1.05 -2.0 0.6 -1.75 0.7 -2.15 1.95 M-1.5 -0.35 L-1.45 -0.65 -1.4 -0.6 -1.4 -0.5 -1.45 -0.35 -1.5 -0.35" fill="#4f3a33" fill-rule="evenodd" stroke="none"/>
    <path d="M0.6 5.75 L0.7 8.9 0.35 12.8 Q0.3 12.75 0.3 12.75 0.15 12.75 0.0 12.9 L0.0 12.9 -0.05 12.95 -0.4 12.75 -0.45 12.75 -0.5 12.8 -0.85 8.9 -0.75 5.75 -0.05 5.8 0.45 5.8 0.6 5.75 M0.45 13.45 L0.45 13.5 0.5 13.7 0.45 13.7 Q0.4 13.75 0.25 13.8 L0.05 13.85 -0.15 13.9 -0.45 14.0 -0.55 13.95 Q-0.55 13.9 -0.6 13.9 -0.7 13.9 -0.75 14.0 L-0.75 14.1 Q-0.75 14.2 -0.2 14.3 L0.35 14.35 0.4 14.35 0.75 14.15 0.75 14.2 0.8 14.3 0.7 14.5 0.55 14.55 0.35 14.6 0.15 14.65 Q0.0 14.7 -0.05 14.75 L-0.25 14.65 -0.7 14.55 -0.85 14.5 -0.95 14.3 -0.9 14.2 -0.75 13.95 Q-0.6 13.7 -0.6 13.55 L-0.5 13.65 -0.25 13.7 -0.15 13.7 Q-0.05 13.65 -0.05 13.5 L0.05 13.55 Q0.25 13.55 0.45 13.45 M0.25 8.15 L0.35 7.65 Q0.5 7.0 0.5 6.75 L0.45 6.15 0.2 6.25 0.1 6.3 -0.15 6.2 Q-0.35 6.15 -0.4 6.15 L-0.55 6.45 Q-0.65 6.65 -0.65 6.9 -0.65 7.3 -0.4 7.9 -0.4 7.95 -0.45 7.95 L-0.45 7.95 Q-0.6 7.95 -0.65 8.3 L-0.7 8.85 -0.65 9.45 Q-0.55 9.9 -0.35 10.1 -0.4 10.05 -0.35 9.95 L-0.3 9.85 Q-0.15 10.0 -0.1 10.2 L0.05 10.2 0.25 9.95 0.35 9.25 Q0.35 9.1 0.3 8.95 0.2 8.85 0.2 8.55 L0.2 8.45 0.25 8.15" fill="#352720" fill-rule="evenodd" stroke="none"/>
    <path d="M0.25 8.15 L0.2 8.45 0.15 8.75 Q0.0 9.45 -0.25 9.65 L-0.25 9.6 -0.2 9.35 -0.45 8.6 -0.4 8.5 -0.35 8.4 -0.45 8.25 -0.5 8.1 -0.45 7.95 -0.45 7.95 Q-0.4 7.95 -0.4 7.9 L-0.4 7.8 Q-0.25 7.5 -0.25 7.35 L-0.3 6.9 Q-0.3 6.45 -0.1 6.45 L0.2 6.55 0.2 6.8 Q0.2 7.0 0.25 7.25 L0.3 7.45 0.25 8.15 M0.0 12.9 L0.05 13.55 -0.05 13.5 Q-0.05 13.65 -0.15 13.7 L-0.25 13.7 -0.5 13.65 -0.5 13.4 -0.45 13.0 -0.4 12.75 -0.05 12.95 0.0 12.9 0.0 12.9 M-0.15 13.9 L0.05 13.85 0.25 13.8 Q0.25 14.0 0.35 14.2 L0.4 14.35 0.35 14.35 -0.2 14.3 -0.15 13.9" fill="#664a3e" fill-rule="evenodd" stroke="none"/>
    <path d="M-1.1 -12.4 L-1.05 -12.75 -1.05 -12.85 -1.0 -12.8 -0.95 -12.8 -0.9 -12.7 -0.95 -12.55 -1.0 -12.45 -1.0 -12.25 -1.1 -12.0 -1.1 -12.4 -1.05 -12.4 -1.1 -12.4 M-1.15 -11.5 L-1.05 -11.15 -1.15 -10.0 -1.15 -9.65 Q-1.3 -9.5 -1.3 -9.3 L-1.15 -11.5 M-1.4 -7.85 L-1.4 -8.05 -1.35 -9.1 -1.25 -8.65 -1.3 -7.4 -1.3 -6.7 -1.3 -7.0 -1.4 -7.85" fill="#6e4227" fill-rule="evenodd" stroke="none"/>
    <path d="M-0.75 -10.15 L-0.8 -10.1 -1.0 -9.85 Q-0.85 -10.2 -0.75 -10.3 L-0.75 -10.15 M-2.2 -6.4 L-2.25 -6.5 -2.35 -6.8 -2.25 -7.45 Q-2.05 -8.15 -1.75 -8.45 L-1.65 -7.75 -1.7 -7.55 -1.75 -7.4 -1.7 -7.15 -1.65 -6.85 -1.8 -6.35 -1.85 -6.1 -1.9 -6.25 -1.95 -6.65 -2.1 -6.7 -2.2 -6.4 M-1.25 -8.65 L-1.2 -8.55 -1.05 -8.1 -0.9 -7.85 -0.9 -7.8 -0.85 -7.6 -0.8 -7.45 Q-0.8 -7.3 -0.95 -7.0 -1.05 -6.8 -1.1 -6.55 L-1.35 -6.15 -1.35 -6.2 -1.3 -6.7 -1.3 -7.4 -1.25 -8.65 M-1.3 -5.05 L-1.45 -4.0 Q-1.55 -3.45 -1.65 -3.3 L-1.85 -3.05 -1.6 -4.2 -1.45 -5.25 -1.3 -5.05 M-1.5 -1.6 L-1.45 -1.75 -1.35 -2.0 -1.25 -2.2 -1.3 -2.3 -1.4 -2.45 Q-1.25 -2.25 -1.0 -2.2 L-1.0 -2.15 Q-1.15 -1.5 -1.35 -0.75 L-1.45 -0.9 -1.45 -0.65 Q-1.6 -0.8 -1.6 -0.85 L-1.55 -1.15 -1.4 -1.6 -1.5 -1.6 M-0.85 -4.4 L-0.85 -4.55 -0.95 -4.85 -0.7 -4.75 -0.75 -4.55 -0.8 -4.5 -0.85 -4.4" fill="#89654f" fill-rule="evenodd" stroke="none"/>
    <path d="M-1.75 2.0 L-2.15 1.95 -1.75 0.7 -1.65 0.75 -1.65 0.85 Q-1.75 1.45 -1.75 2.0 M-0.95 -2.15 L-0.9 -2.1 -1.25 -0.85 -1.25 -0.75 -1.25 -0.7 -1.35 -0.4 -1.45 -0.35 -1.4 -0.5 -1.4 -0.6 -1.35 -0.75 Q-1.15 -1.5 -1.0 -2.15 L-0.95 -2.15 M-0.6 -7.4 L-0.55 -7.35 -0.55 -7.05 -0.6 -7.0 -0.6 -7.4 M-0.7 -4.75 L-0.65 -4.7 -0.7 -4.6 -0.75 -4.55 -0.7 -4.75" fill="#3b2921" fill-rule="evenodd" stroke="none"/>
    <path d="M-3.1 1.9 L-4.25 1.7 -4.25 1.65 Q-4.15 1.4 -3.75 1.0 L-3.45 1.2 Q-3.15 1.35 -2.9 1.35 -2.5 1.35 -2.5 1.1 -2.5 0.95 -2.6 0.85 L-2.65 0.65 -2.75 0.4 -2.2 0.55 -2.0 0.6 -2.35 1.05 -3.1 1.9 M-4.6 1.65 Q-5.7 1.4 -5.7 1.05 -5.7 0.8 -5.15 0.5 L-4.95 0.7 -4.6 1.0 Q-4.5 0.95 -4.45 0.95 -4.4 0.95 -4.3 1.0 L-4.35 1.15 -4.4 1.25 -4.25 1.2 -4.25 1.3 Q-4.35 1.35 -4.45 1.5 L-4.6 1.65 M-4.2 -0.3 L-4.15 -0.35 Q-3.95 -0.1 -3.35 0.15 L-3.7 0.65 Q-3.7 0.55 -3.75 0.55 -3.8 0.55 -3.85 0.6 L-3.9 0.65 -3.95 0.6 -4.0 0.6 Q-3.9 0.4 -4.05 0.3 L-4.15 0.05 -4.1 -0.25 -4.2 -0.3 M-3.75 -1.05 Q-3.55 -1.45 -3.35 -2.0 L-3.15 -3.0 -3.1 -2.95 -2.8 -2.6 Q-2.75 -2.55 -2.65 -2.6 L-2.6 -2.65 Q-2.5 -2.65 -2.5 -2.65 L-2.5 -2.6 Q-2.5 -2.45 -2.45 -2.35 L-2.3 -2.5 -2.3 -2.35 Q-2.5 -1.6 -2.9 -0.8 L-2.9 -0.75 -3.5 -1.0 -3.75 -1.05 M-1.5 -6.25 L-1.4 -7.85 -1.3 -7.0 -1.3 -6.7 -1.35 -6.2 -1.35 -6.15 Q-1.5 -5.9 -1.5 -5.6 -1.5 -5.4 -1.45 -5.25 L-1.6 -4.2 -1.85 -3.05 -1.9 -3.05 Q-2.15 -1.95 -2.15 -1.7 -2.15 -1.6 -2.3 -1.3 L-2.3 -1.2 -2.25 -1.15 -2.2 -1.15 -2.0 -1.25 -1.8 -1.3 Q-1.75 -1.3 -1.7 -1.4 L-1.6 -1.6 -1.5 -1.6 -1.4 -1.6 -1.55 -1.15 -1.6 -0.85 Q-1.6 -0.8 -1.45 -0.65 L-1.5 -0.35 -1.85 -0.3 Q-1.95 -0.3 -2.2 -0.4 L-2.65 -0.6 -2.55 -0.9 Q-2.55 -0.95 -2.55 -1.0 L-2.55 -1.0 Q-2.25 -1.8 -2.15 -2.3 L-2.0 -3.0 -1.75 -4.25 -1.7 -4.55 -1.6 -5.15 -1.5 -6.25" fill="#5a4138" fill-rule="evenodd" stroke="none"/>
    <path d="M-1.55 1.4 L-1.55 1.25 -1.65 0.85 -1.65 0.75 Q-0.85 1.0 -0.3 1.3 -0.85 1.55 -0.95 1.55 L-1.25 1.55 Q-1.45 1.5 -1.55 1.4 M-2.7 -0.65 L-2.55 -1.0 Q-2.55 -0.95 -2.55 -0.9 L-2.65 -0.6 -2.7 -0.65 M-1.2 -0.45 L-1.35 -0.4 -1.25 -0.7 -1.2 -0.45 M-1.25 -0.7 L-1.25 -0.7 M-2.75 0.4 L-2.65 0.65 -2.6 0.85 Q-2.5 0.95 -2.5 1.1 -2.5 1.35 -2.9 1.35 -3.15 1.35 -3.45 1.2 L-3.75 1.0 -3.75 0.95 Q-3.35 0.5 -3.15 0.25 L-2.75 0.4" fill="#684a3e" fill-rule="evenodd" stroke="none"/>
    <path d="M0.15 -30.15 L0.15 -30.2 0.1 -31.35 Q0.05 -31.75 -0.1 -32.0 L-0.1 -32.05 -0.2 -32.2 -0.35 -30.45 -0.4 -29.55 -0.4 -28.95 -0.5 -27.25 -0.4 -27.1 -0.55 -25.25 -0.6 -24.65 -0.65 -24.55 -0.85 -24.05 -0.8 -23.85 -0.7 -23.6 -0.65 -23.7 -1.0 -19.6 -1.05 -19.55 -1.0 -19.35 -1.4 -15.05 Q-1.85 -10.95 -2.3 -7.85 L-2.35 -7.5 -2.85 -4.35 -3.15 -3.0 -3.35 -2.0 Q-3.55 -1.45 -3.75 -1.05 L-3.5 -1.0 -2.9 -0.75 -2.85 -0.75 -2.7 -0.65 -2.65 -0.6 -2.2 -0.4 Q-1.95 -0.3 -1.85 -0.3 L-1.5 -0.35 -1.45 -0.35 -1.35 -0.4 -1.2 -0.45 -1.1 -0.5 -0.95 -0.6 -0.9 -0.7 -0.75 -0.85 -0.65 -0.95 Q-0.5 -1.25 -0.5 -1.65 L-0.5 -1.75 -0.65 -1.95 -0.9 -2.1 -0.95 -2.15 -1.0 -2.15 -1.0 -2.2 Q-1.25 -2.25 -1.4 -2.45 -1.55 -2.7 -1.55 -3.1 -1.55 -3.4 -1.15 -3.95 L-0.85 -4.4 -0.8 -4.5 -0.75 -4.55 -0.7 -4.6 -0.6 -4.65 -0.65 -4.7 -0.7 -4.75 -0.95 -4.85 -1.05 -4.85 -1.25 -5.05 -1.3 -5.05 -1.45 -5.25 Q-1.5 -5.4 -1.5 -5.6 -1.5 -5.9 -1.35 -6.15 L-1.1 -6.55 -0.85 -6.8 -0.75 -6.85 -0.7 -6.9 -0.65 -6.95 -0.6 -7.0 -0.55 -7.05 -0.45 -7.2 -0.5 -7.25 -0.55 -7.35 -0.6 -7.4 -0.65 -7.45 -0.7 -7.55 -0.9 -7.85 -1.05 -8.1 -1.2 -8.55 -1.25 -8.65 -1.35 -9.1 -1.35 -9.15 -1.3 -9.3 Q-1.3 -9.5 -1.15 -9.65 L-1.0 -9.85 -1.0 -9.85 -1.0 -9.85 -0.8 -10.1 -0.75 -10.15 -0.7 -10.25 -0.55 -10.35 -0.75 -10.6 -0.9 -10.9 -0.95 -11.0 -1.05 -11.15 -1.15 -11.5 -1.15 -11.75 -1.1 -12.0 -1.0 -12.25 -0.95 -12.35 -0.85 -12.4 -0.75 -12.55 -0.7 -12.6 -0.4 -12.75 Q-0.75 -13.1 -0.85 -13.4 L-0.9 -13.45 -0.95 -13.55 -1.0 -13.8 -1.05 -13.9 -1.1 -14.3 -1.1 -14.5 -0.95 -14.9 -0.9 -14.95 -0.85 -15.0 -0.8 -15.1 -0.6 -15.4 -0.45 -15.65 -0.8 -16.05 -0.95 -16.35 -1.0 -16.5 Q-1.15 -16.9 -1.15 -17.35 L-1.15 -17.6 Q-1.1 -17.9 -1.0 -18.0 L-0.8 -18.2 -0.75 -18.25 -0.75 -18.25 -0.65 -18.3 -0.55 -18.35 -0.6 -18.4 -0.65 -18.45 -0.7 -18.55 -0.75 -18.6 Q-0.95 -19.05 -1.0 -19.35 M0.2 -29.25 L0.15 -30.15 M0.2 -29.25 L0.2 -29.0 0.3 -27.55 0.3 -27.4 0.25 -27.35 0.3 -27.2 0.25 -27.05 0.35 -25.85 0.4 -25.3 0.4 -25.15 0.45 -24.75 0.5 -24.55 0.7 -24.05 0.65 -23.85 0.55 -23.6 0.5 -23.8 0.8 -20.2 0.85 -19.7 0.9 -19.55 0.9 -19.35 0.9 -19.25 Q1.2 -15.6 1.55 -12.55 L1.65 -11.85 Q1.95 -9.25 2.25 -7.15 L2.65 -4.8 Q2.9 -3.35 3.2 -2.2 L3.25 -2.0 Q3.4 -1.45 3.6 -1.05 L4.0 -1.15 4.15 -1.05 4.15 -1.0 4.25 -0.85 4.25 -0.75 Q4.25 -0.55 4.05 -0.35 L4.05 -0.3 Q4.3 0.0 4.65 0.25 L4.8 0.35 Q5.55 0.8 5.55 1.05 5.55 1.45 4.0 1.75 L3.35 1.85 3.25 1.85 2.05 1.95 1.4 2.0 1.3 2.4 0.75 4.35 0.7 4.4 1.1 4.8 1.1 5.15 1.1 5.5 Q1.0 5.7 0.6 5.75 L0.7 8.9 0.35 12.8 0.45 12.95 0.5 13.2 0.45 13.45 0.45 13.5 0.5 13.7 0.65 13.95 0.75 14.15 0.75 14.2 0.8 14.3 0.7 14.5 0.55 14.55 0.35 14.6 0.15 14.65 Q0.0 14.7 -0.05 14.75 L-0.25 14.65 -0.7 14.55 -0.85 14.5 -0.95 14.3 -0.9 14.2 -0.75 13.95 Q-0.6 13.7 -0.6 13.55 L-0.6 13.5 -0.65 13.2 -0.6 12.95 -0.5 12.8 -0.85 8.9 -0.75 5.75 Q-1.1 5.7 -1.25 5.5 L-1.25 5.25 -1.25 4.8 -1.05 4.6 -1.0 4.55 -0.85 4.4 -1.0 3.9 -1.05 3.65 -1.4 2.5 -1.55 2.0 -1.75 2.0 -2.15 1.95 -3.1 1.9 -4.25 1.7 -4.6 1.65 Q-5.7 1.4 -5.7 1.05 -5.7 0.8 -5.15 0.5 L-4.9 0.35 Q-4.55 0.1 -4.2 -0.3 L-4.15 -0.35 -4.35 -0.65 -4.35 -0.75 -4.3 -1.0 -4.25 -1.1 -4.15 -1.15 -3.75 -1.05 M0.25 -27.05 Q0.1 -26.45 0.15 -26.3 L0.2 -25.8 0.2 -25.75 0.2 -25.45 0.25 -25.4 0.35 -24.9 0.45 -24.75 M0.5 -23.8 L0.4 -23.9 0.3 -23.9 Q0.2 -23.6 0.2 -23.05 L0.15 -22.2 0.15 -22.1 0.15 -21.65 Q0.15 -21.4 0.2 -21.15 L0.2 -21.0 Q0.3 -20.6 0.55 -20.25 L0.65 -20.0 0.75 -19.85 0.85 -19.7 M0.55 -18.15 Q1.0 -17.85 1.0 -17.45 L1.0 -17.35 Q1.05 -16.7 0.75 -16.15 L0.6 -15.85 0.35 -15.55 0.6 -15.15 0.65 -15.1 0.8 -14.85 Q1.0 -14.5 0.95 -14.05 L0.9 -13.6 0.7 -13.2 0.65 -13.1 0.45 -12.75 0.45 -12.7 0.6 -12.5 0.65 -12.5 0.7 -12.45 0.75 -12.35 0.9 -12.2 0.95 -12.15 1.05 -11.9 1.05 -11.65 1.0 -11.35 0.95 -11.15 0.95 -11.15 0.9 -11.15 0.9 -11.05 0.85 -11.0 0.8 -10.9 0.4 -10.35 0.35 -10.3 0.7 -10.05 0.85 -9.9 0.85 -9.85 0.95 -9.8 0.95 -9.75 1.0 -9.75 1.05 -9.65 1.2 -9.35 1.2 -9.1 1.1 -8.6 1.1 -8.55 1.05 -8.45 1.0 -8.25 0.9 -8.1 0.75 -7.85 0.6 -7.55 0.45 -7.35 0.4 -7.3 0.35 -7.2 0.4 -7.1 0.5 -7.0 0.75 -6.8 0.9 -6.6 Q1.35 -6.1 1.4 -5.6 1.4 -5.2 1.15 -5.05 L1.05 -4.95 0.4 -4.6 0.6 -4.5 0.85 -4.25 1.05 -3.95 1.35 -3.35 1.4 -3.1 1.4 -2.8 Q1.3 -2.35 0.9 -2.2 L0.6 -2.0 Q0.35 -1.85 0.35 -1.65 0.35 -1.35 0.5 -1.05 L0.55 -0.95 0.8 -0.7 1.1 -0.45 1.4 -0.35 1.7 -0.3 1.95 -0.35 2.1 -0.4 2.2 -0.45 2.25 -0.45 2.45 -0.6 2.7 -0.75 2.8 -0.8 3.0 -0.85 3.35 -1.0 3.6 -1.05 M0.9 -19.25 L0.6 -18.5 0.55 -18.45 0.5 -18.4 0.4 -18.25 0.55 -18.15 M3.9 -0.2 L4.05 -0.35 M3.9 -0.2 Q3.55 0.05 2.8 0.35 L2.6 0.4 2.2 0.5 2.1 0.55 1.8 0.65 Q1.1 0.85 0.6 1.1 L0.45 1.15 0.2 1.3 -0.05 1.4 -0.3 1.3 Q-0.85 1.0 -1.65 0.75 L-1.75 0.7 -2.0 0.6 -2.2 0.55 -2.75 0.4 -3.15 0.25 -3.35 0.15 Q-3.95 -0.1 -4.15 -0.35 M-0.1 -32.0 L-0.1 -32.05 M-0.5 -24.95 L-0.35 -25.4 -0.35 -25.45 -0.3 -25.8 -0.25 -26.3 Q-0.25 -26.45 -0.4 -27.05 L-0.4 -27.1 M-0.5 -24.95 L-0.6 -24.65 M-0.45 -23.9 Q-0.55 -23.95 -0.65 -23.8 L-0.65 -23.7 M-0.35 -23.35 L-0.3 -23.05 -0.3 -22.15 -0.3 -22.05 -0.25 -21.65 -0.3 -21.45 -0.3 -21.15 -0.45 -20.65 -0.5 -20.5 -0.65 -20.3 -0.65 -20.25 -1.0 -19.6 M-0.35 -23.35 L-0.45 -23.9" fill="none" stroke="#000000" stroke-linecap="round" stroke-linejoin="round" stroke-opacity="0.4509804" stroke-width="0.1"/>
  </g>
</svg>
