<?xml version="1.0" encoding="UTF-8" standalone="no"?>
<svg xmlns:xlink="http://www.w3.org/1999/xlink" height="42.2px" width="8.05px" xmlns="http://www.w3.org/2000/svg">
  <g transform="matrix(1.0, 0.0, 0.0, 1.0, 4.05, 32.1)">
    <path d="M0.35 -30.4 L0.3 -30.35 Q0.1 -30.2 0.1 -29.9 -0.15 -29.9 -0.2 -29.6 -0.3 -29.15 -0.3 -29.1 -0.45 -28.9 -0.5 -28.65 L-0.5 -28.15 -0.55 -27.25 -0.6 -26.4 -0.55 -25.85 -0.55 -25.4 -0.65 -24.5 Q-0.65 -24.35 -0.75 -23.95 L-0.8 -23.55 -0.75 -21.75 Q-0.75 -21.55 -0.45 -20.9 -0.2 -20.25 -0.2 -20.15 L-0.25 -20.0 -0.3 -19.85 Q-0.3 -19.4 -0.05 -19.15 0.3 -18.85 0.45 -18.5 0.3 -18.4 0.2 -18.4 L0.15 -18.4 0.0 -18.4 -0.2 -18.4 -0.25 -18.4 Q-0.45 -18.45 -0.75 -18.75 L-1.05 -19.0 -1.0 -19.25 -0.95 -19.8 Q-0.95 -22.65 -0.65 -26.7 -0.4 -30.95 0.0 -32.0 L0.0 -32.05 Q0.15 -31.55 0.35 -30.4 M0.0 -18.4 L0.0 -18.4 M0.9 -20.4 L0.7 -21.1 Q0.6 -21.4 0.6 -21.95 L0.7 -22.45 0.6 -23.45 0.6 -24.2 Q0.65 -24.65 0.75 -24.9 L0.75 -25.35 Q0.9 -22.55 0.9 -20.4 M0.9 -15.2 L1.05 -15.55 Q1.15 -15.8 1.15 -16.15 1.15 -16.4 1.05 -16.6 0.95 -16.7 0.9 -16.85 L1.15 -17.0 1.3 -14.85 1.35 -14.15 1.15 -13.8 1.1 -13.6 1.05 -13.6 1.0 -13.4 1.0 -13.4 Q0.75 -13.35 0.6 -13.45 0.45 -13.6 0.45 -13.9 L0.5 -14.25 0.6 -14.25 0.65 -14.2 0.65 -14.15 0.6 -14.0 0.55 -13.85 0.6 -13.75 0.6 -13.75 Q0.75 -13.65 0.85 -13.65 0.9 -13.65 1.05 -13.9 1.25 -14.15 1.25 -14.3 1.25 -14.6 1.15 -14.85 1.05 -15.15 0.9 -15.2 M1.1 -12.35 Q0.85 -12.45 0.85 -12.8 L0.9 -13.0 0.9 -13.0 1.0 -13.15 Q1.0 -12.85 1.15 -12.7 L1.2 -12.65 1.25 -12.65 1.45 -12.4 1.3 -12.3 1.1 -12.35 M1.5 -9.95 L1.6 -8.65 1.65 -8.1 1.7 -7.85 1.7 -7.65 1.75 -7.45 1.7 -7.45 1.4 -7.3 1.0 -7.4 0.9 -7.85 0.85 -8.1 0.85 -8.2 1.05 -8.2 Q1.1 -8.4 1.25 -8.55 1.35 -8.65 1.35 -8.9 L1.3 -9.05 1.25 -9.25 1.25 -9.3 1.3 -9.35 1.25 -9.55 1.25 -9.6 1.3 -9.75 1.3 -9.75 1.5 -9.95 M-1.75 -7.45 L-1.7 -7.85 -1.65 -8.1 Q-1.6 -8.35 -1.6 -8.65 L-1.5 -9.95 -1.3 -9.75 -1.4 -9.05 Q-1.4 -8.35 -1.25 -8.2 L-0.7 -7.6 Q-0.9 -7.3 -1.4 -7.3 -1.5 -7.3 -1.75 -7.45 L-1.75 -7.45 M-1.55 -12.45 Q-1.4 -13.55 -1.3 -14.85 L-1.25 -16.0 -1.25 -15.85 -1.15 -15.3 Q-1.05 -15.3 -1.0 -15.2 L-0.95 -15.15 Q-1.1 -15.05 -1.15 -14.85 -1.25 -14.6 -1.25 -14.3 -1.25 -14.1 -1.05 -13.9 -0.95 -13.65 -0.85 -13.65 -0.75 -13.65 -0.65 -13.75 L-0.6 -13.75 -0.6 -14.0 -0.65 -14.15 -0.65 -14.2 -0.6 -14.25 -0.5 -14.25 -0.45 -13.9 Q-0.45 -13.6 -0.6 -13.45 -0.8 -13.3 -1.0 -13.4 L-1.0 -13.15 -0.9 -13.0 Q-0.85 -12.85 -0.85 -12.75 -0.85 -12.55 -0.95 -12.4 -1.1 -12.3 -1.3 -12.3 L-1.5 -12.4 -1.55 -12.45" fill="#4d302b" fill-rule="evenodd" stroke="none"/>
    <path d="M0.45 -18.5 Q0.3 -18.85 -0.05 -19.15 -0.3 -19.4 -0.3 -19.85 L-0.25 -20.0 -0.2 -20.15 Q-0.2 -20.25 -0.45 -20.9 -0.75 -21.55 -0.75 -21.75 L-0.8 -23.55 -0.75 -23.95 Q-0.65 -24.35 -0.65 -24.5 L-0.55 -25.4 -0.55 -25.85 -0.6 -26.4 -0.55 -27.25 -0.5 -28.15 -0.5 -28.65 Q-0.45 -28.9 -0.3 -29.1 -0.3 -29.15 -0.2 -29.6 -0.15 -29.9 0.1 -29.9 0.1 -30.2 0.3 -30.35 L0.35 -30.4 Q0.5 -29.0 0.65 -26.7 L0.7 -26.1 0.75 -25.35 0.75 -24.9 Q0.65 -24.65 0.6 -24.2 L0.6 -23.45 0.7 -22.45 0.6 -21.95 Q0.6 -21.4 0.7 -21.1 L0.9 -20.4 0.9 -19.8 Q0.9 -19.6 1.0 -19.25 L1.05 -19.0 0.75 -18.75 0.45 -18.5 M0.4 -27.55 Q0.3 -27.65 0.2 -27.85 L0.15 -28.1 0.2 -28.35 Q0.45 -28.25 0.35 -28.85 0.25 -29.45 0.0 -29.45 -0.05 -29.45 -0.25 -28.85 L-0.45 -28.3 -0.25 -27.6 Q-0.25 -27.5 -0.35 -27.4 L-0.45 -27.25 -0.4 -27.15 Q-0.35 -27.15 -0.3 -27.15 L-0.25 -26.8 -0.35 -26.6 -0.4 -26.4 -0.35 -26.05 -0.25 -25.85 Q-0.25 -25.55 -0.35 -25.45 -0.45 -25.4 -0.45 -25.25 -0.45 -25.1 -0.3 -24.85 -0.15 -24.6 -0.15 -24.5 -0.15 -24.4 -0.25 -24.35 L-0.35 -24.2 -0.05 -23.85 Q-0.05 -23.65 -0.2 -23.65 L-0.4 -23.7 -0.6 -23.8 -0.6 -23.8 Q-0.65 -23.75 -0.55 -23.65 L-0.45 -23.55 -0.55 -23.5 Q-0.55 -23.4 -0.45 -23.4 L-0.25 -23.4 Q-0.3 -23.25 -0.4 -23.15 -0.45 -23.1 -0.45 -23.0 L-0.55 -22.5 -0.5 -22.35 Q-0.45 -22.3 -0.35 -22.3 L-0.3 -22.1 -0.25 -21.85 -0.35 -21.7 -0.4 -21.5 Q-0.4 -21.3 -0.15 -20.85 0.05 -20.4 0.05 -20.25 0.05 -20.15 0.0 -20.05 L-0.1 -19.9 Q-0.1 -19.75 0.05 -19.35 0.2 -19.35 0.25 -19.1 0.3 -18.8 0.4 -18.8 0.5 -18.8 0.65 -19.25 0.8 -19.65 0.8 -19.8 L0.65 -20.3 0.5 -20.85 0.55 -21.25 0.5 -21.55 0.45 -21.9 Q0.45 -22.1 0.55 -22.35 L0.6 -22.7 0.55 -23.5 Q0.55 -23.75 0.45 -23.85 0.3 -23.9 0.3 -24.05 L0.35 -24.15 0.5 -24.15 0.5 -24.25 0.45 -24.5 0.5 -24.7 0.55 -24.9 0.5 -25.7 0.5 -26.25 0.55 -26.55 0.4 -26.9 0.3 -27.25 0.3 -27.4 0.4 -27.55 M0.9 -16.85 Q0.95 -16.7 1.05 -16.6 1.15 -16.4 1.15 -16.15 1.15 -15.8 1.05 -15.55 L0.9 -15.2 0.8 -15.2 0.7 -15.15 0.6 -15.1 Q0.55 -15.1 0.5 -15.15 0.45 -15.2 0.45 -15.35 0.45 -15.4 0.6 -15.55 L0.65 -15.6 0.7 -15.55 0.8 -15.45 Q0.9 -15.45 0.9 -15.5 L0.9 -15.65 Q1.0 -15.65 1.05 -15.85 L1.05 -16.35 Q1.0 -16.5 0.9 -16.5 L0.75 -16.45 0.65 -16.4 Q0.65 -16.4 0.6 -16.4 L0.6 -16.45 Q0.7 -16.65 0.9 -16.85 M1.0 -13.4 L1.05 -13.6 Q1.05 -13.55 1.05 -13.35 1.05 -13.25 1.1 -12.95 L1.2 -12.65 1.15 -12.7 Q1.0 -12.85 1.0 -13.15 L1.0 -13.4 M1.1 -13.6 L1.15 -13.8 1.35 -14.15 1.4 -13.85 Q1.25 -13.6 1.15 -13.65 1.1 -13.65 1.1 -13.6 M1.25 -12.65 L1.45 -12.7 1.5 -12.75 1.5 -12.45 1.45 -12.45 1.45 -12.4 1.25 -12.65 M-1.25 -16.0 L-1.2 -16.6 -1.15 -17.0 -1.1 -16.95 -1.0 -16.9 -1.05 -16.75 -1.1 -16.5 Q-1.1 -16.4 -1.05 -16.4 -0.95 -16.35 -0.95 -16.25 -0.95 -16.15 -1.05 -16.1 L-1.15 -15.95 -1.0 -15.6 -0.8 -15.2 -0.95 -15.15 -1.0 -15.2 Q-1.05 -15.3 -1.15 -15.3 L-1.25 -15.85 -1.25 -16.0 M0.55 -9.4 L0.65 -9.25 0.6 -9.0 0.65 -8.85 0.8 -8.7 Q0.8 -8.55 0.85 -8.4 0.9 -8.3 1.0 -8.3 1.05 -8.3 1.15 -8.55 L1.25 -9.0 1.2 -9.2 1.15 -9.4 1.25 -9.55 1.25 -9.6 1.25 -9.55 1.3 -9.35 1.25 -9.3 1.25 -9.25 1.3 -9.05 1.35 -8.9 Q1.35 -8.65 1.25 -8.55 1.1 -8.4 1.05 -8.2 L0.85 -8.2 0.85 -8.1 0.9 -7.85 1.0 -7.4 Q0.6 -7.55 0.5 -8.05 0.5 -8.8 0.4 -9.25 L0.55 -9.4 M-0.8 -9.6 Q-0.6 -9.55 -0.4 -9.2 L-0.5 -8.05 Q-0.55 -7.75 -0.7 -7.6 L-1.25 -8.2 Q-1.4 -8.35 -1.4 -9.05 L-1.3 -9.75 -1.15 -9.7 -1.25 -9.1 -1.3 -8.9 -1.3 -8.65 Q-1.3 -8.5 -1.25 -8.35 -1.15 -8.15 -1.05 -8.15 -1.0 -8.15 -0.95 -8.2 -0.9 -8.25 -0.9 -8.35 -0.9 -8.4 -0.95 -8.45 -1.05 -8.45 -1.05 -8.6 L-0.95 -8.6 -0.95 -8.5 -0.9 -8.5 Q-0.8 -8.5 -0.7 -8.7 L-0.6 -9.0 Q-0.6 -9.1 -0.75 -9.1 L-0.95 -9.1 -0.95 -9.25 Q-0.8 -9.25 -0.75 -9.35 -0.85 -9.35 -0.85 -9.45 L-0.8 -9.6" fill="#7b4236" fill-rule="evenodd" stroke="none"/>
    <path d="M0.4 -27.55 L0.3 -27.4 0.3 -27.25 0.4 -26.9 0.55 -26.55 0.5 -26.25 0.5 -25.7 0.55 -24.9 0.5 -24.7 0.45 -24.5 0.5 -24.25 0.5 -24.15 0.35 -24.15 0.3 -24.05 Q0.3 -23.9 0.45 -23.85 0.55 -23.75 0.55 -23.5 L0.6 -22.7 0.55 -22.35 Q0.45 -22.1 0.45 -21.9 L0.5 -21.55 0.55 -21.25 0.5 -20.85 0.65 -20.3 0.8 -19.8 Q0.8 -19.65 0.65 -19.25 0.5 -18.8 0.4 -18.8 0.3 -18.8 0.25 -19.1 0.2 -19.35 0.05 -19.35 -0.1 -19.75 -0.1 -19.9 L0.0 -20.05 Q0.05 -20.15 0.05 -20.25 0.05 -20.4 -0.15 -20.85 -0.4 -21.3 -0.4 -21.5 L-0.35 -21.7 -0.25 -21.85 -0.3 -22.1 -0.35 -22.3 Q-0.45 -22.3 -0.5 -22.35 L-0.55 -22.5 -0.45 -23.0 Q-0.45 -23.1 -0.4 -23.15 -0.3 -23.25 -0.25 -23.4 L-0.45 -23.4 Q-0.55 -23.4 -0.55 -23.5 L-0.45 -23.55 -0.55 -23.65 Q-0.65 -23.75 -0.6 -23.8 L-0.6 -23.8 -0.4 -23.7 -0.2 -23.65 Q-0.05 -23.65 -0.05 -23.85 L-0.35 -24.2 -0.25 -24.35 Q-0.15 -24.4 -0.15 -24.5 -0.15 -24.6 -0.3 -24.85 -0.45 -25.1 -0.45 -25.25 -0.45 -25.4 -0.35 -25.45 -0.25 -25.55 -0.25 -25.85 L-0.35 -26.05 -0.4 -26.4 -0.35 -26.6 -0.25 -26.8 -0.3 -27.15 Q-0.35 -27.15 -0.4 -27.15 L-0.45 -27.25 -0.35 -27.4 Q-0.25 -27.5 -0.25 -27.6 L-0.45 -28.3 -0.25 -28.85 Q-0.05 -29.45 0.0 -29.45 0.25 -29.45 0.35 -28.85 0.45 -28.25 0.2 -28.35 L0.15 -28.1 0.2 -27.85 Q0.3 -27.65 0.4 -27.55 M0.6 -16.45 L0.6 -16.4 Q0.65 -16.4 0.65 -16.4 L0.75 -16.45 0.9 -16.5 Q1.0 -16.5 1.05 -16.35 L1.05 -15.85 Q1.0 -15.65 0.9 -15.65 L0.9 -15.5 Q0.9 -15.45 0.8 -15.45 L0.7 -15.55 0.65 -15.6 0.75 -15.75 0.65 -15.9 0.55 -16.0 Q0.55 -16.25 0.6 -16.45 M1.05 -13.6 L1.1 -13.6 Q1.1 -13.65 1.15 -13.65 1.25 -13.6 1.4 -13.85 L1.5 -12.75 1.45 -12.7 1.25 -12.65 1.2 -12.65 1.1 -12.95 Q1.05 -13.25 1.05 -13.35 1.05 -13.55 1.05 -13.6 M1.3 -9.75 L1.3 -9.75 1.25 -9.6 1.25 -9.55 1.15 -9.4 1.2 -9.2 1.25 -9.0 1.15 -8.55 Q1.05 -8.3 1.0 -8.3 0.9 -8.3 0.85 -8.4 0.8 -8.55 0.8 -8.7 L0.65 -8.85 0.6 -9.0 0.65 -9.25 0.55 -9.4 Q0.7 -9.6 0.8 -9.6 1.05 -9.6 1.3 -9.75 M-1.0 -16.9 Q-0.55 -16.55 -0.55 -16.0 L-0.65 -15.9 Q-0.75 -15.85 -0.75 -15.75 L-0.6 -15.55 -0.45 -15.3 -0.5 -15.15 Q-0.55 -15.1 -0.6 -15.1 L-0.8 -15.2 -0.8 -15.2 -1.0 -15.6 -1.15 -15.95 -1.05 -16.1 Q-0.95 -16.15 -0.95 -16.25 -0.95 -16.35 -1.05 -16.4 -1.1 -16.4 -1.1 -16.5 L-1.05 -16.75 -1.0 -16.9 M-1.15 -9.7 Q-1.0 -9.6 -0.8 -9.6 L-0.8 -9.6 -0.85 -9.45 Q-0.85 -9.35 -0.75 -9.35 -0.8 -9.25 -0.95 -9.25 L-0.95 -9.1 -0.75 -9.1 Q-0.6 -9.1 -0.6 -9.0 L-0.7 -8.7 Q-0.8 -8.5 -0.9 -8.5 L-0.95 -8.5 -0.95 -8.6 -1.05 -8.6 Q-1.05 -8.45 -0.95 -8.45 -0.9 -8.4 -0.9 -8.35 -0.9 -8.25 -0.95 -8.2 -1.0 -8.15 -1.05 -8.15 -1.15 -8.15 -1.25 -8.35 -1.3 -8.5 -1.3 -8.65 L-1.3 -8.9 -1.25 -9.1 -1.15 -9.7" fill="#a85d39" fill-rule="evenodd" stroke="none"/>
    <path d="M-0.25 -18.4 L-0.2 -18.4 0.0 -18.4 0.15 -18.4 0.2 -18.4 Q0.3 -18.4 0.45 -18.5 L0.75 -18.75 1.05 -19.0 1.15 -19.1 Q1.45 -19.1 1.65 -18.75 1.85 -18.4 1.85 -17.95 1.85 -17.4 1.2 -17.0 L1.15 -17.0 0.9 -16.85 Q0.7 -16.65 0.6 -16.45 0.55 -16.25 0.55 -16.0 L0.65 -15.9 0.75 -15.75 0.65 -15.6 0.6 -15.55 Q0.45 -15.4 0.45 -15.35 0.45 -15.2 0.5 -15.15 0.55 -15.1 0.6 -15.1 L0.7 -15.15 0.8 -15.2 0.9 -15.2 Q1.05 -15.15 1.15 -14.85 1.25 -14.6 1.25 -14.3 1.25 -14.15 1.05 -13.9 0.9 -13.65 0.85 -13.65 0.75 -13.65 0.6 -13.75 L0.6 -13.75 0.55 -13.85 0.6 -14.0 0.65 -14.15 0.65 -14.2 0.6 -14.25 0.5 -14.25 0.45 -13.9 Q0.45 -13.6 0.6 -13.45 0.75 -13.35 1.0 -13.4 L1.0 -13.4 1.0 -13.15 0.9 -13.0 0.9 -13.0 0.85 -12.8 Q0.85 -12.45 1.1 -12.35 1.05 -12.1 0.85 -11.95 0.65 -11.85 0.45 -11.9 L0.4 -11.8 0.45 -11.65 0.5 -11.6 0.4 -11.4 0.4 -11.2 0.4 -11.2 0.3 -11.15 0.3 -11.3 0.35 -11.4 0.4 -11.55 0.35 -11.65 Q0.25 -11.75 0.25 -11.8 0.25 -11.9 0.4 -12.0 0.6 -12.05 0.65 -12.3 L0.9 -13.05 0.8 -13.1 Q0.3 -12.85 -0.1 -12.85 L-0.6 -12.95 -0.8 -13.05 -0.8 -12.55 -0.85 -12.35 -0.9 -12.25 -0.75 -12.15 -0.6 -12.0 -0.65 -11.9 Q-0.7 -11.85 -0.65 -11.75 L-0.75 -11.75 -0.75 -11.6 Q-0.75 -11.55 -0.8 -11.55 L-0.85 -11.7 -0.8 -11.75 Q-0.65 -11.85 -0.7 -12.0 L-0.8 -11.95 -0.8 -12.1 -0.85 -12.15 -1.05 -11.95 Q-1.15 -11.9 -1.2 -11.9 L-1.35 -11.9 Q-1.5 -11.95 -1.5 -12.05 -1.5 -12.1 -1.25 -12.15 L-1.15 -12.15 Q-1.0 -12.25 -0.95 -12.4 -0.85 -12.55 -0.85 -12.75 -0.85 -12.85 -0.9 -13.0 L-1.0 -13.15 -1.0 -13.4 Q-0.8 -13.3 -0.6 -13.45 -0.45 -13.6 -0.45 -13.9 L-0.5 -14.25 -0.6 -14.25 -0.65 -14.2 -0.65 -14.15 -0.6 -14.0 -0.6 -13.75 -0.65 -13.75 Q-0.75 -13.65 -0.85 -13.65 -0.95 -13.65 -1.05 -13.9 -1.25 -14.1 -1.25 -14.3 -1.25 -14.6 -1.15 -14.85 -1.1 -15.05 -0.95 -15.15 L-0.8 -15.2 -0.8 -15.2 -0.6 -15.1 Q-0.55 -15.1 -0.5 -15.15 L-0.45 -15.3 -0.6 -15.55 -0.75 -15.75 Q-0.75 -15.85 -0.65 -15.9 L-0.55 -16.0 Q-0.55 -16.55 -1.0 -16.9 L-1.1 -16.95 -1.15 -17.0 -1.2 -17.0 Q-1.85 -17.4 -1.85 -17.9 L-1.85 -18.0 Q-1.8 -17.75 -1.6 -17.5 -1.35 -17.2 -1.15 -17.15 L-1.1 -17.15 Q-0.95 -17.15 -0.8 -17.35 -0.7 -17.55 -0.7 -17.75 -0.95 -17.85 -1.15 -17.95 L-1.45 -18.25 -1.45 -18.3 -1.35 -18.3 -1.15 -18.1 Q-0.95 -17.9 -0.85 -17.9 L-0.55 -18.1 -0.25 -18.4 M1.1 -18.75 Q0.9 -18.55 0.65 -18.45 L0.65 -18.35 0.7 -18.05 0.75 -17.7 Q0.8 -17.65 0.9 -17.55 1.0 -17.45 1.0 -17.3 L1.0 -17.25 Q1.25 -17.25 1.45 -17.45 L1.65 -17.6 1.65 -17.6 Q1.7 -17.7 1.7 -18.0 L1.65 -18.5 Q1.55 -18.9 1.45 -18.9 1.3 -18.9 1.15 -18.75 L1.1 -18.75 M0.0 -18.4 L0.0 -18.4 M-0.5 -16.35 Q-0.45 -16.2 -0.45 -16.05 -0.45 -15.95 -0.5 -15.95 L-0.6 -15.8 Q-0.6 -15.45 -0.3 -15.35 L0.2 -15.25 0.4 -15.45 0.6 -15.65 0.65 -15.7 0.55 -15.8 0.55 -15.85 Q0.45 -15.95 0.45 -16.15 0.45 -16.3 0.6 -16.5 L0.65 -16.65 Q0.85 -16.9 0.75 -17.2 L0.8 -17.15 Q0.55 -17.7 0.5 -18.05 L0.15 -18.05 Q-0.45 -18.05 -0.5 -17.7 -0.55 -17.55 -0.75 -17.25 L-0.95 -17.0 -0.7 -16.65 -0.65 -16.6 -0.5 -16.35 M0.35 -15.85 L0.4 -15.85 0.5 -15.7 0.35 -15.55 0.3 -15.75 0.2 -16.0 0.25 -16.0 0.35 -15.85 M-0.2 -15.45 L-0.3 -15.5 Q-0.45 -15.65 -0.5 -15.85 L-0.4 -15.85 -0.15 -15.9 -0.2 -15.7 -0.2 -15.45 M-0.3 -15.25 L-0.35 -15.3 -0.4 -15.1 Q-0.45 -15.0 -0.55 -15.0 L-0.7 -15.0 -0.8 -15.05 Q-0.85 -15.05 -0.95 -14.95 -1.05 -14.9 -1.05 -14.8 -1.05 -14.7 -0.7 -14.55 -0.4 -14.35 -0.4 -13.95 L-0.45 -13.7 -0.45 -13.65 -0.2 -13.9 Q0.05 -14.1 0.15 -14.1 L0.3 -14.05 0.35 -13.95 0.4 -13.95 0.4 -14.15 0.45 -14.35 0.4 -14.5 Q0.35 -14.6 0.35 -14.7 L0.4 -15.25 0.35 -15.2 0.2 -15.15 0.05 -15.1 Q-0.1 -15.1 -0.3 -15.25 M0.55 -15.05 Q0.45 -15.05 0.45 -14.8 L0.4 -14.55 0.9 -14.45 1.05 -14.55 1.1 -14.7 Q1.1 -14.95 1.05 -15.0 L0.8 -15.05 0.55 -15.05 M1.1 -14.65 L1.05 -14.5 Q0.95 -14.35 0.85 -14.35 L0.75 -14.4 0.7 -14.4 0.65 -13.9 Q0.65 -13.8 0.65 -13.75 L0.8 -13.75 Q0.95 -13.75 1.05 -14.05 1.15 -14.25 1.15 -14.45 L1.15 -14.65 1.1 -14.65 M0.15 -14.0 L-0.15 -13.8 -0.4 -13.5 Q-0.4 -13.4 -0.65 -13.35 -0.85 -13.25 -0.85 -13.15 -0.85 -13.05 -0.45 -13.0 L0.05 -12.95 Q0.6 -12.95 0.75 -13.15 L0.8 -13.15 0.8 -13.2 0.65 -13.3 Q0.45 -13.4 0.45 -13.4 L0.3 -13.65 0.3 -13.85 0.25 -13.95 0.15 -14.0 M2.35 -1.25 Q2.6 -0.8 3.0 -0.25 L3.65 0.65 3.6 0.75 Q3.45 0.95 3.35 0.95 3.25 0.95 2.95 0.4 L2.55 -0.2 2.2 -0.45 Q1.95 -0.65 1.8 -0.85 L1.7 -0.85 1.7 -0.8 1.65 -0.7 1.7 -0.6 1.75 -0.45 1.7 -0.2 1.65 0.1 Q1.55 0.0 1.45 -0.35 L1.45 -0.75 1.6 -0.95 1.8 -1.05 Q1.9 -1.05 1.95 -0.95 L2.05 -0.7 2.1 -0.7 Q1.95 -1.1 2.25 -1.2 L2.35 -1.25 M-3.0 -0.25 L-2.95 -0.3 -2.95 -0.3 -2.45 -1.05 Q-2.2 -1.4 -2.15 -1.4 L-1.75 -1.2 Q-2.05 -0.55 -3.05 1.0 L-3.65 0.85 -3.7 0.85 -3.0 -0.25 -3.0 -0.25 M1.0 -7.4 L1.4 -7.3 1.15 -7.15 0.55 -6.8 0.65 -7.2 0.7 -7.25 0.65 -7.3 0.5 -7.4 Q0.45 -7.4 0.15 -7.15 -0.15 -6.9 -0.45 -6.9 -0.45 -6.65 -0.3 -6.25 L-0.35 -6.15 -0.4 -6.0 -0.2 -5.95 -0.05 -5.95 Q0.15 -5.95 0.45 -6.55 L0.45 -6.3 Q0.45 -6.05 0.2 -5.8 L0.25 -5.75 0.1 -5.7 Q-0.2 -5.7 -0.45 -5.85 -0.7 -6.05 -0.7 -6.35 L-0.6 -6.6 Q-0.6 -6.7 -0.75 -6.75 L-1.0 -6.85 -1.0 -7.0 -0.95 -6.95 -0.9 -6.95 -0.9 -7.2 -0.6 -7.15 -0.6 -7.25 Q-0.55 -7.25 -0.5 -7.25 -0.35 -7.15 -0.45 -6.95 L-0.25 -6.95 Q-0.2 -7.05 0.05 -7.2 0.3 -7.3 0.3 -7.45 L0.2 -7.65 0.15 -7.85 Q0.15 -8.05 0.25 -8.25 L0.4 -8.6 Q0.25 -8.75 0.2 -8.9 L0.2 -8.95 0.4 -9.2 0.4 -9.25 Q0.5 -8.8 0.5 -8.05 0.6 -7.55 1.0 -7.4 M-0.25 -9.0 L-0.35 -8.2 -0.3 -8.05 -0.25 -7.95 Q-0.25 -7.85 -0.35 -7.8 L-0.55 -7.75 -0.5 -7.6 -0.4 -7.45 -0.4 -7.35 -0.55 -7.35 -0.7 -7.6 Q-0.55 -7.75 -0.5 -8.05 L-0.4 -9.2 -0.4 -9.15 -0.25 -9.0 M0.05 -3.2 Q0.15 -3.1 0.25 -3.1 L0.4 -3.1 0.5 -3.25 0.7 -3.25 0.7 -2.95 0.45 -2.8 Q0.15 -2.6 -0.05 -2.6 -0.25 -2.6 -0.4 -2.8 L-0.65 -3.1 -0.65 -3.35 -0.6 -3.35 Q-0.45 -3.2 -0.35 -3.2 L-0.25 -3.25 -0.15 -3.3 0.0 -3.25 0.05 -3.2 M-1.75 -0.2 L-1.8 -0.4 -1.7 -0.7 -1.65 -1.0 -1.7 -1.1 -1.7 -1.15 -1.4 -1.05 -1.35 -1.05 -1.2 -1.05 -1.15 -1.0 -1.35 0.25 -1.4 0.55 -1.45 0.6 Q-1.6 1.05 -1.95 1.2 -2.0 0.9 -1.85 0.6 -1.7 0.3 -1.7 0.1 L-1.75 -0.15 -1.75 -0.2" fill="#878275" fill-rule="evenodd" stroke="none"/>
    <path d="M-1.05 -19.0 L-0.75 -18.75 Q-0.45 -18.45 -0.25 -18.4 L-0.55 -18.1 -0.85 -17.9 Q-0.95 -17.9 -1.15 -18.1 L-1.35 -18.3 -1.45 -18.3 -1.45 -18.25 -1.15 -17.95 Q-0.95 -17.85 -0.7 -17.75 -0.7 -17.55 -0.8 -17.35 -0.95 -17.15 -1.1 -17.15 L-1.15 -17.15 Q-1.35 -17.2 -1.6 -17.5 -1.8 -17.75 -1.85 -18.0 L-1.85 -18.1 Q-1.8 -18.45 -1.65 -18.75 -1.45 -19.1 -1.2 -19.1 -1.15 -19.1 -1.05 -19.0 M1.1 -18.75 L1.15 -18.75 Q1.3 -18.9 1.45 -18.9 1.55 -18.9 1.65 -18.5 L1.7 -18.0 Q1.7 -17.7 1.65 -17.6 L1.65 -17.6 1.45 -17.45 Q1.25 -17.25 1.0 -17.25 L1.0 -17.3 Q1.0 -17.45 0.9 -17.55 0.8 -17.65 0.75 -17.7 L0.7 -18.05 0.65 -18.35 0.65 -18.45 Q0.9 -18.55 1.1 -18.75 M-0.65 -16.6 L-0.7 -16.65 -0.95 -17.0 -0.75 -17.25 Q-0.55 -17.55 -0.5 -17.7 -0.45 -18.05 0.15 -18.05 L0.5 -18.05 Q0.55 -17.7 0.8 -17.15 L0.75 -17.2 Q0.85 -16.9 0.65 -16.65 L0.6 -16.5 Q0.45 -16.3 0.45 -16.15 0.45 -15.95 0.55 -15.85 L0.55 -15.8 0.65 -15.7 0.6 -15.65 0.4 -15.45 0.2 -15.25 -0.3 -15.35 Q-0.6 -15.45 -0.6 -15.8 L-0.5 -15.95 Q-0.45 -15.95 -0.45 -16.05 -0.45 -16.2 -0.5 -16.35 L-0.4 -16.2 -0.4 -15.85 -0.5 -15.85 Q-0.45 -15.65 -0.3 -15.5 L-0.2 -15.45 Q-0.1 -15.35 0.05 -15.35 0.15 -15.35 0.35 -15.55 L0.5 -15.7 0.4 -15.85 0.35 -15.85 0.35 -16.1 Q0.35 -16.4 0.5 -16.6 0.65 -16.8 0.65 -17.0 0.65 -17.1 0.55 -17.3 0.35 -17.5 0.25 -17.5 L0.2 -17.5 0.15 -17.35 0.1 -17.35 0.0 -17.35 0.0 -17.4 0.1 -17.45 -0.05 -17.5 Q-0.15 -17.5 -0.4 -17.25 -0.7 -16.95 -0.7 -16.8 L-0.65 -16.6 M0.35 -15.2 L0.4 -15.25 0.35 -14.7 Q0.35 -14.6 0.4 -14.5 L0.45 -14.35 0.4 -14.15 0.4 -13.95 0.35 -13.95 0.3 -14.05 0.15 -14.1 Q0.05 -14.1 -0.2 -13.9 L-0.45 -13.65 -0.45 -13.7 -0.4 -13.95 Q-0.4 -14.35 -0.7 -14.55 -1.05 -14.7 -1.05 -14.8 -1.05 -14.9 -0.95 -14.95 -0.85 -15.05 -0.8 -15.05 L-0.7 -15.0 -0.55 -15.0 Q-0.45 -15.0 -0.4 -15.1 L-0.35 -15.3 -0.3 -15.25 -0.4 -14.9 -0.65 -14.85 -0.8 -14.8 -0.5 -14.5 Q-0.35 -14.35 -0.3 -14.1 L-0.05 -14.15 0.1 -14.2 0.1 -14.3 Q0.15 -14.35 0.2 -14.3 L0.25 -14.3 0.25 -14.6 0.35 -15.2 M1.75 -7.45 L1.8 -7.5 2.05 -7.6 2.85 -7.4 2.85 -7.1 Q2.7 -6.8 2.5 -6.65 2.35 -6.55 2.15 -6.55 L1.95 -6.6 1.75 -6.65 1.65 -6.7 1.25 -6.8 Q0.9 -6.8 0.9 -6.4 0.9 -6.25 1.0 -6.1 L1.05 -6.0 0.95 -5.95 0.8 -5.9 0.75 -5.85 Q0.5 -5.7 0.35 -5.7 L0.25 -5.75 0.2 -5.8 Q0.45 -6.05 0.45 -6.3 L0.45 -6.55 0.4 -6.75 0.55 -6.8 1.15 -7.15 1.4 -7.3 1.7 -7.45 1.75 -7.45 M1.05 -6.0 L1.05 -6.0 1.05 -6.0" fill="#635b4f" fill-rule="evenodd" stroke="none"/>
    <path d="M-0.65 -16.6 L-0.7 -16.8 Q-0.7 -16.95 -0.4 -17.25 -0.15 -17.5 -0.05 -17.5 L0.1 -17.45 0.0 -17.4 0.0 -17.35 0.1 -17.35 0.15 -17.35 0.2 -17.5 0.25 -17.5 Q0.35 -17.5 0.55 -17.3 0.65 -17.1 0.65 -17.0 0.65 -16.8 0.5 -16.6 0.35 -16.4 0.35 -16.1 L0.35 -15.85 0.25 -16.0 0.2 -16.0 -0.1 -15.95 -0.15 -15.9 -0.4 -15.85 -0.4 -16.2 -0.5 -16.35 -0.65 -16.6 M-0.3 -15.25 Q-0.1 -15.1 0.05 -15.1 L0.2 -15.15 0.35 -15.2 0.25 -14.6 0.25 -14.3 0.2 -14.3 Q0.15 -14.35 0.1 -14.3 L0.1 -14.2 -0.05 -14.15 -0.3 -14.1 Q-0.35 -14.35 -0.5 -14.5 L-0.8 -14.8 -0.65 -14.85 -0.4 -14.9 -0.3 -15.25 M2.15 -1.65 L2.25 -1.45 2.2 -1.4 Q1.8 -1.1 1.7 -1.1 1.2 -1.1 1.2 -0.75 L1.45 0.25 1.4 0.45 1.35 0.5 Q1.25 0.2 1.0 0.2 0.8 0.2 0.75 0.35 L0.7 0.65 Q0.55 0.25 0.55 0.0 0.55 -0.7 1.35 -1.15 L1.45 -1.2 Q1.45 -1.2 1.5 -1.25 L2.05 -1.55 2.15 -1.65 M3.2 1.15 L2.8 1.15 2.5 0.5 Q2.35 0.05 2.05 0.05 1.95 0.05 1.9 0.1 L1.9 -0.45 2.1 -0.5 3.2 1.15 M1.95 0.75 L2.0 0.75 Q2.2 0.95 2.25 1.25 L2.25 1.95 1.95 1.95 1.45 1.65 1.4 1.6 Q1.3 1.5 1.3 1.4 L1.35 1.15 1.4 0.95 1.45 1.2 Q1.65 1.55 1.95 1.55 2.15 1.65 2.15 1.4 L1.95 0.75 M-1.45 1.65 L-1.55 1.7 -1.95 1.95 -2.25 1.95 -2.25 1.3 Q-2.2 0.95 -2.0 0.8 -1.85 0.6 -1.85 0.4 -1.85 0.2 -1.9 0.15 L-1.95 0.1 -1.75 -0.2 -1.75 -0.15 -1.7 0.1 Q-1.7 0.3 -1.85 0.6 -2.0 0.9 -1.95 1.2 -1.6 1.05 -1.45 0.6 L-1.4 0.55 -1.35 0.25 -1.15 -1.0 Q-1.1 -1.0 -1.1 -0.95 -0.6 -0.55 -0.6 0.0 -0.6 0.25 -0.7 0.65 L-0.75 0.45 -0.75 0.35 Q-0.85 0.2 -1.0 0.2 -1.4 0.2 -1.4 0.9 L-1.35 1.05 -1.35 1.15 -1.3 1.45 Q-1.3 1.5 -1.4 1.65 L-1.45 1.65 M-2.45 -1.05 L-2.15 -1.65 -2.05 -1.55 -1.7 -1.35 -1.75 -1.2 -2.15 -1.4 Q-2.2 -1.4 -2.45 -1.05 M-3.7 0.85 L-3.7 0.9 -3.7 0.85" fill="#4a443b" fill-rule="evenodd" stroke="none"/>
    <path d="M0.35 -15.55 Q0.15 -15.35 0.05 -15.35 -0.1 -15.35 -0.2 -15.45 L-0.2 -15.7 -0.15 -15.9 -0.1 -15.95 0.2 -16.0 0.3 -15.75 0.35 -15.55 M1.1 -14.65 L1.15 -14.65 1.15 -14.45 Q1.15 -14.25 1.05 -14.05 0.95 -13.75 0.8 -13.75 L0.65 -13.75 Q0.65 -13.8 0.65 -13.9 L0.7 -14.4 0.75 -14.4 0.85 -14.35 Q0.95 -14.35 1.05 -14.5 L1.1 -14.65 M0.55 -15.05 L0.8 -15.05 1.05 -15.0 Q1.1 -14.95 1.1 -14.7 L1.05 -14.55 0.9 -14.45 0.4 -14.55 0.45 -14.8 Q0.45 -15.05 0.55 -15.05 M0.15 -14.0 L0.25 -13.95 0.3 -13.85 0.3 -13.65 0.45 -13.4 Q0.45 -13.4 0.65 -13.3 L0.8 -13.2 0.8 -13.15 0.75 -13.15 Q0.6 -12.95 0.05 -12.95 L-0.45 -13.0 Q-0.85 -13.05 -0.85 -13.15 -0.85 -13.25 -0.65 -13.35 -0.4 -13.4 -0.4 -13.5 L-0.15 -13.8 0.15 -14.0 M-0.8 -11.55 Q-0.75 -11.55 -0.75 -11.6 L-0.75 -11.75 -0.65 -11.75 Q-0.7 -11.85 -0.65 -11.9 L-0.6 -12.0 -0.75 -12.15 -0.9 -12.25 -0.85 -12.35 -0.8 -12.55 -0.8 -13.05 -0.6 -12.95 -0.1 -12.85 Q0.3 -12.85 0.8 -13.1 L0.9 -13.05 0.65 -12.3 Q0.6 -12.05 0.4 -12.0 0.25 -11.9 0.25 -11.8 0.25 -11.75 0.35 -11.65 L0.4 -11.55 0.35 -11.4 0.3 -11.3 0.3 -11.15 Q0.0 -11.15 -0.3 -11.25 L-0.6 -11.35 Q-0.7 -11.35 -0.75 -11.5 L-0.8 -11.55" fill="#9b9388" fill-rule="evenodd" stroke="none"/>
    <path d="M0.4 -11.2 L0.4 -11.4 0.5 -11.6 0.45 -11.65 0.4 -11.8 0.45 -11.9 Q0.65 -11.85 0.85 -11.95 1.05 -12.1 1.1 -12.35 L1.3 -12.3 1.45 -12.4 1.45 -12.45 1.5 -12.45 1.7 -12.6 Q1.8 -12.45 2.55 -12.0 L3.2 -11.5 Q3.2 -11.05 2.65 -10.9 2.05 -10.75 2.05 -10.2 2.0 -10.2 1.9 -10.3 L1.8 -10.4 1.65 -10.2 1.6 -10.3 1.5 -10.2 1.3 -10.0 Q1.05 -9.75 0.75 -9.75 0.55 -9.75 0.55 -9.9 0.55 -10.05 0.5 -10.15 L0.4 -10.4 0.4 -10.45 Q0.7 -10.4 0.95 -10.6 1.35 -10.85 1.45 -10.85 1.7 -10.9 2.05 -11.1 L2.55 -11.35 Q2.5 -11.3 2.45 -11.4 L2.55 -11.45 2.55 -11.5 Q2.5 -11.5 2.4 -11.55 2.25 -11.65 2.25 -11.7 L2.3 -11.75 2.3 -11.75 2.35 -11.7 Q2.4 -11.65 2.5 -11.65 L2.55 -11.7 2.2 -11.95 Q1.95 -12.1 1.85 -12.15 L1.85 -12.1 2.05 -11.9 2.15 -11.75 2.05 -11.75 1.7 -12.0 1.6 -11.95 Q1.5 -11.9 1.5 -11.85 L1.55 -11.75 1.6 -11.65 1.55 -11.55 1.5 -11.5 1.45 -11.55 1.35 -11.6 1.15 -11.4 0.95 -11.15 Q0.95 -11.1 1.0 -11.05 L1.1 -10.95 Q1.1 -10.85 0.95 -10.85 L0.7 -10.8 Q0.45 -10.8 0.4 -11.2 M-1.65 -10.15 L-1.8 -10.4 -1.95 -10.3 Q-2.0 -10.2 -2.1 -10.2 -2.05 -10.75 -2.65 -10.9 -3.25 -11.05 -3.25 -11.5 L-2.55 -11.95 Q-1.8 -12.45 -1.7 -12.6 L-1.55 -12.45 -1.5 -12.4 -1.3 -12.3 Q-1.1 -12.3 -0.95 -12.4 -1.0 -12.25 -1.15 -12.15 L-1.25 -12.15 Q-1.5 -12.1 -1.5 -12.05 -1.5 -11.95 -1.35 -11.9 L-1.2 -11.9 Q-1.15 -11.9 -1.05 -11.95 L-0.85 -12.15 -0.8 -12.1 -0.8 -11.95 -0.7 -12.0 Q-0.65 -11.85 -0.8 -11.75 L-0.85 -11.7 Q-1.0 -11.65 -1.1 -11.65 L-1.5 -11.75 -1.55 -11.7 -1.5 -11.6 -1.6 -11.6 -1.75 -11.7 -1.8 -11.6 -1.85 -11.55 Q-1.85 -11.45 -1.7 -11.35 L-1.55 -11.25 -1.5 -11.2 Q-1.6 -11.2 -1.65 -11.25 L-1.65 -11.25 -1.8 -11.3 Q-1.9 -11.3 -1.9 -11.2 -1.9 -11.05 -1.25 -10.9 L-0.35 -10.75 -0.35 -10.7 -0.55 -10.7 -1.0 -10.8 -1.25 -10.8 -1.25 -10.7 Q-1.3 -10.65 -1.35 -10.75 L-1.5 -10.8 -1.5 -10.75 -1.25 -10.5 Q-0.95 -10.25 -0.7 -10.2 L-0.7 -10.15 -0.85 -10.15 Q-1.05 -10.25 -1.25 -10.25 L-1.3 -10.2 -1.35 -10.15 -1.55 -10.25 -1.65 -10.15 -1.65 -10.15 M-0.1 -4.6 L0.0 -4.55 0.55 -5.05 0.7 -5.3 Q0.7 -5.15 0.8 -5.0 L0.65 -5.0 0.35 -4.65 Q0.1 -4.35 0.0 -4.35 -0.15 -4.35 -0.3 -4.55 L-0.5 -4.8 -0.7 -4.8 Q-0.65 -4.7 -0.8 -4.65 -0.7 -4.4 -0.55 -4.25 L-0.25 -4.05 -0.25 -4.0 Q-0.55 -4.05 -0.85 -4.25 L-1.1 -4.5 -0.9 -4.8 Q-0.75 -5.05 -0.75 -5.3 L-0.55 -5.05 -0.15 -4.7 -0.1 -4.6 M-0.05 -3.55 L0.0 -3.5 0.0 -3.5 0.55 -3.85 0.6 -3.9 Q0.6 -3.75 0.7 -3.65 L0.8 -3.55 0.65 -3.45 Q0.3 -3.15 0.2 -3.15 L0.05 -3.2 0.0 -3.25 -0.15 -3.3 -0.25 -3.25 -0.35 -3.2 Q-0.45 -3.2 -0.6 -3.35 L-0.65 -3.4 -0.8 -3.55 -0.7 -3.65 Q-0.6 -3.75 -0.6 -3.9 L-0.55 -3.85 -0.1 -3.6 -0.05 -3.55 M0.65 -2.75 L0.6 -2.65 0.5 -2.55 Q0.3 -2.35 0.0 -2.3 -0.3 -2.35 -0.5 -2.55 L-0.55 -2.6 0.0 -2.5 Q0.3 -2.5 0.5 -2.65 L0.65 -2.75" fill="#302b28" fill-rule="evenodd" stroke="none"/>
    <path d="M1.65 -10.2 L1.55 -10.05 1.5 -9.95 1.3 -9.75 Q1.05 -9.6 0.8 -9.6 0.7 -9.6 0.55 -9.4 L0.4 -9.25 0.4 -9.2 0.2 -8.95 0.0 -8.85 0.0 -8.85 Q-0.15 -8.9 -0.25 -9.0 L-0.4 -9.15 -0.4 -9.2 Q-0.6 -9.55 -0.8 -9.6 L-0.8 -9.6 Q-1.0 -9.6 -1.15 -9.7 L-1.3 -9.75 -1.5 -9.95 -1.6 -10.0 -1.65 -10.15 -1.65 -10.15 -1.55 -10.25 -1.35 -10.15 -1.3 -10.2 -1.25 -10.25 Q-1.05 -10.25 -0.85 -10.15 L-0.7 -10.15 -0.7 -10.2 Q-0.95 -10.25 -1.25 -10.5 L-1.5 -10.75 -1.5 -10.8 -1.35 -10.75 Q-1.3 -10.65 -1.25 -10.7 L-1.25 -10.8 -1.0 -10.8 -0.55 -10.7 -0.35 -10.7 -0.35 -10.75 -1.25 -10.9 Q-1.9 -11.05 -1.9 -11.2 -1.9 -11.3 -1.8 -11.3 L-1.65 -11.25 -1.65 -11.25 Q-1.6 -11.2 -1.5 -11.2 L-1.55 -11.25 -1.45 -11.25 -1.0 -11.1 Q-0.65 -10.95 -0.5 -10.95 L-0.25 -11.0 -0.05 -10.8 Q0.1 -10.6 0.25 -10.6 L0.8 -10.65 Q0.9 -10.65 0.95 -10.7 L0.95 -10.85 Q1.1 -10.85 1.1 -10.95 L1.0 -11.05 Q0.95 -11.1 0.95 -11.15 L1.15 -11.4 1.35 -11.6 1.45 -11.55 1.5 -11.5 1.55 -11.55 1.6 -11.65 1.55 -11.75 1.5 -11.85 Q1.5 -11.9 1.6 -11.95 L1.7 -12.0 2.05 -11.75 2.15 -11.75 2.05 -11.9 1.85 -12.1 1.85 -12.15 Q1.95 -12.1 2.2 -11.95 L2.55 -11.7 2.5 -11.65 Q2.4 -11.65 2.35 -11.7 L2.3 -11.75 2.3 -11.75 2.25 -11.7 Q2.25 -11.65 2.4 -11.55 2.5 -11.5 2.55 -11.5 L2.55 -11.45 2.45 -11.4 Q2.5 -11.3 2.55 -11.35 L2.05 -11.1 Q1.7 -10.9 1.45 -10.85 1.35 -10.85 0.95 -10.6 0.7 -10.4 0.4 -10.45 L0.4 -10.4 0.5 -10.15 Q0.55 -10.05 0.55 -9.9 0.55 -9.75 0.75 -9.75 1.05 -9.75 1.3 -10.0 L1.5 -10.2 1.6 -10.3 1.65 -10.2 M0.8 -5.9 L0.95 -5.95 1.05 -6.0 1.05 -6.0 1.05 -6.0 1.1 -6.0 1.1 -6.05 1.15 -6.0 1.2 -5.95 Q1.3 -5.75 1.4 -5.75 1.4 -5.05 1.9 -4.7 2.1 -4.5 2.35 -4.45 2.35 -4.3 2.2 -4.25 L1.95 -4.2 2.05 -4.05 2.25 -4.05 2.45 -4.1 2.7 -4.15 2.9 -4.05 Q3.0 -3.9 3.15 -3.9 L3.15 -3.9 2.85 -3.85 2.8 -3.8 2.95 -3.4 Q2.3 -3.2 1.45 -2.8 L0.5 -2.55 0.6 -2.65 0.65 -2.75 0.85 -3.15 0.9 -3.55 0.8 -3.55 0.7 -3.65 Q0.6 -3.75 0.6 -3.9 1.1 -4.25 1.1 -4.45 L1.1 -4.55 1.0 -4.7 0.9 -4.85 0.8 -5.0 Q0.7 -5.15 0.7 -5.3 L0.75 -5.3 Q1.1 -5.75 1.1 -5.9 L1.05 -6.0 1.05 -6.0 0.9 -5.95 0.8 -5.9 M1.3 -5.1 L1.3 -5.25 1.3 -5.35 Q1.25 -5.35 1.25 -5.4 1.15 -5.4 1.1 -5.35 L1.1 -5.1 1.25 -5.1 1.3 -5.1 M1.55 -3.85 L1.5 -3.75 Q1.5 -3.6 1.55 -3.55 L1.75 -3.55 1.75 -3.6 1.8 -3.7 1.75 -3.85 1.7 -3.9 1.55 -3.9 1.55 -3.85 M-0.8 -3.55 L-0.95 -3.55 Q-0.9 -3.15 -0.7 -2.85 L-1.4 -3.05 -2.65 -3.4 -2.7 -3.55 Q-2.7 -3.75 -2.5 -3.75 L-2.2 -3.75 -2.2 -3.9 -2.6 -3.9 -2.6 -4.15 -2.5 -4.15 Q-2.45 -4.15 -2.45 -4.25 L-2.5 -4.55 Q-2.5 -4.65 -2.15 -4.65 L-2.25 -5.05 Q-2.25 -5.2 -2.05 -5.35 L-1.95 -5.2 -1.8 -5.2 Q-1.7 -5.6 -1.5 -5.8 L-1.4 -5.9 Q-1.25 -6.0 -1.05 -6.05 L-1.1 -5.9 Q-1.1 -5.75 -0.75 -5.3 L-0.75 -5.3 Q-0.75 -5.05 -0.9 -4.8 L-1.1 -4.5 -1.1 -4.45 Q-1.1 -4.25 -0.6 -3.9 -0.6 -3.75 -0.7 -3.65 L-0.8 -3.55 M0.75 -1.05 L0.8 -1.05 0.75 -1.05 0.75 -1.05 M-1.25 -5.2 L-1.5 -5.2 -1.5 -4.9 -1.4 -4.85 -1.4 -4.85 Q-1.3 -4.85 -1.25 -4.95 L-1.25 -5.2 M-1.95 -3.85 L-2.0 -3.7 -1.95 -3.65 -1.9 -3.65 -1.75 -3.75 Q-1.7 -3.8 -1.75 -3.9 L-1.75 -3.95 Q-1.9 -3.95 -1.95 -3.85" fill="#5a5851" fill-rule="evenodd" stroke="none"/>
    <path d="M0.3 -11.15 L0.4 -11.2 0.4 -11.2 Q0.45 -10.8 0.7 -10.8 L0.95 -10.85 0.95 -10.7 Q0.9 -10.65 0.8 -10.65 L0.25 -10.6 Q0.1 -10.6 -0.05 -10.8 L-0.25 -11.0 -0.5 -10.95 Q-0.65 -10.95 -1.0 -11.1 L-1.45 -11.25 -1.55 -11.25 -1.7 -11.35 Q-1.85 -11.45 -1.85 -11.55 L-1.8 -11.6 -1.75 -11.7 -1.6 -11.6 -1.5 -11.6 -1.55 -11.7 -1.5 -11.75 -1.1 -11.65 Q-1.0 -11.65 -0.85 -11.7 L-0.8 -11.55 -0.75 -11.5 Q-0.7 -11.35 -0.6 -11.35 L-0.3 -11.25 Q0.0 -11.15 0.3 -11.15" fill="#dad7ca" fill-rule="evenodd" stroke="none"/>
    <path d="M0.2 -8.95 L0.2 -8.9 Q0.25 -8.75 0.4 -8.6 L0.25 -8.25 Q0.15 -8.05 0.15 -7.85 L0.2 -7.65 0.3 -7.45 Q0.3 -7.3 0.05 -7.2 -0.2 -7.05 -0.25 -6.95 L-0.45 -6.95 Q-0.35 -7.15 -0.5 -7.25 -0.55 -7.25 -0.6 -7.25 L-0.6 -7.35 -0.55 -7.35 -0.4 -7.35 -0.4 -7.45 -0.5 -7.6 -0.55 -7.75 -0.35 -7.8 Q-0.25 -7.85 -0.25 -7.95 L-0.3 -8.05 -0.35 -8.2 -0.25 -9.0 Q-0.15 -8.9 0.0 -8.85 L0.0 -8.85 0.2 -8.95 M0.45 -6.55 Q0.15 -5.95 -0.05 -5.95 L-0.2 -5.95 -0.4 -6.0 -0.35 -6.15 -0.3 -6.25 Q-0.45 -6.65 -0.45 -6.9 -0.15 -6.9 0.15 -7.15 0.45 -7.4 0.5 -7.4 L0.65 -7.3 0.7 -7.25 0.65 -7.2 0.55 -6.8 0.4 -6.75 0.45 -6.55" fill="#b6b1a1" fill-rule="evenodd" stroke="none"/>
    <path d="M1.95 -6.6 Q2.25 -5.7 2.75 -4.9 3.2 -4.2 3.6 -3.8 L3.6 -3.7 3.0 -4.4 Q2.7 -4.75 2.35 -4.75 1.8 -6.2 1.65 -6.7 L1.75 -6.65 1.95 -6.6 M-3.1 -3.35 Q-3.65 -3.6 -3.65 -3.8 -3.2 -4.2 -2.75 -4.9 -2.25 -5.7 -2.0 -6.6 L-1.75 -6.65 -2.45 -5.15 Q-3.1 -3.7 -3.1 -3.5 L-3.1 -3.35 M0.75 -1.05 L0.7 -1.05 Q0.7 -1.35 0.85 -1.5 1.1 -1.65 1.15 -1.75 1.0 -1.85 0.95 -1.9 L0.95 -1.95 1.45 -2.05 Q1.85 -2.15 1.95 -2.35 1.85 -1.5 1.5 -1.25 1.45 -1.2 1.45 -1.2 L1.35 -1.15 1.3 -1.15 0.95 -1.1 0.75 -1.05 M-1.45 -1.95 L-1.4 -1.95 -1.2 -1.85 -1.2 -1.85 -1.15 -1.8 -1.25 -1.55 -1.25 -1.5 -1.25 -1.3 -1.4 -1.35 Q-1.8 -1.5 -2.0 -1.65 L-1.95 -1.75 -1.95 -1.85 -2.0 -2.0 -2.05 -2.05 -2.0 -2.2 -1.95 -2.25 -1.45 -1.95" fill="#a49a97" fill-rule="evenodd" stroke="none"/>
    <path d="M3.6 -3.7 L3.55 -3.7 Q3.45 -3.5 3.0 -3.3 L2.95 -3.4 2.8 -3.8 2.85 -3.85 3.15 -3.9 3.15 -3.9 Q3.0 -3.9 2.9 -4.05 L2.7 -4.15 2.45 -4.1 2.25 -4.05 2.05 -4.05 1.95 -4.2 2.2 -4.25 Q2.35 -4.3 2.35 -4.45 2.1 -4.5 1.9 -4.7 1.4 -5.05 1.4 -5.75 1.3 -5.75 1.2 -5.95 L1.15 -6.0 1.1 -6.05 1.1 -6.0 1.05 -6.0 1.05 -6.0 1.0 -6.1 Q0.9 -6.25 0.9 -6.4 0.9 -6.8 1.25 -6.8 L1.65 -6.7 Q1.8 -6.2 2.35 -4.75 2.7 -4.75 3.0 -4.4 L3.6 -3.7 M-2.6 -3.15 L-3.1 -3.35 -3.1 -3.5 Q-3.1 -3.7 -2.45 -5.15 L-1.75 -6.65 -1.4 -6.75 -1.25 -6.8 Q-0.9 -6.8 -0.9 -6.4 -0.9 -6.25 -1.0 -6.1 L-1.05 -6.05 Q-1.25 -6.0 -1.4 -5.9 L-1.5 -5.8 Q-1.7 -5.6 -1.8 -5.2 L-1.95 -5.2 -2.05 -5.35 Q-2.25 -5.2 -2.25 -5.05 L-2.15 -4.65 Q-2.5 -4.65 -2.5 -4.55 L-2.45 -4.25 Q-2.45 -4.15 -2.5 -4.15 L-2.6 -4.15 -2.6 -3.9 -2.2 -3.9 -2.2 -3.75 -2.5 -3.75 Q-2.7 -3.75 -2.7 -3.55 L-2.65 -3.4 -2.6 -3.25 -2.6 -3.15" fill="#4e4d4d" fill-rule="evenodd" stroke="none"/>
    <path d="M2.25 -1.45 L2.35 -1.25 2.25 -1.2 Q1.95 -1.1 2.1 -0.7 L2.05 -0.7 1.95 -0.95 Q1.9 -1.05 1.8 -1.05 L1.6 -0.95 1.45 -0.75 1.45 -0.35 Q1.55 0.0 1.65 0.1 L1.7 -0.2 1.75 -0.45 1.7 -0.6 1.65 -0.7 1.7 -0.8 1.7 -0.85 1.8 -0.85 Q1.95 -0.65 2.2 -0.45 L2.55 -0.2 2.95 0.4 Q3.25 0.95 3.35 0.95 3.45 0.95 3.6 0.75 L3.65 0.65 3.95 1.15 Q3.9 1.15 3.9 1.15 L3.2 1.15 2.1 -0.5 1.9 -0.45 1.9 0.1 1.85 0.15 Q1.85 0.2 1.85 0.4 1.85 0.6 1.95 0.75 L2.15 1.4 Q2.15 1.65 1.95 1.55 1.65 1.55 1.45 1.2 L1.4 0.95 1.4 0.9 1.35 0.5 1.4 0.45 1.45 0.25 1.2 -0.75 Q1.2 -1.1 1.7 -1.1 1.8 -1.1 2.2 -1.4 L2.25 -1.45 M-1.95 0.1 L-2.1 0.05 Q-2.35 0.05 -2.55 0.5 -2.75 1.1 -2.8 1.2 L-3.95 1.2 -3.95 1.15 -3.85 0.9 -3.0 -0.25 -3.0 -0.25 -3.7 0.85 -3.65 0.85 -3.05 1.0 Q-2.05 -0.55 -1.75 -1.2 L-1.7 -1.35 -1.45 -1.2 -1.4 -1.2 -1.2 -1.05 -1.35 -1.05 -1.4 -1.05 -1.7 -1.15 -1.7 -1.1 -1.65 -1.0 -1.7 -0.7 -1.8 -0.4 -1.75 -0.2 -1.95 0.1 M-2.0 -6.6 L-2.15 -6.55 Q-2.35 -6.55 -2.5 -6.65 L-2.75 -6.9 -2.85 -7.1 -2.85 -7.4 -2.45 -7.5 -2.1 -7.55 -1.8 -7.5 Q-1.8 -7.45 -1.75 -7.45 L-1.75 -7.45 Q-1.5 -7.3 -1.4 -7.3 -0.9 -7.3 -0.7 -7.6 L-0.55 -7.35 -0.6 -7.35 -0.6 -7.25 -0.6 -7.15 -0.9 -7.2 -0.9 -6.95 -0.95 -6.95 -1.0 -7.0 -1.0 -6.85 -0.75 -6.75 Q-0.6 -6.7 -0.6 -6.6 L-0.7 -6.35 Q-0.7 -6.05 -0.45 -5.85 -0.2 -5.7 0.1 -5.7 L0.25 -5.75 0.35 -5.7 Q0.5 -5.7 0.75 -5.85 L0.8 -5.9 0.9 -5.95 Q0.8 -5.75 0.45 -5.6 0.15 -5.5 -0.15 -5.5 -0.3 -5.5 -0.35 -5.6 L-0.35 -5.55 -0.4 -5.45 Q-0.4 -5.25 -0.25 -5.05 -0.15 -4.85 -0.15 -4.7 L-0.55 -5.05 -0.75 -5.3 -0.75 -5.3 Q-1.1 -5.75 -1.1 -5.9 L-1.05 -6.05 -1.0 -6.1 Q-0.9 -6.25 -0.9 -6.4 -0.9 -6.8 -1.25 -6.8 L-1.4 -6.75 -1.75 -6.65 -2.0 -6.6 M1.05 -6.0 L1.05 -6.0 1.05 -6.0 1.1 -5.9 Q1.1 -5.75 0.75 -5.3 L0.7 -5.3 0.55 -5.05 0.0 -4.55 -0.1 -4.6 Q0.2 -4.8 0.45 -5.15 L1.05 -6.0 M-1.1 -4.5 L-0.85 -4.25 Q-0.55 -4.05 -0.25 -4.0 L-0.25 -4.05 -0.55 -4.25 Q-0.7 -4.4 -0.8 -4.65 -0.65 -4.7 -0.7 -4.8 L-0.5 -4.8 -0.3 -4.55 Q-0.15 -4.35 0.0 -4.35 0.1 -4.35 0.35 -4.65 L0.65 -5.0 0.8 -5.0 0.9 -4.85 1.0 -4.7 0.4 -4.35 Q0.1 -4.2 -0.1 -3.6 L-0.55 -3.85 -0.6 -3.9 Q-1.1 -4.25 -1.1 -4.45 L-1.1 -4.5 M1.1 -4.55 L1.1 -4.45 Q1.1 -4.25 0.6 -3.9 L0.55 -3.85 0.0 -3.5 0.0 -3.5 -0.05 -3.55 0.6 -4.0 Q0.9 -4.25 1.1 -4.55 M0.8 -3.55 L0.9 -3.55 0.85 -3.15 0.65 -2.75 0.5 -2.65 Q0.3 -2.5 0.0 -2.5 L-0.55 -2.6 -0.6 -2.6 -0.7 -2.85 Q-0.9 -3.15 -0.95 -3.55 L-0.8 -3.55 -0.65 -3.4 -0.6 -3.35 -0.65 -3.35 -0.65 -3.1 -0.4 -2.8 Q-0.25 -2.6 -0.05 -2.6 0.15 -2.6 0.45 -2.8 L0.7 -2.95 0.7 -3.25 0.5 -3.25 0.4 -3.1 0.25 -3.1 Q0.15 -3.1 0.05 -3.2 L0.2 -3.15 Q0.3 -3.15 0.65 -3.45 L0.8 -3.55 M-3.7 0.85 L-3.7 0.9 -3.7 0.85" fill="#53524f" fill-rule="evenodd" stroke="none"/>
    <path d="M0.9 -5.95 L1.05 -6.0 0.45 -5.15 Q0.2 -4.8 -0.1 -4.6 L-0.15 -4.7 Q-0.15 -4.85 -0.25 -5.05 -0.4 -5.25 -0.4 -5.45 L-0.35 -5.55 -0.35 -5.6 Q-0.3 -5.5 -0.15 -5.5 0.15 -5.5 0.45 -5.6 0.8 -5.75 0.9 -5.95 M1.1 -4.55 Q0.9 -4.25 0.6 -4.0 L-0.05 -3.55 -0.1 -3.6 Q0.1 -4.2 0.4 -4.35 L1.0 -4.7 1.1 -4.55" fill="#727271" fill-rule="evenodd" stroke="none"/>
    <path d="M1.3 -5.1 L1.25 -5.1 1.1 -5.1 1.1 -5.35 Q1.15 -5.4 1.25 -5.4 1.25 -5.35 1.3 -5.35 L1.3 -5.25 1.3 -5.1 M1.55 -3.85 L1.55 -3.9 1.7 -3.9 1.75 -3.85 1.8 -3.7 1.75 -3.6 1.75 -3.55 1.55 -3.55 Q1.5 -3.6 1.5 -3.75 L1.55 -3.85 M-1.25 -5.2 L-1.25 -4.95 Q-1.3 -4.85 -1.4 -4.85 L-1.4 -4.85 -1.5 -4.9 -1.5 -5.2 -1.25 -5.2 M-1.95 -3.85 Q-1.9 -3.95 -1.75 -3.95 L-1.75 -3.9 Q-1.7 -3.8 -1.75 -3.75 L-1.9 -3.65 -1.95 -3.65 -2.0 -3.7 -1.95 -3.85" fill="#2c2624" fill-rule="evenodd" stroke="none"/>
    <path d="M3.0 -3.3 L2.05 -2.95 2.0 -2.95 1.45 -2.8 Q2.3 -3.2 2.95 -3.4 L3.0 -3.3 M-2.0 -2.95 L-2.1 -2.95 -2.6 -3.15 -2.6 -3.25 -2.65 -3.4 -1.4 -3.05 -0.7 -2.85 -0.6 -2.6 -0.55 -2.6 -0.5 -2.55 -2.0 -2.95" fill="#c9beb9" fill-rule="evenodd" stroke="none"/>
    <path d="M2.05 -2.7 L2.15 -2.55 Q2.3 -2.1 2.3 -2.0 2.3 -1.8 2.15 -1.65 L2.05 -1.55 1.5 -1.25 Q1.85 -1.5 1.95 -2.35 1.85 -2.15 1.45 -2.05 L0.95 -1.95 0.95 -1.9 Q1.0 -1.85 1.15 -1.75 1.1 -1.65 0.85 -1.5 0.7 -1.35 0.7 -1.05 L0.75 -1.05 0.95 -1.1 1.3 -1.15 1.35 -1.15 Q0.55 -0.7 0.55 0.0 0.55 0.25 0.7 0.65 L0.8 1.0 0.95 1.45 1.05 1.65 Q1.05 1.7 0.85 1.9 L0.5 2.2 0.4 2.25 0.0 2.55 0.0 2.6 -0.5 2.2 Q-1.05 1.8 -1.05 1.65 L-1.0 1.5 -0.9 1.3 -0.8 1.0 -0.7 0.65 Q-0.6 0.25 -0.6 0.0 -0.6 -0.55 -1.1 -0.95 L-1.05 -1.0 -1.05 -1.05 -1.1 -1.25 -1.2 -1.4 -1.25 -1.5 -1.25 -1.55 -1.15 -1.8 -1.2 -1.85 -1.2 -1.85 -1.4 -1.95 -1.45 -1.95 -1.4 -2.0 -1.35 -2.15 -1.2 -2.4 Q-0.95 -2.35 -0.7 -2.1 L-0.25 -1.7 -0.3 -1.55 -0.35 -1.45 -0.3 -1.35 -0.15 -1.25 -0.1 -1.4 0.05 -1.5 0.05 -1.25 Q0.05 -1.05 0.15 -1.05 0.2 -1.05 0.25 -1.1 L0.35 -1.2 0.4 -1.15 Q0.4 -1.1 0.45 -1.1 0.6 -1.1 0.6 -1.3 L0.55 -1.65 Q0.45 -1.8 0.45 -2.0 0.45 -2.15 1.25 -2.45 L2.05 -2.7 M0.75 -1.05 L0.75 -1.05 0.8 -1.05 0.75 -1.05 M0.3 -1.05 L0.1 -0.95 Q0.0 -0.85 -0.05 -0.85 -0.2 -0.85 -0.25 -1.05 -0.35 -1.2 -0.45 -1.2 L-0.45 -1.55 Q-0.5 -1.65 -0.6 -1.65 -0.7 -1.65 -0.75 -1.4 -0.85 -1.15 -1.0 -1.2 L-1.05 -1.15 -0.95 -1.0 -0.75 -0.6 Q-0.45 -0.2 -0.45 0.1 L-0.45 0.15 Q0.0 -0.15 0.2 -0.3 0.55 -0.5 0.65 -0.75 L0.45 -0.95 0.3 -1.05 M0.35 0.35 L0.25 0.5 0.15 0.7 0.2 0.7 0.4 0.65 0.45 0.6 0.4 0.55 0.35 0.35 M0.2 1.1 L0.2 1.05 Q0.1 1.1 0.1 1.45 0.0 1.4 -0.05 1.25 L-0.1 1.3 -0.15 1.5 Q-0.3 1.4 -0.3 1.3 L-0.25 1.05 Q-0.15 0.95 -0.15 0.8 L-0.2 0.45 -0.4 0.4 -0.65 1.0 Q-0.8 1.35 -0.8 1.55 L-0.55 1.95 Q-0.25 2.3 -0.15 2.3 0.0 2.3 0.4 1.95 L0.45 1.9 0.75 1.65 0.7 1.45 Q0.65 1.25 0.5 1.1 0.35 1.15 0.3 1.25 L0.2 1.25 0.15 1.25 Q0.15 1.1 0.2 1.1" fill="#726863" fill-rule="evenodd" stroke="none"/>
    <path d="M2.0 -2.95 L2.05 -2.7 1.25 -2.45 Q0.45 -2.15 0.45 -2.0 0.45 -1.8 0.55 -1.65 L0.6 -1.3 Q0.6 -1.1 0.45 -1.1 0.4 -1.1 0.4 -1.15 L0.35 -1.2 0.25 -1.1 Q0.2 -1.05 0.15 -1.05 0.05 -1.05 0.05 -1.25 L0.05 -1.5 -0.1 -1.4 -0.15 -1.25 -0.3 -1.35 -0.35 -1.45 -0.3 -1.55 -0.25 -1.7 -0.7 -2.1 Q-0.95 -2.35 -1.2 -2.4 L-1.35 -2.15 -1.4 -2.0 -1.45 -1.95 -1.95 -2.25 -2.0 -2.2 -2.05 -2.05 -2.0 -2.0 -1.95 -1.85 -1.95 -1.75 -2.0 -1.65 Q-1.8 -1.5 -1.4 -1.35 L-1.25 -1.3 -1.25 -1.5 -1.2 -1.4 -1.1 -1.25 -1.05 -1.05 -1.05 -1.0 -1.1 -0.95 Q-1.1 -1.0 -1.15 -1.0 L-1.2 -1.05 -1.4 -1.2 -1.45 -1.2 -1.7 -1.35 -2.05 -1.55 -2.15 -1.65 Q-2.3 -1.8 -2.3 -2.0 L-2.15 -2.55 -2.0 -2.95 -0.5 -2.55 Q-0.3 -2.35 0.0 -2.3 0.3 -2.35 0.5 -2.55 L1.45 -2.8 2.0 -2.95" fill="#4a4847" fill-rule="evenodd" stroke="none"/>
    <path d="M0.3 -1.05 L0.45 -0.95 0.65 -0.75 Q0.55 -0.5 0.2 -0.3 0.0 -0.15 -0.45 0.15 L-0.45 0.1 Q-0.45 -0.2 -0.75 -0.6 L-0.95 -1.0 -1.05 -1.15 -1.0 -1.2 Q-0.85 -1.15 -0.75 -1.4 -0.7 -1.65 -0.6 -1.65 -0.5 -1.65 -0.45 -1.55 L-0.45 -1.2 Q-0.35 -1.2 -0.25 -1.05 -0.2 -0.85 -0.05 -0.85 0.0 -0.85 0.1 -0.95 L0.3 -1.05 M0.2 1.1 Q0.15 1.1 0.15 1.25 L0.2 1.25 0.3 1.25 Q0.35 1.15 0.5 1.1 0.65 1.25 0.7 1.45 L0.75 1.65 0.45 1.9 0.4 1.95 Q0.0 2.3 -0.15 2.3 -0.25 2.3 -0.55 1.95 L-0.8 1.55 Q-0.8 1.35 -0.65 1.0 L-0.4 0.4 -0.2 0.45 -0.15 0.8 Q-0.15 0.95 -0.25 1.05 L-0.3 1.3 Q-0.3 1.4 -0.15 1.5 L-0.1 1.3 -0.05 1.25 Q0.0 1.4 0.1 1.45 0.1 1.1 0.2 1.05 L0.2 1.1 M0.35 0.35 L0.4 0.55 0.45 0.6 0.4 0.65 0.2 0.7 0.15 0.7 0.25 0.5 0.35 0.35" fill="#a3948d" fill-rule="evenodd" stroke="none"/>
    <path d="M1.45 1.95 L1.45 2.0 Q1.4 2.65 1.0 3.2 L0.9 3.3 Q0.55 3.65 0.1 3.75 L-0.1 3.75 -0.3 3.75 -0.45 3.7 -0.5 3.65 -0.65 3.5 -0.45 3.6 Q0.1 3.6 0.55 3.4 L0.7 3.3 Q1.15 2.95 1.15 2.35 L1.1 1.9 Q1.1 1.65 1.25 1.55 1.25 1.65 1.3 1.75 L1.45 1.95 M1.05 0.3 Q1.15 0.3 1.2 0.5 L1.25 0.85 1.25 1.05 1.0 0.8 0.75 0.4 Q0.9 0.3 1.05 0.3 M-1.25 1.25 L-1.25 1.1 -1.15 0.65 Q-1.1 0.45 -0.95 0.35 L-0.8 0.6 -0.8 0.6 -0.95 1.0 Q-1.05 1.2 -1.15 1.35 L-1.25 1.45 -1.25 1.25" fill="#87827e" fill-rule="evenodd" stroke="none"/>
    <path d="M1.45 1.65 L1.45 1.95 1.3 1.75 Q1.25 1.65 1.25 1.55 1.1 1.65 1.1 1.9 L1.15 2.35 Q1.15 2.95 0.7 3.3 L0.55 3.4 Q0.1 3.6 -0.45 3.6 L-0.65 3.5 -0.5 3.65 -0.45 3.7 -0.5 3.65 -0.75 3.6 -0.7 3.5 -0.65 3.3 -0.65 3.3 Q-0.65 3.15 -1.0 2.85 -1.3 2.55 -1.3 2.05 L-1.0 1.45 Q-1.1 1.4 -1.15 1.35 -1.05 1.2 -0.95 1.0 L-0.8 0.6 -0.8 0.6 -0.95 0.35 Q-1.1 0.45 -1.15 0.65 L-1.25 1.1 -1.25 1.25 -1.3 1.2 -1.35 1.05 -1.4 0.9 Q-1.4 0.2 -1.0 0.2 -0.85 0.2 -0.75 0.35 L-0.75 0.45 -0.7 0.65 -0.8 1.0 -0.9 1.3 -1.0 1.5 -1.05 1.65 Q-1.05 1.8 -0.5 2.2 L0.0 2.6 0.0 2.55 0.4 2.25 0.35 2.45 Q0.2 2.8 0.2 2.9 L0.25 3.0 0.3 3.15 0.2 3.3 0.1 3.4 0.15 3.45 0.2 3.45 Q0.5 3.45 0.7 3.3 L0.9 3.05 Q1.1 2.65 1.1 2.35 1.1 2.15 0.85 1.95 L0.85 1.9 Q1.05 1.7 1.05 1.65 L0.95 1.45 0.8 1.0 0.7 0.65 0.75 0.35 Q0.8 0.2 1.0 0.2 1.25 0.2 1.35 0.5 L1.4 0.9 1.4 0.95 1.35 1.15 1.3 1.4 Q1.3 1.5 1.4 1.6 L1.45 1.65 M1.45 2.0 L1.45 2.6 Q1.45 2.95 1.3 3.25 L1.25 3.3 Q1.15 3.45 1.0 3.5 L0.9 3.5 0.9 3.55 0.5 3.65 0.25 3.75 0.0 3.8 0.0 3.8 -0.1 3.75 0.1 3.75 Q0.55 3.65 0.9 3.3 L1.0 3.2 Q1.4 2.65 1.45 2.0 M1.05 0.3 Q0.9 0.3 0.75 0.4 L1.0 0.8 1.25 1.05 1.25 0.85 1.2 0.5 Q1.15 0.3 1.05 0.3" fill="#4a4543" fill-rule="evenodd" stroke="none"/>
    <path d="M-0.9 3.55 L-0.9 3.5 -1.0 3.5 -1.25 3.3 -1.3 3.25 Q-1.4 3.1 -1.4 2.95 L-1.45 2.6 -1.45 1.65 -1.4 1.65 Q-1.3 1.5 -1.3 1.45 L-1.35 1.15 -1.35 1.05 -1.3 1.2 -1.25 1.25 -1.25 1.45 -1.15 1.35 Q-1.1 1.4 -1.0 1.45 L-1.3 2.05 Q-1.3 2.55 -1.0 2.85 -0.65 3.15 -0.65 3.3 L-0.65 3.3 -0.7 3.5 -0.75 3.6 -0.9 3.55 M0.4 2.25 L0.5 2.2 0.85 1.9 0.85 1.95 Q1.1 2.15 1.1 2.35 1.1 2.65 0.9 3.05 L0.7 3.3 Q0.5 3.45 0.2 3.45 L0.15 3.45 0.1 3.4 0.2 3.3 0.3 3.15 0.25 3.0 0.2 2.9 Q0.2 2.8 0.35 2.45 L0.4 2.25" fill="#1d1a19" fill-rule="evenodd" stroke="none"/>
    <path d="M0.9 3.55 L0.9 3.6 1.05 3.7 1.0 3.75 0.85 3.8 0.5 3.95 0.0 4.2 -0.85 3.8 -1.0 3.75 -1.05 3.7 -0.9 3.6 -0.9 3.55 -0.75 3.6 -0.5 3.65 -0.45 3.7 -0.4 3.75 -0.25 3.75 -0.1 3.75 0.0 3.8 0.0 3.8 0.25 3.75 0.5 3.65 0.9 3.55 M1.4 7.55 Q1.25 7.65 0.85 7.75 L1.0 8.0 1.15 8.25 Q0.9 8.5 0.45 8.65 L0.0 8.75 -0.1 8.7 -0.15 8.7 -0.35 8.7 -0.4 8.6 -0.4 8.55 -0.35 8.55 -0.3 8.5 -0.55 8.45 -0.55 8.45 -0.85 8.35 -0.95 8.25 -1.1 8.15 -1.05 8.05 -1.0 8.0 -0.9 7.85 -0.85 7.8 -0.85 7.8 0.0 8.05 0.25 7.95 Q0.3 7.75 0.45 7.55 L0.25 7.55 -0.15 7.65 -0.45 7.7 -1.25 7.6 -1.25 7.55 Q-0.95 7.55 -0.75 7.3 L-0.45 6.95 -0.5 6.9 -0.45 6.8 -0.4 6.8 -0.25 6.8 -0.25 6.75 Q-0.4 6.7 -0.5 6.6 L-0.55 6.45 -0.55 6.4 -0.5 6.3 -0.45 6.25 -0.55 6.1 -0.6 6.0 -0.45 6.0 -0.2 6.15 0.15 6.2 0.15 6.15 -0.25 6.05 Q-0.55 5.95 -0.6 5.7 -0.15 5.85 0.2 5.85 0.15 5.75 -0.1 5.7 L-0.6 5.7 -0.6 5.6 -0.6 5.4 -0.35 5.5 -0.1 5.55 0.1 5.55 0.1 5.25 -0.6 5.15 -0.6 5.1 -0.4 5.05 Q-0.6 4.8 -0.6 4.45 -0.5 4.25 -0.4 4.2 L-0.2 4.35 Q-0.15 4.4 0.0 4.4 L0.15 4.35 0.35 4.35 0.65 4.4 0.65 4.6 0.5 5.45 Q0.4 6.2 0.45 6.4 L0.35 6.4 0.3 6.45 0.45 6.55 0.5 6.6 0.45 6.6 0.3 6.65 Q0.2 6.65 0.2 6.7 L0.2 6.75 0.4 6.75 0.5 6.8 0.35 6.85 0.35 6.95 Q0.35 7.15 0.75 7.4 1.05 7.55 1.4 7.55 M0.85 8.75 L0.0 10.0 0.0 10.05 -0.25 9.65 -0.25 9.35 Q-0.2 9.0 -0.1 8.9 -0.05 8.85 0.0 8.85 L0.2 8.85 0.35 8.8 0.35 8.85 0.4 8.85 0.45 8.85 0.85 8.75" fill="#221d1b" fill-rule="evenodd" stroke="none"/>
    <path d="M0.85 3.8 L0.7 5.0 0.6 6.45 0.6 6.55 Q0.6 6.95 0.75 7.1 0.85 7.25 1.4 7.5 L1.4 7.55 Q1.05 7.55 0.75 7.4 0.35 7.15 0.35 6.95 L0.35 6.85 0.5 6.8 0.4 6.75 0.2 6.75 0.2 6.7 Q0.2 6.65 0.3 6.65 L0.45 6.6 0.5 6.6 0.45 6.55 0.3 6.45 0.35 6.4 0.45 6.4 Q0.4 6.2 0.5 5.45 L0.65 4.6 0.65 4.4 0.35 4.35 0.15 4.35 0.0 4.4 Q-0.15 4.4 -0.2 4.35 L-0.4 4.2 Q-0.5 4.25 -0.6 4.45 -0.6 4.8 -0.4 5.05 L-0.6 5.1 -0.6 5.15 0.1 5.25 0.1 5.55 -0.1 5.55 -0.35 5.5 -0.6 5.4 -0.6 5.6 -0.6 5.7 -0.1 5.7 Q0.15 5.75 0.2 5.85 -0.15 5.85 -0.6 5.7 -0.55 5.95 -0.25 6.05 L0.15 6.15 0.15 6.2 -0.2 6.15 -0.45 6.0 -0.6 6.0 -0.55 6.1 -0.45 6.25 -0.5 6.3 -0.55 6.4 -0.55 6.45 -0.5 6.6 Q-0.4 6.7 -0.25 6.75 L-0.25 6.8 -0.4 6.8 -0.45 6.8 -0.5 6.9 -0.45 6.95 -0.75 7.3 Q-0.95 7.55 -1.25 7.55 L-1.25 7.6 -0.45 7.7 -0.15 7.65 0.25 7.55 0.45 7.55 Q0.3 7.75 0.25 7.95 L0.0 8.05 -0.85 7.8 -0.85 7.8 Q-1.3 7.65 -1.4 7.5 -0.85 7.25 -0.75 7.1 -0.6 7.0 -0.6 6.55 L-0.6 6.45 -0.7 5.05 -0.85 3.8 0.0 4.2 0.5 3.95 0.85 3.8 M1.15 8.25 L0.85 8.75 0.45 8.85 0.4 8.85 0.35 8.85 0.35 8.8 0.2 8.85 -0.15 8.7 -0.1 8.7 0.0 8.75 0.45 8.65 Q0.9 8.5 1.15 8.25 M-0.25 9.65 L-1.15 8.25 -1.1 8.15 -0.95 8.25 -0.85 8.35 -0.75 8.6 -0.45 9.1 -0.35 8.95 -0.2 8.9 -0.1 8.9 Q-0.2 9.0 -0.25 9.35 L-0.25 9.65 M-0.4 8.55 Q-0.45 8.5 -0.55 8.5 L-0.55 8.45 -0.3 8.5 -0.35 8.55 -0.4 8.55" fill="#3b3735" fill-rule="evenodd" stroke="none"/>
    <path d="M0.2 8.85 L0.0 8.85 Q-0.05 8.85 -0.1 8.9 L-0.2 8.9 -0.35 8.95 -0.45 9.1 -0.75 8.6 -0.85 8.35 -0.55 8.45 -0.55 8.45 -0.55 8.5 Q-0.45 8.5 -0.4 8.55 L-0.4 8.6 -0.35 8.7 -0.15 8.7 0.2 8.85" fill="#5b5857" fill-rule="evenodd" stroke="none"/>
    <path d="M0.35 -30.4 Q0.15 -31.55 0.0 -32.05 L0.0 -32.0 Q-0.4 -30.95 -0.65 -26.7 -0.95 -22.65 -0.95 -19.8 L-1.0 -19.25 -1.05 -19.0 Q-1.15 -19.1 -1.2 -19.1 -1.45 -19.1 -1.65 -18.75 -1.8 -18.45 -1.85 -18.1 L-1.85 -18.0 -1.85 -17.9 Q-1.85 -17.4 -1.2 -17.0 L-1.15 -17.0 -1.2 -16.6 -1.25 -16.0 -1.3 -14.85 Q-1.4 -13.55 -1.55 -12.45 L-1.7 -12.6 Q-1.8 -12.45 -2.55 -11.95 L-3.25 -11.5 Q-3.25 -11.05 -2.65 -10.9 -2.05 -10.75 -2.1 -10.2 -2.0 -10.2 -1.95 -10.3 L-1.8 -10.4 -1.65 -10.15 -1.6 -10.0 -1.5 -9.95 -1.6 -8.65 Q-1.6 -8.35 -1.65 -8.1 L-1.7 -7.85 -1.75 -7.45 Q-1.8 -7.45 -1.8 -7.5 L-2.1 -7.55 -2.45 -7.5 -2.85 -7.4 -2.85 -7.1 -2.75 -6.9 -2.5 -6.65 Q-2.35 -6.55 -2.15 -6.55 L-2.0 -6.6 Q-2.25 -5.7 -2.75 -4.9 -3.2 -4.2 -3.65 -3.8 -3.65 -3.6 -3.1 -3.35 L-2.6 -3.15 -2.1 -2.95 -2.0 -2.95 -2.15 -2.55 -2.3 -2.0 Q-2.3 -1.8 -2.15 -1.65 L-2.45 -1.05 -2.95 -0.3 -2.95 -0.3 -3.0 -0.25 -3.85 0.9 -3.95 1.15 -3.95 1.2 -2.8 1.2 Q-2.75 1.1 -2.55 0.5 -2.35 0.05 -2.1 0.05 L-1.95 0.1 -1.9 0.15 Q-1.85 0.2 -1.85 0.4 -1.85 0.6 -2.0 0.8 -2.2 0.95 -2.25 1.3 L-2.25 1.95 -1.95 1.95 -1.55 1.7 -1.45 1.65 -1.45 2.6 -1.4 2.95 Q-1.4 3.1 -1.3 3.25 L-1.25 3.3 -1.0 3.5 -0.9 3.5 -0.9 3.55 -0.9 3.6 -1.05 3.7 -1.0 3.75 -0.85 3.8 -0.7 5.05 -0.6 6.45 -0.6 6.55 Q-0.6 7.0 -0.75 7.1 -0.85 7.25 -1.4 7.5 -1.3 7.65 -0.85 7.8 L-0.9 7.85 -1.0 8.0 -1.05 8.05 -1.1 8.15 -1.15 8.25 -0.25 9.65 0.0 10.05 0.0 10.0 0.85 8.75 1.15 8.25 1.0 8.0 0.85 7.75 Q1.25 7.65 1.4 7.55 L1.4 7.5 Q0.85 7.25 0.75 7.1 0.6 6.95 0.6 6.55 L0.6 6.45 0.7 5.0 0.85 3.8 1.0 3.75 1.05 3.7 0.9 3.6 0.9 3.55 0.9 3.5 1.0 3.5 Q1.15 3.45 1.25 3.3 L1.3 3.25 Q1.45 2.95 1.45 2.6 L1.45 2.0 M1.05 -19.0 L1.0 -19.25 Q0.9 -19.6 0.9 -19.8 L0.9 -20.4 Q0.9 -22.55 0.75 -25.35 L0.7 -26.1 0.65 -26.7 Q0.5 -29.0 0.35 -30.4 M1.15 -17.0 L1.2 -17.0 Q1.85 -17.4 1.85 -17.95 1.85 -18.4 1.65 -18.75 1.45 -19.1 1.15 -19.1 L1.05 -19.0 M1.35 -14.15 L1.3 -14.85 1.15 -17.0 M1.4 -13.85 L1.35 -14.15 M1.5 -12.45 L1.5 -12.75 1.4 -13.85 M1.5 -12.45 L1.7 -12.6 Q1.8 -12.45 2.55 -12.0 L3.2 -11.5 Q3.2 -11.05 2.65 -10.9 2.05 -10.75 2.05 -10.2 2.0 -10.2 1.9 -10.3 L1.8 -10.4 1.65 -10.2 1.55 -10.05 1.5 -9.95 1.6 -8.65 1.65 -8.1 1.7 -7.85 1.7 -7.65 1.75 -7.45 1.8 -7.5 2.05 -7.6 2.85 -7.4 2.85 -7.1 Q2.7 -6.8 2.5 -6.65 2.35 -6.55 2.15 -6.55 L1.95 -6.6 Q2.25 -5.7 2.75 -4.9 3.2 -4.2 3.6 -3.8 L3.6 -3.7 3.55 -3.7 Q3.45 -3.5 3.0 -3.3 L2.05 -2.95 2.0 -2.95 2.05 -2.7 2.15 -2.55 Q2.3 -2.1 2.3 -2.0 2.3 -1.8 2.15 -1.65 L2.25 -1.45 2.35 -1.25 Q2.6 -0.8 3.0 -0.25 L3.65 0.65 3.95 1.15 Q3.9 1.15 3.9 1.15 L3.2 1.15 2.8 1.15 2.5 0.5 Q2.35 0.05 2.05 0.05 1.95 0.05 1.9 0.1 L1.85 0.15 Q1.85 0.2 1.85 0.4 1.85 0.6 1.95 0.75 L2.0 0.75 Q2.2 0.95 2.25 1.25 L2.25 1.95 1.95 1.95 1.45 1.65 1.45 1.95" fill="none" stroke="#000000" stroke-linecap="round" stroke-linejoin="round" stroke-opacity="0.4509804" stroke-width="0.1"/>
  </g>
</svg>
