<?xml version="1.0" encoding="UTF-8" standalone="no"?>
<svg xmlns:xlink="http://www.w3.org/1999/xlink" height="51.85px" width="12.95px" xmlns="http://www.w3.org/2000/svg">
  <g transform="matrix(1.0, 0.0, 0.0, 1.0, 7.0, 32.6)">
    <path d="M-1.75 -13.35 L-1.0 -13.6 -0.75 -13.6 -0.65 -13.65 Q-0.5 -14.6 -0.5 -16.05 L-0.45 -18.45 -0.4 -21.2 Q-0.35 -23.0 -0.35 -23.95 L-0.35 -25.6 Q-0.35 -26.55 -0.4 -27.15 L-0.4 -28.2 Q-0.35 -28.8 -0.5 -29.2 L0.1 -29.1 Q0.0 -26.2 0.0 -21.65 L0.0 -14.2 Q-0.05 -13.9 0.15 -13.7 L0.55 -13.35 -0.5 -13.45 0.0 -13.0 Q0.0 -12.75 0.1 -11.85 0.15 -11.15 0.05 -10.7 L-0.7 -10.9 Q-0.8 -11.4 -0.75 -12.15 L-0.65 -13.35 -1.75 -13.35" fill="#c7d3e5" fill-rule="evenodd" stroke="none"/>
    <path d="M-0.75 -18.25 L-0.75 -18.9 -0.7 -19.6 -0.7 -21.55 Q-0.65 -22.7 -0.55 -23.45 L-0.55 -24.95 -0.5 -26.5 Q-0.5 -26.85 -0.4 -27.15 -0.35 -26.55 -0.35 -25.6 L-0.35 -23.95 Q-0.35 -23.0 -0.4 -21.2 L-0.45 -18.45 -0.5 -16.05 Q-0.5 -14.6 -0.65 -13.65 L-0.75 -13.6 -0.75 -15.95 Q-0.7 -17.35 -0.75 -18.25" fill="#909dbd" fill-rule="evenodd" stroke="none"/>
    <path d="M-0.5 -29.2 Q-0.5 -29.9 -0.35 -30.85 L0.0 -32.55 0.05 -31.7 0.15 -30.9 Q0.2 -29.95 0.1 -29.1 L-0.5 -29.2" fill="#dce3ee" fill-rule="evenodd" stroke="none"/>
    <path d="M-1.0 -13.6 Q-1.05 -14.35 -0.95 -15.45 L-0.9 -16.85 Q-0.85 -17.7 -0.75 -18.25 -0.7 -17.35 -0.75 -15.95 L-0.75 -13.6 -1.0 -13.6" fill="#595f7c" fill-rule="evenodd" stroke="none"/>
    <path d="M-1.45 -11.05 Q-1.25 -11.4 -1.25 -12.15 -1.25 -12.9 -1.0 -13.2 L-1.45 -13.2 Q-1.7 -13.25 -1.9 -13.35 L-1.75 -13.35 -0.65 -13.35 -0.75 -12.15 Q-0.8 -11.4 -0.7 -10.9 L0.05 -10.7 0.15 -10.7 -0.65 -10.75 -1.45 -11.05" fill="#646c8c" fill-rule="evenodd" stroke="none"/>
    <path d="M-1.4 -7.65 L-1.4 -10.1 Q-1.35 -10.35 -1.45 -10.65 L-1.7 -11.2 -1.45 -11.05 -0.65 -10.75 -0.95 -10.7 -1.2 -10.65 -1.3 -9.15 -1.4 -7.65" fill="#363a4f" fill-rule="evenodd" stroke="none"/>
    <path d="M0.15 -10.7 L0.05 -10.35 Q-0.2 -9.85 -0.1 -9.0 L0.05 -7.65 0.05 -3.5 -0.25 -3.5 -0.25 -3.5 -0.15 -4.65 Q-0.1 -5.3 -0.15 -5.75 L-0.3 -7.25 -0.4 -8.75 -0.7 -8.7 -0.7 -9.7 -0.65 -10.75 0.15 -10.7" fill="#bac6dc" fill-rule="evenodd" stroke="none"/>
    <path d="M0.15 -10.7 L0.75 -10.6 0.75 -8.6 0.8 -6.55 0.8 -4.95 Q0.85 -4.05 0.7 -3.4 L0.1 -3.4 0.1 -3.4 0.05 -3.4 0.0 -3.4 -0.15 -3.4 -0.45 -3.4 Q-1.1 -3.45 -1.45 -3.55 L-1.5 -4.1 Q-1.2 -5.05 -1.2 -5.55 -1.05 -7.25 -0.95 -10.7 L-0.65 -10.75 -0.7 -9.7 -0.7 -9.1 -0.95 -6.3 Q-1.1 -4.7 -1.05 -3.55 L-0.7 -3.5 -0.25 -3.5 0.05 -3.5 0.3 -3.55 0.35 -5.8 Q0.35 -7.15 0.25 -8.1 L0.2 -9.25 Q0.15 -9.9 0.05 -10.35 L0.15 -10.7" fill="#7483a8" fill-rule="evenodd" stroke="none"/>
    <path d="M-1.5 -6.3 L-1.4 -7.65 -1.3 -9.15 -1.2 -10.65 -0.95 -10.7 Q-1.05 -7.25 -1.2 -5.55 -1.2 -5.05 -1.5 -4.1 L-1.5 -6.3" fill="#5a6180" fill-rule="evenodd" stroke="none"/>
    <path d="M-0.7 -8.7 L-0.4 -8.75 -0.3 -7.25 -0.15 -5.75 Q-0.1 -5.3 -0.15 -4.65 L-0.25 -3.5 -0.25 -3.5 -0.7 -3.5 -0.75 -5.9 -0.7 -7.3 -0.7 -8.7" fill="#dee6f1" fill-rule="evenodd" stroke="none"/>
    <path d="M-0.7 -9.1 L-0.7 -8.7 -0.7 -7.3 -0.75 -5.9 -0.7 -3.5 -1.05 -3.55 Q-1.1 -4.7 -0.95 -6.3 L-0.7 -9.1" fill="#9da9c6" fill-rule="evenodd" stroke="none"/>
    <path d="M-2.15 0.15 Q-2.15 -0.25 -2.0 -0.95 -1.85 -1.7 -1.8 -2.05 L-1.65 -4.15 -1.5 -6.3 -1.5 -4.1 -1.45 -3.55 Q-1.1 -3.45 -0.45 -3.4 L-0.55 -3.0 -1.15 -3.25 -1.4 -2.85 -0.85 -2.85 -0.95 -2.45 -0.7 -1.75 -0.95 -1.65 -1.3 -1.55 Q-1.45 -1.5 -1.55 -1.4 L-1.85 -0.6 Q-1.95 -0.15 -2.15 0.15" fill="#432e2e" fill-rule="evenodd" stroke="none"/>
    <path d="M-0.45 -3.4 L-0.15 -3.4 0.0 -3.4 0.05 -3.4 0.1 -3.4 0.1 -3.4 0.05 -3.2 -0.3 -3.1 -0.2 -2.7 -0.1 -2.2 Q0.0 -1.9 0.15 -1.75 0.3 -1.8 0.5 -1.9 L0.8 -2.05 0.8 -1.95 0.55 -1.6 0.3 -1.65 -0.25 -2.05 -0.7 -1.75 -0.95 -2.45 -0.85 -2.85 -1.4 -2.85 -1.15 -3.25 -0.55 -3.0 -0.45 -3.4" fill="#8b636a" fill-rule="evenodd" stroke="none"/>
    <path d="M-0.2 -2.7 L-0.3 -3.1 0.05 -3.2 -0.2 -2.7" fill="#b596af" fill-rule="evenodd" stroke="none"/>
    <path d="M0.9 2.55 L0.8 2.85 0.75 3.2 0.3 2.4 0.7 2.3 Q0.55 1.9 0.0 0.85 L0.0 0.65 Q0.15 -0.6 0.05 -1.45 L0.0 -1.55 -0.65 -1.55 -0.7 -1.2 -1.3 0.4 Q-1.45 0.9 -1.8 1.4 L-2.55 2.25 Q-2.75 2.25 -2.95 2.1 -2.9 1.85 -2.65 1.55 L-2.2 1.1 Q-1.75 0.7 -1.45 -0.2 L-0.95 -1.65 -0.7 -1.75 -0.25 -2.05 0.3 -1.65 Q0.55 -0.8 0.55 0.1 0.55 1.0 1.0 2.1 L1.5 2.25 2.5 2.25 1.75 2.35 1.0 2.4 0.9 2.55" fill="#a0b0cd" fill-rule="evenodd" stroke="none"/>
    <path d="M-2.55 2.55 L-3.75 2.7 Q-4.1 2.45 -4.7 2.45 L-5.65 2.5 -5.2 2.3 -4.75 2.1 -4.6 1.85 -4.45 1.6 -4.0 1.6 -4.0 1.75 -3.85 2.3 -3.3 1.9 -3.75 1.8 -3.8 1.8 -3.85 1.75 -3.5 1.7 -3.5 1.7 Q-3.3 1.65 -3.2 1.5 -2.75 1.05 -2.15 0.15 -1.95 -0.15 -1.85 -0.6 L-1.55 -1.4 Q-1.45 -1.5 -1.3 -1.55 L-0.95 -1.65 -1.45 -0.2 Q-1.75 0.7 -2.2 1.1 L-2.65 1.55 Q-2.9 1.85 -2.95 2.1 -2.75 2.25 -2.55 2.25 L-2.2 2.3 -2.25 2.35 -2.55 2.55" fill="#657395" fill-rule="evenodd" stroke="none"/>
    <path d="M-0.7 -1.2 L-0.65 -1.55 0.0 -1.55 0.05 -1.45 -0.35 -1.4 -0.25 -0.35 Q-0.2 0.2 0.0 0.65 L0.0 0.85 -0.15 1.6 -0.35 1.7 -0.45 1.75 -1.0 2.0 Q-1.55 1.7 -1.8 1.65 -0.8 0.75 -0.7 -1.2" fill="#fbfcfe" fill-rule="evenodd" stroke="none"/>
    <path d="M0.05 -1.45 Q0.15 -0.6 0.0 0.65 -0.2 0.2 -0.25 -0.35 L-0.35 -1.4 0.05 -1.45" fill="#c8d4e5" fill-rule="evenodd" stroke="none"/>
    <path d="M0.35 -26.25 Q0.45 -25.7 0.5 -24.95 L0.55 -23.6 0.6 -21.85 0.75 -20.1 0.8 -16.85 0.9 -13.6 0.55 -13.6 Q0.55 -15.3 0.4 -16.85 L0.4 -19.0 0.35 -21.2 0.25 -23.75 Q0.2 -25.2 0.35 -26.25" fill="#4a516f" fill-rule="evenodd" stroke="none"/>
    <path d="M0.15 -30.9 Q0.4 -30.3 0.5 -29.45 0.5 -29.25 0.4 -28.95 0.25 -28.65 0.25 -28.5 L0.35 -27.35 Q0.4 -26.75 0.35 -26.25 0.2 -25.2 0.25 -23.75 L0.35 -21.2 0.4 -19.0 0.4 -16.85 Q0.55 -15.3 0.55 -13.6 L0.9 -13.6 Q1.35 -13.65 1.75 -13.25 L1.25 -13.2 0.8 -13.2 0.8 -11.3 0.55 -11.45 0.45 -13.15 0.0 -13.0 -0.5 -13.45 0.55 -13.35 0.15 -13.7 Q-0.05 -13.9 0.0 -14.2 L0.0 -21.65 Q0.0 -26.2 0.1 -29.1 0.2 -29.95 0.15 -30.9" fill="#6c7b9f" fill-rule="evenodd" stroke="none"/>
    <path d="M1.25 -13.2 Q1.15 -12.8 1.15 -12.25 L1.25 -11.2 1.15 -11.2 1.05 -11.25 0.8 -11.3 0.8 -13.2 1.25 -13.2" fill="#404a68" fill-rule="evenodd" stroke="none"/>
    <path d="M0.0 -13.0 L0.45 -13.15 0.55 -11.45 0.8 -11.3 0.9 -11.0 0.05 -10.7 Q0.15 -11.15 0.1 -11.85 0.0 -12.75 0.0 -13.0" fill="#7f8db1" fill-rule="evenodd" stroke="none"/>
    <path d="M1.15 -11.2 L1.35 -11.15 Q1.35 -11.0 1.45 -10.85 L0.95 -10.8 Q0.85 -9.9 0.95 -8.6 L1.1 -6.5 1.2 -5.0 Q1.25 -4.15 1.3 -3.5 L0.8 -3.4 0.7 -3.4 Q0.85 -4.05 0.8 -4.95 L0.8 -6.55 0.75 -8.6 0.75 -10.6 0.15 -10.7 0.05 -10.7 0.9 -11.0 0.8 -11.3 1.05 -11.25 1.15 -11.2" fill="#526183" fill-rule="evenodd" stroke="none"/>
    <path d="M1.35 -11.15 Q1.5 -11.25 1.55 -11.1 1.65 -10.95 1.5 -10.85 L1.45 -10.85 Q1.35 -11.0 1.35 -11.15" fill="#757fa1" fill-rule="evenodd" stroke="none"/>
    <path d="M1.5 -10.85 L1.25 -10.6 Q1.55 -6.4 1.55 -3.55 L1.3 -3.5 Q1.25 -4.15 1.2 -5.0 L1.1 -6.5 0.95 -8.6 Q0.85 -9.9 0.95 -10.8 L1.45 -10.85 1.5 -10.85" fill="#3e4864" fill-rule="evenodd" stroke="none"/>
    <path d="M0.05 -3.5 L0.05 -7.65 -0.1 -9.0 Q-0.2 -9.85 0.05 -10.35 0.15 -9.9 0.2 -9.25 L0.25 -8.1 Q0.35 -7.15 0.35 -5.8 L0.3 -3.55 0.05 -3.5" fill="#99a7c5" fill-rule="evenodd" stroke="none"/>
    <path d="M0.7 -3.4 L0.8 -3.4 0.8 -3.3 Q0.6 -3.25 0.55 -3.05 0.55 -2.8 0.8 -2.8 L1.35 -2.5 1.2 -2.2 Q1.3 -2.45 1.1 -2.45 0.9 -2.45 0.95 -2.25 L0.7 -2.4 0.8 -2.05 0.5 -1.9 Q0.3 -1.8 0.15 -1.75 0.0 -1.9 -0.1 -2.2 L-0.2 -2.7 0.05 -3.2 0.1 -3.4 0.7 -3.4 M0.35 -2.5 Q0.2 -2.65 0.1 -2.5 -0.05 -2.4 0.1 -2.25 0.25 -2.1 0.4 -2.25 0.5 -2.35 0.35 -2.5" fill="#452e30" fill-rule="evenodd" stroke="none"/>
    <path d="M1.55 -3.55 L1.7 -2.55 1.8 -1.55 1.5 -1.45 1.5 -1.45 1.0 -1.35 0.85 -1.8 0.85 -1.85 0.8 -1.95 0.8 -2.05 0.7 -2.4 0.95 -2.25 1.2 -2.2 1.35 -2.5 0.8 -2.8 Q0.9 -3.05 0.8 -3.3 L0.8 -3.4 1.3 -3.5 1.55 -3.55" fill="#2d2227" fill-rule="evenodd" stroke="none"/>
    <path d="M0.8 -2.8 Q0.55 -2.8 0.55 -3.05 0.6 -3.25 0.8 -3.3 0.9 -3.05 0.8 -2.8" fill="#80728d" fill-rule="evenodd" stroke="none"/>
    <path d="M0.35 -2.5 Q0.5 -2.35 0.4 -2.25 0.25 -2.1 0.1 -2.25 -0.05 -2.4 0.1 -2.5 0.2 -2.65 0.35 -2.5" fill="#816e89" fill-rule="evenodd" stroke="none"/>
    <path d="M0.55 -1.6 L0.8 -1.95 0.85 -1.85 0.85 -1.8 1.0 -1.35 1.15 -0.45 Q1.3 0.05 1.4 0.4 L1.95 1.7 1.45 1.7 Q1.1 0.8 1.0 0.35 0.9 0.1 0.8 -0.65 0.7 -1.25 0.55 -1.6" fill="#697a9f" fill-rule="evenodd" stroke="none"/>
    <path d="M1.2 -2.2 L0.95 -2.25 Q0.9 -2.45 1.1 -2.45 1.3 -2.45 1.2 -2.2" fill="#7c718f" fill-rule="evenodd" stroke="none"/>
    <path d="M0.3 -1.65 L0.55 -1.6 Q0.7 -1.25 0.8 -0.65 0.9 0.1 1.0 0.35 1.1 0.8 1.45 1.7 L1.0 2.1 Q0.55 1.0 0.55 0.1 0.55 -0.8 0.3 -1.65" fill="#8393b6" fill-rule="evenodd" stroke="none"/>
    <path d="M1.0 -1.35 L1.5 -1.45 1.5 -1.45 Q1.5 -0.8 1.55 -0.4 1.65 0.2 1.9 0.65 2.3 1.55 2.95 1.7 L2.9 1.7 2.75 1.75 2.65 1.75 1.95 1.7 1.4 0.4 Q1.3 0.05 1.15 -0.45 L1.0 -1.35" fill="#4e597a" fill-rule="evenodd" stroke="none"/>
    <path d="M1.5 -1.45 L1.75 -1.3 1.85 -1.05 2.1 -0.15 Q2.3 0.35 2.5 0.65 L2.9 1.15 3.25 1.65 3.05 1.7 2.95 1.7 Q2.3 1.55 1.9 0.65 1.65 0.2 1.55 -0.4 1.5 -0.8 1.5 -1.45" fill="#30354c" fill-rule="evenodd" stroke="none"/>
    <path d="M3.6 1.6 L3.75 1.55 3.9 1.55 4.2 1.95 4.5 2.3 5.2 2.65 Q5.6 2.8 5.85 3.0 L4.95 2.9 Q4.35 2.85 4.0 2.7 3.6 2.35 3.0 2.4 L2.8 2.25 2.8 2.15 2.75 2.0 2.7 1.95 2.65 1.75 2.75 1.75 Q3.2 2.1 3.65 2.3 L3.6 1.6 3.75 1.55 3.6 1.6" fill="#8da5c6" fill-rule="evenodd" stroke="none"/>
    <path d="M2.9 1.7 L3.5 1.6 3.6 1.6 3.5 1.6 3.6 1.6 3.65 2.3 Q3.2 2.1 2.75 1.75 L2.9 1.7" fill="#dae3f5" fill-rule="evenodd" stroke="none"/>
    <path d="M1.95 1.7 L2.65 1.75 2.7 1.95 2.75 2.0 2.8 2.15 2.5 2.25 2.2 2.1 Q2.0 2.0 1.85 1.95 L1.5 2.25 1.0 2.1 1.45 1.7 1.95 1.7" fill="#b1cde4" fill-rule="evenodd" stroke="none"/>
    <path d="M3.5 2.8 L4.2 3.35 Q2.8 3.1 1.9 2.8 2.35 2.6 2.8 2.25 L3.0 2.4 3.5 2.8" fill="#d4e2f3" fill-rule="evenodd" stroke="none"/>
    <path d="M1.9 2.8 L0.9 2.55 1.0 2.4 1.75 2.35 2.5 2.25 2.8 2.15 2.8 2.25 Q2.35 2.6 1.9 2.8" fill="#56668c" fill-rule="evenodd" stroke="none"/>
    <path d="M4.0 2.7 L3.5 2.8 3.0 2.4 Q3.6 2.35 4.0 2.7" fill="#4e5c7e" fill-rule="evenodd" stroke="none"/>
    <path d="M0.75 3.2 L0.85 3.4 0.35 3.35 0.1 2.25 -0.65 2.35 -0.7 2.15 Q-0.5 2.05 0.1 1.85 L-0.45 1.75 -0.45 1.75 -0.35 1.7 -0.15 1.6 0.0 0.85 Q0.55 1.9 0.7 2.3 L0.3 2.4 0.75 3.2" fill="#c6dcee" fill-rule="evenodd" stroke="none"/>
    <path d="M1.5 2.25 L1.85 1.95 Q2.0 2.0 2.2 2.1 L2.5 2.25 1.5 2.25" fill="#f1f4fb" fill-rule="evenodd" stroke="none"/>
    <path d="M0.85 3.4 Q0.55 3.75 0.5 4.4 L0.5 5.5 0.4 5.5 0.4 5.25 0.4 5.15 0.4 3.8 0.35 3.35 0.85 3.4" fill="#3a3f54" fill-rule="evenodd" stroke="none"/>
    <path d="M0.25 3.85 L0.4 3.8 0.4 5.15 0.1 5.0 0.05 4.4 Q0.1 4.05 0.25 3.85" fill="#adbdd6" fill-rule="evenodd" stroke="none"/>
    <path d="M-0.55 3.85 L-0.5 3.75 -0.3 3.3 Q-0.2 3.05 -0.2 2.8 -0.25 2.7 -0.4 2.65 L-0.65 2.6 -1.8 2.4 -1.8 2.35 -1.35 2.45 -1.0 2.0 -0.45 1.75 -0.45 1.75 0.1 1.85 Q-0.5 2.05 -0.7 2.15 L-0.65 2.35 0.1 2.25 0.35 3.35 0.4 3.8 -0.55 3.85" fill="#697ea5" fill-rule="evenodd" stroke="none"/>
    <path d="M-0.3 3.85 L0.25 3.85 Q0.1 4.05 0.05 4.4 L0.1 5.0 0.4 5.15 0.4 5.25 0.1 5.25 Q0.15 6.0 0.15 7.6 L0.1 7.6 0.05 7.6 -0.2 7.6 Q-0.25 6.9 -0.25 5.7 L-0.3 3.85" fill="#e3ecf7" fill-rule="evenodd" stroke="none"/>
    <path d="M0.5 5.5 L0.5 7.65 1.95 8.2 1.5 8.35 -0.25 8.3 0.7 8.2 Q-0.05 7.75 -0.65 7.75 -0.6 7.1 -0.6 5.8 L-0.55 3.85 -0.3 3.85 -0.25 5.7 Q-0.25 6.9 -0.2 7.6 L0.05 7.6 0.1 7.6 0.2 7.6 0.25 7.6 0.4 7.6 0.4 5.5 0.5 5.5 M0.5 15.5 L0.95 15.75 0.25 15.95 -0.55 16.0 -1.35 15.85 -1.0 15.7 -0.65 15.5 Q-0.65 15.3 -0.65 14.85 L-0.65 14.15 -0.3 13.6 0.35 14.25 Q0.25 14.9 0.25 15.35 L0.5 15.5 M-0.25 14.2 Q-0.4 14.3 -0.4 14.4 L-0.45 15.2 Q-0.5 15.65 -0.7 15.95 L0.3 15.8 Q0.05 15.5 0.05 15.0 L0.05 14.1 -0.25 14.2" fill="#818daf" fill-rule="evenodd" stroke="none"/>
    <path d="M0.15 7.6 Q0.15 6.0 0.1 5.25 L0.4 5.25 0.4 5.5 0.4 7.6 0.25 7.6 0.2 7.6 0.15 7.6" fill="#a2b0cc" fill-rule="evenodd" stroke="none"/>
    <path d="M0.1 8.65 L0.75 8.65 Q0.5 9.5 0.7 10.2 L0.45 10.25 0.4 10.25 0.1 10.25 0.1 8.65" fill="#7682a5" fill-rule="evenodd" stroke="none"/>
    <path d="M1.5 8.35 Q1.35 8.7 1.2 9.55 1.0 10.3 0.8 10.65 L0.45 10.6 0.4 10.25 0.45 10.25 0.7 10.2 Q0.5 9.5 0.75 8.65 L0.1 8.65 -0.15 8.6 -0.75 8.25 -0.25 8.3 1.5 8.35" fill="#404560" fill-rule="evenodd" stroke="none"/>
    <path d="M0.8 10.65 Q1.05 10.75 1.0 11.1 L0.85 11.65 0.25 11.55 0.35 12.05 0.65 11.8 0.8 11.75 0.8 12.9 Q0.8 13.5 0.7 14.0 L0.55 13.95 0.5 13.95 0.25 13.9 0.2 13.5 -0.3 13.6 -0.65 14.15 Q-0.8 12.7 -1.05 10.25 L-0.6 10.25 0.1 10.25 0.4 10.25 0.45 10.6 0.8 10.65 M-0.25 10.5 Q-0.4 10.3 -0.7 10.35 L-0.7 10.95 -0.4 10.75 -0.25 10.5 M-0.7 12.05 L-0.05 12.0 -0.3 11.55 -0.65 11.65 -0.7 12.05 M0.0 12.2 L-0.05 12.6 0.25 12.6 0.25 12.15 0.0 12.2 M-0.25 12.8 L-0.55 12.8 -0.6 13.4 -0.05 13.35 -0.25 12.8 M0.15 11.45 L0.3 10.9 -0.6 11.1 Q-0.25 11.3 0.15 11.45" fill="#3a2c2f" fill-rule="evenodd" stroke="none"/>
    <path d="M0.85 11.65 L0.8 11.75 0.65 11.8 0.35 12.05 0.25 11.55 0.85 11.65" fill="#654f61" fill-rule="evenodd" stroke="none"/>
    <path d="M0.15 11.45 Q-0.25 11.3 -0.6 11.1 L0.3 10.9 0.15 11.45" fill="#9b6471" fill-rule="evenodd" stroke="none"/>
    <path d="M-0.15 8.6 L0.1 8.65 0.1 10.25 -0.6 10.25 Q-0.75 9.55 -0.85 8.6 L-0.15 8.6" fill="#b3bdd5" fill-rule="evenodd" stroke="none"/>
    <path d="M-0.7 12.05 L-0.65 11.65 -0.3 11.55 -0.05 12.0 -0.7 12.05 M-0.25 12.8 L-0.05 13.35 -0.6 13.4 -0.55 12.8 -0.25 12.8 M0.0 12.2 L0.25 12.15 0.25 12.6 -0.05 12.6 0.0 12.2" fill="#997087" fill-rule="evenodd" stroke="none"/>
    <path d="M0.7 14.0 L0.75 14.05 0.5 15.5 0.25 15.35 Q0.25 14.9 0.35 14.25 L-0.3 13.6 0.2 13.5 0.25 13.9 0.5 13.95 0.55 13.95 0.7 14.0" fill="#404661" fill-rule="evenodd" stroke="none"/>
    <path d="M-0.25 14.2 L0.05 14.1 0.05 15.0 Q0.05 15.5 0.3 15.8 L-0.7 15.95 Q-0.5 15.65 -0.45 15.2 L-0.4 14.4 Q-0.4 14.3 -0.25 14.2" fill="#b6c1d8" fill-rule="evenodd" stroke="none"/>
    <path d="M0.95 15.75 L1.35 15.8 0.5 16.2 0.2 17.7 Q0.0 18.6 0.0 19.2 -0.05 18.85 -0.25 17.9 -0.4 17.1 -0.4 16.65 L0.05 17.3 0.1 16.1 0.25 15.95 0.95 15.75" fill="#383c52" fill-rule="evenodd" stroke="none"/>
    <path d="M-0.4 16.65 L-0.55 16.15 0.1 16.1 0.05 17.3 -0.4 16.65" fill="#97a0be" fill-rule="evenodd" stroke="none"/>
    <path d="M-1.45 2.9 Q-2.05 3.3 -2.4 3.65 L-3.1 3.85 -3.8 3.9 -3.2 3.2 -2.55 2.55 -2.25 2.35 Q-1.85 2.7 -1.45 2.9" fill="#afcde4" fill-rule="evenodd" stroke="none"/>
    <path d="M-1.15 2.8 L-1.45 2.9 Q-1.85 2.7 -2.25 2.35 L-2.2 2.3 -1.8 2.35 -1.8 2.35 -1.8 2.4 -0.65 2.6 -1.15 2.8" fill="#485a7e" fill-rule="evenodd" stroke="none"/>
    <path d="M-2.55 2.25 L-1.8 1.4 Q-1.45 0.9 -1.3 0.4 L-0.7 -1.2 Q-0.8 0.75 -1.8 1.65 -1.55 1.7 -1.0 2.0 L-1.35 2.45 -1.8 2.35 -1.8 2.35 -2.2 2.3 -2.55 2.25" fill="#c3daed" fill-rule="evenodd" stroke="none"/>
    <path d="M-0.5 3.75 L-0.6 3.05 -1.15 2.8 -0.65 2.6 -0.4 2.65 Q-0.25 2.7 -0.2 2.8 -0.2 3.05 -0.3 3.3 L-0.5 3.75" fill="#262d41" fill-rule="evenodd" stroke="none"/>
    <path d="M-4.0 1.75 L-3.95 1.75 -3.9 1.75 -3.85 1.75 -3.8 1.8 -3.75 1.8 -3.3 1.9 -3.85 2.3 -4.0 1.75" fill="#b9d1e8" fill-rule="evenodd" stroke="none"/>
    <path d="M-3.75 2.7 Q-4.25 2.85 -5.15 3.0 L-6.6 3.25 -6.05 2.85 -6.95 2.95 -6.35 2.7 Q-5.95 2.55 -5.65 2.5 L-4.7 2.45 Q-4.1 2.45 -3.75 2.7" fill="#aac4dd" fill-rule="evenodd" stroke="none"/>
    <path d="M-1.7 8.25 L-1.8 8.25 -1.95 8.05 Q-1.05 7.8 -0.75 7.8 L-1.25 8.0 -1.25 8.25 -1.7 8.25" fill="#757c99" fill-rule="evenodd" stroke="none"/>
    <path d="M-0.75 7.8 L-0.65 7.75 Q-0.05 7.75 0.7 8.2 L-0.25 8.3 -0.75 8.25 -1.25 8.25 -1.25 8.0 -0.75 7.8" fill="#dae7f1" fill-rule="evenodd" stroke="none"/>
    <path d="M-1.3 8.9 L-1.7 8.25 -1.25 8.25 -0.75 8.25 -0.15 8.6 -0.85 8.6 -1.3 8.65 -1.3 8.85 -1.3 8.85 -1.3 8.9" fill="#1f212f" fill-rule="evenodd" stroke="none"/>
    <path d="M-1.05 10.25 L-1.2 9.55 -1.2 9.5 -1.3 8.95 -1.3 8.9 -1.3 8.85 -1.3 8.85 -1.3 8.65 -0.85 8.6 Q-0.75 9.55 -0.6 10.25 L-1.05 10.25" fill="#777fa0" fill-rule="evenodd" stroke="none"/>
    <path d="M-0.25 10.5 L-0.4 10.75 -0.7 10.95 -0.7 10.35 Q-0.4 10.3 -0.25 10.5" fill="#907a91" fill-rule="evenodd" stroke="none"/>
    <path d="M-0.5 -29.2 Q-0.5 -29.9 -0.35 -30.85 L0.0 -32.55 0.05 -31.7 0.15 -30.9 Q0.4 -30.3 0.5 -29.45 0.5 -29.25 0.4 -28.95 0.25 -28.65 0.25 -28.5 L0.35 -27.35 Q0.4 -26.75 0.35 -26.25 0.45 -25.7 0.5 -24.95 L0.55 -23.6 0.6 -21.85 0.75 -20.1 0.8 -16.85 0.9 -13.6 Q1.35 -13.65 1.75 -13.25 L1.25 -13.2 Q1.15 -12.8 1.15 -12.25 L1.25 -11.2 1.15 -11.2 1.35 -11.15 Q1.5 -11.25 1.55 -11.1 1.65 -10.95 1.5 -10.85 L1.25 -10.6 Q1.55 -6.4 1.55 -3.55 L1.7 -2.55 1.8 -1.55 1.5 -1.45 1.75 -1.3 1.85 -1.05 2.1 -0.15 Q2.3 0.35 2.5 0.65 L2.9 1.15 3.25 1.65 3.05 1.7 2.9 1.7 3.5 1.6 3.6 1.6 3.75 1.55 3.9 1.55 4.2 1.95 4.5 2.3 5.2 2.65 Q5.6 2.8 5.85 3.0 L4.95 2.9 Q4.35 2.85 4.0 2.7 L3.5 2.8 4.2 3.35 Q2.8 3.1 1.9 2.8 L0.9 2.55 0.8 2.85 0.75 3.2 0.85 3.4 Q0.55 3.75 0.5 4.4 L0.5 5.5 0.5 7.65 1.95 8.2 1.5 8.35 Q1.35 8.7 1.2 9.55 1.0 10.3 0.8 10.65 1.05 10.75 1.0 11.1 L0.85 11.65 0.8 11.75 0.8 12.9 Q0.8 13.5 0.7 14.0 L0.75 14.05 0.5 15.5 0.95 15.75 1.35 15.8 0.5 16.2 0.2 17.7 Q0.0 18.6 0.0 19.2 -0.05 18.85 -0.25 17.9 -0.4 17.1 -0.4 16.65 L-0.55 16.15 0.1 16.1 0.25 15.95 -0.55 16.0 -1.35 15.85 -1.0 15.7 -0.65 15.5 Q-0.65 15.3 -0.65 14.85 L-0.65 14.15 Q-0.8 12.7 -1.05 10.25 L-1.2 9.55 -1.2 9.5 -1.3 8.95 -1.3 8.9 -1.7 8.25 -1.8 8.25 -1.95 8.05 Q-1.05 7.8 -0.75 7.8 L-0.65 7.75 Q-0.6 7.1 -0.6 5.8 L-0.55 3.85 -0.5 3.75 -0.6 3.05 -1.15 2.8 -1.45 2.9 Q-2.05 3.3 -2.4 3.65 L-3.1 3.85 -3.8 3.9 -3.2 3.2 -2.55 2.55 -3.75 2.7 Q-4.25 2.85 -5.15 3.0 L-6.6 3.25 -6.05 2.85 -6.95 2.95 -6.35 2.7 Q-5.95 2.55 -5.65 2.5 L-5.2 2.3 -4.75 2.1 -4.6 1.85 -4.45 1.6 -4.0 1.6 -4.0 1.75 -3.95 1.75 -3.9 1.75 -3.85 1.75 -3.5 1.7 -3.5 1.7 Q-3.3 1.65 -3.2 1.5 -2.75 1.05 -2.15 0.15 -2.15 -0.25 -2.0 -0.95 -1.85 -1.7 -1.8 -2.05 L-1.65 -4.15 -1.5 -6.3 -1.4 -7.65 -1.4 -10.1 Q-1.35 -10.35 -1.45 -10.65 L-1.7 -11.2 -1.45 -11.05 Q-1.25 -11.4 -1.25 -12.15 -1.25 -12.9 -1.0 -13.2 L-1.45 -13.2 Q-1.7 -13.25 -1.9 -13.35 L-1.75 -13.35 -1.0 -13.6 Q-1.05 -14.35 -0.95 -15.45 L-0.9 -16.85 Q-0.85 -17.7 -0.75 -18.25 L-0.75 -18.9 -0.7 -19.6 -0.7 -21.55 Q-0.65 -22.7 -0.55 -23.45 L-0.55 -24.95 -0.5 -26.5 Q-0.5 -26.85 -0.4 -27.15 L-0.4 -28.2 Q-0.35 -28.8 -0.5 -29.2 M1.05 -11.25 L1.15 -11.2 M-1.3 8.85 L-1.3 8.9 M0.8 11.75 L0.65 11.8" fill="none" stroke="#000000" stroke-linecap="round" stroke-linejoin="round" stroke-opacity="0.4509804" stroke-width="0.1"/>
  </g>
</svg>
