<?xml version="1.0" encoding="UTF-8" standalone="no"?>
<svg xmlns:xlink="http://www.w3.org/1999/xlink" height="52.55px" width="7.55px" xmlns="http://www.w3.org/2000/svg">
  <g transform="matrix(1.0, 0.0, 0.0, 1.0, 3.45, 38.65)">
    <path d="M-0.15 -31.55 L-0.05 -34.1 0.05 -37.15 0.1 -38.6 Q0.2 -37.95 0.25 -37.15 L0.25 -35.15 0.2 -35.85 Q0.2 -36.25 0.1 -36.5 L0.05 -34.1 0.1 -27.55 Q0.1 -21.95 -0.05 -18.6 -0.4 -18.5 -0.25 -18.3 L-0.1 -18.05 0.05 -17.8 Q0.25 -17.65 0.5 -17.75 0.65 -17.8 0.75 -18.0 0.85 -18.2 0.8 -18.35 0.75 -18.55 0.5 -18.6 L0.35 -26.6 Q0.25 -31.2 0.3 -34.1 L0.3 -34.6 0.35 -34.1 Q0.45 -32.0 0.6 -26.5 0.75 -21.45 1.05 -18.45 1.15 -18.0 0.85 -17.75 0.55 -17.55 0.1 -17.6 -0.35 -17.65 -0.55 -17.85 -0.85 -18.15 -0.6 -18.55 -0.3 -18.5 -0.3 -18.9 L-0.3 -19.55 -0.15 -25.55 Q-0.1 -29.15 -0.15 -31.55" fill="#515250" fill-rule="evenodd" stroke="none"/>
    <path d="M0.25 -35.15 L0.3 -34.6 0.3 -34.1 Q0.25 -31.2 0.35 -26.6 L0.5 -18.6 Q0.75 -18.55 0.8 -18.35 0.85 -18.2 0.75 -18.0 0.65 -17.8 0.5 -17.75 0.25 -17.65 0.05 -17.8 L-0.1 -18.05 -0.25 -18.3 Q-0.4 -18.5 -0.05 -18.6 0.1 -21.95 0.1 -27.55 L0.05 -34.1 0.1 -36.5 Q0.2 -36.25 0.2 -35.85 L0.25 -35.15" fill="#a4b4c5" fill-rule="evenodd" stroke="none"/>
    <path d="M1.05 -18.45 Q1.45 -18.5 1.55 -18.3 1.6 -18.15 1.5 -17.7 L1.25 -16.95 Q1.15 -16.55 1.25 -16.4 1.05 -16.1 1.35 -15.55 L1.45 -15.2 Q1.45 -15.0 1.25 -14.9 L0.45 -14.9 0.6 -15.1 Q0.9 -15.1 0.95 -15.2 1.0 -15.3 0.85 -15.55 0.7 -15.85 0.7 -16.0 0.65 -16.25 0.85 -16.4 0.55 -16.4 0.7 -16.95 L0.75 -17.2 Q0.75 -17.3 0.6 -17.15 L0.5 -16.95 0.45 -17.15 Q0.3 -17.55 -0.05 -17.3 -0.25 -17.3 -0.25 -16.85 -0.25 -16.4 -0.55 -16.4 -0.25 -16.25 -0.3 -16.0 L-0.45 -15.5 Q-0.6 -15.2 -0.5 -15.15 L-0.45 -15.1 -1.0 -15.15 -0.95 -16.35 -0.95 -16.65 Q-1.0 -17.45 -1.4 -17.95 -1.5 -18.35 -1.2 -18.45 L-0.6 -18.55 Q-0.85 -18.15 -0.55 -17.85 -0.35 -17.65 0.1 -17.6 0.55 -17.55 0.85 -17.75 1.15 -18.0 1.05 -18.45 M-0.3 -15.1 L0.1 -15.2 0.05 -15.1 -0.3 -15.1" fill="#322f2b" fill-rule="evenodd" stroke="none"/>
    <path d="M0.2 -16.65 L-0.1 -16.9 -0.15 -16.0 Q-0.15 -15.5 0.1 -15.2 0.6 -15.05 0.55 -15.65 0.4 -16.4 0.45 -16.65 0.3 -16.45 0.2 -16.65 M-0.45 -15.1 L-0.5 -15.15 Q-0.6 -15.2 -0.45 -15.5 L-0.3 -16.0 Q-0.25 -16.25 -0.55 -16.4 -0.25 -16.4 -0.25 -16.85 -0.25 -17.3 -0.05 -17.3 0.3 -17.55 0.45 -17.15 L0.5 -16.95 0.6 -17.15 Q0.75 -17.3 0.75 -17.2 L0.7 -16.95 Q0.55 -16.4 0.85 -16.4 0.65 -16.25 0.7 -16.0 0.7 -15.85 0.85 -15.55 1.0 -15.3 0.95 -15.2 0.9 -15.1 0.6 -15.1 L0.05 -15.1 0.1 -15.2 -0.3 -15.1 -0.45 -15.1" fill="#838381" fill-rule="evenodd" stroke="none"/>
    <path d="M0.2 -16.65 Q0.3 -16.45 0.45 -16.65 0.4 -16.4 0.55 -15.65 0.6 -15.05 0.1 -15.2 -0.15 -15.5 -0.15 -16.0 L-0.1 -16.9 0.2 -16.65" fill="#d6e3ee" fill-rule="evenodd" stroke="none"/>
    <path d="M1.25 -14.9 Q1.2 -11.3 1.3 -9.1 1.45 -5.95 1.95 -3.35 L1.65 -3.0 Q1.5 -2.8 1.8 -2.8 1.8 -2.5 1.65 -2.25 1.5 -2.0 1.25 -1.85 L1.95 -1.7 Q2.25 -1.55 2.2 -1.15 2.5 -1.2 2.45 -0.95 2.35 -0.6 2.4 -0.5 2.5 -0.15 2.05 -0.25 L1.35 -0.25 1.25 -0.25 Q1.45 -0.3 1.55 -0.45 1.7 -0.6 1.7 -0.8 1.75 -1.2 1.2 -1.1 1.4 -1.15 1.5 -1.3 1.6 -1.45 1.4 -1.7 L0.05 -1.85 Q-0.8 -1.85 -0.75 -1.25 -0.9 -0.85 -0.65 -0.65 -0.55 -0.55 -0.6 -0.5 -0.6 -0.4 -0.85 -0.25 L-2.1 -0.35 Q-2.15 -0.8 -1.85 -0.95 -1.75 -1.0 -1.75 -0.95 -1.7 -0.8 -1.8 -0.55 -1.6 -0.6 -1.55 -0.85 L-1.5 -1.35 Q-1.45 -1.95 -1.0 -1.8 -0.75 -1.8 -0.8 -1.95 L-1.1 -2.35 Q-1.3 -2.65 -1.25 -2.7 -1.25 -2.85 -0.85 -2.7 -1.15 -3.05 -0.85 -3.25 L-0.6 -2.9 Q-0.45 -2.7 -0.25 -2.7 0.25 -2.7 0.65 -2.7 1.0 -2.7 1.2 -2.95 1.45 -3.15 1.4 -3.5 1.2 -3.75 1.15 -3.9 1.05 -4.15 1.25 -4.4 0.8 -4.8 0.85 -6.0 L0.85 -6.85 Q0.8 -7.3 0.6 -7.5 L0.65 -7.95 Q0.6 -8.15 0.3 -8.05 L0.25 -6.9 Q0.3 -6.2 0.45 -5.7 0.15 -5.6 0.1 -5.9 0.05 -6.1 0.1 -6.6 L0.25 -7.4 Q0.25 -7.85 0.1 -8.05 L-0.25 -8.1 -0.2 -8.15 Q-0.45 -8.1 -0.55 -8.2 -0.7 -8.3 -0.6 -8.55 -0.55 -8.7 -0.55 -9.0 L-0.65 -9.5 Q-0.7 -10.15 -0.3 -10.15 L-0.25 -9.5 Q-0.2 -9.15 0.15 -9.25 L0.2 -9.9 Q0.15 -10.25 -0.2 -10.2 -0.7 -10.45 -0.6 -11.5 -0.4 -12.65 -0.4 -13.05 -0.3 -13.0 -0.25 -12.5 -0.15 -12.15 0.15 -12.2 0.65 -12.05 0.7 -12.5 L0.7 -13.35 0.4 -13.0 Q0.2 -12.85 0.05 -13.1 0.55 -13.05 0.6 -13.7 0.65 -14.2 0.5 -14.75 -0.05 -14.9 -0.1 -14.2 -0.15 -13.65 0.05 -13.1 -0.1 -13.3 -0.3 -13.25 -0.7 -13.3 -0.3 -14.9 L-1.0 -14.9 -1.0 -15.15 -0.45 -15.1 -0.3 -15.1 0.05 -15.1 0.6 -15.1 0.45 -14.9 1.25 -14.9 M0.15 -12.2 Q-0.2 -11.9 -0.3 -11.15 -0.4 -10.35 0.15 -10.3 L0.15 -12.2 M-0.2 -8.15 Q0.15 -8.1 0.2 -8.45 L0.15 -9.05 Q-0.4 -9.3 -0.35 -8.9 L-0.2 -8.15 M0.75 -9.9 Q0.75 -10.3 0.35 -10.25 0.2 -9.95 0.2 -9.55 0.25 -9.1 0.55 -9.35 0.75 -9.6 0.75 -9.9 M0.35 -12.15 Q0.4 -11.85 0.2 -11.0 0.1 -10.3 0.65 -10.35 0.6 -10.5 0.65 -10.8 L0.7 -11.3 Q0.75 -11.95 0.35 -12.15 M0.75 -8.9 Q0.75 -9.4 0.25 -9.15 L0.25 -8.5 Q0.2 -8.05 0.55 -8.2 0.75 -8.5 0.75 -8.9 M0.65 -1.95 Q0.85 -2.45 1.4 -2.65 L-0.75 -2.6 Q-0.55 -2.55 -0.1 -2.1 0.25 -1.8 0.65 -1.95" fill="#58544d" fill-rule="evenodd" stroke="none"/>
    <path d="M0.6 -13.7 Q0.55 -13.05 0.05 -13.1 -0.15 -13.65 -0.1 -14.2 -0.05 -14.9 0.5 -14.75 0.65 -14.2 0.6 -13.7" fill="#c6d0db" fill-rule="evenodd" stroke="none"/>
    <path d="M0.05 -13.1 Q0.2 -12.85 0.4 -13.0 L0.7 -13.35 0.7 -12.5 Q0.65 -12.05 0.15 -12.2 -0.15 -12.15 -0.25 -12.5 -0.3 -13.0 -0.4 -13.05 L-0.3 -13.25 Q-0.1 -13.3 0.05 -13.1" fill="#b8bfc6" fill-rule="evenodd" stroke="none"/>
    <path d="M0.35 -12.15 Q0.75 -11.95 0.7 -11.3 L0.65 -10.8 Q0.6 -10.5 0.65 -10.35 0.1 -10.3 0.2 -11.0 0.4 -11.85 0.35 -12.15" fill="#c5ccd3" fill-rule="evenodd" stroke="none"/>
    <path d="M0.75 -9.9 Q0.75 -9.6 0.55 -9.35 0.25 -9.1 0.2 -9.55 0.2 -9.95 0.35 -10.25 0.75 -10.3 0.75 -9.9" fill="#bfc3c9" fill-rule="evenodd" stroke="none"/>
    <path d="M0.15 -12.2 L0.15 -10.3 Q-0.4 -10.35 -0.3 -11.15 -0.2 -11.9 0.15 -12.2" fill="#abb3ba" fill-rule="evenodd" stroke="none"/>
    <path d="M-0.2 -10.2 Q0.15 -10.25 0.2 -9.9 L0.15 -9.25 Q-0.2 -9.15 -0.25 -9.5 L-0.3 -10.15 -0.2 -10.2" fill="#b2bcc2" fill-rule="evenodd" stroke="none"/>
    <path d="M0.75 -8.9 Q0.75 -8.5 0.55 -8.2 0.2 -8.05 0.25 -8.5 L0.25 -9.15 Q0.75 -9.4 0.75 -8.9" fill="#c4c8ce" fill-rule="evenodd" stroke="none"/>
    <path d="M0.1 -8.05 Q0.25 -7.85 0.25 -7.4 L0.1 -6.6 Q0.05 -6.1 0.1 -5.9 0.15 -5.6 0.45 -5.7 0.3 -6.2 0.25 -6.9 L0.3 -8.05 Q0.6 -8.15 0.65 -7.95 L0.6 -7.5 Q0.55 -7.0 0.65 -6.2 L0.75 -4.9 0.55 -4.55 Q0.5 -4.35 0.7 -4.25 0.9 -4.5 0.95 -4.45 L0.9 -4.2 Q0.75 -3.5 0.9 -3.35 1.0 -3.2 0.9 -3.0 L0.65 -2.7 Q0.25 -2.7 -0.25 -2.7 -0.25 -3.05 -0.15 -3.8 0.0 -4.45 -0.05 -4.85 0.0 -5.2 -0.05 -5.7 L-0.2 -6.6 Q-0.4 -7.7 0.1 -8.05" fill="#cbd4da" fill-rule="evenodd" stroke="none"/>
    <path d="M-0.2 -8.15 L-0.35 -8.9 Q-0.4 -9.3 0.15 -9.05 L0.2 -8.45 Q0.15 -8.1 -0.2 -8.15" fill="#b7c1c7" fill-rule="evenodd" stroke="none"/>
    <path d="M0.6 -7.5 Q0.8 -7.3 0.85 -6.85 L0.85 -6.0 Q0.8 -4.8 1.25 -4.4 1.05 -4.15 1.15 -3.9 1.2 -3.75 1.4 -3.5 1.45 -3.15 1.2 -2.95 1.0 -2.7 0.65 -2.7 L0.9 -3.0 Q1.0 -3.2 0.9 -3.35 0.75 -3.5 0.9 -4.2 L0.95 -4.45 Q0.9 -4.5 0.7 -4.25 0.5 -4.35 0.55 -4.55 L0.75 -4.9 0.65 -6.2 Q0.55 -7.0 0.6 -7.5" fill="#807f7b" fill-rule="evenodd" stroke="none"/>
    <path d="M1.95 -3.35 L2.45 -2.15 Q2.55 -1.9 3.0 -1.95 3.45 -1.95 3.55 -1.75 L4.05 -0.55 Q3.8 -0.4 3.45 -0.3 L2.8 -0.2 Q2.75 0.55 3.0 1.45 L3.0 1.5 Q2.8 1.7 2.0 2.0 L1.9 2.05 Q2.05 1.65 1.85 1.35 L1.6 0.55 1.35 -0.25 2.05 -0.25 Q2.5 -0.15 2.4 -0.5 2.35 -0.6 2.45 -0.95 2.5 -1.2 2.2 -1.15 2.25 -1.55 1.95 -1.7 L1.25 -1.85 Q1.5 -2.0 1.65 -2.25 1.8 -2.5 1.8 -2.8 1.5 -2.8 1.65 -3.0 L1.95 -3.35 M1.55 2.15 L1.25 2.2 Q1.35 2.1 1.5 2.0 L1.55 2.15" fill="#2f2c26" fill-rule="evenodd" stroke="none"/>
    <path d="M-0.85 -0.25 Q-0.6 -0.4 -0.6 -0.5 -0.55 -0.55 -0.65 -0.65 -0.9 -0.85 -0.75 -1.25 -0.8 -1.85 0.05 -1.85 L1.4 -1.7 Q1.6 -1.45 1.5 -1.3 1.4 -1.15 1.2 -1.1 1.75 -1.2 1.7 -0.8 1.7 -0.6 1.55 -0.45 1.45 -0.3 1.25 -0.25 L-0.65 -0.25 -0.85 -0.25" fill="#b7b9af" fill-rule="evenodd" stroke="none"/>
    <path d="M1.9 2.05 L1.55 2.15 1.5 2.0 1.05 0.85 Q0.8 0.15 0.35 -0.05 -0.1 0.2 -0.4 0.85 -0.65 1.3 -0.8 2.05 L-0.9 2.2 -1.05 2.3 Q-1.25 2.35 -1.3 2.1 L-1.05 0.85 Q-0.9 0.2 -0.65 -0.25 L1.25 -0.25 1.35 -0.25 1.6 0.55 1.85 1.35 Q2.05 1.65 1.9 2.05" fill="#51534c" fill-rule="evenodd" stroke="none"/>
    <path d="M0.65 -1.95 Q0.25 -1.8 -0.1 -2.1 -0.55 -2.55 -0.75 -2.6 L1.4 -2.65 Q0.85 -2.45 0.65 -1.95" fill="#a4aab4" fill-rule="evenodd" stroke="none"/>
    <path d="M-0.6 -18.55 L-0.5 -25.05 Q-0.4 -28.75 -0.15 -31.55 -0.1 -29.15 -0.15 -25.55 L-0.3 -19.55 -0.3 -18.9 Q-0.3 -18.5 -0.6 -18.55" fill="#1e1e19" fill-rule="evenodd" stroke="none"/>
    <path d="M-0.85 2.35 L-1.7 2.2 Q-2.5 2.0 -2.5 1.85 L-2.45 1.6 -2.15 0.7 Q-2.1 0.45 -2.1 0.25 -2.1 0.0 -2.15 -0.2 L-3.4 -0.45 -3.4 -0.6 Q-3.25 -1.0 -3.0 -1.4 L-2.45 -2.0 Q-1.75 -2.75 -1.7 -3.5 -1.25 -5.85 -1.1 -9.2 L-1.1 -11.6 -1.05 -13.45 -1.0 -14.9 -1.0 -14.9 -0.3 -14.9 Q-0.7 -13.3 -0.3 -13.25 L-0.4 -13.05 Q-0.4 -12.65 -0.6 -11.5 -0.7 -10.45 -0.2 -10.2 L-0.3 -10.15 Q-0.7 -10.15 -0.65 -9.5 L-0.55 -9.0 Q-0.55 -8.7 -0.6 -8.55 -0.7 -8.3 -0.55 -8.2 -0.45 -8.1 -0.2 -8.15 L-0.25 -8.1 -0.5 -8.1 Q-0.7 -8.1 -0.65 -8.0 -0.4 -5.85 -0.8 -4.5 -0.9 -4.3 -0.75 -3.85 -0.6 -3.45 -0.85 -3.25 -1.15 -3.05 -0.85 -2.7 -1.25 -2.85 -1.25 -2.7 -1.3 -2.65 -1.1 -2.35 L-0.8 -1.95 Q-0.75 -1.8 -1.0 -1.8 -1.45 -1.95 -1.5 -1.35 L-1.55 -0.85 Q-1.6 -0.6 -1.8 -0.55 -1.7 -0.8 -1.75 -0.95 -1.75 -1.0 -1.85 -0.95 -2.15 -0.8 -2.1 -0.35 L-0.85 -0.25 -0.65 -0.25 Q-0.9 0.2 -1.05 0.85 L-1.3 2.1 Q-1.25 2.35 -1.05 2.3 L-0.9 2.2 -0.8 2.05 Q-0.55 2.15 -0.5 2.3 L-0.5 2.4 -0.85 2.35" fill="#2d2925" fill-rule="evenodd" stroke="none"/>
    <path d="M-0.25 -8.1 L0.1 -8.05 Q-0.4 -7.7 -0.2 -6.6 L-0.05 -5.7 Q0.0 -5.2 -0.05 -4.85 0.0 -4.45 -0.15 -3.8 -0.25 -3.05 -0.25 -2.7 -0.45 -2.7 -0.6 -2.9 L-0.85 -3.25 Q-0.6 -3.45 -0.75 -3.85 -0.9 -4.3 -0.8 -4.5 -0.4 -5.85 -0.65 -8.0 -0.7 -8.1 -0.5 -8.1 L-0.25 -8.1" fill="#72726d" fill-rule="evenodd" stroke="none"/>
    <path d="M1.25 2.2 L1.15 2.25 0.95 2.3 Q0.85 1.75 0.65 1.45 L0.25 1.45 Q-0.15 1.55 -0.25 2.1 L-0.3 2.4 -0.45 2.4 -0.5 2.4 -0.5 2.3 Q-0.55 2.15 -0.8 2.05 -0.65 1.3 -0.4 0.85 -0.1 0.2 0.35 -0.05 0.8 0.15 1.05 0.85 L1.5 2.0 Q1.35 2.1 1.25 2.2 M-0.2 2.1 L-0.2 2.05 0.1 2.0 0.2 1.9 Q0.2 1.9 0.25 1.9 L0.65 2.0 Q0.5 2.15 0.2 2.15 L0.15 2.15 -0.2 2.1 M-0.35 2.75 L-0.35 2.8 -0.35 2.85 -0.4 2.8 -0.4 2.7 -0.35 2.75" fill="#7a858c" fill-rule="evenodd" stroke="none"/>
    <path d="M-0.3 2.4 L-0.25 2.1 Q-0.15 1.55 0.25 1.45 L0.65 1.45 Q0.85 1.75 0.95 2.3 L0.8 2.3 0.55 2.35 0.25 2.4 0.15 2.4 -0.05 2.4 -0.2 2.4 -0.3 2.4 M-0.2 2.1 L0.15 2.15 0.2 2.15 Q0.5 2.15 0.65 2.0 L0.25 1.9 Q0.2 1.9 0.2 1.9 L0.1 2.0 -0.2 2.05 -0.2 2.1 M-0.35 2.85 L-0.35 2.8 -0.35 2.75 -0.35 2.75 Q-0.15 2.85 0.15 2.9 L0.35 2.8 0.6 2.7 0.7 2.65 0.65 2.7 0.65 2.95 0.6 3.6 0.55 3.6 Q0.4 3.65 0.35 3.9 L0.3 4.1 0.25 4.8 Q0.05 4.65 0.05 4.05 0.0 3.5 -0.35 3.5 L-0.35 3.5 -0.35 2.85 M-0.3 5.1 L-0.3 5.0 0.55 5.0 0.55 5.05 0.5 5.1 0.4 5.55 0.15 5.95 Q0.0 5.95 -0.15 5.65 L-0.2 5.6 -0.3 5.15 -0.3 5.1" fill="#c9dae7" fill-rule="evenodd" stroke="none"/>
    <path d="M1.15 2.25 L1.1 2.4 1.1 2.55 1.05 2.65 1.1 2.85 1.0 2.8 0.75 2.75 0.65 2.7 0.7 2.65 0.6 2.7 0.35 2.8 0.15 2.9 Q-0.15 2.85 -0.35 2.75 L-0.35 2.75 -0.4 2.7 -0.4 2.8 -0.65 2.95 -0.75 2.9 -0.75 2.9 -0.8 2.65 -0.8 2.5 -0.85 2.35 -0.5 2.4 -0.45 2.4 -0.3 2.4 -0.2 2.4 -0.05 2.4 0.15 2.4 0.25 2.4 0.55 2.35 0.8 2.3 0.95 2.3 1.15 2.25 M0.45 12.2 L0.55 12.25 0.65 12.35 0.55 12.6 0.55 12.55 Q0.6 12.45 0.4 12.45 L0.35 12.45 Q0.2 12.45 0.2 12.55 L0.3 12.9 0.3 13.0 0.2 13.05 Q0.05 13.05 0.05 12.9 0.05 12.75 -0.05 12.75 -0.1 12.75 -0.1 12.8 L-0.15 12.9 -0.1 13.1 Q0.0 13.25 0.1 13.25 0.4 13.25 0.4 13.05 L0.35 12.95 Q0.35 12.8 0.45 12.8 L0.65 12.8 0.7 12.85 Q0.8 12.9 0.8 13.0 0.8 13.2 0.6 13.4 0.5 13.5 0.4 13.55 L0.3 13.55 0.2 13.6 -0.05 13.55 -0.25 13.4 -0.25 13.35 -0.3 13.0 Q-0.3 12.7 -0.1 12.7 0.1 12.65 0.1 12.45 L0.1 12.2 0.15 12.2 0.25 12.2 0.3 12.2 0.45 12.2" fill="#323434" fill-rule="evenodd" stroke="none"/>
    <path d="M1.0 2.8 L0.9 4.4 0.9 5.0 0.85 6.15 0.55 5.3 0.55 5.7 Q0.55 6.45 0.85 6.9 1.05 7.25 1.35 7.45 L1.4 7.45 1.4 7.5 Q1.35 7.75 1.2 7.8 L0.75 7.75 Q0.9 7.65 0.9 7.5 L0.85 7.45 0.65 7.15 Q0.15 6.7 0.3 6.4 0.15 6.25 0.05 6.4 L-0.1 6.7 Q-0.2 7.35 -0.55 7.35 -0.3 6.95 -0.2 6.7 -0.1 6.3 -0.3 6.05 -0.35 6.45 -0.65 6.85 L-0.8 7.1 -0.85 7.15 -0.6 6.3 -0.6 5.6 -0.6 5.25 -0.75 2.9 -0.65 2.95 -0.4 2.8 -0.35 2.85 -0.35 3.5 -0.35 3.5 Q0.0 3.5 0.05 4.05 0.05 4.65 0.25 4.8 L0.3 4.1 0.35 3.9 Q0.4 3.65 0.55 3.6 L0.6 3.6 0.65 2.95 0.65 2.7 0.75 2.75 1.0 2.8 M-0.3 5.1 L-0.3 5.15 -0.2 5.6 -0.15 5.65 Q0.0 5.95 0.15 5.95 L0.4 5.55 0.5 5.1 0.55 5.05 0.55 5.0 -0.3 5.0 -0.3 5.1" fill="#76828a" fill-rule="evenodd" stroke="none"/>
    <path d="M0.85 6.15 L1.35 7.45 Q1.05 7.25 0.85 6.9 0.55 6.45 0.55 5.7 L0.55 5.3 0.85 6.15 M1.4 7.5 Q1.15 8.65 1.0 9.95 L0.8 12.05 0.9 12.15 Q1.2 12.45 1.2 12.85 1.2 13.25 0.9 13.55 0.65 13.8 0.3 13.8 L0.3 13.55 0.4 13.55 Q0.5 13.5 0.6 13.4 0.8 13.2 0.8 13.0 0.8 12.9 0.7 12.85 L0.65 12.8 0.45 12.8 Q0.35 12.8 0.35 12.95 L0.4 13.05 Q0.4 13.25 0.1 13.25 0.0 13.25 -0.1 13.1 L-0.15 12.9 -0.1 12.8 Q-0.1 12.75 -0.05 12.75 0.05 12.75 0.05 12.9 0.05 13.05 0.2 13.05 L0.3 13.0 0.3 12.9 0.2 12.55 Q0.2 12.45 0.35 12.45 L0.4 12.45 Q0.6 12.45 0.55 12.55 L0.55 12.6 0.65 12.35 0.55 12.25 0.45 12.2 0.45 11.9 0.5 11.9 0.5 11.75 Q0.45 11.15 -0.35 11.35 -0.3 11.5 0.0 11.7 0.1 11.8 0.15 11.9 -0.05 11.9 -0.2 12.0 L-0.1 12.2 -0.1 12.3 -0.2 12.35 -0.3 12.45 -0.35 12.35 -0.5 12.2 -0.45 12.15 -0.4 12.1 Q-0.45 10.95 -0.6 9.95 L-0.65 9.45 -0.7 9.0 -0.75 8.85 -0.75 8.65 -0.95 7.75 -1.0 7.5 -0.85 7.15 -0.85 7.15 -0.8 7.1 -0.65 6.85 Q-0.35 6.45 -0.3 6.05 -0.1 6.3 -0.2 6.7 -0.3 6.95 -0.55 7.35 L-0.6 7.5 -0.6 7.6 Q-0.5 7.8 -0.5 8.15 L-0.45 8.75 Q-0.35 9.45 0.25 9.35 0.75 9.4 0.75 8.8 L0.7 8.25 Q0.7 7.9 0.75 7.75 L1.2 7.8 Q1.35 7.75 1.4 7.5 M-0.15 13.75 L-0.25 13.7 -0.45 13.55 -0.65 13.2 -0.5 13.2 -0.45 13.2 -0.35 13.2 -0.25 13.35 -0.25 13.4 -0.05 13.55 -0.1 13.65 -0.15 13.75 -0.15 13.75 M-0.3 10.45 L-0.35 10.9 Q-0.35 11.15 -0.15 11.25 0.2 11.1 0.1 10.7 0.05 10.25 -0.3 10.45 M-0.35 9.55 L-0.05 9.95 0.05 10.05 Q0.3 10.3 0.55 10.35 L0.65 9.95 Q0.65 9.7 0.5 9.6 0.25 9.35 -0.35 9.55" fill="#4a4841" fill-rule="evenodd" stroke="none"/>
    <path d="M-0.7 12.55 Q-0.65 12.35 -0.5 12.2 L-0.35 12.35 -0.3 12.45 Q-0.4 12.55 -0.4 12.7 L-0.7 12.55 M-0.55 7.35 Q-0.2 7.35 -0.1 6.7 L0.05 6.4 Q0.15 6.25 0.3 6.4 0.15 6.7 0.65 7.15 L0.85 7.45 0.9 7.5 Q0.9 7.65 0.75 7.75 0.4 7.7 0.3 7.9 0.2 8.05 0.25 8.5 L0.25 9.05 Q0.15 9.3 -0.1 9.25 -0.2 9.05 -0.15 8.75 L-0.15 8.25 Q-0.15 7.65 -0.6 7.6 L-0.6 7.5 -0.55 7.35 M0.45 11.9 L0.45 12.2 0.3 12.2 0.25 12.2 0.25 11.9 0.45 11.9" fill="#ced8de" fill-rule="evenodd" stroke="none"/>
    <path d="M-0.6 7.6 Q-0.15 7.65 -0.15 8.25 L-0.15 8.75 Q-0.2 9.05 -0.1 9.25 0.15 9.3 0.25 9.05 L0.25 8.5 Q0.2 8.05 0.3 7.9 0.4 7.7 0.75 7.75 0.7 7.9 0.7 8.25 L0.75 8.8 Q0.75 9.4 0.25 9.35 -0.35 9.45 -0.45 8.75 L-0.5 8.15 Q-0.5 7.8 -0.6 7.6" fill="#838a88" fill-rule="evenodd" stroke="none"/>
    <path d="M-0.3 10.45 Q0.05 10.25 0.1 10.7 0.2 11.1 -0.15 11.25 -0.35 11.15 -0.35 10.9 L-0.3 10.45" fill="#a3a49a" fill-rule="evenodd" stroke="none"/>
    <path d="M0.3 13.8 L0.25 13.8 -0.15 13.75 -0.15 13.75 -0.1 13.65 -0.05 13.55 0.2 13.6 0.3 13.55 0.3 13.8 M-0.65 13.2 L-0.75 12.85 -0.7 12.55 -0.4 12.7 -0.45 12.95 Q-0.45 13.1 -0.35 13.2 L-0.45 13.2 -0.5 13.2 -0.65 13.2 M-0.1 12.3 L-0.1 12.2 -0.2 12.0 Q-0.05 11.9 0.15 11.9 0.1 11.8 0.0 11.7 -0.3 11.5 -0.35 11.35 0.45 11.15 0.5 11.75 L0.5 11.9 0.45 11.9 0.25 11.9 0.25 12.2 0.15 12.2 0.1 12.2 Q0.0 12.25 -0.1 12.3" fill="#a5a699" fill-rule="evenodd" stroke="none"/>
    <path d="M-0.3 12.45 L-0.2 12.35 -0.1 12.3 Q0.0 12.25 0.1 12.2 L0.1 12.45 Q0.1 12.65 -0.1 12.7 -0.3 12.7 -0.3 13.0 L-0.25 13.35 -0.35 13.2 Q-0.45 13.1 -0.45 12.95 L-0.4 12.7 Q-0.4 12.55 -0.3 12.45" fill="#1d1e1e" fill-rule="evenodd" stroke="none"/>
    <path d="M-0.35 9.55 Q0.25 9.35 0.5 9.6 0.65 9.7 0.65 9.95 L0.55 10.35 Q0.3 10.3 0.05 10.05 L-0.05 9.95 -0.35 9.55" fill="#a4a598" fill-rule="evenodd" stroke="none"/>
    <path d="M-0.15 -31.55 L-0.05 -34.1 0.05 -37.15 0.1 -38.6 Q0.2 -37.95 0.25 -37.15 L0.25 -35.15 0.3 -34.6 0.35 -34.1 Q0.45 -32.0 0.6 -26.5 0.75 -21.45 1.05 -18.45 1.45 -18.5 1.55 -18.3 1.6 -18.15 1.5 -17.7 L1.25 -16.95 Q1.15 -16.55 1.25 -16.4 1.05 -16.1 1.35 -15.55 L1.45 -15.2 Q1.45 -15.0 1.25 -14.9 1.2 -11.3 1.3 -9.1 1.45 -5.95 1.95 -3.35 L2.45 -2.15 Q2.55 -1.9 3.0 -1.95 3.45 -1.95 3.55 -1.75 L4.05 -0.55 Q3.8 -0.4 3.45 -0.3 L2.8 -0.2 Q2.75 0.55 3.0 1.45 L3.0 1.5 Q2.8 1.7 2.0 2.0 L1.9 2.05 1.55 2.15 1.25 2.2 1.15 2.25 1.1 2.4 1.1 2.55 1.05 2.65 1.1 2.85 1.0 2.8 0.9 4.4 0.9 5.0 0.85 6.15 1.35 7.45 1.4 7.45 1.4 7.5 Q1.15 8.65 1.0 9.95 L0.8 12.05 0.9 12.15 Q1.2 12.45 1.2 12.85 1.2 13.25 0.9 13.55 0.65 13.8 0.3 13.8 L0.25 13.8 -0.15 13.75 -0.25 13.7 -0.45 13.55 -0.65 13.2 -0.75 12.85 -0.7 12.55 Q-0.65 12.35 -0.5 12.2 L-0.45 12.15 -0.4 12.1 Q-0.45 10.95 -0.6 9.95 L-0.65 9.45 -0.7 9.0 -0.75 8.85 -0.75 8.65 -0.95 7.75 -1.0 7.5 -0.85 7.15 -0.85 7.15 -0.6 6.3 -0.6 5.6 -0.6 5.25 -0.75 2.9 -0.75 2.9 -0.8 2.65 -0.8 2.5 -0.85 2.35 -1.7 2.2 Q-2.5 2.0 -2.5 1.85 L-2.45 1.6 -2.15 0.7 Q-2.1 0.45 -2.1 0.25 -2.1 0.0 -2.15 -0.2 L-3.4 -0.45 -3.4 -0.6 Q-3.25 -1.0 -3.0 -1.4 L-2.45 -2.0 Q-1.75 -2.75 -1.7 -3.5 -1.25 -5.85 -1.1 -9.2 L-1.1 -11.6 -1.05 -13.45 -1.0 -14.9 -1.0 -14.9 -1.0 -15.15 -0.95 -16.35 -0.95 -16.65 Q-1.0 -17.45 -1.4 -17.95 -1.5 -18.35 -1.2 -18.45 L-0.6 -18.55 -0.5 -25.05 Q-0.4 -28.75 -0.15 -31.55 Z" fill="none" stroke="#000000" stroke-linecap="round" stroke-linejoin="round" stroke-opacity="0.4509804" stroke-width="0.1"/>
  </g>
</svg>
