<?xml version="1.0" encoding="UTF-8" standalone="no"?>
<svg xmlns:xlink="http://www.w3.org/1999/xlink" height="41.25px" width="11.75px" xmlns="http://www.w3.org/2000/svg">
  <g transform="matrix(1.0, 0.0, 0.0, 1.0, 4.7, 31.45)">
    <path d="M0.6 -31.1 L0.55 -30.85 Q0.5 -30.75 0.35 -30.7 0.45 -30.3 0.2 -30.05 0.1 -30.35 -0.3 -30.2 L-0.2 -30.85 Q-0.15 -31.2 0.05 -31.4 L0.3 -31.4 0.45 -31.25 0.6 -31.1" fill="#8baaa1" fill-rule="evenodd" stroke="none"/>
    <path d="M0.6 -31.1 L0.65 -30.45 0.65 -29.85 Q0.35 -29.6 0.4 -29.1 L0.5 -28.25 Q0.35 -28.4 0.2 -28.2 L-0.05 -27.95 -0.05 -29.35 -0.05 -29.5 Q0.05 -29.85 0.2 -30.05 0.45 -30.3 0.35 -30.7 0.5 -30.75 0.55 -30.85 L0.6 -31.1" fill="#c1ddde" fill-rule="evenodd" stroke="none"/>
    <path d="M-0.05 -27.95 L0.2 -28.2 Q0.35 -28.4 0.5 -28.25 L0.65 -27.25 Q0.6 -26.7 0.65 -25.55 0.7 -24.45 0.65 -23.85 0.65 -22.65 0.8 -21.6 0.75 -20.9 0.9 -19.85 L1.2 -18.1 1.15 -16.65 Q1.2 -15.8 1.3 -15.15 L1.5 -15.15 1.45 -14.75 1.4 -14.3 Q1.35 -13.8 1.65 -13.6 1.55 -13.4 1.55 -13.05 1.55 -12.65 1.5 -12.55 L1.45 -12.6 1.25 -12.75 Q1.1 -12.8 0.95 -12.6 0.75 -12.35 0.55 -12.45 L0.15 -12.6 Q-0.1 -12.7 -0.25 -12.6 L-0.8 -12.6 -1.35 -12.7 Q-1.15 -12.75 -1.15 -12.85 -1.15 -12.95 -1.25 -13.1 L-1.4 -13.4 Q-1.45 -13.55 -1.3 -13.65 -1.2 -13.8 -1.15 -14.0 L-1.15 -14.45 -1.25 -14.9 -1.25 -15.05 -0.7 -15.1 -0.15 -15.1 Q-0.05 -15.6 -0.1 -16.4 L-0.1 -17.7 Q-0.1 -18.05 -0.1 -18.15 -0.1 -19.85 0.1 -21.05 L-0.05 -21.0 Q-0.2 -20.5 -0.3 -19.65 L-0.45 -18.3 Q-0.55 -17.9 -0.6 -16.95 -0.65 -16.1 -0.85 -15.7 L-1.1 -15.65 -1.15 -15.7 -1.15 -16.4 -0.9 -16.65 Q-0.75 -16.85 -0.75 -17.25 -0.8 -17.7 -0.75 -17.85 L-0.55 -20.0 Q-0.45 -21.3 -0.45 -22.15 L-0.2 -23.55 -0.2 -23.95 -0.25 -24.15 -0.2 -25.05 Q-0.25 -25.5 -0.3 -25.9 L-0.3 -25.95 -0.25 -26.45 -0.2 -26.9 -0.2 -27.0 Q-0.05 -27.25 0.0 -27.45 0.05 -27.7 -0.05 -27.95" fill="#f0f3f9" fill-rule="evenodd" stroke="none"/>
    <path d="M0.5 -28.25 L0.4 -29.1 Q0.35 -29.6 0.65 -29.85 L0.8 -28.65 0.9 -27.5 0.9 -27.15 Q0.8 -27.05 0.65 -27.25 L0.5 -28.25" fill="#a1c7c6" fill-rule="evenodd" stroke="none"/>
    <path d="M0.9 -27.5 L1.2 -23.85 0.65 -23.85 Q0.7 -24.45 0.65 -25.55 0.6 -26.7 0.65 -27.25 0.8 -27.05 0.9 -27.15 L0.9 -27.5" fill="#c4dddc" fill-rule="evenodd" stroke="none"/>
    <path d="M1.2 -23.85 Q1.35 -23.3 1.4 -22.5 L1.45 -21.1 1.3 -20.85 Q1.2 -20.75 1.05 -20.75 0.85 -20.8 0.85 -21.1 0.85 -21.5 0.8 -21.6 0.65 -22.65 0.65 -23.85 L1.2 -23.85" fill="#acd1d3" fill-rule="evenodd" stroke="none"/>
    <path d="M1.45 -21.1 L1.5 -19.6 1.5 -18.1 Q1.35 -18.05 1.2 -18.1 L0.9 -19.85 Q0.75 -20.9 0.8 -21.6 0.85 -21.5 0.85 -21.1 0.85 -20.8 1.05 -20.75 1.2 -20.75 1.3 -20.85 L1.45 -21.1" fill="#c8e1e1" fill-rule="evenodd" stroke="none"/>
    <path d="M1.5 -18.1 L1.55 -17.2 Q1.6 -16.65 1.55 -16.25 L1.6 -16.2 1.6 -16.2 1.55 -16.05 1.55 -15.9 1.55 -15.85 1.5 -15.85 Q1.45 -15.5 1.6 -15.6 1.8 -15.55 1.85 -15.4 1.95 -15.3 1.8 -15.15 L1.5 -15.15 1.3 -15.15 Q1.2 -15.8 1.15 -16.65 L1.2 -18.1 Q1.35 -18.05 1.5 -18.1" fill="#a3caca" fill-rule="evenodd" stroke="none"/>
    <path d="M1.6 -16.2 L1.6 -15.6 Q1.45 -15.5 1.5 -15.85 L1.55 -15.85 1.55 -15.9 1.55 -16.05 1.6 -16.2" fill="#759290" fill-rule="evenodd" stroke="none"/>
    <path d="M1.8 -15.15 Q2.0 -14.25 2.05 -13.75 L1.9 -13.75 1.85 -13.5 Q1.85 -13.1 1.75 -13.05 1.55 -13.0 1.65 -12.85 L1.9 -12.65 1.5 -12.55 Q1.55 -12.65 1.55 -13.05 1.55 -13.4 1.65 -13.6 1.35 -13.8 1.4 -14.3 L1.45 -14.75 1.5 -15.15 1.8 -15.15 M-1.7 -12.55 L-1.6 -13.2 Q-1.55 -13.55 -1.55 -13.8 L-1.45 -14.3 -1.5 -15.15 -1.25 -15.25 Q-1.1 -15.25 -1.25 -15.05 L-1.25 -14.9 -1.15 -14.45 -1.15 -14.0 Q-1.2 -13.8 -1.3 -13.65 -1.45 -13.55 -1.4 -13.4 L-1.25 -13.1 Q-1.15 -12.95 -1.15 -12.85 -1.15 -12.75 -1.35 -12.7 L-1.7 -12.55" fill="#77a5b5" fill-rule="evenodd" stroke="none"/>
    <path d="M2.05 -13.75 L2.15 -12.95 Q2.3 -12.15 2.4 -11.35 2.5 -11.1 2.45 -10.75 L2.4 -10.2 2.3 -9.5 2.3 -9.35 2.45 -8.9 Q2.35 -8.7 2.15 -8.7 2.0 -8.7 1.9 -8.8 1.75 -8.95 1.75 -9.15 1.7 -9.35 1.85 -9.5 L1.75 -10.0 1.75 -11.3 Q1.7 -12.05 1.5 -12.55 L1.9 -12.65 1.65 -12.85 Q1.55 -13.0 1.75 -13.05 1.85 -13.1 1.85 -13.5 L1.9 -13.75 2.05 -13.75 M-2.2 -9.05 L-2.0 -9.45 Q-1.85 -10.15 -1.85 -10.6 L-1.8 -11.3 -1.8 -11.75 Q-1.8 -12.1 -1.7 -12.55 L-1.35 -12.7 -1.2 -12.55 -1.15 -12.4 -1.15 -12.25 -1.35 -11.5 Q-1.5 -11.2 -1.5 -10.7 L-1.45 -9.85 -1.55 -9.7 -1.55 -8.9 -1.9 -8.75 Q-2.0 -8.7 -2.1 -8.8 L-2.2 -9.05" fill="#3a7671" fill-rule="evenodd" stroke="none"/>
    <path d="M-1.15 -12.25 L-0.2 -12.15 Q0.35 -12.15 0.75 -12.3 0.85 -12.35 0.75 -12.4 L0.55 -12.45 Q0.75 -12.35 0.95 -12.6 1.1 -12.8 1.25 -12.75 1.25 -12.4 0.9 -12.1 1.0 -10.9 1.25 -9.7 1.3 -9.55 1.2 -9.45 1.1 -9.4 0.95 -9.35 0.85 -9.3 0.85 -9.45 0.85 -9.65 0.75 -9.65 L0.8 -9.95 Q0.8 -10.05 0.65 -10.0 0.45 -10.1 0.5 -10.55 0.55 -11.05 0.3 -11.1 0.15 -11.25 0.25 -11.45 L0.4 -11.85 Q0.3 -11.8 0.05 -11.85 L-0.35 -11.85 -0.5 -11.4 Q-0.55 -11.15 -0.7 -11.05 -0.8 -11.1 -0.85 -11.35 -0.9 -11.6 -1.05 -11.6 -1.2 -11.3 -1.3 -10.85 L-1.35 -10.1 Q-1.4 -10.75 -1.35 -11.5 L-1.15 -12.25" fill="#65add2" fill-rule="evenodd" stroke="none"/>
    <path d="M0.55 -12.45 L0.75 -12.4 Q0.85 -12.35 0.75 -12.3 0.35 -12.15 -0.2 -12.15 L-1.15 -12.25 -1.15 -12.4 -1.2 -12.55 -1.35 -12.7 -0.8 -12.6 -0.25 -12.6 Q-0.1 -12.7 0.15 -12.6 L0.55 -12.45" fill="#427f8e" fill-rule="evenodd" stroke="none"/>
    <path d="M0.75 -9.65 Q0.85 -9.65 0.85 -9.45 0.85 -9.3 0.95 -9.35 1.1 -9.4 1.2 -9.45 1.3 -9.55 1.25 -9.7 1.0 -10.9 0.9 -12.1 1.25 -12.4 1.25 -12.75 L1.45 -12.6 Q1.4 -11.95 1.5 -11.05 L1.7 -9.45 1.75 -8.75 1.1 -8.75 0.45 -8.75 0.65 -9.15 Q0.75 -9.45 0.75 -9.65" fill="#7ebfe0" fill-rule="evenodd" stroke="none"/>
    <path d="M1.45 -12.6 L1.5 -12.55 Q1.7 -12.05 1.75 -11.3 L1.75 -10.0 1.7 -9.45 1.5 -11.05 Q1.4 -11.95 1.45 -12.6" fill="#4c9bcf" fill-rule="evenodd" stroke="none"/>
    <path d="M-1.35 -10.1 L-1.3 -10.85 Q-1.2 -11.3 -1.05 -11.6 -0.9 -11.6 -0.85 -11.35 -0.8 -11.1 -0.7 -11.05 -0.55 -11.15 -0.5 -11.4 L-0.35 -11.85 0.05 -11.85 Q0.3 -11.8 0.4 -11.85 L0.25 -11.45 Q0.15 -11.25 0.3 -11.1 0.55 -11.05 0.5 -10.55 0.45 -10.1 0.65 -10.0 0.8 -10.05 0.8 -9.95 L0.75 -9.65 0.4 -9.95 Q0.15 -10.1 -0.1 -10.05 L0.1 -10.2 Q0.2 -10.25 0.2 -10.35 L-0.3 -10.3 Q-0.65 -10.35 -0.8 -10.15 L-1.05 -9.45 -1.25 -8.7 -1.55 -8.75 -1.55 -8.9 -1.55 -9.7 -1.45 -9.85 Q-1.4 -10.0 -1.35 -10.1" fill="#77b9d8" fill-rule="evenodd" stroke="none"/>
    <path d="M-1.25 -8.7 L-1.05 -9.45 -0.8 -10.15 Q-0.65 -10.35 -0.3 -10.3 L0.2 -10.35 Q0.2 -10.25 0.1 -10.2 L-0.1 -10.05 Q-0.4 -9.85 -0.45 -9.45 -0.55 -9.05 -0.25 -8.8 -0.4 -8.65 -0.7 -8.65 L-1.25 -8.7" fill="#6ba8b4" fill-rule="evenodd" stroke="none"/>
    <path d="M3.85 -7.75 L4.25 -7.8 4.6 -7.6 4.2 -7.65 Q4.0 -7.6 3.95 -7.4 L3.85 -7.75" fill="#d1d5dc" fill-rule="evenodd" stroke="none"/>
    <path d="M4.6 -7.05 Q4.8 -7.2 5.0 -7.15 5.25 -7.15 5.25 -6.95 5.1 -6.9 4.85 -6.65 4.65 -6.45 4.5 -6.6 4.35 -6.75 4.4 -6.85 4.45 -6.95 4.6 -7.05" fill="#bfcce5" fill-rule="evenodd" stroke="none"/>
    <path d="M3.95 -7.35 L4.45 -7.4 Q4.75 -7.35 4.6 -7.05 4.45 -6.95 4.4 -6.85 4.35 -6.75 4.5 -6.6 L4.25 -6.35 4.2 -6.35 3.95 -6.6 Q3.85 -6.9 3.85 -7.0 3.8 -7.25 3.95 -7.35" fill="#e9eef3" fill-rule="evenodd" stroke="none"/>
    <path d="M4.25 -6.35 L4.65 -6.3 5.05 -6.35 Q4.75 -5.95 5.2 -6.0 4.45 -5.9 4.75 -5.4 L4.5 -5.4 4.25 -5.8 4.05 -6.1 Q4.0 -6.25 4.2 -6.35 L4.25 -6.35" fill="#9fbccd" fill-rule="evenodd" stroke="none"/>
    <path d="M4.2 -6.35 Q4.0 -6.25 4.05 -6.1 L4.25 -5.8 Q3.95 -5.65 3.95 -5.9 3.85 -6.15 3.75 -6.2 L3.95 -6.6 4.2 -6.35" fill="#66899c" fill-rule="evenodd" stroke="none"/>
    <path d="M4.75 -5.4 L4.8 -5.25 Q4.8 -5.05 4.95 -4.6 5.05 -4.2 4.75 -4.15 4.75 -4.3 4.55 -4.55 4.35 -4.75 4.35 -4.9 4.55 -4.9 4.55 -5.1 L4.5 -5.4 4.75 -5.4" fill="#5c7e92" fill-rule="evenodd" stroke="none"/>
    <path d="M4.25 -5.8 L4.5 -5.4 4.55 -5.1 Q4.55 -4.9 4.35 -4.9 4.35 -4.75 4.55 -4.55 4.75 -4.3 4.75 -4.15 L4.7 -4.0 4.6 -3.65 4.6 -3.9 Q4.55 -4.05 4.45 -3.9 L4.4 -4.05 4.3 -4.55 Q4.25 -4.85 4.1 -4.95 4.1 -4.7 3.75 -4.6 3.35 -4.5 3.3 -4.3 3.2 -4.45 3.3 -4.8 3.4 -5.15 3.35 -5.25 2.95 -5.25 3.05 -5.85 L3.15 -6.3 Q3.2 -6.55 3.15 -6.65 L3.3 -7.05 Q3.3 -6.85 3.55 -6.8 3.6 -6.65 3.45 -6.6 3.3 -6.55 3.3 -6.45 3.3 -6.25 3.45 -6.15 L3.75 -6.2 Q3.85 -6.15 3.95 -5.9 3.95 -5.65 4.25 -5.8" fill="#496073" fill-rule="evenodd" stroke="none"/>
    <path d="M4.8 -5.25 L4.9 -5.65 5.4 -5.2 5.95 -4.85 5.75 -4.85 5.5 -4.85 Q5.55 -4.7 5.7 -4.1 5.85 -3.65 5.8 -3.35 L5.6 -3.55 Q5.45 -3.6 5.5 -3.4 5.4 -3.2 5.45 -3.1 5.5 -3.0 5.6 -2.95 L5.8 -3.05 Q5.95 -3.1 5.95 -3.25 L6.15 -2.5 Q6.25 -2.05 6.2 -1.75 5.8 -1.1 5.8 -0.55 L5.6 -0.7 Q5.5 -0.75 5.45 -0.6 5.3 -0.4 5.25 0.25 5.15 0.85 4.95 1.1 5.0 0.75 5.0 0.35 L4.95 -0.4 Q5.05 -0.3 5.1 -0.35 L5.2 -0.5 5.2 -0.75 Q5.15 -0.9 5.05 -0.85 4.85 -0.85 4.9 -1.25 L4.85 -1.5 Q4.8 -1.6 4.65 -1.5 L4.55 -1.5 4.65 -1.8 Q4.9 -1.8 5.0 -2.15 5.05 -2.6 5.1 -2.75 L5.2 -3.05 5.1 -3.05 Q4.85 -2.8 4.75 -2.8 4.8 -3.05 4.8 -3.4 L4.7 -4.0 4.75 -4.15 Q5.05 -4.2 4.95 -4.6 4.8 -5.05 4.8 -5.25 M5.55 -2.5 Q5.45 -2.6 5.3 -2.55 L5.2 -2.05 Q5.35 -2.0 5.45 -2.1 5.55 -2.15 5.55 -2.3 5.6 -2.45 5.55 -2.5" fill="#8cb0c4" fill-rule="evenodd" stroke="none"/>
    <path d="M5.95 -4.85 Q6.35 -4.9 6.05 -5.1 5.65 -5.35 5.5 -5.45 5.5 -5.6 5.7 -5.6 5.8 -5.6 5.95 -5.5 5.9 -5.7 5.95 -5.8 6.05 -5.9 6.2 -5.7 6.5 -5.1 6.7 -4.2 6.5 -4.2 6.5 -4.1 6.5 -4.05 6.6 -3.9 L6.3 -4.05 6.05 -4.1 Q5.9 -3.95 5.9 -3.7 L5.95 -3.25 Q5.95 -3.1 5.8 -3.05 L5.6 -2.95 Q5.5 -3.0 5.45 -3.1 5.4 -3.2 5.5 -3.4 5.45 -3.6 5.6 -3.55 L5.8 -3.35 Q5.85 -3.65 5.7 -4.1 5.55 -4.7 5.5 -4.85 L5.75 -4.85 5.95 -4.85" fill="#eaebf0" fill-rule="evenodd" stroke="none"/>
    <path d="M2.45 -8.9 L2.8 -8.35 Q2.25 -8.25 2.05 -7.9 L1.95 -8.4 1.75 -8.75 1.7 -9.45 1.75 -10.0 1.85 -9.5 Q1.7 -9.35 1.75 -9.15 1.75 -8.95 1.9 -8.8 2.0 -8.7 2.15 -8.7 2.35 -8.7 2.45 -8.9" fill="#618c97" fill-rule="evenodd" stroke="none"/>
    <path d="M2.8 -8.35 L2.9 -8.15 Q2.95 -8.05 3.05 -8.0 L3.0 -7.6 2.75 -7.75 Q2.85 -7.6 2.75 -7.35 L2.7 -6.9 2.65 -6.85 2.6 -6.65 Q2.55 -6.55 2.5 -6.65 2.1 -7.4 2.05 -7.9 2.25 -8.25 2.8 -8.35 M2.5 -7.55 L2.55 -7.85 Q2.6 -8.0 2.4 -8.0 L2.35 -7.7 Q2.35 -7.5 2.5 -7.55" fill="#d0e3ec" fill-rule="evenodd" stroke="none"/>
    <path d="M2.7 -6.9 L2.75 -7.35 Q2.85 -7.6 2.75 -7.75 L3.0 -7.6 Q3.0 -7.45 3.05 -7.3 3.15 -7.15 3.3 -7.05 L3.15 -6.65 3.0 -6.65 2.9 -6.85 2.85 -7.05 Q2.8 -7.05 2.7 -6.9" fill="#7aa0b2" fill-rule="evenodd" stroke="none"/>
    <path d="M2.5 -7.55 Q2.35 -7.5 2.35 -7.7 L2.4 -8.0 Q2.6 -8.0 2.55 -7.85 L2.5 -7.55" fill="#7d9cad" fill-rule="evenodd" stroke="none"/>
    <path d="M3.05 -8.0 L3.2 -8.05 Q3.35 -8.05 3.35 -7.9 L3.35 -7.7 Q3.4 -7.2 3.3 -7.3 L3.0 -7.6 3.05 -8.0" fill="#97b6c5" fill-rule="evenodd" stroke="none"/>
    <path d="M3.55 -7.8 L3.85 -7.75 3.95 -7.4 3.95 -7.35 Q3.8 -7.25 3.85 -7.0 3.85 -6.9 3.95 -6.6 L3.75 -6.2 3.45 -6.15 Q3.3 -6.25 3.3 -6.45 3.3 -6.55 3.45 -6.6 3.6 -6.65 3.55 -6.8 3.3 -6.85 3.3 -7.05 3.5 -6.9 3.55 -6.95 L3.5 -7.2 Q3.35 -7.7 3.55 -7.8" fill="#8eb2c1" fill-rule="evenodd" stroke="none"/>
    <path d="M3.2 -8.05 L3.45 -8.05 Q3.55 -7.95 3.55 -7.8 3.35 -7.7 3.5 -7.2 L3.55 -6.95 Q3.5 -6.9 3.3 -7.05 3.15 -7.15 3.05 -7.3 3.0 -7.45 3.0 -7.6 L3.3 -7.3 Q3.4 -7.2 3.35 -7.7 L3.35 -7.9 Q3.35 -8.05 3.2 -8.05" fill="#cde0e8" fill-rule="evenodd" stroke="none"/>
    <path d="M0.45 -8.75 L1.1 -8.75 1.75 -8.75 1.95 -8.4 1.9 -7.55 Q1.75 -7.65 1.15 -7.75 0.65 -7.8 0.5 -8.15 L0.75 -8.15 0.7 -8.3 Q0.4 -8.6 0.45 -8.75" fill="#aed7ec" fill-rule="evenodd" stroke="none"/>
    <path d="M-0.25 -8.8 Q-0.55 -9.05 -0.45 -9.45 -0.4 -9.85 -0.1 -10.05 0.15 -10.1 0.4 -9.95 L0.75 -9.65 Q0.75 -9.45 0.65 -9.15 L0.45 -8.75 Q0.4 -8.6 0.7 -8.3 L0.75 -8.15 0.5 -8.15 Q0.65 -7.8 1.15 -7.75 1.75 -7.65 1.9 -7.55 2.0 -7.25 1.75 -7.2 L1.3 -7.25 Q1.25 -7.45 1.0 -7.35 L0.6 -7.25 Q0.2 -7.1 -0.55 -7.25 L-1.65 -7.3 Q-1.75 -7.3 -1.7 -7.45 L-1.65 -7.6 Q-1.05 -7.65 -0.65 -7.95 -0.1 -8.25 -0.25 -8.8" fill="#f9fcfd" fill-rule="evenodd" stroke="none"/>
    <path d="M1.9 -7.55 L1.95 -8.4 2.05 -7.9 Q2.1 -7.4 2.5 -6.65 2.55 -6.55 2.6 -6.65 L2.65 -6.85 2.7 -6.35 2.5 -6.45 2.5 -5.75 Q2.55 -5.4 2.7 -5.15 2.7 -4.8 2.6 -4.85 L2.3 -5.05 Q2.2 -5.5 2.05 -5.8 1.85 -6.15 1.5 -6.25 1.0 -6.25 0.5 -5.9 L0.25 -5.9 0.05 -5.9 -0.25 -6.0 Q0.3 -5.95 0.8 -6.3 L1.7 -6.95 1.15 -7.0 Q0.95 -7.05 1.3 -7.25 L1.75 -7.2 Q2.0 -7.25 1.9 -7.55" fill="#799ea4" fill-rule="evenodd" stroke="none"/>
    <path d="M1.3 -7.25 Q0.95 -7.05 1.15 -7.0 L1.7 -6.95 0.8 -6.3 Q0.3 -5.95 -0.25 -6.0 -0.6 -6.15 -0.8 -6.35 -1.1 -6.55 -1.25 -6.8 -1.3 -6.95 -1.25 -6.95 L-1.05 -6.85 -0.6 -6.85 Q-0.6 -7.15 -1.0 -7.2 L-1.65 -7.3 -0.55 -7.25 Q0.2 -7.1 0.6 -7.25 L1.0 -7.35 Q1.25 -7.45 1.3 -7.25" fill="#d8e0ed" fill-rule="evenodd" stroke="none"/>
    <path d="M0.05 -5.9 L0.25 -5.9 Q-0.05 -5.85 -0.35 -5.65 -0.7 -5.4 -0.85 -5.0 L-1.45 -5.05 -1.95 -4.45 Q-2.0 -4.65 -1.75 -5.15 -1.55 -5.55 -1.8 -5.7 -1.5 -5.85 -1.3 -6.2 -1.05 -6.2 -0.6 -6.05 -0.2 -5.85 0.05 -5.9" fill="#c3dce0" fill-rule="evenodd" stroke="none"/>
    <path d="M0.25 -5.9 L0.5 -5.9 Q1.0 -6.25 1.5 -6.25 1.85 -6.15 2.05 -5.8 2.2 -5.5 2.3 -5.05 2.25 -4.85 2.3 -4.65 L2.45 -4.3 2.3 -3.85 1.75 -3.45 1.25 -3.4 0.7 -3.25 0.5 -3.55 0.25 -3.75 -0.1 -3.9 Q-0.15 -4.3 -0.3 -4.55 -0.5 -4.85 -0.85 -4.95 L-0.85 -5.0 Q-0.7 -5.4 -0.35 -5.65 -0.05 -5.85 0.25 -5.9" fill="#f5f6fd" fill-rule="evenodd" stroke="none"/>
    <path d="M2.7 -6.9 Q2.8 -7.05 2.85 -7.05 L2.9 -6.85 3.0 -6.65 3.15 -6.65 Q3.2 -6.55 3.15 -6.3 L3.05 -5.85 Q2.95 -5.25 3.35 -5.25 3.4 -5.15 3.3 -4.8 3.2 -4.45 3.3 -4.3 3.25 -4.1 3.3 -3.85 L3.4 -3.45 3.1 -3.2 Q2.95 -3.0 2.95 -2.85 L2.95 -2.5 Q2.85 -2.65 2.7 -2.65 2.55 -2.7 2.45 -2.6 2.25 -2.5 2.25 -2.35 2.2 -2.25 2.45 -2.25 2.3 -2.25 2.2 -2.05 2.05 -1.9 1.9 -1.95 2.1 -2.25 2.1 -2.4 2.1 -2.6 1.75 -2.65 1.75 -2.75 1.6 -2.8 L1.4 -2.75 1.2 -2.7 Q1.1 -2.7 1.1 -2.9 L1.4 -3.2 1.75 -3.45 2.3 -3.85 Q2.25 -3.6 2.4 -3.4 2.55 -3.2 2.85 -3.1 3.15 -3.35 3.1 -3.85 L3.1 -4.7 Q3.15 -4.8 3.05 -4.95 L2.85 -5.15 2.85 -5.5 2.8 -5.85 2.7 -6.35 2.65 -6.85 2.7 -6.9 M2.55 -2.8 L2.85 -2.75 Q2.85 -2.85 2.7 -2.95 L2.45 -3.05 Q2.4 -2.9 2.55 -2.8" fill="#637f92" fill-rule="evenodd" stroke="none"/>
    <path d="M2.7 -5.15 Q2.55 -5.4 2.5 -5.75 L2.5 -6.45 2.7 -6.35 2.8 -5.85 2.75 -5.5 2.7 -5.15" fill="#f0f6f7" fill-rule="evenodd" stroke="none"/>
    <path d="M2.3 -5.05 L2.6 -4.85 Q2.7 -4.8 2.7 -5.15 L2.75 -5.5 2.8 -5.85 2.85 -5.5 2.85 -5.15 Q3.0 -4.8 2.95 -4.45 2.85 -4.05 2.55 -3.9 L2.65 -4.25 2.75 -4.65 Q2.65 -4.65 2.55 -4.55 L2.45 -4.3 2.3 -4.65 Q2.25 -4.85 2.3 -5.05" fill="#b1c6dc" fill-rule="evenodd" stroke="none"/>
    <path d="M3.3 -4.3 Q3.35 -4.5 3.75 -4.6 4.1 -4.7 4.1 -4.95 4.25 -4.85 4.3 -4.55 L4.4 -4.05 4.2 -4.1 4.2 -4.15 4.1 -4.1 Q3.95 -3.95 4.15 -3.85 4.4 -3.7 4.45 -3.9 4.55 -4.05 4.6 -3.9 L4.6 -3.65 Q4.7 -3.5 4.65 -3.25 L4.5 -2.8 Q4.4 -2.55 4.45 -2.4 4.45 -2.25 4.7 -2.15 L4.7 -1.95 4.65 -1.8 4.55 -1.5 Q4.5 -1.0 4.25 -0.8 4.0 -0.5 3.55 -0.7 3.8 -0.8 3.9 -0.95 4.0 -1.15 3.7 -1.2 L3.85 -1.55 3.95 -1.95 3.7 -1.7 Q3.55 -1.55 3.45 -1.65 L3.6 -2.0 3.85 -2.35 3.6 -2.7 3.25 -3.0 Q3.2 -3.1 3.35 -3.25 3.5 -3.35 3.4 -3.45 L3.3 -3.85 Q3.25 -4.1 3.3 -4.3" fill="#3c4859" fill-rule="evenodd" stroke="none"/>
    <path d="M2.85 -5.15 L3.05 -4.95 Q3.15 -4.8 3.1 -4.7 L3.1 -3.85 Q3.15 -3.35 2.85 -3.1 2.55 -3.2 2.4 -3.4 2.25 -3.6 2.3 -3.85 L2.45 -4.3 2.55 -4.55 Q2.65 -4.65 2.75 -4.65 L2.65 -4.25 2.55 -3.9 Q2.85 -4.05 2.95 -4.45 3.0 -4.8 2.85 -5.15" fill="#87a1bb" fill-rule="evenodd" stroke="none"/>
    <path d="M2.55 -2.8 Q2.4 -2.9 2.45 -3.05 L2.7 -2.95 Q2.85 -2.85 2.85 -2.75 L2.55 -2.8" fill="#a7c6d6" fill-rule="evenodd" stroke="none"/>
    <path d="M2.45 -2.6 Q2.55 -2.7 2.7 -2.65 2.85 -2.65 2.95 -2.5 3.0 -2.35 2.95 -2.2 2.75 -1.95 2.65 -2.2 2.55 -2.55 2.45 -2.6" fill="#3b4251" fill-rule="evenodd" stroke="none"/>
    <path d="M2.95 -2.5 L2.95 -2.85 Q3.15 -2.9 3.2 -2.9 L3.2 -2.75 Q3.05 -2.45 3.2 -2.3 3.35 -2.15 3.1 -2.05 3.05 -2.0 2.95 -2.05 2.9 -2.1 2.95 -2.2 3.0 -2.35 2.95 -2.5" fill="#a7b6cd" fill-rule="evenodd" stroke="none"/>
    <path d="M1.75 -2.65 Q2.1 -2.6 2.1 -2.4 2.1 -2.25 1.9 -1.95 2.05 -1.9 2.2 -2.05 2.3 -2.25 2.45 -2.25 2.2 -2.25 2.25 -2.35 2.25 -2.5 2.45 -2.6 2.55 -2.55 2.65 -2.2 2.75 -1.95 2.95 -2.2 2.9 -2.1 2.95 -2.05 3.05 -2.0 3.1 -2.05 3.35 -2.15 3.2 -2.3 3.05 -2.45 3.2 -2.75 L3.2 -2.9 Q3.15 -2.9 2.95 -2.85 2.95 -3.0 3.1 -3.2 L3.4 -3.45 Q3.5 -3.35 3.35 -3.25 3.2 -3.1 3.25 -3.0 L3.6 -2.7 3.85 -2.35 3.6 -2.0 3.45 -1.65 3.3 -1.65 Q3.25 -1.6 3.3 -1.45 3.3 -1.3 3.4 -1.2 3.5 -1.1 3.65 -1.15 L3.25 -0.8 3.0 -1.1 Q2.9 -1.25 2.75 -1.2 2.6 -1.15 2.3 -0.9 2.05 -0.6 1.8 -0.65 L1.85 -0.75 Q1.9 -0.85 1.8 -0.95 L1.6 -1.1 Q1.45 -1.4 1.25 -1.5 1.05 -1.65 1.3 -1.85 1.65 -2.05 1.7 -2.15 1.6 -2.3 1.6 -2.4 1.6 -2.55 1.75 -2.65 M2.5 -1.95 L2.3 -1.95 Q2.05 -1.75 2.15 -1.5 2.2 -1.2 2.55 -1.25 2.6 -1.45 2.45 -1.5 2.2 -1.6 2.25 -1.7 2.4 -1.65 2.5 -1.85 2.55 -1.9 2.5 -1.95" fill="#4e5f72" fill-rule="evenodd" stroke="none"/>
    <path d="M1.1 -2.9 Q1.1 -2.7 1.2 -2.7 L1.4 -2.75 1.6 -2.8 Q1.75 -2.75 1.75 -2.65 1.6 -2.55 1.6 -2.4 1.6 -2.3 1.7 -2.15 1.65 -2.05 1.3 -1.85 1.05 -1.65 1.25 -1.5 L1.05 -1.45 Q0.95 -1.55 1.05 -1.85 1.25 -2.1 1.2 -2.25 L0.85 -2.3 Q0.6 -2.2 0.5 -2.3 0.6 -2.45 0.5 -2.6 L0.3 -2.9 0.05 -3.15 Q0.0 -3.3 0.05 -3.5 0.1 -3.65 -0.1 -3.55 -0.3 -3.45 -0.35 -3.45 L-0.55 -3.7 Q-0.65 -3.8 -0.7 -3.95 -0.55 -3.8 -0.45 -3.8 -0.35 -3.8 -0.3 -3.95 -0.25 -4.05 -0.3 -4.2 -0.3 -4.35 -0.45 -4.4 -0.6 -4.6 -1.0 -4.65 L-0.85 -4.95 Q-0.5 -4.85 -0.3 -4.55 -0.15 -4.3 -0.1 -3.9 L0.25 -3.75 0.5 -3.55 Q0.15 -3.4 0.3 -3.15 0.5 -2.9 0.8 -3.0 0.65 -2.9 0.65 -2.8 0.7 -2.7 0.8 -2.7 L1.0 -2.7 Q1.1 -2.75 1.1 -2.9" fill="#7598ad" fill-rule="evenodd" stroke="none"/>
    <path d="M-0.35 -3.45 Q-0.3 -3.45 -0.1 -3.55 0.1 -3.65 0.05 -3.5 0.0 -3.3 0.05 -3.15 L0.3 -2.9 0.5 -2.6 Q0.6 -2.45 0.5 -2.3 L0.3 -1.8 Q0.2 -2.0 0.1 -2.0 -0.05 -2.05 -0.15 -1.85 -0.3 -1.95 -0.3 -2.15 L-0.2 -2.5 Q-0.1 -2.7 -0.1 -2.8 -0.15 -2.9 -0.35 -2.9 L-0.4 -3.4 -0.35 -3.45" fill="#b3cee2" fill-rule="evenodd" stroke="none"/>
    <path d="M0.8 -3.0 Q0.5 -2.9 0.3 -3.15 0.15 -3.4 0.5 -3.55 L0.7 -3.25 0.8 -3.0" fill="#4b636c" fill-rule="evenodd" stroke="none"/>
    <path d="M1.75 -3.45 L1.4 -3.2 1.1 -2.9 Q1.1 -2.75 1.0 -2.7 L0.8 -2.7 Q0.7 -2.7 0.65 -2.8 0.65 -2.9 0.8 -3.0 L0.7 -3.25 1.25 -3.4 1.75 -3.45" fill="#cee1e6" fill-rule="evenodd" stroke="none"/>
    <path d="M1.05 -1.45 L1.25 -1.5 Q1.45 -1.4 1.6 -1.1 1.4 -0.95 1.25 -1.15 L1.05 -1.45" fill="#b2cada" fill-rule="evenodd" stroke="none"/>
    <path d="M0.5 -2.3 Q0.6 -2.2 0.85 -2.3 L1.2 -2.25 Q1.25 -2.1 1.05 -1.85 0.95 -1.55 1.05 -1.45 L1.25 -1.15 Q1.4 -0.95 1.6 -1.1 L1.8 -0.95 Q1.9 -0.85 1.85 -0.75 L1.5 -0.85 Q1.25 -0.85 1.3 -0.65 1.4 -0.4 1.35 -0.15 1.25 0.05 1.05 0.15 0.8 0.1 0.95 -0.1 L1.2 -0.4 0.95 -0.6 0.6 -0.65 0.55 -0.75 0.35 -1.05 0.5 -1.1 Q0.55 -1.1 0.55 -1.2 L0.6 -1.4 Q0.7 -1.55 0.6 -1.65 0.5 -1.75 0.3 -1.8 L0.5 -2.3" fill="#546e83" fill-rule="evenodd" stroke="none"/>
    <path d="M0.3 -1.8 Q0.5 -1.75 0.6 -1.65 0.7 -1.55 0.6 -1.4 0.35 -1.6 0.3 -1.8" fill="#89a8c5" fill-rule="evenodd" stroke="none"/>
    <path d="M0.6 -1.4 L0.55 -1.2 Q0.55 -1.1 0.5 -1.1 L0.25 -1.45 -0.15 -1.65 -0.15 -1.85 Q-0.05 -2.05 0.1 -2.0 0.2 -2.0 0.3 -1.8 0.35 -1.6 0.6 -1.4" fill="#dfdefa" fill-rule="evenodd" stroke="none"/>
    <path d="M0.5 -1.1 L0.35 -1.05 -0.45 -1.15 -0.2 -0.8 Q-0.1 -0.6 -0.25 -0.4 -0.55 -0.5 -0.6 -0.85 -0.6 -1.25 -0.65 -1.45 -0.7 -0.9 -1.0 -0.55 -1.4 -0.4 -1.75 -0.1 L-2.35 0.6 Q-2.45 0.3 -2.35 -0.1 -2.25 -0.4 -2.0 -0.7 -1.65 -0.75 -1.4 -1.15 -1.1 -1.6 -0.9 -1.7 L-0.8 -1.8 Q-0.8 -1.55 -0.55 -1.5 -0.3 -1.45 -0.15 -1.65 L0.25 -1.45 0.5 -1.1" fill="#a8c5d8" fill-rule="evenodd" stroke="none"/>
    <path d="M0.35 -1.05 L0.55 -0.75 0.5 -0.5 -0.05 -0.15 -0.3 -0.05 Q-0.6 -0.1 -0.55 -0.25 -0.55 -0.35 -0.25 -0.4 -0.1 -0.6 -0.2 -0.8 L-0.45 -1.15 0.35 -1.05" fill="#cfdcf0" fill-rule="evenodd" stroke="none"/>
    <path d="M0.55 -0.75 L0.6 -0.65 Q0.6 -0.55 0.75 -0.15 0.85 0.15 0.55 0.25 L0.35 0.15 Q0.3 0.0 0.4 -0.15 L0.5 -0.5 0.55 -0.75" fill="#7a98b0" fill-rule="evenodd" stroke="none"/>
    <path d="M1.1 2.2 Q0.9 2.05 0.95 2.3 L0.8 2.2 Q0.9 2.05 0.7 1.8 L0.65 1.7 Q0.65 1.6 0.75 1.6 1.0 1.5 0.95 1.3 L0.75 0.95 0.5 0.55 Q0.45 0.35 0.55 0.25 0.85 0.15 0.75 -0.15 0.6 -0.55 0.6 -0.65 L0.95 -0.6 1.2 -0.4 0.95 -0.1 Q0.8 0.1 1.05 0.15 1.25 0.05 1.35 -0.15 1.4 -0.4 1.3 -0.65 1.25 -0.85 1.5 -0.85 L1.85 -0.75 1.8 -0.65 Q1.7 -0.65 1.7 -0.55 L1.65 -0.35 1.55 -0.15 Q1.5 0.0 1.55 0.1 1.65 0.15 1.8 0.2 2.25 0.2 2.3 -0.1 L2.5 -0.2 2.75 -0.3 2.85 -0.05 2.75 0.4 Q2.65 0.6 2.4 0.65 2.3 0.75 2.0 0.6 1.8 0.45 1.75 0.7 1.6 0.85 1.8 1.05 2.0 1.2 2.1 0.9 2.2 0.9 2.3 1.0 2.35 1.4 2.05 1.65 L1.8 1.4 Q1.65 1.2 1.5 1.2 1.45 1.3 1.45 1.6 1.45 1.9 1.4 2.05 1.25 2.1 1.1 2.2" fill="#3e5059" fill-rule="evenodd" stroke="none"/>
    <path d="M0.5 -0.5 L0.4 -0.15 Q0.3 0.0 0.35 0.15 0.1 0.45 -0.05 0.3 -0.25 0.15 -0.05 -0.15 L0.5 -0.5" fill="#a1bbd1" fill-rule="evenodd" stroke="none"/>
    <path d="M1.55 -0.15 L1.65 -0.35 Q1.85 -0.25 2.0 0.0 L1.75 0.0 Q1.6 -0.05 1.55 -0.15" fill="#d4d6ea" fill-rule="evenodd" stroke="none"/>
    <path d="M1.65 -0.35 L1.7 -0.55 Q1.7 -0.65 1.8 -0.65 2.05 -0.6 2.3 -0.9 2.6 -1.15 2.75 -1.2 2.7 -0.95 2.8 -0.8 2.9 -0.7 3.15 -0.7 L2.75 -0.3 2.5 -0.2 2.3 -0.1 Q2.25 0.2 1.8 0.2 1.65 0.15 1.55 0.1 1.5 0.0 1.55 -0.15 1.6 -0.05 1.75 0.0 L2.0 0.0 Q1.85 -0.25 1.65 -0.35 M2.3 -0.1 L2.0 -0.5 Q1.95 -0.3 2.0 -0.15 2.1 -0.05 2.3 -0.1" fill="#607d92" fill-rule="evenodd" stroke="none"/>
    <path d="M2.3 -0.1 Q2.1 -0.05 2.0 -0.15 1.95 -0.3 2.0 -0.5 L2.3 -0.1" fill="#bdc1f6" fill-rule="evenodd" stroke="none"/>
    <path d="M3.65 -1.15 Q3.5 -1.1 3.4 -1.2 3.3 -1.3 3.3 -1.45 3.25 -1.6 3.3 -1.65 L3.45 -1.65 Q3.55 -1.55 3.7 -1.7 L3.95 -1.95 3.85 -1.55 3.7 -1.2 3.65 -1.15" fill="#aeb7df" fill-rule="evenodd" stroke="none"/>
    <path d="M2.5 -1.95 Q2.55 -1.9 2.5 -1.85 2.4 -1.65 2.25 -1.7 2.2 -1.6 2.45 -1.5 2.6 -1.45 2.55 -1.25 2.2 -1.2 2.15 -1.5 2.05 -1.75 2.3 -1.95 L2.5 -1.95" fill="#969ecb" fill-rule="evenodd" stroke="none"/>
    <path d="M2.75 -1.2 Q2.9 -1.25 3.0 -1.1 L3.25 -0.8 3.15 -0.7 Q2.9 -0.7 2.8 -0.8 2.7 -0.95 2.75 -1.2" fill="#afb4e2" fill-rule="evenodd" stroke="none"/>
    <path d="M3.25 -0.8 L3.65 -1.15 3.7 -1.2 Q4.0 -1.15 3.9 -0.95 3.8 -0.8 3.55 -0.7 3.35 -0.3 2.85 -0.05 L2.75 -0.3 3.15 -0.7 3.25 -0.8" fill="#31353e" fill-rule="evenodd" stroke="none"/>
    <path d="M3.65 4.15 L3.35 3.45 3.25 3.1 3.15 2.75 2.95 2.6 Q3.1 2.4 3.05 2.15 L2.8 1.8 2.75 2.1 2.7 2.45 2.05 2.35 1.9 2.15 Q1.8 2.05 1.75 2.2 L1.75 2.45 Q1.5 2.25 1.4 2.05 1.45 1.9 1.45 1.6 1.45 1.3 1.5 1.2 1.65 1.2 1.8 1.4 L2.05 1.65 Q2.35 1.4 2.3 1.0 L2.4 1.35 Q2.45 1.55 2.65 1.45 2.7 1.25 2.55 1.0 2.35 0.7 2.3 1.0 2.2 0.9 2.1 0.9 L1.75 0.7 Q1.8 0.45 2.0 0.6 2.3 0.75 2.4 0.65 2.65 0.6 2.75 0.4 L2.85 -0.05 Q3.35 -0.3 3.55 -0.7 4.0 -0.5 4.25 -0.8 4.5 -1.0 4.55 -1.5 L4.65 -1.5 4.75 -1.3 Q4.8 -1.2 4.7 -1.1 4.65 -1.05 4.65 -0.6 4.6 -0.3 4.4 -0.4 L4.2 -0.4 Q4.1 -0.3 4.05 -0.15 4.0 0.25 4.25 0.35 L4.25 0.4 4.2 0.9 Q4.15 1.25 4.2 1.45 4.2 1.6 4.0 1.8 3.8 2.05 3.75 2.2 L4.0 2.05 4.2 1.85 Q4.35 1.95 4.3 2.2 L4.2 2.6 4.15 2.85 Q4.15 2.95 4.05 3.0 3.9 3.2 3.7 3.2 3.7 3.5 3.8 3.65 3.9 3.9 4.15 3.6 L4.15 4.15 Q4.0 4.05 3.8 4.25 L3.7 4.35 Q3.65 4.35 3.65 4.15 M3.45 0.55 L3.75 0.5 Q3.9 0.45 3.8 0.35 3.7 0.25 3.55 0.35 3.4 0.4 3.45 0.55 L3.25 0.6 Q3.15 0.6 3.15 0.5 2.95 0.45 2.95 0.7 L2.9 1.0 3.35 0.9 Q3.55 0.8 3.45 0.55 M3.15 2.75 Q3.3 2.9 3.35 2.9 3.45 2.9 3.45 2.75 3.45 2.45 3.15 2.35 L3.15 2.75" fill="#4b5e74" fill-rule="evenodd" stroke="none"/>
    <path d="M6.05 -4.1 L6.35 -3.75 Q6.45 -3.65 6.7 -3.45 6.55 -3.45 6.35 -3.55 L6.05 -3.75 6.3 -3.15 Q6.45 -2.8 6.6 -2.6 L6.35 -2.45 Q6.25 -2.4 6.25 -2.3 6.3 -2.15 6.35 -2.1 6.5 -1.65 6.4 -1.2 6.3 -0.7 6.0 -0.35 5.9 -0.25 5.85 -0.35 5.75 -0.45 5.8 -0.55 5.8 -1.1 6.2 -1.75 6.25 -2.05 6.15 -2.5 L5.95 -3.25 5.9 -3.7 Q5.9 -3.95 6.05 -4.1" fill="#7193a7" fill-rule="evenodd" stroke="none"/>
    <path d="M6.7 -3.45 Q7.05 -3.45 7.0 -3.05 7.0 -2.65 6.8 -2.4 L6.6 -1.15 Q6.5 -0.35 6.6 0.15 6.5 0.3 6.45 0.75 6.4 1.1 6.15 1.1 L6.2 0.35 6.3 -0.4 Q6.1 -0.2 5.9 0.15 L5.65 0.8 Q5.6 0.85 5.4 1.45 5.25 1.85 4.95 1.95 5.0 1.8 4.9 1.5 4.8 1.2 4.95 1.1 5.15 0.85 5.25 0.25 5.3 -0.4 5.45 -0.6 5.5 -0.75 5.6 -0.7 L5.8 -0.55 Q5.75 -0.45 5.85 -0.35 5.9 -0.25 6.0 -0.35 6.3 -0.7 6.4 -1.2 6.5 -1.65 6.35 -2.1 6.4 -2.3 6.35 -2.45 L6.6 -2.6 Q6.45 -2.8 6.3 -3.15 L6.05 -3.75 6.35 -3.55 Q6.55 -3.45 6.7 -3.45" fill="#ccdaee" fill-rule="evenodd" stroke="none"/>
    <path d="M4.4 -4.05 L4.45 -3.9 Q4.4 -3.7 4.15 -3.85 3.95 -3.95 4.1 -4.1 L4.2 -4.15 4.2 -4.1 4.4 -4.05" fill="#8194cc" fill-rule="evenodd" stroke="none"/>
    <path d="M4.6 -3.65 L4.7 -4.0 4.8 -3.4 Q4.8 -3.05 4.75 -2.8 4.85 -2.8 5.1 -3.05 L5.2 -3.05 5.1 -2.75 Q5.05 -2.6 5.0 -2.15 4.9 -1.8 4.65 -1.8 L4.7 -1.95 4.7 -2.15 Q4.45 -2.25 4.45 -2.4 4.4 -2.55 4.5 -2.8 L4.65 -3.25 Q4.7 -3.5 4.6 -3.65" fill="#5a798c" fill-rule="evenodd" stroke="none"/>
    <path d="M5.55 -2.5 Q5.6 -2.45 5.55 -2.3 5.55 -2.15 5.45 -2.1 5.35 -2.0 5.2 -2.05 L5.3 -2.55 Q5.45 -2.6 5.55 -2.5" fill="#bdd2ec" fill-rule="evenodd" stroke="none"/>
    <path d="M4.65 -1.5 Q4.8 -1.6 4.85 -1.5 L4.9 -1.25 Q4.85 -0.85 5.05 -0.85 5.15 -0.9 5.2 -0.75 L5.2 -0.5 5.1 -0.35 Q5.05 -0.3 4.95 -0.4 L4.85 -0.55 4.8 -0.4 Q4.75 0.0 4.65 0.1 L4.3 0.15 4.35 -0.1 4.4 -0.4 Q4.6 -0.3 4.65 -0.6 4.65 -1.05 4.7 -1.1 4.8 -1.2 4.75 -1.3 L4.65 -1.5" fill="#58768c" fill-rule="evenodd" stroke="none"/>
    <path d="M4.95 1.1 Q4.8 1.2 4.9 1.5 5.0 1.8 4.95 1.95 4.7 1.95 4.65 2.35 L4.6 2.6 Q4.55 2.7 4.4 2.65 4.55 2.95 4.3 3.15 4.2 3.25 4.1 3.2 4.05 3.2 4.05 3.0 4.15 2.95 4.15 2.85 L4.2 2.6 Q4.5 2.45 4.5 1.85 4.55 1.2 4.7 1.0 4.8 0.85 4.8 0.65 4.8 0.4 4.65 0.25 L4.65 0.1 Q4.75 0.0 4.8 -0.4 L4.85 -0.55 4.95 -0.4 5.0 0.35 Q5.0 0.75 4.95 1.1" fill="#769cb1" fill-rule="evenodd" stroke="none"/>
    <path d="M4.4 -0.4 L4.35 -0.1 4.3 0.15 4.25 0.35 Q4.0 0.25 4.05 -0.15 4.1 -0.3 4.2 -0.4 L4.4 -0.4" fill="#8590d2" fill-rule="evenodd" stroke="none"/>
    <path d="M6.35 -2.45 Q6.4 -2.3 6.35 -2.1 6.3 -2.15 6.25 -2.3 6.25 -2.4 6.35 -2.45" fill="#86a6bc" fill-rule="evenodd" stroke="none"/>
    <path d="M0.2 -30.05 Q0.05 -29.85 -0.05 -29.5 -0.05 -29.65 -0.15 -29.65 L-0.4 -29.65 -0.3 -30.2 Q0.1 -30.35 0.2 -30.05" fill="#6d8e81" fill-rule="evenodd" stroke="none"/>
    <path d="M-0.05 -29.5 L-0.05 -29.35 Q-0.15 -28.95 -0.15 -28.15 -0.15 -27.35 -0.2 -27.0 L-0.2 -26.9 -0.3 -26.9 -0.3 -25.95 -0.3 -25.9 Q-0.5 -25.1 -0.25 -24.15 L-0.2 -23.95 Q-0.25 -23.85 -0.25 -23.75 L-0.2 -23.55 Q-0.4 -23.45 -0.5 -23.25 -0.65 -23.0 -0.6 -22.75 L-0.65 -21.7 -0.65 -20.65 -0.85 -20.35 Q-0.95 -20.3 -0.95 -20.55 L-0.95 -20.6 -0.9 -21.1 -0.85 -21.75 -0.85 -22.35 -0.8 -22.7 -0.8 -23.0 -0.75 -23.6 -0.7 -24.25 -0.65 -24.8 Q-0.7 -25.2 -0.65 -25.6 L-0.6 -25.95 -0.6 -26.85 -0.55 -27.7 -0.5 -28.05 -0.45 -28.95 -0.4 -29.65 -0.15 -29.65 Q-0.05 -29.65 -0.05 -29.5" fill="#708f80" fill-rule="evenodd" stroke="none"/>
    <path d="M-0.05 -29.35 L-0.05 -27.95 Q0.05 -27.7 0.0 -27.45 -0.05 -27.25 -0.2 -27.0 -0.15 -27.35 -0.15 -28.15 -0.15 -28.95 -0.05 -29.35" fill="#95bcba" fill-rule="evenodd" stroke="none"/>
    <path d="M-0.2 -26.9 L-0.25 -26.45 -0.3 -25.95 -0.3 -26.9 -0.2 -26.9" fill="#b0c9c7" fill-rule="evenodd" stroke="none"/>
    <path d="M-0.3 -25.9 Q-0.25 -25.5 -0.2 -25.05 L-0.25 -24.15 Q-0.5 -25.1 -0.3 -25.9" fill="#b3cecd" fill-rule="evenodd" stroke="none"/>
    <path d="M-0.2 -23.95 L-0.2 -23.55 -0.25 -23.75 Q-0.25 -23.85 -0.2 -23.95" fill="#9bbfbf" fill-rule="evenodd" stroke="none"/>
    <path d="M-0.85 -22.35 L-0.8 -23.0 -0.8 -22.7 -0.85 -22.35" fill="#8e9d97" fill-rule="evenodd" stroke="none"/>
    <path d="M-0.2 -23.55 L-0.45 -22.15 -0.55 -21.4 Q-0.55 -20.9 -0.65 -20.65 L-0.65 -21.7 -0.6 -22.75 Q-0.65 -23.0 -0.5 -23.25 -0.4 -23.45 -0.2 -23.55" fill="#6ca5a3" fill-rule="evenodd" stroke="none"/>
    <path d="M-0.45 -22.15 Q-0.45 -21.3 -0.55 -20.0 L-0.75 -17.85 Q-0.8 -17.7 -0.75 -17.25 -0.75 -16.85 -0.9 -16.65 L-1.0 -17.4 Q-1.0 -17.8 -0.9 -18.15 -0.9 -19.6 -0.65 -20.65 -0.55 -20.9 -0.55 -21.4 L-0.45 -22.15" fill="#a6cbcc" fill-rule="evenodd" stroke="none"/>
    <path d="M-1.25 -16.4 L-1.2 -16.6 Q-1.15 -17.05 -1.15 -17.35 L-1.1 -18.2 -0.95 -20.55 Q-0.95 -20.3 -0.85 -20.35 L-0.65 -20.65 Q-0.9 -19.6 -0.9 -18.15 -1.0 -17.8 -1.0 -17.4 L-0.9 -16.65 -1.15 -16.4 -1.25 -16.4" fill="#88a6a0" fill-rule="evenodd" stroke="none"/>
    <path d="M-0.45 -18.3 L-0.3 -19.65 Q-0.2 -20.5 -0.05 -21.0 L0.1 -21.05 Q-0.1 -19.85 -0.1 -18.15 -0.15 -18.35 -0.45 -18.3" fill="#d0e1ee" fill-rule="evenodd" stroke="none"/>
    <path d="M-1.5 -15.15 L-1.5 -15.7 -1.4 -15.95 -1.3 -16.15 Q-1.25 -15.9 -1.15 -15.7 L-1.1 -15.65 -0.85 -15.7 Q-0.65 -16.1 -0.6 -16.95 -0.55 -17.9 -0.45 -18.3 -0.15 -18.35 -0.1 -18.15 -0.1 -18.05 -0.1 -17.7 L-0.1 -16.4 Q-0.05 -15.6 -0.15 -15.1 L-0.7 -15.1 -1.25 -15.05 Q-1.1 -15.25 -1.25 -15.25 L-1.5 -15.15" fill="#adcae0" fill-rule="evenodd" stroke="none"/>
    <path d="M-1.3 -16.15 L-1.25 -16.4 -1.15 -16.4 -1.15 -15.7 Q-1.25 -15.9 -1.3 -16.15" fill="#89b1b0" fill-rule="evenodd" stroke="none"/>
    <path d="M-1.35 -11.5 Q-1.4 -10.75 -1.35 -10.1 -1.4 -10.0 -1.45 -9.85 L-1.5 -10.7 Q-1.5 -11.2 -1.35 -11.5" fill="#2d6b90" fill-rule="evenodd" stroke="none"/>
    <path d="M-2.65 -7.7 L-2.45 -8.35 -2.2 -9.05 -2.1 -8.8 Q-2.0 -8.7 -1.9 -8.75 L-1.55 -8.9 -1.55 -8.75 -1.65 -8.55 -2.0 -8.6 -2.25 -8.35 Q-2.35 -8.2 -2.35 -8.0 -2.3 -7.85 -2.15 -7.7 L-2.5 -7.45 -2.55 -7.5 -2.55 -7.55 -2.65 -7.7" fill="#68897b" fill-rule="evenodd" stroke="none"/>
    <path d="M-1.25 -8.7 L-0.7 -8.65 Q-0.4 -8.65 -0.25 -8.8 -0.1 -8.25 -0.65 -7.95 -1.05 -7.65 -1.65 -7.6 L-1.6 -8.1 Q-1.55 -8.35 -1.65 -8.55 L-1.55 -8.75 -1.25 -8.7" fill="#a1c8d1" fill-rule="evenodd" stroke="none"/>
    <path d="M-1.65 -7.3 L-1.0 -7.2 Q-0.6 -7.15 -0.6 -6.85 L-1.05 -6.85 -1.25 -6.95 Q-1.3 -6.95 -1.25 -6.8 L-1.6 -6.9 Q-1.75 -7.0 -1.8 -7.15 -1.9 -7.4 -2.15 -7.7 -2.3 -7.85 -2.35 -8.0 -2.35 -8.2 -2.25 -8.35 L-2.0 -8.6 -1.65 -8.55 Q-1.55 -8.35 -1.6 -8.1 L-1.65 -7.6 -1.7 -7.45 Q-1.75 -7.3 -1.65 -7.3" fill="#87abac" fill-rule="evenodd" stroke="none"/>
    <path d="M-2.1 -6.05 L-2.2 -6.55 Q-2.1 -6.75 -2.2 -7.0 L-2.5 -7.4 -2.5 -7.45 -2.15 -7.7 Q-1.9 -7.4 -1.8 -7.15 L-2.0 -7.05 Q-1.8 -6.55 -1.95 -5.75 -2.0 -5.7 -2.05 -5.85 L-2.1 -6.05" fill="#516a65" fill-rule="evenodd" stroke="none"/>
    <path d="M-2.35 -6.75 Q-2.9 -7.25 -2.65 -7.7 L-2.55 -7.55 -2.55 -7.5 -2.5 -7.4 -2.4 -7.05 -2.35 -6.75" fill="#bacfcd" fill-rule="evenodd" stroke="none"/>
    <path d="M-2.2 -6.55 L-2.35 -6.75 -2.4 -7.05 -2.5 -7.4 -2.2 -7.0 Q-2.1 -6.75 -2.2 -6.55" fill="#719290" fill-rule="evenodd" stroke="none"/>
    <path d="M-2.45 -4.85 Q-2.3 -5.0 -2.25 -5.25 L-2.1 -5.65 Q-2.15 -5.4 -2.05 -5.5 L-1.8 -5.7 -2.0 -5.15 Q-2.2 -4.8 -2.45 -4.85" fill="#b7d1d1" fill-rule="evenodd" stroke="none"/>
    <path d="M-2.1 -5.65 L-2.1 -6.05 -2.05 -5.85 Q-2.0 -5.7 -1.95 -5.75 -1.8 -6.55 -2.0 -7.05 L-1.8 -7.15 Q-1.75 -7.0 -1.6 -6.9 L-1.25 -6.8 Q-1.1 -6.55 -0.8 -6.35 -0.6 -6.15 -0.25 -6.0 L0.05 -5.9 Q-0.2 -5.85 -0.6 -6.05 -1.05 -6.2 -1.3 -6.2 -1.5 -5.85 -1.8 -5.7 L-2.05 -5.5 Q-2.15 -5.4 -2.1 -5.65" fill="#6d918f" fill-rule="evenodd" stroke="none"/>
    <path d="M-2.7 -3.25 Q-3.1 -3.25 -3.35 -3.45 -3.7 -3.65 -3.65 -4.0 -3.5 -4.2 -3.05 -4.4 -2.6 -4.65 -2.45 -4.85 -2.2 -4.8 -2.0 -5.15 L-1.8 -5.7 Q-1.55 -5.55 -1.75 -5.15 -2.0 -4.65 -1.95 -4.45 -2.5 -3.8 -2.7 -3.25" fill="#e9f1f2" fill-rule="evenodd" stroke="none"/>
    <path d="M-3.05 -2.1 Q-2.95 -2.7 -2.7 -3.25 -2.5 -3.8 -1.95 -4.45 L-1.45 -5.05 -0.85 -5.0 -0.85 -4.95 -1.0 -4.65 -0.9 -4.25 Q-1.1 -4.65 -1.5 -4.45 L-2.15 -3.95 Q-2.5 -3.6 -2.5 -3.3 L-2.25 -3.4 -2.0 -3.55 Q-2.05 -3.4 -2.2 -3.25 L-2.5 -2.95 Q-2.85 -2.6 -2.6 -2.4 -2.4 -2.25 -2.3 -2.55 L-2.2 -2.7 Q-2.15 -2.75 -2.05 -2.65 -2.0 -2.2 -2.35 -2.1 L-3.05 -2.1" fill="#658695" fill-rule="evenodd" stroke="none"/>
    <path d="M-4.2 -0.2 Q-4.35 0.1 -4.45 -0.1 -4.5 -0.25 -4.4 -0.55 L-4.35 -0.55 -4.2 -0.2" fill="#aababe" fill-rule="evenodd" stroke="none"/>
    <path d="M-4.4 -0.55 L-4.55 -0.5 Q-4.65 -0.45 -4.6 -0.55 -4.6 -0.85 -4.35 -1.1 -4.1 -1.35 -3.75 -1.4 L-3.9 -0.95 Q-4.1 -0.95 -4.2 -0.85 L-4.4 -0.55" fill="#7d97a2" fill-rule="evenodd" stroke="none"/>
    <path d="M-4.35 -0.55 L-4.4 -0.55 -4.2 -0.85 Q-4.1 -0.95 -3.9 -0.95 -3.9 -0.8 -4.05 -0.7 -4.15 -0.65 -4.35 -0.55" fill="#f2f2f2" fill-rule="evenodd" stroke="none"/>
    <path d="M-3.6 -0.5 L-3.95 -0.5 Q-4.15 -0.4 -4.2 -0.2 L-4.35 -0.55 Q-4.15 -0.65 -4.05 -0.7 -3.9 -0.8 -3.9 -0.95 L-3.75 -1.4 Q-3.55 -1.45 -3.35 -1.3 L-3.05 -1.0 -3.05 -0.95 -3.15 -0.7 Q-3.3 -0.85 -3.45 -0.75 -3.6 -0.7 -3.6 -0.5" fill="#57717b" fill-rule="evenodd" stroke="none"/>
    <path d="M-1.0 -4.65 Q-0.6 -4.6 -0.45 -4.4 -0.3 -4.35 -0.3 -4.2 -0.25 -4.05 -0.3 -3.95 -0.35 -3.8 -0.45 -3.8 -0.55 -3.8 -0.7 -3.95 -0.7 -4.1 -0.9 -4.25 L-1.0 -4.65" fill="#9fc2d5" fill-rule="evenodd" stroke="none"/>
    <path d="M-0.7 -3.95 Q-0.65 -3.8 -0.55 -3.7 L-0.35 -3.45 -0.4 -3.4 -0.5 -3.1 Q-0.55 -2.95 -0.35 -2.9 -0.25 -2.65 -0.3 -2.55 L-0.5 -2.3 -0.75 -2.1 -0.95 -2.35 -1.1 -2.65 -1.3 -2.6 -1.55 -2.5 -1.6 -2.55 Q-1.9 -2.6 -2.05 -3.05 -2.25 -3.0 -2.35 -2.8 L-2.6 -2.4 Q-2.85 -2.6 -2.5 -2.95 L-2.2 -3.25 Q-2.05 -3.4 -2.0 -3.55 L-2.25 -3.4 -2.5 -3.3 Q-2.5 -3.6 -2.15 -3.95 L-1.5 -4.45 Q-1.1 -4.65 -0.9 -4.25 -0.7 -4.1 -0.7 -3.95" fill="#2d3b3e" fill-rule="evenodd" stroke="none"/>
    <path d="M-1.6 -2.55 L-1.55 -2.5 -1.6 -2.05 Q-1.65 -1.75 -1.85 -1.65 -2.05 -1.95 -2.0 -2.25 -1.9 -2.55 -1.6 -2.55" fill="#688197" fill-rule="evenodd" stroke="none"/>
    <path d="M-2.9 -1.5 Q-3.1 -1.85 -3.05 -2.1 L-2.35 -2.1 Q-2.0 -2.2 -2.05 -2.65 -2.15 -2.75 -2.2 -2.7 L-2.3 -2.55 Q-2.4 -2.25 -2.6 -2.4 L-2.35 -2.8 Q-2.25 -3.0 -2.05 -3.05 -1.9 -2.6 -1.6 -2.55 -1.9 -2.55 -2.0 -2.25 -2.05 -1.95 -1.85 -1.65 -1.65 -1.75 -1.6 -2.05 L-1.55 -2.5 -1.3 -2.6 -1.1 -2.65 -0.95 -2.35 -0.75 -2.1 -0.5 -2.3 -0.3 -2.55 Q-0.3 -2.25 -0.4 -2.1 -0.55 -1.9 -0.8 -1.8 L-0.9 -1.7 -1.4 -1.7 -1.85 -1.4 -2.1 -1.35 -2.3 -1.25 Q-2.35 -1.45 -2.45 -1.6 -2.55 -1.75 -2.55 -1.5 -2.55 -1.35 -2.65 -1.4 L-2.9 -1.5" fill="#516a72" fill-rule="evenodd" stroke="none"/>
    <path d="M-0.35 -2.9 Q-0.55 -2.95 -0.5 -3.1 L-0.4 -3.4 -0.35 -2.9" fill="#5d7e8c" fill-rule="evenodd" stroke="none"/>
    <path d="M-0.15 -1.85 L-0.15 -1.65 Q-0.3 -1.45 -0.55 -1.5 -0.8 -1.55 -0.8 -1.8 -0.55 -1.9 -0.4 -2.1 -0.3 -2.25 -0.3 -2.55 -0.25 -2.65 -0.35 -2.9 -0.15 -2.9 -0.1 -2.8 -0.1 -2.7 -0.2 -2.5 L-0.3 -2.15 Q-0.3 -1.95 -0.15 -1.85" fill="#6a8f9a" fill-rule="evenodd" stroke="none"/>
    <path d="M-2.7 -1.1 L-2.9 -1.5 -2.65 -1.4 Q-2.55 -1.35 -2.55 -1.5 -2.55 -1.75 -2.45 -1.6 -2.35 -1.45 -2.3 -1.25 L-2.1 -1.35 -1.85 -1.4 -2.05 -0.9 -2.3 -0.9 Q-2.45 -0.95 -2.4 -0.8 -2.55 -0.8 -2.6 -0.9 L-2.7 -1.1" fill="#8fabc0" fill-rule="evenodd" stroke="none"/>
    <path d="M-3.2 -0.25 Q-3.35 -0.25 -3.6 -0.1 L-3.9 0.15 -3.75 -0.15 -3.6 -0.5 Q-3.6 -0.7 -3.45 -0.75 -3.3 -0.85 -3.15 -0.7 -2.95 -0.55 -2.65 -0.55 L-2.6 -0.05 -3.2 -0.25" fill="#3e5054" fill-rule="evenodd" stroke="none"/>
    <path d="M-3.05 -1.0 L-2.7 -1.1 -2.6 -0.9 Q-2.55 -0.8 -2.4 -0.8 L-2.35 -0.8 Q-2.2 -0.65 -2.4 -0.5 -2.6 -0.3 -2.65 -0.55 -2.65 -0.7 -2.8 -0.8 -2.9 -0.95 -3.05 -0.95 L-3.05 -1.0" fill="#c4d3e7" fill-rule="evenodd" stroke="none"/>
    <path d="M-3.15 -0.7 L-3.05 -0.95 Q-2.9 -0.95 -2.8 -0.8 -2.65 -0.7 -2.65 -0.55 -2.95 -0.55 -3.15 -0.7" fill="#88aabf" fill-rule="evenodd" stroke="none"/>
    <path d="M-3.0 0.2 L-3.1 -0.05 -3.2 -0.25 -2.6 -0.05 Q-2.5 0.1 -2.65 0.15 L-3.0 0.2" fill="#5b788b" fill-rule="evenodd" stroke="none"/>
    <path d="M-2.35 -0.8 L-2.4 -0.8 Q-2.45 -0.95 -2.3 -0.9 L-2.05 -0.9 -1.85 -1.4 -1.4 -1.7 -0.9 -1.7 Q-1.1 -1.6 -1.4 -1.15 -1.65 -0.75 -2.0 -0.7 L-2.35 -0.8" fill="#708e9d" fill-rule="evenodd" stroke="none"/>
    <path d="M-2.85 0.6 Q-2.7 0.4 -2.7 0.3 -2.75 0.2 -3.0 0.2 L-2.65 0.15 Q-2.5 0.1 -2.6 -0.05 L-2.65 -0.55 Q-2.6 -0.3 -2.4 -0.5 -2.2 -0.65 -2.35 -0.8 L-2.0 -0.7 Q-2.25 -0.4 -2.35 -0.1 -2.45 0.3 -2.35 0.6 L-2.6 0.6 -2.85 0.6" fill="#89a9be" fill-rule="evenodd" stroke="none"/>
    <path d="M-0.25 -0.4 Q-0.55 -0.35 -0.55 -0.25 -0.6 -0.1 -0.3 -0.05 L-0.4 0.25 Q-0.4 0.0 -0.6 -0.05 -0.8 -0.1 -0.85 0.15 -0.85 -0.1 -1.0 -0.55 -0.7 -0.9 -0.65 -1.45 -0.6 -1.25 -0.6 -0.85 -0.55 -0.5 -0.25 -0.4" fill="#6b8e98" fill-rule="evenodd" stroke="none"/>
    <path d="M0.9 2.8 L0.9 3.05 Q0.8 3.45 0.8 3.8 L0.7 4.15 0.6 4.45 Q0.75 4.65 0.8 4.85 0.85 5.05 0.8 5.25 0.7 5.05 0.45 5.15 0.3 5.25 0.25 5.5 0.15 5.4 0.2 5.1 0.3 4.85 0.1 4.85 0.1 4.1 0.1 3.45 L0.3 3.45 0.2 3.3 0.1 3.15 0.25 3.1 Q0.55 3.1 0.5 2.8 L0.35 2.3 Q0.35 2.1 0.05 2.05 -0.2 2.0 -0.3 2.2 L-0.4 1.9 Q-0.15 1.85 0.0 1.7 0.15 1.5 0.05 1.25 L0.15 1.5 Q0.25 1.7 0.4 1.65 L0.45 1.0 Q0.4 0.6 0.05 0.75 0.0 0.6 -0.1 0.55 -0.25 0.45 -0.35 0.45 L-0.3 1.0 Q-0.25 1.3 -0.35 1.5 L-0.35 1.05 Q-0.35 0.8 -0.6 0.85 L-0.6 0.7 -0.4 0.25 -0.3 -0.05 -0.05 -0.15 Q-0.25 0.15 -0.05 0.3 0.1 0.45 0.35 0.15 L0.55 0.25 Q0.45 0.35 0.5 0.55 L0.75 0.95 0.95 1.3 Q1.0 1.5 0.75 1.6 0.65 1.6 0.65 1.7 L0.7 1.8 Q0.9 2.05 0.8 2.2 0.65 2.2 0.6 2.25 L0.7 2.45 Q0.9 2.7 0.9 2.8" fill="#5e7d89" fill-rule="evenodd" stroke="none"/>
    <path d="M-1.2 0.35 L-1.1 0.05 Q-1.1 -0.15 -1.3 -0.05 -1.6 0.05 -2.0 0.6 -2.45 1.1 -2.8 1.2 L-2.95 0.75 -2.85 0.6 -2.6 0.6 -2.35 0.6 -1.75 -0.1 Q-1.4 -0.4 -1.0 -0.55 -0.85 -0.1 -0.85 0.15 L-1.1 0.5 -1.2 0.35" fill="#4c5f66" fill-rule="evenodd" stroke="none"/>
    <path d="M-0.4 1.9 Q-0.45 1.85 -0.4 1.7 L-0.35 1.5 Q-0.25 1.3 -0.3 1.0 L-0.35 0.45 Q-0.25 0.45 -0.1 0.55 0.0 0.6 0.05 0.75 L0.05 1.25 Q0.15 1.5 0.0 1.7 -0.15 1.85 -0.4 1.9" fill="#394a52" fill-rule="evenodd" stroke="none"/>
    <path d="M-0.6 0.85 Q-0.95 1.25 -1.15 1.6 L-1.15 1.6 -1.35 2.2 -1.35 2.2 -1.35 2.2 -1.4 2.45 -1.55 2.65 Q-1.65 2.75 -1.8 2.75 -1.65 2.55 -1.65 2.1 -1.7 1.65 -1.65 1.45 -1.6 1.2 -1.45 0.9 L-1.2 0.35 -1.1 0.5 Q-1.05 0.65 -1.2 0.8 -1.4 1.0 -1.4 1.1 -1.25 1.2 -1.0 1.0 L-0.6 0.7 -0.6 0.85" fill="#7995a7" fill-rule="evenodd" stroke="none"/>
    <path d="M-0.85 0.15 Q-0.8 -0.1 -0.6 -0.05 -0.4 0.0 -0.4 0.25 L-0.6 0.7 -1.0 1.0 Q-1.25 1.2 -1.4 1.1 -1.4 1.0 -1.2 0.8 -1.05 0.65 -1.1 0.5 L-0.85 0.15" fill="#bbd2e7" fill-rule="evenodd" stroke="none"/>
    <path d="M-1.35 2.2 L-1.35 2.2 -1.4 2.4 -1.4 2.45 -1.35 2.2 -1.35 2.2" fill="#adc4ce" fill-rule="evenodd" stroke="none"/>
    <path d="M-2.8 1.2 L-3.1 1.55 Q-3.25 1.8 -3.45 1.9 -3.4 1.25 -2.95 0.75 L-2.8 1.2" fill="#7793a0" fill-rule="evenodd" stroke="none"/>
    <path d="M-0.4 4.85 Q-0.2 4.65 -0.2 4.35 L-0.25 3.75 -0.35 3.15 Q-0.4 2.85 -0.2 2.6 L-0.15 2.65 Q0.05 2.95 -0.2 3.2 L0.1 3.45 Q0.1 4.1 0.1 4.85 L-0.4 4.85" fill="#485b61" fill-rule="evenodd" stroke="none"/>
    <path d="M-0.2 2.6 L-0.3 2.2 Q-0.2 2.0 0.05 2.05 0.35 2.1 0.35 2.3 0.25 2.6 0.3 2.85 L-0.15 2.65 -0.2 2.6" fill="#9db8de" fill-rule="evenodd" stroke="none"/>
    <path d="M0.35 2.3 L0.5 2.8 Q0.55 3.1 0.25 3.1 L0.1 3.15 0.2 3.3 0.3 3.45 0.1 3.45 -0.2 3.2 Q0.05 2.95 -0.15 2.65 L0.3 2.85 Q0.25 2.6 0.35 2.3" fill="#83a5bb" fill-rule="evenodd" stroke="none"/>
    <path d="M0.6 6.15 L0.85 6.65 0.5 6.7 Q0.3 6.75 0.3 7.0 L0.25 6.8 0.1 6.7 -0.4 6.6 Q-0.25 6.45 -0.3 6.3 L-0.45 6.0 Q-0.35 5.75 -0.35 5.25 L-0.05 5.55 -0.2 5.75 Q-0.3 5.85 -0.3 5.95 -0.05 6.05 0.15 6.0 0.4 6.0 0.25 5.7 0.4 5.75 0.45 5.9 L0.6 6.15" fill="#4f6872" fill-rule="evenodd" stroke="none"/>
    <path d="M-0.45 6.0 Q-0.5 5.3 -0.4 4.85 L0.1 4.85 Q0.3 4.85 0.2 5.1 0.15 5.4 0.25 5.5 0.2 5.6 0.25 5.7 L-0.05 5.55 -0.35 5.25 Q-0.35 5.75 -0.45 6.0" fill="#a3bad6" fill-rule="evenodd" stroke="none"/>
    <path d="M0.25 5.7 Q0.4 6.0 0.15 6.0 -0.05 6.05 -0.3 5.95 -0.3 5.85 -0.2 5.75 L-0.05 5.55 0.25 5.7" fill="#94b5c8" fill-rule="evenodd" stroke="none"/>
    <path d="M0.85 6.65 L0.9 6.95 0.9 7.3 0.65 7.25 Q0.55 7.35 0.55 7.5 L0.35 7.6 Q0.3 7.35 0.15 7.1 0.0 6.9 -0.05 7.3 -0.35 7.5 -0.4 7.25 L-0.35 6.7 Q-0.35 7.05 -0.15 7.0 -0.05 6.95 0.1 6.7 L0.25 6.8 0.3 7.0 Q0.3 6.75 0.5 6.7 L0.85 6.65" fill="#688a9c" fill-rule="evenodd" stroke="none"/>
    <path d="M-0.4 7.7 Q-0.55 7.15 -0.4 6.6 L0.1 6.7 Q-0.05 6.95 -0.15 7.0 -0.35 7.05 -0.35 6.7 L-0.4 7.25 Q-0.35 7.5 -0.05 7.3 0.0 6.9 0.15 7.1 0.3 7.35 0.35 7.6 L0.15 7.8 -0.4 7.7" fill="#b1c8da" fill-rule="evenodd" stroke="none"/>
    <path d="M0.7 8.3 L0.85 8.55 Q0.55 8.85 0.3 8.9 0.0 8.95 -0.15 8.55 L-0.05 8.45 0.2 8.5 Q0.35 8.5 0.5 8.4 L0.7 8.3" fill="#b2ccda" fill-rule="evenodd" stroke="none"/>
    <path d="M-0.3 8.55 Q-0.2 8.35 -0.25 8.1 L-0.4 7.7 0.15 7.8 Q0.05 8.0 -0.05 8.45 L-0.15 8.55 -0.3 8.55" fill="#4d636a" fill-rule="evenodd" stroke="none"/>
    <path d="M0.85 8.55 L1.0 8.7 1.0 9.25 Q0.75 9.0 0.55 9.3 L0.35 9.55 Q0.25 9.7 0.1 9.7 L-0.05 9.6 Q0.05 9.5 -0.05 9.4 L-0.2 9.25 -0.35 8.9 Q-0.4 8.7 -0.3 8.55 L-0.15 8.55 Q0.0 8.95 0.3 8.9 0.55 8.85 0.85 8.55" fill="#63828f" fill-rule="evenodd" stroke="none"/>
    <path d="M-0.05 9.6 L-0.2 9.45 -0.2 9.25 -0.05 9.4 Q0.05 9.5 -0.05 9.6" fill="#a2bbc6" fill-rule="evenodd" stroke="none"/>
    <path d="M6.15 1.1 L5.5 3.05 Q5.1 4.1 4.55 4.8 4.4 4.65 4.5 4.35 4.65 4.05 4.55 3.9 4.65 3.7 5.0 3.15 5.35 2.7 5.35 2.35 5.5 2.2 5.45 2.15 L5.3 1.9 Q5.65 1.85 5.7 1.45 5.75 1.2 5.65 0.8 L5.9 0.15 Q6.1 -0.2 6.3 -0.4 L6.2 0.35 6.15 1.1" fill="#7194a6" fill-rule="evenodd" stroke="none"/>
    <path d="M4.3 0.15 L4.65 0.1 4.65 0.25 Q4.65 0.5 4.5 0.6 4.3 0.65 4.25 0.4 L4.25 0.35 4.3 0.15" fill="#c3c6ec" fill-rule="evenodd" stroke="none"/>
    <path d="M4.65 0.25 Q4.8 0.4 4.8 0.65 4.8 0.85 4.7 1.0 4.55 1.2 4.5 1.85 4.5 2.45 4.2 2.6 L4.3 2.2 Q4.35 1.95 4.2 1.85 L4.0 2.05 3.75 2.2 Q3.8 2.05 4.0 1.8 4.2 1.6 4.2 1.45 4.15 1.25 4.2 0.9 L4.25 0.4 Q4.3 0.65 4.5 0.6 4.65 0.5 4.65 0.25" fill="#5e7c96" fill-rule="evenodd" stroke="none"/>
    <path d="M4.95 1.95 Q5.25 1.85 5.4 1.45 5.6 0.85 5.65 0.8 5.75 1.2 5.7 1.45 5.65 1.85 5.3 1.9 L5.45 2.15 Q5.5 2.2 5.35 2.35 5.35 2.7 5.0 3.15 4.65 3.7 4.55 3.9 4.4 4.15 4.35 4.1 4.3 4.05 4.3 3.85 L4.3 3.55 Q4.25 3.45 4.15 3.6 3.9 3.9 3.8 3.65 3.7 3.5 3.7 3.2 3.9 3.2 4.05 3.0 4.05 3.2 4.1 3.2 4.2 3.25 4.3 3.15 4.55 2.95 4.4 2.65 4.55 2.7 4.6 2.6 L4.65 2.35 Q4.7 1.95 4.95 1.95" fill="#94b5cf" fill-rule="evenodd" stroke="none"/>
    <path d="M4.55 4.8 Q4.75 5.1 4.5 5.45 L4.05 6.0 Q4.15 5.8 4.0 5.65 3.8 5.5 3.9 5.35 4.0 5.4 4.15 5.35 L4.25 5.2 Q4.3 5.1 4.25 5.05 L4.0 5.0 3.85 5.0 4.0 4.6 Q4.05 4.3 4.15 4.15 L4.15 3.6 Q4.25 3.45 4.3 3.55 L4.3 3.85 Q4.3 4.05 4.35 4.1 4.4 4.15 4.55 3.9 4.65 4.05 4.5 4.35 4.4 4.65 4.55 4.8" fill="#86a7bc" fill-rule="evenodd" stroke="none"/>
    <path d="M3.45 0.55 Q3.4 0.4 3.55 0.35 3.7 0.25 3.8 0.35 3.9 0.45 3.75 0.5 L3.45 0.55" fill="#8ba3c5" fill-rule="evenodd" stroke="none"/>
    <path d="M3.45 0.55 Q3.55 0.8 3.35 0.9 L2.9 1.0 2.95 0.7 Q2.95 0.45 3.15 0.5 3.15 0.6 3.25 0.6 L3.45 0.55" fill="#97b2d2" fill-rule="evenodd" stroke="none"/>
    <path d="M2.3 1.0 Q2.35 0.7 2.55 1.0 2.7 1.25 2.65 1.45 2.45 1.55 2.4 1.35 L2.3 1.0" fill="#a4aadc" fill-rule="evenodd" stroke="none"/>
    <path d="M2.85 3.3 L2.7 3.0 2.55 2.75 2.7 2.45 2.75 2.1 2.8 1.8 3.05 2.15 Q3.1 2.4 2.95 2.6 2.9 2.7 2.85 2.95 L2.85 3.3" fill="#bac8e5" fill-rule="evenodd" stroke="none"/>
    <path d="M2.55 2.75 Q2.2 3.0 1.75 2.8 1.4 2.6 1.1 2.2 1.25 2.1 1.4 2.05 1.5 2.25 1.75 2.45 L1.75 2.2 Q1.8 2.05 1.9 2.15 1.75 2.35 1.95 2.55 2.1 2.7 2.3 2.7 L2.2 2.5 2.05 2.35 2.7 2.45 2.55 2.75" fill="#67849a" fill-rule="evenodd" stroke="none"/>
    <path d="M1.75 0.7 L2.1 0.9 Q2.0 1.2 1.8 1.05 1.6 0.85 1.75 0.7" fill="#d5d8ed" fill-rule="evenodd" stroke="none"/>
    <path d="M0.05 0.75 Q0.4 0.6 0.45 1.0 L0.4 1.65 Q0.25 1.7 0.15 1.5 L0.05 1.25 0.05 0.75" fill="#8eb1c3" fill-rule="evenodd" stroke="none"/>
    <path d="M0.95 2.3 L0.9 2.8 Q0.9 2.7 0.7 2.45 L0.6 2.25 Q0.65 2.2 0.8 2.2 L0.95 2.3" fill="#b4c6d4" fill-rule="evenodd" stroke="none"/>
    <path d="M3.15 2.75 L3.15 2.35 Q3.45 2.45 3.45 2.75 3.45 2.9 3.35 2.9 3.3 2.9 3.15 2.75" fill="#6a8cae" fill-rule="evenodd" stroke="none"/>
    <path d="M3.35 3.45 L3.05 3.5 Q2.9 3.45 2.85 3.3 L2.85 2.95 Q2.9 2.7 2.95 2.6 L3.15 2.75 3.25 3.1 3.35 3.45" fill="#85a7ba" fill-rule="evenodd" stroke="none"/>
    <path d="M1.9 2.15 L2.05 2.35 2.2 2.5 2.3 2.7 Q2.1 2.7 1.95 2.55 1.75 2.35 1.9 2.15" fill="#859cd7" fill-rule="evenodd" stroke="none"/>
    <path d="M3.65 5.1 L3.65 4.15 Q3.65 4.35 3.7 4.35 L3.8 4.25 Q4.0 4.05 4.15 4.15 4.05 4.3 4.0 4.6 L3.85 5.0 3.65 5.1" fill="#b1bfd6" fill-rule="evenodd" stroke="none"/>
    <path d="M4.05 6.0 L3.55 6.65 3.45 6.15 Q3.45 5.9 3.65 6.1 3.7 6.25 3.8 5.7 3.85 5.25 3.65 5.5 3.6 5.65 3.5 5.8 L3.35 6.05 Q3.25 6.0 3.25 5.8 3.25 5.6 3.15 5.55 L3.4 5.35 Q3.6 5.25 3.65 5.1 L3.85 5.0 4.0 5.0 3.9 5.35 Q3.8 5.5 4.0 5.65 4.15 5.8 4.05 6.0" fill="#6f8fa2" fill-rule="evenodd" stroke="none"/>
    <path d="M4.0 5.0 L4.25 5.05 Q4.3 5.1 4.25 5.2 L4.15 5.35 Q4.0 5.4 3.9 5.35 L4.0 5.0" fill="#c6d3ed" fill-rule="evenodd" stroke="none"/>
    <path d="M3.55 6.65 Q3.4 6.8 3.2 6.9 L2.75 6.9 3.0 6.25 Q3.15 5.85 3.15 5.55 3.25 5.6 3.25 5.8 3.25 6.0 3.35 6.05 L3.5 5.8 Q3.6 5.65 3.65 5.5 3.85 5.25 3.8 5.7 3.7 6.25 3.65 6.1 3.45 5.9 3.45 6.15 L3.55 6.65" fill="#8daec0" fill-rule="evenodd" stroke="none"/>
    <path d="M0.8 5.25 L0.8 5.3 0.7 6.05 0.6 6.15 0.45 5.9 Q0.4 5.75 0.25 5.7 0.2 5.6 0.25 5.5 0.3 5.25 0.45 5.15 0.7 5.05 0.8 5.25" fill="#3b4d51" fill-rule="evenodd" stroke="none"/>
    <path d="M0.8 5.3 L0.8 5.7 Q0.8 5.9 0.7 6.05 L0.8 5.3" fill="#8e9c9d" fill-rule="evenodd" stroke="none"/>
    <path d="M0.9 7.3 L0.85 7.75 0.7 7.6 0.55 7.5 Q0.55 7.35 0.65 7.25 L0.9 7.3" fill="#bad2de" fill-rule="evenodd" stroke="none"/>
    <path d="M0.85 7.75 Q0.45 8.0 0.7 8.3 L0.5 8.4 0.4 8.0 0.35 7.6 0.55 7.5 0.7 7.6 0.85 7.75" fill="#536d73" fill-rule="evenodd" stroke="none"/>
    <path d="M0.15 7.8 L0.35 7.6 0.4 8.0 0.5 8.4 Q0.35 8.5 0.2 8.5 L-0.05 8.45 Q0.05 8.0 0.15 7.8" fill="#7399a4" fill-rule="evenodd" stroke="none"/>
    <path d="M1.0 9.25 L0.6 9.65 0.1 9.7 Q0.25 9.7 0.35 9.55 L0.55 9.3 Q0.75 9.0 1.0 9.25" fill="#c5d7e0" fill-rule="evenodd" stroke="none"/>
    <path d="M1.0 8.7 Q1.1 8.8 1.1 9.0 1.1 9.15 1.0 9.25 L1.0 8.7" fill="#b6c2c7" fill-rule="evenodd" stroke="none"/>
    <path d="M0.65 -29.85 L0.65 -30.45 0.6 -31.1 0.45 -31.25 0.3 -31.4 0.05 -31.4 Q-0.15 -31.2 -0.2 -30.85 L-0.3 -30.2 -0.4 -29.65 -0.45 -28.95 -0.5 -28.05 -0.55 -27.7 -0.6 -26.85 -0.6 -25.95 -0.65 -25.6 Q-0.7 -25.2 -0.65 -24.8 L-0.7 -24.25 -0.75 -23.6 -0.8 -23.0 -0.85 -22.35 -0.85 -21.75 -0.9 -21.1 -0.95 -20.6 -0.95 -20.55 -1.1 -18.2 -1.15 -17.35 Q-1.15 -17.05 -1.2 -16.6 L-1.25 -16.4 -1.3 -16.15 -1.4 -15.95 -1.5 -15.7 -1.5 -15.15 -1.45 -14.3 -1.55 -13.8 Q-1.55 -13.55 -1.6 -13.2 L-1.7 -12.55 Q-1.8 -12.1 -1.8 -11.75 L-1.8 -11.3 -1.85 -10.6 Q-1.85 -10.15 -2.0 -9.45 L-2.2 -9.05 -2.45 -8.35 -2.65 -7.7 Q-2.9 -7.25 -2.35 -6.75 L-2.2 -6.55 -2.1 -6.05 -2.1 -5.65 -2.25 -5.25 Q-2.3 -5.0 -2.45 -4.85 -2.6 -4.65 -3.05 -4.4 -3.5 -4.2 -3.65 -4.0 -3.7 -3.65 -3.35 -3.45 -3.1 -3.25 -2.7 -3.25 -2.95 -2.7 -3.05 -2.1 -3.1 -1.85 -2.9 -1.5 L-2.7 -1.1 -3.05 -1.0 -3.35 -1.3 Q-3.55 -1.45 -3.75 -1.4 -4.1 -1.35 -4.35 -1.1 -4.6 -0.85 -4.6 -0.55 -4.65 -0.45 -4.55 -0.5 L-4.4 -0.55 Q-4.5 -0.25 -4.45 -0.1 -4.35 0.1 -4.2 -0.2 -4.15 -0.4 -3.95 -0.5 L-3.6 -0.5 -3.75 -0.15 -3.9 0.15 -3.6 -0.1 Q-3.35 -0.25 -3.2 -0.25 L-3.1 -0.05 -3.0 0.2 Q-2.75 0.2 -2.7 0.3 -2.7 0.4 -2.85 0.6 L-2.95 0.75 Q-3.4 1.25 -3.45 1.9 -3.25 1.8 -3.1 1.55 L-2.8 1.2 Q-2.45 1.1 -2.0 0.6 -1.6 0.05 -1.3 -0.05 -1.1 -0.15 -1.1 0.05 L-1.2 0.35 -1.45 0.9 Q-1.6 1.2 -1.65 1.45 -1.7 1.65 -1.65 2.1 -1.65 2.55 -1.8 2.75 -1.65 2.75 -1.55 2.65 L-1.4 2.45 -1.4 2.4 -1.35 2.2 -1.35 2.2 -1.35 2.2 -1.15 1.6 -1.15 1.6 Q-0.95 1.25 -0.6 0.85 -0.35 0.8 -0.35 1.05 L-0.35 1.5 -0.4 1.7 Q-0.45 1.85 -0.4 1.9 L-0.3 2.2 -0.2 2.6 Q-0.4 2.85 -0.35 3.15 L-0.25 3.75 -0.2 4.35 Q-0.2 4.65 -0.4 4.85 -0.5 5.3 -0.45 6.0 L-0.3 6.3 Q-0.25 6.45 -0.4 6.6 -0.55 7.15 -0.4 7.7 L-0.25 8.1 Q-0.2 8.35 -0.3 8.55 -0.4 8.7 -0.35 8.9 L-0.2 9.25 -0.2 9.45 -0.05 9.6 0.1 9.7 0.6 9.65 1.0 9.25 Q1.1 9.15 1.1 9.0 1.1 8.8 1.0 8.7 L0.85 8.55 0.7 8.3 Q0.45 8.0 0.85 7.75 L0.9 7.3 0.9 6.95 0.85 6.65 0.6 6.15 0.7 6.05 Q0.8 5.9 0.8 5.7 L0.8 5.3 0.8 5.25 Q0.85 5.05 0.8 4.85 0.75 4.65 0.6 4.45 L0.7 4.15 0.8 3.8 Q0.8 3.45 0.9 3.05 L0.9 2.8 0.95 2.3 Q0.9 2.05 1.1 2.2 1.4 2.6 1.75 2.8 2.2 3.0 2.55 2.75 L2.7 3.0 2.85 3.3 Q2.9 3.45 3.05 3.5 L3.35 3.45 3.65 4.15 3.65 5.1 Q3.6 5.25 3.4 5.35 L3.15 5.55 Q3.15 5.85 3.0 6.25 L2.75 6.9 3.2 6.9 Q3.4 6.8 3.55 6.65 L4.05 6.0 4.5 5.45 Q4.75 5.1 4.55 4.8 5.1 4.1 5.5 3.05 L6.15 1.1 Q6.4 1.1 6.45 0.75 6.5 0.3 6.6 0.15 6.5 -0.35 6.6 -1.15 L6.8 -2.4 Q7.0 -2.65 7.0 -3.05 7.05 -3.45 6.7 -3.45 6.45 -3.65 6.35 -3.75 L6.05 -4.1 6.3 -4.05 6.6 -3.9 Q6.5 -4.05 6.5 -4.1 6.5 -4.2 6.7 -4.2 6.5 -5.1 6.2 -5.7 6.05 -5.9 5.95 -5.8 5.9 -5.7 5.95 -5.5 5.8 -5.6 5.7 -5.6 5.5 -5.6 5.5 -5.45 5.65 -5.35 6.05 -5.1 6.35 -4.9 5.95 -4.85 L5.4 -5.2 4.9 -5.65 4.8 -5.25 4.75 -5.4 Q4.45 -5.9 5.2 -6.0 4.75 -5.95 5.05 -6.35 L4.65 -6.3 4.25 -6.35 4.5 -6.6 Q4.65 -6.45 4.85 -6.65 5.1 -6.9 5.25 -6.95 5.25 -7.15 5.0 -7.15 4.8 -7.2 4.6 -7.05 4.75 -7.35 4.45 -7.4 L3.95 -7.35 3.95 -7.4 Q4.0 -7.6 4.2 -7.65 L4.6 -7.6 4.25 -7.8 3.85 -7.75 3.55 -7.8 Q3.55 -7.95 3.45 -8.05 L3.2 -8.05 3.05 -8.0 Q2.95 -8.05 2.9 -8.15 L2.8 -8.35 2.45 -8.9 2.3 -9.35 2.3 -9.5 2.4 -10.2 2.45 -10.75 Q2.5 -11.1 2.4 -11.35 2.3 -12.15 2.15 -12.95 L2.05 -13.75 Q2.0 -14.25 1.8 -15.15 1.95 -15.3 1.85 -15.4 1.8 -15.55 1.6 -15.6 L1.6 -16.2 1.6 -16.2 1.55 -16.25 Q1.6 -16.65 1.55 -17.2 L1.5 -18.1 1.5 -19.6 1.45 -21.1 1.4 -22.5 Q1.35 -23.3 1.2 -23.85 L0.9 -27.5 0.8 -28.65 0.65 -29.85 Z" fill="none" stroke="#000000" stroke-linecap="round" stroke-linejoin="round" stroke-opacity="0.4509804" stroke-width="0.1"/>
  </g>
</svg>
