<?xml version="1.0" encoding="UTF-8" standalone="no"?>
<svg xmlns:xlink="http://www.w3.org/1999/xlink" height="4.4px" width="4.4px" xmlns="http://www.w3.org/2000/svg">
  <g transform="matrix(1.0, 0.0, 0.0, 1.0, 2.2, 2.2)">
    <path d="M1.55 -2.0 L1.6 -2.1 1.75 -2.1 1.8 -1.95 1.8 -1.9 1.75 -1.85 1.65 -1.85 1.55 -1.8 1.5 -1.8 1.3 -1.9 1.3 -1.9 1.35 -1.95 Q1.5 -1.9 1.55 -2.0" fill="#b6cfe9" fill-rule="evenodd" stroke="none"/>
    <path d="M1.8 -1.95 L1.75 -2.1 1.6 -2.1 1.55 -2.0 1.5 -2.0 1.5 -2.05 Q1.45 -2.1 1.5 -2.2 L1.9 -2.2 1.95 -2.1 1.9 -2.05 1.85 -2.05 1.8 -1.95" fill="#acc3d9" fill-rule="evenodd" stroke="none"/>
    <path d="M1.8 -1.9 L1.8 -1.95 1.85 -2.05 1.9 -2.05 1.95 -2.1 1.9 -2.2 2.2 -2.2 2.2 -1.8 2.0 -1.8 1.8 -1.9 1.8 -1.9" fill="#a1b5ce" fill-rule="evenodd" stroke="none"/>
    <path d="M1.55 -1.8 L1.65 -1.85 1.75 -1.85 1.8 -1.9 1.8 -1.9 Q1.75 -1.85 1.75 -1.8 L1.85 -1.75 Q1.85 -1.7 1.95 -1.75 L2.1 -1.75 2.15 -1.7 2.2 -1.7 2.2 -1.6 2.1 -1.65 2.05 -1.65 2.0 -1.6 1.95 -1.6 1.9 -1.65 1.85 -1.7 1.7 -1.8 Q1.65 -1.8 1.55 -1.8" fill="#a5bfe4" fill-rule="evenodd" stroke="none"/>
    <path d="M1.5 -2.2 Q1.45 -2.1 1.5 -2.05 L1.4 -2.0 1.3 -2.0 1.25 -1.95 1.2 -1.85 1.1 -1.85 Q1.1 -1.85 1.15 -1.75 L1.1 -1.75 Q1.1 -1.8 1.05 -1.8 L0.95 -1.85 0.95 -1.95 1.0 -2.0 1.1 -2.0 1.1 -1.9 Q1.2 -1.9 1.2 -1.95 L1.3 -2.05 1.35 -2.05 1.4 -2.05 1.45 -2.1 1.45 -2.2 1.5 -2.2" fill="#9ab3db" fill-rule="evenodd" stroke="none"/>
    <path d="M1.5 -2.05 L1.5 -2.0 Q1.5 -1.95 1.4 -1.95 L1.3 -2.0 1.2 -1.85 1.2 -1.7 1.15 -1.55 Q1.1 -1.6 1.1 -1.6 L1.15 -1.7 1.1 -1.75 1.15 -1.75 Q1.1 -1.85 1.1 -1.85 L1.2 -1.85 1.25 -1.95 1.3 -2.0 1.4 -2.0 1.5 -2.05" fill="#a3bde3" fill-rule="evenodd" stroke="none"/>
    <path d="M0.95 -2.0 Q1.0 -2.05 1.05 -2.05 L1.1 -2.1 1.1 -2.2 1.45 -2.2 1.45 -2.1 1.4 -2.05 1.35 -2.05 1.3 -2.05 1.2 -1.95 Q1.2 -1.9 1.1 -1.9 L1.1 -2.0 1.0 -2.0 0.95 -1.95 0.95 -1.85 1.05 -1.8 Q1.1 -1.8 1.1 -1.75 L1.05 -1.7 1.05 -1.6 1.0 -1.7 0.95 -1.8 0.95 -2.0" fill="#93a7cd" fill-rule="evenodd" stroke="none"/>
    <path d="M1.1 -2.2 L1.1 -2.1 1.05 -2.05 Q1.0 -2.05 0.95 -2.0 L0.9 -2.0 0.9 -2.1 0.9 -2.2 1.1 -2.2" fill="#7783a8" fill-rule="evenodd" stroke="none"/>
    <path d="M1.55 -2.0 Q1.5 -1.9 1.35 -1.95 L1.3 -1.9 1.3 -1.9 1.5 -1.8 1.45 -1.75 1.4 -1.7 1.35 -1.75 1.4 -1.75 Q1.4 -1.85 1.35 -1.8 L1.3 -1.7 1.25 -1.6 1.2 -1.55 Q1.15 -1.6 1.15 -1.6 L1.2 -1.7 1.2 -1.85 1.3 -2.0 1.4 -1.95 Q1.5 -1.95 1.5 -2.0 L1.55 -2.0" fill="#adc9ec" fill-rule="evenodd" stroke="none"/>
    <path d="M1.5 -1.8 L1.55 -1.8 Q1.65 -1.8 1.7 -1.8 L1.85 -1.7 Q1.9 -1.65 1.85 -1.55 L1.75 -1.55 1.65 -1.45 Q1.6 -1.5 1.55 -1.5 L1.5 -1.65 1.4 -1.7 1.45 -1.75 1.5 -1.8" fill="#afd1f2" fill-rule="evenodd" stroke="none"/>
    <path d="M1.2 -1.7 L1.15 -1.6 Q1.15 -1.6 1.2 -1.55 L1.25 -1.6 1.3 -1.7 1.35 -1.8 Q1.4 -1.85 1.4 -1.75 L1.35 -1.75 1.4 -1.7 1.5 -1.65 1.55 -1.5 Q1.6 -1.5 1.65 -1.45 L1.75 -1.55 1.85 -1.55 Q1.9 -1.65 1.85 -1.7 L1.9 -1.65 1.95 -1.6 2.0 -1.6 2.05 -1.65 2.1 -1.65 2.2 -1.6 2.2 -1.35 2.1 -1.4 2.05 -1.4 2.05 -1.45 2.0 -1.5 1.9 -1.5 1.75 -1.5 1.65 -1.4 1.6 -1.45 1.5 -1.45 1.5 -1.45 1.45 -1.5 1.45 -1.55 1.4 -1.6 1.4 -1.65 1.45 -1.7 1.35 -1.7 1.3 -1.6 1.35 -1.5 1.35 -1.4 1.25 -1.5 1.15 -1.55 1.2 -1.7 M2.05 -1.4 L2.05 -1.4" fill="#a3c6ef" fill-rule="evenodd" stroke="none"/>
    <path d="M1.05 -1.6 L1.05 -1.7 1.1 -1.75 1.15 -1.7 1.1 -1.6 Q1.1 -1.6 1.15 -1.55 L1.25 -1.5 1.35 -1.4 1.35 -1.5 1.3 -1.6 1.35 -1.7 1.45 -1.7 1.4 -1.65 1.4 -1.6 1.45 -1.55 1.45 -1.5 1.4 -1.4 1.4 -1.35 1.4 -1.3 1.35 -1.3 1.35 -1.35 1.3 -1.3 1.3 -1.35 1.25 -1.4 1.15 -1.5 1.1 -1.55 1.05 -1.6" fill="#93b3e6" fill-rule="evenodd" stroke="none"/>
    <path d="M0.95 -1.8 L1.0 -1.7 1.05 -1.6 1.1 -1.55 1.15 -1.5 1.0 -1.45 Q1.0 -1.55 0.9 -1.5 0.9 -1.45 0.85 -1.4 L0.85 -1.25 0.8 -1.05 0.75 -1.0 0.8 -1.15 0.8 -1.25 0.8 -1.55 0.85 -1.5 Q0.9 -1.5 0.95 -1.6 L0.95 -1.8" fill="#84a0d4" fill-rule="evenodd" stroke="none"/>
    <path d="M1.2 -1.4 L1.05 -1.25 1.0 -1.1 0.95 -1.15 0.9 -1.2 1.05 -1.3 1.2 -1.4" fill="#7095e4" fill-rule="evenodd" stroke="none"/>
    <path d="M1.25 -1.4 L1.2 -1.4 1.05 -1.3 0.9 -1.2 0.95 -1.15 1.0 -1.1 0.95 -1.05 0.85 -1.05 Q0.8 -1.0 0.8 -1.05 L0.85 -1.25 0.85 -1.4 0.95 -1.4 1.0 -1.45 1.15 -1.5 1.25 -1.4" fill="#7aa1e7" fill-rule="evenodd" stroke="none"/>
    <path d="M1.0 -1.1 L1.05 -1.25 1.2 -1.4 1.25 -1.4 1.3 -1.35 1.2 -1.25 1.1 -1.15 1.0 -1.1" fill="#7492ce" fill-rule="evenodd" stroke="none"/>
    <path d="M1.45 -1.5 L1.5 -1.45 1.5 -1.45 1.6 -1.45 1.65 -1.4 1.75 -1.5 1.9 -1.5 2.0 -1.5 2.05 -1.45 1.9 -1.5 1.8 -1.45 1.75 -1.4 1.7 -1.35 1.6 -1.3 1.55 -1.4 1.4 -1.35 1.4 -1.4 1.45 -1.5" fill="#96c2f2" fill-rule="evenodd" stroke="none"/>
    <path d="M1.35 -1.25 L1.35 -1.3 1.4 -1.3 Q1.45 -1.25 1.45 -1.25 L1.55 -1.25 1.65 -1.2 1.7 -1.1 1.75 -1.15 1.8 -1.3 1.9 -1.25 1.9 -1.15 1.85 -1.15 1.8 -1.1 1.7 -1.0 1.6 -1.0 1.55 -1.05 1.5 -1.1 Q1.5 -1.1 1.45 -1.15 L1.4 -1.2 1.35 -1.25 M1.9 -1.15 L1.9 -1.15" fill="#7db3f4" fill-rule="evenodd" stroke="none"/>
    <path d="M1.35 -1.3 L1.35 -1.25 1.35 -1.2 1.3 -1.25 1.3 -1.2 1.3 -1.3 1.35 -1.35 1.35 -1.3" fill="#7fa2d6" fill-rule="evenodd" stroke="none"/>
    <path d="M1.1 -1.15 L1.2 -1.25 1.3 -1.35 1.3 -1.3 1.3 -1.2 1.2 -1.0 Q1.15 -0.95 1.15 -1.05 L1.1 -1.1 1.1 -1.0 1.1 -0.8 1.05 -0.75 1.0 -0.65 1.05 -0.9 1.1 -1.15" fill="#aec6e5" fill-rule="evenodd" stroke="none"/>
    <path d="M1.4 -1.35 L1.55 -1.4 1.6 -1.3 1.7 -1.35 1.75 -1.4 1.8 -1.3 1.75 -1.15 1.7 -1.1 1.65 -1.2 1.55 -1.25 1.45 -1.25 Q1.45 -1.25 1.4 -1.3 L1.4 -1.35" fill="#88bcf6" fill-rule="evenodd" stroke="none"/>
    <path d="M1.8 -1.9 L2.0 -1.8 2.2 -1.8 2.2 -1.7 2.15 -1.7 2.1 -1.75 1.95 -1.75 Q1.85 -1.7 1.85 -1.75 L1.75 -1.8 Q1.75 -1.85 1.8 -1.9" fill="#9db3d9" fill-rule="evenodd" stroke="none"/>
    <path d="M2.05 -1.45 L2.05 -1.4 2.0 -1.35 2.0 -1.4 1.95 -1.35 1.95 -1.25 1.9 -1.15 1.9 -1.25 1.8 -1.3 1.75 -1.4 1.8 -1.45 1.9 -1.5 2.05 -1.45" fill="#87b2ea" fill-rule="evenodd" stroke="none"/>
    <path d="M1.9 -1.15 L1.9 -1.15 1.95 -1.25 1.95 -1.35 2.0 -1.4 2.0 -1.35 1.95 -1.15 1.9 -1.15 1.9 -1.15" fill="#7aa3d2" fill-rule="evenodd" stroke="none"/>
    <path d="M0.9 -2.2 L0.9 -2.1 0.85 -2.05 0.85 -1.95 0.8 -1.9 0.7 -1.8 0.6 -1.75 0.7 -1.95 0.8 -2.15 0.85 -2.2 0.9 -2.2" fill="#b1cae8" fill-rule="evenodd" stroke="none"/>
    <path d="M0.6 -2.2 L0.65 -2.2 0.7 -2.15 0.65 -2.0 Q0.6 -2.0 0.6 -2.05 L0.6 -2.2" fill="#9aa8c0" fill-rule="evenodd" stroke="none"/>
    <path d="M0.8 -2.15 L0.7 -1.95 0.6 -1.75 0.55 -1.65 Q0.5 -1.65 0.5 -1.7 L0.55 -1.75 0.55 -1.85 0.5 -1.95 0.5 -2.2 0.6 -2.2 0.6 -2.05 Q0.6 -2.0 0.65 -2.0 L0.7 -2.15 0.7 -2.1 0.75 -2.1 0.75 -2.1 0.8 -2.15" fill="#8d99b4" fill-rule="evenodd" stroke="none"/>
    <path d="M0.65 -2.2 L0.85 -2.2 0.8 -2.15 0.75 -2.1 0.75 -2.1 0.7 -2.1 0.7 -2.15 0.65 -2.2" fill="#757c99" fill-rule="evenodd" stroke="none"/>
    <path d="M0.6 -1.75 L0.7 -1.8 0.8 -1.9 0.85 -1.95 0.85 -2.05 0.85 -1.7 0.8 -1.55 0.8 -1.25 0.7 -1.2 0.6 -1.05 0.6 -0.9 0.55 -0.75 0.5 -0.8 0.45 -0.8 Q0.4 -0.9 0.5 -1.0 L0.55 -1.05 0.55 -1.15 0.6 -1.25 0.65 -1.3 0.55 -1.3 0.6 -1.4 0.65 -1.5 0.55 -1.55 0.5 -1.35 0.45 -1.15 0.4 -0.95 0.35 -0.8 0.35 -0.95 0.3 -1.05 0.4 -1.35 0.55 -1.65 0.6 -1.75" fill="#c7e1eb" fill-rule="evenodd" stroke="none"/>
    <path d="M0.95 -2.0 L0.95 -1.8 0.95 -1.6 Q0.9 -1.5 0.85 -1.5 L0.85 -1.7 0.9 -1.85 0.9 -2.0 0.95 -2.0" fill="#8295bf" fill-rule="evenodd" stroke="none"/>
    <path d="M0.9 -2.1 L0.9 -2.0 0.9 -1.85 0.85 -1.7 0.85 -2.05 0.9 -2.1" fill="#a2b4c4" fill-rule="evenodd" stroke="none"/>
    <path d="M0.5 -2.2 L0.5 -1.95 0.55 -1.85 0.55 -1.75 0.5 -1.8 0.45 -1.85 Q0.35 -1.9 0.4 -2.0 L0.4 -2.1 0.45 -2.2 0.5 -2.2" fill="#9ba7c0" fill-rule="evenodd" stroke="none"/>
    <path d="M0.3 -2.2 L0.45 -2.2 0.4 -2.1 0.4 -2.0 Q0.35 -1.9 0.45 -1.85 L0.4 -1.75 0.35 -1.6 Q0.25 -1.55 0.25 -1.5 L0.2 -1.55 0.3 -1.65 0.35 -1.8 0.35 -1.85 0.3 -1.9 0.35 -2.0 0.4 -2.05 0.35 -2.15 0.3 -2.2" fill="#a7b8d1" fill-rule="evenodd" stroke="none"/>
    <path d="M0.2 -1.75 Q0.2 -1.8 0.25 -1.85 L0.3 -2.0 0.25 -2.05 0.15 -2.1 0.0 -2.1 -0.05 -2.0 -0.1 -2.1 -0.05 -2.2 0.3 -2.2 0.35 -2.15 0.4 -2.05 0.35 -2.0 0.3 -1.9 0.25 -1.8 0.25 -1.65 0.2 -1.75" fill="#bacedf" fill-rule="evenodd" stroke="none"/>
    <path d="M-0.05 -2.2 L-0.1 -2.1 -0.05 -2.0 0.0 -2.1 0.15 -2.1 0.25 -2.05 0.3 -2.0 0.25 -1.85 Q0.2 -1.8 0.2 -1.75 L0.15 -1.7 0.05 -1.7 0.0 -1.85 Q-0.05 -1.9 -0.15 -1.95 L-0.15 -2.05 -0.2 -2.2 -0.05 -2.2" fill="#bed5e8" fill-rule="evenodd" stroke="none"/>
    <path d="M0.55 -1.75 L0.5 -1.7 Q0.5 -1.65 0.55 -1.65 L0.4 -1.35 0.35 -1.4 0.35 -1.4 0.25 -1.35 0.2 -1.4 0.25 -1.5 Q0.25 -1.55 0.35 -1.6 L0.4 -1.75 0.45 -1.85 0.5 -1.8 0.55 -1.75 M0.4 -1.35 L0.4 -1.35" fill="#97adcc" fill-rule="evenodd" stroke="none"/>
    <path d="M0.25 -1.65 L0.25 -1.8 0.3 -1.9 0.35 -1.85 0.35 -1.8 0.3 -1.65 0.2 -1.55 0.15 -1.5 0.15 -1.55 0.2 -1.65 0.25 -1.65" fill="#adc3dc" fill-rule="evenodd" stroke="none"/>
    <path d="M0.2 -1.75 L0.25 -1.65 0.2 -1.65 0.15 -1.55 0.05 -1.5 Q0.05 -1.5 0.0 -1.55 L0.0 -1.7 -0.05 -1.75 -0.1 -1.75 -0.15 -1.45 -0.15 -1.5 -0.2 -1.5 -0.15 -1.6 -0.25 -1.6 -0.3 -1.7 Q-0.25 -1.8 -0.35 -1.8 L-0.4 -1.8 -0.5 -1.75 -0.5 -1.5 -0.55 -1.5 -0.55 -1.7 Q-0.55 -1.85 -0.6 -1.95 L-0.65 -2.0 -0.7 -2.05 -0.8 -1.9 -0.85 -1.75 -0.8 -1.9 -0.75 -2.05 -0.85 -2.1 -0.9 -2.2 -0.7 -2.2 -0.6 -2.0 -0.5 -1.9 -0.45 -1.85 -0.4 -1.95 -0.35 -2.0 -0.25 -2.0 -0.25 -2.1 -0.2 -2.2 -0.15 -2.05 -0.15 -1.95 Q-0.05 -1.9 0.0 -1.85 L0.05 -1.7 0.15 -1.7 0.2 -1.75 M0.15 -1.55 L0.15 -1.55 M-0.2 -2.2 L-0.2 -2.2" fill="#bcd8ef" fill-rule="evenodd" stroke="none"/>
    <path d="M0.15 -1.55 L0.15 -1.55 0.15 -1.5 0.1 -1.35 -0.05 -1.25 -0.2 -1.1 -0.4 -1.15 Q-0.5 -1.15 -0.5 -1.25 L-0.4 -1.25 -0.3 -1.25 Q-0.2 -1.2 -0.1 -1.3 L0.1 -1.5 0.15 -1.55" fill="#a6cdee" fill-rule="evenodd" stroke="none"/>
    <path d="M0.2 -1.55 L0.25 -1.5 0.2 -1.4 0.1 -1.2 0.0 -1.15 -0.1 -1.15 -0.15 -1.05 -0.15 -1.05 -0.2 -1.1 -0.05 -1.25 0.1 -1.35 0.15 -1.5 0.2 -1.55" fill="#9dc1e5" fill-rule="evenodd" stroke="none"/>
    <path d="M0.15 -1.55 L0.1 -1.5 -0.1 -1.3 Q-0.2 -1.2 -0.3 -1.25 L-0.4 -1.25 -0.5 -1.25 -0.55 -1.35 -0.55 -1.45 -0.55 -1.5 -0.5 -1.5 -0.5 -1.4 -0.45 -1.3 -0.25 -1.35 Q-0.1 -1.3 -0.05 -1.4 L-0.15 -1.45 -0.1 -1.75 -0.05 -1.75 0.0 -1.7 0.0 -1.55 Q0.05 -1.5 0.05 -1.5 L0.15 -1.55 M-0.5 -1.25 L-0.5 -1.25" fill="#b2d6f2" fill-rule="evenodd" stroke="none"/>
    <path d="M0.25 -1.35 L0.35 -1.4 0.35 -1.4 0.4 -1.35 0.3 -1.3 0.3 -1.3 0.2 -1.0 Q0.2 -1.0 0.2 -0.95 L0.25 -0.9 0.25 -0.8 Q0.25 -0.75 0.3 -0.7 0.35 -0.7 0.35 -0.75 L0.45 -0.8 0.5 -0.8 Q0.4 -0.8 0.4 -0.75 L0.35 -0.6 0.3 -0.6 0.3 -0.55 0.25 -0.55 0.2 -0.5 0.15 -0.45 0.15 -0.8 Q0.2 -0.85 0.2 -0.95 L0.2 -1.2 0.25 -1.35 M-1.65 0.8 L-1.55 0.85 -1.5 0.9 -1.5 1.0 -1.5 1.1 -1.55 1.1 Q-1.65 1.1 -1.6 1.15 L-1.55 1.3 -1.6 1.2 -1.7 1.1 -1.7 0.9 -1.65 0.95 -1.65 0.8" fill="#a7cbea" fill-rule="evenodd" stroke="none"/>
    <path d="M0.4 -1.35 L0.4 -1.35 0.3 -1.05 0.35 -0.95 0.35 -0.8 0.4 -0.95 0.45 -1.15 0.5 -1.35 0.55 -1.55 0.65 -1.5 0.6 -1.4 0.55 -1.3 0.65 -1.3 0.6 -1.25 0.55 -1.15 0.55 -1.05 0.5 -1.0 Q0.4 -0.9 0.45 -0.8 L0.35 -0.75 Q0.35 -0.7 0.3 -0.7 0.25 -0.75 0.25 -0.8 L0.25 -0.9 0.2 -0.95 Q0.2 -1.0 0.2 -1.0 L0.3 -1.3 0.3 -1.3 0.4 -1.35 M-0.05 0.8 L-0.05 1.0 0.0 1.0 0.0 0.95 0.05 1.0 0.05 1.05 Q0.05 1.1 0.1 1.1 L0.2 1.0 0.35 0.95 0.4 0.95 0.4 0.85 Q0.4 0.8 0.45 0.8 L0.45 0.9 0.4 1.0 0.3 1.1 0.3 1.2 0.25 1.2 0.1 1.2 0.05 1.2 Q0.0 1.2 0.05 1.25 L0.05 1.4 0.0 1.4 -0.1 1.4 -0.15 1.4 -0.25 1.4 -0.35 1.45 Q-0.4 1.5 -0.45 1.5 L-0.5 1.25 -0.5 0.95 Q-0.5 0.85 -0.55 0.8 L-0.5 0.75 -0.45 0.7 -0.4 0.65 -0.45 0.75 -0.5 0.8 -0.45 1.05 -0.45 1.25 -0.3 1.35 -0.2 1.35 -0.05 1.3 -0.1 1.25 -0.1 1.0 -0.05 0.8 M0.15 1.1 L0.25 1.1 0.3 1.1 0.25 1.05 0.2 1.05 Q0.15 1.05 0.15 1.1" fill="#b3d3ec" fill-rule="evenodd" stroke="none"/>
    <path d="M0.2 -1.4 L0.25 -1.35 0.2 -1.2 0.2 -0.95 Q0.2 -0.85 0.15 -0.8 L0.05 -0.9 0.05 -0.95 0.1 -1.05 0.1 -1.1 0.05 -1.1 0.0 -1.0 -0.05 -1.1 -0.05 -1.05 Q-0.1 -1.1 -0.1 -1.05 L-0.1 -1.0 -0.15 -1.05 -0.1 -1.15 0.0 -1.15 0.1 -1.2 0.2 -1.4" fill="#8cb4d8" fill-rule="evenodd" stroke="none"/>
    <path d="M1.0 -1.45 L0.95 -1.4 0.85 -1.4 Q0.9 -1.45 0.9 -1.5 1.0 -1.55 1.0 -1.45" fill="#8eb0e9" fill-rule="evenodd" stroke="none"/>
    <path d="M0.85 -1.7 L0.85 -1.5 0.8 -1.55 0.85 -1.7" fill="#a2bacf" fill-rule="evenodd" stroke="none"/>
    <path d="M0.95 -1.05 L0.95 -1.05 0.9 -0.95 0.85 -0.9 0.8 -0.85 0.75 -1.0 0.8 -1.05 Q0.8 -1.0 0.85 -1.05 L0.95 -1.05" fill="#739ad1" fill-rule="evenodd" stroke="none"/>
    <path d="M0.95 -1.05 L1.0 -0.95 1.0 -0.85 0.95 -0.9 0.9 -0.95 0.95 -1.05" fill="#aec8de" fill-rule="evenodd" stroke="none"/>
    <path d="M1.0 -1.1 L1.1 -1.15 1.05 -0.9 1.0 -0.65 0.95 -0.5 0.9 -0.6 0.95 -0.75 1.0 -0.85 1.0 -0.95 0.95 -1.05 1.0 -1.1 M0.95 -1.05 L0.95 -1.05" fill="#9fb7ca" fill-rule="evenodd" stroke="none"/>
    <path d="M0.8 -1.25 L0.8 -1.15 0.75 -1.0 0.8 -0.85 0.75 -0.9 0.75 -1.05 0.7 -1.0 0.65 -1.0 0.6 -1.05 0.7 -1.2 0.8 -1.25" fill="#aac7e8" fill-rule="evenodd" stroke="none"/>
    <path d="M0.6 -1.05 L0.65 -1.0 0.7 -1.0 0.75 -1.05 0.75 -0.9 0.7 -0.8 0.7 -0.7 0.8 -0.7 0.85 -0.75 0.85 -0.6 0.9 -0.6 0.85 -0.55 0.8 -0.5 Q0.75 -0.45 0.7 -0.45 0.6 -0.45 0.65 -0.5 L0.7 -0.6 0.65 -0.7 0.55 -0.75 0.5 -0.6 0.4 -0.5 Q0.35 -0.6 0.45 -0.65 0.5 -0.75 0.5 -0.8 L0.55 -0.75 0.6 -0.9 0.6 -1.05 M-1.7 0.9 L-1.7 0.9 -1.7 1.1 -1.6 1.2 -1.55 1.3 -1.5 1.35 -1.45 1.4 -1.5 1.55 -1.55 1.6 -1.6 1.5 -1.65 1.4 -1.7 1.4 -1.75 1.4 -1.85 1.4 -1.9 1.4 -1.95 1.45 -2.05 1.5 Q-2.15 1.15 -2.15 0.9 L-2.15 0.8 -2.1 0.75 -2.1 1.0 -2.05 1.2 -1.9 1.35 -1.7 1.3 -1.75 1.15 -1.8 1.05 -1.7 0.85 -1.7 0.9" fill="#b5d4ec" fill-rule="evenodd" stroke="none"/>
    <path d="M0.5 -0.8 Q0.5 -0.75 0.45 -0.65 0.35 -0.6 0.4 -0.5 L0.5 -0.6 0.55 -0.75 0.65 -0.7 0.7 -0.6 0.65 -0.5 0.65 -0.6 Q0.65 -0.65 0.6 -0.65 L0.55 -0.55 0.5 -0.45 0.35 -0.5 0.2 -0.5 0.25 -0.55 0.3 -0.55 0.3 -0.6 0.35 -0.6 0.4 -0.75 Q0.4 -0.8 0.5 -0.8" fill="#9fc6eb" fill-rule="evenodd" stroke="none"/>
    <path d="M1.0 -0.85 L0.95 -0.75 0.9 -0.6 0.85 -0.6 0.85 -0.75 0.8 -0.7 0.7 -0.7 0.7 -0.8 0.75 -0.9 0.8 -0.85 0.85 -0.9 0.9 -0.95 0.95 -0.9 1.0 -0.85 M0.9 -0.6 L0.9 -0.6" fill="#c3dee8" fill-rule="evenodd" stroke="none"/>
    <path d="M0.0 -1.0 L0.05 -1.1 0.1 -1.1 0.1 -1.05 0.05 -0.95 0.0 -0.95 0.0 -1.0" fill="#7ba3be" fill-rule="evenodd" stroke="none"/>
    <path d="M0.05 -0.95 L0.05 -0.9 0.05 -0.75 0.1 -0.65 0.05 -0.6 0.05 -0.65 0.0 -0.8 0.0 -0.95 0.05 -0.95" fill="#89b6c4" fill-rule="evenodd" stroke="none"/>
    <path d="M0.0 -1.0 L0.0 -0.95 0.0 -0.8 0.05 -0.65 Q-0.05 -0.65 0.0 -0.5 L-0.05 -0.45 -0.05 -0.35 -0.1 -0.45 -0.15 -0.4 -0.15 -0.3 -0.15 -0.15 -0.2 -0.25 -0.25 -0.35 -0.15 -0.6 -0.15 -0.65 -0.15 -0.7 -0.1 -0.8 Q-0.05 -0.85 -0.05 -0.8 L0.0 -0.9 0.0 -1.0" fill="#c7e0e9" fill-rule="evenodd" stroke="none"/>
    <path d="M0.15 -0.8 L0.15 -0.45 0.1 -0.65 0.05 -0.75 0.05 -0.9 0.15 -0.8 M0.15 -0.45 L0.15 -0.45 0.15 -0.45" fill="#86c7da" fill-rule="evenodd" stroke="none"/>
    <path d="M0.15 -0.45 L0.15 -0.45 0.3 -0.4 Q0.35 -0.3 0.35 -0.3 L0.45 -0.35 Q0.45 -0.35 0.5 -0.35 L0.5 -0.3 0.45 -0.2 0.45 -0.3 0.4 -0.25 0.35 -0.15 0.35 -0.2 0.3 -0.15 0.15 -0.25 0.15 -0.45" fill="#739dc3" fill-rule="evenodd" stroke="none"/>
    <path d="M0.15 -0.45 L0.2 -0.5 0.35 -0.5 0.5 -0.45 0.55 -0.55 0.6 -0.65 Q0.65 -0.65 0.65 -0.6 L0.65 -0.5 0.55 -0.4 0.55 -0.25 0.6 -0.25 0.65 -0.25 0.6 -0.2 0.55 -0.2 0.5 -0.25 0.5 -0.3 0.5 -0.35 Q0.45 -0.35 0.45 -0.35 L0.35 -0.3 Q0.35 -0.3 0.3 -0.4 L0.15 -0.45 0.15 -0.45" fill="#86b7e6" fill-rule="evenodd" stroke="none"/>
    <path d="M-0.05 -0.15 L0.0 -0.25 Q0.0 -0.3 0.05 -0.3 L0.05 -0.4 0.1 -0.45 0.1 -0.3 0.15 -0.15 0.15 0.1 0.1 0.2 0.05 0.15 0.05 0.25 0.0 0.25 0.0 0.15 0.05 0.1 0.1 0.1 Q0.15 0.1 0.1 0.0 L0.05 -0.1 0.0 -0.1 0.0 0.05 0.0 0.0 -0.05 0.0 -0.05 0.2 -0.05 0.45 -0.1 0.6 -0.1 0.75 -0.15 0.85 -0.2 1.0 Q-0.2 0.75 -0.35 0.5 L-0.35 0.45 -0.35 0.45 -0.3 0.45 -0.2 0.15 -0.15 0.15 -0.15 0.1 -0.1 -0.05 -0.05 -0.15 M1.05 0.0 Q1.15 -0.2 1.2 -0.45 L1.2 -0.45 1.25 -0.25 1.3 0.05 1.3 0.1 1.25 0.2 1.25 0.3 1.2 0.4 1.15 0.5 1.15 0.35 1.1 0.25 1.1 0.15 Q1.0 0.1 1.0 0.05 L1.05 0.0" fill="#c8e1eb" fill-rule="evenodd" stroke="none"/>
    <path d="M0.0 -0.5 Q-0.05 -0.65 0.05 -0.65 L0.05 -0.6 0.1 -0.45 0.05 -0.4 0.05 -0.3 Q0.0 -0.3 0.0 -0.25 L-0.05 -0.15 0.0 -0.35 0.0 -0.5 M2.05 -0.8 Q2.05 -0.9 2.1 -0.95 L2.15 -0.95 2.15 -0.75 2.15 -0.6 2.1 -0.55 2.05 -0.5 2.05 -0.7 2.1 -0.85 2.05 -0.8" fill="#b1c9e6" fill-rule="evenodd" stroke="none"/>
    <path d="M0.1 -0.65 L0.15 -0.45 0.15 -0.25 0.15 -0.15 0.1 -0.3 0.1 -0.45 0.05 -0.6 0.1 -0.65" fill="#638fa5" fill-rule="evenodd" stroke="none"/>
    <path d="M0.25 -0.15 L0.2 -0.1 0.2 -0.1 0.15 -0.2 0.25 -0.15" fill="#b2c1c2" fill-rule="evenodd" stroke="none"/>
    <path d="M0.15 0.1 L0.15 -0.15 0.15 -0.25 0.3 -0.15 0.25 -0.15 0.15 -0.2 0.2 -0.1 0.2 0.05 0.2 0.2 0.15 0.2 0.15 0.1" fill="#869eac" fill-rule="evenodd" stroke="none"/>
    <path d="M0.2 0.05 L0.2 -0.1 0.2 -0.1 0.25 -0.15 0.3 -0.15 0.35 -0.2 0.3 0.0 Q0.25 -0.05 0.25 0.0 L0.25 0.1 0.2 0.1 0.2 0.05" fill="#b8d4dd" fill-rule="evenodd" stroke="none"/>
    <path d="M0.3 0.0 L0.35 -0.2 0.35 -0.15 0.4 -0.1 0.45 -0.1 0.5 -0.1 0.55 -0.1 0.45 -0.05 0.35 0.0 0.3 0.0 M0.35 -0.15 L0.35 -0.15" fill="#84c1dc" fill-rule="evenodd" stroke="none"/>
    <path d="M0.25 0.1 L0.25 0.0 Q0.25 -0.05 0.3 0.0 L0.35 0.0 0.3 0.1 0.25 0.1" fill="#87a7bc" fill-rule="evenodd" stroke="none"/>
    <path d="M0.5 -0.3 L0.5 -0.25 0.55 -0.2 0.6 -0.2 0.65 -0.15 0.6 -0.15 0.6 -0.1 0.55 -0.1 0.5 -0.1 0.45 -0.1 0.4 -0.1 0.35 -0.15 0.45 -0.2 0.5 -0.3" fill="#76add5" fill-rule="evenodd" stroke="none"/>
    <path d="M0.35 -0.15 L0.35 -0.15 0.4 -0.25 0.45 -0.3 0.45 -0.2 0.35 -0.15" fill="#55839b" fill-rule="evenodd" stroke="none"/>
    <path d="M0.35 0.0 L0.45 -0.05 0.55 -0.1 0.6 -0.1 0.65 -0.1 0.7 -0.1 0.7 -0.05 0.65 0.0 0.6 0.0 0.5 0.0 0.4 0.0 0.35 0.1 0.3 0.2 0.3 0.1 0.35 0.0" fill="#a8cde5" fill-rule="evenodd" stroke="none"/>
    <path d="M0.9 -0.6 L0.95 -0.5 0.9 -0.35 0.85 -0.45 0.9 -0.6" fill="#85a1be" fill-rule="evenodd" stroke="none"/>
    <path d="M0.8 -0.5 L0.85 -0.55 0.9 -0.6 0.9 -0.6 0.85 -0.45 0.85 -0.35 0.75 -0.3 0.75 -0.2 0.7 -0.1 0.65 -0.1 0.6 -0.1 0.65 -0.1 Q0.7 -0.15 0.65 -0.15 L0.6 -0.2 0.55 -0.2 0.6 -0.2 0.65 -0.25 0.7 -0.35 0.8 -0.5 M0.7 -0.1 L0.7 -0.1" fill="#89b2d8" fill-rule="evenodd" stroke="none"/>
    <path d="M0.85 -0.45 L0.9 -0.35 Q0.85 -0.35 0.85 -0.25 L0.85 -0.15 0.8 -0.2 0.85 -0.35 0.85 -0.45 M0.9 -0.35 L0.9 -0.35" fill="#a4c8e9" fill-rule="evenodd" stroke="none"/>
    <path d="M0.95 -0.5 L1.0 -0.65 1.05 -0.75 1.1 -0.8 1.1 -1.0 1.15 -0.75 1.1 -0.7 1.1 -0.55 1.05 -0.55 1.0 -0.55 1.0 -0.45 1.0 -0.25 Q1.0 -0.15 1.0 -0.1 L0.95 -0.1 0.9 -0.35 0.95 -0.5 M0.9 -0.35 L0.9 -0.35" fill="#c9e2eb" fill-rule="evenodd" stroke="none"/>
    <path d="M1.0 -0.45 L1.0 -0.55 1.05 -0.55 1.1 -0.55 1.1 -0.7 1.15 -0.75 1.2 -0.7 1.2 -0.6 Q1.15 -0.6 1.1 -0.5 L1.05 -0.4 Q1.05 -0.35 1.05 -0.4 L1.0 -0.45" fill="#b9d4e7" fill-rule="evenodd" stroke="none"/>
    <path d="M0.65 -0.5 Q0.6 -0.45 0.7 -0.45 0.75 -0.45 0.8 -0.5 L0.7 -0.35 0.65 -0.25 0.6 -0.25 0.55 -0.25 0.55 -0.4 0.65 -0.5" fill="#9fc3ea" fill-rule="evenodd" stroke="none"/>
    <path d="M0.65 -0.15 Q0.7 -0.15 0.65 -0.1 L0.6 -0.1 0.6 -0.15 0.65 -0.15" fill="#618aa4" fill-rule="evenodd" stroke="none"/>
    <path d="M0.7 -0.05 L0.7 -0.1 0.75 -0.05 0.8 0.0 0.8 0.1 0.7 0.05 0.7 -0.05 M0.7 -0.1 L0.7 -0.1" fill="#afe9ea" fill-rule="evenodd" stroke="none"/>
    <path d="M0.35 0.1 L0.4 0.0 0.5 0.0 0.6 0.0 0.65 0.0 0.7 -0.05 0.7 0.05 0.6 0.05 Q0.55 0.05 0.55 0.05 L0.4 0.15 0.35 0.1" fill="#8db3d7" fill-rule="evenodd" stroke="none"/>
    <path d="M0.75 -0.05 L0.7 -0.1 0.75 -0.2 0.8 -0.15 0.75 -0.05" fill="#6f8fa6" fill-rule="evenodd" stroke="none"/>
    <path d="M0.8 -0.2 L0.85 -0.15 0.85 -0.05 0.85 0.05 0.8 0.0 0.75 -0.05 0.8 -0.15 0.8 -0.2" fill="#89b1da" fill-rule="evenodd" stroke="none"/>
    <path d="M0.85 -0.35 L0.8 -0.2 0.8 -0.15 0.75 -0.2 0.75 -0.3 0.85 -0.35" fill="#7da0c4" fill-rule="evenodd" stroke="none"/>
    <path d="M0.85 -0.15 L0.85 -0.25 Q0.85 -0.35 0.9 -0.35 L0.95 -0.1 1.0 -0.1 Q1.0 -0.05 0.95 -0.05 L0.85 -0.05 0.85 -0.15" fill="#b5d3ea" fill-rule="evenodd" stroke="none"/>
    <path d="M1.0 -0.45 L1.05 -0.4 Q1.05 -0.35 1.05 -0.4 L1.1 -0.5 Q1.15 -0.6 1.2 -0.6 L1.2 -0.55 Q1.15 -0.5 1.15 -0.35 L1.05 -0.2 Q1.0 -0.1 1.05 0.0 L1.0 0.05 1.0 0.1 0.95 0.1 0.95 0.15 0.9 0.2 0.9 0.15 Q0.9 0.1 0.85 0.1 L0.85 0.05 0.85 -0.05 0.95 -0.05 Q1.0 -0.05 1.0 -0.1 1.0 -0.15 1.0 -0.25 L1.0 -0.45" fill="#acc8e1" fill-rule="evenodd" stroke="none"/>
    <path d="M1.4 -1.2 L1.45 -1.15 Q1.5 -1.1 1.5 -1.1 L1.55 -1.05 1.6 -1.0 1.7 -1.0 1.8 -1.1 1.85 -1.15 1.9 -1.15 1.9 -1.15 1.85 -0.95 1.75 -0.8 1.7 -0.75 1.65 -0.65 1.55 -0.7 1.5 -0.75 1.5 -0.8 1.45 -0.9 1.4 -1.0 1.35 -1.1 1.4 -1.2" fill="#71aef6" fill-rule="evenodd" stroke="none"/>
    <path d="M2.05 -1.4 L2.05 -1.4 2.05 -1.3 2.05 -1.1 2.0 -1.15 2.0 -1.05 1.95 -1.0 1.95 -1.15 2.0 -1.35 2.05 -1.4 M2.05 -1.3 L2.05 -1.3" fill="#afc9eb" fill-rule="evenodd" stroke="none"/>
    <path d="M1.95 -1.0 L2.0 -1.05 2.0 -1.15 2.05 -1.1 2.05 -1.3 2.1 -1.2 2.1 -0.95 Q2.05 -0.9 2.05 -0.8 L2.05 -0.75 2.0 -0.65 2.0 -0.75 1.95 -0.8 1.95 -0.45 1.95 -0.35 1.85 -0.4 1.85 -0.65 1.95 -1.0 M1.95 -0.35 L1.95 -0.35" fill="#c6dfe9" fill-rule="evenodd" stroke="none"/>
    <path d="M1.9 -1.15 L1.85 -0.95 1.8 -0.75 1.8 -0.75 1.7 -0.7 1.7 -0.55 1.65 -0.5 1.55 -0.6 1.5 -0.75 1.55 -0.7 1.65 -0.65 1.7 -0.75 1.75 -0.8 1.85 -0.95 1.9 -1.15" fill="#65a5ec" fill-rule="evenodd" stroke="none"/>
    <path d="M1.9 -1.15 L1.95 -1.15 1.95 -1.0 1.85 -0.65 1.8 -0.75 1.85 -0.95 1.9 -1.15" fill="#679bcb" fill-rule="evenodd" stroke="none"/>
    <path d="M1.85 -0.65 L1.85 -0.4 1.95 -0.35 1.85 -0.3 1.8 -0.2 1.8 -0.25 Q1.75 -0.3 1.8 -0.4 L1.75 -0.5 1.75 -0.6 1.8 -0.75 1.85 -0.65 M1.8 -0.75 L1.8 -0.75" fill="#a8cae8" fill-rule="evenodd" stroke="none"/>
    <path d="M1.95 -0.45 L1.95 -0.8 2.0 -0.75 2.0 -0.65 1.95 -0.45" fill="#9fc3e1" fill-rule="evenodd" stroke="none"/>
    <path d="M1.8 -0.75 L1.75 -0.6 1.75 -0.6 1.7 -0.55 1.7 -0.7 1.8 -0.75" fill="#619bd8" fill-rule="evenodd" stroke="none"/>
    <path d="M1.3 -1.2 L1.3 -1.25 1.35 -1.2 1.25 -1.05 1.25 -0.85 1.3 -0.9 1.35 -0.6 Q1.3 -0.4 1.35 -0.3 L1.35 -0.3 1.35 -0.15 1.3 -0.2 1.25 -0.25 1.2 -0.45 1.2 -0.55 1.2 -0.6 1.2 -0.7 1.2 -0.95 1.2 -1.0 1.3 -1.2" fill="#6696d5" fill-rule="evenodd" stroke="none"/>
    <path d="M1.35 -1.2 L1.35 -1.25 1.4 -1.2 1.35 -1.1 1.4 -1.0 1.45 -0.9 1.5 -0.8 1.4 -0.9 1.35 -0.9 1.3 -0.9 1.25 -0.85 1.25 -1.05 1.35 -1.2" fill="#6e9eea" fill-rule="evenodd" stroke="none"/>
    <path d="M1.1 -1.0 L1.1 -1.1 1.15 -1.05 Q1.15 -0.95 1.2 -1.0 L1.2 -0.95 1.15 -0.85 1.1 -1.0" fill="#a4b9c9" fill-rule="evenodd" stroke="none"/>
    <path d="M1.2 -0.7 L1.15 -0.75 1.15 -0.85 1.2 -0.95 1.2 -0.7" fill="#6083bb" fill-rule="evenodd" stroke="none"/>
    <path d="M1.4 -0.85 L1.45 -0.7 1.55 -0.55 1.55 -0.4 Q1.5 -0.4 1.55 -0.35 L1.55 -0.25 1.45 -0.2 1.4 -0.15 1.45 -0.35 1.5 -0.5 Q1.45 -0.5 1.45 -0.4 L1.4 -0.3 1.35 -0.3 1.35 -0.85 1.4 -0.85 M1.35 -0.3 L1.35 -0.3" fill="#aec8e5" fill-rule="evenodd" stroke="none"/>
    <path d="M1.4 -0.9 L1.4 -0.85 1.35 -0.85 1.35 -0.3 Q1.3 -0.4 1.35 -0.6 L1.3 -0.9 1.35 -0.9 1.4 -0.9" fill="#86aadb" fill-rule="evenodd" stroke="none"/>
    <path d="M1.5 -0.8 L1.5 -0.75 1.55 -0.6 1.65 -0.5 1.7 -0.55 1.7 -0.5 1.65 -0.45 1.65 -0.4 Q1.65 -0.5 1.55 -0.55 L1.45 -0.7 1.4 -0.85 1.4 -0.9 1.5 -0.8" fill="#669bdb" fill-rule="evenodd" stroke="none"/>
    <path d="M1.35 -0.3 L1.4 -0.3 1.45 -0.4 Q1.45 -0.5 1.5 -0.5 L1.45 -0.35 1.4 -0.15 1.4 -0.1 1.35 -0.05 1.35 -0.15 1.35 -0.3" fill="#9eb7c7" fill-rule="evenodd" stroke="none"/>
    <path d="M1.2 -0.45 L1.2 -0.45 Q1.15 -0.2 1.05 0.0 1.0 -0.1 1.05 -0.2 L1.15 -0.35 Q1.15 -0.5 1.2 -0.55 L1.2 -0.45" fill="#b8d1e8" fill-rule="evenodd" stroke="none"/>
    <path d="M1.3 0.05 L1.25 -0.25 1.3 -0.2 1.35 -0.15 1.35 -0.05 1.35 0.0 1.3 0.05" fill="#739ab7" fill-rule="evenodd" stroke="none"/>
    <path d="M1.4 -0.15 L1.45 -0.2 1.55 -0.25 1.55 -0.35 Q1.5 -0.4 1.55 -0.4 L1.6 -0.2 1.6 -0.15 1.55 -0.05 Q1.5 0.05 1.45 0.0 L1.4 0.1 1.45 0.2 1.45 0.25 Q1.45 0.35 1.4 0.35 L1.35 0.0 1.35 -0.05 1.4 -0.1 1.4 -0.15" fill="#c6e0e9" fill-rule="evenodd" stroke="none"/>
    <path d="M1.95 -0.35 L1.95 -0.35 1.9 -0.15 1.9 -0.2 1.85 -0.2 1.8 -0.15 1.8 -0.2 1.85 -0.3 1.95 -0.35" fill="#9bb9d1" fill-rule="evenodd" stroke="none"/>
    <path d="M1.95 -0.35 L1.95 -0.45 2.0 -0.65 2.05 -0.75 2.05 -0.8 2.1 -0.85 2.05 -0.7 2.05 -0.5 1.95 -0.3 1.95 -0.35" fill="#97adbc" fill-rule="evenodd" stroke="none"/>
    <path d="M1.75 -0.6 L1.75 -0.5 1.7 -0.35 1.65 -0.45 1.7 -0.5 1.7 -0.55 1.75 -0.6 1.75 -0.6" fill="#5088c5" fill-rule="evenodd" stroke="none"/>
    <path d="M1.65 -0.45 L1.7 -0.35 1.7 -0.3 1.75 -0.3 1.7 -0.25 1.75 -0.2 1.65 -0.25 1.65 -0.3 1.65 -0.4 1.65 -0.45" fill="#aae4ea" fill-rule="evenodd" stroke="none"/>
    <path d="M1.55 -0.55 Q1.65 -0.5 1.65 -0.4 L1.65 -0.3 1.55 -0.4 1.55 -0.55" fill="#628bb2" fill-rule="evenodd" stroke="none"/>
    <path d="M1.6 -0.2 L1.55 -0.4 1.65 -0.3 1.65 -0.25 1.65 -0.15 1.6 -0.2" fill="#88a0ad" fill-rule="evenodd" stroke="none"/>
    <path d="M1.75 -0.5 L1.8 -0.4 Q1.75 -0.3 1.8 -0.25 L1.75 -0.3 1.7 -0.3 1.7 -0.35 1.75 -0.5" fill="#86afda" fill-rule="evenodd" stroke="none"/>
    <path d="M1.6 -0.15 L1.6 -0.2 1.65 -0.15 1.65 -0.25 1.75 -0.2 1.75 -0.1 1.8 0.0 1.75 0.05 1.75 0.0 Q1.7 -0.05 1.7 0.0 L1.65 0.0 1.6 -0.15 1.6 -0.15" fill="#a3cee7" fill-rule="evenodd" stroke="none"/>
    <path d="M1.8 -0.25 L1.8 -0.2 1.8 -0.15 1.8 -0.15 1.75 -0.1 1.75 -0.2 1.7 -0.25 1.75 -0.3 1.8 -0.25" fill="#87cee5" fill-rule="evenodd" stroke="none"/>
    <path d="M1.6 -0.05 L1.6 -0.15 1.65 0.0 1.6 -0.05 M1.65 0.0 L1.65 0.0" fill="#729cc4" fill-rule="evenodd" stroke="none"/>
    <path d="M1.45 0.2 L1.4 0.1 1.45 0.0 Q1.5 0.05 1.55 -0.05 L1.6 -0.15 1.6 -0.05 1.55 0.0 1.55 0.15 1.5 0.15 1.45 0.2 1.45 0.2 M1.6 -0.15 L1.6 -0.15" fill="#bbd8e3" fill-rule="evenodd" stroke="none"/>
    <path d="M1.65 0.0 L1.65 0.0 1.65 0.0 1.65 0.1 1.65 0.0" fill="#61869c" fill-rule="evenodd" stroke="none"/>
    <path d="M1.6 -0.05 L1.65 0.0 1.65 0.0 1.6 0.0 1.55 0.15 1.55 0.0 1.6 -0.05" fill="#9fbac8" fill-rule="evenodd" stroke="none"/>
    <path d="M1.65 0.0 L1.65 0.1 1.65 0.15 1.6 0.1 1.6 0.2 1.65 0.25 Q1.6 0.25 1.55 0.3 L1.5 0.4 1.55 0.25 1.55 0.15 1.6 0.0 1.65 0.0" fill="#b0c9e8" fill-rule="evenodd" stroke="none"/>
    <path d="M1.85 -0.2 L1.9 -0.2 1.9 -0.15 1.95 -0.15 1.95 -0.05 1.9 0.05 2.0 0.15 2.0 0.25 Q2.05 0.2 2.0 0.1 L2.0 -0.25 2.05 -0.35 2.05 -0.15 2.1 0.0 2.1 0.05 2.05 0.1 Q2.05 0.15 2.1 0.2 2.05 0.2 2.05 0.35 L2.05 0.45 1.95 0.45 1.95 0.5 1.85 0.25 1.9 0.2 1.85 0.15 1.85 0.1 Q1.85 0.05 1.85 0.0 L1.85 -0.05 1.85 -0.2" fill="#acceeb" fill-rule="evenodd" stroke="none"/>
    <path d="M1.75 -0.1 L1.8 -0.15 1.8 -0.15 1.85 -0.2 1.85 -0.05 1.8 0.0 1.75 -0.1" fill="#74abc4" fill-rule="evenodd" stroke="none"/>
    <path d="M2.1 0.2 Q2.05 0.15 2.05 0.1 L2.1 0.05 2.1 0.0 2.05 -0.15 2.05 -0.35 2.0 -0.25 2.0 0.1 Q2.05 0.2 2.0 0.25 L2.0 0.15 1.9 0.05 1.95 -0.05 1.95 -0.15 1.95 -0.3 2.05 -0.5 2.1 -0.55 2.15 -0.6 2.15 -0.75 2.2 -0.65 2.2 -0.1 2.15 0.05 Q2.15 0.1 2.2 0.15 L2.2 0.2 2.1 0.2" fill="#cbe4ec" fill-rule="evenodd" stroke="none"/>
    <path d="M1.95 -0.15 L1.9 -0.15 1.95 -0.35 1.95 -0.3 1.95 -0.15" fill="#7c93a6" fill-rule="evenodd" stroke="none"/>
    <path d="M2.05 -1.4 L2.1 -1.4 2.2 -1.35 2.2 -1.2 2.15 -1.3 2.05 -1.35 2.05 -1.3 2.05 -1.4" fill="#88b3e3" fill-rule="evenodd" stroke="none"/>
    <path d="M2.05 -1.3 L2.05 -1.3 2.05 -1.35 2.15 -1.3 2.2 -1.2 2.2 -1.0 2.15 -1.15 2.1 -1.25 2.1 -1.2 2.05 -1.3" fill="#75a2d9" fill-rule="evenodd" stroke="none"/>
    <path d="M2.1 -0.95 L2.1 -1.2 2.1 -1.25 2.15 -1.15 2.2 -1.0 2.2 -0.9 2.15 -0.95 2.1 -0.95" fill="#6897cd" fill-rule="evenodd" stroke="none"/>
    <path d="M2.2 -0.9 L2.2 -0.65 2.15 -0.75 2.15 -0.95 2.2 -0.9" fill="#5d85b0" fill-rule="evenodd" stroke="none"/>
    <path d="M2.2 0.2 L2.2 0.45 2.15 0.4 2.1 0.45 2.05 0.35 2.1 0.3 2.1 0.2 2.2 0.2" fill="#add1ec" fill-rule="evenodd" stroke="none"/>
    <path d="M2.05 0.35 Q2.05 0.2 2.1 0.2 L2.1 0.3 2.05 0.35" fill="#92bdea" fill-rule="evenodd" stroke="none"/>
    <path d="M2.2 -0.1 L2.2 0.15 Q2.15 0.1 2.15 0.05 L2.2 -0.1" fill="#b1d0ec" fill-rule="evenodd" stroke="none"/>
    <path d="M1.95 0.45 L2.05 0.45 2.05 0.35 2.1 0.45 2.15 0.4 2.2 0.45 2.2 0.5 2.1 0.65 Q2.1 0.5 2.0 0.5 L1.95 0.45" fill="#8dbae7" fill-rule="evenodd" stroke="none"/>
    <path d="M2.05 0.7 L2.1 0.65 2.15 0.65 2.15 0.8 2.1 0.8 2.05 0.7" fill="#b5e3e9" fill-rule="evenodd" stroke="none"/>
    <path d="M2.2 0.5 L2.2 0.7 2.15 0.65 2.1 0.65 2.05 0.7 2.0 0.65 1.95 0.55 Q1.95 0.5 2.0 0.5 2.1 0.5 2.1 0.65 L2.2 0.5" fill="#7198b9" fill-rule="evenodd" stroke="none"/>
    <path d="M2.05 0.85 L2.05 0.8 2.1 0.8 Q2.1 0.85 2.1 0.95 L2.1 1.15 2.05 1.2 1.95 1.25 1.95 1.35 1.9 1.5 1.85 1.45 1.75 1.45 1.7 1.35 1.65 1.25 Q1.65 1.2 1.7 1.2 L1.7 1.25 1.75 1.3 1.8 1.4 1.85 1.4 1.9 1.25 Q1.9 1.15 2.0 1.15 L2.05 1.1 2.05 1.0 2.05 0.85" fill="#6fa8e8" fill-rule="evenodd" stroke="none"/>
    <path d="M2.05 0.8 L2.05 0.85 1.85 0.85 1.9 0.8 2.05 0.8" fill="#3d83be" fill-rule="evenodd" stroke="none"/>
    <path d="M1.85 0.85 L2.05 0.85 1.95 0.85 Q1.9 0.85 1.85 0.85" fill="#479bde" fill-rule="evenodd" stroke="none"/>
    <path d="M2.2 0.8 L2.2 0.85 Q2.15 0.9 2.15 1.0 L2.1 1.2 2.05 1.2 2.0 1.25 Q1.95 1.45 2.0 1.6 L1.95 1.6 1.85 1.55 1.75 1.45 1.85 1.45 1.9 1.5 1.95 1.35 1.95 1.25 2.05 1.2 2.1 1.15 2.1 0.95 Q2.1 0.85 2.1 0.8 L2.05 0.8 1.9 0.8 2.15 0.8 2.2 0.8" fill="#85bde3" fill-rule="evenodd" stroke="none"/>
    <path d="M2.2 0.7 L2.2 0.8 2.15 0.8 2.15 0.65 2.2 0.7" fill="#91d6eb" fill-rule="evenodd" stroke="none"/>
    <path d="M2.05 0.7 L2.1 0.8 2.0 0.8 2.0 0.65 2.05 0.7" fill="#ddf0ef" fill-rule="evenodd" stroke="none"/>
    <path d="M2.2 1.5 L2.2 1.55 2.1 1.55 2.05 1.6 2.05 1.7 2.1 1.8 1.95 1.65 1.85 1.55 1.95 1.6 2.0 1.6 Q1.95 1.45 2.0 1.25 L2.05 1.2 2.1 1.2 2.05 1.25 Q2.0 1.3 2.05 1.35 2.0 1.45 2.05 1.5 2.15 1.55 2.2 1.5" fill="#91c8e2" fill-rule="evenodd" stroke="none"/>
    <path d="M2.2 0.85 L2.2 1.5 Q2.15 1.55 2.05 1.5 2.0 1.45 2.05 1.35 2.0 1.3 2.05 1.25 L2.1 1.2 2.15 1.0 Q2.15 0.9 2.2 0.85" fill="#a4d1ec" fill-rule="evenodd" stroke="none"/>
    <path d="M2.0 1.15 Q1.9 1.15 1.9 1.25 L1.85 1.4 1.8 1.4 Q1.85 1.4 1.9 1.3 L1.9 1.15 1.9 1.0 1.95 1.0 2.05 1.0 2.0 1.1 Q1.95 1.1 2.0 1.15" fill="#5595e7" fill-rule="evenodd" stroke="none"/>
    <path d="M2.05 1.0 L2.05 1.1 2.0 1.15 Q1.95 1.1 2.0 1.1 L2.05 1.0" fill="#96c0ea" fill-rule="evenodd" stroke="none"/>
    <path d="M2.05 0.85 L2.05 1.0 1.95 1.0 1.9 1.0 1.85 1.0 1.85 0.85 Q1.9 0.85 1.95 0.85 L2.05 0.85" fill="#51a8f4" fill-rule="evenodd" stroke="none"/>
    <path d="M2.2 1.55 L2.2 1.95 2.1 1.9 2.1 1.8 2.05 1.7 2.05 1.6 2.1 1.55 2.2 1.55" fill="#8abcd4" fill-rule="evenodd" stroke="none"/>
    <path d="M2.1 2.2 L2.0 2.2 1.9 2.1 1.85 2.05 1.9 2.0 2.0 2.1 2.05 2.15 2.1 2.2" fill="#64afed" fill-rule="evenodd" stroke="none"/>
    <path d="M2.2 1.95 L2.2 2.2 2.1 2.2 2.05 2.15 2.0 2.05 2.0 2.0 2.05 1.95 2.0 1.85 1.9 1.8 1.8 1.7 1.75 1.6 1.7 1.55 1.65 1.45 1.6 1.4 1.65 1.35 1.7 1.35 1.75 1.45 1.85 1.55 1.95 1.65 2.1 1.8 2.1 1.9 2.2 1.95" fill="#a5d5eb" fill-rule="evenodd" stroke="none"/>
    <path d="M1.85 0.0 Q1.85 0.05 1.85 0.1 L1.85 0.15 1.9 0.2 1.85 0.25 1.8 0.2 1.75 0.2 1.8 0.1 1.85 0.0" fill="#8ab1db" fill-rule="evenodd" stroke="none"/>
    <path d="M1.75 0.0 L1.75 0.05 1.8 0.0 1.85 -0.05 1.85 0.0 1.8 0.1 1.75 0.2 1.7 0.05 1.75 0.0" fill="#6187a0" fill-rule="evenodd" stroke="none"/>
    <path d="M1.75 0.2 L1.8 0.2 1.85 0.25 1.8 0.25 1.85 0.4 1.85 0.5 1.9 0.55 1.9 0.65 2.0 0.65 2.0 0.8 1.75 0.8 1.7 0.7 1.8 0.7 1.85 0.75 1.85 0.7 1.75 0.6 1.7 0.4 1.8 0.35 1.75 0.25 1.7 0.2 1.7 0.05 1.75 0.2 M1.9 0.65 L1.85 0.6 1.8 0.5 1.85 0.6 1.9 0.7 1.95 0.7 1.9 0.65" fill="#a7d9eb" fill-rule="evenodd" stroke="none"/>
    <path d="M1.85 0.25 L1.95 0.5 1.95 0.55 1.9 0.5 1.85 0.4 1.8 0.25 1.85 0.25" fill="#8cddec" fill-rule="evenodd" stroke="none"/>
    <path d="M1.65 0.1 L1.65 0.0 1.7 0.0 Q1.7 -0.05 1.75 0.0 L1.7 0.05 1.7 0.2 1.65 0.15 1.65 0.1" fill="#83adbb" fill-rule="evenodd" stroke="none"/>
    <path d="M1.5 0.4 L1.55 0.3 Q1.6 0.25 1.65 0.25 L1.6 0.2 1.6 0.1 1.65 0.15 1.7 0.25 1.7 0.35 1.7 0.4 1.7 0.5 1.75 0.6 1.85 0.7 1.75 0.7 1.7 0.7 1.65 0.8 1.65 0.9 1.6 0.95 1.6 0.85 1.55 0.8 1.6 0.7 1.55 0.7 1.55 0.65 1.5 0.75 1.5 0.95 Q1.4 0.95 1.35 0.8 L1.4 0.75 1.4 0.7 1.45 0.6 1.5 0.5 1.5 0.45 1.5 0.4" fill="#c5e2ec" fill-rule="evenodd" stroke="none"/>
    <path d="M1.55 0.15 L1.55 0.25 1.5 0.4 1.5 0.45 1.45 0.5 1.4 0.55 1.35 0.45 1.45 0.45 1.5 0.15 1.55 0.15" fill="#8fa4b4" fill-rule="evenodd" stroke="none"/>
    <path d="M1.75 0.25 L1.8 0.35 1.7 0.4 1.7 0.35 1.75 0.35 1.75 0.3 1.75 0.25" fill="#97c3e5" fill-rule="evenodd" stroke="none"/>
    <path d="M1.7 0.2 L1.75 0.25 1.75 0.3 1.7 0.25 1.65 0.15 1.7 0.2" fill="#628495" fill-rule="evenodd" stroke="none"/>
    <path d="M1.7 0.25 L1.75 0.3 1.75 0.35 1.7 0.35 1.7 0.25" fill="#36678b" fill-rule="evenodd" stroke="none"/>
    <path d="M1.7 0.4 L1.75 0.6 1.7 0.5 1.7 0.4" fill="#74a5cd" fill-rule="evenodd" stroke="none"/>
    <path d="M1.95 0.5 L1.95 0.45 2.0 0.5 Q1.95 0.5 1.95 0.55 L2.0 0.65 1.9 0.65 1.9 0.55 1.85 0.5 1.85 0.4 1.9 0.5 1.95 0.55 1.95 0.5" fill="#74b5e6" fill-rule="evenodd" stroke="none"/>
    <path d="M1.9 0.65 L1.95 0.7 1.9 0.7 1.85 0.6 1.8 0.5 1.85 0.6 1.9 0.65" fill="#658aa6" fill-rule="evenodd" stroke="none"/>
    <path d="M1.3 0.1 L1.3 0.05 1.35 0.0 1.4 0.35 Q1.45 0.35 1.45 0.25 L1.45 0.2 1.5 0.15 1.45 0.45 1.35 0.45 1.35 0.4 1.35 0.35 1.3 0.35 1.3 0.1" fill="#a6c0d3" fill-rule="evenodd" stroke="none"/>
    <path d="M1.45 0.25 L1.45 0.2 1.45 0.25 M1.45 0.2 L1.45 0.2" fill="#86b8e5" fill-rule="evenodd" stroke="none"/>
    <path d="M1.25 0.3 L1.25 0.2 1.3 0.1 1.3 0.35 1.3 0.45 1.25 0.5 Q1.25 0.65 1.3 0.75 L1.35 0.7 1.35 0.5 Q1.35 0.45 1.35 0.4 L1.35 0.45 1.4 0.55 1.45 0.5 1.5 0.45 1.5 0.5 1.45 0.6 1.4 0.7 1.4 0.75 1.35 0.8 Q1.4 0.95 1.5 0.95 L1.5 0.75 1.55 0.8 1.55 0.7 1.6 0.7 1.55 0.8 1.6 0.85 1.6 0.95 1.65 0.9 1.6 1.0 1.55 1.05 1.5 1.1 1.45 1.15 1.4 1.05 1.35 0.95 1.3 0.9 1.25 0.95 1.15 0.95 1.1 0.9 1.0 1.0 Q1.0 1.05 0.95 1.0 L0.85 0.75 0.85 0.4 0.9 0.3 0.9 0.2 0.9 0.75 0.95 0.8 1.15 0.9 Q1.25 0.9 1.25 0.85 L1.25 0.75 1.2 0.6 1.25 0.45 1.25 0.3" fill="#b6d4eb" fill-rule="evenodd" stroke="none"/>
    <path d="M1.0 0.05 Q1.0 0.1 1.1 0.15 L1.1 0.25 1.15 0.35 1.15 0.5 1.2 0.4 1.25 0.3 1.25 0.45 1.2 0.6 1.25 0.75 1.25 0.85 Q1.25 0.9 1.15 0.9 L0.95 0.8 0.9 0.75 0.9 0.2 0.95 0.15 0.95 0.1 1.0 0.1 1.0 0.05 M1.15 0.35 L1.1 0.35 1.05 0.35 Q0.95 0.6 1.05 0.7 L1.1 0.6 1.15 0.5 1.15 0.35 M0.45 0.9 L0.5 0.9 0.55 0.85 0.55 0.9 0.5 1.15 0.5 1.35 0.45 1.25 0.45 1.15 0.35 1.2 Q0.35 1.45 0.4 1.6 L0.5 1.55 0.55 1.45 0.5 1.7 Q0.45 1.9 0.5 2.0 L0.5 2.1 0.45 2.15 0.3 2.1 0.15 2.0 0.15 1.5 0.2 1.4 0.25 1.35 0.3 1.25 0.3 1.2 0.3 1.1 0.4 1.0 0.45 0.9 M0.4 1.8 L0.4 1.65 Q0.4 1.55 0.35 1.55 0.2 1.8 0.3 1.95 L0.35 1.9 0.4 1.8" fill="#c1ddec" fill-rule="evenodd" stroke="none"/>
    <path d="M1.15 0.35 L1.15 0.5 1.1 0.6 1.05 0.7 Q0.95 0.6 1.05 0.35 L1.1 0.35 1.15 0.35 M0.4 1.8 L0.35 1.9 0.3 1.95 Q0.2 1.8 0.35 1.55 0.4 1.55 0.4 1.65 L0.4 1.8" fill="#b8d7ec" fill-rule="evenodd" stroke="none"/>
    <path d="M1.35 0.4 Q1.35 0.45 1.35 0.5 L1.35 0.7 1.3 0.75 Q1.25 0.65 1.25 0.5 L1.3 0.45 1.3 0.35 1.35 0.35 1.35 0.4" fill="#adcceb" fill-rule="evenodd" stroke="none"/>
    <path d="M1.7 0.7 L1.75 0.8 1.7 0.95 1.75 0.9 1.8 1.0 1.8 1.1 1.9 1.0 1.9 1.15 1.75 1.15 Q1.65 1.2 1.65 1.05 1.6 1.05 1.55 1.1 L1.45 1.2 Q1.4 1.2 1.35 1.1 1.35 1.0 1.3 1.0 L1.25 1.05 1.2 1.15 0.95 1.25 0.9 1.1 0.85 0.95 0.8 0.75 0.8 0.55 0.8 0.5 0.75 0.45 0.7 0.45 0.75 0.4 0.75 0.35 0.85 0.4 0.85 0.75 0.95 1.0 Q1.0 1.05 1.0 1.0 L1.1 0.9 1.15 0.95 1.25 0.95 1.3 0.9 1.35 0.95 1.4 1.05 1.45 1.15 1.5 1.1 1.55 1.05 1.6 1.0 1.65 0.9 1.65 0.8 1.7 0.7" fill="#a9cbea" fill-rule="evenodd" stroke="none"/>
    <path d="M1.7 1.2 Q1.65 1.2 1.65 1.25 L1.7 1.35 1.65 1.35 1.6 1.4 1.55 1.35 1.55 1.25 1.45 1.35 Q1.4 1.4 1.35 1.35 1.35 1.25 1.3 1.15 L1.25 1.2 1.15 1.25 0.95 1.25 1.2 1.15 1.25 1.05 1.3 1.0 Q1.35 1.0 1.35 1.1 1.4 1.2 1.45 1.2 L1.55 1.1 Q1.6 1.05 1.65 1.05 1.65 1.2 1.75 1.15 L1.75 1.2 1.7 1.2" fill="#99c2ea" fill-rule="evenodd" stroke="none"/>
    <path d="M0.95 1.25 L1.15 1.25 1.25 1.2 1.3 1.15 Q1.35 1.25 1.35 1.35 1.4 1.4 1.45 1.35 L1.55 1.25 1.55 1.35 1.6 1.4 1.65 1.45 1.7 1.55 1.7 1.5 1.6 1.45 1.5 1.45 1.35 1.45 1.3 1.3 1.2 1.3 1.1 1.3 0.95 1.3 0.95 1.25 M-2.05 1.75 L-1.85 1.7 -1.75 1.7 -1.65 1.65 -1.65 1.75 -1.55 1.85 -1.5 1.75 -1.4 1.7 -1.4 1.85 -1.35 1.8 -1.3 1.8 -1.3 1.85 -1.35 1.85 -1.45 1.9 -1.6 1.9 -1.7 1.75 -1.75 1.75 -1.8 1.8 -1.9 1.75 -2.05 1.75" fill="#8cb9e5" fill-rule="evenodd" stroke="none"/>
    <path d="M1.85 0.7 L1.85 0.75 1.8 0.7 1.7 0.7 1.75 0.7 1.85 0.7" fill="#6495b4" fill-rule="evenodd" stroke="none"/>
    <path d="M1.85 0.85 L1.85 1.0 1.8 1.0 1.75 0.9 1.8 0.85 1.85 0.85" fill="#65aae1" fill-rule="evenodd" stroke="none"/>
    <path d="M1.9 0.8 L1.85 0.85 1.8 0.85 1.75 0.9 1.7 0.95 1.75 0.8 1.9 0.8" fill="#5e93bf" fill-rule="evenodd" stroke="none"/>
    <path d="M1.55 0.7 L1.55 0.8 1.5 0.75 1.55 0.65 1.55 0.7" fill="#8cbeec" fill-rule="evenodd" stroke="none"/>
    <path d="M1.7 1.25 L1.7 1.2 1.75 1.2 1.75 1.15 1.9 1.15 1.7 1.25" fill="#477dcf" fill-rule="evenodd" stroke="none"/>
    <path d="M1.85 1.0 L1.9 1.0 1.8 1.1 1.8 1.0 1.85 1.0" fill="#4583c1" fill-rule="evenodd" stroke="none"/>
    <path d="M0.8 0.0 L0.85 0.05 0.85 0.1 0.85 0.2 0.8 0.15 0.8 0.1 0.8 0.0" fill="#89cfe5" fill-rule="evenodd" stroke="none"/>
    <path d="M0.8 0.1 L0.8 0.15 0.85 0.2 0.8 0.3 Q0.8 0.35 0.75 0.3 L0.75 0.35 0.7 0.3 0.7 0.2 0.65 0.15 0.65 0.1 0.7 0.15 0.7 0.05 0.8 0.1" fill="#a4d1eb" fill-rule="evenodd" stroke="none"/>
    <path d="M0.9 0.2 L0.9 0.3 0.85 0.4 0.75 0.35 0.75 0.3 Q0.8 0.35 0.8 0.3 L0.85 0.2 0.85 0.1 Q0.9 0.1 0.9 0.15 L0.9 0.2" fill="#8bb7d0" fill-rule="evenodd" stroke="none"/>
    <path d="M0.7 0.05 L0.7 0.15 0.65 0.1 Q0.65 0.05 0.6 0.1 L0.55 0.05 Q0.55 0.05 0.6 0.05 L0.7 0.05" fill="#4b7dbf" fill-rule="evenodd" stroke="none"/>
    <path d="M0.65 0.1 L0.65 0.15 0.6 0.25 0.55 0.25 Q0.5 0.25 0.5 0.3 L0.45 0.35 0.4 0.35 Q0.35 0.3 0.35 0.25 L0.4 0.15 0.55 0.05 0.6 0.1 Q0.65 0.05 0.65 0.1" fill="#5096e4" fill-rule="evenodd" stroke="none"/>
    <path d="M0.75 0.4 L0.7 0.45 0.65 0.45 0.6 0.4 0.6 0.35 0.55 0.35 0.5 0.3 Q0.5 0.25 0.55 0.25 L0.6 0.25 0.65 0.35 0.75 0.4" fill="#bbe4eb" fill-rule="evenodd" stroke="none"/>
    <path d="M0.65 0.15 L0.7 0.2 0.7 0.3 0.65 0.35 0.6 0.25 0.65 0.15" fill="#619bcb" fill-rule="evenodd" stroke="none"/>
    <path d="M0.7 0.3 L0.75 0.35 0.75 0.4 0.65 0.35 0.7 0.3" fill="#80b2d0" fill-rule="evenodd" stroke="none"/>
    <path d="M0.7 0.45 L0.75 0.45 0.7 0.5 0.6 0.65 0.5 0.75 0.5 0.7 0.55 0.6 0.6 0.55 0.6 0.5 0.65 0.5 0.65 0.45 0.7 0.45" fill="#5897cf" fill-rule="evenodd" stroke="none"/>
    <path d="M0.6 0.5 L0.6 0.55 0.55 0.6 0.5 0.6 0.55 0.5 0.5 0.4 0.55 0.35 0.6 0.35 0.6 0.4 0.6 0.5" fill="#9cc0e3" fill-rule="evenodd" stroke="none"/>
    <path d="M0.45 0.35 L0.5 0.3 0.55 0.35 0.5 0.4 0.5 0.45 0.45 0.35" fill="#4685c1" fill-rule="evenodd" stroke="none"/>
    <path d="M0.65 0.45 L0.65 0.5 0.6 0.5 0.6 0.4 0.65 0.45" fill="#4385bd" fill-rule="evenodd" stroke="none"/>
    <path d="M0.75 0.45 L0.8 0.5 0.8 0.55 0.8 0.65 0.75 0.7 0.7 0.65 0.75 0.6 0.7 0.5 0.75 0.45" fill="#84b1d9" fill-rule="evenodd" stroke="none"/>
    <path d="M0.5 0.75 L0.6 0.65 0.7 0.5 0.75 0.6 0.7 0.65 0.65 0.75 0.6 0.8 0.5 0.75" fill="#60a7e2" fill-rule="evenodd" stroke="none"/>
    <path d="M0.55 0.6 L0.5 0.7 0.45 0.65 0.5 0.5 0.5 0.45 0.5 0.4 0.55 0.5 0.5 0.6 0.55 0.6" fill="#83a8cd" fill-rule="evenodd" stroke="none"/>
    <path d="M0.3 0.2 L0.35 0.1 0.4 0.15 0.35 0.25 Q0.35 0.3 0.4 0.35 L0.4 0.4 0.35 0.35 0.35 0.25 0.3 0.2" fill="#477dc1" fill-rule="evenodd" stroke="none"/>
    <path d="M0.2 0.05 L0.2 0.1 0.25 0.1 0.3 0.1 0.3 0.2 0.35 0.25 0.25 0.35 0.25 0.25 0.2 0.2 0.2 0.05" fill="#8fb6dc" fill-rule="evenodd" stroke="none"/>
    <path d="M0.0 0.05 L0.0 -0.1 0.05 -0.1 0.1 0.0 Q0.15 0.1 0.1 0.1 L0.05 0.1 0.0 0.15 0.0 0.05 M-1.25 0.2 L-1.25 0.15 -1.3 0.1 -1.25 0.0 -1.15 0.15 Q-1.15 0.25 -1.2 0.3 -1.25 0.3 -1.25 0.35 L-1.3 0.3 -1.25 0.2" fill="#d2eaec" fill-rule="evenodd" stroke="none"/>
    <path d="M-0.05 0.2 L-0.05 0.0 0.0 0.0 0.0 0.05 0.0 0.15 0.0 0.25 0.05 0.25 0.0 0.4 -0.05 0.3 -0.05 0.2 M-1.2 0.55 L-1.25 0.6 -1.3 0.7 -1.35 0.55 -1.3 0.4 -1.3 0.45 -1.25 0.45 -1.2 0.5 -1.15 0.45 -1.1 0.35 -1.1 0.45 -1.05 0.55 -1.05 0.65 Q-1.1 0.7 -1.05 0.75 L-1.05 0.9 -1.15 0.75 -1.15 0.6 Q-1.15 0.55 -1.2 0.55 M-2.0 0.25 L-2.05 0.4 -2.05 0.5 -2.1 0.6 Q-2.15 0.6 -2.1 0.5 L-2.05 0.35 -2.0 0.25 -2.0 0.25" fill="#acd0ec" fill-rule="evenodd" stroke="none"/>
    <path d="M0.2 0.2 L0.25 0.25 0.25 0.35 0.3 0.35 0.25 0.4 0.2 0.3 0.15 0.2 0.2 0.2" fill="#7495b6" fill-rule="evenodd" stroke="none"/>
    <path d="M0.05 0.25 L0.05 0.15 0.1 0.2 0.1 0.3 0.05 0.4 0.05 0.45 0.1 0.5 0.1 0.55 0.05 0.5 0.0 0.45 0.0 0.4 0.05 0.25" fill="#d3ebec" fill-rule="evenodd" stroke="none"/>
    <path d="M0.1 0.2 L0.15 0.1 0.15 0.2 0.2 0.3 0.15 0.35 0.1 0.3 0.1 0.2" fill="#a9c5ea" fill-rule="evenodd" stroke="none"/>
    <path d="M0.35 0.35 L0.3 0.4 0.25 0.45 0.25 0.4 0.3 0.35 0.35 0.35" fill="#567c96" fill-rule="evenodd" stroke="none"/>
    <path d="M0.2 0.3 L0.25 0.4 0.25 0.45 0.25 0.5 0.3 0.5 0.35 0.5 0.35 0.6 0.3 0.7 0.2 0.7 0.2 0.55 0.1 0.55 0.1 0.5 0.05 0.45 0.05 0.4 0.1 0.3 0.15 0.35 0.2 0.3" fill="#bad8ec" fill-rule="evenodd" stroke="none"/>
    <path d="M0.5 0.5 L0.45 0.65 0.45 0.8 Q0.4 0.8 0.4 0.85 L0.4 0.95 0.35 0.95 0.25 0.95 0.3 0.85 0.3 0.75 0.25 0.85 0.15 0.9 0.15 0.6 Q0.15 0.6 0.15 0.65 L0.15 0.75 Q0.05 0.7 0.0 0.8 L-0.05 1.0 -0.05 0.8 -0.05 0.65 0.05 0.5 0.1 0.55 0.2 0.55 0.2 0.7 0.3 0.7 0.35 0.6 0.4 0.55 0.45 0.5 0.5 0.5" fill="#a3c5ea" fill-rule="evenodd" stroke="none"/>
    <path d="M-0.35 0.5 Q-0.2 0.75 -0.2 1.0 L-0.15 0.85 -0.1 0.75 -0.1 0.6 -0.05 0.45 -0.05 0.2 -0.05 0.3 0.0 0.4 0.0 0.45 0.05 0.5 -0.05 0.65 -0.05 0.8 -0.1 1.0 -0.1 1.25 -0.05 1.3 -0.2 1.35 -0.3 1.35 -0.45 1.25 -0.45 1.05 -0.5 0.8 -0.45 0.75 -0.4 0.65 -0.35 0.6 -0.35 0.5 M-0.4 0.65 L-0.4 0.65" fill="#bedbec" fill-rule="evenodd" stroke="none"/>
    <path d="M0.4 0.35 L0.45 0.35 0.5 0.45 0.35 0.5 0.35 0.4 0.3 0.4 0.35 0.35 0.4 0.4 0.4 0.35" fill="#b1cde3" fill-rule="evenodd" stroke="none"/>
    <path d="M0.25 0.45 L0.3 0.4 0.3 0.5 0.25 0.5 0.25 0.45" fill="#7a95b0" fill-rule="evenodd" stroke="none"/>
    <path d="M0.5 0.45 L0.5 0.5 0.45 0.5 0.35 0.5 0.5 0.45 M0.3 0.4 L0.35 0.4 0.35 0.5 0.3 0.4" fill="#9db8d4" fill-rule="evenodd" stroke="none"/>
    <path d="M0.25 0.35 L0.35 0.25 0.35 0.35 0.3 0.35 0.25 0.35" fill="#a5c8e5" fill-rule="evenodd" stroke="none"/>
    <path d="M0.35 0.5 L0.45 0.5 0.4 0.55 0.35 0.6 0.35 0.5" fill="#839db6" fill-rule="evenodd" stroke="none"/>
    <path d="M0.45 0.65 L0.5 0.7 0.5 0.9 0.45 0.9 0.45 0.8 0.45 0.65" fill="#96b5d5" fill-rule="evenodd" stroke="none"/>
    <path d="M0.5 0.7 L0.5 0.75 0.6 0.8 0.5 0.9 0.5 0.7" fill="#77abd7" fill-rule="evenodd" stroke="none"/>
    <path d="M0.15 0.75 L0.15 0.65 Q0.15 0.6 0.15 0.6 L0.15 0.9 0.25 0.85 0.3 0.75 0.3 0.85 0.25 0.95 0.35 0.95 0.2 1.0 0.1 1.0 0.05 1.0 Q0.15 0.9 0.1 0.85 L0.15 0.75" fill="#78acd7" fill-rule="evenodd" stroke="none"/>
    <path d="M0.0 0.95 L0.05 0.9 0.1 0.85 0.05 1.0 0.0 0.95" fill="#6fa0c3" fill-rule="evenodd" stroke="none"/>
    <path d="M-0.05 1.0 L0.0 0.8 Q0.05 0.7 0.15 0.75 L0.1 0.85 0.05 0.9 0.0 0.95 0.0 1.0 -0.05 1.0" fill="#91b7e1" fill-rule="evenodd" stroke="none"/>
    <path d="M0.05 1.0 L0.1 1.0 0.2 1.0 0.1 1.1 Q0.05 1.1 0.05 1.05 L0.05 1.0" fill="#85cfed" fill-rule="evenodd" stroke="none"/>
    <path d="M0.05 1.25 Q0.0 1.2 0.05 1.2 L0.1 1.2 0.1 1.25 0.15 1.3 0.2 1.3 0.25 1.2 0.3 1.2 0.3 1.25 0.2 1.35 0.1 1.35 0.05 1.25" fill="#8bb5eb" fill-rule="evenodd" stroke="none"/>
    <path d="M0.25 1.2 L0.2 1.3 0.15 1.3 0.1 1.25 0.1 1.2 0.15 1.25 Q0.2 1.25 0.25 1.2" fill="#6797e6" fill-rule="evenodd" stroke="none"/>
    <path d="M0.15 1.1 Q0.15 1.05 0.2 1.05 L0.25 1.05 0.3 1.1 0.25 1.1 0.15 1.1" fill="#95bee8" fill-rule="evenodd" stroke="none"/>
    <path d="M0.1 1.2 L0.25 1.2 Q0.2 1.25 0.15 1.25 L0.1 1.2" fill="#416bc2" fill-rule="evenodd" stroke="none"/>
    <path d="M0.55 1.45 L0.5 1.55 0.4 1.6 Q0.35 1.45 0.35 1.2 L0.45 1.15 0.45 1.25 0.5 1.35 0.55 1.45" fill="#c6e6ec" fill-rule="evenodd" stroke="none"/>
    <path d="M0.05 1.0 L0.1 0.85 Q0.15 0.9 0.05 1.0" fill="#446c7e" fill-rule="evenodd" stroke="none"/>
    <path d="M0.7 0.65 L0.75 0.7 0.7 0.85 0.65 0.75 0.7 0.65" fill="#71a0d1" fill-rule="evenodd" stroke="none"/>
    <path d="M0.55 0.9 L0.55 0.85 0.6 0.8 0.6 0.9 0.55 0.95 0.55 0.9" fill="#6999c3" fill-rule="evenodd" stroke="none"/>
    <path d="M0.85 0.95 L0.9 1.1 0.95 1.25 0.85 1.25 0.8 1.2 0.75 1.25 0.7 1.35 0.65 1.25 0.55 1.2 Q0.5 1.25 0.55 1.35 L0.65 1.45 0.8 1.6 0.9 1.6 1.0 1.6 0.95 1.6 0.9 1.7 1.05 1.7 1.15 1.7 1.15 1.6 1.2 1.6 Q1.25 1.7 1.15 1.7 L1.0 1.75 0.9 1.75 0.8 1.7 0.65 1.7 0.55 1.8 Q0.55 1.6 0.6 1.5 L0.55 1.4 Q0.5 1.3 0.5 1.25 L0.55 1.1 0.55 0.95 0.6 0.9 0.6 0.8 0.65 0.75 0.7 0.85 0.7 0.9 0.75 0.95 0.8 1.0 0.85 0.95" fill="#9fcfe9" fill-rule="evenodd" stroke="none"/>
    <path d="M0.8 0.55 L0.8 0.75 0.85 0.95 0.8 1.0 0.75 0.95 0.7 0.9 0.7 0.85 0.75 0.7 0.8 0.65 0.8 0.55" fill="#96bfe2" fill-rule="evenodd" stroke="none"/>
    <path d="M0.75 2.2 L0.2 2.2 0.1 1.85 0.1 1.4 0.2 1.4 0.15 1.5 0.15 2.0 0.3 2.1 0.45 2.15 0.5 2.1 0.5 2.0 Q0.45 1.9 0.5 1.7 L0.55 1.45 0.5 1.35 0.5 1.15 0.55 0.9 0.55 0.95 0.55 1.1 0.5 1.25 Q0.5 1.3 0.55 1.4 L0.6 1.5 Q0.55 1.6 0.55 1.8 L0.55 1.85 0.5 1.9 0.5 1.95 0.55 1.95 Q0.65 1.95 0.7 2.05 L0.75 2.2 M-0.75 -1.35 L-0.7 -1.2 -0.75 -1.1 Q-0.75 -1.05 -0.8 -1.05 L-0.8 -1.4 Q-0.7 -1.45 -0.75 -1.35 M-1.65 -1.05 L-1.65 -0.8 Q-1.65 -0.75 -1.7 -0.75 L-1.75 -0.95 -1.7 -1.1 Q-1.65 -1.15 -1.65 -1.05" fill="#b4d5ec" fill-rule="evenodd" stroke="none"/>
    <path d="M0.65 1.45 L0.55 1.35 Q0.5 1.25 0.55 1.2 L0.65 1.25 0.7 1.35 0.75 1.25 0.8 1.2 0.85 1.25 0.95 1.25 0.95 1.3 0.9 1.35 0.8 1.4 Q0.8 1.35 0.75 1.35 L0.65 1.4 0.65 1.45" fill="#8ec7e3" fill-rule="evenodd" stroke="none"/>
    <path d="M0.95 1.3 L1.1 1.3 1.2 1.3 1.3 1.3 1.35 1.45 1.5 1.45 1.6 1.45 1.5 1.45 Q1.45 1.45 1.4 1.5 L1.45 1.65 1.45 1.7 1.4 1.55 1.3 1.6 1.2 1.6 1.15 1.55 1.2 1.55 1.3 1.55 Q1.35 1.45 1.3 1.4 L1.2 1.4 Q1.1 1.4 1.05 1.35 L1.0 1.35 Q0.95 1.35 0.95 1.4 L0.95 1.45 1.0 1.55 0.85 1.55 0.8 1.5 0.8 1.4 0.9 1.35 0.95 1.3" fill="#7fb3db" fill-rule="evenodd" stroke="none"/>
    <path d="M1.2 1.6 L1.15 1.6 1.0 1.6 0.9 1.6 0.8 1.6 0.65 1.45 0.65 1.4 0.75 1.35 Q0.8 1.35 0.8 1.4 L0.8 1.5 0.85 1.55 1.0 1.55 1.15 1.55 1.2 1.6" fill="#8fc0d8" fill-rule="evenodd" stroke="none"/>
    <path d="M1.0 1.55 L0.95 1.45 0.95 1.4 Q0.95 1.35 1.0 1.35 L1.05 1.35 Q1.1 1.4 1.2 1.4 L1.3 1.4 Q1.35 1.45 1.3 1.55 L1.3 1.4 1.15 1.45 Q1.1 1.45 1.15 1.5 L1.2 1.55 1.15 1.55 1.0 1.55" fill="#79a4ca" fill-rule="evenodd" stroke="none"/>
    <path d="M0.55 1.8 L0.65 1.7 0.8 1.7 0.7 1.7 0.6 1.8 Q0.55 1.85 0.6 1.9 L0.65 1.95 0.55 1.95 0.5 1.9 0.55 1.85 0.55 1.8" fill="#90bfea" fill-rule="evenodd" stroke="none"/>
    <path d="M0.6 1.8 L0.7 1.7 0.9 1.75 0.9 1.8 0.85 1.8 0.8 1.8 0.7 1.75 Q0.65 1.8 0.65 1.9 L0.6 1.85 0.6 1.8" fill="#6a96c8" fill-rule="evenodd" stroke="none"/>
    <path d="M1.15 1.6 L1.15 1.7 1.05 1.7 0.9 1.7 0.95 1.6 1.0 1.6 1.15 1.6" fill="#bcdbe4" fill-rule="evenodd" stroke="none"/>
    <path d="M0.65 1.9 Q0.65 1.8 0.7 1.75 L0.8 1.8 0.85 1.8 0.65 1.9" fill="#4674b5" fill-rule="evenodd" stroke="none"/>
    <path d="M0.85 1.8 L0.9 1.8 0.95 1.8 0.95 1.85 0.8 1.9 0.7 1.9 0.65 1.9 0.85 1.8" fill="#3d8afb" fill-rule="evenodd" stroke="none"/>
    <path d="M1.4 2.2 L1.35 2.2 1.2 2.05 1.1 1.95 1.05 1.9 0.95 1.85 0.95 1.8 0.9 1.8 1.2 1.75 1.3 1.8 1.05 1.8 1.1 1.85 1.15 1.9 1.2 2.0 1.3 2.1 1.4 2.2" fill="#4f87fe" fill-rule="evenodd" stroke="none"/>
    <path d="M0.8 1.7 L0.9 1.75 1.0 1.75 0.9 1.75 0.7 1.7 0.8 1.7" fill="#84b2d7" fill-rule="evenodd" stroke="none"/>
    <path d="M1.0 1.75 L1.15 1.7 1.45 1.7 Q1.45 1.75 1.35 1.75 L1.2 1.75 0.9 1.8 0.9 1.75 1.0 1.75" fill="#71aaf4" fill-rule="evenodd" stroke="none"/>
    <path d="M0.2 2.2 L0.1 2.2 0.1 2.0 0.05 1.85 0.05 1.55 Q0.0 1.4 -0.1 1.45 L-0.1 1.55 Q-0.1 1.6 -0.15 1.65 L-0.3 1.65 -0.4 1.7 Q-0.5 1.6 -0.5 1.4 L-0.55 1.2 -0.55 0.95 -0.55 0.8 Q-0.5 0.85 -0.5 0.95 L-0.5 1.25 -0.45 1.5 Q-0.4 1.5 -0.35 1.45 L-0.25 1.4 -0.15 1.4 -0.1 1.4 0.0 1.4 0.05 1.4 0.05 1.25 0.1 1.35 0.2 1.35 0.3 1.25 0.25 1.35 0.2 1.4 0.1 1.4 0.1 1.85 0.2 2.2 M-2.2 1.35 L-2.2 0.7 -2.1 0.65 -2.1 0.75 -2.15 0.8 -2.15 0.9 Q-2.15 1.15 -2.05 1.5 L-1.95 1.45 -1.9 1.4 -1.85 1.4 -1.75 1.4 -1.7 1.4 -1.65 1.4 -1.6 1.5 -1.55 1.6 -1.5 1.55 -1.45 1.4 -1.45 1.45 -1.45 1.65 -1.55 1.7 -1.6 1.55 Q-1.65 1.45 -1.7 1.45 L-1.75 1.55 -1.75 1.65 -1.9 1.65 -2.05 1.7 -2.1 1.55 -2.2 1.35" fill="#a8cbeb" fill-rule="evenodd" stroke="none"/>
    <path d="M0.1 2.2 L0.05 2.2 0.05 1.95 0.0 1.7 0.0 1.6 -0.05 1.55 -0.1 1.6 -0.15 1.65 -0.25 1.7 -0.4 1.7 -0.4 1.7 -0.4 1.7 -0.3 1.65 -0.15 1.65 Q-0.1 1.6 -0.1 1.55 L-0.1 1.45 Q0.0 1.4 0.05 1.55 L0.05 1.85 0.1 2.0 0.1 2.2" fill="#9bc3e9" fill-rule="evenodd" stroke="none"/>
    <path d="M0.05 2.2 L0.0 2.2 -0.05 2.1 -0.15 2.05 0.0 2.0 0.0 1.85 -0.05 1.75 -0.1 1.7 -0.25 1.75 -0.4 1.7 -0.25 1.7 -0.15 1.65 -0.1 1.6 -0.05 1.55 0.0 1.6 0.0 1.7 0.05 1.95 0.05 2.2 M-0.15 2.05 L-0.15 2.05" fill="#90bee5" fill-rule="evenodd" stroke="none"/>
    <path d="M1.25 2.2 L1.15 2.2 1.05 2.1 0.95 2.05 Q0.9 2.05 0.8 2.0 L0.7 1.95 0.7 1.9 0.8 1.9 0.9 1.9 0.95 1.9 1.05 2.0 1.15 2.1 1.25 2.2" fill="#79acfe" fill-rule="evenodd" stroke="none"/>
    <path d="M1.15 2.2 L0.85 2.2 0.75 2.05 Q0.7 1.95 0.65 1.95 L0.7 1.95 0.8 2.0 Q0.9 2.05 0.95 2.05 L1.05 2.1 1.15 2.2" fill="#8fbefb" fill-rule="evenodd" stroke="none"/>
    <path d="M1.35 2.2 L1.25 2.2 1.15 2.1 1.05 2.0 0.95 1.9 0.9 1.9 0.8 1.9 0.95 1.85 1.05 1.9 1.1 1.95 1.2 2.05 1.35 2.2" fill="#679aff" fill-rule="evenodd" stroke="none"/>
    <path d="M0.65 1.95 L0.6 1.9 Q0.55 1.85 0.6 1.8 L0.6 1.85 0.65 1.9 0.7 1.9 0.7 1.95 0.65 1.95" fill="#71a7e5" fill-rule="evenodd" stroke="none"/>
    <path d="M0.85 2.2 L0.75 2.2 0.7 2.05 Q0.65 1.95 0.55 1.95 L0.5 1.95 0.5 1.9 0.55 1.95 0.65 1.95 Q0.7 1.95 0.75 2.05 L0.85 2.2" fill="#a2cdf6" fill-rule="evenodd" stroke="none"/>
    <path d="M1.8 1.4 L1.75 1.3 1.7 1.25 1.9 1.15 1.9 1.3 Q1.85 1.4 1.8 1.4" fill="#4786f2" fill-rule="evenodd" stroke="none"/>
    <path d="M1.6 1.45 L1.7 1.5 1.65 1.5 1.55 1.5 Q1.45 1.5 1.5 1.6 L1.45 1.65 1.4 1.5 Q1.45 1.45 1.5 1.45 L1.6 1.45" fill="#70a4d5" fill-rule="evenodd" stroke="none"/>
    <path d="M1.65 1.5 L1.7 1.55 1.75 1.6 1.8 1.7 1.9 1.85 1.85 1.95 1.85 2.05 Q1.8 2.05 1.8 1.95 L1.8 1.8 1.75 1.75 1.75 1.65 1.65 1.55 1.65 1.5" fill="#64aff3" fill-rule="evenodd" stroke="none"/>
    <path d="M1.65 1.5 L1.65 1.55 1.5 1.6 Q1.45 1.5 1.55 1.5 L1.65 1.5" fill="#5492da" fill-rule="evenodd" stroke="none"/>
    <path d="M1.45 1.7 L1.45 1.65 1.5 1.6 1.5 1.7 1.45 1.75 1.35 1.8 1.3 1.8 1.2 1.75 1.35 1.75 Q1.45 1.75 1.45 1.7" fill="#54a0f3" fill-rule="evenodd" stroke="none"/>
    <path d="M1.65 1.55 L1.75 1.65 1.75 1.75 1.7 1.65 Q1.65 1.6 1.6 1.6 L1.55 1.65 1.5 1.75 1.4 1.8 1.35 1.8 1.45 1.75 1.5 1.7 1.5 1.6 1.65 1.55" fill="#4092f7" fill-rule="evenodd" stroke="none"/>
    <path d="M1.55 1.65 L1.6 1.6 Q1.65 1.6 1.7 1.65 L1.75 1.75 1.75 1.85 1.7 1.8 Q1.65 1.7 1.55 1.65" fill="#2f82fd" fill-rule="evenodd" stroke="none"/>
    <path d="M1.85 2.05 L1.9 2.1 1.8 2.05 1.7 2.0 1.8 1.95 1.75 1.85 1.75 1.75 1.8 1.8 1.8 1.95 Q1.8 2.05 1.85 2.05" fill="#3fa0f8" fill-rule="evenodd" stroke="none"/>
    <path d="M1.7 1.8 L1.75 1.85 1.8 1.95 1.7 2.0 1.7 2.05 1.65 1.95 1.55 1.9 1.6 1.85 1.7 1.8" fill="#1f72fe" fill-rule="evenodd" stroke="none"/>
    <path d="M1.55 1.65 Q1.65 1.7 1.7 1.8 L1.6 1.85 1.55 1.9 1.4 2.0 1.4 1.9 1.45 1.85 1.4 1.8 1.5 1.75 1.55 1.65" fill="#218dff" fill-rule="evenodd" stroke="none"/>
    <path d="M1.8 1.7 L1.9 1.8 1.95 1.85 1.95 1.9 1.9 1.9 1.85 1.95 1.9 2.0 1.85 2.05 1.85 1.95 1.9 1.85 1.8 1.7" fill="#79c2f1" fill-rule="evenodd" stroke="none"/>
    <path d="M1.9 1.8 L2.0 1.85 2.05 1.95 2.0 2.0 2.0 2.05 2.05 2.15 2.0 2.1 1.9 2.0 1.85 1.95 1.9 1.9 1.95 1.9 1.95 1.85 1.9 1.8" fill="#8fceeb" fill-rule="evenodd" stroke="none"/>
    <path d="M1.3 1.55 L1.2 1.55 1.15 1.5 Q1.1 1.45 1.15 1.45 L1.3 1.4 1.3 1.55" fill="#6a9cbd" fill-rule="evenodd" stroke="none"/>
    <path d="M1.15 1.7 Q1.25 1.7 1.2 1.6 L1.3 1.6 1.4 1.55 1.45 1.7 1.15 1.7" fill="#8ec6e8" fill-rule="evenodd" stroke="none"/>
    <path d="M1.4 1.8 L1.45 1.85 1.4 1.9 1.4 2.0 1.3 2.0 Q1.25 2.05 1.3 2.1 L1.2 2.0 1.15 1.9 1.1 1.85 1.05 1.8 1.3 1.8 1.35 1.8 1.4 1.8" fill="#2c73ff" fill-rule="evenodd" stroke="none"/>
    <path d="M1.55 2.2 L1.4 2.2 1.3 2.1 Q1.25 2.05 1.3 2.0 L1.4 2.0 1.55 1.9 1.65 1.95 1.7 2.05 1.65 2.05 1.6 2.05 1.55 2.1 1.55 2.2" fill="#2362ff" fill-rule="evenodd" stroke="none"/>
    <path d="M2.0 2.2 L1.95 2.2 1.85 2.15 1.8 2.05 1.9 2.1 2.0 2.2" fill="#317df3" fill-rule="evenodd" stroke="none"/>
    <path d="M1.95 2.2 L1.75 2.2 1.75 2.1 Q1.75 2.05 1.8 2.05 L1.85 2.15 1.95 2.2" fill="#1b5afc" fill-rule="evenodd" stroke="none"/>
    <path d="M1.75 2.2 L1.6 2.2 1.6 2.1 Q1.6 2.05 1.65 2.05 1.65 2.05 1.7 2.1 L1.75 2.2" fill="#7aa8f7" fill-rule="evenodd" stroke="none"/>
    <path d="M1.6 2.2 L1.55 2.2 1.55 2.1 1.6 2.05 1.65 2.05 1.7 2.05 1.7 2.0 1.8 2.05 Q1.75 2.05 1.75 2.1 L1.75 2.2 1.7 2.1 Q1.65 2.05 1.65 2.05 1.6 2.05 1.6 2.1 L1.6 2.2" fill="#3e7ffb" fill-rule="evenodd" stroke="none"/>
    <path d="M-2.2 -1.8 L-2.2 -2.2 -2.0 -2.2 -2.0 -1.95 -2.2 -1.8" fill="#c4d0e7" fill-rule="evenodd" stroke="none"/>
    <path d="M-2.2 -0.8 L-2.2 -1.45 -2.1 -1.5 -2.0 -1.5 -1.9 -1.4 -1.85 -1.3 Q-1.85 -1.2 -1.95 -1.15 L-2.1 -1.0 -2.15 -0.9 -2.2 -0.8 M-2.05 -1.5 Q-2.15 -1.45 -2.15 -1.35 -2.2 -1.3 -2.15 -1.25 -2.1 -1.25 -2.05 -1.3 L-2.0 -1.25 -1.95 -1.25 -1.9 -1.3 -1.95 -1.4 -2.0 -1.45 Q-2.0 -1.5 -2.05 -1.5" fill="#bac9e5" fill-rule="evenodd" stroke="none"/>
    <path d="M-2.2 -1.45 L-2.2 -1.8 -2.0 -1.95 -2.0 -2.2 -1.85 -2.2 -1.9 -2.05 -1.9 -1.95 -1.95 -1.85 -1.95 -1.8 -1.95 -1.7 -1.9 -1.65 -1.95 -1.6 -2.0 -1.5 -2.1 -1.5 -2.2 -1.45" fill="#b3bee2" fill-rule="evenodd" stroke="none"/>
    <path d="M-2.05 -1.5 Q-2.0 -1.5 -2.0 -1.45 L-1.95 -1.4 -1.9 -1.3 -1.95 -1.25 -2.0 -1.25 -2.05 -1.3 Q-2.1 -1.25 -2.15 -1.25 -2.2 -1.3 -2.15 -1.35 -2.15 -1.45 -2.05 -1.5" fill="#c3d4ec" fill-rule="evenodd" stroke="none"/>
    <path d="M-2.2 -0.4 L-2.2 -0.7 -2.1 -0.8 -2.0 -0.85 -1.95 -1.0 -1.9 -1.0 -1.85 -1.0 Q-1.9 -0.9 -1.9 -0.75 L-1.85 -0.55 -1.9 -0.65 -1.9 -0.65 -1.9 -0.75 -1.9 -0.85 Q-1.9 -0.95 -1.95 -0.85 L-2.0 -0.75 Q-2.0 -0.65 -2.05 -0.65 L-2.1 -0.55 -2.15 -0.45 -2.2 -0.4 M-1.85 -0.55 L-1.85 -0.55" fill="#90a5c9" fill-rule="evenodd" stroke="none"/>
    <path d="M-2.2 -0.7 L-2.2 -0.8 -2.15 -0.9 -2.1 -1.0 -1.95 -1.15 Q-1.85 -1.2 -1.85 -1.3 L-1.8 -1.3 -1.75 -1.5 -1.7 -1.7 -1.65 -1.7 Q-1.6 -1.7 -1.55 -1.7 L-1.5 -1.5 -1.5 -1.35 -1.5 -1.25 -1.5 -1.3 -1.55 -1.35 -1.55 -1.25 -1.55 -1.45 -1.6 -1.55 -1.65 -1.6 -1.7 -1.3 -1.75 -1.25 Q-1.75 -1.3 -1.8 -1.3 L-1.8 -1.2 -1.85 -1.15 -1.9 -1.1 -2.0 -1.1 -2.1 -0.95 -2.1 -0.8 -2.2 -0.7" fill="#a9bedb" fill-rule="evenodd" stroke="none"/>
    <path d="M-2.1 -0.8 L-2.1 -0.95 -2.0 -1.1 -1.9 -1.1 -1.85 -1.15 -1.8 -1.2 -1.8 -1.3 Q-1.75 -1.3 -1.75 -1.25 L-1.8 -1.1 -1.8 -1.0 -1.85 -1.0 -1.9 -1.0 -1.95 -1.0 -2.0 -0.85 -2.1 -0.8" fill="#a1accd" fill-rule="evenodd" stroke="none"/>
    <path d="M-2.2 -0.3 L-2.2 -0.4 -2.15 -0.45 -2.1 -0.55 -2.0 -0.6 -2.1 -0.4 -2.2 -0.3" fill="#7791a9" fill-rule="evenodd" stroke="none"/>
    <path d="M-2.15 -0.45 L-2.1 -0.55 -2.05 -0.65 Q-2.0 -0.65 -2.0 -0.75 L-1.95 -0.85 Q-1.9 -0.95 -1.9 -0.85 L-1.9 -0.75 -1.95 -0.65 -2.0 -0.6 -2.1 -0.55 -2.15 -0.45" fill="#8198b7" fill-rule="evenodd" stroke="none"/>
    <path d="M-2.2 0.05 L-2.2 -0.1 -2.15 -0.2 -2.1 -0.3 -2.1 0.0 -2.2 0.05" fill="#a8cdec" fill-rule="evenodd" stroke="none"/>
    <path d="M-2.2 0.15 L-2.2 0.05 -2.1 0.0 -2.1 -0.3 -2.15 -0.2 -2.2 -0.1 -2.2 -0.3 -2.1 -0.4 -2.0 -0.5 -1.9 -0.65 -1.95 -0.5 -1.95 -0.45 -1.95 -0.25 -2.0 -0.1 Q-2.1 -0.05 -2.1 0.15 L-2.1 0.2 -2.2 0.15" fill="#c8e2eb" fill-rule="evenodd" stroke="none"/>
    <path d="M-0.7 -2.2 L-0.2 -2.2 -0.25 -2.1 -0.25 -2.0 -0.35 -2.0 -0.4 -1.95 -0.45 -1.85 -0.5 -1.9 -0.6 -2.0 -0.7 -2.2" fill="#c7e2f6" fill-rule="evenodd" stroke="none"/>
    <path d="M-1.35 -2.2 L-0.9 -2.2 -0.85 -2.1 -0.75 -2.05 -0.8 -1.9 -0.85 -1.75 -0.85 -1.65 -0.95 -1.5 -1.0 -1.5 -1.0 -1.6 -1.1 -1.65 -1.1 -1.55 -1.15 -1.5 -1.1 -1.5 -1.05 -1.45 -1.05 -1.35 -1.1 -1.25 Q-1.15 -1.25 -1.15 -1.3 L-1.2 -1.4 Q-1.15 -1.45 -1.2 -1.5 L-1.3 -1.55 -1.3 -1.65 -1.25 -1.75 Q-1.2 -1.8 -1.15 -1.95 L-1.05 -1.95 -1.0 -1.95 Q-0.95 -2.0 -1.0 -2.05 L-1.05 -2.15 -1.1 -2.15 -1.15 -2.1 Q-1.2 -2.05 -1.25 -2.05 L-1.35 -2.0 -1.35 -2.2" fill="#c1def7" fill-rule="evenodd" stroke="none"/>
    <path d="M-1.35 -2.2 L-1.35 -2.2 -1.35 -2.0 -1.25 -2.05 Q-1.2 -2.05 -1.15 -2.1 L-1.1 -2.15 -1.05 -2.15 -1.0 -2.05 Q-0.95 -2.0 -1.0 -1.95 L-1.05 -1.95 -1.15 -1.95 Q-1.2 -1.8 -1.25 -1.75 L-1.3 -1.65 -1.3 -1.55 -1.2 -1.5 Q-1.15 -1.45 -1.2 -1.4 L-1.15 -1.3 Q-1.15 -1.25 -1.1 -1.25 L-1.05 -1.35 -1.05 -1.45 -1.1 -1.5 -1.15 -1.5 -1.1 -1.55 -1.1 -1.65 -1.0 -1.6 -1.0 -1.5 -0.95 -1.5 -0.85 -1.65 Q-0.85 -1.6 -0.9 -1.5 L-1.0 -1.35 -1.05 -1.25 -1.1 -1.2 -1.15 -1.25 -1.2 -1.3 -1.25 -1.45 -1.35 -1.55 -1.45 -1.6 -1.45 -1.7 -1.55 -1.75 -1.6 -1.8 -1.5 -1.8 Q-1.55 -1.9 -1.45 -1.9 L-1.35 -2.0 -1.35 -2.2" fill="#b9d4f3" fill-rule="evenodd" stroke="none"/>
    <path d="M-0.55 -1.5 L-0.55 -1.45 -0.6 -1.45 -0.6 -1.35 -0.65 -1.75 -0.65 -1.85 Q-0.65 -1.9 -0.7 -1.9 L-0.75 -1.75 -0.8 -1.6 -0.8 -1.5 -0.85 -1.4 -0.95 -1.35 -1.0 -1.3 -1.0 -1.35 -0.9 -1.5 Q-0.85 -1.6 -0.85 -1.65 L-0.85 -1.75 -0.8 -1.9 -0.7 -2.05 -0.65 -2.0 -0.6 -1.95 Q-0.55 -1.85 -0.55 -1.7 L-0.55 -1.5" fill="#aec8dd" fill-rule="evenodd" stroke="none"/>
    <path d="M-1.8 -1.0 L-1.8 -1.1 -1.75 -1.25 -1.7 -1.3 -1.65 -1.4 Q-1.6 -1.45 -1.55 -1.45 L-1.55 -1.25 -1.55 -1.0 -1.6 -0.85 -1.55 -0.7 -1.55 -0.65 -1.6 -0.6 -1.75 -0.6 -1.8 -0.8 -1.8 -1.0 M-0.8 -1.6 L-0.7 -1.7 Q-0.7 -1.75 -0.65 -1.75 L-0.6 -1.35 -0.6 -1.3 -0.65 -1.15 -0.7 -0.95 -0.75 -0.95 -0.8 -0.9 -0.85 -1.0 -0.9 -1.15 -0.9 -1.25 -0.85 -1.35 -0.85 -1.4 -0.8 -1.5 -0.8 -1.6 M-0.75 -1.35 Q-0.7 -1.45 -0.8 -1.4 L-0.8 -1.05 Q-0.75 -1.05 -0.75 -1.1 L-0.7 -1.2 -0.75 -1.35 M-1.65 -1.05 Q-1.65 -1.15 -1.7 -1.1 L-1.75 -0.95 -1.7 -0.75 Q-1.65 -0.75 -1.65 -0.8 L-1.65 -1.05" fill="#c5dfeb" fill-rule="evenodd" stroke="none"/>
    <path d="M-0.65 -1.75 Q-0.7 -1.75 -0.7 -1.7 L-0.8 -1.6 -0.75 -1.75 -0.7 -1.9 Q-0.65 -1.9 -0.65 -1.85 L-0.65 -1.75" fill="#b8d1e7" fill-rule="evenodd" stroke="none"/>
    <path d="M-0.85 -1.35 L-0.9 -1.25 -0.9 -1.15 -0.85 -1.0 -0.8 -0.9 -0.75 -0.95 -0.7 -0.95 -0.65 -1.15 -0.6 -1.3 -0.6 -1.15 -0.65 -1.0 Q-0.65 -0.95 -0.7 -0.9 L-0.75 -0.85 -0.8 -0.75 -0.8 -0.7 -0.85 -0.7 -0.9 -0.8 -0.9 -0.9 -0.95 -1.05 -0.95 -1.25 -0.9 -1.3 -0.85 -1.35" fill="#accce8" fill-rule="evenodd" stroke="none"/>
    <path d="M-0.85 -1.4 L-0.85 -1.35 -0.9 -1.3 -0.95 -1.25 -0.95 -1.05 -0.9 -0.9 Q-0.95 -0.85 -1.0 -0.9 L-1.05 -1.0 -1.05 -1.1 Q-1.0 -1.2 -1.05 -1.25 L-1.0 -1.3 -0.95 -1.35 -0.85 -1.4" fill="#98bad8" fill-rule="evenodd" stroke="none"/>
    <path d="M-1.4 -2.2 L-1.35 -2.2 -1.35 -2.0 -1.45 -1.9 Q-1.55 -1.9 -1.5 -1.8 L-1.6 -1.8 -1.55 -1.75 -1.45 -1.7 -1.45 -1.6 -1.35 -1.55 -1.25 -1.45 -1.2 -1.3 -1.15 -1.25 -1.1 -1.2 -1.05 -1.25 -1.0 -1.35 -1.0 -1.3 -1.05 -1.25 -1.05 -1.15 -1.25 -1.2 -1.25 -1.3 Q-1.25 -1.4 -1.3 -1.4 L-1.4 -1.4 Q-1.45 -1.35 -1.5 -1.35 L-1.5 -1.5 -1.55 -1.7 Q-1.6 -1.7 -1.65 -1.7 L-1.7 -1.7 -1.75 -1.5 -1.8 -1.3 -1.85 -1.3 -1.9 -1.4 -2.0 -1.5 -1.95 -1.6 -1.9 -1.65 -1.95 -1.7 -1.95 -1.8 -1.8 -1.7 Q-1.75 -1.7 -1.7 -1.75 L-1.75 -1.8 -1.8 -1.85 -1.8 -1.95 -1.75 -1.95 -1.65 -1.95 -1.65 -1.85 Q-1.65 -1.85 -1.6 -1.9 L-1.55 -1.95 -1.45 -2.0 -1.4 -2.05 -1.4 -2.2 M-1.95 -1.8 L-1.95 -1.8" fill="#b2cbef" fill-rule="evenodd" stroke="none"/>
    <path d="M-0.55 -1.45 L-0.55 -1.35 -0.5 -1.25 -0.55 -1.2 -0.6 -1.15 -0.6 -1.3 -0.6 -1.35 -0.6 -1.45 -0.55 -1.45" fill="#9dbdd9" fill-rule="evenodd" stroke="none"/>
    <path d="M-0.5 -1.25 Q-0.5 -1.15 -0.4 -1.15 L-0.2 -1.1 -0.15 -1.05 Q-0.15 -1.0 -0.25 -1.0 L-0.4 -1.05 -0.55 -1.2 -0.5 -1.25 -0.5 -1.25" fill="#94c8ee" fill-rule="evenodd" stroke="none"/>
    <path d="M-0.15 -1.45 L-0.05 -1.4 Q-0.1 -1.3 -0.25 -1.35 L-0.45 -1.3 -0.5 -1.4 -0.5 -1.5 -0.5 -1.75 -0.4 -1.8 -0.35 -1.8 Q-0.25 -1.8 -0.3 -1.7 L-0.25 -1.6 -0.15 -1.6 -0.2 -1.5 -0.15 -1.5 -0.15 -1.45" fill="#bee1f8" fill-rule="evenodd" stroke="none"/>
    <path d="M-1.6 -2.2 L-1.4 -2.2 -1.4 -2.05 -1.45 -2.0 -1.55 -1.95 -1.6 -1.9 Q-1.65 -1.85 -1.65 -1.85 L-1.65 -1.95 -1.65 -2.05 -1.6 -2.1 -1.6 -2.2" fill="#adc2ea" fill-rule="evenodd" stroke="none"/>
    <path d="M-1.85 -2.2 L-1.6 -2.2 -1.6 -2.1 -1.65 -2.05 -1.65 -1.95 -1.75 -1.95 -1.75 -2.05 Q-1.75 -2.1 -1.8 -2.1 L-1.85 -2.0 -1.85 -1.9 -1.9 -1.85 -1.95 -1.8 -1.95 -1.85 -1.9 -1.95 -1.9 -2.05 -1.85 -2.2 M-1.95 -1.8 L-1.95 -1.8" fill="#b8c8e7" fill-rule="evenodd" stroke="none"/>
    <path d="M-1.75 -1.95 L-1.8 -1.95 -1.8 -1.85 -1.75 -1.8 -1.7 -1.75 Q-1.75 -1.7 -1.8 -1.7 L-1.95 -1.8 -1.9 -1.85 -1.85 -1.9 -1.85 -2.0 -1.8 -2.1 Q-1.75 -2.1 -1.75 -2.05 L-1.75 -1.95" fill="#bcd3f0" fill-rule="evenodd" stroke="none"/>
    <path d="M-1.7 -1.3 L-1.65 -1.6 -1.6 -1.55 -1.55 -1.45 Q-1.6 -1.45 -1.65 -1.4 L-1.7 -1.3" fill="#b7cfe7" fill-rule="evenodd" stroke="none"/>
    <path d="M-1.55 -1.25 L-1.55 -1.35 -1.5 -1.3 -1.5 -1.25 Q-1.45 -1.2 -1.45 -1.1 L-1.45 -0.9 -1.4 -0.9 -1.35 -0.9 -1.45 -0.75 Q-1.45 -0.65 -1.4 -0.55 L-1.4 -0.5 -1.45 -0.4 -1.5 -0.45 -1.5 -0.55 -1.45 -0.65 -1.5 -0.75 -1.55 -0.85 -1.55 -1.0 -1.55 -1.25 M-1.5 -0.55 L-1.5 -0.55" fill="#9cb3d1" fill-rule="evenodd" stroke="none"/>
    <path d="M-1.5 -1.25 L-1.5 -1.35 Q-1.45 -1.35 -1.4 -1.4 L-1.3 -1.4 Q-1.25 -1.4 -1.25 -1.3 L-1.25 -1.2 -1.05 -1.15 -1.05 -1.25 Q-1.0 -1.2 -1.05 -1.1 L-1.05 -1.0 -1.1 -1.05 -1.15 -1.1 -1.2 -1.1 -1.2 -1.05 -1.2 -0.85 -1.2 -1.1 Q-1.3 -1.1 -1.3 -1.0 L-1.25 -0.85 -1.3 -0.75 Q-1.3 -0.65 -1.35 -0.7 -1.35 -0.6 -1.4 -0.55 L-1.35 -0.75 -1.35 -0.9 -1.4 -0.9 -1.45 -0.9 -1.45 -1.1 Q-1.45 -1.2 -1.5 -1.25" fill="#aac3e6" fill-rule="evenodd" stroke="none"/>
    <path d="M-1.2 -0.85 L-1.2 -1.05 Q-1.15 -0.95 -1.15 -0.8 L-1.15 -0.7 -1.1 -0.6 -1.0 -0.5 -1.1 -0.45 -1.2 -0.65 -1.2 -0.85" fill="#b3d3e0" fill-rule="evenodd" stroke="none"/>
    <path d="M-0.9 -0.9 L-0.9 -0.8 -0.85 -0.7 -0.8 -0.7 -0.8 -0.75 -0.8 -0.7 -0.85 -0.65 -0.9 -0.65 -0.95 -0.7 Q-0.95 -0.65 -1.0 -0.65 L-1.05 -0.6 -1.05 -0.65 -1.15 -0.7 -1.15 -0.8 -1.1 -0.75 Q-1.05 -0.75 -1.05 -0.8 L-1.1 -0.9 -1.1 -1.05 -1.05 -1.0 -1.0 -0.9 Q-0.95 -0.85 -0.9 -0.9" fill="#9dd0e7" fill-rule="evenodd" stroke="none"/>
    <path d="M-1.15 -0.8 Q-1.15 -0.95 -1.2 -1.05 L-1.2 -1.1 -1.15 -1.1 -1.1 -1.05 -1.1 -0.9 -1.05 -0.8 Q-1.05 -0.75 -1.1 -0.75 L-1.15 -0.8" fill="#96b4cd" fill-rule="evenodd" stroke="none"/>
    <path d="M-1.4 -0.55 Q-1.45 -0.65 -1.45 -0.75 L-1.35 -0.9 -1.35 -0.75 -1.4 -0.55" fill="#8297b8" fill-rule="evenodd" stroke="none"/>
    <path d="M-1.4 -0.55 Q-1.35 -0.6 -1.35 -0.7 -1.3 -0.65 -1.3 -0.75 L-1.25 -0.85 -1.25 -0.85 -1.2 -0.65 Q-1.2 -0.6 -1.25 -0.55 L-1.3 -0.4 Q-1.35 -0.4 -1.4 -0.35 L-1.4 -0.2 -1.4 -0.15 Q-1.45 -0.05 -1.4 0.05 L-1.4 0.1 -1.4 0.15 -1.45 0.15 -1.5 0.1 -1.5 -0.15 -1.45 -0.3 -1.45 -0.4 -1.4 -0.5 -1.4 -0.55 M-1.25 -0.85 L-1.25 -0.85" fill="#c7e0ea" fill-rule="evenodd" stroke="none"/>
    <path d="M-1.85 -1.0 L-1.8 -1.0 -1.8 -0.8 -1.75 -0.6 -1.6 -0.6 -1.55 -0.65 -1.55 -0.7 -1.6 -0.85 -1.55 -1.0 -1.55 -0.85 -1.5 -0.75 -1.45 -0.65 -1.5 -0.55 -1.55 -0.55 Q-1.6 -0.55 -1.6 -0.45 L-1.65 -0.4 -1.7 -0.5 -1.75 -0.4 Q-1.75 -0.4 -1.8 -0.35 L-1.85 -0.55 -1.9 -0.75 Q-1.9 -0.9 -1.85 -1.0" fill="#adcde9" fill-rule="evenodd" stroke="none"/>
    <path d="M-1.25 -0.85 L-1.3 -1.0 Q-1.3 -1.1 -1.2 -1.1 L-1.2 -0.85 -1.25 -0.85 -1.25 -0.85" fill="#98afce" fill-rule="evenodd" stroke="none"/>
    <path d="M-1.2 -0.85 L-1.2 -0.65 -1.1 -0.45 -1.0 -0.5 -1.0 -0.45 -1.05 -0.35 -1.1 -0.3 -1.15 -0.4 -1.2 -0.55 -1.2 -0.5 -1.25 -0.4 -1.25 -0.4 -1.3 -0.4 -1.25 -0.55 Q-1.2 -0.6 -1.2 -0.65 L-1.25 -0.85 -1.25 -0.85 -1.2 -0.85 M-1.3 -0.4 L-1.3 -0.4" fill="#a3bfcd" fill-rule="evenodd" stroke="none"/>
    <path d="M-1.0 -0.5 L-1.1 -0.6 -1.15 -0.7 -1.05 -0.65 -1.05 -0.6 -1.0 -0.65 Q-0.95 -0.65 -0.95 -0.7 L-0.9 -0.65 -0.85 -0.65 -0.9 -0.55 -0.95 -0.55 -1.0 -0.6 -0.95 -0.45 -1.0 -0.45 -1.0 -0.5 M-1.0 -0.45 L-1.0 -0.45" fill="#86bfdd" fill-rule="evenodd" stroke="none"/>
    <path d="M-1.9 -0.75 L-1.9 -0.65 -2.0 -0.5 -2.1 -0.4 -2.0 -0.6 -1.95 -0.65 -1.9 -0.75" fill="#b0c9ea" fill-rule="evenodd" stroke="none"/>
    <path d="M-1.9 -0.65 L-1.9 -0.65 -1.85 -0.55 -1.9 -0.55 -1.9 -0.5 Q-1.9 -0.45 -1.95 -0.5 L-1.9 -0.65" fill="#7aa5bf" fill-rule="evenodd" stroke="none"/>
    <path d="M-1.85 -0.55 L-1.85 -0.55 -1.8 -0.35 Q-1.75 -0.4 -1.75 -0.4 L-1.7 -0.5 -1.65 -0.4 -1.6 -0.45 Q-1.6 -0.55 -1.55 -0.55 L-1.5 -0.55 Q-1.6 -0.55 -1.55 -0.4 -1.6 -0.4 -1.7 -0.4 L-1.8 -0.35 -1.85 -0.4 -1.9 -0.55 -1.85 -0.55 M-1.5 -0.55 L-1.5 -0.55" fill="#9ac9e9" fill-rule="evenodd" stroke="none"/>
    <path d="M-1.8 -0.35 L-1.7 -0.4 Q-1.6 -0.4 -1.55 -0.4 -1.6 -0.55 -1.5 -0.55 L-1.5 -0.45 -1.6 -0.3 Q-1.65 -0.3 -1.7 -0.3 L-1.8 -0.35" fill="#8ab7e3" fill-rule="evenodd" stroke="none"/>
    <path d="M-1.9 -0.55 L-1.85 -0.4 -1.8 -0.35 -1.75 -0.15 -1.85 -0.2 Q-1.9 -0.25 -1.9 -0.35 L-1.95 -0.45 -1.95 -0.5 Q-1.9 -0.45 -1.9 -0.5 L-1.9 -0.55" fill="#84bada" fill-rule="evenodd" stroke="none"/>
    <path d="M-1.95 -0.45 L-1.9 -0.35 Q-1.9 -0.25 -1.85 -0.2 L-1.9 -0.1 -1.95 -0.1 -2.0 -0.05 -2.0 -0.1 -1.95 -0.25 -1.95 -0.45 M-1.85 -0.2 L-1.85 -0.2" fill="#7ea3b9" fill-rule="evenodd" stroke="none"/>
    <path d="M-1.9 -0.1 L-2.0 0.1 -2.05 0.05 -2.0 -0.05 -1.95 -0.1 -1.9 -0.1" fill="#487399" fill-rule="evenodd" stroke="none"/>
    <path d="M-2.0 -0.1 L-2.0 -0.05 -2.05 0.05 -2.1 0.15 Q-2.1 -0.05 -2.0 -0.1" fill="#a3c0e0" fill-rule="evenodd" stroke="none"/>
    <path d="M-1.85 -0.2 L-1.75 -0.15 -1.7 -0.15 -1.75 -0.1 Q-1.75 -0.05 -1.7 -0.05 L-1.7 0.05 -1.75 0.1 -1.8 0.05 -1.85 0.0 -1.85 -0.2 -1.85 -0.2 M-1.7 -0.05 L-1.7 -0.05 M-1.75 -0.15 L-1.75 -0.15" fill="#9dc1de" fill-rule="evenodd" stroke="none"/>
    <path d="M-1.85 -0.2 L-1.85 0.0 -1.8 0.05 -1.75 0.1 -1.75 0.25 -1.65 0.35 Q-1.6 0.4 -1.6 0.45 L-1.6 0.55 -1.65 0.55 -1.7 0.55 Q-1.65 0.5 -1.7 0.45 L-1.75 0.4 -1.75 0.25 Q-1.75 0.2 -1.85 0.15 L-1.85 0.2 Q-1.85 0.2 -1.9 0.2 L-1.95 0.15 Q-1.95 0.1 -2.0 0.1 L-1.9 -0.1 -1.85 -0.2 M-2.0 0.1 L-2.0 0.1 M-1.75 0.1 L-1.75 0.1" fill="#b3d0ea" fill-rule="evenodd" stroke="none"/>
    <path d="M-1.6 -0.3 L-1.5 -0.45 -1.45 -0.4 -1.45 -0.3 -1.5 -0.35 -1.55 -0.25 -1.55 -0.3 -1.6 -0.3" fill="#7fa9cf" fill-rule="evenodd" stroke="none"/>
    <path d="M-1.55 -0.3 L-1.55 -0.25 -1.5 -0.15 -1.5 0.1 -1.45 0.15 -1.5 0.2 -1.55 0.25 -1.6 0.15 Q-1.6 0.05 -1.6 0.0 L-1.6 -0.15 -1.55 -0.2 -1.55 -0.3" fill="#aacbe9" fill-rule="evenodd" stroke="none"/>
    <path d="M-1.55 -0.3 L-1.55 -0.2 -1.6 -0.15 -1.75 -0.15 -1.65 -0.25 Q-1.6 -0.25 -1.6 -0.3 L-1.55 -0.3" fill="#6f98b3" fill-rule="evenodd" stroke="none"/>
    <path d="M-1.75 0.1 L-1.75 0.1 -1.7 0.05 -1.7 -0.05 -1.7 0.0 -1.7 0.05 -1.65 0.15 -1.7 0.2 -1.75 0.1" fill="#749fd4" fill-rule="evenodd" stroke="none"/>
    <path d="M-1.7 -0.05 L-1.7 -0.05 Q-1.65 -0.05 -1.65 -0.1 L-1.7 -0.15 -1.75 -0.15 -1.6 -0.15 -1.6 0.0 -1.65 0.0 Q-1.65 -0.05 -1.7 0.0 L-1.7 -0.05" fill="#90b3c4" fill-rule="evenodd" stroke="none"/>
    <path d="M-1.7 -0.05 Q-1.75 -0.05 -1.75 -0.1 L-1.7 -0.15 -1.65 -0.1 Q-1.65 -0.05 -1.7 -0.05" fill="#cbdfe4" fill-rule="evenodd" stroke="none"/>
    <path d="M-1.55 -0.25 L-1.5 -0.35 -1.45 -0.3 -1.5 -0.15 -1.55 -0.25" fill="#7599b6" fill-rule="evenodd" stroke="none"/>
    <path d="M-1.8 -0.35 L-1.7 -0.3 Q-1.65 -0.3 -1.6 -0.3 -1.6 -0.25 -1.65 -0.25 L-1.75 -0.15 -1.8 -0.35 M-1.75 -0.15 L-1.75 -0.15" fill="#7ba2cb" fill-rule="evenodd" stroke="none"/>
    <path d="M-1.2 -0.5 L-1.2 -0.55 -1.15 -0.4 -1.1 -0.3 -1.15 -0.35 -1.15 -0.25 -1.2 -0.35 -1.2 -0.5" fill="#8c9fae" fill-rule="evenodd" stroke="none"/>
    <path d="M-1.25 -0.4 L-1.2 -0.5 -1.2 -0.35 -1.2 -0.25 Q-1.2 -0.15 -1.25 -0.15 L-1.25 -0.05 Q-1.3 0.0 -1.35 -0.05 L-1.25 -0.4 M-0.75 -0.7 L-0.55 -1.05 -0.55 -0.95 -0.6 -0.85 Q-0.6 -0.8 -0.65 -0.8 L-0.7 -0.75 Q-0.7 -0.7 -0.75 -0.7" fill="#afc8ea" fill-rule="evenodd" stroke="none"/>
    <path d="M-1.3 -0.4 L-1.25 -0.4 -1.25 -0.4 -1.35 -0.05 -1.35 0.1 -1.4 0.2 -1.4 0.2 -1.4 0.15 -1.4 0.1 Q-1.35 -0.05 -1.35 -0.15 L-1.3 -0.25 -1.3 -0.4" fill="#94abb9" fill-rule="evenodd" stroke="none"/>
    <path d="M-1.05 -0.35 L-1.0 -0.45 -1.05 -0.3 -1.05 -0.35 M-1.0 -0.45 L-1.0 -0.45" fill="#83a6bb" fill-rule="evenodd" stroke="none"/>
    <path d="M-1.1 -0.3 L-1.05 -0.35 -1.05 -0.3 -1.1 -0.2 -1.1 -0.15 -1.15 -0.15 -1.15 -0.25 -1.15 -0.35 -1.1 -0.3 M-1.05 -0.3 L-1.05 -0.3" fill="#69809c" fill-rule="evenodd" stroke="none"/>
    <path d="M-1.3 -0.4 L-1.3 -0.4 -1.3 -0.25 -1.35 -0.15 -1.35 -0.2 -1.4 -0.2 -1.4 -0.35 Q-1.35 -0.4 -1.3 -0.4" fill="#b7d2de" fill-rule="evenodd" stroke="none"/>
    <path d="M-1.4 -0.2 L-1.35 -0.2 -1.35 -0.15 Q-1.35 -0.05 -1.4 0.1 L-1.4 0.05 Q-1.45 -0.05 -1.4 -0.15 L-1.4 -0.2" fill="#91b6d6" fill-rule="evenodd" stroke="none"/>
    <path d="M-1.35 -0.05 Q-1.3 0.0 -1.25 -0.05 L-1.25 -0.15 Q-1.2 -0.15 -1.2 -0.25 L-1.2 -0.35 -1.15 -0.25 -1.15 -0.15 -1.1 0.1 -1.1 0.3 -1.1 0.35 -1.15 0.45 -1.2 0.5 -1.25 0.45 -1.25 0.35 Q-1.25 0.3 -1.2 0.3 -1.15 0.25 -1.15 0.15 L-1.25 0.0 -1.3 0.1 -1.25 0.15 -1.25 0.2 -1.25 0.15 -1.3 0.15 -1.3 0.35 -1.3 0.4 -1.35 0.55 -1.3 0.7 -1.25 0.6 -1.2 0.55 -1.2 0.6 -1.25 0.7 -1.2 0.85 -1.15 0.9 -1.25 0.85 -1.3 0.8 -1.35 0.8 Q-1.35 0.75 -1.35 0.7 L-1.45 0.6 -1.45 0.4 -1.4 0.2 -1.35 0.1 -1.35 -0.05 M-1.1 0.35 L-1.1 0.35" fill="#c6e2eb" fill-rule="evenodd" stroke="none"/>
    <path d="M-1.05 -0.15 L-1.05 -0.1 -1.1 -0.15 -1.1 -0.2 -1.05 -0.3 -1.05 -0.15" fill="#7ea4cc" fill-rule="evenodd" stroke="none"/>
    <path d="M-1.1 0.3 L-1.1 0.1 -1.15 -0.15 -1.1 -0.15 -1.05 -0.1 -1.05 0.05 -1.05 0.2 Q-1.0 0.2 -0.95 0.15 L-0.9 0.05 -0.9 0.1 -0.95 0.25 -1.0 0.3 -1.05 0.25 -1.05 0.35 -1.1 0.3" fill="#7499b5" fill-rule="evenodd" stroke="none"/>
    <path d="M-1.05 -0.1 L-1.05 -0.15 -0.95 -0.1 -0.95 -0.05 -1.0 0.0 Q-0.9 0.0 -0.9 -0.15 L-0.85 -0.3 -0.8 -0.5 Q-0.8 -0.55 -0.75 -0.5 L-0.75 -0.45 -0.8 -0.35 -0.7 -0.4 -0.75 -0.3 Q-0.75 -0.3 -0.8 -0.3 L-0.8 -0.2 -0.85 -0.1 -0.9 0.0 -0.8 -0.05 -0.8 0.0 -0.9 0.05 -1.0 0.15 -1.05 0.1 -1.05 0.05 -1.05 -0.1" fill="#abcce8" fill-rule="evenodd" stroke="none"/>
    <path d="M-1.05 -0.3 L-1.0 -0.45 -0.95 -0.45 -0.95 -0.4 -0.95 -0.25 Q-1.0 -0.15 -1.05 -0.15 L-1.05 -0.3 -1.05 -0.3 M-0.95 -0.45 L-0.95 -0.45" fill="#a7caea" fill-rule="evenodd" stroke="none"/>
    <path d="M-0.15 -1.05 L-0.1 -1.0 -0.15 -0.9 -0.25 -0.9 -0.25 -0.95 -0.3 -0.95 -0.35 -0.95 -0.4 -0.9 -0.45 -0.95 -0.5 -1.05 -0.55 -1.2 -0.4 -1.05 -0.25 -1.0 Q-0.15 -1.0 -0.15 -1.05 L-0.15 -1.05 M-0.55 -1.2 L-0.55 -1.2" fill="#88bde4" fill-rule="evenodd" stroke="none"/>
    <path d="M-0.1 -1.0 L-0.1 -1.05 Q-0.1 -1.1 -0.05 -1.05 L-0.1 -0.9 -0.15 -0.7 -0.15 -0.65 -0.15 -0.7 -0.2 -0.7 -0.2 -0.8 -0.15 -0.9 -0.1 -1.0" fill="#7aa6c6" fill-rule="evenodd" stroke="none"/>
    <path d="M-0.05 -1.05 L-0.05 -1.1 0.0 -1.0 0.0 -0.9 -0.05 -0.8 Q-0.05 -0.85 -0.1 -0.8 L-0.15 -0.7 -0.1 -0.9 -0.05 -1.05" fill="#afc9ea" fill-rule="evenodd" stroke="none"/>
    <path d="M-0.8 -0.75 L-0.75 -0.85 -0.7 -0.9 Q-0.65 -0.95 -0.65 -1.0 L-0.6 -1.15 -0.55 -1.2 -0.5 -1.05 -0.45 -0.95 Q-0.55 -0.9 -0.5 -0.7 L-0.5 -0.65 -0.45 -0.65 -0.4 -0.55 -0.35 -0.55 -0.45 -0.5 -0.45 -0.55 -0.55 -0.65 -0.55 -0.75 -0.55 -0.95 -0.55 -1.05 -0.75 -0.7 -0.8 -0.7 -0.8 -0.75 M-0.45 -0.5 L-0.45 -0.5 M-0.75 -0.7 L-0.75 -0.7" fill="#8eb0cc" fill-rule="evenodd" stroke="none"/>
    <path d="M-0.3 -0.95 L-0.25 -0.95 -0.25 -0.9 -0.3 -0.8 -0.35 -0.65 -0.35 -0.6 -0.4 -0.55 -0.45 -0.65 -0.5 -0.65 -0.5 -0.7 Q-0.45 -0.7 -0.45 -0.75 L-0.4 -0.85 Q-0.4 -0.8 -0.35 -0.85 L-0.3 -0.95" fill="#98bfe5" fill-rule="evenodd" stroke="none"/>
    <path d="M-0.4 -0.9 L-0.35 -0.95 -0.3 -0.95 -0.35 -0.85 Q-0.4 -0.8 -0.4 -0.85 L-0.4 -0.9" fill="#7eafd2" fill-rule="evenodd" stroke="none"/>
    <path d="M-0.45 -0.95 L-0.4 -0.9 -0.4 -0.85 -0.45 -0.75 Q-0.45 -0.7 -0.5 -0.7 -0.55 -0.9 -0.45 -0.95" fill="#aecae4" fill-rule="evenodd" stroke="none"/>
    <path d="M-0.25 -0.9 L-0.15 -0.9 -0.2 -0.8 -0.2 -0.7 -0.25 -0.65 -0.3 -0.6 -0.35 -0.65 -0.3 -0.8 -0.25 -0.9 M-0.2 -0.7 L-0.2 -0.7" fill="#7eb2d9" fill-rule="evenodd" stroke="none"/>
    <path d="M-0.4 -0.55 L-0.35 -0.6 -0.35 -0.65 -0.3 -0.6 -0.3 -0.6 -0.25 -0.55 -0.25 -0.5 -0.3 -0.45 -0.3 -0.45 -0.35 -0.55 -0.4 -0.55" fill="#b4dee5" fill-rule="evenodd" stroke="none"/>
    <path d="M-0.15 -0.65 L-0.15 -0.6 -0.2 -0.7 -0.2 -0.7 -0.15 -0.7 -0.15 -0.65" fill="#628dac" fill-rule="evenodd" stroke="none"/>
    <path d="M-0.3 -0.6 L-0.25 -0.65 -0.2 -0.7 -0.15 -0.6 -0.2 -0.5 -0.25 -0.5 -0.25 -0.55 -0.3 -0.6 -0.3 -0.6" fill="#71a1be" fill-rule="evenodd" stroke="none"/>
    <path d="M-0.85 -0.65 L-0.8 -0.7 -0.75 -0.7 -0.8 -0.55 -0.9 -0.4 -0.95 -0.4 -0.95 -0.45 -0.9 -0.55 -0.85 -0.65" fill="#7198b5" fill-rule="evenodd" stroke="none"/>
    <path d="M-0.75 -0.5 Q-0.8 -0.55 -0.8 -0.5 L-0.8 -0.55 -0.75 -0.7 Q-0.7 -0.7 -0.7 -0.75 L-0.65 -0.8 Q-0.6 -0.8 -0.6 -0.85 L-0.55 -0.95 -0.55 -0.75 -0.6 -0.65 -0.6 -0.55 -0.65 -0.35 -0.7 -0.3 -0.65 -0.5 -0.7 -0.65 Q-0.75 -0.65 -0.75 -0.6 L-0.7 -0.5 -0.75 -0.5 M-0.75 -0.7 L-0.75 -0.7" fill="#c2dde9" fill-rule="evenodd" stroke="none"/>
    <path d="M-0.55 -0.75 L-0.55 -0.65 -0.45 -0.55 -0.5 -0.5 -0.6 -0.55 -0.6 -0.65 -0.55 -0.75" fill="#7a9ebf" fill-rule="evenodd" stroke="none"/>
    <path d="M-0.6 -0.55 L-0.5 -0.5 -0.55 -0.4 -0.65 -0.3 -0.65 -0.35 -0.6 -0.55 M-0.65 -0.3 L-0.65 -0.3" fill="#698ba4" fill-rule="evenodd" stroke="none"/>
    <path d="M-0.8 -0.05 L-0.9 0.0 -0.85 -0.1 -0.8 -0.2 -0.8 -0.3 Q-0.75 -0.3 -0.75 -0.3 L-0.7 -0.4 -0.8 -0.35 -0.75 -0.45 -0.75 -0.5 -0.7 -0.5 -0.75 -0.6 Q-0.75 -0.65 -0.7 -0.65 L-0.65 -0.5 -0.7 -0.3 -0.8 -0.05" fill="#d0e7ea" fill-rule="evenodd" stroke="none"/>
    <path d="M-0.8 0.0 L-0.8 -0.05 -0.7 -0.3 -0.65 -0.35 -0.65 -0.3 -0.7 -0.2 -0.75 -0.1 -0.7 -0.1 -0.8 0.05 -0.8 0.0" fill="#9db7cd" fill-rule="evenodd" stroke="none"/>
    <path d="M-0.8 -0.5 L-0.85 -0.3 -0.9 -0.15 -0.95 -0.15 -0.95 -0.25 -0.9 -0.4 -0.8 -0.55 -0.8 -0.5" fill="#cee6ec" fill-rule="evenodd" stroke="none"/>
    <path d="M-0.95 -0.45 L-0.95 -0.45 -1.0 -0.6 -0.95 -0.55 -0.9 -0.55 -0.95 -0.45" fill="#81aec9" fill-rule="evenodd" stroke="none"/>
    <path d="M-0.9 -0.15 Q-0.9 0.0 -1.0 0.0 L-0.95 -0.05 -0.95 -0.1 -1.05 -0.15 Q-1.0 -0.15 -0.95 -0.25 L-0.95 -0.4 -0.9 -0.4 -0.95 -0.25 -0.95 -0.15 -0.9 -0.15" fill="#bedaeb" fill-rule="evenodd" stroke="none"/>
    <path d="M-0.45 -0.55 L-0.45 -0.5 -0.45 -0.35 -0.5 -0.35 -0.5 -0.35 Q-0.5 -0.25 -0.55 -0.25 L-0.6 -0.2 Q-0.6 -0.15 -0.65 -0.15 L-0.65 -0.3 -0.55 -0.4 -0.5 -0.5 -0.45 -0.55" fill="#b0c8e9" fill-rule="evenodd" stroke="none"/>
    <path d="M-0.6 0.2 L-0.55 0.05 -0.6 -0.15 -0.65 -0.05 -0.65 0.0 -0.7 0.0 -0.75 0.15 -0.8 0.3 -0.8 0.45 Q-0.85 0.55 -0.9 0.55 L-0.85 0.4 -0.95 0.4 -0.9 0.25 -0.85 0.15 -0.8 0.05 -0.7 -0.1 -0.65 -0.15 Q-0.6 -0.15 -0.6 -0.2 L-0.55 -0.25 Q-0.5 -0.25 -0.5 -0.35 L-0.5 -0.35 -0.45 -0.2 -0.5 -0.05 -0.55 0.15 -0.55 0.2 -0.6 0.2" fill="#c6dfeb" fill-rule="evenodd" stroke="none"/>
    <path d="M-0.65 -0.3 L-0.65 -0.3 -0.65 -0.15 -0.7 -0.1 -0.75 -0.1 -0.7 -0.2 -0.65 -0.3" fill="#849bb5" fill-rule="evenodd" stroke="none"/>
    <path d="M-0.65 0.0 L-0.65 -0.05 -0.6 -0.15 -0.55 0.05 -0.6 0.2 -0.65 0.25 -0.65 0.35 -0.75 0.45 -0.7 0.5 -0.65 0.5 -0.75 0.55 -0.75 0.5 -0.75 0.35 Q-0.7 0.3 -0.7 0.25 L-0.65 0.2 -0.65 0.15 -0.7 0.15 -0.7 0.1 -0.65 0.0" fill="#d1e9ec" fill-rule="evenodd" stroke="none"/>
    <path d="M-0.25 -0.55 L-0.25 -0.5 -0.25 -0.35 -0.25 -0.25 -0.3 -0.15 -0.35 -0.2 -0.3 -0.35 Q-0.25 -0.4 -0.3 -0.45 L-0.3 -0.45 -0.25 -0.5 -0.25 -0.55" fill="#a3c7e6" fill-rule="evenodd" stroke="none"/>
    <path d="M-0.25 -0.5 L-0.2 -0.5 -0.25 -0.35 -0.25 -0.5 M-0.25 -0.35 L-0.25 -0.35" fill="#95b4bf" fill-rule="evenodd" stroke="none"/>
    <path d="M-0.15 -0.3 L-0.15 -0.4 -0.1 -0.45 -0.05 -0.35 -0.1 -0.2 -0.1 -0.05 -0.15 0.1 -0.15 -0.3" fill="#a2c1da" fill-rule="evenodd" stroke="none"/>
    <path d="M-0.25 -0.35 L-0.2 -0.25 -0.15 -0.15 -0.15 -0.3 -0.15 0.1 -0.15 0.15 -0.2 0.15 -0.3 0.45 -0.35 0.45 -0.35 0.45 -0.4 0.45 -0.5 0.45 -0.5 0.4 -0.55 0.35 -0.5 0.3 -0.45 0.35 -0.4 0.4 -0.4 0.4 -0.35 0.35 -0.3 0.35 -0.35 0.3 -0.4 0.3 -0.4 0.2 Q-0.4 0.1 -0.35 0.15 -0.3 0.15 -0.3 0.25 -0.35 0.3 -0.3 0.3 L-0.25 0.1 Q-0.25 0.0 -0.3 -0.05 L-0.3 -0.15 -0.25 -0.25 -0.25 -0.35 -0.25 -0.35" fill="#b4d2e8" fill-rule="evenodd" stroke="none"/>
    <path d="M-0.05 -0.35 L-0.05 -0.45 0.0 -0.5 0.0 -0.35 -0.05 -0.15 -0.1 -0.05 -0.1 -0.2 -0.05 -0.35" fill="#97adba" fill-rule="evenodd" stroke="none"/>
    <path d="M-0.45 -0.5 L-0.35 -0.55 -0.3 -0.45 Q-0.25 -0.4 -0.3 -0.35 L-0.3 -0.4 -0.35 -0.45 -0.4 -0.45 -0.4 -0.5 -0.45 -0.5" fill="#6ea3c2" fill-rule="evenodd" stroke="none"/>
    <path d="M-0.45 -0.5 L-0.45 -0.5 -0.4 -0.5 -0.4 -0.45 -0.45 -0.3 -0.45 -0.35 -0.45 -0.5" fill="#5182a3" fill-rule="evenodd" stroke="none"/>
    <path d="M-0.45 -0.2 L-0.5 -0.35 -0.45 -0.35 -0.45 -0.3 -0.45 -0.15 -0.45 -0.05 -0.45 -0.2" fill="#6397c0" fill-rule="evenodd" stroke="none"/>
    <path d="M-0.4 -0.45 L-0.35 -0.45 -0.3 -0.4 -0.35 -0.25 -0.4 -0.15 -0.45 -0.15 -0.45 -0.3 -0.4 -0.45" fill="#5fa6dc" fill-rule="evenodd" stroke="none"/>
    <path d="M-0.3 -0.35 L-0.35 -0.2 -0.4 -0.05 -0.4 -0.15 -0.35 -0.25 -0.3 -0.4 -0.3 -0.35" fill="#568dbb" fill-rule="evenodd" stroke="none"/>
    <path d="M-0.3 -0.05 Q-0.25 0.0 -0.25 0.1 L-0.3 0.3 Q-0.35 0.3 -0.3 0.25 -0.3 0.15 -0.35 0.15 -0.4 0.1 -0.4 0.2 L-0.4 0.3 -0.35 0.3 -0.3 0.35 -0.35 0.35 -0.4 0.4 -0.4 0.4 -0.45 0.25 -0.5 0.1 -0.45 0.05 -0.45 -0.05 -0.45 -0.15 -0.4 -0.15 -0.4 -0.05 -0.3 0.05 -0.3 -0.05" fill="#a0cee5" fill-rule="evenodd" stroke="none"/>
    <path d="M-0.55 0.15 L-0.5 -0.05 -0.45 -0.2 -0.45 -0.05 -0.45 0.05 -0.5 0.1 -0.55 0.15" fill="#4d7bac" fill-rule="evenodd" stroke="none"/>
    <path d="M-0.3 -0.15 L-0.3 -0.05 -0.3 0.05 -0.4 -0.05 -0.35 -0.2 -0.3 -0.15" fill="#8db5dc" fill-rule="evenodd" stroke="none"/>
    <path d="M-0.55 0.2 L-0.55 0.15 -0.5 0.1 -0.45 0.25 -0.4 0.4 -0.45 0.35 -0.5 0.3 -0.55 0.35 -0.5 0.4 -0.55 0.45 -0.6 0.45 -0.6 0.4 Q-0.55 0.3 -0.55 0.2" fill="#7297b7" fill-rule="evenodd" stroke="none"/>
    <path d="M-0.5 0.45 L-0.45 0.45 -0.45 0.55 -0.45 0.55 -0.5 0.45" fill="#4a7ecc" fill-rule="evenodd" stroke="none"/>
    <path d="M-0.45 0.45 L-0.4 0.45 -0.4 0.65 -0.45 0.7 -0.5 0.65 -0.45 0.55 -0.45 0.45 M-0.4 0.65 L-0.4 0.65" fill="#6b94ca" fill-rule="evenodd" stroke="none"/>
    <path d="M-0.65 0.5 L-0.7 0.5 -0.75 0.45 -0.65 0.35 -0.6 0.4 -0.6 0.45 -0.55 0.45 -0.55 0.6 -0.45 0.55 -0.5 0.65 -0.55 0.75 -0.65 0.75 -0.65 0.7 -0.65 0.65 Q-0.6 0.65 -0.6 0.6 L-0.65 0.5 M-0.45 0.55 L-0.45 0.55" fill="#b7d5eb" fill-rule="evenodd" stroke="none"/>
    <path d="M-0.35 0.45 L-0.35 0.5 -0.35 0.6 -0.4 0.65 -0.4 0.45 -0.35 0.45" fill="#a0c0d4" fill-rule="evenodd" stroke="none"/>
    <path d="M-0.5 0.4 L-0.5 0.45 -0.45 0.55 -0.55 0.6 -0.55 0.45 -0.5 0.4" fill="#4267a6" fill-rule="evenodd" stroke="none"/>
    <path d="M-0.85 0.15 L-0.9 0.25 -0.95 0.4 -0.85 0.4 -0.9 0.55 Q-0.85 0.55 -0.8 0.45 L-0.8 0.3 -0.75 0.15 -0.7 0.0 -0.65 0.0 -0.7 0.1 -0.7 0.15 -0.65 0.15 -0.65 0.2 -0.7 0.25 Q-0.7 0.3 -0.75 0.35 L-0.75 0.5 -0.85 0.65 -0.75 0.55 -0.65 0.5 -0.6 0.6 Q-0.6 0.65 -0.65 0.65 L-0.65 0.6 -0.7 0.7 -0.75 0.75 -0.85 0.75 -0.9 0.75 -1.0 0.75 -1.0 0.55 -0.95 0.4 -0.95 0.25 -0.9 0.1 -0.85 0.05 -0.85 0.15" fill="#abcdec" fill-rule="evenodd" stroke="none"/>
    <path d="M-0.6 0.2 L-0.55 0.2 Q-0.55 0.3 -0.6 0.4 L-0.65 0.35 -0.65 0.25 -0.6 0.2" fill="#a8c4ea" fill-rule="evenodd" stroke="none"/>
    <path d="M-0.8 0.05 L-0.85 0.15 -0.85 0.05 -0.8 0.0 -0.8 0.05" fill="#8299a7" fill-rule="evenodd" stroke="none"/>
    <path d="M-1.05 0.05 L-1.05 0.1 -1.0 0.15 -0.9 0.05 -0.8 0.0 -0.9 0.1 -0.9 0.05 -0.95 0.15 Q-1.0 0.2 -1.05 0.2 L-1.05 0.05" fill="#95b3d0" fill-rule="evenodd" stroke="none"/>
    <path d="M-1.1 0.35 L-1.1 0.3 -1.05 0.35 -1.05 0.35 -1.0 0.3 -0.95 0.25 -0.95 0.4 -1.0 0.55 -1.05 0.45 -1.1 0.35" fill="#8ab1d9" fill-rule="evenodd" stroke="none"/>
    <path d="M-0.75 0.5 L-0.75 0.55 -0.85 0.65 -0.75 0.5" fill="#90bcea" fill-rule="evenodd" stroke="none"/>
    <path d="M-1.0 0.75 L-0.9 0.75 -0.85 0.75 -0.75 0.75 -0.7 0.7 -0.65 0.6 -0.65 0.65 -0.65 0.7 -0.7 0.8 -0.75 0.9 -0.75 0.8 -0.8 0.85 -0.85 0.9 -0.9 0.8 -1.0 0.75 -1.0 0.75" fill="#85b7e8" fill-rule="evenodd" stroke="none"/>
    <path d="M-0.8 0.85 L-0.75 0.8 -0.75 0.9 -0.7 0.95 Q-0.65 0.95 -0.65 1.0 L-0.7 1.0 -0.9 1.0 -0.85 1.0 -0.75 0.95 -0.8 0.85" fill="#75acd7" fill-rule="evenodd" stroke="none"/>
    <path d="M-0.55 0.8 L-0.55 0.95 -0.55 1.2 -0.5 1.4 -0.6 1.4 -0.65 1.35 -0.6 1.3 -0.6 1.2 -0.6 1.1 Q-0.55 1.05 -0.6 1.0 L-0.65 1.0 Q-0.65 0.95 -0.7 0.95 L-0.75 0.9 -0.7 0.8 -0.65 0.7 -0.65 0.75 -0.55 0.75 -0.5 0.65 -0.45 0.7 -0.5 0.75 -0.55 0.8" fill="#9ac0e6" fill-rule="evenodd" stroke="none"/>
    <path d="M-1.0 0.55 L-1.0 0.75 -1.0 0.75 -1.0 0.85 Q-1.0 0.7 -1.05 0.65 L-1.05 0.55 -1.05 0.45 -1.0 0.55" fill="#8ddbeb" fill-rule="evenodd" stroke="none"/>
    <path d="M-0.95 0.9 L-1.0 0.9 -1.05 0.95 -1.05 0.9 -1.05 0.75 Q-1.1 0.7 -1.05 0.65 -1.0 0.7 -1.0 0.85 L-1.0 0.75 -0.95 0.9" fill="#76b6e6" fill-rule="evenodd" stroke="none"/>
    <path d="M-1.25 0.85 L-1.15 0.9 -1.1 0.95 Q-1.05 1.0 -1.05 0.95 L-1.0 0.9 -0.95 0.9 -0.95 0.95 -1.0 1.05 -0.95 1.1 -0.95 1.1 -0.95 1.1 -1.05 1.1 -1.15 1.05 -1.2 1.0 -1.3 0.95 -1.25 0.85" fill="#b1dded" fill-rule="evenodd" stroke="none"/>
    <path d="M-0.85 0.9 L-0.8 0.85 -0.75 0.95 -0.85 1.0 -0.85 0.95 -0.85 0.9" fill="#4f788e" fill-rule="evenodd" stroke="none"/>
    <path d="M-1.0 0.75 L-0.9 0.8 -0.85 0.9 -0.85 0.95 -0.9 0.95 -0.95 1.0 -0.95 0.95 -1.0 0.75" fill="#7096bc" fill-rule="evenodd" stroke="none"/>
    <path d="M-0.85 1.0 L-0.9 1.0 -0.9 1.05 -0.95 1.0 -0.95 1.0 -0.9 0.95 -0.85 0.95 -0.85 1.0" fill="#b0d6e1" fill-rule="evenodd" stroke="none"/>
    <path d="M-0.95 0.95 L-0.95 1.0 -0.95 1.0 -0.9 1.05 -0.95 1.1 -1.0 1.05 -0.95 0.95" fill="#d4e7ea" fill-rule="evenodd" stroke="none"/>
    <path d="M-0.9 1.0 L-0.7 1.0 -0.7 1.05 -0.9 1.1 -0.95 1.1 -0.9 1.05 -0.9 1.0 M-0.95 1.1 L-0.95 1.1" fill="#234ebd" fill-rule="evenodd" stroke="none"/>
    <path d="M-0.95 1.15 L-1.1 1.15 -1.3 1.1 -1.4 1.1 -1.35 1.05 -1.25 1.05 -1.1 1.1 -0.95 1.1 -0.9 1.1 -0.95 1.15" fill="#2b4cd6" fill-rule="evenodd" stroke="none"/>
    <path d="M-0.9 1.1 L-0.7 1.05 -0.7 1.1 -0.85 1.1 -0.85 1.2 -0.85 1.25 -0.9 1.25 -0.9 1.15 Q-0.9 1.15 -0.95 1.15 L-0.9 1.1 M-0.7 1.0 Q-0.7 1.05 -0.7 1.05 L-0.7 1.0" fill="#245de1" fill-rule="evenodd" stroke="none"/>
    <path d="M-0.95 1.15 Q-0.9 1.15 -0.9 1.15 L-0.9 1.25 -0.9 1.3 -0.95 1.4 Q-1.0 1.5 -1.05 1.45 -1.0 1.35 -1.1 1.3 -1.25 1.2 -1.3 1.1 L-1.1 1.15 -0.95 1.15 M-0.9 1.3 L-0.9 1.3" fill="#2955fb" fill-rule="evenodd" stroke="none"/>
    <path d="M-0.85 1.2 L-0.8 1.15 -0.8 1.2 -0.8 1.35 -0.85 1.2" fill="#3b79d5" fill-rule="evenodd" stroke="none"/>
    <path d="M-0.85 1.2 L-0.85 1.1 -0.7 1.1 -0.8 1.15 -0.85 1.2" fill="#2c7ff6" fill-rule="evenodd" stroke="none"/>
    <path d="M-0.7 1.1 L-0.7 1.05 Q-0.7 1.05 -0.7 1.0 L-0.65 1.0 -0.65 1.05 Q-0.65 1.15 -0.75 1.25 L-0.8 1.2 -0.8 1.15 -0.7 1.1" fill="#3e5ca5" fill-rule="evenodd" stroke="none"/>
    <path d="M-0.65 1.0 L-0.6 1.0 -0.6 1.1 -0.65 1.2 -0.7 1.25 -0.7 1.3 -0.75 1.35 -0.8 1.4 -0.8 1.35 -0.8 1.2 -0.75 1.25 Q-0.65 1.15 -0.65 1.05 L-0.65 1.0 -0.7 1.0 -0.65 1.0 M-0.7 1.05 L-0.7 1.0 -0.7 1.05 M-0.75 1.35 L-0.75 1.35" fill="#5777ae" fill-rule="evenodd" stroke="none"/>
    <path d="M-0.6 1.0 Q-0.55 1.05 -0.6 1.1 L-0.6 1.2 -0.65 1.3 -0.7 1.3 -0.7 1.25 -0.65 1.2 -0.6 1.1 -0.6 1.0" fill="#7497c8" fill-rule="evenodd" stroke="none"/>
    <path d="M-1.3 0.35 L-1.3 0.15 -1.25 0.15 -1.25 0.2 -1.3 0.3 Q-1.3 0.25 -1.3 0.35" fill="#b4d6ec" fill-rule="evenodd" stroke="none"/>
    <path d="M-1.4 0.2 L-1.45 0.4 -1.45 0.35 -1.4 0.2 -1.4 0.2" fill="#8498a3" fill-rule="evenodd" stroke="none"/>
    <path d="M-1.55 0.25 L-1.5 0.2 -1.45 0.15 -1.4 0.15 -1.4 0.2 -1.45 0.35 -1.5 0.25 -1.5 0.35 -1.55 0.35 -1.55 0.3 -1.55 0.25" fill="#9bb8cf" fill-rule="evenodd" stroke="none"/>
    <path d="M-1.3 0.4 L-1.3 0.35 Q-1.3 0.25 -1.3 0.3 L-1.25 0.35 -1.25 0.45 -1.3 0.45 -1.3 0.4" fill="#92c2ec" fill-rule="evenodd" stroke="none"/>
    <path d="M-1.45 0.4 L-1.45 0.6 -1.35 0.7 Q-1.35 0.75 -1.35 0.8 L-1.3 0.8 -1.25 0.85 -1.3 0.95 -1.2 1.0 -1.3 1.0 Q-1.35 1.0 -1.4 1.05 L-1.5 0.85 -1.5 0.7 Q-1.5 0.6 -1.5 0.55 L-1.5 0.35 -1.5 0.25 -1.45 0.35 -1.45 0.4 M-1.4 1.05 L-1.4 1.05" fill="#abcdeb" fill-rule="evenodd" stroke="none"/>
    <path d="M-1.1 0.35 L-1.1 0.35 -1.05 0.45 -1.05 0.55 -1.1 0.45 -1.1 0.35" fill="#aee9ed" fill-rule="evenodd" stroke="none"/>
    <path d="M-1.05 0.35 L-1.05 0.25 -1.0 0.3 -1.05 0.35 -1.05 0.35" fill="#49637e" fill-rule="evenodd" stroke="none"/>
    <path d="M-1.15 0.9 L-1.2 0.85 -1.2 0.7 Q-1.2 0.65 -1.2 0.6 L-1.2 0.55 Q-1.15 0.55 -1.15 0.6 L-1.15 0.75 -1.1 0.85 -1.1 0.95 -1.15 0.9" fill="#9dd8ee" fill-rule="evenodd" stroke="none"/>
    <path d="M-1.6 0.0 Q-1.6 0.05 -1.6 0.15 L-1.55 0.25 -1.55 0.3 -1.65 0.25 -1.7 0.2 -1.65 0.15 -1.65 0.0 -1.6 0.0" fill="#89b1db" fill-rule="evenodd" stroke="none"/>
    <path d="M-1.65 0.0 L-1.65 0.15 -1.7 0.05 -1.7 0.0 Q-1.65 -0.05 -1.65 0.0" fill="#6186c4" fill-rule="evenodd" stroke="none"/>
    <path d="M-1.6 0.55 L-1.6 0.45 Q-1.6 0.4 -1.65 0.35 L-1.65 0.25 -1.55 0.3 -1.55 0.35 -1.55 0.45 -1.6 0.5 -1.6 0.55" fill="#88c7e2" fill-rule="evenodd" stroke="none"/>
    <path d="M-1.65 0.35 L-1.75 0.25 -1.75 0.1 -1.7 0.2 -1.65 0.25 -1.65 0.35" fill="#b9e5ec" fill-rule="evenodd" stroke="none"/>
    <path d="M-2.2 0.7 L-2.2 0.35 -2.15 0.35 -2.0 0.1 Q-1.95 0.1 -1.95 0.15 L-1.9 0.2 Q-1.85 0.2 -1.85 0.2 L-1.85 0.15 Q-1.75 0.2 -1.75 0.25 L-1.75 0.4 -1.7 0.45 Q-1.65 0.5 -1.7 0.55 L-1.7 0.85 -1.8 1.05 -1.75 1.15 -1.7 1.3 -1.9 1.35 -2.05 1.2 -2.1 1.0 -2.1 0.75 -2.1 0.65 -2.2 0.7 M-2.0 0.25 L-2.0 0.25 -2.05 0.35 -2.1 0.5 Q-2.15 0.6 -2.1 0.6 L-2.05 0.5 -2.05 0.4 -2.0 0.25 M-1.8 0.4 L-1.9 0.4 -1.9 0.6 -1.85 0.7 -1.8 0.8 Q-1.75 0.8 -1.75 0.7 L-1.75 0.55 Q-1.75 0.5 -1.8 0.4 M-1.9 0.75 L-1.9 0.75 -1.95 0.75 -1.95 0.8 -2.0 1.0 -1.95 1.15 Q-1.9 1.15 -1.9 1.15 L-1.85 1.05 -1.85 0.9 -1.9 0.75" fill="#c3deec" fill-rule="evenodd" stroke="none"/>
    <path d="M-1.8 0.4 Q-1.75 0.5 -1.75 0.55 L-1.75 0.7 Q-1.75 0.8 -1.8 0.8 L-1.85 0.7 -1.9 0.6 -1.9 0.4 -1.8 0.4" fill="#cbe5ec" fill-rule="evenodd" stroke="none"/>
    <path d="M-1.5 0.35 L-1.5 0.55 -1.55 0.55 -1.6 0.5 -1.55 0.45 -1.55 0.35 -1.5 0.35" fill="#73a6bc" fill-rule="evenodd" stroke="none"/>
    <path d="M-1.7 0.55 L-1.65 0.55 -1.65 0.65 -1.65 0.7 -1.7 0.9 -1.7 0.85 -1.7 0.55" fill="#9dc3e3" fill-rule="evenodd" stroke="none"/>
    <path d="M-1.5 0.55 Q-1.5 0.6 -1.5 0.7 L-1.5 0.85 -1.55 0.8 -1.6 0.7 -1.55 0.65 -1.55 0.55 -1.5 0.55" fill="#88b0da" fill-rule="evenodd" stroke="none"/>
    <path d="M-1.6 0.5 L-1.55 0.55 -1.55 0.65 -1.6 0.7 -1.6 0.7 -1.6 0.55 -1.6 0.5" fill="#476cad" fill-rule="evenodd" stroke="none"/>
    <path d="M-1.65 0.55 L-1.6 0.55 -1.6 0.7 -1.65 0.65 -1.65 0.55" fill="#6790c9" fill-rule="evenodd" stroke="none"/>
    <path d="M-1.6 0.7 L-1.55 0.8 Q-1.6 0.75 -1.6 0.8 L-1.55 0.85 -1.65 0.8 -1.65 0.7 -1.65 0.65 -1.6 0.7 -1.6 0.7" fill="#aedfeb" fill-rule="evenodd" stroke="none"/>
    <path d="M-1.65 0.7 L-1.65 0.8 -1.65 0.95 -1.7 0.9 -1.65 0.7 M-1.7 0.9 L-1.7 0.9" fill="#84a8d4" fill-rule="evenodd" stroke="none"/>
    <path d="M-1.5 0.85 L-1.4 1.05 -1.45 1.05 -1.5 1.0 -1.5 0.9 -1.55 0.85 -1.6 0.8 Q-1.6 0.75 -1.55 0.8 L-1.5 0.85" fill="#8ddaec" fill-rule="evenodd" stroke="none"/>
    <path d="M-1.9 0.75 L-1.85 0.9 -1.85 1.05 -1.9 1.15 Q-1.9 1.15 -1.95 1.15 L-2.0 1.0 -1.95 0.8 -1.95 0.75 -1.9 0.75 -1.9 0.75" fill="#b9d8ec" fill-rule="evenodd" stroke="none"/>
    <path d="M-1.55 1.1 L-1.55 1.1 -1.5 1.3 -1.55 1.2 -1.6 1.15 Q-1.65 1.1 -1.55 1.1" fill="#6eace9" fill-rule="evenodd" stroke="none"/>
    <path d="M-1.45 1.4 L-1.5 1.35 -1.55 1.3 -1.6 1.15 -1.55 1.2 -1.5 1.3 -1.45 1.35 -1.35 1.45 -1.25 1.4 Q-1.2 1.4 -1.25 1.5 -1.3 1.65 -1.3 1.75 -1.35 1.7 -1.35 1.65 L-1.3 1.5 -1.35 1.5 -1.45 1.45 -1.45 1.4" fill="#87b8f1" fill-rule="evenodd" stroke="none"/>
    <path d="M-1.25 1.05 L-1.35 1.05 -1.4 1.1 -1.5 1.1 -1.55 1.1 -1.5 1.1 -1.45 1.05 -1.4 1.05 -1.4 1.05 -1.25 1.05 M-1.55 1.1 L-1.55 1.1" fill="#3a6bba" fill-rule="evenodd" stroke="none"/>
    <path d="M-1.05 0.9 L-1.05 0.95 Q-1.05 1.0 -1.1 0.95 L-1.1 0.85 -1.15 0.75 -1.05 0.9" fill="#6d94af" fill-rule="evenodd" stroke="none"/>
    <path d="M-1.2 0.85 L-1.25 0.7 -1.2 0.6 Q-1.2 0.65 -1.2 0.7 L-1.2 0.85" fill="#76a9ce" fill-rule="evenodd" stroke="none"/>
    <path d="M-1.4 1.05 Q-1.35 1.0 -1.3 1.0 L-1.2 1.0 -1.15 1.05 -1.05 1.1 -1.25 1.05 -1.4 1.05" fill="#87b7e8" fill-rule="evenodd" stroke="none"/>
    <path d="M-1.5 1.0 L-1.45 1.05 -1.5 1.1 -1.5 1.0" fill="#6eafe1" fill-rule="evenodd" stroke="none"/>
    <path d="M-1.3 1.1 Q-1.25 1.2 -1.1 1.3 L-1.15 1.35 -1.15 1.3 -1.2 1.25 -1.3 1.3 -1.35 1.25 -1.4 1.15 -1.45 1.15 -1.5 1.2 -1.5 1.1 -1.3 1.1" fill="#2e89f9" fill-rule="evenodd" stroke="none"/>
    <path d="M-1.5 1.2 L-1.45 1.15 -1.4 1.15 -1.35 1.25 -1.3 1.3 -1.3 1.35 -1.35 1.35 -1.4 1.35 -1.45 1.25 -1.5 1.2" fill="#366afd" fill-rule="evenodd" stroke="none"/>
    <path d="M-1.5 1.1 L-1.5 1.2 -1.45 1.25 -1.4 1.35 -1.45 1.35 -1.5 1.3 -1.55 1.1 -1.5 1.1" fill="#52a2f4" fill-rule="evenodd" stroke="none"/>
    <path d="M-1.4 1.1 L-1.3 1.1 -1.5 1.1 -1.4 1.1" fill="#2975dd" fill-rule="evenodd" stroke="none"/>
    <path d="M-0.95 1.1 L-1.1 1.1 -1.25 1.05 -1.05 1.1 -0.95 1.1" fill="#4764bf" fill-rule="evenodd" stroke="none"/>
    <path d="M-1.1 1.3 Q-1.0 1.35 -1.05 1.45 -1.0 1.5 -0.95 1.4 L-0.9 1.3 -0.85 1.3 -0.85 1.35 Q-0.85 1.45 -0.9 1.5 L-0.9 1.5 -0.95 1.5 -1.0 1.55 -1.05 1.55 -1.05 1.55 -1.15 1.6 -1.15 1.5 Q-1.15 1.4 -1.15 1.35 L-1.1 1.3 M-1.15 1.35 L-1.15 1.35" fill="#2471f2" fill-rule="evenodd" stroke="none"/>
    <path d="M-1.3 1.3 L-1.2 1.25 -1.15 1.3 -1.15 1.35 -1.15 1.35 -1.15 1.55 Q-1.2 1.6 -1.25 1.65 -1.3 1.8 -1.2 1.8 L-1.05 1.75 -1.0 1.75 -1.0 1.85 Q-1.0 1.9 -1.1 1.85 L-1.2 1.85 -1.25 1.8 -1.25 1.65 -1.2 1.55 -1.2 1.35 -1.3 1.35 -1.3 1.3 M-1.05 1.75 L-1.05 1.75" fill="#4598f6" fill-rule="evenodd" stroke="none"/>
    <path d="M-1.3 1.35 L-1.2 1.35 -1.2 1.55 -1.25 1.65 -1.25 1.8 -1.2 1.85 -1.1 1.85 Q-1.0 1.9 -1.0 1.85 -0.95 1.85 -1.0 1.9 L-1.1 1.9 -1.25 1.9 -1.3 1.85 -1.3 1.8 -1.3 1.75 Q-1.3 1.65 -1.25 1.5 -1.2 1.4 -1.25 1.4 L-1.35 1.45 -1.45 1.35 -1.4 1.35 -1.35 1.35 -1.3 1.35" fill="#66a4f4" fill-rule="evenodd" stroke="none"/>
    <path d="M-1.15 1.35 Q-1.15 1.4 -1.15 1.5 L-1.15 1.6 -1.15 1.65 -1.1 1.7 -1.05 1.75 -1.05 1.75 -1.2 1.8 Q-1.3 1.8 -1.25 1.65 -1.2 1.6 -1.15 1.55 L-1.15 1.35" fill="#2a86f7" fill-rule="evenodd" stroke="none"/>
    <path d="M-1.3 1.75 L-1.3 1.8 -1.35 1.8 -1.4 1.85 -1.4 1.7 -1.5 1.75 -1.55 1.85 -1.65 1.75 -1.65 1.65 -1.75 1.7 -1.85 1.7 -2.05 1.75 -2.1 1.75 -2.05 1.7 -1.9 1.65 -1.75 1.65 -1.75 1.55 -1.7 1.45 Q-1.65 1.45 -1.6 1.55 L-1.55 1.7 -1.45 1.65 -1.45 1.45 -1.35 1.5 -1.3 1.5 -1.35 1.65 Q-1.35 1.7 -1.3 1.75" fill="#97c0ea" fill-rule="evenodd" stroke="none"/>
    <path d="M-2.2 2.05 L-2.2 1.85 -2.1 1.9 -2.05 1.75 -1.9 1.75 -1.8 1.8 -1.75 1.75 -1.7 1.75 -1.6 1.9 -1.45 1.9 -1.35 1.85 -1.3 1.85 -1.3 1.8 -1.3 1.85 -1.25 1.9 -1.2 1.9 -1.4 2.0 -1.55 2.05 -1.65 2.05 -1.8 2.05 -1.85 2.05 -1.95 2.0 Q-2.0 2.0 -2.05 2.0 L-2.1 2.05 -2.2 2.05 M-1.9 1.8 L-2.0 1.75 -2.05 1.8 -2.05 1.9 Q-1.95 2.05 -1.8 2.0 L-1.7 2.05 -1.65 1.95 Q-1.65 1.9 -1.65 1.85 L-1.7 1.8 -1.8 1.8 -1.85 1.85 -1.9 1.8" fill="#84b4d8" fill-rule="evenodd" stroke="none"/>
    <path d="M-1.15 1.6 L-1.05 1.55 -1.05 1.55 -1.0 1.55 -0.95 1.55 -0.95 1.55 -0.9 1.65 -1.0 1.65 Q-1.1 1.65 -1.1 1.7 L-1.15 1.65 -1.15 1.6" fill="#244089" fill-rule="evenodd" stroke="none"/>
    <path d="M-1.05 1.75 L-1.1 1.7 Q-1.1 1.65 -1.0 1.65 L-0.9 1.65 -0.85 1.65 Q-0.9 1.7 -0.95 1.7 -1.05 1.65 -1.05 1.75" fill="#335290" fill-rule="evenodd" stroke="none"/>
    <path d="M-1.05 1.75 L-1.05 1.75 -1.05 1.75 -0.9 1.7 Q-0.8 1.7 -0.85 1.65 L-0.8 1.65 -0.8 1.75 -1.05 1.75 M-0.8 1.65 L-0.8 1.65" fill="#597db0" fill-rule="evenodd" stroke="none"/>
    <path d="M-1.9 1.8 L-1.85 1.85 -1.8 1.8 -1.7 1.8 -1.65 1.85 Q-1.65 1.9 -1.65 1.95 L-1.7 2.05 -1.8 2.0 Q-1.95 2.05 -2.05 1.9 L-2.05 1.8 -2.0 1.75 -1.9 1.8 M-1.7 2.0 Q-1.65 1.9 -1.7 1.9 L-1.8 1.85 -1.85 1.9 -1.85 1.95 -1.75 2.0 -1.7 2.0" fill="#78a4ca" fill-rule="evenodd" stroke="none"/>
    <path d="M-1.7 2.0 L-1.75 2.0 -1.85 1.95 -1.85 1.9 -1.8 1.85 -1.7 1.9 Q-1.65 1.9 -1.7 2.0" fill="#6a9bbc" fill-rule="evenodd" stroke="none"/>
    <path d="M-1.35 2.2 L-1.8 2.2 Q-1.8 2.1 -1.85 2.05 L-1.8 2.05 -1.75 2.1 -1.7 2.1 -1.55 2.05 -1.4 2.05 -1.35 2.2" fill="#a1ceea" fill-rule="evenodd" stroke="none"/>
    <path d="M-0.95 2.2 L-1.1 2.2 Q-1.05 2.0 -1.15 1.95 L-1.2 1.95 -1.3 1.95 -1.25 2.1 -1.2 2.2 -1.35 2.2 -1.4 2.05 -1.55 2.05 -1.7 2.1 -1.75 2.1 -1.8 2.05 -1.65 2.05 -1.55 2.05 -1.4 2.0 -1.2 1.9 -1.1 1.95 -1.0 1.95 Q-0.95 1.95 -0.95 1.85 L-0.9 1.9 -0.8 1.95 Q-0.9 1.95 -0.9 2.0 -0.9 2.1 -0.95 2.2" fill="#98c1ea" fill-rule="evenodd" stroke="none"/>
    <path d="M-1.8 2.2 L-1.85 2.2 -1.85 2.1 -2.0 2.05 -2.05 2.1 -2.05 2.15 -2.1 2.15 -2.1 2.1 -2.05 2.05 -1.95 2.0 -1.85 2.05 Q-1.8 2.1 -1.8 2.2" fill="#afd4e1" fill-rule="evenodd" stroke="none"/>
    <path d="M-1.85 2.2 L-2.0 2.2 -2.05 2.15 -2.05 2.1 -2.0 2.05 -1.85 2.1 -1.85 2.2" fill="#c4e3e9" fill-rule="evenodd" stroke="none"/>
    <path d="M-1.1 2.2 L-1.2 2.2 -1.25 2.1 -1.3 1.95 -1.2 1.95 -1.15 1.95 Q-1.05 2.0 -1.1 2.2" fill="#adcdec" fill-rule="evenodd" stroke="none"/>
    <path d="M-1.25 1.9 L-1.1 1.9 -1.0 1.9 Q-0.95 1.85 -1.0 1.85 L-1.0 1.75 -0.95 1.75 -0.95 1.8 -0.95 1.85 Q-0.95 1.95 -1.0 1.95 L-1.1 1.95 -1.2 1.9 -1.25 1.9" fill="#7eb2f0" fill-rule="evenodd" stroke="none"/>
    <path d="M-0.4 1.7 L-0.35 1.75 -0.5 1.8 -0.55 1.85 -0.65 1.9 -0.55 1.95 Q-0.55 2.05 -0.55 2.1 L-0.6 2.05 -0.6 1.95 -0.8 1.85 Q-0.9 1.8 -0.95 1.8 L-0.95 1.75 -0.9 1.75 -0.8 1.8 -0.75 1.75 -0.75 1.7 -0.75 1.65 -0.7 1.75 -0.65 1.8 -0.6 1.75 -0.55 1.7 -0.5 1.7 -0.4 1.7 -0.4 1.7" fill="#8bc3e0" fill-rule="evenodd" stroke="none"/>
    <path d="M-0.5 1.4 Q-0.5 1.6 -0.4 1.7 L-0.5 1.7 -0.55 1.7 -0.6 1.75 -0.65 1.8 -0.7 1.75 -0.75 1.65 -0.7 1.55 -0.7 1.4 Q-0.7 1.3 -0.65 1.35 L-0.6 1.4 -0.5 1.4 M-0.4 1.7 L-0.4 1.7" fill="#9acfeb" fill-rule="evenodd" stroke="none"/>
    <path d="M0.0 1.85 L0.0 2.0 -0.15 2.05 -0.25 2.0 -0.35 2.0 Q-0.45 1.95 -0.45 1.85 L-0.35 1.75 -0.3 1.75 Q-0.25 1.8 -0.2 1.8 L-0.1 1.8 Q-0.05 1.8 0.0 1.85 M-0.3 1.8 Q-0.35 1.8 -0.35 1.8 L-0.4 1.9 -0.3 2.0 -0.25 1.95 -0.1 2.0 Q0.0 2.0 -0.05 1.85 -0.05 1.8 -0.15 1.85 L-0.2 1.9 -0.3 1.8" fill="#7faed3" fill-rule="evenodd" stroke="none"/>
    <path d="M-0.3 1.8 L-0.2 1.9 -0.15 1.85 Q-0.05 1.8 -0.05 1.85 0.0 2.0 -0.1 2.0 L-0.25 1.95 -0.3 2.0 -0.4 1.9 -0.35 1.8 Q-0.35 1.8 -0.3 1.8" fill="#76a2c6" fill-rule="evenodd" stroke="none"/>
    <path d="M-0.4 1.7 L-0.25 1.75 -0.1 1.7 -0.05 1.75 0.0 1.85 Q-0.05 1.8 -0.1 1.8 L-0.2 1.8 Q-0.25 1.8 -0.3 1.75 L-0.35 1.75 -0.4 1.7" fill="#86b4e2" fill-rule="evenodd" stroke="none"/>
    <path d="M-0.6 1.2 L-0.6 1.3 -0.65 1.35 Q-0.7 1.3 -0.7 1.4 L-0.7 1.55 -0.75 1.65 -0.75 1.7 -0.8 1.65 -0.75 1.5 Q-0.7 1.4 -0.75 1.35 L-0.7 1.3 -0.65 1.3 -0.6 1.2" fill="#82b7e8" fill-rule="evenodd" stroke="none"/>
    <path d="M-0.75 1.35 Q-0.7 1.4 -0.75 1.5 L-0.8 1.65 -0.8 1.5 -0.75 1.35 -0.75 1.35 M-0.8 1.65 L-0.8 1.65 -0.8 1.65" fill="#63a7f1" fill-rule="evenodd" stroke="none"/>
    <path d="M-0.9 1.3 L-0.9 1.3 -0.9 1.3 -0.8 1.3 -0.8 1.4 -0.8 1.4 -0.9 1.5 -0.9 1.6 -0.85 1.65 -0.85 1.65 -0.9 1.65 -0.95 1.55 -0.95 1.55 -1.0 1.55 -0.95 1.5 -0.9 1.5 -0.9 1.5 Q-0.85 1.45 -0.85 1.35 L-0.85 1.3 -0.9 1.3" fill="#2561c5" fill-rule="evenodd" stroke="none"/>
    <path d="M-0.9 1.3 L-0.9 1.25 -0.85 1.25 -0.8 1.3 -0.9 1.3 -0.9 1.3" fill="#1d369b" fill-rule="evenodd" stroke="none"/>
    <path d="M-0.8 1.4 L-0.75 1.35 -0.8 1.5 -0.8 1.65 -0.85 1.65 -0.9 1.6 -0.85 1.5 Q-0.8 1.45 -0.8 1.4 L-0.8 1.4" fill="#4597f1" fill-rule="evenodd" stroke="none"/>
    <path d="M-0.8 1.4 Q-0.8 1.45 -0.85 1.5 L-0.9 1.6 -0.9 1.5 -0.8 1.4" fill="#3184ea" fill-rule="evenodd" stroke="none"/>
    <path d="M-1.05 1.75 Q-1.05 1.65 -0.95 1.7 -0.9 1.7 -0.85 1.65 L-0.85 1.65 Q-0.8 1.7 -0.9 1.7 L-1.05 1.75" fill="#466499" fill-rule="evenodd" stroke="none"/>
    <path d="M-1.0 1.75 L-1.05 1.75 -0.8 1.75 -0.8 1.65 -0.75 1.7 -0.75 1.75 -0.8 1.8 -0.9 1.75 -0.95 1.75 -1.0 1.75 M-0.8 1.65 L-0.8 1.65" fill="#709dc6" fill-rule="evenodd" stroke="none"/>
    <path d="M-0.95 1.8 Q-0.9 1.8 -0.8 1.85 L-0.6 1.95 -0.6 2.05 -0.7 2.05 -0.8 1.95 -0.9 1.9 -0.95 1.85 -0.95 1.8" fill="#9dcfec" fill-rule="evenodd" stroke="none"/>
    <path d="M-0.35 1.75 L-0.45 1.85 Q-0.45 1.95 -0.35 2.0 L-0.45 2.0 -0.45 2.1 -0.55 2.1 Q-0.55 2.05 -0.55 1.95 L-0.65 1.9 -0.55 1.85 -0.5 1.8 -0.35 1.75 M-0.45 2.1 L-0.45 2.1" fill="#84badc" fill-rule="evenodd" stroke="none"/>
    <path d="M-0.4 2.2 L-0.75 2.2 -0.75 2.1 Q-0.75 2.05 -0.75 2.05 -0.8 2.0 -0.85 2.05 L-0.9 2.2 -0.95 2.2 Q-0.9 2.1 -0.9 2.0 -0.9 1.95 -0.8 1.95 L-0.7 2.05 -0.6 2.05 -0.55 2.1 -0.45 2.1 -0.4 2.2" fill="#7fb3f7" fill-rule="evenodd" stroke="none"/>
    <path d="M-0.75 2.2 L-0.9 2.2 -0.85 2.05 Q-0.8 2.0 -0.75 2.05 -0.75 2.05 -0.75 2.1 L-0.75 2.2" fill="#629afb" fill-rule="evenodd" stroke="none"/>
    <path d="M-0.15 2.05 L-0.15 2.05 -0.2 2.05 -0.35 2.05 -0.4 2.05 -0.45 2.1 -0.45 2.0 -0.35 2.0 -0.25 2.0 -0.15 2.05" fill="#9bc4d7" fill-rule="evenodd" stroke="none"/>
    <path d="M0.0 2.2 L-0.25 2.2 -0.2 2.1 Q-0.15 2.1 -0.2 2.05 L-0.15 2.05 -0.05 2.1 0.0 2.2" fill="#a3d6eb" fill-rule="evenodd" stroke="none"/>
    <path d="M-0.25 2.2 L-0.3 2.2 -0.4 2.1 Q-0.4 2.05 -0.35 2.05 L-0.2 2.05 Q-0.15 2.1 -0.2 2.1 L-0.25 2.2" fill="#bddbe8" fill-rule="evenodd" stroke="none"/>
    <path d="M-0.3 2.2 L-0.4 2.2 -0.45 2.1 -0.45 2.1 -0.4 2.05 -0.35 2.05 Q-0.4 2.05 -0.4 2.1 L-0.3 2.2" fill="#a5cdee" fill-rule="evenodd" stroke="none"/>
    <path d="M-2.1 0.15 L-2.05 0.05 -2.0 0.1 -2.15 0.35 -2.15 0.25 -2.1 0.2 -2.1 0.15 M-2.15 0.35 L-2.15 0.35" fill="#839db2" fill-rule="evenodd" stroke="none"/>
    <path d="M-2.2 0.35 L-2.2 0.15 -2.1 0.2 -2.15 0.25 -2.15 0.35 -2.2 0.35" fill="#9fc1db" fill-rule="evenodd" stroke="none"/>
    <path d="M-2.2 1.7 L-2.2 1.35 -2.1 1.55 -2.05 1.7 -2.1 1.75 -2.2 1.7" fill="#97d1eb" fill-rule="evenodd" stroke="none"/>
    <path d="M-2.2 1.85 L-2.2 1.7 -2.1 1.75 -2.05 1.75 -2.1 1.9 -2.2 1.85" fill="#83c3e5" fill-rule="evenodd" stroke="none"/>
    <path d="M-2.0 2.2 L-2.2 2.2 -2.2 2.05 -2.1 2.05 -2.05 2.0 Q-2.0 2.0 -1.95 2.0 L-2.05 2.05 -2.1 2.1 -2.1 2.15 -2.05 2.15 -2.0 2.2" fill="#9ccae5" fill-rule="evenodd" stroke="none"/>
  </g>
</svg>
