<?xml version="1.0" encoding="UTF-8" standalone="no"?>
<svg xmlns:xlink="http://www.w3.org/1999/xlink" height="4.4px" width="4.4px" xmlns="http://www.w3.org/2000/svg">
  <g transform="matrix(1.0, 0.0, 0.0, 1.0, 2.2, 2.2)">
    <path d="M1.9 -1.8 L1.85 -1.75 1.85 -1.75 1.8 -1.9 Q1.75 -1.95 1.8 -2.05 L1.85 -1.9 1.9 -1.8" fill="#3a92ab" fill-rule="evenodd" stroke="none"/>
    <path d="M1.75 -2.05 L1.6 -1.9 1.3 -1.65 1.0 -1.4 0.85 -1.5 0.65 -1.5 0.7 -1.6 Q0.75 -1.7 0.7 -1.75 0.65 -1.9 0.5 -1.9 0.35 -1.9 0.3 -1.8 L0.3 -1.75 Q0.25 -1.65 0.3 -1.6 L0.45 -1.45 0.2 -1.35 Q0.1 -1.35 0.0 -1.4 L-0.05 -1.4 -0.1 -1.35 -0.2 -1.4 -0.35 -1.5 -0.35 -1.55 -0.1 -1.6 0.15 -1.65 0.2 -1.75 0.2 -2.05 0.25 -2.2 2.2 -2.2 2.2 -1.4 2.1 -1.5 2.05 -1.55 1.95 -1.45 1.9 -1.35 1.9 -1.75 1.9 -1.8 1.85 -1.9 1.8 -2.05 1.8 -2.1 1.75 -2.05" fill="#c3eaf5" fill-rule="evenodd" stroke="none"/>
    <path d="M1.6 -1.9 L1.65 -1.9 1.65 -1.9 1.75 -1.7 Q1.8 -1.6 1.75 -1.5 L1.65 -1.5 Q1.55 -1.5 1.5 -1.55 L1.45 -1.65 1.35 -1.65 1.5 -1.8 1.6 -1.9 M1.5 -1.55 L1.5 -1.55" fill="#48b6d3" fill-rule="evenodd" stroke="none"/>
    <path d="M1.75 -1.5 Q1.8 -1.6 1.75 -1.7 L1.65 -1.9 1.65 -1.9 1.6 -1.9 1.75 -2.05 1.75 -1.75 1.8 -1.45 1.8 -1.35 1.75 -1.35 1.75 -1.5" fill="#3c9bb4" fill-rule="evenodd" stroke="none"/>
    <path d="M1.6 -1.9 L1.5 -1.8 1.35 -1.65 1.15 -1.5 Q1.05 -1.4 1.0 -1.4 L1.3 -1.65 1.6 -1.9" fill="#3f95b5" fill-rule="evenodd" stroke="none"/>
    <path d="M1.35 -1.65 L1.45 -1.65 1.5 -1.55 1.35 -1.55 1.25 -1.45 Q1.15 -1.4 1.25 -1.25 L1.2 -1.15 1.15 -1.05 1.05 -1.1 Q1.0 -1.1 1.0 -1.15 L0.95 -1.1 Q0.95 -1.0 0.85 -1.05 0.8 -1.05 0.75 -1.0 0.7 -0.95 0.8 -0.9 L0.7 -0.8 0.65 -0.8 Q0.6 -0.85 0.6 -0.9 L0.6 -1.05 Q0.6 -1.15 0.75 -1.25 L0.85 -1.3 1.0 -1.4 Q1.05 -1.4 1.15 -1.5 L1.35 -1.65" fill="#60cce7" fill-rule="evenodd" stroke="none"/>
    <path d="M1.5 -1.55 L1.5 -1.55 1.55 -1.45 1.6 -1.35 Q1.65 -1.25 1.55 -1.2 L1.5 -1.05 1.35 -1.0 1.35 -1.15 1.25 -1.15 Q1.15 -1.15 1.2 -1.05 L1.15 -1.05 1.2 -1.15 1.25 -1.25 Q1.15 -1.4 1.25 -1.45 L1.35 -1.55 1.5 -1.55 M1.35 -1.15 Q1.45 -1.05 1.45 -1.15 L1.5 -1.35 1.45 -1.45 1.4 -1.45 Q1.3 -1.45 1.3 -1.4 1.25 -1.35 1.3 -1.3 L1.35 -1.2 1.35 -1.15" fill="#87faff" fill-rule="evenodd" stroke="none"/>
    <path d="M1.35 -1.15 L1.35 -1.2 1.3 -1.3 Q1.25 -1.35 1.3 -1.4 1.3 -1.45 1.4 -1.45 L1.45 -1.45 1.5 -1.35 1.45 -1.15 Q1.45 -1.05 1.35 -1.15" fill="#f5ffff" fill-rule="evenodd" stroke="none"/>
    <path d="M1.9 -1.75 L1.9 -1.35 1.9 -1.15 1.9 -1.5 1.9 -1.75" fill="#8cc3dc" fill-rule="evenodd" stroke="none"/>
    <path d="M1.8 -1.35 L1.8 -1.45 1.8 -1.6 Q1.8 -1.7 1.85 -1.65 L1.85 -1.6 Q1.85 -1.55 1.9 -1.5 L1.9 -1.15 1.85 -1.0 1.8 -1.0 1.8 -1.35" fill="#1b525f" fill-rule="evenodd" stroke="none"/>
    <path d="M1.75 -1.5 L1.75 -1.35 Q1.7 -1.3 1.7 -1.2 L1.65 -1.0 1.6 -1.0 1.55 -1.0 1.65 -0.8 1.6 -0.65 Q1.55 -0.6 1.5 -0.65 L1.45 -0.65 1.45 -0.6 1.5 -0.55 1.55 -0.6 Q1.65 -0.6 1.6 -0.45 L1.6 -0.3 1.6 -0.2 1.5 -0.2 Q1.5 -0.15 1.45 -0.1 L1.25 -0.05 1.2 0.0 Q1.15 0.05 1.15 0.05 1.05 0.1 1.1 0.15 1.05 0.2 1.05 0.3 L1.05 0.45 0.95 0.55 Q0.9 0.6 1.0 0.6 1.05 0.65 1.1 0.6 L1.1 0.45 1.2 0.35 1.25 0.3 1.15 0.3 1.3 0.15 Q1.4 0.05 1.5 0.05 1.5 0.15 1.4 0.3 1.25 0.45 1.25 0.55 L1.2 0.6 1.15 0.6 1.05 0.7 Q0.95 0.7 1.0 0.75 L1.05 0.9 Q1.0 1.0 0.95 0.95 L0.85 0.75 Q0.8 0.65 0.8 0.6 0.85 0.45 0.8 0.5 L0.7 0.4 0.6 0.4 0.6 0.35 0.65 0.35 0.75 0.2 0.75 0.0 0.7 0.0 Q0.75 -0.05 0.7 -0.15 0.65 -0.25 0.65 -0.25 0.6 -0.2 0.6 -0.25 L0.55 -0.3 0.55 -0.35 0.6 -0.35 0.7 -0.35 Q0.8 -0.35 0.8 -0.25 0.9 -0.25 0.9 -0.4 0.9 -0.55 0.95 -0.6 L1.0 -0.75 1.1 -0.9 1.3 -1.0 1.35 -1.0 1.5 -1.05 1.55 -1.2 Q1.65 -1.25 1.6 -1.35 L1.55 -1.45 1.5 -1.55 Q1.55 -1.5 1.65 -1.5 L1.75 -1.5 M1.15 -0.55 Q1.1 -0.5 1.15 -0.45 L1.25 -0.4 Q1.2 -0.35 1.3 -0.35 L1.4 -0.35 Q1.45 -0.4 1.35 -0.45 L1.2 -0.55 1.15 -0.55" fill="#5bc3df" fill-rule="evenodd" stroke="none"/>
    <path d="M1.9 -1.15 L1.9 -1.35 1.95 -1.45 2.05 -1.55 2.1 -1.5 2.2 -1.4 2.2 -1.15 Q2.05 -1.2 2.0 -1.1 L1.9 -0.85 1.9 -1.15 1.9 -1.15" fill="#d8f3f9" fill-rule="evenodd" stroke="none"/>
    <path d="M1.75 -1.35 L1.8 -1.35 1.8 -1.0 1.75 -0.95 1.75 0.0 1.75 -0.9 1.75 -1.35" fill="#2d7e94" fill-rule="evenodd" stroke="none"/>
    <path d="M0.25 -2.2 L0.2 -2.05 0.2 -1.75 0.15 -1.65 -0.1 -1.6 -0.35 -1.55 -0.35 -1.5 -0.95 -1.75 Q-1.05 -1.8 -1.05 -1.75 L-1.1 -1.65 -1.3 -1.65 -1.45 -1.75 -1.75 -1.7 -1.85 -1.8 -1.85 -1.75 -1.95 -1.65 -2.05 -1.65 -2.05 -1.5 -2.1 -1.6 -2.2 -1.55 -2.2 -2.2 -0.75 -2.2 -0.7 -2.0 Q-0.8 -2.0 -0.8 -1.9 -0.8 -1.8 -0.75 -1.75 -0.6 -1.7 -0.55 -1.8 L-0.55 -1.95 Q-0.55 -2.0 -0.6 -2.0 -0.55 -2.05 -0.5 -2.05 -0.45 -2.1 -0.45 -2.2 L0.25 -2.2 M-0.35 -1.95 Q-0.3 -2.0 -0.35 -2.05 L-0.45 -2.1 Q-0.5 -2.05 -0.45 -2.0 -0.45 -1.9 -0.35 -1.95 M-1.6 -2.0 L-1.75 -2.1 -1.95 -2.15 Q-1.8 -2.05 -1.6 -2.0 M-1.1 -1.65 L-1.1 -1.65" fill="#b7e1f0" fill-rule="evenodd" stroke="none"/>
    <path d="M0.3 -1.75 L0.3 -1.8 0.4 -1.85 0.55 -1.85 Q0.65 -1.8 0.65 -1.7 0.65 -1.55 0.5 -1.55 0.4 -1.5 0.35 -1.6 L0.3 -1.75" fill="#f8ffff" fill-rule="evenodd" stroke="none"/>
    <path d="M-0.1 -1.35 L-0.05 -1.4 0.0 -1.4 Q0.1 -1.35 0.2 -1.35 L0.45 -1.45 0.3 -1.6 Q0.25 -1.65 0.3 -1.75 L0.35 -1.6 Q0.4 -1.5 0.5 -1.55 0.65 -1.55 0.65 -1.7 0.65 -1.8 0.55 -1.85 L0.4 -1.85 0.3 -1.8 Q0.35 -1.9 0.5 -1.9 0.65 -1.9 0.7 -1.75 0.75 -1.7 0.7 -1.6 L0.65 -1.5 0.85 -1.5 1.0 -1.4 0.85 -1.3 0.75 -1.25 Q0.6 -1.15 0.6 -1.05 L0.6 -1.0 0.55 -1.0 0.45 -1.0 0.4 -1.1 0.3 -1.15 -0.1 -1.35" fill="#d3f4fa" fill-rule="evenodd" stroke="none"/>
    <path d="M1.15 -1.05 L1.2 -1.05 1.3 -1.0 1.1 -0.9 1.0 -0.75 0.95 -0.6 Q0.9 -0.55 0.9 -0.4 0.9 -0.25 0.8 -0.25 0.8 -0.35 0.7 -0.35 L0.8 -0.45 Q0.8 -0.5 0.75 -0.55 L0.8 -0.7 0.8 -0.9 Q0.7 -0.95 0.75 -1.0 0.8 -1.05 0.85 -1.05 0.95 -1.0 0.95 -1.1 L1.0 -1.15 Q1.0 -1.1 1.05 -1.1 L1.15 -1.05 M0.8 -1.0 Q0.75 -1.0 0.8 -0.95 0.8 -0.9 0.85 -0.9 0.9 -0.9 0.9 -0.95 0.85 -1.05 0.8 -1.0" fill="#76d9ed" fill-rule="evenodd" stroke="none"/>
    <path d="M0.8 -1.0 Q0.85 -1.05 0.9 -0.95 0.9 -0.9 0.85 -0.9 0.8 -0.9 0.8 -0.95 0.75 -1.0 0.8 -1.0" fill="#eaffff" fill-rule="evenodd" stroke="none"/>
    <path d="M0.8 -0.9 L0.8 -0.7 0.75 -0.55 0.6 -0.5 0.5 -0.5 0.45 -0.55 0.55 -0.7 0.55 -0.85 0.5 -0.85 0.4 -0.85 Q0.4 -0.9 0.4 -0.9 L0.45 -0.9 Q0.6 -0.9 0.6 -1.0 L0.6 -1.05 0.6 -0.9 Q0.6 -0.85 0.65 -0.8 L0.7 -0.8 0.8 -0.9" fill="#4eb4d2" fill-rule="evenodd" stroke="none"/>
    <path d="M-0.2 -1.4 L-0.1 -1.35 0.3 -1.15 0.4 -1.1 0.45 -1.0 0.55 -1.0 0.6 -1.0 Q0.6 -0.9 0.45 -0.9 L0.4 -0.9 Q0.4 -0.9 0.4 -0.85 L0.5 -0.85 0.55 -0.85 0.55 -0.7 0.45 -0.55 Q0.35 -0.65 0.25 -0.55 L0.2 -0.45 0.2 -0.3 0.1 -0.35 Q0.1 -0.35 0.15 -0.25 0.05 -0.25 0.05 -0.25 L0.1 -0.15 0.1 -0.2 0.15 -0.2 0.2 -0.2 0.2 -0.25 0.25 -0.2 0.3 -0.15 0.2 -0.15 0.1 -0.1 0.2 -0.1 0.2 0.0 0.15 -0.05 Q0.2 -0.05 0.1 -0.1 L0.0 -0.1 -0.1 -0.1 Q-0.15 -0.1 -0.2 -0.05 L-0.3 -0.1 -0.3 -0.1 -0.25 -0.1 Q-0.2 -0.1 -0.25 -0.15 L-0.25 -0.2 -0.2 -0.2 Q-0.1 -0.2 -0.1 -0.25 -0.15 -0.35 -0.2 -0.35 L-0.3 -0.4 -0.35 -0.5 -0.25 -0.45 Q-0.2 -0.45 -0.2 -0.5 L-0.15 -0.5 Q-0.05 -0.45 -0.1 -0.5 L-0.45 -0.7 -0.35 -0.8 -0.3 -0.8 Q-0.25 -0.8 -0.25 -0.9 L-0.3 -1.05 Q-0.4 -1.0 -0.5 -1.05 -0.6 -1.1 -0.55 -1.2 L-0.6 -1.1 Q-0.65 -1.15 -0.6 -1.2 L-0.65 -1.1 -0.65 -1.05 -0.7 -1.0 -0.8 -0.95 -0.85 -0.9 Q-0.85 -0.9 -0.8 -0.85 L-0.85 -0.8 Q-0.85 -0.75 -0.9 -0.75 L-0.9 -0.7 -0.9 -0.6 -0.95 -0.55 -1.05 -0.6 -1.05 -0.65 Q-1.05 -0.7 -1.0 -0.7 L-1.0 -0.8 Q-1.05 -0.85 -1.15 -0.8 L-1.2 -0.85 -1.15 -0.95 -1.1 -1.05 -1.15 -1.15 -1.1 -1.35 Q-1.05 -1.4 -1.05 -1.3 L-1.0 -1.25 -0.95 -1.25 Q-1.0 -1.3 -0.95 -1.4 -0.9 -1.5 -0.95 -1.55 L-0.75 -1.45 -0.65 -1.35 Q-0.55 -1.3 -0.5 -1.3 L-0.4 -1.25 -0.3 -1.15 -0.15 -1.15 -0.05 -1.1 0.0 -1.1 0.05 -1.05 Q0.1 -1.0 0.15 -1.05 L0.15 -1.0 0.2 -0.9 0.4 -0.95 0.35 -1.0 0.25 -1.0 0.2 -1.05 0.15 -1.05 0.0 -1.2 -0.15 -1.3 -0.2 -1.4 M-0.5 -1.3 L-0.5 -1.3 M0.2 -0.6 L0.1 -0.65 Q0.1 -0.6 0.1 -0.55 L0.2 -0.55 0.2 -0.6" fill="#77d4ea" fill-rule="evenodd" stroke="none"/>
    <path d="M0.15 -1.05 L0.2 -1.05 0.25 -1.0 0.35 -1.0 0.4 -0.95 0.2 -0.9 0.15 -1.0 0.15 -1.05" fill="#50b2d1" fill-rule="evenodd" stroke="none"/>
    <path d="M0.15 -1.05 Q0.1 -1.0 0.05 -1.05 L0.0 -1.1 -0.05 -1.1 -0.15 -1.15 -0.3 -1.15 -0.4 -1.25 -0.5 -1.3 -0.4 -1.25 Q-0.35 -1.25 -0.35 -1.3 L-0.25 -1.35 -0.15 -1.3 0.0 -1.2 0.15 -1.05" fill="#55b9d8" fill-rule="evenodd" stroke="none"/>
    <path d="M0.2 -0.6 L0.2 -0.55 0.1 -0.55 Q0.1 -0.6 0.1 -0.65 L0.2 -0.6" fill="#e5ffff" fill-rule="evenodd" stroke="none"/>
    <path d="M0.75 -0.55 Q0.8 -0.5 0.8 -0.45 L0.7 -0.35 0.6 -0.35 0.55 -0.35 0.55 -0.3 0.6 -0.25 Q0.6 -0.2 0.65 -0.25 0.65 -0.25 0.7 -0.15 0.75 -0.05 0.7 0.0 0.65 0.0 0.6 0.0 L0.5 -0.05 0.5 -0.1 0.45 -0.05 0.4 -0.1 0.3 -0.15 0.25 -0.2 0.2 -0.25 0.2 -0.3 0.2 -0.45 0.25 -0.55 Q0.35 -0.65 0.45 -0.55 L0.5 -0.5 0.6 -0.5 0.75 -0.55 M0.4 -0.5 Q0.3 -0.5 0.25 -0.45 0.25 -0.4 0.25 -0.3 L0.3 -0.2 Q0.35 -0.15 0.45 -0.15 L0.5 -0.35 Q0.5 -0.5 0.4 -0.5 M0.7 -0.4 L0.75 -0.45 0.6 -0.5 Q0.55 -0.4 0.6 -0.35 L0.7 -0.4 M0.55 -0.05 Q0.6 0.0 0.65 0.0 L0.65 -0.15 0.55 -0.15 0.55 -0.05" fill="#83f6fe" fill-rule="evenodd" stroke="none"/>
    <path d="M0.4 -0.5 Q0.5 -0.5 0.5 -0.35 L0.45 -0.15 Q0.35 -0.15 0.3 -0.2 L0.25 -0.3 Q0.25 -0.4 0.25 -0.45 0.3 -0.5 0.4 -0.5 M0.55 -0.05 L0.55 -0.15 0.65 -0.15 0.65 0.0 Q0.6 0.0 0.55 -0.05 M-0.6 -1.9 Q-0.6 -1.85 -0.6 -1.8 L-0.65 -1.75 -0.75 -1.85 -0.75 -1.95 -0.65 -1.95 -0.6 -1.9" fill="#f9ffff" fill-rule="evenodd" stroke="none"/>
    <path d="M0.2 -0.25 L0.2 -0.2 0.15 -0.2 0.1 -0.2 0.1 -0.15 0.05 -0.25 Q0.05 -0.25 0.15 -0.25 0.1 -0.35 0.1 -0.35 L0.2 -0.3 0.2 -0.25" fill="#4babc9" fill-rule="evenodd" stroke="none"/>
    <path d="M-1.15 -1.15 L-1.1 -1.05 -1.15 -0.95 -1.2 -0.85 -1.15 -0.8 Q-1.05 -0.85 -1.0 -0.8 L-1.0 -0.7 Q-1.05 -0.7 -1.05 -0.65 L-1.05 -0.6 -0.95 -0.55 -0.9 -0.6 -0.9 -0.7 Q-0.85 -0.65 -0.85 -0.55 -0.85 -0.45 -0.8 -0.45 L-0.75 -0.45 -0.7 -0.5 Q-0.7 -0.55 -0.6 -0.55 L-0.55 -0.55 -0.55 -0.55 Q-0.6 -0.6 -0.55 -0.65 L-0.45 -0.7 -0.1 -0.5 Q-0.05 -0.45 -0.15 -0.5 L-0.2 -0.5 Q-0.2 -0.45 -0.25 -0.45 L-0.35 -0.5 -0.3 -0.4 -0.2 -0.35 Q-0.15 -0.35 -0.1 -0.25 -0.1 -0.2 -0.2 -0.2 L-0.35 -0.3 -0.35 -0.35 Q-0.35 -0.4 -0.4 -0.35 L-0.45 -0.2 -0.55 -0.2 -0.55 -0.2 -0.7 -0.25 Q-0.8 -0.25 -0.85 -0.2 -0.9 -0.15 -0.85 -0.1 L-0.8 0.0 -0.85 0.1 -0.8 0.1 -0.65 0.05 Q-0.55 0.05 -0.55 0.0 L-0.45 0.05 Q-0.4 0.05 -0.4 0.1 L-0.35 0.05 -0.35 -0.15 -0.25 -0.2 -0.25 -0.15 Q-0.2 -0.1 -0.25 -0.1 L-0.3 -0.1 -0.3 -0.1 -0.2 -0.05 Q-0.15 -0.1 -0.1 -0.1 L0.0 -0.1 0.1 -0.1 Q0.2 -0.05 0.15 -0.05 L0.1 0.0 0.0 0.05 -0.05 0.0 -0.15 -0.05 -0.2 0.1 -0.25 0.2 -0.15 0.3 Q-0.05 0.3 -0.05 0.2 L0.0 0.15 0.0 0.1 0.1 0.15 Q0.15 0.2 0.2 0.15 L0.2 0.0 0.2 -0.1 0.1 -0.1 0.2 -0.15 0.3 -0.15 0.4 -0.1 0.45 -0.05 0.5 -0.1 0.5 -0.05 0.55 0.1 Q0.55 0.2 0.5 0.25 L0.4 0.35 0.3 0.3 Q0.25 0.3 0.3 0.2 L0.2 0.25 0.15 0.2 Q0.05 0.25 0.05 0.3 0.05 0.4 0.15 0.45 L0.15 0.55 0.05 0.65 0.1 0.7 0.15 0.75 Q0.1 0.75 0.0 0.7 L0.0 0.65 Q-0.05 0.65 -0.05 0.7 L-0.15 0.65 -0.2 0.65 -0.35 0.7 -0.25 0.75 Q-0.2 0.75 -0.25 0.75 L-0.3 0.75 Q-0.25 0.8 -0.25 0.9 L-0.3 1.0 -0.45 0.95 -0.5 0.9 -0.55 0.85 -0.45 0.85 Q-0.45 0.85 -0.5 0.8 L-0.4 0.8 -0.45 0.75 Q-0.45 0.7 -0.4 0.7 L-0.3 0.65 -0.35 0.5 Q-0.35 0.45 -0.4 0.4 L-0.55 0.4 -0.7 0.5 -0.75 0.5 -0.75 0.35 Q-0.75 0.35 -0.85 0.3 -0.75 0.3 -0.8 0.25 L-0.95 0.2 -0.9 0.15 -0.9 0.15 Q-1.0 0.15 -1.05 0.2 -1.1 0.2 -1.15 0.25 L-1.2 0.3 -1.2 0.4 Q-1.15 0.45 -1.2 0.5 L-1.3 0.55 -1.35 0.6 -1.35 0.3 -1.25 -0.4 -1.15 -1.15 M0.5 0.1 Q0.45 0.0 0.35 0.05 0.25 0.1 0.3 0.2 L0.45 0.2 0.5 0.1" fill="#61c4e0" fill-rule="evenodd" stroke="none"/>
    <path d="M0.7 -0.4 L0.6 -0.35 Q0.55 -0.4 0.6 -0.5 L0.75 -0.45 0.7 -0.4 M1.3 -0.4 L1.3 -0.45 1.35 -0.4 Q1.35 -0.35 1.35 -0.35 1.3 -0.35 1.3 -0.4" fill="#ecffff" fill-rule="evenodd" stroke="none"/>
    <path d="M1.75 0.0 L1.75 -0.95 1.8 -1.0 1.85 -1.0 1.85 0.35 1.85 0.3 1.75 0.25 1.75 0.0" fill="#0c3e44" fill-rule="evenodd" stroke="none"/>
    <path d="M1.85 -1.0 L1.9 -1.15 1.9 -0.85 1.9 0.25 1.9 0.55 1.85 0.55 1.85 0.45 1.85 0.35 1.85 -1.0" fill="#87b7cf" fill-rule="evenodd" stroke="none"/>
    <path d="M1.6 -0.3 L1.6 -0.45 Q1.65 -0.6 1.55 -0.6 L1.5 -0.55 1.45 -0.6 1.45 -0.65 1.5 -0.65 Q1.55 -0.6 1.6 -0.65 L1.65 -0.8 1.55 -1.0 1.6 -1.0 1.65 -1.0 1.7 -1.2 Q1.7 -1.3 1.75 -1.35 L1.75 -0.9 Q1.7 -0.8 1.7 -0.6 L1.7 -0.35 1.65 -0.3 1.6 -0.3" fill="#46b9d4" fill-rule="evenodd" stroke="none"/>
    <path d="M1.6 -0.2 L1.6 -0.3 1.65 -0.3 1.7 -0.35 1.7 -0.6 Q1.7 -0.8 1.75 -0.9 L1.75 0.0 1.75 0.25 1.65 0.5 1.55 0.8 0.9 1.3 0.7 1.35 Q0.75 1.25 0.85 1.2 L0.75 1.2 0.8 1.15 Q0.85 1.1 0.9 1.15 L1.05 1.1 Q1.1 1.05 1.05 1.0 L1.25 0.7 1.5 0.5 1.5 0.2 Q1.6 0.05 1.55 -0.05 L1.6 -0.15 1.6 -0.2" fill="#37a1b9" fill-rule="evenodd" stroke="none"/>
    <path d="M1.9 -0.85 L2.0 -1.1 Q2.05 -1.2 2.2 -1.15 L2.2 0.4 2.0 0.4 Q1.9 0.35 1.9 0.25 L1.9 -0.85" fill="#eefcfe" fill-rule="evenodd" stroke="none"/>
    <path d="M1.2 -1.05 Q1.15 -1.15 1.25 -1.15 L1.35 -1.15 1.35 -1.0 1.3 -1.0 1.2 -1.05" fill="#e0ffff" fill-rule="evenodd" stroke="none"/>
    <path d="M1.3 -0.4 Q1.3 -0.35 1.35 -0.35 1.35 -0.35 1.35 -0.4 L1.3 -0.45 1.3 -0.4 M1.2 -0.55 L1.35 -0.45 Q1.45 -0.4 1.4 -0.35 L1.3 -0.35 Q1.2 -0.35 1.25 -0.4 L1.15 -0.45 Q1.1 -0.5 1.15 -0.55 1.15 -0.5 1.2 -0.45 L1.2 -0.45 1.25 -0.5 1.2 -0.55 M-1.2 0.5 Q-1.15 0.45 -1.2 0.4 L-1.2 0.3 -1.15 0.25 Q-1.1 0.2 -1.05 0.2 -1.0 0.15 -0.9 0.15 L-0.9 0.15 -0.95 0.2 -0.8 0.25 Q-0.75 0.3 -0.85 0.3 -0.75 0.35 -0.75 0.35 L-0.75 0.5 -0.85 0.55 Q-0.9 0.55 -0.9 0.65 L-1.0 0.65 -1.1 0.55 -1.15 0.55 -1.2 0.5 M-0.85 0.4 L-0.9 0.3 Q-0.9 0.25 -0.95 0.25 L-1.05 0.25 -1.05 0.3 Q-1.15 0.35 -1.15 0.4 L-1.05 0.5 -0.95 0.5 -0.85 0.45 -0.8 0.45 Q-0.8 0.5 -0.75 0.45 -0.75 0.4 -0.85 0.4" fill="#7ff5fe" fill-rule="evenodd" stroke="none"/>
    <path d="M1.2 -0.55 L1.25 -0.5 1.2 -0.45 1.2 -0.45 Q1.15 -0.5 1.15 -0.55 L1.2 -0.55 M0.1 0.15 L0.1 0.0 Q0.2 0.0 0.15 0.1 0.15 0.15 0.1 0.15 M-0.8 0.1 L-0.85 0.1 -0.8 0.0 -0.8 0.1" fill="#f4ffff" fill-rule="evenodd" stroke="none"/>
    <path d="M0.8 0.5 Q0.85 0.45 0.8 0.6 0.8 0.65 0.85 0.75 L0.95 0.95 Q1.0 1.0 1.05 0.9 L1.0 0.75 Q0.95 0.7 1.05 0.7 L1.15 0.6 1.2 0.6 1.25 0.55 Q1.25 0.45 1.4 0.3 1.5 0.15 1.5 0.05 1.4 0.05 1.3 0.15 L1.15 0.3 1.25 0.3 1.2 0.35 1.1 0.45 1.1 0.6 Q1.05 0.65 1.0 0.6 0.9 0.6 0.95 0.55 L1.05 0.45 1.05 0.3 Q1.05 0.2 1.1 0.15 1.05 0.1 1.15 0.05 1.15 0.05 1.2 0.0 L1.25 -0.05 1.45 -0.1 Q1.5 -0.15 1.5 -0.2 L1.6 -0.2 1.6 -0.15 1.55 -0.05 Q1.6 0.05 1.5 0.2 L1.5 0.5 1.25 0.7 1.05 1.0 Q1.1 1.05 1.05 1.1 L0.9 1.15 Q0.85 1.1 0.8 1.15 L0.75 1.2 0.85 1.2 Q0.75 1.25 0.7 1.35 L0.6 1.4 0.65 1.3 Q0.7 1.2 0.65 1.15 0.55 1.15 0.55 1.1 0.5 1.05 0.5 1.0 0.5 1.05 0.6 1.05 0.7 1.05 0.7 0.95 0.75 0.85 0.65 0.8 0.6 0.8 0.5 0.85 L0.55 0.8 0.55 0.7 0.75 0.7 0.75 0.6 0.8 0.5" fill="#4db6d3" fill-rule="evenodd" stroke="none"/>
    <path d="M1.85 0.55 L1.9 0.55 Q2.0 0.95 1.9 1.3 1.85 1.35 1.9 1.35 L2.1 1.45 2.2 1.4 2.2 2.2 1.25 2.2 Q1.2 2.1 1.05 2.05 L0.8 1.95 0.9 1.95 Q1.0 1.95 0.95 1.9 0.95 1.85 0.85 1.85 L0.75 1.8 0.9 1.75 1.0 1.65 Q1.05 1.6 1.15 1.6 L1.3 1.55 1.5 1.45 1.7 1.35 1.7 1.3 Q1.85 1.2 1.9 1.0 L1.85 0.8 1.85 0.6 1.85 0.55 M1.6 1.75 L1.5 1.75 Q1.45 1.75 1.45 1.9 1.45 2.0 1.55 2.0 1.7 2.05 1.7 1.9 L1.7 1.8 1.65 1.7 1.6 1.75" fill="#b9e2f0" fill-rule="evenodd" stroke="none"/>
    <path d="M1.9 0.55 L1.9 0.25 Q1.9 0.35 2.0 0.4 L2.2 0.4 2.2 1.4 2.1 1.45 1.9 1.35 Q1.85 1.35 1.9 1.3 2.0 0.95 1.9 0.55" fill="#cfeff7" fill-rule="evenodd" stroke="none"/>
    <path d="M1.85 0.35 L1.85 0.45 1.8 0.65 1.65 0.85 1.55 0.8 1.65 0.5 1.75 0.25 1.85 0.3 1.85 0.35" fill="#145b6c" fill-rule="evenodd" stroke="none"/>
    <path d="M1.85 0.45 L1.85 0.55 1.85 0.6 1.85 0.95 Q1.85 1.2 1.7 1.3 L1.7 1.35 1.65 1.1 1.65 0.9 1.65 0.85 1.8 0.65 1.85 0.45" fill="#316b7f" fill-rule="evenodd" stroke="none"/>
    <path d="M1.7 1.35 L1.5 1.45 1.3 1.55 Q1.2 1.5 1.25 1.35 L1.25 1.15 1.45 1.0 1.65 0.9 1.65 1.1 1.7 1.35" fill="#225763" fill-rule="evenodd" stroke="none"/>
    <path d="M1.3 1.55 L1.15 1.6 Q1.05 1.6 1.0 1.65 L0.6 1.75 Q0.4 1.8 0.3 1.95 L0.3 1.85 0.4 1.75 Q0.45 1.7 0.4 1.6 0.45 1.55 0.55 1.55 L0.65 1.5 0.85 1.45 1.0 1.35 Q1.05 1.25 0.95 1.3 L0.9 1.35 0.9 1.3 1.55 0.8 1.65 0.85 1.65 0.9 1.45 1.0 1.25 1.15 1.25 1.35 Q1.2 1.5 1.3 1.55" fill="#0e3a42" fill-rule="evenodd" stroke="none"/>
    <path d="M1.85 0.6 L1.85 0.8 1.9 1.0 Q1.85 1.2 1.7 1.3 1.85 1.2 1.85 0.95 L1.85 0.6" fill="#75b0ca" fill-rule="evenodd" stroke="none"/>
    <path d="M0.7 0.0 L0.75 0.0 0.75 0.2 0.65 0.35 0.6 0.35 0.6 0.4 0.55 0.4 Q0.6 0.25 0.5 0.25 0.55 0.2 0.55 0.1 L0.5 -0.05 0.6 0.0 Q0.65 0.0 0.7 0.0" fill="#44a7c7" fill-rule="evenodd" stroke="none"/>
    <path d="M0.6 0.4 L0.7 0.4 0.8 0.5 0.75 0.6 0.75 0.7 0.55 0.7 0.55 0.6 0.7 0.6 Q0.75 0.55 0.7 0.5 0.65 0.45 0.6 0.45 L0.55 0.5 0.55 0.45 0.55 0.4 0.6 0.4 M0.55 0.55 L0.55 0.6 0.55 0.55" fill="#81f2fd" fill-rule="evenodd" stroke="none"/>
    <path d="M0.55 0.4 L0.55 0.45 Q0.5 0.4 0.5 0.4 0.45 0.45 0.45 0.5 0.45 0.55 0.45 0.6 L0.55 0.6 0.55 0.7 0.55 0.8 0.5 0.85 0.5 1.0 Q0.5 1.05 0.55 1.1 0.55 1.15 0.65 1.15 0.7 1.2 0.65 1.3 L0.6 1.4 0.6 1.45 Q0.55 1.45 0.55 1.45 L0.4 1.55 0.4 1.4 0.35 1.25 0.3 1.25 0.3 1.2 0.2 1.15 Q0.15 1.15 0.15 1.2 L0.1 1.15 0.15 1.15 0.0 1.1 -0.05 1.1 -0.1 1.05 0.0 1.05 0.05 1.0 0.1 1.05 0.15 1.0 0.15 0.95 0.05 0.95 0.1 0.8 Q0.15 0.8 0.25 0.8 0.3 0.85 0.2 0.85 L0.25 0.95 Q0.25 1.0 0.3 0.95 L0.4 1.05 Q0.4 1.15 0.45 1.15 L0.5 0.95 0.5 0.7 0.4 0.7 0.4 0.35 0.5 0.25 Q0.6 0.25 0.55 0.4" fill="#3993ae" fill-rule="evenodd" stroke="none"/>
    <path d="M0.6 0.45 Q0.65 0.45 0.7 0.5 0.75 0.55 0.7 0.6 L0.55 0.6 0.55 0.55 0.6 0.45" fill="#f3ffff" fill-rule="evenodd" stroke="none"/>
    <path d="M0.55 0.45 L0.55 0.5 0.55 0.6 0.45 0.6 Q0.45 0.55 0.45 0.5 0.45 0.45 0.5 0.4 0.5 0.4 0.55 0.45" fill="#4fb8d9" fill-rule="evenodd" stroke="none"/>
    <path d="M0.3 0.2 Q0.25 0.1 0.35 0.05 0.45 0.0 0.5 0.1 0.4 0.05 0.35 0.1 L0.3 0.2" fill="#82f6fe" fill-rule="evenodd" stroke="none"/>
    <path d="M0.5 0.1 L0.45 0.2 0.3 0.2 0.35 0.1 Q0.4 0.05 0.5 0.1" fill="#f1ffff" fill-rule="evenodd" stroke="none"/>
    <path d="M0.15 -0.05 L0.2 0.0 0.2 0.15 Q0.15 0.2 0.1 0.15 L0.0 0.1 0.0 0.15 -0.05 0.2 Q-0.05 0.3 -0.15 0.3 L-0.25 0.2 -0.2 0.1 -0.15 -0.05 -0.05 0.0 0.0 0.05 0.1 0.0 0.15 -0.05 M-0.05 0.2 L-0.05 0.15 -0.15 0.1 -0.15 0.2 Q-0.1 0.3 -0.05 0.2 M0.1 0.15 Q0.15 0.15 0.15 0.1 0.2 0.0 0.1 0.0 L0.1 0.15" fill="#8af2fc" fill-rule="evenodd" stroke="none"/>
    <path d="M0.4 0.35 L0.4 0.7 0.35 0.8 Q0.3 0.9 0.3 0.95 0.25 1.0 0.25 0.95 L0.2 0.85 Q0.3 0.85 0.25 0.8 0.15 0.8 0.1 0.8 L0.05 0.95 0.15 0.95 0.15 1.0 0.1 1.05 0.05 1.0 0.0 0.9 0.0 0.75 Q-0.05 0.75 -0.1 0.7 L-0.2 0.65 -0.15 0.65 -0.05 0.7 0.0 0.7 Q0.1 0.75 0.15 0.75 L0.1 0.7 0.05 0.65 0.15 0.55 0.15 0.45 Q0.05 0.4 0.05 0.3 0.05 0.25 0.15 0.2 L0.2 0.25 0.3 0.2 Q0.25 0.3 0.3 0.3 L0.4 0.35" fill="#469fbe" fill-rule="evenodd" stroke="none"/>
    <path d="M0.4 0.7 L0.5 0.7 0.5 0.95 0.45 1.15 Q0.4 1.15 0.4 1.05 L0.3 0.95 Q0.3 0.9 0.35 0.8 L0.4 0.7" fill="#28718c" fill-rule="evenodd" stroke="none"/>
    <path d="M-0.05 0.7 Q-0.05 0.65 0.0 0.65 L0.0 0.7 -0.05 0.7" fill="#b6feff" fill-rule="evenodd" stroke="none"/>
    <path d="M0.05 1.0 L0.0 1.05 -0.1 1.05 -0.05 1.1 0.0 1.1 0.15 1.15 0.1 1.15 0.15 1.2 Q0.15 1.15 0.2 1.15 L0.3 1.2 0.2 1.25 0.05 1.25 Q0.0 1.35 0.05 1.45 0.15 1.6 0.25 1.55 L0.3 1.55 0.35 1.6 0.2 1.65 0.05 1.55 Q0.0 1.5 -0.1 1.45 L-0.25 1.4 -0.35 1.35 -0.4 1.3 Q-0.2 1.25 -0.3 1.15 L-0.3 1.1 Q-0.35 1.05 -0.3 1.0 L-0.25 0.9 Q-0.25 0.8 -0.3 0.75 L-0.25 0.75 Q-0.2 0.75 -0.25 0.75 L-0.35 0.7 -0.2 0.65 -0.1 0.7 Q-0.05 0.75 0.0 0.75 L0.0 0.9 0.05 1.0" fill="#4fb0cf" fill-rule="evenodd" stroke="none"/>
    <path d="M0.3 1.2 L0.3 1.25 0.35 1.25 0.4 1.4 0.4 1.55 0.35 1.6 0.3 1.55 0.25 1.55 Q0.15 1.6 0.05 1.45 0.0 1.35 0.05 1.25 L0.2 1.25 0.3 1.2 M0.25 1.25 Q0.15 1.3 0.15 1.4 0.1 1.5 0.2 1.5 0.3 1.5 0.3 1.4 L0.25 1.25" fill="#74e9fb" fill-rule="evenodd" stroke="none"/>
    <path d="M0.5 1.0 L0.5 0.85 Q0.6 0.8 0.65 0.8 0.75 0.85 0.7 0.95 0.7 1.05 0.6 1.05 0.5 1.05 0.5 1.0 M0.65 0.9 Q0.65 0.85 0.55 0.9 0.5 0.9 0.55 0.95 L0.6 1.0 0.65 0.9" fill="#72f5fe" fill-rule="evenodd" stroke="none"/>
    <path d="M0.65 0.9 L0.6 1.0 0.55 0.95 Q0.5 0.9 0.55 0.9 0.65 0.85 0.65 0.9" fill="#eeffff" fill-rule="evenodd" stroke="none"/>
    <path d="M0.4 1.55 L0.55 1.45 Q0.55 1.45 0.6 1.45 L0.6 1.4 0.7 1.35 0.9 1.3 0.9 1.35 0.95 1.3 Q1.05 1.25 1.0 1.35 L0.85 1.45 0.65 1.5 0.55 1.55 Q0.45 1.55 0.4 1.6 0.45 1.7 0.4 1.75 L0.3 1.85 0.15 1.8 0.0 1.65 Q-0.1 1.55 0.05 1.55 L0.2 1.65 0.35 1.6 0.4 1.55" fill="#165b6b" fill-rule="evenodd" stroke="none"/>
    <path d="M1.0 1.65 L0.9 1.75 0.75 1.8 0.85 1.85 Q0.95 1.85 0.95 1.9 1.0 1.95 0.9 1.95 L0.8 1.95 1.05 2.05 Q1.2 2.1 1.25 2.2 L-2.2 2.2 -2.2 1.6 -2.15 1.65 -2.1 1.65 Q-2.05 1.65 -2.1 1.55 -2.1 1.45 -2.05 1.4 L-2.05 1.65 -2.05 1.75 -2.0 1.9 -1.65 2.0 -1.4 2.0 -1.35 2.0 -1.35 2.0 -1.25 2.0 -1.25 2.0 -1.2 2.05 -1.2 2.05 -1.15 2.05 -1.1 2.05 -0.85 2.05 -0.85 2.05 -0.7 2.05 -0.55 2.05 -0.4 2.1 -0.25 2.1 -0.15 2.1 Q-0.1 2.15 -0.1 2.1 L0.1 2.05 0.3 1.95 Q0.4 1.8 0.6 1.75 L1.0 1.65" fill="#acdaeb" fill-rule="evenodd" stroke="none"/>
    <path d="M0.25 1.25 L0.3 1.4 Q0.3 1.5 0.2 1.5 0.1 1.5 0.15 1.4 0.15 1.3 0.25 1.25" fill="#e6ffff" fill-rule="evenodd" stroke="none"/>
    <path d="M0.15 1.8 L0.05 1.8 -0.2 1.75 -0.45 1.65 Q-0.5 1.7 -0.6 1.6 -0.7 1.5 -0.75 1.55 L-0.85 1.55 Q-0.95 1.5 -0.95 1.55 L-0.85 1.6 Q-0.75 1.6 -0.75 1.7 L-1.0 1.7 -1.3 1.65 -1.45 1.55 Q-1.6 1.45 -1.65 1.45 L-1.7 1.45 -1.8 1.4 -1.75 1.45 -1.75 1.5 -1.8 1.55 -1.85 1.55 -1.85 1.4 Q-1.85 1.3 -1.95 1.3 L-1.9 1.15 -1.9 1.2 -1.8 1.25 Q-1.85 1.15 -1.8 1.1 L-1.8 1.0 Q-1.8 0.95 -1.75 1.0 L-1.7 1.15 -1.7 1.3 -1.6 1.3 -1.45 1.35 -1.3 1.35 Q-1.25 1.3 -1.3 1.3 L-1.4 1.25 Q-1.55 1.3 -1.55 1.2 L-1.4 1.25 -1.2 1.2 -1.15 1.25 -1.0 1.25 -0.9 1.25 -0.95 1.2 -1.05 1.1 -0.95 1.15 -0.8 1.15 Q-0.7 1.2 -0.55 1.3 L-0.5 1.35 Q-0.5 1.35 -0.5 1.4 L-0.4 1.5 -0.35 1.5 -0.3 1.45 -0.25 1.4 -0.1 1.45 Q0.0 1.5 0.05 1.55 -0.1 1.55 0.0 1.65 L0.15 1.8 M-0.5 1.4 L-0.5 1.4" fill="#1a677c" fill-rule="evenodd" stroke="none"/>
    <path d="M0.3 1.95 L0.1 2.05 -0.1 2.1 -0.15 2.05 Q-0.2 1.95 -0.35 1.95 L-0.5 1.95 -0.65 1.9 0.0 2.0 Q0.05 1.9 0.1 1.95 L0.2 1.95 0.1 1.9 Q0.0 1.85 0.05 1.8 L0.15 1.8 0.3 1.85 0.3 1.95 M-0.1 2.1 L-0.1 2.1" fill="#134955" fill-rule="evenodd" stroke="none"/>
    <path d="M-1.95 1.3 Q-1.85 1.3 -1.85 1.4 L-1.85 1.55 -1.8 1.55 -1.75 1.5 -1.75 1.45 -1.8 1.4 -1.7 1.45 -1.65 1.45 Q-1.6 1.45 -1.45 1.55 L-1.3 1.65 -1.0 1.7 -0.75 1.7 Q-0.75 1.6 -0.85 1.6 L-0.95 1.55 Q-0.95 1.5 -0.85 1.55 L-0.75 1.55 Q-0.7 1.5 -0.6 1.6 -0.5 1.7 -0.45 1.65 L-0.2 1.75 0.05 1.8 Q0.0 1.85 0.1 1.9 L0.2 1.95 0.1 1.95 Q0.05 1.9 0.0 2.0 L-0.65 1.9 -1.3 1.85 Q-1.65 1.75 -1.9 1.65 -2.0 1.6 -1.95 1.5 L-1.95 1.3" fill="#175b6d" fill-rule="evenodd" stroke="none"/>
    <path d="M1.6 1.75 L1.65 1.7 1.7 1.8 1.7 1.9 Q1.7 2.05 1.55 2.0 1.45 2.0 1.45 1.9 1.45 1.75 1.5 1.75 L1.6 1.75" fill="#f1feff" fill-rule="evenodd" stroke="none"/>
    <path d="M-2.2 -1.25 L-2.2 -1.55 -2.1 -1.6 -2.05 -1.5 -2.05 -1.65 -1.95 -1.65 -1.85 -1.75 -1.8 -1.7 -1.75 -1.7 -1.45 -1.75 -1.3 -1.65 -1.1 -1.65 -1.2 -1.45 -1.3 -1.3 -1.35 -1.25 -1.35 -1.45 Q-1.35 -1.55 -1.45 -1.55 L-1.5 -1.6 Q-1.6 -1.65 -1.7 -1.55 L-1.75 -1.35 -1.9 -1.3 -2.0 -1.3 Q-2.1 -1.3 -2.2 -1.25" fill="#ccf0f8" fill-rule="evenodd" stroke="none"/>
    <path d="M-0.35 -1.95 Q-0.45 -1.9 -0.45 -2.0 -0.5 -2.05 -0.45 -2.1 L-0.35 -2.05 Q-0.3 -2.0 -0.35 -1.95" fill="#f2feff" fill-rule="evenodd" stroke="none"/>
    <path d="M-0.75 -2.2 L-0.75 -2.2 Q-0.75 -2.05 -0.6 -2.05 -0.5 -2.05 -0.5 -2.2 L-0.45 -2.2 Q-0.45 -2.1 -0.5 -2.05 -0.55 -2.05 -0.6 -2.0 -0.55 -2.0 -0.55 -1.95 L-0.55 -1.8 Q-0.6 -1.7 -0.75 -1.75 -0.8 -1.8 -0.8 -1.9 -0.8 -2.0 -0.7 -2.0 L-0.75 -2.2 M-0.6 -1.9 L-0.65 -1.95 -0.75 -1.95 -0.75 -1.85 -0.65 -1.75 -0.6 -1.8 Q-0.6 -1.85 -0.6 -1.9" fill="#cbf3fc" fill-rule="evenodd" stroke="none"/>
    <path d="M-0.75 -2.2 L-0.5 -2.2 Q-0.5 -2.05 -0.6 -2.05 -0.75 -2.05 -0.75 -2.2" fill="#faffff" fill-rule="evenodd" stroke="none"/>
    <path d="M-0.5 -1.3 Q-0.55 -1.3 -0.65 -1.35 L-0.75 -1.45 -0.95 -1.55 -0.95 -1.6 -0.9 -1.6 -0.8 -1.55 Q-0.7 -1.55 -0.7 -1.5 L-0.65 -1.45 -0.55 -1.4 Q-0.5 -1.35 -0.5 -1.3" fill="#4faecd" fill-rule="evenodd" stroke="none"/>
    <path d="M-0.35 -1.5 L-0.2 -1.4 -0.15 -1.3 -0.25 -1.35 -0.35 -1.3 Q-0.35 -1.25 -0.4 -1.25 L-0.5 -1.3 -0.5 -1.3 Q-0.5 -1.35 -0.55 -1.4 L-0.65 -1.45 -0.7 -1.5 Q-0.7 -1.55 -0.8 -1.55 L-0.9 -1.6 -0.95 -1.6 -0.95 -1.55 Q-0.9 -1.5 -0.95 -1.4 -1.0 -1.3 -0.95 -1.25 L-1.0 -1.25 -1.05 -1.3 Q-1.05 -1.4 -1.1 -1.35 L-1.1 -1.5 Q-1.1 -1.6 -1.1 -1.65 L-1.05 -1.75 Q-1.05 -1.8 -0.95 -1.75 L-0.35 -1.5" fill="#69c8e2" fill-rule="evenodd" stroke="none"/>
    <path d="M-1.6 -2.0 Q-1.8 -2.05 -1.95 -2.15 L-1.75 -2.1 -1.6 -2.0" fill="#8bc0d7" fill-rule="evenodd" stroke="none"/>
    <path d="M-1.85 -1.75 L-1.85 -1.8 -1.75 -1.7 -1.8 -1.7 -1.85 -1.75" fill="#4a8895" fill-rule="evenodd" stroke="none"/>
    <path d="M-2.2 0.25 L-2.2 -1.25 Q-2.1 -1.3 -2.0 -1.3 L-1.9 -1.3 -1.75 -1.35 -1.7 -1.55 Q-1.6 -1.65 -1.5 -1.6 L-1.6 -1.55 -1.65 -1.45 -1.7 -1.35 -1.6 -1.25 -1.45 -1.25 -1.4 -1.35 -1.4 -1.45 Q-1.4 -1.55 -1.45 -1.55 -1.35 -1.55 -1.35 -1.45 L-1.35 -1.25 -1.45 -1.1 -1.55 -0.9 -1.65 -0.75 -1.75 -0.25 -1.75 -0.1 -1.8 0.0 -1.8 0.15 -1.85 0.2 -1.85 0.25 -1.85 0.3 -1.9 0.4 -1.9 0.2 Q-2.1 0.35 -2.2 0.25" fill="#e6fbfd" fill-rule="evenodd" stroke="none"/>
    <path d="M-1.45 -1.55 Q-1.4 -1.55 -1.4 -1.45 L-1.4 -1.35 -1.45 -1.25 -1.6 -1.25 -1.7 -1.35 -1.65 -1.45 -1.6 -1.55 -1.5 -1.6 -1.45 -1.55 M-0.8 -0.2 L-0.65 -0.15 Q-0.55 -0.1 -0.6 0.0 L-0.75 0.0 Q-0.85 -0.1 -0.8 -0.2" fill="#fbffff" fill-rule="evenodd" stroke="none"/>
    <path d="M-1.1 -1.35 L-1.15 -1.15 -1.25 -0.4 -1.35 0.3 -1.4 0.65 -1.45 0.95 -1.55 1.1 -1.55 1.2 Q-1.55 1.3 -1.4 1.25 L-1.3 1.3 Q-1.25 1.3 -1.3 1.35 L-1.45 1.35 -1.6 1.3 Q-1.7 1.2 -1.65 1.0 L-1.6 0.8 -1.6 0.65 -1.5 0.65 -1.55 0.6 -1.55 0.45 Q-1.5 0.3 -1.5 -0.1 L-1.4 -0.7 -1.4 -0.75 -1.45 -0.85 -1.5 -0.9 -1.5 -0.95 Q-1.5 -0.85 -1.4 -0.85 -1.3 -0.8 -1.25 -0.9 -1.2 -1.0 -1.4 -1.05 L-1.3 -1.15 Q-1.3 -1.25 -1.3 -1.3 L-1.2 -1.45 -1.1 -1.65 Q-1.1 -1.6 -1.1 -1.5 L-1.1 -1.35 M-1.1 -1.65 L-1.1 -1.65" fill="#3ba2bc" fill-rule="evenodd" stroke="none"/>
    <path d="M-1.35 -1.25 L-1.3 -1.3 Q-1.3 -1.25 -1.3 -1.15 L-1.4 -1.05 -1.5 -0.95 -1.5 -0.9 -1.45 -0.85 -1.4 -0.75 -1.4 -0.7 -1.5 -0.1 Q-1.5 0.3 -1.55 0.45 L-1.55 0.6 -1.5 0.65 -1.6 0.65 Q-1.55 0.6 -1.6 0.55 L-1.65 0.6 -1.7 0.55 -1.7 0.45 -1.75 0.45 -1.75 0.4 -1.7 0.15 -1.65 0.25 -1.6 0.15 -1.55 0.0 -1.55 -0.4 -1.45 -0.8 -1.5 -0.75 -1.55 -0.7 -1.55 -0.9 -1.45 -1.1 -1.35 -1.25" fill="#3286a0" fill-rule="evenodd" stroke="none"/>
    <path d="M-1.5 -0.95 L-1.4 -1.05 Q-1.2 -1.0 -1.25 -0.9 -1.3 -0.8 -1.4 -0.85 -1.5 -0.85 -1.5 -0.95" fill="#60edfb" fill-rule="evenodd" stroke="none"/>
    <path d="M-1.55 -0.9 L-1.55 -0.7 -1.5 -0.75 -1.45 -0.8 -1.55 -0.4 -1.55 0.0 -1.6 0.15 -1.65 0.25 -1.7 0.15 -1.75 0.35 -1.75 0.1 -1.7 -0.15 Q-1.65 -0.25 -1.65 -0.4 L-1.6 -0.65 -1.65 -0.75 -1.55 -0.9" fill="#2a728a" fill-rule="evenodd" stroke="none"/>
    <path d="M-1.65 -0.75 L-1.6 -0.65 -1.65 -0.4 Q-1.65 -0.25 -1.7 -0.15 L-1.75 -0.1 -1.75 -0.25 -1.65 -0.75" fill="#1b4d5d" fill-rule="evenodd" stroke="none"/>
    <path d="M-1.75 -0.1 L-1.75 -0.1 -1.75 -0.25 -1.75 -0.1" fill="#96cae2" fill-rule="evenodd" stroke="none"/>
    <path d="M-1.4 2.0 L-1.65 2.0 Q-1.65 1.9 -1.7 1.85 -1.7 1.8 -1.8 1.8 L-1.95 1.75 -2.05 1.65 -2.05 1.4 -2.0 1.45 -1.8 0.35 -1.8 0.25 -1.85 0.25 -1.85 0.2 -1.8 0.2 Q-1.8 0.15 -1.8 0.15 L-1.8 0.0 -1.75 -0.1 -1.7 -0.15 -1.75 0.1 -1.75 0.35 -1.75 0.4 -1.85 0.75 -1.9 1.15 -1.9 1.15 -1.95 1.3 -1.95 1.5 Q-2.0 1.6 -1.9 1.65 -1.65 1.75 -1.3 1.85 L-0.65 1.9 -0.5 1.95 -0.35 1.95 Q-0.2 1.95 -0.15 2.05 L-1.1 1.95 -1.25 1.95 -1.4 2.0 M-1.75 -0.1 L-1.75 -0.1 M-2.05 1.4 L-2.05 1.4" fill="#0c3139" fill-rule="evenodd" stroke="none"/>
    <path d="M-0.9 -0.7 L-0.9 -0.75 Q-0.85 -0.75 -0.85 -0.8 L-0.8 -0.85 Q-0.85 -0.9 -0.85 -0.9 L-0.8 -0.95 -0.7 -1.0 -0.65 -1.05 -0.65 -1.1 -0.6 -1.2 Q-0.65 -1.15 -0.6 -1.1 L-0.55 -1.2 Q-0.6 -1.1 -0.5 -1.05 -0.4 -1.0 -0.3 -1.05 L-0.25 -0.9 Q-0.25 -0.8 -0.3 -0.8 -0.25 -0.95 -0.35 -0.95 L-0.45 -0.95 -0.55 -1.0 Q-0.6 -1.0 -0.65 -0.95 L-0.75 -0.85 Q-0.7 -0.85 -0.8 -0.75 -0.85 -0.7 -0.8 -0.65 L-0.65 -0.65 -0.6 -0.75 -0.5 -0.75 -0.5 -0.85 Q-0.5 -0.9 -0.5 -0.8 L-0.4 -0.85 -0.35 -0.8 -0.45 -0.7 -0.55 -0.65 Q-0.6 -0.6 -0.55 -0.55 L-0.55 -0.55 -0.6 -0.55 Q-0.7 -0.55 -0.7 -0.5 L-0.75 -0.45 -0.8 -0.45 Q-0.85 -0.45 -0.85 -0.55 -0.85 -0.65 -0.9 -0.7 M-0.75 -0.55 L-0.8 -0.6 -0.75 -0.5 -0.7 -0.5 -0.75 -0.55" fill="#93f3fc" fill-rule="evenodd" stroke="none"/>
    <path d="M-0.3 -0.8 L-0.35 -0.8 -0.4 -0.85 -0.5 -0.8 Q-0.5 -0.9 -0.5 -0.85 L-0.5 -0.75 -0.6 -0.75 -0.65 -0.65 -0.8 -0.65 Q-0.85 -0.7 -0.8 -0.75 -0.7 -0.85 -0.75 -0.85 L-0.65 -0.95 Q-0.6 -1.0 -0.55 -1.0 L-0.45 -0.95 -0.35 -0.95 Q-0.25 -0.95 -0.3 -0.8 M-0.85 0.4 Q-0.75 0.4 -0.75 0.45 -0.8 0.5 -0.8 0.45 L-0.85 0.45 -0.95 0.5 -1.05 0.5 -1.15 0.4 Q-1.15 0.35 -1.05 0.3 L-1.05 0.25 -0.95 0.25 Q-0.9 0.25 -0.9 0.3 L-0.85 0.4" fill="#f6ffff" fill-rule="evenodd" stroke="none"/>
    <path d="M-0.05 0.2 Q-0.1 0.3 -0.15 0.2 L-0.15 0.1 -0.05 0.15 -0.05 0.2 M-0.75 -0.55 L-0.7 -0.5 -0.75 -0.5 -0.8 -0.6 -0.75 -0.55" fill="#f2ffff" fill-rule="evenodd" stroke="none"/>
    <path d="M-0.8 -0.2 Q-0.85 -0.1 -0.75 0.0 L-0.6 0.0 Q-0.55 -0.1 -0.65 -0.15 L-0.8 -0.2 M-0.8 0.0 L-0.85 -0.1 Q-0.9 -0.15 -0.85 -0.2 -0.8 -0.25 -0.7 -0.25 L-0.55 -0.2 -0.5 -0.1 -0.55 0.0 Q-0.55 0.05 -0.65 0.05 L-0.8 0.1 -0.8 0.0" fill="#81f3fd" fill-rule="evenodd" stroke="none"/>
    <path d="M-0.2 -0.2 L-0.25 -0.2 -0.35 -0.15 -0.35 0.05 -0.4 0.1 Q-0.4 0.05 -0.45 0.05 L-0.55 0.0 -0.5 -0.1 -0.55 -0.2 -0.55 -0.2 -0.45 -0.2 -0.4 -0.35 Q-0.35 -0.4 -0.35 -0.35 L-0.35 -0.3 -0.2 -0.2" fill="#51b6d4" fill-rule="evenodd" stroke="none"/>
    <path d="M-0.7 0.5 L-0.55 0.4 -0.4 0.4 Q-0.35 0.45 -0.35 0.5 L-0.3 0.65 -0.4 0.7 Q-0.45 0.7 -0.45 0.75 L-0.7 0.65 -0.65 0.55 Q-0.65 0.5 -0.7 0.5 M-0.55 0.45 Q-0.65 0.5 -0.6 0.6 -0.55 0.7 -0.45 0.65 -0.35 0.6 -0.4 0.5 -0.45 0.45 -0.55 0.45" fill="#89f8fe" fill-rule="evenodd" stroke="none"/>
    <path d="M-0.55 1.3 Q-0.7 1.2 -0.8 1.15 L-1.0 1.05 -1.25 1.0 -1.35 1.0 -1.45 0.95 -1.4 0.65 -1.35 0.3 -1.35 0.6 -1.3 0.55 -1.2 0.5 -1.15 0.55 -1.1 0.55 -1.0 0.65 -0.9 0.65 Q-0.9 0.55 -0.85 0.55 L-0.75 0.5 -0.7 0.5 Q-0.65 0.5 -0.65 0.55 L-0.7 0.65 -0.45 0.75 -0.4 0.8 -0.5 0.8 Q-0.45 0.85 -0.45 0.85 L-0.55 0.85 -0.5 0.9 -0.45 0.95 -0.5 1.0 -0.5 0.95 -0.55 1.0 Q-0.6 1.1 -0.65 1.05 L-0.6 1.2 -0.5 1.3 -0.55 1.3" fill="#4aaecc" fill-rule="evenodd" stroke="none"/>
    <path d="M-0.55 0.45 Q-0.45 0.45 -0.4 0.5 -0.35 0.6 -0.45 0.65 -0.55 0.7 -0.6 0.6 -0.65 0.5 -0.55 0.45" fill="#fcffff" fill-rule="evenodd" stroke="none"/>
    <path d="M-0.45 0.95 L-0.3 1.0 Q-0.35 1.05 -0.3 1.1 L-0.3 1.15 Q-0.2 1.25 -0.4 1.3 L-0.5 1.3 -0.6 1.2 -0.65 1.05 Q-0.6 1.1 -0.55 1.0 L-0.5 0.95 -0.5 1.0 -0.45 0.95 M-0.55 1.1 Q-0.6 1.2 -0.55 1.25 L-0.45 1.25 -0.35 1.2 Q-0.35 1.15 -0.4 1.1 -0.4 1.05 -0.45 1.05 -0.55 1.05 -0.55 1.1" fill="#71ebfb" fill-rule="evenodd" stroke="none"/>
    <path d="M-0.55 1.1 Q-0.55 1.05 -0.45 1.05 -0.4 1.05 -0.4 1.1 -0.35 1.15 -0.35 1.2 L-0.45 1.25 -0.55 1.25 Q-0.6 1.2 -0.55 1.1" fill="#e4ffff" fill-rule="evenodd" stroke="none"/>
    <path d="M-0.8 1.15 L-0.95 1.15 -1.05 1.1 -0.95 1.2 -0.9 1.25 -1.0 1.25 -1.15 1.25 -1.2 1.2 -1.4 1.25 -1.55 1.2 -1.55 1.1 -1.45 0.95 -1.35 1.0 -1.25 1.0 -1.0 1.05 -0.8 1.15" fill="#20778c" fill-rule="evenodd" stroke="none"/>
    <path d="M-1.85 0.25 L-1.8 0.25 -1.85 0.3 -1.85 0.25 M-1.85 0.3 L-1.85 0.3" fill="#6fa2ba" fill-rule="evenodd" stroke="none"/>
    <path d="M-1.8 0.15 Q-1.8 0.15 -1.8 0.2 L-1.85 0.2 -1.8 0.15" fill="#5d8da5" fill-rule="evenodd" stroke="none"/>
    <path d="M-1.8 0.25 L-1.8 0.35 -2.0 1.45 -2.05 1.4 -2.0 1.35 Q-2.05 1.25 -2.0 1.25 L-2.0 1.2 Q-1.95 1.2 -2.0 1.15 L-2.0 1.1 Q-1.95 1.05 -1.95 1.0 L-1.95 0.95 -1.95 0.85 -1.9 0.75 -1.9 0.7 -1.9 0.65 -1.85 0.5 -1.85 0.3 -1.8 0.25" fill="#081e21" fill-rule="evenodd" stroke="none"/>
    <path d="M-2.2 1.6 L-2.2 0.25 Q-2.1 0.35 -1.9 0.2 L-1.9 0.4 -1.85 0.3 -1.85 0.5 -1.9 0.65 -1.9 0.7 -1.9 0.75 -1.95 0.85 -1.95 0.95 -1.95 1.0 -2.0 1.05 -2.0 1.1 -2.0 1.15 -2.0 1.2 -2.0 1.25 Q-2.05 1.25 -2.0 1.35 L-2.05 1.4 Q-2.1 1.45 -2.1 1.55 -2.05 1.65 -2.1 1.65 L-2.15 1.65 -2.2 1.6 M-2.05 1.4 L-2.05 1.4 M-1.85 0.3 L-1.85 0.3" fill="#c7eef7" fill-rule="evenodd" stroke="none"/>
    <path d="M-1.6 1.3 L-1.7 1.3 -1.7 1.15 -1.75 1.0 Q-1.8 0.95 -1.8 1.0 L-1.8 1.1 Q-1.85 1.15 -1.8 1.25 L-1.9 1.2 -1.9 1.15 -1.9 1.15 -1.85 0.75 -1.75 0.4 -1.75 0.45 -1.7 0.45 -1.7 0.55 -1.65 0.6 -1.6 0.55 Q-1.55 0.6 -1.6 0.65 L-1.6 0.8 -1.65 1.0 Q-1.7 1.2 -1.6 1.3" fill="#26738a" fill-rule="evenodd" stroke="none"/>
    <path d="M-1.9 0.65 L-1.9 0.7 -1.9 0.65" fill="#4d7085" fill-rule="evenodd" stroke="none"/>
    <path d="M-1.95 1.0 Q-1.95 1.05 -2.0 1.1 L-2.0 1.05 -1.95 1.0" fill="#467286" fill-rule="evenodd" stroke="none"/>
    <path d="M-2.0 1.15 Q-1.95 1.2 -2.0 1.2 L-2.0 1.15" fill="#467187" fill-rule="evenodd" stroke="none"/>
    <path d="M-1.65 2.0 L-2.0 1.9 -2.05 1.75 -2.05 1.65 -1.95 1.75 -1.8 1.8 Q-1.7 1.8 -1.7 1.85 -1.65 1.9 -1.65 2.0" fill="#236c7f" fill-rule="evenodd" stroke="none"/>
    <path d="M-0.85 2.05 L-0.85 2.05 -1.1 2.05 -1.15 2.05 -1.2 2.05 -1.2 2.05 -1.25 2.0 -1.35 2.0 -1.35 2.0 -1.4 2.0 -1.25 1.95 -1.1 1.95 -0.15 2.05 -0.1 2.1 -0.25 2.1 -0.4 2.05 -0.55 2.05 -0.7 2.05 -0.85 2.05" fill="#031514" fill-rule="evenodd" stroke="none"/>
    <path d="M-0.25 1.4 L-0.3 1.45 -0.35 1.5 Q-0.3 1.4 -0.4 1.4 -0.45 1.4 -0.4 1.5 L-0.5 1.4 Q-0.5 1.35 -0.5 1.35 L-0.55 1.3 -0.5 1.3 -0.4 1.3 -0.35 1.35 -0.25 1.4 M-0.5 1.4 L-0.45 1.4 -0.45 1.35 -0.5 1.4" fill="#2187a0" fill-rule="evenodd" stroke="none"/>
    <path d="M-0.5 1.4 L-0.5 1.4 -0.45 1.35 -0.45 1.4 -0.5 1.4" fill="#30daec" fill-rule="evenodd" stroke="none"/>
    <path d="M-0.35 1.5 L-0.4 1.5 Q-0.45 1.4 -0.4 1.4 -0.3 1.4 -0.35 1.5" fill="#54f5fd" fill-rule="evenodd" stroke="none"/>
    <path d="M-0.55 2.05 L-0.7 2.05 -0.85 2.05 -0.7 2.05 -0.55 2.05" fill="#456c7d" fill-rule="evenodd" stroke="none"/>
    <path d="M-0.1 2.1 Q-0.1 2.15 -0.15 2.1 L-0.25 2.1 -0.1 2.1 -0.1 2.1" fill="#5d94a6" fill-rule="evenodd" stroke="none"/>
    <path d="M-0.25 2.1 L-0.4 2.1 -0.55 2.05 -0.4 2.05 -0.25 2.1" fill="#5a839e" fill-rule="evenodd" stroke="none"/>
  </g>
</svg>
