<?xml version="1.0" encoding="UTF-8" standalone="no"?>
<svg xmlns:xlink="http://www.w3.org/1999/xlink" height="44.25px" width="5.0px" xmlns="http://www.w3.org/2000/svg">
  <g transform="matrix(1.0, 0.0, 0.0, 1.0, 2.45, 32.15)">
    <path d="M-2.15 -5.05 L-2.15 -6.25 -1.95 -6.7 -1.95 -6.75 -2.15 -6.7 -2.15 -7.1 -2.1 -7.1 Q-2.0 -7.15 -1.9 -7.2 L-2.2 -7.7 -2.2 -7.85 -2.05 -7.85 -2.2 -8.75 -2.3 -9.15 -2.3 -9.25 Q-2.2 -9.2 -2.2 -9.1 -2.2 -8.85 -2.0 -8.85 -1.65 -8.85 -1.55 -10.0 L-1.5 -11.25 -1.5 -11.35 -1.45 -11.5 -1.25 -11.75 Q-1.25 -11.5 -1.15 -11.25 L-1.05 -10.95 Q-1.05 -10.85 -1.2 -10.35 L-1.4 -9.8 Q-1.4 -9.7 -1.3 -9.55 L-1.25 -9.35 -1.25 -9.2 -1.45 -9.15 -1.45 -8.95 -1.35 -8.95 Q-1.35 -8.95 -1.25 -9.0 L-1.1 -9.05 Q-1.05 -9.05 -1.05 -9.0 L-0.95 -9.0 Q-0.65 -9.0 -0.6 -9.4 L-0.55 -9.95 -0.55 -10.05 -0.35 -9.95 -0.35 -9.9 -0.3 -9.8 Q-0.3 -9.3 -0.4 -9.0 L-0.5 -8.8 Q-0.65 -8.45 -0.95 -8.35 L-1.35 -8.2 Q-1.5 -8.05 -1.55 -7.75 -1.55 -7.7 -1.25 -7.55 -1.0 -7.45 -0.8 -7.4 L-0.7 -7.4 -0.75 -7.3 -0.75 -7.2 -0.8 -7.05 -0.7 -6.7 -0.5 -6.35 -0.35 -6.0 -1.05 -5.65 Q-1.7 -5.3 -2.15 -5.05 M-2.15 -11.1 L-2.25 -11.4 -2.4 -11.7 -2.35 -12.15 -2.0 -12.5 Q-1.95 -12.35 -1.95 -12.0 L-1.95 -11.9 Q-2.0 -11.6 -2.15 -11.1 M-2.3 -12.55 L-2.2 -13.05 Q-2.15 -13.05 -2.15 -13.15 -2.05 -13.1 -2.0 -13.05 L-2.0 -12.95 Q-2.0 -12.75 -2.3 -12.55 M-1.7 -16.2 L-1.6 -16.8 -1.6 -17.0 -1.55 -17.0 -1.6 -16.8 -1.6 -16.8 -1.55 -16.75 -1.1 -16.85 Q-1.0 -16.7 -1.0 -16.3 L-1.25 -16.25 -1.7 -16.2 M-1.45 -17.85 L-1.3 -18.7 Q-1.25 -18.7 -1.2 -18.75 L-1.15 -18.8 -1.15 -18.8 -1.05 -18.65 -1.05 -18.55 -1.25 -17.95 -1.3 -17.9 -1.45 -17.85 M-0.2 -29.55 L0.1 -32.1 0.15 -31.7 0.15 -31.65 Q0.15 -31.15 0.25 -30.45 L0.1 -30.3 Q0.0 -30.15 0.0 -29.9 0.0 -29.85 0.05 -29.7 L0.1 -29.55 0.1 -29.3 Q0.05 -29.3 -0.15 -29.45 L-0.25 -29.3 -0.2 -29.55 M-0.2 -28.45 L-0.2 -28.35 -0.05 -28.35 0.05 -28.3 0.2 -28.5 0.25 -28.25 0.35 -28.3 0.4 -28.2 0.45 -28.05 0.55 -27.7 Q0.45 -27.5 0.25 -27.5 0.0 -27.55 -0.1 -27.4 L-0.15 -27.45 Q0.1 -27.7 0.25 -27.9 0.15 -27.9 0.05 -28.0 L-0.2 -28.25 -0.3 -28.15 -0.3 -28.25 Q-0.3 -28.4 -0.2 -28.45 L-0.2 -28.45 M0.5 -18.1 L0.7 -18.2 0.8 -18.25 1.0 -17.8 1.0 -17.75 0.9 -17.65 0.7 -17.65 0.55 -17.65 0.15 -17.65 0.15 -17.85 Q0.2 -17.95 0.45 -18.1 L0.5 -18.1 M1.35 -14.95 L1.3 -14.95 1.2 -15.15 1.15 -15.25 1.0 -15.4 1.0 -15.7 Q1.15 -15.7 1.3 -15.85 1.45 -16.0 1.6 -16.0 L1.65 -15.8 1.75 -15.45 1.6 -15.25 1.35 -14.95 M-0.35 2.85 Q-0.5 2.8 -0.4 2.65 -0.25 2.5 -0.1 2.5 L0.5 2.5 Q0.65 2.6 0.7 2.7 L0.7 2.85 0.65 2.9 Q0.5 3.0 0.35 3.0 L0.2 2.9 0.05 2.85 -0.1 3.0 Q-0.2 3.0 -0.25 2.9 L-0.35 2.85 0.25 2.75 0.2 2.5 -0.15 2.55 Q-0.3 2.65 -0.1 2.75 L-0.3 2.7 Q-0.35 2.7 -0.35 2.85 M0.3 2.75 L0.25 2.75 Q0.3 2.85 0.3 2.75 L0.35 2.75 Q0.65 2.65 0.35 2.55 L0.35 2.7 0.3 2.75 M-1.8 -13.0 Q-1.8 -13.15 -1.55 -13.25 -1.55 -13.05 -1.15 -13.05 -0.85 -13.0 -0.65 -12.9 -0.8 -12.6 -1.05 -12.25 L-1.4 -11.9 Q-1.55 -11.75 -1.7 -11.75 L-1.8 -11.85 -1.8 -11.9 -1.85 -12.05 -1.75 -12.55 -1.8 -13.0 M-0.45 -11.55 L-0.35 -11.45 Q-0.5 -11.25 -0.9 -11.2 L-0.8 -11.75 -0.45 -11.55 M-0.35 -12.1 L-0.3 -11.9 Q-0.25 -11.8 -0.35 -11.7 L-0.6 -11.75 Q-0.9 -11.8 -0.95 -11.85 L-0.9 -11.9 -0.75 -12.15 -0.55 -12.4 -0.35 -12.1 M-1.7 -7.7 Q-1.7 -7.55 -1.75 -7.35 L-1.8 -7.25 Q-1.85 -7.05 -1.9 -7.0 L-1.9 -6.75 -1.7 -6.75 -1.35 -6.9 -1.2 -6.9 Q-1.5 -7.6 -1.6 -7.7 L-1.7 -7.7" fill="#a3f7ff" fill-rule="evenodd" stroke="none"/>
    <path d="M0.15 -31.7 L0.3 -30.5 0.25 -30.45 Q0.15 -31.15 0.15 -31.65 L0.15 -31.7 M0.55 -28.7 L0.55 -28.6 0.55 -28.5 0.5 -28.8 0.5 -28.8 0.35 -29.0 0.45 -29.0 0.5 -28.8 0.55 -28.7 M0.8 -26.5 L0.95 -25.35 0.7 -25.35 0.5 -25.4 0.45 -25.4 0.7 -25.8 0.75 -25.9 0.7 -25.9 0.6 -25.95 0.45 -25.9 0.4 -25.8 Q0.3 -25.85 0.2 -25.95 0.15 -26.1 0.15 -26.2 L0.15 -26.25 -0.05 -26.05 0.15 -26.4 0.1 -26.4 Q0.0 -26.3 -0.2 -26.3 -0.3 -26.65 -0.3 -27.05 -0.55 -26.8 -0.55 -26.55 L-0.5 -26.15 Q-0.5 -26.05 -0.55 -25.95 L-0.55 -25.25 -0.1 -25.95 0.0 -25.7 Q0.0 -25.5 -0.1 -25.35 -0.15 -25.2 -0.2 -25.1 L-0.2 -24.95 -0.35 -25.0 -0.35 -25.05 -0.4 -25.0 Q-0.5 -25.1 -0.55 -25.2 L-0.55 -25.25 -0.7 -25.45 -0.7 -25.7 -0.45 -27.55 -0.4 -27.85 -0.35 -27.65 -0.3 -27.3 -0.15 -27.45 -0.1 -27.4 -0.15 -27.25 -0.1 -27.1 -0.05 -26.95 -0.05 -26.8 Q-0.05 -26.7 -0.15 -26.65 0.05 -26.5 0.15 -26.4 0.25 -26.35 0.3 -26.35 0.4 -26.35 0.7 -26.45 L0.75 -26.5 0.8 -26.5 M1.0 -25.05 L1.4 -21.8 1.3 -22.0 Q1.1 -22.25 1.05 -22.45 L1.0 -22.55 0.95 -22.5 1.0 -23.3 1.0 -23.55 0.85 -23.6 Q0.8 -23.6 0.7 -23.45 L0.7 -23.45 0.55 -23.2 0.55 -23.15 0.35 -22.7 0.3 -23.05 0.3 -23.3 Q0.45 -23.35 0.5 -23.4 L0.45 -23.6 Q0.3 -24.0 0.05 -24.35 L-0.1 -24.05 -0.1 -24.75 0.15 -25.05 0.4 -24.7 0.7 -24.25 0.8 -24.1 1.0 -25.0 1.0 -25.05 M1.6 -20.2 L1.65 -19.9 1.5 -19.75 Q1.3 -19.5 1.3 -19.3 L1.35 -19.1 0.9 -19.05 0.8 -19.05 0.7 -19.75 0.7 -19.8 0.3 -19.85 0.25 -19.85 -0.2 -19.8 -0.25 -19.6 -0.4 -19.8 -0.45 -19.7 -0.8 -19.7 Q-0.85 -19.7 -0.95 -19.65 -0.9 -19.8 -0.8 -19.8 -0.7 -19.8 -0.6 -21.1 -0.35 -21.3 -0.2 -21.65 L0.35 -21.75 0.3 -21.8 0.1 -22.25 -0.1 -22.05 -0.05 -22.45 0.0 -22.45 0.35 -22.55 0.6 -22.5 0.7 -22.45 0.85 -22.45 0.8 -22.35 0.75 -22.3 0.75 -22.25 0.7 -22.25 0.55 -22.4 0.45 -22.3 0.4 -22.1 Q0.4 -22.05 0.4 -22.0 L0.45 -21.95 0.65 -21.95 0.7 -21.95 0.75 -22.0 0.8 -21.85 0.75 -21.8 0.7 -21.8 0.65 -21.8 0.65 -21.8 0.45 -21.75 Q0.45 -21.65 0.6 -21.65 L0.55 -21.0 0.45 -21.05 Q0.4 -21.15 0.45 -21.3 L0.25 -21.15 0.25 -20.9 Q0.1 -21.0 0.1 -21.1 L0.25 -21.4 Q0.25 -21.5 0.1 -21.5 0.1 -21.5 -0.1 -21.2 -0.25 -20.9 -0.25 -20.75 L-0.25 -20.75 -0.35 -20.65 -0.6 -20.25 -0.6 -20.0 -0.55 -20.0 -0.45 -20.0 0.0 -20.05 0.25 -20.1 0.2 -20.35 0.7 -20.8 1.0 -21.0 1.25 -21.0 1.35 -20.7 Q1.35 -20.55 0.95 -20.45 L0.7 -20.35 0.55 -20.3 Q0.5 -20.2 0.6 -20.05 L0.7 -20.0 0.75 -20.0 0.9 -20.0 1.05 -20.05 1.1 -19.75 1.15 -19.45 1.3 -19.7 1.35 -20.05 Q1.45 -20.05 1.55 -20.15 L1.6 -20.2 M1.65 -17.15 L1.75 -16.6 1.75 -16.45 1.65 -16.3 1.8 -16.15 1.85 -16.0 1.8 -16.0 1.65 -15.8 1.6 -16.0 Q1.45 -16.0 1.3 -15.85 1.15 -15.7 1.0 -15.7 L1.0 -15.4 1.15 -15.25 1.2 -15.15 1.3 -14.95 1.35 -14.95 Q1.35 -14.75 1.55 -14.65 0.9 -14.2 0.9 -13.75 0.9 -13.7 0.95 -13.65 L0.95 -13.55 0.85 -13.5 0.5 -13.5 0.5 -13.7 0.35 -13.55 0.2 -13.45 Q-0.05 -13.25 -0.2 -13.25 L-0.45 -13.25 -0.55 -13.3 -0.6 -13.35 -0.55 -13.35 -0.35 -13.45 -0.4 -13.45 -0.4 -13.55 Q-0.45 -13.9 -0.65 -13.95 L-1.15 -13.95 -1.15 -13.45 Q-0.95 -13.35 -0.8 -13.35 L-0.75 -13.35 -0.7 -13.3 -0.65 -13.15 Q-0.65 -13.05 -0.7 -13.05 -0.95 -13.05 -1.35 -13.4 L-1.85 -13.8 -1.9 -13.8 -2.05 -14.0 -1.8 -13.95 -1.7 -14.15 Q-1.55 -14.4 -1.55 -14.45 L-1.65 -14.65 -1.9 -14.95 -1.9 -15.05 -1.7 -14.8 Q-1.5 -14.45 -1.5 -14.4 L-1.6 -14.2 -1.55 -14.05 -1.4 -13.95 Q-1.35 -13.95 -1.1 -14.15 L-0.9 -14.05 -0.55 -14.0 -0.5 -14.05 -0.65 -14.05 Q-0.8 -14.05 -1.1 -14.3 -1.4 -14.6 -1.4 -14.75 L-1.15 -14.95 -0.9 -15.2 Q-0.8 -15.2 -0.75 -15.1 L-0.65 -14.95 -0.5 -15.15 -0.4 -15.2 -0.5 -15.25 -0.55 -15.45 Q-0.55 -15.6 -0.4 -15.8 L-0.25 -15.9 0.15 -15.85 0.3 -15.85 0.3 -15.65 0.2 -15.35 0.25 -15.25 0.3 -15.0 0.45 -14.7 0.4 -14.6 0.25 -14.35 0.2 -14.3 0.45 -14.3 0.7 -14.55 0.8 -14.65 Q0.95 -14.85 1.3 -14.75 1.3 -14.95 1.15 -15.1 1.05 -15.2 1.0 -15.25 L1.0 -15.35 0.95 -15.65 1.0 -16.15 0.9 -16.15 0.75 -16.0 0.9 -15.4 0.95 -15.25 1.0 -14.9 Q1.0 -14.8 0.85 -14.75 L0.7 -14.7 0.7 -14.7 0.5 -14.75 0.45 -14.9 Q0.45 -15.1 0.55 -15.15 L0.7 -15.15 0.75 -15.2 0.75 -15.35 0.7 -15.4 Q0.55 -15.5 0.45 -15.7 L0.4 -15.85 0.4 -15.85 0.55 -15.95 0.55 -16.25 0.5 -16.55 0.55 -16.55 Q0.6 -16.55 0.7 -16.6 L0.7 -16.6 0.8 -16.65 1.05 -16.55 1.3 -16.5 1.3 -17.1 1.65 -17.15 M-1.8 -15.7 L-1.8 -15.75 -1.7 -16.2 -1.25 -16.25 -1.0 -16.3 Q-1.0 -16.7 -1.1 -16.85 L-1.1 -16.85 -0.75 -16.85 -0.75 -16.65 -0.65 -16.4 -0.75 -16.35 -0.9 -16.3 -0.95 -16.25 -1.0 -16.25 -1.0 -16.25 -1.05 -16.2 -1.05 -16.2 -1.25 -16.2 Q-1.2 -16.15 -1.2 -15.9 L-1.45 -15.75 Q-1.55 -15.65 -1.65 -15.65 L-1.8 -15.7 M-1.6 -17.0 L-1.45 -17.85 -1.3 -17.9 -1.25 -17.95 -1.3 -17.8 -1.3 -17.75 -1.55 -17.0 -1.6 -17.0 M-1.35 -19.7 L-1.4 -19.75 -1.4 -19.75 -1.3 -20.75 -1.25 -20.95 -1.2 -20.9 -1.35 -19.7 M-0.4 -28.1 L-0.25 -29.2 -0.15 -29.05 -0.2 -28.9 -0.2 -28.45 -0.2 -28.45 Q-0.3 -28.4 -0.3 -28.25 L-0.3 -28.15 -0.35 -28.1 -0.4 -28.1 M0.35 -28.3 Q0.45 -28.35 0.5 -28.4 L0.55 -28.5 0.6 -28.05 0.55 -27.7 0.45 -28.05 0.4 -28.2 0.35 -28.3 M0.1 -19.05 L0.1 -19.05 0.1 -19.05 0.1 -19.05 M-0.15 -18.95 L-0.15 -18.95 -0.15 -18.95 -0.15 -18.95 M-0.3 -14.35 L-0.35 -14.25 Q-0.45 -14.2 -0.5 -14.05 L-0.4 -14.1 -0.35 -14.25 -0.15 -14.3 -0.15 -14.35 -0.2 -14.35 -0.25 -14.4 0.15 -14.5 0.2 -14.5 0.15 -14.75 0.1 -15.2 Q0.1 -15.25 0.0 -15.25 -0.35 -15.25 -0.6 -15.0 L-1.1 -14.4 -1.1 -14.35 -0.45 -14.35 -0.3 -14.35 M-0.15 -14.3 Q-0.2 -14.2 -0.2 -14.05 -0.05 -14.05 0.2 -14.3 L-0.05 -14.3 -0.15 -14.3 M0.0 -16.65 L-0.05 -16.6 0.0 -16.65 0.0 -16.65 M-0.1 -16.55 L-0.25 -16.05 -0.3 -16.1 -0.25 -16.2 -0.15 -16.45 -0.1 -16.55 M-0.7 -25.45 L-0.7 -25.45 -0.7 -25.7 -0.7 -25.45 M-0.95 -18.75 L-1.05 -18.55 -1.05 -18.65 -1.15 -18.8 -1.15 -18.8 -1.05 -18.95 -1.05 -18.95 -0.95 -18.75 -0.95 -18.75 M-0.25 -18.85 L-0.25 -18.95 -0.2 -18.95 -0.25 -18.85" fill="#559eb1" fill-rule="evenodd" stroke="none"/>
    <path d="M0.3 -30.5 L0.55 -28.7 0.5 -28.8 0.45 -29.0 0.35 -29.0 0.5 -28.8 0.5 -28.8 0.55 -28.5 0.5 -28.4 Q0.45 -28.35 0.35 -28.3 L0.25 -28.25 0.2 -28.5 0.05 -28.3 -0.05 -28.35 -0.2 -28.35 -0.2 -28.45 -0.2 -28.9 -0.15 -29.05 -0.25 -29.2 -0.25 -29.3 -0.15 -29.45 Q0.05 -29.3 0.1 -29.3 L0.1 -29.55 0.05 -29.7 Q0.0 -29.85 0.0 -29.9 0.0 -30.15 0.1 -30.3 L0.25 -30.45 0.3 -30.5 M0.55 -28.6 L0.8 -26.65 0.8 -26.5 0.75 -26.5 0.7 -26.45 Q0.4 -26.35 0.3 -26.35 0.25 -26.35 0.15 -26.4 0.05 -26.5 -0.15 -26.65 -0.05 -26.7 -0.05 -26.8 L-0.05 -26.95 -0.1 -27.1 -0.15 -27.25 -0.1 -27.4 Q0.0 -27.55 0.25 -27.5 0.45 -27.5 0.55 -27.7 L0.6 -28.05 0.55 -28.5 0.55 -28.6 M1.4 -21.8 L1.6 -20.2 1.55 -20.15 Q1.45 -20.05 1.35 -20.05 L1.3 -19.7 1.15 -19.45 1.1 -19.75 1.05 -20.05 0.9 -20.0 0.75 -20.0 0.7 -20.0 0.6 -20.05 Q0.5 -20.2 0.55 -20.3 L0.7 -20.35 0.95 -20.45 Q1.35 -20.55 1.35 -20.7 L1.25 -21.0 1.0 -21.0 0.7 -20.8 0.2 -20.35 0.1 -20.2 0.1 -20.35 0.15 -20.55 0.15 -20.65 0.1 -20.65 -0.1 -20.65 -0.25 -20.75 -0.25 -20.75 Q-0.25 -20.9 -0.1 -21.2 0.1 -21.5 0.1 -21.5 0.25 -21.5 0.25 -21.4 L0.1 -21.1 Q0.1 -21.0 0.25 -20.9 L0.25 -21.15 0.45 -21.3 Q0.4 -21.15 0.45 -21.05 L0.55 -21.0 0.65 -20.95 0.7 -20.95 Q0.95 -21.0 1.1 -21.05 1.3 -21.15 1.3 -21.35 1.3 -21.65 0.9 -21.65 L0.7 -21.65 0.6 -21.65 Q0.45 -21.65 0.45 -21.75 L0.65 -21.8 0.65 -21.8 0.7 -21.8 0.75 -21.8 0.8 -21.85 0.75 -22.0 0.7 -21.95 0.65 -21.95 0.45 -21.95 0.4 -22.0 Q0.4 -22.05 0.4 -22.1 L0.45 -22.3 0.55 -22.4 0.7 -22.25 0.75 -22.25 0.75 -22.3 0.8 -22.35 0.85 -22.45 0.95 -22.5 1.0 -22.55 1.05 -22.45 Q1.1 -22.25 1.3 -22.0 L1.4 -21.8 M2.25 -4.7 L2.3 -4.05 1.95 -4.05 1.95 -4.25 Q2.05 -4.25 2.15 -4.35 2.15 -4.4 2.15 -4.7 L2.25 -4.7 M2.3 -3.85 L2.3 -3.5 2.3 -3.5 Q2.3 -3.65 2.1 -3.75 L1.9 -3.8 1.95 -3.95 2.3 -3.85 M-2.1 -13.7 L-2.05 -14.0 -1.9 -13.8 -1.85 -13.8 -1.7 -13.6 -1.7 -13.55 -1.75 -13.55 -1.8 -13.55 -1.85 -13.55 -2.1 -13.7 M-1.9 -15.05 L-1.8 -15.7 -1.65 -15.65 Q-1.55 -15.65 -1.45 -15.75 L-1.2 -15.9 Q-1.2 -16.15 -1.25 -16.2 L-1.05 -16.2 -1.05 -16.2 -1.0 -16.25 -1.0 -16.25 -0.95 -16.25 Q-0.85 -16.25 -0.75 -16.35 L-0.75 -16.35 Q-0.85 -16.15 -1.0 -16.05 -1.1 -16.0 -1.1 -15.8 -1.1 -15.55 -1.0 -15.4 -0.85 -15.45 -0.75 -15.55 -0.65 -15.7 -0.65 -15.9 -0.45 -15.8 -0.3 -16.1 L-0.25 -16.05 -0.2 -16.05 -0.25 -15.9 -0.4 -15.8 Q-0.55 -15.6 -0.55 -15.45 L-0.5 -15.25 -0.4 -15.2 -0.5 -15.15 -0.65 -14.95 -0.75 -15.1 Q-0.8 -15.2 -0.9 -15.2 L-1.15 -14.95 -1.4 -14.75 Q-1.4 -14.6 -1.1 -14.3 -0.8 -14.05 -0.65 -14.05 L-0.5 -14.05 -0.55 -14.0 -0.9 -14.05 -1.1 -14.15 Q-1.35 -13.95 -1.4 -13.95 L-1.55 -14.05 -1.6 -14.2 -1.5 -14.4 Q-1.5 -14.45 -1.7 -14.8 L-1.9 -15.05 M-0.05 -26.05 L0.15 -26.25 0.15 -26.2 Q0.15 -26.1 0.2 -25.95 0.3 -25.85 0.4 -25.8 L0.45 -25.9 0.6 -25.95 0.7 -25.9 0.75 -25.9 0.7 -25.8 0.45 -25.4 0.35 -25.3 0.15 -25.05 -0.1 -24.75 -0.2 -24.6 -0.2 -24.65 -0.2 -24.95 -0.2 -25.1 Q-0.15 -25.2 -0.1 -25.35 0.0 -25.5 0.0 -25.7 L-0.1 -25.95 -0.15 -26.0 -0.05 -26.05 M0.4 -15.85 L0.45 -15.7 Q0.55 -15.5 0.7 -15.4 L0.75 -15.35 0.75 -15.2 0.7 -15.15 0.55 -15.15 Q0.45 -15.1 0.45 -14.9 L0.5 -14.75 0.7 -14.7 0.7 -14.7 0.85 -14.75 Q1.0 -14.8 1.0 -14.9 L0.95 -15.25 0.9 -15.4 0.75 -16.0 0.9 -16.15 1.0 -16.15 0.95 -15.65 1.0 -15.35 1.0 -15.25 Q1.05 -15.2 1.15 -15.1 1.3 -14.95 1.3 -14.75 0.95 -14.85 0.8 -14.65 L0.7 -14.55 0.45 -14.3 0.2 -14.3 0.25 -14.35 0.4 -14.6 0.45 -14.7 0.3 -15.0 0.25 -15.25 0.2 -15.35 0.3 -15.65 0.3 -15.85 0.3 -15.9 0.4 -15.85 M-0.15 -14.3 L-0.05 -14.3 0.2 -14.3 Q-0.05 -14.05 -0.2 -14.05 -0.2 -14.2 -0.15 -14.3 M-0.8 -1.25 L-0.8 -1.45 -0.85 -1.8 -0.85 -2.2 Q-0.85 -2.5 -0.7 -2.65 L-0.45 -2.45 -0.65 -2.15 -0.7 -2.0 -0.65 -1.8 -0.65 -1.55 -0.45 -1.5 -0.4 -1.6 -0.3 -1.7 -0.25 -1.7 -0.25 -1.75 -0.3 -1.9 -0.35 -2.0 -0.25 -2.15 -0.25 -2.15 -0.1 -2.35 -0.1 -1.9 -0.05 -1.8 0.0 -1.7 Q0.05 -1.65 0.15 -1.65 L0.15 -1.45 0.0 -1.55 0.0 -1.45 -0.05 -1.5 -0.2 -1.55 Q-0.3 -1.55 -0.35 -1.4 -0.4 -1.25 -0.45 -1.25 L-0.45 -1.1 -0.45 -0.9 -0.25 -0.7 -0.2 -0.7 -0.2 -0.7 Q-0.2 -0.9 -0.15 -0.95 L0.0 -0.7 0.0 -0.65 0.05 -0.25 0.0 -0.25 Q-0.15 -0.25 -0.35 -0.35 L-0.55 -0.4 -0.55 -0.4 -0.75 -1.05 -0.8 -1.25 M-2.05 -14.0 L-2.05 -14.0" fill="#237183" fill-rule="evenodd" stroke="none"/>
    <path d="M-1.3 -18.7 L-1.2 -19.3 Q-1.2 -19.5 -1.35 -19.7 L-1.2 -20.9 -0.95 -22.2 -0.4 -25.0 -0.35 -25.05 -0.35 -25.0 -0.55 -22.1 -0.6 -21.1 Q-0.7 -19.8 -0.8 -19.8 -0.9 -19.8 -0.95 -19.65 L-0.95 -19.5 -0.9 -19.15 Q-0.9 -19.05 -1.05 -18.95 L-1.05 -18.95 -1.15 -18.8 -1.2 -18.75 Q-1.25 -18.7 -1.3 -18.7 M-0.3 -28.15 L-0.2 -28.25 0.05 -28.0 Q0.15 -27.9 0.25 -27.9 0.1 -27.7 -0.15 -27.45 L-0.3 -27.3 -0.35 -27.65 -0.4 -27.85 -0.4 -28.1 -0.35 -28.1 -0.3 -28.15 M-0.05 -26.05 L-0.15 -26.0 -0.1 -25.95 -0.55 -25.25 -0.55 -25.95 Q-0.5 -26.05 -0.5 -26.15 L-0.55 -26.55 Q-0.55 -26.8 -0.3 -27.05 -0.3 -26.65 -0.2 -26.3 0.0 -26.3 0.1 -26.4 L0.15 -26.4 -0.05 -26.05 M-0.55 -25.25 L-0.55 -25.25" fill="#96e6f9" fill-rule="evenodd" stroke="none"/>
    <path d="M0.95 -25.35 L1.0 -25.05 1.0 -25.0 0.8 -24.1 0.7 -24.25 0.4 -24.7 0.15 -25.05 0.35 -25.3 0.45 -25.4 0.5 -25.4 0.7 -25.35 0.95 -25.35 M-0.1 -24.05 L0.05 -24.35 Q0.3 -24.0 0.45 -23.6 L0.5 -23.4 Q0.45 -23.35 0.3 -23.3 L0.2 -23.25 Q-0.2 -23.1 -0.25 -23.1 L-0.25 -23.15 -0.25 -23.4 -0.1 -24.05 M-0.15 -18.95 L0.2 -18.55 0.45 -18.2 0.35 -18.15 0.0 -18.0 -0.25 -18.0 -0.5 -18.0 -0.5 -18.35 -0.25 -18.85 -0.2 -18.95 -0.15 -18.95 -0.15 -18.95" fill="#2f8faa" fill-rule="evenodd" stroke="none"/>
    <path d="M0.35 -22.7 L0.55 -23.15 0.55 -23.2 0.7 -23.45 0.7 -23.45 Q0.8 -23.6 0.85 -23.6 L1.0 -23.55 1.0 -23.3 0.95 -22.5 0.85 -22.45 0.7 -22.45 0.6 -22.5 0.35 -22.55 0.4 -22.6 0.35 -22.7 M0.6 -21.65 L0.7 -21.65 0.9 -21.65 Q1.3 -21.65 1.3 -21.35 1.3 -21.15 1.1 -21.05 0.95 -21.0 0.7 -20.95 L0.65 -20.95 0.55 -21.0 0.6 -21.65 M-0.25 -20.75 L-0.1 -20.65 0.1 -20.65 0.15 -20.65 0.15 -20.55 0.1 -20.35 0.1 -20.2 0.2 -20.35 0.25 -20.1 0.0 -20.05 -0.45 -20.0 -0.55 -20.0 -0.6 -20.0 -0.6 -20.25 -0.35 -20.65 -0.25 -20.75 M-0.65 -16.4 L-0.55 -16.5 Q-0.25 -16.75 -0.05 -16.75 L-0.15 -16.45 -0.25 -16.2 -0.3 -16.1 Q-0.45 -15.8 -0.65 -15.9 -0.65 -15.7 -0.75 -15.55 -0.85 -15.45 -1.0 -15.4 -1.1 -15.55 -1.1 -15.8 -1.1 -16.0 -1.0 -16.05 -0.85 -16.15 -0.75 -16.35 L-0.75 -16.35 -0.65 -16.4" fill="#7bc4db" fill-rule="evenodd" stroke="none"/>
    <path d="M1.75 -16.5 L1.8 -16.15 1.65 -16.3 1.75 -16.45 1.75 -16.5 M1.85 -16.0 L1.9 -15.75 2.0 -14.9 1.85 -14.85 1.55 -14.65 Q1.35 -14.75 1.35 -14.95 L1.6 -15.25 1.75 -15.45 1.65 -15.8 1.8 -16.0 1.85 -16.0 M-2.2 -3.55 L-2.2 -4.4 -1.9 -3.65 -1.85 -3.65 -1.3 -4.25 -1.25 -4.25 -1.5 -3.9 -2.05 -3.1 -2.15 -3.05 -2.15 -3.45 -2.2 -3.55 M-2.15 -6.25 L-2.15 -6.7 -1.95 -6.75 -1.95 -6.7 -2.15 -6.25 M-2.2 -7.85 L-2.3 -9.15 -2.2 -8.75 -2.05 -7.85 -2.2 -7.85 M-2.05 -14.0 L-1.9 -14.95 -1.65 -14.65 -1.55 -14.45 Q-1.55 -14.4 -1.7 -14.15 L-1.8 -13.95 -2.05 -14.0 -2.05 -14.0 M-0.25 -23.15 L-0.25 -23.1 Q-0.2 -23.1 0.2 -23.25 L0.3 -23.3 0.3 -23.05 0.35 -22.7 0.4 -22.6 0.35 -22.55 0.0 -22.45 -0.05 -22.45 -0.4 -22.3 Q-0.5 -22.65 -0.5 -22.9 -0.5 -23.1 -0.25 -23.15 M0.5 -16.55 L0.55 -16.25 0.55 -15.95 0.4 -15.85 0.4 -15.85 0.3 -15.9 0.3 -15.85 0.15 -15.85 -0.25 -15.9 -0.2 -16.05 -0.25 -16.05 -0.1 -16.55 -0.1 -16.55 -0.05 -16.6 0.0 -16.65 0.35 -16.65 0.5 -16.55 M-0.3 -14.35 L-0.45 -14.35 -1.1 -14.35 -1.1 -14.4 -0.6 -15.0 Q-0.35 -15.25 0.0 -15.25 0.1 -15.25 0.1 -15.2 L0.15 -14.75 0.2 -14.5 0.15 -14.5 -0.25 -14.4 Q-0.3 -14.4 -0.3 -14.4 L-0.3 -14.35 M-0.95 -18.75 L-0.95 -18.75 Q-0.8 -18.5 -0.75 -17.9 L-0.7 -17.8 -0.6 -16.9 -0.75 -16.85 -1.1 -16.85 -1.1 -16.85 -1.55 -16.75 -1.6 -16.8 -1.6 -16.8 -1.55 -17.0 -1.3 -17.75 -1.3 -17.8 -1.25 -17.95 -1.05 -18.55 -0.95 -18.75 M-0.75 -13.35 L-0.8 -13.35 Q-0.95 -13.35 -1.15 -13.45 L-1.15 -13.95 -0.65 -13.95 Q-0.45 -13.9 -0.4 -13.55 L-0.4 -13.45 -0.35 -13.45 -0.55 -13.35 -0.6 -13.35 -0.7 -13.45 Q-0.7 -13.4 -0.75 -13.4 L-0.75 -13.35 M-1.7 -7.7 L-1.6 -7.7 Q-1.5 -7.6 -1.2 -6.9 L-1.35 -6.9 -1.7 -6.75 -1.9 -6.75 -1.9 -7.0 Q-1.85 -7.05 -1.8 -7.25 L-1.75 -7.35 Q-1.7 -7.55 -1.7 -7.7" fill="#6eddf7" fill-rule="evenodd" stroke="none"/>
    <path d="M1.75 -16.6 L1.75 -16.5 1.75 -16.45 1.75 -16.6 M-1.25 -21.0 L-0.75 -25.15 -0.7 -25.45 -0.7 -25.45 -0.55 -25.25 -0.55 -25.25 -0.55 -25.2 Q-0.5 -25.1 -0.4 -25.0 L-0.95 -22.2 -1.2 -20.9 -1.25 -20.95 -1.25 -21.0 M-0.2 -24.95 L-0.2 -24.65 -0.2 -24.6 -0.1 -24.75 -0.1 -24.05 -0.25 -23.4 -0.25 -23.15 Q-0.5 -23.1 -0.5 -22.9 -0.5 -22.65 -0.4 -22.3 L-0.05 -22.45 -0.1 -22.05 0.1 -22.25 0.3 -21.8 0.35 -21.75 -0.2 -21.65 Q-0.35 -21.3 -0.6 -21.1 L-0.55 -22.1 -0.35 -25.0 -0.2 -24.95 M-0.95 -19.65 Q-0.85 -19.7 -0.8 -19.7 L-0.45 -19.7 -0.4 -19.8 -0.25 -19.6 0.1 -19.05 Q0.0 -19.0 -0.1 -19.0 L-0.15 -18.95 -0.2 -18.95 -0.25 -18.95 -0.25 -18.85 -0.5 -18.35 -0.5 -18.0 -0.25 -18.0 -0.25 -17.65 Q-0.3 -17.3 -0.4 -17.2 L0.0 -17.1 -0.05 -16.95 0.0 -16.65 -0.05 -16.6 -0.1 -16.55 -0.1 -16.55 -0.15 -16.45 -0.05 -16.75 Q-0.25 -16.75 -0.55 -16.5 L-0.65 -16.4 -0.75 -16.65 -0.75 -16.85 -0.6 -16.9 -0.7 -17.8 -0.75 -17.9 Q-0.8 -18.5 -0.95 -18.75 L-0.95 -18.75 -0.95 -18.75 -1.05 -18.95 Q-0.9 -19.05 -0.9 -19.15 L-0.95 -19.5 -0.95 -19.65 M0.1 -19.05 L0.1 -19.05 M2.05 -7.0 L1.85 -6.6 1.7 -6.4 1.4 -6.05 Q1.05 -6.05 1.05 -6.6 L1.1 -6.65 Q1.35 -6.75 1.65 -6.85 1.8 -6.9 2.05 -7.0 M1.45 -2.55 L1.6 -2.45 1.5 -2.15 1.5 -2.05 1.4 -1.5 1.2 -1.5 Q1.2 -1.45 1.15 -1.5 L1.15 -1.5 Q0.9 -1.5 0.7 -1.6 0.45 -1.75 0.2 -2.05 L0.25 -2.1 0.3 -2.15 Q0.4 -2.35 0.5 -2.35 L0.65 -2.3 0.7 -2.3 0.9 -2.15 0.9 -2.15 1.0 -2.35 1.1 -2.55 1.45 -2.55 M-0.75 -25.15 L-0.7 -25.45 -0.75 -25.15 M-0.15 -18.95 L-0.15 -18.95 M-1.25 -4.25 L-0.3 -4.15 -0.2 -4.1 -0.3 -3.6 -0.45 -2.9 -0.5 -2.75 -1.25 -2.85 -1.3 -2.85 -1.65 -2.95 -2.05 -2.85 -2.05 -2.9 -2.1 -3.0 -2.05 -3.1 -1.5 -3.9 -1.25 -4.25" fill="#b0ffff" fill-rule="evenodd" stroke="none"/>
    <path d="M2.1 -14.45 L2.2 -13.8 2.0 -13.55 1.8 -13.4 1.15 -12.95 0.85 -12.7 0.7 -12.7 0.4 -12.65 0.4 -12.9 0.7 -13.15 1.2 -13.55 1.5 -13.85 2.1 -14.45 M2.35 -8.25 L2.3 -7.8 2.3 -7.7 2.05 -7.1 2.05 -7.0 Q1.8 -6.9 1.65 -6.85 1.35 -6.75 1.1 -6.65 0.9 -6.55 0.75 -6.45 L0.65 -6.45 0.65 -6.55 0.6 -6.7 0.6 -6.75 0.65 -6.8 0.7 -6.85 0.75 -7.05 0.75 -7.1 0.7 -7.05 -0.05 -6.9 -0.7 -6.7 -0.8 -7.05 -0.75 -7.2 -0.75 -7.3 -0.3 -7.3 0.4 -7.4 0.7 -7.45 0.9 -7.45 0.9 -7.55 0.85 -7.65 0.85 -7.75 1.15 -7.75 1.3 -8.15 1.3 -8.1 Q1.45 -8.2 1.5 -8.4 1.55 -8.55 1.75 -8.5 L1.75 -8.35 2.0 -8.35 2.25 -8.65 2.35 -8.65 2.35 -8.25 M-0.25 -19.6 L-0.2 -19.8 0.25 -19.85 0.3 -19.85 0.7 -19.8 0.7 -19.75 0.8 -19.05 0.7 -19.05 0.45 -19.05 0.1 -19.05 0.1 -19.05 -0.25 -19.6 M0.0 -17.1 L0.45 -17.05 0.7 -17.1 1.3 -17.1 1.3 -16.5 1.05 -16.55 0.8 -16.65 0.7 -16.6 0.7 -16.6 Q0.6 -16.55 0.55 -16.55 L0.5 -16.55 0.35 -16.65 0.0 -16.65 -0.05 -16.95 0.0 -17.1 M1.3 -11.1 L1.25 -11.05 1.25 -10.8 1.4 -10.8 1.4 -10.45 0.9 -10.35 0.7 -10.35 0.65 -10.35 0.45 -10.4 Q0.4 -10.4 0.25 -10.3 0.1 -10.15 0.05 -10.15 -0.05 -10.15 -0.15 -10.65 L-0.25 -11.3 -0.25 -11.35 Q-0.15 -11.5 -0.05 -11.7 0.0 -11.8 0.2 -11.8 L0.3 -11.45 Q0.4 -11.2 0.45 -11.1 0.5 -11.25 0.5 -11.3 L0.65 -11.25 0.7 -11.25 0.75 -11.3 0.8 -11.65 Q0.8 -11.65 0.9 -11.65 0.95 -11.45 1.15 -11.25 L1.3 -11.1 M1.25 -10.15 L1.35 -10.0 1.4 -10.0 Q1.3 -9.9 1.1 -9.8 L0.7 -9.6 0.6 -9.6 0.6 -9.4 0.7 -9.4 0.8 -9.35 0.95 -9.35 0.95 -9.3 0.7 -9.3 0.4 -9.2 Q0.05 -9.05 -0.25 -9.05 -0.35 -9.05 -0.4 -9.0 -0.3 -9.3 -0.3 -9.8 L-0.35 -9.9 -0.2 -9.9 0.4 -10.0 0.7 -10.05 1.25 -10.15 M0.0 -16.65 L0.0 -16.65 M-0.8 -7.4 Q-1.0 -7.45 -1.25 -7.55 -1.55 -7.7 -1.55 -7.75 -1.5 -8.05 -1.35 -8.2 L-0.95 -8.35 Q-0.65 -8.45 -0.5 -8.8 L-0.5 -8.5 -0.65 -8.5 -0.85 -7.95 -0.9 -8.0 -0.85 -7.8 -0.85 -7.75 -0.85 -7.65 -0.8 -7.4" fill="#7bdbf6" fill-rule="evenodd" stroke="none"/>
    <path d="M1.35 -19.1 L1.65 -17.15 1.3 -17.1 0.7 -17.1 0.45 -17.05 0.0 -17.1 -0.4 -17.2 Q-0.3 -17.3 -0.25 -17.65 L-0.25 -18.0 0.0 -18.0 0.35 -18.15 0.45 -18.2 0.2 -18.55 -0.15 -18.95 -0.1 -19.0 Q0.0 -19.0 0.1 -19.05 L0.45 -19.05 0.7 -19.05 0.8 -19.05 0.9 -19.05 1.35 -19.1 M2.0 -14.9 L2.1 -14.45 1.5 -13.85 1.2 -13.55 0.7 -13.15 0.4 -12.9 0.4 -12.65 0.7 -12.7 0.85 -12.7 0.7 -12.55 Q0.55 -12.35 0.55 -12.25 L0.7 -12.1 0.85 -11.9 1.05 -11.65 1.4 -11.15 Q1.3 -11.15 1.3 -11.1 L1.15 -11.25 Q0.95 -11.45 0.9 -11.65 0.8 -11.65 0.8 -11.65 L0.75 -11.3 0.7 -11.25 0.65 -11.25 0.5 -11.3 Q0.5 -11.25 0.45 -11.1 0.4 -11.2 0.3 -11.45 L0.2 -11.8 Q0.0 -11.8 -0.05 -11.7 -0.15 -11.5 -0.25 -11.35 L-0.25 -11.3 -0.15 -10.65 Q-0.05 -10.15 0.05 -10.15 0.1 -10.15 0.25 -10.3 0.4 -10.4 0.45 -10.4 L0.65 -10.35 0.7 -10.35 0.9 -10.35 1.4 -10.45 Q1.35 -10.2 1.25 -10.15 L1.25 -10.15 0.7 -10.05 0.4 -10.0 -0.2 -9.9 -0.35 -9.9 -0.35 -9.95 -0.55 -10.05 -0.55 -9.95 -0.6 -9.4 Q-0.65 -9.0 -0.95 -9.0 L-1.05 -9.0 Q-1.05 -9.05 -1.1 -9.05 L-1.25 -9.0 Q-1.35 -8.95 -1.35 -8.95 L-1.45 -8.95 -1.45 -9.15 -1.25 -9.2 -1.25 -9.35 -1.3 -9.55 Q-1.4 -9.7 -1.4 -9.8 L-1.2 -10.35 Q-1.05 -10.85 -1.05 -10.95 L-1.15 -11.25 Q-1.25 -11.5 -1.25 -11.75 L-1.45 -11.5 -1.5 -11.35 -1.5 -11.25 -1.55 -10.0 Q-1.65 -8.85 -2.0 -8.85 -2.2 -8.85 -2.2 -9.1 -2.2 -9.2 -2.3 -9.25 L-2.3 -9.25 Q-2.3 -9.35 -2.15 -9.55 -2.05 -9.7 -2.05 -9.8 L-2.15 -10.05 -2.3 -10.35 -2.2 -10.7 -2.15 -11.1 -2.15 -11.1 Q-2.0 -11.6 -1.95 -11.9 L-1.95 -12.0 Q-1.95 -12.35 -2.0 -12.5 L-2.35 -12.15 -2.3 -12.55 Q-2.0 -12.75 -2.0 -12.95 L-2.0 -13.05 Q-2.05 -13.1 -2.15 -13.15 -2.15 -13.05 -2.2 -13.05 L-2.15 -13.55 -2.1 -13.7 -1.85 -13.55 -1.8 -13.55 -1.75 -13.55 -1.7 -13.55 -1.7 -13.6 -1.85 -13.8 -1.35 -13.4 Q-0.95 -13.05 -0.7 -13.05 -0.65 -13.05 -0.65 -13.15 L-0.7 -13.3 -0.75 -13.35 -0.75 -13.4 Q-0.7 -13.4 -0.7 -13.45 L-0.6 -13.35 -0.55 -13.3 -0.45 -13.25 -0.2 -13.25 Q-0.05 -13.25 0.2 -13.45 L0.35 -13.55 0.5 -13.7 0.5 -13.5 0.85 -13.5 0.95 -13.55 0.95 -13.65 Q0.9 -13.7 0.9 -13.75 0.9 -14.2 1.55 -14.65 L1.85 -14.85 2.0 -14.9 M2.25 -13.35 L2.4 -12.65 2.35 -12.6 2.25 -12.6 2.25 -13.35 M2.25 -6.55 L2.25 -5.75 2.15 -5.9 1.9 -6.4 1.7 -5.95 1.55 -5.65 1.45 -5.55 1.45 -5.45 1.75 -5.45 2.15 -5.65 2.25 -5.7 2.25 -4.7 2.15 -4.7 Q2.15 -4.4 2.15 -4.35 2.05 -4.25 1.95 -4.25 L1.95 -4.05 2.3 -4.05 2.3 -3.85 1.95 -3.95 1.9 -3.8 2.1 -3.75 Q2.3 -3.65 2.3 -3.5 L2.3 -3.5 2.4 -2.5 2.35 -2.55 2.1 -2.15 1.8 -1.65 1.75 -1.6 Q1.65 -1.55 1.4 -1.5 L1.5 -2.05 1.5 -2.15 1.6 -2.45 1.75 -2.4 1.95 -2.55 2.15 -2.8 2.0 -3.15 Q1.9 -3.45 1.7 -3.55 L1.65 -3.3 1.7 -3.1 1.7 -3.1 1.75 -2.9 1.7 -2.85 1.65 -2.8 1.6 -2.8 1.25 -3.0 1.1 -2.95 1.0 -2.85 1.45 -2.55 1.1 -2.55 1.0 -2.35 0.9 -2.15 0.9 -2.15 0.7 -2.3 0.65 -2.3 0.5 -2.35 Q0.4 -2.35 0.3 -2.15 L0.25 -2.1 0.2 -2.05 0.2 -2.05 0.1 -2.15 -0.45 -2.9 -0.3 -3.6 -0.2 -4.1 0.0 -4.1 0.7 -4.0 1.15 -4.0 1.25 -4.0 Q1.05 -4.45 0.85 -5.4 L0.8 -5.65 0.7 -6.25 0.65 -6.45 0.75 -6.45 Q0.9 -6.55 1.1 -6.65 L1.05 -6.6 Q1.05 -6.05 1.4 -6.05 L1.7 -6.4 1.85 -6.6 1.65 -6.2 Q1.85 -6.45 2.1 -6.5 L2.25 -6.55 M0.5 6.8 L0.5 6.85 0.55 6.9 Q0.55 7.35 0.35 7.5 L0.15 7.6 -0.2 7.6 Q-0.45 7.55 -0.55 7.6 -0.25 6.75 -0.3 5.05 L-0.35 3.75 -0.35 3.45 -0.25 3.3 -0.2 3.05 -0.15 3.1 -0.1 3.0 0.05 2.85 0.2 2.9 0.25 3.05 0.25 3.15 0.3 3.25 0.3 3.3 Q0.35 3.65 0.3 4.2 L0.3 4.3 0.25 5.35 Q0.2 6.0 0.3 6.35 L0.05 6.55 Q-0.1 6.7 -0.2 6.9 L0.15 6.85 0.35 6.85 0.5 6.8 M0.5 7.85 L0.45 7.9 0.45 8.1 0.4 8.15 0.35 8.2 0.2 8.25 Q0.0 8.25 -0.05 8.3 -0.15 8.4 -0.15 8.65 -0.25 8.85 -0.1 9.25 L-0.05 9.4 0.0 9.4 0.0 9.25 Q0.05 8.25 0.05 8.9 L0.05 9.6 0.0 9.75 Q0.0 9.85 0.15 9.9 0.25 9.9 0.25 9.6 L0.2 9.3 0.1 8.8 0.1 8.6 Q0.15 8.4 0.3 8.5 L0.3 9.15 0.4 9.4 0.4 9.55 0.45 9.8 0.45 9.9 0.4 9.95 Q0.35 9.95 0.3 9.85 L0.25 9.65 0.25 9.85 0.3 9.85 0.3 9.95 0.35 10.4 0.3 10.6 0.35 10.75 0.4 10.85 0.4 10.9 0.25 10.9 Q0.25 10.9 0.25 11.0 L0.25 11.2 0.15 11.35 0.1 11.25 0.1 11.05 0.1 10.8 0.1 10.65 0.0 9.95 0.0 10.65 Q-0.05 10.45 -0.15 10.45 L-0.25 10.6 -0.25 10.65 -0.3 10.75 -0.4 11.15 Q-0.45 11.15 -0.45 11.2 L-0.6 11.4 -0.7 11.4 Q-0.75 11.45 -0.75 11.5 -0.75 11.65 -0.6 11.65 L-0.4 11.75 Q-0.3 11.85 -0.1 11.9 L-0.05 11.9 0.1 11.9 0.25 11.85 0.35 11.9 0.6 11.8 0.65 11.8 0.6 11.9 0.6 11.95 0.55 11.95 0.2 12.0 -0.05 12.05 -0.3 12.0 -0.55 12.0 -0.85 11.7 -0.8 11.4 Q-0.55 11.05 -0.4 10.6 L-0.4 10.6 -0.35 10.4 -0.3 9.95 -0.25 9.55 -0.25 9.5 -0.25 9.4 -0.3 9.4 -0.3 9.4 -0.3 9.55 -0.35 10.0 -0.45 9.95 -0.45 9.85 -0.4 9.6 -0.4 9.55 -0.35 9.45 -0.4 9.45 -0.35 9.2 -0.35 8.35 Q-0.7 7.85 -0.25 7.75 L0.35 7.85 0.5 7.85 M-0.5 8.3 L-0.5 8.3 -0.5 8.25 -0.5 8.3 M-2.3 -1.9 L-2.2 -3.55 -2.15 -3.45 -2.15 -3.05 -2.05 -3.1 -2.1 -3.0 -2.05 -2.9 -2.05 -2.85 -1.65 -2.95 -1.3 -2.85 -1.25 -2.85 -1.95 -2.15 Q-2.0 -2.15 -2.0 -2.15 L-2.3 -1.9 M0.1 -19.05 L0.1 -19.05 M-0.15 -18.95 L-0.15 -18.95 M0.5 -18.1 L0.45 -18.1 Q0.2 -17.95 0.15 -17.85 L0.15 -17.65 0.55 -17.65 0.7 -17.65 0.9 -17.65 1.0 -17.75 1.0 -17.8 0.8 -18.25 0.7 -18.2 0.5 -18.1 M-0.5 -14.05 Q-0.45 -14.2 -0.35 -14.25 L-0.3 -14.35 -0.3 -14.4 Q-0.3 -14.4 -0.25 -14.4 L-0.2 -14.35 -0.15 -14.35 -0.15 -14.3 -0.35 -14.25 -0.4 -14.1 -0.5 -14.05 M-0.4 -9.0 Q-0.35 -9.05 -0.25 -9.05 0.05 -9.05 0.4 -9.2 L0.7 -9.3 0.95 -9.3 Q0.95 -9.05 1.0 -8.95 1.05 -8.85 1.05 -8.7 1.05 -8.6 1.15 -8.55 1.25 -8.45 1.35 -8.45 L1.3 -8.15 1.3 -8.15 1.15 -7.75 0.85 -7.75 0.85 -7.65 0.9 -7.55 0.9 -7.45 0.7 -7.45 0.4 -7.4 -0.3 -7.3 -0.75 -7.3 -0.7 -7.4 -0.8 -7.4 -0.85 -7.65 -0.85 -7.75 -0.3 -7.95 0.05 -8.15 -0.2 -8.3 Q-0.4 -8.45 -0.5 -8.5 L-0.5 -8.8 -0.4 -9.0 M-0.7 -6.7 L-0.05 -6.9 0.7 -7.05 0.75 -7.1 0.75 -7.05 0.7 -6.85 0.65 -6.8 0.6 -6.75 0.6 -6.7 0.65 -6.55 0.6 -6.45 0.3 -6.15 0.1 -5.95 -0.15 -5.65 -0.2 -5.55 -0.2 -5.65 -0.35 -6.0 -0.5 -6.35 -0.7 -6.7 M-0.95 -16.25 L-0.9 -16.3 -0.75 -16.35 Q-0.85 -16.25 -0.95 -16.25 M-1.8 -13.0 L-1.75 -12.55 -1.85 -12.05 -1.8 -11.9 -1.8 -11.85 -1.7 -11.75 Q-1.55 -11.75 -1.4 -11.9 L-1.05 -12.25 Q-0.8 -12.6 -0.65 -12.9 -0.85 -13.0 -1.15 -13.05 -1.55 -13.05 -1.55 -13.25 -1.8 -13.15 -1.8 -13.0 M-0.35 -12.1 L-0.55 -12.4 -0.75 -12.15 -0.9 -11.9 -0.95 -11.85 Q-0.9 -11.8 -0.6 -11.75 L-0.35 -11.7 Q-0.25 -11.8 -0.3 -11.9 L-0.35 -12.1 M-0.45 -11.55 L-0.8 -11.75 -0.9 -11.2 Q-0.5 -11.25 -0.35 -11.45 L-0.45 -11.55 M-0.85 -7.8 L-0.9 -8.0 -0.85 -7.95 -0.85 -7.8 M-1.2 -4.35 L-1.25 -4.25 -1.3 -4.25 -1.2 -4.35" fill="#58b7ce" fill-rule="evenodd" stroke="none"/>
    <path d="M2.2 -13.8 L2.25 -13.55 2.25 -13.35 2.25 -12.6 2.35 -12.6 2.4 -12.65 2.5 -11.7 2.35 -11.4 2.25 -11.1 2.25 -11.0 2.1 -11.05 Q2.05 -11.1 1.95 -11.1 L1.8 -11.05 1.6 -11.0 1.45 -11.15 1.4 -11.15 1.05 -11.65 0.85 -11.9 0.7 -12.1 0.55 -12.25 Q0.55 -12.35 0.7 -12.55 L0.85 -12.7 1.15 -12.95 1.8 -13.4 2.0 -13.55 2.2 -13.8 M2.35 -10.3 L2.35 -10.2 2.35 -10.3 M2.2 -9.95 L2.15 -9.8 Q2.15 -9.7 2.25 -9.55 L2.0 -9.45 Q1.8 -9.35 1.75 -9.3 1.75 -9.15 1.95 -9.15 L2.2 -9.15 2.4 -9.1 2.35 -8.25 2.35 -8.65 2.25 -8.65 2.0 -8.35 1.75 -8.35 1.75 -8.5 Q1.55 -8.55 1.5 -8.4 1.45 -8.2 1.3 -8.1 L1.3 -8.15 1.3 -8.15 1.35 -8.45 Q1.25 -8.45 1.15 -8.55 1.05 -8.6 1.05 -8.7 1.05 -8.85 1.0 -8.95 0.95 -9.05 0.95 -9.3 L0.95 -9.35 0.8 -9.35 0.7 -9.4 0.6 -9.4 0.6 -9.6 0.7 -9.6 1.1 -9.8 Q1.3 -9.9 1.4 -10.0 L1.5 -10.05 1.55 -10.15 1.55 -10.2 1.75 -10.05 1.8 -10.05 1.85 -10.25 1.8 -10.4 1.65 -10.6 1.7 -10.85 Q1.8 -10.85 2.0 -10.75 L2.25 -10.55 2.2 -10.45 2.15 -10.4 2.1 -9.95 2.2 -9.95 M2.3 -7.8 L2.3 -7.65 2.3 -7.7 2.3 -7.8 M2.25 -5.75 L2.25 -5.7 2.15 -5.65 1.75 -5.45 1.45 -5.45 1.45 -5.55 1.55 -5.65 1.7 -5.95 1.9 -6.4 2.15 -5.9 2.25 -5.75 M1.8 2.45 Q1.8 2.65 1.85 2.8 L1.9 2.9 1.8 3.0 1.6 3.05 1.55 3.05 1.5 3.05 1.4 3.0 1.35 3.0 1.2 2.9 1.15 2.8 Q1.1 2.7 1.15 2.6 L1.2 2.55 Q1.3 2.45 1.45 2.4 L1.8 2.45 M-1.75 2.8 Q-1.7 2.6 -1.65 2.2 L-1.55 1.3 -1.55 1.25 -1.55 1.2 Q-1.45 1.4 -1.5 1.75 -1.55 2.15 -1.5 2.3 -1.2 2.35 -1.25 2.15 L-1.35 1.75 Q-1.0 1.4 -0.95 0.8 L-0.95 0.7 -1.45 0.25 -1.65 0.05 -1.7 -0.2 -1.65 -0.2 Q-1.5 -0.3 -1.4 -0.35 L-1.35 -0.3 -1.1 0.2 -0.95 0.45 -0.8 0.7 -0.6 1.05 -0.15 1.45 0.05 1.65 -0.1 1.95 Q-0.2 2.0 -0.35 2.15 -0.5 2.3 -0.5 2.45 -0.5 2.35 -0.5 2.1 -0.45 1.85 -0.55 1.75 L-0.55 2.15 Q-0.55 2.4 -0.65 2.55 -0.6 2.4 -0.7 2.25 -0.8 2.15 -0.8 2.45 L-1.0 2.45 -0.9 2.5 Q-0.7 2.65 -0.8 2.75 L-0.8 2.75 Q-0.9 2.85 -1.05 2.9 L-1.1 2.9 -1.45 2.95 -1.6 2.9 Q-1.7 2.85 -1.75 2.8 L-1.75 2.8 M-2.35 -0.75 Q-2.3 -0.8 -2.35 -0.8 -2.25 -0.8 -2.3 -0.95 L-2.3 -1.05 -2.2 -1.0 Q-2.2 -1.0 -2.15 -1.0 L-2.15 -1.05 -2.1 -1.15 -2.35 -1.2 -2.4 -1.3 -2.35 -1.55 Q-2.15 -1.6 -1.95 -1.8 L-1.65 -2.15 -1.65 -2.25 -1.8 -2.15 -2.2 -1.85 -2.35 -1.75 -2.3 -1.9 -2.0 -2.15 Q-2.0 -2.15 -1.95 -2.15 L-1.25 -2.85 -0.5 -2.75 -0.45 -2.9 0.1 -2.15 0.2 -2.05 0.2 -2.05 Q0.45 -1.75 0.7 -1.6 0.9 -1.5 1.15 -1.5 L1.15 -1.5 1.0 -1.15 0.95 -0.95 0.95 -0.95 Q0.95 -0.95 0.9 -1.0 L0.8 -0.85 0.7 -0.95 0.7 -1.0 Q0.6 -1.1 0.65 -1.3 L0.4 -1.25 Q0.35 -1.25 0.25 -1.35 L0.15 -1.45 0.15 -1.65 Q0.05 -1.65 0.0 -1.7 L-0.05 -1.8 -0.1 -1.9 -0.1 -2.35 -0.25 -2.15 -0.25 -2.15 -0.35 -2.0 -0.3 -1.9 -0.25 -1.75 -0.25 -1.7 -0.3 -1.7 -0.4 -1.6 -0.45 -1.5 -0.65 -1.55 -0.65 -1.8 -0.7 -2.0 -0.65 -2.15 -0.45 -2.45 -0.7 -2.65 Q-0.85 -2.5 -0.85 -2.2 L-0.85 -1.8 -0.8 -1.45 -0.8 -1.25 -0.9 -1.75 Q-1.0 -1.7 -1.0 -1.5 L-1.05 -1.25 -1.05 -1.25 -1.1 -1.2 Q-1.15 -1.25 -1.2 -1.45 L-1.2 -1.7 -1.25 -1.7 -1.35 -1.7 -1.55 -1.6 -1.65 -1.7 Q-1.65 -1.8 -1.75 -1.8 L-1.9 -1.75 -2.0 -1.7 -2.05 -1.7 -1.8 -1.1 -1.8 -1.1 -1.85 -0.75 -1.7 -0.7 -1.75 -0.6 -1.9 -0.6 Q-1.95 -0.6 -2.05 -0.65 -2.15 -0.7 -2.25 -0.7 L-2.35 -0.75 M0.65 -6.55 L0.65 -6.45 0.7 -6.25 0.8 -5.65 0.85 -5.4 Q1.05 -4.45 1.25 -4.0 L1.15 -4.0 0.7 -4.0 0.0 -4.1 0.2 -4.85 0.25 -5.65 0.3 -5.75 Q0.3 -5.85 0.2 -5.9 L0.1 -5.95 0.3 -6.15 0.6 -6.45 0.65 -6.55 M1.75 -1.6 L1.6 -0.95 1.5 -1.05 1.3 -1.25 Q1.2 -1.35 1.2 -1.5 L1.4 -1.5 Q1.65 -1.55 1.75 -1.6 M1.45 -0.35 L1.35 0.0 Q1.3 0.0 1.25 -0.05 L1.05 -0.15 1.1 -0.35 1.2 -0.5 Q1.3 -0.5 1.35 -0.4 L1.45 -0.35 M1.25 0.55 L1.05 1.2 1.05 1.25 0.95 1.5 1.15 1.55 1.4 1.0 Q1.4 1.5 1.15 1.85 0.8 2.1 0.95 2.6 0.85 2.45 0.85 2.15 L0.8 1.75 0.9 1.9 0.9 1.75 0.95 1.5 0.75 1.45 0.7 1.45 0.75 1.1 0.85 0.5 0.9 0.3 Q1.0 0.3 1.1 0.4 L1.25 0.55 M0.0 -1.45 L-0.05 -1.15 0.0 -0.7 -0.15 -0.95 Q-0.2 -0.9 -0.2 -0.7 L-0.2 -0.7 -0.25 -0.7 -0.45 -0.9 -0.45 -1.1 -0.45 -1.25 Q-0.4 -1.25 -0.35 -1.4 -0.3 -1.55 -0.2 -1.55 L-0.05 -1.5 0.0 -1.45 M0.05 -0.25 L0.1 0.2 0.1 0.3 0.25 1.7 0.15 1.75 0.1 1.7 0.05 1.6 -0.15 0.9 -0.3 0.4 -0.35 0.2 -0.5 -0.2 -0.55 -0.4 -0.55 -0.4 -0.35 -0.35 Q-0.15 -0.25 0.0 -0.25 L0.05 -0.25 M-0.85 -7.75 L-0.85 -7.8 -0.85 -7.95 -0.65 -8.5 -0.5 -8.5 Q-0.4 -8.45 -0.2 -8.3 L0.05 -8.15 -0.3 -7.95 -0.85 -7.75" fill="#2e91a8" fill-rule="evenodd" stroke="none"/>
    <path d="M2.25 -11.0 L2.3 -10.7 2.4 -10.35 2.35 -10.3 2.35 -10.2 2.25 -10.05 2.2 -9.95 2.1 -9.95 2.15 -10.4 2.2 -10.45 2.25 -10.55 2.0 -10.75 Q1.8 -10.85 1.7 -10.85 L1.65 -10.6 1.8 -10.4 1.85 -10.25 1.8 -10.05 1.75 -10.05 1.55 -10.2 1.55 -10.15 1.5 -10.05 1.4 -10.0 1.35 -10.0 1.25 -10.15 1.25 -10.15 Q1.35 -10.2 1.4 -10.45 L1.4 -10.8 1.25 -10.8 1.25 -11.05 1.3 -11.1 Q1.3 -11.15 1.4 -11.15 L1.45 -11.15 1.6 -11.0 1.8 -11.05 1.95 -11.1 Q2.05 -11.1 2.1 -11.05 L2.25 -11.0 M1.5 3.05 L1.2 3.05 0.95 2.95 0.7 3.35 0.7 3.4 0.65 3.4 0.55 3.4 Q0.4 4.1 0.35 4.9 L0.3 5.45 0.35 5.85 0.45 6.5 0.5 6.8 0.35 6.85 0.15 6.85 -0.2 6.9 Q-0.1 6.7 0.05 6.55 L0.3 6.35 Q0.2 6.0 0.25 5.35 L0.3 4.3 0.3 4.2 Q0.35 3.65 0.3 3.3 L0.3 3.25 0.25 3.15 0.25 3.05 0.2 2.9 0.35 3.0 Q0.5 3.0 0.65 2.9 L0.7 2.85 0.7 2.7 Q0.65 2.6 0.5 2.5 L-0.1 2.5 Q-0.25 2.5 -0.4 2.65 -0.5 2.8 -0.35 2.85 L-0.25 2.9 Q-0.2 3.0 -0.1 3.0 L-0.15 3.1 -0.2 3.05 -0.25 3.3 -0.35 3.45 -0.35 3.75 -0.3 5.05 Q-0.25 6.75 -0.55 7.6 -0.45 7.55 -0.2 7.6 L0.15 7.6 0.35 7.5 Q0.55 7.35 0.55 6.9 L0.55 7.05 0.6 7.2 0.5 7.85 0.35 7.85 -0.25 7.75 Q-0.7 7.85 -0.35 8.35 L-0.35 9.2 -0.4 9.45 -0.35 9.45 -0.4 9.55 -0.4 9.6 -0.45 9.85 -0.45 9.95 -0.35 10.0 -0.3 9.55 -0.3 9.4 -0.3 9.4 -0.25 9.4 -0.25 9.5 -0.25 9.55 -0.3 9.95 -0.35 10.4 -0.4 10.6 -0.4 10.35 -0.5 10.0 -0.5 9.9 -0.45 9.55 -0.45 8.85 -0.5 8.3 -0.5 8.25 -0.55 7.9 -0.65 7.2 -0.55 6.5 Q-0.4 5.75 -0.4 5.45 -0.4 4.5 -0.55 3.7 L-0.5 3.6 -0.6 3.4 -0.85 2.95 -0.7 2.9 Q-0.65 2.85 -0.6 2.8 L-0.2 2.2 Q0.05 1.9 0.35 2.05 L0.6 2.05 0.7 2.15 0.75 2.2 Q0.75 2.3 0.7 2.4 L0.5 2.45 0.7 2.55 0.85 2.7 Q0.9 2.8 1.0 2.85 L1.05 2.85 1.1 2.9 1.35 3.0 1.4 3.0 1.5 3.05 M0.45 8.1 L0.4 8.5 0.35 8.8 0.35 9.0 0.4 9.4 0.3 9.15 0.3 8.5 Q0.15 8.4 0.1 8.6 L0.1 8.8 0.2 9.3 0.25 9.6 Q0.25 9.9 0.15 9.9 0.0 9.85 0.0 9.75 L0.05 9.6 0.05 8.9 Q0.05 8.25 0.0 9.25 L0.0 9.4 -0.05 9.4 -0.1 9.25 Q-0.25 8.85 -0.15 8.65 -0.15 8.4 -0.05 8.3 0.0 8.25 0.2 8.25 L0.35 8.2 0.4 8.15 0.45 8.1 M0.4 10.85 L0.6 11.2 0.6 11.25 0.7 11.4 0.75 11.4 0.6 11.45 0.45 11.45 0.2 11.45 0.1 11.45 -0.1 11.45 -0.35 11.45 -0.6 11.4 -0.6 11.4 -0.45 11.2 Q-0.45 11.15 -0.4 11.15 L-0.2 11.05 Q-0.3 11.2 -0.2 11.25 L0.0 11.3 0.05 11.3 0.05 11.05 0.0 10.85 0.0 10.65 0.0 10.65 0.0 9.95 0.1 10.65 0.1 10.8 0.1 11.05 0.1 11.25 0.15 11.35 0.25 11.2 0.25 11.0 Q0.25 10.9 0.25 10.9 L0.4 10.9 0.4 10.85 M0.75 11.5 L0.8 11.7 0.75 11.85 0.6 11.95 0.6 11.9 0.65 11.8 0.7 11.7 0.75 11.5 M0.75 1.45 L0.95 1.5 0.9 1.75 0.9 1.9 0.8 1.75 0.75 1.45 M0.6 3.15 L0.55 3.4 0.6 3.15" fill="#286571" fill-rule="evenodd" stroke="none"/>
    <path d="M2.25 -9.55 L2.25 -9.55 Q2.4 -9.35 2.4 -9.25 L2.4 -9.1 2.2 -9.15 1.95 -9.15 Q1.75 -9.15 1.75 -9.3 1.8 -9.35 2.0 -9.45 L2.25 -9.55" fill="#8decff" fill-rule="evenodd" stroke="none"/>
    <path d="M2.3 -7.65 L2.25 -6.55 2.1 -6.5 Q1.85 -6.45 1.65 -6.2 L1.85 -6.6 2.05 -7.0 2.05 -7.1 2.3 -7.7 2.3 -7.65 M2.4 -2.5 L2.45 -1.45 2.45 -1.4 2.05 -0.45 Q1.8 -0.4 1.75 0.2 L1.6 0.55 1.4 1.0 1.15 1.55 0.95 1.5 1.05 1.25 1.05 1.2 1.25 0.55 1.3 0.35 1.35 0.2 1.35 0.0 1.45 -0.35 1.5 -0.45 1.6 -0.95 1.75 -1.6 1.8 -1.65 2.1 -2.15 2.35 -2.55 2.4 -2.5 M0.95 -0.95 L1.05 -0.9 1.1 -0.8 0.9 0.2 0.9 0.3 0.85 0.5 0.75 1.1 0.7 1.45 0.5 1.4 0.25 1.7 0.1 0.3 0.1 0.2 0.05 -0.25 0.0 -0.65 0.0 -0.7 -0.05 -1.15 0.0 -1.45 0.0 -1.55 0.15 -1.45 0.25 -1.35 Q0.35 -1.25 0.4 -1.25 L0.65 -1.3 Q0.6 -1.1 0.7 -1.0 L0.7 -0.95 0.8 -0.85 0.9 -1.0 Q0.95 -0.95 0.95 -0.95 M-0.55 -0.4 L-0.5 -0.2 -0.35 0.2 -0.3 0.4 -0.15 0.9 0.05 1.6 0.1 1.7 0.05 1.65 -0.15 1.45 -0.6 0.2 -1.0 -1.15 Q-0.95 -1.2 -1.05 -1.2 L-1.25 -1.05 -1.25 -1.3 -1.3 -1.35 -1.45 -1.15 -1.2 -0.5 -1.05 -0.05 -0.95 0.2 -0.9 0.35 -0.8 0.7 -0.95 0.45 -1.1 0.2 -1.35 -0.3 -1.4 -0.35 -1.8 -1.1 -2.05 -1.7 -2.0 -1.7 -1.9 -1.75 -1.75 -1.8 Q-1.65 -1.8 -1.65 -1.7 L-1.55 -1.6 -1.35 -1.7 -1.25 -1.7 -1.2 -1.7 -1.2 -1.45 Q-1.15 -1.25 -1.1 -1.2 L-1.05 -1.25 -1.05 -1.25 -1.0 -1.5 Q-1.0 -1.7 -0.9 -1.75 L-0.8 -1.25 -0.75 -1.05 -0.55 -0.4" fill="#356e7a" fill-rule="evenodd" stroke="none"/>
    <path d="M0.1 -5.95 L0.2 -5.9 Q0.3 -5.85 0.3 -5.75 L0.25 -5.65 0.2 -4.85 0.0 -4.1 -0.2 -4.1 -0.3 -4.15 -1.25 -4.25 -1.2 -4.35 -0.8 -4.8 Q-0.2 -5.4 -0.2 -5.55 L-0.2 -5.55 -0.15 -5.65 0.1 -5.95" fill="#72d1e8" fill-rule="evenodd" stroke="none"/>
    <path d="M1.6 0.55 L1.6 0.6 1.65 1.2 1.65 1.3 1.7 1.95 1.75 2.2 1.8 2.45 1.45 2.4 Q1.3 2.45 1.2 2.55 L1.15 2.6 Q1.1 2.7 1.15 2.8 L1.2 2.9 1.35 3.0 1.1 2.9 1.05 2.85 1.0 2.85 Q0.9 2.8 0.85 2.7 L0.7 2.55 0.5 2.45 0.7 2.4 Q0.75 2.3 0.75 2.2 L0.7 2.15 0.6 2.05 0.35 2.05 Q0.05 1.9 -0.2 2.2 L-0.6 2.8 Q-0.65 2.85 -0.7 2.9 L-0.85 2.95 -0.95 3.0 -1.45 3.05 Q-1.7 3.0 -1.8 2.9 L-1.85 2.9 -1.75 2.8 -1.75 2.8 Q-1.7 2.85 -1.6 2.9 L-1.45 2.95 -1.1 2.9 -1.05 2.9 Q-0.9 2.85 -0.8 2.75 L-0.8 2.75 Q-0.7 2.65 -0.9 2.5 L-1.0 2.45 -0.8 2.45 Q-0.8 2.15 -0.7 2.25 -0.6 2.4 -0.65 2.55 -0.55 2.4 -0.55 2.15 L-0.55 1.75 Q-0.45 1.85 -0.5 2.1 -0.5 2.35 -0.5 2.45 -0.5 2.3 -0.35 2.15 -0.2 2.0 -0.1 1.95 L0.05 1.65 0.1 1.7 0.15 1.75 0.25 1.7 0.5 1.4 0.7 1.45 0.75 1.45 0.8 1.75 0.85 2.15 Q0.85 2.45 0.95 2.6 0.8 2.1 1.15 1.85 1.4 1.5 1.4 1.0 L1.6 0.55 M-1.55 1.2 L-1.5 0.6 -1.45 0.25 -0.95 0.7 -0.95 0.8 Q-1.0 1.4 -1.35 1.75 L-1.25 2.15 Q-1.2 2.35 -1.5 2.3 -1.55 2.15 -1.5 1.75 -1.45 1.4 -1.55 1.2 M1.45 -2.55 L1.0 -2.85 1.1 -2.95 1.25 -3.0 1.6 -2.8 1.65 -2.8 1.7 -2.85 1.75 -2.9 1.7 -3.1 1.7 -3.1 1.65 -3.3 1.7 -3.55 Q1.9 -3.45 2.0 -3.15 L2.15 -2.8 1.95 -2.55 1.75 -2.4 1.6 -2.45 1.45 -2.55" fill="#56b9bd" fill-rule="evenodd" stroke="none"/>
    <path d="M-1.7 -0.2 Q-1.8 -0.45 -1.95 -0.45 L-2.3 -0.7 Q-2.4 -0.7 -2.35 -0.75 L-2.35 -0.75 -2.25 -0.7 Q-2.15 -0.7 -2.05 -0.65 -1.95 -0.6 -1.9 -0.6 L-1.75 -0.6 -1.7 -0.7 -1.85 -0.75 -1.8 -1.1 -1.8 -1.1 -1.4 -0.35 Q-1.5 -0.3 -1.65 -0.2 L-1.7 -0.2 M-2.3 -1.05 L-2.35 -1.2 -2.1 -1.15 -2.15 -1.05 -2.15 -1.0 Q-2.2 -1.0 -2.2 -1.0 L-2.3 -1.05 M-2.35 -1.55 L-2.35 -1.75 -2.2 -1.85 -1.8 -2.15 -1.65 -2.25 -1.65 -2.15 -1.95 -1.8 Q-2.15 -1.6 -2.35 -1.55 M1.6 -0.95 L1.5 -0.45 1.45 -0.35 1.35 -0.4 Q1.3 -0.5 1.2 -0.5 L1.1 -0.35 1.05 -0.15 1.25 -0.05 Q1.3 0.0 1.35 0.0 L1.35 0.2 1.3 0.35 1.25 0.55 1.1 0.4 Q1.0 0.3 0.9 0.3 L0.9 0.2 1.1 -0.8 1.05 -0.9 0.95 -0.95 0.95 -0.95 1.0 -1.15 1.15 -1.5 Q1.2 -1.45 1.2 -1.5 1.2 -1.35 1.3 -1.25 L1.5 -1.05 1.6 -0.95 M-0.8 0.7 L-0.9 0.35 -0.95 0.2 -1.05 -0.05 -1.2 -0.5 -1.45 -1.15 -1.3 -1.35 -1.25 -1.3 -1.25 -1.05 -1.05 -1.2 Q-0.95 -1.2 -1.0 -1.15 L-0.6 0.2 -0.15 1.45 -0.6 1.05 -0.8 0.7" fill="#124454" fill-rule="evenodd" stroke="none"/>
    <path d="M-2.2 -4.4 L-2.15 -5.05 Q-1.7 -5.3 -1.05 -5.65 L-0.35 -6.0 -0.2 -5.65 -0.2 -5.55 -0.2 -5.55 Q-0.2 -5.4 -0.8 -4.8 L-1.2 -4.35 -1.3 -4.25 -1.85 -3.65 -1.9 -3.65 -2.2 -4.4 M-2.15 -7.1 L-2.2 -7.7 -1.9 -7.2 Q-2.0 -7.15 -2.1 -7.1 L-2.15 -7.1 M-0.35 2.85 Q-0.35 2.7 -0.3 2.7 L-0.1 2.75 Q-0.3 2.65 -0.15 2.55 L0.2 2.5 0.25 2.75 -0.35 2.85 M0.3 2.75 L0.35 2.7 0.35 2.55 Q0.65 2.65 0.35 2.75 L0.3 2.75 M0.0 10.85 L0.05 11.05 -0.15 11.1 -0.2 11.05 -0.15 10.95 -0.15 10.9 -0.1 10.8 -0.05 10.7 0.0 10.85 M-0.35 11.45 L-0.1 11.45 0.1 11.45 0.2 11.45 0.45 11.45 0.4 11.5 Q0.35 11.65 0.3 11.6 L0.3 11.65 0.45 11.75 0.6 11.8 0.3 11.8 0.1 11.8 0.0 11.8 -0.2 11.75 -0.2 11.7 0.05 11.7 0.05 11.65 -0.15 11.55 -0.2 11.55 Q-0.3 11.5 -0.35 11.45" fill="#ccffff" fill-rule="evenodd" stroke="none"/>
    <path d="M0.25 2.75 L0.3 2.75 Q0.3 2.85 0.25 2.75" fill="#a6a5a7" fill-rule="evenodd" stroke="none"/>
    <path d="M0.4 9.95 L0.4 10.0 0.35 10.35 0.35 10.4 0.3 9.95 0.3 9.85 0.25 9.85 0.25 9.65 0.3 9.85 Q0.35 9.95 0.4 9.95" fill="#373737" fill-rule="evenodd" stroke="none"/>
    <path d="M0.75 11.4 L0.75 11.5 0.7 11.7 0.65 11.8 0.6 11.8 0.45 11.75 0.3 11.65 0.3 11.6 Q0.35 11.65 0.4 11.5 L0.45 11.45 0.6 11.45 0.75 11.4 M0.0 10.65 L0.0 10.65 0.0 10.85 -0.05 10.7 -0.1 10.8 -0.15 10.9 -0.15 10.95 -0.2 11.05 -0.15 11.1 0.05 11.05 0.05 11.3 0.0 11.3 -0.2 11.25 Q-0.3 11.2 -0.2 11.05 L-0.4 11.15 -0.3 10.75 -0.25 10.65 -0.25 10.6 -0.15 10.45 Q-0.05 10.45 0.0 10.65 M-0.6 11.4 L-0.6 11.4 -0.35 11.45 Q-0.3 11.5 -0.2 11.55 L-0.15 11.55 0.05 11.65 0.05 11.7 -0.2 11.7 -0.2 11.75 0.0 11.8 0.1 11.8 0.3 11.8 0.6 11.8 0.35 11.9 0.25 11.85 0.1 11.9 -0.05 11.9 -0.1 11.9 Q-0.3 11.85 -0.4 11.75 L-0.6 11.65 Q-0.75 11.65 -0.75 11.5 -0.75 11.45 -0.7 11.4 L-0.6 11.4" fill="#8afaff" fill-rule="evenodd" stroke="none"/>
    <path d="M0.15 -31.7 L0.3 -30.5 0.55 -28.7 0.55 -28.6 0.8 -26.65 0.8 -26.5 0.95 -25.35 1.0 -25.05 1.4 -21.8 1.6 -20.2 1.65 -19.9 1.5 -19.75 Q1.3 -19.5 1.3 -19.3 L1.35 -19.1 1.65 -17.15 1.75 -16.6 1.75 -16.5 1.8 -16.15 1.85 -16.0 1.9 -15.75 2.0 -14.9 2.1 -14.45 2.2 -13.8 2.25 -13.55 2.25 -13.35 2.4 -12.65 2.5 -11.7 2.35 -11.4 2.25 -11.1 2.25 -11.0 2.3 -10.7 2.4 -10.35 2.35 -10.3 2.35 -10.2 2.25 -10.05 2.2 -9.95 2.15 -9.8 Q2.15 -9.7 2.25 -9.55 L2.25 -9.55 Q2.4 -9.35 2.4 -9.25 L2.4 -9.1 2.35 -8.25 2.3 -7.8 2.3 -7.65 2.25 -6.55 2.25 -5.75 2.25 -5.7 2.25 -4.7 2.3 -4.05 2.3 -3.85 2.3 -3.5 2.4 -2.5 2.45 -1.45 2.45 -1.4 2.05 -0.45 Q1.8 -0.4 1.75 0.2 L1.6 0.55 1.6 0.6 1.65 1.2 1.65 1.3 1.7 1.95 1.75 2.2 1.8 2.45 Q1.8 2.65 1.85 2.8 L1.9 2.9 1.8 3.0 1.6 3.05 1.55 3.05 1.5 3.05 1.2 3.05 0.95 2.95 0.7 3.35 0.7 3.4 M0.55 3.4 Q0.4 4.1 0.35 4.9 L0.3 5.45 0.35 5.85 0.45 6.5 0.5 6.8 0.5 6.85 0.55 6.9 0.55 7.05 0.6 7.2 0.5 7.85 0.45 7.9 0.45 8.1 0.4 8.5 0.35 8.8 0.35 9.0 0.4 9.4 0.4 9.55 0.45 9.8 0.45 9.9 0.4 9.95 0.4 10.0 0.35 10.35 0.35 10.4 0.3 10.6 0.35 10.75 0.4 10.85 0.6 11.2 0.6 11.25 0.7 11.4 0.75 11.4 0.75 11.5 0.8 11.7 0.75 11.85 0.6 11.95 0.55 11.95 0.2 12.0 -0.05 12.05 -0.3 12.0 -0.55 12.0 M-0.85 11.7 L-0.8 11.4 Q-0.55 11.05 -0.4 10.6 L-0.4 10.6 -0.4 10.35 -0.5 10.0 -0.5 9.9 -0.45 9.55 -0.45 8.85 -0.5 8.3 -0.5 8.3 -0.5 8.25 -0.55 7.9 -0.65 7.2 -0.55 6.5 Q-0.4 5.75 -0.4 5.45 -0.4 4.5 -0.55 3.7 M-0.5 3.6 L-0.6 3.4 -0.85 2.95 -0.95 3.0 -1.45 3.05 Q-1.7 3.0 -1.8 2.9 L-1.85 2.9 -1.75 2.8 Q-1.7 2.6 -1.65 2.2 L-1.55 1.3 -1.55 1.25 -1.55 1.2 -1.5 0.6 -1.45 0.25 -1.65 0.05 -1.7 -0.2 Q-1.8 -0.45 -1.95 -0.45 L-2.3 -0.7 Q-2.4 -0.7 -2.35 -0.75 L-2.35 -0.75 Q-2.3 -0.8 -2.35 -0.8 -2.25 -0.8 -2.3 -0.95 L-2.3 -1.05 -2.35 -1.2 -2.4 -1.3 -2.35 -1.55 -2.35 -1.75 -2.3 -1.9 -2.2 -3.55 -2.2 -4.4 -2.15 -5.05 -2.15 -6.25 -2.15 -6.7 -2.15 -7.1 -2.2 -7.7 -2.2 -7.85 -2.3 -9.15 -2.3 -9.25 -2.3 -9.25 Q-2.3 -9.35 -2.15 -9.55 -2.05 -9.7 -2.05 -9.8 L-2.15 -10.05 -2.3 -10.35 -2.2 -10.7 -2.15 -11.1 -2.15 -11.1 -2.25 -11.4 -2.4 -11.7 -2.35 -12.15 -2.3 -12.55 -2.2 -13.05 -2.15 -13.55 -2.1 -13.7 -2.05 -14.0 -1.9 -14.95 -1.9 -15.05 -1.8 -15.7 -1.8 -15.75 -1.7 -16.2 -1.6 -16.8 -1.6 -17.0 -1.45 -17.85 -1.3 -18.7 -1.2 -19.3 Q-1.2 -19.5 -1.35 -19.7 L-1.4 -19.75 -1.4 -19.75 -1.3 -20.75 -1.25 -21.0 -0.75 -25.15 -0.7 -25.45 -0.7 -25.7 -0.45 -27.55 -0.4 -28.1 -0.25 -29.2 -0.2 -29.55 0.1 -32.1 0.15 -31.7 M-0.25 -29.3 L-0.25 -29.2 M0.55 3.4 L0.6 3.15 M-0.25 -29.3 L-0.2 -29.55 M-0.4 -28.1 L-0.4 -27.85 -0.45 -27.55 M-0.7 -25.45 L-0.7 -25.7 M-0.7 -25.45 L-0.75 -25.15 M-1.25 -21.0 L-1.25 -20.95 -1.3 -20.75" fill="none" stroke="#000000" stroke-linecap="round" stroke-linejoin="round" stroke-opacity="0.4509804" stroke-width="0.1"/>
  </g>
</svg>
