<?xml version="1.0" encoding="UTF-8" standalone="no"?>
<svg xmlns:xlink="http://www.w3.org/1999/xlink" height="37.35px" width="8.05px" xmlns="http://www.w3.org/2000/svg">
  <g transform="matrix(1.0, 0.0, 0.0, 1.0, 4.15, 24.35)">
    <path d="M0.25 -20.3 L0.3 -20.5 0.25 -20.6 0.15 -20.55 0.0 -20.6 0.1 -20.65 0.2 -20.7 0.2 -20.8 0.1 -20.8 0.1 -20.95 Q0.2 -20.95 0.2 -21.1 L0.2 -21.55 0.0 -21.75 0.15 -21.75 0.15 -21.9 0.1 -22.0 0.15 -22.2 0.05 -22.75 Q0.0 -23.1 -0.15 -23.25 -0.3 -23.1 -0.35 -22.75 L-0.4 -22.2 -0.35 -22.0 -0.4 -21.9 -0.45 -21.75 -0.3 -21.75 Q-0.35 -21.6 -0.45 -21.55 L-0.5 -21.4 -0.5 -21.1 Q-0.5 -20.95 -0.35 -20.95 L-0.35 -20.8 -0.5 -20.8 -0.5 -20.7 -0.3 -20.6 -0.4 -20.55 -0.55 -20.6 -0.55 -20.3 -0.7 -20.3 -0.7 -20.5 -0.7 -20.3 -0.75 -20.3 -0.7 -20.5 -0.45 -23.65 -0.15 -24.35 0.2 -23.65 0.4 -20.7 0.45 -20.5 0.45 -20.3 0.25 -20.3" fill="#584227" fill-rule="evenodd" stroke="none"/>
    <path d="M-0.55 -20.3 L-0.55 -20.6 -0.4 -20.55 -0.3 -20.6 -0.5 -20.7 -0.5 -20.8 -0.35 -20.8 -0.35 -20.95 Q-0.5 -20.95 -0.5 -21.1 L-0.5 -21.4 -0.45 -21.55 Q-0.35 -21.6 -0.3 -21.75 L-0.45 -21.75 -0.4 -21.9 -0.35 -22.0 -0.4 -22.2 -0.35 -22.75 Q-0.3 -23.1 -0.15 -23.25 0.0 -23.1 0.05 -22.75 L0.15 -22.2 0.1 -22.0 0.15 -21.9 0.15 -21.75 0.0 -21.75 0.2 -21.55 0.2 -21.1 Q0.2 -20.95 0.1 -20.95 L0.1 -20.8 0.2 -20.8 0.2 -20.7 0.1 -20.65 0.0 -20.6 0.15 -20.55 0.25 -20.6 0.3 -20.5 0.25 -20.3 -0.05 -20.3 -0.15 -20.3 -0.25 -20.3 -0.55 -20.3 M-0.25 -19.65 L-0.15 -19.65 -0.05 -19.65 -0.05 -19.45 -0.05 -19.45 -0.15 -19.65 -0.2 -19.45 -0.2 -19.45 -0.25 -19.65 M0.5 -19.6 L0.5 -19.5 0.5 -19.45 0.35 -19.4 Q0.25 -19.4 0.2 -19.5 L0.15 -19.65 0.45 -19.6 0.5 -19.6 M0.5 -19.35 L0.55 -18.85 0.55 -18.85 0.35 -18.8 0.15 -18.8 0.15 -18.8 Q0.15 -19.05 0.4 -19.2 L0.5 -19.35 M0.65 -17.45 L0.7 -17.25 0.7 -16.9 Q0.6 -16.8 0.65 -16.65 L0.5 -16.65 0.55 -16.8 0.5 -16.8 0.4 -16.75 0.35 -16.7 0.25 -16.8 0.3 -16.85 0.35 -16.85 0.35 -17.0 Q0.35 -17.05 0.5 -17.1 0.65 -17.2 0.65 -17.25 L0.65 -17.3 0.55 -17.3 0.5 -17.35 Q0.55 -17.45 0.65 -17.45 M0.8 -15.7 L0.85 -15.35 0.85 -15.05 0.85 -15.05 0.8 -15.0 Q0.6 -15.0 0.6 -15.1 L0.55 -15.35 0.75 -15.35 0.75 -15.45 Q0.6 -15.45 0.55 -15.5 L0.8 -15.7 M0.95 -14.15 L0.95 -13.6 0.9 -13.55 0.85 -13.6 0.8 -13.65 0.75 -13.65 0.7 -13.65 0.65 -13.65 0.75 -13.65 0.75 -13.65 0.8 -13.7 0.85 -13.9 0.85 -14.1 0.95 -14.15 M1.0 -13.15 L1.1 -12.25 0.9 -12.2 0.8 -12.2 Q0.75 -12.2 0.75 -12.3 0.95 -12.3 0.95 -12.5 L0.8 -12.85 0.9 -12.95 0.85 -13.0 0.75 -12.95 0.75 -13.05 0.8 -13.2 0.9 -13.2 1.0 -13.15 M1.15 -11.5 L1.15 -11.2 1.2 -10.45 0.95 -10.65 Q0.95 -10.65 0.9 -10.65 L0.8 -10.55 0.8 -10.6 0.75 -10.65 0.7 -10.65 0.6 -10.95 Q0.55 -11.15 0.4 -11.15 L0.25 -10.8 Q0.2 -10.95 0.1 -10.9 L0.25 -11.0 0.3 -11.1 0.2 -11.65 0.2 -11.75 0.05 -11.9 0.0 -11.85 0.05 -12.05 0.0 -12.25 0.05 -12.35 0.2 -12.5 0.3 -12.55 0.35 -12.65 0.25 -12.7 Q0.2 -12.75 0.15 -12.85 L0.2 -12.85 0.3 -12.75 0.45 -12.55 0.4 -12.55 0.5 -12.4 0.55 -12.25 0.5 -12.0 0.45 -11.95 0.4 -11.9 Q0.25 -11.85 0.25 -11.75 0.25 -11.7 0.3 -11.65 L0.55 -11.65 Q0.65 -11.65 0.65 -11.55 L0.5 -11.45 0.5 -11.45 0.55 -11.3 0.9 -11.15 0.85 -10.9 Q0.85 -10.7 0.9 -10.65 L0.9 -10.7 Q1.05 -10.75 1.1 -10.8 L1.15 -11.0 Q1.1 -11.1 0.9 -11.1 L0.9 -11.25 0.85 -11.4 1.05 -11.55 1.15 -11.5 M1.3 -9.65 L1.35 -8.85 1.3 -8.85 1.0 -8.8 1.0 -8.9 0.95 -8.95 0.95 -9.0 Q0.95 -9.15 1.05 -9.35 1.15 -9.55 1.15 -9.65 L1.3 -9.65 M1.35 -8.6 L1.45 -7.5 1.4 -7.45 Q1.3 -7.45 1.2 -7.5 L1.0 -7.6 0.95 -7.6 0.95 -7.65 1.0 -7.6 1.0 -7.65 1.2 -7.85 1.4 -7.9 1.4 -8.05 1.15 -8.0 Q1.1 -8.0 1.1 -8.05 L1.2 -8.15 Q1.1 -8.3 1.05 -8.45 L1.05 -8.45 Q1.1 -8.3 1.15 -8.25 L1.25 -8.45 1.35 -8.6 M1.8 -3.05 L1.8 -3.0 1.8 -2.95 1.75 -2.95 1.55 -2.75 1.45 -2.65 1.25 -2.9 1.2 -3.0 1.25 -3.1 1.45 -3.05 Q1.5 -3.05 1.5 -3.1 L1.55 -3.1 1.6 -3.05 1.7 -2.95 1.8 -3.05 M1.85 -2.05 L1.95 -1.15 Q2.0 -0.7 2.15 -0.25 2.05 -0.2 2.1 0.0 2.1 0.15 1.95 0.25 L1.9 0.1 1.8 -0.35 Q1.8 -0.45 1.9 -0.55 1.95 -0.7 1.95 -0.8 L1.85 -1.1 1.7 -1.3 1.85 -1.65 1.8 -1.85 1.85 -1.95 1.85 -2.05 M-2.4 -0.25 Q-2.3 -0.7 -2.2 -1.15 L-2.15 -2.0 -2.15 -2.05 -2.1 -1.95 -2.05 -1.85 -2.15 -1.65 -2.0 -1.3 -2.1 -1.1 -2.25 -0.8 -2.15 -0.55 Q-2.1 -0.45 -2.1 -0.35 L-2.2 0.1 -2.25 0.25 Q-2.35 0.15 -2.35 0.0 -2.35 -0.2 -2.4 -0.25 M-2.1 -2.95 L-2.05 -3.05 Q-2.05 -2.95 -1.95 -2.95 L-1.9 -3.05 -1.85 -3.1 -1.8 -3.1 Q-1.75 -3.05 -1.7 -3.05 L-1.55 -3.1 -1.5 -3.0 -1.55 -2.9 -1.75 -2.65 -1.8 -2.75 -2.05 -2.95 -2.1 -2.95 M-1.75 -7.5 L-1.7 -8.05 -1.65 -8.6 Q-1.55 -8.55 -1.5 -8.45 L-1.45 -8.25 Q-1.4 -8.3 -1.35 -8.45 L-1.35 -8.45 -1.5 -8.15 -1.4 -8.05 Q-1.4 -8.0 -1.4 -8.0 L-1.65 -8.05 -1.65 -7.9 -1.5 -7.85 -1.3 -7.65 -1.3 -7.6 -1.25 -7.65 -1.25 -7.6 -1.5 -7.5 Q-1.6 -7.45 -1.65 -7.45 L-1.7 -7.5 -1.7 -8.05 -1.7 -7.5 -1.75 -7.5 M-1.6 -8.85 L-1.55 -9.65 -1.4 -9.65 Q-1.45 -9.55 -1.35 -9.35 -1.2 -9.15 -1.2 -9.0 L-1.25 -8.95 -1.25 -8.9 -1.3 -8.8 -1.55 -8.85 -1.6 -8.85 -1.55 -9.65 -1.6 -8.85 -1.6 -8.85 M-1.5 -10.45 L-1.4 -11.5 -1.3 -11.55 -1.1 -11.4 -1.2 -11.25 -1.15 -11.1 Q-1.35 -11.1 -1.45 -11.0 L-1.4 -10.8 -1.2 -10.7 -1.2 -10.65 -1.25 -10.65 -1.5 -10.45 -1.5 -10.45 -1.4 -11.5 -1.4 -11.5 -1.5 -10.45 M-1.35 -12.25 L-1.3 -13.15 -1.2 -13.2 -1.05 -13.2 -1.05 -12.95 -1.15 -13.0 -1.2 -12.95 -1.1 -12.85 -1.2 -12.5 Q-1.2 -12.3 -1.0 -12.3 -1.05 -12.2 -1.05 -12.2 L-1.2 -12.2 -1.35 -12.25 -1.35 -12.25 -1.3 -13.15 -1.35 -12.25 M-1.25 -13.6 L-1.25 -13.75 -1.2 -14.15 -1.15 -14.1 -1.1 -13.9 -1.1 -13.7 -1.05 -13.65 -1.0 -13.65 -0.9 -13.65 -1.0 -13.65 -1.05 -13.65 -1.05 -13.65 -1.15 -13.6 -1.2 -13.55 -1.25 -13.6 M-1.15 -15.05 L-1.1 -15.3 -1.1 -15.7 -0.85 -15.5 Q-0.85 -15.45 -1.05 -15.45 L-1.05 -15.35 -0.85 -15.35 -0.85 -15.1 Q-0.9 -15.0 -1.05 -15.0 L-1.15 -15.05 -1.15 -15.05 -1.1 -15.3 -1.15 -15.05 M-1.0 -16.9 L-1.0 -17.05 -0.95 -17.45 -0.95 -17.45 Q-0.8 -17.45 -0.8 -17.35 L-0.8 -17.3 -0.9 -17.3 -0.9 -17.25 Q-0.9 -17.2 -0.75 -17.1 -0.6 -17.05 -0.6 -17.0 L-0.65 -16.85 -0.55 -16.85 -0.55 -16.8 -0.65 -16.7 -0.7 -16.75 -0.8 -16.8 -0.85 -16.8 -0.8 -16.65 -0.9 -16.65 Q-0.9 -16.8 -1.0 -16.9 M-0.85 -18.85 L-0.8 -19.3 -0.65 -19.2 Q-0.45 -19.05 -0.45 -18.8 L-0.45 -18.8 -0.65 -18.8 -0.8 -18.85 -0.85 -18.85 M-0.8 -19.45 L-0.8 -19.6 -0.7 -19.6 -0.4 -19.65 -0.45 -19.5 Q-0.5 -19.4 -0.6 -19.4 L-0.8 -19.45 M0.3 -18.0 L0.3 -18.0 0.3 -18.0 0.3 -18.0 M-0.1 -17.2 L-0.15 -17.2 -0.15 -17.2 -0.15 -17.25 -0.2 -17.45 -0.15 -17.55 -0.05 -17.45 -0.1 -17.25 -0.1 -17.2 M-0.6 -18.0 L-0.6 -18.0 -0.6 -18.0 -0.6 -18.0 M0.15 -17.2 L0.15 -17.25 0.25 -17.2 Q0.25 -17.1 0.2 -17.1 L0.2 -17.05 0.15 -17.1 0.15 -17.2 M0.2 -17.0 L0.3 -17.0 0.3 -16.9 0.2 -16.85 0.2 -17.0 M0.2 -16.35 Q0.35 -16.15 0.35 -16.1 L0.35 -16.05 0.2 -16.05 0.2 -16.35 M0.25 -15.95 L0.25 -15.95 0.25 -16.0 0.25 -15.95 M0.2 -15.65 L0.3 -15.2 0.25 -15.1 0.3 -15.0 0.3 -14.95 0.35 -14.9 0.35 -14.85 0.3 -14.9 0.2 -14.9 0.2 -14.9 0.2 -15.15 0.2 -15.3 0.15 -15.55 0.2 -15.6 0.2 -15.65 M0.35 -15.25 L0.3 -15.35 0.25 -15.6 0.3 -15.85 0.3 -15.85 0.4 -15.8 0.45 -15.75 0.45 -15.75 0.5 -15.75 0.5 -15.7 Q0.5 -15.6 0.4 -15.6 L0.4 -15.45 0.5 -15.35 0.55 -15.25 0.5 -15.1 0.5 -15.1 0.45 -15.15 0.5 -15.25 0.35 -15.25 0.35 -15.25 M-0.2 -17.15 L-0.3 -17.1 -0.4 -17.05 -0.45 -17.1 Q-0.55 -17.1 -0.55 -17.2 L-0.45 -17.25 -0.3 -17.15 -0.2 -17.15 M-0.4 -17.0 L-0.45 -16.85 -0.55 -16.9 -0.55 -17.0 -0.4 -17.0 M-0.3 -16.65 L-0.2 -16.65 -0.2 -16.55 -0.2 -16.45 -0.25 -16.3 -0.25 -16.25 -0.3 -16.15 -0.35 -16.1 -0.5 -16.05 -0.6 -16.05 -0.6 -16.1 Q-0.6 -16.15 -0.45 -16.35 -0.3 -16.5 -0.3 -16.6 L-0.3 -16.65 M0.2 -16.05 L0.2 -16.05 M-0.05 -15.75 L-0.15 -15.65 -0.1 -15.5 Q-0.1 -15.45 -0.15 -15.45 L-0.2 -15.3 Q-0.15 -15.25 -0.1 -14.95 L-0.1 -15.0 -0.15 -15.05 -0.15 -15.0 -0.25 -14.9 -0.2 -15.05 -0.25 -15.2 -0.35 -15.4 -0.4 -15.4 -0.5 -15.1 -0.45 -14.9 -0.5 -14.9 -0.55 -14.9 -0.6 -14.85 -0.6 -14.9 -0.6 -15.0 -0.55 -15.0 -0.55 -15.1 -0.6 -15.2 -0.5 -15.65 -0.45 -15.6 -0.35 -15.5 Q-0.25 -15.5 -0.25 -15.8 L-0.25 -16.1 -0.25 -16.1 -0.15 -16.05 Q-0.1 -16.1 -0.05 -16.1 L0.0 -16.1 -0.05 -16.0 -0.05 -15.75 M-0.45 -14.75 L-0.5 -14.8 -0.45 -14.85 -0.45 -14.75 M-0.6 -14.65 L-0.5 -14.6 -0.45 -14.6 -0.5 -14.6 -0.65 -14.55 -0.6 -14.65 M-0.45 -14.45 L-0.45 -14.45 -0.35 -14.5 -0.3 -14.45 -0.35 -14.35 -0.4 -14.35 -0.45 -14.45 M-0.25 -14.2 L-0.25 -14.25 -0.3 -14.35 -0.2 -14.5 -0.15 -14.55 -0.1 -14.5 0.0 -14.35 0.0 -14.25 -0.05 -14.2 -0.1 -14.2 -0.15 -14.2 -0.15 -14.2 -0.25 -14.2 M0.1 -14.35 L0.05 -14.35 0.05 -14.45 0.1 -14.5 0.15 -14.45 0.15 -14.45 0.1 -14.35 M0.35 -14.55 L0.2 -14.6 0.2 -14.6 0.35 -14.65 0.35 -14.55 M0.25 -14.8 L0.15 -14.75 0.2 -14.85 0.25 -14.8 M0.0 -14.0 L0.0 -13.95 0.05 -13.9 0.1 -13.85 Q0.3 -13.75 0.45 -13.75 0.4 -13.7 0.2 -13.6 L0.15 -13.6 0.0 -13.55 -0.05 -13.55 0.0 -13.85 0.0 -14.0 M0.15 -13.5 L0.25 -13.45 0.45 -13.45 Q0.45 -13.3 0.5 -13.15 L0.5 -13.1 0.45 -13.0 Q0.45 -12.95 0.4 -12.95 L0.3 -13.0 0.25 -13.0 0.25 -13.0 0.2 -13.0 0.15 -13.0 0.1 -12.95 0.1 -12.95 0.05 -12.9 Q-0.05 -12.9 -0.05 -13.0 L0.0 -13.05 0.0 -13.1 -0.05 -13.2 Q-0.05 -13.3 0.15 -13.3 L0.15 -13.5 M0.75 -12.7 L0.75 -12.75 0.8 -12.8 0.75 -12.7 M0.75 -9.35 L0.75 -9.35 0.7 -9.35 0.7 -9.4 0.75 -9.35 M0.55 -9.2 L0.6 -8.85 0.45 -8.75 0.55 -9.0 0.55 -9.2 M0.2 -8.7 L0.3 -8.65 0.2 -8.6 0.2 -8.6 0.2 -8.7 M0.2 -8.35 L0.4 -8.5 0.45 -8.5 0.55 -8.45 0.6 -8.35 0.6 -8.45 0.7 -8.35 0.6 -8.25 0.6 -8.15 Q0.9 -8.15 0.9 -8.05 0.75 -8.05 0.75 -7.9 L0.8 -7.85 0.8 -7.8 0.8 -7.8 0.7 -7.75 0.65 -7.75 0.6 -7.75 0.55 -8.0 Q0.5 -8.1 0.5 -8.25 L0.35 -8.25 Q0.3 -8.2 0.3 -8.15 L0.3 -8.05 Q0.2 -8.1 0.2 -8.2 L0.2 -8.35 M-0.45 -8.6 L-0.5 -8.6 -0.6 -8.65 -0.5 -8.7 -0.45 -8.6 M-0.7 -8.75 L-0.9 -8.85 -0.85 -9.2 -0.8 -9.0 -0.7 -8.75 M0.1 -7.9 L0.1 -7.9 0.25 -7.9 0.25 -7.85 Q0.15 -7.8 0.0 -7.4 0.2 -7.35 0.25 -7.2 L0.3 -7.1 0.2 -7.05 0.0 -6.9 0.0 -6.85 0.25 -6.9 Q0.35 -6.9 0.3 -6.7 L0.45 -6.75 0.4 -6.6 0.45 -6.5 0.6 -6.5 0.6 -6.45 Q0.6 -6.4 0.65 -6.25 L0.6 -6.1 0.6 -5.9 0.35 -5.9 Q0.3 -5.85 0.3 -5.8 L0.2 -5.8 0.2 -5.8 0.25 -5.85 0.25 -5.95 0.3 -6.0 0.25 -6.1 0.25 -6.1 0.15 -6.15 0.15 -6.4 -0.15 -6.75 -0.45 -6.4 -0.4 -6.15 -0.45 -6.15 -0.5 -6.1 -0.55 -6.1 -0.55 -6.0 -0.5 -5.95 -0.55 -5.85 -0.45 -5.8 -0.5 -5.8 -0.55 -5.8 Q-0.55 -5.85 -0.65 -5.9 L-0.85 -5.9 Q-0.85 -6.0 -0.9 -6.1 L-0.95 -6.25 Q-0.85 -6.4 -0.85 -6.45 L-0.85 -6.5 -0.75 -6.5 -0.7 -6.6 -0.75 -6.75 -0.55 -6.7 Q-0.65 -6.9 -0.5 -6.9 L-0.25 -6.85 -0.25 -6.9 -0.45 -7.05 -0.55 -7.1 -0.5 -7.2 Q-0.45 -7.35 -0.25 -7.4 -0.45 -7.8 -0.55 -7.85 L-0.55 -7.9 -0.5 -7.9 -0.4 -7.9 -0.4 -7.9 -0.2 -7.8 -0.15 -7.75 -0.05 -7.8 0.1 -7.9 M0.35 -7.15 Q0.35 -7.2 0.35 -7.25 L0.4 -7.45 Q0.5 -7.4 0.6 -7.45 L0.6 -7.5 0.5 -7.5 0.55 -7.55 0.6 -7.6 0.6 -7.6 0.6 -7.5 0.7 -7.5 0.8 -7.4 0.7 -7.3 0.7 -7.3 Q0.6 -7.4 0.5 -7.4 L0.45 -7.15 0.35 -7.15 M0.9 -7.05 L0.9 -7.0 Q1.15 -6.85 1.15 -6.7 L1.15 -6.55 1.1 -6.45 1.05 -6.5 0.8 -6.55 0.85 -6.75 0.75 -6.95 0.65 -6.8 0.7 -6.95 Q0.8 -6.95 0.9 -7.05 M1.0 -4.65 L1.15 -4.65 1.3 -4.7 1.4 -4.75 1.4 -4.55 Q1.35 -4.6 1.2 -4.55 L1.2 -4.35 Q1.5 -4.4 1.55 -4.2 L1.55 -3.9 1.5 -3.65 1.45 -3.65 Q1.5 -3.85 1.35 -3.9 L1.3 -3.65 1.35 -3.55 1.4 -3.5 Q1.4 -3.35 1.3 -3.3 L1.15 -3.25 1.1 -3.15 Q1.0 -3.35 1.0 -3.5 L1.0 -3.35 1.0 -3.15 0.95 -3.2 0.7 -3.1 Q0.6 -3.25 0.6 -3.35 0.7 -3.3 0.8 -3.3 0.9 -3.3 0.9 -3.45 L0.75 -3.45 Q0.75 -3.5 0.8 -3.6 L0.9 -3.7 0.65 -3.8 0.7 -3.85 Q0.8 -3.95 0.95 -3.85 L1.0 -4.05 1.0 -4.2 0.9 -4.2 0.85 -4.15 0.85 -4.15 0.8 -4.15 0.8 -4.2 0.85 -4.35 0.85 -4.55 0.65 -4.55 Q0.6 -4.5 0.6 -4.55 0.6 -4.65 0.7 -4.65 L0.45 -4.7 0.4 -4.75 0.55 -4.85 0.65 -4.9 Q0.85 -4.9 0.9 -4.8 0.9 -4.7 1.0 -4.65 M0.95 -2.55 L0.95 -1.6 1.25 -2.1 1.25 -2.1 1.4 -2.05 1.25 -1.8 1.25 -1.8 1.1 -1.6 1.05 -1.5 1.0 -1.55 Q1.0 -1.6 0.9 -1.6 L0.85 -1.55 0.7 -1.5 0.7 -1.75 Q0.7 -1.95 0.6 -2.05 L0.55 -2.0 0.55 -1.65 0.5 -1.65 0.4 -1.6 Q0.35 -1.7 0.35 -1.85 L0.4 -1.9 0.4 -1.95 Q0.5 -2.0 0.5 -2.15 L0.7 -2.1 Q0.75 -2.1 0.85 -2.15 L0.95 -2.25 0.75 -2.25 0.55 -2.35 Q0.5 -2.35 0.45 -2.25 L0.4 -2.5 0.5 -2.6 0.5 -2.65 0.5 -2.65 0.75 -2.7 Q0.85 -2.7 0.9 -2.65 L0.95 -2.55 M0.95 -1.35 L0.95 -1.05 0.95 -1.0 0.9 -1.3 0.95 -1.35 M1.05 -0.7 L1.05 -0.65 0.85 -0.4 0.75 -0.3 0.75 -0.6 Q0.95 -0.5 1.05 -0.7 M0.2 -1.35 L0.2 -1.35 Q0.1 -1.3 0.0 -1.3 L-0.1 -1.35 -0.15 -1.35 Q-0.1 -1.0 -0.25 -0.9 L-0.4 -0.6 -0.4 -0.3 -0.5 -0.15 -0.5 -0.05 -0.55 0.0 -0.6 0.05 -0.65 0.1 -0.75 0.2 -0.75 0.15 -0.7 -0.05 -0.95 -0.1 -0.95 -0.05 -0.9 0.05 -0.9 0.1 -0.95 0.3 Q-1.05 0.4 -1.1 0.4 -1.15 0.3 -1.2 0.3 -1.45 0.3 -1.6 0.15 -1.55 0.1 -1.55 0.0 L-1.55 -0.15 -1.1 -0.1 -1.05 -0.1 -0.95 -0.1 -0.95 -0.2 Q-0.75 -0.2 -0.7 -0.1 L-0.7 -0.05 -0.65 0.0 Q-0.55 -0.05 -0.55 -0.15 L-0.6 -0.2 -0.9 -0.25 Q-0.85 -0.3 -0.85 -0.45 L-0.85 -0.8 Q-0.85 -0.8 -0.85 -0.85 L-0.75 -0.85 -0.7 -0.85 -0.4 -0.9 -0.6 -0.95 -0.5 -1.3 -0.5 -1.35 -0.45 -1.35 -0.25 -1.35 0.15 -1.7 0.15 -1.6 0.25 -1.55 0.25 -1.4 0.2 -1.35 M-0.15 0.6 L-0.3 0.9 -0.5 1.2 -0.55 1.2 -0.5 1.1 -0.5 0.95 -0.35 0.9 Q-0.4 0.75 -0.3 0.7 L-0.15 0.6 M0.8 1.15 L0.8 1.0 1.1 1.1 0.8 1.15 M1.55 0.5 L1.6 0.45 1.65 0.4 1.65 0.25 1.55 0.25 1.45 0.35 1.5 0.1 1.55 -0.1 1.55 -0.1 1.6 -0.15 1.75 0.1 1.7 0.35 Q1.65 0.5 1.6 0.5 L1.55 0.5 M0.4 -6.65 L0.3 -6.7 0.15 -6.7 0.2 -6.45 0.25 -6.45 0.35 -6.55 0.4 -6.65 M0.45 -6.3 L0.4 -6.4 Q0.3 -6.35 0.25 -6.25 L0.3 -6.2 0.35 -6.15 0.4 -6.1 0.45 -6.3 M0.1 -5.1 L0.15 -4.9 0.1 -4.8 0.0 -4.75 0.0 -4.7 0.05 -4.7 0.2 -4.75 Q0.2 -4.6 0.1 -4.5 L-0.05 -4.6 -0.1 -4.55 -0.15 -4.55 -0.15 -4.55 -0.2 -4.6 -0.25 -4.6 -0.35 -4.5 Q-0.5 -4.6 -0.5 -4.75 L-0.35 -4.7 -0.3 -4.7 -0.3 -4.75 Q-0.4 -4.75 -0.4 -4.8 L-0.4 -5.1 -0.3 -5.1 -0.2 -5.1 -0.15 -5.15 0.0 -5.1 0.1 -5.1 M-0.75 -4.35 L-0.7 -4.35 -0.55 -4.25 -0.4 -4.1 Q-0.4 -4.15 -0.3 -4.15 L-0.3 -4.35 -0.25 -4.35 -0.15 -4.35 -0.05 -4.2 Q-0.05 -4.05 -0.15 -4.0 -0.2 -4.0 -0.2 -4.0 L-0.2 -4.0 -0.35 -4.0 -0.4 -4.05 -0.4 -4.0 -0.55 -4.0 -0.55 -3.9 -0.5 -3.85 -0.35 -3.85 -0.25 -3.7 -0.4 -3.65 Q-0.35 -3.6 -0.45 -3.55 L-0.5 -3.5 -0.5 -3.5 -0.7 -3.5 -0.75 -3.85 -0.75 -3.95 -0.75 -4.35 M-0.4 -3.5 L-0.15 -3.55 -0.15 -3.7 -0.1 -3.7 -0.1 -3.6 -0.15 -3.6 -0.15 -3.35 Q-0.3 -3.35 -0.35 -3.05 L-0.5 -3.0 Q-0.5 -3.15 -0.6 -3.25 -0.45 -3.35 -0.35 -3.35 L-0.4 -3.5 -0.4 -3.5 M0.1 -3.4 L0.05 -3.4 -0.05 -3.55 0.1 -3.5 0.1 -3.4 M1.35 -4.35 L1.3 -4.35 1.15 -4.1 1.3 -3.95 1.35 -4.15 1.35 -4.35 M0.6 -1.2 L0.65 -1.1 0.5 -0.95 0.5 -0.95 0.55 -1.05 0.55 -1.1 0.6 -1.2 M0.45 -0.1 Q0.45 -0.2 0.7 -0.2 L0.7 -0.1 0.8 -0.1 0.8 -0.1 1.25 -0.15 1.25 0.0 Q1.25 0.1 1.35 0.15 1.2 0.3 0.95 0.3 L0.8 0.4 Q0.75 0.4 0.7 0.3 L0.6 0.1 0.65 0.05 0.7 -0.05 0.7 -0.1 0.45 -0.05 0.45 -0.1 M2.05 0.9 L1.9 0.95 1.95 0.7 2.0 0.7 2.05 0.9 M-1.0 -17.05 L-0.95 -17.45 -1.0 -17.05 M-0.7 -15.8 L-0.6 -15.85 -0.6 -15.85 -0.55 -15.6 -0.6 -15.35 -0.6 -15.25 -0.65 -15.25 -0.8 -15.25 -0.7 -15.15 -0.8 -15.1 -0.8 -15.25 -0.8 -15.35 -0.7 -15.45 -0.7 -15.6 Q-0.8 -15.6 -0.8 -15.7 L-0.75 -15.75 -0.75 -15.75 -0.7 -15.75 -0.7 -15.8 M-0.5 -15.95 L-0.55 -15.95 -0.5 -16.0 -0.5 -15.95 M-0.8 -13.15 Q-0.75 -13.3 -0.75 -13.45 L-0.5 -13.45 -0.45 -13.5 -0.4 -13.3 Q-0.25 -13.3 -0.25 -13.2 L-0.3 -13.1 -0.25 -13.05 -0.25 -13.0 Q-0.25 -12.9 -0.35 -12.9 L-0.4 -12.95 -0.35 -12.95 -0.4 -13.0 -0.5 -13.0 -0.5 -13.0 -0.55 -13.0 -0.6 -13.0 -0.65 -12.95 -0.75 -13.0 -0.8 -13.15 -0.8 -13.15 M-0.4 -13.6 L-0.5 -13.6 Q-0.65 -13.7 -0.7 -13.75 -0.55 -13.75 -0.4 -13.85 L-0.3 -13.9 -0.3 -13.95 -0.25 -14.0 -0.25 -13.55 -0.3 -13.55 -0.4 -13.6 M-1.05 -12.8 L-1.05 -12.7 -1.05 -12.8 M-1.2 -14.15 L-1.2 -14.15 -1.25 -13.75 -1.2 -14.15 M-1.3 -13.15 L-1.3 -13.15 M-1.15 -10.65 Q-1.1 -10.7 -1.15 -10.9 L-1.15 -11.15 -0.95 -11.25 -0.8 -11.3 -0.8 -11.45 -0.95 -11.55 Q-0.95 -11.65 -0.8 -11.65 L-0.7 -11.65 -0.75 -11.45 Q-0.75 -11.2 -0.65 -11.2 -0.6 -11.2 -0.55 -11.2 L-0.55 -11.3 -0.55 -11.25 -0.6 -11.1 -0.5 -11.0 -0.4 -10.9 Q-0.5 -10.95 -0.55 -10.8 L-0.65 -11.1 -0.65 -11.15 Q-0.8 -11.15 -0.85 -10.95 L-0.95 -10.65 -1.0 -10.65 -1.05 -10.6 -1.1 -10.55 -1.15 -10.65 M-0.6 -11.65 Q-0.55 -11.7 -0.55 -11.75 -0.55 -11.85 -0.65 -11.9 L-0.75 -11.95 -0.8 -12.0 -0.8 -12.4 -0.7 -12.55 -0.7 -12.55 -0.6 -12.75 -0.5 -12.85 -0.45 -12.85 Q-0.45 -12.75 -0.55 -12.7 L-0.6 -12.65 -0.6 -12.55 -0.5 -12.5 -0.4 -12.4 -0.6 -12.45 -0.65 -12.15 -0.65 -12.0 -0.6 -11.95 -0.5 -12.0 -0.45 -12.0 -0.35 -12.15 -0.3 -12.3 -0.3 -12.1 -0.35 -12.05 -0.3 -11.85 -0.35 -11.9 -0.5 -11.75 -0.45 -11.65 -0.45 -11.6 -0.55 -11.65 -0.6 -11.65 M-0.15 -11.6 Q-0.25 -11.6 -0.25 -11.75 L-0.15 -11.9 Q-0.05 -11.85 -0.05 -11.75 -0.05 -11.6 -0.15 -11.6 M-0.25 -10.7 L-0.25 -10.75 -0.15 -11.2 -0.05 -10.75 -0.05 -10.7 -0.25 -10.7 M-0.1 -9.35 L0.05 -9.15 Q0.05 -9.1 -0.05 -9.05 L-0.15 -9.05 -0.15 -9.05 -0.2 -9.05 -0.25 -9.05 -0.35 -9.15 -0.15 -9.4 -0.15 -9.4 -0.1 -9.4 -0.1 -9.35 M-1.0 -9.4 L-1.0 -9.35 -1.0 -9.35 -1.0 -9.4 M-1.55 -9.65 L-1.55 -9.65 M-1.15 -8.05 Q-1.2 -8.15 -0.85 -8.15 L-0.85 -8.25 -1.0 -8.35 Q-0.9 -8.4 -0.85 -8.45 L-0.85 -8.35 -0.8 -8.45 -0.7 -8.5 -0.7 -8.5 -0.5 -8.35 -0.5 -8.2 Q-0.5 -8.1 -0.55 -8.05 L-0.55 -8.15 Q-0.55 -8.2 -0.65 -8.25 L-0.75 -8.25 Q-0.75 -8.1 -0.8 -8.0 L-0.85 -7.75 -0.9 -7.75 Q-0.95 -7.75 -1.0 -7.75 L-1.1 -7.8 -1.1 -7.8 -1.1 -7.85 -1.05 -7.9 Q-1.05 -8.05 -1.15 -8.05 M-1.45 -6.55 L-1.45 -6.7 Q-1.45 -6.85 -1.2 -7.0 L-1.15 -7.05 Q-1.1 -6.95 -0.95 -6.95 L-0.95 -6.8 -1.05 -6.95 -1.15 -6.75 -1.1 -6.55 -1.3 -6.5 -1.4 -6.45 -1.45 -6.55 M-1.0 -7.3 L-1.1 -7.4 -1.0 -7.5 -0.85 -7.5 -0.9 -7.6 -0.85 -7.6 -0.85 -7.55 -0.8 -7.5 -0.85 -7.5 -0.85 -7.45 Q-0.8 -7.4 -0.7 -7.45 L-0.65 -7.25 -0.65 -7.15 -0.75 -7.15 -0.8 -7.4 Q-0.9 -7.4 -1.0 -7.3 L-1.0 -7.3 M-0.55 -6.7 L-0.65 -6.65 -0.6 -6.55 -0.55 -6.45 -0.5 -6.45 -0.45 -6.7 -0.55 -6.7 M-0.7 -6.3 L-0.65 -6.1 -0.6 -6.15 -0.55 -6.2 -0.55 -6.25 -0.65 -6.4 -0.7 -6.3 M-1.3 -4.65 Q-1.2 -4.7 -1.15 -4.8 -1.15 -4.9 -0.9 -4.9 L-0.8 -4.85 -0.7 -4.75 -0.7 -4.7 -1.0 -4.65 Q-0.9 -4.65 -0.9 -4.55 -0.9 -4.5 -0.95 -4.55 L-1.15 -4.55 -1.15 -4.35 -1.1 -4.2 -1.1 -4.15 -1.15 -4.15 -1.2 -4.2 -1.25 -4.2 -1.3 -4.15 -1.3 -4.05 -1.25 -3.85 Q-1.1 -3.95 -0.95 -3.85 L-0.95 -3.8 -1.2 -3.7 -1.1 -3.6 -1.0 -3.45 -1.2 -3.45 Q-1.15 -3.3 -1.1 -3.3 -0.95 -3.3 -0.9 -3.35 -0.9 -3.25 -1.0 -3.1 L-1.2 -3.2 -1.3 -3.15 -1.3 -3.35 -1.3 -3.5 Q-1.3 -3.35 -1.4 -3.15 L-1.4 -3.25 -1.6 -3.3 Q-1.65 -3.35 -1.65 -3.5 L-1.6 -3.55 -1.6 -3.65 -1.65 -3.9 Q-1.8 -3.85 -1.75 -3.65 L-1.8 -3.65 -1.85 -3.9 -1.8 -4.2 Q-1.75 -4.4 -1.5 -4.35 L-1.45 -4.55 Q-1.6 -4.6 -1.7 -4.55 L-1.7 -4.75 -1.45 -4.65 -1.3 -4.65 M-1.6 -4.35 L-1.65 -4.15 -1.6 -3.95 -1.45 -4.1 -1.6 -4.35 -1.6 -4.35 M-1.55 -2.1 L-1.5 -2.1 -1.2 -1.6 -1.2 -2.25 -1.25 -2.55 -1.15 -2.65 -1.05 -2.7 -0.95 -2.7 -1.0 -2.6 -1.05 -2.4 -1.05 -2.25 -1.2 -2.25 -1.1 -2.15 Q-1.05 -2.1 -1.0 -2.1 L-0.75 -2.15 Q-0.75 -2.0 -0.7 -1.95 L-0.65 -1.85 Q-0.65 -1.7 -0.7 -1.6 L-0.8 -1.65 -0.85 -1.65 -0.85 -2.05 Q-1.0 -1.95 -1.0 -1.75 L-1.0 -1.5 -1.2 -1.6 -1.3 -1.55 -1.3 -1.5 -1.4 -1.6 -1.5 -1.8 -1.55 -1.8 -1.7 -2.05 -1.55 -2.1 M-0.7 -2.5 L-0.75 -2.6 Q-0.9 -2.55 -0.95 -2.7 L-0.8 -2.65 -0.75 -2.65 -0.75 -2.6 -0.7 -2.5 -0.7 -2.5 M-2.05 0.1 L-1.9 -0.15 -1.85 -0.1 -1.8 -0.1 -1.8 0.1 -1.7 0.35 -1.85 0.25 -1.9 0.25 -1.9 0.4 -1.85 0.45 -1.85 0.5 -1.85 0.5 Q-1.95 0.5 -2.0 0.35 L-2.05 0.1 M-1.1 1.0 L-1.05 1.15 -1.35 1.1 -1.2 1.05 -1.1 1.0 M-1.05 -0.3 L-1.15 -0.4 -1.35 -0.65 -1.35 -0.7 Q-1.25 -0.5 -1.05 -0.6 L-1.05 -0.3 M-1.25 -1.05 L-1.2 -1.3 -1.25 -1.35 -1.15 -1.3 -1.2 -1.0 -1.25 -1.05 M-0.8 -0.95 L-0.8 -0.95 -0.95 -1.1 -0.85 -1.2 -0.8 -0.95 M-2.3 0.7 L-2.25 0.7 -2.15 0.95 -2.3 0.9 -2.3 0.7" fill="#958453" fill-rule="evenodd" stroke="none"/>
    <path d="M0.25 -20.3 L0.45 -20.3 0.45 -20.0 0.5 -19.95 0.5 -19.6 0.45 -19.6 0.15 -19.65 0.05 -19.65 0.05 -19.8 0.1 -19.85 0.15 -20.05 0.25 -20.3 M-0.7 -20.3 L-0.55 -20.3 -0.45 -20.05 -0.35 -19.85 -0.35 -19.8 -0.35 -19.65 -0.4 -19.65 -0.7 -19.6 -0.8 -19.6 -0.75 -19.75 -0.75 -20.3 -0.7 -20.3 -0.75 -19.75 -0.7 -20.3 M0.55 -18.85 L0.6 -18.05 0.3 -18.0 0.2 -18.35 0.3 -18.6 0.35 -18.8 0.55 -18.85 0.55 -18.85 M-0.9 -18.05 L-0.85 -18.85 -0.8 -18.85 -0.65 -18.8 -0.6 -18.6 -0.5 -18.35 -0.6 -18.0 -0.9 -18.05 M0.3 -18.0 L0.3 -18.0 M-0.6 -18.0 L-0.6 -18.0" fill="#322f22" fill-rule="evenodd" stroke="none"/>
    <path d="M-0.55 -20.3 L-0.25 -20.3 -0.15 -20.3 -0.05 -20.3 0.25 -20.3 0.15 -20.05 0.1 -19.85 0.1 -19.9 -0.05 -20.15 Q0.0 -20.05 -0.05 -20.0 L-0.1 -19.85 -0.1 -19.75 -0.05 -19.75 0.05 -19.8 0.05 -19.65 0.05 -19.65 -0.05 -19.65 -0.15 -19.65 -0.25 -19.65 -0.35 -19.65 -0.35 -19.65 -0.35 -19.8 -0.25 -19.75 -0.15 -19.75 -0.15 -19.85 -0.25 -20.0 -0.25 -20.15 -0.35 -19.9 -0.35 -19.85 -0.45 -20.05 -0.55 -20.3 M0.35 -18.8 L0.3 -18.6 0.2 -18.35 0.3 -18.0 0.15 -18.0 -0.15 -18.0 -0.45 -18.0 -0.6 -18.0 -0.5 -18.35 -0.6 -18.6 -0.65 -18.8 -0.45 -18.8 -0.35 -18.8 -0.15 -18.75 -0.1 -18.75 0.05 -18.8 0.15 -18.8 0.35 -18.8 M0.2 -18.3 Q0.1 -18.4 0.0 -18.55 L0.0 -18.4 -0.1 -18.2 0.05 -18.2 0.2 -18.2 0.2 -18.3 M-0.45 -18.2 L-0.3 -18.2 -0.15 -18.2 -0.25 -18.4 -0.3 -18.55 -0.45 -18.3 -0.45 -18.2" fill="#43442f" fill-rule="evenodd" stroke="none"/>
    <path d="M-0.35 -19.85 L-0.35 -19.9 -0.25 -20.15 -0.25 -20.0 -0.15 -19.85 -0.15 -19.75 -0.25 -19.75 -0.35 -19.8 -0.35 -19.85 M0.05 -19.8 L-0.05 -19.75 -0.1 -19.75 -0.1 -19.85 -0.05 -20.0 Q0.0 -20.05 -0.05 -20.15 L0.1 -19.9 0.1 -19.85 0.05 -19.8 M0.2 -18.3 L0.2 -18.2 0.05 -18.2 -0.1 -18.2 0.0 -18.4 0.0 -18.55 Q0.1 -18.4 0.2 -18.3 M-0.45 -18.2 L-0.45 -18.3 -0.3 -18.55 -0.25 -18.4 -0.15 -18.2 -0.3 -18.2 -0.45 -18.2" fill="#7d836d" fill-rule="evenodd" stroke="none"/>
    <path d="M-0.35 -19.65 L-0.35 -19.65 -0.25 -19.65 -0.2 -19.45 -0.2 -19.2 -0.35 -19.2 -0.4 -19.15 Q-0.4 -19.05 -0.3 -19.0 L-0.15 -18.85 -0.35 -18.8 -0.45 -18.8 -0.45 -18.8 Q-0.45 -19.05 -0.65 -19.2 L-0.8 -19.3 -0.8 -19.35 -0.8 -19.45 -0.6 -19.4 Q-0.5 -19.4 -0.45 -19.5 L-0.4 -19.65 -0.35 -19.65 M-0.05 -19.65 L0.05 -19.65 0.05 -19.65 0.15 -19.65 0.2 -19.5 Q0.25 -19.4 0.35 -19.4 L0.5 -19.45 0.5 -19.4 0.5 -19.35 0.4 -19.2 Q0.15 -19.05 0.15 -18.8 L0.15 -18.8 0.05 -18.8 -0.1 -18.85 0.0 -19.0 Q0.1 -19.05 0.1 -19.15 L0.05 -19.2 -0.05 -19.2 -0.1 -19.25 -0.05 -19.45 -0.05 -19.65 M0.6 -18.05 L0.65 -17.75 0.65 -17.45 Q0.55 -17.45 0.5 -17.35 L0.55 -17.3 0.65 -17.3 0.65 -17.25 Q0.65 -17.2 0.5 -17.1 0.35 -17.05 0.35 -17.0 L0.35 -16.85 0.3 -16.85 0.25 -16.8 0.35 -16.7 0.4 -16.75 0.5 -16.8 0.55 -16.8 0.5 -16.65 0.65 -16.65 Q0.6 -16.8 0.7 -16.9 L0.75 -16.55 0.75 -16.55 0.55 -16.5 0.45 -16.65 0.35 -16.65 Q0.2 -16.65 0.15 -16.6 L0.15 -16.4 0.25 -16.3 0.4 -16.15 0.4 -16.15 0.5 -16.25 0.55 -16.2 0.6 -16.15 0.35 -16.05 0.4 -15.9 0.4 -15.8 0.3 -15.85 0.3 -15.85 0.25 -15.6 0.3 -15.35 0.35 -15.25 0.3 -15.2 0.2 -15.65 0.15 -15.85 0.25 -15.95 0.3 -16.0 0.35 -16.05 0.35 -16.1 Q0.35 -16.15 0.2 -16.35 0.0 -16.5 0.0 -16.6 L0.05 -16.85 0.2 -16.85 0.3 -16.9 0.3 -17.0 0.2 -17.0 0.05 -17.0 0.2 -17.05 0.2 -17.1 Q0.25 -17.1 0.25 -17.2 L0.15 -17.25 0.15 -17.2 0.0 -17.15 -0.1 -17.1 -0.15 -17.1 -0.2 -17.1 -0.2 -17.15 -0.3 -17.15 -0.45 -17.25 -0.55 -17.2 Q-0.55 -17.1 -0.45 -17.1 L-0.4 -17.05 -0.35 -17.0 -0.4 -17.0 -0.55 -17.0 -0.55 -16.9 -0.45 -16.85 -0.35 -16.85 -0.3 -16.65 -0.3 -16.6 Q-0.3 -16.5 -0.45 -16.35 -0.6 -16.15 -0.6 -16.1 L-0.6 -16.05 -0.55 -16.0 -0.55 -15.95 -0.5 -15.95 -0.4 -15.85 -0.5 -15.65 -0.6 -15.2 -0.6 -15.25 -0.6 -15.35 -0.55 -15.6 -0.6 -15.85 -0.6 -15.85 -0.7 -15.8 -0.65 -15.85 -0.7 -15.9 -0.65 -16.05 Q-0.7 -16.15 -0.85 -16.15 L-0.85 -16.2 -0.8 -16.25 -0.7 -16.15 -0.65 -16.15 -0.5 -16.3 Q-0.4 -16.4 -0.4 -16.5 -0.4 -16.65 -0.6 -16.65 L-0.75 -16.65 -0.8 -16.5 Q-0.95 -16.5 -1.0 -16.55 L-1.0 -16.9 Q-0.9 -16.8 -0.9 -16.65 L-0.8 -16.65 -0.85 -16.8 -0.8 -16.8 -0.7 -16.75 -0.65 -16.7 -0.55 -16.8 -0.55 -16.85 -0.65 -16.85 -0.6 -17.0 Q-0.6 -17.05 -0.75 -17.1 -0.9 -17.2 -0.9 -17.25 L-0.9 -17.3 -0.8 -17.3 -0.8 -17.35 Q-0.8 -17.45 -0.95 -17.45 L-0.9 -17.9 -0.9 -18.05 -0.6 -18.0 -0.5 -17.8 -0.35 -17.45 -0.5 -17.5 -0.55 -17.4 -0.5 -17.25 -0.3 -17.3 -0.2 -17.25 -0.15 -17.2 -0.15 -17.2 -0.1 -17.2 -0.05 -17.25 0.0 -17.3 0.1 -17.3 0.1 -17.3 0.2 -17.25 0.25 -17.4 0.2 -17.5 0.05 -17.45 0.25 -17.8 0.3 -18.0 0.6 -18.05 M1.1 -12.25 L1.15 -11.5 1.05 -11.55 0.85 -11.4 0.9 -11.25 0.9 -11.1 Q1.1 -11.1 1.15 -11.0 L1.1 -10.8 Q1.05 -10.75 0.9 -10.7 L0.9 -10.65 0.9 -10.65 Q0.85 -10.7 0.85 -10.9 L0.9 -11.15 0.55 -11.3 0.5 -11.45 0.5 -11.45 0.65 -11.55 Q0.65 -11.65 0.55 -11.65 L0.3 -11.65 Q0.25 -11.7 0.25 -11.75 0.25 -11.85 0.4 -11.9 L0.45 -11.95 0.5 -12.0 0.55 -12.25 0.5 -12.4 0.4 -12.55 0.45 -12.55 0.6 -12.55 0.7 -12.6 0.75 -12.65 0.75 -12.7 0.8 -12.8 0.75 -12.95 Q0.7 -12.95 0.8 -12.95 L0.8 -12.85 0.95 -12.5 Q0.95 -12.3 0.75 -12.3 0.75 -12.2 0.8 -12.2 L0.9 -12.2 1.1 -12.25 M1.25 -10.15 L1.25 -9.8 1.2 -9.85 Q1.15 -9.85 1.05 -9.75 0.95 -9.7 0.95 -9.7 0.85 -9.7 0.85 -9.75 L0.75 -9.9 0.8 -9.9 0.95 -9.85 1.05 -9.85 1.05 -9.9 Q1.05 -9.9 1.05 -9.95 0.9 -9.95 0.8 -10.0 0.7 -10.1 0.7 -10.15 L0.7 -10.2 0.8 -10.2 0.9 -10.2 1.0 -10.1 1.25 -10.15 M1.6 -5.4 L1.8 -3.15 1.8 -3.05 1.7 -2.95 1.6 -3.05 1.55 -3.1 1.5 -3.1 Q1.5 -3.05 1.45 -3.05 L1.25 -3.1 1.2 -3.0 1.25 -2.9 1.45 -2.65 1.55 -2.75 1.75 -2.95 1.8 -2.95 1.85 -2.05 1.85 -1.95 1.8 -1.85 1.85 -1.65 1.7 -1.3 1.85 -1.1 1.95 -0.8 Q1.95 -0.7 1.9 -0.55 1.8 -0.45 1.8 -0.35 L1.9 0.1 1.9 0.15 1.8 0.3 1.8 0.25 1.75 0.1 1.6 -0.15 1.55 -0.1 1.55 -0.1 1.5 0.1 1.45 0.35 1.55 0.25 1.65 0.25 1.65 0.4 1.6 0.45 1.55 0.5 1.65 0.85 1.65 0.9 1.15 0.9 0.9 0.9 Q0.95 0.8 1.05 0.8 L1.3 0.8 1.3 0.55 Q1.05 0.5 0.9 0.75 0.85 0.85 0.8 1.0 L0.8 1.15 0.25 1.2 0.2 1.2 -0.15 1.25 -0.5 1.2 -0.3 0.9 -0.15 0.6 -0.15 0.6 0.0 0.7 Q0.1 0.75 0.05 0.9 L0.2 0.95 0.2 0.85 0.35 0.6 0.45 0.2 0.4 0.1 0.25 -0.05 0.25 -0.15 Q0.2 -0.35 0.0 -0.35 L0.0 -0.3 0.05 -0.1 -0.05 0.05 -0.15 0.2 -0.2 0.05 -0.35 -0.1 -0.25 -0.3 -0.25 -0.35 -0.3 -0.35 -0.4 -0.3 -0.4 -0.6 -0.25 -0.9 Q-0.1 -1.0 -0.15 -1.35 L-0.1 -1.35 0.0 -1.3 Q0.1 -1.3 0.2 -1.35 L0.2 -1.35 0.2 -1.3 0.3 -0.95 0.1 -0.9 0.4 -0.85 0.45 -0.85 0.55 -0.85 Q0.55 -0.8 0.6 -0.8 L0.6 -0.65 0.55 -0.45 Q0.55 -0.3 0.6 -0.25 0.7 -0.25 0.75 -0.3 L0.85 -0.4 1.05 -0.65 1.05 -0.7 0.95 -1.05 0.95 -1.35 1.05 -1.5 1.1 -1.6 1.1 -1.3 1.35 -1.25 1.4 -1.25 1.4 -1.25 1.35 -1.6 1.25 -1.8 1.25 -1.8 1.4 -2.05 1.25 -2.1 1.25 -2.1 0.95 -1.6 0.95 -2.55 1.0 -3.15 1.0 -3.35 1.0 -3.5 Q1.0 -3.35 1.1 -3.15 L1.15 -3.25 1.3 -3.3 Q1.4 -3.35 1.4 -3.5 L1.35 -3.55 1.3 -3.65 1.35 -3.9 Q1.5 -3.85 1.45 -3.65 L1.5 -3.65 1.55 -3.9 1.55 -4.2 Q1.5 -4.4 1.2 -4.35 L1.2 -4.55 Q1.35 -4.6 1.4 -4.55 L1.4 -4.75 1.3 -4.7 1.15 -4.65 1.0 -4.65 Q0.95 -4.7 0.95 -4.8 0.95 -4.9 1.05 -4.95 1.15 -4.95 1.15 -5.0 L1.1 -5.15 1.05 -5.2 1.05 -5.25 1.1 -5.4 1.15 -5.55 Q1.1 -5.75 1.1 -5.8 L0.85 -5.8 0.75 -6.0 1.05 -6.35 1.1 -6.45 1.15 -6.55 1.2 -6.75 1.3 -6.6 Q1.4 -6.45 1.4 -6.2 L1.35 -5.6 Q1.35 -5.55 1.55 -5.45 L1.6 -5.4 M2.15 -0.25 L2.4 0.55 2.45 0.65 Q2.45 0.8 2.05 0.9 L2.0 0.7 2.0 0.3 1.95 0.25 Q2.1 0.15 2.1 0.0 2.05 -0.2 2.15 -0.25 M-2.7 0.55 L-2.7 0.55 -2.4 -0.25 Q-2.35 -0.2 -2.35 0.0 -2.35 0.15 -2.25 0.25 L-2.25 0.3 -2.3 0.7 -2.3 0.9 Q-2.7 0.8 -2.7 0.65 L-2.7 0.55 M-2.15 -2.05 L-2.15 -2.15 -2.1 -2.95 -2.05 -2.95 -1.8 -2.75 -1.75 -2.65 -1.8 -2.6 Q-1.8 -2.55 -1.55 -2.1 L-1.7 -2.05 -1.8 -2.2 -2.0 -2.0 -2.05 -1.85 -2.1 -1.95 -2.15 -2.05 M-2.05 -3.05 L-1.9 -5.2 -1.9 -5.4 -1.8 -5.45 Q-1.65 -5.55 -1.65 -5.6 L-1.65 -6.2 Q-1.65 -6.45 -1.6 -6.6 L-1.45 -6.75 -1.45 -6.55 -1.4 -6.45 -1.3 -6.35 -1.05 -6.0 Q-1.1 -5.95 -1.1 -5.8 L-1.4 -5.8 -1.45 -5.55 -1.4 -5.4 -1.3 -5.25 -1.35 -5.2 -1.4 -5.15 -1.45 -5.0 Q-1.45 -4.95 -1.35 -4.95 -1.2 -4.9 -1.2 -4.8 -1.2 -4.7 -1.3 -4.65 L-1.45 -4.65 -1.7 -4.75 -1.7 -4.55 Q-1.6 -4.6 -1.45 -4.55 L-1.5 -4.35 Q-1.75 -4.4 -1.8 -4.2 L-1.85 -3.9 -1.8 -3.65 -1.75 -3.65 Q-1.8 -3.85 -1.65 -3.9 L-1.6 -3.65 -1.6 -3.55 -1.65 -3.5 Q-1.65 -3.35 -1.6 -3.3 L-1.4 -3.25 -1.4 -3.15 -1.4 -3.05 -1.5 -3.0 -1.55 -3.1 -1.7 -3.05 Q-1.75 -3.05 -1.8 -3.1 L-1.85 -3.1 -1.9 -3.05 -1.95 -2.95 Q-2.05 -2.95 -2.05 -3.05 M-1.55 -9.8 L-1.5 -10.15 -1.3 -10.1 -1.2 -10.2 -1.05 -10.2 -0.95 -10.2 -0.95 -10.15 Q-0.95 -10.1 -1.1 -10.0 -1.2 -9.95 -1.3 -9.95 -1.3 -9.9 -1.35 -9.9 L-1.35 -9.85 -1.25 -9.85 Q-1.2 -9.85 -1.1 -9.9 L-1.05 -9.9 -1.1 -9.75 -1.2 -9.7 Q-1.25 -9.7 -1.35 -9.75 -1.45 -9.85 -1.45 -9.85 L-1.55 -9.8 -1.55 -9.8 -1.5 -10.15 -1.55 -9.8 M-1.4 -11.5 L-1.35 -12.25 -1.2 -12.2 -1.05 -12.2 Q-1.05 -12.2 -1.0 -12.3 -1.2 -12.3 -1.2 -12.5 L-1.1 -12.85 -1.1 -12.95 Q-1.0 -12.95 -1.0 -12.95 L-1.05 -12.8 -1.05 -12.7 -1.0 -12.65 -1.0 -12.6 -0.9 -12.55 -0.7 -12.55 -0.7 -12.55 -0.8 -12.4 -0.8 -12.0 -0.75 -11.95 -0.65 -11.9 Q-0.55 -11.85 -0.55 -11.75 -0.55 -11.7 -0.6 -11.65 L-0.6 -11.65 -0.7 -11.65 -0.8 -11.65 Q-0.95 -11.65 -0.95 -11.55 L-0.8 -11.45 -0.8 -11.3 -0.95 -11.25 -1.15 -11.15 -1.15 -10.9 Q-1.1 -10.7 -1.15 -10.65 L-1.2 -10.65 -1.2 -10.7 -1.4 -10.8 -1.45 -11.0 Q-1.35 -11.1 -1.15 -11.1 L-1.2 -11.25 -1.1 -11.4 -1.3 -11.55 -1.4 -11.5 -1.35 -12.25 -1.4 -11.5 -1.4 -11.5 M0.3 -18.0 L0.3 -18.0 M-0.6 -18.0 L-0.6 -18.0 M0.25 -15.95 L0.25 -15.95 M-0.1 -8.3 L0.05 -8.25 0.2 -8.35 0.2 -8.2 Q0.2 -8.1 0.3 -8.05 L0.3 -8.15 Q0.3 -8.2 0.35 -8.25 L0.5 -8.25 Q0.5 -8.1 0.55 -8.0 L0.6 -7.75 0.65 -7.75 0.7 -7.75 0.8 -7.8 0.8 -7.8 0.85 -7.75 Q0.85 -7.65 0.7 -7.65 L0.6 -7.6 0.6 -7.6 0.55 -7.55 0.5 -7.5 0.6 -7.5 0.6 -7.45 Q0.5 -7.4 0.4 -7.45 L0.35 -7.25 Q0.35 -7.2 0.35 -7.15 L0.35 -7.15 0.3 -7.1 0.25 -7.2 Q0.2 -7.35 0.0 -7.4 0.15 -7.8 0.25 -7.85 L0.25 -7.9 0.1 -7.9 0.1 -7.9 0.15 -7.95 -0.1 -8.3 M0.25 -5.45 L0.4 -5.15 0.3 -5.05 0.3 -4.6 0.45 -4.6 0.45 -3.95 0.45 -3.85 0.4 -3.5 0.25 -3.5 0.2 -3.5 0.15 -3.55 0.1 -3.5 -0.05 -3.55 0.05 -3.4 0.1 -3.4 0.05 -3.35 0.1 -3.35 Q0.2 -3.35 0.3 -3.25 L0.3 -3.25 Q0.2 -3.1 0.15 -2.75 0.15 -2.35 0.0 -2.2 0.05 -2.1 0.15 -2.15 L0.15 -2.1 -0.15 -2.0 -0.4 -2.1 -0.4 -2.15 Q-0.3 -2.1 -0.25 -2.2 -0.45 -2.35 -0.45 -2.75 L-0.5 -3.0 -0.35 -3.05 Q-0.3 -3.35 -0.15 -3.35 L-0.15 -3.6 -0.1 -3.6 -0.1 -3.7 -0.15 -3.7 -0.15 -3.55 -0.4 -3.5 -0.45 -3.55 Q-0.35 -3.6 -0.4 -3.65 L-0.25 -3.7 -0.35 -3.85 -0.5 -3.85 -0.55 -3.9 -0.55 -4.0 -0.4 -4.0 -0.4 -4.05 -0.35 -4.0 -0.2 -4.0 -0.2 -4.0 Q-0.2 -4.0 -0.15 -4.0 -0.05 -4.05 -0.05 -4.2 L-0.15 -4.35 -0.25 -4.35 -0.3 -4.35 -0.3 -4.15 Q-0.4 -4.15 -0.4 -4.1 L-0.55 -4.25 -0.7 -4.35 -0.75 -4.35 -0.7 -4.6 -0.55 -4.6 -0.55 -5.05 -0.65 -5.15 -0.5 -5.45 -0.5 -5.45 Q-0.4 -5.35 -0.4 -5.2 L-0.4 -5.15 -0.25 -5.3 -0.15 -5.4 -0.05 -5.3 0.1 -5.15 0.15 -5.2 Q0.15 -5.35 0.2 -5.45 L0.25 -5.45 M0.1 -5.1 L0.0 -5.1 -0.15 -5.15 -0.2 -5.1 -0.3 -5.1 -0.4 -5.1 -0.4 -4.8 Q-0.4 -4.75 -0.3 -4.75 L-0.3 -4.7 -0.35 -4.7 -0.5 -4.75 Q-0.5 -4.6 -0.35 -4.5 L-0.25 -4.6 -0.2 -4.6 -0.15 -4.55 -0.15 -4.55 -0.1 -4.55 -0.05 -4.6 0.1 -4.5 Q0.2 -4.6 0.2 -4.75 L0.05 -4.7 0.0 -4.7 0.0 -4.75 0.1 -4.8 0.15 -4.9 0.1 -5.1 M0.45 -0.1 L0.45 -0.05 0.7 -0.1 0.7 -0.05 0.65 0.05 0.6 0.1 0.7 0.3 Q0.75 0.4 0.8 0.4 L0.95 0.3 Q1.2 0.3 1.35 0.15 1.25 0.1 1.25 0.0 L1.25 -0.15 0.8 -0.1 0.8 -0.1 0.7 -0.1 0.7 -0.2 Q0.45 -0.2 0.45 -0.1 M1.0 0.4 L0.6 0.5 0.65 0.7 Q0.85 0.65 1.0 0.4 M-0.95 -17.45 L-0.95 -17.45 -0.9 -17.9 -0.95 -17.45 M-1.35 -12.25 L-1.35 -12.25 M-0.9 -7.6 L-1.0 -7.65 Q-1.1 -7.65 -1.1 -7.75 L-1.1 -7.8 -1.1 -7.8 -1.0 -7.75 Q-0.95 -7.75 -0.9 -7.75 L-0.85 -7.75 -0.8 -8.0 Q-0.75 -8.1 -0.75 -8.25 L-0.65 -8.25 Q-0.55 -8.2 -0.55 -8.15 L-0.55 -8.05 Q-0.5 -8.1 -0.5 -8.2 L-0.5 -8.35 Q-0.35 -8.25 -0.3 -8.25 L-0.2 -8.3 -0.45 -7.95 -0.4 -7.9 -0.4 -7.9 -0.5 -7.9 -0.55 -7.9 -0.55 -7.85 Q-0.45 -7.8 -0.25 -7.4 -0.45 -7.35 -0.5 -7.2 L-0.55 -7.1 -0.6 -7.15 -0.65 -7.15 -0.65 -7.25 -0.7 -7.45 Q-0.8 -7.4 -0.85 -7.45 L-0.85 -7.5 -0.8 -7.5 -0.85 -7.55 -0.85 -7.6 -0.9 -7.6 M-1.9 -5.2 L-1.9 -5.4 -1.9 -5.2 M-1.9 -5.4 L-1.9 -5.4" fill="#8e7135" fill-rule="evenodd" stroke="none"/>
    <path d="M0.75 -16.55 L0.75 -16.25 0.75 -16.15 0.8 -15.75 0.75 -15.7 0.55 -15.7 0.5 -15.95 0.4 -15.9 0.35 -16.05 0.6 -16.15 0.55 -16.2 0.5 -16.25 0.4 -16.15 0.4 -16.15 0.25 -16.3 0.15 -16.4 0.15 -16.6 Q0.2 -16.65 0.35 -16.65 L0.45 -16.65 0.55 -16.5 0.75 -16.55 M0.85 -14.9 L0.9 -14.45 0.9 -14.4 0.65 -14.2 0.5 -14.45 0.55 -14.75 0.85 -14.9 M1.45 -7.35 L1.6 -5.4 1.55 -5.45 Q1.35 -5.55 1.35 -5.6 L1.4 -6.2 Q1.4 -6.45 1.3 -6.6 L1.35 -6.65 1.3 -6.95 1.25 -7.15 1.4 -7.3 1.45 -7.35 M-1.9 -5.4 L-1.75 -7.35 -1.7 -7.3 -1.55 -7.15 -1.55 -6.95 -1.6 -6.65 -1.6 -6.6 Q-1.65 -6.45 -1.65 -6.2 L-1.65 -5.6 Q-1.65 -5.55 -1.8 -5.45 L-1.9 -5.4 -1.9 -5.4 -1.75 -7.35 -1.75 -7.35 -1.9 -5.4 M-1.2 -14.45 L-1.15 -14.9 -1.15 -14.9 -0.8 -14.75 -0.8 -14.45 -0.95 -14.2 -1.2 -14.4 -1.2 -14.45 M-1.1 -15.75 L-1.0 -16.55 Q-0.95 -16.5 -0.8 -16.5 L-0.75 -16.65 -0.6 -16.65 Q-0.4 -16.65 -0.4 -16.5 -0.4 -16.4 -0.5 -16.3 L-0.65 -16.15 -0.7 -16.15 -0.8 -16.25 -0.85 -16.2 -0.85 -16.15 Q-0.7 -16.15 -0.65 -16.05 L-0.7 -15.9 -0.8 -15.95 -0.8 -15.7 -1.05 -15.7 -1.1 -15.75 M0.05 -18.8 L-0.1 -18.75 -0.15 -18.75 -0.35 -18.8 -0.15 -18.85 -0.3 -19.0 Q-0.4 -19.05 -0.4 -19.15 L-0.35 -19.2 -0.2 -19.2 -0.2 -19.45 -0.2 -19.45 -0.15 -19.65 -0.05 -19.45 -0.05 -19.45 -0.1 -19.25 -0.05 -19.2 0.05 -19.2 0.1 -19.15 Q0.1 -19.05 0.0 -19.0 L-0.1 -18.85 0.05 -18.8 M-0.6 -18.0 L-0.45 -18.0 -0.15 -18.0 0.15 -18.0 0.3 -18.0 0.3 -18.0 0.25 -17.8 0.05 -17.45 0.2 -17.5 0.25 -17.4 0.2 -17.25 0.1 -17.3 0.1 -17.3 0.0 -17.3 -0.05 -17.25 -0.1 -17.2 -0.1 -17.25 -0.05 -17.45 -0.15 -17.55 -0.2 -17.45 -0.15 -17.25 -0.15 -17.2 -0.2 -17.25 -0.3 -17.3 -0.5 -17.25 -0.55 -17.4 -0.5 -17.5 -0.35 -17.45 -0.5 -17.8 -0.6 -18.0 -0.6 -18.0 M0.25 -15.95 L0.15 -15.85 0.2 -15.65 0.2 -15.6 0.15 -15.55 Q0.1 -15.5 0.05 -15.5 -0.05 -15.5 -0.05 -15.75 L-0.05 -16.0 0.0 -16.1 0.0 -16.15 0.05 -16.1 0.2 -16.05 0.25 -16.0 0.25 -15.95 M0.2 -16.05 L0.2 -16.05 M-0.25 -14.9 Q-0.35 -14.75 -0.45 -14.75 L-0.45 -14.75 -0.45 -14.85 -0.35 -14.95 -0.35 -14.95 -0.45 -14.9 -0.5 -15.1 -0.4 -15.4 -0.35 -15.4 -0.25 -15.2 -0.2 -15.05 -0.25 -14.9 M-0.65 -14.55 L-0.6 -14.45 -0.5 -14.45 Q-0.45 -14.45 -0.45 -14.45 L-0.4 -14.35 -0.45 -14.35 -0.4 -14.15 Q-0.55 -14.05 -0.6 -14.05 L-0.7 -14.15 -0.75 -14.25 -0.7 -14.4 -0.65 -14.45 -0.65 -14.55 M0.1 -14.15 L0.15 -14.35 0.1 -14.35 0.15 -14.45 Q0.2 -14.45 0.25 -14.45 L0.3 -14.45 0.35 -14.55 0.35 -14.45 0.4 -14.4 0.45 -14.25 0.45 -14.15 0.35 -14.05 Q0.3 -14.05 0.1 -14.15 M0.15 -14.75 L0.15 -14.75 Q0.05 -14.75 -0.05 -14.9 L-0.1 -15.05 -0.05 -15.2 0.1 -15.4 0.1 -15.4 0.2 -15.15 0.2 -14.9 0.1 -14.95 0.05 -14.95 0.2 -14.85 0.15 -14.75 M1.05 -5.2 L1.1 -5.15 1.15 -5.0 Q1.15 -4.95 1.05 -4.95 0.95 -4.9 0.95 -4.8 0.95 -4.7 1.0 -4.65 0.9 -4.7 0.9 -4.8 0.85 -4.9 0.65 -4.9 L0.55 -4.85 0.4 -4.75 0.45 -4.7 0.7 -4.65 Q0.6 -4.65 0.6 -4.55 0.6 -4.5 0.65 -4.55 L0.85 -4.55 0.85 -4.35 0.8 -4.2 0.8 -4.15 0.85 -4.15 0.85 -4.15 0.9 -4.2 1.0 -4.2 1.0 -4.05 0.95 -3.85 Q0.8 -3.95 0.7 -3.85 L0.65 -3.8 0.6 -3.8 0.6 -3.95 0.6 -4.3 0.5 -4.3 0.5 -4.25 0.45 -3.95 0.45 -4.6 0.3 -4.6 0.3 -5.05 0.4 -5.15 Q0.45 -5.25 0.5 -5.35 L0.65 -5.55 0.7 -5.5 0.75 -5.35 0.7 -5.3 0.65 -5.2 0.85 -5.0 0.9 -5.15 1.05 -5.2 M-0.65 -5.15 L-0.55 -5.05 -0.55 -4.6 -0.7 -4.6 -0.75 -4.35 -0.75 -3.95 -0.75 -4.3 -0.85 -4.3 -0.9 -4.2 -0.85 -3.95 -0.85 -3.8 -0.95 -3.8 -0.95 -3.85 Q-1.1 -3.95 -1.25 -3.85 L-1.3 -4.05 -1.3 -4.15 -1.25 -4.2 -1.2 -4.2 -1.15 -4.15 -1.1 -4.15 -1.1 -4.2 -1.15 -4.35 -1.15 -4.55 -0.95 -4.55 Q-0.9 -4.5 -0.9 -4.55 -0.9 -4.65 -1.0 -4.65 L-0.7 -4.7 -0.7 -4.75 -0.8 -4.85 -0.9 -4.9 Q-1.15 -4.9 -1.15 -4.8 -1.2 -4.7 -1.3 -4.65 -1.2 -4.7 -1.2 -4.8 -1.2 -4.9 -1.35 -4.95 -1.45 -4.95 -1.45 -5.0 L-1.4 -5.15 -1.35 -5.2 -1.2 -5.15 -1.1 -5.0 -0.95 -5.2 -0.95 -5.3 -1.0 -5.35 -0.95 -5.5 -0.9 -5.55 -0.8 -5.35 Q-0.75 -5.25 -0.65 -5.15 M-0.3 -16.15 L-0.25 -16.1 -0.25 -15.8 Q-0.25 -15.5 -0.35 -15.5 L-0.45 -15.6 -0.5 -15.65 -0.4 -15.85 -0.5 -15.95 -0.5 -16.0 -0.5 -16.05 -0.35 -16.1 -0.3 -16.15 M-1.2 -14.4 L-1.15 -14.9 -1.2 -14.4" fill="#ceb970" fill-rule="evenodd" stroke="none"/>
    <path d="M0.9 -14.4 L0.95 -14.15 0.95 -14.15 0.85 -14.1 0.8 -14.05 Q0.5 -13.9 0.5 -13.7 L0.55 -13.65 0.65 -13.65 0.5 -13.45 0.65 -13.35 0.65 -13.25 0.5 -13.2 0.5 -13.15 Q0.45 -13.3 0.45 -13.45 L0.25 -13.45 0.15 -13.5 -0.05 -13.5 -0.05 -13.55 0.15 -13.6 0.2 -13.6 Q0.4 -13.7 0.45 -13.75 0.3 -13.75 0.1 -13.85 L0.05 -13.9 0.0 -13.95 0.0 -14.0 -0.05 -14.05 -0.05 -14.1 -0.15 -14.05 -0.2 -14.1 -0.2 -14.05 -0.25 -14.0 -0.3 -13.95 -0.3 -13.9 -0.4 -13.85 Q-0.55 -13.75 -0.7 -13.75 -0.65 -13.7 -0.5 -13.6 L-0.4 -13.6 -0.25 -13.55 -0.25 -13.5 -0.45 -13.5 -0.5 -13.45 -0.75 -13.45 Q-0.75 -13.3 -0.8 -13.15 L-0.8 -13.2 -0.9 -13.25 -0.9 -13.35 -0.8 -13.45 -0.9 -13.65 -0.8 -13.65 -0.8 -13.7 Q-0.8 -13.9 -1.05 -14.05 L-1.15 -14.1 -1.2 -14.15 -1.2 -14.45 -1.2 -14.4 -0.95 -14.2 -0.8 -14.45 -0.6 -14.85 -0.6 -14.85 -0.55 -14.9 -0.5 -14.9 -0.45 -14.9 -0.35 -14.95 -0.35 -14.95 -0.45 -14.85 -0.5 -14.8 -0.55 -14.75 -0.6 -14.7 -0.6 -14.65 -0.65 -14.55 -0.65 -14.55 -0.65 -14.45 -0.7 -14.4 -0.75 -14.25 -0.7 -14.15 -0.6 -14.05 Q-0.55 -14.05 -0.4 -14.15 L-0.3 -14.2 -0.25 -14.2 -0.25 -14.2 -0.15 -14.2 -0.15 -14.2 -0.1 -14.2 -0.05 -14.2 0.0 -14.2 0.0 -14.2 0.1 -14.15 Q0.3 -14.05 0.35 -14.05 L0.45 -14.15 0.45 -14.25 0.4 -14.4 0.35 -14.45 0.35 -14.55 0.35 -14.65 0.3 -14.7 0.25 -14.75 0.25 -14.8 0.2 -14.85 0.05 -14.95 0.1 -14.95 0.2 -14.9 0.2 -14.9 0.3 -14.9 0.35 -14.85 0.35 -14.85 0.5 -14.45 0.65 -14.2 0.9 -14.4 M0.2 -17.05 L0.05 -17.0 0.2 -17.0 0.2 -16.85 0.05 -16.85 0.0 -16.6 Q0.0 -16.5 0.2 -16.35 L0.2 -16.05 0.05 -16.1 0.0 -16.15 -0.05 -16.25 -0.05 -16.3 -0.05 -16.55 -0.15 -16.7 Q-0.2 -16.6 -0.2 -16.55 L-0.2 -16.65 -0.3 -16.65 -0.35 -16.85 -0.45 -16.85 -0.4 -17.0 -0.35 -17.0 -0.4 -17.05 -0.3 -17.1 -0.2 -17.15 -0.2 -17.1 -0.15 -17.1 -0.1 -17.1 0.0 -17.15 0.15 -17.2 0.15 -17.1 0.2 -17.05 M0.3 -15.2 L0.35 -15.25 0.35 -15.25 0.5 -15.25 0.45 -15.15 0.4 -15.05 0.35 -14.9 0.3 -14.95 0.3 -15.0 0.25 -15.1 0.3 -15.2 M0.35 -14.55 L0.35 -14.55 M0.5 -13.1 L0.5 -13.1 0.6 -13.15 0.7 -13.2 0.7 -13.05 0.5 -12.95 Q0.35 -12.9 0.35 -12.85 L0.35 -12.8 Q0.35 -12.75 0.45 -12.75 L0.6 -12.7 0.6 -12.55 0.45 -12.55 0.3 -12.75 0.2 -12.85 0.1 -12.95 0.1 -12.95 0.15 -13.0 0.2 -13.0 0.25 -13.0 0.25 -13.0 0.3 -13.0 0.4 -12.95 Q0.45 -12.95 0.45 -13.0 L0.5 -13.1 M0.0 -11.85 L0.05 -11.9 0.2 -11.75 0.2 -11.65 0.3 -11.1 0.25 -11.0 0.1 -10.9 Q0.2 -10.95 0.25 -10.8 L0.25 -10.8 0.2 -10.6 0.05 -10.6 Q-0.05 -11.15 -0.15 -11.3 -0.25 -11.15 -0.3 -10.6 L-0.5 -10.6 -0.5 -10.8 -0.55 -10.8 Q-0.5 -10.95 -0.4 -10.9 L-0.5 -11.0 -0.6 -11.1 -0.55 -11.25 -0.55 -11.3 -0.45 -11.6 -0.45 -11.65 -0.5 -11.75 -0.35 -11.9 -0.3 -11.85 -0.25 -11.8 Q-0.2 -11.85 -0.15 -11.95 L-0.05 -11.8 0.0 -11.85 M-0.5 -10.45 L-0.5 -10.45 Q-0.4 -10.35 -0.25 -10.35 L-0.25 -10.25 -0.35 -10.25 -0.4 -10.3 -0.5 -10.1 Q-0.35 -10.1 -0.35 -9.95 L-0.3 -9.65 0.05 -9.65 0.05 -9.95 Q0.1 -10.1 0.2 -10.1 L0.15 -10.3 0.05 -10.25 -0.05 -10.25 -0.05 -10.35 Q0.15 -10.35 0.2 -10.45 L0.5 -10.25 Q0.45 -10.25 0.35 -10.2 L0.2 -10.0 0.35 -9.95 0.25 -9.85 0.0 -9.6 Q0.15 -9.45 0.3 -9.5 L0.3 -9.25 Q0.35 -9.15 0.45 -9.15 L0.55 -9.25 0.55 -9.2 0.55 -9.0 0.45 -8.75 0.4 -8.7 0.3 -8.65 0.2 -8.7 0.3 -8.85 Q0.4 -8.9 0.4 -9.05 L0.4 -9.15 0.25 -9.1 0.2 -9.1 0.15 -9.15 0.25 -9.25 0.3 -9.35 0.25 -9.45 0.2 -9.4 Q0.15 -9.35 0.1 -9.35 0.0 -9.35 -0.1 -9.45 L-0.15 -9.5 Q-0.25 -9.35 -0.35 -9.35 -0.4 -9.35 -0.45 -9.4 L-0.55 -9.45 -0.55 -9.35 -0.5 -9.25 -0.45 -9.15 -0.45 -9.1 -0.55 -9.1 -0.65 -9.15 -0.7 -9.05 Q-0.7 -8.9 -0.55 -8.85 L-0.5 -8.7 -0.6 -8.65 -0.7 -8.7 -0.7 -8.75 -0.8 -9.0 -0.85 -9.2 -0.85 -9.25 -0.75 -9.15 Q-0.6 -9.15 -0.6 -9.25 L-0.55 -9.4 -0.55 -9.5 -0.5 -9.5 -0.4 -9.5 -0.3 -9.6 -0.5 -9.85 -0.65 -9.95 -0.5 -10.0 -0.65 -10.2 -0.75 -10.25 -0.6 -10.35 -0.6 -10.4 -0.5 -10.45 M-0.6 -15.25 L-0.6 -15.2 -0.55 -15.1 -0.55 -15.0 -0.6 -15.0 -0.6 -14.9 -0.65 -15.05 -0.7 -15.15 -0.8 -15.25 -0.65 -15.25 -0.6 -15.25 M-1.2 -14.15 L-1.2 -14.4 -1.2 -14.15 -1.2 -14.15 M-0.9 -12.55 L-0.9 -12.55 -0.85 -12.7 -0.75 -12.75 Q-0.65 -12.75 -0.65 -12.8 L-0.65 -12.85 Q-0.65 -12.9 -0.8 -12.95 L-1.0 -13.05 -1.0 -13.2 -0.8 -13.1 -0.8 -13.15 -0.75 -13.0 -0.65 -12.95 -0.6 -13.0 -0.55 -13.0 -0.5 -13.0 -0.5 -13.0 -0.4 -13.0 -0.35 -12.95 -0.4 -12.95 -0.5 -12.85 -0.6 -12.75 -0.7 -12.55 -0.9 -12.55 M-0.15 -11.6 Q-0.05 -11.6 -0.05 -11.75 -0.05 -11.85 -0.15 -11.9 L-0.25 -11.75 Q-0.25 -11.6 -0.15 -11.6" fill="#7d5b24" fill-rule="evenodd" stroke="none"/>
    <path d="M0.8 -15.75 L0.8 -15.7 0.55 -15.5 Q0.6 -15.45 0.75 -15.45 L0.75 -15.35 0.55 -15.35 0.6 -15.1 Q0.6 -15.0 0.8 -15.0 L0.85 -15.05 0.85 -14.9 0.85 -14.9 0.55 -14.75 0.5 -14.45 0.35 -14.85 0.35 -14.85 0.35 -14.9 0.4 -15.05 0.45 -15.15 0.5 -15.1 0.5 -15.1 0.55 -15.25 0.5 -15.35 0.4 -15.45 0.4 -15.6 Q0.5 -15.6 0.5 -15.7 L0.5 -15.75 0.45 -15.75 0.45 -15.75 0.4 -15.8 0.4 -15.9 0.5 -15.95 0.55 -15.7 0.75 -15.7 0.8 -15.75 M0.95 -13.6 L1.0 -13.15 0.9 -13.2 0.8 -13.2 0.75 -13.05 0.75 -12.95 0.85 -13.0 0.9 -12.95 0.8 -12.85 0.8 -12.95 Q0.7 -12.95 0.75 -12.95 L0.8 -12.8 0.75 -12.75 0.75 -12.7 0.75 -12.65 0.7 -12.6 0.6 -12.55 0.6 -12.7 0.45 -12.75 Q0.35 -12.75 0.35 -12.8 L0.35 -12.85 Q0.35 -12.9 0.5 -12.95 L0.7 -13.05 0.7 -13.2 0.6 -13.15 0.5 -13.1 0.5 -13.1 0.5 -13.15 0.5 -13.2 0.65 -13.25 0.65 -13.35 0.5 -13.45 0.65 -13.65 0.55 -13.65 0.5 -13.7 Q0.5 -13.9 0.8 -14.05 L0.85 -14.1 0.85 -13.9 0.8 -13.7 0.75 -13.65 0.75 -13.65 0.65 -13.65 0.7 -13.65 0.75 -13.65 0.8 -13.65 0.85 -13.6 0.9 -13.55 0.95 -13.6 M-1.3 -13.15 L-1.25 -13.6 -1.2 -13.55 -1.15 -13.6 -1.05 -13.65 -1.05 -13.65 -1.0 -13.65 -0.9 -13.65 -0.8 -13.45 -0.9 -13.35 -0.9 -13.25 -0.8 -13.2 -0.8 -13.15 -0.8 -13.1 -1.0 -13.2 -1.0 -13.05 -0.8 -12.95 Q-0.65 -12.9 -0.65 -12.85 L-0.65 -12.8 Q-0.65 -12.75 -0.75 -12.75 L-0.85 -12.7 -0.9 -12.55 -0.9 -12.55 -1.0 -12.6 -1.0 -12.65 -1.05 -12.7 -1.05 -12.8 -1.0 -12.95 Q-1.0 -12.95 -1.1 -12.95 L-1.1 -12.85 -1.2 -12.95 -1.15 -13.0 -1.05 -12.95 -1.05 -13.2 -1.2 -13.2 -1.3 -13.15 -1.25 -13.6 -1.3 -13.15 -1.3 -13.15 M-1.15 -14.9 L-1.15 -15.05 -1.15 -14.9 -1.15 -15.05 -1.15 -15.05 -1.05 -15.0 Q-0.9 -15.0 -0.85 -15.1 L-0.85 -15.35 -1.05 -15.35 -1.05 -15.45 Q-0.85 -15.45 -0.85 -15.5 L-1.1 -15.7 -1.1 -15.75 -1.05 -15.7 -0.8 -15.7 -0.8 -15.95 -0.7 -15.9 -0.65 -15.85 -0.7 -15.8 -0.7 -15.75 -0.75 -15.75 -0.75 -15.75 -0.8 -15.7 Q-0.8 -15.6 -0.7 -15.6 L-0.7 -15.45 -0.8 -15.35 -0.8 -15.25 -0.8 -15.1 -0.7 -15.15 -0.65 -15.05 -0.6 -14.9 -0.6 -14.85 -0.6 -14.85 -0.8 -14.45 -0.8 -14.75 -1.15 -14.9 -1.15 -14.9 M0.35 -16.05 L0.3 -16.0 0.25 -15.95 0.25 -16.0 0.2 -16.05 0.35 -16.05 M-0.2 -16.55 Q-0.2 -16.6 -0.15 -16.7 L-0.05 -16.55 -0.05 -16.3 -0.05 -16.25 0.0 -16.15 0.0 -16.1 -0.05 -16.1 Q-0.1 -16.1 -0.15 -16.05 L-0.25 -16.1 -0.25 -16.1 -0.3 -16.15 -0.25 -16.25 -0.25 -16.3 -0.2 -16.45 -0.2 -16.55 M-0.05 -15.75 Q-0.05 -15.5 0.05 -15.5 0.1 -15.5 0.15 -15.55 L0.2 -15.3 0.2 -15.15 0.1 -15.4 0.1 -15.4 -0.05 -15.2 -0.1 -15.05 -0.05 -14.9 Q0.05 -14.75 0.15 -14.75 L0.15 -14.75 0.25 -14.8 0.25 -14.75 0.3 -14.7 0.35 -14.65 0.2 -14.6 0.2 -14.6 0.35 -14.55 0.3 -14.45 0.25 -14.45 Q0.2 -14.45 0.15 -14.45 L0.15 -14.45 0.1 -14.5 0.05 -14.45 0.05 -14.35 0.1 -14.35 0.15 -14.35 0.1 -14.15 0.0 -14.2 0.0 -14.2 -0.05 -14.2 0.0 -14.25 0.0 -14.35 -0.1 -14.5 -0.15 -14.55 -0.2 -14.5 -0.3 -14.35 -0.25 -14.25 -0.25 -14.2 -0.25 -14.2 -0.3 -14.2 -0.4 -14.15 -0.45 -14.35 -0.4 -14.35 -0.35 -14.35 -0.3 -14.45 -0.35 -14.5 -0.45 -14.45 -0.45 -14.45 Q-0.45 -14.45 -0.5 -14.45 L-0.6 -14.45 -0.65 -14.55 -0.5 -14.6 -0.45 -14.6 -0.5 -14.6 -0.6 -14.65 -0.6 -14.7 -0.55 -14.75 -0.5 -14.8 -0.45 -14.75 -0.45 -14.75 Q-0.35 -14.75 -0.25 -14.9 L-0.15 -15.0 -0.15 -15.05 -0.1 -15.0 -0.1 -14.95 Q-0.15 -15.25 -0.2 -15.3 L-0.15 -15.45 Q-0.1 -15.45 -0.1 -15.5 L-0.15 -15.65 -0.05 -15.75 M-0.65 -14.55 L-0.65 -14.55 M0.35 -14.55 L0.35 -14.55 M0.0 -14.0 L0.0 -13.85 -0.05 -13.55 0.0 -13.55 0.15 -13.6 -0.05 -13.55 -0.05 -13.5 0.15 -13.5 0.15 -13.3 Q-0.05 -13.3 -0.05 -13.2 L0.0 -13.1 0.0 -13.05 -0.05 -13.0 Q-0.05 -12.9 0.05 -12.9 L0.1 -12.95 0.2 -12.85 0.15 -12.85 Q0.2 -12.75 0.25 -12.7 L0.35 -12.65 0.3 -12.55 0.2 -12.5 0.05 -12.35 0.0 -12.25 0.05 -12.05 0.0 -11.85 -0.05 -11.8 -0.15 -11.95 Q-0.2 -11.85 -0.25 -11.8 L-0.3 -11.85 -0.35 -12.05 -0.3 -12.1 -0.3 -12.3 -0.35 -12.35 -0.4 -12.4 -0.5 -12.5 -0.6 -12.55 -0.6 -12.65 -0.55 -12.7 Q-0.45 -12.75 -0.45 -12.85 L-0.5 -12.85 -0.4 -12.95 -0.35 -12.9 Q-0.25 -12.9 -0.25 -13.0 L-0.25 -13.05 -0.3 -13.1 -0.25 -13.2 Q-0.25 -13.3 -0.4 -13.3 L-0.45 -13.5 -0.25 -13.5 -0.25 -13.55 -0.4 -13.6 -0.3 -13.55 -0.25 -13.55 -0.25 -14.0 -0.2 -14.05 -0.2 -14.1 -0.15 -14.05 -0.05 -14.1 -0.05 -14.05 0.0 -14.0 M0.3 -5.8 Q0.3 -5.7 0.35 -5.65 L0.2 -5.7 0.2 -5.5 0.25 -5.45 0.2 -5.45 Q0.15 -5.35 0.15 -5.2 L0.1 -5.15 -0.05 -5.3 -0.15 -5.4 -0.25 -5.3 -0.4 -5.15 -0.4 -5.2 Q-0.4 -5.35 -0.5 -5.45 L-0.5 -5.45 -0.5 -5.7 -0.65 -5.65 Q-0.55 -5.7 -0.55 -5.8 L-0.5 -5.8 -0.45 -5.8 -0.55 -5.85 -0.5 -5.95 -0.4 -5.85 Q-0.35 -5.85 -0.35 -5.9 -0.45 -6.1 -0.45 -6.15 L-0.4 -6.15 -0.45 -6.4 -0.15 -6.75 0.15 -6.4 0.15 -6.15 Q0.15 -6.1 0.1 -5.9 0.1 -5.85 0.1 -5.85 L0.25 -5.95 0.25 -5.85 0.2 -5.8 0.2 -5.8 0.3 -5.8 M-0.6 -16.05 L-0.5 -16.05 -0.5 -16.0 -0.55 -15.95 -0.55 -16.0 -0.6 -16.05 M-1.15 -14.1 L-1.05 -14.05 Q-0.8 -13.9 -0.8 -13.7 L-0.8 -13.65 -0.9 -13.65 -1.0 -13.65 -1.05 -13.65 -1.1 -13.7 -1.1 -13.9 -1.15 -14.1 M-0.8 -13.15 L-0.8 -13.15" fill="#b58d38" fill-rule="evenodd" stroke="none"/>
    <path d="M-0.5 -10.6 L-0.3 -10.6 Q-0.25 -11.15 -0.15 -11.3 -0.05 -11.15 0.05 -10.6 L0.2 -10.6 0.2 -10.45 Q0.15 -10.35 -0.05 -10.35 L-0.05 -10.25 0.05 -10.25 0.15 -10.3 0.2 -10.1 Q0.1 -10.1 0.05 -9.95 L0.05 -9.65 -0.3 -9.65 -0.35 -9.95 Q-0.35 -10.1 -0.5 -10.1 L-0.4 -10.3 -0.35 -10.25 -0.25 -10.25 -0.25 -10.35 Q-0.4 -10.35 -0.5 -10.45 L-0.5 -10.45 Q-0.45 -10.5 -0.45 -10.5 L-0.5 -10.6 M-0.4 -8.6 L-0.45 -8.6 -0.45 -8.6 -0.5 -8.7 -0.55 -8.85 Q-0.7 -8.9 -0.7 -9.05 L-0.65 -9.15 -0.55 -9.1 -0.45 -9.1 -0.45 -9.15 -0.5 -9.25 -0.55 -9.35 -0.55 -9.45 -0.45 -9.4 Q-0.4 -9.35 -0.35 -9.35 -0.25 -9.35 -0.15 -9.5 L-0.1 -9.45 -0.1 -9.35 -0.1 -9.4 -0.15 -9.4 -0.15 -9.4 -0.35 -9.15 -0.25 -9.05 -0.2 -9.05 -0.35 -8.9 -0.4 -8.6 M1.0 -3.15 L0.95 -2.55 0.9 -2.65 Q0.85 -2.7 0.75 -2.7 L0.5 -2.65 0.5 -2.65 Q0.45 -2.65 0.4 -2.7 L0.4 -2.75 0.45 -2.85 0.5 -2.95 0.45 -3.0 0.45 -3.0 0.35 -3.15 0.3 -3.2 0.3 -3.25 0.3 -3.25 Q0.2 -3.35 0.1 -3.35 L0.05 -3.35 0.1 -3.4 0.1 -3.5 0.15 -3.55 0.2 -3.5 0.25 -3.5 0.4 -3.5 0.45 -3.85 0.45 -3.95 0.5 -4.25 0.5 -4.3 0.6 -4.3 0.6 -3.95 0.6 -3.8 0.65 -3.8 0.9 -3.7 0.8 -3.6 Q0.75 -3.5 0.75 -3.45 L0.9 -3.45 Q0.9 -3.3 0.8 -3.3 0.7 -3.3 0.6 -3.35 0.6 -3.25 0.7 -3.1 L0.95 -3.2 1.0 -3.15 M1.05 -1.5 L0.95 -1.35 0.9 -1.3 0.95 -1.0 0.95 -1.05 1.05 -0.7 Q0.95 -0.5 0.75 -0.6 L0.75 -0.3 Q0.7 -0.25 0.6 -0.25 0.55 -0.3 0.55 -0.45 L0.6 -0.65 0.6 -0.8 Q0.55 -0.8 0.55 -0.85 L0.45 -0.85 0.4 -0.85 0.1 -0.9 0.3 -0.95 0.4 -1.0 0.5 -0.95 0.5 -0.95 0.65 -1.1 0.6 -1.2 0.55 -1.3 0.55 -1.65 0.55 -2.0 0.6 -2.05 Q0.7 -1.95 0.7 -1.75 L0.7 -1.5 0.85 -1.55 0.9 -1.6 Q1.0 -1.6 1.0 -1.55 L1.05 -1.5 M0.8 1.0 Q0.85 0.85 0.9 0.75 1.05 0.5 1.3 0.55 L1.3 0.8 1.05 0.8 Q0.95 0.8 0.9 0.9 L1.15 0.9 1.65 0.9 1.65 0.85 1.55 0.5 1.6 0.5 Q1.65 0.5 1.7 0.35 L1.75 0.1 1.8 0.25 1.8 0.3 1.9 0.15 1.9 0.1 1.95 0.25 2.0 0.3 2.0 0.7 1.95 0.7 1.9 0.95 1.25 1.1 1.1 1.1 0.8 1.0 M-0.45 -3.55 L-0.4 -3.5 -0.4 -3.5 -0.35 -3.35 Q-0.45 -3.35 -0.6 -3.25 L-0.65 -3.15 -0.75 -3.0 -0.75 -2.95 -0.7 -2.85 -0.65 -2.75 -0.7 -2.7 -0.75 -2.65 -0.8 -2.65 -0.95 -2.7 Q-0.9 -2.55 -0.75 -2.6 L-0.7 -2.5 -0.75 -2.25 Q-0.75 -2.35 -0.85 -2.35 L-1.05 -2.25 -1.05 -2.25 -1.05 -2.4 -1.0 -2.6 -0.95 -2.7 -1.05 -2.7 -1.15 -2.65 -1.25 -2.55 -1.3 -3.15 -1.2 -3.2 -1.0 -3.1 Q-0.9 -3.25 -0.9 -3.35 -0.95 -3.3 -1.1 -3.3 -1.15 -3.3 -1.2 -3.45 L-1.0 -3.45 -1.1 -3.6 -1.2 -3.7 -0.95 -3.8 -0.85 -3.8 -0.85 -3.95 -0.9 -4.2 -0.85 -4.3 -0.75 -4.3 -0.75 -3.95 -0.75 -3.85 -0.7 -3.5 -0.5 -3.5 -0.5 -3.5 -0.45 -3.55 M-0.5 -1.35 L-0.5 -1.4 -0.55 -1.45 -0.55 -1.55 -0.4 -1.6 -0.45 -1.85 -0.15 -1.9 0.15 -1.85 0.15 -1.7 -0.25 -1.35 -0.45 -1.35 -0.5 -1.35 M1.45 2.6 L1.4 2.6 1.45 2.8 1.35 2.9 1.25 2.75 1.1 2.9 0.9 2.85 0.95 2.7 0.9 2.7 0.9 2.5 1.4 2.45 1.45 2.6 M0.6 2.65 L0.45 2.65 0.6 2.9 0.5 2.9 0.35 2.9 0.15 2.7 0.15 2.55 0.55 2.55 0.6 2.65 M-0.4 2.55 L-0.45 2.65 -0.45 2.7 -0.6 2.9 -0.75 2.9 -0.85 2.9 -0.7 2.65 -0.9 2.65 -0.85 2.55 -0.4 2.55 M-1.2 2.85 L-1.4 2.9 -1.55 2.75 -1.6 2.9 -1.75 2.8 -1.7 2.6 -1.7 2.6 -1.7 2.45 -1.15 2.5 -1.15 2.7 -1.25 2.7 -1.2 2.85 M-0.7 -11.65 L-0.6 -11.65 -0.6 -11.65 -0.55 -11.65 -0.45 -11.6 -0.55 -11.3 -0.55 -11.2 Q-0.6 -11.2 -0.65 -11.2 -0.75 -11.2 -0.75 -11.45 L-0.7 -11.65 M-0.3 -12.3 L-0.35 -12.15 -0.45 -12.0 -0.5 -12.0 -0.6 -11.95 -0.65 -12.0 -0.65 -12.15 -0.6 -12.45 -0.4 -12.4 -0.35 -12.35 -0.3 -12.3 M-0.25 -10.7 L-0.05 -10.7 -0.05 -10.75 -0.15 -11.2 -0.25 -10.75 -0.25 -10.7 M-0.75 -10.8 L-0.7 -10.8 -0.6 -10.75 Q-0.5 -10.7 -0.5 -10.65 L-0.6 -10.4 -0.6 -10.4 -0.75 -10.4 -0.8 -10.5 -0.75 -10.8 M-0.5 -9.5 L-0.55 -9.5 -0.55 -9.4 -0.65 -9.4 -0.75 -9.45 -0.8 -9.65 Q-0.8 -9.75 -0.7 -9.8 L-0.6 -9.75 Q-0.55 -9.75 -0.45 -9.8 L-0.45 -9.7 -0.5 -9.5 M-2.2 0.1 L-2.2 0.15 -2.1 0.3 -2.05 0.25 -2.05 0.1 -2.0 0.35 Q-1.95 0.5 -1.85 0.5 L-1.85 0.5 -1.9 0.85 -1.9 0.9 -1.45 0.9 -1.15 0.9 Q-1.25 0.8 -1.35 0.8 L-1.6 0.8 -1.6 0.55 Q-1.35 0.5 -1.2 0.75 -1.1 0.85 -1.1 1.0 L-1.2 1.05 -1.35 1.1 -1.55 1.1 -2.15 0.95 -2.25 0.7 -2.3 0.7 -2.25 0.3 -2.25 0.25 -2.2 0.1 M-0.9 -0.25 L-1.05 -0.3 -1.05 -0.6 Q-1.25 -0.5 -1.35 -0.7 L-1.25 -1.05 -1.2 -1.0 -1.15 -1.3 -1.25 -1.35 -1.3 -1.5 -1.3 -1.55 -1.2 -1.6 -1.0 -1.5 -1.0 -1.75 Q-1.0 -1.95 -0.85 -2.05 L-0.85 -1.65 -0.85 -1.2 -0.95 -1.1 -0.8 -0.95 -0.8 -0.95 -0.7 -1.0 -0.6 -0.95 -0.4 -0.9 -0.7 -0.85 -0.75 -0.85 -0.85 -0.85 Q-0.85 -0.8 -0.85 -0.8 L-0.85 -0.45 Q-0.85 -0.3 -0.9 -0.25" fill="#e8cf86" fill-rule="evenodd" stroke="none"/>
    <path d="M1.2 -10.45 L1.25 -10.2 1.25 -10.15 1.0 -10.1 0.9 -10.2 0.8 -10.2 0.7 -10.2 0.7 -10.15 Q0.7 -10.1 0.8 -10.0 0.9 -9.95 1.05 -9.95 1.05 -9.9 1.05 -9.9 L1.05 -9.85 0.95 -9.85 0.8 -9.9 0.75 -9.9 0.85 -9.75 Q0.85 -9.7 0.95 -9.7 0.95 -9.7 1.05 -9.75 1.15 -9.85 1.2 -9.85 L1.25 -9.8 1.3 -9.7 1.3 -9.65 1.15 -9.65 Q1.15 -9.55 1.05 -9.35 0.95 -9.15 0.95 -9.0 L0.95 -8.95 0.9 -9.0 0.85 -8.95 Q0.85 -8.85 0.75 -8.75 0.7 -8.8 0.7 -8.85 L0.65 -8.85 0.6 -8.85 0.55 -9.2 0.55 -9.25 0.5 -9.55 0.6 -9.5 0.65 -9.5 0.7 -9.4 0.7 -9.35 0.75 -9.35 0.75 -9.35 0.75 -9.55 0.85 -9.55 0.9 -9.6 Q0.7 -9.85 0.35 -9.95 L0.2 -10.0 0.35 -10.2 Q0.45 -10.25 0.5 -10.25 L0.6 -10.45 Q0.6 -10.6 0.7 -10.65 L0.75 -10.65 0.8 -10.6 0.8 -10.55 0.9 -10.65 Q0.95 -10.65 0.95 -10.65 L1.2 -10.45 M-1.55 -9.65 L-1.55 -9.8 -1.45 -9.85 Q-1.45 -9.85 -1.35 -9.75 -1.25 -9.7 -1.2 -9.7 L-1.1 -9.75 -1.05 -9.9 -1.1 -9.9 Q-1.2 -9.85 -1.25 -9.85 L-1.35 -9.85 -1.35 -9.9 Q-1.3 -9.9 -1.3 -9.95 -1.2 -9.95 -1.1 -10.0 -0.95 -10.1 -0.95 -10.15 L-0.95 -10.2 -1.05 -10.2 -1.2 -10.2 -1.3 -10.1 -1.5 -10.15 -1.5 -10.45 -1.25 -10.65 -1.2 -10.65 -1.15 -10.65 -1.1 -10.55 -1.05 -10.6 -1.0 -10.65 -0.95 -10.65 Q-0.9 -10.6 -0.85 -10.45 L-0.75 -10.25 -0.65 -10.2 -0.5 -10.0 -0.65 -9.95 Q-0.95 -9.85 -1.15 -9.6 L-1.15 -9.55 -1.0 -9.55 -1.0 -9.35 -1.0 -9.35 -1.0 -9.4 -0.9 -9.5 -0.9 -9.5 -0.75 -9.55 -0.85 -9.25 -0.85 -9.2 -0.9 -8.85 -0.95 -8.85 -1.0 -8.85 Q-1.0 -8.8 -1.0 -8.75 -1.15 -8.85 -1.15 -8.95 L-1.15 -9.0 -1.25 -8.95 -1.2 -9.0 Q-1.2 -9.15 -1.35 -9.35 -1.45 -9.55 -1.4 -9.65 L-1.55 -9.65 -1.55 -9.8 -1.55 -9.65 -1.55 -9.65 M0.9 -10.65 L0.9 -10.65 M-1.5 -10.45 L-1.5 -10.45 -1.5 -10.15 -1.5 -10.45 M-1.55 -9.8 L-1.55 -9.8" fill="#b4a05a" fill-rule="evenodd" stroke="none"/>
    <path d="M0.25 -10.8 L0.4 -11.15 Q0.55 -11.15 0.6 -10.95 L0.7 -10.65 Q0.6 -10.6 0.6 -10.45 L0.5 -10.25 0.2 -10.45 0.2 -10.6 0.25 -10.8 0.25 -10.8 M-0.5 -10.6 L-0.45 -10.5 Q-0.45 -10.5 -0.5 -10.45 L-0.6 -10.4 -0.6 -10.35 -0.75 -10.25 -0.85 -10.45 Q-0.9 -10.6 -0.95 -10.65 L-0.85 -10.95 Q-0.8 -11.15 -0.65 -11.15 L-0.65 -11.1 -0.55 -10.8 -0.5 -10.8 -0.5 -10.6 M0.7 -9.4 L0.65 -9.5 0.6 -9.5 0.5 -9.55 0.55 -9.25 0.45 -9.15 Q0.35 -9.15 0.3 -9.25 L0.3 -9.5 Q0.15 -9.45 0.0 -9.6 L0.25 -9.85 0.35 -9.95 Q0.7 -9.85 0.9 -9.6 L0.85 -9.55 0.75 -9.55 0.75 -9.35 0.7 -9.4 M-0.1 -9.45 Q0.0 -9.35 0.1 -9.35 0.15 -9.35 0.2 -9.4 L0.25 -9.45 0.3 -9.35 0.25 -9.25 0.15 -9.15 0.2 -9.1 0.25 -9.1 0.4 -9.15 0.4 -9.05 Q0.4 -8.9 0.3 -8.85 L0.2 -8.7 0.2 -8.6 0.15 -8.6 0.1 -8.6 -0.15 -8.6 -0.4 -8.6 -0.4 -8.6 -0.35 -8.9 -0.2 -9.05 -0.15 -9.05 -0.15 -9.05 -0.05 -9.05 Q0.05 -9.1 0.05 -9.15 L-0.1 -9.35 -0.1 -9.45 M-0.75 -10.8 L-0.8 -10.5 -0.75 -10.4 -0.6 -10.4 -0.6 -10.4 -0.5 -10.65 Q-0.5 -10.7 -0.6 -10.75 L-0.7 -10.8 -0.75 -10.8 M-0.65 -9.95 L-0.5 -9.85 -0.3 -9.6 -0.4 -9.5 -0.5 -9.5 -0.45 -9.7 -0.45 -9.8 Q-0.55 -9.75 -0.6 -9.75 L-0.7 -9.8 Q-0.8 -9.75 -0.8 -9.65 L-0.75 -9.45 -0.65 -9.4 -0.55 -9.4 -0.6 -9.25 Q-0.6 -9.15 -0.75 -9.15 L-0.85 -9.25 -0.75 -9.55 -0.9 -9.5 -0.9 -9.5 -1.0 -9.4 -1.0 -9.35 -1.0 -9.55 -1.15 -9.55 -1.15 -9.6 Q-0.95 -9.85 -0.65 -9.95" fill="#c6b373" fill-rule="evenodd" stroke="none"/>
    <path d="M1.35 -8.85 L1.35 -8.8 1.3 -8.8 1.0 -8.75 0.95 -8.75 0.7 -8.65 0.65 -8.65 0.45 -8.65 0.4 -8.6 0.35 -8.6 0.4 -8.6 0.75 -8.45 0.75 -8.45 1.05 -8.5 1.1 -8.55 Q1.15 -8.55 1.25 -8.6 L1.35 -8.7 1.35 -8.6 1.25 -8.45 1.15 -8.25 Q1.1 -8.3 1.05 -8.45 L1.05 -8.45 0.75 -8.35 0.7 -8.35 0.6 -8.45 0.6 -8.35 0.55 -8.45 0.45 -8.5 0.4 -8.5 0.2 -8.35 0.05 -8.25 -0.1 -8.3 Q-0.05 -8.35 0.0 -8.4 L0.25 -8.55 0.1 -8.6 0.1 -8.6 -0.45 -8.55 -0.65 -8.5 -0.5 -8.4 Q-0.35 -8.3 -0.2 -8.3 L-0.2 -8.3 -0.3 -8.25 Q-0.35 -8.25 -0.5 -8.35 L-0.7 -8.5 -0.7 -8.5 -0.8 -8.45 -0.85 -8.35 -0.85 -8.45 Q-0.9 -8.4 -1.0 -8.35 L-1.05 -8.35 -1.35 -8.45 -1.35 -8.45 Q-1.4 -8.3 -1.45 -8.25 L-1.5 -8.45 Q-1.55 -8.55 -1.65 -8.6 L-1.65 -8.7 -1.5 -8.6 Q-1.45 -8.55 -1.35 -8.55 L-1.3 -8.5 -1.05 -8.45 -1.0 -8.45 -0.7 -8.6 -0.65 -8.6 -0.7 -8.6 -0.75 -8.65 -0.9 -8.65 -0.95 -8.65 Q-1.05 -8.65 -1.25 -8.75 L-1.3 -8.75 -1.6 -8.8 -1.6 -8.8 -1.6 -8.85 -1.6 -8.8 -1.65 -8.8 -1.6 -8.85 -1.55 -8.85 -1.3 -8.8 -1.25 -8.9 -1.25 -8.95 -1.15 -9.0 -1.15 -8.95 Q-1.15 -8.85 -1.0 -8.75 -1.0 -8.8 -1.0 -8.85 L-0.95 -8.85 -0.9 -8.85 -0.7 -8.75 -0.7 -8.7 -0.6 -8.65 -0.5 -8.6 -0.45 -8.6 -0.45 -8.6 -0.4 -8.6 -0.4 -8.6 -0.15 -8.6 0.1 -8.6 0.15 -8.6 0.2 -8.6 0.2 -8.6 0.3 -8.65 0.4 -8.7 0.45 -8.75 0.6 -8.85 0.65 -8.85 0.7 -8.85 Q0.7 -8.8 0.75 -8.75 0.85 -8.85 0.85 -8.95 L0.9 -9.0 0.95 -8.95 1.0 -8.9 1.0 -8.8 1.3 -8.85 1.35 -8.85 M-0.1 -8.3 L-0.1 -8.3 M-1.6 -8.85 L-1.6 -8.85" fill="#6f522e" fill-rule="evenodd" stroke="none"/>
    <path d="M1.35 -8.8 L1.35 -8.7 1.25 -8.6 Q1.15 -8.55 1.1 -8.55 L1.05 -8.5 0.75 -8.45 0.75 -8.45 0.4 -8.6 0.35 -8.6 0.4 -8.6 0.45 -8.65 0.65 -8.65 0.7 -8.65 0.95 -8.75 1.0 -8.75 1.3 -8.8 1.35 -8.8 M-1.65 -8.7 L-1.65 -8.7 -1.65 -8.8 -1.6 -8.8 -1.6 -8.8 -1.3 -8.75 -1.25 -8.75 Q-1.05 -8.65 -0.95 -8.65 L-0.9 -8.65 -0.75 -8.65 -0.7 -8.6 -0.65 -8.6 -0.7 -8.6 -1.0 -8.45 -1.05 -8.45 -1.3 -8.5 -1.35 -8.55 Q-1.45 -8.55 -1.5 -8.6 L-1.65 -8.7 -1.6 -8.8 -1.65 -8.7 M-0.2 -8.3 L-0.2 -8.3 Q-0.35 -8.3 -0.5 -8.4 L-0.65 -8.5 -0.45 -8.55 0.1 -8.6 0.1 -8.6 0.25 -8.55 0.0 -8.4 Q-0.05 -8.35 -0.1 -8.3 L-0.1 -8.35 -0.15 -8.35 -0.15 -8.35 -0.2 -8.3" fill="#3c220e" fill-rule="evenodd" stroke="none"/>
    <path d="M0.7 -8.35 L0.75 -8.35 1.05 -8.45 Q1.1 -8.3 1.2 -8.15 L1.1 -8.05 Q1.1 -8.0 1.15 -8.0 L1.4 -8.05 1.4 -7.9 1.2 -7.85 1.0 -7.65 1.0 -7.6 0.95 -7.65 1.0 -7.7 0.95 -8.05 0.9 -8.05 Q0.9 -8.15 0.6 -8.15 L0.6 -8.25 0.7 -8.35 M0.3 -7.1 L0.35 -7.15 0.35 -7.15 0.45 -7.15 0.5 -7.4 Q0.6 -7.4 0.7 -7.3 L0.7 -7.3 0.7 -7.2 0.9 -7.05 Q0.8 -6.95 0.7 -6.95 L0.65 -6.8 0.6 -6.7 0.6 -6.5 0.45 -6.5 0.4 -6.6 0.45 -6.75 0.3 -6.7 Q0.35 -6.9 0.25 -6.9 L0.0 -6.85 0.0 -6.9 0.2 -7.05 0.3 -7.1 M0.35 -5.65 L0.35 -5.65 0.4 -5.65 0.6 -5.65 0.65 -5.55 0.5 -5.35 Q0.45 -5.25 0.4 -5.15 L0.25 -5.45 0.2 -5.5 0.2 -5.7 0.35 -5.65 M-0.5 -5.45 L-0.65 -5.15 Q-0.75 -5.25 -0.8 -5.35 L-0.9 -5.55 -0.85 -5.65 -0.7 -5.65 -0.65 -5.65 -0.65 -5.65 -0.5 -5.7 -0.5 -5.45 M-1.25 -7.65 L-1.3 -7.6 -1.3 -7.65 -1.5 -7.85 -1.65 -7.9 -1.65 -8.05 -1.4 -8.0 Q-1.4 -8.0 -1.4 -8.05 L-1.5 -8.15 -1.35 -8.45 -1.05 -8.35 -1.0 -8.35 -0.85 -8.25 -0.85 -8.15 Q-1.2 -8.15 -1.15 -8.05 L-1.25 -8.05 -1.25 -7.65 M-1.15 -7.05 L-0.95 -7.2 -1.0 -7.3 -1.0 -7.3 Q-0.9 -7.4 -0.8 -7.4 L-0.75 -7.15 -0.65 -7.15 -0.6 -7.15 -0.55 -7.1 -0.45 -7.05 -0.25 -6.9 -0.25 -6.85 -0.5 -6.9 Q-0.65 -6.9 -0.55 -6.7 L-0.75 -6.75 -0.7 -6.6 -0.75 -6.5 -0.85 -6.5 -0.9 -6.7 -0.95 -6.8 -0.95 -6.95 Q-1.1 -6.95 -1.15 -7.05" fill="#ead28d" fill-rule="evenodd" stroke="none"/>
    <path d="M1.45 -7.5 L1.45 -7.35 1.4 -7.3 1.25 -7.15 1.3 -6.95 1.35 -6.65 1.3 -6.6 1.2 -6.75 1.15 -6.55 1.15 -6.7 Q1.15 -6.85 0.9 -7.0 L0.9 -7.05 0.7 -7.2 0.7 -7.3 0.8 -7.4 0.7 -7.5 0.6 -7.5 0.6 -7.6 0.7 -7.65 Q0.85 -7.65 0.85 -7.75 L0.8 -7.8 0.8 -7.85 0.75 -7.9 Q0.75 -8.05 0.9 -8.05 L0.95 -8.05 1.0 -7.7 0.95 -7.65 0.95 -7.6 1.0 -7.6 1.2 -7.5 Q1.3 -7.45 1.4 -7.45 L1.45 -7.5 M-1.75 -7.35 L-1.75 -7.5 -1.7 -7.5 -1.65 -7.45 Q-1.6 -7.45 -1.5 -7.5 L-1.25 -7.6 -1.25 -7.65 -1.25 -8.05 -1.15 -8.05 Q-1.05 -8.05 -1.05 -7.9 L-1.1 -7.85 -1.1 -7.8 -1.1 -7.75 Q-1.1 -7.65 -1.0 -7.65 L-0.9 -7.6 -0.85 -7.5 -1.0 -7.5 -1.1 -7.4 -1.0 -7.3 -0.95 -7.2 -1.15 -7.05 -1.2 -7.0 Q-1.45 -6.85 -1.45 -6.7 L-1.45 -6.55 -1.45 -6.75 -1.6 -6.6 -1.6 -6.65 -1.55 -6.95 -1.55 -7.15 -1.7 -7.3 -1.75 -7.35 -1.7 -7.5 -1.75 -7.35 -1.75 -7.35 M1.1 -6.45 L1.05 -6.35 0.75 -6.0 0.85 -5.8 1.1 -5.8 Q1.1 -5.75 1.15 -5.55 L1.1 -5.4 1.05 -5.25 1.05 -5.2 0.9 -5.15 0.85 -5.0 0.65 -5.2 0.7 -5.3 0.75 -5.35 0.7 -5.5 0.65 -5.55 0.6 -5.65 0.4 -5.65 0.35 -5.65 0.35 -5.65 Q0.3 -5.7 0.3 -5.8 0.3 -5.85 0.35 -5.9 L0.6 -5.9 0.6 -6.1 0.65 -6.25 Q0.6 -6.4 0.6 -6.45 L0.6 -6.5 0.6 -6.7 0.65 -6.8 0.75 -6.95 0.85 -6.75 0.8 -6.55 1.05 -6.5 1.1 -6.45 M-0.85 -6.5 L-0.85 -6.45 Q-0.85 -6.4 -0.95 -6.25 L-0.9 -6.1 Q-0.85 -6.0 -0.85 -5.9 L-0.65 -5.9 Q-0.55 -5.85 -0.55 -5.8 -0.55 -5.7 -0.65 -5.65 L-0.65 -5.65 -0.7 -5.65 -0.85 -5.65 -0.9 -5.55 -0.95 -5.5 -1.0 -5.35 -0.95 -5.3 -0.95 -5.2 -1.1 -5.0 -1.2 -5.15 -1.35 -5.2 -1.3 -5.25 -1.4 -5.4 -1.45 -5.55 -1.4 -5.8 -1.1 -5.8 Q-1.1 -5.95 -1.05 -6.0 L-1.3 -6.35 -1.4 -6.45 -1.3 -6.5 -1.1 -6.55 -1.15 -6.75 -1.05 -6.95 -0.95 -6.8 -0.9 -6.7 -0.85 -6.5" fill="#af964b" fill-rule="evenodd" stroke="none"/>
    <path d="M-0.1 -8.3 L-0.1 -8.3 0.15 -7.95 0.1 -7.9 -0.05 -7.8 -0.15 -7.75 -0.2 -7.8 -0.4 -7.9 -0.45 -7.95 -0.2 -8.3 -0.15 -8.35 -0.15 -8.35 -0.1 -8.35 -0.1 -8.3" fill="#bd9c44" fill-rule="evenodd" stroke="none"/>
    <path d="M0.4 -6.65 L0.35 -6.55 0.25 -6.45 0.2 -6.45 0.15 -6.7 0.3 -6.7 0.4 -6.65 M0.45 -6.3 L0.4 -6.1 0.35 -6.15 0.3 -6.2 0.25 -6.25 Q0.3 -6.35 0.4 -6.4 L0.45 -6.3 M0.15 -6.15 L0.25 -6.1 0.25 -6.1 0.3 -6.0 0.25 -5.95 0.1 -5.85 Q0.1 -5.85 0.1 -5.9 0.15 -6.1 0.15 -6.15 M-0.55 -6.7 L-0.45 -6.7 -0.5 -6.45 -0.55 -6.45 -0.6 -6.55 -0.65 -6.65 -0.55 -6.7 M-0.5 -5.95 L-0.55 -6.0 -0.55 -6.1 -0.5 -6.1 -0.45 -6.15 Q-0.45 -6.1 -0.35 -5.9 -0.35 -5.85 -0.4 -5.85 L-0.5 -5.95 M-0.7 -6.3 L-0.65 -6.4 -0.55 -6.25 -0.55 -6.2 -0.6 -6.15 -0.65 -6.1 -0.7 -6.3" fill="#f7e6a5" fill-rule="evenodd" stroke="none"/>
    <path d="M1.25 -1.8 L1.35 -1.6 1.4 -1.25 1.4 -1.25 1.35 -1.25 1.1 -1.3 1.1 -1.6 1.25 -1.8 M1.35 -4.35 L1.35 -4.15 1.3 -3.95 1.15 -4.1 1.3 -4.35 1.35 -4.35 M1.0 0.4 Q0.85 0.65 0.65 0.7 L0.6 0.5 1.0 0.4 M-1.6 -4.35 L-1.6 -4.35 -1.45 -4.1 -1.6 -3.95 -1.65 -4.15 -1.6 -4.35 M-1.4 -1.6 L-1.4 -1.3 -1.6 -1.25 -1.7 -1.25 -1.7 -1.25 -1.6 -1.6 -1.5 -1.8 -1.4 -1.6 M-0.85 0.5 L-0.95 0.7 Q-1.1 0.65 -1.3 0.4 L-0.85 0.5" fill="#f6e29d" fill-rule="evenodd" stroke="none"/>
    <path d="M-1.4 -3.15 Q-1.3 -3.35 -1.3 -3.5 L-1.3 -3.35 -1.3 -3.15 -1.25 -2.55 -1.2 -2.25 -1.2 -1.6 -1.5 -2.1 -1.55 -2.1 Q-1.8 -2.55 -1.8 -2.6 L-1.75 -2.65 -1.55 -2.9 -1.5 -3.0 -1.4 -3.05 -1.4 -3.15 M-2.2 0.1 L-2.1 -0.35 Q-2.1 -0.45 -2.15 -0.55 L-2.25 -0.8 -2.1 -1.1 -2.0 -1.3 -2.15 -1.65 -2.05 -1.85 -2.0 -2.0 -1.8 -2.2 -1.7 -2.05 -1.55 -1.8 -1.5 -1.8 -1.6 -1.6 -1.7 -1.25 -1.7 -1.25 -1.6 -1.25 -1.4 -1.3 -1.4 -1.6 -1.3 -1.5 -1.25 -1.35 -1.2 -1.3 -1.25 -1.05 -1.35 -0.7 -1.35 -0.65 -1.15 -0.4 -1.05 -0.3 -0.9 -0.25 -0.6 -0.2 -0.55 -0.15 Q-0.55 -0.05 -0.65 0.0 L-0.7 -0.05 -0.7 -0.1 Q-0.75 -0.2 -0.95 -0.2 L-0.95 -0.1 -1.05 -0.1 -1.1 -0.1 -1.55 -0.15 -1.55 0.0 Q-1.55 0.1 -1.6 0.15 -1.45 0.3 -1.2 0.3 -1.15 0.3 -1.1 0.4 -1.05 0.4 -0.95 0.3 L-0.9 0.1 -0.9 0.05 -0.95 -0.05 -0.95 -0.1 -0.7 -0.05 -0.75 0.15 -0.75 0.2 -0.75 0.2 -0.6 0.6 -0.5 0.85 -0.5 0.95 -0.5 1.1 -0.55 1.2 -1.05 1.15 -1.1 1.0 Q-1.1 0.85 -1.2 0.75 -1.35 0.5 -1.6 0.55 L-1.6 0.8 -1.35 0.8 Q-1.25 0.8 -1.15 0.9 L-1.45 0.9 -1.9 0.9 -1.9 0.85 -1.85 0.5 -1.85 0.45 -1.9 0.4 -1.9 0.25 -1.85 0.25 -1.7 0.35 -1.8 0.1 -1.8 -0.1 -1.85 -0.1 -1.9 -0.15 -2.05 0.1 -2.05 0.25 -2.1 0.3 -2.2 0.15 -2.2 0.1 M-0.85 0.5 L-1.3 0.4 Q-1.1 0.65 -0.95 0.7 L-0.85 0.5" fill="#cca953" fill-rule="evenodd" stroke="none"/>
    <path d="M0.3 -0.95 L0.2 -1.3 0.2 -1.35 0.25 -1.4 0.25 -1.55 0.15 -1.6 0.15 -1.7 0.15 -1.85 -0.15 -1.9 -0.45 -1.85 -0.4 -1.6 -0.55 -1.55 -0.55 -1.45 -0.5 -1.4 -0.5 -1.35 -0.5 -1.3 -0.6 -0.95 -0.7 -1.0 -0.8 -0.95 -0.85 -1.2 -0.85 -1.65 -0.8 -1.65 -0.7 -1.6 Q-0.65 -1.7 -0.65 -1.85 L-0.7 -1.95 Q-0.75 -2.0 -0.75 -2.15 L-1.0 -2.1 Q-1.05 -2.1 -1.1 -2.15 L-1.2 -2.25 -1.05 -2.25 -1.05 -2.25 -0.85 -2.35 Q-0.75 -2.35 -0.75 -2.25 L-0.7 -2.5 -0.7 -2.5 -0.75 -2.6 -0.75 -2.65 -0.7 -2.7 -0.65 -2.75 -0.7 -2.85 -0.75 -2.95 -0.75 -3.0 -0.65 -3.15 -0.6 -3.25 Q-0.5 -3.15 -0.5 -3.0 L-0.45 -2.75 Q-0.45 -2.35 -0.25 -2.2 -0.3 -2.1 -0.4 -2.15 L-0.4 -2.1 -0.15 -2.0 0.15 -2.1 0.15 -2.15 Q0.05 -2.1 0.0 -2.2 0.15 -2.35 0.15 -2.75 0.2 -3.1 0.3 -3.25 L0.3 -3.2 0.35 -3.15 0.45 -3.0 0.45 -3.0 0.5 -2.95 0.45 -2.85 0.4 -2.75 0.4 -2.7 Q0.45 -2.65 0.5 -2.65 L0.5 -2.6 0.4 -2.5 0.45 -2.25 Q0.5 -2.35 0.55 -2.35 L0.75 -2.25 0.95 -2.25 0.85 -2.15 Q0.75 -2.1 0.7 -2.1 L0.5 -2.15 Q0.5 -2.0 0.4 -1.95 L0.4 -1.9 0.35 -1.85 Q0.35 -1.7 0.4 -1.6 L0.5 -1.65 0.55 -1.65 0.55 -1.3 0.6 -1.2 0.55 -1.1 0.55 -1.05 0.5 -0.95 0.4 -1.0 0.3 -0.95 M-0.4 -0.3 L-0.3 -0.35 -0.25 -0.35 -0.25 -0.3 -0.35 -0.1 -0.2 0.05 -0.15 0.2 -0.05 0.05 0.05 -0.1 0.0 -0.3 0.0 -0.35 Q0.2 -0.35 0.25 -0.15 L0.25 -0.05 0.4 0.1 0.45 0.2 0.35 0.6 0.2 0.85 0.2 0.95 0.05 0.9 Q0.1 0.75 0.0 0.7 L-0.15 0.6 -0.15 0.6 -0.3 0.7 Q-0.4 0.75 -0.35 0.9 L-0.5 0.95 -0.5 0.85 -0.6 0.6 -0.75 0.2 -0.75 0.2 -0.65 0.1 -0.6 0.05 -0.55 0.0 -0.5 -0.05 -0.5 -0.15 -0.4 -0.3" fill="#a5893c" fill-rule="evenodd" stroke="none"/>
    <path d="M2.4 0.55 Q2.7 1.15 3.05 1.7 L3.15 1.85 Q3.15 2.05 2.4 2.25 L2.0 2.35 1.4 2.45 1.4 2.4 Q1.4 1.95 1.65 1.5 L1.9 0.95 2.05 0.9 Q2.45 0.8 2.45 0.65 L2.4 0.55 M0.6 3.35 L0.6 4.15 0.55 4.25 0.35 4.2 0.3 4.05 Q0.25 4.0 0.15 4.0 0.1 4.0 0.1 4.1 0.05 4.2 0.0 4.2 L-0.15 4.15 -0.25 4.2 Q-0.35 4.2 -0.35 4.1 -0.4 4.0 -0.45 4.0 -0.55 4.0 -0.6 4.05 L-0.65 4.2 -0.85 4.25 -0.9 3.35 -0.15 3.35 0.6 3.35 M0.55 4.75 L0.5 5.7 0.1 5.75 Q0.15 5.65 0.1 5.4 L0.0 5.1 Q0.0 4.95 0.15 4.8 L0.35 4.65 Q0.45 4.65 0.55 4.75 M0.5 6.1 L0.45 6.9 0.3 6.9 0.15 6.9 0.3 6.75 0.1 6.65 0.1 6.85 -0.1 6.8 -0.15 6.75 -0.2 6.8 -0.4 6.85 -0.35 6.65 -0.55 6.75 -0.45 6.9 -0.6 6.9 -0.75 6.9 -0.8 6.1 -0.55 6.15 -0.4 6.2 -0.15 6.2 0.1 6.2 0.25 6.15 0.5 6.1 M0.45 7.5 L0.55 11.5 0.7 11.75 Q0.8 11.85 0.8 12.05 0.8 12.25 0.45 12.6 L0.2 12.85 Q0.05 12.95 -0.15 13.0 L-0.45 12.85 -0.7 12.6 Q-1.05 12.25 -1.05 12.05 -1.05 11.85 -1.0 11.75 L-0.8 11.5 -0.75 7.5 -0.45 7.45 Q-0.2 7.45 -0.2 7.65 L-0.15 7.8 -0.1 7.65 Q-0.05 7.45 0.2 7.45 L0.45 7.5 M-0.8 5.65 L-0.85 4.75 Q-0.75 4.65 -0.65 4.65 -0.6 4.65 -0.45 4.8 -0.3 4.95 -0.3 5.1 L-0.35 5.4 Q-0.45 5.65 -0.4 5.75 L-0.8 5.7 -0.8 5.65 M-3.45 1.85 L-3.35 1.7 Q-2.95 1.15 -2.7 0.55 L-2.7 0.65 Q-2.7 0.8 -2.3 0.9 L-2.15 0.95 -1.9 1.5 Q-1.7 1.95 -1.7 2.4 L-1.7 2.45 -2.65 2.25 Q-3.45 2.05 -3.45 1.85 M1.8 1.8 L1.85 1.85 Q1.95 2.0 2.05 2.0 L2.3 1.85 2.4 1.65 2.35 1.45 2.25 1.3 2.15 1.3 Q2.1 1.3 1.95 1.35 L1.85 1.45 Q1.8 1.55 1.8 1.65 L1.8 1.8 M0.8 1.5 Q0.6 1.65 0.6 1.75 L0.4 1.5 0.25 1.35 0.45 1.3 1.0 1.3 Q1.0 1.4 0.8 1.5 M0.25 2.35 L0.4 2.15 Q0.55 2.0 0.6 2.0 L0.9 2.1 1.15 2.25 0.75 2.3 0.45 2.35 0.25 2.35 M0.4 5.4 Q0.4 5.35 0.3 5.3 L0.2 5.25 0.2 5.6 0.25 5.6 0.4 5.4 M-0.1 8.55 L-0.15 8.55 -0.2 8.55 -0.25 8.55 -0.4 8.6 -0.65 8.5 Q-0.65 8.7 -0.55 8.85 -0.4 9.0 -0.15 9.0 L-0.15 9.0 Q0.1 9.0 0.25 8.85 0.35 8.7 0.35 8.5 L0.25 8.55 0.1 8.6 -0.05 8.55 -0.1 8.55 M0.0 8.15 L0.15 7.95 0.05 7.85 0.0 7.8 -0.05 7.9 -0.05 8.15 0.0 8.15 M0.1 11.3 L0.1 11.8 -0.05 11.75 -0.1 11.75 0.0 11.9 0.05 12.1 0.0 12.2 0.05 12.35 0.15 12.5 0.25 12.35 0.2 12.15 0.35 12.3 Q0.4 12.3 0.45 12.25 L0.45 12.1 0.4 11.95 0.45 11.95 0.65 12.1 Q0.7 12.1 0.7 11.95 0.7 11.85 0.5 11.6 0.3 11.4 0.1 11.3 M-1.1 1.5 Q-1.3 1.4 -1.3 1.3 L-0.7 1.3 -0.55 1.35 -0.65 1.5 -0.85 1.75 Q-0.9 1.65 -1.1 1.5 M-1.45 2.25 L-1.15 2.1 -0.85 2.0 -0.7 2.15 -0.5 2.35 -0.55 2.35 -0.75 2.35 -1.45 2.25 M-2.1 1.8 L-2.05 1.65 Q-2.05 1.55 -2.15 1.45 L-2.25 1.35 -2.25 1.35 Q-2.35 1.3 -2.45 1.3 L-2.5 1.3 -2.6 1.45 -2.65 1.65 -2.55 1.85 -2.35 2.0 Q-2.2 2.0 -2.15 1.85 L-2.1 1.85 -2.1 1.8 M-0.65 5.4 L-0.55 5.6 -0.5 5.6 -0.45 5.25 -0.55 5.3 Q-0.65 5.35 -0.65 5.4 M-0.45 7.95 L-0.3 8.15 -0.25 8.15 -0.25 7.8 -0.35 7.85 -0.45 7.95 M-0.35 11.3 Q-0.55 11.4 -0.75 11.6 -1.0 11.85 -1.0 11.95 -1.0 12.1 -0.9 12.1 L-0.75 11.95 -0.7 11.95 -0.7 12.1 -0.75 12.2 -0.7 12.25 Q-0.65 12.3 -0.65 12.3 L-0.5 12.15 -0.55 12.35 -0.45 12.5 Q-0.4 12.5 -0.35 12.35 L-0.3 12.2 -0.35 12.1 -0.25 11.9 -0.2 11.75 -0.25 11.75 -0.4 11.8 -0.4 11.4 -0.35 11.3" fill="#2c251d" fill-rule="evenodd" stroke="none"/>
    <path d="M2.25 1.3 L2.25 1.4 Q2.25 1.6 2.1 1.65 1.9 1.7 1.8 1.8 L1.8 1.65 Q1.8 1.55 1.85 1.45 L1.95 1.35 Q2.1 1.3 2.15 1.3 L2.25 1.3 M0.1 1.6 L0.2 1.75 0.0 2.05 -0.15 2.15 -0.3 2.05 -0.45 1.75 -0.4 1.6 Q-0.35 1.5 -0.25 1.5 L-0.15 1.55 Q-0.05 1.5 -0.05 1.5 L0.1 1.6 M0.35 4.3 L0.5 4.45 0.4 4.5 0.3 4.55 0.2 4.55 0.2 4.4 Q0.25 4.35 0.25 4.2 L0.35 4.3 M0.4 5.4 L0.25 5.6 0.2 5.6 0.2 5.25 0.3 5.3 Q0.4 5.35 0.4 5.4 M0.25 6.15 L0.1 6.2 0.1 6.0 0.25 6.05 0.3 6.1 0.25 6.15 M-0.4 6.2 L-0.55 6.15 -0.6 6.1 -0.5 6.05 Q-0.45 6.0 -0.4 6.0 L-0.4 6.2 M-0.45 6.9 L-0.55 6.75 -0.35 6.65 -0.4 6.85 -0.45 6.9 M0.1 6.85 L0.1 6.65 0.3 6.75 0.15 6.9 0.1 6.85 M0.05 7.4 L0.0 7.15 Q0.15 7.15 0.25 7.25 L0.05 7.4 M-0.05 8.55 L0.0 8.6 0.05 8.7 0.05 8.8 -0.05 8.9 -0.1 8.9 -0.1 8.55 -0.05 8.55 M-0.2 8.55 L-0.2 8.9 -0.3 8.8 -0.35 8.7 -0.3 8.6 -0.25 8.55 -0.2 8.55 M0.0 8.15 L-0.05 8.15 -0.05 7.9 0.0 7.8 0.05 7.85 0.15 7.95 0.0 8.15 M-2.5 1.3 L-2.45 1.3 Q-2.35 1.3 -2.25 1.35 L-2.25 1.35 -2.15 1.45 Q-2.05 1.55 -2.05 1.65 L-2.1 1.8 Q-2.2 1.7 -2.4 1.65 -2.5 1.6 -2.5 1.4 L-2.5 1.3 M-0.65 4.3 L-0.55 4.2 Q-0.55 4.35 -0.5 4.4 L-0.5 4.55 -0.6 4.55 -0.7 4.5 -0.75 4.45 -0.65 4.3 M-0.65 5.4 Q-0.65 5.35 -0.55 5.3 L-0.45 5.25 -0.5 5.6 -0.55 5.6 -0.65 5.4 M-0.3 7.15 L-0.3 7.4 -0.5 7.25 Q-0.45 7.15 -0.3 7.15 M-0.45 7.95 L-0.35 7.85 -0.25 7.8 -0.25 8.15 -0.3 8.15 -0.45 7.95" fill="#a3ad9c" fill-rule="evenodd" stroke="none"/>
    <path d="M1.8 1.8 Q1.9 1.7 2.1 1.65 2.25 1.6 2.25 1.4 L2.25 1.3 2.35 1.45 2.4 1.65 2.3 1.85 2.05 2.0 Q1.95 2.0 1.85 1.85 L1.8 1.8 M0.1 1.6 L-0.05 1.5 Q-0.05 1.5 -0.15 1.55 L-0.25 1.5 Q-0.35 1.5 -0.4 1.6 L-0.35 1.5 Q-0.3 1.35 -0.15 1.35 0.0 1.35 0.1 1.5 L0.1 1.6 M-0.45 1.75 L-0.3 2.05 -0.15 2.15 0.0 2.05 0.2 1.75 0.2 1.85 Q0.2 2.0 0.1 2.1 0.05 2.2 -0.05 2.2 L-0.15 2.2 -0.25 2.2 -0.4 2.1 Q-0.5 2.0 -0.5 1.85 L-0.45 1.75 M-2.5 1.3 L-2.5 1.4 Q-2.5 1.6 -2.4 1.65 -2.2 1.7 -2.1 1.8 L-2.1 1.85 -2.15 1.85 Q-2.2 2.0 -2.35 2.0 L-2.55 1.85 -2.65 1.65 -2.6 1.45 -2.5 1.3" fill="#63664f" fill-rule="evenodd" stroke="none"/>
    <path d="M2.35 2.5 L2.45 2.45 2.6 2.45 Q2.65 2.55 2.5 2.7 L2.35 2.85 2.3 2.85 2.25 2.7 2.15 2.55 2.35 2.5 M3.1 2.3 L3.1 2.45 Q3.0 2.55 3.0 2.7 L2.7 2.45 Q2.9 2.45 3.05 2.3 L3.1 2.3 M1.45 2.6 L1.85 2.6 Q1.8 2.7 1.75 2.85 L1.6 2.95 1.5 2.9 1.5 2.85 1.45 2.8 1.4 2.6 1.45 2.6 M1.9 3.1 L1.85 3.05 1.7 3.1 Q1.75 2.95 1.85 2.85 L2.1 2.65 2.15 2.8 2.15 2.85 2.2 3.05 1.95 3.1 1.9 3.1 M1.35 2.9 L1.45 3.1 1.2 3.15 1.05 3.15 1.0 3.1 1.1 2.9 1.25 2.75 1.35 2.9 M0.6 2.65 L0.9 2.7 0.95 2.7 0.9 2.85 0.85 2.95 0.75 3.1 0.6 2.9 0.45 2.65 0.6 2.65 M0.15 2.7 L0.35 2.9 0.5 3.1 0.0 3.25 0.05 2.85 0.15 2.65 0.15 2.7 M-0.45 2.7 L-0.4 2.65 -0.35 2.85 -0.3 3.25 Q-0.55 3.2 -0.8 3.1 L-0.6 2.9 -0.45 2.7 M-0.85 2.9 L-0.9 2.9 -1.0 3.1 -1.15 2.95 -1.2 2.85 -1.25 2.7 -1.15 2.7 -0.9 2.65 -0.7 2.65 -0.85 2.9 M-1.4 2.9 L-1.25 3.1 -1.35 3.15 -1.5 3.15 -1.7 3.1 -1.6 2.9 -1.55 2.75 -1.4 2.9 M3.55 2.75 L3.35 2.8 3.15 2.85 3.2 2.5 3.25 2.45 3.55 2.7 3.55 2.75 M2.7 2.7 L2.8 2.75 2.9 2.9 2.85 2.95 2.7 3.0 2.45 3.0 2.55 2.85 Q2.65 2.7 2.7 2.7 M-3.4 2.3 L-3.35 2.3 Q-3.15 2.45 -3.0 2.45 L-3.3 2.7 Q-3.3 2.55 -3.4 2.45 L-3.4 2.3 M-2.6 2.85 L-2.8 2.7 Q-2.95 2.55 -2.9 2.45 L-2.75 2.45 -2.65 2.5 -2.4 2.55 -2.5 2.7 -2.5 2.7 -2.6 2.85 -2.6 2.85 M-1.7 2.6 L-1.7 2.6 -1.75 2.8 -1.8 2.85 -1.8 2.9 -1.9 2.95 -2.05 2.85 Q-2.1 2.7 -2.15 2.6 L-1.7 2.6 M-2.4 2.8 L-2.35 2.65 -2.15 2.85 Q-2.0 2.95 -1.95 3.1 L-2.1 3.05 -2.2 3.1 -2.25 3.1 -2.5 3.05 -2.45 2.85 -2.4 2.8 M-3.4 2.85 L-3.85 2.75 -3.8 2.7 -3.5 2.45 -3.5 2.5 -3.4 2.85 M-2.75 3.0 L-3.0 3.0 -3.2 2.9 -3.1 2.75 Q-3.05 2.7 -3.0 2.7 -2.95 2.7 -2.85 2.85 -2.75 2.95 -2.75 3.0 M-1.6 2.9 L-1.6 2.9" fill="#502f15" fill-rule="evenodd" stroke="none"/>
    <path d="M3.15 1.85 L3.65 2.5 Q3.8 2.55 3.85 2.6 L3.85 2.7 Q3.85 2.95 2.7 3.15 L1.85 3.3 1.9 3.1 1.95 3.1 2.2 3.05 2.15 2.85 2.15 2.8 2.15 2.75 2.25 2.7 2.3 2.85 2.3 2.9 2.35 2.85 2.5 2.7 Q2.65 2.55 2.6 2.45 L2.45 2.45 2.35 2.5 2.4 2.25 Q3.15 2.05 3.15 1.85 M1.55 3.3 L1.0 3.35 1.05 3.15 1.2 3.15 1.45 3.1 1.35 2.9 1.5 3.15 1.55 3.3 M-1.25 3.35 L-1.8 3.3 -1.75 3.15 -1.6 2.9 -1.7 3.1 -1.5 3.15 -1.35 3.15 -1.35 3.15 -1.25 3.35 M-2.1 3.3 L-3.0 3.15 Q-4.15 2.95 -4.15 2.7 L-4.1 2.6 -3.95 2.5 -3.45 1.85 Q-3.45 2.05 -2.65 2.25 L-2.65 2.5 -2.75 2.45 -2.9 2.45 Q-2.95 2.55 -2.8 2.7 L-2.6 2.85 -2.5 2.7 -2.5 2.7 -2.45 2.75 -2.4 2.8 -2.45 2.85 -2.5 3.05 -2.25 3.1 -2.2 3.1 -2.1 3.3 M3.1 2.3 L3.05 2.3 Q2.9 2.45 2.7 2.45 L3.0 2.7 Q3.0 2.55 3.1 2.45 L3.1 2.3 M2.7 2.7 Q2.65 2.7 2.55 2.85 L2.45 3.0 2.7 3.0 2.85 2.95 2.9 2.9 2.8 2.75 2.7 2.7 M3.55 2.75 L3.55 2.7 3.25 2.45 3.2 2.5 3.15 2.85 3.35 2.8 3.55 2.75 M-3.4 2.3 L-3.4 2.45 Q-3.3 2.55 -3.3 2.7 L-3.0 2.45 Q-3.15 2.45 -3.35 2.3 L-3.4 2.3 M-2.6 2.85 L-2.6 2.85 M-2.75 3.0 Q-2.75 2.95 -2.85 2.85 -2.95 2.7 -3.0 2.7 -3.05 2.7 -3.1 2.75 L-3.2 2.9 -3.0 3.0 -2.75 3.0 M-3.4 2.85 L-3.5 2.5 -3.5 2.45 -3.8 2.7 -3.85 2.75 -3.4 2.85" fill="#8e712f" fill-rule="evenodd" stroke="none"/>
    <path d="M0.55 4.25 L0.55 4.3 0.55 4.75 Q0.45 4.65 0.35 4.65 L0.15 4.8 Q0.0 4.95 0.0 5.1 L0.1 5.4 Q0.15 5.65 0.1 5.75 L0.5 5.7 0.5 5.9 0.5 6.1 0.25 6.15 0.3 6.1 0.25 6.05 0.1 6.0 0.1 6.2 -0.15 6.2 -0.4 6.2 -0.4 6.0 Q-0.45 6.0 -0.5 6.05 L-0.6 6.1 -0.55 6.15 -0.8 6.1 -0.8 5.7 -0.4 5.75 Q-0.45 5.65 -0.35 5.4 L-0.3 5.1 Q-0.3 4.95 -0.45 4.8 -0.6 4.65 -0.65 4.65 -0.75 4.65 -0.85 4.75 L-0.85 4.25 -0.65 4.2 -0.6 4.05 Q-0.55 4.0 -0.45 4.0 -0.4 4.0 -0.35 4.1 -0.35 4.2 -0.25 4.2 L-0.15 4.15 0.0 4.2 Q0.05 4.2 0.1 4.1 0.1 4.0 0.15 4.0 0.25 4.0 0.3 4.05 L0.35 4.2 0.55 4.25 M0.45 6.9 L0.45 7.0 0.45 7.5 0.2 7.45 Q-0.05 7.45 -0.1 7.65 L-0.15 7.8 -0.2 7.65 Q-0.2 7.45 -0.45 7.45 L-0.75 7.5 -0.75 7.0 -0.75 6.9 -0.6 6.9 -0.45 6.9 -0.4 6.85 -0.2 6.8 -0.15 6.75 -0.1 6.8 0.1 6.85 0.15 6.9 0.3 6.9 0.45 6.9 M-0.5 1.2 L-0.15 1.25 0.2 1.2 0.25 1.2 0.8 1.15 1.1 1.1 1.25 1.1 1.9 0.95 1.65 1.5 Q1.4 1.95 1.4 2.4 L1.4 2.45 0.9 2.5 0.55 2.55 0.15 2.55 -0.15 2.6 -0.4 2.55 -0.85 2.55 -1.15 2.5 -1.7 2.45 -1.7 2.4 Q-1.7 1.95 -1.9 1.5 L-2.15 0.95 -1.55 1.1 -1.35 1.1 -1.05 1.15 -0.55 1.2 -0.5 1.2 M0.8 1.5 Q1.0 1.4 1.0 1.3 L0.45 1.3 0.25 1.35 0.4 1.5 0.6 1.75 Q0.6 1.65 0.8 1.5 M0.2 1.75 L0.1 1.6 0.1 1.5 Q0.0 1.35 -0.15 1.35 -0.3 1.35 -0.35 1.5 L-0.4 1.6 -0.45 1.75 -0.5 1.85 Q-0.5 2.0 -0.4 2.1 L-0.25 2.2 -0.15 2.2 -0.05 2.2 Q0.05 2.2 0.1 2.1 0.2 2.0 0.2 1.85 L0.2 1.75 M0.25 2.35 L0.45 2.35 0.75 2.3 1.15 2.25 0.9 2.1 0.6 2.0 Q0.55 2.0 0.4 2.15 L0.25 2.35 M0.35 4.3 L0.25 4.2 Q0.25 4.35 0.2 4.4 L0.2 4.55 0.3 4.55 0.4 4.5 0.5 4.45 0.35 4.3 M-0.1 8.55 L-0.1 8.9 -0.05 8.9 0.05 8.8 0.05 8.7 0.0 8.6 -0.05 8.55 0.1 8.6 0.25 8.55 0.35 8.5 Q0.35 8.7 0.25 8.85 0.1 9.0 -0.15 9.0 L-0.15 9.0 Q-0.4 9.0 -0.55 8.85 -0.65 8.7 -0.65 8.5 L-0.4 8.6 -0.25 8.55 -0.3 8.6 -0.35 8.7 -0.3 8.8 -0.2 8.9 -0.2 8.55 -0.15 8.55 -0.1 8.55 M0.05 7.4 L0.25 7.25 Q0.15 7.15 0.0 7.15 L0.05 7.4 M0.1 11.3 Q0.3 11.4 0.5 11.6 0.7 11.85 0.7 11.95 0.7 12.1 0.65 12.1 L0.45 11.95 0.4 11.95 0.45 12.1 0.45 12.25 Q0.4 12.3 0.35 12.3 L0.2 12.15 0.25 12.35 0.15 12.5 0.05 12.35 0.0 12.2 0.05 12.1 0.0 11.9 -0.1 11.75 -0.05 11.75 0.1 11.8 0.1 11.3 M-1.45 2.25 L-0.75 2.35 -0.55 2.35 -0.5 2.35 -0.7 2.15 -0.85 2.0 -1.15 2.1 -1.45 2.25 M-1.1 1.5 Q-0.9 1.65 -0.85 1.75 L-0.65 1.5 -0.55 1.35 -0.7 1.3 -1.3 1.3 Q-1.3 1.4 -1.1 1.5 M-0.65 4.3 L-0.75 4.45 -0.7 4.5 -0.6 4.55 -0.5 4.55 -0.5 4.4 Q-0.55 4.35 -0.55 4.2 L-0.65 4.3 M-0.3 7.15 Q-0.45 7.15 -0.5 7.25 L-0.3 7.4 -0.3 7.15 M-0.35 11.3 L-0.4 11.4 -0.4 11.8 -0.25 11.75 -0.2 11.75 -0.25 11.9 -0.35 12.1 -0.3 12.2 -0.35 12.35 Q-0.4 12.5 -0.45 12.5 L-0.55 12.35 -0.5 12.15 -0.65 12.3 Q-0.65 12.3 -0.7 12.25 L-0.75 12.2 -0.7 12.1 -0.7 11.95 -0.75 11.95 -0.9 12.1 Q-1.0 12.1 -1.0 11.95 -1.0 11.85 -0.75 11.6 -0.55 11.4 -0.35 11.3" fill="#42402a" fill-rule="evenodd" stroke="none"/>
    <path d="M1.85 3.3 L1.55 3.3 1.5 3.15 1.35 2.9 1.45 2.8 1.5 2.85 1.5 2.9 1.6 2.95 1.75 2.85 Q1.8 2.7 1.85 2.6 L1.45 2.6 1.4 2.45 2.0 2.35 2.4 2.25 2.35 2.5 2.15 2.55 2.25 2.7 2.15 2.75 2.15 2.8 2.1 2.65 1.85 2.85 Q1.75 2.95 1.7 3.1 L1.85 3.05 1.9 3.1 1.85 3.3 M1.0 3.35 L0.6 3.35 -0.15 3.35 -0.9 3.35 -1.25 3.35 -1.35 3.15 -1.35 3.15 -1.25 3.1 -1.4 2.9 -1.2 2.85 -1.15 2.95 -1.0 3.1 -0.9 2.9 -0.85 2.9 -0.75 2.9 -0.6 2.9 -0.8 3.1 Q-0.55 3.2 -0.3 3.25 L-0.35 2.85 -0.4 2.65 -0.45 2.7 -0.45 2.65 -0.4 2.55 -0.15 2.6 0.15 2.55 0.15 2.7 0.15 2.65 0.05 2.85 0.0 3.25 0.5 3.1 0.35 2.9 0.5 2.9 0.6 2.9 0.75 3.1 0.85 2.95 0.9 2.85 1.1 2.9 1.0 3.1 1.05 3.15 1.0 3.35 M-1.8 3.3 L-2.1 3.3 -2.2 3.1 -2.1 3.05 -1.95 3.1 Q-2.0 2.95 -2.15 2.85 L-2.35 2.65 -2.4 2.8 -2.45 2.75 -2.5 2.7 -2.4 2.55 -2.65 2.5 -2.65 2.25 -1.7 2.45 -1.7 2.6 -2.15 2.6 Q-2.1 2.7 -2.05 2.85 L-1.9 2.95 -1.8 2.9 -1.8 2.85 -1.75 2.8 -1.6 2.9 -1.6 2.9 -1.75 3.15 -1.8 3.3 M2.3 2.85 L2.35 2.85 2.3 2.9 2.3 2.85 M0.9 2.7 L0.6 2.65 0.55 2.55 0.9 2.5 0.9 2.7 M-1.15 2.5 L-0.85 2.55 -0.9 2.65 -1.15 2.7 -1.15 2.5 M-2.6 2.85 L-2.6 2.85 -2.6 2.85" fill="#bfa35a" fill-rule="evenodd" stroke="none"/>
    <path d="M0.45 -20.3 L0.45 -20.5 0.4 -20.7 0.2 -23.65 -0.15 -24.35 -0.45 -23.65 -0.7 -20.5 -0.7 -20.3 -0.75 -19.75 -0.8 -19.6 -0.8 -19.45 -0.8 -19.35 M0.45 -20.3 L0.45 -20.0 0.5 -19.95 0.5 -19.6 0.5 -19.5 M0.5 -19.4 L0.5 -19.35 0.55 -18.85 0.6 -18.05 0.65 -17.75 0.65 -17.45 0.7 -17.25 0.7 -16.9 0.75 -16.55 0.75 -16.55 0.75 -16.25 0.75 -16.15 0.8 -15.75 0.8 -15.7 0.85 -15.35 0.85 -15.05 0.85 -15.05 0.85 -14.9 0.9 -14.45 0.9 -14.4 0.95 -14.15 0.95 -14.15 0.95 -13.6 1.0 -13.15 1.1 -12.25 1.15 -11.5 1.15 -11.2 1.2 -10.45 1.25 -10.2 M1.25 -9.8 L1.3 -9.7 M1.35 -8.85 L1.35 -8.8 1.35 -8.7 1.35 -8.6 1.45 -7.5 1.45 -7.35 1.6 -5.4 1.8 -3.15 M1.8 -3.0 L1.8 -2.95 1.85 -2.05 1.95 -1.15 Q2.0 -0.7 2.15 -0.25 L2.4 0.55 Q2.7 1.15 3.05 1.7 L3.15 1.85 3.65 2.5 Q3.8 2.55 3.85 2.6 L3.85 2.7 Q3.85 2.95 2.7 3.15 L1.85 3.3 1.55 3.3 1.0 3.35 0.6 3.35 0.6 4.15 M0.55 4.3 L0.55 4.75 M0.5 5.9 L0.5 6.1 M0.45 7.0 L0.45 7.5 0.55 11.5 0.7 11.75 Q0.8 11.85 0.8 12.05 0.8 12.25 0.45 12.6 L0.2 12.85 Q0.05 12.95 -0.15 13.0 L-0.45 12.85 -0.7 12.6 Q-1.05 12.25 -1.05 12.05 -1.05 11.85 -1.0 11.75 L-0.8 11.5 -0.75 7.5 -0.75 7.0 -0.8 5.65 -0.85 4.75 -0.85 4.25 -0.9 3.35 -1.25 3.35 -1.8 3.3 -2.1 3.3 -3.0 3.15 Q-4.15 2.95 -4.15 2.7 L-4.1 2.6 -3.95 2.5 -3.45 1.85 -3.35 1.7 Q-2.95 1.15 -2.7 0.55 L-2.7 0.55 -2.4 -0.25 Q-2.3 -0.7 -2.2 -1.15 L-2.15 -2.0 M-2.15 -2.15 L-2.1 -2.95 -2.05 -3.05 -1.9 -5.2 -1.9 -5.4 -1.75 -7.35 -1.7 -7.5 -1.7 -8.05 -1.65 -8.6 -1.65 -8.7 -1.65 -8.7 -1.6 -8.8 -1.6 -8.85 -1.55 -9.65 -1.55 -9.8 -1.5 -10.15 -1.5 -10.45 -1.4 -11.5 -1.35 -12.25 -1.3 -13.15 -1.25 -13.6 -1.25 -13.75 -1.2 -14.15 -1.2 -14.4 -1.15 -14.9 -1.15 -15.05 -1.1 -15.3 -1.1 -15.7 -1.1 -15.75 -1.0 -16.55 -1.0 -16.9 -1.0 -17.05 -0.95 -17.45 -0.9 -17.9 -0.9 -18.05 -0.85 -18.85 -0.8 -19.3" fill="none" stroke="#000000" stroke-linecap="round" stroke-linejoin="round" stroke-opacity="0.4509804" stroke-width="1.0"/>
  </g>
</svg>
