<?xml version="1.0" encoding="UTF-8" standalone="no"?>
<svg xmlns:xlink="http://www.w3.org/1999/xlink" height="34.7px" width="7.85px" xmlns="http://www.w3.org/2000/svg">
  <g transform="matrix(1.0, 0.0, 0.0, 1.0, 4.2, 23.05)">
    <path d="M-0.45 -22.95 L-0.3 -22.45 -0.1 -21.75 0.25 -20.55 0.25 -20.5 0.4 -19.6 0.3 -18.9 0.15 -18.1 Q-0.15 -16.85 -0.3 -16.35 L-0.3 -16.4 -0.8 -18.2 -0.9 -18.85 Q-1.05 -19.45 -1.05 -19.9 L-1.0 -19.95 -0.55 -22.45 -0.45 -22.95 M0.2 -18.95 L0.3 -19.6 0.25 -19.7 0.2 -19.85 -0.25 -19.9 -0.55 -19.9 Q-1.0 -19.9 -1.0 -19.8 -1.0 -19.5 -0.65 -18.25 -0.35 -17.05 -0.2 -16.75 L0.2 -18.95 M0.55 -18.75 L0.7 -18.65 0.8 -18.3 Q0.65 -18.15 0.65 -17.95 L0.65 -16.7 0.6 -16.2 0.6 -17.35 Q0.6 -17.95 0.55 -18.1 L0.45 -17.75 0.25 -16.9 0.2 -16.65 Q0.0 -15.65 0.0 -15.4 L0.0 -15.3 0.1 -15.35 0.2 -15.35 Q0.3 -15.35 0.3 -15.25 L0.0 -15.2 -0.15 -15.15 -0.2 -15.1 Q-0.2 -14.9 -0.15 -14.85 L-0.15 -14.85 -0.1 -14.8 0.25 -14.8 0.45 -14.85 0.5 -14.9 0.5 -14.9 0.45 -15.0 0.45 -15.2 0.4 -15.25 Q0.45 -15.3 0.55 -15.3 0.5 -15.45 0.7 -15.5 L0.95 -15.55 0.7 -15.4 Q0.5 -15.3 0.5 -15.25 0.5 -15.1 0.55 -15.0 L0.55 -14.9 Q0.6 -14.85 0.65 -14.85 L0.7 -14.85 0.7 -14.8 Q0.55 -14.6 0.5 -14.1 L0.55 -14.05 0.6 -13.95 0.6 -13.95 0.45 -13.95 0.5 -14.75 0.5 -14.8 0.4 -14.8 0.0 -14.75 -0.05 -14.75 Q-0.1 -14.7 -0.1 -14.1 L-0.1 -14.0 -0.05 -13.9 -0.05 -13.8 0.0 -13.55 0.1 -13.3 Q0.2 -13.35 0.25 -13.45 L0.25 -13.6 0.3 -13.55 0.3 -13.35 0.6 -13.55 Q0.85 -13.7 0.85 -13.75 L0.85 -13.9 0.9 -13.95 0.7 -13.95 0.9 -14.05 1.25 -15.0 1.2 -15.1 1.1 -15.05 1.1 -15.1 1.15 -15.15 1.2 -15.25 1.15 -15.3 1.1 -15.45 1.15 -15.4 1.2 -15.4 1.15 -15.55 1.1 -15.55 1.2 -15.7 1.2 -15.7 1.3 -15.7 1.2 -15.65 1.2 -15.55 Q1.2 -15.5 1.3 -15.35 L1.3 -15.35 1.4 -15.2 1.65 -15.35 1.8 -15.5 1.8 -15.45 1.75 -15.35 1.5 -15.2 Q1.35 -15.15 1.3 -14.8 L1.15 -14.35 1.05 -14.1 1.05 -13.9 1.0 -13.8 1.0 -13.85 0.9 -13.75 0.65 -13.55 0.25 -13.25 0.0 -13.25 -0.05 -13.6 -0.1 -13.9 -0.15 -13.9 -0.2 -13.9 -0.15 -14.3 -0.15 -14.7 Q-0.15 -14.75 -0.2 -14.8 L-0.4 -14.8 -0.65 -14.75 -0.75 -14.65 -0.75 -13.9 -0.7 -13.8 -0.85 -13.8 -0.9 -13.8 -0.95 -13.8 -1.05 -13.75 -1.05 -13.25 -1.1 -13.25 Q-1.15 -13.25 -1.3 -13.3 L-1.35 -13.3 -1.3 -13.4 Q-1.3 -13.5 -1.4 -13.6 L-1.4 -13.6 -1.65 -13.55 -1.9 -13.55 -2.1 -14.55 -2.2 -15.25 -1.15 -15.2 -0.85 -15.25 -0.6 -15.25 -0.6 -15.25 -0.4 -15.3 -0.65 -15.4 -0.9 -16.3 -1.35 -18.0 -1.2 -18.85 -1.15 -18.6 -0.8 -17.15 -0.4 -15.7 Q-0.3 -15.3 -0.25 -15.3 -0.15 -15.3 0.0 -16.05 0.1 -16.45 0.2 -16.95 L0.35 -17.7 Q0.4 -18.0 0.45 -18.2 L0.55 -18.75 M1.1 -13.5 Q1.25 -13.25 1.45 -13.05 0.7 -12.6 0.35 -12.45 L0.2 -12.85 0.35 -12.85 0.6 -12.85 Q0.8 -12.9 0.8 -13.1 0.85 -13.3 0.95 -13.4 L1.1 -13.5 M1.85 -12.1 L1.85 -11.95 1.65 -11.85 Q1.45 -11.7 1.35 -11.5 L1.2 -10.9 1.1 -10.45 1.15 -10.3 1.3 -10.3 1.35 -10.3 1.35 -10.2 1.1 -10.25 0.8 -10.4 Q0.7 -10.4 0.65 -10.45 L0.6 -10.65 0.5 -11.35 0.45 -12.1 0.5 -12.15 1.15 -11.8 1.25 -11.75 Q1.35 -11.75 1.65 -11.95 L1.85 -12.1 M1.3 -9.85 L1.3 -9.8 1.3 -9.75 1.25 -9.7 1.5 -9.5 0.95 -8.45 0.85 -8.25 Q0.6 -7.65 0.55 -7.45 L0.5 -7.45 0.5 -7.7 0.75 -8.25 1.25 -9.3 Q1.25 -9.45 0.95 -9.7 L0.85 -9.8 0.85 -10.05 1.25 -9.85 1.3 -9.85 M2.0 -9.05 L2.0 -8.75 1.55 -9.45 1.7 -9.3 2.0 -9.05 M2.45 -6.5 L2.45 -6.4 Q2.35 -6.3 2.0 -6.15 L1.5 -5.8 Q1.4 -5.7 1.35 -5.35 L1.35 -5.05 Q1.35 -4.9 1.65 -4.6 L1.65 -4.55 2.0 -4.3 1.95 -4.2 1.95 -4.2 Q1.9 -4.2 1.85 -4.25 L1.8 -4.2 Q1.75 -4.05 1.6 -4.05 1.5 -4.05 1.35 -4.2 L1.1 -4.55 0.8 -4.85 0.85 -4.85 0.95 -4.9 1.0 -5.05 Q1.05 -5.05 1.05 -5.05 L1.1 -5.0 1.1 -4.9 Q1.1 -4.85 1.0 -4.85 L1.45 -4.25 1.6 -4.5 1.3 -4.9 1.2 -5.0 1.2 -5.45 Q1.25 -5.75 0.95 -5.95 L0.4 -6.1 0.35 -5.75 0.3 -5.55 0.15 -5.55 0.15 -5.55 0.25 -6.05 0.3 -6.35 1.3 -5.95 Q1.4 -6.1 1.95 -6.3 L2.45 -6.5 M2.0 -4.2 Q2.2 -4.2 2.4 -4.3 L2.8 -4.4 Q3.1 -4.4 3.1 -3.9 L3.0 -3.85 Q2.95 -3.85 2.95 -3.95 2.9 -4.1 2.8 -4.15 L2.85 -3.95 2.9 -3.8 2.5 -3.55 Q2.2 -3.35 2.1 -3.35 L2.05 -3.35 Q2.05 -3.5 2.0 -3.7 1.9 -3.95 1.9 -4.0 L1.95 -4.15 2.0 -4.2 2.0 -4.2 M2.75 -2.2 L2.7 -1.85 2.7 -1.8 Q2.45 -1.7 1.95 -1.5 L2.1 -2.0 2.25 -2.6 Q2.35 -2.6 2.55 -2.4 L2.75 -2.2 M2.75 -1.7 L2.95 -1.8 Q3.0 -1.8 3.05 -1.6 L3.1 -1.5 2.7 -1.25 2.5 -1.1 2.4 -0.95 Q2.3 -0.95 2.3 -1.05 L2.25 -1.15 2.1 -1.0 Q2.15 -1.0 2.25 -0.95 2.5 -0.75 2.5 -0.7 L2.45 -0.35 2.4 -0.2 2.55 -0.25 3.1 -0.35 3.1 -0.35 3.2 -0.45 3.2 -0.45 3.35 0.1 Q3.55 0.8 3.55 1.45 L2.9 1.8 Q2.2 2.2 1.85 2.45 L1.65 2.55 1.7 2.6 1.7 2.7 1.65 2.8 1.4 3.1 1.35 2.8 1.0 3.1 1.0 3.15 0.75 3.45 Q0.6 3.6 0.45 3.55 L0.45 3.65 0.3 3.55 0.2 3.6 0.25 3.6 0.25 3.65 0.4 3.7 0.45 3.75 0.6 4.0 0.6 4.1 0.55 4.15 0.2 4.2 0.0 4.25 0.0 4.1 0.05 4.0 0.1 3.95 0.05 3.8 0.1 3.8 0.15 3.75 0.15 3.7 0.2 3.7 0.25 3.75 Q0.3 3.75 0.3 3.75 L0.3 3.7 0.25 3.65 0.2 3.65 0.2 3.6 -0.05 3.7 -0.15 3.7 Q0.0 3.7 0.2 3.55 L0.3 3.45 Q0.65 3.2 0.65 3.15 L0.65 2.9 0.6 2.85 0.5 2.2 0.5 2.1 0.35 1.25 0.35 1.2 0.4 1.15 0.25 1.1 Q0.3 1.05 0.3 1.0 L0.3 0.95 0.25 0.95 -0.2 1.15 -0.2 2.05 -0.2 2.25 -0.25 2.85 -0.3 3.0 -0.35 3.2 -0.4 3.6 -0.35 3.65 -0.3 3.65 -0.35 3.65 -0.45 3.7 -0.6 3.65 -0.65 3.65 -0.7 3.6 -0.7 3.6 -0.75 3.55 -0.75 3.5 -1.25 3.2 -1.85 2.85 Q-2.55 2.5 -3.3 2.0 -4.15 1.45 -4.15 1.35 L-4.15 1.25 -4.1 1.25 -3.95 1.3 -3.85 1.3 -3.7 1.3 -3.7 1.2 -3.65 1.1 -3.6 1.1 Q-3.7 1.3 -3.55 1.4 L-3.25 1.55 -2.95 1.8 Q-2.8 1.95 -2.65 1.95 -2.55 1.95 -2.25 0.75 -2.05 0.05 -1.9 -0.3 L-2.2 0.7 -2.4 1.5 -2.5 2.1 -2.45 2.25 -2.45 2.2 -0.65 3.4 Q-0.6 3.4 -0.55 3.1 L-0.5 2.8 -0.45 2.55 -0.35 2.0 -0.3 1.35 Q-0.3 1.05 -0.5 1.0 -0.75 0.95 -0.75 0.5 L-0.7 0.25 -0.65 0.15 Q-0.65 0.0 -0.9 -0.05 L-1.2 -0.05 -1.75 -0.5 -1.75 -0.5 Q-1.9 -0.9 -2.35 -1.1 -2.7 -1.25 -3.1 -1.25 L-3.45 -1.1 Q-3.55 -1.1 -3.65 -1.3 L-3.65 -1.3 -3.7 -1.45 -3.65 -1.5 Q-3.65 -1.55 -3.6 -1.55 L-3.3 -1.45 -3.2 -1.5 -3.1 -1.5 Q-2.2 -1.5 -1.55 -0.8 L-1.05 -0.3 Q-0.8 -0.15 -0.5 -0.1 L-0.55 0.4 -0.5 0.7 -0.45 0.7 -0.1 0.4 Q0.2 0.2 0.25 0.2 L0.6 0.05 Q0.85 -0.05 0.85 -0.1 L0.8 -0.25 0.75 -0.35 Q1.25 -0.5 1.5 -0.75 1.6 -0.85 1.75 -1.1 1.85 -1.25 2.1 -1.35 2.25 -1.45 2.75 -1.7 M0.4 4.8 L0.3 5.1 0.2 5.4 Q0.05 5.45 -0.1 5.55 L-0.15 5.55 -0.5 5.85 -0.4 5.7 Q-0.4 5.65 -0.65 5.55 L-0.85 5.45 -0.45 5.3 -0.4 5.25 0.0 5.0 0.1 5.0 0.4 4.8 M0.3 7.2 L0.35 7.3 0.45 7.35 0.35 7.5 Q0.25 7.6 0.25 7.65 L0.3 8.1 0.25 8.2 0.15 8.4 0.3 8.7 0.25 8.8 0.2 8.75 0.05 8.7 0.0 8.6 -0.05 8.55 0.0 8.5 -0.05 8.4 -0.1 8.35 -0.15 8.4 -0.25 8.4 -0.35 8.35 Q-0.35 8.25 -0.05 8.15 L0.25 8.05 0.25 7.95 0.25 7.8 0.15 7.9 0.15 7.95 0.1 8.05 0.05 8.05 0.05 7.95 -0.05 7.95 -0.25 8.05 -0.3 8.0 -0.1 7.95 0.1 7.9 0.1 7.85 0.05 7.85 0.0 7.8 0.05 7.8 0.05 7.7 Q0.05 7.7 -0.05 7.7 L-0.1 7.75 -0.2 7.7 -0.4 7.8 -0.55 7.85 -0.55 7.85 -0.65 7.7 -0.5 7.5 -0.45 7.5 -0.1 7.35 -0.1 7.35 -0.05 7.35 Q0.25 7.25 0.3 7.2 M0.5 9.1 L0.65 9.15 0.65 9.25 0.5 9.35 0.45 9.3 Q0.4 9.3 0.45 9.2 L0.4 9.2 0.3 9.3 0.3 9.25 0.3 9.15 0.25 9.15 0.15 9.2 0.15 9.1 0.1 9.15 0.05 9.15 0.0 9.15 0.1 9.0 0.1 8.95 0.5 9.1 M1.0 10.65 L0.6 11.0 0.5 10.85 0.4 10.6 Q0.4 10.5 0.65 10.4 L0.9 10.3 0.95 10.45 1.0 10.65 M0.55 11.05 L0.45 11.15 Q-0.1 11.6 -0.35 11.6 L-0.4 11.6 -0.45 11.5 -0.6 11.25 Q-0.6 11.15 -0.5 11.1 L-0.2 10.95 0.1 10.75 Q0.25 10.6 0.3 10.6 0.35 10.6 0.4 10.8 L0.55 11.05 M-0.6 11.6 L-0.9 11.5 Q-1.05 11.35 -1.05 10.95 L-1.0 10.95 Q-0.75 11.1 -0.7 11.15 -0.7 11.15 -0.6 11.6 M-0.4 10.2 L-0.4 10.15 -0.35 9.9 Q-0.25 9.75 -0.25 9.65 L-0.25 9.65 -0.1 9.75 0.0 9.85 Q-0.1 10.25 -0.2 10.25 L-0.3 10.25 -0.4 10.2 M-0.95 10.0 Q-1.05 9.95 -1.05 9.75 L-1.05 9.7 Q-0.9 9.55 -0.55 9.3 -0.1 8.95 0.0 8.95 L0.1 8.95 -0.95 10.0 M-0.65 4.4 L-0.45 3.75 -0.4 3.7 -0.3 3.7 -0.35 3.75 -0.3 3.85 -0.3 3.85 -0.25 3.85 -0.25 3.85 -0.25 3.9 -0.15 3.9 -0.15 3.9 Q-0.1 3.9 -0.1 3.95 L-0.15 4.0 -0.2 4.0 -0.15 4.05 -0.1 4.15 -0.1 4.3 -0.05 4.3 -0.1 4.3 -0.35 4.4 -0.45 4.4 -0.65 4.4 M-3.4 -3.15 L-3.4 -3.25 -3.45 -3.65 -3.4 -3.85 -3.2 -3.9 -2.5 -3.9 Q-2.55 -4.1 -2.9 -5.0 -3.3 -5.9 -3.3 -6.15 L-3.25 -6.25 -2.7 -6.15 Q-2.6 -6.1 -2.05 -5.8 L-1.7 -6.05 -1.25 -6.3 -0.85 -6.35 Q-0.6 -6.45 -0.5 -6.55 L-0.3 -5.95 -0.15 -5.55 -0.35 -5.55 Q-0.35 -5.7 -0.45 -5.9 -0.6 -6.2 -0.75 -6.2 -1.1 -6.2 -1.5 -5.9 -1.85 -5.7 -1.85 -5.5 L-1.75 -4.75 -1.75 -4.75 -1.45 -5.05 -1.4 -4.9 Q-1.25 -4.7 -1.25 -4.55 L-1.25 -4.55 -1.2 -4.5 Q-1.15 -4.55 -0.9 -4.7 -0.65 -4.85 -0.65 -4.95 -0.65 -5.05 -0.75 -5.25 L-0.8 -5.4 -0.65 -5.45 -0.6 -5.3 Q-0.55 -5.1 -0.5 -5.0 L-0.4 -5.0 -0.6 -4.9 -0.7 -4.8 -0.55 -4.8 -0.4 -4.85 -0.15 -4.9 1.1 -4.35 Q1.75 -3.95 1.75 -3.55 L1.7 -2.75 Q1.55 -2.3 1.1 -2.0 0.7 -1.7 0.35 -1.65 L0.35 -1.45 0.2 -1.45 -0.1 -1.5 -0.1 -1.35 Q-0.05 -1.3 0.15 -0.9 0.35 -0.5 0.4 -0.5 0.85 -0.5 1.1 -1.0 1.35 -1.4 1.35 -1.85 L1.35 -1.85 1.4 -1.85 1.45 -1.8 1.55 -1.8 1.45 -1.45 Q1.05 -0.4 0.3 -0.4 0.25 -0.4 0.15 -0.45 L0.0 -0.6 0.1 -0.85 Q0.1 -1.0 -0.25 -1.0 L-0.4 -1.0 -0.4 -0.95 -0.3 -0.9 -0.25 -0.85 -0.25 -0.8 -0.3 -0.75 -0.35 -0.75 -0.35 -0.85 -0.45 -0.85 -0.55 -0.85 -0.6 -0.75 -0.25 -0.65 Q-0.05 -0.55 0.0 -0.35 L-0.35 -0.3 Q-0.8 -0.3 -1.45 -1.3 -2.15 -2.45 -2.15 -3.55 L-1.75 -4.75 -1.85 -4.45 -1.9 -4.35 -2.05 -5.3 Q-2.15 -5.8 -2.5 -5.8 L-3.05 -5.95 -3.05 -5.75 Q-2.85 -5.25 -2.4 -4.0 L-2.15 -4.05 -2.1 -4.05 -2.05 -4.05 -2.2 -3.95 -2.3 -3.65 Q-2.4 -3.3 -2.35 -3.05 L-2.8 -3.05 -2.9 -3.1 -2.9 -3.2 -3.05 -3.15 -3.4 -3.15 M-2.95 -6.45 L-2.75 -6.55 Q-2.4 -6.8 -2.3 -7.1 L-2.2 -7.1 -1.85 -7.15 -1.45 -7.1 Q-1.4 -7.1 -1.3 -7.15 L-1.1 -7.25 -0.8 -7.15 -0.8 -6.9 -1.1 -6.85 Q-1.15 -6.85 -1.3 -6.95 L-1.45 -7.0 Q-1.5 -7.0 -1.7 -6.85 L-1.7 -6.85 -1.75 -6.8 -2.05 -6.5 -2.45 -6.45 -2.95 -6.45 M-2.55 -8.8 Q-2.55 -9.25 -2.45 -9.35 L-2.35 -9.45 -2.4 -9.25 -2.4 -9.0 -2.35 -9.0 Q-2.2 -9.1 -2.0 -9.25 -1.85 -9.4 -1.7 -9.7 L-1.6 -9.75 -1.5 -9.75 -1.0 -9.95 -0.85 -9.7 Q-1.2 -9.6 -1.2 -9.5 -1.2 -9.2 -1.05 -8.75 L-0.85 -8.25 -0.65 -7.75 -0.65 -7.5 -0.95 -8.25 -1.1 -8.5 -1.45 -9.45 Q-1.6 -9.45 -2.15 -9.1 L-2.55 -8.8 M-2.3 -12.0 L-2.3 -12.0 -1.85 -11.6 -1.35 -11.8 -1.15 -11.85 -1.1 -11.25 -1.05 -10.55 Q-1.05 -10.35 -1.1 -10.2 L-1.15 -10.15 -1.45 -9.95 -2.3 -12.0 M-1.85 -12.85 L-1.75 -12.95 -1.75 -12.95 -1.5 -13.0 -1.0 -12.95 -1.0 -12.9 -0.95 -12.55 -1.0 -12.45 -1.05 -12.45 Q-1.25 -12.45 -1.6 -12.65 L-1.85 -12.85 M-0.9 -12.6 L-0.9 -12.75 -0.95 -12.95 -0.9 -12.95 -0.8 -13.0 -0.5 -13.05 Q-0.1 -13.05 0.0 -12.95 0.2 -12.85 0.2 -12.5 L-0.45 -12.6 -0.9 -12.6 M1.15 -11.7 Q0.7 -11.85 0.6 -11.95 L0.6 -11.9 Q0.6 -11.6 0.65 -11.2 0.75 -10.65 1.0 -10.4 0.95 -10.85 1.05 -11.25 L1.15 -11.7 M0.25 -12.15 L0.25 -12.05 0.0 -11.75 -0.25 -11.5 -0.2 -11.45 -0.15 -11.4 0.15 -11.55 0.25 -11.65 0.25 -11.35 0.3 -10.35 0.25 -10.25 0.15 -10.25 -0.05 -10.3 -0.35 -10.25 -0.45 -10.25 -0.65 -10.2 -0.65 -10.2 -0.65 -10.2 -0.85 -10.95 Q-1.0 -11.4 -1.05 -11.85 L-1.05 -11.9 -1.05 -11.9 -0.35 -11.55 Q-0.25 -11.55 -0.05 -11.75 L0.25 -12.15 M0.2 -11.4 L0.15 -11.45 Q0.15 -11.45 -0.15 -11.3 L-0.4 -11.15 -0.3 -10.5 -0.35 -10.35 Q-0.3 -10.3 -0.25 -10.3 L0.05 -10.3 0.2 -10.35 0.2 -11.4 M0.5 -8.4 L0.55 -8.35 0.65 -8.3 0.65 -8.25 0.6 -8.05 Q0.35 -8.1 0.35 -8.15 L0.4 -8.25 0.5 -8.4 M0.95 -8.1 L0.95 -8.15 1.05 -8.2 1.1 -8.1 1.25 -7.95 Q1.1 -7.85 1.1 -7.85 L1.0 -7.85 0.95 -7.9 0.9 -7.9 0.9 -7.85 0.9 -7.75 0.85 -7.7 0.75 -7.65 0.65 -7.7 0.75 -7.9 0.85 -8.05 0.9 -8.0 0.9 -8.1 0.95 -8.1 M0.3 -8.35 L0.25 -8.4 0.15 -8.5 0.25 -8.6 0.3 -8.65 0.4 -8.65 0.4 -8.65 0.45 -8.6 0.45 -8.55 0.3 -8.35 M0.1 -8.35 Q0.15 -8.3 0.25 -8.25 L0.35 -8.25 0.2 -7.95 Q0.2 -7.95 0.1 -8.0 L0.05 -8.05 0.1 -8.25 0.1 -8.35 M0.5 -7.95 L0.5 -7.85 0.45 -7.65 0.45 -7.65 0.3 -7.7 Q0.25 -7.75 0.25 -7.8 0.25 -8.0 0.4 -8.0 L0.5 -7.95 M0.75 -7.6 L0.9 -7.7 0.9 -7.4 Q0.9 -7.3 0.75 -7.25 L1.4 -7.3 Q1.55 -7.3 1.7 -7.1 L1.85 -6.95 1.8 -6.85 1.8 -6.85 1.05 -6.9 0.2 -6.9 0.2 -7.15 0.4 -7.2 0.65 -7.25 0.5 -7.25 0.5 -7.3 0.7 -7.55 0.75 -7.6 M0.95 -7.45 L0.95 -7.7 1.0 -7.85 1.2 -7.75 1.25 -7.5 1.25 -7.55 Q1.25 -7.65 1.4 -7.65 L1.5 -7.65 1.45 -7.35 1.35 -7.35 1.2 -7.4 Q1.2 -7.3 1.1 -7.3 L1.0 -7.35 0.95 -7.45 M0.15 -7.75 L0.15 -7.55 Q0.1 -7.45 -0.1 -7.3 L-0.15 -7.4 -0.15 -7.5 -0.05 -7.65 0.15 -7.75 M0.25 -7.55 L0.35 -7.55 0.45 -7.5 0.45 -7.5 0.4 -7.25 0.15 -7.15 0.0 -7.15 0.15 -7.4 0.25 -7.55 M1.55 -8.25 L1.6 -8.15 1.45 -7.95 1.4 -8.05 1.4 -8.05 1.3 -8.15 1.3 -8.15 1.35 -8.25 1.4 -8.25 1.5 -8.3 1.55 -8.25 1.55 -8.25 M1.55 -8.6 L1.6 -8.55 1.7 -8.45 Q1.7 -8.35 1.6 -8.3 L1.45 -8.45 1.55 -8.6 M1.2 -8.55 L1.35 -8.6 Q1.55 -8.6 1.25 -8.25 L1.2 -8.35 1.15 -8.45 1.2 -8.55 M1.4 -7.95 L1.45 -7.85 1.45 -7.85 1.5 -7.95 1.65 -8.05 1.7 -7.95 1.65 -7.8 1.55 -7.6 1.5 -7.65 1.5 -7.7 1.45 -7.8 1.45 -7.75 1.4 -7.7 Q1.35 -7.65 1.3 -7.65 1.3 -7.65 1.25 -7.75 L1.2 -7.85 1.4 -8.0 1.4 -7.95 M1.1 -8.3 L1.1 -8.35 1.2 -8.25 1.25 -8.1 1.2 -8.1 Q1.15 -8.1 1.05 -8.25 L1.1 -8.3 M1.4 -3.8 Q1.25 -4.0 1.05 -4.15 L1.0 -3.3 0.9 -2.85 Q0.75 -2.6 0.6 -2.6 L0.7 -2.25 Q0.7 -1.95 0.75 -1.9 L1.2 -2.25 Q1.45 -2.55 1.45 -2.8 L1.5 -3.3 Q1.5 -3.55 1.4 -3.8 M0.75 -2.9 L0.8 -3.1 0.8 -3.6 Q0.7 -3.6 0.55 -3.5 L0.3 -3.35 0.5 -3.05 Q0.6 -2.95 0.75 -2.9 M0.85 -0.25 L1.0 -0.15 0.25 0.25 -0.6 0.8 -0.3 0.95 -0.05 0.85 -0.05 0.85 Q0.1 0.85 0.55 0.6 L1.05 0.35 1.5 0.1 1.6 0.05 1.7 0.0 2.0 -0.1 2.15 -0.1 2.35 -0.2 2.4 -0.4 2.45 -0.7 2.2 -0.85 2.05 -1.0 1.7 -0.75 1.6 -0.6 1.5 -0.45 1.35 -0.35 1.25 -0.25 Q1.2 -0.25 1.1 -0.3 L1.0 -0.35 0.85 -0.25 M1.6 -0.25 L1.6 -0.3 1.7 -0.4 2.3 -0.7 2.35 -0.7 2.35 -0.45 Q2.35 -0.25 2.25 -0.2 L2.15 -0.15 2.0 -0.1 1.65 0.0 1.6 0.0 1.55 0.0 1.6 -0.05 1.6 -0.25 M1.5 -0.2 L1.45 -0.1 1.45 0.0 1.4 0.05 0.9 0.35 Q0.85 0.4 0.8 0.4 L0.65 0.5 0.65 0.45 Q0.75 0.3 1.0 0.05 1.35 -0.2 1.45 -0.2 L1.5 -0.2 M2.3 0.0 L2.25 0.0 2.1 0.05 2.1 0.1 2.2 0.45 2.35 1.0 2.45 1.45 2.45 1.85 3.0 1.55 Q3.4 1.35 3.4 1.3 3.4 0.95 3.25 0.25 L3.1 -0.3 2.65 -0.1 2.3 0.0 M2.15 0.85 L2.0 0.05 1.85 0.1 Q1.65 0.15 1.25 0.45 L0.8 0.75 Q0.75 0.75 0.75 0.7 L0.45 0.95 0.5 1.0 0.65 1.05 Q0.55 1.3 0.55 1.5 0.55 1.55 0.6 1.6 L0.6 1.7 0.65 1.85 0.65 2.05 0.7 2.5 0.7 2.55 0.75 2.6 0.75 2.65 0.8 2.85 0.75 3.0 Q0.75 3.05 0.85 3.05 L0.95 3.05 1.35 2.8 1.6 2.6 1.65 2.55 2.3 1.85 2.15 0.85 M0.6 0.4 L0.55 0.5 0.5 0.55 0.35 0.6 0.0 0.75 -0.05 0.7 Q-0.05 0.6 0.3 0.5 L0.6 0.35 0.6 0.4 M-1.15 -17.7 L-1.0 -16.7 -0.7 -15.45 -0.5 -15.65 -0.5 -15.65 -0.85 -17.0 -1.05 -17.8 Q-1.15 -17.8 -1.15 -17.7 M-2.05 -15.05 Q-1.85 -14.45 -1.8 -13.7 L-1.7 -13.65 Q-1.55 -13.65 -1.5 -13.75 -1.45 -13.8 -1.45 -14.05 -1.4 -14.05 -1.35 -13.8 L-1.15 -13.8 -1.05 -13.8 -0.95 -13.85 -0.95 -13.85 -0.8 -13.85 -0.8 -13.9 Q-0.8 -14.3 -0.85 -14.45 -0.85 -14.7 -0.95 -14.75 L-0.9 -14.8 Q-0.85 -14.8 -0.85 -14.85 L-0.9 -14.95 -0.95 -15.1 -0.95 -15.15 -1.0 -15.15 -1.15 -15.15 -1.35 -15.1 -1.7 -15.15 -1.8 -15.15 -2.05 -15.15 -2.05 -15.05 M-0.2 -14.9 L-0.25 -15.15 -0.25 -15.15 -0.7 -15.2 -0.8 -15.2 -0.8 -14.95 Q-0.8 -14.8 -0.5 -14.8 L-0.35 -14.8 -0.2 -14.8 -0.2 -14.9 M-0.2 -13.8 L-0.05 -13.25 -0.05 -13.15 -0.25 -13.1 -0.4 -13.05 Q-0.8 -13.05 -0.85 -13.2 -0.95 -13.3 -1.0 -13.7 L-0.9 -13.65 -0.9 -13.65 Q-0.9 -13.45 -0.85 -13.35 -0.75 -13.25 -0.6 -13.2 L-0.6 -13.55 Q-0.6 -13.55 -0.55 -13.6 L-0.5 -13.45 -0.5 -13.25 -0.2 -13.25 -0.3 -13.75 -0.2 -13.8 M-0.95 -11.65 L-0.75 -10.9 -0.6 -10.3 -0.5 -10.3 -0.4 -10.35 -0.4 -10.35 Q-0.4 -10.85 -0.5 -11.2 -0.65 -11.65 -0.95 -11.8 L-0.95 -11.65 M-1.75 -11.45 L-1.75 -11.4 -1.4 -10.1 -1.2 -10.2 Q-1.15 -10.25 -1.15 -10.3 L-1.15 -10.35 Q-1.15 -10.65 -1.2 -11.15 L-1.3 -11.75 -1.35 -11.75 -1.4 -11.75 -1.6 -11.55 -1.75 -11.45 M-0.45 -7.8 L-0.35 -7.95 -0.2 -8.1 Q-0.15 -8.1 0.0 -7.8 L-0.3 -7.55 -0.45 -7.8 M-0.55 -7.5 L-0.55 -7.65 Q-0.5 -7.6 -0.35 -7.55 L-0.25 -7.55 -0.2 -7.5 -0.25 -7.25 -0.25 -7.25 -0.5 -7.3 Q-0.55 -7.35 -0.55 -7.5 M-1.2 -7.7 L-1.3 -7.85 -1.3 -7.85 -1.15 -7.95 -1.0 -8.0 -0.9 -7.85 -0.85 -7.65 Q-0.95 -7.5 -1.05 -7.5 L-1.2 -7.7 M-1.7 -7.6 L-1.55 -7.75 Q-1.4 -7.75 -1.25 -7.6 L-1.05 -7.4 -1.25 -7.3 Q-1.45 -7.2 -1.5 -7.2 -1.6 -7.2 -1.7 -7.3 L-1.85 -7.4 Q-1.8 -7.4 -1.7 -7.6 M-1.95 -7.55 L-2.0 -7.6 -2.0 -7.75 -1.9 -7.8 -1.7 -7.75 -1.85 -7.45 -1.95 -7.55 M-1.85 -7.9 L-2.0 -7.9 Q-2.05 -7.95 -2.05 -8.05 L-2.05 -8.1 -1.9 -8.05 Q-1.8 -8.0 -1.85 -7.9 M-1.75 -7.9 L-1.7 -8.0 -1.7 -8.1 -1.4 -8.0 -1.35 -7.85 -1.45 -7.75 -1.6 -7.8 -1.65 -7.8 -1.75 -7.9 M-1.15 -8.2 L-1.1 -8.1 -1.3 -7.95 -1.35 -8.2 -1.3 -8.25 -1.2 -8.3 -1.15 -8.25 -1.15 -8.2 M-2.2 -7.2 L-2.2 -7.3 -2.15 -7.4 -2.05 -7.45 -1.95 -7.4 -1.9 -7.25 Q-1.95 -7.2 -2.05 -7.2 L-2.2 -7.2 M-0.6 -4.3 Q-0.55 -4.45 -0.55 -4.65 -1.1 -4.55 -1.4 -4.15 -1.7 -3.75 -1.7 -3.05 L-1.4 -2.6 Q-1.1 -2.1 -0.85 -1.9 L-0.75 -1.9 -0.75 -1.95 -0.55 -2.25 -1.05 -3.15 -0.95 -3.15 -0.85 -3.15 -0.85 -3.25 Q-0.85 -3.4 -1.0 -3.6 L-1.1 -3.75 -1.1 -3.85 -0.85 -3.8 Q-0.65 -3.95 -0.6 -4.3 M-0.45 -4.1 L-0.65 -3.85 Q-0.75 -3.65 -0.85 -3.65 -0.8 -3.5 -0.6 -3.35 L-0.3 -3.15 -0.3 -3.4 Q-0.3 -3.55 -0.4 -3.8 -0.5 -4.0 -0.45 -4.1 M-2.9 -3.25 L-2.85 -3.4 -2.9 -3.4 -2.9 -3.25 M-2.2 -1.5 L-2.45 -1.5 -3.0 -1.6 -3.1 -1.6 -3.15 -1.7 Q-3.0 -1.8 -2.95 -2.05 L-2.75 -2.6 Q-2.55 -2.45 -2.3 -2.05 -2.1 -1.7 -2.1 -1.6 L-2.1 -1.55 -2.2 -1.5 M-3.8 -0.65 Q-3.75 -0.85 -3.6 -0.85 L-3.4 -0.7 -2.1 -0.2 -2.15 0.0 -2.2 0.05 -2.35 0.1 -3.2 0.2 Q-3.45 0.2 -3.55 0.0 L-3.85 -0.45 -3.8 -0.65 M-0.35 -1.55 L-0.95 -1.75 Q-1.35 -1.85 -1.55 -2.05 L-1.55 -2.0 Q-1.55 -1.85 -1.25 -1.3 -0.9 -0.75 -0.75 -0.6 -0.85 -0.85 -0.6 -1.1 L-0.35 -1.55 M-2.8 0.3 L-2.35 0.2 Q-2.35 0.9 -2.65 1.45 -2.75 1.45 -3.0 1.1 -3.35 0.75 -3.35 0.5 L-3.3 0.4 -3.3 0.3 -2.8 0.3 M-0.8 0.5 Q-0.8 0.6 -0.85 0.75 L-1.75 0.6 Q-2.0 0.5 -2.0 0.25 L-1.95 0.1 -1.95 0.05 -1.3 0.15 Q-0.8 0.25 -0.8 0.5 M-0.2 5.95 L-0.3 6.3 -0.25 6.35 -0.3 6.4 -0.3 6.5 -0.25 6.6 -0.25 6.65 -0.2 6.7 -0.25 6.8 -0.15 6.85 -0.2 6.85 -0.55 6.5 Q-0.55 6.4 -0.35 6.2 L-0.2 5.95" fill="#722a2a" fill-rule="evenodd" stroke="none"/>
    <path d="M0.3 -18.9 L0.4 -19.6 0.25 -20.5 0.25 -20.55 -0.1 -21.75 -0.3 -22.45 -0.45 -22.95 -0.4 -23.0 -0.4 -23.0 -0.2 -22.45 Q0.25 -20.95 0.6 -19.15 L0.55 -18.75 0.3 -18.9 M-1.05 -19.9 Q-1.05 -19.45 -0.9 -18.85 L-1.15 -18.6 -1.2 -18.85 -1.05 -19.9 M1.3 -15.7 L1.5 -15.8 1.6 -15.7 1.7 -15.6 1.3 -15.35 1.3 -15.35 Q1.2 -15.5 1.2 -15.55 L1.2 -15.65 1.3 -15.7 M1.05 -13.65 L1.1 -13.5 0.95 -13.4 Q0.85 -13.3 0.8 -13.1 0.8 -12.9 0.6 -12.85 L0.35 -12.85 0.2 -12.85 0.2 -12.95 0.15 -13.0 Q0.15 -13.05 0.3 -13.1 L0.6 -13.2 0.75 -13.45 Q0.9 -13.6 1.05 -13.65 M1.45 -13.05 L1.5 -13.0 1.95 -12.5 Q1.7 -12.35 1.45 -12.35 1.35 -12.35 1.3 -12.4 L1.05 -12.55 1.15 -12.35 1.1 -12.3 0.95 -12.3 0.65 -12.35 Q0.35 -12.35 0.35 -12.4 L0.35 -12.45 Q0.7 -12.6 1.45 -13.05 M1.95 -12.4 L1.85 -12.1 1.65 -11.95 Q1.35 -11.75 1.25 -11.75 L1.15 -11.8 0.5 -12.15 0.5 -12.15 0.55 -12.3 1.0 -12.2 1.25 -12.2 1.25 -12.2 1.65 -12.3 1.95 -12.4 M1.3 -9.8 Q2.0 -9.4 2.0 -9.15 L2.0 -9.05 1.7 -9.3 1.55 -9.45 1.5 -9.5 1.5 -9.5 1.25 -9.7 1.3 -9.75 1.3 -9.8 M2.45 -6.7 L2.45 -6.5 1.95 -6.3 Q1.4 -6.1 1.3 -5.95 L0.3 -6.35 Q0.4 -6.6 0.5 -6.7 0.7 -6.8 1.15 -6.8 L1.8 -6.75 2.4 -6.65 2.45 -6.7 M3.1 -1.5 L3.15 -1.3 3.55 -1.0 Q3.55 -0.9 3.35 -0.7 L3.2 -0.5 3.2 -0.45 3.1 -0.35 3.1 -0.35 2.55 -0.25 2.4 -0.2 2.45 -0.35 2.5 -0.7 Q2.5 -0.75 2.25 -0.95 2.15 -1.0 2.1 -1.0 L2.25 -1.15 2.3 -1.05 Q2.3 -0.95 2.4 -0.95 L2.5 -1.1 2.7 -1.25 3.1 -1.5 M-3.25 -6.25 L-3.0 -6.4 -2.9 -6.4 -2.1 -6.45 Q-1.95 -6.45 -1.9 -6.55 L-1.75 -6.8 -1.7 -6.85 -1.7 -6.85 -1.6 -6.85 -1.65 -6.75 -1.7 -6.65 -1.7 -6.6 -1.65 -6.65 -1.55 -6.7 -0.75 -6.55 -0.65 -6.6 -0.5 -6.65 -0.5 -6.55 Q-0.6 -6.45 -0.85 -6.35 L-1.25 -6.3 -1.7 -6.05 -2.05 -5.8 Q-2.6 -6.1 -2.7 -6.15 L-3.25 -6.25 M-2.35 -9.45 Q-2.2 -9.55 -1.7 -9.7 -1.85 -9.4 -2.0 -9.25 -2.2 -9.1 -2.35 -9.0 L-2.4 -9.0 -2.4 -9.25 -2.35 -9.45 M-2.3 -12.0 L-2.3 -12.0 -2.35 -12.2 -1.2 -11.9 -1.15 -11.85 -1.35 -11.8 -1.85 -11.6 -2.3 -12.0 M-2.4 -12.4 L-1.85 -12.85 -1.85 -12.85 -1.6 -12.65 Q-1.25 -12.45 -1.05 -12.45 L-1.15 -12.3 Q-1.4 -12.1 -1.6 -12.1 L-2.0 -12.2 -2.4 -12.4 M-1.75 -12.95 Q-1.5 -13.2 -1.4 -13.3 L-1.1 -13.05 -1.0 -12.95 -1.5 -13.0 -1.75 -12.95 -1.75 -12.95 M-2.15 -15.5 L-2.0 -15.55 Q-1.85 -15.65 -1.75 -15.75 L-0.65 -15.4 -0.4 -15.3 -0.6 -15.25 -0.6 -15.25 -0.65 -15.25 -2.15 -15.5 M0.4 -15.25 L0.45 -15.2 0.45 -15.0 Q0.3 -14.85 -0.15 -14.85 L-0.15 -14.85 Q-0.2 -14.9 -0.2 -15.1 L-0.15 -15.15 0.0 -15.2 0.3 -15.25 0.3 -15.25 Q0.4 -15.25 0.4 -15.25 M0.55 -14.9 L0.55 -15.0 Q0.5 -15.1 0.5 -15.25 0.5 -15.3 0.7 -15.4 L0.95 -15.55 1.0 -15.55 Q1.05 -15.55 1.1 -15.45 L1.15 -15.3 0.8 -15.05 0.55 -14.9 M0.7 -13.95 L0.9 -13.95 0.85 -13.9 0.35 -13.55 0.3 -13.55 0.25 -13.6 Q0.05 -13.7 -0.05 -13.8 L-0.05 -13.9 -0.05 -13.9 0.35 -13.95 0.45 -13.95 0.6 -13.95 0.7 -13.95 M0.2 -12.5 L0.2 -12.45 0.15 -12.4 Q-0.3 -12.15 -0.35 -12.15 L-0.7 -12.15 -1.0 -12.25 -0.85 -12.5 -0.9 -12.6 -0.45 -12.6 0.2 -12.5 M-1.05 -11.9 L-1.05 -12.0 -0.95 -11.95 -0.5 -11.95 -0.2 -12.0 0.05 -12.2 0.25 -12.3 0.25 -12.15 -0.05 -11.75 Q-0.25 -11.55 -0.35 -11.55 L-1.05 -11.9 -1.05 -11.9 M0.25 -12.05 L0.25 -11.65 0.15 -11.55 -0.15 -11.4 -0.2 -11.45 -0.25 -11.5 0.0 -11.75 0.25 -12.05 M-1.0 -9.95 L-0.7 -10.05 0.2 -10.25 Q0.45 -10.25 0.85 -10.05 L0.85 -9.8 Q0.6 -9.95 0.45 -9.95 L-0.4 -9.8 -0.85 -9.7 -1.0 -9.95 M1.2 -5.0 L1.3 -4.9 1.6 -4.5 1.45 -4.25 1.0 -4.85 Q1.1 -4.85 1.1 -4.9 L1.1 -5.0 1.05 -5.05 Q1.05 -5.05 1.0 -5.05 L0.95 -4.9 0.85 -4.85 0.8 -4.85 Q0.45 -5.05 0.0 -5.05 L-0.35 -5.0 -0.4 -5.0 -0.5 -5.0 Q-0.55 -5.1 -0.6 -5.3 L-0.65 -5.45 -0.35 -5.55 -0.15 -5.55 0.15 -5.55 0.15 -5.55 0.3 -5.55 Q0.8 -5.5 1.2 -5.0 M1.55 -1.8 L1.45 -1.8 1.4 -1.85 1.35 -1.85 1.35 -1.85 Q1.35 -1.4 1.1 -1.0 0.85 -0.5 0.4 -0.5 0.35 -0.5 0.15 -0.9 -0.05 -1.3 -0.1 -1.35 L-0.1 -1.5 0.2 -1.45 0.35 -1.45 0.35 -1.65 Q0.7 -1.7 1.1 -2.0 1.55 -2.3 1.7 -2.75 1.65 -2.2 1.55 -1.8 M0.85 -0.25 L1.0 -0.35 1.1 -0.3 Q1.2 -0.25 1.25 -0.25 L1.35 -0.35 1.5 -0.45 1.6 -0.6 1.7 -0.75 2.05 -1.0 2.2 -0.85 2.45 -0.7 2.4 -0.4 2.35 -0.2 2.15 -0.1 2.0 -0.1 1.7 0.0 1.6 0.05 1.5 0.1 1.05 0.35 0.55 0.6 Q0.1 0.85 -0.05 0.85 L-0.05 0.85 -0.3 0.95 -0.6 0.8 0.25 0.25 1.0 -0.15 0.85 -0.25 M1.5 -0.2 L1.45 -0.2 Q1.35 -0.2 1.0 0.05 0.75 0.3 0.65 0.45 L0.65 0.5 0.8 0.4 Q0.85 0.4 0.9 0.35 L1.4 0.05 1.45 0.0 1.45 -0.1 1.5 -0.2 M1.6 -0.25 L1.6 -0.05 1.55 0.0 1.6 0.0 1.65 0.0 2.0 -0.1 2.15 -0.15 2.25 -0.2 Q2.35 -0.25 2.35 -0.45 L2.35 -0.7 2.3 -0.7 1.7 -0.4 1.6 -0.3 1.6 -0.25 M0.6 0.4 L0.6 0.35 0.3 0.5 Q-0.05 0.6 -0.05 0.7 L0.0 0.75 0.35 0.6 0.5 0.55 0.55 0.5 0.6 0.4 M-0.05 4.3 L-0.05 4.3 0.0 4.3 0.05 4.35 0.1 4.35 0.1 4.4 0.25 4.35 0.25 4.4 0.15 4.45 0.25 4.45 0.25 4.55 0.1 4.7 0.1 4.85 0.05 4.9 0.0 5.0 -0.4 5.25 -0.4 5.2 -0.45 5.1 -0.45 5.05 -0.4 5.05 -0.45 4.95 -0.45 4.9 -0.4 4.85 -0.45 4.8 -0.4 4.75 -0.45 4.7 -0.5 4.65 -0.4 4.6 -0.45 4.45 -0.45 4.4 -0.35 4.4 -0.1 4.3 -0.05 4.3 M-0.8 -14.95 L-0.8 -15.2 -0.7 -15.2 -0.25 -15.15 -0.25 -15.15 -0.2 -14.9 -0.5 -14.9 -0.8 -14.95 M-0.95 -13.8 L-0.9 -13.8 -0.85 -13.8 -0.7 -13.8 -0.6 -13.85 -0.3 -13.85 -0.2 -13.9 -0.2 -13.8 -0.3 -13.75 -0.4 -13.65 -0.55 -13.6 Q-0.6 -13.55 -0.6 -13.55 L-0.65 -13.55 Q-0.65 -13.55 -0.85 -13.65 L-0.9 -13.65 -1.0 -13.7 -1.0 -13.75 -0.95 -13.8 M-1.45 -5.05 L-1.15 -5.25 -0.8 -5.4 -0.75 -5.25 Q-0.65 -5.05 -0.65 -4.95 -0.65 -4.85 -0.9 -4.7 -1.15 -4.55 -1.2 -4.5 L-1.25 -4.55 -1.25 -4.55 Q-1.25 -4.7 -1.4 -4.9 L-1.45 -5.05 M-0.35 -1.55 L-0.6 -1.1 Q-0.85 -0.85 -0.75 -0.6 -0.9 -0.75 -1.25 -1.3 -1.55 -1.85 -1.55 -2.0 L-1.55 -2.05 Q-1.35 -1.85 -0.95 -1.75 L-0.35 -1.55 M-0.1 5.55 L-0.1 5.85 -0.05 5.95 Q0.0 6.0 -0.05 6.05 L-0.2 6.2 -0.25 6.35 -0.3 6.3 -0.2 5.95 -0.15 5.95 -0.15 5.9 -0.2 5.85 -0.2 5.75 -0.15 5.6 -0.15 5.55 -0.1 5.55 M-0.3 6.4 L-0.3 6.45 -0.25 6.5 -0.15 6.55 -0.2 6.6 -0.2 6.6 -0.05 6.75 0.1 6.8 -0.05 7.0 -0.1 7.15 -0.1 7.25 -0.05 7.35 -0.1 7.35 -0.1 7.35 -0.25 7.05 -0.2 6.85 -0.15 6.85 -0.25 6.8 -0.2 6.7 -0.25 6.65 -0.25 6.6 -0.3 6.5 -0.3 6.4" fill="#8c3333" fill-rule="evenodd" stroke="none"/>
    <path d="M-0.9 -18.85 L-0.8 -18.2 -0.3 -16.4 -0.3 -16.35 Q-0.15 -16.85 0.15 -18.1 L0.3 -18.9 0.55 -18.75 0.6 -19.15 0.7 -18.75 0.7 -18.65 0.55 -18.75 0.45 -18.2 Q0.4 -18.0 0.35 -17.7 L0.2 -16.95 Q0.1 -16.45 0.0 -16.05 -0.15 -15.3 -0.25 -15.3 -0.3 -15.3 -0.4 -15.7 L-0.8 -17.15 -1.15 -18.6 -0.9 -18.85 M0.2 -18.95 L-0.2 -16.75 Q-0.35 -17.05 -0.65 -18.25 -1.0 -19.5 -1.0 -19.8 -1.0 -19.9 -0.55 -19.9 L-0.25 -19.9 0.2 -19.85 0.25 -19.7 0.3 -19.6 0.2 -18.95 M0.8 -18.3 L1.2 -15.7 1.1 -15.55 1.15 -15.55 1.2 -15.4 1.15 -15.4 1.1 -15.45 Q1.05 -15.55 1.0 -15.55 L0.95 -15.55 0.7 -15.5 Q0.5 -15.45 0.55 -15.3 0.45 -15.3 0.4 -15.25 0.4 -15.25 0.3 -15.25 L0.3 -15.25 Q0.3 -15.35 0.2 -15.35 L0.1 -15.35 0.0 -15.3 0.0 -15.4 Q0.0 -15.65 0.2 -16.65 L0.25 -16.9 0.45 -17.75 0.55 -18.1 Q0.6 -17.95 0.6 -17.35 L0.6 -16.2 0.65 -16.7 0.65 -17.95 Q0.65 -18.15 0.8 -18.3 M1.75 -15.35 L1.5 -14.6 Q1.25 -14.1 1.05 -13.9 L1.05 -14.1 1.15 -14.35 1.3 -14.8 Q1.35 -15.15 1.5 -15.2 L1.75 -15.35 M1.0 -13.8 L1.05 -13.65 Q0.9 -13.6 0.75 -13.45 L0.6 -13.2 0.3 -13.1 Q0.15 -13.05 0.15 -13.0 L0.2 -12.95 0.2 -12.85 0.35 -12.45 0.35 -12.4 Q0.35 -12.35 0.65 -12.35 L0.95 -12.3 1.1 -12.3 1.15 -12.35 1.05 -12.55 1.3 -12.4 Q1.35 -12.35 1.45 -12.35 1.7 -12.35 1.95 -12.5 L2.0 -12.5 1.95 -12.4 1.65 -12.3 1.25 -12.2 1.25 -12.2 1.0 -12.2 0.55 -12.3 0.5 -12.15 0.5 -12.15 0.45 -12.1 0.5 -11.35 0.6 -10.65 0.65 -10.45 Q0.7 -10.4 0.8 -10.4 L1.1 -10.25 1.35 -10.2 1.3 -10.05 1.3 -10.0 1.25 -9.9 1.3 -9.85 1.25 -9.85 0.85 -10.05 Q0.45 -10.25 0.2 -10.25 L-0.7 -10.05 -1.0 -9.95 -1.5 -9.75 Q-1.65 -10.25 -1.95 -11.15 L-2.3 -12.0 -1.45 -9.95 -1.15 -10.15 -1.1 -10.2 Q-1.05 -10.35 -1.05 -10.55 L-1.1 -11.25 -1.15 -11.85 -1.2 -11.9 -2.35 -12.2 -2.4 -12.35 -2.4 -12.4 -2.0 -12.2 -1.6 -12.1 Q-1.4 -12.1 -1.15 -12.3 L-1.05 -12.45 -1.0 -12.45 -0.95 -12.55 -1.0 -12.9 -1.0 -12.95 -1.1 -13.05 -1.4 -13.3 -1.35 -13.3 -1.3 -13.3 Q-1.15 -13.25 -1.1 -13.25 L-1.05 -13.25 -1.05 -13.75 -0.95 -13.8 -1.0 -13.75 -1.0 -13.7 Q-0.95 -13.3 -0.85 -13.2 -0.8 -13.05 -0.4 -13.05 L-0.25 -13.1 -0.05 -13.15 -0.05 -13.25 -0.2 -13.8 -0.2 -13.9 -0.3 -13.85 -0.6 -13.85 -0.7 -13.8 -0.75 -13.9 -0.75 -14.65 -0.65 -14.75 -0.4 -14.8 -0.2 -14.8 Q-0.15 -14.75 -0.15 -14.7 L-0.15 -14.3 -0.2 -13.9 -0.15 -13.9 -0.1 -13.9 -0.05 -13.6 0.0 -13.25 0.25 -13.25 0.65 -13.55 0.9 -13.75 1.0 -13.85 1.0 -13.8 M1.85 -11.95 L1.65 -11.4 1.35 -10.3 1.3 -10.3 1.15 -10.3 1.1 -10.45 1.2 -10.9 1.35 -11.5 Q1.45 -11.7 1.65 -11.85 L1.85 -11.95 M2.0 -8.75 L1.85 -8.25 1.8 -8.0 1.6 -7.35 Q1.6 -7.2 1.9 -7.0 L2.05 -6.95 Q2.4 -6.8 2.45 -6.7 L2.4 -6.65 1.8 -6.75 1.15 -6.8 Q0.7 -6.8 0.5 -6.7 0.4 -6.6 0.3 -6.35 L0.25 -6.05 0.15 -5.55 -0.15 -5.55 -0.3 -5.95 -0.5 -6.55 -0.5 -6.65 -0.65 -6.6 -0.75 -6.55 -1.55 -6.7 -1.65 -6.65 -1.7 -6.6 -1.7 -6.65 -1.65 -6.75 -1.6 -6.85 -1.7 -6.85 Q-1.5 -7.0 -1.45 -7.0 L-1.3 -6.95 Q-1.15 -6.85 -1.1 -6.85 L-0.8 -6.9 -0.8 -7.15 -1.1 -7.25 -1.3 -7.15 Q-1.4 -7.1 -1.45 -7.1 L-1.85 -7.15 -2.2 -7.1 -2.3 -7.1 Q-2.2 -7.25 -2.2 -7.4 L-2.4 -7.85 -2.55 -8.25 -2.55 -8.8 -2.15 -9.1 Q-1.6 -9.45 -1.45 -9.45 L-1.1 -8.5 -0.95 -8.25 -0.65 -7.5 -0.65 -7.75 -0.85 -8.25 -1.05 -8.75 Q-1.2 -9.2 -1.2 -9.5 -1.2 -9.6 -0.85 -9.7 L-0.4 -9.8 0.45 -9.95 Q0.6 -9.95 0.85 -9.8 L0.95 -9.7 Q1.25 -9.45 1.25 -9.3 L0.75 -8.25 0.5 -7.7 0.5 -7.45 0.55 -7.45 Q0.6 -7.65 0.85 -8.25 L0.95 -8.45 1.5 -9.5 1.5 -9.5 1.55 -9.45 2.0 -8.75 M2.45 -6.4 L2.4 -6.1 2.3 -5.45 2.0 -4.3 1.65 -4.55 1.65 -4.6 Q1.35 -4.9 1.35 -5.05 L1.35 -5.35 Q1.4 -5.7 1.5 -5.8 L2.0 -6.15 Q2.35 -6.3 2.45 -6.4 M1.95 -4.2 L2.0 -4.2 2.0 -4.2 1.95 -4.15 1.9 -4.0 Q1.9 -3.95 2.0 -3.7 2.05 -3.5 2.05 -3.35 L2.1 -3.35 Q2.2 -3.35 2.5 -3.55 L2.9 -3.8 2.85 -3.95 2.8 -4.15 Q2.9 -4.1 2.95 -3.95 2.95 -3.85 3.0 -3.85 L3.1 -3.9 3.1 -3.85 2.95 -3.35 Q2.75 -2.75 2.75 -2.45 L2.75 -2.2 2.55 -2.4 Q2.35 -2.6 2.25 -2.6 L2.1 -2.0 1.95 -1.5 Q2.45 -1.7 2.7 -1.8 L2.75 -1.7 Q2.25 -1.45 2.1 -1.35 1.85 -1.25 1.75 -1.1 1.6 -0.85 1.5 -0.75 1.25 -0.5 0.75 -0.35 L0.8 -0.25 0.85 -0.1 Q0.85 -0.05 0.6 0.05 L0.25 0.2 Q0.2 0.2 -0.1 0.4 L-0.45 0.7 -0.5 0.7 -0.55 0.4 -0.5 -0.1 Q-0.8 -0.15 -1.05 -0.3 L-1.55 -0.8 Q-2.2 -1.5 -3.1 -1.5 L-3.2 -1.5 -3.2 -1.6 -3.2 -1.9 -3.3 -2.3 -3.45 -2.85 -3.4 -3.15 -3.05 -3.15 -2.9 -3.2 -2.9 -3.1 -2.8 -3.05 -2.35 -3.05 Q-2.4 -3.3 -2.3 -3.65 L-2.2 -3.95 -2.05 -4.05 -2.1 -4.05 -2.15 -4.05 -2.4 -4.0 Q-2.85 -5.25 -3.05 -5.75 L-3.05 -5.95 -2.5 -5.8 Q-2.15 -5.8 -2.05 -5.3 L-1.9 -4.35 -1.85 -4.45 -1.75 -4.75 -2.15 -3.55 Q-2.15 -2.45 -1.45 -1.3 -0.8 -0.3 -0.35 -0.3 L0.0 -0.35 Q-0.05 -0.55 -0.25 -0.65 L-0.6 -0.75 -0.55 -0.85 -0.45 -0.85 -0.35 -0.85 -0.35 -0.75 -0.3 -0.75 -0.25 -0.8 -0.25 -0.85 -0.3 -0.9 -0.4 -0.95 -0.4 -1.0 -0.25 -1.0 Q0.1 -1.0 0.1 -0.85 L0.0 -0.6 0.15 -0.45 Q0.25 -0.4 0.3 -0.4 1.05 -0.4 1.45 -1.45 L1.55 -1.8 Q1.65 -2.2 1.7 -2.75 L1.75 -3.55 Q1.75 -3.95 1.1 -4.35 L-0.15 -4.9 -0.4 -4.85 -0.55 -4.8 -0.7 -4.8 -0.6 -4.9 -0.4 -5.0 -0.35 -5.0 0.0 -5.05 Q0.45 -5.05 0.8 -4.85 L1.1 -4.55 1.35 -4.2 Q1.5 -4.05 1.6 -4.05 1.75 -4.05 1.8 -4.2 L1.85 -4.25 Q1.9 -4.2 1.95 -4.2 L1.95 -4.2 M0.45 3.65 L0.45 3.75 0.4 3.7 0.25 3.65 0.25 3.6 0.2 3.6 0.3 3.55 0.45 3.65 M0.6 4.1 L0.7 4.25 0.55 4.65 0.4 4.8 0.1 5.0 0.0 5.0 0.05 4.9 0.1 4.85 0.1 4.7 0.25 4.55 0.25 4.45 0.15 4.45 0.25 4.4 0.25 4.35 0.1 4.4 0.1 4.35 0.05 4.35 0.0 4.3 -0.05 4.3 -0.05 4.3 -0.1 4.3 -0.1 4.15 -0.15 4.05 -0.2 4.0 -0.15 4.0 -0.1 3.95 Q-0.1 3.9 -0.15 3.9 L-0.15 3.9 -0.25 3.9 -0.25 3.85 -0.25 3.85 -0.3 3.85 -0.3 3.85 -0.35 3.75 -0.3 3.7 -0.4 3.7 -0.45 3.75 -0.4 3.7 -0.45 3.7 -0.35 3.65 -0.3 3.65 -0.35 3.65 -0.4 3.6 -0.35 3.2 -0.3 3.0 -0.25 2.85 -0.2 2.25 -0.2 2.05 -0.2 1.15 0.25 0.95 0.3 0.95 0.3 1.0 Q0.3 1.05 0.25 1.1 L0.4 1.15 0.35 1.2 0.35 1.25 0.5 2.1 0.5 2.2 0.6 2.85 0.65 2.9 0.65 3.15 Q0.65 3.2 0.3 3.45 L0.2 3.55 Q0.0 3.7 -0.15 3.7 L-0.05 3.7 0.2 3.6 0.2 3.65 0.25 3.65 0.3 3.7 0.3 3.75 Q0.3 3.75 0.25 3.75 L0.2 3.7 0.15 3.7 0.15 3.75 0.1 3.8 0.05 3.8 0.1 3.95 0.05 4.0 0.0 4.1 0.0 4.25 0.2 4.2 0.55 4.15 0.6 4.1 M0.2 5.4 L0.3 5.6 Q0.4 5.75 0.4 5.85 L0.35 6.1 0.4 6.15 0.4 6.2 0.35 6.7 0.3 7.2 Q0.25 7.25 -0.05 7.35 L-0.1 7.25 -0.1 7.15 -0.05 7.0 0.1 6.8 -0.05 6.75 -0.2 6.6 -0.2 6.6 -0.15 6.55 -0.25 6.5 -0.3 6.45 -0.3 6.4 -0.25 6.35 -0.2 6.2 -0.05 6.05 Q0.0 6.0 -0.05 5.95 L-0.1 5.85 -0.1 5.55 Q0.05 5.45 0.2 5.4 M0.3 8.1 L0.4 8.4 0.5 9.1 0.1 8.95 0.1 9.0 0.0 9.15 0.05 9.15 0.1 9.15 0.15 9.1 0.15 9.2 0.25 9.15 0.3 9.15 0.3 9.25 0.3 9.3 0.4 9.2 0.45 9.2 Q0.4 9.3 0.45 9.3 L0.5 9.35 0.65 9.25 Q0.6 9.45 0.5 9.55 L0.05 9.85 0.35 9.8 0.65 9.75 Q0.85 9.8 0.85 9.9 L0.85 10.05 0.8 10.15 0.8 10.2 1.0 10.15 Q1.05 10.15 1.05 10.25 L1.0 10.55 1.0 10.65 0.95 10.45 0.9 10.3 0.65 10.4 Q0.4 10.5 0.4 10.6 L0.5 10.85 0.6 11.0 0.55 11.05 0.4 10.8 Q0.35 10.6 0.3 10.6 0.25 10.6 0.1 10.75 L-0.2 10.95 -0.5 11.1 Q-0.6 11.15 -0.6 11.25 L-0.45 11.5 -0.4 11.6 -0.6 11.6 Q-0.7 11.15 -0.7 11.15 -0.75 11.1 -1.0 10.95 L-0.75 10.65 Q-0.45 10.4 -0.4 10.25 L-0.4 10.2 -0.3 10.25 -0.2 10.25 Q-0.1 10.25 0.0 9.85 L-0.1 9.75 -0.25 9.65 -0.25 9.65 Q-0.25 9.75 -0.35 9.9 L-0.4 10.15 -0.4 10.1 -0.9 10.05 -0.95 10.0 0.1 8.95 0.0 8.95 Q-0.1 8.95 -0.55 9.3 -0.9 9.55 -1.05 9.7 L-0.85 9.35 -0.65 8.9 -0.6 8.4 -0.5 7.95 -0.55 7.85 -0.4 7.8 -0.2 7.7 -0.1 7.75 -0.05 7.7 Q0.05 7.7 0.05 7.7 L0.05 7.8 0.0 7.8 0.05 7.85 0.1 7.85 0.1 7.9 -0.1 7.95 -0.3 8.0 -0.25 8.05 -0.05 7.95 0.05 7.95 0.05 8.05 0.1 8.05 0.15 7.95 0.15 7.9 0.25 7.8 0.25 7.95 0.25 8.05 -0.05 8.15 Q-0.35 8.25 -0.35 8.35 L-0.25 8.4 -0.15 8.4 -0.1 8.35 -0.05 8.4 0.0 8.5 -0.05 8.55 0.0 8.6 0.05 8.7 0.2 8.75 0.25 8.8 0.3 8.7 0.15 8.4 0.25 8.2 0.3 8.1 M-0.5 7.5 Q-0.55 7.25 -0.85 6.4 L-0.65 6.05 -0.55 5.9 -0.5 5.85 -0.15 5.55 -0.15 5.6 -0.2 5.75 -0.2 5.85 -0.15 5.9 -0.15 5.95 -0.2 5.95 -0.35 6.2 Q-0.55 6.4 -0.55 6.5 L-0.2 6.85 -0.25 7.05 -0.1 7.35 -0.45 7.5 -0.5 7.5 M-0.85 5.45 L-0.9 5.5 Q-1.0 5.5 -1.15 5.25 L-1.25 4.95 Q-1.25 4.55 -0.9 4.45 L-0.65 4.4 -0.45 4.4 -0.45 4.45 -0.4 4.6 -0.5 4.65 -0.45 4.7 -0.4 4.75 -0.45 4.8 -0.4 4.85 -0.45 4.9 -0.45 4.95 -0.4 5.05 -0.45 5.05 -0.45 5.1 -0.4 5.2 -0.4 5.25 -0.45 5.3 -0.85 5.45 M-0.75 3.55 L-1.2 3.5 -1.25 3.2 -0.75 3.5 -0.75 3.55 M-4.15 1.25 L-4.1 0.7 -4.0 0.1 Q-3.95 -0.2 -3.8 -0.7 L-3.6 -1.2 -3.65 -1.3 Q-3.55 -1.1 -3.45 -1.1 L-3.1 -1.25 Q-2.7 -1.25 -2.35 -1.1 -1.9 -0.9 -1.75 -0.5 L-1.75 -0.5 -1.2 -0.05 -0.9 -0.05 Q-0.65 0.0 -0.65 0.15 L-0.7 0.25 -0.75 0.5 Q-0.75 0.95 -0.5 1.0 -0.3 1.05 -0.3 1.35 L-0.35 2.0 -0.45 2.55 -0.5 2.8 -0.55 3.1 Q-0.6 3.4 -0.65 3.4 L-2.45 2.2 -2.45 2.25 -2.5 2.1 -2.4 1.5 -2.2 0.7 -1.9 -0.3 Q-2.05 0.05 -2.25 0.75 -2.55 1.95 -2.65 1.95 -2.8 1.95 -2.95 1.8 L-3.25 1.55 -3.55 1.4 Q-3.7 1.3 -3.6 1.1 L-3.65 1.1 -3.7 1.2 -3.7 1.3 -3.85 1.3 -3.95 1.3 -4.1 1.25 -4.15 1.25 M-3.0 -6.4 L-2.95 -6.45 -2.45 -6.45 -2.05 -6.5 -1.75 -6.8 -1.9 -6.55 Q-1.95 -6.45 -2.1 -6.45 L-2.9 -6.4 -3.0 -6.4 M-1.75 -15.75 L-1.75 -15.8 -1.7 -15.85 -1.35 -18.0 -0.9 -16.3 -0.65 -15.4 -1.75 -15.75 M0.7 -14.85 L0.9 -14.9 1.1 -15.05 1.1 -15.05 1.2 -15.1 1.25 -15.0 0.9 -14.05 0.7 -13.95 0.6 -13.95 0.6 -13.95 0.55 -14.05 0.5 -14.1 Q0.55 -14.6 0.7 -14.8 L0.7 -14.85 M0.85 -13.9 L0.85 -13.75 Q0.85 -13.7 0.6 -13.55 L0.3 -13.35 0.3 -13.55 0.35 -13.55 0.85 -13.9 M0.25 -13.6 L0.25 -13.45 Q0.2 -13.35 0.1 -13.3 L0.0 -13.55 -0.05 -13.8 Q0.05 -13.7 0.25 -13.6 M-0.05 -13.9 L-0.1 -14.0 -0.1 -14.1 Q-0.1 -14.7 -0.05 -14.75 L0.0 -14.75 0.4 -14.8 0.5 -14.8 0.5 -14.75 0.45 -13.95 0.35 -13.95 -0.05 -13.9 -0.05 -13.9 M-0.9 -12.6 L-0.85 -12.5 -1.0 -12.25 -0.7 -12.15 -0.35 -12.15 Q-0.3 -12.15 0.15 -12.4 L0.2 -12.45 0.2 -12.5 Q0.2 -12.85 0.0 -12.95 -0.1 -13.05 -0.5 -13.05 L-0.8 -13.0 -0.9 -12.95 -0.95 -12.95 -0.9 -12.75 -0.9 -12.6 M1.15 -11.7 L1.05 -11.25 Q0.95 -10.85 1.0 -10.4 0.75 -10.65 0.65 -11.2 0.6 -11.6 0.6 -11.9 L0.6 -11.95 Q0.7 -11.85 1.15 -11.7 M0.25 -12.15 L0.25 -12.3 0.05 -12.2 -0.2 -12.0 -0.5 -11.95 -0.95 -11.95 -1.05 -12.0 -1.05 -11.9 -1.05 -11.85 Q-1.0 -11.4 -0.85 -10.95 L-0.65 -10.2 -0.65 -10.2 -0.65 -10.2 -0.45 -10.25 -0.35 -10.25 -0.05 -10.3 0.15 -10.25 0.25 -10.25 0.3 -10.35 0.25 -11.35 0.25 -11.65 0.25 -12.05 0.25 -12.15 M0.2 -11.4 L0.2 -10.35 0.05 -10.3 -0.25 -10.3 Q-0.3 -10.3 -0.35 -10.35 L-0.3 -10.5 -0.4 -11.15 -0.15 -11.3 Q0.15 -11.45 0.15 -11.45 L0.2 -11.4 M0.95 -8.1 L0.9 -8.1 0.9 -8.0 0.85 -8.05 0.75 -7.9 0.65 -7.7 0.75 -7.65 0.85 -7.7 0.9 -7.75 0.9 -7.85 0.9 -7.9 0.95 -7.9 1.0 -7.85 1.1 -7.85 Q1.1 -7.85 1.25 -7.95 L1.1 -8.1 1.05 -8.2 0.95 -8.15 0.95 -8.1 M0.5 -8.4 L0.4 -8.25 0.35 -8.15 Q0.35 -8.1 0.6 -8.05 L0.65 -8.25 0.65 -8.3 0.55 -8.35 0.5 -8.4 M0.3 -8.35 L0.45 -8.55 0.45 -8.6 0.4 -8.65 0.4 -8.65 0.3 -8.65 0.25 -8.6 0.15 -8.5 0.25 -8.4 0.3 -8.35 M0.1 -8.35 L0.1 -8.25 0.05 -8.05 0.1 -8.0 Q0.2 -7.95 0.2 -7.95 L0.35 -8.25 0.25 -8.25 Q0.15 -8.3 0.1 -8.35 M0.5 -7.95 L0.4 -8.0 Q0.25 -8.0 0.25 -7.8 0.25 -7.75 0.3 -7.7 L0.45 -7.65 0.45 -7.65 0.5 -7.85 0.5 -7.95 M0.25 -7.55 L0.15 -7.4 0.0 -7.15 0.15 -7.15 0.4 -7.25 0.45 -7.5 0.45 -7.5 0.35 -7.55 0.25 -7.55 M0.15 -7.75 L-0.05 -7.65 -0.15 -7.5 -0.15 -7.4 -0.1 -7.3 Q0.1 -7.45 0.15 -7.55 L0.15 -7.75 M0.95 -7.45 L1.0 -7.35 1.1 -7.3 Q1.2 -7.3 1.2 -7.4 L1.35 -7.35 1.45 -7.35 1.5 -7.65 1.4 -7.65 Q1.25 -7.65 1.25 -7.55 L1.25 -7.5 1.2 -7.75 1.0 -7.85 0.95 -7.7 0.95 -7.45 M0.75 -7.6 L0.7 -7.55 0.5 -7.3 0.5 -7.25 0.65 -7.25 0.4 -7.2 0.2 -7.15 0.2 -6.9 1.05 -6.9 1.8 -6.85 1.8 -6.85 1.85 -6.95 1.7 -7.1 Q1.55 -7.3 1.4 -7.3 L0.75 -7.25 Q0.9 -7.3 0.9 -7.4 L0.9 -7.7 0.75 -7.6 M1.55 -8.25 L1.55 -8.25 1.5 -8.3 1.4 -8.25 1.35 -8.25 1.3 -8.15 1.3 -8.15 1.4 -8.05 1.4 -8.05 1.45 -7.95 1.6 -8.15 1.55 -8.25 M1.55 -8.6 L1.45 -8.45 1.6 -8.3 Q1.7 -8.35 1.7 -8.45 L1.6 -8.55 1.55 -8.6 M1.2 -8.55 L1.15 -8.45 1.2 -8.35 1.25 -8.25 Q1.55 -8.6 1.35 -8.6 L1.2 -8.55 M1.1 -8.3 L1.05 -8.25 Q1.15 -8.1 1.2 -8.1 L1.25 -8.1 1.2 -8.25 1.1 -8.35 1.1 -8.3 M1.4 -7.95 L1.4 -8.0 1.2 -7.85 1.25 -7.75 Q1.3 -7.65 1.3 -7.65 1.35 -7.65 1.4 -7.7 L1.45 -7.75 1.45 -7.8 1.5 -7.7 1.5 -7.65 1.55 -7.6 1.65 -7.8 1.7 -7.95 1.65 -8.05 1.5 -7.95 1.45 -7.85 1.45 -7.85 1.4 -7.95 M0.3 -5.55 L0.35 -5.75 0.4 -6.1 0.95 -5.95 Q1.25 -5.75 1.2 -5.45 L1.2 -5.0 Q0.8 -5.5 0.3 -5.55 M-0.35 -5.55 L-0.65 -5.45 -0.8 -5.4 -1.15 -5.25 -1.45 -5.05 -1.75 -4.75 -1.75 -4.75 -1.85 -5.5 Q-1.85 -5.7 -1.5 -5.9 -1.1 -6.2 -0.75 -6.2 -0.6 -6.2 -0.45 -5.9 -0.35 -5.7 -0.35 -5.55 M1.4 -3.8 Q1.5 -3.55 1.5 -3.3 L1.45 -2.8 Q1.45 -2.55 1.2 -2.25 L0.75 -1.9 Q0.7 -1.95 0.7 -2.25 L0.6 -2.6 Q0.75 -2.6 0.9 -2.85 L1.0 -3.3 1.05 -4.15 Q1.25 -4.0 1.4 -3.8 M0.75 -2.9 Q0.6 -2.95 0.5 -3.05 L0.3 -3.35 0.55 -3.5 Q0.7 -3.6 0.8 -3.6 L0.8 -3.1 0.75 -2.9 M2.3 0.0 L2.65 -0.1 3.1 -0.3 3.25 0.25 Q3.4 0.95 3.4 1.3 3.4 1.35 3.0 1.55 L2.45 1.85 2.45 1.45 2.35 1.0 2.2 0.45 2.1 0.1 2.1 0.05 2.25 0.0 2.3 0.0 M2.15 0.85 L2.3 1.85 1.65 2.55 1.6 2.6 1.35 2.8 0.95 3.05 0.85 3.05 Q0.75 3.05 0.75 3.0 L0.8 2.85 0.75 2.65 0.75 2.6 0.7 2.55 0.7 2.5 0.65 2.05 0.65 1.85 0.6 1.7 0.6 1.6 Q0.55 1.55 0.55 1.5 0.55 1.3 0.65 1.05 L0.5 1.0 0.45 0.95 0.75 0.7 Q0.75 0.75 0.8 0.75 L1.25 0.45 Q1.65 0.15 1.85 0.1 L2.0 0.05 2.15 0.85 M-2.05 -15.05 L-2.05 -15.15 -1.8 -15.15 -1.7 -15.15 -1.35 -15.1 -1.15 -15.15 -1.0 -15.15 -0.95 -15.15 -0.95 -15.1 -0.9 -14.95 -0.85 -14.85 Q-0.85 -14.8 -0.9 -14.8 L-0.95 -14.75 Q-0.85 -14.7 -0.85 -14.45 -0.8 -14.3 -0.8 -13.9 L-0.8 -13.85 -0.95 -13.85 -0.95 -13.85 -1.05 -13.8 -1.15 -13.8 -1.35 -13.8 Q-1.4 -14.05 -1.45 -14.05 -1.45 -13.8 -1.5 -13.75 -1.55 -13.65 -1.7 -13.65 L-1.8 -13.7 Q-1.85 -14.45 -2.05 -15.05 M-1.15 -17.7 Q-1.15 -17.8 -1.05 -17.8 L-0.85 -17.0 -0.5 -15.65 -0.5 -15.65 -0.7 -15.45 -1.0 -16.7 -1.15 -17.7 M-0.6 -13.55 L-0.6 -13.2 Q-0.75 -13.25 -0.85 -13.35 -0.9 -13.45 -0.9 -13.65 L-0.9 -13.65 -0.85 -13.65 Q-0.65 -13.55 -0.65 -13.55 L-0.6 -13.55 M-0.55 -13.6 L-0.4 -13.65 -0.3 -13.75 -0.2 -13.25 -0.5 -13.25 -0.5 -13.45 -0.55 -13.6 M-0.95 -11.65 L-0.95 -11.8 Q-0.65 -11.65 -0.5 -11.2 -0.4 -10.85 -0.4 -10.35 L-0.4 -10.35 -0.5 -10.3 -0.6 -10.3 -0.75 -10.9 -0.95 -11.65 M-1.75 -11.45 L-1.6 -11.55 -1.4 -11.75 -1.35 -11.75 -1.3 -11.75 -1.2 -11.15 Q-1.15 -10.65 -1.15 -10.35 L-1.15 -10.3 Q-1.15 -10.25 -1.2 -10.2 L-1.4 -10.1 -1.75 -11.4 -1.75 -11.45 M-1.15 -8.2 L-1.15 -8.25 -1.2 -8.3 -1.3 -8.25 -1.35 -8.2 -1.3 -7.95 -1.1 -8.1 -1.15 -8.2 M-1.75 -7.9 L-1.65 -7.8 -1.6 -7.8 -1.45 -7.75 -1.35 -7.85 -1.4 -8.0 -1.7 -8.1 -1.7 -8.0 -1.75 -7.9 M-1.85 -7.9 Q-1.8 -8.0 -1.9 -8.05 L-2.05 -8.1 -2.05 -8.05 Q-2.05 -7.95 -2.0 -7.9 L-1.85 -7.9 M-1.95 -7.55 L-1.85 -7.45 -1.7 -7.75 -1.9 -7.8 -2.0 -7.75 -2.0 -7.6 -1.95 -7.55 M-1.7 -7.6 Q-1.8 -7.4 -1.85 -7.4 L-1.7 -7.3 Q-1.6 -7.2 -1.5 -7.2 -1.45 -7.2 -1.25 -7.3 L-1.05 -7.4 -1.25 -7.6 Q-1.4 -7.75 -1.55 -7.75 L-1.7 -7.6 M-1.2 -7.7 L-1.05 -7.5 Q-0.95 -7.5 -0.85 -7.65 L-0.9 -7.85 -1.0 -8.0 -1.15 -7.95 -1.3 -7.85 -1.3 -7.85 -1.2 -7.7 M-0.55 -7.5 Q-0.55 -7.35 -0.5 -7.3 L-0.25 -7.25 -0.25 -7.25 -0.2 -7.5 -0.25 -7.55 -0.35 -7.55 Q-0.5 -7.6 -0.55 -7.65 L-0.55 -7.5 M-0.45 -7.8 L-0.3 -7.55 0.0 -7.8 Q-0.15 -8.1 -0.2 -8.1 L-0.35 -7.95 -0.45 -7.8 M-2.2 -7.2 L-2.05 -7.2 Q-1.95 -7.2 -1.9 -7.25 L-1.95 -7.4 -2.05 -7.45 -2.15 -7.4 -2.2 -7.3 -2.2 -7.2 M-2.2 -1.5 L-2.1 -1.55 -2.1 -1.6 Q-2.1 -1.7 -2.3 -2.05 -2.55 -2.45 -2.75 -2.6 L-2.95 -2.05 Q-3.0 -1.8 -3.15 -1.7 L-3.1 -1.6 -3.0 -1.6 -2.45 -1.5 -2.2 -1.5 M-2.9 -3.25 L-2.9 -3.4 -2.85 -3.4 -2.9 -3.25 M-0.45 -4.1 Q-0.5 -4.0 -0.4 -3.8 -0.3 -3.55 -0.3 -3.4 L-0.3 -3.15 -0.6 -3.35 Q-0.8 -3.5 -0.85 -3.65 -0.75 -3.65 -0.65 -3.85 L-0.45 -4.1 M-0.6 -4.3 Q-0.65 -3.95 -0.85 -3.8 L-1.1 -3.85 -1.1 -3.75 -1.0 -3.6 Q-0.85 -3.4 -0.85 -3.25 L-0.85 -3.15 -0.95 -3.15 -1.05 -3.15 -0.55 -2.25 -0.75 -1.95 -0.75 -1.9 -0.85 -1.9 Q-1.1 -2.1 -1.4 -2.6 L-1.7 -3.05 Q-1.7 -3.75 -1.4 -4.15 -1.1 -4.55 -0.55 -4.65 -0.55 -4.45 -0.6 -4.3 M-3.8 -0.65 L-3.85 -0.45 -3.55 0.0 Q-3.45 0.2 -3.2 0.2 L-2.35 0.1 -2.2 0.05 -2.15 0.0 -2.1 -0.2 -3.4 -0.7 -3.6 -0.85 Q-3.75 -0.85 -3.8 -0.65 M-0.8 0.5 Q-0.8 0.25 -1.3 0.15 L-1.95 0.05 -1.95 0.1 -2.0 0.25 Q-2.0 0.5 -1.75 0.6 L-0.85 0.75 Q-0.8 0.6 -0.8 0.5 M-2.8 0.3 L-3.3 0.3 -3.3 0.4 -3.35 0.5 Q-3.35 0.75 -3.0 1.1 -2.75 1.45 -2.65 1.45 -2.35 0.9 -2.35 0.2 L-2.8 0.3" fill="#5d2222" fill-rule="evenodd" stroke="none"/>
    <path d="M1.7 -15.6 L1.8 -15.5 1.65 -15.35 1.4 -15.2 1.3 -15.35 1.7 -15.6 M-2.2 -15.25 L-2.25 -15.45 -2.15 -15.5 -0.65 -15.25 -0.6 -15.25 -0.85 -15.25 -1.15 -15.2 -2.2 -15.25 M0.45 -15.0 L0.5 -14.9 0.5 -14.9 0.45 -14.85 0.25 -14.8 -0.1 -14.8 -0.15 -14.85 Q0.3 -14.85 0.45 -15.0 M0.55 -14.9 L0.8 -15.05 1.15 -15.3 1.2 -15.25 1.15 -15.15 1.1 -15.1 1.1 -15.05 1.1 -15.05 0.9 -14.9 0.7 -14.85 0.65 -14.85 Q0.6 -14.85 0.55 -14.9 M-0.8 -14.95 L-0.5 -14.9 -0.2 -14.9 -0.2 -14.8 -0.35 -14.8 -0.5 -14.8 Q-0.8 -14.8 -0.8 -14.95" fill="#b65555" fill-rule="evenodd" stroke="none"/>
    <path d="M-0.45 -22.95 L-0.55 -22.45 -1.0 -19.95 -1.05 -19.9 -1.2 -18.85 -1.35 -18.0 -1.7 -15.85 -1.75 -15.8 -1.75 -15.75 Q-1.85 -15.65 -2.0 -15.55 L-2.15 -15.5 -2.25 -15.45 -2.2 -15.25 -2.1 -14.55 -1.9 -13.55 -1.65 -13.55 -1.4 -13.6 -1.4 -13.6 Q-1.3 -13.5 -1.3 -13.4 L-1.35 -13.3 -1.4 -13.3 Q-1.5 -13.2 -1.75 -12.95 L-1.85 -12.85 -1.85 -12.85 -2.4 -12.4 -2.4 -12.35 -2.35 -12.2 -2.3 -12.0 -2.3 -12.0 -2.3 -12.0 -1.95 -11.15 Q-1.65 -10.25 -1.5 -9.75 L-1.6 -9.75 -1.7 -9.7 Q-2.2 -9.55 -2.35 -9.45 L-2.45 -9.35 Q-2.55 -9.25 -2.55 -8.8 L-2.55 -8.25 -2.4 -7.85 -2.2 -7.4 Q-2.2 -7.25 -2.3 -7.1 -2.4 -6.8 -2.75 -6.55 L-2.95 -6.45 -3.0 -6.4 -3.25 -6.25 -3.3 -6.15 Q-3.3 -5.9 -2.9 -5.0 -2.55 -4.1 -2.5 -3.9 L-3.2 -3.9 -3.4 -3.85 -3.45 -3.65 -3.4 -3.25 -3.4 -3.15 -3.45 -2.85 -3.3 -2.3 -3.2 -1.9 -3.2 -1.6 -3.2 -1.5 -3.3 -1.45 -3.6 -1.55 Q-3.65 -1.55 -3.65 -1.5 L-3.7 -1.45 -3.65 -1.3 -3.65 -1.3 -3.6 -1.2 -3.8 -0.7 Q-3.95 -0.2 -4.0 0.1 L-4.1 0.7 -4.15 1.25 -4.15 1.35 Q-4.15 1.45 -3.3 2.0 -2.55 2.5 -1.85 2.85 L-1.25 3.2 -1.2 3.5 -0.75 3.55 -0.7 3.6 -0.7 3.6 -0.65 3.65 -0.6 3.65 -0.45 3.7 -0.4 3.7 -0.45 3.75 -0.65 4.4 -0.9 4.45 Q-1.25 4.55 -1.25 4.95 L-1.15 5.25 Q-1.0 5.5 -0.9 5.5 L-0.85 5.45 -0.65 5.55 Q-0.4 5.65 -0.4 5.7 L-0.5 5.85 -0.55 5.9 -0.65 6.05 -0.85 6.4 Q-0.55 7.25 -0.5 7.5 L-0.45 7.5 M0.6 -19.15 Q0.25 -20.95 -0.2 -22.45 L-0.4 -23.0 -0.4 -23.0 -0.45 -22.95 M0.7 -18.65 L0.7 -18.75 0.6 -19.15 M0.7 -18.65 L0.8 -18.3 1.2 -15.7 1.2 -15.7 1.3 -15.7 1.5 -15.8 1.6 -15.7 1.7 -15.6 1.8 -15.5 1.8 -15.45 1.75 -15.35 1.5 -14.6 Q1.25 -14.1 1.05 -13.9 L1.0 -13.8 1.05 -13.65 1.1 -13.5 Q1.25 -13.25 1.45 -13.05 L1.5 -13.0 1.95 -12.5 2.0 -12.5 1.95 -12.4 1.85 -12.1 1.85 -11.95 1.65 -11.4 1.35 -10.3 1.35 -10.2 1.3 -10.05 1.3 -10.0 1.25 -9.9 1.3 -9.85 1.3 -9.8 Q2.0 -9.4 2.0 -9.15 L2.0 -9.05 2.0 -8.75 1.85 -8.25 1.8 -8.0 1.6 -7.35 Q1.6 -7.2 1.9 -7.0 L2.05 -6.95 Q2.4 -6.8 2.45 -6.7 L2.45 -6.5 2.45 -6.4 2.4 -6.1 2.3 -5.45 2.0 -4.3 1.95 -4.2 2.0 -4.2 Q2.2 -4.2 2.4 -4.3 L2.8 -4.4 Q3.1 -4.4 3.1 -3.9 L3.1 -3.85 2.95 -3.35 Q2.75 -2.75 2.75 -2.45 L2.75 -2.2 2.7 -1.85 2.7 -1.8 2.75 -1.7 2.95 -1.8 Q3.0 -1.8 3.05 -1.6 L3.1 -1.5 3.15 -1.3 3.55 -1.0 Q3.55 -0.9 3.35 -0.7 L3.2 -0.5 3.2 -0.45 3.2 -0.45 3.35 0.1 Q3.55 0.8 3.55 1.45 L2.9 1.8 Q2.2 2.2 1.85 2.45 L1.65 2.55 1.7 2.6 1.7 2.7 1.65 2.8 1.4 3.1 1.35 2.8 1.0 3.1 1.0 3.15 0.75 3.45 Q0.6 3.6 0.45 3.55 L0.45 3.65 0.45 3.75 0.6 4.0 0.6 4.1 0.7 4.25 0.55 4.65 0.4 4.8 0.3 5.1 0.2 5.4 0.3 5.6 Q0.4 5.75 0.4 5.85 L0.35 6.1 0.4 6.15 0.4 6.2 0.35 6.7 0.3 7.2 0.35 7.3 0.45 7.35 0.35 7.5 Q0.25 7.6 0.25 7.65 L0.3 8.1 0.4 8.4 0.5 9.1 0.65 9.15 0.65 9.25 Q0.6 9.45 0.5 9.55 L0.05 9.85 0.35 9.8 0.65 9.75 Q0.85 9.8 0.85 9.9 L0.85 10.05 0.8 10.15 0.8 10.2 1.0 10.15 Q1.05 10.15 1.05 10.25 L1.0 10.55 1.0 10.65 0.6 11.0 0.55 11.05 0.45 11.15 Q-0.1 11.6 -0.35 11.6 L-0.4 11.6 -0.6 11.6 -0.9 11.5 Q-1.05 11.35 -1.05 10.95 L-1.0 10.95 -0.75 10.65 Q-0.45 10.4 -0.4 10.25 L-0.4 10.2 -0.4 10.15 -0.4 10.1 -0.9 10.05 -0.95 10.0 Q-1.05 9.95 -1.05 9.75 L-1.05 9.7 -0.85 9.35 -0.65 8.9 -0.6 8.4 -0.5 7.95 -0.55 7.85 -0.55 7.85 -0.65 7.7 -0.5 7.5" fill="none" stroke="#000000" stroke-linecap="round" stroke-linejoin="round" stroke-opacity="0.4509804" stroke-width="0.1"/>
  </g>
</svg>
