<?xml version="1.0" encoding="UTF-8" standalone="no"?>
<svg xmlns:xlink="http://www.w3.org/1999/xlink" height="4.4px" width="4.4px" xmlns="http://www.w3.org/2000/svg">
  <g transform="matrix(1.0, 0.0, 0.0, 1.0, 2.2, 2.2)">
    <path d="M-2.2 -1.35 L-2.2 -1.85 -2.05 -1.6 -2.0 -1.4 -2.2 -1.35" fill="#345b73" fill-rule="evenodd" stroke="none"/>
    <path d="M-2.2 -1.85 L-2.2 -2.2 -1.75 -2.2 -1.9 -2.1 Q-2.0 -2.05 -2.05 -1.95 L-2.05 -1.6 -2.2 -1.85" fill="#115380" fill-rule="evenodd" stroke="none"/>
    <path d="M-1.75 -2.2 L-1.65 -2.2 -1.45 -2.1 Q-1.35 -2.05 -1.35 -1.95 -1.5 -1.8 -1.55 -1.6 L-1.65 -1.5 -1.75 -1.35 -1.85 -1.35 -1.95 -1.35 -2.0 -1.4 -2.05 -1.6 -2.05 -1.95 Q-2.0 -2.05 -1.9 -2.1 L-1.75 -2.2" fill="#074067" fill-rule="evenodd" stroke="none"/>
    <path d="M-2.2 -0.95 L-2.2 -1.05 -2.15 -1.1 Q-2.05 -1.05 -1.95 -0.95 L-1.75 -0.75 Q-2.05 -0.8 -2.2 -0.95" fill="#1c3036" fill-rule="evenodd" stroke="none"/>
    <path d="M-2.2 -1.05 L-2.2 -1.35 -2.0 -1.4 -1.95 -1.35 -1.85 -1.2 -1.85 -1.1 -1.8 -0.95 -1.95 -1.1 -2.15 -1.1 -2.2 -1.05" fill="#3f484e" fill-rule="evenodd" stroke="none"/>
    <path d="M-2.2 -0.9 L-2.2 -0.95 Q-2.05 -0.8 -1.75 -0.75 L-1.65 -0.65 -1.85 -0.6 -2.05 -0.65 -2.1 -0.75 -2.2 -0.9" fill="#0d4d65" fill-rule="evenodd" stroke="none"/>
    <path d="M-2.2 -0.8 L-2.2 -0.9 -2.1 -0.75 -2.05 -0.65 -1.85 -0.6 -1.65 -0.65 -1.6 -0.55 Q-1.65 -0.45 -1.8 -0.5 L-2.05 -0.55 Q-2.1 -0.55 -2.1 -0.65 L-2.2 -0.8" fill="#1b5890" fill-rule="evenodd" stroke="none"/>
    <path d="M-2.2 -0.6 L-2.2 -0.8 -2.1 -0.65 Q-2.1 -0.55 -2.05 -0.55 L-1.8 -0.5 Q-1.65 -0.45 -1.6 -0.55 L-1.55 -0.55 -1.55 -0.35 -1.7 -0.4 -1.75 -0.4 -1.85 -0.45 -1.8 -0.45 -1.95 -0.45 -2.0 -0.45 Q-2.15 -0.5 -2.2 -0.6" fill="#2773b4" fill-rule="evenodd" stroke="none"/>
    <path d="M-2.2 0.55 L-2.2 -0.1 -2.15 -0.2 -2.1 -0.3 -2.0 -0.25 -1.9 -0.15 -1.75 -0.2 -1.7 -0.25 -1.5 -0.25 -1.45 -0.15 -1.5 -0.05 Q-1.55 0.0 -1.5 0.0 -1.45 0.0 -1.45 0.05 L-1.45 0.15 -1.6 0.2 -1.75 0.2 Q-1.8 0.2 -1.85 0.3 -1.85 0.35 -1.8 0.4 -1.75 0.45 -1.7 0.4 L-1.6 0.3 -1.5 0.3 -1.4 0.35 Q-1.4 0.4 -1.4 0.4 -1.4 0.45 -1.5 0.45 L-1.4 0.55 -1.25 0.5 -1.2 0.6 -1.25 0.65 -1.3 0.75 -1.2 0.75 Q-1.15 0.7 -1.15 0.75 -1.1 0.85 -1.15 0.9 L-1.25 0.9 -1.3 0.9 -1.35 0.95 -1.4 1.05 -1.45 1.1 -1.45 0.95 Q-1.45 0.9 -1.5 0.9 -1.5 0.8 -1.4 0.7 -1.4 0.6 -1.5 0.6 L-1.55 0.6 -1.8 0.45 Q-1.9 0.4 -1.95 0.3 L-1.8 0.2 -1.6 0.05 -1.7 -0.05 Q-1.7 -0.1 -1.6 -0.1 -1.6 -0.2 -1.65 -0.15 L-1.8 -0.1 -1.95 -0.15 Q-2.05 -0.2 -2.1 -0.2 -2.15 -0.1 -2.15 0.15 L-2.15 0.35 -2.2 0.55" fill="#228aca" fill-rule="evenodd" stroke="none"/>
    <path d="M-2.2 -0.1 L-2.2 -0.6 Q-2.15 -0.5 -2.0 -0.45 L-1.95 -0.45 -1.8 -0.45 -1.85 -0.45 -1.85 -0.45 -1.95 -0.45 -2.0 -0.35 -1.95 -0.25 -1.85 -0.2 Q-1.8 -0.2 -1.75 -0.25 L-1.7 -0.25 -1.75 -0.2 -1.9 -0.15 -2.0 -0.25 -2.1 -0.3 -2.15 -0.2 -2.2 -0.1" fill="#27adda" fill-rule="evenodd" stroke="none"/>
    <path d="M-0.4 -1.8 L-0.35 -1.95 -0.3 -2.05 Q-0.25 -2.1 -0.2 -2.0 L-0.15 -1.9 Q-0.1 -1.85 -0.05 -1.9 L0.05 -1.9 0.1 -1.8 0.1 -1.7 0.05 -1.6 -0.05 -1.65 Q0.0 -1.7 -0.1 -1.8 L-0.2 -1.85 -0.3 -1.8 -0.35 -1.65 -0.35 -1.75 -0.35 -1.8 -0.4 -1.8" fill="#20caec" fill-rule="evenodd" stroke="none"/>
    <path d="M2.2 -1.25 L2.2 -0.5 2.15 -0.35 2.1 -0.2 2.0 -0.2 Q1.95 -0.2 1.95 -0.25 L1.95 -0.4 Q1.9 -0.45 1.9 -0.55 L1.9 -0.75 1.85 -0.85 Q1.85 -1.0 1.75 -1.05 1.65 -1.1 1.55 -1.0 L1.4 -0.9 1.25 -1.0 1.4 -1.1 Q1.5 -1.2 1.5 -1.25 1.45 -1.3 1.4 -1.25 L1.3 -1.2 1.2 -1.35 1.3 -1.45 1.3 -1.55 1.2 -1.55 1.1 -1.45 0.95 -1.5 1.0 -1.6 1.0 -1.7 Q0.9 -1.7 0.85 -1.6 L0.75 -1.45 0.6 -1.5 0.7 -1.65 Q0.7 -1.75 0.65 -1.85 L0.55 -1.7 0.5 -1.5 0.5 -1.45 Q0.5 -1.6 0.35 -1.6 L0.4 -1.75 0.35 -1.9 Q0.3 -1.9 0.25 -1.8 L0.25 -1.65 0.1 -1.7 0.1 -1.8 0.05 -1.9 -0.05 -1.9 Q-0.1 -1.85 -0.15 -1.9 L-0.2 -2.0 Q-0.25 -2.1 -0.3 -2.05 L-0.35 -1.95 -0.4 -1.8 -0.4 -2.0 -0.45 -2.2 0.1 -2.2 Q0.0 -2.15 0.05 -2.05 0.1 -1.95 0.15 -1.9 0.2 -1.85 0.25 -1.9 L0.35 -1.95 0.4 -1.9 0.45 -1.8 Q0.5 -1.8 0.6 -1.85 L0.7 -1.9 0.75 -1.8 0.75 -1.7 Q0.8 -1.7 0.9 -1.75 L1.05 -1.8 1.15 -1.65 Q1.2 -1.6 1.25 -1.65 L1.35 -1.6 1.5 -1.65 Q1.6 -1.65 1.65 -1.55 1.7 -1.5 1.65 -1.35 1.6 -1.25 1.6 -1.2 1.65 -1.2 1.75 -1.15 L1.85 -1.1 1.95 -0.9 Q2.0 -0.8 2.05 -0.8 L2.1 -1.0 2.2 -1.25" fill="#25a1d9" fill-rule="evenodd" stroke="none"/>
    <path d="M-1.0 -2.2 L-0.45 -2.2 -0.4 -2.0 -0.4 -1.8 -0.35 -1.8 -0.4 -1.75 -0.45 -1.7 Q-0.45 -1.7 -0.5 -1.7 L-0.55 -1.8 Q-0.6 -1.85 -0.65 -1.8 -0.7 -1.75 -0.65 -1.65 L-0.65 -1.6 -0.7 -1.6 -0.8 -1.6 -0.85 -1.7 -0.95 -1.8 -1.05 -1.8 Q-1.2 -1.7 -1.25 -1.55 -1.25 -1.35 -1.1 -1.25 -1.2 -1.1 -1.3 -1.2 L-1.35 -1.1 Q-1.3 -1.0 -1.35 -0.95 L-1.5 -1.05 Q-1.45 -1.1 -1.45 -1.15 L-1.45 -1.25 -1.35 -1.25 -1.25 -1.3 Q-1.25 -1.35 -1.25 -1.4 L-1.35 -1.55 Q-1.35 -1.65 -1.25 -1.75 L-1.1 -1.9 -1.0 -1.9 -0.8 -1.8 Q-0.75 -1.8 -0.75 -1.9 -0.85 -1.9 -0.9 -2.0 L-1.0 -2.2 M-1.1 -1.25 L-1.1 -1.25" fill="#1b86bd" fill-rule="evenodd" stroke="none"/>
    <path d="M-1.25 -2.2 L-1.0 -2.2 -0.9 -2.0 Q-0.85 -1.9 -0.75 -1.9 -0.75 -1.8 -0.8 -1.8 L-1.0 -1.9 -1.1 -1.9 -1.25 -1.75 Q-1.35 -1.65 -1.35 -1.55 L-1.25 -1.4 Q-1.25 -1.35 -1.25 -1.3 L-1.35 -1.25 -1.45 -1.25 -1.45 -1.15 Q-1.45 -1.1 -1.5 -1.05 L-1.55 -1.1 -1.55 -1.15 -1.6 -1.3 -1.55 -1.35 -1.45 -1.4 -1.4 -1.45 -1.4 -1.7 -1.25 -1.85 -1.05 -2.0 Q-1.05 -2.05 -1.1 -2.1 L-1.25 -2.2 M-1.55 -1.15 L-1.55 -1.15 M-1.5 -1.05 L-1.5 -1.05" fill="#156da5" fill-rule="evenodd" stroke="none"/>
    <path d="M-0.35 -1.8 L-0.35 -1.75 -0.3 -1.6 -0.4 -1.55 -0.45 -1.5 -0.5 -1.55 -0.55 -1.55 -0.6 -1.5 -0.55 -1.45 -0.7 -1.4 -0.8 -1.55 -0.95 -1.6 -1.05 -1.55 -1.1 -1.45 -1.1 -1.25 Q-1.25 -1.35 -1.25 -1.55 -1.2 -1.7 -1.05 -1.8 L-0.95 -1.8 -0.85 -1.7 -0.8 -1.6 -0.7 -1.6 -0.65 -1.6 -0.65 -1.65 Q-0.7 -1.75 -0.65 -1.8 -0.6 -1.85 -0.55 -1.8 L-0.5 -1.7 Q-0.45 -1.7 -0.45 -1.7 L-0.4 -1.75 -0.35 -1.8 -0.35 -1.8" fill="#22a6d4" fill-rule="evenodd" stroke="none"/>
    <path d="M-0.95 -1.6 L-0.8 -1.55 -0.7 -1.4 -0.65 -1.25 -0.55 -1.15 -0.6 -1.1 -0.65 -1.05 -0.75 -1.25 -0.85 -1.4 -0.95 -1.55 -0.95 -1.6" fill="#2aeaf4" fill-rule="evenodd" stroke="none"/>
    <path d="M-0.95 -1.55 L-0.85 -1.4 -0.95 -1.35 Q-1.0 -1.35 -1.0 -1.4 L-1.0 -1.5 -0.95 -1.55" fill="#a5fdff" fill-rule="evenodd" stroke="none"/>
    <path d="M-0.95 -1.6 L-0.95 -1.55 -1.0 -1.5 -1.0 -1.4 Q-1.0 -1.35 -0.95 -1.35 L-0.85 -1.4 -0.75 -1.25 -0.65 -1.05 -0.6 -0.95 -0.45 -0.8 -0.55 -0.75 -0.8 -1.1 -0.95 -1.3 -1.1 -1.45 -1.05 -1.55 -0.95 -1.6" fill="#4ec1f6" fill-rule="evenodd" stroke="none"/>
    <path d="M-0.55 -1.15 L-0.65 -1.25 -0.7 -1.4 -0.55 -1.45 -0.45 -1.15 -0.35 -0.9 -0.4 -0.85 -0.5 -1.05 -0.5 -1.1 -0.55 -1.15" fill="#48bdf4" fill-rule="evenodd" stroke="none"/>
    <path d="M-0.55 -1.45 L-0.6 -1.5 -0.55 -1.55 -0.5 -1.55 -0.45 -1.5 -0.3 -0.95 -0.25 -0.85 Q-0.3 -0.8 -0.35 -0.9 L-0.45 -1.15 -0.55 -1.45" fill="#21dfee" fill-rule="evenodd" stroke="none"/>
    <path d="M0.0 -0.8 L-0.1 -0.8 -0.15 -0.85 -0.1 -0.9 -0.15 -1.35 -0.2 -1.85 -0.1 -1.8 Q0.0 -1.7 -0.05 -1.65 L-0.05 -1.25 0.0 -0.8" fill="#56dbfd" fill-rule="evenodd" stroke="none"/>
    <path d="M-0.15 -0.85 L-0.15 -0.9 -0.2 -1.0 -0.3 -1.6 -0.35 -1.65 -0.3 -1.8 -0.2 -1.85 -0.15 -1.35 -0.1 -0.9 -0.15 -0.85" fill="#23e9f6" fill-rule="evenodd" stroke="none"/>
    <path d="M-0.45 -1.5 L-0.4 -1.55 -0.3 -1.6 -0.2 -1.0 -0.3 -0.95 -0.45 -1.5" fill="#40b6f1" fill-rule="evenodd" stroke="none"/>
    <path d="M-1.65 -2.2 L-1.25 -2.2 -1.1 -2.1 Q-1.05 -2.05 -1.05 -2.0 L-1.25 -1.85 -1.4 -1.7 -1.4 -1.45 -1.45 -1.4 -1.55 -1.35 -1.6 -1.3 -1.55 -1.15 -1.65 -1.25 -1.75 -1.35 -1.65 -1.5 -1.55 -1.6 Q-1.5 -1.8 -1.35 -1.95 -1.35 -2.05 -1.45 -2.1 L-1.65 -2.2" fill="#0a5787" fill-rule="evenodd" stroke="none"/>
    <path d="M-1.95 -1.35 L-1.85 -1.35 -1.75 -1.35 -1.65 -1.25 -1.55 -1.15 -1.55 -1.15 Q-1.7 -1.2 -1.85 -1.2 L-1.95 -1.35" fill="#2f5373" fill-rule="evenodd" stroke="none"/>
    <path d="M-1.1 -1.25 L-1.1 -1.25 -1.1 -1.45 -0.95 -1.3 -0.8 -1.1 -0.9 -1.05 -0.95 -1.1 -1.1 -1.25" fill="#1dd1e4" fill-rule="evenodd" stroke="none"/>
    <path d="M-1.5 -1.05 L-1.35 -0.95 -1.3 -0.9 Q-1.4 -0.85 -1.35 -0.65 L-1.35 -0.55 Q-1.35 -0.45 -1.35 -0.4 L-1.35 -0.45 -1.4 -0.6 -1.45 -0.7 -1.5 -0.9 -1.5 -1.05 -1.5 -1.05" fill="#aba4a3" fill-rule="evenodd" stroke="none"/>
    <path d="M-1.35 -0.95 Q-1.3 -1.0 -1.35 -1.1 L-1.3 -1.2 Q-1.2 -1.1 -1.1 -1.25 L-0.95 -1.1 -1.1 -1.0 Q-1.15 -0.9 -1.25 -0.9 L-1.3 -0.9 -1.35 -0.95" fill="#2dadda" fill-rule="evenodd" stroke="none"/>
    <path d="M-1.35 -0.4 Q-1.35 -0.45 -1.35 -0.55 L-1.35 -0.65 Q-1.4 -0.85 -1.3 -0.9 L-1.25 -0.9 -1.2 -0.85 -1.2 -0.7 -1.15 -0.6 Q-1.2 -0.6 -1.15 -0.5 L-1.15 -0.35 Q-1.15 -0.3 -1.2 -0.3 L-1.3 -0.3 -1.3 -0.25 -1.25 -0.2 -1.3 -0.15 Q-1.4 -0.15 -1.35 -0.25 L-1.35 -0.4" fill="#d3c5c2" fill-rule="evenodd" stroke="none"/>
    <path d="M-1.15 -0.6 L-1.2 -0.7 -1.2 -0.85 -1.1 -0.85 -0.9 -0.75 -0.9 -0.65 -0.95 -0.6 Q-1.0 -0.5 -0.9 -0.45 L-1.1 -0.55 -1.15 -0.6" fill="#e6ddd9" fill-rule="evenodd" stroke="none"/>
    <path d="M-1.2 -0.85 L-1.25 -0.9 Q-1.15 -0.9 -1.1 -1.0 L-0.95 -1.1 -0.9 -1.05 -0.8 -0.95 -0.95 -0.9 -1.1 -0.85 -1.2 -0.85" fill="#5cc7ed" fill-rule="evenodd" stroke="none"/>
    <path d="M-1.55 -1.1 L-1.5 -1.05 -1.5 -0.9 -1.45 -0.7 Q-1.6 -0.8 -1.7 -1.0 -1.7 -1.1 -1.55 -1.1" fill="#90837c" fill-rule="evenodd" stroke="none"/>
    <path d="M-1.85 -1.1 L-1.85 -1.2 Q-1.7 -1.2 -1.55 -1.15 L-1.55 -1.1 Q-1.7 -1.1 -1.7 -1.0 L-1.85 -1.1" fill="#616a71" fill-rule="evenodd" stroke="none"/>
    <path d="M-1.8 -0.95 L-1.85 -1.1 -1.7 -1.0 Q-1.6 -0.8 -1.45 -0.7 L-1.4 -0.6 -1.35 -0.45 -1.45 -0.45 -1.5 -0.5 Q-1.4 -0.65 -1.55 -0.75 L-1.7 -0.85 -1.8 -0.95" fill="#79574d" fill-rule="evenodd" stroke="none"/>
    <path d="M-2.15 -1.1 L-1.95 -1.1 -1.8 -0.95 -1.7 -0.85 -1.55 -0.75 Q-1.4 -0.65 -1.5 -0.5 L-1.55 -0.55 -1.6 -0.55 -1.65 -0.65 -1.75 -0.75 -1.95 -0.95 Q-2.05 -1.05 -2.15 -1.1" fill="#3d2b25" fill-rule="evenodd" stroke="none"/>
    <path d="M-1.5 -0.5 L-1.45 -0.45 -1.5 -0.35 -1.55 -0.35 -1.55 -0.55 -1.5 -0.5" fill="#607db2" fill-rule="evenodd" stroke="none"/>
    <path d="M-1.85 -0.45 L-1.75 -0.4 -1.7 -0.4 -1.7 -0.25 -1.75 -0.25 -1.85 -0.35 Q-1.9 -0.35 -1.95 -0.25 L-2.0 -0.35 -1.95 -0.45 -1.85 -0.45 -1.85 -0.45" fill="#22edfa" fill-rule="evenodd" stroke="none"/>
    <path d="M-1.7 -0.4 L-1.55 -0.35 -1.5 -0.35 -1.5 -0.25 -1.7 -0.25 -1.7 -0.4" fill="#26b9c3" fill-rule="evenodd" stroke="none"/>
    <path d="M-1.8 2.2 L-2.2 2.2 -2.2 1.95 -2.05 2.1 -1.9 2.1 -1.75 2.05 -1.65 1.95 -1.6 1.65 -1.4 1.4 Q-1.4 1.35 -1.5 1.3 L-1.6 1.25 -1.6 1.15 -1.65 1.05 Q-1.75 0.9 -1.65 0.85 L-1.6 0.8 -1.6 0.75 -1.65 0.65 -1.7 0.65 Q-1.8 0.75 -1.85 0.55 -2.0 0.45 -2.1 0.45 L-2.15 0.65 -2.2 0.85 -2.2 0.55 -2.15 0.35 -2.15 0.15 Q-2.15 -0.1 -2.1 -0.2 -2.05 -0.2 -1.95 -0.15 L-1.8 -0.1 -1.65 -0.15 Q-1.6 -0.2 -1.6 -0.1 -1.7 -0.1 -1.7 -0.05 L-1.6 0.05 -1.8 0.2 -1.95 0.3 Q-1.9 0.4 -1.8 0.45 L-1.55 0.6 -1.5 0.6 Q-1.4 0.6 -1.4 0.7 -1.5 0.8 -1.5 0.9 -1.45 0.9 -1.45 0.95 L-1.45 1.1 -1.45 1.2 -1.4 1.25 -1.3 1.3 Q-1.25 1.35 -1.25 1.4 L-1.3 1.4 -1.35 1.45 -1.55 1.7 -1.55 1.95 -1.65 2.1 -1.8 2.2 M-1.45 1.1 L-1.45 1.1" fill="#116da9" fill-rule="evenodd" stroke="none"/>
    <path d="M-1.75 -0.25 Q-1.8 -0.2 -1.85 -0.2 L-1.95 -0.25 Q-1.9 -0.35 -1.85 -0.35 L-1.75 -0.25" fill="#60f4ff" fill-rule="evenodd" stroke="none"/>
    <path d="M-1.15 -0.35 L-1.15 -0.5 Q-1.2 -0.6 -1.15 -0.6 L-1.1 -0.55 -1.05 -0.35 -1.15 -0.35" fill="#bd8e89" fill-rule="evenodd" stroke="none"/>
    <path d="M-1.25 -0.2 L-1.3 -0.25 -1.3 -0.3 -1.2 -0.3 Q-1.15 -0.3 -1.15 -0.35 L-1.05 -0.35 -0.9 -0.2 -0.9 -0.15 -0.95 -0.05 Q-0.95 0.0 -0.9 0.05 L-0.85 0.05 -0.8 0.05 -0.8 0.15 -0.9 0.2 -0.95 0.1 Q-1.0 0.0 -1.05 0.05 L-1.15 0.0 Q-1.1 -0.05 -1.15 -0.1 L-1.25 -0.2" fill="#f9fcfc" fill-rule="evenodd" stroke="none"/>
    <path d="M-1.1 -0.55 L-0.9 -0.45 -0.85 -0.5 -0.75 -0.55 -0.7 -0.5 -0.75 -0.5 Q-0.85 -0.5 -0.85 -0.4 L-0.85 -0.35 -0.9 -0.25 -0.9 -0.2 -1.05 -0.35 -1.1 -0.55" fill="#edbbae" fill-rule="evenodd" stroke="none"/>
    <path d="M-1.35 -0.4 L-1.35 -0.25 Q-1.4 -0.15 -1.3 -0.15 L-1.25 -0.1 -1.3 -0.05 -1.35 0.0 -1.4 -0.05 -1.45 -0.15 -1.5 -0.25 -1.5 -0.35 -1.45 -0.45 -1.35 -0.45 -1.35 -0.4" fill="#7cb4cd" fill-rule="evenodd" stroke="none"/>
    <path d="M-1.45 -0.15 L-1.4 -0.05 -1.35 0.0 -1.3 0.05 -1.3 0.15 -1.45 0.2 Q-1.5 0.2 -1.5 0.3 L-1.4 0.3 Q-1.35 0.35 -1.25 0.35 -1.15 0.3 -1.1 0.35 L-1.2 0.35 Q-1.3 0.4 -1.25 0.45 L-1.1 0.4 -0.95 0.35 -0.9 0.45 -1.1 0.55 Q-1.1 0.65 -1.05 0.6 L-0.9 0.55 -0.85 0.65 -1.0 0.75 -1.1 0.9 -1.1 0.9 -1.15 0.9 Q-1.1 0.85 -1.15 0.75 -1.15 0.7 -1.2 0.75 L-1.3 0.75 -1.25 0.65 -1.2 0.6 -1.25 0.5 -1.4 0.55 -1.5 0.45 Q-1.4 0.45 -1.4 0.4 -1.4 0.4 -1.4 0.35 L-1.5 0.3 -1.6 0.3 -1.7 0.4 Q-1.75 0.45 -1.8 0.4 L-1.6 0.3 -1.65 0.25 -1.75 0.2 -1.6 0.2 -1.45 0.15 -1.45 0.05 Q-1.45 0.0 -1.5 0.0 -1.55 0.0 -1.5 -0.05 L-1.45 -0.15" fill="#2db4e4" fill-rule="evenodd" stroke="none"/>
    <path d="M-1.3 -0.15 L-1.25 -0.2 -1.15 -0.1 Q-1.1 -0.05 -1.15 0.0 -1.1 -0.05 -1.15 -0.05 L-1.25 -0.1 -1.3 -0.15" fill="#b8e9f4" fill-rule="evenodd" stroke="none"/>
    <path d="M-1.3 0.15 L-1.3 0.05 -1.35 0.0 -1.3 -0.05 -1.25 -0.1 -1.15 -0.05 Q-1.1 -0.05 -1.15 0.0 L-1.2 0.15 -1.3 0.15" fill="#67dff6" fill-rule="evenodd" stroke="none"/>
    <path d="M-0.15 -0.9 Q-0.2 -0.85 -0.25 -0.8 L-0.4 -0.7 -0.5 -0.65 -0.7 -0.65 -0.7 -0.8 -0.7 -0.8 -0.55 -0.65 Q-0.5 -0.65 -0.5 -0.7 L-0.55 -0.75 -0.45 -0.8 -0.4 -0.7 -0.4 -0.85 -0.35 -0.9 Q-0.3 -0.8 -0.25 -0.85 L-0.3 -0.95 -0.2 -1.0 -0.15 -0.9" fill="#70d8fc" fill-rule="evenodd" stroke="none"/>
    <path d="M-0.45 -0.8 L-0.6 -0.95 -0.5 -1.05 -0.4 -0.85 -0.4 -0.7 -0.45 -0.8" fill="#37f5fd" fill-rule="evenodd" stroke="none"/>
    <path d="M0.0 -0.75 L-0.2 -0.7 Q-0.3 -0.65 -0.3 -0.55 -0.25 -0.5 -0.3 -0.5 -0.35 -0.55 -0.4 -0.55 L-0.5 -0.65 -0.4 -0.7 -0.25 -0.8 Q-0.2 -0.85 -0.15 -0.9 L-0.15 -0.85 -0.1 -0.8 0.0 -0.8 0.0 -0.75" fill="#98f1ff" fill-rule="evenodd" stroke="none"/>
    <path d="M-0.65 -1.05 L-0.6 -1.1 -0.55 -1.15 -0.5 -1.1 -0.5 -1.05 -0.6 -0.95 -0.65 -1.05" fill="#abfeff" fill-rule="evenodd" stroke="none"/>
    <path d="M-0.8 -1.1 L-0.55 -0.75 -0.5 -0.7 Q-0.5 -0.65 -0.55 -0.65 L-0.7 -0.8 -0.75 -0.9 -0.8 -0.95 -0.9 -1.05 -0.8 -1.1" fill="#38f1f9" fill-rule="evenodd" stroke="none"/>
    <path d="M-0.9 -0.75 L-1.1 -0.85 -0.95 -0.9 -0.8 -0.95 -0.75 -0.9 -0.85 -0.85 -0.8 -0.8 -0.75 -0.75 -0.7 -0.8 -0.7 -0.65 Q-0.8 -0.75 -0.9 -0.75 M-0.7 -0.65 L-0.7 -0.65" fill="#92eaf9" fill-rule="evenodd" stroke="none"/>
    <path d="M0.85 -0.35 L0.75 -0.35 Q0.75 -0.4 0.8 -0.4 L0.9 -0.35 0.85 -0.35 M-0.7 -0.8 L-0.75 -0.75 -0.8 -0.8 -0.85 -0.85 -0.75 -0.9 -0.7 -0.8 -0.7 -0.8" fill="#ecffff" fill-rule="evenodd" stroke="none"/>
    <path d="M-0.75 -0.55 L-0.85 -0.5 -0.9 -0.45 Q-1.0 -0.5 -0.95 -0.6 L-0.9 -0.65 -0.9 -0.75 Q-0.8 -0.75 -0.7 -0.65 L-0.75 -0.55" fill="#fcfefd" fill-rule="evenodd" stroke="none"/>
    <path d="M-0.4 -0.55 L-0.35 -0.45 -0.4 -0.45 -0.5 -0.45 -0.45 -0.25 -0.45 -0.05 -0.45 0.0 Q-0.5 -0.15 -0.6 -0.2 L-0.6 -0.25 -0.65 -0.35 Q-0.65 -0.45 -0.7 -0.5 L-0.75 -0.55 -0.7 -0.65 -0.5 -0.65 -0.4 -0.55 M-0.7 -0.65 L-0.7 -0.65" fill="#f4e5e8" fill-rule="evenodd" stroke="none"/>
    <path d="M-0.75 -0.5 L-0.7 -0.5 Q-0.65 -0.45 -0.65 -0.35 L-0.6 -0.25 -0.7 -0.25 Q-0.7 -0.3 -0.75 -0.35 L-0.8 -0.45 -0.75 -0.45 -0.75 -0.5" fill="#cd9ea0" fill-rule="evenodd" stroke="none"/>
    <path d="M-0.9 -0.25 L-0.85 -0.35 -0.85 -0.4 Q-0.85 -0.5 -0.75 -0.5 L-0.75 -0.45 -0.8 -0.45 -0.75 -0.35 Q-0.7 -0.3 -0.7 -0.25 L-0.8 -0.25 -0.9 -0.25" fill="#ab6e6c" fill-rule="evenodd" stroke="none"/>
    <path d="M-0.9 -0.2 L-0.9 -0.25 -0.8 -0.25 -0.7 -0.25 -0.6 -0.25 -0.6 -0.2 -0.9 -0.15 -0.9 -0.2" fill="#9cd9f9" fill-rule="evenodd" stroke="none"/>
    <path d="M-0.15 0.0 Q-0.25 0.05 -0.25 0.15 L-0.2 0.3 -0.25 0.4 -0.3 0.5 -0.35 0.4 -0.3 0.35 -0.35 0.35 -0.45 0.25 Q-0.5 0.2 -0.55 0.2 L-0.7 0.2 -1.0 0.25 -1.0 0.15 -1.05 0.15 Q-1.0 0.05 -1.05 0.05 -1.0 0.0 -0.95 0.1 L-0.9 0.2 -0.8 0.15 -0.8 0.05 -0.85 0.05 -0.9 0.05 Q-0.95 0.0 -0.95 -0.05 L-0.9 -0.15 -0.6 -0.2 Q-0.6 -0.15 -0.7 -0.15 L-0.8 -0.05 -0.75 -0.05 -0.7 0.0 -0.6 0.1 Q-0.5 0.15 -0.5 0.1 L-0.45 0.0 -0.45 -0.05 -0.35 -0.05 -0.25 -0.1 -0.3 0.0 -0.15 0.0" fill="#bbfeff" fill-rule="evenodd" stroke="none"/>
    <path d="M-0.6 -0.2 Q-0.5 -0.15 -0.45 0.0 L-0.5 0.1 Q-0.5 0.15 -0.6 0.1 L-0.7 0.0 -0.75 -0.05 -0.8 -0.05 -0.7 -0.15 Q-0.6 -0.15 -0.6 -0.2" fill="#fdfdfe" fill-rule="evenodd" stroke="none"/>
    <path d="M-0.1 -0.35 Q-0.15 -0.35 -0.2 -0.45 -0.2 -0.5 -0.1 -0.5 -0.1 -0.6 0.0 -0.65 L0.0 -0.55 0.1 -0.55 Q0.05 -0.5 0.05 -0.45 L0.15 -0.3 0.05 -0.35 -0.1 -0.35" fill="#b5feff" fill-rule="evenodd" stroke="none"/>
    <path d="M0.0 -0.75 L0.0 -0.65 Q-0.1 -0.6 -0.1 -0.5 -0.2 -0.5 -0.2 -0.45 -0.15 -0.35 -0.1 -0.35 L-0.25 -0.35 -0.3 -0.35 -0.35 -0.45 -0.4 -0.55 Q-0.35 -0.55 -0.3 -0.5 -0.25 -0.5 -0.3 -0.55 -0.3 -0.65 -0.2 -0.7 L0.0 -0.75 M-0.1 -0.35 L-0.1 -0.35" fill="#f6fdfe" fill-rule="evenodd" stroke="none"/>
    <path d="M-0.1 -0.35 L-0.1 -0.35 0.05 -0.35 0.15 -0.3 0.2 -0.25 0.3 -0.1 Q0.3 -0.05 0.2 0.0 L0.1 0.1 Q0.0 0.15 -0.05 0.2 L-0.05 0.25 0.05 0.3 0.15 0.3 0.3 0.3 Q0.45 0.3 0.5 0.35 L0.55 0.4 0.55 0.45 0.45 0.45 Q0.4 0.4 0.35 0.4 L0.35 0.5 0.3 0.45 0.35 0.55 0.4 0.7 0.4 0.6 0.45 0.5 0.65 0.75 Q0.55 0.75 0.55 0.8 0.55 0.9 0.6 0.9 L0.7 0.85 0.8 0.95 0.45 0.95 Q0.3 0.95 0.3 0.8 L0.25 0.6 0.2 0.55 0.15 0.5 Q0.1 0.5 0.05 0.55 L0.05 0.65 0.05 0.7 0.0 0.55 Q0.05 0.45 0.1 0.45 0.05 0.35 0.0 0.35 -0.1 0.35 -0.1 0.45 L-0.2 0.45 -0.3 0.5 -0.25 0.4 -0.2 0.3 -0.25 0.15 Q-0.25 0.05 -0.15 0.0 L-0.15 0.1 -0.1 0.15 -0.05 0.1 Q-0.05 0.0 0.0 0.05 L0.15 0.0 0.25 -0.15 Q0.25 -0.2 0.15 -0.25 L0.05 -0.3 -0.05 -0.3 -0.1 -0.3 -0.1 -0.35 M-0.15 0.0 L-0.15 0.0 M0.5 0.7 L0.45 0.65 0.45 0.7 0.55 0.75 0.5 0.7" fill="#78f0fe" fill-rule="evenodd" stroke="none"/>
    <path d="M-0.25 -0.35 L-0.1 -0.35 -0.1 -0.3 -0.2 -0.3 -0.25 -0.35" fill="#dac4ee" fill-rule="evenodd" stroke="none"/>
    <path d="M-0.1 -0.3 L-0.05 -0.3 0.05 -0.3 0.15 -0.25 Q0.25 -0.2 0.25 -0.15 L0.15 0.0 0.0 0.05 Q-0.05 0.0 -0.05 0.1 L-0.1 0.15 -0.15 0.1 -0.15 0.0 -0.1 -0.1 -0.2 -0.15 Q-0.25 -0.25 -0.2 -0.3 L-0.1 -0.3" fill="#5ad5ff" fill-rule="evenodd" stroke="none"/>
    <path d="M-0.35 -0.45 L-0.3 -0.35 Q-0.4 -0.4 -0.4 -0.45 L-0.35 -0.45" fill="#c7c8e7" fill-rule="evenodd" stroke="none"/>
    <path d="M-0.3 -0.35 L-0.25 -0.35 -0.2 -0.3 Q-0.25 -0.25 -0.2 -0.15 L-0.2 -0.15 -0.25 -0.1 -0.35 -0.05 -0.45 -0.05 -0.45 -0.25 -0.5 -0.45 -0.4 -0.45 Q-0.4 -0.4 -0.3 -0.35 M-0.4 -0.25 Q-0.4 -0.2 -0.35 -0.2 -0.3 -0.25 -0.3 -0.3 -0.35 -0.35 -0.4 -0.3 L-0.4 -0.25" fill="#93e9fd" fill-rule="evenodd" stroke="none"/>
    <path d="M1.35 -0.25 L1.4 -0.25 1.4 -0.25 1.45 -0.3 1.55 -0.25 1.55 -0.05 1.4 -0.1 Q1.3 -0.1 1.35 -0.2 L1.35 -0.2 1.35 -0.25 M-0.4 -0.25 L-0.4 -0.3 Q-0.35 -0.35 -0.3 -0.3 -0.3 -0.25 -0.35 -0.2 -0.4 -0.2 -0.4 -0.25" fill="#eaffff" fill-rule="evenodd" stroke="none"/>
    <path d="M-0.15 0.0 L-0.15 0.0 -0.3 0.0 -0.25 -0.1 -0.2 -0.15 -0.2 -0.15 -0.1 -0.1 -0.15 0.0" fill="#f5ffff" fill-rule="evenodd" stroke="none"/>
    <path d="M0.05 -1.6 L0.05 -1.45 0.05 -0.8 0.0 -0.75 0.0 -0.8 -0.05 -1.25 -0.05 -1.65 0.05 -1.6" fill="#35fcfe" fill-rule="evenodd" stroke="none"/>
    <path d="M1.55 -2.2 L2.0 -2.2 2.05 -2.1 2.1 -2.05 2.05 -1.7 2.0 -1.4 2.0 -1.35 1.95 -1.3 Q1.9 -1.35 1.85 -1.45 L1.85 -1.7 1.6 -1.85 1.45 -1.85 Q1.35 -1.85 1.3 -1.9 1.2 -2.0 1.35 -2.05 L1.45 -2.1 1.55 -2.2" fill="#095b9b" fill-rule="evenodd" stroke="none"/>
    <path d="M1.55 -2.2 L1.45 -2.1 1.35 -2.05 Q1.2 -2.0 1.3 -1.9 1.35 -1.85 1.45 -1.85 L1.6 -1.85 1.85 -1.7 1.85 -1.45 Q1.9 -1.35 1.95 -1.3 L2.0 -1.35 2.0 -1.4 2.05 -1.7 2.1 -2.05 2.05 -2.1 2.0 -2.2 2.2 -2.2 2.2 -1.9 Q2.1 -1.8 2.1 -1.5 2.1 -1.2 2.0 -1.1 L1.8 -1.25 Q1.75 -1.3 1.75 -1.4 L1.75 -1.55 Q1.75 -1.7 1.55 -1.75 L1.25 -1.75 1.1 -1.9 0.85 -1.9 Q0.8 -2.0 0.85 -2.05 L0.95 -2.2 1.55 -2.2" fill="#106fad" fill-rule="evenodd" stroke="none"/>
    <path d="M2.2 -1.9 L2.2 -1.25 2.1 -1.0 2.05 -0.8 Q2.0 -0.8 1.95 -0.9 L1.85 -1.1 1.75 -1.15 Q1.65 -1.2 1.6 -1.2 1.6 -1.25 1.65 -1.35 1.7 -1.5 1.65 -1.55 1.6 -1.65 1.5 -1.65 L1.35 -1.6 1.25 -1.65 Q1.2 -1.6 1.15 -1.65 L1.05 -1.8 0.9 -1.75 Q0.8 -1.7 0.75 -1.7 L0.75 -1.8 0.7 -1.9 0.6 -1.85 Q0.5 -1.8 0.45 -1.8 L0.4 -1.9 0.35 -1.95 0.25 -1.9 Q0.2 -1.85 0.15 -1.9 0.1 -1.95 0.05 -2.05 0.0 -2.15 0.1 -2.2 L0.95 -2.2 0.85 -2.05 Q0.8 -2.0 0.85 -1.9 L1.1 -1.9 1.25 -1.75 1.55 -1.75 Q1.75 -1.7 1.75 -1.55 L1.75 -1.4 Q1.75 -1.3 1.8 -1.25 L2.0 -1.1 Q2.1 -1.2 2.1 -1.5 2.1 -1.8 2.2 -1.9" fill="#1886c1" fill-rule="evenodd" stroke="none"/>
    <path d="M1.2 -1.35 L1.2 -1.35 1.1 -1.4 1.1 -1.45 1.2 -1.55 1.3 -1.55 1.3 -1.45 1.2 -1.35" fill="#1ccae3" fill-rule="evenodd" stroke="none"/>
    <path d="M1.1 -1.45 L1.1 -1.4 1.05 -1.4 1.0 -1.35 1.0 -1.3 0.8 -1.05 0.6 -0.8 0.5 -0.85 0.65 -1.05 0.8 -1.3 0.95 -1.5 1.1 -1.45" fill="#43baf5" fill-rule="evenodd" stroke="none"/>
    <path d="M1.1 -1.4 L1.2 -1.35 1.0 -1.15 0.95 -1.1 0.9 -1.0 0.75 -0.85 0.55 -0.65 0.5 -0.6 0.5 -0.6 0.6 -0.8 0.8 -1.05 1.0 -1.3 1.1 -1.3 1.05 -1.4 1.1 -1.4" fill="#2bf7fd" fill-rule="evenodd" stroke="none"/>
    <path d="M1.05 -1.4 L1.1 -1.3 1.0 -1.3 1.0 -1.35 1.05 -1.4" fill="#a3fbff" fill-rule="evenodd" stroke="none"/>
    <path d="M1.2 -1.35 L1.2 -1.35 1.3 -1.2 1.2 -1.1 0.9 -0.8 0.6 -0.55 0.55 -0.65 0.75 -0.85 0.9 -1.0 1.05 -1.0 1.0 -1.15 1.2 -1.35" fill="#47c3f8" fill-rule="evenodd" stroke="none"/>
    <path d="M1.2 -1.1 L1.3 -1.2 1.4 -1.25 Q1.45 -1.3 1.5 -1.25 1.5 -1.2 1.4 -1.1 L1.25 -1.0 1.2 -1.1 M1.25 -1.0 L1.25 -1.0" fill="#1bcce2" fill-rule="evenodd" stroke="none"/>
    <path d="M0.35 -1.6 L0.35 -1.6 0.25 -1.6 0.25 -1.65 0.25 -1.8 Q0.3 -1.9 0.35 -1.9 L0.4 -1.75 0.35 -1.6" fill="#18c4dc" fill-rule="evenodd" stroke="none"/>
    <path d="M0.35 -1.6 L0.35 -1.6 Q0.5 -1.6 0.5 -1.45 L0.4 -1.3 0.4 -1.1 0.45 -1.15 0.5 -1.2 0.6 -1.1 0.35 -0.65 0.4 -0.65 0.35 -0.6 0.35 -0.6 0.25 -0.65 Q0.2 -0.7 0.15 -0.65 L0.1 -0.6 0.1 -0.7 Q0.15 -0.7 0.2 -0.8 L0.2 -0.95 0.25 -1.0 0.3 -1.05 0.4 -1.0 Q0.45 -0.95 0.5 -1.0 0.5 -1.1 0.4 -1.1 L0.3 -1.1 0.25 -1.2 0.35 -1.6 M0.2 -0.9 L0.25 -0.8 Q0.25 -0.8 0.3 -0.8 0.3 -0.8 0.3 -0.85 L0.2 -0.9" fill="#5fe3fd" fill-rule="evenodd" stroke="none"/>
    <path d="M0.25 -1.65 L0.25 -1.6 0.2 -1.5 0.2 -1.35 0.05 -1.45 0.05 -1.6 0.1 -1.7 0.25 -1.65" fill="#47c6f2" fill-rule="evenodd" stroke="none"/>
    <path d="M0.35 -1.6 L0.25 -1.2 Q0.2 -1.2 0.2 -1.25 L0.2 -1.35 0.2 -1.5 0.25 -1.6 0.35 -1.6 M0.25 -1.2 L0.25 -1.2" fill="#2bebf6" fill-rule="evenodd" stroke="none"/>
    <path d="M0.05 -1.45 L0.2 -1.35 0.2 -1.25 Q0.2 -1.2 0.25 -1.2 L0.15 -1.15 Q0.15 -1.1 0.2 -1.05 L0.15 -0.95 0.15 -0.85 0.05 -0.8 0.05 -1.45" fill="#6bebfe" fill-rule="evenodd" stroke="none"/>
    <path d="M0.5 -1.2 L0.45 -1.15 0.4 -1.1 0.4 -1.3 0.5 -1.45 0.5 -1.5 0.6 -1.45 0.5 -1.2" fill="#27ecf6" fill-rule="evenodd" stroke="none"/>
    <path d="M0.75 -1.45 L0.85 -1.6 Q0.9 -1.7 1.0 -1.7 L1.0 -1.6 0.95 -1.5 0.8 -1.3 0.7 -1.35 0.75 -1.45" fill="#1acce1" fill-rule="evenodd" stroke="none"/>
    <path d="M0.5 -1.5 L0.55 -1.7 0.65 -1.85 Q0.7 -1.75 0.7 -1.65 L0.6 -1.5 0.6 -1.45 0.5 -1.5" fill="#19c6dd" fill-rule="evenodd" stroke="none"/>
    <path d="M0.6 -1.1 L0.5 -1.2 0.6 -1.45 0.6 -1.5 0.75 -1.45 0.7 -1.35 0.6 -1.1" fill="#44bef3" fill-rule="evenodd" stroke="none"/>
    <path d="M0.4 -0.65 L0.35 -0.65 0.6 -1.1 0.7 -1.35 0.8 -1.3 0.65 -1.05 0.5 -0.85 0.5 -0.8 0.45 -0.75 0.4 -0.65" fill="#23eff9" fill-rule="evenodd" stroke="none"/>
    <path d="M1.0 -1.15 L1.05 -1.0 0.9 -1.0 0.95 -1.1 1.0 -1.15" fill="#a4fcff" fill-rule="evenodd" stroke="none"/>
    <path d="M0.6 -0.8 L0.5 -0.6 0.4 -0.65 0.45 -0.75 0.45 -0.7 0.5 -0.75 0.5 -0.8 0.5 -0.85 0.6 -0.8" fill="#5ae5ff" fill-rule="evenodd" stroke="none"/>
    <path d="M0.6 -0.55 L0.9 -0.8 1.2 -1.1 1.25 -1.0 1.0 -0.8 0.8 -0.65 0.6 -0.5 0.55 -0.45 0.55 -0.45 0.6 -0.55" fill="#21eef9" fill-rule="evenodd" stroke="none"/>
    <path d="M1.25 -1.0 L1.4 -0.9 1.15 -0.75 0.9 -0.6 0.8 -0.65 1.0 -0.8 1.25 -1.0 1.25 -1.0" fill="#48c0f7" fill-rule="evenodd" stroke="none"/>
    <path d="M0.25 -1.2 L0.3 -1.1 0.4 -1.1 Q0.5 -1.1 0.5 -1.0 0.45 -0.95 0.4 -1.0 L0.3 -1.05 0.25 -1.0 0.2 -0.95 0.2 -1.05 Q0.15 -1.1 0.15 -1.15 L0.25 -1.2 0.25 -1.2" fill="#cefeff" fill-rule="evenodd" stroke="none"/>
    <path d="M0.2 -0.95 L0.2 -0.8 Q0.15 -0.7 0.1 -0.7 L0.15 -0.85 0.15 -0.95 0.2 -1.05 0.2 -0.95" fill="#30fcff" fill-rule="evenodd" stroke="none"/>
    <path d="M0.2 -0.9 L0.3 -0.85 Q0.3 -0.8 0.3 -0.8 0.25 -0.8 0.25 -0.8 L0.2 -0.9" fill="#dcffff" fill-rule="evenodd" stroke="none"/>
    <path d="M0.55 -0.65 L0.6 -0.55 0.55 -0.45 0.5 -0.55 0.35 -0.55 0.2 -0.55 0.1 -0.55 0.0 -0.55 0.0 -0.65 0.0 -0.75 0.05 -0.8 0.15 -0.85 0.1 -0.7 0.1 -0.6 0.15 -0.65 Q0.2 -0.7 0.25 -0.65 L0.35 -0.6 0.35 -0.6 0.4 -0.65 0.5 -0.6 0.5 -0.6 0.55 -0.65" fill="#8bf6ff" fill-rule="evenodd" stroke="none"/>
    <path d="M0.5 -0.8 L0.5 -0.75 0.45 -0.7 0.45 -0.75 0.5 -0.8" fill="#d6ffff" fill-rule="evenodd" stroke="none"/>
    <path d="M0.2 -0.55 L0.35 -0.55 0.5 -0.55 0.55 -0.45 0.55 -0.45 0.6 -0.5 0.65 -0.4 0.6 -0.4 0.45 -0.3 0.5 -0.1 0.7 -0.15 Q0.8 -0.15 0.8 -0.05 L0.75 -0.05 Q0.7 -0.05 0.7 0.05 0.7 0.1 0.75 0.1 L0.85 0.15 0.9 0.25 Q0.85 0.25 0.85 0.3 L0.9 0.35 0.95 0.35 0.85 0.4 0.75 0.4 Q0.85 0.35 0.75 0.25 L0.7 0.1 0.5 0.1 0.55 0.2 0.6 0.3 Q0.5 0.3 0.5 0.35 0.45 0.3 0.3 0.3 L0.15 0.3 0.05 0.3 0.15 0.25 0.2 0.2 0.3 0.25 0.4 0.25 Q0.45 0.15 0.4 0.05 L0.2 0.0 Q0.3 -0.05 0.3 -0.1 L0.2 -0.25 0.3 -0.15 0.4 -0.15 Q0.45 -0.2 0.4 -0.3 L0.35 -0.35 0.35 -0.45 0.25 -0.5 Q0.2 -0.5 0.2 -0.55" fill="#a8fdff" fill-rule="evenodd" stroke="none"/>
    <path d="M0.1 -0.55 L0.2 -0.55 Q0.2 -0.5 0.25 -0.5 L0.35 -0.45 0.35 -0.35 0.4 -0.3 Q0.45 -0.2 0.4 -0.15 L0.3 -0.15 0.2 -0.25 0.15 -0.3 0.05 -0.45 Q0.05 -0.5 0.1 -0.55" fill="#fbffff" fill-rule="evenodd" stroke="none"/>
    <path d="M0.9 -0.35 L1.15 -0.5 1.45 -0.6 1.65 -0.7 1.75 -0.7 1.8 -0.6 1.5 -0.5 1.25 -0.4 1.05 -0.35 0.9 -0.3 0.85 -0.35 0.9 -0.35 M0.85 -0.15 L0.75 -0.15 0.85 -0.2 1.3 -0.3 1.35 -0.3 1.35 -0.2 1.35 -0.25 1.35 -0.2 1.35 -0.2 1.3 -0.2 0.85 -0.15" fill="#28f7fe" fill-rule="evenodd" stroke="none"/>
    <path d="M0.8 -0.05 Q0.8 -0.15 0.7 -0.15 L0.5 -0.1 0.45 -0.3 0.6 -0.4 Q0.7 -0.4 0.85 -0.45 L1.1 -0.6 1.15 -0.5 0.9 -0.35 0.8 -0.4 Q0.75 -0.4 0.75 -0.35 L0.85 -0.35 0.9 -0.3 0.85 -0.2 0.75 -0.15 0.85 -0.15 0.85 -0.05 0.8 -0.05" fill="#6ff6ff" fill-rule="evenodd" stroke="none"/>
    <path d="M0.65 -0.4 L0.6 -0.5 0.8 -0.65 0.9 -0.6 0.65 -0.4" fill="#6af1ff" fill-rule="evenodd" stroke="none"/>
    <path d="M1.4 -0.9 L1.55 -1.0 1.65 -0.95 1.6 -0.85 1.5 -0.8 1.45 -0.75 1.25 -0.7 1.1 -0.6 0.85 -0.45 Q0.7 -0.4 0.6 -0.4 L0.65 -0.4 0.9 -0.6 1.15 -0.75 1.4 -0.9" fill="#26f2fb" fill-rule="evenodd" stroke="none"/>
    <path d="M1.3 -0.05 L0.85 -0.05 0.85 -0.15 1.3 -0.2 1.3 -0.05" fill="#49c6fd" fill-rule="evenodd" stroke="none"/>
    <path d="M0.75 -0.05 L0.8 -0.05 0.85 -0.05 1.3 -0.05 1.35 -0.05 1.3 0.0 1.05 0.0 0.8 0.0 0.75 -0.05" fill="#28f5fe" fill-rule="evenodd" stroke="none"/>
    <path d="M0.75 0.1 Q0.7 0.1 0.7 0.05 0.7 -0.05 0.75 -0.05 L0.8 0.0 0.75 0.1 M-0.75 0.95 Q-0.65 0.95 -0.65 1.0 L-0.65 1.15 -0.8 1.15 Q-0.9 1.15 -0.85 1.05 L-0.75 0.95" fill="#f8ffff" fill-rule="evenodd" stroke="none"/>
    <path d="M0.9 -0.3 L1.05 -0.35 1.25 -0.4 1.3 -0.3 0.85 -0.2 0.9 -0.3" fill="#4ccdfe" fill-rule="evenodd" stroke="none"/>
    <path d="M1.55 -1.0 Q1.65 -1.1 1.75 -1.05 1.85 -1.0 1.85 -0.85 L1.9 -0.75 1.9 -0.55 Q1.9 -0.45 1.95 -0.4 L1.95 -0.25 1.8 -0.3 1.8 -0.6 1.75 -0.7 1.65 -0.7 1.6 -0.85 1.65 -0.95 1.55 -1.0" fill="#29c7eb" fill-rule="evenodd" stroke="none"/>
    <path d="M1.65 -0.7 L1.45 -0.6 1.45 -0.75 1.5 -0.8 1.6 -0.85 1.65 -0.7" fill="#61f0ff" fill-rule="evenodd" stroke="none"/>
    <path d="M1.15 -0.5 L1.1 -0.6 1.25 -0.7 1.45 -0.75 1.45 -0.6 1.15 -0.5" fill="#4ccbfc" fill-rule="evenodd" stroke="none"/>
    <path d="M1.25 -0.4 L1.5 -0.5 1.6 -0.45 Q1.6 -0.4 1.55 -0.35 L1.45 -0.3 1.4 -0.25 1.4 -0.25 1.35 -0.25 1.35 -0.2 1.35 -0.3 1.3 -0.3 1.25 -0.4" fill="#88fdff" fill-rule="evenodd" stroke="none"/>
    <path d="M2.2 -0.15 L2.2 -0.05 2.1 0.0 2.0 -0.05 Q1.95 -0.05 1.9 0.0 L1.85 0.05 Q1.75 0.0 1.65 0.05 1.6 0.1 1.55 0.2 L1.45 0.2 Q1.55 0.1 1.45 0.0 1.4 -0.05 1.3 0.0 L1.35 -0.05 1.3 -0.05 1.3 -0.2 1.35 -0.2 Q1.3 -0.1 1.4 -0.1 L1.55 -0.05 1.7 -0.1 Q1.75 -0.1 1.75 -0.2 L1.65 -0.25 1.55 -0.25 1.45 -0.3 1.55 -0.35 Q1.6 -0.4 1.6 -0.45 L1.5 -0.5 1.8 -0.6 1.8 -0.3 Q1.75 -0.25 1.8 -0.15 1.85 -0.1 1.9 -0.1 L2.0 -0.1 2.05 -0.1 Q2.15 -0.1 2.2 -0.15" fill="#63f1fd" fill-rule="evenodd" stroke="none"/>
    <path d="M1.55 -0.05 L1.55 -0.25 1.65 -0.25 1.75 -0.2 Q1.75 -0.1 1.7 -0.1 L1.55 -0.05" fill="#8feefd" fill-rule="evenodd" stroke="none"/>
    <path d="M2.2 -0.05 L2.2 0.2 2.0 0.15 Q1.85 0.15 1.85 0.05 L1.9 0.0 Q1.95 -0.05 2.0 -0.05 L2.1 0.0 2.2 -0.05" fill="#9ff7fe" fill-rule="evenodd" stroke="none"/>
    <path d="M2.2 -0.5 L2.2 -0.15 Q2.15 -0.1 2.05 -0.1 L2.0 -0.1 1.9 -0.1 Q1.85 -0.1 1.8 -0.15 1.75 -0.25 1.8 -0.3 L1.95 -0.25 Q1.95 -0.2 2.0 -0.2 L2.1 -0.2 2.15 -0.35 2.2 -0.5" fill="#49c5ee" fill-rule="evenodd" stroke="none"/>
    <path d="M2.2 0.2 L2.2 0.3 Q2.15 0.2 1.95 0.2 L1.65 0.2 1.55 0.2 Q1.6 0.1 1.65 0.05 1.75 0.0 1.85 0.05 1.85 0.15 2.0 0.15 L2.2 0.2" fill="#59ccf5" fill-rule="evenodd" stroke="none"/>
    <path d="M1.7 0.45 L1.7 0.35 1.8 0.35 1.95 0.3 Q2.05 0.25 2.1 0.25 L2.15 0.4 2.1 0.55 1.8 0.55 1.7 0.45" fill="#289bd4" fill-rule="evenodd" stroke="none"/>
    <path d="M2.2 0.3 L2.2 0.65 2.1 0.7 2.0 0.6 1.85 0.55 1.8 0.55 2.1 0.55 2.15 0.4 2.1 0.25 Q2.05 0.25 1.95 0.3 L1.8 0.35 1.7 0.35 1.7 0.45 1.6 0.4 1.55 0.3 1.65 0.25 1.65 0.2 1.95 0.2 Q2.15 0.2 2.2 0.3" fill="#2fc1e5" fill-rule="evenodd" stroke="none"/>
    <path d="M2.2 1.0 L2.2 1.2 2.1 1.1 2.05 1.0 1.85 0.95 1.95 0.9 2.05 0.9 2.1 0.95 2.2 1.0" fill="#62b3c6" fill-rule="evenodd" stroke="none"/>
    <path d="M2.2 0.75 L2.2 1.0 2.1 0.95 2.05 0.9 1.95 0.9 1.85 0.95 1.75 0.9 Q1.65 0.9 1.65 0.95 L1.65 0.9 1.6 0.8 1.8 0.9 1.85 0.8 1.8 0.7 2.0 0.8 Q2.1 0.85 2.2 0.75" fill="#6cd1e7" fill-rule="evenodd" stroke="none"/>
    <path d="M2.2 1.2 L2.2 1.25 Q2.1 1.15 1.95 1.2 1.8 1.2 1.7 1.3 L1.6 1.4 1.45 1.5 1.45 1.4 1.6 1.25 1.75 1.1 Q1.85 1.15 1.9 1.1 L2.05 1.0 2.1 1.1 2.2 1.2" fill="#5390a2" fill-rule="evenodd" stroke="none"/>
    <path d="M2.2 0.65 L2.2 0.75 Q2.1 0.85 2.0 0.8 L1.8 0.7 1.5 0.55 1.25 0.45 1.0 0.35 0.95 0.35 0.9 0.35 Q0.9 0.25 1.0 0.3 L1.1 0.35 1.25 0.35 1.3 0.4 1.55 0.5 1.85 0.55 2.0 0.6 2.1 0.7 2.2 0.65" fill="#3ee7f3" fill-rule="evenodd" stroke="none"/>
    <path d="M2.2 1.25 L2.2 1.35 2.1 1.35 2.0 1.25 1.9 1.3 1.45 1.6 Q1.2 1.75 0.95 1.8 L0.85 1.8 0.85 1.9 0.8 1.85 0.75 1.8 0.7 1.8 0.75 1.75 1.15 1.7 Q1.35 1.65 1.45 1.5 L1.6 1.4 1.7 1.3 Q1.8 1.2 1.95 1.2 2.1 1.15 2.2 1.25" fill="#5f7a85" fill-rule="evenodd" stroke="none"/>
    <path d="M2.2 1.35 L2.2 1.85 2.05 1.65 2.1 1.35 2.2 1.35" fill="#7f7561" fill-rule="evenodd" stroke="none"/>
    <path d="M2.1 1.35 L2.05 1.65 2.0 1.5 Q2.0 1.45 1.9 1.45 1.55 1.65 1.15 1.8 L1.05 1.8 0.95 1.8 Q1.2 1.75 1.45 1.6 L1.9 1.3 2.0 1.25 2.1 1.35" fill="#5f6461" fill-rule="evenodd" stroke="none"/>
    <path d="M2.2 1.85 L2.2 2.2 1.65 2.2 1.65 2.15 1.9 2.15 Q2.05 2.15 2.1 2.05 2.15 1.85 1.9 1.65 L1.55 1.7 1.15 1.8 Q1.55 1.65 1.9 1.45 2.0 1.45 2.0 1.5 L2.05 1.65 2.2 1.85" fill="#5d5144" fill-rule="evenodd" stroke="none"/>
    <path d="M1.65 0.2 L1.65 0.25 1.55 0.3 0.85 0.15 Q0.9 0.1 1.1 0.1 L1.35 0.15 1.45 0.2 1.55 0.2 1.65 0.2" fill="#36f6fc" fill-rule="evenodd" stroke="none"/>
    <path d="M0.9 0.35 L0.85 0.3 Q0.85 0.25 0.9 0.25 L0.85 0.15 1.55 0.3 1.6 0.4 1.45 0.35 1.3 0.4 1.25 0.35 Q1.3 0.3 1.2 0.25 1.1 0.25 1.1 0.35 L1.0 0.3 Q0.9 0.25 0.9 0.35" fill="#66dcfb" fill-rule="evenodd" stroke="none"/>
    <path d="M1.7 0.45 L1.8 0.55 1.85 0.55 1.55 0.5 1.3 0.4 1.45 0.35 1.6 0.4 1.7 0.45" fill="#b7dbe8" fill-rule="evenodd" stroke="none"/>
    <path d="M1.45 0.2 L1.35 0.15 1.3 0.0 Q1.4 -0.05 1.45 0.0 1.55 0.1 1.45 0.2 M0.5 0.7 L0.55 0.75 0.45 0.7 0.45 0.65 0.5 0.7" fill="#e1ffff" fill-rule="evenodd" stroke="none"/>
    <path d="M0.85 0.15 L0.75 0.1 0.8 0.0 1.05 0.0 1.3 0.0 1.35 0.15 1.1 0.1 Q0.9 0.1 0.85 0.15" fill="#5ad7fe" fill-rule="evenodd" stroke="none"/>
    <path d="M1.25 0.35 L1.1 0.35 Q1.1 0.25 1.2 0.25 1.3 0.3 1.25 0.35" fill="#e5ffff" fill-rule="evenodd" stroke="none"/>
    <path d="M1.25 0.45 Q1.2 0.55 1.1 0.5 L1.0 0.35 1.25 0.45" fill="#71d9fa" fill-rule="evenodd" stroke="none"/>
    <path d="M0.85 0.4 L0.95 0.35 1.0 0.35 1.1 0.5 Q1.2 0.55 1.25 0.45 L1.5 0.55 Q1.5 0.7 1.4 0.75 L1.2 0.75 1.15 0.75 1.1 0.8 Q1.05 0.8 1.0 0.85 0.95 0.9 0.9 0.9 L0.85 0.8 Q0.8 0.75 0.9 0.75 0.95 0.7 0.85 0.65 L0.9 0.55 0.85 0.4" fill="#eff1f7" fill-rule="evenodd" stroke="none"/>
    <path d="M0.3 0.8 Q0.3 0.95 0.45 0.95 L0.8 0.95 0.9 0.95 1.1 0.95 Q1.15 0.9 1.1 0.8 L1.15 0.75 1.2 0.75 1.4 0.75 Q1.5 0.7 1.5 0.55 L1.8 0.7 1.85 0.8 1.8 0.9 1.6 0.8 Q1.4 0.85 1.3 0.95 1.1 1.05 1.1 1.2 1.15 1.25 1.15 1.35 1.15 1.45 1.05 1.45 0.95 1.5 0.9 1.4 L0.9 1.25 Q0.8 1.1 0.65 1.15 L0.45 1.3 Q0.3 1.35 0.1 1.25 L-0.05 1.15 -0.2 1.15 -0.25 1.1 -0.25 1.05 -0.3 0.95 Q-0.15 1.0 -0.05 1.1 L0.05 1.0 0.05 0.9 0.1 0.8 Q0.15 0.8 0.15 0.85 L0.2 0.9 0.2 0.85 Q0.2 0.75 0.3 0.8 M1.05 1.15 L1.05 1.1 1.0 1.05 0.95 1.0 Q0.85 1.0 0.85 1.1 0.9 1.2 0.95 1.2 L1.05 1.15 M0.2 1.05 Q0.15 1.15 0.2 1.2 L0.35 1.2 0.45 1.2 Q0.5 1.15 0.45 1.1 L0.3 1.1 0.2 1.05 M1.0 1.25 Q0.9 1.25 0.9 1.35 0.9 1.45 1.0 1.45 L1.1 1.4 1.1 1.25 1.0 1.25" fill="#d4e2ed" fill-rule="evenodd" stroke="none"/>
    <path d="M1.1 0.8 Q1.15 0.9 1.1 0.95 L0.9 0.95 0.8 0.8 0.8 0.7 0.9 0.75 Q0.8 0.75 0.85 0.8 L0.9 0.9 Q0.95 0.9 1.0 0.85 1.05 0.8 1.1 0.8" fill="#7fe9fb" fill-rule="evenodd" stroke="none"/>
    <path d="M1.05 1.15 L0.95 1.2 Q0.9 1.2 0.85 1.1 0.85 1.0 0.95 1.0 L1.0 1.05 1.05 1.1 1.05 1.15" fill="#f6f8fc" fill-rule="evenodd" stroke="none"/>
    <path d="M-0.2 1.15 L-0.05 1.15 0.1 1.25 Q0.3 1.35 0.45 1.3 L0.65 1.15 Q0.8 1.1 0.9 1.25 L0.9 1.4 Q0.95 1.5 1.05 1.45 1.15 1.45 1.15 1.35 1.15 1.25 1.1 1.2 1.1 1.05 1.3 0.95 1.4 0.85 1.6 0.8 L1.65 0.9 Q1.45 1.0 1.35 1.05 1.2 1.15 1.25 1.25 1.3 1.35 1.25 1.45 1.15 1.6 1.05 1.55 L0.9 1.5 0.75 1.35 0.5 1.45 0.3 1.45 0.05 1.3 Q-0.05 1.15 -0.2 1.15 L-0.2 1.15 -0.2 1.15" fill="#b2cee0" fill-rule="evenodd" stroke="none"/>
    <path d="M1.65 0.95 L1.7 1.0 Q1.6 1.05 1.55 1.05 L1.4 1.15 Q1.3 1.2 1.4 1.4 1.3 1.65 1.1 1.65 L1.0 1.65 0.9 1.65 Q0.75 1.6 0.75 1.75 0.75 1.65 0.7 1.6 0.6 1.6 0.55 1.7 0.55 1.6 0.45 1.55 L0.3 1.45 0.5 1.45 0.75 1.35 0.9 1.5 1.05 1.55 Q1.15 1.6 1.25 1.45 1.3 1.35 1.25 1.25 1.2 1.15 1.35 1.05 1.45 1.0 1.65 0.9 L1.65 0.95" fill="#91bad2" fill-rule="evenodd" stroke="none"/>
    <path d="M1.85 0.95 L2.05 1.0 1.9 1.1 Q1.85 1.15 1.75 1.1 L1.7 1.0 1.65 0.95 Q1.65 0.9 1.75 0.9 L1.85 0.95" fill="#31b0c9" fill-rule="evenodd" stroke="none"/>
    <path d="M1.4 1.4 Q1.3 1.2 1.4 1.15 L1.55 1.05 Q1.6 1.05 1.7 1.0 L1.75 1.1 1.6 1.25 1.45 1.4 1.4 1.4" fill="#69a4c0" fill-rule="evenodd" stroke="none"/>
    <path d="M0.5 0.35 Q0.5 0.3 0.6 0.3 L0.55 0.2 0.5 0.1 0.7 0.1 0.75 0.25 Q0.85 0.35 0.75 0.4 L0.7 0.4 0.6 0.45 0.55 0.4 0.5 0.35" fill="#f9ffff" fill-rule="evenodd" stroke="none"/>
    <path d="M0.75 0.4 L0.85 0.4 0.9 0.55 0.85 0.65 0.6 0.45 0.7 0.4 0.75 0.4" fill="#77e6fc" fill-rule="evenodd" stroke="none"/>
    <path d="M0.55 0.45 L0.55 0.4 0.6 0.45 0.85 0.65 Q0.95 0.7 0.9 0.75 L0.8 0.7 0.7 0.55 0.55 0.45" fill="#36f7fd" fill-rule="evenodd" stroke="none"/>
    <path d="M0.45 0.45 L0.55 0.45 0.7 0.55 0.8 0.7 0.8 0.8 0.6 0.65 0.45 0.45" fill="#59d4fd" fill-rule="evenodd" stroke="none"/>
    <path d="M0.2 0.0 L0.4 0.05 Q0.45 0.15 0.4 0.25 L0.3 0.25 0.2 0.2 0.15 0.25 0.05 0.3 -0.05 0.25 -0.05 0.2 Q0.0 0.15 0.1 0.1 L0.2 0.0" fill="#f2ffff" fill-rule="evenodd" stroke="none"/>
    <path d="M-0.3 0.5 L-0.2 0.45 -0.1 0.45 Q-0.1 0.35 0.0 0.35 0.05 0.35 0.1 0.45 0.05 0.45 0.0 0.55 L0.05 0.7 0.05 0.75 0.0 0.85 -0.1 0.8 Q-0.15 0.8 -0.15 0.75 L-0.15 0.6 -0.2 0.65 -0.2 0.7 Q-0.2 0.8 -0.25 0.85 L-0.3 0.7 Q-0.3 0.65 -0.35 0.7 L-0.45 0.85 -0.55 1.0 -0.65 1.2 Q-0.55 1.25 -0.55 1.35 L-0.65 1.25 -0.75 1.25 -0.9 1.3 -1.0 1.2 -1.05 1.05 -1.05 0.95 -0.9 0.8 -0.7 0.6 Q-0.7 0.55 -0.75 0.6 L-0.85 0.65 -0.9 0.55 -0.75 0.45 -0.6 0.3 -0.75 0.4 -0.9 0.45 -0.95 0.35 -0.9 0.35 -0.8 0.25 -0.95 0.3 -1.1 0.35 Q-1.15 0.3 -1.25 0.35 -1.35 0.35 -1.4 0.3 L-1.25 0.25 Q-1.15 0.2 -1.2 0.15 L-1.1 0.2 -1.05 0.15 -1.0 0.15 -1.0 0.25 -0.7 0.2 -0.7 0.3 -0.6 0.3 -0.55 0.3 -0.55 0.35 -0.35 0.4 -0.3 0.5 M-0.6 0.7 L-0.55 0.6 Q-0.55 0.55 -0.55 0.55 L-0.65 0.55 -0.7 0.6 -0.7 0.65 -0.65 0.7 -0.7 0.8 Q-0.75 0.75 -0.8 0.75 -0.8 0.75 -0.85 0.8 L-0.85 0.9 -0.85 0.95 -1.0 0.95 Q-1.05 0.95 -1.0 1.05 L-0.95 1.05 -0.9 1.0 -0.85 1.05 Q-0.9 1.15 -0.8 1.15 L-0.65 1.15 -0.65 1.0 Q-0.65 0.95 -0.75 0.95 L-0.65 0.8 Q-0.6 0.75 -0.6 0.7 M-0.5 0.8 L-0.4 0.65 Q-0.4 0.6 -0.5 0.6 -0.55 0.65 -0.55 0.7 -0.55 0.75 -0.5 0.8" fill="#5eeafd" fill-rule="evenodd" stroke="none"/>
    <path d="M0.05 0.65 L0.05 0.55 Q0.1 0.5 0.15 0.5 L0.2 0.55 0.25 0.6 0.15 0.65 0.05 0.65" fill="#f3ffff" fill-rule="evenodd" stroke="none"/>
    <path d="M0.45 0.5 L0.4 0.6 Q0.4 0.55 0.4 0.55 L0.45 0.5" fill="#e9ffff" fill-rule="evenodd" stroke="none"/>
    <path d="M0.8 0.95 L0.7 0.85 0.65 0.75 0.45 0.5 0.4 0.55 Q0.4 0.55 0.4 0.6 L0.4 0.7 0.35 0.55 0.3 0.45 0.35 0.5 0.35 0.4 Q0.4 0.4 0.45 0.45 L0.6 0.65 0.8 0.8 0.9 0.95 0.8 0.95" fill="#3cf5fe" fill-rule="evenodd" stroke="none"/>
    <path d="M0.05 0.7 L0.05 0.65 0.15 0.65 0.25 0.6 0.3 0.8 Q0.2 0.75 0.2 0.85 L0.2 0.9 0.15 0.85 Q0.15 0.8 0.1 0.8 L0.05 0.9 0.0 0.85 0.05 0.75 0.05 0.7" fill="#98f8fd" fill-rule="evenodd" stroke="none"/>
    <path d="M0.0 0.85 L0.05 0.9 0.05 1.0 -0.05 1.1 Q-0.15 1.0 -0.3 0.95 L-0.25 0.85 -0.1 0.8 0.0 0.85" fill="#fbf9fb" fill-rule="evenodd" stroke="none"/>
    <path d="M0.2 1.05 L0.3 1.1 0.45 1.1 Q0.5 1.15 0.45 1.2 L0.35 1.2 0.2 1.2 Q0.15 1.15 0.2 1.05" fill="#fbf7f8" fill-rule="evenodd" stroke="none"/>
    <path d="M0.7 0.85 L0.6 0.9 Q0.55 0.9 0.55 0.8 0.55 0.75 0.65 0.75 L0.7 0.85" fill="#f6ffff" fill-rule="evenodd" stroke="none"/>
    <path d="M1.0 1.25 L1.1 1.25 1.1 1.4 1.0 1.45 Q0.9 1.45 0.9 1.35 0.9 1.25 1.0 1.25" fill="#f8fbfe" fill-rule="evenodd" stroke="none"/>
    <path d="M0.55 1.7 Q0.6 1.6 0.7 1.6 0.75 1.65 0.75 1.75 L0.7 1.8 0.6 1.8 0.55 1.7" fill="#bef8f7" fill-rule="evenodd" stroke="none"/>
    <path d="M0.55 1.7 L0.6 1.8 0.7 1.8 0.75 1.8 Q0.7 1.9 0.6 1.85 0.5 1.8 0.5 1.7 L0.55 1.7" fill="#40d7ef" fill-rule="evenodd" stroke="none"/>
    <path d="M0.3 1.45 L0.45 1.55 Q0.55 1.6 0.55 1.7 L0.5 1.7 0.45 1.6 0.4 1.6 0.1 1.4 -0.05 1.3 -0.2 1.15 Q-0.05 1.15 0.05 1.3 L0.3 1.45" fill="#5f92b8" fill-rule="evenodd" stroke="none"/>
    <path d="M-0.6 2.2 L-1.1 2.2 -1.8 2.2 -1.65 2.1 -1.55 1.95 -1.55 1.7 -1.35 1.45 -1.45 1.65 Q-1.5 1.75 -1.45 1.85 -1.35 1.9 -1.25 1.8 L-1.15 1.65 -1.1 1.55 Q-1.1 1.5 -1.15 1.5 L-1.1 1.45 -1.05 1.35 -1.0 1.45 -0.9 1.45 -0.85 1.5 -0.7 1.45 Q-0.6 1.45 -0.6 1.55 L-0.5 1.55 -0.45 1.5 -0.4 1.6 Q-0.35 1.65 -0.35 1.75 -0.4 1.75 -0.3 1.8 L-0.25 1.8 0.0 1.75 0.05 1.7 0.1 1.6 0.1 1.55 0.25 1.55 0.25 1.65 0.3 1.7 0.35 1.7 0.4 1.6 0.45 1.6 0.5 1.7 Q0.5 1.8 0.6 1.85 0.7 1.9 0.75 1.8 L0.8 1.85 0.75 1.95 0.65 1.95 0.55 1.85 0.4 1.75 0.35 1.85 0.25 1.8 0.25 1.75 0.15 1.75 0.1 1.8 0.1 1.85 -0.05 1.85 -0.15 1.9 Q-0.3 1.9 -0.4 1.85 L-0.55 1.7 -0.6 2.0 Q-0.7 2.0 -0.7 2.1 L-0.6 2.2 M-0.75 1.8 Q-0.7 1.75 -0.65 1.6 L-0.75 1.6 -0.85 1.6 Q-0.9 1.6 -0.95 1.55 -1.0 1.5 -1.05 1.5 L-1.15 1.8 -1.35 2.05 -1.2 2.1 -1.1 2.2 -0.9 2.15 -0.75 2.05 -0.8 1.95 Q-0.85 1.85 -0.75 1.8 L-0.8 1.9 -0.75 2.0 Q-0.65 2.0 -0.65 1.9 L-0.6 1.8 -0.75 1.8" fill="#1987be" fill-rule="evenodd" stroke="none"/>
    <path d="M1.65 2.2 L1.25 2.2 1.1 2.15 0.95 2.05 Q0.95 2.0 0.95 1.95 L0.95 1.8 1.05 1.8 1.15 1.8 1.1 1.85 Q1.05 1.85 1.05 1.9 L1.05 2.0 1.25 2.1 1.5 2.1 1.65 2.15 1.65 2.2" fill="#334f5b" fill-rule="evenodd" stroke="none"/>
    <path d="M1.25 2.2 L0.95 2.2 0.85 2.05 Q0.8 2.0 0.85 1.9 L0.85 1.8 0.95 1.8 0.95 1.95 Q0.95 2.0 0.95 2.05 L1.1 2.15 1.25 2.2" fill="#2b637d" fill-rule="evenodd" stroke="none"/>
    <path d="M0.75 1.75 Q0.75 1.6 0.9 1.65 L1.0 1.65 1.1 1.65 Q1.3 1.65 1.4 1.4 L1.45 1.4 1.45 1.5 Q1.35 1.65 1.15 1.7 L0.75 1.75" fill="#8099ad" fill-rule="evenodd" stroke="none"/>
    <path d="M0.4 1.6 L0.35 1.7 0.3 1.7 0.25 1.65 0.25 1.55 0.1 1.55 0.1 1.6 0.05 1.7 0.0 1.75 -0.25 1.8 -0.2 1.7 -0.2 1.6 0.0 1.55 Q0.1 1.5 0.1 1.4 L0.4 1.6" fill="#24add6" fill-rule="evenodd" stroke="none"/>
    <path d="M0.1 1.85 L0.1 1.8 0.15 1.75 0.25 1.75 0.25 1.8 0.3 1.95 0.4 1.95 0.55 1.95 Q0.6 2.0 0.6 2.1 L0.0 2.15 -0.55 2.15 Q-0.65 2.1 -0.6 2.0 L-0.55 1.7 -0.4 1.85 -0.4 1.9 -0.35 2.0 -0.25 1.95 -0.15 1.9 Q-0.1 1.9 -0.05 1.95 L0.05 2.0 0.1 1.95 0.1 1.85" fill="#0d518f" fill-rule="evenodd" stroke="none"/>
    <path d="M0.95 2.2 L-0.6 2.2 -0.7 2.1 Q-0.7 2.0 -0.6 2.0 -0.65 2.1 -0.55 2.15 L0.0 2.15 0.6 2.1 Q0.6 2.0 0.55 1.95 L0.4 1.95 0.3 1.95 0.25 1.8 0.35 1.85 0.4 1.75 0.55 1.85 0.65 1.95 0.75 1.95 0.8 1.85 0.85 1.9 Q0.8 2.0 0.85 2.05 L0.95 2.2" fill="#1875a4" fill-rule="evenodd" stroke="none"/>
    <path d="M0.1 1.85 L0.1 1.95 0.05 2.0 -0.05 1.95 Q-0.1 1.9 -0.15 1.9 L-0.25 1.95 -0.35 2.0 -0.4 1.9 -0.4 1.85 Q-0.3 1.9 -0.15 1.9 L-0.05 1.85 0.1 1.85" fill="#0b74a0" fill-rule="evenodd" stroke="none"/>
    <path d="M1.15 1.8 L1.55 1.7 1.9 1.65 Q2.15 1.85 2.1 2.05 2.05 2.15 1.9 2.15 L1.65 2.15 1.5 2.1 1.6 2.05 1.75 2.05 1.85 2.05 Q2.0 2.0 1.95 1.85 1.85 1.75 1.6 1.75 L1.2 1.85 1.1 1.85 1.15 1.8" fill="#493d33" fill-rule="evenodd" stroke="none"/>
    <path d="M1.1 1.85 L1.2 1.85 Q1.25 1.95 1.35 2.0 L1.6 2.05 1.5 2.1 1.25 2.1 1.05 2.0 1.05 1.9 Q1.05 1.85 1.1 1.85" fill="#23393d" fill-rule="evenodd" stroke="none"/>
    <path d="M1.2 1.85 L1.6 1.75 Q1.85 1.75 1.95 1.85 2.0 2.0 1.85 2.05 L1.75 2.05 1.6 2.05 1.35 2.0 Q1.25 1.95 1.2 1.85" fill="#352c23" fill-rule="evenodd" stroke="none"/>
    <path d="M-0.7 0.2 L-0.55 0.2 Q-0.5 0.2 -0.45 0.25 L-0.35 0.35 -0.3 0.35 -0.35 0.4 -0.55 0.35 -0.55 0.3 -0.6 0.3 -0.7 0.3 -0.7 0.2" fill="#89f7ff" fill-rule="evenodd" stroke="none"/>
    <path d="M-0.95 0.35 L-1.1 0.4 -1.25 0.45 Q-1.3 0.4 -1.2 0.35 L-1.1 0.35 -0.95 0.3 -0.8 0.25 -0.9 0.35 -0.95 0.35" fill="#27e0f0" fill-rule="evenodd" stroke="none"/>
    <path d="M-0.9 0.55 L-1.05 0.6 Q-1.1 0.65 -1.1 0.55 L-0.9 0.45 -0.75 0.4 -0.6 0.3 -0.75 0.45 -0.9 0.55" fill="#2bebf7" fill-rule="evenodd" stroke="none"/>
    <path d="M-0.7 0.6 L-0.65 0.55 -0.55 0.55 Q-0.55 0.55 -0.55 0.6 L-0.6 0.7 -0.65 0.7 -0.7 0.65 -0.7 0.6" fill="#e4ffff" fill-rule="evenodd" stroke="none"/>
    <path d="M-1.2 1.1 L-1.3 1.1 -1.4 1.05 -1.35 0.95 -1.35 1.0 -1.3 1.05 -1.25 1.0 -1.25 0.9 -1.15 0.9 -1.1 0.9 -1.1 0.9 -1.0 0.75 -0.85 0.65 -0.75 0.6 Q-0.7 0.55 -0.7 0.6 L-0.9 0.8 -1.05 0.95 -1.2 1.1" fill="#26e5f3" fill-rule="evenodd" stroke="none"/>
    <path d="M-0.6 0.7 Q-0.6 0.75 -0.65 0.8 L-0.75 0.95 -0.85 1.05 -0.9 1.0 -0.85 0.95 -0.85 0.9 -0.7 0.8 -0.65 0.7 -0.6 0.7" fill="#3af9fd" fill-rule="evenodd" stroke="none"/>
    <path d="M-0.85 0.9 L-0.85 0.8 Q-0.8 0.75 -0.8 0.75 -0.75 0.75 -0.7 0.8 L-0.85 0.9" fill="#d3fafd" fill-rule="evenodd" stroke="none"/>
    <path d="M-0.9 1.0 L-0.95 1.05 -1.0 1.05 Q-1.05 0.95 -1.0 0.95 L-0.85 0.95 -0.9 1.0" fill="#ddffff" fill-rule="evenodd" stroke="none"/>
    <path d="M-0.55 1.05 Q-0.5 1.1 -0.45 1.05 L-0.4 1.0 Q-0.35 1.0 -0.3 1.05 L-0.25 1.1 -0.2 1.15 -0.25 1.2 -0.4 1.15 Q-0.5 1.1 -0.5 1.2 L-0.5 1.15 -0.55 1.05 M-0.2 1.15 L-0.2 1.15" fill="#5ee5fa" fill-rule="evenodd" stroke="none"/>
    <path d="M-0.55 1.35 Q-0.55 1.25 -0.65 1.2 L-0.55 1.0 -0.55 1.05 -0.5 1.15 -0.5 1.2 -0.5 1.3 -0.55 1.35" fill="#c4f8fb" fill-rule="evenodd" stroke="none"/>
    <path d="M-0.25 0.85 L-0.3 0.95 -0.25 1.05 -0.25 1.1 -0.3 1.05 Q-0.35 1.0 -0.4 1.0 L-0.45 1.05 Q-0.5 1.1 -0.55 1.05 L-0.55 1.0 -0.45 0.85 -0.35 0.7 Q-0.3 0.65 -0.3 0.7 L-0.25 0.85" fill="#8bf8fe" fill-rule="evenodd" stroke="none"/>
    <path d="M-0.1 0.8 L-0.25 0.85 Q-0.2 0.8 -0.2 0.7 L-0.2 0.65 -0.15 0.6 -0.15 0.75 Q-0.15 0.8 -0.1 0.8" fill="#8af9ff" fill-rule="evenodd" stroke="none"/>
    <path d="M-0.5 0.8 Q-0.55 0.75 -0.55 0.7 -0.55 0.65 -0.5 0.6 -0.4 0.6 -0.4 0.65 L-0.5 0.8" fill="#9afdff" fill-rule="evenodd" stroke="none"/>
    <path d="M-0.25 1.35 Q-0.3 1.25 -0.35 1.3 -0.45 1.4 -0.7 1.4 L-0.9 1.35 -1.05 1.35 Q-1.0 1.3 -1.1 1.2 L-1.2 1.1 -1.05 0.95 -1.05 1.05 -1.0 1.2 -0.9 1.3 -0.75 1.25 -0.65 1.25 -0.55 1.35 -0.5 1.3 -0.5 1.2 Q-0.5 1.1 -0.4 1.15 L-0.25 1.2 -0.25 1.35" fill="#39cdea" fill-rule="evenodd" stroke="none"/>
    <path d="M0.1 1.4 Q0.1 1.5 0.0 1.55 L-0.2 1.6 -0.2 1.7 -0.25 1.8 -0.3 1.8 -0.3 1.75 Q-0.3 1.7 -0.3 1.55 L-0.25 1.35 -0.25 1.2 -0.2 1.15 -0.2 1.15 -0.05 1.3 0.1 1.4 M-0.15 1.35 L-0.2 1.5 Q-0.2 1.6 -0.1 1.55 -0.05 1.5 -0.05 1.4 -0.1 1.3 -0.15 1.35" fill="#35e5f5" fill-rule="evenodd" stroke="none"/>
    <path d="M-1.05 0.05 Q-1.0 0.05 -1.05 0.15 L-1.1 0.2 -1.2 0.15 -1.15 0.0 -1.05 0.05" fill="#a6d8eb" fill-rule="evenodd" stroke="none"/>
    <path d="M-1.4 0.3 L-1.5 0.3 Q-1.5 0.2 -1.45 0.2 L-1.3 0.15 -1.2 0.15 Q-1.15 0.2 -1.25 0.25 L-1.4 0.3" fill="#25eaf7" fill-rule="evenodd" stroke="none"/>
    <path d="M-1.75 0.2 L-1.65 0.25 -1.6 0.3 -1.8 0.4 Q-1.85 0.35 -1.85 0.3 -1.8 0.2 -1.75 0.2" fill="#12ebfd" fill-rule="evenodd" stroke="none"/>
    <path d="M-2.2 1.95 L-2.2 0.85 -2.15 0.65 -2.1 0.45 Q-2.0 0.45 -1.85 0.55 -1.8 0.75 -1.7 0.65 L-1.65 0.65 -1.6 0.75 -1.6 0.8 -1.65 0.85 Q-1.75 0.9 -1.65 1.05 L-1.6 1.15 -1.6 1.25 -1.5 1.3 Q-1.4 1.35 -1.4 1.4 L-1.6 1.65 -1.65 1.95 -1.75 2.05 -1.9 2.1 -2.05 2.1 -2.2 1.95 M-1.7 1.2 L-1.8 1.0 Q-1.7 0.8 -2.05 0.65 L-2.1 1.2 -2.05 1.75 Q-2.1 1.85 -2.05 1.95 -1.95 2.0 -1.85 2.0 -1.8 1.95 -1.75 1.8 L-1.65 1.6 -1.55 1.5 Q-1.5 1.45 -1.6 1.4 L-1.7 1.2" fill="#0e548a" fill-rule="evenodd" stroke="none"/>
    <path d="M-1.7 1.2 L-1.6 1.4 Q-1.5 1.45 -1.55 1.5 L-1.65 1.6 -1.75 1.8 Q-1.8 1.95 -1.85 2.0 -1.95 2.0 -2.05 1.95 -2.1 1.85 -2.05 1.75 L-2.1 1.2 -2.05 0.65 Q-1.7 0.8 -1.8 1.0 L-1.7 1.2" fill="#053e69" fill-rule="evenodd" stroke="none"/>
    <path d="M-1.35 0.95 L-1.3 0.9 -1.25 0.9 -1.25 1.0 -1.3 1.05 -1.35 1.0 -1.35 0.95" fill="#89faff" fill-rule="evenodd" stroke="none"/>
    <path d="M-1.45 1.1 L-1.35 1.2 Q-1.25 1.1 -1.2 1.2 -1.15 1.25 -1.2 1.3 L-1.25 1.4 Q-1.25 1.35 -1.3 1.3 L-1.4 1.25 -1.45 1.2 -1.45 1.1" fill="#1a8dc5" fill-rule="evenodd" stroke="none"/>
    <path d="M-1.05 1.35 L-1.1 1.45 -1.15 1.5 Q-1.2 1.45 -1.25 1.45 L-1.35 1.5 Q-1.4 1.55 -1.4 1.65 -1.35 1.75 -1.25 1.75 L-1.2 1.7 -1.15 1.65 -1.25 1.8 Q-1.35 1.9 -1.45 1.85 -1.5 1.75 -1.45 1.65 L-1.35 1.45 -1.3 1.4 -1.25 1.4 -1.2 1.3 Q-1.15 1.25 -1.2 1.2 -1.25 1.1 -1.35 1.2 L-1.45 1.1 -1.4 1.05 -1.3 1.1 -1.2 1.1 -1.1 1.2 Q-1.0 1.3 -1.05 1.35 M-1.45 1.1 L-1.45 1.1" fill="#16b1d5" fill-rule="evenodd" stroke="none"/>
    <path d="M-1.15 1.5 Q-1.1 1.5 -1.1 1.55 L-1.15 1.65 -1.2 1.7 -1.25 1.75 Q-1.35 1.75 -1.4 1.65 -1.4 1.55 -1.35 1.5 L-1.25 1.45 Q-1.2 1.45 -1.15 1.5" fill="#2fe8f9" fill-rule="evenodd" stroke="none"/>
    <path d="M-1.1 2.2 L-1.1 2.2 -1.2 2.1 -1.35 2.05 -1.15 1.8 -1.05 1.5 Q-1.0 1.5 -0.95 1.55 -0.9 1.6 -0.85 1.6 L-0.75 1.6 -0.65 1.6 Q-0.7 1.75 -0.75 1.8 L-0.75 1.8 Q-0.85 1.85 -0.8 1.95 L-0.75 2.05 -0.9 2.15 -1.1 2.2 M-1.2 2.05 L-1.05 2.1 -0.9 2.05 Q-0.9 1.85 -0.8 1.7 L-0.8 1.65 -0.85 1.65 -1.05 1.7 -1.15 1.85 Q-1.2 1.95 -1.2 2.05" fill="#1066a5" fill-rule="evenodd" stroke="none"/>
    <path d="M-1.2 2.05 Q-1.2 1.95 -1.15 1.85 L-1.05 1.7 -0.85 1.65 -0.8 1.65 -0.8 1.7 Q-0.9 1.85 -0.9 2.05 L-1.05 2.1 -1.2 2.05" fill="#084d83" fill-rule="evenodd" stroke="none"/>
    <path d="M-0.15 1.35 Q-0.1 1.3 -0.05 1.4 -0.05 1.5 -0.1 1.55 -0.2 1.6 -0.2 1.5 L-0.15 1.35" fill="#a6fcff" fill-rule="evenodd" stroke="none"/>
    <path d="M-0.25 1.8 L-0.3 1.8 Q-0.4 1.75 -0.35 1.75 -0.35 1.65 -0.4 1.6 L-0.45 1.5 -0.5 1.55 -0.6 1.55 Q-0.6 1.45 -0.7 1.45 L-0.85 1.5 -0.9 1.45 -1.0 1.45 -1.05 1.35 -0.9 1.35 -0.7 1.4 Q-0.45 1.4 -0.35 1.3 -0.3 1.25 -0.25 1.35 L-0.3 1.55 Q-0.3 1.7 -0.3 1.75 L-0.3 1.8 -0.25 1.8 M-1.0 1.45 L-0.95 1.45 -0.95 1.4 -1.0 1.4 -1.0 1.45" fill="#27add9" fill-rule="evenodd" stroke="none"/>
    <path d="M-0.75 1.8 L-0.6 1.8 -0.65 1.9 Q-0.65 2.0 -0.75 2.0 L-0.8 1.9 -0.75 1.8 -0.75 1.8" fill="#06aff1" fill-rule="evenodd" stroke="none"/>
  </g>
</svg>
