<?xml version="1.0" encoding="UTF-8" standalone="no"?>
<svg xmlns:xlink="http://www.w3.org/1999/xlink" height="2.9px" width="3.65px" xmlns="http://www.w3.org/2000/svg">
  <g transform="matrix(1.0, 0.0, 0.0, 1.0, 1.75, 1.9)">
    <path d="M0.15 0.95 L0.6 0.4 0.6 0.35 Q0.6 0.35 0.6 0.4 0.35 0.45 0.2 0.6 L0.15 0.6 -0.2 0.65 Q-0.6 0.65 -0.75 0.5 L-0.7 0.45 -0.45 0.4 Q-0.5 0.35 -0.7 0.3 -0.9 0.25 -0.9 0.1 -0.9 -0.05 -0.8 -0.1 L-0.45 -0.2 Q-0.35 -0.25 -0.25 -0.45 L-0.1 -0.5 Q0.0 -0.65 0.0 -0.7 L-0.15 -0.8 -0.25 -0.9 -0.15 -1.0 0.0 -1.05 Q0.3 -1.05 0.3 -1.2 L0.3 -1.4 0.4 -1.55 0.45 -1.65 0.45 -1.65 0.45 -1.65 0.25 -1.75 0.2 -1.75 0.15 -1.7 0.1 -1.7 -0.05 -1.75 -0.1 -1.75 -0.25 -1.8 -0.3 -1.8 -0.05 -1.85 0.75 -1.75 0.9 -1.7 0.9 -1.6 0.95 -1.4 0.85 -0.95 0.95 -0.75 Q0.95 -0.65 0.8 -0.6 0.7 -0.5 0.7 -0.45 L0.8 -0.35 0.95 -0.25 0.85 -0.2 Q0.85 -0.05 1.0 -0.05 L1.0 -0.05 1.1 -0.15 1.15 -0.2 1.15 -0.2 1.2 -0.1 1.15 0.0 Q1.1 0.0 1.0 0.15 L1.2 0.25 Q1.25 0.25 1.55 0.0 L1.7 -0.1 1.65 0.0 Q1.5 0.4 1.25 0.4 1.0 0.4 0.8 0.65 0.6 0.95 0.3 0.95 L0.15 0.95" fill="#1d1b15" fill-rule="evenodd" stroke="none"/>
    <path d="M-0.3 -1.8 L-0.25 -1.8 -0.1 -1.75 -0.05 -1.75 0.1 -1.7 0.15 -1.7 0.2 -1.75 0.25 -1.75 0.45 -1.65 0.45 -1.65 0.45 -1.65 0.4 -1.55 0.3 -1.4 0.3 -1.2 Q0.3 -1.05 0.0 -1.05 L-0.15 -1.0 -0.25 -0.9 -0.15 -0.8 0.0 -0.7 Q0.0 -0.65 -0.1 -0.5 L-0.25 -0.45 Q-0.35 -0.25 -0.45 -0.2 L-0.8 -0.1 Q-0.9 -0.05 -0.9 0.1 -0.9 0.25 -0.7 0.3 -0.5 0.35 -0.45 0.4 L-0.7 0.45 -0.75 0.5 Q-0.6 0.65 -0.2 0.65 L0.15 0.6 0.2 0.6 Q0.35 0.45 0.6 0.4 0.6 0.35 0.6 0.35 L0.6 0.4 0.15 0.95 -0.8 0.8 Q-1.55 0.55 -1.55 0.25 L-1.55 0.1 -1.7 -0.15 -1.65 -0.15 -1.7 -0.25 Q-1.7 -0.4 -1.4 -0.8 L-1.0 -1.25 -1.05 -1.1 -1.2 -0.85 -1.15 -0.45 -1.0 -0.7 Q-1.05 -0.75 -1.0 -0.85 L-0.9 -1.0 Q-0.65 -0.95 -0.55 -1.05 L-0.65 -1.2 -0.4 -1.35 Q-0.35 -1.35 -0.35 -1.55 L-0.35 -1.65 -0.4 -1.65 -0.5 -1.7 -0.55 -1.7 -0.6 -1.7 -0.5 -1.75 -0.3 -1.8 M1.7 -0.1 L1.55 0.0 Q1.25 0.25 1.2 0.25 L1.0 0.15 Q1.1 0.0 1.15 0.0 L1.2 -0.1 1.15 -0.2 1.15 -0.2 1.1 -0.15 1.0 -0.05 1.0 -0.05 Q0.85 -0.05 0.85 -0.2 L0.95 -0.25 0.8 -0.35 0.7 -0.45 Q0.7 -0.5 0.8 -0.6 0.95 -0.65 0.95 -0.75 L0.85 -0.95 0.95 -1.4 0.9 -1.6 0.9 -1.7 0.95 -1.65 1.0 -1.6 1.2 -1.35 1.25 -1.15 1.3 -1.0 Q1.3 -0.65 1.1 -0.55 L1.1 -0.5 1.35 -0.5 1.4 -0.4 1.4 -0.4 1.35 -0.3 1.3 -0.2 1.3 0.0 1.6 -0.2 1.8 -0.55 1.85 -0.5 1.7 -0.1 M-1.15 -0.1 L-1.0 -0.15 -1.05 -0.35 -1.15 -0.35 -1.3 -0.25 Q-1.25 -0.15 -1.15 -0.1 L-1.15 -0.1 M-0.75 0.6 L-0.8 0.65 Q-0.8 0.85 -0.05 0.9 0.05 0.9 0.1 0.7 L0.15 0.7 -0.05 0.7 -0.55 0.65 -0.55 0.65 -0.75 0.6 -0.75 0.6 M-1.2 0.15 L-1.2 0.15 -1.35 0.2 -1.45 0.25 -1.35 0.4 Q-1.25 0.45 -1.15 0.45 L-1.15 0.45 -1.05 0.35 -1.0 0.2 -1.0 0.2 -1.05 0.15 -1.2 0.15" fill="#262421" fill-rule="evenodd" stroke="none"/>
    <path d="M-0.6 -1.7 L-0.55 -1.7 -0.5 -1.7 -0.4 -1.65 -0.35 -1.65 -0.35 -1.55 Q-0.35 -1.35 -0.4 -1.35 L-0.65 -1.2 -0.55 -1.05 Q-0.65 -0.95 -0.9 -1.0 L-1.0 -0.85 Q-1.05 -0.75 -1.0 -0.7 L-1.15 -0.45 -1.2 -0.85 -1.05 -1.1 -1.0 -1.25 -0.95 -1.3 -0.7 -1.65 -0.7 -1.65 -0.65 -1.65 -0.65 -1.65 -0.6 -1.7 M1.8 -0.55 L1.6 -0.2 1.3 0.0 1.3 -0.2 1.35 -0.3 1.4 -0.4 1.4 -0.4 1.35 -0.5 1.1 -0.5 1.1 -0.55 Q1.3 -0.65 1.3 -1.0 L1.25 -1.15 1.2 -1.35 1.65 -0.7 1.8 -0.55 M-1.2 0.15 L-1.05 0.15 -1.0 0.2 -1.0 0.2 -1.05 0.35 -1.15 0.45 -1.15 0.45 Q-1.25 0.45 -1.35 0.4 L-1.45 0.25 -1.35 0.2 -1.2 0.15 -1.2 0.15 M-0.75 0.6 L-0.75 0.6 -0.55 0.65 -0.55 0.65 -0.05 0.7 0.15 0.7 0.1 0.7 Q0.05 0.9 -0.05 0.9 -0.8 0.85 -0.8 0.65 L-0.75 0.6 M-1.15 -0.1 L-1.15 -0.1 Q-1.25 -0.15 -1.3 -0.25 L-1.15 -0.35 -1.05 -0.35 -1.0 -0.15 -1.15 -0.1" fill="#43413f" fill-rule="evenodd" stroke="none"/>
    <path d="M0.15 0.95 L0.3 0.95 Q0.6 0.95 0.8 0.65 1.0 0.4 1.25 0.4 1.5 0.4 1.65 0.0 L1.7 -0.1 1.85 -0.5 1.8 -0.55 1.65 -0.7 1.2 -1.35 1.0 -1.6 0.95 -1.65 0.9 -1.7 0.75 -1.75 -0.05 -1.85 -0.3 -1.8 -0.5 -1.75 -0.6 -1.7 -0.65 -1.65 -0.65 -1.65 -0.7 -1.65 -0.7 -1.65 -0.95 -1.3 -1.0 -1.25 -1.4 -0.8 Q-1.7 -0.4 -1.7 -0.25 L-1.65 -0.15 -1.7 -0.15 -1.55 0.1 -1.55 0.25 Q-1.55 0.55 -0.8 0.8 L0.15 0.95 Z" fill="none" stroke="#000000" stroke-linecap="round" stroke-linejoin="round" stroke-opacity="0.4509804" stroke-width="0.1"/>
  </g>
</svg>
