<?xml version="1.0" encoding="UTF-8" standalone="no"?>
<svg xmlns:xlink="http://www.w3.org/1999/xlink" height="19.55px" width="6.8px" xmlns="http://www.w3.org/2000/svg">
  <g transform="matrix(1.0, 0.0, 0.0, 1.0, 4.3, 12.55)">
    <path d="M-1.2 -12.5 Q-1.05 -12.45 -1.05 -12.3 -1.05 -12.15 -1.2 -12.1 L-1.15 -12.05 Q-1.05 -11.95 -1.05 -11.9 -1.05 -11.75 -1.15 -11.7 -1.25 -11.6 -1.35 -11.6 -1.45 -11.6 -1.55 -11.7 -1.65 -11.8 -1.65 -11.9 -1.65 -12.0 -1.5 -12.1 L-1.45 -12.1 -1.5 -12.1 Q-1.6 -12.2 -1.6 -12.3 -1.6 -12.55 -1.35 -12.55 L-1.2 -12.5 M-1.35 -10.5 Q-1.45 -10.5 -1.55 -10.6 -1.6 -10.7 -1.6 -10.8 -1.6 -10.9 -1.55 -10.95 L-1.35 -11.0 -1.2 -10.95 Q-1.05 -10.9 -1.05 -10.8 -1.05 -10.65 -1.15 -10.6 -1.25 -10.5 -1.35 -10.5 M-1.05 -9.2 Q-0.6 -9.05 -0.6 -8.75 -0.6 -8.6 -0.8 -8.5 -0.9 -8.4 -1.05 -8.4 -1.0 -8.25 -1.1 -8.15 -1.2 -8.05 -1.35 -8.05 -1.45 -8.05 -1.6 -8.2 -1.75 -8.35 -1.75 -8.5 -1.75 -8.8 -1.5 -9.0 -1.3 -9.2 -1.05 -9.2 M-2.55 -8.7 Q-2.55 -8.65 -2.65 -8.55 -2.75 -8.5 -2.8 -8.5 -2.9 -8.5 -3.15 -8.7 -3.5 -8.95 -3.5 -9.1 L-3.55 -9.15 Q-3.6 -9.2 -3.6 -9.3 -3.6 -9.45 -3.5 -9.5 L-3.35 -9.55 Q-3.2 -9.55 -3.15 -9.5 L-3.05 -9.3 Q-3.0 -9.25 -2.85 -9.15 -2.55 -8.85 -2.55 -8.7 M-0.6 -6.45 Q-0.65 -6.3 -0.85 -6.3 -0.9 -6.3 -0.95 -6.35 L-1.05 -6.2 Q-1.1 -6.05 -1.25 -6.05 -1.4 -6.05 -1.5 -6.25 L-1.55 -6.4 Q-1.55 -6.7 -1.25 -6.7 L-1.15 -6.7 Q-1.15 -7.05 -0.85 -7.05 -0.5 -7.05 -0.5 -6.65 -0.5 -6.55 -0.6 -6.45 M-1.25 -5.6 Q-1.25 -6.0 -0.9 -5.95 -0.6 -5.85 -0.5 -5.6 -0.25 -5.55 -0.25 -5.25 -0.25 -4.85 -0.55 -4.85 -0.65 -4.85 -0.7 -4.9 L-0.85 -4.9 -0.95 -4.9 -0.95 -4.8 Q-0.65 -4.75 -0.65 -4.45 -0.65 -4.3 -0.7 -4.2 -0.8 -4.05 -0.95 -4.05 -1.15 -4.05 -1.25 -4.2 L-1.25 -4.65 Q-1.4 -4.65 -1.45 -4.8 L-1.5 -4.95 Q-1.5 -5.25 -1.25 -5.25 L-1.25 -5.6 M-1.45 -5.5 Q-1.55 -5.35 -1.7 -5.35 -1.9 -5.35 -2.0 -5.5 L-2.05 -5.7 Q-2.05 -6.05 -1.7 -6.05 -1.4 -6.05 -1.4 -5.7 -1.4 -5.6 -1.45 -5.5 M0.0 -3.8 L-0.05 -3.6 Q-0.15 -3.5 -0.3 -3.5 L-0.4 -3.5 -0.4 -3.35 Q-0.4 -3.25 -0.45 -3.15 -0.55 -3.0 -0.7 -3.0 -0.9 -3.0 -0.95 -3.15 L-1.0 -3.35 Q-1.0 -3.7 -0.7 -3.7 L-0.55 -3.7 -0.6 -3.8 Q-0.6 -4.15 -0.3 -4.15 0.0 -4.15 0.0 -3.8 M-1.1 -2.85 Q-0.85 -2.85 -0.85 -2.55 L-0.85 -2.5 -0.7 -2.5 Q-0.25 -2.4 -0.25 -1.85 -0.25 -1.75 -0.3 -1.6 -0.45 -1.45 -0.7 -1.45 -0.95 -1.45 -1.1 -1.7 L-1.15 -1.95 -1.15 -2.2 Q-1.25 -2.25 -1.35 -2.4 L-1.4 -2.55 Q-1.4 -2.85 -1.1 -2.85 M-1.35 -0.8 Q-1.15 -0.8 -1.05 -0.65 L-0.9 -0.7 -0.75 -0.7 -0.75 -0.8 Q-0.75 -1.15 -0.5 -1.15 -0.2 -1.15 -0.2 -0.8 -0.2 -0.75 -0.25 -0.65 -0.35 -0.5 -0.5 -0.5 L-0.55 -0.5 -0.55 -0.45 Q-0.65 0.0 -0.95 0.0 -1.05 0.0 -1.1 -0.1 -1.2 0.0 -1.35 0.0 -1.65 0.0 -1.65 -0.4 -1.65 -0.75 -1.35 -0.8 M-0.15 0.35 L-0.15 0.25 Q-0.15 -0.1 0.15 -0.1 0.45 -0.1 0.45 0.25 L0.4 0.45 0.4 0.5 Q0.4 0.85 0.15 0.85 -0.15 0.85 -0.15 0.55 L-0.15 0.35 M-0.9 0.9 Q-0.9 0.15 -0.6 0.05 -0.3 -0.1 -0.3 0.6 L-0.3 0.95 -0.35 1.05 -0.25 1.05 Q0.05 1.05 0.05 1.55 0.05 1.9 -0.15 2.0 L-0.15 2.0 -0.15 2.05 Q0.2 2.1 0.2 2.65 0.2 2.8 0.05 2.95 -0.1 3.15 -0.35 3.15 -0.6 3.15 -0.75 2.9 L-0.9 2.55 Q-0.9 2.2 -0.5 2.1 L-0.6 2.05 -0.75 2.1 Q-1.05 2.1 -1.05 1.7 -1.05 1.3 -0.75 1.35 -0.6 1.35 -0.55 1.4 L-0.5 1.2 -0.6 1.2 Q-0.9 1.2 -0.9 0.9 M-1.05 1.0 L-1.1 1.2 Q-1.2 1.3 -1.3 1.3 -1.6 1.3 -1.6 1.0 -1.6 0.7 -1.3 0.7 -1.05 0.7 -1.05 1.0 M-0.75 3.55 Q-0.75 3.25 -0.5 3.25 -0.2 3.25 -0.2 3.55 -0.2 3.65 -0.25 3.75 -0.35 3.85 -0.5 3.85 -0.65 3.85 -0.7 3.7 L-0.75 3.55 M-0.15 4.5 L-0.3 4.55 Q-0.55 4.55 -0.6 4.2 -0.6 3.9 -0.3 3.9 -0.25 3.8 -0.05 3.85 0.05 3.85 0.1 3.9 0.15 3.6 0.4 3.6 0.7 3.5 0.7 3.95 0.7 4.4 0.4 4.4 L0.2 4.3 0.15 4.4 Q0.1 4.5 -0.1 4.5 L-0.15 4.5 M0.5 2.85 Q0.8 2.85 0.8 3.15 L0.75 3.35 Q0.65 3.5 0.5 3.5 0.35 3.5 0.3 3.35 L0.25 3.15 Q0.25 2.85 0.5 2.85 M0.3 6.8 Q0.05 6.8 0.05 6.5 0.05 6.2 0.3 6.2 0.6 6.2 0.6 6.5 L0.55 6.7 Q0.45 6.8 0.3 6.8 M0.75 5.55 Q0.75 5.7 0.6 5.8 0.5 5.95 0.3 5.95 -0.1 5.95 -0.1 5.55 -0.1 5.0 0.35 5.05 0.75 5.15 0.75 5.55" fill="#0ed0ff" fill-rule="evenodd" stroke="none"/>
    <path d="M0.55 -3.55 Q0.45 -3.4 0.3 -3.4 L0.1 -3.4 0.15 -3.25 Q0.2 -3.1 0.1 -3.05 0.05 -2.9 -0.15 -2.85 -0.4 -2.85 -0.5 -3.0 L-0.55 -3.15 Q-0.6 -3.5 -0.25 -3.55 L-0.05 -3.55 -0.1 -3.7 Q-0.15 -4.0 0.2 -4.05 0.55 -4.1 0.6 -3.75 L0.55 -3.55 M0.0 -1.3 Q-0.3 -1.25 -0.5 -1.5 L-0.6 -1.75 -0.6 -2.0 Q-0.75 -2.0 -0.85 -2.15 L-0.9 -2.3 Q-0.95 -2.65 -0.6 -2.65 -0.3 -2.7 -0.25 -2.35 L-0.25 -2.35 -0.1 -2.35 Q0.45 -2.3 0.5 -1.75 0.55 -1.65 0.45 -1.5 0.3 -1.3 0.0 -1.3 M0.0 -0.6 Q0.0 -0.95 0.3 -1.0 0.65 -1.05 0.7 -0.7 0.7 -0.6 0.6 -0.5 0.55 -0.35 0.4 -0.35 L0.25 -0.35 0.3 -0.25 Q0.2 0.2 -0.1 0.2 L-0.35 0.15 Q-0.45 0.25 -0.6 0.3 -0.95 0.3 -1.0 -0.1 -1.05 -0.45 -0.65 -0.5 -0.45 -0.55 -0.35 -0.4 L-0.15 -0.5 0.05 -0.55 0.0 -0.6 M1.55 0.6 Q1.6 0.95 1.25 1.0 0.9 1.0 0.85 0.65 0.85 0.6 0.9 0.5 L0.85 0.35 Q0.8 0.0 1.15 0.0 1.55 -0.05 1.6 0.3 L1.55 0.55 1.55 0.6 M0.75 1.1 L0.7 1.25 0.8 1.25 Q1.2 1.2 1.25 1.7 1.25 2.05 1.05 2.2 L1.0 2.25 Q1.45 2.25 1.5 2.8 1.55 2.95 1.4 3.1 1.2 3.35 0.95 3.4 0.65 3.4 0.4 3.15 0.25 3.0 0.25 2.85 0.2 2.45 0.6 2.35 L0.55 2.25 0.35 2.35 Q0.0 2.35 -0.1 2.0 -0.15 1.6 0.25 1.55 L0.5 1.6 0.55 1.4 0.4 1.4 Q0.1 1.45 0.0 1.15 -0.05 0.35 0.3 0.2 0.65 0.05 0.75 0.75 L0.75 1.1 M1.95 2.95 Q2.25 2.9 2.3 3.25 L2.25 3.45 Q2.15 3.6 2.0 3.6 1.8 3.6 1.7 3.45 L1.65 3.3 Q1.6 3.0 1.95 2.95 M0.5 3.8 Q0.45 3.5 0.8 3.5 1.1 3.45 1.15 3.75 L1.1 3.95 Q1.0 4.1 0.85 4.1 0.65 4.1 0.55 4.0 L0.5 3.8 M1.7 4.55 Q1.6 4.7 1.4 4.75 L1.3 4.75 1.15 4.8 Q0.85 4.8 0.75 4.5 0.75 4.15 1.05 4.1 1.1 4.05 1.3 4.0 L1.55 4.05 Q1.6 3.8 1.85 3.7 2.2 3.6 2.25 4.05 2.3 4.45 1.95 4.5 L1.7 4.5 1.7 4.55 M2.1 7.0 Q1.75 7.05 1.7 6.75 1.7 6.4 2.05 6.4 2.35 6.35 2.4 6.65 L2.35 6.85 Q2.25 7.0 2.1 7.0 M2.35 5.95 Q2.2 6.1 1.95 6.15 1.5 6.2 1.45 5.75 1.4 5.2 1.95 5.2 2.45 5.25 2.5 5.65 2.5 5.8 2.35 5.95 M-1.75 -12.45 Q-1.6 -12.4 -1.6 -12.3 -1.6 -12.1 -1.7 -12.05 L-1.65 -12.0 -1.55 -11.85 Q-1.55 -11.75 -1.65 -11.65 -1.75 -11.55 -1.85 -11.55 -2.0 -11.5 -2.1 -11.6 -2.2 -11.7 -2.2 -11.8 -2.2 -11.9 -2.1 -12.0 L-2.05 -12.0 -2.1 -12.05 Q-2.25 -12.1 -2.25 -12.2 -2.25 -12.45 -1.95 -12.5 L-1.75 -12.45 M-1.8 -10.95 L-1.6 -10.9 Q-1.45 -10.85 -1.45 -10.75 -1.4 -10.6 -1.5 -10.5 -1.6 -10.45 -1.7 -10.45 -1.85 -10.4 -1.95 -10.5 L-2.1 -10.65 Q-2.1 -10.8 -2.0 -10.85 L-1.8 -10.95 M-1.3 -9.15 Q-0.7 -9.05 -0.7 -8.7 -0.65 -8.55 -0.85 -8.45 -1.0 -8.35 -1.15 -8.35 -1.05 -8.15 -1.2 -8.05 -1.3 -7.95 -1.5 -7.9 -1.6 -7.9 -1.8 -8.05 -1.95 -8.2 -2.0 -8.3 -2.0 -8.6 -1.75 -8.85 -1.5 -9.1 -1.3 -9.15 M-2.95 -8.45 Q-2.95 -8.35 -3.05 -8.25 -3.15 -8.15 -3.25 -8.15 -3.35 -8.15 -3.7 -8.35 -4.1 -8.55 -4.1 -8.7 L-4.2 -8.75 Q-4.3 -8.8 -4.3 -8.9 -4.3 -9.05 -4.15 -9.15 L-4.0 -9.2 -3.75 -9.15 Q-3.7 -9.1 -3.65 -9.0 L-3.35 -8.8 Q-3.0 -8.6 -2.95 -8.45 M-0.35 -6.6 Q-0.35 -6.5 -0.4 -6.4 -0.45 -6.2 -0.7 -6.2 L-0.85 -6.2 -0.9 -6.05 Q-0.95 -5.95 -1.15 -5.9 -1.35 -5.9 -1.45 -6.05 L-1.5 -6.2 Q-1.55 -6.5 -1.25 -6.55 L-1.1 -6.55 Q-1.1 -6.9 -0.75 -6.95 -0.4 -7.0 -0.35 -6.6 M-1.1 -5.45 Q-1.15 -5.85 -0.7 -5.8 -0.35 -5.8 -0.2 -5.5 0.1 -5.5 0.15 -5.15 0.2 -4.8 -0.15 -4.75 L-0.4 -4.8 Q-0.45 -4.75 -0.5 -4.75 L-0.65 -4.75 -0.7 -4.65 -0.65 -4.65 Q-0.3 -4.65 -0.25 -4.3 -0.25 -4.2 -0.3 -4.05 -0.4 -3.9 -0.6 -3.85 -0.8 -3.85 -0.9 -4.0 L-1.0 -4.2 -1.0 -4.45 Q-1.15 -4.45 -1.25 -4.55 L-1.3 -4.75 Q-1.35 -5.05 -1.05 -5.1 L-1.1 -5.45 M-1.3 -5.5 Q-1.3 -5.4 -1.35 -5.3 -1.45 -5.15 -1.6 -5.1 -1.85 -5.1 -1.95 -5.25 L-2.0 -5.4 Q-2.05 -5.8 -1.7 -5.85 -1.35 -5.85 -1.3 -5.5 M-0.8 1.35 Q-0.85 1.0 -0.5 1.0 -0.2 0.95 -0.15 1.25 L-0.15 1.45 Q-0.25 1.6 -0.45 1.65 -0.75 1.65 -0.8 1.35" fill="#0ed0ff" fill-opacity="0.0" fill-rule="evenodd" stroke="none"/>
  </g>
</svg>
