<?xml version="1.0" encoding="UTF-8" standalone="no"?>
<svg xmlns:xlink="http://www.w3.org/1999/xlink" height="14.85px" width="4.1px" xmlns="http://www.w3.org/2000/svg">
  <g transform="matrix(1.0, 0.0, 0.0, 1.0, 2.05, 7.25)">
    <path d="M-0.15 -7.1 L-0.15 -7.2 -0.1 -7.2 0.0 -7.2 Q0.0 -7.15 0.0 -7.1 L0.05 -7.05 0.15 -6.95 0.2 -6.8 0.1 -6.65 -0.05 -6.7 -0.2 -6.7 -0.15 -6.7 -0.15 -6.75 -0.1 -6.7 Q-0.1 -6.7 -0.1 -6.75 -0.05 -6.65 -0.05 -6.75 L-0.1 -6.9 Q-0.1 -6.95 -0.15 -6.85 L-0.15 -6.85 Q-0.15 -6.9 -0.15 -6.95 L-0.15 -7.05 -0.15 -7.1" fill="#6b5b43" fill-rule="evenodd" stroke="none"/>
    <path d="M-0.15 -7.1 L-0.15 -7.05 -0.15 -6.95 Q-0.15 -6.9 -0.15 -6.85 L-0.15 -6.85 Q-0.1 -6.95 -0.1 -6.9 L-0.05 -6.75 Q-0.05 -6.65 -0.1 -6.75 -0.1 -6.7 -0.1 -6.7 L-0.15 -6.75 -0.15 -6.7 -0.2 -6.7 -0.05 -6.7 0.1 -6.65 0.05 -6.6 -0.1 -6.65 -0.2 -6.6 -0.3 -6.7 -0.4 -6.75 -0.35 -6.8 -0.3 -7.0 -0.15 -7.1 -0.15 -7.1" fill="#978468" fill-rule="evenodd" stroke="none"/>
    <path d="M0.05 -6.6 L0.05 -6.5 0.1 -6.45 0.1 -5.5 0.15 -5.5 0.2 -5.5 0.45 -5.45 0.7 -5.45 1.15 -5.45 1.6 -5.5 1.65 -5.4 1.1 -5.4 0.55 -5.35 0.7 -5.2 Q0.8 -5.05 0.75 -4.95 L0.65 -4.95 0.65 -5.15 0.5 -5.3 0.35 -5.35 Q0.3 -5.35 0.25 -5.3 0.25 -5.35 0.2 -5.4 L0.1 -5.4 0.05 -5.35 0.05 -5.45 Q0.05 -5.5 0.1 -5.5 L0.05 -5.5 0.05 -5.5 0.0 -5.5 0.0 -5.45 0.05 -5.4 0.0 -5.35 -0.05 -5.35 -0.1 -5.45 -0.1 -5.45 Q-0.05 -5.45 -0.1 -5.45 L-0.05 -5.5 -0.05 -5.5 -0.1 -5.5 -0.25 -5.5 Q-0.35 -5.5 -0.3 -5.4 L-0.3 -5.35 -0.35 -5.35 -0.4 -5.4 -0.4 -5.5 -0.4 -5.35 -0.45 -5.35 Q-0.45 -5.4 -0.5 -5.4 L-0.55 -5.45 -0.55 -5.5 -0.6 -5.5 -0.75 -5.45 -0.7 -5.5 -0.75 -5.5 -1.0 -5.7 -1.15 -6.0 -1.1 -6.0 -1.15 -6.05 -1.15 -6.1 -1.05 -6.1 -1.05 -6.15 -1.1 -6.2 -1.1 -6.2 Q-1.15 -6.25 -1.1 -6.3 L-1.1 -6.35 -1.05 -6.5 -0.95 -6.6 Q-0.9 -6.75 -0.7 -6.8 L-0.55 -6.8 -0.4 -6.85 -0.35 -6.8 -0.4 -6.75 -0.6 -6.75 -0.85 -6.65 -1.0 -6.5 -1.0 -6.2 -1.0 -6.1 -1.05 -6.05 -1.05 -6.0 Q-1.0 -5.8 -0.9 -5.7 -0.75 -5.55 -0.6 -5.5 L-0.45 -5.55 -0.25 -5.55 -0.25 -6.45 -0.2 -6.5 Q-0.2 -6.55 -0.2 -6.6 L-0.1 -6.65 0.05 -6.6" fill="#514d4a" fill-rule="evenodd" stroke="none"/>
    <path d="M-1.15 -6.0 L-1.2 -6.1 -1.2 -6.2 Q-1.15 -6.25 -1.1 -6.45 L-0.95 -6.6 -1.05 -6.5 -1.1 -6.35 -1.1 -6.3 Q-1.15 -6.25 -1.1 -6.2 L-1.1 -6.2 -1.05 -6.15 -1.05 -6.1 -1.15 -6.1 -1.15 -6.05 -1.1 -6.0 -1.15 -6.0" fill="#a39683" fill-rule="evenodd" stroke="none"/>
    <path d="M-1.0 -5.4 L-1.0 -5.4 -1.05 -5.4 -1.65 -5.4 -1.7 -5.4 -1.75 -5.35 -1.85 -5.5 -1.8 -5.5 -1.7 -5.45 -1.65 -5.4 -1.65 -5.5 -1.3 -5.45 -0.95 -5.45 -1.3 -5.45 -1.65 -5.45 -1.3 -5.4 -1.0 -5.4 Q-0.95 -5.4 -1.0 -5.4" fill="#564f48" fill-rule="evenodd" stroke="none"/>
    <path d="M-0.2 -4.6 L-0.65 -4.65 Q-0.85 -4.75 -0.9 -5.0 L-0.8 -5.2 -0.7 -5.35 -0.85 -5.4 -1.0 -5.4 Q-0.95 -5.4 -1.0 -5.4 L-1.3 -5.4 -1.65 -5.45 -1.3 -5.45 -0.95 -5.45 -0.85 -5.45 -0.75 -5.45 -0.6 -5.5 -0.55 -5.5 -0.55 -5.45 -0.5 -5.4 Q-0.45 -5.4 -0.45 -5.35 L-0.4 -5.35 -0.4 -5.5 -0.4 -5.4 -0.35 -5.35 Q-0.45 -5.25 -0.4 -5.1 L-0.35 -4.85 -0.3 -4.7 -0.2 -4.7 -0.2 -4.6 M-0.45 -4.65 L-0.35 -4.7 -0.45 -4.95 -0.55 -5.25 -0.6 -5.35 -0.75 -5.2 -0.85 -5.05 -0.85 -5.0 -0.9 -5.0 -0.85 -5.0 -0.85 -4.95 -0.8 -4.95 Q-0.85 -4.85 -0.75 -4.75 -0.65 -4.7 -0.55 -4.7 L-0.4 -4.65 -0.35 -4.65 -0.45 -4.65" fill="#797573" fill-rule="evenodd" stroke="none"/>
    <path d="M-1.75 -5.35 L-1.85 -5.35 -2.0 -5.45 -1.9 -5.5 -1.8 -5.5 -1.85 -5.5 -1.75 -5.35" fill="#9d8b70" fill-rule="evenodd" stroke="none"/>
    <path d="M0.25 -4.6 L0.2 -4.6 0.15 -4.6 0.1 -4.55 0.1 -4.8 0.05 -5.15 0.05 -5.2 -0.05 -5.25 -0.05 -4.9 -0.1 -4.95 -0.05 -4.9 -0.05 -4.55 -0.05 -4.75 Q-0.05 -4.9 0.05 -4.85 L0.05 -4.75 0.0 -4.8 -0.05 -4.85 0.0 -4.6 0.0 -4.4 -0.05 -4.4 -0.05 -4.4 Q0.0 -4.35 -0.05 -4.3 L-0.05 -4.1 0.0 -4.05 Q0.0 -4.0 -0.05 -3.95 L-0.05 -3.5 Q-0.05 -3.4 -0.05 -3.6 L-0.05 -3.15 Q-0.05 -2.75 -0.1 -2.65 L-0.1 -4.0 -0.1 -4.3 -0.1 -5.2 Q-0.1 -5.25 -0.15 -5.25 L-0.2 -5.2 Q-0.2 -5.25 -0.25 -5.3 L-0.3 -5.3 -0.3 -5.35 -0.3 -5.4 Q-0.35 -5.5 -0.25 -5.5 L-0.1 -5.5 -0.05 -5.5 -0.05 -5.5 -0.1 -5.45 Q-0.05 -5.45 -0.1 -5.45 L-0.1 -5.45 -0.05 -5.35 0.0 -5.35 0.05 -5.4 0.0 -5.45 0.0 -5.5 0.05 -5.5 0.05 -5.5 0.1 -5.5 Q0.05 -5.5 0.05 -5.45 L0.05 -5.35 0.1 -5.4 0.2 -5.4 Q0.25 -5.35 0.25 -5.3 L0.2 -5.25 0.15 -5.25 Q0.05 -5.25 0.1 -5.2 L0.15 -5.2 0.2 -5.15 0.15 -4.95 0.2 -4.7 0.15 -4.6 Q0.2 -4.6 0.25 -4.6 M-0.05 7.45 L-0.05 7.55 -0.1 7.4 -0.1 2.95 -0.1 -0.45 -0.1 -2.6 -0.05 -2.25 Q0.0 -2.1 -0.05 -2.15 L-0.05 -1.35 0.0 -0.95 Q-0.05 -0.8 -0.05 -0.75 L-0.05 -0.65 Q-0.05 -0.6 0.0 -0.7 L-0.05 0.15 0.0 0.95 Q-0.05 0.8 -0.05 1.0 L-0.05 1.35 -0.05 1.05 -0.05 1.3 -0.05 1.8 -0.05 3.0 -0.05 3.75 Q0.0 3.65 -0.05 4.5 L-0.05 4.9 Q-0.05 4.95 0.0 4.65 L-0.05 7.45" fill="#868688" fill-rule="evenodd" stroke="none"/>
    <path d="M-0.9 -5.0 L-0.9 -5.0 -0.85 -5.0 -0.85 -5.05 -0.75 -5.2 -0.6 -5.35 -0.75 -5.15 -0.75 -4.95 Q-0.75 -4.85 -0.65 -4.75 -0.55 -4.7 -0.45 -4.65 L-0.35 -4.65 -0.4 -4.65 -0.55 -4.7 Q-0.65 -4.7 -0.75 -4.75 -0.85 -4.85 -0.8 -4.95 L-0.85 -4.95 -0.85 -5.0 -0.9 -5.0" fill="#3d3c3c" fill-rule="evenodd" stroke="none"/>
    <path d="M-0.2 -4.4 L-0.25 -4.5 -0.2 -4.55 -0.2 -4.6 -0.2 -4.7 -0.2 -5.2 -0.15 -5.25 Q-0.1 -5.25 -0.1 -5.2 L-0.1 -4.3 -0.1 -4.0 -0.1 -4.35 -0.1 -4.45 -0.15 -4.5 -0.15 -4.45 Q-0.1 -4.4 -0.15 -4.4 L-0.2 -4.4" fill="#b1b1b4" fill-rule="evenodd" stroke="none"/>
    <path d="M0.1 -4.55 L0.1 -4.5 0.0 -4.45 0.0 -4.35 0.0 0.3 0.0 7.4 -0.05 7.45 0.0 4.65 Q-0.05 4.95 -0.05 4.9 L-0.05 4.5 Q0.0 3.65 -0.05 3.75 L-0.05 3.0 -0.05 1.8 -0.05 1.3 -0.05 1.05 -0.05 1.35 -0.05 1.0 Q-0.05 0.8 0.0 0.95 L-0.05 0.15 0.0 -0.7 Q-0.05 -0.6 -0.05 -0.65 L-0.05 -0.75 Q-0.05 -0.8 0.0 -0.95 L-0.05 -1.35 -0.05 -2.15 Q0.0 -2.1 -0.05 -2.25 L-0.1 -2.6 -0.1 -2.65 Q-0.05 -2.75 -0.05 -3.15 L-0.05 -3.6 Q-0.05 -3.4 -0.05 -3.5 L-0.05 -3.95 Q0.0 -4.0 0.0 -4.05 L-0.05 -4.1 -0.05 -4.3 Q0.0 -4.35 -0.05 -4.4 L-0.05 -4.4 0.0 -4.4 0.0 -4.6 -0.05 -4.85 0.0 -4.8 0.05 -4.75 0.05 -4.85 Q-0.05 -4.9 -0.05 -4.75 L-0.05 -4.55 -0.05 -4.9 -0.1 -4.95 -0.05 -4.9 -0.05 -5.25 0.05 -5.2 0.05 -5.15 0.1 -4.8 0.1 -4.55" fill="#c0c0c3" fill-rule="evenodd" stroke="none"/>
    <path d="M-0.2 -1.25 L-0.2 -4.4 -0.15 -4.4 Q-0.1 -4.4 -0.15 -4.45 L-0.15 -4.5 -0.1 -4.45 -0.1 -4.35 -0.1 -4.0 -0.1 -2.65 -0.1 -2.6 -0.1 -0.45 -0.15 -0.85 -0.2 -1.25" fill="#ffffff" fill-rule="evenodd" stroke="none"/>
    <path d="M-0.1 7.4 L-0.2 7.05 -0.2 1.3 -0.2 -1.25 -0.15 -0.85 -0.1 -0.45 -0.1 2.95 -0.1 7.4" fill="#cbcbd0" fill-rule="evenodd" stroke="none"/>
    <path d="M0.2 -5.15 L0.15 -5.2 0.1 -5.2 Q0.05 -5.25 0.15 -5.25 L0.2 -5.25 Q0.3 -5.15 0.3 -4.95 0.3 -4.8 0.25 -4.65 0.25 -4.65 0.3 -4.65 L0.35 -4.65 0.3 -4.65 0.25 -4.6 Q0.2 -4.6 0.15 -4.6 L0.2 -4.7 0.25 -4.9 0.2 -5.15" fill="#3d3b39" fill-rule="evenodd" stroke="none"/>
    <path d="M0.75 -4.95 Q0.7 -4.75 0.55 -4.7 0.4 -4.6 0.25 -4.6 L0.3 -4.65 0.35 -4.65 0.55 -4.75 Q0.65 -4.85 0.65 -4.95 L0.75 -4.95" fill="#73706e" fill-rule="evenodd" stroke="none"/>
    <path d="M1.6 -5.5 L1.7 -5.5 Q1.7 -5.5 1.75 -5.5 1.85 -5.55 1.9 -5.5 L1.95 -5.45 Q2.0 -5.4 1.95 -5.4 1.9 -5.3 1.8 -5.3 L1.65 -5.4 1.6 -5.5" fill="#8b795e" fill-rule="evenodd" stroke="none"/>
    <path d="M0.1 -4.5 L0.1 0.0 0.1 7.05 0.0 7.4 0.0 0.3 0.0 -4.35 0.0 -4.45 0.1 -4.5" fill="#858688" fill-rule="evenodd" stroke="none"/>
    <path d="M0.1 -6.65 L0.2 -6.8 0.15 -6.95 0.05 -7.05 0.0 -7.1 Q0.0 -7.15 0.0 -7.2 L-0.1 -7.2 -0.15 -7.2 -0.15 -7.1 -0.15 -7.1 -0.3 -7.0 -0.35 -6.8 -0.4 -6.85 -0.55 -6.8 -0.7 -6.8 Q-0.9 -6.75 -0.95 -6.6 L-1.1 -6.45 Q-1.15 -6.25 -1.2 -6.2 L-1.2 -6.1 -1.15 -6.0 -1.0 -5.7 -0.75 -5.5 -0.7 -5.5 -0.75 -5.45 -0.85 -5.45 -0.95 -5.45 -1.3 -5.45 -1.65 -5.5 -1.65 -5.4 -1.7 -5.4 -1.75 -5.35 -1.85 -5.35 -2.0 -5.45 -1.9 -5.5 -1.8 -5.5 -1.7 -5.45 -1.65 -5.4 -1.05 -5.4 -1.0 -5.4 -0.85 -5.4 -0.7 -5.35 -0.8 -5.2 -0.9 -5.0 -0.9 -5.0 Q-0.85 -4.75 -0.65 -4.65 L-0.2 -4.6 -0.2 -4.55 -0.25 -4.5 -0.2 -4.4 -0.2 -1.25 -0.2 1.3 -0.2 7.05 -0.1 7.4 -0.05 7.55 -0.05 7.45 0.0 7.4 0.1 7.05 0.1 0.0 0.1 -4.5 0.1 -4.55 0.15 -4.6 0.2 -4.6 0.25 -4.6 Q0.4 -4.6 0.55 -4.7 0.7 -4.75 0.75 -4.95 0.8 -5.05 0.7 -5.2 L0.55 -5.35 1.1 -5.4 1.65 -5.4 1.8 -5.3 Q1.9 -5.3 1.95 -5.4 2.0 -5.4 1.95 -5.45 L1.9 -5.5 Q1.85 -5.55 1.75 -5.5 1.7 -5.5 1.7 -5.5 L1.6 -5.5 1.15 -5.45 0.7 -5.45 0.45 -5.45 0.2 -5.5 0.15 -5.5 0.1 -5.5 0.1 -6.45 0.05 -6.5 0.05 -6.6 0.1 -6.65 M0.25 -5.3 Q0.3 -5.35 0.35 -5.35 L0.5 -5.3 0.65 -5.15 0.65 -4.95 Q0.65 -4.85 0.55 -4.75 L0.35 -4.65 0.3 -4.65 Q0.25 -4.65 0.25 -4.65 0.3 -4.8 0.3 -4.95 0.3 -5.15 0.2 -5.25 L0.25 -5.3 M0.2 -5.15 L0.25 -4.9 0.2 -4.7 0.15 -4.95 0.2 -5.15 M-0.4 -6.75 L-0.6 -6.75 -0.85 -6.65 -1.0 -6.5 -1.0 -6.2 -1.0 -6.1 -1.05 -6.05 -1.05 -6.0 Q-1.0 -5.8 -0.9 -5.7 -0.75 -5.55 -0.6 -5.5 L-0.45 -5.55 -0.25 -5.55 -0.25 -6.45 -0.2 -6.5 Q-0.2 -6.55 -0.2 -6.6 L-0.3 -6.7 -0.4 -6.75 M-0.35 -5.35 L-0.3 -5.35 -0.3 -5.3 -0.25 -5.3 Q-0.2 -5.25 -0.2 -5.2 L-0.2 -4.7 -0.3 -4.7 -0.35 -4.85 -0.4 -5.1 Q-0.45 -5.25 -0.35 -5.35 M-0.45 -4.65 L-0.35 -4.7 -0.45 -4.95 -0.55 -5.25 -0.6 -5.35 -0.75 -5.15 -0.75 -4.95 Q-0.75 -4.85 -0.65 -4.75 -0.55 -4.7 -0.45 -4.65 Z" fill="none" stroke="#000000" stroke-linecap="round" stroke-linejoin="round" stroke-opacity="0.4509804" stroke-width="0.1"/>
  </g>
</svg>
