<?xml version="1.0" encoding="UTF-8" standalone="no"?>
<svg xmlns:xlink="http://www.w3.org/1999/xlink" height="17.95px" width="3.0px" xmlns="http://www.w3.org/2000/svg">
  <g transform="matrix(1.0, 0.0, 0.0, 1.0, 1.5, 7.65)">
    <path d="M-0.95 -7.2 L-0.9 -7.2 -0.85 -7.3 -0.8 -7.25 -0.8 -7.2 -0.6 -7.3 -0.65 -7.15 -0.6 -7.15 -0.6 -7.15 -0.6 -7.05 -0.55 -7.0 -0.6 -6.95 -0.4 -6.75 -0.35 -6.85 -0.35 -6.85 -0.3 -6.85 -0.3 -6.85 Q-0.35 -6.9 -0.35 -6.9 L-0.35 -6.95 Q-0.25 -6.95 -0.2 -7.0 L0.05 -6.75 0.3 -6.5 0.35 -6.35 Q0.35 -6.3 0.35 -6.25 L0.45 -6.05 0.5 -5.85 0.55 -5.85 Q0.75 -5.85 0.85 -5.65 L0.9 -5.4 0.9 -5.25 0.85 -5.15 0.8 -5.1 0.7 -5.05 0.75 -5.0 0.75 -5.0 0.8 -4.95 Q0.9 -4.85 0.9 -4.75 0.9 -4.55 0.75 -4.45 L0.65 -4.35 0.7 -4.15 0.65 -4.0 0.65 -4.05 0.6 -4.1 0.6 -4.1 0.5 -3.95 0.5 -3.9 0.55 -3.9 Q0.55 -3.9 0.55 -3.95 L0.65 -3.95 0.65 -3.85 0.55 -3.6 0.35 -3.4 0.35 -3.45 0.35 -3.55 0.45 -3.6 Q0.55 -3.7 0.6 -3.8 L0.6 -3.9 Q0.5 -3.8 0.4 -3.85 L0.4 -3.85 0.4 -3.95 0.45 -4.0 Q0.6 -4.05 0.6 -4.15 L0.55 -4.3 0.4 -4.25 0.4 -4.35 0.45 -4.35 0.4 -4.4 0.4 -4.5 0.4 -4.55 0.55 -4.5 0.6 -4.45 0.7 -4.5 Q0.85 -4.6 0.85 -4.7 L0.75 -4.9 0.7 -4.95 0.65 -5.0 0.65 -5.0 0.45 -4.9 0.45 -4.85 0.3 -4.85 0.2 -4.8 0.05 -4.75 -0.05 -4.7 -0.05 -4.65 0.05 -4.65 0.05 -4.55 0.05 -4.45 0.05 -4.55 0.0 -4.5 -0.05 -4.4 -0.05 -4.6 -0.2 -4.65 -0.45 -4.5 -0.5 -4.5 -0.5 -4.5 -0.55 -4.55 -0.55 -4.5 -0.7 -4.55 -0.7 -4.5 Q-0.6 -4.5 -0.55 -4.35 L-0.45 -4.2 -0.45 -4.2 -0.5 -4.45 -0.5 -4.45 -0.45 -4.4 -0.4 -4.4 -0.4 -4.45 -0.1 -4.35 -0.05 -4.35 -0.05 -4.25 -0.15 -4.25 -0.5 -4.35 Q-0.45 -4.25 -0.25 -4.15 L-0.05 -4.1 -0.05 -4.0 -0.15 -4.0 Q-0.65 -4.0 -0.65 -4.4 L-0.65 -4.45 -0.7 -4.45 -0.7 -4.45 -0.7 -4.5 -0.75 -4.45 -0.7 -4.4 -0.7 -4.4 -0.7 -4.3 Q-0.75 -4.05 -0.4 -3.75 L-0.05 -3.5 -0.1 -3.4 -0.65 -3.85 -0.75 -4.1 -0.8 -4.3 -0.75 -4.5 Q-1.0 -4.7 -0.95 -4.95 -0.95 -5.05 -0.85 -5.2 L-0.85 -5.2 -0.8 -5.25 -0.8 -5.3 -0.7 -5.35 -0.7 -5.35 -0.65 -5.5 Q-0.55 -5.75 -0.35 -5.7 L-0.25 -5.75 -0.25 -5.85 -0.3 -6.1 Q-0.3 -6.3 -0.4 -6.5 L-0.5 -6.6 -0.6 -6.7 -0.7 -6.8 -0.85 -6.85 Q-1.0 -6.8 -1.1 -6.65 L-1.25 -6.4 -1.3 -6.55 -1.2 -6.65 -1.1 -6.8 -1.0 -6.9 Q-0.95 -6.95 -0.95 -7.05 L-0.8 -7.15 -0.95 -7.15 -0.95 -7.2 M0.0 -6.15 L0.1 -6.25 0.1 -6.3 -0.05 -6.3 0.0 -6.3 -0.05 -6.35 -0.05 -6.35 -0.1 -6.35 -0.1 -6.25 -0.15 -6.15 -0.1 -6.15 -0.05 -6.15 0.0 -6.15 0.0 -6.15 M-0.05 -6.3 L-0.05 -6.3 M0.75 -5.65 L0.8 -5.65 0.65 -5.8 0.5 -5.8 0.5 -5.8 0.75 -5.65 M0.75 -5.3 L0.8 -5.45 Q0.8 -5.55 0.65 -5.7 L0.55 -5.75 0.55 -5.6 0.6 -5.4 Q0.5 -5.45 0.4 -5.55 L0.4 -5.55 0.35 -5.6 0.3 -5.6 0.05 -5.65 -0.05 -5.55 -0.15 -5.4 -0.15 -5.2 -0.15 -5.0 -0.25 -5.05 Q-0.3 -5.1 -0.3 -5.0 L-0.3 -4.95 -0.25 -4.9 -0.25 -4.8 -0.4 -4.7 -0.5 -4.6 -0.5 -4.6 -0.45 -4.6 -0.2 -4.75 -0.2 -4.75 -0.1 -4.75 Q0.0 -4.8 0.05 -4.85 L0.0 -4.85 0.0 -4.9 0.15 -4.9 0.15 -4.9 0.25 -4.95 0.4 -5.0 0.55 -5.05 0.6 -5.15 0.75 -5.3 0.65 -5.2 0.55 -5.05 0.6 -5.0 Q0.65 -5.05 0.75 -5.15 L0.8 -5.2 0.85 -5.25 0.85 -5.4 0.9 -5.45 0.85 -5.5 0.85 -5.45 0.8 -5.35 0.75 -5.3 M-0.3 -4.95 L-0.55 -5.05 -0.4 -4.95 -0.3 -4.85 -0.3 -4.95 M0.05 -5.95 L0.2 -6.05 0.15 -6.05 -0.05 -6.05 -0.15 -5.95 -0.15 -5.95 -0.1 -5.9 0.0 -5.95 0.05 -5.95 0.05 -5.95 M0.0 -6.1 L0.05 -6.1 -0.05 -6.1 -0.05 -6.1 0.0 -6.1 M0.05 -5.85 L0.1 -5.85 0.15 -5.9 0.1 -5.9 0.0 -5.9 -0.1 -5.85 -0.05 -5.8 0.05 -5.85 M0.0 -5.7 L0.05 -5.65 0.05 -5.7 0.25 -5.75 0.25 -5.85 Q-0.15 -5.8 -0.15 -5.75 L-0.1 -5.7 0.0 -5.7 M0.55 -4.3 L0.6 -4.25 0.65 -4.3 Q0.6 -4.3 0.6 -4.35 0.6 -4.4 0.65 -4.4 L0.65 -4.45 0.55 -4.4 0.5 -4.4 Q0.5 -4.35 0.55 -4.3 M0.4 -3.85 L0.4 -3.85 M0.9 -4.75 L0.8 -4.9 0.8 -4.9 Q0.85 -4.8 0.9 -4.75 L0.9 -4.75 M-0.25 -6.75 L-0.25 -6.8 -0.3 -6.8 -0.3 -6.75 -0.3 -6.75 -0.35 -6.7 -0.3 -6.65 -0.3 -6.65 -0.35 -6.6 -0.35 -6.5 -0.25 -6.6 -0.2 -6.55 -0.25 -6.5 -0.2 -6.45 -0.2 -6.45 -0.15 -6.45 -0.1 -6.5 -0.1 -6.5 -0.1 -6.55 -0.15 -6.55 -0.1 -6.65 -0.15 -6.65 -0.1 -6.65 -0.15 -6.7 -0.2 -6.7 -0.25 -6.7 -0.25 -6.75 M-0.15 -6.45 L-0.25 -6.4 -0.2 -6.35 -0.2 -6.35 Q-0.15 -6.35 -0.05 -6.4 L0.05 -6.45 Q0.0 -6.55 -0.1 -6.45 L-0.15 -6.45 M-0.6 -5.35 L-0.6 -5.25 -0.6 -5.2 -0.55 -5.2 -0.55 -5.2 -0.3 -5.2 -0.25 -5.2 -0.25 -5.25 -0.2 -5.4 -0.3 -5.4 -0.3 -5.35 -0.25 -5.65 -0.4 -5.55 -0.6 -5.35 M-0.75 -5.25 L-0.75 -5.25 -0.75 -5.25 -0.75 -5.25 M-0.8 -5.15 L-0.9 -4.9 Q-0.9 -4.7 -0.6 -4.55 L-0.4 -4.75 Q-0.65 -4.9 -0.7 -5.1 L-0.8 -5.15 M-0.05 -4.85 L-0.05 -4.85 -0.05 -4.85 -0.1 -4.85 -0.15 -4.9 -0.1 -4.85 -0.05 -4.85 M-0.3 -4.8 L-0.45 -4.95 Q-0.6 -5.05 -0.6 -5.0 L-0.5 -4.9 -0.35 -4.8 -0.3 -4.8" fill="#503106" fill-rule="evenodd" stroke="none"/>
    <path d="M-1.15 -6.95 L-1.05 -7.05 -0.95 -7.15 -0.8 -7.15 -0.95 -7.05 Q-0.95 -6.95 -1.0 -6.9 L-1.1 -6.8 -1.2 -6.75 -1.25 -6.7 -1.2 -6.85 -1.15 -6.95 M0.0 -6.15 L0.0 -6.15 -0.05 -6.15 -0.05 -6.15 -0.05 -6.25 0.0 -6.2 0.0 -6.15 M-0.1 -6.25 L-0.1 -6.35 -0.05 -6.35 -0.05 -6.3 -0.05 -6.3 -0.05 -6.25 -0.1 -6.25 M0.0 -5.95 L0.0 -5.95 -0.05 -6.0 0.05 -6.0 0.05 -5.95 0.05 -5.95 0.0 -5.95 M0.05 -5.85 L0.0 -5.85 0.0 -5.9 0.05 -5.9 0.05 -5.85 M0.05 -5.7 L0.05 -5.65 0.0 -5.7 0.0 -5.7 0.05 -5.75 0.05 -5.7 M-0.45 -7.0 L-0.4 -6.95 -0.4 -6.95 Q-0.4 -6.95 -0.45 -6.95 L-0.5 -7.0 -0.45 -7.0 M-0.35 -6.9 Q-0.35 -6.9 -0.3 -6.85 L-0.3 -6.85 -0.35 -6.85 -0.35 -6.85 -0.4 -6.9 -0.35 -6.9 M-0.3 -6.75 L-0.3 -6.8 -0.25 -6.8 -0.25 -6.75 -0.3 -6.75 -0.3 -6.75 M-0.15 -6.65 L-0.1 -6.65 -0.15 -6.55 -0.2 -6.55 -0.2 -6.55 -0.25 -6.6 -0.25 -6.65 Q-0.25 -6.7 -0.2 -6.7 L-0.15 -6.65 M-0.1 -6.5 L-0.1 -6.5 -0.15 -6.45 -0.2 -6.45 -0.2 -6.5 -0.15 -6.55 -0.1 -6.5 M-0.15 -6.45 L-0.15 -6.45" fill="#c4ab80" fill-rule="evenodd" stroke="none"/>
    <path d="M0.65 -4.0 L0.65 -3.95 0.55 -3.95 Q0.55 -3.9 0.55 -3.9 L0.5 -3.9 0.5 -3.95 0.6 -4.1 0.6 -4.1 0.65 -4.05 0.65 -4.0 M-0.85 -5.2 L-1.0 -5.25 -1.0 -5.25 -1.15 -5.4 Q-1.35 -5.6 -1.4 -5.9 L-1.4 -5.95 -1.45 -6.15 -1.45 -6.25 -1.4 -6.4 -1.4 -6.1 -1.35 -6.4 Q-1.3 -6.6 -1.2 -6.65 L-1.3 -6.55 -1.25 -6.4 Q-1.3 -6.15 -1.2 -5.9 L-1.2 -5.85 Q-1.1 -5.6 -0.9 -5.45 L-0.7 -5.35 -0.7 -5.35 -0.8 -5.3 -0.9 -5.3 -0.8 -5.25 -0.85 -5.2 -0.85 -5.2 M-0.05 -6.3 L0.1 -6.3 0.1 -6.25 0.0 -6.15 0.0 -6.2 -0.05 -6.25 -0.05 -6.15 -0.05 -6.15 -0.1 -6.15 -0.15 -6.15 -0.1 -6.25 -0.05 -6.25 -0.05 -6.3 -0.05 -6.35 -0.05 -6.35 0.0 -6.3 -0.05 -6.3 M0.75 -5.65 L0.5 -5.8 0.5 -5.8 0.65 -5.8 0.8 -5.65 0.75 -5.65 M0.0 -4.9 L0.0 -4.85 0.05 -4.85 Q0.0 -4.8 -0.1 -4.75 L-0.2 -4.75 -0.2 -4.75 -0.45 -4.6 -0.5 -4.6 -0.5 -4.6 -0.4 -4.7 -0.25 -4.8 -0.25 -4.9 -0.3 -4.95 -0.3 -5.0 Q-0.3 -5.1 -0.25 -5.05 L-0.15 -5.0 -0.15 -4.9 -0.1 -4.85 -0.05 -4.85 -0.05 -4.85 0.0 -4.9 M0.0 -5.95 L-0.1 -5.9 -0.15 -5.95 -0.15 -5.95 -0.05 -6.05 0.15 -6.05 0.2 -6.05 0.05 -5.95 0.05 -6.0 -0.05 -6.0 0.0 -5.95 0.0 -5.95 M0.0 -6.1 L-0.05 -6.1 -0.05 -6.1 0.05 -6.1 0.0 -6.1 M0.05 -5.85 L-0.05 -5.8 -0.1 -5.85 0.0 -5.9 0.1 -5.9 0.15 -5.9 0.1 -5.85 0.05 -5.85 0.05 -5.9 0.0 -5.9 0.0 -5.85 0.05 -5.85 M0.0 -5.7 L-0.1 -5.7 -0.15 -5.75 Q-0.15 -5.8 0.25 -5.85 L0.25 -5.75 0.05 -5.7 0.05 -5.75 0.0 -5.7 0.0 -5.7 M0.85 -5.25 L0.8 -5.2 0.75 -5.15 Q0.65 -5.05 0.6 -5.0 L0.55 -5.05 0.65 -5.2 0.75 -5.3 0.8 -5.35 0.85 -5.45 0.85 -5.5 0.9 -5.45 0.85 -5.4 0.85 -5.25 M0.55 -4.3 Q0.5 -4.35 0.5 -4.4 L0.55 -4.4 0.65 -4.45 0.65 -4.4 Q0.6 -4.4 0.6 -4.35 0.6 -4.3 0.65 -4.3 L0.6 -4.25 0.55 -4.3 M0.9 -4.75 L0.9 -4.75 Q0.85 -4.8 0.8 -4.9 L0.8 -4.9 0.9 -4.75 M-0.3 -6.75 L-0.3 -6.75 -0.25 -6.75 -0.25 -6.7 -0.2 -6.7 -0.15 -6.7 -0.1 -6.65 -0.15 -6.65 -0.2 -6.7 Q-0.25 -6.7 -0.25 -6.65 L-0.25 -6.6 -0.35 -6.5 -0.35 -6.6 -0.3 -6.65 -0.3 -6.65 -0.35 -6.7 -0.3 -6.75 -0.3 -6.75 M-0.15 -6.55 L-0.1 -6.55 -0.1 -6.5 -0.15 -6.55 -0.2 -6.5 -0.2 -6.45 -0.2 -6.45 -0.25 -6.5 -0.2 -6.55 -0.2 -6.55 -0.15 -6.55 M-0.15 -6.45 L-0.1 -6.45 Q0.0 -6.55 0.05 -6.45 L-0.05 -6.4 Q-0.15 -6.35 -0.2 -6.35 L-0.2 -6.35 -0.25 -6.4 -0.15 -6.45 -0.15 -6.45 M-0.6 -5.25 L-0.6 -5.35 -0.3 -5.35 -0.3 -5.4 -0.25 -5.25 -0.25 -5.2 -0.3 -5.2 -0.55 -5.2 -0.55 -5.2 -0.6 -5.25 -0.6 -5.25 M-1.0 -5.4 L-0.9 -5.3 -1.0 -5.45 -1.1 -5.5 -1.0 -5.4 M-0.75 -5.25 L-0.75 -5.25 -0.75 -5.25 -0.75 -5.25 M-0.3 -4.8 L-0.35 -4.8 -0.5 -4.9 -0.6 -5.0 Q-0.6 -5.05 -0.45 -4.95 L-0.3 -4.8 M-0.4 -4.45 L-0.4 -4.4 -0.45 -4.4 -0.5 -4.45 -0.5 -4.45 -0.45 -4.2 -0.45 -4.2 -0.55 -4.35 Q-0.6 -4.5 -0.7 -4.5 L-0.7 -4.55 -0.55 -4.5 -0.55 -4.55 -0.5 -4.5 -0.5 -4.5 -0.45 -4.5 -0.4 -4.45 M-0.7 -4.45 L-0.7 -4.4 -0.7 -4.4 -0.75 -4.45 -0.7 -4.5 -0.7 -4.45" fill="#6f4910" fill-rule="evenodd" stroke="none"/>
    <path d="M-0.95 -7.2 Q-0.95 -7.35 -0.8 -7.45 -0.7 -7.55 -0.55 -7.55 L-0.4 -7.5 -0.3 -7.4 -0.3 -7.25 Q-0.3 -7.15 -0.25 -7.15 L0.05 -6.8 0.3 -6.5 0.05 -6.75 -0.2 -7.0 Q-0.25 -6.95 -0.35 -6.95 L-0.45 -7.05 -0.5 -7.15 -0.35 -7.35 -0.5 -7.3 -0.5 -7.2 -0.55 -7.15 -0.55 -7.15 -0.6 -7.15 -0.6 -7.15 -0.65 -7.15 -0.6 -7.3 -0.8 -7.2 -0.8 -7.25 -0.85 -7.3 -0.9 -7.2 -0.95 -7.2 M-0.5 -7.5 Q-0.65 -7.5 -0.7 -7.45 -0.65 -7.4 -0.6 -7.35 L-0.45 -7.35 Q-0.4 -7.45 -0.5 -7.5 M-0.75 -7.3 L-0.75 -7.35 -0.75 -7.3 Q-0.75 -7.25 -0.75 -7.3" fill="#774e19" fill-rule="evenodd" stroke="none"/>
    <path d="M0.9 -5.25 L1.0 -5.2 1.05 -5.2 1.1 -5.15 1.2 -5.1 1.3 -5.0 1.4 -4.85 1.35 -4.8 1.3 -4.85 1.3 -4.85 1.25 -4.85 1.2 -4.85 1.15 -4.8 1.15 -4.95 1.2 -4.95 1.1 -5.05 0.95 -5.15 0.85 -5.15 0.85 -5.15 0.9 -5.25 M0.75 -5.3 L0.6 -5.15 0.55 -5.05 0.55 -5.15 0.45 -5.15 0.5 -5.2 0.55 -5.35 0.4 -5.35 0.4 -5.55 0.4 -5.55 Q0.5 -5.45 0.6 -5.4 L0.75 -5.3" fill="#724f19" fill-rule="evenodd" stroke="none"/>
    <path d="M0.05 -5.65 L0.3 -5.6 0.35 -5.6 0.4 -5.55 0.4 -5.35 0.4 -5.3 0.3 -5.4 0.35 -5.3 0.25 -5.2 0.25 -5.2 0.25 -5.2 0.2 -5.3 0.1 -5.4 0.0 -5.4 0.05 -5.65 M0.2 -5.6 L0.15 -5.6 Q0.1 -5.55 0.15 -5.45 L0.15 -5.55 0.25 -5.5 0.3 -5.45 0.3 -5.6 0.2 -5.6" fill="#ad8b57" fill-rule="evenodd" stroke="none"/>
    <path d="M0.2 -5.6 L0.3 -5.6 0.3 -5.45 0.25 -5.5 0.15 -5.55 0.15 -5.45 Q0.1 -5.55 0.15 -5.6 L0.2 -5.6" fill="#8e6e38" fill-rule="evenodd" stroke="none"/>
    <path d="M0.55 -5.05 L0.4 -5.0 0.4 -5.2 0.35 -5.3 0.3 -5.4 0.4 -5.3 0.4 -5.35 0.55 -5.35 0.5 -5.2 0.45 -5.15 0.55 -5.15 0.55 -5.05" fill="#87622c" fill-rule="evenodd" stroke="none"/>
    <path d="M0.25 -4.95 L0.15 -4.9 0.1 -4.95 Q0.05 -5.0 0.1 -5.05 L0.2 -5.1 0.15 -5.2 0.15 -5.25 0.0 -5.35 0.0 -5.4 0.1 -5.4 0.2 -5.3 0.25 -5.2 0.25 -5.2 0.2 -5.05 0.25 -4.95 M0.45 -4.85 L0.4 -4.85 0.3 -4.85 0.45 -4.85" fill="#9d7f46" fill-rule="evenodd" stroke="none"/>
    <path d="M-0.15 -5.0 L-0.15 -5.2 -0.15 -5.4 -0.05 -5.55 0.05 -5.65 0.0 -5.4 0.0 -5.35 0.0 -5.2 -0.05 -5.15 -0.05 -4.85 -0.1 -4.85 -0.15 -4.9 -0.15 -5.0" fill="#775216" fill-rule="evenodd" stroke="none"/>
    <path d="M0.15 -4.9 L0.15 -4.9 0.0 -4.9 -0.05 -4.85 -0.05 -5.15 0.0 -5.2 0.0 -5.35 0.15 -5.25 0.15 -5.2 0.2 -5.1 0.1 -5.05 Q0.05 -5.0 0.1 -4.95 L0.15 -4.9 M0.4 -4.8 Q0.3 -4.7 0.2 -4.7 L0.05 -4.75 0.2 -4.8 0.3 -4.85 0.4 -4.85 0.45 -4.85 0.45 -4.9 0.4 -4.8 M-0.05 -4.85 L-0.05 -4.85" fill="#cab27d" fill-rule="evenodd" stroke="none"/>
    <path d="M0.4 -5.0 L0.25 -4.95 0.2 -5.05 0.25 -5.2 0.25 -5.2 0.35 -5.3 0.4 -5.2 0.4 -5.0" fill="#c3ac7b" fill-rule="evenodd" stroke="none"/>
    <path d="M0.8 -5.1 L0.85 -5.15 0.85 -5.15 0.95 -5.15 1.1 -5.05 1.2 -4.95 1.15 -4.95 1.1 -5.0 Q1.05 -5.05 0.9 -5.1 L0.85 -5.1 0.8 -5.1" fill="#fffcb5" fill-rule="evenodd" stroke="none"/>
    <path d="M1.1 -4.85 L1.05 -4.9 0.85 -5.0 0.75 -5.0 0.75 -5.0 0.7 -5.05 0.8 -5.1 0.85 -5.1 0.9 -5.1 Q1.05 -5.05 1.1 -5.0 L1.15 -4.95 1.15 -4.8 1.1 -4.85 M0.45 -4.9 L0.65 -5.0 0.65 -5.0 0.7 -4.95 0.6 -4.95 0.55 -4.75 0.55 -4.75 0.5 -4.75 0.55 -4.8 0.45 -4.75 0.4 -4.8 0.45 -4.9 M0.4 -4.65 L0.4 -4.55 0.4 -4.65 0.4 -4.65" fill="#4b2a05" fill-rule="evenodd" stroke="none"/>
    <path d="M1.4 -4.85 L1.45 -4.75 1.45 -4.65 1.4 -4.6 1.4 -4.5 1.3 -4.45 1.2 -4.45 Q1.15 -4.45 1.1 -4.5 L1.1 -4.65 1.1 -4.85 1.15 -4.8 1.2 -4.85 1.3 -4.85 1.35 -4.8 1.4 -4.85 M1.35 -4.65 L1.3 -4.7 1.2 -4.7 1.2 -4.6 1.3 -4.65 1.3 -4.65 1.35 -4.55 1.35 -4.6 1.4 -4.6 1.35 -4.65" fill="#673a05" fill-rule="evenodd" stroke="none"/>
    <path d="M1.35 -4.65 L1.4 -4.6 1.35 -4.6 1.35 -4.55 1.3 -4.65 1.3 -4.65 1.2 -4.6 1.2 -4.7 1.3 -4.7 1.35 -4.65 M-0.8 -5.3 L-0.8 -5.25 -0.9 -5.3 -0.8 -5.3 M-0.55 -5.2 L-0.6 -5.2 -0.6 -5.25 -0.6 -5.25 -0.55 -5.2 M-0.75 -5.25 L-0.75 -5.25 -0.75 -5.25" fill="#b5944e" fill-rule="evenodd" stroke="none"/>
    <path d="M1.2 -4.85 L1.25 -4.85 1.3 -4.85 1.3 -4.85 1.2 -4.85" fill="#cca668" fill-rule="evenodd" stroke="none"/>
    <path d="M0.5 -4.75 L0.5 -4.7 0.45 -4.65 0.4 -4.65 0.35 -4.65 0.35 -4.65 0.3 -4.55 0.2 -4.45 Q0.15 -4.5 0.05 -4.55 L0.05 -4.65 -0.05 -4.65 -0.05 -4.7 0.05 -4.75 0.2 -4.7 Q0.3 -4.7 0.4 -4.8 L0.45 -4.75 0.55 -4.8 0.5 -4.75 M0.4 -4.65 L0.4 -4.65 M0.45 -4.65 L0.45 -4.65" fill="#331603" fill-rule="evenodd" stroke="none"/>
    <path d="M-0.1 -2.95 L-0.1 -3.4 -0.05 -3.5 -0.1 -3.6 -0.05 -3.9 -0.05 -4.0 0.0 -4.1 0.0 -4.25 0.0 -4.5 0.05 -4.55 0.05 -4.45 0.05 -4.2 Q0.1 -4.25 0.1 -4.25 0.1 -4.35 0.2 -4.45 L0.3 -4.55 0.35 -4.65 0.35 -4.65 0.4 -4.65 0.4 -4.55 0.4 -4.5 0.4 -4.4 0.4 -4.35 0.4 -4.25 0.4 -4.1 0.4 -3.95 0.4 -3.85 0.35 -3.7 0.3 -3.95 0.25 -4.0 0.25 -4.05 0.3 -4.25 0.3 -4.25 0.2 -4.3 0.3 -4.4 0.25 -4.45 0.15 -4.3 0.15 -4.2 0.2 -4.1 0.15 -4.05 0.15 -4.05 0.1 -4.0 0.05 -3.85 0.05 -3.95 0.0 -4.1 0.0 -3.7 0.0 -3.6 -0.05 -3.5 -0.05 -3.0 -0.05 -2.65 -0.1 -2.7 -0.1 -2.95 M0.55 -4.75 L0.5 -4.7 0.5 -4.75 0.55 -4.75 M0.45 -4.65 L0.45 -4.65 0.45 -4.65" fill="#8e6b46" fill-rule="evenodd" stroke="none"/>
    <path d="M0.0 -4.5 L0.0 -4.25 0.0 -4.1 -0.05 -4.0 -0.05 -3.9 -0.05 -4.0 -0.05 -4.1 -0.05 -4.25 -0.05 -4.35 -0.05 -4.4 0.0 -4.5" fill="#664522" fill-rule="evenodd" stroke="none"/>
    <path d="M0.2 -4.45 Q0.1 -4.35 0.1 -4.25 0.1 -4.25 0.05 -4.2 L0.05 -4.45 0.05 -4.55 Q0.15 -4.5 0.2 -4.45" fill="#6f4925" fill-rule="evenodd" stroke="none"/>
    <path d="M0.35 -3.45 L0.35 -3.3 0.35 -3.2 0.35 -3.05 0.3 -2.9 0.3 -2.85 0.3 -3.35 0.25 -3.1 Q0.25 -3.15 0.25 -3.3 L0.3 -3.5 0.3 -3.6 0.25 -3.65 0.25 -3.7 0.2 -3.85 0.15 -3.8 0.1 -3.65 0.15 -3.6 0.15 -3.55 0.1 -3.3 0.05 -3.05 0.15 -3.0 0.15 -2.9 0.2 -2.85 0.15 -2.8 0.1 -2.8 Q0.05 -2.8 0.05 -2.65 L0.1 -2.55 0.1 -2.5 0.05 -2.55 0.1 -2.45 0.05 -2.4 0.05 -2.25 0.1 -2.25 0.15 -2.25 0.1 -2.1 0.15 -2.2 0.15 -2.1 0.05 -2.05 0.0 -2.05 0.0 -2.1 0.0 -2.45 -0.05 -2.45 -0.05 -2.25 0.0 -2.25 -0.05 -2.1 -0.1 -2.25 -0.1 -2.7 -0.05 -2.65 -0.05 -3.0 -0.05 -3.5 0.0 -3.6 0.0 -3.7 0.0 -4.1 0.05 -3.95 0.05 -3.85 0.1 -4.0 0.15 -4.05 0.15 -4.05 0.2 -4.1 0.15 -4.2 0.15 -4.3 0.25 -4.45 0.3 -4.4 0.2 -4.3 0.3 -4.25 0.3 -4.25 0.25 -4.05 0.25 -4.0 0.3 -3.95 0.35 -3.7 0.4 -3.85 0.4 -3.85 0.35 -3.6 0.35 -3.55 0.35 -3.45 M0.05 -2.05 L0.05 -2.05 M0.15 -2.1 L0.15 -2.1 M0.05 -3.55 L0.05 -3.55 0.1 -3.6 0.1 -3.65 0.05 -3.55 M-0.05 -2.55 L0.0 -2.7 -0.05 -2.8 -0.05 -2.55" fill="#a78664" fill-rule="evenodd" stroke="none"/>
    <path d="M0.2 2.2 L0.2 2.9 0.15 4.0 0.1 3.85 0.05 3.75 0.05 3.8 0.0 3.8 0.0 3.7 -0.05 3.75 0.0 2.9 0.0 2.9 0.0 1.95 0.0 1.95 Q0.05 1.95 0.1 2.15 L0.15 2.2 0.15 2.25 0.2 2.2 M0.15 4.4 L0.15 4.6 0.1 4.65 0.1 4.85 0.05 4.9 0.05 5.15 0.0 5.15 -0.05 5.4 -0.1 5.7 -0.1 5.5 -0.1 5.3 -0.1 5.2 -0.05 4.9 -0.05 4.75 0.0 4.55 0.0 4.4 0.05 4.4 0.05 4.35 0.1 4.35 0.15 4.4 M0.15 6.2 L0.1 7.15 0.1 7.65 0.1 8.8 0.05 9.55 0.0 8.8 0.0 8.7 0.0 8.65 0.0 8.1 0.05 6.4 0.0 6.05 0.0 5.95 0.0 5.9 0.05 5.95 0.1 6.15 0.15 6.2 M0.05 -2.05 L0.15 -2.1 0.15 -2.2 0.1 -2.1 0.15 -2.25 0.1 -2.25 0.05 -2.25 0.05 -2.4 0.1 -2.45 0.05 -2.55 0.1 -2.5 0.1 -2.55 0.05 -2.65 Q0.05 -2.8 0.1 -2.8 L0.15 -2.8 0.2 -2.85 0.15 -2.9 0.15 -3.0 0.05 -3.05 0.1 -3.3 0.15 -3.55 0.15 -3.6 0.1 -3.65 0.15 -3.8 0.2 -3.85 0.25 -3.7 0.25 -3.65 0.25 -3.6 0.2 -2.95 0.25 -2.6 0.15 -2.15 0.15 -2.1 0.15 -1.9 0.15 -1.8 0.15 -0.65 0.1 -0.4 0.15 -0.3 0.2 -0.25 0.25 -0.45 0.25 -0.3 0.2 -0.15 0.25 0.0 0.25 0.0 0.2 0.15 0.2 0.1 0.15 0.2 0.15 0.35 0.2 0.5 0.15 0.55 0.15 0.8 0.1 0.95 0.1 1.05 0.15 1.2 0.1 1.3 0.1 1.35 0.05 1.45 0.0 1.35 0.05 0.9 0.0 0.8 0.05 0.65 0.0 0.5 0.0 0.5 -0.05 0.35 0.0 0.3 0.0 0.3 -0.05 0.1 0.0 0.05 0.0 0.0 0.0 -0.1 0.05 -0.15 0.1 -0.15 0.05 -0.25 0.1 -0.35 0.1 -0.45 0.1 -0.9 0.05 -1.15 0.1 -1.45 0.05 -1.55 0.05 -1.55 0.05 -1.6 0.05 -1.75 0.1 -1.8 0.1 -1.85 0.05 -2.05 0.05 -2.05 M0.1 -0.15 L0.1 -0.15 M0.0 1.95 L0.0 1.75 0.0 1.95 M0.0 2.05 L0.05 2.1 0.0 2.05" fill="#c8b27e" fill-rule="evenodd" stroke="none"/>
    <path d="M0.15 -2.1 L0.15 -2.1 0.15 -2.15 0.25 -2.6 0.2 -2.95 0.25 -3.6 0.25 -3.65 0.3 -3.6 0.3 -3.5 0.25 -3.3 Q0.25 -3.15 0.25 -3.1 L0.3 -3.35 0.3 -2.85 0.3 -2.9 0.3 -1.85 0.25 -1.55 0.25 -0.45 0.2 -0.25 0.15 -0.3 0.1 -0.4 0.15 -0.65 0.15 -1.8 0.15 -1.9 0.15 -2.1" fill="#e2d2a9" fill-rule="evenodd" stroke="none"/>
    <path d="M0.35 -3.2 L0.3 -1.85 0.25 -0.15 0.25 1.0 0.2 0.75 0.2 0.15 0.25 0.0 0.25 0.0 0.2 -0.15 0.25 -0.3 0.25 -0.45 0.25 -1.55 0.3 -1.85 0.3 -2.9 0.35 -3.05 0.35 -3.2 M0.05 9.55 L0.0 10.2 -0.05 9.75 Q-0.1 9.5 -0.05 9.1 L-0.05 8.8 0.0 8.7 0.0 8.8 0.05 9.55 M-0.25 8.7 L-0.25 7.7 -0.25 5.85 -0.25 5.05 -0.2 2.9 -0.2 2.25 -0.15 0.0 -0.1 -1.85 -0.1 -2.95 -0.1 -2.7 -0.1 -2.25 -0.05 -2.1 0.0 -2.25 -0.05 -2.25 -0.05 -2.45 0.0 -2.45 0.0 -2.1 0.0 -2.0 -0.05 -1.95 0.0 -1.85 0.0 -1.8 0.0 -1.75 0.05 -1.55 0.05 -1.55 0.1 -1.45 0.05 -1.15 0.05 -0.95 0.0 -1.05 -0.05 -1.1 -0.05 -1.2 -0.05 -0.95 -0.1 -0.25 -0.1 0.35 -0.1 1.0 -0.1 1.25 -0.1 1.6 -0.05 1.4 -0.05 1.5 -0.05 1.55 -0.05 1.55 -0.1 1.55 -0.05 1.6 -0.05 1.7 -0.05 1.9 0.0 1.95 0.0 2.9 0.0 2.9 -0.05 3.75 -0.05 3.85 -0.05 3.5 -0.1 2.95 -0.1 2.45 -0.1 2.4 -0.15 2.45 -0.15 2.7 -0.15 3.1 -0.15 3.95 -0.15 4.35 -0.2 4.55 -0.2 4.9 -0.15 5.2 -0.2 5.4 -0.2 5.8 -0.15 6.1 -0.15 6.6 -0.2 6.8 -0.15 7.2 -0.15 7.3 -0.1 7.65 -0.1 7.65 -0.05 8.4 -0.05 8.5 -0.05 8.45 -0.1 8.4 -0.15 8.45 -0.15 8.6 -0.2 8.6 -0.25 8.7 M0.0 1.75 L0.0 1.6 0.05 1.55 0.0 1.95 0.0 1.75 M-0.15 7.85 L-0.15 7.9 -0.15 8.1 Q-0.15 8.05 -0.15 7.95 -0.15 7.85 -0.15 7.85" fill="#794d08" fill-rule="evenodd" stroke="none"/>
    <path d="M0.25 1.0 L0.25 1.35 0.2 2.05 0.2 2.2 0.15 2.25 0.15 2.2 0.1 2.15 0.1 2.1 0.15 1.7 Q0.1 1.65 0.15 1.6 L0.2 1.5 0.2 1.25 0.2 1.05 0.2 0.75 0.25 1.0 M0.15 4.6 L0.15 4.7 0.15 4.6 M0.0 -2.1 L0.0 -2.05 0.05 -2.05 0.0 -1.9 0.0 -1.8 0.0 -1.85 -0.05 -1.95 0.0 -2.0 0.0 -2.1 M0.1 -0.35 L0.05 -0.25 0.1 -0.15 0.05 -0.15 0.0 -0.1 0.0 -0.25 -0.05 -0.25 -0.05 -0.1 -0.05 0.1 -0.1 0.2 -0.05 0.4 -0.05 0.65 -0.05 1.1 -0.05 1.2 -0.05 1.35 -0.1 1.35 -0.05 1.4 -0.1 1.6 -0.1 1.25 -0.1 1.0 -0.1 0.35 -0.1 -0.25 -0.05 -0.95 -0.05 -1.2 -0.05 -1.1 0.0 -1.05 0.05 -0.95 0.1 -0.35 M0.1 -0.15 L0.1 -0.15 M0.0 2.05 L0.05 2.1 0.0 2.05 M-0.1 5.2 L-0.1 5.3 -0.1 5.5 -0.1 5.7 -0.1 5.85 -0.05 6.1 -0.1 6.25 -0.1 6.3 -0.05 7.55 -0.05 7.55 -0.1 7.65 -0.1 7.65 -0.15 7.3 -0.15 7.2 -0.2 6.8 -0.15 6.6 -0.15 6.1 -0.2 5.8 -0.2 5.4 -0.15 5.2 -0.2 4.9 -0.2 4.55 -0.15 4.35 -0.15 3.95 -0.15 3.1 -0.15 2.7 -0.15 2.45 -0.1 2.4 -0.1 2.45 -0.1 2.95 -0.05 3.5 -0.05 3.85 -0.1 4.4 -0.1 5.2" fill="#997622" fill-rule="evenodd" stroke="none"/>
    <path d="M0.15 4.7 Q0.15 5.2 0.15 5.75 L0.15 6.2 0.1 6.15 0.05 5.95 0.0 5.9 0.0 5.95 0.0 5.75 -0.05 5.9 -0.05 5.95 -0.05 6.1 -0.1 5.85 -0.1 5.7 -0.05 5.4 0.0 5.15 0.05 5.15 0.05 4.9 0.1 4.85 0.1 4.65 0.15 4.6 0.15 4.7 M0.05 -2.05 L0.05 -2.05 0.05 -2.05 0.1 -1.85 0.1 -1.8 0.05 -1.75 0.05 -1.6 0.05 -1.55 0.0 -1.75 0.0 -1.8 0.0 -1.9 0.05 -2.05 M0.05 -1.15 L0.1 -0.9 0.1 -0.45 0.1 -0.35 0.05 -0.95 0.05 -1.15 M0.1 -0.15 L0.1 -0.15 0.1 -0.15 M0.0 -0.1 L0.0 0.0 0.0 0.05 -0.05 0.1 0.0 0.3 0.0 0.3 -0.05 0.35 0.0 0.5 0.0 0.5 0.05 0.65 0.0 0.8 0.05 0.9 0.0 1.35 0.05 1.45 0.1 1.35 0.1 1.3 0.15 1.2 0.1 1.05 0.1 0.95 0.15 0.8 0.15 0.55 0.2 0.5 0.15 0.35 0.15 0.2 0.2 0.1 0.2 0.15 0.2 0.75 0.2 1.05 0.2 1.25 0.2 1.5 0.15 1.6 Q0.1 1.65 0.15 1.7 L0.1 2.1 0.1 2.15 Q0.05 1.95 0.0 1.95 L0.0 1.95 -0.05 1.9 -0.05 1.7 -0.05 1.6 -0.1 1.55 -0.05 1.55 -0.05 1.55 -0.05 1.5 -0.05 1.4 -0.1 1.35 -0.05 1.35 -0.05 1.2 -0.05 1.1 -0.05 0.65 -0.05 0.4 -0.1 0.2 -0.05 0.1 -0.05 -0.1 -0.05 -0.25 0.0 -0.25 0.0 -0.1 M0.0 1.75 L0.0 1.95 0.05 1.55 0.0 1.6 0.0 1.75" fill="#ba9a64" fill-rule="evenodd" stroke="none"/>
    <path d="M-0.5 -7.2 L-0.5 -7.3 -0.35 -7.35 -0.5 -7.15 -0.5 -7.2 M-0.5 -7.5 Q-0.4 -7.45 -0.45 -7.35 L-0.6 -7.35 Q-0.65 -7.4 -0.7 -7.45 -0.65 -7.5 -0.5 -7.5" fill="#cda97a" fill-rule="evenodd" stroke="none"/>
    <path d="M-0.55 -7.15 L-0.5 -7.2 -0.5 -7.15 -0.45 -7.05 -0.35 -6.95 -0.35 -6.9 -0.4 -6.9 -0.35 -6.85 -0.4 -6.75 -0.6 -6.95 -0.55 -7.0 -0.6 -7.05 -0.55 -7.1 -0.55 -7.15 M-0.45 -7.0 L-0.5 -7.0 -0.45 -6.95 Q-0.4 -6.95 -0.4 -6.95 L-0.4 -6.95 -0.45 -7.0" fill="#8b621e" fill-rule="evenodd" stroke="none"/>
    <path d="M-0.6 -7.15 L-0.55 -7.15 -0.55 -7.15 -0.55 -7.1 -0.6 -7.05 -0.6 -7.15" fill="#d8ad65" fill-rule="evenodd" stroke="none"/>
    <path d="M-0.75 -7.3 Q-0.75 -7.25 -0.75 -7.3 L-0.75 -7.35 -0.75 -7.3" fill="#d4ae68" fill-rule="evenodd" stroke="none"/>
    <path d="M-1.4 -6.4 L-1.35 -6.7 -1.15 -6.95 -1.2 -6.85 -1.25 -6.7 -1.2 -6.75 -1.1 -6.8 -1.2 -6.65 Q-1.3 -6.6 -1.35 -6.4 L-1.4 -6.1 -1.4 -6.4" fill="#846639" fill-rule="evenodd" stroke="none"/>
    <path d="M-1.0 -5.4 L-1.1 -5.5 -1.0 -5.45 -0.9 -5.3 -1.0 -5.4" fill="#c6a25f" fill-rule="evenodd" stroke="none"/>
    <path d="M-0.3 -5.4 L-0.2 -5.4 -0.25 -5.25 -0.25 -5.2 -0.25 -5.25 -0.3 -5.4" fill="#9d7c42" fill-rule="evenodd" stroke="none"/>
    <path d="M0.15 4.0 L0.15 4.4 0.1 4.35 0.05 4.35 0.05 4.4 0.0 4.4 0.0 4.55 -0.05 4.75 -0.05 4.9 -0.1 5.2 -0.1 4.4 -0.05 3.85 -0.05 3.75 0.0 3.7 0.0 3.8 0.05 3.8 0.05 3.75 0.1 3.85 0.15 4.0 M0.0 5.95 L0.0 6.05 0.05 6.4 0.0 8.1 0.0 8.65 0.0 8.7 -0.05 8.5 -0.05 8.4 -0.1 7.65 -0.05 7.55 -0.05 7.55 -0.1 6.3 -0.1 6.25 -0.05 6.1 -0.05 5.95 -0.05 5.9 0.0 5.75 0.0 5.95" fill="#fef8d0" fill-rule="evenodd" stroke="none"/>
    <path d="M-0.15 7.85 Q-0.15 7.85 -0.15 7.95 -0.15 8.05 -0.15 8.1 L-0.15 7.9 -0.15 7.85 M-0.2 9.05 L-0.15 8.9 -0.15 9.0 Q-0.15 9.1 -0.2 9.1 L-0.2 9.05" fill="#b48c48" fill-rule="evenodd" stroke="none"/>
    <path d="M0.0 10.2 L0.0 10.25 Q-0.25 10.1 -0.25 8.8 L-0.25 8.7 -0.2 8.6 -0.15 8.6 -0.15 8.45 -0.1 8.4 -0.05 8.45 -0.05 8.5 0.0 8.7 -0.05 8.8 -0.05 9.1 Q-0.1 9.5 -0.05 9.75 L0.0 10.2 M-0.2 9.05 L-0.2 9.1 Q-0.15 9.1 -0.15 9.0 L-0.15 8.9 -0.2 9.05" fill="#7e611c" fill-rule="evenodd" stroke="none"/>
    <path d="M0.3 -6.5 L0.05 -6.8 -0.25 -7.15 Q-0.3 -7.15 -0.3 -7.25 L-0.3 -7.4 -0.4 -7.5 -0.55 -7.55 Q-0.7 -7.55 -0.8 -7.45 -0.95 -7.35 -0.95 -7.2 L-0.95 -7.15 -1.05 -7.05 -1.15 -6.95 -1.35 -6.7 -1.4 -6.4 -1.45 -6.25 -1.45 -6.15 -1.4 -5.95 -1.4 -5.9 Q-1.35 -5.6 -1.15 -5.4 L-1.0 -5.25 -1.0 -5.25 -0.85 -5.2 Q-0.95 -5.05 -0.95 -4.95 -1.0 -4.7 -0.75 -4.5 L-0.8 -4.3 -0.75 -4.1 -0.65 -3.85 -0.1 -3.4 -0.1 -2.95 -0.1 -1.85 -0.15 0.0 -0.2 2.25 -0.2 2.9 -0.25 5.05 -0.25 5.85 -0.25 7.7 -0.25 8.7 -0.25 8.8 Q-0.25 10.1 0.0 10.25 L0.0 10.2 0.05 9.55 0.1 8.8 0.1 7.65 0.1 7.15 0.15 6.2 0.15 5.75 Q0.15 5.2 0.15 4.7 L0.15 4.6 0.15 4.4 0.15 4.0 0.2 2.9 0.2 2.2 0.2 2.05 0.25 1.35 0.25 1.0 0.25 -0.15 0.3 -1.85 0.35 -3.2 0.35 -3.3 0.35 -3.45 0.35 -3.4 0.55 -3.6 0.65 -3.85 0.65 -3.95 0.65 -4.0 0.7 -4.15 0.65 -4.35 0.75 -4.45 Q0.9 -4.55 0.9 -4.75 0.9 -4.85 0.8 -4.95 L0.75 -5.0 0.85 -5.0 1.05 -4.9 1.1 -4.85 1.1 -4.65 1.1 -4.5 Q1.15 -4.45 1.2 -4.45 L1.3 -4.45 1.4 -4.5 1.4 -4.6 1.45 -4.65 1.45 -4.75 1.4 -4.85 1.3 -5.0 1.2 -5.1 1.1 -5.15 1.05 -5.2 1.0 -5.2 0.9 -5.25 0.9 -5.4 0.85 -5.65 Q0.75 -5.85 0.55 -5.85 L0.5 -5.85 0.45 -6.05 0.35 -6.25 Q0.35 -6.3 0.35 -6.35 L0.3 -6.5 M0.6 -5.4 L0.55 -5.6 0.55 -5.75 0.65 -5.7 Q0.8 -5.55 0.8 -5.45 L0.75 -5.3 0.6 -5.4 M-0.3 -4.95 L-0.3 -4.85 -0.4 -4.95 -0.55 -5.05 -0.3 -4.95 M0.7 -4.95 L0.75 -4.9 0.85 -4.7 Q0.85 -4.6 0.7 -4.5 L0.6 -4.45 0.55 -4.5 0.4 -4.55 0.4 -4.65 0.45 -4.65 0.45 -4.65 0.5 -4.7 0.55 -4.75 0.55 -4.75 0.6 -4.95 0.7 -4.95 M0.4 -4.4 L0.45 -4.35 0.4 -4.35 0.4 -4.4 M0.4 -4.25 L0.55 -4.3 0.6 -4.15 Q0.6 -4.05 0.45 -4.0 L0.4 -3.95 0.4 -4.1 0.4 -4.25 M0.4 -3.85 L0.4 -3.85 Q0.5 -3.8 0.6 -3.9 L0.6 -3.8 Q0.55 -3.7 0.45 -3.6 L0.35 -3.55 0.35 -3.6 0.4 -3.85 M-0.05 -3.9 L-0.1 -3.6 -0.05 -3.5 -0.4 -3.75 Q-0.75 -4.05 -0.7 -4.3 L-0.7 -4.4 -0.7 -4.45 -0.7 -4.45 -0.65 -4.45 -0.65 -4.4 Q-0.65 -4.0 -0.15 -4.0 L-0.05 -4.0 -0.05 -3.9 M-1.25 -6.4 L-1.1 -6.65 Q-1.0 -6.8 -0.85 -6.85 L-0.7 -6.8 -0.6 -6.7 -0.5 -6.6 -0.4 -6.5 Q-0.3 -6.3 -0.3 -6.1 L-0.25 -5.85 -0.25 -5.75 -0.35 -5.7 Q-0.55 -5.75 -0.65 -5.5 L-0.7 -5.35 -0.9 -5.45 Q-1.1 -5.6 -1.2 -5.85 L-1.2 -5.9 Q-1.3 -6.15 -1.25 -6.4 M-0.6 -5.35 L-0.4 -5.55 -0.25 -5.65 -0.3 -5.35 -0.6 -5.35 M-0.8 -5.15 L-0.9 -4.9 Q-0.9 -4.7 -0.6 -4.55 L-0.4 -4.75 Q-0.65 -4.9 -0.7 -5.1 L-0.8 -5.15 M-0.45 -4.5 L-0.2 -4.65 -0.05 -4.6 -0.05 -4.4 -0.05 -4.35 -0.1 -4.35 -0.4 -4.45 -0.45 -4.5 M-0.05 -4.25 L-0.05 -4.1 -0.25 -4.15 Q-0.45 -4.25 -0.5 -4.35 L-0.15 -4.25 -0.05 -4.25 Z" fill="none" stroke="#000000" stroke-linecap="round" stroke-linejoin="round" stroke-opacity="0.4509804" stroke-width="0.1"/>
  </g>
</svg>
