<?xml version="1.0" encoding="UTF-8" standalone="no"?>
<svg xmlns:xlink="http://www.w3.org/1999/xlink" height="21.5px" width="2.65px" xmlns="http://www.w3.org/2000/svg">
  <g transform="matrix(1.0, 0.0, 0.0, 1.0, 1.35, 7.45)">
    <path d="M0.15 -7.2 L0.2 -7.2 0.1 -7.0 0.05 -6.95 -0.05 -6.9 -0.05 -6.9 -0.1 -6.95 -0.1 -6.95 -0.1 -7.05 -0.05 -7.3 0.1 -7.25 0.15 -7.2" fill="#912e2b" fill-rule="evenodd" stroke="none"/>
    <path d="M-0.1 -6.95 L-0.1 -6.95 -0.05 -6.9 -0.05 -6.9 0.05 -6.95 0.1 -6.85 0.2 -6.4 0.15 -6.25 0.15 -6.15 0.1 -5.85 0.1 -5.55 -0.15 -5.55 -0.1 -5.65 -0.2 -5.8 -0.25 -6.15 -0.2 -6.2 -0.25 -6.6 -0.25 -6.75 -0.2 -6.8 -0.15 -6.9 -0.1 -6.95" fill="#2e2d2b" fill-rule="evenodd" stroke="none"/>
    <path d="M0.15 -7.2 L0.1 -7.25 -0.05 -7.3 -0.1 -7.05 -0.2 -7.15 Q-0.55 -6.9 -0.8 -6.45 L-0.75 -6.3 -0.8 -6.1 -0.8 -5.9 -0.9 -5.8 -0.9 -5.9 -0.85 -6.25 -0.9 -6.25 -1.0 -5.75 Q-1.05 -5.45 -1.0 -5.2 L-1.0 -5.2 -0.95 -4.95 -1.1 -4.85 -1.2 -5.15 Q-1.25 -5.4 -1.2 -5.7 -1.1 -6.1 -0.85 -6.5 L-0.85 -6.55 Q-0.95 -6.55 -0.95 -6.65 L-1.0 -6.75 Q-1.0 -6.9 -0.9 -6.85 -0.75 -6.8 -0.75 -6.7 L-0.75 -6.65 -0.35 -7.1 -0.2 -7.25 -0.1 -7.4 0.1 -7.35 0.15 -7.3 0.15 -7.2 M0.45 -5.15 L0.6 -5.05 0.7 -4.9 0.7 -4.95 Q0.75 -5.05 0.85 -5.05 L0.9 -5.05 0.9 -5.05 0.85 -4.95 0.75 -4.8 0.75 -4.75 0.75 -4.7 0.7 -4.7 0.65 -4.7 0.65 -4.7 0.6 -4.75 0.65 -4.8 0.55 -4.95 0.4 -5.05 0.45 -5.15 0.45 -5.15 M1.25 -4.3 L1.25 -4.15 Q1.25 -4.05 1.15 -3.95 L1.1 -4.0 1.15 -4.15 1.15 -4.3 1.25 -4.3 M0.9 -3.45 L0.9 -3.4 0.9 -3.45 Q0.9 -3.5 0.9 -3.55 L0.9 -3.6 0.85 -3.6 0.8 -3.6 0.8 -3.7 0.85 -3.65 0.85 -3.75 0.85 -3.75 Q0.95 -3.9 0.9 -3.95 L0.9 -3.95 0.9 -3.95 0.95 -3.85 1.0 -3.9 1.05 -3.85 1.05 -3.85 0.95 -3.75 0.95 -3.65 0.9 -3.45 M0.75 -3.2 L0.45 -2.95 0.4 -2.9 0.4 -2.9 0.45 -3.0 0.55 -3.15 0.55 -3.15 0.7 -3.25 0.65 -3.3 0.65 -3.3 0.6 -3.3 0.6 -3.4 0.65 -3.35 0.7 -3.35 0.75 -3.3 0.75 -3.2 M-0.2 -2.4 L-0.3 -2.45 -0.35 -2.5 -0.3 -2.55 -0.3 -2.6 -0.35 -2.65 -0.3 -2.65 Q-0.25 -2.65 -0.25 -2.7 L-0.3 -2.7 -0.35 -2.75 -0.3 -2.75 -0.25 -2.85 -0.25 -2.95 -0.3 -2.95 -0.3 -2.95 -0.4 -3.0 -0.35 -3.0 -0.45 -3.1 -0.5 -3.1 -0.5 -3.1 -0.5 -3.1 -0.45 -3.1 -0.4 -3.15 -0.35 -3.15 -0.3 -3.2 -0.25 -3.35 -0.25 -3.2 -0.25 -3.05 -0.25 -2.9 -0.2 -2.6 -0.2 -2.4 M-0.8 -3.0 L-0.8 -3.05 Q-0.9 -3.1 -1.0 -3.15 -1.25 -3.35 -1.25 -3.6 -1.25 -3.75 -1.1 -4.0 L-1.05 -3.95 -0.95 -3.95 -1.0 -3.85 -1.0 -3.9 -1.05 -3.85 -1.05 -3.85 -1.1 -3.85 -1.15 -3.7 -1.15 -3.55 -1.05 -3.3 -0.9 -3.2 Q-0.85 -3.2 -0.8 -3.3 L-0.8 -3.3 -0.8 -3.25 -0.8 -3.15 Q-0.8 -3.1 -0.6 -3.0 L-0.6 -3.0 -0.7 -3.0 -0.7 -2.95 Q-0.75 -2.95 -0.8 -3.0 M-1.25 -4.3 L-1.3 -4.35 Q-1.3 -4.55 -1.2 -4.7 L-1.1 -4.85 -1.05 -4.75 Q-1.05 -4.7 -1.15 -4.65 L-1.2 -4.45 -1.15 -4.25 -1.25 -4.3 M0.55 -4.45 L0.75 -4.2 0.75 -4.1 0.75 -4.0 0.75 -4.05 0.7 -3.95 0.65 -3.9 0.55 -3.95 0.6 -4.0 0.7 -4.1 0.7 -4.1 0.65 -4.1 0.6 -4.2 0.55 -4.2 0.5 -4.3 0.55 -4.45 M0.6 -4.75 L0.6 -4.75 M-0.45 -4.5 L-0.35 -4.45 -0.35 -4.45 Q-0.4 -4.4 -0.65 -4.2 L-0.65 -4.35 -0.65 -4.35 -0.5 -4.5 -0.5 -4.5 -0.45 -4.5 M0.3 -4.0 L0.3 -3.95 Q0.3 -3.9 0.35 -3.85 L0.35 -3.85 0.3 -3.8 0.3 -3.75 0.25 -3.75 0.3 -3.7 0.2 -3.7 0.2 -3.75 0.25 -4.0 0.3 -4.0 0.3 -4.0 M0.75 -4.2 L0.75 -4.2 M-1.05 -4.75 L-0.95 -4.9 -0.9 -4.75 -1.0 -4.65 -1.05 -4.75 M-0.65 -4.2 L-0.65 -4.2" fill="#5a271e" fill-rule="evenodd" stroke="none"/>
    <path d="M0.25 -5.2 L0.45 -5.15 0.45 -5.15 0.4 -5.05 0.1 -5.15 -0.1 -5.15 -0.15 -5.15 -0.15 -5.15 -0.45 -5.15 Q-0.65 -5.25 -0.8 -5.5 L-0.9 -5.8 -0.8 -5.9 -0.8 -5.8 -0.75 -5.7 -0.7 -5.5 -0.6 -5.35 -0.5 -5.25 -0.25 -5.25 -0.15 -5.25 -0.05 -5.25 0.25 -5.2 M0.95 -4.6 L1.05 -4.55 1.2 -4.4 1.25 -4.3 1.15 -4.3 1.1 -4.35 Q1.05 -4.5 0.85 -4.5 L0.8 -4.5 0.6 -4.5 0.55 -4.5 0.55 -4.5 0.5 -4.45 0.55 -4.45 0.5 -4.3 0.4 -4.35 0.35 -4.45 0.3 -4.5 0.3 -4.5 0.3 -4.5 0.35 -4.55 0.35 -4.55 0.35 -4.55 0.55 -4.7 0.6 -4.75 0.65 -4.7 0.65 -4.7 0.7 -4.7 0.7 -4.65 0.65 -4.65 0.65 -4.6 0.7 -4.6 0.7 -4.6 0.8 -4.65 0.95 -4.6 M1.15 -3.95 L1.05 -3.85 1.05 -3.85 1.0 -3.9 1.05 -3.95 1.05 -3.95 1.1 -4.0 1.15 -3.95 M0.9 -3.4 L0.85 -3.3 0.75 -3.2 0.75 -3.3 0.75 -3.3 0.85 -3.55 0.85 -3.6 0.9 -3.6 0.9 -3.55 Q0.9 -3.5 0.9 -3.45 L0.9 -3.4 M0.4 -2.9 L0.35 -2.9 0.3 -2.8 0.25 -2.8 0.2 -2.65 0.2 -2.75 0.2 -3.0 0.2 -3.1 0.2 -3.1 0.2 -3.1 0.25 -3.1 0.25 -3.05 0.3 -3.05 0.35 -3.05 0.35 -3.05 0.45 -3.1 0.55 -3.15 0.45 -3.0 0.4 -2.9 0.4 -2.9 M-0.35 -2.65 L-0.35 -2.65 -0.45 -2.65 -0.55 -2.7 Q-0.65 -2.7 -0.7 -2.8 -0.75 -2.9 -0.8 -3.0 -0.75 -2.95 -0.7 -2.95 L-0.55 -2.85 -0.5 -2.85 -0.5 -2.8 -0.35 -2.75 -0.3 -2.7 -0.25 -2.7 Q-0.25 -2.65 -0.3 -2.65 L-0.35 -2.65 M-1.1 -4.0 L-1.1 -4.0 -1.15 -4.05 -1.2 -4.15 -1.25 -4.3 -1.15 -4.25 -1.2 -4.45 -1.15 -4.65 Q-1.05 -4.7 -1.05 -4.75 L-1.1 -4.85 -1.1 -4.85 -0.95 -4.95 -1.0 -5.2 -1.0 -5.2 -0.95 -5.0 -0.9 -5.05 -0.9 -5.0 -0.85 -4.9 Q-0.7 -4.8 -0.55 -4.75 L-0.6 -4.7 -0.65 -4.7 -0.55 -4.55 -0.75 -4.55 -0.75 -4.5 -0.75 -4.45 -0.8 -4.4 -0.85 -4.55 -1.0 -4.65 -0.9 -4.75 -0.95 -4.9 -1.05 -4.75 -1.05 -4.75 Q-1.2 -4.55 -1.2 -4.4 L-1.1 -4.2 -1.0 -4.1 -1.0 -4.15 -0.85 -4.25 -0.65 -4.35 -0.65 -4.2 -0.7 -4.15 -0.85 -4.05 -0.95 -3.95 -1.05 -3.95 -1.1 -4.0 M1.05 -3.85 L1.05 -3.85 M0.35 -4.05 L0.3 -4.0 0.3 -4.0 0.25 -4.0 0.25 -4.05 0.2 -4.05 0.2 -4.05 0.05 -4.1 -0.05 -4.1 0.1 -4.1 0.3 -4.05 0.35 -4.05 M0.35 -3.85 L0.4 -3.85 0.5 -3.9 0.5 -3.95 0.55 -3.95 0.65 -3.9 0.55 -3.8 0.45 -3.8 0.4 -3.8 0.4 -3.75 0.35 -3.75 0.35 -3.75 0.3 -3.75 0.3 -3.8 0.35 -3.85 0.35 -3.85 M0.3 -3.7 L0.3 -3.7 0.35 -3.7 0.35 -3.7 0.6 -3.7 0.6 -3.7 0.75 -3.7 0.8 -3.7 0.8 -3.6 0.75 -3.65 0.7 -3.65 0.6 -3.65 0.5 -3.65 0.45 -3.65 0.35 -3.65 0.35 -3.65 0.3 -3.6 0.25 -3.5 0.3 -3.45 0.3 -3.45 0.35 -3.45 0.35 -3.4 0.55 -3.4 0.6 -3.4 0.6 -3.3 0.55 -3.3 0.45 -3.35 0.3 -3.35 0.3 -3.35 0.2 -3.35 0.2 -3.55 0.2 -3.6 0.2 -3.7 0.3 -3.7 M0.75 -4.2 L0.85 -4.1 0.9 -3.95 0.9 -3.95 Q0.95 -3.9 0.85 -3.75 L0.85 -3.75 0.85 -3.8 0.75 -4.0 0.75 -4.1 0.75 -4.2 M-0.6 -4.7 L-0.6 -4.7 M-0.75 -3.55 L-0.7 -3.45 -0.7 -3.45 -0.8 -3.3 -0.8 -3.3 Q-0.85 -3.2 -0.9 -3.2 L-1.05 -3.3 -1.15 -3.55 -1.15 -3.7 -1.1 -3.85 -1.05 -3.85 -1.05 -3.85 -1.0 -3.9 -1.0 -3.85 -1.05 -3.8 Q-1.0 -3.7 -0.95 -3.65 L-0.9 -3.65 -0.85 -3.65 -0.8 -3.6 -0.75 -3.55 M-1.0 -3.55 L-1.0 -3.55 -1.05 -3.65 -1.05 -3.6 -1.05 -3.5 -1.0 -3.4 -0.95 -3.3 Q-0.9 -3.3 -0.9 -3.3 L-0.85 -3.35 -0.8 -3.4 -0.9 -3.5 -1.0 -3.55 M-0.5 -3.1 L-0.5 -3.1 -0.45 -3.1 -0.35 -3.0 -0.4 -3.0 -0.4 -3.0 -0.5 -3.0 -0.55 -3.0 -0.6 -3.0 -0.6 -3.0 Q-0.8 -3.1 -0.8 -3.15 L-0.8 -3.25 -0.5 -3.1" fill="#78412a" fill-rule="evenodd" stroke="none"/>
    <path d="M0.1 -5.55 L0.15 -5.55 0.2 -5.35 0.1 -5.35 -0.05 -5.35 -0.1 -5.3 -0.15 -5.25 -0.15 -5.25 -0.25 -5.25 -0.3 -5.25 Q-0.2 -5.4 -0.15 -5.55 L0.1 -5.55 M0.1 -5.15 L0.2 -5.0 0.4 -4.9 0.2 -4.8 0.15 -4.85 0.1 -4.85 0.0 -4.85 Q-0.05 -4.8 -0.1 -4.8 L-0.25 -4.8 -0.4 -4.85 -0.25 -5.0 -0.1 -5.15 0.1 -5.15" fill="#503824" fill-rule="evenodd" stroke="none"/>
    <path d="M0.2 -5.35 L0.3 -5.3 0.25 -5.2 -0.05 -5.25 -0.15 -5.25 -0.15 -5.25 -0.1 -5.3 -0.05 -5.35 0.1 -5.35 0.2 -5.35" fill="#987848" fill-rule="evenodd" stroke="none"/>
    <path d="M0.75 -4.75 L1.05 -4.75 1.0 -4.7 1.0 -4.7 0.75 -4.7 0.75 -4.75 M0.4 -4.9 L0.4 -4.9 0.35 -4.75 0.6 -4.75 0.55 -4.7 0.3 -4.7 -0.6 -4.7 -0.55 -4.75 -0.4 -4.75 -0.4 -4.85 -0.25 -4.8 -0.1 -4.8 Q-0.05 -4.8 0.0 -4.85 L0.1 -4.85 0.15 -4.85 0.2 -4.8 0.4 -4.9 M0.6 -4.75 L0.6 -4.75 M0.15 1.45 L0.15 2.0 0.15 1.85 0.1 1.65 0.15 1.55 0.15 1.45" fill="#a18558" fill-rule="evenodd" stroke="none"/>
    <path d="M-0.15 -4.5 L0.2 -4.45 0.3 -4.45 0.35 -4.2 Q0.25 -4.2 0.15 -4.25 L0.1 -4.1 0.0 -4.25 -0.1 -4.1 -0.15 -4.2 -0.3 -4.3 Q-0.4 -4.25 -0.65 -4.2 -0.4 -4.4 -0.35 -4.45 L-0.35 -4.45 -0.45 -4.5 -0.15 -4.5 M-0.75 -4.5 L-0.5 -4.5 -0.65 -4.35 -0.65 -4.35 -0.85 -4.25 -1.0 -4.15 -1.1 -4.25 -0.9 -4.3 Q-0.8 -4.35 -0.8 -4.4 L-0.75 -4.45 -0.75 -4.5" fill="#582123" fill-rule="evenodd" stroke="none"/>
    <path d="M0.85 -4.5 L0.8 -4.45 0.75 -4.5 0.6 -4.5 0.8 -4.5 0.85 -4.5 M0.35 -4.55 L0.35 -4.55 0.3 -4.5 0.3 -4.5 0.15 -4.5 -0.15 -4.5 -0.45 -4.5 -0.5 -4.5 -0.5 -4.5 -0.75 -4.5 -0.75 -4.55 -0.55 -4.55 -0.65 -4.7 -0.6 -4.7 -0.55 -4.65 -0.45 -4.55 -0.25 -4.55 0.0 -4.55 0.35 -4.55 M0.05 0.9 L0.05 0.6 0.1 0.9 0.05 0.9 M0.15 8.5 L0.1 8.65 0.15 8.5 0.15 7.9 0.15 8.5" fill="#c7a76f" fill-rule="evenodd" stroke="none"/>
    <path d="M1.0 -4.7 L0.95 -4.6 0.95 -4.6 0.8 -4.65 0.7 -4.6 0.7 -4.6 0.65 -4.6 0.65 -4.65 0.7 -4.65 0.7 -4.7 0.75 -4.7 1.0 -4.7 M0.55 -4.7 L0.35 -4.55 0.35 -4.55 0.0 -4.55 -0.25 -4.55 -0.45 -4.55 -0.55 -4.65 -0.6 -4.7 0.3 -4.7 0.55 -4.7 M-0.6 -4.7 L-0.6 -4.7" fill="#7d2521" fill-rule="evenodd" stroke="none"/>
    <path d="M-0.65 -4.2 Q-0.4 -4.25 -0.3 -4.3 L-0.15 -4.2 -0.1 -4.1 -0.1 -4.1 -0.15 -4.1 -0.3 -4.05 -0.3 -4.05 -0.45 -4.05 -0.7 -4.1 -0.75 -4.0 -0.85 -4.05 -0.7 -4.15 -0.65 -4.2 -0.65 -4.2" fill="#914a39" fill-rule="evenodd" stroke="none"/>
    <path d="M-0.75 -3.55 L-0.75 -3.85 -0.8 -3.85 -0.85 -3.85 -0.95 -3.85 -0.95 -3.65 Q-1.0 -3.7 -1.05 -3.8 L-1.0 -3.85 -0.95 -3.95 -0.85 -4.05 -0.75 -4.0 -0.7 -4.1 -0.45 -4.05 -0.45 -4.05 -0.6 -3.7 -0.65 -3.3 -0.7 -3.45 -0.7 -3.45 -0.75 -3.55 M-1.0 -3.4 L-1.05 -3.5 -1.05 -3.6 -1.05 -3.65 -1.0 -3.55 -1.0 -3.55 -1.0 -3.4" fill="#1f1b1b" fill-rule="evenodd" stroke="none"/>
    <path d="M-0.95 -3.65 L-0.95 -3.85 -0.85 -3.85 -0.8 -3.85 -0.85 -3.65 -0.9 -3.65 -0.95 -3.65 M-1.0 -3.4 L-1.0 -3.55 -0.9 -3.5 -0.95 -3.3 -1.0 -3.4" fill="#443c3b" fill-rule="evenodd" stroke="none"/>
    <path d="M-0.1 -4.1 L0.0 -4.25 0.1 -4.1 0.15 -4.25 Q0.25 -4.2 0.35 -4.2 L0.35 -4.05 0.35 -4.05 0.3 -4.05 0.1 -4.1 -0.05 -4.1 -0.1 -4.1 -0.1 -4.1" fill="#997446" fill-rule="evenodd" stroke="none"/>
    <path d="M0.2 -2.65 L0.2 -2.6 0.2 -2.5 0.2 3.05 0.2 4.0 0.2 4.2 0.15 4.0 0.1 3.6 0.05 4.0 -0.05 4.15 -0.05 3.9 0.0 4.05 0.0 4.0 0.0 3.5 0.05 3.75 0.1 3.3 0.1 3.25 0.15 3.1 0.15 2.1 0.15 2.0 0.15 1.45 0.15 1.25 0.15 1.15 0.15 0.95 0.15 -0.05 0.1 -0.15 0.05 -0.2 0.0 0.0 -0.05 0.15 -0.1 -0.85 -0.1 -1.65 -0.1 -1.95 -0.2 -1.9 -0.2 -2.4 -0.2 -2.6 -0.25 -2.9 -0.25 -3.05 -0.25 -3.2 -0.25 -3.35 -0.25 -3.9 -0.3 -4.05 -0.3 -4.05 -0.15 -4.1 -0.1 -4.1 -0.1 -4.1 -0.1 -4.1 -0.05 -4.1 0.05 -4.1 0.2 -4.05 0.2 -4.05 0.2 -3.9 0.1 -4.0 0.15 -3.75 0.1 -3.7 0.05 -3.85 0.05 -4.0 0.05 -3.85 0.05 -3.8 0.1 -3.45 0.1 -3.35 0.15 -3.25 0.15 -3.2 0.05 -3.25 0.05 -3.3 0.0 -3.35 0.0 -3.35 0.0 -3.25 -0.05 -3.1 0.05 -2.9 0.1 -2.7 0.1 -2.9 0.15 -2.8 0.2 -2.75 0.2 -2.65 M0.05 -2.6 L0.05 -2.2 0.1 -1.8 Q0.15 -1.85 0.2 -2.05 L0.2 -2.4 0.15 -2.55 0.15 -2.6 0.1 -2.45 0.05 -2.55 0.05 -2.6 M0.05 -2.55 L0.0 -2.6 0.0 -2.65 -0.05 -2.7 -0.05 -2.55 -0.05 -2.25 Q0.0 -2.15 0.0 -2.3 L0.05 -2.55 0.05 -2.55 M0.05 -2.3 L0.0 -2.2 -0.05 -2.05 -0.05 -0.9 0.05 -1.5 0.0 -1.75 -0.05 -2.0 0.05 -1.75 0.05 -2.05 0.05 -2.3 M0.2 -1.8 L0.1 -1.75 0.05 -1.8 0.05 -1.7 0.1 -1.45 0.0 -1.1 -0.05 -0.75 0.05 -0.3 Q0.05 -0.3 0.05 -0.4 L0.05 -0.8 0.0 -0.95 0.05 -0.9 0.05 -0.8 0.1 -0.55 0.1 -0.25 Q0.1 -0.15 0.15 -0.2 L0.15 -0.55 0.15 -1.35 0.2 -1.8 M0.1 3.3 Q0.1 3.6 0.15 3.75 L0.15 3.15 0.1 3.3 M-0.3 -4.05 L-0.3 -4.05 M-0.05 -0.7 L-0.05 0.05 0.0 -0.05 0.0 -0.45 -0.05 -0.7" fill="#29100e" fill-rule="evenodd" stroke="none"/>
    <path d="M0.15 -3.75 L0.2 -3.65 0.2 -3.55 0.15 -3.65 0.1 -3.65 0.1 -3.5 0.15 -3.35 0.15 -3.3 0.15 -3.2 0.2 -3.25 0.2 -3.1 0.15 -3.2 0.1 -3.05 0.15 -2.9 0.2 -3.0 0.2 -2.75 0.15 -2.8 0.1 -2.9 0.1 -2.7 0.05 -2.9 -0.05 -3.1 0.0 -3.25 0.0 -3.35 0.0 -3.35 0.05 -3.3 0.05 -3.25 0.15 -3.2 0.15 -3.25 0.1 -3.35 0.1 -3.45 0.05 -3.8 0.05 -3.85 0.05 -4.0 0.05 -3.85 0.1 -3.7 0.15 -3.75 M0.2 -3.1 L0.2 -3.1 M0.2 -3.35 L0.2 -3.25 0.2 -3.3 0.2 -3.35 M0.05 -2.85 L0.1 -2.9 0.1 -3.05 0.05 -3.25 0.0 -3.1 0.05 -3.0 0.05 -2.85 M0.05 -2.55 L0.05 -2.55 0.0 -2.3 Q0.0 -2.15 -0.05 -2.25 L-0.05 -2.55 -0.05 -2.7 0.0 -2.65 0.0 -2.6 0.05 -2.55" fill="#3f0b09" fill-rule="evenodd" stroke="none"/>
    <path d="M-0.2 0.85 L-0.2 -1.9 -0.1 -1.95 -0.1 -1.65 -0.1 -0.85 -0.05 0.15 -0.05 1.55 -0.1 0.9 -0.2 0.85 M0.05 -2.3 L0.05 -2.05 0.05 -1.75 -0.05 -2.0 0.0 -1.75 0.05 -1.5 -0.05 -0.9 -0.05 -2.05 0.0 -2.2 0.05 -2.3" fill="#55100c" fill-rule="evenodd" stroke="none"/>
    <path d="M0.8 -4.45 Q0.8 -4.35 0.9 -4.3 L1.1 -4.25 1.05 -4.2 0.75 -4.2 0.55 -4.45 0.5 -4.45 0.55 -4.5 0.55 -4.5 0.6 -4.5 0.75 -4.5 0.8 -4.45 M0.4 -4.35 L0.5 -4.3 0.55 -4.2 Q0.5 -4.25 0.35 -4.3 L0.4 -4.35" fill="#582223" fill-rule="evenodd" stroke="none"/>
    <path d="M1.05 -4.2 L1.0 -4.15 1.0 -4.15 0.85 -4.1 0.75 -4.2 1.05 -4.2 M0.55 -4.1 L0.5 -4.1 0.6 -4.2 0.65 -4.1 0.55 -4.1 M0.75 -4.2 L0.75 -4.2" fill="#b64c47" fill-rule="evenodd" stroke="none"/>
    <path d="M1.05 -3.85 L1.1 -3.75 1.05 -3.55 0.95 -3.35 0.95 -3.65 0.95 -3.75 1.05 -3.85 1.05 -3.85 M1.0 -4.15 L1.05 -3.95 1.05 -3.95 1.0 -3.9 0.95 -3.85 0.9 -3.95 0.9 -3.95 0.85 -4.1 1.0 -4.15 M0.5 -4.0 L0.55 -4.1 0.65 -4.1 0.7 -4.1 0.7 -4.1 0.6 -4.0 0.55 -3.95 0.5 -3.95 0.5 -4.0 M0.55 -3.8 L0.65 -3.9 0.7 -3.95 0.75 -4.05 0.75 -4.0 0.85 -3.8 0.75 -3.85 0.75 -3.7 0.6 -3.7 0.6 -3.7 0.55 -3.8 M0.75 -3.65 L0.75 -3.55 0.7 -3.35 0.65 -3.35 0.6 -3.65 0.7 -3.65 0.75 -3.65" fill="#272322" fill-rule="evenodd" stroke="none"/>
    <path d="M0.3 -4.5 L0.3 -4.5 0.35 -4.45 0.4 -4.35 0.35 -4.3 Q0.5 -4.25 0.55 -4.2 L0.6 -4.2 0.5 -4.1 0.55 -4.1 0.5 -4.0 0.4 -4.05 0.4 -4.05 0.35 -4.05 0.35 -4.05 0.35 -4.2 0.3 -4.45 0.2 -4.45 -0.15 -4.5 0.15 -4.5 0.3 -4.5 M0.2 -4.05 L0.25 -4.05 0.25 -4.0 0.2 -3.75 0.2 -3.65 0.15 -3.75 0.1 -4.0 0.2 -3.9 0.2 -4.05" fill="#77342c" fill-rule="evenodd" stroke="none"/>
    <path d="M0.95 -3.35 L0.95 -3.3 0.9 -3.45 0.95 -3.65 0.95 -3.35" fill="#605653" fill-rule="evenodd" stroke="none"/>
    <path d="M0.2 -3.65 L0.2 -3.75 0.2 -3.7 0.2 -3.6 0.2 -3.55 0.2 -3.35 0.2 -3.3 0.2 -3.25 0.15 -3.2 0.15 -3.3 0.15 -3.35 0.1 -3.5 0.1 -3.65 0.15 -3.65 0.2 -3.55 0.2 -3.65 M0.2 -3.35 L0.2 -3.35" fill="#2f0907" fill-rule="evenodd" stroke="none"/>
    <path d="M0.2 -3.0 L0.15 -2.9 0.1 -3.05 0.15 -3.2 0.2 -3.1 0.2 -3.0" fill="#320c09" fill-rule="evenodd" stroke="none"/>
    <path d="M0.05 -2.85 L0.05 -3.0 0.0 -3.1 0.05 -3.25 0.1 -3.05 0.1 -2.9 0.05 -2.85" fill="#370c0a" fill-rule="evenodd" stroke="none"/>
    <path d="M0.05 -2.6 L0.05 -2.55 0.1 -2.45 0.15 -2.6 0.15 -2.55 0.2 -2.4 0.2 -2.05 Q0.15 -1.85 0.1 -1.8 L0.05 -2.2 0.05 -2.6" fill="#460e08" fill-rule="evenodd" stroke="none"/>
    <path d="M0.2 -1.8 L0.15 -1.35 0.15 -0.55 0.15 -0.2 Q0.1 -0.15 0.1 -0.25 L0.1 -0.55 0.05 -0.8 0.05 -0.9 0.0 -0.95 0.05 -0.8 0.05 -0.4 Q0.05 -0.3 0.05 -0.3 L-0.05 -0.75 0.0 -1.1 0.1 -1.45 0.05 -1.7 0.05 -1.8 0.1 -1.75 0.2 -1.8 M0.1 -1.0 L0.05 -1.05 0.1 -0.95 Q0.1 -0.85 0.1 -0.85 L0.1 -1.0" fill="#58120f" fill-rule="evenodd" stroke="none"/>
    <path d="M0.1 -1.0 L0.1 -0.85 Q0.1 -0.85 0.1 -0.95 L0.05 -1.05 0.1 -1.0" fill="#a27757" fill-rule="evenodd" stroke="none"/>
    <path d="M-0.05 -0.7 L0.0 -0.45 0.0 -0.05 -0.05 0.05 -0.05 -0.7" fill="#57180d" fill-rule="evenodd" stroke="none"/>
    <path d="M-0.05 0.15 L0.0 0.0 0.05 -0.2 0.1 -0.15 0.15 -0.05 0.15 0.95 Q0.1 0.6 0.1 0.25 L0.0 0.7 -0.05 0.65 0.0 1.05 0.05 1.45 0.1 1.65 0.1 1.95 0.1 2.2 0.05 1.7 0.0 2.0 0.0 2.35 0.05 2.7 0.05 3.0 0.0 2.85 -0.05 3.3 -0.05 1.55 -0.05 0.15" fill="#681911" fill-rule="evenodd" stroke="none"/>
    <path d="M0.2 6.3 L0.2 6.45 0.1 6.65 0.1 6.3 0.05 6.0 0.05 6.05 0.1 5.9 0.15 6.5 0.15 6.4 0.2 6.3 M0.2 7.0 L0.2 7.3 0.2 7.05 0.15 7.2 0.15 7.45 0.1 7.15 0.15 7.1 0.15 6.85 0.2 7.0 M-0.05 13.05 L-0.1 12.4 -0.1 12.25 -0.1 12.1 -0.15 10.3 -0.15 8.5 -0.15 7.0 -0.15 6.5 -0.15 4.05 -0.15 3.05 -0.2 2.1 -0.2 0.85 -0.1 0.9 -0.05 1.55 -0.05 3.3 0.0 2.85 0.05 3.0 0.05 2.7 0.0 2.35 0.0 2.0 0.05 1.7 0.1 2.2 0.1 1.95 0.1 1.65 0.05 1.45 0.0 1.05 -0.05 0.65 0.0 0.7 0.1 0.25 Q0.1 0.6 0.15 0.95 L0.15 1.15 0.15 1.1 0.0 0.9 0.1 1.5 0.15 1.25 0.15 1.45 0.15 1.55 0.1 1.65 0.15 1.85 0.15 2.0 0.15 2.1 0.15 2.15 0.1 2.3 Q0.1 2.5 0.1 2.75 L0.1 3.25 0.1 3.3 0.05 3.75 0.0 3.5 0.0 4.0 0.0 4.05 -0.05 3.9 -0.05 4.15 0.0 4.65 0.0 4.85 0.05 5.0 0.05 4.4 0.15 5.5 0.05 5.5 0.05 5.5 0.15 5.35 0.1 4.95 0.0 5.15 -0.05 5.4 -0.05 6.05 0.0 6.7 0.0 8.5 0.0 10.0 0.0 11.9 0.05 12.25 0.05 12.4 0.0 12.4 -0.05 13.05 M0.05 0.9 L0.1 0.9 0.05 0.6 0.05 0.9 M0.0 4.9 L-0.05 5.0 0.0 5.1 Q0.0 5.15 0.05 5.05 L0.0 4.9" fill="#702016" fill-rule="evenodd" stroke="none"/>
    <path d="M0.15 1.15 L0.15 1.25 0.1 1.5 0.0 0.9 0.15 1.1 0.15 1.15" fill="#6c1711" fill-rule="evenodd" stroke="none"/>
    <path d="M0.15 2.1 L0.15 3.1 0.1 3.25 0.1 2.75 Q0.1 2.5 0.1 2.3 L0.15 2.15 0.15 2.1" fill="#731a13" fill-rule="evenodd" stroke="none"/>
    <path d="M0.1 3.3 L0.15 3.15 0.15 3.75 Q0.1 3.6 0.1 3.3" fill="#712017" fill-rule="evenodd" stroke="none"/>
    <path d="M-0.05 4.15 L0.05 4.0 0.1 3.6 0.15 4.0 0.2 4.2 0.15 4.65 0.05 4.4 0.05 5.0 0.0 4.85 0.0 4.65 -0.05 4.15" fill="#7d251c" fill-rule="evenodd" stroke="none"/>
    <path d="M0.2 4.2 L0.2 6.0 0.2 6.3 0.15 6.4 0.15 6.5 0.1 5.9 0.05 6.05 0.05 6.0 0.1 6.3 0.1 6.65 0.2 6.45 0.2 6.95 0.2 7.0 0.15 6.85 0.15 7.1 0.1 7.15 0.15 7.45 0.15 7.2 0.2 7.05 0.2 7.3 0.2 7.6 0.2 8.0 0.2 8.5 0.2 9.6 0.2 10.3 0.1 9.9 0.0 10.0 0.0 8.5 0.0 6.7 -0.05 6.05 -0.05 5.4 0.0 5.15 0.1 4.95 0.15 5.35 0.05 5.5 0.05 5.5 0.15 5.5 0.05 4.4 0.15 4.65 0.2 4.2 M0.15 8.5 L0.15 7.9 0.15 8.5 0.1 8.65 0.15 8.5 M0.0 7.65 Q0.0 7.85 0.05 8.0 L0.05 7.3 0.0 7.65" fill="#9f4032" fill-rule="evenodd" stroke="none"/>
    <path d="M0.0 4.9 L0.05 5.05 Q0.0 5.15 0.0 5.1 L-0.05 5.0 0.0 4.9" fill="#691e0d" fill-rule="evenodd" stroke="none"/>
    <path d="M0.0 7.65 L0.05 7.3 0.05 8.0 Q0.0 7.85 0.0 7.65" fill="#d5936c" fill-rule="evenodd" stroke="none"/>
    <path d="M0.2 10.3 L0.2 11.6 0.2 12.0 0.0 11.9 0.0 10.0 0.1 9.9 0.2 10.3" fill="#b55042" fill-rule="evenodd" stroke="none"/>
    <path d="M0.2 11.6 L0.2 11.9 0.2 11.95 0.2 12.25 0.1 12.45 0.1 12.5 0.0 12.95 0.05 13.3 0.1 13.65 0.1 13.7 0.05 14.0 -0.05 13.05 0.0 12.4 0.05 12.4 0.05 12.25 0.0 11.9 0.2 12.0 0.2 11.6" fill="#c96754" fill-rule="evenodd" stroke="none"/>
    <path d="M0.2 11.95 L0.25 12.25 0.25 12.4 0.2 12.4 0.2 12.7 0.1 12.45 0.2 12.25 0.2 11.95" fill="#decabb" fill-rule="evenodd" stroke="none"/>
    <path d="M0.2 12.7 L0.1 13.6 0.1 13.65 0.05 13.3 0.0 12.95 0.1 12.5 0.1 12.45 0.2 12.7" fill="#c8a792" fill-rule="evenodd" stroke="none"/>
    <path d="M0.05 -6.95 L0.1 -7.0 0.2 -7.2 0.15 -7.2 0.15 -7.3 0.1 -7.35 -0.1 -7.4 -0.2 -7.25 -0.35 -7.1 -0.75 -6.65 -0.75 -6.7 Q-0.75 -6.8 -0.9 -6.85 -1.0 -6.9 -1.0 -6.75 L-0.95 -6.65 Q-0.95 -6.55 -0.85 -6.55 L-0.85 -6.5 Q-1.1 -6.1 -1.2 -5.7 -1.25 -5.4 -1.2 -5.15 L-1.1 -4.85 -1.1 -4.85 -1.2 -4.7 Q-1.3 -4.55 -1.3 -4.35 L-1.25 -4.3 -1.2 -4.15 -1.15 -4.05 -1.1 -4.0 -1.1 -4.0 Q-1.25 -3.75 -1.25 -3.6 -1.25 -3.35 -1.0 -3.15 -0.9 -3.1 -0.8 -3.05 L-0.8 -3.0 Q-0.75 -2.9 -0.7 -2.8 -0.65 -2.7 -0.55 -2.7 L-0.45 -2.65 -0.35 -2.65 -0.35 -2.65 -0.3 -2.6 -0.3 -2.55 -0.35 -2.5 -0.3 -2.45 -0.2 -2.4 -0.2 -1.9 -0.2 0.85 -0.2 2.1 -0.15 3.05 -0.15 4.05 -0.15 6.5 -0.15 7.0 -0.15 8.5 -0.15 10.3 -0.1 12.1 -0.1 12.25 -0.1 12.4 -0.05 13.05 0.05 14.0 0.1 13.7 0.1 13.65 0.1 13.6 0.2 12.7 0.2 12.4 0.25 12.4 0.25 12.25 0.2 11.95 0.2 11.9 0.2 11.6 0.2 10.3 0.2 9.6 0.2 8.5 0.2 8.0 0.2 7.6 0.2 7.3 0.2 7.0 0.2 6.95 0.2 6.45 M-0.1 -7.05 L-0.1 -6.95 -0.1 -6.95 -0.05 -6.9 -0.05 -6.9 0.05 -6.95 0.1 -6.85 0.2 -6.4 0.15 -6.25 0.15 -6.15 0.1 -5.85 0.1 -5.55 0.15 -5.55 0.2 -5.35 0.3 -5.3 0.25 -5.2 0.45 -5.15 0.6 -5.05 0.7 -4.9 0.7 -4.95 Q0.75 -5.05 0.85 -5.05 L0.9 -5.05 0.9 -5.05 0.85 -4.95 0.75 -4.8 0.75 -4.75 1.05 -4.75 1.0 -4.7 1.0 -4.7 0.95 -4.6 0.95 -4.6 1.05 -4.55 1.2 -4.4 1.25 -4.3 1.25 -4.15 Q1.25 -4.05 1.15 -3.95 L1.05 -3.85 1.1 -3.75 1.05 -3.55 0.95 -3.35 0.95 -3.3 0.9 -3.45 0.9 -3.4 0.85 -3.3 0.75 -3.2 0.45 -2.95 0.4 -2.9 0.35 -2.9 0.3 -2.8 0.25 -2.8 0.2 -2.65 0.2 -2.6 0.2 -2.5 0.2 3.05 0.2 4.0 0.2 4.2 0.2 6.0 M0.1 -5.15 L0.2 -5.0 0.4 -4.9 0.4 -4.9 0.35 -4.75 0.6 -4.75 0.65 -4.8 0.55 -4.95 0.4 -5.05 0.1 -5.15 M-0.1 -5.15 L-0.25 -5.0 -0.4 -4.85 -0.4 -4.75 -0.55 -4.75 Q-0.7 -4.8 -0.85 -4.9 L-0.9 -5.0 -0.9 -5.05 -0.95 -5.0 -1.0 -5.2 Q-1.05 -5.45 -1.0 -5.75 L-0.9 -6.25 -0.85 -6.25 -0.9 -5.9 -0.9 -5.8 -0.8 -5.5 Q-0.65 -5.25 -0.45 -5.15 L-0.15 -5.15 -0.15 -5.15 -0.1 -5.15 M1.15 -4.3 L1.15 -4.15 1.1 -4.0 1.05 -3.95 1.0 -4.15 1.0 -4.15 1.05 -4.2 1.1 -4.25 0.9 -4.3 Q0.8 -4.35 0.8 -4.45 L0.85 -4.5 Q1.05 -4.5 1.1 -4.35 L1.15 -4.3 M0.35 -4.05 L0.35 -4.05 0.4 -4.05 0.4 -4.05 0.5 -4.0 0.5 -3.95 0.5 -3.9 0.4 -3.85 0.35 -3.85 Q0.3 -3.9 0.3 -3.95 L0.3 -4.0 0.35 -4.05 0.35 -4.05 M0.2 -3.1 L0.2 -3.25 0.2 -3.35 0.2 -3.35 0.3 -3.35 0.3 -3.35 0.45 -3.35 0.55 -3.3 0.6 -3.3 0.65 -3.3 0.65 -3.3 0.7 -3.25 0.55 -3.15 0.55 -3.15 0.45 -3.1 0.35 -3.05 0.35 -3.05 0.3 -3.05 0.25 -3.05 0.25 -3.1 0.2 -3.1 0.2 -3.1 M0.2 -3.3 L0.2 -3.25 0.2 -3.3 M0.3 -3.75 L0.35 -3.75 0.35 -3.75 0.4 -3.75 0.4 -3.8 0.45 -3.8 0.55 -3.8 0.6 -3.7 0.35 -3.7 0.35 -3.7 0.3 -3.7 0.3 -3.7 0.25 -3.75 0.3 -3.75 M0.75 -3.7 L0.75 -3.85 0.85 -3.8 0.85 -3.75 0.85 -3.65 0.8 -3.7 0.75 -3.7 M0.8 -3.6 L0.85 -3.6 0.85 -3.55 0.75 -3.3 0.75 -3.3 0.7 -3.35 0.75 -3.55 0.75 -3.65 0.8 -3.6 M0.6 -3.65 L0.65 -3.35 0.6 -3.4 0.55 -3.4 0.35 -3.4 0.35 -3.45 0.3 -3.45 0.3 -3.45 0.25 -3.5 0.3 -3.6 0.35 -3.65 0.35 -3.65 0.45 -3.65 0.5 -3.65 0.6 -3.65 M-0.1 -6.95 L-0.15 -6.9 -0.2 -6.8 -0.25 -6.75 -0.25 -6.6 -0.2 -6.2 -0.25 -6.15 -0.2 -5.8 -0.1 -5.65 -0.15 -5.55 0.1 -5.55 M-0.1 -7.05 L-0.2 -7.15 Q-0.55 -6.9 -0.8 -6.45 L-0.75 -6.3 -0.8 -6.1 -0.8 -5.9 -0.8 -5.8 -0.75 -5.7 -0.7 -5.5 -0.6 -5.35 -0.5 -5.25 -0.25 -5.25 -0.3 -5.25 Q-0.2 -5.4 -0.15 -5.55 M-1.05 -4.75 L-1.0 -4.65 -0.85 -4.55 -0.8 -4.4 Q-0.8 -4.35 -0.9 -4.3 L-1.1 -4.25 -1.0 -4.15 -1.0 -4.1 -1.1 -4.2 -1.2 -4.4 Q-1.2 -4.55 -1.05 -4.75 L-1.05 -4.75 M-0.8 -3.85 L-0.75 -3.85 -0.75 -3.55 -0.8 -3.6 -0.85 -3.65 -0.8 -3.85 M-0.7 -3.45 L-0.65 -3.3 -0.6 -3.7 -0.45 -4.05 -0.45 -4.05 -0.3 -4.05 -0.3 -4.05 -0.25 -3.9 -0.25 -3.35 -0.3 -3.2 -0.35 -3.15 -0.4 -3.15 -0.45 -3.1 -0.5 -3.1 -0.5 -3.1 -0.8 -3.25 -0.8 -3.3 -0.7 -3.45 M-0.15 -4.1 L-0.3 -4.05 M-0.9 -3.5 L-0.8 -3.4 -0.85 -3.35 -0.9 -3.3 Q-0.9 -3.3 -0.95 -3.3 L-0.9 -3.5 M-0.4 -3.0 L-0.3 -2.95 -0.3 -2.95 -0.25 -2.95 -0.25 -2.85 -0.3 -2.75 -0.35 -2.75 -0.5 -2.8 -0.5 -2.85 -0.55 -2.85 -0.7 -2.95 -0.7 -3.0 -0.6 -3.0 -0.55 -3.0 -0.5 -3.0 -0.4 -3.0 -0.4 -3.0 Z" fill="none" stroke="#000000" stroke-linecap="round" stroke-linejoin="round" stroke-opacity="0.4509804" stroke-width="0.1"/>
  </g>
</svg>
