<?xml version="1.0" encoding="UTF-8" standalone="no"?>
<svg xmlns:xlink="http://www.w3.org/1999/xlink" height="44.8px" width="10.0px" xmlns="http://www.w3.org/2000/svg">
  <g transform="matrix(1.0, 0.0, 0.0, 1.0, 4.55, 22.55)">
    <path d="M0.55 -20.0 L0.5 -19.55 0.5 -19.25 Q0.15 -18.35 0.1 -18.1 0.1 -17.85 -0.1 -17.7 -0.25 -17.5 -0.25 -17.4 -0.25 -17.25 0.3 -16.5 0.85 -15.75 0.85 -15.0 0.85 -14.95 0.35 -14.35 L-0.1 -13.75 Q0.05 -13.5 0.7 -13.0 1.1 -12.7 1.1 -11.95 1.1 -11.3 0.75 -10.95 0.45 -10.7 -0.15 -10.55 L-0.2 -10.55 -0.2 -10.4 Q-0.2 -9.85 -0.15 -9.7 -0.1 -9.65 0.2 -9.65 L1.8 -8.2 Q1.8 -7.95 1.45 -7.25 1.1 -6.55 0.9 -6.5 L0.1 -6.4 Q0.05 -5.8 -0.05 -5.65 -0.15 -5.5 -0.15 -5.3 L0.5 -4.95 Q1.1 -4.55 1.1 -4.15 1.1 -3.8 1.05 -3.6 L0.95 -3.35 Q0.95 -3.25 0.2 -2.6 L-0.55 -1.95 Q-0.5 -1.55 -0.5 -1.05 L0.6 -1.0 Q1.35 -0.9 1.35 0.05 1.35 1.3 0.35 1.7 -0.25 1.95 -0.4 2.05 -0.55 2.2 -0.65 2.45 L-0.6 2.45 -0.45 2.5 -0.4 2.9 Q-0.35 3.05 -0.6 3.05 L-0.7 3.0 Q-0.55 3.25 0.25 3.85 1.15 4.55 1.15 5.2 1.15 5.35 1.05 5.7 L1.0 5.85 Q1.05 6.0 1.05 6.45 1.05 6.75 0.15 7.35 -0.75 7.95 -0.75 8.45 -0.75 8.75 -0.5 8.95 -0.3 9.05 -0.15 9.05 L0.25 9.0 0.75 8.95 1.05 8.8 Q1.3 8.6 1.4 8.6 1.65 8.6 1.9 8.9 2.1 9.15 2.15 9.55 2.45 9.85 2.15 10.45 L2.0 10.8 Q2.0 10.95 2.1 11.05 2.1 11.1 1.55 11.4 1.35 11.65 1.1 11.7 L0.85 11.75 0.6 11.8 0.55 11.8 Q0.15 11.95 -0.2 12.2 L-0.35 12.2 Q-0.4 12.15 -0.4 12.0 L-0.4 11.95 -0.5 12.05 -0.7 12.3 -0.6 12.35 -0.45 12.55 -0.35 12.6 Q0.0 12.85 0.1 12.85 L0.75 12.75 1.25 12.6 Q1.35 12.6 1.95 13.0 2.55 13.45 2.6 13.6 2.75 14.0 2.1 14.75 1.55 15.45 1.25 15.55 L1.45 15.95 Q1.65 16.3 1.6 16.4 1.6 16.75 1.35 16.9 1.2 17.05 1.0 17.05 0.75 17.05 0.4 16.75 0.0 16.45 0.0 16.05 L0.05 15.65 0.05 15.55 0.0 15.6 Q-0.1 15.6 -0.15 15.8 -0.2 16.0 -0.35 16.05 L-0.7 16.1 -0.75 16.25 -0.65 16.4 -0.55 16.55 -0.5 16.5 Q-0.25 16.5 -0.2 16.8 -0.2 17.05 -0.55 17.05 L-0.6 17.05 -0.75 17.1 -1.05 17.2 -1.4 17.1 -1.45 17.15 -1.6 17.2 -1.55 17.35 Q-1.55 17.6 -1.8 17.6 -1.95 17.6 -2.15 17.45 -2.35 17.25 -2.35 16.95 -2.35 16.65 -2.15 16.5 L-1.9 16.45 -1.85 16.3 Q-1.8 16.1 -1.55 15.95 L-1.4 15.9 Q-1.35 15.85 -1.25 15.75 -1.05 15.45 -0.65 15.55 L-0.65 15.55 Q-1.05 15.55 -1.3 14.65 -1.5 13.85 -1.5 13.1 -1.5 12.6 -1.05 11.95 -0.55 11.3 -0.1 11.2 L0.65 11.15 Q1.1 11.1 1.45 10.85 L1.3 10.3 1.45 9.75 Q1.35 9.65 1.35 9.45 L1.4 9.35 1.5 9.3 1.55 9.3 1.5 9.25 Q1.5 9.2 1.4 9.2 0.15 9.6 -0.1 9.6 -0.45 9.6 -0.85 9.35 -1.3 9.0 -1.3 8.45 -1.3 8.15 -0.8 7.55 L-0.95 7.5 Q-1.25 7.4 -1.25 7.15 -1.25 6.9 -1.0 6.65 -0.75 6.5 -0.65 6.5 -0.2 6.5 0.0 6.7 L0.4 6.25 0.25 6.25 0.1 6.15 Q-0.05 6.05 -0.05 6.0 -0.05 5.65 0.25 5.65 0.35 5.65 0.45 5.75 0.5 5.6 0.6 5.55 L0.6 5.25 Q0.6 5.0 0.3 4.6 -0.05 4.05 -0.45 4.05 -0.85 4.05 -1.1 3.55 -1.3 3.2 -1.3 2.95 -1.3 2.15 -1.0 1.75 -0.8 1.5 -0.3 1.35 0.25 1.15 0.45 1.0 0.75 0.65 0.85 -0.05 0.5 -0.3 -0.45 -0.35 -1.2 -0.6 -1.2 -2.05 -1.2 -2.4 -0.8 -2.6 -0.25 -2.8 -0.2 -2.9 L0.2 -3.4 Q0.4 -3.65 0.55 -4.15 L-0.05 -4.55 -0.25 -4.75 Q-0.45 -4.75 -0.55 -4.9 -0.7 -5.05 -0.7 -5.3 -0.7 -5.6 -0.6 -5.75 -0.5 -5.9 -0.5 -6.65 -0.5 -6.95 0.0 -7.0 L0.7 -7.0 Q0.7 -7.6 0.95 -7.8 1.25 -8.05 1.25 -8.15 L0.65 -8.65 Q0.3 -8.95 0.05 -9.05 -0.5 -9.3 -0.6 -9.35 -0.85 -9.65 -0.85 -10.55 -0.85 -10.9 -0.25 -11.05 0.3 -11.15 0.3 -11.6 0.3 -11.8 0.45 -11.95 L0.55 -12.15 Q0.55 -12.4 -0.1 -12.95 -0.75 -13.45 -0.75 -13.85 -0.75 -14.1 -0.25 -14.4 0.3 -14.7 0.3 -15.05 0.3 -15.5 -0.25 -16.25 -0.85 -17.05 -0.85 -17.35 -0.85 -17.75 -0.45 -18.25 -0.1 -18.75 -0.1 -19.15 L-0.1 -20.5 0.0 -20.75 Q0.05 -20.85 0.15 -20.85 0.25 -20.85 0.3 -20.8 L0.35 -20.8 Q0.65 -20.8 0.65 -20.45 0.65 -20.25 0.55 -20.15 L0.55 -20.0 M0.2 3.55 L-0.2 3.45 Q-0.4 3.35 -0.4 3.15 -0.4 3.0 -0.15 2.9 L0.1 2.8 Q0.45 2.8 0.45 3.2 0.5 3.55 0.2 3.55 M1.0 8.3 Q1.1 8.9 0.3 8.9 0.1 8.9 -0.1 8.75 -0.3 8.55 -0.3 8.25 -0.3 7.95 -0.05 7.75 0.1 7.65 0.2 7.65 0.9 7.65 1.0 8.3 M1.65 13.4 L1.2 13.2 0.55 13.4 Q0.65 13.55 0.65 13.65 L0.6 13.85 Q0.6 13.9 1.0 14.2 1.35 14.45 1.4 14.65 L2.05 13.7 1.65 13.4 M0.5 10.2 Q0.8 10.2 0.85 10.5 0.9 10.8 0.6 10.8 L0.4 10.7 0.35 10.7 0.3 10.7 Q0.2 10.7 0.15 10.6 0.05 10.5 0.05 10.4 0.05 10.2 0.15 10.15 L0.3 10.1 Q0.45 10.1 0.5 10.2 M0.05 14.55 L0.05 14.45 -0.2 14.55 Q-0.3 14.55 -0.35 14.35 L-0.5 14.0 -0.7 13.9 Q-0.85 13.85 -0.85 13.65 -0.85 13.4 -0.55 13.15 L-0.95 12.9 -0.95 13.05 Q-0.95 14.1 -0.65 14.65 L-0.4 15.1 Q-0.35 15.05 -0.35 14.9 -0.35 14.7 -0.25 14.6 L-0.1 14.6 Q0.0 14.6 0.05 14.65 L0.05 14.55 M2.6 15.6 Q3.0 15.6 3.3 16.25 3.6 16.9 2.65 16.9 2.35 16.9 2.1 16.65 1.85 16.4 1.85 16.05 1.85 15.95 2.2 15.8 L2.6 15.6 M0.7 15.2 Q0.45 15.2 0.3 15.05 L0.25 15.0 Q0.3 15.2 0.25 15.3 0.35 15.25 0.35 15.25 L0.65 15.2 0.7 15.2 M1.9 17.55 Q2.25 17.55 2.3 17.9 2.35 18.25 2.0 18.25 1.8 18.25 1.65 18.15 L1.6 18.1 Q1.9 18.4 1.6 18.8 1.3 19.1 1.05 19.1 0.9 19.1 0.65 18.9 0.35 18.7 0.35 18.5 L0.3 18.2 Q0.3 18.0 0.5 17.9 L0.7 17.8 1.1 17.9 Q1.4 18.0 1.5 18.05 1.4 17.95 1.4 17.85 1.4 17.6 1.65 17.55 L1.9 17.55 M0.0 18.5 L0.05 18.7 Q0.1 18.95 -0.2 18.95 -0.3 18.95 -0.4 18.85 -0.45 18.8 -0.45 18.65 -0.45 18.55 -0.35 18.5 L-0.35 18.35 -0.2 18.3 0.0 18.35 0.0 18.5 M0.45 19.4 Q0.5 19.75 -0.1 19.75 -0.25 19.75 -0.35 19.65 -0.45 19.5 -0.45 19.4 -0.45 19.2 -0.2 19.1 L0.05 19.0 Q0.4 19.0 0.45 19.4 M1.9 18.7 Q1.9 18.45 2.15 18.4 L2.35 18.45 2.55 18.4 Q2.65 18.3 2.65 18.3 2.7 18.3 2.8 18.35 L3.0 18.4 Q3.35 18.4 3.25 18.75 3.15 19.1 2.8 19.1 L2.4 19.0 2.25 19.0 Q2.3 19.25 2.0 19.25 1.85 19.25 1.8 19.15 1.7 19.05 1.7 19.0 1.7 18.8 1.8 18.75 1.85 18.7 1.9 18.7 M1.8 19.75 Q1.8 19.9 1.75 20.05 1.8 20.15 1.75 20.35 1.6 20.85 1.1 20.85 0.95 20.85 0.85 20.7 0.7 20.55 0.7 20.25 0.7 20.15 0.95 20.05 0.8 19.85 0.8 19.65 0.8 19.4 1.15 19.3 L1.45 19.25 Q1.75 19.25 1.8 19.75 M3.65 19.25 Q4.3 19.25 4.2 19.85 4.15 20.45 3.45 20.45 3.3 20.45 3.15 20.35 2.95 20.25 2.95 19.95 2.95 19.75 3.2 19.5 3.5 19.25 3.65 19.25 M0.65 20.55 Q0.55 21.25 -0.2 21.25 -0.9 21.25 -0.9 20.6 -0.55 20.05 -0.35 19.95 L0.2 19.9 Q0.75 19.9 0.65 20.55 M-0.55 4.6 Q-0.3 4.6 -0.25 4.95 -0.2 5.3 -0.6 5.3 -0.7 5.3 -0.8 5.2 L-0.9 4.95 Q-0.9 4.75 -0.7 4.7 L-0.55 4.6 M-1.1 9.4 L-0.9 9.4 Q-0.6 9.4 -0.65 9.7 -0.7 10.0 -1.0 10.0 -1.1 10.0 -1.2 9.9 -1.3 9.85 -1.3 9.7 -1.3 9.5 -1.1 9.4 M-0.8 10.1 L-0.4 10.1 Q0.0 10.1 0.0 10.55 0.0 11.35 -0.65 11.35 -0.95 11.35 -1.05 11.1 L-1.1 10.7 -1.1 10.5 -1.1 10.35 Q-1.1 10.25 -0.95 10.15 -0.85 10.1 -0.8 10.1 M-4.2 18.2 Q-4.2 17.95 -3.95 17.8 L-3.7 17.7 Q-3.2 17.7 -3.2 18.1 L-3.15 18.1 Q-3.0 18.1 -3.0 18.3 -3.05 18.45 -3.2 18.45 L-3.25 18.45 Q-3.35 18.75 -3.8 18.75 -3.95 18.75 -4.1 18.6 -4.2 18.45 -4.2 18.2 M-1.9 15.8 Q-1.7 15.8 -1.7 16.0 -1.8 16.15 -1.9 16.15 L-2.0 16.1 -2.05 16.0 -2.05 15.85 -2.0 15.8 Q-2.0 15.8 -1.9 15.8 M-1.8 15.1 Q-1.5 15.1 -1.45 15.45 -1.45 15.8 -1.85 15.8 -1.9 15.8 -2.0 15.7 -2.15 15.6 -2.15 15.5 -2.15 15.3 -2.0 15.2 -1.9 15.1 -1.8 15.1 M-2.6 15.65 Q-2.25 15.65 -2.3 16.05 -2.35 16.5 -2.75 16.5 -2.95 16.5 -3.0 16.35 -3.05 16.25 -3.05 16.0 -3.05 15.8 -2.85 15.7 L-2.6 15.65 M-2.9 17.2 Q-2.45 17.2 -2.45 17.45 -2.45 17.8 -2.6 17.9 L-2.85 17.9 -2.95 17.95 -3.05 18.0 Q-3.15 18.0 -3.25 17.85 -3.35 17.7 -3.35 17.55 -3.35 17.35 -3.15 17.25 -3.0 17.2 -2.9 17.2 M-2.15 19.6 L-2.2 19.6 -2.25 19.5 -2.3 19.35 -2.05 19.2 -1.85 19.2 -1.85 19.2 Q-1.65 19.25 -1.6 19.55 -1.5 19.85 -1.85 19.85 -1.95 19.85 -2.05 19.7 L-2.15 19.6 M-1.2 17.9 Q-0.8 17.9 -0.65 18.3 -0.5 18.75 -1.1 18.75 -1.25 18.75 -1.4 18.65 -1.55 18.5 -1.55 18.3 -1.55 17.9 -1.2 17.9" fill="#ad34f7" fill-rule="evenodd" stroke="none"/>
    <path d="M0.85 -22.45 Q1.25 -22.45 1.25 -22.1 1.25 -21.85 1.1 -21.75 L1.1 -21.65 1.05 -21.15 1.0 -20.8 Q0.6 -19.9 0.6 -19.6 0.55 -19.35 0.35 -19.15 0.15 -18.95 0.15 -18.85 0.15 -18.7 0.8 -17.9 1.45 -17.1 1.45 -16.3 1.45 -16.2 0.9 -15.6 L0.3 -14.95 Q0.5 -14.7 1.3 -14.15 1.75 -13.85 1.75 -13.05 1.75 -12.35 1.35 -12.0 1.0 -11.7 0.25 -11.55 L0.25 -11.55 Q0.2 -11.55 0.2 -11.4 0.2 -10.8 0.3 -10.7 0.35 -10.6 0.65 -10.6 L1.65 -9.9 Q2.6 -9.15 2.6 -9.1 2.6 -8.8 2.15 -8.05 1.7 -7.3 1.5 -7.25 L0.55 -7.15 Q0.5 -6.5 0.4 -6.35 0.3 -6.2 0.3 -5.95 L1.05 -5.6 Q1.8 -5.2 1.8 -4.75 1.8 -4.4 1.7 -4.15 L1.6 -3.9 Q1.6 -3.8 0.7 -3.1 L-0.2 -2.4 Q-0.15 -2.0 -0.15 -1.45 L1.15 -1.4 Q2.05 -1.3 2.05 -0.3 2.05 1.05 0.85 1.5 0.15 1.7 0.0 1.85 -0.2 2.0 -0.3 2.3 L-0.25 2.25 -0.1 2.3 0.0 2.75 Q0.0 2.9 -0.25 2.9 L-0.35 2.85 Q-0.2 3.1 0.75 3.75 1.8 4.5 1.8 5.2 L1.7 5.7 1.6 5.85 Q1.7 6.05 1.7 6.55 1.7 6.85 0.65 7.5 -0.4 8.15 -0.4 8.65 -0.4 8.95 -0.1 9.15 0.1 9.3 0.3 9.3 L0.75 9.25 1.3 9.15 1.65 9.0 Q1.95 8.8 2.1 8.8 2.4 8.8 2.65 9.1 2.95 9.4 2.95 9.8 3.35 10.15 3.0 10.8 L2.8 11.15 2.9 11.4 Q2.95 11.45 2.3 11.8 2.05 12.0 1.75 12.1 L1.45 12.15 1.2 12.2 1.15 12.2 1.1 12.2 Q0.65 12.35 0.2 12.65 L0.05 12.6 Q-0.05 12.55 -0.05 12.45 L-0.05 12.35 -0.15 12.45 -0.4 12.75 -0.25 12.8 Q-0.15 12.85 -0.05 13.0 L0.05 13.05 Q0.45 13.3 0.55 13.3 0.95 13.3 1.35 13.2 1.75 13.05 1.95 13.05 2.05 13.05 2.75 13.5 3.5 13.95 3.55 14.1 3.7 14.55 2.95 15.35 2.3 16.1 1.9 16.15 L1.9 16.2 2.15 16.6 Q2.4 16.95 2.35 17.1 2.35 17.45 2.05 17.65 1.85 17.8 1.65 17.8 1.35 17.8 0.9 17.5 0.45 17.15 0.45 16.75 L0.5 16.25 0.5 16.2 0.45 16.2 Q0.35 16.25 0.25 16.45 0.2 16.65 0.05 16.7 L-0.4 16.75 Q-0.4 16.85 -0.45 16.9 L-0.3 17.1 -0.2 17.25 -0.15 17.2 Q0.2 17.2 0.2 17.5 0.2 17.8 -0.2 17.8 L-0.25 17.75 -0.45 17.85 -0.75 17.95 -1.2 17.85 -1.25 17.85 -1.4 17.95 -1.4 18.1 Q-1.4 18.35 -1.65 18.4 -1.85 18.4 -2.05 18.2 -2.3 18.0 -2.3 17.65 -2.3 17.35 -2.1 17.2 L-1.8 17.15 -1.75 16.95 Q-1.65 16.75 -1.4 16.6 L-1.2 16.55 -1.05 16.4 Q-0.8 16.1 -0.3 16.2 L-0.3 16.2 Q-0.75 16.15 -1.05 15.2 -1.35 14.4 -1.35 13.55 -1.35 13.05 -0.8 12.35 -0.2 11.7 0.35 11.55 L1.2 11.5 Q1.75 11.45 2.2 11.2 L2.0 10.6 2.2 10.0 Q2.05 9.9 2.05 9.7 L2.1 9.6 Q2.1 9.55 2.25 9.55 L2.25 9.5 Q2.25 9.45 2.1 9.45 0.65 9.9 0.3 9.9 0.0 9.9 -0.35 9.7 -0.25 9.75 -0.3 9.95 -0.35 10.3 -0.75 10.3 -0.85 10.3 -0.95 10.2 -1.1 10.1 -1.1 9.95 -1.1 9.75 -0.85 9.65 L-0.65 9.65 -0.4 9.65 -0.55 9.6 Q-1.1 9.25 -1.1 8.65 -1.1 8.3 -0.5 7.7 L-0.65 7.65 Q-1.0 7.5 -1.0 7.25 -1.0 6.95 -0.7 6.75 -0.45 6.55 -0.3 6.55 0.25 6.55 0.45 6.8 L0.9 6.3 0.75 6.3 Q0.7 6.3 0.55 6.2 0.4 6.1 0.4 6.0 0.4 5.65 0.75 5.65 0.9 5.65 1.0 5.75 1.05 5.6 1.15 5.55 L1.2 5.2 Q1.2 5.0 0.85 4.5 0.4 3.95 -0.05 3.95 -0.55 3.95 -0.85 3.4 -1.05 3.05 -1.05 2.75 -1.05 1.9 -0.7 1.5 -0.5 1.25 0.1 1.05 0.75 0.9 0.95 0.7 1.35 0.35 1.45 -0.4 1.0 -0.7 -0.1 -0.7 -0.95 -0.95 -0.95 -2.55 -0.95 -2.9 -0.45 -3.1 0.15 -3.35 0.2 -3.4 L0.7 -3.95 Q0.9 -4.2 1.1 -4.75 L0.15 -5.4 Q-0.05 -5.4 -0.2 -5.55 -0.4 -5.7 -0.4 -6.0 -0.4 -6.3 -0.25 -6.45 -0.1 -6.6 -0.1 -7.45 -0.1 -7.75 0.45 -7.8 L1.25 -7.8 Q1.25 -8.45 1.55 -8.65 L1.95 -9.0 1.25 -9.55 Q0.8 -9.9 0.5 -10.0 -0.15 -10.2 -0.25 -10.3 -0.55 -10.6 -0.55 -11.6 -0.55 -11.95 0.15 -12.1 0.85 -12.2 0.85 -12.65 0.85 -12.9 0.95 -13.05 1.1 -13.2 1.1 -13.25 1.1 -13.55 0.3 -14.1 -0.45 -14.65 -0.45 -15.05 -0.45 -15.35 0.2 -15.65 0.8 -16.0 0.8 -16.35 0.8 -16.8 0.15 -17.65 -0.55 -18.5 -0.55 -18.8 -0.55 -19.2 -0.1 -19.75 0.3 -20.3 0.3 -20.7 L0.3 -22.15 Q0.3 -22.3 0.45 -22.45 0.5 -22.55 0.65 -22.55 0.75 -22.55 0.85 -22.45 L0.85 -22.45 M0.65 3.4 L0.25 3.35 Q0.0 3.2 0.0 3.0 0.0 2.8 0.3 2.7 L0.6 2.65 Q1.0 2.65 1.0 3.05 1.0 3.4 0.65 3.4 M0.35 7.9 Q0.55 7.8 0.65 7.8 1.5 7.8 1.65 8.45 1.8 9.1 0.8 9.1 0.6 9.1 0.35 8.95 0.1 8.75 0.1 8.45 0.1 8.1 0.35 7.9 M1.85 13.65 L1.1 13.9 Q1.25 14.05 1.25 14.2 L1.15 14.35 Q1.15 14.45 1.65 14.75 2.0 15.0 2.1 15.2 L2.85 14.25 2.4 13.9 Q1.95 13.65 1.85 13.65 M1.45 10.8 Q1.55 11.15 1.2 11.15 1.1 11.15 0.9 11.05 L0.9 11.0 0.8 11.0 0.6 10.95 Q0.5 10.85 0.5 10.7 0.5 10.5 0.65 10.4 L0.8 10.35 Q1.0 10.35 1.05 10.5 1.4 10.5 1.45 10.8 M3.5 16.25 Q4.0 16.25 4.35 16.9 4.7 17.6 3.55 17.6 3.2 17.6 2.95 17.35 2.6 17.05 2.6 16.75 2.6 16.65 3.05 16.45 L3.5 16.25 M1.25 15.8 Q1.0 15.8 0.8 15.65 L0.75 15.6 Q0.8 15.8 0.75 15.95 L0.9 15.85 1.2 15.8 1.25 15.8 M0.5 15.1 L0.5 15.0 0.25 15.1 Q0.1 15.1 0.05 14.95 -0.05 14.65 -0.15 14.55 L-0.35 14.45 Q-0.55 14.35 -0.55 14.15 -0.55 13.9 -0.2 13.65 -0.4 13.55 -0.65 13.35 L-0.65 13.55 Q-0.65 14.65 -0.3 15.25 L-0.05 15.7 Q0.05 15.65 0.05 15.45 0.05 15.3 0.2 15.2 L0.35 15.15 0.55 15.25 0.5 15.1 M0.45 19.15 L0.45 19.3 0.55 19.5 Q0.55 19.8 0.25 19.8 0.1 19.8 0.0 19.7 -0.1 19.6 -0.1 19.5 -0.1 19.4 0.05 19.3 L0.05 19.15 0.25 19.1 0.45 19.15 M0.8 19.0 Q0.8 18.8 1.05 18.65 L1.25 18.55 1.75 18.7 Q2.1 18.75 2.25 18.85 2.15 18.75 2.15 18.65 2.15 18.4 2.4 18.3 L2.65 18.3 Q3.1 18.3 3.2 18.65 3.25 19.05 2.85 19.05 2.6 19.05 2.4 18.95 L2.3 18.9 Q2.7 19.2 2.3 19.6 1.95 19.95 1.65 19.95 1.5 19.95 1.2 19.75 0.9 19.55 0.9 19.35 L0.8 19.0 M2.7 19.5 Q2.7 19.25 3.0 19.25 L3.25 19.25 3.45 19.2 3.6 19.1 3.75 19.2 4.0 19.25 Q4.4 19.25 4.3 19.6 4.15 19.95 3.75 19.95 L3.55 19.9 Q3.45 19.85 3.3 19.85 L3.1 19.85 Q3.15 20.1 2.8 20.1 2.65 20.1 2.55 20.0 2.45 19.95 2.45 19.85 2.45 19.65 2.6 19.6 L2.7 19.55 2.7 19.5 M4.75 20.1 Q5.5 20.1 5.4 20.75 5.35 21.4 4.55 21.4 L4.2 21.3 Q3.9 21.15 3.9 20.85 3.9 20.65 4.25 20.4 4.55 20.1 4.75 20.1 M2.55 20.65 Q2.6 20.85 2.5 20.95 2.6 21.05 2.5 21.3 2.35 21.8 1.75 21.8 1.6 21.8 1.45 21.65 1.3 21.45 1.3 21.2 1.3 21.05 1.55 20.95 1.4 20.8 1.4 20.5 1.4 20.3 1.8 20.2 2.0 20.1 2.15 20.1 2.55 20.1 2.55 20.65 M1.0 20.3 Q1.0 20.65 0.3 20.65 0.2 20.65 0.05 20.55 -0.1 20.4 -0.1 20.3 -0.1 20.1 0.2 19.95 L0.5 19.85 Q0.95 19.85 1.0 20.3 M0.65 20.8 Q1.35 20.8 1.2 21.5 1.1 22.25 0.25 22.25 -0.6 22.25 -0.6 21.55 -0.2 20.95 0.05 20.85 L0.65 20.8 M-0.4 4.65 Q-0.3 4.55 -0.2 4.55 0.1 4.55 0.15 4.95 0.25 5.3 -0.25 5.3 -0.35 5.3 -0.5 5.15 -0.6 5.05 -0.6 4.9 -0.6 4.7 -0.4 4.65 M-0.05 10.4 Q0.45 10.4 0.45 10.85 0.45 11.7 -0.3 11.7 -0.65 11.7 -0.75 11.45 -0.8 11.35 -0.8 11.0 L-0.85 10.95 -0.85 10.65 Q-0.85 10.55 -0.7 10.45 -0.55 10.35 -0.5 10.35 L-0.05 10.4 M-4.25 18.6 L-3.95 18.45 Q-3.35 18.45 -3.3 18.9 L-3.3 18.9 Q-3.05 18.9 -3.05 19.1 L-3.3 19.25 -3.35 19.25 Q-3.5 19.6 -4.0 19.6 -4.2 19.6 -4.35 19.45 -4.55 19.25 -4.55 19.0 -4.55 18.75 -4.25 18.6 M-1.7 15.7 Q-1.3 15.7 -1.25 16.05 -1.25 16.45 -1.7 16.45 L-1.9 16.35 Q-2.1 16.25 -2.1 16.1 -2.1 15.95 -1.9 15.8 -1.8 15.7 -1.7 15.7 M-1.55 16.7 Q-1.7 16.8 -1.8 16.8 L-1.9 16.75 -2.0 16.65 -2.0 16.5 -1.9 16.45 -1.75 16.45 Q-1.55 16.45 -1.55 16.7 M-2.9 16.35 L-2.6 16.25 Q-2.2 16.25 -2.25 16.75 -2.35 17.15 -2.75 17.15 -3.0 17.15 -3.1 17.05 -3.15 16.9 -3.15 16.65 -3.15 16.45 -2.9 16.35 M-2.4 18.2 Q-2.4 18.55 -2.6 18.65 L-2.9 18.7 -3.05 18.75 -3.15 18.75 -3.4 18.65 Q-3.5 18.5 -3.5 18.35 -3.5 18.1 -3.25 18.0 -3.1 17.95 -2.95 17.95 -2.4 17.95 -2.4 18.2 M-1.35 19.1 Q-1.35 18.65 -0.95 18.65 -0.5 18.65 -0.35 19.1 -0.15 19.55 -0.85 19.55 -1.05 19.55 -1.2 19.45 -1.35 19.35 -1.35 19.1 M-2.0 20.6 L-2.05 20.45 -2.1 20.5 -2.25 20.4 -2.3 20.25 -1.95 20.05 -1.75 20.05 -1.75 20.1 Q-1.5 20.1 -1.4 20.4 -1.3 20.75 -1.7 20.75 -1.85 20.75 -2.0 20.6" fill="#ad34f7" fill-opacity="0.0" fill-rule="evenodd" stroke="none"/>
  </g>
</svg>
