<?xml version="1.0" encoding="UTF-8" standalone="no"?>
<svg xmlns:xlink="http://www.w3.org/1999/xlink" height="21.1px" width="3.9px" xmlns="http://www.w3.org/2000/svg">
  <g transform="matrix(1.0, 0.0, 0.0, 1.0, 1.75, 8.1)">
    <path d="M-0.05 -7.7 L0.0 -7.75 0.05 -7.8 0.05 -7.8 0.0 -7.9 -0.05 -7.95 -0.15 -7.9 -0.15 -7.85 -0.1 -7.75 -0.1 -7.65 -0.05 -7.7 -0.05 -7.7 M-0.1 -7.75 L-0.1 -7.75 M-0.35 -7.5 L-0.35 -7.75 -0.3 -7.8 -0.25 -7.75 -0.25 -7.75 -0.2 -7.85 -0.25 -7.85 -0.25 -7.9 -0.2 -8.05 -0.05 -8.05 0.1 -8.0 0.15 -7.95 0.15 -7.9 0.1 -7.85 Q0.1 -7.85 0.1 -7.75 L0.15 -7.75 0.2 -7.75 0.25 -7.7 0.25 -7.75 0.3 -7.7 0.3 -7.65 0.25 -7.5 0.2 -7.45 0.2 -7.45 Q0.1 -7.45 0.05 -7.35 L0.05 -7.35 -0.05 -7.25 Q-0.1 -7.25 -0.2 -7.35 L-0.25 -7.4 -0.35 -7.5 M0.1 -7.0 L0.1 -6.65 0.15 -5.85 0.1 -5.85 0.05 -5.8 0.05 -5.8 0.0 -5.85 0.05 -5.85 0.05 -5.9 0.0 -5.95 0.0 -6.0 0.05 -6.05 0.05 -6.1 -0.05 -6.2 0.0 -6.25 0.05 -6.3 0.0 -6.35 -0.05 -6.5 0.05 -6.5 0.05 -6.55 Q0.0 -6.55 -0.05 -6.6 L-0.05 -6.65 0.0 -6.7 0.05 -6.75 -0.05 -6.75 -0.1 -6.85 -0.1 -6.85 -0.05 -6.85 0.05 -6.85 0.05 -6.9 -0.15 -6.95 -0.1 -7.05 -0.05 -7.05 0.05 -7.0 0.1 -7.0 M0.15 -5.5 Q0.3 -5.45 0.3 -5.35 L0.25 -5.25 0.25 -5.2 0.2 -5.2 0.2 -5.2 0.15 -5.15 0.15 -5.25 0.1 -5.35 0.1 -5.35 0.15 -5.4 0.0 -5.55 Q-0.05 -5.55 -0.1 -5.5 L-0.15 -5.4 -0.15 -5.35 -0.05 -5.3 0.0 -5.3 0.0 -5.25 -0.05 -5.3 -0.15 -5.25 Q-0.15 -5.15 -0.15 -5.05 L-0.15 -5.0 -0.2 -5.0 -0.3 -4.95 -0.3 -5.0 -0.25 -5.05 Q-0.25 -5.15 -0.35 -5.3 L-0.4 -5.25 -0.45 -5.3 -0.5 -5.35 -0.4 -5.4 -0.35 -5.35 -0.25 -5.4 -0.25 -5.4 -0.2 -5.45 -0.15 -5.5 -0.05 -5.6 0.15 -5.5 M0.45 -5.0 L0.55 -5.05 0.6 -4.95 0.6 -4.9 0.45 -4.9 0.55 -4.85 0.55 -4.75 0.5 -4.75 0.5 -4.65 0.45 -4.65 0.4 -4.7 0.35 -4.7 0.35 -4.7 0.25 -4.75 0.25 -4.75 0.1 -4.8 0.0 -4.7 0.0 -4.65 -0.1 -4.65 -0.1 -4.7 -0.05 -4.8 -0.05 -4.95 Q0.0 -4.9 0.0 -4.85 L0.0 -4.8 -0.05 -4.75 Q0.05 -4.75 0.05 -4.8 L0.1 -4.85 0.1 -4.85 0.05 -4.9 0.1 -4.95 0.1 -4.95 Q0.2 -4.95 0.3 -4.85 L0.45 -5.0 M0.6 -5.05 L0.6 -5.05 Q0.55 -5.1 0.55 -5.15 L0.65 -5.15 0.7 -5.05 0.75 -4.95 0.7 -4.95 0.65 -4.95 0.6 -5.05 M1.75 -5.7 L1.85 -6.05 1.9 -6.05 1.9 -6.0 1.9 -5.75 1.9 -5.65 1.75 -5.7 M1.5 -4.6 L1.4 -4.5 1.25 -4.2 1.15 -4.1 1.15 -4.1 1.1 -4.1 1.05 -4.15 1.15 -4.25 1.2 -4.35 1.3 -4.45 1.3 -4.5 1.35 -4.55 1.35 -4.55 1.45 -4.6 1.5 -4.6 M-0.4 1.35 L-0.4 0.7 Q-0.2 0.85 -0.15 0.9 L-0.3 1.2 -0.4 1.35 M-0.4 0.5 L-0.4 0.15 -0.35 0.15 -0.35 0.15 -0.35 0.45 -0.4 0.5 M-0.4 -0.15 L-0.45 -1.4 -0.35 -1.4 -0.3 -0.9 -0.3 -0.75 -0.15 -0.85 Q-0.05 -0.9 -0.05 -0.7 L-0.05 -0.65 -0.1 -0.6 -0.3 -0.35 -0.35 -0.2 -0.4 -0.15 M-1.3 -5.4 L-1.3 -5.5 -1.3 -5.45 -1.25 -5.45 -1.3 -5.4 M-0.95 -6.55 L-0.9 -6.65 -0.8 -6.75 -0.75 -6.85 -0.75 -6.85 -0.65 -6.85 -0.8 -6.55 -0.95 -6.55 M-0.2 -4.95 L-0.15 -4.95 Q-0.15 -4.85 -0.2 -4.8 L-0.25 -4.7 -0.35 -4.65 -0.35 -4.65 -0.4 -4.65 -0.45 -4.65 -0.4 -4.65 -0.35 -4.7 -0.3 -4.8 -0.25 -4.85 -0.2 -4.9 -0.2 -4.95 M-0.55 -4.65 L-0.5 -4.65 -0.65 -4.65 -0.65 -4.7 -0.55 -4.65 M-0.15 -4.35 L-0.15 -4.45 -0.05 -4.45 -0.05 -4.35 -0.15 -4.35 M1.3 -4.45 L1.3 -4.45 M0.4 -4.8 L0.35 -4.75 0.4 -4.7 0.45 -4.7 0.45 -4.7 0.4 -4.8 0.4 -4.8 M0.2 -3.05 L0.05 -3.1 Q-0.05 -3.1 -0.1 -3.15 -0.05 -3.15 0.0 -3.2 L0.05 -3.2 0.25 -3.15 0.45 -3.15 0.45 -3.05 0.2 -3.05 M-0.3 -3.05 L-0.45 -3.15 -0.3 -3.2 -0.3 -3.05 M-0.1 -3.35 L-0.15 -3.3 -0.3 -3.25 -0.3 -3.3 -0.35 -3.3 -0.5 -3.3 -0.5 -3.35 -0.65 -3.35 -0.65 -3.35 -0.7 -3.35 Q-0.75 -3.4 -0.8 -3.45 L-0.8 -3.5 -0.75 -3.45 -0.5 -3.45 -0.55 -3.45 -0.5 -3.5 Q-0.45 -3.5 -0.45 -3.55 L-0.45 -3.55 -0.4 -3.55 -0.3 -3.55 -0.35 -3.5 -0.3 -3.4 -0.25 -3.4 -0.25 -3.4 -0.2 -3.35 -0.1 -3.35 M-0.95 -3.5 L-0.95 -3.4 -1.05 -3.4 -1.4 -3.65 -1.35 -3.7 Q-1.25 -3.55 -0.95 -3.5 M-1.2 -4.9 L-1.3 -4.9 -1.3 -5.05 -1.25 -5.15 -1.25 -5.2 -1.25 -5.0 -1.2 -4.9 M0.25 -1.75 Q0.25 -1.55 0.3 -1.3 L0.2 -1.25 0.05 -1.3 0.05 -1.4 0.1 -1.6 0.25 -1.75 M-0.05 -4.35 L-0.05 -4.35 M-0.2 -3.45 L-0.2 -3.45 -0.15 -3.45 -0.2 -3.45" fill="#2e91a8" fill-rule="evenodd" stroke="none"/>
    <path d="M-0.1 -7.75 L-0.15 -7.85 -0.15 -7.9 -0.05 -7.95 0.0 -7.9 0.05 -7.8 0.05 -7.8 0.0 -7.75 -0.05 -7.7 0.0 -7.8 -0.05 -7.9 -0.1 -7.75 -0.1 -7.7 -0.05 -7.7 -0.1 -7.65 -0.1 -7.75 M0.2 -7.45 L0.2 -7.35 0.15 -7.2 0.1 -7.0 0.05 -7.0 -0.05 -7.05 -0.1 -7.05 -0.15 -6.95 0.05 -6.9 0.05 -6.85 -0.05 -6.85 -0.1 -6.85 -0.1 -6.85 -0.05 -6.75 0.05 -6.75 0.0 -6.7 -0.05 -6.65 -0.05 -6.7 Q-0.1 -6.85 -0.15 -6.95 L-0.2 -6.9 -0.15 -6.7 -0.15 -6.6 -0.2 -6.6 -0.25 -7.05 -0.3 -7.35 -0.35 -7.5 -0.25 -7.4 -0.2 -7.35 Q-0.1 -7.25 -0.05 -7.25 L0.05 -7.35 0.05 -7.35 Q0.1 -7.45 0.2 -7.45 L0.2 -7.45 M0.55 -5.05 L0.6 -5.05 0.65 -4.95 0.7 -4.95 0.75 -4.95 0.7 -5.05 0.8 -5.05 Q0.95 -5.05 1.1 -4.95 L1.05 -4.9 1.05 -4.85 Q0.95 -4.95 0.8 -4.95 0.85 -4.8 0.85 -4.65 L0.8 -4.65 0.75 -4.45 0.7 -4.4 0.7 -4.35 0.75 -4.3 0.75 -4.25 0.7 -4.25 0.7 -4.2 Q0.7 -4.1 0.55 -3.9 L0.45 -3.8 0.4 -3.6 0.5 -3.65 0.45 -3.7 0.45 -3.7 Q0.45 -3.75 0.55 -3.75 L0.65 -3.75 0.55 -3.7 0.5 -3.7 0.55 -3.65 0.55 -3.55 0.35 -3.45 0.25 -3.15 0.05 -3.2 0.05 -3.25 -0.05 -3.25 0.0 -3.2 Q-0.05 -3.15 -0.1 -3.15 L-0.2 -3.2 -0.3 -3.2 -0.45 -3.15 -0.3 -3.05 0.0 -3.0 0.05 -3.0 0.05 -3.1 0.2 -3.05 0.2 -3.0 0.4 -3.0 0.55 -3.0 Q0.7 -3.1 0.8 -3.2 L0.95 -3.35 1.05 -3.5 Q1.15 -3.75 1.2 -4.0 1.1 -3.8 0.9 -3.75 0.9 -3.85 0.8 -3.75 L0.8 -3.7 0.7 -3.65 0.95 -3.9 0.95 -3.9 0.9 -3.9 0.85 -3.95 1.05 -4.15 1.1 -4.1 1.15 -4.1 1.15 -4.1 1.25 -4.1 1.3 -4.1 1.3 -3.95 1.25 -3.8 1.25 -3.75 1.25 -3.7 1.25 -3.65 1.15 -3.55 1.1 -3.45 1.1 -3.3 1.05 -3.15 0.8 -3.05 0.6 -2.95 0.6 -2.95 0.6 -2.95 0.55 -2.9 0.4 -2.9 0.15 -2.9 0.15 -2.85 0.1 -2.75 0.05 -2.6 0.05 -2.25 0.1 -1.95 0.15 -1.85 0.15 -1.85 0.2 -1.75 0.25 -1.75 0.1 -1.6 0.05 -1.4 0.05 -1.7 0.1 -1.8 0.05 -2.0 0.05 -2.9 0.0 -2.9 -0.3 -2.95 -0.45 -3.05 -0.65 -3.15 Q-0.9 -3.2 -1.15 -3.35 L-1.45 -3.6 Q-2.0 -4.3 -1.4 -5.1 L-1.35 -5.05 -1.35 -5.05 -1.3 -5.05 -1.3 -4.9 -1.2 -4.9 -1.2 -4.65 -1.2 -4.6 -1.1 -4.45 -1.0 -4.4 Q-0.95 -4.3 -1.0 -4.25 L-1.0 -4.25 Q-1.05 -4.25 -1.1 -4.3 L-1.15 -4.35 -1.25 -4.45 -1.3 -4.5 -1.3 -4.55 Q-1.4 -4.7 -1.4 -4.95 L-1.6 -4.5 Q-1.65 -4.1 -1.5 -3.8 L-1.5 -4.2 -1.45 -4.2 -1.4 -4.15 -1.4 -4.0 Q-1.4 -3.8 -1.35 -3.7 L-1.4 -3.65 -1.05 -3.4 -0.8 -3.3 -0.8 -3.35 -0.95 -3.4 -0.95 -3.5 -0.9 -3.45 -0.95 -3.55 -1.1 -3.8 -1.2 -4.1 -1.15 -4.1 -1.1 -4.15 -1.0 -3.85 -0.8 -3.55 -0.8 -3.5 -0.8 -3.45 Q-0.75 -3.4 -0.7 -3.35 L-0.65 -3.35 -0.6 -3.3 -0.5 -3.3 -0.35 -3.3 -0.3 -3.3 -0.3 -3.25 -0.15 -3.3 -0.1 -3.35 -0.1 -3.35 0.05 -3.4 0.05 -3.6 -0.05 -3.55 -0.1 -3.5 -0.15 -3.4 -0.15 -3.45 -0.2 -3.45 -0.2 -3.45 -0.25 -3.4 -0.3 -3.4 -0.35 -3.5 -0.3 -3.55 -0.4 -3.55 -0.45 -3.55 -0.45 -3.55 Q-0.45 -3.5 -0.5 -3.5 L-0.55 -3.45 -0.7 -3.85 -0.75 -3.95 -0.55 -4.0 -0.55 -4.0 -0.55 -4.0 -0.65 -4.1 -0.65 -4.2 -0.7 -4.2 -0.7 -4.25 -0.65 -4.3 -0.6 -4.25 -0.5 -4.1 -0.5 -4.45 -0.4 -4.45 -0.35 -4.4 -0.25 -4.2 -0.15 -4.3 -0.15 -4.35 -0.05 -4.35 -0.1 -4.15 -0.1 -3.95 -0.05 -4.0 0.05 -4.0 0.05 -4.45 0.1 -4.45 0.2 -4.05 0.25 -4.05 0.25 -4.0 0.25 -3.95 0.2 -3.95 0.25 -3.8 0.2 -3.8 0.15 -3.85 0.05 -3.75 0.05 -3.9 -0.05 -3.9 -0.1 -3.85 -0.1 -3.85 -0.15 -3.8 -0.05 -3.75 Q-0.05 -3.65 0.05 -3.6 L0.05 -3.6 0.1 -3.65 0.4 -3.75 0.45 -3.8 0.45 -3.95 0.4 -3.9 0.55 -4.2 0.55 -4.05 0.6 -4.1 0.6 -4.25 0.55 -4.25 0.55 -4.25 0.65 -4.35 0.65 -4.4 0.6 -4.4 0.55 -4.45 0.6 -4.45 0.65 -4.55 0.7 -4.65 0.6 -4.65 0.6 -4.65 0.65 -4.7 0.7 -4.7 0.75 -4.75 0.7 -4.85 0.7 -4.95 0.6 -4.95 0.55 -5.05 M1.35 -4.85 L1.35 -5.05 Q1.4 -5.15 1.45 -5.05 L1.45 -4.8 Q1.45 -4.85 1.35 -4.85 M1.85 -6.05 L1.85 -6.05 Q1.8 -6.15 1.85 -6.25 L2.0 -6.25 Q2.1 -6.15 2.05 -6.05 L2.0 -6.0 1.9 -6.0 1.9 -6.05 1.85 -6.05 M0.45 0.7 L0.45 0.95 0.45 1.15 Q0.45 1.15 0.4 1.15 0.25 1.15 0.2 1.5 L0.25 1.75 0.4 1.8 0.45 1.8 0.45 2.1 0.4 2.15 0.35 1.95 0.25 1.75 0.2 1.8 0.15 1.7 0.15 1.5 Q0.1 1.4 0.1 1.3 L0.05 1.2 0.05 4.25 0.05 5.4 0.05 6.3 -0.15 5.55 -0.25 5.05 -0.3 4.75 -0.25 4.6 -0.3 4.4 -0.25 4.35 -0.25 4.3 -0.25 4.15 -0.3 4.1 -0.35 3.95 -0.35 2.9 -0.35 2.85 -0.4 1.35 -0.3 1.2 -0.15 0.9 Q-0.2 0.85 -0.4 0.7 L-0.4 0.5 -0.35 0.45 -0.35 0.15 Q-0.15 0.05 -0.1 0.05 -0.05 0.05 -0.05 0.05 L0.0 0.2 0.0 0.25 -0.05 0.8 -0.15 1.2 -0.05 1.2 0.0 1.2 0.05 1.05 0.15 0.75 0.3 0.55 0.3 0.7 0.3 0.7 Q0.35 0.65 0.35 0.7 L0.4 0.7 0.45 0.7 M0.4 4.45 L0.4 4.8 0.3 4.75 0.35 4.55 0.15 4.0 0.25 3.8 0.35 4.25 0.4 4.45 M-0.75 -6.85 L-0.8 -6.9 -0.8 -6.95 Q-0.8 -7.1 -0.7 -7.1 -0.55 -7.15 -0.55 -7.0 -0.55 -6.85 -0.65 -6.85 L-0.65 -6.85 -0.75 -6.85 -0.75 -6.85 M-1.1 -5.75 L-1.1 -5.75 -0.95 -5.95 Q-0.85 -5.95 -0.9 -5.9 L-0.95 -5.75 -1.0 -5.75 -1.1 -5.75 M-0.7 -5.65 Q-0.55 -5.65 -0.4 -5.55 L-0.25 -5.4 -0.25 -5.4 -0.35 -5.35 -0.4 -5.4 -0.45 -5.45 Q-0.6 -5.55 -0.75 -5.55 L-0.7 -5.6 -0.7 -5.65 M-0.2 -5.7 Q-0.15 -5.85 -0.15 -6.0 L-0.2 -6.2 -0.15 -6.05 -0.1 -5.8 -0.05 -5.85 -0.05 -6.3 -0.05 -6.4 -0.05 -6.5 -0.05 -6.6 Q0.0 -6.55 0.05 -6.55 L0.05 -6.5 -0.05 -6.5 0.0 -6.35 0.05 -6.3 0.0 -6.25 -0.05 -6.2 0.05 -6.1 0.05 -6.05 0.0 -6.0 0.0 -5.95 0.05 -5.9 0.05 -5.85 0.0 -5.85 0.05 -5.8 Q0.0 -5.7 -0.1 -5.75 L-0.2 -5.7 M-0.15 -5.0 L-0.2 -4.95 -0.2 -4.9 -0.25 -4.85 -0.25 -4.85 -0.35 -4.9 -0.35 -4.95 -0.3 -5.0 -0.3 -4.95 -0.2 -5.0 -0.15 -5.0 M-0.6 -4.8 L-0.55 -4.8 -0.5 -4.7 -0.5 -4.65 -0.55 -4.65 -0.65 -4.7 -0.65 -4.7 -0.75 -4.75 -0.75 -4.75 -0.85 -4.65 -0.85 -4.45 -0.85 -4.4 -0.95 -4.35 -0.95 -4.45 -0.95 -4.65 -0.85 -4.85 -0.85 -4.85 -0.9 -4.85 -0.9 -4.95 Q-0.85 -4.95 -0.8 -4.95 L-0.75 -4.95 -0.75 -5.1 Q-0.7 -5.25 -0.5 -5.35 L-0.45 -5.3 -0.4 -5.25 -0.5 -5.25 -0.65 -5.05 -0.65 -5.0 -0.65 -4.9 -0.7 -4.9 -0.7 -4.85 -0.6 -4.8 M0.3 -4.3 L0.35 -4.35 0.4 -4.4 0.5 -4.35 0.45 -4.25 Q0.35 -4.25 0.3 -4.3 M0.35 -4.65 L0.35 -4.65 0.25 -4.65 0.25 -4.75 0.25 -4.75 0.35 -4.7 0.35 -4.65 M1.1 -4.05 L1.15 -4.1 1.1 -4.05 M0.55 -4.25 L0.55 -4.25 M0.75 -3.5 L0.8 -3.5 0.85 -3.45 0.75 -3.3 0.6 -3.1 0.55 -3.1 0.5 -3.05 0.45 -3.05 0.45 -3.15 0.55 -3.25 0.65 -3.4 0.75 -3.5 M0.6 -2.95 L0.6 -2.95 0.6 -2.95 M0.3 -1.3 Q0.25 -1.15 0.2 -0.9 0.2 -0.7 0.15 -0.65 L0.15 -0.45 Q0.1 -0.4 0.1 -0.35 L0.15 -0.1 0.1 0.05 0.05 0.15 0.05 -1.3 0.2 -1.25 0.3 -1.3 M-0.55 -3.8 L-0.5 -3.75 -0.5 -3.9 -0.55 -3.9 -0.55 -3.8 M-0.1 -3.7 L-0.1 -3.7 -0.1 -3.7 M-0.3 -0.9 L-0.25 -0.9 -0.2 -1.0 -0.25 -1.2 -0.05 -1.55 -0.05 -1.6 -0.05 -0.7 Q-0.05 -0.9 -0.15 -0.85 L-0.3 -0.75 -0.3 -0.9 M-0.05 -0.65 L-0.05 -0.6 -0.1 -0.6 -0.05 -0.65" fill="#58b7ce" fill-rule="evenodd" stroke="none"/>
    <path d="M0.15 -5.85 L0.15 -5.7 0.15 -5.7 0.05 -5.7 -0.15 -5.7 -0.25 -5.55 -0.25 -5.55 -0.2 -5.7 -0.2 -5.7 -0.1 -5.75 Q0.0 -5.7 0.05 -5.8 L0.05 -5.8 0.1 -5.85 0.15 -5.85 M0.2 -5.2 L0.25 -5.1 Q0.3 -5.05 0.45 -5.0 L0.3 -4.85 Q0.2 -4.95 0.1 -4.95 L0.1 -4.95 0.05 -4.9 0.1 -4.85 0.1 -4.85 0.05 -4.8 Q0.05 -4.75 -0.05 -4.75 L0.0 -4.8 0.0 -4.85 Q0.0 -4.9 -0.05 -4.95 L-0.05 -4.8 -0.1 -4.7 -0.1 -4.65 0.0 -4.65 0.25 -4.65 0.35 -4.65 0.35 -4.65 0.45 -4.65 0.5 -4.65 0.5 -4.75 0.55 -4.75 0.55 -4.85 0.45 -4.9 0.6 -4.9 0.6 -4.9 0.65 -4.9 0.65 -4.9 0.7 -4.85 0.75 -4.75 0.7 -4.7 0.65 -4.7 0.6 -4.65 0.6 -4.65 0.7 -4.65 0.65 -4.55 0.6 -4.45 0.55 -4.45 0.35 -4.45 Q0.35 -4.4 0.4 -4.4 L0.4 -4.4 0.35 -4.35 0.3 -4.3 0.25 -4.4 0.25 -4.45 0.1 -4.45 0.05 -4.45 -0.05 -4.45 -0.15 -4.45 -0.15 -4.35 -0.15 -4.3 -0.25 -4.2 -0.35 -4.4 -0.4 -4.45 -0.5 -4.45 -0.65 -4.45 -0.65 -4.3 -0.7 -4.25 -0.75 -4.45 -0.85 -4.45 -0.85 -4.65 -0.8 -4.7 -0.75 -4.7 -0.75 -4.75 -0.75 -4.75 -0.65 -4.7 -0.65 -4.7 -0.65 -4.65 -0.5 -4.65 -0.55 -4.65 -0.5 -4.65 -0.5 -4.7 -0.55 -4.8 -0.6 -4.8 -0.4 -4.9 -0.35 -4.95 -0.35 -4.9 -0.25 -4.85 -0.25 -4.85 -0.3 -4.8 -0.35 -4.7 -0.4 -4.65 -0.45 -4.65 -0.4 -4.65 -0.35 -4.65 -0.35 -4.65 -0.25 -4.7 -0.2 -4.8 Q-0.15 -4.85 -0.15 -4.95 L-0.2 -4.95 -0.15 -5.0 -0.15 -5.05 Q-0.15 -5.15 -0.15 -5.25 L-0.05 -5.3 0.0 -5.25 0.0 -5.3 0.0 -5.35 0.1 -5.35 0.1 -5.35 0.15 -5.25 0.15 -5.15 0.2 -5.2 M1.1 -4.95 L1.25 -4.7 1.25 -4.65 1.35 -4.65 1.35 -4.85 Q1.45 -4.85 1.45 -4.8 L1.45 -4.75 1.6 -5.05 1.75 -5.7 1.75 -5.7 1.9 -5.65 1.85 -5.6 1.75 -5.05 1.5 -4.6 1.45 -4.6 1.35 -4.55 1.35 -4.55 1.3 -4.5 1.3 -4.45 1.2 -4.35 1.2 -4.45 0.75 -4.45 0.8 -4.65 1.15 -4.65 1.05 -4.85 1.05 -4.9 1.1 -4.95 M1.4 -4.5 L1.3 -4.2 1.3 -4.1 1.25 -4.1 1.15 -4.1 1.25 -4.2 1.4 -4.5 M-1.4 -5.1 L-1.35 -5.2 -1.35 -5.2 -1.3 -5.4 -1.25 -5.45 -1.3 -5.45 -1.3 -5.5 -1.2 -6.0 -0.95 -6.5 -0.95 -6.55 -0.8 -6.55 -0.85 -6.5 -1.1 -5.95 -1.2 -5.65 -1.1 -5.75 -1.0 -5.75 -1.2 -5.4 -1.2 -5.35 -1.0 -5.5 -0.7 -5.65 -0.7 -5.6 -0.75 -5.55 -1.0 -5.4 -1.25 -5.2 -1.25 -5.15 -1.3 -5.05 -1.35 -5.05 -1.35 -5.05 -1.4 -5.1 M0.65 -3.75 L0.85 -3.95 0.9 -3.9 0.95 -3.9 0.95 -3.9 0.7 -3.65 0.6 -3.6 0.55 -3.55 0.55 -3.55 0.55 -3.65 0.5 -3.7 0.55 -3.7 0.65 -3.75 M1.3 -4.45 L1.3 -4.45 M0.55 -4.4 L0.55 -4.45 0.6 -4.4 0.65 -4.4 0.65 -4.35 0.55 -4.25 0.55 -4.25 0.45 -4.15 0.25 -4.0 0.25 -4.05 0.45 -4.25 0.5 -4.35 0.55 -4.4 0.55 -4.4 M0.4 -4.8 L0.4 -4.8 0.45 -4.7 0.45 -4.7 0.4 -4.7 0.35 -4.75 0.4 -4.8 M0.8 -3.7 L0.8 -3.75 Q0.9 -3.85 0.9 -3.75 L0.9 -3.5 0.85 -3.45 0.8 -3.5 0.75 -3.5 0.75 -3.5 0.8 -3.65 0.8 -3.7 M0.55 -3.55 L0.55 -3.55 M-1.1 -4.15 L-1.15 -4.1 -1.2 -4.1 -1.2 -4.15 -1.3 -4.45 -1.3 -4.4 -1.35 -4.3 -1.4 -4.2 -1.4 -4.15 -1.45 -4.2 -1.5 -4.2 -1.5 -4.25 -1.35 -4.45 -1.3 -4.45 -1.3 -4.55 -1.3 -4.5 -1.25 -4.45 -1.15 -4.35 -1.1 -4.15 M-1.1 -4.45 L-1.2 -4.6 -1.2 -4.65 -0.95 -4.65 -0.95 -4.45 -1.1 -4.45" fill="#206677" fill-rule="evenodd" stroke="none"/>
    <path d="M0.15 -5.7 L0.15 -5.5 -0.05 -5.6 -0.15 -5.5 -0.2 -5.45 -0.2 -5.5 -0.25 -5.55 -0.15 -5.7 0.05 -5.7 0.15 -5.7 0.15 -5.7" fill="#124454" fill-rule="evenodd" stroke="none"/>
    <path d="M-0.1 -7.75 L-0.05 -7.9 0.0 -7.8 -0.05 -7.7 -0.05 -7.7 -0.1 -7.7 -0.1 -7.75 -0.1 -7.75 M0.55 -2.55 L0.45 0.7 0.4 0.7 0.35 0.7 Q0.35 0.65 0.3 0.7 L0.3 0.7 0.3 0.55 0.4 -0.1 0.45 -0.85 0.35 -1.15 0.4 -1.25 Q0.5 -1.4 0.5 -1.55 0.5 -1.75 0.4 -1.8 L0.3 -1.85 0.2 -1.85 0.15 -1.85 0.15 -1.85 0.1 -1.95 0.05 -2.25 0.05 -2.6 0.1 -2.55 0.15 -2.45 0.5 -2.75 0.55 -2.8 0.55 -2.55 M0.4 4.8 L0.4 5.05 0.35 5.05 0.35 5.2 0.25 5.15 0.2 5.2 0.2 5.4 0.15 5.35 0.1 5.3 0.1 5.5 0.05 5.4 0.05 4.25 0.1 4.2 0.15 4.0 0.35 4.55 0.3 4.75 0.4 4.8 M0.35 6.35 L0.35 7.2 0.15 6.65 Q0.2 6.45 0.3 6.5 0.3 6.45 0.35 6.35 M-0.2 -6.2 L-0.2 -6.6 -0.15 -6.6 -0.15 -6.7 -0.2 -6.9 -0.15 -6.95 Q-0.1 -6.85 -0.05 -6.7 L-0.05 -6.65 -0.05 -6.6 -0.05 -6.5 -0.05 -6.4 -0.05 -6.3 -0.05 -5.85 -0.1 -5.8 -0.15 -6.05 -0.2 -6.2 M0.1 -5.35 L0.0 -5.35 0.0 -5.3 -0.05 -5.3 -0.15 -5.35 -0.15 -5.4 -0.1 -5.5 Q-0.05 -5.55 0.0 -5.55 L0.15 -5.4 0.1 -5.35" fill="#a3f7ff" fill-rule="evenodd" stroke="none"/>
    <path d="M-0.05 -4.45 L0.05 -4.45 0.05 -4.0 -0.05 -4.0 -0.05 -4.35 -0.05 -4.45 M0.1 -4.45 L0.25 -4.45 0.25 -4.4 0.3 -4.3 Q0.35 -4.25 0.45 -4.25 L0.25 -4.05 0.2 -4.05 0.1 -4.45 M0.4 -4.4 L0.4 -4.4 Q0.35 -4.4 0.35 -4.45 L0.55 -4.45 0.55 -4.4 0.55 -4.4 0.5 -4.35 0.4 -4.4 M0.45 -4.65 L0.35 -4.65 0.35 -4.7 0.35 -4.7 0.4 -4.7 0.45 -4.65 M0.25 -4.65 L0.0 -4.65 0.0 -4.7 0.1 -4.8 0.25 -4.75 0.25 -4.65 M0.55 -4.45 L0.55 -4.45 M0.55 -4.25 L0.55 -4.25 0.55 -4.2 0.4 -3.9 0.45 -3.95 0.45 -3.8 0.4 -3.75 0.1 -3.65 0.05 -3.6 0.05 -3.6 Q-0.05 -3.65 -0.05 -3.75 L-0.05 -3.75 0.0 -3.75 -0.05 -3.9 0.05 -3.9 0.05 -3.75 0.15 -3.85 0.2 -3.8 0.25 -3.8 0.2 -3.95 0.25 -3.95 0.25 -4.0 0.45 -4.15 0.55 -4.25 M-0.95 -4.35 L-0.85 -4.4 -0.85 -4.45 -0.75 -4.2 -0.7 -4.2 -0.65 -4.2 -0.65 -4.1 -0.6 -4.05 -0.55 -4.0 -0.55 -4.0 -0.55 -4.0 -0.75 -3.95 -0.75 -4.05 -0.9 -4.25 -0.95 -4.35" fill="#b0ffff" fill-rule="evenodd" stroke="none"/>
    <path d="M0.55 -3.9 L0.55 -3.75 Q0.45 -3.75 0.45 -3.7 L0.45 -3.7 0.5 -3.65 0.4 -3.6 0.45 -3.8 0.55 -3.9 M0.55 -3.0 L0.4 -3.0 0.2 -3.0 0.2 -3.05 0.45 -3.05 0.5 -3.05 0.55 -3.1 0.55 -3.0 M0.25 -3.15 L0.35 -3.45 0.55 -3.55 0.55 -3.55 0.55 -3.25 0.45 -3.15 0.25 -3.15 M0.05 -2.6 L0.1 -2.75 0.15 -2.85 0.15 -2.9 0.4 -2.9 0.55 -2.9 0.55 -2.8 0.5 -2.75 0.15 -2.45 0.1 -2.55 0.05 -2.6" fill="#ccffff" fill-rule="evenodd" stroke="none"/>
    <path d="M-0.05 -3.75 L-0.15 -3.8 -0.1 -3.85 -0.1 -3.85 -0.05 -3.9 0.0 -3.75 -0.05 -3.75 -0.05 -3.75 M0.05 -3.1 L0.05 -3.0 0.0 -3.0 -0.3 -3.05 -0.3 -3.2 -0.2 -3.2 -0.1 -3.15 Q-0.05 -3.1 0.05 -3.1 M0.0 -3.2 L-0.05 -3.25 0.05 -3.25 0.05 -3.2 0.0 -3.2 M-0.15 -3.45 L-0.15 -3.4 -0.1 -3.5 -0.05 -3.55 0.05 -3.6 0.05 -3.4 -0.1 -3.35 -0.1 -3.35 -0.2 -3.35 -0.25 -3.4 -0.25 -3.4 -0.2 -3.45 -0.15 -3.45 M0.0 -2.9 L0.0 -2.75 -0.05 -2.55 -0.15 -2.25 -0.15 -2.2 -0.2 -2.2 -0.2 -2.3 -0.25 -2.55 -0.3 -2.75 -0.3 -2.95 0.0 -2.9 M-0.05 -4.35 L-0.05 -4.35 -0.05 -4.0 -0.1 -3.95 -0.1 -4.15 -0.05 -4.35 M-0.1 -3.7 L-0.1 -3.7 -0.1 -3.7" fill="#72d1e8" fill-rule="evenodd" stroke="none"/>
    <path d="M-0.4 0.15 L-0.4 -0.15 -0.35 -0.2 -0.3 -0.35 -0.1 -0.6 -0.05 -0.6 -0.05 -0.65 -0.05 -0.7 -0.05 -1.6 -0.05 -1.55 -0.25 -1.2 -0.2 -1.0 -0.25 -0.9 -0.3 -0.9 -0.35 -1.4 -0.45 -1.4 -0.45 -1.85 -0.4 -1.95 -0.35 -2.1 -0.25 -1.9 -0.25 -2.05 -0.2 -2.05 -0.2 -2.2 -0.15 -2.2 -0.15 -2.25 -0.05 -2.55 0.0 -2.75 0.0 -2.9 0.05 -2.9 0.05 -2.0 0.1 -1.8 0.05 -1.7 0.05 -1.4 0.05 -1.3 0.05 0.15 0.1 0.05 0.15 -0.1 0.1 -0.35 Q0.1 -0.4 0.15 -0.45 L0.15 -0.65 Q0.2 -0.7 0.2 -0.9 0.25 -1.15 0.3 -1.3 0.25 -1.55 0.25 -1.75 L0.2 -1.75 0.15 -1.85 0.2 -1.85 0.3 -1.85 0.4 -1.8 Q0.5 -1.75 0.5 -1.55 0.5 -1.4 0.4 -1.25 L0.35 -1.15 0.45 -0.85 0.4 -0.1 0.3 0.55 0.15 0.75 0.05 1.05 0.0 1.2 -0.05 1.2 -0.15 1.2 -0.05 0.8 0.0 0.25 0.0 0.2 -0.05 0.05 Q-0.05 0.05 -0.1 0.05 -0.15 0.05 -0.35 0.15 L-0.35 0.15 -0.4 0.15" fill="#7bdbf6" fill-rule="evenodd" stroke="none"/>
    <path d="M0.45 1.4 L0.45 1.8 0.4 1.8 0.25 1.75 0.2 1.5 Q0.25 1.15 0.4 1.15 0.45 1.15 0.45 1.15 L0.45 1.4 M0.45 2.1 L0.45 2.25 0.45 2.6 0.35 2.6 Q0.35 2.6 0.3 2.45 L0.25 2.2 Q0.3 2.25 0.35 2.2 L0.4 2.15 0.45 2.1 M0.4 3.6 L0.4 4.45 0.35 4.25 0.25 3.8 0.4 3.6" fill="#6eddf7" fill-rule="evenodd" stroke="none"/>
    <path d="M0.45 2.6 L0.45 2.65 0.4 3.6 0.25 3.8 0.15 4.0 0.1 4.2 0.05 4.25 0.05 1.2 0.1 1.3 Q0.1 1.4 0.15 1.5 L0.15 1.7 0.2 1.8 0.25 1.75 0.35 1.95 0.4 2.15 0.35 2.2 Q0.3 2.25 0.25 2.2 L0.3 2.45 Q0.35 2.6 0.35 2.6 L0.45 2.6 M0.05 12.9 Q-0.15 12.45 -0.2 11.95 L-0.3 4.7 -0.3 4.75 -0.25 5.05 -0.15 5.55 0.05 6.3 0.05 12.9 M-0.35 2.9 L-0.35 2.85 -0.35 2.85 -0.35 2.9" fill="#559eb1" fill-rule="evenodd" stroke="none"/>
    <path d="M0.4 5.05 L0.35 6.35 Q0.3 6.45 0.3 6.5 0.2 6.45 0.15 6.65 L0.35 7.2 0.35 7.3 0.25 11.95 Q0.2 12.45 0.05 12.9 L0.05 6.3 0.05 5.4 0.1 5.5 0.1 5.3 0.15 5.35 0.2 5.4 0.2 5.2 0.25 5.15 0.35 5.2 0.35 5.05 0.4 5.05" fill="#96e6f9" fill-rule="evenodd" stroke="none"/>
    <path d="M-0.3 4.7 L-0.35 3.95 -0.3 4.1 -0.25 4.15 -0.25 4.3 -0.25 4.35 -0.3 4.4 -0.25 4.6 -0.3 4.75 -0.3 4.7" fill="#237183" fill-rule="evenodd" stroke="none"/>
    <path d="M-0.35 -7.5 L-0.35 -7.75 -0.3 -7.8 -0.25 -7.75 -0.25 -7.75 -0.2 -7.85 -0.25 -7.85 -0.25 -7.9 -0.2 -8.05 -0.05 -8.05 0.1 -8.0 0.15 -7.95 0.15 -7.9 0.1 -7.85 Q0.1 -7.85 0.1 -7.75 L0.15 -7.75 0.2 -7.75 0.25 -7.7 0.25 -7.75 0.3 -7.7 0.3 -7.65 0.25 -7.5 0.2 -7.45 0.2 -7.35 0.15 -7.2 0.1 -7.0 0.1 -6.65 0.15 -5.85 0.15 -5.7 0.15 -5.5 Q0.3 -5.45 0.3 -5.35 L0.25 -5.25 0.25 -5.2 0.2 -5.2 0.2 -5.2 0.25 -5.1 Q0.3 -5.05 0.45 -5.0 L0.55 -5.05 0.6 -5.05 0.6 -5.05 Q0.55 -5.1 0.55 -5.15 L0.65 -5.15 0.7 -5.05 0.8 -5.05 Q0.95 -5.05 1.1 -4.95 L1.25 -4.7 1.25 -4.65 1.35 -4.65 1.35 -4.85 1.35 -5.05 Q1.4 -5.15 1.45 -5.05 L1.45 -4.8 1.45 -4.75 1.6 -5.05 1.75 -5.7 1.75 -5.7 1.85 -6.05 1.85 -6.05 Q1.8 -6.15 1.85 -6.25 L2.0 -6.25 Q2.1 -6.15 2.05 -6.05 L2.0 -6.0 1.9 -6.0 1.9 -5.75 1.9 -5.65 1.85 -5.6 1.75 -5.05 1.5 -4.6 1.4 -4.5 1.3 -4.2 1.3 -4.1 1.3 -3.95 1.25 -3.8 1.25 -3.75 1.25 -3.7 1.25 -3.65 1.15 -3.55 1.1 -3.45 1.1 -3.3 1.05 -3.15 0.8 -3.05 0.6 -2.95 0.6 -2.95 0.55 -2.9 0.55 -2.55 0.45 0.7 0.45 0.95 0.45 1.4 0.45 1.8 0.45 2.1 M0.45 2.25 L0.45 2.6 M0.45 2.65 L0.4 3.6 M0.35 7.3 L0.25 11.95 Q0.2 12.45 0.05 12.9 -0.15 12.45 -0.2 11.95 L-0.3 4.7 -0.35 3.95 -0.35 2.9 -0.35 2.85 -0.35 2.85 -0.4 1.35 -0.4 0.7 -0.4 0.5 -0.4 0.15 -0.4 -0.15 -0.45 -1.4 -0.45 -1.85 -0.45 -3.05 -0.65 -3.15 Q-0.9 -3.2 -1.15 -3.35 L-1.45 -3.6 Q-2.0 -4.3 -1.4 -5.1 L-1.35 -5.2 -1.35 -5.2 -1.3 -5.4 -1.3 -5.5 -1.2 -6.0 -0.95 -6.5 -0.95 -6.55 -0.9 -6.65 -0.8 -6.75 -0.75 -6.85 -0.8 -6.9 -0.8 -6.95 Q-0.8 -7.1 -0.7 -7.1 -0.55 -7.15 -0.55 -7.0 -0.55 -6.85 -0.65 -6.85 L-0.65 -6.85 -0.8 -6.55 -0.85 -6.5 -1.1 -5.95 -1.2 -5.65 -1.1 -5.75 -1.1 -5.75 -0.95 -5.95 Q-0.85 -5.95 -0.9 -5.9 L-0.95 -5.75 -1.0 -5.75 -1.2 -5.4 -1.2 -5.35 -1.0 -5.5 -0.7 -5.65 Q-0.55 -5.65 -0.4 -5.55 L-0.25 -5.4 -0.2 -5.45 -0.2 -5.5 -0.25 -5.55 -0.25 -5.55 -0.2 -5.7 -0.2 -5.7 Q-0.15 -5.85 -0.15 -6.0 L-0.2 -6.2 -0.2 -6.6 -0.25 -7.05 -0.3 -7.35 -0.35 -7.5 M-0.35 -4.95 L-0.4 -4.9 -0.6 -4.8 -0.7 -4.85 -0.7 -4.9 -0.65 -4.9 -0.65 -5.0 -0.65 -5.05 -0.5 -5.25 -0.4 -5.25 -0.35 -5.3 Q-0.25 -5.15 -0.25 -5.05 L-0.3 -5.0 -0.35 -4.95 M-0.75 -4.75 L-0.75 -4.7 -0.8 -4.7 -0.85 -4.65 -0.75 -4.75 M-0.85 -4.45 L-0.75 -4.45 -0.7 -4.25 -0.7 -4.2 -0.75 -4.2 -0.85 -4.45 M-0.65 -4.3 L-0.65 -4.45 -0.5 -4.45 -0.5 -4.1 -0.6 -4.25 -0.65 -4.3 M0.55 -4.45 L0.6 -4.45 0.55 -4.45 0.55 -4.45 0.55 -4.4 M0.7 -4.85 L0.65 -4.9 0.65 -4.9 0.6 -4.9 0.6 -4.9 0.6 -4.95 0.7 -4.95 0.7 -4.85 M1.2 -4.35 L1.2 -4.45 0.75 -4.45 0.7 -4.4 0.7 -4.35 0.75 -4.3 0.75 -4.25 0.7 -4.25 0.7 -4.2 Q0.7 -4.1 0.55 -3.9 L0.55 -3.75 0.65 -3.75 0.85 -3.95 1.05 -4.15 1.15 -4.25 1.2 -4.35 M1.3 -4.45 L1.3 -4.45 1.3 -4.45 M1.05 -4.85 L1.15 -4.65 0.8 -4.65 0.85 -4.65 Q0.85 -4.8 0.8 -4.95 0.95 -4.95 1.05 -4.85 M1.15 -4.1 L1.1 -4.05 M0.55 -4.25 L0.6 -4.25 0.6 -4.1 0.55 -4.05 0.55 -4.2 0.55 -4.25 M0.7 -3.65 L0.8 -3.7 0.8 -3.65 0.75 -3.5 0.75 -3.5 0.65 -3.4 0.55 -3.25 0.55 -3.55 0.55 -3.55 0.6 -3.6 0.7 -3.65 M0.9 -3.75 Q1.1 -3.8 1.2 -4.0 1.15 -3.75 1.05 -3.5 L0.95 -3.35 0.8 -3.2 Q0.7 -3.1 0.55 -3.0 L0.55 -3.1 0.6 -3.1 0.75 -3.3 0.85 -3.45 0.9 -3.5 0.9 -3.75 M-0.5 -3.3 L-0.6 -3.3 -0.65 -3.35 -0.65 -3.35 -0.5 -3.35 -0.5 -3.3 M-0.8 -3.5 L-0.8 -3.55 -1.0 -3.85 -1.1 -4.15 -1.15 -4.35 -1.1 -4.3 Q-1.05 -4.25 -1.0 -4.25 L-1.0 -4.25 Q-0.95 -4.3 -1.0 -4.4 L-1.1 -4.45 -0.95 -4.45 -0.95 -4.35 -0.9 -4.25 -0.75 -4.05 -0.75 -3.95 -0.7 -3.85 -0.55 -3.45 -0.5 -3.45 -0.75 -3.45 -0.8 -3.5 M-1.2 -4.1 L-1.1 -3.8 -0.95 -3.55 -0.9 -3.45 -0.95 -3.5 Q-1.25 -3.55 -1.35 -3.7 -1.4 -3.8 -1.4 -4.0 L-1.4 -4.15 -1.4 -4.2 -1.35 -4.3 -1.3 -4.4 -1.3 -4.45 -1.3 -4.55 Q-1.4 -4.7 -1.4 -4.95 L-1.6 -4.5 Q-1.65 -4.1 -1.5 -3.8 L-1.5 -4.2 -1.5 -4.25 -1.35 -4.45 -1.3 -4.45 -1.2 -4.15 -1.2 -4.1 M-0.95 -3.4 L-0.8 -3.35 -0.8 -3.3 -1.05 -3.4 -0.95 -3.4 M-1.2 -4.65 L-1.2 -4.9 -1.25 -5.0 -1.25 -5.2 -1.0 -5.4 -0.75 -5.55 Q-0.6 -5.55 -0.45 -5.45 L-0.4 -5.4 -0.5 -5.35 Q-0.7 -5.25 -0.75 -5.1 L-0.75 -4.95 -0.8 -4.95 Q-0.85 -4.95 -0.9 -4.95 L-0.9 -4.85 -0.85 -4.85 -0.85 -4.85 -0.95 -4.65 -1.2 -4.65 M0.6 -2.95 L0.6 -2.95 M-0.65 -4.1 L-0.55 -4.0 -0.6 -4.05 -0.65 -4.1 M-0.55 -3.8 L-0.5 -3.75 -0.5 -3.9 -0.55 -3.9 -0.55 -3.8 Z" fill="none" stroke="#000000" stroke-linecap="round" stroke-linejoin="round" stroke-opacity="0.4509804" stroke-width="0.1"/>
  </g>
</svg>
