<?xml version="1.0" encoding="UTF-8" standalone="no"?>
<svg xmlns:xlink="http://www.w3.org/1999/xlink" height="4.4px" width="4.4px" xmlns="http://www.w3.org/2000/svg">
  <g transform="matrix(1.0, 0.0, 0.0, 1.0, 2.2, 2.2)">
    <path d="M1.5 -2.2 L1.5 -1.95 Q1.5 -1.8 1.55 -1.75 L1.5 -1.65 1.45 -1.55 Q1.4 -1.5 1.4 -1.45 L1.4 -1.35 Q1.3 -1.35 1.15 -1.45 L0.9 -1.55 1.1 -1.5 Q1.2 -1.4 1.25 -1.4 1.35 -1.4 1.35 -1.55 L1.35 -1.7 1.3 -1.9 Q1.25 -2.05 1.25 -2.1 L1.2 -2.2 1.5 -2.2" fill="#502120" fill-rule="evenodd" stroke="none"/>
    <path d="M0.9 -1.55 L1.15 -1.45 Q1.3 -1.35 1.4 -1.35 L1.4 -1.45 Q1.4 -1.5 1.45 -1.55 L1.5 -1.65 1.55 -1.75 Q1.5 -1.8 1.5 -1.95 L1.5 -2.2 2.2 -2.2 2.2 -2.1 2.1 -2.05 2.0 -2.0 2.05 -1.75 2.05 -1.55 Q2.1 -1.5 2.15 -1.55 L2.2 -1.65 2.2 -0.95 1.65 -1.05 1.2 -1.35 1.15 -1.4 0.9 -1.5 0.55 -1.75 0.35 -1.8 Q0.25 -1.85 0.2 -1.9 0.15 -1.85 0.05 -1.85 L-0.1 -1.85 -0.25 -1.85 -0.45 -1.8 -0.55 -1.75 -0.7 -1.7 -0.85 -1.6 -1.35 -1.25 -1.3 -1.35 -1.2 -1.4 Q-0.8 -1.75 -0.4 -1.85 L-0.4 -1.95 -0.35 -2.05 -0.5 -2.1 -0.55 -2.2 -0.2 -2.2 -0.2 -2.1 -0.25 -2.0 -0.25 -1.9 -0.05 -1.9 0.15 -1.9 0.55 -1.8 0.85 -1.6 0.9 -1.55 M-1.35 -1.25 L-1.35 -1.25" fill="#632a27" fill-rule="evenodd" stroke="none"/>
    <path d="M1.2 -2.2 L1.25 -2.1 Q1.25 -2.05 1.3 -1.9 L1.35 -1.7 1.35 -1.55 Q1.35 -1.4 1.25 -1.4 1.2 -1.4 1.1 -1.5 L0.9 -1.55 0.85 -1.6 0.75 -1.7 Q0.65 -1.75 0.65 -1.85 L0.65 -1.95 Q0.7 -2.0 0.75 -1.95 L0.85 -1.95 0.85 -2.0 0.8 -2.1 0.75 -2.05 0.7 -2.05 0.7 -2.1 0.7 -2.15 0.8 -2.15 0.85 -2.2 1.2 -2.2" fill="#3e1919" fill-rule="evenodd" stroke="none"/>
    <path d="M-0.55 -1.75 L-0.45 -1.8 -0.15 -1.8 0.2 -1.8 0.35 -1.8 0.55 -1.75 0.9 -1.5 1.15 -1.4 1.0 -1.4 0.9 -1.35 0.9 -1.25 0.85 -1.25 Q0.8 -1.35 0.6 -1.45 L0.3 -1.5 0.0 -1.55 -0.3 -1.5 -0.5 -1.5 Q-0.7 -1.5 -0.9 -1.4 -1.1 -1.3 -1.2 -1.1 -1.25 -1.05 -1.3 -1.05 -1.35 -1.1 -1.35 -1.15 L-1.1 -1.4 -0.8 -1.6 -0.7 -1.7 -0.55 -1.75 M0.35 -1.75 L0.15 -1.8 -0.15 -1.75 -0.5 -1.7 -0.65 -1.65 -0.75 -1.55 -0.1 -1.6 0.55 -1.55 Q0.6 -1.55 0.6 -1.6 L0.55 -1.65 Q0.5 -1.65 0.35 -1.75" fill="#dc4c37" fill-rule="evenodd" stroke="none"/>
    <path d="M1.15 -1.4 L1.2 -1.35 1.4 -1.15 1.5 -1.05 1.05 -1.3 Q1.0 -1.3 1.0 -1.2 L1.0 -1.15 0.95 -1.2 0.9 -1.25 0.9 -1.35 1.0 -1.4 1.15 -1.4" fill="#dc663b" fill-rule="evenodd" stroke="none"/>
    <path d="M0.85 -1.6 L0.55 -1.8 0.15 -1.9 -0.05 -1.9 -0.25 -1.9 -0.25 -2.0 -0.2 -2.1 -0.2 -2.2 0.85 -2.2 0.8 -2.15 0.7 -2.15 0.7 -2.1 0.7 -2.05 0.75 -2.05 0.8 -2.1 0.85 -2.0 0.85 -1.95 0.75 -1.95 Q0.7 -2.0 0.65 -1.95 L0.65 -1.85 Q0.65 -1.75 0.75 -1.7 L0.85 -1.6" fill="#502020" fill-rule="evenodd" stroke="none"/>
    <path d="M0.35 -1.75 Q0.5 -1.65 0.55 -1.65 L0.6 -1.6 Q0.6 -1.55 0.55 -1.55 L-0.1 -1.6 -0.75 -1.55 -0.65 -1.65 -0.5 -1.7 -0.15 -1.75 0.15 -1.8 0.35 -1.75" fill="#e05d3d" fill-rule="evenodd" stroke="none"/>
    <path d="M-0.3 -1.5 L0.0 -1.55 0.3 -1.5 0.6 -1.45 Q0.8 -1.35 0.85 -1.25 L0.75 -1.3 0.65 -1.4 0.1 -1.5 -0.45 -1.45 -0.75 -1.35 -1.0 -1.2 -1.2 -1.0 -1.35 -0.75 Q-1.55 -0.5 -1.55 -0.2 -1.6 0.1 -1.5 0.45 -1.35 0.8 -1.1 0.85 L-1.15 0.7 -1.2 0.5 -1.15 0.2 -1.1 -0.15 Q-1.05 -0.2 -0.95 0.0 L-0.9 0.15 -0.95 0.25 -0.9 0.4 -0.85 0.5 -0.95 0.3 Q-1.0 0.2 -0.95 0.05 L-1.0 0.0 -1.0 -0.05 -1.05 -0.1 -1.1 0.0 -1.1 0.15 Q-1.2 0.35 -1.15 0.6 -1.1 0.8 -0.95 0.95 L-0.9 1.0 -0.95 1.05 -1.0 1.1 -1.05 1.1 -1.1 1.0 -1.2 0.9 Q-1.25 0.85 -1.3 0.85 -1.45 0.65 -1.55 0.4 L-1.6 -0.1 Q-1.55 -0.6 -1.3 -0.9 L-1.1 -1.15 -0.85 -1.35 -0.7 -1.45 -0.5 -1.5 -0.3 -1.5" fill="#75241f" fill-rule="evenodd" stroke="none"/>
    <path d="M0.3 -1.5 L0.0 -1.55 -0.3 -1.5 0.0 -1.55 0.3 -1.5" fill="#a6362e" fill-rule="evenodd" stroke="none"/>
    <path d="M-0.45 -1.8 L-0.25 -1.85 -0.1 -1.85 0.05 -1.85 Q0.15 -1.85 0.2 -1.9 0.25 -1.85 0.35 -1.8 L0.55 -1.75 0.35 -1.8 0.2 -1.8 -0.15 -1.8 -0.45 -1.8" fill="#a13832" fill-rule="evenodd" stroke="none"/>
    <path d="M-1.2 0.5 L-1.15 0.7 -1.1 0.85 Q-1.35 0.8 -1.5 0.45 -1.6 0.1 -1.55 -0.2 -1.55 -0.5 -1.35 -0.75 L-1.2 -1.0 -1.0 -1.2 -0.75 -1.35 -0.45 -1.45 0.1 -1.5 0.65 -1.4 0.75 -1.3 0.8 -1.15 Q0.85 -1.0 0.7 -0.95 L0.65 -0.9 0.65 -0.85 Q0.7 -0.8 0.7 -0.75 0.6 -0.55 0.6 -0.35 0.65 -0.15 0.7 0.05 0.75 0.15 0.7 0.25 L0.6 0.45 Q0.5 0.6 0.35 0.5 0.2 0.45 0.1 0.3 0.0 0.1 0.05 -0.1 0.15 -0.3 0.3 -0.45 0.4 -0.5 0.45 -0.55 0.5 -0.6 0.5 -0.7 L0.45 -0.8 0.4 -0.9 0.3 -0.95 0.2 -0.9 0.05 -1.1 -0.05 -1.3 Q-0.2 -1.35 -0.15 -1.2 L-0.15 -0.95 -0.25 -0.6 Q-0.3 -0.4 -0.45 -0.3 -0.5 -0.3 -0.55 -0.35 L-0.6 -0.5 -0.65 -0.6 -0.7 -0.65 Q-0.85 -0.5 -0.8 -0.4 L-0.7 -0.2 -0.65 -0.05 Q-0.65 0.0 -0.6 0.0 L-0.55 0.0 -0.5 0.0 -0.55 0.05 -0.6 0.05 -0.65 0.05 -0.85 -0.45 -0.65 -0.8 -0.55 -0.7 -0.55 -0.45 -0.5 -0.35 Q-0.45 -0.3 -0.35 -0.4 L-0.25 -0.6 -0.25 -0.95 Q-0.2 -1.2 -0.25 -1.35 L-0.3 -1.4 -0.35 -1.4 -0.6 -1.35 -0.85 -1.25 -1.0 -1.15 -1.1 -1.0 -1.3 -0.8 -1.4 -0.6 Q-1.45 -0.35 -1.55 -0.15 L-1.5 0.0 Q-1.5 0.05 -1.5 0.1 L-1.5 0.25 Q-1.45 0.35 -1.45 0.35 -1.45 0.45 -1.35 0.5 L-1.2 0.5 M0.35 -0.4 L0.25 -0.3 Q0.15 -0.2 0.1 -0.05 0.05 0.1 0.1 0.25 L0.3 0.45 Q0.45 0.5 0.55 0.4 0.5 0.35 0.6 0.25 L0.65 0.1 0.55 -0.05 Q0.5 -0.15 0.55 -0.2 L0.55 -0.4 Q0.55 -0.5 0.45 -0.45 L0.35 -0.4" fill="#3b1915" fill-rule="evenodd" stroke="none"/>
    <path d="M0.65 -1.4 L0.75 -1.3 0.85 -1.25 0.9 -1.25 0.95 -1.2 0.95 -1.05 0.95 -0.95 0.9 -0.9 0.85 -0.9 0.75 -0.7 0.7 -0.55 0.65 -0.45 Q0.6 -0.35 0.65 -0.3 L0.7 -0.15 0.75 0.05 0.75 0.2 0.65 0.45 0.55 0.55 0.25 0.5 Q0.1 0.45 0.1 0.3 0.2 0.45 0.35 0.5 0.5 0.6 0.6 0.45 L0.7 0.25 Q0.75 0.15 0.7 0.05 0.65 -0.15 0.6 -0.35 0.6 -0.55 0.7 -0.75 0.7 -0.8 0.65 -0.85 L0.65 -0.9 0.7 -0.95 Q0.85 -1.0 0.8 -1.15 L0.75 -1.3 0.65 -1.4" fill="#5d3221" fill-rule="evenodd" stroke="none"/>
    <path d="M0.95 -1.2 L1.0 -1.15 1.1 -1.0 1.2 -0.8 1.25 -0.7 1.3 -0.6 1.35 -0.15 1.45 0.3 1.4 0.45 1.4 0.6 1.35 0.65 1.35 0.45 1.3 0.2 Q1.25 0.25 1.2 0.35 L1.15 0.5 1.15 0.45 Q1.2 0.25 1.2 0.0 L1.25 -0.1 1.2 -0.15 Q1.15 -0.15 1.15 -0.25 L1.1 -0.35 1.05 -0.4 1.1 -0.45 1.2 -0.55 1.2 -0.6 1.05 -0.65 Q1.0 -0.65 1.0 -0.55 L0.95 -0.6 0.95 -0.75 0.9 -0.85 0.85 -0.8 0.8 -0.7 0.75 -0.7 0.85 -0.9 0.9 -0.9 0.95 -0.95 0.95 -1.05 0.95 -1.2" fill="#865434" fill-rule="evenodd" stroke="none"/>
    <path d="M0.8 -0.7 L0.85 -0.8 0.9 -0.85 0.95 -0.75 0.95 -0.6 1.0 -0.55 Q1.0 -0.65 1.05 -0.65 L1.2 -0.6 1.2 -0.55 1.1 -0.45 1.05 -0.4 1.1 -0.35 1.15 -0.25 Q1.15 -0.15 1.2 -0.15 L1.25 -0.1 1.2 0.0 1.15 -0.05 1.1 -0.15 1.0 -0.3 0.95 -0.5 0.9 -0.7 0.8 -0.7" fill="#9e663b" fill-rule="evenodd" stroke="none"/>
    <path d="M0.75 -0.7 L0.8 -0.7 0.9 -0.7 0.95 -0.5 1.0 -0.3 0.9 -0.4 0.85 -0.55 Q0.8 -0.55 0.75 -0.5 L0.7 -0.35 Q0.85 -0.1 0.8 0.2 0.8 0.5 0.65 0.7 L0.7 0.75 0.8 0.8 Q0.85 0.8 0.85 0.75 L0.9 0.65 1.05 0.5 1.1 0.3 1.15 0.15 1.15 -0.05 1.2 0.0 Q1.2 0.25 1.15 0.45 L0.95 0.7 0.75 0.85 0.6 0.95 0.5 1.0 0.15 1.15 -0.25 1.15 -0.3 1.1 -0.35 1.05 -0.25 1.05 -0.2 1.1 -0.15 1.0 -0.1 0.95 -0.05 1.0 0.05 0.95 Q0.1 0.85 0.25 0.75 L0.55 0.75 Q0.75 0.6 0.8 0.2 L0.8 0.0 0.7 -0.15 0.7 -0.3 0.65 -0.45 0.75 -0.55 0.75 -0.7" fill="#de833a" fill-rule="evenodd" stroke="none"/>
    <path d="M0.0 -1.1 L0.1 -1.0 0.2 -0.85 0.35 -0.85 0.45 -0.75 Q0.5 -0.65 0.45 -0.6 L0.3 -0.45 0.15 -0.45 0.0 -0.35 -0.05 -0.15 -0.1 0.0 -0.05 0.25 Q0.0 0.4 0.1 0.5 L0.3 0.6 0.55 0.55 0.65 0.45 Q0.65 0.6 0.5 0.65 L0.25 0.65 Q0.15 0.55 0.0 0.6 -0.15 0.65 -0.25 0.75 L-0.35 0.85 -0.45 0.9 -0.65 0.85 -0.85 0.75 -0.8 0.85 -0.7 0.95 -0.5 1.1 -0.3 1.2 Q0.05 1.35 0.55 1.05 0.8 0.85 0.95 0.75 L0.9 0.9 0.8 1.0 Q0.7 1.0 0.6 1.1 L0.4 1.2 Q0.1 1.35 -0.2 1.3 -0.5 1.25 -0.75 1.05 L-0.8 0.95 Q-0.85 0.9 -0.9 0.9 L-1.0 0.75 -1.0 0.65 -1.05 0.5 -1.0 0.45 Q-0.95 0.45 -0.95 0.5 L-0.75 0.7 -0.5 0.8 -0.4 0.7 -0.25 0.65 Q-0.2 0.55 -0.2 0.35 L-0.2 0.05 Q-0.2 0.0 -0.25 -0.1 -0.35 -0.2 -0.3 -0.25 L-0.2 -0.5 Q-0.15 -0.65 -0.15 -0.75 L-0.1 -1.0 -0.05 -1.1 Q-0.05 -1.15 0.0 -1.1 M-0.15 -0.75 L-0.15 -0.75 M0.15 -0.8 L0.0 -0.8 -0.05 -0.7 -0.1 -0.5 Q-0.1 -0.5 -0.1 -0.45 L-0.05 -0.4 0.0 -0.4 Q0.05 -0.5 0.15 -0.55 L0.35 -0.6 0.4 -0.7 0.35 -0.75 0.15 -0.8" fill="#dd4d30" fill-rule="evenodd" stroke="none"/>
    <path d="M0.2 -0.85 L0.1 -1.0 0.0 -1.1 0.0 -1.2 -0.1 -1.25 Q-0.15 -1.2 -0.1 -1.1 -0.1 -1.0 -0.15 -0.95 L-0.15 -1.2 Q-0.2 -1.35 -0.05 -1.3 L0.05 -1.1 0.2 -0.9 0.3 -0.95 0.4 -0.9 0.45 -0.8 0.5 -0.7 Q0.5 -0.6 0.45 -0.55 0.4 -0.5 0.3 -0.45 L0.3 -0.45 0.45 -0.6 Q0.5 -0.65 0.45 -0.75 L0.4 -0.85 0.35 -0.9 0.25 -0.9 0.2 -0.85" fill="#68261f" fill-rule="evenodd" stroke="none"/>
    <path d="M0.15 -0.8 L0.35 -0.75 0.4 -0.7 0.35 -0.6 0.15 -0.55 Q0.05 -0.5 0.0 -0.4 L-0.05 -0.4 -0.1 -0.45 Q-0.1 -0.5 -0.1 -0.5 L-0.05 -0.7 0.0 -0.8 0.15 -0.8" fill="#de6432" fill-rule="evenodd" stroke="none"/>
    <path d="M0.55 0.55 L0.3 0.6 0.1 0.5 Q0.0 0.4 -0.05 0.25 L-0.1 0.0 -0.05 -0.15 0.0 -0.35 0.15 -0.45 0.3 -0.45 0.3 -0.45 Q0.1 -0.35 0.05 -0.15 -0.05 0.1 0.1 0.3 0.1 0.45 0.25 0.5 L0.55 0.55" fill="#d83c2c" fill-rule="evenodd" stroke="none"/>
    <path d="M0.35 -0.4 L0.45 -0.45 Q0.55 -0.5 0.55 -0.4 L0.55 -0.2 Q0.5 -0.15 0.55 -0.05 L0.65 0.1 0.6 0.25 Q0.5 0.35 0.55 0.4 0.45 0.5 0.3 0.45 L0.1 0.25 Q0.05 0.1 0.1 -0.05 0.15 -0.2 0.25 -0.3 L0.35 -0.4" fill="#22100d" fill-rule="evenodd" stroke="none"/>
    <path d="M0.3 -0.45 Q0.15 -0.3 0.05 -0.1 0.0 0.1 0.1 0.3 -0.05 0.1 0.05 -0.15 0.1 -0.35 0.3 -0.45" fill="#85241e" fill-rule="evenodd" stroke="none"/>
    <path d="M1.0 -0.3 L1.1 -0.15 1.15 -0.05 1.15 0.15 1.1 0.3 1.1 0.15 1.15 0.0 1.0 -0.2 0.85 -0.4 0.8 -0.4 0.75 -0.35 0.8 -0.15 0.85 0.05 0.85 0.45 0.8 0.55 0.8 0.65 1.0 0.5 1.1 0.3 1.05 0.5 0.9 0.65 0.85 0.75 Q0.85 0.8 0.8 0.8 L0.7 0.75 0.65 0.7 Q0.8 0.5 0.8 0.2 0.85 -0.1 0.7 -0.35 L0.75 -0.5 Q0.8 -0.55 0.85 -0.55 L0.9 -0.4 1.0 -0.3" fill="#e0a844" fill-rule="evenodd" stroke="none"/>
    <path d="M1.1 0.3 L1.0 0.5 0.8 0.65 0.8 0.55 0.85 0.45 0.85 0.05 0.8 -0.15 0.75 -0.35 0.8 -0.4 0.85 -0.4 1.0 -0.2 1.15 0.0 1.1 0.15 1.1 0.3" fill="#e1de4d" fill-rule="evenodd" stroke="none"/>
    <path d="M0.65 -0.45 L0.7 -0.55 0.75 -0.7 0.75 -0.55 0.65 -0.45" fill="#954e2f" fill-rule="evenodd" stroke="none"/>
    <path d="M0.7 -0.15 L0.65 -0.3 Q0.6 -0.35 0.65 -0.45 L0.7 -0.3 0.7 -0.15" fill="#964a2c" fill-rule="evenodd" stroke="none"/>
    <path d="M1.2 -1.35 L1.65 -1.05 2.2 -0.95 2.2 -0.6 2.1 -0.6 2.1 -0.7 2.05 -0.75 Q2.0 -0.75 1.95 -0.8 L1.9 -0.9 1.8 -0.9 1.7 -0.85 1.55 -1.0 1.4 -1.15 1.2 -1.35" fill="#75402e" fill-rule="evenodd" stroke="none"/>
    <path d="M1.5 -1.05 L1.4 -1.15 1.55 -1.0 1.7 -0.85 1.8 -0.9 1.9 -0.9 1.95 -0.8 Q2.0 -0.75 2.05 -0.75 L2.1 -0.7 2.1 -0.6 2.2 -0.6 2.2 -0.45 Q2.15 -0.45 2.15 -0.4 L2.1 -0.35 Q2.05 -0.35 2.0 -0.45 1.95 -0.5 2.05 -0.5 L2.05 -0.65 Q2.0 -0.75 1.95 -0.7 1.9 -0.65 1.9 -0.55 L1.95 -0.45 1.95 -0.35 2.0 -0.3 2.05 -0.25 2.0 -0.1 2.0 0.05 1.85 -0.05 1.85 -0.25 Q1.85 -0.4 1.8 -0.45 L1.65 -0.75 1.5 -1.05" fill="#94573a" fill-rule="evenodd" stroke="none"/>
    <path d="M1.0 -1.15 L1.0 -1.2 Q1.0 -1.3 1.05 -1.3 L1.5 -1.05 1.65 -0.75 1.8 -0.45 1.8 -0.1 Q1.85 0.1 1.8 0.25 L1.75 0.4 1.75 0.55 1.7 0.65 1.6 0.75 1.5 0.85 1.3 1.0 1.35 0.8 1.4 0.6 1.4 0.45 1.45 0.3 1.45 -0.05 Q1.55 0.25 1.45 0.6 L1.45 0.7 Q1.4 0.75 1.45 0.8 L1.65 0.55 1.75 0.2 Q1.8 0.1 1.8 -0.05 L1.75 -0.3 1.75 -0.5 1.7 -0.6 1.65 -0.65 Q1.55 -0.9 1.3 -1.15 L1.2 -1.2 1.1 -1.15 1.2 -1.0 Q1.2 -0.95 1.25 -0.9 L1.3 -0.85 1.25 -0.75 1.2 -0.8 1.1 -1.0 1.0 -1.15" fill="#de8448" fill-rule="evenodd" stroke="none"/>
    <path d="M1.25 -0.9 Q1.2 -0.95 1.2 -1.0 L1.1 -1.15 1.2 -1.2 1.3 -1.15 Q1.55 -0.9 1.65 -0.65 1.6 -0.7 1.5 -0.85 L1.3 -1.05 Q1.25 -1.05 1.25 -1.0 L1.25 -0.9" fill="#e2ad4c" fill-rule="evenodd" stroke="none"/>
    <path d="M1.45 0.3 L1.35 -0.15 1.3 -0.6 1.25 -0.7 1.2 -0.8 1.25 -0.75 Q1.45 -0.45 1.45 -0.05 L1.45 0.3" fill="#a4653e" fill-rule="evenodd" stroke="none"/>
    <path d="M1.25 -0.9 L1.25 -1.0 Q1.25 -1.05 1.3 -1.05 L1.5 -0.85 Q1.6 -0.7 1.65 -0.65 L1.7 -0.6 1.75 -0.5 1.75 -0.3 Q1.7 -0.25 1.75 -0.15 L1.75 0.1 1.8 0.15 1.7 0.25 1.7 0.4 Q1.6 0.55 1.5 0.6 1.5 0.55 1.5 0.45 L1.55 0.25 1.5 -0.3 Q1.45 -0.65 1.3 -0.85 L1.25 -0.9" fill="#e5e161" fill-rule="evenodd" stroke="none"/>
    <path d="M1.75 -0.3 L1.8 -0.05 Q1.8 0.1 1.75 0.2 L1.65 0.55 1.45 0.8 Q1.4 0.75 1.45 0.7 L1.45 0.6 Q1.55 0.25 1.45 -0.05 1.45 -0.45 1.25 -0.75 L1.3 -0.85 Q1.45 -0.65 1.5 -0.3 L1.55 0.25 1.5 0.45 Q1.5 0.55 1.5 0.6 1.6 0.55 1.7 0.4 L1.7 0.25 1.8 0.15 1.75 0.1 1.75 -0.15 Q1.7 -0.25 1.75 -0.3" fill="#e2a551" fill-rule="evenodd" stroke="none"/>
    <path d="M1.8 -0.45 Q1.85 -0.4 1.85 -0.25 L1.85 -0.05 2.0 0.05 2.0 -0.1 2.05 -0.25 2.0 -0.3 1.95 -0.35 1.95 -0.45 1.9 -0.55 Q1.9 -0.65 1.95 -0.7 2.0 -0.75 2.05 -0.65 L2.05 -0.5 Q1.95 -0.5 2.0 -0.45 2.05 -0.35 2.1 -0.35 L2.15 -0.4 Q2.15 -0.45 2.2 -0.45 L2.2 -0.1 2.15 0.0 2.15 0.1 2.05 0.1 2.05 0.15 1.9 0.2 1.8 0.25 Q1.85 0.1 1.8 -0.1 L1.8 -0.45" fill="#ab6b44" fill-rule="evenodd" stroke="none"/>
    <path d="M2.2 -1.65 L2.15 -1.55 Q2.1 -1.5 2.05 -1.55 L2.05 -1.75 2.0 -2.0 2.1 -2.05 2.2 -2.1 2.2 -1.65" fill="#773030" fill-rule="evenodd" stroke="none"/>
    <path d="M2.2 -0.1 L2.2 0.45 2.05 0.4 Q2.0 0.35 2.0 0.3 L1.9 0.3 1.8 0.4 1.75 0.45 1.75 0.55 1.75 0.4 1.8 0.25 1.9 0.2 2.05 0.15 2.05 0.1 2.15 0.1 2.15 0.0 2.2 -0.1" fill="#9a613d" fill-rule="evenodd" stroke="none"/>
    <path d="M2.2 0.45 L2.2 0.65 Q2.0 0.55 1.85 0.5 L1.65 0.7 1.7 0.65 1.75 0.55 1.75 0.45 1.8 0.4 1.9 0.3 2.0 0.3 Q2.0 0.35 2.05 0.4 L2.2 0.45" fill="#7d4b31" fill-rule="evenodd" stroke="none"/>
    <path d="M2.2 0.65 L2.2 0.85 2.1 0.9 2.0 0.85 1.9 0.75 1.75 0.7 1.35 1.2 1.35 1.15 1.4 1.1 1.55 0.9 1.65 0.7 1.85 0.5 Q2.0 0.55 2.2 0.65" fill="#683828" fill-rule="evenodd" stroke="none"/>
    <path d="M2.2 0.85 L2.2 1.05 1.85 1.0 Q1.65 0.95 1.55 1.1 L1.3 1.35 1.0 1.6 Q0.9 1.55 0.85 1.6 L0.75 1.75 0.8 1.85 0.85 1.85 0.85 1.8 Q0.85 1.75 0.9 1.75 L1.0 1.95 1.15 2.2 0.1 2.2 0.15 2.05 0.1 1.95 Q0.35 1.95 0.6 1.75 L0.8 1.6 Q0.95 1.5 1.05 1.5 L1.2 1.35 1.35 1.2 1.75 0.7 1.9 0.75 2.0 0.85 2.1 0.9 2.2 0.85" fill="#4e211e" fill-rule="evenodd" stroke="none"/>
    <path d="M2.2 1.05 L2.2 1.15 1.9 1.1 Q1.8 1.05 1.75 1.15 1.75 1.2 1.8 1.25 L1.8 1.6 Q1.65 1.55 1.65 1.45 1.6 1.35 1.5 1.4 1.45 1.4 1.4 1.45 L1.35 1.6 1.15 1.6 1.3 1.8 1.5 1.9 1.45 2.05 Q1.45 2.15 1.5 2.15 L1.5 2.0 Q1.5 1.95 1.55 1.9 L1.6 1.95 1.6 2.05 Q1.55 2.05 1.6 2.1 1.6 2.15 1.65 2.1 L1.7 2.05 1.8 2.0 Q1.85 2.0 1.85 2.05 L1.8 2.2 1.15 2.2 1.0 1.95 0.9 1.75 Q0.85 1.75 0.85 1.8 L0.85 1.85 0.8 1.85 0.75 1.75 0.85 1.6 Q0.9 1.55 1.0 1.6 L1.3 1.35 1.55 1.1 Q1.65 0.95 1.85 1.0 L2.2 1.05" fill="#3c1918" fill-rule="evenodd" stroke="none"/>
    <path d="M2.2 1.15 L2.2 2.2 1.8 2.2 1.85 2.05 Q1.85 2.0 1.8 2.0 L1.7 2.05 1.65 2.1 Q1.6 2.15 1.6 2.1 1.55 2.05 1.6 2.05 L1.6 1.95 1.55 1.9 Q1.5 1.95 1.5 2.0 L1.5 2.15 Q1.45 2.15 1.45 2.05 L1.5 1.9 1.3 1.8 1.15 1.6 1.35 1.6 1.4 1.45 Q1.45 1.4 1.5 1.4 1.6 1.35 1.65 1.45 1.65 1.55 1.8 1.6 L1.8 1.25 Q1.75 1.2 1.75 1.15 1.8 1.05 1.9 1.1 L2.2 1.15" fill="#2e1313" fill-rule="evenodd" stroke="none"/>
    <path d="M1.15 0.45 L1.15 0.5 1.05 0.65 0.95 0.75 Q0.8 0.85 0.55 1.05 0.05 1.35 -0.3 1.2 L-0.5 1.1 -0.7 0.95 -0.8 0.85 -0.85 0.75 -0.65 0.85 -0.45 0.9 -0.35 0.85 -0.25 0.75 Q-0.15 0.65 0.0 0.6 0.15 0.55 0.25 0.65 L0.5 0.65 Q0.65 0.6 0.65 0.45 L0.75 0.2 0.8 0.2 Q0.75 0.6 0.55 0.75 L0.25 0.75 Q0.1 0.85 0.05 0.95 L-0.05 1.0 -0.1 0.95 -0.15 1.0 -0.2 1.1 -0.25 1.05 -0.35 1.05 -0.3 1.1 -0.25 1.15 0.15 1.15 0.5 1.0 0.6 0.95 0.75 0.85 0.95 0.7 1.15 0.45" fill="#dd6633" fill-rule="evenodd" stroke="none"/>
    <path d="M1.15 0.5 L1.2 0.35 Q1.25 0.25 1.3 0.2 L1.35 0.45 1.35 0.65 1.2 0.95 1.15 1.0 1.1 1.05 1.2 0.85 Q1.25 0.75 1.25 0.65 L1.2 0.6 Q1.15 0.6 1.15 0.65 L0.9 0.9 0.65 1.15 0.6 1.25 Q0.6 1.3 0.55 1.3 0.5 1.3 0.55 1.35 0.55 1.4 0.6 1.35 L0.7 1.3 0.85 1.25 0.95 1.15 1.1 1.1 0.85 1.3 0.6 1.4 0.5 1.4 Q0.45 1.35 0.45 1.3 L0.6 1.15 0.8 1.0 0.9 0.9 0.95 0.75 1.05 0.65 1.15 0.5" fill="#703324" fill-rule="evenodd" stroke="none"/>
    <path d="M1.1 1.1 L0.95 1.15 0.85 1.25 0.7 1.3 0.6 1.35 Q0.55 1.4 0.55 1.35 0.5 1.3 0.55 1.3 0.6 1.3 0.6 1.25 L0.65 1.15 0.9 0.9 1.15 0.65 Q1.15 0.6 1.2 0.6 L1.25 0.65 Q1.25 0.75 1.2 0.85 L1.1 1.05 1.1 1.1" fill="#3e1a15" fill-rule="evenodd" stroke="none"/>
    <path d="M-1.35 -1.25 L-0.85 -1.6 -0.8 -1.6 -1.1 -1.4 -1.35 -1.15 Q-1.35 -1.1 -1.3 -1.05 -1.25 -1.05 -1.2 -1.1 -1.1 -1.3 -0.9 -1.4 -0.7 -1.5 -0.5 -1.5 L-0.7 -1.45 -0.85 -1.35 -1.1 -1.15 -1.3 -0.9 Q-1.55 -0.6 -1.6 -0.1 L-1.55 0.4 Q-1.45 0.65 -1.3 0.85 -1.25 0.85 -1.2 0.9 L-1.1 1.0 -1.05 1.1 -1.0 1.1 Q-0.95 1.1 -0.9 1.15 L-0.8 1.25 -0.7 1.15 -0.8 1.05 -0.9 1.0 -0.95 0.95 -0.9 0.9 Q-0.85 0.9 -0.8 0.95 L-0.75 1.05 Q-0.5 1.25 -0.2 1.3 0.1 1.35 0.4 1.2 L0.6 1.1 Q0.7 1.0 0.8 1.0 L0.6 1.15 0.45 1.3 Q0.45 1.35 0.5 1.4 L0.6 1.4 0.85 1.3 1.1 1.1 1.1 1.05 1.15 1.0 1.2 0.95 1.15 1.1 1.1 1.2 Q1.05 1.25 1.1 1.3 L1.2 1.25 1.4 1.1 1.35 1.15 0.95 1.5 0.5 1.75 0.15 1.85 -0.2 1.85 -0.25 1.9 -0.3 1.95 Q-0.3 1.85 -0.4 1.8 -0.5 1.75 -0.55 1.8 L-0.65 1.85 -0.75 1.85 -0.9 1.75 -1.05 1.55 -1.15 1.5 Q-1.15 1.5 -1.2 1.55 L-1.25 1.6 Q-1.3 1.65 -1.3 1.6 L-1.3 1.5 -1.35 1.45 -1.3 1.35 Q-1.3 1.35 -1.3 1.3 L-1.4 1.25 -1.45 1.15 -1.55 1.15 -1.65 1.15 -1.7 1.1 -1.65 1.0 Q-1.6 0.9 -1.65 0.85 L-1.7 0.7 -1.75 0.55 -1.8 0.4 -1.8 -0.1 Q-1.8 -0.35 -1.7 -0.6 -1.65 -0.85 -1.45 -1.0 L-1.4 -1.15 -1.35 -1.25 M0.7 1.45 L0.6 1.5 0.35 1.55 0.1 1.55 -0.2 1.55 -0.65 1.45 Q-0.8 1.35 -0.85 1.35 L-1.05 1.15 Q-1.2 1.1 -1.3 1.05 L-1.3 1.2 -1.25 1.3 -1.0 1.5 -0.7 1.7 -0.6 1.7 -0.45 1.7 -0.1 1.75 0.3 1.75 0.45 1.7 0.6 1.65 Q0.75 1.55 0.8 1.45 0.75 1.4 0.7 1.45 M0.2 1.35 L0.05 1.4 -0.1 1.45 Q-0.1 1.5 0.05 1.45 L0.2 1.45 0.25 1.4 Q0.25 1.35 0.2 1.35" fill="#db4135" fill-rule="evenodd" stroke="none"/>
    <path d="M1.35 0.65 L1.4 0.6 1.35 0.8 1.3 1.0 1.5 0.85 1.6 0.75 1.7 0.65 1.65 0.7 1.55 0.9 1.4 1.1 1.2 1.25 1.1 1.3 Q1.05 1.25 1.1 1.2 L1.15 1.1 1.2 0.95 1.35 0.65" fill="#dc5d3b" fill-rule="evenodd" stroke="none"/>
    <path d="M0.1 2.2 L-0.35 2.2 -0.3 2.15 -0.25 2.1 -0.2 2.05 -0.15 1.95 -0.05 1.9 0.05 1.95 0.25 1.85 Q0.4 1.85 0.5 1.75 L0.95 1.5 1.35 1.15 1.35 1.2 1.2 1.35 1.05 1.5 Q0.95 1.5 0.8 1.6 L0.6 1.75 Q0.35 1.95 0.1 1.95 L0.15 2.05 0.1 2.2" fill="#7a2726" fill-rule="evenodd" stroke="none"/>
    <path d="M0.7 -0.15 L0.8 0.0 0.8 0.2 0.75 0.2 0.75 0.05 0.7 -0.15" fill="#9c522f" fill-rule="evenodd" stroke="none"/>
    <path d="M0.7 1.45 Q0.75 1.4 0.8 1.45 0.75 1.55 0.6 1.65 L0.45 1.7 0.3 1.75 -0.1 1.75 -0.45 1.7 -0.6 1.7 -0.7 1.7 -1.0 1.5 -1.25 1.3 -1.3 1.2 -1.3 1.05 Q-1.2 1.1 -1.05 1.15 L-0.85 1.35 Q-0.8 1.35 -0.65 1.45 L-0.2 1.55 0.1 1.55 0.35 1.55 0.6 1.5 0.7 1.45" fill="#e0573d" fill-rule="evenodd" stroke="none"/>
    <path d="M0.2 1.35 Q0.25 1.35 0.25 1.4 L0.2 1.45 0.05 1.45 Q-0.1 1.5 -0.1 1.45 L0.05 1.4 0.2 1.35" fill="#c1312e" fill-rule="evenodd" stroke="none"/>
    <path d="M-0.35 2.2 L-0.45 2.2 -0.5 2.05 -0.5 1.95 -0.45 1.9 -0.5 1.9 -0.55 1.8 Q-0.5 1.75 -0.4 1.8 -0.3 1.85 -0.3 1.95 L-0.25 1.9 -0.2 1.85 0.15 1.85 0.5 1.75 Q0.4 1.85 0.25 1.85 L0.05 1.95 -0.05 1.9 -0.15 1.95 -0.2 2.05 -0.25 2.1 -0.3 2.15 -0.35 2.2" fill="#922c2c" fill-rule="evenodd" stroke="none"/>
    <path d="M-0.55 -2.2 L-0.5 -2.1 -0.35 -2.05 -0.4 -1.95 -0.4 -1.85 Q-0.8 -1.75 -1.2 -1.4 L-0.95 -1.6 -0.7 -1.8 Q-0.65 -1.9 -0.75 -1.9 L-1.0 -2.0 -1.2 -2.0 Q-1.4 -2.0 -1.45 -2.15 L-1.55 -2.1 -1.65 -2.2 -0.55 -2.2" fill="#4b1e1e" fill-rule="evenodd" stroke="none"/>
    <path d="M-1.2 -1.4 L-1.3 -1.35 -1.35 -1.25 -1.6 -0.9 Q-1.75 -0.65 -1.8 -0.3 L-1.8 0.4 -1.85 0.45 -1.85 0.55 Q-1.8 0.6 -1.8 0.65 -1.75 0.7 -1.8 0.75 L-2.2 0.55 -2.2 0.4 Q-2.1 0.4 -2.05 0.5 L-2.0 0.6 -1.95 0.55 -1.9 0.45 Q-1.85 0.3 -1.85 -0.05 L-1.8 -0.5 Q-1.7 -0.95 -1.4 -1.2 -1.4 -1.35 -1.25 -1.45 L-1.1 -1.55 -1.0 -1.7 -1.1 -1.8 Q-1.15 -1.85 -1.25 -1.8 L-1.35 -1.75 -1.45 -1.75 -1.6 -1.75 -1.7 -1.8 -1.8 -1.9 -1.85 -2.0 Q-1.8 -2.05 -1.9 -2.1 L-1.95 -2.2 -1.65 -2.2 -1.55 -2.1 -1.45 -2.15 Q-1.4 -2.0 -1.2 -2.0 L-1.0 -2.0 -0.75 -1.9 Q-0.65 -1.9 -0.7 -1.8 L-0.95 -1.6 -1.2 -1.4" fill="#3e1717" fill-rule="evenodd" stroke="none"/>
    <path d="M-0.85 -1.6 L-0.7 -1.7 -0.55 -1.75 -0.7 -1.7 -0.8 -1.6 -0.85 -1.6" fill="#a1352e" fill-rule="evenodd" stroke="none"/>
    <path d="M-0.85 0.5 L-0.9 0.4 -0.95 0.25 -0.9 0.15 -0.95 0.0 Q-1.05 -0.2 -1.1 -0.15 L-1.15 0.2 -1.2 0.5 -1.35 0.5 Q-1.45 0.45 -1.45 0.35 -1.45 0.35 -1.5 0.25 L-1.5 0.1 Q-1.5 0.05 -1.5 0.0 L-1.55 -0.15 Q-1.45 -0.35 -1.4 -0.6 L-1.3 -0.8 -1.1 -1.0 -1.0 -1.15 -0.85 -1.25 -0.6 -1.35 -0.35 -1.4 -0.3 -1.4 -0.25 -1.35 Q-0.2 -1.2 -0.25 -0.95 L-0.25 -0.6 -0.35 -0.4 Q-0.45 -0.3 -0.5 -0.35 L-0.55 -0.45 -0.55 -0.7 -0.65 -0.8 -0.85 -0.45 -0.65 0.05 -0.6 0.05 -0.55 0.05 -0.5 0.0 -0.55 0.0 -0.5 -0.1 -0.4 -0.1 Q-0.35 0.0 -0.3 0.15 -0.3 0.3 -0.35 0.45 -0.45 0.55 -0.6 0.6 -0.75 0.6 -0.85 0.5 L-0.85 0.5" fill="#280f0f" fill-rule="evenodd" stroke="none"/>
    <path d="M-2.2 0.4 L-2.2 -2.2 -1.95 -2.2 -1.9 -2.1 Q-1.8 -2.05 -1.85 -2.0 L-1.8 -1.9 -1.7 -1.8 -1.6 -1.75 -1.45 -1.75 -1.35 -1.75 -1.25 -1.8 Q-1.15 -1.85 -1.1 -1.8 L-1.0 -1.7 -1.1 -1.55 -1.25 -1.45 Q-1.4 -1.35 -1.4 -1.2 -1.7 -0.95 -1.8 -0.5 L-1.85 -0.05 Q-1.85 0.3 -1.9 0.45 L-1.95 0.55 -2.0 0.6 -2.05 0.5 Q-2.1 0.4 -2.2 0.4" fill="#281010" fill-rule="evenodd" stroke="none"/>
    <path d="M-1.35 -1.25 L-1.35 -1.25 -1.4 -1.15 -1.45 -1.0 Q-1.65 -0.85 -1.7 -0.6 -1.8 -0.35 -1.8 -0.1 L-1.8 0.4 -1.8 -0.3 Q-1.75 -0.65 -1.6 -0.9 L-1.35 -1.25 M-1.8 0.4 L-1.8 0.4" fill="#872721" fill-rule="evenodd" stroke="none"/>
    <path d="M0.0 -1.1 Q-0.05 -1.15 -0.05 -1.1 L-0.1 -1.0 -0.15 -0.75 -0.15 -0.95 Q-0.1 -1.0 -0.1 -1.1 -0.15 -1.2 -0.1 -1.25 L0.0 -1.2 0.0 -1.1" fill="#8f2b25" fill-rule="evenodd" stroke="none"/>
    <path d="M-0.15 -0.75 L-0.15 -0.75 -0.25 -0.55 -0.35 -0.3 Q-0.4 -0.25 -0.45 -0.25 -0.5 -0.25 -0.55 -0.3 L-0.65 -0.4 -0.7 -0.55 Q-0.8 -0.5 -0.75 -0.35 L-0.7 -0.25 -0.65 -0.15 Q-0.65 -0.1 -0.6 -0.1 L-0.5 -0.15 Q-0.4 -0.2 -0.35 -0.05 L-0.3 0.15 Q-0.35 0.0 -0.4 -0.1 L-0.5 -0.1 -0.55 0.0 -0.6 0.0 Q-0.65 0.0 -0.65 -0.05 L-0.7 -0.2 -0.8 -0.4 Q-0.85 -0.5 -0.7 -0.65 L-0.65 -0.6 -0.6 -0.5 -0.55 -0.35 Q-0.5 -0.3 -0.45 -0.3 -0.3 -0.4 -0.25 -0.6 L-0.15 -0.95 -0.15 -0.75 M-0.85 0.5 Q-0.75 0.6 -0.6 0.6 -0.45 0.55 -0.35 0.45 -0.3 0.3 -0.3 0.15 -0.25 0.3 -0.3 0.45 -0.35 0.6 -0.45 0.65 L-0.7 0.65 Q-0.8 0.6 -0.85 0.5" fill="#6f1f1b" fill-rule="evenodd" stroke="none"/>
    <path d="M-0.5 -0.15 L-0.6 -0.1 Q-0.65 -0.1 -0.65 -0.15 L-0.7 -0.25 -0.75 -0.35 Q-0.8 -0.5 -0.7 -0.55 L-0.65 -0.4 -0.55 -0.3 -0.5 -0.15" fill="#d0362c" fill-rule="evenodd" stroke="none"/>
    <path d="M-1.1 0.15 L-1.1 0.0 -1.05 -0.1 -1.0 -0.05 -1.0 0.0 -1.05 0.05 -1.1 0.15" fill="#a02a24" fill-rule="evenodd" stroke="none"/>
    <path d="M-0.5 -0.15 L-0.55 -0.3 Q-0.5 -0.25 -0.45 -0.25 -0.4 -0.25 -0.35 -0.3 L-0.4 -0.2 -0.4 -0.15 Q-0.3 -0.1 -0.3 0.0 L-0.3 0.15 -0.35 -0.05 Q-0.4 -0.2 -0.5 -0.15" fill="#9a2a22" fill-rule="evenodd" stroke="none"/>
    <path d="M-0.95 0.95 Q-1.1 0.8 -1.15 0.6 -1.2 0.35 -1.1 0.15 L-1.05 0.05 -1.0 0.0 -0.95 0.05 Q-1.0 0.2 -0.95 0.3 L-0.85 0.5 Q-0.8 0.6 -0.7 0.65 L-0.45 0.65 Q-0.35 0.6 -0.3 0.45 -0.25 0.3 -0.3 0.15 L-0.3 0.0 Q-0.3 -0.1 -0.4 -0.15 L-0.4 -0.2 -0.35 -0.3 -0.25 -0.55 -0.15 -0.75 Q-0.15 -0.65 -0.2 -0.5 L-0.3 -0.25 Q-0.35 -0.2 -0.25 -0.1 -0.2 0.0 -0.2 0.05 L-0.2 0.35 Q-0.2 0.55 -0.25 0.65 L-0.4 0.7 -0.5 0.8 -0.75 0.7 -0.95 0.5 Q-0.95 0.45 -1.0 0.45 L-1.05 0.5 -1.0 0.65 -1.0 0.75 -0.9 0.9 -0.95 0.95 M-0.85 0.5 L-0.85 0.5" fill="#d7392c" fill-rule="evenodd" stroke="none"/>
    <path d="M-1.0 1.1 L-0.95 1.05 -0.9 1.0 -0.8 1.05 -0.7 1.15 -0.8 1.25 -0.9 1.15 Q-0.95 1.1 -1.0 1.1" fill="#ce3331" fill-rule="evenodd" stroke="none"/>
    <path d="M-2.2 0.9 L-2.2 0.55 -1.8 0.75 Q-1.75 0.7 -1.8 0.65 -1.8 0.6 -1.85 0.55 L-1.85 0.45 -1.8 0.4 -1.8 0.4 -1.75 0.55 -1.7 0.8 Q-1.7 0.95 -1.75 1.05 L-1.8 1.1 -1.85 1.1 -1.9 1.05 -1.9 0.95 Q-1.9 0.95 -1.85 0.9 -1.8 0.9 -1.8 0.85 L-1.8 0.8 Q-1.85 0.7 -1.85 0.75 -1.9 0.8 -1.95 0.8 L-2.1 0.75 -2.1 0.85 -2.05 0.85 -2.0 0.9 -2.0 0.95 Q-2.05 1.0 -2.1 1.0 L-2.2 0.9" fill="#682120" fill-rule="evenodd" stroke="none"/>
    <path d="M-1.85 2.2 L-2.2 2.2 -2.2 0.9 -2.1 1.0 Q-2.05 1.0 -2.0 0.95 L-2.0 0.9 -2.05 0.85 -2.1 0.85 -2.1 0.75 -1.95 0.8 Q-1.9 0.8 -1.85 0.75 L-1.85 0.85 -1.8 0.85 Q-1.8 0.9 -1.85 0.9 -1.9 0.95 -1.9 0.95 L-1.9 1.05 -1.85 1.1 -1.8 1.1 -1.75 1.05 Q-1.7 0.95 -1.7 0.8 L-1.75 0.55 -1.7 0.7 -1.65 0.85 Q-1.6 0.9 -1.65 1.0 L-1.7 1.1 -1.75 1.15 -1.8 1.15 Q-1.9 1.2 -1.85 1.25 -1.85 1.4 -1.95 1.55 L-2.0 1.6 -1.95 1.65 Q-1.9 1.7 -1.95 1.8 -2.0 1.9 -1.95 1.95 -2.0 1.9 -2.1 1.9 L-2.15 1.95 -2.1 2.0 -2.0 2.1 Q-1.9 2.15 -1.85 2.2" fill="#7e2929" fill-rule="evenodd" stroke="none"/>
    <path d="M-1.85 0.75 Q-1.85 0.7 -1.8 0.8 L-1.8 0.85 -1.85 0.85 -1.85 0.75" fill="#ba2e2e" fill-rule="evenodd" stroke="none"/>
    <path d="M-1.35 2.2 L-1.85 2.2 Q-1.9 2.15 -2.0 2.1 L-2.1 2.0 -2.15 1.95 -2.1 1.9 Q-2.0 1.9 -1.95 1.95 -2.0 1.9 -1.95 1.8 -1.9 1.7 -1.95 1.65 L-2.0 1.6 -1.95 1.55 Q-1.85 1.4 -1.85 1.25 -1.9 1.2 -1.8 1.15 L-1.75 1.15 -1.7 1.1 -1.65 1.15 -1.7 1.2 Q-1.75 1.2 -1.8 1.2 L-1.85 1.4 -1.85 1.6 -1.8 1.65 -1.75 1.65 -1.7 1.75 -1.65 1.85 -1.6 1.75 -1.55 1.65 Q-1.55 1.65 -1.55 1.55 L-1.55 1.5 -1.5 1.5 Q-1.45 1.5 -1.4 1.45 L-1.35 1.35 Q-1.4 1.3 -1.4 1.25 L-1.55 1.2 -1.45 1.15 -1.4 1.25 -1.3 1.3 Q-1.3 1.35 -1.3 1.35 L-1.35 1.45 -1.3 1.5 -1.3 1.6 -1.3 1.65 -1.25 1.65 -1.2 1.65 -1.2 1.75 -1.3 1.75 -1.35 1.7 -1.4 1.6 -1.5 1.6 -1.5 1.65 -1.55 1.65 Q-1.6 1.7 -1.55 1.75 -1.6 1.8 -1.55 1.85 L-1.45 1.9 Q-1.4 1.95 -1.35 1.9 -1.3 1.85 -1.3 1.9 L-1.3 2.0 Q-1.3 2.1 -1.35 2.2" fill="#923131" fill-rule="evenodd" stroke="none"/>
    <path d="M-1.65 1.15 L-1.55 1.15 -1.45 1.15 -1.55 1.2 -1.6 1.3 -1.65 1.4 -1.65 1.3 -1.75 1.3 -1.8 1.45 -1.85 1.6 -1.85 1.4 -1.8 1.2 Q-1.75 1.2 -1.7 1.2 L-1.65 1.15" fill="#af3030" fill-rule="evenodd" stroke="none"/>
    <path d="M-0.45 2.2 L-0.65 2.2 -0.6 2.1 Q-0.55 2.0 -0.6 2.0 -0.65 1.9 -0.75 1.9 -0.9 1.9 -0.9 1.8 -0.95 1.75 -1.05 1.75 -1.15 1.75 -1.15 1.8 L-1.15 1.9 -1.05 1.95 -1.15 1.95 -1.2 1.9 -1.2 1.85 -1.15 1.8 -1.25 1.8 -1.3 1.9 Q-1.3 1.85 -1.35 1.9 -1.4 1.95 -1.45 1.9 L-1.55 1.85 Q-1.6 1.8 -1.55 1.75 -1.5 1.8 -1.45 1.8 L-1.35 1.7 -1.3 1.75 -1.2 1.75 -1.2 1.65 -1.25 1.65 -1.3 1.65 -1.3 1.6 Q-1.3 1.65 -1.25 1.6 L-1.2 1.55 Q-1.15 1.5 -1.15 1.5 L-1.05 1.55 -0.9 1.75 -0.75 1.85 -0.65 1.85 -0.55 1.8 -0.5 1.9 -0.45 1.9 -0.5 1.95 -0.5 2.05 -0.45 2.2" fill="#b03535" fill-rule="evenodd" stroke="none"/>
    <path d="M-1.65 1.4 L-1.6 1.3 -1.55 1.2 -1.4 1.25 Q-1.4 1.3 -1.35 1.35 L-1.4 1.45 Q-1.45 1.5 -1.5 1.5 L-1.55 1.5 -1.55 1.55 Q-1.55 1.65 -1.55 1.65 L-1.6 1.75 -1.65 1.85 -1.7 1.75 -1.75 1.65 -1.75 1.6 -1.65 1.55 Q-1.7 1.45 -1.65 1.4" fill="#7d2929" fill-rule="evenodd" stroke="none"/>
    <path d="M-1.35 1.7 L-1.45 1.8 Q-1.5 1.8 -1.55 1.75 -1.6 1.7 -1.55 1.65 L-1.5 1.65 -1.5 1.6 -1.4 1.6 -1.35 1.7" fill="#ca3b3b" fill-rule="evenodd" stroke="none"/>
    <path d="M-1.3 1.9 L-1.25 1.8 -1.15 1.8 -1.2 1.85 -1.2 1.9 -1.15 1.95 -1.05 1.95 Q-1.0 2.05 -1.1 2.05 L-1.3 2.0 -1.3 1.9 M-1.05 1.95 L-1.05 1.95" fill="#cd3e3e" fill-rule="evenodd" stroke="none"/>
    <path d="M-0.65 2.2 L-1.05 2.2 -1.05 2.1 -1.0 2.05 Q-1.0 2.0 -1.05 1.95 L-1.15 1.9 -1.15 1.8 Q-1.15 1.75 -1.05 1.75 -0.95 1.75 -0.9 1.8 -0.9 1.9 -0.75 1.9 -0.65 1.9 -0.6 2.0 -0.55 2.0 -0.6 2.1 L-0.65 2.2 M-1.05 1.95 L-1.05 1.95" fill="#8e2e2e" fill-rule="evenodd" stroke="none"/>
    <path d="M-1.85 1.6 L-1.8 1.45 -1.75 1.3 -1.65 1.3 -1.65 1.4 Q-1.7 1.45 -1.65 1.55 L-1.75 1.6 -1.75 1.65 -1.8 1.65 -1.85 1.6" fill="#cd3737" fill-rule="evenodd" stroke="none"/>
    <path d="M-1.05 2.2 L-1.35 2.2 Q-1.3 2.1 -1.3 2.0 L-1.1 2.05 Q-1.0 2.05 -1.05 1.95 -1.0 2.0 -1.0 2.05 L-1.05 2.1 -1.05 2.2" fill="#aa3737" fill-rule="evenodd" stroke="none"/>
  </g>
</svg>
