<?xml version="1.0" encoding="UTF-8" standalone="no"?>
<svg xmlns:xlink="http://www.w3.org/1999/xlink" height="2.05px" width="1.85px" xmlns="http://www.w3.org/2000/svg">
  <g transform="matrix(1.0, 0.0, 0.0, 1.0, 0.75, 0.85)">
    <path d="M0.95 -0.65 Q1.1 -0.5 1.1 -0.35 L1.05 -0.25 1.05 -0.2 1.0 -0.1 0.95 0.1 0.95 0.15 0.9 0.15 0.85 0.35 0.85 0.5 0.8 0.55 0.65 0.65 0.45 0.5 0.4 0.4 0.3 0.4 -0.2 0.2 -0.2 0.25 -0.15 0.35 -0.15 0.6 -0.15 0.6 -0.1 0.7 -0.1 0.6 Q0.0 0.55 0.05 0.55 0.05 0.55 0.15 0.6 L0.2 0.7 0.25 0.65 0.3 0.65 0.4 0.7 0.45 0.75 Q0.45 0.7 0.5 0.7 L0.55 0.7 0.65 0.7 0.7 0.85 0.65 0.95 0.65 1.0 0.55 1.05 0.45 1.05 0.35 1.05 0.2 1.05 0.15 1.05 0.1 1.05 0.05 1.05 -0.05 1.15 -0.15 1.1 -0.2 1.05 -0.3 1.2 -0.55 1.1 -0.7 0.85 -0.65 0.7 -0.55 0.55 -0.75 0.15 Q-0.75 0.05 -0.55 -0.15 L-0.55 -0.15 -0.4 -0.3 -0.2 -0.5 -0.2 -0.5 0.05 -0.7 0.2 -0.75 0.25 -0.8 0.35 -0.8 0.35 -0.8 0.4 -0.8 0.45 -0.8 0.55 -0.85 0.6 -0.8 Q0.75 -0.8 0.95 -0.65 M0.65 0.1 L0.65 0.1" fill="#cd7852" fill-rule="evenodd" stroke="none"/>
  </g>
</svg>
