<?xml version="1.0" encoding="UTF-8" standalone="no"?>
<svg xmlns:xlink="http://www.w3.org/1999/xlink" height="4.4px" width="4.4px" xmlns="http://www.w3.org/2000/svg">
  <g transform="matrix(1.0, 0.0, 0.0, 1.0, 2.2, 2.2)">
    <path d="M-2.2 -1.2 L-2.2 -1.5 -2.1 -1.55 -2.05 -1.55 Q-2.0 -1.5 -1.95 -1.55 L-1.95 -1.6 -1.9 -1.6 -1.85 -1.6 -1.8 -1.55 -1.7 -1.6 -1.75 -1.55 -1.8 -1.55 -1.8 -1.5 -1.85 -1.45 -1.85 -1.45 -1.9 -1.4 -1.85 -1.35 -1.85 -1.35 -1.85 -1.25 -1.9 -1.3 -1.95 -1.35 -2.0 -1.3 -2.0 -1.25 -2.05 -1.25 -2.1 -1.2 Q-2.1 -1.2 -2.15 -1.2 L-2.2 -1.2" fill="#692e2c" fill-rule="evenodd" stroke="none"/>
    <path d="M-2.2 -1.5 L-2.2 -2.2 -1.8 -2.2 -1.85 -1.8 -1.85 -1.7 -1.8 -1.6 -1.7 -1.6 -1.8 -1.55 -1.85 -1.6 -1.9 -1.6 -1.95 -1.6 -1.95 -1.55 Q-2.0 -1.5 -2.05 -1.55 L-2.1 -1.55 -2.2 -1.5 M-1.7 -1.6 L-1.7 -1.6" fill="#6e3131" fill-rule="evenodd" stroke="none"/>
    <path d="M-2.2 -1.05 L-2.2 -1.2 -2.15 -1.2 Q-2.1 -1.2 -2.1 -1.2 L-2.05 -1.25 -2.0 -1.25 -2.0 -1.3 -1.95 -1.35 -1.9 -1.3 -1.85 -1.25 -1.9 -1.2 -2.0 -1.2 -2.1 -1.15 -2.15 -1.1 -2.2 -1.05 M-1.8 -1.25 L-1.85 -1.25 -1.8 -1.25" fill="#59281d" fill-rule="evenodd" stroke="none"/>
    <path d="M-2.2 1.1 L-2.2 -0.75 -2.1 -0.8 -2.05 -0.85 Q-2.0 -0.85 -2.0 -0.85 L-2.0 -0.95 -1.95 -1.0 -1.9 -1.05 -1.9 -1.1 -1.95 -1.1 -2.05 -1.05 -2.05 -0.95 -2.1 -0.95 -2.2 -0.95 -2.2 -1.0 -2.05 -1.1 -1.9 -1.15 -1.9 -1.05 -1.85 -1.0 -1.85 -0.95 -1.8 -0.9 -1.7 -0.9 Q-1.7 -0.9 -1.75 -0.85 L-1.8 -0.8 -1.7 -0.8 -1.65 -0.8 -1.7 -0.75 -1.75 -0.65 -1.6 -0.7 -1.6 -0.65 -1.7 -0.6 -1.75 -0.6 -1.85 -0.6 -1.85 -0.5 -1.8 -0.5 -1.7 -0.45 -1.7 -0.5 -1.6 -0.5 -1.55 -0.45 -1.5 -0.5 -1.45 -0.5 -1.15 -0.3 -1.2 -0.25 -1.25 -0.2 -1.2 -0.1 Q-1.2 -0.05 -1.2 -0.05 L-1.15 0.0 -1.1 -0.05 -1.05 -0.05 Q-1.05 -0.05 -1.05 -0.1 L-1.15 -0.1 -1.15 -0.2 -1.05 -0.25 -0.95 -0.25 -0.9 -0.2 -0.85 -0.2 -0.85 -0.15 -0.75 -0.15 -0.65 -0.1 -0.7 -0.05 -0.8 -0.05 -0.9 -0.05 -0.95 -0.05 -1.1 0.0 -1.2 0.0 -1.2 0.1 Q-1.15 0.1 -1.15 0.15 L-1.15 0.25 -1.1 0.25 -1.1 0.3 -1.15 0.35 -1.2 0.5 -1.1 0.5 -1.05 0.55 Q-0.95 0.55 -0.95 0.65 -0.9 0.7 -0.9 0.75 L-0.95 0.85 -0.95 0.95 -1.0 1.0 -1.05 1.05 -1.05 0.95 -1.15 1.05 Q-1.2 1.1 -1.2 1.1 L-1.15 1.0 Q-1.1 0.9 -1.1 0.85 L-1.15 0.85 Q-1.15 0.9 -1.2 0.9 L-1.2 0.7 Q-1.25 0.7 -1.25 0.7 L-1.25 0.8 -1.25 0.85 Q-1.25 0.9 -1.3 0.9 L-1.4 0.9 -1.4 0.95 -1.35 1.0 -1.3 0.95 -1.25 0.95 -1.3 1.0 -1.35 1.05 -1.35 1.1 -1.4 1.15 -1.5 1.2 -1.5 1.1 Q-1.45 1.0 -1.45 0.95 L-1.55 1.0 -1.6 1.0 -1.65 1.0 -1.65 1.0 -1.6 0.95 -1.55 0.9 -1.5 0.85 -1.5 0.85 -1.55 0.8 -1.55 0.75 Q-1.55 0.75 -1.6 0.75 L-1.65 0.8 -1.65 0.85 -1.85 0.95 -2.0 1.05 Q-2.1 1.1 -2.2 1.1 M-1.6 -0.1 L-1.7 -0.1 -1.8 -0.1 -1.85 -0.1 -1.85 -0.05 -1.95 -0.1 -2.0 -0.1 -2.05 -0.05 -2.1 -0.1 -2.15 -0.1 -2.15 0.0 -2.1 0.0 -2.0 0.0 -1.95 -0.05 -1.9 0.0 -1.85 0.05 -1.8 0.05 -1.8 0.05 Q-1.75 0.05 -1.75 0.05 L-1.65 0.05 -1.65 0.05 -1.6 0.0 -1.55 -0.05 -1.55 -0.05 -1.6 -0.1 M-1.7 -0.35 L-1.65 -0.4 -1.55 -0.4 -1.55 -0.45 -1.6 -0.45 -1.65 -0.45 -1.9 -0.4 -1.9 -0.35 -1.8 -0.35 -1.75 -0.35 -1.7 -0.35 M-1.5 -0.15 L-1.5 -0.1 -1.4 -0.1 -1.35 -0.1 Q-1.3 -0.2 -1.45 -0.2 L-1.5 -0.15 M-1.0 0.8 L-1.0 0.75 -1.05 0.7 -1.15 0.7 -1.15 0.75 Q-1.2 0.85 -1.15 0.85 L-1.05 0.8 -1.0 0.8 M-1.5 0.0 L-1.5 0.2 -1.3 0.15 -1.3 0.0 -1.4 -0.05 -1.45 0.0 -1.5 0.0 M-1.9 0.55 L-1.9 0.55 -1.65 0.6 Q-1.65 0.5 -1.7 0.5 L-1.85 0.5 Q-1.85 0.5 -1.9 0.55 M-1.55 0.5 L-1.55 0.6 -1.5 0.6 Q-1.5 0.55 -1.55 0.5" fill="#210f06" fill-rule="evenodd" stroke="none"/>
    <path d="M-2.2 -1.0 L-2.2 -1.05 -2.15 -1.1 Q-2.1 -1.05 -2.05 -1.15 L-1.95 -1.15 -1.9 -1.2 -1.85 -1.2 -1.8 -1.15 -1.75 -1.05 -1.75 -1.0 Q-1.75 -0.95 -1.7 -0.95 L-1.6 -0.95 -1.6 -0.9 -1.55 -0.8 -1.65 -0.9 -1.7 -0.85 -1.65 -0.8 -1.55 -0.75 -1.5 -0.65 -1.55 -0.65 -1.5 -0.6 -1.45 -0.6 -1.4 -0.6 -1.35 -0.55 -1.25 -0.45 -1.1 -0.4 -1.1 -0.35 -1.05 -0.3 -1.0 -0.3 -0.95 -0.3 -0.75 -0.2 -0.55 -0.2 -0.6 -0.15 -0.6 -0.1 -0.55 -0.05 -0.35 -0.05 -0.4 0.05 -0.5 0.1 -0.65 0.1 -0.65 0.1 -0.7 0.1 -0.65 0.15 -0.55 0.2 -0.6 0.25 -0.55 0.25 -0.5 0.3 -0.45 0.3 -0.45 0.35 -0.55 0.3 -0.65 0.3 -0.7 0.25 Q-0.7 0.2 -0.75 0.25 L-0.85 0.3 -0.95 0.35 -0.85 0.35 -0.8 0.35 -0.8 0.4 Q-0.75 0.45 -0.8 0.5 L-0.85 0.55 -0.75 0.6 -0.7 0.55 -0.6 0.5 -0.55 0.45 -0.5 0.45 Q-0.45 0.45 -0.45 0.5 L-0.5 0.5 -0.55 0.5 -0.55 0.55 -0.5 0.6 -0.25 0.55 -0.25 0.5 -0.2 0.45 -0.15 0.5 -0.2 0.6 -0.3 0.6 -0.35 0.6 -0.45 0.6 -0.5 0.6 -0.55 0.6 -0.6 0.55 -0.55 0.65 -0.55 0.7 -0.6 0.75 -0.65 0.75 -0.65 0.9 -0.75 0.9 -0.8 0.9 -0.85 0.95 -0.85 1.05 -0.7 1.0 Q-0.6 0.95 -0.55 0.95 L-0.65 1.0 -0.75 1.1 -0.7 1.1 -0.7 1.15 -0.8 1.15 -0.9 1.2 -0.95 1.2 -1.0 1.25 -1.1 1.3 -1.15 1.35 -1.15 1.2 -1.15 1.15 -1.05 1.1 -1.05 1.05 -1.0 1.0 -0.95 0.95 -0.95 0.85 -0.9 0.75 Q-0.9 0.7 -0.95 0.65 -0.95 0.55 -1.05 0.55 L-1.1 0.5 -1.2 0.5 -1.15 0.35 -1.1 0.3 -1.1 0.25 -1.15 0.25 -1.15 0.15 Q-1.15 0.1 -1.2 0.1 L-1.2 0.0 -1.1 0.0 -0.95 -0.05 -0.9 -0.05 -0.8 -0.05 -0.7 -0.05 -0.65 -0.1 -0.75 -0.15 -0.85 -0.15 -0.85 -0.2 -0.9 -0.2 -0.95 -0.25 -1.05 -0.25 -1.15 -0.2 -1.15 -0.1 -1.05 -0.1 Q-1.05 -0.05 -1.05 -0.05 L-1.1 -0.05 -1.15 0.0 -1.2 -0.05 Q-1.2 -0.05 -1.2 -0.1 L-1.25 -0.2 -1.2 -0.25 -1.15 -0.3 -1.45 -0.5 -1.5 -0.5 -1.55 -0.45 -1.6 -0.5 -1.7 -0.5 -1.7 -0.45 -1.8 -0.5 -1.85 -0.5 -1.85 -0.6 -1.75 -0.6 -1.7 -0.6 -1.6 -0.65 -1.6 -0.7 -1.75 -0.65 -1.7 -0.75 -1.65 -0.8 -1.7 -0.8 -1.8 -0.8 -1.75 -0.85 Q-1.7 -0.9 -1.7 -0.9 L-1.8 -0.9 -1.85 -0.95 -1.85 -1.0 -1.9 -1.05 -1.9 -1.15 -2.05 -1.1 -2.2 -1.0 M-0.5 -0.2 L-0.55 -0.2 -0.5 -0.2 M-1.7 1.35 L-1.7 1.3 Q-1.65 1.3 -1.65 1.35 L-1.75 1.45 -1.7 1.35 M-1.7 -0.35 L-1.75 -0.35 -1.8 -0.35 -1.9 -0.35 -1.9 -0.4 -1.65 -0.45 -1.6 -0.45 -1.55 -0.45 -1.55 -0.4 -1.65 -0.4 -1.7 -0.35 M-0.95 -0.3 L-0.95 -0.3 M-0.65 -0.05 L-0.7 -0.05 -0.8 -0.05 -0.8 0.05 -0.9 0.05 -0.95 0.0 -0.95 0.05 -1.0 0.05 -1.05 0.05 -1.1 0.1 Q-1.05 0.1 -1.05 0.15 L-0.95 0.15 -0.85 0.1 -0.75 0.1 -0.7 0.05 -0.65 0.05 -0.65 0.0 -0.6 -0.05 Q-0.6 -0.1 -0.65 -0.05 M-0.9 0.45 L-1.0 0.45 -1.05 0.4 -1.15 0.4 -1.15 0.45 -1.1 0.5 -1.05 0.5 -0.95 0.55 -0.85 0.5 -0.8 0.45 Q-0.8 0.45 -0.8 0.4 L-0.9 0.45 M-0.8 0.8 L-0.75 0.75 -0.75 0.65 -0.8 0.65 -0.85 0.75 -0.9 0.85 -0.8 0.8 M-0.95 1.2 L-0.95 1.15 -1.0 1.1 -1.05 1.2 -1.05 1.25 -1.0 1.2 -0.95 1.2" fill="#2f1509" fill-rule="evenodd" stroke="none"/>
    <path d="M-2.2 -0.75 L-2.2 -0.95 -2.1 -0.95 -2.05 -0.95 -2.05 -1.05 -1.95 -1.1 -1.9 -1.1 -1.9 -1.05 -1.95 -1.0 -2.0 -0.95 -2.0 -0.85 Q-2.0 -0.85 -2.05 -0.85 L-2.1 -0.8 -2.2 -0.75" fill="#2f160b" fill-rule="evenodd" stroke="none"/>
    <path d="M-2.15 -1.1 L-2.1 -1.15 -2.0 -1.2 -1.9 -1.2 -1.95 -1.15 -2.05 -1.15 Q-2.1 -1.05 -2.15 -1.1 M-1.4 -0.6 L-1.45 -0.6 -1.5 -0.6 -1.55 -0.65 -1.5 -0.65 -1.55 -0.75 -1.65 -0.8 -1.7 -0.85 -1.65 -0.9 -1.55 -0.8 -1.6 -0.9 -1.6 -0.95 -1.7 -0.95 Q-1.75 -0.95 -1.75 -1.0 L-1.75 -1.05 -1.8 -1.15 -1.85 -1.2 -1.9 -1.2 -1.8 -1.25 Q-1.7 -1.1 -1.7 -1.0 -1.7 -1.0 -1.65 -1.0 L-1.65 -1.1 -1.6 -1.1 -1.55 -1.1 -1.55 -0.9 -1.5 -0.85 -1.5 -0.75 -1.45 -0.7 -1.4 -0.7 -1.4 -0.6" fill="#3e170a" fill-rule="evenodd" stroke="none"/>
    <path d="M-1.8 0.05 L-1.8 0.05 -1.85 0.05 -1.9 0.0 -1.95 -0.05 -2.0 0.0 -2.1 0.0 -2.15 0.0 -2.15 -0.1 -2.1 -0.1 -2.05 -0.05 -2.0 -0.1 -1.95 -0.1 -1.85 -0.05 -1.85 -0.1 -1.8 -0.1 -1.7 -0.1 -1.6 -0.1 -1.6 -0.05 -1.65 -0.05 -1.6 0.0 -1.65 0.05 -1.65 0.05 -1.75 -0.05 -1.85 -0.1 -1.85 0.0 -1.8 0.05" fill="#2f150a" fill-rule="evenodd" stroke="none"/>
    <path d="M-0.65 -2.2 L-0.6 -2.2 -0.5 -2.05 -0.4 -1.95 -0.45 -1.95 -0.55 -2.05 -0.65 -2.2 M-0.4 -1.95 L-0.4 -1.95" fill="#b93c31" fill-rule="evenodd" stroke="none"/>
    <path d="M-0.3 -1.9 L-0.4 -1.9 Q-0.4 -1.95 -0.45 -1.95 L-0.6 -1.9 -0.55 -2.0 -0.45 -1.95 -0.4 -1.95 -0.3 -1.9" fill="#f14532" fill-rule="evenodd" stroke="none"/>
    <path d="M-0.3 -1.9 L-0.3 -1.9 -0.4 -1.95 -0.4 -1.95 -0.3 -1.95 -0.3 -1.9" fill="#d14131" fill-rule="evenodd" stroke="none"/>
    <path d="M-0.4 -1.9 L-0.4 -1.75 -0.55 -1.65 -0.65 -1.6 -0.7 -1.55 -0.75 -1.55 -0.75 -1.6 -0.8 -1.7 Q-0.75 -1.75 -0.7 -1.85 L-0.65 -1.9 -0.6 -1.9 -0.45 -1.95 Q-0.4 -1.95 -0.4 -1.9" fill="#fe5031" fill-rule="evenodd" stroke="none"/>
    <path d="M0.0 -2.1 L0.05 -2.05 0.0 -1.95 -0.05 -2.05 -0.2 -2.0 -0.25 -1.95 -0.25 -1.9 -0.3 -1.9 -0.3 -1.95 -0.3 -2.0 -0.15 -2.05 0.0 -2.1" fill="#fa4b31" fill-rule="evenodd" stroke="none"/>
    <path d="M0.05 -2.05 L0.05 -1.95 0.1 -1.9 0.1 -1.85 0.05 -1.85 0.0 -1.8 -0.05 -1.7 -0.1 -1.7 -0.1 -1.65 -0.15 -1.6 -0.2 -1.65 -0.25 -1.7 -0.3 -1.7 -0.35 -1.7 -0.3 -1.6 -0.35 -1.5 -0.35 -1.45 -0.4 -1.45 -0.45 -1.5 -0.45 -1.55 -0.45 -1.6 -0.55 -1.6 -0.65 -1.6 -0.55 -1.65 -0.4 -1.75 -0.4 -1.9 -0.3 -1.9 -0.25 -1.9 -0.2 -1.8 -0.2 -1.7 -0.05 -1.8 Q-0.05 -1.8 -0.05 -1.85 L0.0 -1.95 0.05 -2.05 M-0.3 -1.9 L-0.3 -1.9 M-0.65 -1.6 L-0.65 -1.6" fill="#fc4120" fill-rule="evenodd" stroke="none"/>
    <path d="M-0.6 -2.2 L-0.55 -2.2 -0.4 -2.0 Q-0.35 -2.0 -0.3 -2.05 L-0.2 -2.15 -0.1 -2.15 0.0 -2.1 -0.15 -2.1 Q-0.25 -2.05 -0.3 -2.0 L-0.3 -1.95 -0.4 -1.95 -0.5 -2.05 -0.6 -2.2" fill="#9b3932" fill-rule="evenodd" stroke="none"/>
    <path d="M-0.55 -2.2 L0.4 -2.2 0.45 -2.1 0.45 -2.05 0.4 -2.0 0.4 -2.0 0.35 -2.0 0.35 -2.05 0.4 -2.1 0.2 -2.15 0.0 -2.1 -0.1 -2.15 -0.2 -2.15 -0.3 -2.05 Q-0.35 -2.0 -0.4 -2.0 L-0.55 -2.2 M0.0 -2.1 L0.0 -2.1" fill="#7c3432" fill-rule="evenodd" stroke="none"/>
    <path d="M0.0 -1.95 L-0.05 -1.85 Q-0.05 -1.8 -0.05 -1.8 L-0.2 -1.7 -0.2 -1.8 -0.25 -1.9 -0.25 -1.95 -0.2 -2.0 -0.05 -2.05 0.0 -1.95" fill="#ff542a" fill-rule="evenodd" stroke="none"/>
    <path d="M0.1 -2.1 L0.1 -2.1 0.0 -2.1 0.0 -2.1 0.05 -2.1 0.1 -2.1 M-0.3 -2.0 Q-0.25 -2.05 -0.15 -2.1 L0.0 -2.1 -0.15 -2.05 -0.3 -2.0" fill="#c23f30" fill-rule="evenodd" stroke="none"/>
    <path d="M-0.65 -2.2 L-0.65 -2.2 -0.55 -2.05 -0.45 -1.95 -0.55 -2.0 -0.6 -1.9 -0.65 -1.9 Q-0.6 -1.95 -0.65 -2.0 L-0.75 -2.1 -0.7 -2.05 -0.65 -2.05 -0.65 -2.2" fill="#d94031" fill-rule="evenodd" stroke="none"/>
    <path d="M-0.8 -2.2 L-0.65 -2.2 -0.65 -2.05 -0.7 -2.05 -0.75 -2.1 -0.8 -2.1 -0.8 -2.2" fill="#ee4332" fill-rule="evenodd" stroke="none"/>
    <path d="M-1.2 -2.2 L-0.8 -2.2 -0.8 -2.1 -0.85 -2.05 -0.9 -2.05 -0.95 -2.05 -1.0 -2.0 Q-1.05 -1.95 -1.05 -1.95 L-1.1 -1.95 -1.15 -1.9 Q-1.15 -1.9 -1.2 -1.9 L-1.2 -1.9 -1.25 -1.95 -1.3 -1.95 -1.3 -2.0 -1.25 -2.1 -1.25 -2.15 -1.2 -2.2" fill="#fd4e32" fill-rule="evenodd" stroke="none"/>
    <path d="M-0.85 -2.05 L-0.8 -2.1 -0.75 -2.1 -0.65 -2.0 Q-0.6 -1.95 -0.65 -1.9 L-0.7 -1.85 -0.8 -1.85 -0.85 -1.95 -0.85 -2.05 M-0.8 -1.95 L-0.8 -1.85 -0.7 -1.9 Q-0.65 -1.95 -0.65 -2.0 L-0.8 -2.05 -0.8 -1.95" fill="#b93e32" fill-rule="evenodd" stroke="none"/>
    <path d="M-0.85 -2.05 L-0.85 -1.95 -0.8 -1.85 -0.9 -1.9 -0.95 -1.85 -1.0 -1.85 Q-1.05 -1.9 -1.05 -1.9 L-1.05 -1.95 Q-1.05 -1.95 -1.0 -2.0 L-0.95 -2.05 -0.9 -2.05 -0.85 -2.05" fill="#ee4431" fill-rule="evenodd" stroke="none"/>
    <path d="M-0.8 -1.95 L-0.8 -2.05 -0.65 -2.0 Q-0.65 -1.95 -0.7 -1.9 L-0.8 -1.85 -0.8 -1.95" fill="#8a3732" fill-rule="evenodd" stroke="none"/>
    <path d="M-0.8 -1.85 L-0.7 -1.85 Q-0.75 -1.75 -0.8 -1.7 L-0.85 -1.65 -0.9 -1.6 -0.9 -1.65 -0.95 -1.65 -1.0 -1.6 Q-1.0 -1.55 -1.05 -1.6 L-1.05 -1.6 -1.1 -1.65 -1.05 -1.65 -1.05 -1.7 -1.0 -1.75 -0.95 -1.7 -0.9 -1.75 -0.9 -1.8 -0.95 -1.85 -0.9 -1.9 -0.8 -1.85" fill="#fe4525" fill-rule="evenodd" stroke="none"/>
    <path d="M-0.75 -1.55 L-0.7 -1.55 -0.6 -1.55 -0.5 -1.45 Q-0.5 -1.45 -0.5 -1.4 L-0.6 -1.25 -0.65 -1.3 -0.65 -1.4 -0.6 -1.45 -0.6 -1.5 Q-0.65 -1.55 -0.65 -1.55 L-0.7 -1.5 -0.75 -1.5 -0.75 -1.55" fill="#832d16" fill-rule="evenodd" stroke="none"/>
    <path d="M-0.65 -1.6 L-0.65 -1.6 -0.55 -1.6 -0.45 -1.55 -0.45 -1.5 -0.45 -1.35 -0.5 -1.3 Q-0.45 -1.35 -0.45 -1.4 L-0.5 -1.55 -0.55 -1.55 -0.6 -1.55 -0.7 -1.55 -0.65 -1.6 M-0.5 -1.3 L-0.5 -1.3" fill="#b2351e" fill-rule="evenodd" stroke="none"/>
    <path d="M-0.65 -1.6 L-0.55 -1.6 -0.45 -1.6 -0.45 -1.55 -0.55 -1.6 -0.65 -1.6" fill="#d1381f" fill-rule="evenodd" stroke="none"/>
    <path d="M-1.05 -1.9 Q-1.05 -1.9 -1.0 -1.85 L-0.95 -1.85 Q-1.0 -1.8 -1.0 -1.8 L-1.0 -1.75 -0.95 -1.75 -1.0 -1.75 -1.05 -1.7 -1.05 -1.8 Q-1.05 -1.85 -1.05 -1.9 L-1.1 -1.9 -1.15 -1.85 -1.2 -1.9 Q-1.15 -1.9 -1.15 -1.9 L-1.1 -1.95 -1.05 -1.9" fill="#ad3223" fill-rule="evenodd" stroke="none"/>
    <path d="M-0.95 -1.85 L-0.9 -1.8 -0.9 -1.75 -0.95 -1.7 -1.0 -1.75 -0.95 -1.75 -1.0 -1.75 -1.0 -1.8 Q-1.0 -1.8 -0.95 -1.85" fill="#ee331c" fill-rule="evenodd" stroke="none"/>
    <path d="M-1.05 -1.6 Q-1.0 -1.55 -1.0 -1.6 L-0.95 -1.65 -0.9 -1.65 -0.9 -1.6 -0.85 -1.6 -0.8 -1.55 -0.8 -1.55 -0.75 -1.5 -0.8 -1.45 -0.8 -1.35 -0.85 -1.4 -0.9 -1.35 Q-0.85 -1.35 -0.95 -1.3 L-0.85 -1.3 -0.8 -1.3 -0.8 -1.3 -0.7 -1.25 -0.75 -1.2 -0.75 -1.15 -0.8 -1.15 -0.85 -1.2 -0.9 -1.15 -0.95 -1.1 -1.0 -1.15 -1.05 -1.15 -1.05 -1.25 -1.05 -1.25 -1.0 -1.25 -0.95 -1.3 -0.9 -1.35 -0.9 -1.45 -0.95 -1.4 -1.0 -1.45 -1.0 -1.45 -1.05 -1.5 -1.0 -1.55 -1.05 -1.6" fill="#fc4019" fill-rule="evenodd" stroke="none"/>
    <path d="M-0.75 -1.55 L-0.75 -1.5 -0.8 -1.55 -0.8 -1.55 -0.85 -1.65 -0.8 -1.7 -0.75 -1.6 -0.75 -1.55 M-0.75 -1.5 L-0.75 -1.5 -0.75 -1.45 -0.75 -1.5 M-0.75 -1.45 L-0.75 -1.45" fill="#ffe14a" fill-rule="evenodd" stroke="none"/>
    <path d="M-0.9 -1.6 L-0.85 -1.65 -0.8 -1.55 -0.85 -1.6 -0.9 -1.6" fill="#ff7222" fill-rule="evenodd" stroke="none"/>
    <path d="M-0.75 -1.5 L-0.75 -1.5 -0.75 -1.45 -0.75 -1.4 -0.7 -1.3 -0.7 -1.3 -0.65 -1.25 -0.6 -1.2 -0.7 -1.25 -0.8 -1.3 -0.8 -1.3 -0.85 -1.3 -0.95 -1.3 Q-0.85 -1.35 -0.9 -1.35 L-0.85 -1.4 -0.8 -1.35 -0.8 -1.45 -0.75 -1.5" fill="#d0391c" fill-rule="evenodd" stroke="none"/>
    <path d="M-1.0 -1.45 L-0.95 -1.4 -0.95 -1.3 -1.0 -1.25 -1.1 -1.25 -1.15 -1.35 -1.15 -1.4 -1.1 -1.4 -1.05 -1.45 -1.0 -1.45" fill="#6f2414" fill-rule="evenodd" stroke="none"/>
    <path d="M-0.95 -1.3 L-0.95 -1.4 -0.9 -1.45 -0.9 -1.35 -0.95 -1.3" fill="#cb3318" fill-rule="evenodd" stroke="none"/>
    <path d="M-0.7 -1.5 L-0.65 -1.55 Q-0.65 -1.55 -0.6 -1.5 L-0.6 -1.45 -0.65 -1.4 -0.7 -1.35 -0.7 -1.4 -0.7 -1.5" fill="#6b2818" fill-rule="evenodd" stroke="none"/>
    <path d="M-0.6 -1.25 L-0.5 -1.4 Q-0.5 -1.45 -0.5 -1.45 L-0.6 -1.55 -0.55 -1.55 -0.5 -1.55 -0.45 -1.4 Q-0.45 -1.35 -0.5 -1.3 L-0.6 -1.2 -0.6 -1.25" fill="#992f16" fill-rule="evenodd" stroke="none"/>
    <path d="M-0.75 -1.45 L-0.75 -1.45 -0.7 -1.4 -0.7 -1.35 -0.7 -1.3 -0.75 -1.45 M-0.7 -1.35 L-0.7 -1.35" fill="#d46960" fill-rule="evenodd" stroke="none"/>
    <path d="M-0.75 -1.5 L-0.7 -1.5 -0.7 -1.4 -0.75 -1.45 -0.75 -1.5" fill="#48100d" fill-rule="evenodd" stroke="none"/>
    <path d="M-0.65 -1.3 L-0.6 -1.25 -0.6 -1.2 -0.65 -1.25 -0.7 -1.3 -0.7 -1.35 -0.65 -1.3 M-0.7 -1.3 L-0.7 -1.3 M-0.6 -1.15 L-0.6 -1.2 -0.6 -1.15 -0.55 -1.15 -0.6 -1.15 M-0.55 -1.15 L-0.55 -1.15" fill="#ffb460" fill-rule="evenodd" stroke="none"/>
    <path d="M-0.65 -1.4 L-0.65 -1.3 -0.7 -1.35 -0.7 -1.35 -0.65 -1.4" fill="#fb7a16" fill-rule="evenodd" stroke="none"/>
    <path d="M-0.7 -1.3 L-0.7 -1.3 -0.75 -1.4 -0.75 -1.45 -0.75 -1.45 -0.7 -1.3 -0.7 -1.3" fill="#741f12" fill-rule="evenodd" stroke="none"/>
    <path d="M-0.35 -1.5 L-0.3 -1.6 -0.35 -1.7 -0.3 -1.7 -0.25 -1.7 -0.2 -1.65 -0.15 -1.6 -0.15 -1.6 -0.15 -1.6 -0.15 -1.6 -0.2 -1.45 -0.2 -1.35 -0.2 -1.4 -0.25 -1.45 -0.25 -1.45 -0.3 -1.5 -0.35 -1.5" fill="#cc3a1f" fill-rule="evenodd" stroke="none"/>
    <path d="M0.4 -1.95 L0.4 -1.9 0.35 -1.9 0.3 -1.9 0.2 -1.85 0.1 -1.85 0.1 -1.55 0.0 -1.5 -0.1 -1.45 -0.15 -1.4 -0.1 -1.35 -0.1 -1.3 -0.15 -1.3 -0.15 -1.6 -0.05 -1.6 0.0 -1.6 Q0.05 -1.55 0.05 -1.6 L0.05 -1.85 0.2 -1.9 0.3 -1.9 0.35 -1.95 0.35 -2.0 0.4 -2.0 0.4 -1.95 M-0.15 -1.6 L-0.15 -1.6" fill="#772e20" fill-rule="evenodd" stroke="none"/>
    <path d="M-0.15 -1.6 L-0.15 -1.3 -0.2 -1.25 -0.15 -1.45 -0.15 -1.6 -0.15 -1.6" fill="#8e3220" fill-rule="evenodd" stroke="none"/>
    <path d="M-0.15 -1.6 L-0.1 -1.65 -0.05 -1.65 -0.05 -1.7 0.0 -1.8 0.05 -1.85 0.05 -1.7 Q0.0 -1.6 -0.05 -1.6 L-0.15 -1.6 -0.15 -1.6" fill="#b7371f" fill-rule="evenodd" stroke="none"/>
    <path d="M-0.1 -1.65 L-0.1 -1.7 -0.05 -1.7 -0.05 -1.65 -0.1 -1.65" fill="#e23d24" fill-rule="evenodd" stroke="none"/>
    <path d="M-0.45 -1.5 L-0.4 -1.45 -0.35 -1.45 -0.35 -1.5 -0.3 -1.5 -0.25 -1.45 -0.25 -1.45 -0.2 -1.4 -0.25 -1.45 -0.3 -1.45 -0.3 -1.4 -0.35 -1.35 -0.45 -1.35 -0.45 -1.5" fill="#e33815" fill-rule="evenodd" stroke="none"/>
    <path d="M-0.5 -1.3 L-0.45 -1.35 -0.35 -1.35 -0.3 -1.4 -0.3 -1.45 -0.25 -1.45 -0.2 -1.4 -0.2 -1.35 -0.25 -1.3 -0.3 -1.25 -0.35 -1.25 -0.4 -1.2 -0.45 -1.1 -0.5 -1.05 -0.5 -1.05 -0.55 -1.15 -0.5 -1.3 M-0.55 -1.15 L-0.55 -1.15" fill="#f93c18" fill-rule="evenodd" stroke="none"/>
    <path d="M-0.4 -1.15 Q-0.4 -1.05 -0.5 -1.05 L-0.45 -1.1 -0.4 -1.2 -0.35 -1.25 -0.3 -1.25 -0.25 -1.3 -0.3 -1.25 -0.35 -1.2 -0.4 -1.2 -0.4 -1.15" fill="#ce371c" fill-rule="evenodd" stroke="none"/>
    <path d="M0.4 -1.9 L0.45 -1.9 0.55 -1.85 0.55 -1.85 0.6 -1.9 Q0.55 -1.85 0.6 -1.75 L0.55 -1.75 0.55 -1.75 0.55 -1.65 0.5 -1.7 0.4 -1.75 0.35 -1.65 Q0.3 -1.65 0.25 -1.7 L0.15 -1.75 0.15 -1.7 0.1 -1.65 0.1 -1.65 0.15 -1.6 0.1 -1.6 Q0.15 -1.55 0.1 -1.45 L0.0 -1.45 0.0 -1.3 -0.05 -1.2 -0.05 -1.05 -0.1 -1.05 -0.1 -1.2 -0.15 -1.25 -0.15 -1.3 -0.1 -1.3 -0.1 -1.35 -0.15 -1.4 -0.1 -1.45 0.0 -1.5 0.1 -1.55 0.1 -1.85 0.2 -1.85 0.3 -1.9 0.35 -1.9 0.4 -1.9 M-0.4 -1.05 L-0.35 -1.05 -0.3 -1.05 Q-0.25 -1.05 -0.25 -1.1 L-0.15 -1.1 -0.1 -1.05 -0.2 -1.1 -0.25 -1.0 -0.25 -0.95 -0.35 -1.0 -0.4 -1.0 -0.45 -0.95 -0.45 -0.95 Q-0.45 -0.9 -0.5 -0.9 L-0.5 -0.95 -0.5 -1.0 -0.45 -1.0 -0.4 -1.05 M0.0 -1.3 L0.0 -1.3" fill="#622a20" fill-rule="evenodd" stroke="none"/>
    <path d="M-0.15 -1.6 L-0.15 -1.45 -0.2 -1.25 -0.25 -1.2 Q-0.35 -1.15 -0.4 -1.15 L-0.4 -1.2 -0.35 -1.2 -0.3 -1.25 -0.25 -1.3 -0.2 -1.35 -0.2 -1.45 -0.15 -1.6" fill="#b0361f" fill-rule="evenodd" stroke="none"/>
    <path d="M-0.15 -1.3 L-0.15 -1.25 -0.1 -1.2 -0.1 -1.05 -0.15 -1.1 -0.25 -1.1 Q-0.25 -1.05 -0.3 -1.05 L-0.35 -1.05 -0.4 -1.05 -0.35 -1.1 -0.3 -1.15 Q-0.2 -1.2 -0.2 -1.25 L-0.15 -1.3" fill="#743027" fill-rule="evenodd" stroke="none"/>
    <path d="M0.9 -1.45 L0.9 -1.4 0.95 -1.35 0.9 -1.3 0.9 -1.35 0.85 -1.35 0.75 -1.35 0.7 -1.4 0.7 -1.35 0.85 -1.2 0.8 -1.15 0.7 -1.15 0.6 -1.15 0.55 -1.05 0.55 -0.95 0.5 -0.85 0.4 -1.0 0.25 -1.0 0.2 -0.95 0.3 -1.05 0.35 -1.1 0.3 -1.15 0.3 -1.15 0.4 -1.15 Q0.35 -1.2 0.35 -1.25 L0.4 -1.3 0.5 -1.25 0.5 -1.35 0.45 -1.35 Q0.35 -1.4 0.35 -1.3 L0.35 -1.25 0.3 -1.25 0.25 -1.3 0.2 -1.35 0.2 -1.25 0.15 -1.25 0.1 -1.25 0.0 -1.3 0.0 -1.3 0.05 -1.35 0.05 -1.4 0.1 -1.4 0.15 -1.5 0.15 -1.55 Q0.2 -1.6 0.25 -1.6 0.3 -1.55 0.3 -1.55 L0.4 -1.6 0.35 -1.55 0.35 -1.45 0.4 -1.5 0.5 -1.5 0.5 -1.55 0.55 -1.65 0.55 -1.75 0.55 -1.75 0.6 -1.75 0.6 -1.7 0.7 -1.7 0.75 -1.7 Q0.75 -1.6 0.8 -1.6 L0.85 -1.6 0.9 -1.6 0.9 -1.5 0.85 -1.5 0.8 -1.55 0.8 -1.5 0.75 -1.5 0.7 -1.5 0.7 -1.55 0.65 -1.6 0.65 -1.55 0.6 -1.5 Q0.6 -1.5 0.55 -1.5 L0.55 -1.45 0.7 -1.45 0.8 -1.4 0.9 -1.45 M0.2 -1.35 L0.25 -1.4 0.3 -1.5 0.3 -1.55 0.25 -1.55 0.2 -1.55 0.15 -1.35 0.2 -1.35 M0.55 -1.65 L0.55 -1.65 M0.5 -1.35 Q0.55 -1.3 0.6 -1.3 L0.55 -1.4 0.45 -1.4 0.5 -1.35" fill="#3c1b10" fill-rule="evenodd" stroke="none"/>
    <path d="M-0.5 -1.3 L-0.5 -1.3 -0.55 -1.15 -0.6 -1.15 -0.6 -1.2 -0.5 -1.3" fill="#d03115" fill-rule="evenodd" stroke="none"/>
    <path d="M-1.25 -2.2 L-1.2 -2.2 -1.25 -2.15 -1.25 -2.1 -1.35 -2.0 -1.35 -1.85 -1.4 -1.9 Q-1.35 -2.05 -1.25 -2.2" fill="#c63b2d" fill-rule="evenodd" stroke="none"/>
    <path d="M-1.5 -2.2 L-1.3 -2.2 -1.4 -2.0 -1.4 -1.8 -1.55 -1.8 -1.5 -2.2 M-1.55 -1.8 L-1.55 -1.8" fill="#722f2d" fill-rule="evenodd" stroke="none"/>
    <path d="M-1.25 -1.85 L-1.35 -1.85 -1.35 -2.0 -1.25 -2.1 -1.3 -2.0 -1.3 -1.95 -1.25 -1.95 Q-1.3 -1.95 -1.25 -1.85" fill="#e93d2c" fill-rule="evenodd" stroke="none"/>
    <path d="M-1.4 -1.9 L-1.35 -1.85 -1.25 -1.85 -1.3 -1.8 -1.35 -1.75 -1.4 -1.8 -1.4 -1.9" fill="#af3324" fill-rule="evenodd" stroke="none"/>
    <path d="M-1.35 -1.75 L-1.3 -1.8 -1.25 -1.85 Q-1.3 -1.95 -1.25 -1.95 L-1.2 -1.9 -1.2 -1.9 -1.15 -1.85 -1.15 -1.75 -1.05 -1.7 -1.1 -1.65 -1.15 -1.65 -1.2 -1.7 Q-1.15 -1.75 -1.25 -1.8 -1.2 -1.75 -1.25 -1.65 L-1.25 -1.65 -1.3 -1.65 -1.35 -1.75" fill="#832517" fill-rule="evenodd" stroke="none"/>
    <path d="M-1.15 -1.85 L-1.1 -1.9 -1.05 -1.9 Q-1.05 -1.85 -1.05 -1.8 L-1.05 -1.7 -1.05 -1.7 -1.15 -1.75 -1.15 -1.85" fill="#521f16" fill-rule="evenodd" stroke="none"/>
    <path d="M-1.05 -1.95 L-1.05 -1.9 -1.1 -1.95 -1.15 -1.9 -1.1 -1.95 -1.05 -1.95" fill="#cd4032" fill-rule="evenodd" stroke="none"/>
    <path d="M-1.3 -2.2 L-1.25 -2.2 Q-1.35 -2.05 -1.4 -1.9 L-1.4 -1.8 -1.4 -2.0 -1.3 -2.2 M-1.4 -1.75 L-1.4 -1.8 -1.4 -1.75" fill="#95342c" fill-rule="evenodd" stroke="none"/>
    <path d="M-1.55 -2.2 L-1.5 -2.2 -1.5 -2.15 -1.55 -2.1 -1.55 -2.2" fill="#d03c2e" fill-rule="evenodd" stroke="none"/>
    <path d="M-1.7 -2.2 L-1.55 -2.2 -1.55 -2.1 -1.55 -2.0 Q-1.6 -1.9 -1.75 -1.9 -1.8 -1.95 -1.75 -2.05 L-1.7 -2.2" fill="#f1402f" fill-rule="evenodd" stroke="none"/>
    <path d="M-1.75 -2.2 L-1.7 -2.2 -1.75 -2.05 Q-1.8 -1.95 -1.75 -1.9 -1.6 -1.9 -1.55 -2.0 L-1.55 -1.8 -1.6 -1.8 -1.7 -1.75 -1.8 -1.75 -1.8 -1.9 -1.8 -2.05 -1.75 -2.2 M-1.55 -1.8 L-1.55 -1.8" fill="#d13d2f" fill-rule="evenodd" stroke="none"/>
    <path d="M-1.8 -2.2 L-1.75 -2.2 -1.8 -2.05 -1.8 -1.9 -1.8 -1.7 -1.75 -1.7 -1.65 -1.7 -1.7 -1.6 -1.8 -1.6 -1.85 -1.7 -1.85 -1.8 -1.8 -2.2" fill="#8e362f" fill-rule="evenodd" stroke="none"/>
    <path d="M-1.5 -2.2 L-1.5 -2.2 -1.55 -1.8 -1.55 -2.0 -1.55 -2.1 -1.5 -2.15 -1.5 -2.2" fill="#9e362e" fill-rule="evenodd" stroke="none"/>
    <path d="M-1.6 -1.8 L-1.55 -1.8 -1.55 -1.7 -1.65 -1.75 -1.6 -1.8" fill="#70251a" fill-rule="evenodd" stroke="none"/>
    <path d="M-1.8 -1.55 L-1.75 -1.55 -1.7 -1.6 -1.7 -1.6 Q-1.65 -1.6 -1.65 -1.65 L-1.65 -1.7 -1.65 -1.75 -1.55 -1.7 -1.55 -1.8 -1.4 -1.8 -1.4 -1.75 -1.45 -1.7 -1.5 -1.6 -1.55 -1.6 -1.6 -1.55 -1.7 -1.5 -1.8 -1.55" fill="#481d17" fill-rule="evenodd" stroke="none"/>
    <path d="M-1.7 -1.6 L-1.65 -1.7 -1.65 -1.65 Q-1.65 -1.6 -1.7 -1.6 M-1.65 -1.7 L-1.65 -1.7" fill="#6f2a23" fill-rule="evenodd" stroke="none"/>
    <path d="M-1.8 -1.9 L-1.8 -1.75 -1.7 -1.75 -1.6 -1.8 -1.65 -1.7 -1.65 -1.7 -1.75 -1.7 -1.8 -1.7 -1.8 -1.9" fill="#af3a2f" fill-rule="evenodd" stroke="none"/>
    <path d="M-1.85 -1.35 L-1.85 -1.35 -1.9 -1.4 -1.85 -1.45 -1.85 -1.45 -1.8 -1.5 -1.8 -1.55 -1.7 -1.5 -1.6 -1.55 -1.6 -1.5 -1.7 -1.45 -1.75 -1.4 -1.8 -1.3 -1.85 -1.35" fill="#5d2016" fill-rule="evenodd" stroke="none"/>
    <path d="M-1.5 -0.75 L-1.5 -0.85 -1.55 -0.9 -1.55 -1.1 -1.6 -1.1 -1.65 -1.1 -1.65 -1.0 Q-1.7 -1.0 -1.7 -1.0 -1.7 -1.1 -1.8 -1.25 L-1.9 -1.2 -1.85 -1.25 -1.8 -1.25 -1.8 -1.25 -1.75 -1.15 -1.65 -1.15 -1.65 -1.15 -1.6 -1.2 -1.55 -1.2 -1.5 -1.15 -1.5 -1.3 -1.45 -1.3 -1.4 -1.25 -1.4 -1.1 Q-1.4 -1.1 -1.35 -1.05 -1.3 -1.0 -1.3 -1.05 L-1.1 -1.05 Q-1.0 -1.05 -1.05 -0.95 L-1.05 -0.95 -1.1 -1.0 -1.25 -1.0 -1.35 -0.95 -1.3 -0.85 -1.25 -0.8 -1.25 -0.8 -1.35 -0.7 -1.4 -0.75 Q-1.45 -0.8 -1.45 -0.75 L-1.5 -0.75 M-1.45 -0.95 L-1.45 -1.0 -1.55 -1.05 -1.55 -0.95 Q-1.5 -0.9 -1.5 -0.9 L-1.45 -0.95" fill="#4f1909" fill-rule="evenodd" stroke="none"/>
    <path d="M-1.8 -1.25 L-1.85 -1.25 -1.85 -1.35 -1.8 -1.3 -1.75 -1.4 -1.7 -1.45 Q-1.65 -1.4 -1.7 -1.4 L-1.7 -1.4 -1.8 -1.3 -1.75 -1.2 -1.75 -1.25 -1.8 -1.25 -1.8 -1.25" fill="#932313" fill-rule="evenodd" stroke="none"/>
    <path d="M-1.7 -1.4 Q-1.65 -1.4 -1.7 -1.45 L-1.6 -1.5 -1.6 -1.4 Q-1.55 -1.4 -1.55 -1.45 -1.5 -1.5 -1.5 -1.55 L-1.5 -1.55 -1.45 -1.5 -1.4 -1.5 -1.4 -1.5 -1.45 -1.45 -1.5 -1.45 -1.5 -1.4 -1.55 -1.4 -1.55 -1.35 -1.5 -1.3 -1.55 -1.3 -1.55 -1.25 -1.6 -1.3 Q-1.6 -1.3 -1.65 -1.35 L-1.7 -1.4" fill="#ce2613" fill-rule="evenodd" stroke="none"/>
    <path d="M-1.6 -1.55 L-1.5 -1.55 Q-1.5 -1.5 -1.55 -1.45 -1.55 -1.4 -1.6 -1.4 L-1.6 -1.5 -1.6 -1.55" fill="#982717" fill-rule="evenodd" stroke="none"/>
    <path d="M-1.5 -1.55 L-1.6 -1.55 -1.55 -1.6 -1.5 -1.6 -1.45 -1.7 -1.4 -1.75 -1.4 -1.65 Q-1.4 -1.65 -1.35 -1.65 L-1.4 -1.6 Q-1.5 -1.6 -1.5 -1.55 L-1.5 -1.55 M-1.4 -1.6 L-1.4 -1.6" fill="#76281f" fill-rule="evenodd" stroke="none"/>
    <path d="M-1.75 -1.2 L-1.8 -1.3 -1.7 -1.4 -1.7 -1.4 -1.65 -1.35 Q-1.6 -1.3 -1.6 -1.3 -1.65 -1.2 -1.75 -1.2" fill="#f92710" fill-rule="evenodd" stroke="none"/>
    <path d="M-1.55 -1.25 L-1.55 -1.3 -1.5 -1.3 -1.5 -1.15 -1.55 -1.2 -1.6 -1.2 -1.6 -1.25 -1.55 -1.25 M-1.4 -1.1 L-1.4 -1.25 -1.45 -1.3 -1.5 -1.3 -1.35 -1.3 -1.35 -1.2 -1.35 -1.15 -1.4 -1.1 M-1.5 -1.3 L-1.5 -1.3" fill="#6b200d" fill-rule="evenodd" stroke="none"/>
    <path d="M-1.55 -1.25 L-1.6 -1.25 -1.6 -1.2 -1.65 -1.15 -1.65 -1.15 -1.75 -1.2 Q-1.65 -1.2 -1.6 -1.3 L-1.55 -1.25" fill="#a8200b" fill-rule="evenodd" stroke="none"/>
    <path d="M-1.5 -1.3 L-1.5 -1.3 -1.55 -1.35 -1.55 -1.4 -1.5 -1.4 -1.5 -1.3 M-1.5 -1.4 L-1.5 -1.4" fill="#f7301a" fill-rule="evenodd" stroke="none"/>
    <path d="M-1.8 -1.25 L-1.75 -1.25 -1.75 -1.2 -1.65 -1.15 -1.75 -1.15 -1.8 -1.25" fill="#7a1e0b" fill-rule="evenodd" stroke="none"/>
    <path d="M-1.1 -1.65 L-1.05 -1.6 -1.05 -1.6 -1.0 -1.55 -1.05 -1.5 -1.1 -1.5 -1.15 -1.45 -1.15 -1.4 -1.15 -1.35 -1.1 -1.25 -1.1 -1.25 -1.05 -1.25 -1.05 -1.15 -1.0 -1.15 -0.95 -1.1 -0.95 -1.05 -0.9 -0.95 -0.95 -0.95 -0.95 -1.0 -1.0 -1.05 -1.05 -1.1 -1.1 -1.1 -1.15 -1.15 -1.15 -1.1 -1.3 -1.1 -1.35 -1.2 Q-1.3 -1.2 -1.3 -1.25 L-1.3 -1.3 -1.35 -1.35 -1.45 -1.35 -1.45 -1.4 -1.45 -1.45 -1.4 -1.5 -1.4 -1.5 -1.45 -1.55 -1.35 -1.55 -1.3 -1.5 -1.3 -1.45 -1.25 -1.4 -1.25 -1.45 -1.2 -1.5 -1.25 -1.55 -1.3 -1.6 -1.25 -1.65 -1.2 -1.7 -1.15 -1.65 -1.15 -1.6 -1.1 -1.6 -1.1 -1.65 M-1.25 -1.65 L-1.25 -1.65" fill="#f83215" fill-rule="evenodd" stroke="none"/>
    <path d="M-1.05 -1.7 L-1.05 -1.65 -1.1 -1.65 -1.05 -1.7 -1.05 -1.7 M-1.15 -1.65 L-1.1 -1.65 -1.1 -1.6 -1.15 -1.6 -1.15 -1.65" fill="#b12b18" fill-rule="evenodd" stroke="none"/>
    <path d="M-1.2 -1.7 L-1.25 -1.65 Q-1.2 -1.75 -1.25 -1.8 -1.15 -1.75 -1.2 -1.7" fill="#9d2c1c" fill-rule="evenodd" stroke="none"/>
    <path d="M-1.4 -1.8 L-1.35 -1.75 -1.3 -1.65 -1.35 -1.65 Q-1.4 -1.65 -1.4 -1.65 L-1.4 -1.75 -1.4 -1.8" fill="#cb3827" fill-rule="evenodd" stroke="none"/>
    <path d="M-1.5 -1.55 Q-1.5 -1.6 -1.4 -1.6 L-1.45 -1.55 -1.45 -1.55 -1.4 -1.5 -1.45 -1.5 -1.5 -1.55" fill="#ac2f1f" fill-rule="evenodd" stroke="none"/>
    <path d="M-1.4 -1.6 L-1.4 -1.6 -1.3 -1.6 -1.25 -1.55 -1.2 -1.5 -1.25 -1.45 -1.25 -1.4 -1.3 -1.45 -1.3 -1.5 -1.35 -1.55 -1.45 -1.55 -1.45 -1.55 -1.4 -1.6" fill="#fe4621" fill-rule="evenodd" stroke="none"/>
    <path d="M-1.4 -1.6 L-1.35 -1.65 -1.3 -1.65 -1.25 -1.65 -1.3 -1.6 -1.4 -1.6" fill="#bc2915" fill-rule="evenodd" stroke="none"/>
    <path d="M-1.5 -1.4 L-1.5 -1.45 -1.45 -1.45 -1.45 -1.4 -1.5 -1.4 -1.5 -1.4" fill="#ac2410" fill-rule="evenodd" stroke="none"/>
    <path d="M-1.35 -1.3 L-1.5 -1.3 -1.5 -1.4 -1.45 -1.4 -1.45 -1.35 -1.4 -1.35 -1.35 -1.3" fill="#8c2714" fill-rule="evenodd" stroke="none"/>
    <path d="M-1.35 -1.2 L-1.35 -1.3 -1.4 -1.35 -1.45 -1.35 -1.35 -1.35 -1.3 -1.3 -1.3 -1.25 Q-1.3 -1.2 -1.35 -1.2" fill="#bf2d11" fill-rule="evenodd" stroke="none"/>
    <path d="M-1.05 -1.45 L-1.1 -1.4 -1.15 -1.4 -1.15 -1.45 -1.1 -1.5 -1.05 -1.45" fill="#a42714" fill-rule="evenodd" stroke="none"/>
    <path d="M-1.0 -1.45 L-1.05 -1.45 -1.1 -1.5 -1.05 -1.5 -1.0 -1.45 -1.0 -1.45" fill="#cb2c14" fill-rule="evenodd" stroke="none"/>
    <path d="M-1.1 -1.25 L-1.0 -1.25 -1.05 -1.25 -1.05 -1.25 -1.1 -1.25 -1.1 -1.25" fill="#bb2a14" fill-rule="evenodd" stroke="none"/>
    <path d="M-1.4 -1.1 L-1.35 -1.15 -1.35 -1.2 -1.3 -1.1 -1.25 -1.1 -1.15 -1.1 -1.15 -1.15 -1.1 -1.1 -1.05 -1.1 -1.0 -1.0 -0.95 -1.0 -0.95 -0.95 -1.0 -0.95 -1.05 -0.95 Q-1.0 -1.05 -1.1 -1.05 L-1.3 -1.05 Q-1.3 -1.0 -1.35 -1.05 -1.4 -1.1 -1.4 -1.1 M-0.95 -0.9 Q-1.0 -0.9 -0.95 -0.95 L-0.95 -0.9" fill="#89200c" fill-rule="evenodd" stroke="none"/>
    <path d="M-1.05 -0.95 L-1.0 -0.95 -1.05 -0.9 -1.05 -0.85 -0.95 -0.8 -0.9 -0.8 -0.9 -0.75 -0.9 -0.7 -0.85 -0.65 -0.9 -0.6 -1.0 -0.6 -1.05 -0.65 -1.15 -0.65 -1.2 -0.6 -1.25 -0.65 -1.25 -0.7 -1.2 -0.7 -1.25 -0.8 Q-1.2 -0.8 -1.2 -0.75 L-1.2 -0.65 Q-1.15 -0.7 -1.15 -0.8 L-1.1 -0.95 -1.1 -1.0 -1.05 -0.95 -1.05 -0.95 M-1.25 -0.8 L-1.25 -0.8 M-1.25 -0.65 L-1.25 -0.65 -1.25 -0.65" fill="#431c10" fill-rule="evenodd" stroke="none"/>
    <path d="M-1.1 -1.0 L-1.1 -0.95 -1.15 -0.8 Q-1.15 -0.7 -1.2 -0.65 L-1.2 -0.75 Q-1.2 -0.8 -1.25 -0.8 L-1.3 -0.85 -1.35 -0.95 -1.25 -1.0 -1.1 -1.0" fill="#2f1309" fill-rule="evenodd" stroke="none"/>
    <path d="M-1.3 -1.1 L-1.15 -1.1 -1.25 -1.1 -1.3 -1.1" fill="#c2230c" fill-rule="evenodd" stroke="none"/>
    <path d="M-1.45 -0.95 L-1.5 -0.9 Q-1.5 -0.9 -1.55 -0.95 L-1.55 -1.05 -1.45 -1.0 -1.45 -0.95" fill="#631a08" fill-rule="evenodd" stroke="none"/>
    <path d="M-1.4 -0.7 L-1.45 -0.7 -1.5 -0.75 -1.45 -0.75 Q-1.45 -0.8 -1.4 -0.75 L-1.35 -0.7 -1.4 -0.75 -1.4 -0.7" fill="#621d0b" fill-rule="evenodd" stroke="none"/>
    <path d="M-1.4 -0.6 L-1.4 -0.7 -1.4 -0.75 -1.35 -0.7 -1.3 -0.65 -1.25 -0.65 -1.25 -0.65 -1.3 -0.6 -1.35 -0.55 -1.4 -0.6" fill="#7d200c" fill-rule="evenodd" stroke="none"/>
    <path d="M-1.25 -0.8 L-1.2 -0.7 -1.25 -0.7 -1.25 -0.65 -1.3 -0.65 -1.35 -0.7 -1.25 -0.8" fill="#652010" fill-rule="evenodd" stroke="none"/>
    <path d="M-1.0 -0.95 L-0.95 -0.95 Q-1.0 -0.9 -0.95 -0.9 L-0.9 -0.85 -0.9 -0.8 -0.95 -0.8 -1.05 -0.85 -1.05 -0.9 -1.0 -0.95" fill="#61271b" fill-rule="evenodd" stroke="none"/>
    <path d="M-1.25 -0.65 L-1.2 -0.6 -1.2 -0.55 -1.15 -0.5 Q-1.15 -0.45 -1.1 -0.5 L-1.05 -0.5 Q-1.0 -0.45 -1.0 -0.45 L-0.95 -0.3 -1.0 -0.3 -1.05 -0.3 -1.1 -0.35 -1.1 -0.4 -1.25 -0.45 -1.35 -0.55 -1.3 -0.6 -1.25 -0.55 -1.25 -0.65" fill="#561908" fill-rule="evenodd" stroke="none"/>
    <path d="M-1.25 -0.65 L-1.25 -0.65 -1.25 -0.65 -1.25 -0.55 -1.3 -0.6 -1.25 -0.65" fill="#c12e14" fill-rule="evenodd" stroke="none"/>
    <path d="M-1.2 -0.6 L-1.15 -0.65 -1.05 -0.65 -1.0 -0.6 -0.9 -0.6 -0.85 -0.65 Q-0.85 -0.6 -0.9 -0.55 L-1.0 -0.55 -1.1 -0.6 -1.2 -0.55 -1.2 -0.6" fill="#6c2712" fill-rule="evenodd" stroke="none"/>
    <path d="M1.15 0.0 L1.15 -0.05 1.15 -0.05 1.2 -0.1 1.2 -0.1 1.25 -0.1 1.3 -0.05 1.2 0.0 1.15 0.0 M-1.65 0.05 L-1.75 0.05 Q-1.75 0.05 -1.8 0.05 L-1.85 0.0 -1.85 -0.1 -1.75 -0.05 -1.65 0.05" fill="#411d0d" fill-rule="evenodd" stroke="none"/>
    <path d="M-1.6 -0.1 L-1.55 -0.05 -1.55 -0.05 -1.6 0.0 -1.65 -0.05 -1.6 -0.05 -1.6 -0.1" fill="#421e0f" fill-rule="evenodd" stroke="none"/>
    <path d="M-1.1 -0.6 L-1.1 -0.5 Q-1.15 -0.45 -1.15 -0.5 L-1.2 -0.55 -1.1 -0.6" fill="#a52d11" fill-rule="evenodd" stroke="none"/>
    <path d="M-1.05 -0.5 L-1.1 -0.5 -1.1 -0.6 -1.0 -0.55 -0.9 -0.55 -0.9 -0.45 -0.85 -0.4 Q-0.85 -0.4 -0.9 -0.4 L-0.95 -0.35 -0.95 -0.3 -0.95 -0.35 -1.0 -0.45 -0.95 -0.45 -0.9 -0.5 -0.95 -0.5 -1.05 -0.5" fill="#8d270d" fill-rule="evenodd" stroke="none"/>
    <path d="M-1.5 -0.15 L-1.45 -0.2 Q-1.3 -0.2 -1.35 -0.1 L-1.4 -0.1 -1.5 -0.1 -1.5 -0.15" fill="#3e1c0e" fill-rule="evenodd" stroke="none"/>
    <path d="M-0.05 -1.05 L-0.05 -1.2 0.0 -1.3 -0.05 -1.2 0.0 -1.1 0.1 -1.15 0.05 -1.1 -0.05 -1.05" fill="#421d13" fill-rule="evenodd" stroke="none"/>
    <path d="M-0.45 -0.95 L-0.45 -0.95 -0.4 -1.0 -0.35 -1.0 -0.25 -0.95 -0.25 -1.0 -0.2 -1.1 -0.1 -1.05 -0.15 -1.0 -0.2 -0.95 -0.25 -0.95 -0.25 -0.9 -0.4 -0.95 -0.45 -0.95" fill="#522415" fill-rule="evenodd" stroke="none"/>
    <path d="M-0.1 -1.05 L-0.05 -1.05 0.05 -1.1 0.1 -1.15 0.0 -1.1 -0.05 -1.2 0.0 -1.3 0.1 -1.25 0.15 -1.25 0.2 -1.25 0.2 -1.35 0.25 -1.3 0.3 -1.25 0.35 -1.25 0.35 -1.3 Q0.35 -1.4 0.45 -1.35 L0.5 -1.35 0.5 -1.25 0.4 -1.3 0.35 -1.25 Q0.35 -1.2 0.4 -1.15 L0.3 -1.15 0.3 -1.15 0.35 -1.1 0.3 -1.05 0.2 -0.95 0.25 -0.9 0.25 -0.75 0.35 -0.75 0.3 -0.8 0.3 -0.85 0.35 -0.85 0.4 -0.85 0.5 -0.85 0.55 -0.85 0.5 -0.8 0.45 -0.75 0.5 -0.75 0.55 -0.7 0.5 -0.7 0.45 -0.75 0.45 -0.6 0.4 -0.6 0.35 -0.6 0.25 -0.6 0.15 -0.6 0.1 -0.6 0.05 -0.6 0.05 -0.65 0.1 -0.65 0.05 -0.7 0.1 -0.8 0.15 -0.85 0.05 -0.9 0.0 -0.9 -0.1 -0.85 -0.05 -0.8 Q-0.1 -0.75 -0.1 -0.8 L-0.1 -0.9 -0.15 -0.85 -0.3 -0.9 -0.25 -0.9 -0.25 -0.95 -0.2 -0.95 -0.15 -1.0 -0.1 -1.05" fill="#30160b" fill-rule="evenodd" stroke="none"/>
    <path d="M-0.4 -1.05 L-0.45 -1.0 -0.5 -1.0 -0.5 -1.05 Q-0.4 -1.05 -0.4 -1.15 -0.35 -1.15 -0.25 -1.2 L-0.2 -1.25 Q-0.2 -1.2 -0.3 -1.15 L-0.35 -1.1 -0.4 -1.05 M-0.5 -1.05 L-0.5 -1.05" fill="#8d3020" fill-rule="evenodd" stroke="none"/>
    <path d="M-0.5 -0.9 Q-0.45 -0.9 -0.45 -0.95 L-0.4 -0.95 -0.4 -0.9 -0.35 -0.85 -0.4 -0.8 -0.45 -0.75 -0.5 -0.85 -0.5 -0.9" fill="#292026" fill-rule="evenodd" stroke="none"/>
    <path d="M-0.4 -0.95 L-0.25 -0.9 -0.3 -0.9 -0.3 -0.85 -0.35 -0.85 -0.3 -0.8 -0.25 -0.8 -0.25 -0.65 -0.3 -0.75 -0.35 -0.75 -0.35 -0.75 -0.4 -0.75 -0.4 -0.8 -0.35 -0.85 -0.4 -0.9 -0.4 -0.95" fill="#272539" fill-rule="evenodd" stroke="none"/>
    <path d="M-0.15 -0.85 L-0.15 -0.8 -0.2 -0.8 -0.25 -0.8 -0.3 -0.8 -0.35 -0.85 -0.3 -0.85 -0.3 -0.9 -0.15 -0.85" fill="#36366a" fill-rule="evenodd" stroke="none"/>
    <path d="M-0.5 -0.95 L-0.5 -0.9 -0.5 -0.85 -0.45 -0.75 -0.4 -0.8 -0.4 -0.75 -0.4 -0.65 -0.45 -0.6 Q-0.45 -0.55 -0.5 -0.55 -0.55 -0.5 -0.55 -0.55 L-0.65 -0.6 -0.6 -0.75 -0.6 -0.9 -0.55 -0.95 -0.55 -0.95 -0.55 -1.0 -0.5 -0.95 M-0.6 -0.9 L-0.6 -0.9" fill="#582513" fill-rule="evenodd" stroke="none"/>
    <path d="M-0.65 -0.6 L-0.55 -0.55 Q-0.55 -0.5 -0.5 -0.55 -0.45 -0.55 -0.45 -0.6 L-0.4 -0.65 -0.4 -0.75 -0.35 -0.7 -0.35 -0.7 -0.35 -0.65 -0.45 -0.5 -0.6 -0.5 -0.6 -0.55 -0.65 -0.6 -0.65 -0.6" fill="#702a15" fill-rule="evenodd" stroke="none"/>
    <path d="M-0.35 -0.75 L-0.35 -0.75 -0.3 -0.75 -0.25 -0.65 -0.35 -0.7 -0.35 -0.75 M-0.35 -0.7 L-0.35 -0.7 -0.35 -0.7 M-0.25 -0.65 L-0.25 -0.65" fill="#323260" fill-rule="evenodd" stroke="none"/>
    <path d="M-0.2 -0.45 L-0.2 -0.45 -0.25 -0.4 -0.3 -0.5 -0.35 -0.6 -0.35 -0.65 -0.35 -0.7 -0.35 -0.7 -0.25 -0.55 -0.2 -0.45" fill="#a12d26" fill-rule="evenodd" stroke="none"/>
    <path d="M-0.15 -0.85 L-0.1 -0.9 -0.1 -0.8 Q-0.1 -0.75 -0.05 -0.8 L-0.1 -0.85 0.0 -0.9 0.05 -0.9 0.15 -0.85 0.1 -0.8 0.05 -0.7 0.1 -0.65 0.05 -0.65 Q0.0 -0.7 -0.1 -0.75 L-0.15 -0.8 -0.15 -0.85" fill="#3e1d0f" fill-rule="evenodd" stroke="none"/>
    <path d="M-0.15 -0.8 L-0.1 -0.75 -0.15 -0.75 -0.15 -0.6 -0.05 -0.55 0.0 -0.55 0.05 -0.6 0.1 -0.6 0.05 -0.55 Q0.0 -0.5 0.0 -0.45 -0.05 -0.5 -0.1 -0.55 L-0.2 -0.65 -0.25 -0.65 -0.25 -0.8 -0.2 -0.8 -0.15 -0.8 M-0.25 -0.65 L-0.25 -0.65" fill="#1b2c31" fill-rule="evenodd" stroke="none"/>
    <path d="M-0.1 -0.75 Q0.0 -0.7 0.05 -0.65 L0.05 -0.6 0.0 -0.55 -0.05 -0.55 -0.15 -0.6 -0.15 -0.75 -0.1 -0.75" fill="#243d43" fill-rule="evenodd" stroke="none"/>
    <path d="M-0.35 -0.7 L-0.25 -0.65 -0.2 -0.65 -0.25 -0.55 -0.35 -0.7" fill="#612213" fill-rule="evenodd" stroke="none"/>
    <path d="M-0.7 -1.25 L-0.6 -1.2 -0.6 -1.15 -0.7 -1.15 -0.75 -1.05 Q-0.75 -1.0 -0.8 -1.0 L-0.85 -1.0 -0.9 -0.95 -0.9 -0.95 -0.95 -1.05 -0.95 -1.1 -0.9 -1.15 -0.85 -1.2 -0.8 -1.15 -0.75 -1.15 -0.75 -1.2 -0.7 -1.25" fill="#fe370d" fill-rule="evenodd" stroke="none"/>
    <path d="M-0.6 -1.15 L-0.55 -1.15 -0.6 -1.1 -0.55 -1.0 -0.65 -1.0 -0.7 -0.95 -0.75 -0.9 -0.8 -0.95 -0.8 -0.9 -0.85 -0.85 -0.9 -0.9 -0.9 -0.95 -0.85 -1.0 -0.8 -1.0 Q-0.75 -1.0 -0.75 -1.05 L-0.7 -1.15 -0.6 -1.15 M-0.55 -1.0 L-0.55 -1.0 -0.55 -1.0" fill="#fe4615" fill-rule="evenodd" stroke="none"/>
    <path d="M-0.85 -0.85 L-0.8 -0.9 -0.8 -0.95 -0.75 -0.9 -0.7 -0.95 -0.65 -1.0 -0.55 -1.0 -0.6 -0.95 -0.65 -0.95 -0.65 -0.85 -0.75 -0.85 -0.8 -0.85 -0.85 -0.85 -0.85 -0.85" fill="#f43712" fill-rule="evenodd" stroke="none"/>
    <path d="M-0.5 -1.0 L-0.5 -0.95 -0.55 -1.0 -0.55 -1.0 -0.5 -1.05 -0.5 -1.0" fill="#b72f27" fill-rule="evenodd" stroke="none"/>
    <path d="M-0.55 -1.0 L-0.6 -1.1 -0.55 -1.15 -0.5 -1.05 -0.55 -1.0" fill="#ffc51c" fill-rule="evenodd" stroke="none"/>
    <path d="M-0.55 -1.0 L-0.55 -1.0 -0.55 -0.95 -0.55 -0.95 -0.6 -0.9 -0.65 -0.95 -0.6 -0.95 -0.55 -1.0" fill="#8a2a15" fill-rule="evenodd" stroke="none"/>
    <path d="M-1.05 -1.1 L-1.0 -1.05 -0.95 -1.0 -1.0 -1.0 -1.05 -1.1" fill="#bb250d" fill-rule="evenodd" stroke="none"/>
    <path d="M-0.95 -0.95 L-0.9 -0.95 -0.9 -0.9 -0.85 -0.85 -0.85 -0.85 -0.85 -0.8 -0.9 -0.85 -0.95 -0.9 -0.95 -0.95 M-0.9 -0.95 L-0.9 -0.95" fill="#c0341a" fill-rule="evenodd" stroke="none"/>
    <path d="M-0.85 -0.85 L-0.8 -0.85 -0.85 -0.8 -0.85 -0.85 M-0.65 -0.85 L-0.65 -0.7 -0.75 -0.75 -0.8 -0.85 -0.65 -0.85" fill="#a33113" fill-rule="evenodd" stroke="none"/>
    <path d="M-0.9 -0.75 L-0.9 -0.8 -0.9 -0.85 -0.95 -0.9 -0.9 -0.85 -0.85 -0.8 -0.8 -0.85 -0.75 -0.75 -0.65 -0.7 -0.65 -0.85 -0.6 -0.9 -0.6 -0.75 -0.65 -0.6 -0.65 -0.6 -0.8 -0.6 -0.85 -0.55 -0.9 -0.55 Q-0.85 -0.6 -0.85 -0.65 L-0.8 -0.65 -0.8 -0.7 -0.85 -0.75 -0.9 -0.75" fill="#8f2c10" fill-rule="evenodd" stroke="none"/>
    <path d="M-0.85 -0.65 L-0.9 -0.7 -0.9 -0.75 -0.85 -0.75 -0.8 -0.7 -0.8 -0.65 -0.85 -0.65" fill="#72250c" fill-rule="evenodd" stroke="none"/>
    <path d="M-0.6 -0.9 L-0.6 -0.9 -0.65 -0.85 -0.65 -0.95 -0.6 -0.9 M-0.65 -0.85 L-0.65 -0.85" fill="#b03317" fill-rule="evenodd" stroke="none"/>
    <path d="M-0.8 -0.85 L-0.75 -0.85 -0.65 -0.85 -0.8 -0.85 M-0.65 -0.85 L-0.65 -0.85" fill="#c63310" fill-rule="evenodd" stroke="none"/>
    <path d="M-0.65 -0.6 L-0.6 -0.55 -0.6 -0.5 -0.55 -0.5 -0.55 -0.45 -0.6 -0.45 Q-0.6 -0.5 -0.65 -0.55 L-0.85 -0.55 -0.8 -0.6 -0.65 -0.6" fill="#b63213" fill-rule="evenodd" stroke="none"/>
    <path d="M-0.35 -0.65 L-0.35 -0.6 -0.35 -0.5 -0.3 -0.45 -0.35 -0.45 -0.5 -0.4 -0.55 -0.45 -0.55 -0.5 -0.6 -0.5 -0.45 -0.5 -0.35 -0.65 M-0.6 -0.45 L-0.55 -0.45 -0.6 -0.45" fill="#7f2e17" fill-rule="evenodd" stroke="none"/>
    <path d="M-0.65 -0.4 L-0.7 -0.3 -0.75 -0.3 -0.8 -0.35 -0.75 -0.35 -0.65 -0.4 M-0.7 -0.3 L-0.7 -0.3" fill="#ca2d0e" fill-rule="evenodd" stroke="none"/>
    <path d="M-0.9 -0.4 Q-0.85 -0.4 -0.85 -0.4 L-0.85 -0.55 -0.65 -0.55 Q-0.6 -0.5 -0.6 -0.45 L-0.65 -0.4 -0.75 -0.35 -0.8 -0.35 -0.85 -0.3 Q-0.85 -0.3 -0.9 -0.35 L-0.9 -0.4" fill="#f8330f" fill-rule="evenodd" stroke="none"/>
    <path d="M-0.55 -0.45 L-0.6 -0.45 -0.6 -0.35 -0.65 -0.35 -0.7 -0.3 -0.65 -0.4 -0.6 -0.45 -0.55 -0.45" fill="#9a2c10" fill-rule="evenodd" stroke="none"/>
    <path d="M-0.6 -0.45 L-0.55 -0.45 Q-0.55 -0.4 -0.55 -0.35 -0.55 -0.3 -0.6 -0.3 L-0.65 -0.3 -0.75 -0.25 -0.7 -0.3 -0.7 -0.3 -0.65 -0.35 -0.6 -0.35 -0.6 -0.45" fill="#6e260f" fill-rule="evenodd" stroke="none"/>
    <path d="M-0.2 -0.35 L-0.2 -0.35 -0.4 -0.3 -0.55 -0.2 -0.75 -0.2 -0.95 -0.3 -0.9 -0.3 -0.85 -0.25 -0.75 -0.25 -0.65 -0.3 -0.6 -0.3 Q-0.55 -0.3 -0.55 -0.35 -0.55 -0.4 -0.55 -0.45 L-0.5 -0.4 -0.4 -0.35 -0.3 -0.35 -0.3 -0.4 -0.35 -0.4 -0.35 -0.45 -0.3 -0.45 -0.35 -0.5 -0.35 -0.6 -0.3 -0.5 -0.25 -0.4 -0.2 -0.35" fill="#502110" fill-rule="evenodd" stroke="none"/>
    <path d="M-0.85 -0.4 L-0.9 -0.45 -0.9 -0.55 -0.85 -0.55 -0.85 -0.4" fill="#bd2a0c" fill-rule="evenodd" stroke="none"/>
    <path d="M-1.05 -0.5 L-0.95 -0.5 -0.9 -0.5 -0.95 -0.45 -1.0 -0.45 -0.95 -0.35 -0.95 -0.3 -1.0 -0.45 Q-1.0 -0.45 -1.05 -0.5 M-0.9 -0.3 L-0.95 -0.3 -0.95 -0.3 -0.9 -0.3 -0.9 -0.3" fill="#72200a" fill-rule="evenodd" stroke="none"/>
    <path d="M-0.95 -0.3 L-0.95 -0.35 -0.9 -0.4 -0.9 -0.35 Q-0.85 -0.3 -0.85 -0.3 L-0.9 -0.3 -0.95 -0.3" fill="#c02f0e" fill-rule="evenodd" stroke="none"/>
    <path d="M-0.8 -0.35 L-0.75 -0.3 -0.7 -0.3 -0.75 -0.25 -0.85 -0.25 -0.9 -0.3 -0.85 -0.3 -0.8 -0.35 M-0.9 -0.3 L-0.9 -0.3" fill="#982b0e" fill-rule="evenodd" stroke="none"/>
    <path d="M0.3 -0.45 L0.5 -0.45 0.5 -0.25 0.45 -0.25 0.35 -0.25 0.35 -0.2 0.25 -0.15 0.3 -0.05 0.4 0.0 0.35 0.05 0.35 0.1 0.5 0.1 0.5 0.2 0.55 0.3 0.55 0.6 0.45 0.6 0.45 0.65 0.4 0.7 0.3 0.7 0.2 0.7 0.15 0.7 0.1 0.7 0.05 0.65 0.0 0.65 -0.05 0.65 -0.05 0.65 -0.1 0.6 -0.05 0.6 0.05 0.6 0.1 0.55 0.2 0.5 0.2 0.45 0.25 0.4 0.05 0.4 0.05 0.45 0.0 0.45 Q0.0 0.35 -0.15 0.3 L-0.3 0.35 Q-0.35 0.4 -0.35 0.45 L-0.3 0.45 -0.25 0.45 -0.2 0.45 -0.25 0.5 -0.25 0.55 -0.5 0.6 -0.55 0.55 -0.55 0.5 -0.5 0.5 -0.45 0.5 Q-0.45 0.45 -0.5 0.45 L-0.55 0.45 -0.6 0.5 -0.7 0.55 -0.75 0.6 -0.85 0.55 -0.8 0.5 Q-0.75 0.45 -0.8 0.4 L-0.8 0.35 -0.65 0.3 -0.55 0.3 -0.45 0.35 -0.45 0.3 -0.35 0.25 -0.35 0.2 Q-0.4 0.15 -0.45 0.2 L-0.5 0.25 -0.55 0.2 -0.55 0.2 -0.65 0.15 -0.7 0.1 -0.65 0.1 -0.65 0.1 -0.5 0.1 -0.4 0.05 -0.35 -0.05 -0.55 -0.05 -0.6 -0.1 -0.6 -0.15 -0.55 -0.2 -0.5 -0.2 -0.45 -0.2 Q-0.4 -0.2 -0.4 -0.25 L-0.35 -0.25 -0.3 -0.25 -0.2 -0.35 -0.15 -0.2 -0.25 -0.2 -0.25 -0.2 -0.2 -0.1 -0.15 -0.05 -0.15 -0.1 -0.1 -0.15 -0.05 0.0 -0.1 0.0 Q-0.15 0.0 -0.15 0.05 L-0.2 0.1 -0.25 0.1 -0.3 0.1 -0.25 0.0 Q-0.35 0.05 -0.35 0.1 L-0.35 0.15 -0.25 0.2 -0.2 0.2 -0.15 0.15 Q-0.1 0.2 0.0 0.2 L0.15 0.2 0.25 0.2 0.3 0.25 0.4 0.25 0.4 0.3 0.5 0.3 0.5 0.2 0.4 0.15 0.35 0.2 0.25 0.1 0.05 0.1 0.0 0.0 -0.05 -0.15 0.0 -0.15 0.0 -0.1 0.05 -0.1 0.1 -0.15 0.15 -0.15 0.2 -0.15 0.25 -0.2 0.3 -0.25 0.3 -0.3 0.4 -0.3 0.45 -0.25 0.45 -0.3 0.4 -0.4 0.3 -0.45 M-0.2 -0.35 L-0.2 -0.35 M-0.05 0.65 L-0.05 0.65" fill="#261207" fill-rule="evenodd" stroke="none"/>
    <path d="M-0.2 -0.35 L-0.3 -0.25 -0.35 -0.25 -0.4 -0.25 Q-0.4 -0.2 -0.45 -0.2 L-0.5 -0.2 -0.55 -0.2 -0.4 -0.3 -0.2 -0.35" fill="#3a1a0c" fill-rule="evenodd" stroke="none"/>
    <path d="M1.5 -0.1 L1.6 -0.1 1.75 -0.1 1.7 -0.05 1.65 -0.05 1.65 0.05 1.6 0.05 1.55 0.0 1.5 0.0 1.5 -0.1 M-0.65 -0.05 Q-0.6 -0.1 -0.6 -0.05 L-0.65 0.0 -0.65 0.05 -0.7 0.05 -0.75 0.1 -0.85 0.1 -0.95 0.15 -1.05 0.15 Q-1.05 0.1 -1.1 0.1 L-1.05 0.05 -1.0 0.05 -0.95 0.05 -0.95 0.0 -0.9 0.05 -0.8 0.05 -0.8 -0.05 -0.7 -0.05 -0.65 -0.05" fill="#3d1c0c" fill-rule="evenodd" stroke="none"/>
    <path d="M0.0 -0.45 L0.15 -0.45 0.15 -0.4 0.05 -0.4 -0.05 -0.4 -0.1 -0.45 -0.15 -0.5 -0.2 -0.5 -0.2 -0.45 -0.25 -0.55 -0.2 -0.65 -0.1 -0.55 Q-0.05 -0.5 0.0 -0.45 M0.15 -0.45 L0.15 -0.45" fill="#2d1409" fill-rule="evenodd" stroke="none"/>
    <path d="M0.15 -0.4 L0.15 -0.35 0.1 -0.3 Q0.05 -0.3 0.05 -0.35 L-0.05 -0.35 -0.1 -0.3 -0.15 -0.35 -0.2 -0.35 -0.2 -0.45 -0.2 -0.5 -0.15 -0.5 -0.1 -0.45 -0.05 -0.4 0.05 -0.4 0.15 -0.4 M-0.2 -0.45 L-0.2 -0.45" fill="#421d0d" fill-rule="evenodd" stroke="none"/>
    <path d="M-0.2 -0.35 L-0.1 -0.2 -0.05 -0.15 0.0 0.0 0.05 0.1 0.05 0.15 0.0 0.1 -0.05 0.0 -0.1 -0.15 -0.15 -0.2 -0.2 -0.35 -0.25 -0.4 -0.2 -0.45 -0.2 -0.35" fill="#6f2626" fill-rule="evenodd" stroke="none"/>
    <path d="M0.4 -0.4 L0.45 -0.3 0.45 -0.25 0.4 -0.3 0.3 -0.3 0.3 -0.25 0.25 -0.2 0.2 -0.15 0.15 -0.25 0.1 -0.25 0.05 -0.25 -0.1 -0.2 -0.2 -0.35 -0.15 -0.35 -0.1 -0.3 -0.05 -0.35 0.05 -0.35 Q0.05 -0.3 0.1 -0.3 L0.15 -0.35 0.15 -0.4 0.25 -0.4 Q0.3 -0.4 0.3 -0.35 0.4 -0.3 0.4 -0.4" fill="#2f1609" fill-rule="evenodd" stroke="none"/>
    <path d="M-0.5 -0.4 L-0.35 -0.45 -0.35 -0.4 -0.3 -0.4 -0.3 -0.35 -0.4 -0.35 -0.5 -0.4" fill="#642913" fill-rule="evenodd" stroke="none"/>
    <path d="M-0.1 -0.2 L0.05 -0.25 Q0.0 -0.15 0.1 -0.15 L0.15 -0.15 0.2 -0.15 0.15 -0.15 0.1 -0.15 0.05 -0.1 0.0 -0.1 0.0 -0.15 -0.05 -0.15 -0.1 -0.2" fill="#3a1a0b" fill-rule="evenodd" stroke="none"/>
    <path d="M1.8 -0.6 L1.7 -0.6 Q1.65 -0.6 1.65 -0.65 L1.75 -0.7 1.75 -0.8 1.85 -0.75 1.9 -0.75 2.05 -0.7 Q2.15 -0.7 2.1 -0.65 L2.0 -0.6 1.95 -0.6 1.95 -0.7 1.85 -0.65 1.8 -0.65 1.8 -0.6 M-0.1 -0.15 L-0.15 -0.1 -0.15 -0.05 -0.2 -0.1 -0.25 -0.2 -0.25 -0.2 -0.15 -0.2 -0.1 -0.15" fill="#3c1b0c" fill-rule="evenodd" stroke="none"/>
    <path d="M1.85 -2.2 L1.9 -2.2 Q1.95 -2.15 2.05 -2.1 L2.05 -2.05 2.0 -2.05 2.05 -2.0 Q2.05 -1.95 1.95 -1.95 L1.85 -2.0 1.85 -2.05 1.9 -2.1 1.85 -2.2" fill="#662f2d" fill-rule="evenodd" stroke="none"/>
    <path d="M1.9 -2.2 L2.2 -2.2 2.2 -2.0 2.1 -2.05 2.1 -1.95 2.2 -1.95 2.2 -1.9 2.05 -1.9 1.9 -1.95 1.85 -1.95 1.8 -1.95 Q1.85 -1.85 1.85 -1.75 L1.8 -1.75 1.8 -1.85 1.75 -1.85 1.75 -2.0 1.75 -2.05 1.85 -2.0 1.95 -1.95 Q2.05 -1.95 2.05 -2.0 L2.0 -2.05 2.05 -2.05 2.05 -2.1 Q1.95 -2.15 1.9 -2.2" fill="#4a221d" fill-rule="evenodd" stroke="none"/>
    <path d="M1.25 -2.2 L1.75 -2.2 1.75 -2.05 1.75 -2.0 1.75 -1.85 1.7 -1.9 1.65 -1.85 1.6 -1.8 1.55 -1.8 1.55 -1.85 1.6 -1.9 1.65 -1.9 1.65 -1.95 1.6 -2.0 1.65 -2.05 1.65 -2.15 1.6 -2.15 1.55 -2.1 1.45 -2.05 1.35 -2.05 1.25 -1.9 1.3 -1.9 1.35 -1.85 1.25 -1.85 1.2 -1.85 1.25 -1.85 1.25 -1.95 1.2 -2.0 1.15 -1.95 1.1 -1.9 1.0 -1.9 1.05 -2.0 1.05 -2.1 1.15 -2.05 Q1.2 -2.05 1.2 -2.1 L1.25 -2.2" fill="#331711" fill-rule="evenodd" stroke="none"/>
    <path d="M1.55 -2.1 L1.6 -2.15 1.65 -2.15 1.65 -2.05 1.6 -2.0 1.65 -1.95 1.65 -1.9 1.6 -1.9 Q1.55 -1.9 1.5 -1.95 L1.55 -1.95 1.55 -2.1" fill="#4b231f" fill-rule="evenodd" stroke="none"/>
    <path d="M1.55 -2.1 L1.55 -1.95 1.5 -1.95 1.45 -1.95 1.4 -2.0 1.35 -2.0 1.35 -1.9 1.25 -1.9 1.35 -2.05 1.45 -2.05 1.55 -2.1" fill="#3f1d18" fill-rule="evenodd" stroke="none"/>
    <path d="M1.6 -1.9 L1.55 -1.85 1.55 -1.8 1.5 -1.75 1.4 -1.75 1.35 -1.7 1.35 -1.75 1.3 -1.7 1.3 -1.7 1.25 -1.7 1.25 -1.75 1.25 -1.85 1.35 -1.85 1.3 -1.9 1.25 -1.9 1.35 -1.9 1.35 -2.0 1.4 -2.0 1.45 -1.95 1.5 -1.95 Q1.55 -1.9 1.6 -1.9 M1.25 -1.7 L1.25 -1.7" fill="#582725" fill-rule="evenodd" stroke="none"/>
    <path d="M2.2 -1.9 L2.2 -1.75 2.1 -1.7 2.0 -1.75 Q2.0 -1.7 2.05 -1.65 L2.1 -1.55 2.15 -1.65 2.2 -1.7 2.2 -1.6 2.15 -1.55 2.15 -1.45 Q2.1 -1.5 2.05 -1.5 L2.0 -1.55 1.95 -1.55 1.9 -1.55 1.85 -1.6 1.85 -1.6 1.8 -1.55 1.75 -1.55 1.7 -1.6 1.65 -1.65 1.7 -1.7 1.6 -1.75 1.6 -1.75 1.55 -1.7 1.45 -1.7 1.4 -1.65 1.35 -1.7 1.4 -1.75 1.5 -1.75 1.55 -1.8 1.6 -1.8 1.65 -1.85 1.7 -1.9 1.75 -1.85 1.8 -1.85 1.8 -1.75 1.85 -1.75 Q1.85 -1.85 1.8 -1.95 L1.85 -1.95 1.9 -1.95 2.05 -1.9 2.2 -1.9 M1.8 -1.55 L1.8 -1.55" fill="#2f150c" fill-rule="evenodd" stroke="none"/>
    <path d="M1.75 -2.2 L1.85 -2.2 1.9 -2.1 1.85 -2.05 1.85 -2.0 1.75 -2.05 1.75 -2.2" fill="#552724" fill-rule="evenodd" stroke="none"/>
    <path d="M1.1 -2.2 L1.25 -2.2 1.2 -2.1 1.15 -2.1 1.05 -2.1 1.1 -2.2" fill="#642d2c" fill-rule="evenodd" stroke="none"/>
    <path d="M1.2 -2.1 Q1.2 -2.05 1.15 -2.05 L1.05 -2.1 1.15 -2.1 1.2 -2.1 M1.05 -2.1 L1.05 -2.1 1.05 -2.1" fill="#4e2320" fill-rule="evenodd" stroke="none"/>
    <path d="M1.05 -2.1 L1.05 -2.0 0.95 -1.95 0.9 -1.9 0.95 -2.0 1.05 -2.1 1.05 -2.1" fill="#612c2a" fill-rule="evenodd" stroke="none"/>
    <path d="M0.4 -2.2 L1.1 -2.2 1.05 -2.1 1.05 -2.1 0.95 -2.0 0.9 -1.9 0.85 -1.9 0.7 -1.85 0.75 -1.85 0.8 -1.8 0.75 -1.7 0.7 -1.7 0.65 -1.75 0.65 -1.85 0.6 -1.9 0.55 -1.95 0.5 -1.95 0.4 -1.95 0.4 -2.0 0.4 -2.0 0.45 -2.05 0.45 -2.1 0.4 -2.2" fill="#733131" fill-rule="evenodd" stroke="none"/>
    <path d="M1.1 -1.9 L1.15 -1.95 1.2 -2.0 1.25 -1.95 1.25 -1.85 1.2 -1.85 1.25 -1.85 1.25 -1.75 1.2 -1.75 1.15 -1.75 1.15 -1.7 1.05 -1.65 0.95 -1.7 0.85 -1.7 0.85 -1.8 0.8 -1.75 0.75 -1.7 0.8 -1.8 0.75 -1.85 0.7 -1.85 0.85 -1.9 Q0.85 -1.85 0.9 -1.8 L1.1 -1.8 1.05 -1.85 Q1.05 -1.9 1.1 -1.9" fill="#652d2a" fill-rule="evenodd" stroke="none"/>
    <path d="M1.05 -2.0 L1.0 -1.9 1.1 -1.9 Q1.05 -1.9 1.05 -1.85 L1.1 -1.8 0.9 -1.8 Q0.85 -1.85 0.85 -1.9 L0.9 -1.9 0.95 -1.95 1.05 -2.0" fill="#3e1c17" fill-rule="evenodd" stroke="none"/>
    <path d="M1.3 -1.7 L1.3 -1.7 1.35 -1.75 1.35 -1.7 1.4 -1.65 1.45 -1.7 1.55 -1.7 1.6 -1.75 1.6 -1.75 1.6 -1.65 1.55 -1.6 1.65 -1.55 1.75 -1.55 1.8 -1.55 1.85 -1.45 1.8 -1.4 1.7 -1.4 1.65 -1.4 1.6 -1.4 1.6 -1.4 Q1.55 -1.4 1.55 -1.4 1.5 -1.4 1.45 -1.45 L1.4 -1.4 1.35 -1.4 1.4 -1.45 1.45 -1.5 1.45 -1.6 1.35 -1.55 Q1.35 -1.55 1.3 -1.55 L1.3 -1.6 1.35 -1.65 Q1.35 -1.7 1.3 -1.7" fill="#3e1c12" fill-rule="evenodd" stroke="none"/>
    <path d="M1.3 -1.7 Q1.35 -1.7 1.35 -1.65 L1.3 -1.6 Q1.25 -1.55 1.3 -1.5 L1.35 -1.4 1.4 -1.4 1.45 -1.45 Q1.5 -1.4 1.55 -1.4 1.55 -1.4 1.6 -1.4 L1.6 -1.4 1.65 -1.4 1.7 -1.4 1.8 -1.4 1.85 -1.45 1.9 -1.35 1.95 -1.25 Q2.0 -1.15 2.1 -1.1 L2.05 -1.05 2.0 -1.05 2.0 -1.1 1.95 -1.15 1.9 -1.1 1.8 -1.1 1.8 -1.0 1.75 -1.05 1.7 -1.1 1.65 -1.1 1.6 -1.05 1.65 -1.15 1.6 -1.15 1.55 -1.1 1.6 -1.2 1.45 -1.3 1.3 -1.3 1.25 -1.35 1.15 -1.4 1.2 -1.4 1.2 -1.45 1.15 -1.45 1.2 -1.5 1.25 -1.55 1.25 -1.6 1.3 -1.65 1.25 -1.7 1.3 -1.7 M1.95 -1.25 L1.9 -1.25 1.85 -1.35 1.75 -1.35 1.75 -1.25 1.85 -1.2 1.85 -1.15 Q1.85 -1.15 1.9 -1.15 L1.9 -1.2 1.95 -1.15 1.95 -1.25 M1.45 -1.3 L1.5 -1.3 1.5 -1.35 1.45 -1.3" fill="#31160c" fill-rule="evenodd" stroke="none"/>
    <path d="M1.35 -1.4 L1.3 -1.5 Q1.25 -1.55 1.3 -1.6 L1.3 -1.55 Q1.35 -1.55 1.35 -1.55 L1.45 -1.6 1.45 -1.5 1.4 -1.45 1.35 -1.4" fill="#552620" fill-rule="evenodd" stroke="none"/>
    <path d="M1.15 -1.7 L1.15 -1.75 1.2 -1.75 1.25 -1.75 1.25 -1.7 1.2 -1.7 1.2 -1.65 1.1 -1.6 1.15 -1.7" fill="#3d1b16" fill-rule="evenodd" stroke="none"/>
    <path d="M1.25 -1.7 L1.3 -1.65 1.25 -1.6 1.25 -1.55 1.2 -1.5 1.15 -1.45 1.2 -1.45 1.2 -1.4 1.15 -1.4 1.1 -1.35 1.0 -1.3 0.95 -1.25 Q0.9 -1.25 0.9 -1.3 L0.95 -1.35 0.9 -1.4 0.9 -1.45 0.95 -1.5 1.0 -1.55 1.05 -1.55 1.1 -1.6 1.2 -1.65 1.2 -1.7 1.25 -1.7 1.25 -1.7 M1.1 -1.6 L1.1 -1.6" fill="#28120a" fill-rule="evenodd" stroke="none"/>
    <path d="M0.75 -1.7 L0.8 -1.75 0.85 -1.8 0.85 -1.7 0.95 -1.7 1.05 -1.65 1.15 -1.7 1.1 -1.6 1.1 -1.6 0.95 -1.6 0.85 -1.65 0.8 -1.7 0.75 -1.7 0.7 -1.7 0.6 -1.7 0.7 -1.7 0.75 -1.7" fill="#59271d" fill-rule="evenodd" stroke="none"/>
    <path d="M1.15 -1.4 L1.25 -1.35 1.3 -1.3 1.45 -1.3 1.6 -1.2 1.55 -1.1 1.5 -1.1 1.4 -1.2 1.3 -1.2 1.3 -1.2 1.25 -1.15 1.25 -1.2 1.2 -1.2 1.2 -1.3 1.1 -1.3 1.0 -1.25 0.9 -1.25 0.85 -1.15 0.8 -1.15 0.85 -1.2 0.7 -1.35 0.7 -1.4 0.75 -1.35 0.85 -1.35 0.9 -1.35 0.9 -1.3 Q0.9 -1.25 0.95 -1.25 L1.0 -1.3 1.1 -1.35 1.15 -1.4" fill="#472013" fill-rule="evenodd" stroke="none"/>
    <path d="M0.85 -1.15 L0.9 -1.25 1.0 -1.25 1.1 -1.3 1.2 -1.3 1.2 -1.2 1.05 -1.15 1.05 -1.1 1.0 -1.05 0.9 -1.05 0.85 -1.15" fill="#5f2a1f" fill-rule="evenodd" stroke="none"/>
    <path d="M1.45 -1.3 L1.5 -1.35 1.5 -1.3 1.45 -1.3" fill="#53251f" fill-rule="evenodd" stroke="none"/>
    <path d="M1.1 -1.6 L1.05 -1.55 1.0 -1.55 0.95 -1.5 0.9 -1.45 0.9 -1.5 0.9 -1.6 0.85 -1.6 0.8 -1.6 Q0.75 -1.6 0.75 -1.7 L0.8 -1.7 0.85 -1.65 0.95 -1.6 1.1 -1.6" fill="#441e13" fill-rule="evenodd" stroke="none"/>
    <path d="M1.8 -1.55 L1.85 -1.6 1.85 -1.6 1.9 -1.55 1.95 -1.55 2.0 -1.55 2.05 -1.5 2.1 -1.45 2.1 -1.4 2.05 -1.4 1.95 -1.35 1.8 -1.55" fill="#4b2211" fill-rule="evenodd" stroke="none"/>
    <path d="M1.6 -1.75 L1.7 -1.7 1.65 -1.65 1.7 -1.6 1.75 -1.55 1.65 -1.55 1.55 -1.6 1.6 -1.65 1.6 -1.75" fill="#492116" fill-rule="evenodd" stroke="none"/>
    <path d="M1.95 -1.25 L1.95 -1.15 1.9 -1.2 1.9 -1.15 Q1.85 -1.15 1.85 -1.15 L1.85 -1.2 1.75 -1.25 1.75 -1.35 1.85 -1.35 1.9 -1.25 1.95 -1.25 1.95 -1.25" fill="#3c1b0f" fill-rule="evenodd" stroke="none"/>
    <path d="M2.2 -1.45 L2.2 0.25 2.15 0.25 2.15 0.15 2.1 0.15 2.0 0.15 1.95 0.15 1.9 0.2 1.85 0.3 1.8 0.3 1.75 0.3 1.7 0.3 1.6 0.25 1.55 0.25 1.5 0.25 1.5 0.2 Q1.55 0.15 1.5 0.1 1.5 0.1 1.5 0.05 L1.5 0.0 1.55 0.0 1.6 0.05 1.65 0.05 1.65 -0.05 1.7 -0.05 1.75 -0.1 1.6 -0.1 1.5 -0.1 1.45 -0.2 1.45 -0.3 1.4 -0.3 1.4 -0.35 1.45 -0.35 1.5 -0.35 1.55 -0.4 1.7 -0.4 1.8 -0.4 1.85 -0.4 1.9 -0.35 2.0 -0.3 2.05 -0.25 2.1 -0.25 2.15 -0.3 2.1 -0.35 2.1 -0.4 2.0 -0.5 1.85 -0.55 1.75 -0.6 1.65 -0.55 1.5 -0.6 1.4 -0.7 1.35 -0.7 1.35 -0.8 1.25 -0.7 1.2 -0.7 Q1.15 -0.7 1.15 -0.65 L1.05 -0.7 Q1.0 -0.7 1.0 -0.75 L0.9 -0.85 0.9 -0.85 0.85 -0.8 0.9 -0.9 0.9 -1.0 0.9 -1.05 1.0 -1.05 1.05 -1.1 1.2 -1.1 1.3 -1.1 1.3 -1.15 1.35 -1.2 1.45 -1.15 1.5 -1.1 1.55 -1.1 1.6 -1.15 1.65 -1.15 1.6 -1.05 1.5 -1.0 1.4 -1.05 1.3 -1.05 1.25 -1.0 1.15 -1.0 1.05 -1.0 Q1.05 -0.95 1.1 -0.95 L1.15 -0.9 1.1 -0.85 1.25 -0.9 1.4 -0.9 1.4 -0.85 1.5 -0.8 1.5 -0.85 1.55 -0.9 1.6 -0.9 1.7 -0.85 1.65 -0.9 1.7 -0.95 1.7 -1.0 1.75 -1.0 Q1.75 -1.0 1.8 -1.0 L1.8 -1.1 1.9 -1.1 1.95 -1.15 2.0 -1.1 2.0 -1.05 2.05 -1.05 2.1 -1.1 Q2.0 -1.15 1.95 -1.25 L1.9 -1.35 1.85 -1.45 1.8 -1.55 1.8 -1.55 1.95 -1.35 2.0 -1.3 2.1 -1.25 Q2.15 -1.3 2.15 -1.35 L2.1 -1.4 2.1 -1.45 2.05 -1.5 Q2.1 -1.5 2.15 -1.45 L2.2 -1.45 M1.95 -1.25 L1.95 -1.25 M1.4 -0.35 L1.4 -0.35 M1.7 -0.95 L1.7 -0.95 M1.95 -0.6 L2.0 -0.6 2.1 -0.65 Q2.15 -0.7 2.05 -0.7 L1.9 -0.75 1.85 -0.75 1.75 -0.8 1.75 -0.7 1.65 -0.65 Q1.65 -0.6 1.7 -0.6 L1.8 -0.6 1.95 -0.6 M1.2 -1.1 L1.2 -1.1" fill="#261108" fill-rule="evenodd" stroke="none"/>
    <path d="M2.1 -1.4 L2.15 -1.35 Q2.15 -1.3 2.1 -1.25 L2.0 -1.3 1.95 -1.35 2.05 -1.4 2.1 -1.4" fill="#3e1c10" fill-rule="evenodd" stroke="none"/>
    <path d="M0.6 -1.75 Q0.55 -1.85 0.6 -1.9 L0.55 -1.85 0.55 -1.85 0.45 -1.9 0.4 -1.9 0.4 -1.95 0.5 -1.95 0.55 -1.95 0.6 -1.9 0.65 -1.85 0.65 -1.75 0.7 -1.7 0.6 -1.7 0.6 -1.75" fill="#692c29" fill-rule="evenodd" stroke="none"/>
    <path d="M0.15 -2.1 L0.2 -2.1 0.25 -2.1 0.25 -2.0 0.2 -2.0 0.1 -2.0 Q0.05 -2.05 0.1 -2.1 L0.15 -2.1 M0.1 -2.1 L0.1 -2.1" fill="#d5402e" fill-rule="evenodd" stroke="none"/>
    <path d="M0.25 -2.0 L0.25 -2.1 0.2 -2.1 0.15 -2.1 0.25 -2.15 0.3 -2.1 0.3 -2.05 0.25 -1.95 0.25 -2.0" fill="#ae3b2e" fill-rule="evenodd" stroke="none"/>
    <path d="M0.15 -2.1 L0.1 -2.1 0.05 -2.1 0.0 -2.1 0.2 -2.15 0.4 -2.1 0.35 -2.05 0.35 -2.0 0.35 -1.95 0.3 -1.9 0.3 -2.05 0.3 -2.1 0.25 -2.15 0.15 -2.1" fill="#92362d" fill-rule="evenodd" stroke="none"/>
    <path d="M0.1 -2.1 Q0.05 -2.05 0.1 -2.0 L0.2 -2.0 0.1 -2.0 0.1 -1.9 0.05 -1.95 0.05 -2.05 0.0 -2.1 0.1 -2.1" fill="#cf391d" fill-rule="evenodd" stroke="none"/>
    <path d="M0.2 -2.0 L0.25 -2.0 0.25 -1.95 0.15 -1.9 0.1 -1.85 0.1 -1.9 0.1 -2.0 0.2 -2.0" fill="#ba361c" fill-rule="evenodd" stroke="none"/>
    <path d="M0.25 -1.95 L0.3 -2.05 0.3 -1.9 0.2 -1.9 0.05 -1.85 0.05 -1.6 Q0.05 -1.55 0.0 -1.6 L-0.05 -1.6 Q0.0 -1.6 0.05 -1.7 L0.05 -1.85 0.1 -1.85 0.15 -1.9 0.25 -1.95" fill="#9a3421" fill-rule="evenodd" stroke="none"/>
    <path d="M0.55 -1.65 L0.5 -1.55 0.5 -1.5 0.4 -1.5 0.35 -1.45 0.35 -1.55 0.4 -1.6 0.3 -1.55 Q0.3 -1.55 0.25 -1.6 L0.4 -1.6 0.45 -1.65 0.45 -1.65 0.55 -1.65" fill="#482014" fill-rule="evenodd" stroke="none"/>
    <path d="M0.0 -1.3 L0.0 -1.45 0.1 -1.45 Q0.15 -1.55 0.1 -1.6 L0.15 -1.6 0.1 -1.65 0.1 -1.65 0.15 -1.7 0.15 -1.75 0.25 -1.7 Q0.3 -1.65 0.35 -1.65 L0.4 -1.75 0.5 -1.7 0.55 -1.65 0.45 -1.65 0.45 -1.65 0.4 -1.6 0.25 -1.6 Q0.2 -1.6 0.15 -1.55 L0.15 -1.5 0.1 -1.4 0.05 -1.4 0.05 -1.35 0.0 -1.3 M0.55 -1.65 L0.55 -1.65" fill="#57261b" fill-rule="evenodd" stroke="none"/>
    <path d="M0.2 -1.35 L0.15 -1.35 0.2 -1.55 0.25 -1.55 0.3 -1.55 0.3 -1.5 0.25 -1.4 0.2 -1.35" fill="#30160c" fill-rule="evenodd" stroke="none"/>
    <path d="M0.9 -1.5 L0.9 -1.45 0.8 -1.4 0.7 -1.45 0.55 -1.45 0.55 -1.5 Q0.6 -1.5 0.6 -1.5 L0.65 -1.55 0.65 -1.6 0.7 -1.55 0.7 -1.5 0.75 -1.5 0.8 -1.5 0.8 -1.55 0.85 -1.5 0.9 -1.5" fill="#4d221a" fill-rule="evenodd" stroke="none"/>
    <path d="M0.5 -1.35 L0.45 -1.4 0.55 -1.4 0.6 -1.3 Q0.55 -1.3 0.5 -1.35" fill="#55241e" fill-rule="evenodd" stroke="none"/>
    <path d="M0.8 -0.9 L0.8 -0.9 0.75 -0.9 0.75 -0.85 0.7 -0.85 0.6 -0.85 Q0.6 -0.9 0.65 -0.95 0.75 -0.9 0.8 -0.95 L0.75 -1.0 0.75 -1.05 0.8 -1.0 0.8 -0.9 M0.65 -0.95 L0.65 -0.95" fill="#e4a5a2" fill-rule="evenodd" stroke="none"/>
    <path d="M0.85 -1.15 L0.9 -1.05 0.9 -1.0 0.85 -0.95 0.8 -0.9 0.8 -1.0 0.75 -1.05 0.7 -1.05 0.6 -1.0 0.55 -1.0 0.55 -1.0 0.55 -0.95 0.55 -1.05 0.6 -1.15 0.7 -1.15 0.8 -1.15 0.85 -1.15" fill="#282423" fill-rule="evenodd" stroke="none"/>
    <path d="M0.9 -1.0 L0.9 -0.9 0.85 -0.8 0.8 -0.75 0.8 -0.9 0.85 -0.95 0.9 -1.0 M0.8 -0.9 L0.8 -0.9" fill="#805959" fill-rule="evenodd" stroke="none"/>
    <path d="M0.5 -0.85 L0.55 -0.95 0.55 -1.0 0.6 -0.9 0.6 -0.8 0.6 -0.75 0.55 -0.7 0.5 -0.75 0.45 -0.75 0.5 -0.8 0.55 -0.85 0.5 -0.85" fill="#22110a" fill-rule="evenodd" stroke="none"/>
    <path d="M0.75 -1.05 L0.75 -1.0 0.65 -0.95 0.65 -0.95 0.65 -0.95 0.6 -1.0 0.6 -1.0 0.7 -1.05 0.75 -1.05" fill="#f3d3d2" fill-rule="evenodd" stroke="none"/>
    <path d="M0.55 -1.0 L0.55 -1.0 0.6 -1.0 0.6 -0.9 0.55 -1.0 M0.6 -1.0 L0.6 -1.0" fill="#593a39" fill-rule="evenodd" stroke="none"/>
    <path d="M0.65 -0.95 Q0.6 -0.9 0.6 -0.85 0.6 -0.8 0.7 -0.8 L0.65 -0.75 0.7 -0.75 0.65 -0.75 0.65 -0.75 0.6 -0.8 0.6 -0.9 0.6 -1.0 0.65 -0.95 0.65 -0.95" fill="#a46d6b" fill-rule="evenodd" stroke="none"/>
    <path d="M0.75 -1.0 L0.8 -0.95 Q0.75 -0.9 0.65 -0.95 L0.75 -1.0" fill="#8e6260" fill-rule="evenodd" stroke="none"/>
    <path d="M0.7 -0.85 L0.75 -0.85 0.75 -0.75 0.7 -0.75 0.65 -0.75 0.7 -0.8 0.7 -0.85" fill="#db8e88" fill-rule="evenodd" stroke="none"/>
    <path d="M0.6 -0.85 L0.7 -0.85 0.7 -0.8 Q0.6 -0.8 0.6 -0.85" fill="#805857" fill-rule="evenodd" stroke="none"/>
    <path d="M0.25 -1.0 L0.4 -1.0 0.5 -0.85 0.55 -0.85 0.5 -0.85 0.4 -0.85 0.35 -0.9 0.25 -1.0" fill="#4b2114" fill-rule="evenodd" stroke="none"/>
    <path d="M0.6 -0.75 L0.6 -0.65 Q0.7 -0.6 0.75 -0.6 L0.75 -0.5 0.75 -0.4 0.7 -0.4 0.7 -0.4 0.65 -0.4 0.65 -0.5 0.7 -0.55 0.65 -0.55 0.6 -0.55 0.6 -0.5 Q0.55 -0.55 0.55 -0.6 L0.55 -0.7 0.5 -0.65 0.5 -0.6 0.5 -0.7 0.55 -0.7 0.6 -0.75 M0.65 -0.4 L0.65 -0.4" fill="#222a35" fill-rule="evenodd" stroke="none"/>
    <path d="M0.6 -0.8 L0.65 -0.75 0.65 -0.75 0.65 -0.65 0.65 -0.7 0.6 -0.65 0.6 -0.75 0.6 -0.8" fill="#6a6a73" fill-rule="evenodd" stroke="none"/>
    <path d="M0.75 -0.6 Q0.7 -0.6 0.6 -0.65 L0.65 -0.7 0.65 -0.65 0.7 -0.65 0.75 -0.6 0.75 -0.6" fill="#a2a6a7" fill-rule="evenodd" stroke="none"/>
    <path d="M0.5 -0.6 L0.5 -0.65 0.55 -0.7 0.55 -0.6 Q0.55 -0.55 0.6 -0.5 L0.6 -0.55 0.6 -0.45 0.6 -0.45 0.55 -0.4 0.55 -0.45 0.55 -0.55 0.5 -0.55 0.45 -0.55 0.4 -0.55 0.3 -0.6 0.25 -0.6 0.25 -0.55 0.3 -0.55 0.2 -0.55 0.15 -0.6 0.25 -0.6 0.35 -0.6 0.4 -0.6 0.45 -0.6 0.5 -0.6 M0.55 -0.45 L0.55 -0.45 M0.6 -0.45 L0.6 -0.45" fill="#364370" fill-rule="evenodd" stroke="none"/>
    <path d="M0.75 -0.65 L0.7 -0.7 0.75 -0.75 0.75 -0.7 0.75 -0.65 0.75 -0.65" fill="#e08f88" fill-rule="evenodd" stroke="none"/>
    <path d="M0.7 -0.75 L0.75 -0.75 0.7 -0.7 0.75 -0.65 0.75 -0.7 0.8 -0.7 0.75 -0.65 0.7 -0.65 0.65 -0.65 0.65 -0.75 0.7 -0.75 M0.75 -0.75 Q0.8 -0.75 0.75 -0.75 M0.85 -0.7 L0.8 -0.7 0.85 -0.7" fill="#875e5e" fill-rule="evenodd" stroke="none"/>
    <path d="M0.75 -0.65 L0.75 -0.65 0.8 -0.7 0.85 -0.7 0.9 -0.7 0.85 -0.65 0.8 -0.6 0.75 -0.6 0.7 -0.65 0.75 -0.65 M0.9 -0.7 L0.9 -0.7" fill="#868a91" fill-rule="evenodd" stroke="none"/>
    <path d="M0.8 -0.9 L0.8 -0.75 0.8 -0.7 0.75 -0.7 0.75 -0.75 Q0.8 -0.75 0.75 -0.75 L0.75 -0.85 0.75 -0.9 0.8 -0.9" fill="#a86b6a" fill-rule="evenodd" stroke="none"/>
    <path d="M0.9 -0.85 L1.0 -0.75 Q0.95 -0.75 0.95 -0.65 L0.95 -0.55 0.95 -0.6 0.95 -0.65 0.9 -0.75 0.9 -0.85" fill="#324f60" fill-rule="evenodd" stroke="none"/>
    <path d="M0.85 -0.8 L0.9 -0.85 0.9 -0.85 0.9 -0.75 0.85 -0.8 M0.9 -0.75 L0.9 -0.75" fill="#28263b" fill-rule="evenodd" stroke="none"/>
    <path d="M0.8 -0.75 L0.85 -0.8 0.9 -0.75 0.9 -0.7 0.85 -0.7 0.8 -0.7 0.8 -0.75" fill="#cf8680" fill-rule="evenodd" stroke="none"/>
    <path d="M0.9 -0.75 L0.9 -0.75 0.95 -0.65 0.95 -0.6 0.9 -0.6 0.9 -0.7 0.9 -0.7 0.9 -0.75 M0.9 -0.7 L0.9 -0.7 M0.85 -0.4 L0.85 -0.5 0.95 -0.6 0.95 -0.5 0.9 -0.45 0.9 -0.4 0.9 -0.5 0.85 -0.4 M0.9 -0.4 L0.9 -0.4 M0.9 -0.6 L0.9 -0.6" fill="#3d4067" fill-rule="evenodd" stroke="none"/>
    <path d="M0.75 -0.4 L0.75 -0.5 0.75 -0.6 0.8 -0.6 Q0.8 -0.6 0.85 -0.65 L0.9 -0.7 0.9 -0.6 0.8 -0.55 0.8 -0.5 0.8 -0.45 0.75 -0.4 M0.75 -0.6 L0.75 -0.6" fill="#1b1d23" fill-rule="evenodd" stroke="none"/>
    <path d="M1.0 -0.75 Q1.0 -0.7 1.05 -0.7 L1.15 -0.65 1.2 -0.65 1.1 -0.6 1.1 -0.55 Q1.05 -0.5 1.05 -0.55 L1.05 -0.6 1.0 -0.55 0.95 -0.55 0.95 -0.65 Q0.95 -0.75 1.0 -0.75" fill="#243d45" fill-rule="evenodd" stroke="none"/>
    <path d="M0.8 -0.6 L0.85 -0.65 0.9 -0.7 0.9 -0.7 0.85 -0.65 Q0.8 -0.6 0.8 -0.6" fill="#55677b" fill-rule="evenodd" stroke="none"/>
    <path d="M0.2 -0.95 L0.25 -1.0 0.35 -0.9 0.4 -0.85 0.35 -0.85 0.3 -0.85 0.3 -0.8 0.35 -0.75 0.25 -0.75 0.25 -0.9 0.2 -0.95" fill="#3f1c10" fill-rule="evenodd" stroke="none"/>
    <path d="M0.5 -0.7 L0.5 -0.6 0.45 -0.6 0.45 -0.75 0.5 -0.7" fill="#431e12" fill-rule="evenodd" stroke="none"/>
    <path d="M0.1 -0.6 L0.15 -0.6 0.2 -0.55 0.3 -0.55 0.25 -0.55 0.25 -0.6 0.3 -0.6 0.4 -0.55 0.45 -0.55 0.5 -0.55 0.5 -0.5 Q0.5 -0.45 0.55 -0.45 L0.55 -0.45 0.5 -0.45 0.3 -0.45 0.3 -0.45 0.15 -0.45 0.0 -0.45 Q0.0 -0.5 0.05 -0.55 L0.1 -0.6" fill="#213241" fill-rule="evenodd" stroke="none"/>
    <path d="M0.5 -0.55 L0.55 -0.55 0.55 -0.45 Q0.5 -0.45 0.5 -0.5 L0.5 -0.55" fill="#17242c" fill-rule="evenodd" stroke="none"/>
    <path d="M0.3 -0.45 L0.3 -0.45 0.4 -0.4 Q0.4 -0.3 0.3 -0.35 0.3 -0.4 0.25 -0.4 L0.15 -0.4 0.15 -0.45 0.3 -0.45" fill="#3c1b0d" fill-rule="evenodd" stroke="none"/>
    <path d="M0.15 -0.45 L0.3 -0.45 0.15 -0.45 0.15 -0.45" fill="#1a2324" fill-rule="evenodd" stroke="none"/>
    <path d="M0.05 -0.25 L0.1 -0.25 0.15 -0.25 0.2 -0.15 0.15 -0.15 0.1 -0.15 Q0.0 -0.15 0.05 -0.25" fill="#4d2210" fill-rule="evenodd" stroke="none"/>
    <path d="M0.55 0.3 L0.5 0.2 0.5 0.1 0.35 0.1 0.35 0.05 0.4 0.0 0.3 -0.05 0.25 -0.15 0.35 -0.2 0.35 -0.25 0.45 -0.25 0.5 -0.25 0.55 -0.15 0.6 -0.05 0.6 0.05 0.55 0.15 0.55 0.3 M0.6 -0.05 L0.6 -0.05" fill="#1f0f06" fill-rule="evenodd" stroke="none"/>
    <path d="M0.95 -0.6 L0.95 -0.55 1.0 -0.55 1.0 -0.5 0.95 -0.5 0.95 -0.6" fill="#122124" fill-rule="evenodd" stroke="none"/>
    <path d="M0.9 -0.6 L0.9 -0.6 0.85 -0.55 0.8 -0.5 0.8 -0.55 0.9 -0.6" fill="#9b9fa0" fill-rule="evenodd" stroke="none"/>
    <path d="M0.9 -0.6 L0.95 -0.6 0.85 -0.5 0.85 -0.4 0.8 -0.45 0.8 -0.5 0.85 -0.55 0.9 -0.6" fill="#5d6e82" fill-rule="evenodd" stroke="none"/>
    <path d="M0.9 -0.45 L0.95 -0.5 1.0 -0.5 1.0 -0.55 1.05 -0.6 1.05 -0.55 Q1.05 -0.5 1.1 -0.55 L1.15 -0.6 1.2 -0.55 1.15 -0.5 1.2 -0.45 1.25 -0.4 Q1.2 -0.45 1.2 -0.4 L1.25 -0.3 1.2 -0.2 1.15 -0.1 Q1.05 0.0 1.1 0.05 L1.15 0.1 1.2 0.1 1.2 0.05 1.3 0.15 1.2 0.15 1.15 0.2 1.1 0.2 1.05 0.15 1.05 0.05 1.0 0.0 Q1.0 0.0 1.0 -0.05 L1.0 -0.1 1.05 -0.1 1.1 -0.15 1.15 -0.35 1.05 -0.35 0.95 -0.35 1.05 -0.4 Q1.1 -0.45 1.15 -0.45 L1.05 -0.45 1.0 -0.45 0.9 -0.45" fill="#1e3039" fill-rule="evenodd" stroke="none"/>
    <path d="M0.85 -0.4 L0.9 -0.4 0.9 -0.35 Q0.8 -0.25 0.85 -0.2 L0.8 -0.15 0.75 -0.1 0.75 -0.15 0.7 -0.25 0.75 -0.25 0.8 -0.3 0.8 -0.35 0.85 -0.4" fill="#4d3518" fill-rule="evenodd" stroke="none"/>
    <path d="M0.65 -0.4 L0.7 -0.4 0.7 -0.35 0.75 -0.4 0.8 -0.45 0.85 -0.4 0.85 -0.4 0.8 -0.35 0.75 -0.3 0.7 -0.35 0.65 -0.4" fill="#464d5b" fill-rule="evenodd" stroke="none"/>
    <path d="M0.85 -0.4 L0.9 -0.5 0.9 -0.4 0.85 -0.4 0.85 -0.4" fill="#897539" fill-rule="evenodd" stroke="none"/>
    <path d="M0.9 -0.4 L0.9 -0.45 1.0 -0.45 1.05 -0.45 1.15 -0.45 Q1.1 -0.45 1.05 -0.4 L0.95 -0.35 1.05 -0.35 1.15 -0.35 1.1 -0.15 1.05 -0.1 1.0 -0.1 1.0 -0.05 Q1.0 0.0 1.0 0.0 L0.95 -0.1 0.95 -0.2 1.0 -0.25 Q0.9 -0.2 0.9 -0.3 L0.9 -0.4 M1.05 -0.3 L1.05 -0.25 1.0 -0.25 1.05 -0.25 Q1.1 -0.35 1.05 -0.3" fill="#263e49" fill-rule="evenodd" stroke="none"/>
    <path d="M0.9 -0.4 L0.9 -0.4 0.9 -0.3 0.9 -0.35 0.9 -0.4 M0.9 -0.3 L0.9 -0.3" fill="#464b95" fill-rule="evenodd" stroke="none"/>
    <path d="M0.6 -0.55 L0.65 -0.55 0.7 -0.55 0.65 -0.5 0.65 -0.4 0.65 -0.45 0.6 -0.45 0.6 -0.55" fill="#828d97" fill-rule="evenodd" stroke="none"/>
    <path d="M0.55 -0.4 L0.6 -0.45 0.6 -0.45 0.6 -0.3 0.6 -0.35 0.55 -0.4 M0.6 -0.3 L0.6 -0.3" fill="#301c1f" fill-rule="evenodd" stroke="none"/>
    <path d="M0.65 -0.4 L0.65 -0.4 0.7 -0.35 0.7 -0.25 0.65 -0.2 0.6 -0.3 0.6 -0.45 0.6 -0.45 0.65 -0.45 0.65 -0.4" fill="#745e20" fill-rule="evenodd" stroke="none"/>
    <path d="M0.55 -0.45 L0.55 -0.4 0.6 -0.35 0.6 -0.05 0.55 -0.15 0.5 -0.25 0.5 -0.45 0.55 -0.45" fill="#253d47" fill-rule="evenodd" stroke="none"/>
    <path d="M0.7 -0.4 L0.7 -0.4 0.75 -0.4 0.7 -0.35 0.7 -0.4" fill="#121418" fill-rule="evenodd" stroke="none"/>
    <path d="M0.75 -0.25 L0.75 -0.3 0.8 -0.35 0.8 -0.3 0.75 -0.25" fill="#846c27" fill-rule="evenodd" stroke="none"/>
    <path d="M0.65 -0.2 L0.7 -0.25 0.7 -0.35 0.75 -0.3 0.75 -0.25 0.7 -0.25 0.75 -0.15 0.75 -0.1 0.7 -0.05 0.65 -0.2" fill="#3e2411" fill-rule="evenodd" stroke="none"/>
    <path d="M0.6 -0.05 L0.6 -0.05 0.6 -0.35 0.6 -0.3 0.6 -0.1 0.6 -0.05" fill="#3a3e73" fill-rule="evenodd" stroke="none"/>
    <path d="M0.55 0.15 L0.6 0.05 0.6 -0.05 0.6 -0.1 0.65 0.2 0.65 0.25 0.65 0.2 Q0.65 0.2 0.6 0.25 L0.55 0.15" fill="#1c2834" fill-rule="evenodd" stroke="none"/>
    <path d="M0.9 -0.35 L0.9 -0.3 0.9 -0.2 0.95 -0.1 1.0 0.0 1.05 0.05 1.05 0.15 1.0 0.15 0.9 0.2 0.75 0.15 0.65 0.2 0.6 -0.1 0.6 -0.3 0.65 -0.2 0.7 -0.05 0.75 -0.1 0.8 -0.15 0.85 -0.2 Q0.8 -0.25 0.9 -0.35 M0.6 -0.3 L0.6 -0.3" fill="#141213" fill-rule="evenodd" stroke="none"/>
    <path d="M0.9 -0.3 L0.9 -0.3 Q0.9 -0.2 1.0 -0.25 L0.95 -0.2 0.95 -0.1 0.9 -0.2 0.9 -0.3" fill="#2b2f57" fill-rule="evenodd" stroke="none"/>
    <path d="M1.6 -1.05 L1.65 -1.1 1.7 -1.1 1.75 -1.05 1.8 -1.0 Q1.75 -1.0 1.75 -1.0 L1.7 -1.0 1.7 -0.95 1.7 -1.0 1.6 -1.0 1.5 -1.0 1.6 -1.05" fill="#3d1b10" fill-rule="evenodd" stroke="none"/>
    <path d="M1.7 -0.95 L1.7 -0.95 1.6 -0.95 1.45 -0.95 1.45 -0.85 1.45 -1.0 1.35 -0.95 Q1.35 -1.0 1.4 -1.05 L1.5 -1.0 1.6 -1.0 1.7 -1.0 1.7 -0.95" fill="#552618" fill-rule="evenodd" stroke="none"/>
    <path d="M1.7 -0.95 L1.65 -0.9 1.7 -0.85 1.6 -0.9 1.55 -0.9 1.5 -0.85 1.5 -0.8 1.4 -0.85 1.4 -0.9 1.35 -0.95 1.35 -0.95 1.45 -1.0 1.45 -0.85 1.45 -0.95 1.6 -0.95 1.7 -0.95" fill="#36190d" fill-rule="evenodd" stroke="none"/>
    <path d="M1.95 -0.6 L1.8 -0.6 1.8 -0.65 1.85 -0.65 1.95 -0.7 1.95 -0.6" fill="#552617" fill-rule="evenodd" stroke="none"/>
    <path d="M1.25 -1.15 L1.3 -1.2 1.3 -1.2 1.4 -1.2 1.5 -1.1 1.45 -1.15 1.35 -1.2 1.3 -1.15 1.3 -1.1 1.2 -1.1 1.2 -1.15 1.25 -1.15" fill="#35180c" fill-rule="evenodd" stroke="none"/>
    <path d="M1.4 -0.9 L1.25 -0.9 1.1 -0.85 1.15 -0.9 1.1 -0.95 Q1.05 -0.95 1.05 -1.0 L1.15 -1.0 1.25 -1.0 1.3 -1.05 1.4 -1.05 Q1.35 -1.0 1.35 -0.95 L1.35 -0.95 1.4 -0.9" fill="#431e11" fill-rule="evenodd" stroke="none"/>
    <path d="M1.05 -1.1 L1.05 -1.15 1.2 -1.2 1.25 -1.2 1.15 -1.15 Q1.15 -1.1 1.2 -1.1 L1.05 -1.1" fill="#34170e" fill-rule="evenodd" stroke="none"/>
    <path d="M1.25 -1.2 L1.25 -1.15 1.2 -1.15 1.2 -1.1 1.2 -1.1 Q1.15 -1.1 1.15 -1.15 L1.25 -1.2" fill="#5a291f" fill-rule="evenodd" stroke="none"/>
    <path d="M1.15 -0.65 Q1.15 -0.7 1.2 -0.7 L1.25 -0.7 1.45 -0.6 1.35 -0.6 Q1.25 -0.6 1.25 -0.55 L1.2 -0.6 1.2 -0.65 1.15 -0.65" fill="#441f13" fill-rule="evenodd" stroke="none"/>
    <path d="M1.25 -0.7 L1.35 -0.8 1.35 -0.7 1.4 -0.7 1.5 -0.6 1.65 -0.55 1.55 -0.55 1.45 -0.5 1.45 -0.6 1.25 -0.7" fill="#34170b" fill-rule="evenodd" stroke="none"/>
    <path d="M1.65 -0.55 L1.75 -0.6 1.85 -0.55 1.85 -0.55 Q1.8 -0.6 1.75 -0.55 L1.75 -0.5 1.8 -0.5 1.8 -0.4 1.7 -0.4 1.55 -0.4 Q1.5 -0.4 1.45 -0.45 L1.35 -0.4 1.35 -0.45 1.35 -0.55 1.25 -0.5 1.25 -0.55 Q1.25 -0.6 1.35 -0.6 L1.45 -0.6 1.45 -0.5 1.55 -0.55 1.65 -0.55" fill="#562616" fill-rule="evenodd" stroke="none"/>
    <path d="M1.35 -0.45 L1.3 -0.5 Q1.25 -0.5 1.25 -0.5 L1.35 -0.55 1.35 -0.45" fill="#3a201a" fill-rule="evenodd" stroke="none"/>
    <path d="M1.15 -0.6 L1.1 -0.55 1.1 -0.6 1.2 -0.65 1.2 -0.6 1.25 -0.55 1.25 -0.5 Q1.25 -0.5 1.3 -0.5 L1.35 -0.45 1.35 -0.4 Q1.3 -0.5 1.2 -0.5 L1.2 -0.55 1.15 -0.6 M1.35 -0.4 L1.35 -0.4 1.35 -0.4" fill="#354c7a" fill-rule="evenodd" stroke="none"/>
    <path d="M1.55 -0.4 L1.5 -0.35 1.45 -0.35 1.4 -0.35 1.35 -0.4 1.45 -0.45 Q1.5 -0.4 1.55 -0.4 M1.35 -0.4 L1.35 -0.4" fill="#411d0f" fill-rule="evenodd" stroke="none"/>
    <path d="M1.4 -0.35 L1.4 -0.35 1.3 -0.35 Q1.25 -0.4 1.25 -0.45 L1.35 -0.4 1.4 -0.35 M1.35 -0.4 L1.35 -0.4" fill="#343369" fill-rule="evenodd" stroke="none"/>
    <path d="M1.4 -0.35 L1.4 -0.3 1.3 -0.3 1.25 -0.35 1.25 -0.4 1.2 -0.45 1.15 -0.5 1.2 -0.55 1.15 -0.6 1.2 -0.55 1.2 -0.5 Q1.3 -0.5 1.35 -0.4 L1.25 -0.45 Q1.25 -0.4 1.3 -0.35 L1.4 -0.35" fill="#1e233e" fill-rule="evenodd" stroke="none"/>
    <path d="M1.4 -0.3 L1.45 -0.3 1.4 -0.2 1.35 -0.15 1.45 -0.1 1.45 0.05 1.4 0.1 1.35 0.05 Q1.3 -0.05 1.35 -0.15 L1.3 -0.25 1.25 -0.3 1.2 -0.4 Q1.2 -0.45 1.25 -0.4 L1.25 -0.35 1.3 -0.3 1.4 -0.3" fill="#233c43" fill-rule="evenodd" stroke="none"/>
    <path d="M1.3 0.15 L1.2 0.05 1.2 0.0 1.15 0.0 1.2 0.0 1.3 -0.05 1.25 -0.1 1.2 -0.1 1.2 -0.1 1.15 -0.05 1.15 -0.05 1.15 -0.1 1.2 -0.2 1.25 -0.3 1.3 -0.25 1.35 -0.15 Q1.3 -0.05 1.35 0.05 L1.35 0.15 1.3 0.15" fill="#2a160c" fill-rule="evenodd" stroke="none"/>
    <path d="M1.2 0.05 L1.2 0.1 1.15 0.1 1.1 0.05 Q1.05 0.0 1.15 -0.1 L1.15 -0.05 1.15 0.0 1.2 0.0 1.2 0.05" fill="#162428" fill-rule="evenodd" stroke="none"/>
    <path d="M1.45 -0.3 L1.45 -0.2 1.5 -0.1 1.5 0.0 1.5 0.05 Q1.5 0.1 1.5 0.1 L1.45 0.2 1.4 0.2 1.4 0.25 1.4 0.2 1.35 0.2 1.3 0.15 1.35 0.15 1.35 0.05 1.4 0.1 1.45 0.05 1.45 -0.1 1.35 -0.15 1.4 -0.2 1.45 -0.3" fill="#1b2c32" fill-rule="evenodd" stroke="none"/>
    <path d="M1.05 -0.3 Q1.1 -0.35 1.05 -0.25 L1.0 -0.25 1.05 -0.25 1.05 -0.3" fill="#303460" fill-rule="evenodd" stroke="none"/>
    <path d="M1.85 -0.55 L2.0 -0.5 2.1 -0.4 2.1 -0.35 2.15 -0.3 2.1 -0.25 2.05 -0.25 2.0 -0.3 1.9 -0.35 2.0 -0.35 2.05 -0.4 2.0 -0.4 1.9 -0.4 1.85 -0.45 1.8 -0.5 1.75 -0.5 1.75 -0.55 Q1.8 -0.6 1.85 -0.55 L1.85 -0.55" fill="#301609" fill-rule="evenodd" stroke="none"/>
    <path d="M1.9 -0.35 L1.85 -0.4 1.8 -0.4 1.8 -0.5 1.85 -0.45 1.9 -0.4 2.0 -0.4 2.05 -0.4 2.0 -0.35 1.9 -0.35 M-0.85 1.25 L-0.85 1.25 -0.9 1.3 -0.95 1.3 -0.9 1.25 -0.9 1.2 -0.8 1.15 -0.7 1.15 -0.7 1.1 -0.55 1.05 -0.6 1.1 -0.65 1.15 -0.6 1.2 -0.85 1.25" fill="#401d0c" fill-rule="evenodd" stroke="none"/>
    <path d="M2.2 -2.0 L2.2 -1.95 2.1 -1.95 2.1 -2.05 2.2 -2.0" fill="#371a12" fill-rule="evenodd" stroke="none"/>
    <path d="M2.2 -1.75 L2.2 -1.7 2.15 -1.65 2.1 -1.55 2.05 -1.65 Q2.0 -1.7 2.0 -1.75 L2.1 -1.7 2.2 -1.75" fill="#431f11" fill-rule="evenodd" stroke="none"/>
    <path d="M2.2 -1.6 L2.2 -1.45 2.15 -1.45 2.15 -1.55 2.2 -1.6" fill="#512518" fill-rule="evenodd" stroke="none"/>
    <path d="M1.5 0.25 L1.55 0.25 1.6 0.25 1.7 0.3 1.75 0.3 1.85 0.3 1.9 0.35 2.0 0.3 2.05 0.25 2.1 0.15 2.15 0.15 2.15 0.25 2.15 0.3 2.05 0.35 2.0 0.35 2.0 0.4 1.95 0.5 1.85 0.6 1.9 0.55 1.95 0.45 1.85 0.5 1.8 0.55 Q1.75 0.55 1.7 0.65 L1.6 0.7 1.55 0.7 1.55 0.75 1.5 0.85 1.45 0.8 1.45 0.75 1.5 0.6 1.5 0.5 Q1.6 0.4 1.55 0.35 L1.5 0.3 1.5 0.25 M1.75 0.35 L1.7 0.35 Q1.65 0.35 1.65 0.35 1.6 0.35 1.6 0.35 L1.6 0.5 1.65 0.55 1.7 0.5 1.75 0.5 1.8 0.45 1.85 0.45 1.85 0.4 1.9 0.35 1.8 0.35 1.75 0.35 M1.0 0.6 L1.05 0.65 0.85 0.75 0.75 0.7 0.75 0.6 0.85 0.6 0.9 0.6 0.95 0.6 1.0 0.6 M0.4 0.25 L0.3 0.25 0.25 0.2 0.15 0.2 0.05 0.15 0.05 0.1 0.25 0.1 0.35 0.2 0.4 0.2 0.45 0.2 0.45 0.25 0.4 0.25" fill="#48210e" fill-rule="evenodd" stroke="none"/>
    <path d="M2.2 0.25 L2.2 0.5 2.15 0.45 2.15 0.4 2.1 0.4 2.05 0.45 1.95 0.6 Q1.9 0.7 1.9 0.75 L1.95 0.7 2.05 0.7 2.0 0.75 1.9 0.85 1.85 0.9 1.85 0.85 1.85 0.75 1.8 0.75 1.85 0.7 1.85 0.65 1.75 0.75 Q1.75 0.8 1.75 0.85 L1.75 0.95 1.7 1.0 1.7 0.9 1.65 0.95 1.6 1.05 1.55 1.05 1.5 1.05 Q1.5 1.05 1.5 1.0 L1.55 0.95 1.6 0.9 1.65 0.8 1.6 0.85 1.55 0.9 1.55 0.75 1.55 0.7 1.6 0.7 1.7 0.65 Q1.75 0.55 1.8 0.55 L1.85 0.5 1.95 0.45 1.9 0.55 1.85 0.6 1.95 0.5 2.0 0.4 2.0 0.35 2.05 0.35 2.15 0.3 2.15 0.25 2.2 0.25 M-0.95 1.5 L-1.0 1.55 -0.95 1.45 -0.9 1.45 -0.95 1.5" fill="#341809" fill-rule="evenodd" stroke="none"/>
    <path d="M-2.2 1.35 L-2.2 1.3 -2.1 1.25 -2.0 1.2 -2.05 1.3 -2.1 1.4 -2.2 1.35 M1.75 0.3 L1.8 0.3 1.85 0.3 1.9 0.2 1.95 0.15 2.0 0.15 2.1 0.15 2.05 0.25 2.0 0.3 1.9 0.35 1.85 0.3 1.75 0.3 M-0.3 0.45 L-0.35 0.45 Q-0.35 0.4 -0.3 0.35 L-0.15 0.3 Q0.0 0.35 0.0 0.45 L-0.1 0.4 -0.2 0.4 -0.3 0.4 -0.35 0.45 -0.3 0.45 M-2.1 1.4 L-2.1 1.4" fill="#35180a" fill-rule="evenodd" stroke="none"/>
    <path d="M2.2 0.5 L2.2 0.7 2.15 0.75 2.15 0.65 2.1 0.65 2.05 0.7 1.95 0.7 1.9 0.75 Q1.9 0.7 1.95 0.6 L2.05 0.45 2.1 0.4 2.15 0.4 2.15 0.45 2.2 0.5 M2.05 0.8 L1.9 0.85 2.0 0.75 2.05 0.8" fill="#46200d" fill-rule="evenodd" stroke="none"/>
    <path d="M2.2 0.7 L2.2 1.3 Q2.05 1.3 2.05 1.4 2.0 1.4 2.0 1.3 L2.05 1.2 2.0 1.15 2.0 1.1 1.95 1.2 1.85 1.25 1.9 1.15 1.95 1.05 2.0 1.0 Q2.05 0.95 2.0 0.95 L2.1 0.85 2.15 0.8 2.15 0.75 2.2 0.7" fill="#251106" fill-rule="evenodd" stroke="none"/>
    <path d="M2.05 0.7 L2.1 0.65 2.15 0.65 2.15 0.75 2.05 0.8 2.0 0.75 2.05 0.7" fill="#5e2913" fill-rule="evenodd" stroke="none"/>
    <path d="M2.1 0.85 L2.05 0.8 2.0 0.85 1.95 0.9 1.9 0.85 2.05 0.8 2.15 0.75 2.15 0.8 2.1 0.85" fill="#321709" fill-rule="evenodd" stroke="none"/>
    <path d="M1.95 0.9 L2.0 0.85 2.05 0.8 2.1 0.85 2.0 0.95 1.9 1.0 1.8 1.05 1.85 0.95 1.95 0.9 M-0.2 0.45 L-0.25 0.45 -0.3 0.45 -0.35 0.45 -0.3 0.4 -0.2 0.4 -0.1 0.4 0.0 0.45 0.05 0.45 0.1 0.45 0.1 0.5 0.05 0.55 -0.05 0.55 -0.1 0.55 -0.1 0.6 -0.05 0.65 -0.05 0.65 -0.15 0.65 -0.25 0.65 -0.3 0.65 -0.3 0.7 -0.35 0.65 -0.35 0.6 -0.3 0.6 -0.2 0.6 -0.15 0.5 -0.2 0.45" fill="#421e0c" fill-rule="evenodd" stroke="none"/>
    <path d="M2.2 1.3 L2.2 1.45 2.05 1.45 1.95 1.55 1.9 1.55 1.9 1.45 Q1.9 1.4 1.85 1.4 L1.8 1.45 1.7 1.5 1.75 1.45 1.75 1.35 1.6 1.55 1.55 1.6 1.5 1.6 1.55 1.55 1.5 1.5 1.55 1.45 1.45 1.55 1.45 1.7 1.35 1.75 1.4 1.7 1.4 1.65 1.35 1.65 1.3 1.65 1.35 1.6 1.35 1.5 1.3 1.55 1.2 1.5 1.15 1.55 1.1 1.6 1.15 1.55 1.15 1.5 1.1 1.55 Q1.05 1.55 1.05 1.55 L1.0 1.45 0.9 1.5 Q0.9 1.5 0.95 1.4 L1.0 1.3 Q0.95 1.4 0.85 1.35 L0.8 1.45 Q0.75 1.5 0.7 1.5 L0.75 1.4 0.8 1.3 0.7 1.35 0.6 1.45 Q0.55 1.4 0.55 1.35 L0.6 1.3 0.7 1.2 0.65 1.25 0.6 1.25 0.55 1.35 0.5 1.4 0.45 1.4 0.4 1.4 0.4 1.35 0.35 1.4 0.3 1.4 0.3 1.35 0.35 1.3 0.3 1.2 0.3 1.15 0.25 1.15 0.25 1.25 0.2 1.3 0.15 1.35 0.1 1.4 0.0 1.4 -0.05 1.45 -0.05 1.4 0.05 1.3 Q0.0 1.3 0.0 1.3 L-0.05 1.35 -0.2 1.5 -0.35 1.65 -0.45 1.6 -0.45 1.5 -0.5 1.6 Q-0.55 1.65 -0.6 1.65 L-0.55 1.55 -0.5 1.5 -0.6 1.55 -0.65 1.55 -0.55 1.35 -0.65 1.4 -0.7 1.45 -0.75 1.55 Q-0.8 1.65 -0.85 1.6 L-0.85 1.55 -0.8 1.5 -0.85 1.5 -0.95 1.55 -1.0 1.6 -1.05 1.6 -1.1 1.55 -1.15 1.6 -1.2 1.6 -1.15 1.5 -1.1 1.4 -1.15 1.45 -1.2 1.45 -1.2 1.35 Q-1.2 1.3 -1.2 1.35 L-1.25 1.4 -1.3 1.45 -1.35 1.4 -1.3 1.35 -1.3 1.3 Q-1.3 1.25 -1.35 1.25 L-1.4 1.3 Q-1.45 1.3 -1.45 1.3 L-1.55 1.35 -1.55 1.4 -1.6 1.5 -1.65 1.55 -1.7 1.5 -1.65 1.45 -1.65 1.4 -1.7 1.5 -1.8 1.6 -1.8 1.55 -1.75 1.5 -1.75 1.45 -1.85 1.6 -1.95 1.75 -1.95 1.75 -2.0 1.7 Q-1.95 1.5 -1.8 1.4 L-1.75 1.35 -1.7 1.35 -1.75 1.45 -1.65 1.35 Q-1.65 1.3 -1.7 1.3 L-1.65 1.3 -1.6 1.25 -1.55 1.15 -1.65 1.25 Q-1.7 1.25 -1.75 1.25 L-1.7 1.2 -1.65 1.15 -1.65 1.1 Q-1.7 1.05 -1.75 1.1 L-1.7 1.2 -1.8 1.25 -1.85 1.35 -1.85 1.35 Q-1.95 1.45 -2.1 1.5 L-2.1 1.45 -2.05 1.4 -2.05 1.35 -2.1 1.4 -2.05 1.3 -2.0 1.2 -2.1 1.25 -2.2 1.3 -2.2 1.1 Q-2.1 1.1 -2.0 1.05 L-1.85 0.95 -1.65 0.85 -1.65 0.8 -1.6 0.75 Q-1.55 0.75 -1.55 0.75 L-1.55 0.8 -1.5 0.85 -1.5 0.85 -1.55 0.9 -1.6 0.95 -1.65 1.0 -1.65 1.0 -1.6 1.0 -1.55 1.0 -1.45 0.95 Q-1.45 1.0 -1.5 1.1 L-1.5 1.2 -1.4 1.15 -1.35 1.1 -1.35 1.05 -1.3 1.0 -1.25 0.95 -1.3 0.95 -1.35 1.0 -1.4 0.95 -1.4 0.9 -1.3 0.9 Q-1.25 0.9 -1.25 0.85 L-1.25 0.8 -1.25 0.7 Q-1.25 0.7 -1.2 0.7 L-1.2 0.9 Q-1.15 0.9 -1.15 0.85 L-1.1 0.85 Q-1.1 0.9 -1.15 1.0 L-1.2 1.1 Q-1.2 1.1 -1.15 1.05 L-1.05 0.95 -1.05 1.05 -1.05 1.1 -1.15 1.15 -1.15 1.2 -1.15 1.35 -1.1 1.3 -1.0 1.25 -0.95 1.2 -0.9 1.2 -0.9 1.25 -0.95 1.3 -0.9 1.3 -0.85 1.25 -0.85 1.25 -0.85 1.3 -0.9 1.35 -0.85 1.35 -0.75 1.3 -0.8 1.4 -0.65 1.4 -0.55 1.3 Q-0.5 1.35 -0.4 1.25 L-0.35 1.15 -0.35 1.3 -0.25 1.25 -0.15 1.3 Q-0.2 1.3 -0.25 1.35 L-0.4 1.4 -0.35 1.45 -0.3 1.45 -0.1 1.35 0.05 1.1 0.1 1.1 0.1 1.2 Q0.15 1.2 0.2 1.15 L0.25 1.05 0.3 0.95 0.3 1.1 0.35 1.05 0.35 1.2 0.45 1.15 0.5 1.1 0.55 1.05 0.6 1.0 0.65 1.0 0.7 1.0 0.7 0.95 0.8 0.95 0.75 1.0 0.65 1.05 0.7 1.1 0.75 1.05 0.7 1.1 Q0.7 1.15 0.7 1.15 L0.8 1.05 0.85 0.95 0.85 1.1 0.8 1.2 0.8 1.25 0.95 1.2 1.15 1.15 1.15 1.2 1.05 1.2 Q1.05 1.2 1.05 1.25 L1.1 1.25 1.1 1.3 1.15 1.35 1.2 1.45 1.2 1.5 Q1.25 1.5 1.25 1.5 L1.3 1.45 1.3 1.4 1.35 1.3 1.35 1.4 1.4 1.35 1.45 1.25 1.6 1.2 1.65 1.1 1.6 1.1 1.65 1.05 1.75 1.05 1.65 1.25 1.55 1.45 1.65 1.35 1.75 1.3 1.85 1.15 2.0 0.95 Q2.05 0.95 2.0 1.0 L1.95 1.05 1.9 1.15 1.85 1.25 1.95 1.2 2.0 1.1 2.0 1.15 2.05 1.2 2.0 1.3 Q2.0 1.4 2.05 1.4 2.05 1.3 2.2 1.3 M-0.9 1.35 L-0.95 1.35 -1.0 1.4 -0.95 1.4 -0.9 1.35 M0.5 1.3 Q0.65 1.2 0.6 1.1 L0.55 1.1 0.55 1.15 0.5 1.15 0.45 1.2 Q0.4 1.2 0.4 1.25 L0.4 1.35 Q0.5 1.35 0.5 1.3 M-1.9 1.2 L-1.95 1.2 -2.0 1.3 -1.95 1.3 -1.9 1.25 -1.95 1.35 -2.0 1.4 -1.9 1.35 -1.85 1.3 -1.9 1.25 -1.9 1.2 M-1.2 1.2 L-1.15 1.15 -1.2 1.15 -1.25 1.2 -1.25 1.25 -1.2 1.2 M-0.95 1.5 L-0.9 1.45 -0.95 1.45 -1.0 1.55 -0.95 1.5" fill="#180b04" fill-rule="evenodd" stroke="none"/>
    <path d="M2.2 1.45 L2.2 2.2 -2.2 2.2 -2.2 1.6 -2.15 1.55 -2.15 1.5 Q-2.1 1.5 -2.15 1.5 L-2.2 1.5 -2.2 1.5 -2.15 1.45 -2.1 1.4 -2.05 1.35 -2.05 1.4 -2.1 1.45 -2.1 1.5 Q-1.95 1.45 -1.85 1.35 L-1.75 1.25 Q-1.7 1.25 -1.65 1.25 L-1.55 1.15 -1.6 1.25 -1.65 1.3 -1.7 1.3 -1.7 1.35 -1.75 1.35 -1.8 1.4 Q-1.95 1.5 -2.0 1.7 L-1.95 1.75 -1.95 1.75 -1.85 1.6 -1.75 1.45 -1.75 1.5 -1.8 1.55 -1.8 1.6 -1.7 1.5 -1.65 1.4 -1.65 1.45 -1.7 1.5 -1.65 1.55 -1.6 1.5 -1.55 1.4 -1.55 1.35 -1.45 1.3 Q-1.45 1.3 -1.4 1.3 L-1.35 1.25 Q-1.3 1.25 -1.3 1.3 L-1.3 1.35 -1.35 1.4 -1.3 1.45 -1.25 1.4 -1.2 1.35 Q-1.2 1.3 -1.2 1.35 L-1.2 1.45 -1.15 1.45 -1.1 1.4 -1.15 1.5 -1.2 1.6 -1.15 1.6 -1.1 1.55 -1.05 1.6 -1.0 1.6 -0.95 1.55 -0.85 1.5 -0.8 1.5 -0.85 1.55 -0.85 1.6 Q-0.8 1.65 -0.75 1.55 L-0.7 1.45 -0.65 1.4 -0.55 1.35 -0.65 1.55 -0.6 1.55 -0.5 1.5 -0.55 1.55 -0.6 1.65 Q-0.55 1.65 -0.5 1.6 L-0.45 1.5 -0.45 1.6 -0.35 1.65 -0.2 1.5 -0.05 1.35 0.0 1.3 Q0.0 1.3 0.05 1.3 L-0.05 1.4 -0.05 1.45 0.0 1.4 0.1 1.4 Q-0.05 1.5 -0.1 1.65 L-0.05 1.7 -0.05 1.75 0.0 1.75 0.05 1.6 0.15 1.5 0.2 1.45 0.2 1.4 0.15 1.35 0.2 1.3 0.25 1.25 0.25 1.15 0.3 1.15 0.3 1.2 0.35 1.3 0.3 1.35 0.3 1.4 0.35 1.4 0.4 1.35 0.4 1.4 0.45 1.4 0.5 1.4 0.55 1.35 0.6 1.25 0.65 1.25 0.7 1.2 0.6 1.3 0.55 1.35 Q0.55 1.4 0.6 1.45 L0.7 1.35 0.8 1.3 0.75 1.4 0.7 1.5 Q0.75 1.5 0.8 1.45 L0.85 1.35 Q0.95 1.4 1.0 1.3 L0.95 1.4 Q0.9 1.5 0.9 1.5 L1.0 1.45 1.05 1.55 Q1.05 1.55 1.1 1.55 L1.15 1.5 1.15 1.55 1.1 1.6 1.15 1.55 1.2 1.5 1.3 1.55 1.35 1.5 1.35 1.6 1.3 1.65 1.35 1.65 1.4 1.65 1.4 1.7 1.35 1.75 1.45 1.7 1.45 1.55 1.55 1.45 1.5 1.5 1.55 1.55 1.5 1.6 1.55 1.6 1.6 1.55 1.75 1.35 1.75 1.45 1.7 1.5 1.8 1.45 1.85 1.4 Q1.9 1.4 1.9 1.45 L1.9 1.55 1.95 1.55 2.05 1.45 2.2 1.45 M-2.1 1.4 L-2.1 1.4" fill="#0c0502" fill-rule="evenodd" stroke="none"/>
    <path d="M1.5 0.2 L1.5 0.25 1.5 0.3 Q1.45 0.2 1.5 0.2" fill="#313267" fill-rule="evenodd" stroke="none"/>
    <path d="M1.75 0.35 L1.8 0.35 1.9 0.35 1.85 0.4 1.85 0.45 1.8 0.45 1.75 0.5 1.7 0.5 1.65 0.55 1.6 0.5 1.6 0.35 Q1.6 0.35 1.65 0.35 1.65 0.35 1.7 0.35 L1.75 0.35" fill="#552610" fill-rule="evenodd" stroke="none"/>
    <path d="M1.55 0.35 Q1.6 0.4 1.5 0.5 L1.45 0.5 1.45 0.45 1.5 0.4 1.55 0.35" fill="#1f120d" fill-rule="evenodd" stroke="none"/>
    <path d="M1.3 0.15 L1.35 0.2 1.4 0.2 1.4 0.25 1.4 0.3 1.35 0.35 1.35 0.3 1.3 0.25 1.3 0.15" fill="#353467" fill-rule="evenodd" stroke="none"/>
    <path d="M1.1 0.2 L1.15 0.2 1.2 0.15 1.3 0.15 1.3 0.25 1.35 0.3 1.35 0.35 1.3 0.35 1.2 0.45 1.1 0.2" fill="#263d48" fill-rule="evenodd" stroke="none"/>
    <path d="M1.5 0.1 Q1.55 0.15 1.5 0.2 1.45 0.2 1.5 0.3 L1.35 0.35 1.4 0.3 1.4 0.25 1.4 0.2 1.45 0.2 1.5 0.1" fill="#282544" fill-rule="evenodd" stroke="none"/>
    <path d="M1.05 0.15 L1.1 0.2 1.2 0.45 1.25 0.6 Q1.2 0.65 1.25 0.75 L1.25 0.95 1.2 1.0 1.15 1.0 1.15 0.95 1.2 0.9 1.1 0.8 1.05 0.75 1.05 0.65 1.0 0.6 0.95 0.5 1.05 0.4 1.1 0.35 1.0 0.35 1.05 0.3 1.05 0.25 0.95 0.25 0.85 0.25 0.9 0.2 1.0 0.15 1.05 0.15" fill="#452d18" fill-rule="evenodd" stroke="none"/>
    <path d="M0.9 0.2 L0.85 0.25 0.95 0.25 1.05 0.25 1.05 0.3 1.0 0.35 1.1 0.35 1.05 0.4 0.95 0.5 0.95 0.4 0.9 0.3 0.85 0.5 0.75 0.45 0.75 0.3 0.8 0.35 0.8 0.2 0.7 0.2 Q0.7 0.2 0.65 0.25 L0.65 0.2 0.75 0.15 0.9 0.2" fill="#3a2214" fill-rule="evenodd" stroke="none"/>
    <path d="M1.5 0.5 L1.5 0.6 1.45 0.75 1.45 0.8 1.5 0.85 1.4 1.0 1.3 1.1 1.3 1.05 Q1.4 1.0 1.4 0.85 L1.45 0.6 1.35 0.6 1.25 0.6 1.2 0.45 1.3 0.55 1.4 0.45 1.4 0.5 1.45 0.5 1.45 0.45 1.45 0.5 1.5 0.5" fill="#36190b" fill-rule="evenodd" stroke="none"/>
    <path d="M1.3 0.35 Q1.3 0.4 1.3 0.4 L1.35 0.45 1.35 0.4 1.4 0.4 1.4 0.45 1.3 0.55 1.2 0.45 1.3 0.35" fill="#2c3258" fill-rule="evenodd" stroke="none"/>
    <path d="M0.7 0.95 L0.7 1.0 0.65 0.85 0.6 0.9 0.6 1.0 0.55 1.05 0.5 1.1 Q0.4 1.1 0.45 1.0 L0.5 0.85 0.45 0.85 0.4 0.9 0.35 0.95 0.4 0.8 0.5 0.8 Q0.5 0.85 0.5 0.8 L0.55 0.75 0.55 0.8 0.65 0.8 0.7 0.85 0.75 0.85 0.75 0.9 0.7 0.95 M1.05 0.75 L1.1 0.8 1.2 0.9 1.15 0.95 1.15 1.0 1.2 1.0 1.25 0.95 1.25 0.75 Q1.2 0.65 1.25 0.6 L1.3 0.8 1.3 1.05 1.3 1.1 1.25 1.1 1.15 1.15 1.1 1.1 1.05 1.05 1.15 1.05 1.1 1.0 1.1 0.9 1.05 0.8 1.05 0.85 1.0 0.9 Q0.95 0.9 1.0 0.8 L1.0 0.7 Q1.0 0.7 1.05 0.75" fill="#402413" fill-rule="evenodd" stroke="none"/>
    <path d="M1.35 0.35 L1.5 0.3 1.55 0.35 1.5 0.4 1.45 0.45 1.45 0.5 1.4 0.5 1.4 0.45 1.4 0.4 1.35 0.4 1.35 0.45 1.3 0.4 Q1.3 0.4 1.3 0.35 L1.35 0.35 1.35 0.3 1.35 0.35" fill="#1b1b24" fill-rule="evenodd" stroke="none"/>
    <path d="M1.25 0.6 L1.35 0.6 1.45 0.6 1.4 0.85 Q1.4 1.0 1.3 1.05 L1.3 0.8 1.25 0.6" fill="#4d230f" fill-rule="evenodd" stroke="none"/>
    <path d="M1.05 0.65 L1.05 0.75 Q1.0 0.7 1.0 0.7 L0.95 0.75 0.9 0.8 0.8 0.8 0.7 0.75 0.75 0.7 0.85 0.75 1.05 0.65" fill="#371a0b" fill-rule="evenodd" stroke="none"/>
    <path d="M1.15 1.15 L0.95 1.2 0.8 1.25 0.8 1.2 0.85 1.1 0.85 0.95 0.8 1.05 0.7 1.15 Q0.7 1.15 0.7 1.1 L0.75 1.05 0.7 1.1 0.65 1.05 0.75 1.0 0.8 0.95 0.7 0.95 0.75 0.9 0.75 0.85 0.7 0.85 0.65 0.8 0.7 0.75 0.8 0.8 0.9 0.8 0.95 0.75 1.0 0.7 1.0 0.8 Q0.95 0.9 1.0 0.9 L1.05 0.85 1.05 0.8 1.1 0.9 1.1 1.0 1.05 1.05 1.1 1.1 1.15 1.15 M1.05 1.0 L1.0 1.0 0.95 1.05 0.95 1.15 0.9 1.2 Q1.05 1.15 1.05 1.0 M1.0 0.8 L0.95 0.85 0.95 0.9 0.9 0.95 0.85 1.05 0.95 0.95 0.95 0.9 1.0 0.8" fill="#281307" fill-rule="evenodd" stroke="none"/>
    <path d="M1.05 1.0 Q1.05 1.15 0.9 1.2 L0.95 1.15 0.95 1.05 1.0 1.0 1.05 1.0 M-0.9 0.45 L-0.8 0.4 Q-0.8 0.45 -0.8 0.45 L-0.85 0.5 -0.95 0.55 -1.05 0.5 -1.1 0.5 -1.15 0.45 -1.15 0.4 -1.05 0.4 -1.0 0.45 -0.9 0.45" fill="#3d1c0b" fill-rule="evenodd" stroke="none"/>
    <path d="M1.1 1.0 L1.15 1.05 1.05 1.05 1.1 1.0" fill="#6a3215" fill-rule="evenodd" stroke="none"/>
    <path d="M1.15 1.35 L1.1 1.3 1.1 1.25 1.05 1.25 Q1.05 1.2 1.05 1.2 L1.15 1.2 Q1.15 1.3 1.2 1.35 L1.15 1.35" fill="#231208" fill-rule="evenodd" stroke="none"/>
    <path d="M1.9 0.85 L1.95 0.9 1.85 0.95 1.8 1.05 1.9 1.0 2.0 0.95 1.85 1.15 1.75 1.3 1.65 1.35 1.55 1.45 1.65 1.25 1.75 1.05 1.65 1.05 1.6 1.1 1.65 1.1 1.6 1.2 1.45 1.25 1.4 1.35 1.35 1.4 1.35 1.3 1.35 1.25 1.3 1.15 1.25 1.15 1.15 1.15 1.25 1.1 1.3 1.1 1.4 1.0 1.5 0.85 1.55 0.75 1.55 0.9 1.6 0.85 1.65 0.8 1.6 0.9 1.55 0.95 1.5 1.0 Q1.5 1.05 1.5 1.05 L1.55 1.05 1.6 1.05 1.65 0.95 1.7 0.9 1.7 1.0 1.75 0.95 1.75 0.85 1.8 0.75 1.85 0.75 1.85 0.85 1.85 0.9 1.9 0.85" fill="#231006" fill-rule="evenodd" stroke="none"/>
    <path d="M1.35 1.3 L1.3 1.4 Q1.25 1.4 1.2 1.45 L1.15 1.35 1.2 1.35 Q1.15 1.3 1.15 1.2 L1.15 1.15 1.25 1.15 1.3 1.15 1.35 1.25 1.35 1.3" fill="#3d2715" fill-rule="evenodd" stroke="none"/>
    <path d="M1.75 0.85 Q1.75 0.8 1.75 0.75 L1.85 0.65 1.85 0.7 1.8 0.75 1.75 0.85" fill="#4a220e" fill-rule="evenodd" stroke="none"/>
    <path d="M0.55 0.3 L0.55 0.15 0.6 0.25 0.65 0.4 0.65 0.55 0.65 0.6 0.6 0.6 0.55 0.6 0.55 0.3" fill="#27404a" fill-rule="evenodd" stroke="none"/>
    <path d="M0.65 0.25 Q0.7 0.2 0.7 0.2 L0.8 0.2 0.8 0.35 0.75 0.3 0.75 0.45 0.85 0.5 0.75 0.6 0.75 0.7 0.7 0.75 0.65 0.8 0.55 0.8 0.55 0.75 0.5 0.8 Q0.5 0.85 0.5 0.8 L0.5 0.7 0.55 0.6 0.65 0.65 0.7 0.65 0.7 0.5 0.65 0.25" fill="#442d18" fill-rule="evenodd" stroke="none"/>
    <path d="M0.6 0.25 Q0.65 0.2 0.65 0.2 L0.65 0.25 0.7 0.5 0.65 0.55 0.65 0.4 0.6 0.25" fill="#2f3262" fill-rule="evenodd" stroke="none"/>
    <path d="M0.65 0.55 L0.7 0.5 0.7 0.65 0.65 0.65 0.55 0.6 0.6 0.6 0.65 0.6 0.65 0.55" fill="#21213a" fill-rule="evenodd" stroke="none"/>
    <path d="M0.85 0.5 L0.9 0.3 0.95 0.4 0.95 0.5 1.0 0.6 0.95 0.6 0.9 0.6 0.85 0.6 0.75 0.6 0.85 0.5" fill="#2f160a" fill-rule="evenodd" stroke="none"/>
    <path d="M0.4 0.25 L0.45 0.25 0.45 0.2 0.4 0.2 0.35 0.2 0.4 0.15 0.5 0.2 0.5 0.3 0.4 0.3 0.4 0.25" fill="#37190b" fill-rule="evenodd" stroke="none"/>
    <path d="M0.05 0.15 L0.15 0.2 0.0 0.2 Q-0.1 0.2 -0.15 0.15 L-0.2 0.2 -0.25 0.2 -0.35 0.15 -0.35 0.1 Q-0.35 0.05 -0.25 0.0 L-0.3 0.1 -0.25 0.1 -0.2 0.1 -0.15 0.05 Q-0.15 0.0 -0.1 0.0 L-0.05 0.0 0.0 0.1 0.05 0.15" fill="#3c1b0b" fill-rule="evenodd" stroke="none"/>
    <path d="M0.05 0.45 L0.05 0.4 0.25 0.4 0.2 0.45 0.2 0.5 0.1 0.55 0.05 0.6 -0.05 0.6 -0.1 0.6 -0.05 0.65 -0.1 0.6 -0.1 0.55 -0.05 0.55 0.05 0.55 0.1 0.5 0.1 0.45 0.05 0.45" fill="#351809" fill-rule="evenodd" stroke="none"/>
    <path d="M0.55 0.6 L0.5 0.7 0.5 0.8 0.4 0.8 0.35 0.75 0.35 0.7 0.25 0.7 0.2 0.7 0.3 0.7 0.4 0.7 0.45 0.65 0.45 0.6 0.55 0.6" fill="#391b0b" fill-rule="evenodd" stroke="none"/>
    <path d="M0.2 0.8 L0.25 0.75 0.35 0.75 0.3 0.8 0.25 0.85 0.2 0.8" fill="#5a2911" fill-rule="evenodd" stroke="none"/>
    <path d="M0.1 0.7 L0.15 0.7 0.2 0.7 0.25 0.7 0.35 0.7 0.35 0.75 0.25 0.75 0.2 0.8 0.25 0.85 0.3 0.8 0.35 0.75 0.25 0.9 0.15 1.0 Q0.15 0.9 0.1 0.9 0.1 0.85 0.2 0.8 L0.15 0.8 0.1 0.8 0.1 0.7" fill="#48210d" fill-rule="evenodd" stroke="none"/>
    <path d="M0.5 1.1 L0.45 1.15 0.35 1.2 0.35 1.05 0.3 1.1 0.3 0.95 0.2 1.0 0.15 1.05 0.2 1.1 0.25 1.05 0.2 1.15 Q0.15 1.2 0.1 1.2 L0.1 1.1 0.15 1.0 0.25 0.9 0.35 0.75 0.4 0.8 0.35 0.95 0.4 0.9 0.45 0.85 0.5 0.85 0.45 1.0 Q0.4 1.1 0.5 1.1" fill="#2a1409" fill-rule="evenodd" stroke="none"/>
    <path d="M-0.1 0.95 Q-0.05 0.75 0.0 0.7 0.1 0.7 0.1 0.75 L0.0 0.85 -0.1 0.95" fill="#431f0c" fill-rule="evenodd" stroke="none"/>
    <path d="M0.1 1.1 L0.05 1.1 0.0 1.15 0.0 1.2 Q-0.1 1.15 -0.05 1.1 L0.05 1.05 -0.05 1.1 -0.15 1.15 -0.05 1.0 0.05 0.85 0.05 0.8 0.1 0.75 Q0.1 0.7 0.0 0.7 -0.05 0.75 -0.1 0.95 L-0.1 0.95 -0.15 0.95 -0.2 1.05 -0.3 1.1 -0.25 1.0 -0.15 0.9 -0.1 0.85 -0.1 0.75 -0.05 0.7 -0.2 0.7 -0.3 0.7 -0.3 0.65 -0.25 0.65 -0.15 0.65 -0.05 0.65 -0.05 0.65 0.0 0.65 0.05 0.65 0.1 0.7 0.1 0.8 0.15 0.8 0.2 0.8 Q0.1 0.85 0.1 0.9 0.15 0.9 0.15 1.0 L0.1 1.1" fill="#331709" fill-rule="evenodd" stroke="none"/>
    <path d="M0.05 1.1 L-0.1 1.35 -0.3 1.45 -0.35 1.45 -0.4 1.4 -0.25 1.35 Q-0.2 1.3 -0.15 1.3 L-0.25 1.25 -0.35 1.3 -0.35 1.15 -0.4 1.25 Q-0.5 1.35 -0.55 1.3 L-0.65 1.4 -0.8 1.4 -0.75 1.3 -0.85 1.35 -0.9 1.35 -0.85 1.3 -0.85 1.25 -0.6 1.2 -0.55 1.15 -0.5 1.1 -0.5 1.15 -0.45 1.15 -0.4 1.1 -0.35 1.1 -0.3 1.1 -0.2 1.05 -0.15 0.95 -0.1 0.95 -0.1 0.95 0.0 0.85 0.1 0.75 0.05 0.8 0.05 0.85 -0.05 1.0 -0.15 1.15 -0.05 1.1 0.05 1.05 -0.05 1.1 Q-0.1 1.15 0.0 1.2 L0.0 1.15 0.05 1.1 M-0.9 1.35 L-0.9 1.35" fill="#241006" fill-rule="evenodd" stroke="none"/>
    <path d="M0.3 0.95 L0.25 1.05 0.2 1.1 0.15 1.05 0.2 1.0 0.3 0.95" fill="#45200d" fill-rule="evenodd" stroke="none"/>
    <path d="M0.5 1.3 L0.5 1.2 0.45 1.2 0.5 1.15 0.55 1.15 0.55 1.1 0.6 1.1 Q0.65 1.2 0.5 1.3" fill="#392614" fill-rule="evenodd" stroke="none"/>
    <path d="M0.45 1.2 L0.5 1.2 0.5 1.3 Q0.5 1.35 0.4 1.35 L0.4 1.25 Q0.4 1.2 0.45 1.2" fill="#28170d" fill-rule="evenodd" stroke="none"/>
    <path d="M1.0 0.8 L0.95 0.9 0.95 0.95 0.85 1.05 0.9 0.95 0.95 0.9 0.95 0.85 1.0 0.8" fill="#421f0d" fill-rule="evenodd" stroke="none"/>
    <path d="M0.7 1.0 L0.65 1.0 0.6 1.0 0.6 0.9 0.65 0.85 0.7 1.0" fill="#291309" fill-rule="evenodd" stroke="none"/>
    <path d="M0.1 1.4 L0.15 1.35 0.2 1.4 0.2 1.45 0.15 1.5 0.05 1.6 0.0 1.75 -0.05 1.75 -0.05 1.7 -0.1 1.65 Q-0.05 1.5 0.1 1.4" fill="#130903" fill-rule="evenodd" stroke="none"/>
    <path d="M1.3 1.4 L1.3 1.45 1.25 1.5 Q1.25 1.5 1.2 1.5 L1.2 1.45 Q1.25 1.4 1.3 1.4" fill="#24150c" fill-rule="evenodd" stroke="none"/>
    <path d="M-0.55 0.2 L-0.55 0.2 -0.5 0.25 -0.45 0.2 Q-0.4 0.15 -0.35 0.2 L-0.35 0.25 -0.45 0.3 -0.5 0.3 -0.55 0.25 -0.6 0.25 -0.55 0.2" fill="#3b1b0b" fill-rule="evenodd" stroke="none"/>
    <path d="M-0.65 0.3 L-0.8 0.35 -0.85 0.35 -0.95 0.35 -0.85 0.3 -0.75 0.25 Q-0.7 0.2 -0.7 0.25 L-0.65 0.3" fill="#391a0b" fill-rule="evenodd" stroke="none"/>
    <path d="M-0.35 0.6 L-0.35 0.65 -0.3 0.7 -0.2 0.7 -0.05 0.7 -0.1 0.75 -0.1 0.85 -0.15 0.9 -0.25 1.0 -0.3 1.1 -0.35 1.1 -0.4 1.1 Q-0.4 1.05 -0.3 0.95 L-0.25 0.9 -0.15 0.8 -0.25 0.85 -0.35 0.9 Q-0.4 0.9 -0.4 0.9 L-0.4 0.95 -0.5 1.05 -0.55 1.15 -0.6 1.2 -0.65 1.15 -0.6 1.1 -0.55 1.05 -0.7 1.1 -0.75 1.1 -0.65 1.0 -0.55 0.95 Q-0.6 0.95 -0.7 1.0 L-0.85 1.05 -0.85 0.95 -0.8 0.9 -0.75 0.9 -0.65 0.9 -0.65 0.75 -0.6 0.75 -0.55 0.7 -0.55 0.65 -0.6 0.55 -0.55 0.6 -0.5 0.6 -0.45 0.6 -0.35 0.6 M-0.45 0.9 L-0.5 0.95 -0.55 0.95 -0.45 0.95 -0.45 0.9" fill="#4b220e" fill-rule="evenodd" stroke="none"/>
    <path d="M-1.0 0.8 L-1.05 0.8 -1.15 0.85 Q-1.2 0.85 -1.15 0.75 L-1.15 0.7 -1.05 0.7 -1.0 0.75 -1.0 0.8" fill="#37190a" fill-rule="evenodd" stroke="none"/>
    <path d="M-0.8 0.8 L-0.9 0.85 -0.85 0.75 -0.8 0.65 -0.75 0.65 -0.75 0.75 -0.8 0.8" fill="#3a1b0b" fill-rule="evenodd" stroke="none"/>
    <path d="M-0.95 1.2 L-1.0 1.2 -1.05 1.25 -1.05 1.2 -1.0 1.1 -0.95 1.15 -0.95 1.2" fill="#411e0c" fill-rule="evenodd" stroke="none"/>
    <path d="M-0.55 1.15 L-0.5 1.05 -0.4 0.95 -0.4 0.9 Q-0.4 0.9 -0.35 0.9 L-0.25 0.85 -0.15 0.8 -0.25 0.9 -0.3 0.95 Q-0.4 1.05 -0.4 1.1 L-0.45 1.15 -0.5 1.15 -0.5 1.1 -0.55 1.15" fill="#36190a" fill-rule="evenodd" stroke="none"/>
    <path d="M-0.45 0.9 L-0.45 0.95 -0.55 0.95 -0.5 0.95 -0.45 0.9" fill="#723517" fill-rule="evenodd" stroke="none"/>
    <path d="M-1.5 0.0 L-1.45 0.0 -1.4 -0.05 -1.3 0.0 -1.3 0.15 -1.5 0.2 -1.5 0.0" fill="#2b1409" fill-rule="evenodd" stroke="none"/>
    <path d="M-1.9 0.55 Q-1.85 0.5 -1.85 0.5 L-1.7 0.5 Q-1.65 0.5 -1.65 0.6 L-1.9 0.55 -1.9 0.55" fill="#2d1509" fill-rule="evenodd" stroke="none"/>
    <path d="M-1.55 0.5 Q-1.5 0.55 -1.5 0.6 L-1.55 0.6 -1.55 0.5" fill="#452010" fill-rule="evenodd" stroke="none"/>
    <path d="M-1.9 1.2 L-1.9 1.25 -1.85 1.3 -1.9 1.35 -2.0 1.4 -1.95 1.35 -1.9 1.25 -1.95 1.3 -2.0 1.3 -1.95 1.2 -1.9 1.2" fill="#2d1408" fill-rule="evenodd" stroke="none"/>
    <path d="M-1.75 1.25 L-1.85 1.35 -1.85 1.35 -1.8 1.25 -1.7 1.2 -1.75 1.1 Q-1.7 1.05 -1.65 1.1 L-1.65 1.15 -1.7 1.2 -1.75 1.25" fill="#281207" fill-rule="evenodd" stroke="none"/>
    <path d="M-1.2 1.2 L-1.25 1.25 -1.25 1.2 -1.2 1.15 -1.15 1.15 -1.2 1.2" fill="#321609" fill-rule="evenodd" stroke="none"/>
    <path d="M-0.9 1.35 L-0.95 1.4 -1.0 1.4 -0.95 1.35 -0.9 1.35 -0.9 1.35" fill="#381a0a" fill-rule="evenodd" stroke="none"/>
    <path d="M-2.2 1.5 L-2.2 1.35 -2.1 1.4 -2.15 1.45 -2.2 1.5" fill="#1b0c05" fill-rule="evenodd" stroke="none"/>
    <path d="M-2.2 1.6 L-2.2 1.5 -2.15 1.5 Q-2.1 1.5 -2.15 1.5 L-2.15 1.55 -2.2 1.6" fill="#170a04" fill-rule="evenodd" stroke="none"/>
  </g>
</svg>
