<?xml version="1.0" encoding="UTF-8" standalone="no"?>
<svg xmlns:xlink="http://www.w3.org/1999/xlink" height="8.2px" width="3.05px" xmlns="http://www.w3.org/2000/svg">
  <g transform="matrix(1.0, 0.0, 0.0, 1.0, 1.7, 4.15)">
    <path d="M0.6 -3.45 L0.5 -3.35 0.5 -3.3 0.55 -3.25 0.55 -3.2 0.6 -3.2 0.65 -3.25 0.65 -3.35 0.6 -3.4 0.6 -3.45 M0.05 -3.1 L0.05 -3.0 0.1 -2.9 0.15 -2.95 0.2 -3.0 0.2 -3.1 0.15 -3.15 0.1 -3.15 0.05 -3.1 M0.35 -2.5 Q0.35 -2.45 0.35 -2.4 L0.45 -2.4 0.5 -2.5 0.5 -2.6 0.45 -2.65 0.4 -2.65 0.35 -2.6 0.35 -2.5 M-0.95 -3.05 L-0.8 -3.25 -0.75 -3.4 -0.65 -3.55 Q-0.55 -3.75 -0.3 -3.9 -0.05 -4.1 0.15 -4.1 0.45 -4.1 0.75 -3.7 1.0 -3.3 1.0 -3.05 L0.95 -2.95 0.9 -2.85 0.9 -2.85 0.9 -2.75 0.85 -2.6 Q0.75 -2.35 0.45 -2.2 0.0 -2.0 -0.6 -2.05 L-0.75 -2.1 Q-0.85 -2.15 -0.95 -2.3 L-1.0 -2.45 -1.0 -2.55 -1.0 -2.6 Q-1.0 -2.6 -1.0 -2.65 L-1.0 -2.8 -0.95 -2.95 -0.95 -3.05 M-0.6 -3.25 L-0.65 -3.2 -0.65 -3.1 -0.6 -3.0 Q-0.6 -3.0 -0.55 -3.0 L-0.5 -3.1 -0.5 -3.2 -0.55 -3.25 -0.6 -3.25 M-0.3 -2.6 L-0.35 -2.65 -0.4 -2.55 -0.4 -2.45 -0.4 -2.4 -0.3 -2.4 -0.25 -2.45 -0.25 -2.55 -0.3 -2.6" fill="#201d19" fill-rule="evenodd" stroke="none"/>
    <path d="M0.35 -2.5 L0.35 -2.6 0.4 -2.65 0.45 -2.65 0.5 -2.6 0.5 -2.5 0.45 -2.4 0.35 -2.4 Q0.35 -2.45 0.35 -2.5 M0.05 -3.1 L0.1 -3.15 0.15 -3.15 0.2 -3.1 0.2 -3.0 0.15 -2.95 0.1 -2.9 0.05 -3.0 0.05 -3.1 M0.6 -3.45 L0.6 -3.4 0.65 -3.35 0.65 -3.25 0.6 -3.2 0.55 -3.2 0.55 -3.25 0.5 -3.3 0.5 -3.35 0.6 -3.45 M-0.3 -2.6 L-0.25 -2.55 -0.25 -2.45 -0.3 -2.4 -0.4 -2.4 -0.4 -2.45 -0.4 -2.55 -0.35 -2.65 -0.3 -2.6 M-0.6 -3.25 L-0.55 -3.25 -0.5 -3.2 -0.5 -3.1 -0.55 -3.0 Q-0.6 -3.0 -0.6 -3.0 L-0.65 -3.1 -0.65 -3.2 -0.6 -3.25" fill="#353a43" fill-rule="evenodd" stroke="none"/>
    <path d="M0.95 -2.95 L1.15 -2.65 1.25 -2.3 1.25 -2.2 1.25 -2.15 Q0.9 -1.75 0.5 -1.7 L0.55 -1.55 0.45 -1.4 0.45 -1.4 Q0.4 -1.4 0.4 -1.45 L0.4 -1.5 0.35 -1.5 0.3 -1.35 0.15 -1.45 0.05 -1.45 0.05 -1.3 0.05 -1.25 -0.1 -1.2 -0.25 -1.25 -0.35 -1.35 -0.35 -1.7 -0.4 -1.65 -0.55 -1.7 -0.6 -1.85 -1.0 -1.95 Q-1.2 -2.0 -1.35 -2.15 L-1.45 -2.3 -1.5 -2.45 -1.45 -2.5 -1.3 -2.75 Q-1.15 -2.95 -0.95 -3.05 L-0.95 -2.95 -1.25 -2.7 -1.3 -2.65 -1.35 -2.45 Q-1.35 -2.3 -1.25 -2.2 -1.1 -2.0 -0.6 -1.9 L-0.15 -1.9 Q0.75 -1.75 1.1 -2.2 1.2 -2.3 1.15 -2.5 L0.9 -2.85 0.9 -2.85 0.95 -2.95 M-0.6 3.25 L-0.45 3.25 -0.35 3.3 -0.3 3.3 Q-0.35 3.3 -0.4 3.35 L-0.35 3.45 -0.25 3.45 Q-0.2 3.45 -0.15 3.5 L-0.05 3.5 -0.1 3.6 -0.15 3.65 -0.15 3.75 Q-0.25 3.8 -0.55 3.9 L-0.8 3.9 -0.9 3.85 -1.3 3.75 -1.3 3.35 -0.95 3.25 -0.6 3.25" fill="#83898a" fill-rule="evenodd" stroke="none"/>
    <path d="M1.25 -2.2 L1.2 -1.95 1.15 -1.9 Q1.1 -1.8 0.9 -1.75 L0.9 -1.6 Q0.85 -1.55 0.8 -1.55 L0.7 -1.55 0.65 -1.4 0.6 -1.35 0.6 -1.45 0.55 -1.45 0.55 -1.25 0.5 -1.05 0.45 -1.0 Q0.4 -1.15 0.4 -1.45 0.4 -1.4 0.45 -1.4 L0.45 -1.4 0.55 -1.55 0.5 -1.7 Q0.9 -1.75 1.25 -2.15 L1.25 -2.2 M0.0 3.45 L-0.05 3.65 -0.05 3.65 Q-0.15 3.8 -0.35 3.9 L-0.7 4.0 -1.2 3.85 -1.25 3.8 -1.35 3.75 -1.4 3.7 -1.4 3.7 -1.45 3.6 -1.45 3.55 -1.4 3.5 -1.4 3.5 -1.35 3.3 -1.25 3.25 -1.2 3.25 Q-1.05 3.15 -1.0 3.15 L-0.75 3.1 -0.55 3.15 -0.55 3.15 -0.25 3.25 -0.2 3.3 -0.15 3.3 0.0 3.45 0.0 3.45 M-1.5 -2.1 L-1.5 -2.2 -1.45 -2.3 -1.35 -2.15 Q-1.2 -2.0 -1.0 -1.95 L-0.6 -1.85 -0.55 -1.7 -0.4 -1.65 -0.35 -1.7 -0.35 -1.35 -0.25 -1.25 -0.25 -1.25 -0.35 -1.15 Q-0.45 -1.15 -0.5 -1.05 L-0.55 -1.05 -0.6 -1.05 -0.7 -1.45 -0.65 -1.7 Q-0.8 -1.55 -0.8 -1.65 -0.85 -1.65 -0.85 -1.75 L-0.9 -1.7 -1.25 -0.8 -1.15 -1.25 -1.0 -1.7 -1.0 -1.7 -1.05 -1.65 -1.1 -1.55 -1.15 -1.6 -1.15 -1.65 -1.1 -1.7 -1.15 -1.8 -1.25 -1.8 Q-1.35 -1.8 -1.35 -1.85 L-1.45 -2.0 Q-1.45 -2.1 -1.5 -2.1 M-0.95 -2.95 L-1.0 -2.8 -1.05 -2.75 -1.05 -2.65 -1.0 -2.65 -1.0 -2.65 Q-1.0 -2.6 -1.0 -2.6 L-1.0 -2.55 -1.15 -2.5 -1.15 -2.5 -1.2 -2.4 -1.2 -2.3 -0.9 -2.1 Q-0.8 -2.0 -0.65 -2.0 L-0.6 -1.95 -0.2 -1.95 0.3 -2.0 0.6 -2.05 Q0.65 -2.15 0.6 -2.2 0.6 -2.25 0.6 -2.3 L0.7 -2.3 0.8 -2.25 1.0 -2.3 Q1.05 -2.45 1.05 -2.5 L0.95 -2.5 Q0.95 -2.55 0.85 -2.6 L0.9 -2.75 0.9 -2.85 0.9 -2.85 0.9 -2.85 1.15 -2.5 Q1.2 -2.3 1.1 -2.2 0.75 -1.75 -0.15 -1.9 L-0.6 -1.9 Q-1.1 -2.0 -1.25 -2.2 -1.35 -2.3 -1.35 -2.45 L-1.3 -2.65 -1.25 -2.7 -0.95 -2.95 M-0.6 3.25 L-0.95 3.25 -1.3 3.35 -1.3 3.75 -0.9 3.85 -0.8 3.9 -0.55 3.9 Q-0.25 3.8 -0.15 3.75 L-0.15 3.65 -0.1 3.6 -0.05 3.5 -0.15 3.5 Q-0.2 3.45 -0.25 3.45 L-0.35 3.45 -0.4 3.35 Q-0.35 3.3 -0.3 3.3 L-0.35 3.3 -0.45 3.25 -0.6 3.25" fill="#585e5f" fill-rule="evenodd" stroke="none"/>
    <path d="M1.2 -1.95 L1.15 -1.75 1.15 -1.7 1.1 -1.7 1.1 -1.7 1.0 -1.6 0.95 -1.45 0.85 -1.45 0.8 -1.4 0.75 -1.35 0.55 -1.25 0.5 -0.95 0.4 -0.9 0.35 -1.25 0.25 -1.25 0.2 -1.25 0.2 -0.8 Q0.2 -0.65 0.1 -0.5 L0.1 -0.5 -0.2 -0.5 -0.55 -0.4 -0.65 -0.3 -0.7 -0.35 -0.75 -0.4 -0.85 -0.4 -0.8 -0.85 -0.8 -1.5 -0.85 -1.55 -0.95 -1.5 -1.1 -1.15 -1.25 -0.65 -1.25 -0.65 -1.3 -0.65 -1.3 -0.65 Q-1.4 -0.8 -1.25 -1.2 L-1.15 -1.6 -1.1 -1.55 -1.05 -1.65 -1.0 -1.7 -1.0 -1.7 -1.15 -1.25 -1.25 -0.8 -0.9 -1.7 -0.85 -1.75 Q-0.85 -1.65 -0.8 -1.65 -0.8 -1.55 -0.65 -1.7 L-0.7 -1.45 -0.6 -1.05 -0.55 -1.05 -0.5 -1.05 Q-0.45 -1.15 -0.35 -1.15 L-0.25 -1.25 -0.25 -1.25 -0.1 -1.2 0.05 -1.25 0.05 -1.3 0.05 -1.45 0.15 -1.45 0.3 -1.35 0.35 -1.5 0.4 -1.5 0.4 -1.45 Q0.4 -1.15 0.45 -1.0 L0.5 -1.05 0.55 -1.25 0.55 -1.45 0.6 -1.45 0.6 -1.35 0.65 -1.4 0.7 -1.55 0.8 -1.55 Q0.85 -1.55 0.9 -1.6 L0.9 -1.75 Q1.1 -1.8 1.15 -1.9 L1.2 -1.95 M-1.55 -1.85 L-1.5 -2.1 Q-1.45 -2.1 -1.45 -2.0 L-1.35 -1.85 Q-1.35 -1.8 -1.25 -1.8 L-1.15 -1.8 -1.1 -1.7 -1.15 -1.65 -1.55 -1.85 M-1.0 -2.8 L-1.0 -2.65 -1.0 -2.65 -1.05 -2.65 -1.05 -2.75 -1.0 -2.8 M-1.0 -2.55 L-1.0 -2.45 -0.95 -2.3 Q-0.85 -2.15 -0.75 -2.1 L-0.6 -2.05 Q0.0 -2.0 0.45 -2.2 0.75 -2.35 0.85 -2.6 0.95 -2.55 0.95 -2.5 L1.05 -2.5 Q1.05 -2.45 1.0 -2.3 L0.8 -2.25 0.7 -2.3 0.6 -2.3 Q0.6 -2.25 0.6 -2.2 0.65 -2.15 0.6 -2.05 L0.3 -2.0 -0.2 -1.95 -0.6 -1.95 -0.65 -2.0 Q-0.8 -2.0 -0.9 -2.1 L-1.2 -2.3 -1.2 -2.4 -1.15 -2.5 -1.15 -2.5 -1.0 -2.55 M-0.05 0.05 L-0.1 0.15 -0.1 0.2 -0.05 0.3 0.05 0.25 0.0 0.4 0.05 0.6 Q0.05 0.5 0.1 0.5 0.1 0.45 0.15 0.45 L0.05 0.95 Q0.0 1.3 0.0 1.45 L-0.05 1.5 -0.1 1.15 -0.15 1.15 -0.2 2.0 -0.9 2.05 -1.05 2.05 -1.05 2.0 -1.05 1.95 -1.0 1.85 -0.95 1.8 -0.95 1.5 Q-0.9 1.2 -0.95 1.1 L-0.95 1.15 Q-0.95 1.2 -1.0 1.25 L-1.05 0.8 Q-1.1 0.55 -1.0 0.3 L-1.0 0.65 -0.95 0.95 -0.9 0.9 -0.8 0.05 -0.8 0.05 -0.7 0.1 -0.55 0.05 -0.45 0.0 -0.1 0.05 -0.1 0.05 -0.05 0.05 M-0.8 0.05 L-0.8 0.05 M-0.2 2.75 L-0.2 3.3 -0.25 3.25 -0.55 3.15 -0.55 3.15 -0.75 3.1 -1.0 3.15 -0.95 3.1 -0.9 3.0 -0.8 3.0 -0.55 2.9 -0.55 2.9 -0.2 2.75" fill="#2c3335" fill-rule="evenodd" stroke="none"/>
    <path d="M1.15 -1.7 L1.1 -1.5 1.1 -1.1 1.0 -1.15 1.0 -1.05 0.9 -0.9 0.85 -0.85 0.45 -0.6 0.2 -0.45 0.1 -0.5 0.1 -0.5 Q0.2 -0.65 0.2 -0.8 L0.2 -1.25 0.25 -1.25 0.35 -1.25 0.4 -0.9 0.5 -0.95 0.55 -1.25 0.75 -1.35 0.8 -1.4 0.85 -1.45 0.95 -1.45 1.0 -1.6 1.1 -1.7 1.1 -1.7 1.15 -1.7 M1.05 -0.65 Q0.95 -0.2 0.75 0.35 L0.5 1.05 0.45 1.35 0.35 1.55 -0.1 1.95 -0.2 2.0 -0.15 1.15 -0.1 1.15 -0.05 1.5 0.0 1.45 Q0.0 1.3 0.05 0.95 L0.15 0.45 Q0.1 0.45 0.1 0.5 0.05 0.5 0.05 0.6 L0.0 0.4 0.05 0.25 -0.05 0.3 -0.1 0.2 -0.1 0.15 -0.05 0.05 0.25 -0.05 0.35 -0.1 Q0.5 -0.15 0.55 -0.2 L0.6 -0.25 0.6 -0.3 0.8 -0.35 0.85 -0.45 0.9 -0.45 1.0 -0.6 1.05 -0.65 M0.15 2.6 L0.1 2.75 -0.05 3.25 -0.05 3.25 0.0 3.45 0.0 3.45 -0.15 3.3 -0.2 3.3 -0.2 2.75 -0.15 2.75 0.0 2.65 0.15 2.6 M-1.45 3.6 L-1.45 3.4 -1.4 3.35 -1.4 3.25 Q-1.35 3.1 -1.35 2.95 L-0.9 3.0 -0.95 3.1 -1.0 3.15 Q-1.05 3.15 -1.2 3.25 L-1.25 3.25 -1.35 3.3 -1.4 3.5 -1.4 3.5 -1.45 3.55 -1.45 3.6 M-1.35 1.85 L-1.45 0.75 -1.5 -0.15 -1.3 -0.05 -1.15 -0.05 Q-1.05 -0.05 -1.05 -0.15 L-0.9 -0.05 -0.85 0.05 -0.8 0.05 -0.8 0.05 -0.9 0.9 -0.95 0.95 -1.0 0.65 -1.0 0.3 Q-1.1 0.55 -1.05 0.8 L-1.0 1.25 Q-0.95 1.2 -0.95 1.15 L-0.95 1.1 Q-0.9 1.2 -0.95 1.5 L-0.95 1.8 -1.0 1.85 -1.05 1.95 -1.05 2.0 -1.35 1.85 M-1.6 -0.85 L-1.55 -0.9 -1.55 -1.85 -1.15 -1.65 -1.15 -1.6 -1.25 -1.2 Q-1.4 -0.8 -1.3 -0.65 -1.5 -0.7 -1.5 -0.75 L-1.55 -0.75 -1.6 -0.85 M-1.25 -0.65 L-1.25 -0.65 -1.1 -1.15 -0.95 -1.5 -0.85 -1.55 -0.8 -1.5 -0.8 -0.85 -0.85 -0.4 -1.0 -0.4 -1.05 -0.45 -1.15 -0.5 -1.15 -0.55 -1.25 -0.65 M-1.0 -0.4 L-1.0 -0.4" fill="#1f2425" fill-rule="evenodd" stroke="none"/>
    <path d="M1.1 -1.1 L1.1 -1.1 Q1.2 -1.0 1.15 -0.85 L1.1 -0.7 1.1 -0.85 0.95 -0.85 0.85 -0.85 0.9 -0.9 1.0 -1.05 1.0 -1.15 1.1 -1.1 M-1.5 -0.15 L-1.55 -0.15 -1.55 -0.2 Q-1.65 -0.3 -1.65 -0.55 L-1.6 -0.85 -1.55 -0.75 Q-1.6 -0.6 -1.6 -0.45 -1.6 -0.3 -1.5 -0.25 -1.3 -0.05 -1.2 -0.2 -1.1 -0.35 -1.15 -0.5 L-1.05 -0.45 -1.15 -0.05 -1.3 -0.05 -1.5 -0.15 M-0.65 -0.3 L-0.55 -0.4 -0.55 -0.3 -0.45 -0.25 Q-0.4 -0.2 -0.45 -0.1 L-0.45 -0.05 0.0 -0.05 0.0 -0.05 Q0.2 -0.1 0.3 -0.2 L0.3 -0.2 0.4 -0.2 Q0.5 -0.2 0.6 -0.25 L0.55 -0.2 Q0.5 -0.15 0.35 -0.1 L0.25 -0.05 -0.05 0.05 -0.1 0.05 -0.1 0.05 -0.45 0.0 -0.5 -0.05 -0.55 -0.15 -0.6 -0.25 -0.65 -0.3 M0.45 -0.6 L0.45 -0.6 0.5 -0.55 0.6 -0.6 0.55 -0.5 Q0.55 -0.45 0.5 -0.5 0.5 -0.4 0.55 -0.4 L0.7 -0.4 0.8 -0.35 0.6 -0.3 0.55 -0.3 0.35 -0.35 0.2 -0.45 0.45 -0.6 M-1.0 -0.4 L-1.0 -0.4 Q-1.05 -0.2 -0.85 0.05 L-0.9 -0.05 -1.05 -0.15 Q-1.0 -0.15 -1.0 -0.25 L-1.0 -0.4 M-0.8 0.05 L-0.7 0.05 -0.6 0.0 -0.55 0.0 Q-0.55 0.0 -0.55 0.05 L-0.7 0.1 -0.8 0.05" fill="#a39b92" fill-rule="evenodd" stroke="none"/>
    <path d="M1.1 -0.7 L1.05 -0.65 1.0 -0.6 0.9 -0.45 0.85 -0.45 0.8 -0.35 0.7 -0.4 0.55 -0.4 Q0.5 -0.4 0.5 -0.5 0.55 -0.45 0.55 -0.5 L0.6 -0.6 0.5 -0.55 0.45 -0.6 0.45 -0.6 0.85 -0.85 0.95 -0.85 1.1 -0.85 1.1 -0.7 M-1.3 -0.65 L-1.3 -0.65 -1.25 -0.65 -1.15 -0.55 -1.15 -0.5 Q-1.1 -0.35 -1.2 -0.2 -1.3 -0.05 -1.5 -0.25 -1.6 -0.3 -1.6 -0.45 -1.6 -0.6 -1.55 -0.75 L-1.5 -0.75 Q-1.5 -0.7 -1.3 -0.65 M-0.85 -0.4 L-0.75 -0.4 -0.7 -0.35 -0.65 -0.15 -0.55 0.0 -0.6 0.0 -0.7 0.05 -0.8 0.05 -0.8 0.05 -0.85 0.05 Q-1.05 -0.2 -1.0 -0.4 L-0.85 -0.4 M-0.55 -0.4 L-0.2 -0.5 0.1 -0.5 0.2 -0.45 0.35 -0.35 Q0.3 -0.25 0.3 -0.25 L0.3 -0.2 0.3 -0.2 Q0.2 -0.1 0.0 -0.05 L0.0 -0.05 -0.45 -0.05 -0.45 -0.1 Q-0.4 -0.2 -0.45 -0.25 L-0.55 -0.3 -0.55 -0.4" fill="#cbc9ba" fill-rule="evenodd" stroke="none"/>
    <path d="M-0.7 -0.35 L-0.65 -0.3 -0.6 -0.25 -0.55 -0.15 -0.5 -0.05 -0.45 0.0 -0.55 0.05 Q-0.55 0.0 -0.55 0.0 L-0.65 -0.15 -0.7 -0.35 M0.6 -0.25 Q0.5 -0.2 0.4 -0.2 L0.3 -0.2 0.3 -0.25 Q0.3 -0.25 0.35 -0.35 L0.55 -0.3 0.6 -0.3 0.6 -0.25 M-1.05 -0.45 L-1.0 -0.4 -1.0 -0.25 Q-1.0 -0.15 -1.05 -0.15 -1.05 -0.05 -1.15 -0.05 L-1.05 -0.45" fill="#7e7871" fill-rule="evenodd" stroke="none"/>
    <path d="M0.3 1.8 L0.2 2.3 -0.1 2.45 Q-0.2 2.4 -0.55 2.25 L-0.55 2.15 -0.15 2.05 Q0.15 2.0 0.3 1.8 M0.2 2.35 L0.15 2.6 0.0 2.65 -0.15 2.75 -0.2 2.75 -0.55 2.9 -0.55 2.9 -0.55 2.6 -0.45 2.6 0.2 2.35 M-1.35 2.95 Q-1.35 2.75 -1.35 2.45 L-0.75 2.6 -0.75 2.85 -0.8 3.0 -0.9 3.0 -1.35 2.95 M-1.4 2.3 Q-1.35 2.05 -1.35 1.85 L-1.05 2.0 -1.05 2.05 -1.0 2.05 -0.9 2.1 -0.9 2.35 -1.15 2.35 -1.4 2.3 M-1.1 2.45 L-0.95 2.4 -0.8 2.4 Q-0.75 2.3 -0.8 2.25 L-0.75 2.25 -0.75 2.25 -0.65 2.4 -0.7 2.5 -0.85 2.5 -0.8 2.5 -0.95 2.5 -1.1 2.45 M-0.6 2.5 L-0.55 2.3 Q-0.3 2.4 -0.25 2.5 L-0.5 2.5 -0.6 2.5" fill="#4d1f1c" fill-rule="evenodd" stroke="none"/>
    <path d="M0.35 1.55 L0.3 1.8 Q0.15 2.0 -0.15 2.05 L-0.55 2.15 -0.55 2.25 Q-0.2 2.4 -0.1 2.45 L0.2 2.3 0.2 2.35 -0.45 2.6 -0.55 2.6 -0.55 2.9 -0.8 3.0 -0.75 2.85 -0.75 2.6 -1.35 2.45 -1.4 2.45 -1.4 2.4 -1.35 2.4 -1.35 2.35 -1.4 2.3 -1.15 2.35 -0.9 2.35 -0.9 2.1 -1.0 2.05 -1.05 2.05 -0.9 2.05 -0.2 2.0 -0.1 1.95 0.35 1.55 M-1.1 2.45 L-0.95 2.5 -0.8 2.5 -0.85 2.5 -0.7 2.5 -0.65 2.4 -0.75 2.25 -0.75 2.25 -0.8 2.25 Q-0.75 2.3 -0.8 2.4 L-0.95 2.4 -1.1 2.45 M-0.6 2.5 L-0.5 2.5 -0.25 2.5 Q-0.3 2.4 -0.55 2.3 L-0.6 2.5" fill="#692b27" fill-rule="evenodd" stroke="none"/>
    <path d="M-0.95 -3.05 L-0.8 -3.25 -0.75 -3.4 -0.65 -3.55 Q-0.55 -3.75 -0.3 -3.9 -0.05 -4.1 0.15 -4.1 0.45 -4.1 0.75 -3.7 1.0 -3.3 1.0 -3.05 L0.95 -2.95 1.15 -2.65 1.25 -2.3 1.25 -2.2 1.2 -1.95 1.15 -1.75 1.15 -1.7 1.1 -1.5 1.1 -1.1 1.1 -1.1 Q1.2 -1.0 1.15 -0.85 L1.1 -0.7 1.05 -0.65 Q0.95 -0.2 0.75 0.35 L0.5 1.05 0.45 1.35 0.35 1.55 0.3 1.8 0.2 2.3 0.2 2.35 0.15 2.6 0.1 2.75 -0.05 3.25 -0.05 3.25 0.0 3.45 -0.05 3.65 -0.05 3.65 Q-0.15 3.8 -0.35 3.9 L-0.7 4.0 -1.2 3.85 -1.25 3.8 -1.35 3.75 -1.4 3.7 -1.4 3.7 -1.45 3.6 -1.45 3.4 -1.4 3.35 -1.4 3.25 Q-1.35 3.1 -1.35 2.95 -1.35 2.75 -1.35 2.45 L-1.4 2.45 -1.4 2.4 -1.35 2.4 -1.35 2.35 -1.4 2.3 Q-1.35 2.05 -1.35 1.85 L-1.45 0.75 -1.5 -0.15 -1.55 -0.15 -1.55 -0.2 Q-1.65 -0.3 -1.65 -0.55 L-1.6 -0.85 -1.55 -0.9 -1.55 -1.85 -1.5 -2.1 -1.5 -2.2 -1.45 -2.3 -1.5 -2.45 -1.45 -2.5 -1.3 -2.75 Q-1.15 -2.95 -0.95 -3.05 Z" fill="none" stroke="#000000" stroke-linecap="round" stroke-linejoin="round" stroke-opacity="0.4509804" stroke-width="0.1"/>
  </g>
</svg>
