<?xml version="1.0" encoding="UTF-8" standalone="no"?>
<svg xmlns:xlink="http://www.w3.org/1999/xlink" height="3.8px" width="3.3px" xmlns="http://www.w3.org/2000/svg">
  <g transform="matrix(1.0, 0.0, 0.0, 1.0, 1.95, 1.8)">
    <path d="M0.15 -0.9 L0.2 -0.75 0.3 -0.6 0.45 -0.5 0.5 -0.45 0.7 -0.1 1.0 0.35 1.15 0.6 1.25 0.95 1.3 1.1 1.35 1.25 1.35 1.6 Q1.25 1.8 1.05 1.9 L0.95 1.9 0.85 1.95 0.8 2.0 0.55 2.0 0.45 2.0 -0.05 1.7 -0.35 1.4 -0.5 1.3 -0.55 1.2 -0.6 1.2 -0.75 1.05 -0.9 0.85 -1.1 0.65 -1.25 0.45 -1.25 0.3 -1.3 0.2 -1.3 0.15 -1.35 0.1 -1.35 0.05 -1.45 -0.1 -1.6 -0.25 Q-1.85 -0.55 -1.85 -0.65 L-1.9 -0.8 Q-1.9 -0.9 -1.95 -1.15 L-1.95 -1.25 -1.95 -1.25 -1.9 -1.35 -1.9 -1.4 -1.85 -1.5 -1.8 -1.55 -1.75 -1.65 -1.6 -1.75 -1.55 -1.8 -1.5 -1.8 -1.3 -1.75 -1.3 -1.8 -1.25 -1.8 -1.25 -1.75 -1.2 -1.8 -1.2 -1.75 -0.95 -1.75 -0.55 -1.65 -0.5 -1.65 Q-0.45 -1.65 -0.25 -1.5 0.0 -1.35 0.0 -1.25 L0.05 -1.2 0.05 -1.1 0.1 -1.05 0.1 -1.0 0.15 -1.0 0.15 -0.95 Q0.15 -0.95 0.15 -0.9" fill="#ee8b5f" fill-rule="evenodd" stroke="none"/>
  </g>
</svg>
