<?xml version="1.0" encoding="UTF-8" standalone="no"?>
<svg xmlns:xlink="http://www.w3.org/1999/xlink" height="2.05px" width="2.55px" xmlns="http://www.w3.org/2000/svg">
  <g transform="matrix(1.0, 0.0, 0.0, 1.0, 1.2, 0.35)">
    <path d="M0.05 -0.25 L0.05 -0.3 0.1 -0.25 0.15 -0.35 0.25 -0.2 0.3 -0.25 0.3 -0.2 0.35 -0.3 0.4 -0.2 0.5 -0.3 0.5 -0.3 0.45 -0.2 0.55 -0.25 0.55 -0.2 0.65 -0.25 0.7 -0.3 0.7 -0.2 0.85 -0.3 0.9 -0.2 0.95 -0.15 0.95 -0.15 1.0 -0.2 Q1.05 -0.2 1.15 -0.3 L1.2 -0.25 1.2 -0.25 1.2 -0.2 1.15 -0.1 1.15 -0.1 1.25 0.05 1.3 0.15 1.35 0.2 1.3 0.4 1.2 0.65 1.15 0.9 1.15 1.05 Q1.1 1.2 1.1 1.4 L1.0 1.6 0.85 1.7 0.75 1.7 0.65 1.7 0.45 1.65 Q0.25 1.6 0.05 1.5 -0.15 1.35 -0.4 1.3 -0.5 1.25 -0.55 1.15 L-0.6 0.95 -0.55 1.0 -0.45 1.0 -0.45 0.9 -0.45 0.85 -0.3 0.9 -0.25 0.85 -0.25 0.85 -0.2 0.8 -0.2 0.8 -0.35 0.7 -0.3 0.7 -0.25 0.7 -0.35 0.6 -0.35 0.6 -0.2 0.55 -0.2 0.55 Q-0.3 0.55 -0.35 0.45 L-0.3 0.45 -0.35 0.4 -0.35 0.4 -0.3 0.4 -0.2 0.4 -0.35 0.3 -0.25 0.3 -0.25 0.25 -0.2 0.25 -0.4 0.15 -0.4 0.1 -0.35 0.15 -0.3 0.1 -0.3 0.1 -0.4 0.1 -0.4 0.0 -0.35 0.05 -0.3 0.0 -0.35 -0.05 -0.4 -0.05 -0.35 -0.1 Q-0.3 -0.1 -0.3 -0.1 L-0.3 -0.1 -0.35 -0.2 -0.35 -0.2 -0.3 -0.2 -0.3 -0.25 -0.3 -0.3 -0.2 -0.2 -0.2 -0.25 -0.25 -0.3 -0.2 -0.35 -0.1 -0.25 -0.05 -0.25 -0.05 -0.3 0.0 -0.25 0.05 -0.25 M-0.85 0.3 L-0.85 0.45 -0.85 0.5 -0.8 0.55 -0.8 0.65 -0.85 0.65 -0.9 0.7 -0.9 0.65 -0.95 0.65 -1.15 0.55 -1.2 0.45 -1.15 0.35 -1.15 0.3 -1.15 0.1 Q-1.15 0.1 -1.05 0.05 L-1.0 0.15 -0.95 0.15 -0.85 0.3" fill="#bb6d4a" fill-rule="evenodd" stroke="none"/>
  </g>
</svg>
