<?xml version="1.0" encoding="UTF-8" standalone="no"?>
<svg xmlns:xlink="http://www.w3.org/1999/xlink" height="2.65px" width="2.45px" xmlns="http://www.w3.org/2000/svg">
  <g transform="matrix(1.0, 0.0, 0.0, 1.0, 1.1, 1.0)">
    <path d="M0.5 -1.0 L0.65 -1.0 0.8 -1.0 Q1.1 -1.0 1.2 -0.8 L1.2 -0.75 1.3 -0.5 1.35 -0.3 1.35 -0.05 1.35 0.0 1.3 0.0 1.3 0.05 1.25 0.1 1.3 0.3 1.05 1.45 Q1.05 1.65 0.45 1.65 L0.4 1.65 0.35 1.6 0.3 1.6 Q0.15 1.6 0.0 1.5 L-0.35 1.3 Q-0.5 1.2 -0.55 1.05 L-0.6 0.75 -0.65 0.75 -0.75 0.8 -0.95 0.75 -0.95 0.7 Q-1.05 0.65 -1.05 0.55 L-1.05 0.45 -1.05 0.35 -1.1 0.3 -1.1 0.15 -1.05 0.1 -0.95 0.1 Q-0.9 0.1 -0.8 0.15 L-0.7 0.3 -0.65 0.4 -0.65 0.45 -0.6 0.55 -0.6 0.4 -0.6 0.35 -0.55 0.3 -0.5 0.05 -0.45 -0.05 -0.45 -0.1 -0.4 -0.1 -0.3 -0.3 -0.3 -0.3 -0.35 -0.5 -0.15 -0.7 0.0 -0.85 Q0.05 -0.85 0.2 -0.9 L0.2 -0.95 0.35 -0.95 0.35 -0.85 0.3 -0.8 0.35 -0.8 0.4 -0.85 0.45 -0.95 0.5 -0.8 0.45 -0.7 Q0.35 -0.6 0.35 -0.55 L0.4 -0.45 Q0.4 -0.35 0.5 -0.3 L0.55 -0.3 0.55 -0.3 0.7 -0.3 0.7 -0.15 0.75 -0.1 0.8 -0.05 0.8 -0.15 0.85 -0.2 0.85 -0.4 Q0.8 -0.45 0.7 -0.5 0.5 -0.5 0.5 -0.55 L0.6 -0.65 0.65 -0.75 0.55 -0.95 0.5 -0.95 0.5 -1.0" fill="#8c4f3d" fill-rule="evenodd" stroke="none"/>
  </g>
</svg>
