<?xml version="1.0" encoding="UTF-8" standalone="no"?>
<svg xmlns:xlink="http://www.w3.org/1999/xlink" height="3.2px" width="3.1px" xmlns="http://www.w3.org/2000/svg">
  <g transform="matrix(1.0, 0.0, 0.0, 1.0, 1.75, 1.8)">
    <path d="M0.2 -0.9 L0.4 -0.5 0.65 0.0 1.1 0.45 Q1.35 0.75 1.35 0.8 L1.35 0.85 1.25 1.1 Q1.15 1.35 1.05 1.35 L0.9 1.4 0.55 1.35 0.3 1.2 0.25 1.2 0.2 1.15 0.1 1.05 -0.25 0.85 -0.25 0.85 -0.4 0.8 -0.4 0.75 -0.7 0.6 -0.75 0.6 -1.05 0.35 -1.05 0.3 -1.1 0.3 -1.3 0.1 -1.5 -0.15 -1.6 -0.5 -1.75 -1.05 -1.75 -1.2 -1.7 -1.35 -1.65 -1.4 -1.65 -1.4 Q-1.65 -1.55 -1.5 -1.65 -1.35 -1.75 -1.15 -1.75 L-1.05 -1.8 Q-0.85 -1.8 -0.5 -1.6 L-0.35 -1.45 -0.3 -1.4 -0.25 -1.35 -0.2 -1.3 -0.15 -1.3 0.0 -1.15 0.2 -0.95 0.2 -0.9" fill="#cb8454" fill-rule="evenodd" stroke="none"/>
  </g>
</svg>
