<?xml version="1.0" encoding="UTF-8" standalone="no"?>
<svg xmlns:xlink="http://www.w3.org/1999/xlink" height="2.7px" width="2.55px" xmlns="http://www.w3.org/2000/svg">
  <g transform="matrix(1.0, 0.0, 0.0, 1.0, 1.85, 1.9)">
    <path d="M-0.05 -1.25 L-0.05 -1.2 0.0 -1.1 0.05 -1.0 -0.05 -1.0 -0.05 -1.1 -0.1 -1.15 Q-0.2 -1.05 -0.25 -1.15 L-0.35 -1.3 -0.35 -1.15 -0.55 -1.25 -0.55 -1.25 -0.65 -1.3 -0.65 -1.4 -0.7 -1.4 -0.75 -1.45 -0.75 -1.45 -0.8 -1.45 -0.8 -1.45 -0.75 -1.35 -0.7 -1.3 -0.75 -1.2 -0.75 -1.2 -0.8 -1.15 -0.85 -1.2 -0.85 -1.1 -0.85 -1.0 -0.8 -1.0 -0.75 -1.05 -0.75 -1.05 Q-0.7 -1.1 -0.65 -1.05 L-0.65 -1.0 -0.6 -0.95 -0.55 -0.95 -0.5 -0.95 -0.5 -0.9 -0.55 -0.9 -0.6 -0.85 -0.65 -0.8 -0.7 -0.8 -0.75 -0.7 -0.75 -0.65 -0.75 -0.65 Q-0.75 -0.55 -0.8 -0.55 -0.8 -0.5 -0.85 -0.5 L-0.9 -0.55 -0.9 -0.55 -0.95 -0.55 -0.95 -0.5 -0.95 -0.4 -0.95 -0.35 Q-0.9 -0.35 -0.85 -0.35 L-0.85 -0.25 -0.85 -0.25 -0.95 -0.15 -0.9 -0.15 -0.95 -0.15 -0.95 -0.1 -1.05 -0.1 -1.05 -0.1 -1.1 -0.15 -1.1 -0.25 -1.15 -0.35 -1.15 -0.35 -1.2 -0.35 -1.2 -0.4 -1.25 -0.45 -1.3 -0.45 -1.35 -0.45 -1.35 -0.45 -1.4 -0.45 -1.35 -0.45 -1.35 -0.4 -1.45 -0.25 -1.4 -0.2 -1.45 -0.15 -1.5 -0.1 Q-1.65 -0.3 -1.65 -0.45 L-1.65 -0.6 -1.8 -1.1 -1.8 -1.25 -1.75 -1.3 -1.7 -1.45 -1.6 -1.6 -1.6 -1.6 -1.55 -1.65 -1.5 -1.7 -1.45 -1.75 -1.35 -1.75 Q-1.3 -1.75 -1.3 -1.8 L-1.3 -1.8 -1.2 -1.8 -1.1 -1.8 -1.0 -1.85 -0.7 -1.75 -0.55 -1.65 -0.4 -1.6 Q-0.4 -1.55 -0.1 -1.3 L-0.05 -1.25 M-0.8 0.55 L-0.85 0.45 -0.8 0.3 -0.8 0.2 -0.75 0.25 -0.75 0.15 -0.75 0.05 -0.75 0.05 -0.7 -0.05 -0.7 -0.15 -0.7 -0.15 -0.6 -0.3 -0.55 -0.3 Q-0.45 -0.3 -0.45 -0.4 L-0.45 -0.45 -0.4 -0.5 Q-0.35 -0.5 -0.3 -0.55 L-0.3 -0.55 -0.25 -0.55 -0.2 -0.55 -0.15 -0.6 -0.05 -0.6 -0.05 -0.55 0.0 -0.55 0.0 -0.55 0.15 -0.65 0.35 -0.6 0.4 -0.6 0.4 -0.6 0.6 -0.45 0.65 -0.35 Q0.65 -0.25 0.6 -0.25 L0.5 -0.25 0.3 -0.1 0.2 -0.1 0.2 -0.05 0.1 -0.05 0.05 -0.1 0.05 -0.1 0.0 -0.1 -0.05 -0.05 -0.05 -0.05 -0.2 0.05 -0.2 0.05 -0.3 0.1 -0.35 0.1 -0.4 0.15 -0.4 0.3 -0.45 0.35 -0.45 0.4 -0.5 0.45 -0.45 0.45 -0.5 0.5 -0.5 0.7 Q-0.55 0.7 -0.6 0.75 L-0.75 0.65 -0.8 0.55" fill="#3f3e3a" fill-rule="evenodd" stroke="none"/>
    <path d="M-0.05 -1.25 L0.2 -1.1 0.3 -0.75 0.35 -0.6 0.15 -0.65 0.0 -0.55 0.0 -0.55 -0.05 -0.55 -0.05 -0.6 -0.15 -0.6 -0.2 -0.55 -0.25 -0.55 -0.3 -0.55 -0.3 -0.55 Q-0.35 -0.5 -0.4 -0.5 L-0.45 -0.45 -0.45 -0.4 Q-0.45 -0.3 -0.55 -0.3 L-0.6 -0.3 -0.7 -0.15 -0.7 -0.15 -0.7 -0.05 -0.75 0.05 -0.75 0.05 -0.75 0.15 -0.75 0.25 -0.8 0.2 -0.8 0.3 -0.85 0.45 -0.8 0.55 Q-0.85 0.5 -0.95 0.45 L-1.05 0.4 -1.15 0.3 -1.25 0.2 -1.5 -0.1 -1.45 -0.15 -1.4 -0.2 -1.45 -0.25 -1.35 -0.4 -1.35 -0.45 -1.4 -0.45 -1.35 -0.45 -1.35 -0.45 -1.3 -0.45 -1.25 -0.45 -1.2 -0.4 -1.2 -0.35 -1.15 -0.35 -1.15 -0.35 -1.1 -0.25 -1.1 -0.15 -1.05 -0.1 -1.05 -0.1 -0.95 -0.1 -0.95 -0.15 -0.9 -0.15 -0.95 -0.15 -0.85 -0.25 -0.85 -0.25 -0.85 -0.35 Q-0.9 -0.35 -0.95 -0.35 L-0.95 -0.4 -0.95 -0.5 -0.95 -0.55 -0.9 -0.55 -0.9 -0.55 -0.85 -0.5 Q-0.8 -0.5 -0.8 -0.55 -0.75 -0.55 -0.75 -0.65 L-0.75 -0.65 -0.75 -0.7 -0.7 -0.8 -0.65 -0.8 -0.6 -0.85 -0.55 -0.9 -0.5 -0.9 -0.5 -0.95 -0.55 -0.95 -0.6 -0.95 -0.65 -1.0 -0.65 -1.05 Q-0.7 -1.1 -0.75 -1.05 L-0.75 -1.05 -0.8 -1.0 -0.85 -1.0 -0.85 -1.1 -0.85 -1.2 -0.8 -1.15 -0.75 -1.2 -0.75 -1.2 -0.7 -1.3 -0.75 -1.35 -0.8 -1.45 -0.8 -1.45 -0.75 -1.45 -0.75 -1.45 -0.7 -1.4 -0.65 -1.4 -0.65 -1.3 -0.55 -1.25 -0.55 -1.25 -0.35 -1.15 -0.35 -1.3 -0.25 -1.15 Q-0.2 -1.05 -0.1 -1.15 L-0.05 -1.1 -0.05 -1.0 0.05 -1.0 0.0 -1.1 -0.05 -1.2 -0.05 -1.25" fill="#20201e" fill-rule="evenodd" stroke="none"/>
    <path d="M0.35 -0.6 L0.3 -0.75 0.2 -1.1 -0.05 -1.25 -0.1 -1.3 Q-0.4 -1.55 -0.4 -1.6 L-0.55 -1.65 -0.7 -1.75 -1.0 -1.85 -1.1 -1.8 M-1.5 -0.1 L-1.25 0.2 -1.15 0.3 -1.05 0.4 -0.95 0.45 Q-0.85 0.5 -0.8 0.55 L-0.75 0.65 -0.6 0.75 Q-0.55 0.7 -0.5 0.7 L-0.5 0.5 -0.45 0.45 -0.5 0.45 -0.45 0.4 -0.45 0.35 -0.4 0.3 -0.4 0.15 -0.35 0.1 -0.3 0.1 -0.2 0.05 -0.2 0.05 -0.05 -0.05 -0.05 -0.05 0.0 -0.1 0.05 -0.1 0.05 -0.1 0.1 -0.05 0.2 -0.05 0.2 -0.1 0.3 -0.1 0.5 -0.25 0.6 -0.25 Q0.65 -0.25 0.65 -0.35 L0.6 -0.45 0.4 -0.6 0.4 -0.6 0.35 -0.6 M-1.75 -1.3 L-1.8 -1.25 -1.8 -1.1 -1.65 -0.6 -1.65 -0.45 Q-1.65 -0.3 -1.5 -0.1" fill="none" stroke="#000000" stroke-linecap="round" stroke-linejoin="round" stroke-opacity="0.4509804" stroke-width="0.1"/>
  </g>
</svg>
