<?xml version="1.0" encoding="UTF-8" standalone="no"?>
<svg xmlns:xlink="http://www.w3.org/1999/xlink" height="3.45px" width="3.45px" xmlns="http://www.w3.org/2000/svg">
  <g transform="matrix(1.0, 0.0, 0.0, 1.0, 1.9, 1.9)">
    <path d="M-1.75 -0.3 L-1.75 -0.35 -1.8 -0.55 -1.8 -0.85 -1.7 -0.75 -1.75 -0.75 -1.75 -0.5 Q-1.7 -0.4 -1.65 -0.4 -1.35 -0.35 -0.85 -0.85 L-0.6 -1.1 Q-0.4 -1.4 -0.35 -1.55 -0.3 -1.65 -0.35 -1.7 L-0.45 -1.75 -0.5 -1.75 -0.75 -1.7 -0.75 -1.75 -0.5 -1.8 -0.35 -1.8 -0.3 -1.75 -0.25 -1.7 -0.25 -1.6 Q-0.3 -1.4 -0.4 -1.3 L-0.6 -1.1 -0.6 -1.0 -0.65 -0.9 -0.7 -0.9 -0.65 -0.8 -0.6 -0.75 -0.65 -0.65 -0.7 -0.55 -0.8 -0.5 -0.8 -0.55 -0.85 -0.55 -0.85 -0.55 -0.9 -0.55 -0.95 -0.45 -1.05 -0.45 -1.05 -0.4 -1.05 -0.35 -1.15 -0.4 -1.15 -0.5 Q-1.4 -0.3 -1.7 -0.3 L-1.75 -0.3 M1.3 0.75 L1.35 0.8 1.4 0.95 1.25 1.15 1.2 1.25 1.05 1.35 0.8 1.45 0.75 1.45 0.7 1.45 0.75 1.35 0.75 1.3 0.8 1.25 0.85 1.2 Q0.75 1.2 0.75 1.25 L0.75 1.2 0.8 1.15 0.9 1.05 Q0.9 1.0 1.1 0.9 1.25 0.8 1.3 0.75" fill="#83898a" fill-rule="evenodd" stroke="none"/>
    <path d="M-1.55 -0.2 L-1.65 -0.25 -1.6 -0.25 Q-1.5 -0.25 -1.4 -0.3 L-1.4 -0.3 -1.35 -0.25 Q-1.3 -0.25 -1.25 -0.25 L-1.25 -0.3 -1.2 -0.25 -1.15 -0.3 -1.15 -0.3 -1.1 -0.35 -1.05 -0.25 -1.0 -0.2 -0.95 -0.2 Q-0.95 -0.3 -1.05 -0.4 L-1.05 -0.45 -0.95 -0.45 -0.9 -0.55 -0.85 -0.55 -0.85 -0.55 -0.8 -0.55 -0.8 -0.5 -0.7 -0.55 -0.65 -0.65 -0.6 -0.65 -0.55 -0.65 -0.45 -0.7 -0.4 -0.7 -0.4 -0.75 -0.45 -0.95 -0.5 -1.05 Q-0.4 -1.05 -0.4 -1.1 L-0.45 -1.15 -0.4 -1.2 0.1 -0.95 -0.1 -1.1 -0.35 -1.2 -0.3 -1.25 -0.25 -1.2 -0.25 -1.25 Q-0.2 -1.2 -0.05 -1.1 0.15 -1.05 0.15 -0.95 L0.15 -0.95 0.1 -0.9 0.1 -0.9 -0.15 -1.0 -0.3 -1.1 -0.35 -1.1 -0.4 -1.05 -0.3 -0.9 -0.2 -0.75 -0.05 -0.6 -0.1 -0.55 -0.1 -0.5 -0.1 -0.45 -0.2 -0.45 -0.4 -0.3 -0.55 -0.2 -0.6 -0.2 Q-0.7 -0.2 -0.7 -0.25 L-0.8 -0.4 -0.85 -0.4 -0.9 -0.4 -0.95 -0.35 -0.9 -0.2 -0.95 -0.15 -1.05 -0.25 -1.2 -0.2 -1.25 -0.2 -1.3 -0.2 -1.35 -0.15 -1.4 -0.2 -1.5 -0.15 -1.55 -0.15 -1.55 -0.2 M-0.2 -1.65 L-0.1 -1.55 -0.25 -1.25 -0.25 -1.25 -0.3 -1.35 -0.25 -1.4 -0.2 -1.45 -0.15 -1.55 -0.2 -1.65 M0.05 -0.4 L0.4 -0.1 0.4 -0.05 0.35 -0.25 0.25 -0.35 Q0.35 -0.3 0.4 -0.2 L0.55 0.0 Q0.5 0.05 0.5 0.0 L0.45 0.0 0.55 0.15 0.7 0.3 0.7 0.25 0.75 0.3 0.75 0.35 0.7 0.4 Q0.5 0.65 0.3 0.7 L0.05 0.4 0.0 0.4 0.1 0.6 0.05 0.6 Q0.0 0.55 -0.15 0.4 L-0.35 0.25 -0.3 0.25 Q-0.25 0.2 -0.25 0.25 L-0.2 0.25 -0.3 0.15 -0.35 0.1 -0.3 0.1 -0.3 0.05 -0.25 0.0 -0.35 0.0 -0.35 -0.05 -0.3 -0.05 Q-0.2 -0.15 -0.15 -0.25 L-0.1 -0.25 0.0 -0.3 0.05 -0.4 0.05 -0.4 M-0.6 -1.6 L-0.65 -1.65 -0.6 -1.7 -0.6 -1.65 -0.6 -1.6 -0.5 -1.65 -0.45 -1.65 -0.45 -1.6 -0.4 -1.55 -0.5 -1.35 -0.6 -1.15 -0.65 -1.15 -0.85 -0.9 -1.15 -0.7 -1.3 -0.55 Q-1.4 -0.6 -1.35 -0.65 L-1.4 -0.65 -1.45 -0.6 -1.5 -0.55 Q-1.55 -0.5 -1.6 -0.5 -1.7 -0.5 -1.7 -0.55 L-1.65 -0.6 -1.6 -0.65 Q-1.5 -0.6 -1.3 -0.7 -1.0 -0.85 -0.7 -1.15 L-0.6 -1.3 Q-0.55 -1.35 -0.55 -1.45 L-0.55 -1.55 -0.6 -1.6 M1.0 0.8 L1.05 0.8 1.1 0.8 0.95 0.95 0.85 1.05 0.75 1.15 0.7 1.2 0.7 1.25 0.55 1.1 0.5 1.05 0.75 0.95 0.8 0.95 0.95 0.85 1.0 0.8" fill="#2c3335" fill-rule="evenodd" stroke="none"/>
    <path d="M1.5 0.8 L1.5 0.85 1.45 0.85 1.45 0.9 1.4 1.0 1.25 1.2 1.15 1.3 0.95 1.45 0.7 1.5 0.65 1.4 0.7 1.3 0.7 1.25 0.7 1.2 0.75 1.15 0.85 1.05 0.95 0.95 1.1 0.8 1.25 0.75 1.35 0.7 1.4 0.75 1.45 0.75 1.45 0.8 1.5 0.8 M-1.65 -0.25 L-1.75 -0.3 -1.7 -0.3 Q-1.4 -0.3 -1.15 -0.5 L-1.15 -0.4 -1.05 -0.35 -1.05 -0.4 Q-0.95 -0.3 -0.95 -0.2 L-1.0 -0.2 -1.05 -0.25 -1.1 -0.35 -1.15 -0.3 -1.15 -0.3 -1.2 -0.25 -1.25 -0.3 -1.25 -0.25 Q-1.3 -0.25 -1.35 -0.25 L-1.4 -0.3 -1.4 -0.3 Q-1.5 -0.25 -1.6 -0.25 L-1.65 -0.25 M-0.25 -1.7 L-0.2 -1.65 -0.2 -1.65 -0.15 -1.55 -0.2 -1.45 -0.25 -1.4 -0.3 -1.35 -0.25 -1.25 -0.25 -1.25 -0.25 -1.25 -0.25 -1.2 -0.3 -1.25 -0.35 -1.2 -0.1 -1.1 0.1 -0.95 -0.4 -1.2 -0.45 -1.15 -0.4 -1.1 Q-0.4 -1.05 -0.5 -1.05 L-0.45 -0.95 -0.4 -0.75 -0.4 -0.7 -0.45 -0.7 -0.55 -0.65 -0.6 -0.65 -0.65 -0.65 -0.6 -0.75 -0.65 -0.8 -0.7 -0.9 -0.65 -0.9 -0.6 -1.0 -0.6 -1.1 -0.4 -1.3 Q-0.3 -1.4 -0.25 -1.6 L-0.25 -1.7 M-0.65 -1.65 L-0.75 -1.7 -0.5 -1.75 -0.45 -1.75 -0.35 -1.7 Q-0.3 -1.65 -0.35 -1.55 -0.4 -1.4 -0.6 -1.1 L-0.85 -0.85 Q-1.35 -0.35 -1.65 -0.4 -1.7 -0.4 -1.75 -0.5 L-1.75 -0.75 -1.7 -0.75 -1.7 -0.7 -1.6 -0.65 -1.65 -0.6 -1.7 -0.55 Q-1.7 -0.5 -1.6 -0.5 -1.55 -0.5 -1.5 -0.55 L-1.45 -0.6 -1.4 -0.65 -1.35 -0.65 Q-1.4 -0.6 -1.3 -0.55 L-1.15 -0.7 -0.85 -0.9 -0.65 -1.15 -0.6 -1.15 -0.5 -1.35 -0.4 -1.55 -0.45 -1.6 -0.45 -1.65 -0.5 -1.65 -0.6 -1.6 -0.6 -1.65 -0.6 -1.7 -0.65 -1.65 M-0.6 -1.6 L-0.6 -1.6 M1.3 0.75 Q1.25 0.8 1.1 0.9 0.9 1.0 0.9 1.05 L0.8 1.15 0.75 1.2 0.75 1.25 Q0.75 1.2 0.85 1.2 L0.8 1.25 0.75 1.3 0.75 1.35 0.7 1.45 0.75 1.45 0.8 1.45 1.05 1.35 1.2 1.25 1.25 1.15 1.4 0.95 1.35 0.8 1.3 0.75" fill="#585e5f" fill-rule="evenodd" stroke="none"/>
    <path d="M-1.8 -0.85 Q-1.85 -1.0 -1.85 -1.2 -1.8 -1.45 -1.65 -1.65 -1.2 -1.85 -1.15 -1.85 L-0.75 -1.75 -0.75 -1.7 -0.65 -1.65 -0.6 -1.6 -0.6 -1.6 -0.55 -1.55 -0.55 -1.45 Q-0.55 -1.35 -0.6 -1.3 L-0.7 -1.15 Q-1.0 -0.85 -1.3 -0.7 -1.5 -0.6 -1.6 -0.65 L-1.7 -0.7 -1.7 -0.75 -1.8 -0.85 M-0.95 -1.3 L-0.95 -1.3 -1.0 -1.25 -1.0 -1.2 -0.95 -1.15 -0.9 -1.15 -0.9 -1.2 -0.9 -1.25 -0.95 -1.3 M-0.95 -1.6 L-0.95 -1.65 -1.0 -1.65 -1.05 -1.65 -1.05 -1.6 -1.05 -1.55 -1.0 -1.55 -0.95 -1.6 M-1.65 -1.1 L-1.65 -1.1 -1.65 -1.15 -1.7 -1.15 -1.75 -1.15 -1.75 -1.1 -1.7 -1.05 -1.65 -1.05 -1.65 -1.1 M-1.3 -0.85 L-1.3 -0.9 -1.35 -0.95 -1.4 -0.9 -1.4 -0.85 -1.4 -0.8 -1.35 -0.8 -1.3 -0.85 -1.3 -0.85 M-1.35 -1.3 L-1.4 -1.25 -1.4 -1.25 -1.45 -1.2 -1.4 -1.15 -1.35 -1.15 -1.3 -1.2 -1.3 -1.25 -1.35 -1.3" fill="#35312e" fill-rule="evenodd" stroke="none"/>
    <path d="M-0.95 -1.6 L-1.0 -1.55 -1.05 -1.55 -1.05 -1.6 -1.05 -1.65 -1.0 -1.65 -0.95 -1.65 -0.95 -1.6 M-0.95 -1.3 L-0.9 -1.25 -0.9 -1.2 -0.9 -1.15 -0.95 -1.15 -1.0 -1.2 -1.0 -1.25 -0.95 -1.3 -0.95 -1.3 M-1.35 -1.3 L-1.3 -1.25 -1.3 -1.2 -1.35 -1.15 -1.4 -1.15 -1.45 -1.2 -1.4 -1.25 -1.4 -1.25 -1.35 -1.3 M-1.3 -0.85 L-1.3 -0.85 -1.35 -0.8 -1.4 -0.8 -1.4 -0.85 -1.4 -0.9 -1.35 -0.95 -1.3 -0.9 -1.3 -0.85 M-1.65 -1.1 L-1.65 -1.05 -1.7 -1.05 -1.75 -1.1 -1.75 -1.15 -1.7 -1.15 -1.65 -1.15 -1.65 -1.1 -1.65 -1.1" fill="#cbb99e" fill-rule="evenodd" stroke="none"/>
    <path d="M-0.1 -1.55 L0.0 -1.45 0.05 -1.4 0.15 -1.35 0.15 -1.35 0.25 -1.3 Q0.35 -1.2 0.25 -1.1 L0.2 -1.05 0.15 -0.95 Q0.15 -1.05 -0.05 -1.1 -0.2 -1.2 -0.25 -1.25 L-0.1 -1.55 M0.4 -0.8 L0.65 -0.4 0.9 0.1 0.75 0.3 0.7 0.25 0.7 0.3 0.55 0.15 0.45 0.0 0.5 0.0 Q0.5 0.05 0.55 0.0 L0.4 -0.2 Q0.35 -0.3 0.25 -0.35 L0.35 -0.25 0.4 -0.05 0.4 -0.1 0.05 -0.4 0.1 -0.4 0.1 -0.5 0.15 -0.55 Q0.15 -0.55 0.25 -0.6 L0.3 -0.7 0.4 -0.8 M1.25 0.55 L1.35 0.7 1.4 0.7 1.45 0.75 1.5 0.8 1.45 0.8 1.45 0.75 1.4 0.75 1.35 0.7 1.25 0.75 1.1 0.8 1.05 0.8 1.0 0.8 1.25 0.55 M0.65 1.4 L0.5 1.35 0.45 1.3 0.4 1.3 0.3 1.25 0.25 1.15 0.3 1.15 0.4 1.1 0.5 1.05 0.55 1.1 0.7 1.25 0.7 1.3 0.65 1.4 M-0.2 0.9 L-0.25 0.9 -0.35 0.8 -0.7 0.65 -1.0 0.45 -1.2 0.2 -1.1 0.25 -1.0 0.25 -1.0 0.25 -0.95 0.25 -0.85 0.15 -0.8 0.2 -0.75 0.2 -0.6 0.15 -0.5 0.1 -0.35 0.0 -0.25 0.0 -0.3 0.05 -0.3 0.1 -0.35 0.1 -0.3 0.15 -0.2 0.25 -0.25 0.25 Q-0.25 0.2 -0.3 0.25 L-0.35 0.25 -0.15 0.4 Q0.0 0.55 0.05 0.6 L0.1 0.6 0.0 0.4 0.05 0.4 0.3 0.7 0.25 0.75 -0.1 0.85 -0.15 0.85 -0.1 0.85 -0.15 0.85 -0.2 0.9 M-1.35 0.1 L-1.5 -0.05 -1.55 -0.2 -1.55 -0.15 -1.5 -0.15 -1.4 -0.2 -1.35 -0.15 -1.3 -0.2 -1.25 -0.2 -1.2 -0.2 -1.05 -0.25 -0.95 -0.15 -0.9 -0.2 -0.95 -0.35 -0.9 -0.4 -0.85 -0.4 -0.8 -0.4 -0.7 -0.25 Q-0.7 -0.2 -0.6 -0.2 L-0.55 -0.2 -0.6 -0.1 -0.8 -0.05 -1.15 0.05 -1.2 0.05 -1.25 0.05 -1.3 0.0 -1.3 0.1 -1.35 0.1 M-0.25 -1.25 L-0.25 -1.25 M0.25 -1.1 L0.25 -1.1 0.25 -1.1 M0.1 -0.9 L0.05 -0.8 0.1 -0.75 0.1 -0.7 0.05 -0.65 -0.05 -0.6 -0.2 -0.75 -0.3 -0.9 -0.4 -1.05 -0.35 -1.1 -0.3 -1.1 -0.15 -1.0 0.1 -0.9 0.1 -0.9 M0.05 -0.65 L0.05 -0.65 M-1.2 0.2 L-1.2 0.2" fill="#1f2425" fill-rule="evenodd" stroke="none"/>
    <path d="M0.15 -0.95 L0.2 -1.05 0.25 -1.1 0.35 -1.0 0.35 -0.85 Q0.3 -0.65 0.2 -0.65 0.1 -0.65 0.1 -0.75 L0.05 -0.8 0.1 -0.9 0.15 -0.95 0.15 -0.95 M-0.05 -0.6 L0.05 -0.65 Q0.1 -0.6 0.1 -0.4 L0.05 -0.4 0.0 -0.35 -0.05 -0.3 -0.1 -0.3 -0.1 -0.5 -0.1 -0.55 -0.05 -0.6 M0.05 -0.4 L0.05 -0.4 M-0.8 -0.05 L-0.8 -0.05 Q-0.8 0.0 -0.85 0.0 L-0.9 0.05 -0.85 0.05 -0.8 0.05 -0.8 0.1 -0.9 0.2 -0.95 0.25 -1.0 0.25 -1.0 0.25 -1.1 0.25 -1.2 0.2 -1.25 0.2 -1.15 0.1 -1.15 0.05 -0.8 -0.05 M-0.65 0.0 L-0.6 -0.1 -0.55 -0.2 -0.4 -0.3 -0.2 -0.45 -0.15 -0.4 -0.2 -0.3 Q-0.25 -0.25 -0.15 -0.25 L-0.15 -0.25 -0.4 -0.05 -0.4 -0.05 -0.6 0.05 -0.6 0.05 -0.65 0.0" fill="#9a2e2e" fill-rule="evenodd" stroke="none"/>
    <path d="M0.05 -0.65 L0.1 -0.7 0.25 -0.6 Q0.15 -0.55 0.15 -0.55 L0.1 -0.6 0.05 -0.65 M-0.1 -0.3 L-0.1 -0.25 -0.15 -0.25 -0.15 -0.25 -0.15 -0.4 -0.1 -0.45 -0.1 -0.5 -0.1 -0.3 M-0.85 0.15 L-0.8 0.15 -0.65 0.0 -0.6 0.05 -0.6 0.05 -0.65 0.1 -0.8 0.2 -0.85 0.15" fill="#4f1111" fill-rule="evenodd" stroke="none"/>
    <path d="M0.25 -1.1 L0.35 -1.05 Q0.45 -0.95 0.4 -0.85 L0.4 -0.8 0.3 -0.7 0.25 -0.6 0.1 -0.7 0.1 -0.75 Q0.1 -0.65 0.2 -0.65 0.3 -0.65 0.35 -0.85 L0.35 -1.0 0.25 -1.1 0.25 -1.1 0.25 -1.1 M-1.2 0.2 L-1.3 0.2 -1.35 0.1 -1.3 0.1 -1.3 0.0 -1.25 0.05 -1.2 0.05 -1.15 0.05 -1.15 0.1 -1.25 0.2 -1.2 0.2 -1.2 0.2 M0.05 -0.65 L0.05 -0.65 0.1 -0.6 0.15 -0.55 0.1 -0.5 0.1 -0.4 Q0.1 -0.6 0.05 -0.65 M0.05 -0.4 L0.0 -0.3 -0.1 -0.25 -0.1 -0.3 -0.05 -0.3 0.0 -0.35 0.05 -0.4 M-0.15 -0.25 Q-0.2 -0.15 -0.3 -0.05 L-0.35 -0.05 -0.35 0.0 -0.5 0.1 -0.6 0.15 -0.75 0.2 -0.8 0.2 -0.65 0.1 -0.6 0.05 -0.4 -0.05 -0.4 -0.05 -0.15 -0.25 -0.15 -0.25 Q-0.25 -0.25 -0.2 -0.3 L-0.15 -0.4 -0.2 -0.45 -0.1 -0.45 -0.15 -0.4 -0.15 -0.25 -0.15 -0.25 M-0.95 0.25 L-0.9 0.2 -0.8 0.1 -0.8 0.05 -0.85 0.05 -0.9 0.05 -0.85 0.0 Q-0.8 0.0 -0.8 -0.05 L-0.8 -0.05 -0.6 -0.1 -0.65 0.0 -0.8 0.15 -0.85 0.15 -0.95 0.25" fill="#801c1c" fill-rule="evenodd" stroke="none"/>
    <path d="M1.05 0.3 L1.1 0.3 1.1 0.35 0.9 0.55 0.8 0.7 0.85 0.8 0.95 0.85 0.8 0.95 0.65 0.85 0.2 1.05 0.15 1.05 0.4 0.95 0.55 0.65 0.3 0.75 Q0.1 0.9 -0.05 0.9 L-0.1 0.85 -0.15 0.85 -0.1 0.85 0.25 0.75 0.3 0.7 Q0.5 0.65 0.7 0.4 L0.75 0.35 0.7 0.45 0.8 0.55 0.95 0.4 1.05 0.3 M0.65 0.6 L0.7 0.65 0.7 0.7 0.8 0.6 0.8 0.65 0.85 0.6 1.0 0.4 0.95 0.45 0.85 0.55 0.75 0.6 0.7 0.55 0.65 0.6 M0.6 0.65 L0.45 0.9 0.65 0.8 0.7 0.75 0.6 0.65" fill="#692b27" fill-rule="evenodd" stroke="none"/>
    <path d="M0.9 0.1 L1.05 0.3 0.95 0.4 0.8 0.55 0.7 0.45 0.75 0.35 0.75 0.3 0.9 0.1 M1.1 0.35 L1.25 0.55 1.0 0.8 0.95 0.85 0.85 0.8 0.8 0.7 0.9 0.55 1.1 0.35 M0.25 1.15 L-0.1 0.9 -0.2 0.9 -0.15 0.85 -0.1 0.85 -0.05 0.9 Q0.1 0.9 0.3 0.75 L0.55 0.65 0.4 0.95 0.15 1.05 0.2 1.05 0.65 0.85 0.8 0.95 0.75 0.95 0.5 1.05 0.4 1.1 0.3 1.15 0.25 1.15 M0.65 0.6 L0.7 0.55 0.75 0.6 0.85 0.55 0.95 0.45 1.0 0.4 0.85 0.6 0.8 0.65 0.8 0.6 0.7 0.7 0.7 0.65 0.65 0.6 M0.6 0.65 L0.7 0.75 0.65 0.8 0.45 0.9 0.6 0.65" fill="#4d1f1c" fill-rule="evenodd" stroke="none"/>
    <path d="M-0.1 -1.55 L0.0 -1.45 0.05 -1.4 0.15 -1.35 0.15 -1.35 0.25 -1.3 Q0.35 -1.2 0.25 -1.1 L0.35 -1.05 Q0.45 -0.95 0.4 -0.85 L0.4 -0.8 0.65 -0.4 0.9 0.1 1.05 0.3 1.1 0.3 1.1 0.35 1.25 0.55 1.35 0.7 1.4 0.7 1.45 0.75 1.5 0.8 1.5 0.85 1.45 0.85 1.45 0.9 1.4 1.0 1.25 1.2 1.15 1.3 0.95 1.45 0.7 1.5 0.65 1.4 0.5 1.35 0.45 1.3 0.4 1.3 0.3 1.25 0.25 1.15 -0.1 0.9 -0.2 0.9 -0.25 0.9 -0.35 0.8 -0.7 0.65 -1.0 0.45 -1.2 0.2 -1.3 0.2 -1.35 0.1 -1.5 -0.05 -1.55 -0.2 -1.65 -0.25 -1.75 -0.3 -1.75 -0.35 -1.8 -0.55 -1.8 -0.85 Q-1.85 -1.0 -1.85 -1.2 -1.8 -1.45 -1.65 -1.65 -1.2 -1.85 -1.15 -1.85 L-0.75 -1.75 -0.5 -1.8 -0.35 -1.8 -0.3 -1.75 -0.25 -1.7 -0.2 -1.65 -0.2 -1.65 -0.1 -1.55 Z" fill="none" stroke="#000000" stroke-linecap="round" stroke-linejoin="round" stroke-opacity="0.4509804" stroke-width="0.1"/>
  </g>
</svg>
