<?xml version="1.0" encoding="UTF-8" standalone="no"?>
<svg xmlns:xlink="http://www.w3.org/1999/xlink" height="4.4px" width="4.4px" xmlns="http://www.w3.org/2000/svg">
  <g transform="matrix(1.0, 0.0, 0.0, 1.0, 2.2, 2.2)">
    <path d="M0.0 -1.5 L0.05 -1.6 0.05 -1.65 Q0.1 -1.75 0.2 -1.75 L0.3 -1.75 0.45 -1.9 0.6 -2.0 0.75 -2.05 0.85 -2.1 1.1 -2.1 1.4 -2.15 1.55 -2.1 1.75 -1.95 1.8 -1.8 1.85 -1.6 1.85 -1.5 1.9 -1.45 Q1.9 -1.35 1.95 -1.35 L1.85 -1.35 1.75 -1.4 1.7 -1.5 1.7 -1.65 1.65 -1.8 1.5 -1.9 Q1.3 -1.95 1.3 -1.95 L1.1 -2.0 0.95 -2.0 0.75 -1.95 0.6 -1.9 0.5 -1.75 Q0.45 -1.7 0.35 -1.7 L0.25 -1.7 0.15 -1.65 0.1 -1.6 0.1 -1.55 0.0 -1.5" fill="#997b4e" fill-rule="evenodd" stroke="none"/>
    <path d="M1.95 -1.35 Q1.9 -1.35 1.9 -1.45 L1.85 -1.5 1.85 -1.6 1.8 -1.8 1.75 -1.95 1.55 -2.1 1.4 -2.15 1.1 -2.1 0.85 -2.1 0.75 -2.05 0.6 -2.0 0.45 -1.9 0.3 -1.75 0.2 -1.75 Q0.1 -1.75 0.05 -1.65 L0.05 -1.6 0.0 -1.5 -0.1 -1.5 -0.1 -1.55 -0.05 -1.55 0.05 -1.7 0.1 -1.75 0.2 -1.85 0.3 -1.95 0.45 -2.05 Q0.6 -2.05 0.7 -2.2 L1.75 -2.2 1.9 -1.8 1.95 -1.45 Q1.95 -1.4 1.95 -1.35 L2.0 -1.35 1.95 -1.35 M-0.1 -1.5 L-0.1 -1.5" fill="#91754a" fill-rule="evenodd" stroke="none"/>
    <path d="M0.0 -1.5 L0.1 -1.55 0.1 -1.6 0.15 -1.65 0.25 -1.7 0.35 -1.7 Q0.45 -1.7 0.5 -1.75 L0.6 -1.9 0.75 -1.95 0.95 -2.0 1.1 -2.0 1.3 -1.95 Q1.3 -1.95 1.5 -1.9 L1.65 -1.8 1.7 -1.65 1.7 -1.5 1.75 -1.4 Q1.75 -1.35 1.8 -1.35 L1.75 -1.35 1.75 -1.35 1.7 -1.35 1.6 -1.5 1.5 -1.65 Q1.4 -1.75 1.25 -1.8 L0.9 -1.8 0.8 -1.85 0.7 -1.85 0.6 -1.8 0.55 -1.75 0.55 -1.65 Q0.55 -1.6 0.5 -1.65 L0.4 -1.65 0.25 -1.65 0.2 -1.6 0.15 -1.5 0.05 -1.5 -0.1 -1.5 0.0 -1.5 M0.15 -1.5 L0.15 -1.5" fill="#a28253" fill-rule="evenodd" stroke="none"/>
    <path d="M1.2 -1.35 L1.2 -1.35 1.15 -1.35 1.15 -1.35 1.0 -1.35 0.85 -1.4 0.65 -1.4 0.4 -1.45 0.25 -1.45 0.15 -1.45 0.15 -1.45 0.1 -1.5 0.15 -1.5 0.35 -1.5 1.15 -1.4 1.3 -1.35 1.45 -1.35 1.6 -1.35 1.75 -1.35 1.85 -1.3 1.75 -1.3 1.5 -1.3 1.3 -1.35 1.2 -1.35 M1.75 -1.35 L1.75 -1.35" fill="#fce190" fill-rule="evenodd" stroke="none"/>
    <path d="M0.4 -1.45 L0.65 -1.4 0.85 -1.4 1.0 -1.35 1.15 -1.35 1.15 -1.35 1.2 -1.35 1.2 -1.35 1.2 -1.3 1.25 -1.25 1.25 -1.2 1.2 -1.2 1.1 -1.25 1.05 -1.25 0.8 -1.25 0.35 -1.35 0.4 -1.4 0.4 -1.45" fill="#cca568" fill-rule="evenodd" stroke="none"/>
    <path d="M1.2 -1.35 L1.3 -1.35 1.5 -1.3 1.75 -1.3 1.75 -1.3 1.7 -1.3 1.7 -1.2 1.75 -1.2 1.5 -1.2 1.4 -1.2 1.25 -1.2 1.25 -1.25 1.2 -1.3 1.2 -1.35" fill="#b18e5a" fill-rule="evenodd" stroke="none"/>
    <path d="M1.15 -1.4 L0.35 -1.5 Q0.35 -1.5 0.4 -1.5 L0.45 -1.55 0.5 -1.55 0.65 -1.5 Q0.65 -1.55 0.75 -1.55 L0.85 -1.6 0.95 -1.65 1.05 -1.5 1.15 -1.4" fill="#bf9b62" fill-rule="evenodd" stroke="none"/>
    <path d="M1.45 -1.35 L1.3 -1.35 1.15 -1.4 1.05 -1.5 0.95 -1.65 0.85 -1.6 0.75 -1.55 Q0.65 -1.55 0.65 -1.5 L0.5 -1.55 0.45 -1.55 0.4 -1.5 Q0.35 -1.5 0.35 -1.5 L0.15 -1.5 Q0.2 -1.5 0.25 -1.55 L0.35 -1.6 0.5 -1.6 0.6 -1.6 Q0.6 -1.65 0.65 -1.75 L0.75 -1.8 1.1 -1.6 1.3 -1.55 1.4 -1.4 1.5 -1.35 1.6 -1.35 1.45 -1.35 M0.15 -1.5 L0.15 -1.5 0.15 -1.5" fill="#b4915c" fill-rule="evenodd" stroke="none"/>
    <path d="M1.6 -1.35 L1.5 -1.35 1.4 -1.4 1.3 -1.55 1.1 -1.6 0.75 -1.8 0.65 -1.75 Q0.6 -1.65 0.6 -1.6 L0.5 -1.6 0.35 -1.6 0.25 -1.55 Q0.2 -1.5 0.15 -1.5 L0.2 -1.6 0.25 -1.65 0.4 -1.65 0.5 -1.65 Q0.55 -1.6 0.55 -1.65 L0.55 -1.75 0.6 -1.8 0.7 -1.85 0.8 -1.85 0.9 -1.8 1.25 -1.8 Q1.4 -1.75 1.5 -1.65 L1.6 -1.5 1.7 -1.35 1.6 -1.35" fill="#aa8957" fill-rule="evenodd" stroke="none"/>
    <path d="M1.75 -1.3 L1.95 -1.3 2.2 -1.25 2.2 -1.15 2.0 -1.15 1.85 -1.2 1.8 -1.2 1.75 -1.2 1.7 -1.2 1.7 -1.3 1.75 -1.3 M1.85 -1.2 L1.85 -1.2" fill="#94774b" fill-rule="evenodd" stroke="none"/>
    <path d="M1.85 -1.35 L1.95 -1.35 2.0 -1.35 2.2 -1.3 2.2 -1.25 1.95 -1.3 1.75 -1.3 1.85 -1.3 1.75 -1.35 1.8 -1.35 1.85 -1.35 M1.75 -1.3 L1.75 -1.3" fill="#eac07a" fill-rule="evenodd" stroke="none"/>
    <path d="M1.75 -1.35 L1.6 -1.35 1.45 -1.35 1.6 -1.35 1.7 -1.35 1.75 -1.35" fill="#e3b674" fill-rule="evenodd" stroke="none"/>
    <path d="M2.0 -1.35 L1.95 -1.35 Q1.95 -1.4 1.95 -1.45 L1.9 -1.8 1.75 -2.2 2.2 -2.2 2.2 -1.3 2.0 -1.35" fill="#886d46" fill-rule="evenodd" stroke="none"/>
    <path d="M0.4 -2.2 L0.25 -2.05 0.1 -1.95 0.0 -1.85 Q-0.05 -1.75 -0.1 -1.75 L-0.15 -1.65 Q-0.15 -1.6 -0.2 -1.55 L-0.25 -1.55 -0.3 -1.55 -0.4 -1.55 -0.5 -1.55 -0.4 -1.55 -0.3 -1.6 Q-0.25 -1.65 -0.3 -1.7 L-0.35 -1.7 -0.2 -1.85 -0.05 -1.95 0.0 -2.05 0.1 -2.2 0.4 -2.2" fill="#79613d" fill-rule="evenodd" stroke="none"/>
    <path d="M0.1 -2.2 L0.0 -2.05 -0.05 -1.95 -0.2 -1.85 -0.35 -1.7 -0.3 -1.7 Q-0.25 -1.65 -0.3 -1.6 L-0.4 -1.55 -0.5 -1.55 -0.6 -1.55 Q-0.65 -1.55 -0.65 -1.55 L-0.75 -1.55 -0.7 -1.55 Q-0.65 -1.55 -0.6 -1.6 L-0.55 -1.7 -0.6 -1.75 -0.65 -1.75 -0.45 -1.8 -0.25 -1.85 Q-0.2 -1.9 -0.25 -1.95 L-0.3 -2.0 -0.25 -2.1 -0.2 -2.2 0.1 -2.2 M-0.5 -1.55 L-0.5 -1.55" fill="#6c5838" fill-rule="evenodd" stroke="none"/>
    <path d="M0.7 -2.2 Q0.6 -2.05 0.45 -2.05 L0.3 -1.95 0.2 -1.85 0.1 -1.75 0.05 -1.7 -0.05 -1.55 -0.1 -1.55 -0.3 -1.55 -0.25 -1.55 -0.2 -1.55 Q-0.15 -1.6 -0.15 -1.65 L-0.1 -1.75 Q-0.05 -1.75 0.0 -1.85 L0.1 -1.95 0.25 -2.05 0.4 -2.2 0.7 -2.2" fill="#856b44" fill-rule="evenodd" stroke="none"/>
    <path d="M-0.1 -1.5 L-0.1 -1.5 0.05 -1.5 0.15 -1.5 0.1 -1.5 0.15 -1.45 0.1 -1.5 0.0 -1.5 -0.1 -1.5 -0.15 -1.5 -0.1 -1.5 M0.15 -1.5 L0.15 -1.5" fill="#dab06f" fill-rule="evenodd" stroke="none"/>
    <path d="M0.15 -1.45 L0.15 -1.45 0.25 -1.45 0.4 -1.45 0.4 -1.4 0.35 -1.35 0.25 -1.35 0.15 -1.35 0.0 -1.4 0.05 -1.45 0.0 -1.5 0.1 -1.5 0.15 -1.45" fill="#b18f5b" fill-rule="evenodd" stroke="none"/>
    <path d="M-0.15 -1.35 L0.1 -1.35 0.05 -1.35 -0.05 -1.35 -0.15 -1.4 -0.3 -1.4 -0.25 -1.45 -0.1 -1.4 0.0 -1.4 0.15 -1.35 0.25 -1.35 0.2 -1.35 0.2 -1.35 0.45 -1.3 0.7 -1.2 -0.15 -1.35" fill="#fffab8" fill-rule="evenodd" stroke="none"/>
    <path d="M-0.05 -1.35 L0.05 -1.35 0.1 -1.35 -0.15 -1.35 -0.25 -1.35 -0.05 -1.35" fill="#edc87f" fill-rule="evenodd" stroke="none"/>
    <path d="M0.35 -1.35 L0.8 -1.25 1.05 -1.25 1.1 -1.25 1.2 -1.2 1.5 -1.2 1.55 -1.15 1.75 -1.15 1.95 -1.1 2.0 -1.1 2.1 -1.1 2.2 -1.1 2.2 -1.05 2.1 -1.05 1.8 -1.1 1.75 -1.1 1.55 -1.1 Q1.55 -1.1 1.6 -1.1 L1.65 -1.1 1.85 -1.05 2.05 -1.05 2.1 -1.0 2.2 -1.0 2.2 -0.2 1.9 -0.2 1.9 -0.05 1.8 -0.05 1.7 -0.1 1.55 -0.05 1.4 0.0 1.3 0.0 1.15 0.0 1.15 -0.15 1.05 -0.25 0.8 -0.55 0.8 -0.6 0.75 -0.65 0.7 -0.7 0.65 -0.8 Q0.55 -0.85 0.5 -0.8 L0.45 -0.85 0.4 -0.9 0.3 -0.9 0.15 -0.8 0.0 -0.7 Q-0.05 -0.75 -0.1 -0.8 L-0.25 -0.8 -0.15 -0.8 Q-0.1 -0.75 -0.1 -0.7 L-0.1 -0.6 -0.05 -0.55 0.0 -0.5 Q0.0 -0.45 -0.05 -0.45 L-0.1 -0.4 -0.1 -0.4 -0.15 -0.4 -0.15 -0.35 -0.15 -0.3 -0.2 -0.35 -0.2 -0.5 -0.15 -0.55 -0.15 -0.6 -0.2 -0.55 -0.25 -0.5 -0.25 -0.55 -0.3 -0.5 -0.35 -0.55 -0.35 -0.5 -0.4 -0.55 -0.35 -0.6 -0.35 -0.7 Q-0.3 -0.7 -0.3 -0.75 L-0.25 -0.8 -0.4 -0.7 -0.4 -0.55 -0.35 -0.45 -0.35 -0.4 -0.3 -0.35 -0.25 -0.25 -0.25 -0.3 Q-0.2 -0.25 -0.25 -0.2 L-0.25 -0.1 Q-0.25 -0.05 -0.3 -0.05 -0.35 -0.1 -0.4 -0.15 L-0.5 -0.15 -0.55 -0.15 Q-0.65 -0.2 -0.7 -0.25 -0.65 -0.3 -0.7 -0.3 L-0.75 -0.3 -0.8 -0.35 -0.9 -0.4 -1.0 -0.5 -0.95 -0.55 Q-0.95 -0.6 -0.95 -0.6 L-1.0 -0.65 -0.95 -0.7 -0.95 -0.75 -1.0 -0.75 -0.95 -0.8 -1.0 -0.85 -1.0 -0.9 -0.95 -0.9 -1.0 -0.95 -0.8 -0.95 -0.65 -0.9 -0.65 -0.95 -0.8 -1.0 -1.0 -1.0 -1.2 -1.0 -1.35 -1.0 -1.45 -1.0 -1.25 -1.05 -1.0 -1.05 -0.95 -1.0 -0.95 -1.05 -1.0 -1.05 -1.0 -1.05 -1.35 -1.05 -1.45 -1.05 -1.55 -1.1 -1.6 -1.1 -1.65 -1.1 -1.65 -1.1 -1.45 -1.1 -1.35 -1.1 -1.15 -1.1 -1.1 -1.1 -0.9 -1.1 -0.65 -1.05 -0.65 -1.1 -0.9 -1.15 -1.1 -1.15 -1.15 -1.15 -1.35 -1.15 -1.45 -1.15 -1.6 -1.15 -1.65 -1.2 -1.45 -1.2 -1.3 -1.2 -1.25 -1.2 Q-1.2 -1.2 -1.2 -1.2 L-1.55 -1.2 -1.95 -1.2 Q-1.95 -1.25 -1.95 -1.3 L-1.85 -1.3 -1.7 -1.35 -1.7 -1.25 -1.5 -1.25 -1.55 -1.35 -1.35 -1.3 -1.15 -1.35 -1.0 -1.35 -0.9 -1.35 -0.75 -1.3 -0.75 -1.35 -0.8 -1.35 -0.85 -1.4 -0.7 -1.4 -0.55 -1.4 -0.5 -1.4 -0.4 -1.4 -0.35 -1.35 -0.15 -1.35 0.7 -1.2 0.45 -1.3 0.2 -1.35 0.2 -1.35 0.25 -1.35 0.35 -1.35 M-1.0 -1.0 L-1.0 -1.0 M-1.0 -0.95 L-1.0 -0.95 -1.0 -0.95 M-0.15 -0.6 L-0.1 -0.7 -0.15 -0.65 -0.15 -0.6 M1.4 -1.15 L1.5 -1.15 1.2 -1.2 0.85 -1.2 1.05 -1.15 1.3 -1.15 1.4 -1.15 M-0.95 -1.25 L-1.0 -1.25 -0.85 -1.25 -0.75 -1.2 Q-0.75 -1.25 -0.8 -1.25 L-0.95 -1.25 -0.95 -1.25 M-1.15 -1.2 L-1.15 -1.2 -1.1 -1.2 -0.95 -1.2 -1.15 -1.2" fill="#fffffd" fill-rule="evenodd" stroke="none"/>
    <path d="M0.0 -1.4 L-0.1 -1.4 -0.25 -1.45 -0.4 -1.45 -0.55 -1.45 -0.55 -1.5 -0.65 -1.55 Q-0.65 -1.55 -0.6 -1.55 L-0.5 -1.55 -0.55 -1.55 -0.55 -1.55 -0.3 -1.5 -0.1 -1.5 0.0 -1.5 0.05 -1.45 0.0 -1.4" fill="#876d45" fill-rule="evenodd" stroke="none"/>
    <path d="M0.55 -0.7 L0.55 -0.8 Q0.55 -0.8 0.6 -0.8 L0.65 -0.75 0.65 -0.7 0.6 -0.7 0.6 -0.7 0.55 -0.7" fill="#a3735b" fill-rule="evenodd" stroke="none"/>
    <path d="M0.5 -0.8 Q0.55 -0.85 0.65 -0.8 L0.7 -0.7 0.75 -0.65 0.75 -0.6 0.8 -0.55 0.75 -0.5 0.75 -0.5 0.7 -0.55 0.65 -0.55 0.65 -0.5 0.7 -0.5 0.65 -0.45 Q0.6 -0.4 0.65 -0.35 L0.65 -0.3 0.6 -0.25 Q0.6 -0.2 0.55 -0.2 L0.55 -0.25 0.6 -0.25 0.55 -0.3 0.5 -0.3 Q0.45 -0.3 0.4 -0.35 L0.4 -0.35 0.5 -0.35 0.55 -0.45 0.6 -0.45 0.65 -0.45 0.6 -0.5 0.55 -0.5 0.55 -0.55 0.6 -0.55 0.6 -0.6 0.65 -0.6 0.6 -0.6 0.6 -0.65 0.6 -0.7 0.6 -0.7 0.65 -0.7 0.65 -0.75 0.6 -0.8 Q0.55 -0.8 0.55 -0.8 L0.55 -0.7 0.5 -0.75 0.5 -0.8" fill="#7a593b" fill-rule="evenodd" stroke="none"/>
    <path d="M0.55 -0.7 L0.6 -0.7 0.6 -0.65 0.6 -0.6 0.65 -0.6 0.6 -0.6 0.6 -0.55 0.55 -0.55 0.55 -0.5 0.6 -0.5 0.65 -0.45 0.6 -0.45 0.55 -0.45 0.5 -0.5 0.4 -0.5 0.4 -0.55 0.35 -0.55 0.45 -0.6 0.45 -0.7 0.5 -0.75 0.55 -0.7 M0.45 -0.6 L0.4 -0.6 0.4 -0.55 0.45 -0.55 0.45 -0.55 0.5 -0.6 0.45 -0.6 M0.4 -0.5 L0.4 -0.5" fill="#ddac72" fill-rule="evenodd" stroke="none"/>
    <path d="M0.75 -0.65 L0.8 -0.6 0.8 -0.55 0.75 -0.6 0.75 -0.65 M0.4 -0.35 Q0.45 -0.3 0.5 -0.3 L0.55 -0.25 0.6 -0.25 0.55 -0.25 0.55 -0.2 Q0.6 -0.2 0.6 -0.25 L0.65 -0.3 0.65 -0.35 Q0.6 -0.4 0.65 -0.45 L0.7 -0.5 0.75 -0.5 0.75 -0.5 0.8 -0.55 0.8 -0.5 0.75 -0.45 0.8 -0.4 0.8 -0.35 0.75 -0.35 0.75 -0.3 0.75 -0.3 0.75 -0.25 0.75 -0.2 0.75 -0.15 0.7 -0.1 0.6 -0.1 Q0.55 -0.1 0.5 -0.1 L0.5 -0.1 0.45 -0.2 0.45 -0.25 0.4 -0.25 0.4 -0.15 0.4 -0.15 0.35 -0.1 0.35 -0.05 0.3 0.0 Q0.25 0.0 0.15 0.1 L0.1 0.25 0.05 0.25 0.05 0.25 -0.05 0.15 -0.2 0.1 -0.2 0.05 Q-0.15 0.05 -0.15 0.1 L-0.1 0.05 -0.05 0.05 Q0.0 0.05 0.05 0.05 L0.1 0.05 0.0 0.15 0.1 0.15 0.1 0.1 0.15 0.05 0.2 0.0 0.25 -0.05 0.3 -0.05 0.35 -0.15 0.3 -0.25 0.35 -0.25 0.35 -0.3 0.3 -0.3 0.3 -0.35 0.35 -0.35 0.4 -0.35 M0.5 -0.1 L0.5 -0.1 M0.75 -0.3 L0.75 -0.3 M0.75 -0.2 L0.7 -0.2 0.65 -0.15 Q0.6 -0.15 0.55 -0.2 0.55 -0.15 0.6 -0.1 0.7 -0.1 0.7 -0.15 L0.75 -0.2" fill="#674e2f" fill-rule="evenodd" stroke="none"/>
    <path d="M0.15 -0.6 L0.15 -0.65 0.1 -0.65 0.1 -0.65 0.2 -0.7 0.3 -0.7 0.3 -0.65 0.35 -0.65 Q0.3 -0.7 0.35 -0.7 L0.35 -0.7 0.4 -0.7 0.4 -0.65 0.3 -0.6 Q0.25 -0.6 0.25 -0.5 L0.2 -0.4 0.2 -0.4 Q0.15 -0.4 0.2 -0.45 L0.2 -0.55 0.15 -0.6" fill="#e9c189" fill-rule="evenodd" stroke="none"/>
    <path d="M0.0 -0.7 L0.15 -0.8 0.3 -0.9 0.4 -0.9 0.45 -0.85 0.35 -0.85 0.3 -0.8 0.35 -0.75 0.35 -0.7 0.35 -0.7 Q0.3 -0.7 0.35 -0.65 L0.3 -0.65 0.3 -0.7 0.2 -0.7 0.1 -0.65 0.1 -0.65 0.15 -0.65 0.1 -0.65 0.0 -0.65 0.0 -0.7" fill="#b78767" fill-rule="evenodd" stroke="none"/>
    <path d="M-0.15 -0.3 L-0.15 -0.35 -0.05 -0.45 Q0.0 -0.45 0.0 -0.5 L0.1 -0.65 0.15 -0.65 0.15 -0.6 0.1 -0.6 0.05 -0.5 0.05 -0.45 0.0 -0.35 -0.1 -0.3 -0.15 -0.3 -0.2 -0.3 -0.15 -0.3" fill="#96968e" fill-rule="evenodd" stroke="none"/>
    <path d="M0.0 -0.5 L-0.05 -0.55 -0.1 -0.6 -0.1 -0.7 Q-0.1 -0.75 -0.15 -0.8 L-0.25 -0.8 -0.1 -0.8 Q-0.05 -0.75 0.0 -0.7 L0.0 -0.65 0.1 -0.65 0.0 -0.5" fill="#d6d6ce" fill-rule="evenodd" stroke="none"/>
    <path d="M0.45 -0.85 L0.5 -0.8 0.5 -0.75 0.45 -0.7 0.4 -0.7 0.35 -0.7 0.35 -0.75 0.3 -0.8 0.35 -0.85 0.45 -0.85" fill="#956457" fill-rule="evenodd" stroke="none"/>
    <path d="M0.2 -0.4 L0.2 -0.4 0.25 -0.5 Q0.25 -0.6 0.3 -0.6 L0.4 -0.65 0.4 -0.7 0.45 -0.7 0.45 -0.6 0.45 -0.6 0.35 -0.55 0.3 -0.45 0.25 -0.45 0.25 -0.4 0.2 -0.3 0.2 -0.25 0.3 -0.2 0.2 -0.15 0.15 -0.15 0.1 -0.2 0.1 -0.2 0.15 -0.25 0.15 -0.3 0.2 -0.4 M0.3 -0.45 L0.3 -0.45" fill="#c2975f" fill-rule="evenodd" stroke="none"/>
    <path d="M0.45 -0.6 L0.5 -0.6 0.45 -0.55 0.45 -0.55 0.4 -0.55 0.4 -0.6 0.45 -0.6 0.45 -0.6" fill="#fffdcf" fill-rule="evenodd" stroke="none"/>
    <path d="M0.55 -0.45 L0.5 -0.35 0.4 -0.35 0.4 -0.35 0.35 -0.35 0.3 -0.35 0.3 -0.3 0.35 -0.3 0.35 -0.25 0.3 -0.25 0.3 -0.2 0.2 -0.25 0.2 -0.3 0.25 -0.4 0.25 -0.45 0.3 -0.45 0.35 -0.55 0.4 -0.55 0.4 -0.5 0.5 -0.5 0.55 -0.45 M0.4 -0.5 L0.35 -0.5 0.35 -0.5 0.4 -0.45 0.4 -0.5 M0.3 -0.45 L0.3 -0.45 Q0.3 -0.4 0.3 -0.4 L0.35 -0.45 0.3 -0.45" fill="#eec38a" fill-rule="evenodd" stroke="none"/>
    <path d="M0.4 -0.5 L0.4 -0.5 0.4 -0.45 0.35 -0.5 0.35 -0.5 0.4 -0.5" fill="#fffec8" fill-rule="evenodd" stroke="none"/>
    <path d="M0.3 -0.45 L0.3 -0.45 0.35 -0.45 0.3 -0.4 Q0.3 -0.4 0.3 -0.45 L0.3 -0.45" fill="#fffcbe" fill-rule="evenodd" stroke="none"/>
    <path d="M0.05 -0.5 L0.1 -0.5 Q0.15 -0.45 0.15 -0.45 L0.1 -0.35 0.0 -0.3 0.0 -0.35 0.05 -0.45 0.05 -0.5" fill="#faf3cc" fill-rule="evenodd" stroke="none"/>
    <path d="M0.15 -0.6 L0.2 -0.55 0.2 -0.45 0.15 -0.45 Q0.15 -0.45 0.1 -0.5 L0.05 -0.5 0.1 -0.6 0.15 -0.6" fill="#bf4945" fill-rule="evenodd" stroke="none"/>
    <path d="M0.2 -0.45 Q0.15 -0.4 0.2 -0.4 L0.15 -0.3 0.15 -0.25 0.1 -0.2 0.1 -0.2 0.05 -0.2 -0.05 -0.15 -0.1 -0.15 -0.2 -0.15 -0.2 -0.05 -0.25 -0.05 -0.2 -0.15 -0.2 -0.25 -0.15 -0.3 -0.1 -0.3 0.0 -0.3 0.1 -0.35 0.15 -0.45 0.2 -0.45" fill="#5e4a2f" fill-rule="evenodd" stroke="none"/>
    <path d="M-0.2 -0.05 L-0.2 -0.15 -0.1 -0.15 -0.05 -0.15 0.05 -0.2 0.1 -0.2 0.0 -0.1 Q0.0 -0.05 -0.05 -0.05 L-0.1 -0.1 -0.1 -0.1 -0.15 -0.05 -0.2 -0.05" fill="#755b36" fill-rule="evenodd" stroke="none"/>
    <path d="M0.05 0.05 Q0.0 0.05 -0.05 0.05 L-0.1 0.05 -0.15 0.1 Q-0.15 0.05 -0.2 0.05 L-0.2 0.1 -0.05 0.15 0.05 0.25 0.05 0.35 0.1 0.35 0.0 0.35 -0.05 0.35 -0.2 0.15 -0.35 0.0 -0.4 -0.05 -0.4 -0.05 -0.35 -0.05 -0.3 0.0 Q-0.2 0.0 -0.25 -0.05 L-0.2 -0.05 -0.15 -0.05 -0.1 -0.1 -0.1 -0.1 -0.05 -0.05 Q0.0 -0.05 0.0 -0.1 L0.1 -0.2 0.15 -0.15 0.15 -0.1 0.1 -0.05 Q0.05 -0.05 0.05 -0.05 L0.05 0.05 M-0.25 -0.05 L-0.25 -0.05" fill="#8b6e44" fill-rule="evenodd" stroke="none"/>
    <path d="M0.3 -0.25 L0.35 -0.15 0.3 -0.05 0.25 -0.05 0.2 0.0 0.15 0.05 0.1 0.1 0.1 0.15 0.0 0.15 0.1 0.05 0.05 0.05 0.05 -0.05 Q0.05 -0.05 0.1 -0.05 L0.15 -0.1 0.15 -0.15 0.2 -0.15 0.3 -0.2 0.3 -0.25" fill="#816036" fill-rule="evenodd" stroke="none"/>
    <path d="M0.35 -0.1 L0.4 -0.15 0.4 -0.15 0.45 -0.2 0.45 -0.2 0.5 -0.1 0.45 -0.1 0.4 -0.1 0.35 -0.1" fill="#f9f9f9" fill-rule="evenodd" stroke="none"/>
    <path d="M0.4 -0.15 L0.4 -0.25 0.45 -0.25 0.45 -0.2 0.45 -0.2 0.4 -0.15" fill="#747677" fill-rule="evenodd" stroke="none"/>
    <path d="M0.05 0.25 L0.05 0.25 0.1 0.25 0.15 0.1 Q0.25 0.0 0.3 0.0 L0.35 -0.05 0.35 -0.1 0.4 -0.1 0.35 -0.05 0.35 0.0 0.35 0.05 0.25 0.05 0.25 0.1 0.2 0.1 0.25 0.15 0.3 0.15 0.3 0.2 0.25 0.2 0.3 0.25 0.35 0.2 0.35 0.3 0.4 0.35 0.35 0.35 0.3 0.3 0.25 0.35 Q0.2 0.35 0.2 0.4 L0.2 0.35 0.1 0.35 Q0.1 0.3 0.05 0.35 L0.05 0.25" fill="#5c442a" fill-rule="evenodd" stroke="none"/>
    <path d="M0.5 -0.1 L0.5 -0.1 0.45 -0.05 Q0.45 0.0 0.45 0.0 L0.45 -0.05 0.4 -0.05 0.4 0.0 0.35 0.0 0.35 -0.05 0.4 -0.1 0.45 -0.1 0.5 -0.1 0.5 -0.1" fill="#a5a6a2" fill-rule="evenodd" stroke="none"/>
    <path d="M0.35 0.0 L0.4 0.0 0.4 -0.05 0.45 -0.05 0.45 0.0 Q0.45 0.0 0.45 -0.05 L0.5 -0.1 0.5 -0.1 0.55 -0.05 Q0.55 0.0 0.45 0.0 L0.45 0.1 0.5 0.15 Q0.45 0.1 0.45 0.2 L0.4 0.15 0.4 0.2 0.4 0.25 0.35 0.2 0.3 0.25 0.25 0.2 0.3 0.2 0.3 0.15 0.25 0.15 0.2 0.1 0.25 0.1 0.25 0.05 0.35 0.05 0.35 0.0" fill="#6c6d6e" fill-rule="evenodd" stroke="none"/>
    <path d="M0.8 -0.55 L1.05 -0.25 1.0 -0.2 1.0 -0.15 0.95 -0.15 0.9 -0.2 0.85 -0.2 0.8 -0.3 0.8 -0.35 0.8 -0.4 0.75 -0.45 0.8 -0.5 0.8 -0.55 M0.85 -0.4 L0.85 -0.4 0.9 -0.4 0.9 -0.4 0.85 -0.45 0.85 -0.4 M0.8 -0.3 L0.8 -0.3" fill="#9a7056" fill-rule="evenodd" stroke="none"/>
    <path d="M0.85 -0.4 L0.85 -0.45 0.9 -0.4 0.9 -0.4 0.85 -0.4 0.85 -0.4" fill="#fce99c" fill-rule="evenodd" stroke="none"/>
    <path d="M0.75 -0.3 L0.75 -0.3 0.75 -0.35 0.8 -0.35 0.8 -0.3 0.8 -0.3 0.75 -0.3 0.75 -0.3" fill="#181b19" fill-rule="evenodd" stroke="none"/>
    <path d="M0.7 -0.5 L0.65 -0.5 0.65 -0.55 0.7 -0.55 0.75 -0.5 0.7 -0.5" fill="#e0ad6f" fill-rule="evenodd" stroke="none"/>
    <path d="M0.75 -0.25 L0.75 -0.3 0.75 -0.25 0.75 -0.25 M0.75 -0.3 L0.75 -0.3" fill="#fff3cd" fill-rule="evenodd" stroke="none"/>
    <path d="M0.75 -0.2 L0.75 -0.25 0.8 -0.2 0.8 -0.15 0.75 -0.2 M0.75 -0.25 L0.75 -0.25" fill="#1d1f1f" fill-rule="evenodd" stroke="none"/>
    <path d="M0.75 -0.2 L0.7 -0.15 Q0.7 -0.1 0.6 -0.1 0.55 -0.15 0.55 -0.2 0.6 -0.15 0.65 -0.15 L0.7 -0.2 0.75 -0.2" fill="#a5804d" fill-rule="evenodd" stroke="none"/>
    <path d="M0.75 -0.15 L0.75 -0.2 0.8 -0.15 0.8 -0.2 0.75 -0.25 0.75 -0.3 0.8 -0.3 0.8 -0.3 0.85 -0.2 0.85 -0.2 0.8 -0.15 0.75 -0.15 0.75 -0.15" fill="#726257" fill-rule="evenodd" stroke="none"/>
    <path d="M0.5 -0.3 L0.55 -0.3 0.6 -0.25 0.55 -0.25 0.5 -0.3" fill="#9e8567" fill-rule="evenodd" stroke="none"/>
    <path d="M0.5 -0.1 L0.5 -0.1 Q0.55 -0.1 0.6 -0.1 L0.7 -0.1 0.75 -0.1 0.75 -0.05 0.8 0.0 0.85 -0.05 0.85 -0.05 Q0.9 0.0 1.0 0.0 L1.1 0.1 1.05 0.1 0.95 0.1 0.9 0.1 0.9 0.05 0.85 0.05 0.85 0.1 0.8 0.1 0.75 0.05 Q0.7 0.05 0.65 0.1 L0.65 0.15 0.6 0.15 0.6 0.2 0.55 0.2 0.55 0.15 0.55 0.05 0.6 0.05 0.55 0.1 0.6 0.1 0.6 0.05 0.55 0.05 Q0.6 0.0 0.55 -0.05 L0.5 -0.1 0.5 -0.1 0.5 -0.1 M0.4 0.2 L0.5 0.25 0.55 0.2 0.4 0.35 0.35 0.3 0.35 0.2 0.4 0.25 0.4 0.2" fill="#141716" fill-rule="evenodd" stroke="none"/>
    <path d="M0.7 -0.1 L0.75 -0.15 0.75 -0.15 0.8 -0.15 Q0.8 -0.15 0.85 -0.1 L0.9 -0.1 Q0.9 -0.05 0.85 -0.05 L0.85 -0.05 0.8 0.0 0.75 -0.05 0.75 -0.1 0.7 -0.1 M0.85 -0.05 L0.85 -0.1 0.8 -0.05 0.85 -0.05" fill="#87827f" fill-rule="evenodd" stroke="none"/>
    <path d="M1.05 -0.25 L1.15 -0.15 1.15 0.0 1.1 0.1 1.0 0.0 Q0.9 0.0 0.85 -0.05 L0.85 -0.05 Q0.9 -0.05 0.9 -0.1 L0.9 -0.2 0.95 -0.15 1.0 -0.15 1.0 -0.2 1.05 -0.25 M0.9 -0.2 L0.9 -0.2 M0.85 -0.05 L0.85 -0.05 M1.15 0.0 L1.15 0.0" fill="#7e5949" fill-rule="evenodd" stroke="none"/>
    <path d="M0.8 -0.3 L0.8 -0.3 0.8 -0.3 0.8 -0.3" fill="#b5b5b6" fill-rule="evenodd" stroke="none"/>
    <path d="M0.85 -0.2 L0.9 -0.2 0.85 -0.2 0.85 -0.2 M0.9 -0.2 L0.9 -0.2" fill="#b1a8a5" fill-rule="evenodd" stroke="none"/>
    <path d="M0.85 -0.2 L0.9 -0.2 0.9 -0.1 0.85 -0.1 Q0.8 -0.15 0.8 -0.15 L0.85 -0.2" fill="#f4f2f1" fill-rule="evenodd" stroke="none"/>
    <path d="M0.85 -0.05 L0.8 -0.05 0.85 -0.1 0.85 -0.05" fill="#f4f2f2" fill-rule="evenodd" stroke="none"/>
    <path d="M1.8 -1.2 L1.85 -1.2 1.9 -1.15 1.95 -1.1 1.75 -1.15 1.55 -1.15 1.8 -1.2" fill="#fffca8" fill-rule="evenodd" stroke="none"/>
    <path d="M1.85 -1.2 L2.0 -1.15 2.2 -1.15 2.2 -1.1 2.1 -1.1 2.0 -1.1 1.95 -1.1 1.9 -1.15 1.85 -1.2" fill="#f6d083" fill-rule="evenodd" stroke="none"/>
    <path d="M1.8 -1.1 L2.1 -1.05 1.95 -1.05 1.8 -1.1" fill="#fff5a2" fill-rule="evenodd" stroke="none"/>
    <path d="M2.05 -1.05 L1.85 -1.05 1.65 -1.1 1.75 -1.1 1.8 -1.1 1.95 -1.05 2.1 -1.05 2.2 -1.05 2.2 -1.05 2.05 -1.05" fill="#eac37b" fill-rule="evenodd" stroke="none"/>
    <path d="M1.65 -1.1 L1.6 -1.1 Q1.55 -1.1 1.55 -1.1 L1.75 -1.1 1.65 -1.1" fill="#ffefa0" fill-rule="evenodd" stroke="none"/>
    <path d="M1.75 -1.2 L1.8 -1.2 1.55 -1.15 1.5 -1.2 1.75 -1.2" fill="#f4cc82" fill-rule="evenodd" stroke="none"/>
    <path d="M1.4 -1.15 L1.3 -1.15 1.05 -1.15 0.85 -1.2 1.2 -1.2 1.5 -1.15 1.4 -1.15" fill="#fff5aa" fill-rule="evenodd" stroke="none"/>
    <path d="M1.5 -1.2 L1.2 -1.2 1.4 -1.2 1.5 -1.2" fill="#f9e091" fill-rule="evenodd" stroke="none"/>
    <path d="M1.85 0.05 L1.8 0.0 1.85 0.0 1.9 -0.05 1.95 -0.1 Q1.95 -0.2 2.05 -0.2 L2.2 -0.2 2.2 -0.05 1.85 0.05" fill="#ffffde" fill-rule="evenodd" stroke="none"/>
    <path d="M1.4 0.0 L1.55 -0.05 1.7 -0.1 1.8 -0.05 1.9 -0.05 1.9 -0.2 2.2 -0.2 2.05 -0.2 Q1.95 -0.2 1.95 -0.1 L1.9 -0.05 1.85 0.0 1.8 0.0 1.85 0.05 1.8 0.1 1.4 0.0 M2.2 -0.2 L2.2 -0.2" fill="#fffff0" fill-rule="evenodd" stroke="none"/>
    <path d="M2.2 -1.0 L2.1 -1.0 2.05 -1.05 2.2 -1.05 2.2 -1.0" fill="#fffcb6" fill-rule="evenodd" stroke="none"/>
    <path d="M2.2 -1.1 L2.1 -1.1 2.0 -1.1 2.1 -1.1 2.2 -1.1 2.2 -1.1" fill="#a78655" fill-rule="evenodd" stroke="none"/>
    <path d="M1.85 0.05 L2.2 -0.05 2.2 0.0 2.1 0.0 2.0 0.05 1.85 0.1 1.7 0.15 1.5 0.25 Q1.3 0.25 1.25 0.3 L1.15 0.35 1.1 0.35 1.05 0.3 1.1 0.25 1.15 0.25 1.25 0.25 1.4 0.2 1.5 0.15 1.6 0.15 Q1.6 0.15 1.65 0.1 L1.8 0.1 1.85 0.05" fill="#f1b6a2" fill-rule="evenodd" stroke="none"/>
    <path d="M2.2 0.0 L2.2 0.15 2.0 0.2 1.8 0.3 1.6 0.4 1.4 0.45 1.35 0.45 1.3 0.45 1.3 0.5 1.35 0.55 1.3 0.65 1.25 0.6 1.2 0.6 1.15 0.55 1.15 0.4 1.45 0.3 1.55 0.25 1.7 0.2 1.85 0.15 2.0 0.1 Q2.0 0.1 2.1 0.05 L2.2 0.0" fill="#6a2e21" fill-rule="evenodd" stroke="none"/>
    <path d="M2.2 0.0 L2.2 0.0 2.1 0.05 Q2.0 0.1 2.0 0.1 L1.85 0.15 1.7 0.2 1.55 0.25 1.45 0.3 1.15 0.4 1.15 0.35 Q1.15 0.35 1.1 0.35 L1.1 0.35 1.15 0.35 1.25 0.3 Q1.3 0.25 1.5 0.25 L1.7 0.15 1.85 0.1 2.0 0.05 2.1 0.0 2.2 0.0" fill="#bf6b59" fill-rule="evenodd" stroke="none"/>
    <path d="M2.2 0.35 L2.2 0.5 2.0 0.6 1.8 0.7 1.65 0.75 1.55 0.75 1.45 0.85 Q1.35 0.85 1.3 0.9 L1.3 0.85 1.35 0.8 1.4 0.8 1.7 0.65 1.65 0.6 1.9 0.5 2.1 0.4 2.2 0.35" fill="#612a1e" fill-rule="evenodd" stroke="none"/>
    <path d="M2.2 0.5 L2.2 0.55 2.05 0.6 1.9 0.7 1.8 0.75 1.65 0.8 1.55 0.85 1.45 0.9 1.4 0.9 1.35 0.95 1.35 0.9 1.3 0.9 Q1.35 0.85 1.45 0.85 L1.55 0.75 1.65 0.75 1.8 0.7 2.0 0.6 2.2 0.5" fill="#a65d4d" fill-rule="evenodd" stroke="none"/>
    <path d="M1.35 0.95 L1.4 0.9 1.45 0.9 1.55 0.85 1.65 0.8 1.8 0.75 1.9 0.7 2.05 0.6 2.2 0.55 1.85 0.75 1.5 1.0 1.4 1.05 1.4 1.0 1.35 0.95 1.4 0.95 1.35 0.95" fill="#d49a8c" fill-rule="evenodd" stroke="none"/>
    <path d="M2.2 0.15 L2.2 0.35 2.1 0.4 2.05 0.4 Q2.0 0.4 2.0 0.45 L1.9 0.35 1.9 0.3 1.85 0.3 Q1.85 0.3 1.85 0.35 L1.85 0.45 1.8 0.45 1.75 0.45 1.75 0.55 1.7 0.5 1.65 0.5 1.6 0.55 1.65 0.55 1.65 0.6 1.6 0.6 Q1.6 0.55 1.6 0.65 L1.5 0.6 1.45 0.6 1.5 0.55 1.5 0.5 1.55 0.5 Q1.55 0.45 1.55 0.45 L1.65 0.45 1.7 0.45 1.75 0.4 Q1.75 0.35 1.8 0.3 L2.0 0.2 2.2 0.15" fill="#3a1912" fill-rule="evenodd" stroke="none"/>
    <path d="M1.65 0.6 L1.65 0.55 1.6 0.55 1.65 0.5 1.7 0.5 1.75 0.55 1.75 0.45 1.8 0.45 1.85 0.45 1.85 0.35 Q1.85 0.3 1.85 0.3 L1.9 0.3 1.9 0.35 2.0 0.45 Q2.0 0.4 2.05 0.4 L2.1 0.4 1.9 0.5 1.65 0.6 M1.8 0.3 Q1.75 0.35 1.75 0.4 L1.7 0.45 1.65 0.45 1.55 0.45 Q1.55 0.45 1.55 0.5 L1.5 0.5 1.5 0.55 1.45 0.6 1.5 0.6 1.6 0.65 1.45 0.7 1.35 0.65 1.35 0.55 Q1.35 0.5 1.4 0.45 L1.6 0.4 1.8 0.3" fill="#29120d" fill-rule="evenodd" stroke="none"/>
    <path d="M2.2 0.55 L2.2 0.8 2.0 0.95 Q1.9 1.05 1.8 1.05 1.75 1.1 1.75 1.15 L1.75 1.25 1.75 1.3 1.7 1.35 1.6 1.2 1.55 1.05 1.5 1.0 1.85 0.75 2.2 0.55" fill="#54432b" fill-rule="evenodd" stroke="none"/>
    <path d="M2.2 0.8 L2.2 2.2 0.8 2.2 0.65 1.95 0.85 1.95 1.05 1.85 1.1 1.85 1.15 1.9 1.2 1.8 1.25 1.75 1.4 1.65 1.5 1.6 1.6 1.55 Q1.6 1.65 1.7 1.75 1.75 1.85 1.85 1.85 L1.9 1.7 1.9 1.6 1.85 1.5 1.8 1.45 1.75 1.4 1.7 1.35 1.75 1.3 1.75 1.25 1.75 1.15 Q1.75 1.1 1.8 1.05 1.9 1.05 2.0 0.95 L2.2 0.8" fill="#4b3c26" fill-rule="evenodd" stroke="none"/>
    <path d="M1.65 0.1 Q1.6 0.15 1.6 0.15 L1.5 0.15 1.1 0.1 1.15 0.0 1.65 0.1" fill="#fefeed" fill-rule="evenodd" stroke="none"/>
    <path d="M1.6 0.65 Q1.6 0.55 1.6 0.6 L1.65 0.6 1.7 0.65 1.4 0.8 1.35 0.8 1.25 0.75 Q1.25 0.65 1.3 0.65 L1.35 0.55 1.3 0.5 1.3 0.45 1.35 0.45 1.4 0.45 Q1.35 0.5 1.35 0.55 L1.35 0.65 1.45 0.7 1.6 0.65" fill="#4d2118" fill-rule="evenodd" stroke="none"/>
    <path d="M1.15 0.0 L1.3 0.0 1.4 0.0 1.8 0.1 1.65 0.1 1.15 0.0 1.15 0.0" fill="#ffffc7" fill-rule="evenodd" stroke="none"/>
    <path d="M1.4 0.2 L1.25 0.25 1.15 0.25 1.1 0.15 1.4 0.2" fill="#806643" fill-rule="evenodd" stroke="none"/>
    <path d="M1.5 0.15 L1.4 0.2 1.1 0.15 1.1 0.1 1.5 0.15" fill="#fffdb5" fill-rule="evenodd" stroke="none"/>
    <path d="M0.95 0.1 L1.05 0.1 1.1 0.1 1.1 0.15 1.05 0.15 1.0 0.15 1.0 0.1 0.95 0.1" fill="#903c36" fill-rule="evenodd" stroke="none"/>
    <path d="M1.15 0.25 L1.1 0.25 1.05 0.2 1.05 0.15 1.1 0.15 1.15 0.25" fill="#261f11" fill-rule="evenodd" stroke="none"/>
    <path d="M1.1 0.25 L1.05 0.3 1.0 0.3 1.0 0.2 1.0 0.15 0.95 0.15 1.0 0.1 1.0 0.15 1.05 0.15 1.05 0.2 1.1 0.25" fill="#5d4e38" fill-rule="evenodd" stroke="none"/>
    <path d="M1.05 0.3 L1.1 0.35 1.1 0.35 Q1.15 0.35 1.15 0.35 L1.15 0.4 1.15 0.55 1.15 0.6 1.1 0.6 1.05 0.5 1.0 0.4 1.0 0.35 Q1.0 0.3 1.0 0.3 L1.05 0.3" fill="#4e241b" fill-rule="evenodd" stroke="none"/>
    <path d="M1.0 0.3 L1.0 0.4 1.0 0.45 0.95 0.35 0.95 0.45 Q0.95 0.5 1.0 0.55 L0.95 0.55 0.9 0.55 0.9 0.5 0.85 0.55 0.8 0.6 0.75 0.6 0.75 0.5 0.85 0.5 0.85 0.45 Q0.85 0.4 0.8 0.4 L0.85 0.4 0.85 0.35 0.75 0.35 Q0.75 0.35 0.8 0.35 L0.9 0.35 0.9 0.25 0.85 0.25 Q0.8 0.25 0.75 0.2 L0.85 0.15 0.9 0.15 0.95 0.25 0.95 0.2 1.0 0.2 0.95 0.2 0.95 0.25 0.95 0.3 0.95 0.3 1.0 0.3" fill="#726d69" fill-rule="evenodd" stroke="none"/>
    <path d="M1.0 0.4 L1.05 0.5 1.1 0.6 1.15 0.6 1.15 0.55 1.2 0.6 1.25 0.6 1.3 0.65 Q1.25 0.65 1.25 0.75 L1.35 0.8 1.3 0.85 1.3 0.9 1.25 0.9 Q1.25 0.9 1.25 0.95 L1.3 1.0 1.35 1.05 1.3 1.1 1.3 1.05 Q1.25 1.1 1.25 1.1 L1.2 1.05 1.15 0.95 1.15 0.9 1.1 0.9 1.15 0.85 1.1 0.8 1.05 0.65 1.0 0.6 1.05 0.7 1.0 0.7 0.95 0.65 1.0 0.6 1.0 0.55 1.0 0.45 1.0 0.4 M0.8 0.65 L0.9 0.6 0.95 0.65 0.9 0.65 0.8 0.65" fill="#26150e" fill-rule="evenodd" stroke="none"/>
    <path d="M1.35 0.95 L1.4 0.95 1.35 0.95 1.4 1.0 1.4 1.05 1.35 1.05 1.3 1.0 1.25 0.95 Q1.25 0.9 1.25 0.9 L1.3 0.9 1.35 0.9 1.35 0.95" fill="#451f17" fill-rule="evenodd" stroke="none"/>
    <path d="M1.05 0.7 L1.0 0.6 1.05 0.65 1.05 0.7" fill="#b59c6a" fill-rule="evenodd" stroke="none"/>
    <path d="M1.05 0.7 L1.05 0.65 1.1 0.8 1.05 0.8 1.0 0.75 1.0 0.7 1.05 0.7" fill="#52251b" fill-rule="evenodd" stroke="none"/>
    <path d="M1.1 0.8 L1.15 0.85 1.1 0.9 1.15 0.9 1.15 0.95 1.2 1.05 1.25 1.1 Q1.25 1.1 1.3 1.05 L1.3 1.1 1.35 1.05 1.4 1.05 1.45 1.1 1.4 1.1 Q1.35 1.1 1.3 1.15 L1.25 1.2 1.15 1.1 1.1 1.0 1.05 0.9 1.0 0.8 1.0 0.75 1.05 0.8 1.1 0.8" fill="#120f07" fill-rule="evenodd" stroke="none"/>
    <path d="M1.4 1.05 L1.5 1.0 1.55 1.05 1.5 1.1 1.5 1.15 1.6 1.25 1.65 1.4 Q1.65 1.45 1.55 1.4 L1.5 1.35 1.45 1.3 1.35 1.2 Q1.3 1.2 1.3 1.3 L1.25 1.25 1.25 1.2 1.3 1.15 Q1.35 1.1 1.4 1.1 L1.45 1.1 1.4 1.05" fill="#36331e" fill-rule="evenodd" stroke="none"/>
    <path d="M0.55 2.2 L0.0 2.2 0.0 2.1 -0.05 2.0 0.0 1.9 0.05 1.8 Q0.1 1.75 0.05 1.65 L0.15 1.6 0.25 1.6 0.25 1.45 0.2 1.35 0.2 1.0 0.15 0.95 0.15 0.9 0.1 0.85 0.1 0.8 0.15 0.75 0.25 0.7 0.25 0.75 0.25 0.8 0.3 0.8 0.3 0.85 0.35 0.9 0.35 1.0 Q0.3 1.0 0.25 1.05 L0.25 1.15 0.35 1.15 Q0.4 1.2 0.4 1.15 L0.45 1.15 0.55 1.1 0.65 1.25 0.8 1.4 0.95 1.35 1.05 1.3 1.15 1.15 Q1.15 1.05 1.1 1.0 L1.15 1.1 1.25 1.2 1.1 1.5 1.05 1.5 1.0 1.55 1.0 1.6 0.8 1.55 0.75 1.5 0.65 1.45 0.5 1.5 0.35 1.5 Q0.3 1.5 0.3 1.55 L0.35 1.6 0.35 1.65 0.25 1.75 0.15 1.85 0.3 1.85 0.35 1.95 0.45 2.1 0.55 2.2" fill="#604e31" fill-rule="evenodd" stroke="none"/>
    <path d="M1.0 0.8 L1.05 0.9 1.1 1.0 Q1.15 1.05 1.15 1.15 L1.05 1.3 0.95 1.35 0.8 1.4 0.65 1.25 0.55 1.1 0.55 1.05 0.75 0.95 0.9 0.9 0.95 0.9 1.0 0.85 1.0 0.8" fill="#665234" fill-rule="evenodd" stroke="none"/>
    <path d="M1.3 1.3 Q1.3 1.2 1.35 1.2 L1.45 1.3 1.5 1.35 1.55 1.4 Q1.65 1.45 1.65 1.4 L1.6 1.25 1.5 1.15 1.5 1.1 1.55 1.05 1.6 1.2 1.7 1.35 1.75 1.4 1.8 1.45 1.7 1.45 Q1.65 1.45 1.65 1.5 L1.65 1.55 1.6 1.55 1.55 1.5 1.5 1.45 1.4 1.35 1.3 1.3" fill="#211e12" fill-rule="evenodd" stroke="none"/>
    <path d="M0.85 0.05 L0.9 0.05 0.9 0.1 0.95 0.1 1.0 0.1 0.95 0.15 0.85 0.15 0.85 0.05" fill="#7b7974" fill-rule="evenodd" stroke="none"/>
    <path d="M0.65 0.1 Q0.7 0.05 0.75 0.05 L0.8 0.1 0.85 0.1 Q0.8 0.1 0.8 0.1 0.8 0.15 0.85 0.15 L0.75 0.15 Q0.7 0.2 0.65 0.2 L0.65 0.1" fill="#524f4b" fill-rule="evenodd" stroke="none"/>
    <path d="M0.85 0.1 L0.85 0.05 0.85 0.15 Q0.8 0.15 0.8 0.1 0.8 0.1 0.85 0.1" fill="#d3d0c4" fill-rule="evenodd" stroke="none"/>
    <path d="M1.0 0.2 L0.95 0.2 0.95 0.25 0.9 0.15 0.85 0.15 0.75 0.2 0.7 0.2 0.7 0.25 0.65 0.25 0.6 0.3 0.55 0.35 0.5 0.35 0.45 0.4 0.4 0.4 0.55 0.3 0.65 0.2 Q0.7 0.2 0.75 0.15 L0.85 0.15 0.95 0.15 1.0 0.15 1.0 0.2" fill="#171919" fill-rule="evenodd" stroke="none"/>
    <path d="M0.75 0.2 Q0.8 0.25 0.85 0.25 L0.9 0.25 0.9 0.35 0.8 0.35 Q0.75 0.35 0.75 0.35 L0.8 0.3 0.75 0.25 Q0.75 0.25 0.7 0.2 L0.75 0.2" fill="#b7bcc6" fill-rule="evenodd" stroke="none"/>
    <path d="M0.75 0.35 L0.85 0.35 0.85 0.4 0.8 0.4 0.75 0.4 0.75 0.35 0.7 0.3 0.7 0.25 0.7 0.2 Q0.75 0.25 0.75 0.25 L0.8 0.3 0.75 0.35" fill="#fafbfc" fill-rule="evenodd" stroke="none"/>
    <path d="M1.0 0.3 Q1.0 0.3 1.0 0.35 L1.0 0.4 1.0 0.3 0.95 0.25 0.95 0.2 1.0 0.2 1.0 0.3" fill="#e2e1e1" fill-rule="evenodd" stroke="none"/>
    <path d="M1.0 0.3 L0.95 0.3 0.95 0.3 0.95 0.25 1.0 0.3" fill="#adb0b6" fill-rule="evenodd" stroke="none"/>
    <path d="M0.55 0.2 L0.6 0.2 0.6 0.15 0.65 0.15 0.65 0.1 0.65 0.2 0.55 0.3 0.4 0.4 0.4 0.35 0.4 0.3 0.45 0.3 0.55 0.2 M0.2 0.4 Q0.2 0.35 0.25 0.35 L0.3 0.3 0.35 0.35 0.4 0.35 0.3 0.35 Q0.25 0.35 0.2 0.4" fill="#7b6145" fill-rule="evenodd" stroke="none"/>
    <path d="M0.65 0.15 L0.65 0.1 0.65 0.15" fill="#e1b887" fill-rule="evenodd" stroke="none"/>
    <path d="M0.55 -0.05 Q0.6 0.0 0.55 0.05 L0.6 0.05 0.6 0.1 0.55 0.1 0.6 0.05 0.55 0.05 0.55 0.15 0.5 0.1 0.45 0.1 0.45 0.0 Q0.55 0.0 0.55 -0.05" fill="#5a5a5a" fill-rule="evenodd" stroke="none"/>
    <path d="M0.55 0.15 L0.55 0.2 0.5 0.25 0.4 0.2 0.4 0.15 0.45 0.2 Q0.45 0.1 0.5 0.15 L0.55 0.15" fill="#91938f" fill-rule="evenodd" stroke="none"/>
    <path d="M0.55 0.15 L0.5 0.15 0.45 0.1 0.5 0.1 0.55 0.15" fill="#e4e5e3" fill-rule="evenodd" stroke="none"/>
    <path d="M0.7 0.25 L0.7 0.3 0.6 0.4 0.5 0.45 0.45 0.45 0.5 0.4 0.45 0.4 0.5 0.35 0.55 0.4 0.6 0.4 0.55 0.35 0.6 0.3 0.65 0.3 0.6 0.3 0.65 0.25 0.7 0.25" fill="#6b553c" fill-rule="evenodd" stroke="none"/>
    <path d="M0.55 0.35 L0.6 0.3 0.65 0.3 0.6 0.3 0.55 0.35" fill="#b3936d" fill-rule="evenodd" stroke="none"/>
    <path d="M0.6 0.2 L0.6 0.15 0.6 0.2" fill="#d2ab7e" fill-rule="evenodd" stroke="none"/>
    <path d="M0.7 0.3 L0.75 0.35 0.75 0.4 0.75 0.5 0.7 0.5 0.6 0.5 0.65 0.55 0.7 0.6 0.6 0.65 0.5 0.65 0.5 0.55 Q0.5 0.5 0.5 0.5 L0.5 0.45 0.6 0.4 0.7 0.3" fill="#2e2914" fill-rule="evenodd" stroke="none"/>
    <path d="M0.5 0.35 L0.55 0.35 0.6 0.4 0.55 0.4 0.5 0.35" fill="#a48663" fill-rule="evenodd" stroke="none"/>
    <path d="M0.7 0.6 L0.65 0.55 0.6 0.5 0.7 0.5 0.75 0.5 0.75 0.55 0.7 0.6" fill="#131208" fill-rule="evenodd" stroke="none"/>
    <path d="M0.75 0.5 L0.75 0.6 0.8 0.65 0.75 0.7 Q0.75 0.75 0.75 0.75 L0.8 0.8 0.7 0.85 0.55 0.9 0.55 0.85 0.55 0.8 0.5 0.7 0.5 0.65 0.6 0.65 0.7 0.6 0.75 0.55 0.75 0.5" fill="#695437" fill-rule="evenodd" stroke="none"/>
    <path d="M1.0 0.55 Q0.95 0.5 0.95 0.45 L0.95 0.35 1.0 0.45 1.0 0.55" fill="#acafb7" fill-rule="evenodd" stroke="none"/>
    <path d="M0.85 0.35 L0.85 0.4 0.85 0.35" fill="#acb1ba" fill-rule="evenodd" stroke="none"/>
    <path d="M0.8 0.4 Q0.85 0.4 0.85 0.45 L0.85 0.5 0.75 0.5 0.75 0.4 0.8 0.4" fill="#a9aeb7" fill-rule="evenodd" stroke="none"/>
    <path d="M0.75 0.6 L0.8 0.6 0.85 0.55 0.9 0.5 0.9 0.55 0.95 0.6 1.0 0.6 0.95 0.65 0.9 0.6 0.8 0.65 0.75 0.6" fill="#474644" fill-rule="evenodd" stroke="none"/>
    <path d="M0.9 0.55 L0.95 0.55 1.0 0.55 1.0 0.6 0.95 0.6 0.9 0.55" fill="#93979e" fill-rule="evenodd" stroke="none"/>
    <path d="M0.45 0.3 L0.4 0.3 0.45 0.3" fill="#d2ac7e" fill-rule="evenodd" stroke="none"/>
    <path d="M0.1 0.35 L0.05 0.35 Q0.1 0.3 0.1 0.35 L0.2 0.35 0.2 0.4 Q0.25 0.35 0.3 0.35 L0.4 0.35 0.35 0.4 0.3 0.4 0.25 0.45 0.25 0.5 0.2 0.5 0.15 0.55 0.1 0.5 0.05 0.5 0.05 0.55 Q0.0 0.55 -0.05 0.6 L-0.1 0.65 -0.2 0.7 -0.1 0.6 0.05 0.5 0.1 0.45 0.1 0.35" fill="#11120e" fill-rule="evenodd" stroke="none"/>
    <path d="M-0.4 -0.05 L-0.4 -0.05 -0.35 0.0 -0.2 0.15 -0.05 0.35 0.0 0.35 0.1 0.35 0.1 0.45 0.05 0.5 -0.1 0.4 -0.2 0.3 -0.3 0.2 -0.4 0.05 -0.7 -0.1 -0.6 -0.1 -0.55 -0.1 -0.45 -0.05 -0.4 -0.05" fill="#765f3c" fill-rule="evenodd" stroke="none"/>
    <path d="M-0.2 0.7 L-0.1 0.65 -0.05 0.6 Q0.0 0.55 0.05 0.55 L0.05 0.5 0.1 0.5 0.15 0.55 0.2 0.55 0.15 0.6 0.15 0.65 0.1 0.7 0.05 0.7 0.0 0.75 0.0 0.65 Q0.0 0.75 -0.05 0.75 L-0.15 0.8 -0.2 0.75 -0.2 0.7" fill="#302b13" fill-rule="evenodd" stroke="none"/>
    <path d="M0.15 0.55 L0.2 0.5 0.25 0.5 0.3 0.5 0.3 0.55 0.25 0.55 0.2 0.55 0.15 0.55" fill="#726e66" fill-rule="evenodd" stroke="none"/>
    <path d="M0.5 0.5 Q0.5 0.5 0.5 0.55 L0.45 0.55 0.35 0.55 Q0.3 0.55 0.25 0.6 L0.3 0.65 0.3 0.7 0.25 0.65 0.2 0.65 0.2 0.65 0.25 0.7 0.15 0.75 0.1 0.8 0.1 0.85 0.15 0.9 0.05 0.95 -0.05 1.0 Q-0.1 0.95 -0.15 0.95 L-0.15 0.85 -0.1 0.9 0.0 0.9 Q-0.05 0.85 -0.05 0.85 L-0.15 0.85 -0.15 0.8 -0.05 0.75 Q0.0 0.75 0.0 0.65 L0.0 0.75 0.05 0.7 0.1 0.7 0.15 0.65 0.15 0.6 0.2 0.55 0.25 0.55 0.3 0.55 0.35 0.55 0.35 0.5 0.45 0.5 0.5 0.5" fill="#12120b" fill-rule="evenodd" stroke="none"/>
    <path d="M0.45 0.45 L0.45 0.4 0.5 0.4 0.45 0.45" fill="#c39f76" fill-rule="evenodd" stroke="none"/>
    <path d="M0.5 0.45 L0.5 0.5 0.45 0.5 0.35 0.5 0.35 0.45 0.3 0.5 0.25 0.5 0.25 0.45 0.3 0.4 0.35 0.4 0.4 0.35 0.45 0.4 0.45 0.45 0.5 0.45" fill="#494542" fill-rule="evenodd" stroke="none"/>
    <path d="M0.3 0.55 L0.3 0.5 0.35 0.45 0.35 0.5 0.35 0.55 0.3 0.55" fill="#b7b5aa" fill-rule="evenodd" stroke="none"/>
    <path d="M0.3 0.7 L0.3 0.65 0.25 0.6 Q0.3 0.55 0.35 0.55 L0.45 0.55 0.35 0.6 0.3 0.65 0.35 0.7 0.4 0.7 0.5 0.7 Q0.45 0.7 0.45 0.75 L0.4 0.75 0.45 0.75 0.45 0.85 0.55 0.85 0.55 0.9 0.55 0.95 0.5 0.9 0.4 0.9 0.35 0.9 0.35 0.85 0.3 0.75 0.3 0.7" fill="#656260" fill-rule="evenodd" stroke="none"/>
    <path d="M0.45 0.55 L0.45 0.6 0.4 0.65 0.45 0.65 0.5 0.65 0.5 0.7 0.4 0.7 0.35 0.7 0.3 0.65 0.35 0.6 0.45 0.55" fill="#a6aab4" fill-rule="evenodd" stroke="none"/>
    <path d="M0.5 0.55 L0.5 0.65 0.45 0.65 0.4 0.65 0.45 0.6 0.45 0.55 0.5 0.55 M0.45 0.75 Q0.45 0.7 0.5 0.7 L0.45 0.75" fill="#f5f7f9" fill-rule="evenodd" stroke="none"/>
    <path d="M0.55 0.85 L0.45 0.85 0.45 0.75 0.4 0.75 0.45 0.75 0.5 0.7 0.55 0.8 0.55 0.85" fill="#9da1aa" fill-rule="evenodd" stroke="none"/>
    <path d="M0.2 0.65 L0.25 0.65 0.3 0.7 0.3 0.75 0.3 0.85 0.3 0.8 0.3 0.75 0.25 0.75 0.25 0.7 0.2 0.65" fill="#8e867f" fill-rule="evenodd" stroke="none"/>
    <path d="M0.35 0.9 L0.3 0.85 0.3 0.75 0.35 0.85 0.35 0.9" fill="#9ca0a7" fill-rule="evenodd" stroke="none"/>
    <path d="M0.3 0.8 L0.25 0.8 0.25 0.75 0.3 0.75 0.3 0.8" fill="#e0dddb" fill-rule="evenodd" stroke="none"/>
    <path d="M0.35 0.9 Q0.4 0.95 0.4 0.95 L0.5 0.9 0.45 0.95 0.4 0.95 0.35 1.0 0.35 0.9" fill="#42413e" fill-rule="evenodd" stroke="none"/>
    <path d="M0.5 0.9 L0.4 0.95 Q0.4 0.95 0.35 0.9 L0.4 0.9 0.5 0.9" fill="#14191f" fill-rule="evenodd" stroke="none"/>
    <path d="M0.25 0.75 L0.25 0.7 0.2 0.65 0.25 0.7 0.25 0.75" fill="#e3e6e9" fill-rule="evenodd" stroke="none"/>
    <path d="M-0.15 0.95 Q-0.1 0.95 -0.05 1.0 L0.05 0.95 0.15 0.9 0.15 0.95 0.2 1.0 0.1 1.0 0.05 1.0 Q0.05 1.05 0.1 1.2 L0.1 1.35 0.15 1.4 0.1 1.4 Q0.05 1.4 0.05 1.4 L0.0 1.45 -0.05 1.45 0.0 1.4 0.0 1.35 0.05 1.35 -0.05 1.2 -0.1 1.05 -0.15 1.1 -0.2 1.05 -0.15 0.95" fill="#3f3b23" fill-rule="evenodd" stroke="none"/>
    <path d="M0.15 1.4 L0.1 1.35 0.1 1.2 Q0.05 1.05 0.05 1.0 L0.1 1.0 0.2 1.0 0.2 1.35 0.25 1.45 0.25 1.6 0.2 1.5 0.15 1.4" fill="#262214" fill-rule="evenodd" stroke="none"/>
    <path d="M0.4 1.0 L0.4 0.95 0.45 0.95 0.5 0.9 0.55 0.95 0.5 1.0 0.45 1.05 0.45 1.0 0.4 1.0 0.4 1.05 0.45 1.05 0.4 1.05 0.4 1.0" fill="#bfc0c0" fill-rule="evenodd" stroke="none"/>
    <path d="M0.4 0.95 L0.4 1.0 0.4 1.05 0.4 1.0 0.35 1.0 0.4 0.95 M0.35 1.05 L0.4 1.05 0.35 1.05 M1.0 0.7 L0.9 0.7 0.8 0.7 Q0.85 0.7 0.9 0.7 L0.95 0.65 1.0 0.7" fill="#757572" fill-rule="evenodd" stroke="none"/>
    <path d="M0.4 1.0 L0.45 1.0 0.45 1.05 0.4 1.05 0.4 1.0 0.4 1.05 0.4 1.0" fill="#f1f1f1" fill-rule="evenodd" stroke="none"/>
    <path d="M0.35 1.0 L0.4 1.0 0.4 1.05 0.35 1.05 0.35 1.0" fill="#aeafac" fill-rule="evenodd" stroke="none"/>
    <path d="M0.45 1.05 L0.5 1.0 0.55 0.95 0.55 1.0 0.5 1.05 0.45 1.05" fill="#787975" fill-rule="evenodd" stroke="none"/>
    <path d="M0.35 1.0 L0.35 1.05 0.4 1.15 Q0.4 1.2 0.35 1.15 L0.25 1.15 0.25 1.05 Q0.3 1.0 0.35 1.0" fill="#4f251b" fill-rule="evenodd" stroke="none"/>
    <path d="M0.4 1.15 L0.35 1.05 0.45 1.05 0.5 1.05 0.55 1.05 0.55 1.1 0.45 1.15 0.4 1.15" fill="#363533" fill-rule="evenodd" stroke="none"/>
    <path d="M1.0 0.75 L1.0 0.8 1.0 0.85 0.95 0.9 0.95 0.85 0.95 0.8 1.0 0.75 0.95 0.75 0.9 0.75 0.85 0.8 0.8 0.75 0.8 0.7 0.9 0.7 1.0 0.7 1.0 0.75" fill="#c8cacb" fill-rule="evenodd" stroke="none"/>
    <path d="M0.8 0.65 L0.9 0.65 0.95 0.65 0.9 0.7 Q0.85 0.7 0.8 0.7 L0.8 0.75 0.75 0.75 Q0.75 0.75 0.75 0.7 L0.8 0.65" fill="#41403d" fill-rule="evenodd" stroke="none"/>
    <path d="M0.85 0.8 L0.9 0.75 0.95 0.75 0.95 0.8 0.95 0.85 0.9 0.85 0.85 0.85 0.8 0.85 0.85 0.8" fill="#3e302c" fill-rule="evenodd" stroke="none"/>
    <path d="M0.95 0.75 L1.0 0.75 0.95 0.8 0.95 0.75" fill="#848582" fill-rule="evenodd" stroke="none"/>
    <path d="M0.8 0.75 L0.85 0.8 0.8 0.8 0.75 0.75 0.8 0.75" fill="#81817e" fill-rule="evenodd" stroke="none"/>
    <path d="M0.5 1.05 L0.55 1.0 0.55 0.95 0.55 0.9 0.7 0.85 0.8 0.8 0.8 0.85 0.85 0.85 0.9 0.9 0.75 0.95 0.55 1.05 0.5 1.05" fill="#351b14" fill-rule="evenodd" stroke="none"/>
    <path d="M0.85 0.8 L0.8 0.85 0.8 0.8 0.85 0.8" fill="#dcdcdc" fill-rule="evenodd" stroke="none"/>
    <path d="M0.95 0.85 L0.95 0.9 0.9 0.9 0.85 0.85 0.9 0.85 0.95 0.85" fill="#6f706d" fill-rule="evenodd" stroke="none"/>
    <path d="M0.65 2.2 L0.55 2.2 0.45 2.1 0.35 1.95 0.3 1.85 0.15 1.85 0.25 1.75 0.35 1.65 0.35 1.6 0.3 1.55 Q0.3 1.5 0.35 1.5 L0.5 1.5 0.65 1.45 0.75 1.5 0.8 1.55 1.0 1.6 1.0 1.55 1.05 1.5 1.1 1.5 1.25 1.2 1.25 1.25 1.3 1.3 1.4 1.35 1.5 1.45 1.45 1.55 1.4 1.55 1.35 1.6 1.25 1.65 1.1 1.65 1.1 1.7 1.05 1.8 1.0 1.75 0.9 1.7 0.85 1.65 0.7 1.6 0.65 1.6 0.55 1.5 Q0.45 1.5 0.4 1.6 0.35 1.65 0.4 1.75 L0.55 1.9 0.65 2.1 0.65 2.2" fill="#5a482d" fill-rule="evenodd" stroke="none"/>
    <path d="M0.8 2.2 L0.65 2.2 0.65 2.1 0.55 1.9 0.4 1.75 Q0.35 1.65 0.4 1.6 0.45 1.5 0.55 1.5 L0.65 1.6 0.7 1.6 0.85 1.65 0.9 1.7 1.0 1.75 1.05 1.8 1.1 1.7 1.1 1.65 1.25 1.65 1.35 1.6 1.4 1.55 1.45 1.55 1.5 1.45 1.55 1.5 1.6 1.55 1.5 1.6 1.4 1.65 1.25 1.75 1.2 1.8 1.15 1.9 1.1 1.85 1.05 1.85 0.85 1.95 0.65 1.95 0.8 2.2" fill="#53432a" fill-rule="evenodd" stroke="none"/>
    <path d="M0.25 1.6 L0.15 1.6 0.05 1.65 Q-0.05 1.65 -0.1 1.7 L-0.15 1.7 -0.25 1.7 -0.35 1.7 -0.25 1.65 -0.25 1.6 -0.15 1.6 Q-0.1 1.6 -0.15 1.55 L-0.2 1.55 -0.2 1.5 Q-0.15 1.5 -0.15 1.55 L-0.15 1.55 -0.1 1.55 -0.1 1.5 -0.1 1.45 -0.05 1.45 -0.05 1.45 0.0 1.45 0.05 1.4 Q0.05 1.4 0.1 1.4 L0.15 1.4 0.2 1.5 0.25 1.6 M-0.4 1.65 L-0.35 1.7 -0.45 1.7 -0.4 1.65" fill="#35301d" fill-rule="evenodd" stroke="none"/>
    <path d="M0.0 2.2 L-0.25 2.2 Q-0.3 2.1 -0.2 2.05 L-0.15 2.0 -0.1 1.95 -0.1 1.9 -0.15 1.85 -0.1 1.75 -0.1 1.7 Q-0.05 1.65 0.05 1.65 0.1 1.75 0.05 1.8 L0.0 1.9 -0.05 2.0 0.0 2.1 0.0 2.2" fill="#6a5536" fill-rule="evenodd" stroke="none"/>
    <path d="M1.8 1.45 L1.85 1.5 1.9 1.6 1.9 1.7 1.85 1.85 Q1.75 1.85 1.7 1.75 1.6 1.65 1.6 1.55 L1.65 1.55 1.65 1.5 Q1.65 1.45 1.7 1.45 L1.8 1.45 M1.7 1.5 L1.7 1.55 1.75 1.55 1.75 1.5 1.7 1.5 M1.8 1.7 L1.8 1.65 1.75 1.65 1.8 1.7 M1.85 1.75 L1.8 1.75 Q1.8 1.8 1.85 1.75" fill="#312d1b" fill-rule="evenodd" stroke="none"/>
    <path d="M1.7 1.5 L1.75 1.5 1.75 1.55 1.7 1.55 1.7 1.5" fill="#7e7853" fill-rule="evenodd" stroke="none"/>
    <path d="M1.8 1.7 L1.75 1.65 1.8 1.65 1.8 1.7" fill="#7a7450" fill-rule="evenodd" stroke="none"/>
    <path d="M1.85 1.75 Q1.8 1.8 1.8 1.75 L1.85 1.75" fill="#76704c" fill-rule="evenodd" stroke="none"/>
    <path d="M-2.2 -1.95 L-2.2 -2.15 -1.9 -2.05 -1.8 -2.1 -1.75 -2.05 -1.75 -2.0 -1.8 -1.95 -1.85 -1.85 Q-1.9 -1.9 -2.0 -1.9 L-2.1 -1.95 -2.2 -1.95" fill="#3b2d23" fill-rule="evenodd" stroke="none"/>
    <path d="M-2.2 -1.65 L-2.2 -1.95 -2.1 -1.95 -2.0 -1.9 Q-1.9 -1.9 -1.85 -1.85 L-1.8 -1.95 -1.75 -2.0 -1.75 -2.05 -1.8 -2.1 -1.9 -2.05 -2.2 -2.15 -2.2 -2.2 -1.2 -2.2 -1.25 -2.1 -1.3 -2.0 Q-1.35 -1.95 -1.4 -1.95 L-1.55 -1.95 -1.65 -1.9 -1.65 -1.8 Q-1.7 -1.75 -1.8 -1.75 -1.85 -1.75 -1.85 -1.8 L-1.95 -1.75 -1.95 -1.65 -2.2 -1.65" fill="#4d3f2a" fill-rule="evenodd" stroke="none"/>
    <path d="M-2.2 -1.55 L-2.2 -1.55 -2.0 -1.55 -1.85 -1.55 -1.0 -1.45 -1.05 -1.45 -1.05 -1.45 -1.1 -1.45 -1.3 -1.45 -1.45 -1.5 -1.6 -1.5 -1.75 -1.5 -1.95 -1.55 -2.05 -1.55 -2.2 -1.55" fill="#948a65" fill-rule="evenodd" stroke="none"/>
    <path d="M-1.7 -1.35 L-1.85 -1.3 -1.95 -1.3 Q-1.95 -1.25 -1.95 -1.2 L-2.0 -1.2 -2.05 -1.15 -1.85 -1.15 -1.65 -1.2 -1.6 -1.15 -1.7 -1.15 -1.85 -1.1 Q-1.95 -1.1 -2.05 -1.15 L-2.1 -1.2 -2.2 -1.2 -2.2 -1.2 -2.1 -1.2 -2.05 -1.25 -2.05 -1.3 -1.95 -1.3 Q-1.9 -1.3 -1.95 -1.35 L-1.85 -1.35 -1.7 -1.35 -1.7 -1.35" fill="#ffffdb" fill-rule="evenodd" stroke="none"/>
    <path d="M-2.2 -1.2 L-2.2 -1.5 -2.1 -1.45 -1.95 -1.45 Q-1.95 -1.4 -2.0 -1.4 L-2.05 -1.4 Q-2.05 -1.35 -2.0 -1.35 L-1.95 -1.35 Q-1.9 -1.3 -1.95 -1.3 L-2.05 -1.3 -2.05 -1.25 -2.1 -1.2 -2.2 -1.2 M-1.95 -1.45 L-1.95 -1.45" fill="#fffcad" fill-rule="evenodd" stroke="none"/>
    <path d="M-2.2 -1.5 L-2.2 -1.55 -2.05 -1.55 -1.95 -1.55 -1.95 -1.55 -1.95 -1.45 -2.1 -1.45 -2.2 -1.5" fill="#fad58b" fill-rule="evenodd" stroke="none"/>
    <path d="M-2.2 -1.55 L-2.2 -1.6 -1.85 -1.6 -1.85 -1.65 -1.75 -1.6 Q-1.7 -1.6 -1.75 -1.6 L-1.8 -1.6 -1.8 -1.55 -1.85 -1.55 -2.0 -1.55 -2.2 -1.55" fill="#7d7754" fill-rule="evenodd" stroke="none"/>
    <path d="M-2.2 -1.6 L-2.2 -1.65 -1.95 -1.65 -1.85 -1.65 -1.85 -1.6 -2.2 -1.6" fill="#675a3c" fill-rule="evenodd" stroke="none"/>
    <path d="M-1.6 -1.15 L-1.45 -1.15 -1.45 -1.1 -1.65 -1.1 -1.9 -1.1 -2.1 -1.1 Q-2.1 -1.05 -2.2 -1.05 L-2.2 -1.2 -2.1 -1.2 -2.05 -1.15 Q-1.95 -1.1 -1.85 -1.1 L-1.7 -1.15 -1.6 -1.15" fill="#fdfaab" fill-rule="evenodd" stroke="none"/>
    <path d="M-1.65 -1.1 L-1.65 -1.1 -1.6 -1.1 -1.6 -1.05 -1.6 -1.0 -1.6 -1.0 -1.65 -0.95 -1.65 -0.95 -1.7 -0.9 -1.7 -0.85 -1.75 -0.8 -1.75 -0.75 -1.8 -0.75 -1.8 -0.65 -1.8 -0.6 -1.9 -0.6 -1.9 -0.55 -1.85 -0.55 -1.8 -0.55 Q-1.75 -0.55 -1.75 -0.5 -1.8 -0.5 -1.8 -0.5 L-1.85 -0.45 -1.85 -0.45 -1.9 -0.45 -1.95 -0.45 -1.95 -0.5 -2.0 -0.6 -2.0 -0.65 -1.95 -0.65 -1.95 -0.7 -1.9 -0.7 -1.95 -0.75 -2.05 -0.75 -2.0 -0.75 -1.95 -0.75 -1.85 -0.8 -1.85 -0.8 -1.9 -0.8 -1.95 -0.8 -1.9 -0.85 -1.85 -0.85 -1.8 -0.85 Q-1.75 -0.9 -1.8 -0.95 L-1.85 -0.9 -1.95 -0.9 -2.0 -0.9 Q-2.05 -0.9 -2.1 -0.9 L-1.9 -0.95 -1.75 -0.95 -1.7 -0.95 -1.7 -1.0 -1.85 -1.0 -1.95 -0.95 -1.95 -1.0 -1.9 -1.0 -1.65 -1.05 -1.7 -1.05 -1.75 -1.05 -1.85 -1.05 -1.95 -1.05 -2.1 -1.05 -2.2 -1.0 -2.2 -1.05 Q-2.1 -1.05 -2.1 -1.1 L-1.9 -1.1 -1.65 -1.1 M-1.75 -0.75 L-1.75 -0.75" fill="#feffe5" fill-rule="evenodd" stroke="none"/>
    <path d="M-2.2 -0.85 L-2.2 -1.0 -2.1 -1.05 -1.95 -1.05 -1.95 -1.0 -1.9 -1.0 -1.95 -1.0 -1.95 -0.95 -2.05 -0.95 Q-2.1 -0.95 -2.1 -0.9 -2.05 -0.9 -2.0 -0.9 L-1.95 -0.9 -1.85 -0.9 -1.8 -0.95 Q-1.75 -0.9 -1.8 -0.85 L-1.85 -0.85 -1.9 -0.85 -1.95 -0.8 -2.05 -0.8 -2.05 -0.85 -2.1 -0.85 -2.2 -0.85" fill="#fffdb3" fill-rule="evenodd" stroke="none"/>
    <path d="M-2.2 -0.4 L-2.2 -0.65 -2.1 -0.65 -2.05 -0.6 Q-2.05 -0.6 -2.1 -0.55 L-2.15 -0.5 -1.95 -0.45 -1.9 -0.45 -1.9 -0.4 Q-1.9 -0.35 -1.85 -0.35 L-1.85 -0.35 -1.9 -0.35 -2.05 -0.4 -2.2 -0.4 M-1.85 -0.35 L-1.85 -0.35" fill="#fad083" fill-rule="evenodd" stroke="none"/>
    <path d="M-2.2 -0.65 L-2.2 -0.85 -2.1 -0.85 -2.05 -0.85 -2.05 -0.8 -1.95 -0.8 -1.9 -0.8 -1.85 -0.8 -1.85 -0.8 -1.95 -0.75 -2.0 -0.75 -2.05 -0.75 -1.95 -0.75 -1.9 -0.7 -1.95 -0.7 -1.95 -0.65 -2.0 -0.65 -2.0 -0.6 -1.95 -0.5 -1.95 -0.45 -2.15 -0.5 -2.1 -0.55 Q-2.05 -0.6 -2.05 -0.6 L-2.1 -0.65 -2.2 -0.65" fill="#fff7a3" fill-rule="evenodd" stroke="none"/>
    <path d="M-2.1 -0.9 Q-2.1 -0.95 -2.05 -0.95 L-1.95 -0.95 -1.85 -1.0 -1.7 -1.0 -1.7 -0.95 -1.75 -0.95 -1.9 -0.95 -2.1 -0.9" fill="#ffea96" fill-rule="evenodd" stroke="none"/>
    <path d="M-2.2 -0.35 L-2.2 -0.4 -2.05 -0.4 -1.9 -0.35 -2.05 -0.35 -2.2 -0.35" fill="#cda468" fill-rule="evenodd" stroke="none"/>
    <path d="M-2.2 -0.3 L-2.2 -0.35 -2.05 -0.35 -1.9 -0.35 -1.85 -0.35 -1.85 -0.35 -1.85 -0.25 -1.9 -0.25 -2.05 -0.3 -2.2 -0.3 M-1.8 -0.35 L-1.85 -0.35 -1.8 -0.35" fill="#9d7e51" fill-rule="evenodd" stroke="none"/>
    <path d="M-2.2 0.2 L-2.2 -0.3 -2.05 -0.3 -1.9 -0.25 -1.85 -0.25 -1.85 -0.35 -1.8 -0.35 -1.8 -0.35 -1.8 -0.35 -1.85 -0.25 -1.85 -0.25 -1.9 -0.25 Q-1.95 0.15 -1.85 0.5 L-1.85 0.45 -1.9 0.35 -1.9 0.25 Q-1.95 0.15 -2.0 0.05 L-2.05 0.15 Q-2.1 0.2 -2.2 0.2 M-1.85 0.5 L-1.85 0.5" fill="#56452d" fill-rule="evenodd" stroke="none"/>
    <path d="M-0.9 -2.2 L-0.65 -2.2 -0.7 -2.1 -0.75 -2.0 -0.5 -1.95 -0.3 -1.95 -0.25 -1.9 -0.25 -1.85 -0.5 -1.85 -0.7 -1.8 -0.7 -1.6 -0.65 -1.6 -0.7 -1.55 -0.75 -1.65 -0.75 -1.75 -0.75 -1.85 -0.5 -1.85 -0.3 -1.85 -0.25 -1.9 -0.3 -1.95 -0.55 -1.95 -0.8 -1.95 -0.8 -2.05 -0.9 -2.2" fill="#55462e" fill-rule="evenodd" stroke="none"/>
    <path d="M-1.1 -2.2 L-0.9 -2.2 -0.8 -2.05 -0.8 -1.95 -0.55 -1.95 -0.3 -1.95 -0.25 -1.9 -0.3 -1.85 -0.5 -1.85 -0.75 -1.85 -0.75 -1.75 -0.75 -1.85 -0.65 -1.85 -0.5 -1.9 -0.65 -1.9 -0.8 -1.9 -0.85 -1.95 -0.85 -2.1 -0.95 -2.15 -1.0 -2.1 -1.0 -2.0 -1.05 -1.95 -1.15 -1.9 -1.2 -1.95 -1.15 -2.1 -1.1 -2.2 M-0.75 -1.75 L-0.75 -1.75" fill="#493b30" fill-rule="evenodd" stroke="none"/>
    <path d="M-0.65 -2.2 L-0.2 -2.2 -0.25 -2.1 -0.3 -2.0 -0.25 -1.95 Q-0.2 -1.9 -0.25 -1.85 L-0.45 -1.8 -0.65 -1.75 -0.6 -1.75 -0.55 -1.7 -0.6 -1.6 Q-0.65 -1.55 -0.7 -1.55 L-0.65 -1.6 -0.7 -1.6 -0.7 -1.8 -0.5 -1.85 -0.25 -1.85 -0.25 -1.9 -0.3 -1.95 -0.5 -1.95 -0.75 -2.0 -0.7 -2.1 -0.65 -2.2" fill="#614e32" fill-rule="evenodd" stroke="none"/>
    <path d="M-1.2 -2.2 L-1.1 -2.2 -1.15 -2.1 -1.2 -1.95 -1.15 -1.9 -1.05 -1.95 -1.0 -2.0 -1.0 -2.1 -0.95 -2.15 -0.85 -2.1 -0.85 -1.95 -0.8 -1.9 -0.65 -1.9 -0.5 -1.9 -0.65 -1.85 -0.75 -1.85 -0.75 -1.75 Q-0.75 -1.75 -0.75 -1.7 L-0.8 -1.65 -0.9 -1.6 -1.05 -1.6 -1.05 -1.55 Q-1.0 -1.5 -1.05 -1.5 L-1.35 -1.55 -1.35 -1.6 -1.55 -1.6 -1.75 -1.6 -1.85 -1.65 -1.95 -1.65 -1.95 -1.75 -1.85 -1.8 Q-1.85 -1.75 -1.8 -1.75 -1.7 -1.75 -1.65 -1.8 L-1.65 -1.9 -1.55 -1.95 -1.4 -1.95 Q-1.35 -1.95 -1.3 -2.0 L-1.25 -2.1 -1.2 -2.2 M-0.95 -2.1 L-1.0 -2.0 -1.0 -1.95 -1.2 -1.8 -1.25 -1.8 -1.3 -1.85 -1.25 -1.9 -1.25 -2.0 Q-1.25 -1.95 -1.35 -1.95 L-1.45 -1.85 Q-1.5 -1.95 -1.55 -1.95 L-1.6 -1.85 -1.55 -1.85 -1.5 -1.85 -1.5 -1.8 -1.5 -1.75 -1.4 -1.75 -1.3 -1.7 -1.25 -1.65 Q-1.25 -1.6 -1.2 -1.65 L-1.15 -1.7 -1.1 -1.7 -1.0 -1.75 -0.9 -1.75 Q-0.9 -1.7 -0.95 -1.7 L-1.1 -1.7 Q-1.1 -1.65 -1.1 -1.65 L-1.0 -1.65 -0.9 -1.65 Q-0.85 -1.65 -0.8 -1.7 -0.75 -1.7 -0.8 -1.8 L-0.85 -1.9 -0.85 -2.05 Q-0.85 -2.1 -0.95 -2.1" fill="#373529" fill-rule="evenodd" stroke="none"/>
    <path d="M-0.95 -2.1 Q-0.85 -2.1 -0.85 -2.05 L-0.85 -1.9 -0.8 -1.8 Q-0.75 -1.7 -0.8 -1.7 -0.85 -1.65 -0.9 -1.65 L-1.0 -1.65 -1.1 -1.65 Q-1.1 -1.65 -1.1 -1.7 L-0.95 -1.7 Q-0.9 -1.7 -0.9 -1.75 L-1.0 -1.75 -1.1 -1.7 -1.15 -1.7 -1.2 -1.65 Q-1.25 -1.6 -1.25 -1.65 L-1.3 -1.7 -1.4 -1.75 -1.5 -1.75 -1.5 -1.8 -1.5 -1.85 -1.55 -1.85 -1.6 -1.85 -1.55 -1.95 Q-1.5 -1.95 -1.45 -1.85 L-1.35 -1.95 Q-1.25 -1.95 -1.25 -2.0 L-1.25 -1.9 -1.3 -1.85 -1.25 -1.8 -1.2 -1.8 -1.0 -1.95 -1.0 -2.0 -0.95 -2.1" fill="#262721" fill-rule="evenodd" stroke="none"/>
    <path d="M-0.65 -1.55 L-0.55 -1.5 -0.55 -1.45 -0.6 -1.45 -0.8 -1.5 -0.85 -1.5 -1.05 -1.5 Q-1.0 -1.5 -1.05 -1.55 L-1.05 -1.6 -0.9 -1.6 -0.8 -1.65 -0.75 -1.7 Q-0.75 -1.75 -0.75 -1.75 L-0.75 -1.65 -0.7 -1.55 -0.75 -1.55 -0.65 -1.55 M-0.75 -1.75 L-0.75 -1.75" fill="#3e4934" fill-rule="evenodd" stroke="none"/>
    <path d="M-0.1 -1.55 L-0.1 -1.5 -0.3 -1.5 -0.55 -1.55 -0.55 -1.55 -0.5 -1.55 -0.4 -1.55 -0.3 -1.55 -0.1 -1.55 M-0.1 -1.5 L-0.15 -1.5 -0.1 -1.5 M-0.5 -1.55 L-0.5 -1.55" fill="#b6925d" fill-rule="evenodd" stroke="none"/>
    <path d="M-1.05 -1.5 L-0.85 -1.5 -0.9 -1.5 -1.2 -1.5 -1.55 -1.55 -1.55 -1.55 -1.6 -1.6 -1.6 -1.6 -1.45 -1.55 -1.35 -1.55 -1.05 -1.5" fill="#797a5d" fill-rule="evenodd" stroke="none"/>
    <path d="M-1.0 -1.45 L-1.85 -1.55 -1.8 -1.55 -1.8 -1.6 -1.75 -1.6 Q-1.7 -1.6 -1.75 -1.6 L-1.55 -1.6 -1.35 -1.6 -1.35 -1.55 -1.45 -1.55 -1.6 -1.6 -1.6 -1.6 -1.55 -1.55 -1.55 -1.55 -1.2 -1.5 -0.9 -1.5 -0.85 -1.5 -0.8 -1.5 -0.85 -1.5 -0.7 -1.45 -0.6 -1.45 -0.5 -1.45 -0.45 -1.45 -0.45 -1.45 -0.45 -1.4 -0.5 -1.4 -0.6 -1.4 -0.65 -1.4 -0.7 -1.4 -0.75 -1.45 -0.8 -1.45 -0.9 -1.45 -1.0 -1.45" fill="#505841" fill-rule="evenodd" stroke="none"/>
    <path d="M-1.05 -1.45 L-1.05 -1.45 -1.0 -1.45 -0.9 -1.45 -0.8 -1.45 -0.85 -1.4 -1.05 -1.45 M-0.85 -1.4 L-0.85 -1.4" fill="#a4ca98" fill-rule="evenodd" stroke="none"/>
    <path d="M-0.85 -1.4 L-0.8 -1.35 -0.75 -1.35 -0.75 -1.3 -0.9 -1.35 -0.9 -1.4 -0.85 -1.4 -0.85 -1.4 M-0.9 -1.35 L-0.9 -1.35" fill="#d3face" fill-rule="evenodd" stroke="none"/>
    <path d="M-0.55 -1.4 L-0.7 -1.4 -0.85 -1.4 -0.8 -1.45 -0.75 -1.45 -0.7 -1.4 -0.65 -1.4 -0.6 -1.4 -0.55 -1.4" fill="#c6f9c6" fill-rule="evenodd" stroke="none"/>
    <path d="M-0.8 -1.5 L-0.6 -1.45 -0.7 -1.45 -0.85 -1.5 -0.8 -1.5 M-0.6 -1.45 L-0.6 -1.45" fill="#83a672" fill-rule="evenodd" stroke="none"/>
    <path d="M-0.95 -1.25 L-0.95 -1.25 -0.8 -1.25 Q-0.75 -1.25 -0.75 -1.2 L-0.85 -1.25 -1.0 -1.25 -0.95 -1.25" fill="#ffffca" fill-rule="evenodd" stroke="none"/>
    <path d="M-1.1 -1.45 L-1.05 -1.45 -0.85 -1.4 -0.9 -1.4 -0.9 -1.35 -1.3 -1.35 -1.7 -1.35 -1.85 -1.35 -1.95 -1.35 -2.0 -1.35 Q-2.05 -1.35 -2.05 -1.4 L-2.0 -1.4 Q-1.95 -1.4 -1.95 -1.45 L-1.7 -1.45 Q-1.65 -1.45 -1.6 -1.4 -1.55 -1.4 -1.55 -1.4 L-1.45 -1.4 -1.35 -1.4 -1.35 -1.4 -1.3 -1.45 -1.1 -1.45" fill="#fffff2" fill-rule="evenodd" stroke="none"/>
    <path d="M-0.9 -1.35 L-1.0 -1.35 -1.15 -1.35 -1.35 -1.3 -1.55 -1.35 -1.7 -1.35 -1.3 -1.35 -0.9 -1.35 -0.9 -1.35 M-1.7 -1.35 L-1.7 -1.35" fill="#f6f9bd" fill-rule="evenodd" stroke="none"/>
    <path d="M-0.25 -1.45 L-0.3 -1.4 -0.4 -1.45 -0.4 -1.45 -0.45 -1.45 -0.45 -1.45 -0.5 -1.45 -0.6 -1.45 -0.55 -1.45 -0.4 -1.45 -0.25 -1.45 M-0.6 -1.45 L-0.6 -1.45" fill="#ecca80" fill-rule="evenodd" stroke="none"/>
    <path d="M-0.5 -1.4 L-0.55 -1.4 -0.6 -1.4 -0.5 -1.4" fill="#b7bf8a" fill-rule="evenodd" stroke="none"/>
    <path d="M-0.3 -1.4 L-0.15 -1.4 -0.05 -1.35 -0.25 -1.35 -0.35 -1.35 -0.4 -1.4 -0.5 -1.4 -0.45 -1.4 -0.45 -1.45 -0.4 -1.45 -0.4 -1.45 -0.3 -1.4" fill="#a28252" fill-rule="evenodd" stroke="none"/>
    <path d="M-1.95 -1.55 L-1.75 -1.5 -1.85 -1.5 -1.95 -1.55 -1.95 -1.55" fill="#b8c594" fill-rule="evenodd" stroke="none"/>
    <path d="M-1.75 -1.5 L-1.6 -1.5 -1.6 -1.45 -1.65 -1.45 -1.7 -1.45 -1.95 -1.45 -1.95 -1.45 -1.95 -1.55 -1.85 -1.5 -1.75 -1.5" fill="#dfefb5" fill-rule="evenodd" stroke="none"/>
    <path d="M-1.3 -1.45 L-1.35 -1.4 -1.35 -1.4 -1.45 -1.4 -1.55 -1.4 Q-1.55 -1.4 -1.6 -1.4 -1.65 -1.45 -1.7 -1.45 L-1.65 -1.45 -1.6 -1.45 -1.45 -1.45 -1.3 -1.45 -1.3 -1.45" fill="#fbfec9" fill-rule="evenodd" stroke="none"/>
    <path d="M-1.6 -1.5 L-1.45 -1.5 -1.3 -1.45 -1.45 -1.45 -1.6 -1.45 -1.6 -1.5" fill="#d1d99a" fill-rule="evenodd" stroke="none"/>
    <path d="M-1.55 -1.35 L-1.5 -1.25 -1.7 -1.25 -1.7 -1.35 -1.55 -1.35" fill="#fffedc" fill-rule="evenodd" stroke="none"/>
    <path d="M-1.3 -1.45 L-1.1 -1.45 -1.3 -1.45 -1.3 -1.45" fill="#edc6a2" fill-rule="evenodd" stroke="none"/>
    <path d="M-1.1 -1.15 L-0.9 -1.15 -0.65 -1.1 -0.65 -1.05 -0.9 -1.1 -1.1 -1.1 -1.1 -1.15" fill="#feffbf" fill-rule="evenodd" stroke="none"/>
    <path d="M-1.15 -1.15 L-1.1 -1.15 -1.1 -1.1 -1.15 -1.1 -1.15 -1.15" fill="#a5e1b1" fill-rule="evenodd" stroke="none"/>
    <path d="M-1.15 -1.2 L-0.95 -1.2 -1.1 -1.2 -1.15 -1.2 -1.15 -1.2" fill="#f1fdc6" fill-rule="evenodd" stroke="none"/>
    <path d="M-1.35 -1.15 L-1.15 -1.15 -1.15 -1.1 -1.35 -1.1 -1.35 -1.15" fill="#fce7ba" fill-rule="evenodd" stroke="none"/>
    <path d="M-1.95 -1.2 L-1.55 -1.2 -1.2 -1.2 Q-1.2 -1.2 -1.25 -1.2 L-1.3 -1.2 -1.45 -1.2 -1.65 -1.2 -1.85 -1.15 -2.05 -1.15 -2.0 -1.2 -1.95 -1.2" fill="#fbf8b1" fill-rule="evenodd" stroke="none"/>
    <path d="M-1.0 -1.0 L-1.0 -1.0 -0.95 -0.95 -1.0 -0.95 -1.0 -0.95 -1.05 -0.95 -1.05 -0.95 -1.1 -0.95 Q-1.15 -0.95 -1.1 -0.95 L-1.25 -0.9 -1.3 -0.95 -1.3 -1.0 -1.25 -1.0 -1.15 -1.0 -1.1 -0.95 -1.0 -1.0" fill="#d3bb94" fill-rule="evenodd" stroke="none"/>
    <path d="M-1.35 -1.0 L-1.2 -1.0 -1.0 -1.0 -1.1 -0.95 -1.15 -1.0 -1.25 -1.0 -1.3 -1.0 -1.35 -1.0" fill="#f5e8b4" fill-rule="evenodd" stroke="none"/>
    <path d="M-1.0 -0.95 L-1.0 -0.95 -1.0 -0.9 -1.25 -0.9 -1.1 -0.95 Q-1.15 -0.95 -1.1 -0.95 L-1.05 -0.95 -1.05 -0.95 -1.0 -0.95" fill="#8f8b7f" fill-rule="evenodd" stroke="none"/>
    <path d="M-1.45 -1.15 L-1.35 -1.15 -1.35 -1.1 -1.45 -1.1 -1.45 -1.15" fill="#b3d5a9" fill-rule="evenodd" stroke="none"/>
    <path d="M-1.35 -1.05 L-1.0 -1.05 -1.0 -1.05 -0.95 -1.05 -0.95 -1.0 -1.0 -1.05 -1.25 -1.05 -1.45 -1.0 -1.45 -1.05 -1.35 -1.05" fill="#e9e9b9" fill-rule="evenodd" stroke="none"/>
    <path d="M-1.45 -1.05 L-1.35 -1.05 -1.45 -1.05 -1.45 -1.0 -1.35 -1.0 -1.3 -1.0 -1.3 -0.95 -1.35 -0.95 -1.3 -0.95 -1.45 -1.0 -1.6 -1.0 -1.6 -1.05 -1.45 -1.05" fill="#8d8878" fill-rule="evenodd" stroke="none"/>
    <path d="M-1.3 -0.95 L-1.25 -0.9 -1.0 -0.9 -1.2 -0.85 -1.2 -0.85 -1.15 -0.85 -1.1 -0.85 -1.05 -0.8 -1.15 -0.8 -1.3 -0.8 -1.35 -0.8 -1.45 -0.8 -1.6 -0.8 -1.65 -0.8 -1.65 -0.85 -1.55 -0.85 Q-1.5 -0.85 -1.5 -0.9 L-1.6 -0.9 -1.65 -0.9 -1.6 -0.95 -1.65 -0.95 -1.6 -1.0 -1.45 -1.0 -1.3 -0.95 -1.35 -0.95 -1.3 -0.95 M-1.0 -0.9 L-1.0 -0.9 M-1.6 -1.0 L-1.6 -1.0 M-1.65 -0.85 L-1.65 -0.85" fill="#52565a" fill-rule="evenodd" stroke="none"/>
    <path d="M-1.35 -0.8 L-1.3 -0.8 -1.15 -0.8 -1.05 -0.8 -1.1 -0.85 -1.15 -0.85 -1.2 -0.85 -1.2 -0.85 -1.0 -0.9 -1.05 -0.85 -1.0 -0.85 Q-0.95 -0.8 -1.0 -0.8 L-1.05 -0.75 -1.0 -0.75 -1.0 -0.7 -1.05 -0.65 -1.05 -0.65 -1.0 -0.6 Q-1.0 -0.55 -1.05 -0.55 L-1.1 -0.5 -1.05 -0.4 -1.1 -0.4 -1.1 -0.5 -1.2 -0.5 -1.3 -0.45 -1.3 -0.5 -1.3 -0.65 Q-1.3 -0.7 -1.3 -0.7 L-1.4 -0.65 -1.45 -0.55 -1.5 -0.5 -1.45 -0.55 -1.45 -0.65 -1.4 -0.7 -1.35 -0.75 -1.35 -0.8 M-1.55 -0.35 L-1.5 -0.5 -1.5 -0.45 -1.55 -0.35 M-1.25 -0.7 L-1.15 -0.7 Q-1.05 -0.7 -1.05 -0.75 L-1.1 -0.75 -1.2 -0.75 Q-1.3 -0.75 -1.3 -0.7 L-1.25 -0.7" fill="#797b7d" fill-rule="evenodd" stroke="none"/>
    <path d="M-1.35 -0.8 L-1.35 -0.75 -1.4 -0.7 -1.45 -0.65 -1.45 -0.55 -1.5 -0.5 -1.65 -0.5 -1.75 -0.45 -1.8 -0.4 -1.8 -0.35 -1.8 -0.45 -1.75 -0.5 -1.75 -0.6 -1.7 -0.7 -1.75 -0.7 -1.75 -0.75 -1.7 -0.75 -1.65 -0.8 -1.7 -0.8 -1.7 -0.85 -1.65 -0.85 -1.65 -0.8 -1.6 -0.8 -1.45 -0.8 -1.35 -0.8 M-1.4 -0.75 L-1.45 -0.75 -1.55 -0.75 -1.7 -0.75 -1.65 -0.7 -1.55 -0.7 -1.4 -0.7 -1.4 -0.75 M-1.65 -0.85 L-1.65 -0.85 M-1.8 -0.35 L-1.8 -0.35 M-1.5 -0.5 L-1.5 -0.5 M-1.55 -0.65 L-1.7 -0.65 -1.7 -0.55 -1.55 -0.55 Q-1.5 -0.55 -1.45 -0.6 L-1.55 -0.65" fill="#6e7171" fill-rule="evenodd" stroke="none"/>
    <path d="M-1.4 -0.75 L-1.4 -0.7 -1.55 -0.7 -1.65 -0.7 -1.7 -0.75 -1.55 -0.75 -1.45 -0.75 -1.4 -0.75" fill="#56575b" fill-rule="evenodd" stroke="none"/>
    <path d="M-1.5 -0.5 L-1.45 -0.55 -1.4 -0.65 -1.3 -0.7 Q-1.3 -0.7 -1.3 -0.65 L-1.3 -0.5 -1.35 -0.45 -1.45 -0.45 -1.5 -0.5" fill="#fdfeed" fill-rule="evenodd" stroke="none"/>
    <path d="M-1.0 -0.95 L-0.95 -0.9 -1.0 -0.9 -1.0 -0.85 -0.95 -0.8 -1.0 -0.75 -0.95 -0.75 -1.0 -0.7 -1.0 -0.55 -1.05 -0.5 -1.05 -0.45 -1.05 -0.55 Q-1.0 -0.55 -1.0 -0.6 L-1.05 -0.65 -1.05 -0.65 -1.0 -0.7 -1.0 -0.75 -1.05 -0.75 -1.0 -0.8 Q-0.95 -0.8 -1.0 -0.85 L-1.05 -0.85 -1.0 -0.9 -1.0 -0.9 -1.0 -0.95 M-1.05 -0.5 L-1.05 -0.5" fill="#c1b9a3" fill-rule="evenodd" stroke="none"/>
    <path d="M-1.25 -0.7 L-1.3 -0.7 Q-1.3 -0.75 -1.2 -0.75 L-1.1 -0.75 -1.05 -0.75 Q-1.05 -0.7 -1.15 -0.7 L-1.25 -0.7" fill="#57585c" fill-rule="evenodd" stroke="none"/>
    <path d="M-1.9 -1.0 L-1.95 -1.0 -1.95 -1.05 -1.85 -1.05 -1.75 -1.05 -1.7 -1.05 -1.65 -1.05 -1.9 -1.0" fill="#ffe794" fill-rule="evenodd" stroke="none"/>
    <path d="M-1.65 -0.85 L-1.65 -0.85 -1.65 -0.95 -1.65 -0.95 -1.6 -1.0 -1.65 -0.95 -1.6 -0.95 -1.65 -0.9 -1.6 -0.9 -1.6 -0.85 -1.65 -0.85 -1.65 -0.85" fill="#9ea18a" fill-rule="evenodd" stroke="none"/>
    <path d="M-1.6 -1.1 L-1.55 -1.1 -1.45 -1.05 -1.6 -1.05 -1.6 -1.1" fill="#a2bc9e" fill-rule="evenodd" stroke="none"/>
    <path d="M-1.8 -0.55 L-1.85 -0.55 -1.9 -0.55 -1.9 -0.6 -1.8 -0.6 -1.8 -0.65 -1.8 -0.75 -1.75 -0.75 -1.8 -0.65 -1.8 -0.55" fill="#f3f8c5" fill-rule="evenodd" stroke="none"/>
    <path d="M-1.6 -0.9 L-1.5 -0.9 Q-1.5 -0.85 -1.55 -0.85 L-1.65 -0.85 -1.6 -0.85 -1.6 -0.9" fill="#696e75" fill-rule="evenodd" stroke="none"/>
    <path d="M-1.7 -0.85 L-1.7 -0.8 -1.65 -0.8 -1.7 -0.75 -1.75 -0.75 -1.75 -0.8 -1.7 -0.85" fill="#acb198" fill-rule="evenodd" stroke="none"/>
    <path d="M-1.65 -0.85 L-1.7 -0.85 -1.7 -0.9 -1.65 -0.95 -1.65 -0.85" fill="#cad2a8" fill-rule="evenodd" stroke="none"/>
    <path d="M-1.85 -0.35 L-1.85 -0.35 -1.8 -0.4 -1.8 -0.5 Q-1.8 -0.5 -1.75 -0.5 -1.75 -0.55 -1.8 -0.55 L-1.8 -0.65 -1.75 -0.75 -1.75 -0.75 -1.75 -0.7 -1.7 -0.7 -1.75 -0.6 -1.75 -0.5 -1.8 -0.45 -1.8 -0.35 -1.85 -0.35" fill="#a6ab91" fill-rule="evenodd" stroke="none"/>
    <path d="M-1.55 -0.65 L-1.45 -0.6 Q-1.5 -0.55 -1.55 -0.55 L-1.7 -0.55 -1.7 -0.65 -1.55 -0.65" fill="#535458" fill-rule="evenodd" stroke="none"/>
    <path d="M-1.5 -0.5 L-1.55 -0.35 -1.55 -0.45 -1.5 -0.5 -1.5 -0.5 M-1.6 -0.3 L-1.55 -0.35 -1.55 -0.3 Q-1.55 -0.25 -1.45 -0.25 L-1.35 -0.25 -1.3 -0.35 -1.3 -0.45 -1.3 -0.45 -1.3 -0.25 -1.35 -0.25 -1.35 -0.2 -1.45 -0.2 -1.6 -0.2 -1.55 -0.25 -1.6 -0.3" fill="#7f7f5b" fill-rule="evenodd" stroke="none"/>
    <path d="M-1.55 -0.35 L-1.5 -0.45 -1.5 -0.5 -1.45 -0.45 -1.35 -0.45 -1.35 -0.25 -1.45 -0.25 -1.55 -0.3 -1.55 -0.35" fill="#f9fcc7" fill-rule="evenodd" stroke="none"/>
    <path d="M-1.6 -0.25 L-1.6 -0.3 Q-1.6 -0.35 -1.65 -0.35 L-1.7 -0.35 -1.8 -0.35 Q-1.75 -0.35 -1.75 -0.4 L-1.7 -0.5 -1.6 -0.5 -1.55 -0.45 -1.55 -0.35 -1.6 -0.3 -1.6 -0.25 M-1.8 -0.35 L-1.8 -0.35" fill="#404244" fill-rule="evenodd" stroke="none"/>
    <path d="M-1.8 -0.35 L-1.7 -0.35 -1.65 -0.35 Q-1.6 -0.35 -1.6 -0.3 L-1.6 -0.25 -1.6 -0.1 -1.65 0.2 -1.7 0.5 -1.7 0.7 -1.8 0.7 -1.9 0.75 -2.0 0.75 -2.05 0.7 -2.0 0.65 -1.95 0.6 Q-1.85 0.6 -1.85 0.5 -1.95 0.15 -1.9 -0.25 L-1.85 -0.25 -1.85 -0.25 -1.8 -0.35 M-1.85 -0.25 L-1.9 0.05 -1.85 0.35 -1.8 0.45 -1.8 0.6 -1.9 0.65 -2.0 0.7 -2.0 0.75 -1.85 0.7 -1.75 0.7 Q-1.7 0.65 -1.7 0.6 L-1.7 0.45 Q-1.6 0.05 -1.6 -0.3 L-1.7 -0.3 -1.75 -0.3 Q-1.8 -0.3 -1.85 -0.25" fill="#373026" fill-rule="evenodd" stroke="none"/>
    <path d="M-1.8 -0.35 L-1.8 -0.4 -1.75 -0.45 -1.65 -0.5 -1.5 -0.5 -1.55 -0.45 -1.6 -0.5 -1.7 -0.5 -1.75 -0.4 Q-1.75 -0.35 -1.8 -0.35" fill="#585959" fill-rule="evenodd" stroke="none"/>
    <path d="M-1.85 -0.35 Q-1.9 -0.35 -1.9 -0.4 L-1.9 -0.45 -1.95 -0.45 -1.9 -0.45 -1.85 -0.45 -1.85 -0.45 -1.8 -0.5 -1.8 -0.4 -1.85 -0.35" fill="#f6f7a9" fill-rule="evenodd" stroke="none"/>
    <path d="M-1.85 -0.25 Q-1.8 -0.3 -1.75 -0.3 L-1.7 -0.3 -1.6 -0.3 Q-1.6 0.05 -1.7 0.45 L-1.7 0.6 Q-1.7 0.65 -1.75 0.7 L-1.85 0.7 -2.0 0.75 -2.0 0.7 -1.9 0.65 -1.8 0.6 -1.8 0.45 -1.85 0.35 -1.9 0.05 -1.85 -0.25" fill="#191918" fill-rule="evenodd" stroke="none"/>
    <path d="M0.05 0.5 L-0.1 0.6 -0.2 0.7 -0.2 0.75 -0.15 0.8 -0.15 0.85 -0.15 0.95 Q-0.3 0.95 -0.4 0.85 L-0.45 0.6 Q-0.5 0.55 -0.55 0.55 L-0.65 0.5 -0.65 0.45 -0.65 0.3 -0.7 0.25 -0.8 0.2 -0.85 0.25 -0.9 0.25 -0.9 0.3 -0.95 0.35 -0.95 0.5 -0.9 0.6 -0.85 0.7 Q-0.8 0.75 -0.85 0.8 L-0.95 0.85 Q-1.0 0.85 -1.05 0.8 L-1.1 0.7 -1.1 0.6 -1.15 0.45 -1.2 0.3 -1.3 0.15 -1.35 -0.05 Q-1.35 -0.1 -1.45 -0.1 L-1.5 -0.1 -1.55 -0.1 -1.55 0.05 -1.6 0.25 -1.65 0.6 -1.65 0.65 -1.7 0.75 -1.8 0.75 -1.9 0.8 -2.1 0.7 -2.05 0.65 -1.95 0.6 -1.9 0.6 -1.85 0.5 Q-1.85 0.6 -1.95 0.6 L-2.0 0.65 -2.05 0.7 -2.0 0.75 -1.9 0.75 -1.8 0.7 -1.7 0.7 -1.7 0.5 -1.65 0.2 -1.6 -0.1 -1.6 -0.25 -1.6 -0.3 -1.55 -0.25 -1.6 -0.2 -1.45 -0.2 -1.35 -0.2 -1.35 -0.15 -1.2 0.2 -1.15 0.4 -1.1 0.6 -1.05 0.75 -0.95 0.8 -0.85 0.8 Q-0.8 0.75 -0.85 0.7 -0.95 0.55 -0.95 0.45 L-0.9 0.25 Q-0.9 0.1 -0.95 0.05 L-0.85 0.1 -0.8 0.1 Q-0.75 0.05 -0.75 -0.05 -0.8 -0.1 -0.85 -0.15 L-0.8 -0.15 -0.75 -0.1 -0.7 -0.1 -0.4 0.05 -0.3 0.2 -0.2 0.3 -0.1 0.4 0.05 0.5 M-0.8 -0.15 L-0.8 -0.15 M-1.85 0.5 L-1.85 0.5" fill="#655234" fill-rule="evenodd" stroke="none"/>
    <path d="M-1.05 -0.5 L-1.05 -0.5 -1.0 -0.45 -0.9 -0.4 -0.9 -0.35 -0.85 -0.3 -0.85 -0.3 -0.9 -0.25 -0.85 -0.25 -0.8 -0.2 -0.9 -0.2 Q-1.0 -0.2 -1.0 -0.25 L-1.0 -0.3 -1.05 -0.35 -1.05 -0.5" fill="#fffeb6" fill-rule="evenodd" stroke="none"/>
    <path d="M-1.1 -0.4 L-1.05 -0.4 -1.1 -0.5 -1.05 -0.55 -1.05 -0.45 -1.05 -0.35 -1.05 -0.2 -1.1 -0.2 Q-1.05 -0.25 -1.1 -0.4 M-1.1 -0.2 L-1.1 -0.2" fill="#a99c7b" fill-rule="evenodd" stroke="none"/>
    <path d="M-1.3 -0.45 Q-1.3 -0.5 -1.25 -0.45 L-1.15 -0.45 -1.1 -0.3 -1.1 -0.2 -1.1 -0.2 -1.15 -0.25 -1.2 -0.25 -1.25 -0.25 -1.3 -0.2 -1.35 -0.15 -1.35 -0.2 -1.35 -0.25 -1.3 -0.25 -1.3 -0.45 M-1.1 -0.2 L-1.1 -0.2" fill="#434648" fill-rule="evenodd" stroke="none"/>
    <path d="M-1.3 -0.45 L-1.2 -0.5 -1.1 -0.5 -1.1 -0.4 Q-1.05 -0.25 -1.1 -0.2 L-1.1 -0.3 -1.15 -0.45 -1.25 -0.45 Q-1.3 -0.5 -1.3 -0.45 L-1.3 -0.45" fill="#5f5d5c" fill-rule="evenodd" stroke="none"/>
    <path d="M-1.05 -0.5 L-1.05 -0.35 -1.0 -0.3 -1.0 -0.25 Q-1.0 -0.2 -0.9 -0.2 L-0.8 -0.2 -0.75 -0.2 -0.7 -0.2 Q-0.6 -0.15 -0.6 -0.1 L-0.5 -0.1 -0.35 -0.05 -0.45 -0.05 -0.55 -0.1 -0.8 -0.15 -0.9 -0.15 -1.05 -0.2 -1.05 -0.35 -1.05 -0.45 -1.05 -0.5 M-0.8 -0.15 L-0.8 -0.15" fill="#fcec9a" fill-rule="evenodd" stroke="none"/>
    <path d="M-1.3 -0.5 L-1.3 -0.45 -1.3 -0.35 -1.35 -0.25 -1.35 -0.45 -1.3 -0.5" fill="#b5c69c" fill-rule="evenodd" stroke="none"/>
    <path d="M-1.35 -0.15 L-1.3 -0.2 -1.25 -0.25 -1.2 -0.25 -1.15 -0.25 -1.1 -0.2 -1.1 -0.2 -1.05 -0.15 -1.0 -0.1 -0.95 0.15 -0.95 0.45 Q-0.95 0.55 -0.85 0.7 -0.8 0.75 -0.85 0.8 L-0.95 0.8 -1.05 0.75 -1.1 0.6 -1.15 0.4 -1.2 0.2 -1.35 -0.15 M-1.25 -0.25 L-1.3 -0.2 -1.3 -0.1 -1.2 0.15 -1.1 0.4 -1.05 0.55 -1.05 0.7 -1.0 0.75 -0.95 0.8 -0.9 0.75 -0.9 0.7 -0.95 0.55 -1.0 0.4 -0.95 0.25 -1.0 0.1 -1.05 -0.15 Q-1.15 -0.25 -1.25 -0.25" fill="#353026" fill-rule="evenodd" stroke="none"/>
    <path d="M-1.25 -0.25 Q-1.15 -0.25 -1.05 -0.15 L-1.0 0.1 -0.95 0.25 -1.0 0.4 -0.95 0.55 -0.9 0.7 -0.9 0.75 -0.95 0.8 -1.0 0.75 -1.05 0.7 -1.05 0.55 -1.1 0.4 -1.2 0.15 -1.3 -0.1 -1.3 -0.2 -1.25 -0.25" fill="#181818" fill-rule="evenodd" stroke="none"/>
    <path d="M-0.1 1.45 L-0.1 1.5 -0.1 1.55 -0.15 1.55 -0.15 1.55 Q-0.15 1.5 -0.2 1.5 L-0.2 1.55 -0.25 1.55 Q-0.2 1.45 -0.25 1.35 L-0.35 1.2 -0.6 0.8 -0.85 0.4 Q-0.9 0.4 -0.9 0.5 L-0.9 0.6 -0.95 0.5 -0.95 0.35 -0.9 0.3 Q-0.75 0.4 -0.65 0.55 L-0.5 0.7 -0.4 0.9 -0.3 0.95 -0.2 1.05 -0.15 1.25 -0.1 1.45 M-1.65 0.6 L-1.6 0.25 -1.55 0.05 -1.55 -0.1 -1.5 -0.1 -1.45 -0.1 Q-1.35 -0.1 -1.35 -0.05 L-1.3 0.15 -1.2 0.3 -1.15 0.45 -1.1 0.6 -1.2 0.35 -1.35 0.15 -1.3 0.2 -1.3 0.25 -1.4 0.25 -1.5 0.25 -1.65 0.4 -1.65 0.6 M-0.25 1.55 L-0.25 1.55" fill="#79623e" fill-rule="evenodd" stroke="none"/>
    <path d="M-1.35 -0.25 L-1.45 -0.25 Q-1.55 -0.25 -1.55 -0.3 L-1.45 -0.25 -1.35 -0.25" fill="#bdbf84" fill-rule="evenodd" stroke="none"/>
    <path d="M-1.1 -0.2 L-1.05 -0.2 -0.95 -0.15 -0.85 -0.15 Q-0.8 -0.1 -0.75 -0.05 -0.75 0.05 -0.8 0.1 L-0.85 0.1 -0.95 0.05 Q-0.9 0.1 -0.9 0.25 L-0.95 0.45 -0.95 0.15 -1.0 -0.1 -1.05 -0.15 -1.1 -0.2" fill="#5b4a2f" fill-rule="evenodd" stroke="none"/>
    <path d="M-0.25 -0.3 L-0.25 -0.25 -0.3 -0.35 -0.35 -0.4 -0.35 -0.45 -0.4 -0.55 -0.4 -0.7 -0.25 -0.8 -0.3 -0.75 Q-0.3 -0.7 -0.35 -0.7 L-0.35 -0.6 -0.4 -0.55 -0.35 -0.5 -0.35 -0.55 -0.3 -0.5 -0.25 -0.55 -0.25 -0.5 -0.3 -0.5 -0.3 -0.4 -0.25 -0.45 -0.2 -0.5 -0.2 -0.35 -0.15 -0.3 -0.2 -0.3 -0.25 -0.3" fill="#bdbdb6" fill-rule="evenodd" stroke="none"/>
    <path d="M-0.15 -0.6 L-0.15 -0.65 -0.1 -0.7 -0.15 -0.6 -0.15 -0.6" fill="#d1d1ca" fill-rule="evenodd" stroke="none"/>
    <path d="M-1.0 -1.0 L-0.8 -1.0 -0.65 -0.95 -0.65 -0.9 -0.8 -0.95 -1.0 -0.95 -0.95 -0.95 -1.0 -1.0" fill="#fffec0" fill-rule="evenodd" stroke="none"/>
    <path d="M-0.95 -0.75 L-0.95 -0.7 -1.0 -0.65 -0.95 -0.6 Q-0.95 -0.6 -0.95 -0.55 L-1.0 -0.5 -0.9 -0.4 -0.8 -0.35 -0.75 -0.3 -0.7 -0.3 Q-0.65 -0.3 -0.7 -0.25 -0.65 -0.2 -0.55 -0.15 L-0.5 -0.15 -0.4 -0.15 Q-0.35 -0.1 -0.3 -0.05 -0.25 -0.05 -0.25 -0.1 L-0.25 -0.05 -0.35 -0.05 -0.5 -0.1 -0.6 -0.1 Q-0.6 -0.15 -0.7 -0.2 L-0.75 -0.2 -0.8 -0.2 -0.85 -0.25 -0.9 -0.25 -0.85 -0.3 -0.85 -0.3 -0.9 -0.35 -0.9 -0.4 -1.0 -0.45 -1.05 -0.5 -1.0 -0.55 -1.0 -0.7 -0.95 -0.75 M-0.25 -0.05 L-0.25 -0.05" fill="#fffed1" fill-rule="evenodd" stroke="none"/>
    <path d="M-1.05 -0.2 L-0.9 -0.15 -0.8 -0.15 -0.85 -0.15 -0.95 -0.15 -1.05 -0.2" fill="#ac8b57" fill-rule="evenodd" stroke="none"/>
    <path d="M-0.8 -0.15 L-0.55 -0.1 -0.6 -0.1 -0.7 -0.1 -0.75 -0.1 -0.8 -0.15" fill="#c39d62" fill-rule="evenodd" stroke="none"/>
    <path d="M-0.25 -0.5 L-0.2 -0.55 -0.15 -0.6 -0.15 -0.55 -0.2 -0.5 -0.25 -0.45 -0.3 -0.4 -0.3 -0.5 -0.25 -0.5 M-0.15 -0.6 L-0.15 -0.6" fill="#292a26" fill-rule="evenodd" stroke="none"/>
    <path d="M-0.15 -0.35 L-0.15 -0.4 -0.1 -0.4 -0.1 -0.4 -0.15 -0.35" fill="#d4d5ce" fill-rule="evenodd" stroke="none"/>
    <path d="M-0.25 -0.05 Q-0.2 0.0 -0.3 0.0 L-0.35 -0.05 -0.4 -0.05 -0.45 -0.05 -0.35 -0.05 -0.25 -0.05" fill="#dfb672" fill-rule="evenodd" stroke="none"/>
    <path d="M-0.25 -0.1 L-0.25 -0.2 Q-0.2 -0.25 -0.25 -0.3 L-0.2 -0.3 -0.15 -0.3 -0.2 -0.25 -0.2 -0.15 -0.25 -0.05 -0.25 -0.1" fill="#8f6c54" fill-rule="evenodd" stroke="none"/>
    <path d="M-0.05 1.45 L-0.05 1.45 -0.1 1.45 -0.15 1.25 -0.2 1.05 -0.3 0.95 -0.4 0.9 -0.5 0.7 -0.65 0.55 Q-0.75 0.4 -0.9 0.3 L-0.95 0.35 -0.9 0.3 -0.9 0.25 -0.85 0.25 -0.8 0.2 -0.7 0.25 -0.65 0.3 -0.65 0.45 -0.65 0.5 -0.55 0.55 Q-0.5 0.55 -0.45 0.6 L-0.4 0.85 Q-0.3 0.95 -0.15 0.95 L-0.2 1.05 -0.15 1.1 -0.1 1.2 0.0 1.35 0.0 1.4 -0.05 1.45 M-0.15 0.95 L-0.15 0.95" fill="#6f5a39" fill-rule="evenodd" stroke="none"/>
    <path d="M-0.65 2.2 L-0.85 2.2 -0.75 2.15 -0.7 2.1 -0.7 2.0 -0.65 1.85 -0.65 1.8 -0.55 1.8 Q-0.5 1.8 -0.5 1.75 L-0.5 1.7 -0.55 1.6 -0.45 1.6 -0.35 1.6 -0.35 1.5 -0.3 1.45 Q-0.3 1.35 -0.4 1.25 L-0.45 1.15 -0.5 1.1 -0.6 0.85 -0.75 0.65 -0.8 0.6 -0.8 0.75 -0.85 0.8 -0.9 0.85 -0.95 0.85 -1.05 0.8 -1.1 0.65 -1.15 0.55 -1.2 0.45 -1.25 0.45 -1.3 0.5 -1.45 0.5 -1.6 0.5 -1.65 0.65 -1.7 0.75 -1.9 0.8 Q-2.0 0.8 -2.05 0.85 L-2.1 1.0 -2.2 1.0 -2.2 0.75 -2.05 0.8 -1.9 0.8 -1.8 0.75 -1.7 0.75 -1.65 0.65 -1.65 0.6 -1.65 0.4 -1.5 0.25 -1.4 0.25 -1.3 0.25 -1.3 0.2 -1.35 0.15 -1.2 0.35 -1.1 0.6 -1.1 0.7 -1.05 0.8 Q-1.0 0.85 -0.95 0.85 L-0.85 0.8 Q-0.8 0.75 -0.85 0.7 L-0.9 0.6 -0.9 0.5 Q-0.9 0.4 -0.85 0.4 L-0.6 0.8 -0.35 1.2 -0.25 1.35 Q-0.2 1.45 -0.25 1.55 L-0.3 1.6 -0.35 1.6 -0.4 1.65 -0.45 1.7 -0.35 1.7 Q-0.3 1.8 -0.4 1.8 L-0.45 1.8 -0.5 1.85 -0.5 2.1 -0.6 2.15 -0.65 2.2 M-0.3 1.6 L-0.3 1.6" fill="#8b7047" fill-rule="evenodd" stroke="none"/>
    <path d="M-0.85 2.2 L-0.9 2.2 -0.8 2.1 -0.8 1.95 -0.8 1.8 -0.75 1.8 -0.65 1.8 Q-0.65 1.75 -0.7 1.65 L-0.7 1.5 -0.65 1.5 -0.6 1.5 -0.55 1.5 Q-0.5 1.5 -0.55 1.4 L-0.6 1.3 Q-0.65 1.2 -0.75 1.1 L-0.9 0.9 Q-0.9 0.9 -0.95 0.85 L-1.05 0.85 -1.1 0.75 Q-1.15 0.7 -1.15 0.65 L-1.2 0.7 -1.15 0.75 -1.5 0.65 -1.55 0.65 -1.6 0.6 -1.65 0.7 -1.65 0.8 -1.8 0.8 Q-1.9 0.8 -1.9 0.9 -1.95 0.85 -1.95 0.9 L-2.0 1.0 -2.0 1.05 -2.05 1.1 -2.1 1.2 -2.1 1.3 -2.2 1.35 -2.2 1.0 -2.1 1.0 -2.05 0.85 Q-2.0 0.8 -1.9 0.8 L-1.7 0.75 -1.65 0.65 -1.6 0.5 -1.45 0.5 -1.3 0.5 -1.25 0.45 -1.2 0.45 -1.15 0.55 -1.1 0.65 -1.05 0.8 -0.95 0.85 -0.9 0.85 -0.85 0.8 -0.8 0.75 -0.8 0.6 -0.75 0.65 -0.6 0.85 -0.5 1.1 -0.45 1.15 -0.4 1.25 Q-0.3 1.35 -0.3 1.45 L-0.35 1.5 -0.35 1.6 -0.45 1.6 -0.55 1.6 -0.5 1.7 -0.5 1.75 Q-0.5 1.8 -0.55 1.8 L-0.65 1.8 -0.65 1.85 -0.7 2.0 -0.7 2.1 -0.75 2.15 -0.85 2.2" fill="#9a7c4e" fill-rule="evenodd" stroke="none"/>
    <path d="M-0.9 2.2 L-0.9 2.2 -0.9 2.0 -0.95 1.85 -0.85 1.8 -0.75 1.75 -0.8 1.65 -0.8 1.55 -0.75 1.5 -0.75 1.45 Q-0.8 1.2 -1.0 1.0 -1.2 0.8 -1.45 0.75 L-1.55 0.75 -1.6 0.75 -1.65 0.8 Q-1.65 0.9 -1.65 0.9 L-1.75 0.9 -1.8 0.9 -1.85 0.95 -1.85 1.0 -1.9 1.0 -1.95 1.05 -1.95 1.1 -2.0 1.15 -2.0 1.2 -2.05 1.25 -2.05 1.5 -2.0 1.7 Q-2.0 1.7 -2.0 1.8 L-2.0 1.9 -2.05 1.95 -2.1 2.0 -2.1 2.05 -2.2 2.1 -2.2 1.35 -2.1 1.3 -2.1 1.2 -2.05 1.1 -2.0 1.05 -2.0 1.0 -1.95 0.9 Q-1.95 0.85 -1.9 0.9 -1.9 0.8 -1.8 0.8 L-1.65 0.8 -1.65 0.7 -1.6 0.6 -1.55 0.65 -1.5 0.65 -1.15 0.75 -1.2 0.7 -1.15 0.65 Q-1.15 0.7 -1.1 0.75 L-1.05 0.85 -0.95 0.85 Q-0.9 0.9 -0.9 0.9 L-0.75 1.1 Q-0.65 1.2 -0.6 1.3 L-0.55 1.4 Q-0.5 1.5 -0.55 1.5 L-0.6 1.5 -0.65 1.5 -0.7 1.5 -0.7 1.65 Q-0.65 1.75 -0.65 1.8 L-0.75 1.8 -0.8 1.8 -0.8 1.95 -0.8 2.1 -0.9 2.2" fill="#a58554" fill-rule="evenodd" stroke="none"/>
    <path d="M-0.15 0.85 L-0.05 0.85 Q-0.05 0.85 0.0 0.9 L-0.1 0.9 -0.15 0.85 -0.15 0.95 -0.15 0.85 M-0.15 0.95 L-0.15 0.95" fill="#2d2812" fill-rule="evenodd" stroke="none"/>
    <path d="M-0.15 1.1 L-0.1 1.05 -0.05 1.2 0.05 1.35 0.0 1.35 -0.1 1.2 -0.15 1.1" fill="#252214" fill-rule="evenodd" stroke="none"/>
    <path d="M-2.2 0.75 L-2.2 0.5 -2.1 0.5 Q-2.05 0.5 -2.0 0.45 L-2.0 0.4 -2.05 0.3 -2.0 0.3 -1.95 0.25 -1.9 0.35 -1.85 0.45 -1.85 0.5 -1.9 0.6 -1.95 0.6 -2.05 0.65 -2.1 0.7 -1.9 0.8 -2.05 0.8 -2.2 0.75" fill="#7a623f" fill-rule="evenodd" stroke="none"/>
    <path d="M-2.2 0.5 L-2.2 0.2 Q-2.1 0.2 -2.05 0.15 L-2.0 0.05 Q-1.95 0.15 -1.9 0.25 L-1.9 0.35 -1.85 0.45 -1.9 0.35 -1.95 0.25 -2.0 0.3 -2.05 0.3 -2.0 0.4 -2.0 0.45 Q-2.05 0.5 -2.1 0.5 L-2.2 0.5" fill="#695436" fill-rule="evenodd" stroke="none"/>
    <path d="M-0.9 2.2 L-1.0 2.2 -1.05 2.0 -1.05 1.85 -1.0 1.8 -0.95 1.8 Q-0.85 1.75 -0.85 1.7 L-0.85 1.55 -0.8 1.5 -0.8 1.45 -0.85 1.35 -0.9 1.2 Q-1.05 1.05 -1.2 0.95 -1.4 0.8 -1.6 0.8 L-1.65 0.9 -1.65 0.95 -1.7 1.0 -1.8 1.0 -1.8 1.05 -1.85 1.15 -1.9 1.15 -1.95 1.15 -1.95 1.3 Q-1.95 1.4 -2.05 1.45 L-2.0 1.7 -1.85 1.85 Q-1.8 1.85 -1.8 1.9 L-1.75 1.95 -1.8 1.95 -1.85 1.95 Q-1.9 2.05 -1.85 2.2 L-2.2 2.2 -2.2 2.1 -2.1 2.05 -2.1 2.0 -2.05 1.95 -2.0 1.9 -2.0 1.8 Q-2.0 1.7 -2.0 1.7 L-2.05 1.5 -2.05 1.25 -2.0 1.2 -2.0 1.15 -1.95 1.1 -1.95 1.05 -1.9 1.0 -1.85 1.0 -1.85 0.95 -1.8 0.9 -1.75 0.9 -1.65 0.9 Q-1.65 0.9 -1.65 0.8 L-1.6 0.75 -1.55 0.75 -1.45 0.75 Q-1.2 0.8 -1.0 1.0 -0.8 1.2 -0.75 1.45 L-0.75 1.5 -0.8 1.55 -0.8 1.65 -0.75 1.75 -0.85 1.8 -0.95 1.85 -0.9 2.0 -0.9 2.2" fill="#ad8b58" fill-rule="evenodd" stroke="none"/>
    <path d="M-1.0 2.2 L-1.55 2.2 -1.65 2.1 -1.8 2.1 -1.8 2.2 -1.85 2.2 Q-1.9 2.05 -1.85 1.95 L-1.8 1.95 -1.75 1.95 -1.8 1.9 Q-1.8 1.85 -1.85 1.85 L-2.0 1.7 -2.05 1.45 Q-1.95 1.4 -1.95 1.3 L-1.95 1.15 -1.9 1.15 -1.85 1.15 -1.8 1.05 -1.8 1.0 -1.7 1.0 -1.65 0.95 -1.65 0.9 -1.6 0.8 Q-1.4 0.8 -1.2 0.95 -1.05 1.05 -0.9 1.2 L-0.85 1.35 -0.8 1.45 -0.8 1.5 -0.85 1.55 -0.85 1.7 Q-0.85 1.75 -0.95 1.8 L-1.0 1.8 -1.05 1.85 -1.05 2.0 -1.0 2.2 M-1.7 1.1 L-1.75 1.15 -1.8 1.15 -1.8 1.25 Q-1.85 1.3 -1.9 1.3 L-1.9 1.5 Q-1.85 1.65 -1.9 1.7 L-1.9 1.75 -1.85 1.8 -1.75 1.9 -1.6 2.0 -1.5 2.0 -1.45 1.9 -1.3 2.05 -1.2 2.1 Q-1.15 2.05 -1.15 2.0 L-1.15 1.85 Q-1.0 1.8 -0.9 1.6 -0.85 1.55 -0.9 1.45 L-0.95 1.4 -0.95 1.3 -1.15 1.1 Q-1.3 1.0 -1.4 0.95 L-1.5 0.95 -1.6 0.95 -1.65 1.0 -1.65 1.1 -1.7 1.1" fill="#b6925c" fill-rule="evenodd" stroke="none"/>
    <path d="M-1.6 1.2 Q-1.6 1.25 -1.6 1.3 L-1.7 1.25 -1.8 1.3 -1.85 1.4 -1.85 1.45 -1.8 1.65 Q-1.75 1.75 -1.75 1.8 L-1.7 1.9 Q-1.65 1.9 -1.65 1.95 L-1.55 1.95 Q-1.5 1.95 -1.45 1.9 L-1.3 1.85 -1.15 1.8 -1.15 1.75 -1.1 1.75 Q-1.0 1.75 -0.95 1.7 -0.95 1.6 -0.95 1.55 L-1.1 1.3 Q-1.2 1.2 -1.3 1.15 L-1.6 1.05 -1.6 1.2 M-1.7 1.1 L-1.65 1.1 -1.65 1.0 -1.6 0.95 -1.5 0.95 -1.4 0.95 Q-1.3 1.0 -1.15 1.1 L-0.95 1.3 -0.95 1.4 -0.9 1.45 Q-0.85 1.55 -0.9 1.6 -1.0 1.8 -1.15 1.85 L-1.15 2.0 Q-1.15 2.05 -1.2 2.1 L-1.3 2.05 -1.45 1.9 -1.5 2.0 -1.6 2.0 -1.75 1.9 -1.85 1.8 -1.9 1.75 -1.9 1.7 Q-1.85 1.65 -1.9 1.5 L-1.9 1.3 Q-1.85 1.3 -1.8 1.25 L-1.8 1.15 -1.75 1.15 -1.7 1.1" fill="#bf9a61" fill-rule="evenodd" stroke="none"/>
    <path d="M-1.6 1.2 L-1.6 1.05 -1.3 1.15 Q-1.2 1.2 -1.1 1.3 L-0.95 1.55 Q-0.95 1.6 -0.95 1.7 -1.0 1.75 -1.1 1.75 L-1.15 1.75 -1.15 1.8 -1.3 1.85 -1.45 1.9 Q-1.5 1.95 -1.55 1.95 L-1.65 1.95 Q-1.65 1.9 -1.7 1.9 L-1.75 1.8 Q-1.75 1.75 -1.8 1.65 L-1.85 1.45 -1.85 1.4 -1.8 1.3 -1.7 1.25 -1.6 1.3 Q-1.6 1.25 -1.6 1.2 M-1.55 1.2 L-1.55 1.25 -1.5 1.35 -1.5 1.4 -1.55 1.4 -1.6 1.4 -1.7 1.4 -1.75 1.5 -1.8 1.55 -1.8 1.6 -1.75 1.75 -1.65 1.8 -1.6 1.85 -1.55 1.85 -1.45 1.85 -1.35 1.8 Q-1.3 1.8 -1.3 1.75 L-1.35 1.7 -1.35 1.7 -1.35 1.5 Q-1.3 1.5 -1.25 1.6 L-1.2 1.65 -1.15 1.7 -1.1 1.7 Q-1.05 1.65 -1.05 1.6 L-1.15 1.45 -1.25 1.35 -1.3 1.3 -1.4 1.25 Q-1.45 1.2 -1.55 1.2" fill="#caa367" fill-rule="evenodd" stroke="none"/>
    <path d="M-1.55 1.2 Q-1.45 1.2 -1.4 1.25 L-1.3 1.3 -1.25 1.35 -1.15 1.45 -1.05 1.6 Q-1.05 1.65 -1.1 1.7 L-1.15 1.7 -1.2 1.65 -1.25 1.6 Q-1.3 1.5 -1.35 1.5 L-1.35 1.7 -1.35 1.7 -1.3 1.75 Q-1.3 1.8 -1.35 1.8 L-1.45 1.85 -1.55 1.85 -1.6 1.85 -1.65 1.8 -1.75 1.75 -1.8 1.6 -1.8 1.55 -1.75 1.5 -1.7 1.4 -1.6 1.4 -1.55 1.4 -1.5 1.4 -1.5 1.35 -1.55 1.25 -1.55 1.2" fill="#d4ab6c" fill-rule="evenodd" stroke="none"/>
    <path d="M-1.55 2.2 L-1.8 2.2 -1.8 2.1 -1.65 2.1 -1.55 2.2" fill="#d8ae6e" fill-rule="evenodd" stroke="none"/>
    <path d="M-0.2 1.55 L-0.15 1.55 Q-0.1 1.6 -0.15 1.6 L-0.2 1.55 -0.25 1.55 -0.2 1.55" fill="#aca472" fill-rule="evenodd" stroke="none"/>
    <path d="M-0.25 1.6 L-0.25 1.65 -0.3 1.65 -0.3 1.6 -0.25 1.6 M-0.3 1.6 L-0.3 1.6" fill="#b6ae79" fill-rule="evenodd" stroke="none"/>
    <path d="M-0.15 1.6 L-0.25 1.6 -0.3 1.6 -0.25 1.55 -0.25 1.55 -0.2 1.55 -0.15 1.6 M-0.25 1.65 L-0.35 1.7 -0.4 1.65 -0.35 1.6 -0.3 1.6 -0.3 1.65 -0.25 1.65" fill="#605935" fill-rule="evenodd" stroke="none"/>
    <path d="M-0.5 2.2 L-0.65 2.2 -0.6 2.15 -0.5 2.1 -0.5 1.85 -0.45 1.8 -0.4 1.8 Q-0.3 1.8 -0.35 1.7 L-0.25 1.7 -0.2 1.7 -0.25 1.8 -0.35 1.85 -0.35 1.9 -0.35 2.0 -0.35 2.05 -0.4 2.1 -0.45 2.15 -0.5 2.2" fill="#816741" fill-rule="evenodd" stroke="none"/>
    <path d="M-0.25 2.2 L-0.5 2.2 -0.45 2.15 -0.4 2.1 -0.35 2.05 -0.35 2.0 -0.35 1.9 -0.35 1.85 -0.25 1.8 -0.2 1.7 -0.25 1.7 -0.15 1.7 -0.1 1.7 -0.1 1.75 -0.15 1.85 -0.1 1.9 -0.1 1.95 -0.15 2.0 -0.2 2.05 Q-0.3 2.1 -0.25 2.2" fill="#765e3c" fill-rule="evenodd" stroke="none"/>
    <path d="M0.0 -0.35 L0.0 -0.3 -0.1 -0.3 0.0 -0.35" fill="#8f785b" fill-rule="evenodd" stroke="none"/>
  </g>
</svg>
