<?xml version="1.0" encoding="UTF-8" standalone="no"?>
<svg xmlns:xlink="http://www.w3.org/1999/xlink" height="1.85px" width="3.9px" xmlns="http://www.w3.org/2000/svg">
  <g transform="matrix(1.0, 0.0, 0.0, 1.0, 2.1, 1.0)">
    <path d="M0.0 -0.45 L-0.05 -0.45 -0.05 -0.45 -0.1 -0.5 -0.15 -0.5 -0.15 -0.5 Q-0.2 -0.5 -0.35 -0.6 L-0.3 -0.65 -0.3 -0.7 -0.2 -0.65 -0.2 -0.6 -0.2 -0.6 0.0 -0.45 M-0.1 -0.2 L-0.1 -0.15 0.0 -0.05 0.0 0.0 -0.35 0.05 -0.4 0.05 -0.5 0.0 Q-0.5 -0.05 -0.55 -0.05 L-0.6 -0.05 -0.65 -0.1 -0.7 -0.15 -0.7 -0.15 -0.75 -0.2 -0.75 -0.2 -0.8 -0.3 -0.9 -0.4 -0.95 -0.45 -0.95 -0.55 -0.95 -0.55 Q-0.85 -0.5 -0.7 -0.5 L-0.7 -0.5 -0.75 -0.45 -0.7 -0.4 -0.65 -0.3 -0.6 -0.25 -0.6 -0.25 -0.55 -0.2 -0.5 -0.2 -0.5 -0.2 -0.45 -0.15 -0.4 -0.1 -0.25 -0.15 -0.15 -0.15 -0.1 -0.2 -0.1 -0.2" fill="#8c7d6d" fill-rule="evenodd" stroke="none"/>
    <path d="M-1.9 -0.25 L-1.9 -0.45 -1.8 -0.65 -1.8 -0.65 -1.75 -0.7 -1.7 -0.8 -1.45 -0.9 -1.25 -0.95 -1.15 -0.95 -1.15 -0.95 -0.65 -0.9 -0.65 -0.9 -0.65 -0.9 -0.6 -0.9 -0.6 -0.85 -0.45 -0.8 -0.35 -0.7 -0.35 -0.7 -0.45 -0.7 -0.65 -0.75 -0.65 -0.75 -0.7 -0.7 -0.75 -0.7 -0.8 -0.65 -0.85 -0.65 -0.85 -0.6 -0.95 -0.55 -0.95 -0.55 -0.95 -0.45 -0.9 -0.4 -0.8 -0.3 -0.75 -0.2 -0.75 -0.2 -0.7 -0.15 -0.85 -0.15 -0.9 -0.15 -1.15 -0.15 -1.2 -0.2 -1.35 -0.2 -1.4 -0.2 -1.45 -0.2 -1.6 -0.2 -1.6 -0.2 -1.65 -0.25 -1.7 -0.25 -1.8 -0.25 -1.9 -0.25 M-0.7 -0.5 L-0.7 -0.5 -0.65 -0.55 -0.65 -0.55 -0.6 -0.6 -0.55 -0.65 -0.55 -0.65 -0.5 -0.65 -0.45 -0.65 -0.4 -0.65 -0.4 -0.6 -0.35 -0.6 -0.35 -0.6 Q-0.2 -0.5 -0.15 -0.5 L-0.15 -0.5 -0.2 -0.5 -0.2 -0.45 Q-0.3 -0.45 -0.35 -0.4 L-0.4 -0.4 -0.45 -0.35 -0.45 -0.35 -0.6 -0.25 -0.6 -0.25 -0.65 -0.3 -0.7 -0.4 -0.75 -0.45 -0.7 -0.5 -0.7 -0.5" fill="#1b2531" fill-rule="evenodd" stroke="none"/>
    <path d="M0.1 -0.35 L0.05 -0.4 0.0 -0.4 0.0 -0.45 -0.2 -0.6 -0.2 -0.6 -0.15 -0.6 -0.05 -0.55 0.05 -0.45 0.25 -0.25 0.25 -0.25 0.25 -0.15 0.2 -0.15 0.15 -0.1 0.1 -0.05 0.05 -0.05 0.05 -0.05 0.0 0.0 0.0 -0.05 -0.1 -0.15 -0.1 -0.2 -0.1 -0.2 -0.05 -0.25 0.05 -0.3 0.1 -0.3 0.1 -0.35 M-0.35 -0.7 L-0.3 -0.7 -0.3 -0.65 -0.35 -0.6 -0.35 -0.6 -0.4 -0.6 -0.4 -0.65 -0.45 -0.65 -0.5 -0.65 -0.55 -0.65 -0.55 -0.65 -0.6 -0.6 -0.65 -0.55 -0.65 -0.55 -0.7 -0.5 -0.7 -0.5 Q-0.85 -0.5 -0.95 -0.55 L-0.85 -0.6 -0.85 -0.65 -0.6 -0.65 -0.5 -0.65 -0.5 -0.7 -0.45 -0.7 -0.45 -0.7 -0.35 -0.7 -0.35 -0.7" fill="#b8a994" fill-rule="evenodd" stroke="none"/>
    <path d="M-0.85 -0.65 L-0.8 -0.65 -0.75 -0.7 -0.7 -0.7 -0.65 -0.75 -0.65 -0.75 -0.45 -0.7 -0.45 -0.7 -0.5 -0.7 -0.5 -0.65 -0.6 -0.65 -0.85 -0.65" fill="#dbc8ac" fill-rule="evenodd" stroke="none"/>
    <path d="M-0.05 -0.45 L0.1 -0.35 0.1 -0.3 0.05 -0.3 -0.05 -0.25 -0.1 -0.2 -0.1 -0.2 -0.1 -0.2 -0.15 -0.15 -0.15 -0.25 -0.15 -0.25 -0.1 -0.3 -0.1 -0.3 -0.15 -0.35 -0.2 -0.35 -0.2 -0.35 -0.4 -0.25 -0.5 -0.2 -0.5 -0.2 -0.55 -0.2 -0.6 -0.25 -0.45 -0.35 -0.45 -0.35 -0.4 -0.4 -0.35 -0.4 Q-0.3 -0.45 -0.2 -0.45 L-0.2 -0.5 -0.15 -0.5 -0.1 -0.5 -0.05 -0.45 -0.05 -0.45 M-2.0 -0.1 L-2.0 -0.2 -1.9 -0.25 -1.8 -0.25 -1.7 -0.25 -1.65 -0.25 -1.6 -0.2 -1.6 -0.2 -1.45 -0.2 -1.4 -0.2 -1.35 -0.2 -1.2 -0.2 -1.15 -0.15 -0.9 -0.15 -0.85 -0.15 -0.7 -0.15 -0.7 -0.15 -0.65 -0.1 -0.7 -0.1 -0.75 -0.05 -0.95 0.0 -1.15 0.0 -1.2 -0.05 -1.3 -0.05 -1.3 -0.05 -1.4 -0.05 -1.45 -0.05 -1.5 0.0 -1.5 0.0 -1.55 0.05 -1.55 0.05 -1.65 0.0 -1.65 -0.05 -1.7 -0.05 -1.8 -0.1 -1.9 -0.05 -1.95 -0.1 -2.0 -0.1" fill="#484848" fill-rule="evenodd" stroke="none"/>
    <path d="M0.05 -0.05 L0.1 -0.05 0.15 -0.1 0.2 -0.15 0.25 -0.15 0.25 -0.25 0.25 -0.25 0.05 -0.45 0.15 -0.45 0.45 -0.25 0.45 -0.2 0.5 -0.2 Q0.8 0.0 1.1 0.05 1.35 0.1 1.5 0.25 L1.45 0.3 1.5 0.35 1.45 0.35 1.25 0.35 Q1.15 0.35 1.1 0.4 L1.0 0.45 0.95 0.45 0.85 0.4 Q0.75 0.4 0.75 0.35 L0.7 0.35 0.6 0.3 0.55 0.2 0.5 0.2 0.45 0.1 0.45 0.05 0.35 0.05 0.2 0.05 0.1 0.0 0.05 -0.05" fill="#2e2e2e" fill-rule="evenodd" stroke="none"/>
    <path d="M0.0 0.0 L0.05 -0.05 0.05 -0.05 0.1 0.0 0.2 0.05 0.35 0.05 0.45 0.05 0.45 0.1 0.5 0.2 0.55 0.2 0.6 0.3 0.7 0.35 0.75 0.35 Q0.75 0.4 0.85 0.4 L0.95 0.45 1.0 0.45 1.1 0.4 Q1.15 0.35 1.25 0.35 L1.45 0.35 1.5 0.35 1.45 0.3 1.5 0.25 1.6 0.3 1.7 0.45 1.75 0.55 Q1.65 0.7 1.45 0.75 L0.9 0.8 0.55 0.8 0.25 0.75 0.2 0.75 -0.6 0.45 -1.25 0.45 -1.6 0.45 -1.85 0.4 -1.85 0.4 Q-1.95 0.3 -2.0 0.15 L-2.0 -0.1 -1.95 -0.1 -1.9 -0.05 -1.8 -0.1 -1.7 -0.05 -1.65 -0.05 -1.65 0.0 -1.55 0.05 -1.55 0.05 -1.5 0.0 -1.5 0.0 -1.45 -0.05 -1.4 -0.05 -1.3 -0.05 -1.3 -0.05 -1.2 -0.05 -1.15 0.0 -0.95 0.0 -0.75 -0.05 -0.7 -0.1 -0.65 -0.1 -0.6 -0.05 -0.55 -0.05 Q-0.5 -0.05 -0.5 0.0 L-0.4 0.05 -0.35 0.05 0.0 0.0 M-0.5 -0.2 L-0.4 -0.25 -0.2 -0.35 -0.2 -0.35 -0.15 -0.35 -0.1 -0.3 -0.1 -0.3 -0.15 -0.25 -0.15 -0.25 -0.15 -0.15 -0.25 -0.15 -0.4 -0.1 -0.45 -0.15 -0.5 -0.2" fill="#1a1a1a" fill-rule="evenodd" stroke="none"/>
    <path d="M0.05 -0.45 L-0.05 -0.55 -0.15 -0.6 -0.2 -0.6 -0.2 -0.65 -0.3 -0.7 -0.35 -0.7 -0.45 -0.8 -0.6 -0.85 -0.6 -0.9 -0.65 -0.9 -0.65 -0.9 M1.5 0.25 Q1.35 0.1 1.1 0.05 0.8 0.0 0.5 -0.2 L0.45 -0.2 0.45 -0.25 0.15 -0.45 0.05 -0.45 M1.5 0.25 L1.6 0.3 1.7 0.45 1.75 0.55 Q1.65 0.7 1.45 0.75 L0.9 0.8 0.55 0.8 0.25 0.75 0.2 0.75 -0.6 0.45 -1.25 0.45 -1.6 0.45 -1.85 0.4 -1.85 0.4 Q-1.95 0.3 -2.0 0.15 L-2.0 -0.1 -2.0 -0.2 -1.9 -0.25 -1.9 -0.45 -1.8 -0.65 -1.8 -0.65 -1.75 -0.7" fill="none" stroke="#000000" stroke-linecap="round" stroke-linejoin="round" stroke-opacity="0.4509804" stroke-width="0.1"/>
  </g>
</svg>
