<?xml version="1.0" encoding="UTF-8" standalone="no"?>
<svg xmlns:xlink="http://www.w3.org/1999/xlink" height="1.85px" width="3.9px" xmlns="http://www.w3.org/2000/svg">
  <g transform="matrix(1.0, 0.0, 0.0, 1.0, 2.1, 1.0)">
    <path d="M-0.45 -0.35 L-0.35 -0.35 -0.3 -0.35 -0.25 -0.3 -0.1 -0.3 0.0 -0.25 0.1 -0.25 0.15 -0.2 0.2 -0.15 0.3 -0.15 0.35 -0.15 0.4 -0.15 0.45 -0.15 0.5 -0.15 0.5 -0.2 0.5 -0.15 0.55 -0.15 0.9 -0.05 1.05 0.05 1.15 0.05 1.25 0.1 1.35 0.1 1.5 0.15 Q1.6 0.2 1.65 0.25 L1.7 0.35 1.7 0.4 1.65 0.45 1.5 0.5 1.45 0.5 1.4 0.55 1.3 0.55 1.25 0.55 1.05 0.6 0.75 0.55 0.5 0.55 0.3 0.5 0.2 0.55 0.15 0.55 -0.15 0.5 -0.45 0.35 -0.65 0.25 -0.7 0.25 -0.8 0.25 -0.8 0.2 -1.05 0.2 -1.1 0.2 -1.15 0.25 -1.1 0.25 -1.1 0.3 -1.45 0.3 -1.75 0.3 -2.0 0.2 -2.0 0.1 -2.05 -0.05 -2.0 -0.1 -1.8 -0.1 -1.75 -0.1 -1.65 0.05 -1.6 0.1 -1.45 0.15 -1.4 0.15 -1.35 0.15 -1.25 0.15 -1.25 0.15 -1.2 0.15 -1.2 0.2 -1.15 0.15 -1.1 0.15 Q-1.05 0.1 -1.05 0.15 -1.05 0.2 -0.95 0.2 L-0.95 0.15 -0.85 0.15 -0.85 0.15 -0.75 0.15 -1.1 -0.1 -1.25 0.0 -1.25 0.05 -1.15 0.1 -1.2 0.1 -1.2 0.1 Q-1.25 0.1 -1.25 0.1 L-1.35 0.1 -1.45 0.0 Q-1.3 -0.15 -1.25 -0.1 L-1.3 -0.2 Q-1.35 -0.3 -1.4 -0.3 -1.55 -0.3 -1.5 -0.2 -1.5 -0.15 -1.6 -0.15 -1.65 -0.15 -1.7 -0.15 L-1.7 -0.2 -1.65 -0.25 -1.6 -0.3 -1.5 -0.3 -1.5 -0.3 -1.6 -0.35 -1.45 -0.45 -1.3 -0.4 -1.2 -0.45 -1.1 -0.55 -1.0 -0.5 -1.2 -0.3 -0.9 -0.1 Q-0.85 -0.1 -0.8 -0.15 L-0.7 -0.25 -0.65 -0.25 -0.65 -0.2 -0.75 -0.15 -0.8 -0.05 Q-0.8 -0.05 -0.7 0.0 L-0.55 0.05 -0.35 -0.15 -0.3 -0.1 -0.3 -0.05 Q-0.3 0.0 -0.4 0.0 L-0.5 0.1 -0.5 0.2 -0.45 0.25 -0.3 0.35 -0.25 0.4 0.35 0.5 0.45 0.45 0.5 0.45 0.55 0.45 0.6 0.45 0.65 0.45 0.65 0.25 0.6 0.15 0.5 0.05 0.3 -0.1 -0.1 -0.2 -0.45 -0.35 M-0.55 0.5 Q-0.6 0.5 -0.65 0.45 L-0.8 0.45 -0.9 0.45 -0.9 0.45 -0.95 0.5 -0.95 0.45 -1.0 0.35 -1.05 0.35 -1.05 0.35 -1.0 0.35 -0.95 0.35 -0.85 0.35 -0.85 0.35 -0.75 0.35 -0.7 0.35 -0.6 0.4 -0.55 0.5" fill="#251a17" fill-rule="evenodd" stroke="none"/>
    <path d="M-0.45 -0.35 L-0.1 -0.2 0.3 -0.1 0.5 0.05 0.6 0.15 0.65 0.25 0.65 0.45 0.6 0.45 0.55 0.45 0.5 0.45 0.45 0.45 0.35 0.5 -0.25 0.4 -0.3 0.35 -0.45 0.25 -0.5 0.2 -0.5 0.1 -0.4 0.0 Q-0.3 0.0 -0.3 -0.05 L-0.3 -0.1 -0.35 -0.15 -0.55 0.05 -0.7 0.0 Q-0.8 -0.05 -0.8 -0.05 L-0.75 -0.15 -0.65 -0.2 -0.65 -0.25 -0.7 -0.25 -0.8 -0.15 Q-0.85 -0.1 -0.9 -0.1 L-1.2 -0.3 -1.0 -0.5 -1.1 -0.55 -1.2 -0.45 -1.3 -0.4 -1.45 -0.45 -1.6 -0.35 -1.5 -0.3 -1.5 -0.3 -1.6 -0.3 -1.65 -0.25 -1.7 -0.2 -1.7 -0.15 Q-1.65 -0.15 -1.6 -0.15 -1.5 -0.15 -1.5 -0.2 -1.55 -0.3 -1.4 -0.3 -1.35 -0.3 -1.3 -0.2 L-1.25 -0.1 Q-1.3 -0.15 -1.45 0.0 L-1.35 0.1 -1.25 0.1 Q-1.25 0.1 -1.2 0.1 L-1.2 0.1 -1.15 0.1 -1.25 0.05 -1.25 0.0 -1.1 -0.1 -0.75 0.15 -0.85 0.15 -0.85 0.15 -0.95 0.15 -0.95 0.2 Q-1.05 0.2 -1.05 0.15 -1.05 0.1 -1.1 0.15 L-1.15 0.15 -1.2 0.2 -1.2 0.15 -1.25 0.15 -1.25 0.15 -1.35 0.15 -1.4 0.15 -1.45 0.15 -1.6 0.1 -1.65 0.05 -1.75 -0.1 -1.8 -0.1 -2.0 -0.1 -2.05 -0.05 -2.05 -0.2 -2.0 -0.4 -1.9 -0.5 -1.9 -0.5 -1.9 -0.5 -1.8 -0.6 -1.8 -0.65 -1.75 -0.7 -1.7 -0.75 -1.65 -0.8 Q-1.4 -0.95 -1.0 -0.95 L-0.85 -0.95 -0.8 -0.9 -0.75 -0.9 -0.75 -0.9 -0.7 -0.85 -0.7 -0.9 -0.6 -0.9 Q-0.5 -0.9 -0.15 -0.65 L-0.05 -0.55 0.3 -0.35 0.55 -0.15 0.55 -0.15 0.5 -0.15 0.5 -0.2 0.1 -0.35 -0.1 -0.5 -0.15 -0.5 -0.6 -0.8 -0.6 -0.75 -0.65 -0.75 -0.7 -0.75 -0.75 -0.55 -0.75 -0.45 -0.75 -0.3 -0.55 -0.3 -0.5 -0.35 -0.45 -0.35 -0.45 -0.35 M-2.0 0.2 L-1.75 0.3 -1.45 0.3 -1.1 0.3 -1.1 0.25 -1.15 0.25 -1.1 0.2 -1.05 0.2 -0.8 0.2 -0.8 0.25 -0.7 0.25 -0.65 0.25 -0.45 0.35 -0.15 0.5 0.15 0.55 0.2 0.55 0.3 0.5 0.5 0.55 0.75 0.55 1.05 0.6 1.25 0.55 1.3 0.55 1.4 0.55 1.45 0.5 1.5 0.5 1.65 0.45 1.7 0.4 1.7 0.5 Q1.7 0.6 1.65 0.65 L1.4 0.75 1.1 0.8 0.8 0.8 0.75 0.8 0.55 0.75 0.4 0.75 0.25 0.75 0.15 0.75 0.0 0.75 -0.2 0.65 -0.25 0.6 -0.35 0.6 -0.5 0.5 -0.55 0.5 -0.6 0.4 -0.7 0.35 -0.75 0.35 -0.85 0.35 -0.85 0.35 -0.95 0.35 -1.0 0.35 -1.05 0.35 -1.05 0.35 -1.0 0.35 -0.95 0.45 -0.95 0.5 -1.0 0.5 -1.0 0.55 -1.05 0.55 -1.1 0.55 -1.15 0.55 -1.25 0.55 -1.3 0.55 -1.4 0.55 -1.6 0.5 -1.75 0.5 -1.8 0.45 -1.9 0.45 -1.95 0.4 -1.95 0.35 -1.95 0.3 -2.0 0.2" fill="#382018" fill-rule="evenodd" stroke="none"/>
    <path d="M0.5 -0.2 L0.5 -0.15 0.45 -0.15 0.4 -0.15 0.35 -0.15 0.3 -0.15 0.2 -0.15 0.15 -0.2 0.1 -0.25 0.0 -0.25 -0.1 -0.3 -0.25 -0.3 -0.3 -0.35 -0.35 -0.35 -0.45 -0.35 -0.45 -0.35 -0.5 -0.35 -0.55 -0.3 -0.75 -0.3 -0.75 -0.45 -0.75 -0.55 -0.7 -0.75 -0.65 -0.75 -0.6 -0.75 -0.6 -0.8 -0.15 -0.5 -0.1 -0.5 0.1 -0.35 0.5 -0.2" fill="#4f3122" fill-rule="evenodd" stroke="none"/>
    <path d="M-2.05 -0.05 L-2.0 0.1 -2.0 0.2 -1.95 0.3 -1.95 0.35 -1.95 0.4 -1.9 0.45 -1.8 0.45 -1.75 0.5 -1.6 0.5 -1.4 0.55 -1.3 0.55 -1.25 0.55 -1.15 0.55 -1.1 0.55 -1.05 0.55 -1.0 0.55 -1.0 0.5 -0.95 0.5 -0.9 0.45 -0.9 0.45 -0.8 0.45 -0.65 0.45 Q-0.6 0.5 -0.55 0.5 L-0.5 0.5 -0.35 0.6 -0.25 0.6 -0.2 0.65 0.0 0.75 0.15 0.75 0.25 0.75 0.4 0.75 0.55 0.75 0.75 0.8 0.8 0.8 1.1 0.8 1.4 0.75 1.65 0.65 Q1.7 0.6 1.7 0.5 L1.7 0.4 1.7 0.35 1.65 0.25 Q1.6 0.2 1.5 0.15 L1.35 0.1 1.25 0.1 1.15 0.05 1.05 0.05 0.9 -0.05 0.55 -0.15 0.55 -0.15 0.3 -0.35 -0.05 -0.55 -0.15 -0.65 Q-0.5 -0.9 -0.6 -0.9 L-0.7 -0.9 -0.7 -0.85 -0.75 -0.9 -0.75 -0.9 -0.8 -0.9 -0.85 -0.95 M-1.7 -0.75 L-1.75 -0.7 -1.8 -0.65 -1.8 -0.6 -1.9 -0.5 -1.9 -0.5 -1.9 -0.5 -2.0 -0.4 -2.05 -0.2 -2.05 -0.05" fill="none" stroke="#000000" stroke-linecap="round" stroke-linejoin="round" stroke-opacity="0.4509804" stroke-width="0.1"/>
  </g>
</svg>
