<?xml version="1.0" encoding="UTF-8" standalone="no"?>
<svg xmlns:xlink="http://www.w3.org/1999/xlink" height="1.9px" width="3.9px" xmlns="http://www.w3.org/2000/svg">
  <g transform="matrix(1.0, 0.0, 0.0, 1.0, 2.1, 1.05)">
    <path d="M0.0 -0.05 L-0.05 -0.05 -0.05 0.0 0.0 0.0 0.0 0.0 -0.05 0.05 -0.05 0.05 0.0 0.1 0.05 0.15 0.1 0.15 0.1 0.2 0.05 0.15 -0.05 0.25 -0.05 0.1 -0.1 0.0 -0.1 -0.05 -0.1 0.0 Q-0.05 0.0 0.0 -0.05 M-0.4 -0.3 L-0.4 -0.35 -0.4 -0.35 -0.4 -0.3 M-0.1 0.25 L-0.1 0.25 -0.05 0.25 -0.05 0.3 -0.1 0.25" fill="#181914" fill-rule="evenodd" stroke="none"/>
    <path d="M-0.15 -0.55 L-0.15 -0.5 -0.15 -0.55" fill="#1b1714" fill-rule="evenodd" stroke="none"/>
    <path d="M0.1 -0.15 L0.15 -0.2 0.15 -0.25 0.2 -0.2 0.2 -0.2 0.15 -0.15 0.2 -0.1 0.2 -0.1 0.25 -0.15 0.25 -0.15 0.3 -0.15 0.35 -0.1 0.35 -0.1 0.35 -0.05 0.3 -0.05 0.2 0.05 0.15 0.1 0.1 0.15 0.05 0.15 0.0 0.1 -0.05 0.05 -0.05 0.05 0.0 0.0 0.0 0.0 -0.05 0.0 -0.05 -0.05 0.0 -0.05 0.1 -0.15 0.1 -0.15" fill="#86734b" fill-rule="evenodd" stroke="none"/>
    <path d="M0.15 -0.25 L0.3 -0.3 0.1 -0.45 0.1 -0.5 -0.05 -0.6 -0.1 -0.6 -0.15 -0.55 -0.15 -0.55 -0.2 -0.55 -0.25 -0.6 -0.25 -0.6 -0.3 -0.55 -0.3 -0.65 -0.3 -0.65 -0.2 -0.7 -0.15 -0.75 Q-0.1 -0.75 0.05 -0.6 L0.2 -0.45 0.4 -0.35 0.5 -0.25 0.5 -0.2 0.45 -0.15 0.35 -0.1 0.35 -0.1 0.35 -0.1 0.3 -0.15 0.25 -0.15 0.25 -0.15 0.2 -0.1 0.2 -0.1 0.15 -0.15 0.2 -0.2 0.2 -0.2 0.15 -0.25 M0.35 -0.1 L0.35 -0.1 M-0.55 -0.1 L-0.6 -0.15 -0.65 -0.25 -0.65 -0.3 -0.45 -0.55 -0.45 -0.45 -0.4 -0.45 -0.3 -0.4 -0.4 -0.35 -0.4 -0.35 -0.45 -0.35 -0.5 -0.3 -0.55 -0.2 -0.5 -0.15 -0.5 -0.1 -0.5 -0.1 -0.55 -0.1 M-0.4 -0.35 L-0.4 -0.35" fill="#403517" fill-rule="evenodd" stroke="none"/>
    <path d="M0.35 -0.1 L0.35 -0.1 0.4 -0.05 0.4 0.0 Q0.35 0.0 0.35 -0.05 L0.35 -0.1" fill="#3e3025" fill-rule="evenodd" stroke="none"/>
    <path d="M-0.5 -0.1 L-0.5 -0.15 -0.55 -0.2 -0.5 -0.3 -0.45 -0.35 -0.4 -0.35 -0.4 -0.35 -0.4 -0.3 -0.4 -0.25 -0.35 -0.2 -0.45 -0.15 -0.45 -0.15 -0.5 -0.1" fill="#655023" fill-rule="evenodd" stroke="none"/>
    <path d="M-0.5 0.0 L-0.55 -0.1 -0.5 -0.1 -0.5 -0.1 -0.45 -0.15 -0.45 -0.15 -0.35 -0.2 -0.3 -0.1 -0.15 0.0 -0.15 0.0 -0.15 0.1 -0.1 0.1 -0.1 0.15 -0.15 0.2 -0.1 0.25 Q-0.25 0.25 -0.45 0.05 L-0.5 0.0" fill="#261f17" fill-rule="evenodd" stroke="none"/>
    <path d="M-0.3 -0.65 L-0.3 -0.55 -0.25 -0.6 -0.25 -0.6 -0.2 -0.55 -0.15 -0.55 -0.15 -0.55 -0.25 -0.5 -0.3 -0.4 -0.4 -0.45 -0.45 -0.45 -0.45 -0.55 -0.45 -0.55 -0.4 -0.6 -0.3 -0.65" fill="#847943" fill-rule="evenodd" stroke="none"/>
    <path d="M-0.15 0.0 L-0.1 0.0 -0.1 0.0 -0.05 0.1 -0.05 0.25 -0.1 0.25 -0.1 0.25 -0.15 0.2 -0.1 0.15 -0.1 0.1 -0.15 0.1 -0.15 0.0 -0.15 0.0" fill="#64591b" fill-rule="evenodd" stroke="none"/>
    <path d="M-0.15 -0.55 L-0.1 -0.6 -0.05 -0.6 0.1 -0.5 0.1 -0.45 0.3 -0.3 0.15 -0.25 0.15 -0.2 0.1 -0.15 -0.05 -0.35 -0.15 -0.5 -0.15 -0.55 M0.35 -0.1 L0.35 -0.1 0.45 -0.15 0.5 -0.2 0.5 -0.25 Q0.85 -0.05 1.4 0.2 L1.7 0.4 1.75 0.5 Q1.75 0.6 1.7 0.65 L1.5 0.7 1.15 0.75 0.8 0.75 0.6 0.8 0.5 0.65 0.4 0.55 0.45 0.5 Q0.45 0.45 0.2 0.45 L0.15 0.45 0.1 0.45 0.1 0.35 0.05 0.3 -0.05 0.25 0.05 0.15 0.1 0.2 0.15 0.25 0.35 0.35 0.65 0.4 0.7 0.35 0.75 0.3 0.7 0.25 0.6 0.2 0.55 0.15 0.5 0.1 0.4 0.0 0.4 -0.05 0.35 -0.1 M-0.2 -0.7 L-0.3 -0.65 -0.3 -0.65 -0.4 -0.6 -0.45 -0.55 -0.45 -0.55 -0.65 -0.3 -0.65 -0.25 -0.6 -0.15 -0.55 -0.1 -0.5 0.0 -0.65 -0.05 -0.75 0.05 -0.8 0.05 -0.85 0.0 -0.8 -0.15 -0.8 -0.15 -0.85 -0.2 -0.75 -0.3 -0.65 -0.4 -0.75 -0.55 -0.7 -0.6 -0.7 -0.65 -0.5 -0.75 -0.4 -0.8 -0.2 -0.7 M1.5 0.65 L1.55 0.65 1.7 0.55 1.6 0.5 1.55 0.5 Q1.55 0.5 1.5 0.5 L1.45 0.55 1.35 0.55 1.2 0.55 1.05 0.55 1.25 0.65 1.5 0.65 M-0.35 -0.2 L-0.4 -0.25 -0.4 -0.3 -0.4 -0.35 -0.3 -0.4 -0.25 -0.35 -0.15 -0.2 -0.1 -0.1 -0.1 -0.05 -0.1 0.0 -0.1 0.0 -0.15 0.0 -0.3 -0.1 -0.35 -0.2" fill="#2c0a0a" fill-rule="evenodd" stroke="none"/>
    <path d="M-0.15 -0.5 L-0.05 -0.35 0.1 -0.15 0.1 -0.15 0.0 -0.05 Q-0.05 0.0 -0.1 0.0 L-0.1 -0.05 -0.1 -0.1 -0.15 -0.2 -0.25 -0.35 -0.3 -0.4 -0.25 -0.5 -0.15 -0.55 -0.15 -0.5 M0.1 0.15 L0.15 0.1 0.2 0.05 0.3 -0.05 0.35 -0.05 0.35 -0.1 0.35 -0.05 Q0.35 0.0 0.4 0.0 L0.5 0.1 0.55 0.15 0.6 0.2 0.7 0.25 0.75 0.3 0.7 0.35 0.65 0.4 0.35 0.35 0.15 0.25 0.1 0.2 0.1 0.15 M1.5 0.65 L1.25 0.65 1.05 0.55 1.2 0.55 1.35 0.55 1.45 0.55 1.45 0.6 1.5 0.65" fill="#4f1212" fill-rule="evenodd" stroke="none"/>
    <path d="M-0.05 0.25 L0.05 0.3 0.1 0.35 0.1 0.45 0.15 0.45 0.2 0.45 Q0.45 0.45 0.45 0.5 L0.4 0.55 0.5 0.65 0.6 0.8 0.15 0.7 -0.15 0.55 -0.5 0.45 -0.6 0.45 -1.0 0.45 -1.35 0.45 Q-1.5 0.5 -1.7 0.45 L-1.9 0.4 -2.0 0.3 Q-2.05 0.2 -2.05 -0.05 L-2.0 -0.2 -2.0 -0.3 -1.95 -0.5 -1.8 -0.65 -1.7 -0.55 -1.6 -0.45 -1.3 -0.3 -1.05 -0.3 -1.0 -0.35 -0.9 -0.4 -0.85 -0.45 -0.75 -0.6 -0.7 -0.65 -0.7 -0.6 -0.75 -0.55 -0.65 -0.4 -0.75 -0.3 -0.85 -0.2 -0.8 -0.15 -0.8 -0.15 -0.85 0.0 -0.8 0.05 -0.75 0.05 -0.65 -0.05 -0.5 0.0 -0.45 0.05 Q-0.25 0.25 -0.1 0.25 L-0.05 0.3 -0.05 0.25" fill="#190505" fill-rule="evenodd" stroke="none"/>
    <path d="M1.45 0.55 L1.5 0.5 Q1.55 0.5 1.55 0.5 L1.6 0.5 1.7 0.55 1.55 0.65 1.5 0.65 1.45 0.6 1.45 0.55" fill="#8e4747" fill-rule="evenodd" stroke="none"/>
    <path d="M-1.8 -0.65 L-1.75 -0.7 -1.5 -0.85 -1.15 -1.0 -0.8 -1.0 -0.8 -1.0 -1.3 -0.75 -1.6 -0.45 -1.7 -0.55 -1.8 -0.65" fill="#b1947e" fill-rule="evenodd" stroke="none"/>
    <path d="M-0.8 -1.0 L-0.65 -0.95 Q-0.55 -0.9 -0.45 -0.8 L-0.45 -0.8 -0.4 -0.8 -0.5 -0.75 -0.7 -0.65 -0.75 -0.6 -0.85 -0.45 -0.9 -0.4 -1.0 -0.35 -1.05 -0.3 -1.3 -0.3 -1.6 -0.45 -1.3 -0.75 -0.8 -1.0" fill="#243131" fill-rule="evenodd" stroke="none"/>
    <path d="M0.5 -0.25 L0.4 -0.35 0.2 -0.45 0.05 -0.6 Q-0.1 -0.75 -0.15 -0.75 L-0.2 -0.7 -0.4 -0.8 -0.45 -0.8 -0.45 -0.8 Q-0.55 -0.9 -0.65 -0.95 L-0.8 -1.0 M0.6 0.8 L0.8 0.75 1.15 0.75 1.5 0.7 1.7 0.65 Q1.75 0.6 1.75 0.5 L1.7 0.4 1.4 0.2 Q0.85 -0.05 0.5 -0.25 M0.6 0.8 L0.15 0.7 -0.15 0.55 -0.5 0.45 -0.6 0.45 -1.0 0.45 -1.35 0.45 Q-1.5 0.5 -1.7 0.45 L-1.9 0.4 -2.0 0.3 Q-2.05 0.2 -2.05 -0.05 L-2.0 -0.2 -2.0 -0.3 -1.95 -0.5 -1.8 -0.65 M-1.6 -0.45 L-1.3 -0.3 -1.05 -0.3 -1.0 -0.35 -0.9 -0.4 -0.85 -0.45 -0.75 -0.6 -0.7 -0.65 -0.5 -0.75 -0.4 -0.8" fill="none" stroke="#000000" stroke-linecap="round" stroke-linejoin="round" stroke-opacity="0.4509804" stroke-width="0.1"/>
  </g>
</svg>
