<?xml version="1.0" encoding="UTF-8" standalone="no"?>
<svg xmlns:xlink="http://www.w3.org/1999/xlink" height="1.9px" width="1.75px" xmlns="http://www.w3.org/2000/svg">
  <g transform="matrix(1.0, 0.0, 0.0, 1.0, 0.85, 0.95)">
    <path d="M0.6 -0.5 L0.6 -0.45 0.65 -0.4 0.75 -0.3 0.85 -0.1 0.9 0.05 0.7 0.3 0.5 0.5 0.45 0.5 0.25 0.8 Q0.15 0.95 0.05 0.95 -0.05 0.95 -0.1 0.9 L-0.1 0.85 -0.2 0.9 Q-0.3 0.9 -0.35 0.85 -0.4 0.75 -0.5 0.75 L-0.6 0.7 -0.65 0.6 -0.8 0.5 -0.85 0.45 -0.8 0.35 -0.85 0.2 -0.85 -0.1 -0.85 -0.1 -0.75 -0.25 -0.75 -0.4 -0.7 -0.55 Q-0.55 -0.8 -0.4 -0.85 -0.25 -0.95 0.0 -0.95 0.1 -0.95 0.25 -0.85 L0.45 -0.75 0.4 -0.7 0.6 -0.5" fill="#d07e54" fill-rule="evenodd" stroke="none"/>
  </g>
</svg>
