<?xml version="1.0" encoding="UTF-8" standalone="no"?>
<svg xmlns:xlink="http://www.w3.org/1999/xlink" height="2.2px" width="2.0px" xmlns="http://www.w3.org/2000/svg">
  <g transform="matrix(1.0, 0.0, 0.0, 1.0, 1.0, 1.1)">
    <path d="M-0.8 -0.3 L-0.8 -0.4 -0.75 -0.6 Q-0.6 -0.8 -0.4 -0.9 L0.0 -1.0 Q0.15 -1.0 0.25 -0.9 L0.45 -0.75 0.45 -0.75 0.6 -0.55 0.55 -0.5 0.4 -0.45 0.15 -0.25 Q0.1 -0.25 0.05 -0.3 L0.05 -0.3 0.05 -0.3 0.0 -0.2 Q-0.05 -0.2 -0.1 -0.2 L-0.25 -0.25 -0.25 -0.25 -0.4 -0.3 -0.45 -0.25 -0.5 -0.25 -0.65 -0.35 -0.8 -0.3 -0.8 -0.3 M0.0 0.65 L-0.05 0.75 -0.2 0.95 -0.2 0.9 -0.15 0.85 -0.2 0.8 -0.2 0.75 -0.15 0.7 -0.1 0.65 0.0 0.6 0.0 0.65" fill="#b8a397" fill-rule="evenodd" stroke="none"/>
    <path d="M0.9 -0.1 L0.95 0.05 Q0.95 0.15 0.75 0.3 L0.7 0.3 0.45 0.2 0.4 0.25 0.4 0.3 0.5 0.5 0.5 0.55 0.3 0.85 Q0.15 1.0 0.05 1.0 -0.05 1.0 -0.1 0.95 L0.0 0.65 0.05 0.55 0.2 0.25 0.15 0.2 Q0.1 0.25 0.05 0.3 L0.0 0.45 -0.05 0.6 -0.1 0.65 -0.15 0.65 -0.2 0.7 -0.25 0.7 -0.25 0.65 -0.2 0.6 -0.3 0.7 -0.35 0.65 -0.3 0.45 -0.25 0.35 -0.05 0.0 -0.05 0.0 -0.45 0.55 -0.5 0.55 -0.5 0.45 -0.5 0.45 -0.55 0.5 -0.55 0.5 -0.65 0.45 -0.6 0.3 -0.6 0.25 -0.55 0.15 -0.5 0.05 -0.45 -0.1 Q-0.4 -0.1 -0.35 -0.1 L-0.3 -0.1 -0.25 -0.05 -0.3 -0.05 -0.25 0.0 -0.2 0.0 -0.15 -0.1 -0.05 -0.05 Q-0.05 -0.05 0.0 -0.1 L0.1 -0.15 0.15 -0.15 0.2 -0.2 0.25 -0.25 0.3 -0.35 0.35 -0.4 0.5 -0.45 0.45 -0.4 0.45 -0.4 0.55 -0.25 0.5 -0.2 0.5 -0.15 0.6 -0.05 0.9 -0.1 M-0.6 -0.15 L-0.55 -0.2 -0.5 -0.15 -0.5 -0.15 -0.45 -0.15 -0.5 -0.1 -0.6 0.1 -0.6 0.1 -0.8 0.3 -0.85 0.25 Q-0.85 0.15 -0.65 -0.15 L-0.6 -0.15" fill="#ffe7d9" fill-rule="evenodd" stroke="none"/>
    <path d="M0.6 -0.55 L0.65 -0.5 0.7 -0.45 0.8 -0.3 0.9 -0.1 0.6 -0.05 0.5 -0.15 0.5 -0.2 0.55 -0.25 0.45 -0.4 0.45 -0.4 0.5 -0.45 0.35 -0.4 0.3 -0.35 0.25 -0.25 0.2 -0.2 0.15 -0.15 0.1 -0.15 0.0 -0.1 Q-0.05 -0.05 -0.05 -0.05 L-0.15 -0.1 -0.2 0.0 -0.25 0.0 -0.3 -0.05 -0.25 -0.05 -0.3 -0.1 -0.35 -0.1 Q-0.4 -0.1 -0.45 -0.1 L-0.5 0.05 -0.55 0.15 -0.6 0.25 -0.6 0.3 -0.65 0.45 -0.55 0.5 -0.55 0.5 -0.5 0.45 -0.5 0.45 -0.5 0.55 -0.45 0.55 -0.05 0.0 -0.05 0.0 -0.25 0.35 -0.3 0.45 -0.35 0.65 -0.3 0.7 -0.2 0.6 -0.25 0.65 -0.25 0.7 -0.2 0.7 -0.15 0.65 -0.1 0.65 -0.05 0.6 0.0 0.45 0.05 0.3 Q0.1 0.25 0.15 0.2 L0.2 0.25 0.05 0.55 0.0 0.65 -0.1 0.95 -0.1 0.9 -0.25 0.95 -0.35 0.9 Q-0.4 0.8 -0.5 0.8 L-0.6 0.75 -0.7 0.65 -0.85 0.5 -0.9 0.45 -0.85 0.35 -0.9 0.2 -0.9 0.05 -0.85 -0.1 -0.85 -0.1 -0.8 -0.25 -0.8 -0.3 -0.8 -0.3 -0.65 -0.35 -0.5 -0.25 -0.45 -0.25 -0.4 -0.3 -0.25 -0.25 -0.25 -0.25 -0.1 -0.2 Q-0.05 -0.2 0.0 -0.2 L0.05 -0.3 0.05 -0.3 0.05 -0.3 Q0.1 -0.25 0.15 -0.25 L0.4 -0.45 0.55 -0.5 0.6 -0.55 M0.7 0.3 L0.5 0.5 0.4 0.3 0.4 0.25 0.45 0.2 0.7 0.3 M-0.6 -0.15 L-0.65 -0.15 Q-0.85 0.15 -0.85 0.25 L-0.8 0.3 -0.6 0.1 -0.6 0.1 -0.5 -0.1 -0.45 -0.15 -0.5 -0.15 -0.5 -0.15 -0.55 -0.2 -0.6 -0.15 M0.0 0.65 L0.0 0.6 -0.1 0.65 -0.15 0.7 -0.2 0.75 -0.2 0.8 -0.15 0.85 -0.2 0.9 -0.2 0.95 -0.05 0.75 0.0 0.65" fill="#ecd6c9" fill-rule="evenodd" stroke="none"/>
    <path d="M-0.8 -0.3 L-0.8 -0.4 -0.75 -0.6 Q-0.6 -0.8 -0.4 -0.9 L0.0 -1.0 Q0.15 -1.0 0.25 -0.9 L0.45 -0.75 0.45 -0.75 0.6 -0.55 0.65 -0.5 0.7 -0.45 0.8 -0.3 0.9 -0.1 0.95 0.05 Q0.95 0.15 0.75 0.3 L0.7 0.3 0.5 0.5 0.5 0.55 0.3 0.85 Q0.15 1.0 0.05 1.0 -0.05 1.0 -0.1 0.95 L-0.1 0.9 -0.25 0.95 -0.35 0.9 Q-0.4 0.8 -0.5 0.8 L-0.6 0.75 -0.7 0.65 -0.85 0.5 -0.9 0.45 -0.85 0.35 -0.9 0.2 -0.9 0.05 -0.85 -0.1 -0.85 -0.1 -0.8 -0.25 -0.8 -0.3 Z" fill="none" stroke="#000000" stroke-linecap="round" stroke-linejoin="round" stroke-opacity="0.4509804" stroke-width="0.1"/>
  </g>
</svg>
