<?xml version="1.0" encoding="UTF-8" standalone="no"?>
<svg xmlns:xlink="http://www.w3.org/1999/xlink" height="2.8px" width="5.9px" xmlns="http://www.w3.org/2000/svg">
  <g transform="matrix(1.0, 0.0, 0.0, 1.0, 3.3, 1.15)">
    <path d="M-0.65 -1.1 L-0.65 -1.0 -0.75 -1.0 -0.85 -0.95 Q-0.85 -0.9 -0.9 -0.85 L-1.0 -0.8 -1.1 -0.8 -1.15 -0.8 -1.1 -0.7 -1.05 -0.7 -1.0 -0.65 -1.0 -0.6 Q-1.0 -0.55 -1.1 -0.55 L-1.1 -0.55 -1.25 -0.5 -1.3 -0.5 -1.3 -0.55 -1.35 -0.55 -1.4 -0.6 -1.4 -0.65 -1.4 -0.7 -1.5 -0.7 -1.75 -0.55 -1.75 -0.6 Q-1.45 -1.0 -1.0 -1.05 L-0.75 -1.1 -0.65 -1.1 M-2.1 0.35 L-2.1 0.3 -2.0 0.15 -2.0 0.0 -1.95 -0.05 -1.9 -0.1 -1.9 0.2 -2.1 0.35 -2.1 0.35 M-0.75 -0.8 L-0.7 -0.7 -0.75 -0.7 -0.8 -0.7 -0.85 -0.75 -0.75 -0.8" fill="#cf6c60" fill-rule="evenodd" stroke="none"/>
    <path d="M-1.3 -0.5 L-1.25 -0.5 -1.1 -0.55 Q-1.1 -0.4 -1.2 -0.4 L-1.3 -0.45 -1.3 -0.5 M-0.75 -1.1 L-0.65 -1.1 -0.75 -1.1 M-0.65 -1.1 L-0.65 -1.1" fill="#838983" fill-rule="evenodd" stroke="none"/>
    <path d="M1.3 0.0 L1.35 0.05 1.3 0.0 M1.45 0.1 L1.5 0.15 1.55 0.2 1.45 0.2 1.45 0.1 M-1.75 -0.55 L-1.85 -0.5 -1.75 -0.6 -1.75 -0.55 M-0.65 -1.1 L-0.5 -1.05 -0.65 -1.1 -0.65 -1.1" fill="#4a524c" fill-rule="evenodd" stroke="none"/>
    <path d="M0.85 -0.55 L0.8 -0.6 0.7 -0.55 0.7 -0.4 0.5 -0.45 0.45 -0.6 0.55 -0.7 0.4 -0.65 0.4 -0.8 0.3 -0.9 0.25 -1.0 0.6 -0.85 Q1.2 -0.6 1.6 -0.2 L1.65 -0.2 1.8 -0.05 1.8 0.0 1.75 0.0 1.85 0.2 1.85 0.4 1.6 0.1 1.6 0.05 Q1.5 0.1 1.5 0.15 L1.45 0.1 1.35 0.05 1.3 0.0 1.3 -0.05 1.35 -0.2 1.3 -0.25 1.3 -0.3 1.25 -0.25 1.25 -0.15 1.2 -0.15 1.2 -0.1 1.1 -0.15 1.1 -0.25 1.2 -0.25 1.25 -0.3 1.3 -0.4 1.25 -0.4 1.2 -0.4 1.25 -0.45 1.2 -0.45 1.1 -0.55 1.05 -0.55 0.95 -0.55 0.95 -0.55 0.95 -0.45 1.0 -0.4 1.0 -0.25 0.85 -0.3 0.9 -0.45 0.9 -0.6 0.85 -0.55 M-0.35 -1.0 L-0.35 -0.7 -0.4 -0.6 -0.7 -0.6 -0.95 -0.6 -1.0 -0.6 -1.0 -0.65 -1.05 -0.7 -1.1 -0.7 -1.15 -0.8 -1.1 -0.8 -1.0 -0.8 -0.9 -0.85 Q-0.85 -0.9 -0.85 -0.95 L-0.75 -1.0 -0.65 -1.0 -0.65 -1.1 -0.5 -1.05 -0.35 -1.0 M-1.75 -0.55 L-1.5 -0.7 -1.4 -0.7 -1.4 -0.65 -1.4 -0.6 -1.35 -0.55 -1.3 -0.55 -1.3 -0.5 -1.55 -0.3 Q-1.65 -0.15 -1.75 -0.15 L-1.75 -0.25 -1.75 -0.45 -1.75 -0.55 M-1.85 -0.2 L-1.85 -0.15 -1.9 0.1 -1.9 0.2 -1.9 0.2 -1.9 -0.1 -1.95 -0.05 -2.0 0.0 -2.0 0.15 -2.1 0.3 -2.1 0.35 -2.25 0.55 -2.25 0.5 -2.3 0.5 -2.35 0.6 Q-2.35 0.65 -2.4 0.65 L-2.5 0.75 -2.55 0.8 -2.55 0.6 -2.45 0.55 -1.85 -0.2 M-2.45 0.8 Q-2.6 1.1 -2.65 1.15 L-2.7 1.15 -2.7 1.15 -2.75 1.15 -2.7 1.05 -2.65 1.0 -2.55 1.0 -2.5 0.9 -2.45 0.8 M-2.75 1.3 L-2.95 1.45 -3.0 1.45 -3.1 1.35 -3.05 1.35 -3.05 1.25 -3.0 1.25 -2.95 1.2 -2.9 1.25 -2.9 1.25 Q-2.85 1.2 -2.8 1.2 L-2.75 1.25 -2.75 1.3 M-0.75 -0.8 L-0.85 -0.75 -0.8 -0.7 -0.75 -0.7 -0.7 -0.7 -0.75 -0.8 M2.25 1.0 L2.25 0.9 2.3 0.95 2.35 0.85 2.35 0.8 2.5 1.25 2.5 1.35 2.4 1.4 2.4 1.35 Q2.35 1.15 2.25 1.0" fill="#8b4941" fill-rule="evenodd" stroke="none"/>
    <path d="M0.25 -1.0 L0.3 -0.9 0.4 -0.8 0.4 -0.65 0.55 -0.7 0.45 -0.6 0.5 -0.45 0.7 -0.4 0.7 -0.55 0.8 -0.6 0.85 -0.55 0.8 -0.5 0.75 -0.4 0.75 -0.35 0.7 -0.35 0.65 -0.35 0.65 -0.35 0.4 -0.4 0.3 -0.35 0.25 -0.35 0.1 -0.45 Q-0.05 -0.55 -0.2 -0.6 L-0.4 -0.6 -0.35 -0.7 -0.35 -1.0 0.05 -0.95 0.25 -1.0 M1.0 -0.4 L0.95 -0.45 0.95 -0.55 Q1.0 -0.45 1.05 -0.45 L1.05 -0.45 1.15 -0.4 1.2 -0.4 1.25 -0.4 1.3 -0.4 1.25 -0.3 1.2 -0.25 1.1 -0.25 1.1 -0.35 1.05 -0.35 1.0 -0.4 1.0 -0.4 M1.5 0.15 Q1.5 0.1 1.6 0.05 L1.6 0.1 1.85 0.4 1.85 0.2 1.75 0.0 1.8 0.0 1.8 -0.05 1.65 -0.2 Q1.95 0.1 2.15 0.45 L2.35 0.8 2.35 0.85 2.3 0.95 2.25 0.9 2.25 1.0 1.9 0.55 1.55 0.2 1.5 0.15 M-2.4 0.8 L-2.45 0.8 -2.45 0.8 -2.5 0.9 -2.55 1.0 -2.65 1.0 -2.7 1.05 -2.75 1.15 -2.7 1.15 -2.7 1.15 -2.75 1.3 -2.75 1.25 -2.8 1.2 Q-2.85 1.2 -2.9 1.25 L-2.9 1.25 -2.95 1.2 -3.0 1.25 -3.05 1.25 -3.05 1.35 -3.1 1.35 -3.0 1.45 -2.95 1.45 -3.05 1.55 -3.25 1.5 -3.05 1.1 -2.95 1.0 -2.55 0.6 -2.55 0.8 -2.5 0.75 -2.4 0.65 Q-2.35 0.65 -2.35 0.6 L-2.3 0.5 -2.25 0.5 -2.25 0.55 -2.3 0.6 -2.4 0.8 -2.4 0.8" fill="#562d28" fill-rule="evenodd" stroke="none"/>
    <path d="M-0.4 -0.6 L-0.2 -0.6 Q-0.05 -0.55 0.1 -0.45 L0.25 -0.35 0.3 -0.35 0.4 -0.4 0.65 -0.35 0.65 -0.1 0.65 -0.05 0.7 -0.05 0.75 -0.05 0.8 -0.1 0.85 -0.1 0.85 -0.15 0.85 -0.2 0.85 -0.3 1.0 -0.25 1.0 -0.15 1.05 -0.15 1.1 -0.1 1.1 -0.15 1.2 -0.1 1.2 -0.1 1.15 -0.05 1.15 -0.05 1.0 -0.05 0.95 -0.1 0.9 -0.1 0.95 0.05 1.0 0.15 1.0 0.25 Q1.05 0.3 1.15 0.35 L1.3 0.25 1.3 0.15 1.35 0.05 1.45 0.1 1.45 0.2 1.55 0.2 1.5 0.15 1.55 0.2 1.9 0.55 2.25 1.0 2.2 1.0 2.25 1.15 2.25 1.3 2.2 1.3 2.15 1.3 2.15 1.2 2.05 1.2 2.05 1.3 2.0 1.3 1.95 1.3 1.75 1.3 1.7 1.3 1.65 1.25 1.6 1.15 1.55 1.15 1.55 1.25 1.4 1.3 1.1 1.25 0.9 1.25 0.85 1.25 0.75 1.25 0.7 1.3 0.65 1.35 0.0 1.4 -0.7 1.4 -0.65 1.35 -0.55 1.25 -0.35 1.15 Q-0.35 1.1 -0.3 1.05 L-0.2 1.0 -0.2 1.0 -0.25 0.95 -0.3 1.0 Q-0.3 0.85 -0.35 0.8 L-0.45 0.8 -0.45 0.7 Q-0.5 0.75 -0.5 0.5 L-0.5 0.3 Q-0.5 0.3 -0.5 0.25 L-0.55 0.2 -0.55 0.05 -0.6 0.05 -0.6 0.0 -0.65 -0.05 -0.6 -0.15 Q-0.65 -0.15 -0.65 -0.25 L-0.6 -0.25 -0.6 -0.2 -0.5 -0.15 Q-0.45 -0.1 -0.45 -0.15 L-0.4 -0.3 -0.4 -0.4 -0.5 -0.45 -0.45 -0.55 -0.4 -0.55 -0.4 -0.6 M0.85 -0.3 L0.85 -0.3 M-1.75 -0.55 L-1.75 -0.45 -1.75 -0.25 -1.75 -0.15 -1.75 0.0 -1.75 0.1 -1.75 0.25 -1.8 0.4 -1.8 0.55 -1.75 0.65 -1.7 0.7 -1.7 0.7 -1.75 0.8 -1.65 0.95 -1.55 1.0 -1.55 1.1 -1.45 1.1 -1.4 1.1 -1.4 1.2 -1.45 1.25 -1.5 1.25 -1.5 1.25 -1.55 1.3 -1.6 1.3 -1.65 1.3 -1.65 1.3 -1.65 1.45 -1.65 1.45 -1.6 1.45 -1.5 1.45 -1.5 1.45 -1.4 1.45 -1.4 1.5 -1.8 1.5 -1.4 1.5 -1.8 1.5 -1.85 1.2 -1.85 1.25 -1.9 1.3 -1.95 1.35 -2.05 1.35 -2.05 1.45 Q-2.15 1.4 -2.25 1.45 L-2.3 1.5 -2.35 1.5 -2.75 1.55 -2.8 1.55 Q-2.8 1.45 -2.85 1.45 L-2.9 1.5 -2.9 1.45 -2.95 1.45 -2.95 1.45 -2.75 1.3 -2.75 1.3 -2.7 1.25 -2.65 1.25 -2.6 1.25 -2.65 1.15 -2.7 1.15 -2.65 1.15 Q-2.6 1.1 -2.45 0.8 L-2.45 0.8 -2.4 0.8 -2.4 0.75 -2.35 0.75 -2.35 0.75 -2.3 0.65 -2.25 0.55 -2.1 0.35 -2.1 0.4 -2.05 0.5 -2.0 0.65 Q-1.9 0.6 -1.9 0.5 L-1.9 0.2 -1.9 0.2 -1.9 0.1 -1.85 -0.15 -1.85 -0.2 -1.85 -0.5 -1.75 -0.55 M-0.1 0.5 L-0.15 0.6 -0.15 0.65 -0.15 0.7 0.0 0.75 Q0.05 0.75 0.05 0.6 L0.0 0.5 -0.1 0.5 M-0.3 0.2 L-0.3 0.45 -0.3 0.45 -0.25 0.45 Q-0.2 0.45 -0.2 0.45 L-0.2 0.3 -0.25 0.25 -0.3 0.2 M-0.4 0.15 L-0.4 0.2 -0.45 0.25 -0.45 0.3 -0.4 0.35 -0.4 0.3 -0.35 0.3 -0.4 0.2 -0.4 0.15 M-0.1 0.15 L-0.05 0.1 -0.05 0.1 -0.1 0.05 -0.1 0.05 -0.15 0.05 -0.15 0.1 -0.1 0.15 -0.1 0.15 M-0.25 -0.05 L-0.3 -0.05 -0.35 -0.1 -0.35 -0.05 -0.3 0.05 -0.3 0.05 Q-0.25 0.05 -0.25 -0.05 L-0.25 -0.05 M-0.9 0.5 L-0.9 0.4 -0.9 0.35 -0.85 0.4 -0.8 0.4 -0.75 0.5 -0.7 0.55 -0.75 0.6 -0.8 0.65 -0.85 0.6 -0.9 0.5 M-1.35 0.85 L-1.35 0.85 -1.3 0.9 -1.25 0.9 -1.25 0.9 Q-1.25 1.0 -1.3 1.0 L-1.35 0.95 -1.35 0.85 M-1.3 1.15 Q-1.25 1.15 -1.25 1.2 L-1.2 1.2 -1.2 1.3 -1.25 1.35 -1.3 1.4 -1.35 1.45 -1.45 1.4 -1.45 1.4 -1.4 1.25 -1.35 1.3 -1.3 1.3 -1.3 1.2 -1.3 1.15 M-1.8 1.5 L-1.8 1.5 M-2.4 0.9 L-2.4 0.9 -2.45 0.95 -2.45 1.0 -2.4 1.05 -2.4 1.05 -2.35 1.0 -2.35 0.95 -2.4 0.9" fill="#25201d" fill-rule="evenodd" stroke="none"/>
    <path d="M-1.0 -0.6 L-0.95 -0.6 -0.7 -0.6 -0.4 -0.6 -0.4 -0.55 -0.45 -0.55 -0.5 -0.45 -0.4 -0.4 -0.4 -0.3 -0.45 -0.15 Q-0.45 -0.1 -0.5 -0.15 L-0.6 -0.2 -0.6 -0.25 -0.65 -0.25 Q-0.65 -0.15 -0.6 -0.15 L-0.65 -0.05 -0.6 0.0 -0.6 0.05 -0.55 0.05 -0.55 0.2 -0.5 0.25 Q-0.5 0.3 -0.5 0.3 L-0.5 0.5 Q-0.5 0.75 -0.45 0.7 L-0.45 0.8 -0.35 0.8 Q-0.3 0.85 -0.3 1.0 L-0.25 0.95 -0.2 1.0 -0.2 1.0 -0.3 1.05 Q-0.35 1.1 -0.35 1.15 L-0.55 1.25 -0.65 1.35 -0.7 1.4 -0.95 1.45 -0.95 1.45 -1.3 1.5 -1.35 1.5 -1.4 1.5 -1.4 1.45 -1.5 1.45 -1.5 1.45 -1.6 1.45 -1.65 1.45 -1.65 1.45 -1.65 1.3 -1.65 1.3 -1.6 1.3 -1.55 1.3 -1.5 1.25 -1.5 1.25 -1.45 1.25 -1.4 1.2 -1.4 1.1 -1.45 1.1 -1.55 1.1 -1.55 1.0 -1.65 0.95 -1.75 0.8 -1.7 0.7 -1.7 0.7 -1.75 0.65 -1.8 0.55 -1.8 0.4 -1.75 0.25 -1.75 0.1 -1.75 0.0 -1.75 -0.15 Q-1.65 -0.15 -1.55 -0.3 L-1.3 -0.5 -1.3 -0.45 -1.2 -0.4 Q-1.1 -0.4 -1.1 -0.55 L-1.1 -0.55 Q-1.0 -0.55 -1.0 -0.6 M0.65 1.35 L0.7 1.3 0.75 1.25 0.85 1.25 0.9 1.25 1.1 1.25 1.4 1.3 1.55 1.25 1.55 1.15 1.6 1.15 1.65 1.25 1.7 1.3 1.75 1.3 1.95 1.3 1.95 1.4 1.95 1.45 1.45 1.4 0.65 1.35 M2.25 1.3 L2.25 1.15 2.2 1.0 2.25 1.0 Q2.35 1.15 2.4 1.35 L2.4 1.4 2.2 1.45 2.25 1.3 M-2.7 1.15 L-2.65 1.15 -2.6 1.25 -2.65 1.25 -2.7 1.25 -2.75 1.3 -2.75 1.3 -2.7 1.15 M-0.25 -0.05 L-0.25 -0.05 Q-0.25 0.05 -0.3 0.05 L-0.3 0.05 -0.35 -0.05 -0.35 -0.1 -0.3 -0.05 -0.25 -0.05 M-0.1 0.15 L-0.1 0.15 -0.15 0.1 -0.15 0.05 -0.1 0.05 -0.1 0.05 -0.05 0.1 -0.05 0.1 -0.1 0.15 M-0.4 0.15 L-0.4 0.2 -0.35 0.3 -0.4 0.3 -0.4 0.35 -0.45 0.3 -0.45 0.25 -0.4 0.2 -0.4 0.15 M-0.3 0.2 L-0.25 0.25 -0.2 0.3 -0.2 0.45 Q-0.2 0.45 -0.25 0.45 L-0.3 0.45 -0.3 0.45 -0.3 0.2 M-0.1 0.5 L0.0 0.5 0.05 0.6 Q0.05 0.75 0.0 0.75 L-0.15 0.7 -0.15 0.65 -0.15 0.6 -0.1 0.5 M-1.3 1.15 L-1.3 1.2 -1.3 1.3 -1.35 1.3 -1.4 1.25 -1.45 1.4 -1.45 1.4 -1.35 1.45 -1.3 1.4 -1.25 1.35 -1.2 1.3 -1.2 1.2 -1.25 1.2 Q-1.25 1.15 -1.3 1.15 M-1.35 0.85 L-1.35 0.95 -1.3 1.0 Q-1.25 1.0 -1.25 0.9 L-1.25 0.9 -1.3 0.9 -1.35 0.85 -1.35 0.85 M-0.9 0.5 L-0.85 0.6 -0.8 0.65 -0.75 0.6 -0.7 0.55 -0.75 0.5 -0.8 0.4 -0.85 0.4 -0.9 0.35 -0.9 0.4 -0.9 0.5 M-2.4 0.9 L-2.35 0.95 -2.35 1.0 -2.4 1.05 -2.4 1.05 -2.45 1.0 -2.45 0.95 -2.4 0.9 -2.4 0.9 M1.45 1.4 L1.95 1.4 1.45 1.4" fill="#34342e" fill-rule="evenodd" stroke="none"/>
    <path d="M0.7 -0.35 L0.75 -0.35 0.75 -0.35 0.7 -0.35 M-2.25 0.55 L-2.3 0.65 -2.35 0.75 -2.35 0.75 -2.4 0.75 -2.4 0.8 -2.4 0.8 -2.3 0.6 -2.25 0.55 M-2.95 1.45 L-2.95 1.45 -2.9 1.45 -2.9 1.5 -2.85 1.45 Q-2.8 1.45 -2.8 1.55 L-2.75 1.55 -3.05 1.55 -2.95 1.45" fill="#2b3536" fill-rule="evenodd" stroke="none"/>
    <path d="M1.95 1.3 L2.0 1.3 2.05 1.3 2.05 1.2 2.15 1.2 2.15 1.3 2.2 1.3 2.25 1.3 2.2 1.45 1.95 1.45 1.95 1.4 1.95 1.3 M-1.9 0.2 L-1.9 0.5 Q-1.9 0.6 -2.0 0.65 L-2.05 0.5 -2.1 0.4 -2.1 0.35 -2.1 0.35 -1.9 0.2 M-2.35 1.5 L-2.3 1.5 -2.25 1.45 Q-2.15 1.4 -2.05 1.45 L-2.05 1.35 -1.95 1.35 -1.9 1.3 -1.85 1.25 -1.85 1.2 -1.8 1.5 -1.8 1.5 -2.35 1.5 -1.8 1.5 -2.35 1.5 M1.95 1.4 L2.2 1.45 1.95 1.4" fill="#64635f" fill-rule="evenodd" stroke="none"/>
    <path d="M0.75 -0.35 L0.75 -0.4 0.8 -0.5 0.9 -0.45 0.85 -0.3 0.85 -0.3 0.75 -0.35 0.75 -0.35 M1.2 -0.1 L1.2 -0.15 1.25 -0.15 1.25 -0.15 1.3 -0.05 1.3 -0.05 1.25 0.05 1.2 0.1 Q1.15 0.1 1.15 0.0 L1.15 -0.05 1.15 -0.05 1.2 -0.1 1.2 -0.1" fill="#cbc2be" fill-rule="evenodd" stroke="none"/>
    <path d="M0.65 -0.35 L0.65 -0.35 0.7 -0.35 0.75 -0.35 0.7 -0.15 0.75 -0.1 0.8 -0.1 0.75 -0.05 0.7 -0.05 0.65 -0.05 0.65 -0.1 0.65 -0.35 M1.3 -0.05 L1.3 0.0 1.3 -0.05 M1.25 0.05 L1.3 0.0 1.35 0.05 1.25 0.05" fill="#283131" fill-rule="evenodd" stroke="none"/>
    <path d="M0.8 -0.5 L0.85 -0.55 0.9 -0.6 0.9 -0.45 0.8 -0.5 M1.0 -0.25 L1.0 -0.4 1.0 -0.4 1.05 -0.35 1.1 -0.35 1.1 -0.25 1.1 -0.15 1.1 -0.1 1.05 -0.15 1.0 -0.15 1.0 -0.25 M0.95 -0.55 L0.95 -0.55 1.05 -0.55 1.1 -0.55 1.2 -0.45 1.25 -0.45 1.2 -0.4 1.15 -0.4 1.05 -0.45 1.05 -0.45 Q1.0 -0.45 0.95 -0.55 M1.25 -0.15 L1.25 -0.25 1.3 -0.3 1.3 -0.25 1.35 -0.2 1.3 -0.05 1.3 0.0 1.25 0.05 1.25 0.2 1.1 0.15 1.0 0.15 0.95 0.05 0.9 -0.1 0.95 -0.1 1.0 -0.05 1.15 -0.05 1.15 0.0 Q1.15 0.1 1.2 0.1 L1.25 0.05 1.3 -0.05 1.3 -0.05 1.25 -0.15 1.25 -0.15 M0.85 -0.3 L0.85 -0.2 0.8 -0.15 0.85 -0.15 0.85 -0.1 0.8 -0.1 0.75 -0.1 0.7 -0.15 0.75 -0.35 0.85 -0.3" fill="#98918e" fill-rule="evenodd" stroke="none"/>
    <path d="M1.0 0.15 L1.1 0.15 1.25 0.2 1.25 0.05 1.35 0.05 1.3 0.15 1.3 0.25 1.15 0.35 Q1.05 0.3 1.0 0.25 L1.0 0.15" fill="#222a2a" fill-rule="evenodd" stroke="none"/>
    <path d="M0.25 -1.0 L0.05 -0.95 -0.35 -1.0 -0.5 -1.05 -0.65 -1.1 -0.75 -1.1 -1.0 -1.05 Q-1.45 -1.0 -1.75 -0.6 L-1.85 -0.5 -1.85 -0.2 -2.45 0.55 -2.55 0.6 -2.95 1.0 -3.05 1.1 -3.25 1.5 -3.05 1.55 -2.75 1.55 -2.35 1.5 -1.8 1.5 -1.4 1.5 -1.35 1.5 -1.3 1.5 -0.95 1.45 -0.95 1.45 0.0 1.4 0.65 1.35 1.45 1.4 1.95 1.4 2.2 1.45 2.4 1.4 2.5 1.35 2.5 1.25 2.35 0.8 2.15 0.45 Q1.95 0.1 1.65 -0.2 L1.6 -0.2 Q1.2 -0.6 0.6 -0.85 L0.25 -1.0 Z" fill="none" stroke="#000000" stroke-linecap="round" stroke-linejoin="round" stroke-opacity="0.4509804" stroke-width="0.1"/>
  </g>
</svg>
