<?xml version="1.0" encoding="UTF-8" standalone="no"?>
<svg xmlns:xlink="http://www.w3.org/1999/xlink" height="2.75px" width="5.0px" xmlns="http://www.w3.org/2000/svg">
  <g transform="matrix(1.0, 0.0, 0.0, 1.0, 2.7, 1.4)">
    <path d="M-1.2 -1.25 L-1.1 -1.25 -0.95 -1.25 -0.65 -1.3 -0.5 -1.3 -0.35 -1.3 -0.2 -1.3 -0.05 -1.3 0.1 -1.3 0.2 -1.3 0.3 -1.3 0.45 -1.3 0.55 -1.3 0.7 -1.3 0.9 -1.25 1.0 -1.25 1.2 -1.15 1.25 -1.1 1.25 -0.9 1.25 -0.7 1.3 -0.55 1.3 -0.5 1.25 -0.35 1.25 -0.35 1.25 -0.35 1.15 -0.25 1.15 -0.25 1.1 -0.55 1.05 -0.8 1.05 -0.9 0.95 -0.95 0.65 -0.9 0.5 -0.9 0.3 -0.85 0.15 -0.8 0.0 -0.8 -0.05 -0.8 -0.1 -0.8 -0.15 -0.8 -0.15 -0.75 -0.15 -0.4 -0.1 -0.05 -0.15 0.2 -0.15 0.35 -0.2 0.35 -0.2 0.35 -0.25 0.35 -0.3 0.35 -0.35 0.35 -0.4 0.4 -0.4 0.4 -0.45 0.45 -0.45 0.45 -0.5 0.45 Q-0.5 0.4 -0.55 0.4 -0.6 0.4 -0.6 0.45 L-0.6 0.45 -0.65 0.45 -0.7 0.45 -0.8 0.45 -0.85 0.45 -0.9 0.45 Q-1.0 0.4 -1.0 0.4 L-1.05 0.4 -1.05 0.35 -0.95 0.25 -0.9 0.15 -0.9 0.05 -0.85 0.0 -0.85 -0.1 -0.85 -0.25 -0.8 -0.4 Q-0.75 -0.45 -0.75 -0.5 L-0.8 -0.65 -0.8 -0.8 -0.75 -0.8 -0.6 -0.8 -0.3 -0.8 -0.45 -0.8 -0.6 -0.85 -0.75 -0.85 -0.75 -0.85 Q-0.75 -0.95 -0.85 -0.95 L-1.0 -0.95 -1.05 -1.0 -1.1 -1.05 -1.2 -1.05 -1.2 -1.15 -1.15 -1.2 -1.2 -1.25" fill="#4e4c57" fill-rule="evenodd" stroke="none"/>
    <path d="M-1.2 -1.25 L-1.15 -1.2 -1.2 -1.15 -1.2 -1.05 -1.1 -1.05 -1.05 -1.0 -1.0 -0.95 -0.85 -0.95 Q-0.75 -0.95 -0.75 -0.85 L-0.75 -0.85 -0.6 -0.85 -0.45 -0.8 -0.3 -0.8 -0.6 -0.8 -0.75 -0.8 -0.8 -0.8 -0.8 -0.65 -0.75 -0.5 Q-0.75 -0.45 -0.8 -0.4 L-0.85 -0.25 -0.85 -0.1 -0.85 0.0 -0.9 0.05 -0.9 0.15 -0.95 0.25 -1.05 0.35 -1.05 0.4 -1.05 0.4 -1.15 0.35 -1.2 0.35 -1.3 0.25 -1.35 0.2 -1.45 0.15 -1.5 0.05 -1.5 0.05 -1.5 -0.6 Q-1.5 -0.7 -1.55 -0.8 L-1.6 -1.0 -1.5 -0.95 -1.4 -0.95 -1.3 -0.95 -1.3 -1.15 -1.35 -1.2 -1.3 -1.2 -1.2 -1.25" fill="#3a3230" fill-rule="evenodd" stroke="none"/>
    <path d="M-1.65 -0.1 L-1.8 -0.9 -1.75 -1.0 -1.6 -1.1 -1.45 -1.15 -1.35 -1.2 -1.3 -1.15 -1.3 -0.95 -1.4 -0.95 -1.5 -0.95 -1.6 -1.0 -1.55 -0.8 Q-1.5 -0.7 -1.5 -0.6 L-1.5 0.05 -1.55 -0.05 -1.6 -0.15 -1.65 -0.1 -1.65 -0.1" fill="#504d54" fill-rule="evenodd" stroke="none"/>
    <path d="M0.45 1.2 L0.3 1.2 0.0 1.25 -1.0 1.25 -1.45 1.25 -1.45 1.25 -1.4 1.2 -1.3 1.2 -1.3 1.15 -1.2 1.1 -1.15 1.05 -1.1 1.05 -1.1 1.0 Q-1.1 0.95 -1.1 0.9 L-1.2 0.85 -1.35 0.85 -1.4 0.85 -1.5 0.8 -1.5 0.85 -1.55 0.85 -1.55 0.9 -1.6 0.9 -1.6 0.9 -1.65 0.95 -1.65 1.0 -1.7 1.0 -1.75 1.0 -1.8 1.05 -1.9 1.1 -1.95 1.15 -2.55 1.0 Q-2.65 0.9 -2.65 0.85 -2.65 0.75 -2.55 0.75 L-2.4 0.65 -2.1 0.6 -1.75 0.5 -1.6 0.45 -1.6 0.55 Q-1.6 0.7 -1.5 0.7 L-1.35 0.75 -1.25 0.75 -1.2 0.8 -1.15 0.8 -1.15 0.85 -1.05 0.85 -1.0 0.9 -0.75 0.9 -0.65 0.9 -0.55 0.9 -0.5 0.85 -0.45 0.85 -0.35 0.8 -0.35 0.8 -0.35 0.85 -0.3 0.85 -0.1 0.95 0.05 0.95 0.1 0.95 0.15 0.95 0.25 0.95 0.3 0.95 0.35 0.9 0.35 1.0 0.35 1.1 0.4 1.1 0.45 1.15 0.45 1.2 M-0.35 0.8 L-0.35 0.8" fill="#3d3331" fill-rule="evenodd" stroke="none"/>
    <path d="M-0.9 0.45 L-0.85 0.45 -0.8 0.45 -0.7 0.45 -0.65 0.45 -0.6 0.45 -0.65 0.5 -0.6 0.55 -0.6 0.6 -0.7 0.7 -0.75 0.65 -0.8 0.65 -0.9 0.6 -0.9 0.55 -0.95 0.5 -0.9 0.45 -0.9 0.45 M-0.3 0.35 L-0.25 0.35 -0.2 0.35 -0.2 0.35 -0.15 0.35 0.0 0.3 0.2 0.2 0.45 0.15 0.65 0.05 0.75 0.0 0.75 0.05 Q0.75 0.1 0.45 0.25 L0.1 0.35 0.1 0.4 0.2 0.4 0.15 0.4 0.05 0.45 -0.05 0.5 -0.15 0.5 0.15 0.5 0.2 0.5 0.6 0.6 0.75 0.65 0.9 0.65 0.8 0.65 0.7 0.65 0.3 0.65 0.0 0.6 -0.05 0.6 Q0.05 0.65 0.25 0.7 L0.55 0.75 0.45 0.8 0.25 0.8 Q0.15 0.8 0.15 0.85 L0.1 0.95 0.05 0.95 -0.1 0.95 -0.3 0.85 -0.35 0.85 -0.35 0.8 -0.35 0.8 -0.3 0.75 -0.3 0.75 -0.25 0.7 -0.3 0.6 -0.35 0.55 -0.35 0.45 -0.3 0.35 M-1.6 0.4 L-1.65 0.2 -1.65 0.2 -1.55 0.2 -1.55 0.25 -1.45 0.3 -1.35 0.4 Q-1.3 0.4 -1.25 0.45 L-1.25 0.4 -1.5 0.15 -1.65 -0.05 -1.65 -0.1 -1.65 -0.1 -1.6 -0.15 -1.55 -0.05 -1.5 0.05 -1.5 0.05 -1.45 0.15 -1.35 0.2 -1.3 0.25 -1.2 0.35 -1.15 0.35 -1.2 0.45 -1.25 0.5 -1.2 0.55 -1.2 0.55 -1.25 0.6 -1.3 0.6 -1.35 0.6 -1.4 0.6 -1.45 0.6 -1.5 0.55 -1.5 0.5 -1.55 0.45 Q-1.55 0.45 -1.6 0.4 M0.3 0.4 L0.4 0.4 0.6 0.3 0.65 0.3 0.7 0.3 0.8 0.25 0.85 0.25 0.9 0.25 0.85 0.35 0.8 0.4 0.9 0.4 1.0 0.4 1.05 0.35 1.1 0.3 1.15 0.25 1.2 0.3 1.25 0.3 1.3 0.3 1.3 0.4 1.25 0.55 1.2 0.55 1.15 0.55 1.15 0.5 1.05 0.5 0.95 0.5 0.65 0.5 0.6 0.5 0.3 0.4" fill="#85783b" fill-rule="evenodd" stroke="none"/>
    <path d="M-1.65 0.2 L-1.65 -0.05 -1.5 0.15 -1.25 0.4 -1.25 0.45 Q-1.3 0.4 -1.35 0.4 L-1.45 0.3 -1.55 0.25 -1.55 0.2 -1.65 0.2 M0.3 0.4 L0.6 0.5 0.35 0.5 0.2 0.5 0.15 0.5 -0.15 0.5 -0.05 0.5 0.05 0.45 0.15 0.4 0.2 0.4 0.3 0.4" fill="#b6a450" fill-rule="evenodd" stroke="none"/>
    <path d="M-0.45 0.45 L-0.45 0.45 -0.4 0.4 -0.4 0.4 -0.35 0.35 -0.3 0.35 -0.35 0.45 -0.35 0.55 -0.3 0.6 -0.25 0.7 -0.3 0.75 -0.3 0.75 -0.35 0.8 -0.35 0.8 -0.35 0.8 -0.35 0.8 -0.35 0.7 -0.4 0.6 -0.45 0.55 -0.45 0.45 M1.15 -0.25 L1.15 -0.25 1.25 -0.35 1.25 -0.35 1.3 -0.3 1.3 -0.05 1.3 0.3 1.25 0.3 1.2 0.3 1.15 0.25 1.1 0.3 1.05 0.35 1.0 0.4 0.9 0.4 0.8 0.4 0.85 0.35 0.9 0.25 0.85 0.25 0.8 0.25 0.7 0.3 0.65 0.3 0.6 0.3 0.4 0.4 0.3 0.4 0.2 0.4 0.1 0.4 0.1 0.35 0.45 0.25 Q0.75 0.1 0.75 0.05 L0.75 0.0 0.8 -0.05 0.95 -0.15 1.15 -0.25 M-1.6 0.45 L-1.6 0.4 Q-1.55 0.45 -1.55 0.45 L-1.5 0.5 -1.5 0.55 -1.45 0.6 -1.4 0.6 -1.35 0.6 -1.3 0.6 -1.25 0.6 -1.2 0.55 -1.2 0.55 -1.25 0.5 -1.2 0.45 -1.15 0.35 -1.05 0.4 -1.05 0.4 -1.05 0.45 -1.1 0.45 -1.1 0.5 -1.15 0.55 -1.15 0.65 -1.2 0.7 -1.2 0.75 -1.25 0.75 -1.35 0.75 -1.5 0.7 Q-1.6 0.7 -1.6 0.55 L-1.6 0.45 M0.6 0.5 L0.65 0.5 0.95 0.5 1.05 0.5 1.15 0.5 1.15 0.55 1.2 0.55 1.25 0.55 1.25 0.7 1.1 0.7 1.0 0.7 0.95 0.7 0.8 0.8 0.75 0.8 0.7 0.8 0.6 0.85 0.5 0.9 0.4 0.9 0.35 0.9 0.3 0.95 0.25 0.95 0.15 0.95 0.1 0.95 0.15 0.85 Q0.15 0.8 0.25 0.8 L0.45 0.8 0.55 0.75 0.25 0.7 Q0.05 0.65 -0.05 0.6 L0.0 0.6 0.3 0.65 0.7 0.65 0.8 0.65 0.9 0.65 0.75 0.65 0.6 0.6 0.2 0.5 0.35 0.5 0.6 0.5 M-1.0 0.7 L-0.95 0.65 -0.95 0.6 -1.0 0.55 -0.95 0.5 -0.9 0.55 -0.9 0.6 -0.8 0.65 -0.75 0.65 -0.7 0.7 -0.6 0.6 -0.6 0.65 -0.6 0.75 -0.7 0.75 -0.85 0.8 -0.95 0.75 -1.0 0.7 -1.0 0.7" fill="#6d6330" fill-rule="evenodd" stroke="none"/>
    <path d="M-1.05 0.4 L-1.0 0.4 Q-1.0 0.4 -0.9 0.45 L-0.9 0.45 -0.95 0.5 -1.0 0.55 -0.95 0.6 -0.95 0.65 -1.0 0.7 -1.0 0.7 -1.05 0.75 -1.05 0.85 -1.05 0.85 -1.15 0.85 -1.15 0.8 -1.2 0.8 -1.25 0.75 -1.2 0.75 -1.2 0.7 -1.15 0.65 -1.15 0.55 -1.1 0.5 -1.1 0.45 -1.05 0.45 -1.05 0.4 M-0.6 0.45 L-0.6 0.45 Q-0.6 0.4 -0.55 0.4 -0.5 0.4 -0.5 0.45 L-0.45 0.45 -0.45 0.55 -0.4 0.6 -0.35 0.7 -0.35 0.8 -0.35 0.8 -0.35 0.8 -0.45 0.85 -0.5 0.85 -0.45 0.8 -0.5 0.8 -0.55 0.8 -0.6 0.8 -0.6 0.75 -0.6 0.65 -0.6 0.6 -0.6 0.55 -0.65 0.5 -0.6 0.45" fill="#ffffff" fill-rule="evenodd" stroke="none"/>
    <path d="M-0.5 0.85 L-0.55 0.9 -0.65 0.9 -0.75 0.9 -1.0 0.9 -1.05 0.85 -1.05 0.85 -1.05 0.75 -1.0 0.7 -1.0 0.7 -1.0 0.7 -0.95 0.75 -0.85 0.8 -0.7 0.75 -0.6 0.75 -0.6 0.8 -0.55 0.8 -0.5 0.8 -0.45 0.8 -0.5 0.85" fill="#bdb7b4" fill-rule="evenodd" stroke="none"/>
    <path d="M-1.45 1.25 L-1.95 1.15 -1.95 1.15 -1.9 1.1 -1.8 1.05 -1.75 1.0 -1.7 1.0 -1.65 1.0 -1.65 0.95 -1.6 0.9 -1.6 0.9 -1.55 0.9 -1.55 0.85 -1.5 0.85 -1.5 0.8 -1.4 0.85 -1.35 0.85 -1.2 0.85 -1.1 0.9 Q-1.1 0.95 -1.1 1.0 L-1.1 1.05 -1.15 1.05 -1.2 1.1 -1.3 1.15 -1.3 1.2 -1.4 1.2 -1.45 1.25" fill="#48474f" fill-rule="evenodd" stroke="none"/>
    <path d="M-0.15 0.35 L-0.15 0.2 -0.1 -0.05 -0.15 -0.4 -0.15 -0.75 -0.15 -0.8 -0.1 -0.8 -0.05 -0.8 0.0 -0.8 0.15 -0.8 0.3 -0.85 0.5 -0.9 0.65 -0.9 0.95 -0.95 1.05 -0.9 1.05 -0.8 1.1 -0.55 1.15 -0.25 0.95 -0.15 0.8 -0.05 0.75 0.0 0.65 0.05 0.45 0.15 0.2 0.2 0.0 0.3 -0.15 0.35" fill="#37343f" fill-rule="evenodd" stroke="none"/>
    <path d="M1.3 0.3 L1.55 0.4 1.6 0.4 1.75 0.4 1.9 0.45 Q2.0 0.45 2.1 0.55 L2.2 0.6 2.25 0.65 Q2.25 0.75 2.1 0.9 L1.65 1.05 1.5 1.1 1.4 1.1 1.3 1.1 1.15 1.15 1.1 1.15 1.05 1.1 1.0 1.05 0.95 0.95 0.9 0.95 0.85 0.9 0.8 0.8 0.95 0.7 1.0 0.7 1.1 0.7 1.25 0.7 1.25 0.55 1.3 0.4 1.3 0.3" fill="#3b3130" fill-rule="evenodd" stroke="none"/>
    <path d="M1.1 1.15 L1.05 1.15 0.9 1.15 0.65 1.15 0.45 1.2 0.45 1.15 0.4 1.1 0.35 1.1 0.35 1.0 0.35 0.9 0.4 0.9 0.5 0.9 0.6 0.85 0.7 0.8 0.75 0.8 0.8 0.8 0.85 0.9 0.9 0.95 0.95 0.95 1.0 1.05 1.05 1.1 1.1 1.15" fill="#4c4b53" fill-rule="evenodd" stroke="none"/>
    <path d="M1.25 -0.35 L1.25 -0.35 1.3 -0.5 1.3 -0.55 1.25 -0.7 1.25 -0.9 1.25 -1.1 1.2 -1.15 1.0 -1.25 0.9 -1.25 0.7 -1.3 0.55 -1.3 0.45 -1.3 0.3 -1.3 0.2 -1.3 0.1 -1.3 -0.05 -1.3 -0.2 -1.3 -0.35 -1.3 -0.5 -1.3 -0.65 -1.3 -0.95 -1.25 -1.1 -1.25 -1.2 -1.25 -1.3 -1.2 -1.35 -1.2 -1.45 -1.15 -1.6 -1.1 -1.75 -1.0 -1.8 -0.9 -1.65 -0.1 -1.65 -0.05 -1.65 0.2 -1.65 0.2 -1.6 0.4 -1.6 0.45 -1.75 0.5 -2.1 0.6 -2.4 0.65 -2.55 0.75 Q-2.65 0.75 -2.65 0.85 -2.65 0.9 -2.55 1.0 L-1.95 1.15 -1.95 1.15 -1.45 1.25 -1.45 1.25 -1.0 1.25 0.0 1.25 0.3 1.2 0.45 1.2 0.65 1.15 0.9 1.15 1.05 1.15 1.1 1.15 1.15 1.15 1.3 1.1 1.4 1.1 1.5 1.1 1.65 1.05 2.1 0.9 Q2.25 0.75 2.25 0.65 L2.2 0.6 2.1 0.55 Q2.0 0.45 1.9 0.45 L1.75 0.4 1.6 0.4 1.55 0.4 1.3 0.3 1.3 -0.05 1.3 -0.3 1.25 -0.35 Z" fill="none" stroke="#000000" stroke-linecap="round" stroke-linejoin="round" stroke-opacity="0.4509804" stroke-width="0.1"/>
  </g>
</svg>
