<?xml version="1.0" encoding="UTF-8" standalone="no"?>
<svg xmlns:xlink="http://www.w3.org/1999/xlink" height="4.9px" width="7.6px" xmlns="http://www.w3.org/2000/svg">
  <g transform="matrix(1.0, 0.0, 0.0, 1.0, 4.1, 2.7)">
    <path d="M0.05 -2.3 L0.1 -2.25 0.05 -2.15 -0.25 -2.15 -0.25 -2.2 -0.3 -2.25 -0.1 -2.25 Q0.0 -2.25 0.05 -2.3 M0.45 -1.65 Q0.65 -1.6 0.65 -1.55 L0.65 -1.5 0.3 -1.6 0.2 -1.55 0.05 -1.6 -0.05 -1.55 -0.15 -1.6 -0.15 -1.65 0.25 -1.65 0.3 -1.65 0.4 -1.65 0.45 -1.65 M0.6 -1.2 L0.6 -1.05 0.35 -1.05 0.6 -0.95 0.6 -0.8 0.2 -0.85 0.05 -0.85 -0.05 -0.85 -0.1 -0.9 -0.2 -0.9 -0.2 -0.9 -0.35 -0.9 Q-0.5 -0.9 -0.5 -0.85 L-0.65 -0.85 -0.8 -0.85 -1.2 -0.8 -1.2 -0.95 -1.05 -1.0 -0.95 -1.05 -1.2 -1.05 -1.15 -1.2 -1.1 -1.25 -1.1 -1.2 -1.05 -1.2 Q-1.0 -1.2 -1.0 -1.3 L-0.95 -1.4 -0.95 -1.45 -0.9 -1.5 Q-0.9 -1.3 -0.9 -1.2 L-0.9 -1.2 Q-0.8 -1.2 -0.75 -1.3 L-0.75 -1.45 -0.7 -1.5 -0.7 -1.25 -0.7 -1.25 Q-0.6 -1.25 -0.6 -1.3 L-0.6 -1.45 -0.55 -1.5 -0.55 -1.25 -0.5 -1.25 Q-0.45 -1.25 -0.45 -1.45 L-0.45 -1.5 -0.4 -1.55 -0.3 -1.4 -0.2 -1.5 -0.15 -1.5 -0.15 -1.5 -0.15 -1.45 Q-0.15 -1.25 -0.1 -1.25 -0.05 -1.25 0.0 -1.3 L0.1 -1.25 0.15 -1.25 0.15 -1.3 Q0.2 -1.2 0.3 -1.2 L0.4 -1.3 Q0.4 -1.2 0.5 -1.2 L0.5 -1.2 0.55 -1.25 0.6 -1.2 M0.65 -0.7 L0.75 -0.7 0.85 -0.65 0.9 -0.5 0.95 -0.35 Q0.85 -0.35 0.8 -0.5 0.75 -0.6 0.65 -0.6 L0.6 -0.6 0.65 -0.7 M1.05 -0.2 Q1.05 -0.05 1.2 -0.1 L1.15 -0.1 1.15 -0.05 1.15 -0.05 1.15 -0.05 1.0 0.05 0.9 0.05 0.85 0.05 0.75 0.1 0.65 0.1 0.55 0.1 0.45 0.1 0.4 0.1 0.3 0.1 0.1 0.1 0.05 0.1 0.0 0.1 -0.25 0.1 -0.25 0.15 -0.3 0.1 -0.3 0.1 -0.35 0.1 -0.35 0.1 -0.4 0.1 -0.6 0.1 -0.65 0.1 -0.7 0.1 -0.75 0.1 -0.9 0.1 -0.9 0.1 -0.95 0.1 -1.0 0.1 -1.05 0.1 -1.05 0.1 -1.1 0.1 -1.1 0.1 -1.2 0.1 -1.35 0.1 -1.5 0.05 -1.55 0.05 -1.6 0.05 -1.65 0.0 -1.65 0.0 -1.7 0.0 -1.75 -0.05 -1.75 -0.05 -1.75 -0.1 Q-1.65 -0.05 -1.65 -0.2 -1.6 -0.1 -1.3 -0.05 L-1.25 -0.05 -1.15 -0.05 -1.1 -0.05 -1.05 -0.05 -0.95 0.0 -0.85 0.0 -0.8 0.0 -0.65 0.0 -0.55 0.0 -0.5 0.0 -0.4 0.0 -0.35 0.0 -0.35 -0.05 -0.25 0.0 -0.2 0.0 -0.15 0.0 -0.1 0.0 -0.05 0.0 0.05 0.0 0.1 0.0 0.2 0.0 0.25 0.0 0.35 0.0 0.4 -0.05 0.45 -0.05 0.5 -0.05 0.55 -0.05 0.65 -0.05 Q1.0 -0.05 1.05 -0.2 M-1.5 -0.35 L-1.45 -0.5 -1.45 -0.6 -1.15 -0.7 -1.0 -0.65 -0.9 -0.75 Q-0.8 -0.75 -0.8 -0.6 L-0.75 -0.5 -0.75 -0.4 -0.75 -0.4 -0.8 -0.35 -0.8 -0.45 -0.85 -0.5 -0.9 -0.6 -0.9 -0.6 -1.0 -0.55 -1.05 -0.55 -1.1 -0.5 -1.05 -0.35 -1.05 -0.35 -1.15 -0.3 -1.15 -0.4 Q-1.15 -0.6 -1.25 -0.6 L-1.35 -0.55 -1.4 -0.5 -1.4 -0.45 -1.5 -0.35 M-1.25 -1.55 Q-1.2 -1.6 -1.0 -1.65 L-1.0 -1.65 -0.85 -1.65 -0.8 -1.65 -0.45 -1.65 -0.45 -1.65 -0.4 -1.6 -0.55 -1.6 -0.7 -1.6 -1.0 -1.6 -1.25 -1.55 M-0.65 -2.15 L-0.65 -2.2 -0.7 -2.25 -0.7 -2.3 -0.55 -2.25 -0.35 -2.25 -0.35 -2.15 -0.65 -2.15 M0.6 -0.75 L0.55 -0.7 0.5 -0.65 0.4 -0.7 0.35 -0.65 0.3 -0.65 0.25 -0.65 0.15 -0.6 0.15 -0.55 0.05 -0.6 -0.05 -0.5 -0.15 -0.6 -0.25 -0.5 -0.3 -0.55 -0.35 -0.5 Q-0.35 -0.6 -0.45 -0.6 L-0.5 -0.55 -0.45 -0.45 -0.45 -0.4 -0.5 -0.35 -0.5 -0.3 -0.55 -0.5 Q-0.55 -0.6 -0.65 -0.6 L-0.75 -0.55 -0.7 -0.65 Q-0.7 -0.7 -0.65 -0.7 L-0.45 -0.7 -0.25 -0.65 -0.2 -0.65 -0.25 -0.7 -0.15 -0.7 -0.1 -0.75 -0.05 -0.8 0.1 -0.8 0.5 -0.8 0.6 -0.75 M0.5 -0.5 L0.55 -0.4 0.55 -0.3 Q0.5 -0.3 0.5 -0.35 L0.45 -0.35 0.5 -0.5 M0.2 -1.1 L0.2 -1.15 -0.15 -1.15 -0.2 -1.3 -0.25 -1.35 -0.35 -1.35 Q-0.4 -1.1 -0.6 -1.15 L-0.6 -1.1 -0.8 -1.1 -0.75 -0.95 -0.75 -0.95 -0.4 -0.95 -0.35 -0.95 -0.25 -0.95 -0.25 -0.95 -0.2 -0.95 0.15 -0.95 0.15 -0.95 0.25 -1.1 0.2 -1.1 M-0.3 -2.65 L-0.15 -2.4 -0.15 -2.3 -0.35 -2.3 -0.4 -2.3 -0.35 -2.35 -0.35 -2.4 -0.4 -2.35 -0.3 -2.65 M-1.75 -0.1 L-1.75 -0.1" fill="#6b5f59" fill-rule="evenodd" stroke="none"/>
    <path d="M-1.2 -0.95 L-1.2 -1.05 -0.95 -1.05 -1.05 -1.0 -1.2 -0.95 M-0.65 -2.3 L-0.6 -2.35 -0.55 -2.4 -0.5 -2.4 -0.3 -2.65 -0.05 -2.4 -0.05 -2.4 0.0 -2.35 0.05 -2.35 -0.15 -2.3 -0.15 -2.4 -0.3 -2.65 -0.4 -2.35 -0.35 -2.4 -0.35 -2.35 -0.4 -2.3 -0.65 -2.3 M-0.15 -2.1 Q-0.15 -1.9 -0.1 -1.85 L0.05 -1.85 0.1 -1.75 0.15 -1.8 0.15 -1.85 0.25 -1.65 -0.15 -1.65 -0.2 -1.7 Q-0.15 -1.75 -0.15 -1.85 L-0.15 -1.85 -0.2 -2.05 -0.15 -2.1 M0.6 -1.05 L0.6 -0.95 0.35 -1.05 0.6 -1.05 M0.2 -1.1 L0.25 -1.1 0.15 -0.95 -0.2 -0.95 -0.25 -0.95 -0.25 -0.95 -0.35 -0.95 -0.4 -0.95 -0.75 -0.95 -0.8 -1.1 -0.6 -1.1 0.2 -1.1 M-0.5 -2.05 L-0.45 -2.05 -0.4 -2.05 -0.4 -2.05 -0.45 -1.95 -0.45 -1.85 Q-0.5 -1.8 -0.45 -1.7 L-0.45 -1.65 -0.8 -1.65 -0.8 -1.75 -0.75 -1.8 -0.7 -1.7 -0.65 -1.7 -0.65 -1.8 -0.65 -1.8 Q-0.6 -1.8 -0.55 -1.95 L-0.5 -2.05" fill="#463e3a" fill-rule="evenodd" stroke="none"/>
    <path d="M0.05 -2.3 Q0.0 -2.25 -0.1 -2.25 L-0.3 -2.25 -0.25 -2.2 -0.25 -2.15 0.05 -2.15 0.05 -2.1 0.0 -2.1 -0.15 -2.1 -0.2 -2.05 -0.4 -2.05 -0.45 -2.05 -0.5 -2.05 -0.55 -2.1 -0.6 -2.1 -0.6 -2.1 -0.65 -2.15 -0.35 -2.15 -0.35 -2.25 -0.55 -2.25 -0.7 -2.3 -0.65 -2.3 -0.4 -2.3 -0.35 -2.3 -0.15 -2.3 0.05 -2.35 0.05 -2.3" fill="#9a8980" fill-rule="evenodd" stroke="none"/>
    <path d="M0.0 -2.1 L0.1 -1.85 0.05 -1.85 -0.1 -1.85 Q-0.15 -1.9 -0.15 -2.1 L0.0 -2.1 M-0.4 -2.05 L-0.2 -2.05 -0.15 -1.85 -0.15 -1.85 Q-0.15 -1.8 -0.2 -1.8 L-0.35 -1.8 -0.45 -1.85 -0.45 -1.95 -0.4 -2.05 -0.4 -2.05 M-0.65 -1.8 L-0.7 -1.85 Q-0.6 -2.0 -0.55 -2.1 L-0.5 -2.05 -0.55 -1.95 Q-0.6 -1.8 -0.65 -1.8 L-0.65 -1.8" fill="#2a2522" fill-rule="evenodd" stroke="none"/>
    <path d="M0.05 -2.1 L0.05 -2.1 0.1 -1.95 0.2 -1.85 0.3 -1.8 0.35 -1.75 0.4 -1.7 0.4 -1.7 0.45 -1.65 0.4 -1.65 0.3 -1.65 0.25 -1.65 0.15 -1.85 0.15 -1.8 0.1 -1.75 0.05 -1.85 0.1 -1.85 0.0 -2.1 0.05 -2.1 M-1.0 -1.65 L-1.0 -1.7 -0.95 -1.7 -0.95 -1.75 -0.9 -1.8 -0.8 -1.85 -0.7 -1.95 -0.6 -2.1 -0.6 -2.1 -0.55 -2.1 Q-0.6 -2.0 -0.7 -1.85 L-0.65 -1.8 -0.65 -1.7 -0.7 -1.7 -0.75 -1.8 -0.8 -1.75 -0.8 -1.65 -0.85 -1.65 -1.0 -1.65 -1.0 -1.65 M-0.45 -1.85 L-0.35 -1.8 -0.2 -1.8 Q-0.15 -1.8 -0.15 -1.85 -0.15 -1.75 -0.2 -1.7 L-0.3 -1.75 -0.4 -1.7 -0.45 -1.7 Q-0.5 -1.8 -0.45 -1.85" fill="#332d2a" fill-rule="evenodd" stroke="none"/>
    <path d="M0.6 -1.45 L0.55 -1.4 0.55 -1.3 0.6 -1.2 0.55 -1.25 0.5 -1.2 0.5 -1.2 Q0.4 -1.2 0.4 -1.3 L0.3 -1.2 Q0.2 -1.2 0.15 -1.3 L0.15 -1.25 0.1 -1.25 0.0 -1.3 Q-0.05 -1.25 -0.1 -1.25 -0.15 -1.25 -0.15 -1.45 L-0.15 -1.5 -0.1 -1.55 0.0 -1.45 0.05 -1.55 0.15 -1.45 0.15 -1.5 Q0.2 -1.55 0.25 -1.55 L0.4 -1.45 Q0.4 -1.55 0.45 -1.55 L0.5 -1.5 0.6 -1.45 M0.95 -0.35 L1.05 -0.25 Q1.0 -0.2 0.95 -0.2 L0.9 -0.2 Q0.8 -0.2 0.75 -0.3 L0.65 -0.45 0.65 -0.05 0.55 -0.05 0.55 -0.3 0.55 -0.4 Q0.55 -0.55 0.6 -0.6 L0.65 -0.6 Q0.75 -0.6 0.8 -0.5 0.85 -0.35 0.95 -0.35 M-1.6 -0.25 L-1.5 -0.35 -1.4 -0.45 -1.35 -0.3 -1.3 -0.4 -1.35 -0.55 -1.25 -0.6 Q-1.15 -0.6 -1.15 -0.4 L-1.15 -0.3 -1.15 -0.05 -1.25 -0.05 -1.25 -0.45 -1.35 -0.3 -1.4 -0.2 -1.5 -0.2 -1.55 -0.2 -1.6 -0.25 M-1.15 -1.2 L-1.15 -1.45 Q-1.15 -1.45 -1.1 -1.5 -1.1 -1.55 -1.05 -1.55 -1.0 -1.55 -0.95 -1.45 L-0.95 -1.4 -1.0 -1.3 Q-1.0 -1.2 -1.05 -1.2 L-1.1 -1.2 -1.1 -1.25 -1.15 -1.2 M-0.15 -1.6 L-0.15 -1.5 -0.2 -1.5 -0.3 -1.4 -0.4 -1.55 -0.4 -1.6 -0.45 -1.65 -0.45 -1.65 -0.45 -1.7 -0.4 -1.7 -0.3 -1.75 -0.2 -1.7 -0.15 -1.65 -0.15 -1.6 M0.15 -0.55 L0.15 -0.55 0.25 -0.45 Q0.25 -0.6 0.35 -0.6 L0.5 -0.5 0.45 -0.35 0.4 -0.4 Q0.35 -0.4 0.35 -0.25 L0.35 0.0 0.25 0.0 0.25 -0.35 0.1 -0.4 Q0.0 -0.4 0.05 0.0 L-0.05 0.0 -0.05 -0.25 -0.05 -0.3 -0.15 -0.4 Q-0.2 -0.4 -0.2 0.0 L-0.25 0.0 Q-0.3 -0.4 -0.25 -0.5 L-0.15 -0.6 -0.05 -0.5 0.05 -0.6 0.15 -0.55 M-0.6 -1.1 L-0.6 -1.15 Q-0.4 -1.1 -0.35 -1.35 L-0.25 -1.35 -0.2 -1.3 -0.15 -1.15 0.2 -1.15 0.2 -1.1 -0.6 -1.1 M-0.9 -1.5 L-0.85 -1.55 Q-0.8 -1.55 -0.75 -1.5 L-0.75 -1.45 -0.75 -1.3 Q-0.8 -1.2 -0.9 -1.2 L-0.9 -1.2 Q-0.9 -1.3 -0.9 -1.5 M-0.7 -1.5 L-0.65 -1.55 -0.6 -1.45 -0.6 -1.3 Q-0.6 -1.25 -0.7 -1.25 L-0.7 -1.25 -0.7 -1.5 M-0.55 -1.5 L-0.5 -1.55 -0.45 -1.5 -0.45 -1.45 Q-0.45 -1.25 -0.5 -1.25 L-0.55 -1.25 -0.55 -1.5 M-0.75 -0.55 L-0.65 -0.6 Q-0.55 -0.6 -0.55 -0.5 L-0.5 -0.3 -0.55 0.0 -0.65 0.0 -0.65 -0.05 Q-0.6 -0.4 -0.7 -0.4 L-0.75 -0.4 -0.75 -0.5 -0.75 -0.55 M-0.5 -0.35 L-0.45 -0.4 -0.45 -0.45 -0.5 -0.55 -0.45 -0.6 Q-0.35 -0.6 -0.35 -0.5 -0.3 -0.35 -0.35 -0.05 L-0.35 0.0 -0.4 0.0 Q-0.4 -0.4 -0.45 -0.4 L-0.5 -0.35 M-1.05 -0.55 L-1.05 -0.4 -0.9 -0.4 -0.9 -0.6 -0.85 -0.5 -0.8 -0.45 -0.8 -0.35 -0.8 -0.3 -0.85 0.0 -0.95 0.0 -0.9 -0.25 -0.9 -0.25 Q-0.9 -0.4 -1.0 -0.4 L-1.05 -0.35 -1.1 -0.5 -1.05 -0.55" fill="#83746c" fill-rule="evenodd" stroke="none"/>
    <path d="M0.65 -1.5 L0.6 -1.45 0.6 -1.45 0.5 -1.5 0.45 -1.55 Q0.4 -1.55 0.4 -1.45 L0.25 -1.55 Q0.2 -1.55 0.15 -1.5 L0.15 -1.45 0.05 -1.55 0.0 -1.45 -0.1 -1.55 -0.15 -1.5 -0.15 -1.6 -0.05 -1.55 0.05 -1.6 0.2 -1.55 0.3 -1.6 0.65 -1.5 M0.6 -0.75 L0.6 -0.75 0.65 -0.7 0.6 -0.6 Q0.55 -0.55 0.55 -0.4 L0.5 -0.5 0.35 -0.6 Q0.25 -0.6 0.25 -0.45 L0.15 -0.55 0.15 -0.55 0.15 -0.6 0.25 -0.65 0.3 -0.65 0.35 -0.65 0.4 -0.7 0.5 -0.65 0.55 -0.7 0.6 -0.75 0.6 -0.75 M-1.45 -0.6 L-1.4 -0.65 -1.35 -0.7 Q-1.3 -0.7 -1.2 -0.75 L-1.2 -0.75 -1.1 -0.8 -0.7 -0.8 -0.5 -0.8 -0.45 -0.75 -0.3 -0.7 -0.25 -0.7 -0.2 -0.65 -0.25 -0.65 -0.45 -0.7 -0.65 -0.7 Q-0.7 -0.7 -0.7 -0.65 L-0.75 -0.55 -0.75 -0.5 -0.8 -0.6 Q-0.8 -0.75 -0.9 -0.75 L-1.0 -0.65 -1.15 -0.7 -1.45 -0.6 M-1.15 -1.45 L-1.2 -1.45 Q-1.25 -1.5 -1.25 -1.55 L-1.25 -1.55 -1.0 -1.6 -0.7 -1.6 -0.55 -1.6 -0.4 -1.6 -0.4 -1.55 -0.45 -1.5 -0.5 -1.55 -0.55 -1.5 -0.6 -1.45 -0.65 -1.55 -0.7 -1.5 -0.75 -1.45 -0.75 -1.5 Q-0.8 -1.55 -0.85 -1.55 L-0.9 -1.5 -0.95 -1.45 Q-1.0 -1.55 -1.05 -1.55 -1.1 -1.55 -1.1 -1.5 -1.15 -1.45 -1.15 -1.45 M-0.15 -1.5 L-0.15 -1.5" fill="#564c47" fill-rule="evenodd" stroke="none"/>
    <path d="M0.6 -0.75 L0.6 -0.75 0.6 -0.75 0.5 -0.8 0.1 -0.8 -0.05 -0.8 -0.1 -0.75 -0.15 -0.7 -0.25 -0.7 -0.3 -0.7 -0.45 -0.75 -0.5 -0.8 -0.7 -0.8 -1.1 -0.8 -1.2 -0.75 -1.2 -0.8 -0.8 -0.85 -0.65 -0.85 -0.5 -0.85 Q-0.5 -0.9 -0.35 -0.9 L-0.2 -0.9 -0.2 -0.9 -0.1 -0.9 -0.05 -0.85 0.05 -0.85 0.2 -0.85 0.6 -0.8 0.6 -0.75 M1.05 -0.25 L1.05 -0.2 Q1.0 -0.05 0.65 -0.05 L0.65 -0.45 0.75 -0.3 Q0.8 -0.2 0.9 -0.2 L0.95 -0.2 Q1.0 -0.2 1.05 -0.25 M1.45 0.0 L1.55 0.05 1.65 0.05 1.6 0.1 Q1.8 0.2 2.2 0.35 2.6 0.5 2.75 0.6 L2.75 0.55 2.85 0.65 2.85 0.55 2.95 0.65 3.0 0.6 2.95 0.55 3.05 0.5 3.1 0.45 3.25 0.6 3.2 0.6 3.15 0.65 3.1 0.65 Q3.1 0.75 2.95 0.75 L3.0 0.9 2.9 0.9 2.8 0.75 2.5 0.85 2.1 0.9 2.05 0.9 2.05 1.0 2.0 0.9 1.5 0.95 1.4 0.95 1.35 0.9 1.3 0.85 1.4 0.9 1.85 0.8 1.75 0.65 1.55 0.5 1.4 0.45 Q1.35 0.45 1.35 0.5 L1.3 0.55 1.2 0.55 1.15 0.5 0.9 0.2 0.9 0.05 1.0 0.05 1.3 0.25 1.85 0.65 1.95 0.75 2.05 0.85 2.1 0.85 2.2 0.85 2.25 0.8 2.35 0.8 2.4 0.8 2.45 0.75 2.55 0.8 2.6 0.75 2.6 0.7 2.7 0.7 Q2.5 0.55 2.25 0.45 L1.65 0.15 1.65 0.25 Q1.65 0.35 1.7 0.4 L1.8 0.45 1.9 0.55 1.8 0.55 1.25 0.2 1.15 -0.05 1.5 0.1 1.45 0.0 M3.35 1.55 L3.4 1.65 3.4 1.75 3.35 1.85 Q3.25 1.8 3.25 1.7 3.25 1.6 3.3 1.55 L3.35 1.55 M2.7 1.6 L2.75 1.75 2.75 1.85 2.7 1.95 Q2.6 1.85 2.6 1.75 2.6 1.65 2.65 1.65 L2.7 1.6 M2.05 1.7 L2.1 1.8 2.1 1.9 2.05 2.0 Q1.95 1.95 1.95 1.85 1.95 1.75 2.0 1.7 L2.05 1.7 M1.4 1.7 L1.45 1.85 1.4 1.95 1.35 2.05 1.3 1.9 Q1.3 1.8 1.35 1.75 L1.4 1.7 M0.7 1.8 L0.75 1.95 0.75 2.0 0.7 2.15 Q0.65 2.05 0.65 1.95 0.65 1.85 0.65 1.8 L0.7 1.8 M0.0 1.8 L0.05 1.95 0.05 2.0 0.0 2.15 Q-0.05 2.05 -0.05 1.95 -0.05 1.85 -0.05 1.8 L0.0 1.8 0.0 1.8 M-0.55 1.8 Q-0.5 1.85 -0.5 1.95 -0.5 2.05 -0.6 2.15 L-0.65 2.0 -0.65 1.95 -0.6 1.8 -0.55 1.8 -0.55 1.8 M-1.25 1.8 Q-1.2 1.85 -1.2 1.95 -1.2 2.05 -1.3 2.15 L-1.35 2.0 -1.35 1.95 -1.3 1.8 -1.25 1.8 -1.25 1.8 M-1.9 1.75 Q-1.9 1.8 -1.9 1.9 -1.9 2.0 -1.95 2.05 L-2.0 1.95 -2.0 1.85 -1.95 1.7 -1.95 1.75 -1.9 1.75 M-2.6 1.7 L-2.55 1.85 Q-2.55 1.95 -2.6 2.0 L-2.65 1.9 -2.7 1.8 -2.65 1.7 -2.6 1.7 -2.6 1.7 M-3.25 1.65 Q-3.2 1.65 -3.2 1.75 -3.2 1.85 -3.3 1.95 L-3.35 1.85 -3.35 1.75 -3.3 1.6 -3.25 1.65 -3.25 1.65 M-3.9 1.55 L-3.85 1.7 Q-3.85 1.8 -3.95 1.85 L-4.0 1.75 -4.0 1.65 -3.95 1.55 -3.9 1.55 -3.9 1.55 M-2.6 0.15 L-2.15 0.05 -1.75 -0.1 -1.75 -0.05 -2.9 0.4 Q-3.4 0.6 -3.5 0.9 L-3.85 0.85 -3.7 0.65 -3.65 0.7 -3.6 0.7 Q-3.4 0.7 -3.25 0.45 L-3.3 0.4 -2.95 0.3 Q-2.7 0.25 -2.6 0.15 M0.15 -0.95 L0.15 -0.95 -0.2 -0.95 0.15 -0.95 M-0.4 -0.95 L-0.75 -0.95 -0.75 -0.95 -0.4 -0.95 M0.45 -0.35 L0.5 -0.35 Q0.5 -0.3 0.55 -0.3 L0.55 -0.05 0.5 -0.05 0.5 -0.2 Q0.5 -0.3 0.4 -0.25 L0.4 -0.05 0.35 0.0 0.35 -0.25 Q0.35 -0.4 0.4 -0.4 L0.45 -0.35 M0.05 0.0 Q0.0 -0.4 0.1 -0.4 L0.25 -0.35 0.25 0.0 0.2 0.0 0.2 -0.3 0.1 -0.3 0.1 0.0 0.05 0.0 M-0.25 -0.5 Q-0.3 -0.4 -0.25 0.0 L-0.35 -0.05 Q-0.3 -0.35 -0.35 -0.5 L-0.3 -0.55 -0.25 -0.5 M-0.2 0.0 Q-0.2 -0.4 -0.15 -0.4 L-0.05 -0.3 -0.05 -0.25 Q-0.15 -0.3 -0.15 -0.15 L-0.15 0.0 -0.2 0.0 M1.15 -0.05 L1.15 -0.05 M1.15 0.8 L1.1 0.7 1.0 0.6 0.95 0.6 0.9 0.55 0.9 0.6 0.8 0.6 0.8 0.65 0.7 0.6 0.7 0.7 0.75 0.9 0.85 0.9 1.15 0.8 M1.2 1.05 Q1.15 0.85 1.1 0.9 1.1 1.05 0.75 1.0 L0.7 0.95 0.7 1.05 0.5 1.1 0.3 1.1 0.3 0.95 0.35 1.0 0.45 0.95 0.5 1.0 Q0.55 1.0 0.6 0.95 L0.6 0.8 Q0.6 0.7 0.55 0.65 0.5 0.65 0.55 0.7 L0.45 0.65 0.45 0.7 0.4 0.65 0.35 0.65 0.35 0.7 0.3 0.75 Q0.25 0.6 0.2 0.3 0.2 0.2 0.5 0.2 L0.55 0.3 0.7 0.15 0.8 0.2 0.9 0.35 0.95 0.4 1.1 0.6 1.25 0.85 1.3 1.05 1.2 1.05 M0.1 0.1 Q0.2 0.3 0.2 0.6 L0.25 1.1 -0.1 1.1 -0.1 0.95 Q-0.05 0.95 0.0 0.95 L0.15 0.95 0.2 0.85 0.15 0.75 0.2 0.7 0.15 0.6 Q0.1 0.65 0.05 0.65 L-0.05 0.65 -0.1 0.7 -0.15 0.65 -0.2 0.55 -0.15 0.45 -0.2 0.3 -0.2 0.25 -0.15 0.25 -0.1 0.25 -0.05 0.3 -0.05 0.25 0.0 0.25 0.0 0.1 0.05 0.1 0.1 0.1 M-0.25 0.15 Q-0.2 0.5 -0.2 1.1 L-0.2 1.1 -0.25 0.8 Q-0.25 0.6 -0.35 0.6 L-0.4 1.05 -0.4 1.1 -0.45 1.1 -0.45 0.85 Q-0.45 0.8 -0.45 0.75 L-0.5 0.75 Q-0.45 0.65 -0.55 0.65 L-0.6 0.7 -0.7 0.65 Q-0.8 0.65 -0.8 1.1 L-0.8 1.1 -1.1 1.1 -1.1 0.95 -0.95 0.95 Q-0.85 0.95 -0.85 0.75 -0.85 0.65 -0.9 0.65 L-0.95 0.7 Q-0.95 0.65 -1.0 0.65 L-1.0 0.7 -1.05 0.7 -1.1 0.7 -1.15 0.7 -1.15 0.6 -1.1 0.35 -1.05 0.15 Q-1.25 0.55 -1.3 1.05 L-1.8 1.05 -1.8 0.9 -1.75 0.85 -1.7 0.85 -1.65 0.9 -1.65 0.9 -1.6 0.9 -1.55 0.95 -1.5 0.95 -1.4 0.9 -1.4 0.95 -1.3 0.8 -1.3 0.7 Q-1.3 0.6 -1.4 0.6 -1.4 0.6 -1.45 0.65 L-1.5 0.6 -1.45 0.55 -1.45 0.45 -1.4 0.3 -1.3 0.2 -1.3 0.3 -1.25 0.35 -1.15 0.25 -1.1 0.2 -1.1 0.1 -1.05 0.1 -1.05 0.1 -1.0 0.1 -1.05 0.3 -1.05 0.35 -0.9 0.35 -0.8 0.4 -0.8 0.35 -0.75 0.1 -0.7 0.1 -0.65 0.1 -0.7 0.25 Q-0.7 0.35 -0.55 0.35 -0.45 0.35 -0.45 0.3 L-0.4 0.1 -0.35 0.1 -0.35 0.1 -0.3 0.45 -0.25 0.45 -0.25 0.4 -0.3 0.1 -0.25 0.15 M-1.35 0.1 L-1.7 0.6 Q-1.85 0.85 -1.85 1.05 L-2.3 1.05 Q-2.3 0.9 -2.25 0.9 L-1.95 0.9 Q-1.9 0.9 -1.9 0.8 L-1.9 0.7 -1.85 0.65 -1.9 0.6 -2.0 0.6 -2.05 0.6 -2.2 0.6 -2.25 0.6 -2.25 0.6 -2.1 0.5 Q-2.0 0.4 -1.9 0.4 L-1.85 0.45 -1.8 0.4 -1.75 0.5 -1.55 0.25 Q-1.55 0.2 -1.6 0.2 L-1.7 0.2 -1.55 0.05 -1.5 0.05 -1.35 0.1 M-1.6 0.05 L-2.25 0.5 Q-2.65 0.75 -2.6 1.0 L-3.0 0.95 -3.05 0.95 -3.45 0.9 -3.35 0.8 -3.3 0.75 Q-3.2 0.75 -3.25 0.8 L-3.15 0.8 -2.85 0.9 Q-2.7 0.9 -2.6 0.8 -2.55 0.7 -2.55 0.6 -2.55 0.55 -2.65 0.55 L-2.75 0.55 -2.8 0.5 Q-2.35 0.25 -2.2 0.2 L-2.2 0.25 -2.15 0.25 Q-2.0 0.25 -1.85 0.15 L-1.75 0.05 -1.65 0.0 -1.65 0.0 -1.6 0.05 M-0.5 -0.3 L-0.5 -0.35 -0.45 -0.4 Q-0.4 -0.4 -0.4 0.0 L-0.5 0.0 -0.55 0.0 -0.5 -0.3 M-1.75 -0.05 L-1.75 -0.05 M-1.75 -0.1 L-1.75 -0.1 M-0.9 -0.6 L-0.9 -0.4 -1.05 -0.4 -1.05 -0.55 -1.0 -0.55 -0.9 -0.6 -0.9 -0.6 M-1.05 -0.35 L-1.0 -0.4 Q-0.9 -0.4 -0.9 -0.25 L-1.05 -0.25 Q-1.05 -0.1 -1.1 -0.05 L-1.15 -0.05 -1.15 -0.3 -1.05 -0.35 -1.05 -0.35 M-0.85 0.0 L-0.8 -0.3 -0.8 -0.35 -0.75 -0.4 -0.75 -0.4 -0.7 -0.4 Q-0.6 -0.4 -0.65 -0.05 L-0.65 -0.15 Q-0.65 -0.3 -0.7 -0.3 -0.75 -0.3 -0.8 -0.2 L-0.8 0.0 -0.85 0.0 M-1.35 -0.55 L-1.3 -0.4 -1.35 -0.3 -1.4 -0.45 -1.4 -0.5 -1.35 -0.55 M-1.3 -0.05 Q-1.3 -0.1 -1.3 -0.15 L-1.4 -0.2 -1.35 -0.3 -1.25 -0.45 -1.25 -0.05 -1.3 -0.05" fill="#a69f99" fill-rule="evenodd" stroke="none"/>
    <path d="M-1.65 -0.2 L-1.6 -0.25 -1.55 -0.2 -1.5 -0.2 -1.4 -0.2 -1.3 -0.15 Q-1.3 -0.1 -1.3 -0.05 -1.6 -0.1 -1.65 -0.2 M0.4 -0.05 L0.4 -0.25 Q0.5 -0.3 0.5 -0.2 L0.5 -0.05 0.45 -0.05 0.4 -0.05 M-0.05 -0.25 L-0.05 0.0 -0.1 0.0 -0.15 0.0 -0.15 -0.15 Q-0.15 -0.3 -0.05 -0.25 M0.1 0.0 L0.1 -0.3 0.2 -0.3 0.2 0.0 0.1 0.0 M-0.9 -0.25 L-0.9 -0.25 -0.95 0.0 -1.05 -0.05 -1.1 -0.05 Q-1.05 -0.1 -1.05 -0.25 L-0.9 -0.25 M-0.8 0.0 L-0.8 -0.2 Q-0.75 -0.3 -0.7 -0.3 -0.65 -0.3 -0.65 -0.15 L-0.65 -0.05 -0.65 0.0 -0.8 0.0" fill="#bbb3ac" fill-rule="evenodd" stroke="none"/>
    <path d="M1.2 -0.1 L1.45 0.0 1.5 0.1 1.15 -0.05 1.15 -0.1 1.2 -0.1 M1.65 0.05 L2.6 0.3 Q2.9 0.35 3.1 0.45 L3.05 0.5 2.95 0.55 3.0 0.6 2.95 0.65 2.85 0.55 2.85 0.65 2.75 0.55 2.75 0.6 Q2.6 0.5 2.2 0.35 1.8 0.2 1.6 0.1 L1.65 0.05 M3.25 0.6 L3.4 0.8 3.1 0.85 Q2.7 1.0 2.15 1.05 L2.15 1.15 2.35 1.15 2.8 1.1 3.45 0.9 3.45 0.95 3.25 1.05 2.8 1.1 2.7 1.15 2.6 1.15 2.5 1.15 2.4 1.15 2.2 1.2 2.15 1.2 1.95 1.2 1.5 1.25 1.25 1.25 0.8 1.25 0.6 1.25 0.1 1.25 -0.1 1.25 -0.15 1.25 -0.3 1.25 -0.4 1.25 -0.5 1.25 -0.7 1.25 -1.2 1.25 -1.4 1.25 -1.85 1.25 -2.05 1.25 -2.5 1.2 -2.75 1.2 -3.0 1.15 -3.1 1.15 -3.1 1.15 -3.2 1.15 -3.3 1.15 -3.4 1.1 -3.85 1.05 -4.0 0.95 -4.05 0.9 -4.05 0.9 -3.4 1.1 -3.3 1.1 -3.25 1.05 -3.25 1.0 -4.0 0.85 -4.0 0.8 Q-3.75 0.4 -3.2 0.3 L-2.6 0.15 Q-2.7 0.25 -2.95 0.3 L-3.3 0.4 -3.25 0.45 Q-3.4 0.7 -3.6 0.7 L-3.65 0.7 -3.7 0.65 -3.85 0.85 -3.5 0.9 Q-3.4 0.6 -2.9 0.4 L-1.75 -0.05 -1.7 0.0 -1.65 0.0 -1.75 0.05 -1.85 0.15 Q-2.0 0.25 -2.15 0.25 L-2.2 0.25 -2.2 0.2 Q-2.35 0.25 -2.8 0.5 L-2.75 0.55 -2.65 0.55 Q-2.55 0.55 -2.55 0.6 -2.55 0.7 -2.6 0.8 -2.7 0.9 -2.85 0.9 L-3.15 0.8 -3.25 0.8 Q-3.2 0.75 -3.3 0.75 L-3.35 0.8 -3.45 0.9 -3.05 0.95 -3.0 0.95 -2.6 1.0 Q-2.65 0.75 -2.25 0.5 L-1.6 0.05 -1.55 0.05 -1.7 0.2 -1.6 0.2 Q-1.55 0.2 -1.55 0.25 L-1.75 0.5 -1.8 0.4 -1.85 0.45 -1.9 0.4 Q-2.0 0.4 -2.1 0.5 L-2.25 0.6 -2.25 0.6 -2.2 0.6 -2.05 0.6 -2.0 0.6 -1.9 0.6 -1.85 0.65 -1.9 0.7 -1.9 0.8 Q-1.9 0.9 -1.95 0.9 L-2.25 0.9 Q-2.3 0.9 -2.3 1.05 L-1.85 1.05 Q-1.85 0.85 -1.7 0.6 L-1.35 0.1 -1.2 0.1 -1.1 0.1 -1.1 0.1 -1.1 0.2 -1.15 0.25 -1.25 0.35 -1.3 0.3 -1.3 0.2 -1.4 0.3 -1.45 0.45 -1.45 0.55 -1.5 0.6 -1.45 0.65 Q-1.4 0.6 -1.4 0.6 -1.3 0.6 -1.3 0.7 L-1.3 0.8 -1.4 0.95 -1.4 0.9 -1.5 0.95 -1.55 0.95 -1.6 0.9 -1.65 0.9 -1.65 0.9 -1.7 0.85 -1.75 0.85 -1.8 0.9 -1.8 1.05 -1.3 1.05 Q-1.25 0.55 -1.05 0.15 L-1.1 0.35 -1.15 0.6 -1.15 0.7 -1.1 0.7 -1.05 0.7 -1.0 0.7 -1.0 0.65 Q-0.95 0.65 -0.95 0.7 L-0.9 0.65 Q-0.85 0.65 -0.85 0.75 -0.85 0.95 -0.95 0.95 L-1.1 0.95 -1.1 1.1 -0.8 1.1 -0.8 1.1 Q-0.8 0.65 -0.7 0.65 L-0.6 0.7 -0.55 0.65 Q-0.45 0.65 -0.5 0.75 L-0.45 0.75 Q-0.45 0.8 -0.45 0.85 L-0.45 1.1 -0.4 1.1 -0.4 1.05 -0.35 0.6 Q-0.25 0.6 -0.25 0.8 L-0.2 1.1 -0.2 1.1 Q-0.2 0.5 -0.25 0.15 L-0.25 0.1 0.0 0.1 0.0 0.25 -0.05 0.25 -0.05 0.3 -0.1 0.25 -0.15 0.25 -0.2 0.25 -0.2 0.3 -0.15 0.45 -0.2 0.55 -0.15 0.65 -0.1 0.7 -0.05 0.65 0.05 0.65 Q0.1 0.65 0.15 0.6 L0.2 0.7 0.15 0.75 0.2 0.85 0.15 0.95 0.0 0.95 Q-0.05 0.95 -0.1 0.95 L-0.1 1.1 0.25 1.1 0.2 0.6 Q0.2 0.3 0.1 0.1 L0.3 0.1 0.4 0.1 0.45 0.1 0.55 0.1 0.65 0.1 0.75 0.1 0.85 0.05 0.9 0.05 0.9 0.2 1.15 0.5 1.2 0.55 1.3 0.55 1.35 0.5 Q1.35 0.45 1.4 0.45 L1.55 0.5 1.75 0.65 1.85 0.8 1.4 0.9 1.3 0.85 1.35 0.9 1.4 0.95 1.5 0.95 2.0 0.9 2.05 1.0 2.05 0.9 2.1 0.9 2.5 0.85 2.8 0.75 2.9 0.9 3.0 0.9 2.95 0.75 Q3.1 0.75 3.1 0.65 L3.15 0.65 3.2 0.6 3.25 0.6 M1.15 -0.05 L1.25 0.2 1.8 0.55 1.9 0.55 1.8 0.45 1.7 0.4 Q1.65 0.35 1.65 0.25 L1.65 0.15 2.25 0.45 Q2.5 0.55 2.7 0.7 L2.6 0.7 2.6 0.75 2.55 0.8 2.45 0.75 2.4 0.8 2.35 0.8 2.25 0.8 2.2 0.85 2.1 0.85 2.05 0.85 1.95 0.75 1.85 0.65 1.3 0.25 1.0 0.05 1.15 -0.05 1.15 -0.05 M2.15 1.15 L2.1 1.1 2.05 1.05 1.65 1.1 1.35 1.05 1.2 1.1 1.2 1.15 Q1.2 1.2 1.3 1.2 L2.15 1.15 M1.15 0.8 L0.85 0.9 0.75 0.9 0.7 0.7 0.7 0.6 0.8 0.65 0.8 0.6 0.9 0.6 0.9 0.55 0.95 0.6 1.0 0.6 1.1 0.7 1.15 0.8 M1.15 1.15 L1.15 1.1 1.0 1.1 0.7 1.1 0.6 1.1 0.6 1.2 0.9 1.2 Q1.15 1.2 1.15 1.15 M1.2 1.05 L1.3 1.05 1.25 0.85 1.1 0.6 0.95 0.4 0.9 0.35 0.8 0.2 0.7 0.15 0.55 0.3 0.5 0.2 Q0.2 0.2 0.2 0.3 0.25 0.6 0.3 0.75 L0.35 0.7 0.35 0.65 0.4 0.65 0.45 0.7 0.45 0.65 0.55 0.7 Q0.5 0.65 0.55 0.65 0.6 0.7 0.6 0.8 L0.6 0.95 Q0.55 1.0 0.5 1.0 L0.45 0.95 0.35 1.0 0.3 0.95 0.3 1.1 0.5 1.1 0.7 1.05 0.7 0.95 0.75 1.0 Q1.1 1.05 1.1 0.9 1.15 0.85 1.2 1.05 M-0.4 0.1 L-0.45 0.3 Q-0.45 0.35 -0.55 0.35 -0.7 0.35 -0.7 0.25 L-0.65 0.1 -0.6 0.1 -0.4 0.1 M-0.75 0.1 L-0.8 0.35 -0.8 0.4 -0.9 0.35 -1.05 0.35 -1.05 0.3 -1.0 0.1 -0.95 0.1 -0.9 0.1 -0.9 0.1 -0.75 0.1 M-0.35 0.1 L-0.3 0.1 -0.3 0.1 -0.25 0.4 -0.25 0.45 -0.3 0.45 -0.35 0.1 M-1.15 1.1 L-1.5 1.1 -2.05 1.1 -2.7 1.05 -2.85 1.0 -3.0 1.0 -3.05 1.1 Q-3.05 1.15 -2.85 1.15 L-2.6 1.15 -2.6 1.1 -2.05 1.15 -1.9 1.2 -1.1 1.25 -1.0 1.25 -1.0 1.15 -1.15 1.1" fill="#837d78" fill-rule="evenodd" stroke="none"/>
    <path d="M3.45 0.95 L3.45 1.0 3.3 1.05 3.25 1.1 3.25 1.05 3.45 0.95 M3.4 1.2 L3.35 1.3 3.4 1.45 3.4 1.5 3.35 1.55 3.3 1.55 3.3 1.4 3.3 1.2 3.35 1.2 3.4 1.2 M2.8 1.1 L2.75 1.2 2.6 1.2 2.6 1.15 2.7 1.15 2.8 1.1 M2.7 1.3 L2.7 1.35 2.75 1.55 2.7 1.6 2.65 1.65 2.65 1.5 2.65 1.25 2.7 1.3 M2.15 1.2 L2.15 1.25 1.95 1.3 1.95 1.2 2.15 1.2 M2.05 1.35 L2.05 1.6 2.05 1.7 2.0 1.7 1.95 1.65 2.0 1.55 2.0 1.35 2.05 1.35 M1.5 1.25 L1.45 1.3 1.25 1.3 1.25 1.25 1.5 1.25 M1.4 1.4 L1.4 1.65 1.4 1.7 1.35 1.75 1.3 1.7 1.35 1.6 1.3 1.4 1.35 1.4 1.4 1.4 M0.8 1.25 L0.8 1.4 0.7 1.4 0.6 1.4 0.6 1.25 0.8 1.25 M0.75 1.45 L0.75 1.7 0.75 1.75 0.7 1.8 0.65 1.8 0.65 1.7 0.65 1.45 0.7 1.45 0.75 1.45 M0.1 1.25 L0.1 1.4 0.1 1.45 0.0 1.45 -0.1 1.4 -0.1 1.25 0.1 1.25 M0.05 1.45 L0.05 1.7 0.05 1.75 0.0 1.8 0.0 1.8 -0.05 1.8 -0.05 1.7 -0.05 1.45 0.0 1.45 0.05 1.45 M-0.5 1.25 L-0.5 1.4 -0.65 1.35 -0.7 1.35 -0.7 1.25 -0.5 1.25 M-0.55 1.45 L-0.55 1.75 -0.55 1.8 -0.55 1.8 -0.6 1.8 -0.65 1.75 -0.65 1.7 -0.6 1.55 -0.65 1.45 -0.6 1.45 -0.55 1.45 M-1.2 1.25 L-1.2 1.4 -1.4 1.4 -1.4 1.25 -1.2 1.25 M-1.25 1.45 L-1.25 1.75 -1.25 1.8 -1.25 1.8 -1.3 1.8 -1.35 1.75 -1.35 1.7 -1.3 1.55 -1.35 1.45 -1.3 1.45 -1.25 1.45 M-1.85 1.25 L-1.85 1.35 -1.9 1.35 -2.05 1.3 -2.05 1.25 -1.85 1.25 M-1.9 1.4 L-1.9 1.7 -1.9 1.75 -1.95 1.75 -1.95 1.7 -2.0 1.7 -2.0 1.5 -2.0 1.4 -1.95 1.4 -1.9 1.4 M-2.5 1.2 L-2.55 1.3 -2.55 1.3 -2.7 1.3 -2.7 1.3 -2.75 1.2 -2.75 1.2 -2.5 1.2 M-2.55 1.35 L-2.6 1.55 -2.55 1.65 -2.6 1.7 -2.6 1.7 -2.65 1.7 -2.65 1.6 -2.65 1.35 -2.6 1.35 -2.55 1.35 M-3.2 1.15 L-3.2 1.25 -3.35 1.2 -3.4 1.1 -3.3 1.15 -3.2 1.15 M-3.25 1.25 L-3.25 1.5 -3.2 1.55 -3.25 1.65 -3.25 1.65 -3.3 1.6 -3.3 1.55 -3.3 1.3 -3.3 1.3 -3.25 1.25 M-3.85 1.05 L-3.85 1.15 -4.05 1.05 -4.0 0.95 -3.85 1.05 M-3.9 1.2 L-3.9 1.5 -3.9 1.55 -3.9 1.55 -3.95 1.55 -3.95 1.5 -4.0 1.45 -3.95 1.3 -3.95 1.2 -3.95 1.2 -3.9 1.2" fill="#43403d" fill-rule="evenodd" stroke="none"/>
    <path d="M3.4 0.8 L3.45 0.9 2.8 1.1 2.35 1.15 2.15 1.15 2.15 1.05 Q2.7 1.0 3.1 0.85 L3.4 0.8 M3.45 1.0 L3.45 1.15 3.4 1.2 3.35 1.2 3.3 1.2 3.25 1.15 3.25 1.1 3.3 1.05 3.45 1.0 M2.75 1.2 L2.7 1.3 2.65 1.25 2.6 1.2 2.75 1.2 M2.15 1.25 L2.1 1.3 2.05 1.35 2.0 1.35 1.95 1.3 2.15 1.25 M1.45 1.3 L1.45 1.35 1.4 1.4 1.35 1.4 1.3 1.4 1.3 1.35 1.25 1.3 1.45 1.3 M0.8 1.4 L0.75 1.45 0.7 1.45 0.65 1.45 0.6 1.4 0.7 1.4 0.8 1.4 M0.1 1.45 L0.05 1.45 0.0 1.45 -0.05 1.45 -0.1 1.4 0.0 1.45 0.1 1.45 M-0.5 1.4 L-0.55 1.45 -0.6 1.45 -0.65 1.45 -0.7 1.4 -0.7 1.35 -0.65 1.35 -0.5 1.4 M-1.2 1.4 L-1.25 1.45 -1.3 1.45 -1.35 1.45 -1.4 1.4 -1.4 1.4 -1.2 1.4 M-1.9 1.35 L-1.9 1.4 -1.95 1.4 -2.0 1.4 -2.05 1.35 -2.05 1.3 -1.9 1.35 M-2.55 1.3 L-2.55 1.35 -2.6 1.35 -2.65 1.35 -2.7 1.3 -2.7 1.3 -2.55 1.3 M-3.2 1.25 L-3.25 1.25 -3.3 1.3 -3.3 1.3 -3.35 1.2 -3.35 1.2 -3.2 1.25 M-3.85 1.15 L-3.85 1.15 -3.9 1.2 -3.95 1.2 -3.95 1.2 -4.0 1.15 -4.0 1.15 -4.05 1.05 -3.85 1.15 M-4.05 0.9 L-4.0 0.9 -4.0 0.85 -3.25 1.0 -3.25 1.05 -3.3 1.1 -3.4 1.1 -4.05 0.9 M2.15 1.15 L1.3 1.2 Q1.2 1.2 1.2 1.15 L1.2 1.1 1.35 1.05 1.65 1.1 2.05 1.05 2.1 1.1 2.15 1.15 M1.15 1.15 Q1.15 1.2 0.9 1.2 L0.6 1.2 0.6 1.1 0.7 1.1 1.0 1.1 1.15 1.1 1.15 1.15 M-1.15 1.1 L-1.0 1.15 -1.0 1.25 -1.1 1.25 -1.9 1.2 -2.05 1.15 -2.6 1.1 -2.6 1.15 -2.85 1.15 Q-3.05 1.15 -3.05 1.1 L-3.0 1.0 -2.85 1.0 -2.7 1.05 -2.05 1.1 -1.5 1.1 -1.15 1.1" fill="#5b5753" fill-rule="evenodd" stroke="none"/>
    <path d="M0.05 -2.15 L0.1 -2.25 0.05 -2.3 0.05 -2.35 0.0 -2.35 -0.05 -2.4 -0.05 -2.4 -0.3 -2.65 -0.5 -2.4 -0.55 -2.4 -0.6 -2.35 -0.65 -2.3 -0.7 -2.3 -0.7 -2.25 -0.65 -2.2 -0.65 -2.15 -0.6 -2.1 -0.6 -2.1 -0.6 -2.1 -0.7 -1.95 -0.8 -1.85 -0.9 -1.8 -0.95 -1.75 -0.95 -1.7 -1.0 -1.7 -1.0 -1.65 Q-1.2 -1.6 -1.25 -1.55 L-1.25 -1.55 Q-1.25 -1.5 -1.2 -1.45 L-1.15 -1.45 -1.15 -1.2 -1.2 -1.05 -1.2 -0.95 -1.2 -0.8 -1.2 -0.75 -1.2 -0.75 Q-1.3 -0.7 -1.35 -0.7 L-1.4 -0.65 -1.45 -0.6 -1.45 -0.5 -1.5 -0.35 -1.6 -0.25 -1.65 -0.2 Q-1.65 -0.05 -1.75 -0.1 L-2.15 0.05 -2.6 0.15 -3.2 0.3 Q-3.75 0.4 -4.0 0.8 L-4.0 0.85 -4.0 0.9 -4.05 0.9 -4.05 0.9 -4.0 0.95 -4.05 1.05 -4.0 1.15 -4.0 1.15 -3.95 1.2 -3.95 1.3 -4.0 1.45 -3.95 1.5 -3.95 1.55 -4.0 1.65 -4.0 1.75 -3.95 1.85 Q-3.85 1.8 -3.85 1.7 L-3.9 1.55 -3.9 1.5 -3.9 1.2 -3.85 1.15 -3.85 1.15 -3.85 1.05 -3.4 1.1 -3.35 1.2 -3.35 1.2 -3.3 1.3 -3.3 1.55 -3.3 1.6 -3.35 1.75 -3.35 1.85 -3.3 1.95 Q-3.2 1.85 -3.2 1.75 -3.2 1.65 -3.25 1.65 L-3.2 1.55 -3.25 1.5 -3.25 1.25 -3.2 1.25 -3.2 1.15 -3.1 1.15 -3.1 1.15 -3.0 1.15 -2.75 1.2 -2.75 1.2 -2.7 1.3 -2.7 1.3 -2.7 1.3 -2.65 1.35 -2.65 1.6 -2.65 1.7 -2.7 1.8 -2.65 1.9 -2.6 2.0 Q-2.55 1.95 -2.55 1.85 L-2.6 1.7 -2.55 1.65 -2.6 1.55 -2.55 1.35 -2.55 1.3 -2.55 1.3 -2.5 1.2 -2.05 1.25 -2.05 1.3 -2.05 1.35 -2.0 1.4 -2.0 1.5 -2.0 1.7 -1.95 1.7 -2.0 1.85 -2.0 1.95 -1.95 2.05 Q-1.9 2.0 -1.9 1.9 -1.9 1.8 -1.9 1.75 L-1.9 1.7 -1.9 1.4 -1.9 1.35 -1.85 1.35 -1.85 1.25 -1.4 1.25 -1.4 1.4 -1.4 1.4 -1.35 1.45 -1.3 1.55 -1.35 1.7 -1.35 1.75 -1.3 1.8 -1.35 1.95 -1.35 2.0 -1.3 2.15 Q-1.2 2.05 -1.2 1.95 -1.2 1.85 -1.25 1.8 L-1.25 1.75 -1.25 1.45 -1.2 1.4 -1.2 1.25 -0.7 1.25 -0.7 1.35 -0.7 1.4 -0.65 1.45 -0.6 1.55 -0.65 1.7 -0.65 1.75 -0.6 1.8 -0.65 1.95 -0.65 2.0 -0.6 2.15 Q-0.5 2.05 -0.5 1.95 -0.5 1.85 -0.55 1.8 L-0.55 1.75 -0.55 1.45 -0.5 1.4 -0.5 1.25 -0.4 1.25 -0.3 1.25 -0.15 1.25 -0.1 1.25 -0.1 1.4 -0.05 1.45 -0.05 1.7 -0.05 1.8 Q-0.05 1.85 -0.05 1.95 -0.05 2.05 0.0 2.15 L0.05 2.0 0.05 1.95 0.0 1.8 0.05 1.75 0.05 1.7 0.05 1.45 0.1 1.45 0.1 1.4 0.1 1.25 0.6 1.25 0.6 1.4 0.65 1.45 0.65 1.7 0.65 1.8 Q0.65 1.85 0.65 1.95 0.65 2.05 0.7 2.15 L0.75 2.0 0.75 1.95 0.7 1.8 0.75 1.75 0.75 1.7 0.75 1.45 0.8 1.4 0.8 1.25 1.25 1.25 1.25 1.3 1.3 1.35 1.3 1.4 1.35 1.6 1.3 1.7 1.35 1.75 Q1.3 1.8 1.3 1.9 L1.35 2.05 1.4 1.95 1.45 1.85 1.4 1.7 1.4 1.65 1.4 1.4 1.45 1.35 1.45 1.3 1.5 1.25 1.95 1.2 1.95 1.3 2.0 1.35 2.0 1.55 1.95 1.65 2.0 1.7 Q1.95 1.75 1.95 1.85 1.95 1.95 2.05 2.0 L2.1 1.9 2.1 1.8 2.05 1.7 2.05 1.6 2.05 1.35 2.1 1.3 2.15 1.25 2.15 1.2 2.2 1.2 2.4 1.15 2.5 1.15 2.6 1.15 2.6 1.2 2.65 1.25 2.65 1.5 2.65 1.65 Q2.6 1.65 2.6 1.75 2.6 1.85 2.7 1.95 L2.75 1.85 2.75 1.75 2.7 1.6 2.75 1.55 2.7 1.35 2.7 1.3 2.75 1.2 2.8 1.1 3.25 1.05 3.25 1.1 3.25 1.15 3.3 1.2 3.3 1.4 3.3 1.55 Q3.25 1.6 3.25 1.7 3.25 1.8 3.35 1.85 L3.4 1.75 3.4 1.65 3.35 1.55 3.4 1.5 3.4 1.45 3.35 1.3 3.4 1.2 3.45 1.15 3.45 1.0 3.45 0.95 3.45 0.9 3.4 0.8 3.25 0.6 3.1 0.45 Q2.9 0.35 2.6 0.3 L1.65 0.05 1.55 0.05 1.45 0.0 1.2 -0.1 1.15 -0.1 1.15 -0.05 1.15 -0.1 M0.05 -2.15 L0.05 -2.1 0.05 -2.1 0.1 -1.95 0.2 -1.85 0.3 -1.8 0.35 -1.75 0.4 -1.7 0.4 -1.7 0.45 -1.65 Q0.65 -1.6 0.65 -1.55 L0.65 -1.5 0.6 -1.45 0.6 -1.45 0.55 -1.4 0.55 -1.3 0.6 -1.2 0.6 -1.05 0.6 -0.75 0.6 -0.75 0.6 -0.75 0.65 -0.7 0.75 -0.7 0.85 -0.65 0.9 -0.5 0.95 -0.35 1.05 -0.25 1.05 -0.2 Q1.05 -0.05 1.2 -0.1" fill="none" stroke="#000000" stroke-linecap="round" stroke-linejoin="round" stroke-opacity="0.4509804" stroke-width="0.1"/>
  </g>
</svg>
