<?xml version="1.0" encoding="UTF-8" standalone="no"?>
<svg xmlns:xlink="http://www.w3.org/1999/xlink" height="7.85px" width="7.1px" xmlns="http://www.w3.org/2000/svg">
  <g transform="matrix(1.0, 0.0, 0.0, 1.0, -11.25, 12.75)">
    <path d="M15.95 -5.65 L15.95 -5.55 Q15.95 -5.55 16.1 -5.45 16.2 -5.4 16.2 -5.25 16.2 -5.2 16.05 -5.1 15.9 -5.1 15.95 -4.95 L15.95 -4.9 15.9 -4.9 15.45 -5.0 15.35 -5.0 Q15.3 -4.95 15.25 -4.95 L15.1 -5.0 14.95 -5.1 14.7 -5.15 14.2 -5.4 14.25 -5.3 14.25 -5.15 14.0 -5.25 14.0 -5.1 Q13.9 -5.1 13.75 -5.3 L13.65 -5.4 13.55 -5.4 13.55 -5.45 13.25 -5.65 13.25 -5.65 13.05 -5.75 13.0 -5.75 12.95 -5.75 12.95 -5.75 12.85 -5.8 12.75 -5.95 12.6 -6.1 12.45 -6.25 12.25 -6.4 Q12.2 -6.5 12.15 -6.6 L12.15 -6.7 12.1 -6.8 11.95 -7.0 11.95 -7.1 11.9 -7.25 11.85 -7.35 11.75 -7.5 Q11.7 -7.55 11.7 -7.6 L11.7 -7.75 11.75 -7.9 11.75 -8.05 11.7 -8.15 11.7 -8.2 11.7 -8.3 11.65 -8.35 11.75 -8.35 11.75 -8.5 11.75 -8.55 11.75 -8.65 11.75 -8.75 11.75 -8.85 Q11.7 -8.9 11.7 -8.9 L11.75 -9.05 11.75 -9.05 11.7 -9.15 11.35 -9.3 11.25 -9.4 11.35 -9.55 11.4 -9.65 11.4 -9.7 Q11.5 -9.8 11.55 -9.75 L11.75 -9.8 11.75 -9.9 11.6 -9.9 Q11.45 -9.95 11.45 -10.0 11.45 -10.1 11.55 -10.15 L11.75 -10.25 11.95 -10.4 12.05 -10.55 12.0 -10.65 12.0 -10.7 12.05 -10.75 12.2 -10.95 12.25 -10.85 12.35 -10.75 12.3 -10.7 12.25 -10.6 12.35 -10.45 12.5 -10.65 12.55 -10.85 12.6 -10.85 Q12.65 -10.8 12.7 -10.8 L12.7 -10.85 12.75 -10.95 12.8 -11.0 12.8 -11.1 12.85 -11.05 12.85 -11.05 Q12.85 -11.0 12.9 -10.95 L13.15 -11.4 13.25 -11.65 Q13.25 -11.8 13.35 -11.9 13.45 -12.0 13.4 -12.1 L13.4 -12.35 Q13.4 -12.4 13.5 -12.5 L13.55 -12.75 13.6 -12.75 13.65 -12.7 13.65 -12.7 Q13.6 -12.65 13.7 -12.45 L13.8 -12.15 13.8 -11.9 13.75 -11.85 13.6 -11.75 Q13.45 -11.7 13.35 -11.6 13.25 -11.5 13.25 -11.4 L13.25 -11.05 13.2 -10.8 13.15 -10.75 13.1 -10.55 13.05 -10.45 12.95 -10.35 Q12.8 -10.2 12.8 -10.0 L12.8 -9.9 Q12.8 -9.75 12.85 -9.6 L12.85 -9.6 12.8 -9.5 12.75 -9.35 12.6 -9.2 Q12.5 -9.15 12.5 -9.1 12.5 -8.8 12.75 -8.75 L12.85 -8.7 12.9 -8.7 13.0 -8.6 13.05 -8.6 13.15 -8.6 13.25 -8.65 13.3 -8.6 13.35 -8.5 13.3 -8.45 13.3 -8.4 13.25 -8.35 13.3 -8.3 Q13.3 -8.25 13.2 -8.25 L13.05 -8.2 Q13.1 -8.05 13.3 -7.95 L13.35 -7.9 13.4 -7.9 13.4 -7.75 13.45 -7.7 Q13.45 -7.65 13.3 -7.6 L13.25 -7.55 13.25 -7.45 13.15 -7.45 13.05 -7.45 13.0 -7.45 Q12.95 -7.4 12.95 -7.25 L13.0 -7.1 13.0 -7.05 13.0 -7.0 Q13.05 -6.95 13.2 -6.9 L13.35 -6.85 13.4 -6.8 13.35 -6.7 13.3 -6.5 Q13.3 -6.45 13.4 -6.25 L13.45 -6.05 13.45 -5.95 13.4 -5.9 13.55 -5.75 13.75 -5.65 13.8 -5.9 Q13.95 -5.85 14.0 -5.75 L14.05 -5.75 Q14.1 -5.55 14.3 -5.45 14.4 -5.35 14.6 -5.4 L14.75 -5.3 Q14.85 -5.2 15.0 -5.2 L15.05 -5.2 15.05 -5.3 14.9 -5.45 14.85 -5.6 14.8 -5.7 14.55 -5.8 14.55 -5.9 14.45 -6.0 14.3 -6.1 14.25 -6.1 14.15 -6.2 14.1 -6.3 14.1 -6.3 14.05 -6.55 14.0 -6.65 14.05 -6.75 14.2 -6.75 14.25 -6.8 14.4 -6.75 14.35 -6.7 14.35 -6.6 14.25 -6.55 14.15 -6.45 14.15 -6.35 14.15 -6.3 Q14.2 -6.25 14.3 -6.15 14.45 -6.0 14.65 -6.0 L14.65 -6.0 Q14.8 -6.0 14.8 -6.15 L14.7 -6.35 14.7 -6.35 Q14.6 -6.45 14.6 -6.5 L14.55 -6.65 14.6 -6.65 14.7 -6.7 14.75 -6.75 14.8 -6.75 14.85 -6.8 14.95 -6.85 15.0 -6.9 15.05 -6.75 15.0 -6.75 15.0 -6.7 14.95 -6.6 14.85 -6.45 14.9 -6.4 Q14.95 -6.3 15.1 -6.3 L15.15 -6.25 15.15 -6.2 15.2 -6.15 15.2 -6.15 15.05 -6.15 15.05 -6.1 Q15.1 -6.05 15.05 -5.95 L14.95 -5.85 14.95 -5.7 15.0 -5.65 15.0 -5.45 15.05 -5.4 Q15.1 -5.35 15.2 -5.35 L15.5 -5.25 15.5 -5.2 15.85 -5.1 16.0 -5.2 Q16.05 -5.25 16.05 -5.35 L15.95 -5.45 Q15.85 -5.5 15.85 -5.55 15.85 -5.6 15.9 -5.65 L15.95 -5.65 16.0 -5.7 15.95 -5.9 15.9 -5.95 15.7 -6.0 15.55 -6.0 15.4 -6.0 15.4 -6.05 15.35 -6.05 15.35 -6.05 15.45 -6.05 Q15.6 -6.05 15.55 -6.15 L15.65 -6.3 15.75 -6.2 15.9 -6.05 15.95 -6.05 16.0 -6.0 16.3 -5.95 Q16.4 -5.95 16.45 -6.0 L16.5 -6.15 Q16.5 -6.25 16.15 -6.5 L16.15 -6.5 Q16.4 -6.5 16.4 -6.6 L16.4 -6.65 16.2 -6.65 16.15 -6.65 16.0 -6.7 Q16.0 -6.7 16.0 -6.75 L15.9 -6.85 15.9 -6.85 15.75 -6.8 Q15.65 -6.8 15.65 -7.0 L15.55 -7.05 Q15.45 -7.05 15.45 -7.1 L15.45 -7.1 15.7 -7.1 15.7 -7.1 15.75 -7.1 15.8 -7.05 15.9 -7.1 16.0 -7.1 16.0 -7.2 16.0 -7.3 15.95 -7.35 15.9 -7.45 15.95 -7.55 16.0 -7.55 16.0 -7.55 16.05 -7.5 Q16.15 -7.45 16.2 -7.45 L16.35 -7.45 16.45 -7.45 16.45 -7.45 16.55 -7.5 16.6 -7.65 16.6 -7.7 16.6 -7.75 16.65 -7.8 16.6 -7.9 Q16.55 -8.0 16.55 -8.05 L16.6 -8.1 16.75 -8.15 17.0 -8.05 17.1 -8.1 17.15 -8.15 17.2 -8.1 17.25 -8.05 17.35 -8.1 17.4 -8.1 17.45 -8.1 17.4 -8.2 17.3 -8.3 17.3 -8.35 17.25 -8.4 17.2 -8.4 17.1 -8.45 17.1 -8.5 17.0 -8.6 16.9 -8.6 16.85 -8.6 16.75 -8.6 Q16.7 -8.6 16.65 -8.65 L16.65 -8.7 16.6 -8.8 16.45 -8.8 16.5 -8.9 16.55 -8.95 16.45 -9.1 16.3 -9.25 16.2 -9.2 16.15 -9.15 16.1 -9.15 Q16.05 -9.15 16.0 -9.25 L15.9 -9.3 15.75 -9.25 Q15.7 -9.25 15.65 -9.2 L15.65 -9.1 15.6 -9.0 Q15.6 -8.95 15.7 -8.9 L15.85 -8.85 15.85 -8.85 15.8 -8.8 15.75 -8.85 15.65 -8.85 15.6 -8.85 15.6 -8.85 15.55 -8.8 15.6 -8.75 15.65 -8.7 15.7 -8.7 15.7 -8.7 15.75 -8.7 15.8 -8.7 15.85 -8.7 15.85 -8.7 15.75 -8.6 15.75 -8.6 Q15.75 -8.55 15.8 -8.55 L15.85 -8.55 15.9 -8.5 15.85 -8.5 15.85 -8.45 15.8 -8.45 15.7 -8.5 15.65 -8.5 15.6 -8.5 15.55 -8.5 Q15.5 -8.5 15.45 -8.5 L15.4 -8.6 15.35 -8.6 Q15.3 -8.6 15.3 -8.65 L15.3 -8.7 15.25 -8.7 15.1 -8.65 15.1 -8.55 15.1 -8.5 Q15.1 -8.45 15.25 -8.4 L15.2 -8.4 15.1 -8.4 Q15.1 -8.4 15.05 -8.4 L15.05 -8.45 15.0 -8.45 14.95 -8.5 14.95 -8.55 Q14.95 -8.6 14.85 -8.6 L14.75 -8.55 14.7 -8.5 14.7 -8.4 14.75 -8.35 14.75 -8.35 14.7 -8.3 14.65 -8.35 14.6 -8.35 14.6 -8.4 14.55 -8.45 14.45 -8.45 14.45 -8.5 Q14.45 -8.6 14.6 -8.55 14.7 -8.55 14.7 -8.65 14.7 -8.7 14.75 -8.75 L14.75 -8.75 Q14.85 -8.85 14.9 -8.85 L14.95 -8.8 15.0 -8.8 15.0 -8.8 15.1 -8.8 15.15 -8.85 15.1 -8.9 15.1 -9.0 15.05 -9.05 15.05 -9.05 14.95 -9.1 14.9 -9.15 Q14.9 -9.2 14.85 -9.2 L14.65 -9.15 14.5 -9.05 14.45 -9.05 14.4 -9.05 14.3 -9.0 14.25 -9.0 14.2 -8.9 14.15 -8.85 14.1 -8.8 14.1 -8.8 14.05 -8.75 14.05 -8.75 14.0 -8.75 14.0 -8.75 13.95 -8.75 13.9 -8.7 13.85 -8.7 Q13.85 -8.65 13.9 -8.6 L14.0 -8.55 14.05 -8.5 14.1 -8.45 13.9 -8.5 13.85 -8.5 13.8 -8.5 13.75 -8.45 13.75 -8.5 13.8 -8.55 13.8 -8.65 13.75 -8.7 13.85 -8.8 13.85 -8.8 13.9 -8.85 14.05 -8.9 14.15 -8.95 14.15 -9.0 14.2 -9.05 14.2 -9.05 14.25 -9.1 14.3 -9.1 14.35 -9.15 14.4 -9.15 14.45 -9.2 14.35 -9.3 14.25 -9.3 14.25 -9.35 14.2 -9.35 14.25 -9.4 14.25 -9.45 Q14.3 -9.45 14.3 -9.45 L14.3 -9.45 14.35 -9.45 14.35 -9.45 14.4 -9.45 14.45 -9.45 14.55 -9.4 14.65 -9.4 14.7 -9.4 14.8 -9.45 14.9 -9.4 Q14.95 -9.35 15.0 -9.35 L15.05 -9.35 15.1 -9.35 15.15 -9.45 15.15 -9.5 15.25 -9.55 15.3 -9.55 15.3 -9.55 15.35 -9.55 15.45 -9.6 15.65 -9.65 15.65 -9.6 15.6 -9.55 15.7 -9.55 15.75 -9.5 15.8 -9.5 15.9 -9.55 16.0 -9.55 16.25 -9.45 16.3 -9.4 16.35 -9.45 16.5 -9.45 16.6 -9.4 16.65 -9.35 16.7 -9.3 16.75 -9.2 16.7 -9.1 16.75 -9.05 16.8 -9.0 16.75 -8.9 Q16.75 -8.9 16.9 -8.85 L16.95 -8.8 17.0 -8.8 17.15 -8.8 17.2 -8.8 17.3 -8.75 17.4 -8.8 17.5 -8.75 17.5 -8.75 17.55 -8.75 17.6 -8.8 17.65 -8.75 17.7 -8.75 17.65 -8.75 17.65 -8.7 17.7 -8.7 17.75 -8.7 17.8 -8.7 17.8 -8.65 17.75 -8.6 17.7 -8.6 17.65 -8.6 17.6 -8.6 17.55 -8.6 17.45 -8.55 Q17.4 -8.55 17.4 -8.5 L17.5 -8.45 17.55 -8.4 17.55 -8.4 Q17.55 -8.35 17.6 -8.35 L17.65 -8.35 17.7 -8.35 18.2 -8.25 18.35 -8.2 17.7 -8.1 17.6 -8.1 17.55 -8.05 17.45 -8.0 17.4 -7.95 17.35 -7.95 17.25 -7.95 17.15 -7.95 17.1 -7.9 17.1 -7.95 17.05 -7.95 17.0 -7.95 16.95 -7.95 16.9 -7.9 17.05 -7.75 17.0 -7.7 17.0 -7.7 17.05 -7.65 17.1 -7.55 16.95 -7.5 16.95 -7.5 16.9 -7.45 16.85 -7.4 16.75 -7.35 16.75 -7.3 16.75 -7.2 16.75 -7.2 16.8 -7.15 16.75 -7.1 16.75 -7.05 16.75 -7.0 16.65 -7.0 16.55 -7.0 16.45 -7.0 16.4 -7.0 16.35 -7.0 16.3 -7.0 16.25 -6.95 16.2 -6.95 16.2 -6.85 16.2 -6.7 Q16.25 -6.65 16.4 -6.65 16.65 -6.6 16.65 -6.55 16.65 -6.5 16.55 -6.45 L16.4 -6.4 16.6 -6.25 16.7 -6.1 16.65 -6.0 16.6 -5.95 16.65 -5.9 16.65 -5.85 Q16.65 -5.75 16.5 -5.75 L16.2 -5.75 Q16.2 -5.7 16.1 -5.7 L15.95 -5.65 M13.95 -11.45 L14.0 -11.45 14.05 -11.55 14.15 -11.65 14.15 -11.6 Q14.15 -11.6 14.2 -11.55 L14.25 -11.6 14.25 -11.6 14.3 -11.55 14.3 -11.55 14.35 -11.45 14.4 -11.4 14.4 -11.3 14.3 -11.0 14.3 -11.45 14.2 -11.55 14.15 -11.4 14.1 -11.3 14.0 -11.15 13.95 -11.15 13.9 -11.15 13.85 -11.15 13.8 -11.1 13.75 -11.1 13.7 -11.1 13.75 -11.1 13.85 -11.2 13.85 -11.2 13.95 -11.45 M14.3 -10.95 L14.3 -10.95 Q14.3 -10.9 14.4 -10.9 L14.4 -10.9 14.45 -10.9 14.5 -11.1 14.6 -11.15 14.7 -11.25 Q14.7 -11.2 14.75 -11.15 L14.9 -11.05 14.95 -10.95 14.95 -10.8 15.1 -10.85 15.15 -10.9 15.15 -10.85 15.2 -10.85 15.2 -10.6 15.15 -10.55 15.15 -10.4 15.1 -10.4 15.0 -10.45 14.95 -10.45 14.9 -10.45 14.85 -10.45 14.85 -10.5 14.9 -10.6 14.95 -10.6 14.95 -10.75 Q14.95 -10.9 14.75 -10.9 L14.6 -10.9 14.6 -10.8 14.6 -10.75 Q14.55 -10.7 14.45 -10.7 L14.35 -10.65 14.35 -10.5 14.3 -10.4 14.25 -10.25 14.25 -10.2 14.2 -10.15 14.15 -10.15 14.1 -10.1 14.0 -10.1 13.9 -10.15 13.9 -10.15 13.85 -10.1 13.75 -10.05 13.65 -10.0 13.6 -10.0 13.55 -10.05 13.45 -9.95 13.35 -9.85 Q13.35 -9.8 13.4 -9.75 L13.5 -9.65 13.45 -9.6 13.4 -9.55 13.4 -9.45 13.45 -9.35 Q13.45 -9.25 13.3 -9.05 L13.2 -9.1 13.15 -9.1 13.15 -9.1 13.1 -9.1 13.05 -9.1 13.0 -9.15 13.0 -9.2 13.0 -9.3 13.05 -9.3 Q13.15 -9.3 13.2 -9.4 L13.2 -9.65 13.4 -10.1 13.4 -10.1 Q13.4 -10.2 13.35 -10.25 13.25 -10.3 13.2 -10.4 L13.25 -10.4 Q13.4 -10.45 13.4 -10.65 13.4 -10.9 13.5 -10.95 L13.55 -11.0 13.55 -10.95 13.5 -10.8 Q13.5 -10.75 13.6 -10.65 L13.65 -10.6 13.7 -10.5 13.65 -10.3 13.7 -10.2 13.8 -10.2 Q13.95 -10.2 14.0 -10.3 L14.05 -10.5 14.2 -10.75 14.2 -10.75 14.3 -10.95 M15.15 -10.35 L15.2 -10.35 15.3 -10.4 15.35 -10.4 15.4 -10.45 15.5 -10.5 15.55 -10.45 15.55 -10.4 15.6 -10.3 15.45 -10.2 15.45 -10.15 15.3 -10.3 15.25 -10.25 15.15 -10.2 15.1 -10.2 15.05 -10.2 15.15 -10.3 15.15 -10.35 M14.15 -10.0 L14.2 -10.05 14.2 -10.1 14.25 -10.1 14.5 -10.1 14.9 -10.1 15.05 -10.15 14.95 -10.05 14.85 -10.0 14.75 -10.0 14.7 -9.9 14.7 -9.9 14.65 -9.85 14.6 -9.85 14.6 -9.85 14.55 -9.85 14.45 -9.8 14.35 -9.8 14.3 -9.8 14.25 -9.8 14.2 -9.8 14.15 -9.8 Q14.1 -9.8 14.1 -9.8 L14.15 -9.85 14.15 -9.9 14.1 -9.95 14.15 -10.0 14.15 -10.0 M14.5 -7.75 L14.6 -7.75 14.65 -7.75 Q14.7 -7.75 14.7 -7.75 L14.7 -7.75 14.7 -7.7 14.6 -7.65 14.5 -7.7 14.4 -7.7 14.4 -7.7 14.35 -7.75 14.35 -7.75 14.4 -7.75 14.5 -7.75 14.5 -7.75 M16.1 -8.55 L16.2 -8.55 16.25 -8.5 16.15 -8.45 16.1 -8.4 16.05 -8.35 16.05 -8.45 16.1 -8.55 16.1 -8.55 M15.5 -7.9 L15.5 -7.9 15.55 -7.9 15.65 -7.9 15.75 -7.9 15.85 -7.9 15.95 -7.85 15.9 -7.85 15.7 -7.8 15.65 -7.8 15.55 -7.75 15.5 -7.7 15.5 -7.65 15.55 -7.6 15.6 -7.55 15.6 -7.45 15.5 -7.45 15.45 -7.45 15.35 -7.55 15.25 -7.6 Q15.2 -7.6 15.2 -7.65 L15.3 -7.8 15.3 -7.8 15.4 -7.95 15.35 -8.0 15.4 -8.0 15.45 -8.0 15.5 -7.9 M12.95 -8.6 L12.85 -8.6 12.8 -8.6 12.8 -8.6 12.65 -8.55 12.6 -8.5 12.6 -8.45 12.7 -8.4 Q12.7 -8.4 12.75 -8.4 L12.75 -8.35 12.85 -8.4 12.8 -8.5 Q12.8 -8.55 12.9 -8.55 L12.95 -8.6 M13.0 -8.05 L13.0 -8.05 12.9 -8.0 Q12.75 -7.95 12.7 -7.95 L12.65 -7.95 12.65 -7.95 12.6 -8.0 12.55 -8.0 Q12.55 -8.0 12.5 -7.95 L12.45 -7.9 12.55 -7.8 12.7 -7.75 Q12.8 -7.75 12.9 -7.85 13.0 -7.95 13.0 -8.05 M12.3 -8.4 L12.3 -8.35 12.25 -8.35 12.3 -8.3 12.3 -8.3 Q12.4 -8.3 12.4 -8.3 L12.4 -8.35 12.35 -8.4 12.35 -8.4 12.3 -8.4 M13.9 -7.55 L13.9 -7.55 13.95 -7.45 13.95 -7.35 13.9 -7.3 Q13.8 -7.2 13.7 -7.2 L13.65 -7.2 13.65 -7.2 13.55 -7.25 13.7 -7.3 13.8 -7.4 Q13.9 -7.45 13.9 -7.55 M12.5 -7.25 L12.45 -7.15 12.4 -7.1 12.35 -7.1 12.3 -7.1 12.25 -7.15 12.25 -7.1 12.2 -7.0 12.2 -7.0 12.25 -6.95 12.3 -6.9 12.45 -6.85 Q12.7 -7.0 12.7 -7.1 L12.65 -7.15 12.6 -7.25 12.6 -7.3 12.6 -7.35 12.5 -7.25 M15.25 -7.2 L15.15 -7.2 15.05 -7.1 15.0 -7.0 15.0 -6.95 14.95 -7.0 14.95 -7.05 15.05 -7.15 15.2 -7.25 15.3 -7.2 15.25 -7.2 M12.05 -7.65 Q12.05 -7.65 12.0 -7.65 L12.0 -7.6 11.95 -7.55 11.95 -7.5 11.95 -7.5 12.05 -7.55 12.05 -7.55 12.15 -7.55 12.15 -7.6 12.1 -7.65 12.05 -7.65" fill="#722c28" fill-rule="evenodd" stroke="none"/>
    <path d="M15.95 -5.65 L15.9 -5.65 Q15.85 -5.6 15.85 -5.55 15.85 -5.5 15.95 -5.45 L16.05 -5.35 Q16.05 -5.25 16.0 -5.2 L15.85 -5.1 15.5 -5.2 15.5 -5.25 15.2 -5.35 Q15.1 -5.35 15.05 -5.4 L15.0 -5.45 15.0 -5.65 14.95 -5.7 14.95 -5.85 15.05 -5.95 Q15.1 -6.05 15.05 -6.1 L15.05 -6.15 15.2 -6.15 15.2 -6.15 15.15 -6.2 15.15 -6.25 15.1 -6.3 Q14.95 -6.3 14.9 -6.4 L14.85 -6.45 14.95 -6.6 15.0 -6.7 15.0 -6.75 15.05 -6.75 15.0 -6.9 14.95 -6.85 14.85 -6.8 14.8 -6.75 14.75 -6.75 14.7 -6.7 14.6 -6.65 14.55 -6.65 14.6 -6.5 Q14.6 -6.45 14.7 -6.35 L14.7 -6.35 14.8 -6.15 Q14.8 -6.0 14.65 -6.0 L14.65 -6.0 Q14.45 -6.0 14.3 -6.15 14.2 -6.25 14.15 -6.3 L14.15 -6.35 14.15 -6.45 14.25 -6.55 14.35 -6.6 14.35 -6.7 14.4 -6.75 14.25 -6.8 14.2 -6.75 14.05 -6.75 14.0 -6.65 14.05 -6.55 14.1 -6.3 14.1 -6.3 14.15 -6.2 14.05 -6.25 14.0 -6.3 13.9 -6.4 13.85 -6.5 13.85 -6.15 13.85 -6.15 Q13.85 -6.05 14.0 -5.95 L14.05 -5.85 Q14.25 -5.65 14.45 -5.65 L14.55 -5.65 14.55 -5.65 14.4 -5.8 14.35 -5.85 14.35 -5.95 14.3 -6.1 14.45 -6.0 14.55 -5.9 14.55 -5.8 14.8 -5.7 14.85 -5.6 14.9 -5.45 15.05 -5.3 15.05 -5.2 15.0 -5.2 Q14.85 -5.2 14.75 -5.3 L14.6 -5.4 Q14.4 -5.35 14.3 -5.45 14.1 -5.55 14.05 -5.75 L14.0 -5.75 Q13.95 -5.85 13.8 -5.9 L13.75 -5.65 13.55 -5.75 13.4 -5.9 13.45 -5.95 13.45 -6.05 13.4 -6.25 Q13.3 -6.45 13.3 -6.5 L13.35 -6.7 13.4 -6.8 13.35 -6.85 13.2 -6.9 Q13.05 -6.95 13.0 -7.0 L13.0 -7.05 13.0 -7.1 12.95 -7.25 Q12.95 -7.4 13.0 -7.45 L13.05 -7.45 13.15 -7.45 13.25 -7.45 13.25 -7.55 13.3 -7.6 Q13.45 -7.65 13.45 -7.7 L13.4 -7.75 13.4 -7.9 13.35 -7.9 13.3 -7.95 Q13.1 -8.05 13.05 -8.2 L13.2 -8.25 Q13.3 -8.25 13.3 -8.3 L13.25 -8.35 13.3 -8.4 13.3 -8.45 13.35 -8.5 13.3 -8.6 13.25 -8.65 13.15 -8.6 13.05 -8.6 13.0 -8.6 12.9 -8.7 12.85 -8.7 12.75 -8.75 Q12.5 -8.8 12.5 -9.1 12.5 -9.15 12.6 -9.2 L12.75 -9.35 12.8 -9.5 12.85 -9.6 12.85 -9.6 Q12.8 -9.75 12.8 -9.9 L12.8 -10.0 Q12.8 -10.2 12.95 -10.35 L13.05 -10.45 13.1 -10.55 13.15 -10.75 13.2 -10.8 13.25 -11.05 13.25 -11.4 Q13.25 -11.5 13.35 -11.6 13.45 -11.7 13.6 -11.75 L13.75 -11.85 13.8 -11.9 13.8 -11.8 13.9 -11.6 13.9 -11.65 13.95 -11.55 13.95 -11.45 13.85 -11.2 13.85 -11.2 13.75 -11.1 13.7 -11.1 13.75 -11.1 13.8 -11.1 13.85 -11.15 13.9 -11.15 13.95 -11.15 13.95 -11.15 Q13.95 -11.05 13.95 -10.9 L13.95 -10.9 Q13.95 -10.8 13.85 -10.75 L13.75 -10.65 13.75 -10.65 13.8 -10.65 Q13.95 -10.65 13.95 -10.75 L14.15 -11.2 14.15 -11.3 14.1 -11.3 14.15 -11.4 14.2 -11.55 14.3 -11.45 14.3 -11.0 14.3 -10.95 14.2 -10.75 14.2 -10.75 14.05 -10.5 14.0 -10.3 Q13.95 -10.2 13.8 -10.2 L13.7 -10.2 13.65 -10.3 13.7 -10.5 13.65 -10.6 13.6 -10.65 Q13.5 -10.75 13.5 -10.8 L13.55 -10.95 Q13.6 -10.95 13.6 -11.05 L13.6 -11.25 13.5 -11.2 13.4 -11.15 13.4 -11.0 Q13.45 -11.0 13.5 -10.95 13.4 -10.9 13.4 -10.65 13.4 -10.45 13.25 -10.4 L13.2 -10.4 Q13.25 -10.3 13.35 -10.25 13.4 -10.2 13.4 -10.1 L13.4 -10.1 13.2 -9.65 13.2 -9.4 Q13.15 -9.3 13.05 -9.3 L13.0 -9.3 13.0 -9.2 13.0 -9.15 13.05 -9.1 13.1 -9.1 13.15 -9.1 13.15 -9.1 13.2 -9.1 13.3 -9.05 Q13.45 -9.25 13.45 -9.35 L13.4 -9.45 13.4 -9.55 13.45 -9.6 13.5 -9.65 13.4 -9.75 Q13.35 -9.8 13.35 -9.85 L13.45 -9.95 13.55 -10.05 13.6 -10.0 13.65 -10.0 13.75 -10.05 13.85 -10.1 13.9 -10.15 13.9 -10.15 14.0 -10.1 14.1 -10.1 14.15 -10.15 14.2 -10.15 14.25 -10.2 14.25 -10.25 14.3 -10.4 14.35 -10.5 14.35 -10.65 14.45 -10.7 Q14.55 -10.7 14.6 -10.75 L14.6 -10.8 14.6 -10.9 14.75 -10.9 Q14.95 -10.9 14.95 -10.75 L14.95 -10.6 14.9 -10.75 14.8 -10.75 Q14.6 -10.75 14.6 -10.55 L14.55 -10.45 14.45 -10.3 14.5 -10.3 Q14.55 -10.2 14.75 -10.2 L14.95 -10.25 15.0 -10.3 Q14.9 -10.3 14.95 -10.45 L15.0 -10.45 15.1 -10.4 15.15 -10.4 15.1 -10.35 15.15 -10.35 15.15 -10.3 15.05 -10.2 15.1 -10.2 15.15 -10.2 15.25 -10.25 15.3 -10.3 15.45 -10.15 15.35 -10.0 15.3 -10.05 15.2 -10.15 Q15.15 -10.15 15.1 -10.1 L15.1 -10.1 15.05 -10.1 15.0 -10.05 14.95 -10.0 14.95 -9.95 14.95 -9.9 14.9 -9.85 14.95 -9.8 15.0 -9.75 15.05 -9.8 15.0 -9.75 15.0 -9.7 14.95 -9.6 14.95 -9.55 14.9 -9.55 14.95 -9.5 14.95 -9.5 15.05 -9.55 15.05 -9.55 15.1 -9.5 15.15 -9.5 15.15 -9.45 15.1 -9.35 15.05 -9.35 15.0 -9.35 Q14.95 -9.35 14.9 -9.4 L14.8 -9.45 14.7 -9.4 14.65 -9.4 14.55 -9.4 14.45 -9.45 14.4 -9.45 14.35 -9.45 14.35 -9.45 14.3 -9.45 14.3 -9.45 Q14.3 -9.45 14.25 -9.45 L14.25 -9.4 14.2 -9.35 14.25 -9.35 14.25 -9.3 14.35 -9.3 14.45 -9.2 14.4 -9.15 14.35 -9.15 14.3 -9.1 14.25 -9.1 14.2 -9.05 14.2 -9.05 14.15 -9.0 14.15 -8.95 14.05 -8.9 13.9 -8.85 13.85 -8.8 13.85 -8.8 13.75 -8.7 13.8 -8.65 13.8 -8.55 13.75 -8.5 13.75 -8.45 13.8 -8.5 13.85 -8.5 13.9 -8.5 14.1 -8.45 14.05 -8.5 14.0 -8.55 13.9 -8.6 Q13.85 -8.65 13.85 -8.7 L13.9 -8.7 13.95 -8.75 14.0 -8.75 14.0 -8.75 14.05 -8.75 14.05 -8.75 14.1 -8.8 14.1 -8.8 14.15 -8.85 14.2 -8.9 14.25 -9.0 14.3 -9.0 14.4 -9.05 14.45 -9.05 14.5 -9.05 14.65 -9.15 14.85 -9.2 Q14.9 -9.2 14.9 -9.15 L14.95 -9.1 15.05 -9.05 15.05 -9.05 15.1 -9.0 15.1 -8.9 15.15 -8.85 15.1 -8.8 15.0 -8.8 15.0 -8.8 14.95 -8.8 14.9 -8.85 Q14.85 -8.85 14.75 -8.75 L14.75 -8.75 Q14.7 -8.7 14.7 -8.65 14.7 -8.55 14.6 -8.55 14.45 -8.6 14.45 -8.5 L14.45 -8.45 14.55 -8.45 14.6 -8.4 14.6 -8.35 14.65 -8.35 14.7 -8.3 14.75 -8.35 14.75 -8.35 14.7 -8.4 14.7 -8.5 14.75 -8.55 14.85 -8.6 Q14.95 -8.6 14.95 -8.55 L14.95 -8.5 15.0 -8.45 15.05 -8.45 15.05 -8.4 Q15.1 -8.4 15.1 -8.4 L15.2 -8.4 15.25 -8.4 Q15.1 -8.45 15.1 -8.5 L15.1 -8.55 15.1 -8.65 15.25 -8.7 15.3 -8.7 15.3 -8.65 Q15.3 -8.6 15.35 -8.6 L15.4 -8.6 15.45 -8.5 Q15.5 -8.5 15.55 -8.5 L15.6 -8.5 15.65 -8.5 15.7 -8.5 15.8 -8.45 15.85 -8.45 15.85 -8.5 15.9 -8.5 15.85 -8.55 15.8 -8.55 Q15.75 -8.55 15.75 -8.6 L15.75 -8.6 15.85 -8.7 15.85 -8.7 15.8 -8.7 15.75 -8.7 15.7 -8.7 15.7 -8.7 15.65 -8.7 15.6 -8.75 15.55 -8.8 15.6 -8.85 15.6 -8.85 15.65 -8.85 15.75 -8.85 15.8 -8.8 15.85 -8.85 15.85 -8.85 15.7 -8.9 Q15.6 -8.95 15.6 -9.0 L15.65 -9.1 15.65 -9.2 Q15.7 -9.25 15.75 -9.25 L15.9 -9.3 16.0 -9.25 Q16.05 -9.15 16.1 -9.15 L16.15 -9.15 16.2 -9.2 16.3 -9.25 16.45 -9.1 16.55 -8.95 16.5 -8.9 16.45 -8.8 16.6 -8.8 16.65 -8.7 16.65 -8.65 Q16.7 -8.6 16.75 -8.6 L16.85 -8.6 16.9 -8.6 17.0 -8.6 17.1 -8.5 17.1 -8.45 17.2 -8.4 17.25 -8.4 17.3 -8.35 17.3 -8.3 17.4 -8.2 17.45 -8.1 17.4 -8.1 17.35 -8.1 17.25 -8.05 17.2 -8.1 17.15 -8.15 17.1 -8.1 17.0 -8.05 16.75 -8.15 16.6 -8.1 16.55 -8.05 Q16.55 -8.0 16.6 -7.9 L16.65 -7.8 16.6 -7.75 16.6 -7.7 16.6 -7.65 16.55 -7.5 16.45 -7.45 16.45 -7.45 16.35 -7.45 16.2 -7.45 Q16.15 -7.45 16.05 -7.5 L16.0 -7.55 16.0 -7.55 15.95 -7.55 15.9 -7.45 15.95 -7.35 16.0 -7.3 16.0 -7.2 16.0 -7.1 15.9 -7.1 15.8 -7.05 15.75 -7.1 15.7 -7.1 15.7 -7.1 15.45 -7.1 15.45 -7.1 Q15.45 -7.05 15.55 -7.05 L15.65 -7.0 Q15.65 -6.8 15.75 -6.8 L15.9 -6.85 15.9 -6.85 16.0 -6.75 Q16.0 -6.7 16.0 -6.7 L16.15 -6.65 16.2 -6.65 16.4 -6.65 16.4 -6.6 Q16.4 -6.5 16.15 -6.5 L16.15 -6.5 Q16.5 -6.25 16.5 -6.15 L16.45 -6.0 Q16.4 -5.95 16.3 -5.95 L16.0 -6.0 15.95 -6.05 15.9 -6.05 15.75 -6.2 15.65 -6.3 15.55 -6.15 Q15.6 -6.05 15.45 -6.05 L15.35 -6.05 15.35 -6.05 15.4 -6.05 15.4 -6.0 15.55 -6.0 15.7 -6.0 15.9 -5.95 15.95 -5.9 16.0 -5.7 15.95 -5.65 M16.15 -6.65 L16.1 -6.65 15.95 -6.6 15.9 -6.6 15.9 -6.6 Q16.0 -6.55 16.05 -6.5 L16.1 -6.5 16.15 -6.5 16.2 -6.55 16.2 -6.6 16.15 -6.65 M14.05 -10.0 L13.95 -10.05 Q13.85 -10.05 13.75 -9.95 L13.55 -9.8 Q13.6 -9.75 13.7 -9.7 L13.75 -9.65 13.8 -9.6 13.95 -9.65 14.1 -9.65 14.2 -9.65 14.2 -9.7 14.1 -9.75 Q13.95 -9.8 13.95 -9.85 L14.0 -9.9 14.05 -9.95 14.05 -10.0 M14.15 -10.0 L14.15 -10.0 14.1 -9.95 14.15 -9.9 14.15 -9.85 14.1 -9.8 Q14.1 -9.8 14.15 -9.8 L14.2 -9.8 14.25 -9.8 14.3 -9.8 14.35 -9.8 14.45 -9.8 14.55 -9.85 14.6 -9.85 14.6 -9.85 14.65 -9.85 14.7 -9.9 14.7 -9.9 14.75 -10.0 14.85 -10.0 14.95 -10.05 15.05 -10.15 14.9 -10.1 14.5 -10.1 14.25 -10.1 14.2 -10.1 14.2 -10.05 14.15 -10.0 M16.1 -9.1 L16.05 -9.05 16.0 -9.05 Q15.95 -9.05 15.9 -9.1 L15.85 -9.15 Q15.7 -9.15 15.7 -9.05 15.7 -9.0 15.9 -8.85 15.95 -8.85 16.0 -8.8 L16.05 -8.8 16.15 -8.75 16.25 -8.85 16.25 -8.95 Q16.3 -9.0 16.3 -9.0 L16.3 -9.0 16.1 -9.1 16.1 -9.1 M14.7 -9.7 L14.6 -9.75 14.5 -9.75 14.4 -9.7 14.45 -9.65 14.45 -9.65 14.55 -9.6 14.55 -9.6 14.7 -9.65 14.75 -9.7 14.7 -9.7 M14.35 -8.8 L14.35 -8.8 Q14.35 -8.8 14.45 -8.75 L14.55 -8.8 14.6 -8.8 14.65 -8.8 14.7 -8.85 Q14.65 -8.9 14.45 -9.0 L14.45 -8.95 14.4 -8.9 14.4 -8.85 14.35 -8.8 M14.85 -8.1 L14.85 -8.1 Q14.7 -8.1 14.7 -8.0 L14.8 -7.85 14.85 -7.65 14.85 -7.5 14.85 -7.45 15.0 -7.5 15.05 -7.6 15.05 -7.6 15.1 -7.85 Q15.1 -7.95 15.0 -8.0 L15.0 -8.05 14.85 -8.1 M14.3 -8.6 L14.25 -8.65 14.25 -8.65 14.15 -8.7 14.1 -8.65 14.05 -8.65 14.05 -8.6 Q14.1 -8.6 14.1 -8.6 L14.25 -8.6 14.3 -8.6 14.3 -8.6 M14.2 -8.25 L14.15 -8.25 14.05 -8.25 14.0 -8.25 Q13.9 -8.25 13.8 -8.35 13.75 -8.45 13.65 -8.45 L13.6 -8.4 13.55 -8.4 13.5 -8.35 13.45 -8.25 13.4 -8.2 Q13.4 -8.1 13.5 -8.1 L13.7 -8.1 13.75 -8.0 13.8 -7.9 13.85 -7.9 Q14.0 -7.9 14.05 -8.0 L14.15 -8.1 14.2 -8.2 14.2 -8.25 M14.5 -7.75 L14.5 -7.75 14.4 -7.75 14.35 -7.75 14.35 -7.75 14.4 -7.7 14.4 -7.7 14.5 -7.7 14.6 -7.65 14.7 -7.7 14.7 -7.75 14.7 -7.75 Q14.7 -7.75 14.65 -7.75 L14.6 -7.75 14.5 -7.75 M14.3 -7.55 L14.15 -7.65 14.1 -7.75 13.9 -7.8 13.8 -7.8 13.65 -7.75 13.55 -7.6 13.7 -7.55 13.75 -7.55 13.9 -7.6 14.05 -7.6 14.15 -7.6 14.25 -7.55 14.3 -7.55 M16.1 -8.55 L16.1 -8.55 16.05 -8.45 16.05 -8.35 16.1 -8.4 16.15 -8.45 16.25 -8.5 16.2 -8.55 16.1 -8.55 M15.85 -8.25 L15.8 -8.25 15.7 -8.25 15.65 -8.3 15.6 -8.25 15.6 -8.25 Q15.6 -8.2 15.65 -8.2 L15.65 -8.15 15.75 -8.15 Q15.8 -8.15 15.85 -8.2 L15.85 -8.25 M16.05 -8.05 L16.05 -7.95 15.95 -7.95 15.9 -7.95 15.9 -7.95 16.0 -7.9 16.0 -7.85 16.05 -7.85 16.1 -7.8 16.05 -7.7 16.0 -7.65 16.0 -7.65 15.95 -7.65 15.9 -7.7 15.95 -7.65 15.95 -7.65 16.0 -7.6 16.05 -7.6 16.1 -7.55 16.2 -7.55 Q16.3 -7.55 16.35 -7.65 L16.45 -7.8 16.55 -8.05 16.45 -8.15 16.4 -8.25 16.4 -8.3 16.3 -8.4 16.25 -8.4 16.2 -8.35 16.15 -8.35 16.15 -8.3 16.2 -8.3 16.1 -8.2 Q16.05 -8.15 16.05 -8.05 M15.45 -8.2 L15.4 -8.25 15.35 -8.25 15.35 -8.15 15.35 -8.1 15.4 -8.15 15.45 -8.2 M15.5 -7.9 L15.45 -8.0 15.4 -8.0 15.35 -8.0 15.4 -7.95 15.3 -7.8 15.3 -7.8 15.2 -7.65 Q15.2 -7.6 15.25 -7.6 L15.35 -7.55 15.45 -7.45 15.5 -7.45 15.6 -7.45 15.6 -7.55 15.55 -7.6 15.5 -7.65 15.5 -7.7 15.55 -7.75 15.65 -7.8 15.7 -7.8 15.9 -7.85 15.95 -7.85 15.85 -7.9 15.75 -7.9 15.65 -7.9 15.55 -7.9 15.5 -7.9 15.5 -7.9 M15.75 -7.45 L15.65 -7.45 15.65 -7.4 15.65 -7.35 15.65 -7.3 15.7 -7.35 15.75 -7.4 15.8 -7.5 15.75 -7.45 M13.85 -9.4 L13.95 -9.45 14.0 -9.45 13.95 -9.5 13.95 -9.5 13.8 -9.55 13.7 -9.5 13.65 -9.5 13.55 -9.4 13.55 -9.35 13.6 -9.3 13.65 -9.2 13.75 -9.2 13.8 -9.25 13.85 -9.3 13.85 -9.4 M13.3 -8.7 L13.4 -8.7 13.5 -8.75 13.55 -8.8 Q13.55 -8.9 13.6 -8.9 L13.75 -8.95 13.7 -8.95 13.6 -9.05 13.4 -9.0 Q13.35 -8.95 13.35 -8.9 L13.3 -8.9 13.3 -8.85 Q13.25 -8.85 13.25 -8.9 L13.2 -8.95 13.05 -8.9 Q13.0 -8.9 13.0 -8.95 L12.95 -9.0 12.9 -8.95 12.85 -8.95 Q12.85 -8.85 13.0 -8.85 L13.0 -8.8 13.15 -8.8 13.25 -8.75 13.3 -8.7 M14.05 -9.2 L13.9 -9.2 13.9 -9.0 13.9 -9.0 Q14.0 -9.0 14.1 -9.1 L14.1 -9.15 14.05 -9.2 M12.95 -8.6 L12.9 -8.55 Q12.8 -8.55 12.8 -8.5 L12.85 -8.4 12.75 -8.35 12.75 -8.4 Q12.7 -8.4 12.7 -8.4 L12.6 -8.45 12.6 -8.5 12.65 -8.55 12.8 -8.6 12.8 -8.6 12.85 -8.6 12.95 -8.6 M13.0 -8.05 Q13.0 -7.95 12.9 -7.85 12.8 -7.75 12.7 -7.75 L12.55 -7.8 12.45 -7.9 12.5 -7.95 Q12.55 -8.0 12.55 -8.0 L12.6 -8.0 12.65 -7.95 12.65 -7.95 12.7 -7.95 Q12.75 -7.95 12.9 -8.0 L13.0 -8.05 13.0 -8.05 M12.3 -8.4 L12.35 -8.4 12.35 -8.4 12.4 -8.35 12.4 -8.3 Q12.4 -8.3 12.3 -8.3 L12.3 -8.3 12.25 -8.35 12.3 -8.35 12.3 -8.4 M13.9 -7.55 Q13.9 -7.45 13.8 -7.4 L13.7 -7.3 13.55 -7.25 13.65 -7.2 13.65 -7.2 13.7 -7.2 Q13.8 -7.2 13.9 -7.3 L13.95 -7.35 13.95 -7.45 13.9 -7.55 13.9 -7.55 M13.9 -6.95 L14.0 -7.0 13.85 -7.05 13.8 -7.0 13.8 -7.0 13.75 -7.0 13.65 -7.0 13.6 -7.05 13.55 -7.05 13.5 -7.05 Q13.45 -7.1 13.4 -7.1 L13.4 -7.2 13.35 -7.2 13.3 -7.15 13.25 -7.1 13.35 -7.0 13.45 -6.95 13.45 -6.9 13.5 -6.85 13.55 -6.8 13.6 -6.8 13.8 -6.85 13.9 -6.95 M14.1 -7.05 L14.2 -6.95 14.25 -6.9 14.3 -6.85 14.3 -6.85 14.35 -6.8 14.35 -6.8 14.55 -6.85 14.7 -6.9 14.65 -6.95 14.55 -7.0 14.55 -7.0 14.45 -6.95 Q14.45 -6.95 14.4 -7.0 L14.4 -7.1 14.35 -7.25 14.35 -7.25 14.3 -7.2 14.25 -7.1 14.15 -7.05 Q14.15 -7.05 14.1 -7.05 M12.5 -7.25 L12.6 -7.35 12.6 -7.3 12.6 -7.25 12.65 -7.15 12.7 -7.1 Q12.7 -7.0 12.45 -6.85 L12.3 -6.9 12.25 -6.95 12.2 -7.0 12.2 -7.0 12.25 -7.1 12.25 -7.15 12.3 -7.1 12.35 -7.1 12.4 -7.1 12.45 -7.15 12.5 -7.25 M15.25 -7.2 L15.3 -7.2 15.2 -7.25 15.05 -7.15 14.95 -7.05 14.95 -7.0 15.0 -6.95 15.0 -7.0 15.05 -7.1 15.15 -7.2 15.25 -7.2 M15.4 -6.95 L15.4 -6.9 15.35 -6.75 15.35 -6.65 Q15.35 -6.5 15.45 -6.5 L15.55 -6.55 Q15.65 -6.6 15.65 -6.7 L15.45 -6.9 15.4 -6.95 M15.5 -6.6 L15.45 -6.65 15.5 -6.65 15.5 -6.6 M16.0 -6.4 L16.0 -6.4 15.9 -6.25 Q15.9 -6.15 16.0 -6.1 L16.0 -6.1 16.15 -6.05 16.25 -6.1 16.3 -6.2 16.1 -6.35 16.05 -6.35 16.0 -6.4 M15.15 -7.35 L15.25 -7.35 15.15 -7.45 15.1 -7.4 15.0 -7.35 14.95 -7.35 14.8 -7.3 14.7 -7.3 14.6 -7.35 14.55 -7.3 14.55 -7.3 Q14.55 -7.2 14.6 -7.2 L14.6 -7.2 14.75 -7.15 Q14.8 -7.15 15.05 -7.3 L15.1 -7.3 15.15 -7.35 M15.75 -5.65 L15.7 -5.75 15.55 -5.9 15.55 -5.8 15.4 -5.7 15.35 -5.65 15.4 -5.55 15.45 -5.45 15.65 -5.2 15.75 -5.25 15.8 -5.3 15.7 -5.45 Q15.6 -5.55 15.65 -5.55 L15.75 -5.65 M12.05 -7.65 L12.1 -7.65 12.15 -7.6 12.15 -7.55 12.05 -7.55 12.05 -7.55 11.95 -7.5 11.95 -7.5 11.95 -7.55 12.0 -7.6 12.0 -7.65 Q12.05 -7.65 12.05 -7.65 M16.85 -8.45 L16.7 -8.45 16.65 -8.45 16.65 -8.45 16.6 -8.45 16.65 -8.45 16.65 -8.4 16.7 -8.4 16.65 -8.3 16.7 -8.25 Q16.75 -8.2 16.8 -8.15 L16.95 -8.25 16.95 -8.45 16.85 -8.45" fill="#b97814" fill-rule="evenodd" stroke="none"/>
    <path d="M14.15 -6.2 L14.25 -6.1 14.3 -6.1 14.35 -5.95 14.35 -5.85 14.4 -5.8 14.55 -5.65 14.55 -5.65 14.45 -5.65 Q14.25 -5.65 14.05 -5.85 L14.0 -5.95 Q13.85 -6.05 13.85 -6.15 L13.85 -6.15 13.85 -6.5 13.9 -6.4 14.0 -6.3 14.05 -6.25 14.15 -6.2 M15.35 -10.0 L15.3 -9.95 15.25 -9.95 15.25 -9.95 15.2 -9.95 15.15 -9.9 15.15 -9.85 15.05 -9.8 15.05 -9.8 15.0 -9.75 14.95 -9.8 14.9 -9.85 14.95 -9.9 14.95 -9.95 14.95 -10.0 15.0 -10.05 15.05 -10.1 15.1 -10.1 15.1 -10.1 Q15.15 -10.15 15.2 -10.15 L15.3 -10.05 15.35 -10.0 M16.15 -6.65 L16.2 -6.6 16.2 -6.55 16.15 -6.5 16.1 -6.5 16.05 -6.5 Q16.0 -6.55 15.9 -6.6 L15.9 -6.6 15.95 -6.6 16.1 -6.65 16.15 -6.65 M13.5 -10.95 Q13.45 -11.0 13.4 -11.0 L13.4 -11.15 13.5 -11.2 13.6 -11.25 13.6 -11.05 Q13.6 -10.95 13.55 -10.95 L13.55 -11.0 13.5 -10.95 M13.95 -11.15 L14.0 -11.15 14.1 -11.3 14.15 -11.3 14.15 -11.2 13.95 -10.75 Q13.95 -10.65 13.8 -10.65 L13.75 -10.65 13.75 -10.65 13.85 -10.75 Q13.95 -10.8 13.95 -10.9 L13.95 -10.9 Q13.95 -11.05 13.95 -11.15 L13.95 -11.15 M14.95 -10.6 L14.9 -10.6 14.85 -10.5 14.85 -10.45 14.9 -10.45 14.95 -10.45 Q14.9 -10.3 15.0 -10.3 L14.95 -10.25 14.75 -10.2 Q14.55 -10.2 14.5 -10.3 L14.45 -10.3 14.55 -10.45 14.6 -10.55 Q14.6 -10.75 14.8 -10.75 L14.9 -10.75 14.95 -10.6 M14.05 -10.0 L14.05 -9.95 14.0 -9.9 13.95 -9.85 Q13.95 -9.8 14.1 -9.75 L14.2 -9.7 14.2 -9.65 14.1 -9.65 13.95 -9.65 13.8 -9.6 13.75 -9.65 13.7 -9.7 Q13.6 -9.75 13.55 -9.8 L13.75 -9.95 Q13.85 -10.05 13.95 -10.05 L14.05 -10.0 M14.35 -8.8 L14.4 -8.85 14.4 -8.9 14.45 -8.95 14.45 -9.0 Q14.65 -8.9 14.7 -8.85 L14.65 -8.8 14.6 -8.8 14.55 -8.8 14.45 -8.75 Q14.35 -8.8 14.35 -8.8 L14.35 -8.8 M14.7 -9.7 L14.75 -9.7 14.7 -9.65 14.55 -9.6 14.55 -9.6 14.45 -9.65 14.45 -9.65 14.4 -9.7 14.5 -9.75 14.6 -9.75 14.7 -9.7 M16.1 -9.1 L16.1 -9.1 16.3 -9.0 16.3 -9.0 Q16.3 -9.0 16.25 -8.95 L16.25 -8.85 16.15 -8.75 16.05 -8.8 16.0 -8.8 Q15.95 -8.85 15.9 -8.85 15.7 -9.0 15.7 -9.05 15.7 -9.15 15.85 -9.15 L15.9 -9.1 Q15.95 -9.05 16.0 -9.05 L16.05 -9.05 16.1 -9.1 M14.85 -8.1 L15.0 -8.05 15.0 -8.0 Q15.1 -7.95 15.1 -7.85 L15.05 -7.6 15.05 -7.6 15.0 -7.5 14.85 -7.45 14.85 -7.5 14.85 -7.65 14.8 -7.85 14.7 -8.0 Q14.7 -8.1 14.85 -8.1 L14.85 -8.1 M14.2 -8.25 L14.2 -8.2 14.15 -8.1 14.05 -8.0 Q14.0 -7.9 13.85 -7.9 L13.8 -7.9 13.75 -8.0 13.7 -8.1 13.5 -8.1 Q13.4 -8.1 13.4 -8.2 L13.45 -8.25 13.5 -8.35 13.55 -8.4 13.6 -8.4 13.65 -8.45 Q13.75 -8.45 13.8 -8.35 13.9 -8.25 14.0 -8.25 L14.05 -8.25 14.15 -8.25 14.2 -8.25 M14.3 -8.6 L14.3 -8.6 14.25 -8.6 14.1 -8.6 Q14.1 -8.6 14.05 -8.6 L14.05 -8.65 14.1 -8.65 14.15 -8.7 14.25 -8.65 14.25 -8.65 14.3 -8.6 M14.3 -7.55 L14.25 -7.55 14.15 -7.6 14.05 -7.6 13.9 -7.6 13.75 -7.55 13.7 -7.55 13.55 -7.6 13.65 -7.75 13.8 -7.8 13.9 -7.8 14.1 -7.75 14.15 -7.65 14.3 -7.55 M15.45 -8.2 L15.4 -8.15 15.35 -8.1 15.35 -8.15 15.35 -8.25 15.4 -8.25 15.45 -8.2 M16.05 -8.05 Q16.05 -8.15 16.1 -8.2 L16.2 -8.3 16.15 -8.3 16.15 -8.35 16.2 -8.35 16.25 -8.4 16.3 -8.4 16.4 -8.3 16.4 -8.25 16.45 -8.15 16.55 -8.05 16.45 -7.8 16.35 -7.65 Q16.3 -7.55 16.2 -7.55 L16.1 -7.55 16.05 -7.6 16.0 -7.6 15.95 -7.65 15.95 -7.65 15.9 -7.7 15.95 -7.65 16.0 -7.65 16.0 -7.65 16.05 -7.7 16.1 -7.8 16.05 -7.85 16.0 -7.85 16.0 -7.9 15.9 -7.95 15.9 -7.95 15.95 -7.95 16.05 -7.95 16.05 -8.05 M15.85 -8.25 L15.85 -8.2 Q15.8 -8.15 15.75 -8.15 L15.65 -8.15 15.65 -8.2 Q15.6 -8.2 15.6 -8.25 L15.6 -8.25 15.65 -8.3 15.7 -8.25 15.8 -8.25 15.85 -8.25 M14.05 -9.2 L14.1 -9.15 14.1 -9.1 Q14.0 -9.0 13.9 -9.0 L13.9 -9.0 13.9 -9.2 14.05 -9.2 M13.3 -8.7 L13.25 -8.75 13.15 -8.8 13.0 -8.8 13.0 -8.85 Q12.85 -8.85 12.85 -8.95 L12.9 -8.95 12.95 -9.0 13.0 -8.95 Q13.0 -8.9 13.05 -8.9 L13.2 -8.95 13.25 -8.9 Q13.25 -8.85 13.3 -8.85 L13.3 -8.9 13.35 -8.9 Q13.35 -8.95 13.4 -9.0 L13.6 -9.05 13.7 -8.95 13.75 -8.95 13.6 -8.9 Q13.55 -8.9 13.55 -8.8 L13.5 -8.75 13.4 -8.7 13.3 -8.7 M13.85 -9.4 L13.85 -9.3 13.8 -9.25 13.75 -9.2 13.65 -9.2 13.6 -9.3 13.55 -9.35 13.55 -9.4 13.65 -9.5 13.7 -9.5 13.8 -9.55 13.95 -9.5 13.95 -9.5 14.0 -9.45 13.95 -9.45 13.85 -9.4 M15.75 -7.45 L15.8 -7.5 15.75 -7.4 15.7 -7.35 15.65 -7.3 15.65 -7.35 15.65 -7.4 15.65 -7.45 15.75 -7.45 M14.1 -7.05 Q14.15 -7.05 14.15 -7.05 L14.25 -7.1 14.3 -7.2 14.35 -7.25 14.35 -7.25 14.4 -7.1 14.4 -7.0 Q14.45 -6.95 14.45 -6.95 L14.55 -7.0 14.55 -7.0 14.65 -6.95 14.7 -6.9 14.55 -6.85 14.35 -6.8 14.35 -6.8 14.3 -6.85 14.3 -6.85 14.25 -6.9 14.2 -6.95 14.1 -7.05 M13.9 -6.95 L13.8 -6.85 13.6 -6.8 13.55 -6.8 13.5 -6.85 13.45 -6.9 13.45 -6.95 13.35 -7.0 13.25 -7.1 13.3 -7.15 13.35 -7.2 13.4 -7.2 13.4 -7.1 Q13.45 -7.1 13.5 -7.05 L13.55 -7.05 13.6 -7.05 13.65 -7.0 13.75 -7.0 13.8 -7.0 13.8 -7.0 13.85 -7.05 14.0 -7.0 13.9 -6.95 M15.4 -6.95 L15.45 -6.9 15.65 -6.7 Q15.65 -6.6 15.55 -6.55 L15.45 -6.5 Q15.35 -6.5 15.35 -6.65 L15.35 -6.75 15.4 -6.9 15.4 -6.95 M15.5 -6.6 L15.5 -6.65 15.45 -6.65 15.5 -6.6 M16.0 -6.4 L16.05 -6.35 16.1 -6.35 16.3 -6.2 16.25 -6.1 16.15 -6.05 16.0 -6.1 16.0 -6.1 Q15.9 -6.15 15.9 -6.25 L16.0 -6.4 16.0 -6.4 M15.15 -7.35 L15.1 -7.3 15.05 -7.3 Q14.8 -7.15 14.75 -7.15 L14.6 -7.2 14.6 -7.2 Q14.55 -7.2 14.55 -7.3 L14.55 -7.3 14.6 -7.35 14.7 -7.3 14.8 -7.3 14.95 -7.35 15.0 -7.35 15.1 -7.4 15.15 -7.45 15.25 -7.35 15.15 -7.35 M15.75 -5.65 L15.65 -5.55 Q15.6 -5.55 15.7 -5.45 L15.8 -5.3 15.75 -5.25 15.65 -5.2 15.45 -5.45 15.4 -5.55 15.35 -5.65 15.4 -5.7 15.55 -5.8 15.55 -5.9 15.7 -5.75 15.75 -5.65 M16.85 -8.45 L16.95 -8.45 16.95 -8.25 16.8 -8.15 Q16.75 -8.2 16.7 -8.25 L16.65 -8.3 16.7 -8.4 16.65 -8.4 16.65 -8.45 16.6 -8.45 16.65 -8.45 16.65 -8.45 16.7 -8.45 16.85 -8.45" fill="#ffe693" fill-rule="evenodd" stroke="none"/>
  </g>
</svg>
