<?xml version="1.0" encoding="UTF-8" standalone="no"?>
<svg xmlns:xlink="http://www.w3.org/1999/xlink" height="3.45px" width="2.25px" xmlns="http://www.w3.org/2000/svg">
  <g transform="matrix(1.0, 0.0, 0.0, 1.0, -12.6, 11.95)">
    <path d="M13.85 -10.6 L13.9 -10.6 13.9 -10.55 13.85 -10.5 13.85 -10.5 13.8 -10.55 13.8 -10.55 13.85 -10.6 M12.85 -11.95 L12.9 -11.9 12.85 -11.9 12.85 -11.85 12.8 -11.9 12.85 -11.95 12.85 -11.95 M14.1 -11.65 L14.05 -11.7 14.05 -11.65 Q14.05 -11.6 14.0 -11.6 L14.0 -11.65 14.0 -11.65 14.05 -11.7 14.05 -11.7 14.1 -11.65 14.1 -11.65 M13.2 -11.4 L13.2 -11.35 13.15 -11.4 13.15 -11.4 13.2 -11.4 13.2 -11.4 M14.7 -11.9 L14.75 -11.9 14.75 -11.9 14.75 -11.85 14.7 -11.85 14.7 -11.85 14.65 -11.85 14.65 -11.85 14.7 -11.9 14.7 -11.9 M14.3 -10.55 L14.3 -10.5 14.25 -10.5 14.25 -10.55 14.2 -10.55 14.25 -10.55 14.3 -10.55 14.3 -10.55 M14.45 -9.0 L14.55 -9.0 14.55 -8.95 14.45 -8.95 14.45 -8.95 14.45 -9.0 M14.2 -9.5 L14.25 -9.45 14.2 -9.45 14.15 -9.45 14.15 -9.5 14.2 -9.5" fill="#421818" fill-rule="evenodd" stroke="none"/>
    <path d="M13.25 -10.0 L13.45 -10.05 Q13.5 -10.05 13.55 -9.95 L13.65 -9.9 13.75 -9.65 13.75 -9.65 13.7 -9.6 13.55 -9.6 13.55 -9.65 13.5 -9.75 13.45 -9.85 13.45 -9.85 13.35 -9.9 13.25 -9.85 13.1 -9.85 Q13.05 -9.85 13.05 -9.85 L13.15 -9.95 13.25 -10.0 M14.85 -9.7 L14.85 -9.65 14.8 -9.6 14.7 -9.55 14.65 -9.45 14.6 -9.45 14.55 -9.45 Q14.45 -9.45 14.4 -9.5 L14.5 -9.65 14.6 -9.7 14.65 -9.75 14.85 -9.7 M13.15 -8.9 L13.2 -8.85 13.25 -8.85 13.3 -8.8 13.35 -8.8 13.4 -8.8 13.45 -8.85 13.55 -8.85 13.6 -8.8 13.5 -8.65 13.45 -8.6 13.35 -8.55 13.15 -8.6 13.0 -8.55 13.0 -8.55 Q12.9 -8.5 12.75 -8.5 L12.65 -8.5 Q12.6 -8.5 12.6 -8.5 L12.6 -8.55 12.75 -8.7 12.8 -8.8 12.9 -8.8 13.05 -8.8 13.05 -8.8 13.1 -8.85 13.15 -8.9" fill="#2a2a27" fill-rule="evenodd" stroke="none"/>
  </g>
</svg>
