<?xml version="1.0" encoding="UTF-8" standalone="no"?>
<svg xmlns:xlink="http://www.w3.org/1999/xlink" height="5.35px" width="6.55px" xmlns="http://www.w3.org/2000/svg">
  <g transform="matrix(1.0, 0.0, 0.0, 1.0, -7.1, 12.6)">
    <path d="M10.0 -12.55 L10.0 -12.5 9.95 -12.45 9.95 -12.55 10.0 -12.55 10.0 -12.6 10.0 -12.55 10.0 -12.55 M10.0 -11.8 L10.0 -11.85 10.0 -11.9 10.05 -11.85 10.1 -11.75 10.05 -11.7 10.05 -11.65 10.0 -11.65 10.0 -11.8 M9.65 -11.9 L9.7 -11.95 9.75 -11.9 9.8 -11.85 9.75 -11.85 9.7 -11.85 9.65 -11.8 9.65 -11.85 9.65 -11.9 M9.7 -12.15 L9.7 -12.15 9.75 -12.15 9.85 -12.15 9.8 -12.15 9.7 -12.0 9.65 -12.0 9.7 -12.1 9.7 -12.15 M10.0 -12.05 L10.0 -12.15 10.1 -12.15 10.15 -12.15 10.15 -12.1 10.1 -12.05 10.05 -12.05 10.0 -12.05 M9.35 -12.2 L9.35 -12.15 9.3 -12.1 9.3 -12.1 9.25 -12.1 9.3 -12.15 9.3 -12.2 9.3 -12.2 9.35 -12.2 9.35 -12.2 M9.65 -11.25 L9.7 -11.25 9.75 -11.25 9.8 -11.3 9.8 -11.25 9.8 -11.25 9.8 -11.2 9.7 -11.2 9.7 -11.2 Q9.65 -11.2 9.65 -11.25 M9.55 -11.6 L9.55 -11.65 9.6 -11.65 9.6 -11.6 9.6 -11.55 9.55 -11.5 9.55 -11.45 9.5 -11.45 9.5 -11.6 9.5 -11.6 9.55 -11.6 M8.6 -11.75 L8.65 -11.7 8.6 -11.65 8.45 -11.7 8.45 -11.7 8.35 -11.8 8.4 -11.85 8.4 -11.8 8.45 -11.8 8.55 -11.8 8.6 -11.75 M8.2 -10.95 L8.15 -10.85 8.05 -10.8 8.1 -10.8 8.1 -10.9 8.15 -11.0 8.15 -11.05 8.2 -11.05 8.2 -11.05 8.25 -11.0 8.2 -10.95 M9.65 -10.95 L9.7 -10.95 9.7 -10.95 9.6 -10.9 9.55 -10.9 9.55 -10.9 9.4 -10.9 9.4 -10.9 9.3 -10.9 9.3 -10.9 9.35 -10.9 9.45 -10.95 9.45 -10.95 9.6 -11.0 9.6 -11.0 9.65 -10.95 M10.1 -11.1 L10.0 -11.1 10.0 -11.1 10.05 -11.1 10.1 -11.2 10.25 -11.2 10.3 -11.2 10.35 -11.2 10.35 -11.2 10.3 -11.15 10.25 -11.1 10.1 -11.1 M11.2 -11.45 Q11.15 -11.45 11.15 -11.5 L11.1 -11.45 11.1 -11.45 11.05 -11.45 11.05 -11.5 11.15 -11.5 11.15 -11.55 Q11.15 -11.6 11.15 -11.65 L11.2 -11.65 11.2 -11.6 11.3 -11.55 11.3 -11.45 11.2 -11.45 M12.15 -11.6 L12.15 -11.55 12.25 -11.55 12.25 -11.5 12.2 -11.45 12.2 -11.45 12.25 -11.4 12.25 -11.4 12.2 -11.4 12.15 -11.35 Q12.1 -11.35 12.1 -11.4 L12.1 -11.4 12.15 -11.4 12.1 -11.4 12.0 -11.4 11.95 -11.4 12.05 -11.5 12.15 -11.6 M11.15 -11.75 L11.15 -11.75 11.1 -11.7 11.0 -11.65 10.95 -11.65 10.9 -11.6 10.8 -11.6 10.85 -11.7 10.95 -11.75 11.05 -11.75 11.15 -11.75 M12.15 -11.15 L12.1 -11.15 12.15 -11.15 12.25 -11.25 12.25 -11.25 12.3 -11.25 12.35 -11.3 12.35 -11.25 12.25 -11.15 12.2 -11.15 12.15 -11.15 M10.95 -12.15 L10.85 -12.1 10.8 -12.05 10.8 -12.15 10.85 -12.15 10.85 -12.2 10.9 -12.2 10.95 -12.2 10.95 -12.15 M10.8 -11.85 L10.9 -11.85 10.9 -11.85 10.9 -11.8 10.85 -11.8 10.85 -11.75 10.8 -11.75 10.7 -11.7 10.7 -11.75 10.75 -11.75 10.8 -11.8 10.75 -11.85 10.8 -11.85 10.8 -11.85 M10.2 -12.1 L10.25 -12.1 10.2 -12.1 10.2 -12.05 10.15 -12.0 10.15 -12.0 10.15 -12.05 10.2 -12.1 M10.35 -11.85 L10.4 -11.85 10.45 -11.85 10.45 -11.85 10.4 -11.8 10.4 -11.75 10.35 -11.75 10.35 -11.85 M10.4 -11.5 L10.45 -11.45 10.45 -11.45 10.4 -11.45 10.4 -11.45 10.35 -11.4 10.35 -11.4 10.3 -11.35 10.2 -11.35 10.2 -11.4 10.25 -11.4 10.3 -11.45 10.3 -11.45 10.25 -11.45 10.3 -11.5 10.3 -11.5 10.35 -11.55 10.35 -11.55 10.4 -11.5 10.35 -11.5 10.4 -11.5 M10.65 -11.25 L10.65 -11.2 10.65 -11.15 10.7 -11.1 10.7 -11.05 10.65 -11.0 10.6 -11.0 Q10.5 -11.05 10.55 -11.1 L10.55 -11.15 10.6 -11.2 10.65 -11.25 M10.7 -10.35 L10.7 -10.35 10.6 -10.45 10.6 -10.45 10.65 -10.4 10.75 -10.4 10.9 -10.35 10.9 -10.35 10.95 -10.3 10.95 -10.3 10.85 -10.3 10.8 -10.3 10.7 -10.35 M10.55 -9.2 L10.65 -9.25 10.8 -9.2 10.9 -9.2 10.9 -9.15 10.85 -9.15 10.8 -9.1 10.7 -9.15 10.65 -9.15 10.55 -9.2 M10.95 -9.4 L10.95 -9.45 10.95 -9.5 10.8 -9.55 10.75 -9.6 10.8 -9.65 10.9 -9.6 10.95 -9.6 11.05 -9.55 11.15 -9.55 11.25 -9.5 11.3 -9.5 11.3 -9.5 11.4 -9.5 11.4 -9.5 11.45 -9.45 11.5 -9.4 11.45 -9.4 11.4 -9.4 11.3 -9.4 11.3 -9.4 11.15 -9.4 10.95 -9.4 M11.05 -9.8 L11.0 -9.8 10.9 -9.8 10.95 -9.85 10.95 -9.85 11.05 -9.85 11.1 -9.85 11.1 -9.8 11.05 -9.8 M11.7 -9.75 L11.8 -9.8 11.85 -9.8 11.9 -9.8 11.95 -9.75 11.95 -9.7 11.85 -9.7 11.8 -9.7 11.7 -9.7 11.7 -9.75 11.7 -9.75 M11.85 -10.0 L11.85 -9.9 11.8 -9.9 11.85 -9.9 11.8 -9.85 11.8 -9.85 11.75 -9.85 11.7 -9.85 11.75 -9.9 11.7 -9.9 11.65 -9.9 11.65 -9.95 Q11.6 -9.95 11.6 -9.95 L11.7 -10.0 11.7 -10.0 11.75 -10.0 11.75 -10.05 11.8 -10.05 11.9 -10.1 11.95 -10.1 11.95 -10.05 11.9 -10.05 11.85 -10.0 11.85 -10.0 M12.05 -10.85 L12.05 -10.85 Q12.0 -10.9 12.05 -10.9 L12.1 -10.9 12.1 -10.9 12.2 -10.9 12.2 -10.85 12.15 -10.85 12.15 -10.85 12.1 -10.8 12.05 -10.85 M12.1 -11.05 L12.15 -11.05 12.2 -11.0 12.1 -11.0 12.05 -10.95 11.9 -10.95 11.95 -11.0 12.05 -11.05 12.1 -11.05 M11.8 -11.05 L11.8 -11.05 11.85 -11.0 11.8 -10.95 11.75 -10.95 11.75 -10.95 11.65 -10.9 11.55 -10.9 Q11.5 -10.95 11.6 -11.0 L11.65 -11.05 11.65 -11.05 11.75 -11.1 11.8 -11.1 11.8 -11.05 M11.3 -10.5 L11.3 -10.45 11.25 -10.45 11.2 -10.45 11.15 -10.45 11.15 -10.45 Q11.1 -10.5 11.15 -10.5 L11.25 -10.5 11.25 -10.5 11.3 -10.5 11.3 -10.5 M11.4 -10.9 L11.45 -10.9 11.45 -10.85 11.4 -10.8 11.4 -10.8 11.3 -10.75 11.25 -10.75 11.25 -10.75 11.35 -10.85 11.35 -10.9 11.4 -10.9 11.4 -10.9 M11.7 -10.55 L11.75 -10.55 11.75 -10.45 11.55 -10.45 Q11.5 -10.5 11.5 -10.5 L11.65 -10.55 11.7 -10.55 11.75 -10.6 11.7 -10.55 M11.8 -10.75 L11.8 -10.7 11.85 -10.7 11.85 -10.65 11.75 -10.65 11.7 -10.7 11.65 -10.7 11.6 -10.7 11.55 -10.7 11.55 -10.7 11.55 -10.75 11.5 -10.8 11.45 -10.8 11.4 -10.8 11.5 -10.85 11.55 -10.85 11.55 -10.85 11.6 -10.85 11.6 -10.8 11.65 -10.8 11.65 -10.8 11.8 -10.8 11.8 -10.75 M11.95 -10.35 L11.95 -10.35 11.9 -10.35 11.9 -10.35 11.85 -10.35 11.85 -10.35 11.75 -10.35 Q11.7 -10.35 11.7 -10.4 L11.7 -10.4 11.75 -10.4 11.8 -10.4 11.85 -10.45 11.9 -10.4 11.9 -10.4 11.95 -10.35 M11.9 -10.25 L11.9 -10.2 11.85 -10.2 11.75 -10.2 11.75 -10.2 11.85 -10.25 11.9 -10.25 M12.55 -11.4 L12.55 -11.45 12.65 -11.45 12.7 -11.4 12.7 -11.35 12.65 -11.35 12.6 -11.35 12.55 -11.35 12.55 -11.4 M12.45 -11.2 L12.45 -11.2 12.5 -11.2 12.55 -11.15 12.5 -11.1 12.35 -11.1 12.25 -11.1 12.4 -11.2 12.45 -11.2 M13.05 -11.35 L13.1 -11.35 13.1 -11.35 13.05 -11.3 13.0 -11.3 12.95 -11.3 12.95 -11.3 13.0 -11.35 13.05 -11.35 13.05 -11.35 M12.7 -10.85 L12.65 -10.85 12.6 -10.85 12.6 -10.85 12.7 -10.9 12.75 -10.9 12.75 -10.9 12.7 -10.85 12.75 -10.8 12.8 -10.8 12.85 -10.75 12.85 -10.7 12.8 -10.7 12.8 -10.75 12.75 -10.75 Q12.75 -10.7 12.7 -10.7 L12.65 -10.7 12.55 -10.75 12.6 -10.8 12.65 -10.8 12.7 -10.75 12.7 -10.85 M12.7 -10.6 L12.6 -10.55 12.6 -10.55 12.55 -10.6 12.6 -10.65 12.7 -10.65 12.7 -10.6 12.7 -10.6 M12.2 -10.55 L12.2 -10.55 12.25 -10.6 12.3 -10.6 12.35 -10.6 12.35 -10.6 12.4 -10.6 12.35 -10.55 12.3 -10.55 12.25 -10.55 12.25 -10.55 12.2 -10.55 M12.6 -10.3 Q12.55 -10.35 12.65 -10.4 L12.65 -10.4 12.7 -10.45 12.75 -10.45 12.8 -10.45 12.85 -10.45 12.8 -10.45 12.75 -10.4 12.75 -10.35 12.7 -10.3 12.65 -10.25 12.6 -10.3 M12.95 -10.25 L13.0 -10.2 13.1 -10.2 13.1 -10.15 13.0 -10.15 12.9 -10.15 12.85 -10.2 12.8 -10.2 Q12.7 -10.2 12.7 -10.25 L12.8 -10.3 12.95 -10.25 M12.75 -10.0 L12.75 -10.0 12.8 -10.05 12.85 -10.0 12.85 -10.0 12.9 -10.0 12.85 -10.0 12.85 -10.0 12.75 -10.0 12.75 -10.0 M13.2 -10.55 L13.15 -10.55 13.15 -10.6 13.2 -10.6 13.25 -10.6 13.3 -10.6 13.3 -10.6 13.35 -10.6 13.35 -10.55 13.2 -10.55 M8.0 -11.8 L8.0 -11.75 8.0 -11.75 8.05 -11.7 8.05 -11.65 8.0 -11.6 7.95 -11.6 7.95 -11.7 7.9 -11.7 7.9 -11.75 7.95 -11.8 8.0 -11.8 M7.9 -11.3 L7.95 -11.3 7.95 -11.25 Q8.0 -11.25 8.0 -11.25 L7.95 -11.2 7.95 -11.2 7.9 -11.2 7.9 -11.25 7.9 -11.3 7.9 -11.3 M7.35 -11.3 L7.35 -11.35 7.4 -11.35 7.5 -11.3 7.55 -11.25 7.55 -11.2 7.55 -11.2 7.4 -11.3 7.4 -11.3 7.35 -11.3 7.35 -11.3 M7.2 -11.55 L7.2 -11.5 7.15 -11.5 7.1 -11.5 Q7.1 -11.5 7.1 -11.55 L7.1 -11.6 7.15 -11.6 7.2 -11.6 7.2 -11.55 M13.2 -9.7 L13.15 -9.7 Q13.1 -9.7 13.05 -9.7 L13.05 -9.75 13.15 -9.75 13.2 -9.75 13.2 -9.7 13.2 -9.7 M13.3 -9.5 L13.55 -9.5 13.6 -9.5 13.65 -9.5 13.65 -9.4 13.55 -9.4 13.45 -9.45 13.35 -9.45 13.3 -9.5 M13.55 -9.15 L13.5 -9.15 13.5 -9.2 13.45 -9.2 13.5 -9.2 13.55 -9.2 13.55 -9.2 13.6 -9.15 13.6 -9.2 13.65 -9.15 13.65 -9.15 13.6 -9.15 13.55 -9.15 M12.9 -9.45 Q12.85 -9.45 12.85 -9.5 L13.0 -9.45 13.1 -9.45 13.1 -9.45 13.1 -9.4 13.05 -9.35 13.05 -9.35 Q12.95 -9.4 12.9 -9.45 M12.65 -9.3 Q12.55 -9.3 12.55 -9.35 12.55 -9.4 12.65 -9.4 L12.75 -9.4 12.8 -9.4 12.9 -9.4 12.9 -9.35 12.8 -9.3 12.8 -9.3 12.75 -9.3 12.65 -9.3 M12.4 -9.85 L12.4 -9.8 12.2 -9.8 12.2 -9.8 12.2 -9.85 12.25 -9.85 12.25 -9.85 12.3 -9.85 12.35 -9.85 12.35 -9.85 12.4 -9.85 M12.2 -9.35 L12.2 -9.4 12.25 -9.35 12.3 -9.35 12.35 -9.35 12.35 -9.35 12.3 -9.3 12.3 -9.3 12.25 -9.3 12.2 -9.35 M12.55 -9.0 L12.65 -8.95 12.6 -8.95 12.6 -8.9 12.55 -8.9 12.5 -8.95 12.5 -9.0 12.55 -9.0 M12.2 -9.05 L12.25 -9.05 12.2 -9.05 12.2 -8.95 12.15 -8.95 Q12.05 -9.0 12.0 -9.05 L12.0 -9.1 12.15 -9.1 12.2 -9.05 M12.55 -9.1 L12.45 -9.15 12.4 -9.2 12.35 -9.2 12.35 -9.2 12.4 -9.25 12.55 -9.25 12.65 -9.15 12.6 -9.15 Q12.55 -9.1 12.55 -9.1 M12.3 -8.65 L12.35 -8.55 12.35 -8.5 12.4 -8.45 12.35 -8.4 12.3 -8.45 12.25 -8.55 12.25 -8.6 12.2 -8.6 12.15 -8.6 12.05 -8.65 12.05 -8.7 12.0 -8.7 11.95 -8.75 11.9 -8.75 11.95 -8.75 12.0 -8.75 12.0 -8.75 12.2 -8.75 12.3 -8.7 12.3 -8.7 12.3 -8.65 M12.6 -8.8 L12.6 -8.8 12.6 -8.8 12.65 -8.8 12.7 -8.8 12.7 -8.8 12.75 -8.8 12.75 -8.75 12.7 -8.75 12.65 -8.75 12.65 -8.8 12.6 -8.8 M13.05 -9.2 L13.1 -9.15 13.15 -9.15 13.1 -9.1 13.05 -9.1 12.95 -9.15 Q12.85 -9.15 12.85 -9.2 L12.9 -9.2 13.05 -9.2 M12.95 -9.1 L12.95 -9.05 12.9 -9.05 12.85 -9.1 12.8 -9.1 12.8 -9.15 12.9 -9.1 12.95 -9.1 M12.95 -8.6 L13.0 -8.6 13.0 -8.55 12.95 -8.5 12.95 -8.5 12.85 -8.6 12.85 -8.65 12.85 -8.65 12.9 -8.65 12.9 -8.65 12.95 -8.6 12.95 -8.6 M11.7 -9.3 L11.6 -9.3 11.6 -9.35 11.6 -9.35 11.65 -9.35 11.7 -9.3 11.7 -9.3 M11.85 -9.55 L11.85 -9.55 11.95 -9.5 11.95 -9.5 12.0 -9.45 11.95 -9.4 11.9 -9.45 11.8 -9.45 Q11.8 -9.5 11.75 -9.5 L11.7 -9.5 Q11.6 -9.55 11.65 -9.6 L11.75 -9.6 11.85 -9.55 M11.3 -8.7 Q11.2 -8.7 11.2 -8.75 11.2 -8.8 11.35 -8.8 L11.4 -8.75 11.45 -8.75 11.55 -8.75 11.55 -8.7 11.5 -8.65 11.45 -8.65 11.4 -8.65 11.35 -8.65 11.3 -8.7 M11.25 -8.8 L11.2 -8.8 11.15 -8.85 11.15 -8.9 Q11.1 -8.9 11.1 -8.9 L11.1 -8.9 11.15 -8.95 11.2 -8.85 11.25 -8.8 M10.85 -8.25 L10.85 -8.25 10.9 -8.3 10.9 -8.3 11.0 -8.2 11.0 -8.1 10.95 -8.1 10.85 -8.1 10.85 -8.25 M10.75 -8.85 L10.8 -8.85 10.9 -8.75 10.95 -8.7 10.95 -8.65 11.0 -8.65 11.15 -8.65 11.2 -8.55 11.2 -8.55 11.1 -8.5 11.0 -8.55 11.0 -8.6 11.0 -8.4 10.95 -8.4 10.8 -8.5 Q10.7 -8.55 10.7 -8.6 L10.75 -8.65 10.8 -8.7 10.75 -8.8 10.75 -8.85 M10.55 -9.9 L10.55 -9.85 10.6 -9.85 10.55 -9.8 10.45 -9.75 10.4 -9.75 10.25 -9.75 10.3 -9.8 10.45 -9.9 10.55 -9.9 M11.1 -8.15 L11.15 -8.15 11.15 -8.1 11.15 -8.05 11.1 -8.1 11.05 -8.15 11.1 -8.15 11.1 -8.15 M10.2 -8.05 L10.1 -8.05 10.1 -8.05 10.05 -8.05 10.05 -8.1 10.15 -8.1 10.2 -8.05 10.2 -8.05 M10.45 -7.75 L10.55 -7.7 10.5 -7.65 10.45 -7.65 10.4 -7.7 10.35 -7.7 10.35 -7.75 10.3 -7.75 Q10.25 -7.85 10.25 -7.85 10.35 -7.9 10.4 -7.85 L10.45 -7.75 10.45 -7.75 M10.3 -7.6 L10.35 -7.55 10.35 -7.55 10.4 -7.45 10.4 -7.4 Q10.35 -7.4 10.35 -7.4 L10.3 -7.45 10.3 -7.5 10.3 -7.6 M10.9 -7.5 L11.05 -7.4 11.1 -7.35 11.1 -7.35 11.05 -7.3 11.0 -7.25 10.9 -7.3 10.9 -7.45 10.9 -7.5 M12.05 -8.45 L12.0 -8.45 11.95 -8.5 11.95 -8.55 12.0 -8.55 12.05 -8.55 12.05 -8.45 M11.8 -8.5 L11.8 -8.5 Q11.8 -8.45 11.75 -8.45 L11.75 -8.45 Q11.7 -8.45 11.7 -8.5 L11.65 -8.55 11.6 -8.55 11.6 -8.65 11.7 -8.6 11.75 -8.6 11.7 -8.55 11.7 -8.55 11.75 -8.55 11.8 -8.5 11.8 -8.5 M11.75 -8.4 L11.75 -8.35 11.7 -8.3 11.75 -8.3 11.7 -8.25 11.65 -8.35 11.6 -8.35 11.6 -8.4 11.6 -8.45 11.5 -8.45 11.45 -8.55 11.4 -8.55 11.5 -8.55 11.5 -8.55 11.6 -8.5 11.65 -8.45 11.7 -8.45 11.65 -8.45 11.7 -8.45 11.7 -8.4 11.75 -8.4 M12.1 -8.2 L12.1 -8.15 12.05 -8.15 11.95 -8.2 11.95 -8.25 11.95 -8.25 12.0 -8.25 12.05 -8.25 12.05 -8.25 12.1 -8.2 M11.15 -7.9 Q11.15 -7.95 11.15 -8.0 L11.15 -8.0 11.25 -7.95 11.25 -7.95 11.25 -7.85 11.3 -7.8 11.2 -7.8 11.2 -7.8 11.15 -7.9 M11.35 -8.2 L11.35 -8.25 Q11.3 -8.3 11.35 -8.35 L11.45 -8.3 11.45 -8.15 11.5 -8.1 11.5 -8.05 11.45 -8.05 11.4 -8.05 11.4 -8.05 11.35 -8.05 11.35 -8.05 Q11.3 -8.05 11.25 -8.05 L11.25 -8.05 11.2 -8.1 11.2 -8.15 11.15 -8.25 11.3 -8.2 11.35 -8.15 11.35 -8.15 11.4 -8.1 11.35 -8.15 11.35 -8.2 M11.8 -7.9 L11.95 -7.8 12.0 -7.75 12.0 -7.7 11.9 -7.65 11.85 -7.65 11.8 -7.7 Q11.75 -7.75 11.8 -7.8 L11.8 -7.9 M9.45 -9.0 L9.5 -9.0 9.55 -8.95 9.5 -8.9 9.5 -8.85 9.45 -8.8 9.4 -8.7 9.3 -8.65 Q9.25 -8.6 9.2 -8.6 L9.2 -8.75 Q9.2 -8.85 9.25 -8.9 L9.3 -8.9 9.3 -8.9 Q9.25 -8.95 9.2 -9.0 L9.3 -9.0 9.45 -8.95 9.45 -9.0 M9.8 -9.35 L9.9 -9.3 9.95 -9.2 9.95 -9.1 9.9 -9.1 9.85 -9.1 9.85 -9.1 9.8 -9.2 9.8 -9.35 M9.8 -8.85 L9.85 -8.85 9.8 -8.75 9.8 -8.7 9.75 -8.7 9.75 -8.8 9.8 -8.8 9.8 -8.85 M8.9 -8.85 L8.95 -8.85 8.9 -8.95 9.0 -8.95 9.05 -8.8 9.1 -8.75 9.05 -8.75 9.05 -8.7 8.95 -8.7 8.95 -8.75 8.9 -8.85 M8.9 -8.35 L8.9 -8.35 8.9 -8.4 8.9 -8.45 8.95 -8.45 8.95 -8.45 8.9 -8.35 M8.7 -8.6 L8.65 -8.5 8.55 -8.4 8.5 -8.35 8.45 -8.25 Q8.35 -8.2 8.35 -8.25 L8.3 -8.25 8.3 -8.35 Q8.3 -8.45 8.35 -8.5 L8.4 -8.5 8.5 -8.5 8.55 -8.6 8.65 -8.6 8.7 -8.6 M8.9 -7.85 L8.9 -7.8 8.85 -7.8 8.85 -7.8 Q8.8 -7.85 8.85 -7.85 L8.85 -7.9 8.9 -7.85 M8.75 -7.9 L8.75 -7.85 8.75 -7.75 8.7 -7.75 8.6 -7.7 8.6 -7.8 8.7 -7.9 8.7 -7.9 8.75 -7.9 M9.65 -8.55 L9.65 -8.55 9.6 -8.6 9.65 -8.6 9.65 -8.6 9.7 -8.5 9.75 -8.45 9.7 -8.45 9.65 -8.55 M9.65 -8.2 L9.65 -8.15 9.6 -8.1 9.5 -8.1 9.5 -8.2 9.55 -8.3 9.6 -8.3 9.6 -8.3 9.65 -8.2 M9.75 -8.3 L9.8 -8.25 9.8 -8.2 9.75 -8.2 9.7 -8.2 Q9.7 -8.25 9.7 -8.25 L9.75 -8.3 M9.95 -8.05 L10.05 -8.0 10.05 -8.0 10.1 -7.95 10.1 -7.9 10.05 -7.9 10.15 -7.8 10.1 -7.7 10.1 -7.7 Q10.0 -7.7 10.0 -7.75 L10.0 -7.85 10.0 -7.9 9.95 -7.95 9.9 -8.05 9.9 -8.05 9.95 -8.1 9.95 -8.05 M9.4 -8.5 L9.4 -8.4 9.4 -8.2 Q9.4 -8.15 9.35 -8.15 L9.35 -8.15 9.25 -8.25 Q9.15 -8.3 9.15 -8.35 L9.2 -8.4 9.3 -8.4 9.25 -8.55 9.3 -8.6 9.35 -8.55 9.4 -8.5" fill="#421818" fill-rule="evenodd" stroke="none"/>
    <path d="M8.5 -10.3 L8.35 -10.35 8.25 -10.35 8.15 -10.4 8.15 -10.45 8.45 -10.55 8.65 -10.55 8.7 -10.5 8.75 -10.45 8.8 -10.4 Q8.8 -10.35 8.9 -10.35 L9.05 -10.35 Q9.1 -10.35 9.1 -10.3 L9.2 -10.2 9.3 -10.2 9.35 -10.1 9.4 -10.1 9.45 -10.05 9.6 -10.0 9.65 -10.0 9.75 -9.9 9.75 -9.85 9.8 -9.85 9.85 -9.75 9.8 -9.65 9.7 -9.65 Q9.7 -9.65 9.65 -9.75 L9.6 -9.85 9.6 -9.85 9.55 -9.85 Q9.55 -9.85 9.5 -9.85 L9.4 -9.9 9.2 -10.0 8.95 -9.95 8.85 -9.85 8.8 -9.75 8.8 -9.7 8.85 -9.6 8.8 -9.45 8.75 -9.35 8.65 -9.25 8.55 -9.2 8.45 -9.15 8.4 -9.15 8.35 -9.15 8.3 -9.15 8.2 -9.2 8.2 -9.2 8.25 -9.25 Q8.35 -9.35 8.35 -9.45 L8.3 -9.45 8.25 -9.45 8.15 -9.5 8.05 -9.4 Q7.95 -9.35 7.85 -9.35 L7.85 -9.35 7.85 -9.4 7.9 -9.45 7.85 -9.5 7.8 -9.6 7.75 -9.65 7.7 -9.7 7.7 -9.7 Q7.7 -9.75 7.75 -9.75 L7.8 -9.7 7.9 -9.7 8.0 -9.75 8.1 -9.75 8.2 -9.7 8.4 -9.7 8.45 -9.7 8.45 -9.75 8.5 -9.8 8.5 -9.9 Q8.5 -9.95 8.65 -10.0 8.75 -10.05 8.75 -10.1 L8.7 -10.25 8.5 -10.3 M10.95 -10.3 L10.95 -10.3 10.9 -10.35 10.9 -10.35 10.75 -10.4 10.65 -10.4 10.6 -10.45 10.6 -10.45 10.7 -10.35 10.7 -10.35 10.65 -10.35 10.55 -10.4 10.5 -10.4 10.4 -10.4 10.5 -10.45 10.6 -10.5 11.05 -10.4 11.1 -10.35 11.15 -10.35 Q11.2 -10.3 11.25 -10.3 L11.4 -10.3 11.5 -10.25 11.6 -10.15 11.6 -10.15 11.65 -10.1 11.65 -10.05 Q11.7 -10.0 11.7 -10.0 L11.75 -10.0 11.7 -10.0 11.7 -10.0 11.6 -9.95 Q11.6 -9.95 11.65 -9.95 L11.65 -9.9 11.7 -9.9 11.75 -9.9 11.7 -9.85 11.75 -9.85 11.8 -9.85 11.8 -9.85 11.85 -9.9 11.8 -9.9 11.85 -9.9 11.85 -10.0 11.95 -10.0 11.95 -9.85 12.0 -9.75 12.0 -9.6 11.95 -9.55 11.9 -9.6 11.8 -9.7 11.8 -9.7 11.85 -9.7 11.95 -9.7 11.95 -9.75 11.9 -9.8 11.85 -9.8 11.8 -9.8 11.7 -9.75 11.65 -9.8 11.65 -9.85 11.55 -9.9 11.35 -9.95 11.2 -9.95 11.1 -9.85 11.05 -9.85 10.95 -9.85 10.95 -9.85 10.9 -9.8 11.0 -9.8 11.05 -9.8 11.0 -9.75 10.9 -9.65 10.9 -9.6 10.8 -9.65 10.75 -9.6 10.8 -9.55 10.95 -9.5 10.95 -9.45 10.95 -9.4 10.8 -9.3 10.65 -9.25 10.55 -9.2 10.55 -9.2 10.5 -9.2 10.5 -9.25 10.6 -9.4 10.65 -9.45 10.7 -9.45 10.75 -9.55 10.7 -9.6 10.7 -9.6 10.65 -9.55 10.65 -9.5 10.6 -9.5 10.55 -9.55 10.4 -9.6 10.3 -9.55 10.25 -9.55 10.2 -9.5 10.2 -9.45 10.15 -9.4 Q10.1 -9.4 10.05 -9.4 L10.05 -9.6 10.0 -9.65 10.05 -9.7 10.1 -9.7 10.35 -9.7 10.6 -9.65 10.7 -9.7 10.75 -9.85 10.85 -10.0 10.95 -10.1 11.05 -10.15 10.95 -10.3 M7.5 -9.85 L7.6 -9.85 7.55 -9.8 7.4 -9.8 7.35 -9.8 7.3 -9.8 7.5 -9.85 M8.2 -9.2 L8.2 -9.15 8.25 -9.1 8.2 -9.1 Q8.2 -9.1 8.15 -9.1 L8.15 -9.15 8.2 -9.2" fill="#2a2a27" fill-rule="evenodd" stroke="none"/>
  </g>
</svg>
