<?xml version="1.0" encoding="UTF-8" standalone="no"?>
<svg xmlns:xlink="http://www.w3.org/1999/xlink" height="4.4px" width="4.4px" xmlns="http://www.w3.org/2000/svg">
  <g transform="matrix(1.0, 0.0, 0.0, 1.0, 2.2, 2.2)">
    <path d="M1.6 -2.2 L1.75 -2.2 Q1.75 -2.0 1.8 -1.85 L1.75 -1.8 1.75 -1.75 1.75 -1.7 1.8 -1.7 1.85 -1.65 1.8 -1.6 1.75 -1.55 1.8 -1.4 1.85 -1.3 1.95 -1.15 2.05 -1.0 2.1 -0.95 2.2 -1.0 2.2 -0.85 2.05 -0.95 Q1.95 -1.05 1.95 -1.1 L1.9 -1.15 1.85 -1.2 Q1.8 -1.3 1.8 -1.35 L1.8 -1.45 1.75 -1.5 1.7 -1.6 1.7 -1.65 1.65 -1.7 1.6 -1.7 1.65 -1.8 1.65 -1.9 1.6 -1.95 1.65 -2.1 1.6 -2.2" fill="#6b2828" fill-rule="evenodd" stroke="none"/>
    <path d="M1.6 -2.2 L1.65 -2.1 1.6 -1.95 1.65 -1.9 1.65 -1.8 1.6 -1.7 1.65 -1.7 1.7 -1.65 1.7 -1.6 1.75 -1.5 1.8 -1.45 1.8 -1.35 Q1.8 -1.3 1.85 -1.2 L1.9 -1.15 1.95 -1.1 Q1.95 -1.05 2.05 -0.95 L2.2 -0.85 2.2 -0.8 2.1 -0.9 2.05 -0.95 1.95 -0.95 1.9 -1.05 Q1.85 -1.05 1.9 -1.05 L1.85 -1.2 1.75 -1.35 1.75 -1.35 1.7 -1.4 Q1.8 -1.45 1.75 -1.45 L1.65 -1.6 1.55 -1.7 1.55 -1.8 1.55 -1.95 1.55 -2.1 Q1.5 -2.15 1.5 -2.15 L1.4 -2.1 1.35 -2.0 1.35 -2.0 1.35 -1.9 1.25 -1.9 1.2 -1.95 1.1 -2.05 Q1.1 -2.05 1.1 -2.1 L1.05 -2.2 1.6 -2.2" fill="#7d2f30" fill-rule="evenodd" stroke="none"/>
    <path d="M1.05 -2.2 L1.1 -2.1 Q1.1 -2.05 1.1 -2.05 L1.2 -1.95 1.25 -1.9 1.35 -1.9 1.35 -2.0 1.35 -2.0 1.4 -2.1 1.5 -2.15 Q1.5 -2.15 1.55 -2.1 L1.55 -1.95 1.55 -1.8 1.55 -1.7 1.65 -1.6 1.75 -1.45 Q1.8 -1.45 1.7 -1.4 L1.75 -1.35 1.75 -1.35 1.75 -1.35 1.7 -1.4 1.65 -1.45 Q1.6 -1.5 1.65 -1.5 L1.5 -1.7 1.45 -1.8 1.4 -1.85 1.35 -1.85 1.15 -1.95 0.95 -2.05 1.0 -1.95 1.05 -1.9 1.0 -1.85 1.0 -1.8 1.05 -1.75 1.0 -1.7 0.9 -1.75 0.8 -1.9 0.65 -2.0 Q0.6 -2.0 0.65 -2.1 L0.7 -2.2 0.75 -2.2 0.7 -2.1 0.7 -2.0 0.75 -1.95 0.85 -1.85 0.9 -1.85 0.95 -1.9 0.95 -1.95 0.9 -2.05 0.85 -2.1 0.8 -2.2 1.05 -2.2" fill="#913639" fill-rule="evenodd" stroke="none"/>
    <path d="M1.85 -2.2 L2.2 -2.2 2.2 -1.1 2.05 -1.05 2.0 -1.15 1.9 -1.2 1.9 -1.4 Q1.85 -1.4 1.85 -1.4 L1.85 -1.5 1.9 -1.5 1.9 -1.55 1.95 -1.6 1.95 -1.7 1.9 -1.75 1.95 -1.75 1.9 -1.8 1.9 -1.85 1.9 -1.95 1.95 -2.05 1.9 -2.1 1.85 -2.2" fill="#4b1b1f" fill-rule="evenodd" stroke="none"/>
    <path d="M2.2 -1.0 L2.1 -0.95 2.05 -1.0 1.95 -1.15 1.85 -1.3 1.8 -1.4 1.75 -1.55 1.8 -1.6 1.85 -1.65 1.8 -1.7 1.75 -1.7 1.75 -1.75 1.75 -1.8 1.8 -1.85 Q1.75 -2.0 1.75 -2.2 L1.85 -2.2 1.9 -2.1 1.95 -2.05 1.9 -1.95 1.9 -1.85 1.9 -1.8 1.95 -1.75 1.9 -1.75 1.95 -1.7 1.95 -1.6 1.9 -1.55 1.9 -1.5 1.85 -1.5 1.85 -1.4 Q1.85 -1.4 1.9 -1.4 L1.9 -1.2 2.0 -1.15 2.05 -1.05 2.2 -1.1 2.2 -1.0" fill="#5a2123" fill-rule="evenodd" stroke="none"/>
    <path d="M1.45 -1.7 L1.35 -1.8 1.25 -1.85 1.15 -1.95 Q1.05 -2.0 1.0 -2.0 1.0 -1.95 1.05 -1.95 L1.05 -1.9 1.1 -1.9 1.1 -1.8 1.1 -1.75 1.05 -1.7 1.0 -1.7 0.9 -1.7 Q0.9 -1.65 0.95 -1.65 L0.95 -1.65 1.05 -1.6 1.1 -1.55 1.15 -1.45 Q1.15 -1.45 1.15 -1.4 1.1 -1.4 1.1 -1.35 L1.15 -1.25 Q1.2 -1.25 1.1 -1.2 L1.1 -1.1 1.15 -1.05 1.15 -0.95 1.1 -0.85 1.05 -0.8 1.05 -0.6 0.95 -0.6 0.9 -0.5 1.0 -0.45 1.1 -0.45 1.05 -0.4 1.0 -0.35 0.95 -0.35 0.9 -0.45 0.85 -0.5 0.85 -0.55 0.9 -0.6 1.0 -0.7 Q1.0 -0.75 1.05 -0.85 L1.1 -0.95 1.1 -1.1 Q1.05 -1.1 1.05 -1.2 L1.1 -1.25 Q1.05 -1.35 1.05 -1.45 1.1 -1.5 1.05 -1.55 L0.95 -1.6 0.9 -1.65 0.9 -1.65 Q0.85 -1.65 0.85 -1.65 L0.85 -1.7 0.8 -1.7 0.75 -1.75 0.65 -1.75 0.65 -1.65 0.7 -1.65 0.65 -1.6 0.6 -1.7 Q0.55 -1.75 0.55 -1.75 L0.65 -1.8 0.8 -1.75 0.7 -1.9 0.55 -2.0 0.5 -2.05 0.5 -2.15 0.55 -2.2 0.7 -2.2 0.65 -2.1 Q0.6 -2.0 0.65 -2.0 L0.8 -1.9 0.9 -1.75 1.0 -1.7 1.05 -1.75 1.0 -1.8 1.0 -1.85 1.05 -1.9 1.0 -1.95 0.95 -2.05 1.15 -1.95 1.35 -1.85 1.4 -1.85 1.45 -1.8 1.5 -1.7 1.45 -1.7 M1.5 -1.7 L1.5 -1.7 M0.65 -1.8 L0.65 -1.8 M1.35 -0.25 L1.3 -0.4 1.2 -0.5 1.1 -0.45 1.15 -0.5 1.2 -0.55 1.35 -0.4 Q1.4 -0.3 1.4 -0.2 L1.35 -0.25" fill="#a73e44" fill-rule="evenodd" stroke="none"/>
    <path d="M1.05 -1.7 L1.1 -1.75 1.1 -1.8 1.1 -1.9 1.05 -1.9 1.05 -1.95 Q1.0 -1.95 1.0 -2.0 1.05 -2.0 1.15 -1.95 L1.25 -1.85 1.35 -1.8 1.45 -1.7 1.35 -1.8 1.2 -1.85 1.2 -1.8 1.15 -1.8 1.15 -1.8 1.1 -1.75 Q1.15 -1.75 1.1 -1.7 L1.05 -1.7" fill="#be464d" fill-rule="evenodd" stroke="none"/>
    <path d="M1.1 -1.55 L1.05 -1.6 1.1 -1.65 1.15 -1.7 Q1.15 -1.75 1.2 -1.75 L1.25 -1.8 1.35 -1.8 1.45 -1.7 1.4 -1.65 1.45 -1.6 1.4 -1.55 1.45 -1.5 1.6 -1.3 1.65 -1.25 1.6 -1.25 1.55 -1.3 1.45 -1.3 1.5 -1.2 Q1.5 -1.2 1.45 -1.2 L1.45 -1.2 1.35 -1.2 1.25 -1.25 1.2 -1.3 Q1.15 -1.35 1.2 -1.35 1.25 -1.4 1.25 -1.45 L1.15 -1.5 1.1 -1.55 M1.2 -1.55 L1.15 -1.55 1.15 -1.55 1.25 -1.45 1.35 -1.35 1.45 -1.35 1.5 -1.35 1.4 -1.5 1.2 -1.55" fill="#fb6868" fill-rule="evenodd" stroke="none"/>
    <path d="M1.05 -1.7 L1.1 -1.7 Q1.15 -1.75 1.1 -1.75 L1.15 -1.8 1.15 -1.8 1.2 -1.8 1.2 -1.85 1.35 -1.8 1.45 -1.7 1.5 -1.7 1.55 -1.65 Q1.55 -1.6 1.5 -1.6 L1.55 -1.5 1.6 -1.45 1.6 -1.4 1.65 -1.35 1.65 -1.25 1.7 -1.2 1.75 -1.1 1.7 -1.15 1.6 -1.25 1.65 -1.25 1.6 -1.3 1.45 -1.5 1.4 -1.55 1.45 -1.6 1.4 -1.65 1.45 -1.7 1.35 -1.8 1.25 -1.8 1.2 -1.75 Q1.15 -1.75 1.15 -1.7 L1.1 -1.65 1.05 -1.6 1.1 -1.55 1.1 -1.55 1.05 -1.6 0.95 -1.65 0.95 -1.65 Q0.9 -1.65 0.9 -1.7 L1.0 -1.7 1.05 -1.7" fill="#da5253" fill-rule="evenodd" stroke="none"/>
    <path d="M1.5 -1.7 L1.5 -1.7 1.65 -1.5 Q1.6 -1.5 1.65 -1.45 L1.7 -1.4 1.75 -1.25 1.8 -1.1 Q1.85 -1.05 1.8 -1.05 L1.7 -1.1 1.7 -1.05 1.75 -1.05 1.7 -1.05 1.65 -1.05 1.55 -1.15 1.45 -1.15 Q1.4 -1.1 1.5 -1.0 L1.55 -0.9 1.6 -0.85 1.6 -0.8 1.65 -0.8 1.75 -0.7 1.8 -0.65 2.05 -0.45 2.1 -0.4 2.2 -0.4 2.2 -0.35 Q2.1 -0.35 2.0 -0.45 L1.95 -0.55 1.7 -0.65 1.6 -0.7 1.55 -0.8 1.5 -0.85 1.5 -0.95 1.45 -1.0 Q1.4 -1.05 1.4 -1.15 1.4 -1.2 1.45 -1.2 L1.45 -1.2 1.45 -1.2 Q1.5 -1.2 1.5 -1.2 L1.45 -1.3 1.55 -1.3 1.6 -1.25 1.7 -1.15 1.75 -1.1 1.7 -1.2 1.65 -1.25 1.65 -1.35 1.6 -1.4 1.6 -1.45 1.55 -1.5 1.5 -1.6 Q1.55 -1.6 1.55 -1.65 L1.5 -1.7" fill="#bd4549" fill-rule="evenodd" stroke="none"/>
    <path d="M1.2 -1.55 L1.4 -1.5 1.5 -1.35 1.45 -1.35 1.35 -1.35 1.25 -1.45 1.15 -1.55 1.15 -1.55 1.2 -1.55" fill="#ff8886" fill-rule="evenodd" stroke="none"/>
    <path d="M1.15 -1.5 L1.25 -1.45 Q1.25 -1.4 1.2 -1.35 1.15 -1.35 1.2 -1.3 L1.25 -1.25 1.35 -1.2 1.45 -1.2 1.45 -1.2 Q1.4 -1.2 1.4 -1.15 1.4 -1.05 1.45 -1.0 L1.4 -1.0 1.4 -1.0 1.4 -1.05 1.35 -1.1 1.35 -1.15 1.3 -1.15 1.2 -1.15 Q1.15 -1.15 1.2 -1.1 1.25 -1.1 1.25 -1.1 L1.2 -1.05 1.25 -0.95 1.2 -0.85 Q1.15 -0.85 1.2 -0.8 1.2 -0.75 1.3 -0.75 L1.2 -0.7 Q1.1 -0.7 1.1 -0.75 L1.15 -0.85 1.2 -0.9 1.2 -0.95 1.2 -1.05 1.15 -1.1 1.15 -1.1 1.1 -1.15 1.2 -1.2 1.25 -1.2 1.2 -1.25 1.15 -1.35 1.15 -1.4 1.2 -1.45 1.15 -1.5" fill="#d64f57" fill-rule="evenodd" stroke="none"/>
    <path d="M1.1 -0.45 L1.0 -0.45 0.9 -0.5 0.95 -0.6 1.05 -0.6 1.05 -0.8 1.1 -0.85 1.15 -0.95 1.15 -1.05 1.1 -1.1 1.1 -1.2 Q1.2 -1.25 1.15 -1.25 L1.1 -1.35 Q1.1 -1.4 1.15 -1.4 1.15 -1.45 1.15 -1.45 L1.1 -1.55 1.15 -1.5 1.2 -1.45 1.15 -1.4 1.15 -1.35 1.2 -1.25 1.25 -1.2 1.2 -1.2 1.1 -1.15 1.15 -1.1 1.15 -1.1 1.2 -1.05 1.2 -0.95 1.2 -0.9 1.15 -0.85 1.1 -0.75 Q1.1 -0.7 1.2 -0.7 L1.3 -0.75 1.35 -0.75 1.35 -0.7 1.4 -0.7 1.4 -0.65 1.3 -0.6 1.2 -0.6 1.1 -0.6 1.05 -0.55 1.0 -0.55 0.95 -0.5 1.0 -0.45 1.1 -0.45 M1.1 -1.55 L1.1 -1.55" fill="#bd454e" fill-rule="evenodd" stroke="none"/>
    <path d="M0.65 -1.6 L0.7 -1.65 0.65 -1.65 0.65 -1.75 0.75 -1.75 0.8 -1.7 0.85 -1.7 0.85 -1.65 Q0.85 -1.65 0.9 -1.65 L0.9 -1.65 0.95 -1.6 1.05 -1.55 Q1.1 -1.5 1.05 -1.45 1.05 -1.35 1.1 -1.25 L1.05 -1.2 Q1.05 -1.1 1.1 -1.1 L1.1 -0.95 1.05 -0.85 Q1.0 -0.75 1.0 -0.7 L0.9 -0.6 0.85 -0.55 0.85 -0.5 0.9 -0.45 0.95 -0.35 1.0 -0.35 1.05 -0.4 1.1 -0.45 1.2 -0.5 1.3 -0.4 1.35 -0.25 1.15 -0.25 0.9 -0.35 0.9 -0.4 0.7 -0.55 0.8 -0.6 0.9 -0.6 0.95 -0.75 1.05 -0.9 1.05 -1.1 Q1.0 -1.15 1.0 -1.2 L1.05 -1.25 1.0 -1.35 0.95 -1.45 0.85 -1.45 0.8 -1.5 0.7 -1.5 0.65 -1.45 0.6 -1.4 0.5 -1.4 0.55 -1.4 0.55 -1.5 0.6 -1.5 0.5 -1.5 0.55 -1.55 0.45 -1.6 0.5 -1.6 0.55 -1.6 0.65 -1.6" fill="#8e353a" fill-rule="evenodd" stroke="none"/>
    <path d="M1.75 -1.35 L1.85 -1.2 1.9 -1.05 Q1.85 -1.05 1.9 -1.05 L1.95 -0.95 2.05 -0.95 2.1 -0.9 2.2 -0.8 2.2 -0.75 2.1 -0.8 2.05 -0.85 2.0 -0.9 1.9 -0.95 1.85 -1.0 1.8 -1.0 1.85 -0.9 Q1.9 -0.85 1.85 -0.85 1.7 -0.95 1.7 -1.05 L1.75 -1.05 1.7 -1.05 1.7 -1.1 1.8 -1.05 Q1.85 -1.05 1.8 -1.1 L1.75 -1.25 1.7 -1.4 1.75 -1.35 1.75 -1.35" fill="#9e3840" fill-rule="evenodd" stroke="none"/>
    <path d="M0.8 -2.2 L0.85 -2.1 0.9 -2.05 0.95 -1.95 0.95 -1.9 0.9 -1.85 0.85 -1.85 0.75 -1.95 0.7 -2.0 0.7 -2.1 0.75 -2.2 0.8 -2.2" fill="#7b2d32" fill-rule="evenodd" stroke="none"/>
    <path d="M0.5 -2.15 L0.5 -2.05 0.55 -2.0 0.7 -1.9 0.8 -1.75 0.65 -1.8 0.55 -1.75 Q0.55 -1.75 0.6 -1.7 L0.65 -1.6 0.55 -1.6 0.5 -1.65 0.45 -1.65 Q0.4 -1.65 0.4 -1.6 L0.3 -1.6 0.2 -1.7 0.25 -1.7 0.3 -1.7 0.35 -1.7 0.4 -1.75 0.35 -1.75 0.3 -1.8 0.3 -1.8 0.25 -1.8 0.3 -1.85 0.4 -1.85 Q0.45 -1.85 0.45 -1.85 L0.45 -1.95 0.35 -2.05 0.35 -2.2 0.4 -2.2 0.4 -2.1 0.4 -2.05 0.45 -2.05 0.45 -2.1 0.5 -2.15 M0.65 -1.8 L0.75 -1.8 0.65 -1.9 0.5 -1.95 Q0.5 -1.9 0.55 -1.85 L0.6 -1.8 0.65 -1.8" fill="#c64a50" fill-rule="evenodd" stroke="none"/>
    <path d="M0.65 -1.8 L0.65 -1.8 0.6 -1.8 0.55 -1.85 Q0.5 -1.9 0.5 -1.95 L0.65 -1.9 0.75 -1.8 0.65 -1.8" fill="#f25c64" fill-rule="evenodd" stroke="none"/>
    <path d="M0.15 -2.2 L0.15 -2.2 0.05 -1.95 0.0 -1.95 -0.05 -1.9 Q-0.15 -1.85 -0.25 -2.0 L-0.3 -2.2 -0.25 -2.2 -0.25 -2.1 -0.2 -2.0 -0.15 -2.05 -0.15 -2.1 -0.1 -2.15 -0.1 -2.2 0.0 -2.2 0.0 -2.05 Q-0.05 -2.0 0.05 -2.0 L0.1 -2.1 0.15 -2.2" fill="#cb4949" fill-rule="evenodd" stroke="none"/>
    <path d="M0.15 -2.2 L0.2 -2.2 0.15 -2.05 Q0.1 -2.0 0.15 -1.95 L0.0 -1.85 -0.05 -1.85 -0.3 -1.95 Q-0.3 -1.95 -0.3 -2.0 L-0.3 -2.1 -0.35 -2.15 -0.45 -2.1 -0.5 -2.15 -0.45 -2.2 -0.3 -2.2 -0.25 -2.0 Q-0.15 -1.85 -0.05 -1.9 L0.0 -1.95 0.05 -1.95 0.15 -2.2" fill="#af3e40" fill-rule="evenodd" stroke="none"/>
    <path d="M0.35 -2.2 L0.35 -2.05 0.45 -1.95 0.45 -1.85 Q0.45 -1.85 0.4 -1.85 L0.3 -1.85 0.2 -1.85 0.1 -1.8 0.05 -1.85 0.0 -1.85 0.0 -1.85 0.15 -1.95 Q0.1 -2.0 0.15 -2.05 L0.2 -2.2 0.35 -2.2 M0.2 -2.1 L0.15 -2.05 0.15 -2.0 0.2 -1.95 Q0.2 -1.9 0.25 -1.9 L0.4 -1.9 0.4 -1.95 0.35 -1.95 0.35 -2.0 0.3 -2.05 0.3 -2.1 0.25 -2.1 0.2 -2.1" fill="#9b3b3c" fill-rule="evenodd" stroke="none"/>
    <path d="M0.2 -2.1 L0.25 -2.1 0.3 -2.1 0.3 -2.05 0.35 -2.0 0.35 -1.95 0.4 -1.95 0.4 -1.9 0.25 -1.9 Q0.2 -1.9 0.2 -1.95 L0.15 -2.0 0.15 -2.05 0.2 -2.1" fill="#813032" fill-rule="evenodd" stroke="none"/>
    <path d="M0.15 -2.2 L0.1 -2.1 0.05 -2.0 Q-0.05 -2.0 0.0 -2.05 L0.0 -2.2 0.15 -2.2" fill="#f7615d" fill-rule="evenodd" stroke="none"/>
    <path d="M0.55 -2.2 L0.5 -2.15 0.45 -2.1 0.45 -2.05 0.4 -2.05 0.4 -2.1 0.4 -2.2 0.55 -2.2" fill="#f76769" fill-rule="evenodd" stroke="none"/>
    <path d="M0.3 -1.85 L0.25 -1.8 0.3 -1.8 0.3 -1.8 0.35 -1.75 0.4 -1.75 0.35 -1.7 0.3 -1.7 0.25 -1.7 0.2 -1.7 0.3 -1.6 0.4 -1.6 Q0.4 -1.65 0.45 -1.65 L0.5 -1.65 0.55 -1.6 0.5 -1.6 0.45 -1.6 0.55 -1.55 0.5 -1.5 0.6 -1.5 0.55 -1.5 0.55 -1.4 0.5 -1.4 0.45 -1.4 0.4 -1.4 0.35 -1.4 0.35 -1.35 0.35 -1.35 0.3 -1.3 0.2 -1.3 0.2 -1.4 0.3 -1.45 Q0.35 -1.45 0.3 -1.45 L0.3 -1.5 0.2 -1.65 0.15 -1.75 0.1 -1.8 0.2 -1.85 0.3 -1.85" fill="#b5454a" fill-rule="evenodd" stroke="none"/>
    <path d="M0.05 -1.65 L0.0 -1.7 -0.05 -1.75 0.0 -1.75 0.05 -1.8 0.1 -1.75 0.1 -1.7 0.05 -1.65 0.05 -1.65 M0.05 -1.8 L0.05 -1.8" fill="#e6e7e4" fill-rule="evenodd" stroke="none"/>
    <path d="M0.05 -1.8 L0.05 -1.8 0.0 -1.8 -0.05 -1.85 0.0 -1.8 0.05 -1.8" fill="#a6a4a0" fill-rule="evenodd" stroke="none"/>
    <path d="M0.05 -1.8 L0.0 -1.75 -0.05 -1.75 0.0 -1.7 0.05 -1.65 0.1 -1.7 0.1 -1.75 0.05 -1.8 0.0 -1.8 -0.05 -1.85 0.0 -1.8 0.05 -1.8 M0.0 -1.85 L0.05 -1.85 0.1 -1.8 0.15 -1.75 0.2 -1.65 0.2 -1.6 Q0.2 -1.65 0.15 -1.55 L0.15 -1.6 0.15 -1.6 0.05 -1.6 -0.05 -1.6 -0.05 -1.6 0.0 -1.6 0.05 -1.65 0.0 -1.65 -0.1 -1.65 -0.1 -1.75 Q-0.05 -1.75 -0.1 -1.75 L-0.1 -1.8 -0.05 -1.85 0.0 -1.85 M-0.1 -1.65 L-0.1 -1.65 M0.15 -1.7 L0.1 -1.7 0.15 -1.65 0.15 -1.7" fill="#d1d1cd" fill-rule="evenodd" stroke="none"/>
    <path d="M0.05 -1.65 L0.05 -1.65 0.0 -1.6 -0.05 -1.6 -0.1 -1.65 0.0 -1.65 0.05 -1.65" fill="#a7a7a4" fill-rule="evenodd" stroke="none"/>
    <path d="M0.2 -1.6 L0.2 -1.65 0.3 -1.5 0.3 -1.45 Q0.35 -1.45 0.3 -1.45 L0.2 -1.4 0.2 -1.3 0.3 -1.3 0.35 -1.35 0.35 -1.35 0.35 -1.4 0.4 -1.4 0.4 -1.35 0.35 -1.3 0.3 -1.3 0.3 -1.3 0.35 -1.25 Q0.4 -1.25 0.4 -1.2 L0.35 -1.2 0.4 -1.2 0.45 -1.2 0.4 -1.15 Q0.35 -1.15 0.35 -1.1 L0.3 -1.15 0.3 -1.2 0.25 -1.2 0.2 -1.25 0.15 -1.25 0.1 -1.3 0.15 -1.3 0.2 -1.3 0.2 -1.5 0.2 -1.6 M0.1 -1.3 L0.1 -1.3" fill="#a44146" fill-rule="evenodd" stroke="none"/>
    <path d="M0.2 -1.6 L0.2 -1.5 0.2 -1.3 0.15 -1.3 0.1 -1.3 0.1 -1.3 0.05 -1.35 0.1 -1.35 0.1 -1.4 0.1 -1.45 0.15 -1.5 0.15 -1.6 0.15 -1.6 0.15 -1.55 Q0.2 -1.65 0.2 -1.6 M0.1 -1.3 L0.1 -1.3" fill="#bebdb7" fill-rule="evenodd" stroke="none"/>
    <path d="M0.15 -1.6 L0.15 -1.5 0.1 -1.45 0.1 -1.4 Q0.05 -1.4 0.05 -1.4 L0.0 -1.45 0.05 -1.45 0.05 -1.5 0.0 -1.5 0.1 -1.5 Q0.15 -1.45 0.15 -1.5 L-0.05 -1.6 0.05 -1.6 0.15 -1.6 M-0.05 -1.6 L-0.05 -1.6" fill="#9d9d98" fill-rule="evenodd" stroke="none"/>
    <path d="M0.1 -1.4 L0.1 -1.35 0.05 -1.35 0.0 -1.4 -0.05 -1.4 -0.1 -1.4 -0.1 -1.5 -0.05 -1.55 0.0 -1.5 0.05 -1.5 0.05 -1.45 0.0 -1.45 0.05 -1.4 Q0.05 -1.4 0.1 -1.4" fill="#cdcec8" fill-rule="evenodd" stroke="none"/>
    <path d="M-0.05 -1.6 L0.15 -1.5 Q0.15 -1.45 0.1 -1.5 L0.0 -1.5 -0.05 -1.55 -0.1 -1.55 -0.1 -1.6 -0.05 -1.6" fill="#1d1e1b" fill-rule="evenodd" stroke="none"/>
    <path d="M0.1 -1.3 L0.1 -1.3 0.1 -1.3 0.05 -1.25 0.05 -1.2 0.0 -1.25 -0.05 -1.25 -0.2 -1.35 -0.3 -1.45 -0.35 -1.45 -0.4 -1.5 -0.35 -1.5 -0.25 -1.45 -0.15 -1.45 -0.05 -1.35 0.1 -1.3" fill="#5f605b" fill-rule="evenodd" stroke="none"/>
    <path d="M0.1 -1.3 L0.15 -1.25 0.2 -1.25 0.15 -1.2 Q0.1 -1.2 0.15 -1.15 L0.1 -1.15 0.1 -1.15 0.05 -1.15 0.05 -1.05 0.1 -1.0 0.05 -1.05 0.0 -1.05 0.0 -1.0 0.05 -1.0 0.0 -0.9 0.0 -0.85 -0.05 -0.8 -0.1 -0.8 -0.05 -0.75 -0.05 -0.7 Q-0.05 -0.7 0.0 -0.7 L0.05 -0.75 0.1 -0.75 0.05 -0.7 0.0 -0.65 -0.1 -0.7 -0.15 -0.7 -0.15 -0.75 -0.15 -0.8 -0.1 -0.85 -0.05 -0.95 Q-0.05 -1.05 -0.05 -1.1 L0.0 -1.1 0.0 -1.15 0.0 -1.15 0.05 -1.2 0.05 -1.25 0.1 -1.3 M0.05 -1.2 L0.05 -1.2 M0.15 -0.7 L0.1 -0.7 0.1 -0.75 0.2 -0.75 0.25 -0.7 0.25 -0.7 0.2 -0.7 0.15 -0.7 0.15 -0.7" fill="#644a2d" fill-rule="evenodd" stroke="none"/>
    <path d="M0.05 -1.35 L0.1 -1.3 0.1 -1.3 -0.05 -1.35 -0.15 -1.45 -0.15 -1.45 Q-0.1 -1.5 -0.15 -1.5 L-0.1 -1.55 Q-0.1 -1.6 -0.15 -1.6 L-0.15 -1.6 -0.2 -1.6 -0.15 -1.65 -0.1 -1.6 -0.1 -1.55 -0.05 -1.55 -0.1 -1.5 -0.1 -1.4 -0.05 -1.4 0.0 -1.4 0.05 -1.35" fill="#a5a6a0" fill-rule="evenodd" stroke="none"/>
    <path d="M0.4 -1.15 L0.45 -1.2 0.4 -1.2 0.35 -1.2 0.4 -1.2 Q0.4 -1.25 0.35 -1.25 L0.3 -1.3 0.3 -1.3 0.35 -1.3 0.4 -1.35 0.4 -1.4 0.45 -1.4 0.5 -1.35 0.45 -1.35 Q0.45 -1.3 0.45 -1.25 L0.5 -1.2 0.5 -1.15 0.4 -1.15" fill="#8f373b" fill-rule="evenodd" stroke="none"/>
    <path d="M0.5 -1.4 L0.6 -1.4 0.65 -1.45 0.7 -1.5 0.8 -1.5 0.85 -1.45 0.95 -1.45 1.0 -1.35 1.05 -1.25 1.0 -1.2 Q1.0 -1.15 1.05 -1.1 L1.05 -0.9 0.95 -0.75 0.9 -0.6 0.8 -0.6 0.7 -0.55 0.9 -0.4 0.9 -0.35 0.8 -0.35 0.65 -0.45 0.5 -0.5 0.5 -0.55 0.45 -0.55 Q0.4 -0.55 0.4 -0.6 L0.5 -0.6 0.6 -0.6 0.4 -0.6 0.25 -0.65 0.4 -0.65 0.55 -0.7 0.6 -0.7 0.6 -0.75 0.45 -0.75 0.35 -0.75 0.35 -0.85 0.4 -0.9 0.45 -0.9 0.45 -0.85 0.4 -0.85 0.5 -0.85 0.6 -0.8 0.6 -0.75 0.65 -0.75 0.7 -0.7 0.7 -0.65 0.85 -0.65 Q0.95 -0.7 0.9 -0.8 0.9 -0.85 0.95 -0.9 L1.0 -0.95 1.0 -1.1 0.95 -1.15 1.0 -1.2 1.0 -1.3 Q1.0 -1.35 0.95 -1.35 L0.85 -1.3 0.75 -1.3 0.7 -1.3 0.6 -1.35 0.5 -1.3 0.55 -1.25 0.55 -1.25 Q0.55 -1.15 0.5 -1.15 L0.35 -1.1 Q0.35 -1.15 0.4 -1.15 L0.5 -1.15 0.5 -1.2 0.45 -1.25 Q0.45 -1.3 0.45 -1.35 L0.5 -1.35 0.45 -1.4 0.5 -1.4 M0.35 -0.75 L0.35 -0.75 M0.35 -1.1 L0.35 -1.1" fill="#7a2e33" fill-rule="evenodd" stroke="none"/>
    <path d="M0.35 -1.1 L0.5 -1.15 Q0.55 -1.15 0.55 -1.25 L0.55 -1.25 0.5 -1.3 0.6 -1.35 0.7 -1.3 0.75 -1.3 0.85 -1.3 0.95 -1.35 Q1.0 -1.35 1.0 -1.3 L1.0 -1.2 0.95 -1.15 1.0 -1.1 1.0 -0.95 0.95 -0.9 Q0.9 -0.85 0.9 -0.8 0.95 -0.7 0.85 -0.65 L0.7 -0.65 0.7 -0.7 0.65 -0.75 0.6 -0.75 0.6 -0.8 0.5 -0.85 0.4 -0.85 0.45 -0.85 0.45 -0.9 0.4 -0.9 0.4 -0.95 0.55 -0.95 0.5 -1.0 0.45 -1.0 Q0.4 -1.0 0.45 -1.0 L0.55 -1.0 Q0.6 -1.05 0.55 -1.05 L0.65 -1.05 0.75 -1.05 0.65 -1.0 0.6 -1.0 0.6 -1.0 0.65 -1.0 0.65 -0.95 0.6 -0.9 0.6 -0.9 Q0.5 -0.9 0.5 -0.85 L0.7 -0.85 0.85 -0.8 0.85 -0.8 0.9 -0.85 0.9 -0.95 0.95 -1.0 0.95 -1.1 0.9 -1.15 0.9 -1.25 0.75 -1.25 0.65 -1.2 0.55 -1.15 0.45 -1.05 0.35 -1.05 0.35 -1.1" fill="#6a272c" fill-rule="evenodd" stroke="none"/>
    <path d="M0.45 -1.05 L0.55 -1.15 0.65 -1.2 0.75 -1.25 0.9 -1.25 0.9 -1.15 0.95 -1.1 0.95 -1.0 0.9 -0.95 0.9 -0.85 0.85 -0.8 0.85 -0.8 0.7 -0.85 0.5 -0.85 Q0.5 -0.9 0.6 -0.9 L0.6 -0.9 0.65 -0.95 0.65 -1.0 0.6 -1.0 0.6 -1.0 0.65 -1.0 0.75 -1.05 0.65 -1.05 0.55 -1.05 0.45 -1.05" fill="#572025" fill-rule="evenodd" stroke="none"/>
    <path d="M0.35 -1.05 L0.45 -1.05 0.55 -1.05 Q0.6 -1.05 0.55 -1.0 L0.45 -1.0 Q0.4 -1.0 0.45 -1.0 L0.5 -1.0 0.55 -0.95 0.4 -0.95 0.4 -0.95 0.35 -1.05" fill="#993e3e" fill-rule="evenodd" stroke="none"/>
    <path d="M0.15 -0.7 L0.2 -0.7 0.25 -0.7 0.25 -0.7 0.3 -0.75 0.35 -0.75 0.45 -0.75 0.6 -0.75 0.6 -0.7 0.55 -0.7 0.4 -0.65 0.25 -0.65 0.4 -0.6 0.6 -0.6 0.5 -0.6 0.4 -0.6 Q0.4 -0.55 0.45 -0.55 L0.5 -0.55 0.5 -0.5 0.2 -0.6 0.1 -0.6 0.2 -0.65 0.25 -0.65 0.15 -0.7" fill="#8a383a" fill-rule="evenodd" stroke="none"/>
    <path d="M0.25 -1.2 L0.3 -1.2 0.3 -1.15 0.3 -1.1 0.25 -1.05 0.2 -1.1 0.2 -1.2 0.25 -1.2 M0.25 -1.05 L0.25 -1.05" fill="#d6a76c" fill-rule="evenodd" stroke="none"/>
    <path d="M0.3 -1.15 L0.35 -1.1 0.35 -1.05 0.4 -0.95 0.35 -1.0 0.3 -1.05 Q0.3 -1.0 0.3 -0.95 L0.3 -0.85 0.35 -0.75 0.35 -0.75 0.3 -0.75 0.25 -0.7 0.2 -0.75 0.1 -0.75 0.1 -0.8 0.2 -0.8 0.25 -0.9 0.3 -0.95 0.3 -0.95 0.25 -0.95 Q0.2 -0.95 0.25 -1.0 L0.25 -1.05 0.3 -1.1 0.3 -1.15 M0.25 -0.9 L0.25 -0.9 M0.35 -1.1 L0.35 -1.1 M0.3 -0.85 L0.25 -0.85 0.25 -0.8 0.3 -0.8 0.3 -0.85" fill="#a8875d" fill-rule="evenodd" stroke="none"/>
    <path d="M0.4 -0.95 L0.4 -0.9 0.35 -0.85 0.35 -0.75 0.3 -0.85 0.3 -0.95 Q0.3 -1.0 0.3 -1.05 L0.35 -1.0 0.4 -0.95 0.4 -0.95" fill="#80633f" fill-rule="evenodd" stroke="none"/>
    <path d="M0.05 -1.0 L0.0 -1.0 0.0 -1.05 0.05 -1.05 0.1 -1.0 0.15 -1.05 0.15 -1.05 0.2 -1.05 0.15 -1.05 0.2 -1.0 0.25 -1.0 Q0.2 -0.95 0.25 -0.95 L0.3 -0.95 0.3 -0.95 0.25 -0.9 0.2 -0.8 0.1 -0.8 0.15 -0.8 0.15 -0.8 0.15 -0.85 0.2 -0.9 0.05 -1.0 M0.25 -0.9 L0.25 -0.9 0.2 -0.9 0.2 -0.9 0.25 -0.9" fill="#d0a56e" fill-rule="evenodd" stroke="none"/>
    <path d="M0.2 -1.25 L0.25 -1.2 0.2 -1.2 0.2 -1.1 0.25 -1.05 0.2 -1.05 0.15 -1.05 0.15 -1.05 0.1 -1.0 0.05 -1.05 0.05 -1.15 0.1 -1.15 0.1 -1.15 0.15 -1.15 Q0.1 -1.2 0.15 -1.2 L0.2 -1.25" fill="#b68f63" fill-rule="evenodd" stroke="none"/>
    <path d="M0.05 -1.2 L0.05 -1.2 0.0 -1.2 -0.05 -1.25 0.0 -1.25 0.05 -1.2" fill="#c9ac7b" fill-rule="evenodd" stroke="none"/>
    <path d="M0.05 -1.2 L0.0 -1.15 0.0 -1.15 -0.05 -1.15 -0.05 -1.15 -0.05 -1.1 Q-0.05 -1.05 -0.05 -0.95 L-0.1 -0.85 -0.15 -0.8 -0.15 -0.75 -0.2 -0.75 -0.25 -0.8 -0.25 -0.85 -0.3 -0.75 -0.35 -0.8 -0.35 -0.9 -0.4 -0.95 -0.4 -0.9 -0.45 -0.85 -0.5 -0.9 -0.6 -1.05 -0.65 -1.1 Q-0.65 -1.15 -0.6 -1.1 L-0.5 -1.1 -0.45 -1.1 -0.45 -1.05 -0.4 -1.0 -0.25 -1.0 -0.3 -0.95 -0.3 -0.9 -0.25 -0.95 Q-0.25 -0.95 -0.2 -0.95 L-0.25 -1.0 -0.2 -1.05 -0.25 -1.1 -0.3 -1.1 -0.25 -1.15 -0.3 -1.15 -0.3 -1.2 -0.35 -1.25 -0.35 -1.3 -0.4 -1.3 -0.35 -1.35 -0.35 -1.4 -0.3 -1.45 -0.2 -1.35 -0.05 -1.25 0.0 -1.2 0.05 -1.2 M-0.35 -1.35 L-0.35 -1.3 -0.3 -1.25 -0.3 -1.3 -0.35 -1.35 M-0.6 -1.05 L-0.6 -1.05 M-0.35 -0.85 L-0.3 -0.85 -0.25 -0.9 -0.3 -0.85 -0.35 -0.85" fill="#413320" fill-rule="evenodd" stroke="none"/>
    <path d="M0.25 -1.05 L0.25 -1.0 0.2 -1.0 0.15 -1.05 0.2 -1.05 0.25 -1.05 0.25 -1.05" fill="#fefabd" fill-rule="evenodd" stroke="none"/>
    <path d="M0.1 -0.75 L0.05 -0.75 0.0 -0.7 Q-0.05 -0.7 -0.05 -0.7 L-0.05 -0.75 0.0 -0.8 -0.05 -0.8 0.0 -0.85 0.0 -0.9 0.05 -0.85 Q0.1 -0.8 0.15 -0.8 L0.15 -0.8 0.1 -0.8 0.1 -0.75" fill="#775935" fill-rule="evenodd" stroke="none"/>
    <path d="M0.0 -0.9 L0.05 -1.0 0.2 -0.9 0.15 -0.85 0.15 -0.8 Q0.1 -0.8 0.05 -0.85 L0.0 -0.9" fill="#e9be86" fill-rule="evenodd" stroke="none"/>
    <path d="M0.25 -0.9 L0.25 -0.9 0.2 -0.9 0.2 -0.9 0.25 -0.9 0.25 -0.9" fill="#fffaa7" fill-rule="evenodd" stroke="none"/>
    <path d="M0.0 -0.65 L0.05 -0.7 0.1 -0.75 0.1 -0.7 0.15 -0.7 0.1 -0.65 0.0 -0.65" fill="#7b5c47" fill-rule="evenodd" stroke="none"/>
    <path d="M-0.15 -0.7 L-0.1 -0.7 0.0 -0.65 0.1 -0.65 0.1 -0.6 0.05 -0.6 0.05 -0.6 0.0 -0.6 -0.1 -0.6 -0.2 -0.65 -0.15 -0.7" fill="#fff2e4" fill-rule="evenodd" stroke="none"/>
    <path d="M0.15 -0.7 L0.15 -0.7 0.25 -0.65 0.2 -0.65 0.1 -0.6 0.1 -0.65 0.15 -0.7 M0.1 -0.6 L0.1 -0.6" fill="#cb5757" fill-rule="evenodd" stroke="none"/>
    <path d="M0.3 -0.85 L0.3 -0.8 0.25 -0.8 0.25 -0.85 0.3 -0.85" fill="#e2c881" fill-rule="evenodd" stroke="none"/>
    <path d="M0.1 -0.55 L0.25 -0.5 0.35 -0.4 0.4 -0.45 0.45 -0.4 0.8 -0.3 0.8 -0.25 0.85 -0.2 0.9 -0.2 0.95 -0.2 0.95 -0.15 1.0 -0.15 1.05 -0.15 1.05 -0.1 Q1.0 -0.1 1.0 -0.05 0.95 -0.05 1.0 0.0 L1.0 0.1 1.05 0.15 1.1 0.15 1.2 0.15 1.3 0.15 Q1.25 0.15 1.3 0.2 L1.1 0.2 0.95 0.15 0.9 0.1 0.85 0.05 0.75 0.05 0.7 0.1 0.55 0.05 0.4 0.05 0.15 0.05 -0.05 0.0 Q-0.15 -0.1 -0.1 -0.15 L0.55 0.0 0.55 0.0 0.6 0.0 0.7 0.05 0.75 0.0 0.75 -0.05 0.7 -0.1 Q0.7 -0.15 0.75 -0.15 L0.75 -0.2 0.7 -0.25 0.55 -0.3 0.4 -0.3 0.05 -0.4 0.1 -0.55 M0.85 -0.05 Q0.9 -0.05 0.85 -0.1 L0.8 -0.15 0.75 -0.1 0.75 0.0 Q0.8 0.0 0.85 0.0 0.9 0.0 0.85 0.0 L0.85 -0.05 0.8 -0.05 0.85 -0.05" fill="#60291e" fill-rule="evenodd" stroke="none"/>
    <path d="M0.15 -0.55 L0.8 -0.35 0.85 -0.35 0.8 -0.3 0.45 -0.4 0.4 -0.45 0.35 -0.4 0.25 -0.5 0.1 -0.55 0.1 -0.55 0.15 -0.55 M0.1 -0.55 L0.1 -0.55" fill="#a35b4c" fill-rule="evenodd" stroke="none"/>
    <path d="M0.5 -0.5 L0.65 -0.45 0.8 -0.35 0.15 -0.55 0.2 -0.6 0.5 -0.5 M0.8 -0.35 L0.8 -0.35" fill="#cb9285" fill-rule="evenodd" stroke="none"/>
    <path d="M0.2 -0.6 L0.15 -0.55 0.1 -0.6 0.05 -0.6 0.05 -0.6 0.1 -0.6 0.1 -0.6 0.2 -0.6" fill="#f9c1af" fill-rule="evenodd" stroke="none"/>
    <path d="M0.15 -0.55 L0.1 -0.55 0.1 -0.55 0.05 -0.55 0.05 -0.55 -0.05 -0.55 -0.05 -0.6 -0.2 -0.65 -0.1 -0.6 0.0 -0.6 0.05 -0.6 0.1 -0.6 0.15 -0.55 M-0.2 -0.65 L-0.2 -0.65 -0.2 -0.65" fill="#f28f78" fill-rule="evenodd" stroke="none"/>
    <path d="M0.1 -0.55 L0.05 -0.4 -0.05 -0.4 -0.05 -0.45 0.0 -0.5 0.0 -0.55 0.05 -0.55 0.05 -0.55 0.1 -0.55 0.1 -0.55" fill="#7d3627" fill-rule="evenodd" stroke="none"/>
    <path d="M-0.2 -0.65 L-0.05 -0.6 -0.05 -0.55 0.05 -0.55 0.0 -0.55 0.0 -0.5 -0.05 -0.45 -0.05 -0.4 -0.15 -0.45 -0.25 -0.45 -0.2 -0.45 -0.15 -0.45 -0.2 -0.5 -0.2 -0.65" fill="#9f4531" fill-rule="evenodd" stroke="none"/>
    <path d="M0.4 -0.3 L0.55 -0.3 0.7 -0.25 0.6 -0.2 Q0.55 -0.2 0.55 -0.15 0.6 -0.15 0.65 -0.1 L0.65 -0.05 0.7 0.0 0.6 0.0 0.55 0.0 -0.1 -0.15 -0.15 -0.2 -0.1 -0.25 -0.1 -0.25 -0.05 -0.25 0.0 -0.2 0.0 -0.25 0.05 -0.3 Q0.05 -0.3 0.05 -0.35 L0.1 -0.35 0.1 -0.3 0.1 -0.15 Q0.15 -0.1 0.2 -0.15 L0.2 -0.2 0.15 -0.25 Q0.15 -0.25 0.15 -0.3 L0.2 -0.35 0.25 -0.25 0.25 -0.2 0.35 -0.2 0.4 -0.25 0.4 -0.3" fill="#29120d" fill-rule="evenodd" stroke="none"/>
    <path d="M0.05 -0.4 L0.4 -0.3 0.4 -0.25 0.35 -0.2 0.25 -0.2 0.25 -0.25 0.2 -0.35 0.15 -0.3 Q0.15 -0.25 0.15 -0.25 L0.2 -0.2 0.2 -0.15 Q0.15 -0.1 0.1 -0.15 L0.1 -0.3 0.1 -0.35 0.05 -0.35 Q0.05 -0.3 0.05 -0.3 L0.0 -0.25 0.0 -0.2 -0.05 -0.25 -0.1 -0.25 -0.1 -0.25 -0.15 -0.2 -0.15 -0.25 -0.05 -0.25 0.0 -0.25 0.0 -0.35 0.0 -0.4 -0.05 -0.4 -0.05 -0.35 -0.1 -0.3 Q-0.1 -0.3 -0.15 -0.3 L-0.15 -0.35 -0.25 -0.35 -0.2 -0.4 -0.25 -0.4 -0.3 -0.4 -0.35 -0.35 -0.35 -0.35 Q-0.35 -0.3 -0.35 -0.3 L-0.4 -0.3 -0.4 -0.35 Q-0.35 -0.4 -0.4 -0.4 L-0.45 -0.35 -0.45 -0.35 -0.5 -0.4 -0.5 -0.35 -0.45 -0.3 -0.45 -0.3 -0.4 -0.25 -0.4 -0.25 -0.45 -0.25 -0.5 -0.25 -0.55 -0.35 -0.55 -0.35 -0.6 -0.35 -0.6 -0.4 -0.55 -0.45 -0.55 -0.55 -0.55 -0.55 -0.5 -0.6 Q-0.5 -0.55 -0.5 -0.55 L-0.4 -0.55 Q-0.45 -0.5 -0.35 -0.5 L-0.3 -0.5 -0.25 -0.45 -0.15 -0.45 -0.05 -0.4 0.05 -0.4 M-0.3 -0.25 L-0.25 -0.25 -0.3 -0.3 -0.35 -0.3 -0.3 -0.35 -0.25 -0.3 -0.2 -0.3 -0.15 -0.35 -0.2 -0.3 -0.2 -0.2 -0.15 -0.2 -0.3 -0.25 M-0.15 -0.2 L-0.15 -0.2" fill="#3c1a13" fill-rule="evenodd" stroke="none"/>
    <path d="M-0.1 -0.15 Q-0.15 -0.1 -0.05 0.0 L-0.45 -0.1 -0.45 -0.15 -0.5 -0.2 -0.45 -0.25 Q-0.4 -0.25 -0.4 -0.25 L-0.4 -0.25 -0.45 -0.3 -0.45 -0.3 -0.5 -0.35 -0.5 -0.4 -0.45 -0.35 -0.45 -0.35 -0.4 -0.4 Q-0.35 -0.4 -0.4 -0.35 L-0.4 -0.3 -0.35 -0.3 Q-0.35 -0.3 -0.35 -0.35 L-0.35 -0.35 -0.3 -0.4 -0.25 -0.4 -0.2 -0.4 -0.25 -0.35 -0.15 -0.35 -0.15 -0.3 Q-0.1 -0.3 -0.1 -0.3 L-0.05 -0.35 -0.05 -0.4 0.0 -0.4 0.0 -0.35 0.0 -0.25 -0.05 -0.25 -0.15 -0.25 -0.15 -0.2 -0.2 -0.2 -0.2 -0.3 -0.15 -0.35 -0.2 -0.3 -0.25 -0.3 -0.3 -0.35 -0.35 -0.3 -0.3 -0.3 -0.25 -0.25 -0.3 -0.25 -0.35 -0.2 -0.35 -0.2 -0.3 -0.2 -0.25 -0.15 Q-0.25 -0.1 -0.2 -0.15 L-0.15 -0.15 -0.15 -0.2 -0.15 -0.2 -0.1 -0.15" fill="#6c2e22" fill-rule="evenodd" stroke="none"/>
    <path d="M1.4 -0.2 Q1.4 -0.3 1.35 -0.4 L1.2 -0.55 1.15 -0.5 1.1 -0.45 1.0 -0.45 0.95 -0.5 1.0 -0.55 1.05 -0.55 1.1 -0.6 1.2 -0.6 1.3 -0.6 1.4 -0.65 1.4 -0.7 Q1.4 -0.7 1.45 -0.65 L1.55 -0.6 1.7 -0.4 1.75 -0.4 1.7 -0.4 1.6 -0.45 1.55 -0.55 1.35 -0.6 1.3 -0.55 1.35 -0.5 Q1.3 -0.5 1.35 -0.45 L1.4 -0.35 1.5 -0.3 Q1.55 -0.3 1.55 -0.35 L1.65 -0.3 1.75 -0.15 1.65 -0.15 1.6 -0.25 1.5 -0.25 1.45 -0.25 1.4 -0.2 1.4 -0.2" fill="#dd505a" fill-rule="evenodd" stroke="none"/>
    <path d="M1.15 -0.25 L1.35 -0.25 1.35 -0.2 1.35 -0.2 1.4 -0.2 1.4 -0.15 1.35 -0.15 1.3 -0.2 1.3 -0.2 1.2 -0.25 1.1 -0.25 1.05 -0.25 0.9 -0.3 0.85 -0.35 1.15 -0.25 M0.85 -0.35 L0.85 -0.35" fill="#ee947f" fill-rule="evenodd" stroke="none"/>
    <path d="M0.9 -0.35 L1.15 -0.25 0.85 -0.35 0.8 -0.35 0.9 -0.35 M0.8 -0.35 L0.8 -0.35" fill="#fad1c0" fill-rule="evenodd" stroke="none"/>
    <path d="M0.9 -0.2 L0.85 -0.2 0.8 -0.25 0.8 -0.3 0.85 -0.35 0.9 -0.3 0.9 -0.25 Q0.9 -0.2 0.9 -0.2" fill="#893b2b" fill-rule="evenodd" stroke="none"/>
    <path d="M0.7 -0.25 L0.75 -0.2 0.75 -0.15 Q0.7 -0.15 0.7 -0.1 L0.75 -0.05 0.75 0.0 0.7 0.05 0.6 0.0 0.55 0.0 0.55 0.0 0.6 0.0 0.7 0.0 0.65 -0.05 0.65 -0.1 Q0.6 -0.15 0.55 -0.15 0.55 -0.2 0.6 -0.2 L0.7 -0.25" fill="#451e16" fill-rule="evenodd" stroke="none"/>
    <path d="M0.95 -0.2 L0.9 -0.2 Q0.9 -0.2 0.9 -0.25 L0.9 -0.3 1.05 -0.25 1.05 -0.15 1.0 -0.15 0.95 -0.2" fill="#ae4b36" fill-rule="evenodd" stroke="none"/>
    <path d="M1.3 0.15 L1.2 0.15 1.1 0.15 1.05 0.15 1.0 0.1 1.0 0.0 Q0.95 -0.05 1.0 -0.05 1.0 -0.1 1.05 -0.1 L1.05 -0.15 1.0 -0.15 0.95 -0.15 0.95 -0.2 1.0 -0.15 1.05 -0.15 1.15 -0.15 1.25 -0.1 1.35 -0.1 1.35 0.0 1.3 0.0 1.25 0.05 1.3 0.05 1.35 0.05 1.35 0.1 1.3 0.1 1.25 0.1 1.3 0.1 1.35 0.15 1.3 0.15" fill="#3b1a13" fill-rule="evenodd" stroke="none"/>
    <path d="M0.85 -0.05 L0.8 -0.05 0.85 -0.05 0.85 0.0 Q0.9 0.0 0.85 0.0 0.8 0.0 0.75 0.0 L0.75 -0.1 0.8 -0.15 0.85 -0.1 Q0.9 -0.05 0.85 -0.05" fill="#3e1b14" fill-rule="evenodd" stroke="none"/>
    <path d="M1.7 -1.05 Q1.7 -0.95 1.85 -0.85 1.9 -0.85 1.85 -0.9 L1.8 -1.0 1.85 -1.0 1.9 -0.95 1.95 -0.85 1.9 -0.8 1.85 -0.8 1.9 -0.75 1.95 -0.65 2.0 -0.6 2.0 -0.55 1.8 -0.65 1.75 -0.7 1.65 -0.8 1.6 -0.8 1.6 -0.85 1.55 -0.9 1.5 -1.0 Q1.4 -1.1 1.45 -1.15 L1.55 -1.15 1.65 -1.05 1.7 -1.05 M1.55 -1.1 L1.5 -1.05 1.5 -1.05 Q1.55 -0.9 1.65 -0.8 L1.85 -0.7 Q1.9 -0.65 1.9 -0.7 L1.9 -0.75 1.8 -0.8 1.75 -0.9 Q1.65 -0.95 1.65 -1.05 1.65 -1.05 1.6 -1.1 L1.55 -1.1" fill="#8f333a" fill-rule="evenodd" stroke="none"/>
    <path d="M1.55 -1.1 L1.6 -1.1 Q1.65 -1.05 1.65 -1.05 1.65 -0.95 1.75 -0.9 L1.8 -0.8 1.9 -0.75 1.9 -0.7 Q1.9 -0.65 1.85 -0.7 L1.65 -0.8 Q1.55 -0.9 1.5 -1.05 L1.5 -1.05 1.55 -1.1" fill="#69262b" fill-rule="evenodd" stroke="none"/>
    <path d="M1.55 -0.7 L1.55 -0.65 1.45 -0.7 1.4 -0.75 1.45 -0.8 1.5 -0.75 1.5 -0.75 1.55 -0.7" fill="#ffa3bc" fill-rule="evenodd" stroke="none"/>
    <path d="M1.5 -0.75 L1.5 -0.75 1.45 -0.8 1.4 -0.75 1.45 -0.7 1.55 -0.65 1.55 -0.7 1.6 -0.7 Q1.65 -0.65 1.65 -0.65 L1.6 -0.65 1.7 -0.55 1.75 -0.45 1.9 -0.3 1.95 -0.15 1.9 -0.15 1.8 -0.2 1.4 -0.5 1.4 -0.55 1.45 -0.55 1.55 -0.45 1.7 -0.35 1.75 -0.3 1.9 -0.25 1.8 -0.4 1.65 -0.55 1.5 -0.65 1.3 -0.85 1.4 -0.85 1.5 -0.75" fill="#ff8c9d" fill-rule="evenodd" stroke="none"/>
    <path d="M1.4 -0.7 L1.35 -0.7 1.35 -0.75 1.3 -0.75 1.25 -0.8 1.25 -0.85 1.3 -0.95 1.4 -1.0 1.4 -1.0 1.45 -1.0 1.5 -0.95 1.5 -0.85 1.55 -0.8 1.6 -0.7 1.7 -0.65 1.8 -0.6 1.9 -0.5 2.05 -0.35 Q2.1 -0.3 2.2 -0.35 L2.2 -0.3 2.1 -0.3 2.0 -0.35 1.65 -0.65 Q1.65 -0.65 1.6 -0.7 L1.55 -0.7 1.5 -0.75 1.4 -0.85 1.3 -0.85 1.5 -0.65 1.65 -0.55 1.8 -0.4 1.9 -0.25 1.75 -0.3 1.7 -0.35 1.55 -0.45 1.45 -0.55 1.4 -0.55 1.4 -0.5 1.8 -0.2 1.75 -0.15 1.65 -0.3 1.55 -0.35 Q1.55 -0.3 1.5 -0.3 L1.4 -0.35 1.35 -0.45 Q1.3 -0.5 1.35 -0.5 L1.3 -0.55 1.35 -0.6 1.55 -0.55 1.6 -0.45 1.7 -0.4 1.75 -0.4 1.7 -0.4 1.55 -0.6 1.45 -0.65 Q1.4 -0.7 1.4 -0.7" fill="#fc6672" fill-rule="evenodd" stroke="none"/>
    <path d="M1.95 -0.15 L1.9 -0.3 1.75 -0.45 1.7 -0.55 1.6 -0.65 1.65 -0.65 1.85 -0.5 2.0 -0.35 2.1 -0.25 2.2 -0.25 2.2 -0.15 Q2.1 -0.15 2.05 -0.2 L2.0 -0.25 1.95 -0.3 1.95 -0.2 2.0 -0.15 1.95 -0.15" fill="#ffafba" fill-rule="evenodd" stroke="none"/>
    <path d="M1.8 -0.65 L2.0 -0.55 2.0 -0.6 1.95 -0.65 1.9 -0.75 1.85 -0.8 1.9 -0.8 1.95 -0.85 1.9 -0.95 1.95 -0.85 2.0 -0.75 1.95 -0.7 1.95 -0.7 2.05 -0.55 Q2.1 -0.5 2.2 -0.5 L2.2 -0.4 2.1 -0.4 2.05 -0.45 1.8 -0.65" fill="#a3393b" fill-rule="evenodd" stroke="none"/>
    <path d="M1.9 -0.95 L2.0 -0.9 2.05 -0.85 2.0 -0.9 2.05 -0.7 2.1 -0.65 2.2 -0.65 2.2 -0.5 Q2.1 -0.5 2.05 -0.55 L1.95 -0.7 1.95 -0.7 2.0 -0.75 1.95 -0.85 1.9 -0.95" fill="#ba4143" fill-rule="evenodd" stroke="none"/>
    <path d="M1.35 -0.7 L1.35 -0.75 1.3 -0.75 Q1.2 -0.75 1.2 -0.8 1.15 -0.85 1.2 -0.85 L1.25 -0.95 1.2 -1.05 1.25 -1.1 Q1.25 -1.1 1.2 -1.1 1.15 -1.15 1.2 -1.15 L1.3 -1.15 1.35 -1.15 1.35 -1.1 1.4 -1.05 1.4 -1.0 1.3 -0.95 1.25 -0.85 1.25 -0.8 1.3 -0.75 1.35 -0.75 1.35 -0.7" fill="#ee5762" fill-rule="evenodd" stroke="none"/>
    <path d="M1.05 -0.25 L1.1 -0.25 1.2 -0.2 1.3 -0.2 1.35 -0.15 1.25 -0.1 1.15 -0.15 1.05 -0.15 1.05 -0.25" fill="#813828" fill-rule="evenodd" stroke="none"/>
    <path d="M1.1 -0.25 L1.2 -0.25 1.3 -0.2 1.3 -0.2 1.2 -0.2 1.1 -0.25" fill="#bc6957" fill-rule="evenodd" stroke="none"/>
    <path d="M1.4 -0.2 L1.45 -0.25 1.5 -0.25 1.6 -0.25 1.65 -0.15 1.55 -0.2 1.4 -0.2" fill="#ac424b" fill-rule="evenodd" stroke="none"/>
    <path d="M1.35 -0.2 L1.4 -0.2 1.35 -0.2 1.35 -0.2 M1.8 -0.2 L1.9 -0.15 1.95 -0.15 2.0 -0.15 2.0 -0.2 2.1 -0.15 2.2 -0.15 2.2 0.0 1.9 -0.1 1.8 -0.15 Q1.75 -0.15 1.7 -0.1 L1.6 -0.15 1.55 -0.15 1.4 -0.2 1.55 -0.2 1.65 -0.15 1.75 -0.15 1.8 -0.2 M1.9 -0.1 L1.9 -0.1 M1.7 -0.1 L1.7 -0.1" fill="#fffaf5" fill-rule="evenodd" stroke="none"/>
    <path d="M1.4 -0.15 L1.4 -0.2 1.55 -0.15 1.5 -0.1 1.45 -0.15 1.4 -0.15 1.4 -0.15" fill="#ffcca9" fill-rule="evenodd" stroke="none"/>
    <path d="M1.35 -0.15 L1.4 -0.15 1.35 -0.15 1.35 -0.1 1.35 -0.1 1.25 -0.1 1.35 -0.15 M1.4 -0.15 L1.4 -0.15" fill="#b44d38" fill-rule="evenodd" stroke="none"/>
    <path d="M1.35 -0.1 L1.35 -0.15 1.4 -0.15 1.45 -0.15 1.4 -0.1 1.4 -0.1 1.35 -0.1" fill="#f67554" fill-rule="evenodd" stroke="none"/>
    <path d="M1.35 0.15 L1.3 0.1 1.25 0.1 1.3 0.1 1.35 0.1 1.35 0.05 1.3 0.05 1.25 0.05 1.3 0.0 1.35 0.0 1.35 -0.1 1.4 -0.05 1.4 0.0 1.35 0.05 1.4 0.1 1.4 0.15 1.35 0.15" fill="#602a1e" fill-rule="evenodd" stroke="none"/>
    <path d="M1.5 -0.05 L1.5 0.0 1.4 0.0 1.4 -0.05 1.5 -0.05 1.5 -0.05 M1.4 0.0 L1.4 0.0" fill="#91402e" fill-rule="evenodd" stroke="none"/>
    <path d="M1.4 -0.1 L1.4 -0.1 1.45 -0.15 1.5 -0.1 1.55 -0.15 1.6 -0.15 1.6 -0.1 1.55 -0.1 1.6 -0.1 1.7 -0.1 1.75 -0.05 1.75 -0.05 Q1.8 -0.1 1.8 -0.05 L1.85 -0.05 1.8 -0.05 1.85 0.0 1.5 -0.1 Q1.45 -0.05 1.5 -0.05 L1.4 -0.05 1.4 -0.1 M1.85 0.0 L1.85 0.0" fill="#fe9b72" fill-rule="evenodd" stroke="none"/>
    <path d="M1.65 0.05 L1.5 0.1 1.55 0.05 1.55 -0.05 1.5 -0.05 1.5 -0.05 Q1.45 -0.05 1.5 -0.1 L1.85 0.0 1.9 0.05 1.75 0.0 1.65 0.05" fill="#ffdda3" fill-rule="evenodd" stroke="none"/>
    <path d="M1.4 0.0 L1.5 0.0 1.5 -0.05 1.55 -0.05 1.55 0.05 1.5 0.1 1.65 0.05 Q1.6 0.1 1.65 0.1 L1.7 0.1 Q1.75 0.1 1.75 0.1 1.7 0.15 1.75 0.15 L1.8 0.15 1.8 0.2 1.85 0.2 1.85 0.2 1.9 0.2 1.9 0.25 1.95 0.25 1.85 0.25 1.65 0.15 1.6 0.1 1.55 0.1 1.5 0.1 1.45 0.05 1.4 0.0" fill="#fe9971" fill-rule="evenodd" stroke="none"/>
    <path d="M2.2 -0.35 Q2.1 -0.3 2.05 -0.35 L1.9 -0.5 1.8 -0.6 1.7 -0.65 1.95 -0.55 2.0 -0.45 Q2.1 -0.35 2.2 -0.35 L2.2 -0.35" fill="#e65156" fill-rule="evenodd" stroke="none"/>
    <path d="M2.2 -0.25 L2.1 -0.25 2.0 -0.35 1.85 -0.5 1.65 -0.65 2.0 -0.35 2.1 -0.3 2.2 -0.3 2.2 -0.25" fill="#ff9097" fill-rule="evenodd" stroke="none"/>
    <path d="M1.7 -0.1 L1.6 -0.1 1.55 -0.1 1.6 -0.1 1.6 -0.15 1.7 -0.1 1.7 -0.1" fill="#ffd5b1" fill-rule="evenodd" stroke="none"/>
    <path d="M1.75 -0.05 L1.75 -0.05 1.7 -0.1 1.7 -0.1 1.75 -0.1 1.75 -0.05" fill="#fff7d7" fill-rule="evenodd" stroke="none"/>
    <path d="M1.85 -0.05 L1.8 -0.05 Q1.8 -0.1 1.75 -0.05 L1.75 -0.1 1.7 -0.1 Q1.75 -0.15 1.8 -0.15 L1.9 -0.1 1.85 -0.05" fill="#ffcda9" fill-rule="evenodd" stroke="none"/>
    <path d="M2.2 -0.15 L2.1 -0.15 2.0 -0.2 2.0 -0.15 1.95 -0.2 1.95 -0.3 2.0 -0.25 2.05 -0.2 Q2.1 -0.15 2.2 -0.15 L2.2 -0.15" fill="#ffcbd4" fill-rule="evenodd" stroke="none"/>
    <path d="M1.85 0.0 L1.8 -0.05 1.85 -0.05 1.9 -0.1 1.9 -0.1 Q1.95 -0.05 1.95 0.0 L1.85 0.0 1.85 0.0" fill="#e7674a" fill-rule="evenodd" stroke="none"/>
    <path d="M2.05 -0.85 L2.1 -0.8 2.2 -0.75 2.2 -0.65 2.1 -0.65 2.05 -0.7 2.0 -0.9 2.05 -0.85" fill="#df4e51" fill-rule="evenodd" stroke="none"/>
    <path d="M1.85 0.0 L1.85 0.0 2.1 0.05 2.0 0.05 1.95 0.0 Q1.95 -0.05 1.9 -0.1 L2.2 0.0 2.2 0.05 2.1 0.05 2.15 0.1 2.2 0.1 2.05 0.1 1.9 0.05 1.85 0.0 1.85 0.0" fill="#ff946c" fill-rule="evenodd" stroke="none"/>
    <path d="M2.2 0.05 L2.2 0.1 2.15 0.1 2.1 0.05 2.2 0.05" fill="#ab4935" fill-rule="evenodd" stroke="none"/>
    <path d="M1.95 0.25 L1.9 0.25 1.95 0.2 2.0 0.15 2.05 0.2 2.1 0.15 2.05 0.2 2.05 0.25 2.0 0.25 1.95 0.25" fill="#ffdca3" fill-rule="evenodd" stroke="none"/>
    <path d="M1.9 0.25 L1.9 0.2 1.85 0.2 1.85 0.1 1.8 0.05 1.8 0.15 1.75 0.15 Q1.7 0.15 1.75 0.1 1.75 0.1 1.7 0.1 L1.65 0.1 Q1.6 0.1 1.65 0.05 L1.75 0.0 1.9 0.05 2.05 0.1 2.2 0.1 2.2 0.3 2.05 0.25 2.05 0.2 2.1 0.15 2.05 0.2 2.0 0.15 1.95 0.2 1.9 0.25" fill="#fffef3" fill-rule="evenodd" stroke="none"/>
    <path d="M2.2 0.3 L2.2 0.35 1.95 0.25 2.0 0.25 2.05 0.25 2.2 0.3" fill="#ff9a6f" fill-rule="evenodd" stroke="none"/>
    <path d="M1.65 0.15 L1.85 0.25 1.95 0.25 2.2 0.35 2.2 0.4 2.1 0.4 2.05 0.35 1.95 0.35 2.0 0.35 1.95 0.3 1.9 0.25 1.8 0.25 1.75 0.25 1.65 0.2 1.6 0.2 1.65 0.15" fill="#d55d44" fill-rule="evenodd" stroke="none"/>
    <path d="M1.95 0.35 L1.95 0.4 2.0 0.4 2.1 0.4 Q2.15 0.4 2.1 0.4 L2.2 0.4 2.1 0.45 2.0 0.45 1.9 0.4 1.85 0.4 Q1.75 0.4 1.7 0.35 L1.85 0.35 1.95 0.35 2.0 0.35 1.95 0.35" fill="#ffab7b" fill-rule="evenodd" stroke="none"/>
    <path d="M2.1 0.4 Q2.15 0.4 2.1 0.4 L2.0 0.4 1.95 0.4 1.95 0.35 2.05 0.35 2.1 0.4" fill="#ffe9ab" fill-rule="evenodd" stroke="none"/>
    <path d="M2.15 0.6 L2.2 0.6 2.05 0.6 1.95 0.6 1.85 0.6 1.8 0.65 1.8 0.6 Q1.8 0.55 1.75 0.55 L1.7 0.55 1.65 0.55 Q1.55 0.55 1.55 0.6 L1.6 0.65 1.65 0.65 1.6 0.7 1.55 0.7 Q1.5 0.65 1.55 0.6 1.55 0.55 1.6 0.55 1.55 0.45 1.55 0.4 1.7 0.45 1.9 0.5 L1.85 0.55 1.9 0.6 2.0 0.6 2.15 0.6" fill="#ff778f" fill-rule="evenodd" stroke="none"/>
    <path d="M2.2 0.5 L2.2 0.6 2.15 0.6 2.05 0.55 1.9 0.55 Q1.9 0.5 1.95 0.5 L1.95 0.55 2.0 0.55 1.9 0.5 Q1.7 0.45 1.55 0.4 L1.35 0.3 1.3 0.3 1.25 0.25 1.4 0.25 1.5 0.25 1.6 0.3 1.7 0.35 Q1.75 0.4 1.85 0.4 L1.9 0.4 2.0 0.45 2.05 0.5 2.15 0.5 2.2 0.5" fill="#fffdf8" fill-rule="evenodd" stroke="none"/>
    <path d="M2.2 0.4 L2.2 0.5 2.15 0.5 2.05 0.45 2.0 0.45 2.1 0.45 2.2 0.4" fill="#fb6e4f" fill-rule="evenodd" stroke="none"/>
    <path d="M2.15 0.5 L2.05 0.5 2.0 0.45 2.05 0.45 2.15 0.5" fill="#ffe1b9" fill-rule="evenodd" stroke="none"/>
    <path d="M1.9 0.5 L2.0 0.55 1.95 0.55 1.95 0.5 Q1.9 0.5 1.9 0.55 L2.05 0.55 2.15 0.6 2.0 0.6 1.9 0.6 1.85 0.55 1.9 0.5" fill="#ffb2ca" fill-rule="evenodd" stroke="none"/>
    <path d="M2.2 0.6 L2.2 0.65 2.15 0.65 2.1 0.7 2.0 0.65 1.95 0.65 1.95 0.6 2.05 0.6 2.2 0.6" fill="#ffd0e6" fill-rule="evenodd" stroke="none"/>
    <path d="M2.2 0.65 L2.2 0.8 2.15 0.8 2.1 0.85 2.0 0.85 1.9 0.9 1.8 0.95 1.6 1.0 1.55 1.0 1.45 1.0 1.4 1.0 1.35 1.0 Q1.35 0.95 1.45 0.95 L1.55 0.95 1.6 0.9 1.7 0.85 1.9 0.8 1.95 0.8 2.0 0.75 1.9 0.75 1.8 0.75 1.75 0.75 Q1.7 0.7 1.7 0.65 L1.85 0.65 1.95 0.65 2.0 0.65 2.1 0.7 2.15 0.65 2.2 0.65" fill="#fff8fd" fill-rule="evenodd" stroke="none"/>
    <path d="M2.2 0.8 L2.2 0.85 2.1 0.85 2.15 0.8 2.2 0.8" fill="#ffaec4" fill-rule="evenodd" stroke="none"/>
    <path d="M2.2 0.85 L2.2 0.9 Q2.1 0.9 2.0 0.95 L2.0 0.9 Q2.0 0.85 2.1 0.85 L2.2 0.85" fill="#a43239" fill-rule="evenodd" stroke="none"/>
    <path d="M2.2 0.85 L2.1 0.85 Q2.0 0.85 2.0 0.9 L1.95 0.95 1.9 0.95 1.85 0.95 1.8 0.95 1.9 0.9 1.95 0.9 2.0 0.85 2.1 0.85 2.2 0.85" fill="#f9606b" fill-rule="evenodd" stroke="none"/>
    <path d="M2.2 0.95 L2.2 1.0 2.05 1.05 2.0 1.1 2.05 1.1 1.95 1.15 1.85 1.2 1.9 1.15 2.0 1.05 1.9 1.1 2.0 1.0 2.2 0.95" fill="#8c2c34" fill-rule="evenodd" stroke="none"/>
    <path d="M2.2 1.1 L2.2 1.2 2.1 1.2 2.0 1.25 1.85 1.35 1.65 1.45 1.65 1.7 Q1.6 1.75 1.55 1.7 L1.45 1.6 1.4 1.6 1.3 1.65 1.3 1.55 1.25 1.55 Q1.3 1.5 1.35 1.5 1.35 1.5 1.35 1.55 L1.4 1.6 1.45 1.55 1.5 1.55 1.55 1.6 1.6 1.6 1.6 1.5 1.65 1.45 1.65 1.35 1.75 1.3 1.8 1.25 1.7 1.25 1.6 1.3 1.55 1.25 1.55 1.15 1.65 1.1 1.75 1.05 Q1.8 1.05 1.8 1.05 L1.8 1.15 Q1.8 1.15 1.85 1.1 L1.9 1.1 2.0 1.05 1.9 1.15 1.85 1.2 1.95 1.15 2.05 1.1 2.1 1.1 2.2 1.1" fill="#64222c" fill-rule="evenodd" stroke="none"/>
    <path d="M2.2 1.0 L2.2 1.1 2.1 1.1 2.05 1.1 2.0 1.1 2.05 1.05 2.2 1.0" fill="#aa3541" fill-rule="evenodd" stroke="none"/>
    <path d="M2.2 1.2 L2.2 1.85 1.8 1.8 1.7 1.8 1.6 1.8 1.5 1.75 1.4 1.65 1.3 1.7 1.2 1.7 1.2 1.65 1.25 1.6 1.2 1.6 1.1 1.6 1.0 1.6 0.95 1.55 0.8 1.5 0.7 1.5 Q0.65 1.5 0.6 1.5 L0.55 1.45 0.4 1.45 0.3 1.45 0.1 1.4 -0.05 1.4 -0.05 1.35 0.0 1.3 0.1 1.25 0.05 1.3 0.05 1.35 0.2 1.4 0.4 1.4 0.6 1.3 Q0.75 1.2 0.85 1.15 L1.0 1.15 Q1.1 1.15 1.15 1.25 L1.25 1.25 1.2 1.3 1.15 1.35 1.1 1.3 1.05 1.25 0.9 1.3 0.8 1.35 0.75 1.4 0.7 1.45 Q0.75 1.5 0.85 1.45 L1.0 1.4 1.1 1.4 1.15 1.45 1.25 1.4 1.35 1.35 1.4 1.35 1.4 1.4 1.35 1.5 1.25 1.55 1.2 1.55 1.25 1.6 1.3 1.6 1.25 1.65 1.3 1.65 1.35 1.65 1.45 1.6 1.5 1.7 1.6 1.75 1.65 1.8 1.65 1.75 1.7 1.7 1.65 1.7 1.65 1.45 1.85 1.35 2.0 1.25 2.1 1.2 2.2 1.2" fill="#42171e" fill-rule="evenodd" stroke="none"/>
    <path d="M2.2 0.9 L2.2 0.95 2.0 1.0 1.9 1.1 1.85 1.1 Q1.8 1.1 1.85 1.05 L1.9 1.0 1.8 1.0 Q1.8 1.05 1.75 1.05 L1.75 1.0 1.8 0.95 1.85 0.95 1.9 0.95 1.95 0.95 2.0 0.9 2.0 0.95 Q2.1 0.9 2.2 0.9" fill="#c94048" fill-rule="evenodd" stroke="none"/>
    <path d="M2.2 1.85 L2.2 2.2 2.05 2.2 1.9 2.1 1.8 2.1 1.75 2.05 1.7 2.0 1.6 1.9 1.45 1.8 1.15 1.7 1.05 1.65 1.0 1.6 0.85 1.6 0.75 1.55 0.65 1.55 0.55 1.55 0.4 1.55 0.15 1.5 -0.05 1.5 -0.5 1.45 -0.6 1.45 -0.65 1.5 -0.75 1.5 -0.85 1.55 -0.9 1.6 -1.0 1.6 -1.05 1.65 -1.15 1.6 -1.2 1.55 -1.2 1.55 Q-1.3 1.6 -1.4 1.55 L-1.5 1.55 -1.6 1.55 -1.75 1.55 -1.9 1.6 Q-1.95 1.6 -2.05 1.65 L-2.2 1.7 -2.2 1.55 -1.9 1.5 -1.65 1.45 -1.6 1.45 -1.55 1.5 -1.35 1.45 -1.25 1.45 -1.15 1.4 -0.75 1.3 -0.35 1.35 -0.3 1.3 -0.25 1.25 -0.25 1.35 -0.2 1.3 -0.1 1.35 -0.05 1.35 -0.05 1.4 0.1 1.4 0.3 1.45 0.4 1.45 0.55 1.45 0.6 1.5 Q0.65 1.5 0.7 1.5 L0.8 1.5 0.95 1.55 1.0 1.6 1.1 1.6 1.2 1.6 1.25 1.6 1.2 1.65 1.2 1.7 1.3 1.7 1.4 1.65 1.5 1.75 1.6 1.8 1.7 1.8 1.8 1.8 2.2 1.85 M0.0 1.3 L-0.05 1.35 0.0 1.3" fill="#351218" fill-rule="evenodd" stroke="none"/>
    <path d="M1.95 0.0 L2.0 0.05 2.1 0.05 1.85 0.0 1.95 0.0" fill="#a94b34" fill-rule="evenodd" stroke="none"/>
    <path d="M1.85 0.2 L1.85 0.2 1.8 0.2 1.8 0.15 1.8 0.05 1.85 0.1 1.85 0.2" fill="#ffedb2" fill-rule="evenodd" stroke="none"/>
    <path d="M2.0 0.35 L1.95 0.35 1.7 0.25 1.75 0.25 1.8 0.25 1.9 0.25 1.95 0.3 2.0 0.35" fill="#6e3022" fill-rule="evenodd" stroke="none"/>
    <path d="M1.55 0.1 L1.6 0.1 1.65 0.15 1.65 0.2 1.6 0.15 1.55 0.1" fill="#a04632" fill-rule="evenodd" stroke="none"/>
    <path d="M1.4 0.0 L1.45 0.05 1.4 0.1 1.45 0.1 1.5 0.1 1.55 0.1 1.6 0.15 1.65 0.2 1.6 0.2 1.55 0.2 1.55 0.15 1.5 0.15 Q1.45 0.15 1.45 0.15 L1.5 0.15 1.55 0.2 1.45 0.2 1.4 0.15 1.35 0.25 1.3 0.25 1.3 0.2 1.35 0.2 1.35 0.15 1.4 0.15 1.4 0.1 1.35 0.05 1.4 0.0 1.4 0.0" fill="#f57556" fill-rule="evenodd" stroke="none"/>
    <path d="M1.95 0.35 L1.85 0.35 1.7 0.35 1.6 0.3 1.6 0.2 1.65 0.25 1.7 0.25 1.95 0.35" fill="#fb8560" fill-rule="evenodd" stroke="none"/>
    <path d="M1.6 0.2 L1.6 0.3 1.5 0.25 1.4 0.25 1.25 0.25 1.2 0.25 1.25 0.25 1.3 0.25 1.35 0.25 1.4 0.15 1.45 0.2 1.55 0.2 1.6 0.2" fill="#fec390" fill-rule="evenodd" stroke="none"/>
    <path d="M1.75 0.25 L1.7 0.25 1.65 0.25 1.6 0.2 1.55 0.2 1.6 0.2 1.65 0.2 1.75 0.25" fill="#9e4331" fill-rule="evenodd" stroke="none"/>
    <path d="M1.55 0.2 L1.5 0.15 1.45 0.15 Q1.45 0.15 1.5 0.15 L1.55 0.15 1.55 0.2" fill="#a54a34" fill-rule="evenodd" stroke="none"/>
    <path d="M1.65 0.65 L1.6 0.65 1.55 0.6 Q1.55 0.55 1.65 0.55 L1.7 0.55 1.75 0.55 Q1.8 0.55 1.8 0.6 L1.8 0.65 1.65 0.65" fill="#fc6076" fill-rule="evenodd" stroke="none"/>
    <path d="M1.95 0.6 L1.95 0.65 1.85 0.65 1.7 0.65 1.65 0.7 Q1.6 0.7 1.65 0.7 L1.7 0.75 1.7 0.8 1.75 0.85 1.7 0.85 1.6 0.9 1.45 0.9 Q1.35 0.95 1.3 1.0 L1.4 1.05 1.3 1.05 1.1 1.1 Q1.15 1.05 1.2 1.05 1.2 1.05 1.25 1.0 L1.35 0.9 1.3 0.85 1.3 0.75 1.25 0.7 1.3 0.65 1.25 0.6 1.15 0.65 1.0 0.65 0.95 0.6 1.0 0.6 1.15 0.55 1.2 0.55 1.3 0.55 Q1.4 0.55 1.4 0.45 L1.35 0.35 1.35 0.3 1.45 0.4 1.55 0.4 Q1.55 0.45 1.6 0.55 1.55 0.55 1.55 0.6 1.5 0.65 1.55 0.7 L1.5 0.65 1.45 0.6 1.55 0.55 1.55 0.5 1.45 0.5 Q1.4 0.5 1.4 0.55 L1.35 0.55 1.3 0.55 1.3 0.6 Q1.4 0.65 1.35 0.65 L1.3 0.7 1.35 0.75 1.35 0.85 1.45 0.85 1.45 0.75 1.5 0.75 1.55 0.7 1.6 0.7 1.65 0.65 1.8 0.65 1.85 0.6 1.95 0.6 M1.15 0.6 L1.05 0.6 Q1.0 0.6 1.0 0.65 L1.1 0.65 1.2 0.6 1.2 0.55 Q1.2 0.55 1.15 0.6 M1.6 0.75 Q1.55 0.75 1.5 0.75 1.5 0.8 1.5 0.85 L1.55 0.9 1.6 0.9 1.65 0.9 1.65 0.85 Q1.7 0.8 1.65 0.75 L1.6 0.75" fill="#ff94b6" fill-rule="evenodd" stroke="none"/>
    <path d="M1.4 0.55 Q1.4 0.5 1.45 0.5 L1.55 0.5 1.55 0.55 1.45 0.6 1.5 0.65 1.55 0.7 Q1.5 0.65 1.45 0.7 L1.4 0.65 1.3 0.7 1.4 0.75 1.45 0.75 1.45 0.85 1.35 0.85 1.35 0.75 1.3 0.7 1.35 0.65 Q1.4 0.65 1.3 0.6 L1.3 0.55 1.35 0.55 1.35 0.6 1.4 0.6 1.45 0.6 1.55 0.55 1.45 0.5 1.4 0.55 M1.5 0.75 L1.55 0.7 1.5 0.75" fill="#ffb1da" fill-rule="evenodd" stroke="none"/>
    <path d="M1.45 0.05 L1.5 0.1 1.45 0.1 1.4 0.1 1.45 0.05" fill="#9d4532" fill-rule="evenodd" stroke="none"/>
    <path d="M1.3 0.2 Q1.25 0.15 1.3 0.15 L1.35 0.15 1.35 0.2 1.3 0.2" fill="#a64733" fill-rule="evenodd" stroke="none"/>
    <path d="M0.7 0.1 L0.75 0.05 0.85 0.05 0.9 0.1 0.95 0.15 1.1 0.2 1.3 0.2 1.3 0.25 1.25 0.25 1.1 0.25 0.95 0.2 0.8 0.1 0.7 0.1" fill="#ac5340" fill-rule="evenodd" stroke="none"/>
    <path d="M1.3 0.55 Q1.4 0.5 1.35 0.4 L1.35 0.35 1.3 0.3 1.35 0.3 1.35 0.35 1.4 0.45 Q1.4 0.55 1.3 0.55" fill="#ff7693" fill-rule="evenodd" stroke="none"/>
    <path d="M1.3 0.3 L1.35 0.35 1.35 0.4 Q1.4 0.5 1.3 0.55 L1.2 0.55 1.15 0.55 1.0 0.6 0.95 0.6 1.0 0.65 1.05 0.7 1.1 0.75 1.15 0.75 1.2 0.75 Q1.25 0.75 1.3 0.8 L1.2 0.85 1.1 0.9 1.2 0.9 1.3 0.9 1.25 0.95 1.2 0.95 1.1 1.05 1.05 1.0 1.0 0.9 1.05 0.8 1.1 0.85 1.15 0.85 1.2 0.8 1.25 0.8 1.15 0.75 1.05 0.75 1.0 0.7 0.9 0.6 0.8 0.6 0.7 0.6 0.75 0.55 0.55 0.5 Q0.45 0.45 0.4 0.55 L0.35 0.6 0.3 0.7 0.3 0.65 0.3 0.6 Q0.35 0.45 0.5 0.45 L0.75 0.5 1.0 0.55 1.05 0.55 1.2 0.5 1.3 0.5 1.35 0.45 1.3 0.4 1.25 0.35 1.25 0.3 1.3 0.3 M0.25 0.95 Q0.25 1.0 0.35 1.0 L0.45 0.95 0.45 0.85 0.4 0.8 0.45 0.7 0.4 0.65 Q0.4 0.55 0.5 0.55 L0.6 0.55 0.7 0.6 0.6 0.6 Q0.55 0.6 0.5 0.6 L0.5 0.65 0.5 0.75 0.45 0.8 0.5 0.85 0.5 0.95 0.45 1.0 0.35 1.05 0.4 1.1 0.35 1.15 Q0.3 1.15 0.3 1.1 L0.3 1.05 0.25 1.0 0.25 0.95" fill="#f96271" fill-rule="evenodd" stroke="none"/>
    <path d="M1.3 0.3 L1.25 0.3 1.15 0.35 1.05 0.4 1.0 0.5 1.0 0.55 0.75 0.5 0.7 0.45 0.65 0.4 Q0.6 0.35 0.55 0.35 L0.5 0.4 0.35 0.45 0.3 0.55 0.25 0.55 0.3 0.45 0.4 0.4 0.55 0.35 0.7 0.3 0.7 0.4 Q0.7 0.45 0.7 0.45 L0.8 0.5 0.9 0.55 0.95 0.55 0.95 0.45 1.1 0.35 1.25 0.25 1.3 0.3" fill="#af3f4c" fill-rule="evenodd" stroke="none"/>
    <path d="M1.25 0.25 L1.2 0.25 0.9 0.2 0.95 0.2 0.9 0.2 0.75 0.15 0.6 0.15 0.5 0.15 0.35 0.1 0.3 0.1 0.3 0.05 0.5 0.1 0.7 0.1 0.8 0.1 0.95 0.2 1.1 0.25 1.25 0.25" fill="#e69a86" fill-rule="evenodd" stroke="none"/>
    <path d="M0.9 0.2 L0.8 0.3 Q0.8 0.4 0.8 0.45 0.85 0.5 0.9 0.45 L0.95 0.4 1.1 0.35 1.2 0.25 1.25 0.25 1.1 0.35 0.95 0.45 0.95 0.55 0.9 0.55 0.8 0.5 0.75 0.45 0.75 0.35 0.8 0.3 0.85 0.2 0.9 0.2" fill="#7d2d37" fill-rule="evenodd" stroke="none"/>
    <path d="M1.25 0.3 L1.25 0.35 1.3 0.4 1.35 0.45 1.3 0.5 1.2 0.5 1.05 0.55 1.1 0.5 1.1 0.45 1.15 0.35 1.25 0.3" fill="#e95265" fill-rule="evenodd" stroke="none"/>
    <path d="M1.05 0.55 L1.0 0.55 1.0 0.5 1.05 0.4 1.15 0.35 1.25 0.3 1.15 0.35 1.1 0.45 1.1 0.5 1.05 0.55" fill="#d0495a" fill-rule="evenodd" stroke="none"/>
    <path d="M1.15 0.6 L1.2 0.55 1.2 0.6 1.1 0.65 1.0 0.65 Q1.0 0.6 1.05 0.6 L1.15 0.6" fill="#ffaecf" fill-rule="evenodd" stroke="none"/>
    <path d="M1.35 0.55 L1.4 0.55 1.45 0.5 1.55 0.55 1.45 0.6 1.4 0.6 1.35 0.6 1.35 0.55" fill="#ffd0f8" fill-rule="evenodd" stroke="none"/>
    <path d="M1.35 0.3 L1.55 0.4 1.45 0.4 1.35 0.3" fill="#ffbae6" fill-rule="evenodd" stroke="none"/>
    <path d="M1.2 0.25 L1.1 0.35 0.95 0.4 0.9 0.45 Q0.85 0.5 0.8 0.45 0.8 0.4 0.8 0.3 L0.9 0.2 1.2 0.25" fill="#582027" fill-rule="evenodd" stroke="none"/>
    <path d="M1.45 0.75 L1.4 0.75 1.3 0.7 1.4 0.65 1.45 0.7 Q1.5 0.65 1.55 0.7 L1.5 0.75 1.45 0.75" fill="#ffd9f9" fill-rule="evenodd" stroke="none"/>
    <path d="M1.1 1.05 L1.2 0.95 1.25 0.95 1.3 0.9 1.2 0.9 1.1 0.9 1.2 0.85 1.3 0.8 Q1.25 0.75 1.2 0.75 L1.15 0.75 1.1 0.75 1.05 0.7 1.0 0.65 1.15 0.65 1.25 0.6 1.3 0.65 1.25 0.7 1.3 0.75 1.3 0.85 1.35 0.9 1.25 1.0 Q1.2 1.05 1.2 1.05 1.15 1.05 1.1 1.1 L1.3 1.05 1.4 1.05 1.45 1.05 1.45 1.0 1.55 1.05 Q1.6 1.05 1.6 1.0 L1.8 0.95 1.65 1.0 1.55 1.1 1.55 1.15 1.5 1.2 1.45 1.2 1.4 1.15 1.4 1.1 1.45 1.05 1.35 1.05 1.25 1.05 1.2 1.1 1.1 1.1 1.1 1.05" fill="#fe7088" fill-rule="evenodd" stroke="none"/>
    <path d="M1.15 0.85 L1.1 0.85 1.05 0.8 Q1.05 0.8 1.0 0.8 L1.0 0.95 1.05 1.0 1.1 1.05 0.9 0.95 0.7 0.95 0.55 1.0 0.55 1.1 0.35 1.2 Q0.25 1.2 0.2 1.1 0.2 1.05 0.25 1.1 0.25 1.15 0.3 1.15 L0.4 1.15 0.5 1.1 0.45 1.05 Q0.5 1.0 0.55 0.95 L0.65 0.95 0.7 0.95 0.65 0.9 0.55 0.85 0.55 0.8 0.6 0.75 0.55 0.65 0.6 0.6 0.8 0.6 0.95 0.7 0.8 0.65 Q0.7 0.65 0.65 0.7 L0.7 0.7 0.75 0.75 0.7 0.8 0.65 0.85 0.75 0.85 0.9 0.9 0.95 0.8 Q1.0 0.75 1.05 0.75 L1.1 0.75 1.2 0.8 1.15 0.8 1.15 0.85" fill="#a23b44" fill-rule="evenodd" stroke="none"/>
    <path d="M1.05 0.75 L1.15 0.75 1.25 0.8 1.2 0.8 1.15 0.85 1.15 0.8 1.2 0.8 1.1 0.75 1.05 0.75" fill="#d44c59" fill-rule="evenodd" stroke="none"/>
    <path d="M1.05 0.8 L1.0 0.9 1.05 1.0 1.0 0.95 1.0 0.8 Q1.05 0.8 1.05 0.8" fill="#c94856" fill-rule="evenodd" stroke="none"/>
    <path d="M1.1 1.05 L1.1 1.1 Q1.05 1.1 1.0 1.05 L0.9 1.0 0.75 1.0 Q0.65 1.0 0.6 1.05 L0.7 1.1 0.75 1.1 Q0.5 1.15 0.35 1.2 L0.4 1.25 0.4 1.3 0.3 1.35 0.25 1.35 0.25 1.3 0.3 1.25 0.25 1.2 0.15 1.15 0.2 1.1 Q0.25 1.2 0.35 1.2 L0.55 1.1 0.55 1.0 0.7 0.95 0.9 0.95 1.1 1.05" fill="#8a313b" fill-rule="evenodd" stroke="none"/>
    <path d="M1.1 1.1 L1.2 1.1 1.25 1.05 1.3 1.05 1.35 1.05 1.4 1.1 Q1.35 1.25 1.45 1.2 L1.5 1.2 1.45 1.2 1.4 1.25 1.35 1.2 1.35 1.1 Q1.35 1.05 1.3 1.1 L1.2 1.1 1.15 1.1 1.1 1.1" fill="#ac3c4b" fill-rule="evenodd" stroke="none"/>
    <path d="M1.1 1.1 L1.05 1.1 1.0 1.05 Q0.9 1.05 0.85 1.1 L0.7 1.15 0.5 1.2 0.45 1.25 0.4 1.35 0.3 1.35 0.2 1.35 Q0.2 1.3 0.2 1.3 L0.25 1.25 0.2 1.2 0.15 1.15 0.25 1.2 0.3 1.25 0.25 1.3 0.25 1.35 0.3 1.35 0.4 1.3 0.4 1.25 0.35 1.2 Q0.5 1.15 0.75 1.1 L0.7 1.1 0.6 1.05 Q0.65 1.0 0.75 1.0 L0.9 1.0 1.0 1.05 Q1.05 1.1 1.1 1.1" fill="#792b34" fill-rule="evenodd" stroke="none"/>
    <path d="M0.15 1.15 L0.2 1.2 0.25 1.25 0.2 1.3 Q0.2 1.3 0.2 1.35 L0.3 1.35 0.4 1.35 0.45 1.25 0.5 1.2 0.7 1.15 0.85 1.1 Q0.9 1.05 1.0 1.05 L1.05 1.1 1.1 1.1 1.15 1.1 1.2 1.1 1.3 1.1 1.3 1.15 1.3 1.25 1.25 1.35 1.15 1.45 1.0 1.3 Q1.05 1.3 1.1 1.3 L1.15 1.4 Q1.2 1.35 1.25 1.35 L1.3 1.25 1.3 1.2 1.25 1.2 1.25 1.1 1.2 1.15 1.15 1.15 1.05 1.1 0.95 1.1 0.8 1.15 0.65 1.2 0.55 1.25 0.45 1.3 0.25 1.4 0.2 1.35 0.15 1.3 0.15 1.2 0.15 1.15" fill="#66232d" fill-rule="evenodd" stroke="none"/>
    <path d="M0.15 1.2 L0.15 1.3 0.2 1.35 0.25 1.4 0.45 1.3 0.55 1.25 0.65 1.2 0.8 1.15 0.95 1.1 1.05 1.1 1.15 1.15 1.2 1.15 1.25 1.1 1.25 1.2 1.3 1.2 1.3 1.25 1.25 1.35 Q1.2 1.35 1.15 1.4 L1.1 1.3 Q1.05 1.3 1.0 1.3 L1.15 1.45 1.1 1.4 1.0 1.4 0.85 1.45 Q0.75 1.5 0.7 1.45 L0.75 1.4 0.8 1.35 0.9 1.3 1.05 1.25 1.1 1.3 1.15 1.35 1.2 1.3 1.25 1.25 1.15 1.25 Q1.1 1.15 1.0 1.15 L0.85 1.15 Q0.75 1.2 0.6 1.3 L0.4 1.4 0.2 1.4 0.05 1.35 0.05 1.3 0.1 1.25 0.15 1.2 M1.65 1.7 L1.7 1.7 1.65 1.75 1.65 1.8 1.6 1.75 1.5 1.7 1.45 1.6 1.35 1.65 1.3 1.65 1.25 1.65 1.3 1.6 1.25 1.6 1.2 1.55 1.25 1.55 1.35 1.5 1.4 1.4 1.4 1.35 1.35 1.35 1.25 1.4 1.15 1.45 1.2 1.45 1.25 1.4 1.3 1.35 Q1.35 1.3 1.4 1.3 L1.45 1.35 1.4 1.45 1.4 1.5 1.35 1.5 Q1.3 1.5 1.25 1.55 L1.3 1.55 1.3 1.65 1.4 1.6 1.45 1.6 1.55 1.7 Q1.6 1.75 1.65 1.7" fill="#551d26" fill-rule="evenodd" stroke="none"/>
    <path d="M1.4 1.05 L1.3 1.0 Q1.35 0.95 1.45 0.9 L1.6 0.9 1.55 0.95 1.45 0.95 Q1.35 0.95 1.35 1.0 L1.4 1.0 1.45 1.0 1.45 1.05 1.4 1.05" fill="#ffc0eb" fill-rule="evenodd" stroke="none"/>
    <path d="M1.6 1.0 Q1.6 1.05 1.55 1.05 L1.45 1.0 1.55 1.0 1.6 1.0" fill="#ff93b7" fill-rule="evenodd" stroke="none"/>
    <path d="M1.25 1.05 L1.35 1.05 1.45 1.05 1.4 1.1 1.4 1.15 1.45 1.2 Q1.35 1.25 1.4 1.1 L1.35 1.05 1.3 1.05 1.25 1.05" fill="#e04e62" fill-rule="evenodd" stroke="none"/>
    <path d="M1.5 1.2 L1.55 1.15 1.55 1.25 1.6 1.3 1.55 1.35 1.5 1.35 Q1.45 1.4 1.45 1.45 L1.4 1.5 Q1.35 1.55 1.4 1.55 L1.5 1.5 1.6 1.45 1.65 1.45 1.6 1.5 1.6 1.6 1.55 1.6 1.5 1.55 1.45 1.55 1.4 1.6 1.35 1.55 Q1.35 1.5 1.35 1.5 L1.4 1.5 1.4 1.45 1.45 1.35 1.4 1.3 Q1.35 1.3 1.3 1.35 L1.25 1.4 1.2 1.45 1.15 1.45 1.25 1.35 1.3 1.25 1.3 1.15 1.3 1.1 1.2 1.1 1.3 1.1 Q1.35 1.05 1.35 1.1 L1.35 1.2 1.4 1.25 1.45 1.2 1.5 1.2" fill="#7a2a37" fill-rule="evenodd" stroke="none"/>
    <path d="M1.8 0.75 L1.9 0.75 2.0 0.75 1.95 0.8 1.9 0.8 1.85 0.8 1.8 0.85 1.8 0.75" fill="#ffabbe" fill-rule="evenodd" stroke="none"/>
    <path d="M1.7 0.85 L1.75 0.85 1.8 0.85 1.85 0.8 1.9 0.8 1.7 0.85" fill="#ff7e8e" fill-rule="evenodd" stroke="none"/>
    <path d="M2.0 0.85 L1.95 0.9 1.9 0.9 2.0 0.85" fill="#ff9dae" fill-rule="evenodd" stroke="none"/>
    <path d="M1.75 0.85 L1.7 0.8 1.7 0.75 1.65 0.7 Q1.6 0.7 1.65 0.7 L1.7 0.65 Q1.7 0.7 1.75 0.75 L1.8 0.75 1.8 0.85 1.75 0.85" fill="#ffc2e2" fill-rule="evenodd" stroke="none"/>
    <path d="M1.6 0.75 L1.65 0.75 Q1.7 0.8 1.65 0.85 L1.65 0.9 1.6 0.9 1.55 0.9 1.5 0.85 Q1.5 0.8 1.5 0.75 1.55 0.75 1.6 0.75" fill="#ff7591" fill-rule="evenodd" stroke="none"/>
    <path d="M1.55 1.15 L1.55 1.1 1.65 1.0 1.8 0.95 1.75 1.0 1.75 1.05 1.65 1.1 1.55 1.15" fill="#a43742" fill-rule="evenodd" stroke="none"/>
    <path d="M1.75 1.05 Q1.8 1.05 1.8 1.0 L1.9 1.0 1.85 1.05 Q1.8 1.1 1.85 1.1 1.8 1.15 1.8 1.15 L1.8 1.05 Q1.8 1.05 1.75 1.05" fill="#98323a" fill-rule="evenodd" stroke="none"/>
    <path d="M0.85 0.2 L0.8 0.3 0.75 0.35 0.75 0.45 0.8 0.5 0.7 0.45 Q0.7 0.45 0.7 0.4 L0.7 0.3 0.55 0.35 0.4 0.4 0.3 0.45 0.25 0.55 0.25 0.45 0.3 0.4 0.35 0.35 Q0.6 0.3 0.7 0.15 L0.85 0.2" fill="#943642" fill-rule="evenodd" stroke="none"/>
    <path d="M0.9 0.2 L0.85 0.2 0.7 0.15 0.6 0.15 0.75 0.15 0.9 0.2 0.95 0.2 0.9 0.2" fill="#fddfcf" fill-rule="evenodd" stroke="none"/>
    <path d="M-0.05 0.0 L0.15 0.05 0.4 0.05 0.55 0.05 0.7 0.1 0.5 0.1 0.3 0.05 0.1 0.05 -0.15 0.05 -0.25 0.0 -0.4 0.0 -0.5 -0.05 -0.45 -0.1 -0.05 0.0 M-0.5 -0.05 L-0.5 -0.05" fill="#aa5f4f" fill-rule="evenodd" stroke="none"/>
    <path d="M0.35 0.1 L0.5 0.15 0.6 0.15 0.7 0.15 Q0.6 0.3 0.35 0.35 L0.3 0.4 0.25 0.45 0.15 0.2 0.1 0.25 0.1 0.15 0.05 0.1 0.2 0.1 0.35 0.1" fill="#782c36" fill-rule="evenodd" stroke="none"/>
    <path d="M0.75 0.5 L0.5 0.45 Q0.35 0.45 0.3 0.6 L0.3 0.55 0.35 0.45 0.5 0.4 0.55 0.35 Q0.6 0.35 0.65 0.4 L0.7 0.45 0.75 0.5" fill="#ce4c59" fill-rule="evenodd" stroke="none"/>
    <path d="M0.3 0.7 L0.35 0.6 0.4 0.55 Q0.45 0.45 0.55 0.5 L0.75 0.55 0.7 0.6 0.6 0.55 0.5 0.55 Q0.4 0.55 0.4 0.65 L0.45 0.7 0.4 0.8 0.45 0.85 0.45 0.95 0.35 1.0 Q0.25 1.0 0.25 0.95 L0.25 0.9 0.3 0.85 0.3 0.7" fill="#fe7d8b" fill-rule="evenodd" stroke="none"/>
    <path d="M0.7 0.6 L0.8 0.6 0.9 0.6 1.0 0.7 0.95 0.7 0.8 0.6 0.6 0.6 0.55 0.65 0.6 0.75 0.55 0.8 0.55 0.85 0.65 0.9 0.7 0.95 0.65 0.95 0.55 0.95 Q0.5 1.0 0.45 1.05 L0.5 1.1 0.4 1.15 0.45 1.1 Q0.45 1.05 0.4 1.05 0.4 1.0 0.5 1.0 L0.55 0.95 0.6 0.9 0.55 0.9 0.5 0.85 0.5 0.75 0.55 0.7 Q0.5 0.65 0.6 0.6 L0.7 0.6" fill="#bf474f" fill-rule="evenodd" stroke="none"/>
    <path d="M0.25 1.0 L0.3 1.05 0.3 1.1 Q0.3 1.15 0.35 1.15 L0.4 1.1 0.35 1.05 0.45 1.0 0.5 0.95 0.5 0.85 0.45 0.8 0.5 0.75 0.5 0.65 0.5 0.6 Q0.55 0.6 0.6 0.6 L0.7 0.6 0.6 0.6 Q0.5 0.65 0.55 0.7 L0.5 0.75 0.5 0.85 0.55 0.9 0.6 0.9 0.55 0.95 0.5 1.0 Q0.4 1.0 0.4 1.05 0.45 1.05 0.45 1.1 L0.4 1.15 0.3 1.15 Q0.25 1.15 0.25 1.1 L0.25 1.05 0.25 1.0" fill="#da515a" fill-rule="evenodd" stroke="none"/>
    <path d="M0.3 0.05 L0.3 0.1 0.35 0.1 0.2 0.1 0.05 0.1 -0.1 0.05 -0.2 0.05 -0.3 0.05 -0.35 0.05 Q-0.4 0.0 -0.4 0.05 L-0.45 0.05 -0.55 0.05 -0.6 0.05 -0.65 0.05 -0.7 0.05 -0.7 0.0 -0.5 0.0 -0.45 0.0 -0.5 -0.05 -0.4 0.0 -0.25 0.0 -0.15 0.05 0.1 0.05 0.3 0.05 M-0.6 0.05 L-0.6 0.05" fill="#cc9386" fill-rule="evenodd" stroke="none"/>
    <path d="M0.3 0.6 L0.3 0.65 0.25 0.6 0.2 0.55 0.15 0.45 0.1 0.4 Q0.1 0.4 0.15 0.4 L0.1 0.35 0.0 0.35 0.0 0.3 0.0 0.1 Q0.0 0.1 -0.05 0.1 L-0.1 0.05 0.05 0.1 0.1 0.15 0.1 0.25 0.15 0.2 0.25 0.45 0.25 0.55 0.3 0.55 0.3 0.6 M0.0 0.3 L0.0 0.3" fill="#19140a" fill-rule="evenodd" stroke="none"/>
    <path d="M-0.1 0.05 L-0.05 0.1 Q0.0 0.1 0.0 0.1 L0.0 0.3 -0.05 0.3 -0.05 0.3 -0.05 0.25 -0.1 0.2 -0.15 0.2 -0.15 0.15 Q-0.15 0.15 -0.2 0.15 L-0.2 0.1 -0.15 0.05 -0.1 0.05" fill="#453a26" fill-rule="evenodd" stroke="none"/>
    <path d="M0.0 0.3 L0.0 0.3 0.0 0.3 -0.05 0.3 -0.05 0.3 0.0 0.3" fill="#cfb47d" fill-rule="evenodd" stroke="none"/>
    <path d="M0.0 0.35 L0.1 0.35 0.15 0.4 Q0.1 0.4 0.1 0.4 L0.15 0.45 0.2 0.55 0.25 0.6 0.2 0.7 0.2 0.75 Q0.1 0.75 0.1 0.65 L0.15 0.55 0.1 0.6 0.05 0.6 0.05 0.55 0.0 0.55 0.0 0.4 -0.05 0.35 0.0 0.35 0.0 0.35" fill="#292410" fill-rule="evenodd" stroke="none"/>
    <path d="M0.0 0.3 L0.0 0.35 0.0 0.35 -0.05 0.35 -0.05 0.3 -0.05 0.3 0.0 0.3 0.0 0.3" fill="#877147" fill-rule="evenodd" stroke="none"/>
    <path d="M0.25 0.95 L0.25 1.0 0.15 1.0 0.1 0.95 0.1 0.9 -0.05 0.85 0.05 0.7 -0.05 0.6 -0.15 0.45 -0.2 0.45 -0.25 0.4 -0.3 0.35 -0.4 0.25 -0.55 0.1 -0.55 0.05 -0.45 0.05 -0.4 0.1 -0.35 0.15 -0.3 0.2 -0.25 0.2 Q-0.2 0.15 -0.2 0.2 L-0.2 0.3 Q-0.15 0.25 -0.15 0.3 L-0.15 0.35 -0.1 0.35 -0.1 0.4 -0.05 0.45 Q-0.05 0.45 -0.05 0.4 L-0.05 0.3 -0.05 0.35 0.0 0.4 0.0 0.55 0.05 0.55 0.05 0.6 0.1 0.6 0.15 0.55 0.1 0.65 Q0.1 0.75 0.2 0.75 L0.2 0.8 0.1 0.75 0.15 0.8 0.15 0.85 0.1 0.85 0.15 0.85 0.2 0.9 0.25 0.85 Q0.25 0.85 0.3 0.85 L0.25 0.9 0.25 0.95 M-0.3 0.2 L-0.3 0.2 M-0.55 0.05 L-0.55 0.05" fill="#120f07" fill-rule="evenodd" stroke="none"/>
    <path d="M0.3 0.65 L0.3 0.7 0.3 0.85 Q0.25 0.85 0.25 0.85 L0.2 0.9 0.15 0.85 0.1 0.85 0.15 0.85 0.15 0.8 0.1 0.75 0.2 0.8 0.2 0.75 0.2 0.7 0.25 0.6 0.3 0.65" fill="#423919" fill-rule="evenodd" stroke="none"/>
    <path d="M-0.05 0.85 L0.1 0.9 0.1 0.95 0.15 1.0 0.25 1.0 0.25 1.05 0.15 1.0 0.1 0.95 Q0.05 0.9 0.05 0.9 L-0.05 0.9 -0.1 0.9 -0.1 0.85 -0.05 0.8 -0.05 0.85" fill="#5d5533" fill-rule="evenodd" stroke="none"/>
    <path d="M0.25 1.05 L0.25 1.1 Q0.2 1.05 0.2 1.1 L0.15 1.05 0.05 1.2 -0.05 1.35 -0.1 1.35 -0.2 1.3 -0.15 1.2 -0.05 1.1 Q0.0 1.0 -0.05 0.9 L0.05 0.9 Q0.05 0.9 0.1 0.95 L0.15 1.0 0.25 1.05" fill="#34301d" fill-rule="evenodd" stroke="none"/>
    <path d="M0.15 1.2 L0.1 1.25 0.0 1.3 -0.05 1.35 0.05 1.2 0.15 1.05 0.2 1.1 0.15 1.15 0.15 1.2" fill="#211c11" fill-rule="evenodd" stroke="none"/>
    <path d="M1.0 0.7 L1.05 0.75 Q1.0 0.75 0.95 0.8 L0.9 0.9 0.75 0.85 0.65 0.85 0.7 0.8 0.75 0.75 0.7 0.7 0.65 0.7 Q0.7 0.65 0.8 0.65 L0.95 0.7 1.0 0.7" fill="#863039" fill-rule="evenodd" stroke="none"/>
    <path d="M2.05 2.2 L1.6 2.2 1.45 2.05 Q1.35 2.0 1.3 1.95 L1.25 1.9 1.25 1.85 Q1.2 1.8 1.15 1.8 L1.1 1.75 1.05 1.75 Q1.0 1.7 0.95 1.7 L0.85 1.65 0.7 1.65 0.65 1.65 0.55 1.7 0.5 1.7 0.45 1.75 0.35 1.7 0.25 1.7 0.15 1.7 0.05 1.65 0.0 1.65 -0.05 1.6 -0.15 1.6 -0.3 1.55 Q-0.4 1.55 -0.55 1.55 L-0.75 1.65 -0.8 1.7 -0.9 1.75 -0.95 1.85 -0.95 1.95 -1.0 2.0 -1.05 2.0 -1.25 1.95 -1.25 1.85 Q-1.25 1.75 -1.3 1.75 L-1.4 1.7 -1.5 1.6 -1.7 1.65 Q-1.8 1.65 -1.85 1.75 L-1.95 1.75 -1.95 1.8 -2.05 1.85 -2.05 1.9 -2.1 2.0 -2.1 2.05 -2.15 2.05 -2.2 2.1 -2.2 1.7 -2.05 1.65 Q-1.95 1.6 -1.9 1.6 L-1.75 1.55 -1.6 1.55 -1.5 1.55 -1.4 1.55 Q-1.3 1.6 -1.2 1.55 L-1.2 1.55 -1.15 1.6 -1.05 1.65 -1.0 1.6 -0.9 1.6 -0.85 1.55 -0.75 1.5 -0.65 1.5 -0.6 1.45 -0.5 1.45 -0.05 1.5 0.15 1.5 0.4 1.55 0.55 1.55 0.65 1.55 0.75 1.55 0.85 1.6 1.0 1.6 1.05 1.65 1.15 1.7 1.45 1.8 1.6 1.9 1.7 2.0 1.75 2.05 1.8 2.1 1.9 2.1 2.05 2.2" fill="#2e0f15" fill-rule="evenodd" stroke="none"/>
    <path d="M1.6 2.2 L1.35 2.2 1.15 2.0 1.0 1.85 0.9 1.85 0.8 1.8 0.6 1.8 0.35 1.85 Q0.05 1.8 -0.15 1.65 L-0.3 1.65 -0.35 1.65 -0.4 1.65 -0.55 1.75 -0.6 1.8 -0.7 1.85 -0.75 2.0 -0.65 2.1 Q-0.7 2.15 -0.65 2.15 L-0.6 2.2 -2.2 2.2 -2.2 2.1 -2.15 2.05 -2.1 2.05 -2.1 2.0 -2.05 1.9 -2.05 1.85 -1.95 1.8 -1.95 1.75 -1.85 1.75 Q-1.8 1.65 -1.7 1.65 L-1.5 1.6 -1.4 1.7 -1.3 1.75 Q-1.25 1.75 -1.25 1.85 L-1.25 1.95 -1.05 2.0 -1.0 2.0 -0.95 1.95 -0.95 1.85 -0.9 1.75 -0.8 1.7 -0.75 1.65 -0.55 1.55 Q-0.4 1.55 -0.3 1.55 L-0.15 1.6 -0.05 1.6 0.0 1.65 0.05 1.65 0.15 1.7 0.25 1.7 0.35 1.7 0.45 1.75 0.5 1.7 0.55 1.7 0.65 1.65 0.7 1.65 0.85 1.65 0.95 1.7 Q1.0 1.7 1.05 1.75 L1.1 1.75 1.15 1.8 Q1.2 1.8 1.25 1.85 L1.25 1.9 1.3 1.95 Q1.35 2.0 1.45 2.05 L1.6 2.2" fill="#260d11" fill-rule="evenodd" stroke="none"/>
    <path d="M1.35 2.2 L-0.6 2.2 -0.65 2.15 Q-0.7 2.15 -0.65 2.1 L-0.75 2.0 -0.7 1.85 -0.6 1.8 -0.55 1.75 -0.4 1.65 -0.35 1.65 -0.3 1.65 -0.15 1.65 Q0.05 1.8 0.35 1.85 L0.6 1.8 0.8 1.8 0.9 1.85 1.0 1.85 1.15 2.0 1.35 2.2" fill="#1f0b0e" fill-rule="evenodd" stroke="none"/>
    <path d="M1.5 1.5 L1.4 1.55 1.45 1.5 1.5 1.45 1.5 1.4 1.6 1.35 Q1.65 1.3 1.65 1.35 L1.6 1.4 1.6 1.45 1.5 1.5" fill="#f4607d" fill-rule="evenodd" stroke="none"/>
    <path d="M1.65 1.35 Q1.65 1.3 1.6 1.35 L1.5 1.4 1.5 1.45 1.45 1.5 1.4 1.55 1.5 1.5 1.4 1.55 Q1.35 1.55 1.4 1.5 L1.45 1.45 Q1.45 1.4 1.5 1.35 L1.55 1.35 1.6 1.3 1.7 1.25 1.8 1.25 1.75 1.3 1.65 1.35" fill="#b03c4f" fill-rule="evenodd" stroke="none"/>
    <path d="M1.6 1.45 L1.6 1.4 1.65 1.35 1.65 1.45 1.6 1.45" fill="#aa3b4d" fill-rule="evenodd" stroke="none"/>
    <path d="M-2.2 -1.6 L-2.2 -1.9 -2.1 -1.9 Q-2.05 -1.9 -2.1 -1.85 L-2.0 -1.8 -1.85 -1.8 -1.9 -1.7 -2.05 -1.6 -2.2 -1.6" fill="#4c1827" fill-rule="evenodd" stroke="none"/>
    <path d="M-2.2 -1.0 L-2.2 -1.6 -2.05 -1.6 -1.9 -1.7 -1.85 -1.8 -2.0 -1.8 -2.1 -1.85 Q-2.05 -1.9 -2.1 -1.9 L-2.2 -1.9 -2.2 -2.2 -1.85 -2.2 -1.8 -2.15 -1.8 -2.15 -1.85 -2.15 -1.85 -2.1 -1.8 -2.1 -1.8 -2.05 -1.5 -1.95 -1.6 -1.95 -1.6 -1.9 -1.65 -1.85 -1.75 -1.85 -1.7 -1.85 -1.7 -1.8 -1.75 -1.75 -1.8 -1.7 -1.85 -1.65 -1.85 -1.55 -1.8 -1.55 -1.75 -1.55 -1.8 -1.5 -1.85 -1.45 -1.75 -1.45 Q-1.7 -1.45 -1.65 -1.5 L-1.7 -1.45 -1.7 -1.3 -1.75 -1.25 -1.75 -1.25 -1.95 -1.25 -1.95 -1.15 Q-1.9 -1.1 -1.95 -1.1 -2.05 -1.05 -2.2 -1.0" fill="#581a30" fill-rule="evenodd" stroke="none"/>
    <path d="M-2.2 -0.9 L-2.2 -1.0 Q-2.05 -1.05 -1.95 -1.1 -1.9 -1.1 -1.95 -1.15 L-1.95 -1.25 -1.75 -1.25 -1.75 -1.25 -1.7 -1.15 -1.7 -1.15 -1.7 -1.0 Q-1.7 -1.05 -1.75 -1.0 L-1.75 -0.9 -2.0 -0.9 -2.2 -0.9" fill="#72223c" fill-rule="evenodd" stroke="none"/>
    <path d="M-2.2 -0.3 L-2.2 -0.45 -2.0 -0.45 -1.85 -0.35 -1.75 -0.35 -1.7 -0.3 -1.45 -0.3 -1.2 -0.35 Q-1.15 -0.25 -1.05 -0.25 L-1.05 -0.2 -1.1 -0.15 Q-1.2 -0.3 -1.4 -0.3 L-1.55 -0.25 -1.7 -0.25 -1.8 -0.25 -2.05 -0.35 -2.2 -0.3" fill="#7f253d" fill-rule="evenodd" stroke="none"/>
    <path d="M-2.2 0.0 L-2.2 0.0 -2.0 0.0 -1.85 -0.05 -1.8 -0.15 Q-1.75 -0.2 -1.8 -0.2 L-1.9 -0.25 -1.95 -0.25 -2.05 -0.2 -2.2 -0.2 -2.2 -0.3 -2.05 -0.35 -1.8 -0.25 -1.7 -0.25 -1.55 -0.25 -1.4 -0.3 Q-1.2 -0.3 -1.1 -0.15 L-1.15 -0.1 -1.2 -0.15 -1.3 -0.2 Q-1.3 -0.2 -1.35 -0.2 L-1.4 -0.2 Q-1.45 -0.2 -1.5 -0.15 L-1.5 0.0 -1.35 0.0 -1.15 0.0 -1.2 0.0 -1.4 0.0 -1.65 0.0 -1.9 0.0 -2.2 0.0 M-1.1 -0.15 L-1.1 -0.15" fill="#922a46" fill-rule="evenodd" stroke="none"/>
    <path d="M-2.2 0.0 L-2.2 -0.2 -2.05 -0.2 -1.95 -0.25 -1.9 -0.25 -1.8 -0.2 Q-1.75 -0.2 -1.8 -0.15 L-1.85 -0.05 -2.0 0.0 -2.2 0.0" fill="#9e2850" fill-rule="evenodd" stroke="none"/>
    <path d="M-2.2 -0.45 L-2.2 -0.9 -2.0 -0.9 -1.75 -0.9 -1.75 -1.0 Q-1.7 -1.05 -1.7 -1.0 L-1.65 -0.95 -1.7 -0.85 -1.7 -0.95 -1.75 -0.9 -1.7 -0.85 Q-1.7 -0.8 -1.65 -0.85 L-1.65 -0.9 -1.6 -0.85 -1.6 -0.8 -1.6 -0.75 -1.6 -0.75 -1.6 -0.7 -1.65 -0.75 -1.65 -0.75 -1.7 -0.75 -1.75 -0.8 Q-1.85 -0.8 -1.85 -0.8 L-1.9 -0.7 -1.9 -0.65 -1.85 -0.6 -1.75 -0.6 -1.85 -0.55 -1.9 -0.5 Q-1.75 -0.35 -1.55 -0.35 L-1.45 -0.35 -1.35 -0.4 -1.3 -0.45 -1.25 -0.45 -1.25 -0.4 -1.2 -0.35 -1.45 -0.3 -1.7 -0.3 -1.75 -0.35 -1.85 -0.35 -2.0 -0.45 -2.2 -0.45 M-1.6 -0.7 L-1.6 -0.7" fill="#682033" fill-rule="evenodd" stroke="none"/>
    <path d="M-0.45 -2.2 L-0.5 -2.15 -0.45 -2.1 -0.35 -2.15 -0.3 -2.1 -0.3 -2.0 Q-0.3 -1.95 -0.3 -1.95 L-0.05 -1.85 -0.1 -1.85 -0.25 -1.85 -0.4 -1.8 -0.45 -1.8 -0.55 -1.85 -0.55 -1.9 -0.5 -1.95 -0.45 -1.95 -0.35 -2.0 -0.55 -2.0 -0.7 -2.05 -0.7 -2.1 -0.65 -2.15 -0.65 -2.2 -0.45 -2.2" fill="#9c353b" fill-rule="evenodd" stroke="none"/>
    <path d="M-1.0 -2.2 L-0.65 -2.2 -0.65 -2.15 -0.7 -2.1 -0.7 -2.05 -0.55 -2.0 -0.35 -2.0 -0.45 -1.95 -0.5 -1.95 -0.55 -1.9 -0.55 -1.85 -0.45 -1.8 -0.4 -1.8 -0.25 -1.85 -0.1 -1.85 -0.2 -1.85 -0.3 -1.8 -0.4 -1.8 Q-0.55 -1.75 -0.65 -1.8 -0.6 -1.8 -0.65 -1.8 L-0.75 -1.85 -0.7 -1.9 -0.65 -1.95 -0.85 -1.95 -1.0 -1.95 -1.0 -1.95 -1.0 -2.05 -0.95 -2.05 -0.9 -2.1 -0.9 -2.1 -0.95 -2.15 -1.0 -2.2" fill="#8f303d" fill-rule="evenodd" stroke="none"/>
    <path d="M-0.1 -2.2 L-0.1 -2.15 -0.15 -2.1 -0.15 -2.05 -0.2 -2.0 -0.25 -2.1 -0.25 -2.2 -0.1 -2.2" fill="#f65c5c" fill-rule="evenodd" stroke="none"/>
    <path d="M-1.2 -2.2 L-1.0 -2.2 -0.95 -2.15 -0.9 -2.1 -0.9 -2.1 -0.95 -2.05 -1.0 -2.05 -1.0 -1.95 -1.0 -1.95 -0.85 -1.95 -0.65 -1.95 -0.7 -1.9 -0.75 -1.85 -0.65 -1.8 Q-0.6 -1.8 -0.65 -1.8 -0.55 -1.75 -0.4 -1.8 L-0.3 -1.8 -0.2 -1.85 -0.25 -1.8 -0.4 -1.75 -0.55 -1.75 -0.55 -1.65 -0.65 -1.65 -0.75 -1.65 -0.8 -1.65 -0.8 -1.6 -0.85 -1.6 -0.9 -1.6 -0.95 -1.65 -1.0 -1.65 -0.95 -1.7 -0.9 -1.7 -0.9 -1.75 -0.95 -1.8 -1.05 -1.85 -1.2 -1.85 -1.15 -1.95 -1.15 -2.0 Q-1.15 -2.0 -1.15 -2.05 L-1.1 -2.1 -1.15 -2.15 -1.2 -2.2" fill="#802b39" fill-rule="evenodd" stroke="none"/>
    <path d="M-0.3 -1.55 L-0.7 -1.65 -0.75 -1.65 -0.8 -1.6 -0.8 -1.65 -0.75 -1.65 -0.65 -1.65 -0.55 -1.65 -0.55 -1.75 -0.4 -1.75 -0.25 -1.8 -0.25 -1.75 -0.3 -1.7 -0.3 -1.6 -0.25 -1.55 -0.3 -1.55" fill="#63262b" fill-rule="evenodd" stroke="none"/>
    <path d="M-0.8 -1.6 L-0.75 -1.65 -0.7 -1.65 -0.3 -1.55 -0.35 -1.5 -0.5 -1.55 -0.6 -1.5 -0.55 -1.4 -0.5 -1.35 -0.45 -1.3 -0.4 -1.25 -0.35 -1.25 -0.3 -1.2 -0.4 -1.2 -0.55 -1.25 -0.55 -1.3 -0.6 -1.35 -0.6 -1.3 -0.65 -1.25 -0.7 -1.15 -0.75 -1.05 -0.8 -1.0 -0.8 -1.0 -0.8 -1.1 -0.75 -1.15 -0.75 -1.2 -0.75 -1.25 Q-0.75 -1.3 -0.8 -1.3 L-0.85 -1.3 -0.9 -1.3 -0.85 -1.35 -0.85 -1.4 -0.8 -1.45 -0.75 -1.45 -0.75 -1.4 -0.7 -1.45 -0.7 -1.45 -0.65 -1.45 -0.7 -1.55 -0.8 -1.55 -0.8 -1.6" fill="#664e35" fill-rule="evenodd" stroke="none"/>
    <path d="M-1.4 -2.2 L-1.2 -2.2 -1.15 -2.15 -1.1 -2.1 -1.15 -2.05 Q-1.15 -2.0 -1.15 -2.0 L-1.15 -1.95 -1.2 -1.85 -1.05 -1.85 -0.95 -1.8 -0.9 -1.75 -0.9 -1.7 -0.95 -1.7 -1.0 -1.65 -0.95 -1.65 -0.9 -1.6 Q-0.95 -1.6 -0.95 -1.6 L-1.0 -1.55 -1.0 -1.55 -1.05 -1.55 -1.05 -1.6 -1.05 -1.7 -1.0 -1.7 -1.0 -1.75 -1.15 -1.8 Q-1.15 -1.75 -1.2 -1.75 L-1.3 -1.75 -1.4 -1.7 -1.55 -1.65 -1.6 -1.65 -1.6 -1.7 -1.55 -1.8 -1.5 -1.8 -1.4 -1.85 -1.35 -1.9 -1.3 -1.95 -1.25 -1.95 -1.25 -2.0 -1.3 -2.0 -1.25 -2.05 -1.25 -2.1 -1.35 -2.1 Q-1.4 -2.1 -1.45 -2.15 L-1.45 -2.15 -1.4 -2.2" fill="#74253b" fill-rule="evenodd" stroke="none"/>
    <path d="M-1.55 -2.2 L-1.4 -2.2 -1.45 -2.15 -1.45 -2.15 Q-1.4 -2.1 -1.35 -2.1 L-1.25 -2.1 -1.25 -2.05 -1.3 -2.0 -1.25 -2.0 -1.25 -1.95 -1.3 -1.95 -1.35 -1.9 -1.4 -1.85 -1.5 -1.8 -1.55 -1.8 -1.6 -1.7 -1.6 -1.65 -1.55 -1.65 -1.4 -1.7 -1.3 -1.75 -1.2 -1.75 Q-1.15 -1.75 -1.15 -1.8 L-1.0 -1.75 -1.0 -1.7 -1.05 -1.7 -1.05 -1.6 -1.05 -1.55 Q-1.05 -1.55 -1.1 -1.55 L-1.1 -1.6 -1.3 -1.65 -1.45 -1.6 -1.6 -1.55 -1.7 -1.6 Q-1.75 -1.65 -1.7 -1.7 L-1.7 -1.75 -1.65 -1.75 -1.6 -1.8 -1.5 -1.85 -1.5 -1.9 -1.4 -1.95 -1.4 -2.0 -1.45 -2.0 -1.5 -2.05 -1.55 -2.05 -1.6 -2.05 Q-1.65 -2.05 -1.65 -2.05 L-1.6 -2.15 -1.55 -2.2 M-1.1 -1.55 L-1.1 -1.55" fill="#6b2237" fill-rule="evenodd" stroke="none"/>
    <path d="M-0.8 -1.6 L-0.8 -1.55 -0.7 -1.55 -0.65 -1.45 -0.7 -1.45 -0.7 -1.45 -0.75 -1.4 -0.75 -1.45 -0.8 -1.45 -0.85 -1.4 -0.85 -1.35 -0.9 -1.3 -0.9 -1.4 -0.95 -1.4 -0.95 -1.35 -0.9 -1.3 -1.0 -1.25 -1.0 -1.15 -1.0 -1.15 -0.95 -1.1 Q-0.95 -1.05 -0.95 -1.0 -1.0 -1.0 -1.0 -1.0 L-1.05 -1.1 -1.1 -1.05 -1.1 -1.0 -1.1 -1.15 -1.2 -1.15 -1.3 -1.15 -1.35 -1.25 -1.35 -1.35 -1.3 -1.4 -1.3 -1.45 -1.35 -1.5 -1.35 -1.55 -1.3 -1.5 Q-1.3 -1.45 -1.25 -1.45 L-1.2 -1.45 -1.15 -1.5 -1.1 -1.5 -1.1 -1.55 Q-1.05 -1.55 -1.05 -1.55 L-1.0 -1.55 -1.0 -1.55 -0.95 -1.6 Q-0.95 -1.6 -0.9 -1.6 L-0.85 -1.6 -0.8 -1.6 M-0.85 -1.45 L-0.85 -1.55 -0.9 -1.55 -0.9 -1.45 -0.85 -1.45 M-1.3 -1.4 L-1.3 -1.3 Q-1.3 -1.2 -1.2 -1.2 L-1.25 -1.25 -1.25 -1.3 -1.25 -1.45 -1.3 -1.4 M-1.1 -1.25 L-1.1 -1.3 -1.15 -1.3 -1.15 -1.25 -1.1 -1.25 -1.05 -1.25 -1.1 -1.25" fill="#3e2d1c" fill-rule="evenodd" stroke="none"/>
    <path d="M-0.85 -1.45 L-0.9 -1.45 -0.9 -1.55 -0.85 -1.55 -0.85 -1.45" fill="#735939" fill-rule="evenodd" stroke="none"/>
    <path d="M-0.9 -1.3 L-0.85 -1.3 -0.8 -1.3 -0.8 -1.25 -0.75 -1.2 -0.75 -1.15 -0.8 -1.1 -0.8 -1.0 -0.9 -1.0 -0.95 -1.0 Q-0.95 -1.05 -0.95 -1.1 L-1.0 -1.15 -1.0 -1.15 -1.0 -1.25 -0.9 -1.3 -0.95 -1.35 -0.95 -1.4 -0.9 -1.4 -0.9 -1.3 M-0.85 -1.15 L-0.85 -1.15 -0.8 -1.1 -0.85 -1.15 M-0.9 -1.1 L-0.9 -1.05 -0.85 -1.05 -0.85 -1.05 -0.9 -1.1" fill="#806847" fill-rule="evenodd" stroke="none"/>
    <path d="M-0.35 -1.25 L-0.4 -1.25 -0.45 -1.3 -0.5 -1.35 -0.55 -1.4 -0.6 -1.5 -0.5 -1.55 -0.35 -1.5 -0.35 -1.5 -0.4 -1.5 -0.45 -1.5 -0.45 -1.35 -0.4 -1.3 -0.35 -1.3 -0.35 -1.25" fill="#7c674a" fill-rule="evenodd" stroke="none"/>
    <path d="M-0.75 -1.05 L-0.7 -1.15 -0.65 -1.25 -0.6 -1.3 -0.6 -1.35 -0.55 -1.3 -0.55 -1.25 -0.4 -1.2 -0.3 -1.2 -0.3 -1.15 -0.25 -1.15 -0.3 -1.1 -0.25 -1.1 -0.2 -1.05 -0.25 -1.0 -0.25 -1.0 -0.4 -1.0 -0.45 -1.05 -0.45 -1.1 -0.5 -1.1 -0.6 -1.1 Q-0.65 -1.15 -0.65 -1.1 L-0.7 -1.05 Q-0.7 -1.05 -0.75 -1.05 L-0.75 -1.05 M-0.45 -1.2 L-0.5 -1.2 -0.5 -1.15 -0.45 -1.2 M-0.55 -1.2 L-0.55 -1.25 -0.6 -1.2 -0.55 -1.2" fill="#7f6747" fill-rule="evenodd" stroke="none"/>
    <path d="M-0.8 -1.3 Q-0.75 -1.3 -0.75 -1.25 L-0.75 -1.2 -0.8 -1.25 -0.8 -1.3" fill="#c3af6e" fill-rule="evenodd" stroke="none"/>
    <path d="M-0.05 -1.85 L0.0 -1.85 -0.05 -1.85 -0.1 -1.8 -0.1 -1.8 -0.2 -1.8 -0.2 -1.75 -0.25 -1.75 -0.25 -1.8 -0.2 -1.85 -0.1 -1.85 -0.05 -1.85 M0.0 -1.85 L0.0 -1.85" fill="#9d9896" fill-rule="evenodd" stroke="none"/>
    <path d="M-0.1 -1.8 L-0.1 -1.75 Q-0.05 -1.75 -0.1 -1.75 L-0.1 -1.65 -0.15 -1.65 -0.2 -1.7 -0.15 -1.75 -0.1 -1.8 -0.1 -1.8" fill="#b4b5b2" fill-rule="evenodd" stroke="none"/>
    <path d="M-0.1 -1.65 L-0.1 -1.65 -0.05 -1.6 -0.05 -1.6 -0.1 -1.6 -0.15 -1.65 -0.2 -1.6 -0.15 -1.6 -0.15 -1.6 Q-0.1 -1.6 -0.1 -1.55 L-0.15 -1.5 Q-0.1 -1.5 -0.15 -1.45 L-0.15 -1.45 -0.25 -1.45 -0.35 -1.5 -0.35 -1.5 -0.3 -1.55 -0.25 -1.55 -0.3 -1.6 -0.3 -1.7 -0.25 -1.75 -0.2 -1.75 -0.2 -1.8 -0.1 -1.8 -0.15 -1.75 -0.2 -1.7 -0.15 -1.65 -0.1 -1.65 M-0.05 -1.6 L-0.05 -1.6" fill="#7f7f7b" fill-rule="evenodd" stroke="none"/>
    <path d="M-0.4 -1.5 L-0.35 -1.45 -0.3 -1.45 -0.35 -1.4 -0.35 -1.35 -0.4 -1.3 -0.45 -1.35 -0.45 -1.5 -0.4 -1.5 M-0.35 -1.35 L-0.35 -1.35" fill="#6d2625" fill-rule="evenodd" stroke="none"/>
    <path d="M-0.35 -1.35 L-0.35 -1.35 -0.3 -1.3 -0.3 -1.25 -0.35 -1.3 -0.35 -1.35" fill="#737371" fill-rule="evenodd" stroke="none"/>
    <path d="M-1.85 -2.2 L-1.55 -2.2 -1.6 -2.15 -1.65 -2.05 Q-1.65 -2.05 -1.6 -2.05 L-1.55 -2.05 -1.5 -2.05 -1.45 -2.0 -1.4 -2.0 -1.4 -1.95 -1.5 -1.9 -1.5 -1.85 -1.6 -1.8 -1.65 -1.75 -1.7 -1.75 -1.7 -1.7 Q-1.75 -1.65 -1.7 -1.6 L-1.6 -1.55 -1.45 -1.6 -1.3 -1.65 -1.1 -1.6 -1.1 -1.55 -1.2 -1.55 -1.25 -1.55 -1.3 -1.6 -1.35 -1.6 -1.4 -1.6 -1.45 -1.6 -1.45 -1.55 -1.5 -1.5 -1.55 -1.5 -1.6 -1.5 -1.7 -1.45 -1.65 -1.5 Q-1.7 -1.45 -1.75 -1.45 L-1.85 -1.45 -1.8 -1.5 -1.75 -1.55 -1.8 -1.55 -1.85 -1.55 -1.85 -1.65 -1.8 -1.7 -1.75 -1.75 -1.7 -1.8 -1.7 -1.85 -1.75 -1.85 -1.65 -1.85 -1.6 -1.9 -1.6 -1.95 -1.5 -1.95 -1.8 -2.05 -1.8 -2.1 -1.85 -2.1 -1.85 -2.15 -1.8 -2.15 -1.8 -2.15 -1.85 -2.2" fill="#5f1f33" fill-rule="evenodd" stroke="none"/>
    <path d="M-1.7 -1.45 L-1.6 -1.5 -1.55 -1.5 -1.5 -1.45 -1.4 -1.4 -1.4 -1.4 -1.35 -1.35 -1.35 -1.25 -1.3 -1.15 -1.4 -1.2 -1.45 -1.2 -1.65 -1.25 -1.65 -1.2 -1.6 -1.15 -1.6 -1.1 -1.65 -1.1 -1.65 -1.15 -1.7 -1.15 -1.75 -1.25 -1.6 -1.3 Q-1.55 -1.25 -1.55 -1.3 -1.5 -1.3 -1.55 -1.35 L-1.6 -1.35 -1.6 -1.4 -1.65 -1.35 Q-1.65 -1.3 -1.7 -1.3 L-1.7 -1.45 M-1.4 -1.2 L-1.4 -1.2" fill="#0d1011" fill-rule="evenodd" stroke="none"/>
    <path d="M-1.6 -1.35 L-1.55 -1.35 Q-1.5 -1.3 -1.55 -1.3 -1.55 -1.25 -1.6 -1.3 L-1.6 -1.35" fill="#8f8e85" fill-rule="evenodd" stroke="none"/>
    <path d="M-1.7 -1.3 Q-1.65 -1.3 -1.65 -1.35 L-1.6 -1.4 -1.6 -1.35 -1.6 -1.3 -1.75 -1.25 -1.7 -1.3" fill="#575552" fill-rule="evenodd" stroke="none"/>
    <path d="M-1.2 -1.55 L-1.1 -1.55 -1.1 -1.55 -1.1 -1.5 -1.15 -1.5 -1.15 -1.5 -1.2 -1.55" fill="#100d0d" fill-rule="evenodd" stroke="none"/>
    <path d="M-1.4 -1.6 L-1.35 -1.6 -1.3 -1.6 -1.3 -1.55 -1.35 -1.55 -1.35 -1.5 -1.35 -1.5 -1.4 -1.55 -1.4 -1.6" fill="#a1a0a0" fill-rule="evenodd" stroke="none"/>
    <path d="M-1.55 -1.5 L-1.5 -1.5 -1.45 -1.55 -1.45 -1.6 -1.4 -1.6 -1.4 -1.55 -1.35 -1.5 -1.35 -1.5 -1.3 -1.45 -1.3 -1.4 -1.35 -1.35 -1.4 -1.4 -1.4 -1.4 -1.5 -1.45 -1.55 -1.5 M-1.45 -1.55 L-1.45 -1.5 Q-1.45 -1.45 -1.4 -1.5 L-1.4 -1.5 -1.45 -1.55" fill="#514e4c" fill-rule="evenodd" stroke="none"/>
    <path d="M-1.3 -1.6 L-1.25 -1.55 -1.2 -1.55 -1.15 -1.5 -1.2 -1.5 -1.3 -1.5 -1.35 -1.55 -1.3 -1.55 -1.3 -1.6" fill="#494645" fill-rule="evenodd" stroke="none"/>
    <path d="M-1.3 -1.5 L-1.2 -1.5 -1.2 -1.45 -1.25 -1.45 Q-1.3 -1.45 -1.3 -1.5" fill="#131413" fill-rule="evenodd" stroke="none"/>
    <path d="M-1.45 -1.55 L-1.4 -1.5 -1.4 -1.5 Q-1.45 -1.45 -1.45 -1.5 L-1.45 -1.55" fill="#999797" fill-rule="evenodd" stroke="none"/>
    <path d="M-1.3 -1.4 L-1.25 -1.45 -1.25 -1.3 -1.25 -1.25 -1.2 -1.2 Q-1.3 -1.2 -1.3 -1.3 L-1.3 -1.4" fill="#604a2d" fill-rule="evenodd" stroke="none"/>
    <path d="M-1.2 -1.5 L-1.15 -1.5 -1.2 -1.45 -1.2 -1.5 M-1.15 -1.5 L-1.15 -1.5" fill="#a59a84" fill-rule="evenodd" stroke="none"/>
    <path d="M-1.1 -1.25 L-1.05 -1.25 -1.1 -1.25 -1.15 -1.25 -1.15 -1.3 -1.1 -1.3 -1.1 -1.25" fill="#594a3a" fill-rule="evenodd" stroke="none"/>
    <path d="M-1.4 -1.2 L-1.3 -1.15 -1.2 -1.15 -1.1 -1.15 -1.1 -1.0 -1.2 -0.85 -1.2 -0.65 -1.25 -0.65 -1.3 -0.65 -1.4 -0.7 -1.4 -0.75 -1.35 -0.8 -1.4 -0.85 -1.4 -0.95 -1.4 -1.0 -1.4 -1.05 -1.4 -1.1 -1.4 -1.2 M-1.45 -0.7 L-1.4 -0.7 -1.4 -0.7 -1.45 -0.7" fill="#742935" fill-rule="evenodd" stroke="none"/>
    <path d="M-0.8 -1.0 L-0.8 -1.0 -0.75 -1.05 -0.85 -0.9 Q-0.85 -0.85 -0.8 -0.75 L-0.85 -0.7 -0.95 -0.7 -1.05 -0.7 -1.05 -0.65 -1.0 -0.6 -1.0 -0.5 -1.05 -0.55 -1.1 -0.6 -1.1 -0.65 -1.15 -0.65 -1.2 -0.65 -1.2 -0.85 -1.1 -1.0 -1.1 -1.05 -1.05 -1.1 -1.0 -1.0 Q-1.0 -1.0 -0.95 -1.0 L-0.9 -1.0 -0.8 -1.0 M-1.1 -0.85 L-1.05 -0.9 -1.1 -0.9 -1.1 -0.85 M-0.75 -1.05 L-0.75 -1.05" fill="#4e3a2f" fill-rule="evenodd" stroke="none"/>
    <path d="M-1.4 -1.2 L-1.4 -1.2 -1.4 -1.1 -1.45 -1.1 -1.5 -1.1 -1.4 -1.2" fill="#d4d7db" fill-rule="evenodd" stroke="none"/>
    <path d="M-1.6 -1.1 L-1.6 -1.15 -1.6 -1.15 -1.55 -1.15 -1.5 -1.2 -1.45 -1.2 -1.4 -1.2 -1.5 -1.1 -1.45 -1.1 -1.4 -1.1 -1.4 -1.05 -1.5 -1.05 -1.6 -1.05 -1.6 -1.1 M-1.4 -1.05 L-1.4 -1.05" fill="#878b92" fill-rule="evenodd" stroke="none"/>
    <path d="M-1.6 -1.15 L-1.65 -1.2 -1.65 -1.25 -1.45 -1.2 -1.5 -1.2 -1.55 -1.15 -1.6 -1.15 -1.6 -1.15" fill="#524f4e" fill-rule="evenodd" stroke="none"/>
    <path d="M-1.4 -1.0 L-1.4 -0.95 Q-1.4 -0.9 -1.45 -0.85 -1.5 -0.85 -1.5 -0.9 L-1.5 -1.0 Q-1.45 -1.0 -1.5 -1.0 L-1.55 -1.0 -1.55 -1.0 -1.5 -1.0 -1.45 -1.0 -1.4 -1.0" fill="#83878e" fill-rule="evenodd" stroke="none"/>
    <path d="M-1.65 -1.1 L-1.6 -1.1 -1.6 -1.05 -1.5 -1.05 -1.4 -1.05 -1.5 -1.0 -1.55 -1.0 -1.55 -1.0 -1.5 -1.0 Q-1.45 -1.0 -1.5 -1.0 L-1.5 -0.9 Q-1.5 -0.85 -1.45 -0.85 -1.4 -0.9 -1.4 -0.95 L-1.4 -0.85 -1.4 -0.75 -1.45 -0.8 -1.55 -0.85 -1.55 -0.8 -1.6 -0.8 -1.6 -0.8 -1.6 -0.85 -1.6 -0.9 -1.6 -0.95 -1.65 -1.0 -1.65 -1.05 -1.6 -1.1 -1.65 -1.1 M-1.0 -0.6 L-1.05 -0.65 -1.05 -0.7 -0.95 -0.7 -0.95 -0.6 -0.95 -0.6 -0.9 -0.6 -0.95 -0.6 -1.0 -0.55 -1.0 -0.6" fill="#555250" fill-rule="evenodd" stroke="none"/>
    <path d="M-1.4 -1.05 L-1.4 -1.0 -1.45 -1.0 -1.5 -1.0 -1.4 -1.05 -1.4 -1.05" fill="#d0d3d8" fill-rule="evenodd" stroke="none"/>
    <path d="M-1.4 -0.85 L-1.35 -0.8 -1.4 -0.75 -1.4 -0.85 M-1.4 -0.7 L-1.4 -0.7 -1.45 -0.7 -1.5 -0.7 -1.6 -0.7 -1.6 -0.75 -1.55 -0.8 -1.55 -0.85 -1.45 -0.8 -1.4 -0.75 -1.55 -0.75 -1.5 -0.7 -1.4 -0.7 M-1.6 -0.75 L-1.6 -0.75 M-1.45 -0.7 L-1.45 -0.7" fill="#3a3636" fill-rule="evenodd" stroke="none"/>
    <path d="M-1.4 -0.75 L-1.4 -0.7 -1.5 -0.7 -1.55 -0.75 -1.4 -0.75" fill="#101319" fill-rule="evenodd" stroke="none"/>
    <path d="M-1.45 -0.7 L-1.4 -0.7 -1.4 -0.65 Q-1.4 -0.6 -1.45 -0.6 L-1.5 -0.6 -1.55 -0.6 -1.55 -0.6 -1.55 -0.65 -1.6 -0.7 -1.6 -0.7 -1.55 -0.7 -1.45 -0.7 -1.45 -0.7 M-1.6 -0.7 L-1.6 -0.7" fill="#b1b2b2" fill-rule="evenodd" stroke="none"/>
    <path d="M-1.4 -0.7 L-1.3 -0.65 -1.25 -0.65 -1.25 -0.6 -1.25 -0.6 -1.2 -0.55 -1.15 -0.55 -1.1 -0.55 -1.1 -0.5 -1.15 -0.5 -1.2 -0.5 -1.25 -0.55 -1.3 -0.5 -1.35 -0.55 -1.45 -0.55 -1.4 -0.6 -1.4 -0.65 -1.4 -0.7 M-1.25 -0.55 L-1.25 -0.55" fill="#311915" fill-rule="evenodd" stroke="none"/>
    <path d="M-1.1 -0.85 L-1.1 -0.9 -1.05 -0.9 -1.1 -0.85" fill="#ab8755" fill-rule="evenodd" stroke="none"/>
    <path d="M-1.25 -0.65 L-1.2 -0.65 -1.15 -0.65 -1.15 -0.55 -1.2 -0.55 Q-1.15 -0.55 -1.2 -0.6 L-1.25 -0.6 -1.25 -0.65" fill="#84837f" fill-rule="evenodd" stroke="none"/>
    <path d="M-1.15 -0.65 L-1.1 -0.65 -1.1 -0.6 -1.05 -0.55 -1.0 -0.5 -1.0 -0.45 -1.05 -0.45 -1.05 -0.5 -1.1 -0.55 -1.15 -0.65" fill="#7d7d7a" fill-rule="evenodd" stroke="none"/>
    <path d="M-1.7 -1.15 L-1.65 -1.15 -1.65 -1.1 -1.6 -1.1 -1.65 -1.05 -1.65 -1.0 -1.65 -0.9 -1.65 -0.85 Q-1.7 -0.8 -1.7 -0.85 L-1.75 -0.9 -1.7 -0.95 -1.7 -0.85 -1.65 -0.95 -1.7 -1.05 -1.65 -1.15 -1.7 -1.15 -1.7 -1.15" fill="#73675b" fill-rule="evenodd" stroke="none"/>
    <path d="M-1.7 -1.15 L-1.65 -1.15 -1.7 -1.05 -1.65 -0.95 -1.7 -1.0 -1.7 -1.15" fill="#c0c0c2" fill-rule="evenodd" stroke="none"/>
    <path d="M-1.65 -0.9 L-1.65 -1.0 -1.6 -0.95 -1.6 -0.9 -1.6 -0.85 -1.65 -0.9" fill="#8b8e96" fill-rule="evenodd" stroke="none"/>
    <path d="M-1.75 -0.6 L-1.85 -0.6 -1.9 -0.65 -1.9 -0.7 -1.85 -0.8 Q-1.85 -0.8 -1.75 -0.8 L-1.7 -0.75 -1.65 -0.75 -1.7 -0.7 -1.7 -0.6 -1.75 -0.6" fill="#451d17" fill-rule="evenodd" stroke="none"/>
    <path d="M-1.55 -0.8 L-1.6 -0.75 -1.6 -0.8 -1.6 -0.8 -1.55 -0.8" fill="#7e8087" fill-rule="evenodd" stroke="none"/>
    <path d="M-1.7 -0.6 L-1.7 -0.7 -1.65 -0.75 -1.65 -0.75 -1.6 -0.7 -1.65 -0.65 -1.65 -0.6 -1.7 -0.6" fill="#25100d" fill-rule="evenodd" stroke="none"/>
    <path d="M-1.6 -0.75 L-1.6 -0.7 -1.5 -0.7 -1.45 -0.7 -1.55 -0.7 -1.6 -0.7 -1.6 -0.75" fill="#6c6b69" fill-rule="evenodd" stroke="none"/>
    <path d="M-1.65 -0.65 L-1.6 -0.65 -1.55 -0.6 -1.5 -0.6 -1.45 -0.55 Q-1.5 -0.5 -1.55 -0.5 L-1.65 -0.6 -1.65 -0.65" fill="#302b2c" fill-rule="evenodd" stroke="none"/>
    <path d="M-1.55 -0.6 L-1.6 -0.65 -1.65 -0.65 -1.6 -0.7 -1.6 -0.7 -1.55 -0.65 -1.55 -0.6" fill="#656562" fill-rule="evenodd" stroke="none"/>
    <path d="M-1.45 -0.55 L-1.35 -0.55 -1.3 -0.5 -1.25 -0.55 -1.25 -0.45 -1.3 -0.45 -1.35 -0.4 -1.45 -0.35 -1.55 -0.35 Q-1.75 -0.35 -1.9 -0.5 L-1.85 -0.55 -1.75 -0.6 -1.7 -0.6 -1.65 -0.6 -1.55 -0.5 Q-1.5 -0.5 -1.45 -0.55 L-1.45 -0.55 M-1.25 -0.45 L-1.25 -0.45" fill="#5a1e2a" fill-rule="evenodd" stroke="none"/>
    <path d="M-1.1 -0.5 L-1.1 -0.55 -1.05 -0.5 -1.05 -0.45 Q-1.05 -0.45 -1.1 -0.45 L-1.15 -0.4 Q-1.15 -0.35 -1.2 -0.35 L-1.25 -0.4 -1.25 -0.45 -1.2 -0.45 -1.1 -0.45 Q-1.1 -0.45 -1.1 -0.5 M-1.25 -0.45 L-1.25 -0.45 M-1.1 -0.55 L-1.1 -0.55 M-1.2 -0.45 Q-1.2 -0.4 -1.2 -0.4 -1.15 -0.4 -1.2 -0.45" fill="#b2b4b6" fill-rule="evenodd" stroke="none"/>
    <path d="M-1.1 -0.55 L-1.15 -0.55 -1.15 -0.65 -1.1 -0.55 -1.1 -0.55" fill="#dfdfde" fill-rule="evenodd" stroke="none"/>
    <path d="M-1.2 -0.55 L-1.25 -0.6 -1.25 -0.6 -1.2 -0.6 Q-1.15 -0.55 -1.2 -0.55" fill="#d8d9d8" fill-rule="evenodd" stroke="none"/>
    <path d="M-1.25 -0.55 L-1.2 -0.5 -1.15 -0.5 -1.15 -0.45 -1.2 -0.45 -1.2 -0.5 -1.25 -0.55 M-1.2 -0.45 Q-1.15 -0.4 -1.2 -0.4 -1.2 -0.4 -1.2 -0.45" fill="#383736" fill-rule="evenodd" stroke="none"/>
    <path d="M-1.25 -0.55 L-1.25 -0.55 -1.2 -0.5 -1.2 -0.45 -1.25 -0.45 -1.25 -0.55" fill="#5f605d" fill-rule="evenodd" stroke="none"/>
    <path d="M-1.15 -0.5 L-1.1 -0.5 Q-1.1 -0.45 -1.1 -0.45 L-1.2 -0.45 -1.15 -0.45 -1.15 -0.5" fill="#6c6c6a" fill-rule="evenodd" stroke="none"/>
    <path d="M-1.05 -0.25 Q-1.15 -0.25 -1.2 -0.35 -1.15 -0.35 -1.15 -0.4 L-1.1 -0.45 Q-1.05 -0.45 -1.05 -0.45 L-1.0 -0.45 -1.05 -0.4 -1.1 -0.3 -1.0 -0.35 -0.95 -0.4 -0.95 -0.35 -0.95 -0.25 Q-1.0 -0.2 -1.0 -0.25 L-1.0 -0.3 -1.05 -0.25 M-1.25 -0.4 L-1.2 -0.35 -1.25 -0.4 M-1.0 -0.45 L-1.0 -0.45" fill="#55322c" fill-rule="evenodd" stroke="none"/>
    <path d="M-1.0 -0.45 L-1.0 -0.5 -1.0 -0.6 -1.0 -0.55 -0.95 -0.6 -0.9 -0.6 -0.9 -0.6 -0.9 -0.5 -0.95 -0.4 -0.95 -0.4 -1.0 -0.45 -1.0 -0.45" fill="#451f18" fill-rule="evenodd" stroke="none"/>
    <path d="M-1.4 -0.65 L-1.4 -0.6 -1.45 -0.55 -1.5 -0.6 -1.55 -0.6 -1.55 -0.6 -1.5 -0.6 -1.45 -0.6 Q-1.4 -0.6 -1.4 -0.65 M-1.45 -0.55 L-1.45 -0.55" fill="#676764" fill-rule="evenodd" stroke="none"/>
    <path d="M-1.15 0.0 L-1.35 0.0 -1.5 0.0 -1.5 -0.15 Q-1.45 -0.2 -1.4 -0.2 L-1.35 -0.2 Q-1.3 -0.2 -1.3 -0.2 L-1.2 -0.15 -1.15 -0.1 -1.15 0.0" fill="#a9344d" fill-rule="evenodd" stroke="none"/>
    <path d="M-1.05 -0.2 L-1.05 -0.25 -1.0 -0.3 -1.0 -0.25 Q-1.0 -0.2 -0.95 -0.25 L-1.0 -0.15 -1.05 -0.2" fill="#1d170c" fill-rule="evenodd" stroke="none"/>
    <path d="M-1.1 -0.15 L-1.05 -0.2 -1.0 -0.15 -0.95 -0.25 -0.95 -0.2 -0.9 -0.2 -0.95 -0.1 -0.95 -0.05 Q-0.95 -0.05 -1.0 -0.1 L-1.1 -0.15 -1.1 -0.15" fill="#483820" fill-rule="evenodd" stroke="none"/>
    <path d="M-1.25 0.15 L-1.2 0.2 -1.15 0.05 -1.1 0.0 -1.1 -0.05 -1.05 -0.05 -1.05 0.0 -1.1 0.05 -1.15 0.1 -1.15 0.2 -1.2 0.2 Q-1.25 0.2 -1.25 0.2 L-1.25 0.15 -1.25 0.15" fill="#2d2411" fill-rule="evenodd" stroke="none"/>
    <path d="M-1.15 -0.1 L-1.1 -0.15 -1.0 -0.1 Q-0.95 -0.05 -0.95 -0.05 L-0.9 -0.05 -0.95 0.0 -1.05 -0.05 -1.1 -0.05 -1.1 0.0 -1.15 0.05 -1.2 0.2 -1.25 0.15 -1.2 0.0 -1.15 0.0 -1.15 -0.1" fill="#140f08" fill-rule="evenodd" stroke="none"/>
    <path d="M-0.95 -0.4 L-1.0 -0.35 -1.1 -0.3 -1.05 -0.4 -1.0 -0.45 -0.95 -0.4 -0.95 -0.4" fill="#0c0d0d" fill-rule="evenodd" stroke="none"/>
    <path d="M0.0 -1.15 L0.0 -1.1 -0.05 -1.1 -0.05 -1.15 -0.05 -1.15 0.0 -1.15" fill="#906f48" fill-rule="evenodd" stroke="none"/>
    <path d="M-0.25 -1.0 L-0.2 -0.95 Q-0.25 -0.95 -0.25 -0.95 L-0.3 -0.95 -0.25 -1.0 -0.25 -1.0" fill="#0e0f0e" fill-rule="evenodd" stroke="none"/>
    <path d="M-0.45 -1.2 L-0.5 -1.15 -0.5 -1.2 -0.45 -1.2" fill="#c4b070" fill-rule="evenodd" stroke="none"/>
    <path d="M-0.25 -0.95 L-0.3 -0.9 -0.3 -0.95 -0.25 -0.95" fill="#686767" fill-rule="evenodd" stroke="none"/>
    <path d="M-0.35 -0.85 L-0.3 -0.85 -0.25 -0.9 -0.3 -0.85 -0.35 -0.85" fill="#0a0d0d" fill-rule="evenodd" stroke="none"/>
    <path d="M-0.45 -0.85 L-0.4 -0.9 -0.4 -0.95 -0.35 -0.9 -0.35 -0.8 -0.55 -0.9 -0.5 -0.9 -0.5 -0.85 -0.45 -0.85 M-0.5 -0.9 L-0.5 -0.9" fill="#9b908d" fill-rule="evenodd" stroke="none"/>
    <path d="M-0.5 -0.9 L-0.45 -0.85 -0.5 -0.85 -0.5 -0.9 -0.5 -0.9" fill="#d6d7d8" fill-rule="evenodd" stroke="none"/>
    <path d="M-0.6 -1.05 L-0.5 -0.9 -0.5 -0.9 -0.5 -0.9 -0.55 -0.9 -0.6 -0.95 -0.6 -1.05" fill="#4e4a4a" fill-rule="evenodd" stroke="none"/>
    <path d="M-0.3 -0.7 L-0.3 -0.7 -0.3 -0.65 Q-0.45 -0.65 -0.6 -0.75 L-0.55 -0.75 -0.6 -0.8 -0.65 -0.8 -0.65 -0.8 -0.5 -0.8 Q-0.5 -0.75 -0.4 -0.75 L-0.35 -0.75 -0.3 -0.7" fill="#9f594a" fill-rule="evenodd" stroke="none"/>
    <path d="M-0.35 -0.8 L-0.3 -0.75 -0.3 -0.7 -0.35 -0.75 -0.4 -0.75 Q-0.5 -0.75 -0.5 -0.8 L-0.65 -0.8 -0.65 -0.85 -0.6 -0.95 -0.55 -0.9 -0.5 -0.9 -0.55 -0.9 -0.35 -0.8" fill="#c99387" fill-rule="evenodd" stroke="none"/>
    <path d="M-0.15 -0.75 L-0.15 -0.7 -0.2 -0.65 -0.3 -0.7 -0.3 -0.75 -0.2 -0.75 -0.15 -0.75 M-0.3 -0.7 L-0.3 -0.7" fill="#f3b6a7" fill-rule="evenodd" stroke="none"/>
    <path d="M-0.2 -0.65 L-0.2 -0.65 -0.25 -0.65 -0.3 -0.65 -0.3 -0.65 -0.3 -0.7 -0.2 -0.65" fill="#c7705d" fill-rule="evenodd" stroke="none"/>
    <path d="M-0.6 -0.75 Q-0.45 -0.65 -0.3 -0.65 L-0.3 -0.55 -0.2 -0.5 -0.15 -0.45 -0.2 -0.45 -0.25 -0.45 -0.3 -0.5 -0.35 -0.5 Q-0.45 -0.5 -0.4 -0.55 L-0.5 -0.55 Q-0.5 -0.55 -0.5 -0.6 L-0.55 -0.55 -0.55 -0.55 -0.55 -0.45 -0.6 -0.4 -0.6 -0.35 -0.65 -0.3 -0.7 -0.3 -0.65 -0.4 Q-0.6 -0.4 -0.65 -0.45 L-0.65 -0.55 -0.7 -0.55 -0.7 -0.6 -0.65 -0.7 -0.6 -0.75 M-0.3 -0.65 L-0.3 -0.65" fill="#5c271d" fill-rule="evenodd" stroke="none"/>
    <path d="M-0.2 -0.65 L-0.2 -0.65 -0.2 -0.5 -0.3 -0.55 -0.3 -0.65 -0.25 -0.65 -0.2 -0.65" fill="#7e3627" fill-rule="evenodd" stroke="none"/>
    <path d="M-0.3 -0.75 L-0.25 -0.85 -0.25 -0.8 -0.2 -0.75 -0.3 -0.75" fill="#6c5335" fill-rule="evenodd" stroke="none"/>
    <path d="M-0.05 -0.75 L-0.1 -0.8 -0.05 -0.8 0.0 -0.8 -0.05 -0.75" fill="#9b8266" fill-rule="evenodd" stroke="none"/>
    <path d="M-0.55 -1.2 L-0.6 -1.2 -0.55 -1.25 -0.55 -1.2" fill="#b6a168" fill-rule="evenodd" stroke="none"/>
    <path d="M-0.8 -0.75 Q-0.85 -0.85 -0.85 -0.9 L-0.75 -1.05 Q-0.7 -1.05 -0.7 -1.05 L-0.65 -1.1 -0.6 -1.05 -0.65 -1.0 -0.65 -0.9 -0.75 -0.8 -0.8 -0.75" fill="#090c0c" fill-rule="evenodd" stroke="none"/>
    <path d="M-0.6 -1.05 L-0.6 -1.05 -0.6 -0.95 -0.65 -0.85 -0.65 -0.9 -0.65 -1.0 -0.6 -1.05" fill="#682a28" fill-rule="evenodd" stroke="none"/>
    <path d="M-0.85 -1.15 L-0.8 -1.1 -0.85 -1.15 -0.85 -1.15" fill="#c8b371" fill-rule="evenodd" stroke="none"/>
    <path d="M-0.9 -1.1 L-0.85 -1.05 -0.85 -1.05 -0.9 -1.05 -0.9 -1.1" fill="#bea96c" fill-rule="evenodd" stroke="none"/>
    <path d="M-0.85 -0.7 L-0.8 -0.75 -0.75 -0.8 Q-0.75 -0.75 -0.75 -0.7 L-0.8 -0.6 -0.75 -0.6 -0.7 -0.6 -0.7 -0.55 -0.65 -0.55 -0.65 -0.45 -0.7 -0.4 -0.75 -0.35 -0.75 -0.25 -0.8 -0.2 -0.85 -0.25 -0.85 -0.25 -0.9 -0.2 -0.9 -0.2 -0.95 -0.2 -0.95 -0.25 -0.95 -0.35 -0.95 -0.4 -0.9 -0.5 -0.9 -0.6 -0.85 -0.7 M-0.75 -0.25 L-0.75 -0.25" fill="#24100b" fill-rule="evenodd" stroke="none"/>
    <path d="M-0.95 -0.7 L-0.85 -0.7 -0.9 -0.6 -0.95 -0.6 -0.95 -0.6 -0.95 -0.7 M-0.9 -0.6 L-0.9 -0.6" fill="#80848b" fill-rule="evenodd" stroke="none"/>
    <path d="M-0.65 -0.8 L-0.65 -0.8 -0.6 -0.8 -0.55 -0.75 -0.6 -0.75 -0.65 -0.7 -0.7 -0.6 -0.75 -0.6 -0.8 -0.6 -0.75 -0.7 Q-0.75 -0.75 -0.75 -0.8 L-0.65 -0.9 -0.65 -0.85 -0.65 -0.8" fill="#3f1b14" fill-rule="evenodd" stroke="none"/>
    <path d="M-0.65 -0.45 Q-0.6 -0.4 -0.65 -0.4 L-0.7 -0.3 -0.75 -0.25 -0.75 -0.35 -0.7 -0.4 -0.65 -0.45" fill="#421c15" fill-rule="evenodd" stroke="none"/>
    <path d="M-0.7 -0.3 L-0.65 -0.3 -0.6 -0.35 -0.55 -0.35 -0.55 -0.35 -0.6 -0.3 Q-0.6 -0.25 -0.65 -0.25 L-0.7 -0.25 -0.7 -0.2 -0.75 -0.25 -0.75 -0.25 -0.7 -0.3" fill="#793426" fill-rule="evenodd" stroke="none"/>
    <path d="M-0.95 -0.4 L-0.95 -0.35 -0.95 -0.4 -0.95 -0.4 -0.95 -0.4" fill="#83694c" fill-rule="evenodd" stroke="none"/>
    <path d="M-0.95 -0.05 L-0.95 -0.1 -0.9 -0.2 -0.9 -0.2 -0.85 -0.25 -0.85 -0.25 -0.8 -0.2 -0.8 -0.15 -0.8 -0.1 -0.8 -0.1 -0.85 -0.1 -0.85 -0.05 -0.85 0.05 -0.9 0.1 -0.95 0.1 -0.95 0.2 -1.0 0.15 -0.95 0.25 -1.0 0.3 -1.0 0.25 -1.05 0.3 -1.05 0.35 -1.05 0.3 Q-1.05 0.25 -1.05 0.25 L-1.1 0.3 -1.1 0.4 -1.1 0.45 -1.15 0.5 -1.15 0.5 -1.1 0.55 -1.15 0.55 -1.2 0.5 -1.2 0.6 -1.2 0.65 -1.25 0.7 Q-1.25 0.75 -1.2 0.75 L-1.25 0.75 -1.3 0.75 -1.35 0.75 Q-1.3 0.7 -1.35 0.7 L-1.4 0.65 -1.4 0.6 -1.35 0.6 -1.3 0.5 -1.25 0.4 -1.2 0.35 -1.2 0.35 -1.25 0.3 -1.2 0.25 -1.15 0.25 -1.15 0.3 -1.1 0.25 -1.1 0.2 Q-1.1 0.15 -1.05 0.15 L-1.0 0.1 -1.0 0.05 -0.95 0.05 -0.9 0.0 -0.9 -0.05 -0.95 -0.05 M-1.25 0.75 L-1.25 0.75" fill="#2e2412" fill-rule="evenodd" stroke="none"/>
    <path d="M-0.8 -0.15 L-0.8 -0.2 -0.75 -0.25 -0.7 -0.2 -0.75 -0.15 -0.75 -0.15 -0.8 -0.15 M-0.7 -0.2 L-0.7 -0.2" fill="#c8705d" fill-rule="evenodd" stroke="none"/>
    <path d="M-0.95 0.0 L-0.9 -0.05 -0.9 0.0 -0.95 0.05 -0.95 0.0" fill="#b09867" fill-rule="evenodd" stroke="none"/>
    <path d="M-0.85 -0.05 L-0.85 -0.1 -0.8 -0.1 -0.85 -0.05" fill="#a37165" fill-rule="evenodd" stroke="none"/>
    <path d="M-0.8 -0.15 L-0.75 -0.15 -0.7 -0.1 -0.75 -0.05 -0.8 0.0 Q-0.8 0.0 -0.8 0.05 L-0.85 0.1 -0.85 0.05 -0.85 -0.05 -0.8 -0.1 -0.8 -0.1 -0.8 -0.15" fill="#f5c5af" fill-rule="evenodd" stroke="none"/>
    <path d="M-0.4 -0.25 Q-0.4 -0.25 -0.45 -0.25 L-0.5 -0.2 -0.55 -0.2 -0.6 -0.2 Q-0.65 -0.25 -0.7 -0.2 L-0.7 -0.25 -0.65 -0.25 Q-0.6 -0.25 -0.6 -0.3 L-0.55 -0.35 -0.5 -0.25 -0.45 -0.25 -0.4 -0.25 M-0.7 -0.2 L-0.7 -0.2 -0.7 -0.2" fill="#a14532" fill-rule="evenodd" stroke="none"/>
    <path d="M-0.5 -0.2 L-0.45 -0.15 -0.45 -0.1 -0.5 -0.15 -0.55 -0.15 -0.6 -0.15 -0.7 -0.2 Q-0.65 -0.25 -0.6 -0.2 L-0.55 -0.2 -0.5 -0.2" fill="#c3543c" fill-rule="evenodd" stroke="none"/>
    <path d="M-0.75 -0.15 L-0.75 -0.15 -0.7 -0.2 -0.7 -0.2 -0.6 -0.15 -0.55 -0.15 -0.5 -0.15 -0.45 -0.1 -0.5 -0.05 -0.6 -0.05 -0.7 -0.1 -0.75 -0.15" fill="#fda488" fill-rule="evenodd" stroke="none"/>
    <path d="M-0.5 0.0 L-0.7 0.0 -0.8 0.0 -0.75 -0.05 -0.7 -0.1 -0.6 -0.05 -0.5 -0.05 -0.5 0.0" fill="#fffbf4" fill-rule="evenodd" stroke="none"/>
    <path d="M-0.15 -0.2 L-0.15 -0.15 -0.2 -0.15 Q-0.25 -0.1 -0.25 -0.15 L-0.3 -0.2 -0.35 -0.2 -0.35 -0.2 -0.3 -0.25 -0.15 -0.2" fill="#8b3c2b" fill-rule="evenodd" stroke="none"/>
    <path d="M-0.5 -0.05 L-0.45 0.0 -0.5 0.0 -0.5 -0.05 -0.5 -0.05" fill="#fac6b4" fill-rule="evenodd" stroke="none"/>
    <path d="M-0.2 0.15 L-0.25 0.1 -0.25 0.1 -0.2 0.1 -0.2 0.15" fill="#a89161" fill-rule="evenodd" stroke="none"/>
    <path d="M-0.2 0.05 L-0.15 0.05 -0.2 0.1 -0.25 0.1 -0.25 0.1 -0.2 0.15 Q-0.15 0.15 -0.15 0.15 L-0.15 0.2 -0.1 0.2 -0.05 0.25 -0.05 0.3 -0.05 0.4 -0.1 0.35 -0.1 0.35 -0.15 0.35 -0.15 0.3 Q-0.15 0.25 -0.2 0.3 L-0.2 0.2 Q-0.2 0.15 -0.25 0.2 L-0.25 0.2 -0.3 0.2 -0.3 0.2 -0.3 0.15 -0.3 0.15 -0.35 0.15 -0.4 0.1 -0.45 0.05 -0.4 0.05 Q-0.4 0.0 -0.35 0.05 L-0.3 0.05 -0.2 0.05 M-0.05 0.3 L-0.05 0.3 M-0.1 0.35 L-0.1 0.35" fill="#2a2311" fill-rule="evenodd" stroke="none"/>
    <path d="M-0.3 0.2 L-0.35 0.15 -0.3 0.15 -0.3 0.15 -0.3 0.2" fill="#c4aa73" fill-rule="evenodd" stroke="none"/>
    <path d="M-0.25 0.2 L-0.3 0.2 -0.25 0.2 -0.25 0.2" fill="#99875c" fill-rule="evenodd" stroke="none"/>
    <path d="M-0.55 0.05 L-0.55 0.05 -0.6 0.2 -0.7 0.4 -0.7 0.45 -0.65 0.5 -0.5 0.45 -0.4 0.45 -0.3 0.4 -0.25 0.4 -0.2 0.45 -0.15 0.45 -0.05 0.6 0.05 0.7 -0.05 0.85 -0.05 0.8 Q-0.05 0.8 -0.1 0.8 L-0.2 0.8 Q-0.25 0.85 -0.2 0.9 L-0.15 0.95 -0.15 1.0 -0.2 1.0 -0.2 0.95 -0.3 0.65 Q-0.35 0.6 -0.4 0.6 L-0.55 0.55 Q-0.65 0.55 -0.65 0.6 L-0.65 0.65 -0.7 0.7 -0.75 0.8 -0.75 0.85 -0.85 0.95 -0.85 1.05 -0.9 1.1 -0.95 1.15 -0.9 1.1 -0.9 0.95 -0.85 0.9 -0.8 0.8 -0.8 0.7 Q-0.75 0.7 -0.7 0.6 L-0.7 0.35 -0.65 0.25 -0.65 0.2 -0.6 0.1 -0.6 0.05 -0.55 0.05" fill="#89303c" fill-rule="evenodd" stroke="none"/>
    <path d="M-0.55 0.05 L-0.55 0.1 -0.6 0.25 -0.65 0.4 -0.45 0.4 -0.3 0.35 -0.25 0.4 -0.3 0.4 -0.4 0.45 -0.5 0.45 -0.65 0.5 -0.7 0.45 -0.7 0.4 -0.6 0.2 -0.55 0.05" fill="#752933" fill-rule="evenodd" stroke="none"/>
    <path d="M-0.55 0.1 L-0.4 0.25 -0.3 0.35 -0.45 0.4 -0.65 0.4 -0.6 0.25 -0.55 0.1" fill="#62222b" fill-rule="evenodd" stroke="none"/>
    <path d="M-0.05 0.4 Q-0.05 0.45 -0.05 0.45 L-0.1 0.4 Q-0.1 0.35 -0.1 0.35 L-0.1 0.35 -0.05 0.4" fill="#857148" fill-rule="evenodd" stroke="none"/>
    <path d="M-0.1 0.4 L-0.1 0.35 -0.1 0.35 Q-0.1 0.35 -0.1 0.4" fill="#d1b67f" fill-rule="evenodd" stroke="none"/>
    <path d="M-0.6 0.05 L-0.6 0.05 -0.6 0.1 -0.65 0.2 -0.7 0.3 -0.75 0.4 -0.75 0.6 -0.8 0.7 -0.85 0.8 -0.9 0.9 -0.95 1.0 Q-0.95 1.1 -1.0 1.1 L-1.2 1.15 Q-1.3 1.2 -1.4 1.1 L-1.4 1.05 -1.35 0.95 -1.35 0.9 -1.3 0.8 -1.25 0.75 -1.25 0.75 -1.3 0.85 -1.3 0.95 -1.35 1.05 -1.35 1.15 -1.2 1.15 -1.1 1.1 -1.0 1.05 -0.95 0.9 -0.85 0.65 Q-0.75 0.55 -0.75 0.4 L-0.7 0.25 -0.6 0.05" fill="#a53652" fill-rule="evenodd" stroke="none"/>
    <path d="M-0.7 0.0 L-0.7 0.05 -0.75 0.05 -0.8 0.0 -0.7 0.0" fill="#6f5348" fill-rule="evenodd" stroke="none"/>
    <path d="M-0.7 0.05 L-0.65 0.05 -0.7 0.1 -0.75 0.15 -0.9 0.35 -1.0 0.45 -1.05 0.55 -1.1 0.65 -1.2 0.7 -1.2 0.75 Q-1.25 0.75 -1.25 0.7 L-1.2 0.65 -1.2 0.6 -1.2 0.5 -1.15 0.55 -1.1 0.55 -1.15 0.5 -1.15 0.5 -1.1 0.45 -1.1 0.4 -1.1 0.3 -1.05 0.25 Q-1.05 0.25 -1.05 0.3 L-1.05 0.35 -1.0 0.35 -1.0 0.3 -0.95 0.25 -1.0 0.15 -0.95 0.2 -0.95 0.1 -0.9 0.1 -0.85 0.1 -0.85 0.1 -0.8 0.05 Q-0.8 0.0 -0.8 0.0 L-0.75 0.05 -0.7 0.05" fill="#18140a" fill-rule="evenodd" stroke="none"/>
    <path d="M-0.65 0.05 L-0.6 0.05 -0.7 0.25 -0.75 0.4 Q-0.75 0.55 -0.85 0.65 L-0.95 0.9 -1.0 1.05 -1.1 1.1 -1.05 1.05 -1.0 0.95 -1.0 0.9 -0.95 0.8 -0.85 0.65 -0.8 0.55 -0.8 0.35 -0.7 0.2 -0.75 0.15 -0.7 0.1 -0.65 0.05" fill="#b73e54" fill-rule="evenodd" stroke="none"/>
    <path d="M-1.25 0.75 L-1.2 0.75 -1.2 0.7 -1.25 0.8 -1.25 0.9 Q-1.25 0.95 -1.3 1.0 L-1.3 1.1 -1.25 1.15 -1.2 1.1 Q-1.1 1.1 -1.1 1.05 L-1.0 0.9 -0.95 0.8 -0.9 0.65 Q-0.8 0.5 -0.85 0.4 L-0.95 0.45 -1.05 0.55 -1.0 0.45 -0.9 0.35 -0.75 0.15 -0.7 0.2 -0.8 0.35 -0.8 0.55 -0.85 0.65 -0.95 0.8 -1.0 0.9 -1.0 0.95 -1.05 1.05 -1.1 1.1 -1.2 1.15 -1.35 1.15 -1.35 1.05 -1.3 0.95 -1.3 0.85 -1.25 0.75" fill="#c94260" fill-rule="evenodd" stroke="none"/>
    <path d="M-1.3 0.75 L-1.25 0.75 -1.3 0.8 -1.35 0.9 -1.35 0.95 -1.4 1.05 -1.4 1.1 Q-1.3 1.2 -1.2 1.15 L-1.0 1.1 Q-0.95 1.1 -0.95 1.0 L-0.9 0.9 -0.85 0.8 -0.8 0.7 -0.75 0.6 -0.75 0.4 -0.7 0.3 -0.65 0.2 -0.65 0.25 -0.7 0.35 -0.7 0.6 Q-0.75 0.7 -0.8 0.7 L-0.8 0.8 -0.85 0.9 -0.9 0.95 -0.9 1.1 -0.95 1.15 -1.15 1.15 -1.3 1.2 -1.35 1.15 -1.45 1.1 -1.5 1.1 -1.5 1.05 -1.55 0.95 -1.55 0.9 -1.4 0.85 -1.35 0.8 -1.3 0.75" fill="#93304b" fill-rule="evenodd" stroke="none"/>
    <path d="M-0.9 0.1 L-0.85 0.05 -0.85 0.1 -0.85 0.1 -0.9 0.1" fill="#a58c59" fill-rule="evenodd" stroke="none"/>
    <path d="M-1.15 0.2 L-1.15 0.1 -1.1 0.05 -1.05 0.0 -1.05 -0.05 -0.95 0.0 -0.95 0.05 -0.9 0.0 -0.95 0.05 -1.0 0.05 -1.0 0.1 -1.05 0.15 Q-1.1 0.15 -1.1 0.2 L-1.1 0.2 -1.15 0.2" fill="#443a25" fill-rule="evenodd" stroke="none"/>
    <path d="M-1.0 0.25 L-1.0 0.3 -1.0 0.25" fill="#f4e5a3" fill-rule="evenodd" stroke="none"/>
    <path d="M-1.05 0.35 L-1.05 0.3 -1.0 0.25 -1.0 0.3 -1.0 0.35 -1.05 0.35" fill="#a48c59" fill-rule="evenodd" stroke="none"/>
    <path d="M-1.2 1.1 L-1.25 1.15 -1.3 1.1 -1.25 1.05 -1.25 0.95 Q-1.2 0.95 -1.25 0.9 -1.2 0.8 -1.1 0.7 L-0.9 0.5 -0.9 0.5 -0.9 0.65 -0.95 0.75 -1.05 0.95 -1.2 1.1" fill="#fd5788" fill-rule="evenodd" stroke="none"/>
    <path d="M-1.05 0.55 L-0.95 0.45 -0.85 0.4 Q-0.8 0.5 -0.9 0.65 L-0.95 0.8 -1.0 0.9 -1.1 1.05 Q-1.1 1.1 -1.2 1.1 L-1.05 0.95 -0.95 0.75 -0.9 0.65 -0.9 0.5 -0.9 0.5 -1.1 0.7 Q-1.2 0.8 -1.25 0.9 -1.2 0.95 -1.25 0.95 L-1.25 1.05 -1.3 1.1 -1.25 1.15 -1.3 1.1 -1.3 1.0 Q-1.25 0.95 -1.25 0.9 L-1.25 0.8 -1.2 0.7 -1.1 0.65 -1.05 0.55" fill="#e64b6f" fill-rule="evenodd" stroke="none"/>
    <path d="M-1.35 0.75 L-1.3 0.75 -1.35 0.8 -1.4 0.85 -1.55 0.9 -1.55 0.95 -1.5 1.05 -1.5 1.1 -1.45 1.1 -1.35 1.15 -1.3 1.2 -1.15 1.15 -0.95 1.15 -0.9 1.1 -0.85 1.05 -0.85 0.95 -0.75 0.85 -0.75 0.8 -0.7 0.7 -0.65 0.65 -0.65 0.6 Q-0.65 0.55 -0.55 0.55 L-0.4 0.6 Q-0.35 0.6 -0.3 0.65 L-0.2 0.95 -0.2 1.0 -0.15 1.0 -0.15 1.1 -0.25 1.15 -0.3 1.1 -0.3 0.95 -0.3 0.85 -0.4 0.8 -0.4 0.75 Q-0.4 0.7 -0.45 0.7 L-0.55 0.65 Q-0.65 0.65 -0.65 0.7 L-0.65 0.8 -0.7 0.9 -0.75 1.0 -0.8 1.1 -0.9 1.15 -1.0 1.15 -1.15 1.2 -1.3 1.25 Q-1.35 1.25 -1.35 1.2 L-1.35 1.2 -1.6 1.1 -1.6 1.0 -1.65 0.9 -1.55 0.85 -1.45 0.75 -1.4 0.75 -1.35 0.75" fill="#7d2a3b" fill-rule="evenodd" stroke="none"/>
    <path d="M-0.2 1.15 L-0.3 1.15 -0.4 1.1 -0.45 1.05 -0.4 0.95 Q-0.45 0.85 -0.55 0.85 -0.6 0.85 -0.7 0.9 L-0.7 1.05 -0.75 1.1 -0.8 1.15 -0.95 1.15 -1.15 1.2 -1.25 1.25 -1.35 1.35 -1.4 1.3 -1.4 1.3 -1.4 1.2 -1.35 1.2 -1.35 1.2 Q-1.35 1.25 -1.3 1.25 L-1.15 1.2 -1.0 1.15 -0.9 1.15 -0.8 1.1 -0.75 1.0 -0.7 0.9 -0.65 0.8 -0.65 0.7 Q-0.65 0.65 -0.55 0.65 L-0.45 0.7 Q-0.4 0.7 -0.4 0.75 L-0.4 0.8 -0.3 0.85 -0.3 0.95 -0.3 1.1 -0.25 1.15 -0.15 1.1 -0.2 1.15" fill="#6d2632" fill-rule="evenodd" stroke="none"/>
    <path d="M-2.2 1.15 L-2.2 1.15 -2.0 1.15 -1.85 1.1 -1.4 1.2 -1.4 1.3 -1.4 1.3 -1.35 1.35 -1.25 1.25 -1.15 1.2 -0.95 1.15 -0.8 1.15 -0.75 1.1 -0.7 1.05 -0.7 0.9 Q-0.6 0.85 -0.55 0.85 -0.45 0.85 -0.4 0.95 L-0.45 1.05 -0.4 1.1 -0.3 1.15 -0.2 1.15 -0.2 1.2 -0.45 1.15 -0.7 1.15 -0.9 1.2 -1.15 1.2 -1.2 1.25 -1.3 1.3 Q-1.35 1.4 -1.45 1.4 L-1.45 1.25 -1.45 1.2 -1.65 1.15 -1.9 1.15 -2.05 1.15 -2.2 1.15" fill="#5e202c" fill-rule="evenodd" stroke="none"/>
    <path d="M-2.2 1.2 L-2.2 1.15 -2.05 1.15 -1.9 1.15 -1.65 1.15 -1.45 1.2 -1.45 1.25 -1.45 1.4 Q-1.35 1.4 -1.3 1.3 L-1.2 1.25 -1.15 1.2 -0.9 1.2 -0.7 1.15 -0.45 1.15 -0.2 1.2 -0.25 1.25 -0.5 1.2 -0.75 1.2 -0.95 1.25 -1.1 1.25 -1.3 1.4 -1.5 1.45 -1.5 1.2 -1.85 1.2 -2.2 1.2" fill="#4c1a24" fill-rule="evenodd" stroke="none"/>
    <path d="M-2.2 1.55 L-2.2 1.2 -1.85 1.2 -1.5 1.2 -1.5 1.45 -1.3 1.4 -1.1 1.25 -0.95 1.25 -0.75 1.2 -0.5 1.2 -0.25 1.25 -0.25 1.25 -0.3 1.3 -0.35 1.35 -0.75 1.3 -1.15 1.4 -1.25 1.45 -1.35 1.45 -1.55 1.5 -1.6 1.45 -1.65 1.45 -1.9 1.5 -2.2 1.55" fill="#3f161d" fill-rule="evenodd" stroke="none"/>
    <path d="M-0.15 0.95 L-0.2 0.9 Q-0.25 0.85 -0.2 0.8 L-0.1 0.8 Q-0.05 0.8 -0.05 0.8 L-0.1 0.85 -0.1 0.9 -0.15 0.95" fill="#a23b46" fill-rule="evenodd" stroke="none"/>
    <path d="M-2.2 0.65 L-2.2 0.5 -2.1 0.5 -1.95 0.5 -1.85 0.5 -1.7 0.45 -1.7 0.45 -1.65 0.45 -1.65 0.5 -2.1 0.6 -2.1 0.6 -2.05 0.65 -1.85 0.65 -1.75 0.65 -1.6 0.65 -1.6 0.8 -1.65 0.8 -1.75 0.75 -1.85 0.75 -1.95 0.75 -2.1 0.75 Q-2.1 0.65 -2.2 0.65 M-0.05 0.9 Q0.0 1.0 -0.05 1.1 L-0.15 1.2 -0.2 1.3 -0.25 1.35 -0.25 1.25 -0.2 1.2 -0.2 1.15 -0.15 1.1 -0.15 1.0 -0.15 0.95 -0.1 0.9 -0.05 0.9 M-0.25 1.25 L-0.25 1.25" fill="#201b11" fill-rule="evenodd" stroke="none"/>
    <path d="M-1.25 0.15 L-1.25 0.15 Q-1.25 0.15 -1.3 0.15 L-1.35 0.15 -1.45 0.15 -1.5 0.25 -1.6 0.3 -1.75 0.3 -1.7 0.25 -1.7 0.2 -2.0 0.1 -2.0 0.05 -1.95 0.0 -1.65 0.0 Q-1.5 0.0 -1.4 0.1 L-1.3 0.05 -1.2 0.0 -1.25 0.15" fill="#722336" fill-rule="evenodd" stroke="none"/>
    <path d="M-1.25 0.2 Q-1.25 0.2 -1.2 0.2 L-1.15 0.2 -1.1 0.2 -1.15 0.3 -1.15 0.25 -1.2 0.25 -1.25 0.3 -1.2 0.35 -1.2 0.35 -1.25 0.4 -1.3 0.5 -1.35 0.6 -1.4 0.6 -1.4 0.65 -1.35 0.7 Q-1.3 0.7 -1.35 0.75 L-1.4 0.75 -1.45 0.75 Q-1.55 0.75 -1.5 0.65 L-1.55 0.6 -1.55 0.5 -1.5 0.5 -1.5 0.45 -1.4 0.45 -1.35 0.45 -1.3 0.35 -1.25 0.25 -1.25 0.2 M-1.45 0.75 L-1.45 0.75" fill="#141008" fill-rule="evenodd" stroke="none"/>
    <path d="M-2.2 0.15 L-2.2 0.0 -1.9 0.0 -1.65 0.0 -1.4 0.0 -1.2 0.0 -1.2 0.0 -1.3 0.05 -1.4 0.1 Q-1.5 0.0 -1.65 0.0 L-1.95 0.0 -2.0 0.05 -2.0 0.1 -1.7 0.2 -1.7 0.25 -1.75 0.3 -1.6 0.3 -1.5 0.25 -1.45 0.15 -1.35 0.15 -1.3 0.15 Q-1.25 0.15 -1.25 0.15 L-1.25 0.2 -1.25 0.25 Q-1.3 0.2 -1.4 0.25 L-1.55 0.3 -1.6 0.35 -1.6 0.4 -1.65 0.4 -1.7 0.45 -1.7 0.45 -1.85 0.5 -1.95 0.5 -1.95 0.35 -1.9 0.2 -1.9 0.15 -2.05 0.15 -2.2 0.15" fill="#822540" fill-rule="evenodd" stroke="none"/>
    <path d="M-1.1 0.2 L-1.1 0.25 -1.15 0.3 -1.1 0.2 -1.1 0.2" fill="#b39b69" fill-rule="evenodd" stroke="none"/>
    <path d="M-1.6 0.4 L-1.6 0.35 -1.55 0.3 -1.4 0.25 Q-1.3 0.2 -1.25 0.25 L-1.3 0.35 -1.35 0.45 -1.4 0.45 -1.5 0.45 -1.6 0.4" fill="#9a2d4a" fill-rule="evenodd" stroke="none"/>
    <path d="M-2.2 0.5 L-2.2 0.15 -2.05 0.15 -1.9 0.15 -1.9 0.2 -1.95 0.35 -1.95 0.5 -2.1 0.5 -2.2 0.5" fill="#972751" fill-rule="evenodd" stroke="none"/>
    <path d="M-1.6 0.4 L-1.5 0.45 -1.5 0.5 -1.55 0.5 -1.55 0.6 -1.5 0.65 Q-1.55 0.75 -1.45 0.75 L-1.55 0.8 -1.6 0.8 -1.6 0.65 -1.75 0.65 -1.85 0.65 -2.05 0.65 -2.1 0.6 -2.1 0.6 -1.65 0.5 -1.65 0.45 -1.7 0.45 -1.65 0.4 -1.6 0.4" fill="#342f1c" fill-rule="evenodd" stroke="none"/>
    <path d="M-2.2 1.15 L-2.2 1.1 -2.1 1.1 -2.0 1.1 -2.0 0.9 -2.1 0.9 -2.2 0.9 -2.2 0.8 -2.15 0.85 -1.9 0.85 -1.7 0.85 -1.65 0.8 -1.65 0.8 -1.6 0.8 -1.55 0.8 -1.45 0.75 -1.55 0.85 -1.65 0.9 -1.6 1.0 -1.6 1.1 -1.35 1.2 -1.4 1.2 -1.85 1.1 -2.0 1.15 -2.2 1.15 M-1.45 0.75 L-1.45 0.75" fill="#6b243d" fill-rule="evenodd" stroke="none"/>
    <path d="M-1.65 0.8 L-1.65 0.8 -1.7 0.85 -1.9 0.85 -2.15 0.85 -2.1 0.8 -2.1 0.75 -1.95 0.75 -1.85 0.75 -1.75 0.75 -1.65 0.8" fill="#5c1e2f" fill-rule="evenodd" stroke="none"/>
    <path d="M-2.2 1.1 L-2.2 0.9 -2.1 0.9 -2.0 0.9 -2.0 1.1 -2.1 1.1 -2.2 1.1" fill="#7d294f" fill-rule="evenodd" stroke="none"/>
    <path d="M-2.2 0.8 L-2.2 0.65 Q-2.1 0.65 -2.1 0.75 L-2.1 0.8 -2.15 0.85 -2.2 0.8" fill="#35301d" fill-rule="evenodd" stroke="none"/>
  </g>
</svg>
