<?xml version="1.0" encoding="UTF-8" standalone="no"?>
<svg xmlns:xlink="http://www.w3.org/1999/xlink" height="3.45px" width="2.25px" xmlns="http://www.w3.org/2000/svg">
  <g transform="matrix(1.0, 0.0, 0.0, 1.0, -8.05, 13.45)">
    <path d="M9.55 -13.2 L9.55 -13.15 9.5 -13.2 9.5 -13.2 Q9.5 -13.1 9.4 -13.1 L9.4 -13.15 9.45 -13.15 9.4 -13.2 9.45 -13.2 9.5 -13.2 9.5 -13.2 9.55 -13.2 M8.6 -12.9 L8.6 -12.95 8.65 -12.95 8.65 -12.9 8.6 -12.9 M8.3 -13.45 L8.3 -13.45 8.35 -13.45 8.3 -13.4 8.3 -13.4 8.25 -13.45 8.3 -13.45 M10.15 -13.4 L10.2 -13.4 10.2 -13.4 10.2 -13.35 10.15 -13.35 10.1 -13.35 10.1 -13.35 10.1 -13.4 10.15 -13.4 10.15 -13.4 M9.7 -12.05 L9.65 -12.05 9.65 -12.05 9.75 -12.1 9.75 -12.05 9.7 -12.05 M9.3 -12.05 L9.3 -12.05 9.25 -12.05 9.25 -12.1 9.3 -12.1 9.3 -12.05 M9.9 -10.5 L9.9 -10.5 9.95 -10.5 9.95 -10.45 9.9 -10.45 9.9 -10.5 M9.65 -11.0 L9.65 -10.95 9.6 -10.95 9.6 -11.0 9.65 -11.0" fill="#421818" fill-rule="evenodd" stroke="none"/>
    <path d="M8.5 -10.3 L8.55 -10.35 8.6 -10.4 8.65 -10.4 8.65 -10.35 8.75 -10.3 8.8 -10.3 8.8 -10.35 8.9 -10.35 9.0 -10.4 9.0 -10.3 8.95 -10.2 8.9 -10.1 8.8 -10.05 8.6 -10.15 8.45 -10.05 8.4 -10.05 8.2 -10.0 8.1 -10.0 Q8.05 -10.0 8.05 -10.05 L8.05 -10.05 8.2 -10.2 8.25 -10.3 8.35 -10.35 8.5 -10.3 8.5 -10.3 M10.0 -11.25 L10.1 -11.25 10.25 -11.2 10.3 -11.15 10.25 -11.1 Q10.2 -11.1 10.15 -11.05 L10.05 -11.0 10.0 -10.95 9.95 -10.95 Q9.9 -10.95 9.85 -11.0 L9.95 -11.15 10.0 -11.25 M9.2 -11.2 L9.2 -11.15 9.1 -11.15 9.0 -11.1 9.0 -11.1 8.95 -11.2 8.95 -11.25 8.9 -11.35 8.9 -11.4 8.8 -11.4 8.65 -11.35 8.55 -11.35 Q8.5 -11.35 8.5 -11.4 L8.6 -11.45 8.7 -11.55 8.9 -11.55 9.0 -11.5 9.1 -11.4 9.2 -11.2" fill="#2a2a27" fill-rule="evenodd" stroke="none"/>
  </g>
</svg>
