<?xml version="1.0" encoding="UTF-8" standalone="no"?>
<svg xmlns:xlink="http://www.w3.org/1999/xlink" height="7.85px" width="7.1px" xmlns="http://www.w3.org/2000/svg">
  <g transform="matrix(1.0, 0.0, 0.0, 1.0, -12.25, 12.2)">
    <path d="M16.2 -8.95 L16.3 -9.0 16.3 -9.0 16.35 -9.0 16.35 -9.0 16.5 -9.05 16.65 -9.1 16.65 -9.05 16.7 -9.0 16.75 -8.95 16.8 -8.95 16.9 -9.0 17.0 -9.0 17.2 -8.95 17.25 -8.9 17.3 -8.9 17.4 -8.9 17.5 -8.9 17.65 -8.85 17.65 -8.8 17.75 -8.75 17.8 -8.7 17.75 -8.55 17.8 -8.5 17.85 -8.45 17.8 -8.4 Q17.8 -8.35 17.9 -8.35 L17.95 -8.3 18.05 -8.25 18.2 -8.3 18.25 -8.25 18.35 -8.2 18.45 -8.25 18.5 -8.2 18.5 -8.2 18.6 -8.2 18.65 -8.25 18.7 -8.25 18.7 -8.2 18.7 -8.15 18.75 -8.15 18.75 -8.15 18.8 -8.15 18.8 -8.1 18.75 -8.05 18.7 -8.05 18.7 -8.05 18.65 -8.05 18.55 -8.05 18.45 -8.05 Q18.4 -8.0 18.4 -7.95 L18.5 -7.9 18.55 -7.85 18.55 -7.85 18.6 -7.8 18.65 -7.8 18.75 -7.8 19.25 -7.7 19.35 -7.65 18.7 -7.55 18.65 -7.55 18.55 -7.5 18.5 -7.5 18.45 -7.45 18.35 -7.4 18.3 -7.4 18.2 -7.4 18.1 -7.4 18.1 -7.4 18.05 -7.4 18.0 -7.4 17.95 -7.4 18.05 -7.2 18.05 -7.15 18.0 -7.15 18.05 -7.1 18.1 -7.0 18.0 -6.95 17.95 -6.95 17.95 -6.9 17.85 -6.9 Q17.8 -6.85 17.8 -6.8 L17.8 -6.75 17.8 -6.75 17.75 -6.7 17.8 -6.65 17.8 -6.6 17.75 -6.55 17.8 -6.5 17.8 -6.5 17.75 -6.45 17.7 -6.45 17.55 -6.45 17.5 -6.45 17.45 -6.45 17.4 -6.45 17.3 -6.45 17.3 -6.4 17.2 -6.4 17.2 -6.3 17.25 -6.3 17.25 -6.15 Q17.3 -6.15 17.4 -6.1 17.7 -6.05 17.7 -6.0 17.7 -5.95 17.6 -5.9 L17.4 -5.9 Q17.45 -5.8 17.6 -5.75 L17.7 -5.6 17.65 -5.5 17.65 -5.35 17.7 -5.3 Q17.7 -5.2 17.5 -5.2 L17.25 -5.25 Q17.2 -5.15 17.1 -5.15 L16.95 -5.15 16.95 -5.05 17.1 -4.9 Q17.2 -4.85 17.2 -4.7 17.2 -4.65 17.1 -4.6 16.95 -4.55 16.95 -4.4 L16.95 -4.35 16.9 -4.35 16.45 -4.5 16.35 -4.45 16.25 -4.4 15.95 -4.55 15.75 -4.6 15.25 -4.85 15.3 -4.75 15.3 -4.65 Q15.2 -4.65 15.05 -4.7 L15.0 -4.6 14.75 -4.75 14.65 -4.85 14.55 -4.9 14.55 -4.9 14.4 -5.0 14.3 -5.1 14.25 -5.1 14.2 -5.2 14.05 -5.25 14.0 -5.2 13.95 -5.2 13.95 -5.2 13.9 -5.25 13.75 -5.4 13.65 -5.6 13.45 -5.7 13.25 -5.9 Q13.2 -6.0 13.2 -6.1 L13.2 -6.15 13.15 -6.25 12.95 -6.45 12.95 -6.7 Q12.9 -6.75 12.9 -6.8 L12.8 -6.95 Q12.75 -7.0 12.75 -7.05 L12.75 -7.2 12.8 -7.35 12.8 -7.4 12.75 -7.55 12.7 -7.6 12.75 -7.65 12.75 -7.7 12.7 -7.75 12.7 -7.8 12.8 -7.8 12.8 -7.95 12.75 -8.0 12.75 -8.0 12.8 -8.05 12.8 -8.15 12.8 -8.3 12.75 -8.3 Q12.75 -8.35 12.75 -8.35 L12.75 -8.55 12.7 -8.6 Q12.6 -8.7 12.55 -8.7 L12.25 -8.85 12.4 -9.0 12.4 -9.1 12.45 -9.15 Q12.5 -9.25 12.6 -9.25 L12.8 -9.25 12.8 -9.35 12.6 -9.4 Q12.5 -9.4 12.5 -9.5 12.5 -9.55 12.6 -9.65 12.7 -9.7 12.8 -9.75 L12.95 -9.85 13.05 -10.05 13.05 -10.15 13.05 -10.2 13.2 -10.4 13.3 -10.3 13.35 -10.2 13.3 -10.15 13.25 -10.1 13.35 -9.95 13.5 -10.1 13.55 -10.3 13.6 -10.3 Q13.65 -10.3 13.7 -10.3 L13.75 -10.3 13.75 -10.45 13.8 -10.5 13.85 -10.55 13.85 -10.5 Q13.85 -10.5 13.95 -10.45 L14.15 -10.85 14.25 -11.15 Q14.3 -11.25 14.35 -11.35 14.45 -11.45 14.45 -11.55 L14.4 -11.8 Q14.4 -11.85 14.5 -11.95 L14.6 -12.2 14.65 -12.2 14.65 -12.15 Q14.65 -12.1 14.7 -11.9 14.75 -11.7 14.85 -11.6 L14.85 -11.35 14.75 -11.3 14.65 -11.2 Q14.45 -11.15 14.35 -11.05 14.25 -10.95 14.25 -10.85 L14.3 -10.65 14.3 -10.5 14.2 -10.25 14.2 -10.25 14.15 -10.0 14.05 -9.9 14.0 -9.8 Q13.85 -9.65 13.8 -9.45 L13.8 -9.4 13.85 -9.05 13.85 -9.05 13.8 -8.95 13.75 -8.8 Q13.7 -8.75 13.6 -8.65 13.55 -8.6 13.55 -8.55 13.55 -8.25 13.8 -8.2 L13.85 -8.2 13.95 -8.15 14.0 -8.1 14.1 -8.05 14.2 -8.05 14.25 -8.1 14.35 -8.05 14.4 -7.95 14.35 -7.9 14.3 -7.9 14.3 -7.8 14.25 -7.7 14.1 -7.65 Q14.15 -7.55 14.35 -7.4 L14.4 -7.4 14.4 -7.3 14.45 -7.25 14.45 -7.15 Q14.45 -7.1 14.35 -7.05 L14.25 -7.0 14.3 -6.9 14.2 -6.9 14.1 -6.9 14.05 -6.9 Q14.0 -6.85 14.0 -6.7 L14.0 -6.5 14.05 -6.45 14.05 -6.45 Q14.05 -6.4 14.2 -6.4 L14.4 -6.3 14.45 -6.25 14.4 -6.15 Q14.35 -6.05 14.35 -5.95 L14.4 -5.7 14.5 -5.5 14.5 -5.45 14.45 -5.4 14.4 -5.35 14.55 -5.2 Q14.7 -5.1 14.75 -5.1 L14.8 -5.4 15.05 -5.2 15.05 -5.2 Q15.15 -5.05 15.3 -4.9 15.45 -4.8 15.6 -4.85 L15.75 -4.75 Q15.9 -4.65 16.0 -4.65 L16.05 -4.65 16.1 -4.65 16.1 -4.75 15.95 -4.9 15.85 -5.05 15.8 -5.2 15.7 -5.2 15.6 -5.25 15.6 -5.3 15.55 -5.35 15.45 -5.45 15.3 -5.55 15.25 -5.6 15.15 -5.65 15.1 -5.75 15.1 -5.75 15.05 -6.0 15.05 -6.15 15.1 -6.2 15.2 -6.2 15.3 -6.25 15.4 -6.2 15.4 -6.2 15.35 -6.1 15.25 -6.0 15.2 -5.9 15.2 -5.85 15.2 -5.8 Q15.2 -5.7 15.3 -5.6 15.45 -5.45 15.65 -5.45 L15.7 -5.45 Q15.85 -5.45 15.85 -5.65 15.85 -5.7 15.75 -5.8 L15.7 -5.8 Q15.65 -5.9 15.65 -5.95 L15.6 -6.15 15.6 -6.1 Q15.65 -6.1 15.7 -6.15 L15.75 -6.2 15.8 -6.2 15.85 -6.25 16.0 -6.3 16.0 -6.4 16.05 -6.25 16.05 -6.2 16.0 -6.15 15.95 -6.05 15.9 -5.9 15.9 -5.85 Q15.95 -5.8 16.1 -5.75 L16.2 -5.7 16.2 -5.65 16.2 -5.6 16.1 -5.6 16.1 -5.6 Q16.15 -5.5 16.05 -5.45 L16.0 -5.3 16.0 -5.15 16.0 -4.9 16.1 -4.85 16.5 -4.7 16.55 -4.7 16.7 -4.6 16.9 -4.6 Q16.95 -4.6 17.0 -4.65 17.1 -4.7 17.1 -4.8 L17.0 -4.9 Q16.85 -5.0 16.85 -5.0 16.85 -5.1 16.95 -5.1 L16.95 -5.15 17.0 -5.15 16.95 -5.35 16.9 -5.4 16.7 -5.45 16.6 -5.45 16.4 -5.45 16.4 -5.5 16.4 -5.5 16.35 -5.55 16.4 -5.55 16.45 -5.55 Q16.6 -5.55 16.6 -5.6 16.6 -5.7 16.65 -5.75 L16.75 -5.65 17.0 -5.5 17.05 -5.45 17.3 -5.4 17.45 -5.45 17.5 -5.6 Q17.5 -5.7 17.15 -5.95 L17.2 -5.95 Q17.45 -5.95 17.45 -6.05 L17.4 -6.1 17.2 -6.1 17.15 -6.1 17.05 -6.15 Q17.0 -6.15 17.0 -6.25 17.0 -6.3 16.95 -6.3 L16.9 -6.3 16.75 -6.25 Q16.7 -6.25 16.65 -6.45 L16.55 -6.5 Q16.5 -6.55 16.45 -6.6 L16.5 -6.6 16.7 -6.55 16.7 -6.55 16.75 -6.55 16.8 -6.5 16.9 -6.55 17.05 -6.6 17.0 -6.6 17.0 -6.7 17.05 -6.75 17.0 -6.8 16.9 -6.9 16.95 -7.0 17.05 -7.0 17.05 -7.0 17.1 -6.95 17.2 -6.9 17.35 -6.9 17.45 -6.9 17.5 -6.9 17.55 -7.0 17.65 -7.1 17.6 -7.1 17.6 -7.15 17.65 -7.25 17.7 -7.3 17.6 -7.4 Q17.55 -7.45 17.55 -7.5 L17.65 -7.6 17.75 -7.6 17.9 -7.6 18.05 -7.55 18.1 -7.55 18.2 -7.6 18.25 -7.6 18.3 -7.5 18.35 -7.55 18.45 -7.55 18.5 -7.6 18.4 -7.7 18.35 -7.75 18.3 -7.8 18.25 -7.85 18.2 -7.9 18.1 -7.9 18.15 -7.9 18.15 -7.95 18.05 -8.05 17.95 -8.1 17.85 -8.05 17.8 -8.05 Q17.7 -8.05 17.7 -8.1 L17.7 -8.2 17.5 -8.3 17.5 -8.35 17.55 -8.45 17.45 -8.6 17.3 -8.7 17.25 -8.65 17.15 -8.65 17.15 -8.65 Q17.1 -8.65 17.0 -8.7 L16.9 -8.75 16.8 -8.7 16.7 -8.65 16.65 -8.55 16.6 -8.5 Q16.6 -8.4 16.75 -8.4 L16.9 -8.3 16.85 -8.3 16.8 -8.3 Q16.75 -8.3 16.75 -8.3 L16.7 -8.3 16.6 -8.3 16.6 -8.25 16.65 -8.2 16.7 -8.15 16.7 -8.15 16.75 -8.15 16.8 -8.2 16.85 -8.15 16.85 -8.15 16.9 -8.15 16.75 -8.1 16.75 -8.05 Q16.8 -8.05 16.85 -8.0 L16.9 -8.0 16.9 -8.0 16.9 -7.9 16.8 -7.9 16.75 -7.95 16.65 -7.95 16.6 -7.95 16.55 -7.95 Q16.5 -7.95 16.5 -8.0 L16.4 -8.05 16.35 -8.05 Q16.35 -8.05 16.35 -8.1 L16.3 -8.2 16.25 -8.2 16.1 -8.1 16.1 -8.05 16.1 -7.95 Q16.15 -7.9 16.3 -7.9 L16.2 -7.85 16.15 -7.85 Q16.1 -7.85 16.1 -7.85 L16.05 -7.9 16.0 -7.95 15.95 -7.95 15.95 -8.0 Q15.95 -8.05 15.9 -8.05 L15.8 -8.0 15.7 -7.95 15.75 -7.9 15.8 -7.8 15.75 -7.8 15.75 -7.8 15.7 -7.8 15.65 -7.8 15.65 -7.85 15.55 -7.95 15.5 -7.95 15.45 -7.95 15.45 -8.0 Q15.5 -8.05 15.6 -8.05 15.7 -8.05 15.75 -8.1 15.7 -8.15 15.8 -8.2 L15.8 -8.25 15.9 -8.3 15.95 -8.3 16.0 -8.25 16.05 -8.25 16.1 -8.25 16.15 -8.3 16.15 -8.4 16.1 -8.45 16.05 -8.55 16.05 -8.55 15.95 -8.55 15.9 -8.6 15.85 -8.65 15.65 -8.6 Q15.55 -8.55 15.55 -8.5 L15.45 -8.5 15.4 -8.5 15.3 -8.5 15.25 -8.45 15.2 -8.4 15.15 -8.35 15.15 -8.3 15.1 -8.25 15.1 -8.2 15.05 -8.2 15.05 -8.2 15.0 -8.2 15.0 -8.2 14.9 -8.2 14.85 -8.15 14.95 -8.05 15.05 -8.0 15.05 -7.95 15.1 -7.9 Q14.95 -7.9 14.95 -7.95 L14.85 -8.0 14.8 -7.95 14.8 -7.9 14.75 -7.9 14.75 -7.95 14.8 -8.0 14.85 -8.05 14.8 -8.1 14.8 -8.15 14.85 -8.25 14.9 -8.3 14.9 -8.3 15.05 -8.35 Q15.1 -8.35 15.15 -8.4 L15.15 -8.45 15.2 -8.5 15.2 -8.55 15.25 -8.55 15.35 -8.6 15.4 -8.6 15.4 -8.6 15.45 -8.65 15.35 -8.75 15.25 -8.75 15.25 -8.8 15.25 -8.9 15.3 -8.95 Q15.3 -8.9 15.3 -8.9 L15.3 -8.9 15.35 -8.9 15.35 -8.9 15.4 -8.9 15.45 -8.9 15.55 -8.9 15.65 -8.85 15.75 -8.85 15.8 -8.9 15.9 -8.85 Q15.95 -8.8 16.0 -8.8 L16.1 -8.8 16.1 -8.8 16.15 -8.9 16.2 -8.95 M15.0 -10.9 L15.0 -10.9 Q15.0 -11.0 15.05 -11.05 L15.15 -11.15 15.15 -11.1 Q15.15 -11.05 15.25 -11.05 L15.25 -11.05 15.3 -11.05 15.3 -11.0 Q15.3 -11.0 15.35 -10.9 L15.4 -10.85 15.45 -10.8 15.3 -10.5 15.35 -10.65 15.3 -10.9 15.25 -11.0 15.15 -10.85 15.1 -10.75 15.0 -10.6 15.0 -10.6 14.95 -10.6 14.9 -10.6 14.8 -10.55 14.75 -10.55 14.75 -10.55 14.85 -10.65 14.85 -10.65 Q14.95 -10.75 15.0 -10.9 M15.3 -10.4 L15.3 -10.4 Q15.3 -10.35 15.4 -10.35 L15.45 -10.35 15.45 -10.4 15.55 -10.55 15.6 -10.65 15.75 -10.7 Q15.75 -10.65 15.8 -10.6 L15.95 -10.5 15.95 -10.4 16.0 -10.25 16.1 -10.3 16.2 -10.35 16.2 -10.3 16.2 -10.0 16.15 -9.9 16.15 -9.85 16.1 -9.9 16.0 -9.95 15.95 -9.9 15.9 -9.9 15.9 -9.95 15.95 -10.05 15.95 -10.1 15.95 -10.15 16.0 -10.2 Q16.0 -10.35 15.8 -10.35 L15.65 -10.35 15.6 -10.3 15.6 -10.3 15.6 -10.25 Q15.6 -10.2 15.5 -10.2 15.4 -10.2 15.35 -10.1 L15.35 -10.1 15.35 -9.85 15.25 -9.7 15.25 -9.7 15.2 -9.6 15.15 -9.6 15.1 -9.55 15.05 -9.55 14.9 -9.6 14.9 -9.6 14.85 -9.6 14.8 -9.55 Q14.7 -9.45 14.7 -9.45 L14.65 -9.45 14.55 -9.5 14.45 -9.45 14.4 -9.35 14.45 -9.2 14.5 -9.1 14.45 -9.05 14.4 -9.0 14.45 -8.9 14.45 -8.8 Q14.45 -8.7 14.3 -8.5 L14.25 -8.55 14.2 -8.6 14.15 -8.55 14.1 -8.55 14.05 -8.6 14.05 -8.65 14.0 -8.7 14.05 -8.75 14.05 -8.75 Q14.15 -8.75 14.2 -8.85 L14.25 -9.15 14.4 -9.55 14.45 -9.6 Q14.45 -9.65 14.35 -9.7 14.25 -9.75 14.25 -9.9 L14.25 -9.9 Q14.45 -9.9 14.4 -10.15 14.4 -10.35 14.5 -10.45 L14.55 -10.45 14.55 -10.45 14.5 -10.25 Q14.5 -10.2 14.6 -10.1 L14.65 -10.05 14.7 -9.95 14.65 -9.75 Q14.65 -9.7 14.7 -9.65 L14.85 -9.65 Q14.95 -9.65 15.0 -9.8 L15.05 -9.95 15.2 -10.2 15.2 -10.2 15.3 -10.4 M16.15 -9.8 L16.25 -9.85 16.3 -9.85 16.35 -9.85 16.45 -9.9 16.5 -9.95 16.6 -9.9 16.55 -9.85 16.6 -9.75 16.5 -9.65 16.45 -9.6 16.3 -9.75 Q16.25 -9.75 16.25 -9.7 L16.2 -9.65 16.1 -9.65 16.1 -9.65 16.15 -9.75 16.15 -9.8 M15.75 -9.4 L15.7 -9.35 15.7 -9.35 15.65 -9.3 15.6 -9.3 15.55 -9.35 15.5 -9.25 15.4 -9.25 15.3 -9.25 15.3 -9.25 15.2 -9.25 15.15 -9.25 15.15 -9.35 15.15 -9.4 15.2 -9.45 15.2 -9.45 15.25 -9.55 15.25 -9.55 15.5 -9.55 15.95 -9.6 16.05 -9.65 16.0 -9.5 15.85 -9.45 15.8 -9.45 15.75 -9.4 M13.8 -8.05 L13.7 -8.05 13.6 -7.95 13.65 -7.9 13.7 -7.85 Q13.7 -7.85 13.75 -7.85 L13.8 -7.8 Q13.85 -7.8 13.85 -7.85 L13.8 -7.95 Q13.8 -8.0 13.95 -8.05 L13.95 -8.05 13.9 -8.05 13.85 -8.05 13.8 -8.05 M13.45 -7.8 L13.4 -7.85 13.35 -7.85 13.35 -7.85 13.3 -7.8 13.25 -7.8 13.3 -7.75 13.35 -7.75 Q13.4 -7.75 13.45 -7.75 L13.45 -7.8 M13.6 -6.8 L13.6 -6.8 13.55 -6.7 13.5 -6.6 13.4 -6.55 13.35 -6.55 13.35 -6.55 13.3 -6.6 13.25 -6.55 13.25 -6.5 13.2 -6.45 13.25 -6.4 13.45 -6.3 Q13.7 -6.45 13.7 -6.55 L13.65 -6.6 13.65 -6.75 13.6 -6.8 M13.6 -7.45 L13.6 -7.45 Q13.55 -7.45 13.5 -7.4 L13.5 -7.35 13.55 -7.25 13.75 -7.2 Q13.8 -7.2 13.9 -7.3 14.0 -7.4 14.0 -7.5 L14.0 -7.5 13.95 -7.5 13.7 -7.4 13.65 -7.4 13.65 -7.45 13.6 -7.45 M13.1 -7.1 L13.05 -7.1 13.0 -7.05 12.95 -7.0 12.95 -7.0 12.95 -6.95 13.1 -7.0 13.1 -7.0 13.15 -7.0 13.15 -7.1 13.1 -7.1 M15.7 -7.2 L15.75 -7.2 15.7 -7.15 15.6 -7.1 15.5 -7.15 15.45 -7.15 15.4 -7.15 15.4 -7.2 15.4 -7.2 15.5 -7.2 15.55 -7.25 15.6 -7.25 15.65 -7.2 Q15.7 -7.2 15.7 -7.2 L15.7 -7.2 M16.05 -6.6 Q16.0 -6.5 16.0 -6.45 L16.0 -6.45 15.95 -6.5 16.1 -6.6 16.25 -6.7 16.3 -6.7 16.25 -6.7 16.15 -6.65 16.05 -6.6 M14.85 -6.85 Q14.9 -6.9 14.9 -7.0 L14.9 -7.0 14.95 -6.9 14.95 -6.8 14.9 -6.75 Q14.85 -6.65 14.75 -6.65 L14.7 -6.65 14.65 -6.65 14.6 -6.7 14.75 -6.8 14.85 -6.85 M16.4 -7.45 L16.4 -7.45 16.45 -7.45 16.5 -7.4 16.5 -7.35 16.55 -7.35 16.65 -7.35 16.75 -7.4 16.95 -7.3 16.95 -7.3 16.75 -7.3 16.7 -7.3 16.6 -7.25 16.55 -7.15 16.5 -7.15 16.55 -7.1 16.6 -7.05 16.6 -7.0 16.65 -6.95 16.6 -6.9 16.5 -6.9 16.5 -6.9 16.25 -7.05 16.25 -7.15 16.3 -7.25 16.35 -7.25 16.4 -7.4 16.4 -7.45 M17.1 -8.0 L17.2 -8.0 17.25 -8.0 17.2 -7.9 17.1 -7.85 17.05 -7.8 17.05 -7.8 17.1 -7.9 17.1 -8.0" fill="#722c28" fill-rule="evenodd" stroke="none"/>
    <path d="M14.85 -11.35 L14.85 -11.25 Q14.85 -11.15 14.95 -11.05 L14.95 -11.05 15.0 -10.9 Q14.95 -10.75 14.85 -10.65 L14.85 -10.65 14.75 -10.55 14.75 -10.55 14.8 -10.55 14.9 -10.6 14.95 -10.6 15.0 -10.6 15.0 -10.6 Q14.95 -10.5 14.95 -10.35 L14.95 -10.35 Q14.95 -10.3 14.85 -10.25 14.75 -10.2 14.75 -10.1 L14.75 -10.1 14.85 -10.1 Q14.95 -10.1 15.0 -10.2 L15.2 -10.65 15.2 -10.75 15.1 -10.75 15.15 -10.85 15.25 -11.0 15.3 -10.9 15.35 -10.65 15.3 -10.5 15.3 -10.4 15.2 -10.2 15.2 -10.2 15.05 -9.95 15.0 -9.8 Q14.95 -9.65 14.85 -9.65 L14.7 -9.65 Q14.65 -9.7 14.65 -9.75 L14.7 -9.95 14.65 -10.05 14.6 -10.1 Q14.5 -10.2 14.5 -10.25 L14.55 -10.45 Q14.65 -10.45 14.65 -10.5 L14.65 -10.6 14.6 -10.7 14.5 -10.7 14.45 -10.6 14.4 -10.55 14.45 -10.5 Q14.45 -10.45 14.5 -10.45 14.4 -10.35 14.4 -10.15 14.45 -9.9 14.25 -9.9 L14.25 -9.9 Q14.25 -9.75 14.35 -9.7 14.45 -9.65 14.45 -9.6 L14.4 -9.55 14.25 -9.15 14.2 -8.85 Q14.15 -8.75 14.05 -8.75 L14.05 -8.75 14.0 -8.7 14.05 -8.65 14.05 -8.6 14.1 -8.55 14.15 -8.55 14.2 -8.6 14.25 -8.55 14.3 -8.5 Q14.45 -8.7 14.45 -8.8 L14.45 -8.9 14.4 -9.0 14.45 -9.05 14.5 -9.1 14.45 -9.2 14.4 -9.35 14.45 -9.45 14.55 -9.5 14.65 -9.45 14.7 -9.45 Q14.7 -9.45 14.8 -9.55 L14.85 -9.6 14.9 -9.6 14.9 -9.6 15.05 -9.55 15.1 -9.55 15.15 -9.6 15.2 -9.6 15.25 -9.7 15.25 -9.7 15.35 -9.85 15.35 -10.1 15.35 -10.1 Q15.4 -10.2 15.5 -10.2 15.6 -10.2 15.6 -10.25 L15.6 -10.3 15.6 -10.3 15.65 -10.35 15.8 -10.35 Q16.0 -10.35 16.0 -10.2 L15.95 -10.15 15.95 -10.1 15.95 -10.2 15.85 -10.2 Q15.65 -10.2 15.6 -10.0 L15.6 -9.95 15.5 -9.75 15.5 -9.75 Q15.55 -9.65 15.8 -9.65 15.9 -9.65 15.95 -9.7 L16.05 -9.75 Q15.95 -9.8 15.95 -9.9 L16.0 -9.95 16.1 -9.9 16.15 -9.85 16.1 -9.8 16.15 -9.8 16.15 -9.75 16.1 -9.65 16.1 -9.65 16.2 -9.65 16.25 -9.7 Q16.25 -9.75 16.3 -9.75 L16.45 -9.6 16.35 -9.5 16.3 -9.55 16.2 -9.6 16.15 -9.55 16.1 -9.55 16.1 -9.55 16.0 -9.5 15.95 -9.45 15.95 -9.4 15.95 -9.35 15.9 -9.35 15.95 -9.25 16.05 -9.25 16.05 -9.25 16.0 -9.2 16.05 -9.15 16.05 -9.15 16.0 -9.05 15.95 -9.05 15.95 -8.95 15.95 -8.95 16.05 -9.0 16.1 -9.0 16.1 -8.95 16.15 -8.95 Q16.15 -8.95 16.2 -8.95 L16.15 -8.9 16.1 -8.8 16.1 -8.8 16.0 -8.8 Q15.95 -8.8 15.9 -8.85 L15.8 -8.9 15.75 -8.85 15.65 -8.85 15.55 -8.9 15.45 -8.9 15.4 -8.9 15.35 -8.9 15.35 -8.9 15.3 -8.9 15.3 -8.9 Q15.3 -8.9 15.3 -8.95 L15.25 -8.9 15.25 -8.8 15.25 -8.75 15.35 -8.75 15.45 -8.65 15.4 -8.6 15.4 -8.6 15.35 -8.6 15.25 -8.55 15.2 -8.55 15.2 -8.5 15.15 -8.45 15.15 -8.4 Q15.1 -8.35 15.05 -8.35 L14.9 -8.3 14.9 -8.3 14.85 -8.25 14.8 -8.15 14.8 -8.1 14.85 -8.05 14.8 -8.0 14.75 -7.95 14.75 -7.9 14.8 -7.9 14.8 -7.95 14.85 -8.0 14.95 -7.95 Q14.95 -7.9 15.1 -7.9 L15.05 -7.95 15.05 -8.0 14.95 -8.05 14.85 -8.15 14.9 -8.2 15.0 -8.2 15.0 -8.2 15.05 -8.2 15.05 -8.2 15.1 -8.2 15.1 -8.25 15.15 -8.3 15.15 -8.35 15.2 -8.4 15.25 -8.45 15.3 -8.5 15.4 -8.5 15.45 -8.5 15.55 -8.5 Q15.55 -8.55 15.65 -8.6 L15.85 -8.65 15.9 -8.6 15.95 -8.55 16.05 -8.55 16.05 -8.55 16.1 -8.45 16.15 -8.4 16.15 -8.3 16.1 -8.25 16.05 -8.25 16.0 -8.25 15.95 -8.3 15.9 -8.3 15.8 -8.25 15.8 -8.2 Q15.7 -8.15 15.75 -8.1 15.7 -8.05 15.6 -8.05 15.5 -8.05 15.45 -8.0 L15.45 -7.95 15.5 -7.95 15.55 -7.95 15.65 -7.85 15.65 -7.8 15.7 -7.8 15.75 -7.8 15.75 -7.8 15.8 -7.8 15.75 -7.9 15.7 -7.95 15.8 -8.0 15.9 -8.05 Q15.95 -8.05 15.95 -8.0 L15.95 -7.95 16.0 -7.95 16.05 -7.9 16.1 -7.85 Q16.1 -7.85 16.15 -7.85 L16.2 -7.85 16.3 -7.9 Q16.15 -7.9 16.1 -7.95 L16.1 -8.05 16.1 -8.1 16.25 -8.2 16.3 -8.2 16.35 -8.1 Q16.35 -8.05 16.35 -8.05 L16.4 -8.05 16.5 -8.0 Q16.5 -7.95 16.55 -7.95 L16.6 -7.95 16.65 -7.95 16.75 -7.95 16.8 -7.9 16.9 -7.9 16.9 -8.0 16.9 -8.0 16.85 -8.0 Q16.8 -8.05 16.75 -8.05 L16.75 -8.1 16.9 -8.15 16.85 -8.15 16.85 -8.15 16.8 -8.2 16.75 -8.15 16.7 -8.15 16.7 -8.15 16.65 -8.2 16.6 -8.25 16.6 -8.3 16.7 -8.3 16.75 -8.3 Q16.75 -8.3 16.8 -8.3 L16.85 -8.3 16.9 -8.3 16.75 -8.4 Q16.6 -8.4 16.6 -8.5 L16.65 -8.55 16.7 -8.65 16.8 -8.7 16.9 -8.75 17.0 -8.7 Q17.1 -8.65 17.15 -8.65 L17.15 -8.65 17.25 -8.65 17.3 -8.7 17.45 -8.6 17.55 -8.45 17.5 -8.35 17.5 -8.3 17.7 -8.2 17.7 -8.1 Q17.7 -8.05 17.8 -8.05 L17.85 -8.05 17.95 -8.1 18.05 -8.05 18.15 -7.95 18.15 -7.9 18.1 -7.9 18.2 -7.9 18.25 -7.85 18.3 -7.8 18.35 -7.75 18.4 -7.7 18.5 -7.6 18.45 -7.55 18.35 -7.55 18.3 -7.5 18.25 -7.6 18.2 -7.6 18.1 -7.55 18.05 -7.55 17.9 -7.6 17.75 -7.6 17.65 -7.6 17.55 -7.5 Q17.55 -7.45 17.6 -7.4 L17.7 -7.3 17.65 -7.25 17.6 -7.15 17.6 -7.1 17.65 -7.1 17.55 -7.0 17.5 -6.9 17.45 -6.9 17.35 -6.9 17.2 -6.9 17.1 -6.95 17.05 -7.0 17.05 -7.0 16.95 -7.0 16.9 -6.9 17.0 -6.8 17.05 -6.75 17.0 -6.7 17.0 -6.6 17.05 -6.6 16.9 -6.55 16.8 -6.5 16.75 -6.55 16.7 -6.55 16.7 -6.55 16.5 -6.6 16.45 -6.6 Q16.5 -6.55 16.55 -6.5 L16.65 -6.45 Q16.7 -6.25 16.75 -6.25 L16.9 -6.3 16.95 -6.3 Q17.0 -6.3 17.0 -6.25 17.0 -6.15 17.05 -6.15 L17.15 -6.1 17.2 -6.1 17.4 -6.1 17.45 -6.05 Q17.45 -5.95 17.2 -5.95 L17.15 -5.95 Q17.5 -5.7 17.5 -5.6 L17.45 -5.45 17.3 -5.4 17.05 -5.45 17.0 -5.5 16.75 -5.65 16.65 -5.75 Q16.6 -5.7 16.6 -5.6 16.6 -5.55 16.45 -5.55 L16.4 -5.55 16.35 -5.55 16.4 -5.5 16.4 -5.5 16.4 -5.45 16.6 -5.45 16.7 -5.45 16.9 -5.4 16.95 -5.35 17.0 -5.15 16.95 -5.15 16.95 -5.1 Q16.85 -5.1 16.85 -5.0 16.85 -5.0 17.0 -4.9 L17.1 -4.8 Q17.1 -4.7 17.0 -4.65 16.95 -4.6 16.9 -4.6 L16.7 -4.6 16.55 -4.7 16.5 -4.7 16.1 -4.85 16.0 -4.9 16.0 -5.15 16.0 -5.3 16.05 -5.45 Q16.15 -5.5 16.1 -5.6 L16.1 -5.6 16.2 -5.6 16.2 -5.65 16.2 -5.7 16.1 -5.75 Q15.95 -5.8 15.9 -5.85 L15.9 -5.9 15.95 -6.05 16.0 -6.15 16.05 -6.2 16.05 -6.25 16.0 -6.4 16.0 -6.3 15.85 -6.25 15.8 -6.2 15.75 -6.2 15.7 -6.15 Q15.65 -6.1 15.6 -6.1 L15.6 -6.15 15.65 -5.95 Q15.65 -5.9 15.7 -5.8 L15.75 -5.8 Q15.85 -5.7 15.85 -5.65 15.85 -5.45 15.7 -5.45 L15.65 -5.45 Q15.45 -5.45 15.3 -5.6 15.2 -5.7 15.2 -5.8 L15.2 -5.85 15.2 -5.9 15.25 -6.0 15.35 -6.1 15.4 -6.2 15.4 -6.2 15.3 -6.25 15.2 -6.2 15.1 -6.2 15.05 -6.15 15.05 -6.0 15.1 -5.75 15.1 -5.75 15.15 -5.65 15.05 -5.7 15.0 -5.75 14.9 -5.9 14.85 -5.95 14.85 -5.85 14.85 -5.6 Q14.9 -5.55 15.0 -5.4 L15.05 -5.35 Q15.25 -5.1 15.5 -5.1 L15.6 -5.1 15.55 -5.1 15.45 -5.25 15.4 -5.3 15.35 -5.4 15.3 -5.55 15.45 -5.45 15.55 -5.35 15.6 -5.3 15.6 -5.25 15.7 -5.2 15.8 -5.2 15.85 -5.05 15.95 -4.9 16.1 -4.75 16.1 -4.65 16.05 -4.65 16.0 -4.65 Q15.9 -4.65 15.75 -4.75 L15.6 -4.85 Q15.45 -4.8 15.3 -4.9 15.15 -5.05 15.05 -5.2 L15.05 -5.2 14.8 -5.4 14.75 -5.1 Q14.7 -5.1 14.55 -5.2 L14.4 -5.35 14.45 -5.4 14.5 -5.45 14.5 -5.5 14.4 -5.7 14.35 -5.95 Q14.35 -6.05 14.4 -6.15 L14.45 -6.25 14.4 -6.3 14.2 -6.4 Q14.05 -6.4 14.05 -6.45 L14.05 -6.45 14.0 -6.5 14.0 -6.7 Q14.0 -6.85 14.05 -6.9 L14.1 -6.9 14.2 -6.9 14.3 -6.9 14.25 -7.0 14.35 -7.05 Q14.45 -7.1 14.45 -7.15 L14.45 -7.25 14.4 -7.3 14.4 -7.4 14.35 -7.4 Q14.15 -7.55 14.1 -7.65 L14.25 -7.7 14.3 -7.8 14.3 -7.9 14.35 -7.9 14.4 -7.95 14.35 -8.05 14.25 -8.1 14.2 -8.05 14.1 -8.05 14.0 -8.1 13.95 -8.15 13.85 -8.2 13.8 -8.2 Q13.55 -8.25 13.55 -8.55 13.55 -8.6 13.6 -8.65 13.7 -8.75 13.75 -8.8 L13.8 -8.95 13.85 -9.05 13.85 -9.05 13.8 -9.4 13.8 -9.45 Q13.85 -9.65 14.0 -9.8 L14.05 -9.9 14.15 -10.0 14.2 -10.25 14.2 -10.25 14.3 -10.5 14.3 -10.65 14.25 -10.85 Q14.25 -10.95 14.35 -11.05 14.45 -11.15 14.65 -11.2 L14.75 -11.3 14.85 -11.35 M15.75 -9.4 L15.8 -9.45 15.85 -9.45 16.0 -9.5 16.05 -9.65 15.95 -9.6 15.5 -9.55 15.25 -9.55 15.25 -9.55 15.2 -9.45 15.2 -9.45 15.15 -9.4 15.15 -9.35 15.15 -9.25 15.2 -9.25 15.3 -9.25 15.3 -9.25 15.4 -9.25 15.5 -9.25 15.55 -9.35 15.6 -9.3 15.65 -9.3 15.7 -9.35 15.7 -9.35 15.75 -9.4 M15.5 -9.1 Q15.5 -9.05 15.55 -9.05 L15.6 -9.05 15.7 -9.1 15.75 -9.15 15.7 -9.15 15.6 -9.25 15.5 -9.2 15.45 -9.15 15.45 -9.1 15.5 -9.1 M15.2 -9.15 L15.1 -9.25 Q15.0 -9.25 15.0 -9.3 L15.05 -9.35 15.1 -9.45 15.05 -9.5 15.0 -9.5 Q14.85 -9.5 14.75 -9.4 L14.55 -9.25 14.75 -9.15 14.8 -9.1 14.85 -9.05 15.0 -9.1 15.1 -9.1 15.2 -9.1 15.2 -9.15 M14.65 -8.75 L14.65 -8.65 14.8 -8.65 14.85 -8.7 14.85 -8.85 15.0 -8.9 15.05 -8.9 15.0 -8.95 14.95 -8.95 14.8 -9.0 14.75 -8.95 14.65 -8.95 14.55 -8.85 14.6 -8.8 14.65 -8.75 M14.95 -8.65 L14.9 -8.55 14.9 -8.5 14.95 -8.5 Q15.05 -8.5 15.1 -8.55 L15.15 -8.6 15.05 -8.65 14.95 -8.65 M14.75 -8.45 L14.6 -8.5 14.45 -8.45 Q14.35 -8.45 14.35 -8.35 L14.35 -8.35 14.3 -8.35 Q14.3 -8.35 14.25 -8.35 L14.2 -8.4 14.1 -8.4 Q14.05 -8.4 14.0 -8.4 L13.95 -8.45 13.9 -8.45 13.9 -8.4 Q13.9 -8.35 14.0 -8.3 L14.0 -8.3 14.3 -8.2 14.3 -8.2 Q14.4 -8.15 14.45 -8.15 L14.5 -8.2 14.55 -8.25 Q14.55 -8.35 14.65 -8.4 L14.75 -8.4 14.75 -8.45 M15.1 -8.1 L15.05 -8.1 15.1 -8.05 Q15.1 -8.05 15.15 -8.05 L15.3 -8.05 15.3 -8.05 15.3 -8.1 15.25 -8.15 15.15 -8.15 15.1 -8.1 M14.6 -7.85 L14.55 -7.8 14.45 -7.7 14.4 -7.65 Q14.4 -7.55 14.55 -7.55 L14.7 -7.55 14.8 -7.45 14.85 -7.4 14.9 -7.4 Q15.0 -7.4 15.1 -7.45 L15.15 -7.55 15.2 -7.65 15.25 -7.7 15.15 -7.7 15.1 -7.7 15.05 -7.7 Q14.95 -7.7 14.85 -7.8 14.75 -7.9 14.7 -7.9 L14.65 -7.9 14.6 -7.85 M15.45 -8.4 L15.45 -8.35 15.4 -8.3 15.4 -8.3 15.35 -8.25 Q15.35 -8.25 15.5 -8.25 L15.55 -8.25 Q15.55 -8.25 15.6 -8.25 L15.65 -8.3 15.7 -8.3 15.45 -8.45 15.45 -8.4 M15.85 -7.55 Q15.75 -7.55 15.75 -7.45 L15.8 -7.3 15.9 -7.1 15.85 -6.95 15.85 -6.9 15.9 -6.9 16.0 -7.0 16.05 -7.05 16.05 -7.1 16.1 -7.3 Q16.1 -7.45 16.05 -7.5 L16.0 -7.5 15.9 -7.6 15.85 -7.6 15.85 -7.55 M13.45 -7.8 L13.45 -7.75 Q13.4 -7.75 13.35 -7.75 L13.3 -7.75 13.25 -7.8 13.3 -7.8 13.35 -7.85 13.35 -7.85 13.4 -7.85 13.45 -7.8 M13.8 -8.05 L13.85 -8.05 13.9 -8.05 13.95 -8.05 13.95 -8.05 Q13.8 -8.0 13.8 -7.95 L13.85 -7.85 Q13.85 -7.8 13.8 -7.8 L13.75 -7.85 Q13.7 -7.85 13.7 -7.85 L13.65 -7.9 13.6 -7.95 13.7 -8.05 13.8 -8.05 M13.6 -7.45 L13.65 -7.45 13.65 -7.4 13.7 -7.4 13.95 -7.5 14.0 -7.5 14.0 -7.5 Q14.0 -7.4 13.9 -7.3 13.8 -7.2 13.75 -7.2 L13.55 -7.25 13.5 -7.35 13.5 -7.4 Q13.55 -7.45 13.6 -7.45 L13.6 -7.45 M13.6 -6.8 L13.65 -6.75 13.65 -6.6 13.7 -6.55 Q13.7 -6.45 13.45 -6.3 L13.25 -6.4 13.2 -6.45 13.25 -6.5 13.25 -6.55 13.3 -6.6 13.35 -6.55 13.35 -6.55 13.4 -6.55 13.5 -6.6 13.55 -6.7 13.6 -6.8 13.6 -6.8 M15.7 -7.2 L15.7 -7.2 Q15.7 -7.2 15.65 -7.2 L15.6 -7.25 15.55 -7.25 15.5 -7.2 15.4 -7.2 15.4 -7.2 15.4 -7.15 15.45 -7.15 15.5 -7.15 15.6 -7.1 15.7 -7.15 15.75 -7.2 15.7 -7.2 M13.1 -7.1 L13.15 -7.1 13.15 -7.0 13.1 -7.0 13.1 -7.0 12.95 -6.95 12.95 -7.0 12.95 -7.0 13.0 -7.05 13.05 -7.1 13.1 -7.1 M16.1 -6.85 L16.05 -6.85 15.95 -6.8 15.85 -6.75 15.7 -6.8 15.6 -6.8 15.6 -6.75 Q15.6 -6.7 15.6 -6.65 L15.6 -6.65 15.75 -6.6 Q15.8 -6.6 16.05 -6.75 L16.1 -6.75 16.2 -6.8 16.25 -6.8 16.2 -6.9 16.1 -6.85 M15.3 -7.0 L15.2 -7.15 15.15 -7.2 14.95 -7.3 14.85 -7.3 14.7 -7.2 14.55 -7.05 14.75 -7.0 14.8 -7.0 14.9 -7.05 15.05 -7.05 15.15 -7.05 15.25 -7.0 15.3 -7.0 M15.35 -6.7 L15.3 -6.65 15.25 -6.6 15.2 -6.55 Q15.15 -6.5 15.1 -6.5 L15.3 -6.4 15.3 -6.3 15.35 -6.25 15.4 -6.25 15.55 -6.3 15.7 -6.35 15.65 -6.4 15.6 -6.45 15.55 -6.45 15.5 -6.45 Q15.45 -6.45 15.4 -6.45 L15.4 -6.7 15.35 -6.7 M16.05 -6.6 L16.15 -6.65 16.25 -6.7 16.3 -6.7 16.25 -6.7 16.1 -6.6 15.95 -6.5 16.0 -6.45 16.0 -6.45 Q16.0 -6.5 16.05 -6.6 M14.85 -6.85 L14.75 -6.8 14.6 -6.7 14.65 -6.65 14.7 -6.65 14.75 -6.65 Q14.85 -6.65 14.9 -6.75 L14.95 -6.8 14.95 -6.9 14.9 -7.0 14.9 -7.0 Q14.9 -6.9 14.85 -6.85 M14.45 -6.6 L14.4 -6.7 14.4 -6.7 14.3 -6.65 14.3 -6.55 14.35 -6.5 14.45 -6.4 14.5 -6.35 14.55 -6.3 14.55 -6.3 14.65 -6.25 14.8 -6.3 14.9 -6.4 15.0 -6.45 14.9 -6.5 14.85 -6.45 14.8 -6.45 14.75 -6.45 14.7 -6.45 14.65 -6.5 14.6 -6.5 14.55 -6.55 14.45 -6.6 M17.0 -8.5 Q16.95 -8.5 16.9 -8.55 L16.85 -8.65 Q16.75 -8.6 16.75 -8.55 L16.9 -8.35 Q16.95 -8.3 17.0 -8.3 L17.05 -8.25 17.15 -8.2 Q17.25 -8.2 17.25 -8.3 L17.25 -8.4 17.35 -8.5 17.3 -8.5 17.15 -8.55 17.1 -8.55 17.05 -8.55 17.0 -8.5 M16.45 -7.6 L16.45 -7.65 16.4 -7.7 16.4 -7.7 16.35 -7.7 16.35 -7.6 16.4 -7.6 16.45 -7.6 M16.4 -7.45 L16.4 -7.4 16.35 -7.25 16.3 -7.25 16.25 -7.15 16.25 -7.05 16.5 -6.9 16.5 -6.9 16.6 -6.9 16.65 -6.95 16.6 -7.0 16.6 -7.05 16.55 -7.1 16.5 -7.15 16.55 -7.15 16.6 -7.25 16.7 -7.3 16.75 -7.3 16.95 -7.3 16.95 -7.3 16.75 -7.4 16.65 -7.35 16.55 -7.35 16.5 -7.35 16.5 -7.4 16.45 -7.45 16.4 -7.45 16.4 -7.45 M16.65 -7.7 Q16.65 -7.7 16.65 -7.65 L16.65 -7.65 16.7 -7.65 16.75 -7.6 16.85 -7.65 16.9 -7.7 16.9 -7.7 16.8 -7.7 16.75 -7.7 16.65 -7.75 16.65 -7.7 M17.1 -8.0 L17.1 -7.9 17.05 -7.8 17.05 -7.8 17.1 -7.85 17.2 -7.9 17.25 -8.0 17.2 -8.0 17.1 -8.0 M17.2 -7.75 L17.15 -7.65 Q17.05 -7.6 17.05 -7.55 L17.05 -7.4 17.0 -7.4 16.9 -7.4 16.9 -7.4 Q16.95 -7.4 17.0 -7.35 L17.05 -7.35 17.05 -7.3 17.15 -7.25 17.1 -7.15 17.05 -7.1 17.0 -7.1 17.0 -7.1 16.9 -7.15 16.95 -7.1 16.95 -7.1 17.05 -7.05 17.05 -7.05 17.15 -7.0 17.2 -7.0 Q17.3 -7.0 17.35 -7.1 L17.45 -7.3 17.55 -7.55 17.5 -7.65 17.45 -7.7 17.45 -7.7 17.4 -7.75 17.3 -7.85 17.3 -7.85 17.2 -7.8 17.15 -7.8 17.15 -7.8 17.2 -7.75 17.2 -7.75 M17.65 -7.9 L17.65 -7.9 17.7 -7.85 17.7 -7.85 17.65 -7.75 17.75 -7.7 17.8 -7.65 18.0 -7.7 18.0 -7.9 17.85 -7.9 17.75 -7.9 17.7 -7.9 17.65 -7.9 17.65 -7.9 M16.75 -6.9 L16.7 -6.9 16.7 -6.9 16.65 -6.85 16.65 -6.8 16.7 -6.75 16.7 -6.8 16.75 -6.85 16.8 -6.95 16.75 -6.9 M17.1 -5.8 L17.05 -5.85 17.0 -5.85 17.0 -5.85 16.95 -5.7 Q16.95 -5.65 17.0 -5.6 L17.05 -5.55 17.2 -5.55 17.25 -5.55 17.3 -5.65 Q17.3 -5.7 17.1 -5.8 M17.15 -6.1 L17.1 -6.1 Q17.05 -6.05 17.0 -6.05 L16.9 -6.05 16.95 -6.05 Q17.0 -6.0 17.1 -5.95 L17.15 -5.95 17.15 -5.95 17.25 -6.0 17.2 -6.05 17.15 -6.1 M16.4 -6.4 L16.4 -6.4 16.4 -6.1 Q16.4 -5.95 16.45 -5.95 L16.6 -6.0 Q16.65 -6.1 16.65 -6.15 L16.5 -6.35 16.4 -6.4 M16.5 -6.05 L16.45 -6.1 16.5 -6.1 16.5 -6.05 M16.6 -5.35 L16.55 -5.25 16.45 -5.2 16.4 -5.1 16.4 -5.0 16.5 -4.9 16.7 -4.65 16.75 -4.7 16.8 -4.75 16.75 -4.9 Q16.65 -5.0 16.65 -5.05 16.7 -5.05 16.8 -5.1 L16.75 -5.2 16.6 -5.35" fill="#b97814" fill-rule="evenodd" stroke="none"/>
    <path d="M16.35 -9.5 L16.3 -9.4 16.3 -9.4 16.2 -9.4 16.2 -9.35 16.15 -9.3 16.1 -9.25 16.05 -9.25 16.05 -9.25 15.95 -9.25 15.9 -9.35 15.95 -9.35 15.95 -9.4 15.95 -9.45 16.0 -9.5 16.1 -9.55 16.1 -9.55 16.15 -9.55 16.2 -9.6 16.3 -9.55 16.35 -9.5 M15.15 -5.65 L15.25 -5.6 15.3 -5.55 15.35 -5.4 15.4 -5.3 15.45 -5.25 15.55 -5.1 15.6 -5.1 15.5 -5.1 Q15.25 -5.1 15.05 -5.35 L15.0 -5.4 Q14.9 -5.55 14.85 -5.6 L14.85 -5.85 14.85 -5.95 14.9 -5.9 15.0 -5.75 15.05 -5.7 15.15 -5.65 M15.0 -10.6 L15.0 -10.6 15.1 -10.75 15.2 -10.75 15.2 -10.65 15.0 -10.2 Q14.95 -10.1 14.85 -10.1 L14.75 -10.1 14.75 -10.1 Q14.75 -10.2 14.85 -10.25 14.95 -10.3 14.95 -10.35 L14.95 -10.35 Q14.95 -10.5 15.0 -10.6 L15.0 -10.6 M14.5 -10.45 Q14.45 -10.45 14.45 -10.5 L14.4 -10.55 14.45 -10.6 14.5 -10.7 14.6 -10.7 14.65 -10.6 14.65 -10.5 Q14.65 -10.45 14.55 -10.45 L14.55 -10.45 14.5 -10.45 M15.95 -10.1 L15.95 -10.05 15.9 -9.95 15.9 -9.9 15.95 -9.9 Q15.95 -9.8 16.05 -9.75 L15.95 -9.7 Q15.9 -9.65 15.8 -9.65 15.55 -9.65 15.5 -9.75 L15.5 -9.75 15.6 -9.95 15.6 -10.0 Q15.65 -10.2 15.85 -10.2 L15.95 -10.2 15.95 -10.1 M15.45 -8.4 L15.45 -8.45 15.7 -8.3 15.65 -8.3 15.6 -8.25 Q15.55 -8.25 15.55 -8.25 L15.5 -8.25 Q15.35 -8.25 15.35 -8.25 L15.4 -8.3 15.4 -8.3 15.45 -8.35 15.45 -8.4 M14.6 -7.85 L14.65 -7.9 14.7 -7.9 Q14.75 -7.9 14.85 -7.8 14.95 -7.7 15.05 -7.7 L15.1 -7.7 15.15 -7.7 15.25 -7.7 15.2 -7.65 15.15 -7.55 15.1 -7.45 Q15.0 -7.4 14.9 -7.4 L14.85 -7.4 14.8 -7.45 14.7 -7.55 14.55 -7.55 Q14.4 -7.55 14.4 -7.65 L14.45 -7.7 14.55 -7.8 14.6 -7.85 M15.1 -8.1 L15.15 -8.15 15.25 -8.15 15.3 -8.1 15.3 -8.05 15.3 -8.05 15.15 -8.05 Q15.1 -8.05 15.1 -8.05 L15.05 -8.1 15.1 -8.1 M14.75 -8.45 L14.75 -8.4 14.65 -8.4 Q14.55 -8.35 14.55 -8.25 L14.5 -8.2 14.45 -8.15 Q14.4 -8.15 14.3 -8.2 L14.3 -8.2 14.0 -8.3 14.0 -8.3 Q13.9 -8.35 13.9 -8.4 L13.9 -8.45 13.95 -8.45 14.0 -8.4 Q14.05 -8.4 14.1 -8.4 L14.2 -8.4 14.25 -8.35 Q14.3 -8.35 14.3 -8.35 L14.35 -8.35 14.35 -8.35 Q14.35 -8.45 14.45 -8.45 L14.6 -8.5 14.75 -8.45 M14.95 -8.65 L15.05 -8.65 15.15 -8.6 15.1 -8.55 Q15.05 -8.5 14.95 -8.5 L14.9 -8.5 14.9 -8.55 14.95 -8.65 M14.65 -8.75 L14.6 -8.8 14.55 -8.85 14.65 -8.95 14.75 -8.95 14.8 -9.0 14.95 -8.95 15.0 -8.95 15.05 -8.9 15.0 -8.9 14.85 -8.85 14.85 -8.7 14.8 -8.65 14.65 -8.65 14.65 -8.75 M15.2 -9.15 L15.2 -9.1 15.1 -9.1 15.0 -9.1 14.85 -9.05 14.8 -9.1 14.75 -9.15 14.55 -9.25 14.75 -9.4 Q14.85 -9.5 15.0 -9.5 L15.05 -9.5 15.1 -9.45 15.05 -9.35 15.0 -9.3 Q15.0 -9.25 15.1 -9.25 L15.2 -9.15 M15.5 -9.1 L15.45 -9.1 15.45 -9.15 15.5 -9.2 15.6 -9.25 15.7 -9.15 15.75 -9.15 15.7 -9.1 15.6 -9.05 15.55 -9.05 Q15.5 -9.05 15.5 -9.1 M15.85 -7.55 L15.85 -7.6 15.9 -7.6 16.0 -7.5 16.05 -7.5 Q16.1 -7.45 16.1 -7.3 L16.05 -7.1 16.05 -7.05 16.0 -7.0 15.9 -6.9 15.85 -6.9 15.85 -6.95 15.9 -7.1 15.8 -7.3 15.75 -7.45 Q15.75 -7.55 15.85 -7.55 M15.35 -6.7 L15.4 -6.7 15.4 -6.45 Q15.45 -6.45 15.5 -6.45 L15.55 -6.45 15.6 -6.45 15.65 -6.4 15.7 -6.35 15.55 -6.3 15.4 -6.25 15.35 -6.25 15.3 -6.3 15.3 -6.4 15.1 -6.5 Q15.15 -6.5 15.2 -6.55 L15.25 -6.6 15.3 -6.65 15.35 -6.7 M15.3 -7.0 L15.25 -7.0 15.15 -7.05 15.05 -7.05 14.9 -7.05 14.8 -7.0 14.75 -7.0 14.55 -7.05 14.7 -7.2 14.85 -7.3 14.95 -7.3 15.15 -7.2 15.2 -7.15 15.3 -7.0 M16.1 -6.85 L16.2 -6.9 16.25 -6.8 16.2 -6.8 16.1 -6.75 16.05 -6.75 Q15.8 -6.6 15.75 -6.6 L15.6 -6.65 15.6 -6.65 Q15.6 -6.7 15.6 -6.75 L15.6 -6.8 15.7 -6.8 15.85 -6.75 15.95 -6.8 16.05 -6.85 16.1 -6.85 M14.45 -6.6 L14.55 -6.55 14.6 -6.5 14.65 -6.5 14.7 -6.45 14.75 -6.45 14.8 -6.45 14.85 -6.45 14.9 -6.5 15.0 -6.45 14.9 -6.4 14.8 -6.3 14.65 -6.25 14.55 -6.3 14.55 -6.3 14.5 -6.35 14.45 -6.4 14.35 -6.5 14.3 -6.55 14.3 -6.65 14.4 -6.7 14.4 -6.7 14.45 -6.6 M16.45 -7.6 L16.4 -7.6 16.35 -7.6 16.35 -7.7 16.4 -7.7 16.4 -7.7 16.45 -7.65 16.45 -7.6 M17.0 -8.5 L17.05 -8.55 17.1 -8.55 17.15 -8.55 17.3 -8.5 17.35 -8.5 17.25 -8.4 17.25 -8.3 Q17.25 -8.2 17.15 -8.2 L17.05 -8.25 17.0 -8.3 Q16.95 -8.3 16.9 -8.35 L16.75 -8.55 Q16.75 -8.6 16.85 -8.65 L16.9 -8.55 Q16.95 -8.5 17.0 -8.5 M16.65 -7.7 L16.65 -7.75 16.75 -7.7 16.8 -7.7 16.9 -7.7 16.9 -7.7 16.85 -7.65 16.75 -7.6 16.7 -7.65 16.65 -7.65 16.65 -7.65 Q16.65 -7.7 16.65 -7.7 M17.2 -7.75 L17.2 -7.75 17.15 -7.8 17.15 -7.8 17.2 -7.8 17.3 -7.85 17.3 -7.85 17.4 -7.75 17.45 -7.7 17.45 -7.7 17.5 -7.65 17.55 -7.55 17.45 -7.3 17.35 -7.1 Q17.3 -7.0 17.2 -7.0 L17.15 -7.0 17.05 -7.05 17.05 -7.05 16.95 -7.1 16.95 -7.1 16.9 -7.15 17.0 -7.1 17.0 -7.1 17.05 -7.1 17.1 -7.15 17.15 -7.25 17.05 -7.3 17.05 -7.35 17.0 -7.35 Q16.95 -7.4 16.9 -7.4 L16.9 -7.4 17.0 -7.4 17.05 -7.4 17.05 -7.55 Q17.05 -7.6 17.15 -7.65 L17.2 -7.75 M17.65 -7.9 L17.65 -7.9 17.7 -7.9 17.75 -7.9 17.85 -7.9 18.0 -7.9 18.0 -7.7 17.8 -7.65 17.75 -7.7 17.65 -7.75 17.7 -7.85 17.7 -7.85 17.65 -7.9 17.65 -7.9 M16.75 -6.9 L16.8 -6.95 16.75 -6.85 16.7 -6.8 16.7 -6.75 16.65 -6.8 16.65 -6.85 16.7 -6.9 16.7 -6.9 16.75 -6.9 M16.4 -6.4 L16.5 -6.35 16.65 -6.15 Q16.65 -6.1 16.6 -6.0 L16.45 -5.95 Q16.4 -5.95 16.4 -6.1 L16.4 -6.4 16.4 -6.4 M17.15 -6.1 L17.2 -6.05 17.25 -6.0 17.15 -5.95 17.15 -5.95 17.1 -5.95 Q17.0 -6.0 16.95 -6.05 L16.9 -6.05 17.0 -6.05 Q17.05 -6.05 17.1 -6.1 L17.15 -6.1 M17.1 -5.8 Q17.3 -5.7 17.3 -5.65 L17.25 -5.55 17.2 -5.55 17.05 -5.55 17.0 -5.6 Q16.95 -5.65 16.95 -5.7 L17.0 -5.85 17.0 -5.85 17.05 -5.85 17.1 -5.8 M16.5 -6.05 L16.5 -6.1 16.45 -6.1 16.5 -6.05 M16.6 -5.35 L16.75 -5.2 16.8 -5.1 Q16.7 -5.05 16.65 -5.05 16.65 -5.0 16.75 -4.9 L16.8 -4.75 16.75 -4.7 16.7 -4.65 16.5 -4.9 16.4 -5.0 16.4 -5.1 16.45 -5.2 16.55 -5.25 16.6 -5.35" fill="#ffe693" fill-rule="evenodd" stroke="none"/>
  </g>
</svg>
