<?xml version="1.0" encoding="UTF-8" standalone="no"?>
<svg xmlns:xlink="http://www.w3.org/1999/xlink" height="3.45px" width="2.25px" xmlns="http://www.w3.org/2000/svg">
  <g transform="matrix(1.0, 0.0, 0.0, 1.0, -7.2, 4.2)">
    <path d="M7.8 -3.65 L7.8 -3.6 7.75 -3.65 7.75 -3.65 7.8 -3.65 M7.4 -4.15 L7.45 -4.2 7.45 -4.2 7.5 -4.15 7.45 -4.15 7.45 -4.1 7.4 -4.15 M8.4 -2.8 L8.45 -2.85 8.45 -2.8 8.45 -2.75 8.4 -2.8 8.4 -2.8 M8.55 -3.85 L8.55 -3.9 8.6 -3.9 8.55 -3.9 8.6 -3.9 8.65 -3.95 8.65 -3.95 8.7 -3.9 8.7 -3.9 8.65 -3.95 8.65 -3.9 Q8.65 -3.85 8.55 -3.85 M9.25 -4.1 L9.25 -4.1 9.3 -4.15 9.3 -4.15 9.35 -4.15 9.35 -4.15 9.35 -4.1 9.3 -4.1 9.25 -4.1 9.25 -4.1 M8.85 -2.75 L8.8 -2.8 8.8 -2.8 8.9 -2.8 8.9 -2.75 8.85 -2.75 M9.05 -1.2 L9.05 -1.2 9.05 -1.25 9.1 -1.25 9.1 -1.2 9.05 -1.2 M8.8 -1.75 L8.8 -1.7 8.75 -1.7 8.75 -1.75 8.8 -1.75" fill="#421818" fill-rule="evenodd" stroke="none"/>
    <path d="M7.95 -1.05 L7.95 -1.05 8.05 -1.1 8.15 -1.1 8.15 -1.05 8.1 -0.9 8.05 -0.85 Q7.95 -0.8 7.95 -0.8 L7.75 -0.85 7.6 -0.8 7.55 -0.8 Q7.5 -0.75 7.35 -0.75 L7.25 -0.75 Q7.2 -0.75 7.2 -0.75 L7.2 -0.8 7.35 -0.95 7.4 -1.05 7.5 -1.05 7.65 -1.05 7.65 -1.05 7.7 -1.1 7.75 -1.15 7.8 -1.1 7.8 -1.1 7.9 -1.05 7.95 -1.05 M7.85 -2.25 L8.05 -2.3 8.15 -2.2 8.25 -2.15 8.35 -1.9 8.35 -1.9 8.25 -1.85 8.15 -1.85 8.15 -1.85 8.1 -1.9 8.1 -2.0 8.05 -2.1 8.05 -2.1 7.95 -2.15 7.8 -2.1 7.7 -2.1 Q7.65 -2.1 7.65 -2.1 L7.75 -2.2 7.85 -2.25 M9.15 -1.7 L9.1 -1.7 Q9.05 -1.7 9.0 -1.75 L9.1 -1.9 9.15 -1.95 9.25 -2.0 9.4 -1.95 9.45 -1.9 9.4 -1.85 9.3 -1.8 9.2 -1.7 9.15 -1.7" fill="#2a2a27" fill-rule="evenodd" stroke="none"/>
  </g>
</svg>
