<?xml version="1.0" encoding="UTF-8" standalone="no"?>
<svg xmlns:xlink="http://www.w3.org/1999/xlink" height="5.35px" width="6.55px" xmlns="http://www.w3.org/2000/svg">
  <g transform="matrix(1.0, 0.0, 0.0, 1.0, -12.25, 11.1)">
    <path d="M12.35 -10.1 L12.4 -10.05 12.4 -10.0 12.35 -10.0 12.3 -10.0 Q12.25 -10.05 12.25 -10.05 L12.3 -10.1 12.35 -10.1 12.35 -10.1 M13.15 -10.3 L13.2 -10.3 13.2 -10.25 13.2 -10.25 13.25 -10.2 13.2 -10.15 13.15 -10.1 13.1 -10.1 13.15 -10.15 13.15 -10.2 13.05 -10.2 13.1 -10.25 13.1 -10.25 13.15 -10.3 M13.55 -10.35 L13.55 -10.3 13.65 -10.3 13.75 -10.3 13.75 -10.25 13.85 -10.2 13.75 -10.2 Q13.7 -10.15 13.65 -10.2 L13.65 -10.2 13.55 -10.3 13.55 -10.35 M15.15 -11.05 L15.15 -11.1 15.15 -11.1 15.2 -11.1 15.2 -11.05 15.2 -11.0 15.15 -11.0 15.15 -11.0 15.15 -11.05 M14.9 -10.65 L14.95 -10.7 15.0 -10.65 15.0 -10.65 14.9 -10.5 14.85 -10.5 14.85 -10.6 14.85 -10.7 14.9 -10.65 M14.5 -10.7 L14.55 -10.7 14.55 -10.65 14.5 -10.6 14.45 -10.6 14.45 -10.65 14.45 -10.7 14.5 -10.7 M14.75 -10.15 L14.8 -10.15 14.8 -10.05 14.75 -10.0 14.7 -9.95 14.7 -10.0 14.7 -10.1 14.7 -10.15 14.75 -10.15 14.75 -10.15 M15.15 -10.35 L15.2 -10.35 15.2 -10.4 15.25 -10.35 15.25 -10.2 15.2 -10.2 15.2 -10.2 15.15 -10.3 15.15 -10.35 M14.95 -10.45 L14.95 -10.35 14.9 -10.35 14.85 -10.3 14.85 -10.35 14.8 -10.4 14.85 -10.45 14.9 -10.45 14.95 -10.45 M16.15 -10.7 L16.15 -10.7 16.05 -10.6 16.0 -10.6 16.0 -10.65 16.0 -10.7 16.05 -10.7 16.05 -10.7 16.1 -10.7 16.15 -10.7 M15.25 -10.7 L15.3 -10.7 15.35 -10.65 15.3 -10.6 15.25 -10.6 15.25 -10.55 15.2 -10.6 15.15 -10.6 15.2 -10.65 15.25 -10.7 M15.35 -10.6 L15.4 -10.6 15.4 -10.55 15.35 -10.5 15.35 -10.5 15.3 -10.5 15.35 -10.6 15.35 -10.6 M15.6 -10.35 L15.65 -10.35 15.65 -10.35 15.6 -10.3 15.6 -10.3 15.5 -10.3 15.55 -10.35 15.6 -10.4 15.6 -10.35 M15.35 -9.9 L15.4 -9.95 15.45 -9.95 15.45 -9.95 Q15.4 -9.95 15.4 -10.0 L15.45 -10.0 15.5 -10.05 15.55 -10.05 15.55 -10.05 15.55 -10.0 15.6 -10.0 15.6 -10.0 15.6 -9.95 15.55 -9.95 15.55 -9.9 15.5 -9.9 15.35 -9.85 15.35 -9.9 M16.0 -10.35 L16.1 -10.35 16.1 -10.35 16.05 -10.3 16.05 -10.3 16.05 -10.25 16.0 -10.25 15.9 -10.2 15.85 -10.25 15.9 -10.25 15.95 -10.3 15.9 -10.35 15.95 -10.35 16.0 -10.35 M16.15 -10.15 L16.1 -10.15 15.95 -10.1 16.0 -10.2 16.15 -10.25 16.25 -10.25 16.3 -10.3 16.35 -10.25 16.3 -10.2 16.2 -10.15 16.15 -10.15 M15.8 -9.75 L15.85 -9.75 15.8 -9.75 15.8 -9.7 15.9 -9.6 15.9 -9.6 15.85 -9.5 15.75 -9.55 Q15.7 -9.55 15.7 -9.65 L15.7 -9.65 15.75 -9.65 15.8 -9.75 15.8 -9.75 M15.55 -9.75 L15.55 -9.7 15.5 -9.65 15.4 -9.65 15.3 -9.6 15.2 -9.6 15.2 -9.6 15.25 -9.65 15.3 -9.7 15.45 -9.75 15.5 -9.75 15.55 -9.75 M15.9 -8.85 L15.85 -8.9 15.8 -8.95 15.8 -8.95 15.85 -8.95 16.05 -8.85 16.1 -8.85 16.15 -8.8 16.15 -8.8 16.0 -8.8 15.95 -8.8 15.9 -8.85 M15.75 -7.75 L15.8 -7.75 16.0 -7.7 16.1 -7.7 16.1 -7.65 16.05 -7.65 16.0 -7.6 15.9 -7.65 15.85 -7.65 Q15.8 -7.7 15.75 -7.75 M16.15 -7.9 L16.15 -7.95 16.15 -8.0 16.0 -8.05 15.95 -8.1 16.0 -8.15 16.1 -8.1 16.1 -8.1 16.25 -8.1 16.45 -8.0 16.45 -8.0 16.5 -8.0 16.55 -8.0 16.6 -8.0 16.6 -8.0 16.65 -7.9 16.65 -7.9 16.6 -7.9 16.5 -7.9 16.45 -7.9 16.3 -7.9 16.15 -7.9 M16.2 -8.3 L16.2 -8.3 16.1 -8.35 16.1 -8.35 16.25 -8.35 16.25 -8.35 16.3 -8.35 16.3 -8.3 16.2 -8.3 M16.9 -8.3 L17.0 -8.3 17.0 -8.3 17.1 -8.3 17.15 -8.25 17.15 -8.2 17.05 -8.2 16.95 -8.2 Q16.9 -8.2 16.9 -8.25 L16.9 -8.25 16.85 -8.25 16.9 -8.25 16.9 -8.3 M17.05 -8.5 L17.05 -8.45 17.0 -8.45 17.0 -8.4 17.0 -8.35 16.95 -8.35 16.9 -8.35 16.95 -8.4 16.9 -8.45 16.85 -8.45 16.8 -8.45 16.8 -8.45 16.85 -8.5 16.9 -8.5 16.9 -8.5 16.95 -8.55 16.95 -8.55 17.0 -8.55 17.05 -8.6 17.1 -8.6 17.15 -8.6 17.1 -8.55 17.05 -8.55 17.05 -8.5 M14.75 -9.4 L14.7 -9.4 14.6 -9.4 14.6 -9.4 14.5 -9.4 14.5 -9.4 14.55 -9.45 14.6 -9.45 14.65 -9.45 14.75 -9.5 14.8 -9.5 14.8 -9.5 14.85 -9.45 14.85 -9.45 14.8 -9.4 14.75 -9.4 M14.95 -9.8 L15.0 -9.8 15.0 -9.75 14.95 -9.75 14.95 -9.7 14.9 -9.7 14.85 -9.7 Q14.8 -9.7 14.85 -9.75 L14.9 -9.75 14.9 -9.75 14.95 -9.8 M12.7 -9.75 L12.75 -9.75 12.7 -9.7 12.7 -9.75 Q12.6 -9.75 12.6 -9.8 L12.55 -9.8 12.55 -9.8 12.55 -9.85 12.5 -9.85 12.6 -9.85 12.65 -9.85 12.7 -9.75 M13.1 -9.8 L13.1 -9.8 13.15 -9.75 13.15 -9.7 13.05 -9.7 13.05 -9.75 13.05 -9.8 13.1 -9.8 M13.35 -9.55 L13.4 -9.6 13.4 -9.55 13.4 -9.45 13.3 -9.35 13.25 -9.3 13.25 -9.3 13.25 -9.4 13.3 -9.5 13.35 -9.55 M15.75 -8.4 L15.75 -8.35 15.75 -8.35 15.6 -8.3 15.6 -8.3 15.45 -8.25 15.45 -8.3 15.65 -8.4 15.7 -8.4 15.75 -8.4 M15.0 -7.85 L15.05 -7.85 15.15 -7.7 15.15 -7.65 15.1 -7.6 15.05 -7.6 15.05 -7.65 15.0 -7.75 15.0 -7.75 Q14.95 -7.8 15.0 -7.85 M14.4 -7.5 L14.45 -7.5 14.6 -7.45 14.65 -7.5 14.7 -7.5 14.75 -7.5 14.7 -7.4 14.7 -7.35 14.65 -7.3 14.6 -7.25 14.5 -7.15 Q14.4 -7.1 14.4 -7.1 L14.35 -7.15 14.35 -7.25 Q14.35 -7.35 14.45 -7.4 L14.5 -7.4 14.5 -7.4 14.4 -7.5 M13.7 -7.0 L13.75 -7.1 13.8 -7.15 13.85 -7.1 13.8 -7.0 13.75 -6.9 13.7 -6.85 13.6 -6.75 Q13.55 -6.7 13.5 -6.75 L13.5 -6.9 Q13.5 -7.0 13.55 -7.0 L13.6 -7.0 13.7 -7.0 M14.1 -7.45 L14.15 -7.45 14.25 -7.3 14.25 -7.25 14.2 -7.25 14.15 -7.25 14.15 -7.25 14.1 -7.35 14.1 -7.45 M14.05 -6.85 L14.05 -6.9 14.1 -6.95 14.1 -6.95 14.15 -6.95 14.1 -6.85 14.1 -6.85 14.05 -6.85 M13.9 -6.45 L13.9 -6.4 13.95 -6.35 13.95 -6.25 13.9 -6.25 13.8 -6.25 13.8 -6.3 13.85 -6.45 13.9 -6.45 13.9 -6.45 M14.0 -6.35 L14.0 -6.35 14.05 -6.4 14.1 -6.35 14.1 -6.3 14.05 -6.3 14.0 -6.35 M16.1 -7.25 L16.1 -7.2 16.15 -7.15 16.15 -7.15 16.3 -7.15 16.4 -7.05 16.35 -7.05 16.25 -7.0 16.2 -7.05 16.2 -7.0 16.15 -6.95 16.15 -6.95 16.0 -7.0 Q15.9 -7.05 15.9 -7.1 L15.95 -7.15 16.0 -7.2 15.95 -7.3 15.95 -7.35 16.0 -7.35 16.1 -7.25 M15.35 -6.6 L15.35 -6.55 15.3 -6.55 15.3 -6.55 15.25 -6.6 15.25 -6.65 15.35 -6.6 15.35 -6.6 M15.25 -6.5 L15.25 -6.4 15.25 -6.4 15.3 -6.3 15.3 -6.2 15.25 -6.2 Q15.2 -6.2 15.15 -6.25 L15.15 -6.4 15.15 -6.45 Q15.05 -6.55 15.1 -6.55 L15.1 -6.6 15.15 -6.6 15.2 -6.55 15.25 -6.5 M15.65 -6.25 L15.7 -6.2 15.7 -6.15 15.65 -6.15 15.55 -6.2 15.55 -6.2 15.5 -6.25 15.5 -6.3 Q15.45 -6.35 15.45 -6.35 L15.6 -6.35 15.65 -6.3 15.65 -6.25 M16.2 -6.6 L16.15 -6.6 16.05 -6.6 16.05 -6.7 16.05 -6.8 16.1 -6.8 16.1 -6.8 16.2 -6.7 16.2 -6.6 M15.0 -7.35 L14.95 -7.25 14.95 -7.25 14.95 -7.3 15.0 -7.35 15.0 -7.35 M14.9 -7.0 L14.9 -7.0 14.85 -7.05 14.85 -7.05 14.8 -7.1 14.8 -7.1 14.85 -7.1 14.9 -7.0 14.9 -7.0 M14.8 -6.8 L14.8 -6.7 14.8 -6.65 14.75 -6.6 14.65 -6.6 14.7 -6.7 14.75 -6.8 14.75 -6.8 14.8 -6.8 M14.35 -6.85 L14.4 -6.9 14.45 -6.9 14.45 -7.1 14.5 -7.1 14.55 -7.0 14.6 -6.9 14.6 -6.7 14.55 -6.65 14.5 -6.65 14.4 -6.75 Q14.35 -6.8 14.35 -6.85 M14.95 -6.7 L14.9 -6.7 14.9 -6.75 14.9 -6.8 14.95 -6.75 14.95 -6.7 M16.1 -5.9 L16.1 -6.05 16.2 -5.9 16.3 -5.85 16.3 -5.85 16.2 -5.8 16.15 -5.75 16.1 -5.85 16.1 -5.9 M15.45 -6.1 L15.45 -6.1 15.55 -6.1 15.55 -6.05 15.55 -5.95 15.6 -5.95 15.5 -5.9 15.5 -5.95 15.45 -6.0 15.45 -6.1 M16.35 -10.15 L16.4 -10.1 16.45 -10.05 16.5 -10.0 16.45 -9.95 16.4 -9.95 16.3 -10.0 16.3 -9.95 16.25 -9.95 16.25 -10.0 16.25 -10.0 16.3 -10.05 16.3 -10.05 Q16.3 -10.1 16.35 -10.15 L16.4 -10.2 16.35 -10.15 M17.1 -9.9 L17.25 -10.05 17.3 -10.1 17.35 -10.1 17.4 -10.05 17.45 -10.0 17.4 -9.95 17.4 -9.95 17.45 -9.95 17.45 -9.9 17.4 -9.9 17.3 -9.9 17.25 -9.9 17.3 -9.95 17.25 -9.9 17.2 -9.9 17.1 -9.9 M17.75 -9.95 L17.8 -9.95 17.85 -9.95 17.9 -9.9 17.85 -9.85 17.8 -9.85 17.75 -9.85 17.7 -9.85 17.7 -9.9 17.75 -9.95 M18.25 -9.85 L18.25 -9.85 18.3 -9.85 18.25 -9.85 18.25 -9.8 18.2 -9.8 18.15 -9.8 18.1 -9.8 18.1 -9.8 18.2 -9.85 18.25 -9.85 18.25 -9.85 M18.55 -9.1 L18.4 -9.05 18.35 -9.1 18.35 -9.1 18.4 -9.1 18.45 -9.15 18.5 -9.15 18.5 -9.1 18.55 -9.1 M18.4 -8.25 L18.4 -8.2 18.35 -8.2 18.3 -8.2 Q18.25 -8.2 18.25 -8.25 L18.25 -8.25 18.35 -8.25 18.35 -8.25 18.4 -8.25 18.4 -8.25 M18.6 -7.95 L18.55 -8.0 18.5 -8.05 18.7 -8.05 18.8 -8.05 18.8 -7.95 18.8 -7.9 18.7 -7.9 Q18.65 -7.9 18.6 -7.95 M18.3 -7.6 L18.25 -7.65 18.15 -7.65 Q18.05 -7.65 18.0 -7.7 L18.1 -7.75 18.25 -7.7 18.25 -7.65 18.3 -7.65 18.3 -7.6 M18.3 -7.95 L18.3 -7.9 18.25 -7.85 18.2 -7.85 Q18.1 -7.9 18.05 -7.95 L18.05 -8.0 18.2 -7.95 18.25 -7.95 18.3 -7.95 M18.65 -7.7 L18.65 -7.7 18.7 -7.7 18.75 -7.7 18.8 -7.7 18.8 -7.65 18.8 -7.65 18.75 -7.65 18.7 -7.65 18.65 -7.7 18.65 -7.7 M18.3 -8.7 L18.25 -8.65 18.2 -8.65 18.1 -8.7 18.0 -8.7 18.0 -8.7 Q17.9 -8.7 17.9 -8.75 L18.0 -8.8 18.1 -8.75 18.2 -8.75 18.3 -8.7 M17.8 -9.35 L17.8 -9.35 17.9 -9.4 17.9 -9.4 17.95 -9.4 17.95 -9.4 17.9 -9.4 17.8 -9.35 17.8 -9.35 M17.8 -9.3 L17.9 -9.3 17.9 -9.35 17.95 -9.3 17.95 -9.3 18.05 -9.25 18.05 -9.25 18.0 -9.2 17.95 -9.25 17.95 -9.25 Q17.9 -9.2 17.9 -9.2 L17.85 -9.25 17.75 -9.25 17.8 -9.3 17.8 -9.3 M17.25 -9.35 L17.2 -9.35 Q17.2 -9.4 17.2 -9.4 L17.3 -9.4 17.3 -9.4 17.35 -9.4 17.35 -9.4 17.35 -9.35 17.3 -9.35 17.3 -9.3 17.25 -9.35 M17.25 -9.55 L17.3 -9.55 17.3 -9.55 17.35 -9.5 17.3 -9.5 17.2 -9.45 17.1 -9.45 17.1 -9.5 17.25 -9.55 M17.55 -9.8 L17.5 -9.75 17.45 -9.7 17.35 -9.65 17.3 -9.65 17.3 -9.65 17.4 -9.75 17.4 -9.75 17.45 -9.75 17.5 -9.8 17.55 -9.8 M17.55 -9.7 L17.6 -9.7 17.65 -9.75 17.65 -9.7 17.7 -9.7 17.7 -9.65 17.5 -9.6 17.45 -9.6 17.55 -9.7 M17.5 -9.05 L17.45 -9.05 17.4 -9.05 17.4 -9.1 17.45 -9.1 17.5 -9.1 17.5 -9.1 17.55 -9.1 17.55 -9.1 17.55 -9.1 17.5 -9.05 M17.75 -9.1 L17.7 -9.1 17.8 -9.15 17.85 -9.15 17.9 -9.1 17.9 -9.1 17.85 -9.1 17.8 -9.1 17.75 -9.1 M17.85 -8.95 L17.85 -8.95 17.95 -8.95 18.0 -8.95 18.0 -8.95 17.95 -8.9 17.95 -8.85 17.9 -8.8 17.8 -8.8 17.75 -8.8 Q17.7 -8.85 17.8 -8.9 L17.85 -8.95 M16.9 -9.45 L16.85 -9.45 16.75 -9.4 Q16.7 -9.45 16.75 -9.5 L16.85 -9.55 16.85 -9.55 16.95 -9.65 17.0 -9.6 17.0 -9.55 17.0 -9.5 16.95 -9.45 16.9 -9.45 M16.9 -9.05 L16.9 -9.1 16.95 -9.05 16.95 -9.0 16.9 -9.0 16.7 -9.0 16.7 -9.0 Q16.7 -9.05 16.8 -9.05 L16.9 -9.05 M16.5 -9.0 L16.5 -9.0 16.45 -8.95 16.45 -8.95 16.4 -8.95 16.35 -8.95 16.35 -9.0 Q16.3 -9.0 16.35 -9.05 L16.4 -9.0 16.4 -9.0 16.5 -9.0 M16.55 -9.3 L16.55 -9.3 16.5 -9.3 16.45 -9.25 16.4 -9.25 16.45 -9.3 16.5 -9.35 16.55 -9.4 16.55 -9.4 16.6 -9.4 16.65 -9.4 16.65 -9.35 16.6 -9.3 16.55 -9.3 M16.75 -9.35 L16.75 -9.35 16.8 -9.3 16.8 -9.3 16.85 -9.3 16.95 -9.3 17.0 -9.3 16.95 -9.25 17.0 -9.2 17.0 -9.2 16.9 -9.2 16.85 -9.2 16.85 -9.2 16.75 -9.2 16.75 -9.2 16.7 -9.2 16.7 -9.25 16.75 -9.25 16.75 -9.25 16.7 -9.3 16.65 -9.3 16.6 -9.3 16.6 -9.3 16.7 -9.35 16.7 -9.35 16.75 -9.35 M16.9 -8.7 L16.95 -8.7 17.0 -8.75 17.05 -8.75 17.1 -8.7 17.05 -8.7 17.0 -8.7 16.95 -8.7 16.9 -8.7 M16.85 -8.9 L16.9 -8.95 16.95 -8.9 17.0 -8.9 17.0 -8.95 17.05 -8.95 17.1 -8.95 17.15 -8.9 17.15 -8.85 17.1 -8.85 17.1 -8.85 17.05 -8.85 17.0 -8.85 16.95 -8.85 16.85 -8.9 M16.8 -8.1 L16.95 -8.1 17.05 -8.05 17.05 -8.05 17.1 -8.0 17.15 -8.0 17.2 -7.95 17.15 -7.95 17.1 -7.95 17.0 -8.0 16.95 -8.0 16.9 -8.05 Q16.8 -8.05 16.8 -8.1 M16.3 -7.45 L16.4 -7.35 16.4 -7.3 16.35 -7.35 16.3 -7.4 16.25 -7.4 16.3 -7.45 16.3 -7.45 M16.75 -7.85 L16.75 -7.85 16.8 -7.85 16.8 -7.85 16.9 -7.85 16.9 -7.8 16.8 -7.85 16.75 -7.85 M17.2 -7.55 L17.15 -7.6 17.3 -7.6 17.4 -7.55 17.4 -7.55 17.4 -7.55 17.35 -7.45 17.35 -7.5 Q17.25 -7.5 17.2 -7.55 M18.05 -8.5 L17.95 -8.5 17.95 -8.5 17.9 -8.5 17.95 -8.55 17.95 -8.55 18.05 -8.5 18.05 -8.5 18.05 -8.5 M17.5 -8.35 L17.55 -8.35 17.55 -8.3 17.4 -8.3 17.4 -8.3 17.35 -8.35 17.35 -8.35 17.4 -8.35 17.45 -8.35 17.5 -8.35 17.5 -8.35 M17.5 -7.85 L17.5 -7.8 17.5 -7.8 17.45 -7.8 17.35 -7.85 17.35 -7.9 17.45 -7.85 17.5 -7.85 17.5 -7.85 M17.65 -7.65 L17.55 -7.7 17.55 -7.7 17.55 -7.75 17.7 -7.75 17.8 -7.65 17.8 -7.65 Q17.75 -7.6 17.7 -7.6 L17.65 -7.65 M17.65 -7.55 L17.75 -7.5 17.8 -7.45 17.8 -7.45 17.75 -7.45 17.75 -7.45 17.7 -7.45 17.65 -7.5 17.65 -7.55 M18.1 -7.85 L18.1 -7.85 18.0 -7.8 18.0 -7.8 17.95 -7.8 17.85 -7.8 17.75 -7.85 Q17.75 -7.9 17.85 -7.9 L17.95 -7.9 17.95 -7.9 18.1 -7.9 18.1 -7.85 M18.1 -7.6 L18.1 -7.6 18.05 -7.6 18.0 -7.65 18.0 -7.65 18.1 -7.65 18.1 -7.6 M18.1 -7.15 L18.15 -7.1 18.15 -7.1 18.15 -7.0 18.15 -7.05 Q18.05 -7.05 18.0 -7.1 L18.0 -7.15 18.05 -7.15 18.1 -7.15 18.1 -7.15 M17.9 -7.3 L17.9 -7.3 17.95 -7.3 17.95 -7.25 17.9 -7.25 17.85 -7.25 17.8 -7.3 17.8 -7.3 17.75 -7.3 17.75 -7.3 17.8 -7.35 17.85 -7.35 17.85 -7.3 17.9 -7.3 M17.2 -7.2 L17.15 -7.2 17.1 -7.25 17.1 -7.25 17.2 -7.25 17.2 -7.3 17.35 -7.25 17.45 -7.25 17.45 -7.2 17.5 -7.2 17.55 -7.05 17.55 -7.0 17.55 -6.95 17.5 -6.95 17.5 -6.95 17.45 -7.05 17.4 -7.1 17.4 -7.1 17.35 -7.1 17.25 -7.2 17.25 -7.2 17.2 -7.2 M17.2 -6.95 L17.2 -6.95 17.15 -7.0 17.15 -7.05 17.2 -7.05 17.2 -7.0 17.2 -6.95 M17.25 -6.7 L17.3 -6.7 17.3 -6.7 17.25 -6.65 17.15 -6.7 17.1 -6.75 17.15 -6.75 17.15 -6.75 17.2 -6.75 17.2 -6.75 17.25 -6.75 17.25 -6.7 M16.85 -7.1 L16.9 -7.1 16.9 -7.05 16.95 -7.05 16.95 -7.05 17.0 -7.0 17.0 -7.0 Q16.95 -7.0 16.95 -7.0 L16.9 -7.0 16.85 -7.05 16.8 -7.1 16.8 -7.15 16.85 -7.1 M16.7 -7.2 L16.7 -7.2 16.6 -7.15 16.6 -7.15 16.55 -7.2 16.5 -7.2 Q16.4 -7.25 16.4 -7.25 16.4 -7.3 16.5 -7.3 L16.6 -7.25 16.6 -7.25 16.7 -7.25 16.75 -7.25 16.7 -7.2 M16.6 -6.8 L16.65 -6.7 16.65 -6.7 16.65 -6.6 16.7 -6.55 16.65 -6.55 16.6 -6.6 16.55 -6.55 16.55 -6.55 Q16.45 -6.55 16.45 -6.6 L16.45 -6.6 16.4 -6.6 16.35 -6.65 16.35 -6.75 16.45 -6.75 16.5 -6.65 16.55 -6.65 16.6 -6.6 16.55 -6.65 16.5 -6.7 16.5 -6.75 Q16.45 -6.8 16.5 -6.85 L16.6 -6.8 M16.8 -7.0 L16.8 -7.0 16.85 -6.95 16.85 -6.95 16.9 -6.9 16.95 -6.9 16.95 -6.9 16.9 -6.85 16.9 -6.8 16.8 -6.85 16.75 -6.9 16.8 -6.9 16.8 -6.9 16.75 -6.95 16.7 -7.0 16.6 -7.05 16.6 -7.05 16.7 -7.05 16.7 -7.05 16.8 -7.0 M16.3 -6.65 L16.35 -6.65 16.35 -6.6 16.35 -6.6 16.3 -6.6 16.25 -6.65 16.25 -6.65 16.3 -6.65 M16.4 -6.45 L16.4 -6.45 16.45 -6.35 16.45 -6.35 16.5 -6.3 16.4 -6.3 16.4 -6.35 16.35 -6.4 16.35 -6.5 16.4 -6.45 M17.0 -6.4 L17.1 -6.3 17.15 -6.25 17.15 -6.25 17.1 -6.15 17.05 -6.15 17.0 -6.2 Q16.95 -6.25 16.95 -6.3 L16.95 -6.35 17.0 -6.4" fill="#421818" fill-rule="evenodd" stroke="none"/>
    <path d="M15.9 -8.85 L15.85 -8.85 15.75 -8.9 15.65 -8.9 15.6 -8.95 Q15.6 -8.95 15.65 -8.95 L15.8 -9.0 16.2 -8.9 16.3 -8.9 16.35 -8.85 Q16.35 -8.8 16.45 -8.8 L16.55 -8.8 16.75 -8.7 16.8 -8.65 16.8 -8.6 16.85 -8.55 16.9 -8.55 16.9 -8.5 16.9 -8.5 16.85 -8.5 16.8 -8.45 16.8 -8.45 16.85 -8.45 16.9 -8.45 16.95 -8.4 16.9 -8.35 16.95 -8.35 17.0 -8.35 17.0 -8.4 17.0 -8.45 17.05 -8.45 17.05 -8.5 17.1 -8.5 17.15 -8.45 17.15 -8.35 17.2 -8.25 17.2 -8.25 17.15 -8.1 17.15 -8.1 17.05 -8.1 16.95 -8.2 16.95 -8.2 17.05 -8.2 17.15 -8.2 17.15 -8.25 17.1 -8.3 17.0 -8.3 17.0 -8.3 16.9 -8.3 16.85 -8.3 16.8 -8.35 16.7 -8.45 16.5 -8.45 16.35 -8.45 16.25 -8.35 16.25 -8.35 16.1 -8.35 16.1 -8.35 16.2 -8.3 16.2 -8.3 16.15 -8.25 16.1 -8.15 16.1 -8.1 16.0 -8.15 15.95 -8.1 16.0 -8.05 16.15 -8.0 16.15 -7.95 16.15 -7.9 Q16.1 -7.85 16.0 -7.8 L15.8 -7.75 15.75 -7.75 15.7 -7.7 15.65 -7.7 15.65 -7.75 15.75 -7.9 15.85 -7.95 15.85 -7.95 15.95 -8.05 15.9 -8.1 15.85 -8.1 15.85 -8.05 15.8 -8.05 15.8 -8.0 15.75 -8.05 15.6 -8.1 15.5 -8.1 15.45 -8.05 15.35 -8.0 15.35 -7.95 15.3 -7.9 Q15.25 -7.9 15.25 -7.95 L15.25 -8.05 15.2 -8.1 15.2 -8.15 15.25 -8.2 15.25 -8.2 15.5 -8.2 15.8 -8.15 Q15.85 -8.15 15.9 -8.2 L15.95 -8.35 16.05 -8.5 16.15 -8.6 16.2 -8.65 16.15 -8.8 16.15 -8.8 16.1 -8.85 16.05 -8.85 15.85 -8.95 15.8 -8.95 15.8 -8.95 15.85 -8.9 15.9 -8.85 M14.2 -8.85 Q14.3 -8.85 14.3 -8.8 L14.35 -8.75 14.55 -8.65 14.6 -8.6 14.65 -8.55 14.75 -8.55 14.85 -8.5 14.95 -8.4 14.95 -8.35 15.0 -8.25 15.0 -8.15 14.9 -8.15 Q14.85 -8.15 14.85 -8.25 L14.8 -8.35 14.75 -8.35 14.75 -8.35 Q14.7 -8.35 14.65 -8.35 L14.6 -8.45 14.5 -8.5 14.35 -8.5 14.1 -8.45 Q14.05 -8.45 14.0 -8.35 L14.0 -8.2 14.05 -8.1 14.0 -7.95 13.95 -7.85 13.85 -7.75 13.75 -7.7 13.6 -7.65 13.6 -7.65 13.55 -7.65 13.45 -7.65 13.4 -7.7 13.4 -7.75 Q13.5 -7.85 13.5 -7.95 L13.45 -8.0 13.45 -8.0 13.3 -8.0 13.2 -7.95 Q13.1 -7.85 13.05 -7.85 L13.05 -7.85 13.05 -7.95 13.1 -7.95 13.05 -8.05 12.95 -8.1 12.95 -8.15 12.9 -8.2 12.9 -8.2 12.95 -8.25 13.0 -8.25 13.1 -8.25 13.15 -8.25 13.25 -8.25 13.4 -8.2 13.55 -8.2 13.6 -8.2 13.65 -8.25 13.65 -8.4 Q13.7 -8.45 13.8 -8.5 13.95 -8.55 13.95 -8.65 L13.85 -8.75 13.65 -8.8 13.4 -8.9 13.35 -8.9 13.3 -9.0 13.65 -9.05 13.8 -9.05 13.9 -9.0 13.95 -8.95 13.95 -8.9 14.05 -8.85 14.2 -8.85 M13.4 -7.6 L13.4 -7.6 Q13.35 -7.6 13.35 -7.65 L13.35 -7.65 13.35 -7.65 13.4 -7.6 M12.7 -8.35 L12.75 -8.35 12.75 -8.3 12.6 -8.3 12.55 -8.3 12.5 -8.3 12.7 -8.35" fill="#2a2a27" fill-rule="evenodd" stroke="none"/>
  </g>
</svg>
