<?xml version="1.0" encoding="UTF-8" standalone="no"?>
<svg xmlns:xlink="http://www.w3.org/1999/xlink" height="3.15px" width="4.45px" xmlns="http://www.w3.org/2000/svg">
  <g transform="matrix(1.0, 0.0, 0.0, 1.0, -11.65, 11.4)">
    <path d="M15.45 -9.95 L15.5 -9.9 15.5 -9.9 15.5 -9.8 15.4 -9.8 15.4 -9.85 15.4 -9.95 15.45 -9.95 M15.05 -9.9 L15.0 -9.95 15.0 -9.95 15.05 -9.95 15.1 -9.95 15.1 -9.95 15.05 -9.9 M14.4 -10.85 L14.4 -10.8 14.35 -10.8 14.35 -10.8 14.4 -10.9 14.4 -10.85 M16.0 -11.3 L15.95 -11.3 15.9 -11.3 15.9 -11.35 15.95 -11.4 15.95 -11.4 16.0 -11.4 16.0 -11.3 M15.35 -11.15 L15.35 -11.2 15.4 -11.2 15.4 -11.15 15.4 -11.1 Q15.4 -11.05 15.35 -11.05 L15.3 -11.05 15.3 -11.1 15.3 -11.1 15.35 -11.15 M14.1 -11.35 L14.15 -11.3 14.1 -11.3 14.05 -11.3 14.05 -11.35 14.1 -11.4 14.1 -11.35 M15.4 -8.95 L15.35 -9.0 15.3 -9.1 15.35 -9.1 15.4 -9.1 15.45 -9.0 15.4 -8.95 M15.85 -8.5 L15.9 -8.5 15.85 -8.4 Q15.8 -8.4 15.8 -8.4 15.75 -8.35 15.75 -8.35 L15.7 -8.4 15.7 -8.4 15.75 -8.45 15.8 -8.5 15.85 -8.5" fill="#421818" fill-rule="evenodd" stroke="none"/>
    <path d="M15.9 -9.4 L15.85 -9.4 16.0 -9.4 Q16.1 -9.35 16.1 -9.25 16.1 -9.15 16.05 -9.1 16.0 -9.05 15.85 -9.05 15.85 -9.05 15.8 -9.1 15.75 -9.1 15.75 -9.15 L15.75 -9.15 Q15.75 -9.15 15.8 -9.15 L15.85 -9.2 15.9 -9.2 15.95 -9.25 16.0 -9.3 15.9 -9.4 M14.9 -8.65 L14.9 -8.6 Q14.9 -8.5 14.75 -8.4 L14.5 -8.35 Q14.4 -8.35 14.35 -8.4 14.25 -8.45 14.25 -8.55 L14.25 -8.65 14.3 -8.65 14.35 -8.6 14.4 -8.55 Q14.55 -8.45 14.55 -8.45 L14.65 -8.5 14.55 -8.55 14.5 -8.6 14.5 -8.65 14.55 -8.65 14.75 -8.55 Q14.9 -8.55 14.9 -8.65 M14.55 -9.6 L14.4 -9.55 Q14.3 -9.55 14.3 -9.5 L14.25 -9.45 14.25 -9.45 Q14.15 -9.5 14.15 -9.55 L14.15 -9.6 14.25 -9.65 14.4 -9.65 14.5 -9.7 14.65 -9.65 14.7 -9.6 Q14.7 -9.6 14.55 -9.6 M14.9 -9.55 L14.9 -9.6 15.0 -9.65 15.1 -9.55 15.15 -9.4 Q15.15 -9.35 15.05 -9.35 L14.9 -9.25 14.75 -9.1 14.6 -8.95 14.55 -9.0 14.5 -9.1 Q14.5 -9.2 14.6 -9.25 L14.7 -9.3 14.85 -9.4 Q15.0 -9.4 15.0 -9.45 L14.95 -9.5 14.9 -9.55 M12.25 -9.65 L12.2 -9.6 12.1 -9.6 12.0 -9.55 11.95 -9.65 11.95 -9.65 12.0 -9.7 12.15 -9.7 12.25 -9.7 12.3 -9.65 12.25 -9.65 M12.85 -9.5 Q12.85 -9.4 12.75 -9.3 L12.5 -9.25 12.4 -9.2 12.3 -9.15 12.3 -9.05 12.25 -9.05 Q12.2 -9.1 12.2 -9.15 12.2 -9.25 12.45 -9.3 12.65 -9.4 12.65 -9.45 L12.6 -9.5 Q12.55 -9.55 12.55 -9.6 L12.6 -9.65 12.65 -9.7 12.75 -9.65 12.8 -9.65 12.85 -9.5 M13.7 -9.3 L13.7 -9.35 13.8 -9.35 13.85 -9.2 Q13.85 -9.15 13.8 -9.1 L13.6 -9.05 Q13.5 -9.05 13.45 -9.1 L13.6 -9.2 Q13.7 -9.25 13.7 -9.3 M12.3 -8.75 L12.3 -8.75 12.4 -8.65 Q12.5 -8.6 12.55 -8.6 L12.6 -8.7 12.65 -8.75 12.65 -8.6 Q12.6 -8.55 12.55 -8.55 12.35 -8.45 12.3 -8.45 L12.2 -8.45 12.15 -8.5 12.05 -8.55 12.05 -8.65 12.15 -8.65 12.25 -8.6 12.3 -8.6 12.35 -8.65 12.3 -8.7 12.3 -8.75 M11.9 -8.5 L11.9 -8.5 11.95 -8.45 11.85 -8.35 Q11.8 -8.25 11.65 -8.25 11.65 -8.25 11.65 -8.3 L11.7 -8.35 11.8 -8.4 11.85 -8.45 11.9 -8.5 M14.1 -8.4 L14.1 -8.3 Q14.05 -8.25 14.0 -8.25 L13.95 -8.25 13.95 -8.3 14.0 -8.3 14.05 -8.35 14.1 -8.4" fill="#2a2a27" fill-rule="evenodd" stroke="none"/>
  </g>
</svg>
