<?xml version="1.0" encoding="UTF-8" standalone="no"?>
<svg xmlns:xlink="http://www.w3.org/1999/xlink" height="59.2px" width="65.1px" xmlns="http://www.w3.org/2000/svg">
  <g transform="matrix(1.0, 0.0, 0.0, 1.0, 32.55, 29.6)">
    <path d="M0.95 -28.4 Q0.7 -28.65 0.7 -29.15 L0.7 -29.5 0.8 -29.6 Q4.55 -29.3 10.05 -25.3 14.7 -21.9 19.7 -16.6 L19.7 -16.65 Q20.85 -16.25 21.85 -14.2 25.4 -10.15 27.95 -6.3 31.2 -1.35 31.2 0.85 L31.2 0.9 Q31.4 1.05 31.55 1.5 L32.0 0.3 Q32.4 0.55 32.5 1.0 L32.55 1.7 Q32.55 2.4 32.05 3.95 L32.15 4.65 Q32.45 7.4 32.55 10.75 32.55 13.45 31.65 15.15 30.6 17.25 27.65 19.15 L27.25 19.0 Q27.1 18.9 27.1 18.55 27.1 18.3 27.75 17.5 L29.25 15.75 Q31.45 13.0 31.45 10.75 31.45 9.7 31.1 6.6 29.8 9.95 27.3 15.35 25.3 19.55 23.4 23.35 21.9 26.2 21.3 27.2 20.7 28.9 20.4 29.6 L20.0 29.5 Q19.8 29.35 19.8 29.0 L20.25 27.6 19.0 27.6 18.6 27.45 Q18.45 27.3 18.45 26.95 18.45 26.6 18.65 26.5 18.75 26.45 19.0 26.45 L20.6 26.35 21.55 23.35 21.9 22.25 Q20.45 23.5 18.4 24.95 14.75 27.6 14.45 27.6 L13.95 27.55 13.9 27.45 13.7 27.35 Q13.65 27.3 13.65 26.95 13.65 26.4 18.4 22.95 21.3 20.8 22.75 19.6 23.55 16.9 23.75 15.85 23.85 15.35 24.1 14.6 L23.7 15.0 Q21.65 17.1 20.15 18.95 L19.75 18.8 Q19.6 18.65 19.6 18.3 19.6 18.15 19.65 17.95 L14.05 21.25 Q7.85 24.85 6.85 24.85 L6.3 24.8 6.15 24.75 6.0 24.65 Q5.95 24.6 5.95 24.2 5.95 23.75 12.9 20.0 L16.15 18.25 18.75 15.2 20.3 13.3 Q20.25 13.2 20.25 13.05 20.25 13.0 21.4 10.9 19.95 12.35 18.25 13.55 16.7 15.15 14.4 16.85 7.8 21.6 -0.1 23.7 L-0.5 23.6 Q-0.7 23.45 -0.7 23.1 -0.7 22.7 6.05 19.6 13.35 16.2 14.05 15.75 L14.3 15.6 Q12.15 16.35 10.15 16.2 L8.85 16.2 Q7.2 17.25 5.15 18.4 1.75 20.35 -1.15 21.65 -4.25 23.05 -5.2 23.05 L-5.65 23.0 -5.7 22.9 -5.85 22.8 -5.9 22.4 Q-5.9 21.35 -0.6 19.3 1.5 18.45 3.9 17.6 L3.9 17.4 Q3.9 17.1 5.0 16.2 L4.25 16.2 3.8 16.05 Q3.65 15.95 3.65 15.55 3.65 15.2 3.85 15.15 L4.25 15.1 6.5 15.05 Q8.7 13.45 12.7 10.85 L6.65 12.1 Q4.75 12.95 3.05 13.65 -2.05 15.75 -4.0 15.75 -4.35 15.75 -4.4 15.65 -4.4 15.55 -4.5 15.45 L-4.5 15.5 -4.55 15.15 0.05 13.25 Q-7.1 14.45 -10.35 15.1 L-10.75 14.95 Q-10.9 14.8 -10.9 14.45 -10.9 13.7 -3.95 12.7 0.05 12.15 3.6 11.8 11.15 8.75 12.55 8.0 13.85 7.35 16.8 5.95 19.6 4.65 20.9 3.95 L21.6 3.55 20.4 3.55 20.2 3.6 Q18.0 4.55 14.6 5.3 12.6 6.35 6.0 7.6 5.5 8.0 3.15 8.7 0.45 9.5 -0.55 9.6 L-11.05 9.65 -14.3 9.85 -17.2 10.05 -19.0 10.05 -19.4 9.9 Q-19.55 9.8 -19.55 9.45 -19.55 9.1 -19.35 9.0 -19.25 8.95 -19.0 8.9 L-10.1 8.45 Q-8.6 8.15 -5.75 7.85 -5.9 7.7 -5.9 7.35 -5.9 6.9 -2.2 6.2 L-9.45 6.2 -9.85 6.05 Q-10.0 5.95 -10.0 5.55 -10.0 5.2 -9.8 5.1 L-9.45 5.05 1.35 5.0 2.45 4.8 2.2 4.75 1.9 4.5 1.8 4.2 Q2.8 3.0 5.95 2.35 7.7 2.0 10.6 1.6 L14.7 0.45 18.55 -0.6 23.0 -0.6 23.35 -1.3 23.7 -1.05 Q23.85 -0.9 23.9 -0.6 L24.45 -0.6 24.85 -0.5 Q25.05 -0.45 25.05 -0.05 25.05 0.3 24.85 0.45 L24.45 0.55 23.7 0.55 Q23.35 1.5 22.25 2.35 L23.4 2.35 Q25.2 0.95 25.15 -0.25 L25.65 -0.35 Q25.35 -0.8 24.85 -1.65 L24.75 -1.45 Q24.6 -1.3 24.35 -1.3 23.8 -1.3 21.65 -1.85 21.65 -1.4 21.35 -1.15 21.0 -0.9 20.15 -0.85 L1.25 -0.85 -6.45 -1.6 Q-7.8 -1.3 -10.15 -0.85 L-2.85 -0.9 -1.7 -0.95 -1.65 -0.9 Q-1.6 -0.85 -1.6 -0.55 -1.6 -0.15 -1.95 0.05 -2.15 0.15 -3.05 0.3 L-19.0 0.3 -19.4 0.15 Q-19.55 0.05 -19.55 -0.35 -19.55 -0.7 -19.35 -0.8 L-19.0 -0.85 -20.4 -0.85 -20.85 -1.25 Q-21.15 -1.5 -21.15 -1.65 L-21.15 -1.95 Q-21.1 -1.95 -21.05 -2.1 L-20.75 -2.1 -20.3 -2.1 -15.05 -2.45 -32.55 -4.2 Q-31.75 -6.1 -28.3 -5.5 -27.3 -5.35 -25.75 -4.9 L-24.05 -4.4 Q-22.55 -4.1 -17.7 -3.65 L-7.2 -2.7 -6.55 -2.9 Q-4.45 -3.55 -3.3 -4.05 L-2.9 -3.95 Q-2.7 -3.85 -2.7 -3.5 -2.7 -2.95 -3.85 -2.4 L0.7 -2.0 10.6 -2.1 13.9 -2.15 11.5 -2.95 Q5.2 -5.0 0.75 -6.0 -10.85 -8.7 -20.95 -9.8 -24.35 -10.2 -25.05 -10.35 -26.15 -10.65 -26.15 -11.35 L-26.15 -11.7 -26.05 -11.9 -8.95 -9.05 Q-1.4 -9.2 10.3 -6.25 14.35 -5.2 19.4 -3.65 L20.45 -3.35 Q20.15 -3.9 19.7 -4.4 L17.7 -5.55 Q12.1 -8.6 10.15 -9.45 7.0 -10.75 3.05 -11.85 -1.7 -13.15 -4.05 -14.0 -2.35 -14.45 1.65 -13.45 4.45 -12.75 7.75 -11.55 L5.85 -12.35 Q4.05 -13.1 -6.1 -17.15 -13.45 -20.1 -17.3 -21.95 -15.15 -22.35 -7.65 -19.25 L-1.15 -16.5 Q2.8 -14.85 5.15 -14.05 7.35 -13.45 9.9 -12.3 L8.95 -12.85 Q8.3 -13.2 -2.35 -18.0 -12.75 -22.7 -12.75 -22.7 L-12.7 -23.1 -12.65 -23.25 Q-9.1 -23.05 -2.05 -19.9 4.1 -17.15 11.45 -12.85 17.6 -9.25 22.1 -6.05 L21.45 -6.75 16.95 -10.05 Q13.2 -12.75 13.2 -13.25 L13.2 -13.55 13.3 -13.7 Q17.25 -11.55 21.25 -8.2 24.85 -5.2 25.95 -3.1 L27.15 -2.0 Q26.0 -3.4 24.15 -6.85 24.0 -6.75 23.8 -6.75 22.95 -6.75 18.8 -10.95 13.75 -16.1 13.25 -16.5 10.0 -19.1 6.25 -21.45 1.8 -24.2 -1.35 -25.3 1.0 -26.1 6.05 -22.9 7.6 -21.95 10.15 -20.1 12.85 -18.15 13.65 -17.65 15.3 -16.15 19.05 -12.4 21.75 -9.65 23.5 -8.05 L23.2 -8.6 Q22.0 -11.0 20.7 -13.8 L20.65 -13.9 Q12.05 -24.1 5.25 -26.95 4.3 -27.35 3.2 -27.65 L1.8 -28.0 Q1.2 -28.2 0.95 -28.4 M4.6 -6.45 Q16.1 -3.95 17.4 -2.2 L19.95 -2.35 Q18.6 -2.7 16.85 -3.25 L9.65 -5.45 Q7.9 -6.0 4.6 -6.45 M20.25 -5.7 Q22.4 -4.4 23.45 -3.35 23.45 -3.05 23.4 -2.95 23.25 -2.65 22.9 -2.65 L21.15 -3.6 21.15 -3.45 21.1 -3.15 24.6 -2.1 23.95 -3.25 23.75 -3.65 19.5 -6.4 20.25 -5.7 M26.35 -0.4 L26.2 -0.3 Q26.5 -0.05 26.6 0.35 L26.65 1.0 Q26.65 1.45 26.35 2.35 L26.45 2.3 Q27.15 0.7 27.55 0.4 28.0 -0.05 28.0 1.45 L27.95 2.15 28.35 2.0 28.4 2.05 Q28.45 2.1 28.45 2.45 L27.75 3.35 27.55 3.95 27.55 4.8 Q27.55 5.85 26.45 10.1 L27.0 9.45 Q27.25 9.0 27.65 7.35 L28.25 4.55 Q28.6 3.25 28.75 3.4 28.95 3.6 28.95 6.15 28.95 7.05 28.8 7.85 L29.45 7.15 29.6 6.7 30.75 3.7 Q30.5 2.3 30.3 1.85 L30.35 1.5 30.45 1.3 28.85 -1.3 28.8 -1.2 Q28.7 -1.05 28.35 -1.05 28.05 -1.05 27.5 -1.6 28.0 -1.0 28.0 -0.65 28.0 0.1 27.2 0.1 L26.7 0.0 26.65 -0.05 Q26.5 -0.25 26.55 -0.45 26.7 -0.85 26.7 -1.05 26.7 -1.25 26.4 -1.55 L26.4 -1.5 26.35 -0.4 M26.05 7.25 Q25.15 8.9 23.85 10.85 21.55 14.25 19.45 16.5 L21.0 15.7 21.2 15.55 Q21.95 14.65 23.05 13.55 L25.3 11.25 Q25.7 10.0 25.85 9.2 L26.05 7.25 M22.4 3.85 Q18.65 6.15 13.25 8.9 10.9 10.15 8.7 11.15 10.7 10.8 12.75 10.15 L14.65 9.55 Q20.35 5.85 24.3 3.5 L22.9 3.55 22.4 3.85 M19.5 2.3 Q21.05 1.5 22.05 0.55 L18.3 0.6 Q16.7 0.95 9.65 3.05 L5.2 4.3 10.05 3.5 Q13.2 3.05 18.9 2.6 L19.5 2.3 M20.0 8.9 L18.15 9.45 13.35 12.55 Q12.9 13.3 10.9 14.8 L10.6 15.0 10.65 15.0 Q13.5 15.15 17.0 12.95 L18.1 11.45 19.55 9.45 Q19.75 9.15 20.0 8.9 M23.65 6.25 L23.95 5.45 Q22.65 6.4 20.8 7.65 20.8 7.75 20.9 7.9 L20.95 8.1 20.9 8.2 20.95 8.55 Q20.95 9.25 20.65 10.1 L21.8 8.85 Q22.6 8.0 23.45 6.75 L23.5 6.7 23.65 6.25 M23.65 8.55 L24.05 7.8 23.95 7.9 23.65 8.55 M25.6 13.05 L24.4 17.3 24.1 18.3 Q24.85 17.2 26.35 12.55 L26.55 12.05 26.45 12.15 25.6 13.05 M27.3 12.15 L27.3 12.6 28.4 9.9 27.35 11.0 27.25 11.15 27.3 12.15 M22.45 23.75 Q23.3 22.05 24.2 20.05 L24.15 20.15 23.25 21.05 22.45 23.75 M-19.3 -16.0 L-14.15 -15.15 Q-5.8 -13.7 -5.0 -12.55 -5.0 -12.35 -5.1 -12.2 -5.2 -12.0 -5.55 -12.0 -7.95 -12.3 -10.95 -12.95 -17.0 -14.25 -20.5 -16.1 -21.6 -16.3 -19.3 -16.0 M-14.8 -6.25 L-14.65 -6.8 Q-14.55 -6.95 -14.35 -6.95 L-12.05 -6.35 -2.9 -5.9 Q-2.1 -5.7 -1.35 -5.15 -1.35 -4.9 -1.45 -4.75 -1.55 -4.5 -1.9 -4.5 L-4.95 -5.1 -11.95 -5.15 Q-14.2 -5.8 -14.8 -6.25" fill="#421818" fill-rule="evenodd" stroke="none"/>
  </g>
</svg>
