<?xml version="1.0" encoding="UTF-8" standalone="no"?>
<svg xmlns:xlink="http://www.w3.org/1999/xlink" height="4.4px" width="4.4px" xmlns="http://www.w3.org/2000/svg">
  <g transform="matrix(1.0, 0.0, 0.0, 1.0, 2.2, 2.2)">
    <path d="M-2.2 -1.45 L-2.2 -1.65 -2.05 -1.9 -2.0 -2.2 -1.85 -2.2 -1.95 -1.95 -2.05 -1.7 Q-2.15 -1.6 -2.1 -1.4 L-2.1 -1.25 -2.05 -1.05 -2.0 -0.9 Q-1.95 -0.75 -1.95 -0.7 L-2.0 -0.85 -2.05 -0.95 -2.1 -1.2 -2.2 -1.45 M-2.0 -0.7 L-1.95 -0.7 -1.95 -0.7 -2.0 -0.7" fill="#754a2b" fill-rule="evenodd" stroke="none"/>
    <path d="M-2.2 -1.65 L-2.2 -2.2 -2.0 -2.2 -2.05 -1.9 -2.2 -1.65" fill="#653c21" fill-rule="evenodd" stroke="none"/>
    <path d="M-1.75 -2.2 L-1.65 -2.2 -1.7 -2.05 -1.8 -1.9 -1.9 -1.75 -2.0 -1.6 Q-2.05 -1.4 -2.0 -1.15 L-1.85 -0.75 Q-1.85 -0.7 -1.9 -0.7 L-1.9 -0.75 -1.95 -0.9 -2.0 -1.1 -2.05 -1.25 -2.05 -1.4 Q-2.1 -1.55 -2.05 -1.7 L-1.9 -1.95 -1.75 -2.2" fill="#9c653a" fill-rule="evenodd" stroke="none"/>
    <path d="M-1.85 -2.2 L-1.75 -2.2 -1.9 -1.95 -2.05 -1.7 Q-2.1 -1.55 -2.05 -1.4 L-2.05 -1.25 -2.0 -1.1 -1.95 -0.9 -1.9 -0.75 -1.9 -0.7 -1.95 -0.7 Q-1.95 -0.75 -2.0 -0.9 L-2.05 -1.05 -2.1 -1.25 -2.1 -1.4 Q-2.15 -1.6 -2.05 -1.7 L-1.95 -1.95 -1.85 -2.2" fill="#885732" fill-rule="evenodd" stroke="none"/>
    <path d="M-2.2 -0.7 L-2.2 -0.7 -2.1 -0.7 Q-2.05 -0.7 -2.05 -0.75 L-2.1 -0.95 -2.2 -1.1 -2.2 -1.45 -2.1 -1.2 -2.05 -0.95 -2.0 -0.85 -1.95 -0.7 -2.0 -0.7 -2.2 -0.7" fill="#5d3f26" fill-rule="evenodd" stroke="none"/>
    <path d="M-2.2 -0.7 L-2.2 -1.1 -2.1 -0.95 -2.05 -0.75 Q-2.05 -0.7 -2.1 -0.7 L-2.2 -0.7" fill="#432d1a" fill-rule="evenodd" stroke="none"/>
    <path d="M-2.2 -0.6 L-2.2 -0.65 -2.1 -0.6 -2.05 -0.6 Q-2.0 -0.6 -2.0 -0.55 L-2.0 -0.5 -1.9 -0.5 -1.85 -0.45 -1.95 -0.5 -2.0 -0.5 -2.1 -0.6 -2.2 -0.6" fill="#c15640" fill-rule="evenodd" stroke="none"/>
    <path d="M-2.2 -0.65 L-2.2 -0.7 -2.0 -0.7 -1.95 -0.7 -1.85 -0.7 -1.8 -0.7 -1.9 -0.7 -2.0 -0.65 -2.1 -0.7 -2.1 -0.65 -2.05 -0.6 -1.8 -0.55 -1.7 -0.55 Q-1.6 -0.55 -1.6 -0.55 L-1.5 -0.6 -1.5 -0.55 -1.5 -0.55 -1.55 -0.55 -1.6 -0.55 -1.6 -0.45 Q-1.65 -0.4 -1.65 -0.4 L-1.65 -0.45 -1.7 -0.5 -1.95 -0.6 -2.05 -0.6 -2.1 -0.6 -2.2 -0.65" fill="#faa982" fill-rule="evenodd" stroke="none"/>
    <path d="M-2.0 -0.65 L-2.05 -0.65 -2.05 -0.6 -2.1 -0.65 -2.1 -0.7 -2.0 -0.65" fill="#ffd3bb" fill-rule="evenodd" stroke="none"/>
    <path d="M-2.05 -0.6 L-2.05 -0.65 -2.0 -0.65 -1.9 -0.7 -1.8 -0.7 -1.75 -0.7 -1.7 -0.7 -1.6 -0.7 -1.6 -0.75 -1.55 -0.75 -1.5 -0.85 -1.45 -0.85 -1.35 -0.85 -1.35 -0.8 -1.4 -0.8 -1.45 -0.75 -1.35 -0.75 -1.3 -0.7 -1.3 -0.65 -1.3 -0.6 -1.3 -0.55 -1.25 -0.5 Q-1.25 -0.45 -1.3 -0.4 L-1.25 -0.4 -1.25 -0.35 -1.25 -0.3 -1.3 -0.25 -1.3 -0.3 -1.35 -0.3 -1.35 -0.3 -1.3 -0.25 -1.4 -0.2 -1.45 -0.25 -1.45 -0.35 -1.4 -0.4 -1.45 -0.45 -1.5 -0.55 -1.5 -0.6 -1.6 -0.55 -1.7 -0.55 -1.8 -0.55 -2.05 -0.6 M-1.45 -0.45 L-1.45 -0.45" fill="#fefdf9" fill-rule="evenodd" stroke="none"/>
    <path d="M-2.2 -0.35 L-2.2 -0.35 -2.1 -0.35 -2.05 -0.35 -2.1 -0.4 -2.15 -0.45 -2.2 -0.5 -2.2 -0.55 -2.1 -0.5 -2.0 -0.5 -1.95 -0.45 Q-1.9 -0.45 -1.95 -0.4 -1.9 -0.35 -1.95 -0.3 L-2.05 -0.3 -2.2 -0.35" fill="#652b20" fill-rule="evenodd" stroke="none"/>
    <path d="M-2.2 -0.35 L-2.2 -0.5 -2.15 -0.45 -2.1 -0.4 -2.05 -0.35 -2.1 -0.35 -2.2 -0.35" fill="#451e15" fill-rule="evenodd" stroke="none"/>
    <path d="M-2.2 -0.55 L-2.2 -0.6 -2.1 -0.6 -2.0 -0.5 -2.1 -0.5 -2.2 -0.55" fill="#94402f" fill-rule="evenodd" stroke="none"/>
    <path d="M-2.2 -0.25 L-2.2 -0.35 -2.05 -0.3 -1.95 -0.3 Q-1.9 -0.35 -1.95 -0.4 -1.9 -0.45 -1.95 -0.45 L-2.0 -0.5 -1.95 -0.5 -1.85 -0.45 -1.8 -0.45 -1.7 -0.4 -1.7 -0.35 -1.75 -0.3 -1.9 -0.3 -2.0 -0.3 -2.1 -0.25 -2.2 -0.25 M-1.7 -0.4 L-1.7 -0.4" fill="#8f3e2d" fill-rule="evenodd" stroke="none"/>
    <path d="M-2.1 -0.15 L-2.05 -0.2 -2.0 -0.2 -2.0 -0.2 -1.8 -0.2 -1.65 -0.15 -1.8 -0.15 -2.0 -0.15 -2.05 -0.15 -2.05 -0.15 -2.1 -0.15 M-2.05 -0.15 L-2.05 -0.15" fill="#fec8a5" fill-rule="evenodd" stroke="none"/>
    <path d="M-2.2 -0.2 L-2.2 -0.25 -2.15 -0.2 -2.0 -0.2 -1.85 -0.2 -1.75 -0.2 -1.6 -0.2 -1.6 -0.1 Q-1.6 -0.05 -1.65 0.0 L-1.65 -0.1 -1.65 -0.15 -1.8 -0.2 -2.0 -0.2 -2.0 -0.2 -2.05 -0.2 -2.1 -0.15 -2.2 -0.2" fill="#fb9879" fill-rule="evenodd" stroke="none"/>
    <path d="M-2.2 -0.25 L-2.2 -0.25 -2.1 -0.25 -2.0 -0.3 -1.9 -0.3 -1.75 -0.3 -1.9 -0.25 -2.0 -0.25 Q-2.0 -0.2 -2.05 -0.2 L-2.15 -0.2 -2.2 -0.25" fill="#c2553e" fill-rule="evenodd" stroke="none"/>
    <path d="M-2.05 -0.6 L-1.95 -0.6 -1.85 -0.5 -1.7 -0.45 -1.7 -0.4 -1.8 -0.45 -1.85 -0.45 -1.9 -0.5 -2.0 -0.5 -2.0 -0.55 Q-2.0 -0.6 -2.05 -0.6 M-1.65 -0.35 L-1.6 -0.3 Q-1.6 -0.3 -1.6 -0.25 L-1.6 -0.2 -1.75 -0.2 -1.85 -0.2 -2.0 -0.2 -2.15 -0.2 -2.05 -0.2 Q-2.0 -0.2 -2.0 -0.25 L-1.9 -0.25 -1.75 -0.3 -1.7 -0.35 -1.7 -0.4 -1.7 -0.4 Q-1.7 -0.35 -1.65 -0.35" fill="#ea674b" fill-rule="evenodd" stroke="none"/>
    <path d="M-2.2 -0.2 L-2.2 -0.2 -2.1 -0.15 -2.05 -0.15 -2.2 -0.2" fill="#9f6e60" fill-rule="evenodd" stroke="none"/>
    <path d="M-2.2 -0.15 L-2.2 -0.2 -2.05 -0.15 -1.8 0.0 -1.75 0.0 -1.65 0.0 -1.6 -0.05 -1.55 -0.1 Q-1.5 -0.2 -1.45 -0.15 L-1.35 -0.15 -1.3 -0.15 -1.3 -0.1 -1.3 0.1 -1.3 0.1 -1.35 0.1 -1.4 0.15 -1.35 0.2 -1.25 0.2 Q-1.15 0.2 -1.2 0.1 L-1.15 0.0 -1.1 -0.1 -1.1 -0.2 -1.05 -0.2 -1.0 -0.1 Q-0.9 -0.1 -0.9 -0.15 L-0.9 -0.15 -0.9 0.0 -0.95 0.05 -0.95 0.1 -1.0 0.1 -1.0 0.1 -1.0 0.1 -1.05 0.0 -1.1 -0.05 -1.15 0.1 -1.2 0.2 -1.3 0.25 Q-1.35 0.25 -1.3 0.3 L-1.4 0.25 -1.45 0.15 -1.5 0.15 -1.55 0.2 -1.6 0.3 -1.65 0.45 -1.75 0.55 -1.85 0.65 -1.85 0.8 Q-1.85 0.9 -1.75 0.85 L-1.8 0.85 Q-1.85 0.9 -1.85 0.85 L-1.85 0.75 -1.9 0.7 -1.75 0.5 -1.6 0.3 -1.6 0.2 -1.55 0.1 -2.2 -0.15 M-1.1 -0.1 L-1.1 -0.1 M-0.9 -0.2 L-0.9 -0.25 -0.9 -0.15 -0.9 -0.2" fill="#3a2f17" fill-rule="evenodd" stroke="none"/>
    <path d="M-2.05 -0.15 L-2.05 -0.15 -1.9 -0.1 -1.8 0.0 -2.05 -0.15" fill="#b0806f" fill-rule="evenodd" stroke="none"/>
    <path d="M-2.05 -0.15 L-2.05 -0.15 -2.0 -0.15 -1.85 -0.15 -1.65 -0.15 -1.65 -0.1 -1.65 0.0 -1.7 0.0 -1.75 0.0 -1.8 0.0 -1.9 -0.1 -2.05 -0.15" fill="#fffbf4" fill-rule="evenodd" stroke="none"/>
    <path d="M-0.2 -2.2 L-0.1 -2.2 -0.35 -1.9 -0.45 -1.8 -0.6 -1.7 -0.6 -1.65 -0.65 -1.7 -0.55 -1.8 -0.4 -1.9 -0.3 -2.0 -0.2 -2.2" fill="#c5a659" fill-rule="evenodd" stroke="none"/>
    <path d="M-1.0 -2.2 L-0.85 -2.2 Q-0.9 -2.05 -0.85 -2.05 L-0.7 -2.0 -0.6 -2.0 Q-0.4 -2.05 -0.4 -2.2 L-0.35 -2.2 Q-0.4 -2.0 -0.6 -1.95 L-0.95 -1.95 -1.0 -1.95 -1.05 -1.95 Q-1.1 -2.0 -1.05 -2.05 L-1.0 -2.2" fill="#fcc96d" fill-rule="evenodd" stroke="none"/>
    <path d="M-0.35 -2.2 L-0.3 -2.2 -0.35 -2.0 -0.5 -1.9 -0.6 -1.85 -0.65 -1.8 Q-0.7 -1.75 -0.8 -1.8 L-0.9 -1.85 -1.0 -1.85 -0.95 -1.95 -0.6 -1.95 Q-0.4 -2.0 -0.35 -2.2" fill="#e9be67" fill-rule="evenodd" stroke="none"/>
    <path d="M-0.3 -2.2 L-0.2 -2.2 -0.3 -2.0 -0.4 -1.9 -0.55 -1.8 -0.65 -1.7 Q-0.7 -1.75 -0.75 -1.75 -0.85 -1.75 -0.9 -1.7 L-1.0 -1.65 Q-1.0 -1.6 -1.05 -1.6 L-1.05 -1.55 -1.15 -1.55 -1.15 -1.6 -1.1 -1.65 -1.1 -1.8 Q-1.05 -1.85 -1.0 -1.85 L-0.9 -1.85 -0.8 -1.8 Q-0.7 -1.75 -0.65 -1.8 L-0.6 -1.85 -0.5 -1.9 -0.35 -2.0 -0.3 -2.2" fill="#d8b063" fill-rule="evenodd" stroke="none"/>
    <path d="M0.05 -2.2 L0.35 -2.2 0.35 -2.15 0.4 -2.1 0.5 -2.0 0.6 -1.85 0.65 -1.75 0.75 -1.65 0.85 -1.35 0.95 -1.1 1.0 -0.6 0.95 -0.95 0.8 -1.35 0.65 -1.55 0.5 -1.7 0.3 -1.8 0.05 -1.75 -0.25 -1.5 -0.35 -1.35 -0.45 -1.2 -0.4 -1.3 -0.35 -1.4 Q-0.25 -1.55 -0.3 -1.65 L-0.45 -1.65 -0.6 -1.6 -0.6 -1.65 -0.4 -1.75 Q-0.25 -1.8 -0.2 -1.9 L-0.1 -2.05 0.05 -2.2" fill="#aa924a" fill-rule="evenodd" stroke="none"/>
    <path d="M-0.1 -2.2 L0.05 -2.2 -0.1 -2.05 -0.2 -1.9 Q-0.25 -1.8 -0.4 -1.75 L-0.6 -1.65 -0.6 -1.7 -0.45 -1.8 -0.35 -1.9 -0.1 -2.2 M-0.6 -1.65 L-0.6 -1.65" fill="#b59a52" fill-rule="evenodd" stroke="none"/>
    <path d="M-0.85 -2.2 L-0.4 -2.2 Q-0.4 -2.05 -0.6 -2.0 L-0.7 -2.0 -0.85 -2.05 Q-0.9 -2.05 -0.85 -2.2" fill="#ffde77" fill-rule="evenodd" stroke="none"/>
    <path d="M-1.1 -2.2 L-1.0 -2.2 -1.05 -2.05 Q-1.1 -2.0 -1.05 -1.95 L-1.0 -1.95 -0.95 -1.95 -1.0 -1.85 Q-1.05 -1.85 -1.1 -1.8 L-1.1 -1.65 -1.15 -1.6 -1.15 -1.55 -1.2 -1.55 -1.2 -1.65 Q-1.2 -1.7 -1.3 -1.7 L-1.4 -1.7 -1.55 -1.6 -1.65 -1.6 Q-1.8 -1.55 -1.85 -1.45 -1.9 -1.3 -1.85 -1.1 -1.85 -0.9 -1.75 -0.75 L-1.75 -0.7 -1.8 -0.7 Q-1.75 -0.7 -1.75 -0.75 L-1.8 -0.85 -1.85 -0.95 -1.9 -1.05 -1.9 -1.35 -1.85 -1.5 -1.75 -1.6 -1.65 -1.6 -1.55 -1.65 -1.45 -1.75 -1.4 -1.75 -1.35 -1.8 -1.3 -1.9 -1.2 -2.05 -1.1 -2.2 M-1.8 -0.7 L-1.8 -0.7" fill="#f2b265" fill-rule="evenodd" stroke="none"/>
    <path d="M-0.8 -1.4 L-0.8 -1.45 -0.85 -1.5 -0.9 -1.6 -0.9 -1.7 -0.8 -1.75 -0.7 -1.7 -0.65 -1.65 -0.6 -1.6 Q-0.6 -1.55 -0.65 -1.55 L-0.75 -1.55 -0.75 -1.6 -0.8 -1.55 -0.8 -1.55 Q-0.8 -1.5 -0.75 -1.5 L-0.7 -1.5 -0.65 -1.45 -0.65 -1.4 -0.8 -1.4 -0.8 -1.4" fill="#fdfdf8" fill-rule="evenodd" stroke="none"/>
    <path d="M-0.9 -1.7 Q-0.85 -1.75 -0.75 -1.75 -0.7 -1.75 -0.65 -1.7 L-0.6 -1.65 Q-0.6 -1.5 -0.65 -1.55 L-0.75 -1.55 Q-0.8 -1.55 -0.75 -1.55 L-0.65 -1.55 Q-0.6 -1.55 -0.6 -1.6 L-0.65 -1.65 -0.7 -1.7 -0.8 -1.75 -0.9 -1.7 -0.9 -1.6 -0.85 -1.5 -0.8 -1.45 -0.8 -1.4 -0.9 -1.45 -0.95 -1.45 -0.95 -1.6 -0.9 -1.7 M-0.75 -1.5 Q-0.8 -1.5 -0.8 -1.55 L-0.8 -1.55 -0.75 -1.6 -0.75 -1.55 -0.75 -1.5" fill="#dfdac5" fill-rule="evenodd" stroke="none"/>
    <path d="M-0.6 -1.65 L-0.6 -1.6 -0.6 -1.55 Q-0.6 -1.55 -0.65 -1.55 L-0.75 -1.55 Q-0.8 -1.55 -0.75 -1.55 L-0.65 -1.55 Q-0.6 -1.5 -0.6 -1.65 L-0.6 -1.65" fill="#a7a490" fill-rule="evenodd" stroke="none"/>
    <path d="M-0.6 -1.6 L-0.45 -1.65 -0.3 -1.65 Q-0.25 -1.55 -0.35 -1.4 L-0.4 -1.3 -0.45 -1.2 -0.5 -1.15 -0.5 -1.15 -0.55 -1.2 Q-0.5 -1.2 -0.5 -1.25 L-0.45 -1.3 -0.45 -1.35 Q-0.4 -1.4 -0.45 -1.5 L-0.5 -1.55 -0.55 -1.55 -0.55 -1.5 -0.6 -1.55 -0.6 -1.6" fill="#9d8a46" fill-rule="evenodd" stroke="none"/>
    <path d="M-0.55 -1.5 L-0.55 -1.55 -0.5 -1.55 -0.45 -1.5 Q-0.4 -1.4 -0.45 -1.35 L-0.45 -1.3 -0.5 -1.25 Q-0.5 -1.2 -0.55 -1.2 L-0.55 -1.2 -0.65 -1.15 Q-0.65 -1.15 -0.7 -1.15 L-0.75 -1.1 -0.7 -1.05 -0.7 -1.05 -0.7 -0.9 -0.75 -0.85 -0.75 -0.9 -0.75 -0.9 Q-0.7 -0.95 -0.75 -1.0 L-0.85 -1.1 -0.95 -1.1 -1.05 -1.15 -1.0 -1.1 -0.95 -1.1 -0.85 -1.1 Q-0.75 -1.1 -0.8 -1.15 L-0.65 -1.2 -0.5 -1.25 -0.55 -1.35 Q-0.55 -1.35 -0.6 -1.35 L-0.55 -1.45 -0.55 -1.5" fill="#947a3e" fill-rule="evenodd" stroke="none"/>
    <path d="M-1.05 -1.55 L-1.05 -1.6 Q-1.0 -1.6 -1.0 -1.65 L-0.9 -1.7 -0.95 -1.6 -0.95 -1.45 -1.0 -1.45 -1.0 -1.5 -1.05 -1.55 M-0.95 -1.45 L-0.95 -1.45 M-1.0 -1.45 L-1.0 -1.45" fill="#cb9f71" fill-rule="evenodd" stroke="none"/>
    <path d="M-0.75 -1.55 L-0.65 -1.55 Q-0.6 -1.55 -0.6 -1.55 L-0.55 -1.5 -0.55 -1.45 -0.6 -1.35 -0.65 -1.35 -0.7 -1.3 -0.75 -1.3 -0.85 -1.35 -0.9 -1.4 -0.95 -1.45 -0.75 -1.4 -0.6 -1.4 Q-0.55 -1.45 -0.6 -1.5 L-0.7 -1.5 -0.7 -1.5 -0.75 -1.5 -0.75 -1.55" fill="#898674" fill-rule="evenodd" stroke="none"/>
    <path d="M-0.8 -1.4 L-0.8 -1.4 -0.7 -1.4 -0.65 -1.4 -0.65 -1.45 -0.7 -1.5 -0.6 -1.5 Q-0.55 -1.45 -0.6 -1.4 L-0.75 -1.4 -0.95 -1.45 -0.9 -1.45 -0.8 -1.4 M-0.95 -1.45 L-0.95 -1.45" fill="#b6b3a0" fill-rule="evenodd" stroke="none"/>
    <path d="M-0.95 -1.45 L-0.9 -1.4 -0.95 -1.35 -0.95 -1.35 -1.0 -1.3 -1.0 -1.35 -1.05 -1.4 -1.0 -1.45 -0.95 -1.45" fill="#d85c52" fill-rule="evenodd" stroke="none"/>
    <path d="M-1.15 -1.55 L-1.05 -1.55 -1.0 -1.5 -1.0 -1.45 -1.05 -1.45 -1.1 -1.45 -1.15 -1.45 -1.2 -1.45 -1.25 -1.4 -1.25 -1.45 Q-1.25 -1.45 -1.25 -1.5 L-1.3 -1.5 -1.3 -1.55 -1.2 -1.55 -1.15 -1.55" fill="#f8bb8b" fill-rule="evenodd" stroke="none"/>
    <path d="M-0.6 -1.35 Q-0.55 -1.35 -0.55 -1.35 L-0.5 -1.25 -0.65 -1.2 -0.8 -1.15 -0.9 -1.2 -0.95 -1.25 -0.9 -1.3 -0.95 -1.35 -0.9 -1.4 -0.85 -1.35 -0.75 -1.3 -0.9 -1.35 -0.9 -1.3 -0.85 -1.2 -0.8 -1.2 -0.75 -1.2 -0.65 -1.2 Q-0.6 -1.25 -0.6 -1.3 L-0.65 -1.35 -0.7 -1.3 -0.65 -1.35 -0.6 -1.35" fill="#7e643d" fill-rule="evenodd" stroke="none"/>
    <path d="M-0.8 -1.15 Q-0.75 -1.1 -0.85 -1.1 L-0.95 -1.1 -0.85 -1.15 -0.9 -1.25 -1.0 -1.3 -0.95 -1.35 -0.95 -1.35 -0.9 -1.3 -0.95 -1.25 -0.9 -1.2 -0.8 -1.15" fill="#ac8556" fill-rule="evenodd" stroke="none"/>
    <path d="M-0.75 -1.3 L-0.7 -1.3 -0.65 -1.35 -0.6 -1.3 Q-0.6 -1.25 -0.65 -1.2 L-0.75 -1.2 -0.8 -1.2 -0.85 -1.2 -0.9 -1.3 -0.9 -1.35 -0.75 -1.3" fill="#604c2c" fill-rule="evenodd" stroke="none"/>
    <path d="M-0.8 -1.4 L-0.65 -1.4 -0.65 -1.45 -0.7 -1.5 -0.65 -1.45 -0.65 -1.4 -0.7 -1.4 -0.8 -1.4 M-0.7 -1.5 L-0.7 -1.5" fill="#dcddc6" fill-rule="evenodd" stroke="none"/>
    <path d="M-0.4 -1.15 L-0.35 -1.25 -0.25 -1.35 -0.05 -1.5 0.2 -1.55 0.45 -1.45 0.65 -1.3 0.85 -1.0 0.95 -0.6 0.95 -0.25 0.9 -0.7 Q0.9 -0.9 0.75 -1.1 L0.5 -1.35 Q0.35 -1.45 0.15 -1.45 L-0.1 -1.4 -0.3 -1.25 -0.35 -1.2 -0.4 -1.15" fill="#c7ae4e" fill-rule="evenodd" stroke="none"/>
    <path d="M0.95 -0.6 L0.85 -1.0 0.65 -1.3 0.45 -1.45 0.2 -1.55 -0.05 -1.5 -0.25 -1.35 -0.35 -1.25 -0.4 -1.15 -0.45 -1.1 -0.5 -1.05 -0.5 -1.1 -0.5 -1.15 -0.5 -1.15 -0.45 -1.15 -0.1 -1.55 0.15 -1.65 0.4 -1.6 0.75 -1.35 0.9 -0.95 0.95 -0.6 0.95 -0.6 M-0.4 -1.15 L-0.4 -1.15" fill="#bba24c" fill-rule="evenodd" stroke="none"/>
    <path d="M-0.05 -1.3 L0.0 -1.3 0.05 -1.3 0.1 -1.25 Q0.1 -1.2 0.05 -1.2 L0.0 -1.2 -0.05 -1.2 -0.1 -1.2 -0.1 -1.2 -0.15 -1.15 -0.15 -1.1 -0.1 -1.05 -0.05 -1.05 0.0 -1.1 0.0 -1.15 0.05 -1.2 0.1 -1.2 0.15 -1.15 0.15 -1.1 0.05 -1.1 0.0 -1.1 0.0 -1.05 -0.05 -0.95 0.0 -0.9 Q0.05 -0.85 0.1 -0.9 L0.15 -1.05 0.15 -1.0 Q0.15 -0.95 0.2 -0.95 L0.25 -0.95 0.25 -0.85 0.2 -0.8 0.1 -0.8 0.05 -0.75 0.05 -0.7 Q0.0 -0.7 0.0 -0.65 L0.05 -0.55 0.15 -0.5 0.25 -0.55 0.25 -0.5 0.2 -0.5 0.1 -0.5 0.05 -0.45 0.0 -0.4 0.0 -0.35 0.0 -0.2 Q0.0 -0.15 0.05 -0.1 L0.2 -0.1 0.3 -0.15 0.4 -0.3 0.4 -0.45 0.45 -0.45 0.35 -0.5 Q0.35 -0.55 0.35 -0.65 L0.4 -0.55 Q0.4 -0.45 0.45 -0.45 L0.45 -0.45 Q0.45 -0.4 0.5 -0.4 L0.55 -0.4 0.55 -0.45 0.5 -0.5 0.5 -0.55 0.55 -0.6 0.55 -0.75 0.45 -0.8 0.4 -0.8 0.5 -0.8 0.55 -0.85 0.5 -0.95 0.55 -0.95 0.55 -0.9 0.6 -0.8 0.6 -0.75 0.7 -0.7 0.75 -0.75 0.75 -0.7 Q0.75 -0.7 0.8 -0.65 L0.7 -0.65 0.6 -0.65 0.55 -0.5 0.55 -0.35 0.65 -0.25 Q0.7 -0.2 0.8 -0.25 L0.75 -0.2 0.7 -0.1 0.65 0.05 Q0.6 0.15 0.7 0.15 L0.6 0.2 0.6 0.25 0.55 0.25 0.5 0.25 0.45 0.25 0.35 0.25 0.3 0.25 0.35 0.15 0.35 0.1 0.35 0.15 0.4 0.2 0.55 0.15 0.6 0.1 0.6 -0.05 0.55 -0.05 0.55 -0.05 0.6 -0.15 0.55 -0.3 0.5 -0.35 0.45 -0.35 0.4 -0.25 0.4 -0.1 0.45 -0.05 0.45 -0.05 0.4 0.0 0.4 -0.05 0.35 -0.1 0.3 -0.1 0.3 0.05 0.3 0.0 0.25 -0.05 Q0.2 -0.1 0.1 -0.05 0.05 -0.05 0.05 0.05 L0.05 0.2 Q0.05 0.25 0.1 0.3 0.1 0.35 0.15 0.35 L0.2 0.35 0.25 0.45 0.3 0.5 0.35 0.55 0.3 0.55 Q0.25 0.6 0.3 0.65 L0.25 0.7 0.25 0.65 0.25 0.55 0.2 0.45 0.2 0.4 0.1 0.4 0.1 0.55 0.05 0.65 0.1 0.7 0.05 0.7 0.0 0.7 0.0 0.65 -0.05 0.65 -0.05 0.75 -0.1 0.7 -0.1 0.65 -0.15 0.65 -0.05 0.6 0.0 0.55 0.05 0.45 0.05 0.35 Q0.05 0.3 0.0 0.3 L-0.1 0.3 Q-0.15 0.2 -0.3 0.3 L-0.35 0.35 -0.35 0.4 -0.35 0.6 -0.3 0.65 -0.2 0.65 -0.25 0.7 -0.3 0.75 -0.3 0.8 -0.25 0.85 -0.3 0.85 -0.35 0.85 -0.4 0.9 -0.45 1.05 Q-0.45 1.1 -0.35 1.15 L-0.35 1.15 -0.4 1.3 -0.45 1.25 -0.4 1.35 -0.4 1.45 -0.45 1.45 -0.5 1.35 -0.45 1.3 -0.45 1.15 -0.5 1.15 -0.6 1.15 -0.65 1.1 -0.7 1.15 -0.7 1.2 -0.75 1.15 -0.7 1.1 -0.75 1.2 -0.8 1.3 -0.8 1.2 -0.8 1.15 -0.85 1.15 Q-0.85 1.05 -0.9 1.1 L-0.95 1.2 -0.95 1.3 -0.9 1.35 -0.9 1.4 -0.95 1.4 -1.0 1.4 -1.05 1.45 -1.0 1.55 -1.05 1.5 -1.05 1.45 -1.05 1.25 -1.0 1.1 Q-0.95 1.15 -0.95 1.1 L-0.9 1.0 -0.85 0.95 -0.9 0.9 -0.95 0.85 -1.0 0.9 -1.05 0.95 -1.05 0.85 -1.0 0.8 Q-0.95 0.8 -0.95 0.85 -0.9 0.9 -0.85 0.9 L-0.75 0.8 Q-0.7 0.75 -0.85 0.7 L-0.8 0.7 -0.75 0.7 -0.7 0.75 -0.6 0.7 -0.55 0.6 Q-0.55 0.5 -0.6 0.45 L-0.6 0.45 -0.65 0.5 Q-0.7 0.45 -0.75 0.5 L-0.8 0.65 -0.85 0.6 -0.85 0.6 -0.8 0.55 -0.85 0.5 -0.85 0.45 -0.85 0.25 -0.8 0.1 -0.8 0.05 -0.9 0.0 -0.9 -0.15 -0.8 -0.15 -0.8 -0.25 Q-0.75 -0.25 -0.8 -0.3 L-0.9 -0.3 -0.85 -0.3 -0.8 -0.35 -0.8 -0.35 -0.75 -0.3 -0.75 -0.25 -0.7 -0.25 -0.6 -0.25 -0.65 -0.2 -0.65 -0.2 -0.6 -0.1 -0.55 -0.1 -0.5 -0.15 -0.5 -0.3 -0.55 -0.3 -0.5 -0.5 -0.4 -0.75 -0.45 -0.75 -0.5 -0.75 -0.55 -0.75 -0.6 -0.75 -0.7 -0.7 -0.7 -0.75 -0.7 -0.8 -0.65 -0.8 -0.6 -0.8 Q-0.55 -0.8 -0.55 -0.85 L-0.55 -0.9 Q-0.55 -0.9 -0.55 -0.95 L-0.6 -0.95 -0.55 -1.0 -0.5 -1.05 -0.45 -1.1 -0.4 -1.15 -0.35 -1.1 -0.25 -1.1 -0.15 -1.15 Q-0.1 -1.25 -0.2 -1.25 L-0.15 -1.3 -0.1 -1.35 -0.05 -1.3 M0.35 -0.85 L0.4 -0.8 0.4 -0.8 0.35 -0.85 M0.0 0.05 L0.05 -0.05 0.0 -0.1 -0.1 -0.05 -0.1 -0.1 -0.15 -0.15 -0.15 -0.15 -0.2 -0.15 -0.2 -0.05 -0.15 -0.05 -0.15 0.0 -0.25 0.0 -0.25 0.05 -0.3 0.15 -0.35 0.25 -0.25 0.2 -0.15 0.2 Q-0.05 0.25 0.0 0.2 L0.0 0.05 M-0.3 -0.95 L-0.3 -0.9 -0.25 -0.85 Q-0.2 -0.8 -0.15 -0.85 L-0.15 -0.9 -0.1 -0.95 -0.1 -1.0 -0.15 -1.05 -0.2 -1.05 -0.25 -1.05 -0.3 -0.95 M-0.4 -1.05 L-0.5 -1.0 -0.55 -0.9 -0.5 -0.85 -0.45 -0.8 -0.35 -0.9 Q-0.3 -0.95 -0.35 -1.0 L-0.35 -1.05 -0.4 -1.05 M-0.3 -0.75 L-0.35 -0.7 -0.35 -0.6 -0.25 -0.6 Q-0.25 -0.65 -0.25 -0.7 -0.25 -0.75 -0.3 -0.75 M0.0 -0.75 L0.0 -0.75 -0.05 -0.75 -0.1 -0.8 -0.1 -0.85 -0.15 -0.85 -0.15 -0.75 -0.2 -0.6 Q-0.15 -0.55 -0.1 -0.6 -0.05 -0.6 -0.05 -0.65 L-0.05 -0.7 0.0 -0.75 M-0.7 -0.75 L-0.7 -0.75 M-0.9 0.0 L-0.9 0.0 -0.9 0.0 M-0.7 -0.15 L-0.65 -0.2 -0.7 -0.2 -0.75 -0.2 -0.8 -0.15 -0.8 0.0 -0.75 0.0 -0.7 0.05 -0.7 0.0 -0.65 0.0 -0.6 -0.05 -0.6 -0.05 -0.65 -0.1 -0.7 -0.05 -0.7 -0.15 M-0.5 -0.1 L-0.55 -0.05 -0.6 0.0 -0.55 0.05 -0.55 0.1 -0.5 0.1 -0.45 0.1 -0.45 0.05 -0.5 0.05 -0.5 -0.1 M-0.1 -0.55 L-0.2 -0.55 Q-0.3 -0.5 -0.25 -0.45 -0.25 -0.4 -0.2 -0.3 L-0.1 -0.15 -0.1 -0.2 -0.1 -0.25 -0.1 -0.35 -0.05 -0.4 Q0.0 -0.45 -0.05 -0.5 -0.05 -0.55 -0.1 -0.55 M-0.3 -0.55 L-0.35 -0.55 -0.45 -0.5 -0.45 -0.35 Q-0.4 -0.3 -0.35 -0.35 L-0.35 -0.4 -0.3 -0.5 -0.3 -0.55 M-0.25 -0.3 L-0.25 -0.35 -0.3 -0.35 -0.35 -0.3 -0.45 -0.25 -0.45 -0.1 -0.35 0.0 -0.25 0.0 -0.2 -0.1 -0.2 -0.2 -0.25 -0.25 -0.25 -0.3 M-0.45 0.1 L-0.4 0.1 -0.35 0.05 Q-0.4 0.0 -0.4 0.05 L-0.45 0.1 M-0.5 0.2 L-0.4 0.15 -0.55 0.15 Q-0.55 0.2 -0.5 0.2 M-0.4 0.25 Q-0.35 0.25 -0.4 0.2 L-0.45 0.2 -0.55 0.2 Q-0.65 0.25 -0.6 0.3 L-0.6 0.45 -0.5 0.5 -0.45 0.6 -0.4 0.6 -0.4 0.55 -0.4 0.55 -0.45 0.5 -0.45 0.45 Q-0.45 0.4 -0.45 0.4 -0.4 0.4 -0.4 0.35 L-0.4 0.25 M-0.65 0.25 Q-0.65 0.2 -0.7 0.2 L-0.75 0.2 -0.8 0.3 -0.8 0.4 -0.75 0.4 Q-0.7 0.4 -0.7 0.35 L-0.7 0.3 -0.65 0.25 M-0.6 0.85 L-0.55 0.85 -0.5 0.8 -0.45 0.75 -0.5 0.75 -0.6 0.75 -0.6 0.85 -0.65 0.8 -0.7 0.8 -0.75 0.85 -0.8 0.9 -0.8 1.0 -0.75 1.05 -0.65 0.95 Q-0.6 0.9 -0.6 0.85 M-0.5 0.9 L-0.6 0.9 -0.6 0.95 -0.55 1.0 -0.5 1.0 -0.5 0.95 Q-0.5 0.95 -0.5 0.9 L-0.45 0.9 -0.45 0.85 -0.5 0.8 Q-0.55 0.85 -0.5 0.9 L-0.5 0.9" fill="#582507" fill-rule="evenodd" stroke="none"/>
    <path d="M-0.05 -1.3 L0.05 -1.35 0.2 -1.35 Q0.5 -1.3 0.7 -1.05 0.85 -0.8 0.85 -0.5 L0.85 -0.55 0.8 -0.6 0.8 -0.65 Q0.75 -0.7 0.75 -0.7 L0.75 -0.75 0.75 -0.8 0.75 -0.85 0.7 -0.9 0.7 -1.0 0.5 -1.2 Q0.35 -1.3 0.2 -1.3 L0.1 -1.35 0.0 -1.3 -0.05 -1.3" fill="#f4d754" fill-rule="evenodd" stroke="none"/>
    <path d="M0.85 -0.5 Q0.85 -0.8 0.7 -1.05 0.5 -1.3 0.2 -1.35 L0.05 -1.35 -0.05 -1.3 -0.1 -1.35 -0.15 -1.3 -0.2 -1.25 -0.25 -1.25 -0.25 -1.25 Q-0.15 -1.35 0.0 -1.4 L0.3 -1.4 Q0.6 -1.3 0.75 -1.05 0.9 -0.8 0.9 -0.5 L0.85 -0.5" fill="#e1c553" fill-rule="evenodd" stroke="none"/>
    <path d="M-0.25 -1.25 L-0.2 -1.25 Q-0.1 -1.25 -0.15 -1.15 L-0.25 -1.1 -0.35 -1.1 -0.4 -1.15 -0.35 -1.2 -0.25 -1.25 M-0.4 -1.15 L-0.4 -1.15" fill="#704713" fill-rule="evenodd" stroke="none"/>
    <path d="M-0.45 -1.2 L-0.35 -1.35 -0.25 -1.5 0.05 -1.75 0.3 -1.8 0.5 -1.7 0.65 -1.55 0.8 -1.35 0.95 -0.95 1.0 -0.6 1.0 -0.35 0.95 -0.3 0.95 -0.6 0.9 -0.95 0.75 -1.35 0.4 -1.6 0.15 -1.65 -0.1 -1.55 -0.45 -1.15 -0.5 -1.15 -0.5 -1.15 -0.5 -1.15 -0.45 -1.2 M-0.5 -1.15 L-0.5 -1.15 -0.5 -1.15" fill="#b2994a" fill-rule="evenodd" stroke="none"/>
    <path d="M0.9 -0.5 Q0.9 -0.8 0.75 -1.05 0.6 -1.3 0.3 -1.4 L0.0 -1.4 Q-0.15 -1.35 -0.25 -1.25 L-0.25 -1.25 -0.35 -1.2 -0.3 -1.25 -0.1 -1.4 0.15 -1.45 Q0.35 -1.45 0.5 -1.35 L0.75 -1.1 Q0.9 -0.9 0.9 -0.7 L0.95 -0.25 0.9 -0.2 0.9 -0.1 Q0.9 -0.05 0.9 -0.1 L0.9 -0.2 0.85 -0.25 0.85 -0.4 0.9 -0.5" fill="#d5b94b" fill-rule="evenodd" stroke="none"/>
    <path d="M-1.2 -2.2 L-1.1 -2.2 -1.2 -2.05 -1.3 -1.9 -1.35 -1.8 -1.4 -1.75 -1.45 -1.75 -1.55 -1.65 -1.65 -1.6 -1.75 -1.6 -1.85 -1.5 -1.9 -1.35 -1.9 -1.05 -1.85 -0.95 -1.9 -1.15 -1.95 -1.3 -1.85 -1.5 Q-1.8 -1.6 -1.7 -1.65 -1.6 -1.7 -1.5 -1.8 L-1.35 -2.0 -1.25 -2.1 -1.2 -2.2" fill="#eba55d" fill-rule="evenodd" stroke="none"/>
    <path d="M-1.5 -2.2 L-1.4 -2.2 -1.55 -2.0 -1.75 -1.8 Q-1.95 -1.6 -2.0 -1.4 -1.95 -1.0 -1.8 -0.75 -1.8 -0.7 -1.85 -0.7 L-1.95 -1.15 Q-2.05 -1.4 -1.95 -1.6 L-1.75 -1.9 -1.5 -2.2" fill="#c07f48" fill-rule="evenodd" stroke="none"/>
    <path d="M-1.4 -2.2 L-1.3 -2.2 -1.35 -2.1 -1.45 -2.0 -1.6 -1.8 -1.75 -1.7 -1.9 -1.55 -1.95 -1.35 -1.9 -1.1 -1.85 -0.85 -1.8 -0.8 -1.8 -0.7 -1.85 -0.7 Q-1.8 -0.7 -1.8 -0.75 -1.95 -1.0 -2.0 -1.4 -1.95 -1.6 -1.75 -1.8 L-1.55 -2.0 -1.4 -2.2 M-1.85 -0.7 L-1.85 -0.7 M-1.8 -0.7 L-1.8 -0.7" fill="#cf8c50" fill-rule="evenodd" stroke="none"/>
    <path d="M-1.3 -2.2 L-1.2 -2.2 -1.25 -2.1 -1.35 -2.0 -1.5 -1.8 Q-1.6 -1.7 -1.7 -1.65 -1.8 -1.6 -1.85 -1.5 L-1.95 -1.3 -1.9 -1.15 -1.85 -0.95 -1.8 -0.85 -1.75 -0.75 Q-1.75 -0.7 -1.8 -0.7 L-1.8 -0.8 -1.85 -0.85 -1.9 -1.1 -1.95 -1.35 -1.9 -1.55 -1.75 -1.7 -1.6 -1.8 -1.45 -2.0 -1.35 -2.1 -1.3 -2.2" fill="#dd9957" fill-rule="evenodd" stroke="none"/>
    <path d="M-1.65 -2.2 L-1.5 -2.2 -1.75 -1.9 -1.95 -1.6 Q-2.05 -1.4 -1.95 -1.15 L-1.85 -0.7 -1.85 -0.7 -1.95 -0.7 -1.9 -0.7 Q-1.85 -0.7 -1.85 -0.75 L-2.0 -1.15 Q-2.05 -1.4 -2.0 -1.6 L-1.9 -1.75 -1.8 -1.9 -1.7 -2.05 -1.65 -2.2 M-1.95 -0.7 L-1.95 -0.7" fill="#ae7241" fill-rule="evenodd" stroke="none"/>
    <path d="M-1.7 -0.7 L-1.75 -0.7 -1.75 -0.75 Q-1.85 -0.9 -1.85 -1.1 -1.9 -1.3 -1.85 -1.45 -1.8 -1.55 -1.65 -1.6 L-1.55 -1.6 -1.4 -1.7 -1.3 -1.7 Q-1.2 -1.7 -1.2 -1.65 L-1.2 -1.55 -1.3 -1.55 -1.3 -1.5 -1.4 -1.45 -1.35 -1.5 -1.35 -1.55 -1.65 -1.5 Q-1.8 -1.5 -1.85 -1.35 -1.9 -1.2 -1.85 -1.0 L-1.7 -0.7 -1.7 -0.7" fill="#fdbd6f" fill-rule="evenodd" stroke="none"/>
    <path d="M-1.55 -0.85 Q-1.65 -0.9 -1.7 -1.05 L-1.7 -1.25 -1.65 -1.3 -1.55 -1.3 Q-1.5 -1.3 -1.45 -1.25 -1.45 -1.2 -1.45 -1.15 L-1.55 -1.05 -1.55 -0.9 -1.55 -0.85" fill="#ffffad" fill-rule="evenodd" stroke="none"/>
    <path d="M-1.55 -0.85 L-1.6 -0.8 -1.65 -0.8 Q-1.75 -0.95 -1.8 -1.2 -1.8 -1.3 -1.7 -1.35 L-1.55 -1.4 -1.45 -1.35 -1.45 -1.3 -1.45 -1.15 Q-1.45 -1.2 -1.45 -1.25 -1.5 -1.3 -1.55 -1.3 L-1.65 -1.3 -1.7 -1.25 -1.7 -1.05 Q-1.65 -0.9 -1.55 -0.85 L-1.55 -0.85 M-1.45 -1.15 L-1.45 -1.15" fill="#fff897" fill-rule="evenodd" stroke="none"/>
    <path d="M-1.55 -0.75 L-1.6 -0.75 -1.6 -0.7 -1.7 -0.7 -1.65 -0.7 Q-1.6 -0.7 -1.6 -0.7 L-1.75 -0.9 -1.8 -1.1 -1.8 -1.3 -1.7 -1.45 -1.6 -1.45 -1.45 -1.45 -1.45 -1.35 -1.55 -1.4 -1.7 -1.35 Q-1.8 -1.3 -1.8 -1.2 -1.75 -0.95 -1.65 -0.8 L-1.6 -0.8 -1.55 -0.85 -1.6 -0.8 -1.55 -0.75 M-1.45 -1.3 L-1.45 -1.35 -1.45 -1.3 M-1.7 -0.7 L-1.7 -0.7" fill="#fee289" fill-rule="evenodd" stroke="none"/>
    <path d="M-1.45 -1.35 L-1.45 -1.45 -1.6 -1.45 -1.7 -1.45 -1.8 -1.3 -1.8 -1.1 -1.75 -0.9 -1.6 -0.7 Q-1.6 -0.7 -1.65 -0.7 L-1.7 -0.7 -1.85 -1.0 Q-1.9 -1.2 -1.85 -1.35 -1.8 -1.5 -1.65 -1.5 L-1.35 -1.55 -1.35 -1.5 -1.4 -1.45 -1.4 -1.35 -1.45 -1.35" fill="#ffce7b" fill-rule="evenodd" stroke="none"/>
    <path d="M-1.4 -1.45 L-1.3 -1.5 -1.25 -1.5 Q-1.25 -1.45 -1.25 -1.45 -1.3 -1.35 -1.4 -1.35 L-1.4 -1.45" fill="#d29963" fill-rule="evenodd" stroke="none"/>
    <path d="M-1.45 -1.15 L-1.45 -1.3 -1.45 -1.35 -1.4 -1.35 -1.35 -1.3 -1.25 -1.25 -1.2 -1.2 -1.1 -1.15 -1.15 -1.15 -1.25 -1.2 -1.25 -1.1 -1.35 -1.15 -1.4 -1.15 -1.4 -1.15 -1.45 -1.15 M-1.25 -1.4 L-1.3 -1.35 -1.35 -1.35 -1.4 -1.35 Q-1.3 -1.35 -1.25 -1.45 L-1.25 -1.4" fill="#f1ba6e" fill-rule="evenodd" stroke="none"/>
    <path d="M-1.0 -1.45 L-1.05 -1.4 -1.05 -1.4 -1.1 -1.35 -1.15 -1.4 Q-1.15 -1.45 -1.2 -1.45 L-1.25 -1.4 -1.3 -1.35 -1.25 -1.35 -1.25 -1.3 -1.25 -1.25 -1.35 -1.3 -1.4 -1.35 -1.35 -1.35 -1.3 -1.35 -1.25 -1.4 -1.2 -1.45 -1.15 -1.45 -1.1 -1.45 -1.05 -1.45 -1.0 -1.45 -1.0 -1.45" fill="#ffe798" fill-rule="evenodd" stroke="none"/>
    <path d="M-1.25 -1.25 L-1.25 -1.3 -1.25 -1.35 -1.3 -1.35 -1.25 -1.4 -1.2 -1.45 Q-1.15 -1.45 -1.15 -1.4 L-1.1 -1.35 -1.05 -1.3 -1.0 -1.2 -1.05 -1.2 -1.1 -1.15 -1.2 -1.2 -1.25 -1.25" fill="#fffbb2" fill-rule="evenodd" stroke="none"/>
    <path d="M-1.05 -1.4 L-1.0 -1.35 -1.05 -1.35 -1.05 -1.3 -1.0 -1.2 Q-0.95 -1.2 -0.95 -1.15 L-1.0 -1.15 -1.1 -1.15 -1.05 -1.2 -1.0 -1.2 -1.05 -1.3 -1.1 -1.35 -1.05 -1.4 -1.05 -1.4" fill="#efc17e" fill-rule="evenodd" stroke="none"/>
    <path d="M-0.95 -1.1 L-1.0 -1.1 -1.05 -1.15 -1.15 -1.1 -1.25 -1.0 Q-1.25 -0.95 -1.3 -0.95 L-1.35 -0.95 -1.4 -0.95 -1.4 -1.0 -1.35 -1.0 Q-1.3 -0.95 -1.25 -1.0 L-1.25 -1.1 -1.25 -1.2 -1.15 -1.15 -1.1 -1.15 -1.0 -1.15 -0.95 -1.15 Q-0.95 -1.2 -1.0 -1.2 L-1.05 -1.3 -1.05 -1.35 -1.0 -1.35 -1.0 -1.3 -0.9 -1.25 -0.85 -1.15 -0.95 -1.1" fill="#cb9e63" fill-rule="evenodd" stroke="none"/>
    <path d="M-1.05 -1.15 L-0.95 -1.1 -0.85 -1.1 -0.75 -1.0 Q-0.7 -0.95 -0.75 -0.9 L-0.75 -0.9 -0.75 -0.9 -0.8 -0.9 -0.85 -0.9 -0.95 -1.0 -0.95 -1.0 -1.0 -1.0 -1.05 -1.05 -1.05 -1.1 -1.1 -1.1 -1.1 -1.05 -1.1 -1.1 -1.2 -1.1 -1.25 -1.0 -1.2 -0.95 -1.2 -0.95 -1.3 -0.9 Q-1.3 -0.9 -1.4 -0.85 L-1.35 -0.9 -1.3 -0.95 -1.35 -0.95 -1.3 -0.95 Q-1.25 -0.95 -1.25 -1.0 L-1.15 -1.1 -1.05 -1.15 M-1.0 -1.0 L-1.0 -1.0 M-0.95 -1.0 L-0.95 -1.0 M-1.4 -0.85 L-1.4 -0.85" fill="#81633b" fill-rule="evenodd" stroke="none"/>
    <path d="M-1.2 -0.95 L-1.25 -1.0 -1.2 -1.1 -1.1 -1.1 -1.1 -1.05 -1.1 -0.95 -1.15 -0.95 -1.2 -0.9 -1.2 -0.95" fill="#272522" fill-rule="evenodd" stroke="none"/>
    <path d="M-1.2 -0.95 L-1.2 -0.95 -1.2 -0.9 -1.15 -0.95 -1.15 -0.85 -1.2 -0.75 -1.2 -0.65 -1.3 -0.6 -1.25 -0.65 -1.25 -0.75 -1.2 -0.85 -1.2 -0.95" fill="#63443a" fill-rule="evenodd" stroke="none"/>
    <path d="M-1.1 -1.05 L-1.1 -1.1 -1.05 -1.1 -1.05 -1.05 -1.1 -1.0 -1.1 -0.95 -1.1 -1.05 -1.1 -1.05 M-1.15 -0.95 L-1.1 -0.95 -1.1 -0.9 -1.1 -0.85 -1.1 -0.8 -1.15 -0.75 -1.2 -0.75 -1.15 -0.85 -1.15 -0.95" fill="#a5594c" fill-rule="evenodd" stroke="none"/>
    <path d="M-1.05 -1.05 L-1.0 -1.0 -1.05 -1.0 -1.05 -0.9 -1.1 -0.95 -1.1 -1.0 -1.05 -1.05" fill="#c5a192" fill-rule="evenodd" stroke="none"/>
    <path d="M-1.25 -1.1 L-1.25 -1.0 Q-1.3 -0.95 -1.35 -1.0 L-1.3 -1.0 -1.3 -1.0 -1.35 -1.05 -1.45 -1.05 -1.45 -1.1 -1.4 -1.1 Q-1.4 -1.15 -1.4 -1.15 L-1.35 -1.15 -1.25 -1.1" fill="#fbd585" fill-rule="evenodd" stroke="none"/>
    <path d="M-1.45 -1.15 L-1.45 -1.15 -1.4 -1.15 -1.4 -1.15 Q-1.4 -1.15 -1.4 -1.1 L-1.45 -1.1 -1.45 -1.05 Q-1.35 -1.05 -1.4 -1.0 L-1.4 -0.95 -1.5 -0.9 -1.55 -0.9 -1.55 -1.05 -1.45 -1.15" fill="#fefef8" fill-rule="evenodd" stroke="none"/>
    <path d="M-1.35 -1.0 L-1.4 -1.0 Q-1.35 -1.05 -1.45 -1.05 L-1.35 -1.05 -1.3 -1.0 -1.3 -1.0 -1.35 -1.0" fill="#fffbad" fill-rule="evenodd" stroke="none"/>
    <path d="M-1.35 -0.95 L-1.3 -0.95 -1.35 -0.9 -1.4 -0.85 -1.45 -0.85 -1.55 -0.85 -1.5 -0.9 -1.5 -0.9 -1.45 -0.9 -1.35 -0.95" fill="#3a4949" fill-rule="evenodd" stroke="none"/>
    <path d="M-1.4 -0.95 L-1.35 -0.95 -1.45 -0.9 -1.5 -0.9 -1.4 -0.95" fill="#88918f" fill-rule="evenodd" stroke="none"/>
    <path d="M-1.3 -0.65 L-1.3 -0.7 -1.35 -0.75 -1.35 -0.8 -1.35 -0.85 -1.45 -0.85 -1.4 -0.85 Q-1.3 -0.9 -1.3 -0.9 L-1.2 -0.85 -1.25 -0.75 -1.25 -0.7 -1.3 -0.65" fill="#fbd3a1" fill-rule="evenodd" stroke="none"/>
    <path d="M-1.35 -0.75 L-1.45 -0.75 -1.4 -0.8 -1.35 -0.8 -1.35 -0.75" fill="#d1d8dc" fill-rule="evenodd" stroke="none"/>
    <path d="M-1.45 -0.85 L-1.5 -0.85 -1.55 -0.75 -1.6 -0.8 -1.55 -0.85 -1.55 -0.85 -1.45 -0.85 -1.4 -0.85 -1.45 -0.85 M-1.4 -0.85 L-1.4 -0.85 M-1.5 -0.9 L-1.5 -0.9 -1.55 -0.85 -1.55 -0.9 -1.5 -0.9" fill="#8c8f80" fill-rule="evenodd" stroke="none"/>
    <path d="M-1.3 -0.6 L-1.3 -0.65 -1.25 -0.7 -1.25 -0.75 -1.25 -0.65 -1.3 -0.6" fill="#b69477" fill-rule="evenodd" stroke="none"/>
    <path d="M-1.15 -0.75 L-1.1 -0.8 -1.1 -0.85 -1.1 -0.85 -1.05 -0.85 -1.05 -0.8 -1.0 -0.8 -0.95 -0.75 -0.95 -0.75 -0.95 -0.7 -1.05 -0.7 -1.15 -0.75" fill="#494134" fill-rule="evenodd" stroke="none"/>
    <path d="M-1.1 -0.85 L-1.1 -0.9 -1.05 -0.85 -1.0 -0.85 Q-0.95 -0.9 -0.95 -0.85 L-0.95 -0.75 -0.95 -0.75 -1.0 -0.8 -1.05 -0.8 -1.05 -0.85 -1.1 -0.85 -1.1 -0.85" fill="#686659" fill-rule="evenodd" stroke="none"/>
    <path d="M-0.95 -1.0 L-0.85 -0.9 -0.8 -0.9 -0.8 -0.9 -0.85 -0.85 -0.85 -0.8 -0.9 -0.8 -0.95 -0.8 -0.95 -0.75 -0.95 -0.85 Q-0.95 -0.9 -1.0 -0.85 L-1.05 -0.85 -1.1 -0.9 -1.1 -0.95 -1.05 -0.9 -0.95 -0.9 Q-0.9 -0.9 -0.95 -1.0 M-0.95 -0.7 L-0.95 -0.75 -0.95 -0.7 -0.95 -0.7" fill="#898872" fill-rule="evenodd" stroke="none"/>
    <path d="M-1.3 -0.55 L-1.3 -0.6 -1.2 -0.65 -1.2 -0.75 -1.15 -0.75 -1.15 -0.65 -1.2 -0.6 -1.2 -0.55 -1.25 -0.55 -1.3 -0.55" fill="#ec7e5e" fill-rule="evenodd" stroke="none"/>
    <path d="M-1.25 -0.35 L-1.25 -0.4 -1.25 -0.4 -1.2 -0.4 -1.2 -0.45 -1.25 -0.5 -1.2 -0.55 -1.2 -0.55 -1.2 -0.6 -1.15 -0.65 -1.15 -0.75 -1.15 -0.75 -1.05 -0.7 -0.95 -0.7 -0.9 -0.7 -1.0 -0.7 -1.05 -0.7 -1.0 -0.65 -0.95 -0.65 -0.9 -0.65 -0.95 -0.6 -0.95 -0.6 -0.9 -0.55 -0.85 -0.5 -0.9 -0.45 -0.95 -0.4 -0.9 -0.45 -0.9 -0.5 -0.85 -0.55 -1.0 -0.55 -1.1 -0.6 -1.1 -0.5 -1.1 -0.55 -1.15 -0.6 -1.15 -0.55 -1.1 -0.5 -1.1 -0.45 -1.05 -0.4 -1.1 -0.35 -1.1 -0.3 -1.15 -0.3 -1.1 -0.35 Q-1.1 -0.35 -1.1 -0.4 L-1.15 -0.4 -1.2 -0.35 -1.25 -0.35 M-0.95 -0.7 L-0.95 -0.7 M-1.2 -0.3 L-1.15 -0.3 -1.2 -0.3 M-1.05 -0.4 L-1.05 -0.4" fill="#a58849" fill-rule="evenodd" stroke="none"/>
    <path d="M-1.3 -0.9 L-1.2 -0.95 -1.2 -0.85 -1.25 -0.75 -1.2 -0.85 -1.3 -0.9" fill="#c2946e" fill-rule="evenodd" stroke="none"/>
    <path d="M-1.0 -1.0 L-1.0 -1.0 -0.95 -1.0 -0.95 -1.0 Q-0.9 -0.95 -0.95 -0.95 L-1.05 -0.9 -1.05 -1.0 -1.0 -1.0" fill="#faf8f0" fill-rule="evenodd" stroke="none"/>
    <path d="M-1.95 -0.6 L-1.7 -0.5 -1.65 -0.45 -1.65 -0.4 Q-1.65 -0.4 -1.6 -0.45 L-1.6 -0.55 -1.55 -0.55 -1.5 -0.55 -1.5 -0.55 -1.5 -0.5 -1.5 -0.5 -1.55 -0.45 -1.55 -0.45 -1.6 -0.4 -1.65 -0.35 Q-1.7 -0.35 -1.7 -0.4 L-1.7 -0.4 -1.7 -0.4 -1.7 -0.45 -1.85 -0.5 -1.95 -0.6" fill="#fe825e" fill-rule="evenodd" stroke="none"/>
    <path d="M-1.5 -0.5 L-1.45 -0.45 -1.5 -0.45 -1.55 -0.4 -1.55 -0.4 -1.6 -0.4 -1.55 -0.45 -1.55 -0.45 -1.5 -0.5 -1.5 -0.5" fill="#cf5e45" fill-rule="evenodd" stroke="none"/>
    <path d="M-1.45 -0.45 L-1.45 -0.45 -1.45 -0.35 -1.5 -0.3 -1.5 -0.25 -1.45 -0.25 -1.5 -0.2 -1.5 -0.2 -1.55 -0.2 -1.55 -0.1 -1.6 -0.05 -1.6 -0.2 -1.6 -0.25 Q-1.6 -0.3 -1.6 -0.3 L-1.65 -0.35 -1.6 -0.4 -1.55 -0.4 -1.55 -0.4 -1.5 -0.45 -1.45 -0.45" fill="#964430" fill-rule="evenodd" stroke="none"/>
    <path d="M-1.8 -0.55 L-1.7 -0.55 -1.6 -0.55 Q-1.6 -0.55 -1.7 -0.55 L-1.8 -0.55" fill="#ffe1ab" fill-rule="evenodd" stroke="none"/>
    <path d="M-2.0 -0.15 L-1.8 -0.15 -1.65 -0.15 -1.65 -0.1 -1.65 -0.15 -1.85 -0.15 -2.0 -0.15" fill="#fff3cd" fill-rule="evenodd" stroke="none"/>
    <path d="M-1.45 -0.25 L-1.4 -0.2 -1.4 -0.2 -1.3 -0.2 -1.25 -0.15 -1.25 -0.1 -1.3 -0.1 -1.3 -0.15 -1.35 -0.15 -1.45 -0.15 Q-1.5 -0.2 -1.55 -0.1 L-1.55 -0.2 -1.5 -0.2 -1.5 -0.2 -1.45 -0.25 -1.45 -0.25" fill="#5f4325" fill-rule="evenodd" stroke="none"/>
    <path d="M-1.6 -0.2 L-1.6 -0.05 -1.65 0.0 -1.75 0.0 -1.7 0.0 -1.65 0.0 Q-1.6 -0.05 -1.6 -0.1 L-1.6 -0.2" fill="#c6674e" fill-rule="evenodd" stroke="none"/>
    <path d="M-1.1 -0.5 L-1.15 -0.55 -1.15 -0.6 -1.1 -0.55 -1.1 -0.5" fill="#e9be73" fill-rule="evenodd" stroke="none"/>
    <path d="M-1.1 -0.5 L-1.1 -0.6 -1.0 -0.55 -0.85 -0.55 -0.9 -0.5 -0.9 -0.45 -0.9 -0.55 -0.95 -0.5 -1.0 -0.45 -1.05 -0.45 -1.1 -0.5" fill="#6c5f23" fill-rule="evenodd" stroke="none"/>
    <path d="M-1.25 -0.4 L-1.3 -0.4 Q-1.25 -0.45 -1.25 -0.5 L-1.3 -0.55 -1.25 -0.55 -1.2 -0.55 -1.2 -0.55 -1.25 -0.5 -1.2 -0.45 -1.2 -0.4 -1.25 -0.4 -1.25 -0.4" fill="#e6ba77" fill-rule="evenodd" stroke="none"/>
    <path d="M-1.25 -0.3 L-1.25 -0.35 -1.2 -0.35 -1.15 -0.4 -1.1 -0.4 Q-1.1 -0.35 -1.1 -0.35 L-1.15 -0.3 -1.2 -0.3 -1.2 -0.3 -1.25 -0.3" fill="#f9e385" fill-rule="evenodd" stroke="none"/>
    <path d="M-1.1 -0.3 L-1.1 -0.35 -1.05 -0.4 -1.05 -0.35 -1.05 -0.3 -1.1 -0.3" fill="#f3da6c" fill-rule="evenodd" stroke="none"/>
    <path d="M-0.9 -0.45 L-0.95 -0.4 -1.0 -0.35 Q-1.05 -0.3 -1.05 -0.35 L-1.05 -0.4 Q-1.1 -0.45 -1.1 -0.5 L-1.05 -0.45 -1.0 -0.45 -0.95 -0.5 -0.9 -0.55 -0.9 -0.45 M-1.05 -0.4 L-1.05 -0.4" fill="#433e19" fill-rule="evenodd" stroke="none"/>
    <path d="M-1.05 -0.35 Q-1.05 -0.3 -1.0 -0.35 L-0.95 -0.4 -0.95 -0.4 -0.95 -0.35 -1.0 -0.35 -0.95 -0.3 -0.9 -0.25 -0.95 -0.3 -1.0 -0.3 -1.05 -0.25 -1.1 -0.3 -1.1 -0.3 -1.05 -0.3 -1.05 -0.35" fill="#aba66b" fill-rule="evenodd" stroke="none"/>
    <path d="M-1.05 -0.4 L-1.1 -0.45 -1.1 -0.5 Q-1.1 -0.45 -1.05 -0.4" fill="#726428" fill-rule="evenodd" stroke="none"/>
    <path d="M-1.45 -0.45 L-1.4 -0.4 -1.45 -0.35 -1.45 -0.45" fill="#d0b08e" fill-rule="evenodd" stroke="none"/>
    <path d="M-1.4 -0.2 L-1.3 -0.25 -1.25 -0.25 -1.25 -0.3 -1.2 -0.3 -1.15 -0.3 -1.1 -0.3 -1.1 -0.3 -1.05 -0.25 -1.05 -0.2 -1.1 -0.2 -1.1 -0.1 -1.1 -0.15 -1.1 -0.2 -1.2 -0.2 -1.25 -0.15 -1.3 -0.2 -1.4 -0.2 -1.4 -0.2 M-1.05 -0.2 L-1.05 -0.2 M-1.05 -0.25 L-1.05 -0.25" fill="#b06a3d" fill-rule="evenodd" stroke="none"/>
    <path d="M-1.3 -0.25 L-1.35 -0.3 -1.35 -0.3 -1.3 -0.3 -1.3 -0.25" fill="#fbccaf" fill-rule="evenodd" stroke="none"/>
    <path d="M-1.45 -0.35 L-1.45 -0.25 -1.5 -0.25 -1.5 -0.3 -1.45 -0.35 M-1.45 -0.25 L-1.45 -0.25" fill="#fb8c66" fill-rule="evenodd" stroke="none"/>
    <path d="M-1.05 -0.2 L-1.05 -0.2 -1.05 -0.15 -0.95 -0.15 -0.9 -0.15 -0.9 -0.15 Q-0.9 -0.1 -1.0 -0.1 L-1.05 -0.2" fill="#7a7142" fill-rule="evenodd" stroke="none"/>
    <path d="M-1.05 -0.2 L-1.05 -0.25 -1.0 -0.2 -0.9 -0.15 -1.05 -0.15 -1.05 -0.2 M-0.9 -0.15 L-0.9 -0.15 -0.9 -0.15 -0.9 -0.15" fill="#f1eb9e" fill-rule="evenodd" stroke="none"/>
    <path d="M-1.05 -0.25 L-1.0 -0.3 -0.95 -0.3 -0.95 -0.25 -0.9 -0.25 -0.9 -0.2 -0.9 -0.15 -1.0 -0.2 -1.05 -0.25 -1.05 -0.25 M-0.9 -0.25 L-0.9 -0.25" fill="#fefdf6" fill-rule="evenodd" stroke="none"/>
    <path d="M-1.25 -0.1 L-1.25 -0.15 -1.2 -0.2 -1.1 -0.2 -1.15 -0.15 -1.15 -0.1 -1.1 -0.15 -1.1 -0.1 -1.15 -0.1 -1.15 -0.15 -1.25 -0.1 -1.25 -0.1 M-1.2 -0.2 L-1.25 -0.2 -1.25 -0.15 -1.2 -0.15 -1.2 -0.2 M-1.1 -0.1 L-1.1 -0.1" fill="#c7a64f" fill-rule="evenodd" stroke="none"/>
    <path d="M-1.2 -0.2 L-1.2 -0.15 -1.25 -0.15 -1.25 -0.2 -1.2 -0.2" fill="#fff799" fill-rule="evenodd" stroke="none"/>
    <path d="M-1.3 -0.25 L-1.25 -0.3 -1.25 -0.25 -1.3 -0.25" fill="#e3b593" fill-rule="evenodd" stroke="none"/>
    <path d="M-1.3 -0.1 L-1.25 -0.1 -1.25 -0.1 -1.15 -0.15 -1.15 -0.1 -1.1 -0.1 -1.15 0.0 -1.2 0.1 Q-1.15 0.2 -1.25 0.2 L-1.35 0.2 -1.4 0.15 -1.35 0.1 -1.3 0.1 -1.3 0.1 -1.3 -0.1" fill="#736726" fill-rule="evenodd" stroke="none"/>
    <path d="M-1.1 -0.2 L-1.1 -0.15 -1.15 -0.1 -1.15 -0.15 -1.1 -0.2" fill="#fef380" fill-rule="evenodd" stroke="none"/>
    <path d="M-0.05 -1.2 L0.0 -1.15 0.0 -1.1 -0.1 -1.1 -0.15 -1.15 -0.1 -1.2 -0.1 -1.2 -0.05 -1.2" fill="#c0751e" fill-rule="evenodd" stroke="none"/>
    <path d="M0.1 -1.25 L0.2 -1.25 0.3 -1.25 0.45 -1.15 0.6 -1.0 0.55 -0.95 0.55 -0.9 0.55 -0.95 0.5 -0.95 0.5 -1.05 0.4 -1.05 0.35 -1.05 0.3 -1.05 0.25 -1.05 0.15 -1.05 0.15 -1.1 0.15 -1.15 0.1 -1.2 0.05 -1.2 0.0 -1.15 -0.05 -1.2 0.0 -1.2 0.05 -1.2 Q0.1 -1.2 0.1 -1.25 M0.3 -1.15 L0.25 -1.2 0.2 -1.2 0.15 -1.15 0.2 -1.1 0.25 -1.1 0.3 -1.15" fill="#563314" fill-rule="evenodd" stroke="none"/>
    <path d="M-0.15 -1.15 L-0.1 -1.1 0.0 -1.1 -0.05 -1.05 -0.1 -1.05 -0.15 -1.1 -0.15 -1.15" fill="#6c3c0d" fill-rule="evenodd" stroke="none"/>
    <path d="M-0.25 -1.05 L-0.2 -1.05 -0.15 -1.05 -0.1 -1.0 -0.1 -0.95 -0.15 -0.9 -0.15 -0.85 Q-0.2 -0.8 -0.25 -0.85 L-0.3 -0.9 -0.3 -0.95 -0.25 -0.95 -0.2 -0.95 -0.2 -1.0 -0.25 -1.05" fill="#713a09" fill-rule="evenodd" stroke="none"/>
    <path d="M-0.25 -1.05 L-0.2 -1.0 -0.2 -0.95 -0.25 -0.95 -0.3 -0.95 -0.25 -1.05" fill="#c06e17" fill-rule="evenodd" stroke="none"/>
    <path d="M0.15 -1.1 L0.15 -1.05 0.1 -0.9 Q0.05 -0.85 0.0 -0.9 L-0.05 -0.95 0.0 -1.05 0.05 -1.0 0.1 -1.0 0.1 -1.05 0.05 -1.1 0.15 -1.1 M0.15 -1.05 L0.15 -1.05" fill="#733d0b" fill-rule="evenodd" stroke="none"/>
    <path d="M-0.4 -1.05 L-0.35 -1.05 -0.35 -1.0 Q-0.3 -0.95 -0.35 -0.9 L-0.45 -0.8 -0.5 -0.85 -0.55 -0.9 -0.5 -1.0 -0.4 -1.05" fill="#71400e" fill-rule="evenodd" stroke="none"/>
    <path d="M-0.3 -0.75 Q-0.25 -0.75 -0.25 -0.7 -0.25 -0.65 -0.25 -0.6 L-0.35 -0.6 -0.35 -0.7 -0.3 -0.75" fill="#6d3205" fill-rule="evenodd" stroke="none"/>
    <path d="M-0.8 -0.35 L-0.8 -0.45 -0.7 -0.35 Q-0.6 -0.35 -0.55 -0.45 L-0.55 -0.45 -0.6 -0.5 -0.65 -0.5 -0.65 -0.55 Q-0.6 -0.55 -0.55 -0.65 L-0.55 -0.7 -0.5 -0.75 -0.45 -0.75 -0.4 -0.75 -0.5 -0.5 -0.55 -0.3 -0.55 -0.25 -0.6 -0.25 -0.7 -0.25 -0.75 -0.25 -0.75 -0.3 -0.8 -0.35" fill="#703707" fill-rule="evenodd" stroke="none"/>
    <path d="M-0.15 -0.75 L-0.15 -0.85 -0.1 -0.85 -0.1 -0.8 -0.05 -0.75 0.0 -0.75 0.0 -0.75 -0.1 -0.7 -0.15 -0.75" fill="#c3660d" fill-rule="evenodd" stroke="none"/>
    <path d="M0.0 -0.75 L-0.05 -0.7 -0.05 -0.65 Q-0.05 -0.6 -0.1 -0.6 -0.15 -0.55 -0.2 -0.6 L-0.15 -0.75 -0.1 -0.7 0.0 -0.75" fill="#6a3206" fill-rule="evenodd" stroke="none"/>
    <path d="M-0.5 -1.15 L-0.5 -1.1 -0.6 -1.05 Q-0.65 -1.05 -0.65 -1.05 L-0.6 -1.15 -0.5 -1.15 -0.5 -1.15" fill="#d5a64b" fill-rule="evenodd" stroke="none"/>
    <path d="M-0.5 -1.1 L-0.5 -1.05 -0.55 -1.0 -0.6 -0.95 -0.65 -0.9 -0.7 -0.8 -0.7 -0.75 -0.7 -0.75 -0.75 -0.75 -0.75 -0.75 Q-0.75 -0.8 -0.75 -0.8 L-0.75 -0.85 -0.7 -0.9 -0.7 -1.05 -0.7 -1.05 -0.75 -1.1 -0.7 -1.15 Q-0.65 -1.15 -0.65 -1.15 L-0.55 -1.2 -0.55 -1.2 -0.5 -1.15 -0.6 -1.15 -0.65 -1.05 Q-0.65 -1.05 -0.6 -1.05 L-0.5 -1.1 M-0.5 -1.15 L-0.5 -1.15" fill="#b78d3d" fill-rule="evenodd" stroke="none"/>
    <path d="M-0.6 -0.95 L-0.55 -0.95 Q-0.55 -0.9 -0.55 -0.9 L-0.55 -0.85 Q-0.55 -0.8 -0.6 -0.8 L-0.65 -0.8 -0.7 -0.8 -0.65 -0.9 -0.6 -0.95" fill="#674012" fill-rule="evenodd" stroke="none"/>
    <path d="M-0.95 -1.0 L-0.95 -1.0 Q-0.9 -0.9 -0.95 -0.9 L-1.05 -0.9 -0.95 -0.95 Q-0.9 -0.95 -0.95 -1.0" fill="#b1b19a" fill-rule="evenodd" stroke="none"/>
    <path d="M-1.0 -1.0 L-0.95 -1.0 -0.95 -1.0 -0.95 -1.0 -1.0 -1.0" fill="#bcae8c" fill-rule="evenodd" stroke="none"/>
    <path d="M-0.75 -0.9 L-0.75 -0.85 -0.75 -0.8 Q-0.75 -0.8 -0.75 -0.75 L-0.8 -0.75 -0.85 -0.7 -0.9 -0.7 -0.95 -0.7 -0.95 -0.75 -0.9 -0.7 Q-0.85 -0.7 -0.85 -0.75 L-0.85 -0.75 -0.9 -0.8 -0.85 -0.8 -0.85 -0.85 -0.8 -0.9 -0.8 -0.9 -0.75 -0.9 -0.75 -0.9" fill="#acaa7d" fill-rule="evenodd" stroke="none"/>
    <path d="M-0.9 -0.8 L-0.85 -0.75 -0.85 -0.75 Q-0.85 -0.7 -0.9 -0.7 L-0.95 -0.75 -0.95 -0.8 -0.9 -0.8" fill="#dee0b2" fill-rule="evenodd" stroke="none"/>
    <path d="M-0.85 -0.5 L-0.9 -0.55 -0.95 -0.6 -0.95 -0.6 -0.9 -0.65 -0.95 -0.65 -1.0 -0.65 -1.05 -0.7 -1.0 -0.7 -0.9 -0.7 -0.85 -0.7 -0.75 -0.7 -0.8 -0.7 -0.85 -0.65 -0.8 -0.65 -0.75 -0.6 -0.75 -0.55 -0.8 -0.6 -0.9 -0.6 -0.85 -0.55 -0.85 -0.5 -0.85 -0.5 M-0.75 -0.7 L-0.75 -0.7" fill="#c5a157" fill-rule="evenodd" stroke="none"/>
    <path d="M-0.75 -0.6 L-0.8 -0.65 -0.85 -0.65 -0.8 -0.7 -0.75 -0.7 Q-0.75 -0.7 -0.75 -0.65 L-0.75 -0.6" fill="#fac75f" fill-rule="evenodd" stroke="none"/>
    <path d="M-0.85 -0.7 L-0.8 -0.75 -0.75 -0.75 -0.75 -0.7 -0.85 -0.7 M-0.75 -0.75 L-0.75 -0.75" fill="#6b5f3d" fill-rule="evenodd" stroke="none"/>
    <path d="M-0.7 -0.75 L-0.7 -0.75 -0.7 -0.75 -0.7 -0.7 -0.75 -0.65 Q-0.75 -0.7 -0.75 -0.7 L-0.75 -0.75 -0.7 -0.75 M-0.75 -0.7 L-0.75 -0.7" fill="#ec823d" fill-rule="evenodd" stroke="none"/>
    <path d="M-0.8 -0.45 L-0.75 -0.55 -0.75 -0.6 -0.75 -0.65 -0.7 -0.7 -0.7 -0.75 -0.7 -0.7 -0.7 -0.6 Q-0.75 -0.55 -0.65 -0.55 L-0.7 -0.6 -0.65 -0.7 -0.6 -0.7 -0.55 -0.75 -0.5 -0.75 -0.55 -0.7 -0.55 -0.65 Q-0.6 -0.55 -0.65 -0.55 L-0.65 -0.5 -0.6 -0.5 -0.55 -0.45 -0.55 -0.45 Q-0.6 -0.35 -0.7 -0.35 L-0.8 -0.45" fill="#84480d" fill-rule="evenodd" stroke="none"/>
    <path d="M-0.7 -0.7 L-0.6 -0.75 -0.55 -0.75 -0.6 -0.7 -0.65 -0.7 -0.7 -0.6 -0.65 -0.55 Q-0.75 -0.55 -0.7 -0.6 L-0.7 -0.7" fill="#c4781f" fill-rule="evenodd" stroke="none"/>
    <path d="M-0.95 -0.4 L-0.9 -0.45 -0.85 -0.5 -0.8 -0.55 -0.75 -0.55 -0.8 -0.45 -0.8 -0.35 -0.8 -0.35 -0.85 -0.3 -0.9 -0.3 -0.95 -0.4 -0.95 -0.4 M-0.85 -0.5 L-0.85 -0.5" fill="#fbfbea" fill-rule="evenodd" stroke="none"/>
    <path d="M-0.75 -0.55 L-0.8 -0.55 -0.85 -0.5 -0.85 -0.55 -0.9 -0.6 -0.8 -0.6 -0.75 -0.55" fill="#fbe879" fill-rule="evenodd" stroke="none"/>
    <path d="M-0.95 -0.4 L-0.9 -0.3 -0.85 -0.3 -0.9 -0.3 -0.9 -0.25 -0.95 -0.25 -0.95 -0.3 -0.9 -0.25 -0.95 -0.3 -1.0 -0.35 -0.95 -0.35 -0.95 -0.4" fill="#f1f1a8" fill-rule="evenodd" stroke="none"/>
    <path d="M-0.9 -0.3 L-0.8 -0.3 Q-0.75 -0.25 -0.8 -0.25 L-0.8 -0.15 -0.9 -0.15 -0.9 -0.25 -0.9 -0.3 M-0.9 -0.25 L-0.9 -0.25" fill="#704413" fill-rule="evenodd" stroke="none"/>
    <path d="M-0.8 -0.15 L-0.75 -0.2 -0.7 -0.2 -0.65 -0.2 -0.7 -0.15 -0.8 -0.15" fill="#c56a0e" fill-rule="evenodd" stroke="none"/>
    <path d="M-0.9 -0.15 L-0.9 -0.15 -0.9 -0.2 -0.9 -0.15" fill="#90875e" fill-rule="evenodd" stroke="none"/>
    <path d="M-1.05 -0.15 L-0.9 -0.15 -0.95 -0.15 -1.05 -0.15" fill="#adae6d" fill-rule="evenodd" stroke="none"/>
    <path d="M-0.5 -0.15 L-0.55 -0.1 -0.6 -0.1 -0.65 -0.2 -0.55 -0.2 -0.5 -0.15" fill="#6f3506" fill-rule="evenodd" stroke="none"/>
    <path d="M-0.55 -0.3 L-0.5 -0.3 -0.5 -0.15 -0.55 -0.2 -0.65 -0.2 -0.65 -0.2 -0.6 -0.25 -0.55 -0.25 -0.55 -0.3" fill="#c3670d" fill-rule="evenodd" stroke="none"/>
    <path d="M-0.7 -0.15 L-0.7 -0.05 -0.65 -0.1 -0.6 -0.05 -0.6 -0.05 -0.65 0.0 -0.7 0.0 -0.7 0.05 -0.75 0.0 -0.8 0.0 -0.8 -0.15 -0.7 -0.15" fill="#803d06" fill-rule="evenodd" stroke="none"/>
    <path d="M-0.5 -0.1 L-0.5 0.05 -0.45 0.05 -0.45 0.1 -0.5 0.1 -0.55 0.1 -0.55 0.05 -0.6 0.0 -0.55 -0.05 -0.5 -0.1 M-0.25 -0.25 L-0.2 -0.2 -0.2 -0.1 -0.25 0.0 -0.35 0.0 -0.45 -0.1 -0.45 -0.25 -0.35 -0.3 -0.3 -0.35 -0.25 -0.35 -0.25 -0.3 -0.3 -0.25 -0.35 -0.2 -0.3 -0.15 -0.25 -0.15 -0.25 -0.25" fill="#733606" fill-rule="evenodd" stroke="none"/>
    <path d="M-0.25 -0.45 L-0.1 -0.45 -0.15 -0.5 -0.1 -0.55 Q-0.05 -0.55 -0.05 -0.5 0.0 -0.45 -0.05 -0.4 L-0.1 -0.35 -0.1 -0.25 -0.1 -0.2 -0.1 -0.15 -0.2 -0.3 Q-0.25 -0.4 -0.25 -0.45" fill="#6c3406" fill-rule="evenodd" stroke="none"/>
    <path d="M-0.25 -0.45 Q-0.3 -0.5 -0.2 -0.55 L-0.1 -0.55 -0.15 -0.5 -0.1 -0.45 -0.25 -0.45" fill="#c1660d" fill-rule="evenodd" stroke="none"/>
    <path d="M-0.3 -0.55 L-0.3 -0.5 -0.35 -0.4 -0.35 -0.35 Q-0.4 -0.3 -0.45 -0.35 L-0.45 -0.5 -0.35 -0.55 -0.3 -0.55" fill="#6f3305" fill-rule="evenodd" stroke="none"/>
    <path d="M-0.25 -0.3 L-0.25 -0.25 -0.25 -0.15 -0.3 -0.15 -0.35 -0.2 -0.3 -0.25 -0.25 -0.3" fill="#c0630d" fill-rule="evenodd" stroke="none"/>
    <path d="M-0.15 0.0 L-0.15 -0.05 -0.2 -0.05 -0.2 -0.15 -0.15 -0.15 -0.15 -0.15 -0.1 -0.1 -0.1 -0.05 0.0 -0.1 0.0 0.05 -0.05 0.05 -0.05 0.0 -0.2 0.05 -0.2 0.0 -0.15 0.0" fill="#823e06" fill-rule="evenodd" stroke="none"/>
    <path d="M0.0 -0.1 L0.05 -0.05 0.0 0.05 0.0 -0.1 M-0.25 0.05 L-0.25 0.0 -0.15 0.0 -0.2 0.0 -0.2 0.05 -0.05 0.0 -0.05 0.05 0.0 0.05 -0.05 0.1 -0.15 0.15 -0.2 0.1 -0.25 0.05" fill="#a6550b" fill-rule="evenodd" stroke="none"/>
    <path d="M-2.2 0.05 L-2.2 -0.15 -1.55 0.1 -1.6 0.2 -1.6 0.3 -1.75 0.5 -1.9 0.7 -1.85 0.75 -1.85 0.85 Q-1.85 0.9 -1.8 0.85 L-1.75 0.85 -1.75 0.8 -1.7 0.75 -1.65 0.65 -1.6 0.6 -1.55 0.55 -1.45 0.45 -1.35 0.4 Q-1.3 0.4 -1.3 0.35 L-1.25 0.25 -1.15 0.25 -1.05 0.35 -1.0 0.35 -1.0 0.3 -0.95 0.35 -0.95 0.4 -0.95 0.45 -1.0 0.45 -1.05 0.5 -1.05 0.55 -1.05 0.65 -1.05 0.7 -1.05 0.75 -1.05 0.8 -1.1 0.8 -1.2 0.9 -1.25 1.1 -1.2 1.2 -1.05 1.25 -1.05 1.45 -1.1 1.5 -1.1 1.45 -1.1 1.4 -1.2 1.35 -1.25 1.25 -1.25 1.35 Q-1.3 1.3 -1.3 1.35 L-1.3 1.35 -1.35 1.35 -1.45 1.25 -1.45 1.05 -1.45 0.95 -1.35 0.85 -1.3 0.75 -1.25 0.7 -1.25 0.65 -1.4 0.6 -1.6 0.6 -1.65 0.75 -1.8 0.9 -1.85 0.85 -1.9 0.75 -1.85 0.6 -1.8 0.55 -1.8 0.45 -1.95 0.35 -2.1 0.2 Q-2.1 0.1 -2.2 0.05" fill="#140f06" fill-rule="evenodd" stroke="none"/>
    <path d="M2.2 -1.55 Q2.15 -1.6 2.1 -1.65 L2.05 -1.75 Q2.0 -1.8 1.95 -1.95 1.9 -2.05 1.9 -2.2 L2.2 -2.2 2.2 -1.55" fill="#5a4822" fill-rule="evenodd" stroke="none"/>
    <path d="M2.2 -1.45 L1.9 -1.65 1.8 -1.9 Q1.75 -2.05 1.75 -2.2 L1.9 -2.2 Q1.9 -2.05 1.95 -1.95 2.0 -1.8 2.05 -1.75 L2.1 -1.65 Q2.15 -1.6 2.2 -1.55 L2.2 -1.45" fill="#624f25" fill-rule="evenodd" stroke="none"/>
    <path d="M1.75 -2.2 Q1.75 -2.05 1.8 -1.9 L1.9 -1.65 2.2 -1.45 2.2 -1.35 Q2.1 -1.35 2.0 -1.45 L1.8 -1.6 1.7 -1.85 1.6 -2.2 1.75 -2.2" fill="#6a5629" fill-rule="evenodd" stroke="none"/>
    <path d="M1.6 -2.2 L1.7 -1.85 1.8 -1.6 2.0 -1.45 Q2.1 -1.35 2.2 -1.35 L2.2 -1.2 Q2.1 -1.2 2.0 -1.3 L1.8 -1.45 Q1.7 -1.6 1.6 -1.8 1.5 -1.95 1.5 -2.2 L1.6 -2.2" fill="#725d2d" fill-rule="evenodd" stroke="none"/>
    <path d="M1.35 -2.2 L1.5 -2.2 Q1.5 -1.95 1.6 -1.8 1.7 -1.6 1.8 -1.45 L2.0 -1.3 Q2.1 -1.2 2.2 -1.2 L2.2 -1.05 2.05 -1.1 1.95 -1.1 Q1.7 -1.3 1.55 -1.6 1.45 -1.85 1.35 -2.2" fill="#7a6331" fill-rule="evenodd" stroke="none"/>
    <path d="M0.9 0.45 L0.95 0.45 1.0 0.2 1.05 0.0 1.15 -0.45 1.3 -0.8 1.4 -1.2 Q1.45 -1.3 1.35 -1.55 L1.3 -1.7 1.25 -1.85 1.2 -2.0 1.15 -2.2 1.3 -2.2 Q1.35 -1.8 1.55 -1.4 L1.6 -1.2 1.55 -1.15 1.55 -1.1 1.5 -0.95 1.4 -0.85 1.25 -0.55 1.1 -0.3 1.05 -0.1 1.05 0.1 0.95 0.5 0.9 0.5 0.9 0.45" fill="#856f36" fill-rule="evenodd" stroke="none"/>
    <path d="M0.9 0.4 L0.95 0.45 Q0.95 0.45 0.95 0.4 L1.0 0.05 1.05 -0.25 1.1 -0.5 1.15 -0.7 Q1.2 -0.95 1.2 -1.1 L1.25 -1.45 1.15 -1.8 1.1 -2.0 1.05 -2.2 1.15 -2.2 1.2 -2.0 1.25 -1.85 1.3 -1.7 1.35 -1.55 Q1.45 -1.3 1.4 -1.2 L1.3 -0.8 1.15 -0.45 1.05 0.0 1.0 0.2 0.95 0.45 0.9 0.45 0.9 0.4" fill="#8d7539" fill-rule="evenodd" stroke="none"/>
    <path d="M1.05 -2.2 L1.1 -2.0 1.15 -1.8 1.25 -1.45 1.2 -1.1 Q1.2 -0.95 1.15 -0.7 L1.1 -0.5 1.05 -0.25 1.0 0.05 0.95 0.4 Q0.95 0.45 0.95 0.45 L0.9 0.4 0.95 0.4 0.95 0.3 1.0 0.15 1.0 -0.25 1.05 -0.5 1.1 -0.75 Q1.15 -1.05 1.1 -1.25 1.1 -1.45 1.0 -1.75 L0.95 -1.95 0.9 -2.2 1.05 -2.2 M0.9 0.35 L0.9 0.4 0.9 0.35" fill="#957c3c" fill-rule="evenodd" stroke="none"/>
    <path d="M0.9 0.5 L0.95 0.5 1.05 0.1 1.05 -0.1 1.1 -0.3 1.25 -0.55 1.4 -0.85 1.5 -0.95 1.55 -1.1 1.55 -1.15 1.6 -1.2 1.55 -1.4 Q1.35 -1.8 1.3 -2.2 L1.35 -2.2 Q1.45 -1.85 1.55 -1.6 1.7 -1.3 1.95 -1.1 L2.05 -1.1 2.2 -1.05 2.2 -0.95 2.0 -0.95 1.85 -0.9 Q1.8 -0.9 1.8 -0.85 L1.85 -0.75 1.85 -0.7 1.8 -0.7 1.75 -0.7 1.65 -0.75 Q1.65 -0.75 1.6 -0.75 L1.3 -0.45 Q1.15 -0.25 1.1 -0.1 L1.1 0.1 1.05 0.25 1.0 0.4 0.95 0.55 0.9 0.55 0.9 0.5" fill="#7e6935" fill-rule="evenodd" stroke="none"/>
    <path d="M0.9 -2.2 L0.95 -1.95 1.0 -1.75 Q1.1 -1.45 1.1 -1.25 1.15 -1.05 1.1 -0.75 L1.05 -0.5 1.0 -0.25 1.0 0.15 1.0 -0.25 1.05 -0.8 Q1.05 -1.05 0.95 -1.3 L0.9 -1.55 0.85 -1.8 0.75 -2.0 0.7 -2.2 0.9 -2.2" fill="#9c8340" fill-rule="evenodd" stroke="none"/>
    <path d="M0.7 -2.2 L0.75 -2.0 0.85 -1.8 0.9 -1.55 0.95 -1.3 Q1.05 -1.05 1.05 -0.8 L1.0 -0.25 1.0 -0.35 1.0 -0.6 0.95 -1.1 0.85 -1.35 0.75 -1.65 0.65 -1.75 0.6 -1.85 0.5 -2.0 0.4 -2.1 0.35 -2.15 0.35 -2.2 0.7 -2.2" fill="#a58a44" fill-rule="evenodd" stroke="none"/>
    <path d="M0.0 -1.3 L0.1 -1.35 0.2 -1.3 Q0.35 -1.3 0.5 -1.2 L0.7 -1.0 0.7 -0.9 0.65 -0.95 0.6 -1.0 0.45 -1.15 0.3 -1.25 0.2 -1.25 0.1 -1.25 0.05 -1.3 0.0 -1.3 M0.7 -0.9 L0.7 -0.9" fill="#faef5b" fill-rule="evenodd" stroke="none"/>
    <path d="M0.75 -0.85 L0.75 -0.8 0.75 -0.75 0.7 -0.7 0.6 -0.75 0.6 -0.8 0.55 -0.9 0.55 -0.95 0.6 -1.0 0.65 -0.95 0.7 -0.9 0.6 -0.9 Q0.6 -0.85 0.65 -0.85 L0.7 -0.85 0.75 -0.85 0.75 -0.85" fill="#734712" fill-rule="evenodd" stroke="none"/>
    <path d="M0.35 -1.05 L0.4 -1.05 0.5 -1.05 0.5 -0.95 0.4 -0.9 Q0.35 -0.95 0.35 -1.0 L0.35 -1.05" fill="#7d480f" fill-rule="evenodd" stroke="none"/>
    <path d="M0.7 -0.9 L0.75 -0.85 0.75 -0.85 0.7 -0.85 0.65 -0.85 Q0.6 -0.85 0.6 -0.9 L0.7 -0.9 0.7 -0.9" fill="#bb7d25" fill-rule="evenodd" stroke="none"/>
    <path d="M0.55 -0.75 L0.55 -0.6 0.45 -0.6 Q0.4 -0.6 0.4 -0.65 L0.55 -0.75" fill="#c4690f" fill-rule="evenodd" stroke="none"/>
    <path d="M0.8 -0.65 L0.8 -0.6 0.85 -0.55 0.8 -0.55 0.75 -0.6 Q0.75 -0.55 0.75 -0.55 L0.8 -0.5 0.75 -0.5 0.7 -0.5 0.75 -0.45 0.8 -0.45 0.85 -0.45 0.9 -0.5 0.85 -0.4 0.85 -0.25 0.9 -0.2 0.9 -0.1 0.85 -0.1 0.85 -0.15 0.8 -0.15 0.75 -0.1 0.7 -0.1 0.75 -0.2 0.8 -0.25 Q0.7 -0.2 0.65 -0.25 L0.55 -0.35 0.55 -0.5 0.6 -0.65 0.7 -0.65 0.8 -0.65 M0.85 -0.1 L0.85 -0.1" fill="#854509" fill-rule="evenodd" stroke="none"/>
    <path d="M0.5 -0.95 L0.55 -0.85 0.5 -0.8 0.4 -0.8 0.35 -0.85 Q0.3 -0.85 0.3 -0.9 L0.35 -1.0 Q0.35 -0.95 0.4 -0.9 L0.5 -0.95" fill="#66360b" fill-rule="evenodd" stroke="none"/>
    <path d="M0.3 -1.15 L0.25 -1.1 0.2 -1.1 0.15 -1.15 0.2 -1.2 0.25 -1.2 0.3 -1.15" fill="#794912" fill-rule="evenodd" stroke="none"/>
    <path d="M0.15 -1.05 L0.25 -1.05 0.3 -1.05 0.35 -1.05 0.35 -1.0 0.3 -0.9 Q0.3 -0.85 0.35 -0.85 L0.4 -0.8 0.4 -0.8 0.35 -0.65 Q0.35 -0.55 0.35 -0.5 L0.45 -0.45 0.4 -0.45 0.25 -0.45 0.2 -0.5 0.25 -0.5 0.25 -0.55 0.3 -0.65 0.3 -0.8 0.2 -0.8 0.25 -0.85 0.25 -0.95 0.3 -1.0 0.25 -1.0 0.2 -1.0 0.15 -1.0 0.15 -1.05 0.15 -1.05" fill="#4b1e07" fill-rule="evenodd" stroke="none"/>
    <path d="M0.25 -0.95 L0.2 -0.95 Q0.15 -0.95 0.15 -1.0 L0.2 -1.0 0.25 -1.0 0.3 -1.0 0.25 -0.95" fill="#bf6d17" fill-rule="evenodd" stroke="none"/>
    <path d="M0.0 -1.05 L0.0 -1.1 0.05 -1.1 0.1 -1.05 0.1 -1.0 0.05 -1.0 0.0 -1.05" fill="#c57219" fill-rule="evenodd" stroke="none"/>
    <path d="M0.25 -0.55 L0.15 -0.5 0.05 -0.55 0.0 -0.65 Q0.0 -0.7 0.05 -0.7 L0.1 -0.65 0.1 -0.6 0.15 -0.6 0.2 -0.6 0.2 -0.65 0.25 -0.7 0.25 -0.75 0.3 -0.8 0.3 -0.65 0.25 -0.55 M-0.45 0.3 L-0.4 0.3 -0.4 0.25 -0.4 0.35 Q-0.4 0.4 -0.45 0.4 -0.45 0.4 -0.45 0.45 L-0.45 0.5 -0.4 0.55 -0.4 0.55 -0.4 0.6 -0.45 0.6 -0.5 0.5 -0.6 0.45 -0.6 0.3 -0.45 0.3" fill="#6e3406" fill-rule="evenodd" stroke="none"/>
    <path d="M0.05 -0.7 L0.05 -0.75 0.1 -0.7 0.15 -0.7 0.2 -0.75 Q0.25 -0.75 0.25 -0.75 L0.25 -0.7 0.2 -0.65 0.2 -0.6 0.15 -0.6 0.1 -0.6 0.1 -0.65 0.05 -0.7" fill="#854006" fill-rule="evenodd" stroke="none"/>
    <path d="M0.05 -0.75 L0.1 -0.8 0.2 -0.8 0.3 -0.8 0.25 -0.75 Q0.25 -0.75 0.2 -0.75 L0.15 -0.7 0.1 -0.7 0.05 -0.75" fill="#c4680d" fill-rule="evenodd" stroke="none"/>
    <path d="M0.55 -0.6 L0.5 -0.55 0.5 -0.5 0.55 -0.45 0.55 -0.4 0.5 -0.4 Q0.45 -0.4 0.45 -0.45 L0.45 -0.45 Q0.4 -0.45 0.4 -0.55 L0.35 -0.65 0.4 -0.8 0.45 -0.8 0.55 -0.75 0.4 -0.65 Q0.4 -0.6 0.45 -0.6 L0.55 -0.6" fill="#753806" fill-rule="evenodd" stroke="none"/>
    <path d="M0.4 -0.45 L0.4 -0.3 0.3 -0.15 0.2 -0.1 0.05 -0.1 Q0.0 -0.15 0.0 -0.2 L0.0 -0.35 0.0 -0.4 0.05 -0.45 0.05 -0.4 Q0.05 -0.4 0.05 -0.35 L0.05 -0.2 Q0.05 -0.15 0.15 -0.15 L0.2 -0.2 0.25 -0.25 0.3 -0.3 0.35 -0.3 0.35 -0.35 0.25 -0.4 Q0.25 -0.4 0.25 -0.45 L0.4 -0.45" fill="#723505" fill-rule="evenodd" stroke="none"/>
    <path d="M0.05 -0.45 L0.1 -0.5 0.2 -0.5 0.25 -0.45 Q0.25 -0.4 0.25 -0.4 L0.35 -0.35 0.35 -0.3 0.3 -0.3 0.15 -0.3 Q0.05 -0.35 0.05 -0.4 L0.05 -0.45" fill="#ca6f0e" fill-rule="evenodd" stroke="none"/>
    <path d="M0.3 -0.3 L0.25 -0.25 0.2 -0.2 0.15 -0.15 Q0.05 -0.15 0.05 -0.2 L0.05 -0.35 Q0.05 -0.4 0.05 -0.4 0.05 -0.35 0.15 -0.3 L0.3 -0.3" fill="#8b4406" fill-rule="evenodd" stroke="none"/>
    <path d="M0.4 -0.25 Q0.4 -0.2 0.45 -0.2 L0.55 -0.2 0.55 -0.3 0.6 -0.15 0.55 -0.05 0.5 -0.05 0.5 -0.05 0.4 0.2 0.35 0.15 0.35 0.1 0.4 0.05 0.4 0.0 0.45 -0.05 0.45 -0.05 0.4 -0.1 0.4 -0.25" fill="#8b4206" fill-rule="evenodd" stroke="none"/>
    <path d="M0.55 -0.3 L0.55 -0.2 0.45 -0.2 Q0.4 -0.2 0.4 -0.25 L0.45 -0.35 0.5 -0.35 0.55 -0.3" fill="#cc6f0e" fill-rule="evenodd" stroke="none"/>
    <path d="M0.4 0.0 L0.4 0.05 0.35 0.1 0.35 0.15 0.3 0.25 0.35 0.25 0.4 0.3 0.35 0.35 0.3 0.4 0.3 0.5 0.25 0.45 0.2 0.35 0.15 0.35 Q0.1 0.35 0.1 0.3 0.05 0.25 0.05 0.2 L0.05 0.05 0.2 0.1 0.3 0.05 0.3 -0.1 0.35 -0.1 0.4 -0.05 0.4 0.0" fill="#753706" fill-rule="evenodd" stroke="none"/>
    <path d="M0.05 0.05 Q0.05 -0.05 0.1 -0.05 0.2 -0.1 0.25 -0.05 L0.3 0.0 0.3 0.05 0.2 0.1 0.05 0.05" fill="#a3550a" fill-rule="evenodd" stroke="none"/>
    <path d="M0.95 -0.25 L0.95 -0.6 0.95 -0.6 0.95 -0.3 0.95 0.25 Q0.9 0.2 0.9 0.1 L0.85 -0.05 0.85 -0.1 0.9 -0.1 Q0.9 -0.05 0.9 -0.1 L0.9 -0.2 0.95 -0.25" fill="#bea439" fill-rule="evenodd" stroke="none"/>
    <path d="M0.85 -0.55 L0.85 -0.5 0.9 -0.5 0.85 -0.45 0.8 -0.45 0.75 -0.45 0.7 -0.5 0.75 -0.5 0.8 -0.5 0.75 -0.55 Q0.75 -0.55 0.75 -0.6 L0.8 -0.55 0.85 -0.55" fill="#c47a1f" fill-rule="evenodd" stroke="none"/>
    <path d="M0.4 0.2 L0.5 -0.05 0.5 -0.05 0.55 -0.05 0.55 -0.05 0.6 -0.05 0.55 0.0 0.5 0.0 0.5 0.05 0.45 0.05 0.6 0.1 0.55 0.15 0.4 0.2" fill="#a55308" fill-rule="evenodd" stroke="none"/>
    <path d="M0.6 0.1 L0.45 0.05 0.5 0.05 0.5 0.0 0.55 0.0 0.6 -0.05 0.6 0.1" fill="#cb6d0e" fill-rule="evenodd" stroke="none"/>
    <path d="M0.9 0.5 L0.9 0.55 0.8 0.6 0.75 0.7 0.75 0.65 0.75 0.5 0.7 0.55 0.7 0.45 0.75 0.35 0.65 0.35 Q0.6 0.35 0.55 0.3 L0.55 0.25 0.6 0.25 0.6 0.2 0.7 0.15 Q0.6 0.15 0.65 0.05 L0.7 -0.1 0.75 -0.1 0.8 -0.15 0.85 -0.15 0.85 -0.1 0.8 -0.1 0.8 0.05 0.75 0.1 0.8 0.1 0.8 0.15 0.75 0.35 0.75 0.45 Q0.75 0.5 0.8 0.5 L0.85 0.55 0.9 0.5" fill="#a84e09" fill-rule="evenodd" stroke="none"/>
    <path d="M0.85 -0.1 L0.85 -0.1 0.85 -0.05 Q0.8 0.0 0.85 0.1 L0.85 0.3 Q0.8 0.3 0.75 0.35 L0.8 0.15 0.8 0.1 0.75 0.1 0.8 0.05 0.8 -0.1 0.85 -0.1" fill="#6c310d" fill-rule="evenodd" stroke="none"/>
    <path d="M1.0 0.15 L0.95 0.3 0.95 0.4 0.9 0.4 0.9 0.35 0.85 0.3 0.85 0.1 Q0.8 0.0 0.85 -0.05 L0.9 0.1 Q0.9 0.2 0.95 0.25 L0.95 -0.3 1.0 -0.35 1.0 -0.25 1.0 0.15" fill="#a88f30" fill-rule="evenodd" stroke="none"/>
    <path d="M1.05 0.25 L1.1 0.1 1.1 -0.1 Q1.15 -0.25 1.3 -0.45 L1.6 -0.75 Q1.65 -0.75 1.65 -0.75 L1.75 -0.7 1.8 -0.7 1.85 -0.6 Q1.85 -0.5 1.85 -0.5 L2.05 -0.35 2.2 -0.2 2.2 -0.05 2.05 -0.15 1.9 -0.3 1.65 -0.45 1.55 -0.45 1.45 -0.4 Q1.35 -0.4 1.25 -0.3 L1.15 -0.15 Q1.15 -0.05 1.1 0.05 L1.05 0.25" fill="#736439" fill-rule="evenodd" stroke="none"/>
    <path d="M2.2 -0.2 L2.05 -0.35 1.85 -0.5 Q1.85 -0.5 1.85 -0.6 L1.8 -0.7 1.85 -0.7 1.85 -0.75 1.8 -0.85 Q1.8 -0.9 1.85 -0.9 L2.0 -0.95 2.2 -0.95 2.2 -0.2" fill="#7e6c3e" fill-rule="evenodd" stroke="none"/>
    <path d="M1.45 -0.4 L1.55 -0.45 1.65 -0.45 1.9 -0.3 2.05 -0.15 2.2 -0.05 2.2 0.1 2.0 0.0 1.75 -0.15 1.65 -0.25 1.6 -0.3 1.55 -0.3 1.5 -0.3 1.5 -0.35 1.55 -0.4 1.5 -0.4 Q1.45 -0.4 1.45 -0.4" fill="#685c39" fill-rule="evenodd" stroke="none"/>
    <path d="M1.05 0.45 L1.0 0.55 0.95 0.65 0.95 0.6 0.9 0.55 0.95 0.55 1.0 0.4 1.05 0.25 1.1 0.05 Q1.15 -0.05 1.15 -0.15 L1.25 -0.3 Q1.35 -0.4 1.45 -0.4 1.45 -0.4 1.5 -0.4 L1.55 -0.4 1.5 -0.35 1.5 -0.3 1.55 -0.3 1.4 -0.25 1.35 -0.15 Q1.3 -0.1 1.3 0.0 L1.25 0.15 1.15 0.3 1.05 0.45" fill="#6a5c2f" fill-rule="evenodd" stroke="none"/>
    <path d="M1.2 0.4 Q1.15 0.4 1.05 0.45 L1.15 0.3 1.25 0.15 1.3 0.0 Q1.3 -0.1 1.35 -0.15 L1.4 -0.25 1.55 -0.3 1.6 -0.3 1.65 -0.25 1.75 -0.15 2.0 0.0 2.2 0.1 2.2 0.2 1.8 0.1 1.75 0.1 1.7 0.0 1.65 -0.05 1.55 -0.05 Q1.5 0.0 1.5 0.1 L1.5 0.25 Q1.3 0.3 1.2 0.4" fill="#5e5332" fill-rule="evenodd" stroke="none"/>
    <path d="M1.2 0.4 Q1.3 0.3 1.5 0.25 L1.5 0.1 Q1.5 0.0 1.55 -0.05 L1.65 -0.05 1.7 0.0 1.75 0.1 1.8 0.1 2.2 0.2 2.2 0.4 Q2.1 0.4 1.95 0.4 L1.85 0.45 1.75 0.45 1.65 0.4 1.55 0.4 1.4 0.4 1.2 0.4" fill="#554d32" fill-rule="evenodd" stroke="none"/>
    <path d="M1.1 0.55 Q1.1 0.5 1.15 0.45 L1.2 0.4 1.4 0.4 1.55 0.4 1.65 0.4 1.75 0.45 1.85 0.45 1.95 0.4 Q2.1 0.4 2.2 0.4 L2.2 0.55 2.0 0.55 1.8 0.6 1.65 0.5 1.5 0.45 1.25 0.45 Q1.15 0.45 1.1 0.55" fill="#4c442c" fill-rule="evenodd" stroke="none"/>
    <path d="M2.2 0.6 L2.2 0.75 2.05 0.75 1.85 0.75 1.65 0.7 1.3 0.6 Q1.2 0.65 1.1 0.7 1.05 0.8 1.0 0.95 L0.95 0.95 0.95 0.9 0.95 0.8 Q1.0 0.85 1.0 0.85 L1.05 0.75 1.05 0.65 Q1.1 0.6 1.2 0.55 L1.3 0.55 1.4 0.55 1.55 0.55 1.8 0.65 1.95 0.65 2.05 0.65 2.2 0.6" fill="#39321e" fill-rule="evenodd" stroke="none"/>
    <path d="M2.2 0.75 L2.2 0.85 1.95 0.85 1.75 0.8 Q1.6 0.7 1.45 0.7 L1.15 0.75 1.1 0.8 1.05 0.9 1.05 0.95 1.0 1.0 0.95 0.95 1.0 0.95 Q1.05 0.8 1.1 0.7 1.2 0.65 1.3 0.6 L1.65 0.7 1.85 0.75 2.05 0.75 2.2 0.75" fill="#2e2919" fill-rule="evenodd" stroke="none"/>
    <path d="M0.95 0.75 L0.95 0.75 1.0 0.75 1.05 0.65 1.1 0.55 Q1.15 0.45 1.25 0.45 L1.5 0.45 1.65 0.5 1.8 0.6 2.0 0.55 2.2 0.55 2.2 0.6 2.05 0.65 1.95 0.65 1.8 0.65 1.55 0.55 1.4 0.55 1.3 0.55 1.2 0.55 Q1.1 0.6 1.05 0.65 L1.05 0.75 1.0 0.85 Q1.0 0.85 0.95 0.8 L0.95 0.9 0.95 0.85 0.95 0.75" fill="#433b24" fill-rule="evenodd" stroke="none"/>
    <path d="M2.2 0.95 L2.2 1.0 2.0 1.05 1.8 1.0 1.7 1.0 1.65 0.95 1.45 0.95 1.4 0.95 1.3 0.95 1.25 1.0 1.2 1.05 1.1 1.15 1.1 1.2 1.05 1.25 1.05 1.2 1.0 1.15 1.1 1.0 1.1 0.95 1.15 0.85 1.2 0.85 1.45 0.8 1.9 0.95 2.2 0.95" fill="#1c170e" fill-rule="evenodd" stroke="none"/>
    <path d="M2.2 1.25 L2.2 1.45 2.15 1.4 2.1 1.35 2.1 1.25 2.05 1.25 2.0 1.3 1.95 1.25 1.9 1.3 1.85 1.35 1.85 1.3 1.8 1.2 Q1.8 1.2 1.75 1.3 L1.75 1.3 1.7 1.25 1.65 1.25 1.65 1.3 1.6 1.25 1.55 1.25 1.55 1.4 1.5 1.35 1.5 1.3 1.45 1.3 1.4 1.25 1.4 1.4 1.35 1.35 1.35 1.3 1.25 1.3 1.2 1.3 Q1.2 1.25 1.2 1.25 L1.15 1.3 1.1 1.3 1.05 1.4 1.0 1.45 1.05 1.4 1.1 1.3 1.15 1.2 1.2 1.2 1.25 1.25 1.25 1.2 1.3 1.2 1.45 1.2 1.6 1.2 1.65 1.15 1.8 1.2 1.9 1.2 1.95 1.2 2.0 1.2 2.05 1.2 2.1 1.2 2.15 1.25 2.2 1.25" fill="#0a0805" fill-rule="evenodd" stroke="none"/>
    <path d="M2.2 1.0 L2.2 1.25 2.15 1.25 2.1 1.2 2.05 1.2 2.0 1.2 1.95 1.2 1.9 1.2 1.8 1.2 1.65 1.15 1.6 1.2 1.45 1.2 1.3 1.2 1.25 1.2 1.25 1.25 1.2 1.2 1.15 1.2 1.1 1.3 1.05 1.4 1.05 1.25 1.1 1.2 1.1 1.15 1.2 1.05 1.25 1.0 1.3 0.95 1.4 0.95 1.45 0.95 1.65 0.95 1.7 1.0 1.8 1.0 2.0 1.05 2.2 1.0" fill="#13100a" fill-rule="evenodd" stroke="none"/>
    <path d="M2.2 0.85 L2.2 0.95 1.9 0.95 1.45 0.8 1.2 0.85 1.15 0.85 1.1 0.95 1.1 1.0 1.0 1.15 1.0 1.0 1.05 0.95 1.05 0.9 1.1 0.8 1.15 0.75 1.45 0.7 Q1.6 0.7 1.75 0.8 L1.95 0.85 2.2 0.85" fill="#252013" fill-rule="evenodd" stroke="none"/>
    <path d="M2.2 1.45 L2.2 2.2 -2.2 2.2 -2.2 0.05 Q-2.1 0.1 -2.1 0.2 L-1.95 0.35 -1.8 0.45 -1.8 0.55 -1.85 0.6 -1.9 0.75 -1.85 0.85 -1.8 0.9 -1.65 0.75 -1.6 0.6 -1.4 0.6 -1.25 0.65 -1.25 0.7 -1.3 0.75 -1.35 0.85 -1.45 0.95 -1.45 1.05 -1.45 1.25 -1.35 1.35 -1.3 1.35 -1.3 1.35 Q-1.3 1.3 -1.25 1.35 L-1.25 1.25 -1.2 1.35 -1.1 1.4 -1.1 1.45 -1.1 1.5 -1.05 1.45 -1.05 1.5 -1.0 1.55 -1.05 1.45 -1.0 1.4 -1.0 1.45 -1.0 1.45 -0.95 1.5 -0.9 1.35 -0.9 1.35 Q-0.85 1.3 -0.85 1.3 L-0.8 1.35 -0.8 1.3 -0.75 1.2 -0.7 1.1 -0.75 1.15 -0.7 1.2 -0.7 1.3 -0.65 1.4 -0.65 1.35 -0.65 1.3 -0.6 1.3 -0.55 1.4 -0.55 1.4 Q-0.55 1.3 -0.5 1.4 L-0.5 1.3 -0.5 1.35 -0.45 1.45 -0.4 1.45 -0.4 1.35 -0.45 1.25 -0.4 1.3 -0.35 1.35 -0.35 1.35 -0.35 1.3 -0.3 1.3 -0.3 1.35 -0.25 1.45 -0.2 1.3 -0.2 1.25 -0.15 1.3 -0.15 1.25 -0.1 1.3 -0.1 1.25 Q-0.1 1.2 -0.1 1.25 L-0.1 1.3 -0.1 1.35 Q-0.1 1.4 -0.05 1.35 L-0.05 1.4 -0.05 1.4 0.0 1.45 0.0 1.45 0.0 1.35 0.05 1.45 0.05 1.35 0.0 1.25 0.0 1.2 0.05 1.4 0.1 1.35 0.05 1.25 0.1 1.35 0.1 1.3 0.1 1.25 Q0.15 1.25 0.15 1.25 L0.15 1.3 0.2 1.35 0.25 1.4 0.2 1.3 0.25 1.3 Q0.25 1.35 0.25 1.3 L0.25 1.35 0.3 1.35 0.3 1.3 0.3 1.25 0.35 1.3 0.35 1.35 0.4 1.45 0.4 1.25 0.4 1.3 0.45 1.3 0.45 1.35 0.5 1.3 0.5 1.4 0.55 1.35 0.55 1.3 0.6 1.25 0.6 1.3 0.65 1.35 0.7 1.3 0.75 1.35 0.75 1.3 0.75 1.35 Q0.75 1.35 0.8 1.35 L0.85 1.35 0.9 1.4 0.9 1.2 0.95 1.25 0.95 1.3 1.0 1.3 1.0 1.45 1.05 1.4 1.1 1.3 1.15 1.3 1.2 1.25 Q1.2 1.25 1.2 1.3 L1.25 1.3 1.35 1.3 1.35 1.35 1.4 1.4 1.4 1.25 1.45 1.3 1.5 1.3 1.5 1.35 1.55 1.4 1.55 1.25 1.6 1.25 1.65 1.3 1.65 1.25 1.7 1.25 1.75 1.3 1.75 1.3 Q1.8 1.2 1.8 1.2 L1.85 1.3 1.85 1.35 1.9 1.3 1.95 1.25 2.0 1.3 2.05 1.25 2.1 1.25 2.1 1.35 2.15 1.4 2.2 1.45 M0.9 1.3 L0.85 1.35 0.85 1.25 0.9 1.3 M0.7 1.3 L0.7 1.45 0.7 1.3 M0.35 1.4 L0.35 1.3 Q0.3 1.35 0.3 1.35 L0.3 1.45 0.35 1.5 Q0.35 1.45 0.35 1.4 M0.25 1.4 L0.2 1.4 0.25 1.45 0.25 1.4 M0.0 1.35 L0.0 1.35 M-0.3 1.3 L-0.3 1.3 M-0.95 1.5 L-0.95 1.55 Q-0.9 1.6 -0.95 1.5 M0.05 1.5 L0.05 1.5 M0.0 1.5 L-0.05 1.5 -0.05 1.55 0.0 1.5 0.0 1.5 M-0.45 1.5 L-0.45 1.55 -0.4 1.5 Q-0.4 1.45 -0.45 1.5 L-0.45 1.5 M-0.75 1.35 L-0.75 1.4 -0.7 1.35 -0.75 1.3 -0.75 1.35 M-0.65 1.4 L-0.65 1.45 -0.6 1.5 Q-0.6 1.45 -0.65 1.4 M-0.6 1.45 L-0.6 1.45 -0.55 1.5 -0.55 1.45 -0.6 1.45 M-0.85 1.5 L-0.85 1.35 -0.85 1.5" fill="#020100" fill-rule="evenodd" stroke="none"/>
    <path d="M0.9 0.4 L0.9 0.45 0.9 0.55 0.9 0.5 0.9 0.4 0.85 0.3 0.9 0.4 M0.9 0.6 L0.9 0.55 0.95 0.6 0.95 0.65 1.0 0.55 1.05 0.45 Q1.15 0.4 1.2 0.4 L1.15 0.45 Q1.1 0.5 1.1 0.55 L1.05 0.65 1.0 0.75 0.95 0.75 0.95 0.75 0.95 0.7 0.9 0.6" fill="#5b4b1e" fill-rule="evenodd" stroke="none"/>
    <path d="M1.05 1.2 L1.05 1.25 1.0 1.25 1.0 1.2 1.05 1.2" fill="#b75e25" fill-rule="evenodd" stroke="none"/>
    <path d="M1.0 1.15 L1.05 1.2 1.0 1.2 0.95 1.2 0.95 1.1 0.85 1.0 0.9 0.95 0.95 0.95 1.0 1.0 1.0 1.15" fill="#fbac20" fill-rule="evenodd" stroke="none"/>
    <path d="M0.55 0.3 Q0.6 0.35 0.65 0.35 L0.75 0.35 0.7 0.45 0.7 0.55 0.65 0.6 0.6 0.6 0.6 0.65 0.6 0.75 0.55 0.75 0.55 0.7 0.55 0.65 0.5 0.65 0.5 0.55 0.5 0.4 Q0.5 0.35 0.55 0.3" fill="#ce600a" fill-rule="evenodd" stroke="none"/>
    <path d="M0.55 0.25 L0.55 0.3 0.5 0.25 0.45 0.3 0.4 0.3 0.35 0.25 0.45 0.25 0.5 0.25 0.55 0.25" fill="#f18210" fill-rule="evenodd" stroke="none"/>
    <path d="M0.7 0.55 L0.75 0.5 0.75 0.65 0.75 0.7 0.7 0.65 0.65 0.65 0.6 0.65 0.6 0.6 0.65 0.6 0.7 0.55" fill="#fff01e" fill-rule="evenodd" stroke="none"/>
    <path d="M0.75 0.5 L0.75 0.65 0.75 0.5" fill="#fb830d" fill-rule="evenodd" stroke="none"/>
    <path d="M0.85 0.3 L0.9 0.4 0.9 0.5 0.85 0.55 0.8 0.5 Q0.75 0.5 0.75 0.45 L0.75 0.35 Q0.8 0.3 0.85 0.3" fill="#d86c10" fill-rule="evenodd" stroke="none"/>
    <path d="M0.9 0.55 L0.9 0.6 0.85 0.65 0.95 0.7 0.95 0.75 0.95 0.85 0.85 0.8 0.75 0.7 0.8 0.6 0.9 0.55" fill="#fd8b14" fill-rule="evenodd" stroke="none"/>
    <path d="M0.9 0.6 L0.95 0.7 0.85 0.65 0.9 0.6" fill="#fef13c" fill-rule="evenodd" stroke="none"/>
    <path d="M0.05 0.35 L0.05 0.45 0.0 0.55 -0.05 0.6 -0.15 0.65 -0.15 0.65 -0.2 0.65 -0.3 0.65 -0.35 0.6 -0.35 0.4 Q-0.3 0.45 -0.3 0.5 L-0.3 0.6 -0.2 0.55 -0.1 0.5 -0.05 0.5 -0.05 0.45 Q0.0 0.4 0.0 0.4 L0.05 0.35" fill="#773907" fill-rule="evenodd" stroke="none"/>
    <path d="M0.1 0.55 L0.1 0.4 0.2 0.4 0.2 0.45 0.2 0.55 0.1 0.55" fill="#e47910" fill-rule="evenodd" stroke="none"/>
    <path d="M0.1 0.7 L0.05 0.65 0.1 0.55 0.2 0.55 0.2 0.45 0.25 0.55 0.25 0.65 0.25 0.7 0.15 0.7 0.1 0.7" fill="#904407" fill-rule="evenodd" stroke="none"/>
    <path d="M0.5 0.55 L0.5 0.65 0.45 0.65 0.45 0.55 Q0.4 0.55 0.35 0.55 L0.3 0.5 0.3 0.4 0.35 0.35 0.4 0.3 0.45 0.3 0.4 0.4 0.45 0.5 0.5 0.55" fill="#8b3d08" fill-rule="evenodd" stroke="none"/>
    <path d="M0.55 0.3 Q0.5 0.35 0.5 0.4 L0.5 0.55 0.45 0.5 0.4 0.4 0.45 0.3 0.5 0.25 0.55 0.3" fill="#b25608" fill-rule="evenodd" stroke="none"/>
    <path d="M0.25 0.7 L0.3 0.65 Q0.25 0.6 0.3 0.55 L0.35 0.55 0.35 0.7 0.4 0.7 0.4 0.75 0.35 0.75 0.3 0.7 0.3 0.75 0.25 0.8 0.25 0.7" fill="#8c3909" fill-rule="evenodd" stroke="none"/>
    <path d="M0.35 0.55 Q0.4 0.55 0.45 0.55 L0.45 0.65 0.45 0.7 0.4 0.75 0.4 0.7 0.35 0.7 0.35 0.55" fill="#cf610a" fill-rule="evenodd" stroke="none"/>
    <path d="M0.5 0.65 L0.55 0.65 0.55 0.7 0.5 0.7 0.45 0.7 0.45 0.65 0.5 0.65" fill="#ffea1e" fill-rule="evenodd" stroke="none"/>
    <path d="M0.15 0.9 L0.2 0.9 0.3 0.9 0.35 0.85 0.4 0.75 0.45 0.8 0.5 0.8 0.45 0.8 0.4 0.8 0.4 0.85 0.35 0.9 0.4 0.95 0.35 0.95 Q0.3 0.95 0.3 0.95 L0.25 1.05 0.2 1.1 0.25 1.15 Q0.2 1.15 0.15 1.15 0.1 1.2 0.15 1.25 L0.1 1.2 0.1 1.25 0.1 1.3 0.1 1.35 0.05 1.25 0.05 1.2 0.15 1.15 0.2 1.1 Q0.25 0.95 0.15 0.95 L0.15 0.9 M0.1 1.3 L0.1 1.3" fill="#c0480d" fill-rule="evenodd" stroke="none"/>
    <path d="M0.55 0.7 L0.55 0.75 0.6 0.75 0.6 0.65 0.65 0.65 0.7 0.65 0.75 0.7 0.7 0.7 0.65 0.75 0.6 0.8 0.55 0.8 0.5 0.8 0.45 0.8 0.4 0.75 0.45 0.7 0.5 0.7 0.55 0.7" fill="#fe8c10" fill-rule="evenodd" stroke="none"/>
    <path d="M0.4 0.75 L0.35 0.85 0.3 0.9 0.2 0.9 0.15 0.9 0.15 0.85 0.2 0.8 0.25 0.8 0.3 0.75 0.3 0.7 0.35 0.75 0.4 0.75 M-0.05 1.3 L-0.05 1.3 0.0 1.35 -0.05 1.35 -0.05 1.3" fill="#ec710b" fill-rule="evenodd" stroke="none"/>
    <path d="M0.4 0.85 L0.4 0.8 0.45 0.8 0.5 0.8 Q0.5 0.8 0.5 0.85 L0.5 0.9 0.45 0.9 0.4 0.85" fill="#fff925" fill-rule="evenodd" stroke="none"/>
    <path d="M0.4 0.95 L0.35 0.9 0.4 0.85 0.45 0.9 0.5 0.9 0.45 0.95 0.4 0.95" fill="#ffb310" fill-rule="evenodd" stroke="none"/>
    <path d="M0.15 1.25 Q0.1 1.2 0.15 1.15 0.2 1.15 0.25 1.15 L0.3 1.2 0.35 1.2 0.4 1.1 Q0.45 1.0 0.4 0.95 L0.45 0.95 0.5 0.9 0.5 0.85 Q0.5 0.8 0.5 0.8 L0.55 0.8 0.6 0.8 0.65 0.75 0.7 0.7 0.75 0.75 0.7 0.8 0.75 0.8 0.7 0.8 Q0.65 0.85 0.7 0.9 L0.7 0.95 0.75 0.95 0.75 1.0 0.7 1.0 0.65 1.1 0.7 1.15 0.75 1.15 0.8 1.1 0.8 1.05 0.8 1.2 0.75 1.2 Q0.7 1.2 0.7 1.2 L0.7 1.3 0.7 1.25 0.7 1.2 0.65 1.2 0.6 1.2 0.6 1.25 0.55 1.2 0.55 1.3 0.55 1.35 0.5 1.4 0.5 1.3 0.55 1.25 0.5 1.2 0.45 1.15 0.4 1.15 0.35 1.2 0.3 1.25 Q0.3 1.25 0.3 1.3 L0.25 1.25 0.2 1.25 0.15 1.25 M0.35 1.25 L0.35 1.2 0.35 1.25 M0.5 1.0 L0.5 1.05 0.45 1.1 0.55 1.15 0.65 1.05 0.7 0.9 0.65 0.9 0.6 0.9 0.55 0.95 0.5 1.0" fill="#f76712" fill-rule="evenodd" stroke="none"/>
    <path d="M0.25 0.8 L0.2 0.8 0.15 0.85 0.1 0.85 0.1 0.8 0.15 0.75 0.15 0.7 0.25 0.7 0.25 0.8" fill="#fd9814" fill-rule="evenodd" stroke="none"/>
    <path d="M0.15 0.85 L0.15 0.9 0.1 0.85 0.1 0.9 0.05 0.8 Q0.05 0.75 0.1 0.7 L0.15 0.7 0.15 0.75 0.1 0.8 0.1 0.85 0.15 0.85" fill="#c55f09" fill-rule="evenodd" stroke="none"/>
    <path d="M-0.1 0.65 L-0.1 0.7 -0.05 0.75 -0.05 0.65 0.0 0.65 0.0 0.7 0.05 0.7 0.1 0.7 Q0.05 0.75 0.05 0.8 L0.1 0.9 0.1 0.85 0.15 0.9 0.15 0.95 0.1 0.95 0.05 0.95 0.0 0.9 0.05 0.8 0.0 0.75 Q0.0 0.95 -0.1 1.0 L-0.2 0.95 -0.2 0.9 -0.25 0.85 -0.3 0.8 -0.3 0.75 -0.2 0.85 Q-0.1 0.85 -0.05 0.8 -0.05 0.75 -0.1 0.8 L-0.15 0.75 -0.15 0.7 -0.1 0.65 M-0.1 1.0 L-0.1 1.0" fill="#954608" fill-rule="evenodd" stroke="none"/>
    <path d="M-0.1 1.0 Q0.0 0.95 0.0 0.75 L0.05 0.8 0.0 0.9 0.05 0.95 0.1 0.95 0.05 1.0 0.0 1.05 0.0 1.1 -0.1 1.0" fill="#7f3009" fill-rule="evenodd" stroke="none"/>
    <path d="M0.15 0.95 Q0.25 0.95 0.2 1.1 L0.15 1.15 0.05 1.2 0.05 1.0 0.15 0.95" fill="#fc7f0c" fill-rule="evenodd" stroke="none"/>
    <path d="M0.0 1.1 L0.0 1.05 0.05 1.0 0.05 1.2 -0.05 1.2 -0.15 1.2 -0.15 1.2 -0.15 1.1 -0.05 1.1 0.0 1.1" fill="#d3630b" fill-rule="evenodd" stroke="none"/>
    <path d="M0.05 1.2 L0.05 1.25 0.05 1.2" fill="#522005" fill-rule="evenodd" stroke="none"/>
    <path d="M0.25 1.15 L0.2 1.1 0.25 1.05 0.3 1.05 0.35 1.05 0.3 1.0 0.3 0.95 Q0.3 0.95 0.35 0.95 L0.4 0.95 Q0.45 1.0 0.4 1.1 L0.35 1.2 0.3 1.2 0.25 1.15" fill="#ff9511" fill-rule="evenodd" stroke="none"/>
    <path d="M0.1 1.25 L0.1 1.2 0.15 1.25 0.2 1.25 0.25 1.3 0.2 1.3 Q0.2 1.25 0.15 1.3 L0.15 1.25 Q0.15 1.25 0.1 1.25" fill="#4e1f05" fill-rule="evenodd" stroke="none"/>
    <path d="M0.25 1.05 L0.3 0.95 0.3 1.0 0.35 1.05 0.3 1.05 0.25 1.05" fill="#fff923" fill-rule="evenodd" stroke="none"/>
    <path d="M0.3 1.25 L0.35 1.2 0.35 1.25 0.35 1.3 0.3 1.25" fill="#652507" fill-rule="evenodd" stroke="none"/>
    <path d="M0.45 1.25 L0.5 1.2 0.45 1.25" fill="#b05509" fill-rule="evenodd" stroke="none"/>
    <path d="M0.4 1.15 L0.45 1.15 0.5 1.2 0.55 1.25 0.5 1.3 0.45 1.25 0.45 1.2 0.4 1.15 M0.45 1.25 L0.5 1.2 0.45 1.25" fill="#ffb717" fill-rule="evenodd" stroke="none"/>
    <path d="M0.35 1.2 L0.4 1.15 0.45 1.2 0.45 1.25 0.45 1.3 0.4 1.25 Q0.4 1.2 0.4 1.25 L0.35 1.2" fill="#ffee27" fill-rule="evenodd" stroke="none"/>
    <path d="M0.7 0.9 L0.65 1.05 0.55 1.15 0.45 1.1 0.5 1.05 0.5 1.0 Q0.55 1.0 0.55 1.0 L0.65 1.0 0.6 0.95 0.6 0.9 0.65 0.9 0.7 0.9" fill="#ffbe15" fill-rule="evenodd" stroke="none"/>
    <path d="M0.75 0.95 L0.7 0.95 0.7 0.9 Q0.65 0.85 0.7 0.8 L0.75 0.8 0.8 0.8 0.8 0.85 0.75 0.9 0.75 0.95" fill="#ffbc11" fill-rule="evenodd" stroke="none"/>
    <path d="M0.95 0.9 L0.95 0.95 0.9 0.95 0.85 1.0 Q0.8 1.15 0.9 1.2 L0.9 1.4 0.85 1.35 0.9 1.3 0.9 1.25 0.85 1.2 0.85 1.25 0.8 1.2 Q0.8 1.15 0.8 1.2 L0.8 1.05 0.8 1.0 0.75 1.0 0.75 0.95 0.75 0.9 0.8 0.85 0.8 0.8 0.75 0.8 0.7 0.8 0.75 0.75 0.7 0.7 0.75 0.7 0.85 0.8 0.95 0.85 0.95 0.9 M0.85 0.9 L0.8 0.9 0.8 1.0 0.85 0.95 0.85 0.9" fill="#da5410" fill-rule="evenodd" stroke="none"/>
    <path d="M0.85 0.9 L0.85 0.95 0.8 1.0 0.8 0.9 0.85 0.9" fill="#ffab0f" fill-rule="evenodd" stroke="none"/>
    <path d="M0.8 1.1 L0.75 1.15 0.7 1.15 0.65 1.1 0.7 1.0 0.7 1.05 0.8 1.1" fill="#ffa813" fill-rule="evenodd" stroke="none"/>
    <path d="M0.8 1.05 L0.8 1.1 0.7 1.05 0.7 1.0 0.75 1.0 0.8 1.0 0.8 1.05" fill="#fffb2a" fill-rule="evenodd" stroke="none"/>
    <path d="M0.5 1.0 L0.55 0.95 0.6 0.9 0.6 0.95 0.65 1.0 0.55 1.0 Q0.55 1.0 0.5 1.0" fill="#fffd2b" fill-rule="evenodd" stroke="none"/>
    <path d="M0.6 1.25 L0.6 1.2 0.65 1.2 0.7 1.2 0.7 1.25 0.65 1.3 0.65 1.3 0.6 1.3 0.6 1.25" fill="#fef328" fill-rule="evenodd" stroke="none"/>
    <path d="M0.55 1.3 L0.55 1.2 0.6 1.25 0.55 1.3" fill="#6c2908" fill-rule="evenodd" stroke="none"/>
    <path d="M0.75 1.2 L0.8 1.2 0.8 1.25 0.75 1.2" fill="#fff424" fill-rule="evenodd" stroke="none"/>
    <path d="M0.8 1.2 Q0.8 1.15 0.8 1.2 L0.85 1.25 0.8 1.2" fill="#532204" fill-rule="evenodd" stroke="none"/>
    <path d="M1.0 1.2 L1.0 1.25 0.95 1.25 0.9 1.2 Q0.8 1.15 0.85 1.0 L0.95 1.1 0.95 1.2 1.0 1.2 M0.95 1.3 L1.0 1.25 1.0 1.3 0.95 1.3" fill="#fb8a12" fill-rule="evenodd" stroke="none"/>
    <path d="M0.85 1.25 L0.85 1.2 0.9 1.25 0.9 1.3 0.85 1.25" fill="#4d1b06" fill-rule="evenodd" stroke="none"/>
    <path d="M0.7 1.3 L0.7 1.2 Q0.7 1.2 0.75 1.2 L0.75 1.3 0.7 1.3 0.7 1.45 0.7 1.3" fill="#fad81d" fill-rule="evenodd" stroke="none"/>
    <path d="M1.0 1.3 L1.0 1.25 1.0 1.3" fill="#291604" fill-rule="evenodd" stroke="none"/>
    <path d="M1.05 1.4 L1.0 1.45 1.0 1.3 1.0 1.25 1.05 1.25 1.05 1.4" fill="#f9d22f" fill-rule="evenodd" stroke="none"/>
    <path d="M0.95 1.25 L1.0 1.25 0.95 1.3 0.95 1.25" fill="#552b06" fill-rule="evenodd" stroke="none"/>
    <path d="M0.8 1.2 L0.85 1.25 0.85 1.35 0.8 1.3 0.8 1.25 0.8 1.2" fill="#ef8d0f" fill-rule="evenodd" stroke="none"/>
    <path d="M0.75 1.35 L0.75 1.3 0.75 1.2 0.8 1.25 0.8 1.3 0.75 1.35" fill="#9c590a" fill-rule="evenodd" stroke="none"/>
    <path d="M0.85 1.35 L0.8 1.35 Q0.75 1.35 0.75 1.35 L0.8 1.3 0.85 1.35" fill="#4c2404" fill-rule="evenodd" stroke="none"/>
    <path d="M0.7 1.25 L0.7 1.3 0.65 1.35 0.6 1.3 0.65 1.3 0.65 1.3 0.7 1.25" fill="#633205" fill-rule="evenodd" stroke="none"/>
    <path d="M0.75 1.3 L0.75 1.35 0.7 1.3 0.75 1.3" fill="#703605" fill-rule="evenodd" stroke="none"/>
    <path d="M0.45 1.25 L0.5 1.3 0.45 1.35 0.45 1.3 0.45 1.25" fill="#7a3a07" fill-rule="evenodd" stroke="none"/>
    <path d="M0.35 1.25 L0.35 1.2 0.4 1.25 Q0.4 1.2 0.4 1.25 L0.45 1.3 0.4 1.3 0.4 1.25 0.35 1.25" fill="#814b0a" fill-rule="evenodd" stroke="none"/>
    <path d="M0.35 1.3 L0.35 1.25 0.4 1.25 0.4 1.45 0.35 1.35 0.35 1.3" fill="#f49b12" fill-rule="evenodd" stroke="none"/>
    <path d="M0.3 1.25 L0.3 1.3 Q0.3 1.25 0.3 1.25" fill="#7e300a" fill-rule="evenodd" stroke="none"/>
    <path d="M0.3 1.3 L0.3 1.35 0.25 1.35 0.25 1.3 Q0.25 1.35 0.25 1.3 L0.2 1.25 0.25 1.25 0.3 1.3" fill="#fbab11" fill-rule="evenodd" stroke="none"/>
    <path d="M0.35 1.3 L0.35 1.4 0.3 1.35 Q0.3 1.35 0.35 1.3" fill="#bc5b0c" fill-rule="evenodd" stroke="none"/>
    <path d="M0.35 1.4 Q0.35 1.45 0.35 1.5 L0.3 1.45 0.3 1.35 0.35 1.4" fill="#673108" fill-rule="evenodd" stroke="none"/>
    <path d="M0.2 1.3 L0.25 1.4 0.2 1.35 0.15 1.3 Q0.2 1.25 0.2 1.3" fill="#dd7a0d" fill-rule="evenodd" stroke="none"/>
    <path d="M0.1 1.3 L0.1 1.3" fill="#371703" fill-rule="evenodd" stroke="none"/>
    <path d="M0.05 1.35 L0.05 1.45 0.0 1.35 0.05 1.35" fill="#f8d61b" fill-rule="evenodd" stroke="none"/>
    <path d="M0.05 1.35 L0.0 1.35 0.0 1.35 -0.05 1.3 -0.05 1.25 0.0 1.25 0.05 1.35" fill="#f37d0c" fill-rule="evenodd" stroke="none"/>
    <path d="M-0.1 1.3 L-0.1 1.25 Q-0.1 1.2 -0.1 1.25 L-0.1 1.3 -0.15 1.25 -0.15 1.3 -0.15 1.2 -0.05 1.2 0.05 1.2 0.05 1.25 0.1 1.35 0.05 1.4 0.0 1.2 0.0 1.25 -0.05 1.25 Q-0.05 1.2 -0.05 1.25 L-0.1 1.3" fill="#ae4c0a" fill-rule="evenodd" stroke="none"/>
    <path d="M0.05 1.5 L0.05 1.5" fill="#e28e12" fill-rule="evenodd" stroke="none"/>
    <path d="M0.25 1.4 L0.25 1.45 0.2 1.4 0.25 1.4" fill="#af520a" fill-rule="evenodd" stroke="none"/>
    <path d="M0.0 0.05 L0.0 0.2 Q-0.05 0.25 -0.15 0.2 L-0.25 0.2 -0.35 0.25 -0.3 0.15 -0.25 0.05 -0.2 0.1 -0.15 0.15 -0.05 0.1 0.0 0.05" fill="#6d3406" fill-rule="evenodd" stroke="none"/>
    <path d="M-0.45 0.1 L-0.4 0.05 Q-0.4 0.0 -0.35 0.05 L-0.4 0.1 -0.45 0.1" fill="#bb620c" fill-rule="evenodd" stroke="none"/>
    <path d="M-0.4 0.25 L-0.4 0.3 -0.45 0.3 -0.5 0.25 -0.45 0.2 -0.4 0.2 Q-0.35 0.25 -0.4 0.25" fill="#a0520b" fill-rule="evenodd" stroke="none"/>
    <path d="M-0.45 0.2 L-0.5 0.25 -0.45 0.3 -0.6 0.3 Q-0.65 0.25 -0.55 0.2 L-0.45 0.2" fill="#c5680d" fill-rule="evenodd" stroke="none"/>
    <path d="M-0.5 0.2 Q-0.55 0.2 -0.55 0.15 L-0.4 0.15 -0.5 0.2" fill="#9a4d0a" fill-rule="evenodd" stroke="none"/>
    <path d="M-0.35 0.4 L-0.35 0.35 -0.3 0.3 Q-0.3 0.4 -0.2 0.45 L-0.05 0.45 -0.05 0.5 -0.1 0.5 -0.2 0.55 -0.3 0.6 -0.3 0.5 Q-0.3 0.45 -0.35 0.4" fill="#ae5e0c" fill-rule="evenodd" stroke="none"/>
    <path d="M-0.3 0.3 Q-0.15 0.2 -0.1 0.3 L-0.05 0.35 0.0 0.4 Q0.0 0.4 -0.05 0.45 L-0.2 0.45 Q-0.3 0.4 -0.3 0.3" fill="#cc700e" fill-rule="evenodd" stroke="none"/>
    <path d="M-0.1 0.3 L0.0 0.3 Q0.05 0.3 0.05 0.35 L0.0 0.4 -0.05 0.35 -0.1 0.3" fill="#a8560b" fill-rule="evenodd" stroke="none"/>
    <path d="M-0.65 0.25 L-0.7 0.3 -0.7 0.35 Q-0.7 0.4 -0.75 0.4 L-0.8 0.4 -0.8 0.3 -0.75 0.2 -0.7 0.2 Q-0.65 0.2 -0.65 0.25" fill="#7a3905" fill-rule="evenodd" stroke="none"/>
    <path d="M-0.9 0.0 L-0.8 0.05 -0.8 0.1 -0.85 0.25 -0.85 0.45 -0.9 0.5 -1.0 0.55 -0.95 0.55 -0.9 0.55 -0.85 0.55 -0.85 0.6 -0.85 0.6 -0.8 0.65 -0.75 0.5 Q-0.7 0.45 -0.65 0.5 L-0.7 0.5 -0.7 0.55 -0.65 0.6 -0.6 0.6 -0.6 0.55 -0.65 0.55 -0.6 0.5 Q-0.6 0.5 -0.6 0.45 -0.55 0.5 -0.55 0.6 L-0.6 0.7 -0.7 0.75 -0.75 0.7 -0.8 0.7 -0.85 0.7 -0.9 0.75 -0.75 0.8 -0.85 0.9 Q-0.9 0.9 -0.95 0.85 -0.95 0.8 -1.0 0.8 L-1.05 0.85 -1.05 0.8 -1.05 0.75 -1.0 0.75 -1.0 0.75 -0.95 0.75 -0.9 0.7 Q-0.95 0.7 -0.95 0.65 L-1.0 0.65 -1.05 0.7 -1.05 0.7 -1.05 0.65 -1.05 0.6 Q-1.0 0.55 -1.05 0.55 L-1.05 0.5 -1.0 0.45 -0.95 0.45 -0.95 0.4 Q-0.9 0.4 -0.9 0.3 -0.9 0.25 -0.95 0.25 L-0.9 0.1 -0.9 0.0" fill="#773808" fill-rule="evenodd" stroke="none"/>
    <path d="M-0.9 0.0 L-0.9 0.0 -0.9 0.1 -0.95 0.25 Q-0.9 0.25 -0.9 0.3 -0.9 0.4 -0.95 0.4 L-0.95 0.35 -1.0 0.3 -1.0 0.1 -0.95 0.1 -0.95 0.05 -0.9 0.05 -0.9 0.0" fill="#975410" fill-rule="evenodd" stroke="none"/>
    <path d="M-0.9 0.0 L-0.9 0.0 -0.9 0.05 -0.95 0.05 -0.9 0.0" fill="#c2796d" fill-rule="evenodd" stroke="none"/>
    <path d="M-0.95 0.1 L-1.0 0.1 -1.0 0.3 -1.0 0.35 -1.05 0.35 -1.15 0.25 -1.25 0.25 -1.3 0.35 Q-1.3 0.4 -1.35 0.4 L-1.45 0.45 -1.55 0.55 -1.6 0.6 -1.65 0.65 -1.5 0.5 -1.35 0.35 -1.3 0.35 -1.3 0.3 Q-1.35 0.25 -1.3 0.25 L-1.2 0.2 -1.15 0.1 -1.1 -0.05 -1.05 0.0 -1.0 0.1 -1.0 0.1 -1.0 0.1 -0.95 0.1" fill="#27200d" fill-rule="evenodd" stroke="none"/>
    <path d="M-0.85 0.45 L-0.85 0.5 -0.8 0.55 -0.85 0.6 -0.85 0.55 -0.9 0.55 -0.95 0.55 -1.0 0.55 -0.9 0.5 -0.85 0.45" fill="#e47a10" fill-rule="evenodd" stroke="none"/>
    <path d="M-0.65 0.5 L-0.6 0.45 -0.6 0.45 Q-0.6 0.5 -0.6 0.5 L-0.65 0.55 -0.6 0.55 -0.6 0.6 -0.65 0.6 -0.7 0.55 -0.7 0.5 -0.65 0.5" fill="#c5650d" fill-rule="evenodd" stroke="none"/>
    <path d="M-0.6 0.85 L-0.6 0.75 -0.5 0.75 -0.45 0.75 -0.5 0.8 -0.55 0.85 -0.6 0.85" fill="#733505" fill-rule="evenodd" stroke="none"/>
    <path d="M-0.6 0.85 Q-0.6 0.9 -0.65 0.95 L-0.75 1.05 -0.8 1.0 -0.8 0.9 Q-0.7 0.95 -0.7 0.95 L-0.7 0.8 -0.65 0.8 -0.6 0.85" fill="#793906" fill-rule="evenodd" stroke="none"/>
    <path d="M-0.8 0.9 L-0.75 0.85 -0.7 0.8 -0.7 0.95 Q-0.7 0.95 -0.8 0.9" fill="#c7680d" fill-rule="evenodd" stroke="none"/>
    <path d="M-0.5 0.9 Q-0.5 0.95 -0.5 0.95 L-0.5 1.0 -0.55 1.0 -0.6 0.95 -0.6 0.9 -0.5 0.9" fill="#c8680d" fill-rule="evenodd" stroke="none"/>
    <path d="M-1.05 0.7 L-1.05 0.7 -1.0 0.65 -0.95 0.65 Q-0.95 0.7 -0.9 0.7 L-0.95 0.75 -1.0 0.75 -1.0 0.75 -1.05 0.75 -1.05 0.7" fill="#ca6d15" fill-rule="evenodd" stroke="none"/>
    <path d="M-1.0 0.9 L-0.95 0.85 -0.9 0.9 -0.85 0.95 -0.9 1.0 -0.95 1.1 Q-0.95 1.15 -1.0 1.1 L-1.05 1.05 -1.05 1.0 Q-1.0 1.0 -0.95 1.0 L-1.0 0.9" fill="#874007" fill-rule="evenodd" stroke="none"/>
    <path d="M-0.85 0.7 Q-0.7 0.75 -0.75 0.8 L-0.9 0.75 -0.85 0.7" fill="#d5710f" fill-rule="evenodd" stroke="none"/>
    <path d="M-0.95 1.2 L-0.9 1.1 Q-0.85 1.05 -0.85 1.15 L-0.8 1.15 -0.8 1.2 -0.9 1.2 -0.95 1.2" fill="#cd6b0e" fill-rule="evenodd" stroke="none"/>
    <path d="M-0.8 1.3 L-0.8 1.35 -0.85 1.3 Q-0.85 1.3 -0.9 1.35 L-0.9 1.35 -0.95 1.3 -0.95 1.2 -0.9 1.2 -0.8 1.2 -0.8 1.3" fill="#713506" fill-rule="evenodd" stroke="none"/>
    <path d="M-0.5 1.35 L-0.5 1.3 -0.55 1.3 -0.6 1.25 -0.55 1.4 -0.6 1.3 -0.65 1.3 -0.65 1.35 -0.65 1.4 -0.7 1.3 -0.7 1.2 -0.7 1.15 Q-0.7 1.25 -0.6 1.25 L-0.5 1.15 -0.45 1.15 -0.45 1.3 -0.5 1.35" fill="#843f06" fill-rule="evenodd" stroke="none"/>
    <path d="M-0.7 1.15 L-0.65 1.1 -0.6 1.15 -0.5 1.15 -0.6 1.25 Q-0.7 1.25 -0.7 1.15" fill="#d06e0e" fill-rule="evenodd" stroke="none"/>
    <path d="M-1.05 0.95 L-1.0 0.9 -0.95 1.0 Q-1.0 1.0 -1.05 1.0 L-1.05 0.95" fill="#ec7b10" fill-rule="evenodd" stroke="none"/>
    <path d="M-0.15 0.65 L-0.1 0.65 -0.15 0.7 -0.15 0.75 -0.1 0.8 Q-0.05 0.75 -0.05 0.8 -0.1 0.85 -0.2 0.85 L-0.3 0.75 -0.25 0.7 -0.2 0.65 -0.15 0.65 -0.15 0.65" fill="#bd670e" fill-rule="evenodd" stroke="none"/>
    <path d="M-0.5 0.9 L-0.5 0.9 Q-0.55 0.85 -0.5 0.8 L-0.45 0.85 -0.45 0.9 -0.5 0.9" fill="#803b05" fill-rule="evenodd" stroke="none"/>
    <path d="M-0.35 1.15 Q-0.45 1.1 -0.45 1.05 L-0.4 0.9 -0.35 0.85 -0.3 0.85 Q-0.25 0.9 -0.25 0.95 L-0.25 1.05 Q-0.25 1.1 -0.3 1.15 L-0.35 1.15" fill="#853e06" fill-rule="evenodd" stroke="none"/>
    <path d="M-0.15 1.3 L-0.2 1.25 -0.2 1.2 -0.25 1.15 -0.35 1.15 -0.3 1.15 Q-0.25 1.1 -0.25 1.05 L-0.25 0.95 Q-0.25 0.9 -0.3 0.85 L-0.25 0.85 -0.2 0.9 -0.2 0.95 -0.2 1.1 -0.15 1.2 -0.15 1.3 M-0.35 1.15 L-0.35 1.15 M-0.15 1.2 L-0.15 1.2" fill="#732c08" fill-rule="evenodd" stroke="none"/>
    <path d="M-0.1 1.0 L0.0 1.1 -0.05 1.1 -0.15 1.1 -0.15 1.05 -0.1 1.0 -0.1 1.0" fill="#fda715" fill-rule="evenodd" stroke="none"/>
    <path d="M-0.2 0.95 L-0.1 1.0 -0.15 1.05 -0.15 1.1 -0.15 1.2 -0.2 1.1 -0.2 0.95" fill="#b45709" fill-rule="evenodd" stroke="none"/>
    <path d="M-0.2 1.25 L-0.2 1.3 -0.25 1.25 -0.25 1.35 -0.25 1.35 -0.3 1.35 -0.3 1.3 -0.3 1.2 -0.25 1.15 -0.2 1.2 -0.2 1.25" fill="#fa9d14" fill-rule="evenodd" stroke="none"/>
    <path d="M-0.3 1.3 L-0.3 1.3 -0.35 1.25 -0.35 1.25 -0.4 1.3 -0.35 1.35 -0.35 1.35 -0.4 1.3 -0.35 1.15 -0.25 1.15 -0.3 1.2 -0.3 1.3" fill="#a64e07" fill-rule="evenodd" stroke="none"/>
    <path d="M-1.3 0.3 L-1.3 0.35 -1.35 0.35 -1.35 0.3 -1.4 0.25 -1.45 0.25 -1.45 0.2 -1.5 0.15 -1.5 0.2 -1.55 0.3 -1.6 0.35 -1.65 0.45 -1.65 0.45 -1.7 0.5 -1.6 0.5 -1.5 0.45 -1.45 0.35 -1.35 0.35 Q-1.4 0.35 -1.5 0.45 L-1.55 0.5 -1.65 0.55 -1.7 0.7 -1.75 0.8 -1.75 0.85 Q-1.85 0.9 -1.85 0.8 L-1.85 0.65 -1.75 0.55 -1.65 0.45 -1.6 0.3 -1.55 0.2 -1.5 0.15 -1.45 0.15 -1.4 0.25 -1.3 0.3 M-1.75 0.55 L-1.8 0.6 -1.8 0.65 -1.75 0.7 -1.7 0.65 -1.7 0.6 Q-1.7 0.55 -1.75 0.55 M-1.75 0.75 L-1.8 0.75 -1.85 0.8 -1.8 0.85 -1.75 0.8 -1.75 0.75" fill="#6c6538" fill-rule="evenodd" stroke="none"/>
    <path d="M-1.6 0.35 L-1.55 0.3 -1.5 0.2 -1.5 0.15 -1.45 0.2 -1.45 0.25 -1.4 0.25 -1.35 0.3 -1.35 0.35 -1.45 0.35 -1.5 0.4 -1.55 0.45 -1.6 0.45 -1.6 0.35" fill="#b1a65a" fill-rule="evenodd" stroke="none"/>
    <path d="M-1.35 0.35 L-1.5 0.5 -1.65 0.65 -1.7 0.75 -1.75 0.8 -1.7 0.7 -1.65 0.55 -1.55 0.5 -1.5 0.45 Q-1.4 0.35 -1.35 0.35" fill="#4b4525" fill-rule="evenodd" stroke="none"/>
    <path d="M-1.35 0.35 L-1.45 0.35 -1.5 0.45 -1.6 0.5 -1.7 0.5 -1.65 0.45 -1.65 0.45 -1.6 0.35 -1.6 0.45 -1.55 0.45 -1.5 0.4 -1.45 0.35 -1.35 0.35" fill="#91874b" fill-rule="evenodd" stroke="none"/>
    <path d="M-1.05 0.55 Q-1.0 0.55 -1.05 0.6 L-1.05 0.65 -1.05 0.55" fill="#985950" fill-rule="evenodd" stroke="none"/>
    <path d="M-1.75 0.55 Q-1.7 0.55 -1.7 0.6 L-1.7 0.65 -1.75 0.7 -1.8 0.65 -1.8 0.6 -1.75 0.55 M-1.75 0.65 Q-1.7 0.65 -1.75 0.6 L-1.75 0.6 -1.8 0.65 -1.75 0.65" fill="#8f874f" fill-rule="evenodd" stroke="none"/>
    <path d="M-1.75 0.75 L-1.75 0.8 -1.8 0.85 -1.85 0.8 -1.8 0.75 -1.75 0.75" fill="#a49b60" fill-rule="evenodd" stroke="none"/>
    <path d="M-1.75 0.65 L-1.8 0.65 -1.75 0.6 -1.75 0.6 Q-1.7 0.65 -1.75 0.65" fill="#c6bd76" fill-rule="evenodd" stroke="none"/>
    <path d="M-1.05 0.85 L-1.05 0.95 -1.05 1.0 -1.05 1.05 -1.0 1.1 -1.05 1.25 -1.2 1.2 -1.25 1.1 -1.2 0.9 -1.1 0.8 -1.05 0.8 -1.05 0.85" fill="#211808" fill-rule="evenodd" stroke="none"/>
    <path d="M-1.1 1.45 L-1.1 1.4 -1.1 1.45" fill="#724443" fill-rule="evenodd" stroke="none"/>
    <path d="M-0.05 1.4 L-0.05 1.35 -0.05 1.4 M-0.05 1.25 L-0.05 1.3 -0.05 1.3 -0.05 1.35 -0.1 1.3 -0.05 1.25 Q-0.05 1.2 -0.05 1.25" fill="#2e1602" fill-rule="evenodd" stroke="none"/>
    <path d="M-0.05 1.3 L0.0 1.35 -0.05 1.3 -0.05 1.3 -0.05 1.3 M0.0 1.35 L0.0 1.35" fill="#231002" fill-rule="evenodd" stroke="none"/>
    <path d="M-0.05 1.35 Q-0.1 1.4 -0.1 1.35 L-0.1 1.3 -0.05 1.35" fill="#dc6b0a" fill-rule="evenodd" stroke="none"/>
    <path d="M0.0 1.35 L0.0 1.45 0.0 1.45 -0.05 1.4 -0.05 1.4 -0.05 1.35 0.0 1.35" fill="#8b4307" fill-rule="evenodd" stroke="none"/>
    <path d="M-0.2 1.3 L-0.25 1.45 -0.3 1.35 -0.25 1.35 -0.25 1.35 -0.25 1.25 -0.2 1.3" fill="#874008" fill-rule="evenodd" stroke="none"/>
    <path d="M0.0 1.5 L0.0 1.5 -0.05 1.55 -0.05 1.5 0.0 1.5" fill="#c3690b" fill-rule="evenodd" stroke="none"/>
    <path d="M-0.3 1.3 L-0.35 1.3 -0.35 1.35 -0.4 1.3 -0.35 1.25 -0.35 1.25 -0.3 1.3" fill="#5c2e05" fill-rule="evenodd" stroke="none"/>
    <path d="M-0.45 1.5 L-0.45 1.5 Q-0.4 1.45 -0.4 1.5 L-0.45 1.55 -0.45 1.5" fill="#602804" fill-rule="evenodd" stroke="none"/>
    <path d="M-0.5 1.3 L-0.5 1.4 Q-0.55 1.3 -0.55 1.4 L-0.55 1.4 -0.6 1.25 -0.55 1.3 -0.5 1.3" fill="#3b1c03" fill-rule="evenodd" stroke="none"/>
    <path d="M-0.75 1.35 L-0.75 1.3 -0.7 1.35 -0.75 1.4 -0.75 1.35" fill="#4f2604" fill-rule="evenodd" stroke="none"/>
    <path d="M-0.65 1.4 Q-0.6 1.45 -0.6 1.5 L-0.65 1.45 -0.65 1.4" fill="#6f3708" fill-rule="evenodd" stroke="none"/>
    <path d="M-0.6 1.45 L-0.55 1.45 -0.55 1.5 -0.6 1.45 -0.6 1.45" fill="#8e4b0a" fill-rule="evenodd" stroke="none"/>
    <path d="M-0.95 1.5 L-1.0 1.45 -1.0 1.45 -1.0 1.4 -0.95 1.4 -0.9 1.4 -0.95 1.5 -0.95 1.5" fill="#c5670d" fill-rule="evenodd" stroke="none"/>
    <path d="M-0.95 1.5 Q-0.9 1.6 -0.95 1.55 L-0.95 1.5 -0.95 1.5" fill="#633005" fill-rule="evenodd" stroke="none"/>
    <path d="M-0.85 1.5 L-0.85 1.35 -0.85 1.5" fill="#4e2404" fill-rule="evenodd" stroke="none"/>
  </g>
</svg>
