<?xml version="1.0" encoding="UTF-8" standalone="no"?>
<svg xmlns:xlink="http://www.w3.org/1999/xlink" height="5.35px" width="6.55px" xmlns="http://www.w3.org/2000/svg">
  <g transform="matrix(1.0, 0.0, 0.0, 1.0, -6.75, 11.25)">
    <path d="M9.65 -11.2 L9.65 -11.2 9.65 -11.2 9.65 -11.15 9.65 -11.1 9.6 -11.1 9.6 -11.15 9.65 -11.2 M8.95 -10.85 L9.0 -10.85 9.0 -10.8 8.95 -10.75 8.95 -10.75 8.9 -10.7 8.95 -10.8 8.95 -10.85 8.95 -10.85 M8.25 -10.3 L8.1 -10.3 8.1 -10.35 8.0 -10.4 8.05 -10.45 8.05 -10.45 8.1 -10.4 8.2 -10.4 8.25 -10.4 8.3 -10.35 8.25 -10.3 M9.8 -10.8 L9.8 -10.7 9.75 -10.7 9.7 -10.65 9.65 -10.7 9.65 -10.8 9.75 -10.8 9.8 -10.8 M9.85 -10.7 L9.9 -10.7 9.85 -10.7 9.85 -10.65 9.8 -10.65 9.8 -10.65 9.8 -10.7 9.85 -10.7 M9.15 -10.25 L9.2 -10.25 9.2 -10.25 9.25 -10.3 9.25 -10.25 9.25 -10.15 9.2 -10.1 9.2 -10.1 9.15 -10.1 9.15 -10.2 9.15 -10.25 M9.35 -10.8 L9.35 -10.8 9.4 -10.8 9.5 -10.8 9.45 -10.75 9.35 -10.65 9.3 -10.6 9.35 -10.75 9.35 -10.8 M9.3 -10.5 L9.3 -10.55 9.35 -10.55 9.4 -10.55 9.45 -10.5 9.4 -10.45 9.35 -10.45 9.3 -10.45 9.3 -10.5 M10.05 -10.4 L10.05 -10.4 10.0 -10.4 10.0 -10.45 10.05 -10.5 10.1 -10.5 10.1 -10.45 10.05 -10.4 M9.85 -10.0 L9.85 -10.05 9.9 -10.05 9.95 -10.05 9.95 -10.05 9.9 -10.1 9.95 -10.15 9.95 -10.15 10.0 -10.15 10.0 -10.15 10.05 -10.15 10.0 -10.1 10.05 -10.1 10.1 -10.1 10.1 -10.05 10.05 -10.05 10.05 -10.05 10.0 -10.05 10.0 -10.0 9.95 -10.0 9.85 -10.0 M9.7 -10.45 L9.75 -10.4 9.7 -10.35 9.7 -10.3 9.65 -10.3 9.65 -10.4 9.65 -10.45 9.65 -10.5 9.7 -10.45 M10.55 -10.85 L10.6 -10.8 10.6 -10.8 10.5 -10.7 10.45 -10.7 10.45 -10.75 10.5 -10.8 10.5 -10.85 10.55 -10.85 M10.55 -10.5 L10.55 -10.45 10.5 -10.45 10.5 -10.4 10.45 -10.35 10.35 -10.35 10.35 -10.35 10.4 -10.4 10.45 -10.4 10.4 -10.45 10.45 -10.45 10.45 -10.5 10.55 -10.5 10.55 -10.5 M10.45 -10.25 L10.5 -10.3 10.6 -10.35 10.7 -10.4 10.8 -10.4 10.8 -10.35 10.75 -10.35 10.65 -10.3 10.6 -10.25 10.55 -10.25 10.45 -10.25 M10.85 -10.2 L10.95 -10.2 10.95 -10.1 10.85 -10.05 10.8 -10.1 10.75 -10.1 10.75 -10.05 10.7 -10.05 10.7 -10.15 10.8 -10.15 10.8 -10.25 10.85 -10.3 10.85 -10.2 M11.75 -10.05 L11.65 -10.05 11.6 -10.05 11.7 -10.15 11.8 -10.2 11.8 -10.2 11.9 -10.15 11.9 -10.15 11.85 -10.1 11.85 -10.1 11.9 -10.05 11.9 -10.05 11.85 -10.0 11.8 -10.0 Q11.75 -10.0 11.75 -10.0 L11.75 -10.0 11.8 -10.05 11.75 -10.05 M12.2 -10.0 L12.2 -10.05 12.3 -10.05 12.35 -10.05 12.35 -10.0 12.3 -9.95 12.25 -10.0 12.2 -10.0 M12.6 -9.9 L12.6 -9.95 12.65 -10.0 12.7 -10.0 12.7 -10.0 12.75 -10.0 12.75 -9.95 12.7 -9.95 12.65 -9.9 12.6 -9.9 12.6 -9.9 M7.0 -9.95 L7.0 -10.0 7.05 -10.0 7.15 -9.95 7.2 -9.9 7.2 -9.85 7.2 -9.85 7.05 -9.9 7.05 -9.9 7.0 -9.9 7.0 -9.95 M6.75 -10.2 L6.8 -10.25 6.85 -10.25 6.85 -10.2 6.85 -10.1 6.8 -10.1 6.75 -10.15 Q6.75 -10.15 6.75 -10.2 L6.75 -10.2 M7.55 -10.35 L7.6 -10.45 7.65 -10.45 7.65 -10.4 7.65 -10.35 7.7 -10.35 7.7 -10.3 7.65 -10.2 7.6 -10.25 7.6 -10.3 7.55 -10.3 7.55 -10.35 M7.85 -9.7 L7.85 -9.7 7.9 -9.6 7.85 -9.55 7.8 -9.5 7.7 -9.45 7.75 -9.45 7.75 -9.55 7.8 -9.65 7.8 -9.65 7.85 -9.7 M7.55 -9.9 L7.55 -9.9 7.6 -9.9 7.6 -9.9 7.65 -9.85 7.6 -9.85 7.6 -9.8 7.55 -9.8 7.55 -9.85 7.55 -9.9 M12.15 -9.8 L12.2 -9.75 12.15 -9.75 12.0 -9.7 11.9 -9.75 12.05 -9.8 12.1 -9.85 12.1 -9.85 12.15 -9.8 M8.1 -6.9 Q8.0 -6.85 8.0 -6.85 L7.95 -6.9 7.95 -7.0 Q7.95 -7.1 8.0 -7.15 L8.05 -7.15 8.15 -7.1 8.2 -7.2 8.3 -7.25 8.35 -7.2 8.3 -7.15 8.2 -7.05 8.15 -6.95 8.1 -6.9 M12.3 -9.5 L12.25 -9.5 12.25 -9.5 12.35 -9.55 12.4 -9.55 12.4 -9.5 12.35 -9.5 12.3 -9.5 M12.25 -9.45 L12.3 -9.4 12.35 -9.4 12.35 -9.45 12.4 -9.45 12.45 -9.45 12.5 -9.4 12.5 -9.35 12.45 -9.35 12.45 -9.35 12.4 -9.35 12.35 -9.35 12.3 -9.35 12.2 -9.4 12.25 -9.45 M12.45 -9.1 L12.5 -9.1 12.45 -9.05 12.4 -9.05 12.4 -8.95 12.35 -8.95 12.3 -8.9 12.25 -8.95 Q12.2 -9.0 12.3 -9.05 L12.3 -9.05 12.35 -9.05 12.4 -9.1 12.45 -9.1 M12.35 -9.2 L12.25 -9.2 12.25 -9.2 Q12.2 -9.2 12.2 -9.25 L12.25 -9.25 12.35 -9.25 12.35 -9.25 12.35 -9.2 M12.55 -8.8 L12.5 -8.8 12.45 -8.8 Q12.35 -8.85 12.35 -8.9 L12.45 -8.9 12.6 -8.85 12.65 -8.85 12.75 -8.8 12.75 -8.8 12.65 -8.8 12.55 -8.8 M12.95 -9.25 L12.95 -9.25 13.0 -9.25 13.0 -9.2 12.85 -9.15 12.8 -9.2 12.8 -9.2 12.85 -9.25 12.9 -9.25 12.95 -9.25 M12.85 -8.35 L12.85 -8.35 12.85 -8.3 12.8 -8.3 12.7 -8.35 12.7 -8.4 12.8 -8.4 12.85 -8.35 M12.65 -8.1 L12.75 -8.05 12.75 -8.05 12.75 -8.05 12.7 -7.95 12.7 -8.0 Q12.6 -8.0 12.55 -8.05 L12.5 -8.1 12.65 -8.1 M13.0 -8.1 L12.95 -8.15 13.2 -8.15 13.25 -8.15 13.3 -8.15 13.3 -8.05 13.2 -8.05 Q13.15 -8.05 13.1 -8.05 L13.0 -8.1 M12.5 -8.65 L12.5 -8.65 12.55 -8.6 12.5 -8.6 12.5 -8.6 12.4 -8.6 12.4 -8.65 12.4 -8.65 12.45 -8.65 12.5 -8.65 M12.55 -7.95 Q12.5 -7.95 12.45 -7.95 L12.45 -7.95 12.4 -7.95 12.3 -7.95 12.2 -7.95 Q12.2 -8.05 12.3 -8.05 L12.4 -8.05 12.45 -8.05 12.55 -8.05 12.55 -7.95 M12.45 -7.75 L12.55 -7.75 12.6 -7.75 12.6 -7.7 12.55 -7.7 12.5 -7.7 12.45 -7.75 12.45 -7.75 M12.2 -7.85 L12.3 -7.8 12.25 -7.75 Q12.2 -7.75 12.2 -7.75 L12.1 -7.75 12.05 -7.8 12.0 -7.85 12.0 -7.85 12.05 -7.85 12.2 -7.85 M12.6 -7.75 Q12.5 -7.8 12.5 -7.85 L12.55 -7.85 12.7 -7.8 12.75 -7.8 12.8 -7.8 12.75 -7.75 12.7 -7.75 12.6 -7.75 M12.2 -7.55 L12.15 -7.6 12.15 -7.65 12.2 -7.6 12.3 -7.6 12.25 -7.55 12.25 -7.55 12.2 -7.55 M12.25 -7.45 L12.3 -7.45 12.35 -7.45 12.35 -7.4 12.4 -7.4 12.4 -7.4 12.35 -7.4 12.3 -7.4 12.3 -7.4 12.25 -7.45 12.25 -7.45 12.25 -7.45 M13.1 -7.8 L13.15 -7.85 13.2 -7.85 13.2 -7.8 13.25 -7.8 13.25 -7.8 13.3 -7.8 13.3 -7.75 13.25 -7.75 13.2 -7.8 13.15 -7.8 13.15 -7.8 13.1 -7.8 M12.5 -7.25 L12.5 -7.25 12.55 -7.25 12.55 -7.25 12.6 -7.25 12.6 -7.2 12.65 -7.2 12.65 -7.2 12.6 -7.15 12.6 -7.15 12.5 -7.2 12.5 -7.25 M11.8 -9.5 L11.8 -9.45 11.75 -9.45 11.7 -9.5 11.7 -9.5 Q11.65 -9.5 11.7 -9.55 L11.75 -9.5 11.75 -9.5 11.85 -9.5 11.85 -9.5 11.8 -9.5 M11.7 -9.65 L11.75 -9.65 11.8 -9.7 11.85 -9.65 11.75 -9.6 11.7 -9.6 11.55 -9.55 11.6 -9.6 11.7 -9.65 M11.9 -9.9 L11.95 -9.9 12.0 -9.9 12.0 -9.85 11.9 -9.8 11.85 -9.8 11.8 -9.75 11.75 -9.8 11.8 -9.8 11.9 -9.85 11.9 -9.9 M11.45 -9.7 L11.45 -9.65 11.5 -9.65 11.45 -9.6 11.4 -9.6 11.4 -9.6 11.3 -9.55 11.2 -9.5 Q11.15 -9.55 11.25 -9.6 L11.3 -9.7 11.3 -9.7 11.4 -9.75 11.45 -9.7 11.45 -9.7 M11.4 -9.15 L11.4 -9.1 11.2 -9.1 11.15 -9.15 11.3 -9.2 11.35 -9.2 11.4 -9.2 11.35 -9.2 11.4 -9.15 M11.2 -9.5 L11.25 -9.5 11.25 -9.45 11.3 -9.4 11.3 -9.45 11.45 -9.45 11.45 -9.4 11.45 -9.35 11.5 -9.3 11.5 -9.3 11.4 -9.3 11.35 -9.3 11.3 -9.3 11.25 -9.3 11.2 -9.3 11.2 -9.35 11.2 -9.4 11.15 -9.4 11.1 -9.4 11.1 -9.45 11.05 -9.45 11.15 -9.45 11.2 -9.5 11.2 -9.5 M11.6 -9.0 L11.6 -8.95 11.55 -8.95 11.55 -9.0 11.5 -8.95 11.5 -8.95 11.4 -8.95 Q11.35 -9.0 11.35 -9.0 L11.35 -9.05 11.4 -9.05 11.45 -9.0 11.5 -9.05 11.55 -9.05 11.55 -9.05 11.6 -9.0 M10.35 -9.0 L10.35 -9.0 10.25 -9.05 10.25 -9.05 10.3 -9.05 10.4 -9.05 10.55 -9.0 10.55 -8.95 10.6 -8.9 10.6 -8.9 10.5 -8.9 10.45 -8.95 10.35 -9.0 M10.2 -7.85 L10.3 -7.85 10.45 -7.85 10.55 -7.8 10.55 -7.8 10.5 -7.75 10.45 -7.75 10.35 -7.75 10.3 -7.8 10.2 -7.85 M10.6 -8.05 L10.6 -8.1 10.6 -8.15 10.45 -8.2 10.4 -8.2 10.45 -8.25 10.55 -8.25 10.6 -8.25 10.7 -8.2 10.9 -8.1 10.95 -8.1 10.95 -8.1 11.05 -8.15 11.05 -8.15 11.1 -8.1 11.15 -8.05 11.1 -8.0 11.05 -8.0 10.95 -8.05 10.95 -8.05 10.8 -8.0 10.6 -8.05 M10.7 -8.45 L10.65 -8.45 10.55 -8.45 10.6 -8.45 10.6 -8.5 10.7 -8.45 10.75 -8.45 10.75 -8.45 10.7 -8.45 M11.35 -8.4 L11.45 -8.4 11.5 -8.4 11.55 -8.4 11.6 -8.4 11.6 -8.3 11.5 -8.3 11.45 -8.3 Q11.35 -8.35 11.35 -8.35 L11.35 -8.4 11.35 -8.4 M11.5 -8.65 L11.5 -8.55 11.45 -8.55 11.5 -8.55 11.45 -8.5 11.45 -8.5 11.4 -8.45 11.35 -8.5 11.4 -8.5 11.35 -8.55 11.3 -8.55 11.3 -8.55 11.25 -8.6 11.35 -8.6 11.35 -8.6 11.4 -8.65 11.4 -8.65 11.45 -8.7 11.55 -8.7 11.6 -8.7 11.6 -8.7 11.55 -8.7 11.5 -8.65 11.5 -8.65 M11.55 -8.85 L11.5 -8.8 11.4 -8.8 11.4 -8.85 11.5 -8.85 11.55 -8.85 11.55 -8.85 M11.95 -9.2 L11.9 -9.15 11.9 -9.2 11.85 -9.2 11.85 -9.2 11.9 -9.2 11.95 -9.25 12.0 -9.2 12.0 -9.25 12.05 -9.2 12.0 -9.2 11.95 -9.2 M11.1 -9.5 L11.05 -9.45 11.05 -9.4 10.95 -9.4 10.9 -9.4 10.9 -9.4 11.0 -9.5 11.0 -9.5 11.05 -9.5 11.05 -9.5 11.1 -9.5 11.1 -9.5 M10.3 -9.8 L10.35 -9.75 10.35 -9.7 10.3 -9.65 10.25 -9.65 Q10.15 -9.65 10.2 -9.75 L10.2 -9.8 10.25 -9.85 10.3 -9.85 10.3 -9.85 10.3 -9.8 M10.4 -7.5 L10.45 -7.5 10.55 -7.4 10.6 -7.3 10.6 -7.3 10.65 -7.3 10.8 -7.25 10.85 -7.2 10.85 -7.15 10.75 -7.15 10.65 -7.2 10.65 -7.2 10.65 -7.05 10.6 -7.05 Q10.55 -7.05 10.45 -7.1 10.35 -7.2 10.35 -7.25 L10.4 -7.25 10.45 -7.3 10.4 -7.4 10.4 -7.5 M10.25 -8.45 L10.2 -8.45 10.1 -8.4 10.05 -8.4 9.9 -8.4 9.95 -8.45 10.1 -8.5 10.2 -8.55 10.2 -8.5 10.25 -8.45 M10.95 -9.15 L10.95 -9.1 10.95 -9.1 10.9 -9.1 10.85 -9.05 10.8 -9.1 10.8 -9.1 Q10.75 -9.15 10.8 -9.15 L10.9 -9.15 10.9 -9.15 10.95 -9.15 M10.85 -7.5 L10.9 -7.45 10.85 -7.45 10.8 -7.5 10.8 -7.5 Q10.75 -7.55 10.75 -7.55 L10.75 -7.55 10.8 -7.55 10.85 -7.5 M12.05 -8.45 L12.05 -8.4 11.85 -8.4 Q11.85 -8.4 11.85 -8.45 L11.85 -8.45 11.9 -8.5 11.9 -8.5 11.95 -8.5 12.0 -8.5 Q12.0 -8.45 12.0 -8.45 L12.05 -8.45 M11.35 -8.15 Q11.25 -8.2 11.3 -8.25 L11.4 -8.25 11.5 -8.15 11.5 -8.15 11.6 -8.15 11.6 -8.1 11.65 -8.1 11.6 -8.05 11.55 -8.05 11.45 -8.1 11.4 -8.15 11.35 -8.15 M11.25 -7.95 L11.25 -7.95 11.25 -8.0 11.3 -8.0 11.35 -7.95 11.35 -7.9 11.25 -7.95 M12.0 -7.95 L11.95 -7.9 11.95 -7.9 11.9 -7.95 11.85 -7.95 11.85 -8.0 11.9 -8.0 11.95 -8.0 12.0 -7.95 12.0 -7.95 M9.45 -8.0 L9.55 -7.95 9.6 -7.8 9.6 -7.75 9.55 -7.75 9.5 -7.75 9.5 -7.75 9.45 -7.85 9.45 -8.0 M9.1 -7.55 L9.1 -7.6 9.15 -7.65 9.2 -7.6 9.15 -7.5 9.15 -7.5 9.1 -7.45 9.05 -7.35 8.95 -7.25 8.85 -7.25 8.85 -7.4 Q8.85 -7.5 8.9 -7.5 L8.95 -7.5 8.95 -7.55 8.85 -7.6 8.95 -7.6 9.1 -7.55 M8.55 -7.45 L8.6 -7.5 Q8.55 -7.55 8.55 -7.6 L8.65 -7.55 8.7 -7.45 8.75 -7.4 8.7 -7.35 8.7 -7.35 8.6 -7.35 8.6 -7.35 8.55 -7.45 M9.25 -9.6 L9.3 -9.6 9.35 -9.6 9.35 -9.6 9.25 -9.55 9.2 -9.55 9.2 -9.5 9.05 -9.5 9.05 -9.55 8.95 -9.55 8.95 -9.55 9.0 -9.55 9.1 -9.6 9.1 -9.6 9.25 -9.6 9.25 -9.6 M9.45 -9.9 L9.45 -9.85 9.45 -9.8 9.35 -9.8 9.35 -9.8 Q9.3 -9.85 9.3 -9.85 L9.35 -9.9 9.4 -9.9 9.45 -9.9 9.45 -9.9 M9.95 -9.85 L10.0 -9.85 10.0 -9.85 9.95 -9.8 9.9 -9.75 9.75 -9.75 9.65 -9.75 9.65 -9.75 9.7 -9.75 9.75 -9.8 9.9 -9.85 9.95 -9.85 M11.8 -7.6 Q11.7 -7.65 11.65 -7.7 L11.65 -7.75 11.8 -7.7 11.85 -7.7 11.9 -7.7 11.85 -7.7 11.85 -7.6 Q11.8 -7.6 11.8 -7.6 M9.5 -7.45 L9.45 -7.35 9.45 -7.35 9.4 -7.35 9.4 -7.4 9.45 -7.45 9.45 -7.5 9.5 -7.45 M9.3 -7.25 L9.35 -7.15 9.4 -7.1 9.35 -7.1 9.3 -7.15 9.3 -7.15 9.25 -7.25 9.3 -7.2 9.3 -7.25 M9.3 -6.8 L9.3 -6.75 9.25 -6.75 9.15 -6.75 9.15 -6.8 9.2 -6.95 9.25 -6.95 9.25 -6.95 9.3 -6.85 9.3 -6.8 M9.45 -6.85 L9.45 -6.8 9.4 -6.8 9.35 -6.85 9.35 -6.85 9.4 -6.9 9.45 -6.85 M9.55 -6.7 L9.55 -6.7 9.6 -6.7 9.6 -6.7 9.7 -6.65 9.7 -6.65 9.75 -6.6 9.75 -6.55 9.7 -6.5 9.8 -6.45 9.75 -6.35 9.75 -6.35 Q9.65 -6.35 9.65 -6.35 L9.65 -6.5 9.65 -6.5 9.6 -6.55 Q9.55 -6.65 9.55 -6.7 M9.75 -6.65 L9.7 -6.7 9.7 -6.75 9.8 -6.75 9.85 -6.7 9.85 -6.7 9.75 -6.65 9.75 -6.65 M10.1 -6.4 L10.1 -6.4 10.2 -6.3 10.15 -6.3 10.1 -6.3 10.05 -6.3 10.0 -6.3 10.0 -6.35 9.95 -6.4 Q9.9 -6.5 9.9 -6.5 L10.05 -6.45 10.1 -6.4 M8.95 -7.2 L9.0 -7.2 9.05 -7.1 9.05 -7.0 9.05 -6.85 Q9.05 -6.75 9.0 -6.75 L9.0 -6.75 8.9 -6.85 Q8.8 -6.95 8.8 -7.0 L8.85 -7.0 8.95 -7.05 8.9 -7.15 8.95 -7.2 M9.95 -6.2 L9.95 -6.25 10.0 -6.2 10.0 -6.2 10.05 -6.1 10.05 -6.05 Q10.0 -6.0 10.0 -6.0 L9.95 -6.05 9.95 -6.2 M8.55 -6.95 L8.55 -7.05 8.55 -7.1 8.6 -7.1 8.6 -7.1 8.55 -7.0 8.55 -6.95 M8.4 -6.55 L8.4 -6.45 8.4 -6.4 8.35 -6.35 8.25 -6.35 8.25 -6.45 8.35 -6.55 8.35 -6.55 8.4 -6.55 M8.5 -6.5 L8.5 -6.55 8.55 -6.5 8.55 -6.45 8.5 -6.45 8.5 -6.5 M11.95 -7.35 L11.95 -7.3 12.0 -7.2 12.0 -7.1 12.05 -7.05 12.0 -7.05 11.95 -7.1 11.9 -7.15 11.9 -7.2 11.85 -7.25 11.8 -7.25 Q11.75 -7.25 11.7 -7.3 L11.7 -7.3 11.65 -7.35 11.6 -7.35 11.55 -7.35 11.6 -7.4 11.65 -7.35 11.65 -7.4 11.85 -7.35 11.95 -7.35 11.95 -7.35 M11.7 -7.15 L11.7 -7.1 11.65 -7.1 11.6 -7.15 11.6 -7.15 11.65 -7.15 11.7 -7.15 M11.75 -6.85 L11.75 -6.8 11.7 -6.75 11.6 -6.85 11.6 -6.9 11.6 -6.9 11.65 -6.9 11.7 -6.85 11.7 -6.85 11.75 -6.85 M11.45 -7.15 L11.45 -7.15 Q11.45 -7.1 11.4 -7.1 L11.4 -7.1 Q11.35 -7.1 11.35 -7.1 L11.3 -7.15 11.25 -7.2 11.25 -7.25 11.35 -7.25 11.4 -7.2 11.35 -7.2 11.35 -7.15 11.4 -7.15 11.45 -7.15 11.45 -7.15 M11.2 -7.35 L11.2 -7.3 11.15 -7.3 11.1 -7.3 11.05 -7.3 11.0 -7.3 10.95 -7.3 10.85 -7.35 Q10.85 -7.45 11.0 -7.4 L11.05 -7.4 11.1 -7.4 11.2 -7.35 11.2 -7.35 M11.15 -6.75 L11.15 -6.7 11.1 -6.65 11.05 -6.7 11.05 -6.65 11.0 -6.65 11.0 -6.65 Q10.95 -6.65 10.9 -6.7 L10.9 -6.7 10.85 -6.75 10.85 -6.8 10.8 -6.85 10.95 -6.85 11.0 -6.8 11.0 -6.8 11.05 -6.7 11.0 -6.8 11.0 -6.85 Q10.95 -6.95 11.0 -6.95 L11.1 -6.9 11.1 -6.8 11.15 -6.75 M11.15 -7.2 L11.15 -7.15 11.25 -7.1 11.3 -7.1 11.35 -7.1 11.3 -7.05 11.35 -7.05 11.35 -7.05 11.4 -7.0 11.4 -7.0 11.35 -6.95 11.4 -6.95 11.35 -6.9 11.3 -6.95 11.25 -7.0 11.25 -7.0 11.25 -7.05 11.15 -7.1 11.1 -7.15 11.05 -7.2 11.15 -7.2 M11.65 -6.35 L11.65 -6.35 11.55 -6.3 11.5 -6.25 11.45 -6.35 Q11.4 -6.35 11.45 -6.4 L11.45 -6.55 11.6 -6.4 11.65 -6.35 M10.9 -6.6 L10.9 -6.6 10.9 -6.45 10.95 -6.45 10.85 -6.4 10.85 -6.45 10.8 -6.5 Q10.8 -6.55 10.8 -6.6 L10.8 -6.6 10.9 -6.6 M10.5 -6.8 L10.5 -6.9 10.55 -6.9 10.55 -6.9 10.65 -6.8 10.65 -6.7 10.6 -6.7 10.5 -6.75 10.5 -6.8 M10.8 -6.7 L10.75 -6.75 10.7 -6.75 10.75 -6.8 10.75 -6.8 10.8 -6.75 10.8 -6.7 10.8 -6.7 M10.7 -5.9 L10.65 -5.9 10.55 -5.95 10.55 -6.1 10.55 -6.15 10.7 -6.05 10.75 -6.0 10.75 -5.95 10.7 -5.9" fill="#421818" fill-rule="evenodd" stroke="none"/>
    <path d="M7.8 -7.8 L7.85 -7.8 7.85 -7.8 7.9 -7.75 7.85 -7.75 7.8 -7.75 7.8 -7.8 M7.05 -8.4 L7.0 -8.4 Q6.95 -8.4 6.95 -8.45 L7.15 -8.5 7.25 -8.45 7.2 -8.45 7.05 -8.4 M7.9 -9.0 L7.8 -9.05 7.8 -9.1 8.1 -9.15 8.3 -9.15 8.35 -9.1 8.4 -9.05 8.45 -9.05 8.55 -8.95 8.7 -8.95 8.75 -8.95 8.85 -8.85 8.95 -8.8 9.0 -8.75 9.05 -8.7 9.1 -8.65 9.25 -8.65 9.3 -8.6 9.4 -8.55 9.4 -8.5 9.45 -8.5 9.5 -8.35 9.45 -8.3 9.35 -8.25 Q9.35 -8.25 9.3 -8.4 L9.25 -8.5 9.25 -8.45 9.2 -8.45 9.15 -8.5 9.05 -8.55 8.85 -8.65 8.6 -8.55 Q8.55 -8.55 8.5 -8.5 L8.45 -8.4 8.45 -8.3 8.5 -8.25 8.45 -8.05 8.4 -7.95 8.3 -7.9 8.2 -7.85 8.1 -7.8 8.05 -7.8 8.0 -7.8 7.95 -7.8 7.85 -7.8 7.85 -7.85 7.9 -7.85 Q8.0 -7.95 8.0 -8.05 L7.95 -8.1 7.9 -8.1 7.8 -8.15 7.7 -8.05 Q7.6 -8.0 7.5 -8.0 L7.5 -8.0 7.5 -8.05 7.55 -8.1 7.5 -8.15 7.45 -8.2 7.4 -8.25 7.35 -8.3 7.35 -8.35 7.4 -8.35 7.45 -8.35 7.55 -8.35 7.65 -8.4 7.75 -8.4 7.85 -8.35 8.05 -8.3 8.1 -8.35 8.1 -8.4 8.15 -8.45 8.15 -8.55 Q8.15 -8.6 8.3 -8.65 8.4 -8.65 8.4 -8.75 L8.35 -8.85 8.15 -8.95 8.0 -8.95 7.9 -9.0 M10.35 -9.0 L10.3 -9.0 10.2 -9.0 10.15 -9.05 10.05 -9.05 Q10.05 -9.05 10.15 -9.1 L10.25 -9.1 10.5 -9.1 10.7 -9.05 10.75 -9.0 Q10.8 -8.95 10.8 -8.95 10.85 -8.9 10.9 -8.9 L11.05 -8.95 11.15 -8.9 11.25 -8.8 11.25 -8.75 11.3 -8.75 11.3 -8.7 Q11.35 -8.65 11.35 -8.65 L11.4 -8.65 11.35 -8.6 11.35 -8.6 11.25 -8.6 11.3 -8.55 11.3 -8.55 11.35 -8.55 11.4 -8.5 11.35 -8.5 11.4 -8.45 11.45 -8.5 11.45 -8.5 11.5 -8.55 11.45 -8.55 11.5 -8.55 11.5 -8.65 11.6 -8.6 11.6 -8.5 11.65 -8.4 11.65 -8.25 11.6 -8.2 Q11.55 -8.2 11.55 -8.2 L11.45 -8.3 11.45 -8.3 11.5 -8.3 11.6 -8.3 11.6 -8.4 11.55 -8.4 11.5 -8.4 11.45 -8.4 11.35 -8.4 11.3 -8.45 11.3 -8.5 11.2 -8.55 11.0 -8.6 10.85 -8.55 10.75 -8.5 10.7 -8.45 10.65 -8.35 10.55 -8.25 10.55 -8.25 10.45 -8.25 10.4 -8.2 10.45 -8.2 10.6 -8.15 10.6 -8.1 10.6 -8.05 Q10.6 -7.95 10.45 -7.9 L10.3 -7.85 10.2 -7.85 10.2 -7.85 10.15 -7.85 10.15 -7.85 10.25 -8.0 10.3 -8.1 10.35 -8.1 10.4 -8.2 10.35 -8.2 10.35 -8.2 10.3 -8.2 10.3 -8.15 10.25 -8.15 10.2 -8.15 10.05 -8.2 9.95 -8.2 9.9 -8.2 9.85 -8.15 9.85 -8.1 9.8 -8.0 Q9.75 -8.0 9.7 -8.05 L9.7 -8.25 9.65 -8.25 9.7 -8.3 9.75 -8.35 10.0 -8.3 10.25 -8.3 Q10.35 -8.3 10.35 -8.35 L10.4 -8.5 10.5 -8.65 10.6 -8.75 10.7 -8.8 10.6 -8.9 10.6 -8.9 10.55 -8.95 10.55 -9.0 10.4 -9.05 10.3 -9.05 10.25 -9.05 10.25 -9.05 10.35 -9.0 10.35 -9.0 M10.7 -8.45 L10.6 -8.5 10.6 -8.45 10.55 -8.45 10.65 -8.45 10.7 -8.45" fill="#2a2a27" fill-rule="evenodd" stroke="none"/>
  </g>
</svg>
