<?xml version="1.0" encoding="UTF-8" standalone="no"?>
<svg xmlns:xlink="http://www.w3.org/1999/xlink" height="5.15px" width="6.7px" xmlns="http://www.w3.org/2000/svg">
  <g transform="matrix(1.0, 0.0, 0.0, 1.0, -6.5, 11.45)">
    <path d="M9.15 -11.2 L9.15 -11.2 9.2 -11.15 9.2 -11.15 9.15 -11.1 Q9.15 -11.1 9.1 -11.15 L9.05 -11.15 9.05 -11.15 9.1 -11.2 9.15 -11.2 M8.95 -10.85 L8.95 -10.8 8.9 -10.8 8.9 -10.85 8.85 -10.9 8.95 -10.9 8.95 -10.9 8.95 -10.85 M10.55 -11.35 L10.55 -11.35 10.5 -11.35 10.5 -11.4 10.55 -11.45 10.55 -11.35 M10.0 -9.95 L9.95 -9.95 Q9.9 -9.95 9.9 -10.0 L9.95 -10.0 9.95 -10.05 10.0 -10.05 10.05 -10.0 10.05 -9.95 10.0 -9.95 M9.5 -10.9 L9.45 -10.9 9.45 -10.95 9.5 -10.95 9.55 -10.95 9.55 -10.9 9.5 -10.9 9.5 -10.9 M9.8 -10.55 L9.8 -10.5 9.75 -10.45 9.75 -10.45 9.7 -10.5 9.7 -10.5 9.75 -10.55 9.8 -10.55 9.8 -10.55 M9.65 -10.95 L9.65 -10.85 9.6 -10.85 9.55 -10.9 9.55 -10.95 9.55 -10.95 9.6 -10.95 9.65 -10.95 M8.1 -11.05 L8.1 -11.0 8.1 -11.0 8.05 -11.0 8.05 -11.0 8.0 -11.0 8.0 -11.0 8.05 -11.05 8.05 -11.05 8.1 -11.05 M8.65 -10.7 L8.65 -10.7 8.7 -10.7 8.75 -10.65 8.75 -10.65 8.7 -10.65 8.7 -10.65 8.65 -10.65 8.65 -10.7 M10.8 -11.05 L10.7 -11.05 10.7 -11.05 10.7 -11.1 10.75 -11.1 10.8 -11.1 10.8 -11.05 M10.8 -10.95 L10.8 -10.9 10.75 -10.85 10.75 -10.8 10.85 -10.8 10.85 -10.75 10.8 -10.7 10.7 -10.65 10.65 -10.7 10.65 -10.8 10.7 -10.95 10.75 -10.95 10.8 -10.95 M6.9 -10.0 L7.0 -9.95 7.05 -9.95 7.1 -9.9 7.1 -9.85 7.0 -9.85 6.95 -9.9 6.9 -9.95 6.9 -10.0 M11.8 -10.1 L11.9 -10.1 11.9 -10.1 11.9 -10.0 11.85 -10.0 11.8 -10.0 11.8 -10.05 11.8 -10.1 M10.8 -9.9 L10.75 -9.95 10.9 -10.05 10.9 -10.0 10.95 -9.95 10.9 -9.9 10.8 -9.9 10.8 -9.9 M11.1 -10.5 L11.1 -10.6 11.15 -10.65 11.2 -10.7 11.25 -10.65 11.2 -10.6 11.2 -10.55 11.15 -10.5 11.1 -10.5 M10.65 -10.5 L10.65 -10.5 10.7 -10.5 10.7 -10.5 10.65 -10.45 10.65 -10.45 10.6 -10.4 10.55 -10.4 10.55 -10.4 Q10.5 -10.4 10.5 -10.45 L10.55 -10.5 10.6 -10.55 10.65 -10.5 M7.9 -10.55 L7.95 -10.6 7.95 -10.55 8.0 -10.55 8.0 -10.5 7.95 -10.45 7.95 -10.55 7.9 -10.55 M7.25 -9.45 L7.25 -9.45 7.15 -9.45 7.15 -9.45 7.05 -9.5 7.1 -9.55 7.1 -9.55 7.15 -9.55 7.15 -9.55 7.2 -9.55 7.2 -9.5 7.25 -9.5 7.25 -9.45 M7.85 -9.75 L7.9 -9.7 7.95 -9.65 7.95 -9.65 7.9 -9.65 7.85 -9.6 7.75 -9.7 7.8 -9.75 7.85 -9.75 M8.1 -7.9 L8.1 -7.85 8.05 -7.85 8.05 -7.85 7.95 -7.85 7.95 -7.85 7.95 -7.85 7.85 -7.85 Q7.85 -7.85 7.8 -7.9 7.8 -7.95 7.85 -7.95 L7.9 -7.95 7.95 -7.95 7.95 -7.95 8.0 -8.0 8.05 -8.0 8.15 -7.95 8.15 -7.95 8.1 -7.9 8.1 -7.9 M8.1 -8.95 L8.1 -8.9 8.05 -8.95 8.05 -9.0 8.05 -9.0 8.1 -9.0 8.15 -8.95 8.15 -8.95 8.1 -8.95 M7.1 -8.9 L7.15 -8.9 7.15 -8.85 7.1 -8.85 7.05 -8.9 7.05 -8.9 7.1 -8.9 M7.85 -9.05 L7.85 -9.0 Q7.85 -9.0 7.8 -9.0 L7.75 -9.0 7.75 -9.05 7.75 -9.1 7.8 -9.1 7.85 -9.1 7.85 -9.05 M6.5 -8.7 L6.55 -8.7 6.6 -8.7 6.6 -8.65 6.55 -8.65 6.5 -8.65 6.5 -8.7 M12.15 -9.35 L12.2 -9.35 12.25 -9.4 12.25 -9.35 12.2 -9.3 12.15 -9.3 12.15 -9.3 12.1 -9.35 12.15 -9.35 M12.5 -9.75 L12.5 -9.7 12.45 -9.65 12.4 -9.65 12.4 -9.7 12.4 -9.75 12.45 -9.75 12.5 -9.75 M12.7 -9.8 L12.65 -9.8 12.65 -9.75 12.6 -9.75 12.6 -9.75 Q12.6 -9.8 12.65 -9.8 L12.65 -9.85 12.7 -9.8 12.7 -9.8 M7.75 -7.35 L7.75 -7.4 7.8 -7.45 7.85 -7.4 7.85 -7.4 7.85 -7.35 7.8 -7.3 7.75 -7.3 7.75 -7.35 M12.5 -9.15 L12.45 -9.15 12.4 -9.15 12.35 -9.15 12.4 -9.2 12.4 -9.2 12.45 -9.2 12.5 -9.15 12.5 -9.15 M12.45 -8.4 L12.4 -8.4 12.3 -8.45 12.35 -8.45 12.45 -8.5 12.5 -8.45 12.55 -8.4 12.55 -8.4 12.45 -8.4 M12.8 -9.05 L12.85 -9.05 12.85 -9.05 12.9 -9.05 12.9 -9.0 12.9 -9.0 12.85 -8.95 12.8 -8.95 12.75 -9.0 12.8 -9.05 M12.5 -8.7 L12.55 -8.7 12.6 -8.65 12.55 -8.65 12.5 -8.65 12.4 -8.65 12.4 -8.65 12.45 -8.7 12.5 -8.7 M12.2 -8.75 L12.15 -8.75 12.1 -8.75 12.1 -8.75 12.05 -8.8 12.05 -8.85 12.1 -8.85 12.15 -8.85 12.2 -8.8 12.2 -8.8 12.2 -8.75 M12.4 -7.8 L12.35 -7.8 12.35 -7.75 12.3 -7.75 12.3 -7.75 Q12.25 -7.75 12.25 -7.75 L12.15 -7.85 12.25 -7.9 12.3 -7.9 12.35 -7.9 12.55 -7.85 12.55 -7.8 12.5 -7.8 12.4 -7.8 M13.1 -7.95 L13.1 -8.0 13.15 -8.0 13.15 -8.0 13.2 -7.95 13.2 -7.95 13.1 -7.95 M12.75 -7.8 L12.75 -7.8 12.7 -7.8 12.65 -7.85 12.7 -7.85 12.7 -7.85 12.75 -7.85 12.75 -7.8 M12.05 -9.85 L12.0 -9.85 11.95 -9.85 11.9 -9.85 11.95 -9.9 12.0 -9.9 12.05 -9.9 12.1 -9.9 12.05 -9.85 M11.4 -9.15 L11.4 -9.1 11.4 -9.05 11.35 -9.05 11.3 -9.1 11.3 -9.15 11.35 -9.15 11.4 -9.15 11.4 -9.15 M11.5 -9.6 L11.6 -9.6 11.65 -9.55 Q11.65 -9.5 11.6 -9.5 L11.55 -9.5 11.5 -9.5 11.4 -9.5 11.35 -9.5 11.3 -9.55 11.3 -9.55 11.35 -9.6 11.4 -9.65 11.4 -9.6 11.45 -9.6 11.5 -9.6 M11.95 -9.45 L11.95 -9.45 12.0 -9.45 12.05 -9.4 12.05 -9.4 12.0 -9.4 11.9 -9.4 11.9 -9.4 11.95 -9.45 M11.5 -8.45 L11.5 -8.45 11.45 -8.5 11.45 -8.55 11.5 -8.55 11.5 -8.55 11.65 -8.5 11.6 -8.45 11.55 -8.45 11.5 -8.45 M10.9 -9.3 L10.85 -9.4 10.85 -9.4 10.9 -9.4 10.95 -9.35 10.95 -9.35 10.95 -9.3 10.9 -9.3 10.9 -9.3 M10.8 -9.35 L10.8 -9.3 10.85 -9.3 10.8 -9.25 10.8 -9.25 10.75 -9.25 10.75 -9.25 10.75 -9.3 10.8 -9.35 M10.55 -9.85 L10.55 -9.85 10.55 -9.8 10.5 -9.8 10.45 -9.85 10.45 -9.85 10.5 -9.9 10.55 -9.85 M11.1 -9.15 L11.1 -9.1 11.05 -9.1 Q11.0 -9.1 11.0 -9.15 L11.0 -9.15 11.05 -9.15 11.05 -9.2 11.1 -9.15 11.1 -9.15 M10.7 -8.4 L10.7 -8.35 10.65 -8.35 10.6 -8.35 10.6 -8.35 10.55 -8.35 10.55 -8.4 10.6 -8.4 10.6 -8.4 10.65 -8.4 10.7 -8.4 M11.1 -8.05 L11.1 -8.0 11.1 -7.95 11.05 -7.95 11.0 -7.95 Q11.0 -8.0 11.0 -8.0 L11.05 -8.0 11.05 -8.05 11.1 -8.05 M10.45 -7.75 L10.45 -7.75 10.45 -7.65 10.4 -7.65 10.4 -7.65 10.35 -7.65 10.3 -7.7 10.35 -7.7 10.45 -7.75 M11.7 -7.65 L11.7 -7.7 11.7 -7.7 11.75 -7.65 11.8 -7.65 11.75 -7.6 11.75 -7.6 11.7 -7.65 M9.9 -9.8 L9.9 -9.8 9.95 -9.8 9.95 -9.75 9.85 -9.75 9.85 -9.75 9.8 -9.8 9.85 -9.8 9.9 -9.8 M10.05 -9.55 L10.05 -9.5 10.0 -9.5 9.95 -9.5 9.95 -9.55 10.0 -9.6 10.05 -9.55 10.05 -9.55 M8.7 -9.65 L8.75 -9.65 8.75 -9.65 8.8 -9.65 8.8 -9.65 8.85 -9.6 8.85 -9.6 8.8 -9.6 8.8 -9.6 8.75 -9.6 8.7 -9.6 8.7 -9.65 M9.1 -7.85 L9.1 -7.8 9.05 -7.8 9.0 -7.8 9.0 -7.85 8.95 -7.85 9.05 -7.9 9.05 -7.85 9.1 -7.85 M8.5 -8.25 L8.55 -8.2 8.55 -8.2 8.5 -8.2 8.4 -8.2 8.4 -8.2 8.45 -8.25 8.4 -8.25 8.45 -8.3 8.5 -8.25 M9.35 -8.25 L9.4 -8.3 9.45 -8.25 9.5 -8.2 9.45 -8.2 Q9.4 -8.15 9.4 -8.2 L9.35 -8.2 9.35 -8.25 M9.2 -6.9 L9.2 -6.75 9.15 -6.7 9.15 -6.75 9.15 -6.75 9.15 -6.85 9.1 -6.85 9.05 -6.85 9.05 -6.9 9.05 -6.95 9.1 -7.0 9.2 -6.95 9.2 -6.9 M9.2 -6.55 L9.2 -6.6 9.25 -6.65 9.25 -6.6 9.25 -6.55 9.2 -6.55 M11.1 -7.4 L11.15 -7.35 11.1 -7.35 11.05 -7.35 11.05 -7.4 11.0 -7.4 11.05 -7.4 11.05 -7.4 11.1 -7.4 M11.35 -6.95 Q11.35 -6.95 11.3 -6.95 L11.25 -7.0 11.3 -7.05 11.3 -7.05 11.4 -7.05 11.4 -7.05 11.4 -6.95 11.35 -6.95 M11.75 -7.2 L11.75 -7.2 11.8 -7.2 11.85 -7.2 11.85 -7.15 11.8 -7.15 11.75 -7.15 11.75 -7.15 11.75 -7.2 M9.5 -6.4 L9.55 -6.4 9.6 -6.35 9.55 -6.3 9.5 -6.3 9.5 -6.4 M10.95 -7.2 L10.95 -7.15 11.0 -7.15 10.9 -7.1 10.9 -7.1 10.85 -7.15 10.9 -7.2 10.95 -7.2 M10.3 -7.0 L10.3 -7.0 10.35 -6.95 10.35 -6.95 10.3 -6.9 10.25 -6.95 10.25 -7.0 10.2 -7.05 10.25 -7.05 10.3 -7.0 M10.75 -6.85 L10.8 -6.85 10.85 -6.85 10.85 -6.85 10.85 -6.8 10.8 -6.8 10.8 -6.8 10.75 -6.8 10.75 -6.85 M10.8 -7.35 L10.75 -7.3 10.75 -7.15 Q10.75 -7.15 10.7 -7.15 L10.6 -7.15 10.6 -7.25 10.6 -7.35 10.65 -7.4 10.7 -7.4 10.75 -7.35 10.8 -7.35" fill="#421818" fill-rule="evenodd" stroke="none"/>
    <path d="M8.05 -8.95 L7.85 -8.95 7.6 -9.0 7.45 -9.0 7.55 -9.1 7.75 -9.1 7.95 -9.1 8.15 -9.05 8.25 -9.05 8.35 -9.1 8.45 -9.05 8.45 -9.0 8.4 -8.9 8.3 -8.8 8.35 -8.75 8.2 -8.6 8.15 -8.55 8.05 -8.5 8.15 -8.45 8.2 -8.4 Q8.3 -8.35 8.3 -8.25 L8.3 -8.2 8.25 -8.15 Q8.25 -8.1 8.25 -8.05 L8.35 -8.0 8.25 -7.95 Q8.2 -7.9 8.15 -7.9 L8.1 -7.9 8.1 -7.9 8.15 -7.95 8.15 -7.95 8.05 -8.0 8.0 -8.0 7.95 -7.95 7.95 -7.95 7.9 -8.0 7.85 -8.0 7.8 -7.95 7.7 -7.9 7.65 -7.95 7.65 -7.95 7.7 -8.05 7.75 -8.15 7.7 -8.35 7.6 -8.45 7.65 -8.5 7.65 -8.5 7.75 -8.4 7.95 -8.3 8.0 -8.3 8.0 -8.4 7.95 -8.5 7.9 -8.5 7.85 -8.55 7.9 -8.6 7.95 -8.65 8.0 -8.65 8.05 -8.7 8.15 -8.75 8.2 -8.85 8.2 -8.9 8.15 -8.95 8.1 -8.95 8.15 -8.95 8.15 -8.95 8.1 -9.0 8.05 -9.0 8.05 -9.0 8.05 -8.95 M8.05 -7.85 L7.95 -7.85 7.95 -7.85 8.05 -7.85 M7.85 -9.05 L7.85 -9.1 7.8 -9.1 7.75 -9.1 7.75 -9.05 7.75 -9.0 7.8 -9.0 Q7.85 -9.0 7.85 -9.0 L7.85 -9.05 M7.25 -8.3 L7.25 -8.35 7.3 -8.35 7.4 -8.25 7.5 -8.15 7.55 -8.05 7.5 -7.9 7.45 -7.75 7.35 -7.8 7.3 -7.85 7.35 -7.95 7.35 -8.05 7.3 -8.2 7.25 -8.3 M11.5 -8.45 L11.5 -8.4 11.35 -8.35 Q11.35 -8.35 11.3 -8.35 L11.3 -8.4 11.35 -8.45 11.4 -8.55 Q11.4 -8.65 11.25 -8.65 11.1 -8.65 11.1 -8.7 L11.2 -8.75 11.25 -8.75 11.35 -8.75 11.4 -8.7 11.5 -8.6 11.5 -8.55 11.5 -8.55 11.45 -8.55 11.45 -8.5 11.5 -8.45 11.5 -8.45 M10.5 -9.1 L10.6 -9.1 10.65 -9.0 10.6 -8.9 10.5 -8.85 10.55 -8.75 10.6 -8.6 10.55 -8.5 10.45 -8.4 10.5 -8.25 10.55 -8.15 Q10.55 -8.0 10.35 -7.9 L10.05 -7.85 10.05 -7.9 10.05 -8.0 10.05 -8.0 10.0 -8.0 9.95 -7.95 9.9 -8.0 Q9.9 -8.0 9.9 -8.05 L9.95 -8.15 9.95 -8.3 9.9 -8.35 9.85 -8.4 9.85 -8.45 9.95 -8.4 10.05 -8.3 10.15 -8.3 Q10.3 -8.3 10.3 -8.35 L10.3 -8.45 10.25 -8.45 10.15 -8.45 10.15 -8.4 Q10.1 -8.4 10.1 -8.45 L10.05 -8.5 Q10.05 -8.55 10.15 -8.6 L10.25 -8.65 10.4 -8.7 10.45 -8.75 10.4 -8.85 10.2 -8.95 10.0 -8.95 9.85 -8.95 Q9.65 -8.95 9.65 -9.0 L9.65 -9.05 9.7 -9.1 9.9 -9.1 10.1 -9.1 10.25 -9.05 10.4 -9.1 10.5 -9.1 M9.1 -8.8 L9.3 -8.75 Q9.35 -8.65 9.35 -8.55 L9.35 -8.55 9.4 -8.5 9.4 -8.45 9.45 -8.45 9.5 -8.45 9.55 -8.4 9.7 -8.25 Q9.8 -8.1 9.8 -8.0 L9.75 -7.9 9.7 -7.85 Q9.65 -7.85 9.65 -7.95 L9.65 -8.1 9.55 -8.15 9.5 -8.2 9.35 -8.3 9.25 -8.3 9.15 -8.3 9.1 -8.3 9.05 -8.35 9.1 -8.4 9.15 -8.5 9.1 -8.55 9.0 -8.6 8.95 -8.7 8.9 -8.75 9.0 -8.8 9.1 -8.8" fill="#2a2a27" fill-rule="evenodd" stroke="none"/>
  </g>
</svg>
