<?xml version="1.0" encoding="UTF-8" standalone="no"?>
<svg xmlns:xlink="http://www.w3.org/1999/xlink" height="7.85px" width="7.1px" xmlns="http://www.w3.org/2000/svg">
  <g transform="matrix(1.0, 0.0, 0.0, 1.0, -6.65, 12.9)">
    <path d="M10.6 -9.65 L10.7 -9.7 10.7 -9.7 10.75 -9.7 10.75 -9.7 10.9 -9.75 11.05 -9.8 11.05 -9.7 11.1 -9.7 Q11.15 -9.7 11.15 -9.65 L11.2 -9.65 11.3 -9.7 11.4 -9.7 11.6 -9.65 11.65 -9.6 11.7 -9.55 11.8 -9.6 11.9 -9.6 12.05 -9.55 12.05 -9.5 12.15 -9.45 12.2 -9.35 12.15 -9.25 12.2 -9.2 12.25 -9.15 12.2 -9.05 Q12.2 -9.05 12.3 -9.0 L12.35 -8.95 12.45 -8.95 12.6 -8.95 12.65 -8.95 12.75 -8.9 12.85 -8.95 12.9 -8.9 12.9 -8.9 13.0 -8.9 13.05 -8.95 13.1 -8.9 13.1 -8.9 13.1 -8.85 13.15 -8.85 13.15 -8.85 13.2 -8.85 13.2 -8.8 13.15 -8.75 13.1 -8.75 13.1 -8.75 13.05 -8.75 12.95 -8.75 12.85 -8.7 12.8 -8.65 12.9 -8.6 12.95 -8.55 12.95 -8.55 13.0 -8.5 Q13.05 -8.5 13.05 -8.5 L13.15 -8.5 13.65 -8.4 13.75 -8.35 13.1 -8.25 13.05 -8.25 12.95 -8.2 12.9 -8.15 12.85 -8.1 12.75 -8.1 12.7 -8.1 12.6 -8.1 12.5 -8.05 12.5 -8.1 12.45 -8.1 12.4 -8.1 12.35 -8.05 12.45 -7.9 12.45 -7.85 12.4 -7.85 12.45 -7.8 12.5 -7.7 12.4 -7.65 12.35 -7.65 12.35 -7.6 12.25 -7.55 Q12.2 -7.55 12.2 -7.5 L12.2 -7.45 12.2 -7.4 12.15 -7.35 12.2 -7.35 12.2 -7.25 12.15 -7.25 12.2 -7.2 12.2 -7.2 12.15 -7.15 12.1 -7.15 11.95 -7.15 11.9 -7.15 11.85 -7.15 11.8 -7.15 11.7 -7.15 11.7 -7.1 11.6 -7.1 11.6 -7.0 11.65 -6.95 11.65 -6.85 Q11.7 -6.8 11.8 -6.8 12.1 -6.75 12.1 -6.7 L12.0 -6.6 11.8 -6.55 12.0 -6.4 Q12.1 -6.35 12.1 -6.25 L12.05 -6.15 12.05 -6.05 12.1 -6.0 Q12.1 -5.9 11.9 -5.9 L11.65 -5.9 Q11.6 -5.85 11.5 -5.85 L11.35 -5.8 11.35 -5.7 11.5 -5.6 Q11.6 -5.55 11.6 -5.4 11.6 -5.35 11.5 -5.25 11.35 -5.25 11.35 -5.1 L11.35 -5.05 11.3 -5.05 10.85 -5.15 10.75 -5.15 Q10.75 -5.1 10.65 -5.1 L10.35 -5.25 10.15 -5.3 9.65 -5.55 9.7 -5.45 9.7 -5.3 9.45 -5.4 9.4 -5.25 9.15 -5.45 9.05 -5.55 8.95 -5.55 8.95 -5.6 8.8 -5.7 8.7 -5.8 8.65 -5.8 8.6 -5.85 8.45 -5.9 8.4 -5.9 8.35 -5.9 8.35 -5.9 8.3 -5.95 8.15 -6.1 8.05 -6.25 7.65 -6.55 Q7.6 -6.65 7.6 -6.75 L7.6 -6.85 7.55 -6.95 7.35 -7.15 7.35 -7.4 7.3 -7.5 7.2 -7.65 Q7.15 -7.7 7.15 -7.75 L7.15 -7.9 7.2 -8.05 7.2 -8.1 7.15 -8.2 7.1 -8.3 7.15 -8.35 7.15 -8.35 7.1 -8.45 7.1 -8.5 7.2 -8.5 7.2 -8.65 7.15 -8.7 7.15 -8.7 7.2 -8.75 7.2 -8.85 7.2 -8.95 7.15 -9.0 7.15 -9.2 7.15 -9.2 7.1 -9.3 6.95 -9.4 6.75 -9.45 Q6.65 -9.55 6.65 -9.55 L6.8 -9.7 6.8 -9.8 6.85 -9.85 Q6.9 -9.95 7.0 -9.9 L7.2 -9.95 7.2 -10.05 7.0 -10.05 Q6.9 -10.1 6.9 -10.15 6.9 -10.25 7.0 -10.3 L7.2 -10.4 7.35 -10.55 7.45 -10.7 7.45 -10.8 Q7.4 -10.85 7.45 -10.85 L7.45 -10.9 7.6 -11.1 7.7 -11.0 7.75 -10.9 7.7 -10.85 7.65 -10.75 7.75 -10.6 7.9 -10.8 7.95 -11.0 8.0 -11.0 Q8.05 -10.95 8.1 -10.95 L8.15 -11.0 8.15 -11.1 8.2 -11.15 8.25 -11.25 8.25 -11.2 Q8.25 -11.15 8.35 -11.1 L8.55 -11.55 8.65 -11.8 Q8.7 -11.95 8.75 -12.05 8.85 -12.15 8.85 -12.25 L8.8 -12.5 Q8.8 -12.55 8.9 -12.65 L9.0 -12.9 9.05 -12.9 9.05 -12.85 Q9.05 -12.8 9.1 -12.6 9.15 -12.4 9.25 -12.3 L9.25 -12.05 9.15 -12.0 9.05 -11.9 Q8.85 -11.85 8.75 -11.75 8.65 -11.65 8.65 -11.55 L8.7 -11.35 8.7 -11.2 8.6 -10.95 8.6 -10.9 8.55 -10.7 8.45 -10.6 8.4 -10.5 Q8.25 -10.35 8.2 -10.15 L8.2 -10.05 Q8.25 -9.9 8.25 -9.75 L8.25 -9.75 8.2 -9.65 8.15 -9.5 8.0 -9.35 Q7.95 -9.3 7.95 -9.25 7.95 -8.95 8.2 -8.9 L8.25 -8.85 8.35 -8.85 8.4 -8.75 8.5 -8.75 8.6 -8.75 8.65 -8.8 8.75 -8.75 8.8 -8.65 8.75 -8.6 8.7 -8.55 8.7 -8.45 Q8.7 -8.4 8.65 -8.4 L8.5 -8.35 Q8.55 -8.2 8.75 -8.1 L8.8 -8.05 8.8 -8.0 8.85 -7.9 8.85 -7.85 Q8.85 -7.8 8.75 -7.75 L8.65 -7.7 8.7 -7.6 8.6 -7.6 8.5 -7.6 8.45 -7.6 Q8.4 -7.55 8.4 -7.4 L8.4 -7.2 8.45 -7.15 8.45 -7.15 Q8.45 -7.1 8.6 -7.05 L8.8 -7.0 8.85 -6.95 8.8 -6.85 Q8.75 -6.75 8.75 -6.65 L8.8 -6.4 8.9 -6.2 8.9 -6.15 8.85 -6.1 8.8 -6.05 8.95 -5.9 Q9.1 -5.8 9.15 -5.8 L9.2 -6.05 9.45 -5.9 9.45 -5.9 Q9.55 -5.7 9.7 -5.6 9.85 -5.5 10.0 -5.55 L10.15 -5.45 Q10.3 -5.35 10.4 -5.35 L10.45 -5.35 10.5 -5.35 10.5 -5.45 10.35 -5.6 10.25 -5.75 10.2 -5.85 10.0 -5.95 10.0 -6.0 9.95 -6.05 9.85 -6.15 9.7 -6.25 9.65 -6.25 9.55 -6.35 9.5 -6.45 9.5 -6.45 9.45 -6.7 9.45 -6.8 9.5 -6.9 9.6 -6.9 9.7 -6.95 9.8 -6.9 9.8 -6.85 9.75 -6.75 9.65 -6.7 9.6 -6.6 9.6 -6.5 9.6 -6.45 Q9.6 -6.4 9.7 -6.3 9.85 -6.15 10.05 -6.15 L10.1 -6.15 Q10.25 -6.15 10.25 -6.3 10.25 -6.4 10.15 -6.5 L10.1 -6.5 Q10.05 -6.6 10.05 -6.65 L10.0 -6.8 10.0 -6.8 Q10.05 -6.8 10.1 -6.85 L10.15 -6.9 10.2 -6.9 10.25 -6.95 10.4 -7.0 10.4 -7.05 10.45 -6.9 10.45 -6.9 10.4 -6.85 10.35 -6.75 10.3 -6.6 10.3 -6.55 Q10.35 -6.45 10.5 -6.45 L10.6 -6.4 10.6 -6.35 10.6 -6.3 10.5 -6.3 10.5 -6.25 Q10.55 -6.2 10.45 -6.1 L10.4 -6.0 10.4 -5.85 10.4 -5.6 10.5 -5.55 10.9 -5.4 10.95 -5.35 11.3 -5.25 Q11.35 -5.25 11.4 -5.35 11.5 -5.4 11.5 -5.5 L11.4 -5.6 Q11.25 -5.65 11.25 -5.7 11.25 -5.75 11.35 -5.8 L11.35 -5.8 11.4 -5.85 11.35 -6.05 11.3 -6.1 11.1 -6.15 11.0 -6.15 10.8 -6.15 10.8 -6.2 10.8 -6.2 10.75 -6.2 10.8 -6.2 10.85 -6.2 Q11.0 -6.2 11.0 -6.3 11.0 -6.4 11.05 -6.45 L11.15 -6.35 11.3 -6.2 11.4 -6.2 11.45 -6.15 11.7 -6.1 11.85 -6.15 11.9 -6.3 Q11.9 -6.4 11.55 -6.65 L11.6 -6.65 Q11.85 -6.65 11.85 -6.75 L11.8 -6.8 11.6 -6.8 11.55 -6.8 11.45 -6.85 Q11.4 -6.85 11.4 -6.9 11.4 -7.0 11.35 -7.0 L11.3 -7.0 11.15 -6.95 Q11.1 -6.95 11.05 -7.15 L10.95 -7.2 Q10.9 -7.2 10.85 -7.25 L10.9 -7.25 11.1 -7.25 11.1 -7.25 11.15 -7.25 11.2 -7.2 11.3 -7.25 11.45 -7.25 11.4 -7.3 11.4 -7.4 11.45 -7.45 11.4 -7.5 11.3 -7.6 11.35 -7.7 11.45 -7.7 11.45 -7.7 11.5 -7.65 Q11.55 -7.6 11.6 -7.6 L11.75 -7.6 11.85 -7.6 11.9 -7.6 11.95 -7.65 12.05 -7.8 12.0 -7.8 12.0 -7.85 12.05 -7.9 12.1 -7.95 12.0 -8.05 Q11.95 -8.15 11.95 -8.2 L12.05 -8.25 12.15 -8.3 12.45 -8.2 12.5 -8.25 12.6 -8.3 12.65 -8.25 12.7 -8.2 12.75 -8.25 12.85 -8.25 12.9 -8.25 12.8 -8.35 12.75 -8.45 12.7 -8.5 12.65 -8.55 12.6 -8.55 12.5 -8.6 12.55 -8.6 12.55 -8.65 12.45 -8.75 12.35 -8.75 12.25 -8.75 12.2 -8.75 Q12.1 -8.75 12.1 -8.8 L12.1 -8.85 12.0 -8.95 11.9 -8.95 11.9 -9.05 11.95 -9.1 11.85 -9.25 11.7 -9.4 11.65 -9.35 11.55 -9.3 11.55 -9.3 Q11.5 -9.3 11.4 -9.4 L11.3 -9.45 11.2 -9.4 11.1 -9.35 11.05 -9.25 11.0 -9.15 Q11.0 -9.1 11.15 -9.05 L11.3 -9.0 11.25 -9.0 11.2 -8.95 Q11.15 -8.95 11.15 -9.0 L11.1 -9.0 11.0 -9.0 11.0 -8.95 11.05 -8.9 11.1 -8.85 11.1 -8.85 11.15 -8.85 11.2 -8.85 11.25 -8.85 11.25 -8.85 11.3 -8.85 Q11.25 -8.75 11.15 -8.75 L11.15 -8.75 Q11.2 -8.7 11.25 -8.7 L11.3 -8.7 11.3 -8.65 11.3 -8.6 11.2 -8.6 11.15 -8.65 11.05 -8.65 11.0 -8.65 10.95 -8.65 Q10.9 -8.65 10.9 -8.65 10.85 -8.75 10.8 -8.75 L10.75 -8.75 Q10.75 -8.75 10.75 -8.8 L10.7 -8.85 10.65 -8.85 10.5 -8.8 10.5 -8.7 10.5 -8.65 Q10.55 -8.6 10.7 -8.55 L10.6 -8.55 10.55 -8.55 10.5 -8.55 10.45 -8.6 10.4 -8.6 Q10.4 -8.65 10.35 -8.65 L10.35 -8.7 Q10.35 -8.75 10.3 -8.75 L10.2 -8.7 10.1 -8.65 10.15 -8.55 10.2 -8.5 10.15 -8.5 10.15 -8.45 10.1 -8.5 10.05 -8.5 10.05 -8.55 9.95 -8.6 9.9 -8.6 9.85 -8.6 9.85 -8.65 Q9.9 -8.75 10.0 -8.7 10.1 -8.7 10.15 -8.8 10.1 -8.85 10.2 -8.9 L10.2 -8.9 10.3 -9.0 10.35 -8.95 10.4 -8.95 10.45 -8.95 10.5 -8.95 10.55 -9.0 10.55 -9.05 10.5 -9.15 10.45 -9.2 10.45 -9.2 10.35 -9.25 10.3 -9.3 10.25 -9.35 10.05 -9.3 Q9.95 -9.25 9.95 -9.2 L9.85 -9.2 9.8 -9.2 9.7 -9.15 9.65 -9.15 9.6 -9.05 9.55 -9.0 9.55 -8.95 9.5 -8.95 9.5 -8.9 9.45 -8.9 9.45 -8.9 9.4 -8.9 9.4 -8.9 9.3 -8.85 9.25 -8.85 9.35 -8.75 9.45 -8.7 9.45 -8.65 9.5 -8.6 Q9.35 -8.6 9.35 -8.65 L9.25 -8.65 9.2 -8.65 9.2 -8.6 9.15 -8.6 9.15 -8.65 9.2 -8.7 9.25 -8.75 9.2 -8.8 9.2 -8.85 9.25 -8.95 9.3 -8.95 9.3 -9.0 9.45 -9.05 Q9.5 -9.05 9.55 -9.1 L9.55 -9.15 9.6 -9.2 9.6 -9.2 9.65 -9.25 9.75 -9.25 9.8 -9.3 9.8 -9.3 9.85 -9.35 9.75 -9.45 9.65 -9.45 9.65 -9.5 9.65 -9.6 9.7 -9.6 9.7 -9.6 9.75 -9.6 9.75 -9.6 9.8 -9.6 9.85 -9.6 9.95 -9.55 10.05 -9.55 10.15 -9.55 10.2 -9.6 10.3 -9.55 Q10.35 -9.5 10.4 -9.5 L10.5 -9.5 10.5 -9.5 10.55 -9.6 10.6 -9.65 M9.4 -11.6 L9.4 -11.6 Q9.4 -11.65 9.45 -11.7 L9.55 -11.8 9.55 -11.75 Q9.55 -11.75 9.65 -11.7 L9.65 -11.75 9.7 -11.75 9.7 -11.7 Q9.7 -11.65 9.75 -11.6 L9.8 -11.55 9.85 -11.45 9.7 -11.15 9.75 -11.35 9.7 -11.6 9.65 -11.7 9.55 -11.55 9.5 -11.45 9.4 -11.3 9.4 -11.3 9.35 -11.3 9.3 -11.3 9.2 -11.25 9.15 -11.25 9.15 -11.25 9.25 -11.35 9.25 -11.35 9.4 -11.6 M9.7 -11.1 L9.7 -11.1 9.8 -11.05 9.85 -11.05 9.85 -11.05 9.95 -11.25 10.0 -11.3 10.15 -11.4 Q10.15 -11.35 10.2 -11.3 L10.35 -11.2 10.35 -11.1 10.4 -10.95 10.5 -11.0 10.6 -11.05 10.6 -11.0 10.6 -10.7 10.55 -10.6 10.55 -10.55 10.5 -10.55 10.4 -10.6 10.35 -10.6 10.3 -10.6 10.3 -10.65 10.35 -10.75 10.35 -10.75 10.35 -10.85 10.4 -10.9 Q10.4 -11.05 10.2 -11.05 L10.05 -11.05 10.0 -11.0 10.0 -10.95 10.0 -10.9 Q10.0 -10.85 9.9 -10.85 9.8 -10.9 9.75 -10.8 L9.75 -10.8 9.75 -10.55 9.65 -10.4 9.65 -10.35 9.6 -10.3 9.55 -10.3 9.5 -10.25 9.45 -10.25 9.3 -10.3 9.3 -10.3 9.25 -10.25 9.2 -10.2 Q9.1 -10.15 9.1 -10.15 L9.05 -10.15 8.95 -10.2 8.85 -10.1 8.8 -10.0 8.85 -9.9 8.9 -9.8 8.85 -9.75 8.8 -9.7 8.85 -9.6 8.85 -9.5 Q8.85 -9.4 8.7 -9.2 L8.65 -9.25 8.6 -9.25 8.55 -9.25 8.5 -9.25 8.45 -9.25 8.45 -9.35 8.4 -9.4 8.45 -9.45 8.45 -9.45 Q8.55 -9.45 8.6 -9.55 L8.65 -9.8 Q8.65 -9.95 8.8 -10.25 L8.85 -10.25 Q8.85 -10.35 8.75 -10.4 8.65 -10.45 8.65 -10.55 L8.65 -10.55 Q8.85 -10.6 8.8 -10.8 8.8 -11.05 8.9 -11.1 L8.95 -11.15 8.95 -11.1 8.9 -10.95 Q8.9 -10.9 9.0 -10.8 L9.05 -10.75 9.1 -10.65 9.05 -10.45 Q9.05 -10.4 9.1 -10.35 L9.25 -10.35 Q9.35 -10.35 9.4 -10.45 L9.45 -10.65 9.6 -10.9 9.6 -10.9 9.7 -11.1 M10.55 -10.5 L10.65 -10.5 10.7 -10.55 10.75 -10.55 10.85 -10.6 10.9 -10.65 11.0 -10.6 10.95 -10.55 11.0 -10.45 10.9 -10.35 10.85 -10.3 10.7 -10.45 Q10.65 -10.45 10.65 -10.4 L10.6 -10.35 10.5 -10.35 10.5 -10.35 10.55 -10.45 10.55 -10.5 M9.6 -10.15 L9.6 -10.15 9.65 -10.2 9.65 -10.25 9.9 -10.25 10.35 -10.25 10.45 -10.3 10.4 -10.2 10.25 -10.15 10.2 -10.15 10.15 -10.05 10.1 -10.05 10.1 -10.0 10.05 -10.0 10.0 -10.0 9.95 -10.0 9.9 -9.95 9.8 -9.95 9.7 -9.95 9.7 -9.95 9.6 -9.95 9.55 -9.95 9.55 -10.05 9.55 -10.1 9.6 -10.15 M8.05 -8.6 L8.1 -8.55 8.15 -8.55 8.2 -8.5 Q8.25 -8.5 8.25 -8.55 L8.2 -8.65 8.35 -8.7 8.35 -8.75 8.3 -8.75 8.25 -8.75 8.2 -8.75 8.1 -8.7 8.0 -8.65 8.05 -8.6 M7.75 -8.55 L7.75 -8.55 7.7 -8.5 7.65 -8.5 7.7 -8.45 7.75 -8.45 7.85 -8.45 7.85 -8.5 7.8 -8.55 7.75 -8.55 M8.05 -8.1 L8.05 -8.1 8.0 -8.15 8.0 -8.15 Q7.95 -8.15 7.9 -8.1 L7.9 -8.05 7.95 -7.95 8.15 -7.9 Q8.2 -7.9 8.3 -8.0 8.4 -8.1 8.4 -8.2 L8.4 -8.2 8.35 -8.15 Q8.2 -8.1 8.1 -8.1 L8.05 -8.1 M7.5 -7.8 L7.45 -7.8 7.4 -7.75 7.35 -7.7 7.35 -7.65 7.35 -7.65 7.5 -7.7 7.5 -7.7 7.55 -7.7 7.55 -7.8 7.5 -7.8 M8.05 -7.45 L8.0 -7.5 8.0 -7.5 7.95 -7.4 7.9 -7.3 7.8 -7.25 7.75 -7.25 7.75 -7.25 7.7 -7.3 7.65 -7.25 7.65 -7.15 7.6 -7.15 7.65 -7.1 7.85 -7.0 Q8.1 -7.15 8.1 -7.25 L8.05 -7.3 8.05 -7.45 M11.5 -8.7 L11.6 -8.7 11.65 -8.65 11.6 -8.6 11.5 -8.55 11.45 -8.5 11.45 -8.5 11.5 -8.6 11.5 -8.7 M10.8 -8.1 L10.8 -8.15 10.85 -8.15 10.9 -8.05 10.9 -8.05 10.95 -8.05 11.05 -8.05 11.15 -8.05 11.25 -8.05 11.35 -8.0 11.35 -8.0 11.15 -7.95 11.1 -7.95 11.0 -7.9 10.95 -7.85 10.9 -7.85 10.95 -7.8 11.0 -7.75 11.0 -7.7 11.05 -7.65 11.0 -7.6 10.9 -7.6 10.9 -7.6 10.65 -7.75 10.65 -7.8 10.7 -7.95 10.75 -7.95 10.8 -8.1 M9.3 -7.7 L9.3 -7.7 9.35 -7.6 9.35 -7.5 9.3 -7.45 Q9.25 -7.35 9.15 -7.35 L9.1 -7.35 9.05 -7.35 9.0 -7.4 9.15 -7.45 9.25 -7.55 Q9.3 -7.6 9.3 -7.7 M10.1 -7.9 L10.15 -7.9 10.1 -7.85 10.0 -7.8 9.9 -7.85 9.85 -7.85 9.8 -7.85 9.8 -7.9 9.8 -7.9 9.9 -7.9 9.95 -7.9 10.0 -7.9 10.05 -7.9 Q10.1 -7.9 10.1 -7.9 L10.1 -7.9 M10.65 -7.35 L10.55 -7.35 10.45 -7.25 Q10.4 -7.2 10.4 -7.15 L10.4 -7.15 10.35 -7.2 10.5 -7.3 10.65 -7.4 10.7 -7.35 10.65 -7.35" fill="#722c28" fill-rule="evenodd" stroke="none"/>
    <path d="M9.25 -12.05 L9.25 -11.95 9.35 -11.75 9.35 -11.7 9.4 -11.6 9.25 -11.35 9.25 -11.35 9.15 -11.25 9.15 -11.25 9.2 -11.25 9.3 -11.3 9.35 -11.3 9.4 -11.3 9.4 -11.3 Q9.35 -11.2 9.35 -11.05 L9.35 -11.05 9.25 -10.9 Q9.15 -10.85 9.15 -10.8 L9.15 -10.8 9.25 -10.8 9.4 -10.9 9.6 -11.35 9.6 -11.45 9.5 -11.45 9.55 -11.55 9.65 -11.7 9.7 -11.6 9.75 -11.35 9.7 -11.15 9.7 -11.1 9.6 -10.9 9.6 -10.9 9.45 -10.65 9.4 -10.45 Q9.35 -10.35 9.25 -10.35 L9.1 -10.35 Q9.05 -10.4 9.05 -10.45 L9.1 -10.65 9.05 -10.75 9.0 -10.8 Q8.9 -10.9 8.9 -10.95 L8.95 -11.1 Q9.05 -11.1 9.05 -11.2 L9.05 -11.3 9.0 -11.4 8.9 -11.35 8.85 -11.3 8.8 -11.25 8.85 -11.15 Q8.85 -11.15 8.9 -11.1 8.8 -11.05 8.8 -10.8 8.85 -10.6 8.65 -10.55 L8.65 -10.55 Q8.65 -10.45 8.75 -10.4 8.85 -10.35 8.85 -10.25 L8.8 -10.25 Q8.65 -9.95 8.65 -9.8 L8.6 -9.55 Q8.55 -9.45 8.45 -9.45 L8.45 -9.45 8.4 -9.4 8.45 -9.35 8.45 -9.25 8.5 -9.25 8.55 -9.25 8.6 -9.25 8.65 -9.25 8.7 -9.2 Q8.85 -9.4 8.85 -9.5 L8.85 -9.6 8.8 -9.7 8.85 -9.75 8.9 -9.8 8.85 -9.9 8.8 -10.0 8.85 -10.1 8.95 -10.2 9.05 -10.15 9.1 -10.15 Q9.1 -10.15 9.2 -10.2 L9.25 -10.25 9.3 -10.3 9.3 -10.3 9.45 -10.25 9.5 -10.25 9.55 -10.3 9.6 -10.3 9.65 -10.35 9.65 -10.4 9.75 -10.55 9.75 -10.8 9.75 -10.8 Q9.8 -10.9 9.9 -10.85 10.0 -10.85 10.0 -10.9 L10.0 -10.95 10.0 -11.0 10.05 -11.05 10.2 -11.05 Q10.4 -11.05 10.4 -10.9 L10.35 -10.85 10.35 -10.75 10.35 -10.9 10.25 -10.9 Q10.05 -10.9 10.0 -10.7 L10.0 -10.6 Q9.95 -10.5 9.9 -10.45 L9.9 -10.45 Q9.95 -10.35 10.2 -10.35 L10.35 -10.4 10.45 -10.45 Q10.35 -10.45 10.35 -10.6 L10.4 -10.6 10.5 -10.55 10.55 -10.55 10.5 -10.5 10.55 -10.5 10.55 -10.45 10.5 -10.35 10.5 -10.35 10.6 -10.35 10.65 -10.4 Q10.65 -10.45 10.7 -10.45 L10.85 -10.3 10.75 -10.15 10.7 -10.2 10.6 -10.3 10.55 -10.25 10.5 -10.25 10.5 -10.25 10.4 -10.2 10.35 -10.15 10.35 -10.1 10.35 -10.05 10.3 -10.0 10.35 -9.95 10.45 -9.9 10.45 -9.95 10.4 -9.9 10.45 -9.85 10.45 -9.85 10.4 -9.75 10.35 -9.7 10.35 -9.65 10.35 -9.65 10.45 -9.7 10.5 -9.7 10.5 -9.65 10.55 -9.65 Q10.55 -9.65 10.6 -9.65 L10.55 -9.6 10.5 -9.5 10.5 -9.5 10.4 -9.5 Q10.35 -9.5 10.3 -9.55 L10.2 -9.6 10.15 -9.55 10.05 -9.55 9.95 -9.55 9.85 -9.6 9.8 -9.6 9.75 -9.6 9.75 -9.6 9.7 -9.6 9.7 -9.6 9.65 -9.6 9.65 -9.5 9.65 -9.45 9.75 -9.45 9.85 -9.35 9.8 -9.3 9.8 -9.3 9.75 -9.25 9.65 -9.25 9.6 -9.2 9.6 -9.2 9.55 -9.15 9.55 -9.1 Q9.5 -9.05 9.45 -9.05 L9.3 -9.0 9.3 -8.95 9.25 -8.95 9.2 -8.85 9.2 -8.8 9.25 -8.75 9.2 -8.7 9.15 -8.65 9.15 -8.6 9.2 -8.6 9.2 -8.65 9.25 -8.65 9.35 -8.65 Q9.35 -8.6 9.5 -8.6 L9.45 -8.65 9.45 -8.7 9.35 -8.75 9.25 -8.85 9.3 -8.85 9.4 -8.9 9.4 -8.9 9.45 -8.9 9.45 -8.9 9.5 -8.9 9.5 -8.95 9.55 -8.95 9.55 -9.0 9.6 -9.05 9.65 -9.15 9.7 -9.15 9.8 -9.2 9.85 -9.2 9.95 -9.2 Q9.95 -9.25 10.05 -9.3 L10.25 -9.35 10.3 -9.3 10.35 -9.25 10.45 -9.2 10.45 -9.2 10.5 -9.15 10.55 -9.05 10.55 -9.0 10.5 -8.95 10.45 -8.95 10.4 -8.95 10.35 -8.95 10.3 -9.0 10.2 -8.9 10.2 -8.9 Q10.1 -8.85 10.15 -8.8 10.1 -8.7 10.0 -8.7 9.9 -8.75 9.85 -8.65 L9.85 -8.6 9.9 -8.6 9.95 -8.6 10.05 -8.55 10.05 -8.5 10.1 -8.5 10.15 -8.45 10.15 -8.5 10.2 -8.5 10.15 -8.55 10.1 -8.65 10.2 -8.7 10.3 -8.75 Q10.35 -8.75 10.35 -8.7 L10.35 -8.65 Q10.4 -8.65 10.4 -8.6 L10.45 -8.6 10.5 -8.55 10.55 -8.55 10.6 -8.55 10.7 -8.55 Q10.55 -8.6 10.5 -8.65 L10.5 -8.7 10.5 -8.8 10.65 -8.85 10.7 -8.85 10.75 -8.8 Q10.75 -8.75 10.75 -8.75 L10.8 -8.75 Q10.85 -8.75 10.9 -8.65 10.9 -8.65 10.95 -8.65 L11.0 -8.65 11.05 -8.65 11.15 -8.65 11.2 -8.6 11.3 -8.6 11.3 -8.65 11.3 -8.7 11.25 -8.7 Q11.2 -8.7 11.15 -8.75 L11.15 -8.75 Q11.25 -8.75 11.3 -8.85 L11.25 -8.85 11.25 -8.85 11.2 -8.85 11.15 -8.85 11.1 -8.85 11.1 -8.85 11.05 -8.9 11.0 -8.95 11.0 -9.0 11.1 -9.0 11.15 -9.0 Q11.15 -8.95 11.2 -8.95 L11.25 -9.0 11.3 -9.0 11.15 -9.05 Q11.0 -9.1 11.0 -9.15 L11.05 -9.25 11.1 -9.35 11.2 -9.4 11.3 -9.45 11.4 -9.4 Q11.5 -9.3 11.55 -9.3 L11.55 -9.3 11.65 -9.35 11.7 -9.4 11.85 -9.25 11.95 -9.1 11.9 -9.05 11.9 -8.95 12.0 -8.95 12.1 -8.85 12.1 -8.8 Q12.1 -8.75 12.2 -8.75 L12.25 -8.75 12.35 -8.75 12.45 -8.75 12.55 -8.65 12.55 -8.6 12.5 -8.6 12.6 -8.55 12.65 -8.55 12.7 -8.5 12.75 -8.45 12.8 -8.35 12.9 -8.25 12.85 -8.25 12.75 -8.25 12.7 -8.2 12.65 -8.25 12.6 -8.3 12.5 -8.25 12.45 -8.2 12.15 -8.3 12.05 -8.25 11.95 -8.2 Q11.95 -8.15 12.0 -8.05 L12.1 -7.95 12.05 -7.9 12.0 -7.85 12.0 -7.8 12.05 -7.8 11.95 -7.65 11.9 -7.6 11.85 -7.6 11.75 -7.6 11.6 -7.6 Q11.55 -7.6 11.5 -7.65 L11.45 -7.7 11.45 -7.7 11.35 -7.7 11.3 -7.6 11.4 -7.5 11.45 -7.45 11.4 -7.4 11.4 -7.3 11.45 -7.25 11.3 -7.25 11.2 -7.2 11.15 -7.25 11.1 -7.25 11.1 -7.25 10.9 -7.25 10.85 -7.25 Q10.9 -7.2 10.95 -7.2 L11.05 -7.15 Q11.1 -6.95 11.15 -6.95 L11.3 -7.0 11.35 -7.0 Q11.4 -7.0 11.4 -6.9 11.4 -6.85 11.45 -6.85 L11.55 -6.8 11.6 -6.8 11.8 -6.8 11.85 -6.75 Q11.85 -6.65 11.6 -6.65 L11.55 -6.65 Q11.9 -6.4 11.9 -6.3 L11.85 -6.15 11.7 -6.1 11.45 -6.15 11.4 -6.2 11.3 -6.2 11.15 -6.35 11.05 -6.45 Q11.0 -6.4 11.0 -6.3 11.0 -6.2 10.85 -6.2 L10.8 -6.2 10.75 -6.2 10.8 -6.2 10.8 -6.2 10.8 -6.15 11.0 -6.15 11.1 -6.15 11.3 -6.1 11.35 -6.05 11.4 -5.85 11.35 -5.8 11.35 -5.8 Q11.25 -5.75 11.25 -5.7 11.25 -5.65 11.4 -5.6 L11.5 -5.5 Q11.5 -5.4 11.4 -5.35 11.35 -5.25 11.3 -5.25 L10.95 -5.35 10.9 -5.4 10.5 -5.55 10.4 -5.6 10.4 -5.85 10.4 -6.0 10.45 -6.1 Q10.55 -6.2 10.5 -6.25 L10.5 -6.3 10.6 -6.3 10.6 -6.35 10.6 -6.4 10.5 -6.45 Q10.35 -6.45 10.3 -6.55 L10.3 -6.6 10.35 -6.75 10.4 -6.85 10.45 -6.9 10.45 -6.9 10.4 -7.05 10.4 -7.0 10.25 -6.95 10.2 -6.9 10.15 -6.9 10.1 -6.85 Q10.05 -6.8 10.0 -6.8 L10.0 -6.8 10.05 -6.65 Q10.05 -6.6 10.1 -6.5 L10.15 -6.5 Q10.25 -6.4 10.25 -6.3 10.25 -6.15 10.1 -6.15 L10.05 -6.15 Q9.85 -6.15 9.7 -6.3 9.6 -6.4 9.6 -6.45 L9.6 -6.5 9.6 -6.6 9.65 -6.7 9.75 -6.75 9.8 -6.85 9.8 -6.9 9.7 -6.95 9.6 -6.9 9.5 -6.9 9.45 -6.8 9.45 -6.7 9.5 -6.45 9.5 -6.45 9.55 -6.35 Q9.5 -6.4 9.45 -6.4 L9.4 -6.45 9.3 -6.55 9.25 -6.65 9.25 -6.55 9.25 -6.3 Q9.3 -6.2 9.4 -6.1 L9.45 -6.0 Q9.65 -5.8 9.9 -5.8 L10.0 -5.8 9.95 -5.8 9.85 -5.95 9.8 -6.0 9.75 -6.1 9.7 -6.25 9.85 -6.15 9.95 -6.05 10.0 -6.0 10.0 -5.95 10.2 -5.85 10.25 -5.75 10.35 -5.6 10.5 -5.45 10.5 -5.35 10.45 -5.35 10.4 -5.35 Q10.3 -5.35 10.15 -5.45 L10.0 -5.55 Q9.85 -5.5 9.7 -5.6 9.55 -5.7 9.45 -5.9 L9.45 -5.9 9.2 -6.05 9.15 -5.8 Q9.1 -5.8 8.95 -5.9 L8.8 -6.05 8.85 -6.1 8.9 -6.15 8.9 -6.2 8.8 -6.4 8.75 -6.65 Q8.75 -6.75 8.8 -6.85 L8.85 -6.95 8.8 -7.0 8.6 -7.05 Q8.45 -7.1 8.45 -7.15 L8.45 -7.15 8.4 -7.2 8.4 -7.4 Q8.4 -7.55 8.45 -7.6 L8.5 -7.6 8.6 -7.6 8.7 -7.6 8.65 -7.7 8.75 -7.75 Q8.85 -7.8 8.85 -7.85 L8.85 -7.9 8.8 -8.0 8.8 -8.05 8.75 -8.1 Q8.55 -8.2 8.5 -8.35 L8.65 -8.4 Q8.7 -8.4 8.7 -8.45 L8.7 -8.55 8.75 -8.6 8.8 -8.65 8.75 -8.75 8.65 -8.8 8.6 -8.75 8.5 -8.75 8.4 -8.75 8.35 -8.85 8.25 -8.85 8.2 -8.9 Q7.95 -8.95 7.95 -9.25 7.95 -9.3 8.0 -9.35 L8.15 -9.5 8.2 -9.65 8.25 -9.75 8.25 -9.75 Q8.25 -9.9 8.2 -10.05 L8.2 -10.15 Q8.25 -10.35 8.4 -10.5 L8.45 -10.6 8.55 -10.7 8.6 -10.9 8.6 -10.95 8.7 -11.2 8.7 -11.35 8.65 -11.55 Q8.65 -11.65 8.75 -11.75 8.85 -11.85 9.05 -11.9 L9.15 -12.0 9.25 -12.05 M9.6 -10.15 L9.55 -10.1 9.55 -10.05 9.55 -9.95 9.6 -9.95 9.7 -9.95 9.7 -9.95 9.8 -9.95 9.9 -9.95 9.95 -10.0 10.0 -10.0 10.05 -10.0 10.1 -10.0 10.1 -10.05 10.15 -10.05 10.2 -10.15 10.25 -10.15 10.4 -10.2 10.45 -10.3 10.35 -10.25 9.9 -10.25 9.65 -10.25 9.65 -10.2 9.6 -10.15 9.6 -10.15 M9.45 -10.15 L9.4 -10.2 Q9.25 -10.2 9.15 -10.1 L8.95 -9.95 9.15 -9.85 9.2 -9.8 9.25 -9.75 9.4 -9.8 9.5 -9.8 9.6 -9.8 9.6 -9.85 Q9.6 -9.9 9.5 -9.9 9.4 -9.95 9.4 -10.0 L9.45 -10.05 9.5 -10.1 9.45 -10.15 M7.75 -8.55 L7.8 -8.55 7.85 -8.5 7.85 -8.45 7.75 -8.45 7.7 -8.45 7.65 -8.5 7.7 -8.5 7.75 -8.55 7.75 -8.55 M8.05 -8.6 L8.0 -8.65 8.1 -8.7 8.2 -8.75 8.25 -8.75 8.3 -8.75 8.35 -8.75 8.35 -8.7 8.2 -8.65 8.25 -8.55 Q8.25 -8.5 8.2 -8.5 L8.15 -8.55 8.1 -8.55 8.05 -8.6 M8.05 -8.1 L8.1 -8.1 Q8.2 -8.1 8.35 -8.15 L8.4 -8.2 8.4 -8.2 Q8.4 -8.1 8.3 -8.0 8.2 -7.9 8.15 -7.9 L7.95 -7.95 7.9 -8.05 7.9 -8.1 Q7.95 -8.15 8.0 -8.15 L8.0 -8.15 8.05 -8.1 8.05 -8.1 M7.5 -7.8 L7.55 -7.8 7.55 -7.7 7.5 -7.7 7.5 -7.7 7.35 -7.65 7.35 -7.65 7.35 -7.7 7.4 -7.75 7.45 -7.8 7.5 -7.8 M8.05 -7.45 L8.05 -7.3 8.1 -7.25 Q8.1 -7.15 7.85 -7.0 L7.65 -7.1 7.6 -7.15 7.65 -7.15 7.65 -7.25 7.7 -7.3 7.75 -7.25 7.75 -7.25 7.8 -7.25 7.9 -7.3 7.95 -7.4 8.0 -7.5 8.0 -7.5 8.05 -7.45 M12.4 -8.6 L12.25 -8.6 12.15 -8.6 12.1 -8.6 12.05 -8.6 12.05 -8.6 12.05 -8.6 12.1 -8.55 12.1 -8.55 12.05 -8.45 12.15 -8.4 12.2 -8.3 12.4 -8.4 12.4 -8.6 M11.5 -9.25 L11.45 -9.2 11.4 -9.2 Q11.35 -9.2 11.3 -9.25 L11.25 -9.3 Q11.15 -9.3 11.15 -9.2 11.15 -9.15 11.3 -9.0 11.35 -9.0 11.4 -8.95 L11.45 -8.95 11.55 -8.9 Q11.65 -8.9 11.65 -9.0 L11.65 -9.1 11.75 -9.15 11.7 -9.15 11.55 -9.25 11.5 -9.25 M11.5 -8.7 L11.5 -8.6 11.45 -8.5 11.45 -8.5 11.5 -8.55 11.6 -8.6 11.65 -8.65 11.6 -8.7 11.5 -8.7 M11.05 -8.45 L11.05 -8.4 11.05 -8.35 11.1 -8.3 11.15 -8.3 11.25 -8.35 11.3 -8.4 11.3 -8.4 11.2 -8.4 11.15 -8.4 11.05 -8.45 M10.75 -8.4 L10.75 -8.3 10.8 -8.25 10.85 -8.3 10.85 -8.35 10.8 -8.4 10.8 -8.4 10.75 -8.4 M10.8 -8.1 L10.75 -7.95 10.7 -7.95 10.65 -7.8 10.65 -7.75 10.9 -7.6 10.9 -7.6 11.0 -7.6 11.05 -7.65 11.0 -7.7 11.0 -7.75 10.95 -7.8 10.9 -7.85 10.95 -7.85 11.0 -7.9 11.1 -7.95 11.15 -7.95 11.35 -8.0 11.35 -8.0 11.25 -8.05 11.15 -8.05 11.05 -8.05 10.95 -8.05 10.9 -8.05 10.9 -8.05 10.85 -8.15 10.8 -8.15 10.8 -8.1 M10.25 -8.25 Q10.15 -8.25 10.15 -8.15 L10.2 -8.0 10.3 -7.8 10.25 -7.65 10.25 -7.6 10.3 -7.6 10.4 -7.65 10.45 -7.75 10.45 -7.75 10.5 -8.0 Q10.5 -8.1 10.45 -8.15 L10.4 -8.2 10.3 -8.25 10.25 -8.25 10.25 -8.25 M10.25 -7.45 L10.1 -7.45 10.0 -7.5 10.0 -7.45 Q10.0 -7.35 10.0 -7.35 L10.0 -7.35 10.15 -7.3 Q10.2 -7.3 10.45 -7.45 L10.5 -7.45 10.6 -7.5 10.65 -7.5 10.6 -7.6 10.5 -7.55 10.45 -7.5 10.35 -7.5 10.25 -7.45 M11.1 -7.5 L11.15 -7.55 11.2 -7.65 11.15 -7.6 11.1 -7.6 11.1 -7.55 11.05 -7.55 11.05 -7.5 11.1 -7.45 11.1 -7.5 M11.7 -8.55 L11.6 -8.5 11.55 -8.5 11.55 -8.45 11.6 -8.45 11.6 -8.45 11.55 -8.35 Q11.45 -8.3 11.45 -8.2 L11.45 -8.1 11.4 -8.1 11.3 -8.1 11.3 -8.1 Q11.35 -8.05 11.4 -8.05 L11.45 -8.0 11.45 -8.0 11.55 -7.95 11.5 -7.85 11.45 -7.8 11.4 -7.8 11.4 -7.8 11.3 -7.85 11.35 -7.8 11.35 -7.8 11.45 -7.75 11.45 -7.75 11.55 -7.7 11.6 -7.7 Q11.7 -7.7 11.75 -7.8 L11.85 -7.95 11.95 -8.2 11.9 -8.3 11.85 -8.4 11.85 -8.4 11.8 -8.45 11.7 -8.55 11.7 -8.55 M10.0 -9.75 L10.1 -9.8 10.15 -9.85 10.1 -9.85 10.0 -9.9 9.9 -9.9 9.85 -9.85 9.85 -9.8 9.9 -9.8 Q9.9 -9.75 9.95 -9.75 L10.0 -9.75 M9.4 -9.65 L9.35 -9.65 9.2 -9.7 9.15 -9.65 9.05 -9.65 8.95 -9.55 9.0 -9.5 9.05 -9.45 9.05 -9.35 9.2 -9.35 9.25 -9.4 9.25 -9.55 9.4 -9.6 9.45 -9.6 9.4 -9.65 M9.45 -9.35 L9.35 -9.35 9.3 -9.2 9.3 -9.15 9.35 -9.15 9.5 -9.25 9.55 -9.3 9.45 -9.35 M9.15 -9.1 L9.0 -9.2 8.85 -9.15 Q8.75 -9.1 8.75 -9.05 L8.75 -9.05 8.7 -9.0 Q8.7 -9.0 8.65 -9.05 L8.6 -9.1 8.5 -9.05 Q8.45 -9.05 8.4 -9.1 L8.35 -9.15 8.3 -9.1 8.3 -9.1 Q8.3 -9.0 8.4 -9.0 L8.4 -8.95 8.55 -8.95 8.7 -8.9 8.7 -8.85 8.85 -8.85 8.9 -8.9 8.95 -8.95 Q8.95 -9.05 9.05 -9.05 L9.15 -9.1 9.15 -9.1 M9.5 -8.75 Q9.5 -8.75 9.55 -8.75 L9.7 -8.75 9.7 -8.75 9.7 -8.8 9.65 -8.8 9.55 -8.85 9.5 -8.8 9.45 -8.8 Q9.45 -8.75 9.5 -8.75 M9.8 -9.0 L9.8 -8.95 9.75 -8.95 Q9.75 -8.95 9.9 -8.9 L9.95 -8.95 10.0 -8.95 10.05 -8.95 10.1 -9.0 Q10.05 -9.05 9.85 -9.15 L9.85 -9.05 9.8 -9.0 M8.95 -8.5 L8.85 -8.4 8.8 -8.35 Q8.8 -8.25 8.95 -8.25 L9.1 -8.25 9.2 -8.15 9.25 -8.05 9.3 -8.05 Q9.4 -8.05 9.5 -8.15 L9.55 -8.25 9.6 -8.35 9.65 -8.4 9.55 -8.4 9.5 -8.4 9.45 -8.4 Q9.35 -8.4 9.25 -8.5 9.15 -8.6 9.1 -8.6 L9.05 -8.55 9.0 -8.55 8.95 -8.5 M8.95 -7.75 L9.15 -7.7 9.2 -7.7 9.3 -7.75 9.45 -7.75 9.55 -7.75 9.65 -7.7 9.7 -7.7 9.6 -7.8 9.55 -7.9 9.35 -7.95 9.25 -7.95 9.1 -7.9 8.95 -7.75 M9.3 -7.7 Q9.3 -7.6 9.25 -7.55 L9.15 -7.45 9.0 -7.4 9.05 -7.35 9.1 -7.35 9.15 -7.35 Q9.25 -7.35 9.3 -7.45 L9.35 -7.5 9.35 -7.6 9.3 -7.7 9.3 -7.7 M10.1 -7.9 L10.1 -7.9 Q10.1 -7.9 10.05 -7.9 L10.0 -7.9 9.95 -7.9 9.9 -7.9 9.8 -7.9 9.8 -7.9 9.8 -7.85 9.85 -7.85 9.9 -7.85 10.0 -7.8 10.1 -7.85 10.15 -7.9 10.1 -7.9 M9.95 -7.15 L9.9 -7.1 Q9.85 -7.1 9.8 -7.15 L9.8 -7.4 9.75 -7.4 9.7 -7.35 9.65 -7.25 9.6 -7.2 Q9.55 -7.2 9.5 -7.2 L9.6 -7.1 9.7 -7.05 9.7 -7.0 9.75 -6.95 9.8 -6.95 9.95 -7.0 10.1 -7.05 10.05 -7.1 10.0 -7.15 9.95 -7.15 M9.15 -7.15 L9.1 -7.15 9.05 -7.2 9.0 -7.2 8.95 -7.2 8.85 -7.25 8.8 -7.35 8.8 -7.35 8.7 -7.3 8.7 -7.25 8.75 -7.15 8.85 -7.1 8.9 -7.05 8.95 -7.0 Q8.95 -6.95 8.95 -6.95 L9.05 -6.95 Q9.1 -6.95 9.2 -7.0 L9.3 -7.1 9.4 -7.15 9.3 -7.2 9.25 -7.15 9.2 -7.15 9.15 -7.15 M11.45 -6.5 L11.4 -6.55 11.4 -6.55 11.35 -6.4 Q11.35 -6.3 11.4 -6.25 L11.45 -6.25 11.6 -6.2 11.65 -6.25 11.7 -6.35 Q11.7 -6.4 11.5 -6.5 L11.45 -6.5 M11.55 -6.8 L11.5 -6.8 11.4 -6.75 11.3 -6.75 11.35 -6.75 Q11.4 -6.7 11.5 -6.65 L11.55 -6.65 11.55 -6.65 11.65 -6.7 11.6 -6.75 11.55 -6.8 M10.65 -7.35 L10.7 -7.35 10.65 -7.4 10.5 -7.3 10.35 -7.2 10.4 -7.15 10.4 -7.15 Q10.4 -7.2 10.45 -7.25 L10.55 -7.35 10.65 -7.35 M10.8 -7.1 L10.8 -7.05 10.8 -6.8 Q10.8 -6.65 10.85 -6.65 L11.0 -6.7 11.05 -6.85 10.9 -7.05 10.8 -7.1 M10.9 -6.75 L10.85 -6.8 10.9 -6.8 10.9 -6.75 M11.0 -6.05 L10.95 -5.95 10.85 -5.85 10.8 -5.8 10.8 -5.7 10.9 -5.6 11.1 -5.35 11.15 -5.4 11.2 -5.45 11.15 -5.6 Q11.05 -5.7 11.05 -5.7 L11.2 -5.8 11.15 -5.9 11.0 -6.05" fill="#b97814" fill-rule="evenodd" stroke="none"/>
    <path d="M10.75 -10.15 L10.7 -10.1 10.7 -10.1 10.6 -10.1 10.6 -10.05 10.55 -10.0 10.5 -9.95 10.45 -9.95 10.45 -9.9 10.35 -9.95 10.3 -10.0 10.35 -10.05 10.35 -10.1 10.35 -10.15 10.4 -10.2 10.5 -10.25 10.5 -10.25 10.55 -10.25 10.6 -10.3 10.7 -10.2 10.75 -10.15 M9.55 -6.35 L9.65 -6.25 9.7 -6.25 9.75 -6.1 9.8 -6.0 9.85 -5.95 9.95 -5.8 10.0 -5.8 9.9 -5.8 Q9.65 -5.8 9.45 -6.0 L9.4 -6.1 Q9.3 -6.2 9.25 -6.3 L9.25 -6.55 9.25 -6.65 9.3 -6.55 9.4 -6.45 9.45 -6.4 Q9.5 -6.4 9.55 -6.35 M9.4 -11.3 L9.4 -11.3 9.5 -11.45 9.6 -11.45 9.6 -11.35 9.4 -10.9 9.25 -10.8 9.15 -10.8 9.15 -10.8 Q9.15 -10.85 9.25 -10.9 L9.35 -11.05 9.35 -11.05 Q9.35 -11.2 9.4 -11.3 L9.4 -11.3 M8.9 -11.1 Q8.85 -11.15 8.85 -11.15 L8.8 -11.25 8.85 -11.3 8.9 -11.35 9.0 -11.4 9.05 -11.3 9.05 -11.2 Q9.05 -11.1 8.95 -11.1 L8.95 -11.15 8.9 -11.1 M10.35 -10.75 L10.35 -10.75 10.3 -10.65 10.3 -10.6 10.35 -10.6 Q10.35 -10.45 10.45 -10.45 L10.35 -10.4 10.2 -10.35 Q9.95 -10.35 9.9 -10.45 L9.9 -10.45 Q9.95 -10.5 10.0 -10.6 L10.0 -10.7 Q10.05 -10.9 10.25 -10.9 L10.35 -10.9 10.35 -10.75 M9.45 -10.15 L9.5 -10.1 9.45 -10.05 9.4 -10.0 Q9.4 -9.95 9.5 -9.9 9.6 -9.9 9.6 -9.85 L9.6 -9.8 9.5 -9.8 9.4 -9.8 9.25 -9.75 9.2 -9.8 9.15 -9.85 8.95 -9.95 9.15 -10.1 Q9.25 -10.2 9.4 -10.2 L9.45 -10.15 M12.4 -8.6 L12.4 -8.4 12.2 -8.3 12.15 -8.4 12.05 -8.45 12.1 -8.55 12.1 -8.55 12.05 -8.6 12.05 -8.6 12.05 -8.6 12.1 -8.6 12.15 -8.6 12.25 -8.6 12.4 -8.6 M11.5 -9.25 L11.55 -9.25 11.7 -9.15 11.75 -9.15 11.65 -9.1 11.65 -9.0 Q11.65 -8.9 11.55 -8.9 L11.45 -8.95 11.4 -8.95 Q11.35 -9.0 11.3 -9.0 11.15 -9.15 11.15 -9.2 11.15 -9.3 11.25 -9.3 L11.3 -9.25 Q11.35 -9.2 11.4 -9.2 L11.45 -9.2 11.5 -9.25 M10.75 -8.4 L10.8 -8.4 10.8 -8.4 10.85 -8.35 10.85 -8.3 10.8 -8.25 10.75 -8.3 10.75 -8.4 M11.05 -8.45 L11.15 -8.4 11.2 -8.4 11.3 -8.4 11.3 -8.4 11.25 -8.35 11.15 -8.3 11.1 -8.3 11.05 -8.35 11.05 -8.4 11.05 -8.45 M10.25 -8.25 L10.25 -8.25 10.3 -8.25 10.4 -8.2 10.45 -8.15 Q10.5 -8.1 10.5 -8.0 L10.45 -7.75 10.45 -7.75 10.4 -7.65 10.3 -7.6 10.25 -7.6 10.25 -7.65 10.3 -7.8 10.2 -8.0 10.15 -8.15 Q10.15 -8.25 10.25 -8.25 M8.95 -7.75 L9.1 -7.9 9.25 -7.95 9.35 -7.95 9.55 -7.9 9.6 -7.8 9.7 -7.7 9.65 -7.7 9.55 -7.75 9.45 -7.75 9.3 -7.75 9.2 -7.7 9.15 -7.7 8.95 -7.75 M8.95 -8.5 L9.0 -8.55 9.05 -8.55 9.1 -8.6 Q9.15 -8.6 9.25 -8.5 9.35 -8.4 9.45 -8.4 L9.5 -8.4 9.55 -8.4 9.65 -8.4 9.6 -8.35 9.55 -8.25 9.5 -8.15 Q9.4 -8.05 9.3 -8.05 L9.25 -8.05 9.2 -8.15 9.1 -8.25 8.95 -8.25 Q8.8 -8.25 8.8 -8.35 L8.85 -8.4 8.95 -8.5 M9.8 -9.0 L9.85 -9.05 9.85 -9.15 Q10.05 -9.05 10.1 -9.0 L10.05 -8.95 10.0 -8.95 9.95 -8.95 9.9 -8.9 Q9.75 -8.95 9.75 -8.95 L9.8 -8.95 9.8 -9.0 M9.5 -8.75 Q9.45 -8.75 9.45 -8.8 L9.5 -8.8 9.55 -8.85 9.65 -8.8 9.7 -8.8 9.7 -8.75 9.7 -8.75 9.55 -8.75 Q9.5 -8.75 9.5 -8.75 M9.15 -9.1 L9.15 -9.1 9.05 -9.05 Q8.95 -9.05 8.95 -8.95 L8.9 -8.9 8.85 -8.85 8.7 -8.85 8.7 -8.9 8.55 -8.95 8.4 -8.95 8.4 -9.0 Q8.3 -9.0 8.3 -9.1 L8.3 -9.1 8.35 -9.15 8.4 -9.1 Q8.45 -9.05 8.5 -9.05 L8.6 -9.1 8.65 -9.05 Q8.7 -9.0 8.7 -9.0 L8.75 -9.05 8.75 -9.05 Q8.75 -9.1 8.85 -9.15 L9.0 -9.2 9.15 -9.1 M9.45 -9.35 L9.55 -9.3 9.5 -9.25 9.35 -9.15 9.3 -9.15 9.3 -9.2 9.35 -9.35 9.45 -9.35 M9.4 -9.65 L9.45 -9.6 9.4 -9.6 9.25 -9.55 9.25 -9.4 9.2 -9.35 9.05 -9.35 9.05 -9.45 9.0 -9.5 8.95 -9.55 9.05 -9.65 9.15 -9.65 9.2 -9.7 9.35 -9.65 9.4 -9.65 M10.0 -9.75 L9.95 -9.75 Q9.9 -9.75 9.9 -9.8 L9.85 -9.8 9.85 -9.85 9.9 -9.9 10.0 -9.9 10.1 -9.85 10.15 -9.85 10.1 -9.8 10.0 -9.75 M11.7 -8.55 L11.7 -8.55 11.8 -8.45 11.85 -8.4 11.85 -8.4 11.9 -8.3 11.95 -8.2 11.85 -7.95 11.75 -7.8 Q11.7 -7.7 11.6 -7.7 L11.55 -7.7 11.45 -7.75 11.45 -7.75 11.35 -7.8 11.35 -7.8 11.3 -7.85 11.4 -7.8 11.4 -7.8 11.45 -7.8 11.5 -7.85 11.55 -7.95 11.45 -8.0 11.45 -8.0 11.4 -8.05 Q11.35 -8.05 11.3 -8.1 L11.3 -8.1 11.4 -8.1 11.45 -8.1 11.45 -8.2 Q11.45 -8.3 11.55 -8.35 L11.6 -8.45 11.6 -8.45 11.55 -8.45 11.55 -8.5 11.6 -8.5 11.7 -8.55 M11.1 -7.5 L11.1 -7.45 11.05 -7.5 11.05 -7.55 11.1 -7.55 11.1 -7.6 11.15 -7.6 11.2 -7.65 11.15 -7.55 11.1 -7.5 M10.25 -7.45 L10.35 -7.5 10.45 -7.5 10.5 -7.55 10.6 -7.6 10.65 -7.5 10.6 -7.5 10.5 -7.45 10.45 -7.45 Q10.2 -7.3 10.15 -7.3 L10.0 -7.35 10.0 -7.35 Q10.0 -7.35 10.0 -7.45 L10.0 -7.5 10.1 -7.45 10.25 -7.45 M9.15 -7.15 L9.2 -7.15 9.25 -7.15 9.3 -7.2 9.4 -7.15 9.3 -7.1 9.2 -7.0 Q9.1 -6.95 9.05 -6.95 L8.95 -6.95 Q8.95 -6.95 8.95 -7.0 L8.9 -7.05 8.85 -7.1 8.75 -7.15 8.7 -7.25 8.7 -7.3 8.8 -7.35 8.8 -7.35 8.85 -7.25 8.95 -7.2 9.0 -7.2 9.05 -7.2 9.1 -7.15 9.15 -7.15 M9.95 -7.15 L10.0 -7.15 10.05 -7.1 10.1 -7.05 9.95 -7.0 9.8 -6.95 9.75 -6.95 9.7 -7.0 9.7 -7.05 9.6 -7.1 9.5 -7.2 Q9.55 -7.2 9.6 -7.2 L9.65 -7.25 9.7 -7.35 9.75 -7.4 9.8 -7.4 9.8 -7.15 Q9.85 -7.1 9.9 -7.1 L9.95 -7.15 M11.55 -6.8 L11.6 -6.75 11.65 -6.7 11.55 -6.65 11.55 -6.65 11.5 -6.65 Q11.4 -6.7 11.35 -6.75 L11.3 -6.75 11.4 -6.75 11.5 -6.8 11.55 -6.8 M11.45 -6.5 L11.5 -6.5 Q11.7 -6.4 11.7 -6.35 L11.65 -6.25 11.6 -6.2 11.45 -6.25 11.4 -6.25 Q11.35 -6.3 11.35 -6.4 L11.4 -6.55 11.4 -6.55 11.45 -6.5 M10.8 -7.1 L10.9 -7.05 11.05 -6.85 11.0 -6.7 10.85 -6.65 Q10.8 -6.65 10.8 -6.8 L10.8 -7.05 10.8 -7.1 M10.9 -6.75 L10.9 -6.8 10.85 -6.8 10.9 -6.75 M11.0 -6.05 L11.15 -5.9 11.2 -5.8 11.05 -5.7 Q11.05 -5.7 11.15 -5.6 L11.2 -5.45 11.15 -5.4 11.1 -5.35 10.9 -5.6 10.8 -5.7 10.8 -5.8 10.85 -5.85 10.95 -5.95 11.0 -6.05" fill="#ffe693" fill-rule="evenodd" stroke="none"/>
  </g>
</svg>
