<?xml version="1.0" encoding="UTF-8" standalone="no"?>
<svg xmlns:xlink="http://www.w3.org/1999/xlink" height="3.45px" width="2.25px" xmlns="http://www.w3.org/2000/svg">
  <g transform="matrix(1.0, 0.0, 0.0, 1.0, -7.7, 12.1)">
    <path d="M8.95 -10.75 L8.95 -10.7 8.95 -10.65 8.9 -10.7 8.9 -10.7 8.95 -10.75 M8.25 -11.55 L8.25 -11.55 8.3 -11.55 8.3 -11.5 8.25 -11.55 8.25 -11.55 M9.15 -11.85 L9.15 -11.85 9.2 -11.8 9.2 -11.8 9.15 -11.85 9.15 -11.8 Q9.15 -11.75 9.05 -11.75 L9.05 -11.8 9.1 -11.8 9.05 -11.8 9.1 -11.8 9.15 -11.85 M9.8 -12.0 L9.75 -12.0 9.75 -12.0 9.75 -12.0 9.8 -12.05 9.8 -12.05 9.85 -12.05 9.85 -12.05 9.85 -12.0 9.8 -12.0 M9.35 -10.65 L9.3 -10.7 9.3 -10.7 9.4 -10.7 9.4 -10.65 9.35 -10.65 M7.95 -12.1 L7.95 -12.1 8.0 -12.05 7.95 -12.05 7.95 -12.0 7.9 -12.05 7.95 -12.1 M9.55 -9.1 L9.55 -9.15 9.6 -9.15 9.6 -9.1 9.55 -9.1 9.55 -9.1 M9.3 -9.6 L9.25 -9.6 9.25 -9.65 9.3 -9.65 9.3 -9.6" fill="#421818" fill-rule="evenodd" stroke="none"/>
    <path d="M8.25 -10.1 L8.35 -10.15 8.55 -10.2 8.65 -10.1 8.75 -10.05 8.85 -9.8 8.85 -9.8 8.75 -9.75 8.65 -9.75 8.65 -9.75 8.6 -9.8 8.6 -9.9 8.55 -10.0 8.55 -10.0 8.45 -10.05 8.3 -10.0 8.2 -10.0 Q8.15 -10.0 8.15 -10.0 L8.25 -10.1 M9.75 -9.9 L9.9 -9.85 9.95 -9.8 9.9 -9.75 Q9.85 -9.75 9.8 -9.7 L9.7 -9.6 9.65 -9.6 9.6 -9.6 Q9.55 -9.6 9.5 -9.65 L9.6 -9.8 Q9.6 -9.85 9.65 -9.85 L9.75 -9.9 M7.85 -8.65 L7.75 -8.65 Q7.7 -8.65 7.7 -8.65 L7.7 -8.7 7.85 -8.85 7.9 -8.95 8.0 -8.95 8.15 -8.95 8.15 -8.95 8.2 -9.0 8.25 -9.05 8.3 -9.0 8.3 -9.0 8.4 -8.95 8.45 -8.95 8.45 -8.95 8.55 -9.0 8.65 -9.0 8.65 -8.95 8.6 -8.8 8.55 -8.75 Q8.45 -8.7 8.45 -8.7 L8.25 -8.75 8.1 -8.7 8.05 -8.7 Q8.0 -8.65 7.85 -8.65" fill="#2a2a27" fill-rule="evenodd" stroke="none"/>
  </g>
</svg>
