<?xml version="1.0" encoding="UTF-8" standalone="no"?>
<svg xmlns:xlink="http://www.w3.org/1999/xlink" height="3.15px" width="4.45px" xmlns="http://www.w3.org/2000/svg">
  <g transform="matrix(1.0, 0.0, 0.0, 1.0, -6.45, 11.5)">
    <path d="M10.2 -10.0 L10.2 -10.05 10.25 -10.1 10.3 -10.05 10.3 -10.0 10.3 -9.95 10.2 -9.9 10.2 -9.95 10.2 -10.0 M10.8 -11.5 L10.8 -11.45 10.75 -11.4 10.7 -11.45 10.7 -11.45 10.75 -11.5 10.75 -11.5 10.8 -11.5 M9.8 -10.05 L9.85 -10.05 9.9 -10.1 9.9 -10.05 9.85 -10.05 9.8 -10.05 9.8 -10.05 M9.2 -10.95 L9.2 -10.95 9.15 -10.95 9.15 -10.95 9.2 -11.0 9.2 -10.95 9.2 -10.95 M8.9 -11.45 L8.85 -11.4 8.85 -11.5 8.9 -11.5 8.9 -11.45 8.95 -11.45 8.9 -11.45 M10.1 -11.2 L10.1 -11.25 10.15 -11.3 10.15 -11.3 10.2 -11.3 10.2 -11.3 10.2 -11.25 Q10.2 -11.2 10.15 -11.2 L10.1 -11.2 10.1 -11.2 M10.65 -8.65 L10.7 -8.6 10.65 -8.55 Q10.6 -8.5 10.6 -8.5 10.55 -8.5 10.55 -8.5 L10.5 -8.5 10.5 -8.5 10.55 -8.55 10.6 -8.6 10.65 -8.65 M10.15 -9.2 L10.2 -9.2 10.25 -9.1 10.2 -9.1 10.15 -9.1 10.1 -9.2 10.15 -9.2" fill="#421818" fill-rule="evenodd" stroke="none"/>
    <path d="M7.45 -9.85 L7.55 -9.8 7.6 -9.75 7.65 -9.6 Q7.65 -9.55 7.55 -9.45 L7.3 -9.35 7.2 -9.3 7.1 -9.25 7.1 -9.15 7.05 -9.15 Q7.0 -9.25 7.0 -9.25 7.0 -9.35 7.25 -9.45 7.45 -9.5 7.45 -9.55 L7.4 -9.65 Q7.35 -9.7 7.35 -9.7 L7.4 -9.8 7.45 -9.85 M7.1 -8.85 L7.2 -8.8 Q7.3 -8.7 7.35 -8.7 L7.4 -8.8 7.45 -8.85 7.45 -8.7 7.35 -8.65 7.1 -8.55 7.0 -8.6 6.95 -8.65 Q6.9 -8.65 6.85 -8.7 L6.85 -8.8 7.05 -8.7 7.1 -8.75 7.15 -8.75 7.1 -8.85 7.1 -8.85 M10.8 -9.45 L10.7 -9.5 10.65 -9.55 10.8 -9.5 Q10.9 -9.45 10.9 -9.35 10.9 -9.25 10.85 -9.25 10.8 -9.15 10.65 -9.15 10.65 -9.15 10.6 -9.2 10.55 -9.2 10.55 -9.25 L10.55 -9.25 Q10.55 -9.25 10.6 -9.3 L10.65 -9.3 10.7 -9.3 10.75 -9.35 10.8 -9.45 M6.7 -8.6 L6.7 -8.65 6.75 -8.55 6.65 -8.45 Q6.6 -8.4 6.45 -8.4 L6.5 -8.45 6.6 -8.5 6.65 -8.55 6.7 -8.6 M6.95 -9.8 L7.05 -9.8 7.1 -9.8 7.05 -9.75 7.0 -9.75 6.9 -9.7 Q6.85 -9.7 6.8 -9.65 L6.75 -9.75 6.75 -9.8 6.8 -9.8 6.95 -9.8 M8.8 -8.45 L8.85 -8.5 8.9 -8.5 8.9 -8.4 Q8.85 -8.35 8.8 -8.35 L8.75 -8.4 8.75 -8.4 8.8 -8.45 M8.5 -9.45 L8.5 -9.5 8.6 -9.45 8.65 -9.35 Q8.65 -9.25 8.6 -9.25 L8.4 -9.2 Q8.3 -9.2 8.25 -9.25 L8.4 -9.3 Q8.5 -9.35 8.5 -9.45 M9.45 -8.7 L9.55 -8.65 Q9.7 -8.65 9.7 -8.75 L9.7 -8.7 Q9.7 -8.6 9.55 -8.55 L9.3 -8.45 Q9.2 -8.45 9.15 -8.5 9.05 -8.55 9.05 -8.7 L9.05 -8.75 9.1 -8.8 9.15 -8.75 9.2 -8.65 9.35 -8.6 9.45 -8.6 9.35 -8.65 9.3 -8.75 9.3 -8.75 9.35 -8.75 9.45 -8.7 M9.45 -9.8 L9.5 -9.75 Q9.5 -9.7 9.35 -9.7 L9.2 -9.7 9.1 -9.65 9.05 -9.55 9.05 -9.6 Q8.95 -9.65 8.95 -9.7 L8.95 -9.75 9.05 -9.8 9.2 -9.8 9.3 -9.8 9.45 -9.8 M9.7 -9.7 L9.8 -9.75 9.9 -9.7 9.95 -9.55 9.85 -9.45 9.7 -9.35 9.55 -9.2 9.4 -9.1 9.35 -9.15 9.3 -9.25 Q9.3 -9.3 9.4 -9.35 L9.5 -9.45 9.65 -9.5 Q9.8 -9.55 9.8 -9.55 L9.75 -9.65 9.7 -9.7 9.7 -9.7" fill="#2a2a27" fill-rule="evenodd" stroke="none"/>
  </g>
</svg>
