<?xml version="1.0" encoding="UTF-8" standalone="no"?>
<svg xmlns:xlink="http://www.w3.org/1999/xlink" height="5.35px" width="6.55px" xmlns="http://www.w3.org/2000/svg">
  <g transform="matrix(1.0, 0.0, 0.0, 1.0, -5.6, 15.3)">
    <path d="M8.5 -15.25 L8.5 -15.25 8.55 -15.3 8.55 -15.2 8.55 -15.2 8.5 -15.15 8.5 -15.15 8.45 -15.15 8.5 -15.2 8.5 -15.25 M9.4 -14.9 L9.45 -14.85 9.45 -14.85 9.4 -14.75 9.35 -14.75 9.3 -14.75 9.35 -14.8 9.35 -14.85 9.4 -14.9 9.4 -14.9 M11.45 -13.95 L11.45 -14.0 11.55 -14.05 11.55 -14.05 11.6 -14.05 11.6 -14.05 11.65 -14.05 11.6 -14.0 11.55 -14.0 11.5 -13.95 11.5 -13.95 11.45 -13.95 M11.15 -14.1 L11.2 -14.1 11.25 -14.05 11.2 -14.05 11.15 -14.0 11.1 -14.05 11.05 -14.05 11.05 -14.05 11.1 -14.1 11.15 -14.1 M10.65 -14.25 L10.75 -14.2 10.8 -14.2 10.75 -14.15 10.75 -14.15 10.8 -14.1 10.75 -14.1 10.7 -14.05 10.65 -14.05 Q10.65 -14.05 10.6 -14.05 L10.6 -14.05 10.65 -14.1 10.6 -14.1 10.5 -14.1 10.45 -14.1 10.6 -14.2 10.65 -14.25 10.65 -14.25 M10.2 -13.75 L10.25 -13.8 10.3 -13.75 10.3 -13.7 10.35 -13.7 10.3 -13.65 10.25 -13.65 10.25 -13.65 10.2 -13.6 10.1 -13.55 Q10.0 -13.6 10.1 -13.65 L10.15 -13.75 10.2 -13.75 M10.85 -13.75 L10.8 -13.8 Q10.8 -13.85 10.9 -13.85 L10.95 -13.9 11.0 -13.9 11.0 -13.85 11.05 -13.8 11.05 -13.8 10.85 -13.75 M10.8 -13.95 L10.85 -13.95 10.85 -13.9 10.8 -13.85 10.7 -13.85 10.65 -13.8 10.65 -13.85 10.75 -13.9 10.75 -13.95 10.8 -13.95 10.8 -13.95 M10.6 -13.7 L10.6 -13.7 10.65 -13.75 10.7 -13.7 10.65 -13.65 10.55 -13.65 10.4 -13.6 10.45 -13.65 10.6 -13.7 M11.15 -13.55 L11.2 -13.6 11.25 -13.6 11.3 -13.55 11.25 -13.55 11.25 -13.55 11.15 -13.55 11.15 -13.55 M11.1 -13.5 L11.15 -13.45 11.2 -13.45 11.25 -13.5 11.3 -13.5 11.3 -13.5 11.35 -13.45 11.4 -13.4 11.35 -13.4 11.3 -13.4 11.3 -13.4 11.25 -13.4 11.2 -13.4 11.1 -13.45 11.1 -13.5 M10.7 -13.55 L10.65 -13.5 10.6 -13.5 10.55 -13.55 10.55 -13.55 Q10.5 -13.55 10.55 -13.6 L10.65 -13.55 10.65 -13.55 10.7 -13.55 10.7 -13.55 10.7 -13.55 M10.85 -13.25 L10.85 -13.3 10.9 -13.3 10.9 -13.25 10.85 -13.25 10.8 -13.2 10.75 -13.25 10.75 -13.25 10.8 -13.25 10.8 -13.3 10.85 -13.25 M11.05 -13.3 L11.15 -13.3 11.2 -13.3 11.2 -13.3 11.2 -13.25 11.15 -13.25 11.1 -13.25 11.05 -13.3 M10.15 -13.5 L10.3 -13.5 10.3 -13.4 10.3 -13.4 10.35 -13.35 10.35 -13.35 10.25 -13.35 10.2 -13.35 10.2 -13.35 10.1 -13.35 10.05 -13.35 10.05 -13.4 10.1 -13.4 10.1 -13.45 10.05 -13.45 10.0 -13.45 9.95 -13.5 9.95 -13.5 9.9 -13.45 9.9 -13.45 9.85 -13.45 9.75 -13.45 9.75 -13.45 9.85 -13.55 9.85 -13.55 9.9 -13.55 9.9 -13.55 9.95 -13.55 10.0 -13.55 9.95 -13.55 9.95 -13.5 10.0 -13.5 10.05 -13.55 10.1 -13.55 10.1 -13.5 10.15 -13.45 10.15 -13.5 M10.3 -13.15 L10.25 -13.15 10.05 -13.15 10.0 -13.2 10.15 -13.25 10.2 -13.25 10.25 -13.25 10.25 -13.2 10.3 -13.15 M10.25 -13.1 L10.3 -13.1 10.35 -13.05 10.35 -13.1 10.4 -13.1 10.4 -13.1 10.5 -13.05 10.5 -13.05 10.45 -13.0 10.4 -13.0 10.4 -13.0 10.35 -13.0 10.3 -13.0 Q10.25 -13.05 10.2 -13.05 L10.25 -13.1 M10.25 -12.7 L10.25 -12.7 10.3 -12.7 10.3 -12.75 10.4 -12.75 10.45 -12.75 10.45 -12.75 10.4 -12.7 10.4 -12.7 10.4 -12.65 10.35 -12.6 10.35 -12.6 10.35 -12.55 10.3 -12.5 10.2 -12.55 10.25 -12.55 10.25 -12.6 10.15 -12.6 10.15 -12.6 10.1 -12.65 10.2 -12.65 10.2 -12.65 10.25 -12.7 M10.3 -12.35 L10.2 -12.4 10.2 -12.45 10.2 -12.45 10.25 -12.45 10.3 -12.45 10.35 -12.45 10.45 -12.45 10.45 -12.45 10.5 -12.35 10.35 -12.35 10.3 -12.35 M9.6 -12.5 L9.6 -12.5 9.65 -12.5 9.65 -12.5 9.55 -12.5 9.5 -12.5 9.45 -12.5 9.45 -12.55 9.6 -12.5 M9.45 -12.3 L9.45 -12.3 9.7 -12.2 9.8 -12.15 9.8 -12.15 9.9 -12.2 9.95 -12.2 9.95 -12.15 10.0 -12.1 10.0 -12.05 9.95 -12.05 9.85 -12.1 9.8 -12.1 9.65 -12.05 9.5 -12.1 9.5 -12.1 9.45 -12.15 9.5 -12.2 9.35 -12.25 9.25 -12.25 9.35 -12.3 9.45 -12.3 M9.15 -11.9 L9.35 -11.9 9.4 -11.85 9.4 -11.8 9.3 -11.8 9.2 -11.8 9.2 -11.85 9.1 -11.9 9.15 -11.9 M9.45 -12.95 L9.35 -12.95 9.3 -13.0 9.2 -13.05 9.2 -13.05 9.15 -13.1 9.15 -13.1 9.2 -13.1 9.3 -13.1 9.4 -13.05 9.45 -13.0 9.5 -12.95 9.45 -12.95 M10.4 -12.9 L10.35 -12.85 10.3 -12.85 10.25 -12.85 10.25 -12.9 10.35 -12.9 10.4 -12.9 10.4 -12.9 M10.85 -12.55 L10.9 -12.5 10.9 -12.45 10.75 -12.45 10.7 -12.5 10.7 -12.5 10.75 -12.55 10.8 -12.55 10.8 -12.55 10.85 -12.55 M11.85 -13.3 L11.85 -13.3 11.9 -13.25 11.75 -13.2 Q11.7 -13.2 11.7 -13.25 L11.7 -13.25 11.75 -13.3 11.8 -13.3 11.8 -13.3 11.85 -13.3 M11.15 -13.1 L11.2 -13.1 11.3 -13.15 11.35 -13.15 11.35 -13.15 11.3 -13.1 11.3 -13.1 11.25 -13.0 11.25 -13.0 Q11.2 -12.95 11.15 -12.95 L11.1 -13.0 Q11.05 -13.05 11.15 -13.1 L11.15 -13.1 M11.55 -12.9 L11.65 -12.85 11.6 -12.85 11.55 -12.85 11.45 -12.85 11.35 -12.85 11.35 -12.85 11.2 -12.95 11.35 -12.95 11.45 -12.9 11.55 -12.9 M11.3 -12.7 L11.4 -12.7 11.4 -12.65 11.4 -12.65 11.3 -12.65 11.25 -12.65 11.25 -12.7 11.3 -12.7 11.3 -12.7 M11.6 -12.45 L11.65 -12.45 11.7 -12.4 11.75 -12.4 11.75 -12.4 11.7 -12.35 11.7 -12.35 11.65 -12.35 Q11.6 -12.4 11.6 -12.4 L11.6 -12.45 M9.75 -14.25 L9.8 -14.25 9.8 -14.15 9.75 -14.1 Q9.65 -14.1 9.65 -14.15 L9.6 -14.15 9.6 -14.1 9.55 -14.1 9.55 -14.15 9.6 -14.2 9.65 -14.2 9.65 -14.2 Q9.65 -14.3 9.7 -14.3 L9.75 -14.35 9.7 -14.3 9.75 -14.25 M9.7 -14.4 L9.65 -14.4 9.55 -14.35 9.45 -14.3 9.45 -14.3 9.3 -14.3 9.35 -14.35 9.5 -14.4 9.55 -14.45 9.65 -14.45 9.7 -14.4 M9.2 -14.4 L9.25 -14.45 9.3 -14.45 9.25 -14.5 9.3 -14.5 9.3 -14.55 9.4 -14.55 9.45 -14.55 9.45 -14.5 9.4 -14.5 9.4 -14.45 9.35 -14.45 9.35 -14.4 9.25 -14.4 9.2 -14.4 M9.15 -13.85 L9.2 -13.8 9.2 -13.7 9.1 -13.7 Q9.05 -13.7 9.05 -13.8 L9.05 -13.85 9.1 -13.9 9.15 -13.9 9.2 -13.95 9.15 -13.9 9.15 -13.85 M8.75 -14.75 L8.75 -14.7 8.7 -14.7 8.65 -14.65 8.65 -14.7 8.7 -14.75 8.7 -14.75 8.75 -14.75 8.75 -14.75 M8.65 -14.8 L8.65 -14.75 8.6 -14.75 8.55 -14.7 8.55 -14.75 8.5 -14.8 8.55 -14.85 8.6 -14.85 8.65 -14.85 8.65 -14.8 M8.95 -14.45 L8.85 -14.45 8.9 -14.5 8.9 -14.55 8.95 -14.55 8.95 -14.55 9.0 -14.5 8.95 -14.45 8.95 -14.45 M8.9 -14.2 L8.9 -14.15 8.95 -14.15 8.95 -14.1 8.9 -14.1 8.9 -14.1 8.85 -14.05 8.8 -14.05 8.7 -14.05 8.7 -14.1 8.75 -14.1 8.8 -14.1 8.8 -14.1 8.75 -14.15 Q8.75 -14.15 8.8 -14.2 L8.8 -14.2 8.85 -14.2 8.9 -14.2 8.9 -14.2 M8.55 -13.8 L8.55 -13.8 8.65 -13.85 8.75 -13.9 8.8 -13.9 8.9 -13.9 8.9 -13.9 8.8 -13.85 8.75 -13.8 8.6 -13.8 8.5 -13.8 8.55 -13.8 M8.15 -13.65 L8.15 -13.65 8.2 -13.65 8.2 -13.65 8.15 -13.6 8.1 -13.6 8.05 -13.55 7.95 -13.55 7.95 -13.6 7.8 -13.6 7.85 -13.6 7.9 -13.6 7.95 -13.65 7.95 -13.65 8.1 -13.65 8.15 -13.65 M8.3 -13.95 L8.35 -13.95 8.3 -13.95 8.35 -13.9 8.3 -13.9 8.3 -13.85 8.25 -13.85 8.2 -13.85 Q8.15 -13.9 8.15 -13.9 L8.25 -13.95 8.25 -13.95 8.3 -13.95 M8.55 -14.35 L8.55 -14.35 8.5 -14.45 8.5 -14.5 8.5 -14.55 8.55 -14.55 8.6 -14.5 8.6 -14.4 8.55 -14.35 M8.1 -14.35 L8.15 -14.3 8.15 -14.2 8.1 -14.15 8.05 -14.15 8.05 -14.15 8.05 -14.25 8.05 -14.3 8.05 -14.3 8.1 -14.35 M8.15 -14.55 L8.2 -14.6 8.25 -14.6 8.3 -14.6 8.3 -14.55 8.25 -14.5 8.25 -14.5 8.2 -14.5 8.15 -14.5 8.15 -14.55 M8.35 -14.85 L8.35 -14.8 8.25 -14.7 8.2 -14.65 8.2 -14.8 8.2 -14.85 8.25 -14.85 8.25 -14.85 8.35 -14.85 M9.75 -13.2 L9.75 -13.2 9.8 -13.2 9.85 -13.15 9.8 -13.15 9.8 -13.15 9.75 -13.15 9.75 -13.1 9.7 -13.15 9.65 -13.15 Q9.65 -13.2 9.65 -13.2 L9.75 -13.2 M8.8 -12.45 L8.8 -12.5 9.0 -12.55 9.05 -12.6 9.05 -12.55 9.1 -12.55 9.1 -12.5 8.95 -12.45 8.9 -12.45 8.8 -12.45 M10.1 -12.0 L10.15 -12.05 10.15 -12.05 10.25 -12.0 10.25 -12.0 10.2 -11.95 10.15 -12.0 10.1 -12.0 10.1 -12.0 M9.25 -11.55 L9.35 -11.55 9.4 -11.45 9.45 -11.35 9.5 -11.35 9.5 -11.35 9.65 -11.3 9.7 -11.25 9.7 -11.2 9.6 -11.2 9.55 -11.25 9.5 -11.25 9.55 -11.2 9.5 -11.1 9.5 -11.1 9.35 -11.15 Q9.25 -11.25 9.25 -11.3 L9.25 -11.3 9.35 -11.35 9.25 -11.45 9.25 -11.55 M9.75 -11.55 L9.75 -11.5 9.65 -11.55 9.65 -11.55 9.6 -11.6 9.65 -11.6 9.65 -11.6 9.75 -11.55 M9.7 -11.4 Q9.75 -11.5 9.85 -11.45 L9.95 -11.45 9.95 -11.45 10.05 -11.4 10.05 -11.35 10.05 -11.35 9.95 -11.35 9.95 -11.35 9.9 -11.35 9.8 -11.35 Q9.7 -11.4 9.7 -11.4 M8.3 -11.9 L8.35 -11.95 8.3 -12.05 8.4 -12.0 8.45 -11.85 8.5 -11.8 8.45 -11.8 8.45 -11.8 8.35 -11.8 8.35 -11.8 8.3 -11.9 M9.95 -11.2 L9.95 -11.25 10.05 -11.25 10.05 -11.2 10.15 -11.15 10.15 -11.15 10.2 -11.15 10.2 -11.1 10.2 -11.1 10.3 -11.05 10.25 -11.05 10.25 -11.0 10.2 -10.95 10.15 -11.0 10.1 -11.05 10.1 -11.05 10.15 -11.1 10.1 -11.1 10.05 -11.15 9.95 -11.2 M8.3 -11.55 L8.35 -11.55 8.35 -11.5 8.3 -11.4 8.3 -11.4 8.3 -11.5 8.3 -11.55 M8.15 -11.2 L8.15 -11.25 8.2 -11.3 8.25 -11.2 8.25 -11.15 8.2 -11.15 8.2 -11.2 8.15 -11.2 M8.7 -10.75 L8.7 -10.75 8.65 -10.7 8.65 -10.7 8.6 -10.75 8.6 -10.8 8.65 -10.8 8.7 -10.75 M8.15 -11.0 L8.15 -10.85 8.15 -10.8 8.1 -10.8 8.0 -10.8 8.0 -10.85 8.1 -11.0 8.1 -11.0 8.15 -11.0 M8.25 -10.9 Q8.2 -10.9 8.25 -10.9 L8.25 -10.95 8.3 -10.9 8.3 -10.85 8.25 -10.85 8.25 -10.9 M8.55 -10.7 L8.6 -10.65 8.6 -10.6 8.55 -10.55 8.65 -10.5 8.65 -10.4 8.6 -10.4 Q8.55 -10.4 8.5 -10.4 L8.5 -10.55 8.5 -10.55 8.45 -10.6 Q8.4 -10.7 8.45 -10.75 L8.45 -10.75 8.45 -10.75 8.55 -10.7 8.55 -10.7 M9.05 -10.35 L9.0 -10.35 9.0 -10.35 8.9 -10.35 8.9 -10.35 8.85 -10.4 8.8 -10.45 Q8.75 -10.55 8.8 -10.55 8.85 -10.6 8.95 -10.5 L9.0 -10.45 9.0 -10.45 9.05 -10.35 M9.95 -10.95 L10.0 -10.85 10.0 -10.85 10.0 -10.8 10.05 -10.75 9.95 -10.7 9.95 -10.75 9.9 -10.7 9.9 -10.7 9.85 -10.7 Q9.8 -10.7 9.8 -10.75 L9.75 -10.75 9.75 -10.8 9.7 -10.85 9.65 -10.9 9.8 -10.9 9.85 -10.85 9.85 -10.85 9.95 -10.75 9.9 -10.85 9.85 -10.9 9.85 -10.9 Q9.8 -11.0 9.85 -11.0 L9.95 -10.95 M8.9 -10.25 L8.85 -10.25 8.9 -10.15 8.9 -10.15 8.95 -10.1 8.85 -10.05 8.85 -10.1 8.8 -10.2 8.8 -10.3 8.9 -10.25 M9.65 -10.75 L9.6 -10.8 9.6 -10.85 9.65 -10.85 9.65 -10.8 9.7 -10.75 9.65 -10.75 9.65 -10.75 M9.45 -10.95 L9.55 -10.85 9.5 -10.75 9.5 -10.75 9.4 -10.8 9.4 -10.95 9.4 -10.95 9.45 -10.95 M9.7 -10.55 L9.7 -10.65 9.75 -10.65 9.75 -10.65 9.8 -10.55 9.8 -10.5 9.75 -10.45 9.7 -10.5 9.7 -10.55 M9.4 -10.15 L9.45 -10.2 9.55 -10.1 9.65 -10.05 9.6 -10.0 9.55 -9.95 9.5 -9.95 9.45 -10.0 9.4 -10.1 9.4 -10.15 M11.95 -12.1 L11.9 -12.15 11.85 -12.2 12.05 -12.2 12.15 -12.2 12.15 -12.1 12.15 -12.1 12.05 -12.1 Q12.0 -12.1 11.95 -12.1 M12.0 -11.9 L12.05 -11.9 12.1 -11.85 12.1 -11.85 12.15 -11.85 12.15 -11.8 12.1 -11.8 12.1 -11.85 12.05 -11.85 12.0 -11.85 12.0 -11.9 M11.65 -12.1 L11.6 -12.1 11.6 -12.0 11.55 -12.05 11.4 -12.1 Q11.35 -12.15 11.4 -12.15 L11.55 -12.15 11.6 -12.1 11.65 -12.1 M11.3 -12.1 L11.45 -12.1 11.45 -12.05 11.4 -12.0 11.35 -12.0 11.35 -12.0 11.25 -12.0 11.2 -12.0 Q11.1 -12.0 11.1 -12.0 11.1 -12.1 11.2 -12.1 L11.3 -12.1 11.3 -12.1 M11.35 -11.8 L11.3 -11.8 11.35 -11.8 11.45 -11.8 11.45 -11.75 11.45 -11.75 11.4 -11.75 11.35 -11.8 M11.45 -11.9 L11.6 -11.85 11.6 -11.85 11.65 -11.85 11.65 -11.8 11.55 -11.8 11.5 -11.8 Q11.4 -11.85 11.35 -11.9 L11.45 -11.9 M11.25 -11.45 L11.25 -11.45 11.3 -11.45 11.3 -11.45 11.25 -11.45 11.2 -11.45 11.15 -11.45 11.15 -11.5 11.1 -11.5 11.1 -11.5 11.15 -11.5 11.2 -11.5 11.2 -11.5 11.25 -11.45 M11.4 -11.3 L11.4 -11.3 11.45 -11.3 11.5 -11.3 11.5 -11.25 11.5 -11.2 11.45 -11.2 11.35 -11.25 11.35 -11.3 11.4 -11.3 M10.75 -12.0 L10.7 -12.0 10.7 -12.05 10.8 -12.05 10.8 -12.05 10.85 -12.0 10.85 -11.95 10.8 -11.95 10.75 -12.0 M10.5 -12.1 L10.45 -12.1 10.25 -12.2 10.25 -12.2 Q10.15 -12.25 10.15 -12.3 L10.25 -12.3 10.4 -12.2 10.4 -12.2 10.45 -12.2 10.45 -12.15 10.5 -12.15 10.5 -12.1 M10.9 -11.9 L10.9 -11.9 11.05 -11.9 11.15 -11.85 11.15 -11.8 11.05 -11.8 10.95 -11.8 Q10.95 -11.85 10.9 -11.85 L10.9 -11.9 M10.15 -11.25 L10.15 -11.3 10.2 -11.3 Q10.25 -11.3 10.25 -11.25 L10.25 -11.25 10.2 -11.2 10.25 -11.2 10.3 -11.2 10.35 -11.2 10.35 -11.2 Q10.3 -11.15 10.25 -11.15 L10.25 -11.15 Q10.2 -11.15 10.2 -11.15 L10.2 -11.2 10.15 -11.25 M10.5 -11.4 L10.45 -11.4 10.45 -11.45 10.55 -11.4 10.5 -11.45 10.7 -11.4 10.8 -11.4 10.8 -11.35 10.85 -11.35 10.85 -11.25 10.9 -11.2 10.9 -11.1 10.85 -11.1 10.8 -11.15 10.8 -11.2 10.75 -11.25 10.75 -11.3 10.7 -11.3 10.6 -11.35 10.6 -11.35 10.55 -11.35 10.5 -11.4 M10.5 -11.2 L10.5 -11.2 10.55 -11.2 10.55 -11.15 10.55 -11.15 10.5 -11.2 10.45 -11.2 10.5 -11.2 M11.0 -11.7 L11.1 -11.65 11.15 -11.65 11.1 -11.6 11.1 -11.6 11.0 -11.65 11.0 -11.7 M10.7 -11.65 L10.7 -11.65 Q10.55 -11.7 10.5 -11.75 L10.5 -11.8 10.65 -11.75 10.7 -11.75 10.75 -11.75 10.75 -11.7 10.7 -11.65 M10.5 -10.95 L10.55 -10.95 10.55 -10.9 10.6 -10.9 10.6 -10.9 10.65 -10.85 10.65 -10.85 10.6 -10.8 10.45 -10.9 10.45 -10.95 10.5 -10.95 M10.3 -10.6 L10.45 -10.45 10.5 -10.4 10.5 -10.4 10.45 -10.35 10.4 -10.3 10.35 -10.4 Q10.3 -10.4 10.3 -10.45 L10.3 -10.6 M7.9 -14.9 L7.9 -14.85 7.85 -14.85 7.85 -14.8 7.8 -14.8 7.8 -14.85 7.8 -14.9 7.8 -14.9 7.9 -14.9 M7.15 -14.4 L7.1 -14.35 7.0 -14.35 6.95 -14.4 6.9 -14.45 6.9 -14.5 7.0 -14.45 7.05 -14.45 7.1 -14.45 7.15 -14.4 M6.55 -14.45 L6.55 -14.4 6.55 -14.35 6.5 -14.25 6.45 -14.3 6.5 -14.3 6.5 -14.35 6.4 -14.35 6.45 -14.4 6.45 -14.4 6.5 -14.5 6.5 -14.5 6.55 -14.45 6.55 -14.45 M5.9 -13.95 L5.9 -14.0 5.85 -14.0 5.85 -14.05 5.9 -14.05 6.0 -14.0 6.05 -13.95 6.05 -13.9 6.05 -13.9 5.9 -13.95 5.9 -13.95 M5.7 -14.3 L5.75 -14.25 5.75 -14.15 5.7 -14.15 5.6 -14.2 Q5.6 -14.2 5.6 -14.25 L5.6 -14.25 5.65 -14.3 5.7 -14.3 M6.65 -13.7 L6.7 -13.7 6.75 -13.75 6.75 -13.75 6.75 -13.6 6.65 -13.55 Q6.65 -13.5 6.6 -13.5 L6.6 -13.5 6.6 -13.6 6.65 -13.7 M6.45 -13.95 L6.45 -13.95 Q6.5 -13.9 6.5 -13.9 L6.5 -13.9 6.45 -13.85 6.4 -13.85 6.4 -13.9 6.4 -13.95 6.45 -14.0 6.45 -13.95 M7.2 -11.25 L7.15 -11.2 7.1 -11.1 7.05 -11.0 6.95 -10.95 6.85 -10.9 6.85 -11.05 Q6.85 -11.15 6.9 -11.2 L6.95 -11.2 7.05 -11.15 7.1 -11.25 7.15 -11.3 7.2 -11.25 M7.45 -11.5 L7.45 -11.65 7.5 -11.6 7.6 -11.5 7.6 -11.4 7.55 -11.4 7.5 -11.4 7.5 -11.4 7.45 -11.5 M7.45 -11.15 L7.5 -11.15 7.45 -11.05 7.4 -11.0 7.4 -11.1 7.4 -11.1 7.45 -11.15 7.45 -11.15 M7.75 -11.2 L7.8 -11.25 7.85 -11.25 7.9 -11.15 7.9 -11.05 7.95 -11.0 7.95 -10.9 7.9 -10.8 7.85 -10.8 7.75 -10.9 Q7.65 -11.0 7.7 -11.05 L7.75 -11.05 7.8 -11.1 7.75 -11.2 M8.05 -11.7 L8.1 -11.65 8.05 -11.55 8.05 -11.55 7.95 -11.5 7.9 -11.4 7.85 -11.3 Q7.75 -11.25 7.75 -11.3 L7.7 -11.3 7.7 -11.45 Q7.7 -11.55 7.75 -11.55 L7.8 -11.55 7.85 -11.55 7.85 -11.6 7.75 -11.65 7.8 -11.65 7.95 -11.6 7.95 -11.65 8.05 -11.7 M7.25 -10.6 L7.25 -10.6 7.3 -10.5 7.25 -10.5 7.25 -10.45 7.2 -10.4 7.1 -10.4 7.15 -10.5 7.2 -10.6 7.25 -10.6 M7.45 -10.55 L7.45 -10.5 7.35 -10.5 7.35 -10.5 Q7.35 -10.5 7.35 -10.55 L7.4 -10.6 7.45 -10.55" fill="#421818" fill-rule="evenodd" stroke="none"/>
    <path d="M10.4 -12.7 L10.45 -12.65 10.45 -12.6 10.5 -12.55 10.5 -12.45 10.55 -12.4 10.5 -12.3 10.45 -12.25 10.4 -12.25 10.3 -12.35 10.3 -12.35 10.35 -12.35 10.5 -12.35 10.45 -12.45 10.45 -12.45 10.35 -12.45 10.3 -12.45 10.25 -12.45 10.2 -12.5 10.15 -12.55 10.05 -12.6 9.85 -12.65 9.7 -12.6 9.6 -12.55 9.6 -12.5 9.45 -12.55 9.45 -12.5 9.5 -12.5 9.55 -12.5 9.5 -12.4 9.45 -12.3 9.45 -12.3 9.35 -12.3 9.25 -12.25 9.35 -12.25 9.5 -12.2 9.45 -12.15 9.5 -12.1 9.5 -12.1 Q9.45 -12.0 9.3 -11.95 L9.15 -11.9 9.1 -11.9 9.05 -11.9 9.0 -11.9 9.0 -11.9 9.1 -12.05 9.2 -12.15 9.2 -12.15 9.3 -12.25 9.25 -12.25 9.2 -12.25 9.2 -12.25 9.15 -12.25 9.15 -12.2 9.1 -12.2 8.95 -12.25 8.85 -12.25 8.75 -12.25 8.7 -12.2 8.7 -12.15 8.65 -12.05 Q8.6 -12.05 8.6 -12.1 L8.55 -12.2 8.55 -12.3 8.55 -12.35 8.6 -12.4 8.85 -12.35 9.15 -12.35 9.2 -12.4 9.25 -12.55 9.35 -12.7 9.5 -12.8 9.55 -12.85 9.45 -12.95 9.5 -12.95 9.45 -13.0 9.4 -13.05 9.3 -13.1 9.2 -13.1 9.15 -13.1 9.15 -13.1 9.2 -13.05 9.2 -13.05 9.2 -13.05 9.1 -13.05 9.0 -13.1 8.95 -13.1 9.0 -13.15 9.15 -13.15 9.4 -13.15 9.65 -13.05 Q9.65 -13.0 9.7 -13.0 9.7 -12.95 9.8 -12.95 L9.9 -13.0 10.0 -12.95 10.1 -12.85 10.1 -12.8 10.15 -12.8 10.2 -12.75 10.25 -12.7 10.25 -12.7 10.2 -12.65 10.2 -12.65 10.1 -12.65 10.15 -12.6 10.15 -12.6 10.25 -12.6 10.25 -12.55 10.2 -12.55 10.3 -12.5 10.35 -12.55 10.35 -12.6 10.35 -12.6 10.4 -12.65 10.4 -12.7 M8.2 -12.65 L8.3 -12.6 8.3 -12.55 8.35 -12.4 8.35 -12.35 8.25 -12.3 Q8.2 -12.3 8.2 -12.45 L8.15 -12.55 8.1 -12.5 8.1 -12.5 8.0 -12.55 7.95 -12.6 7.7 -12.7 7.45 -12.6 7.35 -12.55 7.35 -12.35 7.35 -12.1 7.3 -12.0 7.2 -11.95 7.1 -11.9 Q7.0 -11.85 6.95 -11.85 L6.95 -11.85 6.9 -11.85 6.8 -11.85 6.75 -11.85 6.7 -11.9 6.75 -11.9 Q6.85 -12.0 6.85 -12.1 L6.8 -12.15 6.8 -12.15 6.65 -12.2 6.55 -12.1 6.4 -12.05 6.35 -12.05 6.35 -12.05 6.4 -12.1 6.4 -12.15 6.35 -12.2 6.3 -12.25 6.25 -12.3 6.25 -12.35 6.25 -12.4 6.35 -12.4 6.4 -12.4 6.5 -12.45 6.6 -12.45 6.9 -12.35 Q6.95 -12.35 6.95 -12.4 L7.0 -12.45 7.0 -12.6 Q7.05 -12.65 7.15 -12.7 7.3 -12.7 7.3 -12.8 L7.2 -12.9 7.0 -13.0 6.85 -13.0 6.75 -13.05 6.7 -13.1 6.65 -13.15 6.95 -13.2 7.15 -13.2 7.25 -13.15 7.3 -13.1 7.3 -13.1 Q7.35 -13.0 7.4 -13.0 L7.55 -13.0 Q7.6 -13.0 7.65 -13.0 L7.7 -12.9 7.9 -12.8 7.95 -12.75 8.0 -12.7 8.1 -12.7 8.2 -12.65 M5.8 -12.5 L6.0 -12.55 6.1 -12.5 6.05 -12.5 5.95 -12.45 5.9 -12.45 5.8 -12.5 M6.7 -11.8 L6.65 -11.85 6.7 -11.85 6.7 -11.85 6.75 -11.8 6.75 -11.8 Q6.7 -11.8 6.7 -11.8" fill="#2a2a27" fill-rule="evenodd" stroke="none"/>
  </g>
</svg>
