<?xml version="1.0" encoding="UTF-8" standalone="no"?>
<svg xmlns:xlink="http://www.w3.org/1999/xlink" height="3.35px" width="4.3px" xmlns="http://www.w3.org/2000/svg">
  <g transform="matrix(1.0, 0.0, 0.0, 1.0, -5.95, 15.1)">
    <path d="M10.1 -14.9 L10.1 -14.9 10.05 -14.95 10.1 -14.95 10.15 -15.0 10.15 -14.95 10.1 -14.9 M8.35 -15.05 L8.35 -15.05 8.3 -15.05 8.2 -15.05 8.25 -15.05 8.35 -15.1 8.35 -15.05 M8.8 -14.05 L8.8 -14.05 8.75 -14.05 Q8.75 -14.0 8.75 -14.0 L8.65 -14.05 8.7 -14.05 8.75 -14.05 8.75 -14.05 8.8 -14.05 M9.5 -14.7 L9.5 -14.7 9.5 -14.65 9.4 -14.6 9.35 -14.65 9.35 -14.75 9.45 -14.75 9.45 -14.75 9.5 -14.75 9.5 -14.7 M9.2 -11.8 L9.25 -11.8 9.35 -11.8 9.35 -11.75 9.25 -11.75 9.25 -11.75 9.2 -11.75 Q9.2 -11.75 9.15 -11.75 L9.2 -11.8 M9.55 -12.35 L9.6 -12.3 9.6 -12.3 9.55 -12.3 9.5 -12.3 9.5 -12.3 9.55 -12.35 M10.0 -12.15 L10.1 -12.1 10.15 -12.1 10.1 -12.1 10.0 -12.1 9.9 -12.1 9.85 -12.15 9.9 -12.15 9.95 -12.15 9.95 -12.15 10.0 -12.15 M9.5 -12.7 L9.5 -12.65 9.4 -12.65 Q9.35 -12.65 9.3 -12.65 L9.45 -12.75 9.5 -12.75 9.55 -12.8 9.55 -12.75 9.5 -12.7 M9.55 -13.45 Q9.55 -13.4 9.5 -13.4 L9.45 -13.45 9.55 -13.5 9.55 -13.55 9.6 -13.5 9.55 -13.45 M9.7 -13.3 L9.7 -13.3 Q9.65 -13.3 9.65 -13.3 L9.6 -13.3 9.6 -13.35 9.65 -13.35 9.7 -13.35 9.7 -13.3" fill="#421818" fill-rule="evenodd" stroke="none"/>
    <path d="M10.15 -12.9 L10.2 -12.85 10.25 -12.7 10.2 -12.6 10.05 -12.55 10.0 -12.6 9.95 -12.65 10.0 -12.7 10.05 -12.8 10.05 -12.8 10.0 -12.85 9.95 -12.85 Q9.85 -12.85 9.8 -12.9 L9.85 -12.95 9.95 -12.95 10.05 -12.95 10.1 -12.95 10.15 -12.9 M8.2 -12.45 L8.25 -12.4 8.3 -12.35 8.3 -12.35 8.25 -12.3 8.2 -12.4 8.15 -12.45 8.2 -12.45 M8.2 -12.75 Q8.2 -12.7 8.15 -12.65 8.05 -12.6 7.95 -12.6 L7.9 -12.6 7.85 -12.7 7.9 -12.75 7.9 -12.8 7.85 -12.9 7.75 -12.9 7.8 -12.95 7.95 -13.0 8.1 -12.9 8.2 -12.75 M8.85 -13.4 L9.05 -13.35 9.15 -13.35 9.2 -13.3 9.3 -13.1 Q9.3 -13.05 9.25 -12.95 L9.1 -12.85 Q9.0 -12.85 8.9 -12.75 L8.8 -12.65 8.85 -12.6 8.95 -12.5 9.05 -12.45 9.05 -12.25 8.95 -12.1 Q8.9 -12.05 8.65 -12.05 L8.6 -12.05 8.6 -12.1 8.6 -12.35 8.6 -12.4 8.7 -12.35 8.75 -12.35 8.8 -12.4 8.75 -12.55 8.7 -12.7 Q8.7 -12.8 8.9 -12.9 9.1 -13.0 9.1 -13.05 L9.05 -13.15 8.95 -13.15 8.8 -13.15 8.6 -13.15 8.25 -13.1 8.2 -13.15 8.3 -13.2 8.4 -13.35 8.6 -13.4 8.85 -13.4 M8.5 -12.2 L8.5 -12.1 8.4 -11.95 8.25 -11.9 8.2 -11.9 8.2 -11.95 8.25 -12.0 8.3 -12.0 8.35 -12.15 8.35 -12.2 8.35 -12.3 8.4 -12.3 8.45 -12.25 8.5 -12.2 M7.05 -13.1 L7.0 -13.0 6.85 -12.85 6.7 -12.8 6.65 -12.7 6.65 -12.65 6.75 -12.6 6.8 -12.55 6.85 -12.3 Q6.85 -12.2 6.8 -12.1 6.7 -12.0 6.55 -12.0 L6.45 -12.05 6.45 -12.15 6.45 -12.2 6.35 -12.3 6.35 -12.4 6.4 -12.45 6.55 -12.35 Q6.6 -12.3 6.65 -12.3 L6.65 -12.3 6.7 -12.35 6.55 -12.5 Q6.45 -12.6 6.45 -12.7 L6.5 -12.8 6.65 -12.85 6.75 -12.95 6.85 -13.1 6.8 -13.1 6.7 -13.15 6.65 -13.15 6.45 -13.1 6.2 -13.1 6.1 -13.1 6.1 -13.15 6.15 -13.2 Q6.2 -13.3 6.3 -13.3 L6.5 -13.35 6.7 -13.35 6.85 -13.3 6.95 -13.3 7.0 -13.2 7.05 -13.1 M6.0 -12.45 L6.05 -12.45 6.1 -12.4 Q6.1 -12.4 6.0 -12.35 L6.0 -12.45 5.95 -12.5 Q6.0 -12.45 6.0 -12.45 M6.25 -12.3 L6.25 -12.15 6.2 -12.0 6.15 -11.95 6.1 -11.95 6.1 -12.0 6.15 -12.25 6.2 -12.3 6.2 -12.3 6.25 -12.3" fill="#2a2a27" fill-rule="evenodd" stroke="none"/>
  </g>
</svg>
