<?xml version="1.0" encoding="UTF-8" standalone="no"?>
<svg xmlns:xlink="http://www.w3.org/1999/xlink" height="5.6px" width="6.1px" xmlns="http://www.w3.org/2000/svg">
  <g transform="matrix(1.0, 0.0, 0.0, 1.0, -9.9, 10.35)">
    <path d="M10.95 -9.9 L10.8 -9.75 10.7 -9.65 10.5 -9.45 10.4 -9.25 10.4 -9.25 10.65 -9.7 10.7 -9.8 Q11.05 -10.35 11.3 -10.35 L11.35 -10.3 11.4 -10.25 11.35 -10.1 11.3 -10.15 Q11.15 -10.15 10.95 -9.9 M13.1 -9.95 L13.15 -9.95 13.15 -9.9 Q13.15 -9.9 13.1 -9.9 L13.1 -9.95 M13.45 -10.0 L13.45 -9.95 13.4 -9.95 Q13.35 -9.95 13.35 -10.0 L13.35 -10.0 13.4 -10.05 13.4 -10.0 13.45 -10.0 M15.25 -9.95 L15.25 -9.9 15.2 -9.9 15.2 -9.9 15.15 -9.95 15.2 -9.95 15.25 -9.95 15.25 -9.95 M15.5 -9.95 L15.45 -9.95 15.45 -9.95 15.5 -10.0 15.55 -10.0 Q15.55 -9.95 15.55 -9.95 L15.55 -9.95 15.5 -9.95 M14.45 -9.8 L14.45 -9.8 14.4 -9.8 14.4 -9.8 14.4 -9.75 14.35 -9.7 14.35 -9.7 14.35 -9.8 Q14.4 -9.8 14.4 -9.8 14.45 -9.8 14.45 -9.8 M14.4 -9.25 L14.45 -9.25 14.35 -9.2 14.2 -9.15 14.15 -9.1 14.0 -9.05 14.05 -9.05 14.15 -9.15 14.2 -9.2 14.35 -9.25 14.4 -9.25 M14.05 -8.5 L14.0 -8.5 13.95 -8.45 14.05 -8.4 14.1 -8.4 14.1 -8.4 14.2 -8.35 14.25 -8.3 14.4 -8.25 14.6 -8.3 14.65 -8.3 14.75 -8.35 14.8 -8.35 14.85 -8.35 15.0 -8.3 15.1 -8.3 15.15 -8.35 15.2 -8.3 15.2 -8.25 15.15 -8.2 15.15 -8.2 15.2 -8.15 15.1 -8.1 14.95 -8.05 15.05 -8.05 15.1 -8.05 15.1 -8.0 15.25 -8.0 15.35 -7.95 15.3 -7.85 15.35 -7.85 15.35 -7.8 15.4 -7.8 15.45 -7.8 15.55 -7.75 15.55 -7.75 16.0 -7.7 15.8 -7.65 Q15.65 -7.65 15.65 -7.6 L15.7 -7.55 15.7 -7.55 15.7 -7.5 15.8 -7.5 15.8 -7.5 15.3 -7.45 15.0 -7.4 14.75 -7.4 14.7 -7.4 14.8 -7.35 15.55 -7.25 15.8 -7.15 15.8 -7.15 15.6 -7.15 15.35 -7.1 15.2 -7.1 15.0 -7.1 14.9 -7.15 14.75 -7.1 14.65 -7.1 14.6 -7.1 14.55 -7.1 14.5 -7.1 14.45 -7.1 14.45 -7.05 14.5 -7.05 14.55 -7.0 14.6 -6.95 14.7 -6.9 14.7 -6.85 14.75 -6.8 14.9 -6.7 14.9 -6.7 14.8 -6.65 14.7 -6.7 14.55 -6.7 14.5 -6.65 14.7 -6.55 14.6 -6.5 14.45 -6.55 14.25 -6.55 14.2 -6.55 14.15 -6.55 14.15 -6.55 14.1 -6.6 14.0 -6.6 13.95 -6.55 13.9 -6.55 13.85 -6.5 Q13.8 -6.5 13.8 -6.45 L13.8 -6.35 13.75 -6.35 13.7 -6.35 13.65 -6.35 13.6 -6.35 13.55 -6.3 13.4 -6.3 13.25 -6.35 13.2 -6.35 13.2 -6.3 13.25 -6.25 Q13.25 -6.2 13.2 -6.2 L13.15 -6.15 13.15 -6.1 13.2 -6.05 13.2 -6.05 13.1 -6.05 13.05 -6.0 12.95 -6.05 12.9 -6.05 12.85 -6.1 12.8 -6.1 12.75 -6.1 12.65 -6.1 Q12.65 -6.15 12.6 -6.15 L12.5 -6.15 12.3 -6.25 12.2 -6.35 12.15 -6.3 12.15 -6.3 Q12.1 -6.3 12.05 -6.35 L12.0 -6.35 11.95 -6.35 11.95 -6.35 11.9 -6.3 11.9 -6.25 11.9 -6.05 11.85 -6.1 11.8 -6.1 11.7 -6.2 11.7 -6.2 11.65 -6.15 11.6 -6.2 11.45 -6.0 11.4 -6.05 11.35 -6.1 Q11.3 -6.1 11.25 -6.15 L11.2 -6.2 11.2 -6.2 11.2 -6.2 11.25 -6.2 11.35 -6.15 11.4 -6.1 11.5 -6.2 11.55 -6.25 11.6 -6.25 11.6 -6.35 11.65 -6.4 11.75 -6.5 11.7 -6.65 11.7 -6.7 11.7 -6.8 11.6 -6.85 11.6 -6.9 Q11.55 -6.9 11.6 -6.95 L11.6 -7.0 11.55 -7.05 11.55 -7.1 11.65 -7.05 Q11.75 -7.0 11.8 -7.0 L12.05 -6.85 12.1 -6.85 12.15 -6.8 12.2 -6.8 12.25 -6.8 12.5 -6.7 12.5 -6.6 12.55 -6.55 12.6 -6.5 12.65 -6.5 12.7 -6.45 12.7 -6.45 12.75 -6.4 12.75 -6.35 12.85 -6.35 12.85 -6.3 12.9 -6.25 13.0 -6.25 13.05 -6.25 13.1 -6.3 13.15 -6.35 13.15 -6.45 13.2 -6.45 13.25 -6.45 13.25 -6.45 13.4 -6.45 13.45 -6.45 13.45 -6.45 13.5 -6.45 13.55 -6.45 13.6 -6.45 13.6 -6.5 13.55 -6.55 13.6 -6.55 13.65 -6.6 13.65 -6.65 13.6 -6.65 13.65 -6.7 13.65 -6.75 13.6 -6.8 13.55 -6.85 13.6 -6.9 13.6 -6.9 13.65 -6.9 13.7 -6.85 13.7 -6.8 13.75 -6.8 13.8 -6.8 13.8 -6.8 13.9 -6.75 13.95 -6.7 14.05 -6.65 13.95 -6.8 13.9 -6.85 13.9 -6.9 13.85 -6.9 13.8 -6.95 13.8 -6.95 13.75 -6.95 13.75 -7.05 13.7 -7.05 13.7 -7.1 13.75 -7.1 13.75 -7.1 13.8 -7.1 13.8 -7.1 13.85 -7.15 13.9 -7.15 13.95 -7.15 14.0 -7.15 14.1 -7.15 Q14.15 -7.15 14.2 -7.2 L14.15 -7.3 14.3 -7.2 14.4 -7.2 14.45 -7.2 14.55 -7.2 14.6 -7.2 14.75 -7.2 14.75 -7.2 14.6 -7.25 14.25 -7.45 14.2 -7.5 14.25 -7.5 14.25 -7.55 14.25 -7.6 14.35 -7.6 14.5 -7.6 14.65 -7.6 14.75 -7.6 14.85 -7.6 14.75 -7.75 14.7 -7.8 14.65 -7.85 14.65 -7.9 14.6 -7.95 14.5 -8.0 14.45 -8.05 14.45 -8.1 14.5 -8.1 14.55 -8.15 14.65 -8.15 14.65 -8.15 14.55 -8.2 14.5 -8.2 14.45 -8.2 14.35 -8.2 14.25 -8.25 14.2 -8.25 14.1 -8.25 14.05 -8.25 14.05 -8.25 14.0 -8.25 13.95 -8.25 14.0 -8.3 13.95 -8.35 13.9 -8.35 13.85 -8.35 13.8 -8.35 13.7 -8.4 13.6 -8.4 13.6 -8.45 13.55 -8.5 13.45 -8.5 13.5 -8.55 13.45 -8.6 13.4 -8.6 13.4 -8.65 13.35 -8.65 13.25 -8.6 13.25 -8.6 13.2 -8.6 13.15 -8.6 13.15 -8.65 13.2 -8.65 13.2 -8.75 13.2 -8.75 13.2 -8.8 13.15 -8.75 13.1 -8.75 13.0 -8.7 12.95 -8.65 12.9 -8.6 12.85 -8.55 12.8 -8.55 12.8 -8.5 12.75 -8.45 Q12.65 -8.35 12.55 -8.3 L12.55 -8.35 12.6 -8.4 12.6 -8.4 12.55 -8.4 12.5 -8.4 12.55 -8.45 12.5 -8.5 12.4 -8.35 12.3 -8.3 12.25 -8.25 12.15 -8.2 12.0 -8.15 11.9 -8.15 11.95 -8.2 11.95 -8.25 11.85 -8.2 11.8 -8.25 11.75 -8.25 11.65 -8.25 11.6 -8.2 Q11.6 -8.2 11.55 -8.2 L11.55 -8.3 11.55 -8.35 Q11.55 -8.35 11.5 -8.35 L11.5 -8.35 11.45 -8.35 11.4 -8.3 11.35 -8.25 11.3 -8.25 11.3 -8.15 Q11.3 -8.1 11.25 -8.1 L11.25 -8.15 11.2 -8.15 11.2 -8.15 11.15 -8.1 11.15 -8.05 11.05 -8.0 11.0 -8.0 10.95 -7.9 Q10.95 -7.85 10.85 -7.8 L10.9 -7.75 11.0 -7.75 11.0 -7.7 10.95 -7.65 10.95 -7.6 11.0 -7.6 Q11.0 -7.55 10.95 -7.55 L10.85 -7.5 10.8 -7.5 10.7 -7.45 Q10.7 -7.4 10.8 -7.35 10.85 -7.3 10.9 -7.3 L11.0 -7.2 11.05 -7.05 11.1 -6.8 11.2 -6.65 11.2 -6.6 11.25 -6.6 11.35 -6.65 11.4 -6.55 11.45 -6.45 11.45 -6.4 11.5 -6.35 11.5 -6.35 11.45 -6.3 Q11.4 -6.3 11.4 -6.3 L11.35 -6.3 11.3 -6.35 11.2 -6.35 11.2 -6.35 11.15 -6.4 11.15 -6.45 11.1 -6.45 11.05 -6.45 11.0 -6.5 10.95 -6.5 10.95 -6.4 10.9 -6.45 10.85 -6.6 10.8 -6.65 10.7 -6.85 10.6 -7.05 10.5 -7.2 10.4 -7.35 10.4 -7.45 10.35 -7.55 10.3 -7.6 10.4 -7.7 10.5 -7.75 10.6 -7.9 10.65 -7.95 10.7 -8.0 10.8 -8.05 10.9 -8.15 10.95 -8.2 11.0 -8.25 11.1 -8.35 11.2 -8.5 11.3 -8.65 11.4 -8.75 11.5 -8.85 11.65 -8.95 12.05 -9.2 12.05 -9.2 Q12.0 -9.15 12.05 -9.15 L12.1 -9.1 12.05 -9.05 12.0 -8.95 12.05 -8.95 12.1 -8.95 12.25 -9.05 Q12.55 -9.35 12.75 -9.45 L12.75 -9.4 12.7 -9.35 12.7 -9.3 12.75 -9.3 12.85 -9.4 12.85 -9.4 12.9 -9.4 13.0 -9.45 13.1 -9.5 13.1 -9.5 13.15 -9.5 13.25 -9.55 13.25 -9.55 13.5 -9.65 13.7 -9.75 Q13.7 -9.8 13.75 -9.8 L13.75 -9.8 13.8 -9.85 13.8 -9.75 13.7 -9.65 13.65 -9.6 13.6 -9.55 13.55 -9.45 13.45 -9.35 13.35 -9.3 13.4 -9.25 13.35 -9.2 13.3 -9.15 13.25 -9.1 13.25 -9.1 13.3 -9.1 13.35 -9.05 13.45 -9.05 13.45 -9.0 13.4 -8.95 13.3 -8.85 13.35 -8.8 13.4 -8.8 13.45 -8.8 13.5 -8.75 13.65 -8.75 13.7 -8.65 13.7 -8.65 13.75 -8.6 13.75 -8.55 Q13.75 -8.5 13.8 -8.5 L14.0 -8.5 14.0 -8.5 14.05 -8.5 M14.4 -7.45 L14.55 -7.45 14.65 -7.45 14.7 -7.45 14.8 -7.45 14.85 -7.5 14.85 -7.5 14.8 -7.5 Q14.75 -7.5 14.75 -7.55 L14.6 -7.55 14.5 -7.55 14.4 -7.5 14.3 -7.5 14.35 -7.45 14.4 -7.45 M14.95 -7.75 L14.9 -7.75 14.85 -7.7 14.95 -7.65 15.0 -7.65 15.0 -7.65 15.05 -7.65 15.05 -7.7 15.15 -7.65 15.25 -7.7 15.3 -7.7 15.4 -7.75 15.45 -7.75 15.5 -7.75 15.35 -7.75 15.2 -7.75 15.1 -7.8 14.95 -7.75 M15.15 -7.6 Q15.15 -7.55 15.2 -7.55 L15.3 -7.55 15.4 -7.55 15.4 -7.6 15.35 -7.6 15.25 -7.6 15.25 -7.6 15.15 -7.6 15.15 -7.6 M14.1 -9.65 L14.05 -9.65 14.1 -9.6 Q14.1 -9.6 14.05 -9.6 L14.0 -9.55 14.0 -9.55 13.9 -9.5 13.9 -9.5 13.95 -9.55 13.95 -9.6 14.0 -9.65 14.05 -9.65 14.1 -9.65 M13.3 -9.5 L13.25 -9.45 13.15 -9.4 13.1 -9.4 13.0 -9.35 13.0 -9.35 12.95 -9.25 12.9 -9.2 12.9 -9.2 12.8 -9.1 12.75 -9.05 12.7 -9.0 12.7 -9.0 12.75 -8.9 12.75 -8.85 12.8 -8.75 12.85 -8.75 12.9 -8.85 12.95 -8.95 13.0 -9.0 13.1 -9.1 13.1 -9.15 13.15 -9.2 13.2 -9.25 13.2 -9.3 13.25 -9.4 13.35 -9.45 13.45 -9.5 13.5 -9.5 13.5 -9.5 13.55 -9.55 13.6 -9.6 13.45 -9.55 13.45 -9.55 13.35 -9.5 13.3 -9.5 M13.2 -9.05 L13.2 -8.95 13.2 -8.9 13.25 -8.9 13.35 -9.0 13.3 -9.0 13.25 -9.05 13.2 -9.05 M12.25 -9.75 L12.35 -9.75 12.35 -9.75 12.25 -9.7 12.2 -9.6 12.15 -9.65 12.15 -9.65 12.25 -9.75 M12.3 -9.4 L12.2 -9.35 12.15 -9.3 12.1 -9.3 12.0 -9.3 11.95 -9.3 11.9 -9.3 11.95 -9.35 12.0 -9.35 12.05 -9.4 12.1 -9.4 12.15 -9.5 12.3 -9.5 12.3 -9.4 M12.55 -9.3 L12.5 -9.3 12.5 -9.25 12.45 -9.15 12.45 -9.15 12.4 -9.05 12.35 -8.95 12.3 -8.9 12.25 -8.9 12.2 -8.75 12.2 -8.65 12.15 -8.55 12.15 -8.45 12.2 -8.5 12.3 -8.6 12.4 -8.7 12.45 -8.8 12.45 -8.85 12.5 -8.9 12.65 -9.0 12.65 -9.1 12.7 -9.15 12.7 -9.25 12.65 -9.25 12.6 -9.25 12.6 -9.3 12.55 -9.3 M12.6 -8.85 L12.55 -8.75 12.55 -8.75 12.6 -8.7 12.6 -8.7 12.65 -8.65 12.65 -8.8 12.65 -8.8 12.6 -8.85 12.6 -8.85 M13.9 -7.05 L13.9 -7.0 14.0 -6.9 14.0 -6.85 14.25 -6.7 14.3 -6.65 14.35 -6.6 14.35 -6.55 14.45 -6.6 14.45 -6.8 14.5 -6.8 14.45 -6.85 14.35 -6.9 14.3 -6.85 14.25 -6.85 14.2 -6.85 14.1 -6.9 14.1 -6.9 14.05 -6.95 14.0 -7.0 13.95 -7.0 13.9 -7.05 13.9 -7.05 M14.05 -7.1 L14.05 -7.05 Q14.05 -7.05 14.1 -7.0 L14.1 -7.0 14.2 -7.0 14.25 -7.0 14.25 -7.05 14.3 -7.05 14.25 -7.05 14.2 -7.1 14.15 -7.1 14.15 -7.05 14.05 -7.1 M13.7 -6.75 L13.7 -6.7 13.75 -6.7 13.75 -6.7 13.8 -6.7 13.75 -6.75 13.75 -6.75 13.7 -6.75 M12.45 -6.55 L12.4 -6.6 12.25 -6.7 12.2 -6.7 12.2 -6.6 12.25 -6.5 12.4 -6.35 12.5 -6.2 12.6 -6.2 12.65 -6.2 Q12.65 -6.15 12.7 -6.15 L12.75 -6.2 12.75 -6.2 12.8 -6.25 12.7 -6.35 12.65 -6.35 12.65 -6.4 12.6 -6.45 12.5 -6.5 12.45 -6.55 12.45 -6.55 M12.15 -6.6 L12.1 -6.65 12.05 -6.75 11.8 -7.0 11.75 -6.95 11.75 -6.95 11.8 -6.85 11.85 -6.75 11.85 -6.65 11.85 -6.65 11.9 -6.55 12.0 -6.5 12.1 -6.5 12.15 -6.55 12.15 -6.6 M12.5 -5.9 L12.6 -5.75 12.7 -5.6 Q12.5 -5.6 12.5 -5.7 L12.5 -5.9 M12.15 -5.4 Q12.0 -5.4 11.95 -5.55 L11.9 -5.6 11.9 -5.8 11.95 -5.85 Q12.15 -5.8 12.25 -5.65 L12.3 -5.55 Q12.3 -5.4 12.15 -5.4 M13.8 -5.6 L13.75 -5.6 13.75 -5.55 13.75 -5.55 13.7 -5.55 13.7 -5.55 13.7 -5.6 13.75 -5.6 13.75 -5.6 13.8 -5.6 M12.75 -5.25 L12.8 -5.25 12.85 -5.25 12.95 -5.25 12.9 -5.2 12.8 -5.2 12.65 -5.25 12.75 -5.25 M13.55 -5.6 L13.45 -5.65 13.45 -5.7 13.45 -5.7 Q13.55 -5.7 13.6 -5.6 L13.6 -5.6 13.55 -5.6 M13.95 -5.55 L14.0 -5.55 14.0 -5.5 13.9 -5.45 13.9 -5.5 Q13.85 -5.5 13.85 -5.5 L13.95 -5.55 M15.05 -7.2 L14.95 -7.25 14.9 -7.3 14.85 -7.25 14.85 -7.25 14.9 -7.2 15.0 -7.2 15.05 -7.2 15.05 -7.2 M11.95 -9.6 L11.95 -9.6 11.85 -9.55 11.8 -9.5 11.8 -9.5 11.75 -9.5 11.85 -9.6 11.85 -9.6 11.9 -9.65 11.9 -9.65 11.95 -9.65 11.95 -9.6 M15.05 -5.3 L15.05 -5.3 14.95 -5.25 14.9 -5.25 14.85 -5.25 14.85 -5.3 14.95 -5.3 14.95 -5.3 15.0 -5.3 15.05 -5.3 15.05 -5.3 M11.15 -8.8 L11.0 -8.7 11.1 -8.85 11.35 -9.05 11.35 -8.95 11.15 -8.8 M11.85 -8.8 L11.85 -8.9 11.85 -8.9 11.9 -9.0 11.85 -9.05 11.75 -8.9 11.7 -8.85 11.7 -8.8 11.6 -8.75 11.55 -8.65 11.5 -8.55 11.4 -8.5 11.35 -8.45 11.3 -8.35 11.3 -8.35 11.35 -8.35 11.5 -8.4 11.65 -8.45 11.75 -8.45 11.75 -8.45 Q11.85 -8.5 11.85 -8.55 L11.8 -8.6 11.75 -8.65 11.85 -8.75 11.85 -8.8 M10.5 -8.95 L10.5 -8.95 10.55 -8.85 10.55 -8.85 10.5 -8.75 10.5 -8.75 10.35 -8.6 10.35 -8.65 10.45 -8.8 10.45 -8.8 10.5 -8.95 M10.15 -8.65 L10.15 -8.65 10.1 -8.65 10.1 -8.65 10.15 -8.7 10.15 -8.7 10.2 -8.7 10.15 -8.65 M10.65 -8.9 L10.6 -8.9 10.75 -9.0 10.9 -9.15 10.95 -9.2 11.05 -9.25 11.0 -9.1 10.9 -9.05 10.65 -8.85 10.65 -8.9 M10.25 -8.5 L10.25 -8.4 10.2 -8.3 10.15 -8.25 10.15 -8.25 10.05 -8.15 10.0 -8.05 9.95 -7.9 9.9 -7.9 9.9 -7.95 9.9 -8.0 9.95 -8.1 10.05 -8.25 10.1 -8.35 10.15 -8.4 10.25 -8.5 M10.35 -8.15 L10.4 -8.15 10.4 -8.0 10.4 -7.95 10.3 -7.9 10.25 -7.9 10.2 -7.9 10.25 -8.0 10.3 -8.05 10.35 -8.15 M10.7 -6.2 L10.75 -6.1 10.75 -6.1 10.7 -6.05 10.7 -6.05 10.55 -6.15 Q10.5 -6.15 10.4 -6.25 L10.4 -6.25 10.3 -6.35 10.25 -6.45 10.15 -6.7 10.1 -6.8 10.1 -6.8 10.15 -6.7 10.3 -6.5 10.3 -6.5 10.35 -6.35 10.4 -6.3 10.5 -6.25 10.5 -6.25 10.55 -6.2 10.6 -6.2 10.65 -6.2 10.7 -6.2 M10.1 -6.45 L10.05 -6.3 10.0 -6.35 10.0 -6.5 10.05 -6.6 10.1 -6.45 M11.05 -6.25 L11.1 -6.25 Q11.15 -6.2 11.15 -6.2 L11.2 -6.2 11.1 -6.15 Q11.05 -6.15 11.05 -6.2 L11.05 -6.25 M10.85 -5.9 Q10.85 -5.95 10.8 -5.95 L10.8 -6.0 10.9 -5.95 10.9 -5.9 10.85 -5.9 M11.05 -5.85 L11.2 -5.85 Q11.25 -5.8 11.3 -5.8 L11.4 -5.7 11.4 -5.7 11.25 -5.75 11.2 -5.75 11.15 -5.8 11.15 -5.8 11.05 -5.85 M11.55 -5.65 L11.55 -5.7 11.6 -5.65 11.6 -5.65 11.6 -5.6 Q11.55 -5.65 11.5 -5.65 L11.55 -5.65 M11.85 -4.75 L11.75 -4.85 11.75 -4.9 11.8 -5.05 11.85 -4.9 11.85 -4.75" fill="#722c28" fill-rule="evenodd" stroke="none"/>
    <path d="M14.8 -8.35 L14.75 -8.35 14.65 -8.3 14.6 -8.3 14.4 -8.25 14.25 -8.3 14.2 -8.35 14.1 -8.4 14.1 -8.4 14.05 -8.4 13.95 -8.45 14.0 -8.5 14.05 -8.5 14.1 -8.5 14.15 -8.5 14.2 -8.5 14.15 -8.4 Q14.15 -8.35 14.3 -8.35 14.4 -8.35 14.45 -8.4 L14.6 -8.35 14.8 -8.35 M10.95 -6.4 L10.95 -6.5 11.0 -6.5 11.05 -6.45 11.1 -6.45 11.15 -6.45 11.15 -6.4 11.2 -6.35 11.2 -6.35 11.3 -6.35 11.35 -6.3 11.4 -6.3 Q11.4 -6.3 11.45 -6.3 L11.5 -6.35 11.5 -6.35 11.45 -6.4 11.45 -6.45 11.4 -6.55 11.35 -6.65 11.25 -6.6 11.2 -6.6 11.2 -6.65 11.1 -6.8 11.05 -7.05 11.0 -7.2 10.9 -7.3 Q10.85 -7.3 10.8 -7.35 10.7 -7.4 10.7 -7.45 L10.8 -7.5 10.85 -7.5 10.95 -7.55 Q11.0 -7.55 11.0 -7.6 L10.95 -7.6 10.95 -7.65 11.0 -7.7 11.0 -7.75 10.9 -7.75 10.85 -7.8 Q10.95 -7.85 10.95 -7.9 L11.0 -8.0 11.05 -8.0 11.15 -8.05 11.15 -8.1 11.2 -8.15 11.2 -8.15 11.25 -8.15 11.25 -8.1 Q11.3 -8.1 11.3 -8.15 L11.3 -8.25 11.35 -8.25 11.4 -8.3 11.45 -8.35 11.5 -8.35 11.5 -8.35 Q11.55 -8.35 11.55 -8.35 L11.55 -8.3 11.55 -8.2 Q11.6 -8.2 11.6 -8.2 L11.65 -8.25 11.75 -8.25 11.8 -8.25 11.85 -8.2 11.95 -8.25 11.95 -8.2 11.9 -8.15 12.0 -8.15 12.15 -8.2 12.25 -8.25 12.3 -8.3 12.4 -8.35 12.5 -8.5 12.55 -8.45 12.5 -8.4 12.55 -8.4 12.6 -8.4 12.6 -8.4 12.55 -8.35 12.55 -8.3 Q12.65 -8.35 12.75 -8.45 L12.8 -8.5 12.8 -8.55 12.85 -8.55 12.9 -8.6 12.95 -8.65 13.0 -8.7 13.1 -8.75 13.15 -8.75 13.2 -8.8 13.2 -8.75 13.2 -8.75 13.2 -8.65 13.15 -8.65 13.15 -8.6 13.2 -8.6 13.25 -8.6 13.25 -8.6 13.35 -8.65 13.4 -8.65 13.4 -8.6 13.45 -8.6 13.5 -8.55 13.45 -8.5 13.55 -8.5 13.6 -8.45 13.6 -8.4 13.7 -8.4 13.8 -8.35 13.85 -8.35 13.9 -8.35 13.95 -8.35 14.0 -8.3 13.95 -8.25 14.0 -8.25 14.05 -8.25 14.05 -8.25 14.1 -8.25 14.2 -8.25 14.25 -8.25 14.35 -8.2 14.45 -8.2 14.5 -8.2 14.55 -8.2 14.65 -8.15 14.65 -8.15 14.55 -8.15 14.5 -8.1 14.45 -8.1 14.45 -8.05 14.5 -8.0 14.6 -7.95 14.65 -7.9 14.65 -7.85 14.7 -7.8 14.75 -7.75 14.85 -7.6 14.75 -7.6 14.65 -7.6 14.5 -7.6 14.35 -7.6 14.25 -7.6 14.25 -7.55 14.25 -7.5 14.2 -7.5 14.25 -7.45 14.6 -7.25 14.75 -7.2 14.75 -7.2 14.6 -7.2 14.55 -7.2 14.45 -7.2 14.4 -7.2 14.3 -7.2 14.15 -7.3 14.2 -7.2 Q14.15 -7.15 14.1 -7.15 L14.0 -7.15 13.95 -7.15 13.9 -7.15 13.85 -7.15 13.8 -7.1 13.8 -7.1 13.75 -7.1 13.75 -7.1 13.7 -7.1 13.7 -7.05 13.75 -7.05 13.75 -6.95 13.8 -6.95 13.8 -6.95 13.85 -6.9 13.9 -6.9 13.9 -6.85 13.95 -6.8 14.05 -6.65 13.95 -6.7 13.9 -6.75 13.8 -6.8 13.8 -6.8 13.75 -6.8 13.7 -6.8 13.7 -6.85 13.65 -6.9 13.6 -6.9 13.6 -6.9 13.55 -6.85 13.6 -6.8 13.65 -6.75 13.65 -6.7 13.6 -6.65 13.65 -6.65 13.65 -6.6 13.6 -6.55 13.55 -6.55 13.6 -6.5 13.6 -6.45 13.55 -6.45 13.5 -6.45 13.45 -6.45 13.45 -6.45 13.4 -6.45 13.25 -6.45 13.25 -6.45 13.2 -6.45 13.15 -6.45 13.15 -6.35 13.1 -6.3 13.05 -6.25 13.0 -6.25 12.9 -6.25 12.85 -6.3 12.85 -6.35 12.75 -6.35 12.75 -6.4 12.7 -6.45 12.7 -6.45 12.65 -6.5 12.6 -6.5 12.55 -6.55 12.5 -6.6 12.5 -6.7 12.25 -6.8 12.2 -6.8 12.15 -6.8 12.1 -6.85 12.05 -6.85 11.8 -7.0 Q11.75 -7.0 11.65 -7.05 L11.55 -7.1 11.55 -7.05 11.6 -7.0 11.6 -6.95 Q11.55 -6.9 11.6 -6.9 L11.6 -6.85 11.7 -6.8 11.7 -6.7 11.7 -6.65 11.75 -6.5 11.65 -6.4 11.6 -6.35 11.6 -6.25 11.55 -6.25 11.5 -6.2 11.4 -6.1 11.35 -6.15 11.25 -6.2 11.2 -6.2 11.2 -6.2 11.15 -6.2 Q11.15 -6.2 11.1 -6.25 L11.05 -6.25 11.0 -6.3 10.95 -6.4 10.95 -6.4 M14.35 -7.9 L14.1 -8.0 14.0 -8.05 14.0 -8.05 13.75 -8.15 13.7 -8.15 13.65 -8.2 13.7 -8.25 13.7 -8.25 13.65 -8.3 13.6 -8.3 13.5 -8.35 13.45 -8.4 13.35 -8.4 13.25 -8.4 13.2 -8.4 13.15 -8.45 13.05 -8.4 13.0 -8.35 12.95 -8.4 12.95 -8.45 13.0 -8.5 13.0 -8.55 12.85 -8.45 12.8 -8.4 12.65 -8.25 12.6 -8.2 12.55 -8.15 12.45 -8.05 12.25 -7.95 Q12.2 -7.95 12.25 -8.0 L12.15 -7.95 12.15 -7.9 12.1 -7.85 12.05 -7.9 12.0 -7.85 11.95 -7.85 Q11.9 -7.85 11.85 -7.9 L11.8 -7.95 Q11.75 -7.95 11.75 -8.0 L11.7 -8.05 11.7 -8.05 11.55 -8.0 11.45 -8.05 Q11.45 -8.1 11.45 -8.1 L11.45 -8.1 11.4 -8.15 11.35 -8.1 11.35 -8.0 11.35 -7.9 11.25 -7.9 11.2 -7.9 11.2 -7.9 11.15 -7.9 11.1 -7.9 11.05 -7.85 11.1 -7.8 11.15 -7.75 11.15 -7.65 11.05 -7.55 11.0 -7.55 11.0 -7.5 10.95 -7.45 10.9 -7.45 10.95 -7.35 11.05 -7.25 11.1 -7.15 11.05 -7.1 11.1 -7.05 11.15 -6.95 11.2 -6.9 11.2 -6.9 11.25 -6.9 11.3 -6.85 11.3 -6.8 11.4 -6.7 11.4 -6.7 11.45 -6.7 11.5 -6.6 11.5 -6.5 11.55 -6.55 11.55 -6.6 11.5 -6.75 11.5 -6.95 11.55 -7.0 11.5 -7.15 11.55 -7.15 11.55 -7.15 11.6 -7.15 11.65 -7.1 11.7 -7.1 11.7 -7.15 Q11.75 -7.1 11.85 -7.05 L12.0 -7.0 Q12.2 -7.0 12.3 -6.9 L12.35 -6.85 12.4 -6.9 12.4 -7.15 12.5 -7.05 12.6 -7.0 12.6 -6.95 12.65 -6.85 12.75 -6.85 12.85 -6.8 12.9 -6.75 13.0 -6.7 13.1 -6.7 13.1 -6.8 13.1 -6.8 13.15 -6.8 13.2 -6.8 13.25 -6.8 13.35 -6.85 13.4 -6.9 13.5 -6.95 13.5 -6.95 13.6 -7.0 13.6 -6.95 13.65 -6.95 13.7 -6.95 13.7 -6.95 13.65 -7.0 13.65 -7.05 13.55 -7.15 Q13.5 -7.2 13.5 -7.25 L13.5 -7.35 13.45 -7.45 13.45 -7.45 13.5 -7.45 13.6 -7.45 13.7 -7.45 13.75 -7.4 13.8 -7.4 13.8 -7.4 13.85 -7.4 13.95 -7.4 13.95 -7.5 13.95 -7.5 14.05 -7.5 14.0 -7.55 14.0 -7.6 14.05 -7.7 14.15 -7.7 Q14.2 -7.7 14.3 -7.75 L14.4 -7.85 14.35 -7.9 M15.15 -7.6 L15.15 -7.6 15.25 -7.6 15.25 -7.6 15.35 -7.6 15.4 -7.6 15.4 -7.55 15.3 -7.55 15.2 -7.55 Q15.15 -7.55 15.15 -7.6 M14.95 -7.75 L15.1 -7.8 15.2 -7.75 15.35 -7.75 15.5 -7.75 15.45 -7.75 15.4 -7.75 15.3 -7.7 15.25 -7.7 15.15 -7.65 15.05 -7.7 15.05 -7.65 15.0 -7.65 15.0 -7.65 14.95 -7.65 14.85 -7.7 14.9 -7.75 14.95 -7.75 M14.4 -7.45 L14.35 -7.45 14.3 -7.5 14.4 -7.5 14.5 -7.55 14.6 -7.55 14.75 -7.55 Q14.75 -7.5 14.8 -7.5 L14.85 -7.5 14.85 -7.5 14.8 -7.45 14.7 -7.45 14.65 -7.45 14.55 -7.45 14.4 -7.45 M13.2 -9.05 L13.25 -9.05 13.3 -9.0 13.35 -9.0 13.25 -8.9 13.2 -8.9 13.2 -8.95 13.2 -9.05 M13.3 -9.5 L13.35 -9.5 13.45 -9.55 13.45 -9.55 13.6 -9.6 13.55 -9.55 13.5 -9.5 13.5 -9.5 13.45 -9.5 13.35 -9.45 13.25 -9.4 13.2 -9.3 13.2 -9.25 13.15 -9.2 13.1 -9.15 13.1 -9.1 13.0 -9.0 12.95 -8.95 12.9 -8.85 12.85 -8.75 12.8 -8.75 12.75 -8.85 12.75 -8.9 12.7 -9.0 12.7 -9.0 12.75 -9.05 12.8 -9.1 12.9 -9.2 12.9 -9.2 12.95 -9.25 13.0 -9.35 13.0 -9.35 13.1 -9.4 13.15 -9.4 13.25 -9.45 13.3 -9.5 M12.6 -8.85 L12.6 -8.85 12.65 -8.8 12.65 -8.8 12.65 -8.65 12.6 -8.7 12.6 -8.7 12.55 -8.75 12.55 -8.75 12.6 -8.85 M12.55 -9.3 L12.6 -9.3 12.6 -9.25 12.65 -9.25 12.7 -9.25 12.7 -9.15 12.65 -9.1 12.65 -9.0 12.5 -8.9 12.45 -8.85 12.45 -8.8 12.4 -8.7 12.3 -8.6 12.2 -8.5 12.15 -8.45 12.15 -8.55 12.2 -8.65 12.2 -8.75 12.25 -8.9 12.3 -8.9 12.35 -8.95 12.4 -9.05 12.45 -9.15 12.45 -9.15 12.5 -9.25 12.5 -9.3 12.55 -9.3 M13.05 -9.3 L12.95 -9.2 12.8 -9.0 12.8 -8.85 12.85 -8.85 12.9 -8.9 12.95 -9.0 12.95 -9.05 13.0 -9.15 13.05 -9.25 13.05 -9.3 M12.15 -6.6 L12.15 -6.55 12.1 -6.5 12.0 -6.5 11.9 -6.55 11.85 -6.65 11.85 -6.65 11.85 -6.75 11.8 -6.85 11.75 -6.95 11.75 -6.95 11.8 -7.0 12.05 -6.75 12.1 -6.65 12.15 -6.6 M12.45 -6.55 L12.45 -6.55 12.5 -6.5 12.6 -6.45 12.65 -6.4 12.65 -6.35 12.7 -6.35 12.8 -6.25 12.75 -6.2 12.75 -6.2 12.7 -6.15 Q12.65 -6.15 12.65 -6.2 L12.6 -6.2 12.5 -6.2 12.4 -6.35 12.25 -6.5 12.2 -6.6 12.2 -6.7 12.25 -6.7 12.4 -6.6 12.45 -6.55 M13.7 -6.75 L13.75 -6.75 13.75 -6.75 13.8 -6.7 13.75 -6.7 13.75 -6.7 13.7 -6.7 13.7 -6.75 M14.05 -7.1 L14.15 -7.05 14.15 -7.1 14.2 -7.1 14.25 -7.05 14.3 -7.05 14.25 -7.05 14.25 -7.0 14.2 -7.0 14.1 -7.0 14.1 -7.0 Q14.05 -7.05 14.05 -7.05 L14.05 -7.1 M13.9 -7.05 L13.9 -7.05 13.95 -7.0 14.0 -7.0 14.05 -6.95 14.1 -6.9 14.1 -6.9 14.2 -6.85 14.25 -6.85 14.3 -6.85 14.35 -6.9 14.45 -6.85 14.5 -6.8 14.45 -6.8 14.45 -6.6 14.35 -6.55 14.35 -6.6 14.3 -6.65 14.25 -6.7 14.0 -6.85 14.0 -6.9 13.9 -7.0 13.9 -7.05 M15.05 -7.2 L15.05 -7.2 15.0 -7.2 14.9 -7.2 14.85 -7.25 14.85 -7.25 14.9 -7.3 14.95 -7.25 15.05 -7.2 M11.85 -8.8 L11.85 -8.75 11.75 -8.65 11.8 -8.6 11.85 -8.55 Q11.85 -8.5 11.75 -8.45 L11.75 -8.45 11.65 -8.45 11.5 -8.4 11.35 -8.35 11.3 -8.35 11.3 -8.35 11.35 -8.45 11.4 -8.5 11.5 -8.55 11.55 -8.65 11.6 -8.75 11.7 -8.8 11.7 -8.85 11.75 -8.9 11.85 -9.05 11.9 -9.0 11.85 -8.9 11.85 -8.9 11.85 -8.8 M10.3 -6.5 L10.5 -6.35 10.55 -6.3 10.7 -6.2 10.65 -6.2 10.6 -6.2 10.55 -6.2 10.5 -6.25 10.5 -6.25 10.4 -6.3 10.35 -6.35 10.3 -6.5" fill="#b97814" fill-rule="evenodd" stroke="none"/>
    <path d="M14.45 -8.4 Q14.4 -8.35 14.3 -8.35 14.15 -8.35 14.15 -8.4 L14.2 -8.5 14.2 -8.5 14.4 -8.4 14.45 -8.4 M14.35 -7.9 L14.4 -7.85 14.3 -7.75 Q14.2 -7.7 14.15 -7.7 L14.05 -7.7 14.0 -7.6 14.0 -7.55 14.05 -7.5 13.95 -7.5 13.95 -7.5 13.95 -7.4 13.85 -7.4 13.8 -7.4 13.8 -7.4 13.75 -7.4 13.7 -7.45 13.6 -7.45 13.5 -7.45 13.45 -7.45 13.45 -7.45 13.5 -7.35 13.5 -7.25 Q13.5 -7.2 13.55 -7.15 L13.65 -7.05 13.65 -7.0 13.7 -6.95 13.7 -6.95 13.65 -6.95 13.6 -6.95 13.6 -7.0 13.5 -6.95 13.5 -6.95 13.4 -6.9 13.35 -6.85 13.25 -6.8 13.2 -6.8 13.15 -6.8 13.1 -6.8 13.1 -6.8 13.1 -6.7 13.0 -6.7 12.9 -6.75 12.85 -6.8 12.75 -6.85 12.65 -6.85 12.6 -6.95 12.6 -7.0 12.5 -7.05 12.4 -7.15 12.4 -6.9 12.35 -6.85 12.3 -6.9 Q12.2 -7.0 12.0 -7.0 L11.85 -7.05 Q11.75 -7.1 11.7 -7.15 L11.7 -7.1 11.65 -7.1 11.6 -7.15 11.55 -7.15 11.55 -7.15 11.5 -7.15 11.55 -7.0 11.5 -6.95 11.5 -6.75 11.55 -6.6 11.55 -6.55 11.5 -6.5 11.5 -6.6 11.45 -6.7 11.4 -6.7 11.4 -6.7 11.3 -6.8 11.3 -6.85 11.25 -6.9 11.2 -6.9 11.2 -6.9 11.15 -6.95 11.1 -7.05 11.05 -7.1 11.1 -7.15 11.05 -7.25 10.95 -7.35 10.9 -7.45 10.95 -7.45 11.0 -7.5 11.0 -7.55 11.05 -7.55 11.15 -7.65 11.15 -7.75 11.1 -7.8 11.05 -7.85 11.1 -7.9 11.15 -7.9 11.2 -7.9 11.2 -7.9 11.25 -7.9 11.35 -7.9 11.35 -8.0 11.35 -8.1 11.4 -8.15 11.45 -8.1 11.45 -8.1 Q11.45 -8.1 11.45 -8.05 L11.55 -8.0 11.7 -8.05 11.7 -8.05 11.75 -8.0 Q11.75 -7.95 11.8 -7.95 L11.85 -7.9 Q11.9 -7.85 11.95 -7.85 L12.0 -7.85 12.05 -7.9 12.1 -7.85 12.15 -7.9 12.15 -7.95 12.25 -8.0 Q12.2 -7.95 12.25 -7.95 L12.45 -8.05 12.55 -8.15 12.6 -8.2 12.65 -8.25 12.8 -8.4 12.85 -8.45 13.0 -8.55 13.0 -8.5 12.95 -8.45 12.95 -8.4 13.0 -8.35 13.05 -8.4 13.15 -8.45 13.2 -8.4 13.25 -8.4 13.35 -8.4 13.45 -8.4 13.5 -8.35 13.6 -8.3 13.65 -8.3 13.7 -8.25 13.7 -8.25 13.65 -8.2 13.7 -8.15 13.75 -8.15 14.0 -8.05 14.0 -8.05 14.1 -8.0 14.35 -7.9 M13.05 -9.3 L13.05 -9.25 13.0 -9.15 12.95 -9.05 12.95 -9.0 12.9 -8.9 12.85 -8.85 12.8 -8.85 12.8 -9.0 12.95 -9.2 13.05 -9.3" fill="#ffe693" fill-rule="evenodd" stroke="none"/>
  </g>
</svg>
