<?xml version="1.0" encoding="UTF-8" standalone="no"?>
<svg xmlns:xlink="http://www.w3.org/1999/xlink" height="7.8px" width="7.1px" xmlns="http://www.w3.org/2000/svg">
  <g transform="matrix(1.0, 0.0, 0.0, 1.0, -9.9, 11.9)">
    <path d="M13.8 -8.7 L13.9 -8.75 13.95 -8.75 13.95 -8.7 14.0 -8.7 14.1 -8.8 14.25 -8.8 14.25 -8.75 14.35 -8.7 14.4 -8.7 14.4 -8.65 14.55 -8.7 14.65 -8.7 14.8 -8.65 Q14.85 -8.6 14.85 -8.6 L14.95 -8.6 15.0 -8.6 15.15 -8.6 15.25 -8.55 15.3 -8.5 Q15.3 -8.5 15.35 -8.45 L15.4 -8.4 15.35 -8.25 15.4 -8.2 15.45 -8.2 15.4 -8.1 Q15.4 -8.05 15.55 -8.05 L15.6 -8.0 15.65 -7.95 15.8 -8.0 15.85 -7.95 15.95 -7.95 16.05 -7.95 16.1 -7.95 16.15 -7.9 16.2 -7.95 16.25 -7.95 16.3 -7.95 16.35 -7.9 16.3 -7.9 16.3 -7.85 16.35 -7.85 16.4 -7.85 16.4 -7.85 16.45 -7.85 16.4 -7.8 16.4 -7.8 16.35 -7.8 16.3 -7.75 16.25 -7.75 16.2 -7.75 16.1 -7.75 Q16.0 -7.7 16.0 -7.65 L16.1 -7.65 16.2 -7.6 16.2 -7.55 16.25 -7.55 16.3 -7.5 16.35 -7.5 16.85 -7.4 17.0 -7.35 16.35 -7.3 16.25 -7.25 16.15 -7.2 16.1 -7.2 16.05 -7.15 16.0 -7.1 15.9 -7.1 15.8 -7.1 15.75 -7.1 15.75 -7.1 15.7 -7.1 15.65 -7.15 15.6 -7.1 15.55 -7.1 15.7 -6.9 15.65 -6.9 15.65 -6.85 15.7 -6.8 15.7 -6.75 15.6 -6.7 15.55 -6.65 15.55 -6.6 15.45 -6.6 15.4 -6.5 15.4 -6.45 15.4 -6.4 15.4 -6.35 15.4 -6.25 15.4 -6.2 15.4 -6.15 15.3 -6.15 15.2 -6.15 15.1 -6.15 15.05 -6.15 15.0 -6.15 14.95 -6.15 14.9 -6.15 14.85 -6.1 14.8 -6.05 14.8 -6.05 14.85 -6.0 14.85 -5.9 15.05 -5.8 Q15.3 -5.8 15.3 -5.7 L15.2 -5.6 15.05 -5.6 Q15.1 -5.5 15.25 -5.45 L15.35 -5.3 15.3 -5.2 15.25 -5.15 15.3 -5.05 15.3 -5.0 Q15.3 -4.9 15.1 -4.9 L14.85 -4.95 14.75 -4.85 14.6 -4.85 14.6 -4.75 14.75 -4.65 Q14.85 -4.55 14.85 -4.45 14.85 -4.35 14.7 -4.3 14.55 -4.25 14.6 -4.1 L14.55 -4.1 14.55 -4.1 14.05 -4.2 14.0 -4.15 Q13.95 -4.1 13.9 -4.1 L13.55 -4.25 Q13.35 -4.3 13.35 -4.3 L12.85 -4.55 12.9 -4.45 12.9 -4.35 Q12.85 -4.35 12.65 -4.45 L12.65 -4.3 12.4 -4.45 12.3 -4.55 Q12.3 -4.55 12.2 -4.6 L12.2 -4.6 11.9 -4.8 11.9 -4.85 11.7 -4.95 11.65 -4.95 11.6 -4.9 11.6 -4.9 11.5 -5.0 11.4 -5.1 11.25 -5.3 11.1 -5.4 10.9 -5.6 Q10.8 -5.7 10.8 -5.8 L10.8 -5.85 10.75 -5.95 10.55 -6.15 10.6 -6.25 10.55 -6.4 10.5 -6.55 10.4 -6.65 Q10.35 -6.7 10.35 -6.75 L10.35 -6.95 10.4 -7.05 10.4 -7.25 10.35 -7.35 10.35 -7.4 10.35 -7.45 10.3 -7.5 10.4 -7.55 10.4 -7.65 10.4 -7.75 10.4 -7.8 10.4 -7.9 10.4 -8.05 10.35 -8.1 10.4 -8.2 10.4 -8.25 10.35 -8.3 Q10.25 -8.4 10.15 -8.4 L10.0 -8.5 9.9 -8.6 10.0 -8.75 10.05 -8.8 10.05 -8.85 Q10.15 -8.95 10.2 -8.95 L10.4 -9.0 10.4 -9.05 10.25 -9.1 Q10.1 -9.15 10.1 -9.2 10.1 -9.25 10.2 -9.35 L10.4 -9.45 10.6 -9.55 10.65 -9.75 10.65 -9.9 10.7 -9.9 10.8 -10.1 10.9 -10.0 11.0 -9.9 10.95 -9.85 10.9 -9.8 11.0 -9.65 11.15 -9.8 11.2 -10.05 11.25 -10.05 Q11.3 -10.0 11.35 -10.0 L11.35 -10.0 11.4 -10.15 11.45 -10.2 11.45 -10.25 11.5 -10.25 11.5 -10.25 11.55 -10.15 11.8 -10.6 11.9 -10.85 Q11.9 -10.95 12.0 -11.05 12.1 -11.15 12.05 -11.3 L12.05 -11.5 Q12.05 -11.6 12.1 -11.65 L12.2 -11.9 12.25 -11.9 12.25 -11.9 12.3 -11.9 Q12.25 -11.8 12.3 -11.6 L12.45 -11.3 12.45 -11.05 12.4 -11.0 Q12.3 -10.9 12.25 -10.9 12.1 -10.85 12.0 -10.75 11.9 -10.65 11.9 -10.55 L11.9 -10.2 11.8 -10.0 11.8 -9.95 11.75 -9.7 11.7 -9.6 11.6 -9.55 Q11.45 -9.35 11.45 -9.15 L11.45 -9.1 Q11.45 -8.95 11.5 -8.8 L11.5 -8.75 11.45 -8.65 11.35 -8.5 11.2 -8.35 Q11.15 -8.35 11.15 -8.25 11.15 -7.95 11.4 -7.95 L11.5 -7.9 11.55 -7.85 11.65 -7.8 11.7 -7.75 11.8 -7.8 11.85 -7.8 11.95 -7.75 12.0 -7.65 11.95 -7.65 11.9 -7.6 11.9 -7.5 11.85 -7.4 11.7 -7.4 Q11.75 -7.25 11.95 -7.1 L12.0 -7.1 12.0 -7.0 12.05 -6.95 12.1 -6.85 Q12.1 -6.8 11.95 -6.75 L11.9 -6.7 11.9 -6.65 11.8 -6.65 11.7 -6.65 11.65 -6.6 Q11.6 -6.6 11.6 -6.4 L11.6 -6.25 11.65 -6.25 11.65 -6.15 Q11.7 -6.1 11.85 -6.1 L12.0 -6.05 12.05 -5.95 12.0 -5.85 11.95 -5.65 12.05 -5.4 12.1 -5.2 12.1 -5.15 12.05 -5.1 12.05 -5.05 12.2 -4.95 Q12.3 -4.8 12.4 -4.8 L12.45 -5.1 Q12.6 -5.05 12.65 -4.95 L12.65 -4.9 Q12.75 -4.75 12.9 -4.6 13.05 -4.5 13.2 -4.55 L13.35 -4.45 Q13.5 -4.35 13.6 -4.35 L13.65 -4.35 13.7 -4.4 13.7 -4.45 13.55 -4.6 13.45 -4.8 13.4 -4.9 13.35 -4.9 13.2 -5.0 13.2 -5.05 13.1 -5.15 12.95 -5.25 12.9 -5.3 12.8 -5.4 12.75 -5.45 12.7 -5.5 12.7 -5.75 12.65 -5.85 12.7 -5.9 12.85 -5.95 12.9 -5.95 13.0 -5.9 13.0 -5.8 12.9 -5.7 12.8 -5.6 12.8 -5.55 12.8 -5.5 Q12.8 -5.4 12.9 -5.3 13.05 -5.15 13.3 -5.15 L13.3 -5.15 Q13.45 -5.15 13.45 -5.35 L13.35 -5.5 13.35 -5.55 13.25 -5.7 13.2 -5.85 13.25 -5.85 13.35 -5.85 13.4 -5.9 13.45 -5.95 13.5 -5.95 13.6 -6.0 13.65 -6.1 13.65 -5.95 13.65 -5.9 13.55 -5.75 13.5 -5.6 13.5 -5.55 Q13.6 -5.5 13.7 -5.45 L13.8 -5.4 13.8 -5.4 13.8 -5.35 13.85 -5.3 13.7 -5.3 13.7 -5.3 Q13.75 -5.2 13.7 -5.15 L13.6 -5.0 13.6 -4.8 13.65 -4.65 13.7 -4.6 Q13.75 -4.55 13.85 -4.5 L14.1 -4.4 14.15 -4.4 14.5 -4.3 Q14.55 -4.3 14.65 -4.35 14.7 -4.45 14.7 -4.55 L14.6 -4.6 Q14.5 -4.7 14.5 -4.75 14.5 -4.8 14.55 -4.8 L14.6 -4.85 14.65 -4.85 14.6 -5.05 14.55 -5.1 14.35 -5.15 14.2 -5.15 14.05 -5.2 14.0 -5.2 14.0 -5.25 13.95 -5.25 14.0 -5.25 14.1 -5.25 Q14.2 -5.25 14.2 -5.3 14.2 -5.4 14.3 -5.45 L14.4 -5.35 14.55 -5.25 14.6 -5.2 14.65 -5.15 14.9 -5.15 Q15.05 -5.15 15.1 -5.2 L15.15 -5.3 Q15.15 -5.4 14.8 -5.65 L14.8 -5.7 Q15.05 -5.7 15.05 -5.75 L15.05 -5.8 14.85 -5.8 14.8 -5.8 14.65 -5.85 Q14.65 -5.85 14.65 -5.95 14.6 -6.0 14.55 -6.0 L14.55 -6.0 14.35 -5.95 Q14.3 -6.0 14.3 -6.15 L14.2 -6.2 Q14.1 -6.25 14.1 -6.3 L14.1 -6.3 14.35 -6.25 14.35 -6.25 14.4 -6.25 14.45 -6.25 14.55 -6.25 14.65 -6.3 14.65 -6.3 14.6 -6.35 14.65 -6.45 14.65 -6.45 14.6 -6.55 14.55 -6.6 14.6 -6.7 14.65 -6.7 14.65 -6.7 14.7 -6.7 Q14.75 -6.65 14.85 -6.65 L15.0 -6.65 15.1 -6.6 15.1 -6.65 15.15 -6.7 15.25 -6.8 15.2 -6.8 15.2 -6.85 15.25 -6.95 15.3 -7.0 15.25 -7.1 Q15.15 -7.15 15.15 -7.2 L15.25 -7.3 15.4 -7.35 15.65 -7.25 15.75 -7.25 15.8 -7.3 15.85 -7.3 15.9 -7.25 16.0 -7.25 16.05 -7.25 16.1 -7.3 16.05 -7.4 15.95 -7.5 15.95 -7.5 15.9 -7.55 15.8 -7.6 15.75 -7.6 15.75 -7.65 15.65 -7.75 15.55 -7.8 15.5 -7.8 15.4 -7.75 15.3 -7.8 15.3 -7.9 15.25 -7.95 15.1 -8.0 15.15 -8.1 15.15 -8.15 15.05 -8.3 14.95 -8.4 14.85 -8.35 14.75 -8.35 14.75 -8.35 Q14.7 -8.35 14.65 -8.4 L14.5 -8.45 14.4 -8.45 14.3 -8.35 14.3 -8.25 14.25 -8.2 Q14.25 -8.15 14.35 -8.1 L14.5 -8.0 14.45 -8.0 14.45 -8.0 Q14.4 -8.0 14.35 -8.0 L14.3 -8.05 14.25 -8.0 14.25 -8.0 14.2 -7.95 14.25 -7.9 14.3 -7.85 14.3 -7.85 14.35 -7.85 14.4 -7.9 14.45 -7.85 14.5 -7.85 14.5 -7.85 Q14.45 -7.8 14.4 -7.8 L14.4 -7.75 14.45 -7.7 14.5 -7.7 14.5 -7.7 14.5 -7.65 14.4 -7.65 14.35 -7.65 14.3 -7.7 14.25 -7.65 14.2 -7.65 Q14.15 -7.65 14.1 -7.7 L14.0 -7.75 14.0 -7.75 Q13.95 -7.75 13.95 -7.8 L13.9 -7.9 13.85 -7.9 13.75 -7.8 13.75 -7.75 13.75 -7.65 Q13.75 -7.6 13.9 -7.6 L13.8 -7.55 13.75 -7.55 Q13.75 -7.55 13.7 -7.6 L13.7 -7.65 13.65 -7.65 13.6 -7.65 13.6 -7.75 Q13.6 -7.75 13.5 -7.75 L13.4 -7.7 13.35 -7.65 13.35 -7.6 13.4 -7.5 13.4 -7.5 13.35 -7.5 13.3 -7.5 13.25 -7.55 13.25 -7.6 13.2 -7.65 13.1 -7.65 13.1 -7.7 Q13.1 -7.75 13.2 -7.75 13.35 -7.75 13.35 -7.8 13.35 -7.85 13.4 -7.95 L13.4 -7.95 13.55 -8.0 13.6 -8.0 13.65 -7.95 13.65 -7.95 13.75 -8.0 13.8 -8.0 13.75 -8.1 13.75 -8.2 13.7 -8.25 13.65 -8.25 13.55 -8.25 13.55 -8.3 Q13.5 -8.35 13.45 -8.35 L13.3 -8.3 13.15 -8.2 13.1 -8.25 13.0 -8.25 12.95 -8.2 12.9 -8.15 12.85 -8.1 12.75 -8.05 12.75 -7.95 12.7 -7.9 12.65 -7.9 12.65 -7.95 12.6 -7.9 12.6 -7.9 12.55 -7.9 12.5 -7.85 12.55 -7.75 12.65 -7.75 12.65 -7.65 12.7 -7.6 12.55 -7.65 12.5 -7.7 12.45 -7.65 12.4 -7.6 12.4 -7.65 12.45 -7.7 12.45 -7.8 12.4 -7.85 12.5 -7.95 12.5 -8.0 12.55 -8.05 12.65 -8.05 12.8 -8.1 12.8 -8.15 12.85 -8.2 12.85 -8.25 12.9 -8.25 12.95 -8.3 13.0 -8.3 13.05 -8.35 13.05 -8.4 13.0 -8.45 12.85 -8.5 12.85 -8.5 12.85 -8.55 12.9 -8.6 12.9 -8.65 Q12.9 -8.6 12.9 -8.65 L12.9 -8.6 12.95 -8.6 12.95 -8.6 Q12.95 -8.6 13.0 -8.6 L13.05 -8.6 13.1 -8.6 13.2 -8.6 13.3 -8.55 13.35 -8.6 13.45 -8.6 13.5 -8.55 13.6 -8.5 13.7 -8.5 13.75 -8.55 13.8 -8.6 13.8 -8.7 M12.6 -10.6 L12.65 -10.6 12.7 -10.75 12.8 -10.85 12.8 -10.8 12.85 -10.75 12.9 -10.75 12.9 -10.75 12.9 -10.75 13.0 -10.65 13.05 -10.55 13.05 -10.5 12.95 -10.2 12.95 -10.6 12.85 -10.7 12.8 -10.55 12.75 -10.45 12.65 -10.3 12.6 -10.3 12.55 -10.3 12.5 -10.3 12.45 -10.25 12.4 -10.25 12.35 -10.25 12.4 -10.3 12.45 -10.35 12.5 -10.4 12.6 -10.6 M12.9 -10.1 L12.9 -10.1 Q12.95 -10.05 13.05 -10.05 L13.05 -10.05 13.1 -10.1 13.15 -10.25 13.2 -10.35 13.35 -10.45 Q13.35 -10.35 13.4 -10.3 L13.55 -10.25 13.6 -10.1 13.6 -9.95 13.7 -10.0 13.8 -10.05 13.8 -10.05 13.8 -9.7 13.8 -9.6 13.75 -9.55 13.75 -9.6 13.6 -9.65 13.55 -9.65 13.5 -9.6 13.5 -9.65 13.55 -9.75 13.55 -9.8 13.6 -9.85 13.6 -9.9 Q13.6 -10.1 13.4 -10.1 L13.25 -10.05 13.2 -10.0 13.2 -10.0 13.2 -9.95 Q13.2 -9.9 13.1 -9.9 13.0 -9.9 13.0 -9.8 L12.95 -9.8 12.95 -9.55 12.85 -9.4 12.85 -9.4 12.8 -9.3 12.8 -9.3 12.75 -9.3 12.65 -9.3 12.55 -9.3 12.55 -9.3 12.5 -9.3 12.4 -9.25 12.3 -9.15 12.25 -9.2 12.2 -9.2 12.1 -9.15 12.0 -9.05 Q12.0 -9.0 12.05 -8.9 L12.15 -8.85 12.1 -8.75 12.0 -8.7 12.05 -8.6 12.1 -8.55 Q12.1 -8.4 11.95 -8.2 11.9 -8.25 11.85 -8.25 L11.8 -8.3 11.8 -8.3 11.75 -8.25 11.7 -8.3 11.65 -8.35 11.65 -8.4 11.6 -8.45 11.65 -8.45 11.7 -8.45 Q11.8 -8.45 11.8 -8.6 L11.85 -8.85 Q11.9 -8.95 12.05 -9.25 L12.05 -9.3 Q12.05 -9.4 12.0 -9.45 11.9 -9.5 11.85 -9.6 L11.9 -9.6 Q12.05 -9.6 12.05 -9.85 12.0 -10.1 12.15 -10.15 L12.2 -10.15 12.2 -10.15 12.15 -10.15 Q12.15 -10.05 12.15 -10.0 12.15 -9.9 12.25 -9.8 L12.3 -9.75 12.35 -9.65 12.3 -9.45 Q12.3 -9.4 12.35 -9.4 L12.45 -9.35 Q12.6 -9.35 12.65 -9.5 L12.7 -9.7 12.8 -9.9 12.85 -9.9 12.9 -10.1 M13.75 -9.5 L13.85 -9.55 13.95 -9.6 14.0 -9.6 14.05 -9.6 14.15 -9.65 14.2 -9.6 14.2 -9.5 14.1 -9.35 14.1 -9.3 13.9 -9.45 13.85 -9.4 13.8 -9.4 13.75 -9.4 13.7 -9.35 13.75 -9.45 13.75 -9.5 M14.65 -7.5 L14.65 -7.5 14.7 -7.6 14.75 -7.7 14.75 -7.75 14.8 -7.7 14.85 -7.7 14.8 -7.6 14.75 -7.55 14.65 -7.5 M13.5 -9.2 L13.4 -9.15 13.35 -9.1 13.35 -9.1 13.3 -9.05 13.25 -9.0 13.2 -9.0 13.2 -9.05 13.1 -9.0 13.0 -8.95 12.9 -9.0 12.9 -9.0 12.85 -9.0 12.8 -8.95 Q12.75 -8.95 12.75 -9.0 L12.8 -9.0 12.8 -9.05 12.75 -9.1 12.8 -9.15 12.8 -9.15 12.85 -9.25 12.85 -9.25 12.9 -9.25 13.15 -9.25 13.55 -9.3 13.7 -9.35 13.6 -9.2 13.5 -9.2 M14.0 -7.15 L14.05 -7.15 14.05 -7.15 14.1 -7.1 14.15 -7.05 14.2 -7.05 14.25 -7.05 14.4 -7.1 14.5 -7.05 14.55 -7.0 14.55 -7.0 14.35 -7.0 14.3 -7.0 14.2 -6.95 14.15 -6.9 14.15 -6.8 14.2 -6.75 14.2 -6.7 14.25 -6.65 14.2 -6.65 14.15 -6.6 14.1 -6.6 14.0 -6.7 13.9 -6.75 Q13.85 -6.8 13.85 -6.85 L13.95 -6.95 13.95 -6.95 14.0 -7.1 14.0 -7.15 M13.3 -6.85 L13.2 -6.85 13.15 -6.85 13.05 -6.85 13.05 -6.85 13.0 -6.9 13.0 -6.95 13.05 -6.9 13.15 -6.95 13.15 -6.95 13.25 -6.95 13.3 -6.95 Q13.3 -6.9 13.35 -6.9 L13.35 -6.9 13.3 -6.85 M13.8 -6.35 L13.7 -6.3 Q13.6 -6.25 13.6 -6.15 L13.65 -6.1 13.6 -6.15 13.6 -6.2 13.7 -6.35 13.85 -6.45 13.95 -6.4 13.85 -6.4 13.8 -6.35 M12.55 -6.7 L12.55 -6.7 12.6 -6.6 12.6 -6.55 12.55 -6.45 Q12.45 -6.35 12.35 -6.35 L12.3 -6.35 12.25 -6.35 12.2 -6.45 12.35 -6.5 12.45 -6.55 Q12.55 -6.65 12.55 -6.7 M11.0 -7.55 L10.95 -7.55 10.9 -7.55 10.9 -7.45 10.95 -7.45 11.05 -7.5 11.05 -7.55 11.0 -7.55 11.0 -7.55 M11.6 -7.75 L11.5 -7.75 11.45 -7.8 11.45 -7.8 11.3 -7.75 11.25 -7.65 11.25 -7.6 11.3 -7.6 11.35 -7.55 11.4 -7.55 11.5 -7.55 11.45 -7.65 11.55 -7.75 11.6 -7.75 M11.3 -6.25 L11.3 -6.35 11.25 -6.45 11.25 -6.5 11.2 -6.5 11.15 -6.4 11.1 -6.35 11.05 -6.25 11.0 -6.25 10.95 -6.25 10.9 -6.3 10.9 -6.25 10.85 -6.2 10.85 -6.15 10.95 -6.05 11.05 -6.0 Q11.3 -6.15 11.3 -6.25 M11.6 -7.2 L11.6 -7.25 11.55 -7.2 11.3 -7.1 11.3 -7.15 11.25 -7.15 11.2 -7.15 Q11.2 -7.15 11.15 -7.1 L11.1 -7.05 Q11.1 -7.0 11.2 -6.95 L11.35 -6.9 Q11.45 -6.9 11.55 -7.0 11.6 -7.1 11.6 -7.2 M10.7 -6.85 L10.65 -6.8 10.6 -6.75 10.6 -6.75 10.55 -6.7 10.55 -6.7 10.6 -6.7 10.7 -6.7 10.7 -6.7 10.8 -6.75 10.8 -6.75 10.75 -6.85 10.7 -6.85" fill="#722c28" fill-rule="evenodd" stroke="none"/>
    <path d="M12.45 -11.05 L12.45 -11.0 Q12.5 -10.85 12.55 -10.8 L12.55 -10.8 12.6 -10.75 12.6 -10.6 12.5 -10.4 12.45 -10.35 12.4 -10.3 12.35 -10.25 12.4 -10.25 12.45 -10.25 12.5 -10.3 12.55 -10.3 12.6 -10.3 12.6 -10.3 Q12.6 -10.25 12.6 -10.1 L12.55 -10.05 Q12.55 -10.0 12.5 -9.95 L12.4 -9.85 12.4 -9.8 12.45 -9.8 Q12.6 -9.85 12.6 -9.9 L12.8 -10.4 12.8 -10.45 12.75 -10.45 12.8 -10.55 12.85 -10.7 12.95 -10.6 12.95 -10.2 12.9 -10.15 12.9 -10.1 12.85 -9.9 12.8 -9.9 12.7 -9.7 12.65 -9.5 Q12.6 -9.35 12.45 -9.35 L12.35 -9.4 Q12.3 -9.4 12.3 -9.45 L12.35 -9.65 12.3 -9.75 12.25 -9.8 Q12.15 -9.9 12.15 -10.0 12.15 -10.05 12.15 -10.15 12.0 -10.1 12.05 -9.85 12.05 -9.6 11.9 -9.6 L11.85 -9.6 Q11.9 -9.5 12.0 -9.45 12.05 -9.4 12.05 -9.3 L12.05 -9.25 Q11.9 -8.95 11.85 -8.85 L11.8 -8.6 Q11.8 -8.45 11.7 -8.45 L11.65 -8.45 11.6 -8.45 11.65 -8.4 11.65 -8.35 11.7 -8.3 11.75 -8.25 11.8 -8.3 11.8 -8.3 11.85 -8.25 Q11.9 -8.25 11.95 -8.2 12.1 -8.4 12.1 -8.55 L12.05 -8.6 12.0 -8.7 12.1 -8.75 12.15 -8.85 12.05 -8.9 Q12.0 -9.0 12.0 -9.05 L12.1 -9.15 12.2 -9.2 12.25 -9.2 12.3 -9.15 12.4 -9.25 12.5 -9.3 12.55 -9.3 12.55 -9.3 12.65 -9.3 12.75 -9.3 12.8 -9.3 12.8 -9.3 12.85 -9.4 12.85 -9.4 12.95 -9.55 12.95 -9.8 13.0 -9.8 Q13.0 -9.9 13.1 -9.9 13.2 -9.9 13.2 -9.95 L13.2 -10.0 13.2 -10.0 13.25 -10.05 13.4 -10.1 Q13.6 -10.1 13.6 -9.9 L13.6 -9.85 13.55 -9.8 13.55 -9.9 13.45 -9.9 Q13.25 -9.9 13.2 -9.7 L13.2 -9.65 13.1 -9.45 13.1 -9.45 Q13.2 -9.4 13.4 -9.4 13.5 -9.4 13.6 -9.45 L13.65 -9.5 Q13.55 -9.5 13.55 -9.65 L13.6 -9.65 13.75 -9.6 13.75 -9.55 13.75 -9.5 13.75 -9.45 13.7 -9.35 13.75 -9.4 13.8 -9.4 13.85 -9.4 13.9 -9.45 14.1 -9.3 14.0 -9.2 13.95 -9.25 13.85 -9.3 Q13.8 -9.3 13.75 -9.3 L13.75 -9.3 13.7 -9.25 13.6 -9.2 13.6 -9.15 13.6 -9.1 13.55 -9.05 13.5 -9.05 13.6 -9.0 13.65 -8.95 13.7 -8.95 13.65 -8.9 13.65 -8.85 13.6 -8.75 13.55 -8.75 13.55 -8.7 13.6 -8.65 13.7 -8.75 13.7 -8.7 13.75 -8.65 13.75 -8.65 Q13.8 -8.65 13.8 -8.7 L13.8 -8.6 13.75 -8.55 13.7 -8.5 13.6 -8.5 13.5 -8.55 13.45 -8.6 13.35 -8.6 13.3 -8.55 13.2 -8.6 13.1 -8.6 13.05 -8.6 13.0 -8.6 Q12.95 -8.6 12.95 -8.6 L12.95 -8.6 12.9 -8.6 12.9 -8.65 Q12.9 -8.6 12.9 -8.65 L12.9 -8.6 12.85 -8.55 12.85 -8.5 12.85 -8.5 13.0 -8.45 13.05 -8.4 13.05 -8.35 13.0 -8.3 12.95 -8.3 12.9 -8.25 12.85 -8.25 12.85 -8.2 12.8 -8.15 12.8 -8.1 12.65 -8.05 12.55 -8.05 12.5 -8.0 12.5 -7.95 12.4 -7.85 12.45 -7.8 12.45 -7.7 12.4 -7.65 12.4 -7.6 12.45 -7.65 12.5 -7.7 12.55 -7.65 12.7 -7.6 12.65 -7.65 12.65 -7.75 12.55 -7.75 12.5 -7.85 12.55 -7.9 12.6 -7.9 12.6 -7.9 12.65 -7.95 12.65 -7.9 12.7 -7.9 12.75 -7.95 12.75 -8.05 12.85 -8.1 12.9 -8.15 12.95 -8.2 13.0 -8.25 13.1 -8.25 13.15 -8.2 13.3 -8.3 13.45 -8.35 Q13.5 -8.35 13.55 -8.3 L13.55 -8.25 13.65 -8.25 13.7 -8.25 13.75 -8.2 13.75 -8.1 13.8 -8.0 13.75 -8.0 13.65 -7.95 13.65 -7.95 13.6 -8.0 13.55 -8.0 13.4 -7.95 13.4 -7.95 Q13.35 -7.85 13.35 -7.8 13.35 -7.75 13.2 -7.75 13.1 -7.75 13.1 -7.7 L13.1 -7.65 13.2 -7.65 13.25 -7.6 13.25 -7.55 13.3 -7.5 13.35 -7.5 13.4 -7.5 13.4 -7.5 13.35 -7.6 13.35 -7.65 13.4 -7.7 13.5 -7.75 Q13.6 -7.75 13.6 -7.75 L13.6 -7.65 13.65 -7.65 13.7 -7.65 13.7 -7.6 Q13.75 -7.55 13.75 -7.55 L13.8 -7.55 13.9 -7.6 Q13.75 -7.6 13.75 -7.65 L13.75 -7.75 13.75 -7.8 13.85 -7.9 13.9 -7.9 13.95 -7.8 Q13.95 -7.75 14.0 -7.75 L14.0 -7.75 14.1 -7.7 Q14.15 -7.65 14.2 -7.65 L14.25 -7.65 14.3 -7.7 14.35 -7.65 14.4 -7.65 14.5 -7.65 14.5 -7.7 14.5 -7.7 14.45 -7.7 14.4 -7.75 14.4 -7.8 Q14.45 -7.8 14.5 -7.85 L14.5 -7.85 14.45 -7.85 14.4 -7.9 14.35 -7.85 14.3 -7.85 14.3 -7.85 14.25 -7.9 14.2 -7.95 14.25 -8.0 14.25 -8.0 14.3 -8.05 14.35 -8.0 Q14.4 -8.0 14.45 -8.0 L14.45 -8.0 14.5 -8.0 14.35 -8.1 Q14.25 -8.15 14.25 -8.2 L14.3 -8.25 14.3 -8.35 14.4 -8.45 14.5 -8.45 14.65 -8.4 Q14.7 -8.35 14.75 -8.35 L14.75 -8.35 14.85 -8.35 14.95 -8.4 15.05 -8.3 15.15 -8.15 15.15 -8.1 15.1 -8.0 15.25 -7.95 15.3 -7.9 15.3 -7.8 15.4 -7.75 15.5 -7.8 15.55 -7.8 15.65 -7.75 15.75 -7.65 15.75 -7.6 15.8 -7.6 15.9 -7.55 15.95 -7.5 15.95 -7.5 16.05 -7.4 16.1 -7.3 16.05 -7.25 16.0 -7.25 15.9 -7.25 15.85 -7.3 15.8 -7.3 15.75 -7.25 15.65 -7.25 15.4 -7.35 15.25 -7.3 15.15 -7.2 Q15.15 -7.15 15.25 -7.1 L15.3 -7.0 15.25 -6.95 15.2 -6.85 15.2 -6.8 15.25 -6.8 15.15 -6.7 15.1 -6.65 15.1 -6.6 15.0 -6.65 14.85 -6.65 Q14.75 -6.65 14.7 -6.7 L14.65 -6.7 14.65 -6.7 14.6 -6.7 14.55 -6.6 14.6 -6.55 14.65 -6.45 14.65 -6.45 14.6 -6.35 14.65 -6.3 14.65 -6.3 14.55 -6.25 14.45 -6.25 14.4 -6.25 14.35 -6.25 14.35 -6.25 14.1 -6.3 14.1 -6.3 Q14.1 -6.25 14.2 -6.2 L14.3 -6.15 Q14.3 -6.0 14.35 -5.95 L14.55 -6.0 14.55 -6.0 Q14.6 -6.0 14.65 -5.95 14.65 -5.85 14.65 -5.85 L14.8 -5.8 14.85 -5.8 15.05 -5.8 15.05 -5.75 Q15.05 -5.7 14.8 -5.7 L14.8 -5.65 Q15.15 -5.4 15.15 -5.3 L15.1 -5.2 Q15.05 -5.15 14.9 -5.15 L14.65 -5.15 14.6 -5.2 14.55 -5.25 14.4 -5.35 14.3 -5.45 Q14.2 -5.4 14.2 -5.3 14.2 -5.25 14.1 -5.25 L14.0 -5.25 13.95 -5.25 14.0 -5.25 14.0 -5.2 14.05 -5.2 14.2 -5.15 14.35 -5.15 14.55 -5.1 14.6 -5.05 14.65 -4.85 14.6 -4.85 14.55 -4.8 Q14.5 -4.8 14.5 -4.75 14.5 -4.7 14.6 -4.6 L14.7 -4.55 Q14.7 -4.45 14.65 -4.35 14.55 -4.3 14.5 -4.3 L14.15 -4.4 14.1 -4.4 13.85 -4.5 Q13.75 -4.55 13.7 -4.6 L13.65 -4.65 13.6 -4.8 13.6 -5.0 13.7 -5.15 Q13.75 -5.2 13.7 -5.3 L13.7 -5.3 13.85 -5.3 13.8 -5.35 13.8 -5.4 13.8 -5.4 13.7 -5.45 Q13.6 -5.5 13.5 -5.55 L13.5 -5.6 13.55 -5.75 13.65 -5.9 13.65 -5.95 13.65 -6.1 13.6 -6.0 13.5 -5.95 13.45 -5.95 13.4 -5.9 13.35 -5.85 13.25 -5.85 13.2 -5.85 13.25 -5.7 13.35 -5.55 13.35 -5.5 13.45 -5.35 Q13.45 -5.15 13.3 -5.15 L13.3 -5.15 Q13.05 -5.15 12.9 -5.3 12.8 -5.4 12.8 -5.5 L12.8 -5.55 12.8 -5.6 12.9 -5.7 13.0 -5.8 13.0 -5.9 12.9 -5.95 12.85 -5.95 12.7 -5.9 12.65 -5.85 12.7 -5.75 12.7 -5.5 12.75 -5.45 12.8 -5.4 12.65 -5.45 12.65 -5.45 12.55 -5.6 12.5 -5.65 12.5 -5.55 12.5 -5.3 Q12.5 -5.25 12.6 -5.1 L12.7 -5.05 Q12.9 -4.8 13.1 -4.8 L13.2 -4.8 13.2 -4.8 13.05 -4.95 13.0 -5.05 13.0 -5.15 12.95 -5.25 13.1 -5.15 13.2 -5.05 13.2 -5.0 13.35 -4.9 13.4 -4.9 13.45 -4.8 13.55 -4.6 13.7 -4.45 13.7 -4.4 13.65 -4.35 13.6 -4.35 Q13.5 -4.35 13.35 -4.45 L13.2 -4.55 Q13.05 -4.5 12.9 -4.6 12.75 -4.75 12.65 -4.9 L12.65 -4.95 Q12.6 -5.05 12.45 -5.1 L12.4 -4.8 Q12.3 -4.8 12.2 -4.95 L12.05 -5.05 12.05 -5.1 12.1 -5.15 12.1 -5.2 12.05 -5.4 11.95 -5.65 12.0 -5.85 12.05 -5.95 12.0 -6.05 11.85 -6.1 Q11.7 -6.1 11.65 -6.15 L11.65 -6.25 11.6 -6.25 11.6 -6.4 Q11.6 -6.6 11.65 -6.6 L11.7 -6.65 11.8 -6.65 11.9 -6.65 11.9 -6.7 11.95 -6.75 Q12.1 -6.8 12.1 -6.85 L12.05 -6.95 12.0 -7.0 12.0 -7.1 11.95 -7.1 Q11.75 -7.25 11.7 -7.4 L11.85 -7.4 11.9 -7.5 11.9 -7.6 11.95 -7.65 12.0 -7.65 11.95 -7.75 11.85 -7.8 11.8 -7.8 11.7 -7.75 11.65 -7.8 11.55 -7.85 11.5 -7.9 11.4 -7.95 Q11.15 -7.95 11.15 -8.25 11.15 -8.35 11.2 -8.35 L11.35 -8.5 11.45 -8.65 11.5 -8.75 11.5 -8.8 Q11.45 -8.95 11.45 -9.1 L11.45 -9.15 Q11.45 -9.35 11.6 -9.55 L11.7 -9.6 11.75 -9.7 11.8 -9.95 11.8 -10.0 11.9 -10.2 11.9 -10.55 Q11.9 -10.65 12.0 -10.75 12.1 -10.85 12.25 -10.9 12.3 -10.9 12.4 -11.0 L12.45 -11.05 M12.15 -10.15 Q12.25 -10.15 12.25 -10.25 L12.25 -10.4 12.15 -10.4 12.05 -10.3 12.05 -10.2 Q12.1 -10.15 12.15 -10.15 M14.75 -8.25 L14.7 -8.25 14.6 -8.2 Q14.55 -8.2 14.55 -8.25 L14.45 -8.35 Q14.35 -8.3 14.35 -8.25 L14.55 -8.05 Q14.55 -8.0 14.65 -8.0 L14.7 -7.95 14.8 -7.9 14.9 -8.0 14.85 -8.1 Q14.9 -8.2 14.95 -8.2 L14.95 -8.2 14.75 -8.25 14.75 -8.25 M14.25 -7.45 L14.25 -7.4 14.3 -7.35 14.3 -7.35 14.35 -7.35 Q14.45 -7.35 14.45 -7.35 L14.5 -7.4 14.5 -7.45 14.4 -7.4 14.35 -7.45 14.25 -7.45 M14.65 -7.5 L14.75 -7.55 14.8 -7.6 14.85 -7.7 14.8 -7.7 14.75 -7.75 14.75 -7.7 14.7 -7.6 14.65 -7.5 14.65 -7.5 M14.8 -7.5 L14.8 -7.45 14.75 -7.4 Q14.7 -7.35 14.7 -7.25 L14.65 -7.1 14.6 -7.1 14.55 -7.1 14.55 -7.1 14.65 -7.05 14.65 -7.05 14.7 -7.05 14.75 -6.95 14.7 -6.85 14.65 -6.85 14.65 -6.85 14.6 -6.85 14.55 -6.85 14.55 -6.8 14.6 -6.8 14.65 -6.75 14.65 -6.75 14.75 -6.75 14.8 -6.7 Q14.9 -6.7 15.0 -6.8 L15.05 -7.0 15.15 -7.25 15.1 -7.35 15.05 -7.4 15.05 -7.45 14.95 -7.55 14.9 -7.55 14.85 -7.55 14.8 -7.5 14.8 -7.5 M15.35 -7.6 L15.3 -7.6 15.3 -7.6 15.25 -7.65 15.3 -7.6 15.3 -7.6 15.35 -7.55 15.3 -7.5 15.35 -7.4 15.45 -7.35 15.6 -7.45 15.6 -7.6 15.45 -7.6 15.35 -7.6 M13.5 -9.2 L13.6 -9.2 13.7 -9.35 13.55 -9.3 13.15 -9.25 12.9 -9.25 12.85 -9.25 12.85 -9.25 12.8 -9.15 12.8 -9.15 12.75 -9.1 12.8 -9.05 12.8 -9.0 12.75 -9.0 Q12.75 -8.95 12.8 -8.95 L12.85 -9.0 12.9 -9.0 12.9 -9.0 13.0 -8.95 13.1 -9.0 13.2 -9.05 13.2 -9.0 13.25 -9.0 13.3 -9.05 13.35 -9.1 13.35 -9.1 13.4 -9.15 13.5 -9.2 M13.2 -8.95 L13.15 -8.9 13.05 -8.85 13.1 -8.8 13.1 -8.8 Q13.15 -8.75 13.2 -8.75 L13.2 -8.75 13.3 -8.8 13.4 -8.85 13.35 -8.9 13.2 -8.95 M12.65 -9.05 L12.7 -9.15 12.65 -9.2 12.6 -9.2 Q12.5 -9.2 12.4 -9.1 L12.2 -8.95 12.35 -8.85 12.4 -8.8 12.45 -8.75 12.6 -8.8 12.75 -8.8 12.85 -8.8 12.85 -8.85 Q12.85 -8.9 12.75 -8.95 12.6 -8.95 12.6 -9.0 L12.65 -9.05 M12.35 -8.7 L12.25 -8.65 12.2 -8.55 12.2 -8.5 12.25 -8.45 12.25 -8.35 12.4 -8.4 12.45 -8.45 12.5 -8.5 12.5 -8.55 12.6 -8.6 12.65 -8.65 12.6 -8.65 12.6 -8.65 12.45 -8.7 12.35 -8.7 M12.75 -8.3 L12.65 -8.35 12.55 -8.35 12.55 -8.2 12.55 -8.2 Q12.65 -8.2 12.75 -8.25 L12.75 -8.3 M13.05 -8.05 L13.0 -8.0 13.0 -8.0 Q13.0 -7.95 13.1 -7.95 L13.15 -7.95 13.2 -8.0 13.25 -8.0 13.3 -8.0 Q13.3 -8.1 13.1 -8.2 L13.05 -8.1 13.05 -8.05 M12.2 -8.2 L12.05 -8.2 Q12.0 -8.15 12.0 -8.05 L11.95 -8.05 11.95 -8.05 Q11.9 -8.05 11.85 -8.05 L11.85 -8.1 11.7 -8.1 Q11.65 -8.1 11.6 -8.1 L11.6 -8.2 11.55 -8.15 11.5 -8.1 Q11.5 -8.05 11.6 -8.0 L11.65 -8.0 11.8 -7.95 Q11.8 -7.95 11.9 -7.9 L11.95 -7.9 12.05 -7.85 12.15 -7.9 12.2 -8.0 Q12.2 -8.1 12.25 -8.1 L12.4 -8.1 12.35 -8.15 Q12.3 -8.2 12.2 -8.2 M12.25 -7.6 L12.2 -7.55 12.15 -7.5 12.1 -7.45 12.05 -7.35 Q12.05 -7.3 12.15 -7.25 L12.3 -7.25 12.4 -7.15 12.45 -7.1 12.5 -7.1 Q12.6 -7.1 12.7 -7.15 L12.75 -7.3 12.8 -7.35 12.85 -7.4 12.8 -7.45 12.7 -7.4 12.65 -7.4 Q12.55 -7.4 12.45 -7.5 12.4 -7.6 12.3 -7.6 L12.25 -7.6 M12.95 -7.8 L12.9 -7.8 12.85 -7.85 12.8 -7.85 12.75 -7.85 12.7 -7.8 12.7 -7.75 12.75 -7.75 12.9 -7.75 12.95 -7.8 12.95 -7.8 M14.0 -7.15 L14.0 -7.1 13.95 -6.95 13.95 -6.95 13.85 -6.85 Q13.85 -6.8 13.9 -6.75 L14.0 -6.7 14.1 -6.6 14.15 -6.6 14.2 -6.65 14.25 -6.65 14.2 -6.7 14.2 -6.75 14.15 -6.8 14.15 -6.9 14.2 -6.95 14.3 -7.0 14.35 -7.0 14.55 -7.0 14.55 -7.0 14.5 -7.05 14.4 -7.1 14.25 -7.05 14.2 -7.05 14.15 -7.05 14.1 -7.1 14.05 -7.15 14.05 -7.15 14.0 -7.15 M14.0 -7.4 L14.0 -7.3 14.0 -7.3 14.05 -7.35 14.1 -7.35 14.05 -7.4 14.0 -7.4 M13.45 -7.3 L13.45 -7.3 Q13.35 -7.25 13.35 -7.15 L13.45 -7.0 13.5 -6.85 13.45 -6.65 13.45 -6.65 13.5 -6.6 13.6 -6.7 13.7 -6.75 13.7 -6.8 13.75 -7.0 Q13.75 -7.15 13.65 -7.2 L13.65 -7.2 13.5 -7.3 13.45 -7.3 M13.3 -6.85 L13.35 -6.9 13.35 -6.9 Q13.3 -6.9 13.3 -6.95 L13.25 -6.95 13.15 -6.95 13.15 -6.95 13.05 -6.9 13.0 -6.95 13.0 -6.9 13.05 -6.85 13.05 -6.85 13.15 -6.85 13.2 -6.85 13.3 -6.85 M13.6 -6.5 L13.45 -6.45 13.35 -6.5 13.25 -6.5 13.2 -6.45 13.2 -6.45 13.25 -6.35 13.25 -6.35 13.4 -6.3 Q13.45 -6.3 13.7 -6.45 L13.75 -6.5 13.8 -6.5 13.85 -6.55 13.8 -6.6 13.7 -6.55 13.65 -6.55 13.6 -6.5 M13.8 -6.35 L13.85 -6.4 13.95 -6.4 13.85 -6.45 13.7 -6.35 13.6 -6.2 13.6 -6.15 13.65 -6.1 13.6 -6.15 Q13.6 -6.25 13.7 -6.3 L13.8 -6.35 M12.75 -6.95 L12.55 -7.0 12.45 -7.0 12.3 -6.9 12.2 -6.75 12.35 -6.75 12.4 -6.75 12.55 -6.75 12.65 -6.75 12.8 -6.75 Q12.85 -6.7 12.9 -6.7 L12.95 -6.7 12.8 -6.85 12.75 -6.95 M12.55 -6.7 Q12.55 -6.65 12.45 -6.55 L12.35 -6.5 12.2 -6.45 12.25 -6.35 12.3 -6.35 12.35 -6.35 Q12.45 -6.35 12.55 -6.45 L12.6 -6.55 12.6 -6.6 12.55 -6.7 12.55 -6.7 M12.2 -6.25 L12.15 -6.25 12.05 -6.3 12.0 -6.4 12.0 -6.4 11.95 -6.35 11.9 -6.25 12.0 -6.2 12.1 -6.1 12.1 -6.05 12.15 -6.0 12.2 -6.0 12.25 -5.95 12.45 -6.05 12.55 -6.1 12.6 -6.15 12.5 -6.2 12.45 -6.2 12.45 -6.15 12.4 -6.15 12.3 -6.15 12.25 -6.2 12.2 -6.25 M12.8 -6.25 Q12.75 -6.2 12.75 -6.2 L12.8 -6.15 12.9 -6.1 12.95 -6.05 12.95 -6.0 13.0 -6.0 13.0 -5.95 13.2 -6.0 13.35 -6.05 13.3 -6.1 13.2 -6.15 13.15 -6.15 13.1 -6.15 Q13.05 -6.15 13.05 -6.15 L13.0 -6.25 13.0 -6.4 12.95 -6.35 12.85 -6.3 12.8 -6.25 M14.0 -5.9 L14.0 -5.8 Q14.0 -5.7 14.1 -5.7 L14.2 -5.75 Q14.3 -5.8 14.3 -5.85 L14.1 -6.05 14.05 -6.1 14.05 -6.1 14.0 -5.9 M14.15 -5.8 L14.15 -5.8 14.1 -5.8 14.15 -5.8 M14.25 -6.5 L14.3 -6.45 14.35 -6.5 14.4 -6.55 14.4 -6.65 14.35 -6.65 14.3 -6.6 14.3 -6.55 14.25 -6.55 14.25 -6.5 M14.2 -5.05 L14.15 -5.0 14.05 -4.9 14.0 -4.8 14.0 -4.75 14.1 -4.6 14.3 -4.4 14.4 -4.4 14.45 -4.5 14.35 -4.6 Q14.25 -4.7 14.25 -4.75 L14.4 -4.8 14.35 -4.9 14.2 -5.05 M14.65 -5.55 L14.65 -5.55 14.55 -5.4 Q14.55 -5.35 14.65 -5.3 L14.65 -5.3 14.8 -5.25 14.9 -5.3 14.95 -5.35 14.75 -5.5 14.7 -5.55 14.65 -5.55 M14.8 -5.8 L14.75 -5.8 14.6 -5.75 14.55 -5.75 14.55 -5.75 Q14.6 -5.7 14.7 -5.7 L14.75 -5.7 14.75 -5.7 14.85 -5.7 14.85 -5.8 14.8 -5.8 M11.6 -7.75 L11.55 -7.75 11.45 -7.65 11.5 -7.55 11.4 -7.55 11.35 -7.55 11.3 -7.6 11.25 -7.6 11.25 -7.65 11.3 -7.75 11.45 -7.8 11.45 -7.8 11.5 -7.75 11.6 -7.75 M11.0 -7.55 L11.0 -7.55 11.05 -7.55 11.05 -7.5 10.95 -7.45 10.9 -7.45 10.9 -7.55 10.95 -7.55 11.0 -7.55 M11.6 -7.2 Q11.6 -7.1 11.55 -7.0 11.45 -6.9 11.35 -6.9 L11.2 -6.95 Q11.1 -7.0 11.1 -7.05 L11.15 -7.1 Q11.2 -7.15 11.2 -7.15 L11.25 -7.15 11.3 -7.15 11.3 -7.1 11.55 -7.2 11.6 -7.25 11.6 -7.2 M11.3 -6.25 Q11.3 -6.15 11.05 -6.0 L10.95 -6.05 10.85 -6.15 10.85 -6.2 10.9 -6.25 10.9 -6.3 10.95 -6.25 11.0 -6.25 11.05 -6.25 11.1 -6.35 11.15 -6.4 11.2 -6.5 11.25 -6.5 11.25 -6.45 11.3 -6.35 11.3 -6.25 M10.7 -6.85 L10.75 -6.85 10.8 -6.75 10.8 -6.75 10.7 -6.7 10.7 -6.7 10.6 -6.7 10.55 -6.7 10.55 -6.7 10.6 -6.75 10.6 -6.75 10.65 -6.8 10.7 -6.85" fill="#b97814" fill-rule="evenodd" stroke="none"/>
    <path d="M14.0 -9.2 L13.95 -9.1 13.9 -9.1 13.9 -9.1 13.85 -9.1 13.8 -9.05 13.8 -9.0 13.7 -8.95 13.7 -8.95 13.65 -8.95 13.6 -9.0 13.5 -9.05 13.55 -9.05 13.6 -9.1 13.6 -9.15 13.6 -9.2 13.7 -9.25 13.75 -9.3 13.75 -9.3 Q13.8 -9.3 13.85 -9.3 L13.95 -9.25 14.0 -9.2 M12.8 -5.4 L12.9 -5.3 12.95 -5.25 13.0 -5.15 13.0 -5.05 13.05 -4.95 13.2 -4.8 13.2 -4.8 13.1 -4.8 Q12.9 -4.8 12.7 -5.05 L12.6 -5.1 Q12.5 -5.25 12.5 -5.3 L12.5 -5.55 12.5 -5.65 12.55 -5.6 12.65 -5.45 12.65 -5.45 12.8 -5.4 M12.15 -10.15 Q12.1 -10.15 12.05 -10.2 L12.05 -10.3 12.15 -10.4 12.25 -10.4 12.25 -10.25 Q12.25 -10.15 12.15 -10.15 L12.2 -10.15 12.2 -10.15 12.15 -10.15 M12.75 -10.45 L12.8 -10.45 12.8 -10.4 12.6 -9.9 Q12.6 -9.85 12.45 -9.8 L12.4 -9.8 12.4 -9.85 12.5 -9.95 Q12.55 -10.0 12.55 -10.05 L12.6 -10.1 Q12.6 -10.25 12.6 -10.3 L12.6 -10.3 12.65 -10.3 12.75 -10.45 M13.55 -9.8 L13.55 -9.75 13.5 -9.65 13.5 -9.6 13.55 -9.65 Q13.55 -9.5 13.65 -9.5 L13.6 -9.45 Q13.5 -9.4 13.4 -9.4 13.2 -9.4 13.1 -9.45 L13.1 -9.45 13.2 -9.65 13.2 -9.7 Q13.25 -9.9 13.45 -9.9 L13.55 -9.9 13.55 -9.8 M14.25 -7.45 L14.35 -7.45 14.4 -7.4 14.5 -7.45 14.5 -7.4 14.45 -7.35 Q14.45 -7.35 14.35 -7.35 L14.3 -7.35 14.3 -7.35 14.25 -7.4 14.25 -7.45 M14.75 -8.25 L14.75 -8.25 14.95 -8.2 14.95 -8.2 Q14.9 -8.2 14.85 -8.1 L14.9 -8.0 14.8 -7.9 14.7 -7.95 14.65 -8.0 Q14.55 -8.0 14.55 -8.05 L14.35 -8.25 Q14.35 -8.3 14.45 -8.35 L14.55 -8.25 Q14.55 -8.2 14.6 -8.2 L14.7 -8.25 14.75 -8.25 M14.8 -7.5 L14.8 -7.5 14.85 -7.55 14.9 -7.55 14.95 -7.55 15.05 -7.45 15.05 -7.4 15.1 -7.35 15.15 -7.25 15.05 -7.0 15.0 -6.8 Q14.9 -6.7 14.8 -6.7 L14.75 -6.75 14.65 -6.75 14.65 -6.75 14.6 -6.8 14.55 -6.8 14.55 -6.85 14.6 -6.85 14.65 -6.85 14.65 -6.85 14.7 -6.85 14.75 -6.95 14.7 -7.05 14.65 -7.05 14.65 -7.05 14.55 -7.1 14.55 -7.1 14.6 -7.1 14.65 -7.1 14.7 -7.25 Q14.7 -7.35 14.75 -7.4 L14.8 -7.45 14.8 -7.5 M15.35 -7.6 L15.45 -7.6 15.6 -7.6 15.6 -7.45 15.45 -7.35 15.35 -7.4 15.3 -7.5 15.35 -7.55 15.3 -7.6 15.3 -7.6 15.25 -7.65 15.3 -7.6 15.3 -7.6 15.35 -7.6 M12.95 -7.8 L12.95 -7.8 12.9 -7.75 12.75 -7.75 12.7 -7.75 12.7 -7.8 12.75 -7.85 12.8 -7.85 12.85 -7.85 12.9 -7.8 12.95 -7.8 M12.25 -7.6 L12.3 -7.6 Q12.4 -7.6 12.45 -7.5 12.55 -7.4 12.65 -7.4 L12.7 -7.4 12.8 -7.45 12.85 -7.4 12.8 -7.35 12.75 -7.3 12.7 -7.15 Q12.6 -7.1 12.5 -7.1 L12.45 -7.1 12.4 -7.15 12.3 -7.25 12.15 -7.25 Q12.05 -7.3 12.05 -7.35 L12.1 -7.45 12.15 -7.5 12.2 -7.55 12.25 -7.6 M12.2 -8.2 Q12.3 -8.2 12.35 -8.15 L12.4 -8.1 12.25 -8.1 Q12.2 -8.1 12.2 -8.0 L12.15 -7.9 12.05 -7.85 11.95 -7.9 11.9 -7.9 Q11.8 -7.95 11.8 -7.95 L11.65 -8.0 11.6 -8.0 Q11.5 -8.05 11.5 -8.1 L11.55 -8.15 11.6 -8.2 11.6 -8.1 Q11.65 -8.1 11.7 -8.1 L11.85 -8.1 11.85 -8.05 Q11.9 -8.05 11.95 -8.05 L11.95 -8.05 12.0 -8.05 Q12.0 -8.15 12.05 -8.2 L12.2 -8.2 M13.05 -8.05 L13.05 -8.1 13.1 -8.2 Q13.3 -8.1 13.3 -8.0 L13.25 -8.0 13.2 -8.0 13.15 -7.95 13.1 -7.95 Q13.0 -7.95 13.0 -8.0 L13.0 -8.0 13.05 -8.05 M12.75 -8.3 L12.75 -8.25 Q12.65 -8.2 12.55 -8.2 L12.55 -8.2 12.55 -8.35 12.65 -8.35 12.75 -8.3 M12.35 -8.7 L12.45 -8.7 12.6 -8.65 12.6 -8.65 12.65 -8.65 12.6 -8.6 12.5 -8.55 12.5 -8.5 12.45 -8.45 12.4 -8.4 12.25 -8.35 12.25 -8.45 12.2 -8.5 12.2 -8.55 12.25 -8.65 12.35 -8.7 M12.65 -9.05 L12.6 -9.0 Q12.6 -8.95 12.75 -8.95 12.85 -8.9 12.85 -8.85 L12.85 -8.8 12.75 -8.8 12.6 -8.8 12.45 -8.75 12.4 -8.8 12.35 -8.85 12.2 -8.95 12.4 -9.1 Q12.5 -9.2 12.6 -9.2 L12.65 -9.2 12.7 -9.15 12.65 -9.05 M13.2 -8.95 L13.35 -8.9 13.4 -8.85 13.3 -8.8 13.2 -8.75 13.2 -8.75 Q13.15 -8.75 13.1 -8.8 L13.1 -8.8 13.05 -8.85 13.15 -8.9 13.2 -8.95 M14.0 -7.4 L14.05 -7.4 14.1 -7.35 14.05 -7.35 14.0 -7.3 14.0 -7.3 14.0 -7.4 M13.45 -7.3 L13.5 -7.3 13.65 -7.2 13.65 -7.2 Q13.75 -7.15 13.75 -7.0 L13.7 -6.8 13.7 -6.75 13.6 -6.7 13.5 -6.6 13.45 -6.65 13.45 -6.65 13.5 -6.85 13.45 -7.0 13.35 -7.15 Q13.35 -7.25 13.45 -7.3 L13.45 -7.3 M13.6 -6.5 L13.65 -6.55 13.7 -6.55 13.8 -6.6 13.85 -6.55 13.8 -6.5 13.75 -6.5 13.7 -6.45 Q13.45 -6.3 13.4 -6.3 L13.25 -6.35 13.25 -6.35 13.2 -6.45 13.2 -6.45 13.25 -6.5 13.35 -6.5 13.45 -6.45 13.6 -6.5 M12.75 -6.95 L12.8 -6.85 12.95 -6.7 12.9 -6.7 Q12.85 -6.7 12.8 -6.75 L12.65 -6.75 12.55 -6.75 12.4 -6.75 12.35 -6.75 12.2 -6.75 12.3 -6.9 12.45 -7.0 12.55 -7.0 12.75 -6.95 M12.8 -6.25 L12.85 -6.3 12.95 -6.35 13.0 -6.4 13.0 -6.25 13.05 -6.15 Q13.05 -6.15 13.1 -6.15 L13.15 -6.15 13.2 -6.15 13.3 -6.1 13.35 -6.05 13.2 -6.0 13.0 -5.95 13.0 -6.0 12.95 -6.0 12.95 -6.05 12.9 -6.1 12.8 -6.15 12.75 -6.2 Q12.75 -6.2 12.8 -6.25 M12.2 -6.25 L12.25 -6.2 12.3 -6.15 12.4 -6.15 12.45 -6.15 12.45 -6.2 12.5 -6.2 12.6 -6.15 12.55 -6.1 12.45 -6.05 12.25 -5.95 12.2 -6.0 12.15 -6.0 12.1 -6.05 12.1 -6.1 12.0 -6.2 11.9 -6.25 11.95 -6.35 12.0 -6.4 12.0 -6.4 12.05 -6.3 12.15 -6.25 12.2 -6.25 M14.0 -5.9 L14.05 -6.1 14.05 -6.1 14.1 -6.05 14.3 -5.85 Q14.3 -5.8 14.2 -5.75 L14.1 -5.7 Q14.0 -5.7 14.0 -5.8 L14.0 -5.9 M14.25 -6.5 L14.25 -6.55 14.3 -6.55 14.3 -6.6 14.35 -6.65 14.4 -6.65 14.4 -6.55 14.35 -6.5 14.3 -6.45 14.25 -6.5 M14.15 -5.8 L14.1 -5.8 14.15 -5.8 14.15 -5.8 M14.8 -5.8 L14.85 -5.8 14.85 -5.7 14.75 -5.7 14.75 -5.7 14.7 -5.7 Q14.6 -5.7 14.55 -5.75 L14.55 -5.75 14.6 -5.75 14.75 -5.8 14.8 -5.8 M14.65 -5.55 L14.7 -5.55 14.75 -5.5 14.95 -5.35 14.9 -5.3 14.8 -5.25 14.65 -5.3 14.65 -5.3 Q14.55 -5.35 14.55 -5.4 L14.65 -5.55 14.65 -5.55 M14.2 -5.05 L14.35 -4.9 14.4 -4.8 14.25 -4.75 Q14.25 -4.7 14.35 -4.6 L14.45 -4.5 14.4 -4.4 14.3 -4.4 14.1 -4.6 14.0 -4.75 14.0 -4.8 14.05 -4.9 14.15 -5.0 14.2 -5.05" fill="#ffe693" fill-rule="evenodd" stroke="none"/>
  </g>
</svg>
