<?xml version="1.0" encoding="UTF-8" standalone="no"?>
<svg xmlns:xlink="http://www.w3.org/1999/xlink" height="4.4px" width="4.4px" xmlns="http://www.w3.org/2000/svg">
  <g transform="matrix(1.0, 0.0, 0.0, 1.0, 2.2, 2.2)">
    <path d="M1.85 -2.2 L1.85 -2.2 1.85 -2.1 1.8 -2.1 1.8 -2.05 1.75 -2.05 1.7 -2.1 1.65 -2.1 1.6 -2.05 1.6 -2.0 1.55 -1.95 Q1.55 -1.95 1.55 -1.9 L1.6 -1.85 Q1.65 -1.8 1.65 -1.8 L1.65 -1.85 1.6 -1.9 Q1.65 -1.95 1.75 -1.95 L1.85 -1.95 1.85 -1.8 1.9 -1.8 1.95 -1.8 1.9 -1.75 1.9 -1.7 1.8 -1.7 1.7 -1.7 1.45 -1.85 1.2 -1.95 1.2 -2.0 1.5 -1.9 1.5 -2.0 Q1.5 -2.05 1.6 -2.0 1.6 -2.1 1.7 -2.1 L1.85 -2.15 1.85 -2.2" fill="#5a4c44" fill-rule="evenodd" stroke="none"/>
    <path d="M1.2 -1.95 L1.45 -1.85 1.7 -1.7 1.8 -1.7 1.9 -1.7 1.9 -1.75 1.95 -1.8 1.9 -1.8 1.85 -1.8 1.85 -1.95 1.75 -1.95 Q1.65 -1.95 1.6 -1.9 L1.65 -1.85 1.65 -1.8 Q1.65 -1.8 1.6 -1.85 L1.55 -1.9 Q1.55 -1.95 1.55 -1.95 L1.6 -2.0 1.6 -2.05 1.65 -2.1 1.7 -2.1 1.75 -2.05 1.8 -2.05 1.8 -2.1 1.85 -2.1 1.85 -2.2 1.95 -2.2 Q1.9 -2.1 1.95 -2.05 L1.85 -2.05 Q1.8 -2.0 1.85 -2.0 L1.9 -1.95 1.95 -1.95 1.95 -2.0 2.0 -2.05 2.15 -2.05 2.15 -1.95 Q2.15 -1.95 2.2 -1.9 L2.2 -1.7 2.2 -1.65 2.1 -1.7 Q2.05 -1.7 2.05 -1.75 L2.0 -1.85 1.95 -1.75 1.95 -1.65 1.85 -1.65 1.75 -1.65 Q1.7 -1.65 1.65 -1.7 L1.25 -1.85 1.25 -1.8 1.2 -1.8 1.15 -1.75 1.15 -1.7 1.1 -1.7 1.05 -1.7 1.0 -1.7 1.05 -1.75 1.05 -1.85 1.1 -1.9 1.2 -1.95 M2.2 -1.7 L2.15 -1.7 2.1 -1.75 2.15 -1.8 2.1 -1.85 2.05 -1.85 2.05 -1.8 2.05 -1.8 Q2.05 -1.75 2.1 -1.7 L2.2 -1.7" fill="#524136" fill-rule="evenodd" stroke="none"/>
    <path d="M1.85 -2.2 L1.85 -2.15 1.7 -2.1 Q1.6 -2.1 1.6 -2.0 1.5 -2.05 1.5 -2.0 L1.5 -1.9 1.2 -2.0 1.05 -2.0 0.95 -2.0 0.75 -1.95 0.65 -1.85 0.65 -1.8 0.7 -1.75 0.55 -1.85 0.55 -1.95 0.65 -2.0 0.7 -2.05 0.8 -2.05 1.05 -2.05 1.25 -2.05 1.2 -2.15 1.1 -2.2 1.85 -2.2" fill="#68564c" fill-rule="evenodd" stroke="none"/>
    <path d="M1.95 -2.2 L2.2 -2.2 2.2 -1.9 Q2.15 -1.95 2.15 -1.95 L2.15 -2.05 2.0 -2.05 1.95 -2.0 1.95 -1.95 1.9 -1.95 1.85 -2.0 Q1.8 -2.0 1.85 -2.05 L1.95 -2.05 Q1.9 -2.1 1.95 -2.2" fill="#5d4d44" fill-rule="evenodd" stroke="none"/>
    <path d="M1.2 -2.0 L1.2 -1.95 1.1 -1.9 1.05 -1.85 1.05 -1.75 1.0 -1.7 Q1.0 -1.6 1.1 -1.5 L1.15 -1.45 1.2 -1.35 1.0 -1.55 0.8 -1.7 0.7 -1.75 0.65 -1.8 0.65 -1.85 0.75 -1.95 0.95 -2.0 1.05 -2.0 1.2 -2.0" fill="#644b3c" fill-rule="evenodd" stroke="none"/>
    <path d="M0.5 -2.2 L1.1 -2.2 1.2 -2.15 1.25 -2.05 1.05 -2.05 0.8 -2.05 0.7 -2.05 0.65 -2.0 0.55 -1.95 0.55 -1.85 0.7 -1.75 0.8 -1.7 0.85 -1.65 0.75 -1.7 0.7 -1.75 0.55 -1.8 0.45 -1.9 0.45 -1.95 0.5 -2.05 0.5 -2.2" fill="#735c4e" fill-rule="evenodd" stroke="none"/>
    <path d="M2.2 -1.6 L2.2 -1.4 2.05 -1.45 1.9 -1.45 1.85 -1.4 Q1.85 -1.4 1.85 -1.35 L1.95 -1.2 2.05 -1.0 Q2.1 -0.9 2.2 -0.9 L2.2 -0.4 2.15 -0.45 2.1 -0.5 2.05 -0.55 2.0 -0.6 1.95 -0.65 1.95 -0.8 1.9 -1.0 1.8 -1.2 1.7 -1.35 1.6 -1.45 1.45 -1.55 1.45 -1.65 1.4 -1.7 1.5 -1.7 1.6 -1.65 Q1.7 -1.65 1.8 -1.6 1.9 -1.55 1.95 -1.5 L2.0 -1.5 2.0 -1.55 2.05 -1.55 2.1 -1.6 2.2 -1.6" fill="#403129" fill-rule="evenodd" stroke="none"/>
    <path d="M2.2 -1.65 L2.2 -1.6 2.1 -1.6 2.05 -1.55 2.0 -1.55 2.0 -1.5 1.95 -1.5 Q1.9 -1.55 1.8 -1.6 1.7 -1.65 1.6 -1.65 L1.5 -1.7 1.4 -1.7 1.45 -1.65 1.45 -1.55 1.6 -1.45 1.7 -1.35 1.8 -1.2 1.9 -1.0 1.95 -0.8 1.95 -0.65 1.9 -0.6 1.9 -0.6 1.95 -0.55 1.9 -0.5 1.85 -0.55 1.85 -0.6 1.75 -0.8 1.75 -0.85 1.7 -0.9 1.7 -0.9 1.75 -0.95 1.55 -1.05 1.5 -1.2 1.45 -1.3 1.3 -1.55 1.2 -1.8 1.25 -1.8 1.25 -1.85 1.65 -1.7 Q1.7 -1.65 1.75 -1.65 L1.85 -1.65 1.95 -1.65 1.95 -1.75 2.0 -1.85 2.05 -1.75 Q2.05 -1.7 2.1 -1.7 L2.2 -1.65" fill="#4c382b" fill-rule="evenodd" stroke="none"/>
    <path d="M0.3 2.2 L-0.45 2.2 Q-0.45 2.15 -0.5 2.15 L-0.55 2.1 -0.65 2.1 -0.7 2.05 -0.75 2.05 -0.8 2.0 -0.9 2.0 -1.0 2.05 -1.0 2.0 -1.05 2.0 -1.1 2.0 -1.1 2.0 -1.1 1.95 -1.05 1.95 -1.0 1.95 -0.9 2.0 -0.8 2.0 Q-0.7 2.0 -0.65 2.05 L-0.6 2.05 -0.5 2.05 Q-0.45 2.05 -0.45 2.1 L-0.45 2.15 -0.4 2.15 -0.4 2.0 -0.3 1.95 -0.2 1.95 -0.1 1.9 -0.05 1.8 0.25 1.75 0.5 1.65 Q0.75 1.55 1.0 1.35 L1.4 0.95 1.6 0.6 1.7 0.25 1.75 -0.25 Q1.7 -0.5 1.6 -0.7 1.5 -1.05 1.2 -1.35 L1.15 -1.45 1.1 -1.5 Q1.0 -1.6 1.0 -1.7 L1.05 -1.7 1.1 -1.7 1.15 -1.7 1.15 -1.75 1.2 -1.8 1.3 -1.55 1.45 -1.3 1.5 -1.2 1.55 -1.05 1.75 -0.95 1.7 -0.9 1.7 -0.9 1.75 -0.85 1.75 -0.8 1.85 -0.6 1.85 -0.55 1.9 -0.5 1.9 0.0 1.9 0.25 1.85 0.45 1.8 0.6 1.7 0.75 1.65 0.85 1.55 0.95 1.3 1.1 1.2 1.2 1.1 1.3 0.7 1.6 0.3 1.75 0.25 1.8 0.3 1.85 0.35 1.9 0.3 1.95 Q0.25 1.95 0.25 2.0 L0.3 2.1 0.3 2.2" fill="#583b2b" fill-rule="evenodd" stroke="none"/>
    <path d="M1.0 -1.4 L1.05 -1.35 1.15 -1.35 1.2 -1.25 1.25 -1.15 1.3 -1.15 1.3 -1.15 1.25 -1.15 1.25 -1.1 1.2 -1.15 1.15 -1.2 1.1 -1.3 0.85 -1.45 0.95 -1.4 1.0 -1.4" fill="#d37936" fill-rule="evenodd" stroke="none"/>
    <path d="M1.3 -1.15 L1.3 -1.15 1.25 -1.15 1.2 -1.25 1.15 -1.35 1.05 -1.35 1.0 -1.4 0.95 -1.45 0.95 -1.55 0.9 -1.55 0.8 -1.6 0.7 -1.7 0.65 -1.7 0.6 -1.75 0.55 -1.8 0.7 -1.75 0.75 -1.7 0.85 -1.65 1.1 -1.4 1.35 -1.15 1.4 -1.1 1.3 -1.15 M0.55 -1.8 L0.55 -1.8" fill="#b06e39" fill-rule="evenodd" stroke="none"/>
    <path d="M0.8 -1.7 L1.0 -1.55 1.2 -1.35 Q1.5 -1.05 1.6 -0.7 1.7 -0.5 1.75 -0.25 L1.7 0.25 1.6 0.6 1.4 0.95 1.4 0.85 1.45 0.8 1.5 0.7 1.55 0.65 Q1.65 0.45 1.7 0.15 L1.7 -0.1 1.65 -0.35 Q1.65 -0.55 1.6 -0.7 L1.55 -0.75 1.55 -0.8 1.45 -0.95 1.4 -1.05 1.4 -1.05 1.4 -1.1 1.35 -1.15 1.1 -1.4 0.85 -1.65 0.8 -1.7" fill="#7b4f32" fill-rule="evenodd" stroke="none"/>
    <path d="M0.85 -1.45 L1.1 -1.3 1.15 -1.2 1.2 -1.15 1.2 -1.05 Q1.2 -1.05 1.2 -1.0 L1.3 -1.0 1.35 -0.95 1.35 -0.9 1.3 -0.9 1.2 -0.9 Q1.15 -0.9 1.15 -0.95 L1.15 -1.05 1.0 -1.25 0.85 -1.4 0.8 -1.4 0.85 -1.4 0.85 -1.45" fill="#724c2f" fill-rule="evenodd" stroke="none"/>
    <path d="M2.2 -1.4 L2.2 -0.9 Q2.1 -0.9 2.05 -1.0 L1.95 -1.2 1.85 -1.35 Q1.85 -1.4 1.85 -1.4 L1.9 -1.45 2.05 -1.45 2.2 -1.4" fill="#362826" fill-rule="evenodd" stroke="none"/>
    <path d="M0.3 -2.2 L0.5 -2.2 0.5 -2.05 0.45 -1.95 0.45 -1.9 0.55 -1.8 0.7 -1.75 0.55 -1.8 0.45 -1.85 0.35 -1.95 0.35 -2.05 0.3 -2.2" fill="#7e6859" fill-rule="evenodd" stroke="none"/>
    <path d="M0.05 -2.2 L0.2 -2.2 0.25 -2.0 Q0.25 -1.9 0.35 -1.85 L0.3 -1.9 0.15 -2.0 0.1 -2.1 0.05 -2.2" fill="#9c8375" fill-rule="evenodd" stroke="none"/>
    <path d="M0.0 -2.2 L0.05 -2.2 0.1 -2.1 0.15 -2.0 0.3 -1.9 0.25 -1.85 Q0.15 -1.9 0.1 -2.0 L0.0 -2.2" fill="#b09382" fill-rule="evenodd" stroke="none"/>
    <path d="M-0.15 -2.2 L-0.1 -2.2 -0.05 -2.1 0.0 -2.0 Q0.1 -1.9 0.25 -1.85 L0.2 -1.85 0.15 -1.9 0.05 -1.95 -0.1 -1.95 -0.2 -1.95 -0.3 -2.0 -0.25 -2.05 -0.2 -2.05 Q-0.15 -2.1 -0.15 -2.1 L-0.15 -2.2 M0.3 -1.85 L0.25 -1.85 0.3 -1.85" fill="#d6b19a" fill-rule="evenodd" stroke="none"/>
    <path d="M-1.15 -2.2 L-1.1 -2.2 -1.0 -2.1 -0.85 -2.1 -0.75 -2.1 -0.65 -2.0 -0.5 -1.95 -0.4 -2.0 -0.35 -2.05 -0.35 -2.2 -0.15 -2.2 -0.15 -2.1 Q-0.15 -2.1 -0.2 -2.05 L-0.25 -2.05 -0.3 -2.0 -0.2 -1.95 -0.1 -1.95 0.05 -1.95 0.15 -1.9 -0.1 -1.9 -0.4 -1.95 -0.45 -1.95 -0.5 -1.9 -0.55 -1.9 -0.7 -2.0 -0.8 -2.0 -1.0 -2.05 Q-1.05 -2.05 -1.1 -2.1 L-1.15 -2.2" fill="#e5bda1" fill-rule="evenodd" stroke="none"/>
    <path d="M0.15 -1.9 L0.2 -1.85 0.25 -1.85 0.3 -1.8 0.2 -1.8 0.1 -1.85 -0.05 -1.85 -0.15 -1.85 -0.3 -1.9 -0.6 -1.85 -0.85 -1.75 -1.1 -1.65 -1.2 -1.5 -1.35 -1.4 -1.45 -1.3 -1.55 -1.15 -1.55 -1.2 -1.45 -1.35 -1.35 -1.45 -1.2 -1.55 -1.05 -1.7 -0.9 -1.8 Q-0.65 -1.8 -0.5 -1.9 L-0.45 -1.95 -0.4 -1.95 -0.1 -1.9 0.15 -1.9 M-1.55 -1.1 L-1.55 -1.15 -1.55 -1.1" fill="#fdd296" fill-rule="evenodd" stroke="none"/>
    <path d="M0.2 -2.2 L0.3 -2.2 0.35 -2.05 0.35 -1.95 0.45 -1.85 0.55 -1.8 0.35 -1.85 Q0.25 -1.9 0.25 -2.0 L0.2 -2.2 M0.55 -1.8 L0.55 -1.8" fill="#8d7565" fill-rule="evenodd" stroke="none"/>
    <path d="M0.55 -1.8 L0.6 -1.75 0.45 -1.8 Q0.35 -1.8 0.3 -1.85 L0.25 -1.85 0.25 -1.85 0.3 -1.9 0.35 -1.85 0.55 -1.8" fill="#c7925d" fill-rule="evenodd" stroke="none"/>
    <path d="M-0.1 -2.2 L0.0 -2.2 0.1 -2.0 Q0.15 -1.9 0.25 -1.85 0.1 -1.9 0.0 -2.0 L-0.05 -2.1 -0.1 -2.2 M0.25 -1.85 L0.25 -1.85" fill="#c4a38f" fill-rule="evenodd" stroke="none"/>
    <path d="M0.6 -1.75 L0.65 -1.7 0.7 -1.7 0.7 -1.65 0.75 -1.6 0.5 -1.75 0.45 -1.75 0.45 -1.7 0.45 -1.65 Q0.45 -1.6 0.4 -1.6 L0.35 -1.55 0.4 -1.5 Q0.4 -1.45 0.45 -1.45 L0.55 -1.5 Q0.55 -1.4 0.5 -1.45 L0.45 -1.45 0.4 -1.4 0.35 -1.5 0.3 -1.55 0.25 -1.5 0.2 -1.4 0.2 -1.4 0.15 -1.4 Q0.15 -1.3 0.25 -1.25 L0.2 -1.25 0.2 -1.2 0.15 -1.15 0.1 -1.15 0.05 -1.2 0.05 -1.25 0.1 -1.3 0.1 -1.35 0.2 -1.5 0.3 -1.6 0.25 -1.65 0.3 -1.7 0.3 -1.8 0.3 -1.8 0.25 -1.85 0.3 -1.85 Q0.35 -1.8 0.45 -1.8 L0.6 -1.75 M0.3 -1.7 L0.35 -1.65 0.4 -1.6 0.4 -1.7 0.35 -1.7 0.3 -1.7 M0.15 -1.25 L0.1 -1.25 0.1 -1.2 0.15 -1.2 0.15 -1.25" fill="#fcbb59" fill-rule="evenodd" stroke="none"/>
    <path d="M0.55 -1.5 L0.45 -1.45 Q0.4 -1.45 0.4 -1.5 L0.35 -1.55 0.4 -1.6 Q0.45 -1.6 0.45 -1.65 L0.45 -1.7 0.45 -1.75 0.5 -1.75 0.75 -1.6 0.7 -1.6 0.65 -1.6 0.6 -1.6 0.55 -1.55 0.55 -1.5" fill="#fff759" fill-rule="evenodd" stroke="none"/>
    <path d="M0.3 -1.8 L0.3 -1.8 0.3 -1.7 0.25 -1.65 0.2 -1.65 0.15 -1.6 0.05 -1.65 -0.05 -1.65 0.05 -1.7 0.15 -1.7 0.2 -1.75 0.2 -1.8 0.3 -1.8" fill="#ffee7b" fill-rule="evenodd" stroke="none"/>
    <path d="M0.15 -1.6 L0.2 -1.65 0.25 -1.65 0.3 -1.6 0.2 -1.5 0.1 -1.35 0.05 -1.3 0.0 -1.25 -0.05 -1.15 -0.1 -1.1 -0.25 -1.0 -0.4 -0.95 -0.45 -0.8 -0.55 -0.75 -0.45 -0.9 -0.35 -1.05 -0.15 -1.25 -0.05 -1.45 0.05 -1.45 0.05 -1.45 0.15 -1.55 0.15 -1.6" fill="#fffb66" fill-rule="evenodd" stroke="none"/>
    <path d="M0.3 -1.7 L0.35 -1.7 0.4 -1.7 0.4 -1.6 0.35 -1.65 0.3 -1.7" fill="#b38356" fill-rule="evenodd" stroke="none"/>
    <path d="M0.2 -1.8 L0.2 -1.75 0.15 -1.7 0.05 -1.7 -0.05 -1.65 -0.15 -1.65 -0.1 -1.7 -0.1 -1.75 Q-0.1 -1.8 -0.15 -1.85 L-0.25 -1.85 -0.3 -1.9 -0.15 -1.85 -0.05 -1.85 0.1 -1.85 0.2 -1.8" fill="#fffb99" fill-rule="evenodd" stroke="none"/>
    <path d="M-0.05 -1.65 L0.05 -1.65 0.15 -1.6 -0.05 -1.65 -0.2 -1.65 -0.15 -1.65 -0.05 -1.65 M0.05 -1.5 L0.1 -1.55 0.15 -1.6 0.15 -1.55 0.05 -1.45 0.05 -1.45 -0.05 -1.45 -0.1 -1.5 -0.15 -1.5 -0.2 -1.5 -0.1 -1.5 0.0 -1.5 Q0.05 -1.45 0.05 -1.5 M-0.2 -1.65 L-0.2 -1.65" fill="#f6bc70" fill-rule="evenodd" stroke="none"/>
    <path d="M-0.05 -1.65 L0.15 -1.6 0.1 -1.55 0.05 -1.5 Q0.0 -1.5 -0.05 -1.5 L-0.15 -1.55 -0.1 -1.6 -0.05 -1.65" fill="#9f7d66" fill-rule="evenodd" stroke="none"/>
    <path d="M0.2 -1.4 L0.25 -1.5 0.3 -1.55 0.4 -1.4 0.4 -1.25 0.25 -1.3 0.2 -1.4" fill="#8d6749" fill-rule="evenodd" stroke="none"/>
    <path d="M0.15 -1.4 L0.2 -1.4 0.2 -1.4 0.25 -1.3 0.4 -1.25 0.4 -1.2 0.35 -1.2 0.25 -1.3 0.15 -1.4" fill="#c4814d" fill-rule="evenodd" stroke="none"/>
    <path d="M0.1 -1.35 L0.1 -1.3 0.05 -1.25 0.05 -1.2 0.1 -1.15 0.15 -1.1 0.1 -1.05 0.0 -1.05 -0.15 -1.0 -0.25 -0.95 -0.4 -0.95 -0.25 -1.0 -0.1 -1.1 -0.05 -1.15 0.0 -1.25 0.05 -1.3 0.1 -1.35" fill="#fff556" fill-rule="evenodd" stroke="none"/>
    <path d="M0.25 -1.25 Q0.15 -1.3 0.15 -1.4 L0.25 -1.3 0.35 -1.2 0.4 -1.2 0.4 -1.25 0.4 -1.4 0.3 -1.55 0.35 -1.5 0.4 -1.4 0.45 -1.45 0.5 -1.45 Q0.55 -1.4 0.55 -1.5 L0.55 -1.55 0.6 -1.5 0.65 -1.5 0.6 -1.4 0.55 -1.35 0.6 -1.3 0.7 -1.25 0.7 -1.2 0.75 -1.15 0.75 -1.15 0.8 -1.2 0.8 -1.25 0.75 -1.3 0.7 -1.35 0.9 -1.25 0.9 -1.2 0.85 -1.2 0.8 -1.1 0.8 -1.0 Q0.8 -1.0 0.85 -1.0 L0.9 -1.0 0.95 -1.0 Q1.0 -0.95 1.0 -1.0 L1.05 -1.05 1.05 -1.0 1.1 -0.95 Q1.1 -0.85 1.2 -0.9 L1.25 -0.9 Q1.3 -0.9 1.3 -0.85 L1.25 -0.8 1.15 -0.8 Q1.1 -0.75 1.1 -0.8 L1.05 -0.85 1.05 -0.85 0.9 -0.9 0.8 -0.9 Q0.8 -0.85 0.8 -0.8 L0.9 -0.75 0.85 -0.8 0.85 -0.85 Q0.9 -0.85 0.9 -0.85 L0.95 -0.75 Q0.95 -0.7 0.9 -0.7 L0.85 -0.65 0.85 -0.6 0.7 -0.65 0.6 -0.75 0.65 -0.8 0.7 -0.85 0.65 -0.8 0.7 -0.75 0.75 -0.65 0.8 -0.65 Q0.9 -0.75 0.8 -0.75 L0.75 -0.8 0.7 -0.85 0.7 -0.9 0.65 -0.9 0.6 -0.9 0.6 -0.85 0.55 -0.8 0.45 -0.9 0.4 -1.0 0.35 -1.05 0.25 -1.1 0.2 -1.05 0.2 -1.05 0.25 -0.95 0.3 -0.85 0.25 -0.8 0.25 -0.85 0.0 -0.85 -0.1 -0.85 -0.15 -0.8 -0.3 -0.75 -0.45 -0.7 -0.45 -0.7 -0.5 -0.65 -0.5 -0.5 -0.55 -0.5 -0.55 -0.5 -0.6 -0.5 -0.65 -0.5 -0.7 -0.45 -0.65 -0.5 Q-0.6 -0.5 -0.55 -0.6 L-0.5 -0.7 Q-0.45 -0.75 -0.3 -0.8 L-0.2 -0.85 Q-0.15 -0.9 -0.1 -0.9 L0.0 -0.9 0.1 -0.95 0.15 -0.95 0.2 -1.0 0.2 -1.1 0.25 -1.15 0.35 -1.15 0.3 -1.2 0.25 -1.25 M0.5 -1.45 L0.45 -1.35 Q0.45 -1.25 0.5 -1.3 L0.55 -1.35 0.5 -1.45 M0.55 -1.55 L0.55 -1.55 M0.65 -1.2 Q0.7 -1.25 0.65 -1.25 L0.55 -1.25 0.5 -1.2 0.45 -1.15 0.5 -1.1 0.5 -1.15 0.55 -1.2 0.6 -1.15 0.65 -1.1 Q0.65 -1.05 0.6 -1.05 L0.55 -1.05 0.6 -1.05 0.6 -1.0 0.65 -1.0 0.65 -1.2 M0.6 -0.95 L0.55 -1.0 0.55 -1.05 0.5 -1.1 0.45 -1.05 0.45 -1.05 Q0.4 -0.95 0.55 -0.9 L0.6 -0.9 0.6 -0.95 M-0.65 -0.5 L-0.65 -0.5" fill="#feab45" fill-rule="evenodd" stroke="none"/>
    <path d="M0.15 -1.25 L0.15 -1.2 0.1 -1.2 0.1 -1.25 0.15 -1.25" fill="#d58a4b" fill-rule="evenodd" stroke="none"/>
    <path d="M0.5 -1.45 L0.55 -1.35 0.5 -1.3 Q0.45 -1.25 0.45 -1.35 L0.5 -1.45" fill="#cb8045" fill-rule="evenodd" stroke="none"/>
    <path d="M1.0 -1.4 L0.95 -1.4 0.85 -1.45 0.85 -1.4 0.8 -1.45 0.8 -1.5 0.75 -1.55 0.75 -1.5 0.7 -1.4 0.75 -1.35 0.8 -1.3 0.9 -1.25 0.7 -1.35 Q0.7 -1.35 0.7 -1.4 L0.7 -1.5 0.7 -1.55 0.8 -1.55 0.85 -1.5 0.9 -1.45 0.85 -1.55 0.8 -1.6 0.75 -1.6 0.7 -1.65 0.7 -1.7 0.8 -1.6 0.9 -1.55 0.95 -1.55 0.95 -1.45 1.0 -1.4" fill="#f19644" fill-rule="evenodd" stroke="none"/>
    <path d="M0.55 -1.55 L0.6 -1.6 0.65 -1.6 0.7 -1.6 0.75 -1.6 0.8 -1.6 0.85 -1.55 0.9 -1.45 0.85 -1.5 0.8 -1.55 0.7 -1.55 0.7 -1.5 0.65 -1.55 0.65 -1.5 0.6 -1.55 0.55 -1.55 0.55 -1.55" fill="#ffbc4b" fill-rule="evenodd" stroke="none"/>
    <path d="M0.7 -1.5 L0.7 -1.4 Q0.7 -1.35 0.7 -1.35 L0.75 -1.3 0.8 -1.25 0.8 -1.2 0.75 -1.15 0.75 -1.15 0.7 -1.2 0.7 -1.25 0.6 -1.3 0.55 -1.35 0.6 -1.4 0.65 -1.5 0.65 -1.55 0.7 -1.5" fill="#ffe449" fill-rule="evenodd" stroke="none"/>
    <path d="M0.9 -1.25 L0.8 -1.3 0.75 -1.35 0.7 -1.4 0.75 -1.5 0.75 -1.55 0.8 -1.5 Q0.75 -1.5 0.75 -1.45 L0.8 -1.35 Q0.9 -1.3 1.0 -1.2 L1.15 -1.0 1.15 -0.9 1.1 -0.95 1.1 -1.05 1.0 -1.15 0.9 -1.2 0.9 -1.25" fill="#c17339" fill-rule="evenodd" stroke="none"/>
    <path d="M0.65 -1.5 L0.6 -1.5 0.55 -1.55 0.6 -1.55 0.65 -1.5" fill="#d28749" fill-rule="evenodd" stroke="none"/>
    <path d="M0.8 -1.5 L0.8 -1.45 0.85 -1.4 0.8 -1.4 0.85 -1.4 1.0 -1.25 1.15 -1.05 1.15 -0.95 Q1.15 -0.9 1.2 -0.9 L1.15 -0.9 1.15 -1.0 1.0 -1.2 Q0.9 -1.3 0.8 -1.35 L0.75 -1.45 Q0.75 -1.5 0.8 -1.5" fill="#956137" fill-rule="evenodd" stroke="none"/>
    <path d="M1.25 -1.1 L1.25 -1.15 1.3 -1.15 1.4 -1.1 1.4 -1.05 1.4 -1.0 1.45 -0.95 1.45 -0.9 1.5 -0.85 1.4 -0.9 1.4 -0.8 1.35 -0.75 1.3 -0.7 1.3 -0.6 1.35 -0.55 1.4 -0.6 1.4 -0.65 1.45 -0.65 1.45 -0.65 1.4 -0.55 Q1.4 -0.5 1.45 -0.5 L1.5 -0.45 1.55 -0.4 1.55 -0.5 1.55 -0.55 1.6 -0.4 1.6 -0.3 1.5 -0.4 1.45 -0.5 1.4 -0.45 1.35 -0.4 1.3 -0.4 1.25 -0.35 1.15 -0.35 1.2 -0.35 1.25 -0.4 1.35 -0.45 1.35 -0.5 1.3 -0.55 1.25 -0.6 1.25 -0.65 1.2 -0.7 1.15 -0.75 1.1 -0.75 1.05 -0.65 Q1.0 -0.65 1.05 -0.65 L1.1 -0.65 1.05 -0.6 1.0 -0.6 1.0 -0.65 0.95 -0.65 1.0 -0.75 1.05 -0.85 1.05 -0.85 1.1 -0.8 Q1.1 -0.75 1.15 -0.8 L1.25 -0.8 1.3 -0.85 Q1.3 -0.9 1.25 -0.9 L1.2 -0.9 Q1.1 -0.85 1.1 -0.95 L1.05 -1.0 1.05 -1.05 1.0 -1.0 Q1.0 -0.95 0.95 -1.0 L1.0 -1.0 1.0 -1.05 0.85 -1.2 0.9 -1.2 1.0 -1.15 1.1 -1.05 1.1 -0.95 1.15 -0.9 1.2 -0.9 1.3 -0.9 1.35 -0.9 1.35 -0.95 1.3 -1.0 1.25 -1.05 1.25 -1.1 M0.85 -1.2 L0.85 -1.2 M1.0 -0.6 L1.0 -0.6 M1.35 -0.8 L1.35 -0.85 1.3 -0.85 1.25 -0.75 1.3 -0.75 1.35 -0.8 1.35 -0.8" fill="#f68933" fill-rule="evenodd" stroke="none"/>
    <path d="M0.85 -1.2 L1.0 -1.05 0.85 -1.0 0.8 -1.1 0.85 -1.2" fill="#8b5a37" fill-rule="evenodd" stroke="none"/>
    <path d="M0.85 -1.2 L0.85 -1.2 0.8 -1.1 0.85 -1.0 1.0 -1.05 1.0 -1.0 0.95 -1.0 0.9 -1.0 0.85 -1.0 Q0.8 -1.0 0.8 -1.0 L0.8 -1.1 0.85 -1.2" fill="#c3753c" fill-rule="evenodd" stroke="none"/>
    <path d="M0.65 -1.2 L0.65 -1.0 0.6 -1.0 0.6 -1.05 0.55 -1.05 0.6 -1.05 Q0.65 -1.05 0.65 -1.1 L0.6 -1.15 0.55 -1.2 0.5 -1.15 0.5 -1.1 0.45 -1.15 0.5 -1.2 0.55 -1.25 0.65 -1.25 Q0.7 -1.25 0.65 -1.2" fill="#d98040" fill-rule="evenodd" stroke="none"/>
    <path d="M0.6 -0.95 L0.6 -0.9 0.55 -0.9 Q0.4 -0.95 0.45 -1.05 L0.45 -1.05 0.5 -1.1 0.55 -1.05 0.55 -1.0 0.6 -0.95" fill="#ffce4a" fill-rule="evenodd" stroke="none"/>
    <path d="M0.7 -0.85 L0.75 -0.8 0.8 -0.75 Q0.9 -0.75 0.8 -0.65 L0.75 -0.65 0.7 -0.75 0.65 -0.8 0.7 -0.85" fill="#ffd04b" fill-rule="evenodd" stroke="none"/>
    <path d="M0.6 -0.9 L0.65 -0.9 0.7 -0.9 0.7 -0.85 0.6 -0.85 Q0.6 -0.85 0.6 -0.9" fill="#cd7e45" fill-rule="evenodd" stroke="none"/>
    <path d="M0.95 -0.65 L1.0 -0.65 1.0 -0.6 Q0.95 -0.55 1.0 -0.5 L1.05 -0.45 1.05 -0.4 1.1 -0.4 1.05 -0.4 1.0 -0.4 0.95 -0.4 0.95 -0.35 1.0 -0.3 1.05 -0.3 1.1 -0.3 1.1 -0.35 1.15 -0.35 1.25 -0.35 1.3 -0.4 1.35 -0.4 1.25 -0.35 Q1.2 -0.3 1.15 -0.3 1.1 -0.2 1.0 -0.25 L0.9 -0.35 0.85 -0.4 Q0.8 -0.45 0.75 -0.45 0.65 -0.5 0.65 -0.6 L0.5 -0.6 0.4 -0.6 0.4 -0.6 0.45 -0.55 0.5 -0.5 0.5 -0.4 0.55 -0.35 0.65 -0.3 0.75 -0.2 0.7 -0.05 0.7 0.1 0.65 0.3 0.75 0.25 Q0.8 0.2 0.85 0.2 L0.75 0.25 0.65 0.4 0.7 0.45 0.65 0.45 0.6 0.4 0.55 0.4 0.5 0.4 0.45 0.4 0.5 0.3 0.55 0.2 0.55 0.05 Q0.55 -0.05 0.5 -0.05 L0.4 -0.1 0.35 -0.1 0.3 -0.1 0.4 -0.15 0.5 -0.15 0.55 -0.25 0.5 -0.3 0.45 -0.4 0.45 -0.5 0.4 -0.5 0.35 -0.5 0.35 -0.6 0.3 -0.75 0.1 -0.75 -0.1 -0.75 -0.2 -0.75 -0.3 -0.7 -0.4 -0.7 -0.45 -0.65 -0.5 -0.65 -0.45 -0.7 -0.45 -0.7 -0.3 -0.75 -0.15 -0.8 -0.1 -0.85 0.0 -0.85 0.25 -0.85 0.25 -0.8 0.3 -0.85 0.25 -0.95 0.2 -1.05 0.2 -1.05 0.25 -1.1 0.3 -0.95 0.4 -1.0 0.45 -0.9 0.55 -0.8 0.6 -0.85 0.6 -0.9 Q0.6 -0.85 0.6 -0.85 L0.7 -0.85 0.65 -0.8 0.6 -0.75 0.7 -0.65 0.85 -0.6 0.85 -0.65 0.9 -0.7 0.9 -0.65 Q0.95 -0.65 0.95 -0.65 M-0.5 -0.65 L-0.5 -0.65 M0.6 -0.7 L0.55 -0.75 0.45 -0.85 0.45 -0.85 0.4 -0.8 0.4 -0.75 0.45 -0.65 0.55 -0.6 0.65 -0.65 0.65 -0.65 0.6 -0.7 M0.9 -0.45 L0.9 -0.55 0.85 -0.55 0.8 -0.6 0.75 -0.6 0.75 -0.5 0.8 -0.45 0.9 -0.45 M1.05 -0.45 L1.05 -0.45" fill="#fc8f38" fill-rule="evenodd" stroke="none"/>
    <path d="M0.6 -0.7 L0.55 -0.7 0.5 -0.75 0.45 -0.85 0.55 -0.75 0.6 -0.7" fill="#cf793d" fill-rule="evenodd" stroke="none"/>
    <path d="M0.45 -0.85 L0.5 -0.75 0.55 -0.7 0.6 -0.7 0.65 -0.65 0.65 -0.65 Q0.55 -0.6 0.45 -0.65 0.4 -0.75 0.4 -0.8 L0.45 -0.85 0.45 -0.85" fill="#966037" fill-rule="evenodd" stroke="none"/>
    <path d="M1.05 -0.85 L1.0 -0.75 0.95 -0.65 Q0.95 -0.65 0.9 -0.65 L0.9 -0.7 Q0.95 -0.7 0.95 -0.75 L0.9 -0.85 Q0.9 -0.85 0.85 -0.85 L0.85 -0.8 0.9 -0.75 0.8 -0.8 Q0.8 -0.85 0.8 -0.9 L0.9 -0.9 1.05 -0.85" fill="#c5773c" fill-rule="evenodd" stroke="none"/>
    <path d="M0.15 -1.15 L0.2 -1.2 0.2 -1.25 0.25 -1.25 0.3 -1.2 0.35 -1.15 0.25 -1.15 0.2 -1.1 0.2 -1.0 0.15 -0.95 0.1 -0.95 0.0 -0.9 -0.1 -0.9 Q-0.15 -0.9 -0.2 -0.85 L-0.3 -0.8 Q-0.45 -0.75 -0.5 -0.7 L-0.55 -0.6 Q-0.6 -0.5 -0.65 -0.5 L-0.55 -0.65 -0.45 -0.8 Q-0.35 -0.9 -0.2 -0.95 L0.15 -1.05 0.15 -1.15" fill="#ffc74c" fill-rule="evenodd" stroke="none"/>
    <path d="M0.4 -1.0 L0.3 -0.95 0.25 -1.1 0.35 -1.05 0.4 -1.0" fill="#b26e3d" fill-rule="evenodd" stroke="none"/>
    <path d="M0.1 -1.15 L0.15 -1.15 0.15 -1.05 -0.2 -0.95 Q-0.35 -0.9 -0.45 -0.8 L-0.55 -0.65 -0.65 -0.5 -0.75 -0.35 -0.75 -0.25 -0.8 -0.15 -0.85 0.0 -0.85 0.2 -0.85 0.4 -0.85 0.45 -0.9 0.5 -0.9 0.45 -0.95 0.45 -1.0 0.4 -1.0 0.4 -0.95 0.4 -0.9 0.4 -0.9 0.35 -1.1 0.2 -1.15 0.25 -1.15 0.3 -1.1 0.35 -1.05 0.4 -1.05 0.4 -1.15 0.4 -1.25 0.4 Q-1.25 0.4 -1.25 0.35 L-1.3 0.25 -1.25 0.25 -1.25 0.25 -1.2 0.25 -1.15 0.2 -1.15 0.15 -1.2 0.15 -1.1 0.15 -1.0 0.15 -1.0 0.05 -0.95 -0.05 -0.85 -0.2 Q-0.75 -0.3 -0.75 -0.35 L-0.75 -0.45 -0.65 -0.55 -0.6 -0.6 -0.6 -0.7 -0.55 -0.75 -0.45 -0.8 -0.4 -0.95 -0.25 -0.95 -0.15 -1.0 0.0 -1.05 0.1 -1.05 0.15 -1.1 0.1 -1.15 M-0.65 -0.5 L-0.65 -0.5" fill="#ffdc57" fill-rule="evenodd" stroke="none"/>
    <path d="M0.0 -0.7 L0.05 -0.7 0.05 -0.55 0.0 -0.45 -0.05 -0.5 -0.05 -0.6 0.0 -0.7" fill="#714627" fill-rule="evenodd" stroke="none"/>
    <path d="M-0.05 -0.5 L0.0 -0.45 0.05 -0.55 0.05 -0.7 0.0 -0.7 0.05 -0.7 0.15 -0.65 0.1 -0.55 0.1 -0.45 0.15 -0.45 0.1 -0.35 0.05 -0.35 0.05 -0.35 0.05 -0.5 0.0 -0.4 -0.05 -0.35 Q-0.1 -0.35 -0.1 -0.4 L-0.05 -0.5" fill="#9a582d" fill-rule="evenodd" stroke="none"/>
    <path d="M-0.45 -0.65 L-0.4 -0.65 -0.35 -0.65 -0.25 -0.7 -0.2 -0.7 -0.15 -0.7 -0.1 -0.65 -0.05 -0.7 0.05 -0.7 0.2 -0.7 0.3 -0.7 0.3 -0.65 0.3 -0.5 Q0.3 -0.5 0.35 -0.5 L0.25 -0.4 0.2 -0.35 0.15 -0.3 0.3 -0.3 0.45 -0.35 0.45 -0.3 0.5 -0.25 Q0.55 -0.2 0.45 -0.15 L0.45 -0.3 0.35 -0.25 0.25 -0.2 0.2 -0.2 0.15 -0.15 0.1 -0.15 Q0.05 -0.1 0.05 -0.15 L0.15 -0.2 0.2 -0.25 0.15 -0.25 0.05 -0.25 0.1 -0.25 0.1 -0.3 0.05 -0.3 0.05 -0.3 0.0 -0.3 0.0 -0.35 -0.05 -0.3 -0.05 -0.25 -0.1 -0.35 -0.1 -0.4 -0.15 -0.35 -0.2 -0.3 -0.2 -0.35 -0.25 -0.35 -0.25 -0.35 -0.25 -0.3 -0.3 -0.3 -0.35 -0.35 -0.35 -0.25 -0.4 -0.25 -0.45 -0.3 Q-0.4 -0.3 -0.4 -0.35 L-0.45 -0.4 -0.5 -0.4 -0.5 -0.5 -0.4 -0.45 -0.35 -0.35 Q-0.3 -0.35 -0.3 -0.4 L-0.35 -0.5 -0.35 -0.6 Q-0.4 -0.65 -0.45 -0.65 M-0.05 -0.5 L-0.1 -0.4 Q-0.1 -0.35 -0.05 -0.35 L0.0 -0.4 0.05 -0.5 0.05 -0.35 0.05 -0.35 0.1 -0.35 0.15 -0.45 0.3 -0.6 Q0.3 -0.7 0.15 -0.65 L0.05 -0.7 0.0 -0.7 -0.05 -0.6 -0.05 -0.5 M-0.2 -0.7 L-0.2 -0.7 -0.3 -0.65 -0.25 -0.5 -0.25 -0.45 -0.15 -0.4 Q-0.15 -0.55 -0.2 -0.7" fill="#c36933" fill-rule="evenodd" stroke="none"/>
    <path d="M-0.45 -0.65 L-0.4 -0.7 -0.3 -0.7 -0.2 -0.75 -0.1 -0.75 0.1 -0.75 0.3 -0.75 0.35 -0.6 0.35 -0.5 Q0.3 -0.5 0.3 -0.5 L0.3 -0.65 0.3 -0.7 0.2 -0.7 0.05 -0.7 -0.05 -0.7 -0.1 -0.65 -0.15 -0.7 -0.2 -0.7 -0.25 -0.7 -0.35 -0.65 -0.4 -0.65 -0.45 -0.65 -0.45 -0.65 M0.35 -0.5 L0.35 -0.5" fill="#f27933" fill-rule="evenodd" stroke="none"/>
    <path d="M0.4 -0.8 Q0.4 -0.75 0.45 -0.65 0.55 -0.6 0.65 -0.65 L0.55 -0.6 0.45 -0.65 0.4 -0.75 0.4 -0.8" fill="#c57139" fill-rule="evenodd" stroke="none"/>
    <path d="M0.35 -0.5 L0.4 -0.5 0.45 -0.5 0.45 -0.35 0.3 -0.3 0.15 -0.3 0.2 -0.35 0.25 -0.4 0.35 -0.5 0.35 -0.5" fill="#835331" fill-rule="evenodd" stroke="none"/>
    <path d="M1.35 -0.4 L1.4 -0.45 1.45 -0.5 1.5 -0.4 1.6 -0.3 1.6 0.2 Q1.55 0.3 1.4 0.35 L1.35 0.25 1.25 0.15 1.15 0.1 1.05 0.1 0.95 0.15 0.9 0.2 0.85 0.2 Q0.8 0.2 0.75 0.25 L0.65 0.3 0.7 0.1 0.7 -0.05 0.75 -0.2 0.65 -0.3 0.55 -0.35 0.5 -0.4 0.5 -0.5 0.45 -0.55 0.4 -0.6 0.4 -0.6 0.5 -0.6 0.65 -0.6 Q0.65 -0.5 0.75 -0.45 0.8 -0.45 0.85 -0.4 L0.9 -0.35 1.0 -0.25 Q1.1 -0.2 1.15 -0.3 1.2 -0.3 1.25 -0.35 L1.35 -0.4 M1.25 -0.15 L1.2 -0.2 1.2 -0.25 1.15 -0.25 1.1 -0.2 1.05 -0.2 0.95 -0.2 0.95 0.05 1.0 0.05 1.1 0.05 1.15 0.1 1.2 0.1 1.25 0.0 1.25 -0.15 1.3 -0.05 1.25 0.0 Q1.2 0.05 1.25 0.1 1.3 0.15 1.35 0.15 L1.4 0.2 1.45 0.2 1.5 0.05 1.5 -0.1 1.5 -0.2 1.45 -0.35 1.35 -0.35 1.25 -0.25 1.25 -0.15" fill="#ffaf3f" fill-rule="evenodd" stroke="none"/>
    <path d="M0.45 -0.5 L0.45 -0.4 0.5 -0.3 0.55 -0.25 0.5 -0.15 0.4 -0.15 0.3 -0.1 0.35 -0.1 0.4 -0.1 0.5 -0.05 Q0.55 -0.05 0.55 0.05 L0.55 0.2 0.5 0.3 0.45 0.4 Q0.4 0.4 0.35 0.45 L0.25 0.55 0.15 0.55 0.0 0.55 -0.1 0.5 -0.2 0.5 -0.3 0.5 -0.45 0.5 -0.45 0.45 -0.4 0.45 -0.35 0.45 -0.35 0.45 -0.3 0.5 -0.25 0.5 -0.2 0.5 -0.15 0.45 Q-0.1 0.4 -0.1 0.45 L-0.05 0.5 0.0 0.5 0.05 0.5 0.1 0.5 0.15 0.5 0.25 0.5 0.3 0.45 0.3 0.4 0.4 0.35 0.45 0.3 0.5 0.2 0.45 0.15 0.45 0.1 0.45 -0.05 0.4 -0.05 0.3 -0.05 0.2 -0.05 0.05 -0.05 0.1 0.0 0.15 0.05 0.1 0.05 0.05 0.05 0.1 0.1 0.05 0.1 Q0.0 0.1 0.0 0.15 L-0.05 0.15 -0.05 0.1 -0.1 0.15 -0.1 0.15 -0.15 0.15 -0.15 0.1 -0.2 0.15 -0.2 0.15 -0.25 0.15 -0.3 0.1 -0.3 0.15 -0.35 0.15 -0.35 0.05 -0.3 0.1 -0.3 0.1 -0.25 0.1 -0.15 0.1 0.0 0.05 -0.1 0.05 Q-0.05 0.0 -0.05 -0.05 L-0.05 -0.2 -0.1 -0.25 -0.1 -0.3 -0.15 -0.3 -0.2 -0.3 -0.2 -0.3 -0.15 -0.35 -0.1 -0.4 -0.1 -0.35 -0.05 -0.25 -0.05 -0.3 0.0 -0.35 0.0 -0.3 0.05 -0.3 0.05 -0.3 0.1 -0.3 0.1 -0.25 0.05 -0.25 0.15 -0.25 0.2 -0.25 0.15 -0.2 0.05 -0.15 Q0.05 -0.1 0.1 -0.15 L0.15 -0.15 0.3 -0.15 0.45 -0.15 Q0.55 -0.2 0.5 -0.25 L0.45 -0.3 0.45 -0.35 0.45 -0.5" fill="#ed7532" fill-rule="evenodd" stroke="none"/>
    <path d="M0.15 -0.45 L0.1 -0.45 0.1 -0.55 0.15 -0.65 Q0.3 -0.7 0.3 -0.6 L0.15 -0.45" fill="#6a4429" fill-rule="evenodd" stroke="none"/>
    <path d="M0.15 -0.15 L0.2 -0.2 0.25 -0.2 0.35 -0.25 0.45 -0.3 0.45 -0.15 0.3 -0.15 0.15 -0.15" fill="#915830" fill-rule="evenodd" stroke="none"/>
    <path d="M-0.35 0.05 L-0.35 0.15 -0.3 0.15 -0.3 0.1 -0.25 0.15 -0.2 0.15 -0.2 0.15 -0.15 0.1 -0.15 0.15 -0.1 0.15 -0.1 0.15 -0.05 0.1 -0.05 0.15 0.0 0.15 Q0.0 0.1 0.05 0.1 L0.1 0.1 0.05 0.05 0.1 0.05 0.15 0.05 0.1 0.0 0.05 -0.05 0.2 -0.05 0.3 -0.05 0.25 -0.05 0.2 -0.05 Q0.15 -0.05 0.15 0.0 L0.45 0.1 0.45 0.15 0.5 0.2 0.45 0.3 0.4 0.35 0.3 0.4 0.3 0.45 0.25 0.5 0.15 0.5 0.1 0.5 0.05 0.5 0.05 0.45 0.0 0.3 -0.05 0.2 -0.1 0.2 -0.05 0.5 0.0 0.5 -0.05 0.5 -0.1 0.45 Q-0.1 0.4 -0.15 0.45 L-0.2 0.5 -0.15 0.35 -0.15 0.2 -0.2 0.2 -0.25 0.35 -0.3 0.5 -0.35 0.45 -0.35 0.45 -0.35 0.3 -0.3 0.2 -0.35 0.15 -0.5 0.35 -0.55 0.3 -0.6 0.3 -0.5 0.25 -0.45 0.15 -0.45 0.1 -0.5 0.1 -0.55 0.15 -0.65 0.15 -0.7 0.1 -0.6 0.05 -0.5 0.0 -0.5 -0.05 -0.45 -0.05 -0.4 0.0 -0.45 0.0 -0.5 0.05 -0.45 0.1 -0.35 0.05 M0.25 0.45 L0.3 0.4 0.25 0.3 0.15 0.2 0.1 0.15 0.05 0.15 0.1 0.3 0.05 0.4 0.15 0.45 0.25 0.45 M0.45 0.25 L0.45 0.15 0.3 0.1 0.2 0.1 0.15 0.1 0.15 0.15 0.25 0.25 0.35 0.3 0.45 0.25" fill="#c1652e" fill-rule="evenodd" stroke="none"/>
    <path d="M0.45 0.1 L0.15 0.0 Q0.15 -0.05 0.2 -0.05 L0.25 -0.05 0.3 -0.05 0.4 -0.05 0.45 -0.05 0.45 0.1" fill="#94582e" fill-rule="evenodd" stroke="none"/>
    <path d="M0.8 -0.6 L0.85 -0.55 0.9 -0.55 0.9 -0.45 0.85 -0.5 0.8 -0.6" fill="#d77a36" fill-rule="evenodd" stroke="none"/>
    <path d="M1.0 -0.6 L1.0 -0.6 1.0 -0.5 1.05 -0.45 1.0 -0.5 Q0.95 -0.55 1.0 -0.6 M1.05 -0.45 L1.05 -0.45" fill="#c26d33" fill-rule="evenodd" stroke="none"/>
    <path d="M0.9 -0.45 L0.8 -0.45 0.75 -0.5 0.75 -0.6 0.8 -0.6 0.85 -0.5 0.9 -0.45" fill="#9f6235" fill-rule="evenodd" stroke="none"/>
    <path d="M1.1 -0.35 L1.1 -0.3 1.05 -0.3 1.0 -0.3 0.95 -0.35 0.95 -0.4 1.0 -0.4 1.05 -0.4 1.1 -0.4 1.1 -0.35" fill="#bc6b33" fill-rule="evenodd" stroke="none"/>
    <path d="M1.25 -0.15 L1.25 0.0 1.2 0.1 1.15 0.1 1.1 0.05 1.0 0.05 0.95 0.05 0.95 -0.2 1.05 -0.2 1.1 -0.2 1.15 -0.25 1.2 -0.25 1.2 -0.2 1.25 -0.15" fill="#ffcb43" fill-rule="evenodd" stroke="none"/>
    <path d="M1.6 -0.4 L1.55 -0.55 1.55 -0.5 1.55 -0.4 1.5 -0.45 1.45 -0.5 Q1.4 -0.5 1.4 -0.55 L1.45 -0.65 1.4 -0.55 1.5 -0.5 1.5 -0.6 1.5 -0.6 1.55 -0.6 1.55 -0.8 1.55 -0.75 1.6 -0.7 1.6 -0.55 1.65 -0.45 1.6 -0.4 M1.45 -0.65 L1.45 -0.65" fill="#c87333" fill-rule="evenodd" stroke="none"/>
    <path d="M1.45 -0.65 L1.45 -0.65 1.4 -0.65 1.4 -0.6 1.35 -0.55 1.3 -0.6 1.3 -0.7 1.35 -0.75 1.4 -0.8 1.4 -0.9 1.5 -0.85 1.55 -0.8 1.55 -0.6 1.5 -0.6 1.5 -0.6 1.45 -0.65 1.45 -0.65 1.55 -0.65 1.5 -0.8 1.45 -0.85 1.4 -0.75 1.35 -0.7 1.35 -0.65 1.4 -0.65 1.45 -0.65" fill="#fea531" fill-rule="evenodd" stroke="none"/>
    <path d="M1.15 -1.2 L1.2 -1.15 1.25 -1.1 1.25 -1.05 1.3 -1.0 1.2 -1.0 Q1.2 -1.05 1.2 -1.05 L1.2 -1.15 1.15 -1.2" fill="#aa642f" fill-rule="evenodd" stroke="none"/>
    <path d="M1.5 -0.85 L1.45 -0.9 1.45 -0.95 1.4 -1.0 1.4 -1.05 1.4 -1.05 1.45 -0.95 1.55 -0.8 1.5 -0.85" fill="#be6b2f" fill-rule="evenodd" stroke="none"/>
    <path d="M1.1 -0.65 L1.05 -0.65 Q1.0 -0.65 1.05 -0.65 L1.1 -0.75 1.15 -0.75 1.2 -0.7 1.25 -0.65 1.1 -0.65" fill="#97592b" fill-rule="evenodd" stroke="none"/>
    <path d="M1.05 -0.6 L1.1 -0.65 1.25 -0.65 1.25 -0.6 1.3 -0.55 1.35 -0.5 1.35 -0.45 1.25 -0.4 1.2 -0.35 1.2 -0.4 1.25 -0.45 1.3 -0.5 1.2 -0.6 1.1 -0.6 1.05 -0.6" fill="#be682c" fill-rule="evenodd" stroke="none"/>
    <path d="M1.45 -0.85 L1.5 -0.8 1.55 -0.65 1.45 -0.65 1.4 -0.65 1.35 -0.65 1.35 -0.7 1.4 -0.75 1.45 -0.85" fill="#ffe632" fill-rule="evenodd" stroke="none"/>
    <path d="M1.35 -0.8 L1.35 -0.8 1.3 -0.75 1.25 -0.75 1.3 -0.85 1.35 -0.85 1.35 -0.8" fill="#a55f29" fill-rule="evenodd" stroke="none"/>
    <path d="M1.5 -0.6 L1.5 -0.5 1.4 -0.55 1.45 -0.65 1.5 -0.6" fill="#86542c" fill-rule="evenodd" stroke="none"/>
    <path d="M1.25 -0.15 L1.25 -0.25 1.35 -0.35 1.45 -0.35 1.5 -0.2 1.5 -0.1 1.5 -0.2 1.4 -0.3 1.35 -0.3 1.3 -0.3 Q1.25 -0.25 1.25 -0.2 L1.3 -0.1 1.3 -0.05 1.25 0.0 Q1.25 0.1 1.3 0.1 L1.35 0.15 Q1.3 0.15 1.25 0.1 1.2 0.05 1.25 0.0 L1.3 -0.05 1.25 -0.15 M1.5 -0.1 L1.5 -0.1" fill="#f78f3b" fill-rule="evenodd" stroke="none"/>
    <path d="M1.3 0.1 Q1.25 0.1 1.25 0.0 L1.3 -0.05 1.3 -0.1 1.25 -0.2 Q1.25 -0.25 1.3 -0.3 L1.35 -0.3 1.4 -0.3 1.35 -0.3 1.3 -0.2 1.3 -0.05 1.3 0.1" fill="#ac6535" fill-rule="evenodd" stroke="none"/>
    <path d="M1.1 -0.6 L1.2 -0.6 1.3 -0.5 1.25 -0.45 1.2 -0.4 1.1 -0.5 Q1.05 -0.55 1.1 -0.6" fill="#5b3e27" fill-rule="evenodd" stroke="none"/>
    <path d="M1.0 -0.6 L1.05 -0.6 1.1 -0.6 Q1.05 -0.55 1.1 -0.5 L1.2 -0.4 1.2 -0.35 1.15 -0.35 1.1 -0.35 1.1 -0.4 1.05 -0.4 1.05 -0.45 1.05 -0.45 1.0 -0.5 1.0 -0.6" fill="#8c562e" fill-rule="evenodd" stroke="none"/>
    <path d="M1.3 0.1 L1.3 -0.05 1.3 -0.2 1.35 -0.3 1.4 -0.3 1.45 -0.1 1.4 0.15 1.3 0.1" fill="#6c4832" fill-rule="evenodd" stroke="none"/>
    <path d="M1.4 -0.3 L1.5 -0.2 1.5 -0.1 1.5 0.0 1.45 0.15 1.4 0.15 1.45 -0.1 1.4 -0.3" fill="#c1703a" fill-rule="evenodd" stroke="none"/>
    <path d="M1.5 -0.1 L1.5 0.05 1.45 0.2 1.4 0.2 1.35 0.15 1.4 0.15 1.45 0.15 1.5 0.0 1.5 -0.1 1.5 -0.1" fill="#f99040" fill-rule="evenodd" stroke="none"/>
    <path d="M0.45 2.2 L0.3 2.2 0.3 2.1 0.25 2.0 Q0.25 1.95 0.3 1.95 L0.35 1.9 0.3 1.85 0.25 1.8 0.3 1.75 0.7 1.6 1.1 1.3 1.2 1.2 1.3 1.1 1.55 0.95 1.65 0.85 1.7 0.75 1.8 0.6 1.85 0.45 1.9 0.25 1.9 0.0 1.9 -0.5 1.95 -0.55 1.9 -0.6 1.9 -0.6 1.95 -0.65 2.0 -0.6 2.0 -0.25 2.0 -0.1 Q1.95 0.0 2.0 0.05 L1.95 0.3 Q1.9 0.45 1.95 0.55 L1.9 0.6 1.85 0.7 1.8 0.8 1.8 0.9 1.7 1.0 1.6 1.05 1.55 1.1 1.5 1.1 1.4 1.1 1.3 1.15 1.25 1.25 1.15 1.3 1.05 1.4 0.95 1.5 1.05 1.55 Q1.05 1.65 1.0 1.7 L0.95 1.7 0.9 1.75 0.85 1.7 0.8 1.7 0.85 1.75 0.85 1.85 0.85 1.9 0.75 2.0 0.6 2.05 0.45 2.1 0.45 2.2" fill="#4e3525" fill-rule="evenodd" stroke="none"/>
    <path d="M2.2 -0.4 L2.2 0.05 Q2.15 0.0 2.1 0.05 2.05 0.1 2.1 0.15 L2.05 0.4 2.0 0.6 1.95 0.75 1.95 0.85 1.85 0.95 1.8 1.05 1.8 1.2 1.75 1.2 1.65 1.25 1.55 1.3 Q1.4 1.35 1.35 1.4 1.3 1.4 1.3 1.45 L1.35 1.5 1.3 1.55 1.35 1.55 1.3 1.65 1.25 1.65 Q1.2 1.65 1.15 1.7 L1.1 1.75 1.05 1.8 1.0 1.85 0.9 1.95 0.85 2.0 0.8 2.05 0.7 2.1 0.7 2.2 0.45 2.2 0.45 2.1 0.6 2.05 0.75 2.0 0.85 1.9 0.85 1.85 0.85 1.75 0.8 1.7 0.85 1.7 0.9 1.75 0.95 1.7 1.0 1.7 Q1.05 1.65 1.05 1.55 L0.95 1.5 1.05 1.4 1.15 1.3 1.25 1.25 1.3 1.15 1.4 1.1 1.5 1.1 1.55 1.1 1.6 1.05 1.7 1.0 1.8 0.9 1.8 0.8 1.85 0.7 1.9 0.6 1.95 0.55 Q1.9 0.45 1.95 0.3 L2.0 0.05 Q1.95 0.0 2.0 -0.1 L2.0 -0.25 2.0 -0.6 2.05 -0.55 2.1 -0.5 2.15 -0.45 2.2 -0.4" fill="#482f21" fill-rule="evenodd" stroke="none"/>
    <path d="M1.6 -0.3 L1.6 -0.4 1.65 -0.45 1.6 -0.55 1.6 -0.7 Q1.65 -0.55 1.65 -0.35 L1.7 -0.1 1.7 0.15 Q1.65 0.45 1.55 0.65 L1.55 0.6 1.6 0.5 1.65 0.4 1.65 0.25 1.6 0.25 1.6 0.3 1.6 0.2 1.6 -0.3" fill="#a36238" fill-rule="evenodd" stroke="none"/>
    <path d="M2.2 -1.7 L2.2 -1.7 2.1 -1.7 Q2.05 -1.75 2.05 -1.8 L2.05 -1.8 2.05 -1.85 2.1 -1.85 2.15 -1.8 2.1 -1.75 2.15 -1.7 2.2 -1.7" fill="#5f5047" fill-rule="evenodd" stroke="none"/>
    <path d="M2.2 0.05 L2.2 1.0 2.15 0.95 2.1 0.95 2.0 1.05 1.95 1.15 Q2.0 1.2 1.95 1.25 L1.9 1.35 1.8 1.4 1.7 1.4 Q1.6 1.4 1.65 1.5 L1.65 1.6 1.7 1.65 1.6 1.7 1.55 1.7 1.5 1.75 1.35 1.75 1.25 1.75 1.0 1.95 0.75 2.2 0.7 2.2 0.7 2.1 0.8 2.05 0.85 2.0 0.9 1.95 1.0 1.85 1.05 1.8 1.1 1.75 1.15 1.7 Q1.2 1.65 1.25 1.65 L1.3 1.65 1.35 1.55 1.3 1.55 1.35 1.5 1.3 1.45 Q1.3 1.4 1.35 1.4 1.4 1.35 1.55 1.3 L1.65 1.25 1.75 1.2 1.8 1.2 1.8 1.05 1.85 0.95 1.95 0.85 1.95 0.75 2.0 0.6 2.05 0.4 2.1 0.15 Q2.05 0.1 2.1 0.05 2.15 0.0 2.2 0.05" fill="#432c1c" fill-rule="evenodd" stroke="none"/>
    <path d="M2.2 1.0 L2.2 1.4 2.0 1.45 Q1.85 1.5 1.9 1.6 L1.95 1.6 1.9 1.65 1.85 1.65 Q1.8 1.65 1.75 1.7 L1.65 1.75 1.55 1.8 1.45 1.8 1.3 1.8 1.25 1.9 Q1.25 1.95 1.35 1.95 L1.4 1.9 1.45 1.9 1.45 2.0 1.4 2.1 1.35 2.1 1.25 2.05 1.25 2.1 1.2 2.1 Q1.15 2.1 1.2 2.05 L1.2 2.0 1.15 2.0 1.1 2.05 1.0 2.1 Q0.95 2.1 0.95 2.2 L0.75 2.2 1.0 1.95 1.25 1.75 1.35 1.75 1.5 1.75 1.55 1.7 1.6 1.7 1.7 1.65 1.65 1.6 1.65 1.5 Q1.6 1.4 1.7 1.4 L1.8 1.4 1.9 1.35 1.95 1.25 Q2.0 1.2 1.95 1.15 L2.0 1.05 2.1 0.95 2.15 0.95 2.2 1.0" fill="#3b2618" fill-rule="evenodd" stroke="none"/>
    <path d="M2.2 1.65 L2.2 2.2 1.95 2.2 2.0 2.1 2.0 1.95 2.05 1.9 2.1 1.85 2.1 1.8 2.05 1.75 2.05 1.65 Q2.05 1.6 2.1 1.65 2.15 1.65 2.2 1.65" fill="#38291d" fill-rule="evenodd" stroke="none"/>
    <path d="M2.2 1.4 L2.2 1.65 Q2.15 1.65 2.1 1.65 2.05 1.6 2.05 1.65 L2.05 1.75 2.1 1.8 2.1 1.85 2.05 1.9 2.0 1.95 2.0 2.1 1.95 2.2 0.95 2.2 Q0.95 2.1 1.0 2.1 L1.1 2.05 1.15 2.0 1.2 2.0 1.2 2.05 Q1.15 2.1 1.2 2.1 L1.25 2.1 1.25 2.05 1.35 2.1 1.4 2.1 1.45 2.0 1.45 1.9 1.4 1.9 1.35 1.95 Q1.25 1.95 1.25 1.9 L1.3 1.8 1.45 1.8 1.55 1.8 1.65 1.75 1.75 1.7 Q1.8 1.65 1.85 1.65 L1.9 1.65 1.95 1.6 1.9 1.6 Q1.85 1.5 2.0 1.45 L2.2 1.4" fill="#322215" fill-rule="evenodd" stroke="none"/>
    <path d="M1.6 0.3 L1.6 0.25 1.65 0.25 1.65 0.4 1.6 0.5 1.6 0.45 1.55 0.45 1.5 0.45 1.45 0.45 1.5 0.35 1.55 0.35 1.6 0.3" fill="#d57840" fill-rule="evenodd" stroke="none"/>
    <path d="M0.75 0.25 L0.85 0.2 0.9 0.2 0.95 0.15 1.05 0.1 1.15 0.1 1.25 0.15 1.35 0.25 1.4 0.35 Q1.55 0.3 1.6 0.2 L1.6 0.3 1.55 0.35 1.5 0.35 1.45 0.35 1.45 0.4 1.4 0.45 1.45 0.45 1.5 0.45 1.55 0.45 1.6 0.45 1.6 0.5 1.55 0.6 1.55 0.65 1.5 0.7 1.5 0.65 1.55 0.6 1.55 0.5 Q1.55 0.5 1.5 0.5 L1.4 0.45 1.35 0.4 Q1.3 0.4 1.3 0.45 L1.3 0.5 1.35 0.6 1.4 0.65 1.4 0.7 1.5 0.7 1.45 0.75 1.4 0.75 1.35 0.75 1.35 0.6 1.25 0.55 Q1.25 0.55 1.25 0.5 1.25 0.45 1.3 0.4 L1.35 0.35 1.35 0.3 1.3 0.25 1.25 0.25 1.2 0.2 1.1 0.15 1.05 0.1 Q1.0 0.1 1.0 0.15 L0.95 0.2 1.0 0.2 1.05 0.25 1.0 0.3 0.95 0.35 0.95 0.3 0.85 0.25 0.8 0.25 0.75 0.25" fill="#f88a46" fill-rule="evenodd" stroke="none"/>
    <path d="M1.55 0.6 L1.55 0.55 Q1.55 0.5 1.5 0.5 L1.4 0.5 Q1.4 0.45 1.35 0.45 L1.35 0.55 1.4 0.6 1.45 0.7 1.5 0.65 1.5 0.7 1.4 0.7 1.4 0.65 1.35 0.6 1.3 0.5 1.3 0.45 Q1.3 0.4 1.35 0.4 L1.4 0.45 1.5 0.5 Q1.55 0.5 1.55 0.5 L1.55 0.6" fill="#ffb548" fill-rule="evenodd" stroke="none"/>
    <path d="M1.5 0.65 L1.45 0.7 1.4 0.6 1.35 0.55 1.35 0.45 Q1.4 0.45 1.4 0.5 L1.5 0.5 Q1.55 0.5 1.55 0.55 L1.55 0.6 1.5 0.65" fill="#ffeb4a" fill-rule="evenodd" stroke="none"/>
    <path d="M1.3 0.25 L1.3 0.4 1.2 0.45 1.25 0.5 1.2 0.55 1.25 0.55 1.25 0.6 1.2 0.6 1.15 0.6 1.1 0.55 1.05 0.5 1.0 0.45 1.05 0.45 1.1 0.45 1.15 0.4 1.25 0.35 Q1.35 0.3 1.25 0.25 L1.3 0.25" fill="#8f5444" fill-rule="evenodd" stroke="none"/>
    <path d="M1.3 0.25 L1.35 0.3 1.35 0.35 1.3 0.4 Q1.25 0.45 1.25 0.5 L1.2 0.45 1.3 0.4 1.3 0.25" fill="#c26844" fill-rule="evenodd" stroke="none"/>
    <path d="M1.4 0.15 L1.35 0.15 1.3 0.1 1.4 0.15" fill="#b4653d" fill-rule="evenodd" stroke="none"/>
    <path d="M1.1 0.45 L1.05 0.45 1.0 0.45 1.05 0.5 1.1 0.55 Q1.1 0.55 1.1 0.6 L1.1 0.7 1.05 0.7 1.0 0.7 1.05 0.7 1.05 0.65 1.0 0.55 0.95 0.45 1.0 0.45 0.9 0.4 0.8 0.4 Q0.9 0.35 0.85 0.25 L0.95 0.3 0.95 0.35 1.0 0.3 1.05 0.25 1.0 0.2 0.95 0.2 1.0 0.15 Q1.0 0.1 1.05 0.1 L1.1 0.15 1.2 0.2 Q1.15 0.2 1.1 0.25 L1.05 0.3 1.0 0.35 1.0 0.4 1.05 0.45 1.1 0.45" fill="#ba6a45" fill-rule="evenodd" stroke="none"/>
    <path d="M1.25 0.25 Q1.35 0.3 1.25 0.35 L1.15 0.4 1.1 0.45 1.05 0.45 1.05 0.35 1.15 0.25 1.25 0.25" fill="#563b3b" fill-rule="evenodd" stroke="none"/>
    <path d="M1.25 0.25 L1.15 0.25 1.05 0.35 1.05 0.45 1.0 0.4 1.0 0.35 1.05 0.3 1.1 0.25 Q1.15 0.2 1.2 0.2 L1.25 0.25" fill="#895641" fill-rule="evenodd" stroke="none"/>
    <path d="M1.1 0.55 L1.15 0.6 1.2 0.6 1.25 0.65 1.35 0.7 Q1.35 0.75 1.2 0.75 L1.15 0.75 1.15 0.85 1.1 0.85 1.05 0.85 0.9 0.8 Q0.8 0.8 0.75 0.85 L0.7 0.8 Q0.7 0.75 0.75 0.75 L0.75 0.65 0.9 0.7 1.0 0.7 1.05 0.7 1.1 0.7 1.1 0.6 Q1.1 0.55 1.1 0.55" fill="#f98746" fill-rule="evenodd" stroke="none"/>
    <path d="M1.25 0.5 Q1.25 0.55 1.25 0.55 L1.35 0.6 1.35 0.75 1.4 0.75 1.45 0.75 1.5 0.7 1.45 0.8 1.4 0.85 1.35 0.85 1.3 0.85 1.25 0.95 Q1.25 1.0 1.3 1.0 L1.3 1.05 1.25 1.05 1.25 0.95 1.25 0.85 1.3 0.75 1.25 0.75 1.2 0.75 Q1.35 0.75 1.35 0.7 L1.25 0.65 1.2 0.6 1.25 0.6 1.25 0.55 1.2 0.55 1.25 0.5 M1.4 0.9 L1.4 0.85 1.4 0.9" fill="#bd6643" fill-rule="evenodd" stroke="none"/>
    <path d="M1.45 0.45 L1.4 0.45 1.45 0.4 1.45 0.35 1.5 0.35 1.45 0.45" fill="#9e5f3f" fill-rule="evenodd" stroke="none"/>
    <path d="M1.3 1.0 Q1.25 1.0 1.25 0.95 L1.3 0.85 1.35 0.85 1.4 0.85 1.4 0.9 1.35 0.95 1.3 1.0" fill="#f37f43" fill-rule="evenodd" stroke="none"/>
    <path d="M1.3 1.0 L1.35 0.95 1.4 0.9 1.4 0.85 1.4 0.95 1.2 1.15 1.0 1.3 0.95 1.3 0.95 1.25 0.85 1.3 0.75 1.35 0.8 1.3 0.85 1.25 1.0 1.2 1.1 1.1 1.2 1.0 1.2 0.85 1.25 0.8 1.25 0.75 1.15 0.8 1.1 0.9 1.15 0.85 1.15 0.75 1.2 0.75 1.25 0.75 1.3 0.75 1.25 0.85 1.25 0.95 1.25 1.05 1.3 1.05 1.3 1.0" fill="#8c5135" fill-rule="evenodd" stroke="none"/>
    <path d="M0.95 0.45 L1.0 0.55 1.05 0.65 1.05 0.7 1.0 0.7 0.9 0.7 0.75 0.65 0.8 0.6 Q0.85 0.55 0.85 0.55 L0.9 0.6 0.95 0.65 0.95 0.6 0.9 0.5 Q0.85 0.5 0.9 0.45 L0.95 0.45" fill="#9d5e41" fill-rule="evenodd" stroke="none"/>
    <path d="M1.05 0.9 L0.95 1.0 0.85 1.05 0.85 1.0 0.8 1.0 0.8 0.9 Q0.8 0.85 0.85 0.8 0.95 0.8 1.0 0.9 L1.05 0.9 M0.95 0.85 L0.9 0.85 0.85 0.85 Q0.8 0.85 0.8 0.9 L0.85 1.0 0.9 0.95 0.95 0.85" fill="#8c5235" fill-rule="evenodd" stroke="none"/>
    <path d="M1.15 0.85 L1.1 0.9 0.95 1.1 0.85 1.15 0.7 1.25 0.75 1.15 0.8 1.15 0.8 1.05 0.8 0.95 0.75 0.85 Q0.8 0.8 0.9 0.8 L1.05 0.85 1.1 0.85 1.15 0.85 M1.05 0.9 L1.0 0.9 Q0.95 0.8 0.85 0.8 0.8 0.85 0.8 0.9 L0.8 1.0 0.85 1.0 0.85 1.05 0.95 1.0 1.05 0.9" fill="#b16036" fill-rule="evenodd" stroke="none"/>
    <path d="M1.2 0.85 L1.2 1.0 1.1 1.1 1.0 1.2 0.85 1.25 0.85 1.2 0.9 1.15 Q1.05 1.05 1.15 0.85 L1.2 0.85" fill="#57382f" fill-rule="evenodd" stroke="none"/>
    <path d="M1.1 0.9 L1.15 0.8 1.25 0.75 1.25 0.8 1.2 0.85 1.15 0.85 Q1.05 1.05 0.9 1.15 L0.85 1.2 0.85 1.25 0.8 1.3 0.75 1.35 0.7 1.35 0.7 1.25 0.85 1.15 0.95 1.1 1.1 0.9" fill="#6f4430" fill-rule="evenodd" stroke="none"/>
    <path d="M1.4 0.95 L1.0 1.35 Q0.75 1.55 0.5 1.65 L0.25 1.75 -0.05 1.8 -0.1 1.9 -0.2 1.95 -0.3 1.95 -0.4 2.0 -0.4 2.15 -0.45 2.15 -0.45 2.1 Q-0.45 2.05 -0.5 2.05 L-0.6 2.05 -0.65 2.05 Q-0.7 2.0 -0.8 2.0 L-0.9 2.0 -1.0 1.95 -1.05 1.95 -1.05 1.9 Q-1.05 1.85 -1.0 1.9 L-0.9 1.95 -0.85 1.95 -0.75 1.95 -0.65 1.95 -0.55 1.95 -0.35 1.95 -0.2 1.85 Q-0.1 1.75 0.05 1.75 L0.1 1.75 Q0.45 1.7 0.7 1.55 L1.0 1.3 1.2 1.15 1.4 0.95" fill="#664430" fill-rule="evenodd" stroke="none"/>
    <path d="M0.65 0.45 L0.7 0.45 0.65 0.4 0.75 0.25 0.8 0.25 0.85 0.25 Q0.8 0.25 0.8 0.3 0.75 0.35 0.75 0.4 L0.7 0.5 0.6 0.55 0.65 0.6 0.7 0.65 0.65 0.65 0.6 0.7 0.55 0.65 0.55 0.6 0.5 0.65 0.45 0.7 0.45 0.65 0.55 0.6 0.65 0.5 0.65 0.45" fill="#cd6e37" fill-rule="evenodd" stroke="none"/>
    <path d="M0.65 0.45 L0.65 0.5 Q0.6 0.5 0.55 0.5 0.5 0.55 0.5 0.55 L0.45 0.65 0.45 0.7 0.4 0.7 0.4 0.6 Q0.4 0.55 0.5 0.5 0.55 0.45 0.65 0.45" fill="#84502d" fill-rule="evenodd" stroke="none"/>
    <path d="M0.6 0.4 L0.65 0.45 Q0.55 0.45 0.5 0.5 0.4 0.55 0.4 0.6 L0.35 0.6 0.4 0.55 Q0.45 0.45 0.6 0.4" fill="#b6612f" fill-rule="evenodd" stroke="none"/>
    <path d="M0.5 0.4 L0.55 0.4 0.6 0.4 Q0.45 0.45 0.4 0.55 0.4 0.5 0.4 0.45 L0.5 0.4" fill="#ee752f" fill-rule="evenodd" stroke="none"/>
    <path d="M0.65 0.5 L0.55 0.6 0.45 0.65 0.5 0.55 Q0.5 0.55 0.55 0.5 0.6 0.5 0.65 0.5" fill="#ac6031" fill-rule="evenodd" stroke="none"/>
    <path d="M0.8 0.4 L0.9 0.4 1.0 0.45 0.95 0.45 0.9 0.45 Q0.85 0.5 0.9 0.5 L0.9 0.55 0.85 0.55 Q0.85 0.55 0.8 0.6 L0.75 0.65 0.7 0.65 0.65 0.6 0.6 0.55 0.7 0.5 0.75 0.4 0.8 0.4" fill="#f88a41" fill-rule="evenodd" stroke="none"/>
    <path d="M0.85 0.25 Q0.9 0.35 0.8 0.4 L0.75 0.4 Q0.75 0.35 0.8 0.3 0.8 0.25 0.85 0.25" fill="#86563b" fill-rule="evenodd" stroke="none"/>
    <path d="M0.85 0.55 L0.9 0.55 0.9 0.5 0.95 0.6 0.95 0.65 0.9 0.6 0.85 0.55" fill="#d27545" fill-rule="evenodd" stroke="none"/>
    <path d="M0.45 0.25 L0.35 0.3 0.25 0.25 0.15 0.15 0.15 0.1 0.2 0.1 0.3 0.1 0.45 0.15 0.45 0.25" fill="#7b4b29" fill-rule="evenodd" stroke="none"/>
    <path d="M0.3 0.4 L0.25 0.45 0.2 0.35 Q0.2 0.3 0.1 0.25 L0.1 0.35 0.15 0.45 0.05 0.4 0.1 0.3 0.05 0.15 0.1 0.15 0.15 0.2 0.25 0.3 0.3 0.4" fill="#96562b" fill-rule="evenodd" stroke="none"/>
    <path d="M0.0 0.5 L-0.05 0.5 -0.1 0.2 -0.05 0.2 0.0 0.3 0.05 0.45 0.05 0.5 0.0 0.5" fill="#864f28" fill-rule="evenodd" stroke="none"/>
    <path d="M0.25 0.45 L0.15 0.45 0.1 0.35 0.1 0.25 Q0.2 0.3 0.2 0.35 L0.25 0.45" fill="#734727" fill-rule="evenodd" stroke="none"/>
    <path d="M0.45 0.4 L0.5 0.4 0.4 0.45 Q0.4 0.5 0.4 0.55 L0.35 0.6 0.3 0.7 0.2 0.85 0.2 0.9 Q0.2 0.85 0.25 0.8 L0.3 0.65 0.3 0.6 0.25 0.6 0.1 0.6 -0.05 0.6 -0.1 0.6 -0.2 0.6 -0.35 0.55 -0.45 0.5 -0.3 0.5 -0.2 0.5 -0.1 0.5 0.0 0.55 0.15 0.55 0.25 0.55 0.35 0.45 Q0.4 0.4 0.45 0.4 M-0.2 1.35 L-0.1 1.3 0.0 1.25 0.05 1.25 0.1 1.2 0.05 1.15 0.05 1.05 Q0.1 1.0 0.1 1.0 L0.15 1.0 0.2 0.95 0.2 0.9 0.25 0.9 0.25 0.95 0.3 1.0 0.25 1.05 0.2 1.1 0.15 1.15 Q0.1 1.15 0.15 1.2 0.15 1.25 0.2 1.3 L0.25 1.35 0.25 1.4 0.3 1.45 0.35 1.45 0.35 1.4 0.4 1.35 0.4 1.3 0.45 1.3 0.5 1.3 0.55 1.3 0.55 1.35 0.55 1.4 0.6 1.45 0.65 1.4 0.7 1.4 0.7 1.45 0.7 1.55 0.45 1.65 0.4 1.6 0.4 1.45 Q0.35 1.45 0.3 1.5 L0.25 1.55 0.2 1.6 0.1 1.65 0.2 1.55 0.25 1.5 0.2 1.5 Q0.15 1.6 -0.05 1.6 L0.05 1.55 0.15 1.5 0.15 1.45 0.1 1.45 0.1 1.3 Q0.0 1.25 -0.05 1.3 L-0.05 1.35 -0.15 1.35 -0.2 1.35 M0.6 1.5 L0.55 1.45 0.5 1.4 0.45 1.35 0.45 1.45 0.45 1.6 0.55 1.55 0.65 1.55 0.6 1.5" fill="#fc8b2e" fill-rule="evenodd" stroke="none"/>
    <path d="M-0.35 0.55 L-0.2 0.6 -0.1 0.6 -0.05 0.6 0.1 0.6 0.25 0.6 0.3 0.6 0.3 0.65 0.25 0.8 Q0.2 0.85 0.2 0.9 L0.2 0.95 0.15 1.0 0.1 1.0 Q0.1 1.0 0.05 1.05 L0.05 1.15 0.1 1.2 0.05 1.25 0.0 1.25 -0.1 1.3 -0.2 1.35 -0.25 1.35 -0.3 1.35 -0.35 1.4 -0.3 1.45 -0.25 1.45 -0.2 1.5 -0.15 1.55 -0.15 1.6 -0.05 1.6 Q0.15 1.6 0.2 1.5 L0.25 1.5 0.2 1.55 0.1 1.65 0.0 1.65 -0.1 1.65 -0.2 1.65 -0.3 1.7 -0.35 1.7 -0.25 1.65 -0.15 1.65 -0.05 1.6 -0.25 1.6 -0.35 1.45 -0.35 1.3 Q-0.3 1.3 -0.25 1.3 L-0.2 1.3 -0.1 1.3 -0.05 1.25 0.0 1.2 0.0 1.15 0.05 1.05 0.1 1.0 0.15 0.95 0.2 0.85 Q0.2 0.75 0.1 0.7 L-0.05 0.65 -0.15 0.65 -0.3 0.65 Q-0.4 0.55 -0.6 0.5 L-0.6 0.6 -0.65 0.6 -0.65 0.5 -0.7 0.4 -0.6 0.4 -0.5 0.5 -0.35 0.55" fill="#feae3d" fill-rule="evenodd" stroke="none"/>
    <path d="M0.45 0.7 L0.5 0.65 0.55 0.6 0.55 0.65 0.6 0.7 0.7 0.7 Q0.75 0.7 0.7 0.65 L0.75 0.65 0.75 0.75 Q0.7 0.75 0.7 0.8 0.65 0.75 0.65 0.8 0.7 0.85 0.7 0.9 L0.7 1.0 0.65 1.15 0.6 1.15 0.55 1.15 0.6 1.25 0.6 1.3 0.55 1.3 0.55 1.2 0.5 1.2 0.55 1.15 0.6 1.1 0.65 1.05 0.65 0.85 0.65 0.8 Q0.65 0.75 0.6 0.8 L0.55 0.85 Q0.55 0.9 0.55 0.9 L0.6 0.9 0.6 0.95 0.55 1.0 0.5 0.95 0.45 0.9 0.45 1.0 0.45 1.05 0.4 1.05 0.4 1.0 0.35 1.0 0.3 1.05 0.2 1.1 0.25 1.05 0.3 1.0 0.25 0.95 0.25 0.9 0.3 0.9 0.35 0.9 0.35 0.85 0.4 0.8 Q0.35 0.75 0.3 0.8 L0.2 0.9 0.2 0.85 0.3 0.7 0.35 0.6 0.4 0.6 0.4 0.7 0.45 0.7" fill="#f17a30" fill-rule="evenodd" stroke="none"/>
    <path d="M0.25 0.9 L0.2 0.9 0.3 0.8 Q0.35 0.75 0.4 0.8 L0.35 0.85 0.35 0.9 0.3 0.9 0.25 0.9" fill="#a35b2c" fill-rule="evenodd" stroke="none"/>
    <path d="M-0.6 0.6 L-0.6 0.5 Q-0.4 0.55 -0.3 0.65 L-0.15 0.65 -0.05 0.65 0.1 0.7 Q0.2 0.75 0.2 0.85 L0.15 0.95 0.1 1.0 0.05 1.05 0.0 1.15 0.0 1.2 -0.05 1.25 -0.05 1.15 0.0 1.05 Q0.0 1.0 0.05 1.0 L0.1 0.95 0.15 0.9 0.15 0.8 Q0.05 0.75 0.0 0.75 L-0.2 0.75 -0.25 0.75 -0.3 0.8 -0.35 0.75 -0.35 0.7 -0.4 0.65 -0.45 0.6 Q-0.5 0.55 -0.55 0.55 L-0.6 0.6" fill="#ffd442" fill-rule="evenodd" stroke="none"/>
    <path d="M-0.05 1.25 L-0.1 1.3 -0.2 1.3 -0.25 1.3 Q-0.3 1.3 -0.35 1.3 L-0.3 1.25 -0.35 1.2 -0.3 1.1 Q-0.25 1.05 -0.3 1.0 L-0.4 1.0 Q-0.35 0.95 -0.35 0.9 L-0.4 0.85 -0.4 0.7 -0.45 0.6 -0.4 0.65 -0.35 0.7 -0.35 0.75 -0.3 0.8 -0.25 0.75 -0.2 0.75 0.0 0.75 Q0.05 0.75 0.15 0.8 L0.15 0.9 0.1 0.95 0.05 1.0 Q0.0 1.0 0.0 1.05 L-0.05 1.15 -0.05 1.25" fill="#fff142" fill-rule="evenodd" stroke="none"/>
    <path d="M0.15 1.2 Q0.1 1.15 0.15 1.15 L0.2 1.1 0.3 1.05 0.35 1.0 0.4 1.0 0.4 1.05 0.15 1.2" fill="#c2672b" fill-rule="evenodd" stroke="none"/>
    <path d="M0.35 1.45 L0.3 1.45 0.25 1.4 0.25 1.35 0.2 1.3 Q0.15 1.25 0.15 1.2 L0.2 1.2 0.2 1.3 0.25 1.35 0.25 1.4 0.35 1.45" fill="#c26728" fill-rule="evenodd" stroke="none"/>
    <path d="M0.35 1.4 L0.35 1.45 0.25 1.4 0.25 1.35 0.35 1.3 0.4 1.2 0.4 1.1 Q0.4 1.1 0.35 1.1 L0.2 1.2 0.15 1.2 0.4 1.05 0.4 1.25 0.35 1.35 Q0.35 1.35 0.35 1.4" fill="#965526" fill-rule="evenodd" stroke="none"/>
    <path d="M0.55 1.35 L0.55 1.3 0.5 1.3 0.45 1.3 0.4 1.3 0.4 1.35 0.35 1.4 Q0.35 1.35 0.35 1.35 L0.4 1.25 0.4 1.05 0.45 1.05 0.45 1.0 0.55 1.0 0.65 1.05 0.6 1.1 0.55 1.15 0.5 1.1 0.45 1.05 0.45 1.3 0.5 1.25 0.5 1.2 0.55 1.2 0.55 1.3 0.6 1.3 0.65 1.3 0.65 1.35 0.6 1.45 Q0.6 1.45 0.6 1.4 L0.55 1.35" fill="#cb6528" fill-rule="evenodd" stroke="none"/>
    <path d="M0.45 1.0 L0.45 0.9 0.5 0.95 0.55 1.0 0.6 0.95 0.6 0.9 0.55 0.9 Q0.55 0.9 0.55 0.85 L0.6 0.8 Q0.65 0.75 0.65 0.8 L0.65 0.85 0.65 1.05 0.55 1.0 0.45 1.0" fill="#ac5d2c" fill-rule="evenodd" stroke="none"/>
    <path d="M0.55 1.15 L0.5 1.2 0.5 1.25 0.45 1.3 0.45 1.05 0.5 1.1 0.55 1.15" fill="#915125" fill-rule="evenodd" stroke="none"/>
    <path d="M0.2 1.2 L0.35 1.1 Q0.4 1.1 0.4 1.1 L0.4 1.2 0.35 1.3 0.25 1.35 0.2 1.3 0.2 1.2" fill="#5d3c22" fill-rule="evenodd" stroke="none"/>
    <path d="M0.95 0.85 L0.9 0.95 0.85 1.0 0.8 0.9 Q0.8 0.85 0.85 0.85 L0.9 0.85 0.95 0.85" fill="#654032" fill-rule="evenodd" stroke="none"/>
    <path d="M0.6 0.7 L0.65 0.65 0.7 0.65 Q0.75 0.7 0.7 0.7 L0.6 0.7" fill="#9f5b34" fill-rule="evenodd" stroke="none"/>
    <path d="M0.75 0.85 L0.8 0.95 0.8 1.05 0.8 1.15 0.75 1.15 0.7 1.25 0.7 1.35 0.65 1.35 0.65 1.3 0.6 1.3 0.6 1.25 0.55 1.15 0.6 1.15 0.65 1.15 0.7 1.0 0.7 0.9 Q0.7 0.85 0.65 0.8 0.65 0.75 0.7 0.8 L0.75 0.85" fill="#fd8f30" fill-rule="evenodd" stroke="none"/>
    <path d="M0.75 1.35 L0.85 1.3 0.95 1.25 0.95 1.3 1.0 1.3 0.7 1.55 0.7 1.45 0.7 1.35 0.7 1.25 0.7 1.35 0.75 1.35 M0.95 1.35 L0.95 1.3 0.9 1.3 0.85 1.3 0.85 1.4 0.8 1.45 Q0.85 1.45 0.9 1.4 L0.95 1.35" fill="#ac5c28" fill-rule="evenodd" stroke="none"/>
    <path d="M0.95 1.35 L0.9 1.4 Q0.85 1.45 0.8 1.45 L0.85 1.4 0.85 1.3 0.9 1.3 0.95 1.3 0.95 1.35" fill="#ed782b" fill-rule="evenodd" stroke="none"/>
    <path d="M0.7 1.45 L0.7 1.4 0.65 1.4 0.6 1.45 0.55 1.4 0.55 1.35 0.6 1.4 Q0.6 1.45 0.6 1.45 L0.65 1.35 0.65 1.3 0.65 1.35 0.7 1.35 0.7 1.45" fill="#f57928" fill-rule="evenodd" stroke="none"/>
    <path d="M0.6 1.5 L0.65 1.55 0.55 1.55 0.45 1.6 0.45 1.45 0.45 1.35 0.5 1.4 0.55 1.45 0.6 1.5" fill="#ffc92b" fill-rule="evenodd" stroke="none"/>
    <path d="M0.1 1.65 L0.2 1.6 0.25 1.55 0.3 1.5 Q0.35 1.45 0.4 1.45 L0.4 1.6 0.35 1.6 0.3 1.65 Q0.25 1.65 0.2 1.7 L0.35 1.65 0.45 1.65 0.7 1.55 Q0.45 1.7 0.1 1.75 L0.05 1.75 -0.1 1.75 -0.15 1.75 -0.1 1.7 Q-0.05 1.65 0.0 1.65 L0.1 1.65" fill="#92582a" fill-rule="evenodd" stroke="none"/>
    <path d="M0.1 1.45 L0.15 1.45 0.15 1.5 0.05 1.55 -0.05 1.6 -0.15 1.6 -0.15 1.55 -0.2 1.5 -0.25 1.45 -0.2 1.45 -0.15 1.45 -0.05 1.55 0.1 1.5 0.1 1.45" fill="#cd7635" fill-rule="evenodd" stroke="none"/>
    <path d="M-0.5 -0.05 L-0.5 0.0 -0.6 0.05 -0.7 0.1 -0.7 0.0 -0.65 -0.05 -0.55 -0.05 -0.5 -0.05 M-0.05 1.35 L-0.05 1.3 0.05 1.35 0.1 1.45 0.05 1.35 -0.05 1.35 -0.15 1.4 -0.25 1.45 -0.2 1.45 -0.2 1.45 -0.25 1.45 -0.3 1.45 -0.3 1.4 -0.25 1.35 -0.15 1.35 -0.05 1.35" fill="#965f35" fill-rule="evenodd" stroke="none"/>
    <path d="M0.1 1.45 L0.1 1.5 -0.05 1.55 -0.15 1.45 -0.05 1.45 0.1 1.45" fill="#9f5e2d" fill-rule="evenodd" stroke="none"/>
    <path d="M-0.05 1.3 Q0.0 1.25 0.1 1.3 L0.1 1.45 0.05 1.35 -0.05 1.3" fill="#c96a2a" fill-rule="evenodd" stroke="none"/>
    <path d="M-0.15 1.45 L-0.2 1.45 -0.2 1.45 -0.25 1.45 -0.15 1.4 -0.05 1.35 0.05 1.35 0.1 1.45 -0.05 1.45 -0.15 1.45" fill="#6f492b" fill-rule="evenodd" stroke="none"/>
    <path d="M0.4 1.6 L0.45 1.65 0.35 1.65 0.2 1.7 Q0.25 1.65 0.3 1.65 L0.35 1.6 0.4 1.6" fill="#c26a2a" fill-rule="evenodd" stroke="none"/>
    <path d="M-2.2 -1.2 L-2.2 -1.6 -2.1 -1.7 -2.1 -1.8 -2.05 -1.8 -2.0 -1.7 -1.95 -1.75 -1.95 -1.7 -1.9 -1.65 -1.85 -1.65 -1.9 -1.6 -1.8 -1.65 -1.7 -1.65 -1.75 -1.6 -1.8 -1.6 -1.9 -1.55 -1.9 -1.45 -2.05 -1.35 -2.1 -1.3 -2.15 -1.25 -2.2 -1.2" fill="#8c817c" fill-rule="evenodd" stroke="none"/>
    <path d="M-2.2 -1.6 L-2.2 -1.75 -2.1 -1.8 -2.1 -1.9 -1.95 -2.0 -2.0 -1.95 -2.0 -1.9 -2.05 -1.85 -2.1 -1.8 -2.1 -1.7 -2.2 -1.6" fill="#72727c" fill-rule="evenodd" stroke="none"/>
    <path d="M-1.85 -1.65 L-1.9 -1.65 -1.95 -1.7 -1.95 -1.75 -2.0 -1.7 -2.05 -1.8 -2.1 -1.8 -2.05 -1.85 -2.0 -1.9 -2.0 -1.95 -1.95 -2.0 -1.9 -2.05 -1.85 -2.1 -1.8 -2.1 -1.8 -2.05 -1.75 -1.95 -1.7 -1.85 -1.7 -1.75 -1.7 -1.7 -1.75 -1.65 -1.8 -1.7 -1.85 -1.65 -1.85 -1.65 M-1.95 -2.0 L-1.95 -2.0 M-1.8 -2.05 L-1.85 -2.05 -1.9 -2.0 -1.9 -1.95 -1.95 -1.95 Q-1.95 -1.9 -1.95 -1.9 L-1.95 -1.8 -2.0 -1.75 -1.95 -1.75 -1.9 -1.7 -1.9 -1.7 -1.85 -1.7 -1.7 -1.7 -1.75 -1.75 -1.8 -1.75 Q-1.75 -1.8 -1.75 -1.85 L-1.8 -1.95 -1.8 -2.05" fill="#9c918b" fill-rule="evenodd" stroke="none"/>
    <path d="M-2.2 -1.75 L-2.2 -1.85 -2.05 -2.0 -1.95 -2.2 -1.85 -2.2 -1.85 -2.15 -1.9 -2.1 -1.95 -2.0 -1.95 -2.0 -2.1 -1.9 -2.1 -1.8 -2.2 -1.75" fill="#534f62" fill-rule="evenodd" stroke="none"/>
    <path d="M-2.2 -1.05 L-2.2 -1.2 -2.15 -1.25 -2.1 -1.3 -1.95 -1.3 -1.85 -1.35 -1.75 -1.3 -1.7 -1.25 Q-1.65 -1.15 -1.7 -1.1 -1.7 -1.15 -1.75 -1.25 L-1.95 -1.25 -2.0 -1.2 -2.0 -1.1 -1.95 -1.05 Q-2.0 -1.0 -2.05 -1.0 L-2.1 -1.0 -2.2 -1.05" fill="#786254" fill-rule="evenodd" stroke="none"/>
    <path d="M-2.1 -1.3 L-2.05 -1.35 -1.9 -1.45 -1.9 -1.55 -1.8 -1.6 -1.75 -1.6 -1.65 -1.55 Q-1.65 -1.5 -1.65 -1.45 L-1.7 -1.4 -1.7 -1.3 -1.65 -1.2 -1.7 -1.25 -1.75 -1.3 -1.85 -1.35 -1.95 -1.3 -2.1 -1.3" fill="#866e60" fill-rule="evenodd" stroke="none"/>
    <path d="M-2.2 -1.85 L-2.2 -2.2 -1.95 -2.2 -2.05 -2.0 -2.2 -1.85" fill="#323252" fill-rule="evenodd" stroke="none"/>
    <path d="M-2.2 -0.45 L-2.2 -0.65 -2.1 -0.65 -1.95 -0.7 Q-1.85 -0.75 -1.85 -0.85 -1.9 -0.95 -2.0 -0.95 L-2.2 -0.95 -2.2 -1.05 -2.1 -1.0 -2.05 -1.0 Q-2.0 -1.0 -1.95 -1.05 L-2.0 -1.1 -2.0 -1.2 -1.95 -1.25 -1.75 -1.25 Q-1.7 -1.15 -1.7 -1.1 L-1.75 -0.95 -1.8 -0.85 -1.8 -0.8 -1.9 -0.65 -1.95 -0.5 Q-2.0 -0.45 -2.05 -0.45 L-2.2 -0.45" fill="#735847" fill-rule="evenodd" stroke="none"/>
    <path d="M-2.2 -0.65 L-2.2 -0.95 -2.0 -0.95 Q-1.9 -0.95 -1.85 -0.85 -1.85 -0.75 -1.95 -0.7 L-2.1 -0.65 -2.2 -0.65" fill="#694e3c" fill-rule="evenodd" stroke="none"/>
    <path d="M-2.2 1.0 L-2.2 0.95 -2.15 1.0 -2.1 1.0 -2.05 0.95 -2.05 0.9 -2.1 0.85 -2.2 0.8 -2.2 0.4 -2.1 0.4 -2.05 0.4 Q-2.0 0.3 -1.95 0.2 L-2.0 -0.05 Q-2.0 -0.1 -2.1 -0.1 L-2.2 -0.1 -2.2 -0.45 -2.05 -0.45 Q-2.0 -0.45 -1.95 -0.5 L-1.9 -0.65 -1.8 -0.8 -1.8 -0.85 -1.85 -0.7 -1.95 -0.5 Q-2.0 -0.25 -1.95 0.0 L-1.95 0.5 -1.95 0.75 -2.0 0.85 -1.9 0.95 -1.85 1.05 -1.95 1.05 -2.0 1.1 -2.0 1.05 -1.95 1.05 -2.05 1.05 -2.2 1.0" fill="#7b614d" fill-rule="evenodd" stroke="none"/>
    <path d="M-2.2 0.4 L-2.2 -0.1 -2.1 -0.1 Q-2.0 -0.1 -2.0 -0.05 L-1.95 0.2 Q-2.0 0.3 -2.05 0.4 L-2.1 0.4 -2.2 0.4" fill="#6b5542" fill-rule="evenodd" stroke="none"/>
    <path d="M-1.1 -2.2 L-0.75 -2.2 -0.6 -2.05 -0.45 -2.05 -0.45 -2.2 -0.35 -2.2 -0.35 -2.05 -0.4 -2.0 -0.5 -1.95 -0.65 -2.0 -0.75 -2.1 -0.85 -2.1 -1.0 -2.1 -1.1 -2.2" fill="#eec9b0" fill-rule="evenodd" stroke="none"/>
    <path d="M-0.75 -2.2 L-0.45 -2.2 -0.45 -2.05 -0.6 -2.05 -0.75 -2.2" fill="#fcd9c3" fill-rule="evenodd" stroke="none"/>
    <path d="M-0.3 -1.9 L-0.25 -1.85 -0.15 -1.85 Q-0.1 -1.8 -0.1 -1.75 L-0.1 -1.7 -0.15 -1.65 -0.2 -1.65 -0.25 -1.65 -0.3 -1.65 -0.25 -1.7 -0.15 -1.75 Q-0.2 -1.8 -0.3 -1.85 L-0.45 -1.8 -0.6 -1.8 -0.7 -1.75 Q-0.85 -1.75 -0.95 -1.65 L-1.0 -1.6 -1.1 -1.55 Q-1.15 -1.5 -1.15 -1.45 L-1.1 -1.4 -1.05 -1.45 -1.0 -1.5 Q-0.95 -1.55 -0.95 -1.45 L-1.0 -1.4 -1.1 -1.3 -1.25 -1.25 -1.3 -1.1 -1.3 -1.0 -1.15 -0.9 -1.0 -0.85 -1.0 -0.75 -0.95 -0.75 -0.85 -0.8 Q-0.75 -0.8 -0.75 -0.8 L-0.6 -0.95 -0.6 -1.0 -0.55 -1.05 -0.55 -0.95 -0.6 -0.85 -0.65 -0.8 -0.7 -0.85 -0.75 -0.75 -0.85 -0.7 -1.0 -0.65 -1.05 -0.65 -1.05 -0.7 -1.05 -0.8 Q-1.1 -0.85 -1.15 -0.9 L-1.3 -0.9 -1.3 -1.05 -1.25 -1.25 -1.1 -1.35 -1.05 -1.35 -1.05 -1.4 -1.1 -1.4 -1.15 -1.4 -1.2 -1.35 -1.3 -1.3 -1.4 -1.2 -1.45 -1.1 -1.5 -1.1 -1.5 -1.15 -1.45 -1.3 -1.3 -1.4 -1.2 -1.5 -1.1 -1.65 -0.85 -1.75 -0.6 -1.85 -0.3 -1.9" fill="#fffcae" fill-rule="evenodd" stroke="none"/>
    <path d="M-0.5 -1.9 Q-0.65 -1.8 -0.9 -1.8 L-1.05 -1.7 -1.2 -1.55 -1.35 -1.45 -1.45 -1.35 -1.35 -1.45 -1.25 -1.55 -1.2 -1.65 -1.1 -1.75 -1.1 -1.8 -1.05 -1.85 Q-1.05 -1.95 -0.95 -1.95 L-0.9 -1.95 -0.85 -1.9 Q-0.8 -1.85 -0.75 -1.85 L-0.65 -1.85 Q-0.6 -1.9 -0.55 -1.9 L-0.5 -1.9" fill="#f8bc8f" fill-rule="evenodd" stroke="none"/>
    <path d="M-0.55 -1.9 Q-0.6 -1.9 -0.65 -1.85 L-0.75 -1.85 Q-0.8 -1.85 -0.85 -1.9 L-0.9 -1.95 -0.95 -1.95 Q-1.05 -1.95 -1.05 -1.85 L-1.1 -1.8 -1.1 -1.75 -1.2 -1.65 -1.25 -1.55 -1.25 -1.6 -1.2 -1.65 -1.2 -1.8 -1.1 -1.95 Q-1.05 -2.05 -1.1 -2.1 -1.05 -2.05 -1.0 -2.05 L-0.8 -2.0 -0.7 -2.0 -0.55 -1.9" fill="#e8b38f" fill-rule="evenodd" stroke="none"/>
    <path d="M-0.65 -1.6 L-0.7 -1.65 -0.75 -1.55 -0.8 -1.5 -0.8 -1.45 Q-0.85 -1.45 -0.9 -1.4 L-0.9 -1.35 -0.95 -1.3 -1.0 -1.25 -1.0 -1.1 -0.95 -0.95 -0.8 -0.95 Q-0.7 -0.95 -0.65 -1.05 L-0.6 -1.15 -0.5 -1.2 -0.55 -1.4 -0.55 -1.55 -0.6 -1.6 -0.65 -1.6 -0.65 -1.6 M-0.65 -1.7 L-0.65 -1.65 -0.6 -1.6 -0.5 -1.65 -0.45 -1.65 -0.4 -1.7 -0.4 -1.6 -0.35 -1.55 Q-0.3 -1.5 -0.35 -1.45 -0.4 -1.4 -0.4 -1.4 L-0.45 -1.45 -0.5 -1.5 -0.5 -1.4 -0.45 -1.25 -0.5 -1.2 -0.55 -1.15 -0.6 -1.05 -0.65 -1.0 -0.8 -0.85 -0.85 -0.9 -0.9 -0.9 -1.0 -0.95 -1.05 -1.2 -1.1 -1.15 -1.2 -1.15 -1.15 -1.2 -1.05 -1.25 -0.95 -1.3 -0.9 -1.4 -0.9 -1.6 -0.85 -1.65 -0.75 -1.7 Q-0.7 -1.75 -0.65 -1.7" fill="#ffffe6" fill-rule="evenodd" stroke="none"/>
    <path d="M-0.65 -1.7 Q-0.7 -1.75 -0.75 -1.7 L-0.85 -1.65 -0.9 -1.6 -0.9 -1.4 -0.95 -1.3 -1.05 -1.25 -1.15 -1.2 -1.2 -1.15 -1.1 -1.15 -1.05 -1.2 -1.0 -0.95 -0.9 -0.9 -0.85 -0.9 -0.8 -0.85 -0.65 -1.0 -0.6 -1.05 -0.55 -1.15 -0.5 -1.2 -0.45 -1.25 -0.5 -1.4 -0.5 -1.5 -0.45 -1.45 -0.4 -1.4 Q-0.4 -1.4 -0.35 -1.45 -0.3 -1.5 -0.35 -1.55 L-0.4 -1.6 -0.4 -1.7 -0.45 -1.65 -0.5 -1.65 -0.6 -1.6 -0.65 -1.65 -0.65 -1.7 -0.6 -1.65 -0.55 -1.65 -0.45 -1.7 -0.35 -1.75 -0.25 -1.75 -0.3 -1.7 -0.3 -1.65 -0.35 -1.6 Q-0.3 -1.5 -0.3 -1.45 -0.35 -1.35 -0.4 -1.35 L-0.45 -1.25 -0.55 -1.1 -0.6 -1.05 -0.65 -0.95 Q-0.7 -0.85 -0.75 -0.85 L-0.85 -0.9 -1.0 -0.9 -1.1 -0.95 -1.1 -1.05 Q-1.05 -1.1 -1.1 -1.1 L-1.15 -1.1 -1.2 -1.05 -1.25 -1.05 Q-1.25 -1.15 -1.15 -1.25 L-1.1 -1.3 -1.0 -1.35 -0.95 -1.45 -0.95 -1.55 Q-1.0 -1.55 -0.95 -1.6 L-0.9 -1.7 -0.75 -1.75 -0.65 -1.7" fill="#ffffd3" fill-rule="evenodd" stroke="none"/>
    <path d="M-0.65 -1.6 L-0.65 -1.6 -0.6 -1.6 -0.55 -1.55 -0.55 -1.4 -0.5 -1.2 -0.6 -1.15 -0.65 -1.05 Q-0.7 -0.95 -0.8 -0.95 L-0.95 -0.95 -1.0 -1.1 -1.0 -1.25 -0.95 -1.3 -0.9 -1.35 -0.9 -1.4 Q-0.85 -1.45 -0.8 -1.45 L-0.8 -1.5 -0.75 -1.55 -0.7 -1.65 -0.65 -1.6 M-0.8 1.05 L-0.75 1.2 -0.75 1.3 -0.75 1.4 -0.85 1.4 -0.9 1.3 -0.95 1.25 -1.0 1.2 -1.05 1.1 -1.05 0.95 -1.05 0.9 -0.95 0.9 -0.9 0.95 -0.8 1.05" fill="#fffffd" fill-rule="evenodd" stroke="none"/>
    <path d="M-0.6 -1.65 L-0.65 -1.7 -0.75 -1.75 -0.9 -1.7 -0.95 -1.6 Q-1.0 -1.55 -0.95 -1.55 L-0.95 -1.45 -1.0 -1.35 -1.1 -1.3 -1.15 -1.25 Q-1.25 -1.15 -1.25 -1.05 L-1.2 -1.05 -1.15 -1.1 -1.1 -1.1 Q-1.05 -1.1 -1.1 -1.05 L-1.1 -0.95 -1.0 -0.9 -0.85 -0.9 -0.75 -0.85 Q-0.7 -0.85 -0.65 -0.95 L-0.6 -1.05 -0.55 -1.1 -0.45 -1.25 -0.4 -1.35 Q-0.35 -1.35 -0.3 -1.45 -0.3 -1.5 -0.35 -1.6 L-0.3 -1.65 -0.3 -1.7 -0.25 -1.75 -0.35 -1.75 -0.45 -1.7 -0.55 -1.65 -0.6 -1.65 M-1.1 -1.4 L-1.15 -1.45 Q-1.15 -1.5 -1.1 -1.55 L-1.0 -1.6 -0.95 -1.65 Q-0.85 -1.75 -0.7 -1.75 L-0.6 -1.8 -0.45 -1.8 -0.3 -1.85 Q-0.2 -1.8 -0.15 -1.75 L-0.25 -1.7 -0.3 -1.65 -0.3 -1.6 -0.25 -1.5 -0.25 -1.4 Q-0.25 -1.35 -0.3 -1.35 L-0.4 -1.2 -0.5 -1.1 -0.55 -1.1 -0.55 -1.05 -0.6 -1.0 -0.6 -0.95 -0.75 -0.8 Q-0.75 -0.8 -0.85 -0.8 L-0.95 -0.75 -1.0 -0.75 -1.0 -0.85 -1.15 -0.9 -1.3 -1.0 -1.3 -1.1 -1.25 -1.25 -1.1 -1.3 -1.0 -1.4 -0.95 -1.45 Q-0.95 -1.55 -1.0 -1.5 L-1.05 -1.45 -1.1 -1.4 -1.1 -1.4" fill="#fffebf" fill-rule="evenodd" stroke="none"/>
    <path d="M-0.1 -1.5 L-0.2 -1.5 -0.25 -1.55 -0.25 -1.65 -0.2 -1.65 -0.2 -1.65 -0.2 -1.55 Q-0.2 -1.5 -0.1 -1.5" fill="#d6ab8c" fill-rule="evenodd" stroke="none"/>
    <path d="M0.05 -1.5 Q0.05 -1.45 0.0 -1.5 L-0.1 -1.5 Q-0.2 -1.5 -0.2 -1.55 L-0.2 -1.65 -0.05 -1.65 -0.1 -1.6 -0.15 -1.55 -0.05 -1.5 Q0.0 -1.5 0.05 -1.5" fill="#b99277" fill-rule="evenodd" stroke="none"/>
    <path d="M-0.2 -1.5 L-0.15 -1.5 -0.2 -1.45 Q-0.2 -1.45 -0.25 -1.5 L-0.3 -1.6 -0.3 -1.65 -0.25 -1.65 -0.25 -1.55 -0.2 -1.5" fill="#fad29a" fill-rule="evenodd" stroke="none"/>
    <path d="M-0.5 -1.1 L-0.4 -1.2 -0.3 -1.35 Q-0.25 -1.35 -0.25 -1.4 L-0.25 -1.5 Q-0.2 -1.45 -0.2 -1.45 L-0.15 -1.45 -0.15 -1.4 -0.25 -1.3 -0.3 -1.2 -0.35 -1.1 -0.45 -1.05 -0.5 -1.1" fill="#fffb96" fill-rule="evenodd" stroke="none"/>
    <path d="M-0.15 -1.5 L-0.1 -1.5 -0.05 -1.45 -0.15 -1.25 -0.35 -1.05 -0.45 -0.9 -0.55 -0.75 -0.6 -0.7 -0.65 -0.6 -0.7 -0.5 -0.8 -0.4 -0.85 -0.25 -1.05 -0.2 -1.15 -0.05 -1.3 0.05 -1.4 0.2 -1.45 0.2 -1.5 0.25 -1.55 0.25 -1.55 0.3 -1.35 0.4 -1.35 0.45 -1.45 0.4 -1.55 0.4 -1.65 0.45 -1.7 0.5 -1.75 0.65 -1.75 0.75 -1.75 0.7 -1.8 0.6 Q-1.85 0.5 -1.75 0.45 L-1.8 0.35 -1.8 0.25 -1.8 0.2 -1.8 -0.1 -1.8 -0.25 -1.75 -0.25 -1.7 -0.2 -1.75 -0.1 -1.75 0.0 -1.65 0.15 -1.6 0.15 -1.55 0.1 -1.5 0.1 -1.5 0.05 -1.4 0.05 -1.3 0.0 -1.2 -0.15 -1.05 -0.3 -0.9 -0.35 Q-0.9 -0.35 -0.9 -0.4 L-0.85 -0.5 -0.8 -0.55 -0.8 -0.55 -0.7 -0.6 Q-0.65 -0.65 -0.65 -0.65 L-0.6 -0.75 Q-0.6 -0.8 -0.65 -0.8 L-0.6 -0.85 -0.55 -0.95 -0.5 -1.0 -0.45 -1.05 -0.35 -1.1 -0.3 -1.2 -0.25 -1.3 -0.15 -1.4 -0.15 -1.45 -0.2 -1.45 -0.15 -1.5 M-1.75 0.4 L-1.65 0.45 Q-1.65 0.4 -1.7 0.35 L-1.7 0.3 -1.75 0.4" fill="#fffc78" fill-rule="evenodd" stroke="none"/>
    <path d="M-1.2 -2.2 L-1.15 -2.2 -1.1 -2.1 Q-1.05 -2.05 -1.1 -1.95 L-1.2 -1.8 -1.2 -1.65 -1.25 -1.6 -1.25 -1.55 -1.35 -1.45 -1.45 -1.35 -1.55 -1.2 -1.5 -1.35 -1.35 -1.45 -1.25 -1.6 Q-1.25 -1.7 -1.25 -1.8 L-1.2 -1.85 -1.15 -1.95 -1.1 -2.05 -1.15 -2.15 -1.2 -2.15 -1.2 -2.2" fill="#dda884" fill-rule="evenodd" stroke="none"/>
    <path d="M-1.2 -2.2 L-1.2 -2.2 -1.2 -2.15 -1.25 -2.05 -1.3 -2.0 -1.4 -1.9 -1.4 -1.65 -1.45 -1.5 -1.6 -1.35 -1.6 -1.1 -1.7 -0.9 -1.8 -0.7 -1.65 -1.1 Q-1.6 -1.15 -1.6 -1.2 L-1.65 -1.3 -1.55 -1.45 -1.5 -1.6 -1.45 -1.75 -1.45 -1.9 -1.4 -2.0 -1.3 -2.1 -1.25 -2.15 -1.2 -2.2 M-1.8 -0.7 L-1.8 -0.7" fill="#ac8366" fill-rule="evenodd" stroke="none"/>
    <path d="M-1.6 -2.2 L-1.55 -2.2 -1.5 -2.15 -1.45 -2.1 -1.55 -2.05 -1.55 -2.0 -1.5 -2.0 Q-1.45 -2.0 -1.45 -2.05 L-1.45 -2.1 -1.35 -2.15 -1.25 -2.2 -1.2 -2.2 -1.25 -2.15 -1.3 -2.1 -1.4 -2.0 -1.45 -1.9 -1.45 -1.75 -1.5 -1.6 -1.55 -1.45 -1.65 -1.3 -1.6 -1.2 Q-1.6 -1.15 -1.65 -1.1 L-1.65 -1.2 -1.7 -1.3 -1.7 -1.4 -1.65 -1.45 Q-1.65 -1.5 -1.65 -1.55 L-1.75 -1.6 -1.8 -1.6 -1.75 -1.6 -1.7 -1.65 Q-1.6 -1.6 -1.6 -1.7 L-1.6 -1.8 -1.65 -1.85 -1.6 -1.9 -1.55 -1.9 -1.55 -1.95 -1.65 -1.95 -1.75 -1.95 -1.75 -2.05 -1.7 -2.1 Q-1.65 -2.1 -1.6 -2.1 -1.6 -2.15 -1.6 -2.2" fill="#9a7a64" fill-rule="evenodd" stroke="none"/>
    <path d="M-1.6 -1.1 L-1.6 -1.35 -1.45 -1.5 -1.4 -1.65 -1.4 -1.9 -1.3 -2.0 -1.25 -2.05 -1.2 -2.15 -1.15 -2.15 -1.2 -2.0 -1.3 -1.9 -1.35 -1.7 -1.4 -1.5 -1.55 -1.35 -1.6 -1.15 -1.6 -1.1" fill="#bb9071" fill-rule="evenodd" stroke="none"/>
    <path d="M-1.55 -2.2 L-1.25 -2.2 -1.35 -2.15 -1.45 -2.1 -1.45 -2.05 Q-1.45 -2.0 -1.5 -2.0 L-1.55 -2.0 -1.55 -2.05 -1.45 -2.1 -1.5 -2.15 -1.55 -2.2" fill="#846957" fill-rule="evenodd" stroke="none"/>
    <path d="M-1.55 -1.2 L-1.55 -1.15 -1.6 -1.15 -1.55 -1.35 -1.4 -1.5 -1.35 -1.7 -1.3 -1.9 -1.2 -2.0 -1.15 -2.15 -1.1 -2.05 -1.15 -1.95 -1.2 -1.85 -1.25 -1.8 Q-1.25 -1.7 -1.25 -1.6 L-1.35 -1.45 -1.5 -1.35 -1.55 -1.2" fill="#cc9c7a" fill-rule="evenodd" stroke="none"/>
    <path d="M-1.75 -2.2 L-1.6 -2.2 Q-1.6 -2.15 -1.6 -2.1 -1.65 -2.1 -1.7 -2.1 L-1.75 -2.05 -1.75 -1.95 -1.65 -1.95 -1.55 -1.95 -1.55 -1.9 -1.6 -1.9 -1.65 -1.85 -1.6 -1.8 -1.6 -1.7 Q-1.6 -1.6 -1.7 -1.65 L-1.8 -1.65 -1.9 -1.6 -1.85 -1.65 -1.85 -1.65 -1.8 -1.7 -1.75 -1.65 -1.7 -1.7 -1.7 -1.75 -1.7 -1.85 -1.75 -1.95 -1.8 -2.05 -1.8 -2.1 -1.85 -2.1 -1.8 -2.15 -1.75 -2.2" fill="#a08879" fill-rule="evenodd" stroke="none"/>
    <path d="M-1.8 -2.05 L-1.8 -1.95 -1.75 -1.85 Q-1.75 -1.8 -1.8 -1.75 L-1.75 -1.75 -1.7 -1.7 -1.85 -1.7 -1.9 -1.7 -1.9 -1.7 -1.95 -1.75 -2.0 -1.75 -1.95 -1.8 -1.95 -1.9 Q-1.95 -1.9 -1.95 -1.95 L-1.9 -1.95 -1.9 -2.0 -1.85 -2.05 -1.8 -2.05" fill="#aa9e97" fill-rule="evenodd" stroke="none"/>
    <path d="M-1.85 -2.2 L-1.75 -2.2 -1.8 -2.15 -1.85 -2.1 -1.9 -2.05 -1.95 -2.0 -1.9 -2.1 -1.85 -2.15 -1.85 -2.2" fill="#6e646b" fill-rule="evenodd" stroke="none"/>
    <path d="M-1.55 -1.15 L-1.45 -1.3 -1.35 -1.4 -1.2 -1.5 -1.1 -1.65 -1.2 -1.5 -1.3 -1.4 -1.45 -1.3 -1.5 -1.15 -1.5 -1.1 -1.45 -1.1 -1.45 -1.1 Q-1.4 -1.0 -1.5 -1.0 L-1.55 -1.15" fill="#fff99b" fill-rule="evenodd" stroke="none"/>
    <path d="M-1.1 -1.4 L-1.05 -1.4 -1.05 -1.35 -1.1 -1.35 -1.25 -1.25 -1.3 -1.05 -1.35 -0.95 -1.35 -1.05 -1.45 -1.1 -1.4 -1.2 -1.3 -1.3 -1.2 -1.35 -1.15 -1.4 -1.1 -1.4 -1.1 -1.4 M-1.45 -1.1 L-1.45 -1.1" fill="#ffdba6" fill-rule="evenodd" stroke="none"/>
    <path d="M-1.45 -1.1 L-1.35 -1.05 -1.35 -0.95 -1.4 -0.95 -1.5 -0.95 Q-1.6 -0.95 -1.55 -0.95 L-1.5 -1.0 Q-1.4 -1.0 -1.45 -1.1 M-1.35 -0.95 L-1.35 -0.95" fill="#f5bf83" fill-rule="evenodd" stroke="none"/>
    <path d="M-1.5 -0.95 L-1.4 -0.95 -1.35 -0.95 -1.4 -0.9 -1.4 -0.85 -1.3 -0.75 -1.25 -0.8 -1.25 -0.85 -1.2 -0.8 -1.15 -0.75 -1.15 -0.7 -1.1 -0.7 -1.15 -0.65 -1.2 -0.6 Q-1.2 -0.55 -1.2 -0.5 L-1.3 -0.45 -1.25 -0.5 -1.25 -0.6 -1.4 -0.6 -1.5 -0.55 -1.55 -0.45 -1.65 -0.45 -1.7 -0.45 -1.7 -0.35 -1.65 -0.3 -1.65 -0.25 -1.7 -0.25 -1.7 -0.2 -1.75 -0.25 -1.8 -0.25 -1.75 -0.4 -1.65 -0.55 -1.6 -0.65 -1.6 -0.75 -1.55 -0.75 -1.5 -0.8 -1.45 -0.8 -1.5 -0.85 -1.5 -0.95 M-1.45 -0.65 L-1.35 -0.65 -1.25 -0.65 -1.3 -0.7 -1.35 -0.75 -1.4 -0.7 -1.45 -0.65" fill="#fffa87" fill-rule="evenodd" stroke="none"/>
    <path d="M-1.3 -1.05 L-1.3 -0.9 -1.15 -0.9 Q-1.1 -0.85 -1.05 -0.8 L-1.05 -0.7 -1.05 -0.65 -1.0 -0.65 -0.85 -0.7 -0.75 -0.75 Q-0.7 -0.7 -0.8 -0.7 L-0.85 -0.7 -0.9 -0.65 -0.85 -0.6 -0.8 -0.55 -0.8 -0.55 -0.85 -0.5 -0.9 -0.4 Q-0.9 -0.35 -0.9 -0.35 L-1.05 -0.3 -1.2 -0.15 -1.3 0.0 -1.4 0.05 -1.5 0.05 -1.55 -0.1 -1.55 -0.25 -1.65 -0.3 -1.7 -0.35 -1.7 -0.45 -1.65 -0.45 -1.55 -0.45 -1.5 -0.45 -1.45 -0.4 -1.6 -0.4 Q-1.6 -0.4 -1.6 -0.35 L-1.55 -0.3 -1.5 -0.2 -1.45 -0.1 Q-1.35 -0.1 -1.3 -0.2 -1.25 -0.3 -1.3 -0.35 L-1.45 -0.4 Q-1.4 -0.35 -1.4 -0.4 L-1.3 -0.45 -1.2 -0.5 Q-1.2 -0.55 -1.2 -0.6 L-1.15 -0.65 -1.1 -0.7 -1.15 -0.7 -1.15 -0.75 -1.2 -0.8 -1.25 -0.85 -1.25 -0.8 -1.3 -0.75 -1.4 -0.85 -1.4 -0.9 -1.35 -0.95 -1.3 -1.05 M-1.35 -0.95 L-1.35 -0.95" fill="#fffd9b" fill-rule="evenodd" stroke="none"/>
    <path d="M-1.45 -0.65 L-1.4 -0.7 -1.35 -0.75 -1.3 -0.7 -1.25 -0.65 -1.35 -0.65 -1.45 -0.65" fill="#ffce7c" fill-rule="evenodd" stroke="none"/>
    <path d="M-1.5 -0.85 L-1.45 -0.8 -1.5 -0.8 -1.55 -0.8 -1.5 -0.85" fill="#fdc875" fill-rule="evenodd" stroke="none"/>
    <path d="M-1.55 -1.1 L-1.55 -1.15 -1.5 -1.0 -1.55 -0.95 Q-1.6 -0.95 -1.5 -0.95 L-1.5 -0.85 -1.55 -0.8 -1.5 -0.8 -1.55 -0.75 -1.6 -0.75 -1.6 -0.65 -1.65 -0.55 -1.65 -0.65 -1.7 -0.65 -1.8 -0.65 -1.75 -0.75 -1.7 -0.9 -1.6 -1.0 -1.55 -1.1" fill="#fffc74" fill-rule="evenodd" stroke="none"/>
    <path d="M-1.55 -1.15 L-1.55 -1.1 -1.6 -1.0 -1.7 -0.9 -1.75 -0.75 -1.8 -0.65 -1.85 -0.35 -1.85 -0.55 -1.8 -0.7 -1.7 -0.9 -1.6 -1.1 -1.6 -1.15 -1.55 -1.15" fill="#f8b35f" fill-rule="evenodd" stroke="none"/>
    <path d="M-1.05 1.95 L-1.1 1.95 -1.15 1.95 -1.15 1.85 -1.2 1.8 Q-1.1 1.8 -1.15 1.75 -1.2 1.7 -1.25 1.65 -1.3 1.7 -1.3 1.7 L-1.35 1.8 -1.35 1.7 -1.4 1.65 -1.4 1.6 -1.35 1.55 Q-1.35 1.5 -1.4 1.45 L-1.5 1.35 -1.65 1.25 -1.7 1.15 -1.8 1.05 -1.9 1.1 -2.0 1.1 -1.95 1.05 -1.85 1.05 -1.9 0.95 -2.0 0.85 -1.95 0.75 -1.95 0.5 -1.95 0.0 Q-2.0 -0.25 -1.95 -0.5 L-1.85 -0.7 -1.8 -0.85 -1.75 -0.95 -1.7 -1.1 Q-1.65 -1.15 -1.7 -1.25 L-1.65 -1.2 -1.65 -1.1 -1.8 -0.7 Q-1.95 -0.5 -1.95 -0.25 L-1.95 -0.05 -1.9 0.2 -1.9 0.65 -1.85 0.7 -1.85 0.8 -1.9 0.9 -1.8 0.95 -1.75 1.0 -1.65 1.15 -1.55 1.25 -1.45 1.35 -1.3 1.45 -1.25 1.55 -1.0 1.7 -0.8 1.75 -0.75 1.8 -0.65 1.8 -0.5 1.85 -0.35 1.8 -0.25 1.75 -0.15 1.75 -0.1 1.7 -0.15 1.75 -0.3 1.8 -0.45 1.85 -0.6 1.9 -0.85 1.8 -1.05 1.8 -1.05 1.9 -1.05 1.9 -1.05 1.95 M-1.15 1.95 L-1.15 1.95" fill="#90694d" fill-rule="evenodd" stroke="none"/>
    <path d="M-1.8 -0.7 L-1.8 -0.7 -1.85 -0.55 -1.85 -0.35 Q-1.9 -0.1 -1.85 0.25 L-1.85 0.55 -1.85 0.55 -1.9 0.2 -1.9 -0.4 -1.8 -0.7" fill="#d6975a" fill-rule="evenodd" stroke="none"/>
    <path d="M-1.65 -0.55 L-1.75 -0.4 -1.8 -0.25 -1.8 -0.1 -1.8 0.2 -1.8 0.25 -1.85 0.25 Q-1.9 -0.1 -1.85 -0.35 L-1.8 -0.65 -1.7 -0.65 -1.65 -0.65 -1.65 -0.55 -1.65 -0.6 -1.7 -0.6 -1.75 -0.55 -1.75 -0.5 -1.7 -0.5 -1.65 -0.55" fill="#ffe56c" fill-rule="evenodd" stroke="none"/>
    <path d="M-1.7 -0.5 L-1.75 -0.5 -1.75 -0.55 -1.7 -0.6 -1.65 -0.6 -1.65 -0.55 -1.7 -0.5" fill="#d59b64" fill-rule="evenodd" stroke="none"/>
    <path d="M-1.6 -0.4 L-1.45 -0.4 -1.3 -0.35 Q-1.25 -0.3 -1.3 -0.2 -1.35 -0.1 -1.45 -0.1 L-1.5 -0.2 -1.55 -0.3 -1.6 -0.35 Q-1.6 -0.4 -1.6 -0.4" fill="#ffffb2" fill-rule="evenodd" stroke="none"/>
    <path d="M-0.25 1.75 L-0.35 1.8 -0.5 1.85 -0.65 1.8 -0.75 1.8 -0.8 1.75 -1.0 1.7 -1.25 1.55 -1.3 1.45 -1.45 1.35 -1.55 1.25 -1.65 1.15 -1.75 1.0 -1.8 0.95 -1.9 0.9 -1.85 0.8 -1.85 0.7 -1.9 0.65 -1.9 0.2 -1.95 -0.05 -1.95 -0.25 Q-1.95 -0.5 -1.8 -0.7 L-1.9 -0.4 -1.9 0.2 -1.85 0.55 -1.8 0.7 Q-1.75 0.85 -1.75 0.9 L-1.65 1.05 -1.55 1.2 -0.95 1.65 -0.6 1.8 -0.35 1.75 -0.25 1.75" fill="#a97a56" fill-rule="evenodd" stroke="none"/>
    <path d="M-1.7 -0.25 L-1.65 -0.25 -1.6 -0.25 -1.55 -0.2 -1.55 0.05 -1.6 0.1 -1.65 0.15 -1.65 0.1 Q-1.55 0.1 -1.6 0.0 L-1.6 -0.2 -1.65 -0.25 -1.7 -0.25 -1.7 -0.25" fill="#dca779" fill-rule="evenodd" stroke="none"/>
    <path d="M-1.65 -0.25 L-1.65 -0.3 -1.55 -0.25 -1.55 -0.1 -1.5 0.05 -1.5 0.1 -1.55 0.1 -1.6 0.15 -1.65 0.15 -1.6 0.1 -1.55 0.05 -1.55 -0.2 -1.6 -0.25 -1.65 -0.25" fill="#fbc981" fill-rule="evenodd" stroke="none"/>
    <path d="M-1.7 -0.25 L-1.65 -0.25 -1.6 -0.2 -1.6 0.0 Q-1.55 0.1 -1.65 0.1 L-1.7 -0.05 -1.7 -0.25" fill="#be9270" fill-rule="evenodd" stroke="none"/>
    <path d="M-1.7 -0.2 L-1.7 -0.25 -1.7 -0.25 -1.7 -0.05 -1.65 0.1 -1.65 0.15 -1.75 0.0 -1.75 -0.1 -1.7 -0.2" fill="#ffdc77" fill-rule="evenodd" stroke="none"/>
    <path d="M-1.5 -0.55 L-1.4 -0.6 -1.25 -0.6 -1.25 -0.5 -1.3 -0.45 -1.4 -0.4 Q-1.4 -0.35 -1.45 -0.4 L-1.3 -0.5 Q-1.25 -0.55 -1.3 -0.6 L-1.4 -0.55 -1.5 -0.55" fill="#fac684" fill-rule="evenodd" stroke="none"/>
    <path d="M-1.55 -0.45 L-1.5 -0.55 -1.4 -0.55 -1.3 -0.6 Q-1.25 -0.55 -1.3 -0.5 L-1.45 -0.4 -1.5 -0.45 -1.55 -0.45" fill="#d9a67c" fill-rule="evenodd" stroke="none"/>
    <path d="M-0.6 -0.7 L-0.6 -0.6 -0.65 -0.55 -0.75 -0.45 -0.75 -0.35 Q-0.75 -0.3 -0.85 -0.2 L-0.95 -0.05 -1.0 0.05 -1.0 0.15 -1.1 0.15 -1.2 0.15 -1.25 0.1 -1.3 0.1 -1.35 0.15 -1.4 0.2 -1.3 0.05 -1.15 -0.05 -1.05 -0.2 -0.85 -0.25 -0.8 -0.4 -0.7 -0.5 -0.65 -0.6 -0.6 -0.7" fill="#fff863" fill-rule="evenodd" stroke="none"/>
    <path d="M-0.55 -0.95 L-0.55 -1.05 -0.55 -1.1 -0.5 -1.1 -0.45 -1.05 -0.5 -1.0 -0.55 -0.95" fill="#ffcf8f" fill-rule="evenodd" stroke="none"/>
    <path d="M-0.5 -0.65 L-0.45 -0.65 Q-0.4 -0.65 -0.35 -0.6 L-0.35 -0.5 -0.3 -0.4 Q-0.3 -0.35 -0.35 -0.35 L-0.4 -0.45 -0.5 -0.5 -0.5 -0.65 M-0.45 -0.65 L-0.45 -0.65" fill="#7c5335" fill-rule="evenodd" stroke="none"/>
    <path d="M-0.5 -0.65 L-0.5 -0.65 -0.5 -0.5 -0.5 -0.4 -0.55 -0.45 -0.6 -0.45 -0.65 -0.4 -0.65 -0.35 -0.7 -0.4 -0.7 -0.4 -0.7 -0.45 -0.65 -0.5 -0.6 -0.5 -0.55 -0.5 -0.55 -0.5 -0.5 -0.5 -0.5 -0.65" fill="#c37b47" fill-rule="evenodd" stroke="none"/>
    <path d="M-0.2 -0.7 Q-0.15 -0.55 -0.15 -0.4 L-0.25 -0.45 -0.25 -0.5 -0.3 -0.65 -0.2 -0.7 -0.2 -0.7" fill="#845330" fill-rule="evenodd" stroke="none"/>
    <path d="M-0.75 -0.75 L-0.7 -0.85 -0.65 -0.8 Q-0.6 -0.8 -0.6 -0.75 L-0.65 -0.65 Q-0.65 -0.65 -0.7 -0.6 L-0.8 -0.55 -0.85 -0.6 -0.9 -0.65 -0.85 -0.7 -0.8 -0.7 Q-0.7 -0.7 -0.75 -0.75" fill="#f1bb82" fill-rule="evenodd" stroke="none"/>
    <path d="M-0.85 0.4 L-0.85 0.2 -0.85 0.0 -0.8 -0.15 -0.75 -0.25 -0.75 -0.35 -0.65 -0.5 -0.7 -0.45 -0.7 -0.4 -0.7 -0.25 -0.75 -0.15 -0.8 0.0 -0.75 0.2 -0.75 0.35 -0.85 0.4" fill="#ffc24e" fill-rule="evenodd" stroke="none"/>
    <path d="M-0.9 0.5 L-0.85 0.45 -0.85 0.4 -0.75 0.35 -0.75 0.2 -0.8 0.0 -0.75 -0.15 -0.7 -0.25 -0.7 -0.4 -0.7 -0.4 -0.65 -0.35 -0.65 -0.3 -0.7 -0.25 -0.7 -0.25 -0.7 -0.15 -0.7 -0.05 -0.75 0.05 -0.7 0.2 -0.7 0.3 -0.6 0.35 -0.55 0.4 -0.45 0.45 -0.45 0.5 -0.35 0.55 -0.5 0.5 -0.6 0.4 -0.7 0.4 -0.65 0.5 -0.65 0.6 -0.65 0.65 -0.65 0.65 -0.7 0.65 -0.7 0.6 Q-0.65 0.6 -0.65 0.5 L-0.7 0.45 -0.75 0.4 -0.8 0.45 -0.85 0.5 -0.85 0.5 -0.9 0.5" fill="#fda148" fill-rule="evenodd" stroke="none"/>
    <path d="M-0.5 -0.4 L-0.45 -0.4 -0.4 -0.35 Q-0.4 -0.3 -0.45 -0.3 L-0.55 -0.3 -0.65 -0.35 -0.65 -0.4 -0.6 -0.45 -0.55 -0.45 -0.5 -0.4" fill="#915f3b" fill-rule="evenodd" stroke="none"/>
    <path d="M-0.45 -0.3 L-0.4 -0.25 -0.45 -0.25 -0.45 -0.2 -0.4 -0.2 -0.4 -0.15 -0.45 -0.15 -0.45 -0.2 -0.6 -0.25 -0.7 -0.25 -0.7 -0.25 -0.65 -0.3 -0.65 -0.35 -0.55 -0.3 -0.45 -0.3" fill="#d67b3f" fill-rule="evenodd" stroke="none"/>
    <path d="M-0.7 -0.15 L-0.7 -0.25 -0.6 -0.25 -0.45 -0.2 -0.45 -0.15 -0.5 -0.15 -0.6 -0.15 -0.7 -0.15" fill="#a96e3d" fill-rule="evenodd" stroke="none"/>
    <path d="M-0.35 0.05 L-0.45 0.1 -0.5 0.05 -0.45 0.0 -0.4 0.0 -0.45 -0.05 -0.5 -0.05 -0.55 -0.05 -0.65 -0.05 -0.7 0.0 -0.7 0.1 -0.65 0.15 -0.7 0.2 -0.7 0.25 -0.65 0.3 -0.6 0.3 -0.55 0.3 -0.5 0.35 -0.55 0.4 -0.6 0.35 -0.7 0.3 -0.7 0.2 -0.75 0.05 -0.7 -0.05 -0.7 -0.15 -0.6 -0.15 -0.5 -0.15 -0.5 -0.1 Q-0.5 -0.05 -0.45 -0.05 L-0.35 -0.05 -0.35 0.0 -0.4 0.0 -0.3 0.05 -0.2 0.05 -0.15 0.05 -0.1 0.05 0.0 0.05 -0.15 0.1 -0.25 0.1 -0.3 0.1 -0.3 0.1 -0.35 0.05" fill="#f2823c" fill-rule="evenodd" stroke="none"/>
    <path d="M-0.4 -0.25 L-0.35 -0.25 -0.35 -0.35 -0.3 -0.3 -0.25 -0.3 -0.25 -0.35 -0.25 -0.35 -0.2 -0.35 -0.2 -0.3 -0.2 -0.3 -0.15 -0.3 -0.1 -0.3 -0.1 -0.25 -0.05 -0.2 -0.05 -0.05 Q-0.05 0.0 -0.1 0.05 L-0.15 0.05 -0.2 0.05 -0.3 0.05 -0.4 0.0 -0.35 0.0 -0.35 -0.05 -0.45 -0.05 Q-0.5 -0.05 -0.5 -0.1 L-0.5 -0.15 -0.45 -0.15 -0.4 -0.15 -0.4 -0.2 -0.45 -0.2 -0.45 -0.25 -0.4 -0.25" fill="#fd9542" fill-rule="evenodd" stroke="none"/>
    <path d="M-0.3 0.5 L-0.25 0.35 -0.2 0.2 -0.15 0.2 -0.15 0.35 -0.2 0.5 -0.25 0.5 -0.3 0.5" fill="#864e28" fill-rule="evenodd" stroke="none"/>
    <path d="M-0.65 0.15 L-0.55 0.15 -0.5 0.1 -0.45 0.1 -0.45 0.15 -0.5 0.25 -0.6 0.3 -0.65 0.3 -0.7 0.25 -0.7 0.2 -0.65 0.15" fill="#855430" fill-rule="evenodd" stroke="none"/>
    <path d="M-0.5 0.35 L-0.35 0.15 -0.3 0.2 -0.35 0.3 -0.35 0.45 -0.4 0.45 -0.45 0.45 -0.55 0.4 -0.5 0.35" fill="#86522d" fill-rule="evenodd" stroke="none"/>
    <path d="M-1.05 0.4 L-1.05 0.4 -1.1 0.35 -1.15 0.3 -1.15 0.25 -1.1 0.2 -0.9 0.35 -0.9 0.4 -0.95 0.4 -1.0 0.4 -1.0 0.4 -1.05 0.4 -1.0 0.35 -1.0 0.3 -1.05 0.25 -1.1 0.25 -1.1 0.35 -1.05 0.4" fill="#fdb454" fill-rule="evenodd" stroke="none"/>
    <path d="M-1.25 0.4 L-1.15 0.4 -1.05 0.4 -1.0 0.4 -0.95 0.45 -0.9 0.45 -0.9 0.5 -0.85 0.5 -0.7 0.65 -0.65 0.65 -0.65 0.65 -0.6 0.7 -0.6 0.75 -0.55 0.75 -0.55 0.8 -0.6 0.85 -0.65 0.75 -0.7 0.7 -0.8 0.65 -0.85 0.55 Q-0.95 0.45 -1.0 0.45 L-1.1 0.45 -1.2 0.5 -1.25 0.45 -1.3 0.45 -1.25 0.4" fill="#fff570" fill-rule="evenodd" stroke="none"/>
    <path d="M-1.05 0.4 L-1.1 0.35 -1.1 0.25 -1.05 0.25 -1.0 0.3 -1.0 0.35 -1.05 0.4" fill="#d38b4e" fill-rule="evenodd" stroke="none"/>
    <path d="M-0.75 0.55 L-0.85 0.5 -0.8 0.45 -0.75 0.4 -0.7 0.45 -0.65 0.5 Q-0.65 0.6 -0.7 0.6 L-0.75 0.55" fill="#d6874b" fill-rule="evenodd" stroke="none"/>
    <path d="M-0.75 0.55 L-0.7 0.6 -0.7 0.65 -0.85 0.5 -0.75 0.55" fill="#ffcc65" fill-rule="evenodd" stroke="none"/>
    <path d="M-0.65 0.6 L-0.6 0.6 -0.55 0.55 Q-0.5 0.55 -0.45 0.6 L-0.4 0.7 -0.4 0.85 -0.35 0.9 Q-0.35 0.95 -0.4 1.0 L-0.4 1.05 -0.45 1.1 -0.45 1.15 -0.5 1.15 -0.45 1.05 -0.45 0.95 -0.45 0.9 Q-0.45 0.85 -0.45 0.8 L-0.5 0.75 -0.55 0.7 -0.6 0.7 -0.65 0.65 -0.65 0.6" fill="#fff654" fill-rule="evenodd" stroke="none"/>
    <path d="M-0.6 0.85 L-0.55 0.8 -0.55 0.75 -0.6 0.75 -0.6 0.7 -0.55 0.7 -0.5 0.75 -0.45 0.8 Q-0.45 0.85 -0.45 0.9 L-0.55 0.9 -0.6 0.85" fill="#ffd161" fill-rule="evenodd" stroke="none"/>
    <path d="M-1.75 0.75 L-1.75 0.65 -1.7 0.5 -1.65 0.45 -1.55 0.4 -1.45 0.4 -1.35 0.45 -1.3 0.45 -1.25 0.45 -1.2 0.5 -1.1 0.45 -1.0 0.45 Q-0.95 0.45 -0.85 0.55 L-0.8 0.65 -0.7 0.7 -0.65 0.75 -0.6 0.85 -0.55 0.9 -0.55 1.0 -0.5 1.15 Q-0.55 1.15 -0.6 1.2 L-0.6 1.25 -0.6 1.05 Q-0.6 0.9 -0.65 0.8 L-0.75 0.7 -0.85 0.65 -0.95 0.55 -1.05 0.5 -1.15 0.55 -1.2 0.55 Q-1.25 0.5 -1.3 0.5 L-1.35 0.5 -1.5 0.5 -1.6 0.5 -1.7 0.6 -1.7 0.7 -1.65 0.75 -1.6 0.85 -1.55 0.9 -1.5 0.95 -1.45 0.95 -1.3 1.1 -1.15 1.25 Q-1.15 1.3 -1.1 1.35 L-1.05 1.4 -1.0 1.45 -0.9 1.55 -0.8 1.6 -1.2 1.4 -1.25 1.3 -1.2 1.25 -1.35 1.15 Q-1.4 1.05 -1.45 1.05 -1.45 1.1 -1.5 1.05 L-1.6 1.0 -1.65 0.9 -1.75 0.75 -1.75 0.75" fill="#fffc86" fill-rule="evenodd" stroke="none"/>
    <path d="M-1.45 0.95 L-1.5 0.95 -1.55 0.9 -1.6 0.85 -1.65 0.75 -1.7 0.7 -1.7 0.6 -1.6 0.5 -1.5 0.5 -1.35 0.5 -1.3 0.5 Q-1.25 0.5 -1.2 0.55 L-1.15 0.55 -1.05 0.5 -0.95 0.55 -0.85 0.65 -0.75 0.7 -0.65 0.8 Q-0.6 0.9 -0.6 1.05 L-0.6 1.25 -0.55 1.3 -0.55 1.3 -0.55 1.45 -0.65 1.5 -0.65 1.6 -0.7 1.65 -0.75 1.65 -0.8 1.6 -0.9 1.55 -1.0 1.45 -1.05 1.4 -1.1 1.35 Q-1.15 1.3 -1.15 1.25 L-1.1 1.25 -1.1 1.2 -1.25 1.1 -1.4 0.95 -1.45 0.95 -1.45 0.95 M-0.9 0.65 L-0.95 0.55 -1.05 0.6 -1.05 0.65 -1.35 0.55 Q-1.45 0.55 -1.5 0.6 L-1.55 0.65 -1.55 0.75 -1.5 0.8 -1.45 0.85 -1.35 0.95 -1.25 1.05 -1.15 1.1 -1.1 1.2 Q-1.0 1.3 -1.0 1.4 -0.9 1.55 -0.8 1.6 L-0.7 1.55 -0.7 1.5 -0.65 1.45 Q-0.6 1.35 -0.6 1.25 -0.65 1.1 -0.75 1.05 L-0.75 0.95 -0.7 0.95 Q-0.65 0.9 -0.7 0.8 L-0.85 0.7 -0.9 0.65" fill="#fffe9f" fill-rule="evenodd" stroke="none"/>
    <path d="M-0.9 0.65 L-0.85 0.7 -0.7 0.8 Q-0.65 0.9 -0.7 0.95 L-0.75 0.95 -0.75 1.05 Q-0.65 1.1 -0.6 1.25 -0.6 1.35 -0.65 1.45 L-0.7 1.5 -0.7 1.55 -0.8 1.6 Q-0.9 1.55 -1.0 1.4 -1.0 1.3 -1.1 1.2 L-1.15 1.1 -1.25 1.05 -1.35 0.95 -1.45 0.85 -1.5 0.8 -1.55 0.75 -1.55 0.65 -1.5 0.6 Q-1.45 0.55 -1.35 0.55 L-1.05 0.65 -1.05 0.6 -0.95 0.55 -0.9 0.65 M-0.9 0.75 Q-1.0 0.7 -1.05 0.7 L-1.4 0.6 -1.5 0.65 -1.5 0.7 -1.45 0.75 -1.35 0.85 -1.3 0.9 Q-1.3 0.9 -1.25 0.95 -1.15 1.0 -1.15 1.05 L-1.05 1.2 -0.95 1.3 -0.9 1.45 Q-0.85 1.55 -0.75 1.55 L-0.7 1.45 -0.65 1.35 Q-0.65 1.3 -0.7 1.2 L-0.75 1.05 -0.85 1.0 -0.9 0.95 -0.9 0.75" fill="#ffffbd" fill-rule="evenodd" stroke="none"/>
    <path d="M-0.9 0.75 L-0.9 0.95 -0.85 1.0 -0.75 1.05 -0.7 1.2 Q-0.65 1.3 -0.65 1.35 L-0.7 1.45 -0.75 1.55 Q-0.85 1.55 -0.9 1.45 L-0.95 1.3 -1.05 1.2 -1.15 1.05 Q-1.15 1.0 -1.25 0.95 -1.3 0.9 -1.3 0.9 L-1.35 0.85 -1.45 0.75 -1.5 0.7 -1.5 0.65 -1.4 0.6 -1.05 0.7 Q-1.0 0.7 -0.9 0.75 M-0.85 1.05 L-0.95 0.9 Q-0.95 0.85 -1.05 0.8 L-1.05 0.75 -1.1 0.75 -1.4 0.65 -1.45 0.7 -1.45 0.7 -1.35 0.85 -1.2 0.9 -1.15 0.9 -1.1 0.9 -1.1 1.0 -1.1 1.15 -1.0 1.2 -0.85 1.45 -0.85 1.5 -0.8 1.5 -0.75 1.45 -0.7 1.4 -0.7 1.3 -0.75 1.15 Q-0.75 1.1 -0.75 1.1 L-0.85 1.05" fill="#ffffd5" fill-rule="evenodd" stroke="none"/>
    <path d="M-0.85 1.05 L-0.75 1.1 Q-0.75 1.1 -0.75 1.15 L-0.7 1.3 -0.7 1.4 -0.75 1.45 -0.8 1.5 -0.85 1.5 -0.85 1.45 -1.0 1.2 -1.1 1.15 -1.1 1.0 -1.1 0.9 -1.15 0.9 -1.2 0.9 -1.35 0.85 -1.45 0.7 -1.45 0.7 -1.4 0.65 -1.1 0.75 -1.05 0.75 -1.05 0.8 Q-0.95 0.85 -0.95 0.9 L-0.85 1.05 M-0.8 1.05 L-0.9 0.95 -0.95 0.9 -1.05 0.9 -1.05 0.95 -1.05 1.1 -1.0 1.2 -0.95 1.25 -0.9 1.3 -0.85 1.4 -0.75 1.4 -0.75 1.3 -0.75 1.2 -0.8 1.05" fill="#ffffee" fill-rule="evenodd" stroke="none"/>
    <path d="M-0.45 0.9 L-0.45 0.95 -0.45 1.05 -0.5 1.15 -0.55 1.0 -0.55 0.9 -0.45 0.9 M-0.5 1.15 L-0.5 1.15" fill="#fffc6b" fill-rule="evenodd" stroke="none"/>
    <path d="M-0.5 1.15 L-0.45 1.15 -0.45 1.2 -0.45 1.3 -0.5 1.35 -0.55 1.3 -0.55 1.3 -0.6 1.25 -0.6 1.2 Q-0.55 1.15 -0.5 1.15 L-0.5 1.15" fill="#ffc473" fill-rule="evenodd" stroke="none"/>
    <path d="M-0.4 1.0 L-0.3 1.0 Q-0.25 1.05 -0.3 1.1 L-0.35 1.2 -0.45 1.2 -0.45 1.15 -0.45 1.1 -0.4 1.05 -0.4 1.0" fill="#ffc04b" fill-rule="evenodd" stroke="none"/>
    <path d="M-0.35 1.3 L-0.35 1.45 -0.25 1.6 -0.05 1.6 -0.15 1.65 -0.25 1.65 -0.35 1.65 -0.35 1.55 -0.4 1.5 -0.4 1.4 Q-0.4 1.3 -0.45 1.3 L-0.45 1.2 -0.35 1.2 -0.3 1.25 -0.35 1.3" fill="#fff75d" fill-rule="evenodd" stroke="none"/>
    <path d="M-1.2 0.15 L-1.15 0.15 -1.15 0.2 -1.2 0.25 -1.25 0.25 -1.25 0.25 -1.3 0.25 -1.25 0.35 Q-1.25 0.4 -1.25 0.4 L-1.3 0.45 -1.35 0.45 -1.35 0.4 -1.3 0.4 -1.3 0.35 -1.35 0.25 -1.45 0.25 -1.55 0.3 -1.55 0.25 -1.5 0.25 -1.45 0.2 -1.4 0.2 -1.35 0.15 -1.3 0.1 -1.25 0.1 -1.2 0.15" fill="#fbb85c" fill-rule="evenodd" stroke="none"/>
    <path d="M-1.35 0.4 L-1.55 0.3 -1.45 0.25 -1.35 0.25 -1.3 0.35 -1.3 0.4 -1.35 0.4" fill="#d39662" fill-rule="evenodd" stroke="none"/>
    <path d="M-0.25 1.65 L-0.35 1.7 -0.8 1.65 -1.25 1.4 -1.35 1.3 -1.45 1.2 -1.6 1.05 -1.7 0.9 -1.8 0.75 -1.8 0.65 -1.85 0.55 -1.85 0.25 -1.8 0.25 -1.8 0.35 -1.75 0.45 Q-1.85 0.5 -1.8 0.6 L-1.75 0.7 -1.75 0.75 -1.75 0.75 -1.65 0.9 -1.6 1.0 -1.4 1.2 -1.2 1.4 -0.8 1.6 -0.75 1.65 -0.6 1.7 -0.45 1.7 -0.45 1.65 -0.5 1.6 -0.45 1.6 -0.35 1.65 -0.25 1.65" fill="#fcbe69" fill-rule="evenodd" stroke="none"/>
    <path d="M-0.35 1.75 L-0.6 1.8 -0.95 1.65 -1.55 1.2 -1.65 1.05 -1.75 0.9 Q-1.75 0.85 -1.8 0.7 L-1.85 0.55 -1.8 0.65 -1.8 0.75 Q-1.7 1.0 -1.5 1.2 L-1.35 1.3 -1.25 1.4 -0.65 1.75 -0.5 1.75 -0.35 1.75 -0.35 1.75 M-1.85 0.55 L-1.85 0.55" fill="#c3895e" fill-rule="evenodd" stroke="none"/>
    <path d="M-1.75 0.4 L-1.7 0.3 -1.7 0.35 Q-1.65 0.4 -1.65 0.45 L-1.75 0.4" fill="#fcc269" fill-rule="evenodd" stroke="none"/>
    <path d="M-2.0 1.1 L-1.9 1.1 -1.8 1.05 -1.7 1.15 -1.65 1.25 -1.5 1.35 -1.4 1.45 Q-1.35 1.5 -1.35 1.55 L-1.4 1.6 -1.45 1.5 -1.55 1.4 Q-1.6 1.4 -1.6 1.4 L-1.6 1.55 -1.7 1.65 -1.7 1.6 -1.75 1.55 -1.7 1.5 -1.7 1.5 Q-1.65 1.45 -1.7 1.4 L-1.75 1.3 -1.75 1.25 Q-1.75 1.2 -1.8 1.2 L-1.85 1.25 -1.9 1.25 -1.9 1.2 -1.85 1.15 -1.95 1.15 -2.0 1.1 -2.0 1.05 -2.05 1.05 -1.95 1.05 -2.0 1.05 -2.0 1.1" fill="#7d593f" fill-rule="evenodd" stroke="none"/>
    <path d="M-2.2 1.4 L-2.2 1.3 -2.1 1.2 Q-2.0 1.15 -2.1 1.1 -2.05 1.1 -2.0 1.15 L-1.95 1.2 -1.9 1.3 -1.8 1.35 -1.75 1.4 -1.7 1.5 -1.75 1.55 -1.75 1.65 -1.8 1.7 -1.85 1.65 -1.9 1.6 -2.2 1.4" fill="#533c30" fill-rule="evenodd" stroke="none"/>
    <path d="M-2.2 1.45 L-2.2 1.4 -1.9 1.6 -1.85 1.65 -1.8 1.7 -1.75 1.65 -1.75 1.55 -1.7 1.5 -1.75 1.4 -1.8 1.35 -1.9 1.3 -1.95 1.2 -2.0 1.15 Q-2.05 1.1 -2.1 1.1 -2.0 1.15 -2.1 1.2 L-2.2 1.3 -2.2 1.0 -2.05 1.05 -2.0 1.05 -2.0 1.1 -1.95 1.15 -1.85 1.15 -1.9 1.2 -1.9 1.25 -1.85 1.25 -1.8 1.2 Q-1.75 1.2 -1.75 1.25 L-1.75 1.3 -1.7 1.4 Q-1.65 1.45 -1.7 1.5 L-1.7 1.5 -1.75 1.55 -1.7 1.6 -1.7 1.65 -1.6 1.55 -1.6 1.4 Q-1.6 1.4 -1.55 1.4 L-1.45 1.5 -1.4 1.6 -1.4 1.65 -1.35 1.7 -1.35 1.8 -1.3 1.7 Q-1.3 1.7 -1.25 1.65 -1.2 1.7 -1.15 1.75 -1.1 1.8 -1.2 1.8 L-1.15 1.85 -1.15 1.95 -1.3 1.9 Q-1.35 1.9 -1.4 2.0 L-1.45 2.0 -1.5 2.05 -1.45 2.0 -1.4 1.95 Q-1.4 1.9 -1.45 1.9 L-1.55 1.9 -1.55 1.9 -1.6 1.95 Q-1.6 2.0 -1.55 2.0 -1.6 2.05 -1.6 1.95 L-1.65 1.85 -1.75 1.85 -1.8 1.85 -1.85 1.9 -1.8 1.95 -1.8 2.05 -1.8 2.1 -1.85 2.05 Q-1.85 1.95 -1.85 1.95 L-1.9 1.95 -1.95 1.95 -1.9 1.85 -1.9 1.8 Q-1.9 1.85 -1.8 1.85 -1.8 1.8 -1.8 1.75 L-1.9 1.7 -1.9 1.75 -1.95 1.75 -2.0 1.8 -2.0 1.85 -2.05 1.8 -2.05 1.75 -2.05 1.65 -2.1 1.6 Q-2.05 1.55 -2.1 1.5 L-2.15 1.45 -2.2 1.45" fill="#654a39" fill-rule="evenodd" stroke="none"/>
    <path d="M-1.8 0.75 L-1.7 0.9 -1.6 1.05 -1.45 1.2 -1.35 1.3 -1.25 1.4 -1.35 1.3 -1.5 1.2 Q-1.7 1.0 -1.8 0.75" fill="#e59c63" fill-rule="evenodd" stroke="none"/>
    <path d="M-1.6 1.0 L-1.5 1.05 Q-1.45 1.1 -1.45 1.05 -1.4 1.05 -1.35 1.15 L-1.2 1.25 -1.25 1.3 -1.2 1.4 -1.4 1.2 -1.6 1.0" fill="#ffe276" fill-rule="evenodd" stroke="none"/>
    <path d="M-1.45 0.95 L-1.45 0.95 -1.4 0.95 -1.25 1.1 -1.1 1.2 -1.1 1.25 -1.15 1.25 -1.3 1.1 -1.45 0.95" fill="#ffd185" fill-rule="evenodd" stroke="none"/>
    <path d="M-0.35 1.7 L-0.3 1.7 -0.2 1.65 -0.3 1.75 -0.35 1.75 -0.5 1.75 -0.65 1.75 -1.25 1.4 -0.8 1.65 -0.35 1.7" fill="#e09b63" fill-rule="evenodd" stroke="none"/>
    <path d="M-1.05 1.9 L-1.05 1.8 -0.85 1.8 -0.6 1.9 -0.45 1.85 -0.3 1.8 -0.15 1.75 -0.1 1.75 -0.2 1.8 -0.35 1.85 -0.4 1.9 -0.5 1.95 -0.8 1.85 -0.9 1.85 -1.05 1.85 -1.05 1.9" fill="#7e5b46" fill-rule="evenodd" stroke="none"/>
    <path d="M-1.05 1.9 L-1.05 1.85 -0.9 1.85 -0.8 1.85 -0.5 1.95 -0.4 1.9 -0.35 1.85 -0.2 1.8 -0.1 1.75 0.05 1.75 Q-0.1 1.75 -0.2 1.85 L-0.35 1.95 -0.55 1.95 -0.65 1.95 -0.75 1.95 -0.85 1.95 -0.9 1.95 -1.0 1.9 Q-1.05 1.85 -1.05 1.9 L-1.05 1.9" fill="#6d4e3d" fill-rule="evenodd" stroke="none"/>
    <path d="M-2.0 2.2 L-2.2 2.2 -2.2 1.45 -2.15 1.45 -2.1 1.5 Q-2.05 1.55 -2.1 1.6 L-2.05 1.65 -2.05 1.75 -2.05 1.8 -2.0 1.85 -2.0 1.8 -1.95 1.75 -1.9 1.75 -1.9 1.7 -1.8 1.75 Q-1.8 1.8 -1.8 1.85 -1.9 1.85 -1.9 1.8 L-1.9 1.85 -1.95 1.95 -2.0 1.95 -2.0 2.05 -2.05 2.1 -2.0 2.15 -2.0 2.2" fill="#6d584b" fill-rule="evenodd" stroke="none"/>
    <path d="M-1.8 2.1 L-1.8 2.05 -1.8 1.95 -1.85 1.9 -1.8 1.85 -1.75 1.85 -1.65 1.85 -1.6 1.95 Q-1.6 2.05 -1.55 2.0 -1.6 2.0 -1.6 1.95 L-1.55 1.9 -1.55 1.9 -1.45 1.9 Q-1.4 1.9 -1.4 1.95 L-1.45 2.0 -1.5 2.05 -1.6 2.05 -1.7 2.05 -1.75 2.15 Q-1.8 2.15 -1.8 2.1" fill="#69564d" fill-rule="evenodd" stroke="none"/>
    <path d="M-1.15 2.2 L-2.0 2.2 -2.0 2.15 -2.05 2.1 -2.0 2.05 -2.0 1.95 -1.95 1.95 -1.9 1.95 -1.85 1.95 Q-1.85 1.95 -1.85 2.05 L-1.8 2.1 Q-1.8 2.15 -1.75 2.15 L-1.7 2.05 -1.6 2.05 -1.5 2.05 -1.45 2.0 -1.4 2.0 -1.35 2.05 -1.35 2.1 -1.25 2.1 -1.15 2.2" fill="#56443a" fill-rule="evenodd" stroke="none"/>
    <path d="M-1.1 1.95 L-1.1 2.0 -1.15 2.05 -1.15 1.95 -1.1 1.95" fill="#6b4939" fill-rule="evenodd" stroke="none"/>
    <path d="M-0.45 2.2 L-1.15 2.2 -1.25 2.1 -1.35 2.1 -1.35 2.05 -1.4 2.0 Q-1.35 1.9 -1.3 1.9 L-1.15 1.95 -1.15 2.05 -1.1 2.0 -1.1 2.0 -1.05 2.0 -1.0 2.0 -1.0 2.05 -0.9 2.0 -0.8 2.0 -0.75 2.05 -0.7 2.05 -0.65 2.1 -0.55 2.1 -0.5 2.15 Q-0.45 2.15 -0.45 2.2 M-1.15 1.95 L-1.15 1.95" fill="#48312c" fill-rule="evenodd" stroke="none"/>
    <path d="M-0.2 1.35 L-0.15 1.35 -0.05 1.35 -0.15 1.35 -0.25 1.35 -0.3 1.4 -0.3 1.45 -0.35 1.4 -0.3 1.35 -0.25 1.35 -0.2 1.35" fill="#c57940" fill-rule="evenodd" stroke="none"/>
    <path d="M-0.75 1.65 L-0.7 1.65 -0.65 1.6 -0.65 1.5 -0.55 1.45 -0.55 1.3 -0.5 1.35 -0.45 1.3 Q-0.4 1.3 -0.4 1.4 L-0.4 1.5 -0.35 1.55 -0.35 1.65 -0.45 1.6 -0.5 1.6 -0.45 1.65 -0.45 1.7 -0.6 1.7 -0.75 1.65" fill="#fffc7e" fill-rule="evenodd" stroke="none"/>
    <path d="M-0.2 1.65 L-0.1 1.65 0.0 1.65 Q-0.05 1.65 -0.1 1.7 L-0.15 1.75 -0.25 1.75 -0.35 1.75 -0.3 1.75 -0.2 1.65 M-0.35 1.75 L-0.35 1.75" fill="#bf7b41" fill-rule="evenodd" stroke="none"/>
    <path d="M-2.2 0.95 L-2.2 0.8 -2.1 0.85 -2.05 0.9 -2.05 0.95 -2.1 1.0 -2.15 1.0 -2.2 0.95" fill="#847161" fill-rule="evenodd" stroke="none"/>
  </g>
</svg>
