<?xml version="1.0" encoding="UTF-8" standalone="no"?>
<svg xmlns:xlink="http://www.w3.org/1999/xlink" height="7.8px" width="7.1px" xmlns="http://www.w3.org/2000/svg">
  <g transform="matrix(1.0, 0.0, 0.0, 1.0, -8.85, 14.45)">
    <path d="M12.8 -11.25 L12.9 -11.3 12.9 -11.3 12.95 -11.3 12.95 -11.3 13.1 -11.35 13.25 -11.4 13.25 -11.3 13.3 -11.3 13.35 -11.25 13.4 -11.25 13.5 -11.25 13.6 -11.3 13.8 -11.2 13.85 -11.2 13.9 -11.15 14.0 -11.2 14.1 -11.2 14.25 -11.15 14.25 -11.1 Q14.3 -11.05 14.35 -11.05 L14.4 -10.95 14.35 -10.85 14.4 -10.8 14.45 -10.75 14.4 -10.65 Q14.4 -10.65 14.5 -10.6 L14.55 -10.55 14.65 -10.55 14.8 -10.55 14.85 -10.5 14.95 -10.5 15.05 -10.5 15.1 -10.5 15.1 -10.5 15.2 -10.5 15.25 -10.5 15.3 -10.5 15.3 -10.45 15.3 -10.45 15.35 -10.45 15.35 -10.4 15.4 -10.4 15.4 -10.35 15.35 -10.35 15.3 -10.35 15.3 -10.35 15.25 -10.35 15.15 -10.35 15.05 -10.3 15.0 -10.2 15.1 -10.2 15.15 -10.15 15.15 -10.1 15.2 -10.1 15.25 -10.1 15.35 -10.05 15.85 -9.95 15.95 -9.9 15.3 -9.85 15.25 -9.8 15.15 -9.8 15.1 -9.75 15.05 -9.7 14.95 -9.7 14.9 -9.7 14.8 -9.7 14.7 -9.65 14.7 -9.7 14.65 -9.7 14.6 -9.7 14.55 -9.65 14.65 -9.5 14.65 -9.45 14.6 -9.4 14.65 -9.35 14.7 -9.3 14.6 -9.25 14.55 -9.2 14.55 -9.2 14.45 -9.15 14.4 -9.1 14.4 -9.05 14.4 -9.0 14.35 -8.95 14.4 -8.95 14.4 -8.85 14.35 -8.85 14.4 -8.8 14.4 -8.75 14.35 -8.75 14.3 -8.75 14.15 -8.7 14.1 -8.7 14.05 -8.75 14.0 -8.75 13.9 -8.7 13.9 -8.7 13.8 -8.7 13.8 -8.6 13.85 -8.55 13.85 -8.45 14.0 -8.4 Q14.3 -8.35 14.3 -8.3 L14.2 -8.2 14.0 -8.15 Q14.05 -8.1 14.2 -8.0 L14.3 -7.85 14.25 -7.75 14.25 -7.65 14.3 -7.6 Q14.3 -7.45 14.1 -7.5 L13.85 -7.5 13.7 -7.45 13.55 -7.4 13.55 -7.3 13.7 -7.2 Q13.8 -7.15 13.8 -7.0 13.8 -6.9 13.7 -6.85 13.55 -6.8 13.55 -6.65 L13.55 -6.65 13.5 -6.65 13.05 -6.75 12.95 -6.75 12.85 -6.7 12.75 -6.75 12.55 -6.8 11.85 -7.15 11.9 -7.0 11.9 -6.9 Q11.8 -6.9 11.65 -7.0 L11.6 -6.85 Q11.55 -6.85 11.35 -7.0 L11.25 -7.1 11.15 -7.15 11.15 -7.15 11.0 -7.3 10.9 -7.4 10.85 -7.4 10.8 -7.45 10.65 -7.5 10.6 -7.5 10.55 -7.5 10.55 -7.5 10.5 -7.55 10.35 -7.7 10.25 -7.85 9.85 -8.15 Q9.8 -8.25 9.8 -8.35 L9.8 -8.45 9.75 -8.5 9.55 -8.7 9.55 -9.0 9.5 -9.1 9.4 -9.25 Q9.35 -9.3 9.35 -9.35 L9.35 -9.5 9.4 -9.6 9.4 -9.7 9.35 -9.8 9.3 -9.9 9.35 -9.95 9.35 -9.95 9.3 -10.0 9.3 -10.05 9.4 -10.1 9.4 -10.25 9.35 -10.25 9.35 -10.3 9.4 -10.35 9.4 -10.45 9.4 -10.55 9.35 -10.6 9.35 -10.8 9.35 -10.8 9.3 -10.85 Q9.2 -10.95 9.15 -11.0 L8.95 -11.05 Q8.85 -11.1 8.85 -11.15 L9.0 -11.3 9.0 -11.35 9.05 -11.45 Q9.1 -11.55 9.2 -11.5 L9.4 -11.55 9.4 -11.65 9.2 -11.65 Q9.1 -11.7 9.1 -11.75 9.1 -11.85 9.2 -11.9 9.3 -12.0 9.4 -12.0 L9.55 -12.15 9.65 -12.3 9.65 -12.45 9.65 -12.5 9.8 -12.7 9.9 -12.6 9.95 -12.45 9.9 -12.45 9.85 -12.35 9.95 -12.2 10.1 -12.4 10.15 -12.6 10.2 -12.6 Q10.25 -12.55 10.3 -12.55 L10.35 -12.6 10.35 -12.7 10.4 -12.75 10.45 -12.8 10.45 -12.8 Q10.45 -12.75 10.55 -12.7 L10.75 -13.15 10.85 -13.4 Q10.9 -13.55 10.95 -13.65 11.05 -13.75 11.05 -13.85 L11.0 -14.05 Q11.0 -14.15 11.1 -14.25 L11.2 -14.45 11.25 -14.45 11.25 -14.45 Q11.25 -14.4 11.3 -14.2 11.35 -14.0 11.45 -13.9 L11.45 -13.65 11.35 -13.6 11.25 -13.5 Q11.05 -13.45 10.95 -13.35 10.85 -13.25 10.85 -13.1 L10.9 -12.95 10.9 -12.8 10.8 -12.55 10.8 -12.5 10.75 -12.3 10.65 -12.2 10.6 -12.1 Q10.45 -11.95 10.4 -11.75 L10.4 -11.65 10.45 -11.35 10.45 -11.3 10.4 -11.2 10.35 -11.05 10.2 -10.95 Q10.15 -10.9 10.15 -10.8 10.15 -10.5 10.4 -10.5 L10.45 -10.45 10.55 -10.4 10.6 -10.35 10.7 -10.35 10.8 -10.35 10.85 -10.35 10.95 -10.3 11.0 -10.25 10.95 -10.2 10.9 -10.15 10.9 -10.05 Q10.9 -10.0 10.85 -9.95 L10.7 -9.95 Q10.75 -9.8 10.95 -9.7 L11.0 -9.65 11.0 -9.55 11.05 -9.5 11.05 -9.45 Q11.05 -9.4 10.95 -9.35 L10.85 -9.3 10.9 -9.2 10.8 -9.2 10.7 -9.2 10.65 -9.2 Q10.6 -9.15 10.6 -8.95 L10.6 -8.8 10.65 -8.75 10.65 -8.75 Q10.65 -8.7 10.8 -8.65 L11.0 -8.6 11.05 -8.55 11.0 -8.45 Q10.95 -8.35 10.95 -8.2 L11.0 -8.0 11.1 -7.8 11.1 -7.75 11.05 -7.7 11.0 -7.6 11.15 -7.5 Q11.3 -7.4 11.35 -7.4 L11.4 -7.65 11.65 -7.5 11.65 -7.5 Q11.75 -7.3 11.9 -7.2 12.05 -7.1 12.2 -7.15 L12.35 -7.0 Q12.5 -6.95 12.6 -6.95 L12.65 -6.95 12.7 -6.95 12.7 -7.05 12.55 -7.2 12.45 -7.35 12.4 -7.45 12.3 -7.45 Q12.25 -7.5 12.2 -7.55 L12.2 -7.6 12.15 -7.6 12.05 -7.75 11.9 -7.8 11.85 -7.85 11.75 -7.95 11.7 -8.05 11.7 -8.05 11.65 -8.3 11.65 -8.4 11.7 -8.45 11.8 -8.5 11.9 -8.55 12.0 -8.5 12.0 -8.45 11.95 -8.35 11.85 -8.3 11.8 -8.2 11.8 -8.1 11.8 -8.05 Q11.8 -8.0 11.9 -7.9 12.05 -7.75 12.25 -7.75 L12.3 -7.75 Q12.45 -7.75 12.45 -7.9 12.45 -8.0 12.35 -8.1 L12.3 -8.1 12.25 -8.25 12.2 -8.4 12.2 -8.4 Q12.25 -8.4 12.3 -8.45 L12.35 -8.5 12.4 -8.5 12.45 -8.5 12.6 -8.55 Q12.6 -8.6 12.6 -8.65 L12.65 -8.5 12.65 -8.45 12.6 -8.45 12.55 -8.35 12.5 -8.15 12.5 -8.15 Q12.55 -8.05 12.7 -8.05 L12.8 -8.0 12.8 -7.9 12.8 -7.9 12.7 -7.9 12.7 -7.85 Q12.75 -7.8 12.65 -7.7 L12.6 -7.6 12.6 -7.4 12.6 -7.2 12.7 -7.15 12.8 -7.05 13.1 -7.0 13.15 -6.95 13.5 -6.85 13.6 -6.95 Q13.7 -7.0 13.7 -7.1 L13.6 -7.2 Q13.45 -7.25 13.45 -7.3 13.45 -7.35 13.55 -7.4 L13.55 -7.4 13.6 -7.45 13.55 -7.65 13.5 -7.7 13.3 -7.75 13.2 -7.75 13.0 -7.75 13.0 -7.8 13.0 -7.8 12.95 -7.8 13.0 -7.8 13.05 -7.8 Q13.2 -7.8 13.2 -7.9 13.2 -8.0 13.25 -8.05 L13.35 -7.95 13.5 -7.8 13.6 -7.75 13.65 -7.75 13.9 -7.7 Q14.0 -7.7 14.05 -7.75 L14.1 -7.9 Q14.1 -8.0 13.75 -8.25 L13.8 -8.25 Q14.05 -8.25 14.05 -8.3 L14.0 -8.4 13.8 -8.4 13.75 -8.4 13.65 -8.4 Q13.6 -8.4 13.6 -8.5 L13.55 -8.6 13.5 -8.6 13.35 -8.55 Q13.3 -8.55 13.25 -8.75 L13.15 -8.8 Q13.1 -8.8 13.05 -8.85 L13.1 -8.85 13.3 -8.85 13.3 -8.85 13.35 -8.8 13.4 -8.8 13.5 -8.8 13.65 -8.85 13.6 -8.9 13.6 -9.0 13.65 -9.05 13.6 -9.1 13.5 -9.2 13.55 -9.25 13.65 -9.3 13.65 -9.3 13.7 -9.25 13.8 -9.2 13.95 -9.2 14.05 -9.2 14.1 -9.2 14.15 -9.25 14.25 -9.35 14.2 -9.4 14.2 -9.4 14.25 -9.5 14.3 -9.55 14.2 -9.65 Q14.15 -9.75 14.15 -9.8 L14.25 -9.85 14.35 -9.9 14.65 -9.8 14.7 -9.85 14.8 -9.9 14.85 -9.85 14.9 -9.8 14.95 -9.8 15.05 -9.85 15.1 -9.85 15.0 -9.95 14.95 -10.05 14.9 -10.1 14.85 -10.15 14.8 -10.15 14.7 -10.15 14.75 -10.2 14.75 -10.2 14.65 -10.3 14.55 -10.35 14.45 -10.35 14.4 -10.35 Q14.3 -10.35 14.3 -10.35 L14.3 -10.45 14.2 -10.55 14.1 -10.55 14.1 -10.65 14.15 -10.7 14.05 -10.85 13.9 -10.95 13.85 -10.95 13.75 -10.9 13.75 -10.9 Q13.7 -10.9 13.6 -10.95 13.55 -11.05 13.5 -11.05 L13.4 -11.0 Q13.3 -11.0 13.3 -10.95 L13.25 -10.85 13.2 -10.75 Q13.2 -10.7 13.35 -10.65 L13.5 -10.6 13.45 -10.6 13.4 -10.55 13.35 -10.6 13.3 -10.6 13.2 -10.6 13.2 -10.55 13.25 -10.5 13.3 -10.4 13.3 -10.4 13.35 -10.45 13.4 -10.45 13.45 -10.45 13.45 -10.45 13.5 -10.4 Q13.45 -10.35 13.35 -10.35 L13.35 -10.3 13.45 -10.3 13.5 -10.3 13.5 -10.25 13.5 -10.2 13.4 -10.2 13.35 -10.2 13.25 -10.25 13.2 -10.25 13.15 -10.2 Q13.1 -10.2 13.1 -10.25 L13.0 -10.35 12.95 -10.35 12.9 -10.45 12.85 -10.45 12.7 -10.4 12.7 -10.3 12.7 -10.2 Q12.75 -10.2 12.9 -10.15 L12.8 -10.15 12.75 -10.1 12.7 -10.15 12.65 -10.2 12.6 -10.2 12.55 -10.25 12.55 -10.3 12.5 -10.35 12.4 -10.3 12.3 -10.2 12.35 -10.15 12.4 -10.1 12.35 -10.1 12.35 -10.05 12.3 -10.1 12.25 -10.1 12.25 -10.15 12.15 -10.2 12.1 -10.2 12.05 -10.2 12.05 -10.25 Q12.1 -10.3 12.2 -10.3 12.3 -10.3 12.35 -10.35 12.3 -10.45 12.4 -10.5 L12.4 -10.5 Q12.45 -10.6 12.5 -10.6 L12.55 -10.55 12.6 -10.5 12.65 -10.5 12.7 -10.55 12.75 -10.6 12.75 -10.65 12.7 -10.75 12.65 -10.8 12.65 -10.8 12.55 -10.8 12.5 -10.9 Q12.5 -10.95 12.45 -10.95 L12.25 -10.9 Q12.15 -10.85 12.15 -10.8 L12.05 -10.8 12.0 -10.8 11.9 -10.75 11.85 -10.7 11.8 -10.65 11.75 -10.6 11.75 -10.55 11.7 -10.5 11.7 -10.5 11.65 -10.5 11.65 -10.5 11.6 -10.5 11.6 -10.5 11.5 -10.45 11.45 -10.4 Q11.45 -10.4 11.55 -10.35 L11.65 -10.3 11.65 -10.25 11.7 -10.2 Q11.55 -10.2 11.55 -10.2 L11.45 -10.25 11.4 -10.25 11.4 -10.2 11.35 -10.2 11.35 -10.2 11.4 -10.3 11.45 -10.35 11.4 -10.4 11.4 -10.45 11.45 -10.5 11.5 -10.55 11.5 -10.6 11.65 -10.65 Q11.7 -10.65 11.75 -10.7 L11.75 -10.75 11.8 -10.8 11.8 -10.8 11.85 -10.85 11.95 -10.85 12.0 -10.9 12.0 -10.9 12.05 -10.95 11.95 -11.05 11.85 -11.05 11.85 -11.1 11.85 -11.2 11.9 -11.2 11.9 -11.2 11.95 -11.2 11.95 -11.2 Q11.95 -11.15 11.95 -11.15 L12.0 -11.2 12.05 -11.2 12.25 -11.1 Q12.3 -11.1 12.35 -11.15 L12.4 -11.2 12.5 -11.15 12.6 -11.05 12.7 -11.1 12.7 -11.1 12.75 -11.15 12.8 -11.25 M11.6 -13.2 L11.6 -13.2 Q11.6 -13.25 11.65 -13.3 L11.75 -13.4 11.75 -13.35 Q11.75 -13.35 11.85 -13.3 L11.85 -13.35 11.9 -13.3 11.9 -13.3 11.95 -13.2 12.0 -13.15 12.05 -13.05 11.9 -12.75 11.95 -12.95 11.9 -13.2 11.85 -13.25 11.75 -13.15 11.7 -13.0 11.6 -12.9 11.6 -12.9 11.55 -12.9 11.5 -12.85 11.4 -12.85 11.35 -12.85 11.35 -12.85 11.45 -12.95 11.45 -12.95 Q11.55 -13.05 11.6 -13.2 M11.9 -12.7 L11.9 -12.65 Q11.9 -12.65 12.0 -12.65 L12.05 -12.65 12.05 -12.65 12.15 -12.8 12.2 -12.9 12.35 -13.0 Q12.35 -12.9 12.4 -12.9 L12.55 -12.8 12.55 -12.7 12.6 -12.55 12.7 -12.55 12.8 -12.6 12.8 -12.6 12.8 -12.3 12.75 -12.2 12.75 -12.1 12.85 -12.1 12.9 -12.15 12.95 -12.15 13.05 -12.2 13.1 -12.2 13.2 -12.2 13.15 -12.15 13.2 -12.05 13.1 -11.9 13.05 -11.9 12.9 -12.05 Q12.85 -12.05 12.85 -12.0 L12.8 -11.95 12.7 -11.95 12.7 -11.95 12.75 -12.05 12.75 -12.1 12.7 -12.15 12.6 -12.2 12.55 -12.2 12.5 -12.2 12.5 -12.2 12.55 -12.3 12.55 -12.35 12.55 -12.45 12.6 -12.45 Q12.6 -12.65 12.4 -12.65 L12.25 -12.6 12.2 -12.6 12.2 -12.55 12.2 -12.5 Q12.2 -12.45 12.1 -12.45 L11.95 -12.4 11.95 -12.35 11.95 -12.1 11.85 -11.95 11.85 -11.95 11.8 -11.85 11.75 -11.9 Q11.75 -11.9 11.7 -11.85 L11.65 -11.85 11.5 -11.9 11.5 -11.85 11.45 -11.85 11.4 -11.8 11.3 -11.75 11.25 -11.75 11.15 -11.75 11.05 -11.7 11.0 -11.6 11.05 -11.5 11.1 -11.4 11.05 -11.35 11.0 -11.25 11.05 -11.2 11.05 -11.1 Q11.05 -11.0 10.9 -10.8 L10.85 -10.85 10.8 -10.85 10.75 -10.85 10.7 -10.85 10.65 -10.85 10.65 -10.95 10.6 -11.0 10.65 -11.05 10.65 -11.05 Q10.75 -11.05 10.8 -11.15 L10.85 -11.4 Q10.85 -11.5 11.0 -11.85 L11.05 -11.85 Q11.05 -11.95 10.95 -12.0 10.85 -12.05 10.85 -12.15 L10.85 -12.15 Q11.05 -12.2 11.0 -12.4 11.0 -12.65 11.1 -12.7 L11.15 -12.75 11.15 -12.7 11.1 -12.55 Q11.1 -12.45 11.2 -12.4 L11.25 -12.35 11.3 -12.25 11.25 -12.05 Q11.25 -12.0 11.3 -11.95 L11.45 -11.9 Q11.55 -11.9 11.6 -12.05 L11.65 -12.25 11.8 -12.45 11.8 -12.5 11.9 -12.7 M10.05 -10.1 L10.0 -10.1 9.95 -10.1 9.95 -10.1 9.9 -10.1 9.85 -10.05 9.9 -10.05 9.95 -10.0 10.05 -10.05 10.05 -10.1 M11.85 -11.85 L11.85 -11.85 12.1 -11.85 12.55 -11.85 12.65 -11.9 12.6 -11.8 12.45 -11.75 12.4 -11.7 12.35 -11.65 12.3 -11.65 12.3 -11.6 12.25 -11.6 12.2 -11.6 12.15 -11.6 12.1 -11.55 12.0 -11.5 11.9 -11.55 11.9 -11.55 11.8 -11.55 11.75 -11.55 Q11.75 -11.5 11.75 -11.55 L11.75 -11.6 11.75 -11.65 11.8 -11.75 11.8 -11.75 11.85 -11.8 11.85 -11.85 M10.55 -10.3 L10.5 -10.35 10.45 -10.35 10.4 -10.35 10.3 -10.3 10.2 -10.2 10.25 -10.2 10.3 -10.15 10.35 -10.1 10.4 -10.1 Q10.45 -10.1 10.45 -10.15 L10.4 -10.2 10.55 -10.3 10.55 -10.3 M13.65 -10.05 L13.65 -10.1 13.7 -10.2 13.7 -10.3 Q13.75 -10.3 13.8 -10.25 L13.85 -10.25 13.8 -10.15 13.7 -10.1 13.65 -10.05 M13.25 -9.65 L13.35 -9.65 13.45 -9.65 13.55 -9.6 13.55 -9.6 13.35 -9.55 13.3 -9.55 13.2 -9.5 13.15 -9.45 13.1 -9.4 13.15 -9.4 13.2 -9.3 13.2 -9.3 13.25 -9.25 13.2 -9.2 13.1 -9.15 13.1 -9.2 12.85 -9.35 12.85 -9.4 12.9 -9.5 12.95 -9.55 13.0 -9.7 13.0 -9.75 13.05 -9.7 13.1 -9.65 13.1 -9.65 13.15 -9.6 13.25 -9.65 M12.3 -9.4 L12.2 -9.4 12.1 -9.4 12.05 -9.45 12.0 -9.45 12.0 -9.5 12.0 -9.5 12.1 -9.5 12.15 -9.5 12.2 -9.5 12.25 -9.5 Q12.3 -9.5 12.3 -9.5 L12.3 -9.45 12.35 -9.45 12.3 -9.4 M12.55 -8.8 L12.7 -8.9 12.85 -9.0 12.9 -8.95 12.85 -8.95 12.75 -8.95 12.65 -8.85 Q12.6 -8.8 12.6 -8.7 L12.6 -8.75 12.55 -8.8 M11.5 -9.25 L11.5 -9.3 11.55 -9.2 11.55 -9.1 11.5 -9.05 Q11.45 -8.95 11.35 -8.95 L11.3 -8.95 11.25 -8.95 11.2 -9.0 11.35 -9.05 11.45 -9.15 Q11.5 -9.2 11.5 -9.25 M10.2 -9.05 L10.2 -9.05 10.15 -9.0 10.1 -8.9 10.0 -8.85 9.95 -8.85 9.95 -8.85 9.9 -8.9 9.85 -8.8 9.85 -8.75 9.8 -8.75 9.85 -8.7 10.05 -8.6 Q10.3 -8.75 10.3 -8.85 L10.25 -8.9 10.25 -9.05 10.2 -9.05 M10.6 -9.8 L10.55 -9.75 Q10.4 -9.7 10.3 -9.7 L10.25 -9.7 10.25 -9.7 10.2 -9.75 10.2 -9.75 10.1 -9.7 10.1 -9.6 10.15 -9.5 10.35 -9.5 Q10.4 -9.5 10.5 -9.6 10.6 -9.7 10.6 -9.8 L10.6 -9.8 M9.75 -9.4 L9.7 -9.4 9.65 -9.35 9.6 -9.35 9.55 -9.3 9.55 -9.25 9.55 -9.25 9.7 -9.25 9.7 -9.3 9.75 -9.3 9.75 -9.4" fill="#722c28" fill-rule="evenodd" stroke="none"/>
    <path d="M11.45 -13.65 L11.45 -13.55 11.55 -13.35 11.55 -13.3 11.6 -13.2 Q11.55 -13.05 11.45 -12.95 L11.45 -12.95 11.35 -12.85 11.35 -12.85 11.4 -12.85 11.5 -12.85 11.55 -12.9 11.6 -12.9 11.6 -12.85 Q11.55 -12.8 11.55 -12.65 L11.55 -12.65 11.45 -12.5 Q11.35 -12.45 11.35 -12.4 L11.35 -12.35 11.45 -12.4 Q11.55 -12.4 11.6 -12.45 L11.8 -12.95 11.8 -13.0 11.7 -13.0 11.75 -13.15 11.85 -13.25 11.9 -13.2 11.95 -12.95 11.9 -12.75 11.9 -12.7 11.8 -12.5 11.8 -12.45 11.65 -12.25 11.6 -12.05 Q11.55 -11.9 11.45 -11.9 L11.3 -11.95 Q11.25 -12.0 11.25 -12.05 L11.3 -12.25 11.25 -12.35 11.2 -12.4 Q11.1 -12.45 11.1 -12.55 L11.15 -12.7 Q11.25 -12.7 11.25 -12.8 L11.25 -12.9 11.2 -13.0 11.1 -12.95 11.05 -12.9 11.0 -12.85 11.05 -12.75 Q11.05 -12.7 11.1 -12.7 11.0 -12.65 11.0 -12.4 11.05 -12.2 10.85 -12.15 L10.85 -12.15 Q10.85 -12.05 10.95 -12.0 11.05 -11.95 11.05 -11.85 L11.0 -11.85 Q10.85 -11.5 10.85 -11.4 L10.8 -11.15 Q10.75 -11.05 10.65 -11.05 L10.65 -11.05 10.6 -11.0 10.65 -10.95 10.65 -10.85 10.7 -10.85 10.75 -10.85 10.8 -10.85 10.85 -10.85 10.9 -10.8 Q11.05 -11.0 11.05 -11.1 L11.05 -11.2 11.0 -11.25 11.05 -11.35 11.1 -11.4 11.05 -11.5 11.0 -11.6 11.05 -11.7 11.15 -11.75 11.25 -11.75 11.3 -11.75 11.4 -11.8 11.45 -11.85 11.5 -11.85 11.5 -11.9 11.65 -11.85 11.7 -11.85 Q11.75 -11.9 11.75 -11.9 L11.8 -11.85 11.85 -11.95 11.85 -11.95 11.95 -12.1 11.95 -12.35 11.95 -12.4 12.1 -12.45 Q12.2 -12.45 12.2 -12.5 L12.2 -12.55 12.2 -12.6 12.25 -12.6 12.4 -12.65 Q12.6 -12.65 12.6 -12.45 L12.55 -12.45 12.55 -12.35 12.55 -12.45 12.45 -12.45 Q12.25 -12.5 12.2 -12.3 L12.2 -12.2 12.1 -12.05 12.1 -12.05 Q12.15 -11.95 12.4 -11.95 L12.55 -12.0 12.65 -12.05 Q12.55 -12.05 12.55 -12.2 L12.6 -12.2 12.7 -12.15 12.75 -12.1 12.7 -12.05 12.75 -12.1 12.75 -12.05 12.7 -11.95 12.7 -11.95 12.8 -11.95 12.85 -12.0 Q12.85 -12.05 12.9 -12.05 L13.05 -11.9 12.95 -11.75 12.9 -11.8 12.8 -11.9 12.75 -11.85 12.7 -11.85 12.7 -11.85 12.6 -11.8 12.55 -11.75 12.55 -11.7 12.55 -11.65 12.5 -11.6 12.55 -11.55 12.65 -11.5 12.65 -11.5 12.6 -11.45 12.65 -11.45 12.65 -11.4 12.6 -11.35 12.55 -11.3 12.55 -11.25 12.55 -11.25 12.65 -11.3 12.7 -11.25 12.7 -11.25 12.75 -11.25 Q12.75 -11.25 12.8 -11.25 L12.75 -11.15 12.7 -11.1 12.7 -11.1 12.6 -11.05 12.5 -11.15 12.4 -11.2 12.35 -11.15 Q12.3 -11.1 12.25 -11.1 L12.05 -11.2 12.0 -11.2 11.95 -11.15 Q11.95 -11.15 11.95 -11.2 L11.95 -11.2 11.9 -11.2 11.9 -11.2 11.85 -11.2 11.85 -11.1 11.85 -11.05 11.95 -11.05 12.05 -10.95 12.0 -10.9 12.0 -10.9 11.95 -10.85 11.85 -10.85 11.8 -10.8 11.8 -10.8 11.75 -10.75 11.75 -10.7 Q11.7 -10.65 11.65 -10.65 L11.5 -10.6 11.5 -10.55 11.45 -10.5 11.4 -10.45 11.4 -10.4 11.45 -10.35 11.4 -10.3 11.35 -10.2 11.35 -10.2 11.4 -10.2 11.4 -10.25 11.45 -10.25 11.55 -10.2 Q11.55 -10.2 11.7 -10.2 L11.65 -10.25 11.65 -10.3 11.55 -10.35 Q11.45 -10.4 11.45 -10.4 L11.5 -10.45 11.6 -10.5 11.6 -10.5 11.65 -10.5 11.65 -10.5 11.7 -10.5 11.7 -10.5 11.75 -10.55 11.75 -10.6 11.8 -10.65 11.85 -10.7 11.9 -10.75 12.0 -10.8 12.05 -10.8 12.15 -10.8 Q12.15 -10.85 12.25 -10.9 L12.45 -10.95 Q12.5 -10.95 12.5 -10.9 L12.55 -10.8 12.65 -10.8 12.65 -10.8 12.7 -10.75 12.75 -10.65 12.75 -10.6 12.7 -10.55 12.65 -10.5 12.6 -10.5 12.55 -10.55 12.5 -10.6 Q12.45 -10.6 12.4 -10.5 L12.4 -10.5 Q12.3 -10.45 12.35 -10.35 12.3 -10.3 12.2 -10.3 12.1 -10.3 12.05 -10.25 L12.05 -10.2 12.1 -10.2 12.15 -10.2 12.25 -10.15 12.25 -10.1 12.3 -10.1 12.35 -10.05 12.35 -10.1 12.4 -10.1 12.35 -10.15 12.3 -10.2 12.4 -10.3 12.5 -10.35 12.55 -10.3 12.55 -10.25 12.6 -10.2 12.65 -10.2 12.7 -10.15 12.75 -10.1 12.8 -10.15 12.9 -10.15 Q12.75 -10.2 12.7 -10.2 L12.7 -10.3 12.7 -10.4 12.85 -10.45 12.9 -10.45 12.95 -10.35 13.0 -10.35 13.1 -10.25 Q13.1 -10.2 13.15 -10.2 L13.2 -10.25 13.25 -10.25 13.35 -10.2 13.4 -10.2 13.5 -10.2 13.5 -10.25 13.5 -10.3 13.45 -10.3 13.35 -10.3 13.35 -10.35 Q13.45 -10.35 13.5 -10.4 L13.45 -10.45 13.45 -10.45 13.4 -10.45 13.35 -10.45 13.3 -10.4 13.3 -10.4 13.25 -10.5 13.2 -10.55 13.2 -10.6 13.3 -10.6 13.35 -10.6 13.4 -10.55 13.45 -10.6 13.5 -10.6 13.35 -10.65 Q13.2 -10.7 13.2 -10.75 L13.25 -10.85 13.3 -10.95 Q13.3 -11.0 13.4 -11.0 L13.5 -11.05 Q13.55 -11.05 13.6 -10.95 13.7 -10.9 13.75 -10.9 L13.75 -10.9 13.85 -10.95 13.9 -10.95 14.05 -10.85 14.15 -10.7 14.1 -10.65 14.1 -10.55 14.2 -10.55 14.3 -10.45 14.3 -10.35 Q14.3 -10.35 14.4 -10.35 L14.45 -10.35 14.55 -10.35 14.65 -10.3 14.75 -10.2 14.75 -10.2 14.7 -10.15 14.8 -10.15 14.85 -10.15 14.9 -10.1 14.95 -10.05 15.0 -9.95 15.1 -9.85 15.05 -9.85 14.95 -9.8 14.9 -9.8 14.85 -9.85 14.8 -9.9 14.7 -9.85 14.65 -9.8 14.35 -9.9 14.25 -9.85 14.15 -9.8 Q14.15 -9.75 14.2 -9.65 L14.3 -9.55 14.25 -9.5 14.2 -9.4 14.2 -9.4 14.25 -9.35 14.15 -9.25 14.1 -9.2 14.05 -9.2 13.95 -9.2 13.8 -9.2 13.7 -9.25 13.65 -9.3 13.65 -9.3 13.55 -9.25 13.5 -9.2 13.6 -9.1 13.65 -9.05 13.6 -9.0 13.6 -8.9 13.65 -8.85 13.5 -8.8 13.4 -8.8 13.35 -8.8 13.3 -8.85 13.3 -8.85 13.1 -8.85 13.05 -8.85 Q13.1 -8.8 13.15 -8.8 L13.25 -8.75 Q13.3 -8.55 13.35 -8.55 L13.5 -8.6 13.55 -8.6 13.6 -8.5 Q13.6 -8.4 13.65 -8.4 L13.75 -8.4 13.8 -8.4 14.0 -8.4 14.05 -8.3 Q14.05 -8.25 13.8 -8.25 L13.75 -8.25 Q14.1 -8.0 14.1 -7.9 L14.05 -7.75 Q14.0 -7.7 13.9 -7.7 L13.65 -7.75 13.6 -7.75 13.5 -7.8 13.35 -7.95 13.25 -8.05 Q13.2 -8.0 13.2 -7.9 13.2 -7.8 13.05 -7.8 L13.0 -7.8 12.95 -7.8 13.0 -7.8 13.0 -7.8 13.0 -7.75 13.2 -7.75 13.3 -7.75 13.5 -7.7 13.55 -7.65 13.6 -7.45 13.55 -7.4 13.55 -7.4 Q13.45 -7.35 13.45 -7.3 13.45 -7.25 13.6 -7.2 L13.7 -7.1 Q13.7 -7.0 13.6 -6.95 L13.5 -6.85 13.15 -6.95 13.1 -7.0 12.8 -7.05 12.7 -7.15 12.6 -7.2 12.6 -7.4 12.6 -7.6 12.65 -7.7 Q12.75 -7.8 12.7 -7.85 L12.7 -7.9 12.8 -7.9 12.8 -7.9 12.8 -8.0 12.7 -8.05 Q12.55 -8.05 12.5 -8.15 L12.5 -8.15 12.55 -8.35 12.6 -8.45 12.65 -8.45 12.65 -8.5 12.6 -8.65 Q12.6 -8.6 12.6 -8.55 L12.45 -8.5 12.4 -8.5 12.35 -8.5 12.3 -8.45 Q12.25 -8.4 12.2 -8.4 L12.2 -8.4 12.25 -8.25 12.3 -8.1 12.35 -8.1 Q12.45 -8.0 12.45 -7.9 12.45 -7.75 12.3 -7.75 L12.25 -7.75 Q12.05 -7.75 11.9 -7.9 11.8 -8.0 11.8 -8.05 L11.8 -8.1 11.8 -8.2 11.85 -8.3 11.95 -8.35 12.0 -8.45 12.0 -8.5 11.9 -8.55 11.8 -8.5 11.7 -8.45 11.65 -8.4 11.65 -8.3 11.7 -8.05 11.7 -8.05 11.75 -7.95 Q11.7 -8.0 11.65 -8.0 L11.6 -8.0 11.5 -8.15 11.45 -8.25 11.45 -8.1 11.45 -7.9 Q11.5 -7.8 11.6 -7.7 L11.65 -7.6 Q11.85 -7.35 12.1 -7.35 L12.2 -7.4 12.15 -7.4 12.05 -7.5 12.0 -7.6 11.95 -7.7 11.9 -7.8 12.05 -7.75 12.15 -7.6 12.2 -7.6 12.2 -7.55 Q12.25 -7.5 12.3 -7.45 L12.4 -7.45 12.45 -7.35 12.55 -7.2 12.7 -7.05 12.7 -6.95 12.65 -6.95 12.6 -6.95 Q12.5 -6.95 12.35 -7.0 L12.2 -7.15 Q12.05 -7.1 11.9 -7.2 11.75 -7.3 11.65 -7.5 L11.65 -7.5 11.4 -7.65 11.35 -7.4 Q11.3 -7.4 11.15 -7.5 L11.0 -7.6 11.05 -7.7 11.1 -7.75 11.1 -7.8 11.0 -8.0 10.95 -8.2 Q10.95 -8.35 11.0 -8.45 L11.05 -8.55 11.0 -8.6 10.8 -8.65 Q10.65 -8.7 10.65 -8.75 L10.65 -8.75 10.6 -8.8 10.6 -8.95 Q10.6 -9.15 10.65 -9.2 L10.7 -9.2 10.8 -9.2 10.9 -9.2 10.85 -9.3 10.95 -9.35 Q11.05 -9.4 11.05 -9.45 L11.05 -9.5 11.0 -9.55 11.0 -9.65 10.95 -9.7 Q10.75 -9.8 10.7 -9.95 L10.85 -9.95 Q10.9 -10.0 10.9 -10.05 L10.9 -10.15 10.95 -10.2 11.0 -10.25 10.95 -10.3 10.85 -10.35 10.8 -10.35 10.7 -10.35 10.6 -10.35 10.55 -10.4 10.45 -10.45 10.4 -10.5 Q10.15 -10.5 10.15 -10.8 10.15 -10.9 10.2 -10.95 L10.35 -11.05 10.4 -11.2 10.45 -11.3 10.45 -11.35 10.4 -11.65 10.4 -11.75 Q10.45 -11.95 10.6 -12.1 L10.65 -12.2 10.75 -12.3 10.8 -12.5 10.8 -12.55 10.9 -12.8 10.9 -12.95 10.85 -13.1 Q10.85 -13.25 10.95 -13.35 11.05 -13.45 11.25 -13.5 L11.35 -13.6 11.45 -13.65 M11.85 -11.85 L11.85 -11.8 11.8 -11.75 11.8 -11.75 11.75 -11.65 11.75 -11.6 11.75 -11.55 Q11.75 -11.5 11.75 -11.55 L11.8 -11.55 11.9 -11.55 11.9 -11.55 12.0 -11.5 12.1 -11.55 12.15 -11.6 12.2 -11.6 12.25 -11.6 12.3 -11.6 12.3 -11.65 12.35 -11.65 12.4 -11.7 12.45 -11.75 12.6 -11.8 12.65 -11.9 12.55 -11.85 12.1 -11.85 11.85 -11.85 11.85 -11.85 M10.05 -10.1 L10.05 -10.05 9.95 -10.0 9.9 -10.05 9.85 -10.05 9.9 -10.1 9.95 -10.1 9.95 -10.1 10.0 -10.1 10.05 -10.1 M11.65 -11.65 L11.7 -11.7 11.65 -11.75 11.6 -11.8 Q11.45 -11.8 11.35 -11.7 L11.15 -11.55 11.35 -11.45 11.4 -11.4 11.45 -11.35 11.6 -11.35 11.7 -11.4 11.8 -11.35 11.8 -11.45 11.7 -11.5 Q11.6 -11.5 11.6 -11.55 L11.65 -11.65 M11.15 -11.15 L11.2 -11.1 11.25 -11.05 11.25 -10.95 11.4 -10.95 11.45 -11.0 11.45 -11.1 11.6 -11.2 11.65 -11.2 11.6 -11.2 11.55 -11.25 11.4 -11.25 11.35 -11.25 11.25 -11.25 11.15 -11.15 M12.05 -11.4 L12.1 -11.35 Q12.1 -11.35 12.15 -11.35 L12.2 -11.35 12.3 -11.35 12.35 -11.4 12.3 -11.45 12.2 -11.5 12.1 -11.5 12.05 -11.45 12.05 -11.4 M10.7 -10.65 Q10.65 -10.65 10.6 -10.7 L10.55 -10.75 10.5 -10.7 10.5 -10.7 Q10.5 -10.6 10.6 -10.55 L10.6 -10.55 10.75 -10.55 10.9 -10.5 10.9 -10.45 11.05 -10.4 11.1 -10.5 11.15 -10.55 Q11.15 -10.65 11.25 -10.65 L11.35 -10.7 11.35 -10.7 Q11.25 -10.8 11.2 -10.8 L11.05 -10.75 Q10.95 -10.7 10.95 -10.6 L10.95 -10.6 10.9 -10.6 Q10.9 -10.6 10.85 -10.65 L10.8 -10.7 10.7 -10.65 M10.55 -10.3 L10.55 -10.3 10.4 -10.2 10.45 -10.15 Q10.45 -10.1 10.4 -10.1 L10.35 -10.1 10.3 -10.15 10.25 -10.2 10.2 -10.2 10.3 -10.3 10.4 -10.35 10.45 -10.35 10.5 -10.35 10.55 -10.3 M11.05 -10.0 L11.0 -9.95 Q11.0 -9.85 11.15 -9.85 L11.4 -9.75 11.45 -9.65 11.5 -9.65 Q11.6 -9.65 11.7 -9.75 L11.75 -9.85 11.8 -9.9 11.85 -9.95 11.75 -10.0 11.7 -10.0 11.65 -10.0 Q11.55 -10.0 11.45 -10.05 11.35 -10.15 11.3 -10.15 L11.25 -10.15 11.2 -10.15 11.15 -10.1 11.05 -10.0 M11.65 -10.95 L11.55 -10.95 11.5 -10.8 11.5 -10.75 11.55 -10.75 Q11.65 -10.75 11.7 -10.8 L11.75 -10.9 11.65 -10.95 M12.0 -10.6 L12.0 -10.55 11.95 -10.55 Q11.95 -10.5 12.1 -10.5 L12.15 -10.5 12.2 -10.55 12.25 -10.55 12.3 -10.55 12.05 -10.75 12.05 -10.65 12.0 -10.6 M11.9 -10.35 L11.9 -10.4 11.85 -10.4 11.75 -10.4 11.7 -10.4 11.65 -10.4 11.7 -10.35 Q11.7 -10.3 11.75 -10.3 L11.9 -10.3 11.9 -10.35 M13.0 -10.0 L13.0 -10.0 12.95 -10.0 12.95 -9.9 13.0 -9.85 13.05 -9.9 13.05 -9.95 13.0 -10.0 M13.7 -10.85 L13.65 -10.8 13.6 -10.8 Q13.55 -10.8 13.5 -10.85 L13.45 -10.9 Q13.35 -10.9 13.35 -10.8 L13.5 -10.6 Q13.55 -10.6 13.6 -10.55 L13.65 -10.5 13.75 -10.5 Q13.85 -10.5 13.85 -10.55 L13.85 -10.7 13.95 -10.75 13.9 -10.75 13.75 -10.85 13.7 -10.85 M13.35 -10.0 L13.25 -10.0 13.25 -10.0 13.25 -9.9 13.3 -9.9 13.35 -9.9 13.45 -9.95 13.5 -10.0 13.5 -10.0 13.4 -10.0 13.35 -10.0 M13.65 -10.05 L13.7 -10.1 13.8 -10.15 13.85 -10.25 13.8 -10.25 Q13.75 -10.3 13.7 -10.3 L13.7 -10.2 13.65 -10.1 13.65 -10.05 M13.75 -10.05 L13.8 -10.05 13.8 -10.0 13.75 -9.95 Q13.65 -9.9 13.65 -9.8 L13.65 -9.7 13.6 -9.7 13.5 -9.7 13.5 -9.7 13.6 -9.6 13.65 -9.6 13.65 -9.6 13.75 -9.5 13.7 -9.4 13.65 -9.4 13.6 -9.4 13.6 -9.4 13.5 -9.4 13.55 -9.4 13.55 -9.35 13.65 -9.35 13.65 -9.35 13.75 -9.3 13.8 -9.3 Q13.9 -9.3 13.95 -9.4 L14.05 -9.55 14.15 -9.8 14.1 -9.9 14.05 -10.0 14.05 -10.0 14.0 -10.0 13.9 -10.1 13.9 -10.15 13.8 -10.1 13.75 -10.1 13.75 -10.05 M14.35 -10.15 L14.3 -10.2 14.25 -10.2 14.25 -10.2 14.25 -10.15 14.3 -10.15 14.3 -10.1 14.25 -10.05 14.35 -10.0 Q14.4 -9.9 14.4 -9.9 L14.6 -10.0 14.6 -10.15 14.45 -10.15 14.35 -10.15 M13.25 -9.65 L13.15 -9.6 13.1 -9.65 13.1 -9.65 13.05 -9.7 13.0 -9.75 13.0 -9.7 12.95 -9.55 12.9 -9.5 12.85 -9.4 12.85 -9.35 13.1 -9.2 13.1 -9.15 13.2 -9.2 13.25 -9.25 13.2 -9.3 13.2 -9.3 13.15 -9.4 13.1 -9.4 13.15 -9.45 13.2 -9.5 13.3 -9.55 13.35 -9.55 13.55 -9.6 13.55 -9.6 13.45 -9.65 13.35 -9.65 13.25 -9.65 M13.3 -9.2 L13.3 -9.15 13.25 -9.15 13.25 -9.05 13.3 -9.05 13.3 -9.05 13.35 -9.1 13.4 -9.2 13.35 -9.2 13.3 -9.2 M12.65 -9.35 L12.65 -9.35 12.7 -9.6 Q12.7 -9.7 12.65 -9.75 L12.6 -9.8 12.5 -9.85 12.45 -9.85 12.45 -9.85 Q12.35 -9.8 12.35 -9.75 L12.4 -9.6 12.5 -9.4 12.45 -9.2 12.45 -9.2 12.5 -9.2 12.6 -9.25 12.65 -9.35 M12.3 -9.4 L12.35 -9.45 12.3 -9.45 12.3 -9.5 Q12.3 -9.5 12.25 -9.5 L12.2 -9.5 12.15 -9.5 12.1 -9.5 12.0 -9.5 12.0 -9.5 12.0 -9.45 12.05 -9.45 12.1 -9.4 12.2 -9.4 12.3 -9.4 M12.55 -9.05 L12.45 -9.05 12.3 -9.05 12.2 -9.1 12.2 -9.0 Q12.2 -8.95 12.2 -8.95 L12.2 -8.9 12.35 -8.9 Q12.4 -8.9 12.65 -9.0 L12.7 -9.05 12.8 -9.1 12.85 -9.1 12.8 -9.2 12.7 -9.15 12.65 -9.1 12.55 -9.05 M12.2 -8.75 L12.15 -8.7 12.1 -8.7 Q12.05 -8.7 12.0 -8.75 L12.0 -9.0 11.95 -9.0 11.9 -8.95 11.85 -8.85 11.8 -8.8 Q11.75 -8.8 11.7 -8.75 L11.9 -8.65 11.9 -8.6 11.95 -8.55 12.0 -8.55 12.15 -8.55 12.3 -8.6 12.25 -8.65 12.2 -8.75 M12.55 -8.8 L12.6 -8.75 12.6 -8.7 Q12.6 -8.8 12.65 -8.85 L12.75 -8.95 12.85 -8.95 12.9 -8.95 12.85 -9.0 12.7 -8.9 12.55 -8.8 M13.0 -8.35 Q13.0 -8.25 13.05 -8.25 L13.2 -8.3 Q13.25 -8.35 13.25 -8.4 L13.1 -8.65 13.0 -8.7 13.0 -8.65 13.0 -8.35 M13.1 -8.35 L13.05 -8.4 13.1 -8.4 13.1 -8.35 M13.6 -8.15 L13.6 -8.1 13.55 -8.0 Q13.55 -7.9 13.6 -7.85 L13.65 -7.85 13.8 -7.8 13.85 -7.85 13.9 -7.9 Q13.9 -7.95 13.7 -8.1 L13.65 -8.1 13.6 -8.15 M13.75 -8.4 L13.7 -8.4 13.6 -8.35 13.5 -8.35 13.55 -8.3 Q13.6 -8.25 13.7 -8.25 L13.75 -8.25 13.75 -8.25 13.85 -8.25 13.8 -8.35 13.75 -8.4 M13.15 -7.55 L13.05 -7.45 13.0 -7.4 13.0 -7.3 13.1 -7.15 13.3 -6.95 13.35 -7.0 13.4 -7.05 13.35 -7.15 Q13.25 -7.25 13.25 -7.3 L13.4 -7.35 13.35 -7.45 13.2 -7.65 13.15 -7.55 M11.75 -9.5 Q11.65 -9.55 11.55 -9.55 L11.45 -9.55 11.3 -9.5 11.15 -9.35 11.35 -9.3 11.4 -9.3 11.5 -9.3 11.65 -9.35 11.75 -9.3 11.85 -9.3 11.9 -9.3 11.8 -9.4 11.75 -9.5 M11.5 -9.25 Q11.5 -9.2 11.45 -9.15 L11.35 -9.05 11.2 -9.0 11.25 -8.95 11.3 -8.95 11.35 -8.95 Q11.45 -8.95 11.5 -9.05 L11.55 -9.1 11.55 -9.2 11.5 -9.3 11.5 -9.25 M11.3 -8.75 L11.25 -8.8 11.2 -8.8 11.15 -8.8 11.05 -8.85 11.0 -8.95 11.0 -8.95 10.9 -8.9 10.9 -8.85 10.95 -8.75 11.05 -8.65 11.1 -8.65 11.15 -8.6 11.15 -8.55 11.25 -8.55 11.4 -8.6 11.5 -8.7 11.6 -8.7 11.5 -8.75 11.45 -8.75 11.4 -8.75 11.35 -8.75 11.3 -8.75 M10.6 -9.8 L10.6 -9.8 Q10.6 -9.7 10.5 -9.6 10.4 -9.5 10.35 -9.5 L10.15 -9.5 10.1 -9.6 10.1 -9.7 10.2 -9.75 10.2 -9.75 10.25 -9.7 10.25 -9.7 10.3 -9.7 Q10.4 -9.7 10.55 -9.75 L10.6 -9.8 M10.2 -9.05 L10.25 -9.05 10.25 -8.9 10.3 -8.85 Q10.3 -8.75 10.05 -8.6 L9.85 -8.7 9.8 -8.75 9.85 -8.75 9.85 -8.8 9.9 -8.9 9.95 -8.85 9.95 -8.85 10.0 -8.85 10.1 -8.9 10.15 -9.0 10.2 -9.05 10.2 -9.05 M9.75 -9.4 L9.75 -9.3 9.7 -9.3 9.7 -9.25 9.55 -9.25 9.55 -9.25 9.55 -9.3 9.6 -9.35 9.65 -9.35 9.7 -9.4 9.75 -9.4" fill="#b97814" fill-rule="evenodd" stroke="none"/>
    <path d="M12.95 -11.75 L12.9 -11.7 12.9 -11.7 12.8 -11.65 12.8 -11.6 12.75 -11.6 12.7 -11.55 12.65 -11.5 12.65 -11.5 12.55 -11.55 12.5 -11.6 12.55 -11.65 12.55 -11.7 12.55 -11.75 12.6 -11.8 12.7 -11.85 12.7 -11.85 12.75 -11.85 12.8 -11.9 12.9 -11.8 12.95 -11.75 M11.75 -7.95 L11.85 -7.85 11.9 -7.8 11.95 -7.7 12.0 -7.6 12.05 -7.5 12.15 -7.4 12.2 -7.4 12.1 -7.35 Q11.85 -7.35 11.65 -7.6 L11.6 -7.7 Q11.5 -7.8 11.45 -7.9 L11.45 -8.1 11.45 -8.25 11.5 -8.15 11.6 -8.0 11.65 -8.0 Q11.7 -8.0 11.75 -7.95 M11.1 -12.7 Q11.05 -12.7 11.05 -12.75 L11.0 -12.85 11.05 -12.9 11.1 -12.95 11.2 -13.0 11.25 -12.9 11.25 -12.8 Q11.25 -12.7 11.15 -12.7 L11.15 -12.75 11.1 -12.7 M12.55 -12.35 L12.55 -12.3 12.5 -12.2 12.5 -12.2 12.55 -12.2 Q12.55 -12.05 12.65 -12.05 L12.55 -12.0 12.4 -11.95 Q12.15 -11.95 12.1 -12.05 L12.1 -12.05 12.2 -12.2 12.2 -12.3 Q12.25 -12.5 12.45 -12.45 L12.55 -12.45 12.55 -12.35 M11.7 -13.0 L11.8 -13.0 11.8 -12.95 11.6 -12.45 Q11.55 -12.4 11.45 -12.4 L11.35 -12.35 11.35 -12.4 Q11.35 -12.45 11.45 -12.5 L11.55 -12.65 11.55 -12.65 Q11.55 -12.8 11.6 -12.85 L11.6 -12.9 11.6 -12.9 11.7 -13.0 M10.7 -10.65 L10.8 -10.7 10.85 -10.65 Q10.9 -10.6 10.9 -10.6 L10.95 -10.6 10.95 -10.6 Q10.95 -10.7 11.05 -10.75 L11.2 -10.8 Q11.25 -10.8 11.35 -10.7 L11.35 -10.7 11.25 -10.65 Q11.15 -10.65 11.15 -10.55 L11.1 -10.5 11.05 -10.4 10.9 -10.45 10.9 -10.5 10.75 -10.55 10.6 -10.55 10.6 -10.55 Q10.5 -10.6 10.5 -10.7 L10.5 -10.7 10.55 -10.75 10.6 -10.7 Q10.65 -10.65 10.7 -10.65 M12.05 -11.4 L12.05 -11.45 12.1 -11.5 12.2 -11.5 12.3 -11.45 12.35 -11.4 12.3 -11.35 12.2 -11.35 12.15 -11.35 Q12.1 -11.35 12.1 -11.35 L12.05 -11.4 M11.15 -11.15 L11.25 -11.25 11.35 -11.25 11.4 -11.25 11.55 -11.25 11.6 -11.2 11.65 -11.2 11.6 -11.2 11.45 -11.1 11.45 -11.0 11.4 -10.95 11.25 -10.95 11.25 -11.05 11.2 -11.1 11.15 -11.15 M11.65 -11.65 L11.6 -11.55 Q11.6 -11.5 11.7 -11.5 L11.8 -11.45 11.8 -11.35 11.7 -11.4 11.6 -11.35 11.45 -11.35 11.4 -11.4 11.35 -11.45 11.15 -11.55 11.35 -11.7 Q11.45 -11.8 11.6 -11.8 L11.65 -11.75 11.7 -11.7 11.65 -11.65 M11.9 -10.35 L11.9 -10.3 11.75 -10.3 Q11.7 -10.3 11.7 -10.35 L11.65 -10.4 11.7 -10.4 11.75 -10.4 11.85 -10.4 11.9 -10.4 11.9 -10.35 M12.0 -10.6 L12.05 -10.65 12.05 -10.75 12.3 -10.55 12.25 -10.55 12.2 -10.55 12.15 -10.5 12.1 -10.5 Q11.95 -10.5 11.95 -10.55 L12.0 -10.55 12.0 -10.6 M11.65 -10.95 L11.75 -10.9 11.7 -10.8 Q11.65 -10.75 11.55 -10.75 L11.5 -10.75 11.5 -10.8 11.55 -10.95 11.65 -10.95 M11.05 -10.0 L11.15 -10.1 11.2 -10.15 11.25 -10.15 11.3 -10.15 Q11.35 -10.15 11.45 -10.05 11.55 -10.0 11.65 -10.0 L11.7 -10.0 11.75 -10.0 11.85 -9.95 11.8 -9.9 11.75 -9.85 11.7 -9.75 Q11.6 -9.65 11.5 -9.65 L11.45 -9.65 11.4 -9.75 11.15 -9.85 Q11.0 -9.85 11.0 -9.95 L11.05 -10.0 M13.35 -10.0 L13.4 -10.0 13.5 -10.0 13.5 -10.0 13.45 -9.95 13.35 -9.9 13.3 -9.9 13.25 -9.9 13.25 -10.0 13.25 -10.0 13.35 -10.0 M13.7 -10.85 L13.75 -10.85 13.9 -10.75 13.95 -10.75 13.85 -10.7 13.85 -10.55 Q13.85 -10.5 13.75 -10.5 L13.65 -10.5 13.6 -10.55 Q13.55 -10.6 13.5 -10.6 L13.35 -10.8 Q13.35 -10.9 13.45 -10.9 L13.5 -10.85 Q13.55 -10.8 13.6 -10.8 L13.65 -10.8 13.7 -10.85 M13.0 -10.0 L13.05 -9.95 13.05 -9.9 13.0 -9.85 12.95 -9.9 12.95 -10.0 13.0 -10.0 13.0 -10.0 M13.75 -10.05 L13.75 -10.1 13.8 -10.1 13.9 -10.15 13.9 -10.1 14.0 -10.0 14.05 -10.0 14.05 -10.0 14.1 -9.9 14.15 -9.8 14.05 -9.55 13.95 -9.4 Q13.9 -9.3 13.8 -9.3 L13.75 -9.3 13.65 -9.35 13.65 -9.35 13.55 -9.35 13.55 -9.4 13.5 -9.4 13.6 -9.4 13.6 -9.4 13.65 -9.4 13.7 -9.4 13.75 -9.5 13.65 -9.6 13.65 -9.6 13.6 -9.6 13.5 -9.7 13.5 -9.7 13.6 -9.7 13.65 -9.7 13.65 -9.8 Q13.65 -9.9 13.75 -9.95 L13.8 -10.0 13.8 -10.05 13.75 -10.05 M14.35 -10.15 L14.45 -10.15 14.6 -10.15 14.6 -10.0 14.4 -9.9 Q14.4 -9.9 14.35 -10.0 L14.25 -10.05 14.3 -10.1 14.3 -10.15 14.25 -10.15 14.25 -10.2 14.25 -10.2 14.3 -10.2 14.35 -10.15 M13.3 -9.2 L13.35 -9.2 13.4 -9.2 13.35 -9.1 13.3 -9.05 13.3 -9.05 13.25 -9.05 13.25 -9.15 13.3 -9.15 13.3 -9.2 M12.65 -9.35 L12.6 -9.25 12.5 -9.2 12.45 -9.2 12.45 -9.2 12.5 -9.4 12.4 -9.6 12.35 -9.75 Q12.35 -9.8 12.45 -9.85 L12.45 -9.85 12.5 -9.85 12.6 -9.8 12.65 -9.75 Q12.7 -9.7 12.7 -9.6 L12.65 -9.35 12.65 -9.35 M12.2 -8.75 L12.25 -8.65 12.3 -8.6 12.15 -8.55 12.0 -8.55 11.95 -8.55 11.9 -8.6 11.9 -8.65 11.7 -8.75 Q11.75 -8.8 11.8 -8.8 L11.85 -8.85 11.9 -8.95 11.95 -9.0 12.0 -9.0 12.0 -8.75 Q12.05 -8.7 12.1 -8.7 L12.15 -8.7 12.2 -8.75 M12.55 -9.05 L12.65 -9.1 12.7 -9.15 12.8 -9.2 12.85 -9.1 12.8 -9.1 12.7 -9.05 12.65 -9.0 Q12.4 -8.9 12.35 -8.9 L12.2 -8.9 12.2 -8.95 Q12.2 -8.95 12.2 -9.0 L12.2 -9.1 12.3 -9.05 12.45 -9.05 12.55 -9.05 M13.0 -8.35 L13.0 -8.65 13.0 -8.7 13.1 -8.65 13.25 -8.4 Q13.25 -8.35 13.2 -8.3 L13.05 -8.25 Q13.0 -8.25 13.0 -8.35 M13.1 -8.35 L13.1 -8.4 13.05 -8.4 13.1 -8.35 M13.15 -7.55 L13.2 -7.65 13.35 -7.45 13.4 -7.35 13.25 -7.3 Q13.25 -7.25 13.35 -7.15 L13.4 -7.05 13.35 -7.0 13.3 -6.95 13.1 -7.15 13.0 -7.3 13.0 -7.4 13.05 -7.45 13.15 -7.55 M13.75 -8.4 L13.8 -8.35 13.85 -8.25 13.75 -8.25 13.75 -8.25 13.7 -8.25 Q13.6 -8.25 13.55 -8.3 L13.5 -8.35 13.6 -8.35 13.7 -8.4 13.75 -8.4 M13.6 -8.15 L13.65 -8.1 13.7 -8.1 Q13.9 -7.95 13.9 -7.9 L13.85 -7.85 13.8 -7.8 13.65 -7.85 13.6 -7.85 Q13.55 -7.9 13.55 -8.0 L13.6 -8.1 13.6 -8.15 M11.75 -9.5 L11.8 -9.4 11.9 -9.3 11.85 -9.3 11.75 -9.3 11.65 -9.35 11.5 -9.3 11.4 -9.3 11.35 -9.3 11.15 -9.35 11.3 -9.5 11.45 -9.55 11.55 -9.55 Q11.65 -9.55 11.75 -9.5 M11.3 -8.75 L11.35 -8.75 11.4 -8.75 11.45 -8.75 11.5 -8.75 11.6 -8.7 11.5 -8.7 11.4 -8.6 11.25 -8.55 11.15 -8.55 11.15 -8.6 11.1 -8.65 11.05 -8.65 10.95 -8.75 10.9 -8.85 10.9 -8.9 11.0 -8.95 11.0 -8.95 11.05 -8.85 11.15 -8.8 11.2 -8.8 11.25 -8.8 11.3 -8.75" fill="#ffe693" fill-rule="evenodd" stroke="none"/>
  </g>
</svg>
