<?xml version="1.0" encoding="UTF-8" standalone="no"?>
<svg xmlns:xlink="http://www.w3.org/1999/xlink" height="3.35px" width="4.3px" xmlns="http://www.w3.org/2000/svg">
  <g transform="matrix(1.0, 0.0, 0.0, 1.0, -10.65, 10.05)">
    <path d="M14.2 -7.75 L14.2 -7.65 14.15 -7.65 14.05 -7.6 Q14.0 -7.6 14.0 -7.65 L14.1 -7.7 14.15 -7.75 14.2 -7.75 M14.35 -8.3 L14.4 -8.3 14.4 -8.3 14.35 -8.3 Q14.35 -8.25 14.35 -8.25 L14.3 -8.3 14.25 -8.3 14.35 -8.3 M14.25 -8.45 L14.25 -8.4 Q14.2 -8.35 14.15 -8.35 L14.15 -8.4 14.2 -8.5 14.25 -8.5 14.25 -8.45 M14.2 -9.7 L14.2 -9.65 14.15 -9.6 14.05 -9.6 14.05 -9.6 14.0 -9.65 14.0 -9.7 14.1 -9.7 14.15 -9.7 14.15 -9.7 14.2 -9.7 M14.8 -9.95 L14.85 -9.95 14.8 -9.9 14.8 -9.9 14.75 -9.9 14.75 -9.95 14.8 -9.95 M13.05 -10.05 L13.0 -10.0 13.0 -10.0 12.95 -10.0 Q12.95 -10.0 12.9 -10.0 L12.95 -10.05 13.05 -10.05 13.05 -10.05 M13.45 -9.05 L13.45 -9.05 13.45 -9.0 Q13.45 -9.0 13.4 -9.0 L13.35 -9.0 13.4 -9.05 13.45 -9.05 13.45 -9.05 M14.0 -6.75 L14.0 -6.7 13.95 -6.7 13.9 -6.7 13.9 -6.7 Q13.85 -6.7 13.85 -6.75 L13.85 -6.75 13.95 -6.8 14.0 -6.75 M14.2 -7.35 L14.25 -7.3 14.3 -7.3 14.25 -7.25 14.2 -7.25 14.15 -7.3 14.2 -7.35 M14.8 -7.1 L14.8 -7.1 14.75 -7.05 14.7 -7.05 14.6 -7.05 14.55 -7.1 14.6 -7.1 14.6 -7.1 14.7 -7.15 14.8 -7.1" fill="#421818" fill-rule="evenodd" stroke="none"/>
    <path d="M14.65 -7.6 L14.7 -7.7 14.7 -7.75 14.75 -7.8 14.7 -7.8 14.6 -7.85 Q14.5 -7.8 14.5 -7.85 L14.55 -7.9 14.65 -7.9 14.7 -7.95 14.75 -7.9 14.8 -7.85 14.9 -7.85 14.95 -7.7 14.9 -7.55 14.75 -7.55 14.65 -7.55 14.65 -7.6 M12.55 -7.6 L12.5 -7.65 12.55 -7.7 12.6 -7.8 12.5 -7.85 12.45 -7.9 12.45 -7.9 12.6 -7.95 12.8 -7.9 12.9 -7.75 Q12.9 -7.65 12.8 -7.6 12.75 -7.55 12.6 -7.55 L12.55 -7.6 M12.95 -8.1 L12.9 -8.1 12.95 -8.2 13.1 -8.3 13.3 -8.35 13.55 -8.4 13.75 -8.35 13.8 -8.3 13.85 -8.25 14.0 -8.1 Q14.0 -8.0 13.9 -7.95 L13.75 -7.85 Q13.7 -7.8 13.6 -7.75 L13.5 -7.6 13.5 -7.55 13.65 -7.5 13.75 -7.4 13.75 -7.2 13.65 -7.05 Q13.6 -7.0 13.35 -7.0 L13.3 -7.0 13.25 -7.05 13.3 -7.2 13.3 -7.3 13.3 -7.35 13.4 -7.35 13.45 -7.3 13.5 -7.4 13.45 -7.55 13.35 -7.65 Q13.35 -7.75 13.6 -7.85 13.8 -7.95 13.8 -8.05 L13.75 -8.1 13.6 -8.15 13.45 -8.1 13.3 -8.1 12.95 -8.1 M12.95 -7.35 L13.0 -7.35 12.95 -7.3 12.95 -7.3 12.85 -7.35 12.8 -7.45 12.9 -7.4 12.95 -7.35 M13.0 -7.2 L13.05 -7.3 13.05 -7.25 13.1 -7.25 13.15 -7.15 13.15 -7.1 13.1 -6.95 12.9 -6.85 12.9 -6.9 12.95 -6.95 13.0 -6.95 13.05 -7.1 13.05 -7.15 13.0 -7.2 M10.95 -8.25 L11.15 -8.3 11.35 -8.35 11.65 -8.25 11.7 -8.2 11.75 -8.1 11.7 -7.95 11.55 -7.85 11.4 -7.75 11.35 -7.65 11.35 -7.65 11.4 -7.55 11.45 -7.5 11.55 -7.3 Q11.55 -7.15 11.45 -7.1 11.4 -7.0 11.2 -7.0 L11.15 -7.0 11.1 -7.05 11.1 -7.2 11.05 -7.3 11.0 -7.35 11.05 -7.4 11.05 -7.4 11.2 -7.35 Q11.3 -7.3 11.35 -7.3 L11.35 -7.35 11.25 -7.45 Q11.1 -7.55 11.1 -7.65 L11.2 -7.75 11.35 -7.85 11.45 -7.95 11.55 -8.05 11.5 -8.1 11.35 -8.1 11.35 -8.1 11.1 -8.1 10.85 -8.05 10.8 -8.05 10.8 -8.1 10.85 -8.2 Q10.9 -8.25 10.95 -8.25 M10.65 -7.45 Q10.65 -7.45 10.7 -7.45 L10.75 -7.4 10.8 -7.4 10.7 -7.35 10.65 -7.4 10.65 -7.45 M10.85 -7.25 L10.9 -7.3 10.9 -7.25 10.95 -7.1 10.9 -6.95 10.85 -6.9 10.8 -6.95 10.8 -7.0 10.85 -7.2 10.85 -7.25" fill="#2a2a27" fill-rule="evenodd" stroke="none"/>
  </g>
</svg>
