<?xml version="1.0" encoding="UTF-8" standalone="no"?>
<svg xmlns:xlink="http://www.w3.org/1999/xlink" height="3.15px" width="4.5px" xmlns="http://www.w3.org/2000/svg">
  <g transform="matrix(1.0, 0.0, 0.0, 1.0, -9.65, 10.55)">
    <path d="M13.45 -9.05 L13.45 -9.1 13.5 -9.05 13.5 -9.0 13.5 -8.95 13.45 -8.95 13.4 -8.95 13.4 -9.0 13.45 -9.05 M13.45 -10.3 L13.45 -10.25 Q13.4 -10.2 13.35 -10.2 L13.35 -10.2 13.35 -10.25 13.35 -10.3 13.4 -10.35 13.4 -10.3 13.45 -10.3 M14.0 -10.5 L14.0 -10.5 14.0 -10.45 13.95 -10.45 13.9 -10.45 13.9 -10.5 14.0 -10.5 M12.4 -9.95 L12.35 -9.95 12.4 -10.05 12.45 -10.0 12.45 -9.95 12.4 -9.95 12.4 -9.95 M12.1 -10.55 L12.15 -10.5 12.15 -10.45 12.1 -10.45 12.05 -10.5 12.05 -10.5 12.1 -10.55 M13.1 -9.05 Q13.05 -9.05 13.05 -9.05 L13.05 -9.1 13.1 -9.1 13.15 -9.1 13.1 -9.05 13.1 -9.05 M13.85 -7.65 L13.9 -7.6 13.85 -7.55 Q13.85 -7.55 13.8 -7.55 L13.75 -7.5 13.75 -7.55 13.7 -7.55 13.75 -7.6 13.8 -7.6 13.85 -7.65 M13.4 -8.2 L13.4 -8.2 Q13.45 -8.2 13.45 -8.15 L13.45 -8.1 13.4 -8.15 13.3 -8.2 13.4 -8.2" fill="#421818" fill-rule="evenodd" stroke="none"/>
    <path d="M12.3 -8.8 L12.4 -8.8 12.55 -8.8 12.65 -8.8 12.7 -8.75 12.6 -8.75 12.4 -8.7 Q12.35 -8.7 12.3 -8.65 L12.3 -8.6 12.25 -8.6 Q12.2 -8.65 12.2 -8.7 L12.2 -8.75 Q12.25 -8.8 12.3 -8.8 M14.0 -8.55 Q14.15 -8.5 14.15 -8.4 14.15 -8.3 14.05 -8.25 14.0 -8.2 13.9 -8.2 13.85 -8.2 13.8 -8.2 13.75 -8.25 13.75 -8.25 L13.75 -8.3 Q13.8 -8.3 13.8 -8.3 L13.85 -8.3 13.9 -8.35 14.0 -8.4 14.0 -8.45 13.95 -8.55 13.85 -8.55 14.0 -8.55 M12.55 -7.75 L12.55 -7.75 12.65 -7.75 12.8 -7.7 Q12.9 -7.7 12.9 -7.8 L12.95 -7.75 Q12.95 -7.65 12.8 -7.55 L12.55 -7.45 Q12.45 -7.45 12.35 -7.55 12.25 -7.6 12.25 -7.7 L12.25 -7.75 12.35 -7.8 12.35 -7.75 12.4 -7.65 Q12.6 -7.6 12.6 -7.6 L12.65 -7.6 12.6 -7.7 12.55 -7.75 12.55 -7.75 M12.95 -8.7 Q13.0 -8.75 13.05 -8.75 L13.15 -8.7 13.2 -8.55 Q13.2 -8.5 13.1 -8.45 L12.9 -8.4 12.75 -8.25 12.65 -8.1 12.6 -8.15 12.55 -8.25 Q12.55 -8.3 12.6 -8.35 L12.75 -8.45 12.9 -8.5 Q13.0 -8.55 13.0 -8.6 L12.95 -8.65 12.9 -8.7 12.95 -8.7 M10.6 -8.75 L10.6 -8.8 10.65 -8.85 10.75 -8.8 10.8 -8.75 10.9 -8.65 Q10.9 -8.55 10.75 -8.45 L10.5 -8.35 10.4 -8.35 10.35 -8.3 10.3 -8.2 10.3 -8.2 Q10.2 -8.25 10.2 -8.3 10.2 -8.4 10.45 -8.45 10.65 -8.55 10.65 -8.55 L10.6 -8.65 Q10.6 -8.7 10.6 -8.75 M10.15 -8.85 L10.25 -8.85 10.3 -8.8 10.3 -8.8 10.25 -8.75 10.15 -8.75 10.05 -8.7 9.95 -8.75 10.0 -8.8 10.0 -8.8 10.15 -8.85 M10.55 -7.75 L10.65 -7.8 10.65 -7.85 10.7 -7.8 10.65 -7.75 Q10.65 -7.7 10.55 -7.65 L10.3 -7.6 10.2 -7.6 10.15 -7.65 10.1 -7.7 10.05 -7.75 10.1 -7.8 10.2 -7.75 10.3 -7.75 10.35 -7.75 10.35 -7.8 10.3 -7.85 10.3 -7.85 10.35 -7.85 10.45 -7.8 Q10.5 -7.75 10.55 -7.75 M9.7 -7.5 L9.85 -7.55 9.85 -7.55 9.9 -7.65 9.9 -7.65 9.95 -7.55 9.9 -7.45 Q9.8 -7.4 9.7 -7.4 9.65 -7.4 9.65 -7.45 L9.7 -7.5 M11.95 -7.45 L12.0 -7.45 12.1 -7.5 12.1 -7.55 12.15 -7.5 12.1 -7.45 12.0 -7.4 12.0 -7.4 11.95 -7.45 M11.9 -8.35 Q11.9 -8.3 11.85 -8.25 L11.65 -8.2 Q11.55 -8.2 11.5 -8.25 L11.65 -8.35 Q11.75 -8.4 11.75 -8.45 L11.7 -8.5 11.8 -8.45 11.9 -8.35" fill="#2a2a27" fill-rule="evenodd" stroke="none"/>
  </g>
</svg>
