<?xml version="1.0" encoding="UTF-8" standalone="no"?>
<svg xmlns:xlink="http://www.w3.org/1999/xlink" height="3.45px" width="2.25px" xmlns="http://www.w3.org/2000/svg">
  <g transform="matrix(1.0, 0.0, 0.0, 1.0, -11.25, 11.1)">
    <path d="M13.35 -11.05 L13.35 -11.05 13.4 -11.05 13.4 -11.05 13.4 -11.0 13.35 -11.0 13.3 -11.0 13.3 -11.0 13.3 -11.05 13.35 -11.05 M12.7 -10.85 L12.7 -10.85 12.75 -10.85 12.75 -10.8 12.7 -10.85 12.7 -10.85 Q12.7 -10.75 12.6 -10.75 L12.6 -10.8 12.65 -10.8 12.6 -10.85 12.65 -10.85 12.7 -10.85 M11.5 -11.05 L11.45 -11.1 11.5 -11.1 11.5 -11.1 11.55 -11.1 11.5 -11.05 11.5 -11.05 M11.85 -10.55 L11.8 -10.55 11.8 -10.6 11.85 -10.6 11.85 -10.55 M12.95 -9.7 L12.95 -9.7 12.9 -9.7 12.85 -9.7 12.85 -9.7 12.95 -9.75 12.95 -9.7 M12.5 -9.75 L12.5 -9.7 12.5 -9.7 12.45 -9.7 12.45 -9.75 12.5 -9.75 12.5 -9.75 M13.1 -8.1 L13.1 -8.15 13.15 -8.15 13.15 -8.1 13.1 -8.1 13.1 -8.1 M12.8 -8.6 L12.8 -8.65 12.85 -8.65 12.85 -8.6 12.8 -8.6" fill="#421818" fill-rule="evenodd" stroke="none"/>
    <path d="M13.45 -8.75 L13.35 -8.7 13.25 -8.65 13.2 -8.6 13.15 -8.6 Q13.1 -8.6 13.05 -8.65 L13.15 -8.8 13.2 -8.9 13.3 -8.9 13.45 -8.85 13.5 -8.8 13.45 -8.75 M12.2 -8.75 L12.15 -8.85 12.15 -8.9 12.1 -9.0 12.1 -9.05 12.0 -9.05 11.85 -9.0 11.75 -9.0 Q11.7 -9.0 11.7 -9.05 L11.8 -9.1 11.9 -9.2 12.1 -9.2 12.2 -9.15 12.3 -9.05 12.4 -8.85 12.4 -8.8 12.3 -8.8 12.2 -8.75 12.2 -8.75 M12.2 -8.05 L12.2 -7.95 12.15 -7.85 12.1 -7.75 12.0 -7.7 11.8 -7.8 11.65 -7.7 11.6 -7.7 Q11.55 -7.65 11.4 -7.65 L11.3 -7.65 Q11.25 -7.65 11.25 -7.7 L11.25 -7.7 11.4 -7.85 11.45 -7.95 11.55 -8.0 11.7 -7.95 11.7 -7.95 11.75 -8.0 11.8 -8.05 11.85 -8.05 11.85 -8.0 11.95 -7.95 12.0 -7.95 12.0 -8.0 12.1 -8.0 12.2 -8.05" fill="#2a2a27" fill-rule="evenodd" stroke="none"/>
  </g>
</svg>
