<?xml version="1.0" encoding="UTF-8" standalone="no"?>
<svg xmlns:xlink="http://www.w3.org/1999/xlink" height="3.15px" width="4.45px" xmlns="http://www.w3.org/2000/svg">
  <g transform="matrix(1.0, 0.0, 0.0, 1.0, -8.65, 13.1)">
    <path d="M11.4 -12.5 L11.4 -12.5 11.35 -12.5 11.35 -12.55 11.4 -12.6 11.4 -12.55 11.4 -12.5 M11.05 -13.05 L11.1 -13.1 11.1 -13.05 11.15 -13.05 11.1 -13.05 11.05 -13.0 11.05 -13.05 M12.0 -11.65 L12.0 -11.65 12.05 -11.65 12.1 -11.7 12.1 -11.65 12.05 -11.6 12.0 -11.65 M12.4 -11.65 L12.45 -11.7 12.5 -11.65 12.5 -11.6 12.5 -11.55 12.4 -11.5 12.4 -11.55 12.4 -11.65 M12.4 -12.85 L12.4 -12.85 Q12.4 -12.8 12.35 -12.8 L12.3 -12.8 12.3 -12.8 12.3 -12.85 12.35 -12.85 12.35 -12.9 12.4 -12.9 12.4 -12.85 M13.0 -13.05 L12.95 -13.0 12.9 -13.05 12.9 -13.05 12.95 -13.1 12.95 -13.1 13.0 -13.1 13.0 -13.05 M12.9 -10.2 L12.85 -10.1 Q12.8 -10.1 12.8 -10.1 12.75 -10.1 12.75 -10.1 L12.7 -10.1 12.7 -10.1 12.75 -10.15 12.8 -10.2 12.85 -10.2 12.9 -10.2 M12.4 -10.8 L12.45 -10.7 12.4 -10.7 12.35 -10.7 12.3 -10.8 12.35 -10.8 12.4 -10.8" fill="#421818" fill-rule="evenodd" stroke="none"/>
    <path d="M9.6 -11.2 Q9.55 -11.25 9.55 -11.3 L9.6 -11.4 9.65 -11.4 9.75 -11.4 9.8 -11.35 9.85 -11.2 Q9.85 -11.1 9.75 -11.05 L9.5 -10.95 9.4 -10.9 9.3 -10.85 9.3 -10.75 9.25 -10.75 Q9.2 -10.8 9.2 -10.85 9.2 -10.95 9.45 -11.05 9.65 -11.1 9.65 -11.15 L9.6 -11.2 M9.15 -11.4 L9.25 -11.4 9.3 -11.35 9.25 -11.35 9.2 -11.35 9.1 -11.3 9.0 -11.25 8.95 -11.35 8.95 -11.35 9.0 -11.4 9.15 -11.4 M9.05 -10.3 L9.05 -10.35 9.15 -10.35 9.25 -10.3 9.3 -10.3 9.35 -10.35 9.3 -10.4 9.3 -10.45 9.4 -10.4 Q9.5 -10.3 9.55 -10.3 L9.6 -10.4 9.65 -10.45 9.65 -10.3 Q9.6 -10.25 9.55 -10.25 L9.3 -10.15 9.2 -10.15 9.15 -10.2 Q9.1 -10.25 9.05 -10.25 L9.05 -10.3 M11.15 -11.3 L11.15 -11.35 11.25 -11.35 11.4 -11.35 11.5 -11.4 11.65 -11.35 11.7 -11.35 Q11.7 -11.3 11.55 -11.3 L11.4 -11.3 11.3 -11.25 11.25 -11.15 11.25 -11.2 Q11.15 -11.2 11.15 -11.3 M8.7 -10.05 L8.8 -10.1 8.85 -10.15 8.9 -10.2 8.9 -10.2 8.95 -10.15 8.85 -10.05 Q8.8 -10.0 8.65 -10.0 L8.7 -10.05 M11.5 -10.3 L11.5 -10.35 11.55 -10.35 11.75 -10.25 Q11.9 -10.25 11.9 -10.35 L11.9 -10.3 Q11.9 -10.2 11.75 -10.1 L11.5 -10.05 Q11.4 -10.05 11.35 -10.1 11.25 -10.15 11.25 -10.25 L11.25 -10.35 11.3 -10.35 11.35 -10.3 11.4 -10.25 11.55 -10.15 11.65 -10.2 11.55 -10.25 11.5 -10.3 M11.0 -9.95 L10.95 -9.95 10.95 -10.0 11.0 -10.05 11.05 -10.1 11.1 -10.1 11.1 -10.0 Q11.05 -9.95 11.0 -9.95 M10.85 -10.95 L10.8 -10.8 10.6 -10.8 Q10.5 -10.8 10.45 -10.85 L10.6 -10.9 Q10.7 -10.95 10.7 -11.05 L10.7 -11.1 10.8 -11.05 10.85 -10.95 M12.0 -11.35 L12.1 -11.3 12.15 -11.15 12.05 -11.05 11.9 -10.95 11.75 -10.8 11.6 -10.7 11.55 -10.75 11.5 -10.85 Q11.5 -10.9 11.6 -10.95 L11.7 -11.05 11.85 -11.1 Q12.0 -11.15 12.0 -11.15 L11.95 -11.25 11.9 -11.3 11.9 -11.3 12.0 -11.35 M13.0 -11.1 Q13.1 -11.05 13.1 -10.95 13.1 -10.85 13.05 -10.8 13.0 -10.75 12.85 -10.75 12.85 -10.75 12.8 -10.8 12.75 -10.8 12.75 -10.85 L12.75 -10.85 Q12.75 -10.85 12.8 -10.9 L12.85 -10.9 12.9 -10.9 12.95 -10.95 13.0 -11.05 12.9 -11.1 12.85 -11.15 13.0 -11.1" fill="#2a2a27" fill-rule="evenodd" stroke="none"/>
  </g>
</svg>
