<?xml version="1.0" encoding="UTF-8" standalone="no"?>
<svg xmlns:xlink="http://www.w3.org/1999/xlink" height="5.35px" width="6.55px" xmlns="http://www.w3.org/2000/svg">
  <g transform="matrix(1.0, 0.0, 0.0, 1.0, -9.95, 11.2)">
    <path d="M10.2 -9.95 L10.25 -9.95 10.35 -9.9 10.4 -9.85 10.4 -9.8 10.4 -9.8 Q10.3 -9.85 10.25 -9.85 L10.25 -9.85 10.2 -9.9 10.2 -9.95 M10.1 -10.15 L10.05 -10.1 10.05 -10.05 10.0 -10.05 9.95 -10.1 Q9.95 -10.1 9.95 -10.15 L9.95 -10.15 10.0 -10.2 10.05 -10.2 10.1 -10.15 M10.9 -10.25 L10.85 -10.15 10.8 -10.2 10.8 -10.25 10.75 -10.25 10.75 -10.3 10.8 -10.3 10.85 -10.4 10.85 -10.4 10.9 -10.35 10.9 -10.35 10.85 -10.35 10.9 -10.3 10.9 -10.25 M12.15 -10.75 L12.15 -10.8 12.15 -10.8 12.25 -10.8 12.25 -10.75 12.2 -10.75 12.2 -10.7 12.15 -10.7 12.1 -10.65 12.15 -10.75 M11.5 -10.3 L11.45 -10.25 11.3 -10.25 11.3 -10.3 11.25 -10.35 11.25 -10.4 11.3 -10.35 11.4 -10.35 11.45 -10.35 11.5 -10.3 M12.85 -11.15 L12.85 -11.15 12.9 -11.2 12.9 -11.1 12.85 -11.1 12.85 -11.05 12.8 -11.05 12.8 -11.1 12.85 -11.15 12.85 -11.15 M12.9 -10.65 L12.85 -10.7 12.9 -10.75 12.95 -10.75 13.0 -10.75 13.0 -10.65 12.95 -10.65 12.9 -10.6 12.9 -10.65 M12.7 -10.75 L12.7 -10.7 12.6 -10.6 12.55 -10.55 12.55 -10.7 12.55 -10.75 12.6 -10.75 12.7 -10.75 M13.0 -10.6 L13.0 -10.65 13.05 -10.65 13.1 -10.65 13.1 -10.65 13.05 -10.6 13.05 -10.6 13.0 -10.55 13.0 -10.6 M13.15 -10.1 L13.15 -10.1 13.2 -10.1 13.25 -10.1 13.25 -10.1 13.25 -10.05 13.3 -10.05 13.3 -10.0 13.25 -10.0 13.25 -10.0 13.2 -10.0 13.2 -9.95 13.15 -9.95 13.05 -9.95 13.05 -10.0 13.1 -10.0 13.15 -10.0 13.15 -10.0 13.1 -10.05 13.15 -10.1 M12.95 -10.4 L12.95 -10.3 12.9 -10.25 12.9 -10.25 12.85 -10.35 12.85 -10.4 12.85 -10.45 12.9 -10.45 12.95 -10.4 M12.4 -10.2 L12.45 -10.25 12.45 -10.2 12.5 -10.15 12.5 -10.1 12.45 -10.05 12.4 -10.05 12.4 -10.05 12.4 -10.15 12.35 -10.2 12.4 -10.2 12.4 -10.2 M12.6 -10.4 L12.55 -10.4 12.5 -10.4 12.5 -10.45 12.55 -10.5 12.6 -10.5 12.65 -10.5 12.65 -10.45 12.6 -10.4 M13.8 -10.75 L13.75 -10.65 13.65 -10.65 13.65 -10.7 13.7 -10.75 13.7 -10.75 13.75 -10.8 13.75 -10.8 13.8 -10.75 13.8 -10.75 M13.6 -10.4 L13.65 -10.4 13.65 -10.45 13.75 -10.45 13.8 -10.45 13.75 -10.4 13.75 -10.4 13.7 -10.35 13.7 -10.35 13.65 -10.3 13.55 -10.3 13.55 -10.3 13.6 -10.35 Q13.65 -10.35 13.65 -10.35 L13.6 -10.4 M13.3 -10.45 L13.3 -10.4 13.3 -10.35 13.25 -10.35 13.2 -10.35 13.25 -10.4 13.25 -10.45 13.3 -10.45 M14.05 -10.25 L14.05 -10.2 14.1 -10.15 14.15 -10.15 14.15 -10.05 14.05 -10.0 14.0 -10.05 13.95 -10.05 13.95 -10.0 13.9 -10.0 13.9 -10.1 14.0 -10.1 14.0 -10.1 Q14.0 -10.2 14.0 -10.2 L14.05 -10.25 M14.0 -10.35 L14.0 -10.3 13.95 -10.3 13.9 -10.25 13.8 -10.2 13.8 -10.2 13.65 -10.2 13.7 -10.25 13.85 -10.3 13.9 -10.35 14.0 -10.35 M14.95 -10.1 L15.0 -10.15 15.0 -10.15 15.1 -10.1 15.15 -10.1 15.05 -10.05 15.1 -10.05 15.15 -10.0 15.1 -10.0 15.05 -9.95 15.0 -9.95 Q14.95 -9.95 14.95 -9.95 L14.95 -9.95 15.0 -10.0 14.95 -10.0 14.85 -10.0 14.8 -10.0 14.95 -10.1 M15.4 -9.95 L15.45 -10.0 15.5 -10.0 15.55 -10.0 15.55 -9.95 15.5 -9.9 15.45 -9.95 15.4 -9.95 15.4 -9.95 M15.9 -9.95 L15.9 -9.95 15.95 -9.95 15.95 -9.9 15.9 -9.9 15.85 -9.85 15.85 -9.85 15.8 -9.85 15.8 -9.9 15.85 -9.95 15.9 -9.95 M15.7 -9.3 L15.7 -9.3 15.65 -9.3 15.65 -9.3 15.6 -9.3 Q15.6 -9.3 15.55 -9.3 L15.5 -9.3 Q15.45 -9.3 15.45 -9.35 L15.45 -9.4 15.5 -9.35 15.55 -9.35 15.6 -9.4 15.65 -9.4 15.65 -9.4 15.7 -9.35 15.7 -9.3 M15.2 -9.85 L15.2 -9.8 15.15 -9.75 15.05 -9.75 15.0 -9.7 15.0 -9.75 15.1 -9.8 15.1 -9.85 15.15 -9.85 15.15 -9.85 15.2 -9.85 M15.25 -9.75 L15.3 -9.8 15.3 -9.8 15.35 -9.75 15.4 -9.7 15.35 -9.7 15.2 -9.65 15.15 -9.7 15.25 -9.75 M15.6 -9.45 L15.55 -9.45 15.5 -9.45 15.45 -9.45 15.45 -9.45 15.55 -9.5 15.6 -9.5 15.6 -9.45 M15.55 -9.2 L15.55 -9.15 15.45 -9.15 15.45 -9.15 Q15.45 -9.15 15.4 -9.2 L15.5 -9.2 15.55 -9.2 15.55 -9.2 M15.55 -9.0 L15.65 -9.05 15.65 -9.05 15.7 -9.05 15.65 -9.0 15.6 -9.0 15.6 -8.9 Q15.55 -8.85 15.5 -8.85 L15.45 -8.9 Q15.4 -8.95 15.5 -9.0 L15.5 -9.0 15.55 -9.0 M15.25 -9.15 L15.2 -9.15 15.15 -9.1 15.1 -9.15 15.05 -9.15 15.1 -9.15 15.1 -9.15 15.15 -9.2 15.2 -9.15 15.2 -9.2 15.25 -9.2 15.25 -9.15 M15.55 -8.85 L15.65 -8.85 15.8 -8.8 15.9 -8.8 15.95 -8.75 15.95 -8.75 15.9 -8.75 15.8 -8.75 15.7 -8.75 15.65 -8.75 15.55 -8.85 M16.1 -9.2 L16.15 -9.2 16.15 -9.2 16.2 -9.2 16.2 -9.15 16.05 -9.1 16.05 -9.15 16.0 -9.15 16.1 -9.2 M14.9 -9.45 Q14.85 -9.45 14.9 -9.5 L14.95 -9.45 15.0 -9.45 15.05 -9.45 15.05 -9.45 15.0 -9.45 15.0 -9.4 14.95 -9.4 14.9 -9.45 14.9 -9.45 M14.95 -9.6 L15.0 -9.65 15.05 -9.6 15.0 -9.55 14.9 -9.55 14.75 -9.5 14.8 -9.55 14.95 -9.6 14.95 -9.6 M14.65 -9.65 L14.65 -9.6 14.7 -9.6 14.65 -9.55 14.6 -9.55 14.6 -9.55 14.55 -9.5 14.4 -9.45 Q14.35 -9.5 14.45 -9.55 L14.5 -9.65 14.5 -9.65 14.6 -9.7 14.65 -9.65 M14.25 -9.45 L14.25 -9.45 14.35 -9.45 14.3 -9.45 14.3 -9.4 14.35 -9.4 14.4 -9.45 14.45 -9.45 14.45 -9.4 14.5 -9.35 14.5 -9.4 14.65 -9.4 14.65 -9.3 14.65 -9.3 14.7 -9.25 14.7 -9.25 14.6 -9.25 14.55 -9.25 14.55 -9.25 14.45 -9.25 14.4 -9.25 14.4 -9.3 14.45 -9.3 14.4 -9.35 14.35 -9.35 14.35 -9.35 14.3 -9.4 14.3 -9.4 14.25 -9.35 14.25 -9.35 14.15 -9.35 14.1 -9.35 14.1 -9.35 14.2 -9.45 14.2 -9.45 14.25 -9.45 M14.55 -9.15 L14.6 -9.15 14.6 -9.1 14.65 -9.05 14.6 -9.05 14.4 -9.05 14.35 -9.1 14.5 -9.15 14.55 -9.15 M14.6 -9.0 L14.7 -8.95 14.7 -9.0 14.75 -9.0 14.75 -9.0 14.85 -8.95 14.85 -8.95 14.8 -8.9 14.75 -8.9 14.75 -8.9 14.7 -8.9 14.65 -8.9 14.55 -8.95 14.6 -9.0 14.6 -9.0 M14.6 -8.6 L14.6 -8.6 14.65 -8.6 14.65 -8.65 14.75 -8.65 14.8 -8.65 14.8 -8.65 14.75 -8.65 14.75 -8.6 14.75 -8.55 14.7 -8.5 14.65 -8.5 14.7 -8.5 14.7 -8.45 14.65 -8.45 14.6 -8.4 14.55 -8.45 14.6 -8.45 14.6 -8.5 14.5 -8.5 14.5 -8.5 14.45 -8.55 14.55 -8.55 14.55 -8.55 14.6 -8.6 M14.65 -8.25 L14.55 -8.3 14.55 -8.35 14.55 -8.35 14.65 -8.35 14.7 -8.35 14.75 -8.35 14.8 -8.35 14.85 -8.25 14.7 -8.25 14.65 -8.25 M13.95 -8.4 L13.95 -8.4 14.0 -8.4 13.95 -8.4 13.9 -8.4 13.85 -8.4 13.8 -8.4 13.8 -8.45 13.95 -8.4 M13.8 -8.2 L13.8 -8.2 14.0 -8.1 14.15 -8.05 14.15 -8.05 14.25 -8.1 14.3 -8.1 14.3 -8.05 14.35 -8.0 14.35 -7.95 14.3 -7.95 14.2 -8.0 14.15 -8.0 14.0 -7.95 13.85 -8.0 13.85 -8.0 13.8 -8.05 13.85 -8.1 13.65 -8.15 13.6 -8.15 13.65 -8.2 13.8 -8.2 M13.5 -7.8 L13.7 -7.8 13.75 -7.75 13.75 -7.7 13.65 -7.7 13.55 -7.7 13.55 -7.75 13.4 -7.8 13.5 -7.8 M13.8 -8.85 L13.7 -8.85 13.65 -8.9 13.55 -8.95 13.55 -8.95 13.45 -9.0 13.5 -9.0 13.55 -9.0 13.65 -9.0 13.75 -8.95 13.8 -8.9 13.8 -8.85 M14.6 -8.75 L14.6 -8.8 14.7 -8.8 14.75 -8.8 14.75 -8.8 14.7 -8.75 14.65 -8.75 14.6 -8.75 M15.1 -8.45 L15.15 -8.45 15.2 -8.45 15.2 -8.4 15.25 -8.4 15.25 -8.35 15.1 -8.35 15.05 -8.4 15.05 -8.4 15.1 -8.45 15.1 -8.45 M14.75 -8.1 L14.75 -8.1 14.8 -8.1 14.8 -8.05 14.85 -8.05 14.85 -8.0 14.75 -8.0 14.7 -8.05 14.6 -8.1 14.55 -8.1 Q14.5 -8.15 14.5 -8.2 L14.6 -8.2 14.75 -8.1 M14.45 -7.9 L14.45 -7.95 14.5 -7.95 14.55 -7.9 14.55 -7.85 14.45 -7.9 14.45 -7.9 M15.15 -7.85 L15.1 -7.9 15.05 -7.9 15.05 -7.95 15.15 -7.95 15.15 -7.95 15.2 -7.9 15.2 -7.85 15.15 -7.85 M14.85 -7.65 L14.85 -7.7 15.0 -7.65 15.05 -7.65 15.1 -7.65 15.05 -7.65 15.1 -7.6 15.05 -7.55 15.0 -7.55 Q14.9 -7.6 14.85 -7.65 M15.75 -8.6 L15.75 -8.55 15.7 -8.55 15.65 -8.55 15.6 -8.55 15.6 -8.6 15.65 -8.6 15.7 -8.6 15.75 -8.6 M15.95 -8.35 L16.0 -8.35 16.05 -8.3 16.05 -8.3 16.1 -8.3 16.05 -8.25 16.05 -8.25 16.0 -8.25 Q15.95 -8.3 15.95 -8.3 L15.95 -8.35 M15.65 -7.9 L15.6 -7.9 15.55 -7.9 15.4 -7.9 15.55 -8.0 15.65 -8.0 15.65 -8.0 15.75 -8.0 15.75 -7.9 15.7 -7.9 15.65 -7.9 M15.25 -7.8 L15.4 -7.8 15.5 -7.75 15.45 -7.7 Q15.45 -7.7 15.4 -7.7 L15.3 -7.7 15.25 -7.75 15.2 -7.8 15.25 -7.8 15.25 -7.8 M15.35 -7.55 L15.35 -7.6 15.45 -7.55 15.5 -7.55 15.45 -7.5 15.45 -7.5 15.4 -7.5 15.35 -7.55 15.35 -7.55 M15.65 -7.7 L15.7 -7.7 15.75 -7.7 15.8 -7.7 15.8 -7.65 15.8 -7.65 15.75 -7.65 15.65 -7.7 15.65 -7.7 M15.7 -7.8 L15.8 -7.8 15.95 -7.75 15.95 -7.75 16.0 -7.75 15.95 -7.7 15.9 -7.7 15.8 -7.7 Q15.75 -7.75 15.7 -7.8 M15.95 -8.0 L15.95 -8.0 15.95 -7.9 15.9 -7.95 Q15.8 -7.95 15.75 -8.0 L15.75 -8.05 15.85 -8.05 15.95 -8.0 15.95 -8.0 M13.5 -9.8 L13.5 -9.8 13.5 -9.75 13.55 -9.7 13.55 -9.65 13.5 -9.6 13.45 -9.6 Q13.35 -9.6 13.4 -9.7 L13.4 -9.75 13.45 -9.8 13.5 -9.8 M12.4 -9.45 L12.3 -9.45 12.25 -9.5 12.15 -9.5 12.2 -9.5 12.2 -9.5 12.3 -9.55 12.3 -9.55 12.45 -9.55 12.45 -9.55 12.5 -9.55 12.55 -9.55 12.55 -9.55 12.45 -9.5 12.45 -9.5 12.4 -9.45 M12.65 -9.85 L12.65 -9.8 12.65 -9.75 12.6 -9.75 12.55 -9.75 Q12.5 -9.8 12.5 -9.8 L12.6 -9.85 12.6 -9.85 12.65 -9.85 12.65 -9.85 M14.05 -9.05 L14.0 -9.05 Q14.0 -9.1 14.0 -9.1 L14.1 -9.1 14.1 -9.1 14.15 -9.1 14.15 -9.05 14.15 -9.05 14.1 -9.05 14.05 -9.0 14.05 -9.05 M13.25 -9.8 L13.25 -9.8 13.15 -9.75 13.1 -9.7 12.95 -9.7 12.85 -9.7 12.9 -9.7 13.0 -9.75 13.1 -9.8 13.15 -9.8 13.25 -9.8 M12.65 -7.8 L12.65 -7.85 Q12.65 -7.9 12.65 -7.95 L12.75 -7.9 12.8 -7.75 12.85 -7.7 12.8 -7.7 12.75 -7.7 12.7 -7.7 12.7 -7.7 12.65 -7.8 M12.3 -7.5 L12.3 -7.55 12.4 -7.6 12.4 -7.55 12.4 -7.45 12.35 -7.45 12.3 -7.4 12.25 -7.3 12.15 -7.2 Q12.1 -7.15 12.05 -7.2 L12.05 -7.35 Q12.05 -7.45 12.1 -7.45 L12.15 -7.45 12.2 -7.45 12.15 -7.5 12.05 -7.55 12.15 -7.55 12.3 -7.5 M13.15 -8.35 L13.15 -8.4 13.35 -8.45 13.4 -8.5 13.4 -8.45 13.45 -8.45 13.45 -8.4 13.3 -8.35 13.25 -8.35 13.15 -8.35 M12.65 -7.45 L12.7 -7.4 12.65 -7.3 12.65 -7.3 12.6 -7.3 12.65 -7.35 12.65 -7.45 12.65 -7.45 M14.05 -7.45 L14.1 -7.4 14.05 -7.4 14.0 -7.45 14.0 -7.45 13.95 -7.5 13.95 -7.5 14.0 -7.5 14.05 -7.45 M13.6 -7.45 L13.7 -7.45 13.75 -7.35 13.8 -7.25 13.8 -7.25 13.85 -7.25 13.85 -7.25 14.0 -7.2 14.05 -7.15 14.05 -7.1 13.95 -7.1 13.9 -7.15 13.85 -7.15 13.9 -7.1 13.85 -7.0 13.8 -7.0 13.7 -7.05 Q13.6 -7.15 13.6 -7.2 L13.6 -7.2 13.7 -7.25 13.6 -7.35 13.6 -7.45 M14.05 -7.3 Q14.05 -7.4 14.2 -7.35 L14.3 -7.35 14.3 -7.35 14.4 -7.3 14.4 -7.25 14.4 -7.25 14.3 -7.25 14.3 -7.25 14.2 -7.25 14.15 -7.25 14.05 -7.3 M13.75 -6.85 L13.75 -6.85 13.8 -6.85 13.9 -6.75 13.85 -6.65 13.8 -6.65 13.75 -6.7 13.75 -6.75 13.75 -6.85 M13.25 -6.25 L13.25 -6.25 13.2 -6.3 13.15 -6.35 Q13.1 -6.45 13.15 -6.45 13.2 -6.5 13.25 -6.4 L13.3 -6.35 13.35 -6.35 13.4 -6.25 13.35 -6.25 13.35 -6.25 13.25 -6.25 M14.0 -6.65 L14.0 -6.65 13.95 -6.7 13.95 -6.75 14.0 -6.75 14.0 -6.65 14.0 -6.65 M14.1 -6.65 L14.1 -6.7 14.05 -6.75 14.0 -6.8 14.15 -6.8 14.2 -6.75 14.2 -6.75 14.25 -6.65 14.25 -6.75 14.2 -6.8 14.2 -6.8 Q14.15 -6.9 14.2 -6.9 L14.3 -6.85 14.35 -6.75 14.35 -6.7 14.35 -6.65 14.3 -6.6 14.3 -6.65 14.25 -6.6 14.25 -6.6 14.2 -6.6 Q14.15 -6.6 14.1 -6.65 M14.0 -6.55 L14.05 -6.55 14.1 -6.55 14.1 -6.55 14.15 -6.45 14.15 -6.4 14.05 -6.35 14.05 -6.45 Q14.0 -6.5 14.0 -6.55 M12.5 -7.15 L12.55 -7.2 12.6 -7.1 12.6 -7.05 12.55 -7.05 12.55 -7.1 12.5 -7.1 12.5 -7.15 M12.25 -7.05 L12.25 -6.95 12.3 -6.9 12.3 -6.8 12.25 -6.7 12.2 -6.7 Q12.15 -6.75 12.1 -6.8 12.0 -6.9 12.05 -6.95 L12.05 -6.95 12.15 -7.0 12.1 -7.1 12.15 -7.15 12.2 -7.15 12.25 -7.05 M12.65 -6.8 L12.65 -6.75 12.6 -6.75 12.6 -6.8 12.55 -6.8 12.6 -6.85 12.65 -6.8 M12.5 -6.9 L12.5 -6.75 12.5 -6.7 12.45 -6.7 12.35 -6.7 12.35 -6.75 12.45 -6.9 12.45 -6.9 12.5 -6.9 M12.95 -6.55 L12.95 -6.5 12.9 -6.45 13.0 -6.4 12.95 -6.3 12.95 -6.3 Q12.85 -6.3 12.85 -6.3 L12.85 -6.45 12.85 -6.45 12.8 -6.5 Q12.75 -6.6 12.75 -6.65 L12.8 -6.65 12.8 -6.65 12.9 -6.6 12.9 -6.6 12.95 -6.55 M13.0 -6.6 L12.95 -6.6 Q12.95 -6.65 12.95 -6.65 L12.9 -6.7 13.0 -6.7 13.05 -6.65 13.05 -6.65 13.0 -6.6 M13.15 -6.1 L13.15 -6.2 13.2 -6.15 13.2 -6.15 13.25 -6.05 13.25 -6.0 13.2 -5.95 13.2 -6.0 13.15 -6.1 M13.95 -5.9 L13.9 -5.85 13.85 -5.85 13.8 -5.9 13.75 -6.0 13.75 -6.05 13.8 -6.1 13.9 -6.0 13.95 -5.95 13.95 -5.9 M15.8 -7.1 L15.8 -7.1 15.7 -7.15 15.7 -7.2 15.7 -7.2 15.75 -7.2 15.75 -7.2 15.8 -7.2 15.85 -7.15 15.85 -7.15 15.8 -7.1 M15.6 -7.35 L15.6 -7.35 15.55 -7.35 15.5 -7.35 15.45 -7.4 15.45 -7.4 15.45 -7.4 15.5 -7.4 15.55 -7.4 15.6 -7.35 15.6 -7.35 15.6 -7.35 M15.2 -7.0 L15.15 -7.05 15.1 -7.1 15.1 -7.15 15.05 -7.2 15.05 -7.2 Q14.95 -7.2 14.95 -7.25 L14.9 -7.25 14.9 -7.25 14.85 -7.3 14.8 -7.3 14.8 -7.35 14.85 -7.3 14.85 -7.35 15.05 -7.3 15.15 -7.3 15.15 -7.25 15.15 -7.25 15.2 -7.15 15.25 -7.1 15.25 -7.0 15.2 -7.0 M14.85 -7.1 L14.9 -7.1 14.9 -7.05 14.85 -7.05 14.85 -7.1 14.8 -7.1 14.8 -7.1 14.85 -7.1 M14.85 -6.85 L14.9 -6.85 14.9 -6.8 14.95 -6.8 14.95 -6.75 14.95 -6.7 14.8 -6.8 14.8 -6.85 14.85 -6.85 M14.45 -7.15 L14.45 -7.2 Q14.5 -7.2 14.55 -7.2 L14.6 -7.15 14.6 -7.15 14.55 -7.1 14.6 -7.1 14.65 -7.1 14.65 -7.1 Q14.65 -7.05 14.6 -7.05 L14.6 -7.05 Q14.55 -7.05 14.55 -7.05 L14.55 -7.1 14.5 -7.15 14.45 -7.15 M14.35 -7.15 L14.35 -7.1 14.5 -7.05 14.5 -7.05 14.55 -7.05 14.55 -7.0 14.55 -7.0 14.6 -6.95 14.6 -6.95 14.55 -6.9 14.6 -6.9 14.55 -6.85 14.5 -6.9 14.45 -6.95 14.45 -6.95 14.5 -7.0 14.45 -7.0 14.35 -7.05 14.3 -7.1 14.3 -7.15 14.35 -7.15 M14.65 -6.5 L14.8 -6.35 14.85 -6.3 14.85 -6.3 14.75 -6.25 14.75 -6.2 14.65 -6.3 Q14.65 -6.3 14.65 -6.35 L14.65 -6.5 M10.8 -9.8 L10.8 -9.75 10.75 -9.75 10.75 -9.85 10.75 -9.9 10.8 -9.85 10.8 -9.85 Q10.85 -9.8 10.85 -9.8 L10.8 -9.8 M11.05 -9.65 L11.1 -9.65 11.1 -9.55 11.05 -9.5 11.0 -9.45 10.9 -9.4 10.95 -9.4 10.95 -9.5 11.0 -9.6 11.0 -9.6 11.05 -9.65 M11.8 -7.55 L11.85 -7.5 11.9 -7.4 11.95 -7.35 11.9 -7.3 11.9 -7.3 11.85 -7.3 11.8 -7.3 11.8 -7.45 Q11.75 -7.5 11.8 -7.55 M11.8 -7.05 L11.8 -7.05 11.75 -6.95 11.75 -6.9 11.75 -7.0 11.8 -7.05 11.8 -7.05 M11.45 -7.15 L11.5 -7.2 11.55 -7.15 11.5 -7.1 11.45 -7.0 11.4 -6.9 11.3 -6.85 Q11.2 -6.8 11.2 -6.8 L11.15 -6.85 11.15 -6.95 Q11.15 -7.05 11.2 -7.1 L11.3 -7.1 11.35 -7.05 11.45 -7.15 M11.55 -6.5 L11.6 -6.5 11.6 -6.4 11.6 -6.35 11.55 -6.3 11.45 -6.3 11.5 -6.4 11.55 -6.5 11.55 -6.5 M11.7 -6.45 L11.7 -6.5 11.75 -6.45 11.75 -6.4 11.7 -6.4 11.7 -6.45 M16.5 -8.1 L16.5 -8.0 16.5 -8.0 16.4 -8.0 16.3 -8.0 16.2 -8.05 16.2 -8.1 16.4 -8.1 16.5 -8.1 M16.5 -7.75 L16.5 -7.7 16.45 -7.7 16.4 -7.75 16.35 -7.75 16.35 -7.75 16.35 -7.8 16.4 -7.8 16.45 -7.75 16.45 -7.75 16.5 -7.75 16.5 -7.75" fill="#421818" fill-rule="evenodd" stroke="none"/>
    <path d="M13.55 -8.95 L13.55 -8.95 13.45 -8.95 13.35 -9.0 13.25 -9.0 13.35 -9.05 13.5 -9.05 13.7 -9.05 Q13.85 -9.0 13.9 -9.0 L13.95 -8.95 14.0 -8.9 Q14.05 -8.85 14.15 -8.85 L14.25 -8.9 14.35 -8.85 14.45 -8.75 14.45 -8.7 14.5 -8.7 14.55 -8.65 Q14.55 -8.6 14.6 -8.6 L14.6 -8.6 14.55 -8.55 14.55 -8.55 14.45 -8.55 14.5 -8.5 14.5 -8.5 14.6 -8.5 14.6 -8.45 14.55 -8.45 14.6 -8.4 14.65 -8.45 14.7 -8.45 14.7 -8.5 14.65 -8.5 14.7 -8.5 14.75 -8.55 14.75 -8.6 14.8 -8.55 14.8 -8.5 14.85 -8.45 14.85 -8.35 14.9 -8.3 14.85 -8.2 14.8 -8.15 Q14.75 -8.15 14.75 -8.15 L14.65 -8.25 14.65 -8.25 14.7 -8.25 14.85 -8.25 14.8 -8.35 14.75 -8.35 14.7 -8.35 14.65 -8.35 14.55 -8.35 14.55 -8.4 14.5 -8.45 14.4 -8.5 14.2 -8.55 14.05 -8.5 13.95 -8.45 13.95 -8.4 13.8 -8.45 13.8 -8.4 13.85 -8.4 13.9 -8.4 13.85 -8.3 13.8 -8.2 13.8 -8.2 13.65 -8.2 13.6 -8.15 13.65 -8.15 13.85 -8.1 13.8 -8.05 13.85 -8.0 13.85 -8.0 13.65 -7.85 13.5 -7.8 13.4 -7.8 13.4 -7.8 13.35 -7.8 13.35 -7.8 13.45 -7.95 13.5 -8.05 13.55 -8.05 13.65 -8.15 13.6 -8.15 13.55 -8.15 13.55 -8.15 13.5 -8.15 13.5 -8.1 13.45 -8.1 13.3 -8.15 13.2 -8.15 13.1 -8.15 13.05 -8.1 13.05 -8.05 13.0 -7.95 Q12.95 -7.95 12.95 -8.0 L12.9 -8.1 12.9 -8.2 12.9 -8.25 12.95 -8.3 13.2 -8.25 13.45 -8.25 Q13.55 -8.25 13.55 -8.3 L13.6 -8.45 13.7 -8.6 13.85 -8.7 13.9 -8.75 13.8 -8.85 13.8 -8.9 13.75 -8.95 13.65 -9.0 13.55 -9.0 13.5 -9.0 13.45 -9.0 13.55 -8.95 13.55 -8.95 M12.15 -8.75 L12.25 -8.7 12.25 -8.65 12.35 -8.6 12.45 -8.6 12.65 -8.5 12.65 -8.45 12.7 -8.3 12.65 -8.25 12.6 -8.2 Q12.55 -8.2 12.5 -8.35 L12.45 -8.45 12.45 -8.4 12.4 -8.4 12.35 -8.45 12.25 -8.5 12.05 -8.6 11.8 -8.5 Q11.75 -8.5 11.7 -8.45 L11.65 -8.35 11.7 -8.25 11.7 -8.2 11.65 -8.0 11.6 -7.9 11.55 -7.85 11.4 -7.8 11.3 -7.75 11.25 -7.75 11.2 -7.75 11.15 -7.75 11.05 -7.75 11.05 -7.8 11.1 -7.8 Q11.2 -7.9 11.2 -8.0 11.2 -8.05 11.15 -8.05 L11.1 -8.05 11.0 -8.1 10.9 -8.0 Q10.8 -7.95 10.75 -7.95 L10.7 -7.95 10.7 -7.95 10.75 -8.0 10.75 -8.05 10.7 -8.1 10.65 -8.15 10.6 -8.2 10.55 -8.25 10.6 -8.3 10.6 -8.3 10.65 -8.3 10.75 -8.3 10.85 -8.35 10.95 -8.35 11.05 -8.3 11.25 -8.25 11.3 -8.3 11.3 -8.35 11.35 -8.4 11.35 -8.5 Q11.35 -8.55 11.5 -8.6 11.6 -8.6 11.6 -8.7 L11.55 -8.8 11.35 -8.9 11.2 -8.9 11.1 -8.95 11.05 -9.0 11.0 -9.05 11.3 -9.1 11.5 -9.1 11.6 -9.05 11.6 -9.0 11.65 -9.0 Q11.7 -8.9 11.75 -8.9 L11.9 -8.9 Q11.95 -8.9 12.0 -8.9 L12.05 -8.8 12.15 -8.75 M11.05 -7.75 L11.05 -7.75 11.1 -7.7 11.05 -7.7 11.0 -7.75 11.05 -7.75 M10.45 -8.4 L10.4 -8.4 10.25 -8.35 10.2 -8.35 Q10.2 -8.35 10.15 -8.4 L10.35 -8.45 10.45 -8.4" fill="#2a2a27" fill-rule="evenodd" stroke="none"/>
  </g>
</svg>
