<?xml version="1.0" encoding="UTF-8" standalone="no"?>
<svg xmlns:xlink="http://www.w3.org/1999/xlink" height="18.3px" width="14.35px" xmlns="http://www.w3.org/2000/svg">
  <g transform="matrix(1.0, 0.0, 0.0, 1.0, 9.65, 10.15)">
    <path d="M-3.8 -10.15 Q-3.45 -10.2 -2.55 -9.65 L-2.6 -9.55 Q-2.65 -9.55 -2.7 -9.55 -3.1 -9.55 -3.8 -10.05 L-3.8 -10.15 M-8.3 -8.2 L-7.8 -8.2 Q-7.1 -7.9 -6.05 -7.8 L-5.9 -7.7 Q-5.9 -7.65 -6.05 -7.6 L-6.75 -7.6 -8.3 -8.1 -8.3 -8.2 M-9.5 -3.4 L-9.45 -3.35 -9.1 -3.3 -8.45 -3.4 -8.05 -3.45 Q-8.0 -3.45 -8.0 -3.35 -8.0 -3.3 -8.45 -3.2 L-9.15 -3.1 -9.6 -3.15 -9.65 -3.35 Q-9.6 -3.4 -9.5 -3.4 M-9.2 -2.75 Q-8.6 -2.55 -7.15 -1.85 L-7.15 -1.7 Q-7.2 -1.7 -7.25 -1.7 -9.2 -2.4 -9.2 -2.65 L-9.2 -2.75 M-4.6 3.65 L-5.1 3.65 Q-5.65 3.55 -6.05 3.2 L-6.6 2.65 Q-6.25 2.6 -5.9 3.0 -5.45 3.45 -4.6 3.45 L-4.5 3.45 -4.5 3.55 -4.6 3.65 M-6.2 6.9 L-6.15 6.8 Q-5.85 6.85 -5.2 7.2 L-3.9 7.95 Q-4.0 8.15 -4.05 8.15 -4.55 8.15 -6.2 6.9 M-0.3 6.1 L-0.25 6.0 -0.2 6.0 Q0.75 6.0 1.25 5.75 1.55 5.55 1.65 5.6 L1.7 5.65 Q1.7 5.8 1.2 6.0 0.75 6.15 0.2 6.2 L-0.2 6.2 -0.3 6.1 M2.65 7.25 L3.5 7.2 4.6 7.2 4.7 7.3 4.6 7.4 3.45 7.4 3.1 7.5 2.65 7.5 2.55 7.35 2.6 7.3 2.65 7.25" fill="#fc7f32" fill-rule="evenodd" stroke="none"/>
  </g>
</svg>
