<?xml version="1.0" encoding="UTF-8" standalone="no"?>
<svg xmlns:xlink="http://www.w3.org/1999/xlink" height="18.6px" width="13.05px" xmlns="http://www.w3.org/2000/svg">
  <g transform="matrix(1.0, 0.0, 0.0, 1.0, 10.1, 10.9)">
    <path d="M-3.55 -9.95 L-3.6 -9.95 -3.65 -9.95 -5.05 -10.8 -5.05 -10.9 Q-4.85 -10.95 -4.2 -10.6 -3.55 -10.25 -3.55 -10.1 L-3.55 -9.95 M-9.25 -8.4 Q-8.8 -8.2 -8.05 -8.2 L-7.95 -8.1 Q-7.95 -8.05 -8.05 -7.95 L-8.65 -7.95 -9.6 -8.3 -9.6 -8.35 Q-9.5 -8.5 -9.25 -8.4 M-9.2 -2.85 Q-9.0 -2.8 -9.0 -2.7 L-9.0 -2.6 -9.2 -2.6 Q-9.4 -2.6 -9.55 -2.75 -9.4 -2.9 -9.2 -2.85 M-9.25 -3.15 Q-9.3 -3.1 -9.35 -3.1 -9.7 -3.1 -10.1 -3.5 L-10.05 -3.6 -9.6 -3.5 Q-9.3 -3.4 -9.25 -3.2 L-9.25 -3.15 M-6.9 1.95 Q-6.75 1.85 -6.7 1.95 L-6.6 2.25 -6.25 2.5 Q-6.15 2.55 -6.15 2.7 -6.15 2.8 -6.3 2.9 L-6.65 2.55 -6.9 2.25 -6.9 1.95 M-5.85 6.85 L-5.95 6.95 -6.25 6.95 -7.35 6.2 Q-7.25 6.1 -6.85 6.35 -6.3 6.7 -5.95 6.75 L-5.85 6.85 M-0.05 6.15 Q-0.05 6.15 -0.05 6.25 -0.05 6.35 -0.15 6.35 L-1.15 6.35 -1.75 6.15 -1.75 6.1 Q-1.7 6.05 -1.55 6.05 L-0.15 6.15 -0.05 6.15 M2.9 7.25 L2.95 7.3 Q2.95 7.4 2.7 7.5 L2.2 7.7 0.95 7.7 0.85 7.6 0.9 7.5 0.95 7.5 2.25 7.45 Q2.75 7.25 2.9 7.3 L2.9 7.25" fill="#fc7f32" fill-rule="evenodd" stroke="none"/>
  </g>
</svg>
