<?xml version="1.0" encoding="UTF-8" standalone="no"?>
<svg xmlns:xlink="http://www.w3.org/1999/xlink" height="5.15px" width="6.7px" xmlns="http://www.w3.org/2000/svg">
  <g transform="matrix(1.0, 0.0, 0.0, 1.0, -4.8, 11.45)">
    <path d="M8.85 -11.45 L8.85 -11.45 8.85 -11.35 8.8 -11.35 8.8 -11.4 8.85 -11.45 M9.0 -11.1 L9.0 -11.1 9.05 -11.1 9.1 -11.1 9.1 -11.05 9.0 -11.05 9.0 -11.1 M9.1 -10.95 L9.1 -10.95 9.05 -10.85 9.05 -10.8 9.15 -10.8 9.15 -10.75 9.1 -10.75 9.0 -10.7 8.95 -10.75 8.95 -10.8 9.0 -10.95 9.05 -10.95 9.1 -10.95 M6.35 -11.05 L6.35 -11.05 6.4 -11.05 6.4 -11.05 6.4 -11.0 6.35 -11.0 6.35 -11.05 6.3 -11.05 6.3 -11.05 6.35 -11.05 M6.95 -10.75 L7.0 -10.7 7.05 -10.7 7.05 -10.65 7.0 -10.65 7.0 -10.65 6.95 -10.7 6.95 -10.75 M7.45 -11.2 L7.5 -11.2 7.5 -11.15 7.45 -11.1 7.4 -11.15 7.35 -11.15 7.35 -11.2 7.4 -11.2 7.45 -11.2 7.45 -11.2 M5.2 -9.95 L5.2 -10.0 5.3 -9.95 5.35 -9.95 5.4 -9.9 5.4 -9.9 5.3 -9.9 5.25 -9.95 5.2 -9.95 M10.1 -10.05 L10.1 -10.1 10.2 -10.15 10.2 -10.1 10.2 -10.05 10.15 -10.0 10.1 -10.05 10.1 -10.05 M9.4 -10.55 L9.4 -10.6 9.45 -10.65 9.5 -10.7 9.55 -10.7 9.5 -10.6 9.5 -10.6 9.45 -10.5 9.4 -10.55 M9.1 -9.9 L9.1 -9.95 9.05 -9.95 9.2 -10.05 9.2 -10.0 9.25 -9.95 9.2 -9.95 9.1 -9.9 M8.3 -9.95 L8.25 -9.95 8.2 -10.0 8.25 -10.05 8.25 -10.05 8.3 -10.05 8.35 -10.05 8.35 -10.0 8.3 -9.95 M8.1 -10.55 L8.1 -10.55 8.05 -10.5 8.05 -10.5 8.0 -10.5 8.0 -10.55 8.05 -10.55 8.1 -10.6 8.1 -10.55 M8.9 -10.55 L8.95 -10.55 8.95 -10.55 9.0 -10.5 9.0 -10.5 8.95 -10.5 8.95 -10.45 8.9 -10.4 8.85 -10.4 8.85 -10.4 Q8.8 -10.45 8.8 -10.5 L8.85 -10.5 Q8.9 -10.55 8.9 -10.55 M6.3 -10.55 L6.3 -10.5 6.25 -10.5 6.25 -10.55 6.2 -10.6 6.25 -10.6 6.25 -10.6 6.3 -10.55 M7.85 -10.95 L7.85 -10.9 7.8 -10.9 7.8 -10.9 7.75 -10.9 7.75 -11.0 7.8 -11.0 7.85 -11.0 7.85 -10.95 7.85 -10.95 7.9 -11.0 7.95 -10.95 7.95 -10.85 7.9 -10.85 7.85 -10.9 7.85 -10.95 M7.2 -10.85 L7.2 -10.85 7.15 -10.9 7.25 -10.95 7.25 -10.9 7.25 -10.85 7.2 -10.85 M7.1 -9.65 L7.15 -9.65 7.15 -9.6 7.1 -9.6 7.1 -9.6 7.05 -9.6 7.0 -9.65 7.0 -9.65 7.05 -9.7 7.05 -9.7 7.1 -9.7 7.1 -9.65 M6.15 -9.75 L6.2 -9.75 6.25 -9.65 6.25 -9.65 6.2 -9.65 6.15 -9.65 6.05 -9.75 6.1 -9.75 6.15 -9.75 M6.35 -8.95 L6.35 -9.0 6.35 -9.05 6.4 -9.0 6.45 -9.0 6.45 -8.95 6.4 -8.95 6.4 -8.95 6.35 -8.95 M6.25 -7.95 L6.25 -8.0 6.3 -8.0 6.35 -8.05 6.45 -8.0 6.45 -7.95 6.4 -7.9 6.4 -7.9 6.4 -7.9 6.35 -7.9 6.35 -7.9 6.25 -7.9 6.25 -7.85 6.25 -7.85 6.15 -7.85 6.1 -7.9 Q6.1 -7.95 6.15 -8.0 L6.2 -7.95 6.25 -7.95 M6.15 -9.05 Q6.15 -9.0 6.1 -9.0 L6.05 -9.0 6.05 -9.05 6.05 -9.1 6.1 -9.1 6.15 -9.1 6.15 -9.05 M6.8 -8.2 L6.7 -8.2 6.7 -8.25 6.75 -8.25 6.7 -8.3 6.75 -8.3 6.8 -8.3 6.85 -8.25 6.85 -8.2 6.8 -8.2 M4.8 -8.7 L4.8 -8.75 4.85 -8.75 4.9 -8.75 4.9 -8.7 4.85 -8.65 4.8 -8.7 M5.45 -8.85 L5.4 -8.85 5.35 -8.9 5.35 -8.95 5.4 -8.95 5.45 -8.9 5.45 -8.85 M5.55 -9.5 L5.55 -9.45 5.45 -9.45 5.45 -9.5 5.35 -9.55 5.4 -9.55 5.4 -9.55 5.45 -9.6 5.45 -9.55 5.5 -9.55 5.5 -9.55 5.55 -9.5 M7.4 -7.85 L7.4 -7.85 7.35 -7.8 7.3 -7.85 7.3 -7.85 7.25 -7.9 7.35 -7.9 7.35 -7.85 7.4 -7.85 M7.75 -8.25 L7.8 -8.25 7.75 -8.2 Q7.7 -8.2 7.7 -8.2 L7.65 -8.25 7.65 -8.25 7.7 -8.3 7.75 -8.25 M6.1 -7.45 L6.15 -7.45 6.15 -7.4 6.15 -7.35 6.1 -7.35 6.05 -7.35 6.05 -7.4 6.1 -7.45 M7.35 -6.9 L7.35 -6.95 7.4 -7.0 7.5 -7.0 7.5 -6.9 7.5 -6.75 7.45 -6.75 7.45 -6.75 7.45 -6.75 7.45 -6.85 7.4 -6.9 7.35 -6.9 7.35 -6.9 M7.55 -6.6 L7.5 -6.6 7.5 -6.65 7.55 -6.65 7.55 -6.65 7.55 -6.6 M10.7 -9.75 L10.75 -9.75 10.8 -9.75 10.8 -9.7 10.75 -9.7 10.7 -9.7 10.7 -9.7 10.7 -9.75 M10.95 -9.85 L11.0 -9.85 11.0 -9.8 10.95 -9.8 10.95 -9.8 10.9 -9.8 10.9 -9.8 10.95 -9.85 10.95 -9.85 M11.15 -9.05 L11.2 -9.05 11.2 -9.05 11.2 -9.0 11.15 -9.0 11.1 -9.0 11.05 -9.0 11.1 -9.05 11.15 -9.05 11.15 -9.05 M7.8 -6.4 L7.8 -6.4 7.85 -6.4 7.9 -6.35 7.85 -6.3 7.8 -6.3 7.8 -6.4 M10.3 -9.9 L10.25 -9.85 10.2 -9.9 10.25 -9.9 10.3 -9.9 10.35 -9.95 10.4 -9.9 10.35 -9.9 10.3 -9.9 M10.35 -8.85 L10.35 -8.85 10.4 -8.9 10.45 -8.85 10.5 -8.85 10.5 -8.8 10.5 -8.75 10.45 -8.75 Q10.45 -8.75 10.45 -8.8 L10.4 -8.8 10.4 -8.8 10.35 -8.8 10.35 -8.85 M10.5 -9.4 L10.55 -9.4 10.55 -9.4 10.5 -9.35 10.45 -9.35 10.45 -9.35 10.4 -9.35 10.45 -9.35 10.5 -9.4 M10.2 -9.45 L10.25 -9.45 10.25 -9.5 10.3 -9.45 10.35 -9.45 10.35 -9.4 10.3 -9.4 10.2 -9.4 10.2 -9.45 M10.65 -9.2 L10.7 -9.2 10.7 -9.2 10.75 -9.25 10.8 -9.2 10.8 -9.15 10.75 -9.15 10.7 -9.15 10.65 -9.2 M10.75 -8.4 L10.7 -8.4 10.6 -8.45 10.65 -8.5 10.75 -8.5 10.8 -8.5 10.85 -8.45 10.85 -8.4 10.75 -8.4 M10.75 -8.7 L10.8 -8.7 10.85 -8.7 10.9 -8.65 10.85 -8.65 10.8 -8.65 10.7 -8.65 10.7 -8.7 10.75 -8.7 M10.6 -7.9 L10.65 -7.9 10.85 -7.85 10.85 -7.8 10.8 -7.8 10.7 -7.85 10.65 -7.85 10.65 -7.75 10.6 -7.75 10.6 -7.75 Q10.55 -7.75 10.55 -7.8 10.45 -7.85 10.45 -7.85 L10.55 -7.9 10.6 -7.9 M11.05 -7.85 L11.05 -7.8 11.0 -7.8 10.95 -7.85 11.0 -7.85 11.0 -7.85 11.05 -7.85 M9.65 -9.6 L9.7 -9.65 9.7 -9.65 9.75 -9.65 9.8 -9.65 9.9 -9.6 9.95 -9.6 Q9.95 -9.5 9.9 -9.5 L9.85 -9.55 9.8 -9.55 9.7 -9.5 9.65 -9.5 9.6 -9.55 9.6 -9.6 9.65 -9.6 M11.4 -7.95 L11.4 -8.05 11.45 -8.05 11.45 -8.05 11.5 -8.0 11.5 -7.95 11.4 -7.95 M9.15 -9.3 L9.1 -9.25 9.1 -9.25 9.05 -9.25 9.05 -9.25 9.05 -9.35 9.1 -9.35 9.1 -9.35 9.15 -9.3 M9.4 -9.2 L9.4 -9.15 9.4 -9.1 9.35 -9.1 Q9.3 -9.15 9.3 -9.15 L9.3 -9.15 9.35 -9.2 9.35 -9.2 9.4 -9.2 M9.6 -9.15 L9.6 -9.15 9.65 -9.2 9.7 -9.2 9.7 -9.15 9.7 -9.1 9.65 -9.1 9.6 -9.15 M9.2 -9.3 L9.2 -9.35 9.15 -9.4 9.15 -9.4 9.2 -9.4 9.25 -9.4 9.25 -9.4 9.25 -9.35 9.2 -9.3 M9.8 -8.45 L9.8 -8.5 9.75 -8.55 9.75 -8.55 Q9.75 -8.55 9.8 -8.55 L9.8 -8.55 9.95 -8.5 9.9 -8.5 9.85 -8.45 9.8 -8.45 M8.25 -9.8 L8.25 -9.8 8.15 -9.75 8.15 -9.8 8.1 -9.8 8.15 -9.8 8.2 -9.85 8.2 -9.85 8.25 -9.8 M8.85 -9.9 L8.85 -9.9 8.85 -9.8 8.8 -9.8 8.75 -9.85 8.75 -9.9 8.8 -9.9 8.85 -9.9 M8.35 -9.55 L8.35 -9.55 8.3 -9.5 8.25 -9.55 8.25 -9.6 8.3 -9.6 8.35 -9.6 8.35 -9.55 M8.9 -8.4 L8.95 -8.4 9.0 -8.45 9.0 -8.35 8.95 -8.35 8.9 -8.35 8.9 -8.35 8.85 -8.4 8.85 -8.4 8.9 -8.4 8.9 -8.4 M9.35 -7.45 L9.35 -7.45 9.4 -7.4 9.45 -7.35 9.4 -7.35 9.35 -7.35 9.35 -7.4 9.3 -7.4 9.35 -7.45 M9.35 -8.05 L9.4 -8.05 9.4 -8.0 9.4 -8.0 9.35 -8.0 9.3 -8.0 Q9.3 -8.0 9.3 -8.05 L9.35 -8.05 9.35 -8.05 M8.95 -7.45 L9.0 -7.45 9.05 -7.4 9.1 -7.35 9.05 -7.35 9.05 -7.2 Q9.05 -7.15 9.0 -7.15 L8.9 -7.2 8.9 -7.3 8.9 -7.35 8.95 -7.45 M8.75 -7.75 L8.75 -7.75 8.75 -7.65 8.7 -7.65 8.7 -7.7 8.65 -7.7 8.6 -7.7 8.65 -7.75 8.75 -7.75 M10.0 -7.7 L10.0 -7.7 10.05 -7.7 10.1 -7.65 10.05 -7.6 10.05 -7.65 10.0 -7.65 10.0 -7.7 M9.7 -7.05 L9.7 -6.95 9.65 -6.95 Q9.65 -6.95 9.6 -7.0 L9.55 -7.05 9.6 -7.05 9.6 -7.05 9.7 -7.05 9.7 -7.05 M10.1 -7.15 L10.05 -7.15 10.05 -7.2 10.05 -7.2 10.1 -7.2 10.15 -7.2 10.15 -7.15 10.1 -7.15 M9.2 -7.15 L9.15 -7.2 9.2 -7.2 9.25 -7.25 9.25 -7.2 9.3 -7.15 9.2 -7.1 9.2 -7.15 M8.6 -7.0 L8.65 -7.0 8.65 -6.95 8.6 -6.95 8.55 -6.95 8.55 -7.0 8.5 -7.05 8.55 -7.1 8.6 -7.0 8.6 -7.0 M9.15 -6.85 L9.15 -6.8 9.1 -6.8 9.1 -6.8 9.05 -6.8 9.05 -6.85 9.1 -6.9 9.15 -6.9 Q9.15 -6.85 9.15 -6.85 L9.15 -6.85" fill="#421818" fill-rule="evenodd" stroke="none"/>
    <path d="M7.4 -8.8 L7.6 -8.75 Q7.65 -8.7 7.65 -8.6 L7.65 -8.6 7.7 -8.55 7.7 -8.5 7.75 -8.45 7.8 -8.45 7.85 -8.45 8.0 -8.25 Q8.1 -8.15 8.1 -8.0 L8.05 -7.9 8.0 -7.85 Q7.95 -7.85 7.95 -7.95 L7.95 -8.1 7.85 -8.15 7.8 -8.25 7.8 -8.25 Q7.7 -8.35 7.65 -8.35 L7.55 -8.3 7.45 -8.3 7.4 -8.3 7.35 -8.35 7.4 -8.45 7.45 -8.5 7.4 -8.55 7.3 -8.65 7.25 -8.7 7.2 -8.75 7.3 -8.8 7.4 -8.8 M8.0 -9.15 L8.2 -9.15 8.4 -9.1 8.55 -9.1 8.7 -9.1 8.8 -9.15 8.9 -9.1 8.95 -9.05 8.9 -8.9 8.8 -8.85 8.85 -8.75 8.9 -8.65 8.85 -8.5 8.75 -8.4 8.8 -8.3 8.85 -8.15 Q8.85 -8.0 8.65 -7.95 L8.35 -7.85 8.35 -7.9 8.35 -8.0 8.35 -8.0 8.3 -8.0 8.25 -8.0 8.2 -8.0 8.2 -8.05 8.25 -8.15 8.25 -8.3 8.2 -8.35 8.15 -8.4 8.15 -8.5 8.25 -8.4 8.35 -8.35 Q8.4 -8.3 8.45 -8.3 8.6 -8.3 8.6 -8.4 L8.6 -8.45 8.55 -8.5 8.45 -8.45 8.45 -8.45 Q8.4 -8.45 8.4 -8.45 L8.35 -8.5 Q8.35 -8.55 8.45 -8.6 L8.55 -8.7 8.7 -8.75 8.75 -8.8 8.7 -8.9 8.5 -8.95 8.3 -8.95 8.15 -8.95 Q7.95 -8.95 7.95 -9.05 L7.95 -9.1 8.0 -9.15 M6.35 -8.95 L6.15 -9.0 5.9 -9.0 5.75 -9.05 5.85 -9.1 6.05 -9.15 6.45 -9.05 6.55 -9.1 6.65 -9.1 6.75 -9.05 6.75 -9.05 6.7 -8.95 6.6 -8.85 6.65 -8.75 6.5 -8.6 6.45 -8.6 6.35 -8.55 6.45 -8.45 6.5 -8.4 Q6.6 -8.35 6.6 -8.3 L6.6 -8.2 6.55 -8.15 6.55 -8.1 6.65 -8.05 6.55 -7.95 Q6.5 -7.9 6.45 -7.9 L6.4 -7.9 6.4 -7.9 6.45 -7.95 6.45 -8.0 6.35 -8.05 6.3 -8.0 6.25 -8.0 6.25 -7.95 6.2 -8.0 6.15 -8.05 6.1 -8.0 6.0 -7.95 5.95 -7.95 5.95 -7.95 6.0 -8.05 6.05 -8.2 6.0 -8.4 5.9 -8.5 5.95 -8.5 5.95 -8.55 6.05 -8.4 Q6.2 -8.3 6.25 -8.3 L6.3 -8.35 6.3 -8.45 6.25 -8.5 6.2 -8.55 6.15 -8.55 6.2 -8.6 6.25 -8.65 6.3 -8.7 6.35 -8.7 6.45 -8.8 6.5 -8.9 6.5 -8.9 6.45 -8.95 6.4 -8.95 6.45 -8.95 6.45 -9.0 6.4 -9.0 6.35 -9.05 6.35 -9.0 6.35 -8.95 M6.35 -7.9 L6.25 -7.85 6.25 -7.9 6.35 -7.9 M6.15 -9.05 L6.15 -9.1 6.1 -9.1 6.05 -9.1 6.05 -9.05 6.05 -9.0 6.1 -9.0 Q6.15 -9.0 6.15 -9.05 M5.7 -8.25 L5.8 -8.15 5.85 -8.05 5.8 -7.9 5.75 -7.8 5.65 -7.85 5.6 -7.85 5.65 -8.0 5.65 -8.1 5.6 -8.2 5.55 -8.3 5.55 -8.4 5.6 -8.35 5.7 -8.25 M9.8 -8.45 L9.8 -8.4 9.65 -8.35 Q9.65 -8.35 9.6 -8.35 L9.6 -8.4 9.65 -8.5 9.7 -8.6 Q9.7 -8.65 9.55 -8.65 9.4 -8.7 9.4 -8.7 L9.5 -8.75 9.55 -8.8 9.65 -8.75 9.7 -8.7 9.8 -8.65 9.8 -8.55 9.8 -8.55 Q9.75 -8.55 9.75 -8.55 L9.75 -8.55 9.8 -8.5 9.8 -8.45" fill="#2a2a27" fill-rule="evenodd" stroke="none"/>
  </g>
</svg>
