<?xml version="1.0" encoding="UTF-8" standalone="no"?>
<svg xmlns:xlink="http://www.w3.org/1999/xlink" height="3.45px" width="2.25px" xmlns="http://www.w3.org/2000/svg">
  <g transform="matrix(1.0, 0.0, 0.0, 1.0, -6.0, 12.1)">
    <path d="M6.55 -11.55 L6.55 -11.6 6.6 -11.6 6.6 -11.55 6.55 -11.55 6.55 -11.55 M6.2 -12.1 L6.25 -12.1 6.25 -12.1 6.3 -12.1 6.25 -12.05 6.25 -12.05 6.2 -12.1 M7.45 -11.85 L7.45 -11.85 Q7.45 -11.75 7.35 -11.75 L7.35 -11.8 7.4 -11.8 7.35 -11.85 7.4 -11.85 7.45 -11.85 7.45 -11.85 7.5 -11.85 7.5 -11.8 7.45 -11.85 M8.1 -12.05 L8.15 -12.05 8.15 -12.05 8.15 -12.0 8.1 -12.0 8.05 -12.0 8.05 -12.0 8.05 -12.05 8.1 -12.05 8.1 -12.05 M7.7 -10.75 L7.7 -10.7 7.65 -10.7 7.6 -10.7 7.6 -10.7 7.7 -10.75 M7.25 -10.75 L7.25 -10.7 7.25 -10.7 7.2 -10.7 7.2 -10.75 7.25 -10.75 7.25 -10.75 M7.85 -9.1 L7.85 -9.15 7.9 -9.15 7.9 -9.1 7.85 -9.1 7.85 -9.1 M7.6 -9.6 L7.55 -9.6 7.55 -9.65 7.6 -9.65 7.6 -9.6" fill="#421818" fill-rule="evenodd" stroke="none"/>
    <path d="M6.5 -10.0 Q6.45 -10.0 6.45 -10.05 L6.55 -10.1 6.65 -10.2 6.85 -10.2 Q6.9 -10.2 6.95 -10.15 L7.05 -10.05 7.15 -9.85 7.15 -9.8 7.05 -9.8 6.95 -9.75 6.95 -9.75 6.9 -9.85 6.9 -9.9 6.85 -10.0 6.85 -10.05 6.75 -10.05 6.6 -10.0 6.5 -10.0 M7.9 -9.8 L7.95 -9.9 8.05 -9.9 8.2 -9.85 8.25 -9.8 8.2 -9.75 Q8.15 -9.75 8.1 -9.7 L8.0 -9.65 7.95 -9.6 7.9 -9.6 Q7.85 -9.6 7.8 -9.65 L7.9 -9.8 M6.45 -8.95 L6.5 -9.0 6.55 -9.05 6.6 -9.05 6.6 -9.0 6.7 -8.95 6.75 -8.95 6.75 -9.0 6.85 -9.0 6.95 -9.05 6.95 -8.95 6.9 -8.85 6.85 -8.75 Q6.75 -8.7 6.75 -8.7 L6.55 -8.8 6.4 -8.7 6.35 -8.7 Q6.3 -8.65 6.15 -8.65 L6.05 -8.65 Q6.0 -8.65 6.0 -8.7 L6.0 -8.7 6.15 -8.85 6.2 -8.95 6.3 -9.0 6.45 -8.95 6.45 -8.95" fill="#2a2a27" fill-rule="evenodd" stroke="none"/>
  </g>
</svg>
