<?xml version="1.0" encoding="UTF-8" standalone="no"?>
<svg xmlns:xlink="http://www.w3.org/1999/xlink" height="5.1px" width="6.75px" xmlns="http://www.w3.org/2000/svg">
  <g transform="matrix(1.0, 0.0, 0.0, 1.0, -3.75, 11.55)">
    <path d="M8.1 -10.9 L8.1 -10.85 8.0 -10.8 7.95 -10.85 7.95 -10.9 8.0 -11.05 Q8.05 -11.05 8.05 -11.1 L8.05 -11.05 8.1 -11.05 8.1 -11.05 8.05 -10.95 8.05 -10.95 8.1 -10.95 8.1 -10.9 M9.1 -10.15 L9.1 -10.25 9.2 -10.25 9.2 -10.25 9.2 -10.15 9.1 -10.1 9.1 -10.15 M8.25 -10.1 L8.15 -10.05 8.1 -10.05 8.1 -10.05 8.05 -10.05 8.05 -10.1 8.2 -10.2 8.2 -10.1 8.25 -10.1 M8.45 -10.8 L8.5 -10.8 8.55 -10.8 8.5 -10.75 8.5 -10.7 8.45 -10.65 8.4 -10.65 8.4 -10.75 8.45 -10.8 M9.2 -10.0 L9.25 -10.0 9.3 -10.0 9.35 -10.05 9.35 -10.0 9.3 -10.0 9.25 -10.0 Q9.2 -10.0 9.2 -10.0 M6.0 -10.8 L6.0 -10.75 5.95 -10.8 5.95 -10.8 5.9 -10.85 5.95 -10.85 6.0 -10.85 6.0 -10.8 M4.2 -10.1 L4.2 -10.1 4.3 -10.1 4.3 -10.1 Q4.35 -10.05 4.4 -10.05 L4.4 -10.0 4.25 -10.0 4.2 -10.05 4.15 -10.1 4.2 -10.1 M5.3 -11.2 L5.35 -11.2 5.4 -11.15 5.4 -11.15 5.4 -11.1 5.3 -11.15 5.3 -11.15 5.3 -11.2 M9.95 -10.0 L9.95 -9.95 9.95 -9.9 9.95 -9.9 9.9 -9.9 9.9 -9.9 9.95 -9.95 9.95 -10.0 M5.2 -10.7 L5.25 -10.75 5.25 -10.65 5.3 -10.65 5.25 -10.6 5.25 -10.65 5.2 -10.7 M7.85 -11.55 L7.85 -11.45 7.8 -11.45 7.8 -11.5 7.75 -11.55 7.85 -11.55 7.85 -11.55 M8.05 -11.25 L8.05 -11.2 8.0 -11.15 8.0 -11.2 8.0 -11.25 8.05 -11.25 M7.05 -10.6 L7.05 -10.6 Q7.05 -10.6 7.0 -10.65 L7.0 -10.65 7.05 -10.7 7.1 -10.7 7.1 -10.65 7.05 -10.6 M6.85 -11.05 L6.85 -11.05 6.8 -11.05 6.8 -11.05 6.75 -11.05 6.75 -11.1 6.8 -11.1 6.85 -11.1 6.85 -11.05 6.85 -11.1 6.9 -11.1 6.9 -11.05 6.9 -10.95 6.85 -11.0 6.85 -11.05 M6.45 -11.35 L6.5 -11.3 6.5 -11.3 6.45 -11.25 6.4 -11.25 6.35 -11.3 6.35 -11.3 6.4 -11.35 6.4 -11.35 6.45 -11.35 M6.2 -10.95 L6.15 -11.0 6.15 -11.0 6.2 -11.05 6.25 -11.05 6.25 -11.0 6.2 -10.95 6.2 -10.95 M7.8 -10.0 L7.85 -10.0 7.85 -9.95 7.75 -9.9 7.75 -9.95 7.75 -10.0 7.8 -10.0 7.8 -10.0 M7.15 -9.9 L7.1 -9.9 7.15 -9.95 7.2 -9.95 7.2 -9.95 7.25 -9.95 7.2 -9.9 7.15 -9.9 7.15 -9.9 M7.25 -10.2 L7.3 -10.2 7.35 -10.15 7.35 -10.1 7.3 -10.1 7.25 -10.1 7.2 -10.15 7.2 -10.15 7.25 -10.2 M7.8 -10.55 Q7.8 -10.55 7.8 -10.6 L7.85 -10.65 7.9 -10.65 7.95 -10.65 7.95 -10.65 7.95 -10.6 7.95 -10.6 7.9 -10.6 7.85 -10.55 7.85 -10.55 7.8 -10.55 M8.05 -9.45 L8.1 -9.5 8.1 -9.4 8.1 -9.4 8.05 -9.4 8.05 -9.4 8.0 -9.4 8.0 -9.4 8.05 -9.45 M7.3 -9.7 L7.3 -9.7 7.35 -9.65 7.35 -9.65 7.3 -9.6 7.25 -9.65 7.2 -9.7 7.3 -9.7 M6.1 -9.75 L6.05 -9.75 6.0 -9.75 6.0 -9.8 6.05 -9.8 6.1 -9.8 6.1 -9.75 6.1 -9.75 6.1 -9.75 M6.7 -8.4 L6.75 -8.35 6.7 -8.3 6.7 -8.35 6.65 -8.35 6.65 -8.35 6.7 -8.4 6.7 -8.4 M6.35 -8.0 L6.35 -8.0 6.4 -7.95 6.3 -7.95 6.3 -7.95 6.3 -7.95 6.25 -8.0 6.3 -8.05 6.35 -8.0 M7.9 -8.55 L7.95 -8.55 7.95 -8.55 8.0 -8.5 7.95 -8.5 Q7.95 -8.45 7.95 -8.45 L7.9 -8.45 7.9 -8.5 7.85 -8.5 7.85 -8.55 7.85 -8.55 7.9 -8.55 M5.2 -9.8 L5.2 -9.75 5.15 -9.75 5.05 -9.85 5.1 -9.85 5.15 -9.9 5.2 -9.85 5.2 -9.8 M7.95 -7.55 L8.05 -7.5 8.05 -7.45 8.05 -7.3 Q8.0 -7.3 7.95 -7.3 7.9 -7.3 7.9 -7.3 L7.9 -7.35 7.9 -7.45 7.85 -7.5 7.95 -7.55 7.95 -7.55 M7.75 -7.9 L7.75 -7.85 7.7 -7.8 7.7 -7.8 7.65 -7.8 7.6 -7.85 7.65 -7.85 7.75 -7.9 M5.35 -9.1 L5.35 -9.1 5.35 -9.15 5.4 -9.15 5.4 -9.1 5.4 -9.1 5.4 -9.05 5.35 -9.1 M5.2 -8.1 L5.25 -8.1 5.3 -8.1 5.35 -8.15 5.45 -8.1 5.45 -8.1 5.4 -8.05 5.4 -8.05 5.35 -8.0 5.35 -8.0 5.3 -8.0 5.25 -8.0 5.25 -8.0 5.25 -8.0 5.2 -8.0 5.15 -8.0 Q5.1 -8.0 5.1 -8.0 5.1 -8.1 5.1 -8.1 L5.2 -8.1 5.2 -8.1 M5.05 -9.25 L5.1 -9.25 5.15 -9.2 5.15 -9.15 Q5.15 -9.15 5.1 -9.15 L5.05 -9.15 5.05 -9.2 5.05 -9.25 M4.45 -9.0 L4.4 -8.95 4.35 -9.0 4.35 -9.05 4.4 -9.05 4.45 -9.05 4.45 -9.0 M4.4 -9.6 Q4.35 -9.6 4.35 -9.65 L4.4 -9.65 4.4 -9.7 4.45 -9.7 4.45 -9.7 4.5 -9.65 4.5 -9.65 4.55 -9.6 4.55 -9.6 4.45 -9.55 4.4 -9.6 M5.7 -8.35 L5.7 -8.4 5.75 -8.45 5.75 -8.4 5.85 -8.35 5.85 -8.35 5.8 -8.35 5.7 -8.35 5.7 -8.35 M5.0 -7.5 L5.05 -7.55 5.1 -7.6 5.15 -7.55 5.15 -7.55 5.15 -7.45 5.05 -7.45 5.05 -7.45 5.0 -7.5 M8.05 -6.9 L8.05 -6.95 8.05 -7.0 8.1 -7.0 8.15 -7.0 8.15 -6.95 8.15 -6.95 8.1 -6.95 8.05 -6.9 M7.65 -7.1 L7.6 -7.1 7.55 -7.05 7.55 -7.1 7.5 -7.1 7.5 -7.15 7.55 -7.2 7.6 -7.15 7.6 -7.1 7.65 -7.1 M6.3 -7.05 L6.35 -7.1 6.4 -7.15 6.45 -7.1 6.5 -7.05 6.5 -6.9 6.45 -6.85 6.45 -6.85 6.4 -6.85 6.4 -6.95 6.4 -7.0 6.35 -7.0 6.3 -7.0 6.3 -7.05 M6.5 -6.8 L6.55 -6.75 6.55 -6.75 6.5 -6.7 6.5 -6.75 6.5 -6.8 M9.8 -9.8 L9.75 -9.8 9.7 -9.8 9.7 -9.85 9.65 -9.85 9.7 -9.9 9.75 -9.9 9.8 -9.85 9.8 -9.8 M10.35 -8.1 L10.35 -8.1 10.4 -8.15 10.45 -8.15 10.45 -8.15 10.5 -8.1 10.5 -8.1 10.35 -8.1 M10.15 -9.2 L10.2 -9.15 10.2 -9.1 10.15 -9.1 10.1 -9.1 10.05 -9.15 10.1 -9.2 10.15 -9.2 10.15 -9.2 M3.9 -8.8 L3.85 -8.8 3.8 -8.8 3.75 -8.85 3.8 -8.85 3.85 -8.85 3.85 -8.85 3.9 -8.85 3.9 -8.8 M6.8 -6.55 L6.8 -6.55 6.85 -6.5 6.9 -6.5 6.85 -6.45 6.8 -6.45 6.8 -6.55 M9.8 -9.3 L9.75 -9.3 9.7 -9.3 9.65 -9.3 9.65 -9.35 9.7 -9.35 9.75 -9.35 9.8 -9.3 9.8 -9.3 M8.3 -9.3 L8.3 -9.3 8.35 -9.3 8.35 -9.3 8.4 -9.3 8.4 -9.25 8.35 -9.25 8.3 -9.3 8.3 -9.3 M8.25 -9.5 L8.25 -9.45 8.2 -9.4 8.15 -9.45 8.1 -9.5 8.1 -9.55 8.2 -9.55 8.25 -9.5 8.25 -9.5 M8.65 -9.3 L8.65 -9.3 8.7 -9.3 8.7 -9.25 8.7 -9.2 8.65 -9.2 8.6 -9.25 8.6 -9.3 Q8.6 -9.3 8.65 -9.3 M8.95 -9.7 Q8.95 -9.65 8.9 -9.65 L8.85 -9.65 8.8 -9.65 8.7 -9.65 8.65 -9.6 8.6 -9.7 8.6 -9.7 8.65 -9.75 8.7 -9.75 8.7 -9.75 8.8 -9.75 8.9 -9.75 8.95 -9.7 M9.85 -8.8 L9.75 -8.8 9.7 -8.8 9.7 -8.8 9.75 -8.85 9.8 -8.85 9.85 -8.85 9.85 -8.8 M9.4 -9.0 L9.45 -9.0 9.5 -8.95 9.5 -8.95 9.5 -8.9 9.45 -8.9 Q9.4 -8.9 9.45 -8.9 L9.4 -8.9 9.4 -8.9 9.3 -8.95 9.3 -9.0 9.4 -9.0 M9.45 -9.5 L9.5 -9.5 9.55 -9.5 9.5 -9.45 9.45 -9.45 9.45 -9.45 9.4 -9.5 9.45 -9.5 9.45 -9.5 M9.3 -9.5 L9.2 -9.55 9.2 -9.6 9.25 -9.6 9.3 -9.55 9.35 -9.55 9.3 -9.55 9.3 -9.5 M8.8 -8.6 L8.8 -8.6 8.75 -8.65 8.75 -8.65 8.8 -8.7 8.8 -8.65 8.95 -8.65 8.85 -8.6 8.85 -8.55 8.8 -8.6 M8.4 -7.5 L8.35 -7.5 8.3 -7.5 8.3 -7.55 8.35 -7.55 8.35 -7.55 8.4 -7.55 8.4 -7.5 M8.3 -8.15 L8.35 -8.15 8.35 -8.15 8.4 -8.15 8.4 -8.15 8.4 -8.1 8.35 -8.1 8.3 -8.1 Q8.25 -8.1 8.3 -8.15 M9.0 -7.8 L9.0 -7.85 9.0 -7.8 9.1 -7.75 9.05 -7.75 9.0 -7.75 9.0 -7.8 M9.6 -8.6 L9.75 -8.6 9.8 -8.6 9.85 -8.55 9.85 -8.55 9.75 -8.55 9.7 -8.55 9.6 -8.55 9.6 -8.6 M9.6 -8.05 L9.6 -8.05 9.8 -7.95 9.85 -7.95 9.8 -7.9 9.8 -7.9 9.7 -7.95 9.65 -7.95 9.65 -7.9 9.6 -7.9 9.55 -7.9 9.5 -7.9 Q9.45 -7.95 9.45 -8.0 L9.55 -8.0 9.6 -8.05 M10.0 -8.0 L10.0 -8.0 10.05 -8.0 10.05 -7.95 10.0 -7.95 9.95 -7.95 10.0 -8.0 M8.65 -7.2 L8.7 -7.15 8.7 -7.1 8.65 -7.1 8.6 -7.1 8.55 -7.15 8.6 -7.2 8.6 -7.2 8.65 -7.2 M9.15 -7.3 L9.15 -7.3 9.1 -7.3 9.1 -7.3 9.05 -7.3 9.05 -7.3 9.0 -7.3 9.05 -7.35 9.1 -7.3 9.15 -7.3 M8.2 -7.25 L8.2 -7.25 8.15 -7.3 8.2 -7.35 8.2 -7.35 8.25 -7.3 8.25 -7.3 8.2 -7.25 8.2 -7.25" fill="#421818" fill-rule="evenodd" stroke="none"/>
    <path d="M7.3 -9.1 L7.15 -9.05 Q6.9 -9.05 6.9 -9.15 L6.95 -9.2 7.0 -9.25 7.2 -9.25 7.4 -9.25 7.55 -9.2 7.7 -9.25 7.8 -9.25 7.85 -9.25 7.9 -9.15 7.85 -9.05 7.8 -8.95 7.85 -8.85 7.9 -8.75 7.8 -8.6 7.75 -8.5 7.8 -8.4 7.85 -8.25 Q7.85 -8.15 7.65 -8.05 L7.35 -7.95 7.35 -8.0 7.3 -8.05 7.35 -8.1 7.35 -8.15 7.35 -8.15 7.3 -8.1 7.25 -8.1 7.2 -8.15 7.15 -8.2 7.2 -8.25 7.25 -8.35 7.25 -8.4 7.2 -8.45 7.15 -8.55 7.15 -8.6 7.25 -8.55 7.35 -8.45 Q7.4 -8.4 7.45 -8.4 7.6 -8.4 7.6 -8.5 L7.6 -8.6 7.55 -8.6 7.45 -8.6 7.4 -8.55 7.4 -8.55 7.35 -8.6 7.4 -8.75 7.55 -8.8 7.7 -8.85 7.75 -8.9 7.7 -9.0 7.3 -9.1 M6.4 -8.95 L6.55 -8.9 Q6.65 -8.8 6.65 -8.7 L6.65 -8.7 6.7 -8.65 6.7 -8.6 6.75 -8.6 6.8 -8.55 6.85 -8.55 7.0 -8.4 Q7.1 -8.25 7.1 -8.15 L7.05 -8.0 Q7.05 -8.0 6.95 -8.0 6.9 -8.0 6.9 -8.05 L6.95 -8.25 6.85 -8.3 6.8 -8.35 6.6 -8.45 6.55 -8.45 6.4 -8.4 6.35 -8.45 6.35 -8.55 6.4 -8.65 6.4 -8.7 6.3 -8.75 6.25 -8.85 6.2 -8.9 6.3 -8.95 6.4 -8.95 M5.4 -9.1 L5.4 -9.1 5.4 -9.15 5.35 -9.15 5.35 -9.1 5.35 -9.1 5.15 -9.1 4.9 -9.15 4.75 -9.15 4.85 -9.25 5.05 -9.25 5.25 -9.25 5.45 -9.2 5.55 -9.2 5.65 -9.2 5.7 -9.2 5.75 -9.15 5.7 -9.05 5.6 -8.95 5.6 -8.9 Q5.6 -8.8 5.5 -8.75 L5.45 -8.7 5.35 -8.65 5.45 -8.55 5.5 -8.55 5.6 -8.4 5.55 -8.35 5.55 -8.2 5.65 -8.15 5.55 -8.1 Q5.5 -8.05 5.45 -8.05 L5.4 -8.05 5.4 -8.05 5.45 -8.1 5.45 -8.1 5.35 -8.15 5.3 -8.1 5.25 -8.1 5.2 -8.1 5.2 -8.15 5.15 -8.15 5.1 -8.1 5.0 -8.05 4.95 -8.05 4.9 -8.1 5.0 -8.2 5.05 -8.3 5.0 -8.5 4.9 -8.6 4.9 -8.65 4.95 -8.65 5.05 -8.55 5.2 -8.45 Q5.25 -8.45 5.25 -8.45 L5.3 -8.5 5.25 -8.55 5.2 -8.65 5.2 -8.65 5.15 -8.7 5.2 -8.7 5.2 -8.8 5.25 -8.8 5.35 -8.85 Q5.4 -8.85 5.45 -8.9 L5.5 -9.0 5.5 -9.05 5.45 -9.05 5.4 -9.1 M5.05 -9.25 L5.05 -9.2 5.05 -9.15 5.1 -9.15 Q5.15 -9.15 5.15 -9.15 L5.15 -9.2 5.1 -9.25 5.05 -9.25 M4.7 -8.35 L4.8 -8.3 Q4.8 -8.25 4.8 -8.15 L4.8 -8.05 4.75 -7.9 Q4.7 -7.9 4.65 -7.95 L4.6 -8.0 4.6 -8.1 4.65 -8.2 4.6 -8.35 4.5 -8.4 4.55 -8.5 4.6 -8.45 4.7 -8.35 M5.25 -8.0 L5.25 -8.0 5.3 -8.0 5.25 -8.0 M8.8 -8.6 L8.75 -8.5 Q8.7 -8.45 8.65 -8.45 L8.6 -8.5 8.6 -8.5 8.65 -8.6 8.65 -8.7 8.5 -8.8 Q8.4 -8.8 8.4 -8.85 L8.5 -8.9 8.55 -8.9 8.65 -8.85 8.7 -8.85 8.75 -8.75 8.8 -8.65 8.8 -8.7 8.75 -8.65 8.75 -8.65 8.8 -8.6 8.8 -8.6" fill="#2a2a27" fill-rule="evenodd" stroke="none"/>
  </g>
</svg>
