<?xml version="1.0" encoding="UTF-8" standalone="no"?>
<svg xmlns:xlink="http://www.w3.org/1999/xlink" height="5.35px" width="6.55px" xmlns="http://www.w3.org/2000/svg">
  <g transform="matrix(1.0, 0.0, 0.0, 1.0, -20.0, 9.55)">
    <path d="M23.7 -9.0 L23.7 -9.1 23.7 -9.1 23.75 -9.15 23.75 -9.15 23.8 -9.15 23.85 -9.15 23.85 -9.1 23.75 -9.05 23.7 -9.0 M23.3 -8.75 L23.3 -8.7 23.25 -8.7 23.25 -8.8 23.3 -8.8 23.35 -8.8 23.35 -8.8 23.3 -8.75 M23.6 -8.7 L23.65 -8.75 23.6 -8.8 23.65 -8.8 23.7 -8.8 23.8 -8.8 23.8 -8.8 23.75 -8.75 23.75 -8.75 23.75 -8.7 23.7 -8.7 Q23.65 -8.65 23.6 -8.65 L23.6 -8.7 M23.95 -8.7 L24.05 -8.7 24.05 -8.7 24.0 -8.65 23.9 -8.6 23.85 -8.6 23.8 -8.55 23.65 -8.55 23.7 -8.65 23.85 -8.7 23.95 -8.7 M22.9 -9.5 L22.9 -9.45 22.85 -9.4 22.85 -9.5 22.85 -9.55 22.9 -9.55 22.9 -9.5 22.9 -9.5 M22.6 -8.8 L22.55 -8.75 22.55 -8.8 22.5 -8.85 22.55 -8.85 22.6 -8.9 22.65 -8.85 22.65 -8.8 22.6 -8.8 M22.55 -9.05 L22.6 -9.1 22.6 -9.1 22.65 -9.1 22.7 -9.1 22.7 -9.1 22.6 -8.95 22.55 -8.95 22.55 -9.05 M23.05 -9.05 L23.1 -9.05 23.1 -9.0 23.05 -8.95 23.05 -8.95 23.05 -9.05 M22.6 -7.9 L22.6 -7.9 22.5 -7.85 22.45 -7.85 22.45 -7.85 22.3 -7.85 22.3 -7.85 22.2 -7.85 22.2 -7.85 22.25 -7.85 22.35 -7.9 22.35 -7.9 22.45 -7.95 22.5 -7.95 22.5 -7.9 22.6 -7.9 M22.7 -8.2 L22.7 -8.2 22.7 -8.2 22.65 -8.15 22.6 -8.15 22.6 -8.15 Q22.55 -8.15 22.55 -8.2 L22.6 -8.2 22.6 -8.2 22.7 -8.25 22.7 -8.2 M22.45 -8.6 L22.5 -8.6 22.5 -8.55 22.5 -8.5 22.45 -8.45 22.4 -8.4 22.4 -8.4 22.4 -8.55 22.4 -8.55 22.45 -8.55 22.45 -8.6 M22.95 -8.05 L23.0 -8.15 23.15 -8.15 23.2 -8.15 23.25 -8.15 23.25 -8.15 23.2 -8.1 23.15 -8.05 23.0 -8.05 22.9 -8.05 22.9 -8.05 22.95 -8.05 M23.05 -8.35 L23.1 -8.35 23.2 -8.4 23.15 -8.4 23.2 -8.45 23.2 -8.45 23.25 -8.5 23.25 -8.5 23.25 -8.45 23.3 -8.45 23.35 -8.4 23.3 -8.4 23.3 -8.4 23.25 -8.4 23.25 -8.35 23.2 -8.3 23.1 -8.3 23.05 -8.35 M22.9 -8.8 L22.9 -8.85 22.95 -8.8 23.0 -8.7 22.95 -8.65 22.95 -8.6 22.9 -8.6 22.9 -8.75 22.85 -8.75 22.9 -8.8 22.9 -8.8 M22.9 -9.0 L22.9 -9.1 22.95 -9.1 23.0 -9.1 23.05 -9.1 23.0 -9.05 23.0 -9.0 22.95 -9.0 22.9 -9.0 M24.1 -8.4 L24.05 -8.45 24.0 -8.4 23.95 -8.4 23.95 -8.45 23.95 -8.45 24.0 -8.45 24.0 -8.5 Q24.0 -8.55 24.05 -8.6 L24.1 -8.6 24.1 -8.55 24.15 -8.5 24.2 -8.45 24.15 -8.4 24.1 -8.4 M23.5 -8.2 L23.55 -8.2 23.55 -8.1 23.6 -8.05 23.6 -8.0 23.55 -7.95 23.45 -7.95 Q23.4 -8.0 23.45 -8.05 L23.45 -8.1 23.5 -8.15 23.5 -8.2 M24.1 -7.45 L24.15 -7.45 24.2 -7.45 24.2 -7.45 24.15 -7.4 24.15 -7.4 24.1 -7.4 24.05 -7.4 24.05 -7.4 Q24.0 -7.45 24.05 -7.45 L24.1 -7.45 M24.25 -7.85 L24.3 -7.85 24.3 -7.85 24.35 -7.85 24.35 -7.8 24.3 -7.75 24.3 -7.75 24.25 -7.75 24.2 -7.7 24.15 -7.7 24.15 -7.7 24.25 -7.8 24.25 -7.85 M21.5 -8.7 L21.55 -8.65 21.5 -8.6 21.35 -8.65 21.35 -8.65 21.25 -8.75 21.25 -8.8 21.3 -8.75 21.35 -8.75 21.45 -8.75 21.5 -8.7 M22.25 -9.15 L22.25 -9.1 22.2 -9.05 22.15 -9.05 22.15 -9.1 22.15 -9.15 22.2 -9.15 22.2 -9.15 22.25 -9.15 22.25 -9.15 M20.9 -8.75 L20.9 -8.7 20.9 -8.7 20.95 -8.65 20.95 -8.6 20.9 -8.55 20.85 -8.55 20.85 -8.65 20.8 -8.65 20.8 -8.7 20.85 -8.75 20.9 -8.75 M21.0 -7.95 L21.05 -8.0 21.1 -8.0 21.1 -8.0 21.1 -7.9 21.0 -7.8 Q21.0 -7.75 20.95 -7.75 L20.95 -7.75 20.95 -7.85 21.0 -7.95 M20.4 -8.25 L20.4 -8.2 20.45 -8.15 20.45 -8.15 20.4 -8.15 20.3 -8.25 20.25 -8.25 20.25 -8.25 20.25 -8.3 20.3 -8.3 20.4 -8.25 M20.75 -8.2 L20.8 -8.25 20.8 -8.25 20.85 -8.25 20.85 -8.2 20.9 -8.2 20.85 -8.15 20.85 -8.15 20.75 -8.15 20.75 -8.2 M22.05 -5.3 L22.1 -5.35 22.2 -5.35 22.15 -5.5 22.15 -5.55 22.25 -5.5 22.25 -5.45 22.3 -5.35 22.3 -5.15 Q22.3 -5.1 22.25 -5.1 L22.25 -5.1 22.1 -5.2 Q22.05 -5.25 22.05 -5.3 M21.8 -5.9 L21.9 -5.9 21.95 -5.75 22.0 -5.7 21.95 -5.7 21.9 -5.65 21.85 -5.65 21.85 -5.7 21.8 -5.8 21.8 -5.9 M22.1 -5.95 L22.2 -5.95 22.3 -5.9 22.35 -5.95 22.4 -5.95 22.45 -5.9 22.4 -5.85 22.4 -5.8 22.35 -5.75 22.3 -5.65 22.2 -5.6 Q22.15 -5.55 22.1 -5.55 L22.1 -5.7 Q22.1 -5.8 22.15 -5.85 L22.2 -5.85 22.2 -5.85 22.1 -5.95 M21.2 -5.3 Q21.2 -5.4 21.25 -5.45 L21.3 -5.45 21.4 -5.45 21.45 -5.55 21.55 -5.55 21.55 -5.45 21.45 -5.35 21.4 -5.3 21.3 -5.2 21.2 -5.2 21.2 -5.3 M21.8 -5.3 Q21.75 -5.3 21.75 -5.3 L21.8 -5.35 21.8 -5.4 21.8 -5.4 21.85 -5.4 21.8 -5.3 21.8 -5.3 M23.6 -7.3 L23.55 -7.3 23.5 -7.4 23.5 -7.4 23.55 -7.35 23.65 -7.35 23.8 -7.3 23.8 -7.3 23.85 -7.25 23.85 -7.25 23.75 -7.25 23.65 -7.25 23.6 -7.3 M23.45 -6.15 L23.55 -6.2 23.7 -6.15 23.8 -6.15 23.8 -6.1 23.75 -6.1 23.7 -6.05 23.6 -6.1 23.55 -6.1 23.45 -6.15 M23.85 -6.35 L23.85 -6.4 23.85 -6.45 23.7 -6.5 23.65 -6.55 23.7 -6.6 23.8 -6.55 23.8 -6.55 23.95 -6.5 24.05 -6.5 24.15 -6.45 24.15 -6.45 24.2 -6.45 24.25 -6.45 24.3 -6.45 24.3 -6.4 24.4 -6.35 24.35 -6.35 24.3 -6.35 24.2 -6.35 24.2 -6.35 24.05 -6.35 23.85 -6.35 M23.95 -6.75 L23.9 -6.75 23.8 -6.75 23.85 -6.8 23.85 -6.8 23.95 -6.8 23.95 -6.8 24.0 -6.8 24.0 -6.75 23.95 -6.75 M24.6 -6.7 L24.7 -6.75 24.75 -6.75 24.8 -6.75 24.85 -6.7 24.85 -6.65 24.75 -6.65 24.65 -6.65 24.6 -6.65 24.6 -6.7 24.55 -6.7 24.6 -6.7 24.6 -6.7 M24.75 -6.95 L24.75 -6.85 24.7 -6.85 24.7 -6.8 24.7 -6.8 24.65 -6.8 24.6 -6.8 24.65 -6.85 24.6 -6.85 24.55 -6.85 24.55 -6.9 24.5 -6.9 24.55 -6.95 24.6 -6.95 24.6 -6.95 24.65 -7.0 24.65 -7.0 24.7 -7.0 24.8 -7.05 24.8 -7.05 24.85 -7.0 24.8 -7.0 24.75 -6.95 24.75 -6.95 M22.7 -6.3 L22.75 -6.25 22.85 -6.15 22.85 -6.05 22.8 -6.05 22.75 -6.05 22.75 -6.05 22.7 -6.15 22.7 -6.2 Q22.7 -6.25 22.7 -6.3 M23.4 -6.85 L23.45 -6.85 23.45 -6.8 23.45 -6.75 23.3 -6.7 23.3 -6.7 23.15 -6.7 23.2 -6.75 23.35 -6.85 23.4 -6.85 M22.7 -5.8 L22.75 -5.8 22.7 -5.7 22.65 -5.65 22.65 -5.75 22.65 -5.75 22.7 -5.8 22.7 -5.8 M22.55 -5.5 L22.55 -5.5 22.5 -5.55 22.55 -5.55 22.55 -5.55 22.6 -5.45 22.6 -5.4 22.55 -5.5 M22.4 -5.15 L22.45 -5.25 22.5 -5.25 22.5 -5.25 22.55 -5.15 22.5 -5.15 22.5 -5.1 22.45 -5.05 22.35 -5.05 22.4 -5.15 M22.6 -5.15 L22.6 -5.2 22.65 -5.25 22.7 -5.2 22.7 -5.15 22.6 -5.15 M23.0 -5.0 L22.95 -5.0 22.95 -5.05 23.05 -5.05 23.05 -5.0 23.0 -5.0 23.0 -5.0 M22.9 -4.95 L22.95 -4.95 23.0 -4.9 22.95 -4.85 22.95 -4.85 23.05 -4.75 23.0 -4.65 22.95 -4.65 Q22.9 -4.65 22.9 -4.7 L22.85 -4.75 22.9 -4.8 22.9 -4.85 22.85 -4.9 Q22.8 -4.95 22.8 -5.0 L22.8 -5.0 22.85 -5.05 22.85 -5.0 22.9 -4.95 M23.95 -5.85 L24.0 -5.85 24.0 -5.9 24.1 -5.8 24.15 -5.75 24.1 -5.75 24.05 -5.8 24.0 -5.85 23.95 -5.85 M23.85 -5.6 L23.85 -5.6 24.05 -5.6 24.1 -5.5 24.05 -5.5 24.0 -5.45 23.9 -5.5 23.9 -5.55 23.9 -5.35 23.85 -5.35 Q23.8 -5.4 23.7 -5.45 23.6 -5.5 23.6 -5.55 L23.65 -5.6 23.7 -5.65 23.65 -5.75 23.65 -5.8 23.7 -5.8 23.8 -5.7 23.85 -5.65 23.85 -5.6 M24.1 -5.7 Q24.1 -5.75 24.2 -5.75 L24.3 -5.7 24.3 -5.7 24.45 -5.7 24.45 -5.65 24.4 -5.6 24.3 -5.6 24.3 -5.6 24.25 -5.6 24.2 -5.65 24.1 -5.7 M23.75 -5.2 L23.75 -5.2 23.8 -5.25 23.8 -5.25 23.9 -5.15 23.9 -5.05 23.85 -5.05 23.75 -5.05 23.75 -5.2 M24.05 -5.1 L24.05 -5.05 24.05 -5.0 24.0 -5.0 23.95 -5.05 23.95 -5.1 24.0 -5.1 24.05 -5.1 24.05 -5.2 24.2 -5.15 24.25 -5.1 24.25 -5.1 24.3 -5.05 24.25 -5.1 24.25 -5.15 24.2 -5.2 Q24.15 -5.25 24.25 -5.3 L24.3 -5.25 24.35 -5.15 24.35 -5.1 24.4 -5.05 24.4 -5.0 24.35 -5.0 24.3 -5.0 24.25 -5.0 24.25 -5.0 Q24.15 -5.0 24.15 -5.0 L24.15 -5.0 24.1 -5.05 24.05 -5.1 M24.05 -4.95 L24.05 -4.95 24.15 -4.9 24.15 -4.9 24.15 -4.8 24.2 -4.75 24.1 -4.75 24.1 -4.75 24.05 -4.85 Q24.05 -4.9 24.05 -4.95 M20.1 -8.45 L20.1 -8.45 20.05 -8.45 20.0 -8.45 20.0 -8.55 20.05 -8.55 20.1 -8.55 20.1 -8.45 M23.95 -4.35 L24.0 -4.3 24.0 -4.3 23.9 -4.25 23.9 -4.2 23.8 -4.25 23.8 -4.4 23.8 -4.45 23.95 -4.35 M23.4 -4.6 L23.35 -4.6 23.25 -4.65 23.25 -4.7 23.2 -4.7 Q23.15 -4.8 23.15 -4.8 23.25 -4.85 23.3 -4.8 L23.35 -4.7 23.35 -4.7 23.45 -4.65 23.4 -4.6 M23.25 -4.5 L23.25 -4.5 23.3 -4.4 23.3 -4.35 23.2 -4.35 23.2 -4.45 23.15 -4.55 23.15 -4.55 23.25 -4.5 M21.8 -4.75 L21.75 -4.75 21.75 -4.75 21.7 -4.8 21.75 -4.85 21.8 -4.8 21.8 -4.75 M21.65 -4.85 L21.65 -4.75 21.65 -4.7 21.6 -4.7 21.5 -4.65 21.5 -4.75 21.55 -4.85 21.6 -4.85 21.6 -4.85 21.65 -4.85 M25.1 -8.4 L25.1 -8.4 25.15 -8.35 25.15 -8.35 25.1 -8.35 25.05 -8.3 Q25.0 -8.3 25.0 -8.35 L24.95 -8.35 25.0 -8.35 24.95 -8.35 24.9 -8.35 24.8 -8.35 24.95 -8.45 25.0 -8.55 25.05 -8.5 25.1 -8.5 25.15 -8.45 25.1 -8.4 M25.15 -8.05 L25.25 -8.15 25.35 -8.15 25.35 -8.15 25.4 -8.15 25.45 -8.1 25.4 -8.05 25.2 -8.05 25.15 -8.05 M25.0 -8.1 L25.0 -8.1 25.1 -8.2 25.15 -8.2 25.15 -8.2 25.2 -8.2 25.25 -8.25 25.2 -8.2 25.15 -8.1 25.1 -8.1 25.0 -8.1 25.0 -8.1 M24.7 -8.0 L24.7 -7.9 24.65 -7.9 24.6 -7.9 24.55 -7.85 24.45 -7.85 Q24.4 -7.9 24.45 -7.95 L24.55 -8.0 24.55 -8.0 24.65 -8.05 24.7 -8.05 24.7 -8.0 M24.95 -8.0 L25.0 -8.0 25.05 -8.0 25.05 -7.95 25.0 -7.95 24.9 -7.9 24.8 -7.9 24.8 -7.95 24.95 -8.0 M25.1 -7.8 L25.05 -7.8 25.05 -7.8 25.0 -7.75 24.95 -7.8 24.95 -7.8 Q24.9 -7.85 24.9 -7.85 L25.0 -7.85 25.0 -7.85 25.05 -7.85 25.1 -7.8 M24.4 -7.45 L24.5 -7.5 24.6 -7.5 24.6 -7.5 24.65 -7.5 24.65 -7.4 24.45 -7.4 24.4 -7.45 M24.3 -7.75 L24.3 -7.75 24.4 -7.8 24.4 -7.8 24.45 -7.8 24.45 -7.8 24.5 -7.75 24.55 -7.75 24.55 -7.75 24.65 -7.75 24.7 -7.7 24.7 -7.65 24.75 -7.65 24.7 -7.6 24.6 -7.6 24.6 -7.65 24.55 -7.65 24.45 -7.65 24.45 -7.65 24.45 -7.65 24.45 -7.7 24.4 -7.75 24.35 -7.75 24.3 -7.75 M25.15 -7.55 L25.2 -7.55 25.25 -7.55 25.25 -7.55 25.3 -7.55 25.25 -7.5 25.2 -7.5 25.15 -7.5 25.15 -7.5 25.1 -7.5 25.1 -7.5 25.15 -7.55 M26.0 -8.3 L25.95 -8.25 25.9 -8.25 25.85 -8.25 25.85 -8.25 25.9 -8.3 25.95 -8.3 25.95 -8.3 26.0 -8.3 26.0 -8.3 M25.45 -8.4 L25.5 -8.4 Q25.55 -8.35 25.55 -8.35 L25.6 -8.35 25.55 -8.3 25.5 -8.3 25.45 -8.3 25.4 -8.3 25.45 -8.35 25.45 -8.4 M25.65 -7.75 L25.65 -7.75 25.75 -7.7 25.75 -7.7 25.7 -7.65 25.65 -7.65 25.65 -7.7 25.6 -7.65 25.55 -7.65 25.45 -7.7 25.5 -7.75 25.55 -7.75 25.6 -7.7 25.6 -7.8 25.65 -7.75 M25.6 -7.85 L25.65 -7.85 25.65 -7.85 25.6 -7.8 25.5 -7.8 25.5 -7.8 25.6 -7.85 25.6 -7.85 M25.45 -7.55 L25.5 -7.6 25.55 -7.6 25.6 -7.55 25.6 -7.55 25.55 -7.55 25.5 -7.5 25.5 -7.5 25.45 -7.55 M26.05 -7.55 L26.1 -7.55 26.15 -7.55 26.2 -7.55 26.2 -7.55 26.25 -7.55 26.25 -7.5 26.1 -7.5 Q26.1 -7.5 26.05 -7.5 L26.05 -7.55 M25.9 -7.15 L26.0 -7.15 26.0 -7.1 25.9 -7.1 25.8 -7.1 25.75 -7.15 25.7 -7.15 Q25.6 -7.15 25.6 -7.2 L25.7 -7.25 25.85 -7.2 25.9 -7.15 M25.75 -7.4 L25.7 -7.4 25.65 -7.35 25.65 -7.3 25.6 -7.25 25.55 -7.2 25.5 -7.25 Q25.45 -7.3 25.55 -7.35 L25.55 -7.4 25.65 -7.4 25.7 -7.4 25.75 -7.4 M25.7 -7.0 L25.75 -6.95 25.75 -6.95 25.8 -6.95 25.75 -6.95 25.75 -6.95 25.65 -6.95 25.65 -6.95 25.6 -6.95 25.65 -6.95 25.7 -7.0 M25.45 -6.3 Q25.45 -6.35 25.55 -6.35 L25.65 -6.35 25.7 -6.35 25.8 -6.35 25.8 -6.3 Q25.75 -6.25 25.7 -6.25 L25.7 -6.25 25.65 -6.25 25.55 -6.25 25.45 -6.3 M25.75 -6.4 L25.75 -6.45 25.9 -6.4 25.95 -6.4 26.0 -6.4 26.0 -6.35 25.95 -6.3 25.95 -6.3 Q25.8 -6.35 25.75 -6.4 M26.1 -6.6 L26.05 -6.65 26.0 -6.65 25.95 -6.65 25.95 -6.7 26.05 -6.7 26.05 -6.7 26.1 -6.7 26.1 -6.6 M26.25 -6.4 L26.2 -6.45 26.4 -6.45 26.5 -6.45 26.5 -6.45 26.55 -6.4 26.55 -6.35 26.45 -6.35 26.3 -6.4 26.25 -6.4 M24.85 -7.3 L24.85 -7.3 24.8 -7.3 24.8 -7.3 24.75 -7.3 24.7 -7.3 24.65 -7.3 Q24.6 -7.3 24.55 -7.35 L24.6 -7.35 24.65 -7.35 24.7 -7.35 24.75 -7.4 24.75 -7.35 24.8 -7.35 24.85 -7.3 24.85 -7.3 M24.65 -7.15 L24.65 -7.15 24.75 -7.2 24.75 -7.2 24.8 -7.15 24.8 -7.15 24.75 -7.15 24.65 -7.15 24.65 -7.15 M24.5 -6.25 L24.45 -6.3 24.5 -6.3 24.55 -6.3 24.6 -6.25 24.6 -6.25 24.5 -6.25 24.5 -6.25 M24.7 -6.4 L24.65 -6.45 24.6 -6.45 Q24.5 -6.5 24.5 -6.55 L24.65 -6.55 24.75 -6.5 24.75 -6.5 24.85 -6.45 24.85 -6.45 24.9 -6.4 24.85 -6.35 24.8 -6.4 24.7 -6.4 M25.25 -6.75 L25.1 -6.75 25.05 -6.75 25.1 -6.8 25.15 -6.8 25.15 -6.8 25.2 -6.8 25.25 -6.8 25.25 -6.75 M25.05 -6.3 L25.05 -6.35 25.15 -6.3 25.2 -6.3 25.2 -6.3 25.25 -6.3 25.2 -6.25 25.2 -6.25 25.15 -6.25 25.1 -6.3 25.05 -6.3 M25.1 -6.0 L25.1 -6.0 25.1 -5.95 25.05 -5.9 24.9 -6.0 24.85 -6.05 25.0 -6.05 25.1 -6.0 M25.25 -6.15 L25.25 -6.15 25.25 -6.2 25.45 -6.2 25.5 -6.1 25.5 -6.1 25.45 -6.05 25.25 -6.15 M24.95 -5.65 L24.95 -5.65 24.9 -5.65 24.8 -5.7 24.8 -5.7 24.85 -5.7 24.9 -5.7 24.9 -5.7 25.05 -5.7 25.15 -5.65 25.15 -5.65 25.2 -5.6 25.25 -5.5 25.25 -5.45 25.3 -5.4 25.25 -5.35 25.2 -5.4 25.15 -5.5 25.1 -5.55 25.1 -5.55 25.05 -5.55 24.95 -5.6 24.95 -5.65 M24.7 -5.45 Q24.7 -5.4 24.65 -5.4 L24.65 -5.4 Q24.6 -5.4 24.6 -5.45 L24.55 -5.5 24.5 -5.5 24.5 -5.6 24.6 -5.55 24.65 -5.55 24.6 -5.5 24.6 -5.5 24.65 -5.5 24.65 -5.45 24.7 -5.45 24.7 -5.45 M24.55 -5.4 L24.6 -5.35 24.65 -5.35 24.65 -5.3 24.6 -5.25 24.6 -5.2 24.5 -5.3 24.5 -5.35 24.5 -5.4 24.4 -5.4 24.3 -5.5 24.3 -5.5 24.4 -5.5 24.4 -5.5 24.5 -5.45 24.5 -5.4 24.55 -5.4 24.55 -5.4 M24.85 -5.45 L24.85 -5.5 24.9 -5.5 24.9 -5.5 24.95 -5.4 24.95 -5.4 24.9 -5.4 24.85 -5.45 24.85 -5.45 M25.0 -5.1 L24.95 -5.1 24.85 -5.15 24.85 -5.2 24.85 -5.2 24.9 -5.2 24.9 -5.2 24.95 -5.2 25.0 -5.15 25.0 -5.1 M25.95 -6.05 L25.85 -6.1 Q25.75 -6.1 25.75 -6.15 L25.8 -6.15 25.95 -6.15 26.0 -6.1 26.0 -6.05 25.95 -6.05 M25.8 -6.0 L25.8 -6.0 25.75 -6.05 25.7 -6.05 25.7 -6.1 25.8 -6.05 25.85 -6.05 25.85 -6.05 25.8 -6.0 M25.4 -5.9 L25.4 -5.95 25.45 -5.95 25.5 -5.9 25.5 -5.9 25.45 -5.85 25.45 -5.85 25.4 -5.9 25.4 -5.9 M25.55 -5.75 L25.6 -5.75 25.6 -5.75 25.65 -5.75 25.65 -5.7 25.6 -5.7 25.55 -5.7 25.5 -5.75 25.5 -5.75 25.45 -5.75 25.5 -5.75 25.55 -5.75 M25.8 -5.6 L25.8 -5.6 25.85 -5.55 25.85 -5.55 25.9 -5.55 25.9 -5.5 25.85 -5.45 25.85 -5.45 25.7 -5.55 25.7 -5.6 25.75 -5.6 25.8 -5.6 M26.55 -6.1 L26.5 -6.1 26.45 -6.1 26.4 -6.1 26.4 -6.15 26.35 -6.15 26.4 -6.15 26.45 -6.15 26.45 -6.15 26.5 -6.1 26.5 -6.15 26.55 -6.1 26.55 -6.1 M24.85 -4.65 L24.8 -4.6 24.75 -4.6 24.7 -4.65 Q24.65 -4.7 24.65 -4.75 L24.65 -4.8 24.7 -4.85 24.8 -4.75 24.9 -4.7 24.85 -4.65" fill="#421818" fill-rule="evenodd" stroke="none"/>
    <path d="M21.1 -6.05 L21.1 -6.05 21.05 -6.05 21.05 -6.1 21.1 -6.15 21.1 -6.05 M20.3 -6.75 L20.25 -6.75 20.2 -6.75 20.4 -6.8 20.45 -6.8 20.45 -6.75 20.3 -6.75 M21.35 -7.5 L21.55 -7.5 21.6 -7.45 21.65 -7.4 21.65 -7.35 Q21.7 -7.3 21.75 -7.3 L21.95 -7.3 22.0 -7.25 22.05 -7.15 22.2 -7.15 22.25 -7.05 22.3 -7.05 22.35 -7.0 22.45 -6.95 22.55 -6.95 22.65 -6.85 22.65 -6.8 22.7 -6.8 22.7 -6.6 22.6 -6.6 Q22.55 -6.6 22.55 -6.7 L22.5 -6.8 22.5 -6.8 22.45 -6.8 Q22.4 -6.8 22.35 -6.8 L22.3 -6.85 22.05 -6.95 21.85 -6.9 Q21.75 -6.85 21.75 -6.8 L21.7 -6.7 21.7 -6.65 21.75 -6.55 21.7 -6.4 21.65 -6.3 21.55 -6.2 21.45 -6.15 21.35 -6.1 21.3 -6.1 21.25 -6.1 21.15 -6.1 21.1 -6.15 21.1 -6.2 Q21.2 -6.3 21.2 -6.4 L21.2 -6.4 21.15 -6.4 21.0 -6.45 20.9 -6.35 Q20.8 -6.3 20.75 -6.3 L20.75 -6.3 20.75 -6.35 20.8 -6.4 20.75 -6.45 20.7 -6.55 20.65 -6.6 20.6 -6.65 20.6 -6.65 20.65 -6.7 20.7 -6.65 20.8 -6.65 20.9 -6.7 21.0 -6.7 21.1 -6.65 21.3 -6.65 21.35 -6.65 21.35 -6.75 21.4 -6.85 Q21.4 -6.9 21.55 -6.95 21.65 -7.0 21.65 -7.05 L21.6 -7.2 21.35 -7.25 21.25 -7.3 21.1 -7.3 21.05 -7.35 21.0 -7.4 21.35 -7.5 M23.6 -7.3 L23.55 -7.3 23.45 -7.35 23.35 -7.35 23.3 -7.35 23.35 -7.4 23.5 -7.45 23.75 -7.4 24.0 -7.3 Q24.05 -7.3 24.05 -7.3 24.1 -7.25 24.15 -7.25 L24.25 -7.25 24.4 -7.2 24.45 -7.1 24.5 -7.1 24.5 -7.05 24.55 -7.0 24.6 -6.95 24.6 -6.95 24.6 -6.95 24.55 -6.95 24.5 -6.9 24.55 -6.9 24.55 -6.85 24.6 -6.85 24.65 -6.85 24.6 -6.8 24.65 -6.8 24.7 -6.8 24.7 -6.8 24.7 -6.85 24.75 -6.85 24.75 -6.95 24.8 -6.95 24.85 -6.9 24.85 -6.8 24.9 -6.7 24.9 -6.55 24.85 -6.5 24.8 -6.55 24.7 -6.65 24.65 -6.65 24.75 -6.65 24.85 -6.65 24.85 -6.7 24.8 -6.75 24.75 -6.75 24.7 -6.75 24.6 -6.7 24.55 -6.75 24.5 -6.8 24.45 -6.85 24.25 -6.9 24.05 -6.9 23.95 -6.8 23.95 -6.8 23.85 -6.8 23.85 -6.8 23.8 -6.75 23.9 -6.75 23.95 -6.75 23.9 -6.7 23.8 -6.6 23.8 -6.55 23.7 -6.6 23.65 -6.55 23.7 -6.5 23.85 -6.45 23.85 -6.4 23.85 -6.35 23.7 -6.25 23.55 -6.2 23.45 -6.15 23.45 -6.15 23.35 -6.15 23.35 -6.2 23.5 -6.35 23.55 -6.4 23.55 -6.4 23.65 -6.5 23.6 -6.55 23.6 -6.55 23.55 -6.5 23.55 -6.5 23.5 -6.45 23.5 -6.45 23.45 -6.5 23.3 -6.55 23.2 -6.5 23.15 -6.5 23.1 -6.45 23.1 -6.4 23.05 -6.35 Q23.0 -6.35 22.95 -6.35 L22.95 -6.55 22.9 -6.6 22.95 -6.65 22.95 -6.65 23.25 -6.65 23.5 -6.6 Q23.6 -6.6 23.6 -6.65 L23.65 -6.8 23.75 -6.95 23.85 -7.05 23.9 -7.1 23.85 -7.25 23.85 -7.25 23.8 -7.3 23.8 -7.3 23.65 -7.35 23.55 -7.35 23.5 -7.4 23.5 -7.4 23.55 -7.3 23.6 -7.3" fill="#2a2a27" fill-rule="evenodd" stroke="none"/>
  </g>
</svg>
