<?xml version="1.0" encoding="UTF-8" standalone="no"?>
<svg xmlns:xlink="http://www.w3.org/1999/xlink" height="3.35px" width="4.3px" xmlns="http://www.w3.org/2000/svg">
  <g transform="matrix(1.0, 0.0, 0.0, 1.0, -20.35, 9.35)">
    <path d="M23.1 -8.3 L23.05 -8.3 23.1 -8.35 23.1 -8.35 23.15 -8.35 23.15 -8.35 23.15 -8.3 23.1 -8.3 M22.7 -9.3 L22.65 -9.3 22.6 -9.3 22.65 -9.35 22.7 -9.35 22.75 -9.35 22.7 -9.3 22.7 -9.3 M23.7 -8.95 L23.7 -9.0 23.8 -9.0 23.85 -9.0 23.85 -9.0 23.9 -9.0 23.9 -8.95 23.85 -8.9 23.75 -8.9 23.75 -8.9 23.7 -8.95 M23.95 -7.6 L24.0 -7.6 24.05 -7.6 24.1 -7.6 24.05 -7.6 24.0 -7.55 Q24.0 -7.55 23.95 -7.6 L23.95 -7.6 M23.95 -7.8 L23.95 -7.7 23.85 -7.65 23.85 -7.7 23.9 -7.8 23.95 -7.8 23.95 -7.8 M23.9 -6.95 L23.85 -6.95 23.75 -6.9 Q23.7 -6.9 23.65 -6.95 L23.8 -7.0 23.85 -7.05 23.9 -7.05 23.9 -6.95 M23.95 -6.55 Q23.9 -6.55 23.9 -6.55 L23.85 -6.6 23.9 -6.65 23.95 -6.6 23.95 -6.55 M24.3 -6.35 L24.25 -6.4 24.25 -6.4 24.3 -6.4 24.3 -6.4 24.35 -6.45 24.5 -6.4 24.5 -6.4 24.45 -6.35 24.35 -6.35 24.3 -6.35 M24.45 -9.2 L24.45 -9.25 24.5 -9.25 24.5 -9.2 Q24.5 -9.2 24.45 -9.2 L24.45 -9.2 M23.6 -6.1 L23.7 -6.05 23.7 -6.0 23.6 -6.0 23.6 -6.0 23.55 -6.05 23.55 -6.05 23.6 -6.1" fill="#421818" fill-rule="evenodd" stroke="none"/>
    <path d="M22.65 -7.5 L22.8 -7.6 23.0 -7.65 23.25 -7.7 23.45 -7.65 23.5 -7.6 23.55 -7.55 23.7 -7.4 Q23.7 -7.3 23.6 -7.25 L23.45 -7.15 23.25 -7.05 23.2 -6.9 23.2 -6.85 23.35 -6.8 23.45 -6.7 23.45 -6.5 23.35 -6.35 Q23.25 -6.3 23.05 -6.3 L23.0 -6.3 22.95 -6.35 23.0 -6.5 22.95 -6.6 22.95 -6.65 23.0 -6.65 23.1 -6.65 23.15 -6.6 Q23.2 -6.6 23.2 -6.7 L23.1 -6.85 23.05 -6.95 Q23.05 -7.05 23.25 -7.15 23.5 -7.25 23.5 -7.35 L23.45 -7.4 23.3 -7.45 23.15 -7.4 23.0 -7.4 22.6 -7.4 22.6 -7.4 22.65 -7.5 M20.65 -7.55 L20.85 -7.6 21.05 -7.65 21.35 -7.55 21.4 -7.5 21.4 -7.4 21.35 -7.25 21.25 -7.15 21.1 -7.05 21.0 -6.95 21.0 -6.95 21.1 -6.85 21.15 -6.8 21.2 -6.6 Q21.2 -6.45 21.15 -6.4 21.05 -6.3 20.9 -6.3 L20.8 -6.3 20.8 -6.4 20.8 -6.5 20.75 -6.6 20.7 -6.65 20.75 -6.7 20.75 -6.7 20.9 -6.65 Q21.0 -6.6 21.0 -6.6 L21.05 -6.6 21.05 -6.65 20.95 -6.75 Q20.8 -6.85 20.8 -6.95 L20.9 -7.05 21.0 -7.15 21.1 -7.25 21.25 -7.35 21.2 -7.4 21.05 -7.4 21.05 -7.4 20.8 -7.4 20.55 -7.35 20.5 -7.35 20.45 -7.4 20.5 -7.5 Q20.6 -7.55 20.65 -7.55 M22.15 -7.2 L22.15 -7.2 22.3 -7.25 22.5 -7.2 22.55 -7.05 Q22.55 -6.95 22.5 -6.9 22.4 -6.85 22.3 -6.85 L22.25 -6.9 22.2 -6.95 22.25 -7.0 22.3 -7.1 22.2 -7.15 22.15 -7.2 M20.6 -6.55 L20.65 -6.4 20.6 -6.25 20.5 -6.2 20.45 -6.25 20.45 -6.3 20.5 -6.5 20.55 -6.55 20.55 -6.6 20.6 -6.55 M20.35 -6.75 Q20.35 -6.75 20.4 -6.75 L20.45 -6.7 20.45 -6.7 Q20.45 -6.65 20.4 -6.65 L20.35 -6.7 20.35 -6.75 M24.15 -7.15 L24.25 -7.2 24.3 -7.2 24.4 -7.25 24.45 -7.2 Q24.45 -7.2 24.5 -7.15 L24.55 -7.15 24.65 -7.0 24.6 -6.85 24.45 -6.85 24.35 -6.85 24.3 -6.9 24.35 -7.0 24.4 -7.05 24.4 -7.1 24.35 -7.1 24.3 -7.15 Q24.2 -7.1 24.15 -7.15 M22.75 -6.6 L22.75 -6.55 22.8 -6.55 22.85 -6.45 22.85 -6.4 22.75 -6.25 Q22.7 -6.15 22.6 -6.15 L22.6 -6.15 22.6 -6.25 22.65 -6.25 22.75 -6.4 22.7 -6.45 22.7 -6.5 22.75 -6.6 M22.6 -6.7 L22.65 -6.65 22.7 -6.65 22.65 -6.6 22.6 -6.6 Q22.6 -6.6 22.55 -6.65 L22.5 -6.75 22.6 -6.7" fill="#2a2a27" fill-rule="evenodd" stroke="none"/>
  </g>
</svg>
