<?xml version="1.0" encoding="UTF-8" standalone="no"?>
<svg xmlns:xlink="http://www.w3.org/1999/xlink" height="10.45px" width="4.25px" xmlns="http://www.w3.org/2000/svg">
  <g transform="matrix(1.0, 0.0, 0.0, 1.0, 2.25, 5.2)">
    <path d="M-1.35 -2.65 L-1.3 -2.9 -1.35 -2.7 -1.35 -2.65" fill="#4f4843" fill-rule="evenodd" stroke="none"/>
    <path d="M-0.2 -4.85 L-0.05 -4.95 Q0.1 -5.05 0.35 -5.05 L0.4 -5.1 0.5 -5.2 1.45 -4.9 1.45 -4.9 1.35 -4.85 Q1.25 -4.75 1.15 -4.75 1.0 -4.75 0.85 -4.85 L0.7 -4.95 0.15 -4.9 0.15 -4.9 0.1 -4.9 0.1 -4.9 -0.05 -4.85 Q-0.15 -4.8 -0.2 -4.85 M0.25 -3.55 L0.1 -4.0 0.0 -4.15 Q-0.1 -4.35 -0.25 -4.45 L-0.15 -4.5 -0.05 -4.55 0.2 -4.65 0.2 -4.65 0.55 -4.7 1.05 -4.6 Q1.2 -4.55 1.15 -4.35 L1.1 -4.1 1.1 -3.95 1.1 -3.7 Q1.05 -3.6 0.95 -3.55 L0.9 -3.55 0.9 -3.55 Q0.85 -3.6 0.8 -3.55 L0.45 -3.55 0.25 -3.55 M1.0 -2.55 L1.0 -2.5 Q0.95 -2.35 0.95 -2.2 L0.95 -2.2 0.55 -2.4 0.5 -2.4 0.25 -2.5 Q0.1 -2.55 -0.05 -2.65 L-0.15 -2.7 Q-0.2 -2.7 -0.25 -2.65 L-0.25 -2.6 -0.3 -2.5 -0.4 -2.35 -0.45 -2.3 -0.45 -2.35 -0.45 -2.4 -0.5 -2.55 -0.55 -2.6 Q-0.65 -2.75 -0.8 -2.9 L-0.85 -2.95 -1.0 -2.9 -1.05 -2.9 -1.1 -2.9 -0.95 -2.95 -0.95 -3.0 -0.9 -3.05 -0.85 -3.05 -0.75 -3.1 -0.7 -3.1 Q-0.45 -3.25 -0.2 -3.2 L0.0 -3.25 0.05 -3.25 0.1 -3.25 0.3 -3.25 0.35 -3.25 0.4 -3.25 0.75 -3.2 Q0.85 -3.2 0.85 -3.25 L0.85 -3.25 0.9 -3.35 0.9 -3.35 Q1.05 -3.35 1.05 -3.15 L0.95 -3.05 0.9 -3.05 0.9 -3.0 Q0.85 -2.95 0.9 -2.9 L0.95 -2.85 1.0 -2.8 1.0 -2.7 1.0 -2.55 M0.0 -3.6 L-0.2 -3.55 -0.3 -3.55 -0.45 -3.45 -0.55 -3.4 -0.6 -3.35 -0.65 -3.35 Q-0.65 -3.5 -0.8 -3.5 L-0.8 -3.65 -0.75 -3.85 -0.7 -4.0 -0.7 -4.1 -0.6 -4.15 Q-0.55 -4.2 -0.45 -4.1 L-0.25 -3.95 -0.15 -3.8 0.0 -3.6" fill="#351d1d" fill-rule="evenodd" stroke="none"/>
    <path d="M-0.2 -4.85 Q-0.15 -4.8 -0.05 -4.85 L0.1 -4.9 0.1 -4.9 0.15 -4.9 0.15 -4.9 0.7 -4.95 0.85 -4.85 Q1.0 -4.75 1.15 -4.75 1.25 -4.75 1.35 -4.85 L1.45 -4.9 1.65 -4.6 Q1.65 -4.5 1.8 -4.3 L1.95 -4.1 1.95 -4.1 1.9 -3.95 1.95 -3.9 1.9 -3.7 1.95 -3.45 1.9 -3.25 1.85 -2.6 1.75 -2.25 1.75 -2.05 Q1.7 -1.9 1.7 -1.7 L1.7 -1.3 1.7 -1.4 1.65 -1.5 1.45 -1.75 1.4 -1.8 1.35 -1.85 1.3 -1.85 0.95 -2.2 0.95 -2.2 Q0.95 -2.35 1.0 -2.5 L1.0 -2.55 1.25 -2.6 1.25 -2.55 1.35 -2.4 1.4 -2.4 1.5 -2.25 1.55 -2.25 Q1.55 -2.2 1.55 -2.2 1.7 -2.15 1.7 -2.3 L1.75 -2.45 1.75 -2.75 1.75 -3.05 1.75 -3.35 1.7 -3.45 1.6 -3.85 1.55 -4.0 1.55 -3.85 1.35 -3.7 1.25 -3.6 1.25 -3.7 Q1.25 -3.85 1.15 -3.95 L1.1 -3.95 1.1 -3.95 1.1 -4.1 1.15 -4.35 Q1.2 -4.55 1.05 -4.6 L0.55 -4.7 0.2 -4.65 0.2 -4.65 -0.05 -4.55 -0.15 -4.5 -0.25 -4.45 Q-0.1 -4.35 0.0 -4.15 L0.1 -4.0 0.25 -3.55 0.15 -3.55 0.05 -3.6 0.0 -3.6 -0.15 -3.8 -0.25 -3.95 -0.45 -4.1 Q-0.55 -4.2 -0.6 -4.15 L-0.7 -4.1 -0.7 -4.0 -0.75 -3.85 -0.75 -3.85 -0.8 -3.85 -0.8 -3.85 -0.9 -3.95 -0.85 -4.2 -0.8 -4.25 -0.75 -4.3 -0.5 -4.5 -0.4 -4.6 -0.25 -4.8 -0.2 -4.85 M-1.3 -2.9 L-1.25 -3.05 -1.2 -3.1 -1.1 -3.35 -1.1 -3.3 -1.05 -3.25 Q-1.05 -3.2 -1.0 -3.2 -0.85 -3.2 -0.8 -3.1 L-0.75 -3.1 -0.85 -3.05 -0.9 -3.05 -0.95 -3.0 -0.95 -2.95 -1.1 -2.9 -1.2 -2.8 -1.35 -2.7 -1.3 -2.9" fill="#703d3d" fill-rule="evenodd" stroke="none"/>
    <path d="M-1.1 -3.35 L-1.0 -3.55 -0.9 -3.95 -0.8 -3.85 -0.8 -3.85 -0.75 -3.85 -0.75 -3.85 -0.8 -3.65 -0.8 -3.5 Q-0.65 -3.5 -0.65 -3.35 L-0.6 -3.35 -0.55 -3.4 -0.45 -3.45 -0.3 -3.55 -0.2 -3.55 0.0 -3.6 0.05 -3.6 0.15 -3.55 0.25 -3.55 0.45 -3.55 0.8 -3.55 Q0.85 -3.6 0.9 -3.55 L0.9 -3.55 0.95 -3.55 Q1.05 -3.6 1.1 -3.7 L1.1 -3.95 1.1 -3.95 1.15 -3.95 Q1.25 -3.85 1.25 -3.7 L1.25 -3.6 1.35 -3.7 1.55 -3.85 1.55 -4.0 1.6 -3.85 1.7 -3.45 1.75 -3.35 Q1.65 -3.35 1.55 -3.4 L1.5 -3.45 1.35 -3.4 1.25 -3.4 1.0 -3.4 0.9 -3.35 0.9 -3.35 0.85 -3.25 0.85 -3.25 Q0.85 -3.2 0.75 -3.2 L0.4 -3.25 0.35 -3.25 0.3 -3.25 0.1 -3.25 0.05 -3.25 0.0 -3.25 -0.2 -3.2 Q-0.45 -3.25 -0.7 -3.1 L-0.75 -3.1 -0.8 -3.1 Q-0.85 -3.2 -1.0 -3.2 -1.05 -3.2 -1.05 -3.25 L-1.1 -3.3 -1.1 -3.35 M1.75 -2.75 L1.75 -2.45 1.7 -2.3 Q1.7 -2.15 1.55 -2.2 1.55 -2.2 1.55 -2.25 L1.5 -2.25 1.4 -2.4 1.35 -2.4 1.25 -2.55 1.25 -2.6 1.0 -2.55 1.0 -2.7 1.0 -2.8 0.95 -2.85 0.9 -2.9 Q0.85 -2.95 0.9 -3.0 L0.9 -3.05 0.95 -3.0 1.05 -2.9 1.1 -2.85 1.1 -2.8 1.15 -2.75 1.25 -2.8 1.35 -2.8 1.55 -2.85 1.75 -2.75" fill="#8c4c4c" fill-rule="evenodd" stroke="none"/>
    <path d="M1.75 -3.35 L1.75 -3.05 1.75 -2.75 1.55 -2.85 1.35 -2.8 1.25 -2.8 1.15 -2.75 1.1 -2.8 1.1 -2.85 1.05 -2.9 0.95 -3.0 0.9 -3.05 0.95 -3.05 1.05 -3.15 Q1.05 -3.35 0.9 -3.35 L1.0 -3.4 1.25 -3.4 1.35 -3.4 1.5 -3.45 1.55 -3.4 Q1.65 -3.35 1.75 -3.35" fill="#d28c8c" fill-rule="evenodd" stroke="none"/>
    <path d="M1.7 -1.3 L1.75 -1.3 1.65 -1.35 1.65 -1.45 1.6 -1.45 1.55 -1.55 1.35 -1.75 1.3 -1.8 1.05 -1.9 0.9 -2.0 Q0.75 -2.05 0.65 -2.15 L0.55 -2.2 0.5 -2.2 0.5 -2.2 0.45 -2.25 0.45 -2.3 Q0.35 -2.35 0.25 -2.35 L0.2 -2.35 0.15 -2.4 0.0 -2.45 -0.05 -2.45 -0.15 -2.4 -0.2 -2.4 -0.25 -2.35 Q-0.25 -2.35 -0.3 -2.35 L-0.35 -2.35 -0.4 -2.35 -0.4 -2.35 -0.3 -2.5 -0.25 -2.6 -0.25 -2.65 Q-0.2 -2.7 -0.15 -2.7 L-0.05 -2.65 Q0.1 -2.55 0.25 -2.5 L0.5 -2.4 0.55 -2.4 0.95 -2.2 1.3 -1.85 1.35 -1.85 1.4 -1.8 1.45 -1.75 1.65 -1.5 1.7 -1.4 1.7 -1.3 M1.85 -1.15 L1.9 -1.05 1.9 -1.0 1.85 -1.1 1.85 -1.15 M1.6 -0.1 L1.6 -0.05 1.55 0.1 1.5 0.15 1.45 0.1 1.4 0.1 1.35 0.05 1.3 0.0 1.3 -0.05 1.25 -0.05 1.2 -0.15 1.2 -0.15 Q1.15 -0.2 1.1 -0.25 L1.05 -0.3 0.95 -0.4 0.95 -0.4 0.75 -0.5 0.55 -0.55 0.45 -0.55 0.45 -0.6 Q0.35 -0.6 0.35 -0.65 L0.25 -0.65 0.2 -0.65 -0.1 -0.75 -0.15 -0.75 -0.3 -0.8 -0.35 -0.8 -0.4 -0.8 -0.55 -0.85 -0.55 -0.8 -0.75 -0.8 -0.85 -0.85 -0.9 -0.85 -1.0 -0.9 -1.05 -0.95 -1.1 -0.95 -1.15 -0.95 -1.2 -1.0 -1.25 -1.0 -1.35 -1.05 -1.4 -1.05 -1.45 -1.05 -1.55 -1.0 -1.55 -1.0 -1.6 -1.0 -1.65 -1.0 -1.7 -1.0 -1.75 -1.0 -1.8 -1.0 -1.85 -1.0 -1.85 -0.95 -1.95 -0.95 -2.1 -0.9 -2.15 -0.9 -2.2 -0.9 -2.2 -0.95 -2.1 -1.0 -2.05 -1.0 -2.0 -1.0 -1.85 -1.1 -1.8 -1.1 -1.65 -1.15 -1.6 -1.15 -1.55 -1.15 -1.5 -1.15 -1.4 -1.1 -1.3 -1.1 Q-1.25 -1.05 -1.15 -1.05 L-1.1 -1.05 -1.0 -1.0 -1.0 -1.0 -1.0 -1.0 -0.8 -0.95 -0.7 -0.95 -0.65 -0.95 -0.55 -0.9 -0.4 -0.9 -0.35 -0.9 -0.15 -0.85 -0.1 -0.85 -0.05 -0.8 0.05 -0.8 0.2 -0.75 0.3 -0.75 0.5 -0.75 0.5 -0.75 0.65 -0.7 0.7 -0.65 0.8 -0.65 Q0.85 -0.5 1.0 -0.5 L1.1 -0.45 1.1 -0.45 1.15 -0.4 Q1.2 -0.35 1.25 -0.3 L1.3 -0.3 1.35 -0.3 1.45 -0.25 1.45 -0.2 1.6 -0.1 1.6 -0.1 M0.85 1.6 L0.85 1.7 0.8 1.7 0.7 1.7 0.65 1.7 0.6 1.65 0.55 1.6 0.5 1.6 0.45 1.6 0.15 1.45 0.1 1.45 -0.2 1.4 -0.4 1.35 -0.45 1.35 -0.7 1.25 -0.75 1.2 -1.05 1.15 -1.1 1.1 -1.2 1.1 -1.4 1.1 -1.5 1.05 -1.55 1.05 -1.8 1.0 -1.85 0.95 -1.9 0.95 -1.95 0.95 -2.1 0.9 -2.1 0.8 -1.95 0.8 -1.9 0.8 -1.85 0.8 -1.8 0.8 -1.6 0.85 -1.55 0.9 -1.5 0.9 -1.15 0.95 -1.1 0.95 -0.75 1.05 -0.7 1.1 -0.65 1.1 -0.6 1.1 -0.3 1.2 -0.3 1.2 -0.2 1.25 -0.15 1.25 -0.1 1.25 -0.05 1.3 0.05 1.3 0.15 1.35 0.45 1.45 0.5 1.45 0.55 1.45 0.6 1.5 0.7 1.5 0.7 1.55 0.8 1.6 0.85 1.6 M0.45 3.1 L0.45 3.15 0.4 3.25 0.4 3.3 0.35 3.25 0.3 3.25 0.2 3.25 0.1 3.25 -0.05 3.25 -0.2 3.25 -0.35 3.2 -0.45 3.2 -0.6 3.2 -0.6 3.2 -0.75 3.2 -0.9 3.15 -0.95 3.15 -1.15 3.05 -1.25 3.05 -1.25 3.05 -1.35 3.0 -1.4 3.0 -1.45 3.0 -1.7 2.9 -1.7 2.9 -1.9 2.9 -1.9 2.9 -1.9 2.8 -1.85 2.8 -1.8 2.8 -1.75 2.85 -1.7 2.85 -1.7 2.85 -1.65 2.9 -1.45 2.95 -1.45 2.95 -1.4 2.95 -1.2 3.0 -1.15 3.0 -1.1 3.0 -1.0 3.05 -0.95 3.05 -0.9 3.1 -0.8 3.1 -0.7 3.1 -0.65 3.05 -0.6 3.05 -0.6 3.05 -0.3 3.1 -0.2 3.1 -0.15 3.1 0.15 3.15 0.2 3.15 0.25 3.15 0.45 3.1 M-2.0 -2.0 L-2.0 -2.05 Q-2.0 -2.15 -1.9 -2.2 L-1.85 -2.25 -1.75 -2.3 -1.6 -2.45 -1.6 -2.45 -1.45 -2.6 -1.45 -2.65 -1.4 -2.65 -1.35 -2.65 -1.35 -2.7 -1.2 -2.8 -1.1 -2.9 -1.05 -2.9 -1.0 -2.9 -0.85 -2.95 -0.8 -2.9 Q-0.65 -2.75 -0.55 -2.6 L-0.5 -2.55 -0.45 -2.4 -0.5 -2.45 -0.6 -2.6 -0.6 -2.6 -0.65 -2.6 -0.65 -2.65 Q-0.7 -2.75 -0.8 -2.75 L-0.95 -2.7 -0.95 -2.7 -1.05 -2.65 -1.05 -2.6 -1.15 -2.55 -1.3 -2.4 -1.3 -2.35 -1.4 -2.35 -1.45 -2.35 -1.5 -2.3 -1.55 -2.3 -1.6 -2.25 Q-1.65 -2.25 -1.7 -2.25 L-1.75 -2.25 -1.9 -2.1 -1.9 -2.05 -2.0 -2.05 -2.0 -2.0" fill="#b14343" fill-rule="evenodd" stroke="none"/>
    <path d="M1.75 -1.3 L1.75 -1.25 1.85 -1.15 1.85 -1.15 1.85 -1.1 1.9 -1.0 1.9 -1.0 1.85 -0.75 1.85 -0.55 1.8 -0.55 1.75 -0.6 Q1.7 -0.65 1.75 -0.7 L1.7 -0.75 1.7 -0.75 1.6 -0.8 1.6 -0.8 1.55 -0.8 1.55 -0.8 1.4 -0.95 1.4 -1.0 1.15 -1.15 1.1 -1.2 1.05 -1.25 0.95 -1.3 0.7 -1.5 0.65 -1.5 0.6 -1.5 Q0.5 -1.55 0.45 -1.6 L0.4 -1.6 -0.05 -1.75 -0.05 -1.85 0.05 -1.95 0.05 -2.0 0.1 -2.0 0.1 -2.1 0.15 -2.1 Q0.2 -2.15 0.2 -2.2 L0.2 -2.25 0.15 -2.35 0.15 -2.4 0.2 -2.35 0.25 -2.35 Q0.35 -2.35 0.45 -2.3 L0.45 -2.25 0.5 -2.2 0.5 -2.2 0.55 -2.2 0.65 -2.15 Q0.75 -2.05 0.9 -2.0 L1.05 -1.9 1.3 -1.8 1.35 -1.75 1.55 -1.55 1.6 -1.45 1.65 -1.45 1.65 -1.35 1.75 -1.3 M1.5 0.15 L1.45 0.25 1.4 0.3 1.4 0.35 1.3 0.45 1.25 0.5 Q1.1 0.65 0.95 0.85 L0.95 0.9 0.95 0.85 0.9 0.85 0.85 0.75 0.8 0.75 0.75 0.7 0.65 0.65 0.6 0.65 0.55 0.65 0.35 0.6 0.3 0.6 0.3 0.55 0.15 0.5 0.05 0.5 0.0 0.5 -0.15 0.45 -0.2 0.4 -0.25 0.4 -0.25 0.4 -0.2 0.3 -0.2 0.15 -0.1 -0.15 Q-0.1 -0.25 -0.1 -0.4 -0.05 -0.5 0.05 -0.5 L0.05 -0.5 0.2 -0.55 0.25 -0.65 0.25 -0.65 0.35 -0.65 Q0.35 -0.6 0.45 -0.6 L0.45 -0.55 0.55 -0.55 0.75 -0.5 0.95 -0.4 0.95 -0.4 1.05 -0.3 1.1 -0.25 Q1.15 -0.2 1.2 -0.15 L1.2 -0.15 1.25 -0.05 1.3 -0.05 1.3 0.0 1.35 0.05 1.4 0.1 1.45 0.1 1.5 0.15 M0.85 1.7 L0.85 1.8 Q0.75 1.9 0.7 2.05 L0.7 2.1 0.65 2.15 0.65 2.2 0.6 2.3 0.6 2.35 0.55 2.35 0.4 2.35 0.3 2.35 0.25 2.35 -0.1 2.25 -0.1 2.25 -0.15 2.25 -0.2 2.25 -0.5 2.2 -0.6 2.2 -0.5 2.0 Q-0.45 1.9 -0.45 1.75 L-0.4 1.6 -0.35 1.6 -0.2 1.4 -0.2 1.4 0.1 1.45 0.15 1.45 0.45 1.6 0.5 1.6 0.55 1.6 0.6 1.65 0.65 1.7 0.7 1.7 0.8 1.7 0.85 1.7 M0.4 3.3 L0.3 3.6 0.25 3.8 Q0.2 3.95 0.2 4.1 L0.0 4.1 0.0 4.1 -0.1 4.1 -0.2 4.15 -0.25 4.15 -0.3 4.15 -0.55 4.05 -0.6 4.05 -0.7 4.05 -0.7 3.95 -0.65 3.8 -0.65 3.55 -0.6 3.2 -0.6 3.2 -0.45 3.2 -0.35 3.2 -0.2 3.25 -0.05 3.25 0.1 3.25 0.2 3.25 0.3 3.25 0.35 3.25 0.4 3.3 M-1.9 3.75 L-1.9 3.45 -1.9 2.9 -1.9 2.9 -1.7 2.9 -1.7 2.9 -1.45 3.0 -1.4 3.0 -1.35 3.0 -1.25 3.05 -1.25 3.05 -1.15 3.05 -1.15 3.2 -1.2 3.45 -1.15 3.75 -1.15 4.05 -1.35 3.95 -1.4 3.95 -1.55 3.9 Q-1.6 3.9 -1.65 3.85 L-1.65 3.8 -1.8 3.8 -1.8 3.75 -1.9 3.75 M-2.0 1.7 L-2.0 1.6 -2.0 1.45 Q-2.0 1.3 -2.05 1.25 L-2.05 1.1 -2.1 0.9 -1.95 0.95 -1.9 0.95 -1.85 0.95 -1.8 1.0 -1.55 1.05 -1.5 1.05 -1.4 1.1 -1.2 1.1 -1.15 1.4 -1.15 1.55 -1.1 1.6 -1.1 1.65 -1.15 1.95 -1.15 2.05 -1.45 1.95 -1.55 1.95 -1.6 1.95 -1.65 1.9 -1.75 1.85 -1.8 1.85 -1.85 1.8 -2.0 1.7 M-2.15 0.0 L-2.15 -0.15 -2.15 -0.2 -2.15 -0.45 -2.15 -0.7 -2.15 -0.75 -2.2 -0.85 -2.2 -0.9 -2.15 -0.9 -2.1 -0.9 -1.95 -0.95 -1.85 -0.95 -1.85 -1.0 -1.8 -1.0 -1.75 -1.0 -1.7 -1.0 -1.65 -1.0 -1.6 -1.0 -1.55 -1.0 -1.55 -1.0 -1.45 -1.05 -1.4 -1.05 -1.35 -1.05 -1.25 -1.0 -1.2 -1.0 -1.15 -0.95 -1.1 -0.95 -1.05 -0.95 -1.0 -0.9 -1.0 -0.85 -0.95 -0.8 Q-0.9 -0.7 -0.8 -0.7 L-0.75 -0.7 -0.7 -0.65 -0.65 -0.65 Q-0.7 -0.55 -0.75 -0.55 L-0.8 -0.55 -0.85 -0.5 -0.85 -0.5 Q-0.9 -0.4 -0.85 -0.3 L-0.85 -0.25 -0.8 -0.1 -0.8 0.05 -0.8 0.25 -0.9 0.2 -1.2 0.15 -1.2 0.15 -1.25 0.15 -1.3 0.1 -1.4 0.1 -1.55 0.05 -1.7 0.05 -1.85 0.05 -1.85 0.05 -2.15 0.0 M-2.05 -1.7 L-2.0 -1.9 -2.0 -2.0 -2.0 -2.05 -1.9 -2.05 -1.9 -2.1 -1.75 -2.25 -1.7 -2.25 Q-1.65 -2.25 -1.6 -2.25 L-1.55 -2.3 -1.5 -2.3 -1.45 -2.35 -1.4 -2.35 -1.3 -2.35 -1.3 -2.4 -1.15 -2.55 -1.05 -2.6 -1.05 -2.65 -1.05 -2.6 -0.95 -2.4 -0.95 -2.35 Q-0.9 -2.3 -0.95 -2.25 L-0.95 -2.1 -1.0 -2.0 -1.0 -1.95 -1.0 -1.95 -1.05 -1.95 -1.1 -1.95 -1.35 -1.9 -1.35 -1.9 -1.4 -1.9 -1.6 -1.85 -1.65 -1.85 -1.65 -1.85 Q-1.85 -1.75 -2.0 -1.7 L-2.05 -1.7" fill="#792e2e" fill-rule="evenodd" stroke="none"/>
    <path d="M-0.45 -2.4 L-0.45 -2.35 -0.45 -2.3 -0.4 -2.35 -0.4 -2.35 -0.35 -2.35 -0.3 -2.35 Q-0.25 -2.35 -0.25 -2.35 L-0.2 -2.4 -0.15 -2.4 -0.05 -2.45 0.0 -2.45 0.15 -2.4 0.15 -2.35 0.2 -2.25 0.2 -2.2 Q0.2 -2.15 0.15 -2.1 L0.1 -2.1 0.1 -2.0 0.05 -2.0 0.05 -1.95 -0.05 -1.85 -0.05 -1.75 -0.25 -1.85 -0.3 -1.85 -0.35 -1.9 -0.6 -2.0 -0.85 -2.0 -0.9 -2.0 -0.9 -1.95 -0.95 -1.95 -1.0 -1.95 -1.0 -2.0 -0.95 -2.1 -0.95 -2.25 Q-0.9 -2.3 -0.95 -2.35 L-0.95 -2.4 -1.05 -2.6 -1.05 -2.65 -0.95 -2.7 -0.95 -2.7 -0.8 -2.75 Q-0.7 -2.75 -0.65 -2.65 L-0.65 -2.6 -0.6 -2.6 -0.6 -2.6 -0.5 -2.45 -0.45 -2.4 M-1.0 -0.9 L-0.9 -0.85 -0.85 -0.85 -0.75 -0.8 -0.55 -0.8 -0.55 -0.85 -0.4 -0.8 -0.35 -0.8 -0.3 -0.8 -0.15 -0.75 -0.1 -0.75 0.2 -0.65 0.25 -0.65 0.25 -0.65 0.2 -0.55 0.05 -0.5 0.05 -0.5 Q-0.05 -0.5 -0.1 -0.4 -0.1 -0.25 -0.1 -0.15 L-0.2 0.15 -0.2 0.3 -0.25 0.4 -0.25 0.4 -0.35 0.4 -0.6 0.3 -0.65 0.3 -0.7 0.25 -0.8 0.25 -0.8 0.05 -0.8 -0.1 -0.85 -0.25 -0.85 -0.3 Q-0.9 -0.4 -0.85 -0.5 L-0.85 -0.5 -0.8 -0.55 -0.75 -0.55 Q-0.7 -0.55 -0.65 -0.65 L-0.7 -0.65 -0.75 -0.7 -0.8 -0.7 Q-0.9 -0.7 -0.95 -0.8 L-1.0 -0.85 -1.0 -0.9 M-0.6 2.2 L-0.7 2.2 -0.75 2.2 -0.95 2.1 -1.0 2.1 -1.15 2.05 -1.15 1.95 -1.1 1.65 -1.1 1.6 -1.15 1.55 -1.15 1.4 -1.2 1.1 -1.1 1.1 -1.05 1.15 -0.75 1.2 -0.7 1.25 -0.45 1.35 -0.4 1.35 -0.2 1.4 -0.2 1.4 -0.35 1.6 -0.4 1.6 -0.45 1.75 Q-0.45 1.9 -0.5 2.0 L-0.6 2.2 M-0.7 4.05 L-0.75 4.05 -0.8 4.05 -0.8 4.05 -1.15 4.05 -1.15 3.75 -1.2 3.45 -1.15 3.2 -1.15 3.05 -0.95 3.15 -0.9 3.15 -0.75 3.2 -0.6 3.2 -0.65 3.55 -0.65 3.8 -0.7 3.95 -0.7 4.05" fill="#431919" fill-rule="evenodd" stroke="none"/>
    <path d="M1.85 -0.55 L1.75 -0.4 1.7 -0.45 1.7 -0.5 1.6 -0.6 1.5 -0.7 1.4 -0.75 1.35 -0.8 1.3 -0.85 1.25 -0.9 1.2 -0.95 1.0 -1.05 0.95 -1.1 0.9 -1.15 0.8 -1.25 0.7 -1.3 0.6 -1.3 0.55 -1.3 0.5 -1.35 0.45 -1.35 0.35 -1.35 0.3 -1.35 0.15 -1.35 0.1 -1.35 0.1 -1.3 0.05 -1.3 -0.1 -1.35 -0.15 -1.3 -0.25 -1.35 -0.3 -1.35 -0.35 -1.35 Q-0.4 -1.4 -0.4 -1.5 L-0.45 -1.55 -0.55 -1.6 -0.65 -1.7 -0.75 -1.75 -0.75 -1.75 -0.95 -1.85 -1.0 -1.9 -1.0 -1.9 -1.05 -1.9 -1.1 -1.95 -1.05 -1.95 -1.0 -1.95 -1.0 -1.95 -0.95 -1.95 -0.9 -1.95 -0.9 -2.0 -0.85 -2.0 -0.6 -2.0 -0.35 -1.9 -0.3 -1.85 -0.25 -1.85 -0.05 -1.75 0.4 -1.6 0.45 -1.6 Q0.5 -1.55 0.6 -1.5 L0.65 -1.5 0.7 -1.5 0.95 -1.3 1.05 -1.25 1.1 -1.2 1.15 -1.15 1.4 -1.0 1.4 -0.95 1.55 -0.8 1.55 -0.8 1.6 -0.8 1.6 -0.8 1.7 -0.75 1.7 -0.75 1.75 -0.7 Q1.7 -0.65 1.75 -0.6 L1.8 -0.55 1.85 -0.55 M0.95 0.9 L0.95 0.95 Q0.9 1.0 0.85 0.95 L0.8 0.9 0.75 0.95 0.75 1.0 0.7 1.0 Q0.6 1.05 0.55 1.1 L0.55 1.2 0.55 1.3 0.5 1.35 0.45 1.4 0.45 1.45 0.15 1.35 0.15 1.2 0.15 1.05 0.15 0.9 0.15 0.85 0.2 0.75 0.2 0.7 0.15 0.6 0.1 0.6 0.05 0.6 0.0 0.6 -0.2 0.55 -0.3 0.55 -0.4 0.5 -0.4 0.5 -0.6 0.45 -0.6 0.45 -0.65 0.45 -0.7 0.45 -0.75 0.45 -0.75 0.45 -0.9 0.4 -0.95 0.4 Q-1.0 0.35 -1.05 0.3 L-1.1 0.3 -1.15 0.3 -1.2 0.25 -1.25 0.25 -1.3 0.25 -1.85 0.15 -1.85 0.15 -1.95 0.1 -2.0 0.1 -2.15 0.05 -2.15 0.0 -1.85 0.05 -1.85 0.05 -1.7 0.05 -1.55 0.05 -1.4 0.1 -1.3 0.1 -1.25 0.15 -1.2 0.15 -1.2 0.15 -0.9 0.2 -0.8 0.25 -0.7 0.25 -0.65 0.3 -0.6 0.3 -0.35 0.4 -0.25 0.4 -0.2 0.4 -0.15 0.45 0.0 0.5 0.05 0.5 0.15 0.5 0.3 0.55 0.3 0.6 0.35 0.6 0.55 0.65 0.6 0.65 0.65 0.65 0.75 0.7 0.8 0.75 0.85 0.75 0.9 0.85 0.95 0.85 0.95 0.9 M0.6 2.35 L0.6 2.4 0.5 2.4 0.4 2.4 0.35 2.4 0.3 2.45 Q0.3 2.45 0.25 2.45 L0.2 2.45 Q0.15 2.45 0.1 2.45 L0.05 2.45 0.0 2.45 -0.05 2.45 -0.15 2.5 -0.3 2.45 -0.35 2.4 -0.4 2.4 -0.5 2.4 -0.55 2.45 -0.65 2.45 -0.7 2.45 -0.7 2.45 -0.85 2.45 -1.0 2.45 -1.05 2.45 -1.15 2.35 -1.2 2.35 -1.25 2.3 -1.3 2.25 -1.35 2.25 -1.5 2.2 -1.7 2.2 -1.75 2.2 -1.75 2.15 -1.8 2.1 -1.85 2.05 -1.95 2.0 -1.95 1.95 -2.0 1.95 -2.0 1.7 -1.85 1.8 -1.8 1.85 -1.75 1.85 -1.65 1.9 -1.6 1.95 -1.55 1.95 -1.45 1.95 -1.15 2.05 -1.0 2.1 -0.95 2.1 -0.75 2.2 -0.7 2.2 -0.6 2.2 -0.5 2.2 -0.2 2.25 -0.15 2.25 -0.1 2.25 -0.1 2.25 0.25 2.35 0.3 2.35 0.4 2.35 0.55 2.35 0.6 2.35 M0.2 4.1 L0.15 4.15 0.1 4.25 0.0 4.25 -0.05 4.25 -0.1 4.25 -0.15 4.25 -0.25 4.2 -0.3 4.25 -0.35 4.25 -0.4 4.3 -0.5 4.35 -0.55 4.35 -0.8 4.3 -0.85 4.3 -1.0 4.3 -1.05 4.25 -1.4 4.25 -1.45 4.2 -1.45 4.2 -1.5 4.15 -1.7 4.05 -1.8 4.0 -1.85 4.0 -1.95 3.95 -1.9 3.75 -1.8 3.75 -1.8 3.8 -1.65 3.8 -1.65 3.85 Q-1.6 3.9 -1.55 3.9 L-1.4 3.95 -1.35 3.95 -1.15 4.05 -0.8 4.05 -0.8 4.05 -0.75 4.05 -0.7 4.05 -0.6 4.05 -0.55 4.05 -0.3 4.15 -0.25 4.15 -0.2 4.15 -0.1 4.1 0.0 4.1 0.0 4.1 0.2 4.1" fill="#312210" fill-rule="evenodd" stroke="none"/>
    <path d="M1.75 -0.4 L1.75 -0.35 1.65 -0.25 1.65 -0.2 1.6 -0.1 1.6 -0.1 1.6 -0.1 1.45 -0.2 1.45 -0.25 1.35 -0.3 1.3 -0.3 1.3 -0.35 1.35 -0.4 Q1.4 -0.5 1.35 -0.55 L1.35 -0.6 Q1.3 -0.6 1.3 -0.65 L1.4 -0.75 1.3 -0.8 1.25 -0.8 1.2 -0.85 1.05 -0.9 1.0 -0.9 0.85 -0.95 0.8 -1.0 Q0.75 -1.1 0.65 -1.1 L0.55 -1.1 0.5 -1.1 0.45 -1.1 0.25 -1.1 0.25 -1.1 0.15 -1.1 0.1 -1.1 0.05 -1.05 Q0.05 -0.95 0.0 -0.95 L-0.05 -0.95 -0.15 -0.85 -0.35 -0.9 -0.4 -0.9 -0.55 -0.9 -0.65 -0.95 -0.7 -0.95 -0.8 -0.95 -1.0 -1.0 -1.0 -1.0 -1.0 -1.15 -0.9 -1.25 -1.0 -1.35 -1.0 -1.35 -0.95 -1.4 Q-0.9 -1.5 -1.0 -1.5 L-1.05 -1.5 -1.05 -1.65 -1.05 -1.65 -1.1 -1.65 -1.25 -1.65 -1.25 -1.65 -1.3 -1.65 -1.4 -1.65 -1.45 -1.7 -1.5 -1.7 -1.55 -1.7 -1.6 -1.65 Q-1.65 -1.65 -1.65 -1.65 L-1.7 -1.65 -1.75 -1.6 -1.8 -1.6 -1.95 -1.55 -2.1 -1.55 -2.05 -1.7 -2.0 -1.7 Q-1.85 -1.75 -1.65 -1.85 L-1.65 -1.85 -1.6 -1.85 -1.4 -1.9 -1.35 -1.9 -1.35 -1.9 -1.1 -1.95 -1.05 -1.9 -1.0 -1.9 -1.0 -1.9 -0.95 -1.85 -0.75 -1.75 -0.75 -1.75 -0.65 -1.7 -0.55 -1.6 -0.45 -1.55 -0.4 -1.5 Q-0.4 -1.4 -0.35 -1.35 L-0.3 -1.35 -0.25 -1.35 -0.15 -1.3 -0.1 -1.35 0.05 -1.3 0.1 -1.3 0.1 -1.35 0.15 -1.35 0.3 -1.35 0.35 -1.35 0.45 -1.35 0.5 -1.35 0.55 -1.3 0.6 -1.3 0.7 -1.3 0.8 -1.25 0.9 -1.15 0.95 -1.1 1.0 -1.05 1.2 -0.95 1.25 -0.9 1.3 -0.85 1.35 -0.8 1.4 -0.75 1.5 -0.7 1.6 -0.6 1.7 -0.5 1.7 -0.45 1.75 -0.4 M0.95 0.95 L0.95 1.1 0.95 1.2 0.85 1.3 0.8 1.35 Q0.7 1.35 0.7 1.45 L0.7 1.5 0.6 1.5 0.55 1.45 0.5 1.45 0.45 1.45 0.45 1.4 0.5 1.35 0.55 1.3 0.55 1.2 0.55 1.1 Q0.6 1.05 0.7 1.0 L0.75 1.0 0.75 0.95 0.8 0.9 0.85 0.95 Q0.9 1.0 0.95 0.95 M0.6 2.4 L0.55 2.55 0.45 2.55 0.4 2.55 0.35 2.55 0.3 2.55 0.25 2.6 Q0.2 2.65 0.15 2.6 L0.1 2.6 0.05 2.6 0.0 2.6 -0.1 2.7 -0.15 2.7 -0.3 2.7 -0.35 2.75 Q-0.4 2.8 -0.45 2.8 L-0.5 2.75 -0.55 2.75 -0.65 2.75 -0.85 2.75 -0.9 2.75 -1.0 2.7 Q-1.05 2.65 -1.1 2.65 L-1.2 2.65 -1.35 2.65 -1.4 2.6 -1.45 2.6 -1.55 2.55 -1.55 2.5 -1.65 2.45 -1.65 2.5 -1.7 2.5 -1.75 2.5 -1.85 2.45 -1.95 2.45 -1.9 2.35 -1.9 2.3 -1.95 2.0 -1.85 2.05 -1.8 2.1 -1.75 2.15 -1.75 2.2 -1.7 2.2 -1.5 2.2 -1.35 2.25 -1.3 2.25 -1.25 2.3 -1.2 2.35 -1.15 2.35 -1.05 2.45 -1.0 2.45 -0.85 2.45 -0.7 2.45 -0.7 2.45 -0.65 2.45 -0.55 2.45 -0.5 2.4 -0.4 2.4 -0.35 2.4 -0.3 2.45 -0.15 2.5 -0.05 2.45 0.0 2.45 0.05 2.45 0.1 2.45 Q0.15 2.45 0.2 2.45 L0.25 2.45 Q0.3 2.45 0.3 2.45 L0.35 2.4 0.4 2.4 0.5 2.4 0.6 2.4 M0.1 4.25 L0.05 4.4 -0.05 4.4 -0.05 4.4 -0.1 4.45 Q-0.15 4.5 -0.25 4.5 L-0.3 4.5 -0.35 4.5 -0.4 4.55 -0.4 4.55 -0.45 4.6 -0.65 4.55 -0.7 4.55 -0.75 4.55 -0.8 4.55 -0.8 4.55 -0.9 4.55 -0.9 4.55 -0.95 4.5 -1.15 4.5 -1.2 4.45 -1.3 4.4 -1.35 4.4 -1.4 4.4 -1.4 4.4 -1.65 4.4 -1.75 4.4 -1.8 4.4 -1.95 4.35 -2.0 4.25 -1.95 4.0 -1.95 3.95 -1.85 4.0 -1.8 4.0 -1.7 4.05 -1.5 4.15 -1.45 4.2 -1.45 4.2 -1.4 4.25 -1.05 4.25 -1.0 4.3 -0.85 4.3 -0.8 4.3 -0.55 4.35 -0.5 4.35 -0.4 4.3 -0.35 4.25 -0.3 4.25 -0.25 4.2 -0.15 4.25 -0.1 4.25 -0.05 4.25 0.0 4.25 0.1 4.25 M-2.1 0.45 L-2.1 0.3 -2.15 0.05 -2.0 0.1 -1.95 0.1 -1.85 0.15 -1.85 0.15 -1.3 0.25 -1.25 0.25 -1.2 0.25 -1.15 0.3 -1.1 0.3 -1.05 0.3 Q-1.0 0.35 -0.95 0.4 L-0.9 0.4 -0.75 0.45 -0.75 0.45 -0.7 0.45 -0.65 0.45 -0.6 0.45 -0.6 0.45 -0.4 0.5 -0.4 0.5 -0.3 0.55 -0.2 0.55 0.0 0.6 0.05 0.6 0.1 0.6 0.15 0.6 0.2 0.7 0.2 0.75 0.15 0.85 0.15 0.9 0.15 1.05 0.15 1.2 0.15 1.35 0.05 1.3 -0.05 1.3 -0.05 1.25 0.0 1.2 -0.05 1.05 -0.05 1.05 -0.1 1.0 -0.25 0.95 -0.3 0.9 -0.3 0.85 -0.4 0.75 -0.55 0.7 -0.65 0.7 -0.75 0.7 -0.75 0.7 -1.0 0.6 -1.05 0.6 -1.2 0.55 -1.3 0.55 -1.35 0.55 Q-1.5 0.6 -1.6 0.55 L-1.65 0.5 Q-1.7 0.5 -1.7 0.5 L-1.75 0.5 -1.8 0.45 -1.8 0.45 -1.9 0.5 -1.95 0.5 -2.0 0.5 -2.05 0.5 -2.05 0.5 -2.1 0.45" fill="#483218" fill-rule="evenodd" stroke="none"/>
    <path d="M0.55 2.55 L0.5 2.65 0.5 2.9 0.45 3.1 0.25 3.15 0.2 3.15 0.15 3.15 -0.15 3.1 -0.2 3.1 -0.3 3.1 -0.6 3.05 -0.6 3.05 -0.65 3.05 -0.7 3.1 -0.8 3.1 -0.9 3.1 -0.95 3.05 -1.0 3.05 -1.1 3.0 -1.15 3.0 -1.2 3.0 -1.4 2.95 -1.45 2.95 -1.45 2.95 -1.65 2.9 -1.7 2.85 -1.7 2.85 -1.75 2.85 -1.8 2.8 -1.85 2.8 -1.9 2.8 -1.9 2.6 -1.95 2.45 -1.85 2.45 -1.75 2.5 -1.7 2.5 -1.65 2.5 -1.65 2.45 -1.55 2.5 -1.55 2.55 -1.45 2.6 -1.4 2.6 -1.35 2.65 -1.2 2.65 -1.1 2.65 Q-1.05 2.65 -1.0 2.7 L-0.9 2.75 -0.85 2.75 -0.65 2.75 -0.55 2.75 -0.5 2.75 -0.45 2.8 Q-0.4 2.8 -0.35 2.75 L-0.3 2.7 -0.15 2.7 -0.1 2.7 0.0 2.6 0.05 2.6 0.1 2.6 0.15 2.6 Q0.2 2.65 0.25 2.6 L0.3 2.55 0.35 2.55 0.4 2.55 0.45 2.55 0.55 2.55 M-2.1 0.8 L-2.1 0.45 -2.05 0.5 -2.05 0.5 -2.0 0.5 -1.95 0.5 -1.9 0.5 -1.8 0.45 -1.8 0.45 -1.75 0.5 -1.7 0.5 Q-1.7 0.5 -1.65 0.5 L-1.6 0.55 Q-1.5 0.6 -1.35 0.55 L-1.3 0.55 -1.2 0.55 -1.05 0.6 -1.0 0.6 -0.75 0.7 -0.75 0.7 -0.65 0.7 -0.55 0.7 -0.4 0.75 -0.3 0.85 -0.3 0.9 -0.25 0.95 -0.1 1.0 -0.05 1.05 -0.05 1.05 0.0 1.2 -0.05 1.25 -0.05 1.3 -0.1 1.25 -0.15 1.25 -0.2 1.25 -0.3 1.2 -0.3 1.2 -0.6 1.1 -0.65 1.1 -0.7 1.1 -0.75 1.05 -1.1 0.95 -1.15 0.95 -1.5 0.9 -1.55 0.9 -1.6 0.85 -1.8 0.8 -1.85 0.8 -1.9 0.8 -1.95 0.8 -2.1 0.8 M-2.2 -0.95 L-2.15 -1.0 -2.15 -1.1 -2.15 -1.3 -2.1 -1.5 -2.1 -1.55 -1.95 -1.55 -1.8 -1.6 -1.75 -1.6 -1.7 -1.65 -1.65 -1.65 Q-1.65 -1.65 -1.6 -1.65 L-1.55 -1.7 -1.5 -1.7 -1.45 -1.7 -1.4 -1.65 -1.3 -1.65 -1.25 -1.65 -1.25 -1.65 -1.1 -1.65 -1.05 -1.65 -1.05 -1.65 -1.05 -1.5 -1.0 -1.5 Q-0.9 -1.5 -0.95 -1.4 L-1.0 -1.35 -1.0 -1.35 -0.9 -1.25 -1.0 -1.15 -1.0 -1.0 -1.0 -1.0 -1.1 -1.05 -1.15 -1.05 Q-1.25 -1.05 -1.3 -1.1 L-1.4 -1.1 -1.5 -1.15 -1.55 -1.15 -1.6 -1.15 -1.65 -1.15 -1.8 -1.1 -1.85 -1.1 -2.0 -1.0 -2.05 -1.0 -2.1 -1.0 -2.2 -0.95 M-0.15 -0.85 L-0.05 -0.95 0.0 -0.95 Q0.05 -0.95 0.05 -1.05 L0.1 -1.1 0.15 -1.1 0.25 -1.1 0.25 -1.1 0.45 -1.1 0.5 -1.1 0.55 -1.1 0.65 -1.1 Q0.75 -1.1 0.8 -1.0 L0.85 -0.95 1.0 -0.9 1.05 -0.9 1.2 -0.85 1.25 -0.8 1.3 -0.8 1.4 -0.75 1.3 -0.65 Q1.3 -0.6 1.35 -0.6 L1.35 -0.55 Q1.4 -0.5 1.35 -0.4 L1.3 -0.35 1.3 -0.3 1.25 -0.3 Q1.2 -0.35 1.15 -0.4 L1.1 -0.45 1.1 -0.45 1.0 -0.5 Q0.85 -0.5 0.8 -0.65 L0.7 -0.65 0.65 -0.7 0.5 -0.75 0.5 -0.75 0.3 -0.75 0.2 -0.75 0.05 -0.8 -0.05 -0.8 -0.1 -0.85 -0.15 -0.85" fill="#66392c" fill-rule="evenodd" stroke="none"/>
    <path d="M0.95 1.2 L0.95 1.45 0.9 1.5 0.85 1.6 0.8 1.6 0.7 1.55 0.7 1.5 0.7 1.45 Q0.7 1.35 0.8 1.35 L0.85 1.3 0.95 1.2 M0.05 4.4 L-0.05 4.55 -0.2 4.9 -0.2 4.9 -0.3 5.05 -0.3 5.05 -0.5 5.15 -0.75 5.1 -1.05 5.2 Q-1.2 5.2 -1.2 5.15 L-1.25 5.05 -1.25 5.05 -1.3 5.05 -1.45 4.9 -1.5 4.9 -1.5 4.85 -1.65 4.75 -1.85 4.5 -1.95 4.35 -1.8 4.4 -1.75 4.4 -1.65 4.4 -1.4 4.4 -1.4 4.4 -1.35 4.4 -1.3 4.4 -1.2 4.45 -1.15 4.5 -0.95 4.5 -0.9 4.55 -0.9 4.55 -0.8 4.55 -0.8 4.55 -0.75 4.55 -0.7 4.55 -0.65 4.55 -0.45 4.6 -0.4 4.55 -0.4 4.55 -0.35 4.5 -0.3 4.5 -0.25 4.5 Q-0.15 4.5 -0.1 4.45 L-0.05 4.4 -0.05 4.4 0.05 4.4" fill="#664722" fill-rule="evenodd" stroke="none"/>
    <path d="M1.95 -4.1 L1.9 -3.95 1.95 -3.9 1.9 -3.7 1.95 -3.45 1.9 -3.25 1.85 -2.6 1.75 -2.25 1.75 -2.05 Q1.7 -1.9 1.7 -1.7 L1.7 -1.3 1.75 -1.3 1.75 -1.25 1.85 -1.15 1.85 -1.15 1.9 -1.05 1.9 -1.0 1.9 -1.0 1.85 -0.75 1.85 -0.55 1.75 -0.4 1.75 -0.35 1.65 -0.25 1.65 -0.2 1.6 -0.1 1.6 -0.1 1.6 -0.05 1.55 0.1 1.5 0.15 1.45 0.25 1.4 0.3 1.4 0.35 1.3 0.45 1.25 0.5 Q1.1 0.65 0.95 0.85 L0.95 0.9 0.95 0.95 0.95 1.1 0.95 1.2 0.95 1.45 0.9 1.5 0.85 1.6 0.85 1.7 0.85 1.8 Q0.75 1.9 0.7 2.05 L0.7 2.1 0.65 2.15 0.65 2.2 0.6 2.3 0.6 2.35 0.6 2.4 0.55 2.55 0.5 2.65 0.5 2.9 0.45 3.1 0.45 3.15 0.4 3.25 0.4 3.3 0.3 3.6 0.25 3.8 Q0.2 3.95 0.2 4.1 L0.15 4.15 0.1 4.25 0.05 4.4 -0.05 4.55 -0.2 4.9 -0.2 4.9 -0.3 5.05 -0.3 5.05 -0.5 5.15 -0.75 5.1 -1.05 5.2 Q-1.2 5.2 -1.2 5.15 L-1.25 5.05 -1.25 5.05 -1.3 5.05 -1.45 4.9 -1.5 4.9 -1.5 4.85 -1.65 4.75 -1.85 4.5 -1.95 4.35 -2.0 4.25 -1.95 4.0 -1.95 3.95 -1.9 3.75 -1.9 3.45 -1.9 2.9 -1.9 2.8 -1.9 2.6 -1.95 2.45 -1.9 2.35 -1.9 2.3 -1.95 2.0 -1.95 1.95 -2.0 1.95 -2.0 1.7 -2.0 1.6 -2.0 1.45 Q-2.0 1.3 -2.05 1.25 L-2.05 1.1 -2.1 0.9 -2.1 0.8 -2.1 0.45 -2.1 0.3 -2.15 0.05 -2.15 0.0 -2.15 -0.15 -2.15 -0.2 -2.15 -0.45 -2.15 -0.7 -2.15 -0.75 -2.2 -0.85 -2.2 -0.9 -2.2 -0.95 -2.15 -1.0 -2.15 -1.1 -2.15 -1.3 -2.1 -1.5 -2.1 -1.55 -2.05 -1.7 -2.0 -1.9 -2.0 -2.0 -2.0 -2.05 Q-2.0 -2.15 -1.9 -2.2 L-1.85 -2.25 -1.75 -2.3 -1.6 -2.45 -1.6 -2.45 -1.45 -2.6 -1.45 -2.65 -1.4 -2.65 -1.35 -2.65 -1.3 -2.9 -1.25 -3.05 -1.2 -3.1 -1.1 -3.35 -1.0 -3.55 -0.9 -3.95 -0.85 -4.2 -0.8 -4.25 -0.75 -4.3 -0.5 -4.5" fill="none" stroke="#000000" stroke-linecap="round" stroke-linejoin="round" stroke-opacity="0.4509804" stroke-width="0.1"/>
  </g>
</svg>
