<?xml version="1.0" encoding="UTF-8" standalone="no"?>
<svg xmlns:xlink="http://www.w3.org/1999/xlink" height="10.2px" width="4.2px" xmlns="http://www.w3.org/2000/svg">
  <g transform="matrix(1.0, 0.0, 0.0, 1.0, 2.25, 5.1)">
    <path d="M0.8 -4.85 L0.6 -4.95 0.3 -5.0 0.7 -5.1 Q0.95 -5.1 1.2 -4.95 L1.5 -4.7 1.75 -4.3 1.85 -3.95 1.85 -3.15 1.8 -3.2 1.8 -3.2 Q1.75 -3.25 1.75 -3.3 L1.75 -3.35 1.7 -3.35 1.65 -3.6 1.55 -3.9 1.55 -3.95 1.5 -4.15 1.45 -4.2 1.3 -4.3 1.1 -4.55 0.8 -4.85 M1.75 -2.6 L1.8 -2.45 1.75 -2.35 1.75 -2.2 1.75 -2.0 1.75 -1.65 1.8 -1.5 1.8 -1.4 1.8 -1.35 1.75 -1.2 1.75 -1.2 1.7 -1.0 1.55 -0.8 1.55 -0.8 1.35 -0.5 1.2 -0.4 1.2 -0.4 0.9 -0.3 0.85 -0.25 0.75 -0.25 0.5 -0.2 0.2 -0.15 0.15 -0.05 0.1 0.05 -0.05 0.1 -0.1 0.1 -0.15 0.1 -0.2 0.1 -0.2 0.2 -0.15 0.35 -0.15 0.35 -0.2 0.5 -0.25 0.7 -0.25 0.7 -0.2 0.75 -0.2 0.95 -0.15 1.0 -0.1 1.1 -0.1 1.2 -0.05 1.3 -0.05 1.35 0.05 1.45 0.1 1.55 0.0 1.55 -0.05 1.55 -0.15 1.55 -0.15 1.55 Q-0.25 1.55 -0.25 1.6 L-0.2 1.7 -0.2 1.75 -0.2 1.8 -0.25 1.85 -0.3 1.95 -0.25 2.0 -0.2 2.05 0.25 2.4 0.35 2.45 0.4 2.45 0.7 2.45 0.65 2.6 0.6 2.65 0.6 2.8 0.55 2.9 0.5 2.95 0.5 3.0 0.45 3.05 Q0.35 3.15 0.35 3.25 L0.35 3.3 0.3 3.55 0.25 3.7 0.2 3.7 0.2 3.9 0.2 3.95 0.15 4.1 0.15 4.3 0.15 4.35 0.1 4.45 0.1 4.6 0.05 4.7 -0.05 4.8 -0.05 4.85 -0.15 4.9 -0.15 4.9 -0.25 4.9 -0.3 4.9 -0.3 4.9 -0.35 4.9 -0.5 5.0 -0.6 5.05 -0.6 5.05 -0.65 5.05 -0.9 5.1 -1.1 5.1 -1.25 5.1 Q-1.5 5.1 -1.75 4.7 L-1.8 4.65 -1.8 4.6 -1.85 4.6 -1.85 4.55 -1.95 4.4 -1.95 4.2 -1.9 4.0 -1.9 3.9 -1.95 3.9 -1.95 3.6 -1.95 3.3 -1.9 3.2 -1.9 3.0 -1.95 2.4 -1.9 2.3 -2.0 2.05 -1.85 2.0 -1.75 1.95 -1.55 1.85 -1.45 1.8 -1.4 1.65 -1.35 1.45 -1.35 0.85 -1.4 0.7 -1.35 0.6 -1.25 0.45 -1.15 0.2 -1.1 0.15 -1.05 0.1 -1.05 0.05 -1.25 -0.05 -1.65 -0.35 -1.85 -0.55 -2.0 -0.75 -2.05 -0.85 -2.05 -0.85 -2.2 -1.1 Q-2.2 -1.2 -2.0 -1.5 -1.9 -1.8 -1.9 -1.9 -1.9 -1.95 -1.75 -2.15 L-1.75 -2.2 -1.6 -2.45 -1.45 -2.85 -1.3 -3.35 -1.2 -3.6 -1.2 -3.6 -1.1 -3.3 -1.05 -3.1 -1.05 -3.0 -1.0 -2.85 -0.9 -2.5 -0.8 -1.45 -0.85 -1.35 -0.85 -0.9 -0.95 -0.5 -0.95 -0.05 -1.0 0.05 -1.0 0.1 -1.0 0.35 -1.05 0.9 -1.1 1.35 -1.15 1.55 -1.15 1.55 Q-1.15 1.75 -1.2 2.0 L-1.45 2.4 -1.55 2.5 -1.65 2.65 -1.7 2.7 -1.7 2.75 -1.75 2.8 -1.75 2.8 -1.7 3.05 -1.7 3.3 -1.75 3.6 -1.35 3.3 Q-1.1 3.15 -0.95 3.15 L-0.8 3.3 -0.65 3.45 -0.5 3.6 -0.4 3.7 -0.3 3.9 -0.25 4.05 -0.1 4.15 -0.05 4.0 0.1 3.65 0.15 3.55 0.1 3.5 -0.05 3.15 -0.2 2.95 -0.3 2.8 -0.35 2.8 -0.4 2.75 -0.4 2.75 -0.45 2.45 -0.45 1.7 -0.4 1.25 -0.35 0.85 -0.3 0.25 -0.25 -0.1 -0.15 -0.5 -0.1 -0.65 0.0 -0.75 0.15 -1.05 0.15 -1.1 Q0.25 -1.25 0.45 -1.45 L0.55 -1.5 0.6 -1.55 0.7 -1.6 0.8 -1.75 1.1 -2.05 1.4 -2.3 1.4 -2.3 1.65 -2.5 1.75 -2.6 1.75 -2.6 M-0.65 -0.6 L-0.65 -0.75 -0.6 -0.9 -0.6 -1.05 -0.6 -1.2 -0.65 -1.6 -0.6 -1.75 -0.5 -1.45 -0.3 -1.5 -0.2 -1.5 Q0.1 -1.6 0.35 -1.75 L0.0 -1.35 -0.1 -1.15 -0.2 -1.05 -0.25 -0.9 -0.25 -0.85 -0.3 -0.75 -0.35 -0.65 -0.35 -0.6 -0.4 -0.4 -0.45 0.0 -0.45 0.05 -0.5 0.1 -0.55 0.5 -0.55 0.55 -0.6 0.75 -0.6 0.8 -0.6 1.0 -0.65 1.15 -0.65 1.35 -0.7 1.45 -0.7 1.8 -0.7 1.8 -0.65 1.8 -0.65 1.85 Q-0.65 2.1 -0.7 2.2 L-0.75 2.35 -0.75 2.7 -0.7 2.75 -0.7 2.8 -0.65 2.85 Q-0.55 2.95 -0.6 3.05 L-0.6 3.05 Q-0.6 3.0 -0.75 2.9 L-0.95 2.8 -1.0 2.75 -1.1 2.8 -1.25 2.8 -1.25 2.8 -1.2 2.8 -1.15 2.7 Q-1.0 2.5 -1.0 2.2 L-0.9 1.35 -0.85 0.8 -0.85 0.6 -0.75 0.05 -0.75 0.0 -0.7 -0.1 -0.7 -0.15 -0.65 -0.6" fill="#201b1a" fill-rule="evenodd" stroke="none"/>
    <path d="M-0.05 -5.0 L0.25 -5.05 0.3 -5.0 0.6 -4.95 0.8 -4.85 0.4 -4.0 0.25 -3.7 -0.05 -2.85 Q-0.25 -2.2 -0.3 -1.6 L-0.35 -1.55 Q-0.4 -1.6 -0.4 -1.95 L-0.45 -2.3 -0.45 -2.35 -0.5 -2.6 -0.55 -2.85 -0.6 -3.0 -0.6 -3.05 -0.45 -3.45 -0.15 -4.3 -0.1 -4.75 -0.05 -4.9 -0.05 -5.0 M1.3 -4.3 L1.45 -4.2 1.5 -4.15 1.55 -3.95 1.55 -3.9 1.65 -3.6 1.7 -3.35 1.6 -3.35 1.5 -3.3 1.4 -3.25 1.1 -3.05 1.1 -3.05 1.05 -3.0 0.95 -2.9 0.9 -2.85 0.8 -2.75 0.75 -2.7 0.7 -2.7 0.75 -2.85 1.0 -3.55 1.05 -3.65 1.3 -4.3" fill="#1e1416" fill-rule="evenodd" stroke="none"/>
    <path d="M-0.05 -5.0 L-0.05 -4.9 -0.1 -4.75 -0.15 -4.3 -0.45 -3.45 -0.6 -3.05 -0.7 -3.25 -0.75 -3.55 -0.8 -3.85 -0.9 -4.1 -0.75 -4.3 -0.7 -4.35 -0.6 -4.45 -0.25 -4.9 Q-0.15 -5.0 -0.05 -5.0 M-0.3 -1.6 Q-0.25 -2.2 -0.05 -2.85 L0.25 -3.7 0.4 -4.0 0.8 -4.85 1.1 -4.55 1.3 -4.3 1.05 -3.65 1.0 -3.55 0.75 -2.85 0.7 -2.7 0.55 -2.55 0.3 -2.3 0.2 -2.2 -0.2 -1.7 -0.3 -1.6" fill="#834139" fill-rule="evenodd" stroke="none"/>
    <path d="M-0.6 -3.05 L-0.6 -3.0 -0.55 -2.85 -0.5 -2.6 -0.6 -2.45 Q-0.75 -2.5 -0.75 -2.6 L-0.8 -2.85 -0.8 -2.85 -0.9 -2.95 -1.0 -3.15 -0.9 -3.35 -1.0 -3.45 -1.0 -3.45 -1.1 -3.65 -1.15 -3.7 -0.9 -4.1 -0.8 -3.85 -0.75 -3.55 -0.7 -3.25 -0.6 -3.05 M1.85 -3.05 L1.9 -3.0 1.9 -2.95 1.8 -2.9 1.8 -2.9 1.75 -2.85 1.75 -2.75 Q1.75 -2.65 1.35 -2.3 L1.15 -2.1 1.15 -2.15 1.2 -2.25 1.25 -2.35 1.3 -2.4 1.5 -2.6 1.5 -2.65 1.45 -2.65 Q1.4 -2.65 1.4 -2.65 L1.4 -2.7 Q1.45 -2.75 1.4 -2.8 L1.2 -2.7 1.15 -2.65 0.85 -2.5 0.65 -2.3 0.6 -2.3 Q0.4 -2.15 0.35 -2.15 L0.3 -2.15 0.3 -2.15 0.55 -2.5 0.6 -2.5 0.7 -2.65 0.7 -2.7 0.75 -2.7 0.8 -2.75 0.9 -2.85 0.95 -2.9 1.05 -3.0 1.1 -3.05 1.1 -3.05 1.4 -3.25 1.5 -3.3 1.6 -3.35 1.65 -3.25 1.7 -3.05 1.75 -3.05 1.8 -3.05 1.8 -3.05 1.85 -3.05 M-0.25 -0.85 L-0.25 -0.8 -0.45 0.05 -0.5 0.35 -0.55 0.8 -0.55 0.8 -0.6 0.8 -0.6 0.75 -0.55 0.55 -0.55 0.5 -0.5 0.1 -0.45 0.05 -0.45 0.0 -0.4 -0.4 -0.35 -0.6 -0.35 -0.65 -0.3 -0.75 -0.25 -0.85 M-0.85 0.8 L-0.9 0.95 -1.0 1.1 -1.0 1.1 -1.05 1.1 -1.0 0.95 -0.9 0.5 -0.9 -0.15 -0.85 -0.35 -0.8 -0.5 Q-0.75 -0.55 -0.65 -0.6 L-0.7 -0.15 -0.7 -0.1 -0.75 0.0 -0.75 0.05 -0.85 0.6 -0.85 0.8" fill="#886943" fill-rule="evenodd" stroke="none"/>
    <path d="M-0.5 -2.6 L-0.45 -2.35 -0.45 -2.3 -0.4 -1.95 Q-0.4 -1.6 -0.35 -1.55 L-0.3 -1.6 -0.2 -1.7 0.2 -2.2 0.3 -2.3 0.55 -2.55 0.7 -2.7 0.7 -2.65 0.6 -2.5 0.55 -2.5 0.3 -2.15 0.3 -2.15 0.35 -2.15 Q0.4 -2.15 0.6 -2.3 L0.65 -2.3 0.85 -2.5 1.15 -2.65 1.2 -2.7 1.4 -2.8 Q1.45 -2.75 1.4 -2.7 L1.4 -2.65 Q1.4 -2.65 1.45 -2.65 L1.5 -2.65 1.5 -2.6 1.3 -2.4 1.25 -2.35 1.2 -2.25 1.15 -2.15 1.15 -2.1 1.35 -2.3 Q1.75 -2.65 1.75 -2.75 L1.75 -2.85 1.8 -2.9 1.8 -2.9 1.9 -2.95 1.9 -2.9 1.85 -2.85 1.85 -2.8 1.75 -2.6 1.75 -2.6 1.65 -2.5 1.4 -2.3 1.4 -2.3 1.1 -2.05 0.8 -1.75 0.7 -1.6 0.6 -1.55 0.55 -1.5 0.45 -1.45 Q0.25 -1.25 0.15 -1.1 L0.15 -1.05 0.0 -0.75 -0.1 -0.65 -0.15 -0.5 -0.25 -0.1 -0.3 0.25 -0.35 0.85 -0.4 1.25 -0.45 1.7 -0.45 2.45 -0.4 2.75 -0.4 2.75 -0.35 2.8 -0.3 2.8 -0.2 2.95 -0.05 3.15 0.1 3.5 0.15 3.55 0.1 3.65 -0.05 4.0 -0.1 4.15 -0.25 4.05 -0.3 3.9 -0.4 3.7 -0.5 3.6 -0.65 3.45 -0.8 3.3 -0.95 3.15 Q-1.1 3.15 -1.35 3.3 L-1.75 3.6 -1.7 3.3 -1.7 3.05 -1.75 2.8 -1.75 2.8 -1.7 2.75 -1.7 2.7 -1.65 2.65 -1.55 2.5 -1.45 2.4 -1.2 2.0 Q-1.15 1.75 -1.15 1.55 L-1.15 1.55 -1.1 1.35 -1.05 0.9 -1.0 0.35 -1.0 0.1 -1.0 0.05 -0.95 -0.05 -0.95 -0.5 -0.85 -0.9 -0.85 -1.35 -0.8 -1.45 -0.9 -2.5 -1.0 -2.85 -1.05 -3.0 -1.05 -3.1 -1.1 -3.3 -1.2 -3.6 -1.2 -3.6 -1.15 -3.7 -1.1 -3.65 -1.0 -3.45 -1.0 -3.45 -0.9 -3.35 -1.0 -3.15 -0.9 -2.95 -0.8 -2.85 -0.8 -2.85 -0.75 -2.6 Q-0.75 -2.5 -0.6 -2.45 L-0.5 -2.6 M-0.25 -0.85 L-0.25 -0.9 -0.2 -1.05 -0.1 -1.15 0.0 -1.35 0.35 -1.75 Q0.1 -1.6 -0.2 -1.5 L-0.3 -1.5 -0.5 -1.45 -0.6 -1.75 -0.65 -1.6 -0.6 -1.2 -0.6 -1.05 -0.6 -0.9 -0.65 -0.75 -0.65 -0.6 Q-0.75 -0.55 -0.8 -0.5 L-0.85 -0.35 -0.9 -0.15 -0.9 0.5 -1.0 0.95 -1.05 1.1 -1.0 1.1 -1.0 1.1 -0.9 0.95 -0.85 0.8 -0.9 1.35 -1.0 2.2 Q-1.0 2.5 -1.15 2.7 L-1.2 2.8 -1.25 2.8 -1.25 2.8 -1.1 2.8 -1.0 2.75 -0.95 2.8 -0.75 2.9 Q-0.6 3.0 -0.6 3.05 L-0.6 3.05 Q-0.55 2.95 -0.65 2.85 L-0.7 2.8 -0.7 2.75 -0.75 2.7 -0.75 2.35 -0.7 2.2 Q-0.65 2.1 -0.65 1.85 L-0.65 1.8 -0.7 1.8 -0.7 1.8 -0.7 1.45 -0.65 1.35 -0.65 1.15 -0.6 1.0 -0.6 0.8 -0.55 0.8 -0.55 0.8 -0.5 0.35 -0.45 0.05 -0.25 -0.8 -0.25 -0.85" fill="#694a36" fill-rule="evenodd" stroke="none"/>
    <path d="M1.85 -3.15 L1.85 -3.05 1.85 -3.05 1.8 -3.05 1.8 -3.05 1.75 -3.05 1.7 -3.05 1.65 -3.25 1.6 -3.35 1.7 -3.35 1.75 -3.35 1.75 -3.3 Q1.75 -3.25 1.8 -3.2 L1.8 -3.2 1.85 -3.15" fill="#5c4b43" fill-rule="evenodd" stroke="none"/>
    <path d="M1.75 -1.2 L1.75 -0.95 1.75 -0.65 1.65 -0.3 1.6 -0.25 1.6 -0.2 1.5 0.05 1.45 0.1 Q1.35 0.25 1.3 0.35 L1.25 0.5 1.2 0.5 1.2 0.6 1.05 0.8 0.95 1.05 0.9 1.15 0.85 1.2 0.85 1.25 0.8 1.3 0.75 1.45 0.75 1.6 0.7 1.7 0.65 1.8 0.65 2.0 0.65 2.05 0.6 2.15 0.6 2.25 0.65 2.3 0.7 2.4 0.7 2.45 0.4 2.45 0.35 2.45 0.25 2.4 -0.2 2.05 -0.25 2.0 -0.3 1.95 -0.25 1.85 -0.2 1.8 -0.2 1.75 -0.2 1.7 -0.25 1.6 Q-0.25 1.55 -0.15 1.55 L-0.15 1.55 -0.05 1.55 0.0 1.55 0.1 1.55 0.05 1.45 -0.05 1.35 -0.05 1.3 -0.1 1.2 -0.1 1.1 -0.15 1.0 -0.2 0.95 -0.2 0.75 -0.25 0.7 -0.25 0.7 -0.2 0.5 -0.15 0.35 -0.15 0.35 -0.2 0.2 -0.2 0.1 -0.15 0.1 -0.1 0.1 -0.05 0.1 0.1 0.05 0.15 -0.05 0.2 -0.15 0.5 -0.2 0.75 -0.25 0.85 -0.25 0.9 -0.3 1.2 -0.4 1.2 -0.4 1.35 -0.5 1.55 -0.8 1.55 -0.8 1.7 -1.0 1.75 -1.2 M-1.85 2.0 L-1.9 1.85 -2.0 1.05 -2.0 0.3 -2.05 -0.15 -2.05 -0.25 -2.05 -0.85 -2.0 -0.75 -1.85 -0.55 -1.65 -0.35 -1.25 -0.05 -1.05 0.05 -1.05 0.1 -1.1 0.15 -1.15 0.2 -1.25 0.45 -1.35 0.6 -1.4 0.7 -1.35 0.85 -1.35 1.45 -1.4 1.65 -1.45 1.8 -1.55 1.85 -1.75 1.95 -1.85 2.0" fill="#3f3c39" fill-rule="evenodd" stroke="none"/>
    <path d="M1.85 -3.95 L1.85 -3.15 1.85 -3.05 1.85 -3.05 1.9 -3.0 1.9 -2.95 1.9 -2.9 1.85 -2.85 1.85 -2.8 1.75 -2.6 1.8 -2.45 1.75 -2.35 1.75 -2.2 1.75 -2.0 1.75 -1.65 1.8 -1.5 1.8 -1.4 1.8 -1.35 1.75 -1.2 1.75 -1.2 1.75 -0.95 1.75 -0.65 1.65 -0.3 1.6 -0.25 1.6 -0.2 1.5 0.05 1.45 0.1 Q1.35 0.25 1.3 0.35 L1.25 0.5 1.2 0.5 1.2 0.6 1.05 0.8 0.95 1.05 0.9 1.15 0.85 1.2 0.85 1.25 0.8 1.3 0.75 1.45 0.75 1.6 0.7 1.7 0.65 1.8 0.65 2.0 0.65 2.05 0.6 2.15 0.6 2.25 0.65 2.3 0.7 2.4 0.7 2.45 0.65 2.6 0.6 2.65 0.6 2.8 0.55 2.9 0.5 2.95 0.5 3.0 0.45 3.05 Q0.35 3.15 0.35 3.25 L0.35 3.3 0.3 3.55 0.25 3.7 0.2 3.7 0.2 3.9 M-1.95 3.6 L-1.95 3.3 -1.9 3.2 -1.9 3.0 -1.95 2.4 -1.9 2.3 -2.0 2.05 -1.85 2.0 -1.9 1.85 -2.0 1.05 -2.0 0.3 -2.05 -0.15 -2.05 -0.25 -2.05 -0.85 -2.05 -0.85 -2.2 -1.1 Q-2.2 -1.2 -2.0 -1.5 -1.9 -1.8 -1.9 -1.9 -1.9 -1.95 -1.75 -2.15 L-1.75 -2.2 -1.6 -2.45 -1.45 -2.85 -1.3 -3.35 -1.2 -3.6 -1.15 -3.7 -0.9 -4.1 -0.75 -4.3" fill="none" stroke="#000000" stroke-linecap="round" stroke-linejoin="round" stroke-opacity="0.4509804" stroke-width="0.1"/>
  </g>
</svg>
