<?xml version="1.0" encoding="UTF-8" standalone="no"?>
<svg xmlns:xlink="http://www.w3.org/1999/xlink" height="10.2px" width="4.0px" xmlns="http://www.w3.org/2000/svg">
  <g transform="matrix(1.0, 0.0, 0.0, 1.0, 2.05, 5.1)">
    <path d="M1.85 -4.1 L1.85 -3.85 1.8 -3.0 1.8 -2.75 1.7 -1.9 1.7 -2.2 1.65 -2.3 Q1.6 -2.2 1.45 -2.2 L1.2 -2.35 0.85 -2.1 0.9 -2.1 1.1 -2.05 1.1 -2.0 1.2 -1.95 1.2 -1.9 0.95 -1.9 0.75 -1.85 0.6 -1.8 0.65 -1.7 0.75 -1.65 0.65 -1.5 0.85 -1.5 0.95 -1.35 Q0.9 -1.3 0.8 -1.3 L0.7 -1.35 0.5 -1.25 0.7 -1.05 Q0.5 -1.05 0.5 -0.85 0.45 -0.65 0.25 -0.65 L0.15 -0.7 Q0.15 -0.75 0.2 -0.9 L-0.1 -1.2 0.15 -1.25 Q0.35 -1.35 0.35 -1.45 L0.1 -1.55 Q0.05 -1.6 0.05 -1.7 0.05 -1.75 0.15 -1.8 0.25 -1.85 0.35 -1.9 L0.25 -2.0 Q0.2 -2.1 0.2 -2.15 L0.3 -2.4 0.2 -2.55 Q0.15 -2.6 0.1 -2.6 L-0.2 -2.8 -0.15 -2.85 0.05 -2.9 Q0.2 -2.95 0.2 -3.05 L0.0 -3.2 Q-0.1 -3.25 -0.1 -3.35 -0.1 -3.65 -0.15 -3.8 0.0 -4.55 0.15 -4.9 L0.1 -4.9 Q0.4 -5.1 0.7 -5.1 0.95 -5.1 1.2 -4.95 L1.5 -4.7 1.75 -4.3 1.85 -4.1 M-0.25 4.85 Q-0.5 5.1 -0.9 5.1 -1.25 5.1 -1.55 4.75 L-1.6 4.65 -1.6 4.7 Q-1.4 4.8 -1.2 4.85 L-1.15 4.9 -1.15 4.9 -0.75 5.0 -0.6 4.95 -0.55 4.95 -0.4 4.9 -0.25 4.85 -0.25 4.85 M-1.8 4.25 L-1.85 4.05 -1.8 3.75 -1.8 3.9 Q-1.8 4.1 -1.8 4.25 M-1.4 -2.65 L-1.1 -3.3 -0.9 -3.7 -0.9 -3.6 -0.95 -3.45 -1.0 -3.35 -1.1 -3.1 -1.1 -3.05 -1.15 -3.0 -1.15 -2.95 -1.4 -2.65 M1.4 -0.3 L1.3 -0.25 1.15 -0.15 1.1 -0.15 Q1.05 -0.15 1.0 -0.2 L1.0 -0.3 Q1.0 -0.4 1.05 -0.45 L1.1 -0.5 1.1 -0.55 1.2 -0.6 1.35 -0.5 1.35 -0.5 1.4 -0.4 1.4 -0.3 M0.1 0.95 Q0.1 0.8 0.2 0.8 L0.35 0.8 0.4 0.8 0.5 0.85 0.55 0.95 0.45 1.1 0.3 1.15 0.25 1.15 0.15 1.1 Q0.1 1.0 0.1 0.95 M0.0 2.45 Q-0.15 2.4 0.1 2.15 L0.15 2.15 0.2 2.15 0.25 2.15 0.3 2.2 0.35 2.3 0.3 2.45 0.25 2.45 0.15 2.45 0.1 2.45 0.0 2.45" fill="#2a1c21" fill-rule="evenodd" stroke="none"/>
    <path d="M-0.15 -3.8 Q-0.1 -3.65 -0.1 -3.35 -0.1 -3.25 0.0 -3.2 L0.2 -3.05 Q0.2 -2.95 0.05 -2.9 L-0.15 -2.85 -0.2 -2.8 0.1 -2.6 Q0.15 -2.6 0.2 -2.55 L0.3 -2.4 0.2 -2.15 Q0.2 -2.1 0.25 -2.0 L0.35 -1.9 Q0.25 -1.85 0.15 -1.8 0.05 -1.75 0.05 -1.7 0.05 -1.6 0.1 -1.55 L0.35 -1.45 Q0.35 -1.35 0.15 -1.25 L-0.1 -1.2 0.2 -0.9 Q0.15 -0.75 0.15 -0.7 L0.25 -0.65 Q0.45 -0.65 0.5 -0.85 0.5 -1.05 0.7 -1.05 L0.5 -1.25 0.7 -1.35 0.8 -1.3 Q0.9 -1.3 0.95 -1.35 L0.85 -1.5 0.65 -1.5 0.75 -1.65 0.65 -1.7 0.6 -1.8 0.75 -1.85 0.95 -1.9 1.2 -1.9 1.2 -1.95 1.1 -2.0 1.1 -2.05 0.9 -2.1 0.85 -2.1 1.2 -2.35 1.45 -2.2 Q1.6 -2.2 1.65 -2.3 L1.7 -2.2 1.7 -1.9 1.7 -1.5 1.65 -1.35 1.6 -1.35 1.45 -1.3 Q1.6 -1.1 1.35 -1.0 L1.0 -0.75 1.0 -0.75 0.5 -0.2 0.6 0.05 0.55 0.2 Q0.4 0.25 0.3 0.35 L0.3 0.3 0.35 0.2 0.3 0.15 Q0.25 0.1 0.25 0.1 L0.15 0.1 0.1 0.35 -0.1 0.5 Q-0.15 0.5 -0.15 0.45 L-0.25 -0.1 Q-0.25 -0.2 -0.1 -0.35 L-0.35 -0.5 Q-0.3 -0.6 -0.3 -0.65 L-0.45 -0.85 -0.45 -0.85 -0.45 -1.3 -0.35 -1.3 -0.35 -1.45 -0.4 -1.55 -0.3 -2.75 -0.15 -3.8 M0.5 2.25 L0.5 2.3 0.45 2.45 0.4 2.45 0.4 2.5 0.15 2.6 Q-0.1 2.6 0.0 2.45 L0.1 2.45 0.15 2.45 0.25 2.45 0.3 2.45 0.35 2.3 0.3 2.2 0.25 2.15 0.35 2.05 0.4 2.1 0.45 2.15 0.5 2.25 M0.05 4.1 L0.05 4.25 0.05 4.35 0.05 4.45 0.0 4.5 0.0 4.6 0.0 4.7 -0.1 4.75 -0.25 4.85 -0.25 4.85 -0.4 4.9 -0.55 4.95 -0.6 4.95 -0.75 5.0 -1.15 4.9 -1.1 4.8 -1.1 4.35 -0.95 3.45 Q-0.6 3.2 -0.6 3.1 L-0.65 2.95 -0.5 2.75 Q-0.35 2.6 -0.35 2.55 L-0.4 2.45 -0.4 2.3 Q-0.35 2.3 -0.25 2.3 -0.2 2.3 -0.2 2.3 L-0.2 2.45 -0.25 2.6 0.05 2.9 -0.1 3.05 -0.2 3.2 -0.1 3.4 Q0.0 3.55 0.0 3.85 L0.05 4.05 0.05 4.1 M1.1 -0.55 L1.1 -0.5 1.05 -0.45 Q1.0 -0.4 1.0 -0.3 L1.0 -0.2 Q1.05 -0.15 1.1 -0.15 L1.15 -0.15 1.3 -0.25 1.4 -0.3 1.4 -0.3 1.4 -0.2 1.35 -0.05 1.2 0.0 1.05 -0.05 Q0.9 -0.1 0.9 -0.2 0.9 -0.35 1.1 -0.55 L1.1 -0.55 M0.1 0.95 Q0.1 1.0 0.15 1.1 L0.25 1.15 0.3 1.15 0.45 1.1 0.55 0.95 0.5 0.85 0.55 0.9 0.6 0.95 0.65 1.0 0.55 1.2 0.5 1.25 0.35 1.3 Q0.1 1.3 0.05 1.2 0.0 1.1 0.1 0.95" fill="#3c2125" fill-rule="evenodd" stroke="none"/>
    <path d="M1.65 -1.35 L1.65 -1.25 1.65 -0.9 1.65 -0.8 1.6 -0.75 1.6 -0.5 1.55 -0.45 1.55 -0.35 1.5 -0.3 1.5 -0.2 1.45 -0.15 1.45 -0.1 1.4 0.05 1.3 0.15 1.25 0.25 1.15 0.35 1.05 0.5 1.05 0.55 1.0 0.6 0.95 0.7 0.85 0.85 0.85 0.95 0.8 1.0 0.8 1.1 0.75 1.15 0.75 1.3 0.7 1.4 0.7 1.45 0.65 1.55 0.65 1.65 0.6 1.7 0.6 1.85 0.6 1.95 0.55 2.0 0.55 2.1 0.5 2.2 0.5 2.25 0.45 2.15 0.4 2.1 0.35 2.05 0.25 2.15 0.2 2.15 0.15 2.15 0.1 2.15 Q-0.15 2.4 0.0 2.45 -0.1 2.6 0.15 2.6 L0.4 2.5 0.4 2.45 0.45 2.45 0.4 2.5 0.4 2.6 0.35 2.7 0.35 2.75 0.3 2.9 0.3 3.1 0.25 3.1 0.25 3.3 0.2 3.4 0.2 3.5 0.2 3.55 Q0.15 3.7 0.1 3.85 L0.05 4.05 0.05 4.1 0.05 4.05 0.0 3.85 Q0.0 3.55 -0.1 3.4 L-0.2 3.2 -0.1 3.05 0.05 2.9 -0.25 2.6 -0.2 2.45 -0.2 2.3 Q-0.2 2.3 -0.25 2.3 -0.35 2.3 -0.4 2.3 L-0.4 2.45 -0.35 2.55 Q-0.35 2.6 -0.5 2.75 L-0.65 2.95 -0.6 3.1 Q-0.6 3.2 -0.95 3.45 L-0.8 2.45 Q-0.5 0.8 -0.45 -0.1 L-0.45 -0.85 -0.45 -0.85 -0.3 -0.65 Q-0.3 -0.6 -0.35 -0.5 L-0.1 -0.35 Q-0.25 -0.2 -0.25 -0.1 L-0.15 0.45 Q-0.15 0.5 -0.1 0.5 L0.1 0.35 0.15 0.1 0.25 0.1 Q0.25 0.1 0.3 0.15 L0.35 0.2 0.3 0.3 0.3 0.35 Q0.4 0.25 0.55 0.2 L0.6 0.05 0.5 -0.2 1.0 -0.75 1.0 -0.75 1.35 -1.0 Q1.6 -1.1 1.45 -1.3 L1.6 -1.35 1.65 -1.35 M1.1 -0.55 L1.1 -0.55 Q0.9 -0.35 0.9 -0.2 0.9 -0.1 1.05 -0.05 L1.2 0.0 1.35 -0.05 1.4 -0.2 1.4 -0.3 1.4 -0.3 1.4 -0.4 1.35 -0.5 1.35 -0.5 1.2 -0.6 1.1 -0.55 M0.5 0.85 L0.4 0.8 0.35 0.8 0.2 0.8 Q0.1 0.8 0.1 0.95 0.0 1.1 0.05 1.2 0.1 1.3 0.35 1.3 L0.5 1.25 0.55 1.2 0.65 1.0 0.6 0.95 0.55 0.9 0.5 0.85 M-0.4 -1.55 L-0.35 -1.45 -0.35 -1.3 -0.45 -1.3 -0.4 -1.55 M-1.65 3.8 L-1.6 3.8 -1.6 3.8 -1.65 3.8" fill="#4e272a" fill-rule="evenodd" stroke="none"/>
    <path d="M-1.6 4.65 L-1.75 4.55 -1.85 4.4 -1.85 4.25 -1.8 4.25 Q-1.8 4.1 -1.8 3.9 L-1.8 3.75 -1.6 3.75 -1.6 3.8 -1.6 3.8 -1.65 3.8 -1.6 3.8 Q-1.4 3.75 -1.05 3.5 L-0.95 3.45 -1.1 4.35 -1.1 4.8 -1.15 4.9 -1.15 4.9 -1.2 4.85 Q-1.4 4.8 -1.6 4.7 L-1.6 4.65 M-0.9 -3.7 L-0.9 -3.7 -0.9 -3.7 -0.45 -4.05 Q-0.35 -4.05 -0.25 -3.95 L-0.15 -3.8 -0.3 -2.75 -0.4 -1.55 -0.65 -2.25 -0.75 -2.55 -0.85 -2.7 -1.15 -2.95 -1.15 -3.0 -1.1 -3.05 -1.1 -3.1 -1.0 -3.35 -0.95 -3.45 -0.9 -3.6 -0.9 -3.7 M-0.8 -3.3 L-0.85 -3.3 -0.9 -3.2 Q-1.0 -3.1 -1.0 -2.9 L-0.85 -2.85 -0.8 -2.85 Q-0.7 -2.85 -0.65 -2.9 -0.5 -3.0 -0.5 -3.1 -0.5 -3.15 -0.65 -3.2 L-0.65 -3.25 -0.8 -3.3 M-0.45 -1.3 L-0.45 -0.85 Q-0.6 -1.0 -0.6 -1.25 L-0.5 -1.3 -0.45 -1.3 M-1.55 -1.35 L-1.5 -1.55 Q-1.4 -1.65 -1.3 -1.65 L-1.25 -1.65 -1.15 -1.6 -1.0 -1.45 -1.05 -1.3 -1.0 -1.25 -0.9 -1.2 Q-0.9 -1.0 -1.15 -0.9 L-1.45 -0.85 -1.6 -0.75 Q-1.75 -0.9 -1.75 -1.05 L-1.65 -1.2 -1.55 -1.3 -1.55 -1.35 M-1.15 0.2 Q-1.05 0.2 -0.95 0.3 -1.15 0.8 -1.35 0.8 L-1.45 0.8 -1.5 0.75 -1.55 0.65 -1.55 0.45 -1.55 0.35 Q-1.55 0.25 -1.5 0.15 L-1.45 0.1 -1.4 0.0 -1.4 0.0 Q-1.25 0.0 -1.2 0.1 L-1.15 0.2 M-1.25 1.5 Q-1.0 1.5 -1.0 1.7 -1.0 1.8 -1.1 1.9 L-1.1 1.95 Q-1.05 2.05 -1.05 2.1 L-1.1 2.3 -1.25 2.3 -1.3 2.3 Q-1.55 2.3 -1.55 2.15 L-1.5 1.95 -1.5 1.75 Q-1.5 1.6 -1.4 1.55 L-1.25 1.5" fill="#170f12" fill-rule="evenodd" stroke="none"/>
    <path d="M0.1 -4.9 L0.15 -4.9 Q0.0 -4.55 -0.15 -3.8 L-0.25 -3.95 Q-0.35 -4.05 -0.45 -4.05 L-0.9 -3.7 -0.9 -3.7 -0.85 -3.95 -0.85 -3.95 -0.8 -4.0 -0.65 -4.2 -0.6 -4.2 -0.45 -4.35 -0.4 -4.5 -0.3 -4.65 -0.3 -4.7 Q-0.1 -4.85 0.1 -4.9 M-0.8 -3.3 L-0.65 -3.25 -0.65 -3.2 Q-0.5 -3.15 -0.5 -3.1 -0.5 -3.0 -0.65 -2.9 -0.7 -2.85 -0.8 -2.85 L-0.85 -2.85 -1.0 -2.9 Q-1.0 -3.1 -0.9 -3.2 L-0.85 -3.3 -0.8 -3.3" fill="#0e090a" fill-rule="evenodd" stroke="none"/>
    <path d="M-1.8 3.75 L-1.8 2.7 -1.8 2.2 -1.9 1.65 -1.95 1.05 -1.95 0.7 Q-1.95 0.4 -1.95 0.1 L-1.95 -0.3 -1.95 -0.85 -1.95 -0.95 -1.85 -1.5 -1.75 -2.0 -1.7 -2.1 -1.65 -2.25 -1.6 -2.25 -1.45 -2.5 -1.45 -2.55 -1.4 -2.6 -1.4 -2.65 -1.15 -2.95 -0.85 -2.7 -0.75 -2.55 -0.65 -2.25 -0.4 -1.55 -0.45 -1.3 -0.5 -1.3 -0.6 -1.25 Q-0.6 -1.0 -0.45 -0.85 L-0.45 -0.1 Q-0.5 0.8 -0.8 2.45 L-0.95 3.45 -1.05 3.5 Q-1.4 3.75 -1.6 3.8 L-1.6 3.75 -1.8 3.75 M-1.25 1.5 L-1.4 1.55 Q-1.5 1.6 -1.5 1.75 L-1.5 1.95 -1.55 2.15 Q-1.55 2.3 -1.3 2.3 L-1.25 2.3 -1.1 2.3 -1.05 2.1 Q-1.05 2.05 -1.1 1.95 L-1.1 1.9 Q-1.0 1.8 -1.0 1.7 -1.0 1.5 -1.25 1.5 M-1.15 0.2 L-1.2 0.1 Q-1.25 0.0 -1.4 0.0 L-1.4 0.0 -1.45 0.1 -1.5 0.15 Q-1.55 0.25 -1.55 0.35 L-1.55 0.45 -1.55 0.65 -1.5 0.75 -1.45 0.8 -1.35 0.8 Q-1.15 0.8 -0.95 0.3 -1.05 0.2 -1.15 0.2 M-1.55 -1.35 L-1.55 -1.3 -1.65 -1.2 -1.75 -1.05 Q-1.75 -0.9 -1.6 -0.75 L-1.45 -0.85 -1.15 -0.9 Q-0.9 -1.0 -0.9 -1.2 L-1.0 -1.25 -1.05 -1.3 -1.0 -1.45 -1.15 -1.6 -1.25 -1.65 -1.3 -1.65 Q-1.4 -1.65 -1.5 -1.55 L-1.55 -1.35" fill="#27191f" fill-rule="evenodd" stroke="none"/>
    <path d="M-1.85 4.4 L-1.85 4.4 -1.85 4.35 -1.9 4.35 -1.85 4.25 -1.85 4.4" fill="#716760" fill-rule="evenodd" stroke="none"/>
    <path d="M1.7 -1.9 L1.8 -2.75 1.8 -3.0 1.85 -3.85 1.85 -4.1 M1.7 -1.9 L1.7 -1.5 1.65 -1.35 1.65 -1.25 1.65 -0.9 1.65 -0.8 1.6 -0.75 1.6 -0.5 1.55 -0.45 1.55 -0.35 1.5 -0.3 1.5 -0.2 1.45 -0.15 1.45 -0.1 1.4 0.05 1.3 0.15 1.25 0.25 1.15 0.35 1.05 0.5 1.05 0.55 1.0 0.6 0.95 0.7 0.85 0.85 0.85 0.95 0.8 1.0 0.8 1.1 0.75 1.15 0.75 1.3 0.7 1.4 0.7 1.45 0.65 1.55 0.65 1.65 0.6 1.7 0.6 1.85 0.6 1.95 0.55 2.0 0.55 2.1 0.5 2.2 0.5 2.25 0.5 2.3 0.45 2.45 0.4 2.5 0.4 2.6 0.35 2.7 0.35 2.75 0.3 2.9 0.3 3.1 0.25 3.1 0.25 3.3 0.2 3.4 0.2 3.5 0.2 3.55 Q0.15 3.7 0.1 3.85 L0.05 4.05 0.05 4.1 0.05 4.25 0.05 4.35 0.05 4.45 0.0 4.5 0.0 4.6 M-1.85 4.4 L-1.85 4.35 -1.9 4.35 -1.85 4.25 -1.8 4.25 -1.85 4.05 -1.8 3.75 -1.8 2.7 -1.8 2.2 -1.9 1.65 -1.95 1.05 -1.95 0.7 Q-1.95 0.4 -1.95 0.1 L-1.95 -0.3 -1.95 -0.85 -1.95 -0.95 -1.85 -1.5 -1.75 -2.0 -1.7 -2.1 -1.65 -2.25 -1.6 -2.25 -1.45 -2.5 -1.45 -2.55 -1.4 -2.6 -1.4 -2.65 -1.1 -3.3 -0.9 -3.7 -0.9 -3.7 -0.85 -3.95 -0.85 -3.95 -0.8 -4.0 -0.65 -4.2 -0.6 -4.2 -0.45 -4.35 -0.4 -4.5" fill="none" stroke="#000000" stroke-linecap="round" stroke-linejoin="round" stroke-opacity="0.4509804" stroke-width="0.1"/>
  </g>
</svg>
