<?xml version="1.0" encoding="UTF-8" standalone="no"?>
<svg xmlns:xlink="http://www.w3.org/1999/xlink" height="9.35px" width="4.8px" xmlns="http://www.w3.org/2000/svg">
  <g transform="matrix(1.0, 0.0, 0.0, 1.0, 2.5, 3.3)">
    <path d="M0.9 -2.3 L1.5 -2.15 2.15 -2.25 2.3 -2.25 2.25 -2.15 2.2 -1.9 2.15 -1.65 1.8 -0.5 1.5 0.3 1.45 0.3 1.05 1.2 1.1 1.4 1.05 2.0 0.9 2.6 0.75 3.15 Q0.45 3.8 0.2 4.0 L0.2 4.05 -0.1 4.9 -0.15 5.0 -0.25 5.15 -0.25 5.2 Q-0.5 5.6 -0.75 5.8 -1.05 6.05 -1.35 6.05 -1.65 6.05 -2.05 5.5 L-2.35 5.05 -2.4 5.0 Q-2.45 4.8 -2.5 4.6 L-2.5 4.55 Q-2.5 4.25 -2.25 3.6 L-2.05 3.05 -2.0 2.85 -2.05 2.6 -2.1 1.0 -2.1 0.9 -2.0 0.4 -1.85 -0.2 -1.85 -0.2 -1.4 -1.7 -1.45 -1.85 -1.45 -1.85 -1.5 -2.1 -1.5 -2.25 -1.5 -2.25 -1.3 -3.2 -1.25 -3.3 Q-1.2 -3.2 -1.05 -3.05 L-0.9 -2.9 -0.5 -2.7 Q0.1 -2.4 0.4 -2.4 L0.9 -2.3" fill="#918a7d" fill-rule="evenodd" stroke="none"/>
  </g>
</svg>
