<?xml version="1.0" encoding="UTF-8" standalone="no"?>
<svg xmlns:xlink="http://www.w3.org/1999/xlink" height="2.8px" width="4.75px" xmlns="http://www.w3.org/2000/svg">
  <g transform="matrix(1.0, 0.0, 0.0, 1.0, 2.45, 2.0)">
    <path d="M1.1 -0.65 L1.2 -0.7 1.2 -0.7 1.55 -0.5 1.6 -0.5 1.6 -0.5 1.6 -0.5 1.6 -0.5 Q1.55 -0.55 1.55 -0.55 1.35 -0.6 1.25 -0.7 L1.2 -0.7 1.2 -0.75 1.2 -0.85 1.15 -0.9 1.2 -0.95 1.25 -1.0 1.25 -1.0 1.35 -1.0 1.6 -0.9 2.1 -0.7 2.15 -0.65 2.1 -0.6 Q1.95 -0.6 1.65 -0.7 L1.6 -0.75 1.55 -0.8 1.35 -0.9 1.3 -0.9 1.9 -0.6 Q2.0 -0.55 2.1 -0.45 L2.2 -0.4 2.2 -0.4 2.05 -0.4 1.75 -0.45 1.8 -0.4 1.85 -0.3 1.9 -0.2 1.95 -0.2 2.1 -0.25 2.2 -0.1 2.2 0.05 Q1.95 0.1 1.8 -0.05 L1.7 -0.15 1.7 -0.1 1.6 0.0 1.5 0.05 1.45 0.1 1.45 0.15 1.6 0.3 1.85 0.4 1.95 0.3 2.1 0.2 Q2.1 0.15 2.15 0.15 L2.1 0.2 Q2.15 0.2 2.15 0.3 L2.15 0.45 2.05 0.5 1.7 0.6 Q1.55 0.65 1.3 0.5 L1.25 0.45 0.9 0.2 0.85 0.25 0.9 0.35 0.95 0.4 0.85 0.45 Q0.8 0.35 0.7 0.35 L0.7 0.3 0.45 0.35 0.3 0.35 Q0.3 0.3 0.25 0.3 L-0.05 0.15 -0.35 0.1 -0.35 0.15 -0.5 0.15 Q-0.9 0.0 -1.3 0.0 L-1.35 0.0 -1.7 -0.1 Q-2.0 -0.15 -2.0 -0.2 L-2.1 -0.5 -2.15 -0.6 -2.2 -0.65 -2.35 -0.75 -2.3 -1.1 -2.3 -1.15 -2.1 -1.1 Q-1.85 -1.0 -1.8 -1.0 L-1.65 -1.05 Q-1.55 -1.05 -1.55 -0.95 L-1.65 -0.7 Q-1.65 -0.5 -1.05 -0.4 L-0.4 -0.35 0.4 -0.05 0.45 -0.05 0.75 0.0 0.9 -0.05 0.95 -0.05 0.95 -0.2 Q0.95 -0.25 0.85 -0.25 L0.65 -0.3 0.65 -0.35 0.65 -0.4 0.7 -0.4 0.7 -0.35 0.95 -0.5 1.0 -0.55 1.1 -0.6 1.1 -0.65 M-0.7 -1.9 L-0.55 -1.85 -0.55 -1.85 -0.5 -1.85 Q0.1 -1.5 0.45 -1.4 L0.45 -1.35 0.5 -1.35 0.6 -1.3 0.1 -1.3 0.05 -1.3 -0.4 -1.5 Q-0.55 -1.55 -0.65 -1.75 L-0.7 -1.9 M0.95 -0.5 Q0.95 -0.4 1.05 -0.35 1.1 -0.3 1.2 -0.25 L1.25 -0.25 1.5 -0.2 1.55 -0.2 1.55 -0.2 1.5 -0.2 1.5 -0.2 Q1.35 -0.25 1.2 -0.3 L1.15 -0.35 1.1 -0.4 0.95 -0.5" fill="#696760" fill-rule="evenodd" stroke="none"/>
    <path d="M1.1 -1.3 L1.2 -1.3 1.25 -1.3 1.25 -1.25 1.3 -1.1 1.25 -1.0 1.25 -1.0 1.2 -0.95 1.15 -0.9 1.2 -0.85 1.2 -0.75 1.2 -0.7 1.1 -0.65 1.15 -0.75 1.1 -0.8 1.15 -0.75 1.15 -0.85 1.1 -0.95 1.0 -1.05 1.0 -1.05 1.05 -1.15 1.1 -1.3 M-2.3 -1.15 L-2.25 -1.4 -2.2 -1.6 -2.2 -1.7 Q-2.1 -1.9 -1.55 -2.0 L-0.7 -1.9 -0.65 -1.75 Q-0.55 -1.55 -0.4 -1.5 L0.05 -1.3 0.1 -1.3 0.6 -1.3 0.65 -1.3 0.95 -1.35 Q0.75 -1.15 0.55 -1.2 0.55 -1.15 0.65 -1.1 L0.75 -1.1 0.7 -1.0 0.65 -0.95 0.6 -0.95 0.5 -1.0 0.4 -0.95 Q0.4 -0.9 0.4 -0.9 L0.6 -0.75 0.6 -0.75 0.9 -0.7 Q0.95 -0.7 1.05 -0.6 L1.1 -0.6 1.0 -0.55 0.95 -0.5 0.7 -0.35 0.7 -0.4 0.65 -0.4 Q0.65 -0.5 0.7 -0.5 L0.55 -0.5 0.4 -0.5 0.3 -0.5 -0.05 -0.55 Q-0.05 -0.35 0.15 -0.25 L0.45 -0.1 0.5 -0.1 Q0.65 -0.15 0.65 -0.2 L0.6 -0.25 0.5 -0.3 0.5 -0.35 0.65 -0.35 0.65 -0.3 0.85 -0.25 Q0.95 -0.25 0.95 -0.2 L0.95 -0.05 0.9 -0.05 0.75 0.0 0.45 -0.05 0.4 -0.05 -0.4 -0.35 -1.05 -0.4 Q-1.65 -0.5 -1.65 -0.7 L-1.55 -0.95 Q-1.55 -1.05 -1.65 -1.05 L-1.8 -1.0 Q-1.85 -1.0 -2.1 -1.1 L-2.3 -1.15 M0.95 -0.5 L0.95 -0.5" fill="#797872" fill-rule="evenodd" stroke="none"/>
    <path d="M1.1 -1.3 L1.05 -1.15 1.0 -1.05 1.0 -1.05 1.1 -0.95 1.15 -0.85 1.15 -0.75 1.1 -0.8 1.15 -0.75 1.1 -0.65 1.1 -0.6 1.05 -0.6 Q0.95 -0.7 0.9 -0.7 L0.6 -0.75 0.6 -0.75 0.4 -0.9 Q0.4 -0.9 0.4 -0.95 L0.5 -1.0 0.6 -0.95 0.65 -0.95 0.7 -1.0 0.75 -1.1 0.65 -1.1 Q0.55 -1.15 0.55 -1.2 0.75 -1.15 0.95 -1.35 L1.05 -1.3 1.1 -1.3 M0.65 -0.35 L0.5 -0.35 0.5 -0.3 0.6 -0.25 0.65 -0.2 Q0.65 -0.15 0.5 -0.1 L0.45 -0.1 0.15 -0.25 Q-0.05 -0.35 -0.05 -0.55 L0.3 -0.5 0.4 -0.5 0.55 -0.5 0.7 -0.5 Q0.65 -0.5 0.65 -0.4 L0.65 -0.35" fill="#898985" fill-rule="evenodd" stroke="none"/>
    <path d="M1.2 -0.7 L1.2 -0.75 1.2 -0.7 1.25 -0.7 Q1.35 -0.6 1.55 -0.55 1.55 -0.55 1.6 -0.5 L1.6 -0.5 1.6 -0.5 1.6 -0.5 1.55 -0.5 1.2 -0.7 1.2 -0.7 M1.25 -1.0 L1.3 -1.1 1.25 -1.25 1.25 -1.3 1.5 -1.15 1.5 -1.15 1.55 -1.1 1.65 -1.05 Q1.7 -1.0 1.8 -1.0 1.95 -0.9 2.0 -0.9 L2.1 -0.8 2.1 -0.7 1.6 -0.9 1.35 -1.0 1.25 -1.0 M2.15 -0.65 L2.2 -0.5 2.2 -0.4 2.25 -0.25 2.25 -0.2 2.2 -0.1 2.1 -0.25 1.95 -0.2 1.9 -0.2 1.85 -0.3 1.8 -0.4 1.75 -0.45 2.05 -0.4 2.2 -0.4 2.2 -0.4 2.1 -0.45 Q2.0 -0.55 1.9 -0.6 L1.3 -0.9 1.35 -0.9 1.55 -0.8 1.6 -0.75 1.65 -0.7 Q1.95 -0.6 2.1 -0.6 L2.15 -0.65 M2.2 0.05 L2.15 0.15 Q2.1 0.15 2.1 0.2 L1.95 0.3 1.85 0.4 1.6 0.3 1.45 0.15 1.45 0.1 1.5 0.05 1.6 0.0 1.7 -0.1 1.7 -0.15 1.8 -0.05 Q1.95 0.1 2.2 0.05 M2.15 0.45 Q2.1 0.65 1.75 0.7 L1.7 0.7 1.65 0.75 1.55 0.7 1.25 0.7 1.2 0.7 1.15 0.65 1.05 0.55 0.95 0.4 0.9 0.35 0.85 0.25 0.9 0.2 1.25 0.45 1.3 0.5 Q1.55 0.65 1.7 0.6 L2.05 0.5 2.15 0.45 M0.85 0.45 L0.65 0.55 0.5 0.55 0.45 0.55 0.0 0.45 Q-0.25 0.35 -0.35 0.15 L-0.35 0.1 -0.05 0.15 0.25 0.3 Q0.3 0.3 0.3 0.35 L0.45 0.35 0.7 0.3 0.7 0.35 Q0.8 0.35 0.85 0.45 M-1.35 0.0 L-1.55 0.0 Q-2.0 0.05 -2.15 -0.1 -2.35 -0.2 -2.35 -0.6 L-2.35 -0.75 -2.2 -0.65 -2.15 -0.6 -2.1 -0.5 -2.0 -0.2 Q-2.0 -0.15 -1.7 -0.1 L-1.35 0.0 M0.95 -0.5 L0.95 -0.5 1.1 -0.4 1.15 -0.35 1.2 -0.3 Q1.35 -0.25 1.5 -0.2 L1.5 -0.2 1.55 -0.2 1.55 -0.2 1.5 -0.2 1.25 -0.25 1.2 -0.25 Q1.1 -0.3 1.05 -0.35 0.95 -0.4 0.95 -0.5" fill="#5a564e" fill-rule="evenodd" stroke="none"/>
    <path d="M1.25 -1.3 L1.2 -1.3 1.1 -1.3 1.05 -1.3 0.95 -1.35 0.65 -1.3 0.6 -1.3 0.5 -1.35 0.45 -1.35 0.45 -1.4 Q0.1 -1.5 -0.5 -1.85 L-0.55 -1.85 -0.55 -1.85 M1.25 -1.3 L1.5 -1.15 1.5 -1.15 1.55 -1.1 1.65 -1.05 Q1.7 -1.0 1.8 -1.0 1.95 -0.9 2.0 -0.9 L2.1 -0.8 2.1 -0.7 2.15 -0.65 2.2 -0.5 2.2 -0.4 2.25 -0.25 2.25 -0.2 2.2 -0.1 2.2 0.05 2.15 0.15 2.1 0.2 Q2.15 0.2 2.15 0.3 L2.15 0.45 Q2.1 0.65 1.75 0.7 L1.7 0.7 1.65 0.75 1.55 0.7 1.25 0.7 1.2 0.7 1.15 0.65 1.05 0.55 0.95 0.4 0.85 0.45 0.65 0.55 0.5 0.55 0.45 0.55 0.0 0.45 Q-0.25 0.35 -0.35 0.15 L-0.5 0.15 Q-0.9 0.0 -1.3 0.0 L-1.35 0.0 -1.55 0.0 Q-2.0 0.05 -2.15 -0.1 -2.35 -0.2 -2.35 -0.6 L-2.35 -0.75 -2.3 -1.1 -2.3 -1.15 -2.25 -1.4 -2.2 -1.6" fill="none" stroke="#000000" stroke-linecap="round" stroke-linejoin="round" stroke-opacity="0.4509804" stroke-width="0.1"/>
  </g>
</svg>
