<?xml version="1.0" encoding="UTF-8" standalone="no"?>
<svg xmlns:xlink="http://www.w3.org/1999/xlink" height="3.15px" width="4.95px" xmlns="http://www.w3.org/2000/svg">
  <g transform="matrix(1.0, 0.0, 0.0, 1.0, 2.45, 2.3)">
    <path d="M0.0 -1.35 L0.05 -1.35 0.1 -1.25 0.15 -1.2 Q0.2 -1.15 0.3 -1.1 L0.35 -1.05 0.55 -0.95 0.9 -0.8 0.9 -0.75 0.8 -0.75 0.75 -0.7 0.65 -0.6 0.65 -0.6 Q0.5 -0.65 0.3 -0.85 0.2 -0.85 0.1 -1.0 L0.05 -1.05 -0.05 -1.05 -0.1 -1.1 -0.1 -1.3 -0.15 -1.35 -0.1 -1.35 -0.1 -1.4 -0.05 -1.35 -0.05 -1.4 0.0 -1.35 0.0 -1.35 M-0.5 -1.05 L-0.4 -1.0 -0.35 -0.95 -0.3 -0.9 -0.35 -0.8 Q-0.35 -0.7 -0.3 -0.7 L-0.45 -0.55 -0.4 -0.5 Q-1.15 -0.6 -1.15 -0.9 L-1.3 -0.95 -1.25 -1.05 -1.05 -1.05 -0.75 -1.05 -0.7 -1.05 -0.7 -1.05 -0.6 -1.05 -0.55 -1.05 -0.5 -1.05" fill="#493f3d" fill-rule="evenodd" stroke="none"/>
    <path d="M1.3 -1.3 L1.35 -1.3 2.05 -0.95 2.2 -0.8 Q2.45 -0.35 2.45 -0.05 L2.45 0.3 2.35 0.3 2.3 0.2 2.2 0.25 2.15 0.25 2.1 0.25 1.8 0.25 1.85 0.1 1.8 -0.05 1.65 -0.1 1.6 -0.15 1.5 -0.25 1.45 -0.3 1.35 -0.35 Q1.2 -0.4 1.1 -0.55 L1.1 -0.55 Q1.05 -0.65 0.95 -0.65 L0.85 -0.7 0.8 -0.75 0.9 -0.75 0.9 -0.8 0.55 -0.95 0.35 -1.05 0.3 -1.1 Q0.2 -1.15 0.15 -1.2 L0.1 -1.25 0.05 -1.35 0.0 -1.35 -0.05 -1.4 -0.1 -1.55 -0.15 -1.55 -0.15 -1.65 -0.2 -1.7 -0.2 -1.75 -0.2 -1.8 -0.2 -1.75 -0.15 -1.75 0.1 -1.6 Q0.55 -1.35 0.6 -1.35 L0.85 -1.4 1.2 -1.35 1.3 -1.3 M2.0 0.75 L1.55 0.8 0.65 0.6 0.45 0.6 0.05 0.5 -0.05 0.45 -0.05 0.3 Q0.2 0.45 0.5 0.45 L0.65 0.4 0.8 0.4 0.95 0.35 1.0 0.35 1.15 0.25 1.1 0.2 Q1.15 0.15 1.25 0.2 L1.3 0.15 1.45 0.2 1.5 0.25 1.55 0.3 1.5 0.35 1.5 0.4 1.45 0.4 1.5 0.6 1.75 0.7 2.0 0.75 M-1.45 0.1 L-1.5 0.1 -1.7 0.05 -1.7 0.0 -1.7 -0.25 -1.5 -0.2 -1.4 -0.2 -1.55 -0.1 -1.65 -0.05 -1.4 -0.05 -1.45 0.0 -1.45 0.1 M-0.4 -0.5 L-0.35 -0.5 0.4 -0.35 0.3 -0.25 0.3 -0.25 0.25 -0.25 0.15 -0.25 -0.1 -0.3 -0.4 -0.3 -1.15 -0.5 -1.25 -0.55 -1.35 -0.55 -1.5 -0.6 -1.5 -0.6 -1.6 -0.6 -1.65 -0.65 Q-1.65 -0.85 -1.45 -1.0 L-1.45 -1.05 -1.35 -0.95 -1.3 -0.95 -1.15 -0.9 Q-1.15 -0.6 -0.4 -0.5 M-2.0 -0.65 L-2.0 -0.65 -2.15 -0.7 -2.15 -0.9 -2.15 -1.0 -2.1 -1.1 -2.1 -1.25 Q-2.05 -1.2 -2.05 -1.15 L-2.0 -1.15 Q-2.0 -1.15 -1.95 -1.15 L-1.95 -1.15 -1.9 -0.65 -1.95 -0.65 -2.0 -0.65 M1.35 -1.2 L1.3 -1.2 1.3 -1.15 1.45 -1.05 1.55 -0.95 1.4 -0.9 1.4 -0.8 1.35 -0.8 1.35 -0.75 1.3 -0.65 1.3 -0.5 1.45 -0.5 Q1.55 -0.5 1.65 -0.4 L1.55 -0.4 1.55 -0.35 1.7 -0.3 1.9 -0.3 1.9 -0.25 1.85 -0.25 Q1.9 -0.2 2.05 -0.15 L2.15 -0.15 2.1 -0.3 2.05 -0.3 2.0 -0.35 2.0 -0.4 2.1 -0.4 Q2.15 -0.4 2.25 -0.35 L2.25 -0.4 2.15 -0.6 2.05 -0.75 Q1.8 -0.95 1.65 -1.05 L1.35 -1.2 M2.4 -0.1 L2.4 -0.05 2.4 -0.1" fill="#392f2e" fill-rule="evenodd" stroke="none"/>
    <path d="M2.45 0.3 L2.4 0.5 2.1 0.7 2.0 0.75 1.75 0.7 1.5 0.6 1.45 0.4 1.5 0.4 1.5 0.35 1.55 0.3 1.5 0.25 1.45 0.2 1.3 0.15 1.25 0.2 Q1.15 0.15 1.1 0.2 L1.15 0.25 1.0 0.35 0.95 0.35 0.8 0.4 0.65 0.4 0.5 0.45 Q0.2 0.45 -0.05 0.3 L-0.05 0.45 Q-0.3 0.4 -0.35 0.35 -0.55 0.15 -0.75 0.1 L-1.1 0.05 -1.35 0.1 -1.45 0.1 -1.45 0.0 -1.4 -0.05 -1.65 -0.05 -1.55 -0.1 -1.4 -0.2 -1.5 -0.2 -1.7 -0.25 -1.7 0.0 -1.7 0.05 -1.85 0.05 -2.1 -0.05 -2.35 -0.2 -2.4 -0.45 -2.4 -0.7 -2.35 -1.05 -2.3 -1.2 -2.3 -1.3 -2.25 -1.45 -2.2 -1.45 -2.2 -1.45 -2.1 -1.45 -2.25 -1.2 -2.3 -0.9 -2.35 -0.5 -2.3 -0.5 -2.25 -0.4 -2.25 -0.5 -2.15 -0.6 -2.15 -0.7 -2.0 -0.65 -2.0 -0.65 -1.95 -0.6 -2.05 -0.45 -1.75 -0.3 -1.5 -0.4 Q-1.45 -0.4 -1.4 -0.5 L-1.35 -0.55 -1.25 -0.55 -1.15 -0.5 -0.4 -0.3 -0.1 -0.3 0.15 -0.25 0.25 -0.25 0.3 -0.25 0.4 -0.2 Q0.45 -0.15 0.55 -0.15 L0.7 -0.2 0.8 -0.2 Q0.85 -0.15 0.9 -0.25 0.9 -0.3 0.95 -0.35 L0.95 -0.4 Q0.95 -0.45 1.05 -0.5 L1.1 -0.55 1.1 -0.55 Q1.2 -0.4 1.35 -0.35 L1.45 -0.3 1.5 -0.25 1.6 -0.15 1.65 -0.1 1.8 -0.05 1.85 0.1 1.8 0.25 2.1 0.25 2.15 0.25 2.2 0.25 2.3 0.2 2.35 0.3 2.45 0.3 M-2.2 -1.75 L-2.1 -1.85 -2.05 -1.85 -2.0 -1.9 -2.0 -1.9 -2.05 -1.75 -2.1 -1.75 -2.2 -1.75" fill="#272420" fill-rule="evenodd" stroke="none"/>
    <path d="M1.2 -1.35 L1.3 -1.3 1.2 -1.35 M-2.25 -1.45 L-2.25 -1.7 -2.2 -1.75 -2.1 -1.75 -2.05 -1.75 -1.95 -1.75 -1.9 -1.7 Q-1.8 -1.65 -1.75 -1.65 L-1.3 -1.75 -1.3 -1.65 Q-1.3 -1.45 -1.45 -1.35 -1.6 -1.3 -1.75 -1.3 L-1.9 -1.3 -2.0 -1.4 -2.05 -1.4 -2.1 -1.45 -2.1 -1.45 -2.2 -1.45 -2.2 -1.45 -2.25 -1.45 M-0.4 -2.15 L-0.4 -2.1 -0.35 -2.05 -0.3 -2.0 -0.25 -1.9 -0.25 -1.8 -0.2 -1.8 -0.2 -1.75 -0.2 -1.7 -0.15 -1.65 -0.15 -1.55 -0.1 -1.55 -0.05 -1.4 0.0 -1.35 0.0 -1.35 -0.05 -1.4 -0.05 -1.35 -0.1 -1.4 -0.1 -1.35 -0.15 -1.35 -0.15 -1.4 -0.2 -1.45 -0.2 -1.45 -0.25 -1.4 -0.3 -1.45 -0.4 -1.45 Q-0.4 -1.4 -0.45 -1.3 L-0.5 -1.3 -0.6 -1.25 -0.6 -1.25 Q-0.65 -1.25 -0.7 -1.3 L-0.55 -1.4 -0.6 -1.4 -0.65 -1.4 -0.65 -1.4 -0.7 -1.4 -0.75 -1.4 -0.8 -1.45 -0.85 -1.55 -0.65 -1.6 -0.6 -1.7 -0.7 -1.75 -0.85 -1.7 -0.9 -1.75 -0.95 -1.8 -0.75 -1.9 -0.75 -1.95 -0.75 -1.95 -0.8 -1.95 -0.8 -1.9 -0.85 -1.95 -0.85 -1.95 -0.95 -2.05 -0.75 -2.15 -0.75 -2.1 -0.5 -2.05 Q-0.45 -2.05 -0.4 -2.1 L-0.4 -2.15 M1.35 -1.2 L1.65 -1.05 Q1.8 -0.95 2.05 -0.75 L2.15 -0.6 2.25 -0.4 2.25 -0.35 Q2.15 -0.4 2.1 -0.4 L2.0 -0.4 2.0 -0.35 2.05 -0.3 2.1 -0.3 2.15 -0.15 2.05 -0.15 Q1.9 -0.2 1.85 -0.25 L1.9 -0.25 1.9 -0.3 1.7 -0.3 1.55 -0.35 1.55 -0.4 1.65 -0.4 Q1.55 -0.5 1.45 -0.5 L1.3 -0.5 1.3 -0.65 1.35 -0.75 1.35 -0.8 1.4 -0.8 1.4 -0.9 1.55 -0.95 1.45 -1.05 1.3 -1.15 1.3 -1.2 1.35 -1.2" fill="#8e7155" fill-rule="evenodd" stroke="none"/>
    <path d="M-2.0 -1.9 L-2.0 -1.9 -1.95 -1.95 -1.9 -2.0 -1.8 -2.05 -1.7 -2.15 -1.55 -2.25 -1.5 -2.25 -1.35 -2.3 -1.3 -2.3 -0.85 -2.3 -0.8 -2.3 -0.75 -2.3 -0.5 -2.25 -0.45 -2.25 -0.4 -2.15 -0.4 -2.1 Q-0.45 -2.05 -0.5 -2.05 L-0.75 -2.1 -0.75 -2.15 -0.95 -2.05 -0.85 -1.95 -0.85 -1.95 -0.8 -1.9 -0.8 -1.95 -0.75 -1.95 -0.75 -1.9 -0.95 -1.8 -0.9 -1.75 -0.85 -1.7 -0.7 -1.75 -0.6 -1.7 -0.65 -1.6 -0.85 -1.55 -0.8 -1.45 -0.75 -1.4 -0.7 -1.4 -0.65 -1.4 -0.65 -1.4 -0.6 -1.4 -0.55 -1.4 -0.7 -1.3 Q-0.65 -1.25 -0.6 -1.25 L-0.6 -1.25 -0.5 -1.3 -0.45 -1.3 -0.5 -1.2 -0.6 -1.1 -0.7 -1.05 -0.7 -1.05 -0.75 -1.05 -1.15 -1.15 Q-1.3 -1.15 -1.45 -1.05 L-1.45 -1.0 Q-1.65 -0.85 -1.65 -0.65 L-1.6 -0.6 -1.5 -0.6 -1.5 -0.6 -1.35 -0.55 -1.4 -0.5 Q-1.45 -0.4 -1.5 -0.4 L-1.75 -0.3 -2.05 -0.45 -1.95 -0.6 -2.0 -0.65 -1.95 -0.65 -1.9 -0.65 -1.95 -1.15 -1.95 -1.15 Q-2.0 -1.15 -2.0 -1.15 L-2.05 -1.15 Q-2.05 -1.2 -2.1 -1.25 L-2.1 -1.1 -2.15 -1.0 -2.15 -0.9 -2.15 -0.7 -2.15 -0.6 -2.25 -0.5 -2.25 -0.4 -2.3 -0.5 -2.35 -0.5 -2.3 -0.9 -2.25 -1.2 -2.1 -1.45 -2.1 -1.45 -2.05 -1.4 -2.0 -1.4 -1.9 -1.3 -1.75 -1.3 Q-1.6 -1.3 -1.45 -1.35 -1.3 -1.45 -1.3 -1.65 L-1.3 -1.75 -1.75 -1.65 Q-1.8 -1.65 -1.9 -1.7 L-1.95 -1.75 -2.05 -1.75 -2.0 -1.9 -2.0 -1.9 M0.65 -0.6 L0.65 -0.6 0.75 -0.7 0.8 -0.75 0.85 -0.7 0.95 -0.65 Q1.05 -0.65 1.1 -0.55 L1.1 -0.55 1.1 -0.55 1.05 -0.5 Q0.95 -0.45 0.95 -0.4 L0.95 -0.35 Q0.9 -0.3 0.9 -0.25 0.85 -0.15 0.8 -0.2 L0.7 -0.2 0.55 -0.15 Q0.45 -0.15 0.4 -0.2 L0.3 -0.25 0.3 -0.25 0.4 -0.35 0.45 -0.4 0.65 -0.6" fill="#464139" fill-rule="evenodd" stroke="none"/>
    <path d="M-0.15 -1.35 L-0.1 -1.3 -0.1 -1.1 -0.05 -1.05 0.05 -1.05 0.1 -1.0 Q0.2 -0.85 0.3 -0.85 0.5 -0.65 0.65 -0.6 L0.45 -0.4 0.4 -0.35 -0.35 -0.5 -0.4 -0.5 -0.45 -0.55 -0.3 -0.7 Q-0.35 -0.7 -0.35 -0.8 L-0.3 -0.9 -0.35 -0.95 -0.4 -1.0 -0.5 -1.05 Q-0.4 -1.1 -0.35 -1.15 L-0.3 -1.3 -0.2 -1.45 -0.15 -1.4 -0.15 -1.35" fill="#040403" fill-rule="evenodd" stroke="none"/>
    <path d="M-0.45 -1.3 Q-0.4 -1.4 -0.4 -1.45 L-0.3 -1.45 -0.25 -1.4 -0.2 -1.45 -0.2 -1.45 -0.3 -1.3 -0.35 -1.15 Q-0.4 -1.1 -0.5 -1.05 L-0.55 -1.05 -0.6 -1.05 -0.7 -1.05 -0.6 -1.1 -0.5 -1.2 -0.45 -1.3 M-1.3 -0.95 L-1.35 -0.95 -1.45 -1.05 Q-1.3 -1.15 -1.15 -1.15 L-0.75 -1.05 -1.05 -1.05 -1.25 -1.05 -1.3 -0.95" fill="#665e5c" fill-rule="evenodd" stroke="none"/>
    <path d="M1.2 -1.35 L1.3 -1.3 1.35 -1.3 2.05 -0.95 2.2 -0.8 Q2.45 -0.35 2.45 -0.05 L2.45 0.3 2.4 0.5 2.1 0.7 2.0 0.75 1.55 0.8 0.65 0.6 0.45 0.6 0.05 0.5 -0.05 0.45 Q-0.3 0.4 -0.35 0.35 -0.55 0.15 -0.75 0.1 L-1.1 0.05 -1.35 0.1 M-1.5 0.1 L-1.7 0.05 -1.85 0.05 -2.1 -0.05 -2.35 -0.2 -2.4 -0.45 -2.4 -0.7 -2.35 -1.05 -2.3 -1.2 -2.3 -1.3 -2.25 -1.45 -2.25 -1.7 -2.2 -1.75 -2.1 -1.85 M-0.2 -1.75 L-0.15 -1.75 0.1 -1.6 Q0.55 -1.35 0.6 -1.35 L0.85 -1.4 1.2 -1.35" fill="none" stroke="#000000" stroke-linecap="round" stroke-linejoin="round" stroke-opacity="0.4509804" stroke-width="0.1"/>
  </g>
</svg>
