<?xml version="1.0" encoding="UTF-8" standalone="no"?>
<svg xmlns:xlink="http://www.w3.org/1999/xlink" height="3.15px" width="4.95px" xmlns="http://www.w3.org/2000/svg">
  <g transform="matrix(1.0, 0.0, 0.0, 1.0, 2.45, 2.35)">
    <path d="M1.1 -0.85 L1.3 -0.9 Q1.55 -0.9 1.65 -0.7 L1.85 -0.5 2.0 -0.35 2.05 -0.3 2.0 -0.3 Q2.0 -0.1 1.75 -0.1 L1.65 -0.1 1.55 -0.1 1.6 -0.2 1.5 -0.2 1.45 -0.2 Q1.4 -0.2 1.35 -0.25 L1.3 -0.25 1.25 -0.25 1.2 -0.25 1.1 -0.25 1.05 -0.3 1.0 -0.35 0.9 -0.3 0.7 -0.25 0.6 -0.2 0.45 -0.3 0.55 -0.4 0.65 -0.5 0.6 -0.55 0.6 -0.6 0.5 -0.55 0.4 -0.6 0.35 -0.65 0.4 -0.75 0.45 -0.7 Q0.5 -0.65 0.5 -0.65 L0.55 -0.65 0.6 -0.7 0.6 -0.7 0.6 -0.8 0.65 -0.9 0.65 -0.9 0.5 -1.0 0.45 -1.0 0.4 -0.9 Q0.4 -0.9 0.35 -0.9 L0.3 -0.9 0.2 -0.8 0.1 -0.75 0.05 -0.7 0.0 -0.7 -0.1 -0.6 Q-0.15 -0.7 -0.25 -0.7 L-0.25 -0.7 -0.1 -0.85 -0.1 -0.9 -0.2 -0.9 -0.2 -1.0 -0.25 -1.05 -0.35 -1.05 -0.5 -1.0 -0.55 -0.95 -0.6 -1.0 -0.8 -0.95 -0.9 -0.9 -0.95 -0.95 -1.0 -1.0 -0.85 -1.1 -0.75 -1.2 -0.7 -1.2 -0.6 -1.25 -0.55 -1.3 -0.45 -1.35 -0.5 -1.4 -0.5 -1.5 -0.6 -1.4 Q-0.65 -1.4 -0.65 -1.4 L-0.7 -1.4 -0.75 -1.4 -0.85 -1.3 Q-0.9 -1.2 -1.0 -1.2 -1.1 -1.2 -1.15 -1.3 -1.15 -1.35 -1.25 -1.35 L-1.3 -1.4 -1.3 -1.45 -1.25 -1.55 -1.15 -1.55 Q-1.1 -1.55 -1.05 -1.6 L-1.05 -1.7 -0.8 -1.7 -0.6 -1.7 -0.55 -1.8 -0.4 -1.65 -0.35 -1.65 0.15 -1.25 0.2 -1.2 0.25 -1.15 0.2 -1.25 0.2 -1.3 0.3 -1.2 0.5 -1.05 0.7 -0.95 1.05 -0.85 1.1 -0.85 M1.0 -0.35 L1.1 -0.35 1.1 -0.35 1.15 -0.4 1.1 -0.35 1.0 -0.35 1.0 -0.35" fill="#00060e" fill-rule="evenodd" stroke="none"/>
    <path d="M0.3 -1.45 L0.5 -1.25 0.5 -1.2 0.75 -1.0 0.85 -0.95 Q0.95 -0.9 1.1 -0.85 L1.05 -0.85 0.7 -0.95 0.5 -1.05 0.3 -1.2 0.2 -1.3 0.2 -1.25 0.25 -1.15 0.2 -1.2 0.15 -1.25 -0.35 -1.65 -0.4 -1.65 -0.55 -1.8 -0.6 -1.7 -0.8 -1.7 -1.05 -1.7 -1.05 -1.6 Q-1.1 -1.55 -1.15 -1.55 L-1.25 -1.55 -1.3 -1.45 -1.3 -1.4 -1.25 -1.35 Q-1.15 -1.35 -1.15 -1.3 -1.1 -1.2 -1.0 -1.2 -0.9 -1.2 -0.85 -1.3 L-0.75 -1.4 -0.7 -1.4 -0.65 -1.4 Q-0.65 -1.4 -0.6 -1.4 L-0.5 -1.5 -0.5 -1.4 -0.45 -1.35 -0.55 -1.3 -0.6 -1.25 -0.7 -1.2 -0.75 -1.2 -0.85 -1.1 -1.0 -1.0 -0.95 -0.95 -0.9 -0.9 -0.8 -0.95 -0.6 -1.0 -0.55 -0.95 -0.5 -1.0 -0.35 -1.05 -0.25 -1.05 -0.2 -1.0 -0.2 -0.9 -0.1 -0.9 -0.1 -0.85 -0.25 -0.7 -0.25 -0.7 Q-0.15 -0.7 -0.1 -0.6 L0.0 -0.7 0.05 -0.7 0.1 -0.75 0.2 -0.8 0.3 -0.9 0.35 -0.9 Q0.4 -0.9 0.4 -0.9 L0.45 -1.0 0.5 -1.0 0.65 -0.9 0.65 -0.9 0.6 -0.8 0.6 -0.7 0.6 -0.7 0.55 -0.65 0.5 -0.65 Q0.5 -0.65 0.45 -0.7 L0.4 -0.75 0.35 -0.65 0.4 -0.6 0.5 -0.55 0.6 -0.6 0.6 -0.55 0.65 -0.5 0.55 -0.4 0.45 -0.3 0.6 -0.2 0.7 -0.25 0.9 -0.3 1.0 -0.35 1.05 -0.3 1.1 -0.25 1.2 -0.25 1.25 -0.25 1.3 -0.25 1.35 -0.25 Q1.4 -0.2 1.45 -0.2 L1.5 -0.2 1.6 -0.2 1.55 -0.1 1.65 -0.1 1.75 -0.1 Q2.0 -0.1 2.0 -0.3 L2.05 -0.3 2.15 -0.15 2.15 -0.15 2.35 0.15 2.35 0.2 2.4 0.25 2.35 0.25 1.7 0.2 1.65 0.2 1.15 0.1 1.05 0.1 0.85 0.05 0.8 0.0 0.75 0.0 0.5 0.05 0.3 0.0 0.25 0.0 0.15 0.05 -0.05 0.0 -0.15 -0.05 -0.35 -0.2 Q-0.45 -0.25 -0.65 -0.35 L-0.9 -0.35 -1.55 -0.35 -1.85 -0.35 -2.1 -0.45 -2.1 -0.55 -2.15 -0.65 -2.2 -1.0 -2.2 -1.15 -2.15 -1.25 -2.1 -1.35 -2.1 -1.65 -2.05 -1.9 -2.0 -1.95 -2.0 -1.95 -1.75 -2.15 Q-1.35 -2.35 -1.1 -2.35 L-1.05 -2.35 -0.95 -2.35 -0.85 -2.35 -0.85 -2.35 -0.8 -2.35 -0.75 -2.35 Q-0.65 -2.35 -0.3 -2.15 L-0.2 -1.9 -0.15 -1.75 -0.05 -1.6 Q0.2 -1.55 0.25 -1.5 L0.3 -1.5 0.3 -1.45" fill="#000204" fill-rule="evenodd" stroke="none"/>
    <path d="M1.1 -0.85 Q0.95 -0.9 0.85 -0.95 L0.75 -1.0 0.5 -1.2 0.5 -1.25 0.3 -1.45 0.95 -1.4 Q1.4 -1.35 1.65 -1.2 L1.9 -1.0 Q2.1 -0.9 2.2 -0.6 L2.35 -0.2 Q2.4 0.0 2.4 0.25 L2.35 0.2 2.35 0.15 2.15 -0.15 2.15 -0.15 2.05 -0.3 2.0 -0.35 1.85 -0.5 1.65 -0.7 Q1.55 -0.9 1.3 -0.9 L1.1 -0.85 M-2.0 -1.95 L-2.05 -1.9 -2.1 -1.65 -2.1 -1.35 -2.15 -1.25 -2.2 -1.15 -2.2 -1.0 -2.15 -0.65 -2.1 -0.55 -2.1 -0.45 -1.85 -0.35 -1.55 -0.35 -0.9 -0.35 -0.65 -0.35 Q-0.45 -0.25 -0.35 -0.2 L-0.15 -0.05 -0.05 0.0 0.15 0.05 0.25 0.0 0.3 0.0 0.5 0.05 0.75 0.0 0.8 0.0 0.85 0.05 1.05 0.1 1.15 0.1 1.65 0.2 1.7 0.2 2.35 0.25 2.4 0.25 2.45 0.35 2.4 0.45 2.3 0.5 2.2 0.55 2.1 0.6 2.05 0.6 Q2.0 0.75 1.7 0.75 L1.6 0.75 0.85 0.65 0.15 0.5 -0.05 0.5 -0.85 0.1 -1.05 0.05 -1.1 0.05 -1.1 0.05 -1.2 0.1 -1.3 0.1 -2.0 0.0 -2.35 -0.1 -2.4 -0.5 -2.35 -1.3 -2.25 -1.65 -2.25 -1.7 -2.0 -1.95" fill="#000000" fill-rule="evenodd" stroke="none"/>
    <path d="M1.0 -0.35 L1.0 -0.35 1.1 -0.35 1.15 -0.4 1.1 -0.35 1.1 -0.35 1.0 -0.35" fill="#2d2b3b" fill-rule="evenodd" stroke="none"/>
    <path d="M2.4 0.25 Q2.4 0.0 2.35 -0.2 L2.2 -0.6 Q2.1 -0.9 1.9 -1.0 L1.65 -1.2 Q1.4 -1.35 0.95 -1.4 L0.3 -1.45 0.3 -1.5 0.25 -1.5 Q0.2 -1.55 -0.05 -1.6 L-0.15 -1.75 -0.2 -1.9 -0.3 -2.15 M-2.25 -1.65 L-2.35 -1.3 -2.4 -0.5 -2.35 -0.1 -2.0 0.0 -1.3 0.1 -1.2 0.1 -1.1 0.05 -1.1 0.05 -1.05 0.05 -0.85 0.1 -0.05 0.5 0.15 0.5 0.85 0.65 1.6 0.75 1.7 0.75 Q2.0 0.75 2.05 0.6 L2.1 0.6 2.2 0.55 2.3 0.5 2.4 0.45 2.45 0.35 2.4 0.25" fill="none" stroke="#000000" stroke-linecap="round" stroke-linejoin="round" stroke-opacity="0.4509804" stroke-width="0.1"/>
  </g>
</svg>
