<?xml version="1.0" encoding="UTF-8" standalone="no"?>
<svg xmlns:xlink="http://www.w3.org/1999/xlink" height="3.15px" width="5.1px" xmlns="http://www.w3.org/2000/svg">
  <g transform="matrix(1.0, 0.0, 0.0, 1.0, 2.45, 2.3)">
    <path d="M1.1 -1.4 L1.2 -1.4 1.35 -1.35 Q1.45 -1.3 1.65 -1.15 L1.85 -1.0 1.9 -1.0 2.0 -0.95 2.15 -0.8 2.2 -0.6 Q2.25 -0.5 2.3 -0.45 L2.3 -0.4 2.35 -0.3 2.3 -0.3 2.2 -0.2 2.2 -0.2 Q2.2 -0.1 2.15 -0.1 L2.0 -0.15 Q1.95 -0.35 1.85 -0.45 L1.55 -0.75 1.3 -0.85 1.6 -0.6 2.0 -0.15 2.0 -0.1 2.05 -0.1 2.05 0.0 2.1 0.05 2.05 0.05 1.95 0.0 1.9 -0.05 1.85 -0.05 1.7 -0.3 Q1.55 -0.5 1.4 -0.5 L1.5 -0.35 1.45 -0.3 1.25 -0.55 1.0 -0.75 0.95 -0.75 0.95 -0.65 0.75 -0.7 0.7 -0.75 0.65 -0.85 0.7 -0.95 0.9 -1.2 0.9 -1.2 0.95 -1.3 1.1 -1.4 M-0.35 -1.75 L-0.25 -1.85 -0.25 -1.7 -0.15 -1.5 0.0 -1.35 Q-0.05 -1.2 -0.15 -0.95 L-0.3 -1.05 Q-0.45 -1.1 -0.45 -1.25 L-0.3 -1.25 -0.45 -1.4 Q-0.55 -1.5 -0.55 -1.6 L-0.35 -1.75 M0.2 -1.45 L0.25 -1.55 0.3 -1.55 0.3 -1.5 Q0.3 -1.3 0.4 -1.2 L0.6 -1.05 0.5 -0.9 0.5 -0.85 0.35 -1.0 0.3 -0.95 Q0.2 -0.95 0.15 -1.0 L0.05 -1.1 0.05 -1.1 0.1 -1.25 0.1 -1.35 0.1 -1.35 0.15 -1.45 0.2 -1.45 M-1.0 -2.0 L-0.95 -1.9 -0.9 -1.75 -0.9 -1.55 -0.9 -1.5 -1.1 -1.35 -1.2 -1.55 -1.15 -1.6 -1.1 -1.7 -1.15 -1.8 Q-1.3 -1.75 -1.45 -1.7 -1.3 -1.9 -1.2 -1.95 L-1.0 -2.0" fill="#6b5a3a" fill-rule="evenodd" stroke="none"/>
    <path d="M0.3 -1.5 L0.5 -1.55 0.6 -1.45 0.65 -1.4 0.8 -1.4 0.9 -1.4 1.05 -1.4 1.1 -1.4 0.95 -1.3 0.9 -1.2 0.9 -1.2 0.7 -0.95 0.6 -1.05 0.4 -1.2 Q0.3 -1.3 0.3 -1.5 M-0.6 -2.15 L-0.45 -2.0 -0.45 -1.95 -0.9 -1.55 -0.9 -1.75 -0.95 -1.9 -1.0 -2.0 -0.85 -2.05 Q-0.7 -2.05 -0.6 -2.15 M-0.25 -1.7 L0.1 -1.85 0.2 -1.45 0.15 -1.45 0.1 -1.35 0.1 -1.35 0.0 -1.35 -0.15 -1.5 -0.25 -1.7 M0.05 -1.1 L0.05 -1.1 0.15 -1.0 Q0.2 -0.95 0.3 -0.95 L0.35 -1.0 0.5 -0.85 0.4 -0.7 0.25 -0.55 0.2 -0.35 0.15 -0.35 Q0.1 -0.4 0.1 -0.5 0.05 -0.55 -0.05 -0.5 L-0.05 -0.55 0.0 -0.65 0.0 -0.7 0.05 -1.0 0.05 -1.1 M-0.15 -0.95 L-0.2 -0.9 -0.4 -0.4 -0.4 -0.4 -0.45 -0.25 -0.5 -0.35 -0.55 -0.35 -0.6 -0.25 -0.6 -0.25 -0.75 -0.35 -0.85 -0.55 Q-1.0 -0.75 -1.0 -0.8 L-0.95 -1.05 -0.95 -1.1 -0.85 -1.3 -0.65 -1.55 -0.55 -1.6 Q-0.55 -1.5 -0.45 -1.4 L-0.3 -1.25 -0.45 -1.25 Q-0.45 -1.1 -0.3 -1.05 L-0.15 -0.95 M0.75 -0.7 L0.95 -0.65 0.95 -0.75 1.0 -0.75 1.25 -0.55 1.45 -0.3 1.5 -0.35 1.4 -0.5 Q1.55 -0.5 1.7 -0.3 L1.85 -0.05 1.7 -0.05 1.65 0.0 1.7 0.05 1.75 0.15 1.5 0.2 1.3 0.15 1.15 0.2 0.95 0.05 Q0.8 0.05 0.8 0.1 L0.7 0.2 0.6 0.2 Q0.6 0.05 0.5 0.05 L0.5 0.0 Q0.5 -0.1 0.6 -0.3 0.65 -0.55 0.75 -0.6 L0.75 -0.7 M2.05 -0.1 L2.0 -0.1 2.0 -0.15 1.6 -0.6 1.3 -0.85 1.55 -0.75 1.85 -0.45 Q1.95 -0.35 2.0 -0.15 L2.0 -0.1 2.05 -0.1 M-1.1 -1.35 L-1.2 -1.25 Q-1.25 -1.25 -1.3 -1.3 -1.4 -1.3 -1.4 -1.25 L-1.4 -1.1 -1.5 -1.1 -1.6 -1.2 -1.6 -1.3 -1.45 -1.7 Q-1.3 -1.75 -1.15 -1.8 L-1.1 -1.7 -1.15 -1.6 -1.2 -1.55 -1.1 -1.35" fill="#4a3926" fill-rule="evenodd" stroke="none"/>
    <path d="M0.3 0.65 L0.0 0.55 -0.25 0.4 -0.45 0.2 Q-0.55 0.15 -0.75 0.1 L-1.0 0.05 -1.05 0.0 -1.1 0.0 -1.25 0.0 -1.65 0.05 -2.15 -0.05 Q-2.4 -0.15 -2.4 -0.4 -2.4 -0.75 -2.3 -1.05 L-2.35 -1.1 -2.35 -1.1 -2.3 -1.2 -2.3 -1.35 -2.25 -1.55 -2.1 -1.95 -1.9 -2.05 -1.85 -1.9 -1.8 -1.75 -1.8 -1.65 -1.85 -1.65 -2.0 -1.65 Q-2.05 -1.65 -2.05 -1.55 -2.05 -1.4 -1.9 -1.4 -1.85 -1.4 -1.8 -1.45 L-1.85 -1.5 -1.8 -1.55 -1.75 -1.6 Q-1.7 -1.6 -1.7 -1.4 -1.7 -1.3 -1.75 -1.2 L-1.95 -1.3 -2.15 -1.25 Q-2.25 -1.2 -2.25 -1.05 L-2.15 -0.95 -2.05 -1.0 Q-1.95 -1.0 -1.95 -0.9 -1.95 -0.8 -2.05 -0.75 L-1.9 -0.65 Q-1.8 -0.55 -1.75 -0.55 -1.7 -0.55 -1.7 -0.65 L-1.6 -0.75 -1.55 -0.8 -1.5 -0.8 -1.4 -0.9 -1.15 -1.1 -1.05 -1.2 -0.9 -1.35 Q-0.85 -1.35 -0.85 -1.3 L-1.2 -0.8 Q-1.35 -0.5 -1.35 -0.3 L-1.35 -0.25 -1.15 -0.1 -1.1 -0.1 -1.0 -0.2 -0.95 -0.2 Q-1.0 -0.1 -0.95 -0.05 L-0.85 -0.05 -0.85 0.0 -0.8 0.0 Q-0.8 0.0 -0.75 -0.05 L-0.7 -0.05 -0.55 -0.05 -0.45 -0.25 -0.4 -0.4 -0.4 -0.4 -0.2 -0.9 -0.15 -0.95 Q-0.05 -1.2 0.0 -1.35 L0.1 -1.35 0.1 -1.25 0.05 -1.1 0.05 -1.0 0.0 -0.7 -0.1 -0.65 Q-0.25 -0.5 -0.3 -0.25 L-0.35 0.0 -0.4 0.1 -0.4 0.1 -0.35 0.1 -0.3 0.15 Q-0.2 0.25 -0.2 0.25 L-0.05 0.35 0.05 0.35 0.1 0.3 0.15 0.15 0.2 -0.1 Q0.2 -0.35 0.25 -0.55 L0.4 -0.7 0.5 -0.85 0.5 -0.9 0.6 -1.05 0.7 -0.95 0.65 -0.85 0.65 -0.75 0.6 -0.75 0.45 -0.3 Q0.3 0.0 0.3 0.15 L0.3 0.3 0.25 0.3 0.3 0.45 0.3 0.65" fill="#191c1d" fill-rule="evenodd" stroke="none"/>
    <path d="M2.35 -0.3 L2.4 -0.2 Q2.6 0.2 2.6 0.5 L2.45 0.55 2.3 0.55 2.25 0.6 2.05 0.7 1.55 0.75 0.45 0.65 0.3 0.65 0.3 0.45 0.25 0.3 0.3 0.3 0.3 0.15 Q0.3 0.0 0.45 -0.3 L0.6 -0.75 0.65 -0.75 0.65 -0.85 0.7 -0.75 0.75 -0.7 0.75 -0.6 Q0.65 -0.55 0.6 -0.3 0.5 -0.1 0.5 0.0 L0.5 0.05 Q0.6 0.05 0.6 0.2 L0.7 0.2 0.8 0.1 Q0.8 0.05 0.95 0.05 L1.15 0.2 1.3 0.15 1.5 0.2 1.75 0.15 1.7 0.05 1.65 0.0 1.7 -0.05 1.85 -0.05 1.9 -0.05 1.95 0.0 2.05 0.05 2.1 0.05 2.05 0.0 2.05 -0.1 2.0 -0.1 2.0 -0.15 2.15 -0.1 Q2.2 -0.1 2.2 -0.2 L2.2 -0.2 2.3 -0.3 2.35 -0.3 M-1.9 -2.05 L-1.65 -2.15 -1.2 -2.3 -0.65 -2.2 -0.6 -2.15 Q-0.7 -2.05 -0.85 -2.05 L-1.0 -2.0 -1.2 -1.95 Q-1.3 -1.9 -1.45 -1.7 L-1.6 -1.3 -1.6 -1.2 -1.5 -1.1 -1.4 -1.1 -1.4 -1.25 Q-1.4 -1.3 -1.3 -1.3 -1.25 -1.25 -1.2 -1.25 L-1.1 -1.35 -0.9 -1.5 -0.9 -1.55 -0.45 -1.95 -0.35 -1.75 -0.55 -1.6 -0.65 -1.55 -0.85 -1.3 -0.95 -1.1 -0.95 -1.05 -1.0 -0.8 Q-1.0 -0.75 -0.85 -0.55 L-0.75 -0.35 -0.6 -0.25 -0.6 -0.25 -0.55 -0.35 -0.5 -0.35 -0.45 -0.25 -0.55 -0.05 -0.7 -0.05 -0.75 -0.05 Q-0.8 0.0 -0.8 0.0 L-0.85 0.0 -0.85 -0.05 -0.95 -0.05 Q-1.0 -0.1 -0.95 -0.2 L-1.0 -0.2 -1.1 -0.1 -1.15 -0.1 -1.35 -0.25 -1.35 -0.3 Q-1.35 -0.5 -1.2 -0.8 L-0.85 -1.3 Q-0.85 -1.35 -0.9 -1.35 L-1.05 -1.2 -1.15 -1.1 -1.4 -0.9 -1.5 -0.8 -1.55 -0.8 -1.6 -0.75 -1.7 -0.65 Q-1.7 -0.55 -1.75 -0.55 -1.8 -0.55 -1.9 -0.65 L-2.05 -0.75 Q-1.95 -0.8 -1.95 -0.9 -1.95 -1.0 -2.05 -1.0 L-2.15 -0.95 -2.25 -1.05 Q-2.25 -1.2 -2.15 -1.25 L-1.95 -1.3 -1.75 -1.2 Q-1.7 -1.3 -1.7 -1.4 -1.7 -1.6 -1.75 -1.6 L-1.8 -1.55 -1.85 -1.5 -1.8 -1.45 Q-1.85 -1.4 -1.9 -1.4 -2.05 -1.4 -2.05 -1.55 -2.05 -1.65 -2.0 -1.65 L-1.85 -1.65 -1.8 -1.65 -1.8 -1.75 -1.85 -1.9 -1.9 -2.05 M0.25 -0.55 Q0.2 -0.35 0.2 -0.1 L0.15 0.15 0.1 0.3 0.05 0.35 -0.05 0.35 -0.2 0.25 Q-0.2 0.25 -0.3 0.15 L-0.35 0.1 -0.4 0.1 -0.4 0.1 -0.35 0.0 -0.3 -0.25 Q-0.25 -0.5 -0.1 -0.65 L0.0 -0.7 0.0 -0.65 -0.05 -0.55 -0.05 -0.5 Q0.05 -0.55 0.1 -0.5 0.1 -0.4 0.15 -0.35 L0.2 -0.35 0.25 -0.55" fill="#2a334d" fill-rule="evenodd" stroke="none"/>
    <path d="M0.3 -1.5 L0.5 -1.55 0.6 -1.45 0.65 -1.4 0.8 -1.4 0.9 -1.4 1.05 -1.4 1.1 -1.4 1.2 -1.4 1.35 -1.35 Q1.45 -1.3 1.65 -1.15 L1.85 -1.0 1.9 -1.0 2.0 -0.95 2.15 -0.8 2.2 -0.6 Q2.25 -0.5 2.3 -0.45 L2.3 -0.4 2.35 -0.3 2.4 -0.2 Q2.6 0.2 2.6 0.5 L2.45 0.55 2.3 0.55 2.25 0.6 2.05 0.7 1.55 0.75 0.45 0.65 0.3 0.65 0.0 0.55 -0.25 0.4 -0.45 0.2 Q-0.55 0.15 -0.75 0.1 L-1.0 0.05 -1.05 0.0 -1.1 0.0 -1.25 0.0 -1.65 0.05 -2.15 -0.05 Q-2.4 -0.15 -2.4 -0.4 -2.4 -0.75 -2.3 -1.05 L-2.35 -1.1 -2.35 -1.1 -2.3 -1.2 -2.3 -1.35 M-0.35 -1.75 L-0.25 -1.85 -0.25 -1.7 0.1 -1.85 0.2 -1.45 0.25 -1.55 0.3 -1.55 0.3 -1.5" fill="none" stroke="#000000" stroke-linecap="round" stroke-linejoin="round" stroke-opacity="0.4509804" stroke-width="0.1"/>
  </g>
</svg>
