<?xml version="1.0" encoding="UTF-8" standalone="no"?>
<svg xmlns:xlink="http://www.w3.org/1999/xlink" height="4.65px" width="2.65px" xmlns="http://www.w3.org/2000/svg">
  <g transform="matrix(1.0, 0.0, 0.0, 1.0, 1.3, 2.15)">
    <path d="M0.0 -1.95 L0.0 -1.75 -0.05 -1.8 -0.1 -1.9 0.0 -1.95 M0.1 -1.75 L0.15 -1.9 0.2 -1.85 0.15 -1.75 Q0.15 -1.75 0.1 -1.75 M0.3 -1.7 L0.35 -1.6 0.3 -1.4 0.25 -1.45 0.25 -1.55 0.3 -1.7 M0.4 -1.05 L0.35 -1.05 0.35 -1.05 0.3 -1.0 0.25 -1.05 0.25 -1.25 0.2 -1.25 0.25 -1.3 0.3 -1.25 Q0.35 -1.2 0.35 -1.2 L0.4 -1.1 0.4 -1.05 M-0.2 -1.75 L-0.15 -1.8 -0.1 -1.65 -0.1 -1.5 -0.15 -1.5 -0.2 -1.75 M0.15 -1.05 L0.2 -1.0 0.2 -0.95 0.25 -0.9 0.25 -0.8 0.2 -0.75 0.15 -0.8 0.15 -0.9 0.15 -0.95 0.15 -1.05 M-0.1 -0.85 L-0.05 -0.9 -0.05 -1.0 0.0 -1.1 0.05 -1.0 0.0 -0.95 0.0 -0.9 0.0 -0.85 Q0.0 -0.8 -0.1 -0.85 M-0.1 -1.15 L-0.1 -1.1 -0.15 -1.1 -0.2 -1.2 -0.25 -1.2 -0.2 -1.25 -0.2 -1.35 Q-0.2 -1.3 -0.15 -1.35 L-0.1 -1.35 -0.05 -1.35 -0.1 -1.3 -0.1 -1.15" fill="#9f9690" fill-rule="evenodd" stroke="none"/>
    <path d="M-0.75 -1.6 L-0.65 -1.7 -0.5 -1.95 Q-0.25 -2.2 -0.05 -2.15 L0.0 -2.1 0.05 -2.1 0.1 -2.1 0.15 -2.1 0.2 -2.05 0.4 -2.0 0.5 -1.95 0.55 -1.95 Q0.7 -1.95 0.85 -1.65 L0.9 -1.5 1.0 -1.05 1.0 -1.0 1.1 -0.15 1.2 0.15 1.25 0.5 1.25 1.5 1.2 1.95 Q1.1 2.1 0.85 2.25 0.55 2.45 0.35 2.45 L0.0 2.35 -0.1 2.3 -0.15 2.25 -0.25 2.25 -0.3 2.2 -0.4 2.1 -0.45 2.05 -0.5 2.0 -0.5 1.95 -0.55 1.9 -0.6 1.85 -0.9 1.4 -1.15 1.0 Q-1.2 1.0 -1.2 0.65 -1.2 0.4 -1.0 0.05 -0.85 -0.25 -0.85 -0.55 L-0.85 -1.1 Q-0.9 -1.3 -0.75 -1.6 M0.15 -1.9 L0.05 -1.85 0.0 -1.95 -0.1 -1.9 -0.15 -1.85 -0.15 -1.8 -0.2 -1.75 -0.25 -1.65 -0.45 -1.5 -0.45 -1.5 -0.5 -1.45 -0.55 -1.35 -0.6 -1.1 -0.55 -0.85 -0.5 -0.75 -0.45 -0.7 -0.4 -0.65 -0.45 -0.5 -0.45 -0.5 -0.5 -0.45 Q-0.5 -0.45 -0.55 -0.45 L-0.55 -0.45 -0.6 -0.45 -0.65 -0.4 Q-0.7 -0.2 -0.85 0.0 L-0.85 0.05 -0.95 0.25 -0.85 0.4 -0.9 0.45 -0.95 0.45 -0.95 0.65 -0.75 1.15 Q-0.6 1.5 -0.4 1.75 L-0.4 1.7 -0.3 1.65 -0.3 1.6 -0.25 1.55 -0.2 1.45 -0.2 1.4 -0.1 1.35 -0.1 1.35 0.0 1.35 0.05 1.35 0.05 1.4 0.1 1.45 0.15 1.55 0.15 1.6 0.2 1.7 0.25 1.75 0.25 1.85 0.35 1.65 0.4 1.55 0.45 1.45 Q0.5 1.2 0.6 1.05 L0.6 1.0 0.55 0.95 0.55 0.65 0.5 0.6 0.4 0.35 0.4 0.2 Q0.35 0.15 0.35 0.1 L0.35 0.05 0.3 0.0 0.3 -0.05 0.3 -0.15 0.2 -0.1 0.2 -0.1 Q0.15 -0.1 0.15 -0.15 L0.15 -0.2 0.1 -0.3 0.2 -0.25 0.3 -0.25 0.35 -0.25 0.4 -0.35 0.4 -0.4 0.4 -0.6 0.45 -0.65 0.45 -0.8 0.4 -0.75 0.4 -0.75 Q0.35 -0.8 0.3 -0.8 L0.3 -0.9 0.3 -1.0 0.35 -1.05 0.35 -1.05 0.4 -1.05 0.5 -1.05 0.55 -0.95 0.55 -0.95 0.55 -0.75 Q0.6 -0.65 0.55 -0.6 L0.45 -0.55 Q0.4 -0.55 0.4 -0.5 0.45 -0.4 0.55 -0.4 L0.65 -0.45 0.65 -0.5 Q0.75 -0.55 0.75 -0.8 L0.7 -1.1 0.6 -1.25 0.55 -1.25 0.4 -1.5 0.35 -1.6 0.3 -1.7 0.25 -1.75 0.2 -1.85 0.15 -1.9 M-0.15 -1.1 L-0.1 -0.95 -0.15 -0.9 -0.2 -0.9 -0.25 -1.05 -0.25 -1.1 -0.35 -1.2 -0.3 -1.2 -0.25 -1.2 -0.2 -1.2 -0.15 -1.1" fill="#201918" fill-rule="evenodd" stroke="none"/>
    <path d="M0.0 -1.75 L0.0 -1.5 -0.1 -1.5 -0.1 -1.65 -0.15 -1.8 -0.15 -1.85 -0.1 -1.9 -0.05 -1.8 0.0 -1.75 M0.15 -1.5 L0.1 -1.65 0.1 -1.75 Q0.15 -1.75 0.15 -1.75 L0.2 -1.85 0.25 -1.75 0.3 -1.7 0.25 -1.55 0.25 -1.45 0.15 -1.5" fill="#d0c4bc" fill-rule="evenodd" stroke="none"/>
    <path d="M0.0 -1.95 L0.05 -1.85 0.15 -1.9 0.1 -1.75 0.1 -1.65 0.15 -1.5 0.1 -1.5 0.05 -1.5 0.0 -1.5 0.0 -1.75 0.0 -1.95 M0.35 -1.6 L0.4 -1.5 0.55 -1.25 0.6 -1.25 0.7 -1.1 0.75 -0.8 Q0.75 -0.55 0.65 -0.5 L0.65 -0.45 0.55 -0.4 Q0.45 -0.4 0.4 -0.5 0.4 -0.55 0.45 -0.55 L0.55 -0.6 Q0.6 -0.65 0.55 -0.75 L0.6 -0.6 0.65 -0.8 0.65 -1.1 0.6 -1.2 0.55 -1.2 Q0.5 -1.1 0.55 -0.95 L0.55 -0.95 0.5 -1.05 0.4 -1.05 0.4 -1.1 0.35 -1.2 0.35 -1.2 0.4 -1.25 0.4 -1.25 0.5 -1.25 0.5 -1.35 0.3 -1.4 0.35 -1.6 M0.3 -1.0 L0.3 -0.9 0.3 -0.8 Q0.35 -0.8 0.4 -0.75 L0.4 -0.75 0.45 -0.8 0.45 -0.65 0.4 -0.6 0.4 -0.6 0.35 -0.5 0.4 -0.45 0.4 -0.4 0.4 -0.35 0.35 -0.25 0.3 -0.25 0.2 -0.25 0.1 -0.3 0.0 -0.3 Q-0.1 -0.3 -0.15 -0.35 L-0.2 -0.45 -0.2 -0.6 -0.15 -0.6 -0.2 -0.7 -0.2 -0.75 -0.25 -0.8 -0.3 -0.95 -0.2 -0.9 -0.15 -0.9 -0.1 -0.8 0.0 -0.75 0.05 -0.65 0.05 -0.6 Q0.0 -0.55 -0.05 -0.6 L-0.15 -0.6 -0.1 -0.55 0.05 -0.35 0.05 -0.35 0.1 -0.35 0.1 -0.35 0.15 -0.35 0.3 -0.45 0.35 -0.5 0.25 -0.55 0.25 -0.5 0.2 -0.5 0.15 -0.55 0.15 -0.65 0.2 -0.7 0.2 -0.7 0.3 -0.75 0.3 -0.75 0.3 -0.8 0.25 -0.8 0.25 -0.9 0.2 -0.95 0.2 -1.0 0.15 -1.05 0.2 -1.05 0.25 -1.05 0.25 -1.1 0.2 -1.15 0.2 -1.25 0.25 -1.25 0.25 -1.05 0.3 -1.0 M-0.4 -0.65 L-0.45 -0.7 -0.5 -0.75 -0.55 -0.85 -0.6 -1.1 -0.55 -1.35 -0.5 -1.45 -0.45 -1.5 -0.45 -1.5 -0.25 -1.65 -0.2 -1.75 -0.15 -1.5 -0.35 -1.5 -0.35 -1.4 -0.3 -1.4 -0.25 -1.4 -0.2 -1.35 -0.2 -1.25 -0.25 -1.2 -0.3 -1.2 -0.35 -1.2 Q-0.35 -1.35 -0.4 -1.4 L-0.45 -1.4 -0.5 -1.35 -0.5 -1.05 -0.45 -0.8 -0.4 -0.8 -0.4 -0.95 -0.35 -0.75 -0.25 -0.7 -0.25 -0.6 Q-0.25 -0.55 -0.35 -0.6 L-0.4 -0.65 M-0.1 -0.85 L-0.1 -0.9 -0.15 -0.9 -0.1 -0.95 -0.15 -1.1 -0.1 -1.1 -0.1 -1.15 -0.05 -1.1 Q-0.05 -1.1 0.0 -1.1 L0.0 -1.1 -0.05 -1.0 -0.05 -0.9 -0.1 -0.85 M-0.35 -1.15 L-0.35 -1.2 -0.35 -1.15 M-0.05 -1.35 L-0.05 -1.2 Q-0.05 -1.15 -0.1 -1.15 L-0.1 -1.3 -0.05 -1.35" fill="#706a66" fill-rule="evenodd" stroke="none"/>
    <path d="M0.0 -1.5 L0.05 -1.5 0.1 -1.5 0.15 -1.5 0.25 -1.45 0.3 -1.4 0.5 -1.35 0.5 -1.25 0.4 -1.25 0.4 -1.25 0.35 -1.2 0.35 -1.2 Q0.35 -1.2 0.3 -1.25 L0.25 -1.3 0.2 -1.25 0.2 -1.15 0.25 -1.1 0.25 -1.05 0.2 -1.05 0.15 -1.05 0.15 -0.95 0.15 -0.9 0.15 -0.8 0.2 -0.75 0.25 -0.8 0.3 -0.8 0.3 -0.75 0.3 -0.75 0.2 -0.7 0.2 -0.7 0.15 -0.65 0.15 -0.55 0.2 -0.5 0.25 -0.5 0.25 -0.55 0.35 -0.5 0.3 -0.45 0.15 -0.35 0.1 -0.35 0.1 -0.35 0.05 -0.35 0.05 -0.35 -0.1 -0.55 -0.15 -0.6 -0.05 -0.6 Q0.0 -0.55 0.05 -0.6 L0.05 -0.65 0.0 -0.75 -0.1 -0.8 -0.15 -0.9 -0.1 -0.9 -0.1 -0.85 Q0.0 -0.8 0.0 -0.85 L0.0 -0.9 0.05 -1.0 0.0 -1.1 0.0 -1.1 Q-0.05 -1.1 -0.05 -1.1 L-0.1 -1.15 Q-0.05 -1.15 -0.05 -1.2 L-0.05 -1.35 -0.1 -1.35 -0.15 -1.35 Q-0.2 -1.3 -0.2 -1.35 L-0.25 -1.4 -0.3 -1.4 -0.35 -1.4 -0.35 -1.5 -0.15 -1.5 -0.1 -1.5 0.0 -1.5 M0.55 -0.75 L0.55 -0.95 0.55 -0.95 0.55 -0.95 Q0.5 -1.1 0.55 -1.2 L0.6 -1.2 0.65 -1.1 0.65 -0.8 0.6 -0.6 0.55 -0.75 M-0.4 -0.95 L-0.4 -0.8 -0.45 -0.8 -0.5 -1.05 -0.5 -1.35 -0.45 -1.4 -0.4 -1.4 Q-0.35 -1.35 -0.35 -1.2 L-0.35 -1.15 -0.35 -1.1 -0.4 -1.1 -0.4 -0.95" fill="#4d4946" fill-rule="evenodd" stroke="none"/>
    <path d="M0.3 -0.9 L0.3 -0.8 0.3 -0.9 M-0.2 -0.75 L-0.2 -0.7 -0.15 -0.6 -0.2 -0.6 -0.2 -0.7 -0.2 -0.75 M0.0 -0.9 L0.0 -0.95 0.05 -1.0 0.0 -0.9" fill="#2a2a2a" fill-rule="evenodd" stroke="none"/>
    <path d="M0.4 -0.6 L0.4 -0.4 0.4 -0.45 0.35 -0.5 0.4 -0.6 0.4 -0.6 M0.15 -0.9 L0.15 -0.8 0.15 -0.9" fill="#3d3d3d" fill-rule="evenodd" stroke="none"/>
    <path d="M0.1 -0.3 L0.15 -0.2 0.15 -0.15 Q0.15 -0.1 0.2 -0.1 L0.2 -0.1 0.3 -0.15 0.3 -0.05 0.3 0.0 0.35 0.05 0.35 0.1 Q0.35 0.15 0.4 0.2 L0.4 0.35 0.5 0.6 0.55 0.65 0.55 0.95 0.6 1.0 0.6 1.05 Q0.5 1.2 0.45 1.45 L0.4 1.55 0.35 1.65 0.25 1.85 0.25 1.75 0.2 1.7 0.15 1.6 0.15 1.55 0.1 1.45 0.05 1.4 0.05 1.35 0.0 1.35 -0.1 1.35 -0.1 1.35 -0.2 1.4 -0.2 1.45 -0.25 1.55 -0.3 1.6 -0.3 1.65 -0.4 1.7 -0.4 1.75 Q-0.6 1.5 -0.75 1.15 L-0.95 0.65 -0.95 0.45 -0.9 0.45 -0.85 0.4 -0.95 0.25 -0.85 0.05 -0.85 0.0 Q-0.7 -0.2 -0.65 -0.4 L-0.6 -0.45 -0.55 -0.45 -0.7 -0.2 Q-0.85 0.1 -0.9 0.3 L-0.75 0.4 -0.7 0.5 -0.7 0.65 -0.65 0.75 -0.5 0.9 -0.35 0.75 Q-0.3 0.7 -0.25 0.7 L-0.25 0.7 -0.3 0.6 -0.35 0.55 -0.45 0.55 -0.35 0.45 -0.25 0.5 -0.15 0.4 -0.15 0.35 Q-0.05 0.15 0.0 -0.1 L-0.25 -0.3 Q-0.45 -0.45 -0.5 -0.45 L-0.45 -0.5 -0.45 -0.5 -0.4 -0.65 -0.35 -0.6 Q-0.25 -0.55 -0.25 -0.6 L-0.25 -0.7 -0.35 -0.75 -0.4 -0.95 -0.4 -1.1 -0.35 -1.1 -0.35 -1.15 -0.35 -1.2 -0.25 -1.1 -0.25 -1.05 -0.2 -0.9 -0.15 -0.9 -0.2 -0.9 -0.3 -0.95 -0.25 -0.8 -0.2 -0.75 -0.2 -0.7 -0.2 -0.6 -0.2 -0.45 -0.15 -0.35 Q-0.1 -0.3 0.0 -0.3 L0.1 -0.3" fill="#332826" fill-rule="evenodd" stroke="none"/>
    <path d="M-0.55 -0.45 L-0.55 -0.45 Q-0.5 -0.45 -0.5 -0.45 -0.45 -0.45 -0.25 -0.3 L0.0 -0.1 Q-0.05 0.15 -0.15 0.35 L-0.15 0.4 -0.25 0.5 -0.35 0.45 -0.45 0.55 -0.35 0.55 -0.3 0.6 -0.25 0.7 -0.25 0.7 Q-0.3 0.7 -0.35 0.75 L-0.5 0.9 -0.65 0.75 -0.7 0.65 -0.7 0.5 -0.75 0.4 -0.9 0.3 Q-0.85 0.1 -0.7 -0.2 L-0.55 -0.45" fill="#41322a" fill-rule="evenodd" stroke="none"/>
    <path d="M-0.75 -1.6 Q-0.9 -1.3 -0.85 -1.1 L-0.85 -0.55 Q-0.85 -0.25 -1.0 0.05 -1.2 0.4 -1.2 0.65 -1.2 1.0 -1.15 1.0 L-0.9 1.4 -0.6 1.85 -0.55 1.9 -0.5 1.95 -0.5 2.0 -0.45 2.05 -0.4 2.1 -0.3 2.2 -0.25 2.25 -0.15 2.25 -0.1 2.3 0.0 2.35 0.35 2.45 Q0.55 2.45 0.85 2.25 1.1 2.1 1.2 1.95 L1.25 1.5 1.25 0.5 1.2 0.15 1.1 -0.15 1.0 -1.0 1.0 -1.05 0.9 -1.5 0.85 -1.65" fill="none" stroke="#000000" stroke-linecap="round" stroke-linejoin="round" stroke-opacity="0.4509804" stroke-width="0.1"/>
  </g>
</svg>
