<?xml version="1.0" encoding="UTF-8" standalone="no"?>
<svg xmlns:xlink="http://www.w3.org/1999/xlink" height="4.4px" width="2.65px" xmlns="http://www.w3.org/2000/svg">
  <g transform="matrix(1.0, 0.0, 0.0, 1.0, 1.3, 2.15)">
    <path d="M-0.55 -1.6 L-0.55 -1.7 -0.5 -1.75 -0.3 -1.95 -0.3 -1.95 -0.25 -2.0 -0.25 -2.0 -0.2 -2.05 -0.15 -2.05 -0.15 -2.05 0.0 -2.05 0.2 -2.0 0.2 -2.0 0.25 -2.0 0.3 -1.95 0.35 -1.95 0.4 -1.9 0.5 -1.85 0.5 -1.8 0.55 -1.75 0.6 -1.75 0.6 -1.7 0.65 -1.65 0.7 -1.6 0.7 -1.45 0.7 -1.35 0.65 -1.35 0.65 -1.2 0.6 -1.05 0.65 -1.05 0.6 -0.95 0.6 -0.9 0.65 -0.9 0.65 -0.85 0.65 -0.8 0.7 -0.75 0.65 -0.7 0.7 -0.55 0.7 -0.5 0.7 -0.4 0.65 -0.4 Q0.55 -0.35 0.55 -0.4 L0.55 -0.45 Q0.55 -0.5 0.65 -0.5 0.7 -0.55 0.65 -0.65 L0.6 -0.75 0.6 -0.8 0.55 -0.85 0.5 -0.8 0.45 -0.8 0.45 -0.8 0.4 -0.75 0.4 -0.65 Q0.4 -0.6 0.5 -0.6 L0.5 -0.6 0.55 -0.65 Q0.6 -0.55 0.55 -0.5 L0.5 -0.5 0.5 -0.35 0.5 -0.25 0.45 -0.2 0.3 -0.15 0.25 -0.2 0.3 -0.1 0.3 -0.05 0.35 -0.05 0.35 -0.05 0.4 -0.1 0.45 -0.05 0.45 -0.05 0.5 -0.05 0.5 0.05 0.55 0.15 0.6 0.2 0.7 0.35 0.7 0.4 0.75 0.6 0.8 0.65 0.8 0.7 0.75 0.8 0.75 0.9 0.7 1.0 0.65 1.0 0.6 1.05 0.55 1.15 0.5 1.2 0.5 1.25 0.45 1.25 0.4 1.2 0.35 1.1 0.3 1.1 0.25 1.05 Q0.2 1.05 0.15 1.1 L0.1 1.2 0.0 1.3 0.0 1.35 -0.05 1.4 -0.1 1.45 -0.1 1.45 Q-0.3 1.35 -0.5 1.15 L-0.7 0.85 -0.7 0.75 -0.7 0.65 -0.65 0.65 -0.65 0.6 -0.65 0.6 -0.55 0.45 -0.5 0.35 -0.45 0.2 -0.45 0.1 -0.4 -0.15 -0.4 -0.25 -0.45 -0.3 Q-0.4 -0.35 -0.4 -0.4 L-0.4 -0.55 -0.45 -0.7 -0.5 -0.85 -0.5 -1.15 -0.55 -1.45 -0.55 -1.55 -0.55 -1.6 M-0.4 1.5 L-0.4 1.45 -0.45 1.4 Q-0.4 1.4 -0.4 1.45 L-0.3 1.55 Q-0.25 1.65 -0.05 1.75 L-0.05 1.75 -0.1 1.75 -0.15 1.75 -0.2 1.7 Q-0.25 1.65 -0.25 1.65 L-0.35 1.55 -0.35 1.5 -0.4 1.5 M-0.2 -1.35 L-0.3 -1.3 -0.3 -1.25 -0.35 -1.25 -0.35 -1.2 -0.4 -1.1 -0.4 -0.85 -0.35 -0.9 -0.35 -0.9 -0.2 -1.05 -0.15 -1.15 -0.1 -1.25 -0.1 -1.25 -0.05 -1.3 0.0 -1.35 0.1 -1.35 0.15 -1.35 0.25 -1.35 0.3 -1.3 0.3 -1.3 0.35 -1.3 0.35 -1.3 0.3 -1.45 0.3 -1.5 0.15 -1.5 0.1 -1.5 0.05 -1.5 Q-0.1 -1.5 -0.2 -1.35 M0.1 1.75 L0.2 1.8 0.15 1.8 0.1 1.8 0.1 1.75" fill="#332826" fill-rule="evenodd" stroke="none"/>
    <path d="M-0.7 0.75 L-0.7 0.85 -0.5 1.15 Q-0.3 1.35 -0.1 1.45 L-0.1 1.45 -0.05 1.4 0.0 1.35 0.0 1.3 0.1 1.2 0.15 1.1 Q0.2 1.05 0.25 1.05 L0.3 1.1 0.35 1.1 0.4 1.2 0.45 1.25 0.5 1.25 0.5 1.2 0.55 1.15 0.6 1.05 0.65 1.0 0.7 1.0 0.75 0.9 0.75 0.8 0.8 0.7 0.8 0.65 0.75 0.6 0.7 0.4 0.7 0.35 0.6 0.2 0.55 0.15 0.5 0.05 0.5 -0.05 0.45 -0.05 0.45 -0.05 0.4 -0.1 0.35 -0.05 0.35 -0.05 0.3 -0.05 0.3 -0.1 0.25 -0.2 0.3 -0.15 0.45 -0.2 0.5 -0.25 0.5 -0.35 0.5 -0.5 0.55 -0.5 Q0.6 -0.55 0.55 -0.65 L0.5 -0.6 0.5 -0.6 Q0.4 -0.6 0.4 -0.65 L0.4 -0.75 0.45 -0.8 0.45 -0.8 0.5 -0.8 0.55 -0.85 0.6 -0.8 0.6 -0.75 0.65 -0.65 Q0.7 -0.55 0.65 -0.5 0.55 -0.5 0.55 -0.45 L0.55 -0.4 Q0.55 -0.35 0.65 -0.4 L0.7 -0.4 0.7 -0.5 0.7 -0.55 0.65 -0.7 0.7 -0.75 0.65 -0.8 0.65 -0.85 0.65 -0.9 0.6 -0.9 0.6 -0.95 0.65 -1.05 0.6 -1.05 0.65 -1.2 0.65 -1.35 0.7 -1.35 0.7 -1.45 0.7 -1.6 0.65 -1.65 0.6 -1.7 0.6 -1.75 0.55 -1.75 0.5 -1.8 0.5 -1.85 0.4 -1.9 0.35 -1.95 0.3 -1.95 0.25 -2.0 0.2 -2.0 0.2 -2.0 0.0 -2.05 -0.15 -2.05 -0.15 -2.05 -0.2 -2.05 -0.25 -2.0 -0.25 -2.0 -0.3 -1.95 -0.3 -1.95 -0.5 -1.75 -0.55 -1.7 -0.55 -1.6 -0.6 -1.55 -0.6 -1.25 -0.6 -1.2 -0.65 -1.05 -0.65 -1.05 -0.6 -0.95 -0.65 -0.9 -0.65 -0.75 -0.65 -0.55 -0.65 -0.5 -0.7 -0.45 Q-0.7 -0.35 -0.75 -0.3 L-0.8 -0.25 -0.8 -0.2 -0.85 -0.15 -0.9 -0.1 -0.95 -0.05 -0.95 -0.05 -1.1 0.25 -1.1 0.3 -1.15 0.3 -1.15 0.45 -1.15 0.6 -1.15 0.65 -1.1 0.85 -1.05 1.0 -1.0 1.05 -1.0 1.1 -0.95 1.15 -0.9 1.2 -0.85 1.25 -0.85 1.3 -0.8 1.35 -0.75 1.35 -0.75 1.4 -0.7 1.45 -0.7 1.5 -0.55 1.75 -0.5 1.8 -0.5 1.85 -0.45 1.9 -0.35 1.95 -0.3 1.95 -0.3 1.85 -0.35 1.8 -0.4 1.7 -0.4 1.6 -0.45 1.55 -0.5 1.5 Q-0.55 1.45 -0.5 1.4 L-0.45 1.4 -0.4 1.45 -0.4 1.5 -0.35 1.5 -0.35 1.55 -0.25 1.65 Q-0.25 1.65 -0.2 1.7 L-0.15 1.75 -0.1 1.75 -0.05 1.75 -0.05 1.75 Q-0.25 1.65 -0.3 1.55 L-0.4 1.45 Q-0.4 1.4 -0.45 1.4 L-0.45 1.35 -0.5 1.3 -0.55 1.3 -0.55 1.25 -0.65 1.1 -0.7 1.05 -0.8 0.85 -0.8 0.7 -0.8 0.6 -0.8 0.6 -0.7 0.5 -0.65 0.6 -0.65 0.65 -0.7 0.65 -0.7 0.75 M-0.8 -1.5 L-0.55 -1.8 -0.25 -2.1 0.05 -2.15 0.25 -2.1 0.6 -1.9 0.75 -1.75 0.9 -1.4 0.95 -1.25 1.05 -0.9 1.05 -0.85 1.05 -0.8 1.1 -0.75 1.1 -0.6 1.15 -0.5 1.15 -0.3 1.15 -0.25 1.15 -0.2 1.1 -0.15 1.1 -0.1 1.25 0.3 1.3 0.9 1.25 1.55 1.2 1.85 1.05 2.0 Q1.05 2.1 0.45 2.15 L0.4 2.15 0.35 2.15 0.25 2.15 0.2 2.15 0.1 2.15 0.05 2.15 0.0 2.15 0.0 2.15 -0.15 2.15 -0.15 2.15 -0.2 2.15 -0.2 2.15 -0.25 2.15 -0.3 2.15 -0.35 2.1 -0.4 2.05 -0.45 2.0 -0.5 1.95 -0.5 1.95 -0.55 1.9 -0.6 1.85 -0.65 1.8 Q-0.7 1.7 -0.75 1.7 -0.85 1.65 -0.9 1.5 -1.05 1.5 -1.25 0.55 L-1.1 0.15 Q-0.95 -0.25 -0.95 -0.3 L-0.9 -0.55 -0.9 -0.9 -0.85 -1.15 -0.8 -1.5 M-0.2 -1.35 Q-0.1 -1.5 0.05 -1.5 L0.1 -1.5 0.15 -1.5 0.3 -1.5 0.3 -1.45 0.35 -1.3 0.35 -1.3 0.3 -1.3 0.3 -1.3 0.25 -1.35 0.15 -1.35 0.1 -1.35 0.0 -1.35 -0.05 -1.3 -0.1 -1.25 -0.1 -1.25 -0.15 -1.15 -0.2 -1.05 -0.35 -0.9 -0.35 -0.9 -0.4 -0.85 -0.4 -1.1 -0.35 -1.2 -0.35 -1.25 -0.3 -1.25 -0.3 -1.3 -0.2 -1.35 M0.1 1.75 L0.1 1.8 0.15 1.8 0.2 1.8 0.1 1.75" fill="#201918" fill-rule="evenodd" stroke="none"/>
    <path d="M-0.55 -1.6 L-0.55 -1.55 -0.55 -1.45 -0.5 -1.15 -0.5 -0.85 -0.45 -0.7 -0.4 -0.55 -0.4 -0.4 Q-0.4 -0.35 -0.45 -0.3 L-0.4 -0.25 -0.4 -0.15 -0.45 0.1 -0.45 0.2 -0.5 0.35 -0.55 0.45 -0.65 0.6 -0.65 0.6 -0.7 0.5 -0.8 0.6 -0.8 0.6 -0.8 0.7 -0.8 0.85 -0.7 1.05 -0.65 1.1 -0.55 1.25 -0.55 1.3 -0.5 1.3 -0.45 1.35 -0.45 1.4 -0.5 1.4 Q-0.55 1.45 -0.5 1.5 L-0.45 1.55 -0.4 1.6 -0.4 1.7 -0.35 1.8 -0.3 1.85 -0.3 1.95 -0.35 1.95 -0.45 1.9 -0.5 1.85 -0.5 1.8 -0.55 1.75 -0.7 1.5 -0.7 1.45 -0.75 1.4 -0.75 1.35 -0.8 1.35 -0.85 1.3 -0.85 1.25 -0.9 1.2 -0.95 1.15 -1.0 1.1 -1.0 1.05 -1.05 1.0 -1.1 0.85 -1.15 0.65 -1.15 0.6 -1.15 0.45 -1.15 0.3 -1.1 0.3 -1.1 0.25 -0.95 -0.05 -0.95 -0.05 -0.9 -0.1 -0.85 -0.15 -0.8 -0.2 -0.8 -0.25 -0.75 -0.3 Q-0.7 -0.35 -0.7 -0.45 L-0.65 -0.5 -0.65 -0.55 -0.65 -0.75 -0.65 -0.9 -0.6 -0.95 -0.65 -1.05 -0.65 -1.05 -0.6 -1.2 -0.6 -1.25 -0.6 -1.55 -0.55 -1.6 M-0.7 0.65 L-0.7 0.75 -0.7 0.65 M-0.4 1.5 L-0.4 1.45 -0.45 1.4 -0.4 1.45 -0.4 1.5" fill="#41322a" fill-rule="evenodd" stroke="none"/>
    <path d="M-0.8 -1.5 L-0.85 -1.15 -0.9 -0.9 -0.9 -0.55 -0.95 -0.3 Q-0.95 -0.25 -1.1 0.15 L-1.25 0.55 Q-1.05 1.5 -0.9 1.5 -0.85 1.65 -0.75 1.7 -0.7 1.7 -0.65 1.8 L-0.6 1.85 -0.55 1.9 -0.5 1.95 -0.5 1.95 -0.45 2.0 -0.4 2.05 -0.35 2.1 -0.3 2.15 -0.25 2.15 -0.2 2.15 -0.2 2.15 -0.15 2.15 -0.15 2.15 0.0 2.15 0.0 2.15 0.05 2.15 0.1 2.15 0.2 2.15 0.25 2.15 0.35 2.15 0.4 2.15 0.45 2.15 Q1.05 2.1 1.05 2.0 L1.2 1.85 1.25 1.55 1.3 0.9 1.25 0.3 1.1 -0.1 1.1 -0.15 1.15 -0.2 1.15 -0.25 1.15 -0.3 1.15 -0.5 1.1 -0.6 M1.05 -0.8 L1.05 -0.85 1.05 -0.9 0.95 -1.25 0.9 -1.4" fill="none" stroke="#000000" stroke-linecap="round" stroke-linejoin="round" stroke-opacity="0.4509804" stroke-width="0.1"/>
  </g>
</svg>
