<?xml version="1.0" encoding="UTF-8" standalone="no"?>
<svg xmlns:xlink="http://www.w3.org/1999/xlink" height="7.05px" width="3.45px" xmlns="http://www.w3.org/2000/svg">
  <g transform="matrix(1.0, 0.0, 0.0, 1.0, 1.75, 3.75)">
    <path d="M0.15 -3.7 L0.1 -3.6 Q0.1 -3.55 0.15 -3.55 L0.2 -3.5 0.25 -3.45 0.35 -3.4 0.4 -3.4 0.5 -3.35 Q0.55 -3.35 0.6 -3.25 L0.65 -3.1 0.65 -3.1 0.6 -3.1 0.5 -3.3 0.4 -3.25 0.3 -3.2 0.2 -3.35 0.05 -3.4 -0.05 -3.4 -0.1 -3.35 -0.3 -3.2 -0.2 -3.15 -0.15 -3.2 Q0.0 -3.2 0.0 -3.1 L0.05 -3.0 Q0.0 -3.0 -0.1 -2.95 L-0.1 -2.9 -0.35 -2.95 -0.45 -2.9 -0.5 -2.9 -0.65 -2.7 -0.55 -2.8 -0.4 -2.75 -0.25 -2.65 Q-0.35 -2.55 -0.45 -2.55 L-0.55 -2.55 -0.55 -2.4 -0.45 -2.35 -0.55 -2.25 -0.65 -2.15 -0.45 -2.1 -0.1 -2.3 -0.1 -2.25 -0.05 -2.2 0.0 -2.15 -0.1 -2.1 -0.1 -2.05 0.0 -2.0 0.15 -2.0 0.2 -2.0 0.3 -2.05 0.4 -2.05 0.45 -2.0 0.45 -1.9 Q0.5 -1.85 0.5 -1.8 L0.8 -1.75 1.05 -1.85 1.1 -1.85 1.1 -1.9 1.15 -1.95 Q1.25 -1.95 1.25 -2.0 L1.3 -2.05 1.35 -2.0 1.35 -2.0 1.3 -1.95 1.25 -1.9 Q1.25 -1.85 1.3 -1.85 L1.35 -1.8 1.45 -1.8 1.5 -1.8 1.5 -1.8 1.35 -1.75 Q1.2 -1.7 1.2 -1.7 L1.25 -1.6 1.25 -1.5 1.2 -1.65 1.15 -1.75 1.05 -1.75 0.95 -1.8 0.85 -1.75 Q0.8 -1.7 0.75 -1.7 L0.7 -1.7 Q0.55 -1.75 0.65 -1.7 L0.4 -1.65 0.3 -1.65 0.15 -1.8 0.1 -1.7 0.05 -1.7 0.05 -1.75 0.0 -1.9 -0.1 -1.85 -0.2 -1.95 -0.35 -1.95 Q-0.4 -1.95 -0.4 -1.9 L-0.5 -1.9 -0.6 -1.85 Q-0.9 -1.85 -0.9 -1.7 -0.9 -1.6 -0.85 -1.6 -0.8 -1.6 -0.8 -1.65 L-0.65 -1.5 -0.7 -1.45 -0.8 -1.4 -0.9 -1.3 -0.85 -1.2 -0.75 -1.15 -0.7 -1.2 Q-0.6 -1.2 -0.6 -1.1 L-0.5 -1.0 -0.4 -1.05 Q-0.4 -1.0 -0.35 -0.95 L-0.35 -0.9 -0.3 -0.8 -0.2 -0.7 0.0 -0.85 0.05 -0.8 0.1 -0.8 0.15 -0.95 Q0.2 -1.0 0.25 -1.0 L0.35 -1.0 Q0.45 -1.1 0.55 -1.1 L0.95 -0.8 Q1.0 -0.8 1.05 -0.85 1.1 -0.8 1.15 -0.8 L1.2 -0.8 1.25 -0.65 Q1.25 -0.55 1.3 -0.55 L1.4 -0.6 1.4 -0.6 Q1.45 -0.55 1.65 -0.5 L1.45 0.05 1.4 -0.05 1.35 -0.05 1.3 -0.1 1.2 -0.15 1.15 -0.15 1.1 -0.3 1.05 -0.5 Q1.0 -0.85 0.85 -0.85 L0.7 -0.8 0.75 -0.7 0.7 -0.65 0.5 -0.7 0.4 -0.65 0.25 -0.7 0.1 -0.7 -0.05 -0.7 -0.15 -0.6 -0.25 -0.65 -0.35 -0.6 Q-0.4 -0.55 -0.45 -0.55 L-0.5 -0.55 -0.55 -0.6 -0.55 -0.8 -0.7 -0.7 -0.75 -0.7 -0.85 -0.8 -0.95 -0.75 -1.0 -0.65 -0.95 -0.55 -0.9 -0.5 -0.95 -0.35 -0.95 -0.3 -0.95 -0.25 -1.0 -0.25 -1.05 -0.25 -1.2 -0.2 -1.35 -0.15 -1.35 -0.1 -1.6 0.05 -1.55 0.1 -1.55 0.15 -1.6 0.1 -1.6 -0.15 -1.65 -0.5 -1.6 -0.65 -1.65 -0.85 -1.6 -1.1 -1.6 -1.1 -1.65 -1.65 Q-1.65 -2.4 -1.35 -3.05 L-1.3 -3.15 -1.2 -3.35 -1.05 -3.5 -1.0 -3.6 Q-0.8 -3.75 -0.55 -3.75 L0.15 -3.7 M1.5 -1.8 L1.5 -1.8 M0.2 3.15 L0.1 3.15 0.2 3.15 M-1.3 -0.7 L-1.3 -0.65 -1.25 -0.45 -1.2 -0.35 -1.2 -0.4 -1.1 -0.45 -1.05 -0.5 -1.05 -0.5 -1.1 -0.6 -1.15 -0.55 -1.25 -0.65 -1.3 -0.7" fill="#3d3331" fill-rule="evenodd" stroke="none"/>
    <path d="M1.5 -1.8 L1.45 -1.8 1.35 -1.8 1.3 -1.85 Q1.25 -1.85 1.25 -1.9 L1.3 -1.95 1.35 -2.0 1.35 -2.0 1.3 -2.05 1.25 -2.0 Q1.25 -1.95 1.15 -1.95 L1.1 -1.9 1.1 -1.85 1.05 -1.85 0.8 -1.75 0.5 -1.8 Q0.5 -1.85 0.45 -1.9 L0.45 -2.0 0.4 -2.05 0.3 -2.05 0.2 -2.0 0.15 -2.0 0.0 -2.0 -0.1 -2.05 -0.1 -2.1 0.0 -2.15 -0.05 -2.2 -0.1 -2.25 -0.1 -2.3 -0.45 -2.1 -0.65 -2.15 -0.55 -2.25 -0.45 -2.35 -0.55 -2.4 -0.55 -2.55 -0.45 -2.55 Q-0.35 -2.55 -0.25 -2.65 L-0.4 -2.75 -0.55 -2.8 -0.65 -2.7 -0.5 -2.9 -0.45 -2.9 -0.35 -2.95 -0.1 -2.9 -0.1 -2.95 Q0.0 -3.0 0.05 -3.0 L0.0 -3.1 Q0.0 -3.2 -0.15 -3.2 L-0.2 -3.15 -0.3 -3.2 -0.1 -3.35 -0.05 -3.4 0.05 -3.4 0.2 -3.35 0.3 -3.2 0.4 -3.25 0.5 -3.3 0.6 -3.1 0.65 -3.1 0.65 -3.1 0.6 -3.25 Q0.55 -3.35 0.5 -3.35 L0.4 -3.4 0.35 -3.4 0.25 -3.45 0.2 -3.5 0.15 -3.55 Q0.1 -3.55 0.1 -3.6 L0.15 -3.7 0.25 -3.65 Q0.65 -3.55 0.95 -3.3 L1.25 -3.0 1.5 -2.7 1.5 -2.55 1.55 -2.5 1.6 -2.15 1.55 -1.95 1.55 -1.9 1.5 -1.8 M-1.6 0.1 L-1.55 0.15 -1.55 0.1 -1.6 0.05 -1.35 -0.1 -1.35 -0.15 -1.2 -0.2 -1.05 -0.25 -1.15 -0.15 -1.2 -0.15 -1.25 -0.05 -1.3 0.0 -1.3 0.05 -1.25 0.15 -1.2 0.2 -1.15 0.15 -1.15 0.1 Q-1.15 0.0 -1.05 -0.1 L-1.0 -0.15 -0.95 -0.15 -0.85 -0.15 -0.8 -0.15 -0.8 -0.15 -0.7 0.0 -0.7 0.05 -0.65 -0.05 -0.7 -0.15 -0.95 -0.25 -0.95 -0.25 -0.95 -0.3 -0.95 -0.35 -0.9 -0.5 -0.95 -0.55 -1.0 -0.65 -0.95 -0.75 -0.85 -0.8 -0.75 -0.7 -0.7 -0.7 -0.55 -0.8 -0.55 -0.6 -0.5 -0.55 -0.45 -0.55 Q-0.4 -0.55 -0.35 -0.6 L-0.25 -0.65 -0.15 -0.6 -0.05 -0.7 0.1 -0.7 0.25 -0.7 0.4 -0.65 0.5 -0.7 0.7 -0.65 0.75 -0.7 0.7 -0.8 0.85 -0.85 Q1.0 -0.85 1.05 -0.5 L1.1 -0.3 1.15 -0.15 1.0 -0.2 1.0 -0.2 0.95 -0.15 0.8 -0.1 0.6 -0.15 0.5 -0.15 0.45 -0.15 0.3 -0.15 0.3 -0.1 0.3 0.05 0.5 0.05 0.25 0.25 0.15 0.2 Q0.05 0.2 0.0 0.35 L-0.15 0.45 -0.15 0.45 Q-0.1 0.6 0.0 0.6 L0.1 0.55 Q0.15 0.55 0.25 0.65 L0.3 0.8 Q0.3 0.85 0.15 0.9 0.0 0.9 0.0 0.95 L0.1 1.05 0.2 1.0 Q0.25 1.0 0.3 1.1 0.35 1.15 0.45 1.15 0.55 1.15 0.55 1.35 L0.45 1.5 0.4 1.45 0.35 1.5 0.4 1.6 0.45 1.65 0.55 1.6 0.55 1.75 0.35 1.75 0.15 1.75 0.0 1.75 -0.15 1.7 Q-0.25 1.7 -0.35 1.8 L-0.1 1.85 -0.05 1.85 0.0 1.85 Q-0.05 1.95 -0.2 1.95 -0.3 1.95 -0.35 2.0 L-0.35 2.0 -0.1 2.0 Q0.0 2.0 0.1 2.05 0.2 2.15 0.25 2.15 L0.25 2.3 Q0.2 2.35 0.2 2.45 -0.05 2.45 -0.15 2.65 L-0.25 2.6 -0.25 2.45 -0.3 2.45 Q-0.4 2.45 -0.5 2.6 -0.6 2.5 -0.6 2.4 -0.6 2.25 -0.65 2.2 L-0.65 2.15 -0.95 1.8 -0.8 1.6 -0.7 1.5 -0.65 1.5 -0.65 1.45 -0.7 1.4 -0.7 1.4 -0.75 1.35 Q-0.85 1.35 -0.85 1.45 -0.9 1.55 -0.95 1.55 L-1.05 1.5 -1.1 1.5 -1.15 1.4 -1.15 1.35 -1.05 1.3 -1.1 1.15 -1.0 1.05 -0.95 1.15 -0.85 1.1 -0.8 1.05 -0.8 1.05 -0.75 0.9 Q-0.65 0.8 -0.55 0.8 -0.5 0.8 -0.45 0.9 L-0.4 0.95 -0.4 0.9 Q-0.4 0.75 -0.45 0.75 L-0.5 0.65 -0.65 0.6 -0.75 0.65 -0.75 0.7 -0.8 0.6 -0.8 0.55 -0.85 0.5 -1.05 0.65 -1.15 0.65 Q-1.25 0.7 -1.25 0.8 L-1.2 0.85 -1.15 0.9 -1.15 0.95 -1.25 0.95 -1.3 0.9 -1.4 0.85 -1.5 0.9 -1.7 0.2 -1.65 0.2 -1.6 0.1 M-1.3 -0.7 L-1.25 -0.65 -1.15 -0.55 -1.1 -0.6 -1.05 -0.5 -1.05 -0.5 -1.1 -0.45 -1.2 -0.4 -1.2 -0.35 -1.25 -0.45 -1.3 -0.65 -1.3 -0.7" fill="#2b2321" fill-rule="evenodd" stroke="none"/>
    <path d="M1.65 -0.5 Q1.45 -0.55 1.4 -0.6 L1.4 -0.6 1.3 -0.55 Q1.25 -0.55 1.25 -0.65 L1.2 -0.8 1.15 -0.8 Q1.1 -0.8 1.05 -0.85 1.0 -0.8 0.95 -0.8 L0.55 -1.1 Q0.45 -1.1 0.35 -1.0 L0.25 -1.0 Q0.2 -1.0 0.15 -0.95 L0.1 -0.8 0.05 -0.8 0.0 -0.85 -0.2 -0.7 -0.3 -0.8 -0.35 -0.9 -0.35 -0.95 Q-0.4 -1.0 -0.4 -1.05 L-0.5 -1.0 -0.6 -1.1 Q-0.6 -1.2 -0.7 -1.2 L-0.75 -1.15 -0.85 -1.2 -0.9 -1.3 -0.8 -1.4 -0.7 -1.45 -0.65 -1.5 -0.8 -1.65 Q-0.8 -1.6 -0.85 -1.6 -0.9 -1.6 -0.9 -1.7 -0.9 -1.85 -0.6 -1.85 L-0.5 -1.9 -0.4 -1.9 Q-0.4 -1.95 -0.35 -1.95 L-0.2 -1.95 -0.1 -1.85 0.0 -1.9 0.05 -1.75 0.05 -1.7 0.1 -1.7 0.15 -1.8 0.3 -1.65 0.4 -1.65 0.65 -1.7 Q0.55 -1.75 0.7 -1.7 L0.75 -1.7 Q0.8 -1.7 0.85 -1.75 L0.95 -1.8 1.05 -1.75 1.15 -1.75 1.2 -1.65 1.25 -1.5 1.25 -1.6 1.2 -1.7 Q1.2 -1.7 1.35 -1.75 L1.5 -1.8 1.5 -1.8 1.5 -1.6 Q1.5 -1.4 1.6 -1.2 L1.6 -1.1 1.65 -0.85 1.65 -0.5" fill="#574c4a" fill-rule="evenodd" stroke="none"/>
    <path d="M-1.05 -0.25 L-1.0 -0.25 -0.95 -0.25 -0.95 -0.25 -0.7 -0.15 -0.65 -0.05 -0.7 0.05 -0.7 0.0 -0.8 -0.15 -0.8 -0.15 -0.85 -0.15 -0.95 -0.15 -1.0 -0.15 -1.05 -0.1 Q-1.15 0.0 -1.15 0.1 L-1.15 0.15 -1.2 0.2 -1.25 0.15 -1.3 0.05 -1.3 0.0 -1.25 -0.05 -1.2 -0.15 -1.15 -0.15 -1.05 -0.25 M1.15 -0.15 L1.2 -0.15 1.3 -0.1 1.35 -0.05 1.4 -0.05 1.45 0.05 1.5 0.05 1.55 0.2 1.45 0.3 1.35 0.5 1.3 0.55 1.3 0.6 1.25 0.7 1.15 0.85 1.1 1.05 1.05 1.1 1.0 1.25 Q0.9 1.35 0.9 1.45 L0.8 1.75 0.8 1.85 Q0.8 1.95 0.85 2.15 L0.75 2.35 0.8 2.4 0.7 2.75 0.7 2.8 0.55 3.05 0.2 3.15 0.1 3.15 0.05 3.2 -0.15 3.25 -0.2 3.2 -0.3 3.25 -0.35 3.25 -0.45 3.2 Q-0.75 3.1 -0.95 2.6 L-0.95 2.55 -1.15 2.15 -1.2 1.9 -1.4 1.4 -1.45 1.05 -1.5 0.9 -1.4 0.85 -1.3 0.9 -1.25 0.95 -1.15 0.95 -1.15 0.9 -1.2 0.85 -1.25 0.8 Q-1.25 0.7 -1.15 0.65 L-1.05 0.65 -0.85 0.5 -0.8 0.55 -0.8 0.6 -0.75 0.7 -0.75 0.65 -0.65 0.6 -0.5 0.65 -0.45 0.75 Q-0.4 0.75 -0.4 0.9 L-0.4 0.95 -0.45 0.9 Q-0.5 0.8 -0.55 0.8 -0.65 0.8 -0.75 0.9 L-0.8 1.05 -0.8 1.05 -0.85 1.1 -0.95 1.15 -1.0 1.05 -1.1 1.15 -1.05 1.3 -1.15 1.35 -1.15 1.4 -1.1 1.5 -1.05 1.5 -0.95 1.55 Q-0.9 1.55 -0.85 1.45 -0.85 1.35 -0.75 1.35 L-0.7 1.4 -0.7 1.4 -0.65 1.45 -0.65 1.5 -0.7 1.5 -0.8 1.6 -0.95 1.8 -0.65 2.15 -0.65 2.2 Q-0.6 2.25 -0.6 2.4 -0.6 2.5 -0.5 2.6 -0.4 2.45 -0.3 2.45 L-0.25 2.45 -0.25 2.6 -0.15 2.65 Q-0.05 2.45 0.2 2.45 0.2 2.35 0.25 2.3 L0.25 2.15 Q0.2 2.15 0.1 2.05 0.0 2.0 -0.1 2.0 L-0.35 2.0 -0.35 2.0 Q-0.3 1.95 -0.2 1.95 -0.05 1.95 0.0 1.85 L-0.05 1.85 -0.1 1.85 -0.35 1.8 Q-0.25 1.7 -0.15 1.7 L0.0 1.75 0.15 1.75 0.35 1.75 0.55 1.75 0.55 1.6 0.45 1.65 0.4 1.6 0.35 1.5 0.4 1.45 0.45 1.5 0.55 1.35 Q0.55 1.15 0.45 1.15 0.35 1.15 0.3 1.1 0.25 1.0 0.2 1.0 L0.1 1.05 0.0 0.95 Q0.0 0.9 0.15 0.9 0.3 0.85 0.3 0.8 L0.25 0.65 Q0.15 0.55 0.1 0.55 L0.0 0.6 Q-0.1 0.6 -0.15 0.45 L-0.15 0.45 0.0 0.35 Q0.05 0.2 0.15 0.2 L0.25 0.25 0.5 0.05 0.3 0.05 0.3 -0.1 0.3 -0.15 0.45 -0.15 0.5 -0.15 0.6 -0.15 0.8 -0.1 0.95 -0.15 1.0 -0.2 1.0 -0.2 1.15 -0.15" fill="#1c1615" fill-rule="evenodd" stroke="none"/>
    <path d="M-1.35 -3.05 Q-1.65 -2.4 -1.65 -1.65 L-1.6 -1.1 -1.6 -1.1 -1.65 -0.85 -1.6 -0.65 -1.65 -0.5 -1.6 -0.15 -1.6 0.1 -1.65 0.2 -1.7 0.2 -1.5 0.9 -1.45 1.05 -1.4 1.4 -1.2 1.9 -1.15 2.15 -0.95 2.55 -0.95 2.6 Q-0.75 3.1 -0.45 3.2 L-0.35 3.25 M1.45 0.05 L1.65 -0.5 1.65 -0.85 1.6 -1.1 1.6 -1.2 Q1.5 -1.4 1.5 -1.6 L1.5 -1.8 1.5 -1.8 1.55 -1.9 1.55 -1.95 1.6 -2.15 1.55 -2.5 1.5 -2.55 1.5 -2.7 1.25 -3.0 M1.45 0.05 L1.5 0.05 1.55 0.2 1.45 0.3 1.35 0.5 1.3 0.55 1.3 0.6 1.25 0.7 1.15 0.85 1.1 1.05 1.05 1.1 1.0 1.25 Q0.9 1.35 0.9 1.45 L0.8 1.75 0.8 1.85 Q0.8 1.95 0.85 2.15 L0.75 2.35 0.8 2.4 0.7 2.75 0.7 2.8 0.55 3.05" fill="none" stroke="#000000" stroke-linecap="round" stroke-linejoin="round" stroke-opacity="0.4509804" stroke-width="0.1"/>
  </g>
</svg>
