<?xml version="1.0" encoding="UTF-8" standalone="no"?>
<svg xmlns:xlink="http://www.w3.org/1999/xlink" height="7.0px" width="4.0px" xmlns="http://www.w3.org/2000/svg">
  <g transform="matrix(1.0, 0.0, 0.0, 1.0, 2.0, 3.5)">
    <path d="M0.75 -3.5 L1.05 -3.5 1.3 -3.4 Q1.7 -3.15 1.85 -2.8 L1.9 -2.65 1.9 -2.55 Q2.0 -2.2 2.0 -1.6 L2.0 -1.45 2.0 -1.1 Q1.95 -0.75 1.8 -0.45 L1.4 0.1 1.4 0.2 1.45 0.6 Q1.45 0.95 1.25 1.4 L1.1 1.65 1.05 1.8 0.9 2.0 0.3 2.35 0.35 2.35 0.35 2.45 0.35 2.65 Q0.35 3.0 0.15 3.2 L0.1 3.25 0.1 3.3 0.0 3.35 Q-0.2 3.5 -0.55 3.5 L-0.8 3.45 -1.35 3.1 -1.65 2.75 -1.7 2.6 -1.75 2.6 -1.75 2.55 -1.8 2.45 -1.8 2.25 -1.75 1.95 -1.7 1.65 -1.75 1.65 Q-2.0 1.3 -2.0 0.85 -2.0 0.55 -1.8 0.05 L-1.75 0.0 -1.75 -0.05 -1.65 -0.15 -1.45 -0.55 -1.4 -0.65 -1.45 -0.65 -1.45 -0.7 Q-1.55 -0.85 -1.55 -1.05 L-1.5 -1.3 Q-1.5 -1.85 -1.3 -2.25 L-1.1 -2.65 -1.1 -2.65 Q-0.8 -3.1 -0.35 -3.3 L-0.1 -3.4 0.65 -3.5 0.75 -3.5" fill="#524c79" fill-rule="evenodd" stroke="none"/>
  </g>
</svg>
