<?xml version="1.0" encoding="UTF-8" standalone="no"?>
<svg xmlns:xlink="http://www.w3.org/1999/xlink" height="4.4px" width="4.4px" xmlns="http://www.w3.org/2000/svg">
  <g transform="matrix(1.0, 0.0, 0.0, 1.0, 2.2, 2.2)">
    <path d="M1.85 -1.8 L1.9 -1.9 1.9 -2.05 1.85 -2.1 1.8 -2.2 1.9 -2.2 2.1 -2.0 2.1 -1.8 1.95 -1.85 1.9 -1.7 1.85 -1.8" fill="#7bffa9" fill-rule="evenodd" stroke="none"/>
    <path d="M1.85 -1.8 L1.85 -1.95 1.75 -2.0 1.35 -2.2 1.8 -2.2 1.85 -2.1 1.9 -2.05 1.9 -1.9 1.85 -1.8" fill="#9bffab" fill-rule="evenodd" stroke="none"/>
    <path d="M1.35 -2.2 L1.75 -2.0 1.85 -1.95 1.85 -1.8 1.9 -1.7 Q1.85 -1.65 1.75 -1.75 L1.7 -1.75 1.75 -1.8 1.8 -1.85 1.75 -1.95 1.6 -2.05 1.45 -2.1 1.25 -2.1 1.2 -2.15 1.1 -2.2 1.35 -2.2" fill="#a6ffe2" fill-rule="evenodd" stroke="none"/>
    <path d="M1.1 -2.2 L1.2 -2.15 1.25 -2.1 1.45 -2.1 1.6 -2.05 1.75 -1.95 1.8 -1.85 1.75 -1.8 1.7 -1.75 1.65 -1.75 1.55 -1.85 1.45 -1.95 1.35 -2.05 1.25 -2.05 1.1 -1.9 Q1.05 -1.85 0.95 -1.85 L0.95 -1.85 0.9 -2.0 1.05 -2.2 1.1 -2.2" fill="#c9fff7" fill-rule="evenodd" stroke="none"/>
    <path d="M0.95 -1.85 Q1.05 -1.85 1.1 -1.9 L1.25 -2.05 1.35 -2.05 1.45 -1.95 1.55 -1.85 1.65 -1.75 1.45 -1.7 1.5 -1.9 1.3 -1.9 1.25 -1.75 1.15 -1.7 1.1 -1.7 0.95 -1.8 0.95 -1.85" fill="#fcfffe" fill-rule="evenodd" stroke="none"/>
    <path d="M1.7 -1.75 L1.75 -1.75 1.65 -1.55 1.5 -1.35 1.45 -1.4 1.2 -1.55 1.25 -1.55 1.45 -1.5 1.4 -1.55 1.35 -1.6 1.2 -1.65 1.25 -1.75 1.3 -1.9 1.5 -1.9 1.45 -1.7 1.65 -1.75 1.7 -1.75 M1.4 -1.7 L1.5 -1.5 1.55 -1.5 1.6 -1.55 1.5 -1.65 1.4 -1.7" fill="#c1cdc7" fill-rule="evenodd" stroke="none"/>
    <path d="M1.2 -1.65 L1.35 -1.6 1.4 -1.55 1.45 -1.5 1.25 -1.55 1.2 -1.6 1.15 -1.6 1.15 -1.7 1.2 -1.65" fill="#ecfbf4" fill-rule="evenodd" stroke="none"/>
    <path d="M1.1 -1.7 L1.0 -1.75 0.95 -1.6 Q0.9 -1.6 0.85 -1.65 L0.8 -1.75 0.95 -1.8 0.95 -1.8 1.1 -1.7" fill="#fee6e4" fill-rule="evenodd" stroke="none"/>
    <path d="M1.25 -1.75 L1.2 -1.65 1.15 -1.7 1.15 -1.6 1.2 -1.6 1.25 -1.55 1.2 -1.55 1.1 -1.55 1.05 -1.5 0.95 -1.5 0.9 -1.55 0.85 -1.6 0.8 -1.65 0.7 -1.7 0.6 -1.7 0.6 -1.6 0.75 -1.55 0.55 -1.55 0.5 -1.75 0.7 -1.8 0.95 -1.85 0.95 -1.8 0.95 -1.8 0.8 -1.75 0.85 -1.65 Q0.9 -1.6 0.95 -1.6 L1.0 -1.75 1.1 -1.7 1.15 -1.7 1.25 -1.75 M0.95 -1.85 L0.95 -1.85 M0.5 -1.75 L0.5 -1.75" fill="#e3ccc8" fill-rule="evenodd" stroke="none"/>
    <path d="M1.05 -1.5 L1.1 -1.55 1.2 -1.5 1.25 -1.45 1.3 -1.35 1.3 -1.2 1.2 -1.25 1.1 -1.3 1.1 -1.45 1.05 -1.5 1.05 -1.5" fill="#69827c" fill-rule="evenodd" stroke="none"/>
    <path d="M0.55 -1.55 L0.75 -1.55 0.9 -1.55 0.95 -1.5 1.05 -1.5 1.05 -1.5 0.95 -1.45 0.8 -1.4 0.7 -1.4 0.6 -1.45 0.55 -1.5 0.55 -1.55" fill="#794331" fill-rule="evenodd" stroke="none"/>
    <path d="M1.05 -1.5 L1.1 -1.45 0.9 -1.2 Q0.7 -1.25 0.5 -1.4 L0.6 -1.25 0.5 -1.25 0.4 -1.25 0.3 -1.15 0.2 -1.1 0.1 -1.05 0.05 -1.15 0.1 -1.15 0.15 -1.1 0.25 -1.2 0.35 -1.25 0.45 -1.3 0.5 -1.4 0.55 -1.5 0.6 -1.45 0.7 -1.4 0.8 -1.4 0.95 -1.45 1.05 -1.5" fill="#563224" fill-rule="evenodd" stroke="none"/>
    <path d="M1.2 -1.55 L1.45 -1.4 1.5 -1.25 1.7 -1.25 1.65 -1.25 1.45 -1.2 1.3 -1.2 1.3 -1.35 1.25 -1.45 1.2 -1.5 1.1 -1.55 1.2 -1.55" fill="#93aea7" fill-rule="evenodd" stroke="none"/>
    <path d="M1.1 -1.45 L1.1 -1.3 1.2 -1.25 1.05 -1.15 0.9 -1.05 0.9 -1.0 0.6 -0.95 0.35 -0.9 Q0.25 -1.05 0.1 -1.05 L0.1 -0.95 Q-0.05 -0.9 -0.1 -0.8 L-0.15 -0.7 -0.1 -0.85 -0.1 -0.9 -0.05 -1.0 -0.1 -1.1 -0.15 -1.2 -0.15 -1.25 0.0 -1.2 0.05 -1.15 0.1 -1.05 0.2 -1.1 0.3 -1.15 0.4 -1.25 0.5 -1.25 0.6 -1.25 0.5 -1.4 Q0.7 -1.25 0.9 -1.2 L1.1 -1.45 M-0.1 -0.8 L-0.1 -0.8" fill="#242212" fill-rule="evenodd" stroke="none"/>
    <path d="M1.75 -1.75 Q1.85 -1.65 1.9 -1.7 L1.9 -1.65 1.85 -1.6 Q2.0 -1.5 2.0 -1.3 L2.1 -1.25 2.1 -1.2 1.9 -1.15 1.75 -1.25 1.65 -1.25 1.7 -1.25 1.5 -1.25 1.45 -1.4 1.5 -1.35 1.65 -1.55 1.75 -1.75" fill="#a0ccc4" fill-rule="evenodd" stroke="none"/>
    <path d="M1.4 -1.7 L1.5 -1.65 1.6 -1.55 1.55 -1.5 1.5 -1.5 1.4 -1.7" fill="#9faea8" fill-rule="evenodd" stroke="none"/>
    <path d="M2.2 -1.6 L2.2 -1.45 Q2.15 -1.55 2.0 -1.6 L1.9 -1.65 1.9 -1.7 1.95 -1.85 2.1 -1.8 Q2.1 -1.7 2.2 -1.6" fill="#5ac97c" fill-rule="evenodd" stroke="none"/>
    <path d="M2.2 -1.4 L2.2 -1.1 2.1 -1.2 2.1 -1.25 2.0 -1.3 Q2.0 -1.5 1.85 -1.6 L1.9 -1.65 2.0 -1.6 2.2 -1.4" fill="#b5fcec" fill-rule="evenodd" stroke="none"/>
    <path d="M0.4 2.2 L-0.25 2.2 -0.2 2.1 -0.4 1.9 -0.35 1.85 -0.3 1.75 -0.25 1.65 -0.25 1.4 -0.15 1.3 -0.05 1.1 0.05 1.05 0.15 0.85 0.25 0.8 0.3 0.7 0.4 0.75 0.4 0.85 0.2 1.0 0.35 1.05 0.25 1.15 0.2 1.15 0.1 1.15 Q0.05 1.15 0.05 1.2 L0.05 1.3 0.05 1.4 0.05 1.45 0.15 1.45 0.2 1.5 0.25 1.5 0.25 1.55 0.3 1.6 0.4 1.65 0.4 1.75 0.4 1.9 0.45 2.1 0.4 2.2 M-1.45 2.2 L-2.2 2.2 -2.2 1.25 -1.85 1.15 -1.7 1.1 -1.55 1.05 -1.25 1.05 -1.0 1.1 -0.9 1.1 -0.85 1.05 -0.7 1.0 -0.55 0.9 -0.55 1.05 -0.6 1.2 -0.7 1.4 -0.75 1.6 -0.8 1.75 -0.8 1.9 -1.05 1.8 -1.4 1.85 -1.5 1.9 -1.55 2.05 -1.4 2.0 -1.45 2.2 M-2.2 0.75 L-2.2 0.45 -2.1 0.25 -2.05 0.05 -1.8 0.15 Q-1.75 0.15 -1.7 0.1 L-1.65 0.0 -1.65 -0.05 -1.5 -0.1 -1.45 -0.2 -1.5 -0.25 -1.45 -0.2 -1.4 -0.1 -1.35 -0.35 -1.45 -0.4 -1.55 -0.4 -1.6 -0.5 -1.65 -0.65 -1.55 -0.55 -1.5 -0.6 -1.6 -0.75 -1.45 -0.8 -1.35 -0.85 -1.25 -0.8 -1.25 -0.75 -1.35 -0.7 -1.25 -0.55 -1.25 -0.5 -1.25 -0.1 -1.3 0.0 -1.25 0.1 Q-1.25 0.1 -1.2 0.1 L-1.15 -0.05 -0.95 -0.05 -0.95 0.05 -1.1 0.0 -1.05 0.25 -1.05 0.45 -1.1 0.5 -1.4 0.6 -1.45 0.5 -1.45 0.6 -1.6 0.65 -1.8 0.7 -2.0 0.75 -2.2 0.75 M-2.0 -2.2 L-1.35 -2.2 Q-1.2 -2.1 -1.1 -1.9 L-1.1 -1.9 -1.05 -2.05 -1.0 -2.2 1.05 -2.2 0.9 -2.0 0.95 -1.85 0.7 -1.8 0.5 -1.75 0.3 -1.8 0.35 -1.75 0.4 -1.65 0.35 -1.6 0.3 -1.5 0.15 -1.6 0.15 -1.7 0.2 -1.75 0.15 -1.75 0.15 -1.8 0.1 -1.8 0.1 -1.8 -0.1 -2.0 Q-0.15 -2.1 -0.2 -2.1 L-0.5 -2.0 Q-0.65 -1.95 -0.75 -1.8 L-1.0 -1.85 -0.85 -1.7 -1.05 -1.65 -1.05 -1.6 -1.1 -1.6 -1.1 -1.55 -1.1 -1.5 -1.1 -1.5 -1.3 -1.45 -1.2 -1.25 -1.25 -1.2 -1.35 -1.1 -1.45 -1.05 -1.6 -1.1 -1.75 -1.1 -1.8 -1.1 -1.8 -1.25 -1.85 -1.4 -1.9 -1.4 -1.9 -1.45 -1.85 -1.6 -1.75 -1.55 Q-1.65 -1.5 -1.6 -1.55 L-1.5 -1.65 -1.55 -1.75 -1.65 -1.75 -1.75 -1.8 -1.9 -1.85 -2.0 -2.0 -2.0 -2.2 M0.35 -2.05 L0.3 -2.1 0.25 -2.15 0.2 -2.05 0.2 -1.95 Q0.2 -1.9 0.3 -1.9 L0.4 -1.9 0.35 -2.05 M-0.15 1.3 L-0.15 1.3 M-1.65 -0.05 L-1.65 -0.05 M-0.55 -0.1 L-0.55 -0.15 -0.35 -0.15 -0.25 -0.05 -0.25 0.0 -0.15 0.1 -0.2 0.2 Q-0.25 0.2 -0.25 0.2 L-0.45 0.25 -0.65 0.35 -0.7 0.35 -0.8 0.4 -0.95 0.4 -1.0 0.4 -1.0 0.2 -0.85 0.05 -0.85 0.15 -0.8 0.25 -0.8 0.25 -0.75 0.2 -0.7 0.1 -0.6 0.05 -0.6 -0.1 -0.55 -0.1 M-0.4 0.0 L-0.45 -0.05 -0.45 0.0 -0.4 0.05 Q-0.4 0.0 -0.4 0.0" fill="#ffffff" fill-rule="evenodd" stroke="none"/>
    <path d="M0.35 -2.05 L0.4 -1.9 0.3 -1.9 Q0.2 -1.9 0.2 -1.95 L0.2 -2.05 0.25 -2.15 0.3 -2.1 0.35 -2.05" fill="#f6fcdf" fill-rule="evenodd" stroke="none"/>
    <path d="M0.5 -1.75 L0.5 -1.75 0.45 -1.7 0.45 -1.6 0.4 -1.5 0.35 -1.45 0.3 -1.35 0.25 -1.3 0.25 -1.2 0.15 -1.1 0.1 -1.15 0.05 -1.2 0.05 -1.35 0.1 -1.4 0.2 -1.4 0.1 -1.35 0.1 -1.2 0.15 -1.15 0.25 -1.4 0.25 -1.45 0.3 -1.45 0.3 -1.45 0.2 -1.5 0.15 -1.5 0.1 -1.5 0.3 -1.5 0.35 -1.6 0.4 -1.65 0.35 -1.75 0.3 -1.8 0.5 -1.75" fill="#f99f92" fill-rule="evenodd" stroke="none"/>
    <path d="M0.5 -1.75 L0.55 -1.55 0.55 -1.5 0.5 -1.4 0.45 -1.3 0.35 -1.25 0.25 -1.2 0.25 -1.3 0.3 -1.35 0.35 -1.45 0.4 -1.5 0.45 -1.6 0.45 -1.7 0.5 -1.75" fill="#846e64" fill-rule="evenodd" stroke="none"/>
    <path d="M0.15 -1.8 L0.15 -1.75 0.2 -1.75 0.15 -1.7 0.15 -1.6 0.1 -1.5 0.15 -1.5 0.05 -1.5 0.1 -1.7 0.1 -1.75 0.15 -1.75 0.15 -1.8" fill="#b0bcb0" fill-rule="evenodd" stroke="none"/>
    <path d="M0.15 -1.8 L0.15 -1.75 0.05 -1.75 0.0 -1.8 -0.05 -1.85 -0.05 -1.95 -0.1 -2.0 0.1 -1.8 0.1 -1.8 0.15 -1.8" fill="#baefc4" fill-rule="evenodd" stroke="none"/>
    <path d="M0.05 -1.75 L0.15 -1.75 0.1 -1.75 0.1 -1.7 0.1 -1.75 -0.05 -1.6 -0.2 -1.5 -0.25 -1.65 -0.3 -1.8 -0.3 -1.95 -0.4 -1.95 -0.5 -1.95 -0.4 -2.0 -0.25 -2.0 -0.25 -1.9 -0.2 -1.8 0.05 -1.75 M-0.25 -1.65 L-0.25 -1.65" fill="#77cc98" fill-rule="evenodd" stroke="none"/>
    <path d="M-0.1 -2.0 L-0.05 -1.95 -0.05 -1.85 0.0 -1.8 0.05 -1.75 -0.2 -1.8 -0.25 -1.9 -0.25 -2.0 -0.4 -2.0 -0.5 -1.95 -0.6 -1.85 -0.75 -1.75 -0.75 -1.8 Q-0.65 -1.95 -0.5 -2.0 L-0.2 -2.1 Q-0.15 -2.1 -0.1 -2.0" fill="#a6d5a8" fill-rule="evenodd" stroke="none"/>
    <path d="M0.15 -1.5 L0.2 -1.5 0.3 -1.45 0.3 -1.45 0.15 -1.45 0.05 -1.5 0.15 -1.5 M0.1 -1.7 L0.05 -1.5 -0.05 -1.55 -0.05 -1.6 0.1 -1.75 0.1 -1.7" fill="#576a64" fill-rule="evenodd" stroke="none"/>
    <path d="M0.25 -1.4 L0.15 -1.15 0.1 -1.2 0.1 -1.35 0.2 -1.4 0.25 -1.4" fill="#fffcf3" fill-rule="evenodd" stroke="none"/>
    <path d="M-0.05 -1.55 L0.05 -1.5 0.0 -1.4 0.05 -1.4 0.05 -1.4 -0.05 -1.3 0.0 -1.2 -0.15 -1.25 -0.2 -1.3 -0.25 -1.5 -0.25 -1.65 -0.2 -1.5 -0.1 -1.25 -0.1 -1.4 -0.05 -1.55 M-0.15 -1.25 L-0.15 -1.25" fill="#474f44" fill-rule="evenodd" stroke="none"/>
    <path d="M0.1 -1.4 L0.05 -1.35 0.05 -1.2 0.1 -1.15 0.05 -1.15 0.0 -1.2 -0.05 -1.3 0.05 -1.4 0.05 -1.4 0.1 -1.4" fill="#775c53" fill-rule="evenodd" stroke="none"/>
    <path d="M0.3 -1.45 L0.25 -1.45 0.1 -1.4 0.05 -1.4 0.0 -1.4 0.05 -1.5 0.15 -1.45 0.3 -1.45 M1.0 0.5 L1.05 0.6 1.1 0.75 1.1 0.85 1.1 1.25 1.05 1.5 Q1.05 1.6 1.1 1.65 L1.25 1.85 1.0 1.9 0.95 1.9 0.95 2.0 0.75 1.95 0.7 1.8 0.65 1.65 0.6 1.65 Q0.65 1.6 0.7 1.6 L0.8 1.65 0.9 1.6 1.0 1.5 0.95 1.4 0.95 1.3 1.0 1.2 1.05 1.1 1.05 0.95 1.0 0.8 0.95 0.85 0.9 0.85 0.95 0.9 0.95 1.0 0.9 1.1 0.85 1.15 0.75 1.0 0.8 0.9 0.75 0.9 Q0.75 0.75 0.7 0.7 L0.75 0.7 0.75 0.6 Q0.75 0.6 0.75 0.55 L0.85 0.45 0.95 0.4 1.0 0.5" fill="#182012" fill-rule="evenodd" stroke="none"/>
    <path d="M0.15 -1.6 L0.3 -1.5 0.1 -1.5 0.15 -1.6" fill="#fdc2b5" fill-rule="evenodd" stroke="none"/>
    <path d="M0.75 -1.55 L0.6 -1.6 0.6 -1.7 0.7 -1.7 0.8 -1.65 0.85 -1.6 0.9 -1.55 0.75 -1.55" fill="#fefdf9" fill-rule="evenodd" stroke="none"/>
    <path d="M0.9 -1.0 L0.9 -1.05 1.1 -1.1 1.15 -1.05 1.2 -0.95 1.05 -0.9 0.85 -0.85 0.9 -1.0" fill="#5c7545" fill-rule="evenodd" stroke="none"/>
    <path d="M0.6 -0.95 L0.7 -0.95 0.5 -0.75 0.65 -0.7 0.75 -0.85 0.8 -0.7 0.9 -0.55 0.95 -0.5 0.95 -0.4 0.85 -0.4 0.75 -0.4 0.65 -0.35 0.55 -0.25 0.5 -0.25 0.65 -0.45 0.8 -0.55 Q0.7 -0.65 0.55 -0.65 L0.3 -0.9 0.25 -0.9 0.15 -0.65 0.1 -0.85 -0.1 -0.8 Q-0.05 -0.9 0.1 -0.95 L0.1 -1.05 Q0.25 -1.05 0.35 -0.9 L0.6 -0.95 M0.5 -0.25 L0.5 -0.25 0.5 -0.25" fill="#454d29" fill-rule="evenodd" stroke="none"/>
    <path d="M0.9 -1.0 L0.85 -0.85 Q0.9 -0.75 0.95 -0.65 L1.05 -0.6 1.15 -0.6 Q1.25 -0.55 1.35 -0.45 L1.3 -0.35 1.25 -0.3 1.2 -0.3 1.1 -0.25 1.05 -0.3 1.0 -0.35 0.9 -0.3 0.85 -0.25 0.75 -0.15 0.8 -0.25 0.65 -0.25 0.55 -0.25 0.65 -0.35 0.75 -0.4 0.85 -0.4 0.95 -0.4 0.95 -0.5 0.9 -0.55 0.8 -0.7 0.75 -0.85 0.65 -0.7 0.5 -0.75 0.7 -0.95 0.6 -0.95 0.9 -1.0" fill="#2d361a" fill-rule="evenodd" stroke="none"/>
    <path d="M2.2 -0.85 L2.2 -0.75 1.95 -0.7 Q1.85 -0.7 1.75 -0.6 L1.75 -0.7 1.7 -0.7 1.65 -0.55 1.55 -0.4 1.6 -0.6 1.65 -0.75 1.55 -0.75 1.55 -0.6 1.5 -0.5 1.55 -0.7 1.45 -0.6 1.4 -0.5 1.35 -0.45 Q1.25 -0.55 1.15 -0.6 L1.3 -0.6 1.35 -0.65 1.4 -0.75 1.25 -0.8 1.1 -0.8 1.0 -0.75 0.95 -0.65 Q0.9 -0.75 0.85 -0.85 L1.05 -0.9 1.2 -0.95 1.15 -1.05 1.1 -1.1 1.2 -1.05 1.3 -0.95 Q1.35 -0.9 1.4 -0.95 L1.45 -0.95 1.5 -0.9 1.6 -0.95 1.7 -1.0 1.8 -1.0 1.9 -0.95 1.9 -0.8 1.75 -0.7 1.95 -0.8 2.2 -0.85 M1.55 -0.75 Q1.7 -0.75 1.8 -0.95 L1.7 -0.95 1.55 -0.85 Q1.5 -0.75 1.55 -0.75" fill="#525b32" fill-rule="evenodd" stroke="none"/>
    <path d="M1.05 -0.6 L0.95 -0.65 1.0 -0.75 1.1 -0.8 1.2 -0.75 1.05 -0.6" fill="#82ae65" fill-rule="evenodd" stroke="none"/>
    <path d="M0.05 -0.65 L0.0 -0.7 -0.05 -0.75 -0.15 -0.7 -0.1 -0.8 0.1 -0.8 0.05 -0.65 M-0.15 -0.7 L-0.15 -0.7" fill="#969450" fill-rule="evenodd" stroke="none"/>
    <path d="M-0.1 -0.8 L0.1 -0.85 0.15 -0.65 0.25 -0.9 0.3 -0.9 0.55 -0.65 0.45 -0.7 0.3 -0.8 0.25 -0.6 0.2 -0.45 0.1 -0.45 Q0.15 -0.6 0.05 -0.65 L0.1 -0.8 -0.1 -0.8 -0.1 -0.8" fill="#5b783e" fill-rule="evenodd" stroke="none"/>
    <path d="M0.0 -0.7 L0.05 -0.65 Q0.15 -0.6 0.1 -0.45 L0.1 -0.35 Q0.1 -0.3 0.15 -0.25 L0.15 -0.1 0.1 -0.15 0.0 -0.2 0.0 -0.25 -0.15 -0.25 -0.05 -0.3 0.1 -0.35 0.1 -0.4 0.05 -0.45 Q0.05 -0.6 0.0 -0.7 M0.1 -0.15 L0.1 -0.15" fill="#a7ad5b" fill-rule="evenodd" stroke="none"/>
    <path d="M0.45 -0.7 L0.35 -0.7 0.3 -0.7 0.25 -0.55 0.25 -0.4 0.15 -0.4 0.2 -0.45 0.25 -0.6 0.3 -0.8 0.45 -0.7" fill="#92aa5a" fill-rule="evenodd" stroke="none"/>
    <path d="M0.65 -0.45 L0.5 -0.25 0.15 -0.4 0.15 -0.4 0.25 -0.4 0.25 -0.55 0.3 -0.7 0.35 -0.7 0.45 -0.7 0.55 -0.65 0.65 -0.55 0.65 -0.45 M0.4 -0.3 L0.5 -0.35 0.6 -0.4 0.6 -0.6 0.5 -0.55 0.45 -0.65 0.35 -0.6 0.3 -0.5 Q0.3 -0.4 0.4 -0.3" fill="#a3cd6e" fill-rule="evenodd" stroke="none"/>
    <path d="M-2.2 -1.05 L-2.2 -1.3 -2.15 -1.35 -2.1 -1.35 -2.1 -1.15 -2.05 -1.15 -2.0 -1.3 -1.95 -1.25 -1.9 -1.45 -1.9 -1.4 -1.9 -1.2 -2.0 -1.1 Q-1.95 -1.0 -2.0 -0.85 L-1.9 -0.85 Q-1.8 -0.85 -1.8 -0.9 L-1.8 -1.1 -1.75 -1.1 -1.65 -1.05 -1.75 -0.95 -1.4 -0.9 -1.65 -0.85 -1.6 -0.7 -1.7 -0.65 -1.7 -0.55 -1.65 -0.45 -1.6 -0.3 -1.6 -0.2 -1.65 -0.1 -1.65 -0.25 -1.75 -0.3 Q-1.8 -0.55 -1.95 -0.7 L-1.9 -0.7 -1.8 -0.7 -1.7 -0.65 -1.8 -0.8 -1.85 -0.8 -2.0 -0.75 -2.0 -0.8 -2.05 -0.9 -2.05 -1.0 -2.2 -1.05 M0.4 -0.3 Q0.3 -0.4 0.3 -0.5 L0.35 -0.6 0.45 -0.65 0.5 -0.55 0.6 -0.6 0.6 -0.4 0.5 -0.35 0.4 -0.3" fill="#ffffa0" fill-rule="evenodd" stroke="none"/>
    <path d="M0.5 -0.25 L0.5 -0.25 0.45 -0.25 0.4 -0.25 0.3 -0.25 0.15 -0.25 Q0.1 -0.3 0.1 -0.35 L0.1 -0.45 0.2 -0.45 0.15 -0.4 0.15 -0.4 0.5 -0.25" fill="#766d37" fill-rule="evenodd" stroke="none"/>
    <path d="M0.05 -0.45 L0.1 -0.4 0.1 -0.35 -0.05 -0.3 -0.15 -0.25 -0.25 -0.3 -0.2 -0.45 -0.1 -0.5 0.05 -0.45" fill="#f1ff97" fill-rule="evenodd" stroke="none"/>
    <path d="M-0.15 -0.25 L0.0 -0.25 0.0 -0.2 -0.1 -0.1 -0.1 -0.2 -0.25 -0.25 -0.25 -0.3 -0.15 -0.25" fill="#789a4b" fill-rule="evenodd" stroke="none"/>
    <path d="M0.0 -0.2 L0.1 -0.15 0.1 -0.15 0.05 -0.15 0.05 -0.1 -0.05 0.05 -0.15 -0.05 -0.1 -0.1 0.0 -0.2" fill="#c4ed7a" fill-rule="evenodd" stroke="none"/>
    <path d="M-0.05 0.05 L0.05 -0.1 0.05 -0.15 0.1 -0.15 0.1 -0.15 0.25 -0.1 0.3 -0.1 0.4 -0.1 0.3 0.0 0.15 0.0 0.15 0.05 -0.1 0.05 -0.05 0.05" fill="#ffffa3" fill-rule="evenodd" stroke="none"/>
    <path d="M0.1 -0.15 L0.15 -0.1 0.15 -0.25 0.3 -0.25 0.25 -0.1 0.1 -0.15" fill="#ffeb7e" fill-rule="evenodd" stroke="none"/>
    <path d="M0.25 -0.1 L0.3 -0.25 0.4 -0.25 0.45 -0.25 0.4 -0.2 0.55 -0.1 0.5 -0.1 0.4 -0.1 0.35 -0.1 0.3 -0.1 0.25 -0.1" fill="#dbb55f" fill-rule="evenodd" stroke="none"/>
    <path d="M0.55 -0.1 L0.4 -0.2 0.45 -0.25 0.5 -0.25 0.6 -0.2 0.6 -0.15 0.55 -0.1" fill="#fee378" fill-rule="evenodd" stroke="none"/>
    <path d="M0.3 -0.1 L0.35 -0.1 0.4 -0.1 0.5 -0.1 0.45 -0.1 0.4 -0.1 0.45 0.0 0.3 0.1 0.45 0.05 0.55 0.0 0.65 0.05 0.5 0.1 0.25 0.1 0.3 0.0 0.4 -0.1 0.3 -0.1" fill="#8e5d45" fill-rule="evenodd" stroke="none"/>
    <path d="M0.75 -0.15 L0.85 -0.25 0.9 -0.1 0.8 -0.05 0.65 0.05 0.55 0.0 0.45 0.05 0.3 0.1 0.45 0.0 0.4 -0.1 0.45 -0.1 0.5 -0.1 0.55 -0.1 0.6 -0.15 0.75 -0.15" fill="#422b20" fill-rule="evenodd" stroke="none"/>
    <path d="M0.3 0.0 L0.25 0.1 0.5 0.1 0.55 0.1 Q0.5 0.15 0.4 0.2 L0.2 0.15 0.2 0.2 0.15 0.25 0.1 0.15 0.15 0.15 0.15 0.05 0.15 0.0 0.3 0.0" fill="#fb7c55" fill-rule="evenodd" stroke="none"/>
    <path d="M0.55 -0.65 Q0.7 -0.65 0.8 -0.55 L0.65 -0.45 0.65 -0.55 0.55 -0.65" fill="#857f47" fill-rule="evenodd" stroke="none"/>
    <path d="M0.5 -0.25 L0.55 -0.25 0.65 -0.25 0.8 -0.25 0.75 -0.15 0.6 -0.15 0.6 -0.2 0.5 -0.25" fill="#747b39" fill-rule="evenodd" stroke="none"/>
    <path d="M0.85 -0.25 L0.9 -0.3 1.0 -0.35 1.05 -0.3 0.95 -0.15 0.9 -0.05 0.9 -0.1 0.85 -0.25" fill="#c28973" fill-rule="evenodd" stroke="none"/>
    <path d="M0.8 -0.05 L0.9 -0.1 0.9 -0.05 0.95 0.1 1.0 0.25 0.9 0.3 0.75 0.35 0.7 0.3 0.6 0.3 0.6 0.25 0.7 0.2 0.75 0.2 0.9 0.2 0.9 0.1 0.85 -0.05 0.8 -0.05" fill="#4e5d44" fill-rule="evenodd" stroke="none"/>
    <path d="M0.65 0.05 L0.8 -0.05 0.85 -0.05 0.9 0.1 0.9 0.2 0.75 0.2 0.8 0.2 0.85 0.05 0.65 0.05" fill="#796d51" fill-rule="evenodd" stroke="none"/>
    <path d="M0.9 -0.05 L0.95 -0.15 1.05 -0.15 1.1 -0.1 1.15 0.0 1.15 -0.05 1.2 0.1 1.25 0.1 1.3 0.1 1.2 0.1 1.2 0.2 1.2 0.3 1.05 0.3 1.0 0.25 0.95 0.1 0.9 -0.05 M1.05 -0.05 L1.05 0.0 Q1.0 0.0 1.05 0.0 L1.1 0.0 1.05 -0.05 M1.15 0.05 L1.1 0.05 1.05 0.15 1.15 0.2 1.15 0.05" fill="#697e66" fill-rule="evenodd" stroke="none"/>
    <path d="M-0.15 -0.7 L-0.05 -0.75 0.0 -0.7 Q0.05 -0.6 0.05 -0.45 L-0.1 -0.5 -0.2 -0.45 -0.2 -0.6 -0.15 -0.7 M-0.15 -0.55 L-0.05 -0.55 0.0 -0.65 Q-0.15 -0.65 -0.15 -0.55" fill="#bfca6c" fill-rule="evenodd" stroke="none"/>
    <path d="M1.2 -1.25 L1.3 -1.2 1.45 -1.2 1.65 -1.25 1.75 -1.25 1.8 -1.1 1.6 -1.1 1.4 -1.2 1.5 -1.1 1.55 -1.05 1.75 -1.0 1.95 -1.0 1.9 -0.95 1.8 -1.0 1.7 -1.0 1.6 -0.95 1.5 -0.9 1.45 -0.95 1.4 -0.95 Q1.35 -0.9 1.3 -0.95 L1.2 -1.05 1.1 -1.1 0.9 -1.05 1.05 -1.15 1.2 -1.25" fill="#333f22" fill-rule="evenodd" stroke="none"/>
    <path d="M2.2 -1.0 L2.2 -0.85 1.95 -0.8 1.75 -0.7 1.9 -0.8 1.9 -0.95 1.95 -1.0 1.75 -1.0 1.55 -1.05 1.5 -1.1 1.4 -1.2 1.6 -1.1 1.8 -1.1 1.75 -1.25 1.9 -1.15 2.2 -1.0" fill="#212a15" fill-rule="evenodd" stroke="none"/>
    <path d="M1.55 -0.4 L1.65 -0.55 1.7 -0.7 1.75 -0.7 1.75 -0.6 Q1.85 -0.7 1.95 -0.7 L1.9 -0.6 2.1 -0.6 2.05 -0.5 1.9 -0.5 1.7 -0.4 1.6 -0.3 1.55 -0.4 1.55 -0.4" fill="#5c7540" fill-rule="evenodd" stroke="none"/>
    <path d="M2.2 -0.3 L2.2 -0.2 1.95 -0.1 1.7 -0.05 1.65 0.0 Q1.6 0.0 1.6 0.0 L1.5 0.05 1.45 0.05 1.35 0.05 1.3 0.05 1.55 -0.05 1.6 -0.05 1.6 -0.1 1.55 -0.15 1.3 -0.25 1.35 -0.3 1.45 -0.45 1.5 -0.5 1.55 -0.6 1.55 -0.75 1.65 -0.75 1.6 -0.6 1.55 -0.4 1.55 -0.4 1.45 -0.3 1.6 -0.3 1.75 -0.35 1.8 -0.4 1.9 -0.5 2.05 -0.5 1.9 -0.4 1.8 -0.35 1.75 -0.25 1.8 -0.2 1.8 -0.2 1.9 -0.15 1.85 -0.35 1.95 -0.25 1.95 -0.25 2.0 -0.35 2.0 -0.35 2.2 -0.3 M1.7 -0.25 L1.65 -0.2 1.65 -0.15 Q1.65 -0.05 1.7 -0.05 L1.75 -0.15 1.7 -0.25" fill="#242f1a" fill-rule="evenodd" stroke="none"/>
    <path d="M1.55 -0.75 Q1.5 -0.75 1.55 -0.85 L1.7 -0.95 1.8 -0.95 Q1.7 -0.75 1.55 -0.75" fill="#8e8e54" fill-rule="evenodd" stroke="none"/>
    <path d="M1.1 -0.8 L1.25 -0.8 1.4 -0.75 1.35 -0.65 1.3 -0.6 1.25 -0.7 1.2 -0.75 1.1 -0.8" fill="#908a50" fill-rule="evenodd" stroke="none"/>
    <path d="M1.15 -0.6 L1.05 -0.6 1.2 -0.75 1.25 -0.7 1.3 -0.6 1.15 -0.6" fill="#b7b66a" fill-rule="evenodd" stroke="none"/>
    <path d="M1.25 -0.3 L1.3 -0.35 1.35 -0.45 1.4 -0.5 1.45 -0.45 1.35 -0.3 1.25 -0.25 1.25 -0.3" fill="#66db7e" fill-rule="evenodd" stroke="none"/>
    <path d="M1.4 -0.5 L1.45 -0.6 1.55 -0.7 1.5 -0.5 1.45 -0.45 1.4 -0.5" fill="#97cf95" fill-rule="evenodd" stroke="none"/>
    <path d="M1.05 -0.3 L1.1 -0.25 1.1 -0.15 1.15 -0.05 1.15 0.0 1.1 -0.1 1.05 -0.15 0.95 -0.15 1.05 -0.3" fill="#a7a98b" fill-rule="evenodd" stroke="none"/>
    <path d="M1.05 -0.05 L1.1 0.0 1.05 0.0 Q1.0 0.0 1.05 0.0 L1.05 -0.05" fill="#90b29f" fill-rule="evenodd" stroke="none"/>
    <path d="M1.1 -0.25 L1.2 -0.3 1.25 -0.25 1.25 -0.05 1.2 -0.15 1.1 -0.15 1.1 -0.25 M1.1 -0.15 L1.1 -0.15" fill="#594c3d" fill-rule="evenodd" stroke="none"/>
    <path d="M1.25 0.1 L1.2 0.1 1.15 -0.05 1.1 -0.15 1.2 -0.15 1.25 -0.05 1.3 0.1 1.25 0.1" fill="#1b1813" fill-rule="evenodd" stroke="none"/>
    <path d="M1.2 -0.3 L1.25 -0.3 1.25 -0.25 1.35 -0.3 1.3 -0.25 1.55 -0.15 1.6 -0.1 1.6 -0.05 1.55 -0.05 1.4 -0.05 1.25 -0.05 1.25 -0.25 1.2 -0.3" fill="#567b41" fill-rule="evenodd" stroke="none"/>
    <path d="M1.55 -0.05 L1.3 0.05 1.35 0.05 1.3 0.1 1.25 -0.05 1.4 -0.05 1.55 -0.05" fill="#3c5b2c" fill-rule="evenodd" stroke="none"/>
    <path d="M2.2 -0.45 L2.2 -0.3 2.0 -0.35 2.0 -0.35 1.95 -0.25 1.95 -0.25 1.85 -0.35 1.9 -0.15 1.8 -0.2 1.8 -0.2 1.75 -0.25 1.8 -0.35 1.9 -0.4 2.2 -0.45" fill="#4c5749" fill-rule="evenodd" stroke="none"/>
    <path d="M1.55 -0.4 L1.6 -0.3 1.7 -0.4 1.9 -0.5 1.8 -0.4 1.75 -0.35 1.6 -0.3 1.45 -0.3 1.55 -0.4" fill="#3d4f28" fill-rule="evenodd" stroke="none"/>
    <path d="M1.7 -0.25 L1.75 -0.15 1.7 -0.05 Q1.65 -0.05 1.65 -0.15 L1.65 -0.2 1.7 -0.25" fill="#4c4b43" fill-rule="evenodd" stroke="none"/>
    <path d="M1.35 0.05 L1.45 0.05 1.5 0.05 1.6 0.0 Q1.6 0.0 1.65 0.0 L1.7 0.0 1.55 0.25 1.65 0.2 1.75 0.2 Q1.6 0.4 1.45 0.55 L1.4 0.45 1.35 0.45 1.3 0.5 1.25 0.6 1.25 0.7 1.2 0.75 1.1 0.75 1.15 0.65 1.2 0.55 1.2 0.5 1.1 0.5 1.05 0.6 1.0 0.5 1.1 0.45 1.2 0.45 1.3 0.4 1.35 0.4 1.45 0.3 1.6 0.3 1.55 0.25 1.55 0.15 1.45 0.1 1.4 0.1 1.35 0.05" fill="#67976e" fill-rule="evenodd" stroke="none"/>
    <path d="M2.2 0.0 L2.2 1.0 2.0 0.9 1.8 0.85 Q1.75 0.7 1.75 0.55 L1.85 0.55 1.8 0.7 1.9 0.7 1.9 0.55 1.85 0.35 1.8 0.25 1.75 0.2 1.7 0.15 1.65 0.2 1.55 0.25 1.7 0.0 1.65 0.0 1.7 -0.05 1.75 -0.05 1.75 0.0 1.8 0.1 1.95 0.05 2.1 -0.05 2.2 0.0" fill="#456f51" fill-rule="evenodd" stroke="none"/>
    <path d="M1.7 -0.05 L1.95 -0.1 2.1 -0.05 1.95 0.05 1.8 0.1 1.75 0.0 1.75 -0.05 1.7 -0.05" fill="#3b5e42" fill-rule="evenodd" stroke="none"/>
    <path d="M2.2 -0.75 L2.2 -0.7 2.1 -0.6 1.9 -0.6 1.95 -0.7 2.2 -0.75" fill="#7ea45d" fill-rule="evenodd" stroke="none"/>
    <path d="M1.9 -2.2 L2.2 -2.2 2.2 -1.6 Q2.1 -1.7 2.1 -1.8 L2.1 -2.0 1.9 -2.2" fill="#61ff85" fill-rule="evenodd" stroke="none"/>
    <path d="M2.2 -1.45 L2.2 -1.4 2.0 -1.6 Q2.15 -1.55 2.2 -1.45" fill="#7af6a8" fill-rule="evenodd" stroke="none"/>
    <path d="M2.2 -1.1 L2.2 -1.0 1.9 -1.15 2.1 -1.2 2.2 -1.1" fill="#8cbfa2" fill-rule="evenodd" stroke="none"/>
    <path d="M2.2 -0.7 L2.2 -0.45 1.9 -0.4 2.05 -0.5 2.1 -0.6 2.2 -0.7" fill="#8cffc7" fill-rule="evenodd" stroke="none"/>
    <path d="M2.2 -0.2 L2.2 0.0 2.1 -0.05 1.95 -0.1 2.2 -0.2" fill="#348c46" fill-rule="evenodd" stroke="none"/>
    <path d="M2.2 1.0 L2.2 1.2 2.1 1.2 2.0 1.2 Q1.95 1.2 1.95 1.3 L1.95 1.35 1.8 1.45 1.85 1.35 Q1.85 1.3 1.75 1.25 L1.65 1.3 1.55 1.35 1.55 1.1 1.45 1.0 1.3 0.95 1.25 0.85 1.25 0.8 1.1 0.85 1.1 0.75 1.3 0.75 1.35 0.7 1.4 0.6 1.45 0.6 1.5 0.65 1.35 0.8 1.55 0.9 1.65 0.9 1.75 0.9 1.95 1.0 1.95 0.95 1.85 0.9 1.8 0.85 2.0 0.9 2.2 1.0 M1.45 0.9 L1.35 0.85 1.35 0.95 1.4 0.95 1.45 0.9" fill="#316638" fill-rule="evenodd" stroke="none"/>
    <path d="M2.2 1.2 L2.2 1.55 2.05 1.6 2.0 1.75 2.0 1.65 1.95 1.5 2.0 1.45 1.95 1.35 1.95 1.3 Q1.95 1.2 2.0 1.2 L2.1 1.2 2.2 1.2" fill="#3b964b" fill-rule="evenodd" stroke="none"/>
    <path d="M2.2 1.8 L2.2 2.2 1.9 2.2 1.9 1.85 2.0 1.9 2.05 1.95 2.15 1.95 2.1 1.85 2.2 1.8" fill="#45ff77" fill-rule="evenodd" stroke="none"/>
    <path d="M2.2 1.55 L2.2 1.8 2.1 1.85 2.15 1.95 2.05 1.95 2.0 1.9 2.05 1.9 2.0 1.75 2.05 1.6 2.2 1.55" fill="#33cd52" fill-rule="evenodd" stroke="none"/>
    <path d="M1.65 0.2 L1.7 0.15 1.75 0.2 1.65 0.2 M1.75 0.2 L1.8 0.25 1.85 0.35 1.9 0.55 1.9 0.7 1.8 0.7 1.85 0.55 1.75 0.55 1.65 0.5 1.55 0.5 1.5 0.65 1.45 0.6 1.4 0.6 1.35 0.7 1.3 0.75 1.1 0.75 1.2 0.75 1.25 0.7 1.25 0.6 1.3 0.5 1.35 0.45 1.4 0.45 1.45 0.55 Q1.6 0.4 1.75 0.2" fill="#597b5b" fill-rule="evenodd" stroke="none"/>
    <path d="M1.55 0.25 L1.6 0.3 1.45 0.3 1.35 0.4 Q1.35 0.2 1.4 0.1 L1.45 0.1 1.55 0.15 1.55 0.25" fill="#82be8d" fill-rule="evenodd" stroke="none"/>
    <path d="M1.75 0.55 Q1.75 0.7 1.8 0.85 L1.85 0.9 1.95 0.95 1.95 1.0 1.75 0.9 1.65 0.9 1.55 0.9 1.35 0.8 1.5 0.65 1.55 0.5 1.65 0.5 1.75 0.55" fill="#2b4d35" fill-rule="evenodd" stroke="none"/>
    <path d="M1.2 0.2 L1.2 0.1 1.3 0.1 1.25 0.1 1.3 0.1 1.35 0.05 1.4 0.1 Q1.35 0.2 1.35 0.4 L1.3 0.4 1.2 0.2" fill="#beffe0" fill-rule="evenodd" stroke="none"/>
    <path d="M1.15 0.05 L1.15 0.2 1.05 0.15 1.1 0.05 1.15 0.05" fill="#80a79c" fill-rule="evenodd" stroke="none"/>
    <path d="M1.1 0.45 L1.0 0.5 0.95 0.4 0.95 0.35 1.05 0.35 1.05 0.4 1.1 0.4 1.15 0.4 1.1 0.45" fill="#b3fff5" fill-rule="evenodd" stroke="none"/>
    <path d="M1.2 0.3 L1.2 0.2 1.3 0.4 1.2 0.45 1.1 0.45 1.15 0.4 1.1 0.4 1.15 0.35 1.2 0.3" fill="#9ce6a2" fill-rule="evenodd" stroke="none"/>
    <path d="M1.05 0.3 L1.2 0.3 1.15 0.35 1.1 0.4 1.05 0.4 1.05 0.35 0.95 0.35 1.05 0.3" fill="#46503c" fill-rule="evenodd" stroke="none"/>
    <path d="M1.05 0.6 L1.1 0.5 1.2 0.5 1.2 0.55 1.15 0.65 1.1 0.75 1.05 0.6" fill="#468357" fill-rule="evenodd" stroke="none"/>
    <path d="M1.45 0.9 L1.4 0.95 1.35 0.95 1.35 0.85 1.45 0.9" fill="#47a55c" fill-rule="evenodd" stroke="none"/>
    <path d="M1.45 2.2 L1.35 2.2 1.35 2.0 1.45 2.0 1.3 1.9 1.3 1.7 1.1 1.65 Q1.05 1.6 1.05 1.5 L1.15 1.45 1.15 1.6 1.2 1.65 1.35 1.6 1.4 1.5 1.4 1.35 1.1 1.25 1.1 0.85 1.25 0.8 1.25 0.85 1.3 0.95 1.45 1.0 1.55 1.1 1.55 1.35 1.65 1.3 1.75 1.25 Q1.85 1.3 1.85 1.35 L1.8 1.45 1.8 1.5 1.9 1.55 1.95 1.6 Q2.0 1.7 1.9 1.75 L1.85 1.8 1.75 1.85 1.75 1.7 1.65 1.8 1.55 1.9 1.5 2.05 1.45 2.2" fill="#1d5126" fill-rule="evenodd" stroke="none"/>
    <path d="M0.75 1.0 L0.85 1.15 0.9 1.1 0.95 1.0 0.95 0.9 0.9 0.85 0.95 0.85 1.0 0.8 1.05 0.95 1.05 1.1 1.0 1.2 0.95 1.3 0.95 1.4 1.0 1.5 0.9 1.6 0.8 1.35 0.75 1.4 0.75 1.5 0.8 1.55 0.8 1.65 0.7 1.6 Q0.65 1.6 0.6 1.65 L0.6 1.6 Q0.65 1.45 0.6 1.35 L0.8 1.25 0.75 1.0" fill="#29381c" fill-rule="evenodd" stroke="none"/>
    <path d="M0.5 0.1 L0.65 0.05 0.85 0.05 0.8 0.2 0.75 0.2 0.7 0.2 0.6 0.25 0.6 0.3 0.65 0.1 0.55 0.1 0.5 0.1" fill="#a79d70" fill-rule="evenodd" stroke="none"/>
    <path d="M1.0 0.25 L1.05 0.3 0.95 0.35 0.95 0.4 0.85 0.45 0.75 0.55 Q0.75 0.6 0.75 0.6 L0.75 0.7 0.7 0.7 Q0.75 0.75 0.75 0.9 L0.8 0.9 0.75 1.0 0.75 1.05 Q0.7 0.85 0.65 0.75 L0.6 0.65 0.65 0.45 0.35 0.5 0.5 0.4 0.6 0.3 0.7 0.3 0.75 0.35 0.9 0.3 1.0 0.25" fill="#2c2f22" fill-rule="evenodd" stroke="none"/>
    <path d="M0.6 0.3 L0.5 0.4 0.35 0.5 0.65 0.45 0.6 0.65 0.65 0.75 0.6 0.8 Q0.55 0.7 0.45 0.7 L0.4 0.8 0.4 0.7 0.45 0.6 0.4 0.55 0.35 0.5 0.45 0.35 0.6 0.3 0.6 0.25 0.6 0.3" fill="#604538" fill-rule="evenodd" stroke="none"/>
    <path d="M0.55 0.1 L0.65 0.1 0.6 0.3 0.45 0.35 0.35 0.5 0.3 0.5 0.25 0.4 0.2 0.4 0.2 0.5 0.25 0.6 0.1 0.6 0.2 0.55 0.2 0.4 0.2 0.35 0.25 0.35 0.3 0.35 0.35 0.35 0.35 0.3 0.2 0.2 0.2 0.15 0.4 0.2 Q0.5 0.15 0.55 0.1" fill="#ff8f73" fill-rule="evenodd" stroke="none"/>
    <path d="M0.15 0.05 L0.15 0.15 0.1 0.15 0.15 0.05" fill="#9d6942" fill-rule="evenodd" stroke="none"/>
    <path d="M0.15 0.05 L0.1 0.15 -0.05 0.1 -0.05 0.2 -0.1 0.2 -0.15 0.15 -0.1 0.05 0.15 0.05" fill="#ffa66d" fill-rule="evenodd" stroke="none"/>
    <path d="M-0.35 2.2 L-0.55 2.2 -0.5 2.05 -0.4 2.1 -0.35 2.2 M-0.05 0.2 L-0.05 0.1 0.1 0.15 0.15 0.25 0.2 0.35 0.2 0.4 0.2 0.55 0.1 0.6 0.1 0.55 0.05 0.55 0.05 0.5 0.05 0.45 0.0 0.25 -0.05 0.2 M-1.0 -0.8 L-1.0 -0.85 -0.9 -0.75 -0.95 -0.65 -0.95 -0.55 -0.9 -0.5 -0.9 -0.45 -0.85 -0.35 -0.85 -0.3 -0.95 -0.25 -0.95 -0.15 -1.0 -0.1 -1.1 -0.1 -1.15 -0.1 -1.15 -0.2 -1.2 -0.25 -1.1 -0.55 -1.05 -0.7 -1.0 -0.8" fill="#fffffe" fill-rule="evenodd" stroke="none"/>
    <path d="M0.2 0.35 L0.15 0.25 0.2 0.2 0.35 0.3 0.35 0.35 0.3 0.35 0.25 0.35 0.2 0.35" fill="#ffb997" fill-rule="evenodd" stroke="none"/>
    <path d="M0.05 0.5 L0.05 0.55 0.1 0.55 0.1 0.6 0.05 0.6 0.0 0.6 -0.15 0.65 -0.05 0.7 -0.05 0.75 -0.15 0.75 -0.15 0.75 -0.25 0.7 -0.2 0.6 0.05 0.5" fill="#ffd197" fill-rule="evenodd" stroke="none"/>
    <path d="M0.0 0.6 L0.05 0.6 0.1 0.6 0.25 0.6 0.3 0.6 0.3 0.7 0.25 0.8 0.15 0.85 0.0 0.85 -0.05 0.8 -0.1 0.8 -0.1 0.8 -0.15 0.75 -0.15 0.75 -0.15 0.75 -0.05 0.75 -0.05 0.7 0.0 0.6" fill="#ff805e" fill-rule="evenodd" stroke="none"/>
    <path d="M0.0 0.25 L0.05 0.45 0.05 0.5 -0.2 0.6 -0.15 0.55 -0.25 0.45 -0.15 0.35 -0.15 0.35 -0.2 0.35 -0.2 0.35 -0.2 0.35 0.0 0.25" fill="#ffedb8" fill-rule="evenodd" stroke="none"/>
    <path d="M0.2 0.5 L0.2 0.4 0.25 0.4 0.3 0.5 0.2 0.5" fill="#fc5d48" fill-rule="evenodd" stroke="none"/>
    <path d="M0.25 0.6 L0.2 0.5 0.3 0.5 0.35 0.5 0.4 0.55 0.45 0.6 0.4 0.7 0.3 0.7 0.3 0.6 0.25 0.6" fill="#ae5545" fill-rule="evenodd" stroke="none"/>
    <path d="M0.3 0.7 L0.4 0.7 0.4 0.8 0.4 0.9 0.35 1.05 0.35 1.2 0.5 1.2 0.5 1.3 0.5 1.65 0.5 1.55 0.3 1.55 0.3 1.4 0.05 1.4 0.05 1.3 0.15 1.25 0.25 1.2 0.3 1.15 0.35 1.05 0.4 0.85 0.4 0.75 0.3 0.7" fill="#ffff9a" fill-rule="evenodd" stroke="none"/>
    <path d="M0.5 1.2 L0.35 1.2 0.35 1.05 0.4 0.9 Q0.4 1.05 0.5 1.2" fill="#a9cd69" fill-rule="evenodd" stroke="none"/>
    <path d="M0.4 0.8 L0.45 0.7 Q0.55 0.7 0.6 0.8 L0.6 0.9 0.4 0.9 0.4 0.8" fill="#2f211b" fill-rule="evenodd" stroke="none"/>
    <path d="M0.0 0.85 L0.15 0.85 0.05 1.05 0.0 1.0 -0.05 0.95 0.0 0.85" fill="#ffea65" fill-rule="evenodd" stroke="none"/>
    <path d="M-2.2 0.9 L-2.2 0.75 -2.0 0.75 -1.8 0.7 -1.6 0.65 -1.45 0.6 -1.45 0.5 -1.4 0.6 -1.1 0.5 -0.95 0.5 -1.35 0.65 -1.8 0.75 -1.8 0.95 -1.65 1.0 -1.45 1.0 -1.3 0.95 -1.0 0.9 -1.0 0.95 -0.75 0.9 -0.65 0.85 -0.6 0.75 -0.65 0.75 -0.6 0.75 -0.55 0.7 -0.4 0.65 -0.4 0.7 -0.45 0.75 -0.4 0.85 -0.25 0.7 -0.15 0.75 -0.15 0.75 -0.15 0.8 -0.25 1.0 -0.2 1.05 Q-0.05 0.95 -0.05 0.8 L0.0 0.85 -0.05 0.95 0.0 1.0 0.05 1.05 -0.05 1.1 -0.15 1.1 -0.2 1.15 -0.3 1.2 -0.35 1.25 -0.5 1.15 -0.55 1.0 -0.55 0.85 Q-0.8 1.0 -1.0 1.0 L-1.25 1.0 -1.55 1.05 -1.7 1.1 -1.85 1.15 -1.9 1.05 -1.8 1.05 Q-1.8 0.9 -1.9 0.75 L-2.05 0.85 -2.2 0.9 M-0.15 0.75 L-0.15 0.75 -0.15 0.75" fill="#ffffae" fill-rule="evenodd" stroke="none"/>
    <path d="M0.35 1.05 L0.3 1.15 0.25 1.2 0.15 1.25 0.05 1.3 0.05 1.2 Q0.05 1.15 0.1 1.15 L0.2 1.15 0.25 1.15 0.35 1.05" fill="#ffffcf" fill-rule="evenodd" stroke="none"/>
    <path d="M0.4 0.85 L0.35 1.05 0.2 1.0 0.4 0.85" fill="#ffffc0" fill-rule="evenodd" stroke="none"/>
    <path d="M0.5 1.2 Q0.4 1.05 0.4 0.9 L0.6 0.9 0.6 1.2 0.5 1.2" fill="#40361a" fill-rule="evenodd" stroke="none"/>
    <path d="M0.65 0.75 Q0.7 0.85 0.75 1.05 L0.75 1.2 0.65 1.25 0.6 1.2 0.6 0.9 0.6 0.8 0.65 0.75" fill="#828d4b" fill-rule="evenodd" stroke="none"/>
    <path d="M0.75 1.0 L0.8 1.25 0.6 1.35 Q0.65 1.45 0.6 1.6 L0.55 1.4 0.5 1.2 0.6 1.2 0.65 1.25 0.75 1.2 0.75 1.05 0.75 1.0" fill="#5c572a" fill-rule="evenodd" stroke="none"/>
    <path d="M0.5 1.65 L0.5 1.3 0.5 1.2 0.55 1.4 0.6 1.6 Q0.55 1.7 0.45 1.85 L0.5 1.9 0.45 1.9 0.5 1.7 0.5 1.65" fill="#cffc7e" fill-rule="evenodd" stroke="none"/>
    <path d="M0.8 1.65 L0.8 1.55 0.75 1.5 0.75 1.4 0.8 1.35 0.9 1.6 0.8 1.65" fill="#556e38" fill-rule="evenodd" stroke="none"/>
    <path d="M0.65 1.65 L0.7 1.8 0.75 1.95 0.75 2.0 0.7 1.95 0.6 1.9 0.55 1.9 0.5 1.85 0.65 1.8 0.65 1.65" fill="#5de860" fill-rule="evenodd" stroke="none"/>
    <path d="M0.6 1.6 L0.6 1.65 0.65 1.65 0.65 1.8 0.5 1.85 0.55 1.9 0.5 1.9 0.45 1.85 Q0.55 1.7 0.6 1.6" fill="#91f66e" fill-rule="evenodd" stroke="none"/>
    <path d="M0.05 1.4 L0.3 1.4 0.3 1.55 0.5 1.55 0.5 1.65 0.5 1.7 0.4 1.75 0.4 1.65 0.3 1.6 0.25 1.55 0.25 1.5 0.2 1.5 0.15 1.45 0.05 1.45 0.05 1.4 M-0.55 1.05 L-0.55 0.9 -0.7 1.0 -0.85 1.05 -0.9 1.1 -1.0 1.1 -1.25 1.05 -1.55 1.05 -1.25 1.0 -1.0 1.0 Q-0.8 1.0 -0.55 0.85 L-0.55 1.0 -0.55 1.05" fill="#ffffd4" fill-rule="evenodd" stroke="none"/>
    <path d="M0.4 1.75 L0.5 1.7 0.45 1.9 0.5 1.9 0.4 1.9 0.4 1.75" fill="#feff98" fill-rule="evenodd" stroke="none"/>
    <path d="M0.4 1.9 L0.5 1.9 0.45 2.0 0.6 2.05 0.55 1.95 0.6 1.9 0.65 2.0 0.65 2.05 0.6 2.1 0.45 2.1 0.4 1.9" fill="#f0ffc9" fill-rule="evenodd" stroke="none"/>
    <path d="M0.7 2.2 L0.4 2.2 0.45 2.1 0.6 2.1 0.65 2.05 0.65 2.0 0.6 1.9 0.7 1.95 0.75 2.0 0.7 2.2 M-0.85 -1.7 L-0.8 -1.65 -0.8 -1.6 -0.8 -1.6 -0.9 -1.65 -0.85 -1.7" fill="#aaff7e" fill-rule="evenodd" stroke="none"/>
    <path d="M1.15 2.2 L0.85 2.2 0.75 2.0 0.75 1.95 0.95 2.0 0.95 1.9 1.0 1.9 1.05 2.05 1.15 2.2" fill="#3c5028" fill-rule="evenodd" stroke="none"/>
    <path d="M0.55 1.9 L0.6 1.9 0.55 1.95 0.6 2.05 0.45 2.0 0.5 1.9 0.55 1.9" fill="#b1ffaf" fill-rule="evenodd" stroke="none"/>
    <path d="M0.85 2.2 L0.7 2.2 0.75 2.0 0.85 2.2" fill="#7bfa71" fill-rule="evenodd" stroke="none"/>
    <path d="M1.9 2.2 L1.45 2.2 1.5 2.05 1.55 1.9 1.65 1.8 1.75 1.7 1.75 1.85 1.85 1.8 1.9 1.75 Q2.0 1.7 1.95 1.6 L1.9 1.55 1.8 1.5 1.8 1.45 1.95 1.35 2.0 1.45 1.95 1.5 2.0 1.65 2.0 1.75 2.05 1.9 2.0 1.9 1.9 1.85 1.9 2.2" fill="#207330" fill-rule="evenodd" stroke="none"/>
    <path d="M1.05 1.5 L1.1 1.25 1.4 1.35 1.4 1.5 1.35 1.6 1.2 1.65 1.15 1.6 1.15 1.45 1.05 1.5" fill="#193e1d" fill-rule="evenodd" stroke="none"/>
    <path d="M1.35 2.2 L1.15 2.2 1.05 2.05 1.0 1.9 1.25 1.85 1.1 1.65 1.3 1.7 1.3 1.9 1.45 2.0 1.35 2.0 1.35 2.2" fill="#213c1d" fill-rule="evenodd" stroke="none"/>
    <path d="M-2.2 -1.9 L-2.2 -2.2 -2.15 -2.2 -2.15 -2.05 -2.05 -1.95 -2.05 -1.8 -2.2 -1.9" fill="#77966b" fill-rule="evenodd" stroke="none"/>
    <path d="M-2.2 -1.7 L-2.2 -1.9 -2.05 -1.8 -2.05 -1.95 -2.15 -2.05 -2.0 -1.9 -1.95 -1.75 -2.05 -1.7 -2.2 -1.7" fill="#90be86" fill-rule="evenodd" stroke="none"/>
    <path d="M-2.15 -2.2 L-2.0 -2.2 -2.0 -2.0 -1.9 -1.85 -1.9 -1.75 -1.75 -1.75 -1.8 -1.65 -1.85 -1.65 -1.85 -1.6 -1.9 -1.45 -1.9 -1.35 -2.05 -1.6 -1.9 -1.65 -1.95 -1.75 -2.0 -1.9 -2.15 -2.05 -2.15 -2.2" fill="#bde09a" fill-rule="evenodd" stroke="none"/>
    <path d="M-2.2 -1.4 L-2.2 -1.7 -2.05 -1.7 -1.95 -1.75 -1.9 -1.65 -2.05 -1.6 -1.9 -1.35 -1.95 -1.3 -2.1 -1.4 -2.2 -1.4" fill="#acb47d" fill-rule="evenodd" stroke="none"/>
    <path d="M-2.2 -1.3 L-2.2 -1.4 -2.1 -1.4 -1.95 -1.3 -1.95 -1.25 -2.0 -1.3 -2.05 -1.15 -2.1 -1.15 -2.1 -1.35 -2.15 -1.35 -2.2 -1.3" fill="#fcc97f" fill-rule="evenodd" stroke="none"/>
    <path d="M-2.2 -0.9 L-2.2 -1.05 -2.05 -1.0 -2.05 -0.9 -2.05 -0.8 -2.2 -0.9" fill="#ffe374" fill-rule="evenodd" stroke="none"/>
    <path d="M-2.2 0.05 L-2.2 -0.6 -2.1 -0.7 -2.05 -0.8 -2.05 -0.9 -2.0 -0.8 -2.0 -0.75 -1.85 -0.8 -1.8 -0.8 -1.7 -0.65 -1.8 -0.7 -1.9 -0.7 -1.95 -0.7 Q-1.8 -0.55 -1.75 -0.3 L-1.65 -0.25 -1.65 -0.1 -1.65 -0.05 -1.85 -0.15 -2.1 -0.15 -2.2 0.05" fill="#ffff81" fill-rule="evenodd" stroke="none"/>
    <path d="M-2.2 -0.6 L-2.2 -0.9 -2.05 -0.8 -2.1 -0.7 -2.2 -0.6" fill="#ffa647" fill-rule="evenodd" stroke="none"/>
    <path d="M-0.5 -1.95 L-0.4 -1.95 -0.3 -1.95 -0.3 -1.8 -0.25 -1.65 Q-0.45 -1.55 -0.6 -1.6 L-0.6 -1.65 -0.6 -1.85 -0.5 -1.95" fill="#82b47d" fill-rule="evenodd" stroke="none"/>
    <path d="M-0.6 -1.85 L-0.6 -1.65 -0.7 -1.7 -0.8 -1.65 -0.85 -1.7 -1.0 -1.85 -0.75 -1.8 -0.75 -1.75 -0.6 -1.85 M-1.9 -1.4 L-1.85 -1.4 -1.8 -1.25 -1.8 -1.1 -1.8 -0.9 Q-1.8 -0.85 -1.9 -0.85 L-2.0 -0.85 Q-1.95 -1.0 -2.0 -1.1 L-1.9 -1.2 -1.9 -1.4" fill="#ffffdb" fill-rule="evenodd" stroke="none"/>
    <path d="M-0.6 -1.65 L-0.6 -1.6 -0.6 -1.55 -0.6 -1.5 -0.7 -1.45 -0.8 -1.35 -0.8 -1.25 -0.75 -1.15 -0.9 -1.15 -0.95 -1.15 -1.0 -1.15 -0.9 -1.3 -0.9 -1.6 -0.85 -1.6 -0.8 -1.6 -0.8 -1.45 -0.75 -1.55 -0.65 -1.6 -0.65 -1.65 -0.7 -1.7 -0.6 -1.65 M-0.8 -1.6 L-0.8 -1.6" fill="#6f4244" fill-rule="evenodd" stroke="none"/>
    <path d="M-0.8 -1.65 L-0.7 -1.7 -0.65 -1.65 -0.65 -1.6 -0.75 -1.55 -0.8 -1.45 -0.8 -1.6 -0.8 -1.65" fill="#ca6d72" fill-rule="evenodd" stroke="none"/>
    <path d="M-0.6 -1.6 Q-0.45 -1.55 -0.25 -1.65 L-0.25 -1.65 -0.25 -1.5 -0.35 -1.5 -0.45 -1.4 -0.5 -1.45 -0.4 -1.55 -0.6 -1.55 -0.6 -1.6" fill="#aa8671" fill-rule="evenodd" stroke="none"/>
    <path d="M-0.8 -1.6 L-0.85 -1.6 -0.9 -1.6 -0.9 -1.3 -1.0 -1.15 -0.95 -1.15 -0.9 -1.05 -1.0 -1.05 -1.1 -0.9 -1.0 -0.9 -0.95 -0.9 -0.95 -0.85 -1.0 -0.85 -1.0 -0.8 -1.05 -0.85 -1.15 -0.8 -1.1 -1.1 -1.2 -1.05 -1.2 -1.15 -1.2 -1.2 -1.15 -1.25 -1.15 -1.1 -1.0 -1.2 -1.0 -1.3 -0.95 -1.45 -1.1 -1.35 -1.15 -1.35 -1.15 -1.35 -1.15 -1.45 -1.05 -1.4 -1.1 -1.55 -1.1 -1.6 -1.05 -1.6 -1.05 -1.65 -0.95 -1.65 -1.05 -1.55 -0.95 -1.5 -0.9 -1.65 -0.8 -1.6 M-0.95 -0.9 L-0.95 -0.9" fill="#c36364" fill-rule="evenodd" stroke="none"/>
    <path d="M-0.85 -1.7 L-0.9 -1.65 -0.95 -1.5 -1.05 -1.55 -0.95 -1.65 -1.05 -1.65 -0.85 -1.7" fill="#fff9a6" fill-rule="evenodd" stroke="none"/>
    <path d="M-1.1 -1.35 L-0.95 -1.45 -1.0 -1.3 -1.1 -1.35 -1.1 -1.35" fill="#5b2232" fill-rule="evenodd" stroke="none"/>
    <path d="M-0.75 -1.15 L-0.8 -1.25 -0.8 -1.35 -0.7 -1.45 -0.6 -1.5 -0.6 -1.5 -0.5 -1.45 -0.45 -1.4 -0.4 -1.35 -0.45 -1.35 -0.5 -1.3 -0.4 -1.3 -0.35 -1.2 -0.45 -1.1 -0.4 -1.0 -0.35 -0.85 -0.45 -0.85 -0.45 -0.95 -0.55 -1.0 -0.6 -1.05 -0.65 -1.1 -0.7 -1.15 -0.7 -1.2 -0.75 -1.15 M-0.45 -0.45 Q-0.4 -0.65 -0.5 -0.8 L-0.4 -0.75 -0.35 -0.8 -0.35 -0.65 -0.4 -0.5 -0.45 -0.45 M-0.35 -0.85 L-0.35 -0.85" fill="#4e3438" fill-rule="evenodd" stroke="none"/>
    <path d="M-0.6 -1.5 L-0.6 -1.55 -0.4 -1.55 -0.5 -1.45 -0.6 -1.5 -0.6 -1.5" fill="#f9cdaa" fill-rule="evenodd" stroke="none"/>
    <path d="M-0.05 -1.6 L-0.05 -1.55 -0.1 -1.4 -0.1 -1.25 -0.2 -1.5 -0.05 -1.6" fill="#669d6d" fill-rule="evenodd" stroke="none"/>
    <path d="M-0.4 -1.3 L-0.4 -1.35 -0.2 -1.3 -0.15 -1.25 -0.2 -1.25 -0.35 -1.2 -0.4 -1.3" fill="#a06f66" fill-rule="evenodd" stroke="none"/>
    <path d="M-0.4 -1.35 L-0.4 -1.3 -0.5 -1.3 -0.45 -1.35 -0.4 -1.35" fill="#acba9c" fill-rule="evenodd" stroke="none"/>
    <path d="M-0.45 -1.4 L-0.35 -1.5 -0.25 -1.5 -0.2 -1.3 -0.4 -1.35 -0.45 -1.35 -0.4 -1.35 -0.45 -1.4" fill="#6c5552" fill-rule="evenodd" stroke="none"/>
    <path d="M-1.35 -2.2 L-1.0 -2.2 -1.05 -2.05 -1.1 -1.9 -1.1 -1.9 Q-1.2 -2.1 -1.35 -2.2" fill="#b8ffd3" fill-rule="evenodd" stroke="none"/>
    <path d="M-1.85 -1.6 L-1.85 -1.65 -1.8 -1.65 -1.75 -1.6 -1.6 -1.6 -1.6 -1.7 -1.75 -1.8 -1.65 -1.75 -1.55 -1.75 -1.5 -1.65 -1.6 -1.55 Q-1.65 -1.5 -1.75 -1.55 L-1.85 -1.6" fill="#d1ffec" fill-rule="evenodd" stroke="none"/>
    <path d="M-1.8 -1.65 L-1.75 -1.75 -1.9 -1.75 -1.9 -1.85 -1.75 -1.8 -1.6 -1.7 -1.6 -1.6 -1.75 -1.6 -1.8 -1.65" fill="#a6fbaf" fill-rule="evenodd" stroke="none"/>
    <path d="M-1.1 -1.55 L-1.05 -1.4 -1.15 -1.45 -1.1 -1.5 -1.1 -1.55" fill="#e09a74" fill-rule="evenodd" stroke="none"/>
    <path d="M-1.15 -1.45 L-1.15 -1.35 -1.15 -1.35 -1.1 -1.35 -1.15 -1.3 -1.15 -1.25 -1.2 -1.25 -1.3 -1.45 -1.1 -1.5 -1.1 -1.5 -1.15 -1.45" fill="#d5ffab" fill-rule="evenodd" stroke="none"/>
    <path d="M-1.1 -1.35 L-1.0 -1.3 -1.0 -1.2 -1.05 -1.3 -1.1 -1.25 -1.15 -1.25 -1.15 -1.3 -1.1 -1.35" fill="#ffefe3" fill-rule="evenodd" stroke="none"/>
    <path d="M-1.0 -1.2 L-1.15 -1.1 -1.15 -1.25 -1.1 -1.25 -1.05 -1.3 -1.0 -1.2" fill="#4a2e3f" fill-rule="evenodd" stroke="none"/>
    <path d="M-1.2 -1.15 L-1.2 -1.05 -1.1 -1.1 -1.15 -0.8 -1.05 -0.85 -1.0 -0.8 -1.05 -0.7 -1.1 -0.55 -1.25 -0.5 -1.25 -0.55 -1.25 -0.75 -1.2 -0.9 -1.2 -1.1 -1.2 -1.15" fill="#fe7978" fill-rule="evenodd" stroke="none"/>
    <path d="M-1.75 -1.1 L-1.6 -1.1 -1.45 -1.05 -1.35 -1.1 -1.25 -1.2 -1.2 -1.1 -1.2 -0.9 -1.25 -0.75 -1.25 -0.8 -1.35 -0.85 -1.45 -0.8 -1.6 -0.75 -1.5 -0.6 -1.55 -0.55 -1.65 -0.65 -1.6 -0.5 -1.55 -0.4 -1.45 -0.4 -1.35 -0.35 -1.4 -0.1 -1.45 -0.2 -1.5 -0.25 -1.45 -0.2 -1.5 -0.1 -1.65 -0.05 -1.65 -0.1 -1.6 -0.2 -1.6 -0.3 -1.65 -0.45 -1.7 -0.55 -1.7 -0.65 -1.6 -0.7 -1.65 -0.85 -1.4 -0.9 -1.75 -0.95 -1.65 -1.05 -1.75 -1.1 M-1.3 -0.85 L-1.25 -0.9 Q-1.25 -1.0 -1.3 -1.1 L-1.3 -0.85 M-1.65 -0.05 L-1.65 -0.05" fill="#ffffcb" fill-rule="evenodd" stroke="none"/>
    <path d="M-1.3 -0.85 L-1.3 -1.1 Q-1.25 -1.0 -1.25 -0.9 L-1.3 -0.85" fill="#ffc39f" fill-rule="evenodd" stroke="none"/>
    <path d="M-1.25 -0.75 L-1.25 -0.55 -1.35 -0.7 -1.25 -0.75" fill="#ffd3bb" fill-rule="evenodd" stroke="none"/>
    <path d="M-1.65 0.0 L-1.7 0.1 Q-1.75 0.15 -1.8 0.15 L-2.05 0.05 -2.05 -0.05 -2.0 -0.1 -1.65 0.0" fill="#ffffd7" fill-rule="evenodd" stroke="none"/>
    <path d="M-2.2 0.45 L-2.2 0.05 -2.1 -0.15 -1.85 -0.15 -1.65 -0.05 -1.65 0.0 -2.0 -0.1 -2.05 -0.05 -2.05 0.05 -2.1 0.25 -2.2 0.45 M-1.65 -0.05 L-1.65 -0.05" fill="#ffffa7" fill-rule="evenodd" stroke="none"/>
    <path d="M-1.25 -0.5 L-1.1 -0.55 -1.2 -0.25 -1.2 -0.05 -1.25 -0.1 -1.25 -0.5" fill="#ff9990" fill-rule="evenodd" stroke="none"/>
    <path d="M-1.2 -0.05 L-1.2 -0.25 -1.15 -0.2 -1.15 -0.1 -1.1 -0.1 -1.0 -0.1 -0.95 -0.15 -0.95 -0.25 -0.85 -0.3 -0.75 -0.2 -0.8 -0.15 -0.95 -0.15 -0.9 -0.05 -0.95 -0.05 -1.15 -0.05 -1.2 0.1 Q-1.25 0.1 -1.25 0.1 L-1.2 -0.05" fill="#ffceb5" fill-rule="evenodd" stroke="none"/>
    <path d="M-1.25 -0.1 L-1.2 -0.05 -1.25 0.1 -1.3 0.0 -1.25 -0.1 M-0.8 -0.75 L-0.75 -0.7 -0.75 -0.5 -0.7 -0.5 -0.65 -0.5 -0.55 -0.25 -0.55 -0.1 -0.6 -0.1 -0.65 0.0 -0.65 -0.15 -0.7 -0.1 -0.7 0.0 -0.7 0.1 -0.75 0.2 Q-0.75 0.05 -0.8 -0.05 L-0.8 -0.15 -0.75 -0.2 -0.75 -0.4 -0.8 -0.45 -0.85 -0.55 -0.85 -0.8 -0.8 -0.75 M-0.65 -0.35 L-0.7 -0.4 -0.75 -0.25 -0.65 -0.35" fill="#ff7170" fill-rule="evenodd" stroke="none"/>
    <path d="M-0.15 -0.7 L-0.15 -0.7 -0.2 -0.6 Q-0.2 -0.75 -0.35 -0.85 L-0.4 -1.0 -0.45 -1.1 -0.35 -1.2 -0.2 -1.25 -0.15 -1.25 -0.15 -1.2 -0.25 -1.15 -0.3 -1.15 -0.35 -1.05 -0.3 -1.0 -0.15 -1.0 -0.1 -0.85 -0.15 -0.7 M-0.15 -1.25 L-0.15 -1.25" fill="#6a5953" fill-rule="evenodd" stroke="none"/>
    <path d="M-0.1 -0.85 L-0.15 -1.0 -0.3 -1.0 -0.35 -1.05 -0.3 -1.15 -0.25 -1.15 -0.15 -1.2 -0.1 -1.1 -0.05 -1.0 -0.1 -0.9 -0.1 -0.85" fill="#5f413f" fill-rule="evenodd" stroke="none"/>
    <path d="M-0.35 -0.8 L-0.35 -0.85 Q-0.2 -0.75 -0.2 -0.6 L-0.2 -0.45 -0.25 -0.3 -0.25 -0.25 -0.3 -0.25 -0.25 -0.35 -0.25 -0.45 -0.3 -0.5 -0.35 -0.8 -0.35 -0.65 -0.35 -0.8 M-0.35 -0.85 L-0.35 -0.85" fill="#9d7d78" fill-rule="evenodd" stroke="none"/>
    <path d="M-0.4 -0.5 L-0.35 -0.65 -0.35 -0.8 -0.3 -0.5 -0.25 -0.45 -0.3 -0.3 -0.35 -0.5 -0.4 -0.5" fill="#b4aba7" fill-rule="evenodd" stroke="none"/>
    <path d="M-0.35 -0.8 L-0.4 -0.75 -0.5 -0.8 Q-0.4 -0.65 -0.45 -0.45 L-0.45 -0.3 Q-0.5 -0.2 -0.55 -0.15 L-0.55 -0.1 -0.55 -0.25 Q-0.5 -0.3 -0.55 -0.4 L-0.6 -0.55 -0.75 -0.55 -0.75 -0.7 -0.8 -0.75 -0.75 -0.8 -0.7 -0.85 -0.6 -0.85 -0.65 -0.85 -0.7 -0.9 -0.45 -0.95 -0.45 -0.85 -0.35 -0.85 -0.35 -0.8 M-0.7 -0.9 L-0.7 -0.9 M-0.7 -0.7 L-0.7 -0.7 Q-0.65 -0.7 -0.6 -0.8 L-0.7 -0.75 -0.7 -0.7 M-0.55 -0.75 L-0.6 -0.65 -0.6 -0.6 Q-0.55 -0.65 -0.55 -0.75" fill="#744548" fill-rule="evenodd" stroke="none"/>
    <path d="M-0.9 -1.15 L-0.75 -1.15 -0.7 -1.2 -0.7 -1.15 -0.65 -1.1 -0.6 -1.05 -0.55 -1.0 -0.45 -0.95 -0.7 -0.9 -0.65 -0.85 -0.6 -0.85 -0.7 -0.85 -0.75 -0.8 -0.8 -0.75 -0.85 -0.8 -0.85 -0.9 -0.85 -1.15 -0.9 -1.15 M-0.7 -0.9 L-0.65 -0.95 -0.65 -1.0 -0.8 -0.95 -0.8 -0.8 -0.7 -0.9" fill="#a45e5e" fill-rule="evenodd" stroke="none"/>
    <path d="M-0.7 -0.9 L-0.7 -0.9 -0.8 -0.8 -0.8 -0.95 -0.65 -1.0 -0.65 -0.95 -0.7 -0.9" fill="#fcb190" fill-rule="evenodd" stroke="none"/>
    <path d="M-0.95 -1.15 L-0.9 -1.15 -0.85 -1.15 -0.85 -0.9 -0.85 -0.95 -0.9 -0.95 -0.95 -0.9 -0.95 -0.9 Q-0.95 -0.95 -1.0 -0.95 L-1.0 -0.9 -1.1 -0.9 -1.0 -1.05 -0.9 -1.05 -0.95 -1.15" fill="#ff8a72" fill-rule="evenodd" stroke="none"/>
    <path d="M-0.25 0.7 L-0.4 0.85 -0.45 0.75 -0.4 0.7 -0.4 0.65 -0.55 0.7 -0.6 0.65 -0.6 0.55 -0.55 0.45 -0.7 0.4 -0.8 0.45 -0.85 0.55 -0.85 0.5 -0.8 0.4 -0.7 0.35 -0.55 0.4 -0.45 0.4 -0.2 0.3 -0.2 0.3 -0.2 0.35 -0.2 0.35 -0.15 0.35 -0.15 0.35 -0.25 0.45 -0.15 0.55 -0.2 0.6 -0.25 0.7 M-1.0 -0.85 L-0.95 -0.85 -0.9 -0.95 -0.85 -0.95 -0.85 -0.9 -0.9 -0.75 -1.0 -0.85" fill="#fffbc8" fill-rule="evenodd" stroke="none"/>
    <path d="M-0.85 -0.3 L-0.85 -0.35 -0.9 -0.45 -0.9 -0.5 -0.95 -0.55 -0.95 -0.65 -0.9 -0.75 -0.85 -0.9 -0.85 -0.8 -0.85 -0.55 -0.8 -0.45 -0.75 -0.4 -0.75 -0.2 -0.85 -0.3" fill="#ff927f" fill-rule="evenodd" stroke="none"/>
    <path d="M-0.95 -0.9 L-1.0 -0.9 -1.0 -0.95 Q-0.95 -0.95 -0.95 -0.9" fill="#ffefc5" fill-rule="evenodd" stroke="none"/>
    <path d="M-0.7 -0.7 L-0.7 -0.75 -0.6 -0.8 Q-0.65 -0.7 -0.7 -0.7 L-0.7 -0.7" fill="#bf8070" fill-rule="evenodd" stroke="none"/>
    <path d="M-0.55 -0.75 Q-0.55 -0.65 -0.6 -0.6 L-0.6 -0.65 -0.55 -0.75" fill="#a75e67" fill-rule="evenodd" stroke="none"/>
    <path d="M-0.75 -0.7 L-0.75 -0.55 -0.6 -0.55 -0.55 -0.4 Q-0.5 -0.3 -0.55 -0.25 L-0.65 -0.5 -0.7 -0.5 -0.75 -0.5 -0.75 -0.7" fill="#d26466" fill-rule="evenodd" stroke="none"/>
    <path d="M-0.65 -0.35 L-0.75 -0.25 -0.7 -0.4 -0.65 -0.35" fill="#af465a" fill-rule="evenodd" stroke="none"/>
    <path d="M-0.9 -0.05 Q-0.8 0.1 -0.8 0.25 L-0.8 0.25 -0.85 0.15 -0.85 0.05 -1.0 0.2 -1.0 0.4 -0.95 0.4 -1.05 0.45 -1.05 0.25 -1.1 0.0 -0.95 0.05 -0.95 -0.05 -0.9 -0.05" fill="#ffced0" fill-rule="evenodd" stroke="none"/>
    <path d="M-0.8 -0.15 L-0.8 -0.05 Q-0.75 0.05 -0.75 0.2 L-0.8 0.25 Q-0.8 0.1 -0.9 -0.05 L-0.95 -0.15 -0.8 -0.15" fill="#ff8f99" fill-rule="evenodd" stroke="none"/>
    <path d="M-0.7 0.1 L-0.7 0.0 -0.7 -0.1 -0.65 -0.15 -0.65 0.0 -0.6 -0.1 -0.6 0.05 -0.7 0.1" fill="#963f4e" fill-rule="evenodd" stroke="none"/>
    <path d="M-0.15 -0.55 Q-0.15 -0.65 0.0 -0.65 L-0.05 -0.55 -0.15 -0.55" fill="#faef80" fill-rule="evenodd" stroke="none"/>
    <path d="M-0.55 -0.15 Q-0.5 -0.2 -0.45 -0.3 L-0.45 -0.45 -0.4 -0.5 -0.35 -0.5 -0.3 -0.3 -0.25 -0.45 -0.25 -0.35 -0.3 -0.25 -0.25 -0.15 -0.25 -0.05 -0.35 -0.15 -0.55 -0.15" fill="#fdb8b3" fill-rule="evenodd" stroke="none"/>
    <path d="M-0.3 -0.25 L-0.25 -0.25 -0.1 -0.2 -0.1 -0.1 -0.15 -0.05 -0.05 0.05 -0.1 0.05 -0.15 0.15 -0.15 0.1 -0.25 0.0 -0.25 -0.05 -0.25 -0.15 -0.3 -0.25" fill="#3f5727" fill-rule="evenodd" stroke="none"/>
    <path d="M-0.4 0.0 Q-0.4 0.0 -0.4 0.05 L-0.45 0.0 -0.45 -0.05 -0.4 0.0" fill="#f2b3ac" fill-rule="evenodd" stroke="none"/>
    <path d="M-0.05 0.2 L0.0 0.25 -0.2 0.35 -0.2 0.35 -0.2 0.3 -0.2 0.3 -0.25 0.3 -0.25 0.25 -0.65 0.35 -0.45 0.25 -0.25 0.2 Q-0.25 0.2 -0.2 0.2 L-0.15 0.1 -0.15 0.15 -0.1 0.2 -0.05 0.2" fill="#ffbf8f" fill-rule="evenodd" stroke="none"/>
    <path d="M-0.65 0.35 L-0.25 0.25 -0.25 0.3 -0.2 0.3 -0.45 0.4 -0.55 0.4 -0.7 0.35 -0.65 0.35" fill="#ffdaa2" fill-rule="evenodd" stroke="none"/>
    <path d="M-0.65 0.75 L-0.6 0.75 -0.65 0.85 -0.75 0.9 -1.0 0.95 -1.0 0.9 -0.85 0.85 -0.85 0.75 -0.95 0.5 -0.85 0.5 -0.85 0.45 -0.85 0.5 -0.85 0.55 -0.8 0.65 -0.7 0.8 -0.7 0.8 -0.65 0.75" fill="#ffd09f" fill-rule="evenodd" stroke="none"/>
    <path d="M-0.95 0.5 L-1.1 0.5 -1.05 0.45 -0.95 0.4 -0.8 0.4 -0.85 0.45 -0.85 0.5 -0.95 0.5" fill="#ff714e" fill-rule="evenodd" stroke="none"/>
    <path d="M-0.55 0.7 L-0.6 0.75 -0.65 0.75 -0.7 0.8 -0.7 0.8 -0.8 0.65 -0.85 0.55 -0.8 0.45 -0.7 0.4 -0.55 0.45 -0.6 0.55 -0.6 0.65 -0.55 0.7" fill="#fffff2" fill-rule="evenodd" stroke="none"/>
    <path d="M-1.0 0.9 L-1.3 0.95 -1.25 0.7 -1.05 0.65 -0.95 0.8 -0.85 0.75 -0.85 0.85 -1.0 0.9" fill="#ffffd8" fill-rule="evenodd" stroke="none"/>
    <path d="M-1.3 0.95 L-1.45 1.0 -1.65 1.0 -1.8 0.95 -1.8 0.75 -1.35 0.65 -0.95 0.5 -0.85 0.75 -0.95 0.8 -1.05 0.65 -1.25 0.7 -1.3 0.95" fill="#fffffc" fill-rule="evenodd" stroke="none"/>
    <path d="M-0.05 1.1 L-0.15 1.3 -0.15 1.2 Q-0.25 1.3 -0.3 1.4 L-0.4 1.35 -0.45 1.45 -0.45 1.55 -0.5 1.65 -0.6 1.8 -0.65 1.95 -0.65 2.05 -0.75 2.1 -0.8 1.9 -0.85 1.95 -0.8 1.9 -0.8 1.75 -0.75 1.75 -0.75 1.9 -0.7 1.9 -0.6 1.6 -0.65 1.5 -0.5 1.6 -0.5 1.5 -0.6 1.5 -0.5 1.2 -0.6 1.2 -0.55 1.05 -0.55 1.0 -0.5 1.15 -0.35 1.25 -0.3 1.2 -0.2 1.15 -0.15 1.1 -0.05 1.1" fill="#fffe7c" fill-rule="evenodd" stroke="none"/>
    <path d="M-0.6 1.2 L-0.5 1.2 -0.6 1.5 -0.5 1.5 -0.5 1.6 -0.65 1.5 -0.7 1.4 -0.6 1.2" fill="#fbb64f" fill-rule="evenodd" stroke="none"/>
    <path d="M-0.05 0.8 Q-0.05 0.95 -0.2 1.05 L-0.25 1.0 -0.15 0.8 -0.15 0.75 -0.1 0.8 -0.1 0.8 -0.05 0.8" fill="#ffffe6" fill-rule="evenodd" stroke="none"/>
    <path d="M-0.05 0.7 L-0.15 0.65 0.0 0.6 -0.05 0.7" fill="#ff9979" fill-rule="evenodd" stroke="none"/>
    <path d="M-2.2 1.25 L-2.2 0.9 -2.05 0.85 -1.9 0.75 Q-1.8 0.9 -1.8 1.05 L-1.9 1.05 -1.85 1.15 -2.2 1.25" fill="#fffff7" fill-rule="evenodd" stroke="none"/>
    <path d="M-0.85 2.2 L-1.45 2.2 -1.4 2.0 -1.55 2.05 -1.5 1.9 -1.4 1.85 -1.05 1.8 -0.8 1.9 -0.85 1.95 -0.85 2.2" fill="#ffffee" fill-rule="evenodd" stroke="none"/>
    <path d="M-0.15 1.3 L-0.15 1.3 -0.2 1.3 -0.25 1.4 -0.25 1.65 -0.3 1.6 -0.3 1.55 -0.4 1.5 -0.45 1.55 -0.45 1.45 -0.35 1.45 -0.4 1.35 -0.3 1.4 Q-0.25 1.3 -0.15 1.2 L-0.15 1.3" fill="#ffcc54" fill-rule="evenodd" stroke="none"/>
    <path d="M-0.15 1.3 L-0.25 1.4 -0.2 1.3 -0.15 1.3" fill="#c3b148" fill-rule="evenodd" stroke="none"/>
    <path d="M-0.45 1.45 L-0.4 1.35 -0.35 1.45 -0.45 1.45" fill="#b5d056" fill-rule="evenodd" stroke="none"/>
    <path d="M-0.5 1.65 L-0.45 1.55 -0.4 1.5 -0.3 1.55 -0.3 1.6 -0.4 1.7 -0.45 1.7 -0.45 1.7 -0.5 1.65" fill="#7a8337" fill-rule="evenodd" stroke="none"/>
    <path d="M-0.35 1.85 L-0.4 1.9 -0.45 1.8 -0.5 1.75 -0.65 1.95 -0.6 1.8 -0.5 1.65 -0.45 1.7 -0.45 1.7 -0.4 1.75 -0.35 1.85" fill="#fd8f41" fill-rule="evenodd" stroke="none"/>
    <path d="M-0.3 1.75 L-0.35 1.85 -0.4 1.75 -0.45 1.7 -0.4 1.7 -0.3 1.75" fill="#f8f37a" fill-rule="evenodd" stroke="none"/>
    <path d="M-0.25 1.65 L-0.3 1.75 -0.4 1.7 -0.3 1.6 -0.25 1.65" fill="#ffffaa" fill-rule="evenodd" stroke="none"/>
    <path d="M-0.65 1.5 L-0.6 1.6 -0.7 1.9 -0.75 1.9 -0.75 1.75 -0.8 1.75 -0.75 1.6 -0.7 1.4 -0.65 1.5" fill="#ffffc9" fill-rule="evenodd" stroke="none"/>
    <path d="M-0.55 2.2 L-0.55 2.2 -0.65 2.1 -0.75 2.2 -0.85 2.2 -0.85 1.95 -0.8 1.9 -0.75 2.1 -0.65 2.05 Q-0.55 2.05 -0.45 1.9 L-0.45 1.95 -0.5 2.05 -0.55 2.2" fill="#fcb64d" fill-rule="evenodd" stroke="none"/>
    <path d="M-0.65 2.05 L-0.65 1.95 -0.5 1.75 -0.45 1.8 -0.4 1.9 -0.45 1.95 -0.45 1.9 Q-0.55 2.05 -0.65 2.05" fill="#967c35" fill-rule="evenodd" stroke="none"/>
    <path d="M-0.55 2.2 L-0.75 2.2 -0.65 2.1 -0.55 2.2" fill="#a78d3a" fill-rule="evenodd" stroke="none"/>
    <path d="M-0.25 2.2 L-0.35 2.2 -0.4 2.1 -0.5 2.05 -0.45 1.95 -0.4 1.9 -0.2 2.1 -0.25 2.2" fill="#ffffb3" fill-rule="evenodd" stroke="none"/>
  </g>
</svg>
