<?xml version="1.0" encoding="UTF-8" standalone="no"?>
<svg xmlns:xlink="http://www.w3.org/1999/xlink" height="7.05px" width="4.1px" xmlns="http://www.w3.org/2000/svg">
  <g transform="matrix(1.0, 0.0, 0.0, 1.0, 2.0, 3.55)">
    <path d="M0.9 -2.9 L0.9 -3.0 0.85 -3.15 Q0.85 -3.2 0.85 -3.25 L0.8 -3.45 0.75 -3.5 0.75 -3.55 0.8 -3.55 0.85 -3.55 1.1 -3.5 1.1 -3.5 1.15 -3.5 1.35 -3.45 1.4 -3.4 1.5 -3.3 1.5 -3.3 1.55 -3.25 1.6 -3.2 1.6 -3.15 1.65 -3.1 1.65 -3.1 1.7 -2.95 1.75 -2.85 1.8 -2.8 1.85 -2.7 1.9 -2.55 2.0 -2.3 2.05 -2.25 2.05 -2.15 2.1 -2.0 2.1 -1.95 2.1 -1.85 2.0 -1.35 2.0 -1.35 2.0 -1.1 Q1.95 -0.75 1.8 -0.45 L1.4 0.1 1.4 0.2 1.45 0.6 Q1.45 0.95 1.25 1.4 L1.1 1.65 1.05 1.8 0.9 2.0 0.75 2.1 0.75 2.05 0.8 2.0 0.7 2.05 0.65 2.05 0.55 2.15 0.5 2.15 0.45 2.15 0.4 2.2 0.2 2.3 0.0 2.35 -0.05 2.35 -0.1 2.35 -0.1 2.3 Q-0.15 2.25 -0.2 2.3 L-0.25 2.3 -0.3 2.25 -0.35 2.25 -0.4 2.25 -0.6 2.25 -0.65 2.3 -0.7 2.3 -0.65 2.2 -0.6 2.15 -0.5 1.95 -0.45 1.8 -0.45 1.75 -0.5 1.7 Q-0.55 1.65 -0.65 1.6 L-0.85 1.65 -0.8 1.4 -0.8 1.3 -0.75 1.2 -0.65 0.9 -0.65 0.85 -0.6 0.75 -0.55 0.7 -0.45 0.65 -0.45 0.65 Q-0.35 0.65 -0.3 0.55 L-0.25 0.5 -0.2 0.45 -0.15 0.35 -0.15 0.25 -0.2 0.1 -0.25 0.05 -0.4 -0.05 -0.15 -0.15 -0.1 -0.15 -0.05 -0.15 Q0.05 -0.2 0.1 -0.25 L0.15 -0.35 0.2 -0.4 0.35 -0.7 0.35 -0.8 0.35 -1.0 0.2 -1.1 Q0.2 -1.1 0.15 -1.15 L0.1 -1.15 Q-0.1 -1.15 -0.2 -1.0 L-0.25 -1.0 -0.3 -1.1 -0.3 -1.35 -0.25 -1.55 -0.15 -1.65 -0.15 -1.7 -0.05 -1.75 0.2 -2.0 0.25 -2.0 Q0.3 -2.1 0.35 -2.1 L0.4 -2.1 0.45 -2.15 0.45 -2.05 Q0.45 -2.05 0.55 -2.1 L0.6 -2.2 0.8 -2.6 0.8 -2.65 0.85 -2.75 0.9 -2.9 M0.55 -3.5 L0.45 -3.45 0.4 -3.45 0.35 -3.45 0.3 -3.45 0.25 -3.4 0.05 -3.35 0.05 -3.25 0.05 -3.15 -0.05 -2.9 -0.1 -2.75 -0.15 -2.7 Q-0.35 -2.6 -0.55 -2.6 L-0.6 -2.6 -0.65 -2.5 -0.75 -2.4 -0.8 -2.35 -0.85 -2.25 -0.85 -2.2 Q-0.95 -2.15 -0.85 -2.0 L-0.8 -1.9 -0.75 -1.9 -0.75 -1.8 -0.8 -1.65 -1.05 -1.8 Q-1.1 -1.7 -1.05 -1.6 L-0.95 -1.5 Q-0.9 -1.4 -0.95 -1.35 L-0.95 -1.3 -1.0 -1.25 -1.0 -1.2 -1.25 -1.3 -1.25 -1.25 -1.3 -1.1 -1.35 -1.1 -1.4 -1.15 -1.4 -1.2 -1.45 -1.25 -1.45 -1.2 -1.45 -1.1 Q-1.45 -1.0 -1.5 -0.9 L-1.5 -0.75 -1.5 -0.7 -1.45 -0.5 -1.5 -0.45 -1.5 -0.2 -1.5 0.05 -1.5 0.25 -1.5 0.25 -1.6 0.5 -1.65 0.75 -1.65 1.0 -1.7 1.3 -1.7 1.4 Q-1.7 1.45 -1.75 1.45 L-1.75 1.5 -1.7 1.75 -1.7 1.85 -1.6 2.05 Q-1.5 2.15 -1.5 2.2 L-1.5 2.3 -1.55 2.4 -1.5 2.45 -1.55 2.6 -1.5 2.75 -1.5 2.85 -1.45 2.95 -1.65 2.75 -1.7 2.6 -1.8 2.45 -1.8 2.25 -1.75 2.05 -1.8 1.95 -1.95 1.8 -1.9 1.75 -1.85 1.7 Q-1.95 1.65 -2.0 1.5 L-1.9 1.4 Q-2.0 1.15 -2.0 0.85 -2.0 0.55 -1.8 0.05 L-1.75 0.0 -1.75 -0.05 -1.7 -0.05 -1.65 -0.15 -1.65 -0.15 -1.7 -0.3 -1.7 -0.35 -1.6 -0.55 -1.75 -0.7 -1.65 -0.8 -1.7 -0.9 -1.55 -1.05 -1.55 -1.1 -1.5 -1.3 Q-1.5 -1.85 -1.3 -2.25 L-1.1 -2.65 -1.1 -2.65 Q-0.6 -3.45 0.55 -3.5" fill="#251414" fill-rule="evenodd" stroke="none"/>
    <path d="M0.35 -3.45 L0.4 -3.25 0.4 -3.15 0.3 -2.9 0.3 -2.85 0.2 -2.65 Q0.1 -2.55 0.1 -2.45 0.25 -2.5 0.3 -2.55 L0.35 -2.6 0.35 -2.55 0.3 -2.5 0.3 -2.45 0.25 -2.4 0.15 -2.25 0.1 -2.25 0.05 -2.15 -0.05 -2.05 -0.05 -1.95 0.1 -2.05 0.2 -2.1 0.3 -2.15 0.4 -2.25 0.4 -2.3 0.45 -2.25 0.45 -2.15 0.55 -2.2 0.6 -2.25 0.6 -2.25 0.65 -2.4 0.7 -2.45 0.8 -2.7 0.85 -2.75 0.85 -2.85 0.9 -2.9 0.85 -2.75 0.8 -2.65 0.8 -2.6 0.6 -2.2 0.55 -2.1 Q0.45 -2.05 0.45 -2.05 L0.45 -2.15 0.4 -2.1 0.35 -2.1 Q0.3 -2.1 0.25 -2.0 L0.2 -2.0 -0.05 -1.75 -0.15 -1.7 -0.15 -1.65 -0.25 -1.55 -0.3 -1.35 -0.3 -1.1 -0.4 -1.2 -0.55 -1.3 -0.6 -1.35 -0.55 -1.55 -0.55 -1.65 Q-0.65 -1.85 -0.6 -2.1 L-0.6 -2.15 Q-0.65 -2.3 -0.75 -2.4 L-0.65 -2.5 -0.6 -2.6 -0.55 -2.6 Q-0.35 -2.6 -0.15 -2.7 L-0.1 -2.75 -0.05 -2.9 0.05 -3.15 0.05 -3.25 0.05 -3.35 0.25 -3.4 0.3 -3.45 0.35 -3.45 M-0.05 -0.15 L-0.1 -0.15 -0.15 -0.15 -0.4 -0.05 -0.25 0.05 -0.3 0.05 -0.65 -0.15 -0.7 -0.15 -0.8 -0.2 -0.95 -0.15 -1.15 -0.1 -1.25 -0.1 -1.3 -0.05 -1.4 0.0 -1.4 0.05 -1.4 0.25 -1.45 0.3 -1.45 0.3 -1.55 0.6 -1.55 0.65 -1.6 0.75 -1.6 0.85 -1.3 0.9 -1.25 0.9 -1.2 0.9 -1.1 0.85 -1.05 0.7 -1.05 0.7 -0.95 0.65 Q-0.85 0.6 -0.85 0.45 L-0.85 0.4 Q-0.8 0.4 -0.8 0.5 L-0.75 0.55 -0.75 0.6 -0.8 0.7 Q-0.8 0.8 -0.7 0.8 L-0.65 0.5 -0.6 0.55 -0.6 0.6 -0.55 0.7 -0.6 0.75 -0.65 0.85 -0.65 0.9 -0.75 1.2 -0.8 1.3 -0.8 1.4 -0.85 1.65 -0.65 1.6 -0.65 1.65 -0.7 1.65 -0.9 1.65 -0.95 1.65 -1.15 1.7 -1.2 1.7 -1.3 1.65 Q-1.45 1.55 -1.4 1.7 L-1.4 1.75 -1.35 1.8 -1.45 1.75 -1.45 1.75 -1.55 1.8 -1.55 2.0 -1.5 2.1 -1.45 2.25 -1.45 2.4 -1.45 2.45 -1.35 2.35 -1.3 2.35 -1.2 2.35 -1.2 2.35 -1.05 2.45 -1.0 2.45 -0.95 2.45 -0.9 2.45 -0.85 2.4 -0.8 2.35 -0.7 2.3 -0.65 2.3 -0.6 2.25 -0.4 2.25 -0.35 2.25 -0.3 2.25 -0.25 2.3 -0.2 2.3 Q-0.15 2.25 -0.1 2.3 L-0.15 2.3 -0.2 2.3 -0.25 2.3 -0.3 2.35 -0.35 2.45 -0.3 2.55 -0.2 2.55 -0.05 2.6 0.05 2.6 0.35 2.6 0.4 2.6 0.45 2.6 0.4 2.65 0.35 2.7 Q0.35 3.0 0.15 3.2 L0.1 3.25 0.1 3.3 Q-0.2 3.5 -0.55 3.5 L-0.8 3.45 -1.35 3.1 -1.4 3.0 -1.45 2.95 -1.5 2.85 -1.5 2.75 -1.55 2.6 -1.5 2.45 -1.55 2.4 -1.5 2.3 -1.5 2.2 Q-1.5 2.15 -1.6 2.05 L-1.7 1.85 -1.7 1.75 -1.75 1.5 -1.75 1.45 Q-1.7 1.45 -1.7 1.4 L-1.7 1.3 -1.65 1.0 -1.65 0.75 -1.6 0.5 -1.5 0.25 -1.5 0.25 -1.5 0.05 -1.5 -0.2 -1.5 -0.45 -1.45 -0.5 -1.5 -0.7 -1.4 -0.65 -1.4 -0.65 -1.3 -0.65 -1.25 -0.7 Q-1.2 -0.8 -1.05 -0.75 L-1.0 -0.7 -0.95 -0.65 -0.95 -0.55 Q-0.8 -0.4 -0.65 -0.5 L-0.6 -0.5 -0.5 -0.6 -0.45 -0.6 -0.35 -0.6 -0.3 -0.55 -0.1 -0.55 -0.05 -0.6 0.0 -0.7 0.0 -0.6 -0.05 -0.35 -0.1 -0.3 -0.05 -0.15" fill="#8c4c4c" fill-rule="evenodd" stroke="none"/>
    <path d="M0.75 -3.55 L0.75 -3.5 0.8 -3.45 0.85 -3.25 Q0.85 -3.2 0.85 -3.15 L0.9 -3.0 0.9 -2.9 0.85 -2.85 0.85 -2.75 0.8 -2.7 0.7 -2.45 0.65 -2.4 0.6 -2.25 0.6 -2.25 0.55 -2.2 0.45 -2.15 0.45 -2.25 0.4 -2.3 0.4 -2.25 0.3 -2.15 0.2 -2.1 0.1 -2.05 -0.05 -1.95 -0.05 -2.05 0.05 -2.15 0.1 -2.25 0.15 -2.25 0.25 -2.4 0.3 -2.45 0.3 -2.5 0.35 -2.55 0.35 -2.6 0.3 -2.55 Q0.25 -2.5 0.1 -2.45 0.1 -2.55 0.2 -2.65 L0.3 -2.85 0.3 -2.9 0.4 -3.15 0.4 -3.25 0.35 -3.45 0.4 -3.45 0.45 -3.45 0.55 -3.5 0.7 -3.55 0.75 -3.55 M-0.3 -1.1 L-0.25 -1.0 -0.2 -1.0 Q-0.1 -1.15 0.1 -1.15 L0.15 -1.15 Q0.2 -1.1 0.2 -1.1 L0.35 -1.0 0.35 -0.8 0.35 -0.7 0.2 -0.4 0.15 -0.35 0.1 -0.25 Q0.05 -0.2 -0.05 -0.15 L-0.1 -0.3 -0.05 -0.35 0.0 -0.6 0.0 -0.7 -0.05 -0.75 -0.15 -0.75 -0.3 -0.7 -0.5 -0.7 -0.7 -0.75 -0.7 -0.8 -0.75 -0.85 Q-0.85 -0.9 -0.7 -0.95 L-0.65 -0.95 Q-0.55 -0.95 -0.6 -1.0 L-0.6 -1.2 -0.5 -1.2 -0.4 -1.2 -0.3 -1.1 M-0.25 0.05 L-0.2 0.1 -0.15 0.25 -0.15 0.35 -0.2 0.45 -0.25 0.5 -0.3 0.55 Q-0.35 0.65 -0.45 0.65 L-0.45 0.65 -0.55 0.7 -0.6 0.6 -0.6 0.55 -0.65 0.5 -0.7 0.8 Q-0.8 0.8 -0.8 0.7 L-0.75 0.6 -0.75 0.55 -0.8 0.5 Q-0.8 0.4 -0.85 0.4 L-0.9 0.35 -1.0 0.35 Q-1.15 0.2 -1.3 0.3 L-1.4 0.3 -1.45 0.3 -1.4 0.25 -1.4 0.05 -1.4 0.0 -1.3 -0.05 -1.25 -0.1 -1.15 -0.1 -0.95 -0.15 -0.8 -0.2 -0.7 -0.15 -0.65 -0.15 -0.3 0.05 -0.25 0.05 M-0.65 1.6 Q-0.55 1.65 -0.5 1.7 L-0.45 1.75 -0.45 1.8 -0.5 1.95 -0.5 1.95 -0.55 1.95 -0.85 2.0 -0.9 2.0 -1.0 2.05 -1.1 2.1 -1.15 2.1 Q-1.25 2.1 -1.25 2.05 L-1.3 2.0 -1.25 1.95 -1.25 1.9 -1.35 1.8 -1.4 1.75 -1.4 1.7 Q-1.45 1.55 -1.3 1.65 L-1.2 1.7 -1.15 1.7 -0.95 1.65 -0.9 1.65 -0.7 1.65 -0.65 1.65 -0.65 1.6 M-0.1 2.3 L-0.1 2.35 -0.05 2.35 0.0 2.35 0.2 2.3 0.4 2.2 0.45 2.15 0.5 2.15 0.55 2.15 0.65 2.05 0.7 2.05 0.8 2.0 0.75 2.05 0.75 2.1 0.7 2.2 0.6 2.4 0.55 2.45 0.45 2.6 0.4 2.6 0.35 2.6 0.05 2.6 -0.05 2.6 -0.2 2.55 -0.3 2.55 -0.35 2.45 -0.3 2.35 -0.25 2.3 -0.2 2.3 -0.15 2.3 -0.1 2.3" fill="#d28c8c" fill-rule="evenodd" stroke="none"/>
    <path d="M-0.5 1.95 L-0.6 2.15 -0.65 2.2 -0.7 2.3 -0.8 2.35 -0.85 2.4 -0.9 2.45 -0.95 2.45 -1.0 2.45 -1.05 2.45 -1.2 2.35 -1.2 2.35 -1.3 2.35 -1.35 2.35 -1.45 2.45 -1.45 2.4 -1.45 2.25 -1.5 2.1 -1.55 2.0 -1.55 1.8 -1.45 1.75 -1.45 1.75 -1.35 1.8 -1.25 1.9 -1.25 1.95 -1.3 2.0 -1.25 2.05 Q-1.25 2.1 -1.15 2.1 L-1.1 2.1 -1.0 2.05 -0.9 2.0 -0.85 2.0 -0.55 1.95 -0.5 1.95 -0.5 1.95 M-1.5 -0.7 L-1.5 -0.75 -1.5 -0.9 Q-1.45 -1.0 -1.45 -1.1 L-1.45 -1.2 -1.45 -1.25 -1.4 -1.2 -1.4 -1.15 -1.35 -1.1 -1.3 -1.1 -1.25 -1.25 -1.25 -1.3 -1.0 -1.2 -1.0 -1.25 -0.95 -1.3 -0.95 -1.35 Q-0.9 -1.4 -0.95 -1.5 L-1.05 -1.6 Q-1.1 -1.7 -1.05 -1.8 L-0.8 -1.65 -0.75 -1.8 -0.75 -1.9 -0.8 -1.9 -0.85 -2.0 Q-0.95 -2.15 -0.85 -2.2 L-0.85 -2.25 -0.8 -2.35 -0.75 -2.4 Q-0.65 -2.3 -0.6 -2.15 L-0.6 -2.1 Q-0.65 -1.85 -0.55 -1.65 L-0.55 -1.55 -0.6 -1.35 -0.55 -1.3 -0.4 -1.2 -0.5 -1.2 -0.6 -1.2 -0.6 -1.0 Q-0.55 -0.95 -0.65 -0.95 L-0.7 -0.95 Q-0.85 -0.9 -0.75 -0.85 L-0.7 -0.8 -0.7 -0.75 -0.5 -0.7 -0.3 -0.7 -0.15 -0.75 -0.05 -0.75 0.0 -0.7 -0.05 -0.6 -0.1 -0.55 -0.3 -0.55 -0.35 -0.6 -0.45 -0.6 -0.5 -0.6 -0.6 -0.5 -0.65 -0.5 Q-0.8 -0.4 -0.95 -0.55 L-0.95 -0.65 -1.0 -0.7 -1.05 -0.75 Q-1.2 -0.8 -1.25 -0.7 L-1.3 -0.65 -1.4 -0.65 -1.4 -0.65 -1.5 -0.7 M-0.85 0.4 L-0.85 0.45 Q-0.85 0.6 -0.95 0.65 L-1.05 0.7 -1.05 0.7 -1.1 0.85 -1.2 0.9 -1.25 0.9 -1.3 0.9 -1.6 0.85 -1.6 0.75 -1.55 0.65 -1.55 0.6 -1.45 0.3 -1.45 0.3 -1.4 0.3 -1.3 0.3 Q-1.15 0.2 -1.0 0.35 L-0.9 0.35 -0.85 0.4" fill="#af5f5f" fill-rule="evenodd" stroke="none"/>
    <path d="M1.9 -2.55 L1.85 -2.7 1.8 -2.8 1.75 -2.85 1.7 -2.95 1.65 -3.1 1.65 -3.1 Q1.75 -2.95 1.85 -2.8 L1.9 -2.55" fill="#255f79" fill-rule="evenodd" stroke="none"/>
  </g>
</svg>
