<?xml version="1.0" encoding="UTF-8" standalone="no"?>
<svg xmlns:xlink="http://www.w3.org/1999/xlink" height="2.5px" width="3.15px" xmlns="http://www.w3.org/2000/svg">
  <g transform="matrix(1.0, 0.0, 0.0, 1.0, 1.45, 0.9)">
    <path d="M0.9 -0.8 Q1.0 -0.85 1.1 -0.75 L1.2 -0.55 1.25 -0.7 1.25 -0.85 1.35 -0.85 1.35 -0.9 1.35 -0.9 1.4 -0.8 1.45 -0.65 1.45 -0.55 1.4 -0.25 1.4 -0.1 1.4 0.05 1.45 0.3 1.45 0.35 1.4 0.5 1.25 0.6 1.25 0.65 1.3 0.7 1.25 0.7 1.3 0.8 1.25 0.8 1.25 0.85 1.3 0.9 1.25 0.95 1.25 1.05 1.3 1.1 1.3 1.15 1.25 1.15 1.3 1.2 1.25 1.15 1.25 1.25 1.2 1.2 1.2 1.25 1.25 1.3 1.25 1.35 1.2 1.3 1.2 1.4 1.15 1.45 1.15 1.5 1.05 1.55 1.0 1.55 0.95 1.55 0.9 1.55 0.8 1.5 0.75 1.5 0.65 1.45 0.5 1.45 0.3 1.55 0.3 1.6 0.2 1.6 Q0.15 1.6 0.0 1.5 L0.0 1.5 -0.1 1.45 -0.1 1.45 -0.1 1.35 -0.2 1.3 Q-0.15 1.25 -0.15 1.2 L-0.15 1.2 -0.25 1.2 -0.25 1.15 -0.15 1.15 -0.15 1.0 -0.15 1.0 -0.2 1.05 -0.2 1.05 -0.25 1.05 Q-0.2 1.05 -0.2 0.95 L-0.2 0.95 -0.25 0.95 -0.25 0.8 -0.3 0.85 -0.35 0.9 -0.35 0.7 -0.4 0.7 -0.4 0.8 -0.45 0.75 -0.45 0.7 -0.45 0.6 -0.5 0.55 -0.5 0.6 Q-0.5 0.65 -0.55 0.65 L-0.55 0.55 Q-0.55 0.45 -0.6 0.5 L-0.6 0.55 -0.65 0.55 -0.65 0.55 -0.6 0.5 -0.6 0.4 -0.65 0.35 -0.75 0.25 -0.8 0.15 -0.85 0.1 -0.85 -0.1 -0.85 -0.2 -0.85 -0.2 -0.8 -0.2 -0.85 -0.3 -0.8 -0.4 -0.9 -0.4 -0.9 -0.45 -0.8 -0.6 Q-0.8 -0.5 -0.55 -0.35 L-0.55 -0.4 -0.55 -0.55 -0.45 -0.45 -0.25 -0.7 -0.25 -0.6 -0.15 -0.7 Q-0.1 -0.75 0.0 -0.8 L0.0 -0.75 -0.1 -0.6 0.1 -0.65 0.15 -0.65 0.05 -0.45 0.15 -0.45 0.3 -0.55 0.3 -0.6 Q0.25 -0.5 0.3 -0.45 L0.4 -0.4 0.4 -0.45 0.5 -0.3 0.5 -0.35 Q0.6 -0.35 0.6 -0.4 L0.65 -0.55 0.6 -0.7 0.6 -0.7 Q0.6 -0.65 0.65 -0.65 L0.8 -0.6 0.9 -0.6 0.85 -0.6 0.85 -0.7 0.9 -0.6 0.95 -0.6 0.95 -0.7 0.9 -0.8 M0.05 -0.1 L0.0 -0.1 -0.1 -0.1 -0.1 -0.15 -0.15 -0.15 -0.15 -0.2 -0.2 -0.25 -0.2 -0.2 -0.2 -0.2 -0.25 -0.2 -0.3 -0.25 -0.3 -0.25 -0.3 -0.2 -0.35 -0.2 -0.35 -0.25 -0.4 -0.25 -0.4 -0.2 -0.45 -0.2 -0.5 -0.25 -0.5 -0.3 -0.55 -0.3 -0.55 -0.25 -0.6 -0.25 -0.6 -0.25 -0.65 -0.25 -0.65 -0.2 -0.65 -0.1 -0.55 -0.1 -0.55 -0.05 -0.5 -0.05 -0.45 -0.1 -0.45 -0.1 -0.4 -0.1 -0.35 -0.1 -0.35 -0.1 -0.3 -0.1 -0.25 -0.1 -0.25 -0.1 -0.2 -0.1 -0.15 -0.05 -0.05 -0.05 0.0 0.05 0.05 0.05 0.1 0.05 0.15 0.05 Q0.1 0.0 0.1 -0.05 0.05 -0.05 0.05 -0.1 M0.9 -0.15 L0.9 -0.15 0.85 -0.1 0.8 -0.05 0.8 -0.05 0.75 -0.05 0.8 -0.05 0.85 -0.05 0.85 -0.05 1.0 -0.1 1.05 -0.1 1.05 -0.1 1.15 -0.1 1.15 -0.05 1.2 -0.1 1.2 -0.05 1.25 -0.05 1.25 0.0 1.25 0.0 1.3 0.0 1.3 -0.05 1.35 -0.05 1.4 -0.1 1.4 -0.15 1.3 -0.15 1.3 -0.15 1.3 -0.2 1.25 -0.2 1.25 -0.25 1.25 -0.25 1.2 -0.2 1.2 -0.25 1.15 -0.25 1.15 -0.2 1.15 -0.2 1.05 -0.2 1.05 -0.25 1.05 -0.2 1.0 -0.25 1.0 -0.25 0.95 -0.2 0.95 -0.2 0.9 -0.15 M0.75 -0.05 L0.75 -0.05 0.75 -0.05 M1.5 -0.1 L1.55 -0.1 1.6 -0.15 1.65 -0.05 1.65 0.0 1.7 0.05 1.65 0.05 1.65 0.1 1.7 0.2 1.7 0.4 1.65 0.45 1.6 0.45 1.6 0.55 1.5 0.6 1.5 0.5 1.5 0.15 1.5 0.05 1.5 -0.05 1.5 -0.1 M1.15 0.1 L1.2 0.05 Q1.15 0.0 1.1 0.0 L0.95 0.0 0.85 0.05 0.9 0.15 0.95 0.15 1.0 0.15 1.1 0.1 1.15 0.1 M0.05 0.1 L-0.05 0.05 -0.1 0.05 -0.1 0.05 -0.15 0.05 -0.35 0.05 Q-0.3 0.1 -0.15 0.15 L-0.15 0.15 -0.1 0.15 0.0 0.15 0.0 0.1 0.05 0.1 M-1.1 -0.1 L-1.1 -0.05 -1.0 0.0 -1.0 0.2 -0.95 0.25 -0.95 0.35 -0.95 0.35 -0.9 0.35 -0.95 0.45 -0.95 0.5 -0.9 0.55 -0.95 0.6 -0.95 0.6 -0.9 0.65 -1.0 0.7 Q-1.1 0.7 -1.15 0.6 L-1.15 0.55 Q-1.15 0.5 -1.2 0.5 L-1.2 0.5 -1.25 0.45 -1.25 0.45 -1.25 0.3 -1.25 0.2 -1.3 0.2 -1.35 0.15 -1.35 0.0 Q-1.35 -0.15 -1.3 -0.15 L-1.15 -0.1 -1.1 -0.1 M-1.45 0.25 L-1.4 0.25 -1.4 0.3 -1.45 0.25" fill="#1d5a55" fill-rule="evenodd" stroke="none"/>
  </g>
</svg>
