<?xml version="1.0" encoding="UTF-8" standalone="no"?>
<svg xmlns:xlink="http://www.w3.org/1999/xlink" height="15.3px" width="2.85px" xmlns="http://www.w3.org/2000/svg">
  <g transform="matrix(1.0, 0.0, 0.0, 1.0, 2.55, 6.55)">
    <path d="M-0.9 -4.1 L-0.9 -4.15 Q-0.4 -5.55 0.25 -6.45 -0.75 -3.6 -1.15 -0.3 -1.45 1.65 -1.5 3.8 L-1.5 5.95 -1.6 5.95 -2.25 6.0 -2.3 6.05 -2.3 6.0 -2.25 5.9 -2.15 5.75 -2.1 5.8 -2.05 5.85 Q-2.05 5.85 -1.95 5.8 -1.85 5.8 -1.85 5.75 L-1.9 5.65 -1.9 5.6 -1.85 5.6 -1.8 5.6 -1.85 5.55 -1.85 5.55 Q-1.85 5.55 -1.8 5.5 L-1.75 5.4 -1.75 5.35 -1.8 5.35 -1.9 5.5 -1.9 5.4 -1.95 5.4 -1.95 5.45 -1.9 5.65 Q-1.95 5.75 -2.0 5.75 L-2.05 5.7 -2.1 5.75 -2.15 5.65 Q-2.15 5.6 -2.15 5.5 L-2.1 5.2 -2.15 5.0 -2.05 4.65 Q-2.05 4.65 -2.0 4.75 L-1.9 4.85 -1.95 4.85 -1.95 5.1 -1.95 5.15 -1.9 5.1 -1.85 5.1 -1.85 5.2 -1.75 5.0 -1.8 4.8 -1.8 4.55 -1.75 4.3 -1.7 4.3 -1.6 4.35 -1.6 4.2 -1.6 4.0 Q-1.65 4.0 -1.65 4.0 L-1.65 4.15 Q-1.75 4.2 -1.75 4.05 -1.7 3.85 -1.8 3.85 L-1.75 3.45 -1.85 3.2 -1.8 3.15 -1.8 3.2 -1.75 3.25 Q-1.7 3.25 -1.7 3.1 L-1.75 3.0 -1.75 2.9 -1.8 2.8 -1.85 2.7 -1.85 2.3 Q-1.8 1.95 -1.75 1.95 L-1.7 2.0 -1.6 2.1 -1.65 2.2 -1.55 2.45 Q-1.55 2.55 -1.65 2.8 L-1.6 2.9 -1.6 2.9 Q-1.5 2.65 -1.5 2.5 L-1.45 2.25 -1.45 2.2 -1.5 2.2 -1.55 2.25 -1.6 2.15 -1.55 2.0 Q-1.55 1.95 -1.6 1.9 L-1.65 1.85 -1.65 1.75 -1.7 1.65 -1.7 1.55 -1.75 1.45 -1.7 1.4 -1.65 1.35 Q-1.6 1.35 -1.65 1.45 L-1.6 1.45 -1.5 1.5 Q-1.45 1.5 -1.35 1.15 L-1.4 1.05 -1.4 1.0 -1.45 0.9 -1.5 1.0 -1.45 1.1 Q-1.45 1.2 -1.5 1.2 L-1.6 1.05 -1.6 0.95 -1.65 0.85 -1.6 0.7 -1.6 0.6 -1.55 0.55 -1.5 0.6 -1.45 0.45 -1.5 0.3 -1.45 0.2 -1.5 0.1 -1.45 0.0 Q-1.4 0.0 -1.35 0.05 -1.25 0.05 -1.25 -0.15 L-1.25 -0.4 -1.2 -0.4 -1.25 -0.45 -1.35 -0.55 -1.3 -0.6 -1.3 -0.6 Q-1.2 -0.6 -1.2 -0.6 L-1.2 -0.65 -1.25 -0.85 -1.3 -1.0 -1.25 -1.2 -1.2 -1.3 Q-1.2 -1.3 -1.15 -1.3 L-1.15 -1.25 -1.1 -1.45 -1.15 -1.65 -1.15 -1.8 -1.1 -2.05 -1.05 -2.2 -1.0 -2.15 -1.0 -2.15 -0.9 -2.5 -0.9 -2.55 -0.95 -2.55 -1.0 -2.5 -1.05 -2.45 -1.1 -2.45 -1.1 -2.7 -1.05 -2.85 -1.05 -2.9 -1.05 -2.95 -1.0 -2.95 -0.95 -2.95 -0.9 -3.25 Q-0.8 -3.45 -0.8 -3.65 -0.8 -3.8 -0.9 -4.1" fill="#462c22" fill-rule="evenodd" stroke="none"/>
    <path d="M-0.9 -4.1 Q-0.8 -3.8 -0.8 -3.65 -0.8 -3.45 -0.9 -3.25 L-0.95 -2.95 -1.0 -2.95 -1.05 -2.95 -1.05 -2.9 -1.05 -2.85 -1.1 -2.7 -1.1 -2.45 -1.05 -2.45 -1.0 -2.5 -0.95 -2.55 -0.9 -2.55 -0.9 -2.5 -1.0 -2.15 -1.0 -2.15 -1.05 -2.2 -1.1 -2.05 -1.15 -1.8 -1.15 -1.65 -1.1 -1.45 -1.15 -1.25 -1.15 -1.3 Q-1.2 -1.3 -1.2 -1.3 L-1.25 -1.2 -1.3 -1.0 -1.25 -0.85 -1.2 -0.65 -1.2 -0.6 Q-1.2 -0.6 -1.3 -0.6 L-1.3 -0.6 -1.35 -0.55 -1.25 -0.45 -1.2 -0.4 -1.25 -0.4 -1.25 -0.15 Q-1.25 0.05 -1.35 0.05 -1.4 0.0 -1.45 0.0 L-1.5 0.1 -1.45 0.2 -1.5 0.3 -1.45 0.45 -1.5 0.6 -1.55 0.55 -1.6 0.6 -1.6 0.7 -1.65 0.85 -1.6 0.95 -1.6 1.05 -1.5 1.2 Q-1.45 1.2 -1.45 1.1 L-1.5 1.0 -1.45 0.9 -1.4 1.0 -1.4 1.05 -1.35 1.15 Q-1.45 1.5 -1.5 1.5 L-1.6 1.45 -1.65 1.45 Q-1.6 1.35 -1.65 1.35 L-1.7 1.4 -1.75 1.45 -1.7 1.55 -1.7 1.65 -1.65 1.75 -1.65 1.85 -1.6 1.9 Q-1.55 1.95 -1.55 2.0 L-1.6 2.15 -1.55 2.25 -1.5 2.2 -1.45 2.2 -1.45 2.25 -1.5 2.5 Q-1.5 2.65 -1.6 2.9 L-1.6 2.9 -1.65 2.8 Q-1.55 2.55 -1.55 2.45 L-1.65 2.2 -1.6 2.1 -1.7 2.0 -1.75 1.95 Q-1.8 1.95 -1.85 2.3 L-1.85 2.7 -1.8 2.8 -1.75 2.9 -1.75 3.0 -1.7 3.1 Q-1.7 3.25 -1.75 3.25 L-1.8 3.2 -1.8 3.15 -1.85 3.2 -1.75 3.45 -1.8 3.85 Q-1.7 3.85 -1.75 4.05 -1.75 4.2 -1.65 4.15 L-1.65 4.0 Q-1.65 4.0 -1.6 4.0 L-1.6 4.2 -1.6 4.35 -1.7 4.3 -1.75 4.3 -1.8 4.55 -1.8 4.8 -1.75 5.0 -1.85 5.2 -1.85 5.1 -1.9 5.1 -1.95 5.15 -1.95 5.1 -1.95 4.85 -1.9 4.85 -2.0 4.75 Q-2.05 4.65 -2.05 4.65 L-2.15 5.0 -2.1 5.2 -2.15 5.5 Q-2.15 5.6 -2.15 5.65 L-2.1 5.75 -2.05 5.7 -2.0 5.75 Q-1.95 5.75 -1.9 5.65 L-1.95 5.45 -1.95 5.4 -1.9 5.4 -1.9 5.5 -1.8 5.35 -1.75 5.35 -1.75 5.4 -1.8 5.5 Q-1.85 5.55 -1.85 5.55 L-1.85 5.55 -1.8 5.6 -1.85 5.6 -1.9 5.6 -1.9 5.65 -1.85 5.75 Q-1.85 5.8 -1.95 5.8 -2.05 5.85 -2.05 5.85 L-2.1 5.8 -2.15 5.75 -2.25 5.9 -2.3 6.0 Q-2.3 4.45 -2.15 2.7 -1.8 -1.5 -0.9 -4.1" fill="#513024" fill-rule="evenodd" stroke="none"/>
    <path d="M-1.6 5.95 L-1.5 5.95 Q-1.4 6.0 -1.35 6.05 -1.3 6.1 -1.3 6.35 L-1.35 6.5 -1.35 6.55 -1.4 6.55 -1.5 6.65 -1.5 6.65 -1.7 6.6 -1.75 6.65 -1.75 6.65 -1.7 6.7 -2.05 6.8 -2.25 6.75 -2.3 6.75 -2.45 6.7 -2.4 6.6 -2.3 6.6 -2.2 6.65 -2.1 6.6 -2.1 6.5 Q-2.1 6.45 -2.05 6.45 L-2.0 6.5 -1.95 6.5 -1.95 6.4 -1.9 6.4 -1.85 6.45 -1.75 6.5 Q-1.65 6.5 -1.65 6.35 -1.65 6.3 -1.7 6.3 L-1.8 6.25 -1.8 6.2 -1.75 6.2 -1.75 6.15 -1.85 6.15 -1.6 5.95 M-1.35 6.6 Q-1.25 6.75 -1.25 6.85 L-1.3 7.0 -1.35 7.1 -1.45 7.15 -1.5 7.15 -1.6 7.2 -2.15 7.25 -2.3 7.2 -2.35 7.2 -2.45 7.1 -2.45 6.95 -2.4 6.9 Q-2.45 6.95 -2.35 7.0 L-2.3 7.0 -2.25 7.0 -2.25 7.1 -2.2 7.1 Q-2.2 7.05 -2.15 7.05 -2.05 7.05 -2.0 7.15 L-1.95 7.15 -1.95 7.05 -1.9 7.05 -1.85 7.1 Q-1.7 7.1 -1.7 7.0 L-1.75 6.95 -1.75 6.9 -1.85 6.9 -1.85 6.8 Q-1.7 6.8 -1.7 6.75 L-1.7 6.7 -1.5 6.8 -1.45 6.8 -1.35 6.6 M-1.3 7.15 L-1.3 7.45 Q-1.3 7.65 -1.35 7.7 L-1.35 7.75 -1.4 7.75 -1.65 7.8 -1.75 7.8 -2.15 7.8 -2.15 7.85 -2.1 7.85 -2.05 7.9 -1.95 7.85 -1.85 7.9 Q-1.85 7.9 -1.8 7.9 -1.75 7.9 -1.7 7.9 L-1.65 7.85 -1.4 7.9 -1.4 7.9 -1.3 7.8 -1.25 8.0 -1.4 8.05 Q-1.45 8.1 -1.55 8.15 -1.85 8.3 -2.0 8.3 L-2.15 8.25 Q-2.25 8.25 -2.25 8.1 L-2.2 7.95 -2.2 7.95 -2.3 7.95 -2.3 7.95 -2.4 7.85 -2.35 7.75 Q-2.45 7.65 -2.45 7.4 L-2.45 7.4 -2.3 7.45 Q-2.2 7.5 -2.2 7.5 L-2.25 7.55 -2.2 7.6 -2.15 7.6 -2.15 7.7 -2.05 7.6 -2.0 7.55 -1.95 7.65 -1.9 7.65 -1.85 7.7 -1.75 7.7 -1.8 7.6 -1.8 7.55 -1.65 7.65 -1.6 7.65 -1.6 7.6 Q-1.6 7.55 -1.7 7.5 L-1.8 7.4 Q-1.8 7.4 -1.7 7.4 -1.65 7.4 -1.6 7.45 L-1.6 7.4 -1.6 7.35 -1.65 7.3 -1.6 7.3 -1.4 7.3 -1.3 7.15 M-1.3 8.2 L-1.25 8.25 -1.25 8.5 Q-1.3 8.65 -1.35 8.7 L-1.9 8.75 -1.95 8.75 -2.0 8.65 Q-2.05 8.6 -2.05 8.55 L-2.1 8.5 -2.25 8.5 -2.3 8.5 -2.45 8.45 -2.45 8.4 -2.4 8.3 -2.3 8.4 -2.25 8.4 -2.05 8.4 -2.05 8.45 -2.1 8.5 -2.1 8.5 -2.05 8.55 -1.95 8.5 -1.75 8.6 -1.55 8.4 -1.35 8.25 -1.3 8.2" fill="#93702c" fill-rule="evenodd" stroke="none"/>
    <path d="M-2.3 6.05 L-2.25 6.0 -1.6 5.95 -1.85 6.15 -1.75 6.15 -1.75 6.2 -1.8 6.2 -1.8 6.25 -1.7 6.3 Q-1.65 6.3 -1.65 6.35 -1.65 6.5 -1.75 6.5 L-1.85 6.45 -1.9 6.4 -1.95 6.4 -1.95 6.5 -2.0 6.5 -2.05 6.45 Q-2.1 6.45 -2.1 6.5 L-2.1 6.6 -2.2 6.65 -2.3 6.6 -2.4 6.6 -2.45 6.55 -2.5 6.35 Q-2.5 6.15 -2.35 6.05 L-2.3 6.05 M-1.25 8.0 L-1.25 8.05 -1.3 8.15 -1.4 8.25 Q-1.55 8.35 -2.05 8.4 L-2.25 8.4 -2.3 8.4 -2.4 8.3 -2.45 8.05 -2.4 7.85 -2.3 7.95 -2.3 7.95 -2.2 7.95 -2.2 7.95 -2.25 8.1 Q-2.25 8.25 -2.15 8.25 L-2.0 8.3 Q-1.85 8.3 -1.55 8.15 -1.45 8.1 -1.4 8.05 L-1.25 8.0 M-1.95 8.75 L-2.35 8.7 -2.45 8.6 -2.45 8.45 -2.3 8.5 -2.25 8.5 -2.1 8.5 -2.05 8.55 Q-2.05 8.6 -2.0 8.65 L-1.95 8.75 M-2.45 7.4 L-2.35 7.2 -2.3 7.2 -2.15 7.25 -1.6 7.2 -1.6 7.3 -1.65 7.3 -1.6 7.35 -1.6 7.4 -1.6 7.45 Q-1.65 7.4 -1.7 7.4 -1.8 7.4 -1.8 7.4 L-1.7 7.5 Q-1.6 7.55 -1.6 7.6 L-1.6 7.65 -1.65 7.65 -1.8 7.55 -1.8 7.6 -1.75 7.7 -1.85 7.7 -1.9 7.65 -1.95 7.65 -2.0 7.55 -2.05 7.6 -2.15 7.7 -2.15 7.6 -2.2 7.6 -2.25 7.55 -2.2 7.5 Q-2.2 7.5 -2.3 7.45 L-2.45 7.4 M-2.45 6.95 L-2.5 6.75 -2.45 6.7 -2.3 6.75 -2.25 6.75 -2.05 6.8 -1.7 6.7 -1.7 6.7 -1.7 6.75 Q-1.7 6.8 -1.85 6.8 L-1.85 6.9 -1.75 6.9 -1.75 6.95 -1.7 7.0 Q-1.7 7.1 -1.85 7.1 L-1.9 7.05 -1.95 7.05 -1.95 7.15 -2.0 7.15 Q-2.05 7.05 -2.15 7.05 -2.2 7.05 -2.2 7.1 L-2.25 7.1 -2.25 7.0 -2.3 7.0 -2.35 7.0 Q-2.45 6.95 -2.4 6.9 L-2.45 6.95 M-1.65 7.85 L-1.7 7.9 Q-1.75 7.9 -1.8 7.9 -1.85 7.9 -1.85 7.9 L-1.95 7.85 -2.05 7.9 -2.1 7.85 -2.15 7.85 -2.15 7.8 -1.75 7.8 -1.65 7.8 -1.6 7.85 -1.65 7.85" fill="#a38f32" fill-rule="evenodd" stroke="none"/>
    <path d="M-1.4 6.55 L-1.35 6.6 -1.45 6.8 -1.5 6.8 -1.7 6.7 -1.75 6.65 -1.75 6.65 -1.7 6.6 -1.5 6.65 -1.5 6.65 -1.4 6.55 M-1.35 7.1 L-1.3 7.15 -1.4 7.3 -1.6 7.3 -1.6 7.2 -1.5 7.15 -1.45 7.15 -1.35 7.1 M-1.35 7.7 L-1.3 7.8 -1.4 7.9 -1.4 7.9 -1.65 7.85 -1.6 7.85 -1.65 7.8 -1.4 7.75 -1.35 7.75 -1.35 7.7 M-1.3 8.15 L-1.3 8.2 -1.35 8.25 -1.55 8.4 -1.75 8.6 -1.95 8.5 -2.05 8.55 -2.1 8.5 -2.1 8.5 -2.05 8.45 -2.05 8.4 Q-1.55 8.35 -1.4 8.25 L-1.3 8.15 M-1.7 6.7 L-1.7 6.7" fill="#69501f" fill-rule="evenodd" stroke="none"/>
    <path d="M-1.5 5.95 L-1.5 3.8 Q-1.45 1.65 -1.15 -0.3 -0.75 -3.6 0.25 -6.45 -0.4 -5.55 -0.9 -4.15 L-0.9 -4.1 Q-1.8 -1.5 -2.15 2.7 -2.3 4.45 -2.3 6.0 L-2.3 6.05 -2.35 6.05 Q-2.5 6.15 -2.5 6.35 L-2.45 6.55 -2.4 6.6 -2.45 6.7 -2.5 6.75 -2.45 6.95 -2.45 7.1 -2.35 7.2 -2.45 7.4 -2.45 7.4 Q-2.45 7.65 -2.35 7.75 L-2.4 7.85 -2.45 8.05 -2.4 8.3 -2.45 8.4 -2.45 8.45 M-1.5 5.95 Q-1.4 6.0 -1.35 6.05 -1.3 6.1 -1.3 6.35 L-1.35 6.5 -1.35 6.55 -1.4 6.55 -1.35 6.6 Q-1.25 6.75 -1.25 6.85 L-1.3 7.0 -1.35 7.1 -1.3 7.15 -1.3 7.45 Q-1.3 7.65 -1.35 7.7 L-1.3 7.8 -1.25 8.0 -1.25 8.05 -1.3 8.15 -1.3 8.2 -1.25 8.25 -1.25 8.5" fill="none" stroke="#000000" stroke-linecap="round" stroke-linejoin="round" stroke-opacity="0.4509804" stroke-width="0.1"/>
  </g>
</svg>
