<?xml version="1.0" encoding="UTF-8" standalone="no"?>
<svg xmlns:xlink="http://www.w3.org/1999/xlink" height="17.6px" width="4.3px" xmlns="http://www.w3.org/2000/svg">
  <g transform="matrix(1.0, 0.0, 0.0, 1.0, 2.6, 9.0)">
    <path d="M0.2 -6.25 L0.2 -6.45 0.5 -6.15 0.45 -6.05 0.45 -5.95 0.3 -5.9 Q0.25 -5.85 0.25 -5.8 L0.3 -5.65 0.4 -5.55 0.35 -5.5 0.35 -5.45 0.25 -5.45 0.2 -5.5 0.2 -5.55 0.15 -5.55 0.1 -5.55 0.05 -5.65 0.15 -6.05 0.2 -6.05 0.25 -6.05 0.25 -6.05 0.35 -6.05 0.35 -6.1 0.2 -6.15 0.2 -6.25 M0.15 -5.5 L0.15 -5.45 0.25 -5.35 0.1 -5.2 Q0.05 -5.1 0.05 -5.05 0.05 -5.0 0.15 -4.9 L0.1 -4.75 -0.05 -4.9 -0.2 -5.0 -0.1 -5.2 -0.1 -5.25 0.0 -5.45 0.0 -5.5 0.05 -5.55 0.15 -5.5 M-0.3 -4.65 L-0.25 -4.6 -0.35 -4.4 -0.15 -4.25 -0.1 -4.15 -0.15 -4.15 -0.35 -4.15 -0.45 -4.15 -0.55 -4.05 -0.55 -4.15 -0.5 -4.4 -0.5 -4.4 Q-0.45 -4.65 -0.35 -4.65 L-0.3 -4.65 M1.15 -8.8 L1.15 -8.8 1.35 -8.75 1.4 -8.7 1.25 -8.5 1.15 -8.5 1.1 -8.6 1.15 -8.8 M0.45 -7.9 L0.45 -7.95 Q0.45 -8.2 0.6 -8.2 L0.65 -8.15 0.7 -8.05 0.65 -7.95 Q0.6 -7.95 0.6 -8.0 L0.45 -7.9 M0.65 -7.45 L0.65 -7.45 Q0.6 -7.35 0.5 -7.35 L0.4 -7.4 0.4 -7.4 0.35 -7.25 Q0.3 -7.25 0.3 -7.3 L0.3 -7.45 Q0.3 -7.5 0.35 -7.5 L0.4 -7.6 0.4 -7.7 0.65 -7.45 M0.6 -6.85 L0.6 -6.75 0.5 -6.7 0.35 -6.75 Q0.35 -6.6 0.3 -6.6 0.2 -6.65 0.2 -6.75 0.2 -7.05 0.25 -7.1 L0.3 -7.1 0.4 -6.95 Q0.5 -6.85 0.6 -6.85 M-0.6 -3.95 L-0.6 -3.95 -0.5 -3.9 -0.45 -3.65 Q-0.45 -3.5 -0.25 -3.45 L-0.25 -3.35 -0.35 -3.35 -0.5 -3.4 Q-0.6 -3.4 -0.55 -3.3 L-0.55 -3.3 -0.6 -3.3 -0.65 -3.3 -0.7 -3.35 -0.8 -3.4 -0.7 -3.7 -0.6 -3.95 M-0.65 -2.65 Q-0.6 -2.5 -0.45 -2.5 L-0.45 -2.45 -0.65 -2.45 -0.7 -2.35 -0.75 -2.3 Q-0.8 -2.4 -0.8 -2.45 L-0.8 -2.5 Q-0.8 -2.65 -0.7 -2.65 L-0.65 -2.65 M-1.15 -2.35 L-1.05 -2.55 -0.85 -2.35 -0.75 -2.25 -0.7 -2.2 -0.75 -2.2 -0.8 -2.2 -0.85 -2.25 -0.95 -2.25 -0.95 -2.15 Q-1.0 -2.15 -1.0 -2.15 L-1.05 -2.2 Q-1.1 -2.2 -1.1 -2.1 L-1.0 -2.0 -0.85 -1.85 -0.95 -1.8 -0.95 -1.85 Q-1.05 -1.85 -1.1 -1.9 L-1.15 -1.9 -1.2 -1.6 -1.3 -1.35 -1.35 -1.3 -1.4 -1.3 -1.4 -1.45 -1.35 -1.5 -1.2 -2.05 -1.15 -2.0 Q-1.15 -2.0 -1.1 -2.05 L-1.1 -2.05 -1.15 -2.05 -1.2 -2.15 -1.15 -2.35 M-1.5 -0.6 L-1.45 -0.75 -1.4 -1.05 -1.35 -1.0 -1.35 -0.95 -1.3 -0.85 -1.2 -0.8 -1.2 -0.7 -1.35 -0.65 -1.35 -0.55 Q-1.35 -0.45 -1.4 -0.4 L-1.4 -0.45 Q-1.5 -0.45 -1.5 -0.5 L-1.5 -0.6 M-1.3 -0.15 L-1.3 -0.1 -1.25 0.0 -1.4 0.0 -1.45 0.05 -1.4 0.15 -1.45 0.3 Q-1.55 0.25 -1.5 0.15 L-1.6 0.1 -1.65 0.05 -1.5 -0.3 -1.5 -0.3 Q-1.5 -0.25 -1.45 -0.25 L-1.3 -0.15 M-2.05 2.05 Q-1.9 1.2 -1.75 0.6 L-1.65 0.15 -1.55 0.4 -1.6 0.55 -1.65 0.6 -1.65 0.6 -1.7 0.65 -1.65 0.75 -1.75 0.85 -1.8 1.15 -1.85 1.3 -1.9 1.55 -1.85 1.75 Q-1.85 1.85 -1.95 1.85 -2.0 1.9 -2.0 2.1 L-2.0 2.15 -2.05 2.15 -2.05 2.15 -2.05 2.05 M-1.65 0.75 L-1.65 0.75 M-2.1 2.8 L-2.1 2.65 -2.05 2.65 -1.95 2.7 Q-1.95 2.7 -1.95 2.8 -1.9 2.85 -1.85 2.8 -1.85 2.75 -1.8 2.75 -1.75 2.75 -1.75 2.85 L-1.7 2.9 Q-1.55 2.9 -1.55 3.0 L-1.6 3.05 -1.65 3.1 -1.6 3.15 -1.75 3.25 -1.8 3.35 -1.8 3.5 -1.8 3.55 -1.85 3.55 -1.9 3.5 -1.85 3.25 -1.85 3.1 -1.9 3.2 Q-1.95 3.15 -1.95 3.15 L-2.0 3.2 -2.0 3.25 -2.05 3.25 -2.1 3.2 -2.1 3.2 -2.15 3.25 -2.1 2.8 M-1.25 0.5 L-1.3 0.55 -1.3 0.6 -1.35 0.7 -1.25 0.8 -1.1 0.9 -1.1 0.95 -1.4 0.85 -1.45 0.9 -1.5 1.0 Q-1.5 0.95 -1.6 0.95 L-1.5 0.6 Q-1.45 0.3 -1.3 0.3 L-1.25 0.3 -1.25 0.5 M-1.6 1.05 L-1.4 1.2 -1.15 1.25 -1.2 1.45 -1.2 1.45 -1.3 1.4 -1.3 1.4 -1.35 1.4 -1.4 1.4 -1.55 1.4 -1.65 1.35 -1.65 1.3 -1.6 1.15 -1.6 1.05 M-1.25 1.85 L-1.2 2.0 Q-1.25 1.95 -1.35 1.95 -1.7 1.95 -1.7 2.25 L-1.85 2.15 -1.85 2.1 -1.8 1.95 Q-1.7 1.85 -1.6 1.8 L-1.6 1.8 -1.55 1.75 -1.3 1.85 -1.25 1.85 M-1.45 2.35 L-1.55 2.35 Q-1.55 2.4 -1.6 2.45 L-1.6 2.3 -1.55 2.15 Q-1.5 2.05 -1.4 2.05 -1.2 2.05 -1.2 2.25 L-1.25 2.35 -1.3 2.45 -1.4 2.35 -1.35 2.3 -1.45 2.3 -1.45 2.35 M-1.45 4.8 L-1.5 4.85 -1.6 4.9 Q-1.75 4.9 -1.8 4.75 -1.9 4.65 -1.9 4.5 -1.9 4.3 -1.75 4.3 L-1.8 4.4 -1.8 4.5 Q-1.75 4.5 -1.75 4.55 L-1.75 4.6 -1.8 4.65 -1.75 4.75 -1.65 4.8 -1.6 4.75 -1.5 4.8 -1.45 4.8 M-2.3 5.5 Q-2.15 5.7 -2.15 5.75 L-2.25 6.1 -2.3 6.1 -2.3 5.5 M-2.5 6.25 L-2.45 6.25 -2.4 6.3 -2.4 6.2 -2.35 6.2 -2.25 6.2 -2.25 6.15 Q-2.25 6.15 -2.2 6.15 L-2.15 6.15 -2.1 6.15 -2.05 6.05 -2.05 6.05 -2.0 6.1 -2.0 6.15 -1.95 6.05 -1.85 6.0 Q-1.8 6.0 -1.8 6.1 L-1.75 6.05 -1.7 6.0 Q-1.65 6.0 -1.65 6.1 L-1.6 6.0 -1.5 5.95 Q-1.5 5.95 -1.45 6.05 L-1.5 6.15 -1.45 6.1 -1.4 6.1 Q-1.3 6.1 -1.3 6.1 -1.3 6.15 -1.4 6.25 L-1.8 6.15 -2.05 6.2 Q-2.2 6.25 -2.3 6.3 L-2.4 6.35 -2.45 6.4 -2.5 6.3 -2.5 6.25 M-1.6 6.9 L-1.55 6.85 -1.4 6.75 -1.15 6.85 -1.2 6.95 -1.2 7.05 -1.35 7.0 -1.5 6.9 -1.6 6.9 M-2.45 6.8 L-2.4 6.8 -2.25 6.75 -2.05 6.75 Q-2.0 6.8 -1.95 6.85 L-2.05 6.85 -2.25 6.9 -2.4 6.95 -2.4 6.9 -2.45 6.8 M-2.0 7.65 L-1.9 7.55 -1.75 7.5 -1.55 7.55 Q-1.65 7.65 -1.7 7.65 L-1.85 7.65 -1.9 7.65 -1.95 7.65 -2.0 7.65 M-1.95 7.1 L-1.7 7.2 Q-1.75 7.3 -1.9 7.3 L-2.15 7.2 -2.1 7.15 -2.05 7.1 -1.95 7.1 M-2.4 8.0 L-2.3 8.0 Q-2.3 7.85 -2.2 7.85 L-2.1 7.9 Q-2.1 8.25 -2.2 8.25 L-2.4 8.05 -2.4 8.0 M-1.95 8.0 L-1.8 7.9 Q-1.7 7.9 -1.65 7.95 L-1.65 8.05 -1.7 8.1 -1.8 8.15 -1.95 8.0" fill="#79674b" fill-rule="evenodd" stroke="none"/>
    <path d="M0.05 -6.4 L0.2 -6.25 0.2 -6.15 0.2 -6.05 0.15 -6.05 0.05 -5.65 0.1 -5.55 0.15 -5.55 0.15 -5.5 0.05 -5.55 0.0 -5.5 -0.05 -5.7 0.05 -6.2 0.05 -6.4 M-0.25 -4.7 L-0.25 -4.65 -0.3 -4.65 -0.35 -4.65 Q-0.45 -4.65 -0.5 -4.4 L-0.5 -4.4 -0.6 -4.4 -0.2 -5.35 -0.15 -5.25 -0.1 -5.2 -0.2 -5.0 -0.2 -4.9 -0.2 -4.85 Q-0.2 -4.8 -0.3 -4.8 L-0.25 -4.7 -0.25 -4.7 M-0.2 -4.0 L-0.1 -4.0 Q-0.05 -4.0 0.05 -4.05 L-0.25 -2.95 -0.35 -3.0 -0.35 -3.05 -0.3 -3.3 -0.25 -3.35 -0.25 -3.45 -0.25 -3.5 -0.2 -3.55 Q-0.2 -3.65 -0.25 -3.7 L-0.25 -3.75 -0.3 -3.85 -0.25 -3.85 -0.2 -3.85 -0.15 -3.95 -0.2 -4.0 M0.45 -5.45 L0.45 -5.5 0.45 -5.45 M1.15 -8.5 L0.95 -8.5 0.9 -8.65 Q0.9 -8.7 1.0 -8.75 L1.15 -8.8 1.1 -8.6 1.15 -8.5 M-0.7 -4.1 L-0.6 -4.0 -0.6 -3.95 -0.7 -3.7 -0.8 -3.4 -0.7 -3.35 -0.65 -3.3 -0.6 -3.25 -0.55 -3.2 -0.6 -3.15 -0.65 -3.15 -0.65 -3.2 -0.7 -3.2 -0.75 -3.2 -0.8 -3.25 -0.9 -3.2 -0.95 -3.25 -0.95 -3.3 -0.7 -4.1 M-1.0 -2.95 L-1.05 -2.7 -1.0 -2.7 -0.9 -2.7 Q-0.8 -2.6 -0.8 -2.5 L-0.8 -2.45 Q-0.8 -2.4 -0.85 -2.35 L-1.05 -2.55 -1.15 -2.35 -1.2 -2.4 -1.05 -3.0 -1.0 -2.95 M-0.65 -1.6 L-0.6 -1.65 -0.55 -1.65 -0.6 -1.3 -0.7 -1.45 -0.65 -1.6 M-1.3 -1.3 L-1.3 -1.3 -1.35 -1.2 -1.35 -1.1 -1.35 -1.0 -1.4 -1.05 -1.45 -0.75 -1.5 -0.6 -1.65 -0.5 -1.4 -1.55 -1.35 -1.5 -1.4 -1.45 -1.4 -1.3 -1.35 -1.3 -1.3 -1.35 -1.3 -1.3 M-0.85 -0.85 L-0.8 -0.95 -0.75 -1.05 -0.7 -1.0 -0.7 -0.95 -0.7 -0.85 -0.8 -0.5 -0.85 -0.75 -0.85 -0.85" fill="#d2cebb" fill-rule="evenodd" stroke="none"/>
    <path d="M0.05 -6.4 L0.1 -6.75 0.1 -6.85 Q0.25 -7.75 0.5 -8.5 0.6 -8.6 0.8 -8.75 0.95 -8.9 1.1 -8.9 1.25 -8.95 1.4 -8.85 1.55 -8.75 1.6 -8.45 1.65 -8.25 1.6 -8.05 1.5 -7.85 1.3 -7.8 L1.1 -7.85 Q1.0 -7.9 0.95 -8.05 0.95 -8.25 1.1 -8.4 0.95 -8.35 0.85 -8.15 L0.75 -7.8 0.65 -6.9 0.65 -6.85 0.55 -6.2 0.45 -5.5 0.45 -5.45 0.05 -4.05 Q-0.05 -4.0 -0.1 -4.0 L-0.2 -4.0 -0.2 -4.05 -0.15 -4.1 -0.15 -4.15 -0.1 -4.15 -0.15 -4.25 -0.15 -4.3 0.0 -4.3 -0.25 -4.6 -0.3 -4.65 -0.25 -4.65 -0.25 -4.7 -0.2 -4.65 0.05 -4.45 0.1 -4.75 0.15 -4.9 0.15 -4.9 0.3 -5.3 0.25 -5.35 0.15 -5.45 0.15 -5.5 0.15 -5.55 0.2 -5.55 0.2 -5.5 0.25 -5.45 0.35 -5.45 0.35 -5.5 0.4 -5.55 0.45 -5.7 Q0.35 -5.75 0.35 -5.8 L0.45 -5.95 0.45 -6.05 0.5 -6.15 0.5 -6.35 0.2 -6.55 0.2 -6.45 0.2 -6.25 0.05 -6.4 M1.4 -8.7 L1.35 -8.75 1.15 -8.8 1.15 -8.8 1.0 -8.75 Q0.9 -8.7 0.9 -8.65 L0.95 -8.5 1.15 -8.5 1.25 -8.5 1.35 -8.45 Q1.45 -8.45 1.45 -8.35 1.45 -8.2 1.35 -8.2 L1.3 -8.25 1.3 -8.25 1.35 -8.3 1.35 -8.35 1.3 -8.4 Q1.2 -8.4 1.15 -8.35 1.05 -8.25 1.05 -8.15 1.05 -7.95 1.25 -7.95 L1.5 -8.05 Q1.55 -8.15 1.55 -8.35 1.55 -8.5 1.45 -8.65 L1.4 -8.7 M0.9 -8.45 L0.85 -8.55 0.8 -8.6 0.65 -8.5 0.6 -8.4 0.7 -8.15 0.85 -8.3 0.9 -8.45 M0.65 -7.95 L0.7 -8.05 0.65 -8.15 0.6 -8.2 Q0.45 -8.2 0.45 -7.95 L0.45 -7.9 0.55 -7.8 0.65 -7.7 0.65 -7.95 M0.65 -7.45 L0.65 -7.55 0.6 -7.6 0.55 -7.65 Q0.5 -7.7 0.45 -7.75 L0.4 -7.7 0.4 -7.6 0.35 -7.5 Q0.3 -7.5 0.3 -7.45 L0.3 -7.3 Q0.3 -7.25 0.35 -7.25 L0.35 -7.25 0.4 -7.25 0.6 -7.2 0.6 -7.2 0.65 -7.45 0.65 -7.45 M0.6 -6.85 L0.6 -7.1 0.3 -7.1 0.25 -7.1 Q0.2 -7.05 0.2 -6.75 0.2 -6.65 0.3 -6.6 0.35 -6.5 0.5 -6.5 0.55 -6.5 0.6 -6.75 L0.6 -6.85 M-0.05 -5.7 L0.0 -5.5 0.0 -5.45 -0.1 -5.25 -0.1 -5.2 -0.15 -5.25 -0.2 -5.35 -0.2 -5.4 -0.15 -5.45 -0.15 -5.5 -0.05 -5.7 M0.2 -6.15 L0.35 -6.1 0.35 -6.05 0.25 -6.05 0.25 -6.05 0.2 -6.05 0.2 -6.15 M-0.5 -4.4 L-0.55 -4.15 -0.55 -4.05 -0.45 -3.95 -0.3 -3.85 -0.25 -3.75 -0.25 -3.7 -0.5 -3.9 -0.6 -3.95 -0.6 -3.95 -0.6 -4.0 -0.7 -4.1 -0.6 -4.4 -0.5 -4.4 M-0.35 -3.0 L-0.25 -2.95 -0.55 -1.65 -0.6 -1.65 -0.65 -1.6 -0.65 -1.65 Q-0.65 -1.7 -0.7 -1.75 L-0.8 -1.75 -0.95 -1.75 -1.05 -1.75 -0.95 -1.8 -0.85 -1.85 -0.75 -1.85 -0.7 -1.85 Q-0.65 -1.85 -0.6 -1.9 L-0.55 -1.95 Q-0.55 -2.05 -0.7 -2.2 L-0.75 -2.25 -0.85 -2.35 Q-0.8 -2.4 -0.8 -2.45 -0.8 -2.4 -0.75 -2.3 L-0.75 -2.3 -0.65 -2.2 -0.55 -2.2 -0.55 -2.2 -0.45 -2.45 -0.45 -2.5 -0.35 -3.0 M-0.55 -3.2 L-0.55 -3.1 Q-0.55 -3.05 -0.6 -3.05 -0.7 -3.05 -0.7 -2.95 -0.5 -2.95 -0.5 -2.85 -0.5 -2.7 -0.65 -2.65 L-0.7 -2.65 Q-0.8 -2.65 -0.8 -2.5 -0.8 -2.6 -0.9 -2.7 L-0.8 -2.75 -0.6 -2.85 -0.7 -2.9 -0.8 -2.9 -0.8 -3.0 -0.7 -3.05 Q-0.7 -3.1 -0.7 -3.15 L-0.75 -3.2 -0.7 -3.2 -0.65 -3.2 -0.65 -3.15 -0.6 -3.15 -0.55 -3.2 M-0.95 -3.3 L-0.95 -3.25 -0.9 -3.2 -1.0 -3.0 -1.0 -2.95 -1.05 -3.0 -0.95 -3.3 M-1.2 -2.4 L-1.15 -2.35 -1.2 -2.15 -1.15 -2.05 -1.1 -2.05 -1.1 -2.05 Q-1.15 -2.0 -1.15 -2.0 L-1.2 -2.05 -1.35 -1.5 -1.4 -1.55 -1.2 -2.4 M-0.7 -1.45 L-0.6 -1.3 -0.7 -0.95 -0.7 -1.0 -0.75 -1.05 -0.75 -1.25 -0.75 -1.35 -0.85 -1.35 -1.0 -1.15 -1.1 -0.95 -0.9 -0.7 -0.85 -0.85 -0.85 -0.75 -0.8 -0.5 -0.8 -0.4 -0.95 0.6 -1.2 3.2 Q-1.1 3.5 -1.1 3.65 L-1.1 4.0 -1.15 3.85 Q-1.15 3.75 -1.25 3.75 L-1.25 3.75 -1.35 3.7 -1.35 3.55 Q-1.4 3.55 -1.45 3.6 L-1.5 3.45 -1.5 3.25 Q-1.5 3.2 -1.55 3.15 L-1.6 3.15 -1.65 3.1 -1.6 3.05 -1.55 3.0 Q-1.55 2.9 -1.7 2.9 L-1.75 2.85 Q-1.75 2.75 -1.8 2.75 -1.85 2.75 -1.85 2.8 -1.9 2.85 -1.95 2.8 -1.95 2.7 -1.95 2.7 L-2.05 2.65 -2.1 2.65 -2.1 2.8 -2.15 2.65 -2.15 2.6 -2.2 2.3 Q-2.2 2.2 -2.05 2.15 L-2.05 2.15 -2.05 2.15 -2.0 2.15 -1.95 2.1 -1.85 1.95 -1.75 1.8 Q-1.85 1.6 -1.85 1.5 -1.85 1.35 -1.7 1.4 L-1.7 1.3 -1.75 1.2 -1.7 1.1 -1.65 1.0 -1.7 0.85 -1.65 0.75 -1.6 0.6 -1.6 0.55 -1.55 0.4 -1.65 0.15 -1.75 0.6 Q-1.9 1.2 -2.05 2.05 L-1.85 0.6 -1.7 -0.4 -1.65 -0.5 -1.5 -0.6 -1.5 -0.5 Q-1.5 -0.45 -1.4 -0.45 L-1.4 -0.4 -1.35 -0.35 -1.4 -0.3 -1.45 -0.25 Q-1.5 -0.25 -1.5 -0.3 L-1.5 -0.3 -1.65 0.05 -1.6 0.1 -1.5 0.15 Q-1.55 0.25 -1.45 0.3 L-1.4 0.3 -1.35 0.3 -1.35 0.2 -1.3 0.1 -1.25 0.0 -1.25 0.0 -1.3 -0.1 -1.3 -0.15 -1.25 -0.2 -1.2 -0.25 -1.2 -0.4 -1.25 -0.5 -1.2 -0.7 -1.2 -0.8 -1.15 -0.95 -1.2 -1.05 -1.3 -1.0 -1.35 -1.0 -1.35 -1.1 -1.3 -1.1 -1.2 -1.05 Q-1.0 -1.05 -1.0 -1.25 L-1.05 -1.4 -1.1 -1.55 -0.95 -1.55 -0.85 -1.5 -0.9 -1.5 -0.95 -1.5 -1.0 -1.45 -1.0 -1.4 -0.9 -1.35 -0.75 -1.4 -0.7 -1.45 M-1.3 -1.35 L-1.25 -1.4 -1.2 -1.3 -1.25 -1.3 -1.3 -1.3 -1.3 -1.35 M-1.1 -0.85 L-1.2 -0.5 -1.15 -0.4 -1.1 -0.3 -1.15 -0.25 -1.2 -0.15 -1.1 0.0 -1.15 0.05 -1.25 0.15 -1.15 0.4 -1.1 0.6 -1.1 0.65 -1.05 0.6 -1.0 -0.15 -0.9 -0.6 -0.9 -0.6 -1.1 -0.85 -1.1 -0.85 M-1.65 0.75 L-1.65 0.75 M-1.25 0.5 L-1.25 0.3 -1.3 0.3 Q-1.45 0.3 -1.5 0.6 L-1.6 0.95 Q-1.5 0.95 -1.5 1.0 L-1.45 1.05 -1.5 1.1 -1.55 1.05 -1.6 1.05 -1.6 1.15 -1.65 1.3 -1.65 1.35 -1.6 1.4 -1.6 1.45 -1.65 1.45 -1.7 1.45 Q-1.75 1.45 -1.75 1.6 L-1.75 1.75 -1.65 1.75 -1.6 1.8 -1.6 1.8 Q-1.7 1.85 -1.8 1.95 L-1.85 2.1 -1.85 2.15 -1.7 2.25 Q-1.7 1.95 -1.35 1.95 -1.25 1.95 -1.2 2.0 L-1.25 1.85 -1.25 1.85 -1.3 1.7 -1.4 1.65 -1.5 1.55 -1.5 1.55 -1.25 1.6 -1.25 1.55 Q-1.25 1.5 -1.3 1.45 -1.35 1.45 -1.4 1.4 L-1.4 1.4 -1.35 1.4 -1.3 1.4 -1.3 1.4 -1.2 1.45 -1.2 1.45 -1.15 1.25 -1.1 0.95 -1.1 0.9 -1.1 0.8 -1.2 0.6 -1.25 0.5 M-1.25 1.65 L-1.2 1.9 -1.15 1.9 -1.15 1.5 -1.25 1.65 M-1.45 2.35 L-1.45 2.3 -1.35 2.3 -1.4 2.35 -1.3 2.45 -1.25 2.35 -1.2 2.25 Q-1.2 2.05 -1.4 2.05 -1.5 2.05 -1.55 2.15 L-1.6 2.3 -1.6 2.45 -1.6 2.45 -1.4 2.75 -1.35 2.95 -1.3 2.75 -1.35 2.55 -1.45 2.4 -1.45 2.35 M-2.15 3.25 L-2.1 3.2 -2.1 3.2 -2.05 3.25 -2.0 3.25 -1.95 3.3 Q-1.9 3.35 -1.9 3.45 L-1.95 3.4 Q-2.0 3.4 -2.0 3.45 L-1.9 3.5 -1.85 3.55 -1.8 3.55 Q-1.7 3.6 -1.7 3.75 -1.7 3.8 -1.8 3.8 -1.85 3.8 -1.85 3.85 -1.6 3.85 -1.6 4.15 L-1.6 4.35 Q-1.65 4.3 -1.7 4.3 L-1.75 4.3 Q-1.9 4.3 -1.9 4.5 -1.9 4.65 -1.8 4.75 -1.75 4.9 -1.6 4.9 L-1.5 4.85 -1.45 4.8 -1.45 4.7 -1.5 4.65 -1.55 4.6 -1.6 4.7 -1.65 4.75 Q-1.7 4.75 -1.7 4.6 -1.7 4.5 -1.65 4.5 L-1.55 4.55 Q-1.55 4.6 -1.5 4.6 -1.35 4.6 -1.35 4.4 -1.35 4.15 -1.5 4.2 L-1.5 4.15 -1.45 4.1 -1.45 4.0 Q-1.45 3.9 -1.5 3.85 L-1.5 3.85 Q-1.45 3.85 -1.4 4.0 L-1.3 4.15 -1.3 4.1 -1.25 4.1 Q-1.3 4.2 -1.15 4.2 L-1.15 4.2 -1.15 4.4 Q-1.25 5.0 -1.25 5.5 L-1.25 6.05 -1.3 6.0 -1.45 5.95 -1.4 5.85 Q-1.4 5.75 -1.5 5.7 L-1.65 5.6 -1.6 5.55 Q-1.55 5.55 -1.45 5.65 -1.5 5.45 -1.7 5.4 L-1.6 5.4 -1.5 5.45 -1.5 5.45 -1.45 4.95 -1.45 4.9 -1.55 4.95 -1.65 5.0 Q-1.85 5.0 -1.9 4.9 L-2.0 4.95 -2.0 5.05 -1.95 5.2 -1.9 5.3 -1.9 5.35 Q-1.9 5.4 -1.85 5.45 -1.95 5.55 -2.0 5.55 L-2.0 5.65 -1.9 5.6 -1.8 5.6 -1.8 5.6 Q-2.05 5.65 -2.05 6.0 L-2.0 6.05 -2.05 6.05 -2.05 6.05 -2.15 6.05 -2.1 5.85 -2.05 5.7 -2.1 5.65 -2.1 5.55 -2.05 5.45 -2.05 5.45 -1.95 5.4 -2.05 5.15 -2.1 5.0 -2.05 4.9 -2.0 4.85 Q-1.95 4.8 -1.95 4.75 L-2.0 4.55 -2.0 4.4 -2.0 4.35 -2.05 4.4 -2.05 4.4 -2.1 4.4 -2.1 4.25 Q-2.15 4.15 -2.25 4.1 L-2.25 4.1 Q-2.35 4.05 -2.35 3.9 L-2.3 3.6 -2.2 3.3 -2.2 3.25 -2.15 3.25 M-2.05 4.1 L-2.1 4.15 -2.0 4.3 -1.85 4.05 -1.95 4.05 -2.05 4.1 -2.05 4.1 M-1.4 6.25 L-1.25 6.25 -1.2 6.25 -1.2 6.3 Q-1.1 6.4 -1.1 6.55 L-1.15 6.75 -2.05 6.55 -2.05 6.55 Q-2.15 6.55 -2.15 6.65 L-2.15 6.65 -2.3 6.6 Q-2.35 6.6 -2.4 6.65 L-2.5 6.8 -2.55 6.65 Q-2.55 6.5 -2.45 6.4 L-2.4 6.35 -2.3 6.3 Q-2.2 6.25 -2.05 6.2 L-1.8 6.15 -1.4 6.25 M-1.7 5.4 L-1.7 5.4 -1.7 5.4 M-1.95 6.85 L-1.85 6.85 -1.65 6.9 -1.6 6.9 -1.5 6.9 -1.35 7.0 -1.2 7.05 -1.2 7.05 -1.25 7.15 -1.2 7.25 -1.15 7.3 -1.5 7.15 -1.65 7.15 -2.0 7.05 -2.25 7.1 -2.4 7.05 -2.4 7.05 -2.4 7.0 -2.4 6.95 -2.25 6.9 -2.05 6.85 -1.95 6.85 M-2.55 7.4 L-2.45 7.4 -2.4 7.4 -2.35 7.35 Q-2.35 7.3 -2.25 7.3 L-2.0 7.3 -1.75 7.3 -1.45 7.4 -1.45 7.4 -2.05 7.45 -2.1 7.45 -2.4 7.5 -2.5 7.55 -2.55 7.4 M-2.5 7.7 L-2.4 7.7 -2.3 7.7 -2.05 7.65 -2.0 7.65 -1.95 7.65 -1.9 7.65 -1.7 7.65 -1.5 7.7 -1.2 7.7 -1.15 7.95 -1.15 7.95 -1.2 7.9 -1.3 7.85 Q-1.35 7.85 -1.45 8.1 -1.5 8.35 -1.7 8.35 L-1.75 8.3 -1.75 8.3 -1.6 8.15 -1.5 8.0 Q-1.5 7.85 -1.65 7.85 L-2.0 7.8 -2.05 7.8 -2.1 7.8 Q-2.15 7.75 -2.15 7.75 -2.3 7.75 -2.35 7.8 -2.4 7.9 -2.35 7.95 L-2.4 7.95 -2.45 7.9 -2.45 7.9 Q-2.5 7.9 -2.5 8.0 -2.5 8.15 -2.4 8.2 L-2.4 8.25 -2.15 8.4 -2.15 8.4 -2.2 8.4 Q-2.3 8.3 -2.4 8.3 L-2.5 8.25 -2.5 8.25 -2.5 8.25 -2.55 8.05 -2.55 7.9 -2.5 7.7" fill="#adaa9a" fill-rule="evenodd" stroke="none"/>
    <path d="M0.2 -6.45 L0.2 -6.55 0.5 -6.35 0.5 -6.15 0.2 -6.45 M0.45 -5.95 L0.35 -5.8 Q0.35 -5.75 0.45 -5.7 L0.4 -5.55 0.3 -5.65 0.25 -5.8 Q0.25 -5.85 0.3 -5.9 L0.45 -5.95 M0.25 -5.35 L0.3 -5.3 0.15 -4.9 0.15 -4.9 Q0.05 -5.0 0.05 -5.05 0.05 -5.1 0.1 -5.2 L0.25 -5.35 M0.1 -4.75 L0.05 -4.45 -0.2 -4.65 -0.25 -4.7 -0.25 -4.7 -0.3 -4.8 Q-0.2 -4.8 -0.2 -4.85 L-0.2 -4.9 -0.2 -5.0 -0.05 -4.9 0.1 -4.75 M-0.25 -4.6 L0.0 -4.3 -0.15 -4.3 -0.15 -4.25 -0.35 -4.4 -0.25 -4.6 M-0.15 -4.15 L-0.15 -4.1 -0.2 -4.05 -0.2 -4.0 -0.15 -3.95 -0.2 -3.85 -0.25 -3.85 -0.3 -3.85 -0.45 -3.95 -0.55 -4.05 -0.45 -4.15 -0.35 -4.15 -0.15 -4.15 M1.4 -8.7 L1.45 -8.65 Q1.55 -8.5 1.55 -8.35 1.55 -8.15 1.5 -8.05 L1.25 -7.95 Q1.05 -7.95 1.05 -8.15 1.05 -8.25 1.15 -8.35 1.2 -8.4 1.3 -8.4 L1.35 -8.35 1.35 -8.3 1.3 -8.25 1.3 -8.25 1.35 -8.2 Q1.45 -8.2 1.45 -8.35 1.45 -8.45 1.35 -8.45 L1.25 -8.5 1.4 -8.7 M0.9 -8.45 L0.85 -8.3 0.7 -8.15 0.6 -8.4 0.65 -8.5 0.8 -8.6 0.85 -8.55 0.9 -8.45 M0.45 -7.9 L0.6 -8.0 Q0.6 -7.95 0.65 -7.95 L0.65 -7.7 0.55 -7.8 0.45 -7.9 M0.4 -7.7 L0.45 -7.75 Q0.5 -7.7 0.55 -7.65 L0.6 -7.6 0.65 -7.55 0.65 -7.45 0.6 -7.2 0.6 -7.2 0.4 -7.25 0.35 -7.25 0.35 -7.25 0.4 -7.4 0.4 -7.4 0.5 -7.35 Q0.6 -7.35 0.65 -7.45 L0.4 -7.7 M0.3 -7.1 L0.6 -7.1 0.6 -6.85 Q0.5 -6.85 0.4 -6.95 L0.3 -7.1 M0.6 -6.75 Q0.55 -6.5 0.5 -6.5 0.35 -6.5 0.3 -6.6 0.35 -6.6 0.35 -6.75 L0.5 -6.7 0.6 -6.75 M0.2 -6.25 L0.2 -6.15 0.2 -6.25 M-0.5 -3.9 L-0.25 -3.7 Q-0.2 -3.65 -0.2 -3.55 L-0.25 -3.5 -0.25 -3.45 Q-0.45 -3.5 -0.45 -3.65 L-0.5 -3.9 M-0.25 -3.35 L-0.3 -3.3 -0.35 -3.05 -0.35 -3.0 -0.45 -2.5 Q-0.6 -2.5 -0.65 -2.65 -0.5 -2.7 -0.5 -2.85 -0.5 -2.95 -0.7 -2.95 -0.7 -3.05 -0.6 -3.05 -0.55 -3.05 -0.55 -3.1 L-0.55 -3.2 -0.6 -3.25 -0.65 -3.3 -0.6 -3.3 -0.55 -3.3 -0.55 -3.3 Q-0.6 -3.4 -0.5 -3.4 L-0.35 -3.35 -0.25 -3.35 M-0.9 -3.2 L-0.8 -3.25 -0.75 -3.2 -0.7 -3.15 Q-0.7 -3.1 -0.7 -3.05 L-0.8 -3.0 -0.8 -2.9 -0.7 -2.9 -0.6 -2.85 -0.8 -2.75 -0.9 -2.7 -1.0 -2.7 -1.05 -2.7 -1.0 -2.95 -1.0 -3.0 -0.9 -3.2 M-0.75 -2.3 L-0.7 -2.35 -0.65 -2.45 -0.45 -2.45 -0.55 -2.2 -0.55 -2.2 -0.65 -2.2 -0.75 -2.3 -0.75 -2.3 M-0.85 -1.85 L-1.0 -2.0 -1.1 -2.1 Q-1.1 -2.2 -1.05 -2.2 L-1.0 -2.15 Q-1.0 -2.15 -0.95 -2.15 L-0.95 -2.25 -0.85 -2.25 -0.8 -2.2 -0.75 -2.2 -0.7 -2.2 Q-0.55 -2.05 -0.55 -1.95 L-0.6 -1.9 Q-0.65 -1.85 -0.7 -1.85 L-0.75 -1.85 -0.85 -1.85 M-0.65 -1.6 L-0.7 -1.45 -0.75 -1.4 -0.9 -1.35 -1.0 -1.4 -1.0 -1.45 -0.95 -1.5 -0.9 -1.5 -0.85 -1.5 -0.95 -1.55 -1.1 -1.55 -1.05 -1.4 -1.0 -1.25 Q-1.0 -1.05 -1.2 -1.05 L-1.3 -1.1 -1.35 -1.1 -1.35 -1.2 -1.3 -1.3 -1.3 -1.3 -1.25 -1.3 -1.2 -1.3 -1.25 -1.4 -1.3 -1.35 -1.2 -1.6 -1.15 -1.9 -1.1 -1.9 Q-1.05 -1.85 -0.95 -1.85 L-0.95 -1.8 -1.05 -1.75 -0.95 -1.75 -0.8 -1.75 -0.7 -1.75 Q-0.65 -1.7 -0.65 -1.65 L-0.65 -1.6 M-0.85 -0.85 L-0.9 -0.7 -1.1 -0.95 -1.0 -1.15 -0.85 -1.35 -0.75 -1.35 -0.75 -1.25 -0.75 -1.05 -0.8 -0.95 -0.85 -0.85 M-1.35 -1.0 L-1.3 -1.0 -1.2 -1.05 -1.15 -0.95 -1.2 -0.8 -1.3 -0.85 -1.35 -0.95 -1.35 -1.0 M-1.2 -0.7 L-1.25 -0.5 -1.2 -0.4 -1.2 -0.25 -1.25 -0.2 -1.3 -0.15 -1.45 -0.25 -1.4 -0.3 -1.35 -0.35 -1.4 -0.4 Q-1.35 -0.45 -1.35 -0.55 L-1.35 -0.65 -1.2 -0.7 M-1.25 0.0 L-1.25 0.0 -1.3 0.1 -1.35 0.2 -1.35 0.3 -1.4 0.3 -1.45 0.3 -1.4 0.15 -1.45 0.05 -1.4 0.0 -1.25 0.0 M-1.1 -0.85 L-1.1 -0.85 -0.9 -0.6 -0.9 -0.6 -1.0 -0.15 -1.05 0.6 -1.1 0.65 -1.1 0.6 -1.15 0.4 -1.25 0.15 -1.15 0.05 -1.1 0.0 -1.2 -0.15 -1.15 -0.25 -1.1 -0.3 -1.15 -0.4 -1.2 -0.5 -1.1 -0.85 M-1.6 0.55 L-1.6 0.6 -1.65 0.75 -1.7 0.85 -1.65 1.0 -1.7 1.1 -1.75 1.2 -1.7 1.3 -1.7 1.4 Q-1.85 1.35 -1.85 1.5 -1.85 1.6 -1.75 1.8 L-1.85 1.95 -1.95 2.1 -2.0 2.15 -2.0 2.1 Q-2.0 1.9 -1.95 1.85 -1.85 1.85 -1.85 1.75 L-1.9 1.55 -1.85 1.3 -1.8 1.15 -1.75 0.85 -1.65 0.75 -1.7 0.65 -1.65 0.6 -1.65 0.6 -1.6 0.55 M-1.6 3.15 L-1.55 3.15 Q-1.5 3.2 -1.5 3.25 L-1.5 3.45 -1.45 3.6 Q-1.4 3.55 -1.35 3.55 L-1.35 3.7 -1.25 3.75 -1.25 3.75 Q-1.15 3.75 -1.15 3.85 L-1.1 4.0 -1.15 4.2 -1.15 4.2 Q-1.3 4.2 -1.25 4.1 L-1.3 4.1 -1.3 4.15 -1.4 4.0 Q-1.45 3.85 -1.5 3.85 L-1.5 3.85 Q-1.45 3.9 -1.45 4.0 L-1.45 4.1 -1.5 4.15 -1.5 4.2 Q-1.35 4.15 -1.35 4.4 -1.35 4.6 -1.5 4.6 -1.55 4.6 -1.55 4.55 L-1.65 4.5 Q-1.7 4.5 -1.7 4.6 -1.7 4.75 -1.65 4.75 L-1.6 4.7 -1.55 4.6 -1.5 4.65 -1.45 4.7 -1.45 4.8 -1.5 4.8 -1.6 4.75 -1.65 4.8 -1.75 4.75 -1.8 4.65 -1.75 4.6 -1.75 4.55 Q-1.75 4.5 -1.8 4.5 L-1.8 4.4 -1.75 4.3 -1.7 4.3 Q-1.65 4.3 -1.6 4.35 L-1.6 4.15 Q-1.6 3.85 -1.85 3.85 -1.85 3.8 -1.8 3.8 -1.7 3.8 -1.7 3.75 -1.7 3.6 -1.8 3.55 L-1.8 3.5 -1.8 3.35 -1.75 3.25 -1.6 3.15 M-1.1 0.9 L-1.25 0.8 -1.35 0.7 -1.3 0.6 -1.3 0.55 -1.25 0.5 -1.2 0.6 -1.1 0.8 -1.1 0.9 M-1.5 1.0 L-1.45 0.9 -1.4 0.85 -1.1 0.95 -1.15 1.25 -1.4 1.2 -1.6 1.05 -1.55 1.05 -1.5 1.1 -1.45 1.05 -1.5 1.0 M-1.4 1.4 L-1.4 1.4 Q-1.35 1.45 -1.3 1.45 -1.25 1.5 -1.25 1.55 L-1.25 1.6 -1.5 1.55 -1.5 1.55 -1.4 1.65 -1.3 1.7 -1.25 1.85 -1.25 1.85 -1.3 1.85 -1.55 1.75 -1.6 1.8 -1.65 1.75 -1.75 1.75 -1.75 1.6 Q-1.75 1.45 -1.7 1.45 L-1.65 1.45 -1.6 1.45 -1.6 1.4 -1.65 1.35 -1.55 1.4 -1.4 1.4 M-1.25 1.65 L-1.15 1.5 -1.15 1.9 -1.2 1.9 -1.25 1.65 M-1.6 2.45 Q-1.55 2.4 -1.55 2.35 L-1.45 2.35 -1.45 2.4 -1.35 2.55 -1.3 2.75 -1.35 2.95 -1.4 2.75 -1.6 2.45 -1.6 2.45 M-2.25 4.1 Q-2.15 4.15 -2.1 4.25 L-2.1 4.4 -2.05 4.4 -2.05 4.4 -2.0 4.35 -2.0 4.4 -2.0 4.55 -1.95 4.75 Q-1.95 4.8 -2.0 4.85 L-2.05 4.9 -2.1 5.0 -2.05 5.15 -1.95 5.4 -2.05 5.45 -2.05 5.45 -2.1 5.55 -2.1 5.65 -2.05 5.7 -2.1 5.85 -2.15 6.05 -2.05 6.05 -2.05 6.05 -2.0 6.05 -2.05 6.0 Q-2.05 5.65 -1.8 5.6 L-1.8 5.6 -1.9 5.6 -2.0 5.65 -2.0 5.55 Q-1.95 5.55 -1.85 5.45 -1.9 5.4 -1.9 5.35 L-1.9 5.3 -1.95 5.2 -2.0 5.05 -2.0 4.95 -1.9 4.9 Q-1.85 5.0 -1.65 5.0 L-1.55 4.95 -1.45 4.9 -1.45 4.95 -1.5 5.45 -1.5 5.45 -1.6 5.4 -1.7 5.4 Q-1.5 5.45 -1.45 5.65 -1.55 5.55 -1.6 5.55 L-1.65 5.6 -1.5 5.7 Q-1.4 5.75 -1.4 5.85 L-1.45 5.95 -1.3 6.0 -1.25 6.05 -1.15 6.15 -1.2 6.25 -1.25 6.25 -1.4 6.25 Q-1.3 6.15 -1.3 6.1 -1.3 6.1 -1.4 6.1 L-1.45 6.1 -1.5 6.15 -1.45 6.05 Q-1.5 5.95 -1.5 5.95 L-1.6 6.0 -1.65 6.1 Q-1.65 6.0 -1.7 6.0 L-1.75 6.05 -1.8 6.1 Q-1.8 6.0 -1.85 6.0 L-1.95 6.05 -2.0 6.15 -2.0 6.1 -2.05 6.05 -2.05 6.05 -2.1 6.15 -2.15 6.15 -2.2 6.15 Q-2.25 6.15 -2.25 6.15 L-2.25 6.2 -2.35 6.2 -2.4 6.2 -2.4 6.3 -2.45 6.25 -2.5 6.25 -2.5 6.25 Q-2.5 6.2 -2.4 6.15 L-2.3 6.1 -2.3 6.1 -2.25 6.1 -2.15 5.75 Q-2.15 5.7 -2.3 5.5 L-2.3 5.15 -2.25 4.55 -2.25 4.1 M-1.9 3.5 L-2.0 3.45 Q-2.0 3.4 -1.95 3.4 L-1.9 3.45 Q-1.9 3.35 -1.95 3.3 L-2.0 3.25 -2.0 3.2 -1.95 3.15 Q-1.95 3.15 -1.9 3.2 L-1.85 3.1 -1.85 3.25 -1.9 3.5 M-2.05 4.1 L-2.05 4.1 -1.95 4.05 -1.85 4.05 -2.0 4.3 -2.1 4.15 -2.05 4.1 M-1.7 5.4 L-1.7 5.4 -1.7 5.4 M-1.15 6.85 L-1.4 6.75 -1.55 6.85 -1.6 6.9 -1.65 6.9 -1.85 6.85 -1.95 6.85 Q-2.0 6.8 -2.05 6.75 L-2.25 6.75 -2.4 6.8 -2.45 6.8 -2.45 6.8 -2.5 6.8 -2.4 6.65 Q-2.35 6.6 -2.3 6.6 L-2.15 6.65 -2.15 6.65 Q-2.15 6.55 -2.05 6.55 L-2.05 6.55 -1.15 6.75 -1.15 6.85 M-2.4 7.05 L-2.4 7.05 -2.25 7.1 -2.0 7.05 -1.65 7.15 -1.5 7.15 -1.15 7.3 -1.1 7.35 -1.2 7.7 -1.2 7.7 -1.5 7.7 -1.7 7.65 Q-1.65 7.65 -1.55 7.55 L-1.75 7.5 -1.9 7.55 -2.0 7.65 -2.05 7.65 -2.3 7.7 -2.4 7.7 -2.5 7.7 -2.45 7.65 -2.5 7.55 -2.4 7.5 -2.1 7.45 -2.05 7.45 -1.45 7.4 -1.45 7.4 -1.75 7.3 -2.0 7.3 -2.25 7.3 Q-2.35 7.3 -2.35 7.35 L-2.4 7.4 -2.45 7.4 -2.55 7.4 -2.55 7.35 -2.45 7.15 -2.4 7.05 M-1.95 7.1 L-2.05 7.1 -2.1 7.15 -2.15 7.2 -1.9 7.3 Q-1.75 7.3 -1.7 7.2 L-1.95 7.1 M-2.4 8.0 L-2.4 8.05 -2.2 8.25 Q-2.1 8.25 -2.1 7.9 L-2.2 7.85 Q-2.3 7.85 -2.3 8.0 L-2.4 8.0 M-2.5 8.25 L-2.5 8.25 -2.4 8.3 Q-2.3 8.3 -2.2 8.4 L-2.15 8.4 -2.15 8.4 -2.4 8.25 -2.4 8.2 Q-2.5 8.15 -2.5 8.0 -2.5 7.9 -2.45 7.9 L-2.45 7.9 -2.4 7.95 -2.35 7.95 Q-2.4 7.9 -2.35 7.8 -2.3 7.75 -2.15 7.75 -2.15 7.75 -2.1 7.8 L-2.05 7.8 -2.0 7.8 -1.65 7.85 Q-1.5 7.85 -1.5 8.0 L-1.6 8.15 -1.75 8.3 -1.75 8.3 -1.7 8.35 Q-1.5 8.35 -1.45 8.1 -1.35 7.85 -1.3 7.85 L-1.2 7.9 -1.15 7.95 -1.15 8.05 Q-1.2 8.25 -1.35 8.4 -1.55 8.6 -1.75 8.6 L-2.0 8.55 -2.05 8.55 -2.15 8.55 -2.25 8.5 Q-2.35 8.5 -2.4 8.45 L-2.5 8.25 M-1.9 7.65 L-1.85 7.65 -1.7 7.65 -1.9 7.65 M-1.95 8.0 L-1.8 8.15 -1.7 8.1 -1.65 8.05 -1.65 7.95 Q-1.7 7.9 -1.8 7.9 L-1.95 8.0" fill="#8c8569" fill-rule="evenodd" stroke="none"/>
    <path d="M0.45 -5.5 L0.55 -6.2 0.65 -6.85 0.65 -6.9 0.75 -7.8 0.85 -8.15 Q0.95 -8.35 1.1 -8.4 0.95 -8.25 0.95 -8.05 1.0 -7.9 1.1 -7.85 L1.3 -7.8 Q1.5 -7.85 1.6 -8.05 1.65 -8.25 1.6 -8.45 1.55 -8.75 1.4 -8.85 1.25 -8.95 1.1 -8.9 0.95 -8.9 0.8 -8.75 0.6 -8.6 0.5 -8.5 0.25 -7.75 0.1 -6.85 L0.1 -6.75 0.05 -6.4 0.05 -6.2 -0.05 -5.7 -0.15 -5.5 -0.15 -5.45 -0.2 -5.4 -0.2 -5.35 -0.6 -4.4 -0.7 -4.1 -0.95 -3.3 -1.05 -3.0 -1.2 -2.4 -1.4 -1.55 -1.65 -0.5 -1.7 -0.4 -1.85 0.6 -2.05 2.05 -2.05 2.15 -2.05 2.15 Q-2.2 2.2 -2.2 2.3 L-2.15 2.6 -2.15 2.65 -2.1 2.8 -2.15 3.25 -2.2 3.25 -2.2 3.3 -2.3 3.6 -2.35 3.9 Q-2.35 4.05 -2.25 4.1 L-2.25 4.1 -2.25 4.55 -2.3 5.15 -2.3 5.5 -2.3 6.1 -2.3 6.1 -2.4 6.15 Q-2.5 6.2 -2.5 6.25 L-2.5 6.25 -2.5 6.3 -2.45 6.4 Q-2.55 6.5 -2.55 6.65 L-2.5 6.8 -2.45 6.8 -2.45 6.8 -2.4 6.9 -2.4 6.95 -2.4 7.0 -2.4 7.05 -2.45 7.15 -2.55 7.35 -2.55 7.4 -2.5 7.55 -2.45 7.65 -2.5 7.7 -2.55 7.9 -2.55 8.05 M0.05 -4.05 L0.45 -5.45 0.45 -5.5 M-0.25 -2.95 L0.05 -4.05 M-0.6 -1.3 L-0.55 -1.65 -0.25 -2.95 M-0.7 -0.95 L-0.6 -1.3 M-1.1 4.0 L-1.1 3.65 Q-1.1 3.5 -1.2 3.2 L-0.95 0.6 -0.8 -0.4 -0.8 -0.5 -0.7 -0.85 -0.7 -0.95 M-1.25 6.05 L-1.25 5.5 Q-1.25 5.0 -1.15 4.4 L-1.15 4.2 -1.1 4.0 M-1.2 6.25 L-1.15 6.15 -1.25 6.05 M-1.15 6.85 L-1.15 6.75 -1.1 6.55 Q-1.1 6.4 -1.2 6.3 L-1.2 6.25 M-1.2 7.05 L-1.2 6.95 -1.15 6.85 M-1.2 7.7 L-1.2 7.7 -1.1 7.35 -1.15 7.3 -1.2 7.25 -1.25 7.15 -1.2 7.05 -1.2 7.05 M-1.15 7.95 L-1.15 7.95 -1.2 7.7 M-1.15 8.05 L-1.15 7.95" fill="none" stroke="#000000" stroke-linecap="round" stroke-linejoin="round" stroke-opacity="0.4509804" stroke-width="0.1"/>
  </g>
</svg>
