<?xml version="1.0" encoding="UTF-8" standalone="no"?>
<svg xmlns:xlink="http://www.w3.org/1999/xlink" height="18.0px" width="4.9px" xmlns="http://www.w3.org/2000/svg">
  <g transform="matrix(1.0, 0.0, 0.0, 1.0, 4.4, 9.35)">
    <path d="M-0.35 -9.0 L-0.2 -8.2 -0.1 -8.3 0.05 -8.5 0.25 -6.15 0.2 -6.15 0.1 -6.1 0.05 -6.3 0.1 -6.55 Q0.1 -6.75 -0.05 -6.8 L-0.05 -6.9 Q-0.05 -7.0 -0.15 -7.2 L0.0 -7.45 0.0 -7.65 -0.1 -7.85 -0.2 -8.05 -0.2 -8.15 -0.7 -8.3 -0.8 -9.2 Q-0.8 -9.4 -0.35 -9.05 L-0.35 -9.0 M0.35 -4.7 L0.35 -4.65 Q0.3 -4.55 0.3 -4.5 L0.3 -4.3 0.25 -4.3 0.2 -4.4 0.15 -4.4 0.05 -4.35 0.05 -4.3 Q0.2 -4.25 0.15 -4.15 L0.15 -4.15 0.05 -4.2 Q-0.1 -4.2 -0.15 -4.1 L-0.15 -4.2 -0.15 -4.25 -0.1 -4.65 -0.1 -4.6 -0.05 -4.4 0.1 -4.5 0.2 -4.45 0.25 -4.45 Q0.25 -4.5 0.3 -4.6 L0.35 -4.7 M0.45 -3.9 L0.45 -3.85 0.15 -3.05 -0.3 -1.95 Q-0.55 -1.75 -0.75 -1.35 L-0.8 -1.4 -0.75 -1.6 -0.8 -1.65 -0.85 -1.7 Q-1.0 -1.7 -1.05 -1.55 L-1.1 -1.4 Q-1.1 -1.35 -1.0 -1.25 -1.2 -1.25 -1.2 -1.05 -1.2 -0.95 -1.15 -0.95 L-1.0 -1.05 -0.85 -1.15 -0.8 -1.15 -0.95 -0.95 Q-1.05 -0.8 -1.15 -0.8 L-1.2 -0.85 -1.3 -0.9 Q-1.5 -0.9 -1.5 -0.6 -1.5 -0.5 -1.25 -0.4 -1.5 -0.45 -1.5 -0.2 -1.5 -0.05 -1.4 0.0 L-1.25 0.05 -1.3 0.1 -1.3 0.2 -1.75 0.4 -1.7 0.5 -1.65 0.4 -1.55 0.4 -1.7 0.95 -1.75 1.0 -1.75 1.0 -1.95 1.2 Q-2.0 1.1 -2.05 1.1 -2.4 1.1 -2.55 1.25 -2.65 1.4 -2.75 1.75 L-2.75 1.95 -2.65 1.9 -2.5 1.85 -2.45 1.7 Q-2.35 1.55 -2.3 1.55 -2.1 1.55 -2.1 1.65 L-2.1 1.8 -2.15 1.8 -2.25 1.7 -2.35 1.75 -2.4 1.85 -2.35 1.9 -2.35 2.0 Q-2.4 1.95 -2.5 1.95 -2.6 1.95 -2.75 2.1 L-2.9 2.35 -2.8 2.6 -2.75 2.6 Q-2.7 2.4 -2.6 2.4 L-2.55 2.45 -2.55 2.5 -2.65 2.6 -2.7 2.75 -2.6 2.95 -2.4 3.1 Q-2.3 3.05 -2.3 2.95 L-2.35 2.85 -2.4 2.75 -2.35 2.65 -2.3 2.55 -2.15 2.55 Q-2.15 2.65 -2.05 2.7 -2.05 2.4 -1.95 2.2 L-1.8 2.05 -1.8 2.15 -1.8 2.65 -1.8 3.75 -1.8 4.3 -1.8 5.0 -2.1 4.75 Q-2.4 4.55 -2.4 4.35 L-2.45 4.3 -2.5 4.2 -2.45 4.1 -2.4 4.0 -2.45 3.95 -2.85 3.95 -2.85 4.3 -2.7 5.15 -2.6 5.15 -2.45 5.1 Q-2.35 5.1 -2.3 5.2 L-2.3 5.25 -2.55 5.15 Q-2.65 5.15 -2.65 5.35 L-2.6 5.55 Q-2.5 5.6 -2.5 5.7 L-2.4 5.65 -2.3 5.6 Q-2.15 5.6 -2.1 5.8 L-2.0 5.95 Q-1.9 5.95 -1.85 5.7 -1.85 5.45 -2.1 5.4 L-2.05 5.4 Q-1.95 5.4 -1.85 5.5 L-1.85 5.7 Q-1.85 5.9 -1.9 6.05 L-1.65 6.05 -1.65 6.25 -2.0 6.25 -2.0 6.2 -2.05 6.15 -2.1 6.0 Q-2.25 5.85 -2.35 5.85 L-2.4 5.85 -2.4 5.85 Q-2.45 5.85 -2.5 5.9 L-2.55 6.0 -2.55 5.8 -2.6 5.7 -2.7 5.6 -2.85 5.6 -2.85 5.55 -2.85 5.4 Q-2.7 5.35 -2.7 5.25 L-2.9 4.3 -2.9 4.2 -3.05 3.2 Q-3.15 2.4 -3.15 2.0 -3.15 1.75 -3.05 1.4 L-2.9 0.95 Q-2.75 0.65 -2.4 0.3 -2.1 0.05 -1.9 -0.05 L-1.85 -0.05 -1.85 0.0 -1.7 -0.45 -1.95 -0.45 -2.1 -0.45 -2.2 -0.45 -2.3 -0.45 -2.6 -0.4 -2.3 -1.2 -2.1 -1.5 -2.1 -1.45 -2.15 -1.4 Q-2.15 -1.2 -2.05 -1.2 -2.0 -1.2 -2.0 -1.25 L-1.95 -1.1 -1.85 -1.1 Q-1.8 -1.1 -1.8 -0.95 L-1.75 -0.95 -1.75 -0.85 -1.65 -0.85 -1.7 -0.8 -1.7 -0.65 -1.6 -0.65 -1.4 -1.1 -1.15 -1.55 -0.5 -2.35 Q-0.35 -2.65 -0.35 -3.15 L-0.3 -3.3 -0.3 -3.4 -0.15 -3.65 Q-0.1 -3.55 0.0 -3.55 0.05 -3.55 0.05 -3.6 L0.05 -3.75 0.15 -3.8 0.2 -3.75 0.25 -3.7 0.35 -3.7 Q0.35 -3.8 0.4 -3.9 L0.45 -3.9 M-1.4 5.35 Q-1.3 5.3 -1.3 5.2 L-1.35 4.95 -1.25 4.95 -1.2 4.95 -1.15 5.05 -1.1 5.1 Q-1.05 5.2 -1.0 5.35 L-1.0 5.45 Q-1.0 5.55 -1.15 5.55 L-1.3 5.5 -1.4 5.35 M-1.5 4.45 L-1.5 4.3 -1.45 4.25 -1.2 4.15 -1.25 4.2 -1.25 4.55 -1.25 4.65 -1.5 4.45 M-1.65 3.7 L-1.7 3.7 -1.65 3.9 -1.65 4.0 -1.7 3.65 -1.65 3.3 Q-1.65 3.15 -1.5 3.05 L-1.45 3.15 -1.4 3.2 -1.65 3.6 -1.65 3.7 M-0.8 -4.05 L-0.7 -4.3 Q-0.65 -4.4 -0.6 -4.6 -0.55 -4.6 -0.55 -4.6 L-0.5 -4.6 -0.45 -4.65 Q-0.4 -4.65 -0.4 -4.6 L-0.4 -4.45 -0.35 -4.45 -0.3 -4.5 -0.3 -4.45 -0.25 -4.25 -0.25 -4.2 -0.3 -4.2 -0.3 -3.9 -0.4 -4.0 -0.6 -4.05 -0.8 -4.05 M-0.55 -6.85 L-0.55 -7.0 -0.6 -7.45 -0.45 -7.5 -0.3 -7.6 -0.2 -7.3 -0.2 -7.3 -0.55 -6.85 M-0.1 -5.65 L-0.05 -5.65 0.05 -5.65 0.2 -5.8 0.25 -5.8 0.3 -5.7 0.05 -5.6 Q-0.05 -5.55 -0.05 -5.35 L-0.05 -5.3 Q0.0 -5.25 0.05 -5.25 L0.05 -5.25 0.1 -5.35 0.15 -5.45 Q0.2 -5.45 0.2 -5.3 0.1 -5.3 0.05 -5.25 L0.05 -5.25 Q-0.05 -5.2 -0.05 -5.1 -0.05 -4.9 0.05 -4.85 L0.1 -4.95 Q0.15 -5.0 0.2 -5.0 0.25 -5.0 0.25 -4.9 0.15 -4.95 0.05 -4.85 L-0.05 -4.7 -0.05 -4.75 -0.1 -5.25 -0.1 -5.65 M-1.9 0.9 L-1.9 0.85 -1.85 0.7 Q-1.85 0.65 -1.85 0.55 -1.95 0.55 -2.05 0.4 L-2.15 0.25 Q-2.3 0.25 -2.55 0.65 -2.85 1.05 -2.85 1.3 L-2.8 1.4 -2.75 1.4 Q-2.75 1.3 -2.5 1.1 -2.25 0.9 -2.15 0.9 L-1.9 0.9 M-3.1 2.3 L-3.0 3.15 -3.0 3.2 -2.85 3.85 -2.75 3.8 Q-2.7 3.8 -2.65 3.85 L-2.55 3.95 Q-2.2 3.95 -2.0 3.6 -1.85 3.3 -1.85 2.85 L-1.9 2.65 -2.0 2.75 -2.05 2.85 -2.15 2.75 -2.25 2.9 -2.2 3.0 -2.25 3.15 Q-2.3 3.2 -2.35 3.2 -2.6 3.2 -2.8 2.9 -2.95 2.6 -2.95 2.4 L-2.9 2.1 -2.9 1.9 -2.95 1.9 Q-3.05 1.9 -3.1 2.05 L-3.1 2.3 M-2.35 4.3 L-2.15 4.5 -1.85 4.75 -1.85 4.3 -1.85 3.35 Q-1.95 3.75 -2.35 4.25 L-2.35 4.3 M-2.4 4.95 L-2.2 4.9 -2.1 4.95 -2.1 5.1 -2.15 5.25 -2.3 5.05 -2.4 4.95 M-1.7 2.75 L-1.7 2.9 -1.7 2.75 M-1.0 5.45 L-1.0 5.45" fill="#2e4148" fill-rule="evenodd" stroke="none"/>
    <path d="M0.05 -8.55 L0.05 -8.5 -0.1 -8.3 -0.2 -8.2 -0.35 -9.0 0.05 -8.65 0.05 -8.55 M0.25 -6.15 L0.25 -5.9 0.25 -5.8 0.2 -5.8 0.05 -5.65 -0.05 -5.65 -0.1 -5.65 -0.05 -6.05 -0.05 -6.8 Q0.1 -6.75 0.1 -6.55 L0.05 -6.3 0.1 -6.1 0.2 -6.15 0.25 -6.15 M0.3 -5.7 L0.35 -4.7 0.3 -4.6 Q0.25 -4.5 0.25 -4.45 L0.2 -4.45 0.1 -4.5 -0.05 -4.4 -0.1 -4.6 -0.1 -4.65 -0.05 -4.7 0.05 -4.85 Q0.15 -4.95 0.25 -4.9 0.25 -5.0 0.2 -5.0 0.15 -5.0 0.1 -4.95 L0.05 -4.85 Q-0.05 -4.9 -0.05 -5.1 -0.05 -5.2 0.05 -5.25 L0.05 -5.25 Q0.1 -5.3 0.2 -5.3 0.2 -5.45 0.15 -5.45 L0.1 -5.35 0.05 -5.25 0.05 -5.25 Q0.0 -5.25 -0.05 -5.3 L-0.05 -5.35 Q-0.05 -5.55 0.05 -5.6 L0.3 -5.7 M0.35 -4.65 L0.35 -4.6 0.4 -4.5 0.45 -3.9 0.4 -3.9 Q0.35 -3.8 0.35 -3.7 L0.25 -3.7 0.2 -3.75 0.15 -3.8 0.05 -3.75 0.05 -3.6 Q0.05 -3.55 0.0 -3.55 -0.1 -3.55 -0.15 -3.65 L-0.3 -3.4 -0.3 -3.9 -0.3 -4.2 -0.25 -4.2 -0.15 -4.15 -0.15 -4.2 -0.15 -4.1 Q-0.1 -4.2 0.05 -4.2 L0.15 -4.15 0.15 -4.15 Q0.2 -4.25 0.05 -4.3 L0.05 -4.35 0.15 -4.4 0.2 -4.4 0.25 -4.3 0.3 -4.3 0.3 -4.5 Q0.3 -4.55 0.35 -4.65 M-0.3 -1.95 L-1.05 -0.4 -1.25 0.05 -1.4 0.0 Q-1.5 -0.05 -1.5 -0.2 -1.5 -0.45 -1.25 -0.4 -1.5 -0.5 -1.5 -0.6 -1.5 -0.9 -1.3 -0.9 L-1.2 -0.85 -1.15 -0.8 Q-1.05 -0.8 -0.95 -0.95 L-0.8 -1.15 -0.85 -1.15 -1.0 -1.05 -1.15 -0.95 Q-1.2 -0.95 -1.2 -1.05 -1.2 -1.25 -1.0 -1.25 -1.1 -1.35 -1.1 -1.4 L-1.05 -1.55 Q-1.0 -1.7 -0.85 -1.7 L-0.8 -1.65 -0.75 -1.6 -0.8 -1.4 -0.75 -1.35 Q-0.55 -1.75 -0.3 -1.95 M-1.45 6.95 L-1.45 7.1 -1.65 7.15 -1.8 7.15 -1.8 7.0 -1.45 6.95 M-1.35 7.6 L-1.3 7.8 -1.85 7.9 -1.85 7.7 -1.35 7.6 M-2.55 7.75 L-2.55 7.6 -2.55 7.55 -2.0 7.7 -2.05 7.75 -2.0 7.9 -2.55 7.75 M-2.55 7.35 L-2.5 7.2 -2.5 7.2 -2.35 7.2 -2.2 7.2 -2.15 7.15 -2.2 7.05 -2.05 7.0 -2.0 7.0 -2.05 7.15 -2.05 7.25 Q-2.15 7.3 -2.2 7.3 L-2.35 7.3 -2.55 7.35 M-0.25 -7.8 L-0.25 -7.9 -0.2 -8.05 -0.1 -7.85 0.0 -7.65 0.0 -7.45 -0.15 -7.2 -0.2 -7.3 -0.2 -7.3 -0.3 -7.6 -0.3 -7.6 -0.25 -7.8 M-0.35 -3.15 Q-0.35 -2.65 -0.5 -2.35 L-1.15 -1.55 Q-0.85 -2.25 -0.85 -2.35 L-0.85 -2.4 -0.85 -2.4 -0.95 -2.35 -0.95 -2.45 -0.85 -2.75 Q-0.7 -3.05 -0.55 -3.1 L-0.55 -3.0 Q-0.45 -3.05 -0.35 -3.15 M-1.65 6.05 L-1.9 6.05 Q-1.85 5.9 -1.85 5.7 L-1.85 5.5 Q-1.95 5.4 -2.05 5.4 L-2.1 5.4 Q-1.85 5.45 -1.85 5.7 -1.9 5.95 -2.0 5.95 L-2.1 5.8 Q-2.15 5.6 -2.3 5.6 L-2.4 5.65 -2.5 5.7 Q-2.5 5.6 -2.6 5.55 L-2.65 5.35 Q-2.65 5.15 -2.55 5.15 L-2.3 5.25 -2.3 5.2 Q-2.35 5.1 -2.45 5.1 L-2.6 5.15 -2.7 5.15 -2.85 4.3 -2.85 3.95 -2.45 3.95 -2.4 4.0 -2.45 4.1 -2.5 4.2 -2.45 4.3 -2.4 4.35 Q-2.4 4.55 -2.1 4.75 L-1.8 5.0 -1.75 5.05 -1.75 5.45 -1.7 5.55 -1.65 5.9 -1.65 6.05 M-1.8 2.05 L-1.95 2.2 Q-2.05 2.4 -2.05 2.7 -2.15 2.65 -2.15 2.55 L-2.3 2.55 -2.35 2.65 -2.4 2.75 -2.35 2.85 -2.3 2.95 Q-2.3 3.05 -2.4 3.1 L-2.6 2.95 -2.7 2.75 -2.65 2.6 -2.55 2.5 -2.55 2.45 -2.6 2.4 Q-2.7 2.4 -2.75 2.6 L-2.8 2.6 -2.9 2.35 -2.75 2.1 Q-2.6 1.95 -2.5 1.95 -2.4 1.95 -2.35 2.0 L-2.35 1.9 -2.4 1.85 -2.35 1.75 -2.25 1.7 -2.15 1.8 -2.1 1.8 -2.1 1.65 Q-2.1 1.55 -2.3 1.55 -2.35 1.55 -2.45 1.7 L-2.5 1.85 -2.65 1.9 -2.75 1.95 -2.75 1.75 Q-2.65 1.4 -2.55 1.25 -2.4 1.1 -2.05 1.1 -2.0 1.1 -1.95 1.2 L-1.75 1.0 -1.75 1.0 -1.75 1.4 -1.8 2.05 M-1.9 0.9 L-2.15 0.9 Q-2.25 0.9 -2.5 1.1 -2.75 1.3 -2.75 1.4 L-2.8 1.4 -2.85 1.3 Q-2.85 1.05 -2.55 0.65 -2.3 0.25 -2.15 0.25 L-2.05 0.4 Q-1.95 0.55 -1.85 0.55 -1.85 0.65 -1.85 0.7 L-1.9 0.85 -1.9 0.9 M-3.1 2.3 L-3.1 2.05 Q-3.05 1.9 -2.95 1.9 L-2.9 1.9 -2.9 2.1 -2.95 2.4 Q-2.95 2.6 -2.8 2.9 -2.6 3.2 -2.35 3.2 -2.3 3.2 -2.25 3.15 L-2.2 3.0 -2.25 2.9 -2.15 2.75 -2.05 2.85 -2.0 2.75 -1.9 2.65 -1.85 2.85 Q-1.85 3.3 -2.0 3.6 -2.2 3.95 -2.55 3.95 L-2.65 3.85 Q-2.7 3.8 -2.75 3.8 L-2.85 3.85 -3.0 3.2 -3.0 3.15 -3.1 2.3 M-2.35 4.3 L-2.35 4.25 Q-1.95 3.75 -1.85 3.35 L-1.85 4.3 -1.85 4.75 -2.15 4.5 -2.35 4.3 M-2.4 4.95 L-2.3 5.05 -2.15 5.25 -2.1 5.1 -2.1 4.95 -2.2 4.9 -2.4 4.95" fill="#223035" fill-rule="evenodd" stroke="none"/>
    <path d="M-1.3 0.2 L-1.45 0.75 -1.45 0.95 Q-1.6 1.45 -1.6 2.0 L-1.6 2.0 -1.55 2.15 Q-1.5 2.4 -1.35 2.65 L-1.45 2.75 Q-1.5 2.85 -1.5 2.95 L-1.5 3.05 Q-1.65 3.15 -1.65 3.3 L-1.7 3.65 -1.65 4.0 -1.65 4.3 -1.65 4.4 -1.6 4.95 -1.65 4.95 -1.75 5.0 -1.75 5.05 -1.8 5.0 -1.8 4.3 -1.8 3.75 -1.8 2.65 -1.8 2.15 -1.8 2.05 -1.75 1.4 -1.75 1.0 -1.7 0.95 -1.55 0.4 -1.65 0.4 -1.7 0.5 -1.75 0.4 -1.3 0.2 M-0.95 3.55 L-1.15 4.45 -1.1 4.6 -0.9 5.0 -0.95 5.05 -1.05 5.0 -1.1 5.1 -1.15 5.05 -1.2 4.95 -1.25 4.65 -1.25 4.55 -1.25 4.2 -1.2 4.15 -1.2 3.45 -1.0 3.6 -0.95 3.55 M-0.75 5.25 Q-0.6 5.45 -0.6 5.55 -0.8 5.55 -0.95 5.7 L-1.0 5.45 -0.95 5.4 -0.9 5.4 -0.9 5.35 -0.8 5.4 Q-0.75 5.4 -0.75 5.25 M-1.55 5.3 L-1.5 5.8 -1.55 5.8 -1.65 5.85 -1.65 5.9 -1.7 5.55 -1.75 5.45 -1.55 5.3 -1.55 5.3 M-1.45 6.2 L-1.4 6.35 -1.5 6.45 -1.85 6.5 Q-1.9 6.4 -1.95 6.35 -2.0 6.3 -2.05 6.3 L-2.2 6.35 -2.4 6.4 -2.55 6.35 -2.65 6.25 -2.65 6.2 -2.8 6.2 -3.05 6.4 -3.15 6.55 Q-3.15 6.45 -3.2 6.45 -3.3 6.4 -3.3 6.3 L-3.25 6.15 -3.35 6.15 -3.45 6.05 -3.15 5.6 -3.15 5.55 -3.2 5.1 -3.25 4.3 -3.25 4.0 -3.0 4.3 -2.95 4.3 -2.95 4.3 -2.9 4.2 -2.9 4.3 -2.7 5.25 Q-2.7 5.35 -2.85 5.4 L-2.85 5.55 -2.85 5.55 Q-2.9 5.55 -2.95 5.65 L-3.0 5.75 Q-3.0 5.8 -2.9 5.8 -2.85 5.8 -2.8 5.85 L-2.8 6.0 -2.75 5.9 Q-2.7 5.8 -2.55 5.8 L-2.55 6.0 -2.5 5.9 Q-2.45 5.85 -2.4 5.85 L-2.4 5.85 Q-2.5 5.95 -2.55 6.1 L-2.55 6.15 -2.4 6.0 -2.3 6.0 Q-2.2 6.0 -2.15 6.1 -2.1 6.2 -2.1 6.25 L-2.0 6.25 -2.0 6.2 -2.0 6.25 -1.65 6.25 -1.65 6.25 -1.55 6.3 -1.45 6.2 M-4.25 7.75 L-4.2 7.7 -4.1 7.5 -4.05 7.4 -4.05 7.0 -4.0 6.75 -3.85 6.8 -3.8 6.95 -3.65 6.95 -3.65 7.15 -3.65 7.3 -3.7 7.6 -3.7 7.7 -3.65 7.75 -3.65 7.7 -3.6 7.7 -3.6 7.9 -3.65 7.9 -3.7 7.9 -3.75 7.85 -3.8 7.85 -3.8 7.95 -3.75 8.0 -3.75 8.1 -3.9 8.1 -3.9 8.1 -3.95 8.0 Q-4.0 7.95 -4.1 7.9 L-4.1 7.9 -4.25 7.75 M-3.3 3.25 L-3.35 2.6 Q-3.4 1.55 -2.6 -0.4 L-2.3 -0.45 -2.2 -0.45 -2.1 -0.45 -1.95 -0.45 -1.7 -0.45 -1.85 0.0 -1.85 -0.05 -1.9 -0.05 Q-2.1 0.05 -2.4 0.3 -2.75 0.65 -2.9 0.95 L-3.05 1.4 Q-3.15 1.75 -3.15 2.0 -3.15 2.4 -3.05 3.2 L-3.2 3.25 -3.3 3.25 M-1.9 -1.95 L-0.8 -4.05 -0.6 -4.05 -0.4 -4.0 -0.3 -3.9 -0.3 -3.4 -0.3 -3.3 -0.35 -3.15 Q-0.45 -3.05 -0.55 -3.0 L-0.55 -3.1 Q-0.7 -3.05 -0.85 -2.75 L-0.95 -2.45 -0.95 -2.35 -0.85 -2.4 -0.85 -2.4 -1.0 -2.2 -1.15 -2.05 -1.15 -2.1 -1.25 -2.05 -1.3 -1.95 -1.35 -2.0 -1.45 -1.85 -1.5 -1.85 -1.5 -1.95 -1.6 -1.85 -1.6 -1.95 -1.65 -1.95 -1.7 -1.85 -1.7 -1.85 -1.75 -1.95 -1.75 -1.95 -1.85 -1.95 -1.9 -1.95 M-0.5 -5.85 L-0.5 -6.8 -0.55 -6.85 -0.2 -7.3 -0.15 -7.2 Q-0.05 -7.0 -0.05 -6.9 L-0.05 -6.8 -0.05 -6.05 -0.1 -5.95 Q-0.15 -5.85 -0.2 -5.85 -0.2 -5.85 -0.25 -5.85 L-0.25 -5.95 -0.3 -5.85 -0.35 -5.8 -0.45 -5.9 -0.5 -5.85 M-0.5 -7.75 L-0.55 -7.9 -0.7 -8.2 -0.7 -8.3 -0.2 -8.15 -0.2 -8.05 -0.25 -7.9 -0.25 -7.8 -0.5 -7.75 -0.5 -7.75 M-1.7 2.75 L-1.7 2.9 -1.7 2.75 M-1.0 5.45 L-1.0 5.45" fill="#385964" fill-rule="evenodd" stroke="none"/>
    <path d="M-2.1 -1.5 L-1.9 -1.95 -1.85 -1.95 -1.75 -1.95 -1.75 -1.95 -1.7 -1.85 -1.7 -1.85 -1.65 -1.95 -1.6 -1.95 -1.6 -1.85 -1.5 -1.95 -1.5 -1.85 -1.45 -1.85 -1.35 -2.0 -1.3 -1.95 -1.25 -2.05 -1.15 -2.1 -1.15 -2.05 -1.0 -2.2 -0.85 -2.4 -0.85 -2.35 Q-0.85 -2.25 -1.15 -1.55 L-1.4 -1.1 -1.6 -0.65 -1.7 -0.65 -1.7 -0.8 -1.65 -0.85 -1.75 -0.85 -1.75 -0.95 -1.8 -0.95 Q-1.8 -1.1 -1.85 -1.1 L-1.95 -1.1 -2.0 -1.25 Q-2.0 -1.2 -2.05 -1.2 -2.15 -1.2 -2.15 -1.4 L-2.1 -1.45 -2.1 -1.5 M-0.6 -4.6 L-0.55 -4.7 Q-0.5 -5.15 -0.5 -5.85 L-0.45 -5.9 -0.35 -5.8 -0.3 -5.85 -0.25 -5.95 -0.25 -5.85 Q-0.2 -5.85 -0.2 -5.85 -0.15 -5.85 -0.1 -5.95 L-0.05 -6.05 -0.1 -5.65 -0.1 -5.25 -0.05 -4.75 -0.05 -4.7 -0.1 -4.65 -0.15 -4.25 -0.15 -4.2 -0.15 -4.15 -0.25 -4.2 -0.25 -4.25 -0.3 -4.45 -0.3 -4.5 -0.35 -4.45 -0.4 -4.45 -0.4 -4.6 Q-0.4 -4.65 -0.45 -4.65 L-0.5 -4.6 -0.55 -4.6 Q-0.55 -4.6 -0.6 -4.6 M-0.6 -7.45 L-0.6 -7.55 -0.5 -7.75 -0.5 -7.75 -0.25 -7.8 -0.3 -7.6 -0.3 -7.6 -0.45 -7.5 -0.6 -7.45" fill="#5c7b8a" fill-rule="evenodd" stroke="none"/>
    <path d="M-1.35 2.65 L-1.3 2.75 Q-0.95 3.25 -0.95 3.4 L-0.95 3.55 -1.0 3.6 -1.2 3.45 -1.3 3.3 -1.4 3.2 -1.45 3.15 -1.5 3.05 -1.5 2.95 Q-1.5 2.85 -1.45 2.75 L-1.35 2.65 M-0.9 5.0 L-0.9 5.05 -0.75 5.25 Q-0.75 5.4 -0.8 5.4 L-0.9 5.35 -0.9 5.4 -0.95 5.4 -1.0 5.45 -1.0 5.35 Q-1.05 5.2 -1.1 5.1 L-1.05 5.0 -0.95 5.05 -0.9 5.0 M-1.6 4.95 L-1.6 5.0 -1.55 5.3 -1.55 5.3 -1.75 5.45 -1.75 5.05 -1.75 5.0 -1.65 4.95 -1.6 4.95 M-1.5 5.8 L-1.5 5.9 -1.45 6.2 -1.55 6.3 -1.65 6.25 -1.65 6.25 -1.65 6.05 -1.65 5.9 -1.65 5.85 -1.55 5.8 -1.5 5.8 M-4.0 6.75 L-3.95 6.75 -3.95 6.7 -3.9 6.6 -3.6 6.2 -3.45 6.05 -3.35 6.15 -3.25 6.15 -3.3 6.3 Q-3.3 6.4 -3.2 6.45 -3.15 6.45 -3.15 6.55 L-3.3 6.8 -3.3 6.8 -3.25 6.6 Q-3.4 6.65 -3.45 6.8 L-3.55 7.05 -3.55 6.9 -3.65 7.1 -3.65 7.15 -3.65 6.95 -3.8 6.95 -3.85 6.8 -4.0 6.75 M-3.25 4.0 L-3.3 3.25 -3.2 3.25 -3.05 3.2 -2.9 4.2 -2.95 4.3 -2.95 4.3 -3.0 4.3 -3.25 4.0 M-2.85 5.55 L-2.85 5.6 -2.7 5.6 -2.6 5.7 -2.55 5.8 Q-2.7 5.8 -2.75 5.9 L-2.8 6.0 -2.8 5.85 Q-2.85 5.8 -2.9 5.8 -3.0 5.8 -3.0 5.75 L-2.95 5.65 Q-2.9 5.55 -2.85 5.55 L-2.85 5.55 M-2.4 5.85 L-2.35 5.85 Q-2.25 5.85 -2.1 6.0 L-2.05 6.15 -2.0 6.2 -2.0 6.25 -2.1 6.25 Q-2.1 6.2 -2.15 6.1 -2.2 6.0 -2.3 6.0 L-2.4 6.0 -2.55 6.15 -2.55 6.1 Q-2.5 5.95 -2.4 5.85" fill="#518191" fill-rule="evenodd" stroke="none"/>
    <path d="M-0.95 5.7 L-1.0 5.8 -1.3 6.2 -1.3 6.2 Q-1.3 6.05 -1.4 5.8 L-1.5 5.55 Q-1.5 5.4 -1.4 5.35 L-1.4 5.35 -1.3 5.5 -1.15 5.55 Q-1.0 5.55 -1.0 5.45 L-0.95 5.7 M-1.35 4.95 L-1.4 4.8 Q-1.5 4.65 -1.5 4.45 L-1.25 4.65 -1.2 4.95 -1.25 4.95 -1.35 4.95 M-1.45 4.25 L-1.45 4.25 -1.4 4.05 Q-1.4 3.95 -1.55 3.8 L-1.65 3.7 -1.65 3.6 -1.4 3.2 -1.3 3.3 -1.2 3.45 -1.2 4.15 -1.45 4.25 M-2.5 6.85 L-2.65 6.85 Q-2.9 6.85 -3.15 7.15 -3.4 7.45 -3.4 7.85 L-3.35 8.25 Q-3.35 8.35 -3.8 8.55 L-3.9 8.45 -4.1 8.3 -4.1 8.25 -4.35 8.0 -4.35 8.0 -4.25 7.75 -4.1 7.9 -4.1 7.9 Q-4.0 7.95 -3.95 8.0 L-3.9 8.1 -3.9 8.1 -3.75 8.1 -3.75 8.0 -3.8 7.95 -3.8 7.85 -3.75 7.85 -3.7 7.9 -3.65 7.9 -3.6 7.9 -3.6 7.7 -3.65 7.7 -3.65 7.75 -3.7 7.7 -3.7 7.6 -3.65 7.3 -3.65 7.15 -3.65 7.1 -3.55 6.9 -3.55 7.05 -3.45 6.8 Q-3.4 6.65 -3.25 6.6 L-3.3 6.8 -3.3 6.8 -3.15 6.55 -3.05 6.4 -2.8 6.2 -2.65 6.2 -2.65 6.25 -2.55 6.35 -2.4 6.4 -2.2 6.35 -2.05 6.3 Q-2.0 6.3 -1.95 6.35 -1.9 6.4 -1.85 6.5 L-2.05 6.5 -2.6 6.55 Q-2.55 6.6 -2.5 6.85" fill="#314f58" fill-rule="evenodd" stroke="none"/>
    <path d="M-1.5 6.45 L-1.45 6.95 -1.8 7.0 -2.0 7.05 -2.0 7.0 -2.05 7.0 -2.2 7.05 -2.15 7.15 -2.2 7.2 -2.35 7.2 -2.5 7.2 -2.5 7.2 -2.5 6.85 Q-2.55 6.6 -2.6 6.55 L-2.05 6.5 -1.85 6.5 -1.5 6.45 M-1.45 7.1 L-1.35 7.6 -1.85 7.7 -1.85 7.7 -2.0 7.7 -2.55 7.55 -2.55 7.35 -2.35 7.3 -2.2 7.3 Q-2.15 7.3 -2.05 7.25 L-2.0 7.25 Q-1.9 7.15 -1.85 7.15 L-1.8 7.15 -1.65 7.15 -1.45 7.1 M-1.3 7.8 L-1.3 7.9 -1.4 7.95 -1.75 8.0 -1.9 8.05 -2.1 8.0 Q-2.45 8.0 -2.55 7.75 L-2.0 7.9 -1.9 7.9 -1.85 7.9 -1.3 7.8" fill="#192427" fill-rule="evenodd" stroke="none"/>
    <path d="M-1.8 7.15 L-1.85 7.15 Q-1.9 7.15 -2.0 7.25 L-2.05 7.25 -2.05 7.15 -2.0 7.0 -2.0 7.05 -1.8 7.0 -1.8 7.15 M-2.0 7.9 L-2.05 7.75 -2.0 7.7 -1.85 7.7 -1.85 7.7 -1.85 7.9 -1.9 7.9 -2.0 7.9" fill="#33484f" fill-rule="evenodd" stroke="none"/>
    <path d="M0.05 -8.55 L0.05 -8.65 -0.35 -9.0 -0.35 -9.05 Q-0.8 -9.4 -0.8 -9.2 L-0.7 -8.3 -0.7 -8.2 -0.55 -7.9 -0.5 -7.75 -0.6 -7.55 -0.6 -7.45 -0.55 -7.0 -0.55 -6.85 -0.5 -6.8 -0.5 -5.85 Q-0.5 -5.15 -0.55 -4.7 L-0.6 -4.6 Q-0.65 -4.4 -0.7 -4.3 L-0.8 -4.05 -1.9 -1.95 -2.1 -1.5 -2.3 -1.2 -2.6 -0.4 Q-3.4 1.55 -3.35 2.6 L-3.3 3.25 -3.25 4.0 -3.25 4.3 -3.2 5.1 -3.15 5.55 -3.15 5.6 -3.45 6.05 -3.6 6.2 -3.9 6.6 -3.95 6.7 -3.95 6.75 -4.0 6.75 -4.05 7.0 -4.05 7.4 -4.1 7.5 -4.2 7.7 -4.25 7.75 -4.35 8.0 -4.35 8.0 -4.1 8.25 -4.1 8.3 -3.9 8.45 -3.8 8.55 Q-3.35 8.35 -3.35 8.25 L-3.4 7.85 Q-3.4 7.45 -3.15 7.15 -2.9 6.85 -2.65 6.85 L-2.5 6.85 -2.5 7.2 -2.55 7.35 -2.55 7.55 -2.55 7.6 -2.55 7.75 Q-2.45 8.0 -2.1 8.0 L-1.9 8.05 -1.75 8.0 -1.4 7.95 -1.3 7.9 -1.3 7.8 -1.35 7.6 -1.45 7.1 -1.45 6.95 -1.5 6.45 -1.4 6.35 -1.45 6.2 -1.5 5.9 -1.5 5.8 -1.55 5.3 -1.6 5.0 -1.6 4.95 -1.65 4.4 -1.65 4.3 -1.65 4.0 -1.65 3.9 -1.7 3.7 -1.65 3.7 -1.55 3.8 Q-1.4 3.95 -1.4 4.05 L-1.45 4.25 -1.45 4.25 -1.5 4.3 -1.5 4.45 Q-1.5 4.65 -1.4 4.8 L-1.35 4.95 -1.3 5.2 Q-1.3 5.3 -1.4 5.35 L-1.4 5.35 Q-1.5 5.4 -1.5 5.55 L-1.4 5.8 Q-1.3 6.05 -1.3 6.2 L-1.3 6.2 -1.0 5.8 -0.95 5.7 Q-0.8 5.55 -0.6 5.55 -0.6 5.45 -0.75 5.25 L-0.9 5.05 -0.9 5.0 -1.1 4.6 -1.15 4.45 -0.95 3.55 -0.95 3.4 Q-0.95 3.25 -1.3 2.75 L-1.35 2.65 Q-1.5 2.4 -1.55 2.15 L-1.6 2.0 -1.6 2.0 Q-1.6 1.45 -1.45 0.95 L-1.45 0.75 -1.3 0.2 -1.3 0.1 -1.25 0.05 -1.05 -0.4 -0.3 -1.95 0.15 -3.05 0.45 -3.85 0.45 -3.9 0.4 -4.5 0.35 -4.6 M0.05 -8.5 L0.25 -6.15 0.25 -5.9 0.3 -5.7 0.35 -4.7 0.35 -4.65" fill="none" stroke="#000000" stroke-linecap="round" stroke-linejoin="round" stroke-opacity="0.4509804" stroke-width="0.1"/>
  </g>
</svg>
