<?xml version="1.0" encoding="UTF-8" standalone="no"?>
<svg xmlns:xlink="http://www.w3.org/1999/xlink" height="21.85px" width="5.45px" xmlns="http://www.w3.org/2000/svg">
  <g transform="matrix(1.0, 0.0, 0.0, 1.0, 3.45, 15.05)">
    <path d="M0.9 -2.75 Q0.9 -3.2 1.35 -3.2 1.75 -3.2 1.75 -2.85 1.75 -2.6 1.65 -2.5 1.5 -2.35 1.3 -2.35 1.1 -2.35 1.0 -2.5 0.9 -2.65 0.9 -2.75 M0.85 -3.1 Q0.85 -2.9 0.75 -2.75 0.6 -2.65 0.45 -2.65 0.2 -2.65 0.1 -2.8 0.0 -2.95 0.0 -3.05 0.0 -3.5 0.4 -3.5 0.85 -3.5 0.85 -3.1 M0.1 -3.6 Q0.0 -3.5 -0.1 -3.5 -0.2 -3.5 -0.2 -3.5 L-0.2 -3.35 Q-0.2 -3.25 -0.25 -3.15 -0.35 -3.0 -0.5 -3.0 -0.65 -3.0 -0.7 -3.15 L-0.75 -3.35 Q-0.75 -3.7 -0.5 -3.7 L-0.35 -3.7 -0.35 -3.8 Q-0.35 -4.15 -0.1 -4.15 0.15 -4.15 0.15 -3.8 L0.1 -3.6 M1.8 -1.0 Q1.65 -0.8 1.5 -0.8 1.2 -0.8 1.1 -1.05 1.05 -1.15 1.05 -1.25 1.05 -1.65 1.45 -1.65 1.9 -1.7 1.9 -1.3 1.9 -1.15 1.8 -1.0 M2.0 0.7 Q2.0 0.95 1.9 1.05 1.8 1.2 1.55 1.2 1.35 1.2 1.25 1.05 1.15 0.9 1.15 0.8 1.15 0.35 1.6 0.35 2.0 0.35 2.0 0.7 M0.55 0.45 L0.5 0.5 Q0.5 0.85 0.25 0.85 0.0 0.85 0.0 0.55 L0.05 0.35 0.0 0.25 Q0.0 -0.1 0.3 -0.1 0.6 -0.1 0.6 0.25 L0.55 0.45 M0.05 2.0 L0.0 2.05 Q0.35 2.1 0.35 2.65 0.35 2.8 0.2 2.95 0.05 3.15 -0.15 3.15 -0.4 3.15 -0.55 2.9 -0.65 2.7 -0.65 2.55 -0.65 2.2 -0.3 2.1 L-0.35 2.05 -0.55 2.1 Q-0.8 2.1 -0.8 1.7 -0.8 1.3 -0.55 1.35 -0.4 1.35 -0.35 1.4 L-0.3 1.2 -0.4 1.2 Q-0.65 1.2 -0.65 0.9 -0.65 0.15 -0.4 0.05 -0.1 -0.1 -0.1 0.6 L-0.1 0.95 -0.15 1.05 -0.1 1.05 Q0.2 1.05 0.2 1.55 0.2 1.9 0.05 2.0 M0.4 3.35 L0.35 3.15 Q0.35 2.85 0.65 2.85 0.9 2.85 0.9 3.15 L0.85 3.35 Q0.75 3.5 0.65 3.5 0.5 3.5 0.4 3.35 M0.1 4.5 L0.0 4.5 -0.1 4.55 Q-0.35 4.55 -0.35 4.2 -0.35 3.9 -0.15 3.9 -0.05 3.8 0.1 3.85 L0.25 3.9 Q0.3 3.6 0.5 3.6 0.8 3.5 0.8 3.95 0.8 4.4 0.5 4.4 L0.35 4.3 0.3 4.4 Q0.25 4.5 0.1 4.5 M0.45 5.05 Q0.85 5.15 0.85 5.55 0.85 5.7 0.7 5.8 0.6 5.95 0.4 5.95 0.05 5.95 0.05 5.55 0.05 5.0 0.45 5.05 M0.65 6.7 Q0.55 6.8 0.45 6.8 0.2 6.8 0.2 6.5 0.2 6.2 0.45 6.2 0.7 6.2 0.7 6.5 L0.65 6.7 M-0.3 -14.2 Q-0.6 -14.2 -0.7 -14.4 L-0.75 -14.65 Q-0.75 -15.05 -0.3 -15.05 0.1 -15.05 0.1 -14.65 0.1 -14.45 0.0 -14.35 -0.15 -14.2 -0.3 -14.2 M-1.2 -12.5 L-1.1 -12.55 -0.9 -12.5 Q-0.8 -12.45 -0.8 -12.3 -0.8 -12.15 -0.9 -12.1 L-0.9 -12.05 -0.8 -11.9 Q-0.8 -11.75 -0.9 -11.7 -1.0 -11.6 -1.05 -11.6 -1.2 -11.6 -1.25 -11.7 -1.3 -11.8 -1.3 -11.9 -1.3 -12.0 -1.2 -12.1 L-1.2 -12.1 -1.3 -12.2 -1.35 -12.1 Q-1.45 -12.0 -1.65 -12.0 -2.1 -12.0 -2.1 -12.45 -2.1 -12.85 -1.65 -12.85 -1.25 -12.85 -1.2 -12.5 M-2.5 -12.8 Q-2.75 -12.8 -2.85 -13.0 L-2.9 -13.25 Q-2.9 -13.65 -2.45 -13.65 -2.05 -13.65 -2.05 -13.25 -2.05 -12.8 -2.5 -12.8 M-2.3 -10.35 Q-2.3 -10.75 -1.85 -10.7 -1.4 -10.7 -1.4 -10.2 -1.4 -10.1 -1.5 -10.0 -1.65 -9.8 -1.85 -9.8 -2.1 -9.8 -2.25 -10.05 -2.3 -10.15 -2.3 -10.35 M-2.15 -11.1 Q-2.25 -10.95 -2.5 -10.95 -2.7 -10.95 -2.8 -11.1 L-2.9 -11.35 Q-2.9 -11.8 -2.45 -11.8 -2.05 -11.8 -2.05 -11.45 -2.05 -11.25 -2.15 -11.1 M-1.1 -11.0 L-0.9 -10.95 Q-0.8 -10.9 -0.8 -10.8 -0.8 -10.65 -0.9 -10.6 -1.0 -10.5 -1.05 -10.5 -1.15 -10.5 -1.25 -10.6 -1.3 -10.7 -1.3 -10.8 -1.3 -10.9 -1.25 -10.95 L-1.1 -11.0 M-0.4 -8.75 Q-0.4 -8.6 -0.55 -8.5 -0.65 -8.4 -0.8 -8.4 -0.75 -8.25 -0.85 -8.15 -0.95 -8.05 -1.1 -8.05 L-1.3 -8.2 Q-1.45 -8.35 -1.45 -8.5 -1.45 -8.8 -1.2 -9.0 -1.0 -9.2 -0.8 -9.2 -0.4 -9.05 -0.4 -8.75 M-2.9 -9.55 Q-2.75 -9.55 -2.7 -9.5 L-2.65 -9.3 -2.4 -9.15 Q-2.15 -8.85 -2.15 -8.7 -2.15 -8.65 -2.25 -8.55 -2.35 -8.5 -2.4 -8.5 -2.45 -8.5 -2.7 -8.7 -3.0 -8.95 -3.0 -9.1 L-3.05 -9.15 Q-3.15 -9.2 -3.15 -9.3 -3.15 -9.45 -3.0 -9.5 L-2.9 -9.55 M-1.0 -6.7 L-0.9 -6.7 Q-0.9 -7.05 -0.6 -7.05 -0.3 -7.05 -0.3 -6.65 L-0.35 -6.45 Q-0.45 -6.3 -0.6 -6.3 L-0.75 -6.35 -0.8 -6.2 Q-0.85 -6.05 -1.0 -6.05 -1.15 -6.05 -1.2 -6.25 L-1.25 -6.4 Q-1.25 -6.7 -1.0 -6.7 M-1.1 -5.7 Q-1.1 -5.6 -1.2 -5.5 -1.25 -5.35 -1.4 -5.35 -1.6 -5.35 -1.65 -5.5 L-1.7 -5.7 Q-1.7 -6.05 -1.4 -6.05 -1.1 -6.05 -1.1 -5.7 M-0.05 -5.25 Q-0.05 -4.85 -0.35 -4.85 -0.45 -4.85 -0.5 -4.9 L-0.6 -4.9 -0.7 -4.9 -0.75 -4.8 -0.7 -4.8 Q-0.45 -4.75 -0.45 -4.45 -0.45 -4.3 -0.5 -4.2 -0.55 -4.05 -0.7 -4.05 -0.9 -4.05 -0.95 -4.2 L-1.0 -4.45 -0.95 -4.65 Q-1.1 -4.65 -1.15 -4.8 L-1.2 -4.95 Q-1.2 -5.25 -1.0 -5.25 L-1.0 -5.6 Q-1.0 -6.0 -0.65 -5.95 -0.4 -5.85 -0.3 -5.6 -0.05 -5.55 -0.05 -5.25 M-1.75 -3.2 Q-1.9 -3.05 -2.05 -3.05 -2.3 -3.05 -2.4 -3.2 -2.55 -3.35 -2.55 -3.45 -2.55 -3.9 -2.1 -3.9 -1.65 -3.9 -1.65 -3.55 -1.65 -3.35 -1.75 -3.2 M-0.6 -2.55 L-0.6 -2.5 -0.5 -2.5 Q-0.05 -2.4 -0.05 -1.85 -0.05 -1.75 -0.15 -1.6 -0.25 -1.45 -0.45 -1.45 -0.7 -1.45 -0.85 -1.7 L-0.9 -1.95 -0.9 -2.2 Q-1.0 -2.25 -1.05 -2.4 L-1.1 -2.55 Q-1.1 -2.85 -0.85 -2.85 -0.6 -2.85 -0.6 -2.55 M-2.7 -2.95 Q-2.85 -2.8 -3.05 -2.8 -3.45 -2.8 -3.45 -3.3 -3.45 -3.65 -3.05 -3.65 -2.6 -3.65 -2.6 -3.25 -2.6 -3.1 -2.7 -2.95 M-2.5 -1.65 L-2.55 -1.9 Q-2.55 -2.3 -2.1 -2.3 -1.7 -2.3 -1.7 -1.9 -1.7 -1.7 -1.8 -1.55 -1.95 -1.4 -2.15 -1.4 -2.4 -1.4 -2.5 -1.65 M-1.35 -0.4 Q-1.35 -0.75 -1.05 -0.8 -0.9 -0.8 -0.8 -0.65 -0.75 -0.7 -0.65 -0.7 L-0.55 -0.7 -0.55 -0.8 Q-0.55 -1.15 -0.3 -1.15 0.0 -1.15 0.0 -0.8 0.0 -0.75 -0.1 -0.65 -0.15 -0.5 -0.3 -0.5 L-0.35 -0.5 -0.35 -0.45 Q-0.45 0.0 -0.7 0.0 -0.8 0.0 -0.85 -0.1 -0.95 0.0 -1.05 0.0 -1.35 0.0 -1.35 -0.4 M-0.85 1.2 Q-0.9 1.3 -1.05 1.3 -1.3 1.3 -1.3 1.0 -1.3 0.7 -1.05 0.7 -0.8 0.7 -0.8 1.0 L-0.85 1.2 M-1.65 0.8 Q-1.75 0.95 -1.9 0.95 -2.2 0.95 -2.3 0.75 L-2.4 0.5 Q-2.4 0.1 -1.95 0.1 -1.5 0.1 -1.5 0.5 -1.5 0.65 -1.65 0.8 M-1.6 2.35 Q-1.55 2.5 -1.55 2.6 -1.55 2.7 -1.7 2.8 -1.9 2.9 -2.1 2.9 -2.15 2.9 -2.2 2.6 L-2.15 2.45 -2.1 2.3 Q-2.1 2.15 -1.9 2.15 -1.7 2.15 -1.6 2.35 M-0.3 3.25 Q0.0 3.25 0.0 3.55 0.0 3.65 -0.1 3.75 -0.15 3.85 -0.3 3.85 -0.45 3.85 -0.5 3.7 L-0.55 3.55 Q-0.55 3.25 -0.3 3.25" fill="#0ed0ff" fill-rule="evenodd" stroke="none"/>
  </g>
</svg>
