<?xml version="1.0" encoding="UTF-8" standalone="no"?>
<svg xmlns:xlink="http://www.w3.org/1999/xlink" height="21.8px" width="7.2px" xmlns="http://www.w3.org/2000/svg">
  <g transform="matrix(1.0, 0.0, 0.0, 1.0, 4.15, 12.5)">
    <path d="M2.4 -12.45 L2.55 -12.4 2.6 -12.05 2.6 -11.95 2.5 -11.75 Q2.4 -11.65 2.25 -11.6 L2.25 -11.6 2.5 -11.45 Q2.7 -11.45 2.8 -12.05 L2.7 -12.3 Q2.8 -12.15 2.8 -12.0 L2.75 -11.7 2.7 -11.6 2.65 -11.45 Q2.55 -11.4 2.5 -11.4 L2.5 -11.4 2.35 -11.4 2.35 -11.45 Q2.25 -11.45 2.15 -11.55 1.95 -11.7 1.9 -11.85 L2.2 -12.1 2.55 -12.1 2.4 -12.45 M2.05 -11.85 L2.05 -11.7 2.2 -11.65 2.25 -11.7 2.4 -11.8 2.5 -11.9 2.55 -12.0 2.55 -12.05 Q2.35 -12.0 2.05 -11.85" fill="#c96754" fill-rule="evenodd" stroke="none"/>
    <path d="M1.9 -11.85 L1.9 -11.9 1.95 -12.0 Q1.95 -12.15 2.05 -12.3 2.15 -12.4 2.25 -12.45 L2.35 -12.45 2.4 -12.45 2.55 -12.1 2.2 -12.1 1.9 -11.85 M2.05 -11.85 Q2.35 -12.0 2.55 -12.05 L2.55 -12.0 2.5 -11.9 2.4 -11.8 2.25 -11.7 2.2 -11.65 2.05 -11.7 2.05 -11.85" fill="#c8a792" fill-rule="evenodd" stroke="none"/>
    <path d="M2.55 -12.4 L2.65 -12.35 2.65 -12.35 2.7 -12.3 2.8 -12.05 Q2.7 -11.45 2.5 -11.45 L2.25 -11.6 2.25 -11.6 Q2.4 -11.65 2.5 -11.75 L2.6 -11.95 2.6 -12.05 2.55 -12.4 M2.75 -11.7 L2.95 -11.4 3.0 -11.2 3.0 -11.0 Q3.0 -10.8 2.95 -10.75 L2.8 -10.5 Q2.9 -10.5 2.9 -10.3 2.9 -10.15 2.85 -10.1 L2.8 -10.05 2.8 -9.9 2.75 -10.05 2.65 -10.0 2.65 -9.95 2.75 -9.85 2.75 -9.85 2.65 -9.75 2.6 -9.75 Q2.55 -9.75 2.55 -9.8 L2.6 -9.9 2.5 -9.85 2.5 -9.65 2.55 -9.5 2.65 -9.55 2.65 -9.35 2.5 -8.9 2.2 -8.05 2.1 -7.85 Q1.8 -7.15 0.65 -5.35 -0.5 -3.5 -0.85 -0.6 L-1.05 1.35 -1.15 1.3 Q-1.25 1.2 -1.35 1.2 L-1.65 1.25 Q-1.7 1.25 -1.75 1.25 L-1.65 0.4 Q-1.35 0.05 -1.3 -0.1 L-1.25 -0.95 -1.25 -1.2 Q-1.2 -1.4 -1.05 -1.35 L-1.0 -1.45 -1.0 -1.6 Q-1.1 -1.55 -1.1 -1.55 -1.15 -1.55 -1.25 -1.7 L-1.3 -1.85 -1.3 -1.95 Q-1.2 -1.9 -1.15 -1.85 L-1.05 -1.65 Q-1.0 -1.8 -0.95 -2.05 -0.95 -2.3 -0.9 -2.4 L-0.9 -2.4 -0.95 -2.35 Q-1.1 -2.4 -1.15 -2.45 L-1.15 -2.5 -1.1 -2.7 -1.1 -2.7 Q-1.05 -2.65 -1.05 -2.55 L-0.9 -2.5 -0.8 -2.9 -0.65 -3.3 -0.65 -3.35 -0.7 -3.35 -0.7 -3.3 -0.8 -3.45 -0.85 -3.55 -0.85 -3.6 -0.8 -3.65 -0.8 -3.55 -0.7 -3.45 Q-0.6 -3.55 -0.45 -3.75 -0.35 -3.95 -0.35 -4.1 -0.35 -4.2 0.15 -4.9 0.15 -4.95 0.15 -5.05 L0.25 -5.2 0.3 -5.25 0.7 -6.0 0.8 -6.15 0.9 -6.3 1.0 -6.4 1.0 -6.45 1.5 -7.25 1.6 -7.3 1.6 -7.35 1.7 -7.55 1.9 -7.95 2.0 -8.1 1.9 -8.1 1.9 -8.2 1.85 -8.3 1.9 -8.35 1.9 -8.35 1.95 -8.25 1.9 -8.2 1.95 -8.15 2.0 -8.15 2.15 -8.6 1.95 -8.6 2.0 -8.65 1.95 -8.75 2.0 -8.9 2.1 -8.7 2.2 -8.75 2.3 -9.25 2.3 -9.25 2.35 -9.35 2.35 -9.5 2.3 -9.55 2.25 -9.65 2.25 -9.65 2.3 -9.65 2.3 -9.65 2.35 -9.7 2.4 -9.75 2.4 -9.95 2.35 -9.95 2.35 -10.05 2.4 -10.1 2.45 -10.25 2.55 -10.3 2.55 -10.65 2.5 -10.8 2.45 -10.85 2.45 -10.9 2.5 -11.4 2.5 -11.4 Q2.55 -11.4 2.65 -11.45 L2.7 -11.6 2.75 -11.7 M-1.1 1.95 L-1.15 2.1 -1.25 2.1 -1.5 2.0 Q-1.45 1.95 -1.3 1.95 L-1.1 1.95 M2.05 -9.1 L2.1 -9.2 2.25 -9.2 2.15 -9.15 Q2.15 -9.1 2.05 -9.1 M2.85 -11.35 L2.65 -11.5 2.75 -10.55 2.9 -10.7 2.95 -10.9 2.95 -11.1 2.9 -11.1 2.85 -11.05 Q2.8 -11.05 2.8 -11.1 L2.9 -11.15 2.9 -11.2 2.85 -11.35 M2.45 -10.1 L2.55 -10.1 2.65 -10.1 2.75 -10.25 2.8 -10.45 Q2.65 -10.4 2.55 -10.35 2.45 -10.25 2.45 -10.1 L2.45 -10.1 M-1.85 2.35 L-1.8 2.35 Q-1.65 2.3 -1.6 2.15 L-1.55 2.35 Q-1.5 2.6 -1.5 2.75 L-1.5 2.95 -1.55 3.0 -1.6 3.25 -1.8 3.15 -1.85 3.1 -1.9 3.05 -1.85 2.35" fill="#702016" fill-rule="evenodd" stroke="none"/>
    <path d="M2.8 -9.9 L2.75 -9.85 2.65 -9.95 2.65 -10.0 2.75 -10.05 2.8 -9.9 M-0.8 -3.65 Q-0.45 -4.75 0.15 -5.5 L0.2 -5.6 Q0.3 -5.55 0.3 -5.4 L0.3 -5.25 0.25 -5.2 0.15 -5.05 Q0.15 -4.95 0.15 -4.9 -0.35 -4.2 -0.35 -4.1 -0.35 -3.95 -0.45 -3.75 -0.6 -3.55 -0.7 -3.45 L-0.8 -3.55 -0.8 -3.65 M0.25 -5.65 Q1.15 -6.9 1.7 -8.1 L1.75 -8.0 1.75 -7.9 1.8 -7.9 1.75 -7.65 1.7 -7.55 1.6 -7.35 1.6 -7.3 1.5 -7.25 Q1.3 -7.1 1.2 -6.9 L1.0 -6.45 1.0 -6.4 0.9 -6.3 0.8 -6.15 0.6 -5.95 0.25 -5.65 M2.2 -9.5 L2.25 -9.9 2.3 -9.8 2.35 -9.7 2.3 -9.65 2.3 -9.65 2.25 -9.65 2.25 -9.65 2.3 -9.55 2.35 -9.5 2.35 -9.35 2.2 -9.45 2.2 -9.5 M2.35 -10.8 L2.35 -11.4 2.5 -11.4 2.45 -10.9 2.45 -10.85 Q2.45 -10.8 2.35 -10.8 M2.85 -11.35 L2.9 -11.2 2.9 -11.15 2.8 -11.1 Q2.8 -11.05 2.85 -11.05 L2.9 -11.1 2.95 -11.1 2.95 -10.9 2.9 -10.7 2.75 -10.55 2.65 -11.5 2.85 -11.35 M2.45 -10.1 L2.45 -10.1 Q2.45 -10.25 2.55 -10.35 2.65 -10.4 2.8 -10.45 L2.75 -10.25 2.65 -10.1 2.55 -10.1 2.45 -10.1" fill="#9f4032" fill-rule="evenodd" stroke="none"/>
    <path d="M1.7 -8.1 L1.95 -8.65 1.95 -8.75 2.0 -8.65 1.95 -8.6 2.15 -8.6 2.0 -8.15 1.95 -8.15 1.9 -8.2 1.95 -8.25 1.9 -8.35 1.9 -8.35 1.85 -8.3 1.9 -8.2 1.9 -8.1 2.0 -8.1 1.9 -7.95 1.8 -7.9 1.8 -7.9 1.75 -7.9 1.75 -8.0 1.7 -8.1 M2.0 -8.9 L2.05 -9.1 Q2.15 -9.1 2.15 -9.15 L2.25 -9.2 2.1 -9.2 2.2 -9.5 2.2 -9.45 2.35 -9.35 2.3 -9.25 2.3 -9.25 2.2 -8.75 2.1 -8.7 2.0 -8.9 M2.25 -9.95 L2.35 -10.8 Q2.45 -10.8 2.45 -10.85 L2.5 -10.8 2.55 -10.65 2.55 -10.3 2.45 -10.25 2.4 -10.1 2.35 -10.05 2.35 -9.95 2.25 -9.95" fill="#b55042" fill-rule="evenodd" stroke="none"/>
    <path d="M2.65 -9.75 L2.65 -9.55 2.55 -9.5 2.5 -9.65 2.5 -9.85 2.6 -9.9 2.55 -9.8 Q2.55 -9.75 2.6 -9.75 L2.65 -9.75 M-1.1 1.8 L-1.1 1.95 -1.3 1.95 Q-1.45 1.95 -1.5 2.0 L-1.6 2.15 -1.6 2.15 Q-1.65 2.3 -1.8 2.35 L-1.85 2.35 -1.8 1.85 -1.8 1.8 -1.65 1.75 -1.6 1.7 -1.4 1.7 Q-1.25 1.7 -1.1 1.8 M-1.15 2.1 L-1.2 3.25 -1.2 3.45 -1.3 3.4 -1.4 3.35 -1.45 3.35 -1.5 3.3 -1.6 3.25 -1.6 3.25 -1.55 3.0 -1.5 2.95 -1.5 2.9 -1.4 2.45 -1.4 2.2 Q-1.35 2.15 -1.15 2.1 M-1.75 1.3 L-1.75 1.25 Q-1.7 1.25 -1.65 1.25 L-1.75 1.3 M-1.65 0.4 L-1.4 -1.15 -1.3 -1.85 -1.25 -1.7 Q-1.15 -1.55 -1.1 -1.55 -1.1 -1.55 -1.0 -1.6 L-1.0 -1.45 -1.05 -1.35 Q-1.2 -1.4 -1.25 -1.2 L-1.25 -0.95 -1.3 -0.1 Q-1.35 0.05 -1.65 0.4 M-1.3 -1.95 L-1.15 -2.5 -1.15 -2.45 Q-1.1 -2.4 -0.95 -2.35 L-0.9 -2.4 -0.9 -2.4 Q-0.95 -2.3 -0.95 -2.05 -1.0 -1.8 -1.05 -1.65 L-1.15 -1.85 Q-1.2 -1.9 -1.3 -1.95 M-1.1 -2.7 L-0.85 -3.55 -0.8 -3.45 -0.7 -3.3 -0.7 -3.35 -0.65 -3.35 -0.65 -3.3 -0.8 -2.9 -0.9 -2.5 -1.05 -2.55 Q-1.05 -2.65 -1.1 -2.7 L-1.1 -2.7 M2.25 -9.9 L2.25 -9.95 2.35 -9.95 2.4 -9.95 2.4 -9.75 2.35 -9.7 2.3 -9.8 2.25 -9.9" fill="#4f160f" fill-rule="evenodd" stroke="none"/>
    <path d="M0.2 -5.6 L0.25 -5.65 0.6 -5.95 0.8 -6.15 0.7 -6.0 0.3 -5.25 0.3 -5.4 Q0.3 -5.55 0.2 -5.6 M1.9 -7.95 L1.7 -7.55 1.75 -7.65 1.8 -7.9 1.8 -7.9 1.9 -7.95 M1.5 -7.25 L1.0 -6.45 1.2 -6.9 Q1.3 -7.1 1.5 -7.25" fill="#d5936c" fill-rule="evenodd" stroke="none"/>
    <path d="M-1.05 1.35 L-1.0 1.35 -1.1 1.4 -1.15 1.4 -1.3 1.45 -1.65 1.25 -1.35 1.2 Q-1.25 1.2 -1.15 1.3 L-1.05 1.35 M-0.9 1.35 Q-0.65 1.35 -0.45 1.15 L-0.45 1.05 -0.35 1.3 Q-0.35 1.45 -0.55 1.6 -0.7 1.7 -0.85 1.7 L-0.85 1.85 -0.65 1.9 Q-0.6 1.9 -0.3 1.35 L-0.35 1.2 Q-0.35 1.1 -0.15 1.0 L-0.05 0.95 Q-0.1 1.15 -0.3 1.45 -0.55 2.0 -0.7 2.0 L-1.1 1.8 Q-1.25 1.7 -1.4 1.7 L-1.6 1.7 Q-1.45 1.5 -1.4 1.5 L-1.15 1.55 -1.1 1.5 -0.9 1.35 M-0.4 0.95 Q-0.35 0.8 -0.35 0.65 -0.35 0.4 -0.5 0.3 L-0.5 0.3 -0.25 0.5 Q0.0 0.7 0.0 0.8 L0.0 0.8 -0.3 1.05 -0.4 0.95 M-1.2 3.45 Q-0.7 3.8 -0.55 4.2 L-0.6 4.2 -0.6 4.35 -1.0 4.0 -1.25 3.7 -1.25 3.5 -1.2 3.45 M-2.0 3.65 Q-2.05 3.5 -2.2 3.4 L-2.1 3.35 -1.95 3.25 Q-1.85 3.25 -1.8 3.4 -1.7 3.55 -1.7 3.9 L-1.8 3.8 -1.85 3.75 -1.85 3.75 -2.0 3.65 M-2.25 3.35 L-2.5 3.15 -2.5 2.75 Q-2.45 2.7 -2.3 2.7 L-2.25 2.7 -1.9 3.05 -1.9 3.05 Q-1.9 3.25 -2.25 3.35 M-2.55 3.0 L-2.6 2.75 -2.65 2.5 -2.6 2.7 -2.55 2.9 -2.55 3.0 M-2.65 2.25 L-2.65 2.2 Q-2.55 1.95 -2.3 1.7 L-2.15 2.05 Q-2.3 2.25 -2.3 2.45 L-2.25 2.65 -2.5 2.7 -2.65 2.25 M-2.05 1.45 Q-1.9 1.35 -1.75 1.3 L-1.75 1.35 -1.6 1.4 Q-1.45 1.45 -1.45 1.5 L-1.65 1.75 -1.8 1.8 -2.0 1.9 -2.1 2.0 -2.1 1.9 -2.15 1.7 -2.15 1.65 -2.1 1.55 -2.05 1.45 M-1.6 3.25 L-1.6 3.25 -1.5 3.3 -1.45 3.35 -1.35 3.65 -1.25 3.85 -1.15 4.0 Q-0.95 4.15 -0.65 4.4 L-0.7 4.55 -0.75 4.7 -0.75 4.7 -0.85 4.75 Q-0.8 4.65 -0.8 4.45 L-0.8 4.4 -0.85 4.35 -1.15 4.45 -1.2 4.45 -1.2 4.35 -1.2 4.25 Q-1.25 4.15 -1.35 4.15 L-1.45 4.2 -1.5 4.2 -1.55 4.15 -1.6 4.0 Q-1.6 3.6 -1.65 3.5 L-1.8 3.3 -1.85 3.1 -1.8 3.15 -1.6 3.25 M-1.4 3.35 L-1.3 3.4 -1.3 3.65 -1.4 3.35 M-0.85 4.75 L-0.85 4.75" fill="#681911" fill-rule="evenodd" stroke="none"/>
    <path d="M-1.0 1.35 L-0.9 1.35 -0.9 1.35 -1.1 1.5 -1.15 1.55 -1.4 1.5 Q-1.45 1.5 -1.6 1.7 L-1.65 1.75 -1.45 1.5 Q-1.45 1.45 -1.6 1.4 L-1.75 1.35 -1.75 1.3 -1.75 1.3 -1.65 1.25 -1.3 1.45 -1.15 1.4 -1.1 1.4 -1.0 1.35 M-0.45 1.05 L-0.4 0.95 -0.3 1.05 0.0 0.8 -0.05 0.95 -0.15 1.0 Q-0.35 1.1 -0.35 1.2 L-0.3 1.35 Q-0.6 1.9 -0.65 1.9 L-0.85 1.85 -0.85 1.7 Q-0.7 1.7 -0.55 1.6 -0.35 1.45 -0.35 1.3 L-0.45 1.05 M-1.2 3.45 L-1.2 3.45 -1.25 3.5 -1.25 3.7 -1.0 4.0 -0.6 4.35 -0.65 4.4 Q-0.95 4.15 -1.15 4.0 L-1.25 3.85 -1.35 3.65 -1.45 3.35 -1.4 3.35 -1.3 3.65 -1.3 3.4 -1.2 3.45 M-2.2 3.4 L-2.2 3.35 -2.25 3.35 Q-1.9 3.25 -1.9 3.05 L-1.9 3.05 -1.9 3.1 -1.85 3.1 -1.8 3.3 -1.65 3.5 Q-1.6 3.6 -1.6 4.0 L-1.7 3.9 Q-1.7 3.55 -1.8 3.4 -1.85 3.25 -1.95 3.25 L-2.1 3.35 -2.2 3.4 M-2.5 3.15 L-2.5 3.1 -2.55 3.0 -2.55 2.9 -2.6 2.7 -2.65 2.5 -2.65 2.4 -2.65 2.25 -2.5 2.7 -2.25 2.65 -2.25 2.7 -2.3 2.7 Q-2.45 2.7 -2.5 2.75 L-2.5 3.15 M-2.3 1.7 L-2.3 1.65 -2.25 1.65 -2.05 1.45 -2.1 1.55 -2.15 1.65 -2.15 1.7 -2.1 1.9 -2.1 2.0 -2.15 2.05 -2.3 1.7" fill="#29100e" fill-rule="evenodd" stroke="none"/>
    <path d="M-1.15 2.1 L-1.15 2.1 Q-1.35 2.15 -1.4 2.2 L-1.4 2.45 -1.5 2.9 -1.5 2.95 -1.5 2.75 Q-1.5 2.6 -1.55 2.35 L-1.6 2.15 -1.6 2.15 -1.5 2.0 -1.25 2.1 -1.15 2.1 M-2.4 3.7 L-2.35 3.65 Q-2.25 3.5 -2.15 3.5 L-2.0 3.65 -1.85 3.75 -1.85 3.75 -1.95 3.95 -1.95 3.95 -2.15 4.05 -2.4 3.7" fill="#997446" fill-rule="evenodd" stroke="none"/>
    <path d="M-2.65 5.05 L-2.7 5.0 -2.8 4.95 -2.9 4.8 -2.75 4.6 -2.65 4.7 -2.4 4.9 -2.4 4.7 -2.4 4.65 -2.35 4.6 -2.25 4.5 -2.3 4.45 Q-2.2 4.55 -2.05 4.9 L-1.85 4.8 -2.05 4.6 Q-2.3 4.4 -2.35 4.15 L-2.45 3.8 -2.4 3.7 -2.15 4.05 -1.95 3.95 -1.95 3.95 -1.95 3.95 -1.85 4.3 -1.8 4.25 -1.6 4.15 -1.55 4.15 -1.5 4.2 -1.45 4.2 -1.55 4.55 -1.55 4.55 -1.35 4.45 -1.2 4.35 -1.2 4.45 -1.15 4.45 Q-1.15 4.6 -1.05 4.8 L-0.9 4.75 -0.85 4.75 -0.85 4.8 -0.95 4.9 -1.05 4.95 -1.3 4.95 -1.5 4.95 -1.7 4.85 -1.8 4.95 -1.8 4.95 -2.0 5.05 -2.3 5.15 -2.65 5.05" fill="#582123" fill-rule="evenodd" stroke="none"/>
    <path d="M-2.6 6.2 L-2.7 6.25 Q-2.9 6.4 -3.0 6.5 L-3.0 6.55 -3.15 6.45 Q-3.2 6.45 -3.2 6.5 L-3.25 6.5 -3.25 6.4 -3.3 6.4 -3.25 6.25 -3.25 6.25 Q-3.2 6.15 -2.9 6.05 -2.6 5.95 -2.5 5.7 L-2.4 5.7 Q-2.3 5.7 -2.2 5.6 L-2.05 5.75 Q-2.1 5.95 -2.35 6.05 L-2.45 6.1 -2.55 6.15 -2.6 6.2 M-3.2 7.25 L-3.2 7.3 Q-3.35 7.75 -3.75 7.75 L-3.85 7.75 -4.0 7.65 -4.05 7.6 -3.85 7.55 -3.75 7.5 -3.75 7.5 -3.65 7.5 Q-3.55 7.5 -3.4 6.95 L-3.4 6.9 -3.2 7.25 M-2.9 4.8 Q-3.0 4.65 -3.0 4.5 -3.0 4.45 -2.9 4.35 L-2.75 4.6 -2.9 4.8 M-2.55 4.1 L-2.5 4.1 -2.35 4.15 Q-2.3 4.4 -2.05 4.6 L-1.85 4.8 -2.05 4.9 Q-2.2 4.55 -2.3 4.45 L-2.55 4.1 M-2.65 4.7 L-2.6 4.7 Q-2.5 4.7 -2.4 4.65 L-2.4 4.7 -2.4 4.9 -2.65 4.7 M-1.95 3.95 L-1.85 3.75 -1.8 3.8 -1.7 3.9 -1.6 4.0 -1.55 4.15 -1.6 4.15 -1.8 4.25 -1.85 4.3 -1.95 3.95 -1.95 3.95 M-0.85 4.75 L-0.85 4.75 -0.9 4.75 -0.85 4.75" fill="#78412a" fill-rule="evenodd" stroke="none"/>
    <path d="M-2.9 4.35 L-2.75 4.25 -2.55 4.1 -2.3 4.45 -2.25 4.5 -2.35 4.6 -2.4 4.65 Q-2.5 4.7 -2.6 4.7 L-2.65 4.7 -2.75 4.6 -2.9 4.35 M-1.45 4.2 L-1.35 4.15 Q-1.25 4.15 -1.2 4.25 L-1.2 4.35 -1.35 4.45 -1.55 4.55 -1.55 4.55 -1.45 4.2 M-1.15 4.45 L-0.85 4.35 -0.8 4.4 -0.8 4.45 Q-0.8 4.65 -0.85 4.75 L-0.9 4.75 -1.05 4.8 Q-1.15 4.6 -1.15 4.45" fill="#914a39" fill-rule="evenodd" stroke="none"/>
    <path d="M-2.8 5.2 L-2.85 5.15 -2.85 5.1 -2.75 5.05 -2.65 5.05 -2.3 5.15 -2.0 5.05 -1.8 4.95 -1.8 4.95 -1.7 4.85 -1.5 4.95 -1.3 4.95 -1.05 4.95 -0.95 4.9 -0.85 4.8 -0.85 4.95 Q-0.85 5.05 -1.05 5.1 L-1.4 5.15 -1.75 5.1 -1.8 5.1 -2.0 5.2 -2.4 5.25 -2.7 5.25 -2.8 5.2" fill="#c7a76f" fill-rule="evenodd" stroke="none"/>
    <path d="M-0.55 4.2 Q-0.5 4.25 -0.5 4.35 L-0.45 4.55 -0.45 4.7 -0.55 4.85 -0.55 4.9 -0.5 4.9 Q-0.55 4.9 -0.6 4.95 L-0.8 5.1 Q-0.95 5.3 -0.95 5.5 L-1.0 5.45 -1.05 5.5 -1.0 5.45 -1.1 5.45 -1.2 5.4 Q-1.35 5.4 -1.45 5.55 -1.6 5.65 -1.75 5.65 L-1.8 5.65 -2.0 5.6 Q-2.15 5.5 -2.25 5.5 -2.35 5.5 -2.4 5.55 L-2.5 5.6 Q-2.65 5.55 -2.7 5.5 L-2.75 5.45 -2.8 5.2 -2.7 5.25 -2.4 5.25 -2.0 5.2 -1.8 5.1 -1.75 5.1 -1.4 5.15 -1.05 5.1 Q-0.85 5.05 -0.85 4.95 L-0.85 4.8 -0.85 4.75 -0.75 4.7 -0.75 4.7 -0.7 4.55 -0.65 4.4 -0.6 4.35 -0.6 4.2 -0.55 4.2 M-0.25 5.2 L-0.25 5.25 Q-0.25 5.45 -0.3 5.55 L-0.35 5.55 Q-0.5 5.55 -0.6 5.45 -0.7 5.4 -0.7 5.3 -0.7 5.2 -0.65 5.15 -0.55 5.05 -0.45 5.05 -0.35 5.05 -0.3 5.15 L-0.25 5.2" fill="#7d2521" fill-rule="evenodd" stroke="none"/>
    <path d="M-0.5 4.9 Q-0.4 4.85 -0.35 4.95 -0.25 5.0 -0.25 5.2 L-0.3 5.15 Q-0.35 5.05 -0.45 5.05 -0.55 5.05 -0.65 5.15 -0.7 5.2 -0.7 5.3 -0.7 5.4 -0.6 5.45 -0.5 5.55 -0.35 5.55 L-0.3 5.55 Q-0.4 5.7 -0.55 5.7 -0.7 5.7 -0.75 5.6 L-0.95 5.5 Q-0.95 5.3 -0.8 5.1 L-0.6 4.95 Q-0.55 4.9 -0.5 4.9 M-1.05 5.5 Q-1.2 5.5 -1.35 5.65 L-1.35 5.7 Q-1.5 5.8 -1.8 5.85 L-1.85 5.85 Q-1.95 5.85 -2.05 5.75 L-2.05 5.75 -2.2 5.6 Q-2.3 5.7 -2.4 5.7 L-2.5 5.7 Q-2.6 5.7 -2.7 5.5 -2.65 5.55 -2.5 5.6 L-2.4 5.55 Q-2.35 5.5 -2.25 5.5 -2.15 5.5 -2.0 5.6 L-1.8 5.65 -1.75 5.65 Q-1.6 5.65 -1.45 5.55 -1.35 5.4 -1.2 5.4 L-1.1 5.45 -1.0 5.45 -1.05 5.5 M-1.8 5.85 L-1.5 5.85 -1.65 6.05 -1.75 6.2 -1.8 6.2 -1.85 6.25 Q-2.05 6.25 -2.05 6.05 -2.05 5.85 -1.85 5.85 L-1.8 5.85" fill="#a18558" fill-rule="evenodd" stroke="none"/>
    <path d="M-1.35 5.7 Q-1.35 5.85 -1.45 6.1 L-1.6 6.25 -1.7 6.35 -1.8 6.35 -2.15 6.25 -2.25 6.2 -2.3 6.15 -2.35 6.05 Q-2.1 5.95 -2.05 5.75 L-2.05 5.75 Q-1.95 5.85 -1.85 5.85 L-1.8 5.85 Q-1.5 5.8 -1.35 5.7 M-1.8 5.85 L-1.85 5.85 Q-2.05 5.85 -2.05 6.05 -2.05 6.25 -1.85 6.25 L-1.8 6.2 -1.75 6.2 -1.65 6.05 -1.5 5.85 -1.8 5.85" fill="#503824" fill-rule="evenodd" stroke="none"/>
    <path d="M-1.7 6.35 L-1.6 6.6 -1.5 6.85 -1.5 7.75 Q-1.5 8.05 -1.55 8.05 L-1.8 8.1 -1.85 8.1 Q-2.3 8.1 -2.4 7.8 -2.5 7.6 -2.5 6.9 -2.5 6.8 -2.35 6.65 L-2.3 6.4 -2.3 6.2 -2.3 6.15 -2.25 6.2 -2.15 6.25 -1.8 6.35 -1.7 6.35" fill="#2e2d2b" fill-rule="evenodd" stroke="none"/>
    <path d="M-2.3 6.2 L-2.3 6.25 -2.55 6.6 -2.65 6.85 -2.75 6.7 -2.85 6.5 -2.8 6.45 -2.65 6.25 -2.6 6.2 -2.55 6.15 -2.45 6.1 -2.35 6.05 -2.3 6.15 -2.3 6.2 M-2.9 7.7 L-2.9 7.95 Q-2.95 8.3 -3.25 8.75 -3.55 9.2 -3.85 9.2 L-3.95 9.2 -3.95 9.2 -3.85 9.05 -3.85 9.05 -3.8 8.95 Q-3.4 8.8 -3.2 8.3 L-2.9 7.7 M-3.0 6.55 Q-3.1 6.75 -3.2 7.25 L-3.4 6.9 -3.3 6.4 -3.25 6.4 -3.25 6.5 -3.2 6.5 Q-3.2 6.45 -3.15 6.45 L-3.0 6.55 M-4.05 7.6 L-4.1 7.45 Q-4.1 7.3 -4.0 7.25 L-3.85 7.25 -3.85 7.25 -3.75 7.25 -3.75 7.5 -3.75 7.5 -3.85 7.55 -4.05 7.6" fill="#5a271e" fill-rule="evenodd" stroke="none"/>
    <path d="M-2.65 6.85 L-2.7 7.0 -2.9 7.7 -3.2 8.3 Q-3.4 8.8 -3.8 8.95 L-3.6 8.65 Q-3.2 8.05 -3.15 7.65 L-3.0 6.7 -2.9 6.6 -2.85 6.5 -2.75 6.7 -2.65 6.85" fill="#912e2b" fill-rule="evenodd" stroke="none"/>
    <path d="M2.4 -12.45 L2.55 -12.4 2.65 -12.35 2.65 -12.35 2.7 -12.3 Q2.8 -12.15 2.8 -12.0 L2.75 -11.7 2.95 -11.4 3.0 -11.2 3.0 -11.0 Q3.0 -10.8 2.95 -10.75 L2.8 -10.5 Q2.9 -10.5 2.9 -10.3 2.9 -10.15 2.85 -10.1 L2.8 -10.05 2.8 -9.9 2.75 -9.85 2.75 -9.85 2.65 -9.75 2.65 -9.55 2.65 -9.35 2.5 -8.9 2.2 -8.05 2.1 -7.85 Q1.8 -7.15 0.65 -5.35 -0.5 -3.5 -0.85 -0.6 L-1.05 1.35 -1.0 1.35 -0.9 1.35 -0.9 1.35 Q-0.65 1.35 -0.45 1.15 L-0.45 1.05 -0.4 0.95 Q-0.35 0.8 -0.35 0.65 -0.35 0.4 -0.5 0.3 L-0.5 0.3 -0.25 0.5 Q0.0 0.7 0.0 0.8 L0.0 0.8 -0.05 0.95 Q-0.1 1.15 -0.3 1.45 -0.55 2.0 -0.7 2.0 L-1.1 1.8 -1.1 1.95 -1.15 2.1 -1.15 2.1 -1.2 3.25 -1.2 3.45 -1.2 3.45 Q-0.7 3.8 -0.55 4.2 -0.5 4.25 -0.5 4.35 L-0.45 4.55 -0.45 4.7 -0.55 4.85 -0.55 4.9 -0.5 4.9 Q-0.4 4.85 -0.35 4.95 -0.25 5.0 -0.25 5.2 L-0.25 5.25 Q-0.25 5.45 -0.3 5.55 -0.4 5.7 -0.55 5.7 -0.7 5.7 -0.75 5.6 L-0.95 5.5 -1.0 5.45 -1.05 5.5 Q-1.2 5.5 -1.35 5.65 L-1.35 5.7 Q-1.35 5.85 -1.45 6.1 L-1.6 6.25 -1.7 6.35 -1.6 6.6 -1.5 6.85 -1.5 7.75 Q-1.5 8.05 -1.55 8.05 L-1.8 8.1 -1.85 8.1 Q-2.3 8.1 -2.4 7.8 -2.5 7.6 -2.5 6.9 -2.5 6.8 -2.35 6.65 L-2.3 6.4 -2.3 6.2 -2.3 6.25 -2.55 6.6 -2.65 6.85 -2.7 7.0 -2.9 7.7 -2.9 7.95 Q-2.95 8.3 -3.25 8.75 -3.55 9.2 -3.85 9.2 L-3.95 9.2 -3.95 9.2 -3.85 9.05 -3.85 9.05 -3.8 8.95 -3.6 8.65 Q-3.2 8.05 -3.15 7.65 L-3.0 6.7 -2.9 6.6 -2.85 6.5 -2.8 6.45 -2.65 6.25 -2.6 6.2 -2.7 6.25 Q-2.9 6.4 -3.0 6.5 L-3.0 6.55 Q-3.1 6.75 -3.2 7.25 L-3.2 7.3 Q-3.35 7.75 -3.75 7.75 L-3.85 7.75 -4.0 7.65 -4.05 7.6 -4.1 7.45 Q-4.1 7.3 -4.0 7.25 L-3.85 7.25 -3.85 7.25 -3.75 7.25 -3.75 7.5 -3.65 7.5 Q-3.55 7.5 -3.4 6.95 L-3.4 6.9 -3.3 6.4 -3.25 6.25 -3.25 6.25 Q-3.2 6.15 -2.9 6.05 -2.6 5.95 -2.5 5.7 -2.6 5.7 -2.7 5.5 L-2.75 5.45 -2.8 5.2 -2.85 5.15 -2.85 5.1 -2.75 5.05 -2.65 5.05 -2.7 5.0 -2.8 4.95 -2.9 4.8 Q-3.0 4.65 -3.0 4.5 -3.0 4.45 -2.9 4.35 L-2.75 4.25 -2.55 4.1 -2.5 4.1 -2.35 4.15 -2.45 3.8 -2.4 3.7 -2.35 3.65 Q-2.25 3.5 -2.15 3.5 L-2.0 3.65 Q-2.05 3.5 -2.2 3.4 L-2.2 3.35 -2.25 3.35 -2.5 3.15 -2.5 3.1 -2.55 3.0 -2.6 2.75 -2.65 2.5 -2.65 2.4 -2.65 2.25 -2.65 2.2 Q-2.55 1.95 -2.3 1.7 L-2.3 1.65 -2.25 1.65 -2.05 1.45 Q-1.9 1.35 -1.75 1.3 L-1.75 1.3 -1.75 1.25 -1.65 0.4 -1.4 -1.15 -1.3 -1.85 -1.3 -1.95 -1.15 -2.5 -1.1 -2.7 -0.85 -3.55 -0.85 -3.6 -0.8 -3.65 Q-0.45 -4.75 0.15 -5.5 L0.2 -5.6 0.25 -5.65 Q1.15 -6.9 1.7 -8.1 L1.95 -8.65 1.95 -8.75 2.0 -8.9 2.05 -9.1 2.1 -9.2 2.2 -9.5 2.25 -9.9 2.25 -9.95 2.35 -10.8 2.35 -11.4 2.35 -11.45 Q2.25 -11.45 2.15 -11.55 1.95 -11.7 1.9 -11.85 L1.9 -11.9 1.95 -12.0 Q1.95 -12.15 2.05 -12.3 2.15 -12.4 2.25 -12.45 L2.35 -12.45 2.4 -12.45 M-1.8 1.8 L-1.8 1.85 -1.85 2.35 -1.9 3.05 -1.9 3.1 -1.85 3.1 -1.9 3.05 -2.25 2.7 -2.25 2.65 -2.3 2.45 Q-2.3 2.25 -2.15 2.05 L-2.1 2.0 -2.0 1.9 -1.8 1.8 Z" fill="none" stroke="#000000" stroke-linecap="round" stroke-linejoin="round" stroke-opacity="0.4509804" stroke-width="0.1"/>
  </g>
</svg>
