<?xml version="1.0" encoding="UTF-8" standalone="no"?>
<svg xmlns:xlink="http://www.w3.org/1999/xlink" height="13.3px" width="3.1px" xmlns="http://www.w3.org/2000/svg">
  <g transform="matrix(1.0, 0.0, 0.0, 1.0, 2.95, 4.55)">
    <path d="M0.0 -4.15 L0.0 -4.15 -0.1 -3.95 -0.15 -3.8 -0.2 -3.75 -0.2 -3.75 Q-0.35 -3.7 -0.35 -3.55 L-0.4 -3.45 -0.45 -3.45 -0.55 -3.3 -0.55 -3.2 Q-0.55 -3.15 -0.6 -3.1 L-0.65 -3.0 -0.7 -2.75 -0.75 -2.7 -0.85 -2.65 -0.85 -2.5 -0.8 -2.5 -0.75 -2.5 -0.65 -2.55 -0.55 -2.5 Q-0.5 -2.4 -0.45 -2.45 -0.55 -2.35 -0.6 -2.35 L-0.7 -2.3 -0.75 -2.35 -0.8 -2.3 -0.85 -2.2 -0.9 -2.25 -0.9 -2.25 Q-1.0 -2.25 -1.0 -2.1 L-0.95 -1.95 Q-1.15 -1.8 -1.3 -1.2 L-1.5 -0.15 Q-1.7 1.0 -1.75 2.0 L-1.75 2.05 -1.75 2.3 -1.8 2.55 -1.85 2.9 -1.85 2.95 -1.8 3.05 -1.85 3.2 -1.9 3.35 -1.95 3.5 -1.95 3.5 -2.0 3.6 -2.05 3.8 -2.05 4.55 -2.05 5.15 -2.0 5.35 -1.95 5.55 -1.9 5.75 -1.9 5.8 -1.85 5.85 -1.8 5.95 -1.75 6.0 -1.7 5.95 -1.65 5.95 -1.5 5.95 -1.35 6.0 -1.35 6.0 -1.2 6.15 -1.3 6.1 -1.35 6.1 -1.35 6.2 -1.3 6.3 -1.35 6.3 -1.45 6.35 -1.5 6.4 -1.6 6.3 -1.6 6.25 -1.55 6.3 -1.5 6.35 -1.45 6.3 -1.4 6.2 -1.45 6.2 -1.4 6.15 -1.4 6.15 -1.45 6.1 -1.55 6.1 -1.55 6.1 -1.6 6.15 -1.65 6.1 -1.7 6.05 -1.75 6.1 -1.75 6.1 -1.8 6.05 -1.85 6.05 -1.9 6.05 -1.9 6.1 -1.95 6.05 Q-2.0 6.05 -2.0 6.05 L-2.05 6.15 Q-2.05 6.2 -2.15 6.15 L-2.15 6.35 -2.2 6.4 -2.2 6.45 -2.1 6.5 -2.0 6.45 -1.95 6.4 -1.95 6.4 -2.0 6.45 -2.05 6.55 -2.1 6.65 -2.1 6.7 Q-2.1 6.85 -1.95 7.0 L-1.85 7.05 -1.75 7.0 Q-1.75 7.0 -1.7 7.05 L-1.65 7.1 -1.65 7.1 -1.7 7.15 -1.75 7.05 -1.75 7.05 -1.8 7.15 -1.9 7.1 -1.95 7.2 -2.0 7.1 -2.05 7.1 -2.1 7.0 -2.15 7.05 -2.2 7.0 -2.25 7.15 -2.3 7.2 -2.3 7.35 -2.25 7.5 -2.2 7.55 -2.15 7.6 -2.1 7.5 -2.0 7.55 -2.0 7.45 -1.95 7.5 -1.9 7.5 -1.85 7.45 -1.85 7.45 -1.8 7.5 -1.75 7.45 -1.7 7.5 -1.7 7.5 -1.65 7.5 -1.6 7.45 -1.55 7.35 -1.55 7.35 -1.45 7.4 -1.45 7.35 -1.4 7.25 -1.35 7.3 -1.35 7.25 -1.3 7.2 -1.35 7.15 -1.4 7.15 -1.35 7.15 -1.25 7.2 -1.25 7.25 Q-1.25 7.35 -1.3 7.35 -1.35 7.35 -1.35 7.35 L-1.4 7.5 -1.45 7.5 -1.5 7.55 -1.7 7.65 -1.75 7.7 -1.85 7.75 Q-2.0 7.65 -2.0 7.65 L-2.15 7.75 -2.2 7.7 Q-2.2 7.65 -2.25 7.65 L-2.3 7.65 -2.35 7.65 -2.55 7.65 -2.8 7.6 -2.9 7.55 Q-2.9 7.45 -2.65 7.25 L-2.55 7.15 -2.4 7.05 -2.4 6.95 -2.5 6.95 -2.55 6.9 -2.65 6.85 Q-2.65 6.8 -2.5 6.7 L-2.4 6.7 -2.4 6.55 -2.45 6.5 -2.5 6.45 -2.6 6.35 -2.45 6.2 -2.2 6.15 -2.25 5.8 -2.2 5.6 -2.15 5.45 -2.15 5.3 -2.1 5.05 -2.15 4.9 -2.15 4.1 -2.15 4.05 -2.1 3.8 -2.15 3.75 -2.15 3.75 -2.05 3.55 -2.05 3.35 -2.0 3.35 -2.0 3.0 -1.95 2.95 Q-1.9 2.85 -1.9 2.7 L-1.95 2.5 -1.9 2.15 -1.85 1.5 -1.75 0.9 -1.75 0.8 Q-1.7 0.8 -1.7 0.75 L-1.65 0.6 -1.65 0.4 -1.6 0.35 -1.55 -0.3 -1.5 -0.65 -1.4 -0.95 -1.35 -1.3 -1.3 -1.4 -1.25 -1.55 -1.2 -1.7 -1.15 -1.85 -1.15 -1.95 -1.1 -2.1 -0.95 -2.4 -0.85 -2.75 -0.7 -3.1 -0.55 -3.5 -0.3 -3.8 Q-0.15 -4.0 -0.05 -4.25 L0.0 -4.2 0.0 -4.15 M-1.3 6.5 L-1.35 6.7 -1.3 6.9 -1.35 6.9 -1.5 6.9 -1.55 6.85 -1.6 6.9 -1.65 6.9 -1.75 6.75 -1.85 6.7 Q-1.85 6.55 -1.75 6.5 L-1.65 6.5 -1.3 6.5 M-1.3 8.1 L-1.35 8.2 -1.45 8.2 -1.55 8.2 -1.6 8.25 -1.65 8.2 -1.7 8.1 -1.75 8.2 -1.8 8.2 -1.85 8.15 -1.9 8.2 Q-1.95 8.2 -1.95 8.1 -1.95 8.05 -2.0 8.05 L-2.0 8.1 -2.05 8.1 -2.1 8.1 Q-2.15 8.2 -2.15 8.2 L-2.25 8.15 -2.25 8.1 -2.25 8.05 -2.2 7.9 -2.2 7.9 -2.1 7.9 -1.95 7.95 -1.85 7.95 -1.7 7.95 -1.3 8.1 M-1.6 7.1 L-1.55 7.1 -1.5 7.1 -1.45 7.1 -1.45 7.15 -1.5 7.2 -1.5 7.2 -1.55 7.15 -1.6 7.1 M-2.45 6.3 L-2.5 6.35 -2.35 6.55 Q-2.3 6.55 -2.25 6.3 L-2.3 6.25 -2.25 6.2 -2.4 6.25 -2.45 6.3 M-2.5 6.8 L-2.55 6.8 -2.5 6.85 -2.5 6.85 -2.4 6.9 Q-2.35 6.9 -2.3 6.7 L-2.5 6.8 M-2.65 7.35 L-2.8 7.5 Q-2.8 7.55 -2.5 7.6 L-2.45 7.6 -2.35 7.55 -2.3 7.55 Q-2.35 7.2 -2.45 7.2 -2.45 7.2 -2.55 7.25 L-2.65 7.35" fill="#6d5283" fill-rule="evenodd" stroke="none"/>
    <path d="M0.0 -4.15 L0.05 -3.95 0.05 -3.85 0.1 -3.7 0.05 -3.55 -0.05 -3.45 -0.1 -3.55 -0.15 -3.65 -0.15 -3.55 -0.25 -3.4 Q-0.25 -3.25 -0.3 -3.05 -0.4 -2.85 -0.4 -2.65 L-0.35 -2.5 -0.3 -2.35 Q-0.3 -2.3 -0.45 -2.1 L-0.6 -1.95 Q-0.75 -2.05 -0.85 -2.05 L-0.95 -1.95 -1.0 -2.1 Q-1.0 -2.25 -0.9 -2.25 L-0.9 -2.25 -0.85 -2.2 -0.8 -2.3 -0.75 -2.35 -0.7 -2.3 -0.6 -2.35 Q-0.55 -2.35 -0.45 -2.45 -0.5 -2.4 -0.55 -2.5 L-0.65 -2.55 -0.75 -2.5 -0.8 -2.5 -0.85 -2.5 -0.85 -2.65 -0.75 -2.7 -0.7 -2.75 -0.65 -3.0 -0.6 -3.1 Q-0.55 -3.15 -0.55 -3.2 L-0.55 -3.3 -0.45 -3.45 -0.4 -3.45 -0.35 -3.55 Q-0.35 -3.7 -0.2 -3.75 L-0.2 -3.75 -0.15 -3.8 -0.1 -3.95 0.0 -4.15 0.0 -4.15 M-1.4 5.8 L-1.35 6.0 -1.5 5.95 -1.65 5.95 -1.7 5.95 -1.75 6.0 -1.8 5.95 -1.85 5.85 -1.9 5.8 -1.9 5.75 -1.95 5.55 -2.0 5.35 -2.05 5.15 -2.05 4.55 -2.05 3.8 -2.0 3.6 -1.95 3.5 -1.95 3.5 -1.9 3.35 -1.85 3.2 -1.8 3.05 -1.85 2.95 -1.85 2.9 -1.8 2.55 -1.75 2.3 -1.75 2.05 -1.75 2.45 -1.7 2.95 -1.7 3.2 Q-1.7 3.45 -1.9 3.5 L-1.95 4.1 -1.95 4.9 Q-1.9 5.65 -1.75 5.8 L-1.7 5.75 -1.6 5.7 -1.45 5.75 -1.4 5.8 M-1.15 6.4 L-1.25 6.5 -1.3 6.5 -1.65 6.5 -1.75 6.5 Q-1.85 6.55 -1.85 6.7 L-1.75 6.75 -1.65 6.9 -1.6 6.9 -1.55 6.85 -1.5 6.9 -1.35 6.9 -1.3 6.9 -1.3 6.95 -1.2 7.0 -1.1 7.1 -0.95 7.15 Q-0.95 7.3 -1.0 7.35 L-1.1 7.45 -1.15 7.5 -1.3 7.5 Q-1.4 7.5 -1.4 7.75 L-1.4 7.75 -1.35 7.95 -1.3 8.1 -1.7 7.95 -1.85 7.95 -1.95 7.95 -2.1 7.9 -2.2 7.9 -2.35 7.65 -2.3 7.65 -2.25 7.65 Q-2.2 7.65 -2.2 7.7 L-2.15 7.75 -2.0 7.65 Q-2.0 7.65 -1.85 7.75 L-1.75 7.7 -1.7 7.65 -1.5 7.55 -1.45 7.5 -1.4 7.5 -1.35 7.35 Q-1.35 7.35 -1.3 7.35 -1.25 7.35 -1.25 7.25 L-1.25 7.2 -1.35 7.15 -1.4 7.15 Q-1.4 7.1 -1.4 7.1 L-1.45 7.1 -1.5 7.1 -1.55 7.1 -1.6 7.1 -1.65 7.1 -1.65 7.1 -1.65 7.1 -1.7 7.05 Q-1.75 7.0 -1.75 7.0 L-1.85 7.05 -1.95 7.0 Q-2.1 6.85 -2.1 6.7 L-2.1 6.65 -2.05 6.55 -2.0 6.45 -1.95 6.4 -1.85 6.45 -1.8 6.4 -1.8 6.35 -1.65 6.35 -1.6 6.35 -1.6 6.3 -1.5 6.4 -1.45 6.35 -1.35 6.3 -1.3 6.3 -1.3 6.35 -1.15 6.4 M-2.25 5.8 L-2.25 5.35 -2.2 5.1 -2.15 4.5 -2.15 4.05 -2.15 4.1 -2.15 4.9 -2.1 5.05 -2.15 5.3 -2.15 5.45 -2.2 5.6 -2.25 5.8 M-2.15 3.75 L-2.2 3.55 -2.2 3.55 -2.25 3.25 -2.15 3.15 -2.05 2.95 -1.95 2.6 -1.95 2.5 -1.9 2.7 Q-1.9 2.85 -1.95 2.95 L-2.0 3.0 -2.0 3.35 -2.05 3.35 -2.05 3.55 -2.15 3.75 -2.15 3.75 M-2.65 7.35 L-2.55 7.25 Q-2.45 7.2 -2.45 7.2 -2.35 7.2 -2.3 7.55 L-2.35 7.55 -2.45 7.6 -2.5 7.6 Q-2.8 7.55 -2.8 7.5 L-2.65 7.35 M-2.5 6.8 L-2.3 6.7 Q-2.35 6.9 -2.4 6.9 L-2.5 6.85 -2.5 6.85 -2.55 6.8 -2.5 6.8 M-2.45 6.3 L-2.4 6.25 -2.25 6.2 -2.3 6.25 -2.25 6.3 Q-2.3 6.55 -2.35 6.55 L-2.5 6.35 -2.45 6.3" fill="#493764" fill-rule="evenodd" stroke="none"/>
    <path d="M-1.2 6.15 Q-1.15 6.15 -1.1 6.3 L-1.1 6.35 -1.15 6.4 -1.3 6.35 -1.3 6.3 -1.35 6.2 -1.35 6.1 -1.3 6.1 -1.2 6.15 M-1.35 8.2 Q-1.35 8.5 -1.45 8.5 L-1.6 8.5 -1.75 8.6 -1.75 8.65 Q-1.8 8.65 -1.85 8.65 L-2.05 8.65 -2.15 8.55 Q-2.3 8.45 -2.3 8.2 L-2.25 8.1 -2.25 8.15 -2.15 8.2 Q-2.15 8.2 -2.1 8.1 L-2.05 8.1 -2.0 8.1 -2.0 8.05 Q-1.95 8.05 -1.95 8.1 -1.95 8.2 -1.9 8.2 L-1.85 8.15 -1.8 8.2 -1.75 8.2 -1.7 8.1 -1.65 8.2 -1.6 8.25 -1.55 8.2 -1.45 8.2 -1.35 8.2 M-1.75 0.8 Q-1.6 -0.6 -1.45 -1.2 -0.8 -3.8 -0.15 -4.5 L-0.05 -4.25 Q-0.15 -4.0 -0.3 -3.8 L-0.55 -3.5 -0.7 -3.1 -0.85 -2.75 -0.95 -2.4 -1.1 -2.1 -1.15 -1.95 -1.15 -1.85 -1.2 -1.7 -1.25 -1.55 -1.3 -1.4 -1.35 -1.3 -1.4 -0.95 -1.5 -0.65 -1.55 -0.3 -1.6 0.35 -1.65 0.4 -1.65 0.6 -1.7 0.75 Q-1.7 0.8 -1.75 0.8 M-1.95 6.4 L-1.95 6.4 -2.0 6.45 -2.1 6.5 -2.2 6.45 -2.2 6.4 -2.15 6.35 -2.15 6.15 Q-2.05 6.2 -2.05 6.15 L-2.0 6.05 Q-2.0 6.05 -1.95 6.05 L-1.9 6.1 -1.9 6.05 -1.85 6.05 -1.8 6.05 -1.75 6.1 -1.75 6.1 -1.7 6.05 -1.65 6.1 -1.6 6.15 -1.55 6.1 -1.55 6.1 -1.45 6.1 -1.4 6.15 -1.4 6.15 -1.45 6.2 -1.4 6.2 -1.45 6.3 -1.5 6.35 -1.55 6.3 -1.6 6.25 -1.6 6.3 -1.6 6.35 -1.65 6.35 -1.8 6.35 -1.8 6.4 -1.85 6.45 -1.95 6.4 M-1.65 7.1 L-1.65 7.1 -1.6 7.1 -1.55 7.15 -1.5 7.2 -1.5 7.2 -1.45 7.15 -1.45 7.1 -1.4 7.1 Q-1.4 7.1 -1.4 7.15 L-1.35 7.15 -1.3 7.2 -1.35 7.25 -1.35 7.3 -1.4 7.25 -1.45 7.35 -1.45 7.4 -1.55 7.35 -1.55 7.35 -1.6 7.45 -1.65 7.5 -1.7 7.5 -1.7 7.5 -1.75 7.45 -1.8 7.5 -1.85 7.45 -1.85 7.45 -1.9 7.5 -1.95 7.5 -2.0 7.45 -2.0 7.55 -2.1 7.5 -2.15 7.6 -2.2 7.55 -2.25 7.5 -2.3 7.35 -2.3 7.2 -2.25 7.15 -2.2 7.0 -2.15 7.05 -2.1 7.0 -2.05 7.1 -2.0 7.1 -1.95 7.2 -1.9 7.1 -1.8 7.15 -1.75 7.05 -1.75 7.05 -1.7 7.15 -1.65 7.1" fill="#877ba6" fill-rule="evenodd" stroke="none"/>
    <path d="M-0.95 -1.95 L-0.85 -2.05 Q-0.75 -2.05 -0.6 -1.95 L-0.65 -1.9 -0.75 -1.5 Q-0.9 -1.65 -1.0 -1.65 L-1.15 -1.4 -1.25 -1.2 -1.2 -1.1 -1.2 -1.0 Q-1.2 -0.95 -1.25 -0.85 L-1.3 -0.6 Q-1.1 -0.6 -0.95 -0.45 L-1.0 -0.35 -1.05 -0.35 Q-1.15 -0.35 -1.2 -0.45 -1.3 -0.35 -1.35 -0.1 L-1.35 0.2 -1.4 0.35 -1.45 0.55 -1.45 0.75 -1.4 0.95 -1.45 1.0 -1.5 1.2 Q-1.45 1.35 -1.55 1.55 L-1.55 1.9 Q-1.55 2.0 -1.65 2.1 -1.65 2.3 -1.6 2.4 L-1.4 2.5 -1.45 2.85 -1.5 2.85 Q-1.55 2.8 -1.6 2.8 L-1.6 2.9 -1.65 2.95 -1.65 2.95 -1.6 3.05 -1.6 3.4 -1.6 3.55 Q-1.65 3.7 -1.75 3.7 L-1.75 4.45 Q-1.65 4.45 -1.55 4.65 L-1.5 4.75 -1.45 5.35 -1.4 5.8 -1.45 5.75 -1.6 5.7 -1.7 5.75 -1.75 5.8 Q-1.9 5.65 -1.95 4.9 L-1.95 4.1 -1.9 3.5 Q-1.7 3.45 -1.7 3.2 L-1.7 2.95 -1.75 2.45 -1.75 2.05 -1.75 2.0 Q-1.7 1.0 -1.5 -0.15 L-1.3 -1.2 Q-1.15 -1.8 -0.95 -1.95" fill="#1f4f4b" fill-rule="evenodd" stroke="none"/>
    <path d="M-0.75 -1.5 L-0.85 -1.15 -0.95 -0.45 Q-1.1 -0.6 -1.3 -0.6 L-1.25 -0.85 Q-1.2 -0.95 -1.2 -1.0 L-1.2 -1.1 -1.25 -1.2 -1.15 -1.4 -1.0 -1.65 Q-0.9 -1.65 -0.75 -1.5 M-1.0 -0.35 L-1.0 -0.3 -1.2 0.45 -1.4 2.05 -1.4 2.5 -1.6 2.4 Q-1.65 2.3 -1.65 2.1 -1.55 2.0 -1.55 1.9 L-1.55 1.55 Q-1.45 1.35 -1.5 1.2 L-1.45 1.0 -1.4 0.95 -1.45 0.75 -1.45 0.55 -1.4 0.35 -1.35 0.2 -1.35 -0.1 Q-1.3 -0.35 -1.2 -0.45 -1.15 -0.35 -1.05 -0.35 L-1.0 -0.35 M-1.45 2.85 L-1.45 2.95 -1.5 3.55 -1.55 4.05 -1.5 4.6 -1.5 4.75 -1.55 4.65 Q-1.65 4.45 -1.75 4.45 L-1.75 3.7 Q-1.65 3.7 -1.6 3.55 L-1.6 3.4 -1.6 3.05 -1.65 2.95 -1.65 2.95 -1.6 2.9 -1.6 2.8 Q-1.55 2.8 -1.5 2.85 L-1.45 2.85" fill="#2a6458" fill-rule="evenodd" stroke="none"/>
    <path d="M-0.6 -1.95 L-0.45 -2.1 Q-0.3 -2.3 -0.3 -2.35 L-0.35 -2.5 -0.4 -2.65 Q-0.4 -2.85 -0.3 -3.05 -0.25 -3.25 -0.25 -3.4 L-0.15 -3.55 -0.15 -3.65 -0.1 -3.55 -0.05 -3.45 0.05 -3.55 0.1 -3.7 0.05 -3.85 0.05 -3.95 0.0 -4.15 0.0 -4.2 -0.05 -4.25 -0.15 -4.5 Q-0.8 -3.8 -1.45 -1.2 -1.6 -0.6 -1.75 0.8 L-1.75 0.9 -1.85 1.5 -1.9 2.15 -1.95 2.5 -1.95 2.6 -2.05 2.95 -2.15 3.15 -2.25 3.25 -2.2 3.55 -2.2 3.55 -2.15 3.75 -2.1 3.8 -2.15 4.05 -2.15 4.5 -2.2 5.1 -2.25 5.35 -2.25 5.8 -2.2 6.15 -2.45 6.2 -2.6 6.35 -2.5 6.45 -2.45 6.5 -2.4 6.55 -2.4 6.7 -2.5 6.7 Q-2.65 6.8 -2.65 6.85 L-2.55 6.9 -2.5 6.95 -2.4 6.95 -2.4 7.05 -2.55 7.15 -2.65 7.25 Q-2.9 7.45 -2.9 7.55 L-2.8 7.6 -2.55 7.65 -2.35 7.65 -2.2 7.9 -2.2 7.9 -2.25 8.05 -2.25 8.1 -2.3 8.2 Q-2.3 8.45 -2.15 8.55 L-2.05 8.65 -1.85 8.65 Q-1.8 8.65 -1.75 8.65 L-1.75 8.6 -1.6 8.5 -1.45 8.5 Q-1.35 8.5 -1.35 8.2 L-1.3 8.1 -1.35 7.95 -1.4 7.75 -1.4 7.75 Q-1.4 7.5 -1.3 7.5 L-1.15 7.5 -1.1 7.45 -1.0 7.35 Q-0.95 7.3 -0.95 7.15 L-1.1 7.1 -1.2 7.0 -1.3 6.95 -1.3 6.9 -1.35 6.7 -1.3 6.5 -1.25 6.5 -1.15 6.4 -1.1 6.35 -1.1 6.3 Q-1.15 6.15 -1.2 6.15 L-1.35 6.0 -1.35 6.0 -1.4 5.8 -1.45 5.35 -1.5 4.75 -1.5 4.6 -1.55 4.05 -1.5 3.55 -1.45 2.95 -1.45 2.85 -1.4 2.5 -1.4 2.05 -1.2 0.45 -1.0 -0.3 -1.0 -0.35 -0.95 -0.45 -0.85 -1.15 -0.75 -1.5 -0.65 -1.9 -0.6 -1.95 Z" fill="none" stroke="#000000" stroke-linecap="round" stroke-linejoin="round" stroke-opacity="0.4509804" stroke-width="0.1"/>
  </g>
</svg>
