<?xml version="1.0" encoding="UTF-8" standalone="no"?>
<svg xmlns:xlink="http://www.w3.org/1999/xlink" height="24.75px" width="8.05px" xmlns="http://www.w3.org/2000/svg">
  <g transform="matrix(1.0, 0.0, 0.0, 1.0, 3.6, 12.25)">
    <path d="M-0.75 9.4 L-0.7 9.4 -0.7 9.4 -0.75 9.4 M-1.6 -10.2 L-1.6 -10.2 -1.6 -10.2 M1.8 8.05 Q1.85 8.0 1.95 8.0 L2.1 8.0 2.15 8.1 2.5 8.1 2.6 8.1 2.55 8.1 Q2.7 8.0 2.95 8.0 3.25 7.95 3.5 8.25 3.65 8.45 4.05 8.55 4.15 8.6 4.2 8.65 L4.2 8.75 4.1 8.85 3.95 8.85 Q3.3 8.65 3.1 8.4 L3.15 8.4 2.95 8.25 Q2.95 8.25 2.9 8.3 2.75 8.4 2.5 8.4 L2.4 8.4 Q2.65 8.55 2.65 8.75 2.65 8.85 2.55 8.95 L2.45 9.0 2.45 9.05 2.75 9.05 Q3.25 9.05 3.7 9.6 4.0 9.95 4.0 10.2 L3.9 10.3 3.8 10.35 3.65 10.3 Q3.55 10.25 3.55 10.2 3.55 10.0 3.35 9.7 3.05 9.35 2.8 9.35 L2.3 9.3 2.0 9.1 Q1.9 9.05 1.9 8.95 L2.0 8.85 2.2 8.75 2.05 8.6 Q1.75 8.45 1.6 8.35 L1.55 8.25 Q1.55 8.2 1.6 8.15 L1.7 8.1 1.8 8.05 M0.25 -5.15 Q0.2 -5.3 0.2 -5.4 L-0.2 -5.75 Q-0.4 -5.95 -0.6 -6.05 -0.75 -5.9 -1.1 -5.85 L-1.85 -5.75 -1.8 -5.65 -1.85 -5.55 -1.9 -5.55 -2.1 -5.4 -1.7 -4.75 Q-1.4 -4.2 -1.15 -3.9 L-1.1 -3.85 -0.55 -3.6 -0.35 -3.75 Q-0.35 -4.05 0.0 -4.45 0.2 -4.75 0.25 -4.95 L0.25 -5.15 M0.15 -7.45 L0.05 -7.75 Q-0.1 -7.75 -0.1 -7.8 L-0.75 -8.1 -1.0 -8.0 -1.15 -8.0 Q-1.25 -8.0 -1.25 -8.05 -1.3 -8.1 -1.25 -8.15 L-1.15 -8.25 Q-1.4 -8.4 -1.7 -8.6 L-2.35 -8.15 Q-2.35 -8.1 -2.2 -7.95 L-2.0 -7.7 -1.8 -7.6 -1.75 -7.6 Q-1.2 -7.35 -1.25 -7.2 -1.25 -7.1 -1.35 -7.05 L-1.15 -7.0 -0.2 -7.2 Q0.0 -7.2 0.15 -7.45 M2.3 -8.1 Q2.75 -8.4 2.95 -8.35 L3.4 -8.25 3.75 -8.05 Q3.75 -8.0 3.7 -7.9 L3.6 -7.85 3.45 -7.85 Q3.3 -7.9 3.15 -8.0 L2.9 -8.05 Q2.8 -8.05 2.6 -7.9 2.15 -7.6 1.95 -7.65 L1.85 -7.65 1.8 -7.65 Q1.6 -7.85 1.4 -7.85 1.35 -7.7 1.05 -7.7 0.75 -7.7 0.55 -7.9 L0.3 -8.1 0.35 -7.95 0.35 -8.0 0.2 -8.0 0.2 -8.0 -0.15 -8.15 Q-0.15 -8.25 0.35 -8.4 L0.35 -8.4 0.7 -8.45 0.7 -8.45 Q0.9 -8.45 1.0 -8.55 1.05 -8.65 1.0 -8.8 L0.95 -8.85 1.0 -8.95 1.05 -9.05 1.2 -9.05 1.35 -9.05 1.4 -8.95 1.4 -8.9 Q1.5 -8.6 1.35 -8.45 1.2 -8.25 0.8 -8.15 L1.05 -8.0 Q1.1 -8.15 1.4 -8.15 1.7 -8.15 2.0 -7.95 L2.3 -8.1 M1.4 -12.25 L1.45 -12.25 1.55 -12.15 1.95 -11.0 1.95 -10.8 2.15 -11.0 Q2.8 -11.55 3.05 -11.95 3.05 -12.0 3.15 -12.0 L3.3 -12.0 3.4 -11.95 3.4 -11.85 Q3.2 -11.45 2.5 -10.8 L2.5 -10.8 2.05 -10.4 2.05 -10.25 2.0 -10.1 2.0 -9.95 1.95 -9.85 1.8 -9.8 Q1.7 -9.8 1.65 -9.85 L1.25 -9.6 Q0.55 -9.3 -0.05 -9.25 L-0.05 -8.9 0.0 -8.9 Q0.1 -8.8 0.1 -8.6 0.1 -8.35 -0.25 -8.25 L-0.15 -8.15 Q-0.15 -8.05 0.0 -7.8 0.0 -7.75 0.1 -7.75 0.2 -7.7 0.25 -7.75 L0.4 -7.8 0.4 -7.85 Q0.55 -7.65 0.55 -7.45 L0.55 -7.45 Q0.35 -6.9 -0.25 -6.95 L-1.05 -6.7 -0.55 -6.45 -0.5 -6.4 -0.5 -6.35 Q-0.1 -6.2 0.15 -5.9 0.4 -5.65 0.55 -5.55 L0.6 -5.55 0.65 -5.5 Q1.55 -5.5 1.55 -5.8 L1.6 -5.9 1.5 -6.1 Q1.3 -6.35 1.3 -6.5 1.3 -6.55 1.6 -6.8 L1.85 -7.05 1.95 -7.05 2.05 -7.05 2.15 -7.05 2.4 -6.8 3.0 -7.15 3.15 -7.2 3.3 -7.15 3.35 -7.05 3.3 -6.95 2.5 -6.5 2.35 -6.5 2.2 -6.55 2.0 -6.7 1.9 -6.6 1.9 -6.6 1.75 -6.5 Q1.75 -6.4 1.85 -6.2 L1.95 -6.1 2.3 -6.2 2.35 -6.2 Q2.5 -6.2 2.8 -6.05 L3.3 -6.0 3.45 -5.95 3.5 -5.85 3.4 -5.75 3.25 -5.7 Q2.8 -5.7 2.55 -5.8 L2.55 -5.85 2.35 -5.9 2.15 -5.85 2.2 -5.75 2.15 -5.65 2.0 -5.65 1.95 -5.65 Q1.75 -5.2 0.65 -5.2 L0.65 -4.95 Q0.65 -4.7 0.35 -4.3 0.05 -4.0 0.05 -3.75 0.05 -3.6 -0.35 -3.4 L-0.35 -3.35 -0.9 -3.1 Q-1.45 -2.9 -1.7 -2.7 L-1.4 -2.6 -1.35 -2.6 -1.2 -2.55 Q-1.15 -2.55 -1.1 -2.5 L-1.1 -2.5 -0.8 -2.35 -0.75 -2.3 -0.7 -2.2 -0.75 -2.15 -0.8 -2.1 -0.9 -2.0 -1.05 -1.95 -1.15 -2.0 Q-1.25 -2.05 -1.25 -2.1 L-1.2 -2.2 -1.25 -2.2 -1.35 -1.9 Q-1.35 -1.85 -1.4 -1.75 L-1.5 -1.75 -1.25 -1.75 Q-0.9 -1.75 -0.8 -1.55 -0.7 -1.4 -0.8 -1.15 L-0.8 -1.1 Q-0.75 -0.95 -0.9 -0.7 L-1.0 -0.5 Q-0.95 -0.35 -0.5 -0.3 L-0.2 -0.25 Q0.25 -0.65 0.5 -1.15 L0.5 -1.15 1.25 -2.2 0.95 -2.3 Q0.55 -2.35 0.6 -2.75 0.6 -2.85 0.85 -3.05 L1.1 -3.2 Q1.1 -3.3 1.2 -3.3 1.3 -3.35 1.35 -3.3 L1.45 -3.2 1.45 -3.1 1.15 -2.85 1.15 -2.85 1.0 -2.75 Q1.0 -2.6 1.05 -2.55 L1.05 -2.55 1.2 -2.55 1.25 -2.6 2.35 -2.7 2.35 -2.7 Q2.6 -2.75 2.65 -3.1 2.65 -3.15 2.7 -3.2 L2.85 -3.25 3.0 -3.2 Q3.05 -3.15 3.05 -3.1 3.0 -2.45 2.35 -2.4 L2.3 -2.4 1.6 -2.35 1.7 -2.35 1.7 -2.2 0.95 -1.15 0.9 -1.0 0.9 -1.05 Q0.7 -0.65 0.35 -0.3 L0.45 -0.35 0.55 -0.35 0.65 -0.35 0.75 -0.35 0.8 -0.3 0.9 -0.25 1.0 -0.15 1.05 -0.15 1.05 -0.1 1.1 -0.05 1.15 -0.1 1.15 -0.1 Q1.15 -0.15 1.2 -0.2 L1.35 -0.25 1.45 -0.25 1.6 -0.2 1.75 -0.25 Q2.1 -0.25 2.45 -0.05 2.75 0.1 2.95 0.15 3.0 0.15 3.05 0.2 L3.1 0.3 3.05 0.4 3.0 0.4 2.9 0.4 2.85 0.4 Q2.6 0.35 2.25 0.15 2.05 0.05 1.8 0.05 1.85 0.2 1.7 0.3 L1.65 0.3 1.65 0.35 1.9 0.55 1.85 0.55 2.7 1.05 Q3.95 1.7 3.85 1.95 L3.8 2.05 3.65 2.1 3.5 2.0 3.45 1.9 Q3.4 1.75 2.45 1.25 1.75 0.9 1.45 0.65 1.2 0.45 1.2 0.35 1.2 0.3 1.25 0.25 L1.0 0.25 0.85 0.25 0.85 0.2 0.75 0.55 0.75 0.75 0.7 1.35 Q0.55 2.35 -0.75 2.4 L-0.75 2.45 -0.75 2.5 -0.15 2.95 -0.25 3.0 -0.15 3.05 Q0.7 3.75 0.65 3.9 0.7 4.05 0.45 4.4 0.3 4.6 0.3 4.7 0.35 4.75 0.35 4.8 L0.3 4.9 0.1 4.95 Q0.0 4.95 -0.05 4.85 L-0.15 4.7 Q-0.15 4.6 0.1 4.25 L0.25 3.9 0.1 3.75 -0.1 3.65 -0.1 3.65 -0.35 3.65 -0.75 3.75 -0.7 3.8 Q-0.7 3.85 -0.75 3.9 L-0.9 3.95 -1.05 3.9 -1.1 3.9 -1.25 4.0 -1.25 4.0 -1.4 4.15 -1.45 4.2 Q-1.4 4.2 -0.3 5.05 L0.1 5.4 1.2 5.4 1.3 5.3 1.3 5.25 Q1.5 5.1 1.45 4.95 L1.3 4.8 1.0 4.45 Q0.95 4.2 1.6 3.7 L2.35 3.15 2.65 3.0 Q2.6 2.8 2.45 2.7 L2.25 2.6 2.3 2.6 Q1.8 2.3 1.6 2.05 L1.55 1.95 Q1.55 1.9 1.6 1.9 L1.8 1.85 1.9 1.95 Q2.15 2.2 2.75 2.45 L2.75 2.5 2.8 2.5 2.75 2.5 Q2.9 2.6 3.0 2.75 L3.45 2.4 3.5 2.4 3.7 2.2 Q3.7 2.1 3.8 2.1 L3.95 2.1 4.1 2.15 4.15 2.25 4.15 2.3 Q4.0 2.45 3.05 3.1 L3.05 3.2 2.95 3.25 2.8 3.3 2.65 3.35 Q2.35 3.55 2.15 3.75 L2.85 3.8 Q3.45 3.85 3.85 4.05 L3.95 4.15 3.9 4.25 3.75 4.3 3.6 4.3 Q3.3 4.15 2.85 4.1 L1.9 3.95 1.85 3.95 Q1.45 4.3 1.4 4.45 L1.6 4.65 Q1.9 4.9 1.85 4.95 1.9 5.2 1.65 5.45 L1.5 5.6 1.5 5.9 1.6 5.9 Q1.85 5.8 2.05 5.8 2.25 5.8 2.55 5.95 L2.8 6.05 Q3.15 6.25 3.35 6.25 L4.2 6.0 Q4.25 5.95 4.35 6.0 4.4 6.0 4.45 6.05 L4.45 6.15 4.4 6.25 Q3.5 6.55 3.35 6.55 3.2 6.55 2.9 6.45 L3.2 6.95 Q3.5 7.3 4.15 7.3 4.25 7.3 4.3 7.4 L4.35 7.5 4.3 7.55 4.15 7.6 Q3.25 7.55 2.8 7.05 L2.35 6.2 2.05 6.1 Q1.95 6.1 1.75 6.15 L1.35 6.25 1.2 6.2 1.1 6.1 1.1 5.8 1.0 5.75 1.0 5.65 0.4 5.65 Q0.9 6.15 0.9 6.3 0.95 6.45 0.6 6.65 L1.3 7.15 1.35 7.2 1.35 7.3 1.3 7.4 1.45 7.45 1.55 7.55 1.45 7.65 1.3 7.7 1.35 8.05 1.3 8.15 1.2 8.2 1.15 8.2 1.1 8.2 1.35 8.3 1.3 8.35 1.15 8.4 Q1.15 9.25 0.8 9.45 0.55 9.65 0.35 9.9 0.6 9.95 0.8 10.1 L1.2 10.2 1.3 10.2 1.4 10.15 Q1.45 10.1 1.5 10.05 L1.6 10.05 1.7 10.1 1.9 10.25 1.8 10.1 1.65 9.85 Q1.65 9.8 1.7 9.75 1.8 9.7 1.85 9.7 1.95 9.7 2.0 9.75 L2.05 9.85 2.15 9.95 Q2.3 10.1 2.3 10.25 L2.3 10.3 2.2 10.45 2.8 10.75 Q3.2 10.9 3.65 10.85 L3.85 10.9 3.95 10.95 3.9 11.05 3.8 11.15 Q3.15 11.2 2.55 11.0 L2.5 10.95 Q2.55 11.0 2.55 11.05 L2.55 11.15 Q2.25 11.35 2.3 11.6 L2.4 11.85 2.55 12.05 2.65 12.2 2.6 12.3 2.45 12.35 2.3 12.35 2.2 12.25 2.15 12.15 2.2 12.15 2.05 11.95 Q1.85 11.7 1.85 11.6 1.85 11.3 2.1 11.1 L1.85 10.9 1.75 10.9 Q1.65 10.9 1.6 10.85 1.6 10.8 1.6 10.75 L1.75 10.5 1.6 10.4 1.2 10.5 Q0.9 10.5 0.55 10.3 L0.2 10.15 Q0.15 10.3 0.1 10.45 L0.0 10.55 0.0 10.55 0.3 10.9 0.35 11.0 Q0.35 11.15 0.25 11.25 L0.2 11.3 0.15 11.4 Q0.2 11.6 0.3 11.7 0.6 11.85 0.6 12.1 L0.6 12.15 0.3 12.45 0.15 12.5 0.0 12.45 -0.05 12.4 Q-0.1 12.35 -0.05 12.3 L0.2 12.05 0.05 11.9 Q-0.25 11.75 -0.25 11.4 -0.25 11.25 -0.15 11.1 L-0.05 11.05 -0.35 10.7 Q-0.75 10.9 -0.95 11.1 L-1.4 11.8 -1.55 11.85 -1.7 11.85 -1.8 11.75 Q-1.85 11.7 -1.8 11.65 L-1.3 10.95 Q-1.05 10.65 -0.55 10.45 L-0.6 10.3 Q-0.65 10.25 -0.6 10.2 -0.6 10.15 -0.5 10.15 L-0.35 10.15 -0.25 10.25 -0.15 10.0 -0.2 10.0 -0.25 9.9 -0.15 9.8 0.0 9.75 Q0.2 9.45 0.5 9.3 0.75 9.05 0.7 8.2 L0.75 8.2 0.7 8.1 Q0.65 8.05 0.7 8.0 0.6 7.85 0.6 7.7 0.6 7.65 0.6 7.65 L0.95 7.3 0.25 6.85 Q-0.25 7.2 0.0 7.65 L0.05 7.75 0.0 7.8 -0.15 7.85 -0.25 7.85 -0.25 7.95 Q-0.25 8.05 -0.45 8.4 L-0.65 8.7 Q-0.6 8.85 -0.35 9.05 -0.3 9.05 -0.3 9.1 L-0.35 9.25 -0.65 9.45 -0.65 9.45 Q-0.6 9.55 -0.65 9.6 L-0.75 9.65 -0.9 9.65 Q-1.1 9.6 -1.1 9.35 L-1.1 9.35 Q-1.1 9.3 -1.05 9.3 L-0.8 9.1 Q-1.05 8.9 -1.05 8.7 -1.05 8.6 -0.85 8.3 L-0.65 7.95 -1.25 8.05 Q-1.5 8.05 -1.65 7.9 L-1.75 7.9 -1.85 7.9 -1.85 8.15 -1.75 8.15 -1.7 8.25 Q-1.7 8.3 -1.75 8.35 L-1.9 8.4 -2.0 8.4 -2.15 8.35 -2.25 8.25 -2.25 7.85 -2.2 7.75 -2.1 7.7 -2.1 7.7 -1.75 7.6 Q-1.5 7.6 -1.35 7.75 L-1.25 7.75 -0.8 7.65 -0.8 7.6 -0.75 7.5 -0.6 7.45 Q-0.55 7.45 -0.45 7.5 -0.65 7.0 -0.1 6.65 L-0.05 6.65 -0.15 6.55 -0.05 6.45 Q0.0 6.4 0.05 6.4 0.15 6.4 0.2 6.45 L0.25 6.5 0.5 6.3 Q0.45 6.1 -0.6 5.2 L-0.65 5.2 -1.7 4.4 Q-1.75 4.45 -1.75 4.5 L-1.8 4.6 -1.95 4.65 -2.05 4.65 -2.2 4.6 -2.25 4.5 Q-2.25 4.45 -2.2 4.45 -2.2 4.4 -2.15 4.4 -2.1 4.2 -1.85 4.05 L-1.9 3.95 -2.0 3.9 Q-2.0 3.8 -1.9 3.8 -1.85 3.75 -1.75 3.75 L-1.65 3.75 -1.6 3.75 -1.5 3.8 -1.4 3.7 Q-1.75 3.5 -1.95 3.45 -2.0 3.6 -2.3 3.6 -2.7 3.6 -3.0 3.4 L-3.05 3.4 -2.85 3.35 -2.9 3.3 Q-2.95 3.25 -2.85 3.2 L-2.75 3.15 -2.35 3.3 -2.2 3.25 Q-2.1 3.15 -1.9 3.15 L-1.65 3.2 -1.75 3.2 Q-1.45 3.3 -1.05 3.55 -0.7 3.35 -0.4 3.35 L-0.3 3.35 -0.45 3.25 -0.45 3.25 -0.7 3.05 -0.6 3.0 Q-1.2 2.6 -1.15 2.5 -1.2 2.35 -1.15 2.25 L-1.1 2.2 Q-1.05 2.15 -0.95 2.15 0.15 2.1 0.3 1.3 L0.3 0.8 0.35 0.5 0.45 0.05 0.15 0.05 0.0 0.05 -0.05 0.1 -0.15 0.15 -0.35 0.1 -0.4 0.0 -0.6 0.0 -0.6 0.0 Q-1.4 -0.15 -1.4 -0.5 -1.45 -0.55 -1.3 -0.8 L-1.3 -0.8 Q-1.2 -1.0 -1.2 -1.15 L-1.2 -1.15 Q-1.15 -1.35 -1.2 -1.4 L-1.3 -1.45 Q-1.65 -1.45 -1.9 -1.55 -1.85 -1.45 -1.85 -1.35 -1.85 -1.25 -1.9 -1.15 L-2.1 -0.9 -2.1 -0.85 -2.3 -0.65 -2.25 -0.55 -2.25 -0.5 -2.15 -0.35 -2.2 -0.25 -2.35 -0.25 -2.5 -0.25 -2.55 -0.35 -2.6 -0.4 -2.7 -0.65 Q-2.75 -0.8 -2.45 -1.05 L-2.45 -1.05 -2.4 -1.15 Q-2.25 -1.25 -2.25 -1.35 -2.25 -1.4 -2.35 -1.5 L-2.35 -1.5 -2.4 -1.6 -2.45 -1.55 -2.95 -1.15 -3.05 -1.05 Q-3.1 -1.05 -3.15 -1.0 L-3.3 -1.05 Q-3.4 -1.1 -3.4 -1.15 L-3.45 -1.15 -3.35 -1.25 -2.7 -1.75 -2.5 -1.85 -2.5 -1.95 -2.45 -2.05 -2.3 -2.1 -2.2 -2.05 -2.0 -2.0 -1.75 -2.0 Q-1.7 -2.2 -1.6 -2.35 L-1.65 -2.4 -1.65 -2.4 -2.05 -2.45 -2.25 -2.55 -2.25 -2.65 Q-2.1 -2.95 -1.1 -3.35 L-0.9 -3.45 -1.35 -3.6 -1.85 -3.25 Q-2.1 -3.1 -2.45 -3.1 -2.75 -3.1 -2.75 -3.25 -2.95 -3.25 -3.0 -3.15 -3.15 -3.05 -3.1 -2.85 -3.05 -2.8 -3.1 -2.75 -3.15 -2.7 -3.25 -2.7 L-3.4 -2.7 Q-3.5 -2.75 -3.5 -2.8 -3.6 -3.1 -3.35 -3.35 -3.1 -3.55 -2.7 -3.55 -2.45 -3.55 -2.35 -3.4 L-2.1 -3.45 -2.1 -3.45 -1.6 -3.8 -1.6 -3.85 -2.1 -4.65 -2.45 -5.25 -2.6 -5.15 -2.6 -5.05 Q-2.6 -4.9 -2.7 -4.8 L-2.8 -4.8 -2.85 -4.75 -2.95 -4.75 -3.05 -4.75 Q-3.15 -4.75 -3.2 -4.8 L-3.25 -4.9 -3.15 -5.0 -3.05 -5.05 -3.0 -5.05 -3.0 -5.05 -2.95 -5.15 -3.0 -5.2 -3.0 -5.3 -2.85 -5.35 -2.6 -5.5 -2.7 -5.6 Q-2.75 -5.65 -2.75 -5.75 L-2.65 -5.8 -2.5 -5.85 -2.35 -5.8 -2.25 -5.65 -2.25 -5.65 -2.3 -5.85 -2.3 -5.95 -2.2 -6.05 -2.05 -6.05 -1.25 -6.1 -1.25 -6.1 -1.0 -6.2 -1.25 -6.2 -1.35 -6.2 -1.45 -6.15 -1.6 -6.15 Q-1.7 -6.15 -1.75 -6.2 L-1.75 -6.3 -1.65 -6.4 -1.55 -6.45 -1.5 -6.45 -1.3 -6.5 Q-1.85 -6.8 -1.9 -6.95 -2.0 -6.95 -2.0 -7.05 L-2.0 -7.1 Q-1.95 -7.2 -1.85 -7.2 L-1.75 -7.2 -1.75 -7.2 -2.1 -7.4 -2.2 -7.35 Q-2.7 -7.35 -3.3 -7.15 L-3.45 -7.15 Q-3.55 -7.15 -3.55 -7.2 -3.6 -7.25 -3.55 -7.3 L-3.45 -7.4 -2.5 -7.6 -2.75 -7.75 -2.8 -7.85 -2.7 -7.95 Q-2.8 -8.1 -2.75 -8.15 -2.8 -8.25 -1.8 -8.9 L-1.7 -8.95 -1.6 -8.95 -1.5 -8.9 Q-1.1 -8.6 -0.75 -8.4 L-0.75 -8.4 -0.7 -8.4 -0.55 -8.45 Q-0.35 -8.5 -0.3 -8.6 L-0.3 -8.65 -0.45 -8.7 Q-0.5 -8.75 -0.5 -8.8 L-0.5 -8.95 Q-0.7 -9.15 -1.4 -9.35 L-1.4 -9.4 -1.45 -9.35 Q-1.5 -9.3 -1.55 -9.3 L-1.7 -9.3 Q-1.8 -9.35 -1.85 -9.4 L-1.8 -9.5 -1.8 -9.55 -2.55 -9.65 Q-3.15 -9.65 -3.3 -10.0 L-3.3 -10.0 Q-3.35 -10.1 -3.35 -10.35 L-3.25 -10.45 -3.1 -10.5 -2.95 -10.45 -2.9 -10.35 -2.9 -10.1 Q-2.8 -9.95 -2.55 -9.95 L-2.35 -9.95 -2.25 -10.05 -2.1 -10.15 -2.0 -10.2 -2.0 -10.25 -1.95 -10.3 -2.05 -10.35 Q-2.4 -10.4 -2.35 -10.75 -2.35 -11.05 -2.0 -11.2 L-1.35 -11.45 -1.15 -11.45 -1.1 -11.35 Q-1.05 -11.3 -1.1 -11.25 -1.1 -11.2 -1.2 -11.2 L-1.8 -11.0 Q-1.95 -10.9 -1.95 -10.75 -1.95 -10.65 -1.85 -10.6 L-1.7 -10.55 -1.65 -10.55 -1.55 -10.6 -1.4 -10.65 Q-1.3 -10.65 -1.25 -10.6 -1.2 -10.55 -1.2 -10.5 L-1.25 -10.4 Q-1.05 -10.2 -1.05 -10.1 L-1.0 -10.1 -0.9 -10.15 -0.75 -10.15 -0.65 -10.05 Q-0.6 -10.0 -0.65 -9.95 L-0.65 -9.95 -0.65 -9.85 -0.7 -9.75 -0.8 -9.7 -0.85 -9.6 -0.9 -9.55 Q-0.65 -9.45 -0.45 -9.35 L-0.45 -9.35 -0.4 -9.45 -0.25 -9.5 Q0.3 -9.55 1.0 -9.85 1.35 -10.0 1.55 -10.15 1.5 -10.25 1.5 -10.35 L1.55 -10.45 1.6 -10.5 1.5 -10.95 Q1.35 -11.5 1.1 -12.05 L1.15 -12.15 1.2 -12.2 1.25 -12.25 1.4 -12.25" fill="#ffffff" fill-opacity="0.0" fill-rule="evenodd" stroke="none"/>
  </g>
</svg>
