<?xml version="1.0" encoding="UTF-8" standalone="no"?>
<svg xmlns:xlink="http://www.w3.org/1999/xlink" height="4.4px" width="4.4px" xmlns="http://www.w3.org/2000/svg">
  <g transform="matrix(1.0, 0.0, 0.0, 1.0, 2.2, 2.2)">
    <path d="M1.5 -2.2 L1.6 -2.2 1.75 -2.05 1.9 -1.95 2.05 -1.65 Q2.1 -1.4 2.2 -1.35 L2.2 -1.25 Q2.1 -1.25 2.05 -1.3 L1.95 -1.4 Q2.0 -1.45 1.9 -1.55 L1.8 -1.65 1.65 -1.7 Q1.6 -1.75 1.6 -1.8 L1.5 -2.0 Q1.5 -2.1 1.5 -2.2" fill="#7e2c13" fill-rule="evenodd" stroke="none"/>
    <path d="M1.6 -2.2 L1.95 -2.2 2.2 -1.9 2.2 -1.35 Q2.1 -1.4 2.05 -1.65 L1.9 -1.95 1.75 -2.05 1.6 -2.2" fill="#a23718" fill-rule="evenodd" stroke="none"/>
    <path d="M0.5 -2.2 L1.4 -2.2 Q1.35 -2.1 1.35 -2.05 L1.4 -1.95 1.5 -1.85 Q1.5 -1.8 1.45 -1.75 1.45 -1.65 1.5 -1.6 L1.6 -1.5 Q1.7 -1.5 1.7 -1.4 L1.7 -1.3 1.75 -1.35 1.8 -1.5 1.95 -1.35 2.05 -1.2 2.0 -1.1 1.95 -0.95 1.85 -0.9 1.8 -0.85 1.95 -0.85 1.95 -0.75 1.9 -0.7 1.95 -0.6 2.0 -0.55 2.0 -0.4 2.0 -0.35 1.95 -0.3 Q1.9 -0.15 1.8 -0.1 L1.75 -0.1 1.7 -0.2 1.65 -0.2 1.6 -0.1 1.55 0.0 1.5 -0.15 Q1.5 -0.1 1.45 -0.15 1.35 -0.15 1.3 -0.15 L1.25 -0.2 1.15 -0.2 Q1.05 -0.25 1.05 -0.4 L1.1 -0.55 1.1 -0.7 Q1.0 -0.65 1.0 -0.6 L1.0 -0.45 0.9 -0.45 Q0.85 -0.4 0.9 -0.35 L0.75 -0.3 Q0.7 -0.3 0.75 -0.35 L0.75 -0.4 Q0.7 -0.45 0.75 -0.55 0.85 -0.65 0.8 -0.7 L0.85 -0.9 0.85 -1.15 0.95 -1.2 0.95 -1.15 1.0 -1.1 1.0 -1.2 0.95 -1.25 Q1.1 -1.1 1.3 -1.3 1.3 -1.35 1.3 -1.45 1.3 -1.55 1.25 -1.6 L1.15 -1.65 1.1 -1.6 1.05 -1.45 Q1.0 -1.35 0.9 -1.35 L0.8 -1.5 Q0.75 -1.6 0.75 -1.7 0.65 -1.65 0.6 -1.75 L0.5 -1.85 0.4 -1.9 Q0.3 -1.9 0.3 -2.0 L0.35 -2.05 0.4 -2.05 0.5 -2.1 0.5 -2.2 M1.4 -0.4 L1.5 -0.4 Q1.55 -0.45 1.55 -0.45 L1.7 -0.45 Q1.75 -0.5 1.7 -0.55 L1.65 -0.6 1.6 -0.6 Q1.6 -0.55 1.5 -0.6 1.4 -0.6 1.3 -0.5 1.15 -0.45 1.15 -0.35 L1.3 -0.3 1.35 -0.35 1.4 -0.4" fill="#3d150b" fill-rule="evenodd" stroke="none"/>
    <path d="M2.2 -1.25 L2.2 -1.0 Q2.1 -1.0 2.05 -0.85 L1.95 -0.7 2.0 -0.65 2.0 -0.55 1.95 -0.6 1.9 -0.7 1.95 -0.75 1.95 -0.85 1.8 -0.85 1.85 -0.9 1.95 -0.95 2.0 -1.1 2.05 -1.2 1.95 -1.35 1.8 -1.5 1.75 -1.35 1.7 -1.3 1.7 -1.4 Q1.7 -1.5 1.6 -1.5 L1.5 -1.6 Q1.45 -1.65 1.45 -1.75 1.5 -1.8 1.5 -1.85 L1.4 -1.95 1.35 -2.05 Q1.35 -2.1 1.4 -2.2 L1.5 -2.2 Q1.5 -2.1 1.5 -2.0 L1.6 -1.8 Q1.6 -1.75 1.65 -1.7 L1.8 -1.65 1.9 -1.55 Q2.0 -1.45 1.95 -1.4 L2.05 -1.3 Q2.1 -1.25 2.2 -1.25" fill="#5a1f0f" fill-rule="evenodd" stroke="none"/>
    <path d="M0.9 -1.35 Q1.0 -1.35 1.05 -1.45 L1.1 -1.6 1.15 -1.65 1.25 -1.6 Q1.3 -1.55 1.3 -1.45 1.3 -1.35 1.3 -1.3 1.1 -1.1 0.95 -1.25 L1.0 -1.2 1.0 -1.1 0.95 -1.15 0.95 -1.2 0.85 -1.15 0.75 -1.15 Q0.7 -1.2 0.8 -1.3 L0.85 -1.35 0.9 -1.35 M1.4 -0.4 L1.5 -0.5 1.5 -0.6 Q1.6 -0.55 1.6 -0.6 L1.65 -0.6 1.7 -0.55 Q1.75 -0.5 1.7 -0.45 L1.55 -0.45 Q1.55 -0.45 1.5 -0.4 L1.4 -0.4" fill="#631e0e" fill-rule="evenodd" stroke="none"/>
    <path d="M0.05 -2.2 L0.5 -2.2 0.5 -2.1 0.4 -2.05 0.35 -2.05 0.3 -2.0 Q0.3 -1.9 0.4 -1.9 L0.5 -1.85 0.6 -1.75 Q0.65 -1.65 0.75 -1.7 0.75 -1.6 0.8 -1.5 L0.9 -1.35 0.85 -1.35 0.8 -1.3 Q0.7 -1.2 0.75 -1.15 L0.85 -1.15 0.85 -0.9 0.8 -0.7 Q0.7 -0.75 0.65 -0.9 L0.6 -1.15 0.55 -1.15 0.5 -1.05 0.45 -1.0 Q0.4 -0.95 0.45 -0.95 L0.55 -0.85 Q0.6 -0.75 0.5 -0.8 L0.5 -0.85 0.45 -0.85 0.4 -0.9 0.3 -0.95 0.3 -0.95 0.25 -0.95 0.15 -1.0 0.0 -1.0 Q0.05 -1.0 0.1 -1.05 L0.2 -1.15 0.25 -1.15 0.3 -1.2 0.25 -1.25 0.15 -1.25 0.1 -1.3 0.0 -1.3 Q0.0 -1.2 -0.1 -1.2 L-0.2 -1.15 -0.35 -1.25 -0.5 -1.25 Q-0.55 -1.3 -0.55 -1.3 -0.6 -1.25 -0.65 -1.25 L-0.7 -1.3 -0.75 -1.35 -0.7 -1.35 -0.65 -1.35 Q-0.55 -1.35 -0.55 -1.4 L-0.45 -1.4 -0.25 -1.45 -0.05 -1.5 Q0.05 -1.55 -0.05 -1.65 L-0.25 -1.6 Q-0.35 -1.6 -0.35 -1.75 L-0.1 -1.8 Q0.05 -1.85 0.15 -1.95 -0.05 -2.05 0.05 -2.2" fill="#4a1d11" fill-rule="evenodd" stroke="none"/>
    <path d="M-1.65 -2.2 L0.05 -2.2 Q-0.05 -2.05 0.15 -1.95 0.05 -1.85 -0.1 -1.8 L-0.35 -1.75 Q-0.35 -1.6 -0.25 -1.6 L-0.05 -1.65 Q0.05 -1.55 -0.05 -1.5 L-0.25 -1.45 -0.45 -1.4 -0.55 -1.4 Q-0.5 -1.5 -0.6 -1.55 L-0.7 -1.6 -0.7 -1.65 -0.75 -1.7 Q-0.85 -1.75 -0.95 -1.8 L-1.1 -1.85 -1.2 -1.85 -1.35 -1.8 Q-1.45 -1.8 -1.5 -1.9 L-1.5 -2.0 -1.6 -2.05 -1.65 -2.1 -1.65 -2.2" fill="#542314" fill-rule="evenodd" stroke="none"/>
    <path d="M-0.5 -1.25 L-0.35 -1.25 -0.2 -1.15 -0.1 -1.2 Q0.0 -1.2 0.0 -1.3 L0.1 -1.3 0.15 -1.25 0.25 -1.25 0.3 -1.2 0.25 -1.15 0.2 -1.15 0.1 -1.05 Q0.05 -1.0 0.0 -1.0 L-0.1 -0.95 -0.2 -0.9 Q-0.2 -1.0 -0.3 -1.0 L-0.5 -1.05 -0.6 -1.15 -0.5 -1.25" fill="#622616" fill-rule="evenodd" stroke="none"/>
    <path d="M0.8 -0.7 Q0.85 -0.65 0.75 -0.55 0.7 -0.45 0.75 -0.4 L0.75 -0.35 Q0.7 -0.3 0.75 -0.3 L0.75 -0.05 0.55 -0.05 0.4 -0.15 Q0.35 -0.2 0.4 -0.25 L0.45 -0.35 0.5 -0.4 0.45 -0.5 0.25 -0.45 0.05 -0.4 -0.15 -0.4 -0.35 -0.5 -0.45 -0.5 -0.55 -0.5 -0.55 -0.65 -0.45 -0.65 -0.35 -0.65 -0.2 -0.65 -0.05 -0.7 0.1 -0.65 0.2 -0.75 0.25 -0.85 0.25 -0.95 0.3 -0.95 0.3 -0.95 0.3 -0.9 0.4 -0.85 0.3 -0.75 Q0.25 -0.75 0.4 -0.75 L0.45 -0.75 0.45 -0.85 0.5 -0.85 Q0.45 -0.8 0.45 -0.8 0.45 -0.75 0.5 -0.8 0.6 -0.75 0.55 -0.85 L0.45 -0.95 Q0.4 -0.95 0.45 -1.0 L0.5 -1.05 0.55 -1.15 0.6 -1.15 0.65 -0.9 Q0.7 -0.75 0.8 -0.7" fill="#612114" fill-rule="evenodd" stroke="none"/>
    <path d="M0.0 -1.0 L0.15 -1.0 0.25 -0.95 0.25 -0.85 0.2 -0.75 0.1 -0.65 -0.05 -0.7 0.1 -0.8 Q0.15 -0.85 0.1 -0.9 0.05 -0.95 0.0 -0.95 -0.05 -0.95 -0.1 -0.95 L0.0 -1.0" fill="#1a0d0a" fill-rule="evenodd" stroke="none"/>
    <path d="M-0.1 -0.95 Q-0.05 -0.95 0.0 -0.95 0.05 -0.95 0.1 -0.9 0.15 -0.85 0.1 -0.8 L-0.05 -0.7 -0.2 -0.65 -0.35 -0.65 -0.3 -0.8 -0.2 -0.9 -0.1 -0.95" fill="#4c0905" fill-rule="evenodd" stroke="none"/>
    <path d="M0.3 -0.95 L0.4 -0.9 0.45 -0.85 0.45 -0.75 0.4 -0.75 Q0.25 -0.75 0.3 -0.75 L0.4 -0.85 0.3 -0.9 0.3 -0.95" fill="#c08e61" fill-rule="evenodd" stroke="none"/>
    <path d="M0.5 -0.85 L0.5 -0.8 Q0.45 -0.75 0.45 -0.8 0.45 -0.8 0.5 -0.85" fill="#a06e58" fill-rule="evenodd" stroke="none"/>
    <path d="M1.15 -0.2 L1.25 -0.2 1.3 -0.15 Q1.25 -0.05 1.3 0.1 L1.4 0.3 1.35 0.4 1.35 0.5 1.4 0.7 1.35 0.9 Q1.3 0.9 1.3 0.9 L1.25 1.0 1.1 1.0 1.1 0.6 0.9 0.6 0.7 0.6 0.75 0.75 Q0.8 0.8 0.75 0.85 0.65 0.9 0.65 1.1 L0.6 1.15 0.55 1.2 Q0.55 1.3 0.5 1.3 L0.55 1.05 Q0.6 0.95 0.5 0.85 0.45 0.9 0.4 0.8 L0.4 0.75 0.35 0.75 0.2 0.75 0.0 0.75 0.0 0.65 Q-0.05 0.4 -0.2 0.15 L-0.55 -0.3 -0.55 -0.5 -0.45 -0.5 -0.35 -0.5 -0.15 -0.4 0.05 -0.4 0.25 -0.45 0.45 -0.5 0.5 -0.4 0.45 -0.35 0.4 -0.25 Q0.35 -0.2 0.4 -0.15 L0.55 -0.05 0.75 -0.05 0.75 0.0 0.7 0.05 0.6 0.0 1.1 0.35 1.1 0.45 1.15 0.5 Q1.2 0.45 1.15 0.35 1.1 0.25 1.1 0.2 L0.95 0.15 0.8 0.15 0.85 0.05 Q0.95 0.05 1.0 0.0 L0.95 -0.15 Q1.0 -0.2 1.1 -0.1 L1.15 -0.05 1.15 -0.2" fill="#7e2415" fill-rule="evenodd" stroke="none"/>
    <path d="M0.75 -0.3 L0.9 -0.35 Q0.85 -0.4 0.9 -0.45 L1.0 -0.45 1.0 -0.6 Q1.0 -0.65 1.1 -0.7 L1.1 -0.55 1.05 -0.4 Q1.05 -0.25 1.15 -0.2 L1.15 -0.05 1.1 -0.1 Q1.0 -0.2 0.95 -0.15 L1.0 0.0 Q0.95 0.05 0.85 0.05 0.8 0.05 0.85 0.0 L0.9 0.0 0.85 0.0 0.9 -0.2 Q0.85 -0.3 0.75 -0.3" fill="#621e10" fill-rule="evenodd" stroke="none"/>
    <path d="M0.75 -0.3 Q0.85 -0.3 0.9 -0.2 L0.85 0.0 0.9 0.0 0.85 0.0 Q0.8 0.05 0.85 0.05 L0.8 0.15 0.75 0.1 0.7 0.05 0.75 0.0 0.75 -0.05 0.75 -0.3" fill="#9e200f" fill-rule="evenodd" stroke="none"/>
    <path d="M2.2 -1.0 L2.2 -0.35 2.0 -0.4 2.0 -0.55 2.0 -0.65 1.95 -0.7 2.05 -0.85 Q2.1 -1.0 2.2 -1.0" fill="#782a15" fill-rule="evenodd" stroke="none"/>
    <path d="M1.5 -0.6 L1.5 -0.5 1.4 -0.4 1.35 -0.35 1.3 -0.3 1.15 -0.35 Q1.15 -0.45 1.3 -0.5 1.4 -0.6 1.5 -0.6" fill="#9d210d" fill-rule="evenodd" stroke="none"/>
    <path d="M1.3 -0.15 Q1.35 -0.15 1.45 -0.15 1.5 -0.1 1.5 -0.15 L1.55 0.0 1.6 -0.1 1.65 -0.2 1.7 -0.2 1.75 -0.1 Q1.75 -0.05 1.75 0.05 L1.75 0.2 1.7 0.4 1.65 0.6 1.6 0.45 1.6 0.3 Q1.6 0.1 1.45 0.15 L1.4 0.3 1.35 0.5 1.35 0.4 1.4 0.3 1.3 0.1 Q1.25 -0.05 1.3 -0.15" fill="#6e2312" fill-rule="evenodd" stroke="none"/>
    <path d="M2.2 -0.35 L2.2 0.15 2.1 0.0 Q2.0 -0.05 1.95 0.0 L1.95 0.2 Q1.9 0.25 1.9 0.3 L2.0 0.4 1.95 0.45 1.85 0.5 1.9 0.75 Q1.95 0.9 2.05 0.95 L2.1 0.9 2.05 0.85 2.0 0.8 Q2.0 0.75 2.05 0.7 2.1 0.7 2.1 0.75 L2.2 0.85 2.2 1.0 Q2.1 0.95 2.05 1.05 1.95 1.15 1.85 1.15 1.95 1.05 1.85 0.95 L1.7 1.0 Q1.6 0.8 1.65 0.6 L1.7 0.4 1.75 0.2 1.75 0.05 Q1.75 -0.05 1.75 -0.1 L1.8 -0.1 1.8 0.0 1.85 -0.1 Q1.85 -0.15 1.9 -0.1 L1.9 0.2 1.9 0.0 Q1.9 -0.1 2.0 -0.15 L2.0 -0.2 1.95 -0.3 2.0 -0.35 2.0 -0.4 2.2 -0.35" fill="#993519" fill-rule="evenodd" stroke="none"/>
    <path d="M1.8 -0.1 Q1.9 -0.15 1.95 -0.3 L2.0 -0.2 2.0 -0.15 Q1.9 -0.1 1.9 0.0 L1.9 0.2 1.9 -0.1 Q1.85 -0.15 1.85 -0.1 L1.8 0.0 1.8 -0.1" fill="#6e2512" fill-rule="evenodd" stroke="none"/>
    <path d="M1.95 -2.2 L2.2 -2.2 2.2 -1.9 1.95 -2.2" fill="#bf4d28" fill-rule="evenodd" stroke="none"/>
    <path d="M2.2 0.15 L2.2 0.85 2.1 0.75 Q2.1 0.7 2.05 0.7 2.0 0.75 2.0 0.8 L2.05 0.85 2.1 0.9 2.05 0.95 Q1.95 0.9 1.9 0.75 L1.85 0.5 1.95 0.45 2.0 0.4 1.9 0.3 Q1.9 0.25 1.95 0.2 L1.95 0.0 Q2.0 -0.05 2.1 0.0 L2.2 0.15" fill="#be4926" fill-rule="evenodd" stroke="none"/>
    <path d="M2.2 1.0 L2.2 2.2 2.15 2.2 2.15 1.85 2.15 1.6 Q2.15 1.5 2.05 1.5 L1.9 1.5 Q1.85 1.4 1.85 1.3 L1.85 1.15 Q1.95 1.15 2.05 1.05 2.1 0.95 2.2 1.0" fill="#772e16" fill-rule="evenodd" stroke="none"/>
    <path d="M1.9 1.5 L2.05 1.5 Q2.15 1.5 2.15 1.6 L2.05 1.6 Q2.05 1.6 2.05 1.65 2.05 1.7 1.95 1.75 L1.8 1.75 1.8 1.65 Q1.8 1.65 1.85 1.65 L1.9 1.6 1.9 1.5" fill="#4b1f10" fill-rule="evenodd" stroke="none"/>
    <path d="M2.15 1.6 L2.15 1.85 1.95 1.85 1.8 1.9 1.75 1.8 1.7 1.75 1.6 1.9 1.5 1.95 Q1.45 1.95 1.35 2.05 L1.2 2.15 Q1.15 2.05 1.2 2.0 L1.25 1.95 1.3 1.85 1.4 1.8 1.55 1.75 1.65 1.65 Q1.7 1.55 1.75 1.55 L1.9 1.5 1.9 1.6 1.85 1.65 Q1.8 1.65 1.8 1.65 L1.8 1.75 1.95 1.75 Q2.05 1.7 2.05 1.65 2.05 1.6 2.05 1.6 L2.15 1.6" fill="#2a0f08" fill-rule="evenodd" stroke="none"/>
    <path d="M2.15 2.2 L-2.2 2.2 -2.2 1.45 -2.1 1.45 -2.0 1.35 -1.85 1.3 Q-1.8 1.3 -1.8 1.2 L-1.75 1.2 -1.7 1.2 -1.55 1.3 Q-1.55 1.4 -1.65 1.45 -1.5 1.4 -1.5 1.5 L-1.55 1.55 -1.6 1.65 -1.5 1.75 Q-1.45 1.75 -1.4 1.7 L-1.35 1.75 -1.3 1.65 -1.15 1.45 -1.0 1.3 -1.0 1.6 -0.9 1.5 -0.85 1.45 -0.75 1.5 Q-0.7 1.5 -0.75 1.45 L-0.7 1.4 -0.65 1.35 -0.5 1.2 -0.35 1.2 -0.4 1.2 -0.4 1.25 -0.4 1.35 -0.45 1.45 -0.35 1.45 -0.35 1.55 Q-0.3 1.65 -0.3 1.75 L-0.25 2.0 Q-0.05 2.0 0.1 1.85 L0.1 1.6 Q0.05 1.5 0.1 1.5 0.15 1.5 0.25 1.55 0.25 1.6 0.3 1.6 0.35 1.6 0.35 1.6 L0.3 1.7 Q0.3 1.75 0.35 1.75 L0.4 1.85 0.3 1.95 Q0.25 2.0 0.3 2.05 L0.4 2.05 0.5 1.9 0.55 1.7 0.7 1.75 0.65 1.85 0.75 1.95 0.85 2.0 Q0.95 1.9 1.0 1.85 1.0 1.8 1.0 1.8 L1.1 1.8 1.15 1.85 1.15 1.95 1.2 1.9 1.25 1.85 1.3 1.85 1.25 1.95 1.2 2.0 Q1.15 2.05 1.2 2.15 L1.35 2.05 Q1.45 1.95 1.5 1.95 L1.6 1.9 1.7 1.75 1.75 1.8 1.8 1.9 1.95 1.85 2.15 1.85 2.15 2.2 M-1.7 1.2 L-1.7 1.2" fill="#0b0302" fill-rule="evenodd" stroke="none"/>
    <path d="M1.35 0.9 L1.4 0.7 1.35 0.5 1.4 0.3 1.45 0.15 Q1.6 0.1 1.6 0.3 L1.6 0.45 1.65 0.6 1.6 0.8 Q1.55 0.8 1.45 0.9 L1.35 1.05 1.35 0.9" fill="#942f19" fill-rule="evenodd" stroke="none"/>
    <path d="M0.7 0.05 L0.75 0.1 0.8 0.15 0.95 0.15 1.1 0.2 Q1.1 0.25 1.15 0.35 1.2 0.45 1.15 0.5 L1.1 0.45 1.1 0.35 0.6 0.0 0.7 0.05" fill="#bf715a" fill-rule="evenodd" stroke="none"/>
    <path d="M0.65 1.1 Q0.65 0.9 0.75 0.85 L0.75 1.1 0.85 1.05 Q0.9 1.0 0.9 1.0 L0.9 1.1 0.85 1.15 1.0 1.15 Q1.1 1.1 1.1 1.0 L1.25 1.0 1.3 0.9 Q1.3 0.9 1.35 0.9 L1.35 1.05 1.3 1.2 1.3 1.3 1.25 1.45 Q1.15 1.55 1.25 1.55 L1.2 1.6 1.15 1.7 1.1 1.65 1.0 1.65 1.1 1.55 1.15 1.4 0.95 1.5 0.8 1.5 Q0.85 1.5 0.85 1.35 L0.8 1.45 0.7 1.5 0.75 1.45 Q0.8 1.4 0.75 1.35 L0.75 1.3 0.8 1.25 0.9 1.3 1.0 1.3 Q1.05 1.35 1.05 1.35 L1.15 1.3 1.1 1.25 1.15 1.15 Q1.1 1.15 1.0 1.2 L0.85 1.25 0.75 1.15 0.65 1.1" fill="#591a10" fill-rule="evenodd" stroke="none"/>
    <path d="M0.75 0.85 Q0.8 0.8 0.75 0.75 L0.7 0.6 0.9 0.6 1.1 0.6 1.1 1.0 Q1.1 1.1 1.0 1.15 L0.85 1.15 0.9 1.1 0.9 1.0 Q0.9 1.0 0.85 1.05 L0.75 1.1 0.75 0.85" fill="#a8301c" fill-rule="evenodd" stroke="none"/>
    <path d="M1.25 1.55 Q1.15 1.55 1.25 1.45 L1.3 1.3 1.3 1.2 1.35 1.05 1.45 0.9 Q1.55 0.8 1.6 0.8 L1.6 1.05 Q1.6 1.2 1.65 1.25 L1.65 1.3 1.6 1.35 1.6 1.45 Q1.55 1.55 1.5 1.5 1.45 1.5 1.45 1.55 L1.35 1.6 Q1.3 1.65 1.3 1.55 L1.35 1.45 1.25 1.55" fill="#ad351d" fill-rule="evenodd" stroke="none"/>
    <path d="M1.65 1.25 Q1.6 1.2 1.6 1.05 L1.6 0.8 1.65 0.6 Q1.6 0.8 1.7 1.0 L1.85 0.95 Q1.95 1.05 1.85 1.15 L1.75 1.2 1.65 1.25" fill="#6a2211" fill-rule="evenodd" stroke="none"/>
    <path d="M1.85 1.15 L1.85 1.3 Q1.85 1.4 1.9 1.5 L1.75 1.55 Q1.7 1.55 1.65 1.65 1.7 1.5 1.6 1.35 L1.65 1.3 1.65 1.25 1.75 1.2 1.85 1.15" fill="#44160c" fill-rule="evenodd" stroke="none"/>
    <path d="M0.0 0.75 L0.2 0.75 0.35 0.75 0.4 0.75 0.4 0.8 Q0.45 0.9 0.5 0.85 0.6 0.95 0.55 1.05 L0.5 1.3 0.45 1.35 0.35 1.35 Q0.3 1.35 0.35 1.25 0.25 1.3 0.25 1.25 L0.35 1.1 0.25 1.15 Q0.2 1.15 0.2 1.2 L0.15 1.25 0.1 1.25 0.1 1.4 Q0.05 1.45 0.0 1.4 -0.05 1.35 -0.15 1.4 L-0.3 1.4 Q-0.3 1.3 -0.25 1.3 L-0.1 1.35 Q-0.05 1.25 -0.1 1.2 L-0.2 1.2 -0.15 1.15 -0.1 1.1 -0.05 1.1 Q0.0 1.05 -0.05 1.0 -0.05 0.95 -0.1 0.95 L-0.05 0.95 Q0.0 0.95 0.0 0.9 0.0 0.85 -0.05 0.85 0.0 0.85 0.0 0.75" fill="#b1331d" fill-rule="evenodd" stroke="none"/>
    <path d="M0.2 1.2 Q0.2 1.15 0.25 1.15 L0.35 1.1 0.25 1.25 Q0.25 1.3 0.35 1.25 0.3 1.35 0.35 1.35 L0.45 1.35 0.5 1.3 0.55 1.4 0.55 1.45 0.5 1.4 0.4 1.4 0.3 1.45 Q0.3 1.4 0.3 1.35 L0.25 1.3 0.2 1.2" fill="#812415" fill-rule="evenodd" stroke="none"/>
    <path d="M0.5 1.3 Q0.55 1.3 0.55 1.2 L0.6 1.15 0.65 1.1 0.75 1.15 0.85 1.25 0.8 1.25 0.75 1.3 0.75 1.35 Q0.8 1.4 0.75 1.45 L0.7 1.5 0.8 1.45 0.85 1.35 Q0.85 1.5 0.8 1.5 L0.75 1.6 0.7 1.65 Q0.8 1.7 0.85 1.75 L0.75 1.85 0.9 1.85 Q0.95 1.85 0.95 1.8 0.9 1.7 1.0 1.65 L1.1 1.65 1.15 1.7 1.2 1.6 1.25 1.55 1.25 1.65 Q1.25 1.7 1.3 1.65 L1.35 1.65 1.3 1.7 1.2 1.75 Q1.2 1.8 1.2 1.8 L1.25 1.85 1.2 1.9 1.15 1.95 1.15 1.85 1.1 1.8 1.0 1.8 Q1.0 1.8 1.0 1.85 0.95 1.9 0.85 2.0 L0.75 1.95 0.65 1.85 0.7 1.75 0.55 1.7 0.5 1.9 0.4 2.05 0.3 2.05 Q0.25 2.0 0.3 1.95 L0.4 1.85 0.35 1.75 Q0.3 1.75 0.3 1.7 L0.35 1.6 Q0.35 1.6 0.3 1.6 0.25 1.6 0.25 1.55 L0.4 1.4 0.5 1.4 0.55 1.45 0.55 1.4 0.5 1.3" fill="#300e08" fill-rule="evenodd" stroke="none"/>
    <path d="M0.8 1.25 L0.85 1.25 1.0 1.2 Q1.1 1.15 1.15 1.15 L1.1 1.25 Q1.05 1.25 1.1 1.25 L1.15 1.3 1.05 1.35 Q1.05 1.35 1.0 1.3 L0.9 1.3 0.8 1.25" fill="#a3311f" fill-rule="evenodd" stroke="none"/>
    <path d="M0.8 1.5 L0.95 1.5 1.15 1.4 1.1 1.55 1.0 1.65 Q0.9 1.7 0.95 1.8 L0.9 1.8 0.85 1.75 Q0.8 1.7 0.7 1.65 L0.75 1.6 0.8 1.5" fill="#a52f1b" fill-rule="evenodd" stroke="none"/>
    <path d="M0.95 1.8 Q0.95 1.85 0.9 1.85 L0.75 1.85 0.85 1.75 0.9 1.8 0.95 1.8" fill="#6b1e11" fill-rule="evenodd" stroke="none"/>
    <path d="M0.2 1.2 L0.25 1.3 0.3 1.35 Q0.3 1.4 0.3 1.45 L0.4 1.4 0.25 1.55 0.25 1.4 Q0.25 1.35 0.2 1.4 0.15 1.4 0.15 1.45 0.1 1.5 0.05 1.45 L0.05 1.5 0.0 1.5 -0.05 1.45 0.0 1.4 Q0.05 1.45 0.1 1.4 L0.1 1.25 0.15 1.25 0.2 1.2" fill="#59170d" fill-rule="evenodd" stroke="none"/>
    <path d="M0.25 1.55 Q0.15 1.5 0.1 1.5 0.05 1.5 0.1 1.6 L0.1 1.85 Q-0.05 2.0 -0.25 2.0 L-0.3 1.75 Q-0.3 1.65 -0.35 1.55 L-0.35 1.45 -0.45 1.45 -0.4 1.35 -0.4 1.25 -0.3 1.25 Q-0.25 1.25 -0.25 1.2 L-0.2 1.2 -0.1 1.2 Q-0.05 1.25 -0.1 1.35 L-0.25 1.3 Q-0.3 1.3 -0.3 1.4 L-0.15 1.4 Q-0.05 1.35 0.0 1.4 L-0.05 1.45 0.0 1.5 0.05 1.5 0.05 1.45 Q0.1 1.5 0.15 1.45 0.15 1.4 0.2 1.4 0.25 1.35 0.25 1.4 L0.25 1.55 M0.1 1.7 Q0.1 1.6 0.05 1.6 L-0.1 1.55 -0.1 1.65 -0.2 1.65 Q-0.25 1.65 -0.25 1.75 L-0.15 1.8 0.0 1.8 0.1 1.7" fill="#2c0c07" fill-rule="evenodd" stroke="none"/>
    <path d="M0.1 1.7 L0.0 1.8 -0.15 1.8 -0.25 1.75 Q-0.25 1.65 -0.2 1.65 L-0.1 1.65 -0.1 1.55 0.05 1.6 Q0.1 1.6 0.1 1.7" fill="#661d11" fill-rule="evenodd" stroke="none"/>
    <path d="M1.5 1.5 Q1.55 1.55 1.6 1.45 L1.6 1.35 Q1.7 1.5 1.65 1.65 L1.55 1.75 Q1.5 1.7 1.5 1.65 L1.5 1.5" fill="#8b2918" fill-rule="evenodd" stroke="none"/>
    <path d="M1.15 1.3 L1.1 1.25 Q1.05 1.25 1.1 1.25 L1.15 1.3" fill="#dea291" fill-rule="evenodd" stroke="none"/>
    <path d="M1.25 1.55 L1.35 1.45 1.3 1.55 Q1.3 1.65 1.35 1.6 L1.45 1.55 Q1.45 1.5 1.5 1.5 L1.5 1.65 Q1.5 1.7 1.55 1.75 L1.4 1.8 1.3 1.85 1.25 1.85 1.2 1.8 Q1.2 1.8 1.2 1.75 L1.3 1.7 1.35 1.65 1.3 1.65 Q1.25 1.7 1.25 1.65 L1.25 1.55" fill="#5b1b10" fill-rule="evenodd" stroke="none"/>
    <path d="M-2.0 -2.2 L-1.95 -2.2 -2.0 -2.05 Q-1.95 -2.0 -1.85 -2.05 L-1.7 -1.9 Q-1.65 -1.8 -1.6 -1.7 L-1.25 -1.6 -1.0 -1.4 -0.95 -1.3 Q-0.95 -1.3 -1.0 -1.25 L-1.1 -1.25 Q-1.15 -1.25 -1.2 -1.2 -1.25 -1.3 -1.35 -1.35 -1.5 -1.35 -1.5 -1.2 L-1.55 -1.2 Q-1.65 -1.2 -1.7 -1.3 L-1.8 -1.3 Q-1.9 -1.25 -1.9 -1.3 L-1.85 -1.4 -1.75 -1.35 Q-1.7 -1.35 -1.65 -1.4 L-1.6 -1.45 -1.5 -1.5 -1.4 -1.5 -1.45 -1.55 -1.5 -1.55 -1.6 -1.55 Q-1.7 -1.5 -1.7 -1.55 L-1.7 -1.7 Q-1.7 -1.8 -1.8 -1.8 L-1.85 -1.8 Q-1.9 -1.75 -1.95 -1.8 L-2.05 -1.9 -2.1 -1.95 -2.1 -2.1 -2.0 -2.2" fill="#914425" fill-rule="evenodd" stroke="none"/>
    <path d="M-2.2 -1.9 L-2.2 -2.2 -2.0 -2.2 -2.1 -2.1 -2.1 -1.95 -2.2 -1.9" fill="#956a3f" fill-rule="evenodd" stroke="none"/>
    <path d="M-2.2 -0.55 L-2.2 -0.9 -2.0 -1.15 Q-1.95 -1.3 -1.9 -1.45 L-2.05 -1.5 Q-2.15 -1.55 -2.1 -1.65 L-2.15 -1.65 -2.2 -1.65 -2.2 -1.9 -2.1 -1.95 -2.05 -1.9 -1.95 -1.8 Q-1.9 -1.75 -1.85 -1.8 L-1.8 -1.8 Q-1.7 -1.8 -1.7 -1.7 L-1.7 -1.55 Q-1.7 -1.5 -1.6 -1.55 L-1.5 -1.55 -1.45 -1.55 -1.4 -1.5 -1.5 -1.5 -1.6 -1.45 -1.65 -1.4 Q-1.7 -1.35 -1.75 -1.35 L-1.85 -1.4 -1.9 -1.3 Q-1.9 -1.25 -1.8 -1.3 L-1.7 -1.3 Q-1.65 -1.2 -1.55 -1.2 L-1.65 -1.15 -1.7 -1.15 -1.75 -1.2 Q-1.8 -1.25 -1.85 -1.25 -2.0 -1.05 -2.0 -0.9 L-1.85 -0.9 -1.85 -0.75 -1.95 -0.75 -2.05 -0.8 -2.1 -0.7 -2.2 -0.55" fill="#a84c25" fill-rule="evenodd" stroke="none"/>
    <path d="M-2.2 -0.9 L-2.2 -1.65 -2.15 -1.65 -2.1 -1.65 Q-2.15 -1.55 -2.05 -1.5 L-1.9 -1.45 Q-1.95 -1.3 -2.0 -1.15 L-2.2 -0.9" fill="#d0672a" fill-rule="evenodd" stroke="none"/>
    <path d="M-2.2 -0.55 L-2.2 -0.55 -2.1 -0.7 -2.05 -0.8 -1.95 -0.75 -1.85 -0.75 -1.85 -0.9 -2.0 -0.9 Q-2.0 -1.05 -1.85 -1.25 -1.8 -1.25 -1.75 -1.2 L-1.7 -1.15 -1.65 -1.15 -1.55 -1.2 -1.5 -1.2 -1.4 -1.2 Q-1.4 -1.2 -1.4 -1.1 L-1.4 -1.0 Q-1.45 -0.95 -1.5 -0.95 -1.55 -0.95 -1.6 -0.9 L-1.65 -0.8 Q-1.7 -0.8 -1.7 -0.75 L-1.65 -0.65 -1.8 -0.55 -1.85 -0.5 -1.9 -0.55 -1.95 -0.65 -2.0 -0.7 Q-2.05 -0.7 -2.1 -0.65 L-2.1 -0.55 -2.05 -0.5 -2.1 -0.5 -2.2 -0.55" fill="#ca5b32" fill-rule="evenodd" stroke="none"/>
    <path d="M-2.2 -0.25 L-2.2 -0.55 -2.1 -0.5 -2.05 -0.5 -2.1 -0.55 -2.1 -0.65 Q-2.05 -0.7 -2.0 -0.7 L-1.95 -0.65 -1.9 -0.55 -1.85 -0.5 -1.9 -0.4 -1.9 -0.25 -1.95 -0.15 -2.05 -0.05 -2.1 -0.05 -2.1 -0.1 Q-2.05 -0.15 -2.2 -0.25" fill="#b04024" fill-rule="evenodd" stroke="none"/>
    <path d="M-2.2 0.7 L-2.2 -0.25 Q-2.05 -0.15 -2.1 -0.1 L-2.1 -0.05 -2.05 -0.05 -1.95 -0.15 -1.9 -0.25 -1.8 -0.2 -1.65 -0.2 -1.55 -0.3 Q-1.55 -0.35 -1.55 -0.45 L-1.45 -0.5 -1.35 -0.6 -1.3 -0.6 Q-1.2 -0.55 -1.15 -0.5 -1.1 -0.4 -1.15 -0.3 L-1.25 -0.15 -1.3 0.0 -1.45 -0.05 Q-1.6 -0.05 -1.65 -0.1 L-1.65 -0.05 -1.65 0.0 -1.7 -0.05 -1.9 -0.15 Q-1.95 -0.15 -1.9 -0.1 L-1.85 0.0 Q-1.9 0.0 -1.95 0.05 L-2.0 0.1 -2.1 0.15 -2.05 0.25 -2.0 0.3 -1.95 0.25 Q-2.0 0.3 -2.0 0.25 L-1.95 0.2 Q-1.9 0.2 -1.85 0.1 -1.85 0.05 -1.8 0.05 L-1.8 0.1 -1.7 0.1 -1.65 0.05 Q-1.65 0.05 -1.6 0.15 L-1.6 0.2 -1.65 0.45 Q-1.7 0.5 -1.85 0.5 L-2.05 0.55 Q-2.05 0.6 -2.1 0.65 L-2.2 0.7" fill="#8f281a" fill-rule="evenodd" stroke="none"/>
    <path d="M-1.95 -2.2 L-1.65 -2.2 -1.65 -2.1 -1.6 -2.05 -1.5 -2.0 -1.5 -1.9 Q-1.45 -1.8 -1.35 -1.8 L-1.2 -1.85 -1.1 -1.85 -0.95 -1.8 Q-0.85 -1.75 -0.75 -1.7 L-0.7 -1.65 -0.7 -1.6 Q-0.85 -1.65 -0.9 -1.55 -0.95 -1.45 -0.85 -1.35 L-1.0 -1.4 -1.25 -1.6 -1.6 -1.7 Q-1.65 -1.8 -1.7 -1.9 L-1.85 -2.05 Q-1.95 -2.0 -2.0 -2.05 L-1.95 -2.2" fill="#6e301a" fill-rule="evenodd" stroke="none"/>
    <path d="M-0.55 -1.4 Q-0.55 -1.35 -0.65 -1.35 L-0.7 -1.35 -0.75 -1.35 -0.8 -1.25 -0.8 -1.15 -0.8 -1.15 -0.85 -1.1 Q-0.9 -1.1 -0.9 -1.15 L-0.9 -1.2 -0.95 -1.2 Q-1.0 -1.2 -1.0 -1.25 -0.95 -1.3 -0.95 -1.3 L-1.0 -1.4 -0.85 -1.35 Q-0.95 -1.45 -0.9 -1.55 -0.85 -1.65 -0.7 -1.6 L-0.6 -1.55 Q-0.5 -1.5 -0.55 -1.4 M-1.0 -1.25 L-1.0 -1.25" fill="#1f0d08" fill-rule="evenodd" stroke="none"/>
    <path d="M-0.75 -1.35 L-0.7 -1.3 -0.65 -1.25 Q-0.6 -1.25 -0.55 -1.3 -0.55 -1.3 -0.5 -1.25 L-0.6 -1.15 -0.5 -1.05 -0.3 -1.0 Q-0.2 -1.0 -0.2 -0.9 L-0.3 -0.8 -0.35 -0.65 -0.45 -0.65 -0.55 -0.65 Q-0.5 -0.7 -0.5 -0.8 L-0.5 -0.95 Q-0.55 -1.0 -0.6 -0.95 L-0.6 -0.85 -0.65 -0.65 -0.65 -0.4 -0.65 -0.4 -0.65 -0.35 -0.65 -0.35 Q-0.65 -0.25 -0.8 -0.25 L-0.9 -0.25 -1.0 -0.35 -1.0 -0.65 -1.05 -0.8 -1.0 -0.95 -1.1 -1.05 Q-1.2 -1.05 -1.2 -1.1 -1.25 -1.15 -1.2 -1.2 -1.15 -1.25 -1.1 -1.25 L-1.0 -1.25 -1.0 -1.25 Q-1.05 -1.2 -1.1 -1.2 L-1.2 -1.15 -1.0 -1.05 Q-0.95 -0.95 -0.95 -0.85 L-0.9 -0.9 Q-0.85 -0.9 -0.9 -0.8 L-0.9 -0.65 Q-0.9 -0.65 -0.85 -0.65 L-0.75 -0.65 -0.7 -0.7 -0.65 -0.75 -0.7 -0.85 -0.7 -0.9 -0.6 -1.05 Q-0.65 -1.0 -0.7 -1.0 L-0.75 -1.05 -0.7 -1.1 -0.65 -1.15 Q-0.75 -1.2 -0.8 -1.25 L-0.75 -1.35 M-0.7 -0.9 L-0.7 -0.9 M-0.85 -0.45 L-0.95 -0.5 -0.95 -0.4 Q-0.9 -0.4 -0.85 -0.35 -0.8 -0.45 -0.85 -0.45" fill="#340b06" fill-rule="evenodd" stroke="none"/>
    <path d="M-1.5 -1.2 Q-1.5 -1.35 -1.35 -1.35 -1.25 -1.3 -1.2 -1.2 -1.25 -1.15 -1.2 -1.1 -1.2 -1.05 -1.1 -1.05 -1.15 -1.05 -1.2 -1.0 L-1.3 -1.0 -1.4 -0.95 -1.4 -0.9 -1.45 -0.85 -1.5 -0.95 Q-1.45 -0.95 -1.4 -1.0 L-1.4 -1.1 Q-1.4 -1.2 -1.4 -1.2 L-1.5 -1.2" fill="#b24f2f" fill-rule="evenodd" stroke="none"/>
    <path d="M-1.1 -1.05 L-1.0 -0.95 -1.05 -0.8 -1.0 -0.65 -1.0 -0.35 Q-1.05 -0.3 -1.15 -0.3 -1.1 -0.4 -1.15 -0.5 -1.2 -0.55 -1.3 -0.6 -1.2 -0.65 -1.3 -0.75 L-1.35 -0.8 -1.45 -0.85 -1.4 -0.9 Q-1.4 -0.85 -1.3 -0.8 -1.2 -0.75 -1.2 -0.85 -1.3 -0.85 -1.4 -0.95 L-1.35 -0.95 -1.25 -0.9 Q-1.15 -0.85 -1.15 -0.95 L-1.3 -1.0 -1.2 -1.0 Q-1.15 -1.05 -1.1 -1.05" fill="#650b07" fill-rule="evenodd" stroke="none"/>
    <path d="M-1.0 -1.25 Q-1.0 -1.2 -0.95 -1.2 L-0.9 -1.2 -0.9 -1.15 Q-0.9 -1.1 -0.85 -1.1 L-0.8 -1.15 -0.8 -1.15 -0.8 -1.1 -0.75 -1.0 -0.75 -1.05 -0.7 -1.0 Q-0.65 -1.0 -0.6 -1.05 L-0.7 -0.9 -0.85 -1.0 -0.9 -1.05 -0.95 -1.15 -0.95 -1.0 -0.9 -0.95 -0.9 -0.9 -0.95 -0.85 Q-0.95 -0.95 -1.0 -1.05 L-1.2 -1.15 -1.1 -1.2 Q-1.05 -1.2 -1.0 -1.25" fill="#77160a" fill-rule="evenodd" stroke="none"/>
    <path d="M-1.3 -1.0 L-1.15 -0.95 Q-1.15 -0.85 -1.25 -0.9 L-1.35 -0.95 -1.3 -1.0" fill="#2b0d06" fill-rule="evenodd" stroke="none"/>
    <path d="M-1.4 -0.95 Q-1.3 -0.85 -1.2 -0.85 -1.2 -0.75 -1.3 -0.8 -1.4 -0.85 -1.4 -0.9 L-1.4 -0.95" fill="#a9110c" fill-rule="evenodd" stroke="none"/>
    <path d="M-1.45 -0.85 L-1.35 -0.8 -1.3 -0.75 Q-1.2 -0.65 -1.3 -0.6 L-1.35 -0.6 -1.45 -0.65 -1.5 -0.7 -1.65 -0.65 -1.7 -0.75 Q-1.7 -0.8 -1.65 -0.8 L-1.6 -0.9 Q-1.55 -0.95 -1.5 -0.95 L-1.45 -0.85" fill="#440e11" fill-rule="evenodd" stroke="none"/>
    <path d="M-1.65 -0.65 L-1.5 -0.7 -1.45 -0.65 -1.35 -0.6 -1.45 -0.5 -1.55 -0.45 Q-1.6 -0.3 -1.75 -0.3 L-1.8 -0.4 -1.8 -0.55 -1.65 -0.65" fill="#630a07" fill-rule="evenodd" stroke="none"/>
    <path d="M-1.8 -0.55 L-1.8 -0.4 -1.75 -0.3 Q-1.6 -0.3 -1.55 -0.45 -1.55 -0.35 -1.55 -0.3 L-1.65 -0.2 -1.8 -0.2 -1.9 -0.25 -1.9 -0.4 -1.85 -0.5 -1.8 -0.55" fill="#22100d" fill-rule="evenodd" stroke="none"/>
    <path d="M-1.85 0.0 L-1.9 -0.1 Q-1.95 -0.15 -1.9 -0.15 L-1.7 -0.05 -1.8 0.0 -1.85 0.0" fill="#e4a77d" fill-rule="evenodd" stroke="none"/>
    <path d="M-2.2 0.75 L-2.2 0.7 -2.1 0.65 Q-2.05 0.6 -2.05 0.55 L-1.85 0.5 Q-1.7 0.5 -1.65 0.45 L-1.6 0.2 -1.6 0.15 Q-1.65 0.05 -1.65 0.0 L-1.65 -0.05 -1.65 -0.1 Q-1.6 -0.05 -1.45 -0.05 L-1.3 0.0 Q-1.4 0.2 -1.4 0.35 -1.4 0.45 -1.5 0.6 L-1.6 0.8 -1.65 0.85 -1.7 1.0 Q-1.8 1.0 -1.85 1.15 L-1.95 1.3 Q-2.0 1.35 -2.0 1.3 L-2.0 1.2 -2.1 1.1 -2.1 0.95 -2.0 0.9 -1.9 0.85 -2.15 0.85 -2.1 0.75 -2.05 0.7 -2.2 0.75" fill="#a32c1b" fill-rule="evenodd" stroke="none"/>
    <path d="M-1.7 -0.05 L-1.65 0.0 -1.65 0.05 -1.7 0.1 -1.8 0.1 -1.8 0.05 Q-1.85 0.05 -1.85 0.1 -1.9 0.2 -1.95 0.2 L-2.0 0.25 Q-2.0 0.3 -1.95 0.25 L-2.0 0.3 -2.05 0.25 -2.1 0.15 -2.0 0.1 -1.95 0.05 Q-1.9 0.0 -1.85 0.0 L-1.8 0.0 -1.7 -0.05 M-2.0 0.15 L-1.95 0.15 Q-1.9 0.15 -1.95 0.1 -2.0 0.15 -2.0 0.15" fill="#5f160b" fill-rule="evenodd" stroke="none"/>
    <path d="M-0.55 -0.3 L-0.2 0.15 Q-0.05 0.4 0.0 0.65 0.0 0.75 -0.1 0.8 L-0.25 0.75 -0.25 0.55 Q-0.25 0.45 -0.35 0.4 L-0.5 0.3 -0.85 -0.05 -0.95 0.05 -1.0 0.15 -1.2 0.55 -1.4 0.9 Q-1.55 0.9 -1.6 0.8 L-1.5 0.6 Q-1.4 0.45 -1.4 0.35 -1.4 0.2 -1.3 0.0 L-1.25 -0.15 -1.15 -0.3 Q-1.05 -0.3 -1.0 -0.35 L-0.9 -0.25 -0.8 -0.25 Q-0.65 -0.25 -0.65 -0.35 L-0.65 -0.35 Q-0.65 -0.3 -0.6 -0.3 L-0.55 -0.3" fill="#0e0403" fill-rule="evenodd" stroke="none"/>
    <path d="M-0.8 -1.15 L-0.8 -1.25 Q-0.75 -1.2 -0.65 -1.15 L-0.7 -1.1 -0.75 -1.05 -0.75 -1.0 -0.8 -1.1 -0.8 -1.15" fill="#c73412" fill-rule="evenodd" stroke="none"/>
    <path d="M-0.55 -0.5 L-0.55 -0.3 -0.6 -0.3 Q-0.65 -0.3 -0.65 -0.4 L-0.65 -0.4 -0.65 -0.65 -0.6 -0.85 -0.6 -0.95 Q-0.55 -1.0 -0.5 -0.95 L-0.5 -0.8 Q-0.5 -0.7 -0.55 -0.65 L-0.55 -0.5" fill="#5c0a06" fill-rule="evenodd" stroke="none"/>
    <path d="M-0.9 -0.95 L-0.95 -1.0 -0.85 -1.0 -0.7 -0.9 -0.7 -0.75 -0.8 -0.8 -0.85 -0.85 Q-0.8 -0.9 -0.85 -0.9 L-0.9 -0.95 M-0.7 -0.9 L-0.7 -0.9" fill="#bd4f24" fill-rule="evenodd" stroke="none"/>
    <path d="M-0.95 -1.0 L-0.95 -1.15 -0.9 -1.05 -0.85 -1.0 -0.95 -1.0" fill="#efa16a" fill-rule="evenodd" stroke="none"/>
    <path d="M-0.9 -0.9 L-0.9 -0.95 -0.85 -0.9 Q-0.8 -0.9 -0.85 -0.85 L-0.8 -0.8 -0.7 -0.75 Q-0.7 -0.7 -0.8 -0.7 L-0.85 -0.75 -0.85 -0.7 Q-0.85 -0.65 -0.8 -0.65 L-0.75 -0.65 -0.85 -0.65 Q-0.9 -0.65 -0.9 -0.65 L-0.9 -0.8 Q-0.85 -0.9 -0.9 -0.9" fill="#e59a6a" fill-rule="evenodd" stroke="none"/>
    <path d="M-0.75 -0.65 L-0.8 -0.65 Q-0.85 -0.65 -0.85 -0.7 L-0.85 -0.75 -0.8 -0.7 Q-0.7 -0.7 -0.7 -0.75 L-0.65 -0.75 -0.7 -0.7 -0.75 -0.65" fill="#b84820" fill-rule="evenodd" stroke="none"/>
    <path d="M-0.7 -0.75 L-0.7 -0.9 -0.7 -0.85 -0.65 -0.75 -0.7 -0.75" fill="#d6986c" fill-rule="evenodd" stroke="none"/>
    <path d="M-0.85 -0.45 Q-0.8 -0.45 -0.85 -0.35 -0.9 -0.4 -0.95 -0.4 L-0.95 -0.5 -0.85 -0.45" fill="#6a170a" fill-rule="evenodd" stroke="none"/>
    <path d="M-0.3 0.75 L-0.3 0.7 -0.4 0.7 -0.45 0.6 -0.4 0.5 -0.35 0.4 Q-0.25 0.45 -0.25 0.55 L-0.25 0.75 -0.3 0.75" fill="#7b2114" fill-rule="evenodd" stroke="none"/>
    <path d="M-0.5 0.3 L-0.35 0.4 -0.4 0.5 -0.45 0.6 -0.4 0.7 -0.3 0.7 -0.3 0.75 -0.25 0.85 -0.25 0.95 -0.35 1.0 Q-0.4 1.05 -0.45 1.05 -0.4 0.95 -0.4 0.85 L-0.5 0.9 -0.45 0.95 -0.55 1.05 Q-0.6 1.15 -0.65 1.15 L-0.7 1.25 -0.7 1.3 -0.8 1.3 -0.85 1.2 -0.9 1.2 Q-0.95 1.15 -1.0 1.2 L-1.1 1.3 -1.15 1.15 -1.2 1.3 -1.3 1.45 -1.5 1.45 -1.45 1.35 -1.4 1.25 -1.55 1.3 Q-1.6 1.25 -1.55 1.2 L-1.5 1.1 -1.45 1.0 -1.4 0.9 -1.2 0.55 -1.0 0.15 Q-0.9 0.2 -0.9 0.3 L-0.95 0.45 -0.8 0.4 -0.7 0.3 -0.5 0.3 M-0.85 1.2 L-0.75 1.2 -0.75 1.15 -0.9 0.85 Q-1.0 0.7 -1.1 0.65 L-1.1 0.9 -0.95 1.1 Q-0.9 1.1 -0.9 1.1 L-0.85 1.2" fill="#ab2f1b" fill-rule="evenodd" stroke="none"/>
    <path d="M-0.5 0.3 L-0.7 0.3 -0.8 0.4 -0.95 0.45 -0.9 0.3 Q-0.9 0.2 -1.0 0.15 L-0.95 0.05 -0.85 -0.05 -0.5 0.3" fill="#98281a" fill-rule="evenodd" stroke="none"/>
    <path d="M-0.85 1.2 L-0.9 1.1 Q-0.9 1.1 -0.95 1.1 L-1.1 0.9 -1.1 0.65 Q-1.0 0.7 -0.9 0.85 L-0.75 1.15 -0.75 1.2 -0.85 1.2" fill="#cb4319" fill-rule="evenodd" stroke="none"/>
    <path d="M-2.2 1.45 L-2.2 1.4 Q-2.1 1.4 -2.1 1.3 L-2.0 1.2 -2.0 1.3 Q-2.0 1.35 -1.95 1.3 L-1.85 1.15 Q-1.8 1.0 -1.7 1.0 L-1.7 1.0 -1.5 1.1 -1.55 1.2 Q-1.6 1.25 -1.55 1.3 L-1.4 1.25 -1.45 1.35 -1.5 1.45 -1.3 1.45 -1.2 1.3 -1.15 1.15 -1.1 1.3 -1.0 1.2 Q-0.95 1.15 -0.9 1.2 L-0.95 1.3 -0.95 1.45 -0.85 1.4 -0.7 1.3 -0.7 1.25 -0.65 1.15 Q-0.6 1.15 -0.55 1.05 L-0.45 0.95 -0.5 0.9 -0.4 0.85 Q-0.4 0.95 -0.45 1.05 -0.4 1.05 -0.35 1.0 L-0.25 0.95 -0.2 1.0 -0.1 1.0 -0.1 0.95 -0.1 0.95 Q-0.05 0.95 -0.05 1.0 0.0 1.05 -0.05 1.1 L-0.2 1.1 -0.3 1.0 -0.3 1.15 -0.25 1.15 -0.15 1.15 -0.2 1.2 -0.25 1.2 -0.35 1.2 -0.5 1.2 -0.65 1.35 -0.7 1.4 -0.75 1.45 Q-0.7 1.5 -0.75 1.5 L-0.85 1.45 -0.9 1.5 -1.0 1.6 -1.0 1.3 -1.15 1.45 -1.3 1.65 -1.35 1.75 -1.4 1.7 Q-1.45 1.75 -1.5 1.75 L-1.6 1.65 -1.55 1.55 -1.5 1.5 Q-1.5 1.4 -1.65 1.45 -1.55 1.4 -1.55 1.3 L-1.7 1.2 -1.75 1.2 -1.8 1.2 Q-1.8 1.3 -1.85 1.3 L-2.0 1.35 -2.1 1.45 -2.2 1.45 M-1.7 1.2 Q-1.65 1.2 -1.65 1.15 -1.65 1.1 -1.75 1.1 L-1.7 1.2" fill="#46140b" fill-rule="evenodd" stroke="none"/>
    <path d="M-0.9 1.2 L-0.85 1.2 -0.8 1.3 -0.7 1.3 -0.85 1.4 -0.95 1.45 -0.95 1.3 -0.9 1.2" fill="#7f2314" fill-rule="evenodd" stroke="none"/>
    <path d="M0.0 0.65 L0.0 0.75 Q0.0 0.85 -0.05 0.85 L-0.15 0.85 -0.25 0.85 -0.3 0.75 -0.25 0.75 -0.1 0.8 Q0.0 0.75 0.0 0.65" fill="#3d150d" fill-rule="evenodd" stroke="none"/>
    <path d="M-0.05 0.85 Q0.0 0.85 0.0 0.9 0.0 0.95 -0.05 0.95 L-0.05 0.85" fill="#eabb95" fill-rule="evenodd" stroke="none"/>
    <path d="M-0.25 0.95 L-0.25 0.85 -0.15 0.95 Q-0.1 0.95 -0.15 0.85 L-0.05 0.85 -0.05 0.95 -0.1 0.95 -0.1 1.0 -0.2 1.0 -0.25 0.95" fill="#d15522" fill-rule="evenodd" stroke="none"/>
    <path d="M-0.25 0.85 L-0.15 0.85 Q-0.1 0.95 -0.15 0.95 L-0.25 0.85" fill="#e3a780" fill-rule="evenodd" stroke="none"/>
    <path d="M-0.4 1.25 L-0.4 1.2 -0.35 1.2 -0.25 1.2 Q-0.25 1.25 -0.3 1.25 L-0.4 1.25" fill="#842516" fill-rule="evenodd" stroke="none"/>
    <path d="M-0.05 1.1 L-0.1 1.1 -0.15 1.15 -0.25 1.15 -0.3 1.15 -0.3 1.0 -0.2 1.1 -0.05 1.1" fill="#872213" fill-rule="evenodd" stroke="none"/>
    <path d="M-2.0 0.15 Q-2.0 0.15 -1.95 0.1 -1.9 0.15 -1.95 0.15 L-2.0 0.15" fill="#d57e29" fill-rule="evenodd" stroke="none"/>
    <path d="M-1.4 0.9 L-1.45 1.0 -1.5 1.0 -1.55 0.95 -1.6 0.9 -1.65 0.85 -1.6 0.8 Q-1.55 0.9 -1.4 0.9" fill="#3a150d" fill-rule="evenodd" stroke="none"/>
    <path d="M-1.65 0.85 L-1.6 0.9 -1.65 1.0 -1.7 1.0 -1.65 0.85 M-1.7 1.0 L-1.7 1.0" fill="#e2a982" fill-rule="evenodd" stroke="none"/>
    <path d="M-2.2 1.4 L-2.2 0.75 -2.05 0.7 -2.1 0.75 -2.15 0.85 -1.9 0.85 -2.0 0.9 -2.1 0.95 -2.1 1.1 -2.0 1.2 -2.1 1.3 Q-2.1 1.4 -2.2 1.4" fill="#611c10" fill-rule="evenodd" stroke="none"/>
    <path d="M-1.55 0.95 L-1.5 1.0 -1.5 1.0 Q-1.5 1.05 -1.55 1.05 L-1.55 0.95" fill="#e0a27b" fill-rule="evenodd" stroke="none"/>
    <path d="M-1.45 1.0 L-1.5 1.1 -1.7 1.0 -1.65 1.0 -1.6 0.9 -1.55 0.95 -1.55 1.05 Q-1.5 1.05 -1.5 1.0 L-1.5 1.0 -1.45 1.0" fill="#ce5222" fill-rule="evenodd" stroke="none"/>
    <path d="M-1.7 1.2 L-1.7 1.2 -1.75 1.1 Q-1.65 1.1 -1.65 1.15 -1.65 1.2 -1.7 1.2" fill="#af3817" fill-rule="evenodd" stroke="none"/>
  </g>
</svg>
