<?xml version="1.0" encoding="UTF-8" standalone="no"?>
<svg xmlns:xlink="http://www.w3.org/1999/xlink" height="2.5px" width="4.0px" xmlns="http://www.w3.org/2000/svg">
  <g transform="matrix(1.0, 0.0, 0.0, 1.0, 2.1, 2.25)">
    <path d="M0.7 -2.05 L0.85 -1.7 0.65 -1.4 Q0.6 -1.3 0.8 -1.2 L1.2 -1.0 Q1.05 -0.9 0.8 -0.85 L0.35 -0.85 0.2 -0.9 -0.15 -0.85 -0.4 -0.7 -0.7 -0.65 -0.8 -0.55 -0.85 -0.55 -0.8 -0.5 -0.85 -0.5 Q-1.15 -0.7 -1.0 -0.8 L-1.0 -0.85 Q-1.2 -0.9 -1.3 -1.0 L-1.4 -1.1 -1.7 -1.05 -1.75 -1.05 -1.9 -1.1 -1.85 -1.15 -1.95 -1.65 Q-1.85 -1.9 -1.05 -2.15 L-0.95 -2.2 -0.35 -2.25 0.15 -2.25 0.5 -2.15 0.5 -2.1 0.6 -2.1 0.65 -2.05 0.7 -2.05" fill="#16191a" fill-rule="evenodd" stroke="none"/>
    <path d="M-0.8 -0.55 L-0.7 -0.65 -0.4 -0.7 -0.15 -0.85 0.2 -0.9 0.35 -0.85 0.8 -0.85 Q1.05 -0.9 1.2 -1.0 L0.8 -1.2 Q0.6 -1.3 0.65 -1.4 L0.85 -1.7 0.7 -2.05 Q0.85 -1.75 1.35 -1.25 L1.4 -1.05 1.25 -0.9 1.4 -0.8 Q1.15 -0.7 1.15 -0.7 L1.35 -0.55 1.45 -0.55 1.55 -0.35 1.7 -0.35 1.85 -0.3 1.8 -0.15 0.35 -0.4 0.15 -0.4 -0.05 -0.4 Q-0.25 -0.4 -0.55 -0.55 L-0.8 -0.55 M-1.9 -1.1 L-1.75 -1.05 -1.7 -1.05 -1.4 -1.1 -1.3 -1.0 Q-1.2 -0.9 -1.0 -0.85 L-1.0 -0.8 Q-1.15 -0.7 -0.85 -0.5 L-0.8 -0.5 Q-0.75 -0.45 -0.75 -0.35 -0.75 -0.35 -0.8 -0.35 L-0.75 -0.3 -0.4 -0.3 0.0 -0.2 -0.35 -0.1 -0.7 -0.05 -1.0 -0.05 -1.3 0.0 Q-1.55 -0.05 -1.65 -0.1 L-1.65 -0.1 Q-1.5 -0.3 -1.2 -0.25 L-1.2 -0.4 -1.5 -0.6 Q-1.35 -0.75 -1.2 -0.65 L-1.15 -0.65 -1.4 -0.9 -1.7 -0.85 -1.7 -0.9 -2.0 -1.05 -1.9 -1.1" fill="#303636" fill-rule="evenodd" stroke="none"/>
    <path d="M0.0 -0.2 L0.4 -0.2 1.35 0.05 1.7 0.15 1.5 0.2 0.0 -0.2" fill="#262421" fill-rule="evenodd" stroke="none"/>
    <path d="M-0.8 -0.5 L-0.85 -0.55 -0.8 -0.55 -0.55 -0.55 Q-0.25 -0.4 -0.05 -0.4 L0.15 -0.4 0.35 -0.4 1.8 -0.15 1.8 0.05 1.7 0.15 1.35 0.05 0.4 -0.2 0.0 -0.2 -0.4 -0.3 -0.75 -0.3 -0.8 -0.35 Q-0.75 -0.35 -0.75 -0.35 -0.75 -0.45 -0.8 -0.5 M1.85 -0.3 L1.7 -0.35 1.55 -0.35 1.45 -0.55 1.35 -0.55 1.15 -0.7 Q1.15 -0.7 1.4 -0.8 L1.25 -0.9 1.4 -1.05 1.35 -1.25 1.6 -1.05 1.6 -1.0 Q1.85 -0.75 1.85 -0.35 L1.85 -0.3 M-2.0 -1.05 L-1.7 -0.9 -1.7 -0.85 -1.4 -0.9 -1.15 -0.65 -1.2 -0.65 Q-1.35 -0.75 -1.5 -0.6 L-1.2 -0.4 -1.2 -0.25 Q-1.5 -0.3 -1.65 -0.1 L-1.8 -0.35 -1.95 -0.65 Q-2.1 -0.8 -2.05 -0.9 L-2.0 -1.05 M0.0 -0.2 L0.0 -0.2" fill="#4a3926" fill-rule="evenodd" stroke="none"/>
    <path d="M0.7 -2.05 L0.65 -2.05 0.6 -2.1 0.5 -2.1 0.5 -2.15 M-1.05 -2.15 Q-1.85 -1.9 -1.95 -1.65 L-1.85 -1.15 -1.9 -1.1 -2.0 -1.05 -2.05 -0.9 Q-2.1 -0.8 -1.95 -0.65 L-1.8 -0.35 -1.65 -0.1 -1.65 -0.1 Q-1.55 -0.05 -1.3 0.0 L-1.0 -0.05 -0.7 -0.05 -0.35 -0.1 0.0 -0.2 0.0 -0.2 1.5 0.2 1.7 0.15 1.8 0.05 1.8 -0.15 1.85 -0.3 1.85 -0.35 Q1.85 -0.75 1.6 -1.0 L1.6 -1.05 1.35 -1.25 Q0.85 -1.75 0.7 -2.05" fill="none" stroke="#000000" stroke-linecap="round" stroke-linejoin="round" stroke-opacity="0.4509804" stroke-width="0.1"/>
  </g>
</svg>
