<?xml version="1.0" encoding="UTF-8" standalone="no"?>
<svg xmlns:xlink="http://www.w3.org/1999/xlink" height="12.9px" width="0.7px" xmlns="http://www.w3.org/2000/svg">
  <g transform="matrix(1.0, 0.0, 0.0, 1.0, 0.35, 7.65)">
    <path d="M-0.1 -6.95 L-0.1 -7.0 -0.05 -7.1 -0.05 -7.25 0.0 -7.3 -0.05 -7.3 0.0 -7.35 0.0 -7.3 0.05 -7.25 0.05 -7.3 0.1 -7.3 0.2 -7.1 0.25 -6.95 0.3 -6.8 0.3 -6.85 0.25 -6.85 0.25 -6.85 0.2 -6.95 0.1 -7.05 0.05 -7.1 0.0 -7.1 0.0 -6.95 -0.05 -6.95 0.0 -6.95 0.0 -6.85 0.0 4.8 -0.05 4.8 -0.05 -6.95 -0.1 -6.95 -0.1 -6.95 M0.0 4.8 L0.0 4.8" fill="#ac7f64" fill-rule="evenodd" stroke="none"/>
    <path d="M0.25 -6.95 L0.2 -7.1 0.1 -7.3 0.05 -7.3 0.05 -7.25 0.0 -7.3 0.0 -7.35 -0.05 -7.3 0.0 -7.3 -0.05 -7.25 -0.05 -7.1 -0.1 -7.0 -0.1 -6.95 -0.1 -6.9 -0.1 -6.9 -0.1 -6.85 -0.15 -6.85 -0.2 -6.85 -0.3 -6.85 -0.25 -7.0 -0.25 -7.05 -0.15 -7.15 -0.1 -7.3 0.0 -7.5 0.25 -6.95 M-0.1 -6.9 L-0.15 -6.85 -0.1 -6.9" fill="#e7c694" fill-rule="evenodd" stroke="none"/>
    <path d="M-0.1 -6.95 L-0.05 -6.95 -0.05 4.8 0.0 4.8 0.0 -6.85 0.0 -6.95 -0.05 -6.95 0.0 -6.95 0.0 -7.1 0.05 -7.1 0.1 -7.05 0.2 -6.95 0.25 -6.85 0.25 -6.85 0.25 -6.85 0.15 -6.8 0.05 -6.75 0.05 4.55 0.15 4.7 0.2 4.8 0.2 4.9 0.2 5.0 0.1 5.15 0.05 5.15 0.0 5.2 -0.1 5.25 -0.15 5.15 -0.2 5.05 -0.2 4.9 -0.2 4.75 -0.15 4.8 -0.05 4.9 -0.1 4.9 -0.1 4.9 -0.15 4.9 -0.1 4.95 -0.1 4.95 -0.05 4.95 -0.1 5.0 -0.1 5.0 -0.15 5.0 -0.15 5.0 -0.1 5.1 -0.05 5.15 -0.05 5.15 0.0 5.15 0.05 5.1 0.1 5.05 0.15 4.95 0.1 4.95 0.15 4.9 0.15 4.85 0.1 4.85 0.05 4.85 0.1 4.8 0.1 4.7 0.05 4.65 0.05 4.75 0.0 4.8 0.0 4.85 -0.05 4.8 -0.1 4.8 -0.15 4.75 -0.15 4.6 -0.15 4.6 -0.1 4.55 -0.1 -6.85 -0.1 -6.9 -0.1 -6.95" fill="#83604c" fill-rule="evenodd" stroke="none"/>
    <path d="M0.0 -7.5 L-0.1 -7.3 -0.15 -7.15 -0.25 -7.05 -0.2 -7.1 -0.15 -7.2 0.0 -7.65 0.0 -7.5" fill="#ffebcd" fill-rule="evenodd" stroke="none"/>
    <path d="M0.0 4.8 L0.0 4.8 0.05 4.75 0.05 4.65 0.1 4.7 0.1 4.8 0.05 4.85 0.1 4.85 0.15 4.85 0.15 4.9 0.1 4.95 0.15 4.95 0.1 5.05 0.05 5.1 0.0 5.15 -0.05 5.15 -0.05 5.15 -0.1 5.1 -0.15 5.0 -0.15 5.0 -0.1 5.0 -0.1 5.0 -0.05 4.95 -0.1 4.95 -0.1 4.95 -0.15 4.9 -0.1 4.9 -0.1 4.9 -0.05 4.9 -0.15 4.8 -0.2 4.75 -0.2 4.65 -0.15 4.6 -0.15 4.75 -0.1 4.8 -0.05 4.8 0.0 4.85 0.0 4.8" fill="#584133" fill-rule="evenodd" stroke="none"/>
    <path d="M0.25 -6.95 L0.0 -7.5 0.0 -7.65 -0.15 -7.2 -0.2 -7.1 -0.25 -7.05 -0.25 -7.0 -0.3 -6.85 -0.2 -6.85 -0.15 -6.85 -0.1 -6.9 M0.25 -6.85 L0.3 -6.85 0.3 -6.8 0.25 -6.95 M-0.2 4.75 L-0.2 4.9 -0.2 5.05 -0.15 5.15 -0.1 5.25 0.0 5.2 0.05 5.15 0.1 5.15 0.2 5.0 0.2 4.9 0.2 4.8 0.15 4.7 0.05 4.55 0.05 -6.75 0.15 -6.8 0.25 -6.85 0.25 -6.85 M-0.1 -6.85 L-0.15 -6.85 M-0.15 4.6 L-0.15 4.6 -0.1 4.55 -0.1 -6.85 M-0.15 4.6 L-0.2 4.65 -0.2 4.75" fill="none" stroke="#000000" stroke-linecap="round" stroke-linejoin="round" stroke-opacity="0.4509804" stroke-width="1.0"/>
  </g>
</svg>
