<?xml version="1.0" encoding="UTF-8" standalone="no"?>
<svg xmlns:xlink="http://www.w3.org/1999/xlink" height="25.75px" width="141.4px" xmlns="http://www.w3.org/2000/svg">
  <g transform="matrix(1.0, 0.0, 0.0, 1.0, 0.0, 0.0)">
    <path d="M141.05 0.5 L141.0 0.4 Q140.95 0.35 140.9 0.35 L139.65 0.35 Q139.45 0.2 139.3 0.0 L140.9 0.0 Q141.1 0.0 141.25 0.15 141.4 0.3 141.4 0.5 L141.25 0.55 141.05 0.5 M134.9 0.35 L132.05 0.35 129.5 0.35 129.45 0.35 128.7 0.35 126.65 0.35 114.8 0.35 106.65 0.35 108.8 0.1 125.25 0.1 126.7 0.0 126.75 0.0 135.3 0.0 134.9 0.35 M33.4 0.35 L33.15 0.35 5.2 0.35 Q5.15 0.25 5.15 0.0 L23.0 0.0 33.6 0.35 33.4 0.35 M1.0 0.35 L0.65 0.35 0.65 0.05 0.7 0.0 1.15 0.0 1.0 0.35 M0.35 0.5 L0.35 0.85 0.0 0.95 0.0 0.5 0.05 0.35 0.35 0.5 M28.6 25.4 L40.75 25.4 41.2 25.4 42.75 25.55 69.65 25.45 71.5 25.55 71.95 25.55 106.3 25.55 108.55 25.4 129.5 25.4 129.5 25.45 128.7 25.6 127.5 25.7 31.6 25.7 30.95 25.55 30.5 25.55 28.6 25.4 M114.75 0.65 L113.85 1.0 20.1 1.0 17.5 0.65 21.35 0.65 25.25 0.85 104.65 0.85 105.3 0.8 105.75 0.8 Q106.3 0.75 106.3 0.65 L114.75 0.65 M135.5 24.75 L135.1 25.05 134.85 25.1 131.05 25.1 129.7 25.1 129.5 25.1 128.7 25.1 127.7 25.1 5.75 25.1 5.4 25.05 Q5.35 25.0 5.35 24.8 L7.65 24.75 7.75 24.75 7.75 24.8 11.05 24.75 Q12.35 24.8 14.3 24.75 L14.9 24.75 17.8 24.75 17.95 24.75 19.9 24.75 21.3 24.75 21.6 24.75 23.55 24.75 25.45 24.85 25.45 24.8 31.35 24.95 109.15 24.9 109.85 24.85 124.4 24.85 124.45 24.85 124.6 24.85 126.3 24.85 127.55 24.75 128.2 24.75 128.4 24.75 130.35 24.8 131.7 24.75 132.35 24.75 132.35 24.85 135.5 24.75 M1.1 0.65 L1.05 0.75 1.0 0.75 Q0.85 1.0 0.65 1.0 L0.65 0.8 0.7 0.7 0.75 0.65 0.8 0.65 1.1 0.65" fill="#525655" fill-rule="evenodd" stroke="none"/>
    <path d="M141.05 0.5 L141.25 0.55 141.4 0.5 141.4 25.25 Q141.4 25.4 141.25 25.55 141.1 25.7 140.9 25.7 L127.5 25.7 128.7 25.6 129.5 25.45 129.5 25.4 140.9 25.4 141.0 25.35 141.05 25.25 141.05 0.5 M139.3 0.0 Q139.45 0.2 139.65 0.35 L134.9 0.35 135.3 0.0 139.3 0.0 M114.8 0.35 L114.6 0.35 108.0 0.35 33.4 0.35 33.6 0.35 38.55 0.35 96.3 0.35 106.65 0.35 114.8 0.35 M5.2 0.35 L1.0 0.35 1.15 0.0 5.15 0.0 Q5.15 0.25 5.2 0.35 M0.35 0.85 L0.35 25.25 0.4 25.35 0.45 25.4 0.5 25.4 6.05 25.4 6.9 25.4 9.7 25.4 10.25 25.4 28.6 25.4 30.5 25.55 30.95 25.55 31.6 25.7 0.5 25.7 Q0.3 25.7 0.15 25.55 0.0 25.4 0.0 25.25 L0.0 0.95 0.35 0.85 M114.75 0.65 L140.55 0.65 140.6 0.65 140.7 0.7 140.75 0.8 140.75 14.4 140.75 15.45 140.75 24.9 140.7 25.0 140.65 25.05 140.55 25.05 135.35 25.1 135.1 25.05 135.5 24.75 Q138.2 24.7 140.3 24.8 L140.3 24.75 140.4 24.75 140.4 24.65 140.45 24.65 140.45 1.05 140.4 1.05 140.4 1.0 113.85 1.0 114.75 0.65 M17.5 0.65 L20.1 1.0 1.0 1.0 1.0 24.75 1.1 24.75 1.1 24.8 Q2.15 24.75 4.35 24.75 L5.35 24.8 Q5.35 25.0 5.4 25.05 L0.8 25.05 0.7 25.05 0.7 25.0 0.65 24.9 0.65 1.0 Q0.85 1.0 1.0 0.75 L1.05 0.75 1.1 0.65 2.7 0.65 3.55 0.65 17.5 0.65 M9.7 25.4 L10.25 25.4 9.7 25.4" fill="#2e3231" fill-rule="evenodd" stroke="none"/>
    <path d="M0.65 0.35 L0.5 0.35 Q0.45 0.35 0.4 0.4 0.35 0.4 0.35 0.5 L0.05 0.35 Q0.05 0.25 0.15 0.15 0.3 0.0 0.5 0.0 L0.7 0.0 0.65 0.05 0.65 0.35 M41.2 25.4 L41.75 25.4 107.55 25.4 Q107.85 25.35 108.35 25.4 L108.55 25.4 106.3 25.55 71.95 25.55 71.5 25.55 69.65 25.45 42.75 25.55 41.2 25.4 M120.05 24.75 L120.45 24.75 122.3 24.8 123.75 24.75 124.25 24.75 124.4 24.85 109.85 24.85 109.15 24.9 31.35 24.95 25.45 24.8 25.45 24.75 26.05 24.75 27.45 24.75 29.4 24.75 29.6 24.75 31.55 24.8 32.9 24.75 33.55 24.75 33.55 24.85 Q35.0 24.8 37.5 24.75 L38.2 24.85 103.55 24.85 106.45 24.8 106.5 24.85 Q107.8 24.75 109.8 24.75 L112.7 24.75 113.1 24.75 113.3 24.75 113.4 24.75 113.7 24.75 116.6 24.75 117.15 24.75 118.9 24.75 120.05 24.75 M126.7 0.0 L125.25 0.1 108.8 0.1 106.65 0.35 96.3 0.35 106.5 0.0 126.7 0.0 M23.0 0.0 L25.45 0.0 35.8 0.0 36.25 0.0 36.3 0.0 35.8 0.0 36.3 0.0 38.55 0.35 33.6 0.35 23.0 0.0 M106.3 0.65 Q106.3 0.75 105.75 0.8 L105.3 0.8 104.65 0.85 25.25 0.85 21.35 0.65 106.3 0.65 M127.55 24.75 L126.3 24.85 124.6 24.85 126.3 24.75 127.55 24.75" fill="#9a9b9b" fill-rule="evenodd" stroke="none"/>
    <path d="M36.25 0.0 L36.75 0.0 106.5 0.0 96.3 0.35 38.55 0.35 36.3 0.0 36.25 0.0 M106.45 24.75 L106.45 24.8 103.55 24.85 38.2 24.85 37.5 24.75 41.4 24.75 41.6 24.75 Q43.25 24.75 45.3 24.75 L45.65 24.75 49.35 24.75 49.55 24.75 53.25 24.75 53.4 24.75 55.2 24.75 55.65 24.75 58.05 24.75 60.75 24.75 63.65 24.75 64.2 24.75 66.8 24.75 69.35 24.75 70.7 24.75 70.95 24.75 74.8 24.75 75.05 24.75 78.9 24.75 79.1 24.75 Q81.15 24.8 82.75 24.75 L83.15 24.75 85.05 24.75 86.95 24.85 86.95 24.75 87.65 24.75 88.85 24.75 90.75 24.75 91.15 24.75 94.8 24.75 94.95 24.75 101.7 24.75 104.1 24.8 105.85 24.75 106.45 24.75 M36.75 0.0 L36.3 0.0 36.75 0.0" fill="#c4c6c6" fill-rule="evenodd" stroke="none"/>
    <path d="M129.25 6.25 Q130.1 6.5 130.9 7.05 L130.45 7.85 Q130.15 8.3 129.9 8.55 L129.15 8.75 128.35 8.9 Q127.1 8.95 125.35 8.95 L122.35 8.9 Q121.95 8.6 121.25 8.4 L120.05 8.1 120.6 7.75 Q121.0 7.0 120.8 5.85 120.7 5.4 120.3 5.05 120.05 4.85 119.45 4.55 L119.25 5.6 118.95 5.7 118.8 4.7 118.0 6.45 Q118.2 5.55 118.2 5.2 118.05 4.95 117.75 4.7 L117.25 4.25 116.55 4.85 116.35 4.8 116.6 3.9 115.8 4.35 115.7 4.45 116.0 3.7 116.55 3.35 116.4 2.75 116.95 2.55 116.95 2.0 115.1 2.15 114.4 3.2 114.65 2.0 113.05 2.1 112.75 3.25 112.35 3.25 111.95 3.25 112.65 3.15 112.55 2.35 Q112.35 2.25 112.05 2.1 L111.55 1.9 112.05 2.8 Q110.8 1.8 109.7 1.95 107.6 2.1 105.0 2.05 L102.45 2.05 102.45 2.6 103.2 2.55 103.25 3.05 Q102.9 3.65 102.8 3.95 102.65 4.55 102.95 4.9 103.2 5.05 103.65 5.25 L104.35 5.5 Q103.65 6.0 102.85 6.15 102.05 6.35 101.25 6.1 101.8 5.0 102.5 3.9 L102.3 3.65 100.45 4.05 Q100.75 2.8 101.45 2.0 L98.5 2.1 Q96.95 1.95 95.2 2.05 L93.35 2.05 92.95 2.05 90.8 2.0 Q91.15 2.8 90.95 3.6 L89.9 1.95 89.4 2.3 88.95 1.8 88.8 1.95 88.35 2.25 87.0 1.6 Q88.0 1.55 89.45 1.55 L91.95 1.6 Q94.1 1.5 97.85 1.55 L108.7 1.55 Q109.95 1.6 112.1 1.55 L115.25 1.5 118.35 1.45 122.1 1.6 121.15 2.6 120.2 3.65 120.7 3.65 Q121.05 3.65 121.2 3.5 L122.1 2.35 Q122.15 3.4 122.2 4.55 L123.65 3.9 Q124.0 5.0 124.0 6.3 L124.85 6.05 125.35 6.5 125.3 6.0 125.0 5.5 125.15 4.9 Q125.25 4.5 125.1 4.25 124.85 4.1 124.5 4.0 L123.9 3.8 124.1 3.2 125.9 4.05 126.15 4.75 Q126.3 5.1 126.5 5.35 L127.75 4.55 Q128.1 4.9 128.2 5.55 128.25 5.8 128.3 6.65 L128.75 6.9 129.25 6.25 M121.85 6.85 Q121.7 5.95 121.7 5.7 L121.1 5.6 Q121.6 6.55 121.8 7.95 122.0 7.55 121.85 6.85 M118.3 2.6 L118.1 2.05 117.4 2.0 117.4 2.75 118.3 2.6" fill="#4f2f18" fill-rule="evenodd" stroke="none"/>
    <path d="M140.3 24.75 L140.3 24.8 140.3 24.65 Q140.2 23.0 140.2 22.2 L140.2 18.65 Q140.2 16.5 140.25 15.15 140.3 14.4 140.15 12.45 140.05 10.7 140.15 9.7 L136.35 9.65 136.35 12.6 Q136.4 14.35 136.3 15.5 L136.35 19.75 Q136.35 22.25 136.25 24.05 136.15 22.6 136.15 20.2 L136.15 16.35 Q136.1 15.05 136.1 13.0 L136.1 9.65 134.85 9.8 Q133.7 9.55 132.45 9.6 132.35 11.7 132.45 14.9 L132.55 20.15 Q132.45 20.9 132.5 22.5 132.5 23.85 132.4 24.65 L132.4 24.75 132.35 24.85 132.35 24.75 132.35 24.7 132.35 24.65 Q132.15 23.7 132.2 22.2 L132.2 19.7 Q132.2 17.45 132.1 12.95 132.15 10.9 132.05 9.65 130.25 9.6 128.4 9.65 L128.4 12.45 Q128.4 14.1 128.3 15.2 128.1 14.1 128.1 12.45 128.15 10.65 128.15 9.7 L127.95 9.7 Q127.25 9.65 126.15 9.65 L124.4 9.65 124.4 9.85 124.35 17.35 Q124.35 21.55 124.45 24.65 L124.45 24.85 124.4 24.85 124.25 24.75 124.2 24.7 124.1 24.4 124.1 19.2 Q124.05 15.8 124.1 13.95 L124.1 9.65 120.25 9.65 120.3 12.5 120.35 15.3 Q120.2 20.3 120.45 24.65 L120.45 24.75 120.05 24.75 120.05 24.65 Q119.95 21.7 120.0 17.2 L120.05 9.65 118.2 9.65 117.7 9.4 Q119.1 9.3 121.5 9.3 L125.35 9.25 Q126.65 9.2 128.2 9.3 130.75 9.4 134.85 9.3 137.55 9.4 139.2 9.4 139.6 9.4 140.3 9.1 139.5 8.85 138.3 8.85 L136.3 8.9 132.35 8.95 Q130.0 8.95 128.35 8.9 L129.15 8.75 129.9 8.55 Q130.15 8.3 130.45 7.85 L130.9 7.05 Q130.1 6.5 129.25 6.25 L129.05 5.7 130.1 5.55 Q130.7 5.4 130.8 4.95 130.8 4.5 130.6 4.0 L130.25 3.1 130.65 3.0 130.05 2.4 128.75 3.6 128.9 4.1 129.1 4.6 Q128.2 3.95 127.45 3.0 L127.75 2.0 126.7 2.0 126.4 3.7 127.75 4.55 126.5 5.35 Q126.3 5.1 126.15 4.75 L125.9 4.05 126.15 3.1 Q126.25 2.5 125.8 2.3 L123.3 2.0 Q122.7 1.9 122.1 2.35 L121.2 3.5 Q121.05 3.65 120.7 3.65 L120.2 3.65 121.15 2.6 122.1 1.6 Q123.1 1.55 124.75 1.6 L127.4 1.65 Q129.55 1.5 133.5 1.55 137.75 1.6 139.65 1.5 L140.4 1.45 140.45 1.45 Q140.4 4.3 140.4 9.4 L140.4 15.95 140.35 17.3 140.4 21.05 Q140.4 23.25 140.3 24.65 L140.3 24.75 M41.6 24.75 L41.4 24.75 41.35 22.4 41.35 18.65 Q41.35 16.45 41.45 14.95 41.5 14.4 41.35 12.45 41.25 10.95 41.5 10.0 41.55 11.25 41.55 13.35 L41.6 16.75 41.6 24.65 41.6 24.75 M41.9 1.55 Q40.1 1.85 38.1 1.55 L40.0 1.5 41.9 1.55" fill="#40220e" fill-rule="evenodd" stroke="none"/>
    <path d="M122.1 2.35 Q122.7 1.9 123.3 2.0 L125.8 2.3 Q126.25 2.5 126.15 3.1 L125.9 4.05 124.1 3.2 123.9 3.8 124.5 4.0 Q124.85 4.1 125.1 4.25 125.25 4.5 125.15 4.9 L125.0 5.5 125.3 6.0 125.35 6.5 124.85 6.05 124.0 6.3 Q124.0 5.0 123.65 3.9 L122.2 4.55 Q122.15 3.4 122.1 2.35" fill="#78310f" fill-rule="evenodd" stroke="none"/>
    <path d="M127.75 4.55 L126.4 3.7 126.7 2.0 127.75 2.0 127.45 3.0 Q128.2 3.95 129.1 4.6 L128.9 4.1 128.75 3.6 130.05 2.4 130.65 3.0 130.25 3.1 130.6 4.0 Q130.8 4.5 130.8 4.95 130.7 5.4 130.1 5.55 L129.05 5.7 129.25 6.25 128.75 6.9 128.3 6.65 Q128.25 5.8 128.2 5.55 128.1 4.9 127.75 4.55" fill="#5f2b10" fill-rule="evenodd" stroke="none"/>
    <path d="M132.35 1.25 Q133.2 1.5 134.45 1.5 L136.55 1.45 138.1 1.5 139.65 1.5 Q137.75 1.6 133.5 1.55 129.55 1.5 127.4 1.65 L124.75 1.6 Q123.1 1.55 122.1 1.6 L118.35 1.45 126.95 1.5 129.35 1.5 Q130.8 1.5 131.75 1.25 L132.35 1.25" fill="#af8e59" fill-rule="evenodd" stroke="none"/>
    <path d="M112.1 1.15 L128.2 1.15 129.95 1.15 131.75 1.25 Q130.8 1.5 129.35 1.5 L126.95 1.5 118.35 1.45 115.25 1.5 112.1 1.55 112.1 1.15" fill="#eecf90" fill-rule="evenodd" stroke="none"/>
    <path d="M121.85 6.85 Q122.0 7.55 121.8 7.95 121.6 6.55 121.1 5.6 L121.7 5.7 Q121.7 5.95 121.85 6.85 M39.05 5.85 Q39.5 6.1 39.75 6.9 40.05 7.8 40.25 8.05 L41.6 8.2 41.6 8.6 41.2 8.85 40.7 8.85 40.25 8.85 Q39.6 8.15 38.45 8.0 L38.15 8.85 37.65 8.3 37.4 8.85 37.1 7.5 35.55 7.85 Q34.6 8.15 34.35 8.8 L31.05 8.85 31.25 9.3 30.95 9.25 Q30.05 8.85 29.2 8.9 L29.2 8.15 Q29.15 7.7 29.05 7.45 28.9 7.15 28.65 6.9 L28.15 6.4 27.5 6.5 27.55 5.25 28.35 5.3 Q28.85 3.55 28.8 2.0 L29.75 2.05 30.35 2.85 30.7 2.35 30.8 2.2 30.5 4.8 Q30.35 6.35 30.55 7.45 30.55 7.65 30.6 7.8 30.7 7.95 30.9 7.95 31.65 8.15 32.75 7.6 31.95 6.3 31.7 4.9 31.45 3.4 31.8 2.0 L32.45 2.0 32.5 2.5 Q32.95 2.3 33.4 2.05 L32.85 2.85 Q32.55 3.35 32.6 3.75 32.6 4.5 32.95 5.2 33.25 5.9 33.8 6.4 L36.0 6.85 Q36.4 6.75 36.8 6.35 L37.55 5.75 37.35 7.35 39.0 7.35 39.5 7.3 39.05 5.85 M32.8 7.65 Q33.25 8.4 34.1 8.4 L34.1 7.75 32.8 7.65" fill="#a48b4f" fill-rule="evenodd" stroke="none"/>
    <path d="M124.4 9.85 L124.4 9.65 126.15 9.65 Q127.25 9.65 127.95 9.7 L127.95 11.65 127.9 13.6 Q127.9 14.1 127.35 14.75 126.75 15.45 126.65 15.8 L126.5 16.5 126.4 17.2 Q126.2 16.75 126.0 15.7 125.85 14.7 125.55 14.2 124.85 14.9 124.5 15.95 L124.5 12.9 124.4 9.85 M75.15 19.15 Q75.1 17.65 75.1 14.4 L75.0 9.65 78.65 9.65 78.65 12.3 78.6 14.95 77.35 15.1 Q77.3 16.45 76.9 17.25 76.8 16.85 76.7 16.0 76.55 15.2 76.45 14.75 76.25 14.65 76.0 14.5 L75.55 14.3 Q75.5 14.75 75.5 16.75 75.5 18.25 75.15 19.15 M29.15 9.7 L29.15 11.65 29.1 13.6 Q29.1 14.1 28.55 14.75 27.95 15.45 27.85 15.8 L27.7 16.5 27.6 17.2 Q27.4 16.75 27.2 15.7 27.05 14.7 26.75 14.2 26.1 14.9 25.7 15.95 L25.65 12.8 Q25.65 10.9 25.7 9.65 27.55 9.55 29.15 9.7" fill="#7c5a43" fill-rule="evenodd" stroke="none"/>
    <path d="M128.2 9.3 Q126.65 9.2 125.35 9.25 L121.5 9.3 Q119.1 9.3 117.7 9.4 L114.75 9.3 114.75 8.85 115.95 8.85 117.35 8.85 Q120.2 8.9 122.35 8.9 L125.35 8.95 Q127.1 8.95 128.35 8.9 L128.2 9.3 M107.95 1.2 L108.7 1.55 97.85 1.55 Q94.1 1.5 91.95 1.6 L89.45 1.55 Q88.0 1.55 87.0 1.6 L84.1 1.5 86.5 1.35 88.85 1.35 91.25 1.4 93.6 1.2 93.75 1.2 93.9 1.25 96.35 1.45 Q98.4 1.45 98.85 1.5 100.1 1.45 102.55 1.45 L106.25 1.2 107.1 1.1 Q107.6 1.1 107.95 1.2 M72.95 5.35 L73.85 5.35 73.8 5.0 75.2 6.25 Q75.65 6.5 76.25 6.65 L77.35 6.9 77.75 7.35 Q77.0 7.65 76.6 7.95 76.0 8.3 75.75 8.85 L73.95 8.85 72.15 8.75 Q73.45 8.4 74.45 7.55 L75.25 8.6 Q75.3 7.9 74.75 7.05 74.05 6.2 73.8 5.7 L73.75 6.55 73.3 5.6 73.0 5.65 72.95 5.5 72.95 5.35 M43.55 8.95 Q44.4 9.3 45.6 9.3 L47.7 9.25 Q48.7 9.2 50.5 9.2 52.45 9.25 53.35 9.2 L53.9 9.35 47.75 9.4 Q44.3 9.4 41.6 9.3 L38.3 9.35 Q36.3 9.35 35.05 9.25 35.7 8.85 35.95 8.75 L36.65 8.75 37.4 8.85 37.65 8.3 38.15 8.85 39.2 8.85 39.75 8.85 40.7 8.85 41.2 8.85 43.55 8.95 M19.15 1.4 Q20.05 1.2 21.3 1.15 L23.5 1.15 Q24.1 1.1 25.15 1.45 23.9 1.55 22.15 1.5 L19.15 1.4" fill="#dcc789" fill-rule="evenodd" stroke="none"/>
    <path d="M124.45 24.85 L124.45 24.65 Q124.35 21.55 124.35 17.35 L124.4 9.85 124.5 12.9 124.5 15.95 Q124.85 14.9 125.55 14.2 125.85 14.7 126.0 15.7 126.2 16.75 126.4 17.2 L126.5 16.5 126.65 15.8 Q126.75 15.45 127.35 14.75 127.9 14.1 127.9 13.6 L127.95 11.65 127.95 9.7 128.15 9.7 Q128.15 10.65 128.1 12.45 128.1 14.1 128.3 15.2 L128.3 15.35 Q128.25 17.15 128.25 20.05 L128.2 24.65 128.2 24.75 127.55 24.75 126.3 24.75 124.6 24.85 124.45 24.85 M29.5 15.2 L29.5 15.35 Q29.45 17.15 29.45 20.05 L29.4 24.65 29.4 24.75 27.45 24.75 26.05 24.75 25.45 24.7 25.45 24.65 Q25.55 24.0 25.55 23.15 L25.55 21.65 Q25.5 19.6 25.55 15.65 25.55 11.6 25.5 9.65 L25.7 9.65 Q25.65 10.9 25.65 12.8 L25.7 15.95 Q26.1 14.9 26.75 14.2 27.05 14.7 27.2 15.7 27.4 16.75 27.6 17.2 L27.7 16.5 27.85 15.8 Q27.95 15.45 28.55 14.75 29.1 14.1 29.1 13.6 L29.15 11.65 29.15 9.7 29.35 9.7 29.35 12.45 Q29.3 14.1 29.5 15.2" fill="#6e4934" fill-rule="evenodd" stroke="none"/>
    <path d="M136.3 8.9 L136.5 9.2 134.85 9.3 Q130.75 9.4 128.2 9.3 L128.35 8.9 Q130.0 8.95 132.35 8.95 L136.3 8.9 M112.1 1.15 L112.1 1.55 Q109.95 1.6 108.7 1.55 L107.95 1.2 110.0 1.15 112.1 1.15 M93.6 1.2 L91.25 1.4 88.85 1.35 86.5 1.35 84.1 1.5 83.25 1.55 Q81.75 1.4 80.5 1.55 L76.15 1.55 71.8 1.5 Q70.65 1.4 68.75 1.5 L65.7 1.55 64.15 1.2 Q66.3 1.1 69.7 1.15 L75.2 1.15 92.35 1.15 93.6 1.2 M93.6 9.4 L93.4 9.4 87.05 9.4 80.7 9.4 Q79.1 9.3 75.4 9.35 71.95 9.45 70.05 9.3 L71.05 8.85 72.15 8.75 73.95 8.85 75.75 8.85 Q77.45 8.95 78.35 8.9 L79.2 8.9 81.15 8.95 82.7 8.95 82.95 8.95 83.2 8.95 85.3 8.95 92.4 8.95 93.35 8.9 93.45 8.9 93.55 8.9 93.6 9.4 M59.9 9.35 L59.25 9.45 Q56.5 9.3 54.5 9.45 L53.9 9.35 53.35 9.2 55.45 9.0 57.75 9.0 Q59.15 9.0 60.05 9.2 L59.9 9.35 M68.6 8.9 L69.2 9.3 66.1 9.25 66.1 8.95 66.65 8.95 68.4 8.9 68.6 8.9 M61.1 8.8 L61.5 8.85 63.05 8.95 Q63.95 9.0 64.55 9.25 63.85 9.2 62.4 9.25 60.95 9.25 60.25 9.2 L61.1 8.8 M1.2 1.3 L4.45 1.2 Q6.45 1.1 7.65 1.3 6.85 1.5 5.55 1.5 L3.45 1.5 1.0 1.35 1.2 1.3 M12.55 9.2 Q11.7 9.15 10.35 9.2 L8.2 9.2 Q5.4 9.2 3.95 9.2 L4.0 9.15 7.0 9.0 Q8.05 8.95 9.55 9.0 L12.15 9.1 12.55 9.2" fill="#ffffff" fill-rule="evenodd" stroke="none"/>
    <path d="M118.3 2.6 L117.4 2.75 117.4 2.0 118.1 2.05 118.3 2.6" fill="#92673d" fill-rule="evenodd" stroke="none"/>
    <path d="M115.95 6.6 Q115.4 6.0 115.2 5.6 114.85 4.95 114.95 4.4 115.0 3.85 115.45 3.4 L116.4 2.75 116.55 3.35 116.0 3.7 115.55 3.6 Q115.3 4.95 115.8 5.65 L115.7 4.45 115.8 4.35 116.35 4.8 116.55 4.85 117.25 4.25 117.75 4.7 Q118.05 4.95 118.2 5.2 118.2 5.55 118.0 6.45 L118.8 4.7 118.95 5.7 119.25 5.6 119.45 4.55 Q120.05 4.85 120.3 5.05 120.7 5.4 120.8 5.85 120.25 6.6 120.6 7.75 L120.05 8.1 119.65 7.9 120.0 6.65 Q118.4 6.3 117.15 6.9 L115.95 6.6" fill="#633e20" fill-rule="evenodd" stroke="none"/>
    <path d="M116.4 2.75 L115.45 3.4 Q115.0 3.85 114.95 4.4 114.85 4.95 115.2 5.6 115.4 6.0 115.95 6.6 116.05 7.1 115.9 7.85 115.3 7.55 114.85 6.85 114.6 6.45 114.25 5.6 L114.4 4.0 Q115.05 2.95 115.85 2.15 L116.4 2.75" fill="#bb9857" fill-rule="evenodd" stroke="none"/>
    <path d="M115.7 4.45 L115.8 5.65 Q115.3 4.95 115.55 3.6 L116.0 3.7 115.7 4.45 M77.55 3.0 L78.4 3.85 78.3 5.0 77.9 3.7 77.25 4.3 77.2 3.95 77.4 3.45 76.85 2.65 77.55 3.0 M27.7 9.35 L25.3 9.35 26.25 9.3 27.15 9.25 Q27.35 8.35 27.4 5.6 27.4 3.3 27.95 2.0 L28.8 2.0 Q28.85 3.55 28.35 5.3 L27.55 5.25 27.5 6.5 Q27.45 7.9 27.6 8.85 L27.7 9.35" fill="#c3b080" fill-rule="evenodd" stroke="none"/>
    <path d="M116.35 4.8 L115.8 4.35 116.6 3.9 116.35 4.8" fill="#a98956" fill-rule="evenodd" stroke="none"/>
    <path d="M116.4 2.75 L115.85 2.15 Q115.05 2.95 114.4 4.0 L114.25 5.6 Q113.95 4.6 113.95 3.7 L113.0 3.9 Q112.45 4.05 112.15 4.4 110.85 6.0 109.9 6.75 L109.75 4.35 Q109.65 2.85 109.7 1.95 110.8 1.8 112.05 2.8 L111.55 1.9 112.05 2.1 Q112.35 2.25 112.55 2.35 L112.65 3.15 111.95 3.25 112.35 3.25 112.75 3.25 113.05 2.1 114.65 2.0 114.4 3.2 115.1 2.15 116.95 2.0 116.95 2.55 116.4 2.75" fill="#af7134" fill-rule="evenodd" stroke="none"/>
    <path d="M115.95 6.6 L117.15 6.9 Q118.55 7.15 118.9 8.1 L117.35 8.85 115.95 8.85 115.9 7.85 Q116.05 7.1 115.95 6.6" fill="#bb8039" fill-rule="evenodd" stroke="none"/>
    <path d="M114.25 5.6 Q114.6 6.45 114.85 6.85 115.3 7.55 115.9 7.85 L115.95 8.85 114.75 8.85 113.65 8.85 114.8 8.05 114.25 5.6" fill="#6a4827" fill-rule="evenodd" stroke="none"/>
    <path d="M113.65 8.85 L114.75 8.85 114.75 9.3 Q114.0 9.35 113.0 9.3 L113.65 8.85" fill="#fffff8" fill-rule="evenodd" stroke="none"/>
    <path d="M109.9 6.75 Q110.85 6.0 112.15 4.4 112.45 4.05 113.0 3.9 L113.95 3.7 Q113.95 4.6 114.25 5.6 L114.8 8.05 113.65 8.85 113.0 9.3 110.85 9.3 109.85 8.85 Q109.85 7.85 109.9 6.75 M80.5 1.55 Q81.75 1.4 83.25 1.55 82.05 1.6 80.5 1.55 M49.9 1.25 L53.5 1.5 50.75 1.55 Q50.05 1.5 47.9 1.55 46.1 1.6 45.0 1.5 47.1 1.55 48.4 1.2 49.25 1.2 49.9 1.25" fill="#c99d4c" fill-rule="evenodd" stroke="none"/>
    <path d="M117.7 9.4 L118.2 9.65 118.4 15.0 Q118.5 18.15 118.8 20.3 118.9 21.2 119.45 22.6 L119.2 23.0 118.5 22.2 Q118.75 23.55 118.9 24.65 L118.9 24.75 117.15 24.75 116.75 24.75 116.75 24.65 Q116.65 18.95 116.75 12.05 L116.6 12.05 Q116.7 18.35 116.6 24.65 L116.6 24.75 113.7 24.75 113.7 24.65 113.6 19.25 Q113.55 16.05 113.45 13.75 L113.45 11.65 Q113.4 10.4 113.2 9.55 113.05 11.0 113.05 13.25 L113.1 16.95 Q113.0 19.75 113.1 24.65 L113.1 24.75 112.7 24.75 109.8 24.75 Q107.8 24.75 106.5 24.85 L106.5 24.8 106.5 24.65 Q106.6 23.45 106.65 22.5 107.25 21.6 107.4 20.25 107.5 19.4 107.35 17.9 107.3 17.5 107.45 16.95 107.5 16.65 107.7 16.05 108.0 16.7 108.1 17.65 L108.2 19.3 Q108.15 19.6 108.35 19.9 L108.8 20.4 109.25 19.75 Q109.5 19.35 109.6 19.05 109.65 18.65 109.5 18.15 L109.3 17.3 109.6 17.15 109.9 15.6 Q110.05 14.7 110.0 14.0 L110.0 11.75 Q110.0 10.45 109.85 9.55 L110.85 9.3 113.0 9.3 Q114.0 9.35 114.75 9.3 L117.7 9.4" fill="#5a3828" fill-rule="evenodd" stroke="none"/>
    <path d="M117.15 6.9 Q118.4 6.3 120.0 6.65 L119.65 7.9 120.05 8.1 121.25 8.4 Q121.95 8.6 122.35 8.9 120.2 8.9 117.35 8.85 L118.9 8.1 Q118.55 7.15 117.15 6.9" fill="#985926" fill-rule="evenodd" stroke="none"/>
    <path d="M118.2 9.65 L120.05 9.65 120.0 17.2 Q119.95 21.7 120.05 24.65 L120.05 24.75 118.9 24.75 118.9 24.65 Q118.75 23.55 118.5 22.2 L119.2 23.0 119.45 22.6 Q118.9 21.2 118.8 20.3 118.5 18.15 118.4 15.0 L118.2 9.65" fill="#6b4b39" fill-rule="evenodd" stroke="none"/>
    <path d="M120.6 7.75 Q120.25 6.6 120.8 5.85 121.0 7.0 120.6 7.75" fill="#9f8353" fill-rule="evenodd" stroke="none"/>
    <path d="M140.4 1.05 L140.45 1.05 140.45 24.65 140.4 24.65 140.3 24.65 Q140.4 23.25 140.4 21.05 L140.35 17.3 140.4 15.95 140.4 9.4 Q140.4 4.3 140.45 1.45 L140.4 1.4 Q140.05 1.15 139.45 1.1 138.75 1.15 138.4 1.15 L135.35 1.15 132.35 1.25 131.75 1.25 129.95 1.15 128.2 1.15 112.1 1.15 110.0 1.15 107.95 1.2 Q107.6 1.1 107.1 1.1 L106.25 1.2 Q104.5 1.1 101.75 1.1 L97.25 1.15 95.55 1.15 93.9 1.25 93.75 1.2 93.6 1.2 92.35 1.15 75.2 1.15 69.7 1.15 Q66.3 1.1 64.15 1.2 63.25 1.05 62.25 1.2 60.3 1.0 58.8 1.25 L56.05 1.1 53.25 1.15 52.2 1.1 51.15 1.1 140.4 1.05 M128.4 19.3 Q128.3 20.35 128.35 22.05 L128.4 24.65 128.2 24.65 128.25 20.05 Q128.25 17.15 128.3 15.35 L128.4 17.35 128.4 19.3 M116.6 24.65 Q116.7 18.35 116.6 12.05 L116.75 12.05 Q116.65 18.95 116.75 24.65 L116.6 24.65 M92.95 2.05 L92.0 2.05 90.8 2.0 92.95 2.05 M88.35 2.25 L87.85 2.05 87.0 1.6 88.35 2.25 M81.8 8.4 L83.1 8.05 82.35 8.3 81.8 8.4 M73.5 1.95 L74.35 1.95 75.25 2.0 73.5 1.95 M67.2 8.9 L67.85 8.9 68.4 8.9 66.65 8.95 67.2 8.9 M94.85 24.65 Q94.9 22.65 94.8 20.1 L94.95 20.1 Q94.9 22.6 94.95 24.65 L94.85 24.65 M56.65 3.35 L55.4 3.65 56.1 3.45 56.65 3.35 M1.9 1.05 L1.0 1.2 1.2 1.3 1.0 1.35 Q1.15 2.75 1.1 5.15 1.05 7.85 1.1 8.9 L1.1 9.3 8.45 9.45 Q8.15 9.5 7.8 9.7 7.7 10.25 7.7 11.15 L7.75 12.6 7.75 21.45 Q7.7 23.35 7.75 24.65 L7.65 24.65 Q7.7 17.5 7.65 9.6 L6.0 9.6 3.9 9.6 Q3.85 11.5 3.85 14.35 L3.85 19.1 Q3.85 19.8 3.95 20.2 3.85 20.95 3.85 21.85 L3.9 23.55 3.75 23.55 3.8 21.75 Q3.85 20.65 3.65 20.0 3.8 19.05 3.8 18.1 L3.8 13.85 3.75 9.6 Q2.4 9.6 1.05 9.6 L1.05 15.1 Q1.05 18.4 1.1 20.55 1.05 21.4 1.05 22.65 L1.1 24.65 1.0 24.65 1.0 1.05 1.9 1.05 M53.25 24.65 Q53.3 21.7 53.25 17.55 L53.4 17.55 Q53.3 21.5 53.4 24.65 L53.25 24.65 M40.7 8.85 L39.75 8.85 40.25 8.85 40.7 8.85 M29.6 19.3 Q29.5 20.35 29.55 22.05 L29.6 24.65 29.4 24.65 29.45 20.05 Q29.45 17.15 29.5 15.35 L29.6 17.35 29.6 19.3 M24.85 3.35 L24.95 3.05 25.1 2.8 24.85 3.35 M17.8 24.65 Q17.9 17.0 17.8 10.3 L17.95 10.3 Q17.9 11.85 17.9 14.5 L17.9 18.7 Q17.9 19.55 18.05 20.55 17.85 21.4 17.9 22.65 L17.95 24.65 17.8 24.65" fill="#585340" fill-rule="evenodd" stroke="none"/>
    <path d="M113.1 24.75 L113.1 24.65 Q113.0 19.75 113.1 16.95 L113.05 13.25 Q113.05 11.0 113.2 9.55 113.4 10.4 113.45 11.65 L113.45 13.75 Q113.55 16.05 113.6 19.25 L113.7 24.65 113.7 24.75 113.4 24.75 113.3 24.75 113.1 24.75 M25.45 24.8 L25.45 24.85 25.3 24.45 25.25 16.75 25.3 9.65 Q23.25 9.6 21.45 9.65 L21.5 12.45 21.55 15.3 Q21.4 19.25 21.6 24.65 L21.6 24.75 21.3 24.75 21.3 24.65 Q21.2 21.75 21.25 17.2 L21.25 9.65 19.4 9.7 Q18.55 9.8 16.95 9.7 15.3 9.6 14.5 9.65 14.65 10.95 14.65 13.0 L14.75 16.35 14.8 20.55 14.9 24.65 14.9 24.75 14.3 24.75 14.3 21.05 Q14.25 18.85 14.3 17.3 14.25 13.8 14.3 9.65 12.85 9.6 11.45 9.6 L11.4 11.6 Q11.4 12.8 11.3 13.6 L11.3 11.65 11.25 9.7 9.15 9.45 12.9 9.3 Q13.6 9.25 14.95 9.3 L16.95 9.3 19.35 9.25 21.3 9.3 23.25 9.25 23.55 9.25 25.3 9.35 27.7 9.35 29.3 9.35 30.95 9.25 31.25 9.3 Q33.2 9.35 34.7 9.25 L35.05 9.25 Q36.3 9.35 38.3 9.35 L41.6 9.3 Q44.3 9.4 47.75 9.4 L53.9 9.35 54.5 9.45 Q53.5 9.7 51.85 9.65 49.75 9.55 49.15 9.6 46.5 9.6 45.5 9.65 45.4 11.5 45.55 13.15 45.45 15.4 45.55 18.95 L45.65 24.65 45.65 24.75 45.3 24.75 45.3 24.65 Q45.35 22.5 45.35 19.05 L45.3 13.35 45.3 9.65 Q41.85 9.7 37.5 9.65 L37.55 12.6 Q37.55 14.4 37.5 15.5 L37.5 18.9 Q37.55 21.0 37.45 22.25 37.4 21.25 37.4 19.3 L37.35 16.35 Q37.3 15.05 37.3 13.0 L37.3 9.65 33.6 9.6 Q33.55 11.7 33.65 14.9 L33.75 20.15 Q33.65 20.95 33.65 22.5 33.7 23.85 33.6 24.65 L33.6 24.75 33.55 24.85 33.55 24.75 33.55 24.7 33.55 24.65 Q33.35 23.85 33.4 22.65 L33.4 20.65 Q33.4 19.85 33.4 18.1 33.45 16.5 33.4 15.6 33.3 14.0 33.3 12.95 33.35 11.15 33.3 9.7 31.1 9.65 29.6 9.65 L29.6 12.4 Q29.6 14.1 29.5 15.2 29.3 14.1 29.35 12.45 L29.35 9.7 29.15 9.7 Q27.55 9.55 25.7 9.65 L25.5 9.65 Q25.55 11.6 25.55 15.65 25.5 19.6 25.55 21.65 L25.55 23.15 Q25.55 24.0 25.45 24.65 L25.45 24.7 25.45 24.75 25.45 24.8" fill="#33170f" fill-rule="evenodd" stroke="none"/>
    <path d="M120.35 15.3 L120.3 12.5 120.25 9.65 124.1 9.65 124.1 13.95 Q124.05 15.8 124.1 19.2 L124.1 24.4 123.7 22.95 123.2 21.55 122.65 22.45 Q122.45 20.75 121.3 19.0 L120.45 20.1 Q120.35 19.3 120.4 18.9 120.45 18.25 120.85 17.8 120.35 16.5 120.35 15.3 M25.3 24.45 L24.9 22.95 Q24.65 22.15 24.4 21.55 L23.85 22.45 Q23.7 20.75 22.5 19.0 L21.65 20.1 Q21.55 19.25 21.6 18.85 21.7 18.15 22.1 17.75 L21.75 17.3 21.55 15.3 21.5 12.45 21.45 9.65 Q23.25 9.6 25.3 9.65 L25.25 16.75 25.3 24.45" fill="#835639" fill-rule="evenodd" stroke="none"/>
    <path d="M120.45 24.75 L120.45 24.65 Q120.2 20.3 120.35 15.3 120.35 16.5 120.85 17.8 120.45 18.25 120.4 18.9 120.35 19.3 120.45 20.1 L121.3 19.0 Q122.45 20.75 122.65 22.45 L123.2 21.55 123.7 22.95 124.1 24.4 124.2 24.7 123.75 24.75 122.3 24.8 120.45 24.75 M25.45 24.85 L23.55 24.75 21.6 24.75 21.6 24.65 Q21.4 19.25 21.55 15.3 L21.75 17.3 22.1 17.75 Q21.7 18.15 21.6 18.85 21.55 19.25 21.65 20.1 L22.5 19.0 Q23.7 20.75 23.85 22.45 L24.4 21.55 Q24.65 22.15 24.9 22.95 L25.3 24.45 25.45 24.85 M74.8 24.75 L70.95 24.75 71.0 24.65 Q71.05 22.95 71.0 20.5 L71.9 19.25 Q72.45 19.8 72.75 20.95 73.2 22.5 73.35 22.85 L74.0 22.3 74.45 22.95 74.75 22.85 74.8 24.75" fill="#72462d" fill-rule="evenodd" stroke="none"/>
    <path d="M128.3 15.2 Q128.4 14.1 128.4 12.45 L128.4 9.65 Q130.25 9.6 132.05 9.65 132.15 10.9 132.1 12.95 L131.2 13.1 130.6 15.25 131.4 15.25 131.8 16.5 130.65 16.15 129.5 16.2 Q129.2 16.45 128.95 16.85 L128.6 17.65 129.0 17.95 Q129.9 16.9 130.7 16.4 131.3 17.7 131.45 18.9 130.95 18.85 130.3 18.6 L129.25 18.1 Q128.8 18.5 128.4 19.3 L128.4 17.35 128.3 15.35 128.3 15.2 M33.3 12.95 L32.4 13.1 31.8 15.25 32.6 15.25 33.0 16.5 31.85 16.15 30.7 16.2 Q30.4 16.4 30.15 16.85 L29.8 17.65 30.2 17.95 Q31.1 16.9 31.9 16.4 L32.3 17.4 Q32.55 18.0 32.55 18.45 L32.15 19.15 31.35 18.5 Q30.9 18.15 30.45 18.1 30.0 18.55 29.6 19.3 L29.6 17.35 29.5 15.35 29.5 15.2 Q29.6 14.1 29.6 12.4 L29.6 9.65 Q31.1 9.65 33.3 9.7 33.35 11.15 33.3 12.95" fill="#855e44" fill-rule="evenodd" stroke="none"/>
    <path d="M132.1 12.95 Q132.2 17.45 132.2 19.7 L132.2 22.2 Q132.15 23.7 132.35 24.65 L132.35 24.7 131.7 24.75 130.35 24.8 128.4 24.75 128.4 24.65 128.35 22.05 Q128.3 20.35 128.4 19.3 128.8 18.5 129.25 18.1 L130.3 18.6 Q130.95 18.85 131.45 18.9 131.3 17.7 130.7 16.4 129.9 16.9 129.0 17.95 L128.6 17.65 128.95 16.85 Q129.2 16.45 129.5 16.2 L130.65 16.15 131.8 16.5 131.4 15.25 130.6 15.25 131.2 13.1 132.1 12.95 M33.3 12.95 Q33.3 14.0 33.4 15.6 33.45 16.5 33.4 18.1 33.4 19.85 33.4 20.65 L33.4 22.65 Q33.35 23.85 33.55 24.65 L33.55 24.7 32.9 24.75 31.55 24.8 29.6 24.75 29.6 24.65 29.55 22.05 Q29.5 20.35 29.6 19.3 30.0 18.55 30.45 18.1 30.9 18.15 31.35 18.5 L32.15 19.15 32.55 18.45 Q32.55 18.0 32.3 17.4 L31.9 16.4 Q31.1 16.9 30.2 17.95 L29.8 17.65 30.15 16.85 Q30.4 16.4 30.7 16.2 L31.85 16.15 33.0 16.5 32.6 15.25 31.8 15.25 32.4 13.1 33.3 12.95" fill="#764f36" fill-rule="evenodd" stroke="none"/>
    <path d="M109.7 1.95 Q109.65 2.85 109.75 4.35 L109.9 6.75 Q109.85 7.85 109.85 8.85 L109.65 8.85 Q107.8 8.95 105.85 8.85 105.25 8.3 104.45 7.85 103.35 8.45 102.6 8.0 102.8 7.9 103.35 7.75 103.75 7.6 103.9 7.3 L104.45 6.15 Q104.75 5.5 105.05 5.05 L104.3 4.15 105.0 2.05 Q107.6 2.1 109.7 1.95" fill="#935a23" fill-rule="evenodd" stroke="none"/>
    <path d="M109.85 9.55 Q110.0 10.45 110.0 11.75 L110.0 14.0 Q110.05 14.7 109.9 15.6 L109.6 17.15 109.3 17.3 109.5 18.15 Q109.65 18.65 109.6 19.05 109.5 19.35 109.25 19.75 L108.8 20.4 108.35 19.9 Q108.15 19.6 108.2 19.3 L108.1 17.65 Q108.0 16.7 107.7 16.05 107.5 16.65 107.45 16.95 107.3 17.5 107.35 17.9 107.5 19.4 107.4 20.25 107.25 21.6 106.65 22.5 L106.6 16.05 Q106.55 12.2 106.55 9.65 L108.2 9.65 109.85 9.55" fill="#684432" fill-rule="evenodd" stroke="none"/>
    <path d="M110.85 9.3 L109.85 9.55 108.2 9.65 106.55 9.65 Q106.55 12.2 106.6 16.05 L106.65 22.5 Q106.6 23.45 106.5 24.65 L106.5 24.8 106.5 24.85 106.45 24.8 106.45 24.75 106.45 24.7 106.45 24.65 Q106.35 23.75 106.35 22.4 L106.4 20.05 Q106.35 18.5 106.4 14.85 106.45 11.5 106.4 9.65 L105.05 9.65 104.8 9.65 104.55 9.65 104.35 9.65 104.1 9.65 102.7 9.65 102.7 19.85 102.65 21.7 102.65 23.55 Q102.6 22.85 102.6 21.65 L102.55 19.75 Q102.6 17.9 102.55 14.7 L102.55 9.65 Q100.75 9.6 98.85 9.65 L98.85 14.05 Q98.85 16.7 98.95 18.45 98.8 19.7 98.8 21.45 L98.85 24.5 98.7 24.55 Q98.75 23.3 98.7 21.05 98.65 18.6 98.65 17.5 98.7 15.6 98.65 14.2 L98.65 9.65 Q96.7 9.55 94.95 9.65 94.9 12.55 95.0 14.0 L94.5 13.45 Q94.8 12.7 94.75 11.6 L94.6 9.7 93.8 9.6 93.4 9.4 93.6 9.4 Q94.55 9.3 96.25 9.35 L98.85 9.3 Q99.65 9.25 100.7 9.3 L102.55 9.35 109.45 9.35 110.85 9.3 M64.2 24.75 L63.65 24.75 63.65 24.65 Q63.7 23.5 63.65 21.75 L63.6 18.75 63.65 14.2 Q63.7 11.5 63.6 9.7 L63.8 9.7 Q64.05 10.65 64.15 11.45 L64.15 15.6 Q64.2 18.15 64.3 19.75 64.15 20.75 64.2 22.25 L64.2 24.75 M37.95 1.55 L36.3 1.7 Q35.35 1.7 34.6 1.5 37.1 1.5 37.95 1.55" fill="#31160e" fill-rule="evenodd" stroke="none"/>
    <path d="M109.85 8.85 L110.85 9.3 109.45 9.35 109.65 8.85 109.85 8.85" fill="#f3ecdb" fill-rule="evenodd" stroke="none"/>
    <path d="M109.45 9.35 L102.55 9.35 100.7 9.3 Q99.65 9.25 98.85 9.3 L96.25 9.35 Q94.55 9.3 93.6 9.4 L93.55 8.9 94.35 8.9 96.4 8.9 101.1 8.9 105.85 8.85 Q107.8 8.95 109.65 8.85 L109.45 9.35" fill="#e6ce92" fill-rule="evenodd" stroke="none"/>
    <path d="M105.85 8.85 L101.1 8.9 96.4 8.9 96.0 8.45 Q95.8 8.2 95.7 8.0 L95.95 7.65 96.45 8.05 97.0 7.7 97.4 8.25 Q98.45 6.95 98.4 5.4 L97.65 6.6 96.25 5.15 96.45 4.65 97.2 4.85 95.9 3.7 97.55 3.95 97.55 3.2 98.3 3.25 97.7 2.3 98.5 2.1 101.45 2.0 Q100.75 2.8 100.45 4.05 L102.3 3.65 102.5 3.9 Q101.8 5.0 101.25 6.1 102.05 6.35 102.85 6.15 103.65 6.0 104.35 5.5 L103.65 5.25 Q103.2 5.05 102.95 4.9 102.65 4.55 102.8 3.95 102.9 3.65 103.25 3.05 L103.2 2.55 102.45 2.6 102.45 2.05 105.0 2.05 104.3 4.15 105.05 5.05 Q104.75 5.5 104.45 6.15 L103.9 7.3 Q103.75 7.6 103.35 7.75 102.8 7.9 102.6 8.0 103.35 8.45 104.45 7.85 105.25 8.3 105.85 8.85 M100.3 3.75 Q99.85 4.1 99.7 4.2 99.7 4.4 99.85 4.65 L100.05 5.1 Q100.2 4.6 100.3 3.75 M98.8 7.3 L99.15 7.25 99.3 5.8 99.4 4.35 Q98.9 4.9 98.8 5.75 98.7 6.35 98.8 7.3" fill="#694022" fill-rule="evenodd" stroke="none"/>
    <path d="M98.5 2.1 L97.7 2.3 98.3 3.25 97.55 3.2 97.55 3.95 95.9 3.7 97.2 4.85 96.45 4.65 95.6 4.3 95.45 4.7 94.65 4.25 Q94.2 4.05 93.85 4.15 93.65 4.5 93.45 5.3 L93.15 4.7 Q92.95 4.35 92.8 4.1 L91.3 3.1 92.0 2.05 92.95 2.05 93.75 3.25 94.0 3.6 95.65 3.3 95.2 2.05 Q96.95 1.95 98.5 2.1" fill="#9e6a32" fill-rule="evenodd" stroke="none"/>
    <path d="M100.3 3.75 Q100.2 4.6 100.05 5.1 L99.85 4.65 Q99.7 4.4 99.7 4.2 99.85 4.1 100.3 3.75" fill="#997d5d" fill-rule="evenodd" stroke="none"/>
    <path d="M98.8 7.3 Q98.7 6.35 98.8 5.75 98.9 4.9 99.4 4.35 L99.3 5.8 99.15 7.25 98.8 7.3" fill="#85684b" fill-rule="evenodd" stroke="none"/>
    <path d="M96.4 8.9 L94.35 8.9 94.6 8.1 94.0 8.5 94.2 7.45 93.4 7.95 93.5 7.0 92.75 7.65 93.05 6.9 92.4 6.5 92.3 7.3 92.1 6.75 Q92.0 6.45 91.7 6.4 91.45 6.95 91.8 7.7 L92.4 8.9 92.4 8.95 85.3 8.95 85.3 8.9 Q85.5 8.1 84.9 7.0 L83.55 5.95 Q83.4 6.85 83.1 8.05 L81.8 8.4 81.2 7.9 Q80.85 7.65 80.55 7.55 L80.05 7.5 80.75 7.3 80.65 6.4 80.15 6.35 79.85 7.2 79.55 7.2 Q79.65 6.2 79.25 4.9 L79.15 4.35 80.75 4.25 Q79.5 3.45 78.4 3.85 L77.55 3.0 78.9 3.0 78.55 2.3 78.45 2.0 80.55 2.05 Q80.8 2.9 80.85 3.65 81.65 3.45 82.65 3.45 L82.9 5.15 Q83.6 4.6 84.55 4.0 L84.35 3.85 84.55 3.5 84.75 3.15 84.85 3.05 85.25 3.45 Q85.95 3.4 86.7 3.6 87.25 3.75 88.05 4.05 87.1 2.9 86.65 2.0 L86.8 2.0 Q86.95 2.3 87.3 2.35 87.65 2.35 87.65 2.0 L87.85 2.05 88.35 2.25 Q88.0 2.5 87.85 2.8 87.75 3.15 87.95 3.5 88.4 2.85 88.8 1.95 L88.95 1.8 89.4 2.3 89.9 1.95 90.95 3.6 Q91.15 2.8 90.8 2.0 L92.0 2.05 91.3 3.1 92.8 4.1 Q92.95 4.35 93.15 4.7 L93.45 5.3 Q93.65 4.5 93.85 4.15 94.2 4.05 94.65 4.25 L95.45 4.7 95.6 4.3 96.45 4.65 96.25 5.15 97.65 6.6 98.4 5.4 Q98.45 6.95 97.4 8.25 L97.0 7.7 96.45 8.05 95.95 7.65 Q95.9 6.95 95.75 6.5 95.2 7.0 95.7 8.0 95.8 8.2 96.0 8.45 L96.4 8.9 M89.45 6.75 L89.55 5.9 89.05 5.9 89.05 6.7 88.55 5.9 88.4 6.45 88.1 6.2 87.8 7.1 87.3 6.05 87.25 7.1 86.65 6.2 86.6 6.85 Q86.6 7.2 86.7 7.45 86.95 7.75 87.4 8.0 L88.15 8.5 Q88.35 7.75 88.95 7.4 89.3 7.2 89.45 6.75 M88.95 3.05 Q88.5 3.75 88.25 4.65 L89.25 5.1 Q88.95 4.5 88.9 4.25 88.8 3.75 89.1 3.4 89.05 3.25 88.95 3.05" fill="#74502f" fill-rule="evenodd" stroke="none"/>
    <path d="M94.5 13.45 L95.0 14.0 Q95.1 15.95 95.05 18.45 95.05 19.15 95.1 19.35 95.2 19.85 95.55 20.1 95.95 20.55 96.65 20.7 L97.9 20.85 Q97.2 19.95 96.9 19.0 96.55 17.95 96.65 16.95 96.75 16.55 97.15 15.7 97.55 14.9 97.6 14.45 97.65 14.05 97.6 13.45 L97.5 12.5 Q98.05 12.65 98.35 13.15 98.55 13.55 98.65 14.2 98.7 15.6 98.65 17.5 98.65 18.6 98.7 21.05 98.75 23.3 98.7 24.55 L98.85 24.5 98.8 21.45 Q98.8 19.7 98.95 18.45 L99.3 20.0 99.6 21.55 Q100.2 20.5 101.35 18.1 101.35 18.0 101.55 17.85 101.7 17.7 101.7 17.55 L102.0 18.7 Q102.15 19.35 102.55 19.75 L102.6 21.65 Q102.6 22.85 102.65 23.55 L102.65 21.7 102.7 19.85 Q103.85 20.45 104.9 20.4 104.6 19.85 104.5 19.1 L104.4 17.7 Q104.4 17.2 103.85 17.15 L102.85 17.1 103.8 16.3 103.75 14.6 104.95 15.0 Q105.7 15.1 106.2 14.8 L105.6 14.4 Q105.25 14.15 105.05 13.95 L105.45 12.75 Q105.65 12.0 105.55 11.5 105.5 11.0 105.2 10.5 L104.6 9.65 104.55 9.65 104.8 9.65 105.05 9.65 106.4 9.65 Q106.45 11.5 106.4 14.85 106.35 18.5 106.4 20.05 L106.35 22.4 Q106.35 23.75 106.45 24.65 L106.45 24.7 105.85 24.75 104.1 24.8 101.7 24.75 94.95 24.75 94.95 24.65 Q94.9 22.6 94.95 20.1 L94.8 20.1 Q94.9 22.65 94.85 24.65 L94.8 24.75 91.15 24.75 91.15 24.65 Q91.0 22.9 91.0 20.55 L91.0 16.4 92.65 15.15 92.25 14.65 Q92.0 14.4 91.9 14.15 91.8 13.85 92.1 13.55 L92.65 13.0 Q92.85 13.7 92.7 14.45 L93.1 14.45 94.35 13.3 94.5 13.45" fill="#613e2d" fill-rule="evenodd" stroke="none"/>
    <path d="M102.7 19.85 L102.7 9.65 104.1 9.65 104.35 9.65 104.55 9.65 104.6 9.65 105.2 10.5 Q105.5 11.0 105.55 11.5 105.65 12.0 105.45 12.75 L105.05 13.95 Q105.25 14.15 105.6 14.4 L106.2 14.8 Q105.7 15.1 104.95 15.0 L103.75 14.6 103.8 16.3 102.85 17.1 103.85 17.15 Q104.4 17.2 104.4 17.7 L104.5 19.1 Q104.6 19.85 104.9 20.4 103.85 20.45 102.7 19.85" fill="#6d4c39" fill-rule="evenodd" stroke="none"/>
    <path d="M106.25 1.2 L102.55 1.45 Q100.1 1.45 98.85 1.5 98.4 1.45 96.35 1.45 L93.9 1.25 95.55 1.15 97.25 1.15 101.75 1.1 Q104.5 1.1 106.25 1.2" fill="#fffab3" fill-rule="evenodd" stroke="none"/>
    <path d="M98.95 18.45 Q98.85 16.7 98.85 14.05 L98.85 9.65 Q100.75 9.6 102.55 9.65 L102.55 14.7 Q102.6 17.9 102.55 19.75 102.15 19.35 102.0 18.7 L101.7 17.55 Q101.7 17.7 101.55 17.85 101.35 18.0 101.35 18.1 100.2 20.5 99.6 21.55 L99.3 20.0 98.95 18.45" fill="#6b4532" fill-rule="evenodd" stroke="none"/>
    <path d="M95.0 14.0 Q94.9 12.55 94.95 9.65 96.7 9.55 98.65 9.65 L98.65 14.2 Q98.55 13.55 98.35 13.15 98.05 12.65 97.5 12.5 L97.6 13.45 Q97.65 14.05 97.6 14.45 97.55 14.9 97.15 15.7 96.75 16.55 96.65 16.95 96.55 17.95 96.9 19.0 97.2 19.95 97.9 20.85 L96.65 20.7 Q95.95 20.55 95.55 20.1 95.2 19.85 95.1 19.35 95.05 19.15 95.05 18.45 95.1 15.95 95.0 14.0" fill="#714e39" fill-rule="evenodd" stroke="none"/>
    <path d="M95.2 2.05 L95.65 3.3 94.0 3.6 93.75 3.25 93.35 2.05 95.2 2.05" fill="#6d3f24" fill-rule="evenodd" stroke="none"/>
    <path d="M93.35 2.05 L93.75 3.25 92.95 2.05 93.35 2.05" fill="#b6986b" fill-rule="evenodd" stroke="none"/>
    <path d="M94.35 8.9 L93.55 8.9 93.45 8.9 93.35 8.9 92.4 8.95 92.4 8.9 91.8 7.7 Q91.45 6.95 91.7 6.4 92.0 6.45 92.1 6.75 L92.3 7.3 92.4 6.5 93.05 6.9 92.75 7.65 93.5 7.0 93.4 7.95 94.2 7.45 94.0 8.5 94.6 8.1 94.35 8.9" fill="#8e6432" fill-rule="evenodd" stroke="none"/>
    <path d="M89.45 6.75 Q89.3 7.2 88.95 7.4 88.35 7.75 88.15 8.5 L87.4 8.0 Q86.95 7.75 86.7 7.45 86.6 7.2 86.6 6.85 L86.65 6.2 87.25 7.1 87.3 6.05 87.8 7.1 88.1 6.2 88.4 6.45 88.55 5.9 89.05 6.7 89.05 5.9 89.55 5.9 89.45 6.75" fill="#976735" fill-rule="evenodd" stroke="none"/>
    <path d="M90.25 9.65 L90.65 9.7 Q90.7 10.5 90.7 11.65 L90.7 18.65 Q90.7 21.7 90.6 23.7 90.25 22.65 90.25 20.85 90.2 18.7 90.1 17.95 90.4 16.6 90.25 15.2 L89.65 15.7 90.1 14.65 89.7 14.65 90.2 13.95 Q90.45 13.55 90.45 13.2 90.5 12.45 90.45 11.45 L90.25 9.65" fill="#8f6342" fill-rule="evenodd" stroke="none"/>
    <path d="M93.4 9.4 L93.8 9.6 Q92.35 9.7 90.9 9.65 L90.95 13.0 91.0 16.4 91.0 20.55 Q91.0 22.9 91.15 24.65 L91.15 24.75 90.75 24.75 90.6 23.7 Q90.7 21.7 90.7 18.65 L90.7 11.65 Q90.7 10.5 90.65 9.7 L90.25 9.65 Q89.3 9.6 87.0 9.6 86.95 10.45 87.05 12.6 87.15 14.45 87.05 15.55 L87.1 19.4 87.1 23.2 Q87.15 23.95 86.95 24.65 L86.95 24.7 86.95 24.75 86.95 24.85 86.9 24.75 86.9 24.65 Q86.75 23.7 86.75 22.6 86.8 18.4 86.75 16.3 L86.7 15.2 86.6 14.05 86.6 13.9 Q86.7 11.6 86.65 9.65 84.8 9.6 82.95 9.65 L82.75 9.7 80.85 9.7 78.95 9.65 78.95 12.3 Q78.95 13.9 79.05 14.9 L78.6 14.95 78.65 12.3 78.65 9.65 75.0 9.65 75.1 14.4 Q75.1 17.65 75.15 19.15 75.05 20.15 75.1 21.95 L75.05 24.65 75.05 24.75 74.8 24.75 74.75 22.85 74.75 20.45 Q74.75 19.0 74.65 18.05 74.55 17.4 74.65 16.35 74.75 15.1 74.75 14.65 74.6 11.9 74.6 10.85 L74.6 9.7 Q73.15 9.65 70.95 9.65 L70.95 14.4 Q71.0 15.5 71.0 17.45 L71.0 20.5 Q71.05 22.95 71.0 24.65 L70.95 24.75 70.7 24.75 70.7 24.65 70.6 22.1 Q70.5 20.4 70.6 19.4 70.65 18.7 70.6 17.55 70.45 16.25 70.5 15.75 L70.55 12.7 70.55 9.65 68.6 9.75 Q68.85 11.35 68.9 13.65 L68.95 17.5 Q68.95 18.05 69.15 19.95 69.25 21.4 69.1 22.35 68.95 22.9 69.05 23.55 69.1 24.0 69.3 24.65 L69.35 24.75 66.8 24.75 64.2 24.75 64.2 22.25 Q64.15 20.75 64.3 19.75 L64.55 17.5 Q64.75 16.15 65.25 15.35 L65.9 15.35 66.25 14.55 Q66.5 15.1 66.65 15.95 L66.95 17.35 Q67.1 13.0 67.05 9.65 65.55 9.75 64.25 9.7 L64.15 11.45 Q64.05 10.65 63.8 9.7 L63.6 9.7 60.95 9.65 Q60.85 11.9 60.95 14.15 61.05 15.85 61.05 19.2 61.0 22.55 61.1 24.25 61.55 23.15 61.55 22.4 61.6 19.95 61.9 16.8 61.9 16.1 62.75 15.3 62.95 15.8 62.9 16.5 L62.65 17.7 Q62.75 17.95 63.05 18.25 L63.6 18.75 63.65 21.75 Q63.7 23.5 63.65 24.65 L63.65 24.75 60.75 24.75 60.65 22.3 60.7 16.0 60.7 9.8 59.25 9.45 59.9 9.35 62.3 9.4 64.7 9.3 Q67.1 9.5 69.3 9.3 L69.4 9.3 70.05 9.3 Q71.95 9.45 75.4 9.35 79.1 9.3 80.7 9.4 L87.05 9.4 93.4 9.4" fill="#533424" fill-rule="evenodd" stroke="none"/>
    <path d="M93.8 9.6 L94.6 9.7 94.75 11.6 Q94.8 12.7 94.5 13.45 L94.35 13.3 93.1 14.45 92.7 14.45 Q92.85 13.7 92.65 13.0 L92.1 13.55 Q91.8 13.85 91.9 14.15 92.0 14.4 92.25 14.65 L92.65 15.15 91.0 16.4 90.95 13.0 90.9 9.65 Q92.35 9.7 93.8 9.6" fill="#71503d" fill-rule="evenodd" stroke="none"/>
    <path d="M95.95 7.65 L95.7 8.0 Q95.2 7.0 95.75 6.5 95.9 6.95 95.95 7.65" fill="#a57c4d" fill-rule="evenodd" stroke="none"/>
    <path d="M80.05 7.5 L80.55 7.55 80.75 7.75 80.75 8.2 Q79.7 8.35 79.2 8.9 L78.35 8.9 Q78.1 7.85 77.75 7.35 L77.35 6.9 76.25 6.65 Q75.65 6.5 75.2 6.25 76.35 6.1 77.15 5.5 L77.7 5.85 78.6 5.6 78.55 6.5 Q78.5 7.05 78.6 7.4 L79.3 7.5 80.05 7.5 M88.35 2.25 L88.8 1.95 Q88.4 2.85 87.95 3.5 87.75 3.15 87.85 2.8 88.0 2.5 88.35 2.25 M42.6 2.5 L41.9 2.8 42.15 2.0 42.6 2.5" fill="#d2b379" fill-rule="evenodd" stroke="none"/>
    <path d="M87.65 2.0 Q87.65 2.35 87.3 2.35 86.95 2.3 86.8 2.0 L87.65 2.0" fill="#ba9d67" fill-rule="evenodd" stroke="none"/>
    <path d="M84.1 1.5 L87.0 1.6 87.85 2.05 87.65 2.0 86.8 2.0 86.65 2.0 86.0 2.05 Q85.65 2.1 85.5 2.3 85.25 2.5 84.85 3.05 L84.75 3.15 84.9 1.95 83.95 2.4 Q83.25 2.05 82.3 2.0 81.8 2.0 80.55 2.05 L78.45 2.0 78.55 2.3 Q77.7 1.95 76.5 1.9 L74.35 1.95 73.5 1.95 73.35 2.0 73.35 1.95 72.95 2.0 71.65 2.05 70.5 2.0 68.45 1.95 66.7 2.0 65.65 2.0 65.4 2.0 65.3 2.0 64.25 2.0 64.05 2.0 64.0 2.0 62.0 2.0 63.05 2.55 62.8 2.8 62.65 2.75 Q61.85 2.2 60.65 2.05 L61.25 2.5 60.4 2.4 Q59.95 2.35 59.6 2.4 L59.2 3.2 Q58.95 3.6 58.65 3.9 L58.85 3.2 58.4 3.15 59.2 2.05 Q57.9 1.95 57.25 2.45 L56.2 2.1 54.5 2.0 52.65 2.2 52.4 2.1 52.35 2.75 52.0 2.2 Q51.4 1.9 50.55 2.25 L50.0 2.05 49.35 2.65 48.65 1.95 48.75 3.0 48.15 2.5 48.3 2.1 47.9 2.05 Q47.8 3.4 46.9 4.2 47.4 2.85 47.6 2.0 L46.75 2.7 46.7 2.05 45.4 2.0 44.35 2.1 44.05 2.5 43.85 3.0 43.5 3.8 Q43.15 3.55 42.85 3.4 42.45 3.2 41.4 2.75 L41.55 2.0 39.85 2.05 39.45 3.55 40.25 3.65 39.5 4.1 38.75 5.0 Q38.8 5.3 39.05 5.85 L39.5 7.3 39.0 7.35 Q38.6 6.1 38.45 5.45 38.2 4.4 38.4 3.55 L37.9 3.6 37.7 5.35 Q37.35 3.9 36.7 3.05 L36.95 3.8 Q37.1 4.2 37.1 4.5 37.05 4.8 36.7 4.95 36.3 5.05 36.1 5.1 L36.05 4.6 36.0 4.05 Q35.8 3.9 35.5 3.7 L35.0 3.35 Q35.35 4.4 35.25 5.3 L35.9 5.2 35.85 5.7 Q34.6 6.05 33.8 6.4 33.25 5.9 32.95 5.2 32.6 4.5 32.6 3.75 32.55 3.35 32.85 2.85 L33.4 2.05 Q32.95 2.3 32.5 2.5 L32.45 2.0 31.8 2.0 30.9 2.05 30.8 2.2 30.7 2.35 30.35 2.85 29.75 2.05 28.8 2.0 27.95 2.0 25.5 1.95 31.25 1.5 31.3 1.5 31.35 1.5 31.4 1.5 31.45 1.5 31.95 1.45 32.15 1.4 32.45 1.4 33.6 1.35 33.8 1.35 34.6 1.5 Q35.35 1.7 36.3 1.7 L37.95 1.55 38.1 1.55 Q40.1 1.85 41.9 1.55 43.65 1.45 45.0 1.5 46.1 1.6 47.9 1.55 50.05 1.5 50.75 1.55 L53.5 1.5 60.95 1.6 Q63.05 1.4 65.7 1.55 L68.75 1.5 Q70.65 1.4 71.8 1.5 L76.15 1.55 80.5 1.55 Q82.05 1.6 83.25 1.55 L84.1 1.5 M42.6 2.5 L42.15 2.0 41.9 2.8 42.6 2.5 M38.35 2.05 L37.5 2.05 38.3 2.85 38.35 2.05 M33.9 3.7 Q33.8 4.05 33.85 4.65 L35.1 4.55 34.6 3.95 34.3 4.35 34.45 2.95 Q34.05 3.2 33.9 3.7 M33.65 4.65 Q33.35 4.3 33.4 3.95 33.4 3.55 33.65 3.1 L34.2 2.35 Q33.6 2.5 33.3 3.1 32.95 3.65 33.15 4.3 33.25 4.6 33.6 4.85 L34.2 5.2 33.65 4.65" fill="#52472e" fill-rule="evenodd" stroke="none"/>
    <path d="M86.65 2.0 Q87.1 2.9 88.05 4.05 87.25 3.75 86.7 3.6 85.95 3.4 85.25 3.45 L84.85 3.05 Q85.25 2.5 85.5 2.3 85.65 2.1 86.0 2.05 L86.65 2.0" fill="#bd8840" fill-rule="evenodd" stroke="none"/>
    <path d="M88.95 3.05 Q89.05 3.25 89.1 3.4 88.8 3.75 88.9 4.25 88.95 4.5 89.25 5.1 L88.25 4.65 Q88.5 3.75 88.95 3.05 M69.4 9.3 L69.3 9.3 Q67.1 9.5 64.7 9.3 L64.55 9.25 Q63.95 9.0 63.05 8.95 L61.5 8.85 Q61.4 8.1 60.6 7.75 60.0 7.45 59.15 7.45 L59.05 7.45 58.75 7.45 58.5 7.5 58.4 5.65 60.25 5.55 60.95 5.9 61.75 5.95 Q62.3 5.9 62.8 5.45 L63.65 4.55 64.45 4.6 Q64.35 5.3 64.15 5.95 L63.75 5.25 63.2 5.85 63.85 5.85 63.35 6.8 63.4 6.05 61.95 8.05 Q63.6 8.45 64.85 8.9 L66.0 8.4 Q65.25 8.0 64.6 7.8 L67.0 6.95 Q66.95 8.0 67.2 8.9 L66.65 8.95 66.1 8.95 66.1 9.25 69.2 9.3 69.4 9.3" fill="#d1b77c" fill-rule="evenodd" stroke="none"/>
    <path d="M84.75 3.15 L84.55 3.5 84.35 3.85 Q83.65 3.35 82.6 3.1 L82.65 3.45 Q81.65 3.45 80.85 3.65 80.8 2.9 80.55 2.05 81.8 2.0 82.3 2.0 83.25 2.05 83.95 2.4 L84.9 1.95 84.75 3.15" fill="#a87642" fill-rule="evenodd" stroke="none"/>
    <path d="M84.35 3.85 L84.55 4.0 Q83.6 4.6 82.9 5.15 L82.65 3.45 82.6 3.1 Q83.65 3.35 84.35 3.85" fill="#c8b07b" fill-rule="evenodd" stroke="none"/>
    <path d="M83.1 8.05 Q83.4 6.85 83.55 5.95 L84.9 7.0 Q85.5 8.1 85.3 8.9 L85.3 8.95 83.2 8.95 82.9 8.2 82.55 8.25 82.35 8.3 83.1 8.05" fill="#93754a" fill-rule="evenodd" stroke="none"/>
    <path d="M80.55 7.55 Q80.85 7.65 81.2 7.9 L81.8 8.4 82.35 8.3 82.55 8.25 82.9 8.2 83.2 8.95 82.95 8.95 82.7 8.95 81.15 8.95 80.75 8.2 80.75 7.75 80.55 7.55" fill="#b89452" fill-rule="evenodd" stroke="none"/>
    <path d="M83.15 24.75 L82.75 24.75 82.75 24.65 82.8 21.2 Q82.8 19.1 82.75 17.7 82.7 15.25 82.75 9.7 L82.95 9.65 83.0 13.15 83.0 16.0 Q82.95 17.75 83.05 18.9 83.1 20.0 83.1 21.8 L83.15 24.65 83.15 24.75" fill="#3f2112" fill-rule="evenodd" stroke="none"/>
    <path d="M82.95 9.65 Q84.8 9.6 86.65 9.65 86.7 11.6 86.6 13.9 85.9 14.1 85.55 14.35 85.45 14.65 85.4 15.35 L85.25 16.4 Q85.0 16.75 84.4 16.65 83.75 16.5 83.45 16.45 L83.2 14.8 Q83.05 13.85 83.0 13.15 L82.95 9.65" fill="#7b5943" fill-rule="evenodd" stroke="none"/>
    <path d="M86.6 14.05 L86.7 15.2 86.75 16.3 85.85 16.55 Q85.95 15.3 86.05 14.5 L86.6 14.05" fill="#7d573e" fill-rule="evenodd" stroke="none"/>
    <path d="M86.95 24.85 L85.05 24.75 83.15 24.75 83.15 24.65 83.1 21.8 Q83.1 20.0 83.05 18.9 82.95 17.75 83.0 16.0 L83.0 13.15 Q83.05 13.85 83.2 14.8 L83.45 16.45 Q83.75 16.5 84.4 16.65 85.0 16.75 85.25 16.4 L85.4 15.35 Q85.45 14.65 85.55 14.35 85.9 14.1 86.6 13.9 L86.6 14.05 86.05 14.5 Q85.95 15.3 85.85 16.55 L86.75 16.3 Q86.8 18.4 86.75 22.6 86.75 23.7 86.9 24.65 L86.9 24.75 86.95 24.85" fill="#6a4834" fill-rule="evenodd" stroke="none"/>
    <path d="M82.75 9.7 Q82.7 15.25 82.75 17.7 L82.25 17.75 Q82.3 18.6 82.25 19.0 81.55 19.45 81.1 19.3 L80.55 18.65 Q80.2 18.2 79.8 18.35 79.55 18.85 79.4 19.6 79.3 19.9 79.15 20.9 79.05 18.95 79.05 17.95 79.15 15.95 79.05 14.9 78.95 13.9 78.95 12.3 L78.95 9.65 80.85 9.7 82.75 9.7" fill="#835b41" fill-rule="evenodd" stroke="none"/>
    <path d="M82.75 24.75 Q81.15 24.8 79.1 24.75 L79.1 24.65 Q79.1 22.15 79.15 20.9 79.3 19.9 79.4 19.6 79.55 18.85 79.8 18.35 80.2 18.2 80.55 18.65 L81.1 19.3 Q81.55 19.45 82.25 19.0 82.3 18.6 82.25 17.75 L82.75 17.7 Q82.8 19.1 82.8 21.2 L82.75 24.65 82.75 24.75" fill="#764e35" fill-rule="evenodd" stroke="none"/>
    <path d="M90.25 9.65 L90.45 11.45 Q90.5 12.45 90.45 13.2 90.45 13.55 90.2 13.95 L89.7 14.65 90.1 14.65 89.65 15.7 90.25 15.2 Q90.4 16.6 90.1 17.95 89.9 17.15 89.75 16.85 89.5 16.7 88.95 16.5 L88.75 15.4 87.05 15.55 Q87.15 14.45 87.05 12.6 86.95 10.45 87.0 9.6 89.3 9.6 90.25 9.65" fill="#6f503d" fill-rule="evenodd" stroke="none"/>
    <path d="M90.75 24.75 L88.85 24.75 87.65 24.75 86.95 24.7 86.95 24.65 Q87.15 23.95 87.1 23.2 L87.1 19.4 87.05 15.55 88.75 15.4 88.95 16.5 Q89.5 16.7 89.75 16.85 89.9 17.15 90.1 17.95 90.2 18.7 90.25 20.85 90.25 22.65 90.6 23.7 L90.75 24.75" fill="#634433" fill-rule="evenodd" stroke="none"/>
    <path d="M78.55 2.3 L78.9 3.0 77.55 3.0 76.85 2.65 77.4 3.45 77.2 3.95 77.25 4.3 77.9 3.7 78.3 5.0 78.4 3.85 Q79.5 3.45 80.75 4.25 L79.15 4.35 79.25 4.9 78.95 7.25 79.55 7.2 79.85 7.2 80.15 6.35 80.65 6.4 80.75 7.3 80.05 7.5 79.3 7.5 78.6 7.4 Q78.5 7.05 78.55 6.5 L78.6 5.6 77.7 5.85 77.15 5.5 Q76.35 6.1 75.2 6.25 L73.8 5.0 73.85 5.35 72.95 5.35 72.9 5.2 72.9 5.0 72.85 4.7 Q72.8 4.1 72.85 3.35 L72.95 2.0 73.35 1.95 73.35 2.0 Q73.1 3.05 73.1 3.55 73.0 4.4 73.35 5.05 L73.5 4.1 Q73.6 3.5 73.75 3.15 74.0 2.85 74.45 2.5 L75.25 2.0 74.35 1.95 76.5 1.9 Q77.7 1.95 78.55 2.3 M76.85 4.35 L75.55 3.8 Q75.65 4.3 75.95 4.6 76.3 4.9 76.8 5.0 L76.85 4.35" fill="#886947" fill-rule="evenodd" stroke="none"/>
    <path d="M73.35 2.0 L73.5 1.95 75.25 2.0 74.45 2.5 Q74.0 2.85 73.75 3.15 73.6 3.5 73.5 4.1 L73.35 5.05 Q73.0 4.4 73.1 3.55 73.1 3.05 73.35 2.0" fill="#c7b384" fill-rule="evenodd" stroke="none"/>
    <path d="M76.85 4.35 L76.8 5.0 Q76.3 4.9 75.95 4.6 75.65 4.3 75.55 3.8 L76.85 4.35" fill="#ccb78f" fill-rule="evenodd" stroke="none"/>
    <path d="M72.85 4.7 L72.9 5.0 72.9 5.2 72.95 5.35 72.95 5.5 73.0 5.65 73.0 5.85 72.65 6.55 Q72.1 6.7 71.4 7.0 L70.15 7.5 Q69.65 7.8 69.1 7.4 68.6 7.05 68.6 6.5 68.3 3.9 68.45 1.95 L70.5 2.0 71.0 2.85 71.95 3.75 Q72.5 4.3 72.85 4.7" fill="#e0ddc6" fill-rule="evenodd" stroke="none"/>
    <path d="M73.0 5.65 L73.3 5.6 73.75 6.55 73.8 5.7 Q74.05 6.2 74.75 7.05 75.3 7.9 75.25 8.6 L74.45 7.55 Q73.45 8.4 72.15 8.75 L71.05 8.85 Q72.15 8.0 73.8 7.55 73.15 6.25 73.0 5.85 L73.0 5.65" fill="#bb9e6c" fill-rule="evenodd" stroke="none"/>
    <path d="M77.75 7.35 Q78.1 7.85 78.35 8.9 77.45 8.95 75.75 8.85 76.0 8.3 76.6 7.95 77.0 7.65 77.75 7.35" fill="#886a4d" fill-rule="evenodd" stroke="none"/>
    <path d="M79.25 4.9 Q79.65 6.2 79.55 7.2 L78.95 7.25 79.25 4.9 M70.05 9.3 L69.4 9.3 69.2 9.3 68.6 8.9 Q68.7 7.95 68.35 6.85 67.9 7.7 67.85 8.9 L67.2 8.9 Q66.95 8.0 67.0 6.95 L64.6 7.8 63.45 7.4 64.15 5.95 Q64.35 5.3 64.45 4.6 64.55 3.6 64.25 2.0 L65.3 2.0 65.4 2.0 65.65 2.0 66.1 2.8 66.7 2.0 68.45 1.95 Q68.3 3.9 68.6 6.5 68.6 7.05 69.1 7.4 69.65 7.8 70.15 7.5 L71.4 7.0 Q72.1 6.7 72.65 6.55 L73.0 5.85 Q73.15 6.25 73.8 7.55 72.15 8.0 71.05 8.85 L70.05 9.3" fill="#ddd0a2" fill-rule="evenodd" stroke="none"/>
    <path d="M79.2 8.9 Q79.7 8.35 80.75 8.2 L81.15 8.95 79.2 8.9" fill="#7d6646" fill-rule="evenodd" stroke="none"/>
    <path d="M72.95 2.0 L72.85 3.35 Q72.8 4.1 72.85 4.7 72.5 4.3 71.95 3.75 L71.0 2.85 71.65 2.05 72.95 2.0" fill="#ddcc99" fill-rule="evenodd" stroke="none"/>
    <path d="M71.65 2.05 L71.0 2.85 70.5 2.0 71.65 2.05" fill="#9c8161" fill-rule="evenodd" stroke="none"/>
    <path d="M66.7 2.0 L66.1 2.8 65.65 2.0 66.7 2.0" fill="#997c5a" fill-rule="evenodd" stroke="none"/>
    <path d="M64.15 5.95 L63.45 7.4 64.6 7.8 Q65.25 8.0 66.0 8.4 L64.85 8.9 Q63.6 8.45 61.95 8.05 L63.4 6.05 63.35 6.8 63.85 5.85 63.2 5.85 63.75 5.25 64.15 5.95" fill="#ab915e" fill-rule="evenodd" stroke="none"/>
    <path d="M67.85 8.9 Q67.9 7.7 68.35 6.85 68.7 7.95 68.6 8.9 L68.4 8.9 67.85 8.9" fill="#b99b69" fill-rule="evenodd" stroke="none"/>
    <path d="M70.7 24.75 L69.35 24.75 69.3 24.65 Q69.1 24.0 69.05 23.55 68.95 22.9 69.1 22.35 69.25 21.4 69.15 19.95 68.95 18.05 68.95 17.5 L68.9 13.65 Q68.85 11.35 68.6 9.75 L70.55 9.65 70.55 12.7 70.5 15.75 Q70.45 16.25 70.6 17.55 70.65 18.7 70.6 19.4 70.5 20.4 70.6 22.1 L70.7 24.65 70.7 24.75" fill="#6a4937" fill-rule="evenodd" stroke="none"/>
    <path d="M74.6 10.85 L74.05 10.35 Q73.8 10.85 73.7 11.55 73.65 11.9 73.5 12.8 L73.0 12.5 Q72.55 13.85 71.4 14.6 L70.95 14.4 70.95 9.65 Q73.15 9.65 74.6 9.7 L74.6 10.85" fill="#8c5e3f" fill-rule="evenodd" stroke="none"/>
    <path d="M70.95 14.4 L71.4 14.6 Q72.55 13.85 73.0 12.5 L73.5 12.8 Q73.65 11.9 73.7 11.55 73.8 10.85 74.05 10.35 L74.6 10.85 Q74.6 11.9 74.75 14.65 74.75 15.1 74.65 16.35 74.55 17.4 74.65 18.05 74.75 19.0 74.75 20.45 L74.75 22.85 74.45 22.95 74.0 22.3 73.35 22.85 Q73.2 22.5 72.75 20.95 72.45 19.8 71.9 19.25 L71.0 20.5 71.0 17.45 Q71.0 15.5 70.95 14.4" fill="#805337" fill-rule="evenodd" stroke="none"/>
    <path d="M64.15 11.45 L64.25 9.7 Q65.55 9.75 67.05 9.65 67.1 13.0 66.95 17.35 L66.65 15.95 Q66.5 15.1 66.25 14.55 L65.9 15.35 65.25 15.35 Q64.75 16.15 64.55 17.5 L64.3 19.75 Q64.2 18.15 64.15 15.6 L64.15 11.45" fill="#613d29" fill-rule="evenodd" stroke="none"/>
    <path d="M78.9 24.75 L75.05 24.75 75.05 24.65 75.1 21.95 Q75.05 20.15 75.15 19.15 75.5 18.25 75.5 16.75 75.5 14.75 75.55 14.3 L76.0 14.5 Q76.25 14.65 76.45 14.75 76.55 15.2 76.7 16.0 76.8 16.85 76.9 17.25 77.3 16.45 77.35 15.1 L78.6 14.95 79.05 14.9 Q79.15 15.95 79.05 17.95 79.0 17.25 78.8 16.05 78.7 16.95 78.75 18.35 L78.75 20.7 Q78.65 22.35 78.9 24.65 L78.9 24.75" fill="#6d4934" fill-rule="evenodd" stroke="none"/>
    <path d="M79.1 24.75 L78.9 24.75 78.9 24.65 Q78.65 22.35 78.75 20.7 L78.75 18.35 Q78.7 16.95 78.8 16.05 79.0 17.25 79.05 17.95 79.05 18.95 79.15 20.9 79.1 22.15 79.1 24.65 L79.1 24.75" fill="#472514" fill-rule="evenodd" stroke="none"/>
    <path d="M64.25 2.0 Q64.55 3.6 64.45 4.6 L63.65 4.55 63.55 3.5 Q63.45 2.9 63.05 2.55 L62.0 2.0 64.0 2.0 64.05 2.0 64.25 2.0" fill="#a38962" fill-rule="evenodd" stroke="none"/>
    <path d="M63.05 2.55 Q63.45 2.9 63.55 3.5 L63.65 4.55 62.8 5.45 Q62.3 5.9 61.75 5.95 L60.95 5.9 60.25 5.55 58.4 5.65 58.5 7.5 58.35 7.5 57.2 7.55 Q56.6 7.6 56.1 7.75 55.2 8.1 54.35 8.0 L53.9 7.8 53.8 6.5 Q54.35 4.95 54.6 3.25 L55.05 3.35 54.8 4.6 56.85 4.1 55.4 3.65 56.65 3.35 56.2 2.1 57.25 2.45 Q57.9 1.95 59.2 2.05 L58.4 3.15 58.85 3.2 58.65 3.9 Q58.95 3.6 59.2 3.2 L59.6 2.4 Q59.95 2.35 60.4 2.4 L61.25 2.5 60.65 2.05 Q61.85 2.2 62.65 2.75 62.75 3.4 63.15 4.0 L62.8 2.8 63.05 2.55 M56.5 5.55 L55.7 5.75 Q55.25 5.85 54.95 6.05 L54.7 6.55 Q54.55 6.85 54.25 6.65 L54.25 7.55 55.55 7.6 Q56.1 6.45 56.5 5.55" fill="#6f5a40" fill-rule="evenodd" stroke="none"/>
    <path d="M62.8 2.8 L63.15 4.0 Q62.75 3.4 62.65 2.75 L62.8 2.8 M23.25 9.25 L21.3 9.3 19.35 9.25 20.25 8.65 18.75 7.5 Q18.45 7.25 18.3 6.8 18.2 6.55 18.15 6.0 L18.7 5.5 17.8 5.05 Q18.4 4.2 18.8 3.75 18.65 4.55 18.65 4.9 18.9 5.35 19.3 5.65 19.75 5.95 20.25 6.05 20.95 6.1 21.55 5.6 22.0 5.2 22.35 4.55 22.45 5.5 21.95 6.55 21.55 7.3 20.75 8.3 L23.25 8.7 23.25 9.25 M16.25 6.0 Q16.25 6.8 15.85 7.2 L15.75 5.85 Q15.8 5.1 16.25 4.7 L16.25 6.0" fill="#d9cca3" fill-rule="evenodd" stroke="none"/>
    <path d="M64.15 1.2 L65.7 1.55 Q63.05 1.4 60.95 1.6 L53.5 1.5 49.9 1.25 53.25 1.15 56.05 1.1 58.8 1.25 Q60.3 1.75 62.25 1.2 63.25 1.05 64.15 1.2" fill="#e1c87f" fill-rule="evenodd" stroke="none"/>
    <path d="M57.7 8.05 L58.0 8.9 56.0 8.9 56.6 8.15 57.15 8.05 57.7 8.05" fill="#6c5642" fill-rule="evenodd" stroke="none"/>
    <path d="M54.35 8.0 Q55.2 8.1 56.1 7.75 56.6 7.6 57.2 7.55 L58.35 7.5 57.6 7.7 57.7 8.05 57.15 8.05 56.6 8.15 56.0 8.9 55.1 8.9 54.35 8.0" fill="#c4a976" fill-rule="evenodd" stroke="none"/>
    <path d="M58.35 7.5 L58.5 7.5 58.75 7.45 59.05 7.45 58.65 8.9 60.35 8.95 60.05 9.2 Q59.15 9.0 57.75 9.0 L55.45 9.0 53.35 9.2 Q52.45 9.25 50.5 9.2 48.7 9.2 47.7 9.25 L45.6 9.3 Q44.4 9.3 43.55 8.95 45.05 8.9 48.55 8.85 L50.45 8.85 52.7 8.8 52.85 8.8 55.1 8.9 56.0 8.9 58.0 8.9 57.7 8.05 57.6 7.7 58.35 7.5" fill="#dcd3ad" fill-rule="evenodd" stroke="none"/>
    <path d="M64.7 9.3 L62.3 9.4 59.9 9.35 60.05 9.2 60.35 8.95 58.65 8.9 59.05 7.45 59.15 7.45 59.15 8.75 59.65 7.7 Q60.6 8.05 61.1 8.8 L60.25 9.2 Q60.95 9.25 62.4 9.25 63.85 9.2 64.55 9.25 L64.7 9.3" fill="#9b8066" fill-rule="evenodd" stroke="none"/>
    <path d="M11.05 24.75 L7.75 24.8 7.75 24.75 7.75 24.65 Q7.7 23.35 7.75 21.45 L8.3 21.6 Q8.6 19.55 8.5 18.05 8.4 16.65 8.9 15.3 9.1 15.85 9.4 17.05 9.7 18.25 9.9 18.85 L9.35 18.3 Q9.3 19.65 9.95 20.3 L10.2 19.7 9.9 19.65 Q10.15 19.5 10.65 19.05 10.65 18.65 10.55 17.55 10.45 16.6 10.55 16.05 11.0 15.65 11.15 14.95 L11.3 13.6 Q11.4 12.8 11.4 11.6 L11.45 9.6 Q12.85 9.6 14.3 9.65 14.25 13.8 14.3 17.3 L13.5 18.2 13.2 17.5 13.4 16.85 13.6 16.15 Q13.6 15.9 13.35 15.05 12.75 15.8 12.6 16.2 12.35 16.8 12.3 18.35 12.3 19.7 11.9 20.4 11.65 19.8 11.3 18.45 11.3 19.8 11.35 20.75 L12.15 20.75 Q12.4 21.9 11.9 22.75 11.65 21.95 11.45 20.95 10.9 22.5 11.05 24.65 L11.05 24.75 M59.15 7.45 Q60.0 7.45 60.6 7.75 61.4 8.1 61.5 8.85 L61.1 8.8 Q60.6 8.05 59.65 7.7 L59.15 8.75 59.15 7.45" fill="#5d3c2b" fill-rule="evenodd" stroke="none"/>
    <path d="M55.2 24.75 L53.4 24.75 53.4 24.65 Q53.3 21.5 53.4 17.55 L53.25 17.55 Q53.3 21.7 53.25 24.65 L53.25 24.75 49.55 24.75 49.55 24.65 Q49.6 22.35 49.55 19.35 L49.45 13.95 Q49.3 16.3 49.3 19.35 L49.35 24.65 49.35 24.75 45.65 24.75 45.65 24.65 45.55 18.95 Q45.45 15.4 45.55 13.15 L45.65 14.55 45.7 15.95 45.9 17.25 Q46.05 18.05 45.95 18.55 L45.8 19.1 45.75 19.6 Q46.15 20.1 46.9 20.4 47.35 20.6 48.3 20.85 47.4 19.2 46.85 17.8 46.7 17.45 46.8 16.9 L46.95 16.0 Q47.05 15.5 46.95 14.85 L46.75 13.75 48.0 14.6 Q48.1 13.5 47.95 12.25 L49.1 12.55 Q49.1 10.6 49.15 9.6 49.75 9.55 51.85 9.65 53.5 9.7 54.5 9.45 56.5 9.3 59.25 9.45 L60.7 9.8 60.7 16.0 60.65 22.3 60.55 21.3 Q60.45 20.75 60.2 20.45 59.95 20.35 59.1 20.15 L58.5 18.95 Q58.0 19.55 57.9 20.9 57.8 22.3 57.45 22.85 L57.35 18.55 Q57.3 15.95 57.0 14.25 56.75 15.5 56.7 16.75 56.2 15.85 55.5 15.15 L55.1 15.8 Q54.9 16.15 54.95 16.5 L55.2 18.95 Q55.2 19.25 55.4 19.65 L55.8 20.25 Q55.3 20.85 55.15 21.15 55.1 21.65 55.3 22.4 L55.6 23.65 56.45 23.7 Q56.0 24.05 55.45 24.65 L55.35 24.75 55.2 24.75" fill="#674331" fill-rule="evenodd" stroke="none"/>
    <path d="M63.6 9.7 Q63.7 11.5 63.65 14.2 L63.6 18.75 63.05 18.25 Q62.75 17.95 62.65 17.7 L62.9 16.5 Q62.95 15.8 62.75 15.3 61.9 16.1 61.9 16.8 61.6 19.95 61.55 22.4 61.55 23.15 61.1 24.25 61.0 22.55 61.05 19.2 61.05 15.85 60.95 14.15 60.85 11.9 60.95 9.65 L63.6 9.7" fill="#5d3e2f" fill-rule="evenodd" stroke="none"/>
    <path d="M62.25 1.2 Q60.3 1.75 58.8 1.25 60.3 1.0 62.25 1.2" fill="#ffffeb" fill-rule="evenodd" stroke="none"/>
    <path d="M53.8 6.5 L53.9 7.8 54.35 8.0 55.1 8.9 52.85 8.8 52.3 7.6 52.0 7.8 Q50.8 6.6 49.4 6.45 L49.7 6.9 49.35 7.05 48.1 6.9 48.0 6.45 Q47.85 6.05 48.1 5.7 48.25 5.5 48.7 5.2 49.3 5.6 50.25 5.6 L49.9 4.45 Q49.75 3.8 50.2 3.4 50.45 3.05 51.0 3.1 L51.9 3.3 52.0 2.2 52.35 2.75 52.4 2.1 52.65 2.2 54.5 2.0 54.5 2.85 Q53.8 3.0 53.5 3.1 52.95 3.3 52.65 3.55 L53.4 4.05 Q53.8 4.4 53.9 4.75 53.85 5.35 53.25 5.8 L52.1 6.4 53.55 7.2 53.8 6.5" fill="#7b6649" fill-rule="evenodd" stroke="none"/>
    <path d="M56.2 2.1 L56.65 3.35 56.1 3.45 55.05 3.35 54.6 3.25 Q54.35 4.95 53.8 6.5 L53.55 7.2 52.1 6.4 53.25 5.8 Q53.85 5.35 53.9 4.75 53.8 4.4 53.4 4.05 L52.65 3.55 Q52.95 3.3 53.5 3.1 53.8 3.0 54.5 2.85 L54.5 2.0 56.2 2.1 M12.9 9.3 L9.15 9.45 8.45 9.45 1.1 9.3 1.1 8.9 3.2 8.9 5.3 8.85 Q6.6 8.95 8.65 8.95 L12.0 8.95 12.15 9.1 9.55 9.0 Q8.05 8.95 7.0 9.0 L4.0 9.15 3.95 9.2 Q5.4 9.2 8.2 9.2 L10.35 9.2 Q11.7 9.15 12.55 9.2 L12.9 9.3" fill="#d9c28a" fill-rule="evenodd" stroke="none"/>
    <path d="M55.4 3.65 L56.85 4.1 54.8 4.6 55.05 3.35 56.1 3.45 55.4 3.65" fill="#a98b65" fill-rule="evenodd" stroke="none"/>
    <path d="M53.25 1.15 L49.9 1.25 Q49.25 1.2 48.4 1.2 46.55 1.15 43.7 1.15 L38.95 1.15 36.35 1.15 33.8 1.35 33.6 1.35 Q33.4 1.1 33.05 1.15 32.75 1.15 32.45 1.4 L32.15 1.4 Q31.4 1.2 30.35 1.15 L28.55 1.15 Q27.85 1.15 26.65 1.4 L25.15 1.45 Q24.1 1.1 23.5 1.15 L21.3 1.15 Q20.05 1.2 19.15 1.4 L17.65 1.4 Q16.5 1.05 15.25 1.25 L13.85 1.15 12.4 1.25 10.45 1.15 Q9.35 1.15 8.55 1.4 7.4 1.7 6.0 1.7 L3.45 1.5 5.55 1.5 Q6.85 1.5 7.65 1.3 6.45 1.1 4.45 1.2 L1.2 1.3 1.0 1.2 1.9 1.05 51.15 1.1 52.2 1.1 53.25 1.15" fill="#796c4e" fill-rule="evenodd" stroke="none"/>
    <path d="M52.7 8.8 L50.45 8.85 49.95 8.05 Q49.65 7.6 49.2 7.45 L48.05 7.4 46.9 7.7 47.5 8.65 48.3 8.25 48.55 8.85 Q45.05 8.9 43.55 8.95 L41.2 8.85 41.6 8.6 41.6 8.2 40.25 8.05 Q40.05 7.8 39.75 6.9 39.5 6.1 39.05 5.85 38.8 5.3 38.75 5.0 L39.5 4.1 40.25 3.65 Q40.7 3.45 41.6 3.1 L42.05 5.55 Q42.2 4.5 42.9 3.95 L42.85 3.4 Q43.15 3.55 43.5 3.8 L43.85 3.0 44.1 3.25 45.1 3.3 Q45.7 3.35 46.0 3.7 46.05 4.05 46.05 4.6 L45.95 5.5 47.4 5.4 46.45 3.65 Q45.9 2.6 45.4 2.0 L46.7 2.05 46.75 2.7 47.6 2.0 Q47.4 2.85 46.9 4.2 47.8 3.4 47.9 2.05 L48.3 2.1 48.15 2.5 47.95 3.25 48.4 4.7 48.8 4.65 48.75 3.0 48.65 1.95 49.35 2.65 50.0 2.05 50.55 2.25 Q50.15 2.6 49.7 3.8 49.3 4.85 48.7 5.2 48.25 5.5 48.1 5.7 47.85 6.05 48.0 6.45 L47.6 6.75 47.8 6.0 47.15 6.55 Q46.75 6.85 46.35 6.85 L45.65 6.2 45.7 6.9 45.05 6.75 45.4 7.35 44.45 7.75 46.35 8.1 Q46.6 7.55 47.05 7.25 47.5 6.9 48.1 6.9 L49.35 7.05 Q49.8 7.2 50.2 7.55 50.45 7.75 50.85 8.25 51.8 8.4 52.7 8.8" fill="#76643f" fill-rule="evenodd" stroke="none"/>
    <path d="M50.55 2.25 Q51.4 1.9 52.0 2.2 L51.9 3.3 51.0 3.1 Q50.45 3.05 50.2 3.4 49.75 3.8 49.9 4.45 L50.25 5.6 Q49.3 5.6 48.7 5.2 49.3 4.85 49.7 3.8 50.15 2.6 50.55 2.25" fill="#dac997" fill-rule="evenodd" stroke="none"/>
    <path d="M48.75 3.0 L48.8 4.65 48.4 4.7 47.95 3.25 48.15 2.5 48.75 3.0" fill="#998462" fill-rule="evenodd" stroke="none"/>
    <path d="M52.85 8.8 L52.7 8.8 Q51.8 8.4 50.85 8.25 50.45 7.75 50.2 7.55 49.8 7.2 49.35 7.05 L49.7 6.9 49.4 6.45 Q50.8 6.6 52.0 7.8 L52.3 7.6 52.85 8.8" fill="#d5c28c" fill-rule="evenodd" stroke="none"/>
    <path d="M50.45 8.85 L48.55 8.85 48.3 8.25 47.5 8.65 46.9 7.7 48.05 7.4 49.2 7.45 Q49.65 7.6 49.95 8.05 L50.45 8.85" fill="#9b8361" fill-rule="evenodd" stroke="none"/>
    <path d="M56.5 5.55 Q56.1 6.45 55.55 7.6 L54.25 7.55 54.25 6.65 Q54.55 6.85 54.7 6.55 L54.95 6.05 Q55.25 5.85 55.7 5.75 L56.5 5.55" fill="#a58668" fill-rule="evenodd" stroke="none"/>
    <path d="M60.75 24.75 L58.05 24.75 55.65 24.75 55.35 24.75 55.45 24.65 Q56.0 24.05 56.45 23.7 L55.6 23.65 55.3 22.4 Q55.1 21.65 55.15 21.15 55.3 20.85 55.8 20.25 L55.4 19.65 Q55.2 19.25 55.2 18.95 L54.95 16.5 Q54.9 16.15 55.1 15.8 L55.5 15.15 Q56.2 15.85 56.7 16.75 56.75 15.5 57.0 14.25 57.3 15.95 57.35 18.55 L57.45 22.85 Q57.8 22.3 57.9 20.9 58.0 19.55 58.5 18.95 L59.1 20.15 Q59.95 20.35 60.2 20.45 60.45 20.75 60.55 21.3 L60.65 22.3 60.75 24.75" fill="#5b3929" fill-rule="evenodd" stroke="none"/>
    <path d="M49.55 24.75 L49.35 24.75 49.35 24.65 49.3 19.35 Q49.3 16.3 49.45 13.95 L49.55 19.35 Q49.6 22.35 49.55 24.65 L49.55 24.75" fill="#391c11" fill-rule="evenodd" stroke="none"/>
    <path d="M49.15 9.6 Q49.1 10.6 49.1 12.55 L47.95 12.25 Q48.1 13.5 48.0 14.6 L46.75 13.75 46.95 14.85 Q47.05 15.5 46.95 16.0 L46.8 16.9 Q46.7 17.45 46.85 17.8 47.4 19.2 48.3 20.85 47.35 20.6 46.9 20.4 46.15 20.1 45.75 19.6 L45.8 19.1 45.95 18.55 Q46.05 18.05 45.9 17.25 L45.7 15.95 45.65 14.55 45.55 13.15 Q45.4 11.5 45.5 9.65 46.5 9.6 49.15 9.6" fill="#73503a" fill-rule="evenodd" stroke="none"/>
    <path d="M45.4 2.0 Q45.9 2.6 46.45 3.65 L47.4 5.4 45.95 5.5 46.05 4.6 Q46.05 4.05 46.0 3.7 45.7 3.35 45.1 3.3 L44.1 3.25 43.85 3.0 44.05 2.5 44.35 2.1 45.4 2.0 M17.1 2.6 L16.7 2.75 16.4 2.05 17.55 2.1 17.1 2.6" fill="#cfca9c" fill-rule="evenodd" stroke="none"/>
    <path d="M33.8 1.35 L36.35 1.15 38.95 1.15 43.7 1.15 Q46.55 1.15 48.4 1.2 47.1 1.55 45.0 1.5 43.65 1.45 41.9 1.55 L40.0 1.5 38.1 1.55 37.95 1.55 Q37.1 1.5 34.6 1.5 L33.8 1.35" fill="#f8e08c" fill-rule="evenodd" stroke="none"/>
    <path d="M42.85 3.4 L42.9 3.95 Q42.2 4.5 42.05 5.55 L41.6 3.1 Q40.7 3.45 40.25 3.65 L39.45 3.55 39.85 2.05 41.55 2.0 41.4 2.75 Q42.45 3.2 42.85 3.4 M33.65 4.65 L34.2 5.2 33.6 4.85 Q33.25 4.6 33.15 4.3 32.95 3.65 33.3 3.1 33.6 2.5 34.2 2.35 L33.65 3.1 Q33.4 3.55 33.4 3.95 33.35 4.3 33.65 4.65" fill="#b5a25c" fill-rule="evenodd" stroke="none"/>
    <path d="M48.0 6.45 L48.1 6.9 Q47.5 6.9 47.05 7.25 46.6 7.55 46.35 8.1 L44.45 7.75 45.4 7.35 45.05 6.75 45.7 6.9 45.65 6.2 46.35 6.85 Q46.75 6.85 47.15 6.55 L47.8 6.0 47.6 6.75 48.0 6.45" fill="#ad9c66" fill-rule="evenodd" stroke="none"/>
    <path d="M38.35 2.05 L38.3 2.85 37.5 2.05 38.35 2.05" fill="#98845a" fill-rule="evenodd" stroke="none"/>
    <path d="M33.8 6.4 Q34.6 6.05 35.85 5.7 L35.9 5.2 35.25 5.3 Q35.35 4.4 35.0 3.35 L35.5 3.7 Q35.8 3.9 36.0 4.05 L36.05 4.6 36.1 5.1 Q36.3 5.05 36.7 4.95 37.05 4.8 37.1 4.5 37.1 4.2 36.95 3.8 L36.7 3.05 Q37.35 3.9 37.7 5.35 L37.9 3.6 38.4 3.55 Q38.2 4.4 38.45 5.45 38.6 6.1 39.0 7.35 L37.35 7.35 37.55 5.75 36.8 6.35 Q36.4 6.75 36.0 6.85 L33.8 6.4" fill="#7d6c40" fill-rule="evenodd" stroke="none"/>
    <path d="M32.45 1.4 Q32.75 1.15 33.05 1.15 33.4 1.1 33.6 1.35 L32.45 1.4" fill="#deb97b" fill-rule="evenodd" stroke="none"/>
    <path d="M33.9 3.7 Q34.05 3.2 34.45 2.95 L34.3 4.35 34.6 3.95 35.1 4.55 33.85 4.65 Q33.8 4.05 33.9 3.7" fill="#816e48" fill-rule="evenodd" stroke="none"/>
    <path d="M32.8 7.65 L34.1 7.75 34.1 8.4 Q33.25 8.4 32.8 7.65" fill="#6b5a39" fill-rule="evenodd" stroke="none"/>
    <path d="M35.05 9.25 L34.7 9.25 34.35 8.8 Q34.6 8.15 35.55 7.85 L37.1 7.5 37.4 8.85 36.65 8.75 35.95 8.75 Q35.7 8.85 35.05 9.25" fill="#776841" fill-rule="evenodd" stroke="none"/>
    <path d="M34.7 9.25 Q33.2 9.35 31.25 9.3 L31.05 8.85 34.35 8.8 34.7 9.25" fill="#e4d295" fill-rule="evenodd" stroke="none"/>
    <path d="M39.75 8.85 L39.2 8.85 38.15 8.85 38.45 8.0 Q39.6 8.15 40.25 8.85 L39.75 8.85" fill="#5c5034" fill-rule="evenodd" stroke="none"/>
    <path d="M132.55 20.15 L132.45 14.9 Q132.35 11.7 132.45 9.6 133.7 9.55 134.85 9.8 L136.1 9.65 136.1 13.0 Q136.1 15.05 136.15 16.35 L135.45 16.7 134.65 16.4 Q134.3 17.5 134.05 18.5 L133.2 17.25 132.95 18.7 Q132.8 19.55 132.55 20.15 M33.75 20.15 L33.65 14.9 Q33.55 11.7 33.6 9.6 L37.3 9.65 37.3 13.0 Q37.3 15.05 37.35 16.35 L36.65 16.7 35.85 16.4 Q35.5 17.5 35.25 18.5 L34.4 17.2 34.15 18.7 Q34.0 19.55 33.75 20.15" fill="#7a5742" fill-rule="evenodd" stroke="none"/>
    <path d="M140.3 24.8 Q138.2 24.7 135.5 24.75 L132.35 24.85 132.4 24.75 132.4 24.65 Q132.5 23.85 132.5 22.5 132.45 20.9 132.55 20.15 132.8 19.55 132.95 18.7 L133.2 17.25 134.05 18.5 Q134.3 17.5 134.65 16.4 L135.45 16.7 136.15 16.35 136.15 20.2 Q136.15 22.6 136.25 24.05 136.35 22.25 136.35 19.75 L136.3 15.5 137.25 15.2 Q137.8 15.05 138.2 15.3 138.6 15.8 139.25 16.9 139.6 18.9 139.55 20.75 L139.15 20.7 139.15 21.6 139.55 21.3 Q139.7 22.4 139.9 23.2 L140.2 22.2 Q140.2 23.0 140.3 24.65 L140.3 24.8 M41.4 24.75 L37.5 24.75 Q35.0 24.8 33.55 24.85 L33.6 24.75 33.6 24.65 Q33.7 23.85 33.65 22.5 33.65 20.95 33.75 20.15 34.0 19.55 34.15 18.7 L34.4 17.2 35.25 18.5 Q35.5 17.5 35.85 16.4 L36.65 16.7 37.35 16.35 37.4 19.3 Q37.4 21.25 37.45 22.25 37.55 21.0 37.5 18.9 L37.5 15.5 38.35 15.25 39.25 15.25 Q40.15 16.2 40.45 17.25 40.65 18.0 40.7 19.0 L40.75 20.75 40.35 20.7 40.35 21.6 40.75 21.3 41.05 23.2 41.35 22.4 41.4 24.75" fill="#674633" fill-rule="evenodd" stroke="none"/>
    <path d="M37.5 15.5 Q37.55 14.4 37.55 12.6 L37.5 9.65 Q41.85 9.7 45.3 9.65 L45.3 13.35 44.9 13.25 Q44.15 14.0 43.25 14.55 43.4 13.7 43.35 13.0 L42.7 13.55 Q42.35 13.9 42.5 14.25 L42.8 14.65 43.2 15.05 Q42.05 15.85 41.6 16.75 L41.55 13.35 Q41.55 11.25 41.5 10.0 41.25 10.95 41.35 12.45 41.5 14.4 41.45 14.95 41.35 16.45 41.35 18.65 L41.35 22.4 41.05 23.2 40.75 21.3 40.35 21.6 40.35 20.7 40.75 20.75 40.7 19.0 Q40.65 18.0 40.45 17.25 40.15 16.2 39.25 15.25 L38.35 15.25 37.5 15.5" fill="#71513d" fill-rule="evenodd" stroke="none"/>
    <path d="M45.3 24.75 Q43.25 24.75 41.6 24.75 L41.6 24.65 41.6 16.75 Q42.05 15.85 43.2 15.05 L42.8 14.65 42.5 14.25 Q42.35 13.9 42.7 13.55 L43.35 13.0 Q43.4 13.7 43.25 14.55 44.15 14.0 44.9 13.25 L45.3 13.35 45.35 19.05 Q45.35 22.5 45.3 24.65 L45.3 24.75" fill="#603f30" fill-rule="evenodd" stroke="none"/>
    <path d="M3.45 1.5 L6.0 1.7 Q7.4 1.7 8.55 1.4 L13.1 1.6 15.25 1.45 15.45 1.4 Q16.25 1.5 17.65 1.4 L19.15 1.4 22.15 1.5 Q23.9 1.55 25.15 1.45 L26.65 1.4 28.6 1.5 30.25 1.55 30.35 1.55 31.3 1.5 31.25 1.5 25.5 1.95 24.3 1.95 Q21.75 1.75 18.9 1.95 18.5 2.0 17.95 2.2 L17.1 2.6 17.55 2.1 16.4 2.05 15.75 2.0 Q14.1 1.9 13.3 2.0 L12.85 2.05 Q12.95 2.6 13.1 3.2 12.75 3.3 12.15 3.65 L12.15 4.1 12.9 4.6 12.95 5.35 12.25 6.35 11.6 6.45 10.9 6.5 Q10.65 6.4 10.35 6.2 L9.85 5.8 9.4 5.35 9.75 4.95 9.4 3.8 10.25 3.6 10.6 4.95 Q11.45 3.45 11.0 2.45 10.9 2.15 10.55 2.1 L9.9 2.0 8.45 2.0 9.0 2.8 7.8 2.4 8.45 3.7 7.95 3.65 7.35 2.7 6.8 3.55 7.3 4.1 6.85 4.2 7.65 5.45 6.5 5.5 Q6.25 4.6 5.65 3.65 5.2 2.95 4.4 2.0 L4.2 3.1 5.05 3.8 4.75 4.9 6.25 6.0 5.15 6.45 5.15 7.0 Q5.9 7.55 6.4 8.2 L5.3 8.85 3.2 8.9 1.1 8.9 Q1.05 7.85 1.1 5.15 1.15 2.75 1.0 1.35 L3.45 1.5 M11.85 2.0 L11.3 2.0 Q11.45 2.95 11.75 3.6 L11.85 2.0" fill="#31271b" fill-rule="evenodd" stroke="none"/>
    <path d="M28.55 1.15 L30.35 1.15 Q31.4 1.2 32.15 1.4 L31.95 1.45 31.45 1.5 31.4 1.5 31.35 1.5 31.3 1.5 30.35 1.55 30.25 1.55 28.6 1.5 28.55 1.15" fill="#fefbce" fill-rule="evenodd" stroke="none"/>
    <path d="M31.8 2.0 Q31.45 3.4 31.7 4.9 31.95 6.3 32.75 7.6 31.65 8.15 30.9 7.95 30.7 7.95 30.6 7.8 30.55 7.65 30.55 7.45 30.35 6.35 30.5 4.8 L30.8 2.2 30.9 2.05 31.8 2.0" fill="#cab36c" fill-rule="evenodd" stroke="none"/>
    <path d="M26.65 1.4 Q27.85 1.15 28.55 1.15 L28.6 1.5 26.65 1.4" fill="#d1a165" fill-rule="evenodd" stroke="none"/>
    <path d="M25.3 9.35 L23.55 9.25 Q24.3 8.9 25.1 8.75 L24.1 8.2 Q23.55 7.95 23.05 7.8 23.3 7.25 24.05 6.35 24.8 5.4 25.1 4.9 25.25 4.55 25.15 4.1 L24.85 3.35 25.1 2.8 25.5 1.95 27.95 2.0 Q27.4 3.3 27.4 5.6 27.35 8.35 27.15 9.25 L26.25 9.3 25.3 9.35" fill="#e0ddc5" fill-rule="evenodd" stroke="none"/>
    <path d="M24.95 3.05 Q24.5 2.65 24.3 1.95 L25.5 1.95 25.1 2.8 24.95 3.05" fill="#624c3b" fill-rule="evenodd" stroke="none"/>
    <path d="M24.95 3.05 L24.85 3.35 25.15 4.1 Q25.25 4.55 25.1 4.9 24.8 5.4 24.05 6.35 23.3 7.25 23.05 7.8 L22.35 7.65 Q22.85 6.0 23.6 4.85 23.4 3.65 23.05 2.65 L22.7 2.9 22.85 1.95 24.3 1.95 Q24.5 2.65 24.95 3.05 M22.15 3.2 Q21.85 2.75 21.3 2.45 20.9 2.25 20.2 2.0 L21.15 2.0 21.65 2.0 22.0 2.0 22.05 2.0 22.1 2.0 Q22.3 2.8 22.35 3.45 L22.15 3.2" fill="#dbd0a3" fill-rule="evenodd" stroke="none"/>
    <path d="M27.5 6.5 L28.15 6.4 28.65 6.9 Q28.9 7.15 29.05 7.45 29.15 7.7 29.2 8.15 L29.2 8.9 27.6 8.85 Q27.45 7.9 27.5 6.5" fill="#7c6644" fill-rule="evenodd" stroke="none"/>
    <path d="M30.95 9.25 L29.3 9.35 27.7 9.35 27.6 8.85 29.2 8.9 Q30.05 8.85 30.95 9.25" fill="#fffddf" fill-rule="evenodd" stroke="none"/>
    <path d="M24.3 1.95 L22.85 1.95 22.75 1.95 22.65 1.95 22.1 2.0 22.05 2.0 22.0 2.0 21.65 2.0 21.15 2.0 20.2 2.0 Q20.9 2.25 21.3 2.45 21.85 2.75 22.15 3.2 L22.0 3.35 21.65 3.55 21.7 4.35 Q20.95 4.15 20.2 3.65 L18.8 3.75 Q18.4 4.2 17.8 5.05 L18.7 5.5 18.15 6.0 17.3 5.3 Q17.45 6.3 17.7 7.2 L16.5 7.95 16.9 8.9 15.35 8.85 Q14.5 8.75 13.85 8.4 L13.3 8.85 12.8 8.6 12.25 6.35 12.95 5.35 13.5 5.95 Q13.65 4.75 13.5 3.2 L13.1 3.2 Q12.95 2.6 12.85 2.05 L13.3 2.0 13.65 2.85 14.2 3.05 14.6 3.85 15.45 3.7 Q15.4 2.75 15.75 2.0 L16.4 2.05 16.7 2.75 17.1 2.6 17.95 2.2 Q18.5 2.0 18.9 1.95 21.75 1.75 24.3 1.95 M20.85 2.95 L21.6 3.15 Q20.9 2.35 20.0 2.35 19.65 2.35 19.3 2.65 L18.7 3.15 19.45 3.15 20.2 3.2 Q20.6 3.4 21.35 4.0 21.35 3.5 20.85 2.95 M17.4 3.6 L16.75 3.8 17.05 4.85 17.4 3.6 M16.25 6.0 L16.25 4.7 Q15.8 5.1 15.75 5.85 L15.85 7.2 Q16.25 6.8 16.25 6.0" fill="#554230" fill-rule="evenodd" stroke="none"/>
    <path d="M23.55 9.25 L23.25 9.25 23.25 8.7 20.75 8.3 Q21.55 7.3 21.95 6.55 22.45 5.5 22.35 4.55 22.4 4.0 22.35 3.45 22.3 2.8 22.1 2.0 L22.65 1.95 22.75 1.95 22.85 1.95 22.7 2.9 23.05 2.65 Q23.4 3.65 23.6 4.85 22.85 6.0 22.35 7.65 L23.05 7.8 Q23.55 7.95 24.1 8.2 L25.1 8.75 Q24.3 8.9 23.55 9.25" fill="#9a8561" fill-rule="evenodd" stroke="none"/>
    <path d="M18.8 3.75 L20.2 3.65 Q20.95 4.15 21.7 4.35 L21.65 3.55 22.0 3.35 22.15 3.2 22.35 3.45 Q22.4 4.0 22.35 4.55 22.0 5.2 21.55 5.6 20.95 6.1 20.25 6.05 19.75 5.95 19.3 5.65 18.9 5.35 18.65 4.9 18.65 4.55 18.8 3.75" fill="#685642" fill-rule="evenodd" stroke="none"/>
    <path d="M20.85 2.95 Q21.35 3.5 21.35 4.0 20.6 3.4 20.2 3.2 L19.45 3.15 18.7 3.15 19.3 2.65 Q19.65 2.35 20.0 2.35 20.9 2.35 21.6 3.15 L20.85 2.95 M19.65 2.65 Q19.5 3.1 20.0 2.95 20.15 2.5 19.65 2.65" fill="#967552" fill-rule="evenodd" stroke="none"/>
    <path d="M17.4 3.6 L17.05 4.85 16.75 3.8 17.4 3.6" fill="#a49580" fill-rule="evenodd" stroke="none"/>
    <path d="M19.65 2.65 Q20.15 2.5 20.0 2.95 19.5 3.1 19.65 2.65" fill="#6b4e3c" fill-rule="evenodd" stroke="none"/>
    <path d="M16.95 9.3 L14.95 9.3 Q13.6 9.25 12.9 9.3 L12.55 9.2 12.15 9.1 12.0 8.95 13.3 8.85 13.85 8.4 Q14.5 8.75 15.35 8.85 L16.9 8.9 16.5 7.95 17.7 7.2 Q17.45 6.3 17.3 5.3 L18.15 6.0 Q18.2 6.55 18.3 6.8 18.45 7.25 18.75 7.5 L18.2 7.65 Q18.0 8.35 17.8 8.7 17.5 9.2 16.95 9.3" fill="#b09668" fill-rule="evenodd" stroke="none"/>
    <path d="M19.35 9.25 L16.95 9.3 Q17.5 9.2 17.8 8.7 18.0 8.35 18.2 7.65 L18.75 7.5 20.25 8.65 19.35 9.25" fill="#654d38" fill-rule="evenodd" stroke="none"/>
    <path d="M17.8 24.75 L14.9 24.75 14.9 24.65 14.8 20.55 14.75 16.35 14.65 13.0 Q14.65 10.95 14.5 9.65 15.3 9.6 16.95 9.7 18.55 9.8 19.4 9.7 19.5 10.7 19.45 11.85 19.35 10.75 18.25 10.0 L18.25 11.55 Q18.25 12.45 18.25 13.05 18.25 13.3 18.4 14.25 18.5 14.95 18.45 15.4 L18.3 16.35 Q18.2 16.95 18.2 17.3 18.2 17.85 18.3 18.95 18.35 19.9 18.05 20.55 17.9 19.55 17.9 18.7 L17.9 14.5 Q17.9 11.85 17.95 10.3 L17.8 10.3 Q17.9 17.0 17.8 24.65 L17.8 24.75" fill="#5d3825" fill-rule="evenodd" stroke="none"/>
    <path d="M21.3 24.75 L19.9 24.75 19.9 24.65 19.7 23.45 Q19.6 22.7 19.75 22.2 19.9 21.55 19.85 20.65 L19.75 19.1 Q19.65 17.7 19.6 16.15 L19.55 14.0 Q19.45 12.65 19.45 11.85 19.5 10.7 19.4 9.7 L21.25 9.65 21.25 17.2 Q21.2 21.75 21.3 24.65 L21.3 24.75" fill="#6a4a37" fill-rule="evenodd" stroke="none"/>
    <path d="M19.9 24.75 L17.95 24.75 17.95 24.65 17.9 22.65 Q17.85 21.4 18.05 20.55 18.35 19.9 18.3 18.95 18.2 17.85 18.2 17.3 18.2 16.95 18.3 16.35 L18.45 15.4 Q18.5 14.95 18.4 14.25 18.25 13.3 18.25 13.05 18.25 12.45 18.25 11.55 L18.25 10.0 Q19.35 10.75 19.45 11.85 19.45 12.65 19.55 14.0 L19.6 16.15 Q19.65 17.7 19.75 19.1 L19.85 20.65 Q19.9 21.55 19.75 22.2 19.6 22.7 19.7 23.45 L19.9 24.65 19.9 24.75" fill="#4f3326" fill-rule="evenodd" stroke="none"/>
    <path d="M15.25 1.25 Q16.5 1.05 17.65 1.4 16.25 1.5 15.45 1.4 L15.25 1.25" fill="#ebc776" fill-rule="evenodd" stroke="none"/>
    <path d="M12.4 1.25 L13.85 1.15 15.25 1.25 15.45 1.4 15.25 1.45 Q14.05 1.6 12.4 1.25" fill="#fffff1" fill-rule="evenodd" stroke="none"/>
    <path d="M13.1 3.2 L13.5 3.2 Q13.65 4.75 13.5 5.95 L12.95 5.35 12.9 4.6 12.15 4.1 12.15 3.65 Q12.75 3.3 13.1 3.2" fill="#795e44" fill-rule="evenodd" stroke="none"/>
    <path d="M15.75 2.0 Q15.4 2.75 15.45 3.7 L14.6 3.85 14.2 3.05 13.65 2.85 13.3 2.0 Q14.1 1.9 15.75 2.0" fill="#8a6e49" fill-rule="evenodd" stroke="none"/>
    <path d="M8.55 1.4 Q9.35 1.15 10.45 1.15 L12.4 1.25 Q14.05 1.6 15.25 1.45 L13.1 1.6 8.55 1.4" fill="#dcca8c" fill-rule="evenodd" stroke="none"/>
    <path d="M11.85 2.0 L11.75 3.6 Q11.45 2.95 11.3 2.0 L11.85 2.0" fill="#62533d" fill-rule="evenodd" stroke="none"/>
    <path d="M9.9 2.0 L10.55 2.1 Q10.9 2.15 11.0 2.45 11.45 3.45 10.6 4.95 L10.25 3.6 9.4 3.8 9.75 4.95 9.4 5.35 9.85 5.8 Q10.0 6.55 9.6 7.25 9.55 7.0 9.55 6.65 L9.55 6.1 8.85 5.8 Q8.55 6.6 8.0 7.05 8.45 5.0 8.75 4.15 L9.4 3.15 Q9.8 2.5 9.9 2.0" fill="#6e5a3d" fill-rule="evenodd" stroke="none"/>
    <path d="M12.25 6.35 L12.8 8.6 13.3 8.85 12.0 8.95 8.65 8.95 Q6.6 8.95 5.3 8.85 L6.4 8.2 Q5.9 7.55 5.15 7.0 L5.15 6.45 6.25 6.0 4.75 4.9 5.05 3.8 4.2 3.1 4.4 2.0 Q5.2 2.95 5.65 3.65 6.25 4.6 6.5 5.5 L7.65 5.45 6.85 4.2 7.3 4.1 6.8 3.55 7.35 2.7 7.95 3.65 8.45 3.7 7.8 2.4 9.0 2.8 8.45 2.0 9.9 2.0 Q9.8 2.5 9.4 3.15 L8.75 4.15 Q8.45 5.0 8.0 7.05 8.55 6.6 8.85 5.8 L9.55 6.1 9.55 6.65 Q9.55 7.0 9.6 7.25 10.0 6.55 9.85 5.8 L10.35 6.2 Q10.65 6.4 10.9 6.5 L11.6 6.45 12.25 6.35" fill="#493a28" fill-rule="evenodd" stroke="none"/>
    <path d="M9.15 9.45 L11.25 9.7 11.3 11.65 11.3 13.6 11.15 14.95 Q11.0 15.65 10.55 16.05 10.45 16.6 10.55 17.55 10.65 18.65 10.65 19.05 10.15 19.5 9.9 19.65 L10.2 19.7 9.95 20.3 Q9.3 19.65 9.35 18.3 L9.9 18.85 Q9.7 18.25 9.4 17.05 9.1 15.85 8.9 15.3 8.4 16.65 8.5 18.05 8.6 19.55 8.3 21.6 L7.75 21.45 7.75 12.6 7.7 11.15 Q7.7 10.25 7.8 9.7 8.15 9.5 8.45 9.45 L9.15 9.45" fill="#684433" fill-rule="evenodd" stroke="none"/>
    <path d="M1.1 20.55 Q1.05 18.4 1.05 15.1 L1.05 9.6 Q2.4 9.6 3.75 9.6 L3.8 13.85 3.8 18.1 Q3.8 19.05 3.65 20.0 3.1 18.9 2.85 17.6 2.6 18.55 2.25 19.2 1.8 20.05 1.1 20.55" fill="#694432" fill-rule="evenodd" stroke="none"/>
    <path d="M7.65 24.75 L5.35 24.8 4.35 24.75 Q2.15 24.75 1.1 24.8 L1.1 24.75 1.1 24.65 1.05 22.65 Q1.05 21.4 1.1 20.55 1.8 20.05 2.25 19.2 2.6 18.55 2.85 17.6 3.1 18.9 3.65 20.0 3.85 20.65 3.8 21.75 L3.75 23.55 3.9 23.55 3.85 21.85 Q3.85 20.95 3.95 20.2 4.15 20.75 4.3 21.75 4.45 22.85 4.6 23.3 L5.6 23.45 Q5.65 22.8 5.2 22.0 4.55 20.9 4.5 20.7 L6.35 20.3 5.65 19.6 5.7 18.55 Q5.7 17.9 5.6 17.45 5.4 17.3 5.1 17.15 L4.55 16.85 5.1 16.3 5.0 14.85 6.25 15.0 Q6.95 15.05 7.5 14.9 6.7 14.35 6.35 14.05 L6.65 12.85 Q6.85 12.1 6.8 11.65 6.8 11.15 6.5 10.55 L6.0 9.6 7.65 9.6 Q7.7 17.5 7.65 24.65 L7.65 24.75" fill="#5f3c2b" fill-rule="evenodd" stroke="none"/>
    <path d="M3.95 20.2 Q3.85 19.8 3.85 19.1 L3.85 14.35 Q3.85 11.5 3.9 9.6 L6.0 9.6 6.5 10.55 Q6.8 11.15 6.8 11.65 6.85 12.1 6.65 12.85 L6.35 14.05 Q6.7 14.35 7.5 14.9 6.95 15.05 6.25 15.0 L5.0 14.85 5.1 16.3 4.55 16.85 5.1 17.15 Q5.4 17.3 5.6 17.45 5.7 17.9 5.7 18.55 L5.65 19.6 6.35 20.3 4.5 20.7 Q4.55 20.9 5.2 22.0 5.65 22.8 5.6 23.45 L4.6 23.3 Q4.45 22.85 4.3 21.75 4.15 20.75 3.95 20.2" fill="#6d4b39" fill-rule="evenodd" stroke="none"/>
    <path d="M14.3 24.75 Q12.35 24.8 11.05 24.75 L11.05 24.65 Q10.9 22.5 11.45 20.95 11.65 21.95 11.9 22.75 12.4 21.9 12.15 20.75 L11.35 20.75 Q11.3 19.8 11.3 18.45 11.65 19.8 11.9 20.4 12.3 19.7 12.3 18.35 12.35 16.8 12.6 16.2 12.75 15.8 13.35 15.05 13.6 15.9 13.6 16.15 L13.4 16.85 13.2 17.5 13.5 18.2 14.3 17.3 Q14.25 18.85 14.3 21.05 L14.3 24.75" fill="#503325" fill-rule="evenodd" stroke="none"/>
    <path d="M132.35 1.25 L135.35 1.15 138.4 1.15 Q138.75 1.15 139.45 1.1 140.05 1.15 140.4 1.4 L140.45 1.45 140.4 1.45 139.65 1.5 138.1 1.5 136.55 1.45 134.45 1.5 Q133.2 1.5 132.35 1.25" fill="#faf1aa" fill-rule="evenodd" stroke="none"/>
    <path d="M136.3 8.9 L138.3 8.85 Q139.5 8.85 140.3 9.1 139.6 9.4 139.2 9.4 137.55 9.4 134.85 9.3 L136.5 9.2 136.3 8.9" fill="#dcb051" fill-rule="evenodd" stroke="none"/>
    <path d="M136.3 15.5 Q136.4 14.35 136.35 12.6 L136.35 9.65 140.15 9.7 Q140.05 10.7 140.15 12.45 140.3 14.4 140.25 15.15 140.2 16.5 140.2 18.65 L140.2 22.2 139.9 23.2 Q139.7 22.4 139.55 21.3 L139.15 21.6 139.15 20.7 139.55 20.75 Q139.6 18.9 139.25 16.9 138.6 15.8 138.2 15.3 137.8 15.05 137.25 15.2 L136.3 15.5" fill="#71513e" fill-rule="evenodd" stroke="none"/>
    <path d="M139.65 0.35 L140.9 0.35 Q140.95 0.35 141.0 0.4 L141.05 0.5 141.05 25.25 141.0 25.35 140.9 25.4 129.5 25.4 108.55 25.4 108.35 25.4 Q107.85 25.35 107.55 25.4 L41.75 25.4 M141.4 0.5 Q141.4 0.3 141.25 0.15 141.1 0.0 140.9 0.0 L139.3 0.0 135.3 0.0 126.75 0.0 M139.65 0.35 L134.9 0.35 132.05 0.35 129.5 0.35 M129.45 0.35 L128.7 0.35 126.65 0.35 114.8 0.35 114.6 0.35 108.0 0.35 33.4 0.35 33.15 0.35 5.2 0.35 1.0 0.35 0.65 0.35 0.5 0.35 Q0.45 0.35 0.4 0.4 0.35 0.4 0.35 0.5 L0.35 0.85 0.35 25.25 0.4 25.35 0.45 25.4 0.5 25.4 6.05 25.4 6.9 25.4 9.7 25.4 10.25 25.4 28.6 25.4 40.75 25.4 M140.75 14.4 L140.75 0.8 140.7 0.7 140.6 0.65 140.55 0.65 114.75 0.65 M113.85 1.0 L140.4 1.0 140.4 1.05 M140.4 24.65 L140.4 24.75 140.3 24.75 M135.35 25.1 L140.55 25.05 140.65 25.05 140.7 25.0 140.75 24.9 140.75 15.45 M141.4 0.5 L141.4 25.25 Q141.4 25.4 141.25 25.55 141.1 25.7 140.9 25.7 L127.5 25.7 31.6 25.7 0.5 25.7 Q0.3 25.7 0.15 25.55 0.0 25.4 0.0 25.25 L0.0 0.95 0.0 0.5 0.05 0.35 Q0.05 0.25 0.15 0.15 0.3 0.0 0.5 0.0 L0.7 0.0 1.15 0.0 5.15 0.0 23.0 0.0 25.45 0.0 35.8 0.0 36.3 0.0 36.75 0.0 106.5 0.0 126.7 0.0 M131.7 24.75 L132.35 24.75 M5.75 25.1 L127.7 25.1 128.7 25.1 129.5 25.1 129.7 25.1 131.05 25.1 134.85 25.1 135.35 25.1 M117.15 24.75 L118.9 24.75 M21.35 0.65 L17.5 0.65 3.55 0.65 2.7 0.65 1.1 0.65 0.8 0.65 0.75 0.65 0.7 0.7 0.65 0.8 0.65 1.0 0.65 24.9 0.7 25.0 0.7 25.05 0.8 25.05 5.4 25.05 M20.1 1.0 L113.85 1.0 M105.85 24.75 L106.45 24.75 M17.95 24.75 L17.8 24.75 M7.75 24.75 L7.65 24.75 M94.95 24.75 L94.8 24.75 M87.65 24.75 L86.95 24.75 M55.65 24.75 L55.2 24.75 M53.4 24.75 L53.25 24.75 M128.4 24.75 L128.2 24.75 M123.75 24.75 L124.25 24.75 M117.15 24.75 L116.6 24.75 M32.9 24.75 L33.55 24.75 M0.35 0.85 L0.0 0.95 M10.25 25.4 L9.7 25.4 M20.1 1.0 L1.0 1.0 1.0 24.75 1.1 24.75 M29.4 24.75 L29.6 24.75 M25.45 24.75 L26.05 24.75 M28.6 25.4 L30.5 25.55 30.95 25.55 31.6 25.7" fill="none" stroke="#000000" stroke-linecap="round" stroke-linejoin="round" stroke-opacity="0.4" stroke-width="1.0"/>
  </g>
</svg>
