<?xml version="1.0" encoding="UTF-8" standalone="no"?>
<svg xmlns:xlink="http://www.w3.org/1999/xlink" height="3.6px" width="3.6px" xmlns="http://www.w3.org/2000/svg">
  <g transform="matrix(1.0, 0.0, 0.0, 1.0, -31.9, -2.0)">
    <path d="M34.25 2.1 Q34.35 2.25 34.35 2.45 L34.3 2.7 34.3 3.15 34.65 3.15 34.75 3.15 Q34.85 3.1 35.0 3.1 35.25 3.1 35.35 3.2 L35.35 3.25 Q35.45 3.35 35.5 3.55 L35.4 3.85 35.4 3.85 35.35 3.95 35.2 4.2 Q35.05 4.3 34.75 4.3 L34.3 4.3 34.3 4.8 Q34.3 5.15 34.15 5.25 L33.9 5.45 33.85 5.45 33.8 5.5 33.75 5.5 Q33.55 5.6 33.45 5.55 33.25 5.55 33.2 5.45 L33.15 5.45 Q33.05 5.35 33.05 5.1 33.05 4.95 33.1 4.85 L33.1 4.3 32.75 4.3 32.65 4.35 32.4 4.4 Q32.15 4.4 32.05 4.3 31.9 4.2 31.9 4.0 31.85 3.85 32.0 3.6 L32.05 3.55 Q32.1 3.4 32.2 3.3 32.3 3.15 32.65 3.15 L33.1 3.15 33.1 2.75 Q33.1 2.4 33.25 2.3 33.35 2.2 33.45 2.15 L33.5 2.15 33.5 2.1 33.55 2.1 Q33.8 1.95 33.95 2.0 34.15 2.0 34.25 2.1 M33.9 2.4 L33.8 2.45 33.65 2.5 33.55 2.55 Q33.5 2.6 33.5 2.75 L33.5 3.55 32.65 3.55 32.5 3.6 32.4 3.7 32.35 3.85 32.3 3.95 32.4 4.0 Q32.45 4.0 32.5 3.95 L32.75 3.9 33.5 3.9 33.5 4.7 33.45 5.0 33.45 5.1 Q33.45 5.15 33.5 5.15 33.55 5.15 33.6 5.15 L33.75 5.05 33.85 5.0 33.9 4.8 33.9 3.9 34.75 3.9 34.9 3.9 35.0 3.8 35.05 3.65 35.1 3.55 35.0 3.5 Q34.95 3.5 34.9 3.55 L34.65 3.55 33.9 3.55 33.9 2.85 Q33.9 2.6 33.95 2.55 L33.95 2.45 Q33.95 2.4 33.9 2.4" fill="#000000" fill-rule="evenodd" stroke="none"/>
    <path d="M33.9 2.4 Q33.95 2.4 33.95 2.45 L33.95 2.55 Q33.9 2.6 33.9 2.85 L33.9 3.55 34.65 3.55 34.9 3.55 Q34.95 3.5 35.0 3.5 L35.1 3.55 35.05 3.65 35.0 3.8 34.9 3.9 34.75 3.9 33.9 3.9 33.9 4.8 33.85 5.0 33.75 5.05 33.6 5.15 Q33.55 5.15 33.5 5.15 33.45 5.15 33.45 5.1 L33.45 5.0 33.5 4.7 33.5 3.9 32.75 3.9 32.5 3.95 Q32.45 4.0 32.4 4.0 L32.3 3.95 32.35 3.85 32.4 3.7 32.5 3.6 32.65 3.55 33.5 3.55 33.5 2.75 Q33.5 2.6 33.55 2.55 L33.65 2.5 33.8 2.45 33.9 2.4" fill="#1f3ba6" fill-rule="evenodd" stroke="none"/>
  </g>
</svg>
