<?xml version="1.0" encoding="UTF-8" standalone="no"?>
<svg xmlns:xlink="http://www.w3.org/1999/xlink" height="6.25px" width="3.1px" xmlns="http://www.w3.org/2000/svg">
  <g transform="matrix(1.0, 0.0, 0.0, 1.0, 0.0, 0.0)">
    <path d="M2.55 1.25 L2.55 4.75 Q2.8 4.85 2.9 4.95 L2.95 5.0 2.95 5.05 Q3.1 5.2 3.1 5.5 3.1 5.8 2.8 6.05 2.65 6.25 2.3 6.25 L2.25 6.25 1.65 6.15 1.3 6.2 0.95 6.25 Q0.6 6.2 0.45 6.0 0.2 5.8 0.2 5.45 0.2 5.1 0.4 4.95 0.45 4.8 0.75 4.75 L0.75 2.35 Q0.4 2.35 0.25 2.15 0.05 2.0 0.0 1.65 -0.1 1.3 0.35 0.95 L0.75 0.7 0.8 0.7 1.1 0.45 1.15 0.4 1.2 0.4 1.2 0.35 Q1.5 0.15 1.65 0.1 L1.7 0.1 Q1.85 0.0 2.05 0.0 2.4 0.0 2.55 0.2 2.75 0.35 2.75 0.7 2.75 0.95 2.55 1.25 M2.15 0.7 Q2.15 0.6 2.05 0.6 1.95 0.6 1.9 0.65 L1.5 0.85 1.15 1.15 0.75 1.45 Q0.6 1.5 0.6 1.6 0.6 1.75 0.8 1.75 L1.0 1.65 Q1.1 1.55 1.2 1.55 1.25 1.55 1.3 1.6 L1.35 1.8 1.35 4.95 1.3 5.2 Q1.2 5.25 1.05 5.3 L0.85 5.35 Q0.8 5.35 0.8 5.45 0.8 5.65 1.0 5.65 L1.2 5.6 1.65 5.55 2.25 5.65 2.4 5.6 2.5 5.5 2.45 5.35 2.25 5.3 Q2.05 5.25 2.0 5.2 1.95 5.1 1.95 5.0 L1.95 1.35 Q1.95 1.1 2.05 0.9 2.15 0.8 2.15 0.7" fill="#0e0304" fill-rule="evenodd" stroke="none"/>
    <path d="M2.15 0.7 Q2.15 0.8 2.05 0.9 1.95 1.1 1.95 1.35 L1.95 5.0 Q1.95 5.1 2.0 5.2 2.05 5.25 2.25 5.3 L2.45 5.35 2.5 5.5 2.4 5.6 2.25 5.65 1.65 5.55 1.2 5.6 1.0 5.65 Q0.8 5.65 0.8 5.45 0.8 5.35 0.85 5.35 L1.05 5.3 Q1.2 5.25 1.3 5.2 L1.35 4.95 1.35 1.8 1.3 1.6 Q1.25 1.55 1.2 1.55 1.1 1.55 1.0 1.65 L0.8 1.75 Q0.6 1.75 0.6 1.6 0.6 1.5 0.75 1.45 L1.15 1.15 1.5 0.85 1.9 0.65 Q1.95 0.6 2.05 0.6 2.15 0.6 2.15 0.7" fill="url(#gradient0)" fill-rule="evenodd" stroke="none"/>
  </g>
  <defs>
    <linearGradient gradientTransform="matrix(0.0, -0.004, 0.0054, 0.0, 15.8, 2.7)" gradientUnits="userSpaceOnUse" id="gradient0" spreadMethod="pad" x1="-819.2" x2="819.2">
      <stop offset="0.0" stop-color="#c66b32"/>
      <stop offset="0.9686274509803922" stop-color="#ffc941"/>
    </linearGradient>
  </defs>
</svg>
