<?xml version="1.0" encoding="UTF-8" standalone="no"?>
<svg xmlns:xlink="http://www.w3.org/1999/xlink" height="4.4px" width="4.4px" xmlns="http://www.w3.org/2000/svg">
  <g transform="matrix(1.0, 0.0, 0.0, 1.0, 2.2, 2.2)">
    <path d="M1.8 -2.2 L1.9 -2.2 1.9 -2.0 1.8 -1.9 1.7 -1.8 1.6 -1.75 1.55 -1.8 1.55 -1.85 1.6 -1.9 1.65 -1.95 1.7 -2.1 1.8 -2.2" fill="#44170b" fill-rule="evenodd" stroke="none"/>
    <path d="M1.7 -2.2 L1.75 -2.2 1.65 -2.1 1.6 -2.0 1.55 -1.95 1.5 -1.9 1.4 -1.75 1.25 -1.6 0.95 -1.8 1.05 -2.0 1.15 -2.15 1.15 -1.95 1.25 -1.95 Q1.25 -1.95 1.2 -1.9 L1.15 -1.85 Q1.15 -1.8 1.2 -1.75 L1.25 -1.75 1.3 -1.75 1.3 -1.85 Q1.35 -1.9 1.4 -1.9 L1.45 -1.95 1.55 -2.0 1.6 -2.05 1.65 -2.1 1.65 -2.15 1.7 -2.2 M0.95 -1.8 L0.95 -1.8" fill="#491b0e" fill-rule="evenodd" stroke="none"/>
    <path d="M1.15 -2.2 L1.7 -2.2 1.65 -2.15 1.65 -2.1 1.6 -2.05 1.55 -2.0 1.45 -1.95 1.4 -1.9 Q1.35 -1.9 1.3 -1.85 L1.3 -1.75 1.25 -1.75 1.2 -1.75 Q1.15 -1.8 1.15 -1.85 L1.2 -1.9 Q1.25 -1.95 1.25 -1.95 L1.15 -1.95 1.15 -2.15 1.15 -2.2" fill="#2c180d" fill-rule="evenodd" stroke="none"/>
    <path d="M1.65 -1.95 L1.6 -1.9 1.45 -1.8 1.35 -1.65 1.3 -1.55 1.25 -1.45 1.3 -1.45 1.4 -1.45 1.35 -1.4 1.25 -1.35 1.15 -1.4 1.2 -1.45 1.2 -1.5 1.15 -1.5 1.15 -1.45 1.05 -1.45 1.0 -1.5 0.9 -1.55 Q0.85 -1.55 0.85 -1.6 L0.9 -1.7 0.9 -1.75 0.95 -1.65 1.0 -1.6 Q1.05 -1.5 1.15 -1.55 L1.2 -1.55 1.25 -1.6 1.4 -1.75 1.5 -1.9 1.6 -1.95 Q1.6 -2.0 1.65 -1.95" fill="#825f1b" fill-rule="evenodd" stroke="none"/>
    <path d="M1.75 -2.2 L1.8 -2.2 1.7 -2.1 1.65 -1.95 Q1.6 -2.0 1.6 -1.95 L1.5 -1.9 1.55 -1.95 1.6 -2.0 1.65 -2.1 1.75 -2.2" fill="#5f3d16" fill-rule="evenodd" stroke="none"/>
    <path d="M1.9 -2.2 L2.15 -2.2 1.95 -2.0 1.8 -1.85 1.65 -1.7 1.55 -1.6 1.5 -1.55 1.45 -1.5 1.4 -1.5 1.35 -1.55 1.3 -1.5 Q1.3 -1.5 1.25 -1.5 L1.3 -1.55 1.4 -1.6 1.35 -1.65 1.45 -1.8 1.6 -1.9 1.55 -1.85 1.55 -1.8 1.6 -1.75 1.7 -1.8 1.8 -1.9 1.9 -2.0 1.9 -2.2" fill="#59330c" fill-rule="evenodd" stroke="none"/>
    <path d="M1.8 -1.85 L1.9 -1.9 1.9 -1.85 1.85 -1.8 1.75 -1.65 1.65 -1.55 1.55 -1.45 1.5 -1.45 1.45 -1.45 1.35 -1.4 1.4 -1.45 1.45 -1.5 1.55 -1.6 1.65 -1.7 1.8 -1.85" fill="#8e7b38" fill-rule="evenodd" stroke="none"/>
    <path d="M2.15 -2.2 L2.2 -2.2 2.2 -2.1 2.0 -1.95 1.85 -1.8 1.9 -1.85 1.9 -1.9 1.8 -1.85 1.95 -2.0 2.15 -2.2" fill="#79541f" fill-rule="evenodd" stroke="none"/>
    <path d="M1.1 -2.2 L1.15 -2.2 1.15 -2.15 1.05 -2.0 0.95 -1.8 0.95 -1.9 0.9 -1.8 0.85 -1.75 0.85 -1.8 0.9 -1.8 0.95 -1.85 1.05 -2.0 1.1 -2.2" fill="#5d3f12" fill-rule="evenodd" stroke="none"/>
    <path d="M1.0 -2.2 L1.1 -2.2 1.05 -2.0 0.95 -1.85 0.9 -1.8 0.85 -1.8 0.95 -2.0 1.0 -2.2" fill="#4e210c" fill-rule="evenodd" stroke="none"/>
    <path d="M1.55 -1.6 L1.45 -1.5 1.4 -1.45 1.3 -1.45 1.25 -1.45 1.3 -1.55 1.35 -1.65 1.4 -1.6 1.3 -1.55 1.25 -1.5 Q1.3 -1.5 1.3 -1.5 L1.35 -1.55 1.4 -1.5 1.45 -1.5 1.5 -1.55 1.55 -1.6" fill="#6a4310" fill-rule="evenodd" stroke="none"/>
    <path d="M0.95 -1.8 L1.25 -1.6 1.2 -1.55 1.15 -1.55 Q1.05 -1.5 1.0 -1.6 L0.95 -1.65 0.9 -1.75 0.95 -1.75 0.95 -1.8" fill="#643414" fill-rule="evenodd" stroke="none"/>
    <path d="M1.35 -1.4 L1.45 -1.45 1.5 -1.45 1.4 -1.35 1.45 -1.35 1.45 -1.35 1.5 -1.3 1.55 -1.25 1.55 -1.25 1.6 -1.25 1.6 -1.3 1.6 -1.2 1.55 -1.15 1.65 -1.15 1.75 -1.15 1.75 -1.1 1.65 -1.1 Q1.55 -1.15 1.55 -1.15 L1.55 -1.2 1.4 -1.2 1.35 -1.25 1.35 -1.35 1.3 -1.35 1.25 -1.3 Q1.2 -1.3 1.2 -1.35 L1.15 -1.45 1.15 -1.5 1.2 -1.5 1.2 -1.45 1.15 -1.4 1.25 -1.35 1.35 -1.4 M1.15 -1.45 L1.15 -1.45" fill="#ab8f32" fill-rule="evenodd" stroke="none"/>
    <path d="M0.9 -1.75 L0.9 -1.7 0.85 -1.6 Q0.85 -1.55 0.9 -1.55 L1.0 -1.5 1.05 -1.45 1.15 -1.45 1.15 -1.45 Q1.1 -1.4 1.0 -1.45 L0.95 -1.5 0.9 -1.55 0.85 -1.6 0.8 -1.55 0.8 -1.55 0.75 -1.55 0.7 -1.6 0.65 -1.55 0.6 -1.5 0.5 -1.5 Q0.45 -1.5 0.4 -1.5 L0.35 -1.6 0.3 -1.65 0.25 -1.65 0.25 -1.6 0.2 -1.55 0.2 -1.6 0.15 -1.6 0.15 -1.5 0.1 -1.5 0.05 -1.55 Q0.0 -1.45 -0.1 -1.5 -0.15 -1.4 -0.2 -1.45 L-0.3 -1.45 -0.35 -1.5 -0.35 -1.45 -0.4 -1.4 -0.45 -1.4 -0.45 -1.5 -0.4 -1.5 -0.35 -1.55 -0.3 -1.5 Q-0.25 -1.45 -0.2 -1.5 L-0.2 -1.55 -0.25 -1.55 -0.25 -1.6 Q-0.2 -1.6 -0.15 -1.65 L-0.1 -1.7 -0.1 -1.6 0.0 -1.55 0.05 -1.6 0.05 -1.65 0.1 -1.6 0.1 -1.55 0.15 -1.6 0.15 -1.7 0.2 -1.75 0.2 -1.7 Q0.25 -1.65 0.25 -1.65 L0.3 -1.75 0.3 -1.8 0.3 -1.9 0.3 -1.95 0.35 -2.0 0.4 -1.95 0.4 -1.9 0.35 -1.85 Q0.35 -1.8 0.35 -1.75 L0.35 -1.65 0.45 -1.6 0.5 -1.55 0.55 -1.6 0.55 -1.7 0.6 -1.65 0.55 -1.6 0.6 -1.6 0.65 -1.6 0.65 -1.65 0.7 -1.6 0.75 -1.65 0.75 -1.75 0.8 -1.8 0.85 -1.85 0.8 -1.7 0.75 -1.6 0.85 -1.7 0.9 -1.75 0.95 -1.75 0.9 -1.75" fill="#977c27" fill-rule="evenodd" stroke="none"/>
    <path d="M0.8 -1.5 L0.8 -1.5 0.85 -1.5 1.05 -1.4 1.15 -1.3 Q1.2 -1.25 1.25 -1.3 L1.3 -1.25 1.35 -1.2 1.7 -1.1 1.75 -1.05 1.8 -1.05 1.7 -1.05 1.6 -1.05 1.35 -1.15 1.25 -1.25 Q1.2 -1.25 1.15 -1.3 L1.1 -1.35 Q1.05 -1.35 1.0 -1.4 L0.9 -1.45 0.85 -1.45 0.8 -1.5" fill="#fbf568" fill-rule="evenodd" stroke="none"/>
    <path d="M0.9 -1.45 L1.0 -1.4 Q1.05 -1.35 1.1 -1.35 L1.15 -1.3 Q1.2 -1.25 1.25 -1.25 L1.35 -1.15 1.6 -1.05 1.7 -1.05 1.65 -1.05 1.55 -1.05 Q1.4 -1.1 1.2 -1.2 L0.9 -1.45" fill="#fcf9c4" fill-rule="evenodd" stroke="none"/>
    <path d="M1.15 -1.45 L1.2 -1.35 Q1.2 -1.3 1.25 -1.3 L1.3 -1.35 1.35 -1.35 1.35 -1.25 1.4 -1.2 1.55 -1.2 1.55 -1.15 Q1.55 -1.15 1.65 -1.1 L1.75 -1.1 1.8 -1.1 1.7 -1.1 1.35 -1.2 1.3 -1.25 1.25 -1.3 Q1.2 -1.25 1.15 -1.3 L1.05 -1.4 0.85 -1.5 0.8 -1.5 0.8 -1.5 0.8 -1.45 0.75 -1.5 0.75 -1.55 0.8 -1.55 0.8 -1.55 0.85 -1.6 0.9 -1.55 0.95 -1.5 1.0 -1.45 Q1.1 -1.4 1.15 -1.45" fill="#ccb440" fill-rule="evenodd" stroke="none"/>
    <path d="M1.5 -1.45 L1.55 -1.45 Q1.5 -1.4 1.55 -1.4 L1.55 -1.4 1.6 -1.4 1.6 -1.25 1.55 -1.25 1.55 -1.25 1.5 -1.3 1.45 -1.35 1.45 -1.35 1.4 -1.35 1.5 -1.45" fill="#8f6f17" fill-rule="evenodd" stroke="none"/>
    <path d="M2.2 -1.95 L2.2 -1.7 1.9 -1.5 1.85 -1.5 1.8 -1.45 1.75 -1.45 1.75 -1.5 1.8 -1.55 Q1.85 -1.65 1.8 -1.65 1.8 -1.7 1.85 -1.7 L1.9 -1.7 1.95 -1.75 1.95 -1.8 2.0 -1.9 2.05 -1.9 2.1 -1.9 2.15 -1.95 2.2 -1.95" fill="#471b0b" fill-rule="evenodd" stroke="none"/>
    <path d="M2.2 -2.1 L2.2 -1.95 2.15 -1.95 2.1 -1.9 2.05 -1.9 2.0 -1.9 1.95 -1.8 1.95 -1.75 1.9 -1.7 1.85 -1.7 Q1.8 -1.7 1.8 -1.65 1.85 -1.65 1.8 -1.55 L1.75 -1.5 1.75 -1.45 1.8 -1.45 1.85 -1.5 1.8 -1.45 1.75 -1.4 1.7 -1.4 1.65 -1.45 1.65 -1.5 Q1.7 -1.55 1.7 -1.55 L1.75 -1.55 1.7 -1.6 1.7 -1.65 1.75 -1.65 1.85 -1.8 2.0 -1.95 2.2 -2.1" fill="#5b350a" fill-rule="evenodd" stroke="none"/>
    <path d="M1.55 -1.45 L1.65 -1.55 1.75 -1.65 1.7 -1.65 1.7 -1.6 1.75 -1.55 1.7 -1.55 Q1.7 -1.55 1.65 -1.5 L1.65 -1.45 1.7 -1.4 1.75 -1.4 1.7 -1.35 1.6 -1.3 1.6 -1.25 1.6 -1.4 1.55 -1.4 1.55 -1.4 Q1.5 -1.4 1.55 -1.45" fill="#71500c" fill-rule="evenodd" stroke="none"/>
    <path d="M1.95 -1.3 L1.85 -1.2 1.75 -1.15 1.7 -1.15 1.6 -1.2 1.65 -1.3 1.75 -1.35 1.85 -1.4 1.95 -1.5 1.9 -1.4 Q1.9 -1.3 1.95 -1.3" fill="#613a0c" fill-rule="evenodd" stroke="none"/>
    <path d="M1.75 -1.1 L1.75 -1.15 1.65 -1.15 1.55 -1.15 1.6 -1.2 1.6 -1.3 1.7 -1.35 1.75 -1.4 1.8 -1.45 1.85 -1.5 1.9 -1.5 1.9 -1.5 1.95 -1.5 1.85 -1.4 1.75 -1.35 1.65 -1.3 1.6 -1.2 1.7 -1.15 1.75 -1.15 1.85 -1.2 1.95 -1.3 1.95 -1.2 1.9 -1.2 1.85 -1.15 1.95 -1.15 2.05 -1.15 1.8 -1.1 1.75 -1.1" fill="#876923" fill-rule="evenodd" stroke="none"/>
    <path d="M2.2 -1.7 L2.2 -1.65 2.05 -1.55 1.95 -1.5 1.9 -1.5 1.9 -1.5 2.2 -1.7" fill="#614114" fill-rule="evenodd" stroke="none"/>
    <path d="M2.2 -1.65 L2.2 -1.4 2.05 -1.35 1.95 -1.3 Q1.9 -1.3 1.9 -1.4 L1.95 -1.5 2.05 -1.55 2.2 -1.65" fill="#3a1409" fill-rule="evenodd" stroke="none"/>
    <path d="M2.2 -1.4 L2.2 -1.4 2.15 -1.35 2.05 -1.3 2.0 -1.2 2.1 -1.25 2.15 -1.2 2.1 -1.15 2.05 -1.15 1.95 -1.15 1.85 -1.15 1.9 -1.2 1.95 -1.2 1.95 -1.3 2.05 -1.35 2.2 -1.4" fill="#654412" fill-rule="evenodd" stroke="none"/>
    <path d="M0.25 -2.2 L0.4 -2.2 0.4 -2.0 0.5 -1.9 Q0.55 -1.85 0.5 -1.8 L0.5 -1.75 0.55 -1.75 0.6 -1.8 0.6 -1.75 0.65 -1.85 0.65 -1.9 0.7 -1.95 0.65 -1.95 0.7 -2.0 0.7 -1.9 0.75 -1.9 0.8 -2.05 0.85 -2.2 0.95 -2.2 0.9 -2.05 0.85 -1.95 0.85 -2.05 0.9 -2.1 0.75 -1.9 0.65 -1.65 0.6 -1.65 0.6 -1.7 0.55 -1.7 0.55 -1.7 0.45 -1.7 0.4 -1.75 Q0.35 -1.75 0.35 -1.85 L0.4 -1.9 0.4 -1.95 0.4 -2.15 Q0.3 -2.15 0.3 -2.05 L0.3 -1.9 0.3 -1.8 0.25 -1.8 0.25 -1.8 0.25 -2.2" fill="#64430d" fill-rule="evenodd" stroke="none"/>
    <path d="M0.45 -2.2 L0.75 -2.2 0.7 -2.1 0.65 -2.0 0.6 -2.0 0.6 -2.0 Q0.55 -2.0 0.5 -2.05 0.45 -2.0 0.45 -2.05 L0.45 -2.2" fill="#37140a" fill-rule="evenodd" stroke="none"/>
    <path d="M0.4 -2.2 L0.45 -2.2 0.45 -2.05 Q0.45 -2.0 0.5 -2.05 0.55 -2.0 0.6 -2.0 L0.6 -2.0 0.65 -2.0 0.7 -2.1 0.75 -2.2 0.85 -2.2 0.8 -2.05 0.75 -1.9 0.7 -1.9 0.7 -2.0 0.65 -1.95 0.6 -1.8 0.55 -1.75 0.5 -1.75 0.5 -1.8 Q0.55 -1.85 0.5 -1.9 L0.4 -2.0 0.4 -2.2" fill="#53340b" fill-rule="evenodd" stroke="none"/>
    <path d="M0.65 -1.95 L0.7 -1.95 0.65 -1.9 0.65 -1.85 0.6 -1.75 0.6 -1.8 0.65 -1.95" fill="#755829" fill-rule="evenodd" stroke="none"/>
    <path d="M0.95 -2.2 L1.0 -2.2 0.95 -2.0 0.85 -1.8 0.85 -1.75 0.9 -1.8 0.95 -1.9 0.95 -1.8 0.95 -1.8 0.95 -1.75 0.9 -1.75 0.85 -1.7 0.75 -1.6 0.8 -1.7 0.85 -1.85 0.8 -1.8 0.75 -1.75 0.75 -1.65 0.7 -1.6 0.65 -1.65 0.65 -1.6 0.6 -1.6 0.55 -1.6 0.6 -1.65 0.55 -1.7 0.55 -1.6 0.5 -1.55 0.45 -1.6 0.35 -1.65 0.35 -1.75 Q0.35 -1.8 0.35 -1.85 0.35 -1.75 0.4 -1.75 L0.45 -1.7 0.55 -1.7 0.55 -1.7 0.6 -1.7 0.6 -1.65 0.65 -1.65 0.75 -1.9 0.9 -2.1 0.85 -2.05 0.85 -1.95 0.9 -2.05 0.95 -2.2" fill="#7b5a17" fill-rule="evenodd" stroke="none"/>
    <path d="M-0.2 -2.2 L-0.15 -2.2 -0.15 -2.1 -0.1 -2.0 -0.1 -1.7 Q-0.05 -1.7 -0.05 -1.7 L0.0 -1.65 0.05 -1.7 0.05 -1.8 0.05 -2.2 0.1 -2.2 0.1 -1.75 Q0.1 -1.7 0.15 -1.75 L0.15 -2.0 0.2 -2.2 0.25 -2.2 0.25 -1.8 0.25 -1.8 0.3 -1.8 0.3 -1.75 0.25 -1.65 Q0.25 -1.65 0.2 -1.7 L0.2 -1.75 0.15 -1.7 0.15 -1.6 0.1 -1.55 0.1 -1.6 0.05 -1.65 0.05 -1.6 0.0 -1.55 -0.1 -1.6 -0.1 -1.7 -0.15 -1.65 Q-0.2 -1.6 -0.25 -1.6 L-0.25 -1.55 -0.3 -1.55 -0.35 -1.6 -0.4 -1.6 -0.4 -1.55 -0.45 -1.55 -0.45 -1.55 -0.5 -1.6 -0.45 -1.6 -0.4 -1.6 -0.4 -1.75 -0.35 -1.75 -0.3 -1.75 -0.3 -1.95 -0.35 -2.15 -0.25 -2.0 -0.25 -1.9 -0.2 -1.9 -0.15 -1.9 -0.15 -2.05 -0.2 -2.2 M-0.5 -1.6 L-0.5 -1.6" fill="#7d641c" fill-rule="evenodd" stroke="none"/>
    <path d="M0.1 -2.2 L0.2 -2.2 0.15 -2.0 0.15 -1.75 Q0.1 -1.7 0.1 -1.75 L0.1 -2.2" fill="#5b370a" fill-rule="evenodd" stroke="none"/>
    <path d="M0.4 -1.95 L0.35 -2.0 0.3 -1.95 0.3 -1.9 0.3 -2.05 Q0.3 -2.15 0.4 -2.15 L0.4 -1.95" fill="#796017" fill-rule="evenodd" stroke="none"/>
    <path d="M-0.45 -1.4 L-0.4 -1.4 -0.35 -1.45 -0.35 -1.5 -0.3 -1.45 -0.2 -1.45 Q-0.15 -1.4 -0.1 -1.5 0.0 -1.45 0.05 -1.55 L0.1 -1.5 0.15 -1.5 0.15 -1.6 0.2 -1.6 0.2 -1.55 0.25 -1.6 0.25 -1.65 0.3 -1.65 0.35 -1.6 0.4 -1.5 Q0.45 -1.5 0.5 -1.5 L0.6 -1.5 0.65 -1.55 0.7 -1.6 0.75 -1.55 0.75 -1.5 0.7 -1.5 0.7 -1.5 Q0.6 -1.45 0.45 -1.45 0.35 -1.45 0.3 -1.6 L0.25 -1.55 0.2 -1.5 0.2 -1.5 Q0.15 -1.5 0.15 -1.5 L0.1 -1.45 0.05 -1.45 0.0 -1.4 -0.1 -1.35 -0.15 -1.35 -0.2 -1.35 -0.25 -1.25 -0.25 -1.2 -0.3 -1.25 Q-0.25 -1.3 -0.3 -1.3 L-0.3 -1.3 -0.35 -1.3 -0.45 -1.25 -0.5 -1.15 -0.55 -1.2 -0.6 -1.2 -0.6 -1.15 Q-0.65 -1.1 -0.65 -1.15 L-0.65 -1.2 -0.6 -1.25 -0.5 -1.25 -0.45 -1.3 -0.45 -1.4" fill="#a7953b" fill-rule="evenodd" stroke="none"/>
    <path d="M0.05 -1.8 L0.05 -1.7 0.0 -1.65 -0.05 -1.7 Q-0.05 -1.7 -0.1 -1.7 L-0.1 -2.0 -0.1 -2.05 -0.05 -2.05 -0.05 -1.85 0.0 -1.8 0.05 -1.8" fill="#6b4b0c" fill-rule="evenodd" stroke="none"/>
    <path d="M-0.65 -1.15 Q-0.65 -1.1 -0.6 -1.15 L-0.6 -1.2 -0.55 -1.2 -0.5 -1.15 -0.45 -1.25 -0.35 -1.3 -0.3 -1.3 -0.3 -1.3 Q-0.25 -1.3 -0.3 -1.25 L-0.25 -1.2 -0.25 -1.25 -0.2 -1.35 -0.15 -1.35 -0.1 -1.35 0.0 -1.4 0.05 -1.45 0.1 -1.45 0.15 -1.5 Q0.15 -1.5 0.2 -1.5 L0.2 -1.5 0.25 -1.55 0.3 -1.6 Q0.35 -1.45 0.45 -1.45 0.6 -1.45 0.7 -1.5 L0.7 -1.5 0.75 -1.5 0.75 -1.45 0.7 -1.4 0.65 -1.45 Q0.65 -1.4 0.55 -1.4 L0.5 -1.4 0.4 -1.4 0.3 -1.4 0.2 -1.4 0.15 -1.4 0.05 -1.35 0.0 -1.3 -0.1 -1.3 -0.15 -1.3 -0.2 -1.25 -0.2 -1.15 -0.25 -1.1 -0.3 -1.15 -0.35 -1.2 -0.4 -1.15 -0.4 -1.1 -0.45 -1.05 -0.55 -1.05 -0.65 -1.1 -0.65 -1.15 M-0.65 -1.1 L-0.65 -1.1" fill="#b1a54f" fill-rule="evenodd" stroke="none"/>
    <path d="M0.5 -1.4 L0.55 -1.4 Q0.65 -1.4 0.65 -1.45 L0.7 -1.4 0.7 -1.35 Q0.65 -1.3 0.6 -1.3 L0.5 -1.35 0.35 -1.35 0.2 -1.3 0.25 -1.25 0.2 -1.2 0.1 -1.2 0.0 -1.2 -0.1 -1.2 -0.15 -1.1 -0.15 -1.25 0.0 -1.25 0.05 -1.25 0.1 -1.25 0.1 -1.3 0.15 -1.35 0.3 -1.4 0.5 -1.4" fill="#c5c169" fill-rule="evenodd" stroke="none"/>
    <path d="M-0.65 -1.1 L-0.55 -1.05 -0.45 -1.05 -0.4 -1.1 -0.4 -1.15 -0.35 -1.2 -0.3 -1.15 -0.25 -1.1 -0.2 -1.15 -0.2 -1.25 -0.15 -1.3 -0.1 -1.3 0.0 -1.3 0.05 -1.35 0.15 -1.4 0.2 -1.4 0.3 -1.4 0.4 -1.4 0.5 -1.4 0.3 -1.4 0.15 -1.35 0.1 -1.3 0.1 -1.25 0.05 -1.25 0.0 -1.25 -0.15 -1.25 -0.15 -1.1 -0.2 -1.1 -0.2 -1.05 -0.3 -1.0 -0.4 -0.95 Q-0.45 -0.95 -0.45 -1.0 L-0.5 -1.05 -0.55 -1.05 -0.6 -1.05 -0.65 -1.1" fill="#b8b066" fill-rule="evenodd" stroke="none"/>
    <path d="M0.0 -1.2 L0.1 -1.2 0.2 -1.2 0.25 -1.25 0.2 -1.3 0.35 -1.35 0.5 -1.35 0.6 -1.3 Q0.65 -1.3 0.7 -1.35 L0.75 -1.15 0.75 -1.0 0.65 -0.9 Q0.6 -0.95 0.55 -0.95 L0.5 -1.05 0.45 -1.1 0.45 -1.1 0.5 -1.15 0.55 -1.2 0.45 -1.2 0.4 -1.2 0.35 -1.15 0.3 -1.1 Q0.25 -1.1 0.3 -1.15 L0.3 -1.2 0.15 -1.15 0.0 -1.2 M0.7 -1.15 L0.7 -1.3 0.65 -1.25 Q0.65 -1.2 0.65 -1.2 L0.6 -1.15 0.55 -1.1 0.6 -1.05 0.65 -1.0 0.7 -1.05 0.7 -1.15" fill="#ddd578" fill-rule="evenodd" stroke="none"/>
    <path d="M0.7 -1.4 L0.75 -1.45 0.75 -1.5 0.8 -1.45 0.8 -1.4 0.8 -1.4 0.75 -1.3 0.75 -1.25 0.8 -1.1 0.8 -1.05 0.75 -1.0 0.75 -0.9 0.75 -0.95 0.75 -1.0 0.75 -1.15 0.7 -1.35 0.7 -1.4" fill="#f8f384" fill-rule="evenodd" stroke="none"/>
    <path d="M0.8 -1.45 L0.8 -1.5 0.85 -1.45 0.9 -1.45 1.2 -1.2 Q1.4 -1.1 1.55 -1.05 L1.55 -1.0 1.5 -1.0 1.4 -0.95 1.3 -0.9 1.25 -0.9 1.2 -0.85 1.2 -0.85 1.15 -0.8 1.15 -0.85 1.2 -0.9 1.2 -0.95 Q1.15 -0.9 1.15 -0.9 L1.05 -0.95 1.05 -1.0 1.0 -1.05 0.95 -1.1 0.85 -1.15 0.8 -1.4 0.8 -1.45 M0.8 -1.4 L0.8 -1.4" fill="#d4b51f" fill-rule="evenodd" stroke="none"/>
    <path d="M0.8 -1.1 L0.75 -1.25 0.75 -1.3 0.8 -1.4 0.8 -1.4 0.8 -1.4 Q0.8 -1.35 0.8 -1.25 L0.8 -1.15 0.8 -1.1" fill="#fffea7" fill-rule="evenodd" stroke="none"/>
    <path d="M0.8 -1.4 L0.85 -1.15 0.85 -1.05 0.85 -0.75 0.85 -0.7 0.8 -0.6 0.75 -0.5 0.55 -0.1 0.5 -0.05 0.45 -0.05 Q0.15 -0.05 -0.1 -0.15 L-0.2 -0.25 -0.3 -0.4 -0.45 -0.6 -0.6 -0.8 -0.65 -0.9 -0.55 -0.9 -0.55 -0.85 -0.35 -0.5 -0.05 -0.25 Q0.05 -0.2 0.15 -0.15 L0.4 -0.15 0.55 -0.25 0.6 -0.35 0.65 -0.4 0.75 -0.65 Q0.85 -0.75 0.8 -0.9 L0.85 -1.0 0.8 -1.15 0.8 -1.25 Q0.8 -1.35 0.8 -1.4 M0.45 -0.05 L0.45 -0.05" fill="#fefdf5" fill-rule="evenodd" stroke="none"/>
    <path d="M-0.15 -2.2 L0.05 -2.2 0.05 -1.8 0.0 -1.8 -0.05 -1.85 -0.05 -2.05 -0.1 -2.05 -0.1 -2.0 -0.15 -2.1 -0.15 -2.2" fill="#573409" fill-rule="evenodd" stroke="none"/>
    <path d="M0.8 -1.15 L0.85 -1.0 0.8 -0.9 0.75 -0.7 0.65 -0.5 0.55 -0.35 0.45 -0.2 0.1 -0.2 Q-0.1 -0.3 -0.2 -0.4 L-0.35 -0.6 -0.55 -0.85 -0.55 -0.9 -0.65 -0.9 -0.65 -0.95 Q-0.6 -0.95 -0.55 -0.9 L-0.5 -0.85 -0.25 -0.55 -0.1 -0.45 0.0 -0.3 0.35 -0.25 0.4 -0.25 0.45 -0.3 0.6 -0.5 0.75 -0.7 0.8 -0.85 0.8 -1.05 0.8 -1.1 0.8 -1.15" fill="#fdfcc9" fill-rule="evenodd" stroke="none"/>
    <path d="M0.8 -1.05 L0.8 -0.85 0.75 -0.7 0.7 -0.7 0.7 -0.75 0.75 -0.85 0.75 -0.9 0.75 -1.0 0.8 -1.05" fill="#faf8a9" fill-rule="evenodd" stroke="none"/>
    <path d="M1.55 -1.05 L1.65 -1.05 1.55 -1.0 1.5 -0.95 1.45 -0.85 Q1.45 -0.75 1.65 -0.85 L1.75 -0.9 1.85 -0.95 1.85 -0.95 2.0 -1.05 2.1 -1.1 2.15 -1.1 2.1 -1.05 1.65 -0.85 1.55 -0.8 1.6 -0.7 1.65 -0.65 1.55 -0.6 1.5 -0.6 1.4 -0.6 1.35 -0.55 1.4 -0.65 1.4 -0.7 1.3 -0.75 1.35 -0.8 1.25 -0.8 1.2 -0.75 1.2 -0.65 1.2 -0.45 Q1.2 -0.4 1.25 -0.4 L1.2 -0.35 1.1 -0.35 Q1.15 -0.4 1.15 -0.5 L1.1 -0.6 1.1 -0.65 1.05 -0.65 Q1.05 -0.65 1.0 -0.7 0.95 -0.75 1.0 -0.75 L0.95 -0.8 0.9 -0.8 Q0.9 -0.85 0.9 -0.85 L0.9 -1.0 0.85 -1.05 0.85 -1.15 0.95 -1.1 1.0 -1.05 1.05 -1.0 1.05 -0.95 1.15 -0.9 Q1.15 -0.9 1.2 -0.95 L1.2 -0.9 1.15 -0.85 1.15 -0.8 1.2 -0.85 1.2 -0.85 1.25 -0.9 1.3 -0.9 1.4 -0.95 1.5 -1.0 1.55 -1.0 1.55 -1.05" fill="#dbc637" fill-rule="evenodd" stroke="none"/>
    <path d="M0.85 -0.75 L0.85 -1.05 0.9 -1.0 0.9 -0.85 Q0.9 -0.85 0.9 -0.8 L0.95 -0.8 1.0 -0.75 Q0.95 -0.75 1.0 -0.7 1.05 -0.65 1.05 -0.65 1.05 -0.6 1.1 -0.55 L1.15 -0.5 1.1 -0.4 1.05 -0.4 1.1 -0.35 1.15 -0.35 1.15 -0.25 1.2 -0.15 1.2 -0.05 1.15 -0.05 1.15 -0.15 Q1.1 -0.2 1.05 -0.2 L1.05 -0.2 1.0 -0.2 1.0 -0.2 0.95 -0.25 Q0.95 -0.25 0.95 -0.3 L1.0 -0.4 1.05 -0.5 0.95 -0.6 0.85 -0.75" fill="#e2d14b" fill-rule="evenodd" stroke="none"/>
    <path d="M0.7 -1.15 L0.7 -1.05 0.65 -1.0 0.6 -1.05 0.55 -1.1 0.6 -1.15 0.65 -1.2 Q0.65 -1.2 0.65 -1.25 L0.7 -1.3 0.7 -1.15" fill="#dace63" fill-rule="evenodd" stroke="none"/>
    <path d="M-0.15 -1.1 L-0.1 -1.2 0.0 -1.2 0.15 -1.15 0.3 -1.2 0.3 -1.15 Q0.25 -1.1 0.3 -1.1 L0.35 -1.15 0.4 -1.2 0.45 -1.2 0.55 -1.2 0.5 -1.15 0.45 -1.1 0.45 -1.1 0.5 -1.05 0.55 -0.95 Q0.6 -0.95 0.65 -0.9 L0.75 -1.0 0.75 -0.95 0.7 -0.9 0.65 -0.85 0.45 -0.95 Q0.4 -0.95 0.35 -0.9 0.3 -0.9 0.25 -0.95 L0.2 -1.0 0.15 -1.1 0.05 -1.1 0.0 -1.1 -0.1 -1.05 -0.1 -1.0 -0.15 -1.05 -0.2 -1.1 -0.15 -1.1" fill="#dfd78b" fill-rule="evenodd" stroke="none"/>
    <path d="M0.75 -0.9 L0.75 -0.85 0.7 -0.75 0.7 -0.75 0.65 -0.75 0.25 -0.9 0.1 -0.9 0.0 -0.85 -0.1 -0.8 -0.15 -0.8 -0.25 -0.85 -0.3 -0.8 -0.35 -0.8 -0.4 -0.8 -0.45 -0.8 -0.45 -0.85 -0.5 -0.9 -0.55 -1.0 -0.5 -1.0 -0.45 -0.95 -0.45 -0.9 -0.4 -0.85 -0.35 -0.8 -0.35 -0.85 -0.3 -0.9 -0.3 -0.95 -0.25 -0.95 Q-0.25 -0.95 -0.2 -1.0 L-0.15 -1.0 -0.1 -0.95 -0.1 -0.9 Q-0.05 -0.85 0.0 -0.9 L-0.05 -0.95 -0.1 -1.0 -0.1 -1.05 0.0 -1.1 0.05 -1.1 0.15 -1.1 0.2 -1.0 0.25 -0.95 Q0.3 -0.9 0.35 -0.9 0.4 -0.95 0.45 -0.95 L0.65 -0.85 0.7 -0.9 0.75 -0.95 0.75 -0.9" fill="#e1dc9c" fill-rule="evenodd" stroke="none"/>
    <path d="M0.75 -0.7 L0.6 -0.5 0.45 -0.3 0.4 -0.25 0.35 -0.25 0.0 -0.3 -0.1 -0.45 -0.25 -0.55 -0.5 -0.85 -0.45 -0.85 -0.45 -0.8 -0.3 -0.65 Q-0.25 -0.6 -0.15 -0.6 L-0.05 -0.55 0.0 -0.5 0.15 -0.5 0.3 -0.45 0.35 -0.45 0.4 -0.5 0.45 -0.55 0.5 -0.6 0.6 -0.6 0.7 -0.7 0.75 -0.7" fill="#f1efbf" fill-rule="evenodd" stroke="none"/>
    <path d="M0.7 -0.75 L0.7 -0.7 0.6 -0.6 0.5 -0.6 0.45 -0.55 0.4 -0.5 0.35 -0.45 0.3 -0.45 0.15 -0.5 0.0 -0.5 -0.05 -0.55 -0.15 -0.6 Q-0.25 -0.6 -0.3 -0.65 L-0.45 -0.8 -0.4 -0.8 -0.35 -0.8 -0.3 -0.8 -0.25 -0.85 -0.15 -0.8 -0.1 -0.8 0.0 -0.85 0.1 -0.9 0.25 -0.9 0.65 -0.75 0.7 -0.75 0.7 -0.75" fill="#e6e2b2" fill-rule="evenodd" stroke="none"/>
    <path d="M0.8 -0.9 Q0.85 -0.75 0.75 -0.65 L0.65 -0.4 0.6 -0.35 0.55 -0.25 0.4 -0.15 0.15 -0.15 Q0.05 -0.2 -0.05 -0.25 L-0.35 -0.5 -0.55 -0.85 -0.35 -0.6 -0.2 -0.4 Q-0.1 -0.3 0.1 -0.2 L0.45 -0.2 0.55 -0.35 0.65 -0.5 0.75 -0.7 0.8 -0.9" fill="#ffffdd" fill-rule="evenodd" stroke="none"/>
    <path d="M0.85 -0.7 L0.85 -0.75 0.95 -0.6 1.05 -0.5 1.0 -0.4 0.95 -0.3 Q0.95 -0.25 0.95 -0.25 L1.0 -0.2 1.0 -0.2 1.05 -0.2 1.05 -0.2 Q1.1 -0.2 1.15 -0.15 L1.15 -0.05 1.1 -0.05 1.0 -0.05 0.9 -0.05 0.85 -0.1 0.75 -0.1 0.75 -0.15 0.8 -0.2 0.9 -0.3 0.95 -0.4 Q0.9 -0.45 0.9 -0.55 L0.85 -0.7" fill="#e7d95c" fill-rule="evenodd" stroke="none"/>
    <path d="M0.45 -0.05 L0.5 -0.05 0.4 0.1 0.3 0.3 Q0.25 0.3 0.25 0.3 L0.2 0.35 Q0.2 0.25 0.3 0.2 L0.45 0.0 0.45 -0.05" fill="#fefdb7" fill-rule="evenodd" stroke="none"/>
    <path d="M0.45 -0.05 L0.45 -0.05 0.45 0.0 0.4 0.05 0.25 0.15 0.15 0.3 0.1 0.5 0.1 0.45 -0.05 0.45 -0.2 0.45 -0.25 0.4 -0.25 0.35 -0.4 0.35 -0.55 0.3 -0.55 0.15 -0.5 0.1 Q-0.45 0.05 -0.45 0.05 L-0.05 0.05 0.35 0.05 0.4 0.0 0.45 -0.05" fill="#e3d885" fill-rule="evenodd" stroke="none"/>
    <path d="M0.55 -0.1 L0.75 -0.5 0.75 -0.4 0.7 -0.35 0.7 -0.3 0.65 -0.25 0.6 -0.2 0.6 -0.1 0.7 -0.05 0.75 0.0 0.65 0.05 0.55 0.1 0.55 -0.1" fill="#eee584" fill-rule="evenodd" stroke="none"/>
    <path d="M0.75 -0.5 L0.8 -0.6 0.85 -0.7 0.9 -0.55 Q0.9 -0.45 0.95 -0.4 L0.9 -0.3 0.8 -0.2 0.75 -0.15 0.75 -0.1 0.85 -0.1 0.9 -0.05 0.75 0.0 0.7 -0.05 0.6 -0.1 0.6 -0.2 0.65 -0.25 0.7 -0.3 0.7 -0.35 0.75 -0.4 0.75 -0.5" fill="#e8dd70" fill-rule="evenodd" stroke="none"/>
    <path d="M0.9 -0.05 L1.0 -0.05 1.45 -0.05 1.55 -0.05 1.3 -0.05 1.25 -0.05 1.2 0.0 Q0.95 0.0 0.7 0.1 0.55 0.2 0.3 0.35 0.2 0.45 0.2 0.6 L0.2 0.9 0.25 1.0 0.25 1.1 Q0.15 1.0 0.1 0.85 L0.1 0.75 0.1 0.5 0.15 0.3 0.25 0.2 0.4 0.05 0.45 0.0 0.3 0.2 Q0.2 0.25 0.2 0.35 L0.25 0.3 Q0.25 0.3 0.3 0.3 L0.45 0.2 0.55 0.1 0.65 0.05 0.75 0.0 0.9 -0.05 M1.55 -0.05 L1.55 -0.05" fill="#fefef5" fill-rule="evenodd" stroke="none"/>
    <path d="M0.5 -0.05 L0.55 -0.1 0.55 0.1 0.45 0.2 0.3 0.3 0.4 0.1 0.5 -0.05" fill="#fefc95" fill-rule="evenodd" stroke="none"/>
    <path d="M1.7 -1.1 L1.8 -1.1 1.8 -1.1 1.95 -1.15 2.1 -1.15 1.8 -1.05 1.75 -1.05 1.7 -1.1" fill="#f9ed3f" fill-rule="evenodd" stroke="none"/>
    <path d="M2.2 -1.2 L2.2 -1.15 2.1 -1.1 2.0 -1.05 1.85 -0.95 1.85 -0.95 1.75 -0.95 1.7 -0.95 1.7 -1.05 1.8 -1.05 2.1 -1.15 1.95 -1.15 1.8 -1.1 1.8 -1.1 2.05 -1.15 2.1 -1.15 2.15 -1.2 2.2 -1.2" fill="#b58214" fill-rule="evenodd" stroke="none"/>
    <path d="M1.65 -1.05 L1.7 -1.05 1.7 -0.95 1.75 -0.95 1.85 -0.95 1.75 -0.9 1.65 -0.85 1.55 -0.9 1.55 -1.0 1.65 -1.05" fill="#c79d12" fill-rule="evenodd" stroke="none"/>
    <path d="M1.65 -0.65 L1.6 -0.7 1.55 -0.8 1.65 -0.85 1.7 -0.8 1.75 -0.8 1.75 -0.75 1.8 -0.7 1.75 -0.7 1.65 -0.65 1.65 -0.65" fill="#d8bb18" fill-rule="evenodd" stroke="none"/>
    <path d="M2.2 -1.15 L2.2 -0.85 2.15 -0.8 1.95 -0.75 1.8 -0.7 1.75 -0.75 1.75 -0.8 1.7 -0.8 1.65 -0.85 2.1 -1.05 2.15 -1.1 2.1 -1.1 2.2 -1.15" fill="#caa413" fill-rule="evenodd" stroke="none"/>
    <path d="M1.55 -1.0 L1.55 -0.9 1.65 -0.85 Q1.45 -0.75 1.45 -0.85 L1.5 -0.95 1.55 -1.0" fill="#d7b919" fill-rule="evenodd" stroke="none"/>
    <path d="M1.05 -0.65 L1.1 -0.65 1.1 -0.6 1.15 -0.5 Q1.15 -0.4 1.1 -0.35 L1.2 -0.35 1.25 -0.4 1.3 -0.4 1.3 -0.55 1.35 -0.55 1.4 -0.6 1.5 -0.6 1.55 -0.6 1.65 -0.65 1.65 -0.65 1.75 -0.7 1.8 -0.7 1.95 -0.75 2.15 -0.8 2.05 -0.7 2.0 -0.7 1.95 -0.65 1.8 -0.65 1.7 -0.6 1.6 -0.55 1.55 -0.55 1.55 -0.5 1.6 -0.45 1.6 -0.4 Q1.6 -0.35 1.65 -0.35 L1.75 -0.4 1.9 -0.4 2.0 -0.4 2.05 -0.4 2.1 -0.35 Q2.05 -0.35 2.1 -0.35 L2.1 -0.3 1.95 -0.3 1.8 -0.3 1.8 -0.3 1.85 -0.35 1.75 -0.3 1.65 -0.3 1.7 -0.3 1.75 -0.3 1.6 -0.25 1.45 -0.2 1.45 -0.15 1.4 -0.15 1.3 -0.2 1.3 -0.2 1.25 -0.2 1.3 -0.15 1.3 -0.05 1.2 -0.05 1.2 -0.15 1.15 -0.25 1.15 -0.35 1.1 -0.35 1.05 -0.4 1.1 -0.4 1.15 -0.5 1.1 -0.55 Q1.05 -0.6 1.05 -0.65" fill="#e5d43c" fill-rule="evenodd" stroke="none"/>
    <path d="M2.2 -0.85 L2.2 -0.45 2.0 -0.4 1.9 -0.4 1.75 -0.4 1.75 -0.4 1.8 -0.4 1.85 -0.45 1.75 -0.45 1.65 -0.45 1.8 -0.5 Q1.95 -0.5 1.95 -0.55 L1.9 -0.55 1.8 -0.55 1.7 -0.55 Q1.65 -0.55 1.7 -0.6 L1.8 -0.65 1.95 -0.65 2.0 -0.7 2.05 -0.7 2.15 -0.8 2.2 -0.85" fill="#dabc19" fill-rule="evenodd" stroke="none"/>
    <path d="M1.25 -0.4 Q1.2 -0.4 1.2 -0.45 L1.2 -0.65 1.2 -0.75 1.25 -0.8 1.35 -0.8 1.3 -0.75 1.4 -0.7 1.4 -0.65 1.35 -0.55 1.3 -0.55 1.3 -0.4 1.25 -0.4" fill="#dfc61f" fill-rule="evenodd" stroke="none"/>
    <path d="M1.45 -0.05 L1.0 -0.05 1.1 -0.05 1.15 -0.05 1.2 -0.05 1.3 -0.05 1.45 -0.05" fill="#f5eb96" fill-rule="evenodd" stroke="none"/>
    <path d="M1.2 0.0 L1.25 -0.05 1.3 -0.05 1.25 0.0 1.2 0.05 1.1 0.05 1.05 0.05 Q0.95 0.1 0.95 0.15 L0.9 0.25 0.9 0.3 0.8 0.4 Q0.7 0.45 0.65 0.5 L0.6 0.6 0.5 0.6 0.45 0.7 0.35 0.75 0.3 0.85 0.3 1.1 0.25 1.2 0.25 1.15 0.3 1.1 0.25 0.95 0.25 0.7 Q0.25 0.55 0.35 0.45 0.4 0.45 0.4 0.45 L0.5 0.45 Q0.55 0.5 0.6 0.45 L0.6 0.4 Q0.6 0.35 0.7 0.35 L0.75 0.3 0.75 0.25 0.8 0.2 0.9 0.1 1.05 0.05 1.1 0.05 1.2 0.0 1.2 0.0" fill="#f6f4b6" fill-rule="evenodd" stroke="none"/>
    <path d="M2.2 -0.45 L2.2 -0.25 1.95 -0.25 1.7 -0.2 1.7 -0.15 1.6 -0.1 1.55 -0.1 1.55 -0.1 1.65 -0.05 1.6 -0.05 1.55 -0.05 1.45 -0.05 1.3 -0.05 1.3 -0.15 1.25 -0.2 1.3 -0.2 1.3 -0.2 1.4 -0.15 1.45 -0.15 1.45 -0.2 1.6 -0.25 1.75 -0.3 1.7 -0.3 1.65 -0.3 1.75 -0.3 1.85 -0.35 1.8 -0.3 1.8 -0.3 1.95 -0.3 2.1 -0.3 2.1 -0.35 Q2.05 -0.35 2.1 -0.35 L2.05 -0.4 2.0 -0.4 2.2 -0.45" fill="#e7d220" fill-rule="evenodd" stroke="none"/>
    <path d="M1.3 -0.05 L1.55 -0.05 1.7 0.0 1.8 0.0 1.9 0.05 1.8 0.05 1.75 0.0 1.65 0.0 1.6 0.0 1.5 0.0 1.4 0.0 Q1.3 0.0 1.3 0.05 L1.2 0.05 1.25 0.0 1.3 -0.05 M1.7 0.0 L1.7 0.0" fill="#fefc8f" fill-rule="evenodd" stroke="none"/>
    <path d="M1.3 0.05 Q1.3 0.0 1.4 0.0 L1.5 0.0 1.6 0.0 1.65 0.0 1.75 0.0 1.8 0.05 1.9 0.05 2.0 0.15 2.1 0.25 2.05 0.2 2.0 0.2 1.95 0.2 1.95 0.15 1.65 0.05 1.5 0.05 1.35 0.05 1.3 0.05" fill="#fcf74c" fill-rule="evenodd" stroke="none"/>
    <path d="M1.7 -0.6 Q1.65 -0.55 1.7 -0.55 L1.8 -0.55 1.9 -0.55 1.95 -0.55 Q1.95 -0.5 1.8 -0.5 L1.65 -0.45 1.75 -0.45 1.85 -0.45 1.8 -0.4 1.75 -0.4 1.75 -0.4 1.65 -0.35 Q1.6 -0.35 1.6 -0.4 L1.6 -0.45 1.55 -0.5 1.55 -0.55 1.6 -0.55 1.7 -0.6" fill="#e3ce2e" fill-rule="evenodd" stroke="none"/>
    <path d="M2.2 -0.25 L2.2 -0.1 2.05 -0.1 1.95 -0.05 1.9 -0.05 1.8 -0.05 1.75 -0.05 1.7 0.0 1.7 0.0 1.65 -0.05 1.6 -0.05 1.65 -0.05 1.55 -0.1 1.55 -0.1 1.6 -0.1 1.7 -0.15 1.7 -0.2 1.95 -0.25 2.2 -0.25" fill="#eadd3d" fill-rule="evenodd" stroke="none"/>
    <path d="M1.55 -0.05 L1.55 -0.05 1.6 -0.05 1.65 -0.05 1.7 0.0 1.55 -0.05" fill="#fefdcf" fill-rule="evenodd" stroke="none"/>
    <path d="M2.2 -0.1 L2.2 0.35 2.15 0.3 2.15 0.25 2.1 0.25 2.0 0.15 1.9 0.05 1.8 0.0 1.7 0.0 1.75 -0.05 1.8 -0.05 1.9 -0.05 1.95 -0.05 2.05 -0.1 2.2 -0.1" fill="#e9d31a" fill-rule="evenodd" stroke="none"/>
    <path d="M2.2 -1.4 L2.2 -1.2 2.15 -1.2 2.1 -1.25 2.0 -1.2 2.05 -1.3 2.15 -1.35 2.2 -1.4" fill="#47240a" fill-rule="evenodd" stroke="none"/>
    <path d="M1.35 0.05 L1.5 0.05 1.65 0.05 1.95 0.15 1.95 0.2 2.0 0.2 2.05 0.2 2.1 0.25 Q2.05 0.25 2.0 0.25 L1.95 0.25 1.9 0.2 1.85 0.2 1.8 0.15 Q1.75 0.1 1.65 0.1 L1.5 0.15 1.55 0.15 1.5 0.2 1.45 0.2 1.4 0.2 1.35 0.2 1.35 0.15 1.3 0.15 Q1.25 0.1 1.3 0.05 L1.35 0.05" fill="#d3be32" fill-rule="evenodd" stroke="none"/>
    <path d="M2.1 0.25 L2.15 0.25 2.15 0.3 2.1 0.3 Q2.05 0.3 2.05 0.3 L1.95 0.3 1.9 0.35 1.95 0.35 1.95 0.4 1.85 0.4 1.8 0.35 1.85 0.25 1.9 0.2 1.95 0.25 2.0 0.25 Q2.05 0.25 2.1 0.25" fill="#b09724" fill-rule="evenodd" stroke="none"/>
    <path d="M2.2 0.45 L2.2 0.6 2.1 0.55 2.05 0.55 1.95 0.45 1.95 0.4 1.95 0.35 1.9 0.35 1.95 0.3 2.05 0.3 Q2.05 0.3 2.1 0.3 L2.15 0.3 2.2 0.35 2.1 0.35 2.05 0.35 Q2.0 0.35 2.0 0.4 L2.05 0.45 2.15 0.4 Q2.15 0.4 2.15 0.45 L2.2 0.45" fill="#8b630c" fill-rule="evenodd" stroke="none"/>
    <path d="M2.2 0.35 L2.2 0.45 2.15 0.45 Q2.15 0.4 2.15 0.4 L2.05 0.45 2.0 0.4 Q2.0 0.35 2.05 0.35 L2.1 0.35 2.2 0.35" fill="#6f4707" fill-rule="evenodd" stroke="none"/>
    <path d="M2.2 0.6 L2.2 0.7 2.1 0.7 Q2.05 0.7 2.05 0.75 L2.1 0.75 2.2 0.8 2.05 0.8 1.95 0.75 1.95 0.7 1.9 0.7 Q1.85 0.65 1.9 0.6 L1.95 0.6 1.95 0.55 1.95 0.45 2.05 0.55 2.1 0.55 2.2 0.6" fill="#a27a11" fill-rule="evenodd" stroke="none"/>
    <path d="M2.2 0.7 L2.2 0.8 2.1 0.75 2.05 0.75 Q2.05 0.7 2.1 0.7 L2.2 0.7" fill="#8f540c" fill-rule="evenodd" stroke="none"/>
    <path d="M2.2 0.8 L2.2 1.0 2.15 0.95 2.1 0.95 2.05 1.0 2.0 0.95 1.95 0.95 1.9 0.9 1.9 0.8 1.95 0.75 2.05 0.8 2.2 0.8" fill="#92580d" fill-rule="evenodd" stroke="none"/>
    <path d="M2.2 1.0 L2.2 1.1 1.8 0.9 Q1.75 0.85 1.8 0.85 L1.85 0.8 1.9 0.75 Q1.9 0.7 1.95 0.75 L1.9 0.8 1.9 0.9 1.95 0.95 2.0 0.95 2.05 1.0 2.1 0.95 2.15 0.95 2.2 1.0" fill="#a8720f" fill-rule="evenodd" stroke="none"/>
    <path d="M2.2 1.35 L2.2 1.5 2.05 1.4 1.95 1.3 1.85 1.2 1.95 1.3 2.1 1.35 2.05 1.3 2.0 1.25 Q2.05 1.25 2.1 1.25 L2.2 1.35" fill="#aa800f" fill-rule="evenodd" stroke="none"/>
    <path d="M2.2 1.1 L2.2 1.35 2.1 1.25 Q2.05 1.25 2.0 1.25 L2.05 1.3 2.1 1.35 1.95 1.3 1.85 1.2 1.95 1.3 2.05 1.4 1.8 1.25 1.75 1.25 1.75 1.3 1.65 1.2 1.5 1.1 1.5 1.05 1.55 1.05 1.85 1.25 1.8 1.2 1.85 1.2 1.9 1.2 1.85 1.15 1.8 1.1 1.85 1.1 1.9 1.15 2.05 1.2 1.95 1.1 1.8 1.0 1.75 1.0 1.7 0.95 1.75 0.95 1.8 0.95 1.8 0.9 2.2 1.1" fill="#bf9917" fill-rule="evenodd" stroke="none"/>
    <path d="M2.2 1.5 L2.2 1.6 1.8 1.3 1.75 1.3 1.75 1.25 1.8 1.25 2.05 1.4 2.2 1.5" fill="#935e0f" fill-rule="evenodd" stroke="none"/>
    <path d="M2.2 1.65 L2.2 1.8 2.1 1.75 2.05 1.7 2.05 1.65 2.15 1.6 2.2 1.65" fill="#87590f" fill-rule="evenodd" stroke="none"/>
    <path d="M2.15 1.6 L2.05 1.65 2.05 1.7 1.95 1.6 1.85 1.55 1.75 1.5 1.7 1.45 1.7 1.3 1.75 1.35 1.95 1.5 2.15 1.6" fill="#ab7211" fill-rule="evenodd" stroke="none"/>
    <path d="M2.2 1.8 L2.2 1.95 2.1 1.85 2.05 1.8 2.0 1.8 2.05 1.75 2.05 1.7 2.1 1.75 2.2 1.8" fill="#a88812" fill-rule="evenodd" stroke="none"/>
    <path d="M2.05 1.7 L2.05 1.75 2.0 1.8 1.9 1.7 1.8 1.55 1.8 1.6 1.85 1.6 1.85 1.55 1.95 1.6 2.05 1.7" fill="#c8a81a" fill-rule="evenodd" stroke="none"/>
    <path d="M2.2 1.6 L2.2 1.65 2.15 1.6 1.95 1.5 1.75 1.35 1.8 1.35 1.8 1.3 2.2 1.6" fill="#b39519" fill-rule="evenodd" stroke="none"/>
    <path d="M2.2 1.95 L2.2 2.05 2.15 2.0 2.1 1.95 2.0 2.0 1.9 2.0 1.9 2.05 1.85 2.0 1.9 1.95 2.0 1.95 2.1 1.9 2.15 1.9 2.2 1.95" fill="#4d3f0d" fill-rule="evenodd" stroke="none"/>
    <path d="M2.2 2.05 L2.2 2.2 2.15 2.2 2.15 2.1 2.1 2.05 2.0 2.1 2.0 2.2 1.95 2.2 1.9 2.1 1.9 2.05 1.9 2.0 2.0 2.0 2.1 1.95 2.15 2.0 2.2 2.05" fill="#392f0b" fill-rule="evenodd" stroke="none"/>
    <path d="M2.05 1.8 L2.1 1.85 2.2 1.95 2.15 1.9 2.1 1.9 2.0 1.95 1.9 1.95 1.85 2.0 1.9 2.05 1.85 2.0 1.8 2.0 1.75 1.95 Q1.8 1.9 1.85 1.9 L1.95 1.85 2.0 1.85 2.05 1.8" fill="#664f0e" fill-rule="evenodd" stroke="none"/>
    <path d="M2.15 2.2 L2.0 2.2 2.0 2.1 2.1 2.05 2.15 2.1 2.15 2.2" fill="#1d1809" fill-rule="evenodd" stroke="none"/>
    <path d="M1.95 0.4 L1.95 0.45 1.95 0.55 1.9 0.55 Q1.9 0.5 1.8 0.45 L1.7 0.45 1.7 0.4 1.75 0.4 1.8 0.4 1.85 0.45 1.8 0.35 1.75 0.35 1.65 0.25 1.55 0.2 1.5 0.2 1.55 0.15 1.7 0.15 1.8 0.15 1.85 0.2 1.9 0.2 1.85 0.25 1.8 0.35 1.85 0.4 1.95 0.4" fill="#c3b33c" fill-rule="evenodd" stroke="none"/>
    <path d="M1.75 0.4 L1.45 0.35 1.45 0.3 1.55 0.3 1.55 0.2 1.65 0.25 1.75 0.35 1.8 0.35 1.85 0.45 1.8 0.4 1.75 0.4" fill="#ddd15c" fill-rule="evenodd" stroke="none"/>
    <path d="M1.55 0.2 L1.55 0.3 1.45 0.3 1.45 0.35 1.75 0.4 1.7 0.4 1.7 0.45 1.8 0.45 Q1.9 0.5 1.9 0.55 L1.8 0.5 1.7 0.5 1.75 0.55 1.85 0.55 1.85 0.6 1.8 0.6 1.75 0.55 1.7 0.55 1.5 0.5 1.35 0.5 1.3 0.55 1.25 0.6 1.3 0.5 1.35 0.45 1.35 0.4 1.3 0.4 1.3 0.25 Q1.25 0.2 1.3 0.15 L1.25 0.1 Q1.25 0.05 1.3 0.05 1.25 0.1 1.3 0.15 L1.35 0.15 1.35 0.2 1.4 0.2 1.45 0.2 1.5 0.2 1.55 0.2" fill="#dece49" fill-rule="evenodd" stroke="none"/>
    <path d="M1.55 0.15 L1.5 0.15 1.65 0.1 Q1.75 0.1 1.8 0.15 L1.7 0.15 1.55 0.15" fill="#c0a81e" fill-rule="evenodd" stroke="none"/>
    <path d="M1.5 0.5 L1.7 0.55 Q1.7 0.6 1.75 0.65 L1.8 0.65 1.85 0.65 1.85 0.7 1.8 0.7 1.75 0.65 Q1.65 0.65 1.65 0.7 L1.6 0.7 1.55 0.7 Q1.5 0.7 1.5 0.75 L1.8 0.95 1.75 0.95 1.7 0.95 1.75 1.0 1.8 1.0 1.8 1.1 1.75 1.05 1.7 1.05 1.6 0.95 1.45 0.9 1.4 0.85 1.55 0.85 1.45 0.75 1.35 0.75 1.35 0.6 Q1.35 0.55 1.4 0.55 L1.45 0.6 1.55 0.6 1.6 0.6 1.65 0.6 1.6 0.6 1.55 0.55 Q1.5 0.55 1.5 0.5" fill="#dcc531" fill-rule="evenodd" stroke="none"/>
    <path d="M1.25 0.6 L1.3 0.55 1.35 0.5 1.5 0.5 Q1.5 0.55 1.55 0.55 L1.6 0.6 1.65 0.6 1.6 0.6 1.55 0.6 1.45 0.6 1.4 0.55 Q1.35 0.55 1.35 0.6 L1.35 0.75 1.35 0.8 1.4 0.85 1.35 0.8 1.25 0.8 1.25 0.85 1.2 0.85 1.25 0.9 1.3 0.95 1.2 0.95 1.2 1.0 Q1.2 1.05 1.15 1.05 L1.15 1.0 1.05 0.95 1.05 1.0 1.1 1.05 1.0 1.05 Q0.95 1.05 0.9 1.1 L0.85 1.1 0.8 1.1 0.8 1.15 0.75 1.15 0.7 1.2 0.7 1.3 0.65 1.3 0.6 1.25 0.55 1.25 0.5 1.3 Q0.45 1.3 0.45 1.35 L0.45 1.4 0.4 1.35 0.4 1.25 0.45 1.25 0.5 1.25 0.55 1.15 0.6 1.1 0.75 1.05 Q0.85 1.05 0.85 1.1 L0.9 1.05 0.9 1.0 Q0.85 0.9 0.9 0.9 0.9 0.85 0.9 0.85 L0.95 0.85 1.0 0.9 1.1 0.95 Q1.1 0.9 1.1 0.85 L1.1 0.8 1.2 0.75 1.2 0.7 Q1.2 0.65 1.25 0.6" fill="#e7d537" fill-rule="evenodd" stroke="none"/>
    <path d="M1.7 0.55 L1.75 0.55 1.8 0.6 1.85 0.6 1.85 0.55 1.75 0.55 1.7 0.5 1.8 0.5 1.9 0.55 1.95 0.55 1.95 0.6 1.9 0.6 1.85 0.65 1.8 0.65 1.75 0.65 Q1.7 0.6 1.7 0.55" fill="#ccb423" fill-rule="evenodd" stroke="none"/>
    <path d="M1.3 0.05 L1.35 0.05 1.3 0.05 Q1.25 0.05 1.25 0.1 L1.3 0.15 Q1.25 0.2 1.3 0.25 L1.3 0.4 1.35 0.4 1.35 0.45 1.3 0.5 1.25 0.6 Q1.2 0.65 1.2 0.7 L1.2 0.75 1.15 0.75 1.15 0.65 1.2 0.55 1.2 0.5 1.25 0.45 1.25 0.35 1.25 0.3 Q1.2 0.25 1.2 0.2 L1.25 0.05 1.3 0.05" fill="#e4d65b" fill-rule="evenodd" stroke="none"/>
    <path d="M1.2 0.05 L1.15 0.1 1.1 0.15 1.15 0.2 1.2 0.3 1.15 0.45 1.1 0.55 1.05 0.5 1.0 0.5 1.0 0.6 0.9 0.6 0.8 0.6 0.75 0.6 0.75 0.7 0.7 0.75 Q0.65 0.75 0.6 0.8 0.6 0.8 0.55 0.85 L0.5 0.85 Q0.5 0.9 0.5 0.9 L0.5 0.95 0.4 1.0 Q0.35 1.05 0.35 1.1 0.35 1.2 0.3 1.2 L0.35 1.05 0.35 0.95 0.4 0.9 0.4 0.8 0.5 0.75 0.6 0.7 0.65 0.65 0.7 0.6 Q0.75 0.55 0.8 0.5 L0.85 0.55 0.85 0.5 0.9 0.45 0.9 0.4 0.95 0.45 1.0 0.45 1.05 0.4 1.1 0.35 1.05 0.25 1.0 0.15 1.1 0.1 1.15 0.1 1.2 0.05" fill="#efe893" fill-rule="evenodd" stroke="none"/>
    <path d="M1.2 0.05 L1.3 0.05 1.25 0.05 1.2 0.15 1.2 0.25 1.25 0.3 1.15 0.5 Q1.1 0.6 1.15 0.65 L1.1 0.7 1.05 0.7 1.0 0.65 Q0.95 0.65 0.95 0.7 L0.95 0.8 0.85 0.8 0.7 0.8 0.6 0.9 0.55 1.0 0.45 1.05 0.4 1.05 0.35 1.1 Q0.35 1.05 0.4 1.0 L0.5 0.95 0.5 0.9 Q0.5 0.9 0.5 0.85 L0.55 0.85 Q0.6 0.8 0.6 0.8 0.65 0.75 0.7 0.75 L0.75 0.7 0.75 0.6 0.8 0.6 0.9 0.6 1.0 0.6 1.0 0.5 1.05 0.5 1.1 0.55 1.15 0.45 1.2 0.3 1.15 0.2 1.1 0.15 1.15 0.1 1.2 0.05" fill="#ede380" fill-rule="evenodd" stroke="none"/>
    <path d="M1.2 0.05 L1.15 0.1 1.1 0.1 1.0 0.15 1.05 0.25 1.1 0.35 1.05 0.4 1.0 0.45 0.95 0.45 0.9 0.4 0.9 0.45 0.85 0.5 0.85 0.55 0.8 0.5 Q0.75 0.55 0.7 0.6 L0.65 0.65 0.6 0.7 0.5 0.75 0.4 0.8 0.4 0.9 0.35 0.95 0.35 1.05 0.3 1.2 0.25 1.2 0.3 1.1 0.3 0.85 0.35 0.75 0.45 0.7 0.5 0.6 0.6 0.6 0.65 0.5 Q0.7 0.45 0.8 0.4 L0.9 0.3 0.9 0.25 0.95 0.15 Q0.95 0.1 1.05 0.05 L1.1 0.05 1.2 0.05" fill="#f2eea4" fill-rule="evenodd" stroke="none"/>
    <path d="M0.4 1.05 L0.45 1.05 0.55 1.0 0.6 0.9 0.7 0.8 0.85 0.8 0.95 0.8 0.95 0.7 Q0.95 0.65 1.0 0.65 L1.05 0.7 1.1 0.7 1.15 0.65 Q1.1 0.6 1.15 0.5 L1.25 0.3 1.2 0.25 1.2 0.15 1.25 0.05 1.2 0.2 Q1.2 0.25 1.25 0.3 L1.25 0.35 1.25 0.45 1.2 0.5 1.2 0.55 1.15 0.65 1.15 0.75 1.05 0.75 1.0 0.85 0.95 0.85 Q0.9 0.8 0.85 0.85 L0.8 1.0 0.75 1.0 0.65 0.95 0.6 1.0 0.55 1.05 0.5 1.1 0.45 1.2 0.4 1.05" fill="#ebdf6a" fill-rule="evenodd" stroke="none"/>
    <path d="M1.2 0.0 L1.1 0.05 1.05 0.05 0.9 0.1 0.8 0.2 0.75 0.25 0.75 0.3 0.7 0.35 Q0.6 0.35 0.6 0.4 L0.6 0.45 Q0.55 0.5 0.5 0.45 L0.4 0.45 Q0.4 0.45 0.35 0.45 0.25 0.55 0.25 0.7 L0.25 0.95 0.3 1.1 0.25 1.15 0.25 1.05 0.2 0.8 Q0.2 0.65 0.25 0.5 0.3 0.4 0.45 0.35 L0.55 0.25 0.65 0.2 0.9 0.05 1.2 0.0" fill="#fbfac5" fill-rule="evenodd" stroke="none"/>
    <path d="M1.35 0.75 L1.45 0.75 1.55 0.85 1.4 0.85 1.45 0.9 1.4 0.9 1.3 0.95 1.35 1.0 1.4 1.05 1.35 1.0 1.3 1.0 1.35 1.1 1.4 1.2 1.2 1.1 1.2 1.15 1.15 1.2 1.15 1.15 1.1 1.15 1.1 1.25 1.15 1.3 1.1 1.25 Q1.05 1.2 1.05 1.25 L1.0 1.2 Q0.95 1.2 1.0 1.25 L0.9 1.25 0.9 1.3 0.95 1.35 0.9 1.3 0.85 1.25 0.75 1.25 0.8 1.3 0.8 1.4 0.85 1.45 Q0.8 1.5 0.85 1.55 L0.9 1.6 0.95 1.7 1.0 1.85 1.1 2.0 1.15 2.05 1.1 2.05 0.95 1.85 0.85 1.6 0.8 1.55 0.75 1.5 0.7 1.4 0.65 1.3 0.55 1.35 Q0.5 1.4 0.45 1.45 L0.45 1.6 0.5 1.75 0.55 1.85 0.55 1.95 0.5 1.95 0.45 1.85 0.45 1.7 0.4 1.65 0.35 1.55 0.35 1.65 0.3 1.6 0.3 1.7 0.25 1.7 0.2 1.65 Q0.2 1.6 0.15 1.65 L0.1 1.7 Q0.05 1.65 0.0 1.7 L0.0 1.75 0.0 1.85 -0.05 1.9 -0.05 1.75 -0.15 1.75 -0.25 1.8 -0.25 2.0 -0.25 2.1 -0.3 2.1 -0.3 2.0 -0.3 1.9 -0.25 1.8 Q-0.25 1.7 -0.3 1.7 L-0.35 1.75 -0.4 1.8 -0.35 1.75 -0.4 1.7 Q-0.4 1.65 -0.45 1.75 L-0.5 1.75 -0.5 1.75 Q-0.45 1.7 -0.45 1.6 L-0.4 1.45 Q-0.35 1.45 -0.35 1.5 L-0.35 1.55 -0.3 1.55 -0.25 1.55 -0.25 1.7 -0.2 1.65 -0.15 1.65 -0.1 1.65 0.0 1.7 0.0 1.65 0.05 1.6 0.1 1.6 0.15 1.65 0.15 1.55 0.2 1.55 0.25 1.55 0.3 1.5 0.3 1.55 0.35 1.55 0.35 1.5 0.4 1.5 0.4 1.45 0.45 1.4 0.45 1.35 Q0.45 1.3 0.5 1.3 L0.55 1.25 0.6 1.25 0.65 1.3 0.7 1.3 0.7 1.2 0.75 1.15 0.8 1.15 0.8 1.1 0.85 1.1 0.9 1.1 Q0.95 1.05 1.0 1.05 L1.1 1.05 1.05 1.0 1.05 0.95 1.15 1.0 1.15 1.05 Q1.2 1.05 1.2 1.0 L1.2 0.95 1.3 0.95 1.25 0.9 1.2 0.85 1.25 0.85 1.25 0.8 1.35 0.8 1.4 0.85 1.35 0.8 1.35 0.75" fill="#e3cd2a" fill-rule="evenodd" stroke="none"/>
    <path d="M1.45 0.9 L1.6 0.95 1.7 1.05 Q1.65 1.0 1.7 1.05 L1.8 1.15 1.6 1.05 1.7 1.15 1.8 1.2 1.85 1.25 1.55 1.05 1.5 1.05 1.5 1.1 1.65 1.2 1.75 1.3 1.8 1.3 1.8 1.35 1.75 1.35 1.7 1.3 1.6 1.2 Q1.5 1.15 1.45 1.15 1.45 1.2 1.5 1.25 L1.55 1.25 1.55 1.3 1.5 1.25 1.4 1.2 1.35 1.1 1.3 1.0 1.35 1.0 1.4 1.05 1.35 1.0 1.3 0.95 1.4 0.9 1.45 0.9" fill="#d6ba25" fill-rule="evenodd" stroke="none"/>
    <path d="M0.95 0.85 L1.0 0.85 1.05 0.75 1.15 0.75 1.2 0.75 1.1 0.8 1.1 0.85 Q1.1 0.9 1.1 0.95 L1.0 0.9 0.95 0.85" fill="#eadc4e" fill-rule="evenodd" stroke="none"/>
    <path d="M1.05 1.25 Q1.05 1.2 1.1 1.25 L1.15 1.3 1.1 1.25 1.1 1.15 1.15 1.15 1.15 1.2 1.2 1.15 1.2 1.1 1.4 1.2 1.4 1.25 1.35 1.25 1.3 1.2 1.25 1.25 1.2 1.3 1.3 1.4 1.35 1.5 1.45 1.6 1.55 1.7 1.6 1.75 1.65 1.8 1.6 1.85 1.4 1.6 1.3 1.5 1.2 1.4 1.2 1.45 1.25 1.5 1.15 1.35 1.05 1.25" fill="#d9be25" fill-rule="evenodd" stroke="none"/>
    <path d="M1.35 1.5 L1.3 1.4 1.2 1.3 1.25 1.25 1.3 1.2 1.35 1.25 1.4 1.25 1.55 1.4 1.7 1.5 1.65 1.5 1.6 1.4 1.55 1.4 1.45 1.35 1.45 1.45 Q1.4 1.45 1.35 1.5" fill="#d1a61c" fill-rule="evenodd" stroke="none"/>
    <path d="M1.55 1.3 L1.55 1.25 1.5 1.25 Q1.45 1.2 1.45 1.15 1.5 1.15 1.6 1.2 L1.7 1.3 1.7 1.45 1.65 1.35 1.55 1.3" fill="#c6971d" fill-rule="evenodd" stroke="none"/>
    <path d="M1.4 1.2 L1.5 1.25 1.55 1.3 1.65 1.35 1.7 1.45 1.75 1.5 1.85 1.55 1.85 1.6 1.8 1.6 1.8 1.55 1.75 1.55 1.7 1.5 1.55 1.4 1.4 1.25 1.4 1.2" fill="#d9c13c" fill-rule="evenodd" stroke="none"/>
    <path d="M1.85 0.7 L1.85 0.65 1.9 0.6 Q1.85 0.65 1.9 0.7 L1.95 0.7 1.95 0.75 Q1.9 0.7 1.9 0.75 L1.85 0.8 1.8 0.85 Q1.75 0.85 1.8 0.9 1.7 0.85 1.75 0.8 L1.8 0.75 1.85 0.7" fill="#bd9018" fill-rule="evenodd" stroke="none"/>
    <path d="M1.8 0.95 L1.5 0.75 Q1.5 0.7 1.55 0.7 L1.6 0.7 1.65 0.7 Q1.65 0.65 1.75 0.65 L1.8 0.7 1.85 0.7 1.8 0.75 1.75 0.8 Q1.7 0.85 1.8 0.9 L1.8 0.95" fill="#ceae21" fill-rule="evenodd" stroke="none"/>
    <path d="M1.7 1.05 L1.75 1.05 1.8 1.1 1.8 1.0 1.95 1.1 2.05 1.2 1.9 1.15 1.85 1.1 1.8 1.1 1.85 1.15 1.9 1.2 1.85 1.2 1.8 1.2 1.7 1.15 1.6 1.05 1.8 1.15 1.7 1.05 Q1.65 1.0 1.7 1.05" fill="#caa820" fill-rule="evenodd" stroke="none"/>
    <path d="M0.25 1.1 L0.25 1.0 0.2 0.9 0.2 0.6 Q0.2 0.45 0.3 0.35 0.55 0.2 0.7 0.1 0.95 0.0 1.2 0.0 L0.9 0.05 0.65 0.2 0.55 0.25 0.45 0.35 Q0.3 0.4 0.25 0.5 0.2 0.65 0.2 0.8 L0.25 1.05 0.25 1.15 0.25 1.1 M1.2 0.0 L1.2 0.0" fill="#ffffdb" fill-rule="evenodd" stroke="none"/>
    <path d="M0.4 0.05 L0.25 0.2 0.15 0.3 0.25 0.15 0.4 0.05" fill="#e9e1a9" fill-rule="evenodd" stroke="none"/>
    <path d="M-0.3 -0.4 L-0.2 -0.25 -0.1 -0.15 Q0.15 -0.05 0.45 -0.05 L0.4 0.0 0.35 0.05 -0.05 0.05 -0.45 0.05 Q-0.45 0.05 -0.5 0.1 L-0.55 0.15 -0.6 0.15 -0.55 0.1 -0.55 0.05 -0.65 0.05 -0.7 0.0 -0.75 -0.05 -0.75 -0.15 -0.75 -0.2 -0.8 -0.25 -0.85 -0.25 -0.8 -0.3 -0.75 -0.4 -0.7 -0.4 -0.7 -0.4 -0.65 -0.45 -0.6 -0.4 -0.55 -0.35 -0.45 -0.35 -0.3 -0.4" fill="#ddd083" fill-rule="evenodd" stroke="none"/>
    <path d="M0.1 0.5 L0.1 0.75 0.05 0.7 0.0 0.65 -0.2 0.6 -0.45 0.65 -0.45 0.55 -0.4 0.55 Q-0.35 0.5 -0.4 0.5 L-0.5 0.5 -0.55 0.4 -0.6 0.35 -0.6 0.15 -0.55 0.15 -0.55 0.3 -0.4 0.35 -0.25 0.35 -0.25 0.4 -0.2 0.45 -0.05 0.45 0.1 0.45 0.1 0.5" fill="#e7dc7c" fill-rule="evenodd" stroke="none"/>
    <path d="M0.1 0.75 L0.1 0.85 0.1 0.95 0.05 0.95 0.0 0.9 -0.05 0.95 -0.05 1.05 -0.2 0.95 -0.4 0.9 -0.45 0.9 -0.45 0.9 -0.5 0.9 -0.5 0.9 Q-0.55 0.85 -0.5 0.8 L-0.6 0.8 -0.7 0.8 -0.7 0.9 -0.75 0.9 Q-0.75 0.85 -0.75 0.85 L-0.8 0.8 -0.75 0.8 -0.7 0.8 -0.75 0.75 -0.8 0.7 Q-0.75 0.65 -0.75 0.65 -0.7 0.65 -0.65 0.7 L-0.6 0.75 -0.5 0.75 Q-0.5 0.7 -0.5 0.65 L-0.55 0.6 -0.6 0.6 -0.65 0.6 Q-0.65 0.55 -0.65 0.5 -0.7 0.45 -0.7 0.5 -0.75 0.55 -0.8 0.5 L-0.8 0.45 -0.85 0.4 -0.9 0.4 -0.9 0.35 -0.8 0.25 Q-0.75 0.25 -0.75 0.3 L-0.7 0.3 -0.65 0.3 -0.65 0.35 -0.6 0.4 -0.6 0.35 -0.55 0.4 -0.5 0.5 -0.4 0.5 Q-0.35 0.5 -0.4 0.55 L-0.45 0.55 -0.45 0.65 -0.2 0.6 0.0 0.65 0.05 0.7 0.1 0.75" fill="#eade6f" fill-rule="evenodd" stroke="none"/>
    <path d="M0.1 0.85 Q0.15 1.0 0.25 1.1 L0.25 1.2 0.15 1.15 0.1 1.1 0.1 1.15 0.05 1.1 -0.05 1.05 -0.05 0.95 0.0 0.9 0.05 0.95 0.1 0.95 0.1 0.85" fill="#f1e879" fill-rule="evenodd" stroke="none"/>
    <path d="M0.4 1.05 L0.45 1.2 0.4 1.25 0.4 1.35 0.35 1.35 0.3 1.35 0.2 1.4 0.1 1.35 0.1 1.3 0.15 1.3 0.2 1.3 0.25 1.3 0.25 1.25 0.2 1.25 0.2 1.2 0.15 1.2 0.1 1.15 0.1 1.1 0.15 1.15 0.25 1.2 0.3 1.2 Q0.35 1.2 0.35 1.1 L0.4 1.05" fill="#f9f161" fill-rule="evenodd" stroke="none"/>
    <path d="M-0.75 0.9 L-0.7 0.9 -0.55 0.9 -0.45 0.9 -0.45 0.9 -0.4 0.9 -0.2 0.95 -0.05 1.05 0.05 1.1 0.1 1.15 0.15 1.2 0.1 1.2 0.0 1.15 -0.2 1.0 -0.5 0.95 -0.65 0.95 -0.85 1.0 -0.9 1.0 Q-0.95 1.0 -1.05 1.05 L-1.15 1.2 -1.2 1.25 -1.25 1.25 Q-1.1 1.05 -0.9 0.95 L-0.8 0.95 -0.75 0.9" fill="#fffef2" fill-rule="evenodd" stroke="none"/>
    <path d="M0.2 1.2 L0.2 1.25 0.15 1.25 0.05 1.25 -0.05 1.2 Q-0.2 1.1 -0.35 1.05 L-0.45 1.05 -0.5 1.05 -0.65 1.05 -0.75 1.0 -0.9 1.0 -0.85 1.0 -0.6 1.0 -0.4 1.0 -0.15 1.05 0.05 1.2 0.1 1.25 0.2 1.2" fill="#fefeb7" fill-rule="evenodd" stroke="none"/>
    <path d="M0.15 1.2 L0.2 1.2 0.1 1.25 0.05 1.2 -0.15 1.05 -0.4 1.0 -0.6 1.0 -0.85 1.0 -0.65 0.95 -0.5 0.95 -0.2 1.0 0.0 1.15 0.1 1.2 0.15 1.2" fill="#ffffd3" fill-rule="evenodd" stroke="none"/>
    <path d="M0.45 1.2 L0.5 1.1 0.55 1.05 0.6 1.0 0.65 0.95 0.75 1.0 0.8 1.0 0.85 0.85 Q0.9 0.8 0.95 0.85 L0.9 0.85 Q0.9 0.85 0.9 0.9 0.85 0.9 0.9 1.0 L0.9 1.05 0.85 1.1 Q0.85 1.05 0.75 1.05 L0.6 1.1 0.55 1.15 0.5 1.25 0.45 1.25 0.4 1.25 0.4 1.35 0.45 1.4 0.4 1.45 0.4 1.5 0.35 1.5 0.35 1.55 0.3 1.55 0.3 1.5 0.25 1.55 0.2 1.55 0.15 1.55 0.15 1.65 0.1 1.6 0.05 1.6 0.0 1.65 0.0 1.7 -0.1 1.65 -0.15 1.65 -0.2 1.65 -0.25 1.7 -0.25 1.55 -0.3 1.55 -0.35 1.55 -0.35 1.5 Q-0.35 1.45 -0.4 1.45 L-0.45 1.6 Q-0.45 1.7 -0.5 1.75 L-0.55 1.65 Q-0.55 1.65 -0.6 1.65 L-0.55 1.6 -0.5 1.5 -0.45 1.6 -0.5 1.65 -0.45 1.55 Q-0.4 1.45 -0.5 1.5 L-0.5 1.45 -0.5 1.4 -0.45 1.4 -0.4 1.45 -0.3 1.5 -0.25 1.5 Q-0.2 1.65 0.0 1.6 L0.0 1.55 Q0.0 1.55 0.05 1.55 L0.1 1.5 0.2 1.5 0.3 1.45 0.3 1.35 0.35 1.35 0.4 1.35 0.4 1.25 0.45 1.2" fill="#eadb4b" fill-rule="evenodd" stroke="none"/>
    <path d="M1.1 2.0 L1.0 1.85 0.95 1.7 0.9 1.6 0.85 1.55 Q0.8 1.5 0.85 1.45 L0.8 1.4 0.8 1.3 0.75 1.25 0.85 1.25 0.9 1.3 0.95 1.35 0.9 1.3 0.9 1.25 1.0 1.25 1.05 1.35 1.15 1.45 1.1 1.45 1.1 1.55 1.15 1.65 1.25 1.8 1.35 1.9 1.35 1.95 1.2 1.75 1.05 1.6 1.0 1.55 0.95 1.5 1.0 1.65 1.05 1.8 1.1 1.9 1.15 2.0 Q1.1 1.95 1.1 2.0" fill="#dbbf20" fill-rule="evenodd" stroke="none"/>
    <path d="M0.5 1.75 L0.45 1.6 0.45 1.45 Q0.5 1.4 0.55 1.35 L0.65 1.3 0.7 1.4 0.75 1.5 0.8 1.55 0.85 1.6 Q0.8 1.55 0.75 1.55 L0.65 1.6 0.6 1.6 0.55 1.55 Q0.5 1.55 0.5 1.65 L0.5 1.75" fill="#e0c71c" fill-rule="evenodd" stroke="none"/>
    <path d="M1.55 2.2 L1.45 2.2 1.4 2.1 1.4 2.05 Q1.3 1.95 1.25 1.95 1.2 2.0 1.25 2.05 L1.25 2.1 1.3 2.2 1.2 2.2 1.2 2.1 1.1 2.0 Q1.1 1.95 1.15 2.0 L1.1 1.9 1.05 1.8 1.0 1.65 0.95 1.5 1.0 1.55 1.05 1.6 1.2 1.75 1.35 1.95 1.35 1.9 1.4 2.0 1.45 2.1 1.55 2.2" fill="#c79f16" fill-rule="evenodd" stroke="none"/>
    <path d="M1.2 2.2 L1.15 2.2 1.0 2.0 1.0 1.95 0.95 1.9 0.95 1.85 0.9 1.8 0.8 1.65 Q0.85 1.75 0.75 1.75 L0.65 1.8 0.6 1.85 0.6 1.9 0.6 2.05 0.65 2.1 0.65 2.2 0.3 2.2 0.25 2.05 0.25 1.9 0.2 1.85 0.15 1.8 0.05 1.8 Q0.05 1.8 0.0 1.85 L0.0 2.2 -0.05 2.2 -0.05 2.05 Q-0.05 2.0 -0.05 1.95 L-0.15 1.95 Q-0.2 1.95 -0.25 2.0 L-0.25 1.8 -0.15 1.75 -0.05 1.75 -0.05 1.9 0.0 1.85 0.0 1.75 0.1 1.75 Q0.15 1.7 0.2 1.7 L0.25 1.8 0.25 1.9 0.3 1.95 0.3 2.0 0.3 2.0 0.35 2.0 0.35 1.75 0.4 1.8 0.4 1.7 0.45 1.7 0.45 1.85 0.5 1.95 0.55 1.95 0.55 1.85 0.5 1.75 0.5 1.65 Q0.5 1.55 0.55 1.55 L0.6 1.6 0.65 1.6 0.75 1.55 Q0.8 1.55 0.85 1.6 L0.95 1.85 1.1 2.05 1.15 2.05 1.1 2.0 1.2 2.1 1.2 2.2" fill="#d5b517" fill-rule="evenodd" stroke="none"/>
    <path d="M1.15 2.2 L0.95 2.2 0.95 2.1 0.95 1.9 0.9 1.85 0.8 1.85 0.7 1.85 Q0.6 1.85 0.6 1.9 L0.6 1.85 0.65 1.8 0.75 1.75 Q0.85 1.75 0.8 1.65 L0.9 1.8 0.95 1.85 0.95 1.9 1.0 1.95 1.0 2.0 1.15 2.2" fill="#cba114" fill-rule="evenodd" stroke="none"/>
    <path d="M0.95 2.2 L0.9 2.2 0.9 2.0 0.8 2.0 0.75 1.95 Q0.75 1.95 0.7 1.95 0.65 1.9 0.6 1.95 L0.6 2.05 0.6 1.9 Q0.6 1.85 0.7 1.85 L0.8 1.85 0.9 1.85 0.95 1.9 0.95 2.1 0.95 2.2" fill="#c08e13" fill-rule="evenodd" stroke="none"/>
    <path d="M0.1 1.35 L0.2 1.4 0.3 1.35 0.3 1.45 0.2 1.5 0.1 1.5 0.05 1.55 Q0.0 1.55 0.0 1.55 L0.0 1.6 Q-0.2 1.65 -0.25 1.5 L-0.3 1.5 -0.4 1.45 -0.45 1.4 -0.5 1.4 -0.45 1.35 Q-0.4 1.35 -0.4 1.4 L-0.3 1.4 -0.15 1.4 -0.1 1.4 0.0 1.4 0.05 1.4 0.1 1.35" fill="#ece55f" fill-rule="evenodd" stroke="none"/>
    <path d="M0.25 1.25 L0.25 1.3 0.2 1.3 0.15 1.3 0.1 1.3 -0.05 1.3 -0.15 1.3 -0.2 1.35 -0.3 1.35 Q-0.35 1.3 -0.4 1.3 -0.45 1.3 -0.5 1.35 L-0.55 1.4 -0.55 1.45 Q-0.55 1.35 -0.65 1.3 L-0.65 1.2 Q-0.65 1.15 -0.7 1.2 L-0.8 1.15 -0.8 1.05 -0.5 1.15 -0.4 1.15 -0.35 1.1 Q-0.3 1.1 -0.3 1.15 L-0.2 1.25 -0.05 1.25 0.1 1.25 0.15 1.25 0.15 1.3 0.25 1.25 M-0.8 1.05 L-0.8 1.05" fill="#f3ef8b" fill-rule="evenodd" stroke="none"/>
    <path d="M0.2 1.25 L0.25 1.25 0.15 1.3 0.15 1.25 0.1 1.25 -0.05 1.25 -0.2 1.25 -0.3 1.15 Q-0.3 1.1 -0.35 1.1 L-0.4 1.15 -0.5 1.15 -0.8 1.05 -0.95 1.0 -1.25 1.3 -1.3 1.35 -1.35 1.35 -1.3 1.3 -1.25 1.25 -1.2 1.25 -1.15 1.2 -1.05 1.05 Q-0.95 1.0 -0.9 1.0 L-0.75 1.0 -0.65 1.05 -0.5 1.05 -0.45 1.05 -0.35 1.05 Q-0.2 1.1 -0.05 1.2 L0.05 1.25 0.15 1.25 0.2 1.25" fill="#faf8a1" fill-rule="evenodd" stroke="none"/>
    <path d="M0.1 1.3 L0.1 1.35 0.05 1.4 0.0 1.4 -0.1 1.4 -0.15 1.4 -0.3 1.4 -0.4 1.4 Q-0.4 1.35 -0.45 1.35 L-0.5 1.4 -0.5 1.45 -0.55 1.55 -0.6 1.55 -0.6 1.5 -0.6 1.4 -0.7 1.35 -0.7 1.3 Q-0.65 1.25 -0.7 1.25 L-0.75 1.25 -0.8 1.25 -0.85 1.25 -0.9 1.2 -0.85 1.1 -0.8 1.05 -0.8 1.15 -0.7 1.2 Q-0.65 1.15 -0.65 1.2 L-0.65 1.3 Q-0.55 1.35 -0.55 1.45 L-0.55 1.4 -0.5 1.35 Q-0.45 1.3 -0.4 1.3 -0.35 1.3 -0.3 1.35 L-0.2 1.35 -0.15 1.3 -0.05 1.3 0.1 1.3" fill="#ece774" fill-rule="evenodd" stroke="none"/>
    <path d="M0.0 1.75 L0.0 1.7 Q0.05 1.65 0.1 1.7 L0.15 1.65 Q0.2 1.6 0.2 1.65 L0.25 1.7 0.3 1.7 0.3 1.6 0.35 1.65 0.35 1.55 0.4 1.65 0.45 1.7 0.4 1.7 0.4 1.8 0.35 1.75 0.35 2.0 0.3 2.0 0.3 2.0 0.3 1.95 0.25 1.9 0.25 1.8 0.2 1.7 Q0.15 1.7 0.1 1.75 L0.0 1.75" fill="#ddc21b" fill-rule="evenodd" stroke="none"/>
    <path d="M0.3 2.2 L0.25 2.2 0.25 2.1 0.2 2.0 0.2 2.05 0.15 2.05 0.1 2.05 0.05 2.0 Q0.0 2.0 0.0 2.0 L0.0 2.2 0.0 2.2 0.0 1.85 Q0.05 1.8 0.05 1.8 L0.15 1.8 0.2 1.85 0.25 1.9 0.25 2.05 0.3 2.2" fill="#caa213" fill-rule="evenodd" stroke="none"/>
    <path d="M0.25 2.2 L0.0 2.2 0.0 2.0 Q0.0 2.0 0.05 2.0 L0.1 2.05 0.15 2.05 0.2 2.05 0.2 2.0 0.25 2.1 0.25 2.2" fill="#be8f12" fill-rule="evenodd" stroke="none"/>
    <path d="M0.9 2.2 L0.65 2.2 0.65 2.1 0.6 2.05 0.6 1.95 Q0.65 1.9 0.7 1.95 0.75 1.95 0.75 1.95 L0.8 2.0 0.9 2.0 0.9 2.2" fill="#ae8813" fill-rule="evenodd" stroke="none"/>
    <path d="M1.35 1.5 Q1.4 1.45 1.45 1.45 L1.45 1.35 1.55 1.4 1.6 1.4 1.65 1.5 1.7 1.5 1.75 1.55 1.6 1.55 1.6 1.65 1.55 1.7 1.45 1.6 1.35 1.5" fill="#bc911a" fill-rule="evenodd" stroke="none"/>
    <path d="M1.8 2.05 L1.7 1.95 1.6 1.85 1.65 1.8 1.7 1.85 1.7 1.9 1.75 1.95 1.8 2.0 1.85 2.05 1.8 2.05" fill="#b49421" fill-rule="evenodd" stroke="none"/>
    <path d="M1.65 1.8 L1.6 1.75 1.55 1.7 1.6 1.65 1.6 1.55 1.75 1.55 1.8 1.55 1.9 1.7 2.0 1.8 1.95 1.75 1.9 1.7 1.75 1.75 1.7 1.85 1.65 1.8" fill="#9b7a11" fill-rule="evenodd" stroke="none"/>
    <path d="M2.0 1.8 L2.05 1.8 2.0 1.85 1.95 1.85 1.85 1.9 Q1.8 1.9 1.75 1.95 L1.7 1.9 1.7 1.85 1.75 1.75 1.9 1.7 1.95 1.75 2.0 1.8" fill="#7d6210" fill-rule="evenodd" stroke="none"/>
    <path d="M1.4 1.6 L1.6 1.85 1.45 1.7 1.4 1.6" fill="#bd8413" fill-rule="evenodd" stroke="none"/>
    <path d="M1.65 1.95 L1.6 1.85 1.7 1.95 1.8 2.05 1.75 2.05 1.7 2.0 1.65 1.95" fill="#975d0f" fill-rule="evenodd" stroke="none"/>
    <path d="M1.25 1.8 L1.15 1.65 1.1 1.55 1.1 1.45 1.15 1.45 1.3 1.65 1.45 1.8 1.4 1.75 1.35 1.7 1.25 1.7 1.25 1.8" fill="#d1a81b" fill-rule="evenodd" stroke="none"/>
    <path d="M1.4 1.6 L1.45 1.7 1.35 1.6 1.25 1.5 1.2 1.45 1.2 1.4 1.3 1.5 1.4 1.6" fill="#d1a31b" fill-rule="evenodd" stroke="none"/>
    <path d="M1.0 1.25 Q0.95 1.2 1.0 1.2 L1.05 1.25 1.15 1.35 1.25 1.5 1.35 1.6 1.45 1.7 1.5 1.8 1.5 1.85 1.45 1.85 1.45 1.8 1.3 1.65 1.15 1.45 1.05 1.35 1.0 1.25" fill="#e0cb3a" fill-rule="evenodd" stroke="none"/>
    <path d="M1.45 1.7 L1.6 1.85 1.65 1.95 1.65 2.0 1.7 2.05 1.65 2.0 1.6 2.0 1.5 1.9 1.45 1.85 1.5 1.85 1.5 1.8 1.45 1.7" fill="#c9aa23" fill-rule="evenodd" stroke="none"/>
    <path d="M1.25 1.8 L1.25 1.7 1.35 1.7 1.4 1.75 1.45 1.8 1.45 1.85 1.5 1.9 1.45 1.95 Q1.45 1.95 1.4 1.95 L1.4 2.0 1.35 1.9 1.25 1.8" fill="#be8614" fill-rule="evenodd" stroke="none"/>
    <path d="M1.7 2.2 L1.55 2.2 1.45 2.1 1.4 2.0 1.4 1.95 Q1.45 1.95 1.45 1.95 L1.5 1.9 1.6 2.0 1.65 2.1 1.7 2.2" fill="#a86e10" fill-rule="evenodd" stroke="none"/>
    <path d="M1.45 2.2 L1.3 2.2 1.25 2.1 1.25 2.05 Q1.2 2.0 1.25 1.95 1.3 1.95 1.4 2.05 L1.4 2.1 1.45 2.2" fill="#a87711" fill-rule="evenodd" stroke="none"/>
    <path d="M1.95 2.2 L1.8 2.2 1.8 2.1 1.75 2.05 1.8 2.05 1.85 2.1 1.9 2.15 1.9 2.1 1.95 2.2" fill="#72480d" fill-rule="evenodd" stroke="none"/>
    <path d="M1.8 2.05 L1.85 2.05 1.8 2.0 1.85 2.0 1.9 2.05 1.9 2.1 1.9 2.15 1.85 2.1 1.8 2.05" fill="#8e7819" fill-rule="evenodd" stroke="none"/>
    <path d="M1.8 2.2 L1.7 2.2 1.65 2.1 1.6 2.0 1.65 2.0 1.7 2.05 1.65 2.0 1.65 1.95 1.7 2.0 1.75 2.05 1.8 2.1 1.8 2.2" fill="#b39419" fill-rule="evenodd" stroke="none"/>
    <path d="M-2.2 -1.6 L-2.2 -2.2 -2.0 -2.2 -2.0 -2.05 -1.95 -2.0 -1.9 -1.95 -1.9 -1.9 -1.95 -1.9 -1.95 -1.85 -1.9 -1.8 -1.85 -1.75 -1.8 -1.75 -1.75 -1.75 -1.65 -1.75 -1.65 -1.7 -1.7 -1.65 -1.65 -1.55 -1.6 -1.5 Q-1.6 -1.5 -1.65 -1.5 L-1.7 -1.45 -1.7 -1.4 Q-1.7 -1.3 -1.75 -1.3 L-1.8 -1.35 -1.85 -1.35 -2.2 -1.6" fill="#130d09" fill-rule="evenodd" stroke="none"/>
    <path d="M-2.2 -1.45 L-2.2 -1.5 Q-2.15 -1.45 -2.05 -1.4 L-1.95 -1.35 -2.0 -1.35 -2.05 -1.35 -2.0 -1.35 -2.0 -1.3 -2.2 -1.45" fill="#4d2f0b" fill-rule="evenodd" stroke="none"/>
    <path d="M-2.2 -1.5 L-2.2 -1.55 -2.0 -1.45 -1.85 -1.3 -1.8 -1.25 -1.7 -1.25 -1.7 -1.2 -1.75 -1.2 -1.85 -1.25 -1.95 -1.35 -2.05 -1.4 Q-2.15 -1.45 -2.2 -1.5" fill="#351108" fill-rule="evenodd" stroke="none"/>
    <path d="M-2.2 -1.55 L-2.2 -1.6 -1.85 -1.35 -1.85 -1.3 -2.0 -1.45 -2.2 -1.55 M-1.85 -1.35 L-1.85 -1.35" fill="#4b3010" fill-rule="evenodd" stroke="none"/>
    <path d="M-2.2 -0.9 L-2.2 -1.2 -2.1 -1.2 -2.05 -1.2 -2.0 -1.25 -1.95 -1.25 -1.9 -1.2 -1.9 -1.05 -1.85 -0.9 -1.95 -0.9 -2.0 -0.9 Q-2.0 -0.95 -2.1 -0.95 L-2.2 -0.9" fill="#220b08" fill-rule="evenodd" stroke="none"/>
    <path d="M-2.2 -0.8 L-2.2 -0.9 -2.1 -0.95 Q-2.0 -0.95 -2.0 -0.9 L-1.95 -0.9 -1.85 -0.9 -1.9 -1.05 -1.9 -1.2 -1.95 -1.25 -2.0 -1.25 -2.05 -1.2 -2.1 -1.2 -2.2 -1.2 -2.2 -1.45 -2.0 -1.3 -1.85 -1.2 -1.7 -1.15 -1.7 -1.0 -1.75 -1.0 -1.75 -0.95 -1.75 -0.85 -1.85 -0.85 -1.95 -0.8 -2.0 -0.85 -2.05 -0.85 Q-2.1 -0.8 -2.1 -0.85 L-2.1 -0.85 -2.15 -0.85 -2.2 -0.8" fill="#341308" fill-rule="evenodd" stroke="none"/>
    <path d="M-2.2 -0.8 L-2.2 -0.8 -2.15 -0.85 -2.1 -0.85 -2.1 -0.85 Q-2.1 -0.8 -2.05 -0.85 L-2.0 -0.85 -1.95 -0.8 -1.85 -0.85 -1.75 -0.85 -1.75 -0.95 -1.75 -1.0 -1.7 -1.0 -1.7 -1.15 -1.65 -1.1 -1.6 -1.05 -1.6 -1.0 -1.65 -0.95 -1.6 -0.85 -1.6 -0.8 -1.65 -0.8 -1.7 -0.8 -1.8 -0.8 -1.8 -0.65 -2.0 -0.7 -2.2 -0.8" fill="#472708" fill-rule="evenodd" stroke="none"/>
    <path d="M-2.2 -0.65 L-2.2 -0.8 -2.0 -0.7 -1.8 -0.65 -1.8 -0.8 -1.7 -0.8 -1.65 -0.8 -1.65 -0.75 -1.7 -0.7 -1.65 -0.65 Q-1.65 -0.6 -1.7 -0.6 L-1.8 -0.65 Q-1.85 -0.65 -1.9 -0.6 L-2.2 -0.65" fill="#644511" fill-rule="evenodd" stroke="none"/>
    <path d="M-2.2 -0.35 L-2.2 -0.45 -2.1 -0.45 -2.0 -0.45 -2.0 -0.35 -2.05 -0.3 -2.05 -0.25 -2.15 -0.3 -2.2 -0.35" fill="#51370d" fill-rule="evenodd" stroke="none"/>
    <path d="M-2.2 -0.45 L-2.2 -0.6 -1.95 -0.55 -1.95 -0.5 -2.0 -0.45 -2.1 -0.45 -2.2 -0.45" fill="#2b1906" fill-rule="evenodd" stroke="none"/>
    <path d="M-2.05 -0.25 L-2.05 -0.3 -2.0 -0.3 -1.9 -0.3 -1.95 -0.3 -2.0 -0.35 -2.0 -0.4 -1.95 -0.4 -1.85 -0.35 -1.8 -0.35 -1.75 -0.35 -1.75 -0.35 -1.8 -0.3 -1.75 -0.3 -1.7 -0.3 Q-1.7 -0.25 -1.75 -0.25 L-1.85 -0.2 -2.05 -0.25" fill="#b49222" fill-rule="evenodd" stroke="none"/>
    <path d="M-2.2 -0.25 L-2.2 -0.35 -2.15 -0.3 -2.05 -0.25 -2.1 -0.25 -2.2 -0.25 M-2.05 -0.25 L-2.05 -0.25" fill="#b88e14" fill-rule="evenodd" stroke="none"/>
    <path d="M-1.75 -0.15 L-1.8 -0.15 -1.85 -0.15 Q-1.9 -0.15 -1.95 -0.2 L-2.0 -0.25 -2.05 -0.25 -2.05 -0.25 -1.85 -0.2 -1.6 -0.25 Q-1.55 -0.3 -1.65 -0.35 L-1.65 -0.35 -1.6 -0.35 -1.55 -0.35 -1.5 -0.35 Q-1.45 -0.35 -1.4 -0.4 L-1.35 -0.45 -1.35 -0.4 -1.3 -0.4 -1.35 -0.35 -1.45 -0.3 -1.5 -0.25 -1.6 -0.2 -1.65 -0.2 Q-1.7 -0.2 -1.75 -0.15" fill="#e5d03c" fill-rule="evenodd" stroke="none"/>
    <path d="M-2.05 -0.2 L-2.1 -0.25 -2.05 -0.25 -2.0 -0.25 -1.95 -0.2 Q-1.9 -0.15 -1.85 -0.15 L-1.8 -0.15 -1.75 -0.15 -1.65 -0.15 -1.7 -0.1 -1.8 -0.1 -2.05 -0.2" fill="#fefb74" fill-rule="evenodd" stroke="none"/>
    <path d="M-2.2 -0.15 L-2.2 -0.25 -2.1 -0.25 -2.05 -0.2 -2.0 -0.15 -2.1 -0.15 -2.2 -0.15" fill="#d8c138" fill-rule="evenodd" stroke="none"/>
    <path d="M-2.2 0.0 L-2.2 0.0 -2.1 0.0 Q-2.1 0.0 -2.05 -0.05 -2.05 -0.1 -2.1 -0.1 L-2.2 -0.15 -2.1 -0.15 -2.0 -0.15 Q-1.95 -0.1 -1.85 -0.1 L-1.7 -0.05 -1.65 -0.05 -1.7 0.0 -1.75 0.0 -1.95 0.0 -2.2 0.0 M-2.2 -0.15 L-2.2 -0.15" fill="#d1b016" fill-rule="evenodd" stroke="none"/>
    <path d="M-2.2 0.0 L-2.2 -0.15 -2.1 -0.1 Q-2.05 -0.1 -2.05 -0.05 -2.1 0.0 -2.1 0.0 L-2.2 0.0" fill="#c48613" fill-rule="evenodd" stroke="none"/>
    <path d="M-2.2 -0.6 L-2.2 -0.65 -1.9 -0.6 Q-1.85 -0.55 -1.9 -0.5 L-1.95 -0.45 -2.0 -0.45 -1.95 -0.5 -1.95 -0.55 -2.2 -0.6" fill="#4e3108" fill-rule="evenodd" stroke="none"/>
    <path d="M-0.5 -2.2 L-0.45 -2.2 -0.4 -2.0 -0.4 -1.75 -0.4 -1.6 -0.45 -1.6 -0.5 -1.6 -0.5 -1.75 -0.45 -1.7 -0.45 -1.95 -0.5 -2.2" fill="#694c12" fill-rule="evenodd" stroke="none"/>
    <path d="M-0.45 -2.2 L-0.2 -2.2 -0.15 -2.05 -0.15 -1.9 -0.2 -1.9 -0.25 -1.9 -0.25 -2.0 -0.35 -2.15 -0.3 -1.95 -0.3 -1.75 -0.35 -1.75 -0.4 -1.75 -0.4 -2.0 -0.45 -2.2" fill="#54340a" fill-rule="evenodd" stroke="none"/>
    <path d="M-0.65 -2.2 L-0.5 -2.2 -0.45 -1.95 -0.45 -1.7 -0.5 -1.75 -0.6 -1.95 -0.65 -2.2" fill="#492a09" fill-rule="evenodd" stroke="none"/>
    <path d="M-0.7 -2.2 L-0.65 -2.2 -0.6 -1.95 -0.5 -1.75 -0.5 -1.6 -0.5 -1.6 -0.5 -1.55 Q-0.5 -1.5 -0.55 -1.5 L-0.55 -1.6 Q-0.6 -1.65 -0.6 -1.65 L-0.55 -1.7 -0.55 -1.75 -0.65 -1.95 -0.7 -2.2 M-0.8 -2.05 L-0.8 -2.15 -0.75 -2.1 -0.75 -2.05 -0.65 -1.85 -0.6 -1.65 -0.65 -1.65 -0.7 -1.85 -0.8 -2.05" fill="#765920" fill-rule="evenodd" stroke="none"/>
    <path d="M-0.95 -2.2 L-0.85 -2.2 -0.8 -2.1 -0.8 -2.05 -0.7 -1.85 -0.65 -1.65 -0.65 -1.6 Q-0.65 -1.6 -0.7 -1.6 L-0.75 -1.7 -0.8 -1.85 -0.9 -2.0 -0.95 -2.2" fill="#492809" fill-rule="evenodd" stroke="none"/>
    <path d="M-1.4 -2.2 L-1.35 -2.2 -1.25 -2.05 -1.15 -1.9 -1.1 -1.75 -1.0 -1.6 -0.9 -1.5 -0.8 -1.45 -0.8 -1.6 -0.9 -1.7 -1.0 -1.9 -1.1 -2.1 -1.1 -2.15 -1.15 -2.2 -1.1 -2.2 -0.95 -1.9 -0.85 -1.65 -0.8 -1.55 -0.75 -1.5 -0.8 -1.7 -0.85 -1.85 -1.0 -2.2 -0.95 -2.2 -0.9 -2.0 -0.8 -1.85 -0.75 -1.7 -0.7 -1.6 Q-0.65 -1.6 -0.65 -1.6 L-0.65 -1.65 -0.6 -1.65 Q-0.65 -1.6 -0.7 -1.6 L-0.7 -1.5 -0.7 -1.45 -0.75 -1.45 -0.8 -1.4 -0.85 -1.4 Q-0.9 -1.45 -0.9 -1.45 L-0.9 -1.35 -0.85 -1.3 -0.95 -1.3 -1.05 -1.25 -1.15 -1.2 -1.2 -1.15 -1.2 -1.1 -1.25 -1.0 Q-1.25 -0.95 -1.35 -1.0 L-1.35 -0.95 -1.4 -0.95 -1.45 -0.95 -1.45 -0.95 -1.4 -0.9 -1.4 -0.8 -1.45 -0.8 Q-1.5 -0.8 -1.5 -0.85 L-1.45 -0.9 -1.55 -0.9 -1.6 -0.85 -1.65 -0.95 -1.6 -1.0 -1.6 -1.05 -1.65 -1.1 -1.7 -1.15 -1.85 -1.2 -2.0 -1.3 -2.0 -1.35 -2.05 -1.35 -2.0 -1.35 -1.95 -1.35 -1.85 -1.25 -1.75 -1.2 -1.45 -1.0 -1.6 -1.15 -1.7 -1.25 -1.65 -1.2 -1.55 -1.15 -1.5 -1.1 -1.45 -1.05 -1.35 -1.05 -1.3 -1.15 -1.2 -1.25 -1.25 -1.3 -1.25 -1.35 -1.1 -1.35 Q-1.0 -1.35 -0.95 -1.4 L-0.95 -1.5 -1.0 -1.55 -1.2 -1.85 -1.4 -2.2 M-1.75 -1.3 L-1.7 -1.25 -1.8 -1.25 -1.85 -1.3 -1.85 -1.35 -1.75 -1.3" fill="#684816" fill-rule="evenodd" stroke="none"/>
    <path d="M-0.85 -2.2 L-0.7 -2.2 -0.65 -1.95 -0.55 -1.75 -0.55 -1.7 -0.6 -1.65 -0.65 -1.85 -0.75 -2.05 -0.75 -2.1 -0.8 -2.15 -0.8 -2.05 -0.8 -2.1 -0.85 -2.2" fill="#5d380b" fill-rule="evenodd" stroke="none"/>
    <path d="M-0.25 -1.6 L-0.25 -1.55 -0.2 -1.55 -0.2 -1.5 Q-0.25 -1.45 -0.3 -1.5 L-0.35 -1.55 -0.4 -1.5 -0.45 -1.5 -0.45 -1.5 -0.5 -1.5 -0.45 -1.45 -0.45 -1.35 -0.5 -1.4 Q-0.55 -1.4 -0.55 -1.35 -0.55 -1.3 -0.6 -1.35 L-0.65 -1.4 -0.65 -1.55 -0.7 -1.55 -0.7 -1.5 -0.7 -1.6 Q-0.65 -1.6 -0.6 -1.65 -0.6 -1.65 -0.55 -1.6 L-0.55 -1.5 Q-0.5 -1.5 -0.5 -1.55 L-0.5 -1.6 -0.45 -1.55 -0.45 -1.55 -0.4 -1.55 -0.4 -1.6 -0.35 -1.6 -0.3 -1.55 -0.25 -1.55 -0.25 -1.6" fill="#90711d" fill-rule="evenodd" stroke="none"/>
    <path d="M-0.9 -1.7 L-0.9 -1.65 Q-0.9 -1.6 -0.9 -1.6 L-1.0 -1.6 -1.1 -1.75 -1.15 -1.9 -1.15 -1.9 -1.15 -1.95 -1.15 -2.1 -1.1 -2.1 -1.0 -1.9 -0.9 -1.7" fill="#341609" fill-rule="evenodd" stroke="none"/>
    <path d="M-1.0 -1.6 L-0.9 -1.6 Q-0.9 -1.6 -0.9 -1.65 L-0.9 -1.7 -0.8 -1.6 -0.8 -1.45 -0.9 -1.5 -1.0 -1.6" fill="#492b0a" fill-rule="evenodd" stroke="none"/>
    <path d="M-1.1 -2.2 L-1.0 -2.2 -0.85 -1.85 -0.8 -1.7 -0.75 -1.5 -0.8 -1.55 -0.85 -1.65 -0.95 -1.9 -1.1 -2.2" fill="#49250a" fill-rule="evenodd" stroke="none"/>
    <path d="M-0.95 -1.5 L-0.95 -1.4 Q-1.0 -1.35 -1.1 -1.35 L-1.25 -1.35 -1.25 -1.3 -1.2 -1.25 -1.3 -1.15 -1.35 -1.05 -1.45 -1.05 -1.5 -1.1 -1.45 -1.1 Q-1.4 -1.1 -1.35 -1.1 L-1.35 -1.2 -1.3 -1.25 -1.3 -1.4 -1.2 -1.4 -1.15 -1.45 -1.05 -1.45 Q-1.0 -1.45 -0.95 -1.5" fill="#53330a" fill-rule="evenodd" stroke="none"/>
    <path d="M-1.4 -0.8 L-1.4 -0.9 -1.45 -0.95 -1.45 -0.95 -1.4 -0.95 -1.35 -0.95 -1.35 -1.0 Q-1.25 -0.95 -1.25 -1.0 L-1.2 -1.1 -1.2 -1.15 -1.15 -1.2 -1.05 -1.25 -0.95 -1.3 -0.85 -1.3 -0.9 -1.35 -0.9 -1.45 Q-0.9 -1.45 -0.85 -1.4 L-0.8 -1.4 -0.75 -1.45 -0.7 -1.45 -0.8 -1.3 Q-0.85 -1.25 -0.9 -1.25 L-1.0 -1.25 -1.05 -1.2 -1.05 -1.1 -1.15 -1.1 -1.15 -1.0 -1.2 -0.95 -1.25 -0.95 -1.35 -0.9 -1.35 -0.85 -1.4 -0.8" fill="#7e5b13" fill-rule="evenodd" stroke="none"/>
    <path d="M-1.45 -0.8 L-1.4 -0.8 -1.35 -0.85 -1.35 -0.9 -1.25 -0.95 -1.2 -0.95 -1.15 -1.0 -1.15 -1.1 -1.05 -1.1 -1.05 -1.2 -1.0 -1.25 -0.9 -1.25 -1.0 -1.2 -1.05 -1.1 -1.1 -1.05 -1.1 -0.95 Q-1.15 -0.95 -1.2 -0.95 L-1.25 -0.9 -1.25 -0.9 -1.3 -0.85 -1.35 -0.75 -1.45 -0.7 -1.55 -0.7 -1.55 -0.7 -1.5 -0.75 -1.5 -0.75 -1.45 -0.8" fill="#9a781e" fill-rule="evenodd" stroke="none"/>
    <path d="M-0.45 -1.5 L-0.45 -1.4 -0.45 -1.3 -0.5 -1.25 -0.6 -1.25 -0.65 -1.2 -0.75 -1.25 Q-0.85 -1.25 -0.9 -1.2 L-1.0 -1.05 -1.05 -0.95 Q-1.1 -0.9 -1.15 -0.9 L-1.25 -0.9 -1.2 -0.95 Q-1.15 -0.95 -1.1 -0.95 L-1.1 -1.05 -1.05 -1.1 -1.0 -1.2 -0.9 -1.25 Q-0.85 -1.25 -0.8 -1.3 L-0.7 -1.45 -0.7 -1.5 -0.7 -1.55 -0.65 -1.55 -0.65 -1.4 -0.6 -1.35 Q-0.55 -1.3 -0.55 -1.35 -0.55 -1.4 -0.5 -1.4 L-0.45 -1.35 -0.45 -1.45 -0.5 -1.5 -0.45 -1.5 -0.45 -1.5" fill="#ac8f2c" fill-rule="evenodd" stroke="none"/>
    <path d="M-0.95 -1.5 Q-1.0 -1.45 -1.05 -1.45 L-1.15 -1.45 -1.2 -1.4 -1.3 -1.4 -1.3 -1.25 -1.35 -1.2 -1.35 -1.1 Q-1.4 -1.1 -1.45 -1.1 L-1.5 -1.1 -1.55 -1.15 -1.5 -1.15 -1.45 -1.15 Q-1.4 -1.15 -1.4 -1.2 L-1.4 -1.35 Q-1.35 -1.45 -1.4 -1.5 L-1.45 -1.5 -1.5 -1.5 -1.45 -1.55 -1.4 -1.55 -1.4 -1.6 -1.35 -1.65 -1.35 -1.7 -1.4 -1.7 -1.4 -1.75 -1.35 -1.8 -1.35 -1.8 -1.3 -1.85 -1.3 -1.7 Q-1.25 -1.65 -1.2 -1.7 -1.15 -1.7 -1.15 -1.65 L-1.15 -1.6 -1.1 -1.55 -1.0 -1.55 -0.95 -1.5" fill="#3f2609" fill-rule="evenodd" stroke="none"/>
    <path d="M-1.55 -2.2 L-1.4 -2.2 -1.2 -1.85 -1.0 -1.55 -1.1 -1.55 -1.15 -1.6 -1.15 -1.65 Q-1.15 -1.7 -1.2 -1.7 -1.25 -1.65 -1.3 -1.7 L-1.3 -1.85 -1.35 -1.8 -1.35 -1.8 -1.4 -1.75 -1.4 -1.7 -1.35 -1.7 -1.35 -1.65 -1.4 -1.6 -1.4 -1.55 -1.45 -1.55 -1.5 -1.5 -1.45 -1.5 -1.4 -1.5 Q-1.35 -1.45 -1.4 -1.35 L-1.4 -1.2 Q-1.4 -1.15 -1.45 -1.15 L-1.5 -1.15 -1.55 -1.15 -1.65 -1.2 -1.55 -1.2 -1.45 -1.2 -1.5 -1.35 -1.6 -1.4 -1.55 -1.4 -1.55 -1.45 -1.55 -1.6 Q-1.5 -1.6 -1.45 -1.7 L-1.45 -1.75 -1.45 -1.85 -1.4 -1.8 -1.35 -1.8 -1.35 -1.8 -1.4 -1.85 -1.4 -1.95 Q-1.4 -2.0 -1.45 -2.0 L-1.5 -2.0 -1.5 -2.05 -1.45 -2.1 -1.45 -2.15 -1.5 -2.15 -1.55 -2.2" fill="#391909" fill-rule="evenodd" stroke="none"/>
    <path d="M-1.9 -2.2 L-1.55 -2.2 -1.5 -2.15 -1.45 -2.15 -1.45 -2.1 -1.5 -2.05 -1.5 -2.0 -1.45 -2.0 Q-1.4 -2.0 -1.4 -1.95 L-1.4 -1.85 -1.35 -1.8 -1.35 -1.8 -1.4 -1.8 -1.45 -1.85 -1.45 -1.75 -1.45 -1.7 Q-1.5 -1.6 -1.55 -1.6 L-1.55 -1.45 -1.55 -1.4 -1.6 -1.4 -1.5 -1.35 -1.45 -1.2 -1.55 -1.2 -1.65 -1.2 -1.7 -1.25 -1.75 -1.3 Q-1.7 -1.3 -1.65 -1.35 L-1.6 -1.5 -1.6 -1.65 -1.65 -1.75 -1.65 -1.8 -1.7 -1.8 -1.6 -1.8 -1.55 -1.75 -1.5 -1.8 Q-1.45 -1.8 -1.5 -1.85 -1.55 -1.85 -1.55 -1.95 L-1.55 -2.05 -1.75 -2.05 -1.9 -2.05 -1.9 -2.2" fill="#330f09" fill-rule="evenodd" stroke="none"/>
    <path d="M-1.35 -2.2 L-1.15 -2.2 -1.1 -2.15 -1.1 -2.1 -1.15 -2.1 -1.15 -1.95 -1.15 -1.9 -1.15 -1.9 -1.25 -2.05 -1.35 -2.2" fill="#4b2d09" fill-rule="evenodd" stroke="none"/>
    <path d="M-2.0 -2.2 L-1.9 -2.2 -1.9 -2.05 -1.75 -2.05 -1.55 -2.05 -1.55 -1.95 Q-1.55 -1.85 -1.5 -1.85 -1.45 -1.8 -1.5 -1.8 L-1.55 -1.75 -1.6 -1.8 -1.7 -1.8 -1.65 -1.8 -1.65 -1.75 -1.6 -1.65 -1.6 -1.5 -1.65 -1.35 Q-1.7 -1.3 -1.75 -1.3 L-1.85 -1.35 -1.8 -1.35 -1.75 -1.3 Q-1.7 -1.3 -1.7 -1.4 L-1.7 -1.45 -1.65 -1.5 Q-1.6 -1.5 -1.6 -1.5 L-1.65 -1.55 -1.7 -1.65 -1.65 -1.7 -1.65 -1.75 -1.75 -1.75 -1.8 -1.75 -1.85 -1.75 -1.9 -1.8 -1.95 -1.85 -1.95 -1.9 -1.9 -1.9 -1.9 -1.95 -1.95 -2.0 -2.0 -2.05 -2.0 -2.2 M-1.85 -1.35 L-1.85 -1.35" fill="#200e09" fill-rule="evenodd" stroke="none"/>
    <path d="M-0.65 -1.15 L-0.65 -1.1 -0.75 -1.1 -0.85 -1.15 -0.85 -1.1 -0.9 -1.0 -0.95 -1.0 -0.95 -0.95 -1.0 -0.9 -1.05 -0.8 -1.15 -0.85 -1.25 -0.8 -1.25 -0.85 -1.3 -0.85 -1.25 -0.9 -1.25 -0.9 -1.15 -0.9 Q-1.1 -0.9 -1.05 -0.95 L-1.0 -1.05 -0.9 -1.2 Q-0.85 -1.25 -0.75 -1.25 L-0.65 -1.2 -0.65 -1.15 M-1.25 -0.8 L-1.25 -0.8" fill="#c3ad35" fill-rule="evenodd" stroke="none"/>
    <path d="M-1.95 -0.4 L-2.0 -0.4 -2.0 -0.35 -1.95 -0.3 -1.9 -0.3 -2.0 -0.3 -2.05 -0.3 -2.0 -0.35 -2.0 -0.45 -1.95 -0.45 -1.9 -0.5 Q-1.85 -0.55 -1.9 -0.6 -1.85 -0.65 -1.8 -0.65 L-1.7 -0.6 Q-1.65 -0.6 -1.65 -0.65 L-1.7 -0.7 -1.65 -0.75 -1.65 -0.8 -1.6 -0.8 -1.6 -0.85 -1.55 -0.9 -1.45 -0.9 -1.5 -0.85 Q-1.5 -0.8 -1.45 -0.8 L-1.5 -0.75 -1.5 -0.75 -1.55 -0.7 -1.55 -0.7 -1.6 -0.65 -1.6 -0.55 -1.65 -0.55 -1.75 -0.55 -1.85 -0.5 -1.85 -0.45 Q-1.9 -0.45 -1.9 -0.45 L-1.95 -0.4 M-1.6 -0.8 L-1.6 -0.75 -1.6 -0.8" fill="#855c10" fill-rule="evenodd" stroke="none"/>
    <path d="M-1.85 -0.2 L-1.75 -0.25 Q-1.7 -0.25 -1.7 -0.3 L-1.75 -0.3 -1.8 -0.3 -1.75 -0.35 -1.75 -0.35 -1.7 -0.35 -1.7 -0.4 -1.7 -0.4 -1.65 -0.45 -1.65 -0.55 -1.6 -0.55 -1.55 -0.65 -1.45 -0.65 Q-1.35 -0.65 -1.35 -0.7 L-1.3 -0.75 -1.25 -0.8 -1.25 -0.6 -1.35 -0.55 -1.5 -0.45 -1.45 -0.45 -1.4 -0.4 Q-1.45 -0.35 -1.5 -0.35 L-1.55 -0.35 -1.6 -0.35 -1.65 -0.35 -1.65 -0.35 Q-1.55 -0.3 -1.6 -0.25 L-1.85 -0.2 M-1.25 -0.8 L-1.25 -0.8" fill="#d0b42e" fill-rule="evenodd" stroke="none"/>
    <path d="M-1.3 -0.85 L-1.25 -0.85 -1.25 -0.8 -1.3 -0.75 -1.35 -0.7 Q-1.35 -0.65 -1.45 -0.65 L-1.55 -0.65 -1.6 -0.55 -1.6 -0.65 -1.55 -0.7 -1.45 -0.7 -1.35 -0.75 -1.3 -0.85" fill="#ba9a27" fill-rule="evenodd" stroke="none"/>
    <path d="M-0.65 -1.1 L-0.65 -1.1 -0.75 -1.05 Q-0.8 -1.05 -0.8 -1.05 -0.85 -1.0 -0.85 -1.0 L-0.9 -1.0 -0.9 -0.95 Q-0.9 -0.9 -0.95 -0.9 L-1.0 -0.85 -1.05 -0.8 -1.1 -0.75 -1.2 -0.75 -1.25 -0.7 -1.25 -0.6 -1.3 -0.5 -1.35 -0.45 -1.4 -0.4 -1.45 -0.45 -1.5 -0.45 -1.35 -0.55 -1.25 -0.6 -1.25 -0.8 -1.15 -0.85 -1.05 -0.8 -1.0 -0.9 -0.95 -0.95 -0.95 -1.0 -0.9 -1.0 -0.85 -1.1 -0.85 -1.15 -0.75 -1.1 -0.65 -1.1" fill="#d5c247" fill-rule="evenodd" stroke="none"/>
    <path d="M-0.5 -1.0 L-0.55 -1.0 -0.65 -1.0 -0.7 -1.0 -0.75 -1.0 -0.75 -1.05 -0.8 -1.0 -0.85 -0.9 -0.9 -0.8 -0.95 -0.8 -1.0 -0.8 -1.1 -0.7 -1.15 -0.7 -1.15 -0.65 Q-1.15 -0.6 -1.15 -0.6 L-1.2 -0.55 -1.25 -0.45 -1.3 -0.4 -1.35 -0.4 -1.35 -0.45 -1.3 -0.5 -1.25 -0.6 -1.25 -0.7 -1.2 -0.75 -1.1 -0.75 -1.05 -0.8 -1.0 -0.85 -0.95 -0.9 Q-0.9 -0.9 -0.9 -0.95 L-0.9 -1.0 -0.85 -1.0 Q-0.85 -1.0 -0.8 -1.05 -0.8 -1.05 -0.75 -1.05 L-0.65 -1.1 -0.6 -1.05 -0.55 -1.05 -0.5 -1.05 -0.5 -1.0 M-0.75 -0.95 L-0.75 -0.95 -0.75 -1.0 -0.75 -0.95" fill="#decf64" fill-rule="evenodd" stroke="none"/>
    <path d="M-1.25 -0.45 L-1.2 -0.55 -1.15 -0.6 Q-1.15 -0.6 -1.15 -0.65 L-1.15 -0.7 -1.1 -0.7 -1.0 -0.8 -0.95 -0.8 -0.9 -0.8 -0.85 -0.9 -0.8 -1.0 -0.75 -1.05 -0.75 -1.0 -0.85 -0.9 -0.85 -0.8 -0.9 -0.75 -1.1 -0.65 Q-1.1 -0.5 -1.2 -0.45 L-1.25 -0.45 M-0.75 -1.0 L-0.75 -1.0" fill="#e7de7c" fill-rule="evenodd" stroke="none"/>
    <path d="M-1.7 -1.25 L-1.6 -1.15 -1.45 -1.0 -1.75 -1.2 -1.7 -1.2 -1.7 -1.25" fill="#4d2809" fill-rule="evenodd" stroke="none"/>
    <path d="M-1.75 -0.35 L-1.8 -0.35 -1.85 -0.35 -1.95 -0.4 -1.9 -0.45 -1.8 -0.4 -1.7 -0.4 -1.7 -0.35 -1.75 -0.35" fill="#c1ac4a" fill-rule="evenodd" stroke="none"/>
    <path d="M-1.65 -0.55 L-1.65 -0.45 -1.7 -0.4 -1.7 -0.4 -1.8 -0.4 -1.9 -0.45 Q-1.9 -0.45 -1.85 -0.45 L-1.85 -0.5 -1.75 -0.55 -1.65 -0.55" fill="#af8c1b" fill-rule="evenodd" stroke="none"/>
    <path d="M-2.05 -0.2 L-1.8 -0.1 -1.6 -0.1 -1.4 -0.15 Q-1.45 -0.1 -1.55 -0.1 L-1.7 -0.05 -1.85 -0.1 Q-1.95 -0.1 -2.0 -0.15 L-2.05 -0.2" fill="#fdfce3" fill-rule="evenodd" stroke="none"/>
    <path d="M-1.65 -0.15 L-1.75 -0.15 Q-1.7 -0.2 -1.65 -0.2 L-1.6 -0.2 -1.5 -0.25 -1.45 -0.3 Q-1.45 -0.25 -1.5 -0.2 L-1.65 -0.15" fill="#faf14e" fill-rule="evenodd" stroke="none"/>
    <path d="M-2.2 0.35 L-2.2 0.25 -1.95 0.25 -1.75 0.2 -1.8 0.15 -1.8 0.05 -1.85 0.0 -1.8 0.0 -1.75 0.0 -1.7 0.0 -1.65 -0.05 -1.7 -0.05 -1.55 -0.1 Q-1.45 -0.1 -1.4 -0.15 L-1.25 -0.35 -1.2 -0.35 -1.2 -0.35 -1.25 -0.3 -1.3 -0.25 -1.4 -0.1 -1.5 0.05 -1.55 0.15 Q-1.6 0.15 -1.6 0.2 L-1.55 0.25 Q-1.5 0.25 -1.5 0.3 L-1.65 0.3 -1.75 0.35 -1.75 0.3 -1.7 0.3 -1.95 0.3 -2.2 0.35" fill="#ddc020" fill-rule="evenodd" stroke="none"/>
    <path d="M-1.8 -0.1 L-1.7 -0.1 -1.65 -0.15 -1.45 -0.2 -1.35 -0.3 -1.25 -0.35 -1.4 -0.15 -1.6 -0.1 -1.8 -0.1 M-1.25 -0.35 L-1.25 -0.35" fill="#fffea4" fill-rule="evenodd" stroke="none"/>
    <path d="M-2.2 0.0 L-2.2 0.0 -1.95 0.0 -1.75 0.0 -1.8 0.0 -1.85 0.0 -2.0 0.0 -2.2 0.0" fill="#dcc63d" fill-rule="evenodd" stroke="none"/>
    <path d="M-1.2 -0.45 Q-1.1 -0.5 -1.1 -0.65 L-0.9 -0.75 -0.85 -0.8 -0.85 -0.9 -0.75 -1.0 -0.75 -0.95 -0.8 -0.85 -0.85 -0.7 -0.9 -0.6 -1.0 -0.45 -1.1 -0.45 -1.2 -0.4 -1.2 -0.35 -1.25 -0.35 -1.25 -0.4 -1.2 -0.45 M-1.25 -0.35 L-1.25 -0.35" fill="#f1ed96" fill-rule="evenodd" stroke="none"/>
    <path d="M-1.2 -0.35 L-1.2 -0.35 -1.2 -0.4 -1.1 -0.45 -1.0 -0.45 -0.9 -0.6 -0.85 -0.7 -0.8 -0.85 -0.75 -0.95 -0.75 -0.9 Q-0.8 -0.85 -0.8 -0.7 L-0.8 -0.55 -0.85 -0.45 -0.9 -0.4 -1.0 -0.4 -1.1 -0.4 -1.2 -0.35 -1.2 -0.35 M-0.75 -0.95 L-0.75 -0.95" fill="#fbf9ac" fill-rule="evenodd" stroke="none"/>
    <path d="M-1.2 -0.35 L-1.2 -0.35 Q-1.25 -0.3 -1.2 -0.25 L-1.15 -0.2 -1.15 -0.15 -1.1 -0.05 -1.1 0.05 -1.15 0.1 -1.2 0.15 -1.4 0.2 -1.55 0.25 -1.55 0.15 -1.5 0.05 -1.4 -0.1 -1.4 0.0 -1.45 0.1 -1.4 0.15 Q-1.35 0.2 -1.2 0.05 -1.15 0.0 -1.2 -0.1 L-1.3 -0.25 -1.25 -0.3 -1.2 -0.35 -1.1 -0.35 -1.0 -0.35 Q-0.9 -0.35 -0.85 -0.4 L-0.8 -0.5 -0.8 -0.8 -0.75 -0.9 -0.7 -0.75 -0.7 -0.6 -0.75 -0.4 -0.8 -0.3 -0.85 -0.25 -0.9 -0.25 -1.0 -0.25 -1.0 -0.3 -1.1 -0.3 -1.2 -0.35" fill="#fefdf3" fill-rule="evenodd" stroke="none"/>
    <path d="M-1.25 -0.45 L-1.2 -0.45 -1.25 -0.4 -1.25 -0.35 -1.35 -0.3 -1.45 -0.2 -1.65 -0.15 -1.5 -0.2 Q-1.45 -0.25 -1.45 -0.3 L-1.35 -0.35 -1.3 -0.4 -1.25 -0.45" fill="#fdf971" fill-rule="evenodd" stroke="none"/>
    <path d="M-1.2 -0.35 L-1.1 -0.4 -1.0 -0.4 -0.9 -0.4 -0.85 -0.45 -0.8 -0.55 -0.8 -0.7 Q-0.8 -0.85 -0.75 -0.9 L-0.8 -0.8 -0.8 -0.5 -0.85 -0.4 Q-0.9 -0.35 -1.0 -0.35 L-1.1 -0.35 -1.2 -0.35 M-0.75 -0.9 L-0.75 -0.9" fill="#ffffcc" fill-rule="evenodd" stroke="none"/>
    <path d="M-1.2 0.15 L-1.15 0.1 -1.1 0.05 -1.1 -0.05 -1.15 -0.15 -1.15 -0.2 -1.2 -0.25 Q-1.25 -0.3 -1.2 -0.35 L-1.1 -0.3 -1.0 -0.3 -1.0 -0.15 -0.95 0.0 Q-1.0 0.0 -0.95 0.1 L-1.0 0.15 -1.05 0.15 -1.0 0.2 -1.05 0.25 -1.05 0.3 -1.1 0.35 -1.1 0.35 -1.1 0.25 -1.1 0.2 -1.2 0.2 -1.2 0.15" fill="#dbc349" fill-rule="evenodd" stroke="none"/>
    <path d="M-1.3 -0.25 L-1.2 -0.1 Q-1.15 0.0 -1.2 0.05 -1.35 0.2 -1.4 0.15 L-1.45 0.1 -1.4 0.0 -1.4 -0.1 -1.3 -0.25 M-1.3 -0.15 L-1.4 -0.05 -1.4 0.1 -1.35 0.1 -1.25 0.05 Q-1.2 0.0 -1.25 -0.1 -1.25 -0.15 -1.3 -0.15" fill="#fffeb9" fill-rule="evenodd" stroke="none"/>
    <path d="M-1.3 -0.15 Q-1.25 -0.15 -1.25 -0.1 -1.2 0.0 -1.25 0.05 L-1.35 0.1 -1.4 0.1 -1.4 -0.05 -1.3 -0.15" fill="#ffff8e" fill-rule="evenodd" stroke="none"/>
    <path d="M-0.1 -1.0 L-0.05 -0.95 0.0 -0.9 Q-0.05 -0.85 -0.1 -0.9 L-0.1 -0.95 -0.15 -1.0 -0.2 -1.0 Q-0.25 -0.95 -0.25 -0.95 L-0.3 -0.95 -0.3 -0.9 -0.35 -0.85 -0.35 -0.8 -0.4 -0.85 -0.45 -0.9 -0.45 -0.95 -0.5 -1.0 -0.5 -1.05 -0.45 -1.0 Q-0.45 -0.95 -0.4 -0.95 L-0.3 -1.0 -0.2 -1.05 -0.2 -1.1 -0.15 -1.05 -0.1 -1.0" fill="#cac586" fill-rule="evenodd" stroke="none"/>
    <path d="M-0.5 -0.85 L-0.55 -0.9 Q-0.6 -0.95 -0.65 -0.95 L-0.7 -0.95 -0.7 -1.0 -0.65 -1.0 -0.55 -1.0 -0.5 -0.9 -0.45 -0.85 -0.5 -0.85" fill="#f8f498" fill-rule="evenodd" stroke="none"/>
    <path d="M-0.65 -0.9 L-0.6 -0.8 -0.65 -0.75 -0.65 -0.7 -0.7 -0.75 -0.7 -0.75 -0.75 -0.9 -0.75 -0.95 -0.75 -1.0 -0.75 -1.0 -0.7 -1.0 -0.7 -0.95 -0.65 -0.95 -0.65 -0.9 M-0.75 -0.9 L-0.75 -0.9" fill="#d2ba51" fill-rule="evenodd" stroke="none"/>
    <path d="M-0.6 -0.8 L-0.45 -0.6 -0.3 -0.4 -0.45 -0.35 -0.55 -0.35 -0.6 -0.4 -0.65 -0.45 -0.7 -0.4 -0.7 -0.4 -0.75 -0.4 -0.7 -0.6 -0.7 -0.75 -0.7 -0.75 -0.65 -0.7 -0.65 -0.75 -0.6 -0.8" fill="#d5c674" fill-rule="evenodd" stroke="none"/>
    <path d="M-0.6 0.35 L-0.6 0.4 -0.65 0.35 -0.65 0.3 -0.7 0.3 -0.75 0.3 Q-0.75 0.25 -0.8 0.25 L-0.9 0.35 -0.9 0.25 -0.9 0.15 -0.85 0.1 -0.8 0.1 -0.75 0.05 -0.85 0.05 -0.85 0.0 Q-0.9 -0.05 -0.95 -0.15 L-0.95 -0.2 -1.0 -0.25 -0.9 -0.25 -0.85 -0.25 -0.8 -0.25 -0.75 -0.2 -0.75 -0.15 -0.75 -0.05 -0.7 0.0 -0.65 0.05 -0.55 0.05 -0.55 0.1 -0.6 0.15 -0.6 0.35" fill="#dfd06f" fill-rule="evenodd" stroke="none"/>
    <path d="M-1.0 -0.3 L-1.0 -0.25 -0.95 -0.2 -0.95 -0.15 Q-0.9 -0.05 -0.85 0.0 L-0.85 0.05 -0.75 0.05 -0.8 0.1 -0.85 0.1 -0.9 0.15 -0.9 0.25 -0.95 0.4 -0.85 0.5 -0.8 0.55 -0.8 0.6 -0.85 0.6 -0.9 0.5 -0.95 0.6 -1.0 0.55 -1.0 0.5 -1.1 0.4 -1.2 0.4 -1.15 0.35 -1.1 0.35 -1.1 0.35 -1.05 0.3 -1.05 0.25 -1.0 0.2 -1.05 0.15 -1.0 0.15 -0.95 0.1 Q-1.0 0.0 -0.95 0.0 L-1.0 -0.15 -1.0 -0.3" fill="#e2ce56" fill-rule="evenodd" stroke="none"/>
    <path d="M-0.9 0.35 L-0.9 0.4 -0.85 0.4 -0.8 0.45 -0.8 0.5 Q-0.75 0.55 -0.7 0.5 -0.7 0.45 -0.65 0.5 -0.65 0.55 -0.65 0.6 L-0.6 0.6 -0.55 0.6 -0.5 0.65 Q-0.5 0.7 -0.5 0.75 L-0.6 0.75 -0.65 0.7 Q-0.7 0.65 -0.75 0.65 -0.75 0.65 -0.8 0.7 L-0.75 0.75 -0.7 0.8 -0.75 0.8 -0.8 0.8 -0.75 0.85 Q-0.75 0.85 -0.75 0.9 L-0.8 0.95 Q-0.75 0.85 -0.85 0.85 L-0.95 0.9 -0.9 0.85 -0.85 0.8 -0.9 0.75 -0.95 0.7 -1.0 0.7 -1.05 0.75 -1.1 0.7 -1.15 0.6 -1.2 0.45 -1.2 0.4 -1.1 0.4 -1.0 0.5 -1.0 0.55 -0.95 0.6 -0.9 0.5 -0.85 0.6 -0.8 0.6 -0.8 0.55 -0.85 0.5 -0.95 0.4 -0.9 0.25 -0.9 0.35" fill="#eadd60" fill-rule="evenodd" stroke="none"/>
    <path d="M-0.7 0.9 L-0.7 0.8 -0.6 0.8 -0.5 0.8 Q-0.55 0.85 -0.5 0.9 L-0.5 0.9 -0.45 0.9 -0.55 0.9 -0.7 0.9" fill="#f0e88a" fill-rule="evenodd" stroke="none"/>
    <path d="M-1.15 0.35 L-1.2 0.4 -1.2 0.45 -1.15 0.6 -1.1 0.7 -1.05 0.75 -1.0 0.7 -0.95 0.7 -0.9 0.75 -0.85 0.8 -0.9 0.85 -0.95 0.9 -0.85 0.85 Q-0.75 0.85 -0.8 0.95 L-0.9 0.95 -0.95 0.9 -1.0 0.9 -1.0 0.85 -0.95 0.8 -1.05 0.8 -1.1 0.85 -1.15 0.85 -1.2 0.85 Q-1.2 0.7 -1.2 0.6 L-1.3 0.45 -1.25 0.45 -1.25 0.4 -1.2 0.35 -1.15 0.35" fill="#ecdd49" fill-rule="evenodd" stroke="none"/>
    <path d="M-1.25 1.25 L-1.3 1.3 -1.35 1.35 -1.4 1.4 -1.4 1.45 -1.35 1.4 -1.25 1.4 -1.3 1.45 -1.35 1.45 -1.35 1.45 -1.45 1.45 Q-1.5 1.4 -1.5 1.4 L-1.55 1.4 -1.55 1.3 Q-1.55 1.25 -1.6 1.2 L-1.45 1.15 -1.5 1.2 -1.5 1.3 -1.55 1.4 -1.5 1.4 -1.45 1.35 -1.4 1.2 -1.25 1.0 -1.2 0.85 -1.15 0.85 -1.1 0.85 -1.05 0.8 -0.95 0.8 -1.0 0.85 -1.0 0.9 -0.95 0.9 -0.9 0.95 Q-1.1 1.05 -1.25 1.25" fill="#ebd830" fill-rule="evenodd" stroke="none"/>
    <path d="M-0.8 1.05 L-0.8 1.05 -0.85 1.1 Q-0.9 1.05 -0.9 1.05 L-0.95 1.05 -1.1 1.2 -1.25 1.35 Q-1.3 1.4 -1.4 1.4 L-1.35 1.35 -1.3 1.35 -1.25 1.3 -0.95 1.0 -0.8 1.05" fill="#fffe6d" fill-rule="evenodd" stroke="none"/>
    <path d="M-1.25 1.4 L-1.35 1.4 -1.4 1.45 -1.4 1.4 Q-1.3 1.4 -1.25 1.35 L-1.1 1.2 -0.95 1.05 -0.9 1.05 Q-0.9 1.05 -0.85 1.1 L-0.9 1.2 -0.9 1.1 -0.9 1.1 -0.95 1.15 -1.0 1.2 -1.05 1.3 -1.1 1.35 -1.2 1.35 -1.25 1.4" fill="#f3e953" fill-rule="evenodd" stroke="none"/>
    <path d="M-1.1 1.35 L-1.05 1.3 -1.0 1.2 -0.95 1.15 -0.9 1.1 -0.9 1.1 -0.9 1.25 -1.0 1.35 -1.1 1.45 -1.05 1.4 -1.05 1.35 -1.1 1.4 -1.15 1.4 -1.1 1.35" fill="#decc37" fill-rule="evenodd" stroke="none"/>
    <path d="M-0.9 1.2 L-0.85 1.25 -0.8 1.25 Q-0.75 1.3 -0.75 1.35 -0.75 1.35 -0.7 1.4 L-0.7 1.4 -0.65 1.45 -0.65 1.5 -0.6 1.55 -0.65 1.5 -0.7 1.5 -0.8 1.6 Q-0.75 1.55 -0.8 1.55 L-0.85 1.55 -0.9 1.6 -0.95 1.55 -0.95 1.55 -0.9 1.5 -0.9 1.45 -0.85 1.4 -0.8 1.3 -0.85 1.3 -0.95 1.4 -1.05 1.55 -1.05 1.6 -1.1 1.6 -1.1 1.55 -1.1 1.5 -1.15 1.5 -1.2 1.55 -1.2 1.5 Q-1.15 1.5 -1.2 1.45 L-1.15 1.4 -1.1 1.4 -1.05 1.35 -1.05 1.4 -1.1 1.45 -1.0 1.35 -0.9 1.25 -0.9 1.1 -0.9 1.2" fill="#dbcd4f" fill-rule="evenodd" stroke="none"/>
    <path d="M-1.55 0.15 L-1.55 0.25 -1.4 0.2 -1.2 0.15 -1.2 0.2 -1.1 0.2 -1.1 0.25 -1.1 0.35 -1.15 0.35 -1.2 0.35 -1.25 0.4 -1.25 0.45 -1.3 0.45 Q-1.4 0.35 -1.55 0.35 L-1.55 0.4 Q-1.55 0.35 -1.6 0.35 L-1.65 0.4 -1.75 0.4 -1.9 0.4 -1.95 0.4 -1.85 0.35 -1.75 0.35 -1.65 0.3 -1.5 0.3 Q-1.5 0.25 -1.55 0.25 L-1.6 0.2 Q-1.6 0.15 -1.55 0.15" fill="#e3cc35" fill-rule="evenodd" stroke="none"/>
    <path d="M-1.4 1.2 L-1.45 1.35 -1.5 1.3 -1.45 1.25 -1.4 1.15 Q-1.35 1.05 -1.4 1.0 L-1.3 0.95 -1.3 0.85 -1.4 0.75 -1.4 0.65 -1.45 0.55 -1.4 0.5 -1.35 0.5 -1.25 0.6 Q-1.25 0.65 -1.25 0.75 L-1.3 0.85 -1.3 0.9 -1.35 1.05 -1.4 1.2" fill="#ffff92" fill-rule="evenodd" stroke="none"/>
    <path d="M-1.4 0.65 L-1.45 0.55 -1.4 0.45 Q-1.35 0.45 -1.3 0.5 L-1.25 0.6 -1.35 0.5 -1.4 0.5 -1.45 0.55 -1.4 0.65" fill="#ffffc1" fill-rule="evenodd" stroke="none"/>
    <path d="M-1.2 0.85 L-1.25 1.0 -1.4 1.2 -1.35 1.05 -1.3 0.9 -1.25 0.75 Q-1.25 0.65 -1.25 0.6 L-1.3 0.5 Q-1.35 0.45 -1.4 0.45 L-1.45 0.55 -1.4 0.65 -1.4 0.75 -1.5 0.6 -1.55 0.5 -1.55 0.4 -1.55 0.35 Q-1.4 0.35 -1.3 0.45 L-1.2 0.6 Q-1.2 0.7 -1.2 0.85" fill="#fefef1" fill-rule="evenodd" stroke="none"/>
    <path d="M-2.2 0.25 L-2.2 0.0 -2.0 0.0 -1.85 0.0 -1.8 0.05 -1.8 0.15 -1.75 0.2 -1.95 0.25 -2.2 0.25" fill="#cca813" fill-rule="evenodd" stroke="none"/>
    <path d="M-1.9 0.4 L-1.75 0.4 -1.65 0.4 -1.6 0.35 Q-1.55 0.35 -1.55 0.4 L-1.55 0.5 -1.7 0.55 -1.85 0.65 -1.8 0.5 Q-1.8 0.45 -1.9 0.4" fill="#e0c616" fill-rule="evenodd" stroke="none"/>
    <path d="M-2.2 0.45 L-2.2 0.35 -1.95 0.3 -1.7 0.3 -1.75 0.3 -1.75 0.35 -1.85 0.35 -1.95 0.4 -1.9 0.4 Q-1.8 0.45 -1.8 0.5 L-1.85 0.65 -1.9 0.65 -1.9 0.65 -1.95 0.65 -1.9 0.55 -1.9 0.45 -2.05 0.45 -2.2 0.45" fill="#d3b115" fill-rule="evenodd" stroke="none"/>
    <path d="M-2.2 0.7 L-2.2 0.45 -2.05 0.45 -1.9 0.45 -1.9 0.55 -1.95 0.65 -2.0 0.65 -2.1 0.65 -2.15 0.7 -2.2 0.7" fill="#c79915" fill-rule="evenodd" stroke="none"/>
    <path d="M-1.85 0.65 L-1.7 0.55 -1.55 0.5 -1.5 0.6 -1.4 0.75 -1.3 0.85 -1.35 0.85 -1.4 0.85 -1.45 0.8 -1.7 0.7 -2.0 0.65 -1.95 0.65 -1.9 0.65 -1.9 0.65 -1.85 0.65" fill="#e7d228" fill-rule="evenodd" stroke="none"/>
    <path d="M-2.2 0.7 L-2.2 0.7 -2.15 0.7 Q-2.15 0.7 -2.1 0.7 L-2.05 0.7 -1.85 0.7 -1.7 0.75 Q-1.75 0.8 -1.7 0.85 L-1.6 0.85 -1.5 0.85 Q-1.45 0.85 -1.5 0.9 L-1.4 0.9 -1.35 0.85 -1.3 0.85 -1.3 0.95 -1.4 1.0 Q-1.35 1.05 -1.4 1.15 L-1.45 1.25 -1.5 1.3 -1.45 1.35 -1.5 1.4 -1.55 1.4 -1.5 1.3 -1.5 1.2 -1.45 1.15 -1.45 1.1 -1.4 1.0 Q-1.4 0.95 -1.45 0.95 L-1.5 0.95 -1.55 0.9 -1.65 0.85 -1.7 0.85 -1.75 0.85 Q-1.75 0.8 -1.75 0.8 L-1.85 0.75 -2.0 0.75 -2.2 0.7" fill="#fbf764" fill-rule="evenodd" stroke="none"/>
    <path d="M-1.35 0.85 L-1.4 0.9 -1.5 0.9 Q-1.45 0.85 -1.5 0.85 L-1.6 0.85 -1.7 0.85 Q-1.75 0.8 -1.7 0.75 L-1.85 0.7 -2.05 0.7 -2.1 0.7 Q-2.15 0.7 -2.15 0.7 L-2.1 0.65 -2.0 0.7 -1.9 0.7 -1.45 0.8 -1.4 0.85 -1.35 0.85" fill="#fefe9a" fill-rule="evenodd" stroke="none"/>
    <path d="M-2.2 0.75 L-2.2 0.7 -2.0 0.75 -1.85 0.75 -1.75 0.8 Q-1.75 0.8 -1.75 0.85 L-1.7 0.85 -1.65 0.85 -1.55 0.9 -1.65 0.95 Q-1.65 0.9 -1.75 0.9 L-1.85 1.0 -1.9 1.0 -1.9 1.0 -1.85 0.95 -1.8 0.9 -1.8 0.9 -1.9 0.95 -2.05 1.0 Q-2.0 0.95 -1.9 0.9 L-1.8 0.8 -1.95 0.75 -2.05 0.75 -2.2 0.75" fill="#e3d456" fill-rule="evenodd" stroke="none"/>
    <path d="M-2.0 0.65 L-1.7 0.7 -1.45 0.8 -1.9 0.7 -2.0 0.7 -2.1 0.65 -2.0 0.65" fill="#fefeef" fill-rule="evenodd" stroke="none"/>
    <path d="M-2.05 0.75 L-1.95 0.75 -1.8 0.8 -1.9 0.9 Q-2.0 0.95 -2.05 1.0 L-1.9 0.95 -1.8 0.9 -1.8 0.9 -1.85 0.95 -1.9 1.0 -1.9 1.0 -2.0 1.05 -2.1 1.1 -2.1 1.05 -2.05 1.05 -2.1 1.05 -2.1 1.0 -2.05 0.95 -1.95 0.85 -1.85 0.8 -1.95 0.8 -2.05 0.75" fill="#d2ba3e" fill-rule="evenodd" stroke="none"/>
    <path d="M-2.2 1.1 L-2.2 1.05 -2.15 1.0 -2.15 1.0 -2.1 0.95 -2.1 0.95 -2.05 0.85 -2.05 0.8 Q-2.05 0.8 -2.1 0.8 L-2.2 0.75 -2.05 0.75 -1.95 0.8 -1.85 0.8 -1.95 0.85 -2.05 0.95 -2.1 1.0 -2.1 1.05 -2.05 1.05 -2.1 1.05 -2.1 1.1 -2.0 1.05 -1.9 1.0 -1.85 1.0 -1.8 1.0 -1.8 1.05 -1.85 1.05 -1.9 1.1 -1.95 1.15 -2.0 1.2 -1.9 1.2 -1.8 1.15 -1.75 1.1 -1.7 1.1 Q-1.65 1.1 -1.65 1.15 L-1.7 1.25 -1.75 1.3 -1.75 1.35 -1.7 1.3 -1.6 1.2 Q-1.55 1.25 -1.55 1.3 L-1.55 1.4 -1.5 1.4 Q-1.5 1.4 -1.45 1.45 L-1.35 1.45 -1.35 1.45 -1.3 1.45 -1.35 1.5 -1.35 1.6 Q-1.3 1.6 -1.25 1.55 L-1.2 1.45 Q-1.15 1.5 -1.2 1.5 L-1.2 1.55 -1.15 1.5 -1.1 1.5 -1.1 1.55 -1.1 1.6 -1.1 1.65 -1.15 1.7 -1.2 1.65 -1.15 1.65 -1.15 1.55 -1.2 1.6 -1.2 1.6 -1.2 1.65 -1.25 1.6 -1.25 1.55 -1.35 1.65 -1.4 1.65 -1.4 1.6 -1.35 1.55 -1.45 1.55 Q-1.5 1.55 -1.5 1.5 -1.5 1.45 -1.6 1.45 -1.65 1.5 -1.65 1.5 L-1.65 1.55 Q-1.7 1.55 -1.7 1.5 L-1.6 1.4 -1.65 1.35 -1.65 1.3 Q-1.7 1.3 -1.8 1.35 L-1.9 1.45 -1.85 1.35 Q-1.75 1.3 -1.75 1.25 L-1.8 1.25 -1.85 1.2 -1.95 1.25 -2.05 1.25 -2.05 1.15 -2.1 1.15 -2.15 1.15 -2.15 1.1 -2.2 1.1 M-2.2 0.75 L-2.2 0.75" fill="#c0a134" fill-rule="evenodd" stroke="none"/>
    <path d="M-1.85 1.0 L-1.75 0.9 Q-1.65 0.9 -1.65 0.95 L-1.7 1.0 -1.75 1.05 -1.85 1.1 -1.8 1.15 -1.9 1.2 -2.0 1.2 -1.95 1.15 -1.9 1.1 -1.85 1.05 -1.8 1.05 -1.8 1.0 -1.85 1.0" fill="#d5c042" fill-rule="evenodd" stroke="none"/>
    <path d="M-2.2 1.65 L-2.2 1.6 -2.05 1.5 -1.95 1.4 -1.9 1.4 -1.85 1.35 -1.9 1.3 -1.95 1.25 -1.85 1.2 -1.8 1.25 -1.75 1.25 Q-1.75 1.3 -1.85 1.35 L-1.9 1.45 -1.8 1.35 Q-1.7 1.3 -1.65 1.3 L-1.65 1.35 -1.6 1.4 -1.7 1.5 -1.7 1.45 -1.75 1.45 -1.75 1.4 -1.8 1.45 -1.85 1.45 -2.0 1.55 -2.2 1.65 M-2.2 1.4 L-2.2 1.3 -2.1 1.25 -2.05 1.2 -2.1 1.2 -2.2 1.15 -2.2 1.1 -2.15 1.1 -2.15 1.15 -2.1 1.15 -2.05 1.15 -2.05 1.25 -1.95 1.25 -2.1 1.3 -2.2 1.4" fill="#9d7421" fill-rule="evenodd" stroke="none"/>
    <path d="M-1.65 0.95 L-1.55 0.9 -1.5 0.95 -1.55 1.0 -1.65 1.0 -1.75 1.1 -1.8 1.15 -1.85 1.1 -1.75 1.05 -1.7 1.0 -1.65 0.95" fill="#e6dc76" fill-rule="evenodd" stroke="none"/>
    <path d="M-1.5 0.95 L-1.45 0.95 Q-1.4 0.95 -1.4 1.0 L-1.45 1.1 -1.55 1.15 -1.7 1.25 -1.65 1.15 Q-1.65 1.1 -1.7 1.1 L-1.75 1.1 -1.8 1.15 -1.75 1.1 -1.65 1.0 -1.55 1.0 -1.5 0.95" fill="#dbc940" fill-rule="evenodd" stroke="none"/>
    <path d="M-1.25 0.6 Q-1.25 0.65 -1.25 0.75 L-1.3 0.9 -1.3 0.85 -1.25 0.75 Q-1.25 0.65 -1.25 0.6" fill="#ffffbc" fill-rule="evenodd" stroke="none"/>
    <path d="M-1.45 1.15 L-1.6 1.2 -1.7 1.3 -1.75 1.35 -1.75 1.3 -1.7 1.25 -1.55 1.15 -1.45 1.1 -1.45 1.15" fill="#e0d46e" fill-rule="evenodd" stroke="none"/>
    <path d="M-1.3 1.45 L-1.25 1.4 -1.2 1.35 -1.1 1.35 -1.15 1.4 -1.2 1.45 -1.25 1.55 Q-1.3 1.6 -1.35 1.6 L-1.35 1.5 -1.3 1.45" fill="#d8d068" fill-rule="evenodd" stroke="none"/>
    <path d="M-1.65 1.5 Q-1.65 1.5 -1.6 1.45 -1.5 1.45 -1.5 1.5 -1.5 1.55 -1.45 1.55 L-1.35 1.55 -1.4 1.6 -1.4 1.55 Q-1.4 1.55 -1.45 1.55 L-1.6 1.6 -1.6 1.5 -1.65 1.5" fill="#a5821a" fill-rule="evenodd" stroke="none"/>
    <path d="M-1.4 1.6 L-1.4 1.65 -1.35 1.65 -1.4 1.7 -1.45 1.8 -1.5 1.85 -1.65 1.85 -1.55 1.75 -1.4 1.6" fill="#a8953c" fill-rule="evenodd" stroke="none"/>
    <path d="M-1.35 1.65 L-1.25 1.55 -1.25 1.6 -1.3 1.7 -1.4 1.8 Q-1.4 1.75 -1.4 1.8 L-1.45 1.8 -1.4 1.7 -1.35 1.65" fill="#8d6a0e" fill-rule="evenodd" stroke="none"/>
    <path d="M-1.65 1.5 L-1.6 1.5 -1.6 1.6 -1.45 1.55 Q-1.4 1.55 -1.4 1.55 L-1.4 1.6 -1.55 1.75 -1.65 1.85 -1.65 1.55 -1.7 1.55 -1.65 1.55 -1.65 1.5" fill="#8d630e" fill-rule="evenodd" stroke="none"/>
    <path d="M-1.45 2.2 L-1.75 2.2 -1.65 2.05 -1.6 1.95 -1.5 1.85 -1.45 1.8 -1.4 1.8 Q-1.4 1.75 -1.4 1.8 L-1.45 1.85 -1.5 1.95 -1.5 1.95 -1.45 1.95 -1.2 1.65 -1.2 1.6 -1.15 1.6 -1.3 1.8 -1.45 2.0 -1.45 2.1 Q-1.35 2.05 -1.3 1.95 L-1.25 1.85 -1.2 1.8 -1.2 1.95 Q-1.25 1.95 -1.3 2.0 L-1.4 2.1 -1.45 2.2" fill="#6f4d12" fill-rule="evenodd" stroke="none"/>
    <path d="M-1.25 1.6 L-1.2 1.65 -1.45 1.95 -1.5 1.95 -1.5 1.95 -1.45 1.85 -1.4 1.8 -1.3 1.7 -1.25 1.6" fill="#9c7f2b" fill-rule="evenodd" stroke="none"/>
    <path d="M-0.6 2.2 L-0.8 2.2 -0.8 2.05 -0.75 1.9 -0.7 1.8 Q-0.7 1.75 -0.75 1.75 L-0.8 1.75 -0.85 1.85 -0.9 1.9 -0.95 2.0 -0.9 1.85 -0.85 1.7 Q-0.85 1.65 -0.9 1.65 L-0.95 1.7 -0.95 1.75 -1.0 1.75 -1.0 1.8 -1.05 1.9 -1.1 1.95 -1.15 1.95 -1.1 1.9 -1.1 1.85 -1.05 1.85 -1.05 1.75 -1.0 1.7 -1.05 1.65 -1.1 1.65 -1.1 1.6 -1.05 1.6 -1.0 1.6 -0.95 1.65 -0.85 1.6 Q-0.8 1.6 -0.8 1.7 L-0.75 1.65 -0.7 1.75 -0.65 1.75 -0.6 1.75 -0.55 1.8 -0.55 1.9 -0.55 1.8 Q-0.55 1.75 -0.6 1.8 -0.65 1.8 -0.65 1.85 L-0.65 1.9 -0.7 2.0 -0.65 1.95 -0.6 1.9 -0.6 2.15 -0.6 2.2 M-0.95 2.0 L-0.95 2.0 M-0.6 1.7 L-0.6 1.75 -0.6 1.7" fill="#9a7918" fill-rule="evenodd" stroke="none"/>
    <path d="M-1.15 1.7 L-1.1 1.65 -1.05 1.65 -1.0 1.7 -1.05 1.75 -1.05 1.85 -1.1 1.8 -1.1 1.8 -1.15 1.8 -1.15 1.75 -1.2 1.8 -1.15 1.7" fill="#80460d" fill-rule="evenodd" stroke="none"/>
    <path d="M-1.2 1.6 L-1.2 1.6 -1.15 1.55 -1.15 1.65 -1.2 1.65 -1.15 1.7 -1.2 1.8 -1.25 1.85 -1.3 1.95 Q-1.35 2.05 -1.45 2.1 L-1.45 2.0 -1.3 1.8 -1.15 1.6 -1.2 1.6 M-1.2 1.8 L-1.2 1.8" fill="#957727" fill-rule="evenodd" stroke="none"/>
    <path d="M-1.3 2.2 L-1.45 2.2 -1.4 2.1 -1.3 2.0 Q-1.25 1.95 -1.2 1.95 L-1.2 1.8 -1.15 1.75 -1.15 1.8 -1.1 1.8 -1.1 1.8 -1.05 1.85 -1.1 1.85 -1.1 1.9 -1.15 1.95 -1.2 2.1 -1.3 2.2 M-1.2 1.8 L-1.2 1.8" fill="#5d360a" fill-rule="evenodd" stroke="none"/>
    <path d="M-1.05 1.6 L-1.05 1.55 -0.95 1.55 -0.95 1.55 -0.9 1.6 -0.85 1.55 -0.8 1.55 Q-0.75 1.55 -0.8 1.6 L-0.75 1.65 -0.65 1.65 -0.65 1.7 Q-0.65 1.75 -0.6 1.75 L-0.65 1.75 -0.7 1.75 -0.75 1.65 -0.8 1.7 Q-0.8 1.6 -0.85 1.6 L-0.95 1.65 -1.0 1.6 -1.05 1.6" fill="#bda423" fill-rule="evenodd" stroke="none"/>
    <path d="M-2.2 1.7 L-2.2 1.65 -2.0 1.55 -1.85 1.45 -1.8 1.45 -1.75 1.4 -1.75 1.45 -1.7 1.45 -1.7 1.5 -1.85 1.6 -2.0 1.75 Q-2.0 1.7 -2.05 1.7 L-2.15 1.7 -2.2 1.7" fill="#62340d" fill-rule="evenodd" stroke="none"/>
    <path d="M-1.7 1.5 Q-1.7 1.55 -1.65 1.55 L-1.7 1.55 -1.75 1.6 -1.85 1.7 -1.95 1.8 -2.0 1.75 -1.85 1.6 -1.7 1.5" fill="#9c751d" fill-rule="evenodd" stroke="none"/>
    <path d="M-1.95 1.25 L-1.9 1.3 -1.85 1.35 -1.9 1.4 -1.95 1.4 -2.0 1.3 -1.95 1.3 -1.95 1.25" fill="#865c1b" fill-rule="evenodd" stroke="none"/>
    <path d="M-2.2 1.6 L-2.2 1.4 -2.1 1.3 -1.95 1.25 -1.95 1.3 -2.0 1.3 -1.95 1.4 -2.05 1.5 -2.2 1.6" fill="#6c360d" fill-rule="evenodd" stroke="none"/>
    <path d="M-2.0 1.75 L-1.95 1.8 -2.05 1.85 -2.1 1.95 -2.15 1.95 -2.1 1.85 -2.05 1.8 -2.0 1.75" fill="#7e5d15" fill-rule="evenodd" stroke="none"/>
    <path d="M-2.05 1.85 Q-1.95 1.9 -1.95 1.8 -1.9 1.8 -1.85 1.8 L-1.8 1.85 -1.75 1.85 -1.75 2.0 Q-1.8 1.95 -1.85 1.95 L-1.9 2.0 -2.0 1.95 -2.1 1.95 -2.15 1.95 -2.1 1.95 -2.05 1.85" fill="#321f0b" fill-rule="evenodd" stroke="none"/>
    <path d="M-1.95 1.8 L-1.85 1.7 -1.75 1.6 Q-1.7 1.65 -1.7 1.7 L-1.65 1.85 -1.7 1.9 -1.75 2.0 -1.75 1.85 -1.8 1.85 -1.85 1.8 Q-1.9 1.8 -1.95 1.8 -1.95 1.9 -2.05 1.85 L-1.95 1.8 M-1.75 2.0 L-1.75 2.0 -1.75 2.0" fill="#612f0c" fill-rule="evenodd" stroke="none"/>
    <path d="M-1.75 1.6 L-1.7 1.55 -1.65 1.55 -1.65 1.85 -1.65 1.85 -1.7 1.9 -1.65 1.85 -1.7 1.7 Q-1.7 1.65 -1.75 1.6" fill="#784c0c" fill-rule="evenodd" stroke="none"/>
    <path d="M-1.75 2.2 L-1.9 2.2 -1.8 2.1 -1.75 2.0 -1.75 2.0 -1.7 2.0 -1.65 2.0 -1.65 1.95 -1.6 1.95 -1.65 2.05 -1.75 2.2" fill="#726223" fill-rule="evenodd" stroke="none"/>
    <path d="M-1.5 1.85 L-1.6 1.95 -1.65 1.95 -1.65 2.0 -1.7 2.0 -1.75 2.0 -1.7 1.9 -1.65 1.85 -1.65 1.85 -1.5 1.85" fill="#8b7b34" fill-rule="evenodd" stroke="none"/>
    <path d="M-1.9 2.2 L-2.2 2.2 -2.2 2.0 -2.15 1.95 -2.1 1.95 -2.0 1.95 -1.9 2.0 -1.85 1.95 Q-1.8 1.95 -1.75 2.0 L-1.75 2.0 -1.9 2.2" fill="#130b08" fill-rule="evenodd" stroke="none"/>
    <path d="M-1.9 2.2 L-1.9 2.2 -1.75 2.0 -1.8 2.1 -1.9 2.2" fill="#4c330b" fill-rule="evenodd" stroke="none"/>
    <path d="M-0.8 2.2 L-1.05 2.2 -1.05 2.1 -1.1 2.05 -1.1 2.0 -1.15 2.0 -1.1 2.05 -1.15 2.05 -1.2 2.1 -1.2 2.2 -1.3 2.2 -1.2 2.1 -1.15 1.95 -1.1 1.95 -1.05 1.9 -1.0 1.8 -1.0 1.75 -0.95 1.75 -0.95 1.7 -0.9 1.65 Q-0.85 1.65 -0.85 1.7 L-0.9 1.85 -0.95 2.0 -1.05 2.1 -1.05 2.15 -1.0 2.15 -0.95 2.05 -0.95 2.0 -0.85 1.9 -0.85 1.85 -0.8 1.8 -0.75 1.8 -0.75 1.85 -0.75 1.9 -0.8 2.05 -0.8 2.2" fill="#73460d" fill-rule="evenodd" stroke="none"/>
    <path d="M-1.05 2.2 L-1.2 2.2 -1.2 2.1 -1.15 2.05 -1.1 2.05 -1.15 2.0 -1.1 2.0 -1.1 2.05 -1.05 2.1 -1.05 2.2" fill="#593608" fill-rule="evenodd" stroke="none"/>
    <path d="M-0.95 2.0 L-0.95 2.0 -0.95 2.05 -1.0 2.15 -1.05 2.15 -1.05 2.1 -0.95 2.0" fill="#84661e" fill-rule="evenodd" stroke="none"/>
    <path d="M-0.8 1.25 L-0.75 1.25 -0.7 1.25 Q-0.65 1.25 -0.7 1.3 L-0.7 1.35 -0.6 1.4 -0.6 1.5 -0.6 1.55 -0.55 1.55 -0.5 1.45 -0.5 1.5 Q-0.4 1.45 -0.45 1.55 L-0.5 1.65 -0.45 1.6 -0.5 1.5 -0.55 1.6 -0.6 1.65 -0.65 1.6 -0.6 1.55 -0.6 1.55 -0.65 1.5 -0.65 1.45 -0.7 1.4 -0.7 1.4 Q-0.75 1.35 -0.75 1.35 -0.75 1.3 -0.8 1.25 M-0.6 1.65 L-0.6 1.65" fill="#e3da5b" fill-rule="evenodd" stroke="none"/>
    <path d="M-0.4 2.2 L-0.45 2.2 -0.45 2.1 -0.4 2.0 Q-0.4 1.85 -0.45 1.8 L-0.45 1.8 -0.5 1.8 -0.5 1.85 -0.55 1.75 -0.6 1.7 -0.6 1.65 -0.6 1.65 Q-0.55 1.65 -0.55 1.65 L-0.5 1.75 -0.5 1.75 -0.45 1.75 Q-0.4 1.65 -0.4 1.7 L-0.35 1.75 -0.4 1.8 -0.35 1.75 -0.3 1.7 Q-0.25 1.7 -0.25 1.8 L-0.3 1.9 -0.3 2.0 -0.3 1.95 Q-0.3 1.9 -0.35 1.95 L-0.4 2.05 -0.4 2.2" fill="#ceb523" fill-rule="evenodd" stroke="none"/>
    <path d="M-0.45 2.2 L-0.6 2.2 -0.6 2.15 -0.6 2.15 -0.55 1.95 -0.5 1.8 -0.45 1.8 -0.45 1.8 Q-0.4 1.85 -0.4 2.0 L-0.45 2.1 -0.45 2.2" fill="#b49311" fill-rule="evenodd" stroke="none"/>
    <path d="M-0.8 1.6 L-0.7 1.5 -0.65 1.5 -0.6 1.55 -0.6 1.55 -0.65 1.6 -0.6 1.65 -0.6 1.7 -0.6 1.75 Q-0.65 1.75 -0.65 1.7 L-0.65 1.65 -0.75 1.65 -0.8 1.6 M-0.6 1.7 L-0.6 1.7" fill="#d5c038" fill-rule="evenodd" stroke="none"/>
    <path d="M-1.05 1.55 L-0.95 1.4 -0.85 1.3 -0.8 1.3 -0.85 1.4 -0.9 1.45 -0.9 1.5 -0.95 1.55 -1.05 1.55" fill="#d7c12f" fill-rule="evenodd" stroke="none"/>
    <path d="M-0.95 2.0 L-0.9 1.9 -0.85 1.85 -0.8 1.75 -0.75 1.75 Q-0.7 1.75 -0.7 1.8 L-0.75 1.9 -0.75 1.85 -0.75 1.8 -0.8 1.8 -0.85 1.85 -0.85 1.9 -0.95 2.0" fill="#85630b" fill-rule="evenodd" stroke="none"/>
    <path d="M-0.6 1.7 L-0.55 1.75 -0.5 1.85 -0.5 1.8 -0.55 1.95 -0.6 2.15 -0.6 2.15 -0.6 1.9 -0.55 1.9 -0.55 1.8 -0.6 1.75 -0.6 1.7 -0.6 1.7" fill="#bba425" fill-rule="evenodd" stroke="none"/>
    <path d="M-0.6 1.9 L-0.65 1.95 -0.7 2.0 -0.65 1.9 -0.65 1.85 Q-0.65 1.8 -0.6 1.8 -0.55 1.75 -0.55 1.8 L-0.55 1.9 -0.6 1.9" fill="#81600c" fill-rule="evenodd" stroke="none"/>
    <path d="M-0.05 2.2 L-0.4 2.2 -0.4 2.05 -0.35 1.95 Q-0.3 1.9 -0.3 1.95 L-0.3 2.0 -0.3 2.1 -0.25 2.1 -0.25 2.0 Q-0.2 1.95 -0.15 1.95 L-0.05 1.95 Q-0.05 2.0 -0.05 2.05 L-0.05 2.2" fill="#b79012" fill-rule="evenodd" stroke="none"/>
    <path d="M-2.2 1.05 L-2.2 0.75 -2.1 0.8 Q-2.05 0.8 -2.05 0.8 L-2.05 0.85 -2.1 0.95 -2.1 0.95 -2.15 1.0 -2.15 1.0 -2.2 1.05" fill="#a97729" fill-rule="evenodd" stroke="none"/>
    <path d="M-2.2 1.3 L-2.2 1.15 -2.1 1.2 -2.05 1.2 -2.1 1.25 -2.2 1.3" fill="#703f0e" fill-rule="evenodd" stroke="none"/>
    <path d="M-2.2 2.0 L-2.2 1.7 -2.15 1.7 -2.05 1.7 Q-2.0 1.7 -2.0 1.75 L-2.05 1.8 -2.1 1.85 -2.15 1.95 -2.1 1.95 -2.15 1.95 -2.2 2.0" fill="#4c2a0d" fill-rule="evenodd" stroke="none"/>
  </g>
</svg>
