<?xml version="1.0" encoding="UTF-8" standalone="no"?>
<svg xmlns:xlink="http://www.w3.org/1999/xlink" height="75.15px" width="66.15px" xmlns="http://www.w3.org/2000/svg">
  <g transform="matrix(1.0, 0.0, 0.0, 1.0, 38.95, 4.25)">
    <path d="M0.35 -3.85 L0.35 -2.8 0.4 -2.65 0.45 -2.4 0.5 -2.1 0.5 -1.95 0.55 -1.85 0.5 -1.75 0.45 -1.7 Q0.5 -1.5 0.5 -1.05 L0.5 -0.85 0.55 -0.75 0.55 -0.55 0.5 -0.1 0.5 0.3 0.45 0.7 0.45 0.75 0.5 0.95 0.5 1.25 0.55 1.3 0.55 1.7 0.5 2.0 0.45 2.1 0.5 2.15 0.55 2.45 0.5 2.8 0.45 2.85 0.45 3.1 Q0.55 3.2 0.5 3.4 L0.45 3.95 0.45 4.05 0.5 4.15 Q0.6 4.2 0.65 4.35 L0.65 4.7 0.6 5.15 0.6 5.3 Q0.75 5.35 0.7 5.55 L0.7 5.7 0.65 5.95 0.6 6.15 0.5 6.3 0.45 6.4 0.35 6.45 0.2 6.4 0.1 6.45 -0.15 6.45 -0.2 6.4 Q-0.25 6.55 -0.45 6.55 L-0.65 6.5 -0.95 6.55 -1.1 6.55 -1.1 6.55 Q-1.25 6.7 -1.4 6.7 L-1.55 6.65 -1.65 6.7 Q-1.7 6.75 -1.75 6.75 L-1.85 6.75 -1.9 6.8 -1.95 6.9 Q-2.0 7.0 -2.1 7.0 L-2.2 7.0 Q-2.25 6.95 -2.3 6.95 L-2.35 7.0 -2.65 7.2 -2.7 7.15 -2.9 7.35 Q-3.15 7.45 -3.4 7.45 L-3.5 7.45 Q-3.6 7.65 -3.7 7.65 L-3.8 7.6 -3.9 7.5 -4.0 7.55 Q-4.15 7.55 -4.15 7.35 L-4.1 7.25 -4.2 7.1 Q-4.3 7.05 -4.35 6.85 L-4.3 6.75 -4.3 6.7 Q-4.5 6.7 -4.5 6.55 -4.5 6.5 -4.45 6.45 -4.35 6.4 -4.35 6.35 L-4.4 6.3 -4.4 6.2 -4.45 6.15 -4.5 6.15 -4.65 6.05 Q-4.8 6.3 -5.0 6.3 L-5.1 6.2 -5.2 6.3 -5.35 6.35 -5.35 6.45 Q-5.4 6.5 -5.5 6.5 L-5.6 6.5 -5.65 6.55 Q-5.75 6.6 -5.8 6.6 L-5.9 6.55 -5.9 6.55 Q-5.9 6.75 -6.25 6.75 L-6.45 6.65 Q-6.5 6.9 -6.7 6.9 -6.75 6.9 -6.8 6.85 -6.85 7.0 -6.95 7.0 L-6.95 7.1 Q-6.75 7.25 -6.75 7.35 -6.75 7.55 -7.45 7.55 -7.65 7.55 -7.75 7.4 L-7.8 7.15 Q-7.8 6.95 -7.7 6.9 L-7.75 6.85 -7.8 6.75 -7.75 6.7 -7.7 6.65 Q-7.6 6.6 -7.6 6.6 L-7.6 6.5 Q-7.55 6.4 -7.45 6.4 L-7.4 6.4 -7.4 6.25 Q-7.35 6.2 -7.25 6.2 L-7.2 6.2 Q-7.1 6.15 -7.05 6.15 L-7.0 6.15 -7.0 6.15 -6.95 5.95 Q-6.9 5.9 -6.75 6.1 L-6.6 6.1 -6.6 6.1 -6.55 6.0 Q-6.5 5.95 -6.45 5.95 L-6.35 5.95 -6.25 5.9 -6.2 5.95 -6.2 5.9 Q-6.2 5.75 -5.95 5.75 L-5.9 5.7 -5.75 5.65 -5.7 5.7 -5.65 5.55 -5.55 5.5 -5.45 5.5 -5.3 5.4 Q-5.25 5.4 -5.15 5.45 -5.1 5.15 -5.0 5.15 L-4.8 5.2 -4.65 5.15 Q-4.5 5.15 -4.5 5.3 L-4.4 5.25 Q-4.25 5.15 -4.2 5.3 L-4.0 5.4 Q-4.0 5.4 -4.0 5.5 L-4.0 5.65 -3.9 5.75 Q-3.7 5.8 -3.7 5.95 -3.7 6.05 -3.8 6.15 L-3.85 6.15 -3.7 6.25 -3.7 6.35 -3.65 6.45 -3.6 6.55 -3.6 6.6 Q-3.5 6.65 -3.5 6.8 L-3.55 6.9 -3.45 6.85 -3.2 6.8 Q-3.05 6.65 -2.95 6.65 -2.9 6.5 -2.7 6.35 L-2.45 6.35 -2.15 6.1 Q-2.1 6.05 -2.0 6.15 L-1.9 6.2 -1.8 6.15 -1.4 6.05 -1.15 6.05 -1.05 6.0 -0.65 5.95 Q-0.55 5.95 -0.45 6.05 L-0.25 6.0 0.1 5.95 0.15 5.5 0.05 5.3 0.0 5.1 0.05 4.95 0.0 4.8 Q0.0 4.7 0.05 4.65 L0.05 4.55 0.0 4.4 Q-0.1 4.3 -0.2 3.9 -0.2 3.35 -0.05 3.25 L-0.05 2.95 Q-0.05 2.75 -0.1 2.7 L-0.2 2.55 -0.15 2.4 -0.1 2.35 -0.05 2.1 0.0 1.95 0.05 1.9 0.05 1.7 -0.05 1.6 -0.05 1.4 Q-0.05 1.25 0.05 1.25 L0.0 1.15 -0.1 1.1 -0.1 0.9 -0.05 0.65 -0.1 0.4 -0.15 -0.1 -0.1 -0.2 -0.1 -0.3 -0.15 -0.8 -0.2 -0.95 -0.2 -1.5 -0.2 -1.55 -0.25 -1.7 -0.25 -2.0 -0.3 -2.3 Q-0.3 -2.45 -0.35 -2.5 L-0.4 -2.6 -0.35 -2.65 -0.45 -2.75 -0.55 -3.15 -0.55 -4.15 Q-0.5 -4.25 -0.15 -4.25 L0.2 -4.2 Q0.3 -4.15 0.35 -3.85" fill="#ffb500" fill-rule="evenodd" stroke="none"/>
    <path d="M-11.7 -1.45 Q-11.7 -2.7 -10.7 -2.5 -10.35 -2.4 -10.05 -2.15 -9.7 -1.9 -9.7 -1.7 -9.7 -1.65 -9.8 -1.5 L-9.85 -1.3 -9.8 -1.15 -9.75 -1.05 -9.8 -0.9 Q-9.5 -0.75 -9.5 -0.05 -9.5 0.15 -9.65 0.35 L-9.8 0.45 Q-9.05 0.6 -9.05 1.0 -9.05 1.15 -9.25 1.35 -9.1 1.5 -9.1 1.8 -9.1 2.15 -9.25 2.4 -9.55 2.8 -10.2 2.8 L-10.7 2.75 Q-10.7 2.9 -11.05 3.2 -11.45 3.55 -11.7 3.55 -11.9 3.55 -12.1 3.45 -12.1 3.75 -12.3 3.85 -12.5 3.95 -13.0 3.95 L-13.15 3.95 -13.3 4.15 -13.2 4.25 Q-13.05 4.35 -13.05 4.5 L-13.35 4.85 -13.3 4.85 Q-13.0 4.9 -12.7 5.1 -12.45 5.35 -12.45 5.6 -12.45 5.9 -12.65 6.0 L-12.75 6.05 Q-12.45 6.15 -12.45 6.5 -12.45 6.6 -12.8 7.0 -13.2 7.4 -13.35 7.4 L-13.4 7.4 -13.8 7.8 Q-14.25 8.2 -14.4 8.2 L-14.85 8.1 -15.1 8.4 Q-15.4 8.7 -15.7 8.8 -15.8 8.95 -16.3 9.35 L-17.0 9.85 -17.2 9.8 -17.45 10.2 Q-17.85 10.7 -18.05 10.7 L-18.15 10.7 Q-18.15 10.9 -18.35 11.2 -18.6 11.6 -18.95 11.6 L-19.05 11.6 -19.2 11.85 Q-19.4 12.1 -19.7 12.1 L-19.7 12.2 Q-19.7 12.4 -20.05 13.0 -20.35 13.6 -20.7 13.7 -20.5 13.95 -20.5 14.3 -20.5 14.7 -20.9 14.9 L-21.15 15.0 Q-21.05 15.2 -21.05 15.45 L-20.9 15.45 Q-20.75 15.25 -20.4 15.2 -20.3 14.75 -19.5 14.45 L-19.2 14.4 Q-19.0 13.95 -18.4 13.65 L-18.35 13.6 Q-18.2 12.75 -17.35 12.6 L-17.15 12.6 Q-17.1 12.35 -16.85 12.05 -16.6 11.7 -16.2 11.55 L-16.1 11.5 -16.1 11.4 Q-16.1 11.15 -15.8 10.9 -15.5 10.6 -15.1 10.5 L-14.75 10.45 Q-14.55 9.7 -13.8 9.7 L-13.75 9.7 Q-13.55 9.1 -12.8 8.9 L-12.1 8.95 Q-11.95 9.05 -11.85 9.15 L-11.75 9.15 Q-11.0 9.05 -11.0 10.2 L-11.0 10.6 Q-10.55 10.65 -10.4 11.0 -10.35 11.1 -10.35 11.45 -10.35 11.95 -10.5 12.35 -10.7 13.05 -11.2 13.05 -11.7 13.05 -11.9 12.65 -12.05 12.4 -12.05 12.25 L-12.0 11.25 -12.0 11.15 Q-12.3 11.05 -12.4 10.75 L-12.45 10.65 -12.85 10.75 Q-12.95 10.95 -13.25 11.2 -13.75 11.65 -14.2 11.7 L-14.45 12.0 Q-14.85 12.35 -15.25 12.35 L-15.3 12.35 Q-15.3 12.7 -15.55 13.0 -15.9 13.4 -16.35 13.45 -16.4 13.7 -16.7 14.05 -17.05 14.5 -17.55 14.6 -17.6 14.8 -17.65 14.95 -17.95 15.4 -18.65 15.4 L-18.8 15.65 Q-19.1 16.05 -19.6 16.05 L-19.75 16.05 -19.9 16.3 Q-20.15 16.75 -20.5 16.75 L-20.7 16.7 Q-20.9 17.05 -21.25 17.05 -21.65 17.05 -21.85 16.65 L-21.95 16.25 -21.95 16.15 Q-22.2 16.0 -22.4 15.6 -22.6 15.15 -22.6 14.9 -22.6 14.55 -22.4 14.4 L-22.45 14.25 Q-22.45 13.0 -21.45 13.2 L-21.45 13.0 Q-21.45 12.3 -20.6 11.7 L-20.5 11.7 -20.55 11.5 Q-20.55 11.2 -20.3 10.9 -20.1 10.65 -19.75 10.55 L-19.5 10.55 Q-19.4 9.8 -18.8 9.8 L-18.65 9.85 -18.65 9.65 Q-18.65 9.1 -17.85 8.85 L-17.6 8.8 -17.6 8.8 Q-17.6 8.6 -17.3 8.35 -16.95 8.1 -16.6 8.0 L-16.35 7.95 Q-16.2 7.8 -15.95 7.8 -15.7 6.85 -15.2 7.1 L-15.15 7.1 -15.05 6.95 -14.75 6.7 -14.5 6.5 -14.1 6.55 Q-14.1 6.25 -13.7 6.1 -14.0 6.05 -14.1 5.9 -14.2 5.85 -14.2 5.65 L-14.15 5.4 -15.15 5.25 -15.4 5.5 Q-15.75 5.75 -15.95 5.75 -16.1 5.75 -16.25 5.65 L-16.25 5.65 Q-16.25 5.8 -16.5 6.1 -16.75 6.45 -16.95 6.45 -17.0 6.45 -17.3 6.2 L-17.25 6.4 Q-17.25 6.65 -17.5 6.8 -17.7 6.95 -18.0 6.95 L-18.15 6.95 -18.1 7.25 Q-18.1 7.75 -19.15 7.75 L-19.4 7.75 -19.25 8.0 Q-19.05 8.15 -19.05 8.35 -19.05 8.6 -19.55 8.8 -20.05 9.0 -20.35 9.0 -20.4 9.3 -20.45 9.65 -20.5 9.8 -20.85 10.0 L-20.95 10.1 -20.95 10.3 Q-20.95 10.45 -21.45 10.8 -21.95 11.2 -22.2 11.2 L-22.4 11.2 -23.55 12.7 Q-25.2 14.75 -25.7 15.65 -25.8 15.8 -26.2 16.85 -26.45 17.6 -26.95 18.05 -27.45 18.5 -27.8 19.55 -28.1 20.3 -28.65 20.3 -28.9 20.3 -30.3 19.55 L-33.1 18.0 Q-34.2 17.4 -34.2 17.1 -34.2 16.95 -34.1 16.8 -34.0 16.65 -33.75 16.65 -33.55 16.65 -31.5 17.8 L-28.75 19.25 Q-28.65 18.75 -28.1 18.05 -27.35 17.15 -27.2 16.85 L-26.7 15.7 Q-26.4 14.9 -26.1 14.5 -24.75 12.45 -23.65 11.25 L-23.0 10.6 -23.05 10.4 Q-23.05 9.75 -22.05 9.65 -22.0 8.95 -21.2 8.45 L-21.0 8.35 -21.0 8.25 Q-21.0 8.1 -20.7 7.5 -20.35 6.75 -20.0 6.75 L-19.9 6.8 -19.65 6.55 Q-19.3 6.2 -19.05 6.25 L-19.0 6.25 -18.75 5.85 Q-18.4 5.35 -18.2 5.3 -18.05 5.3 -17.9 5.4 L-17.7 5.2 Q-17.4 4.95 -17.1 4.85 L-16.75 4.8 -16.75 4.7 Q-16.75 4.2 -16.15 4.2 -15.95 4.2 -15.75 4.3 L-15.75 4.3 -15.35 4.0 Q-15.4 3.85 -15.15 3.65 -14.95 3.45 -14.75 3.5 L-14.7 3.5 Q-14.45 3.25 -14.0 3.1 L-13.65 3.05 -13.55 2.9 Q-13.25 2.55 -12.95 2.4 L-12.35 2.4 Q-12.15 2.15 -11.6 2.05 L-11.0 2.1 -10.8 1.9 -10.4 1.65 Q-10.75 1.55 -10.9 1.4 -11.05 1.25 -11.05 1.0 -11.05 0.65 -10.8 0.5 L-11.0 0.4 Q-11.15 0.25 -11.15 0.05 -11.15 -0.15 -10.9 -0.45 L-10.85 -0.5 Q-11.25 -0.55 -11.5 -0.9 -11.7 -1.2 -11.7 -1.45" fill="#ffb500" fill-rule="evenodd" stroke="none"/>
    <path d="M-19.65 24.45 Q-19.8 24.85 -20.0 25.0 L-20.0 25.05 Q-20.0 27.15 -21.05 27.15 -21.5 27.15 -21.7 26.6 -21.8 26.25 -21.8 25.9 -21.8 24.3 -21.1 23.9 L-21.15 23.65 Q-21.35 23.9 -21.7 23.9 -21.85 23.9 -22.0 23.8 L-22.25 24.25 Q-22.5 24.7 -22.85 24.75 L-22.85 24.75 Q-22.85 25.3 -22.95 25.75 -23.15 26.5 -23.6 26.6 -23.6 26.75 -23.6 26.95 -23.6 27.15 -23.8 28.15 L-23.75 28.4 -23.7 28.7 Q-23.7 29.05 -23.9 29.25 L-24.0 29.35 Q-23.95 29.7 -23.95 30.2 L-23.95 30.9 Q-24.0 31.35 -24.3 31.5 L-24.2 31.8 Q-23.9 32.55 -23.9 33.45 -23.9 33.6 -24.15 33.95 -23.95 34.65 -23.95 35.6 -23.95 35.8 -24.0 35.95 -23.75 36.55 -23.75 37.55 -23.75 37.95 -23.95 38.1 L-24.0 38.15 Q-23.75 38.85 -23.75 39.9 L-23.75 40.7 Q-23.9 41.3 -24.5 41.3 L-24.8 41.25 Q-25.05 41.9 -25.7 41.9 -26.55 41.9 -26.85 41.25 L-26.95 40.75 Q-27.55 40.65 -27.75 39.65 L-27.9 38.55 Q-27.9 37.85 -27.65 37.5 L-27.8 37.2 Q-28.0 36.45 -28.0 36.1 -28.0 35.9 -28.15 35.3 L-28.25 34.7 Q-28.25 34.45 -28.15 34.3 L-28.25 34.15 Q-28.6 33.4 -28.6 33.1 -28.6 32.4 -28.3 31.85 -28.65 31.75 -28.95 31.45 L-29.15 31.2 Q-29.45 31.35 -29.8 31.35 L-29.85 32.35 -29.75 32.55 -29.65 33.05 -29.4 34.2 Q-29.35 34.4 -29.35 35.05 L-29.35 35.3 -29.3 35.7 Q-29.25 35.95 -29.0 36.55 -28.7 37.15 -28.7 37.45 -28.7 37.9 -28.85 38.25 L-29.05 38.55 Q-28.95 38.9 -28.95 39.35 -28.95 39.95 -29.45 40.45 -29.85 40.95 -30.35 40.95 -31.15 40.95 -31.45 40.45 -31.6 40.2 -31.65 39.95 -32.25 39.85 -32.55 39.3 -32.75 39.0 -32.75 38.65 -32.75 38.4 -32.6 38.15 -32.85 38.1 -33.0 37.85 L-33.05 37.45 Q-33.05 36.85 -32.55 36.4 -33.25 36.35 -33.25 35.5 -33.25 35.05 -33.05 34.7 L-33.05 34.7 Q-33.2 34.65 -33.3 34.6 L-33.65 34.75 Q-33.65 34.95 -33.75 35.2 -33.5 35.6 -33.5 36.05 -33.5 36.4 -33.65 36.75 -33.9 37.3 -34.5 37.3 L-34.65 37.3 Q-35.05 37.7 -35.45 37.7 -36.05 37.7 -36.45 37.0 L-36.95 37.05 -37.4 36.85 -37.85 36.9 -38.3 37.0 Q-38.7 37.0 -38.85 36.7 -38.95 36.55 -38.95 36.35 -38.95 35.95 -38.65 35.8 -38.3 35.6 -37.3 35.6 L-36.4 35.5 Q-36.05 35.3 -35.35 35.4 L-35.3 35.4 -35.25 35.05 -35.2 34.8 -35.3 34.4 -35.35 34.0 Q-35.35 33.35 -35.0 33.35 -34.8 32.65 -33.85 32.7 L-33.4 32.75 Q-33.15 32.4 -32.55 32.4 -32.15 32.4 -31.85 32.65 -31.55 32.9 -31.55 33.25 -31.55 33.85 -31.75 34.25 -31.15 34.3 -31.0 34.7 L-30.9 34.25 -30.8 33.8 -30.95 33.25 Q-31.1 33.2 -31.2 33.0 L-31.3 32.65 -31.25 32.35 -31.15 31.9 -31.25 31.2 Q-31.25 30.55 -30.75 30.45 -30.7 30.0 -30.4 29.65 -30.05 29.25 -29.6 29.1 -29.1 28.95 -28.8 29.15 -28.6 29.25 -28.5 29.45 -28.3 29.25 -28.15 29.2 -27.65 29.05 -27.25 29.8 -27.05 30.2 -26.95 30.6 -26.95 30.85 -27.2 31.35 L-27.25 31.4 Q-26.8 31.8 -26.8 33.65 L-26.7 34.05 -26.65 34.45 Q-26.65 34.7 -26.8 34.9 L-26.85 34.95 -26.75 35.3 -26.55 36.3 Q-26.4 37.05 -26.4 37.4 -26.4 37.65 -26.45 37.8 L-26.3 38.0 Q-26.15 38.4 -26.05 38.85 -25.95 38.75 -25.8 38.7 L-25.75 38.7 Q-25.65 38.25 -25.5 37.9 L-25.55 37.6 -25.6 36.85 Q-25.6 36.35 -25.5 36.0 -25.65 35.8 -25.75 35.5 -25.9 35.2 -25.9 34.55 -25.9 33.7 -25.65 33.25 L-25.75 32.15 Q-25.75 31.2 -25.5 30.85 L-25.5 30.8 -25.6 30.0 Q-25.6 29.55 -25.35 29.15 L-25.4 28.9 Q-25.4 26.65 -24.5 26.05 L-24.4 26.0 -24.5 25.6 Q-24.25 24.45 -24.05 24.25 L-23.7 24.0 -23.7 23.7 -23.6 23.1 -23.45 22.65 -23.5 22.4 -23.6 22.1 Q-23.6 21.65 -23.3 21.55 -23.15 21.5 -22.9 21.6 L-22.95 21.45 Q-22.95 20.9 -22.5 20.75 -22.25 20.7 -22.0 20.95 L-22.0 20.75 Q-22.0 19.45 -21.0 20.35 L-20.55 20.8 Q-20.35 20.8 -20.05 21.0 -19.6 21.3 -19.25 21.85 -18.85 22.4 -18.85 22.8 -18.85 23.0 -19.0 23.2 -19.2 23.4 -19.45 23.45 -19.4 23.85 -19.65 24.45 M-30.85 36.55 Q-30.85 37.1 -31.0 37.45 -30.8 37.75 -30.75 38.55 -30.6 38.4 -30.45 38.4 L-30.5 38.2 -30.4 37.95 -30.3 37.7 Q-30.3 37.45 -30.4 36.85 L-30.5 36.3 Q-30.85 36.15 -30.95 35.75 L-31.05 35.2 Q-31.1 35.45 -31.3 35.75 L-31.4 35.9 -31.2 35.9 Q-30.85 36.05 -30.85 36.55" fill="#ffb500" fill-rule="evenodd" stroke="none"/>
    <path d="M-23.5 45.3 Q-23.45 45.4 -23.35 45.65 L-23.25 45.95 Q-23.05 46.1 -22.75 46.9 -22.5 46.6 -22.3 47.05 L-21.95 47.7 Q-21.65 48.2 -21.65 48.4 -21.65 48.5 -21.75 48.65 L-21.55 48.7 Q-20.8 49.1 -20.8 49.65 L-20.8 49.85 Q-20.5 49.8 -20.4 50.1 -20.25 50.35 -20.35 50.55 L-20.35 50.55 Q-19.85 50.45 -19.85 51.0 L-19.85 51.0 Q-19.6 50.95 -19.5 51.2 L-19.1 52.0 Q-18.95 51.9 -18.75 52.05 -18.65 52.2 -18.65 52.4 -18.65 52.55 -18.55 52.6 L-18.4 52.7 Q-18.3 53.0 -18.2 53.1 -18.15 53.2 -18.15 53.35 -18.15 53.6 -18.2 53.8 -18.3 54.1 -18.6 54.1 -18.9 54.1 -19.05 53.95 L-19.25 53.6 -19.5 53.3 -19.6 53.05 -19.6 53.05 Q-19.8 53.0 -19.95 52.9 -20.2 52.65 -20.35 52.55 -20.55 52.45 -20.55 52.3 L-20.55 51.9 -20.6 51.9 Q-20.9 51.9 -21.0 51.7 L-21.2 51.25 -21.2 51.1 -21.25 50.9 Q-21.25 50.85 -21.35 50.75 L-21.4 50.65 Q-21.55 50.55 -21.55 50.35 -21.6 50.25 -21.7 50.15 L-21.9 50.0 -22.2 49.6 Q-22.25 49.5 -22.25 49.3 L-22.2 48.85 Q-22.65 48.85 -23.2 47.8 L-23.15 47.55 -23.55 47.25 Q-23.9 46.9 -23.95 46.6 L-24.0 46.3 -24.1 46.35 -24.35 46.4 Q-24.45 46.45 -24.5 46.45 -24.45 46.55 -24.45 46.7 L-24.45 46.7 Q-24.1 47.0 -24.0 47.45 -23.55 47.75 -23.4 48.15 -23.1 48.25 -23.1 48.65 -23.1 48.8 -22.9 48.9 L-22.6 49.1 -22.55 49.35 -22.55 49.5 Q-22.15 49.75 -21.95 50.0 -21.9 50.2 -21.85 50.55 L-21.85 50.6 Q-21.7 50.7 -21.65 50.95 L-21.55 51.2 -21.35 51.4 Q-21.0 51.6 -21.0 51.8 L-21.0 52.0 -20.9 52.05 -20.75 52.25 -20.65 52.4 -20.6 52.55 -20.55 52.7 Q-20.45 52.8 -20.35 53.05 -20.3 53.25 -20.15 53.3 -19.9 53.4 -19.75 53.6 -19.65 53.75 -19.65 53.9 -19.65 54.1 -19.8 54.3 L-19.9 54.35 -19.9 54.45 Q-19.55 54.8 -19.55 55.0 L-19.55 55.25 -19.6 55.4 -19.55 55.75 Q-19.55 55.95 -19.7 56.2 -19.85 56.55 -20.15 56.55 L-20.35 56.5 -20.35 56.55 Q-20.5 57.05 -20.75 57.05 L-20.85 57.0 Q-20.9 56.95 -20.95 56.95 L-21.15 57.05 -21.55 56.85 -21.85 56.9 Q-22.1 56.9 -22.25 56.5 L-22.25 56.4 -22.45 56.45 Q-22.75 56.45 -22.8 56.15 -22.9 55.8 -22.95 55.8 L-23.05 55.6 -23.15 55.45 -23.35 55.1 -23.3 54.95 -23.95 54.4 Q-24.15 54.25 -24.2 54.05 L-24.25 53.7 -24.25 53.45 Q-24.9 53.4 -24.85 52.75 -25.1 52.7 -25.2 52.6 L-25.25 52.4 -25.15 52.2 -25.1 52.05 Q-25.65 51.95 -25.9 51.4 -26.0 51.2 -26.0 50.95 -26.2 50.9 -26.3 50.65 -26.45 50.35 -26.8 50.35 L-26.9 50.4 -27.05 50.45 -27.1 50.45 -27.2 50.7 -27.15 50.85 Q-27.0 50.95 -26.8 51.25 L-26.5 51.75 Q-26.35 51.95 -26.3 52.1 -25.7 52.5 -25.7 53.05 L-25.65 53.05 Q-25.45 53.05 -25.25 53.45 -25.05 53.8 -25.05 53.9 L-25.05 54.0 -24.95 54.15 Q-24.55 54.15 -24.55 55.15 -24.55 55.65 -24.95 55.95 -25.25 56.2 -25.6 56.2 L-25.65 56.2 Q-25.8 56.4 -26.0 56.4 -26.45 56.4 -26.6 55.8 L-26.6 55.75 Q-26.8 55.9 -27.1 55.9 -27.4 55.9 -27.55 55.3 L-27.6 55.05 -27.85 54.9 Q-28.15 54.7 -28.2 54.55 L-28.3 54.25 -28.3 54.2 -28.4 54.3 -28.45 54.35 Q-29.15 55.1 -29.25 55.1 L-29.55 55.1 -30.05 55.65 Q-30.7 56.35 -30.95 56.35 -31.3 56.35 -31.3 56.05 -31.3 55.45 -30.35 54.75 L-30.0 54.5 -30.05 54.1 Q-29.9 53.5 -29.6 53.4 L-29.65 53.3 Q-29.65 53.05 -29.5 53.0 L-29.25 52.65 Q-29.15 52.5 -28.85 52.6 L-28.4 52.7 Q-28.1 52.7 -28.0 53.15 -27.9 53.0 -27.75 53.05 L-27.25 53.5 -26.85 54.0 Q-26.7 54.05 -26.6 54.15 L-26.5 54.45 -26.4 54.55 -26.1 54.5 Q-25.85 54.5 -25.7 54.6 L-25.6 54.5 -25.75 54.5 Q-26.0 54.5 -26.15 54.05 L-26.2 54.05 Q-26.5 54.05 -26.65 53.8 L-26.75 53.2 -26.85 52.85 Q-27.0 52.8 -27.25 52.55 -27.55 52.3 -27.65 52.1 L-27.8 51.65 -27.9 51.3 -27.9 51.25 Q-28.0 51.15 -28.05 51.0 L-28.1 50.6 -28.0 50.25 Q-27.95 50.1 -27.95 49.95 L-28.0 49.8 -28.05 49.7 Q-28.05 49.25 -27.5 49.4 L-27.45 49.45 Q-27.3 49.3 -26.95 49.2 -26.35 49.05 -26.05 49.45 -25.95 49.6 -25.75 50.1 L-25.75 50.15 Q-25.55 50.1 -25.3 50.2 -24.55 50.55 -24.55 51.55 L-24.25 51.8 Q-24.0 52.05 -23.95 52.2 -23.85 52.55 -23.75 52.65 -23.7 52.7 -23.7 52.85 -23.6 52.85 -23.35 53.05 -23.1 53.2 -23.05 53.4 L-22.95 53.5 -22.75 53.6 -22.65 53.75 -22.65 54.15 Q-22.5 54.15 -22.4 54.3 L-22.25 54.55 -21.95 54.8 Q-21.85 54.9 -21.85 55.0 -21.85 55.2 -21.9 55.35 -21.6 55.25 -21.35 55.4 -21.15 55.55 -21.15 55.75 L-21.15 55.75 -20.9 55.6 -20.75 55.5 -20.8 55.1 Q-20.8 54.75 -20.7 54.5 -20.9 54.45 -21.0 54.25 -21.15 54.15 -21.3 53.9 L-21.4 53.45 -21.6 53.0 -21.7 52.8 Q-21.75 52.8 -21.85 52.85 -22.1 52.85 -22.15 52.6 L-22.15 52.3 -22.35 52.0 -22.4 51.75 -22.55 51.55 -22.65 51.3 Q-22.65 51.15 -22.8 51.05 L-22.95 50.8 -22.95 50.55 -23.05 50.55 Q-23.35 50.55 -23.45 50.3 L-23.45 50.05 Q-23.5 49.95 -23.6 49.9 L-23.7 49.85 -23.75 49.55 -23.75 49.15 -23.8 49.15 Q-24.2 49.15 -24.3 48.7 -24.5 48.65 -24.6 48.5 L-24.7 48.25 -24.6 48.05 Q-24.6 48.05 -24.9 47.6 -25.25 47.2 -25.25 46.8 L-25.2 46.7 -25.45 46.35 Q-25.45 46.0 -25.15 46.0 L-25.25 45.8 Q-25.25 45.7 -25.0 45.35 -24.7 44.95 -24.5 44.95 -24.2 44.95 -24.1 45.05 L-23.95 45.25 Q-23.75 45.1 -23.5 45.3" fill="#ffb500" fill-rule="evenodd" stroke="none"/>
    <path d="M-14.4 48.25 Q-14.1 48.3 -14.1 48.7 L-14.05 48.8 Q-13.85 48.7 -13.75 49.0 -13.65 49.2 -13.6 49.4 L-13.5 49.3 Q-13.45 49.25 -13.45 49.2 L-13.4 48.95 -13.2 48.7 Q-13.05 48.55 -12.9 48.55 -12.7 48.6 -12.65 48.75 L-12.65 49.45 -12.65 49.7 Q-12.65 49.8 -12.7 49.85 -12.65 50.0 -12.65 50.1 L-12.65 50.25 -12.45 50.15 Q-12.35 50.15 -12.2 50.4 L-12.0 50.6 -12.0 50.7 Q-11.9 50.75 -11.8 50.95 L-11.7 50.9 -11.6 50.85 Q-11.5 50.85 -11.3 51.0 L-11.15 51.15 -10.85 51.45 -10.7 51.65 -10.35 51.75 -10.25 51.75 -10.15 51.7 Q-9.9 51.7 -9.9 52.1 -9.55 52.05 -9.45 52.35 L-9.45 52.35 -9.25 52.25 Q-8.85 52.25 -8.6 52.55 -8.45 52.7 -8.45 52.8 L-8.35 52.9 Q-8.25 52.85 -8.15 52.85 -8.05 52.85 -7.9 53.0 L-7.75 53.15 Q-7.6 52.95 -7.45 52.95 L-7.45 52.7 Q-7.4 52.55 -7.15 52.55 -7.15 52.4 -7.05 52.3 -6.9 52.2 -6.75 52.35 -6.65 52.45 -6.6 52.8 L-6.5 53.05 -6.45 53.3 Q-6.35 53.45 -6.15 53.5 -5.95 53.6 -5.95 53.7 -5.95 53.8 -6.0 53.85 L-6.3 53.9 Q-6.3 54.1 -6.5 54.1 L-6.55 54.1 -6.6 54.15 Q-6.75 54.25 -6.75 54.45 -6.7 54.65 -6.9 54.8 -7.05 54.9 -7.2 54.95 L-7.2 55.0 Q-7.05 55.3 -7.05 55.4 -7.05 55.5 -7.1 55.65 -7.2 55.8 -7.35 55.85 L-7.3 55.95 Q-7.3 56.25 -7.4 56.6 -7.55 57.15 -7.85 57.2 L-7.85 57.35 -7.8 57.55 Q-7.7 57.65 -7.7 57.7 -7.7 57.85 -7.8 58.15 -7.9 58.45 -8.0 58.5 L-8.0 58.6 Q-8.0 58.75 -8.05 58.85 L-8.05 59.05 -8.1 59.2 -8.05 59.4 -8.15 59.65 Q-8.25 59.9 -8.4 59.9 L-8.45 59.9 -8.45 59.9 -8.5 60.1 -8.45 60.25 -8.5 60.35 -8.35 60.75 -8.4 60.9 -8.45 61.1 Q-8.45 61.15 -8.55 61.25 -8.65 61.35 -8.8 61.35 L-8.95 61.35 -8.9 61.4 Q-8.9 61.6 -9.05 61.8 -9.25 62.15 -9.7 62.15 -10.0 62.15 -10.25 62.05 L-10.45 61.95 Q-10.85 61.9 -11.2 61.65 L-11.5 61.65 Q-11.95 61.65 -12.4 61.35 L-12.45 61.35 -12.65 61.7 -12.85 61.95 -12.85 62.05 Q-12.85 62.25 -12.75 62.35 -12.65 62.5 -12.65 62.6 -12.65 62.7 -12.8 62.95 L-12.8 63.05 -12.75 63.9 Q-12.75 64.05 -12.6 64.1 L-12.5 64.2 -12.3 64.15 Q-11.4 64.15 -11.3 64.35 L-11.25 64.4 -11.2 64.4 -10.55 64.4 Q-10.1 64.65 -9.9 64.85 -9.85 64.7 -9.65 64.9 -9.55 65.0 -9.5 65.2 L-9.45 65.5 -9.45 66.5 -9.4 66.9 Q-9.4 67.0 -9.6 67.1 L-9.6 67.15 -9.65 67.95 Q-9.75 68.45 -9.85 68.6 -9.85 69.0 -9.95 69.2 -10.25 69.7 -11.0 69.7 -11.35 69.7 -11.45 69.6 L-11.75 69.65 Q-12.0 69.65 -12.25 69.5 L-12.45 69.35 -13.25 69.25 -13.35 69.7 Q-13.45 70.05 -13.6 70.05 -13.8 70.05 -13.95 69.5 L-13.8 68.95 -13.8 68.8 Q-13.8 68.6 -13.5 68.6 -13.15 68.6 -12.55 68.8 L-12.15 68.95 -12.05 68.9 Q-11.85 68.9 -11.5 69.1 L-11.45 69.1 -11.4 69.05 Q-11.15 68.9 -10.65 68.9 L-10.35 68.55 Q-10.4 68.45 -10.4 68.4 -10.4 68.2 -10.1 67.3 L-10.05 67.0 -10.05 67.0 -10.1 66.85 -10.1 66.55 Q-10.1 65.7 -10.0 65.35 L-10.25 65.4 -10.95 65.05 Q-11.05 65.0 -11.4 64.85 L-11.4 64.85 -11.7 64.85 Q-11.9 64.85 -12.05 64.9 L-12.4 65.0 Q-12.7 65.0 -12.85 64.85 L-12.9 64.75 -13.05 64.75 Q-13.35 64.75 -13.45 64.6 L-13.5 64.35 Q-13.7 64.0 -13.7 63.85 -13.7 63.65 -13.5 63.6 L-13.55 63.5 -13.45 63.05 -13.6 62.9 -13.65 62.5 -13.6 62.05 Q-13.5 61.7 -13.35 61.6 L-13.35 61.6 Q-13.35 61.55 -13.4 61.4 L-13.5 61.15 Q-13.5 60.7 -12.95 60.55 -12.55 60.45 -12.45 60.75 L-12.35 60.75 Q-11.9 60.75 -11.5 60.95 -11.35 60.8 -10.7 61.2 -10.55 61.3 -10.35 61.4 L-10.3 61.3 Q-10.25 61.2 -10.1 61.1 L-9.9 61.05 Q-9.8 61.05 -9.8 61.0 L-9.65 60.8 -9.65 60.8 -9.8 60.35 Q-9.8 60.15 -9.6 60.05 L-9.1 59.8 -9.3 59.4 Q-9.3 59.05 -9.0 59.2 -9.2 59.0 -9.2 58.9 L-9.1 58.8 -8.9 58.65 Q-8.85 58.6 -8.85 58.5 -8.8 58.4 -8.75 58.35 L-8.75 58.2 Q-8.75 58.05 -8.6 58.0 L-8.55 57.95 Q-8.9 57.7 -8.9 57.55 -8.9 57.45 -8.6 57.2 L-8.3 57.0 -8.45 56.85 Q-8.55 56.6 -8.55 56.45 -8.55 56.3 -8.45 56.2 L-8.25 55.95 -8.2 55.7 -8.1 55.45 -7.9 55.25 -8.0 54.95 -7.95 54.75 Q-7.85 54.6 -7.55 54.55 -7.9 54.25 -7.9 54.05 L-7.85 53.95 -7.95 53.95 Q-8.1 53.95 -8.25 53.75 L-8.4 53.45 -8.6 53.25 -8.85 53.25 Q-8.95 53.25 -9.5 52.9 L-9.55 52.85 Q-9.65 52.9 -9.75 52.9 L-10.05 52.85 Q-10.1 53.1 -10.3 53.1 -10.45 53.1 -10.5 52.95 L-10.55 52.8 Q-10.55 52.7 -10.65 52.6 L-10.7 52.5 -10.75 52.45 -11.0 52.35 -11.05 52.4 Q-11.1 52.45 -11.15 52.45 -11.35 52.45 -11.35 52.2 L-11.3 52.0 -11.4 51.8 -11.45 51.8 Q-11.7 51.8 -11.9 51.6 L-12.05 51.35 Q-12.1 51.2 -12.3 51.1 L-12.35 51.05 -12.6 51.1 Q-12.75 51.1 -13.0 50.55 L-13.25 50.5 Q-13.25 50.6 -13.35 50.7 L-13.55 50.8 -13.6 51.0 -13.55 51.05 -13.55 51.2 Q-13.55 51.3 -13.85 51.6 L-14.2 51.8 -14.15 51.95 Q-14.15 52.0 -14.25 52.05 L-14.45 52.2 -14.5 52.35 -14.55 52.45 -14.6 52.55 Q-14.6 52.6 -14.8 52.8 -15.0 53.05 -15.1 53.05 -15.4 53.05 -15.45 52.7 L-15.45 52.45 Q-15.45 52.35 -15.35 52.2 -15.2 52.0 -15.05 52.0 L-14.95 51.95 -14.9 51.85 Q-14.8 51.65 -14.65 51.6 L-14.7 51.4 Q-14.7 51.2 -14.5 51.1 -14.5 51.05 -14.55 50.95 L-14.55 50.9 Q-14.55 50.65 -14.3 50.65 L-14.15 50.7 -14.1 50.6 -14.15 50.4 Q-14.15 50.25 -14.0 50.05 L-13.95 50.0 Q-14.1 49.95 -14.2 49.75 -14.3 49.5 -14.25 49.4 L-14.4 49.3 -14.45 49.2 -14.4 49.1 Q-14.6 49.05 -14.7 48.9 L-14.7 48.75 Q-15.1 48.75 -15.25 48.35 L-15.15 48.2 -15.1 48.1 -15.15 48.0 -15.25 47.9 -15.15 47.7 Q-15.05 47.6 -14.9 47.6 -14.7 47.6 -14.65 47.7 L-14.5 47.9 Q-14.4 48.0 -14.4 48.1 L-14.4 48.25" fill="#ffb500" fill-rule="evenodd" stroke="none"/>
    <path d="M20.45 54.4 Q20.9 54.65 20.9 55.05 L20.85 55.25 Q21.15 55.6 21.15 55.95 L21.15 56.2 21.1 56.3 21.1 56.4 21.2 56.4 Q21.3 56.1 21.7 55.9 L21.8 55.9 21.75 55.7 Q21.75 55.0 22.3 54.95 L22.4 54.95 22.4 54.8 Q22.4 53.95 23.15 54.25 L23.25 54.35 23.25 54.25 Q23.25 53.65 24.0 53.75 L24.25 53.85 Q24.3 53.15 24.95 53.05 25.25 53.05 25.4 53.15 L25.45 53.1 Q25.65 52.95 25.9 52.95 26.6 52.9 26.6 53.8 L26.55 54.1 Q26.85 54.15 27.05 54.65 27.2 55.05 27.2 55.2 27.2 55.55 26.85 55.6 L26.9 55.85 26.85 56.6 Q26.65 57.25 26.15 57.25 26.05 57.45 25.5 57.8 24.8 58.3 24.5 58.3 L24.25 58.25 Q24.05 58.45 23.9 58.45 L23.8 58.45 Q23.8 58.7 23.65 59.0 23.45 59.45 23.1 59.5 L23.1 59.85 23.15 59.95 23.2 60.1 Q23.2 60.25 23.1 60.35 23.0 60.45 22.85 60.5 L22.9 60.8 Q22.9 61.1 22.8 61.25 L22.7 61.4 Q22.85 61.55 22.85 61.75 22.85 61.95 22.75 62.1 L22.55 62.25 Q23.1 62.5 23.1 62.85 L23.0 63.15 23.05 63.2 23.35 63.65 23.6 64.15 Q23.6 64.3 23.5 64.45 L23.45 64.45 Q24.0 64.85 24.0 65.45 24.0 66.0 23.55 66.0 23.3 66.0 22.8 64.7 22.8 64.55 22.8 64.45 22.65 64.4 22.5 64.2 22.35 63.95 22.35 63.85 22.35 63.75 22.4 63.6 22.15 63.55 22.0 63.1 L21.9 62.6 Q21.9 62.35 22.0 62.25 L21.65 62.05 Q21.5 61.85 21.5 61.7 21.5 61.25 21.8 61.15 L21.75 61.05 Q21.6 60.65 21.6 60.45 21.6 60.0 22.1 60.05 21.8 59.7 21.8 59.55 21.8 59.45 22.0 59.2 22.25 58.95 22.45 58.85 L22.6 58.8 Q22.55 58.6 22.55 58.5 22.55 58.0 23.2 57.8 L23.25 57.8 Q23.35 57.45 23.95 57.25 L24.45 57.2 Q24.7 57.0 25.1 56.8 25.5 56.65 25.75 56.65 25.8 55.9 26.3 55.55 26.1 55.45 25.95 55.1 25.8 54.85 25.75 54.6 25.55 54.55 25.5 54.4 25.4 54.3 25.4 54.2 L25.45 54.1 25.4 54.15 Q25.1 54.4 24.7 54.4 24.7 54.6 24.6 54.7 24.45 54.95 24.05 54.95 L23.85 54.9 23.85 55.0 Q23.85 55.25 23.65 55.4 23.5 55.6 23.25 55.6 L22.85 55.55 22.85 55.6 Q22.85 56.2 22.3 56.2 L22.15 56.2 Q21.6 56.9 21.4 56.9 L21.3 56.9 21.15 57.15 Q21.0 57.4 20.8 57.4 20.75 57.6 20.5 57.6 20.3 57.6 20.2 57.55 20.0 57.75 19.75 57.75 19.7 57.75 19.7 57.7 L19.6 57.65 Q19.6 57.9 19.4 58.15 L19.25 58.3 19.3 58.4 Q19.3 58.5 19.05 58.7 18.75 58.95 18.6 58.95 L18.45 58.9 Q18.2 59.3 17.75 59.3 17.7 59.75 17.45 59.75 17.35 59.75 17.25 59.65 L17.2 59.55 17.15 59.55 17.15 59.7 Q17.15 59.9 16.65 60.15 L16.15 60.4 Q16.15 60.6 16.05 60.6 L15.8 60.6 Q15.45 60.85 15.3 60.85 L15.25 60.85 15.2 61.0 Q15.15 61.3 15.0 61.3 14.9 61.3 14.8 61.1 L14.7 61.4 Q14.65 61.5 14.4 61.5 L14.15 61.45 14.0 61.7 Q13.75 62.0 13.4 62.0 L13.35 62.0 13.25 62.15 Q13.1 62.25 12.9 62.25 12.75 62.25 12.55 62.1 L12.45 62.2 Q12.3 62.3 12.1 62.3 L11.45 61.8 Q11.45 61.5 11.9 61.6 11.85 61.5 11.85 61.3 11.85 60.55 12.25 61.15 L12.35 61.4 12.45 61.25 12.65 60.95 Q12.7 60.75 12.8 60.7 12.9 60.55 13.05 60.75 L13.15 61.05 Q13.3 60.8 13.65 60.7 L13.95 60.7 14.25 60.7 Q14.35 60.25 15.0 60.4 15.05 60.0 15.55 59.9 15.9 59.8 16.05 59.95 16.25 59.65 16.5 59.4 16.75 59.15 16.95 59.2 L17.2 58.9 Q17.5 58.65 17.65 58.75 17.8 58.5 18.1 58.2 L18.4 57.95 Q18.55 57.75 18.9 57.55 19.15 57.4 19.3 57.35 19.55 57.05 19.75 56.85 20.15 56.5 20.3 56.55 L20.3 56.35 Q20.3 56.1 20.4 56.05 L20.4 56.0 20.3 55.65 20.35 55.3 Q20.3 55.35 20.25 55.35 L20.15 55.35 20.05 55.3 20.1 54.85 19.95 54.9 19.85 54.9 19.75 54.85 19.75 54.65 Q19.75 54.55 19.85 54.35 L19.85 54.3 19.75 54.3 Q19.7 54.5 19.35 55.0 18.9 55.6 18.6 55.6 L18.55 55.6 18.45 55.85 Q18.35 56.1 18.1 56.1 L17.9 56.1 17.8 56.3 17.55 56.8 17.7 57.05 Q17.65 57.6 17.3 57.6 16.9 57.6 16.6 57.4 L16.45 57.25 16.35 57.35 16.45 57.5 16.55 57.65 Q16.55 57.75 15.95 57.95 15.9 57.95 15.8 57.9 L15.75 58.05 15.55 58.4 Q15.2 58.4 15.0 58.25 L14.95 58.4 Q14.8 58.9 14.75 58.9 14.45 58.9 14.25 58.7 14.1 58.55 14.1 58.45 14.1 58.3 14.2 58.05 14.35 57.75 14.6 57.7 L14.7 57.45 14.7 57.35 Q14.75 57.25 14.9 57.25 L15.0 57.3 15.1 57.4 Q15.35 57.15 15.55 57.15 L15.55 57.1 Q15.55 56.75 16.05 56.65 L16.35 56.7 16.4 56.55 Q16.55 56.25 17.05 56.25 L17.05 55.5 17.15 55.45 17.25 55.4 Q17.35 55.4 17.45 55.6 17.65 55.35 17.85 55.35 L17.9 55.4 18.15 55.1 Q18.45 54.85 18.55 55.15 L18.65 54.95 19.0 54.4 Q19.1 54.1 19.4 53.95 L19.45 53.9 Q19.5 53.85 19.5 53.8 L19.75 53.8 20.3 53.8 Q20.45 53.9 20.45 54.3 L20.45 54.4 M11.55 64.25 L11.85 64.45 11.9 64.45 Q12.05 64.2 12.45 64.1 13.2 63.95 13.2 64.55 13.2 64.75 12.85 65.35 L12.85 65.45 Q13.4 65.75 13.4 66.35 13.4 66.5 13.3 66.65 L13.2 66.8 Q13.7 67.15 13.7 67.6 13.7 67.75 13.55 67.95 L13.5 68.0 13.6 68.25 Q13.7 68.6 13.95 68.8 14.2 69.0 14.2 69.25 14.2 69.45 14.1 69.6 14.25 69.85 14.25 70.4 14.25 70.6 14.2 70.7 14.1 70.9 13.85 70.9 13.55 70.9 13.35 70.6 13.25 70.45 13.25 70.35 13.25 70.0 13.3 69.75 13.1 69.6 12.9 69.05 L12.75 68.2 12.75 68.15 12.7 68.15 Q12.45 68.15 12.35 68.0 12.3 67.85 12.3 67.75 L12.35 67.45 12.4 67.0 12.45 66.85 12.4 66.85 Q12.2 66.85 12.05 66.65 L12.0 66.45 Q12.0 66.3 12.15 66.1 L12.05 66.1 Q11.8 66.1 11.7 65.9 L11.65 65.8 11.25 65.9 Q11.1 65.9 10.95 65.75 L10.85 65.85 Q10.5 66.1 10.2 66.1 9.95 66.1 9.85 66.05 9.75 66.0 9.7 65.95 L9.6 66.1 Q9.45 66.35 9.25 66.35 9.05 66.35 8.95 66.25 8.8 66.1 8.55 66.1 L8.4 66.1 8.3 66.2 Q8.1 66.35 7.7 66.35 L6.6 66.2 6.35 66.5 Q6.05 66.8 5.55 66.8 L5.45 66.8 5.4 66.85 Q5.25 67.0 5.0 67.0 4.6 67.0 4.3 66.85 L4.1 67.05 Q3.8 67.25 3.4 67.25 3.15 67.25 3.05 67.15 L2.25 67.05 2.15 67.2 Q2.0 67.4 1.7 67.4 1.45 67.4 1.25 67.3 1.05 67.5 0.75 67.5 0.45 67.5 0.3 67.35 L0.05 67.4 -0.3 67.3 -0.4 67.4 -0.9 67.45 -1.35 67.45 -1.45 67.5 -2.0 67.6 -2.05 67.7 -2.35 67.7 Q-2.55 67.7 -2.7 67.6 L-2.85 67.75 Q-2.85 67.85 -2.95 67.95 -3.1 68.05 -3.25 68.05 -3.5 68.05 -3.8 67.55 L-3.9 67.4 -4.0 67.4 -4.15 67.45 -4.3 67.5 Q-4.65 67.5 -4.9 67.3 L-5.15 67.25 -5.15 67.6 Q-5.2 67.8 -5.4 67.8 -5.65 67.8 -5.75 67.3 L-5.8 66.9 Q-5.8 66.65 -5.7 66.55 L-5.85 66.2 -5.95 65.75 -5.85 65.45 -5.95 65.2 -6.05 64.75 -5.9 64.45 Q-5.75 64.15 -5.65 64.15 -5.6 64.15 -5.55 64.2 L-5.45 64.3 Q-5.35 63.9 -5.05 64.15 L-5.0 64.2 -4.95 64.15 Q-4.75 64.0 -4.5 64.0 -4.15 64.0 -4.0 64.3 L-3.7 64.2 Q-3.35 64.05 -3.2 64.3 L-3.1 64.5 Q-3.0 64.3 -2.8 64.3 L-2.65 64.4 -2.65 64.35 Q-2.65 64.2 -2.5 64.15 L-2.25 64.15 Q-2.05 64.15 -1.7 64.3 -1.65 64.05 -1.45 64.05 -1.25 64.0 -1.25 64.2 L-1.2 64.2 -0.75 64.1 Q-0.45 64.1 -0.45 64.4 L-0.4 64.45 -0.4 64.45 -0.25 64.1 Q-0.1 63.65 0.1 64.15 L0.2 64.1 0.3 64.05 Q0.5 64.05 0.5 64.15 L0.55 64.25 Q0.6 63.95 1.2 63.95 L1.75 64.0 1.85 64.0 Q2.0 63.9 2.35 63.9 2.7 63.9 2.8 64.0 L2.8 64.3 Q2.8 64.55 2.75 64.65 2.7 64.8 2.45 64.8 2.25 64.8 2.2 64.9 L2.05 65.0 Q1.9 65.0 1.85 64.7 L1.8 64.6 1.75 64.65 Q1.5 64.9 1.1 64.9 0.95 64.9 0.8 64.7 L0.75 64.8 Q0.65 65.05 0.45 65.05 0.1 65.05 -0.15 64.95 L-0.3 64.85 -0.6 65.0 Q-1.15 65.2 -1.4 65.2 -1.6 65.2 -1.7 65.1 -1.9 65.2 -2.15 65.2 -2.2 65.2 -2.25 65.1 L-2.3 65.15 Q-2.5 65.3 -2.8 65.3 -3.0 65.3 -3.1 65.2 L-3.2 65.2 -3.4 65.1 Q-3.55 65.05 -3.65 65.05 L-3.8 65.1 -3.95 65.2 Q-4.15 65.2 -4.25 65.05 -4.4 64.95 -4.75 64.65 -5.25 65.35 -5.5 65.55 L-5.4 65.95 Q-5.3 66.3 -5.3 66.4 L-5.35 66.55 -5.25 66.6 -4.9 66.85 -4.9 66.85 -4.3 66.9 -4.15 66.85 -4.0 66.8 -3.3 66.95 -2.95 67.1 -2.6 67.1 -1.75 67.1 -1.7 67.1 Q-1.6 67.0 -1.0 66.9 L-0.5 66.85 -0.55 66.85 Q-0.55 66.3 0.05 66.3 0.4 66.3 0.5 66.5 L0.8 66.4 0.95 66.4 Q1.05 65.85 1.65 65.95 2.0 66.0 2.15 66.25 L2.7 66.2 3.2 66.3 Q3.4 66.2 3.65 66.2 L3.9 66.3 Q3.9 65.8 4.7 65.85 L5.1 65.95 Q5.3 65.75 5.8 65.6 L6.2 65.5 Q6.3 65.15 6.6 65.15 6.7 65.15 7.0 65.35 L7.3 65.4 7.8 65.35 7.9 65.4 Q7.95 65.15 8.1 65.15 L8.6 65.15 9.1 65.05 9.25 65.05 Q9.45 64.8 10.15 64.85 L10.5 64.9 10.5 64.85 Q10.65 64.65 10.8 64.65 10.9 64.6 11.0 64.45 11.05 64.25 11.2 64.2 11.35 64.1 11.55 64.25" fill="#ffb500" fill-rule="evenodd" stroke="none"/>
  </g>
</svg>
