<?xml version="1.0" encoding="UTF-8" standalone="no"?>
<svg xmlns:xlink="http://www.w3.org/1999/xlink" height="48.55px" width="52.35px" xmlns="http://www.w3.org/2000/svg">
  <g transform="matrix(1.0, 0.0, 0.0, 1.0, -7.1, -1.5)">
    <path d="M45.35 49.4 L41.5 49.4 40.2 49.45 40.15 49.45 38.8 49.45 12.85 49.4 12.55 49.4 Q12.45 49.3 12.45 49.1 L17.95 49.1 19.2 49.3 35.05 49.25 35.2 49.2 38.55 49.2 38.75 49.1 45.95 49.1 45.6 49.4 45.35 49.4 M39.85 10.4 L40.4 10.4 43.2 10.4 45.75 10.4 45.35 10.75 42.5 10.75 40.25 10.75 39.95 10.75 39.7 10.75 38.6 10.75 36.25 10.75 34.55 10.75 34.95 10.5 38.3 10.5 38.6 10.4 39.85 10.4 M49.8 10.4 L51.4 10.4 Q51.6 10.4 51.75 10.55 51.85 10.7 51.85 10.9 L51.75 10.95 51.7 10.95 51.55 10.9 51.5 10.8 51.4 10.75 50.15 10.75 Q49.95 10.6 49.8 10.4 M36.2 11.05 L36.0 11.4 16.9 11.4 16.35 11.05 17.15 11.05 17.95 11.25 34.1 11.25 34.25 11.2 34.35 11.2 Q34.45 11.15 34.45 11.05 L36.2 11.05 M8.1 10.75 L7.75 10.75 7.75 10.45 7.8 10.4 8.25 10.4 8.1 10.75 M7.45 10.9 L7.45 11.25 7.1 11.35 7.1 10.9 7.15 10.75 7.45 10.9 M12.25 10.4 L17.5 10.4 19.65 10.75 12.3 10.75 Q12.25 10.65 12.25 10.4 M38.8 50.05 L19.25 50.05 19.1 49.9 19.0 49.9 18.6 49.75 21.1 49.75 21.2 49.75 21.5 49.9 27.0 49.8 27.35 49.9 27.45 49.9 34.45 49.9 34.75 49.85 34.9 49.75 39.25 49.75 38.8 50.05 M7.75 11.4 L7.75 11.2 Q7.75 11.15 7.8 11.1 L7.85 11.05 7.95 11.05 8.2 11.05 8.15 11.15 8.1 11.15 Q8.0 11.4 7.75 11.4" fill="#525655" fill-rule="evenodd" stroke="none"/>
    <path d="M51.85 13.45 L51.85 37.8 51.55 37.8 51.55 13.4 51.55 13.35 51.55 12.7 51.55 10.9 51.7 10.95 51.75 10.95 51.85 10.9 51.85 12.55 51.85 13.15 51.85 13.45 M51.2 13.4 L51.2 37.8 51.2 49.25 51.15 49.35 51.15 49.4 51.05 49.4 45.85 49.4 45.6 49.4 45.95 49.1 51.05 49.1 51.05 42.1 51.05 41.95 51.05 37.8 51.2 37.8 51.05 37.8 51.05 36.35 51.05 36.2 50.9 36.2 50.9 36.05 50.9 14.1 50.9 14.0 50.9 11.4 36.0 11.4 36.2 11.05 39.55 11.05 40.1 11.05 44.25 11.05 49.0 11.05 51.05 11.05 51.1 11.05 51.15 11.1 51.2 11.2 51.2 12.8 51.2 13.4 M12.55 49.4 L12.5 49.4 7.95 49.4 7.85 49.35 7.8 49.35 7.75 49.25 7.75 37.8 8.1 37.8 8.1 49.1 12.45 49.1 Q12.45 49.3 12.55 49.4 M45.75 10.4 L49.1 10.4 49.8 10.4 Q49.95 10.6 50.15 10.75 L49.05 10.75 45.8 10.75 45.7 10.75 45.6 10.75 45.35 10.75 45.75 10.4 M34.55 10.75 L36.25 10.75 36.15 10.75 34.8 10.75 8.1 10.75 8.25 10.4 12.25 10.4 Q12.25 10.65 12.3 10.75 L19.65 10.75 20.65 10.75 32.4 10.75 34.55 10.75 M7.45 11.25 L7.45 27.3 7.45 37.25 7.45 37.8 7.1 37.8 7.1 11.35 7.45 11.25 M16.35 11.05 L16.9 11.4 8.1 11.4 8.1 37.8 7.75 37.8 7.75 11.4 Q8.0 11.4 8.1 11.15 L8.15 11.15 8.2 11.05 9.8 11.05 10.65 11.05 16.35 11.05 M51.55 37.8 L51.85 37.8 51.85 49.55 Q51.85 49.75 51.75 49.9 51.6 50.05 51.4 50.05 L38.8 50.05 39.25 49.75 51.4 49.75 51.5 49.7 51.55 49.55 51.55 37.8 M19.25 50.05 L7.6 50.05 Q7.4 50.05 7.25 49.9 7.1 49.75 7.1 49.55 L7.1 37.8 7.45 37.8 7.45 49.55 7.5 49.7 7.55 49.7 7.6 49.75 14.65 49.75 14.9 49.75 18.6 49.75 19.0 49.9 19.1 49.9 19.25 50.05 M14.9 49.75 L14.65 49.75 14.9 49.75" fill="#2e3231" fill-rule="evenodd" stroke="none"/>
    <path d="M38.6 10.4 L38.3 10.5 34.95 10.5 34.55 10.75 32.4 10.75 34.5 10.4 38.6 10.4 M7.75 10.75 L7.6 10.75 Q7.55 10.75 7.5 10.8 7.45 10.8 7.45 10.9 L7.15 10.75 7.25 10.55 Q7.4 10.4 7.6 10.4 L7.8 10.4 7.75 10.45 7.75 10.75 M17.5 10.4 L18.0 10.4 19.95 10.4 20.2 10.4 19.95 10.4 20.2 10.4 20.65 10.75 19.65 10.75 17.5 10.4 M34.45 11.05 Q34.45 11.15 34.35 11.2 L34.25 11.2 34.1 11.25 17.95 11.25 17.15 11.05 34.45 11.05 M21.2 49.75 L21.3 49.75 34.7 49.75 Q34.75 49.65 34.85 49.75 L34.9 49.75 34.75 49.85 34.45 49.9 27.45 49.9 27.35 49.9 27.0 49.8 21.5 49.9 21.2 49.75 M17.95 49.1 L20.45 49.1 20.6 49.2 33.9 49.2 34.45 49.1 38.75 49.1 38.55 49.2 35.2 49.2 35.05 49.25 19.2 49.3 17.95 49.1" fill="#9a9b9b" fill-rule="evenodd" stroke="none"/>
    <path d="M20.2 10.4 L20.45 10.4 34.5 10.4 32.4 10.75 20.65 10.75 20.2 10.4 20.45 10.4 20.2 10.4 M34.45 49.1 L33.9 49.2 20.6 49.2 20.45 49.1 34.45 49.1" fill="#c4c6c6" fill-rule="evenodd" stroke="none"/>
    <path d="M50.9 14.1 L50.9 36.05 8.1 36.05 8.1 14.1 50.9 14.1" fill="#1e1e1e" fill-opacity="0.54901963" fill-rule="evenodd" stroke="none"/>
    <path d="M54.45 7.05 L56.55 7.55 57.35 8.0 58.75 8.6 58.4 8.55 57.7 8.95 56.9 9.4 56.35 9.6 55.1 9.6 Q54.45 9.6 54.45 9.3 L54.35 9.15 54.2 9.05 Q54.1 9.05 53.9 9.2 L53.7 9.25 53.55 9.3 53.0 9.1 Q52.95 9.1 52.7 9.2 L52.65 9.2 52.35 9.3 51.5 8.9 Q51.6 8.6 51.9 8.55 52.15 8.5 52.35 8.65 52.25 8.4 51.9 8.3 L51.3 8.15 51.2 8.0 51.7 8.0 52.1 7.9 52.45 7.9 52.85 7.85 Q53.35 7.75 53.45 7.55 53.6 7.25 54.0 7.2 L54.45 7.05 M53.9 6.85 Q53.15 7.2 51.95 7.45 L49.35 7.9 Q49.3 8.0 49.35 8.1 L49.45 8.25 49.45 8.4 Q49.55 8.5 49.35 8.45 L48.0 8.3 47.45 8.15 Q47.1 8.0 46.9 8.0 L46.4 8.05 45.9 8.1 Q45.6 8.1 45.3 7.85 45.0 7.55 44.8 7.55 44.65 7.55 44.5 7.75 44.4 7.95 44.45 8.15 44.5 8.25 44.3 8.25 44.1 8.25 43.65 7.75 L43.15 7.2 43.15 7.0 46.65 6.75 Q46.55 6.6 46.15 6.45 45.85 6.35 46.0 6.0 L45.0 5.8 44.85 5.75 Q44.9 5.75 44.9 5.6 44.9 5.5 44.85 5.4 44.75 5.35 44.75 5.25 L44.85 5.2 Q45.1 5.2 45.3 5.35 45.55 5.45 45.65 5.45 45.9 5.5 46.0 5.35 46.2 5.2 46.4 5.15 46.35 4.85 45.9 4.65 45.55 4.45 45.3 4.45 L45.15 4.2 Q45.1 4.0 45.1 3.8 L45.05 3.7 45.05 3.45 44.4 3.3 Q44.7 2.9 44.95 2.75 45.3 2.45 45.65 2.65 L45.65 2.25 Q46.55 2.3 46.8 2.25 46.9 2.3 48.45 3.15 48.25 3.15 48.2 3.25 L48.2 3.45 Q48.2 3.7 48.35 3.85 L48.65 4.1 Q48.45 4.25 48.45 4.45 49.2 4.9 51.1 5.4 53.2 5.9 53.7 6.15 53.5 6.2 53.5 6.25 L53.45 6.35 Q53.45 6.6 53.9 6.85" fill="#1b0e09" fill-rule="evenodd" stroke="none"/>
    <path d="M52.65 9.2 L52.7 9.2 Q52.95 9.1 53.0 9.1 L53.55 9.3 53.7 9.25 53.9 9.2 Q54.1 9.05 54.2 9.05 L54.35 9.15 54.45 9.3 Q54.45 9.6 55.1 9.6 L56.35 9.6 56.9 9.4 57.7 8.95 58.4 8.55 58.75 8.6 Q59.45 8.95 59.45 9.0 59.45 9.1 59.35 9.2 59.25 9.3 59.25 9.4 59.25 9.5 59.3 9.75 L59.4 10.1 Q59.35 10.35 59.25 10.5 59.15 10.75 58.85 10.7 L58.5 10.65 58.15 10.5 57.9 10.9 58.35 11.25 Q58.65 11.45 58.65 11.55 58.55 11.6 58.45 11.75 58.4 11.85 58.25 11.9 L58.35 12.05 58.35 12.25 Q58.35 12.55 58.05 12.6 57.7 12.65 57.65 12.75 L57.7 12.8 57.8 12.95 57.05 12.75 Q56.65 12.7 56.5 13.0 L56.95 13.2 Q56.8 13.2 56.6 13.4 56.35 13.55 56.25 13.55 L55.3 13.35 53.75 14.35 53.6 14.3 Q52.65 13.6 51.85 13.45 L51.85 13.15 51.95 13.1 Q52.2 13.0 52.2 12.85 52.2 12.7 51.95 12.5 L52.2 12.3 Q52.75 11.75 52.75 10.95 L52.75 10.9 Q52.75 10.5 52.55 10.1 L52.4 9.85 52.2 9.65 52.1 9.55 51.95 9.45 51.85 9.35 Q51.65 9.25 51.5 9.2 L51.85 9.15 Q51.95 9.2 52.15 9.3 L52.4 9.35 52.65 9.2 M45.0 5.8 L44.8 5.85 Q44.7 5.8 44.65 5.75 44.55 5.65 44.45 5.65 44.35 5.65 44.2 5.75 L44.0 5.85 43.4 5.75 43.7 5.5 44.05 5.25 43.7 4.9 43.3 4.6 43.45 4.4 43.7 4.15 43.55 3.95 43.45 3.75 43.65 3.65 43.75 3.7 43.85 3.65 43.9 3.5 44.0 3.45 Q44.1 3.35 44.25 3.35 L44.1 3.05 Q43.9 2.85 43.9 2.6 43.85 2.4 43.75 2.2 43.6 2.0 43.65 1.9 43.65 1.75 43.8 1.55 L43.85 1.5 Q44.1 1.55 44.85 1.9 L45.6 2.25 45.65 2.25 45.65 2.65 Q45.3 2.45 44.95 2.75 44.7 2.9 44.4 3.3 L45.05 3.45 45.05 3.7 45.1 3.8 Q45.1 4.0 45.15 4.2 L45.3 4.45 Q45.55 4.45 45.9 4.65 46.35 4.85 46.4 5.15 46.2 5.2 46.0 5.35 45.9 5.5 45.65 5.45 45.55 5.45 45.3 5.35 45.1 5.2 44.85 5.2 L44.75 5.25 Q44.75 5.35 44.85 5.4 44.9 5.5 44.9 5.6 44.9 5.75 44.85 5.75 L45.0 5.8 M49.55 9.7 L49.1 9.55 Q49.25 9.5 49.25 9.4 L50.0 9.3 49.9 9.4 49.55 9.65 49.55 9.7 M56.2 10.6 Q56.05 10.7 55.8 10.7 55.6 10.65 55.5 10.5 L55.15 10.5 55.1 10.55 55.2 10.8 55.3 10.95 55.55 11.0 55.65 11.0 56.15 10.95 56.35 10.95 Q56.3 10.6 56.2 10.6 M55.2 11.45 L55.4 11.5 55.75 11.7 Q55.8 11.4 55.7 11.35 L55.4 11.3 55.35 11.3 55.15 11.25 Q55.1 11.3 55.05 11.35 L55.2 11.45 M51.55 13.4 L51.55 13.35 51.55 13.4 M44.35 3.75 L44.1 3.55 44.45 4.0 44.6 3.9 44.5 3.8 Q44.45 3.75 44.35 3.75" fill="#150f0d" fill-rule="evenodd" stroke="none"/>
    <path d="M54.45 7.05 L54.0 7.2 Q53.6 7.25 53.45 7.55 53.35 7.75 52.85 7.85 L52.45 7.9 52.1 7.9 51.7 8.0 51.2 8.0 51.3 8.15 51.9 8.3 Q52.25 8.4 52.35 8.65 52.15 8.5 51.9 8.55 51.6 8.6 51.5 8.9 L52.35 9.3 52.65 9.2 52.4 9.35 52.15 9.3 Q51.95 9.2 51.85 9.15 L51.5 9.2 51.05 9.1 50.9 9.1 Q50.4 9.1 50.0 9.3 L49.25 9.4 Q49.25 9.5 49.1 9.55 L49.55 9.7 Q49.35 9.85 49.25 10.05 49.15 10.2 49.1 10.4 L45.75 10.4 43.2 10.4 Q43.1 10.25 43.1 10.15 43.1 10.0 43.25 9.85 L43.4 9.6 Q43.4 9.45 42.85 9.35 L42.1 9.2 Q41.7 9.2 41.25 9.0 L41.05 8.9 40.4 10.4 39.85 10.4 40.6 8.75 40.5 8.8 Q40.4 8.95 40.35 9.2 L40.2 9.3 Q40.15 9.3 40.05 9.2 L39.9 9.0 Q40.2 8.55 40.75 7.35 41.3 6.1 41.7 5.5 L42.25 4.3 42.6 3.65 42.75 3.35 43.25 2.3 Q43.6 1.6 43.75 1.5 L43.8 1.5 43.85 1.5 43.8 1.55 Q43.65 1.75 43.65 1.9 43.6 2.0 43.75 2.2 43.85 2.4 43.9 2.6 43.9 2.85 44.1 3.05 L44.25 3.35 Q44.1 3.35 44.0 3.45 L43.9 3.5 43.85 3.65 43.75 3.7 43.65 3.65 43.45 3.75 43.55 3.95 43.7 4.15 43.45 4.4 43.3 4.6 43.7 4.9 44.05 5.25 43.7 5.5 43.4 5.75 44.0 5.85 44.2 5.75 Q44.35 5.65 44.45 5.65 44.55 5.65 44.65 5.75 44.7 5.8 44.8 5.85 L45.0 5.8 46.0 6.0 Q45.85 6.35 46.15 6.45 46.55 6.6 46.65 6.75 L43.15 7.0 43.15 7.2 43.65 7.75 Q44.1 8.25 44.3 8.25 44.5 8.25 44.45 8.15 44.4 7.95 44.5 7.75 44.65 7.55 44.8 7.55 45.0 7.55 45.3 7.85 45.6 8.1 45.9 8.1 L46.4 8.05 46.9 8.0 Q47.1 8.0 47.45 8.15 L48.0 8.3 49.35 8.45 Q49.55 8.5 49.45 8.4 L49.45 8.25 49.35 8.1 Q49.3 8.0 49.35 7.9 L51.95 7.45 Q53.15 7.2 53.9 6.85 L54.45 7.05 M56.95 13.2 L57.2 13.35 57.25 13.35 57.4 13.45 Q57.75 13.7 58.0 14.0 57.95 14.05 57.7 14.05 L57.35 14.1 Q56.95 14.1 56.85 14.3 56.8 14.45 56.65 14.45 56.55 14.45 56.45 14.35 56.35 14.25 56.25 14.25 56.0 14.25 55.7 14.55 56.15 14.7 56.25 14.85 56.5 15.05 56.45 15.35 56.2 15.3 55.95 15.55 55.7 15.8 55.7 16.15 L55.55 16.1 53.6 14.3 53.75 14.35 55.3 13.35 56.25 13.55 Q56.35 13.55 56.6 13.4 56.8 13.2 56.95 13.2 M51.55 13.4 L51.2 13.4 51.2 12.8 51.55 12.7 51.55 13.35 51.55 13.4 M51.85 12.55 L51.95 12.5 Q52.2 12.7 52.2 12.85 52.2 13.0 51.95 13.1 L51.85 13.15 51.85 12.55 M49.0 11.05 L44.25 11.05 43.55 10.75 45.6 10.75 45.7 10.75 45.8 10.75 49.05 10.75 49.0 10.95 49.0 11.05 M40.1 11.05 L39.55 11.05 39.7 10.75 39.95 10.75 40.25 10.75 40.1 11.05" fill="#0e0a08" fill-rule="evenodd" stroke="none"/>
    <path d="M8.1 42.1 L8.1 41.95 51.05 41.95 51.05 42.1 8.1 42.1 M50.9 14.0 L50.9 14.1 8.1 14.1 8.1 14.0 50.9 14.0 M50.9 36.2 L51.05 36.2 51.05 36.35 8.1 36.35 8.1 36.2 50.9 36.2" fill="#d5d7d5" fill-opacity="0.8" fill-rule="evenodd" stroke="none"/>
    <path d="M8.1 49.1 L8.1 42.1 51.05 42.1 51.05 49.1 45.95 49.1 38.75 49.1 34.45 49.1 20.45 49.1 17.95 49.1 12.45 49.1 8.1 49.1 M8.1 41.95 L8.1 37.8 51.05 37.8 8.1 37.8 8.1 36.35 51.05 36.35 51.05 37.8 51.05 41.95 8.1 41.95 M36.0 11.4 L50.9 11.4 50.9 14.0 8.1 14.0 8.1 14.1 8.1 11.4 16.9 11.4 36.0 11.4" fill="#111212" fill-opacity="0.8" fill-rule="evenodd" stroke="none"/>
    <path d="M58.75 8.6 L57.35 8.0 56.55 7.55 54.45 7.05 53.9 6.85 Q53.45 6.6 53.45 6.35 L53.5 6.25 Q53.5 6.2 53.7 6.15 53.2 5.9 51.1 5.4 49.2 4.9 48.45 4.45 48.45 4.25 48.65 4.1 L48.35 3.85 Q48.2 3.7 48.2 3.45 L48.2 3.25 Q48.25 3.15 48.45 3.15 46.9 2.3 46.8 2.25 46.55 2.3 45.65 2.25 L45.6 2.25 44.85 1.9 Q44.1 1.55 43.85 1.5 L43.8 1.5 43.75 1.5 Q43.6 1.6 43.25 2.3 L42.75 3.35 42.6 3.65 42.25 4.3 41.7 5.5 Q41.3 6.1 40.75 7.35 40.2 8.55 39.9 9.0 L40.05 9.2 Q40.15 9.3 40.2 9.3 L40.35 9.2 Q40.4 8.95 40.5 8.8 L40.6 8.75 39.85 10.4 40.4 10.4 41.05 8.9 41.25 9.0 Q41.7 9.2 42.1 9.2 L42.85 9.35 Q43.4 9.45 43.4 9.6 L43.25 9.85 Q43.1 10.0 43.1 10.15 43.1 10.25 43.2 10.4 L45.75 10.4 49.1 10.4 Q49.15 10.2 49.25 10.05 49.35 9.85 49.55 9.7 L49.55 9.65 49.9 9.4 50.0 9.3 Q50.4 9.1 50.9 9.1 L51.05 9.1 51.5 9.2 Q51.65 9.25 51.85 9.35 L51.95 9.45 52.1 9.55 52.2 9.65 52.4 9.85 52.55 10.1 Q52.75 10.5 52.75 10.9 L52.75 10.95 Q52.75 11.75 52.2 12.3 L51.95 12.5 51.85 12.55 51.85 13.15 51.85 13.45 51.85 37.8 51.85 49.55 Q51.85 49.75 51.75 49.9 51.6 50.05 51.4 50.05 L38.8 50.05 19.25 50.05 7.6 50.05 Q7.4 50.05 7.25 49.9 7.1 49.75 7.1 49.55 L7.1 37.8 7.1 11.35 7.1 10.9 7.15 10.75 7.25 10.55 Q7.4 10.4 7.6 10.4 L7.8 10.4 8.25 10.4 12.25 10.4 17.5 10.4 18.0 10.4 19.95 10.4 20.2 10.4 20.45 10.4 34.5 10.4 38.6 10.4 39.85 10.4 M58.75 8.6 Q59.45 8.95 59.45 9.0 59.45 9.1 59.35 9.2 59.25 9.3 59.25 9.4 59.25 9.5 59.3 9.75 L59.4 10.1 Q59.35 10.35 59.25 10.5 59.15 10.75 58.85 10.7 L58.5 10.65 58.15 10.5 57.9 10.9 58.35 11.25 Q58.65 11.45 58.65 11.55 58.55 11.6 58.45 11.75 58.4 11.85 58.25 11.9 L58.35 12.05 58.35 12.25 Q58.35 12.55 58.05 12.6 57.7 12.65 57.65 12.75 L57.7 12.8 57.8 12.95 57.05 12.75 Q56.65 12.7 56.5 13.0 L56.95 13.2 57.2 13.35 57.25 13.35 57.4 13.45 Q57.75 13.7 58.0 14.0 57.95 14.05 57.7 14.05 L57.35 14.1 Q56.95 14.1 56.85 14.3 56.8 14.45 56.65 14.45 56.55 14.45 56.45 14.35 56.35 14.25 56.25 14.25 56.0 14.25 55.7 14.55 56.15 14.7 56.25 14.85 56.5 15.05 56.45 15.35 56.2 15.3 55.95 15.55 55.7 15.8 55.7 16.15 L55.55 16.1 53.6 14.3 Q52.65 13.6 51.85 13.45 M51.55 37.8 L51.55 13.4 51.2 13.4 51.2 37.8 51.2 49.25 51.15 49.35 51.15 49.4 51.05 49.4 45.85 49.4 45.35 49.4 41.5 49.4 40.2 49.45 40.15 49.45 38.8 49.45 12.85 49.4 M12.5 49.4 L7.95 49.4 7.85 49.35 7.8 49.35 7.75 49.25 7.75 37.8 7.75 11.4 7.75 11.2 Q7.75 11.15 7.8 11.1 L7.85 11.05 7.95 11.05 8.2 11.05 9.8 11.05 10.65 11.05 16.35 11.05 17.15 11.05 M8.1 37.8 L8.1 49.1 M56.2 10.6 Q56.05 10.7 55.8 10.7 55.6 10.65 55.5 10.5 L55.15 10.5 55.1 10.55 55.2 10.8 55.3 10.95 55.55 11.0 55.65 11.0 56.15 10.95 56.35 10.95 Q56.3 10.6 56.2 10.6 M55.2 11.45 L55.4 11.5 55.75 11.7 Q55.8 11.4 55.7 11.35 L55.4 11.3 55.35 11.3 55.15 11.25 Q55.1 11.3 55.05 11.35 L55.2 11.45 M51.85 10.9 Q51.85 10.7 51.75 10.55 51.6 10.4 51.4 10.4 L49.8 10.4 49.1 10.4 M50.15 10.75 L51.4 10.75 51.5 10.8 51.55 10.9 51.55 12.7 51.2 12.8 51.2 13.4 M51.85 10.9 L51.85 12.55 M51.2 12.8 L51.2 11.2 51.15 11.1 51.1 11.05 51.05 11.05 49.0 11.05 44.25 11.05 40.1 11.05 39.55 11.05 36.2 11.05 M36.0 11.4 L50.9 11.4 50.9 14.0 M50.9 14.1 L50.9 36.05 50.9 36.2 M49.0 11.05 L49.0 10.95 49.05 10.75 45.8 10.75 45.7 10.75 45.6 10.75 43.55 10.75 44.25 11.05 M49.05 10.75 L50.15 10.75 M51.55 13.35 L51.55 12.7 M51.55 13.35 L51.55 13.4 M44.35 3.75 L44.1 3.55 44.45 4.0 44.6 3.9 44.5 3.8 Q44.45 3.75 44.35 3.75 M39.7 10.75 L39.55 11.05 M40.25 10.75 L40.1 11.05 M39.7 10.75 L39.95 10.75 40.25 10.75 42.5 10.75 45.35 10.75 45.6 10.75 M36.25 10.75 L38.6 10.75 39.7 10.75 M36.25 10.75 L36.15 10.75 34.8 10.75 8.1 10.75 7.75 10.75 7.6 10.75 Q7.55 10.75 7.5 10.8 7.45 10.8 7.45 10.9 L7.45 11.25 7.45 27.3 M7.45 37.25 L7.45 37.8 7.45 49.55 7.5 49.7 7.55 49.7 7.6 49.75 14.65 49.75 14.9 49.75 18.6 49.75 21.1 49.75 M16.9 11.4 L36.0 11.4 M43.2 10.4 L40.4 10.4 M21.3 49.75 L34.7 49.75 Q34.75 49.65 34.85 49.75 L34.9 49.75 39.25 49.75 51.4 49.75 51.5 49.7 51.55 49.55 51.55 37.8 M8.1 37.8 L8.1 11.4 16.9 11.4 M14.65 49.75 L14.9 49.75" fill="none" stroke="#000000" stroke-linecap="round" stroke-linejoin="round" stroke-opacity="0.4" stroke-width="1.0"/>
  </g>
</svg>
