<?xml version="1.0" encoding="UTF-8" standalone="no"?>
<svg xmlns:xlink="http://www.w3.org/1999/xlink" height="77.8px" width="144.35px" xmlns="http://www.w3.org/2000/svg">
  <g transform="matrix(1.0, 0.0, 0.0, 1.0, 0.0, -0.7)">
    <path d="M133.85 5.85 L133.65 5.95 132.05 5.95 132.05 5.85 133.85 5.85 M132.05 6.15 L132.05 6.2 131.95 6.2 132.05 6.15 M84.5 6.2 Q84.55 6.1 84.6 6.0 84.75 5.85 84.95 5.85 L85.15 5.85 85.1 5.95 85.1 6.2 84.95 6.2 Q84.9 6.2 84.85 6.25 84.8 6.3 84.8 6.35 L84.5 6.2 M92.5 5.85 L92.85 5.85 94.1 5.85 94.3 5.85 94.1 5.85 94.3 5.85 94.6 6.2 93.95 6.2 92.5 5.85 M92.3 6.5 L132.05 6.5 132.05 6.7 92.8 6.7 92.3 6.5 M94.95 51.75 L95.0 51.75 132.05 51.75 132.05 51.9 105.15 51.9 98.65 51.8 95.15 51.9 94.95 51.75 M134.0 51.05 L133.8 51.2 132.05 51.2 132.05 51.05 134.0 51.05 M132.05 51.2 L132.05 51.25 93.6 51.3 92.65 51.05 94.45 51.05 94.55 51.2 132.05 51.2 M10.05 6.5 L65.75 6.5 65.65 6.6 65.55 6.65 65.45 6.7 10.85 6.7 10.05 6.5 M69.9 5.85 L69.65 5.95 66.25 5.95 65.85 6.15 63.75 6.15 65.8 5.85 69.9 5.85 M13.55 6.15 L12.55 6.15 10.35 5.85 10.75 5.85 10.85 5.85 12.8 5.85 13.1 5.85 12.8 5.85 13.05 5.85 13.1 5.85 13.55 6.15 M0.65 6.15 L0.5 6.15 Q0.45 6.15 0.4 6.2 0.35 6.25 0.35 6.35 L0.05 6.15 Q0.05 6.05 0.15 6.0 0.3 5.85 0.5 5.85 L0.7 5.85 0.65 5.9 0.65 6.15 M14.1 78.2 L14.2 78.2 21.15 78.2 46.25 78.15 46.35 78.15 46.9 78.15 66.0 78.15 Q66.1 78.1 66.2 78.15 L66.05 78.25 65.75 78.3 20.35 78.3 20.25 78.3 19.9 78.25 14.4 78.3 14.1 78.2 M13.3 77.5 L13.45 77.65 65.2 77.65 66.0 77.5 70.15 77.5 69.85 77.6 66.5 77.6 66.35 77.7 40.35 77.7 21.15 77.7 21.15 77.75 12.05 77.75 10.6 77.5 13.3 77.5 M30.5 0.75 L32.75 0.7 32.8 0.75 33.25 1.05 32.2 1.05 30.5 0.8 30.5 0.75 M47.35 0.7 L51.55 0.7 51.55 0.75 51.25 0.85 47.85 0.85 47.4 1.05 45.25 1.05 47.3 0.75 47.35 0.7 M44.95 4.9 L44.85 4.95 44.8 5.05 40.8 5.05 39.55 5.05 35.05 5.05 34.95 4.95 34.8 4.9 44.95 4.9" fill="#9a9b9b" fill-rule="evenodd" stroke="none"/>
    <path d="M138.45 5.85 L138.05 6.2 135.75 6.2 135.2 6.2 134.15 6.2 135.2 6.2 135.75 6.2 134.75 6.2 134.2 6.2 134.15 6.2 133.85 6.2 133.55 6.2 132.65 6.2 132.3 6.2 132.05 6.2 132.05 6.15 132.05 5.95 133.65 5.95 133.85 5.85 138.45 5.85 M142.6 6.2 L142.4 6.0 142.25 5.85 143.85 5.85 Q144.05 5.85 144.2 6.0 144.3 6.1 144.35 6.2 L144.35 6.35 144.2 6.4 144.0 6.35 144.0 6.25 143.9 6.2 143.85 6.2 142.6 6.2 M134.0 52.05 L93.65 52.05 93.55 51.9 93.5 51.9 93.25 51.75 94.9 51.75 94.95 51.75 95.15 51.9 98.65 51.8 105.15 51.9 132.05 51.9 132.05 51.75 132.05 51.7 133.45 51.7 Q133.5 51.65 133.6 51.7 L134.15 51.7 134.15 51.9 134.0 52.05 M84.45 6.85 L84.45 6.35 84.5 6.2 84.8 6.35 84.8 6.75 84.45 6.85 M85.15 5.85 L85.6 5.85 85.55 6.0 85.45 6.2 85.1 6.2 85.1 5.95 85.15 5.85 M89.05 5.85 L92.5 5.85 93.95 6.2 89.1 6.2 89.1 6.0 89.05 5.85 M138.0 51.4 L135.75 51.4 134.9 51.45 134.2 51.45 134.15 51.45 134.0 51.45 132.3 51.45 132.25 51.45 89.5 51.4 89.25 51.4 Q89.2 51.3 89.2 51.1 L89.2 51.05 92.65 51.05 93.6 51.3 132.05 51.25 132.05 51.2 133.8 51.2 134.0 51.05 138.65 51.05 138.25 51.4 138.0 51.4 M85.1 6.85 L85.1 6.65 85.15 6.55 85.2 6.55 85.3 6.5 85.55 6.5 85.5 6.6 85.45 6.6 Q85.35 6.85 85.1 6.85 M91.75 6.5 L92.3 6.5 92.8 6.7 132.05 6.7 132.05 6.5 132.25 6.5 132.15 6.85 92.1 6.85 91.75 6.5 M135.75 51.4 L134.2 51.4 134.15 51.45 134.2 51.4 135.75 51.4 M83.2 6.35 L83.05 6.35 82.85 6.35 82.8 6.2 Q82.75 6.15 82.7 6.15 L81.45 6.15 81.1 5.85 82.7 5.85 Q82.9 5.85 83.05 6.0 83.2 6.15 83.2 6.35 M70.55 78.15 Q70.35 78.35 70.1 78.5 L12.1 78.5 12.0 78.3 11.9 78.3 11.55 78.2 11.5 78.15 14.0 78.2 14.1 78.2 14.4 78.3 19.9 78.25 20.25 78.3 20.35 78.3 65.75 78.3 66.05 78.25 66.2 78.15 70.55 78.15 M76.65 77.85 L72.85 77.85 71.45 77.85 70.15 77.85 40.1 77.85 39.85 77.85 32.55 77.85 25.3 77.85 25.05 77.85 24.8 77.85 21.15 77.85 6.25 77.85 6.0 77.85 3.85 77.85 3.85 77.8 5.4 77.8 5.35 77.75 5.35 77.65 5.35 77.5 10.6 77.5 12.05 77.75 21.15 77.75 21.15 77.7 40.35 77.7 66.35 77.7 66.5 77.6 69.85 77.6 70.15 77.5 77.3 77.5 76.9 77.8 76.65 77.85 M0.65 6.8 L0.65 6.65 0.7 6.55 0.75 6.5 0.8 6.5 1.1 6.5 1.05 6.6 1.0 6.6 Q0.85 6.85 0.65 6.8 M9.25 6.5 L10.05 6.5 10.85 6.7 65.45 6.7 65.55 6.65 65.65 6.6 65.75 6.5 67.5 6.5 67.3 6.8 9.8 6.8 9.25 6.5 M77.1 5.85 L76.65 6.15 73.85 6.2 71.25 6.2 69.9 6.2 67.55 6.2 65.85 6.15 66.25 5.95 69.65 5.95 69.9 5.85 69.95 5.85 77.1 5.85 M12.55 6.15 L5.2 6.15 Q5.15 6.05 5.15 5.85 L10.35 5.85 12.55 6.15 M1.0 6.15 L0.65 6.15 0.65 5.9 0.7 5.85 1.15 5.85 1.0 6.15 M0.35 6.35 L0.35 6.7 0.0 6.8 0.0 6.35 0.05 6.15 0.35 6.35 M61.7 0.7 L62.85 0.7 62.85 1.05 62.4 1.05 Q62.0 0.9 61.7 0.7 M62.7 4.9 L62.85 4.9 62.85 5.2 62.0 5.2 62.15 5.15 62.4 5.0 62.7 4.9 M22.15 1.0 L22.15 0.85 22.3 0.7 22.15 1.0 M26.4 0.7 L30.5 0.75 30.5 0.8 32.2 1.05 31.95 1.05 30.5 1.05 26.45 1.05 Q26.35 0.95 26.4 0.7 M51.55 0.7 L55.6 0.7 55.2 1.05 52.3 1.05 52.15 1.05 51.9 1.05 51.9 1.1 51.55 1.1 49.15 1.05 47.4 1.05 47.85 0.85 51.25 0.85 51.55 0.75 51.55 0.7 M44.95 4.9 L47.55 4.9 47.85 5.05 44.8 5.05 44.85 4.95 44.95 4.9 M35.05 5.05 L31.35 5.05 32.4 4.9 34.8 4.9 34.95 4.95 35.05 5.05 M24.8 77.85 L25.05 77.85 24.8 77.85" fill="#525655" fill-rule="evenodd" stroke="none"/>
    <path d="M138.05 6.2 L138.45 5.85 142.25 5.85 142.4 6.0 142.6 6.2 138.05 6.2 M132.05 6.2 L132.3 6.2 132.65 6.2 132.25 6.2 85.45 6.2 85.55 6.0 85.6 5.85 89.05 5.85 89.1 6.0 89.1 6.2 93.95 6.2 94.6 6.2 131.95 6.2 132.05 6.2 M144.35 6.35 L144.35 51.55 Q144.35 51.75 144.2 51.9 144.05 52.05 143.85 52.05 L134.0 52.05 134.15 51.9 134.15 51.7 143.85 51.7 144.0 51.7 144.0 6.35 144.2 6.4 144.35 6.35 M93.65 52.05 L84.95 52.05 Q84.75 52.05 84.6 51.9 84.45 51.75 84.45 51.55 L84.45 6.85 84.8 6.75 84.8 40.3 84.8 44.0 84.8 51.55 84.85 51.7 84.9 51.7 84.95 51.7 90.65 51.75 90.8 51.75 93.25 51.75 93.5 51.9 93.55 51.9 93.65 52.05 M132.25 6.5 L143.55 6.5 143.65 6.55 143.7 6.65 143.7 51.25 143.65 51.35 143.6 51.35 143.55 51.4 138.5 51.4 138.25 51.4 138.65 51.05 143.35 51.05 143.35 6.85 132.15 6.85 132.25 6.5 M89.25 51.4 L85.3 51.4 85.2 51.35 85.15 51.35 85.1 51.25 85.1 6.85 Q85.35 6.85 85.45 6.6 L85.5 6.6 85.55 6.5 87.15 6.5 88.0 6.5 91.75 6.5 92.1 6.85 85.45 6.85 85.45 51.05 89.2 51.05 89.2 51.1 Q89.2 51.3 89.25 51.4 M132.3 6.2 L132.25 6.2 132.3 6.2 M82.85 6.35 L83.05 6.35 83.2 6.35 83.2 33.85 83.2 34.05 83.2 45.5 83.2 47.35 83.2 78.0 Q83.2 78.2 83.05 78.35 82.9 78.5 82.7 78.5 L70.1 78.5 Q70.35 78.35 70.55 78.15 L82.7 78.15 82.8 78.1 82.85 78.0 82.85 6.35 M81.1 5.85 L81.45 6.15 76.65 6.15 77.1 5.85 81.1 5.85 M67.5 6.5 L82.35 6.5 82.4 6.5 Q82.45 6.5 82.45 6.55 L82.5 6.65 82.5 45.5 82.5 47.35 82.5 77.65 82.45 77.8 82.35 77.8 77.15 77.85 76.9 77.8 77.3 77.5 82.2 77.5 82.2 45.5 82.2 34.05 82.2 6.8 67.3 6.8 67.5 6.5 M3.85 77.8 L0.8 77.8 0.7 77.8 0.65 77.65 0.65 6.8 Q0.85 6.85 1.0 6.6 L1.05 6.6 1.1 6.5 2.7 6.5 3.55 6.5 9.25 6.5 9.8 6.8 1.0 6.8 1.0 45.5 1.0 47.35 1.0 77.5 5.35 77.5 5.35 77.65 5.35 77.75 5.4 77.8 3.85 77.8 M82.2 34.05 L82.35 34.05 82.2 34.05 M65.85 6.15 L67.55 6.2 67.45 6.2 66.1 6.2 62.85 6.2 63.75 6.15 65.85 6.15 M5.2 6.15 L3.85 6.15 1.0 6.15 1.15 5.85 5.15 5.85 Q5.15 6.05 5.2 6.15 M0.35 6.7 L0.35 67.8 0.35 70.45 0.35 78.0 0.4 78.1 0.45 78.15 0.5 78.15 7.55 78.15 7.75 78.15 11.5 78.15 11.55 78.2 11.9 78.3 12.0 78.3 12.1 78.5 0.5 78.5 Q0.3 78.5 0.15 78.35 0.0 78.2 0.0 78.0 L0.0 6.8 0.35 6.7 M90.8 51.75 L90.65 51.75 90.8 51.75 M62.0 5.2 L34.05 5.2 33.7 5.2 24.15 5.2 24.1 5.15 24.6 5.15 24.45 4.9 48.55 4.85 48.8 4.85 49.4 4.85 49.45 4.85 51.7 4.85 51.9 4.85 51.9 4.9 62.7 4.9 62.4 5.0 62.15 5.15 62.0 5.2 M22.4 1.05 L22.15 1.05 22.15 1.0 22.3 0.7 26.4 0.7 Q26.35 0.95 26.45 1.05 L22.4 1.05 M55.6 0.7 L57.85 0.7 58.55 0.7 61.7 0.7 Q62.0 0.9 62.4 1.05 L55.2 1.05 55.6 0.7 M49.15 1.05 L49.05 1.1 47.65 1.1 31.95 1.05 32.2 1.05 33.25 1.05 45.25 1.05 47.4 1.05 49.15 1.05 M44.8 5.05 L47.85 5.05 47.55 4.9 44.95 4.9 34.8 4.9 32.4 4.9 31.35 5.05 35.05 5.05 39.55 5.05 40.8 5.05 44.8 5.05 M7.75 78.15 L7.55 78.15 7.75 78.15" fill="#2e3231" fill-rule="evenodd" stroke="none"/>
    <path d="M132.05 5.95 L132.05 6.15 131.95 6.2 94.6 6.2 94.3 5.85 94.45 5.85 132.05 5.85 132.05 5.95 M132.05 51.05 L132.05 51.2 94.55 51.2 94.45 51.05 132.05 51.05 M94.3 5.85 L94.45 5.85 94.3 5.85 M62.85 6.2 L61.4 6.2 40.35 6.2 37.95 6.2 29.3 6.2 28.75 6.2 25.8 6.2 24.8 6.2 24.8 6.15 21.15 6.15 13.55 6.15 13.1 5.85 13.35 5.85 13.1 5.85 13.05 5.85 12.8 5.85 10.85 5.85 10.75 5.85 13.05 5.85 13.35 5.85 65.8 5.85 63.75 6.15 62.85 6.2 M66.0 77.5 L65.2 77.65 13.45 77.65 13.3 77.5 66.0 77.5 M32.75 0.7 L47.35 0.7 47.3 0.75 45.25 1.05 33.25 1.05 32.8 0.75 32.75 0.7 M25.8 6.2 L24.8 6.15 25.8 6.2" fill="#c4c6c6" fill-rule="evenodd" stroke="none"/>
    <path d="M132.15 6.85 L143.35 6.85 143.35 51.05 138.65 51.05 134.0 51.05 132.05 51.05 94.45 51.05 92.65 51.05 89.2 51.05 85.45 51.05 85.45 6.85 92.1 6.85 132.15 6.85 M67.3 6.8 L82.2 6.8 82.2 34.05 82.35 34.05 82.2 34.05 82.2 45.5 82.2 77.5 77.3 77.5 70.15 77.5 66.0 77.5 13.3 77.5 10.6 77.5 5.35 77.5 1.0 77.5 1.0 47.35 1.0 45.5 1.0 6.8 9.8 6.8 67.3 6.8 M75.2 39.1 Q76.75 38.8 77.2 38.4 L77.2 37.7 Q76.75 37.3 75.2 36.95 73.0 36.5 69.95 36.5 66.85 36.5 64.7 36.95 62.6 37.4 62.55 38.0 L62.55 38.1 Q62.6 38.7 64.7 39.1 66.85 39.6 69.95 39.6 73.0 39.6 75.2 39.1 M76.35 68.35 Q75.95 67.9 74.35 67.6 72.2 67.15 69.1 67.15 66.05 67.15 63.9 67.6 61.8 68.05 61.7 68.65 L61.7 68.7 Q61.8 69.35 63.9 69.75 66.05 70.25 69.1 70.25 72.2 70.25 74.35 69.75 75.95 69.45 76.35 69.05 L76.35 68.35 M39.45 38.0 Q39.35 37.4 37.25 36.95 35.1 36.5 32.05 36.5 28.95 36.5 26.8 36.95 25.25 37.3 24.8 37.7 24.65 37.85 24.6 38.0 L24.6 38.1 Q24.65 38.25 24.8 38.4 25.25 38.8 26.8 39.1 28.95 39.6 32.05 39.6 35.1 39.6 37.25 39.1 39.35 38.7 39.45 38.1 L39.45 38.0 M48.35 39.1 Q50.5 39.6 53.6 39.6 56.65 39.6 58.85 39.1 60.95 38.7 61.0 38.1 L61.0 38.0 Q60.95 37.4 58.85 36.95 56.65 36.5 53.6 36.5 50.5 36.5 48.35 36.95 46.25 37.4 46.2 38.0 L46.2 38.1 Q46.25 38.7 48.35 39.1 M18.5 69.3 Q18.85 69.1 18.9 68.85 L18.9 68.75 Q18.85 68.15 16.7 67.7 14.55 67.25 11.5 67.25 8.4 67.25 6.25 67.7 4.15 68.15 4.05 68.75 L4.05 68.85 Q4.1 69.1 4.45 69.3 4.1 69.5 4.05 69.75 L4.05 69.85 Q4.15 70.45 6.25 70.85 8.4 71.35 11.5 71.35 14.55 71.35 16.7 70.85 18.85 70.45 18.9 69.85 L18.9 69.75 Q18.85 69.5 18.5 69.3 M6.65 36.95 Q4.5 37.4 4.45 38.0 L4.45 38.1 Q4.5 38.7 6.65 39.1 8.8 39.6 11.85 39.6 14.95 39.6 17.1 39.1 19.2 38.7 19.25 38.1 L19.25 38.0 Q19.2 37.4 17.1 36.95 14.95 36.5 11.85 36.5 8.8 36.5 6.65 36.95 M38.4 69.15 L38.45 69.05 38.45 68.95 Q38.4 68.35 36.3 67.9 34.1 67.45 31.05 67.45 27.95 67.45 25.8 67.9 24.75 68.15 24.2 68.4 23.65 68.65 23.65 68.95 L23.65 69.05 Q23.65 69.35 24.2 69.6 L24.25 69.65 24.25 69.85 Q24.25 70.15 24.8 70.4 25.35 70.65 26.4 70.85 28.55 71.35 31.65 71.35 34.7 71.35 36.9 70.85 39.0 70.45 39.05 69.85 L39.05 69.75 Q39.0 69.45 38.4 69.15 M45.35 68.7 Q45.45 69.35 47.55 69.75 49.7 70.25 52.75 70.25 55.85 70.25 58.0 69.75 60.15 69.35 60.2 68.7 L60.2 68.65 Q60.15 68.05 58.0 67.6 55.85 67.15 52.75 67.15 49.7 67.15 47.55 67.6 45.45 68.05 45.35 68.65 L45.35 68.7" fill="#111212" fill-opacity="0.8" fill-rule="evenodd" stroke="none"/>
    <path d="M75.2 39.1 Q73.0 39.6 69.95 39.6 66.85 39.6 64.7 39.1 62.6 38.7 62.55 38.1 L62.55 38.0 Q62.6 37.4 64.7 36.95 66.85 36.5 69.95 36.5 73.0 36.5 75.2 36.95 76.75 37.3 77.2 37.7 L77.2 38.4 Q76.75 38.8 75.2 39.1 M76.35 68.35 L76.35 69.05 Q75.95 69.45 74.35 69.75 72.2 70.25 69.1 70.25 66.05 70.25 63.9 69.75 61.8 69.35 61.7 68.7 L61.7 68.65 Q61.8 68.05 63.9 67.6 66.05 67.15 69.1 67.15 72.2 67.15 74.35 67.6 75.95 67.9 76.35 68.35 M39.45 38.0 L39.45 38.1 Q39.35 38.7 37.25 39.1 35.1 39.6 32.05 39.6 28.95 39.6 26.8 39.1 25.25 38.8 24.8 38.4 24.65 38.25 24.6 38.1 L24.6 38.0 Q24.65 37.85 24.8 37.7 25.25 37.3 26.8 36.95 28.95 36.5 32.05 36.5 35.1 36.5 37.25 36.95 39.35 37.4 39.45 38.0 M48.35 39.1 Q46.25 38.7 46.2 38.1 L46.2 38.0 Q46.25 37.4 48.35 36.95 50.5 36.5 53.6 36.5 56.65 36.5 58.85 36.95 60.95 37.4 61.0 38.0 L61.0 38.1 Q60.95 38.7 58.85 39.1 56.65 39.6 53.6 39.6 50.5 39.6 48.35 39.1 M6.65 36.95 Q8.8 36.5 11.85 36.5 14.95 36.5 17.1 36.95 19.2 37.4 19.25 38.0 L19.25 38.1 Q19.2 38.7 17.1 39.1 14.95 39.6 11.85 39.6 8.8 39.6 6.65 39.1 4.5 38.7 4.45 38.1 L4.45 38.0 Q4.5 37.4 6.65 36.95 M4.45 69.3 Q4.1 69.1 4.05 68.85 L4.05 68.75 Q4.15 68.15 6.25 67.7 8.4 67.25 11.5 67.25 14.55 67.25 16.7 67.7 18.85 68.15 18.9 68.75 L18.9 68.85 Q18.85 69.1 18.5 69.3 18.0 69.6 16.7 69.85 14.55 70.35 11.5 70.35 8.4 70.35 6.25 69.85 5.0 69.6 4.45 69.3 M24.25 69.65 L24.2 69.6 Q23.65 69.35 23.65 69.05 L23.65 68.95 Q23.65 68.65 24.2 68.4 24.75 68.15 25.8 67.9 27.95 67.45 31.05 67.45 34.1 67.45 36.3 67.9 38.4 68.35 38.45 68.95 L38.45 69.05 38.4 69.15 Q38.15 69.7 36.3 70.05 34.1 70.55 31.05 70.55 27.95 70.55 25.8 70.05 24.8 69.85 24.25 69.65 M45.35 68.7 L45.35 68.65 Q45.45 68.05 47.55 67.6 49.7 67.15 52.75 67.15 55.85 67.15 58.0 67.6 60.15 68.05 60.2 68.65 L60.2 68.7 Q60.15 69.35 58.0 69.75 55.85 70.25 52.75 70.25 49.7 70.25 47.55 69.75 45.45 69.35 45.35 68.7" fill="#111212" fill-opacity="0.85882354" fill-rule="evenodd" stroke="none"/>
    <path d="M62.85 1.05 L62.85 1.2 61.6 1.2 61.5 1.2 61.4 1.2 51.9 1.2 51.9 1.25 51.8 1.25 51.55 1.25 49.3 1.25 49.15 1.25 48.6 1.25 48.35 1.25 48.0 1.25 47.65 1.25 47.5 1.25 30.5 1.2 23.15 1.2 22.65 1.2 22.5 1.2 Q22.7 1.1 22.95 1.1 L23.05 1.05 22.5 1.05 22.3 1.25 22.35 1.15 22.4 1.1 22.5 1.05 22.4 1.05 26.45 1.05 30.5 1.05 31.95 1.05 47.65 1.1 49.05 1.1 49.15 1.05 51.55 1.1 51.9 1.1 51.9 1.05 52.15 1.05 52.3 1.05 55.2 1.05 62.4 1.05 62.85 1.05" fill="#34514d" fill-rule="evenodd" stroke="none"/>
    <path d="M61.6 1.2 L61.65 1.2 61.9 1.25 62.65 1.35 62.65 1.4 22.5 1.4 Q22.65 1.3 22.85 1.25 L22.9 1.25 23.05 1.2 23.15 1.2 30.5 1.2 47.5 1.25 47.55 1.25 48.0 1.25 48.35 1.25 48.6 1.25 49.15 1.25 50.75 1.25 51.35 1.25 51.8 1.25 51.9 1.25 51.9 1.2 61.4 1.2 61.5 1.2 61.6 1.2" fill="#d2e7e4" fill-rule="evenodd" stroke="none"/>
    <path d="M61.9 1.25 L62.65 1.25 62.85 1.25 62.85 4.85 62.7 4.9 51.9 4.9 51.9 4.85 51.7 4.85 49.45 4.85 49.4 4.85 48.8 4.85 48.55 4.85 24.45 4.9 24.6 5.15 24.1 5.15 22.65 5.15 Q22.35 5.0 22.15 4.75 L22.15 1.4 22.25 1.3 22.3 1.25 22.5 1.05 23.05 1.05 22.95 1.1 Q22.7 1.1 22.5 1.2 L22.5 1.25 22.9 1.25 22.85 1.25 Q22.65 1.3 22.5 1.4 L62.65 1.4 62.65 1.35 61.9 1.25" fill="url(#gradient0)" fill-rule="evenodd" stroke="none"/>
    <path d="M18.5 69.3 Q18.85 69.5 18.9 69.75 L18.9 69.85 Q18.85 70.45 16.7 70.85 14.55 71.35 11.5 71.35 8.4 71.35 6.25 70.85 4.15 70.45 4.05 69.85 L4.05 69.75 Q4.1 69.5 4.45 69.3 5.0 69.6 6.25 69.85 8.4 70.35 11.5 70.35 14.55 70.35 16.7 69.85 18.0 69.6 18.5 69.3 M38.4 69.15 Q39.0 69.45 39.05 69.75 L39.05 69.85 Q39.0 70.45 36.9 70.85 34.7 71.35 31.65 71.35 28.55 71.35 26.4 70.85 25.35 70.65 24.8 70.4 24.25 70.15 24.25 69.85 L24.25 69.65 Q24.8 69.85 25.8 70.05 27.95 70.55 31.05 70.55 34.1 70.55 36.3 70.05 38.15 69.7 38.4 69.15" fill="#252421" fill-rule="evenodd" stroke="none"/>
    <path d="M138.45 5.85 L133.85 5.85 132.05 5.85 94.45 5.85 94.3 5.85 94.1 5.85 92.85 5.85 92.5 5.85 89.05 5.85 85.6 5.85 85.15 5.85 84.95 5.85 Q84.75 5.85 84.6 6.0 84.55 6.1 84.5 6.2 L84.45 6.35 84.45 6.85 84.45 51.55 Q84.45 51.75 84.6 51.9 84.75 52.05 84.95 52.05 L93.65 52.05 134.0 52.05 143.85 52.05 Q144.05 52.05 144.2 51.9 144.35 51.75 144.35 51.55 L144.35 6.35 144.35 6.2 Q144.3 6.1 144.2 6.0 144.05 5.85 143.85 5.85 L142.25 5.85 138.45 5.85 M132.3 6.2 L132.65 6.2 133.55 6.2 133.85 6.2 134.15 6.2 135.2 6.2 135.75 6.2 138.05 6.2 142.6 6.2 143.85 6.2 143.9 6.2 144.0 6.25 144.0 6.35 144.0 51.7 143.85 51.7 134.15 51.7 133.6 51.7 Q133.5 51.65 133.45 51.7 L132.05 51.7 M132.25 6.5 L143.55 6.5 143.65 6.55 143.7 6.65 143.7 51.25 143.65 51.35 143.6 51.35 143.55 51.4 138.5 51.4 138.0 51.4 135.75 51.4 134.9 51.45 134.2 51.45 134.15 51.45 134.0 51.45 132.3 51.45 132.25 51.45 89.5 51.4 M89.25 51.4 L85.3 51.4 85.2 51.35 85.15 51.35 85.1 51.25 85.1 6.85 85.1 6.65 85.15 6.55 85.2 6.55 85.3 6.5 85.55 6.5 87.15 6.5 88.0 6.5 91.75 6.5 92.3 6.5 M132.15 6.85 L143.35 6.85 143.35 51.05 138.65 51.05 134.0 51.05 132.05 51.05 94.45 51.05 92.65 51.05 89.2 51.05 85.45 51.05 85.45 6.85 92.1 6.85 132.15 6.85 M132.65 6.2 L132.25 6.2 85.45 6.2 85.1 6.2 84.95 6.2 Q84.9 6.2 84.85 6.25 84.8 6.3 84.8 6.35 L84.8 6.75 84.8 40.3 M84.8 44.0 L84.8 51.55 84.85 51.7 84.9 51.7 84.95 51.7 90.65 51.75 90.8 51.75 93.25 51.75 94.9 51.75 M95.0 51.75 L132.05 51.75 M132.25 6.2 L132.3 6.2 M135.75 6.2 L134.75 6.2 134.2 6.2 134.15 6.2 M134.15 51.45 L134.2 51.4 135.75 51.4 M83.2 6.35 Q83.2 6.15 83.05 6.0 82.9 5.85 82.7 5.85 L81.1 5.85 77.1 5.85 69.95 5.85 M81.45 6.15 L82.7 6.15 Q82.75 6.15 82.8 6.2 L82.85 6.35 82.85 78.0 82.8 78.1 82.7 78.15 70.55 78.15 66.2 78.15 Q66.1 78.1 66.0 78.15 L46.9 78.15 46.35 78.15 46.25 78.15 21.15 78.2 14.2 78.2 M70.1 78.5 L82.7 78.5 Q82.9 78.5 83.05 78.35 83.2 78.2 83.2 78.0 L83.2 47.35 M83.2 45.5 L83.2 34.05 M83.2 33.85 L83.2 6.35 M67.5 6.5 L82.35 6.5 82.4 6.5 Q82.45 6.5 82.45 6.55 L82.5 6.65 82.5 45.5 M82.5 47.35 L82.5 77.65 82.45 77.8 82.35 77.8 77.15 77.85 76.65 77.85 72.85 77.85 71.45 77.85 70.15 77.85 40.1 77.85 39.85 77.85 32.55 77.85 25.3 77.85 25.05 77.85 24.8 77.85 21.15 77.85 6.25 77.85 6.0 77.85 3.85 77.85 M3.85 77.8 L0.8 77.8 0.7 77.8 0.65 77.65 0.65 6.8 0.65 6.65 0.7 6.55 0.75 6.5 0.8 6.5 1.1 6.5 2.7 6.5 3.55 6.5 9.25 6.5 10.05 6.5 M67.3 6.8 L82.2 6.8 82.2 34.05 82.2 45.5 M82.2 77.5 L77.3 77.5 70.15 77.5 66.0 77.5 13.3 77.5 10.6 77.5 5.35 77.5 1.0 77.5 1.0 47.35 M67.55 6.2 L69.9 6.2 71.25 6.2 73.85 6.2 76.65 6.15 81.45 6.15 M67.55 6.2 L67.45 6.2 66.1 6.2 62.85 6.2 61.4 6.2 40.35 6.2 37.95 6.2 29.3 6.2 28.75 6.2 25.8 6.2 24.8 6.2 M24.8 6.15 L21.15 6.15 13.55 6.15 M12.55 6.15 L5.2 6.15 3.85 6.15 1.0 6.15 0.65 6.15 0.5 6.15 Q0.45 6.15 0.4 6.2 0.35 6.25 0.35 6.35 L0.35 6.7 0.35 67.8 M0.35 70.45 L0.35 78.0 0.4 78.1 0.45 78.15 0.5 78.15 7.55 78.15 7.75 78.15 11.5 78.15 14.0 78.2 M65.8 5.85 L69.9 5.85 M90.65 51.75 L90.8 51.75 M62.7 4.9 L62.85 4.9 M65.8 5.85 L13.35 5.85 13.1 5.85 12.8 5.85 10.85 5.85 10.75 5.85 10.35 5.85 5.15 5.85 1.15 5.85 0.7 5.85 0.5 5.85 Q0.3 5.85 0.15 6.0 0.05 6.05 0.05 6.15 L0.0 6.35 0.0 6.8 0.0 78.0 Q0.0 78.2 0.15 78.35 0.3 78.5 0.5 78.5 L12.1 78.5 70.1 78.5 M24.8 6.15 L25.8 6.2 M9.8 6.8 L67.3 6.8 M13.05 5.85 L10.75 5.85 M9.8 6.8 L1.0 6.8 1.0 45.5 M5.4 77.8 L3.85 77.8 M7.55 78.15 L7.75 78.15 M25.05 77.85 L24.8 77.85" fill="none" stroke="#000000" stroke-linecap="round" stroke-linejoin="round" stroke-opacity="0.4" stroke-width="1.0"/>
  </g>
  <defs>
    <linearGradient gradientTransform="matrix(0.0, -0.0042, 0.0034, 0.0, 36.5, 3.05)" gradientUnits="userSpaceOnUse" id="gradient0" spreadMethod="pad" x1="-819.2" x2="819.2">
      <stop offset="0.0" stop-color="#3f4348" stop-opacity="0.4509804"/>
      <stop offset="0.8156862745098039" stop-color="#5db9ac" stop-opacity="0.9607843"/>
      <stop offset="1.0" stop-color="#dafff7"/>
    </linearGradient>
  </defs>
</svg>
