<?xml version="1.0" encoding="UTF-8" standalone="no"?>
<svg xmlns:xlink="http://www.w3.org/1999/xlink" height="4.4px" width="4.4px" xmlns="http://www.w3.org/2000/svg">
  <g transform="matrix(1.0, 0.0, 0.0, 1.0, 2.2, 2.2)">
    <path d="M1.8 -2.2 L1.95 -2.2 2.0 -2.15 2.05 -2.15 Q2.05 -2.1 2.1 -2.1 L2.2 -2.1 2.2 -2.05 2.1 -2.05 2.0 -2.1 1.95 -2.15 1.95 -2.15 1.9 -2.15 1.85 -2.15 Q1.8 -2.1 1.8 -2.15 L1.8 -2.2" fill="#928143" fill-rule="evenodd" stroke="none"/>
    <path d="M2.2 -2.05 L2.2 -2.05 2.15 -2.0 1.95 -2.05 1.9 -2.1 1.8 -2.1 Q1.75 -2.15 1.8 -2.15 1.8 -2.1 1.85 -2.15 L1.9 -2.15 1.95 -2.15 1.95 -2.15 2.0 -2.1 2.1 -2.05 2.2 -2.05" fill="#84722d" fill-rule="evenodd" stroke="none"/>
    <path d="M2.2 -1.9 L2.2 -1.2 2.15 -1.2 2.1 -1.2 2.1 -1.2 2.05 -1.15 2.05 -1.1 1.95 -1.05 1.95 -1.0 1.9 -0.95 1.9 -1.0 Q1.85 -1.0 1.9 -1.05 L1.9 -1.1 1.85 -1.1 1.85 -1.1 1.85 -1.2 1.85 -1.3 1.85 -1.35 1.8 -1.4 1.75 -1.45 1.75 -1.5 1.7 -1.55 1.65 -1.6 1.55 -1.6 1.5 -1.65 1.45 -1.7 Q1.4 -1.75 1.35 -1.75 L1.3 -1.75 1.25 -1.75 1.3 -1.8 1.25 -1.8 1.2 -1.85 1.15 -1.85 1.15 -1.85 1.0 -1.95 Q0.75 -2.05 0.85 -2.2 L1.8 -2.2 1.8 -2.15 Q1.75 -2.15 1.8 -2.1 L1.8 -2.05 1.85 -2.0 1.95 -2.0 2.05 -2.0 2.1 -2.0 2.1 -1.95 Q2.15 -1.9 2.2 -1.9" fill="#6d5703" fill-rule="evenodd" stroke="none"/>
    <path d="M2.2 -2.05 L2.2 -1.9 Q2.15 -1.9 2.1 -1.95 L2.1 -2.0 2.05 -2.0 1.95 -2.0 1.85 -2.0 1.8 -2.05 1.8 -2.1 1.9 -2.1 1.95 -2.05 2.15 -2.0 2.2 -2.05" fill="#776317" fill-rule="evenodd" stroke="none"/>
    <path d="M1.95 -2.2 L2.05 -2.2 2.1 -2.15 2.15 -2.15 2.2 -2.1 2.2 -2.1 2.1 -2.1 Q2.05 -2.1 2.05 -2.15 L2.0 -2.15 1.95 -2.2" fill="#a99968" fill-rule="evenodd" stroke="none"/>
    <path d="M1.35 -1.7 L1.35 -1.75 1.3 -1.75 1.25 -1.75 1.25 -1.8 1.3 -1.8 1.25 -1.75 1.3 -1.75 1.35 -1.75 Q1.4 -1.75 1.45 -1.7 L1.5 -1.65 1.5 -1.65 1.45 -1.65 1.4 -1.65 1.35 -1.7" fill="#968235" fill-rule="evenodd" stroke="none"/>
    <path d="M1.25 -1.8 L1.25 -1.75 1.3 -1.75 1.35 -1.75 1.35 -1.7 Q1.4 -1.65 1.45 -1.65 L1.5 -1.6 1.55 -1.6 1.6 -1.5 Q1.6 -1.45 1.65 -1.4 L1.75 -1.4 1.8 -1.4 1.85 -1.35 1.85 -1.3 1.8 -1.2 Q1.8 -1.1 1.85 -1.1 L1.85 -0.9 1.8 -1.0 1.8 -1.05 1.75 -1.1 1.7 -1.1 1.65 -1.25 1.6 -1.35 1.55 -1.4 1.5 -1.5 1.4 -1.55 1.35 -1.65 Q1.3 -1.65 1.25 -1.7 L1.15 -1.75 Q1.1 -1.8 1.05 -1.8 L1.1 -1.8 1.15 -1.85 1.2 -1.85 1.25 -1.8" fill="#d0bc81" fill-rule="evenodd" stroke="none"/>
    <path d="M1.35 -1.7 L1.4 -1.65 1.45 -1.65 1.5 -1.65 1.5 -1.65 1.55 -1.6 1.5 -1.6 1.45 -1.65 Q1.4 -1.65 1.35 -1.7" fill="#b09c57" fill-rule="evenodd" stroke="none"/>
    <path d="M1.05 -1.8 Q1.1 -1.8 1.15 -1.75 L1.25 -1.7 Q1.3 -1.65 1.35 -1.65 L1.4 -1.55 1.5 -1.5 1.55 -1.4 1.6 -1.35 1.6 -1.2 1.65 -1.1 1.6 -1.05 1.6 -1.1 1.55 -1.2 Q1.5 -1.3 1.55 -1.35 L1.5 -1.4 1.45 -1.45 1.4 -1.55 1.1 -1.7 0.85 -1.75 0.55 -1.8 0.55 -1.85 0.5 -1.85 0.4 -1.85 0.25 -1.9 0.1 -1.9 -0.05 -1.85 -0.1 -1.85 -0.2 -1.85 -0.3 -1.85 -0.4 -1.85 -0.65 -1.75 Q-0.8 -1.65 -0.9 -1.65 L-1.0 -1.55 -1.1 -1.45 -1.2 -1.4 -1.25 -1.35 -1.35 -1.25 -1.4 -1.15 -1.5 -1.15 -1.5 -1.15 -1.45 -1.2 -1.35 -1.3 Q-1.3 -1.35 -1.25 -1.4 -1.2 -1.45 -1.15 -1.5 L-1.1 -1.6 -1.0 -1.7 -0.9 -1.7 -0.8 -1.75 -0.7 -1.75 -0.65 -1.8 -0.55 -1.9 -0.35 -1.9 -0.15 -1.9 -0.05 -1.9 Q0.0 -1.9 0.0 -1.95 L0.25 -1.95 0.45 -1.9 0.5 -1.9 0.55 -1.9 0.6 -1.85 0.65 -1.85 0.65 -1.95 0.75 -1.9 0.8 -1.85 0.85 -1.85 0.85 -1.8 0.9 -1.8 0.95 -1.8 0.95 -1.8 1.05 -1.8 1.05 -1.8" fill="#f5e19b" fill-rule="evenodd" stroke="none"/>
    <path d="M1.15 -1.85 L1.1 -1.8 1.05 -1.8 1.05 -1.8 1.0 -1.8 1.0 -1.85 1.0 -1.85 1.15 -1.85 1.15 -1.85 M0.95 -1.8 L0.95 -1.8 0.9 -1.8 0.9 -1.8 0.85 -1.85 0.85 -1.85 0.85 -1.85 0.9 -1.9 0.95 -1.9 Q0.95 -1.85 0.95 -1.85 L0.95 -1.85 0.95 -1.8" fill="#9d8832" fill-rule="evenodd" stroke="none"/>
    <path d="M2.2 0.0 L2.2 0.1 2.1 0.05 2.05 0.05 1.9 0.0 Q1.85 -0.05 1.85 -0.15 L1.85 -0.3 1.7 -0.8 1.7 -0.9 1.6 -1.0 1.55 -1.1 1.5 -1.2 1.45 -1.35 1.4 -1.45 1.4 -1.5 1.35 -1.5 1.3 -1.55 1.2 -1.55 Q1.15 -1.6 1.15 -1.65 L1.05 -1.65 0.95 -1.7 0.85 -1.75 1.1 -1.7 1.4 -1.55 1.45 -1.45 1.5 -1.4 1.55 -1.35 Q1.5 -1.3 1.55 -1.2 L1.6 -1.1 1.6 -1.05 1.65 -1.05 Q1.7 -1.05 1.75 -0.95 L1.75 -0.8 1.8 -0.7 1.85 -0.6 1.9 -0.35 1.9 -0.25 1.95 -0.1 Q2.0 0.0 2.2 0.0 M1.4 -1.45 L1.4 -1.45 1.4 -1.45" fill="#fef1af" fill-rule="evenodd" stroke="none"/>
    <path d="M0.95 -1.7 L1.05 -1.65 1.15 -1.65 Q1.15 -1.6 1.2 -1.55 L1.3 -1.55 1.35 -1.5 1.4 -1.5 1.3 -1.5 1.25 -1.5 1.2 -1.5 1.15 -1.5 1.1 -1.55 0.95 -1.7 M1.3 -1.5 L1.3 -1.5" fill="#fbf5cc" fill-rule="evenodd" stroke="none"/>
    <path d="M1.15 -1.5 L1.2 -1.5 1.2 -1.5 1.15 -1.5" fill="#cd81f5" fill-rule="evenodd" stroke="none"/>
    <path d="M2.2 0.2 L2.2 0.45 2.1 0.45 2.0 0.45 1.95 0.5 1.9 0.45 1.9 0.5 1.85 0.5 1.75 0.5 1.6 0.5 1.55 0.5 Q1.5 0.55 1.5 0.6 L1.45 0.65 1.4 0.7 1.35 0.75 1.25 0.85 1.2 0.85 1.15 0.9 1.1 0.95 1.05 0.95 1.0 0.95 1.0 1.0 0.95 1.0 Q0.85 1.05 0.85 1.05 L0.8 1.05 0.7 1.1 0.65 1.1 0.45 1.1 0.25 1.15 0.15 1.15 0.1 1.2 -0.15 1.2 -0.2 1.2 -0.2 1.2 -0.4 1.2 -0.4 1.2 -0.45 1.2 -0.45 1.2 -0.55 1.15 -0.65 1.15 -0.65 1.15 -0.75 1.15 -0.85 1.1 -0.85 1.05 -0.9 1.05 -0.95 1.0 -1.1 0.95 -1.1 0.9 -1.15 0.85 -1.2 0.8 -1.25 0.75 -1.3 0.7 -1.3 0.65 -1.35 0.65 -1.35 0.6 Q-1.35 0.55 -1.4 0.55 L-1.45 0.6 -1.45 0.55 -1.45 0.45 -1.45 0.35 -1.5 0.35 -1.5 0.3 -1.55 0.25 -1.55 0.2 -1.55 0.1 -1.6 0.05 -1.6 -0.25 -1.6 -0.45 -1.55 -0.5 -1.55 -0.6 -1.5 -0.7 -1.5 -0.8 -1.45 -0.85 Q-1.4 -0.9 -1.45 -0.95 L-1.45 -1.0 -1.5 -1.1 -1.4 -1.15 -1.4 -1.1 -1.35 -1.1 -1.3 -1.1 Q-1.3 -1.05 -1.3 -1.05 L-1.25 -1.1 -1.25 -1.15 -1.2 -1.2 -1.2 -1.2 -1.15 -1.25 -1.15 -1.35 -1.1 -1.35 -1.0 -1.4 -0.95 -1.45 -0.9 -1.45 -0.9 -1.45 -0.85 -1.45 -0.85 -1.5 -0.8 -1.5 -0.8 -1.55 -0.65 -1.6 -0.55 -1.65 -0.55 -1.65 -0.5 -1.65 -0.45 -1.7 -0.35 -1.7 -0.3 -1.75 -0.3 -1.75 -0.25 -1.75 -0.2 -1.8 -0.15 -1.8 -0.1 -1.8 0.2 -1.8 0.5 -1.8 0.65 -1.8 0.8 -1.75 0.95 -1.65 Q1.0 -1.6 1.1 -1.55 L1.15 -1.5 1.2 -1.5 1.2 -1.5 1.25 -1.5 1.3 -1.5 1.3 -1.5 1.4 -1.45 1.4 -1.45 1.4 -1.15 1.45 -1.15 1.45 -1.15 1.45 -1.1 1.5 -1.1 1.5 -1.05 Q1.5 -1.0 1.55 -1.0 L1.55 -0.95 1.6 -0.85 1.6 -0.8 1.65 -0.75 1.65 -0.65 Q1.65 -0.6 1.7 -0.5 L1.7 -0.35 1.7 -0.2 1.7 -0.15 1.7 0.05 1.7 0.1 1.65 0.15 1.65 0.2 Q1.65 0.25 1.65 0.25 L1.6 0.3 1.75 0.35 1.85 0.3 1.9 0.25 1.95 0.25 2.05 0.25 2.1 0.25 2.15 0.2 2.2 0.2 M1.1 -1.25 L1.1 -1.25 1.1 -1.3 1.05 -1.3 1.05 -1.35 1.0 -1.35 0.9 -1.45 0.85 -1.5 0.85 -1.5 0.85 -1.5 0.8 -1.5 0.75 -1.55 0.7 -1.6 0.65 -1.6 0.65 -1.6 0.6 -1.6 0.45 -1.65 0.3 -1.65 0.25 -1.65 0.2 -1.65 0.2 -1.65 0.15 -1.65 0.05 -1.65 -0.05 -1.65 -0.1 -1.65 -0.1 -1.6 -0.15 -1.5 -0.15 -1.4 -0.15 -1.35 0.2 -1.35 0.5 -1.4 0.55 -1.4 Q0.6 -1.4 0.6 -1.4 L0.65 -1.4 0.7 -1.4 Q0.65 -1.35 0.7 -1.35 L0.75 -1.35 0.8 -1.3 0.85 -1.25 0.85 -1.2 0.75 -1.2 0.65 -1.2 0.55 -1.2 0.55 -1.2 0.45 -1.2 0.45 -1.2 0.35 -1.2 0.3 -1.2 0.0 -1.15 0.0 -1.15 0.05 -1.15 0.05 -1.1 0.1 -1.1 0.15 -1.05 0.4 -0.95 0.45 -0.9 0.5 -0.85 Q0.55 -0.85 0.6 -0.8 L0.65 -0.8 0.65 -0.8 0.7 -0.75 0.75 -0.75 0.65 -0.7 0.6 -0.7 0.55 -0.65 0.55 -0.65 0.55 -0.3 0.5 0.0 0.45 0.0 0.3 0.0 0.2 0.0 0.2 0.0 0.2 -0.05 0.2 -0.1 Q0.4 -0.05 0.35 -0.15 L0.35 -0.3 0.35 -0.35 0.35 -0.6 0.35 -0.75 0.25 -0.8 0.15 -0.8 Q0.1 -0.8 0.1 -0.8 L0.05 -0.85 0.0 -0.85 0.0 -0.9 -0.05 -0.9 -0.05 -0.95 -0.1 -0.95 -0.1 -0.95 -0.15 -0.9 -0.2 -0.9 -0.2 -0.85 -0.15 -0.85 -0.2 -0.8 -0.2 -0.75 -0.35 -0.75 -0.5 -0.75 -0.5 -0.7 -0.35 -0.7 -0.25 -0.7 -0.2 -0.65 -0.15 -0.65 -0.15 -0.6 -0.1 -0.6 -0.1 -0.4 -0.1 -0.1 -0.1 0.0 -0.15 0.05 -0.15 0.05 -0.1 0.1 -0.05 0.15 0.0 0.15 0.05 0.2 0.1 0.25 0.0 0.25 0.0 0.25 -0.05 0.25 -0.1 0.25 -0.1 0.25 -0.15 0.25 -0.15 0.2 -0.2 0.2 -0.25 0.1 -0.35 0.05 Q-0.3 0.0 -0.35 0.0 L-0.4 0.0 -0.45 0.0 -0.5 0.0 -0.5 -0.05 -0.45 -0.1 -0.45 -0.1 -0.35 -0.1 -0.3 -0.1 -0.3 -0.15 -0.35 -0.2 -0.35 -0.15 -0.55 -0.15 -0.6 -0.1 -0.6 0.0 -0.65 0.05 -0.7 0.05 -0.7 0.05 -0.75 0.05 -0.8 0.05 -0.75 0.0 -0.8 0.0 -0.8 -0.25 -0.85 -0.45 -0.85 -0.7 -0.9 -0.7 -0.9 -0.4 -0.9 -0.2 -0.9 -0.1 -0.95 -0.05 -0.95 0.0 -1.0 0.0 -1.0 0.05 -1.0 0.1 -1.05 0.15 -1.1 0.25 -1.15 0.3 -1.15 0.35 -1.15 0.35 -1.2 0.4 -1.2 0.45 -1.15 0.45 -1.15 0.5 -1.15 0.5 -1.1 0.55 -1.05 0.6 -1.05 0.65 -1.05 0.7 -1.0 0.7 -1.0 0.75 -0.95 0.75 -0.85 0.9 -0.7 0.95 -0.65 1.0 -0.6 0.95 -0.55 1.0 -0.5 1.0 -0.5 1.0 -0.45 1.0 -0.35 1.0 -0.3 1.05 -0.2 1.0 -0.2 1.05 -0.1 1.05 0.0 1.05 0.0 1.0 0.1 1.0 0.15 1.0 0.35 0.95 0.55 0.95 0.55 0.9 0.6 0.9 0.65 0.9 0.7 0.9 0.7 0.85 0.85 0.8 0.85 0.75 Q0.9 0.75 0.9 0.75 L0.95 0.7 1.05 0.6 1.1 0.55 1.15 0.5 1.2 0.45 1.25 0.35 1.25 0.3 1.2 0.25 1.15 0.2 Q1.2 0.15 1.1 0.15 L1.05 0.1 1.05 0.05 1.05 -0.1 1.05 -0.3 1.1 -0.3 1.05 -0.3 1.05 -0.5 Q1.1 -0.5 1.1 -0.5 L1.05 -0.55 1.05 -0.65 1.1 -0.75 1.1 -0.75 1.1 -0.9 1.1 -0.9 1.1 -1.15 1.1 -1.2 1.1 -1.25 M1.05 -0.1 L1.05 -0.1 M0.0 1.0 L0.0 1.0 M-0.95 0.75 L-0.95 0.75 M-1.0 0.7 L-1.0 0.7 M-1.1 0.25 L-1.1 0.25 M-0.9 -0.1 L-0.9 -0.1 M-0.9 -0.2 L-0.9 -0.2 M-0.8 -0.25 L-0.8 -0.25 M-0.8 0.0 L-0.8 0.0 M-0.2 0.2 Q-0.15 0.2 -0.2 0.2 L-0.2 0.2 M-0.05 0.25 L-0.05 0.25 M0.0 0.25 L0.0 0.25 M-0.1 0.0 L-0.1 0.0 M-0.15 -0.9 L-0.15 -0.9 M0.35 -0.3 L0.35 -0.3 M0.5 0.0 L0.5 0.0 M0.85 -1.2 L0.85 -1.2 M0.85 -1.5 L0.85 -1.5 M0.9 -1.45 L0.9 -1.45 M-0.85 -1.5 L-0.85 -1.5 M-1.4 -1.15 L-1.4 -1.15 M-1.55 -0.6 L-1.55 -0.6 M-1.6 0.05 L-1.6 0.05 M-1.35 0.6 L-1.35 0.6 M1.45 -1.15 L1.45 -1.15 M1.4 -0.5 L1.4 -0.6 1.4 -0.4 1.35 -0.3 1.35 -0.25 1.35 0.1 1.4 0.1 1.45 0.05 1.45 -0.05 1.45 -0.4 1.45 -0.45 1.4 -0.45 1.4 -0.5 M1.45 -0.4 L1.45 -0.4 M-0.6 -1.4 L-0.6 -1.4 -0.45 -1.4 -0.35 -1.4 -0.3 -1.45 -0.3 -1.5 Q-0.3 -1.55 -0.35 -1.55 L-0.4 -1.5 -0.45 -1.5 -0.5 -1.45 -0.5 -1.45 -0.55 -1.45 -0.6 -1.4 M-0.55 -1.45 L-0.55 -1.45 M-0.4 -1.5 L-0.4 -1.5 M-0.35 -1.4 L-0.35 -1.4 M-1.1 -0.8 L-1.1 -0.85 Q-1.1 -0.9 -1.15 -0.9 L-1.15 -0.75 -1.1 -0.7 -1.1 -0.75 -1.1 -0.8 M-1.1 -0.5 L-1.1 -0.55 -1.1 -0.6 -1.15 -0.55 -1.2 -0.55 -1.25 -0.55 -1.3 -0.5 -1.35 -0.4 -1.35 -0.35 -1.35 -0.2 -1.3 -0.2 -1.3 -0.2 -1.25 -0.25 -1.25 -0.25 -1.2 -0.3 -1.2 -0.3 -1.15 -0.3 Q-1.1 -0.3 -1.1 -0.4 L-1.1 -0.45 -1.1 -0.5 M-1.2 0.0 L-1.15 -0.05 -1.15 -0.1 -1.2 -0.1 -1.2 -0.1 -1.25 -0.05 -1.3 0.0 -1.3 0.15 -1.25 0.1 -1.25 0.05 -1.2 0.05 -1.2 0.0 -1.2 0.0 M-1.25 0.1 L-1.25 0.1 M-1.3 0.15 L-1.3 0.15 M-0.3 -1.15 L-0.25 -1.15 -0.3 -1.2 -0.6 -1.2 -0.9 -1.2 -0.9 -1.0 -0.9 -0.85 -0.8 -0.9 Q-0.75 -0.9 -0.7 -0.95 L-0.65 -0.95 -0.6 -0.95 -0.6 -0.95 -0.55 -1.0 -0.5 -1.0 -0.45 -1.05 -0.4 -1.05 -0.4 -1.05 -0.35 -1.1 -0.35 -1.1 -0.3 -1.15 -0.3 -1.15 M-0.7 -0.95 L-0.7 -0.95 M-0.55 -0.45 L-0.4 -0.5 -0.4 -0.5 -0.35 -0.5 -0.35 -0.6 -0.45 -0.6 -0.6 -0.6 -0.6 -0.5 -0.55 -0.45 M-0.4 -0.35 L-0.55 -0.35 Q-0.65 -0.35 -0.6 -0.3 L-0.5 -0.25 -0.45 -0.3 -0.35 -0.3 Q-0.3 -0.3 -0.3 -0.35 -0.3 -0.4 -0.35 -0.4 L-0.4 -0.35 -0.4 -0.35 -0.4 -0.35" fill="#5802ff" fill-rule="evenodd" stroke="none"/>
    <path d="M1.2 -1.5 L1.25 -1.5 1.3 -1.5 1.25 -1.5 1.2 -1.5" fill="#cf8cef" fill-rule="evenodd" stroke="none"/>
    <path d="M1.1 -1.25 L1.1 -1.25 1.1 -1.15 1.05 -0.85 1.05 -0.5 1.05 -0.4 Q1.0 -0.35 1.05 -0.3 L1.05 -0.25 1.0 -0.15 1.0 -0.05 Q1.0 0.0 1.0 0.05 L1.05 0.05 1.05 0.1 1.1 0.15 Q1.2 0.15 1.15 0.2 L1.2 0.25 1.25 0.3 1.25 0.35 1.2 0.45 1.15 0.5 1.05 0.6 0.95 0.65 0.95 0.7 0.9 0.75 Q0.9 0.75 0.85 0.75 L0.85 0.8 0.7 0.85 0.65 0.9 0.55 0.9 0.55 0.95 0.35 0.95 0.15 1.0 0.0 1.0 0.0 1.0 -0.2 1.0 -0.3 1.0 -0.4 1.0 -0.5 1.0 -0.55 1.0 -0.6 0.95 -0.85 0.8 -0.9 0.75 -0.95 0.7 Q-1.0 0.6 -1.0 0.55 L-0.9 0.55 -0.85 0.55 -0.75 0.5 -0.7 0.45 -0.55 0.25 -0.55 0.15 -0.55 0.1 -0.6 0.1 Q-0.65 0.1 -0.55 0.0 L-0.4 0.05 Q-0.35 0.05 -0.35 0.05 L-0.25 0.1 -0.2 0.2 -0.15 0.2 -0.15 0.25 -0.1 0.25 -0.1 0.25 -0.05 0.25 -0.05 0.25 0.0 0.25 0.0 0.25 0.05 0.3 0.1 0.3 0.1 0.25 0.05 0.2 -0.05 0.15 Q-0.1 0.05 -0.05 0.0 L0.1 -0.1 0.15 -0.15 0.2 -0.2 0.2 -0.4 0.25 -0.45 0.3 -0.35 0.35 -0.25 0.35 -0.15 Q0.35 -0.1 0.3 -0.1 L0.2 -0.1 0.2 -0.05 0.2 0.0 0.2 0.05 0.25 0.05 0.35 0.05 0.45 0.0 0.5 0.0 0.5 0.05 0.45 0.1 0.5 0.15 0.55 0.25 0.5 0.2 0.45 0.2 0.45 0.15 0.4 0.1 0.35 0.1 0.3 0.1 0.25 0.1 0.25 0.15 0.25 0.2 0.3 0.25 0.4 0.3 0.5 0.4 0.5 0.45 0.4 0.35 0.25 0.25 0.2 0.35 0.15 0.4 Q0.3 0.35 0.3 0.45 L0.25 0.45 0.25 0.4 0.2 0.4 0.15 0.4 0.1 0.4 -0.05 0.4 -0.25 0.4 -0.25 0.3 -0.3 0.2 -0.3 0.15 -0.35 0.15 -0.35 0.1 -0.4 0.1 -0.45 0.1 -0.45 0.15 -0.5 0.25 -0.45 0.4 -0.45 0.45 -0.45 0.5 -0.4 0.55 -0.45 0.55 -0.5 0.5 Q-0.55 0.4 -0.6 0.45 L-0.75 0.55 -0.85 0.65 Q-0.9 0.7 -0.8 0.8 L-0.7 0.9 -0.25 1.0 0.15 0.95 0.3 0.95 0.45 0.9 Q0.65 0.85 0.75 0.8 L0.95 0.6 1.05 0.4 1.05 0.25 1.0 0.1 1.0 -0.7 1.0 -0.95 0.95 -1.2 0.9 -1.2 0.85 -1.2 0.85 -1.2 0.85 -1.25 0.8 -1.3 0.75 -1.35 0.7 -1.35 0.75 -1.4 0.7 -1.4 0.6 -1.4 0.45 -1.4 0.3 -1.4 0.1 -1.4 -0.1 -1.4 -0.1 -1.6 -0.05 -1.65 0.05 -1.65 0.15 -1.65 0.2 -1.65 0.2 -1.65 0.3 -1.6 0.45 -1.6 0.65 -1.6 0.7 -1.6 0.75 -1.55 0.8 -1.5 0.8 -1.5 0.85 -1.5 0.85 -1.5 0.85 -1.5 0.9 -1.45 0.9 -1.45 0.95 -1.4 1.0 -1.35 1.05 -1.35 1.05 -1.3 1.05 -1.25 1.1 -1.25 M0.85 -1.2 L0.85 -1.2 M-0.4 0.55 L-0.4 0.55 M-0.2 0.2 L-0.2 0.2 M-0.75 0.5 L-0.75 0.5 M-0.6 0.95 L-0.6 0.95" fill="#fdf9e1" fill-rule="evenodd" stroke="none"/>
    <path d="M1.05 -1.3 L1.1 -1.3 1.1 -1.25 1.05 -1.25 1.05 -1.3" fill="#c178f8" fill-rule="evenodd" stroke="none"/>
    <path d="M1.4 -1.45 L1.4 -1.45 1.4 -1.15 1.4 -1.45" fill="#c57cef" fill-rule="evenodd" stroke="none"/>
    <path d="M1.4 -1.5 L1.4 -1.45 1.3 -1.5 1.4 -1.5" fill="#d099e7" fill-rule="evenodd" stroke="none"/>
    <path d="M2.2 0.1 L2.2 0.15 2.1 0.15 2.0 0.2 1.85 0.15 Q1.8 0.05 1.8 -0.15 L1.8 -0.3 1.75 -0.45 1.65 -0.8 1.5 -1.15 1.5 -1.15 1.45 -1.15 1.4 -1.15 1.4 -1.45 1.45 -1.35 1.5 -1.2 1.55 -1.1 1.6 -1.0 1.7 -0.9 1.7 -0.8 1.85 -0.3 1.85 -0.15 Q1.85 -0.05 1.9 0.0 L2.05 0.05 2.1 0.05 2.2 0.1" fill="#fffec2" fill-rule="evenodd" stroke="none"/>
    <path d="M1.6 -1.5 L1.55 -1.6 1.65 -1.6 1.7 -1.55 1.75 -1.5 1.75 -1.45 1.7 -1.5 1.6 -1.5" fill="#a8914f" fill-rule="evenodd" stroke="none"/>
    <path d="M1.85 -1.35 L1.8 -1.4 1.75 -1.4 1.65 -1.4 Q1.6 -1.45 1.6 -1.5 L1.7 -1.5 1.75 -1.45 1.8 -1.4 1.85 -1.35" fill="#bda86c" fill-rule="evenodd" stroke="none"/>
    <path d="M2.2 -0.3 L2.2 -0.15 2.1 -0.1 2.05 -0.15 2.0 -0.25 2.0 -0.4 1.95 -0.55 1.9 -0.75 1.85 -0.75 Q1.8 -0.8 1.8 -0.8 L1.8 -0.9 1.75 -1.0 Q1.8 -1.05 1.7 -1.05 L1.65 -1.05 1.6 -1.05 1.65 -1.1 1.6 -1.2 1.6 -1.35 1.65 -1.25 1.7 -1.1 1.75 -1.1 1.8 -1.05 1.8 -1.0 1.85 -0.9 1.9 -0.9 1.9 -0.8 1.95 -0.75 2.0 -0.7 2.05 -0.6 2.05 -0.5 2.1 -0.45 2.15 -0.4 2.15 -0.35 2.2 -0.3" fill="#e0cc95" fill-rule="evenodd" stroke="none"/>
    <path d="M0.75 -2.0 L0.7 -2.1 0.75 -2.15 0.8 -2.1 0.8 -2.05 0.85 -2.0 0.85 -1.85 0.8 -1.9 0.8 -1.9 0.75 -1.95 0.75 -2.0 M0.85 -1.85 L0.85 -1.85" fill="#8d7302" fill-rule="evenodd" stroke="none"/>
    <path d="M0.7 -2.1 L0.75 -2.0 0.7 -2.0 0.65 -2.0 Q0.65 -2.05 0.7 -2.1" fill="#9e862a" fill-rule="evenodd" stroke="none"/>
    <path d="M0.55 -2.2 L0.85 -2.2 Q0.75 -2.05 1.0 -1.95 L1.15 -1.85 1.0 -1.85 1.0 -1.85 0.95 -1.85 Q0.95 -1.85 0.95 -1.9 L0.9 -1.9 0.85 -1.85 0.85 -2.0 0.8 -2.05 0.8 -2.1 0.75 -2.15 0.7 -2.1 Q0.65 -2.05 0.65 -2.0 L0.65 -1.95 0.6 -1.95 0.6 -2.05 0.6 -2.1 0.55 -2.2" fill="#756105" fill-rule="evenodd" stroke="none"/>
    <path d="M0.35 -2.2 L0.55 -2.2 0.6 -2.1 0.6 -2.05 Q0.55 -2.1 0.5 -2.05 L0.45 -2.0 0.4 -2.0 0.4 -2.05 0.35 -2.1 0.4 -2.15 0.35 -2.2" fill="#8b7628" fill-rule="evenodd" stroke="none"/>
    <path d="M0.6 -2.05 L0.6 -1.95 0.6 -2.0 0.55 -1.95 0.45 -2.0 0.5 -2.05 Q0.55 -2.1 0.6 -2.05" fill="#ab9547" fill-rule="evenodd" stroke="none"/>
    <path d="M1.0 -1.85 L1.0 -1.8 1.05 -1.8 0.95 -1.8 0.95 -1.85 0.95 -1.85 1.0 -1.85 M0.9 -1.8 L0.85 -1.8 0.85 -1.85 0.8 -1.85 0.75 -1.9 0.65 -1.95 0.65 -1.85 0.6 -1.85 0.55 -1.9 0.55 -1.95 0.6 -2.0 0.6 -1.95 0.65 -1.95 0.65 -2.0 0.7 -2.0 0.75 -2.0 0.75 -1.95 0.8 -1.9 0.8 -1.9 0.85 -1.85 0.85 -1.85 0.9 -1.8 0.9 -1.8" fill="#c8b05a" fill-rule="evenodd" stroke="none"/>
    <path d="M0.55 -1.9 L0.5 -1.9 0.45 -1.9 0.25 -1.95 0.0 -1.95 Q0.0 -1.9 -0.05 -1.9 L-0.15 -1.9 -0.35 -1.9 -0.55 -1.9 -0.65 -1.8 -0.7 -1.75 -0.8 -1.75 -0.9 -1.7 -1.0 -1.7 -1.1 -1.6 -1.15 -1.5 Q-1.2 -1.45 -1.25 -1.4 -1.3 -1.35 -1.35 -1.3 L-1.45 -1.2 -1.45 -1.3 -1.35 -1.4 -1.25 -1.45 -1.2 -1.6 -1.1 -1.7 Q-1.05 -1.7 -1.0 -1.75 L-0.95 -1.8 Q-0.9 -1.8 -0.85 -1.85 -0.8 -1.85 -0.75 -1.9 L-0.65 -1.9 -0.5 -1.95 -0.45 -1.95 -0.4 -1.95 -0.25 -1.95 -0.15 -1.95 -0.1 -1.95 -0.1 -1.95 Q-0.05 -1.95 0.0 -2.0 L0.05 -2.05 0.15 -2.0 0.25 -2.0 0.25 -2.1 0.35 -2.05 0.35 -2.05 Q0.4 -2.0 0.4 -2.0 L0.45 -2.0 0.55 -1.95 0.55 -1.9" fill="#e0cb84" fill-rule="evenodd" stroke="none"/>
    <path d="M-0.1 -2.2 L0.15 -2.2 0.25 -2.15 0.35 -2.2 0.35 -2.2 0.4 -2.15 0.35 -2.1 0.3 -2.1 0.3 -2.15 0.2 -2.15 0.1 -2.15 0.15 -2.1 0.25 -2.0 0.15 -2.05 0.1 -2.05 Q0.05 -2.15 0.0 -2.1 L-0.1 -2.1 Q-0.15 -2.05 -0.15 -2.05 L-0.25 -2.05 -0.3 -2.0 -0.35 -2.0 -0.3 -2.0 -0.3 -2.1 -0.2 -2.1 -0.15 -2.1 Q-0.1 -2.15 -0.1 -2.2" fill="#af9955" fill-rule="evenodd" stroke="none"/>
    <path d="M-1.45 -1.2 L-1.5 -1.15 -1.5 -1.15 Q-1.45 -1.2 -1.5 -1.3 L-1.4 -1.4 -1.35 -1.5 -1.25 -1.6 -1.15 -1.7 -1.15 -1.75 -1.1 -1.75 -1.15 -1.8 -1.15 -1.85 -1.1 -1.85 -1.05 -1.9 Q-1.05 -1.85 -1.0 -1.85 -0.95 -1.85 -0.9 -1.85 L-0.85 -1.9 -0.75 -1.95 -0.7 -1.95 -0.6 -1.95 -0.6 -1.95 -0.55 -1.95 -0.55 -2.0 -0.35 -2.0 -0.3 -2.0 -0.25 -2.05 -0.15 -2.05 Q-0.15 -2.05 -0.1 -2.1 L0.0 -2.1 Q0.05 -2.15 0.1 -2.05 L0.15 -2.05 0.25 -2.0 0.15 -2.1 0.1 -2.15 0.2 -2.15 0.3 -2.15 0.3 -2.1 0.35 -2.1 0.4 -2.05 0.4 -2.0 Q0.4 -2.0 0.35 -2.05 L0.35 -2.05 0.25 -2.1 0.25 -2.0 0.15 -2.0 0.05 -2.05 0.0 -2.0 Q-0.05 -1.95 -0.1 -1.95 L-0.1 -1.95 -0.15 -1.95 -0.25 -1.95 -0.4 -1.95 -0.45 -1.95 -0.5 -1.95 -0.65 -1.9 -0.75 -1.9 Q-0.8 -1.85 -0.85 -1.85 -0.9 -1.8 -0.95 -1.8 L-1.0 -1.75 Q-1.05 -1.7 -1.1 -1.7 L-1.2 -1.6 -1.25 -1.45 -1.35 -1.4 -1.45 -1.3 -1.45 -1.2 M-0.35 -2.0 L-0.35 -2.0 M-1.5 -1.1 L-1.55 -1.1 -1.6 -1.0 -1.55 -1.1 -1.5 -1.15 -1.5 -1.1" fill="#ccb66c" fill-rule="evenodd" stroke="none"/>
    <path d="M-0.05 -1.85 L0.1 -1.9 0.25 -1.9 0.4 -1.85 0.5 -1.85 0.55 -1.85 0.55 -1.8 0.25 -1.85 -0.05 -1.85" fill="#feefb5" fill-rule="evenodd" stroke="none"/>
    <path d="M0.15 -2.2 L0.35 -2.2 0.25 -2.15 0.15 -2.2" fill="#7f6b1d" fill-rule="evenodd" stroke="none"/>
    <path d="M0.2 -1.65 L0.25 -1.65 0.3 -1.65 0.3 -1.6 0.2 -1.65" fill="#c97ff4" fill-rule="evenodd" stroke="none"/>
    <path d="M0.3 -1.65 L0.45 -1.65 0.6 -1.6 0.45 -1.6 0.3 -1.6 0.3 -1.65" fill="#8e37fb" fill-rule="evenodd" stroke="none"/>
    <path d="M0.6 -1.6 L0.65 -1.6 0.45 -1.6 0.3 -1.6 0.45 -1.6 0.6 -1.6" fill="#d090f1" fill-rule="evenodd" stroke="none"/>
    <path d="M-0.05 -1.65 L0.05 -1.65 0.15 -1.65 0.05 -1.65 -0.05 -1.65" fill="#b55ef9" fill-rule="evenodd" stroke="none"/>
    <path d="M0.6 -1.4 Q0.6 -1.4 0.55 -1.4 L0.5 -1.4 0.3 -1.4 0.45 -1.4 0.6 -1.4" fill="#d293f6" fill-rule="evenodd" stroke="none"/>
    <path d="M0.5 -1.4 L0.2 -1.35 -0.15 -1.35 -0.15 -1.4 -0.1 -1.4 0.1 -1.4 0.3 -1.4 0.5 -1.4" fill="#973efc" fill-rule="evenodd" stroke="none"/>
    <path d="M0.85 -1.75 L0.95 -1.7 1.1 -1.55 Q1.0 -1.6 0.95 -1.65 L0.8 -1.75 0.65 -1.8 0.5 -1.8 0.2 -1.8 -0.1 -1.8 -0.1 -1.85 -0.05 -1.85 0.25 -1.85 0.55 -1.8 0.85 -1.75" fill="#c680e9" fill-rule="evenodd" stroke="none"/>
    <path d="M0.65 -1.6 L0.65 -1.6 0.7 -1.6 0.65 -1.6" fill="#c680f4" fill-rule="evenodd" stroke="none"/>
    <path d="M0.75 -1.35 L0.7 -1.35 Q0.65 -1.35 0.7 -1.4 L0.65 -1.4 0.6 -1.4 0.7 -1.4 0.75 -1.4 0.7 -1.35 0.75 -1.35" fill="#cb8ff2" fill-rule="evenodd" stroke="none"/>
    <path d="M0.9 -1.45 L1.0 -1.35 0.95 -1.4 0.9 -1.45" fill="#b56cf8" fill-rule="evenodd" stroke="none"/>
    <path d="M0.8 -1.5 L0.85 -1.5 0.85 -1.5 0.8 -1.5 0.8 -1.5" fill="#c782f5" fill-rule="evenodd" stroke="none"/>
    <path d="M0.85 -1.5 L0.85 -1.5 0.9 -1.45 0.85 -1.5 0.85 -1.5" fill="#b96ef8" fill-rule="evenodd" stroke="none"/>
    <path d="M0.85 -1.2 L0.85 -1.25 0.85 -1.2" fill="#c39aea" fill-rule="evenodd" stroke="none"/>
    <path d="M0.5 0.0 L0.5 0.0 0.55 -0.1 0.55 -0.3 0.6 -0.55 0.65 -0.65 0.7 -0.65 0.75 -0.7 0.75 -0.75 0.7 -0.75 0.65 -0.8 0.6 -0.8 0.55 -0.95 Q0.5 -1.0 0.5 -1.1 0.5 -1.15 0.6 -1.15 L0.75 -1.2 0.85 -1.2 0.9 -1.2 0.95 -1.2 1.0 -0.95 1.0 -0.7 1.0 0.1 1.05 0.25 1.05 0.4 0.95 0.6 0.75 0.8 Q0.65 0.85 0.45 0.9 L0.3 0.95 0.15 0.95 -0.25 1.0 -0.7 0.9 -0.8 0.8 Q-0.9 0.7 -0.85 0.65 L-0.75 0.55 -0.6 0.45 Q-0.55 0.4 -0.5 0.5 L-0.45 0.55 -0.4 0.55 -0.25 0.6 -0.05 0.55 0.0 0.55 0.2 0.55 0.35 0.5 0.35 0.45 0.3 0.45 Q0.3 0.35 0.15 0.4 L0.2 0.35 0.25 0.25 0.4 0.35 0.5 0.45 0.55 0.45 0.55 0.5 0.6 0.5 0.65 0.55 0.75 0.5 0.75 0.55 0.6 0.55 0.45 0.5 0.4 0.5 0.35 0.55 0.25 0.6 0.1 0.6 -0.2 0.65 -0.45 0.6 -0.6 0.6 Q-0.65 0.6 -0.7 0.65 L-0.65 0.75 -0.55 0.85 -0.35 0.9 -0.15 0.9 0.0 0.9 0.15 0.85 0.35 0.85 0.55 0.75 0.75 0.6 0.95 0.45 0.9 0.4 0.95 0.25 0.9 0.05 0.9 -0.2 0.85 -0.45 0.8 -0.5 0.8 -0.5 0.7 -0.35 Q0.65 -0.25 0.65 -0.15 L0.6 0.0 Q0.6 0.15 0.6 0.2 L0.7 0.35 0.75 0.45 0.7 0.45 0.65 0.4 0.6 0.3 0.55 0.25 0.5 0.15 0.45 0.1 0.5 0.05 0.5 0.0" fill="#fffdc7" fill-rule="evenodd" stroke="none"/>
    <path d="M0.65 -1.2 L0.75 -1.2 0.85 -1.2 0.75 -1.2 0.65 -1.2 M0.85 -1.2 L0.85 -1.2" fill="#c17af1" fill-rule="evenodd" stroke="none"/>
    <path d="M0.3 -1.2 L0.35 -1.2 0.55 -1.2 0.55 -1.2 0.65 -1.2 0.45 -1.15 0.3 -1.15 0.3 -1.2" fill="#d292f5" fill-rule="evenodd" stroke="none"/>
    <path d="M0.6 -0.8 Q0.55 -0.85 0.5 -0.85 L0.5 -0.9 0.45 -0.9 0.15 -1.1 0.15 -1.05 0.1 -1.1 0.05 -1.1 0.05 -1.15 0.1 -1.15 0.2 -1.15 0.3 -1.15 0.45 -1.15 0.65 -1.2 0.75 -1.2 0.6 -1.15 Q0.5 -1.15 0.5 -1.1 0.5 -1.0 0.55 -0.95 L0.6 -0.8 0.6 -0.8 M0.3 -1.15 L0.3 -1.15 M0.05 -1.15 L0.05 -1.15" fill="#fbf7e9" fill-rule="evenodd" stroke="none"/>
    <path d="M0.65 -0.8 L0.65 -0.8 0.6 -0.8 0.65 -0.8 M0.6 -0.8 L0.6 -0.8" fill="#c883f0" fill-rule="evenodd" stroke="none"/>
    <path d="M0.5 0.0 L0.55 -0.3 0.55 -0.65 0.55 -0.65 0.55 -0.1 0.5 0.0" fill="#c275f3" fill-rule="evenodd" stroke="none"/>
    <path d="M0.55 -0.65 L0.6 -0.7 0.65 -0.7 0.75 -0.75 0.75 -0.7 0.7 -0.65 0.55 -0.65" fill="#c682ee" fill-rule="evenodd" stroke="none"/>
    <path d="M0.7 -0.65 L0.65 -0.65 0.6 -0.55 0.55 -0.3 0.55 -0.1 0.55 -0.65 0.7 -0.65" fill="#faf4de" fill-rule="evenodd" stroke="none"/>
    <path d="M0.0 -1.15 L0.0 -1.15 0.3 -1.2 0.3 -1.15 0.3 -1.15 0.15 -1.15 0.05 -1.15 0.05 -1.15 0.0 -1.15" fill="#b852fc" fill-rule="evenodd" stroke="none"/>
    <path d="M0.35 -1.2 L0.45 -1.2 0.45 -1.2 0.55 -1.2 0.35 -1.2" fill="#8a36fc" fill-rule="evenodd" stroke="none"/>
    <path d="M0.5 -0.85 L0.45 -0.9 0.4 -0.95 0.15 -1.05 0.15 -1.1 0.45 -0.9 0.5 -0.9 0.5 -0.85" fill="#d6a5f7" fill-rule="evenodd" stroke="none"/>
    <path d="M0.05 -1.1 L0.05 -1.15 0.0 -1.15 0.05 -1.15 0.05 -1.1 M0.3 -1.15 L0.2 -1.15 0.1 -1.15 0.05 -1.15 0.15 -1.15 0.3 -1.15" fill="#eab7f9" fill-rule="evenodd" stroke="none"/>
    <path d="M-0.05 0.15 L-0.1 0.1 -0.15 0.05 -0.1 0.0 -0.1 0.0 -0.1 -0.1 -0.1 -0.6 -0.1 -0.65 -0.15 -0.65 -0.2 -0.65 -0.2 -0.7 -0.2 -0.75 -0.25 -0.75 -0.2 -0.75 -0.2 -0.8 -0.15 -0.85 -0.1 -0.85 Q-0.1 -0.9 -0.15 -0.9 L-0.15 -0.9 -0.1 -0.95 -0.1 -0.95 -0.05 -0.9 0.0 -0.9 0.0 -0.85 0.05 -0.85 0.1 -0.8 0.0 -0.8 0.0 -0.8 Q-0.05 -0.75 0.0 -0.75 L0.05 -0.75 0.05 -0.75 0.1 -0.75 0.15 -0.8 0.25 -0.8 0.35 -0.75 0.35 -0.6 0.35 -0.45 Q0.35 -0.4 0.35 -0.35 L0.35 -0.3 0.35 -0.3 0.35 -0.25 0.3 -0.35 0.25 -0.45 0.2 -0.4 0.2 -0.2 0.15 -0.15 0.15 -0.2 0.15 -0.25 0.15 -0.45 0.15 -0.55 0.1 -0.65 0.1 -0.65 0.1 -0.65 0.05 -0.65 0.05 -0.7 0.0 -0.7 0.0 -0.7 -0.05 -0.65 -0.05 -0.2 0.0 -0.15 Q0.0 -0.1 0.05 -0.15 L0.1 -0.15 0.15 -0.15 0.1 -0.1 -0.05 0.0 Q-0.1 0.05 -0.05 0.15 L-0.05 0.15 M-0.15 -0.9 L-0.15 -0.9" fill="#fcf7ee" fill-rule="evenodd" stroke="none"/>
    <path d="M0.1 -0.8 Q0.1 -0.8 0.15 -0.8 L0.1 -0.75 0.05 -0.8 0.0 -0.8 0.1 -0.8" fill="#c888f8" fill-rule="evenodd" stroke="none"/>
    <path d="M0.0 -0.8 L0.05 -0.8 0.1 -0.75 0.05 -0.75 0.05 -0.75 0.0 -0.8 0.0 -0.8" fill="#6727fc" fill-rule="evenodd" stroke="none"/>
    <path d="M-0.05 -0.9 L0.0 -0.9 0.0 -0.85 0.0 -0.9 -0.05 -0.9" fill="#c880f9" fill-rule="evenodd" stroke="none"/>
    <path d="M0.0 -0.8 L0.05 -0.75 0.0 -0.75 Q-0.05 -0.75 0.0 -0.8" fill="#c29ef3" fill-rule="evenodd" stroke="none"/>
    <path d="M0.05 -0.7 L0.05 -0.65 0.1 -0.65 0.1 -0.65 0.15 -0.55 0.15 -0.45 0.15 -0.25 0.15 -0.2 0.05 -0.15 0.0 -0.15 -0.05 -0.2 -0.05 -0.65 0.0 -0.7 0.05 -0.7 M0.1 -0.65 L0.1 -0.65" fill="#5604ff" fill-rule="evenodd" stroke="none"/>
    <path d="M0.1 -0.65 L0.1 -0.65 0.05 -0.65 0.1 -0.65 0.1 -0.65" fill="#c684f8" fill-rule="evenodd" stroke="none"/>
    <path d="M0.05 -0.7 L0.0 -0.7 0.0 -0.7 0.05 -0.7" fill="#b878f7" fill-rule="evenodd" stroke="none"/>
    <path d="M0.35 -0.75 L0.35 -0.6 0.35 -0.75" fill="#c470fb" fill-rule="evenodd" stroke="none"/>
    <path d="M0.35 -0.6 L0.35 -0.35 Q0.35 -0.4 0.35 -0.45 L0.35 -0.6" fill="#d59ef7" fill-rule="evenodd" stroke="none"/>
    <path d="M0.35 -0.35 L0.35 -0.3 0.35 -0.35" fill="#c067fa" fill-rule="evenodd" stroke="none"/>
    <path d="M-0.95 1.0 L-0.9 1.05 -0.85 1.05 -0.85 1.1 -0.9 1.05 -0.95 1.0 M0.15 -0.25 L0.15 -0.45 0.15 -0.25" fill="#c273fa" fill-rule="evenodd" stroke="none"/>
    <path d="M0.15 -0.45 L0.15 -0.55 0.1 -0.65 0.15 -0.55 0.15 -0.45" fill="#c176f9" fill-rule="evenodd" stroke="none"/>
    <path d="M0.0 -0.15 L0.05 -0.15 0.15 -0.2 0.15 -0.15 0.1 -0.15 0.05 -0.15 Q0.0 -0.1 0.0 -0.15" fill="#c48bf7" fill-rule="evenodd" stroke="none"/>
    <path d="M0.2 -0.1 L0.2 -0.05 0.2 -0.1" fill="#a867f5" fill-rule="evenodd" stroke="none"/>
    <path d="M0.35 -0.3 L0.35 -0.15 0.35 -0.25 0.35 -0.3" fill="#cf8af6" fill-rule="evenodd" stroke="none"/>
    <path d="M0.35 -0.15 Q0.4 -0.05 0.2 -0.1 L0.3 -0.1 Q0.35 -0.1 0.35 -0.15" fill="#b661f9" fill-rule="evenodd" stroke="none"/>
    <path d="M0.75 0.45 L0.7 0.35 0.6 0.2 Q0.6 0.15 0.6 0.0 L0.65 -0.15 Q0.65 -0.25 0.7 -0.35 L0.8 -0.5 0.8 -0.5 0.85 -0.45 0.9 -0.2 0.9 0.05 0.95 0.25 0.9 0.4 0.85 0.45 0.8 0.45 Q0.75 0.45 0.75 0.5 L0.75 0.45" fill="#fef0b7" fill-rule="evenodd" stroke="none"/>
    <path d="M2.2 -1.1 L2.2 -0.95 2.15 -1.0 2.05 -1.0 2.05 -1.05 2.0 -1.05 2.0 -0.95 1.95 -0.9 Q1.9 -0.9 1.9 -1.0 L1.85 -1.1 1.9 -1.1 1.9 -1.05 Q1.85 -1.0 1.9 -1.0 L1.9 -0.95 1.95 -1.0 1.95 -1.05 2.05 -1.1 2.05 -1.15 2.1 -1.2 2.1 -1.2 2.1 -1.15 2.15 -1.1 2.2 -1.1" fill="#92741c" fill-rule="evenodd" stroke="none"/>
    <path d="M1.85 -1.1 Q1.8 -1.1 1.8 -1.2 L1.85 -1.3 1.85 -1.2 1.85 -1.1" fill="#b29d61" fill-rule="evenodd" stroke="none"/>
    <path d="M2.2 -0.85 L2.2 -0.75 2.15 -0.75 2.1 -0.8 2.05 -0.8 1.95 -0.85 1.9 -0.9 1.85 -0.9 1.85 -1.1 1.9 -1.0 Q1.9 -0.9 1.95 -0.9 2.0 -0.9 2.0 -0.95 L2.05 -1.0 2.05 -1.0 2.1 -0.95 2.1 -0.9 2.15 -0.95 2.15 -0.95 Q2.1 -0.9 2.1 -0.85 L2.2 -0.85 M1.85 -1.1 L1.85 -1.1" fill="#bea460" fill-rule="evenodd" stroke="none"/>
    <path d="M1.95 -0.9 L2.0 -0.95 2.0 -1.05 2.05 -1.05 2.05 -1.0 2.05 -1.0 2.0 -0.95 Q2.0 -0.9 1.95 -0.9" fill="#a8893a" fill-rule="evenodd" stroke="none"/>
    <path d="M1.55 -1.0 L1.55 -0.95 1.55 -1.0" fill="#c581f2" fill-rule="evenodd" stroke="none"/>
    <path d="M2.2 0.15 L2.2 0.2 2.15 0.2 2.05 0.25 1.9 0.25 1.85 0.25 1.75 0.2 1.75 0.05 1.7 -0.1 1.75 -0.2 1.7 -0.3 1.7 -0.35 1.7 -0.5 1.7 -0.6 1.65 -0.65 1.65 -0.75 1.6 -0.8 1.6 -0.85 1.55 -0.95 1.55 -1.0 Q1.5 -1.0 1.5 -1.05 L1.5 -1.1 1.5 -1.1 1.45 -1.15 1.45 -1.15 1.5 -1.15 1.5 -1.15 1.65 -0.8 1.75 -0.45 1.8 -0.3 1.8 -0.15 Q1.8 0.05 1.85 0.15 L2.0 0.2 2.1 0.15 2.2 0.15 M1.45 -1.15 L1.45 -1.15" fill="#fdfada" fill-rule="evenodd" stroke="none"/>
    <path d="M2.2 -0.15 L2.2 0.0 Q2.0 0.0 1.95 -0.1 L1.9 -0.25 1.9 -0.35 1.85 -0.6 1.8 -0.7 1.75 -0.8 1.75 -0.95 Q1.7 -1.05 1.65 -1.05 L1.7 -1.05 Q1.8 -1.05 1.75 -1.0 L1.8 -0.9 1.8 -0.8 Q1.8 -0.8 1.85 -0.75 L1.9 -0.75 1.95 -0.55 2.0 -0.4 2.0 -0.25 2.05 -0.15 2.1 -0.1 2.2 -0.15" fill="#f0dca3" fill-rule="evenodd" stroke="none"/>
    <path d="M2.2 -0.75 L2.2 -0.3 2.15 -0.35 2.15 -0.4 2.1 -0.45 2.05 -0.5 2.05 -0.6 2.0 -0.7 1.95 -0.75 1.9 -0.8 1.9 -0.9 1.95 -0.85 2.05 -0.8 2.1 -0.8 2.15 -0.75 2.2 -0.75" fill="#d3be86" fill-rule="evenodd" stroke="none"/>
    <path d="M1.4 -1.15 L1.45 -1.15 1.45 -1.15 1.4 -1.15 M1.45 -1.15 L1.45 -1.15" fill="#c77cf1" fill-rule="evenodd" stroke="none"/>
    <path d="M1.45 -1.15 L1.5 -1.1 1.5 -1.1 1.45 -1.1 1.45 -1.15" fill="#c37cf0" fill-rule="evenodd" stroke="none"/>
    <path d="M1.5 -1.1 L1.5 -1.05 1.5 -1.1" fill="#bd76f4" fill-rule="evenodd" stroke="none"/>
    <path d="M1.1 -1.15 L1.1 -0.9 1.1 -0.9 Q1.05 -0.9 1.1 -0.8 L1.1 -0.75 1.05 -0.65 1.05 -0.55 1.1 -0.5 Q1.1 -0.5 1.05 -0.5 L1.05 -0.85 1.1 -1.15" fill="#d194f7" fill-rule="evenodd" stroke="none"/>
    <path d="M1.1 -1.25 L1.1 -1.2 1.1 -1.15 1.1 -1.25" fill="#bd67fa" fill-rule="evenodd" stroke="none"/>
    <path d="M1.1 -0.9 L1.1 -0.75 1.1 -0.75 1.1 -0.8 Q1.05 -0.9 1.1 -0.9" fill="#913bfd" fill-rule="evenodd" stroke="none"/>
    <path d="M1.4 -0.4 L1.4 -0.6 1.4 -0.5 1.4 -0.45 1.45 -0.45 1.45 -0.4 1.45 -0.15 1.4 0.1 1.35 0.1 1.35 -0.25 1.35 -0.3 1.4 -0.4" fill="#fbf0f6" fill-rule="evenodd" stroke="none"/>
    <path d="M1.4 -0.4 L1.4 -0.6 1.4 -0.5 1.4 -0.6 1.4 -0.4" fill="#df78fd" fill-rule="evenodd" stroke="none"/>
    <path d="M1.45 -0.4 L1.45 -0.4 1.45 -0.05 1.45 0.05 1.4 0.1 1.45 -0.15 1.45 -0.4" fill="#e1a6f9" fill-rule="evenodd" stroke="none"/>
    <path d="M1.05 -0.5 L1.05 -0.3 Q1.0 -0.35 1.05 -0.4 L1.05 -0.5" fill="#c781f7" fill-rule="evenodd" stroke="none"/>
    <path d="M1.05 -0.3 L1.1 -0.3 1.05 -0.3 1.05 -0.1 1.0 -0.15 1.05 -0.25 1.05 -0.3" fill="#c075f8" fill-rule="evenodd" stroke="none"/>
    <path d="M1.05 -0.1 L1.05 -0.1 1.0 0.0 1.0 0.05 Q1.0 0.0 1.0 -0.05 L1.0 -0.15 1.05 -0.1" fill="#e0baee" fill-rule="evenodd" stroke="none"/>
    <path d="M1.05 -0.1 L1.05 0.05 1.0 0.05 1.0 0.0 1.05 -0.1" fill="#aa54f8" fill-rule="evenodd" stroke="none"/>
    <path d="M1.45 -0.4 L1.45 -0.05 1.45 -0.4" fill="#bd58fc" fill-rule="evenodd" stroke="none"/>
    <path d="M1.35 0.1 L1.35 -0.25 1.35 0.1" fill="#cd6dfb" fill-rule="evenodd" stroke="none"/>
    <path d="M1.65 -0.65 L1.7 -0.6 1.7 -0.5 1.7 -0.5 Q1.65 -0.6 1.65 -0.65" fill="#c278f5" fill-rule="evenodd" stroke="none"/>
    <path d="M1.7 -0.35 L1.7 -0.3 1.7 -0.2 1.7 -0.35 1.7 -0.35" fill="#8e38fc" fill-rule="evenodd" stroke="none"/>
    <path d="M1.7 -0.5 L1.7 -0.35 1.7 -0.35 1.7 -0.5 1.7 -0.5" fill="#cc8cf5" fill-rule="evenodd" stroke="none"/>
    <path d="M1.7 -0.15 L1.7 -0.1 1.7 0.05 1.7 -0.15" fill="#a554fa" fill-rule="evenodd" stroke="none"/>
    <path d="M1.7 -0.3 L1.75 -0.2 1.7 -0.1 1.7 -0.15 1.7 -0.2 1.7 -0.3 M1.7 -0.1 L1.7 -0.1" fill="#d6a0f2" fill-rule="evenodd" stroke="none"/>
    <path d="M1.7 -0.1 L1.75 0.05 1.75 0.2 1.85 0.25 1.9 0.25 1.85 0.3 1.8 0.3 1.7 0.3 Q1.65 0.35 1.6 0.3 L1.65 0.25 1.65 0.2 1.65 0.15 1.7 0.1 1.7 0.05 1.7 -0.1 1.7 -0.1" fill="#fbf5ed" fill-rule="evenodd" stroke="none"/>
    <path d="M2.05 -2.2 L2.2 -2.2 2.2 -2.1 2.15 -2.15 2.1 -2.15 2.05 -2.2" fill="#c7bb9a" fill-rule="evenodd" stroke="none"/>
    <path d="M2.2 -1.2 L2.2 -1.1 2.15 -1.1 2.1 -1.15 2.1 -1.2 2.15 -1.2 2.2 -1.2" fill="#9e8a48" fill-rule="evenodd" stroke="none"/>
    <path d="M2.2 -0.95 L2.2 -0.85 2.1 -0.85 Q2.1 -0.9 2.15 -0.95 L2.15 -0.95 2.1 -0.9 2.1 -0.95 2.05 -1.0 2.15 -1.0 2.2 -0.95" fill="#b4943e" fill-rule="evenodd" stroke="none"/>
    <path d="M2.05 0.25 L2.15 0.2 2.1 0.25 2.05 0.25" fill="#d193f1" fill-rule="evenodd" stroke="none"/>
    <path d="M2.15 0.2 L2.2 0.2 2.15 0.2" fill="#bf82ef" fill-rule="evenodd" stroke="none"/>
    <path d="M2.0 0.45 L2.1 0.45 2.2 0.45 2.15 0.45 2.0 0.45" fill="#c87fec" fill-rule="evenodd" stroke="none"/>
    <path d="M-0.85 1.45 L-0.55 1.35 -0.35 1.35 -0.1 1.4 0.3 1.3 0.7 1.25 1.05 1.15 1.35 1.0 1.6 0.75 1.8 0.7 2.0 0.65 2.05 0.6 2.1 0.55 2.1 0.6 2.05 0.6 2.05 0.7 1.9 0.75 1.75 0.8 1.65 0.85 1.55 0.9 1.45 0.95 1.45 1.0 Q1.3 1.15 1.1 1.25 L0.7 1.4 0.4 1.45 0.15 1.45 -0.05 1.5 -0.2 1.5 -0.4 1.45 -0.55 1.45 -0.65 1.45 -0.7 1.45 -0.8 1.45 Q-0.85 1.5 -0.85 1.45" fill="#f0dda8" fill-rule="evenodd" stroke="none"/>
    <path d="M2.2 0.5 L2.2 0.55 Q2.15 0.55 2.15 0.6 L2.15 0.65 Q2.1 0.6 2.1 0.65 L2.05 0.7 2.05 0.6 2.1 0.6 2.1 0.55 2.15 0.5 2.2 0.5" fill="#e4c263" fill-rule="evenodd" stroke="none"/>
    <path d="M2.2 0.45 L2.2 0.5 2.15 0.5 2.1 0.5 2.1 0.55 2.05 0.6 2.0 0.65 1.8 0.7 1.6 0.75 1.35 1.0 1.05 1.15 0.7 1.25 0.3 1.3 -0.1 1.4 -0.35 1.35 -0.55 1.35 -0.85 1.45 -0.9 1.4 -0.9 1.4 -0.75 1.35 -0.65 1.25 -0.45 1.25 -0.25 1.25 0.15 1.25 0.35 1.2 0.6 1.2 1.0 1.05 1.4 0.8 1.55 0.7 Q1.6 0.65 1.65 0.6 L1.75 0.6 1.85 0.55 2.05 0.5 2.1 0.5 2.15 0.45 2.2 0.45" fill="#fff6b8" fill-rule="evenodd" stroke="none"/>
    <path d="M-0.45 1.2 L-0.45 1.2 -0.4 1.2 -0.4 1.2 -0.15 1.2 -0.15 1.2 0.1 1.2 0.25 1.15 0.45 1.15 0.65 1.1 0.7 1.1 0.8 1.05 0.85 1.05 Q0.85 1.05 0.95 1.0 L1.0 1.0 1.05 0.95 1.1 0.95 1.15 0.9 1.2 0.9 1.2 0.85 1.25 0.85 1.35 0.75 1.4 0.7 1.45 0.7 1.45 0.65 1.5 0.6 1.5 0.55 1.55 0.5 1.7 0.5 1.85 0.5 1.9 0.5 1.95 0.5 2.0 0.45 2.15 0.45 2.1 0.5 2.05 0.5 1.85 0.55 1.75 0.6 1.65 0.6 Q1.6 0.65 1.55 0.7 L1.4 0.8 1.0 1.05 0.6 1.2 0.35 1.2 0.15 1.25 -0.25 1.25 -0.45 1.25 -0.65 1.25 -0.75 1.35 -0.9 1.4 -0.9 1.4 -0.9 1.35 -0.85 1.35 -0.85 1.35 -0.8 1.3 -0.8 1.3 -0.75 1.3 -0.75 1.25 -0.7 1.25 -0.7 1.15 -0.65 1.15 -0.45 1.2 M-0.75 1.3 L-0.75 1.3" fill="#fcf9d4" fill-rule="evenodd" stroke="none"/>
    <path d="M2.1 0.55 L2.1 0.5 2.15 0.5 2.1 0.55" fill="#ffe88e" fill-rule="evenodd" stroke="none"/>
    <path d="M2.2 0.55 L2.2 0.65 2.1 0.7 2.05 0.75 2.1 0.8 2.05 0.8 2.05 0.85 2.05 0.8 2.05 0.7 2.1 0.65 Q2.1 0.6 2.15 0.65 L2.15 0.6 Q2.15 0.55 2.2 0.55" fill="#b39340" fill-rule="evenodd" stroke="none"/>
    <path d="M2.2 0.65 L2.2 0.75 2.1 0.75 2.15 0.8 2.15 0.85 2.1 0.8 2.05 0.8 2.1 0.8 2.05 0.75 2.1 0.7 2.2 0.65" fill="#977827" fill-rule="evenodd" stroke="none"/>
    <path d="M1.9 0.9 L1.85 0.9 1.8 0.9 1.75 0.9 1.7 0.9 1.6 0.9 1.55 0.9 1.65 0.85 1.75 0.8 1.9 0.75 2.05 0.7 2.05 0.8 2.0 0.8 2.0 0.85 1.95 0.85 1.9 0.9" fill="#d6c28c" fill-rule="evenodd" stroke="none"/>
    <path d="M2.2 0.75 L2.2 2.2 0.4 2.2 0.45 2.15 0.5 2.15 0.45 2.1 0.5 2.1 0.5 2.05 0.55 2.05 0.7 1.9 0.75 1.9 0.8 1.9 0.8 1.85 0.8 1.75 0.85 1.7 0.95 1.7 1.0 1.7 1.05 1.65 Q1.0 1.65 1.0 1.6 1.0 1.55 1.05 1.55 L1.1 1.5 1.3 1.45 1.35 1.45 1.4 1.5 1.45 1.45 1.45 1.4 1.5 1.3 1.5 1.25 1.5 1.1 1.45 1.0 1.55 1.0 1.65 1.0 1.65 0.95 1.7 0.9 1.75 0.9 1.8 0.9 1.85 0.9 1.9 0.9 Q1.95 0.95 2.0 0.9 L2.05 0.85 2.05 0.8 2.1 0.8 2.15 0.85 2.15 0.8 2.1 0.75 2.2 0.75" fill="#765500" fill-rule="evenodd" stroke="none"/>
    <path d="M2.05 0.85 L2.0 0.9 Q1.95 0.95 1.9 0.9 L1.95 0.85 2.0 0.85 2.0 0.8 2.05 0.8 2.05 0.85" fill="#c0ab73" fill-rule="evenodd" stroke="none"/>
    <path d="M1.6 0.3 Q1.65 0.35 1.7 0.3 L1.8 0.3 1.85 0.3 1.75 0.35 1.6 0.3" fill="#ca73fb" fill-rule="evenodd" stroke="none"/>
    <path d="M1.9 0.25 L2.05 0.25 1.95 0.25 1.9 0.25" fill="#cd88f3" fill-rule="evenodd" stroke="none"/>
    <path d="M1.7 0.1 L1.65 0.15 1.7 0.1" fill="#c982f9" fill-rule="evenodd" stroke="none"/>
    <path d="M1.65 0.15 L1.65 0.2 1.65 0.15" fill="#d190f7" fill-rule="evenodd" stroke="none"/>
    <path d="M1.65 0.2 L1.65 0.25 Q1.65 0.25 1.65 0.2" fill="#c77efa" fill-rule="evenodd" stroke="none"/>
    <path d="M1.5 0.6 Q1.5 0.55 1.55 0.5 L1.6 0.5 1.75 0.5 1.85 0.5 1.7 0.5 1.55 0.5 1.5 0.55 1.5 0.6" fill="#cd87f6" fill-rule="evenodd" stroke="none"/>
    <path d="M1.9 0.5 L1.9 0.45 1.95 0.5 1.9 0.5" fill="#c878f3" fill-rule="evenodd" stroke="none"/>
    <path d="M1.05 0.05 L1.05 0.1 1.05 0.05" fill="#b46bf6" fill-rule="evenodd" stroke="none"/>
    <path d="M1.15 0.5 L1.1 0.55 1.05 0.6 1.15 0.5" fill="#bb78f9" fill-rule="evenodd" stroke="none"/>
    <path d="M1.25 0.3 L1.25 0.35 1.25 0.3" fill="#bd62fc" fill-rule="evenodd" stroke="none"/>
    <path d="M1.4 0.7 L1.45 0.65 1.45 0.7 1.4 0.7" fill="#ce8df6" fill-rule="evenodd" stroke="none"/>
    <path d="M1.15 0.9 L1.2 0.85 1.2 0.9 1.15 0.9" fill="#c889f3" fill-rule="evenodd" stroke="none"/>
    <path d="M1.2 0.85 L1.25 0.85 1.2 0.85" fill="#c07bf4" fill-rule="evenodd" stroke="none"/>
    <path d="M1.05 0.95 L1.1 0.95 1.05 0.95" fill="#c681f4" fill-rule="evenodd" stroke="none"/>
    <path d="M1.45 1.0 L1.45 1.15 1.35 1.15 1.3 1.25 1.25 1.3 1.15 1.3 1.15 1.35 1.1 1.4 0.95 1.45 0.8 1.6 0.75 1.6 0.7 1.7 0.55 1.7 0.4 1.65 Q0.4 1.65 0.4 1.6 L0.35 1.6 0.3 1.55 0.3 1.5 0.25 1.55 0.25 1.65 0.3 1.65 0.35 1.65 0.25 1.75 0.15 1.75 0.1 1.85 0.0 1.9 0.0 1.75 -0.05 1.8 -0.1 1.85 -0.15 1.9 Q-0.15 1.95 -0.2 1.95 -0.15 1.9 -0.2 1.85 L-0.2 1.7 Q-0.2 1.6 -0.3 1.55 L-0.45 1.5 -0.55 1.55 -0.6 1.55 -0.75 1.5 -0.8 1.5 -0.85 1.45 Q-0.85 1.5 -0.8 1.45 L-0.7 1.45 -0.65 1.45 -0.55 1.45 -0.4 1.45 -0.2 1.5 -0.05 1.5 0.15 1.45 0.4 1.45 0.7 1.4 1.1 1.25 Q1.3 1.15 1.45 1.0 M-0.9 1.4 L-0.9 1.4 -0.85 1.45 Q-0.9 1.4 -0.9 1.45 L-0.95 1.5 -1.0 1.55 -1.05 1.5 -1.0 1.45 -0.9 1.4 -0.9 1.4" fill="#dac89c" fill-rule="evenodd" stroke="none"/>
    <path d="M1.45 1.0 L1.5 1.1 1.5 1.25 1.45 1.25 1.45 1.2 1.4 1.25 1.35 1.3 1.4 1.35 1.35 1.35 1.3 1.35 1.25 1.35 1.15 1.35 1.15 1.4 1.1 1.45 1.0 1.5 0.9 1.55 0.9 1.65 0.85 1.7 0.75 1.75 Q0.7 1.8 0.65 1.8 L0.6 1.8 0.6 1.85 Q0.55 1.85 0.45 1.95 L0.35 2.05 0.3 2.05 0.25 2.1 0.15 2.15 0.2 2.1 0.1 2.1 Q0.1 2.1 0.05 2.15 0.0 2.1 -0.05 2.1 L-0.15 2.1 -0.2 2.05 -0.2 2.0 -0.25 2.0 -0.3 1.95 -0.25 1.9 -0.25 1.85 Q-0.2 1.8 -0.25 1.8 L-0.35 1.8 -0.35 1.75 -0.45 1.7 -0.5 1.65 -0.5 1.6 Q-0.55 1.55 -0.6 1.6 L-0.65 1.55 -0.75 1.5 -0.6 1.55 -0.55 1.55 -0.45 1.5 -0.3 1.55 Q-0.2 1.6 -0.2 1.7 L-0.2 1.85 Q-0.15 1.9 -0.2 1.95 -0.15 1.95 -0.15 1.9 L-0.1 1.85 -0.05 1.8 0.0 1.75 0.0 1.9 0.1 1.85 0.15 1.75 0.25 1.75 0.35 1.65 0.3 1.65 0.25 1.65 0.25 1.55 0.3 1.5 0.3 1.55 0.35 1.6 0.4 1.6 Q0.4 1.65 0.4 1.65 L0.55 1.7 0.7 1.7 0.75 1.6 0.8 1.6 0.95 1.45 1.1 1.4 1.15 1.35 1.15 1.3 1.25 1.3 1.3 1.25 1.35 1.15 1.45 1.15 1.45 1.0 1.45 0.95 1.45 1.0" fill="#cdbb8c" fill-rule="evenodd" stroke="none"/>
    <path d="M1.7 0.9 L1.65 0.95 1.65 1.0 1.55 1.0 1.45 1.0 1.45 0.95 1.55 0.9 1.6 0.9 1.7 0.9" fill="#9e7903" fill-rule="evenodd" stroke="none"/>
    <path d="M1.5 1.25 L1.5 1.3 1.45 1.4 1.4 1.45 1.35 1.45 1.3 1.45 1.25 1.35 1.3 1.35 1.35 1.35 1.4 1.35 1.35 1.3 1.4 1.25 1.45 1.2 1.45 1.25 1.5 1.25" fill="#bca772" fill-rule="evenodd" stroke="none"/>
    <path d="M0.5 0.2 L0.55 0.25 0.5 0.2" fill="#c784ef" fill-rule="evenodd" stroke="none"/>
    <path d="M0.75 0.45 L0.75 0.5 0.6 0.5 0.55 0.5 0.55 0.45 0.5 0.45 0.5 0.4 0.4 0.3 0.3 0.25 0.25 0.15 0.25 0.1 0.3 0.1 0.35 0.1 0.4 0.1 0.45 0.15 0.45 0.2 0.5 0.2 0.55 0.25 0.6 0.3 0.65 0.4 0.7 0.45 0.75 0.45" fill="#5607fe" fill-rule="evenodd" stroke="none"/>
    <path d="M0.7 0.45 L0.75 0.45 0.7 0.45" fill="#bf7aea" fill-rule="evenodd" stroke="none"/>
    <path d="M0.6 0.5 L0.55 0.5 0.6 0.5" fill="#bb76ed" fill-rule="evenodd" stroke="none"/>
    <path d="M0.6 0.5 L0.75 0.5 0.65 0.55 0.6 0.5" fill="#bf7bea" fill-rule="evenodd" stroke="none"/>
    <path d="M0.75 0.5 Q0.75 0.45 0.8 0.45 L0.85 0.45 0.9 0.4 0.95 0.45 0.75 0.6 0.55 0.75 0.35 0.85 0.15 0.85 0.0 0.9 -0.15 0.9 -0.35 0.9 -0.55 0.85 -0.65 0.75 -0.7 0.65 Q-0.65 0.6 -0.6 0.6 L-0.45 0.6 -0.2 0.65 0.1 0.6 0.25 0.6 0.35 0.55 0.4 0.5 0.45 0.5 0.6 0.55 0.75 0.55 0.75 0.5" fill="#fff9bb" fill-rule="evenodd" stroke="none"/>
    <path d="M0.55 0.45 L0.5 0.45 0.55 0.45 M0.5 0.4 L0.5 0.45 0.5 0.4" fill="#be7aef" fill-rule="evenodd" stroke="none"/>
    <path d="M0.35 0.1 L0.3 0.1 0.25 0.1 0.3 0.1 0.35 0.1" fill="#d7a6ee" fill-rule="evenodd" stroke="none"/>
    <path d="M0.4 0.1 L0.35 0.1 0.4 0.1" fill="#c276f4" fill-rule="evenodd" stroke="none"/>
    <path d="M0.25 0.15 L0.3 0.25 0.25 0.2 0.25 0.15" fill="#cb90ef" fill-rule="evenodd" stroke="none"/>
    <path d="M0.45 0.2 L0.45 0.15 0.45 0.2" fill="#ba72f4" fill-rule="evenodd" stroke="none"/>
    <path d="M0.2 0.0 L0.2 0.0 0.3 0.0 0.45 0.0 0.35 0.05 0.25 0.05 0.2 0.05 0.2 0.0" fill="#be6df5" fill-rule="evenodd" stroke="none"/>
    <path d="M0.0 0.25 L0.1 0.25 0.1 0.3 0.05 0.3 0.0 0.25" fill="#c49ee8" fill-rule="evenodd" stroke="none"/>
    <path d="M0.0 0.55 L-0.05 0.55 -0.1 0.55 -0.3 0.55 -0.4 0.55 -0.45 0.5 -0.45 0.45 -0.45 0.35 Q-0.45 0.3 -0.45 0.25 L-0.5 0.2 -0.45 0.15 -0.45 0.1 -0.4 0.1 -0.35 0.15 -0.3 0.15 -0.3 0.2 -0.25 0.45 0.1 0.4 0.15 0.4 0.2 0.4 0.25 0.45 0.35 0.45 0.35 0.5 0.3 0.55 0.0 0.55" fill="#5504ff" fill-rule="evenodd" stroke="none"/>
    <path d="M0.2 0.4 L0.25 0.4 0.25 0.45 0.2 0.4" fill="#d19cea" fill-rule="evenodd" stroke="none"/>
    <path d="M0.35 0.45 L0.35 0.5 0.2 0.55 0.0 0.55 0.3 0.55 0.35 0.5 0.35 0.45" fill="#bf7eec" fill-rule="evenodd" stroke="none"/>
    <path d="M0.1 1.2 L0.15 1.15 0.25 1.15 0.1 1.2" fill="#ca85f0" fill-rule="evenodd" stroke="none"/>
    <path d="M0.15 1.0 L0.1 1.0 0.0 1.0 0.15 1.0" fill="#bc6ff3" fill-rule="evenodd" stroke="none"/>
    <path d="M0.55 0.95 L0.35 0.95 0.15 1.0 0.35 0.95 0.55 0.95" fill="#c27af2" fill-rule="evenodd" stroke="none"/>
    <path d="M0.25 1.15 L0.45 1.1 0.65 1.1 0.45 1.15 0.25 1.15" fill="#c178f1" fill-rule="evenodd" stroke="none"/>
    <path d="M1.05 0.6 L0.95 0.7 0.95 0.65 1.05 0.6" fill="#bb77f8" fill-rule="evenodd" stroke="none"/>
    <path d="M0.85 0.75 L0.85 0.8 0.85 0.75" fill="#bf74f8" fill-rule="evenodd" stroke="none"/>
    <path d="M0.65 0.9 L0.6 0.9 0.55 0.9 0.65 0.9" fill="#ca81f3" fill-rule="evenodd" stroke="none"/>
    <path d="M0.7 0.85 L0.7 0.9 0.65 0.9 0.7 0.85" fill="#c376f5" fill-rule="evenodd" stroke="none"/>
    <path d="M1.0 1.0 L1.0 0.95 1.05 0.95 1.0 1.0" fill="#c57cf4" fill-rule="evenodd" stroke="none"/>
    <path d="M0.4 2.2 L0.3 2.2 0.25 2.15 0.25 2.1 0.3 2.05 0.35 2.05 0.45 1.95 Q0.55 1.85 0.6 1.85 L0.6 1.8 0.65 1.8 Q0.7 1.8 0.75 1.75 L0.85 1.7 0.9 1.65 0.9 1.55 1.0 1.5 1.1 1.45 1.15 1.4 1.15 1.35 1.25 1.35 1.15 1.4 1.1 1.5 1.05 1.55 0.95 1.55 0.95 1.7 0.85 1.7 0.8 1.75 0.8 1.85 0.75 1.9 0.7 1.9 0.65 1.9 0.6 1.9 0.55 2.0 0.45 2.05 Q0.4 2.05 0.4 2.1 L0.4 2.2 M0.15 2.2 L-0.2 2.2 -0.25 2.05 -0.25 2.0 Q-0.3 1.95 -0.35 1.95 L-0.3 1.9 -0.25 1.8 Q-0.2 1.8 -0.25 1.85 L-0.25 1.9 -0.3 1.95 -0.25 2.0 -0.2 2.0 -0.2 2.05 -0.15 2.1 -0.05 2.1 Q0.0 2.1 0.05 2.15 0.1 2.1 0.1 2.1 L0.2 2.1 0.15 2.15 0.15 2.2 M-0.35 1.75 L-0.35 1.8 -0.3 1.8 -0.35 1.85 -0.4 1.9 -0.4 1.85 -0.4 1.8 -0.35 1.75" fill="#b6a069" fill-rule="evenodd" stroke="none"/>
    <path d="M1.05 1.55 Q1.0 1.55 1.0 1.6 1.0 1.65 1.05 1.65 L1.0 1.7 0.95 1.7 0.95 1.55 1.05 1.55" fill="#947933" fill-rule="evenodd" stroke="none"/>
    <path d="M0.8 1.75 L0.8 1.85 0.8 1.9 0.75 1.9 0.8 1.85 0.8 1.75" fill="#9a7f3d" fill-rule="evenodd" stroke="none"/>
    <path d="M0.7 1.9 L0.55 2.05 0.5 2.05 0.5 2.1 0.45 2.1 0.5 2.15 0.45 2.15 0.4 2.2 0.4 2.1 Q0.4 2.05 0.45 2.05 L0.55 2.0 0.6 1.9 0.65 1.9 0.7 1.9" fill="#997e3b" fill-rule="evenodd" stroke="none"/>
    <path d="M0.3 2.2 L0.15 2.2 0.15 2.15 0.25 2.1 0.25 2.15 0.3 2.2" fill="#9d8342" fill-rule="evenodd" stroke="none"/>
    <path d="M1.45 1.4 L1.45 1.45 1.4 1.5 1.35 1.45 1.4 1.45 1.45 1.4" fill="#9e8543" fill-rule="evenodd" stroke="none"/>
    <path d="M1.3 1.45 L1.1 1.5 1.15 1.4 1.25 1.35 1.3 1.45" fill="#9b813e" fill-rule="evenodd" stroke="none"/>
    <path d="M-2.2 -0.85 L-2.2 -1.6 -2.15 -1.6 -2.1 -1.6 Q-2.05 -1.6 -2.0 -1.65 L-2.0 -1.8 -1.95 -1.85 -1.9 -1.85 -1.8 -1.8 -1.8 -1.8 -1.75 -1.85 -1.7 -1.9 -1.7 -1.95 -1.65 -1.9 Q-1.6 -1.85 -1.6 -1.9 L-1.5 -2.0 -1.45 -2.1 -1.4 -2.1 -1.45 -2.0 Q-1.45 -2.0 -1.5 -2.0 -1.5 -1.9 -1.6 -1.85 L-1.75 -1.75 -1.85 -1.65 -1.9 -1.55 -1.9 -1.5 -1.95 -1.45 -1.95 -1.35 -1.9 -1.3 -1.85 -1.3 -1.85 -1.4 -1.8 -1.35 Q-1.8 -1.3 -1.85 -1.3 L-1.85 -1.1 -1.85 -1.05 -1.9 -1.0 -1.9 -0.95 Q-1.9 -0.9 -1.9 -0.9 L-2.05 -0.85 -2.2 -0.85" fill="#7a5a00" fill-rule="evenodd" stroke="none"/>
    <path d="M-2.2 -1.6 L-2.2 -2.2 -1.4 -2.2 -1.45 -2.1 -1.5 -2.0 -1.6 -1.9 Q-1.6 -1.85 -1.65 -1.9 L-1.7 -1.95 -1.7 -1.9 -1.75 -1.85 -1.8 -1.8 -1.8 -1.8 -1.9 -1.85 -1.95 -1.85 -2.0 -1.8 -2.0 -1.65 Q-2.05 -1.6 -2.1 -1.6 L-2.15 -1.6 -2.2 -1.6" fill="#6f5401" fill-rule="evenodd" stroke="none"/>
    <path d="M-2.2 -0.55 L-2.2 -0.6 Q-2.15 -0.55 -2.1 -0.65 L-2.05 -0.7 -2.05 -0.75 -2.0 -0.7 -1.95 -0.6 Q-1.95 -0.5 -1.95 -0.45 L-2.05 -0.45 -2.05 -0.4 -2.1 -0.4 -2.15 -0.4 -2.15 -0.45 -2.2 -0.55" fill="#a37900" fill-rule="evenodd" stroke="none"/>
    <path d="M-2.2 -0.35 L-2.2 -0.55 -2.15 -0.45 -2.15 -0.4 -2.1 -0.4 -2.05 -0.4 -2.05 -0.45 -1.95 -0.45 Q-1.95 -0.5 -1.95 -0.6 L-2.0 -0.7 -2.05 -0.75 -2.05 -0.7 -2.1 -0.65 Q-2.15 -0.55 -2.2 -0.6 L-2.2 -0.75 -2.1 -0.8 -2.05 -0.85 -2.0 -0.8 -1.9 -0.85 -1.8 -0.8 -1.8 -0.95 -1.8 -1.1 -1.75 -1.1 -1.7 -1.1 -1.7 -1.15 -1.75 -1.15 -1.8 -1.25 -1.75 -1.35 -1.7 -1.5 -1.75 -1.45 -1.8 -1.45 -1.8 -1.65 -1.7 -1.65 -1.65 -1.7 -1.55 -1.7 -1.5 -1.75 Q-1.45 -1.75 -1.45 -1.8 L-1.45 -1.95 -1.45 -1.95 Q-1.4 -2.0 -1.4 -2.0 L-1.4 -2.1 -1.45 -2.1 -1.4 -2.2 -1.25 -2.2 -1.3 -2.15 -1.35 -2.1 -1.35 -2.05 -1.4 -1.95 Q-1.45 -1.85 -1.4 -1.8 L-1.4 -1.75 -1.45 -1.7 Q-1.45 -1.65 -1.5 -1.6 L-1.55 -1.45 -1.55 -1.4 -1.5 -1.35 -1.55 -1.3 -1.55 -1.2 -1.6 -1.15 -1.65 -1.1 -1.75 -1.05 -1.75 -0.9 -1.75 -0.8 -1.7 -0.75 -1.7 -0.7 -1.75 -0.65 -1.8 -0.65 -1.8 -0.65 -1.85 -0.6 -1.9 -0.55 -1.85 -0.55 -1.85 -0.45 -1.9 -0.45 -1.85 -0.4 -1.85 -0.35 -1.9 -0.35 -1.95 -0.3 -1.95 -0.2 -1.9 -0.15 Q-1.95 -0.1 -1.9 -0.05 L-1.9 0.0 -1.95 0.05 -1.95 -0.05 -2.0 -0.1 -2.05 -0.15 -2.1 -0.2 -2.05 -0.25 Q-2.05 -0.25 -2.05 -0.3 L-2.1 -0.3 -2.2 -0.35 M-1.5 -1.35 L-1.5 -1.35" fill="#967503" fill-rule="evenodd" stroke="none"/>
    <path d="M-2.2 -0.75 L-2.2 -0.85 -2.05 -0.85 -1.9 -0.9 Q-1.9 -0.9 -1.9 -0.95 L-1.9 -1.0 -1.85 -1.05 -1.85 -1.1 -1.85 -1.3 Q-1.8 -1.3 -1.8 -1.35 L-1.85 -1.4 -1.85 -1.3 -1.9 -1.3 -1.95 -1.35 -1.95 -1.45 -1.9 -1.5 -1.9 -1.55 -1.85 -1.65 -1.75 -1.75 -1.6 -1.85 Q-1.5 -1.9 -1.5 -2.0 -1.45 -2.0 -1.45 -2.0 L-1.4 -2.1 -1.4 -2.0 Q-1.4 -2.0 -1.45 -1.95 L-1.45 -1.95 -1.45 -1.8 Q-1.45 -1.75 -1.5 -1.75 L-1.55 -1.7 -1.65 -1.7 -1.7 -1.65 -1.8 -1.65 -1.8 -1.45 -1.75 -1.45 -1.7 -1.5 -1.75 -1.35 -1.8 -1.25 -1.75 -1.15 -1.7 -1.15 -1.7 -1.1 -1.75 -1.1 -1.8 -1.1 -1.8 -0.95 -1.8 -0.8 -1.9 -0.85 -2.0 -0.8 -2.05 -0.85 -2.1 -0.8 -2.2 -0.75" fill="#886900" fill-rule="evenodd" stroke="none"/>
    <path d="M-2.2 -0.25 L-2.2 -0.35 -2.1 -0.3 -2.05 -0.3 Q-2.05 -0.25 -2.05 -0.25 L-2.1 -0.2 -2.05 -0.15 -2.0 -0.1 -1.95 -0.05 -1.95 0.05 Q-1.9 0.1 -1.95 0.1 L-2.05 0.05 -2.0 0.1 -2.0 0.15 -2.05 0.1 -2.05 -0.05 -2.1 -0.15 Q-2.15 -0.2 -2.2 -0.25" fill="#836801" fill-rule="evenodd" stroke="none"/>
    <path d="M-2.2 1.1 L-2.2 -0.25 Q-2.15 -0.2 -2.1 -0.15 L-2.05 -0.05 -2.05 0.1 -2.0 0.15 -2.0 0.2 -2.05 0.3 -2.0 0.3 -1.95 0.35 Q-1.95 0.4 -2.0 0.5 L-2.0 0.6 -1.95 0.65 -1.85 0.75 Q-1.85 0.8 -1.85 0.85 L-1.85 0.95 -1.8 1.0 -1.75 1.05 Q-1.7 1.05 -1.7 1.1 L-1.75 1.1 -1.95 1.35 -2.05 1.35 -2.1 1.35 -2.1 1.3 -2.05 1.3 Q-2.05 1.25 -2.1 1.2 -2.1 1.15 -2.2 1.1 M-1.85 0.85 L-1.85 0.85" fill="#785701" fill-rule="evenodd" stroke="none"/>
    <path d="M-0.2 -2.2 L-0.1 -2.2 Q-0.1 -2.15 -0.15 -2.1 L-0.2 -2.1 -0.3 -2.1 -0.3 -2.0 Q-0.35 -2.1 -0.3 -2.1 L-0.2 -2.2" fill="#9e863f" fill-rule="evenodd" stroke="none"/>
    <path d="M-0.35 -2.0 L-0.55 -2.0 -0.5 -2.05 -0.5 -2.1 -0.4 -2.05 -0.35 -2.0" fill="#af974a" fill-rule="evenodd" stroke="none"/>
    <path d="M-0.95 -2.2 L-0.35 -2.2 -0.35 -2.1 -0.4 -2.05 -0.5 -2.1 -0.5 -2.05 -0.6 -2.05 -0.65 -2.0 Q-0.65 -2.05 -0.7 -2.05 L-0.8 -2.0 Q-0.9 -2.0 -0.95 -2.05 -1.0 -2.1 -0.95 -2.2" fill="#6d5901" fill-rule="evenodd" stroke="none"/>
    <path d="M-0.35 -2.2 L-0.2 -2.2 -0.3 -2.1 Q-0.35 -2.1 -0.3 -2.0 L-0.35 -2.0 -0.4 -2.05 -0.35 -2.1 -0.35 -2.2 M-0.35 -2.0 L-0.35 -2.0" fill="#907622" fill-rule="evenodd" stroke="none"/>
    <path d="M-0.75 -1.95 L-0.75 -2.0 -0.8 -2.0 -0.7 -2.05 Q-0.65 -2.05 -0.65 -2.0 L-0.7 -2.0 -0.75 -1.95 M-0.8 -2.0 L-0.8 -2.0" fill="#8e7b1c" fill-rule="evenodd" stroke="none"/>
    <path d="M-1.25 -2.2 L-0.95 -2.2 Q-1.0 -2.1 -0.95 -2.05 -0.9 -2.0 -0.8 -2.0 L-0.8 -2.0 -0.9 -1.95 -0.95 -1.9 Q-0.95 -1.85 -1.0 -1.9 L-1.0 -1.95 -1.05 -1.9 -1.1 -1.85 -1.15 -1.85 -1.15 -1.85 -1.3 -1.85 -1.35 -1.85 -1.4 -1.8 Q-1.45 -1.85 -1.4 -1.95 L-1.35 -2.05 -1.35 -2.1 -1.3 -2.15 -1.25 -2.2" fill="#a99002" fill-rule="evenodd" stroke="none"/>
    <path d="M-0.75 -1.95 L-0.85 -1.9 -0.9 -1.85 Q-0.95 -1.85 -1.0 -1.85 -1.05 -1.85 -1.05 -1.9 L-1.0 -1.95 -1.0 -1.9 Q-0.95 -1.85 -0.95 -1.9 L-0.9 -1.95 -0.8 -2.0 -0.75 -2.0 -0.75 -1.95" fill="#bba53b" fill-rule="evenodd" stroke="none"/>
    <path d="M-0.55 -2.0 L-0.55 -1.95 -0.6 -2.0 -0.65 -2.0 -0.6 -2.05 -0.5 -2.05 -0.55 -2.0" fill="#977c0c" fill-rule="evenodd" stroke="none"/>
    <path d="M-0.55 -1.95 L-0.6 -1.95 -0.6 -1.95 -0.7 -1.95 -0.75 -1.95 -0.7 -2.0 -0.65 -2.0 -0.6 -2.0 -0.55 -1.95" fill="#bca642" fill-rule="evenodd" stroke="none"/>
    <path d="M-0.5 -1.65 L-0.55 -1.65 -0.55 -1.65 -0.55 -1.65 -0.5 -1.65" fill="#bd6ff2" fill-rule="evenodd" stroke="none"/>
    <path d="M-1.4 -1.15 L-1.35 -1.25 -1.25 -1.35 -1.2 -1.4 -1.1 -1.45 -1.0 -1.55 -0.9 -1.65 Q-0.8 -1.65 -0.65 -1.75 L-0.4 -1.85 -0.3 -1.85 -0.2 -1.85 -0.1 -1.85 -0.1 -1.8 -0.15 -1.8 -0.2 -1.8 -0.2 -1.8 -0.3 -1.75 -0.3 -1.75 -0.35 -1.7 -0.5 -1.65 -0.55 -1.65 -0.55 -1.65 -0.65 -1.6 -0.8 -1.55 -0.8 -1.5 -0.85 -1.5 -0.85 -1.5 -0.9 -1.45 -0.9 -1.45 -0.95 -1.45 -1.0 -1.4 -1.05 -1.4 -1.1 -1.35 -1.15 -1.3 -1.15 -1.25 -1.2 -1.25 -1.2 -1.2 -1.2 -1.2 -1.25 -1.15 -1.25 -1.1 -1.3 -1.05 Q-1.3 -1.05 -1.3 -1.1 L-1.35 -1.15 Q-1.35 -1.15 -1.4 -1.1 L-1.4 -1.15 -1.4 -1.15 -1.4 -1.15 M-0.85 -1.5 L-0.85 -1.5" fill="#fdf9c2" fill-rule="evenodd" stroke="none"/>
    <path d="M-0.8 -1.55 L-0.8 -1.5 -0.85 -1.5 -0.8 -1.5 -0.8 -1.55" fill="#bf73f5" fill-rule="evenodd" stroke="none"/>
    <path d="M-0.85 -1.5 L-0.85 -1.45 -0.9 -1.45 -0.85 -1.5 -0.85 -1.5" fill="#c983f3" fill-rule="evenodd" stroke="none"/>
    <path d="M-0.9 -1.45 L-0.9 -1.45 -0.95 -1.45 -0.9 -1.45 -0.9 -1.45" fill="#bc73f4" fill-rule="evenodd" stroke="none"/>
    <path d="M-0.55 -1.45 L-0.55 -1.45 Q-0.5 -1.45 -0.5 -1.45 L-0.4 -1.5 -0.4 -1.5 -0.35 -1.5 -0.35 -1.45 Q-0.35 -1.4 -0.4 -1.4 L-0.55 -1.4 -0.55 -1.45" fill="#fcf6ee" fill-rule="evenodd" stroke="none"/>
    <path d="M-0.35 -1.4 L-0.45 -1.4 -0.6 -1.4 -0.6 -1.4 -0.45 -1.4 -0.35 -1.4" fill="#9737fd" fill-rule="evenodd" stroke="none"/>
    <path d="M-0.6 -1.4 L-0.55 -1.45 -0.55 -1.4 -0.4 -1.4 Q-0.35 -1.4 -0.35 -1.45 L-0.35 -1.4 -0.35 -1.4 -0.45 -1.4 -0.6 -1.4" fill="#e199f7" fill-rule="evenodd" stroke="none"/>
    <path d="M-0.55 -1.45 L-0.5 -1.45 -0.5 -1.45 Q-0.5 -1.45 -0.55 -1.45" fill="#d17ff9" fill-rule="evenodd" stroke="none"/>
    <path d="M-0.15 -1.8 L-0.2 -1.8 -0.2 -1.8 -0.15 -1.8" fill="#c27aef" fill-rule="evenodd" stroke="none"/>
    <path d="M-0.2 -1.8 L-0.25 -1.75 -0.3 -1.75 -0.2 -1.8" fill="#c178f0" fill-rule="evenodd" stroke="none"/>
    <path d="M-0.1 -1.6 L-0.1 -1.65 -0.05 -1.65 -0.1 -1.6" fill="#c875f9" fill-rule="evenodd" stroke="none"/>
    <path d="M-0.35 -1.7 L-0.45 -1.7 -0.5 -1.65 -0.35 -1.7" fill="#c782f0" fill-rule="evenodd" stroke="none"/>
    <path d="M-0.4 -1.5 L-0.35 -1.55 Q-0.3 -1.55 -0.3 -1.5 L-0.3 -1.45 -0.35 -1.4 -0.35 -1.45 -0.35 -1.5 -0.4 -1.5" fill="#b958fa" fill-rule="evenodd" stroke="none"/>
    <path d="M-0.5 -1.45 L-0.45 -1.5 -0.4 -1.5 -0.5 -1.45" fill="#bc67f9" fill-rule="evenodd" stroke="none"/>
    <path d="M-0.15 -1.4 L-0.15 -1.5 -0.1 -1.6 -0.1 -1.4 -0.15 -1.4" fill="#d99ef6" fill-rule="evenodd" stroke="none"/>
    <path d="M-1.3 -1.7 L-1.35 -1.7 -1.4 -1.7 -1.45 -1.7 -1.45 -1.5 Q-1.45 -1.45 -1.5 -1.35 L-1.55 -1.4 -1.55 -1.45 -1.5 -1.6 Q-1.45 -1.65 -1.45 -1.7 L-1.4 -1.75 -1.4 -1.8 -1.35 -1.85 -1.3 -1.85 -1.3 -1.7" fill="#a0871e" fill-rule="evenodd" stroke="none"/>
    <path d="M-1.5 -1.35 L-1.55 -1.25 -1.55 -1.15 -1.65 -1.05 -1.7 -0.9 -1.7 -0.85 -1.75 -0.8 -1.75 -0.9 -1.75 -1.05 -1.65 -1.1 -1.6 -1.15 -1.55 -1.2 -1.55 -1.3 -1.5 -1.35" fill="#b28e25" fill-rule="evenodd" stroke="none"/>
    <path d="M-1.55 -1.15 L-1.55 -1.25 -1.5 -1.35 Q-1.45 -1.45 -1.45 -1.5 L-1.45 -1.7 -1.4 -1.7 -1.35 -1.7 -1.3 -1.7 -1.25 -1.7 -1.25 -1.75 -1.25 -1.65 -1.35 -1.55 -1.4 -1.5 -1.45 -1.4 Q-1.45 -1.35 -1.5 -1.3 L-1.5 -1.2 -1.55 -1.15 M-1.5 -1.35 L-1.5 -1.35" fill="#b09841" fill-rule="evenodd" stroke="none"/>
    <path d="M-1.15 -1.85 L-1.15 -1.8 -1.1 -1.75 -1.15 -1.75 -1.15 -1.7 -1.25 -1.6 -1.35 -1.5 -1.4 -1.4 -1.5 -1.3 Q-1.45 -1.2 -1.5 -1.15 L-1.55 -1.1 -1.6 -1.0 -1.55 -1.1 -1.5 -1.1 -1.5 -1.05 -1.6 -0.9 -1.6 -0.7 -1.6 -0.6 Q-1.7 -0.55 -1.7 -0.35 L-1.7 -0.2 -1.75 -0.05 -1.75 -0.15 Q-1.75 -0.2 -1.8 -0.2 -1.75 -0.25 -1.75 -0.3 L-1.75 -0.4 -1.7 -0.5 -1.65 -0.6 -1.6 -0.65 -1.6 -0.7 Q-1.6 -0.65 -1.65 -0.65 L-1.7 -0.65 -1.75 -0.65 -1.75 -0.65 -1.7 -0.7 -1.7 -0.75 -1.75 -0.8 -1.7 -0.85 -1.7 -0.9 -1.65 -1.05 -1.55 -1.15 -1.5 -1.2 -1.5 -1.3 Q-1.45 -1.35 -1.45 -1.4 L-1.4 -1.5 -1.35 -1.55 -1.25 -1.65 -1.25 -1.75 -1.2 -1.8 -1.15 -1.85" fill="#c7ac54" fill-rule="evenodd" stroke="none"/>
    <path d="M-1.1 -1.85 L-1.15 -1.85 -1.2 -1.8 -1.25 -1.75 -1.25 -1.7 -1.3 -1.7 -1.3 -1.85 -1.15 -1.85 -1.15 -1.85 -1.1 -1.85" fill="#b39b23" fill-rule="evenodd" stroke="none"/>
    <path d="M-1.1 -1.35 L-1.15 -1.35 -1.15 -1.25 -1.15 -1.3 -1.1 -1.35" fill="#c480f1" fill-rule="evenodd" stroke="none"/>
    <path d="M-1.15 -1.25 L-1.2 -1.2 -1.2 -1.25 -1.15 -1.25" fill="#cd86f7" fill-rule="evenodd" stroke="none"/>
    <path d="M-1.0 -1.4 L-1.1 -1.35 -1.05 -1.4 -1.0 -1.4" fill="#c685ee" fill-rule="evenodd" stroke="none"/>
    <path d="M-1.25 -1.15 L-1.25 -1.1 -1.25 -1.15" fill="#d38def" fill-rule="evenodd" stroke="none"/>
    <path d="M-1.3 -1.1 L-1.35 -1.1 -1.4 -1.1 Q-1.35 -1.15 -1.35 -1.15 L-1.3 -1.1" fill="#cb8de7" fill-rule="evenodd" stroke="none"/>
    <path d="M-1.5 -1.15 L-1.4 -1.15 -1.5 -1.1 -1.45 -1.0 -1.5 -1.05 -1.5 -1.05 -1.5 -1.1 -1.5 -1.15 M-1.4 -1.15 L-1.4 -1.15 -1.4 -1.15" fill="#b367e2" fill-rule="evenodd" stroke="none"/>
    <path d="M-1.5 -1.05 L-1.55 -0.85 -1.6 -0.7 -1.6 -0.9 -1.5 -1.05 -1.5 -1.05" fill="#fff298" fill-rule="evenodd" stroke="none"/>
    <path d="M-1.45 -0.85 L-1.5 -0.8 -1.55 -0.7 -1.55 -0.6 -1.55 -0.6 -1.6 -0.55 -1.6 -0.45 Q-1.65 -0.25 -1.6 0.05 L-1.6 0.2 -1.55 0.35 -1.5 0.45 -1.45 0.55 -1.45 0.6 -1.35 0.6 -1.35 0.6 -1.35 0.65 -1.3 0.7 -1.3 0.75 -1.2 0.85 -1.2 0.95 -1.25 1.0 -1.35 1.1 -1.4 1.1 -1.4 1.1 -1.4 1.15 -1.45 1.0 -1.4 0.85 -1.5 0.7 -1.6 0.5 -1.65 0.3 -1.65 0.05 -1.7 -0.1 -1.65 -0.35 -1.6 -0.6 -1.6 -0.7 -1.55 -0.85 -1.5 -1.05 -1.45 -1.0 -1.45 -0.95 Q-1.45 -0.9 -1.45 -0.85 M-1.35 1.1 L-1.35 1.1" fill="#fefac1" fill-rule="evenodd" stroke="none"/>
    <path d="M-1.45 -1.0 L-1.45 -0.95 Q-1.4 -0.9 -1.45 -0.85 -1.45 -0.9 -1.45 -0.95 L-1.45 -1.0" fill="#bc68f1" fill-rule="evenodd" stroke="none"/>
    <path d="M-1.1 -0.75 L-1.1 -0.7 -1.15 -0.75 -1.15 -0.9 Q-1.1 -0.9 -1.1 -0.85 L-1.1 -0.8 -1.1 -0.75" fill="#f0b6f4" fill-rule="evenodd" stroke="none"/>
    <path d="M-1.1 -0.8 L-1.1 -0.75 -1.1 -0.8" fill="#b849fc" fill-rule="evenodd" stroke="none"/>
    <path d="M-1.85 -0.35 L-1.85 -0.4 -1.9 -0.45 -1.85 -0.45 -1.85 -0.55 -1.9 -0.55 -1.85 -0.6 -1.8 -0.65 -1.8 -0.65 -1.75 -0.65 -1.8 -0.55 -1.85 -0.45 -1.85 -0.4 Q-1.8 -0.35 -1.85 -0.35 M-1.75 -0.65 L-1.75 -0.65" fill="#ac892e" fill-rule="evenodd" stroke="none"/>
    <path d="M-1.75 -0.65 L-1.7 -0.65 -1.65 -0.65 Q-1.6 -0.65 -1.6 -0.7 L-1.6 -0.65 -1.65 -0.6 -1.7 -0.6 -1.75 -0.5 -1.8 -0.35 -1.85 -0.3 -1.8 -0.2 -1.8 -0.15 Q-1.85 -0.1 -1.75 -0.05 L-1.8 0.0 -1.8 0.05 -1.8 0.05 -1.8 -0.05 -1.85 -0.05 -1.85 -0.2 -1.9 -0.35 -1.85 -0.35 Q-1.8 -0.35 -1.85 -0.4 L-1.85 -0.45 -1.8 -0.55 -1.75 -0.65" fill="#caac53" fill-rule="evenodd" stroke="none"/>
    <path d="M-1.55 -0.6 L-1.55 -0.5 -1.6 -0.45 -1.6 -0.55 -1.55 -0.6" fill="#bd73ec" fill-rule="evenodd" stroke="none"/>
    <path d="M-1.8 0.05 L-1.8 0.0 -1.75 -0.05 Q-1.85 -0.1 -1.8 -0.15 L-1.8 -0.2 -1.85 -0.3 -1.8 -0.35 -1.75 -0.5 -1.7 -0.6 -1.65 -0.6 -1.7 -0.5 -1.75 -0.4 -1.75 -0.3 Q-1.75 -0.25 -1.8 -0.2 -1.75 -0.2 -1.75 -0.15 L-1.75 -0.05 -1.7 0.15 -1.75 0.2 -1.75 0.15 -1.8 0.15 -1.8 0.05" fill="#e0c470" fill-rule="evenodd" stroke="none"/>
    <path d="M-1.6 -0.45 L-1.6 -0.25 -1.6 0.05 Q-1.65 -0.25 -1.6 -0.45 M-1.6 0.05 L-1.6 0.05" fill="#c275f0" fill-rule="evenodd" stroke="none"/>
    <path d="M-1.6 -0.6 L-1.65 -0.35 -1.7 -0.1 -1.65 0.05 -1.7 0.15 -1.7 0.2 -1.75 0.2 -1.7 0.15 -1.75 -0.05 -1.7 -0.2 -1.7 -0.35 Q-1.7 -0.55 -1.6 -0.6" fill="#fbe897" fill-rule="evenodd" stroke="none"/>
    <path d="M-1.9 -0.35 L-1.85 -0.2 -1.85 -0.05 -1.8 -0.05 -1.8 0.05 -1.8 0.05 -1.8 0.15 Q-1.8 0.2 -1.85 0.15 L-1.95 0.1 -1.9 0.05 -1.9 0.0 -1.9 -0.05 Q-1.95 -0.1 -1.9 -0.15 L-1.95 -0.2 -1.95 -0.3 -1.9 -0.35" fill="#b19535" fill-rule="evenodd" stroke="none"/>
    <path d="M-1.15 -0.55 L-1.1 -0.6 -1.1 -0.55 -1.1 -0.5 -1.1 -0.55 -1.15 -0.55" fill="#c559fc" fill-rule="evenodd" stroke="none"/>
    <path d="M-1.15 -0.55 L-1.1 -0.55 -1.1 -0.5 -1.1 -0.45 -1.1 -0.4 -1.15 -0.4 Q-1.15 -0.35 -1.15 -0.3 L-1.2 -0.3 -1.25 -0.25 -1.25 -0.25 -1.3 -0.2 -1.35 -0.2 -1.3 -0.35 -1.3 -0.5 Q-1.3 -0.55 -1.2 -0.55 L-1.15 -0.55" fill="#fcf8e8" fill-rule="evenodd" stroke="none"/>
    <path d="M-1.3 -0.5 L-1.25 -0.55 -1.2 -0.55 Q-1.3 -0.55 -1.3 -0.5" fill="#cc77f9" fill-rule="evenodd" stroke="none"/>
    <path d="M-1.1 -0.45 L-1.1 -0.4 Q-1.1 -0.3 -1.15 -0.3 -1.15 -0.35 -1.15 -0.4 L-1.1 -0.4 -1.1 -0.45" fill="#c270fa" fill-rule="evenodd" stroke="none"/>
    <path d="M-1.3 -0.2 L-1.3 -0.2 -1.35 -0.2 -1.35 -0.35 -1.35 -0.4 -1.3 -0.5 -1.3 -0.35 -1.35 -0.2 -1.3 -0.2" fill="#c06ef8" fill-rule="evenodd" stroke="none"/>
    <path d="M-1.2 -0.3 L-1.25 -0.25 -1.25 -0.25 -1.25 -0.25 -1.2 -0.3" fill="#c57bf7" fill-rule="evenodd" stroke="none"/>
    <path d="M-1.15 -0.3 L-1.2 -0.3 -1.2 -0.3 -1.15 -0.3" fill="#c276f7" fill-rule="evenodd" stroke="none"/>
    <path d="M-1.2 -0.1 L-1.2 0.0 -1.2 0.0 -1.2 0.05 -1.25 0.05 -1.25 0.1 -1.3 0.15 -1.3 0.15 -1.3 0.0 -1.25 -0.05 -1.2 -0.1 M-1.25 0.1 L-1.25 0.1" fill="#f8e8f5" fill-rule="evenodd" stroke="none"/>
    <path d="M-1.2 -0.1 L-1.2 -0.1 -1.15 -0.1 -1.15 -0.05 -1.2 0.0 -1.2 -0.1" fill="#c35afd" fill-rule="evenodd" stroke="none"/>
    <path d="M-1.5 -0.8 L-1.5 -0.7 -1.55 -0.6 -1.55 -0.7 -1.5 -0.8" fill="#c683ed" fill-rule="evenodd" stroke="none"/>
    <path d="M-0.1 -0.95 L-0.05 -0.95 -0.05 -0.9 -0.1 -0.95" fill="#b961fb" fill-rule="evenodd" stroke="none"/>
    <path d="M-0.3 -1.15 L-0.3 -1.15 -0.3 -1.15 -0.3 -1.15 -0.6 -1.15 -0.9 -1.15 -0.9 -0.9 -0.8 -0.9 -0.7 -0.95 Q-0.75 -0.9 -0.8 -0.9 L-0.9 -0.85 -0.9 -1.0 -0.9 -1.2 -0.6 -1.2 -0.3 -1.15" fill="#e0aef5" fill-rule="evenodd" stroke="none"/>
    <path d="M-0.9 -1.2 L-0.6 -1.2 -0.3 -1.2 -0.25 -1.15 -0.3 -1.15 -0.3 -1.15 -0.6 -1.2 -0.9 -1.2" fill="#c263fa" fill-rule="evenodd" stroke="none"/>
    <path d="M-0.35 -1.1 L-0.35 -1.1 -0.4 -1.05 -0.35 -1.1" fill="#d28bf8" fill-rule="evenodd" stroke="none"/>
    <path d="M-0.3 -1.15 L-0.35 -1.1 -0.4 -1.05 -0.4 -1.05 -0.45 -1.05 -0.5 -1.0 -0.55 -1.0 -0.6 -0.95 -0.6 -0.95 -0.7 -0.95 -0.8 -0.9 -0.9 -0.9 -0.9 -1.15 -0.6 -1.15 -0.3 -1.15 -0.3 -1.15 M-0.7 -0.95 L-0.7 -0.95" fill="#fefce7" fill-rule="evenodd" stroke="none"/>
    <path d="M-0.45 -1.05 L-0.5 -1.0 -0.55 -1.0 -0.5 -1.0 -0.45 -1.05" fill="#c077f7" fill-rule="evenodd" stroke="none"/>
    <path d="M-0.25 -0.7 L-0.35 -0.7 -0.5 -0.7 -0.5 -0.75 -0.4 -0.75 -0.25 -0.75 -0.2 -0.75 -0.25 -0.7" fill="#9b31fe" fill-rule="evenodd" stroke="none"/>
    <path d="M-0.5 -0.75 L-0.35 -0.75 -0.2 -0.75 -0.25 -0.75 -0.4 -0.75 -0.5 -0.75" fill="#f391fd" fill-rule="evenodd" stroke="none"/>
    <path d="M-0.15 -0.85 L-0.2 -0.85 -0.2 -0.9 -0.15 -0.9 -0.15 -0.9 Q-0.1 -0.9 -0.1 -0.85 L-0.15 -0.85" fill="#d69cf7" fill-rule="evenodd" stroke="none"/>
    <path d="M-0.15 -0.9 L-0.15 -0.9 -0.15 -0.9" fill="#c871fb" fill-rule="evenodd" stroke="none"/>
    <path d="M-0.1 -0.6 L-0.15 -0.6 -0.15 -0.65 -0.1 -0.65 -0.1 -0.6" fill="#b573f9" fill-rule="evenodd" stroke="none"/>
    <path d="M-0.15 -0.65 L-0.2 -0.65 -0.25 -0.7 -0.2 -0.75 -0.2 -0.7 -0.2 -0.65 -0.15 -0.65" fill="#ca80f9" fill-rule="evenodd" stroke="none"/>
    <path d="M-0.6 -0.95 L-0.65 -0.95 -0.7 -0.95 -0.6 -0.95" fill="#bf71f8" fill-rule="evenodd" stroke="none"/>
    <path d="M-0.9 -1.0 L-0.9 -1.2 -0.9 -1.0" fill="#8931fd" fill-rule="evenodd" stroke="none"/>
    <path d="M-0.9 -0.7 L-0.85 -0.7 -0.85 -0.45 -0.8 -0.25 -0.85 -0.45 -0.9 -0.7" fill="#d583fa" fill-rule="evenodd" stroke="none"/>
    <path d="M-0.4 -0.5 L-0.35 -0.55 -0.35 -0.6 -0.5 -0.6 -0.6 -0.6 -0.6 -0.5 Q-0.6 -0.45 -0.55 -0.45 L-0.6 -0.5 -0.6 -0.6 -0.35 -0.6 -0.35 -0.5 -0.4 -0.5" fill="#d986fa" fill-rule="evenodd" stroke="none"/>
    <path d="M-0.55 -0.45 Q-0.6 -0.45 -0.6 -0.5 L-0.6 -0.6 -0.5 -0.6 -0.35 -0.6 -0.35 -0.55 -0.4 -0.5 -0.4 -0.5 -0.55 -0.45" fill="#fcf7f1" fill-rule="evenodd" stroke="none"/>
    <path d="M-0.9 -0.2 L-0.9 -0.4 -0.9 -0.35 -0.9 -0.2" fill="#9d46fc" fill-rule="evenodd" stroke="none"/>
    <path d="M-0.9 -0.4 L-0.9 -0.7 -0.9 -0.35 -0.9 -0.4" fill="#e08cfa" fill-rule="evenodd" stroke="none"/>
    <path d="M-0.95 0.75 L-0.95 0.75 -1.0 0.7 -1.0 0.7 -1.05 0.65 -1.05 0.6 -1.1 0.55 -1.15 0.5 -1.15 0.45 -1.15 0.45 -1.2 0.4 -1.15 0.35 -1.15 0.35 -1.1 0.25 -1.05 0.15 -1.0 0.1 -1.0 0.05 -0.95 0.0 -0.9 -0.1 -0.9 -0.1 -0.9 -0.2 -0.9 -0.2 -0.9 -0.35 -0.9 -0.7 -0.85 -0.45 -0.8 -0.25 -0.8 -0.25 -0.8 0.0 -0.8 0.0 -0.8 0.05 -0.7 0.05 -0.65 0.05 -0.7 0.1 -0.75 0.2 -0.75 0.25 -0.8 0.25 -0.8 0.3 -0.8 0.35 -0.85 0.35 -0.85 0.35 -0.9 0.4 -0.9 0.4 -0.95 0.45 -0.95 0.45 -1.0 0.5 Q-1.0 0.5 -1.0 0.55 -1.0 0.6 -0.95 0.7 L-0.9 0.75 -0.85 0.8 Q-0.9 0.85 -0.9 0.8 L-0.95 0.75 M-0.75 0.2 L-0.75 0.2 M-1.1 0.25 L-1.1 0.25" fill="#fcf9ea" fill-rule="evenodd" stroke="none"/>
    <path d="M-0.9 -0.1 L-0.9 -0.2 -0.9 -0.1" fill="#c77ffa" fill-rule="evenodd" stroke="none"/>
    <path d="M-0.95 0.0 L-0.95 -0.05 -0.9 -0.1 -0.95 0.0" fill="#c078fa" fill-rule="evenodd" stroke="none"/>
    <path d="M-0.8 -0.25 L-0.8 0.0 -0.8 -0.25" fill="#ba6bfa" fill-rule="evenodd" stroke="none"/>
    <path d="M-0.8 0.05 L-0.75 0.05 -0.7 0.05 -0.7 0.05 -0.65 0.05 -0.6 0.0 Q-0.55 0.0 -0.6 -0.05 L-0.55 -0.15 -0.45 -0.15 -0.35 -0.15 -0.3 -0.15 -0.3 -0.1 -0.35 -0.1 -0.45 -0.1 -0.45 -0.1 -0.5 -0.05 -0.55 0.0 -0.55 0.0 Q-0.65 0.1 -0.6 0.1 L-0.6 0.1 -0.65 0.05 -0.7 0.05 -0.8 0.05" fill="#f6e7f4" fill-rule="evenodd" stroke="none"/>
    <path d="M-0.5 -0.05 L-0.5 0.0 -0.45 0.0 -0.4 0.0 -0.35 0.0 Q-0.3 0.0 -0.35 0.05 -0.35 0.05 -0.4 0.05 L-0.55 0.0 -0.55 0.0 -0.5 -0.05" fill="#c06ffa" fill-rule="evenodd" stroke="none"/>
    <path d="M-0.6 0.0 L-0.6 -0.1 -0.55 -0.15 -0.35 -0.15 -0.45 -0.15 -0.55 -0.15 -0.6 -0.05 Q-0.55 0.0 -0.6 0.0" fill="#bd5ffc" fill-rule="evenodd" stroke="none"/>
    <path d="M-0.4 -0.35 L-0.5 -0.35 -0.6 -0.35 Q-0.6 -0.3 -0.55 -0.3 L-0.5 -0.3 -0.45 -0.3 -0.5 -0.25 -0.6 -0.3 Q-0.65 -0.35 -0.55 -0.35 L-0.4 -0.35" fill="#ca65fc" fill-rule="evenodd" stroke="none"/>
    <path d="M-0.45 -0.3 L-0.5 -0.3 -0.55 -0.3 Q-0.6 -0.3 -0.6 -0.35 L-0.5 -0.35 -0.4 -0.35 -0.35 -0.35 -0.3 -0.35 -0.35 -0.3 -0.45 -0.3 M-0.4 -0.35 L-0.4 -0.35" fill="#f9ebf6" fill-rule="evenodd" stroke="none"/>
    <path d="M-0.45 -0.3 L-0.35 -0.3 -0.3 -0.35 -0.35 -0.35 -0.4 -0.35 -0.4 -0.35 -0.35 -0.4 Q-0.3 -0.4 -0.3 -0.35 -0.3 -0.3 -0.35 -0.3 L-0.45 -0.3" fill="#c663fc" fill-rule="evenodd" stroke="none"/>
    <path d="M-0.35 -0.6 L-0.6 -0.6 -0.45 -0.6 -0.35 -0.6" fill="#8028fd" fill-rule="evenodd" stroke="none"/>
    <path d="M-0.35 -0.15 L-0.35 -0.2 -0.3 -0.15 -0.35 -0.15" fill="#c558fd" fill-rule="evenodd" stroke="none"/>
    <path d="M-0.3 -0.1 L-0.35 -0.1 -0.45 -0.1 -0.35 -0.1 -0.3 -0.1" fill="#c161fc" fill-rule="evenodd" stroke="none"/>
    <path d="M-0.3 -0.15 L-0.3 -0.1 -0.3 -0.15" fill="#de66fd" fill-rule="evenodd" stroke="none"/>
    <path d="M-0.1 -0.1 L-0.1 -0.4 -0.1 -0.6 -0.1 -0.1" fill="#d27efa" fill-rule="evenodd" stroke="none"/>
    <path d="M-0.1 0.0 L-0.1 -0.1 -0.1 0.0" fill="#c989f9" fill-rule="evenodd" stroke="none"/>
    <path d="M-0.05 -0.65 L-0.05 -0.2 -0.05 -0.65" fill="#cc7bfa" fill-rule="evenodd" stroke="none"/>
    <path d="M0.05 0.2 L0.0 0.15 -0.05 0.15 0.05 0.2 M-0.05 0.15 L-0.05 0.15" fill="#b975f6" fill-rule="evenodd" stroke="none"/>
    <path d="M-0.1 0.1 L-0.15 0.05 -0.15 0.05 -0.1 0.0 -0.15 0.05 -0.1 0.1" fill="#c56dfc" fill-rule="evenodd" stroke="none"/>
    <path d="M-0.15 0.2 L-0.15 0.25 -0.15 0.2" fill="#b873f9" fill-rule="evenodd" stroke="none"/>
    <path d="M-0.2 0.2 L-0.2 0.2 Q-0.15 0.2 -0.2 0.2 L-0.2 0.2" fill="#c179fa" fill-rule="evenodd" stroke="none"/>
    <path d="M-0.1 0.25 L-0.1 0.25 -0.05 0.25 -0.1 0.25 -0.1 0.25" fill="#cb98f3" fill-rule="evenodd" stroke="none"/>
    <path d="M-0.05 0.25 L-0.05 0.25 -0.05 0.25" fill="#be64f9" fill-rule="evenodd" stroke="none"/>
    <path d="M-0.05 0.25 L0.0 0.25 0.0 0.25 -0.05 0.25" fill="#c98cf2" fill-rule="evenodd" stroke="none"/>
    <path d="M-0.4 0.1 L-0.35 0.1 -0.35 0.15 -0.4 0.1" fill="#cb7dfb" fill-rule="evenodd" stroke="none"/>
    <path d="M-0.45 0.4 L-0.5 0.25 -0.45 0.15 -0.5 0.2 -0.45 0.25 -0.45 0.4" fill="#d8a2f8" fill-rule="evenodd" stroke="none"/>
    <path d="M-0.3 0.15 L-0.3 0.2 -0.3 0.15" fill="#d085fa" fill-rule="evenodd" stroke="none"/>
    <path d="M-0.3 0.2 L-0.25 0.3 -0.25 0.4 -0.05 0.4 0.1 0.4 -0.25 0.45 -0.3 0.2" fill="#c97ff6" fill-rule="evenodd" stroke="none"/>
    <path d="M-0.45 0.45 L-0.45 0.4 -0.45 0.25 Q-0.45 0.3 -0.45 0.35 L-0.45 0.45" fill="#a049fb" fill-rule="evenodd" stroke="none"/>
    <path d="M-0.05 0.55 L-0.25 0.6 -0.4 0.55 -0.4 0.55 -0.3 0.55 -0.2 0.55 -0.1 0.55 -0.05 0.55" fill="#d49ceb" fill-rule="evenodd" stroke="none"/>
    <path d="M-0.1 0.55 L-0.2 0.55 -0.3 0.55 -0.1 0.55" fill="#8834fa" fill-rule="evenodd" stroke="none"/>
    <path d="M-0.6 0.1 L-0.55 0.1 -0.55 0.15 -0.6 0.15 -0.6 0.1 -0.6 0.1" fill="#c17cf9" fill-rule="evenodd" stroke="none"/>
    <path d="M-0.55 0.15 L-0.55 0.25 -0.7 0.45 -0.75 0.5 -0.85 0.55 -0.9 0.55 -0.95 0.55 Q-1.0 0.55 -1.0 0.5 L-0.95 0.45 -0.9 0.45 -0.9 0.4 -0.85 0.35 -0.8 0.35 -0.8 0.35 -0.8 0.3 -0.75 0.25 -0.75 0.25 -0.75 0.2 -0.7 0.1 -0.6 0.1 -0.6 0.15 -0.55 0.15 M-0.75 0.2 L-0.75 0.2 M-0.95 0.45 L-0.95 0.45 M-0.75 0.5 L-0.75 0.5" fill="#5605ff" fill-rule="evenodd" stroke="none"/>
    <path d="M-0.75 0.05 L-0.7 0.05 -0.7 0.05 -0.7 0.05 -0.75 0.05" fill="#bb5ffb" fill-rule="evenodd" stroke="none"/>
    <path d="M-0.6 0.1 L-0.7 0.1 -0.65 0.05 -0.6 0.1" fill="#c37ef9" fill-rule="evenodd" stroke="none"/>
    <path d="M-0.75 0.2 L-0.75 0.2 -0.75 0.2" fill="#bc6ff9" fill-rule="evenodd" stroke="none"/>
    <path d="M-0.8 0.0 L-0.75 0.0 -0.8 0.05 -0.8 0.0" fill="#b772f9" fill-rule="evenodd" stroke="none"/>
    <path d="M-1.0 0.1 L-1.0 0.05 -1.0 0.1" fill="#b96ffa" fill-rule="evenodd" stroke="none"/>
    <path d="M-1.0 0.05 L-1.0 0.0 -0.95 0.0 -1.0 0.05" fill="#c97ffa" fill-rule="evenodd" stroke="none"/>
    <path d="M-0.75 0.25 L-0.75 0.25 -0.8 0.3 -0.8 0.25 -0.75 0.25" fill="#ba6ff8" fill-rule="evenodd" stroke="none"/>
    <path d="M-0.8 0.35 L-0.8 0.35 -0.85 0.35 -0.85 0.35 -0.8 0.35" fill="#b466f7" fill-rule="evenodd" stroke="none"/>
    <path d="M-0.8 0.3 L-0.8 0.35 -0.8 0.3" fill="#ba6ff7" fill-rule="evenodd" stroke="none"/>
    <path d="M-0.9 0.4 L-0.9 0.45 -0.95 0.45 -0.9 0.4 -0.9 0.4" fill="#c67ff5" fill-rule="evenodd" stroke="none"/>
    <path d="M-0.95 0.45 L-0.95 0.45 -0.95 0.45" fill="#bc7df5" fill-rule="evenodd" stroke="none"/>
    <path d="M-0.85 0.55 L-0.9 0.55 -1.0 0.55 Q-1.0 0.5 -1.0 0.5 -1.0 0.55 -0.95 0.55 L-0.9 0.55 -0.85 0.55" fill="#c896f1" fill-rule="evenodd" stroke="none"/>
    <path d="M-0.75 0.5 L-0.75 0.5 -0.75 0.5" fill="#ba71f3" fill-rule="evenodd" stroke="none"/>
    <path d="M-0.95 0.75 L-1.0 0.75 -1.0 0.7 -0.95 0.75" fill="#bb73f9" fill-rule="evenodd" stroke="none"/>
    <path d="M-0.7 0.95 L-0.85 0.9 -0.95 0.75 -0.9 0.8 Q-0.9 0.85 -0.85 0.8 L-0.6 0.95 -0.7 0.95" fill="#d499f3" fill-rule="evenodd" stroke="none"/>
    <path d="M-1.25 0.75 L-1.2 0.8 -1.2 0.85 -1.15 0.85 -1.1 0.9 -1.1 0.95 -0.95 1.0 -0.9 1.05 -0.85 1.1 -0.75 1.15 -0.65 1.15 -0.65 1.15 -0.7 1.15 -0.7 1.25 -0.75 1.25 -0.75 1.2 -0.8 1.2 -0.85 1.2 -0.85 1.15 Q-0.8 1.15 -0.85 1.15 L-0.9 1.15 -1.1 1.3 -1.3 1.45 -1.35 1.45 -1.35 1.35 -1.35 1.35 Q-1.2 1.2 -1.05 1.15 -1.0 1.1 -1.05 1.1 L-1.1 1.05 -1.1 1.05 -1.2 1.05 -1.2 1.0 -1.25 1.05 -1.35 1.1 -1.25 1.0 -1.2 0.95 -1.2 0.85 -1.3 0.75 -1.25 0.75" fill="#f8eee4" fill-rule="evenodd" stroke="none"/>
    <path d="M-0.85 1.15 L-0.9 1.15 -0.85 1.15 Q-0.8 1.15 -0.85 1.15" fill="#c87bf7" fill-rule="evenodd" stroke="none"/>
    <path d="M-0.85 1.2 L-0.8 1.2 -0.8 1.2 -0.85 1.2" fill="#c565f9" fill-rule="evenodd" stroke="none"/>
    <path d="M-0.9 1.4 L-1.0 1.45 -1.05 1.5 -1.1 1.55 -1.2 1.65 -1.3 1.75 -1.35 1.75 -1.45 1.7 -1.45 1.7 -1.5 1.65 -1.4 1.55 -1.3 1.45 -1.1 1.3 -0.9 1.15 -0.85 1.15 -0.85 1.2 -0.8 1.2 -0.8 1.2 -0.75 1.2 -0.75 1.25 -0.75 1.3 -0.75 1.3 -0.8 1.3 -0.8 1.3 -0.85 1.35 Q-0.85 1.35 -0.9 1.35 L-0.9 1.4" fill="#5904fe" fill-rule="evenodd" stroke="none"/>
    <path d="M-0.6 0.95 L-0.65 1.0 -0.7 0.95 -0.6 0.95 -0.6 0.95" fill="#8d37fb" fill-rule="evenodd" stroke="none"/>
    <path d="M-0.5 1.0 L-0.5 1.0 -0.55 1.0 -0.5 1.0" fill="#c77cf2" fill-rule="evenodd" stroke="none"/>
    <path d="M-0.65 1.15 L-0.55 1.15 -0.45 1.2 -0.65 1.15" fill="#be72f3" fill-rule="evenodd" stroke="none"/>
    <path d="M-0.2 1.0 L-0.3 1.05 -0.35 1.0 -0.3 1.0 -0.2 1.0 -0.2 1.0" fill="#8833fa" fill-rule="evenodd" stroke="none"/>
    <path d="M-0.35 1.0 L-0.45 1.0 -0.5 1.0 -0.4 1.0 -0.3 1.0 -0.35 1.0" fill="#ce8cef" fill-rule="evenodd" stroke="none"/>
    <path d="M0.0 1.0 L0.0 1.05 -0.2 1.05 -0.2 1.0 -0.2 1.0 0.0 1.0" fill="#cf8cf0" fill-rule="evenodd" stroke="none"/>
    <path d="M-0.4 1.2 L-0.2 1.2 -0.2 1.2 -0.15 1.2 0.1 1.2 -0.15 1.2 -0.15 1.2 -0.4 1.2" fill="#cc88ef" fill-rule="evenodd" stroke="none"/>
    <path d="M0.0 1.05 L-0.1 1.05 -0.2 1.05 0.0 1.05" fill="#943cfa" fill-rule="evenodd" stroke="none"/>
    <path d="M-1.2 0.0 L-1.2 0.05 -1.2 0.0" fill="#c974fb" fill-rule="evenodd" stroke="none"/>
    <path d="M-1.25 0.1 L-1.25 0.1 -1.25 0.1" fill="#cc75fb" fill-rule="evenodd" stroke="none"/>
    <path d="M-1.1 0.25 L-1.1 0.25 -1.1 0.25" fill="#bd74f9" fill-rule="evenodd" stroke="none"/>
    <path d="M-1.15 0.35 L-1.15 0.3 -1.1 0.25 -1.15 0.35" fill="#c480f8" fill-rule="evenodd" stroke="none"/>
    <path d="M-1.3 0.15 L-1.3 0.0 -1.3 0.15" fill="#c867fc" fill-rule="evenodd" stroke="none"/>
    <path d="M-1.3 0.15 L-1.3 0.15 -1.3 0.15" fill="#ce65fe" fill-rule="evenodd" stroke="none"/>
    <path d="M-1.45 0.35 L-1.45 0.45 -1.45 0.35" fill="#d588f7" fill-rule="evenodd" stroke="none"/>
    <path d="M-1.6 0.05 L-1.6 0.05 -1.6 0.05 -1.6 0.1 -1.55 0.2 -1.55 0.25 -1.5 0.3 -1.5 0.35 -1.45 0.35 -1.45 0.45 -1.45 0.55 -1.45 0.55 -1.5 0.45 -1.55 0.35 -1.6 0.2 -1.6 0.05" fill="#faf4dd" fill-rule="evenodd" stroke="none"/>
    <path d="M-1.45 0.55 L-1.45 0.6 -1.4 0.55 Q-1.35 0.55 -1.35 0.6 L-1.45 0.6 -1.45 0.55 -1.45 0.55" fill="#c98eee" fill-rule="evenodd" stroke="none"/>
    <path d="M-1.15 0.45 L-1.2 0.45 -1.2 0.4 -1.15 0.45 -1.15 0.45" fill="#c471f9" fill-rule="evenodd" stroke="none"/>
    <path d="M-1.1 0.55 L-1.15 0.5 -1.15 0.5 -1.1 0.55" fill="#ce8ef7" fill-rule="evenodd" stroke="none"/>
    <path d="M-1.15 0.5 L-1.15 0.45 -1.15 0.5" fill="#c279f8" fill-rule="evenodd" stroke="none"/>
    <path d="M-1.55 0.25 L-1.5 0.3 -1.5 0.35 -1.5 0.3 -1.55 0.25" fill="#bd74f6" fill-rule="evenodd" stroke="none"/>
    <path d="M-1.6 0.05 L-1.55 0.1 -1.55 0.2 -1.6 0.1 -1.6 0.05" fill="#bc70f5" fill-rule="evenodd" stroke="none"/>
    <path d="M-1.65 0.05 L-1.65 0.3 -1.6 0.5 -1.5 0.7 -1.4 0.85 -1.45 1.0 -1.4 1.15 -1.45 1.15 -1.45 1.2 -1.5 1.2 -1.5 1.2 -1.5 1.05 -1.55 0.9 -1.6 0.8 -1.6 0.65 -1.65 0.55 -1.7 0.45 Q-1.75 0.3 -1.75 0.2 L-1.7 0.2 -1.7 0.15 -1.65 0.05" fill="#f6e3a9" fill-rule="evenodd" stroke="none"/>
    <path d="M-1.75 0.15 L-1.75 0.2 -1.85 0.3 -1.75 0.5 -1.7 0.6 -1.7 0.75 -1.75 0.8 Q-1.8 0.85 -1.75 0.85 L-1.65 0.9 -1.6 0.95 -1.55 1.0 -1.55 1.1 -1.55 1.05 -1.6 1.05 -1.65 1.05 -1.65 1.1 Q-1.65 1.05 -1.7 1.0 L-1.75 0.95 -1.8 0.9 -1.85 0.85 -1.85 0.85 -1.8 0.85 -1.8 0.8 -1.8 0.75 -1.75 0.75 -1.75 0.5 -1.8 0.45 -1.85 0.4 -1.85 0.35 -1.9 0.25 -1.8 0.2 -1.75 0.15" fill="#c9b379" fill-rule="evenodd" stroke="none"/>
    <path d="M-1.75 0.2 L-1.7 0.15 -1.75 0.2 Q-1.75 0.3 -1.7 0.45 L-1.65 0.55 -1.6 0.65 -1.6 0.8 -1.55 0.9 -1.5 1.05 -1.5 1.2 -1.5 1.15 -1.55 1.1 -1.55 1.0 -1.6 0.95 -1.65 0.9 -1.75 0.85 Q-1.8 0.85 -1.75 0.8 L-1.7 0.75 -1.7 0.6 -1.75 0.5 -1.85 0.3 -1.75 0.2 M-1.55 1.1 L-1.55 1.1 M-1.5 1.2 L-1.5 1.2" fill="#deca96" fill-rule="evenodd" stroke="none"/>
    <path d="M-1.55 0.2 L-1.55 0.25 -1.55 0.2" fill="#c47bf5" fill-rule="evenodd" stroke="none"/>
    <path d="M-1.9 0.0 L-1.9 0.05 -1.95 0.1 Q-1.9 0.1 -1.95 0.05 L-1.9 0.0 M-2.0 0.15 L-2.0 0.1 -2.05 0.05 -1.95 0.1 -1.95 0.1 -1.95 0.25 -1.9 0.35 -1.9 0.5 -1.9 0.65 -1.85 0.75 -1.8 0.8 -1.8 0.85 -1.85 0.85 Q-1.85 0.8 -1.85 0.75 L-1.95 0.65 -2.0 0.6 -2.0 0.5 Q-1.95 0.4 -1.95 0.35 L-2.0 0.3 -2.05 0.3 -2.0 0.2 -2.0 0.15" fill="#967b30" fill-rule="evenodd" stroke="none"/>
    <path d="M-1.95 0.1 L-1.85 0.15 Q-1.8 0.2 -1.8 0.15 L-1.75 0.15 -1.8 0.2 -1.9 0.25 -1.85 0.35 -1.85 0.4 -1.8 0.45 -1.75 0.5 -1.75 0.75 -1.8 0.75 -1.8 0.8 -1.85 0.75 -1.9 0.65 -1.9 0.5 -1.9 0.35 -1.95 0.25 -1.95 0.1 -1.95 0.1" fill="#ad9451" fill-rule="evenodd" stroke="none"/>
    <path d="M-1.55 1.1 L-1.55 1.1 -1.6 1.1 -1.6 1.05 -1.65 1.1 -1.7 1.15 -1.7 1.1 -1.7 1.05 -1.75 1.0 -1.85 0.95 -1.85 0.85 -1.8 0.9 -1.75 0.95 -1.7 1.0 Q-1.65 1.05 -1.65 1.1 L-1.65 1.05 -1.6 1.05 -1.55 1.05 -1.55 1.1" fill="#b59951" fill-rule="evenodd" stroke="none"/>
    <path d="M-1.85 0.95 L-1.75 1.0 -1.7 1.05 -1.7 1.1 -1.7 1.05 -1.75 1.05 -1.8 1.0 -1.85 0.95" fill="#9a7b2e" fill-rule="evenodd" stroke="none"/>
    <path d="M-2.2 1.8 L-2.2 1.4 -2.15 1.5 -2.1 1.55 -2.05 1.5 -2.0 1.5 -1.95 1.5 -1.9 1.5 -1.8 1.35 -1.65 1.2 -1.65 1.15 -1.7 1.15 -1.65 1.1 -1.6 1.05 -1.6 1.1 -1.55 1.1 -1.5 1.15 -1.5 1.2 -1.7 1.35 -1.9 1.5 -1.9 1.65 -1.7 1.65 -1.6 1.6 -1.55 1.6 Q-1.5 1.6 -1.5 1.65 L-1.5 1.75 -1.55 1.7 -1.6 1.65 -1.75 1.65 -1.85 1.65 -1.9 1.6 -1.95 1.55 -2.0 1.65 Q-2.05 1.65 -2.1 1.7 L-2.15 1.75 -2.2 1.8" fill="#a37103" fill-rule="evenodd" stroke="none"/>
    <path d="M-2.2 1.4 L-2.2 1.1 Q-2.1 1.15 -2.1 1.2 -2.05 1.25 -2.05 1.3 L-2.1 1.3 -2.1 1.35 -2.05 1.35 -1.95 1.35 -1.75 1.1 -1.7 1.1 Q-1.7 1.05 -1.75 1.05 L-1.7 1.05 -1.7 1.1 -1.7 1.15 -1.65 1.15 -1.65 1.2 -1.8 1.35 -1.9 1.5 -1.95 1.5 -2.0 1.5 -2.05 1.5 -2.1 1.55 -2.15 1.5 -2.2 1.4" fill="#8b6300" fill-rule="evenodd" stroke="none"/>
    <path d="M-1.0 0.7 L-1.05 0.7 -1.05 0.65 -1.0 0.7" fill="#c47bf9" fill-rule="evenodd" stroke="none"/>
    <path d="M-1.05 0.65 L-1.05 0.6 -1.05 0.65" fill="#c177f9" fill-rule="evenodd" stroke="none"/>
    <path d="M-1.2 0.8 L-1.15 0.85 -1.2 0.85 -1.2 0.8" fill="#b972f6" fill-rule="evenodd" stroke="none"/>
    <path d="M-1.1 0.9 L-1.1 0.95 -1.1 0.9" fill="#b066f9" fill-rule="evenodd" stroke="none"/>
    <path d="M-1.35 0.6 L-1.35 0.65 -1.35 0.6" fill="#cf8bf3" fill-rule="evenodd" stroke="none"/>
    <path d="M-1.35 0.65 L-1.3 0.65 -1.3 0.7 -1.35 0.65" fill="#ca89ef" fill-rule="evenodd" stroke="none"/>
    <path d="M-1.3 0.7 L-1.25 0.75 -1.3 0.75 -1.3 0.7" fill="#c480f0" fill-rule="evenodd" stroke="none"/>
    <path d="M-1.4 1.15 L-1.4 1.1 -1.35 1.1 -1.35 1.1 -1.35 1.1 -1.25 1.05 Q-1.2 1.05 -1.2 1.05 L-1.15 1.05 -1.1 1.05 Q-1.05 1.1 -1.05 1.15 -1.2 1.2 -1.35 1.35 L-1.55 1.5 -1.7 1.65 -1.85 1.65 Q-1.85 1.6 -1.9 1.6 L-1.9 1.55 -1.5 1.2 -1.45 1.2 -1.45 1.15 -1.4 1.15 M-1.1 1.05 L-1.1 1.05" fill="#5904fd" fill-rule="evenodd" stroke="none"/>
    <path d="M-1.5 1.2 L-1.5 1.2 -1.9 1.55 -1.9 1.6 Q-1.85 1.6 -1.85 1.65 L-1.7 1.65 -1.9 1.65 -1.9 1.5 -1.7 1.35 -1.5 1.2 -1.5 1.2" fill="#b15a82" fill-rule="evenodd" stroke="none"/>
    <path d="M-1.45 1.2 L-1.45 1.15 -1.45 1.2" fill="#bb6de8" fill-rule="evenodd" stroke="none"/>
    <path d="M-1.4 1.1 L-1.4 1.1 -1.35 1.1 -1.35 1.1 -1.4 1.1" fill="#c47aef" fill-rule="evenodd" stroke="none"/>
    <path d="M-1.05 1.15 Q-1.05 1.1 -1.1 1.05 L-1.05 1.1 Q-1.0 1.1 -1.05 1.15" fill="#bb85f6" fill-rule="evenodd" stroke="none"/>
    <path d="M-1.1 1.05 L-1.15 1.05 -1.2 1.05 -1.1 1.05" fill="#d697f7" fill-rule="evenodd" stroke="none"/>
    <path d="M-1.2 1.05 Q-1.2 1.05 -1.25 1.05 L-1.2 1.0 -1.2 1.05" fill="#c17ef3" fill-rule="evenodd" stroke="none"/>
    <path d="M-1.3 1.45 L-1.4 1.55 -1.5 1.65 -1.45 1.7 -1.45 1.7 -1.5 1.75 -1.5 1.65 -1.35 1.45 -1.3 1.45" fill="#b96091" fill-rule="evenodd" stroke="none"/>
    <path d="M-1.6 1.6 L-1.5 1.5 -1.35 1.35 -1.35 1.45 -1.5 1.65 Q-1.5 1.6 -1.55 1.6 L-1.6 1.6" fill="#c98800" fill-rule="evenodd" stroke="none"/>
    <path d="M-1.7 1.65 L-1.55 1.5 -1.35 1.35 -1.5 1.5 -1.6 1.6 -1.7 1.65 M-1.35 1.35 L-1.35 1.35" fill="#c2678a" fill-rule="evenodd" stroke="none"/>
    <path d="M-1.95 2.2 L-2.2 2.2 -2.2 1.8 -2.15 1.75 -2.1 1.7 Q-2.05 1.65 -2.0 1.65 L-1.95 1.55 -1.9 1.6 -1.85 1.65 -1.75 1.65 -1.6 1.65 -1.55 1.7 -1.5 1.75 -1.45 1.75 -1.35 1.75 -1.3 1.75 -1.2 1.65 -1.1 1.55 -1.0 1.55 -0.95 1.5 -0.9 1.5 -0.85 1.55 -1.0 1.65 -1.15 1.7 Q-1.3 1.8 -1.45 1.8 L-1.7 1.7 -2.0 1.75 -1.95 1.9 -1.95 2.0 -2.0 2.0 -2.0 2.05 -1.95 2.1 -1.95 2.2" fill="#976b01" fill-rule="evenodd" stroke="none"/>
    <path d="M-1.45 1.7 L-1.35 1.75 -1.45 1.75 -1.5 1.75 -1.45 1.7" fill="#8834b7" fill-rule="evenodd" stroke="none"/>
    <path d="M-1.3 1.75 L-1.2 1.65 -1.1 1.55 -1.1 1.55 -1.2 1.65 -1.3 1.75" fill="#ac5296" fill-rule="evenodd" stroke="none"/>
    <path d="M-1.05 1.5 L-1.0 1.55 -1.1 1.55 -1.05 1.5 M-1.1 1.55 L-1.1 1.55" fill="#c67977" fill-rule="evenodd" stroke="none"/>
    <path d="M-1.85 2.2 L-1.95 2.2 -1.95 2.1 -2.0 2.05 -2.0 2.0 -1.95 2.0 -1.95 1.9 -2.0 1.75 -1.7 1.7 -1.45 1.8 Q-1.3 1.8 -1.15 1.7 L-1.0 1.65 -0.85 1.55 -0.8 1.65 -0.95 1.75 -1.1 1.85 Q-1.35 1.95 -1.55 1.9 L-1.65 1.9 -1.75 1.9 Q-1.75 1.9 -1.85 1.9 -1.9 1.9 -1.9 1.95 L-1.9 2.05 -1.85 2.2 M-0.8 1.65 L-0.8 1.65 M-0.85 1.55 L-0.85 1.55" fill="#845e00" fill-rule="evenodd" stroke="none"/>
    <path d="M-0.2 2.2 L-1.85 2.2 -1.9 2.05 -1.9 1.95 Q-1.9 1.9 -1.85 1.9 -1.75 1.9 -1.75 1.9 L-1.65 1.9 -1.55 1.9 Q-1.35 1.95 -1.1 1.85 L-0.95 1.75 -0.8 1.65 -0.75 1.65 -0.7 1.7 -0.65 1.7 -0.7 1.75 Q-0.65 1.75 -0.65 1.75 L-0.6 1.75 -0.6 1.75 -0.6 1.8 -0.55 1.75 -0.5 1.7 -0.5 1.65 -0.45 1.7 -0.35 1.75 -0.4 1.8 -0.4 1.85 -0.45 1.95 -0.4 2.0 -0.35 1.9 -0.3 1.8 -0.35 1.8 -0.25 1.8 -0.3 1.9 -0.35 1.95 Q-0.3 2.0 -0.3 2.05 L-0.25 2.05 -0.25 2.05 -0.2 2.2" fill="#755400" fill-rule="evenodd" stroke="none"/>
    <path d="M-0.4 1.85 L-0.4 1.9 -0.35 1.85 -0.3 1.8 -0.35 1.9 -0.4 2.0 -0.45 1.95 -0.4 1.85" fill="#91752f" fill-rule="evenodd" stroke="none"/>
    <path d="M-0.75 1.3 L-0.75 1.3 -0.75 1.3" fill="#be78ef" fill-rule="evenodd" stroke="none"/>
    <path d="M-0.8 1.3 L-0.8 1.3 -0.75 1.3 -0.8 1.3 -0.8 1.3" fill="#c683f0" fill-rule="evenodd" stroke="none"/>
    <path d="M-0.9 1.35 Q-0.85 1.35 -0.85 1.35 L-0.85 1.35 -0.9 1.35" fill="#c582ef" fill-rule="evenodd" stroke="none"/>
    <path d="M-0.95 1.5 L-0.9 1.45 Q-0.9 1.4 -0.85 1.45 L-0.9 1.5 -0.95 1.5" fill="#ba8c36" fill-rule="evenodd" stroke="none"/>
    <path d="M-0.75 1.5 L-0.65 1.55 -0.6 1.6 Q-0.55 1.55 -0.5 1.6 L-0.5 1.65 -0.5 1.7 -0.55 1.65 -0.55 1.6 -0.6 1.65 -0.6 1.7 -0.7 1.65 -0.8 1.65 -0.75 1.6 -0.7 1.55 -0.75 1.55 -0.8 1.5 -0.8 1.55 -0.85 1.55 -0.85 1.55 -0.9 1.5 -0.85 1.45 -0.8 1.5 -0.75 1.5" fill="#c3ab6d" fill-rule="evenodd" stroke="none"/>
    <path d="M-0.85 1.55 L-0.8 1.55 -0.8 1.5 -0.75 1.55 -0.7 1.55 -0.75 1.6 -0.8 1.65 -0.85 1.55" fill="#b1954b" fill-rule="evenodd" stroke="none"/>
    <path d="M-0.5 1.7 L-0.55 1.75 -0.6 1.8 -0.6 1.75 -0.6 1.75 -0.65 1.75 Q-0.65 1.75 -0.7 1.75 L-0.65 1.7 -0.7 1.7 -0.75 1.65 -0.8 1.65 -0.7 1.65 -0.6 1.7 -0.6 1.65 -0.55 1.6 -0.55 1.65 -0.5 1.7 M-0.8 1.65 L-0.8 1.65" fill="#a18644" fill-rule="evenodd" stroke="none"/>
    <path d="M-0.35 1.95 Q-0.3 1.95 -0.25 2.0 L-0.25 2.05 -0.25 2.05 -0.3 2.05 Q-0.3 2.0 -0.35 1.95" fill="#8d7029" fill-rule="evenodd" stroke="none"/>
  </g>
</svg>
