<?xml version="1.0" encoding="UTF-8" standalone="no"?>
<svg xmlns:xlink="http://www.w3.org/1999/xlink" height="4.35px" width="4.35px" xmlns="http://www.w3.org/2000/svg">
  <g transform="matrix(1.0, 0.0, 0.0, 1.0, 2.2, 2.2)">
    <path d="M1.85 -2.2 L1.95 -2.2 2.05 -2.1 2.1 -2.05 2.05 -2.0 2.0 -2.0 1.95 -2.05 1.9 -2.05 1.9 -2.15 1.85 -2.15 1.8 -2.1 1.85 -2.2" fill="#9a4d4e" fill-rule="evenodd" stroke="none"/>
    <path d="M1.5 -1.9 L1.55 -1.85 1.65 -1.9 1.6 -1.85 1.6 -1.85 1.6 -1.8 1.55 -1.85 1.55 -1.85 1.6 -1.8 1.65 -1.8 1.6 -1.75 1.5 -1.75 1.55 -1.8 1.5 -1.8 1.5 -1.9 M1.65 -1.8 L1.65 -1.8 M1.65 -1.9 L1.65 -1.9" fill="#723a3a" fill-rule="evenodd" stroke="none"/>
    <path d="M1.65 -1.9 L1.55 -1.85 1.5 -1.9 1.6 -1.9 1.65 -1.95 1.65 -1.9 M1.5 -1.9 L1.5 -1.9" fill="#2d1717" fill-rule="evenodd" stroke="none"/>
    <path d="M1.65 -1.8 L1.65 -1.8 1.65 -1.8 1.6 -1.8 1.6 -1.85 1.65 -1.85 1.65 -1.9 1.65 -1.9 1.65 -1.95 1.6 -1.9 1.5 -1.9 1.55 -1.95 1.65 -2.0 1.75 -2.0 1.85 -1.85 1.9 -1.7 1.85 -1.7 1.75 -1.7 1.7 -1.7 1.7 -1.75 1.65 -1.75 1.6 -1.75 1.65 -1.75 1.7 -1.8 1.65 -1.8" fill="#8d4748" fill-rule="evenodd" stroke="none"/>
    <path d="M-2.2 -1.5 L-2.2 -2.2 1.85 -2.2 1.8 -2.1 1.8 -2.05 1.75 -2.0 1.65 -2.0 1.55 -1.95 1.5 -1.9 1.5 -1.9 1.45 -1.85 1.4 -1.9 1.35 -1.8 1.35 -1.65 1.2 -1.65 1.1 -1.7 1.0 -1.7 0.95 -1.75 0.8 -1.8 0.6 -1.8 0.45 -1.85 0.4 -1.85 0.55 -1.85 Q0.65 -1.85 0.65 -1.95 L0.65 -2.05 0.55 -2.05 0.45 -2.0 0.4 -1.9 0.4 -2.0 0.4 -2.1 0.35 -2.15 0.35 -2.0 0.35 -1.9 0.35 -1.85 0.3 -1.85 0.1 -1.85 -0.1 -1.8 -0.15 -1.8 -0.4 -1.75 -0.6 -1.7 -0.65 -1.7 -0.65 -1.75 Q-0.6 -1.75 -0.6 -1.75 L-1.0 -1.75 -1.4 -1.7 -1.8 -1.7 Q-2.0 -1.65 -2.2 -1.5 M0.4 -1.9 L0.4 -1.9" fill="#040c1b" fill-rule="evenodd" stroke="none"/>
    <path d="M1.6 -1.85 L1.6 -1.85 1.65 -1.9 1.65 -1.85 1.6 -1.85" fill="#391d1d" fill-rule="evenodd" stroke="none"/>
    <path d="M1.8 -2.1 L1.85 -2.15 1.9 -2.15 1.9 -2.05 1.95 -2.05 2.0 -2.0 2.05 -2.0 2.1 -1.9 Q2.1 -1.85 2.05 -1.85 L2.05 -1.95 1.95 -2.05 1.95 -2.0 1.95 -1.95 2.0 -1.85 2.0 -1.8 1.95 -1.8 1.95 -1.9 1.9 -2.0 1.85 -1.95 1.85 -2.0 1.85 -2.05 1.8 -2.05 1.8 -2.1" fill="#261313" fill-rule="evenodd" stroke="none"/>
    <path d="M2.15 -2.0 L2.15 -1.85 2.05 -1.85 2.0 -1.85 1.95 -1.95 1.95 -2.0 1.95 -2.05 2.05 -1.95 2.05 -1.85 Q2.1 -1.85 2.1 -1.9 L2.05 -2.0 2.1 -2.05 2.15 -2.0" fill="#814141" fill-rule="evenodd" stroke="none"/>
    <path d="M2.15 -1.85 L2.15 -1.75 2.1 -1.7 2.05 -1.7 Q1.95 -1.65 1.9 -1.7 L1.85 -1.85 1.75 -2.0 1.8 -2.05 1.85 -2.05 1.85 -2.0 1.85 -1.95 1.9 -2.0 1.95 -1.9 1.95 -1.8 2.0 -1.8 2.0 -1.85 2.05 -1.85 2.15 -1.85" fill="#5b2e2e" fill-rule="evenodd" stroke="none"/>
    <path d="M1.5 -1.9 L1.5 -1.8 1.5 -1.8 Q1.5 -1.75 1.5 -1.75 L1.6 -1.75 1.55 -1.75 1.5 -1.7 1.55 -1.7 1.6 -1.7 1.55 -1.65 1.45 -1.7 1.35 -1.8 1.4 -1.9 1.45 -1.85 1.5 -1.9 M1.45 -1.85 Q1.45 -1.85 1.4 -1.8 L1.45 -1.85 1.45 -1.85" fill="#8f4949" fill-rule="evenodd" stroke="none"/>
    <path d="M1.6 -1.75 L1.65 -1.8 1.65 -1.8 1.7 -1.8 1.65 -1.75 1.6 -1.75 1.65 -1.75 1.7 -1.75 1.7 -1.7 1.6 -1.65 Q1.6 -1.65 1.55 -1.65 L1.6 -1.7 1.55 -1.7 1.5 -1.7 1.55 -1.75 1.6 -1.75 M1.45 -1.85 L1.45 -1.85 1.4 -1.8 Q1.45 -1.85 1.45 -1.85" fill="#201111" fill-rule="evenodd" stroke="none"/>
    <path d="M1.35 -1.8 L1.45 -1.7 1.55 -1.65 Q1.6 -1.65 1.6 -1.65 L1.7 -1.7 1.75 -1.7 1.85 -1.7 1.8 -1.65 1.7 -1.6 1.65 -1.65 1.6 -1.6 1.55 -1.55 1.55 -1.55 1.5 -1.5 1.5 -1.4 Q1.5 -1.35 1.45 -1.35 1.4 -1.35 1.35 -1.35 L1.35 -1.5 1.35 -1.65 1.35 -1.8" fill="#633133" fill-rule="evenodd" stroke="none"/>
    <path d="M1.5 -1.8 L1.55 -1.8 1.5 -1.75 Q1.5 -1.75 1.5 -1.8 L1.5 -1.8" fill="#170c0c" fill-rule="evenodd" stroke="none"/>
    <path d="M1.35 -1.65 L1.35 -1.5 1.35 -1.35 Q1.4 -1.35 1.45 -1.35 1.5 -1.35 1.5 -1.4 L1.5 -1.5 1.55 -1.5 1.6 -1.45 1.65 -1.4 1.65 -1.45 1.65 -1.5 1.6 -1.5 1.55 -1.55 1.55 -1.55 1.6 -1.6 1.8 -1.55 1.8 -1.5 1.75 -1.5 1.75 -1.45 1.7 -1.4 1.6 -1.4 1.55 -1.4 1.5 -1.35 Q1.5 -1.3 1.45 -1.3 1.35 -1.3 1.35 -1.35 L1.25 -1.3 Q1.25 -1.3 1.2 -1.3 L1.25 -1.35 1.25 -1.4 1.2 -1.4 1.15 -1.4 1.15 -1.35 1.1 -1.3 1.0 -1.3 1.0 -1.45 0.95 -1.45 0.95 -1.4 0.95 -1.35 0.9 -1.35 0.85 -1.4 0.8 -1.35 0.75 -1.35 0.7 -1.35 0.65 -1.35 Q0.55 -1.3 0.55 -1.4 L0.5 -1.35 0.45 -1.35 0.45 -1.45 0.5 -1.45 0.55 -1.4 0.55 -1.5 0.6 -1.5 0.6 -1.5 0.7 -1.45 0.8 -1.45 0.8 -1.5 0.75 -1.55 0.85 -1.55 0.95 -1.65 1.1 -1.6 1.2 -1.6 1.15 -1.65 1.1 -1.65 1.05 -1.65 1.1 -1.7 1.2 -1.65 1.35 -1.65 M1.2 -1.3 L1.2 -1.3" fill="#3a2d2f" fill-rule="evenodd" stroke="none"/>
    <path d="M1.1 -1.7 L1.05 -1.65 1.1 -1.65 1.15 -1.65 1.2 -1.6 1.1 -1.6 0.95 -1.65 0.85 -1.55 0.75 -1.55 0.8 -1.5 0.8 -1.45 0.7 -1.45 0.6 -1.5 Q0.6 -1.55 0.6 -1.55 L0.55 -1.6 0.5 -1.75 0.45 -1.85 0.6 -1.8 0.8 -1.8 0.8 -1.75 0.9 -1.7 0.95 -1.75 1.0 -1.7 1.1 -1.7 M0.8 -1.75 L0.7 -1.75 0.6 -1.75 Q0.7 -1.7 0.75 -1.7 L0.85 -1.65 0.85 -1.7 0.75 -1.7 0.8 -1.7 0.8 -1.75" fill="#4f4a45" fill-rule="evenodd" stroke="none"/>
    <path d="M1.15 -1.35 L1.15 -1.4 1.2 -1.4 1.25 -1.4 1.25 -1.35 1.2 -1.3 1.15 -1.35" fill="#622f35" fill-rule="evenodd" stroke="none"/>
    <path d="M0.45 -1.45 L0.45 -1.35 0.5 -1.35 0.55 -1.4 Q0.55 -1.3 0.65 -1.35 L0.7 -1.35 0.75 -1.35 0.8 -1.35 0.85 -1.4 0.9 -1.35 0.95 -1.35 0.95 -1.4 0.95 -1.45 1.0 -1.45 1.0 -1.3 1.1 -1.3 1.15 -1.35 1.2 -1.3 1.15 -1.3 1.1 -1.25 1.1 -1.2 1.05 -1.25 1.05 -1.15 Q1.05 -1.1 1.15 -1.1 L1.25 -1.05 1.3 -0.9 1.25 -0.85 1.2 -0.75 1.25 -0.75 1.3 -0.7 1.2 -0.7 1.1 -0.65 Q0.95 -0.6 0.9 -0.5 L1.05 -0.6 1.2 -0.65 1.25 -0.6 1.3 -0.6 1.5 -0.6 1.65 -0.55 1.65 -0.5 1.6 -0.4 1.55 -0.4 1.5 -0.35 1.45 -0.35 1.4 -0.25 1.35 -0.25 1.35 -0.2 1.25 -0.2 1.2 -0.15 1.05 -0.1 1.0 0.0 1.0 0.1 0.95 0.2 0.95 0.3 Q0.95 0.25 0.9 0.25 L0.85 0.2 0.85 0.05 0.9 -0.1 0.85 -0.1 0.8 -0.05 0.85 -0.1 0.85 -0.2 0.8 -0.2 0.8 -0.25 Q0.8 -0.25 0.75 -0.3 L0.8 -0.3 0.85 -0.25 0.8 -0.3 Q0.8 -0.35 0.8 -0.35 L0.75 -0.4 0.75 -0.45 0.7 -0.5 0.7 -0.55 0.8 -0.5 0.85 -0.55 0.8 -0.55 Q0.75 -0.5 0.75 -0.55 L0.75 -0.6 0.75 -0.7 0.75 -0.65 0.8 -0.65 0.8 -0.65 0.85 -0.7 0.95 -0.75 1.05 -0.75 1.15 -0.75 1.2 -0.8 Q1.25 -0.9 1.15 -1.0 1.05 -1.1 0.95 -1.1 L1.0 -1.15 1.05 -1.1 1.05 -1.3 Q1.0 -1.3 0.95 -1.25 L0.95 -1.15 0.9 -1.1 0.9 -1.2 0.95 -1.25 0.95 -1.3 0.85 -1.3 0.75 -1.35 0.75 -1.3 0.65 -1.3 0.6 -1.25 0.4 -1.35 0.35 -1.35 0.3 -1.35 0.3 -1.45 Q0.3 -1.45 0.3 -1.5 L0.3 -1.55 0.3 -1.65 0.35 -1.7 0.35 -1.55 0.4 -1.6 0.45 -1.55 0.45 -1.45" fill="#2a2022" fill-rule="evenodd" stroke="none"/>
    <path d="M2.15 -1.75 L2.15 1.35 2.1 1.15 Q2.05 1.05 2.1 1.0 L2.1 0.95 2.05 0.9 2.05 0.75 2.1 0.55 2.05 0.35 2.05 0.1 2.05 0.05 2.1 0.0 2.1 0.0 2.1 -0.05 2.15 -0.1 2.05 -0.1 2.05 -0.15 2.05 -0.25 2.05 -0.3 2.0 -0.3 1.95 -0.35 1.9 -0.35 1.9 -0.4 1.9 -0.5 1.8 -0.55 1.65 -0.55 1.5 -0.6 1.3 -0.6 1.25 -0.6 1.2 -0.65 1.3 -0.65 1.45 -0.7 1.4 -0.8 1.3 -0.9 1.25 -1.05 1.15 -1.1 Q1.05 -1.1 1.05 -1.15 L1.05 -1.25 1.1 -1.2 1.1 -1.25 1.15 -1.3 1.2 -1.3 Q1.25 -1.3 1.25 -1.3 L1.35 -1.35 Q1.35 -1.3 1.45 -1.3 1.5 -1.3 1.5 -1.35 L1.55 -1.4 1.6 -1.4 1.7 -1.4 1.75 -1.45 1.8 -1.4 1.8 -1.45 1.85 -1.45 1.9 -1.45 1.9 -1.55 1.8 -1.55 1.6 -1.6 1.65 -1.65 1.7 -1.6 1.8 -1.65 1.85 -1.7 1.9 -1.7 Q1.95 -1.65 2.05 -1.7 L2.1 -1.7 2.15 -1.75 M1.8 -0.55 L1.8 -0.55" fill="#040b19" fill-rule="evenodd" stroke="none"/>
    <path d="M1.75 -1.45 L1.75 -1.5 1.8 -1.5 1.8 -1.55 1.9 -1.55 1.9 -1.45 1.85 -1.45 1.8 -1.45 1.8 -1.4 1.75 -1.45" fill="#5d272c" fill-rule="evenodd" stroke="none"/>
    <path d="M1.65 -1.8 L1.6 -1.8 1.55 -1.85 1.55 -1.85 1.6 -1.8 1.65 -1.8" fill="#291516" fill-rule="evenodd" stroke="none"/>
    <path d="M1.5 -1.5 L1.55 -1.55 1.6 -1.5 1.65 -1.5 1.65 -1.45 1.65 -1.4 1.6 -1.45 1.55 -1.5 1.5 -1.5" fill="#694b46" fill-rule="evenodd" stroke="none"/>
    <path d="M0.4 -1.9 L0.45 -2.0 0.55 -2.05 0.65 -2.05 0.65 -1.95 Q0.65 -1.85 0.55 -1.85 L0.4 -1.85 0.4 -1.9" fill="#6b2935" fill-rule="evenodd" stroke="none"/>
    <path d="M0.4 -2.0 L0.4 -2.05 0.35 -2.1 0.35 -2.0 0.35 -2.15 0.4 -2.1 0.4 -2.0" fill="#b28f5f" fill-rule="evenodd" stroke="none"/>
    <path d="M0.35 -2.0 L0.35 -2.1 0.4 -2.05 0.4 -2.0 0.4 -1.9 0.35 -1.9 0.35 -2.0" fill="#7e573a" fill-rule="evenodd" stroke="none"/>
    <path d="M0.45 -1.85 L0.5 -1.75 0.55 -1.6 0.6 -1.55 Q0.6 -1.55 0.6 -1.5 L0.6 -1.5 0.55 -1.5 0.55 -1.4 0.5 -1.45 0.45 -1.45 0.45 -1.55 0.4 -1.6 0.35 -1.55 0.35 -1.7 0.3 -1.65 0.3 -1.55 0.25 -1.5 0.15 -1.45 0.05 -1.45 0.0 -1.5 -0.05 -1.5 -0.15 -1.5 -0.15 -1.55 -0.05 -1.55 0.05 -1.55 Q0.05 -1.5 0.15 -1.55 L0.25 -1.55 0.3 -1.65 0.35 -1.75 0.35 -1.8 0.3 -1.85 0.35 -1.85 0.35 -1.9 0.4 -1.9 0.4 -1.9 0.4 -1.85 0.45 -1.85 M0.4 -1.75 L0.4 -1.8 0.35 -1.8 0.35 -1.7 0.4 -1.6 0.45 -1.65 0.45 -1.7 0.4 -1.75" fill="#3a3935" fill-rule="evenodd" stroke="none"/>
    <path d="M0.4 -1.75 L0.45 -1.7 0.45 -1.65 0.4 -1.6 0.35 -1.7 0.35 -1.8 0.4 -1.8 0.4 -1.75" fill="#625d52" fill-rule="evenodd" stroke="none"/>
    <path d="M0.3 -1.85 L0.35 -1.8 0.35 -1.75 0.3 -1.65 0.25 -1.55 0.15 -1.55 Q0.05 -1.5 0.05 -1.55 L0.05 -1.6 0.1 -1.6 0.1 -1.65 0.05 -1.65 0.1 -1.75 0.15 -1.8 0.0 -1.8 -0.1 -1.8 0.1 -1.85 0.3 -1.85" fill="#54504a" fill-rule="evenodd" stroke="none"/>
    <path d="M0.05 -1.55 L-0.05 -1.55 -0.15 -1.55 -0.15 -1.5 -0.05 -1.5 0.0 -1.5 0.05 -1.45 0.15 -1.45 0.25 -1.5 0.25 -1.35 0.2 -1.35 0.15 -1.4 0.15 -1.4 0.1 -1.4 Q0.1 -1.35 0.05 -1.25 L0.05 -1.15 Q0.0 -1.15 0.0 -1.15 L-0.05 -1.25 -0.05 -1.3 -0.1 -1.3 -0.15 -1.3 -0.25 -1.3 -0.3 -1.3 -0.4 -1.35 -0.45 -1.35 -0.5 -1.35 -0.5 -1.35 -0.55 -1.4 -0.6 -1.4 -0.6 -1.4 -0.65 -1.4 -0.65 -1.45 -0.7 -1.4 -0.75 -1.45 -0.8 -1.5 -0.85 -1.5 -0.9 -1.5 -0.95 -1.55 -0.9 -1.6 -0.85 -1.65 -0.75 -1.65 -0.65 -1.7 -0.6 -1.7 -0.6 -1.7 -0.5 -1.7 -0.4 -1.7 -0.35 -1.7 -0.4 -1.65 -0.45 -1.6 -0.35 -1.6 -0.3 -1.55 -0.25 -1.6 -0.25 -1.6 -0.1 -1.6 0.05 -1.6 0.05 -1.55 M-0.85 -1.5 L-0.8 -1.5 -0.8 -1.55 -0.75 -1.55 -0.8 -1.6 -0.85 -1.6 -0.85 -1.5" fill="#271f24" fill-rule="evenodd" stroke="none"/>
    <path d="M-0.1 -1.8 L0.0 -1.8 0.15 -1.8 0.1 -1.75 0.05 -1.65 0.1 -1.65 0.1 -1.6 0.05 -1.6 -0.1 -1.6 -0.25 -1.6 -0.25 -1.6 -0.3 -1.55 -0.35 -1.6 -0.45 -1.6 -0.4 -1.65 -0.35 -1.7 -0.4 -1.7 -0.5 -1.7 -0.6 -1.7 -0.6 -1.7 -0.4 -1.75 Q-0.35 -1.7 -0.3 -1.75 L-0.2 -1.75 -0.15 -1.8 -0.1 -1.8" fill="#323130" fill-rule="evenodd" stroke="none"/>
    <path d="M0.25 -1.5 L0.3 -1.55 0.3 -1.5 Q0.3 -1.45 0.3 -1.45 L0.3 -1.35 0.35 -1.35 0.4 -1.35 0.6 -1.25 0.6 -1.15 0.55 -1.05 0.5 -1.0 0.4 -1.0 0.35 -1.0 0.3 -1.0 Q0.2 -0.95 0.1 -1.0 L0.1 -0.95 0.05 -0.9 0.05 -1.05 -0.05 -1.1 -0.1 -1.2 -0.1 -1.25 -0.1 -1.3 -0.05 -1.3 -0.05 -1.25 0.0 -1.15 Q0.0 -1.15 0.05 -1.15 L0.05 -1.25 Q0.1 -1.35 0.1 -1.4 L0.15 -1.4 0.15 -1.4 0.2 -1.35 0.25 -1.35 0.25 -1.5" fill="#191523" fill-rule="evenodd" stroke="none"/>
    <path d="M0.8 -1.75 L0.8 -1.7 0.75 -1.7 0.85 -1.7 0.85 -1.65 0.75 -1.7 Q0.7 -1.7 0.6 -1.75 L0.7 -1.75 0.8 -1.75 0.8 -1.75" fill="#726c5c" fill-rule="evenodd" stroke="none"/>
    <path d="M0.95 -1.75 L0.9 -1.7 0.8 -1.75 0.8 -1.8 0.95 -1.75 M0.8 -1.75 L0.8 -1.75" fill="#302f2c" fill-rule="evenodd" stroke="none"/>
    <path d="M0.7 -1.0 L0.7 -1.05 Q0.8 -1.1 0.8 -1.2 L0.75 -1.3 0.75 -1.35 0.85 -1.3 0.95 -1.3 0.95 -1.25 0.9 -1.2 0.9 -1.1 0.95 -1.15 0.95 -1.25 Q1.0 -1.3 1.05 -1.3 L1.05 -1.1 1.0 -1.15 0.95 -1.1 Q1.05 -1.1 1.15 -1.0 1.25 -0.9 1.2 -0.8 L1.15 -0.75 1.05 -0.75 0.95 -0.75 0.85 -0.7 0.8 -0.65 0.8 -0.65 0.75 -0.65 0.75 -0.7 0.7 -0.75 0.7 -0.75 Q0.65 -0.75 0.65 -0.8 L0.7 -0.9 0.7 -1.0 M0.8 -1.1 Q0.8 -1.05 0.85 -1.15 L0.85 -1.2 Q0.8 -1.2 0.8 -1.15 L0.8 -1.1 M0.75 -0.7 L0.75 -0.7" fill="#18171e" fill-rule="evenodd" stroke="none"/>
    <path d="M0.7 -1.05 L0.75 -1.15 0.75 -1.25 0.7 -1.25 0.7 -1.3 0.65 -1.25 Q0.65 -1.25 0.65 -1.2 L0.65 -1.1 0.6 -1.0 0.6 -0.85 0.55 -0.9 0.55 -0.9 0.5 -0.9 0.55 -0.85 0.5 -0.85 0.45 -0.8 0.45 -0.75 Q0.45 -0.75 0.4 -0.8 L0.4 -0.75 0.35 -0.7 Q0.35 -0.7 0.35 -0.75 L0.35 -0.75 0.3 -0.75 0.3 -0.7 0.25 -0.65 0.2 -0.7 0.2 -0.8 0.1 -0.9 0.1 -0.85 0.1 -0.85 0.05 -0.9 0.1 -0.95 0.1 -1.0 Q0.2 -0.95 0.3 -1.0 L0.35 -1.0 0.4 -1.0 0.5 -1.0 0.55 -1.05 0.6 -1.15 0.6 -1.25 0.65 -1.3 0.75 -1.3 0.8 -1.2 Q0.8 -1.1 0.7 -1.05 M0.05 -0.9 L0.05 -0.9 M0.45 -0.95 L0.4 -0.95 0.35 -0.9 0.3 -0.9 0.25 -0.9 Q0.25 -0.9 0.25 -0.85 L0.35 -0.8 0.45 -0.8 0.45 -0.85 0.5 -0.85 0.45 -0.9 0.45 -0.95 M0.2 -0.75 L0.25 -0.75 0.25 -0.75 0.3 -0.75 0.25 -0.75 Q0.2 -0.8 0.2 -0.8 L0.2 -0.75" fill="#24282f" fill-rule="evenodd" stroke="none"/>
    <path d="M0.6 -0.85 L0.6 -1.0 0.65 -1.1 0.65 -1.2 Q0.65 -1.25 0.65 -1.25 L0.7 -1.3 0.7 -1.25 0.75 -1.25 0.75 -1.15 0.7 -1.05 0.7 -1.0 0.6 -0.95 Q0.6 -0.9 0.65 -0.85 L0.6 -0.8 0.6 -0.8 0.6 -0.85" fill="#2f363d" fill-rule="evenodd" stroke="none"/>
    <path d="M0.8 -1.1 L0.8 -1.15 Q0.8 -1.2 0.85 -1.2 L0.85 -1.15 Q0.8 -1.05 0.8 -1.1" fill="#2a3038" fill-rule="evenodd" stroke="none"/>
    <path d="M0.6 -0.8 L0.6 -0.8 0.65 -0.85 Q0.6 -0.9 0.6 -0.95 L0.7 -1.0 0.7 -0.9 0.65 -0.8 Q0.65 -0.8 0.65 -0.75 L0.6 -0.8 0.6 -0.8" fill="#545c62" fill-rule="evenodd" stroke="none"/>
    <path d="M0.6 -0.85 L0.6 -0.8 0.6 -0.8 0.6 -0.75 0.6 -0.75 0.55 -0.75 0.55 -0.7 0.5 -0.7 0.45 -0.7 0.55 -0.85 0.5 -0.9 0.55 -0.9 0.55 -0.9 0.6 -0.85" fill="#141a1f" fill-rule="evenodd" stroke="none"/>
    <path d="M0.55 -0.75 L0.6 -0.75 0.6 -0.75 0.6 -0.75 0.65 -0.7 0.65 -0.65 0.6 -0.65 0.6 -0.7 0.6 -0.65 0.55 -0.7 0.55 -0.75" fill="#646867" fill-rule="evenodd" stroke="none"/>
    <path d="M0.65 -0.8 Q0.65 -0.75 0.7 -0.75 L0.7 -0.75 0.75 -0.7 0.7 -0.65 0.7 -0.6 0.65 -0.6 0.6 -0.6 0.55 -0.65 0.5 -0.65 0.55 -0.6 0.55 -0.55 0.5 -0.6 0.45 -0.65 0.5 -0.6 0.5 -0.55 0.45 -0.6 0.4 -0.65 Q0.45 -0.65 0.45 -0.65 L0.45 -0.7 0.5 -0.65 0.55 -0.7 0.6 -0.65 0.6 -0.7 0.6 -0.65 0.65 -0.65 0.65 -0.7 0.6 -0.75 0.6 -0.75 0.6 -0.8 0.65 -0.75 Q0.65 -0.8 0.65 -0.8 M0.55 -0.75 L0.55 -0.7 0.55 -0.75" fill="#8c989b" fill-rule="evenodd" stroke="none"/>
    <path d="M0.55 -0.55 L0.55 -0.6 0.5 -0.65 0.55 -0.65 0.6 -0.6 0.6 -0.55 0.65 -0.5 0.6 -0.55 Q0.6 -0.6 0.6 -0.55 L0.6 -0.55 0.55 -0.55" fill="#61635f" fill-rule="evenodd" stroke="none"/>
    <path d="M0.75 -0.7 L0.75 -0.7 0.75 -0.6 0.75 -0.55 Q0.75 -0.5 0.8 -0.55 L0.85 -0.55 0.8 -0.5 0.7 -0.55 Q0.7 -0.55 0.7 -0.6 L0.75 -0.65 0.75 -0.7" fill="#9da7aa" fill-rule="evenodd" stroke="none"/>
    <path d="M0.7 -0.55 L0.7 -0.5 0.7 -0.5 0.65 -0.55 0.6 -0.6 0.65 -0.6 0.7 -0.6 0.7 -0.65 0.75 -0.7 0.75 -0.65 0.7 -0.6 Q0.7 -0.55 0.7 -0.55" fill="#717170" fill-rule="evenodd" stroke="none"/>
    <path d="M0.45 -0.95 L0.45 -0.9 0.5 -0.85 0.45 -0.85 0.45 -0.8 0.35 -0.8 0.25 -0.85 Q0.25 -0.9 0.25 -0.9 L0.3 -0.9 0.35 -0.9 0.4 -0.95 0.45 -0.95" fill="#394048" fill-rule="evenodd" stroke="none"/>
    <path d="M0.05 -0.9 L0.1 -0.85 0.1 -0.85 0.1 -0.9 0.2 -0.8 0.2 -0.7 0.2 -0.7 0.15 -0.75 0.15 -0.65 0.1 -0.65 0.15 -0.75 0.1 -0.8 0.05 -0.9" fill="#5f656d" fill-rule="evenodd" stroke="none"/>
    <path d="M0.05 -0.9 L0.05 -0.9 0.1 -0.8 0.05 -0.7 0.0 -0.7 0.0 -0.65 0.05 -0.65 0.05 -0.7 0.1 -0.65 0.05 -0.65 0.05 -0.55 0.0 -0.5 Q0.0 -0.55 -0.05 -0.55 L-0.1 -0.55 Q-0.15 -0.55 -0.1 -0.6 L-0.05 -0.65 -0.05 -0.7 -0.1 -0.7 -0.15 -0.75 -0.15 -0.75 -0.2 -0.8 -0.2 -0.95 -0.25 -0.95 -0.3 -1.0 -0.15 -1.1 -0.15 -1.15 -0.2 -1.15 -0.2 -1.15 -0.15 -1.2 -0.15 -1.2 -0.2 -1.25 -0.15 -1.25 -0.15 -1.25 -0.1 -1.2 -0.1 -1.25 -0.1 -1.2 -0.05 -1.1 0.05 -1.05 0.05 -0.9 M0.05 -0.8 L0.0 -0.8 -0.05 -0.8 0.0 -0.8 Q0.05 -0.75 0.05 -0.8 L0.05 -0.75 0.1 -0.8 0.05 -0.8 0.05 -0.8" fill="#0f1016" fill-rule="evenodd" stroke="none"/>
    <path d="M0.05 -0.8 L0.05 -0.8 0.1 -0.8 0.05 -0.75 0.05 -0.8" fill="#6c7377" fill-rule="evenodd" stroke="none"/>
    <path d="M0.05 -0.8 Q0.05 -0.75 0.0 -0.8 L-0.05 -0.8 0.0 -0.8 0.05 -0.8" fill="#6b7073" fill-rule="evenodd" stroke="none"/>
    <path d="M0.2 -0.7 L0.25 -0.65 0.3 -0.7 0.3 -0.75 0.35 -0.65 0.3 -0.6 0.3 -0.55 0.35 -0.45 0.3 -0.4 Q0.3 -0.35 0.25 -0.4 L0.3 -0.45 0.3 -0.55 0.25 -0.4 0.2 -0.45 0.2 -0.55 0.15 -0.5 0.15 -0.55 0.2 -0.6 0.1 -0.6 Q0.1 -0.6 0.1 -0.65 L0.05 -0.65 0.1 -0.65 0.05 -0.7 0.05 -0.65 0.0 -0.65 0.0 -0.7 0.05 -0.7 0.1 -0.8 0.15 -0.75 0.1 -0.65 0.15 -0.65 0.15 -0.75 0.2 -0.7 0.2 -0.7" fill="#818a8f" fill-rule="evenodd" stroke="none"/>
    <path d="M0.05 -0.65 L0.1 -0.65 Q0.1 -0.6 0.1 -0.6 L0.2 -0.6 0.15 -0.55 0.15 -0.5 0.2 -0.55 0.2 -0.45 0.0 -0.5 Q0.0 -0.4 0.1 -0.35 L0.25 -0.2 0.2 -0.15 0.2 -0.2 0.1 -0.2 0.05 -0.25 0.0 -0.25 -0.05 -0.25 -0.05 -0.35 -0.05 -0.4 -0.05 -0.45 0.0 -0.5 0.05 -0.55 0.05 -0.65" fill="#aab4b7" fill-rule="evenodd" stroke="none"/>
    <path d="M0.2 -0.75 L0.2 -0.8 Q0.2 -0.8 0.25 -0.75 L0.3 -0.75 0.25 -0.75 0.25 -0.75 0.2 -0.75" fill="#474b51" fill-rule="evenodd" stroke="none"/>
    <path d="M0.3 -0.75 L0.35 -0.75 0.35 -0.75 Q0.35 -0.7 0.35 -0.7 L0.4 -0.75 0.4 -0.8 Q0.45 -0.75 0.45 -0.75 L0.45 -0.8 0.5 -0.85 0.55 -0.85 0.45 -0.7 0.5 -0.7 0.55 -0.7 0.5 -0.65 0.45 -0.7 0.45 -0.65 Q0.45 -0.65 0.4 -0.65 L0.4 -0.65 0.35 -0.6 0.3 -0.6 0.35 -0.65 0.3 -0.75" fill="#44474b" fill-rule="evenodd" stroke="none"/>
    <path d="M0.4 -0.65 L0.4 -0.65 0.4 -0.6 0.45 -0.55 0.45 -0.4 0.45 -0.35 0.4 -0.35 0.4 -0.65" fill="#808588" fill-rule="evenodd" stroke="none"/>
    <path d="M0.25 -0.4 L0.3 -0.55 0.3 -0.45 0.25 -0.4 Q0.3 -0.35 0.3 -0.4 L0.35 -0.45 0.3 -0.55 0.3 -0.6 0.35 -0.6 0.4 -0.65 0.4 -0.35 0.45 -0.35 0.45 -0.3 0.45 -0.3 0.4 -0.3 0.4 -0.35 0.35 -0.4 0.35 -0.25 Q0.35 -0.25 0.4 -0.25 L0.45 -0.25 0.45 -0.25 0.45 -0.2 0.3 -0.3 Q0.25 -0.35 0.25 -0.4" fill="#b3c1c1" fill-rule="evenodd" stroke="none"/>
    <path d="M0.5 -0.55 L0.5 -0.6 0.45 -0.65 0.5 -0.6 0.5 -0.55 0.55 -0.5 0.5 -0.5 0.5 -0.45 0.5 -0.55" fill="#666868" fill-rule="evenodd" stroke="none"/>
    <path d="M0.4 -0.65 L0.45 -0.6 0.5 -0.55 0.5 -0.45 0.45 -0.4 0.45 -0.55 0.4 -0.6 0.4 -0.65 M0.5 -0.45 L0.5 -0.45" fill="#bac5c5" fill-rule="evenodd" stroke="none"/>
    <path d="M0.45 -0.25 L0.4 -0.25 Q0.35 -0.25 0.35 -0.25 L0.35 -0.4 0.4 -0.35 0.4 -0.3 0.45 -0.3 0.45 -0.25" fill="#96a3a4" fill-rule="evenodd" stroke="none"/>
    <path d="M0.45 -0.35 L0.45 -0.4 0.5 -0.45 0.5 -0.35 0.45 -0.3 0.45 -0.3 0.45 -0.35 M0.45 -0.25 L0.45 -0.3 0.45 -0.25 0.45 -0.25" fill="#dce2e4" fill-rule="evenodd" stroke="none"/>
    <path d="M0.2 -0.2 L0.2 -0.15 0.25 -0.15 0.25 -0.2 Q0.2 -0.25 0.2 -0.25 L0.25 -0.3 0.2 -0.3 0.2 -0.35 Q0.15 -0.3 0.1 -0.35 0.05 -0.4 0.05 -0.45 L0.15 -0.45 0.2 -0.35 0.25 -0.35 0.3 -0.25 0.3 -0.15 0.3 -0.05 0.25 0.0 0.25 -0.05 0.2 -0.1 0.15 -0.1 Q0.05 -0.1 0.05 -0.15 L0.05 -0.15 0.0 -0.25 0.1 -0.2 0.15 -0.15 0.15 -0.15 0.2 -0.2" fill="#757c81" fill-rule="evenodd" stroke="none"/>
    <path d="M0.25 -0.2 L0.1 -0.35 Q0.0 -0.4 0.0 -0.5 L0.2 -0.45 0.25 -0.4 Q0.25 -0.35 0.3 -0.3 L0.45 -0.2 0.45 -0.15 0.45 -0.05 0.4 -0.1 0.3 -0.15 0.3 -0.25 0.25 -0.35 0.2 -0.35 0.15 -0.45 0.05 -0.45 Q0.05 -0.4 0.1 -0.35 0.15 -0.3 0.2 -0.35 L0.2 -0.3 0.25 -0.3 0.2 -0.25 Q0.2 -0.25 0.25 -0.2" fill="#3a3a3e" fill-rule="evenodd" stroke="none"/>
    <path d="M0.2 -0.15 L0.25 -0.2 0.25 -0.15 0.2 -0.15" fill="#313031" fill-rule="evenodd" stroke="none"/>
    <path d="M-0.05 -0.25 L0.0 -0.25 0.05 -0.25 0.1 -0.2 0.2 -0.2 0.15 -0.15 0.15 -0.15 0.1 -0.2 0.0 -0.25 0.05 -0.15 0.05 -0.15 Q0.05 -0.1 0.15 -0.1 L0.2 -0.1 0.25 -0.05 0.25 0.0 0.2 0.1 0.2 0.15 0.15 0.1 0.15 0.05 0.2 0.05 0.05 0.0 0.05 0.05 0.1 0.1 0.05 0.1 0.0 0.05 0.0 -0.05 0.05 -0.05 Q0.05 0.0 0.1 0.0 L0.15 0.0 0.1 -0.05 0.05 -0.05 0.0 -0.1 -0.05 -0.15 -0.05 -0.2 -0.05 -0.25" fill="#4f5357" fill-rule="evenodd" stroke="none"/>
    <path d="M0.05 -0.05 L0.05 -0.05 0.0 -0.05 0.0 -0.1 0.05 -0.05" fill="#778285" fill-rule="evenodd" stroke="none"/>
    <path d="M0.05 -0.05 L0.05 -0.05 0.1 -0.05 0.15 0.0 0.1 0.0 Q0.05 0.0 0.05 -0.05" fill="#3a1e21" fill-rule="evenodd" stroke="none"/>
    <path d="M0.45 -0.15 L0.45 -0.2 0.45 -0.25 0.45 -0.3 0.5 -0.3 0.5 -0.2 0.45 -0.15" fill="#5b5d5f" fill-rule="evenodd" stroke="none"/>
    <path d="M0.5 -0.45 L0.5 -0.45 Q0.55 -0.5 0.6 -0.4 L0.6 -0.35 0.55 -0.4 0.55 -0.4 0.5 -0.3 0.45 -0.3 0.5 -0.35 0.5 -0.45" fill="#1b1a1d" fill-rule="evenodd" stroke="none"/>
    <path d="M0.45 -0.05 L0.45 -0.15 0.5 -0.2 0.5 -0.3 0.55 -0.3 0.5 -0.25 0.55 -0.25 0.55 -0.25 Q0.6 -0.25 0.6 -0.2 L0.6 -0.1 0.5 -0.05 0.45 0.0 0.45 0.05 0.4 0.0 0.45 -0.05 M0.6 -0.35 L0.55 -0.3 0.5 -0.3 0.55 -0.4 0.55 -0.4 0.6 -0.35" fill="#899096" fill-rule="evenodd" stroke="none"/>
    <path d="M0.25 0.0 L0.3 -0.05 0.3 -0.15 0.4 -0.1 0.45 -0.05 0.4 0.0 0.4 0.1 0.35 0.15 0.3 0.1 0.2 0.1 0.25 0.0" fill="#27282a" fill-rule="evenodd" stroke="none"/>
    <path d="M0.75 -0.45 L0.75 -0.4 0.8 -0.35 Q0.8 -0.35 0.8 -0.3 L0.85 -0.25 0.8 -0.3 0.75 -0.3 0.75 -0.35 0.75 -0.45 M0.75 -0.35 L0.75 -0.35 M0.75 -0.3 L0.75 -0.3" fill="#c5d2d4" fill-rule="evenodd" stroke="none"/>
    <path d="M0.7 -0.5 L0.75 -0.45 0.75 -0.35 0.7 -0.3 0.7 -0.4 0.7 -0.35 Q0.7 -0.3 0.7 -0.25 L0.8 -0.25 0.8 -0.2 0.85 -0.2 Q0.8 -0.2 0.8 -0.2 L0.75 -0.2 0.75 -0.15 0.65 -0.3 0.6 -0.45 0.65 -0.4 0.65 -0.45 0.65 -0.5 0.6 -0.55 0.6 -0.6 0.65 -0.55 0.7 -0.5 0.7 -0.5 M0.6 -0.15 L0.7 -0.15 0.75 -0.15 0.75 -0.05 0.7 -0.1 0.7 -0.05 0.65 -0.05 0.6 -0.1 0.6 -0.15" fill="#a5afb2" fill-rule="evenodd" stroke="none"/>
    <path d="M0.75 -0.3 Q0.8 -0.25 0.8 -0.25 L0.7 -0.25 Q0.7 -0.3 0.7 -0.35 L0.7 -0.4 0.7 -0.3 Q0.7 -0.3 0.75 -0.3 M0.5 -0.6 L0.55 -0.55 0.6 -0.55 0.6 -0.55 Q0.6 -0.6 0.6 -0.55 L0.65 -0.5 0.65 -0.45 0.65 -0.4 0.6 -0.45 0.65 -0.3 0.75 -0.15 0.7 -0.15 0.6 -0.15 0.6 -0.4 Q0.55 -0.5 0.5 -0.45 L0.5 -0.5 0.55 -0.5 0.5 -0.55 0.5 -0.6" fill="#c6d4d6" fill-rule="evenodd" stroke="none"/>
    <path d="M0.6 -0.4 L0.6 -0.15 0.6 -0.1 0.6 -0.2 Q0.6 -0.25 0.55 -0.25 L0.55 -0.25 0.5 -0.25 0.55 -0.3 0.5 -0.3 0.55 -0.3 0.6 -0.35 0.6 -0.4 M0.6 -0.1 L0.6 -0.1" fill="#535558" fill-rule="evenodd" stroke="none"/>
    <path d="M0.75 -0.35 L0.75 -0.3 0.75 -0.35" fill="#6e7172" fill-rule="evenodd" stroke="none"/>
    <path d="M0.75 -0.35 L0.75 -0.35 0.75 -0.3 0.75 -0.3 Q0.7 -0.3 0.7 -0.3 L0.75 -0.35" fill="#171112" fill-rule="evenodd" stroke="none"/>
    <path d="M0.6 -0.1 L0.6 -0.1 0.65 -0.05 0.7 -0.05 0.7 0.05 0.65 0.0 0.65 0.0 0.65 0.05 0.7 0.05 0.7 0.1 0.7 0.15 0.65 0.1 0.6 0.0 0.55 -0.05 0.5 -0.05 0.6 -0.1" fill="#3e4146" fill-rule="evenodd" stroke="none"/>
    <path d="M0.5 -0.05 L0.55 -0.05 0.6 0.0 0.65 0.1 0.7 0.15 0.65 0.15 0.6 0.1 Q0.55 0.15 0.55 0.05 L0.5 -0.05" fill="#57585b" fill-rule="evenodd" stroke="none"/>
    <path d="M0.7 0.1 L0.7 0.05 0.65 0.05 0.65 0.0 0.65 0.0 0.7 0.05 0.7 -0.05 0.7 -0.1 0.7 0.1" fill="#727372" fill-rule="evenodd" stroke="none"/>
    <path d="M0.7 -0.1 L0.75 -0.05 0.75 -0.15 0.8 -0.1 0.8 0.05 0.8 0.15 0.75 0.15 0.7 0.1 0.7 -0.1" fill="#2e3849" fill-rule="evenodd" stroke="none"/>
    <path d="M0.75 -0.15 L0.75 -0.2 0.8 -0.2 0.8 -0.1 0.75 -0.15" fill="#301515" fill-rule="evenodd" stroke="none"/>
    <path d="M0.85 -0.2 L0.85 -0.1 0.8 -0.05 0.8 0.05 0.8 -0.1 0.8 -0.2 0.75 -0.2 0.8 -0.2 Q0.8 -0.2 0.85 -0.2" fill="#818889" fill-rule="evenodd" stroke="none"/>
    <path d="M0.8 -0.05 L0.85 -0.1 0.9 -0.1 0.85 0.05 0.85 0.2 0.9 0.25 Q0.95 0.25 0.95 0.3 L1.0 0.35 1.05 0.4 1.0 0.4 0.9 0.45 0.85 0.55 0.85 0.65 0.45 0.35 0.4 0.35 0.35 0.35 0.3 0.3 0.35 0.25 Q0.4 0.2 0.35 0.2 L0.4 0.1 0.45 0.05 0.45 0.0 0.5 -0.05 0.55 0.05 Q0.55 0.15 0.6 0.1 L0.65 0.15 0.7 0.15 0.7 0.1 0.75 0.15 0.8 0.15 0.8 0.05 0.8 -0.05" fill="#372e31" fill-rule="evenodd" stroke="none"/>
    <path d="M1.3 -0.9 L1.4 -0.8 1.45 -0.7 1.3 -0.65 1.2 -0.65 1.05 -0.6 0.9 -0.5 Q0.95 -0.6 1.1 -0.65 L1.2 -0.7 1.3 -0.7 1.25 -0.75 1.2 -0.75 1.25 -0.85 1.3 -0.9" fill="#382d32" fill-rule="evenodd" stroke="none"/>
    <path d="M1.45 -0.35 L1.5 -0.35 1.5 -0.35 1.5 -0.3 1.45 -0.35" fill="#e0c585" fill-rule="evenodd" stroke="none"/>
    <path d="M1.0 0.1 L1.0 0.0 1.05 -0.1 1.2 -0.15 1.25 -0.2 1.35 -0.2 1.3 -0.15 1.3 -0.05 1.25 0.0 1.25 0.05 1.25 0.1 1.25 0.15 Q1.2 0.2 1.25 0.25 L1.3 0.25 1.3 0.2 1.4 0.15 1.55 0.15 1.6 0.1 1.7 0.1 1.8 0.05 1.85 0.1 1.9 0.15 Q1.8 0.25 1.85 0.3 L1.85 0.45 1.8 0.55 1.65 0.65 1.5 0.65 1.45 0.6 1.45 0.5 1.35 0.5 1.3 0.4 1.3 0.45 1.35 0.5 Q1.35 0.55 1.3 0.55 L1.35 0.6 1.35 0.65 Q1.35 0.65 1.3 0.6 1.25 0.55 1.2 0.55 L1.15 0.5 1.1 0.55 Q1.05 0.55 1.1 0.6 L1.15 0.65 1.15 0.55 1.2 0.55 1.25 0.6 1.25 0.65 1.2 0.65 1.05 0.65 0.95 0.55 Q0.95 0.5 1.05 0.45 L1.2 0.45 1.15 0.4 1.1 0.3 1.15 0.2 1.2 0.1 1.1 0.05 1.05 0.1 1.0 0.1" fill="#3c2f33" fill-rule="evenodd" stroke="none"/>
    <path d="M1.35 -0.25 L1.4 -0.25 1.45 -0.25 1.4 -0.25 1.4 -0.2 1.35 -0.25" fill="#e1c481" fill-rule="evenodd" stroke="none"/>
    <path d="M1.35 -0.2 L1.35 -0.25 1.4 -0.2 1.4 -0.25 1.45 -0.25 1.4 -0.25 1.45 -0.35 1.5 -0.3 1.5 -0.35 1.5 -0.35 1.55 -0.4 1.55 -0.35 1.6 -0.35 1.6 -0.4 1.7 -0.4 1.7 -0.4 1.75 -0.4 1.75 -0.35 1.7 -0.35 1.65 -0.35 1.55 -0.3 1.45 -0.25 1.35 -0.1 1.35 -0.05 1.3 -0.15 1.35 -0.2" fill="#a2833a" fill-rule="evenodd" stroke="none"/>
    <path d="M1.35 -0.1 L1.4 -0.05 1.4 0.0 1.45 -0.1 Q1.5 -0.15 1.55 -0.15 L1.6 -0.1 1.65 -0.1 1.65 -0.05 Q1.6 0.0 1.65 0.0 L1.55 0.0 Q1.55 0.0 1.5 0.05 L1.5 0.1 1.45 0.1 1.4 0.1 1.3 0.15 1.3 0.05 Q1.3 0.05 1.25 0.05 L1.25 0.0 1.3 0.0 1.35 0.0 1.3 -0.05 1.3 -0.05 1.3 -0.15 1.35 -0.05 1.35 -0.1" fill="#7c372e" fill-rule="evenodd" stroke="none"/>
    <path d="M1.9 -0.4 L1.9 -0.35 1.95 -0.35 2.0 -0.3 1.95 -0.2 1.85 -0.15 1.8 -0.1 1.75 -0.1 Q1.7 -0.05 1.75 -0.05 L1.75 0.0 1.7 0.0 1.65 0.0 Q1.6 0.0 1.65 -0.05 L1.65 -0.1 1.6 -0.1 1.55 -0.15 Q1.5 -0.15 1.45 -0.1 L1.4 0.0 1.4 -0.05 1.35 -0.1 1.45 -0.25 1.55 -0.3 1.55 -0.25 1.65 -0.2 1.7 -0.2 1.7 -0.3 1.65 -0.35 1.7 -0.35 1.75 -0.35 Q1.8 -0.35 1.8 -0.35 L1.85 -0.35 1.85 -0.35 1.9 -0.4" fill="#4b2626" fill-rule="evenodd" stroke="none"/>
    <path d="M1.3 -0.05 L1.3 -0.05 1.35 0.0 1.3 0.0 1.25 0.0 1.3 -0.05" fill="#ae8b3d" fill-rule="evenodd" stroke="none"/>
    <path d="M1.8 -0.55 L1.8 -0.55 1.8 -0.45 Q1.8 -0.35 1.85 -0.35 L1.8 -0.35 Q1.8 -0.35 1.75 -0.35 L1.75 -0.4 1.75 -0.5 1.8 -0.55" fill="#614e3b" fill-rule="evenodd" stroke="none"/>
    <path d="M1.8 -0.55 L1.9 -0.5 Q1.85 -0.5 1.85 -0.45 L1.85 -0.35 Q1.8 -0.35 1.8 -0.45 L1.8 -0.55 M1.85 -0.35 L1.85 -0.35" fill="#312629" fill-rule="evenodd" stroke="none"/>
    <path d="M1.9 -0.5 L1.9 -0.4 1.85 -0.35 1.85 -0.45 Q1.85 -0.5 1.9 -0.5" fill="#514144" fill-rule="evenodd" stroke="none"/>
    <path d="M1.65 -0.55 L1.8 -0.55 1.75 -0.5 1.75 -0.4 1.7 -0.4 1.7 -0.4 Q1.65 -0.4 1.65 -0.45 L1.65 -0.55" fill="#292023" fill-rule="evenodd" stroke="none"/>
    <path d="M1.6 -0.4 L1.65 -0.5 1.65 -0.55 1.65 -0.45 Q1.65 -0.4 1.7 -0.4 L1.6 -0.4" fill="#544341" fill-rule="evenodd" stroke="none"/>
    <path d="M1.55 -0.4 L1.6 -0.4 1.6 -0.35 1.55 -0.35 1.55 -0.4" fill="#e0c586" fill-rule="evenodd" stroke="none"/>
    <path d="M1.55 -0.3 L1.65 -0.35 1.7 -0.3 1.7 -0.2 1.65 -0.2 1.55 -0.25 1.55 -0.3" fill="#2f2020" fill-rule="evenodd" stroke="none"/>
    <path d="M1.75 -0.05 Q1.7 -0.05 1.75 -0.1 L1.8 -0.1 1.9 -0.05 1.8 -0.05 1.75 -0.05 M1.95 -0.05 L1.9 -0.05 1.95 -0.05" fill="#2d2120" fill-rule="evenodd" stroke="none"/>
    <path d="M1.7 0.0 L1.75 0.0 Q1.8 -0.05 1.8 0.05 L1.7 0.05 Q1.7 0.0 1.7 0.0" fill="#e0c484" fill-rule="evenodd" stroke="none"/>
    <path d="M1.55 0.0 L1.65 0.0 1.7 0.0 Q1.7 0.0 1.7 0.05 L1.8 0.05 Q1.8 -0.05 1.75 0.0 L1.75 -0.05 1.8 -0.05 1.8 0.0 1.85 0.05 1.9 0.0 1.9 -0.05 1.95 -0.05 1.95 0.0 2.0 0.0 1.95 0.1 1.9 0.05 1.8 0.05 1.7 0.1 1.65 0.05 1.65 0.0 1.6 0.05 1.55 0.0" fill="#ab8a3e" fill-rule="evenodd" stroke="none"/>
    <path d="M2.0 -0.3 L2.05 -0.3 2.05 -0.25 2.05 -0.15 2.0 -0.15 2.0 -0.1 Q2.0 -0.1 1.95 -0.1 L1.9 -0.05 1.8 -0.1 1.85 -0.15 1.95 -0.2 2.0 -0.3" fill="#763031" fill-rule="evenodd" stroke="none"/>
    <path d="M1.8 -0.05 L1.9 -0.05 1.9 0.0 1.85 0.05 1.8 0.0 1.8 -0.05" fill="#e2c787" fill-rule="evenodd" stroke="none"/>
    <path d="M2.05 -0.15 L2.05 -0.1 2.15 -0.1 2.1 -0.05 2.1 0.0 2.1 0.0 2.05 0.05 2.0 0.0 1.95 0.0 1.95 -0.05 1.9 -0.05 1.95 -0.1 Q2.0 -0.1 2.0 -0.1 L2.0 -0.15 2.05 -0.15" fill="#4e2121" fill-rule="evenodd" stroke="none"/>
    <path d="M1.95 -2.2 L2.15 -2.2 2.15 -2.0 2.1 -2.05 2.05 -2.1 1.95 -2.2" fill="#060d1c" fill-rule="evenodd" stroke="none"/>
    <path d="M2.05 0.35 L2.1 0.55 2.05 0.75 2.0 0.8 1.9 0.9 1.9 0.85 1.9 0.85 1.85 0.9 Q1.85 0.95 1.8 0.95 1.75 1.0 1.65 0.95 L1.55 0.85 Q1.5 0.85 1.6 0.95 L1.6 1.0 1.35 0.9 1.4 0.95 1.35 1.05 1.25 1.0 1.2 0.95 1.2 1.0 1.15 1.05 Q1.1 1.05 1.0 0.95 L0.9 0.85 0.8 0.75 0.7 0.65 0.7 0.75 0.75 0.8 0.7 0.85 0.65 0.8 0.65 0.75 0.6 0.7 0.5 0.6 0.45 0.45 0.4 0.45 0.35 0.35 0.4 0.35 0.45 0.35 0.85 0.65 0.9 0.65 0.9 0.55 Q0.9 0.5 0.95 0.5 L0.95 0.6 1.0 0.65 0.95 0.7 0.85 0.75 Q0.95 0.85 1.1 0.85 L1.2 0.85 1.35 0.85 1.35 0.75 1.3 0.7 1.25 0.7 1.25 0.7 1.3 0.7 1.35 0.7 1.35 0.65 1.4 0.65 1.4 0.8 Q1.45 0.8 1.45 0.75 L1.5 0.7 1.5 0.75 1.55 0.8 1.7 0.85 1.85 0.8 1.85 0.6 1.85 0.6 1.9 0.65 1.9 0.7 1.95 0.7 1.95 0.7 1.9 0.8 2.0 0.7 2.05 0.55 2.05 0.45 2.0 0.35 2.05 0.35" fill="#292228" fill-rule="evenodd" stroke="none"/>
    <path d="M2.05 0.1 L2.05 0.35 2.0 0.35 2.05 0.45 2.05 0.55 2.0 0.7 1.9 0.8 1.95 0.7 1.95 0.7 1.9 0.7 1.9 0.65 1.85 0.6 1.85 0.6 1.85 0.8 1.7 0.85 1.55 0.8 1.5 0.75 1.5 0.7 1.45 0.75 Q1.45 0.8 1.4 0.8 L1.4 0.65 1.35 0.65 1.35 0.7 1.3 0.7 1.25 0.7 1.25 0.7 1.3 0.7 1.35 0.75 1.35 0.85 1.2 0.85 1.1 0.85 Q0.95 0.85 0.85 0.75 L0.95 0.7 1.0 0.65 0.95 0.6 0.95 0.5 Q0.9 0.5 0.9 0.55 L0.9 0.65 0.85 0.65 0.85 0.55 0.9 0.45 1.0 0.4 1.05 0.4 1.0 0.35 0.95 0.3 0.95 0.2 1.0 0.1 1.05 0.1 1.1 0.05 1.2 0.1 1.15 0.2 1.1 0.3 1.15 0.4 1.2 0.45 1.05 0.45 Q0.95 0.5 0.95 0.55 L1.05 0.65 1.2 0.65 1.25 0.65 1.25 0.6 1.2 0.55 1.15 0.55 1.15 0.65 1.1 0.6 Q1.05 0.55 1.1 0.55 L1.15 0.5 1.2 0.55 Q1.25 0.55 1.3 0.6 1.35 0.65 1.35 0.65 L1.35 0.6 1.3 0.55 Q1.35 0.55 1.35 0.5 L1.3 0.45 1.3 0.4 1.35 0.5 1.45 0.5 1.45 0.6 1.5 0.65 1.65 0.65 1.8 0.55 1.85 0.45 1.85 0.3 Q1.8 0.25 1.9 0.15 L1.85 0.1 1.8 0.05 1.9 0.05 1.95 0.1 2.05 0.1 M1.05 0.1 L1.05 0.2 1.1 0.15 1.1 0.1 1.05 0.1" fill="#31272c" fill-rule="evenodd" stroke="none"/>
    <path d="M2.05 0.05 L2.05 0.1 1.95 0.1 2.0 0.0 2.05 0.05" fill="#745f2a" fill-rule="evenodd" stroke="none"/>
    <path d="M2.05 0.75 L2.05 0.9 2.05 1.0 2.05 1.2 2.0 1.25 1.95 1.35 1.9 1.35 1.85 1.3 1.85 1.25 1.8 1.25 1.55 1.1 1.5 1.1 1.55 1.15 1.5 1.15 1.4 1.15 1.3 1.1 1.25 1.15 1.2 1.15 1.1 1.1 0.95 1.1 1.0 1.2 1.05 1.3 1.05 1.35 1.0 1.35 0.95 1.3 0.85 1.35 0.85 1.25 0.8 1.15 0.8 1.2 Q0.8 1.0 0.7 0.85 L0.75 0.8 0.7 0.75 0.7 0.65 0.8 0.75 0.9 0.85 1.0 0.95 Q1.1 1.05 1.15 1.05 L1.2 1.0 1.2 0.95 1.25 1.0 1.35 1.05 1.4 0.95 1.35 0.9 1.6 1.0 1.6 0.95 Q1.5 0.85 1.55 0.85 L1.65 0.95 Q1.75 1.0 1.8 0.95 1.85 0.95 1.85 0.9 L1.9 0.85 1.9 0.85 1.9 0.9 2.0 0.8 2.05 0.75" fill="#1d1a22" fill-rule="evenodd" stroke="none"/>
    <path d="M2.15 1.35 L2.15 2.15 0.55 2.15 0.5 2.05 0.45 1.95 0.4 1.9 0.35 1.85 Q0.3 1.8 0.25 1.85 L0.15 1.9 0.1 1.95 Q0.0 2.0 0.0 2.15 L-1.4 2.15 -1.3 1.9 -1.2 1.65 -1.15 1.4 -1.0 1.15 -1.0 0.9 -1.05 0.95 -1.05 1.05 -1.15 1.15 -1.25 1.25 -1.5 1.3 -1.95 1.2 -2.0 1.2 -2.1 1.2 Q-2.15 1.2 -2.15 1.2 L-2.1 1.25 -2.0 1.25 -1.9 1.3 -1.9 1.35 -1.95 1.45 -1.95 1.6 -2.05 1.6 -2.2 1.6 -2.2 0.35 -1.6 0.55 -1.55 0.5 -1.55 0.45 -1.4 0.2 -1.3 0.05 -1.25 -0.05 -1.2 -0.05 -1.1 -0.05 -1.05 0.0 -1.15 0.05 -1.15 0.15 Q-1.15 0.2 -1.2 0.2 L-1.2 0.3 -1.25 0.4 -1.35 0.5 -1.45 0.65 -1.45 0.8 -1.4 0.8 -1.4 0.85 -1.35 0.85 -1.2 0.8 -1.05 0.8 -1.15 0.85 -1.3 0.9 -1.35 0.95 -1.4 1.0 -1.55 1.0 -1.65 0.95 -1.65 1.05 -1.45 1.05 -1.25 1.0 -1.15 1.0 -1.05 0.95 -1.0 0.85 -0.95 0.75 -1.0 1.05 -1.0 1.4 -0.9 1.4 -0.9 1.35 -0.85 1.35 -0.75 1.3 -0.65 1.3 -0.55 1.2 -0.45 1.15 -0.4 1.15 -0.4 1.1 -0.45 1.05 -0.45 1.0 -0.4 0.9 -0.3 0.9 -0.25 0.85 -0.25 0.8 Q-0.2 0.85 -0.25 0.9 L-0.25 1.0 -0.25 1.05 -0.25 1.35 -0.25 1.5 -0.15 1.7 -0.15 1.75 -0.2 1.75 -0.25 1.7 -0.3 1.7 -0.3 1.75 -0.25 1.8 -0.2 1.75 -0.1 1.75 0.0 1.7 0.05 1.8 0.1 1.85 0.1 1.75 0.05 1.75 0.1 1.75 0.1 1.65 0.05 1.6 0.15 1.6 0.2 1.6 0.25 1.6 0.35 1.65 Q0.45 1.65 0.4 1.7 L0.45 1.7 0.4 1.75 0.35 1.8 0.45 1.8 0.5 1.75 0.55 1.75 0.65 1.8 0.75 1.8 0.85 1.8 Q0.9 1.8 0.85 1.75 L0.75 1.75 0.65 1.7 0.7 1.65 0.7 1.55 Q0.7 1.5 0.75 1.4 L0.8 1.25 0.8 1.2 0.8 1.15 0.85 1.25 0.85 1.35 0.95 1.3 1.0 1.35 1.05 1.35 1.05 1.3 1.0 1.2 0.95 1.1 1.1 1.1 1.2 1.15 1.25 1.15 1.3 1.1 1.4 1.15 1.5 1.15 1.55 1.15 1.5 1.1 1.55 1.1 1.8 1.25 1.85 1.25 1.85 1.3 1.9 1.35 1.95 1.35 2.0 1.25 2.05 1.2 2.05 1.0 2.05 0.9 2.1 0.95 2.1 1.0 Q2.05 1.05 2.1 1.15 L2.15 1.35" fill="#12131c" fill-rule="evenodd" stroke="none"/>
    <path d="M1.3 0.15 L1.4 0.1 1.45 0.1 1.5 0.1 1.55 0.15 1.4 0.15 1.3 0.2 1.25 0.2 1.3 0.15" fill="#ae8c3e" fill-rule="evenodd" stroke="none"/>
    <path d="M1.5 0.1 L1.5 0.05 Q1.55 0.0 1.55 0.0 L1.6 0.05 1.65 0.0 1.65 0.05 1.7 0.1 1.6 0.1 1.55 0.15 1.5 0.1" fill="#79622b" fill-rule="evenodd" stroke="none"/>
    <path d="M1.25 0.05 Q1.3 0.05 1.3 0.05 L1.3 0.15 1.25 0.1 1.25 0.05" fill="#b08c3e" fill-rule="evenodd" stroke="none"/>
    <path d="M1.3 0.2 L1.3 0.25 1.25 0.25 Q1.2 0.2 1.25 0.15 L1.25 0.1 1.3 0.15 1.25 0.2 1.3 0.2" fill="#7f451d" fill-rule="evenodd" stroke="none"/>
    <path d="M1.05 0.1 L1.1 0.1 1.1 0.15 1.05 0.2 1.05 0.1" fill="#3b2e31" fill-rule="evenodd" stroke="none"/>
    <path d="M0.45 0.05 L0.4 0.1 0.35 0.2 Q0.4 0.2 0.35 0.25 L0.3 0.3 0.25 0.3 Q0.2 0.25 0.2 0.3 L0.15 0.25 0.2 0.15 0.0 0.15 0.05 0.1 0.1 0.1 0.15 0.1 0.2 0.15 0.2 0.1 0.3 0.1 0.35 0.15 0.4 0.1 0.4 0.0 0.45 0.05 M0.0 0.15 L0.0 0.15" fill="#3d3e42" fill-rule="evenodd" stroke="none"/>
    <path d="M0.1 0.1 L0.05 0.05 0.05 0.0 0.2 0.05 0.15 0.05 0.15 0.1 0.1 0.1" fill="#646a70" fill-rule="evenodd" stroke="none"/>
    <path d="M-0.25 1.35 L-0.25 1.05 -0.2 1.1 -0.2 0.95 Q-0.1 0.9 -0.15 0.8 L-0.15 0.75 -0.2 0.65 -0.2 0.55 -0.15 0.4 Q-0.15 0.35 -0.15 0.3 L-0.15 0.1 -0.1 0.0 -0.15 0.0 -0.15 0.1 -0.2 0.2 -0.2 0.25 -0.15 0.35 -0.2 0.35 -0.2 0.45 -0.25 0.55 -0.2 0.65 -0.2 0.75 -0.15 0.85 -0.15 0.9 -0.2 0.9 Q-0.15 0.85 -0.2 0.8 L-0.25 0.7 -0.25 0.3 -0.3 -0.15 -0.2 -0.1 -0.1 -0.1 0.0 -0.05 0.0 0.05 0.0 0.15 0.0 0.15 0.0 0.1 Q0.0 0.05 -0.05 0.0 L-0.1 0.1 -0.1 0.25 -0.1 0.35 -0.15 0.5 -0.15 0.65 -0.1 0.75 -0.1 0.9 -0.15 1.0 -0.2 1.1 -0.15 1.15 -0.15 1.1 -0.15 1.25 Q-0.15 1.35 -0.2 1.4 L-0.2 1.35 -0.25 1.35" fill="#1e2431" fill-rule="evenodd" stroke="none"/>
    <path d="M0.05 0.1 L0.0 0.15 0.0 0.05 0.05 0.1" fill="#6f777b" fill-rule="evenodd" stroke="none"/>
    <path d="M-0.05 0.3 L-0.05 0.25 -0.05 0.25 Q0.0 0.2 0.05 0.2 0.1 0.2 0.1 0.25 L0.1 0.35 0.05 0.35 Q0.0 0.3 -0.05 0.3" fill="#3b2b2f" fill-rule="evenodd" stroke="none"/>
    <path d="M0.0 0.15 L0.2 0.15 0.15 0.25 Q0.1 0.25 0.1 0.25 0.1 0.2 0.05 0.2 0.0 0.2 -0.05 0.25 L-0.05 0.25 -0.05 0.3 -0.05 0.55 -0.05 0.55 -0.1 0.6 -0.15 0.65 -0.15 0.5 -0.1 0.35 -0.1 0.25 -0.1 0.1 -0.05 0.0 Q0.0 0.05 0.0 0.1 L0.0 0.15 M-0.1 0.6 L-0.1 0.6" fill="#4e4f52" fill-rule="evenodd" stroke="none"/>
    <path d="M0.1 0.35 L0.1 0.25 Q0.1 0.25 0.15 0.25 L0.15 0.3 0.1 0.35" fill="#7d888c" fill-rule="evenodd" stroke="none"/>
    <path d="M0.35 0.35 L0.4 0.45 0.35 0.45 0.3 0.4 0.3 0.45 0.25 0.45 0.2 0.4 0.1 0.35 0.15 0.3 0.15 0.25 0.2 0.3 Q0.2 0.25 0.25 0.3 L0.25 0.35 0.3 0.3 0.35 0.35" fill="#4f282b" fill-rule="evenodd" stroke="none"/>
    <path d="M0.25 0.45 L0.3 0.45 0.25 0.55 0.2 0.65 0.25 0.65 0.25 0.7 0.15 0.8 0.0 0.8 -0.05 0.65 -0.05 0.5 -0.05 0.4 0.0 0.5 0.0 0.6 0.1 0.65 0.2 0.6 0.2 0.55 0.25 0.5 0.25 0.45" fill="#32353c" fill-rule="evenodd" stroke="none"/>
    <path d="M-0.05 0.3 Q0.0 0.3 0.05 0.35 L0.1 0.35 0.2 0.4 0.25 0.45 0.25 0.5 0.2 0.55 0.2 0.6 0.1 0.65 0.0 0.6 0.0 0.5 -0.05 0.4 -0.05 0.5 -0.05 0.55 -0.05 0.3" fill="#3d4045" fill-rule="evenodd" stroke="none"/>
    <path d="M0.3 0.3 L0.25 0.35 0.25 0.3 0.3 0.3" fill="#987c7a" fill-rule="evenodd" stroke="none"/>
    <path d="M0.4 0.45 L0.45 0.45 0.4 0.45 0.35 0.5 0.35 0.55 0.4 0.6 0.4 0.65 0.45 0.7 0.5 0.7 0.6 0.7 0.65 0.75 0.7 0.95 0.75 1.2 0.7 1.25 0.7 1.15 0.65 1.0 0.6 0.9 0.6 0.8 0.55 0.8 0.45 0.8 0.4 0.75 0.35 0.65 0.35 0.55 Q0.3 0.5 0.35 0.45 L0.4 0.45" fill="#37393e" fill-rule="evenodd" stroke="none"/>
    <path d="M0.45 0.45 L0.5 0.6 0.6 0.7 0.5 0.7 0.45 0.7 0.4 0.65 0.4 0.6 0.35 0.55 0.35 0.5 0.4 0.45 0.45 0.45" fill="#42464b" fill-rule="evenodd" stroke="none"/>
    <path d="M0.3 0.45 L0.3 0.4 0.35 0.45 Q0.3 0.5 0.35 0.55 L0.35 0.65 0.4 0.75 0.45 0.8 0.55 0.8 0.6 0.8 0.6 0.9 0.65 1.0 0.6 1.0 0.6 1.05 0.55 1.05 0.5 1.05 0.4 1.05 0.3 1.05 0.25 1.05 0.2 1.05 0.1 1.05 0.0 1.05 Q0.0 1.0 0.05 0.95 0.1 0.9 0.15 0.9 L0.2 0.95 0.25 0.95 0.3 0.9 0.35 0.9 0.4 0.85 Q0.45 0.85 0.4 0.8 L0.35 0.8 0.25 0.75 0.15 0.8 0.1 0.85 0.0 0.8 -0.05 0.7 -0.05 0.65 -0.1 0.6 -0.05 0.55 -0.05 0.55 -0.05 0.5 -0.05 0.65 0.0 0.8 0.15 0.8 0.25 0.7 0.25 0.65 0.2 0.65 0.25 0.55 0.3 0.45" fill="#272b32" fill-rule="evenodd" stroke="none"/>
    <path d="M0.65 0.75 L0.65 0.8 0.7 0.95 0.75 1.1 0.75 1.2 0.8 1.25 0.75 1.4 Q0.7 1.5 0.7 1.55 L0.7 1.65 0.65 1.7 0.55 1.65 0.15 1.55 Q0.1 1.6 0.05 1.55 L0.05 1.45 Q0.05 1.4 0.05 1.4 L0.15 1.4 0.2 1.4 0.25 1.3 0.3 1.3 0.25 1.3 0.2 1.35 0.1 1.35 0.0 1.35 0.0 1.2 Q0.05 1.15 0.05 1.15 0.05 1.1 0.0 1.15 L-0.05 1.2 -0.1 1.15 -0.1 1.05 -0.05 1.05 -0.05 0.95 -0.1 1.0 Q-0.05 0.9 -0.05 0.8 L-0.1 0.6 -0.05 0.65 -0.05 0.7 0.0 0.8 0.1 0.85 0.15 0.8 0.25 0.75 0.35 0.8 0.4 0.8 Q0.45 0.85 0.4 0.85 L0.35 0.9 0.3 0.9 0.25 0.95 0.2 0.95 0.15 0.9 Q0.1 0.9 0.05 0.95 0.0 1.0 0.0 1.05 L0.1 1.05 0.2 1.05 0.25 1.05 0.3 1.05 0.4 1.05 0.5 1.05 0.55 1.05 0.6 1.05 0.6 1.0 0.65 1.0 0.7 1.15 0.7 1.25 0.75 1.2 0.7 0.95 0.65 0.75 M-0.1 0.6 L-0.1 0.6" fill="#1e232b" fill-rule="evenodd" stroke="none"/>
    <path d="M0.15 1.6 L0.05 1.6 -0.05 1.65 -0.15 1.75 -0.15 1.7 -0.25 1.5 -0.25 1.35 -0.2 1.35 -0.2 1.4 Q-0.15 1.35 -0.15 1.25 L-0.15 1.1 -0.1 1.0 -0.05 0.95 -0.05 1.05 -0.1 1.05 -0.1 1.15 -0.05 1.2 0.0 1.15 Q0.05 1.1 0.05 1.15 0.05 1.15 0.0 1.2 L0.0 1.35 0.1 1.35 0.2 1.35 0.25 1.3 0.3 1.3 0.25 1.3 0.2 1.4 0.15 1.4 0.05 1.4 Q0.05 1.4 0.05 1.45 L0.05 1.55 Q0.1 1.6 0.15 1.55 L0.15 1.6" fill="#181c25" fill-rule="evenodd" stroke="none"/>
    <path d="M0.65 0.8 L0.7 0.85 Q0.8 1.0 0.8 1.2 L0.8 1.25 0.75 1.2 0.75 1.1 0.7 0.95 0.65 0.8" fill="#3b3c40" fill-rule="evenodd" stroke="none"/>
    <path d="M0.65 1.7 L0.75 1.75 0.85 1.75 Q0.9 1.8 0.85 1.8 L0.75 1.8 0.65 1.8 0.55 1.75 0.5 1.75 0.45 1.8 0.35 1.8 0.4 1.75 0.45 1.7 0.4 1.7 Q0.45 1.65 0.35 1.65 L0.25 1.6 0.2 1.6 0.15 1.6 0.15 1.55 0.55 1.65 0.65 1.7" fill="#292720" fill-rule="evenodd" stroke="none"/>
    <path d="M0.05 1.6 L0.1 1.65 0.1 1.75 0.05 1.75 0.1 1.75 0.1 1.85 0.05 1.8 0.0 1.7 -0.1 1.75 -0.2 1.75 -0.25 1.8 -0.3 1.75 -0.3 1.7 -0.25 1.7 -0.2 1.75 -0.15 1.75 -0.05 1.65 0.05 1.6" fill="#26231d" fill-rule="evenodd" stroke="none"/>
    <path d="M0.5 2.15 L0.0 2.15 0.05 2.05 Q0.1 2.0 0.15 2.0 L0.2 1.9 0.3 1.9 0.3 1.95 0.25 2.0 0.25 2.05 0.35 2.05 0.4 1.95 0.5 2.05 0.5 2.15" fill="#181419" fill-rule="evenodd" stroke="none"/>
    <path d="M0.55 2.15 L0.5 2.15 0.5 2.05 0.4 1.95 0.35 2.05 0.25 2.05 0.25 2.0 0.3 1.95 0.3 1.9 0.2 1.9 0.15 2.0 Q0.1 2.0 0.05 2.05 L0.0 2.15 0.0 2.15 Q0.0 2.0 0.1 1.95 L0.15 1.9 0.25 1.85 Q0.3 1.8 0.35 1.85 L0.4 1.9 0.45 1.95 0.5 2.05 0.55 2.15" fill="#2e2a23" fill-rule="evenodd" stroke="none"/>
    <path d="M-2.2 0.35 L-2.2 -1.5 Q-2.0 -1.65 -1.8 -1.7 L-1.4 -1.7 -1.0 -1.75 -0.6 -1.75 Q-0.6 -1.75 -0.65 -1.75 L-0.65 -1.7 -0.75 -1.65 -0.85 -1.65 -0.9 -1.65 -0.95 -1.65 -1.0 -1.65 -1.0 -1.6 -0.95 -1.55 -0.95 -1.55 -0.9 -1.5 -0.85 -1.5 -0.8 -1.5 -0.75 -1.45 -0.7 -1.4 -0.65 -1.45 -0.65 -1.4 -0.6 -1.4 -0.6 -1.4 -0.55 -1.4 -0.5 -1.35 -0.5 -1.35 -0.45 -1.35 -0.4 -1.35 -0.3 -1.3 -0.25 -1.3 -0.15 -1.3 -0.1 -1.3 -0.1 -1.25 -0.1 -1.2 -0.15 -1.25 -0.15 -1.25 -0.2 -1.25 -0.15 -1.2 -0.15 -1.2 -0.2 -1.15 -0.2 -1.15 -0.45 -0.95 -0.5 -0.9 -0.55 -0.9 -0.55 -0.8 -0.6 -0.75 -0.6 -0.75 -0.5 -0.65 -0.4 -0.6 -0.55 -0.55 -0.75 -0.5 -1.05 -0.4 -1.05 -0.4 Q-1.05 -0.35 -1.1 -0.35 L-1.1 -0.4 -1.15 -0.35 -1.15 -0.3 Q-1.15 -0.25 -1.2 -0.3 L-1.25 -0.2 -1.25 -0.05 -1.3 0.05 -1.4 0.2 -1.55 0.45 -1.55 0.5 -1.6 0.55 -2.2 0.35 M-0.85 -1.5 L-0.85 -1.5" fill="#030a17" fill-rule="evenodd" stroke="none"/>
    <path d="M-0.95 -1.65 L-0.9 -1.65 -0.9 -1.6 -0.95 -1.65" fill="#8d7a7a" fill-rule="evenodd" stroke="none"/>
    <path d="M-0.85 -1.65 L-0.9 -1.6 -0.95 -1.55 -0.95 -1.55 -1.0 -1.6 -1.0 -1.65 -0.95 -1.65 -0.9 -1.6 -0.9 -1.65 -0.85 -1.65" fill="#59282c" fill-rule="evenodd" stroke="none"/>
    <path d="M-0.85 -1.5 L-0.85 -1.6 -0.8 -1.6 -0.75 -1.55 -0.8 -1.55 -0.8 -1.5 -0.85 -1.5 -0.85 -1.5" fill="#52292e" fill-rule="evenodd" stroke="none"/>
    <path d="M-0.15 -1.8 L-0.2 -1.75 -0.3 -1.75 Q-0.35 -1.7 -0.4 -1.75 L-0.15 -1.8" fill="#58544c" fill-rule="evenodd" stroke="none"/>
    <path d="M-1.15 -0.3 L-1.15 -0.35 -1.1 -0.4 -1.1 -0.35 Q-1.05 -0.35 -1.05 -0.4 L-1.05 -0.4 -1.0 -0.4 -1.0 -0.15 -1.1 -0.2 -1.15 -0.3" fill="#371b22" fill-rule="evenodd" stroke="none"/>
    <path d="M-0.2 -1.15 L-0.15 -1.15 -0.15 -1.1 -0.3 -1.0 -0.25 -0.95 -0.2 -0.95 -0.2 -0.8 -0.15 -0.75 -0.15 -0.75 -0.1 -0.7 -0.05 -0.7 -0.05 -0.65 -0.1 -0.6 Q-0.15 -0.55 -0.1 -0.55 L-0.15 -0.4 -0.2 -0.25 -0.15 -0.15 -0.1 -0.1 -0.45 -0.2 -0.85 -0.35 -0.9 -0.45 Q-0.95 -0.45 -0.95 -0.4 L-1.0 -0.4 -1.05 -0.4 -0.75 -0.5 -0.55 -0.55 -0.4 -0.6 -0.3 -0.5 -0.25 -0.55 -0.55 -0.75 -0.5 -0.85 -0.45 -0.95 -0.2 -1.15" fill="#18151a" fill-rule="evenodd" stroke="none"/>
    <path d="M-1.2 -0.05 L-1.25 -0.05 -1.25 -0.2 -1.2 -0.3 Q-1.15 -0.25 -1.15 -0.3 L-1.1 -0.2 -1.0 -0.15 -1.0 -0.4 -0.95 -0.4 Q-0.95 -0.45 -0.9 -0.45 L-0.85 -0.35 -0.45 -0.2 -0.1 -0.1 -0.2 -0.1 -0.3 -0.15 -0.25 0.3 -0.25 0.7 -0.25 0.65 -0.3 0.6 -0.35 0.5 -0.35 0.5 -0.35 0.45 -0.4 0.45 -0.4 0.4 -0.35 0.4 -0.35 0.45 -0.3 0.45 -0.35 0.35 -0.4 0.35 Q-0.5 0.35 -0.45 0.45 L-0.45 0.55 -0.4 0.55 -0.35 0.55 -0.35 0.6 -0.4 0.6 -0.5 0.55 -0.55 0.45 -0.55 0.3 -0.6 0.35 -0.6 0.45 -0.55 0.5 -0.6 0.55 -0.55 0.6 -0.55 0.65 -0.6 0.7 -0.6 0.7 -0.55 0.8 Q-0.5 0.85 -0.55 0.9 -0.55 0.95 -0.6 0.95 L-0.75 1.0 -0.8 1.0 -0.9 0.95 -0.9 0.95 -0.95 0.9 -0.95 0.8 Q-0.9 0.7 -0.95 0.7 L-0.95 0.65 Q-0.9 0.6 -0.95 0.6 L-1.0 0.7 -1.05 0.65 -1.1 0.65 -1.1 0.6 -1.05 0.35 -1.1 0.05 -1.1 0.05 -1.05 0.0 -0.95 0.05 -0.95 0.1 -0.9 0.0 -0.9 -0.1 Q-0.85 -0.15 -0.85 -0.2 L-0.9 -0.3 -0.9 -0.3 -0.95 -0.35 -0.95 -0.25 -0.9 -0.2 -0.9 -0.15 -0.95 -0.05 -1.15 -0.15 -1.2 -0.1 -1.2 -0.05 M-0.1 -0.1 L-0.1 -0.1" fill="#1e1a21" fill-rule="evenodd" stroke="none"/>
    <path d="M-1.05 0.0 L-1.1 -0.05 -1.2 -0.05 -1.2 -0.1 -1.15 -0.15 -0.95 -0.05 -0.95 0.05 -1.05 0.0 -1.05 0.0" fill="#50462c" fill-rule="evenodd" stroke="none"/>
    <path d="M-0.25 1.0 L-0.25 0.9 Q-0.2 0.85 -0.25 0.8 L-0.25 0.85 -0.3 0.9 -0.4 0.9 -0.45 1.0 -0.45 1.05 -0.4 1.1 -0.4 1.15 -0.45 1.15 -0.55 1.2 -0.65 1.3 -0.75 1.3 -0.85 1.35 -0.9 1.35 -0.9 1.4 -1.0 1.4 -1.0 1.05 -0.95 0.75 -1.0 0.85 -1.05 0.95 -1.15 1.0 -1.25 1.0 -1.45 1.05 -1.65 1.05 -1.65 0.95 -1.55 1.0 -1.4 1.0 -1.35 0.95 -1.3 0.9 -1.15 0.85 -1.05 0.8 -1.2 0.8 -1.35 0.85 -1.4 0.85 -1.4 0.8 -1.45 0.8 -1.45 0.65 -1.35 0.5 -1.25 0.4 -1.2 0.3 -1.2 0.2 Q-1.15 0.2 -1.15 0.15 L-1.15 0.05 -1.05 0.0 -1.1 0.05 -1.1 0.05 -1.05 0.35 -1.1 0.6 -1.1 0.65 -1.05 0.65 -1.0 0.7 -0.95 0.6 Q-0.9 0.6 -0.95 0.65 L-0.95 0.7 Q-0.9 0.7 -0.95 0.8 L-0.95 0.9 -0.9 0.95 -0.9 0.95 -0.8 1.0 -0.75 1.0 -0.6 0.95 Q-0.55 0.95 -0.55 0.9 -0.5 0.85 -0.55 0.8 L-0.6 0.7 -0.6 0.7 -0.55 0.65 -0.55 0.6 -0.6 0.55 -0.55 0.5 -0.6 0.45 -0.6 0.35 -0.55 0.3 -0.55 0.45 -0.5 0.55 -0.4 0.6 -0.35 0.6 -0.35 0.55 -0.4 0.55 -0.45 0.55 -0.45 0.45 Q-0.5 0.35 -0.4 0.35 L-0.35 0.35 -0.3 0.45 -0.35 0.45 -0.35 0.4 -0.4 0.4 -0.4 0.45 -0.35 0.45 -0.35 0.5 -0.35 0.5 -0.3 0.6 -0.25 0.65 -0.25 0.7 -0.2 0.8 Q-0.15 0.85 -0.2 0.9 L-0.25 1.0 M-1.05 0.0 L-1.05 0.0" fill="#19171f" fill-rule="evenodd" stroke="none"/>
    <path d="M-0.4 -0.6 L-0.5 -0.65 -0.6 -0.75 -0.6 -0.75 -0.55 -0.8 -0.55 -0.9 -0.5 -0.9 -0.45 -0.95 -0.5 -0.85 -0.55 -0.75 -0.25 -0.55 -0.3 -0.5 -0.4 -0.6" fill="#261f25" fill-rule="evenodd" stroke="none"/>
    <path d="M-0.95 -0.05 L-0.9 -0.15 -0.9 -0.2 -0.95 -0.25 -0.95 -0.35 -0.9 -0.3 -0.9 -0.3 -0.85 -0.2 Q-0.85 -0.15 -0.9 -0.1 L-0.9 0.0 -0.95 0.1 -0.95 0.05 -0.95 -0.05" fill="#2c262e" fill-rule="evenodd" stroke="none"/>
    <path d="M0.0 -0.5 L-0.05 -0.45 -0.05 -0.4 -0.05 -0.35 -0.05 -0.25 -0.05 -0.2 -0.05 -0.15 0.0 -0.1 0.0 -0.05 -0.1 -0.1 -0.15 -0.15 -0.2 -0.25 -0.15 -0.4 -0.1 -0.55 -0.05 -0.55 Q0.0 -0.55 0.0 -0.5 M-0.1 -0.1 L-0.1 -0.1" fill="#251014" fill-rule="evenodd" stroke="none"/>
    <path d="M-0.05 -0.4 L-0.05 -0.35 -0.05 -0.4" fill="#585e65" fill-rule="evenodd" stroke="none"/>
    <path d="M-0.2 0.65 L-0.25 0.55 -0.2 0.45 -0.2 0.35 -0.15 0.35 -0.2 0.25 -0.2 0.2 -0.15 0.1 -0.15 0.0 -0.1 0.0 -0.15 0.1 -0.15 0.3 Q-0.15 0.35 -0.15 0.4 L-0.2 0.55 -0.2 0.65 -0.2 0.65" fill="#49494b" fill-rule="evenodd" stroke="none"/>
    <path d="M-1.4 2.15 L-2.2 2.15 -2.2 1.6 -2.05 1.6 -1.95 1.6 -1.95 1.45 -1.9 1.35 -1.9 1.3 -2.0 1.25 -2.1 1.25 -2.15 1.2 Q-2.15 1.2 -2.1 1.2 L-2.0 1.2 -1.95 1.2 -1.5 1.3 -1.25 1.25 -1.15 1.15 -1.05 1.05 -1.05 0.95 -1.0 0.9 -1.0 1.15 -1.15 1.4 -1.2 1.65 -1.3 1.9 -1.4 2.15" fill="#040a17" fill-rule="evenodd" stroke="none"/>
    <path d="M-0.25 1.05 L-0.25 1.0 -0.2 0.9 -0.15 0.9 -0.15 0.85 -0.2 0.75 -0.2 0.65 -0.2 0.65 -0.15 0.75 -0.15 0.8 Q-0.1 0.9 -0.2 0.95 L-0.2 1.1 -0.25 1.05" fill="#33353b" fill-rule="evenodd" stroke="none"/>
    <path d="M-0.15 0.65 L-0.1 0.6 -0.05 0.8 Q-0.05 0.9 -0.1 1.0 L-0.15 1.1 -0.15 1.15 -0.2 1.1 -0.15 1.0 -0.1 0.9 -0.1 0.75 -0.15 0.65" fill="#313339" fill-rule="evenodd" stroke="none"/>
  </g>
</svg>
