<?xml version="1.0" encoding="UTF-8" standalone="no"?>
<svg xmlns:xlink="http://www.w3.org/1999/xlink" height="14.45px" width="2.1px" xmlns="http://www.w3.org/2000/svg">
  <g transform="matrix(1.0, 0.0, 0.0, 1.0, 1.1, 6.1)">
    <path d="M-0.1 -6.05 L-0.05 -6.1 0.1 -6.0 0.15 -5.95 0.2 -5.85 0.25 -5.75 0.35 -5.65 0.45 -5.6 0.5 -5.5 0.45 -5.45 0.4 -5.35 0.35 -5.35 0.3 -5.35 0.3 -5.25 0.25 -5.0 0.25 -4.7 0.25 -4.15 0.3 -3.9 0.3 -3.6 0.25 -3.65 0.2 -3.65 0.1 -3.65 -0.05 -3.65 -0.2 -3.65 -0.3 -3.65 -0.35 -3.65 -0.4 -3.6 -0.4 -3.7 -0.4 -4.15 -0.35 -4.55 -0.35 -5.0 -0.4 -5.25 -0.4 -5.35 -0.45 -5.35 -0.4 -5.35 -0.4 -5.35 -0.35 -5.35 -0.35 -5.4 -0.4 -5.4 Q-0.4 -5.45 -0.3 -5.45 -0.25 -5.45 -0.25 -5.55 L-0.25 -5.55 -0.3 -5.6 -0.25 -5.6 -0.2 -5.65 -0.1 -5.7 -0.05 -5.7 0.0 -5.7 Q0.1 -5.75 0.1 -5.8 L0.05 -5.85 0.05 -5.85 0.0 -5.9 -0.05 -5.95 0.0 -5.95 0.0 -6.0 -0.05 -6.05 -0.1 -6.05 -0.1 -6.05 -0.1 -6.05 -0.1 -6.05 M0.05 -5.35 L0.1 -5.35 0.1 -5.35 0.05 -5.35 0.05 -5.4 0.0 -5.4 0.0 -5.45 0.0 -5.55 -0.05 -5.65 -0.05 -5.65 -0.1 -5.6 -0.15 -5.6 -0.2 -5.55 Q-0.2 -5.5 -0.1 -5.5 L-0.1 -5.5 -0.15 -5.45 -0.2 -5.4 -0.2 -5.4 -0.15 -5.4 -0.1 -5.4 -0.05 -5.4 -0.05 -5.4 0.0 -5.35 0.0 -5.35 0.05 -5.35" fill="#34343e" fill-rule="evenodd" stroke="none"/>
    <path d="M-0.1 -6.05 L-0.1 -6.05 -0.05 -6.05 0.0 -6.0 0.0 -5.95 -0.05 -5.95 0.0 -5.9 0.05 -5.85 0.05 -5.85 0.1 -5.8 Q0.1 -5.75 0.0 -5.7 L-0.05 -5.7 -0.1 -5.7 -0.2 -5.65 -0.25 -5.6 -0.3 -5.6 -0.25 -5.55 -0.25 -5.55 Q-0.25 -5.45 -0.3 -5.45 -0.4 -5.45 -0.4 -5.4 L-0.35 -5.4 -0.35 -5.35 -0.4 -5.35 -0.4 -5.35 -0.45 -5.35 -0.5 -5.35 -0.55 -5.45 -0.6 -5.5 -0.55 -5.6 -0.45 -5.65 -0.35 -5.75 -0.3 -5.85 -0.25 -5.95 -0.2 -6.0 -0.1 -6.05 -0.1 -6.05 -0.1 -6.05" fill="#545361" fill-rule="evenodd" stroke="none"/>
    <path d="M0.05 -5.35 L0.0 -5.35 0.0 -5.35 -0.05 -5.4 -0.05 -5.4 -0.1 -5.4 -0.15 -5.4 -0.2 -5.4 -0.2 -5.4 -0.15 -5.45 -0.1 -5.5 -0.1 -5.5 Q-0.2 -5.5 -0.2 -5.55 L-0.15 -5.6 -0.1 -5.6 -0.05 -5.65 -0.05 -5.65 0.0 -5.55 0.0 -5.45 0.0 -5.4 0.05 -5.4 0.05 -5.35 0.1 -5.35 0.1 -5.35 0.05 -5.35" fill="#878696" fill-rule="evenodd" stroke="none"/>
    <path d="M0.5 -3.6 L0.55 -3.6 0.55 -3.6 0.55 -3.5 0.55 -3.45 0.6 -3.45 0.65 -3.4 0.65 -3.4 0.7 -3.4 0.75 -3.45 0.8 -3.5 0.95 -3.45 1.0 -3.35 0.95 -3.3 0.95 -3.25 0.9 -3.25 0.8 -3.3 0.75 -3.3 0.7 -3.35 0.6 -3.4 0.5 -3.4 0.45 -3.4 0.45 -3.45 0.5 -3.55 0.5 -3.6 M-0.5 -3.4 L-0.6 -3.4 -0.7 -3.4 -0.8 -3.35 -0.85 -3.3 -0.9 -3.3 Q-0.9 -3.3 -1.0 -3.25 L-1.05 -3.25 -1.05 -3.3 -1.1 -3.35 -1.05 -3.45 -1.0 -3.45 -1.0 -3.4 -0.95 -3.4 -0.9 -3.45 -0.85 -3.45 -0.8 -3.45 -0.75 -3.5 -0.7 -3.5 -0.65 -3.5 -0.6 -3.45 -0.6 -3.45 -0.55 -3.45 -0.5 -3.4 -0.5 -3.4" fill="#766f81" fill-rule="evenodd" stroke="none"/>
    <path d="M-0.4 -3.6 L-0.35 -3.65 -0.3 -3.65 -0.2 -3.65 -0.05 -3.65 0.1 -3.65 0.2 -3.65 0.25 -3.65 0.3 -3.6 0.4 -3.6 0.5 -3.6 0.5 -3.55 0.45 -3.45 0.45 -3.4 0.35 -3.4 0.3 -3.4 0.25 -3.4 0.2 -3.4 0.2 -3.45 0.1 -3.45 0.05 -3.45 0.05 -3.45 0.0 -3.45 -0.05 -3.45 -0.1 -3.45 -0.15 -3.45 -0.2 -3.45 -0.3 -3.45 -0.3 -3.4 -0.35 -3.4 -0.4 -3.4 -0.45 -3.4 -0.5 -3.4 -0.5 -3.4 -0.55 -3.45 -0.6 -3.45 -0.6 -3.45 -0.65 -3.5 -0.7 -3.5 -0.75 -3.5 -0.8 -3.45 -0.85 -3.45 -0.9 -3.45 -0.95 -3.4 -1.0 -3.4 -1.0 -3.45 -1.05 -3.45 -0.8 -3.55 -0.65 -3.6 -0.5 -3.6 -0.4 -3.6 M0.55 -3.6 L0.8 -3.5 0.75 -3.45 0.7 -3.4 0.65 -3.4 0.65 -3.4 0.6 -3.45 0.55 -3.45 0.55 -3.5 0.55 -3.6" fill="#8f8d9a" fill-rule="evenodd" stroke="none"/>
    <path d="M0.3 -2.95 L0.3 -2.05 0.3 -2.1 0.25 -2.15 0.25 -2.2 0.2 -2.3 0.2 -2.4 0.15 -2.5 0.1 -2.5 0.1 -2.4 0.1 -1.95 0.1 -1.85 0.05 -1.65 0.05 -1.65 0.05 -1.65 0.05 -1.85 0.05 -2.3 0.05 -2.45 0.05 -2.75 0.05 -3.1 0.05 -3.2 0.05 -3.45 0.05 -3.45 0.05 -3.45 0.1 -3.45 0.2 -3.45 0.2 -3.4 0.2 -3.1 0.25 -3.05 0.3 -2.95 M0.05 -1.65 L0.05 -1.65 M0.1 -2.5 L0.1 -2.5" fill="#908ca5" fill-rule="evenodd" stroke="none"/>
    <path d="M0.05 -3.45 L0.05 -3.2 0.05 -3.1 0.05 -2.75 0.05 -2.45 0.05 -2.3 0.05 -1.85 0.05 -1.65 0.05 -1.65 0.05 -1.45 0.0 -1.25 0.05 -1.1 0.0 -0.85 0.0 -0.5 0.0 -0.1 0.0 0.4 0.05 0.7 0.05 1.0 0.0 1.25 0.0 1.4 0.05 1.5 0.05 1.6 0.0 1.9 0.0 2.2 0.0 2.6 0.0 2.7 0.0 3.35 0.0 3.4 0.0 4.05 0.0 4.2 0.0 4.8 0.0 4.8 0.0 4.85 0.0 5.05 0.0 5.4 0.0 5.7 0.0 6.1 0.0 7.2 -0.05 7.25 -0.05 4.5 -0.05 0.5 -0.05 -1.4 -0.05 -1.5 -0.05 -1.65 0.0 -1.85 0.0 -2.45 0.0 -3.0 0.0 -3.45 0.05 -3.45 M0.0 3.35 L0.0 3.35" fill="#eaebe6" fill-rule="evenodd" stroke="none"/>
    <path d="M0.3 -3.4 L0.3 -2.95 0.25 -3.05 0.2 -3.1 0.2 -3.4 0.25 -3.4 0.3 -3.4" fill="#7b7694" fill-rule="evenodd" stroke="none"/>
    <path d="M0.3 -2.05 L0.3 -0.6 0.25 -0.8 0.25 -1.15 0.2 -1.2 0.2 -1.35 0.2 -1.4 0.15 -1.45 0.15 -1.45 0.15 -1.5 0.15 -1.55 0.15 -1.6 0.1 -1.75 0.1 -1.95 0.1 -2.4 0.1 -2.5 0.15 -2.5 0.2 -2.4 0.2 -2.3 0.25 -2.2 0.25 -2.15 0.3 -2.1 0.3 -2.05 M0.1 -2.5 L0.1 -2.5 M-0.1 -3.45 L-0.1 -3.3 -0.2 -3.3 -0.2 -3.0 -0.25 -2.95 -0.25 -2.7 -0.3 -2.45 -0.3 -2.35 -0.3 -2.5 -0.3 -2.55 -0.3 -3.4 -0.3 -3.45 -0.2 -3.45 -0.15 -3.45 -0.1 -3.45" fill="#b3afbd" fill-rule="evenodd" stroke="none"/>
    <path d="M0.3 -0.6 L0.3 -0.05 0.2 -0.2 0.2 -0.3 0.2 -0.5 0.2 -0.6 0.15 -0.65 0.15 -0.85 0.1 -1.2 0.1 -1.35 0.1 -1.35 0.1 -1.6 0.05 -1.65 0.05 -1.65 0.1 -1.85 0.1 -1.95 0.1 -1.75 0.15 -1.6 0.15 -1.55 0.15 -1.5 0.15 -1.45 0.15 -1.45 0.2 -1.4 0.2 -1.35 0.2 -1.2 0.25 -1.15 0.25 -0.8 0.3 -0.6" fill="#d1dad7" fill-rule="evenodd" stroke="none"/>
    <path d="M0.0 -3.45 L0.0 -3.0 0.0 -2.45 0.0 -1.85 -0.05 -1.65 -0.05 -1.5 -0.05 -1.4 -0.05 -1.3 -0.1 -1.7 -0.1 -2.25 -0.1 -2.4 -0.1 -2.5 -0.05 -2.55 -0.05 -2.7 -0.1 -2.85 -0.1 -2.95 -0.1 -3.3 -0.1 -3.45 -0.05 -3.45 0.0 -3.45" fill="#666271" fill-rule="evenodd" stroke="none"/>
    <path d="M0.05 -1.65 L0.05 -1.65 0.1 -1.6 0.1 -1.35 0.05 -0.65 0.05 -0.5 0.1 -0.45 0.1 -0.1 0.1 0.3 0.05 0.45 0.05 0.8 0.05 1.3 0.05 1.5 0.05 1.75 0.05 2.05 0.05 2.6 0.05 2.8 0.05 3.15 0.05 3.4 0.05 3.65 0.05 3.75 0.05 4.15 0.05 4.85 0.05 4.8 0.0 4.8 0.0 4.2 0.0 4.05 0.0 3.4 0.0 3.35 0.0 2.7 0.0 2.6 0.0 2.2 0.0 1.9 0.05 1.6 0.05 1.5 0.0 1.4 0.0 1.25 0.05 1.0 0.05 0.7 0.0 0.4 0.0 -0.1 0.0 -0.5 0.0 -0.85 0.05 -1.1 0.0 -1.25 0.05 -1.45 0.05 -1.65 M0.0 3.35 L0.0 3.35" fill="#b4b1ba" fill-rule="evenodd" stroke="none"/>
    <path d="M0.3 -0.05 L0.2 6.85 Q0.25 7.55 0.15 8.0 L0.05 8.2 0.0 8.0 -0.05 7.8 -0.05 8.0 -0.25 7.85 -0.3 7.8 Q-0.35 7.4 -0.3 6.85 L-0.3 6.95 -0.3 7.05 -0.25 7.05 -0.25 7.15 -0.2 7.2 -0.15 7.25 -0.1 7.3 -0.1 7.05 -0.1 6.85 -0.1 6.8 -0.1 6.15 -0.1 5.6 -0.1 5.1 -0.1 4.85 -0.1 4.85 -0.05 4.8 -0.05 4.5 -0.05 7.25 0.0 7.2 0.0 7.15 0.05 6.95 0.05 6.8 0.05 6.05 0.05 5.7 0.05 5.05 0.05 4.85 0.05 4.15 0.05 3.75 0.05 3.65 0.05 3.4 0.05 3.15 0.05 2.8 0.05 2.6 0.05 2.05 0.05 1.75 0.05 1.5 0.05 1.3 0.05 0.8 0.05 0.45 0.1 0.3 0.1 -0.1 0.1 -0.45 0.05 -0.5 0.05 -0.65 0.1 -1.35 0.1 -1.35 0.1 -1.2 0.15 -0.85 0.15 -0.65 0.2 -0.6 0.2 -0.5 0.2 -0.3 0.2 -0.2 0.3 -0.05 M0.0 7.2 L0.0 7.4 0.0 7.7 0.05 7.65 0.05 7.55 0.0 7.5 0.0 7.4 0.0 7.2" fill="#988fa0" fill-rule="evenodd" stroke="none"/>
    <path d="M-0.35 4.85 L-0.4 -3.4 -0.35 -3.4 -0.3 -3.4 -0.3 -2.55 -0.3 -2.5 -0.3 -1.3 -0.3 -1.2 -0.35 -1.1 -0.3 -0.5 -0.3 -0.25 -0.3 -0.1 -0.25 -0.6 -0.25 -1.15 -0.2 -1.55 -0.2 -1.75 -0.15 -2.15 -0.1 -2.4 -0.1 -2.25 -0.1 -1.7 -0.05 -1.3 -0.1 -1.3 -0.1 -1.0 -0.1 -0.75 -0.1 -0.6 -0.1 -0.4 -0.15 -0.05 -0.1 0.35 -0.1 0.75 -0.1 0.9 -0.1 1.35 -0.05 1.7 -0.1 2.15 -0.1 2.45 -0.15 2.5 -0.1 2.55 -0.1 2.6 -0.1 3.3 -0.1 3.7 -0.1 4.2 -0.1 4.45 -0.05 4.7 -0.05 4.8 -0.1 4.85 -0.1 4.85 -0.1 4.8 -0.15 4.75 -0.15 4.7 -0.2 4.6 -0.2 4.2 -0.25 3.9 -0.25 3.65 -0.2 3.45 -0.2 3.4 -0.2 3.0 -0.2 2.65 -0.25 2.55 -0.2 2.4 -0.2 2.35 -0.2 1.65 -0.25 1.35 -0.25 1.2 -0.25 0.8 -0.3 0.55 -0.3 0.35 -0.3 0.25 -0.3 1.9 -0.3 1.95 -0.3 2.1 -0.3 2.85 -0.3 3.35 -0.3 4.1 -0.3 4.45 -0.3 4.75 -0.3 4.95 -0.35 4.85 M-0.1 2.6 L-0.1 2.6" fill="#ffffff" fill-rule="evenodd" stroke="none"/>
    <path d="M-0.1 -3.3 L-0.1 -2.95 -0.1 -2.85 -0.05 -2.7 -0.05 -2.55 -0.1 -2.5 -0.1 -2.4 -0.15 -2.15 -0.2 -1.75 -0.2 -1.55 -0.25 -1.15 -0.25 -0.6 -0.3 -0.1 -0.3 -0.25 -0.3 -0.5 -0.35 -1.1 -0.3 -1.2 -0.3 -1.3 -0.3 -2.5 -0.3 -2.35 -0.3 -2.45 -0.25 -2.7 -0.25 -2.95 -0.2 -3.0 -0.2 -3.3 -0.1 -3.3" fill="#d3d7d8" fill-rule="evenodd" stroke="none"/>
    <path d="M-0.05 -1.3 L-0.05 -1.4 -0.05 0.5 -0.05 0.6 -0.1 0.75 -0.1 0.35 -0.15 -0.05 -0.1 -0.4 -0.1 -0.6 -0.1 -0.75 -0.1 -1.0 -0.1 -1.3 -0.05 -1.3" fill="#887b8c" fill-rule="evenodd" stroke="none"/>
    <path d="M-0.3 4.95 L-0.3 4.75 -0.3 4.45 -0.3 4.1 -0.3 3.35 -0.3 2.85 -0.3 2.1 -0.3 1.95 -0.3 1.9 -0.3 0.25 -0.3 0.35 -0.3 0.55 -0.25 0.8 -0.25 1.2 -0.25 1.35 -0.2 1.65 -0.2 2.35 -0.2 2.4 -0.25 2.55 -0.2 2.65 -0.2 3.0 -0.2 3.4 -0.2 3.45 -0.25 3.65 -0.25 3.9 -0.2 4.2 -0.2 4.6 -0.15 4.7 -0.15 4.75 -0.1 4.8 -0.1 4.85 -0.1 5.1 -0.1 5.6 -0.1 6.15 -0.1 6.8 -0.15 6.75 -0.15 6.65 -0.15 6.55 -0.15 6.4 -0.2 6.3 -0.2 5.9 -0.2 5.55 Q-0.2 5.4 -0.25 5.15 L-0.3 4.95" fill="#d5d9d8" fill-rule="evenodd" stroke="none"/>
    <path d="M-0.05 0.5 L-0.05 4.5 -0.05 4.8 -0.05 4.7 -0.1 4.45 -0.1 4.2 -0.1 3.7 -0.1 3.3 -0.1 2.6 -0.1 2.55 -0.15 2.5 -0.1 2.45 -0.1 2.15 -0.05 1.7 -0.1 1.35 -0.1 0.9 -0.1 0.75 -0.05 0.6 -0.05 0.5 M-0.1 2.6 L-0.1 2.6" fill="#a79fac" fill-rule="evenodd" stroke="none"/>
    <path d="M-0.3 6.85 L-0.35 4.85 -0.3 4.95 -0.25 5.15 Q-0.2 5.4 -0.2 5.55 L-0.2 5.9 -0.2 6.3 -0.15 6.4 -0.15 6.55 -0.15 6.65 -0.15 6.75 -0.1 6.8 -0.1 6.85 -0.1 7.05 -0.1 7.3 -0.15 7.25 -0.2 7.2 -0.25 7.15 -0.25 7.05 -0.3 7.05 -0.3 6.95 -0.3 6.85" fill="#b7b4bd" fill-rule="evenodd" stroke="none"/>
    <path d="M0.0 7.2 L0.0 6.1 0.0 5.7 0.0 5.4 0.0 5.05 0.0 4.85 0.0 4.8 0.0 4.8 0.05 4.8 0.05 4.85 0.05 5.05 0.05 5.7 0.05 6.05 0.05 6.8 0.05 6.95 0.0 7.15 0.0 7.2 0.0 7.2" fill="#a39da1" fill-rule="evenodd" stroke="none"/>
    <path d="M0.0 7.2 L0.0 7.4 0.0 7.5 0.05 7.55 0.05 7.65 0.0 7.7 0.0 7.4 0.0 7.2 0.0 7.2" fill="#887d85" fill-rule="evenodd" stroke="none"/>
    <path d="M-0.05 8.35 L-0.05 8.35 Q-0.2 8.15 -0.3 7.8 L-0.25 7.85 -0.05 8.0 -0.05 8.35" fill="#776e81" fill-rule="evenodd" stroke="none"/>
    <path d="M0.05 8.2 L-0.05 8.35 -0.05 8.35 -0.05 8.0 -0.05 7.8 0.0 8.0 0.05 8.2" fill="#b8bbc0" fill-rule="evenodd" stroke="none"/>
    <path d="M0.3 -3.6 L0.3 -3.9 0.25 -4.15 0.25 -4.7 0.25 -5.0 0.3 -5.25 0.3 -5.35 0.35 -5.35 0.4 -5.35 0.45 -5.45 0.5 -5.5 0.45 -5.6 0.35 -5.65 0.25 -5.75 0.2 -5.85 0.15 -5.95 0.1 -6.0 -0.05 -6.1 -0.1 -6.05 -0.1 -6.05 -0.1 -6.05 -0.2 -6.0 -0.25 -5.95 -0.3 -5.85 -0.35 -5.75 -0.45 -5.65 -0.55 -5.6 -0.6 -5.5 -0.55 -5.45 -0.5 -5.35 -0.45 -5.35 -0.4 -5.35 -0.4 -5.25 -0.35 -5.0 -0.35 -4.55 -0.4 -4.15 -0.4 -3.7 -0.4 -3.6 -0.5 -3.6 -0.65 -3.6 -0.8 -3.55 -1.05 -3.45 -1.1 -3.35 -1.05 -3.3 -1.05 -3.25 -1.0 -3.25 Q-0.9 -3.3 -0.9 -3.3 L-0.85 -3.3 -0.8 -3.35 -0.7 -3.4 -0.6 -3.4 -0.5 -3.4 -0.45 -3.4 -0.4 -3.4 -0.35 4.85 -0.3 6.85 Q-0.35 7.4 -0.3 7.8 -0.2 8.15 -0.05 8.35 L-0.05 8.35 -0.05 8.35 0.05 8.2 0.15 8.0 Q0.25 7.55 0.2 6.85 L0.3 -0.05 0.3 -0.6 0.3 -2.05 0.3 -2.95 0.3 -3.4 0.35 -3.4 0.45 -3.4 0.5 -3.4 0.6 -3.4 0.7 -3.35 0.75 -3.3 0.8 -3.3 0.9 -3.25 0.95 -3.25 0.95 -3.3 1.0 -3.35 0.95 -3.45 0.8 -3.5 0.55 -3.6 0.55 -3.6 0.5 -3.6 0.4 -3.6 0.3 -3.6 Z" fill="none" stroke="#000000" stroke-linecap="round" stroke-linejoin="round" stroke-opacity="0.4509804" stroke-width="1.0"/>
  </g>
</svg>
