<?xml version="1.0" encoding="UTF-8" standalone="no"?>
<svg xmlns:xlink="http://www.w3.org/1999/xlink" height="2.6px" width="4.3px" xmlns="http://www.w3.org/2000/svg">
  <g transform="matrix(1.0, 0.0, 0.0, 1.0, 2.05, 1.8)">
    <path d="M-0.35 -1.7 L-0.25 -1.55 0.0 -1.25 0.15 -1.1 0.15 -1.1 0.2 -1.1 0.45 -0.85 0.5 -0.85 0.5 -0.85 0.55 -0.85 0.65 -0.75 0.7 -0.7 0.8 -0.65 0.75 -0.55 0.75 -0.55 0.65 -0.5 0.65 -0.5 Q0.55 -0.5 0.5 -0.45 L0.4 -0.35 0.4 -0.35 0.3 -0.35 0.2 -0.25 Q0.15 -0.35 0.05 -0.3 L0.05 -0.35 Q0.15 -0.45 0.15 -0.45 L0.15 -0.5 Q0.15 -0.55 0.1 -0.55 L0.1 -0.55 Q0.05 -0.6 0.05 -0.65 L-0.1 -0.7 -0.25 -0.65 Q-0.3 -0.6 -0.3 -0.6 L-0.4 -0.65 -0.55 -0.6 -0.65 -0.55 -0.7 -0.6 -0.75 -0.6 Q-0.8 -0.65 -0.8 -0.65 L-0.65 -0.75 -0.5 -0.85 -0.45 -0.85 Q-0.4 -0.85 -0.35 -0.9 L-0.3 -1.0 -0.2 -1.05 -0.2 -1.05 -0.25 -1.1 -0.25 -1.15 Q-0.3 -1.1 -0.35 -1.1 -0.4 -1.05 -0.4 -1.05 L-0.45 -1.05 -0.5 -1.1 -0.65 -1.0 Q-0.7 -0.85 -0.8 -0.85 -0.9 -0.85 -0.95 -1.0 -0.95 -1.05 -1.05 -1.0 L-1.1 -1.1 -1.15 -1.15 -1.05 -1.2 -1.0 -1.2 -0.85 -1.15 -0.85 -1.15 -0.75 -1.05 -0.75 -1.0 -0.7 -1.0 -0.75 -1.05 -0.75 -1.15 -0.75 -1.2 -0.8 -1.4 -0.8 -1.45 -0.8 -1.55 Q-0.8 -1.55 -0.75 -1.6 L-0.75 -1.6 -0.6 -1.65 -0.6 -1.7 -0.55 -1.7 -0.5 -1.7 -0.4 -1.7 -0.35 -1.7 M1.0 -0.5 L1.05 -0.5 1.2 -0.4 1.4 -0.35 1.5 -0.25 1.55 -0.25 1.7 -0.2 1.8 -0.2 1.9 -0.15 2.0 0.0 1.95 0.05 1.9 0.1 1.9 0.15 1.85 0.15 1.7 0.2 1.65 0.2 1.6 0.2 1.45 0.15 1.4 0.1 1.4 0.05 1.3 0.05 Q1.1 0.05 1.05 0.15 L0.95 0.2 0.8 0.1 Q0.8 0.05 0.9 0.0 L1.0 -0.1 1.0 -0.15 0.95 -0.15 0.95 -0.2 0.85 -0.15 0.8 -0.15 0.75 -0.2 0.7 -0.2 0.65 -0.3 0.75 -0.35 0.8 -0.3 Q0.8 -0.3 0.85 -0.3 L0.95 -0.3 0.95 -0.35 0.95 -0.4 1.0 -0.5 1.0 -0.5 M1.45 0.05 L1.4 0.05 1.45 0.05 1.5 0.05 1.55 0.0 Q1.5 0.05 1.45 0.05" fill="#2a2522" fill-rule="evenodd" stroke="none"/>
    <path d="M-1.0 -1.2 L-1.05 -1.2 -1.15 -1.15 -1.1 -1.1 -1.05 -1.0 Q-0.95 -1.05 -0.95 -1.0 -0.9 -0.85 -0.8 -0.85 -0.7 -0.85 -0.65 -1.0 L-0.5 -1.1 -0.45 -1.05 -0.4 -1.05 Q-0.4 -1.05 -0.35 -1.1 -0.3 -1.1 -0.25 -1.15 L-0.25 -1.1 -0.2 -1.05 -0.2 -1.05 -0.3 -1.0 -0.35 -0.9 Q-0.4 -0.85 -0.45 -0.85 L-0.5 -0.85 -0.65 -0.75 -0.8 -0.65 Q-0.8 -0.65 -0.75 -0.6 L-0.7 -0.6 -0.65 -0.55 -0.55 -0.6 -0.4 -0.65 -0.3 -0.6 Q-0.3 -0.6 -0.25 -0.65 L-0.1 -0.7 0.05 -0.65 Q0.05 -0.6 0.1 -0.55 L0.1 -0.55 Q0.15 -0.55 0.15 -0.5 L0.15 -0.45 Q0.15 -0.45 0.05 -0.35 L0.05 -0.3 Q0.15 -0.35 0.2 -0.25 L0.3 -0.35 0.4 -0.35 0.4 -0.35 0.5 -0.45 Q0.55 -0.5 0.65 -0.5 L0.65 -0.5 0.75 -0.55 0.75 -0.55 0.8 -0.65 0.85 -0.6 1.0 -0.5 1.0 -0.5 0.95 -0.4 0.95 -0.35 0.95 -0.3 0.85 -0.3 Q0.8 -0.3 0.8 -0.3 L0.75 -0.35 0.65 -0.3 0.7 -0.2 0.75 -0.2 0.8 -0.15 0.85 -0.15 0.95 -0.2 0.95 -0.15 1.0 -0.15 1.0 -0.1 0.9 0.0 Q0.8 0.05 0.8 0.1 L0.95 0.2 1.05 0.15 Q1.1 0.05 1.3 0.05 L1.4 0.05 1.4 0.1 1.45 0.15 1.6 0.2 1.65 0.2 1.7 0.2 1.85 0.15 1.9 0.15 1.9 0.1 1.95 0.05 2.0 0.0 1.9 -0.15 1.95 -0.15 2.1 0.0 2.15 0.2 2.15 0.25 2.1 0.3 2.0 0.4 1.9 0.4 1.85 0.45 1.65 0.5 1.45 0.5 1.15 0.45 1.1 0.4 0.65 0.4 0.55 0.4 0.5 0.45 0.45 0.45 0.4 0.45 Q0.3 0.4 0.15 0.3 L-0.1 0.2 -0.4 0.0 -0.65 0.0 -1.35 0.0 -1.6 0.0 -1.7 0.0 Q-1.75 0.0 -1.95 -0.1 L-1.95 -0.15 -2.0 -0.3 -2.05 -0.4 -2.05 -0.5 -2.0 -0.6 -2.0 -0.75 -1.95 -0.9 -1.95 -1.15 -1.95 -1.3 -1.85 -1.35 -1.85 -1.35 -1.8 -1.35 -1.7 -1.3 -1.7 -1.3 -1.65 -1.3 -1.6 -1.3 -1.55 -1.3 -1.55 -1.3 -1.5 -1.3 -1.4 -1.3 -1.35 -1.3 -1.35 -1.3 -1.3 -1.3 -1.25 -1.3 -1.25 -1.3 -1.1 -1.25 -1.05 -1.25 -1.0 -1.2" fill="#1c1816" fill-rule="evenodd" stroke="none"/>
    <path d="M2.15 0.25 L2.2 0.3 2.2 0.35 Q2.2 0.5 2.15 0.6 L1.9 0.7 1.55 0.75 1.2 0.75 1.1 0.75 0.95 0.75 0.75 0.75 0.6 0.75 0.3 0.65 0.2 0.65 0.1 0.6 0.05 0.55 0.0 0.55 -0.1 0.45 -0.45 0.3 -0.6 0.25 -0.7 0.25 -0.8 0.3 -0.85 0.4 -0.85 0.4 -0.95 0.4 -1.0 0.4 -1.2 0.4 -1.3 0.35 -1.55 0.3 -1.6 0.3 -1.7 0.3 Q-1.7 0.3 -1.75 0.25 L-1.9 0.2 -1.95 0.1 -1.9 0.05 -1.95 0.05 -1.95 -0.15 -1.95 -0.1 Q-1.75 0.0 -1.7 0.0 L-1.6 0.0 -1.35 0.0 -0.65 0.0 -0.4 0.0 -0.1 0.2 0.15 0.3 Q0.3 0.4 0.4 0.45 L0.45 0.45 0.5 0.45 0.55 0.4 0.65 0.4 1.1 0.4 1.15 0.45 1.45 0.5 1.65 0.5 1.85 0.45 1.9 0.4 2.0 0.4 2.1 0.3 2.15 0.25" fill="#0b0a09" fill-rule="evenodd" stroke="none"/>
    <path d="M1.45 0.05 L1.4 0.05 1.45 0.05 Q1.5 0.05 1.55 0.0 L1.5 0.05 1.45 0.05" fill="#2d2b3b" fill-rule="evenodd" stroke="none"/>
    <path d="M-0.5 -1.7 L-0.55 -1.7 -0.6 -1.7 -0.6 -1.65 -0.75 -1.6 -0.75 -1.6 Q-0.8 -1.55 -0.8 -1.55 L-0.8 -1.45 -0.8 -1.4 -0.75 -1.2 -0.75 -1.15 -0.75 -1.05 -0.7 -1.0 -0.75 -1.0 -0.75 -1.05 -0.85 -1.15 -0.85 -1.15 -1.0 -1.2 -1.05 -1.25 -1.1 -1.25 -1.25 -1.3 -1.25 -1.3 -1.3 -1.3 -1.35 -1.3 -1.35 -1.3 -1.4 -1.3 -1.5 -1.3 -1.55 -1.3 -1.55 -1.3 -1.6 -1.3 -1.65 -1.3 -1.7 -1.3 -1.7 -1.3 -1.7 -1.4 -1.7 -1.45 -1.6 -1.5 -1.6 -1.55 -1.5 -1.6 -1.25 -1.7 -1.15 -1.8 -1.1 -1.8 -0.8 -1.8 -0.8 -1.8 -0.6 -1.7 -0.5 -1.7" fill="#1e1d1b" fill-rule="evenodd" stroke="none"/>
    <path d="M0.8 -0.65 L0.7 -0.7 0.65 -0.75 0.55 -0.85 0.5 -0.85 0.5 -0.85 0.45 -0.85 0.2 -1.1 0.15 -1.1 0.15 -1.1 0.0 -1.25 -0.25 -1.55 -0.35 -1.7 M0.8 -0.65 L0.85 -0.6 1.0 -0.5 1.05 -0.5 1.2 -0.4 1.4 -0.35 1.5 -0.25 1.55 -0.25 1.7 -0.2 1.8 -0.2 1.9 -0.15 1.95 -0.15 2.1 0.0 2.15 0.2 2.15 0.25 2.2 0.3 2.2 0.35 Q2.2 0.5 2.15 0.6 L1.9 0.7 1.55 0.75 1.2 0.75 1.1 0.75 0.95 0.75 0.75 0.75 0.6 0.75 0.3 0.65 0.2 0.65 0.1 0.6 0.05 0.55 0.0 0.55 -0.1 0.45 -0.45 0.3 -0.6 0.25 -0.7 0.25 -0.8 0.3 -0.85 0.4 -0.85 0.4 -0.95 0.4 -1.0 0.4 -1.2 0.4 -1.3 0.35 -1.55 0.3 -1.6 0.3 -1.7 0.3 Q-1.7 0.3 -1.75 0.25 L-1.9 0.2 -1.95 0.1 -1.9 0.05 -1.95 0.05 -1.95 -0.15 -2.0 -0.3 -2.05 -0.4 -2.05 -0.5 -2.0 -0.6 -2.0 -0.75 -1.95 -0.9 -1.95 -1.15 -1.95 -1.3 -1.85 -1.35" fill="none" stroke="#000000" stroke-linecap="round" stroke-linejoin="round" stroke-opacity="0.4509804" stroke-width="1.0"/>
  </g>
</svg>
