<?xml version="1.0" encoding="UTF-8" standalone="no"?>
<svg xmlns:xlink="http://www.w3.org/1999/xlink" height="2.7px" width="2.5px" xmlns="http://www.w3.org/2000/svg">
  <g transform="matrix(1.0, 0.0, 0.0, 1.0, 1.25, 1.35)">
    <path d="M0.45 0.1 L0.35 0.1 -0.1 0.0 -0.4 -0.15 -0.45 -0.15 -0.45 -0.15 -0.4 -0.25 -0.35 -0.3 -0.25 -0.2 -0.1 -0.1 0.25 0.0 0.45 -0.05 0.65 -0.1 0.75 -0.2 0.8 -0.25 0.85 -0.3 0.8 -0.05 0.7 0.05 0.45 0.1" fill="#48352a" fill-rule="evenodd" stroke="none"/>
    <path d="M0.1 1.15 Q0.05 1.15 0.0 1.1 L0.1 0.95 0.15 0.95 0.15 1.0 0.1 1.15" fill="#907550" fill-rule="evenodd" stroke="none"/>
    <path d="M0.55 -1.15 L0.6 -1.05 0.6 -1.0 0.65 -0.9 0.8 -0.7 0.8 -0.65 0.85 -0.4 0.85 -0.3 0.8 -0.25 0.75 -0.2 0.65 -0.1 0.45 -0.05 0.25 0.0 -0.1 -0.1 -0.25 -0.2 -0.35 -0.3 -0.4 -0.25 -0.45 -0.15 -0.45 -0.15 -0.4 -0.1 -0.6 -0.1 -0.7 -0.1 -0.8 0.0 -0.8 0.3 -0.75 0.4 -0.7 0.45 -0.65 0.55 -0.6 0.6 -0.4 0.6 -0.4 0.6 -0.5 0.75 -0.6 0.75 -0.7 0.7 -0.7 1.0 -0.55 1.0 -0.35 1.0 -0.25 0.85 -0.25 0.8 -0.3 0.75 -0.25 0.75 -0.25 1.1 -0.25 1.1 -0.1 1.15 -0.05 1.15 Q-0.15 1.25 -0.2 1.25 L-0.4 1.2 -0.4 1.15 Q-0.55 1.35 -0.6 1.35 L-0.8 1.3 Q-0.95 1.25 -1.0 1.2 -1.15 0.95 -1.15 0.8 L-1.1 0.55 -1.0 0.35 Q-1.25 -0.1 -1.25 -0.2 -1.25 -0.4 -1.0 -0.7 L-0.95 -0.6 Q-0.95 -0.55 -0.85 -0.55 L-0.85 -0.45 -0.8 -0.35 Q-0.75 -0.3 -0.65 -0.3 L-0.55 -0.3 Q-0.5 -0.3 -0.45 -0.35 L-0.4 -0.45 -0.35 -0.5 -0.2 -0.45 Q-0.1 -0.35 -0.05 -0.35 0.1 -0.35 0.3 -0.55 L0.45 -0.65 0.45 -0.65 0.55 -0.9 0.55 -1.15 M1.1 0.3 L1.05 0.35 0.9 0.55 0.55 0.3 0.45 0.15 0.45 0.1 0.7 0.05 0.8 -0.05 0.8 0.0 Q0.8 0.1 0.9 0.2 L1.1 0.3 M0.55 0.65 L0.65 0.6 0.65 0.85 0.6 0.95 0.7 1.1 0.55 1.15 0.4 1.1 0.15 1.15 0.1 1.15 0.15 1.0 0.35 1.0 0.5 0.9 0.6 0.75 0.55 0.65" fill="#745c38" fill-rule="evenodd" stroke="none"/>
    <path d="M-0.7 -0.95 L-0.7 -0.9 -0.75 -0.7 -0.65 -0.6 -0.55 -0.55 Q-0.5 -0.55 -0.5 -0.6 L-0.4 -0.65 -0.1 -0.6 0.1 -0.65 0.15 -0.65 0.25 -0.75 Q0.4 -0.95 0.4 -1.1 L0.3 -1.25 0.2 -1.3 Q0.4 -1.25 0.55 -1.15 L0.55 -0.9 0.45 -0.65 0.45 -0.65 0.3 -0.55 Q0.1 -0.35 -0.05 -0.35 -0.1 -0.35 -0.2 -0.45 L-0.35 -0.5 -0.4 -0.45 -0.45 -0.35 Q-0.5 -0.3 -0.55 -0.3 L-0.65 -0.3 Q-0.75 -0.3 -0.8 -0.35 L-0.85 -0.45 -0.85 -0.55 Q-0.95 -0.55 -0.95 -0.6 L-1.0 -0.7 -0.95 -0.75 -0.7 -0.95 M0.65 -0.9 L0.85 -0.85 Q1.0 -0.8 1.25 -0.7 L1.25 -0.6 1.25 -0.4 1.2 0.05 1.1 0.3 0.9 0.2 Q0.8 0.1 0.8 0.0 L0.8 -0.05 0.85 -0.3 0.85 -0.4 0.8 -0.65 0.8 -0.7 0.65 -0.9 M-0.4 -0.1 L-0.35 0.1 -0.4 0.25 -0.35 0.4 -0.35 0.45 -0.4 0.6 -0.6 0.6 -0.65 0.55 -0.7 0.45 -0.75 0.4 -0.8 0.3 -0.8 0.0 -0.7 -0.1 -0.6 -0.1 -0.4 -0.1 M0.9 0.95 L0.85 1.0 0.7 1.1 0.6 0.95 0.65 0.85 0.9 0.95 M0.0 1.1 L-0.05 1.15 -0.1 1.15 -0.25 1.1 -0.25 1.1 -0.25 0.75 -0.15 0.8 0.05 0.8 0.15 0.8 0.15 0.9 0.1 0.95 0.0 1.1 M1.2 -0.25 L1.2 -0.6 1.1 -0.65 1.1 -0.55 1.05 -0.45 Q0.95 -0.35 0.95 -0.25 0.95 -0.2 1.05 -0.1 L1.15 0.0 1.2 -0.25 M-0.5 0.75 L-0.5 0.75 Q-0.5 0.85 -0.45 0.85 L-0.25 0.85 -0.35 1.0 -0.55 1.0 -0.7 1.0 -0.7 0.7 -0.6 0.75 -0.5 0.75" fill="#af8341" fill-rule="evenodd" stroke="none"/>
    <path d="M-0.7 -0.95 L-0.45 -1.25 0.05 -1.35 0.2 -1.3 0.3 -1.25 0.4 -1.1 Q0.4 -0.95 0.25 -0.75 L0.15 -0.65 0.1 -0.65 -0.1 -0.6 -0.4 -0.65 -0.5 -0.6 Q-0.5 -0.55 -0.55 -0.55 L-0.65 -0.6 -0.75 -0.7 -0.7 -0.9 -0.7 -0.95 M-0.35 0.45 L-0.3 0.55 -0.25 0.45 Q-0.15 0.35 -0.1 0.35 -0.05 0.35 0.05 0.45 L0.15 0.55 Q0.2 0.55 0.2 0.5 L0.35 0.5 Q0.4 0.5 0.5 0.55 L0.55 0.65 0.6 0.75 0.5 0.9 0.35 1.0 0.15 1.0 0.15 0.95 0.1 0.95 0.15 0.9 0.15 0.8 0.05 0.8 -0.15 0.8 -0.25 0.75 -0.3 0.75 -0.25 0.8 -0.25 0.85 -0.45 0.85 Q-0.5 0.85 -0.5 0.75 L-0.5 0.75 -0.4 0.6 -0.4 0.6 -0.35 0.45 M0.65 0.6 Q0.7 0.55 0.75 0.55 L0.85 0.6 0.95 0.8 0.9 0.95 0.65 0.85 0.65 0.6 M1.2 -0.25 L1.15 0.0 1.05 -0.1 Q0.95 -0.2 0.95 -0.25 0.95 -0.35 1.05 -0.45 L1.1 -0.55 1.1 -0.65 1.2 -0.6 1.2 -0.25" fill="#cba771" fill-rule="evenodd" stroke="none"/>
    <path d="M1.25 -0.4 L1.2 0.05 1.1 0.3 1.05 0.35 0.9 0.55 0.55 0.3 0.45 0.15 0.45 0.1 0.35 0.1 -0.1 0.0 -0.4 -0.15 -0.45 -0.15 -0.4 -0.1 -0.35 0.1 -0.4 0.25 -0.35 0.4 -0.35 0.45 -0.3 0.55 -0.25 0.45 Q-0.15 0.35 -0.1 0.35 -0.05 0.35 0.05 0.45 L0.15 0.55 Q0.2 0.55 0.2 0.5 L0.35 0.5 Q0.4 0.5 0.5 0.55 L0.55 0.65 0.65 0.6 Q0.7 0.55 0.75 0.55 L0.85 0.6 0.95 0.8 0.9 0.95 0.85 1.0 0.7 1.1 0.55 1.15 0.4 1.1 0.15 1.15 0.1 1.15 Q0.05 1.15 0.0 1.1 L-0.05 1.15 Q-0.15 1.25 -0.2 1.25 L-0.4 1.2 -0.4 1.15 Q-0.55 1.35 -0.6 1.35 L-0.8 1.3 Q-0.95 1.25 -1.0 1.2 -1.15 0.95 -1.15 0.8 L-1.1 0.55 -1.0 0.35 Q-1.25 -0.1 -1.25 -0.2 -1.25 -0.4 -1.0 -0.7 L-0.95 -0.75 -0.7 -0.95" fill="none" stroke="#000000" stroke-linecap="round" stroke-linejoin="round" stroke-opacity="0.4509804" stroke-width="1.0"/>
  </g>
</svg>
