<?xml version="1.0" encoding="UTF-8" standalone="no"?>
<svg xmlns:xlink="http://www.w3.org/1999/xlink" height="26.0px" width="26.0px" xmlns="http://www.w3.org/2000/svg">
  <g transform="matrix(1.0, 0.0, 0.0, 1.0, 0.0, 0.0)">
    <path d="M24.25 13.0 L19.45 8.2 14.85 12.85 Q14.75 12.9 14.75 13.0 14.75 13.1 14.85 13.15 L19.45 17.8 24.25 13.0 M13.0 1.75 L8.2 6.55 12.85 11.15 Q12.9 11.25 13.0 11.25 13.1 11.25 13.2 11.15 L17.8 6.55 13.0 1.75 M8.35 4.4 L8.3 4.35 8.3 4.45 8.35 4.45 8.35 4.4 M6.55 17.8 L11.2 13.15 11.25 13.0 Q11.25 12.9 11.2 12.85 L6.55 8.2 1.75 13.0 6.55 17.8 M13.0 14.75 Q12.9 14.75 12.85 14.8 L8.2 19.45 13.0 24.25 17.8 19.45 13.2 14.8 Q13.1 14.75 13.0 14.75 M0.0 26.0 L0.0 0.0 26.0 0.0 26.0 26.0 0.0 26.0" fill="#6d2525" fill-rule="evenodd" stroke="none"/>
    <path d="M24.25 13.0 L19.45 17.8 14.85 13.15 Q14.75 13.1 14.75 13.0 14.75 12.9 14.85 12.85 L19.45 8.2 24.25 13.0 M13.0 1.75 L17.8 6.55 13.2 11.15 Q13.1 11.25 13.0 11.25 12.9 11.25 12.85 11.15 L8.2 6.55 13.0 1.75 M6.55 17.8 L1.75 13.0 6.55 8.2 11.2 12.85 Q11.25 12.9 11.25 13.0 L11.2 13.15 6.55 17.8 M13.0 14.75 Q13.1 14.75 13.2 14.8 L17.8 19.45 13.0 24.25 8.2 19.45 12.85 14.8 Q12.9 14.75 13.0 14.75" fill="#201f1c" fill-rule="evenodd" stroke="none"/>
  </g>
</svg>
