<?xml version="1.0" encoding="UTF-8" standalone="no"?>
<svg xmlns:xlink="http://www.w3.org/1999/xlink" height="26.0px" width="26.0px" xmlns="http://www.w3.org/2000/svg">
  <g transform="matrix(1.0, 0.0, 0.0, 1.0, 0.0, 0.0)">
    <path d="M17.9 26.0 Q18.75 23.8 18.65 21.65 18.65 19.55 17.75 17.6 18.45 15.35 18.5 13.65 18.5 12.7 18.55 12.25 L18.5 12.05 18.45 11.95 Q18.45 11.6 18.3 10.9 18.25 10.85 18.25 10.75 L18.15 10.25 17.75 9.2 Q18.1 8.2 18.25 7.3 18.35 6.25 18.3 5.3 18.2 3.35 17.45 1.6 L18.0 0.9 18.0 0.8 18.55 0.0 26.0 0.0 26.0 26.0 17.9 26.0 M7.55 0.0 L7.45 0.6 Q7.25 2.8 7.95 5.2 8.0 5.25 7.95 5.25 7.65 6.2 7.5 7.2 7.35 7.7 7.35 8.25 7.3 9.25 7.4 10.25 7.55 11.5 8.0 12.8 8.25 13.5 8.6 14.1 7.05 17.65 8.4 21.55 7.85 23.0 7.7 24.5 7.65 25.2 7.7 26.0 L0.0 26.0 0.0 0.0 7.55 0.0" fill="#232323" fill-rule="evenodd" stroke="none"/>
    <path d="M16.75 4.85 Q16.6 3.8 16.3 2.8 16.15 2.85 16.05 2.95 L16.0 3.05 15.75 3.25 14.9 4.0 Q14.75 4.1 14.65 4.3 14.85 5.35 14.75 6.6 L14.8 6.65 14.75 6.7 14.7 7.1 Q14.55 7.9 14.25 8.75 L14.15 8.75 14.2 8.8 13.75 9.7 Q13.5 9.9 13.45 10.15 L13.4 10.2 13.35 10.2 13.35 10.25 13.25 10.4 13.15 10.5 12.55 11.0 Q12.65 11.0 12.6 11.05 L12.85 11.5 12.95 11.7 12.95 11.75 13.45 12.4 13.65 12.6 13.75 12.6 13.8 12.55 13.75 12.5 14.8 11.55 15.0 11.2 15.0 11.3 15.5 10.55 15.65 10.25 16.0 9.45 16.15 9.1 16.2 9.05 16.2 8.85 Q16.5 8.0 16.65 7.2 16.8 6.0 16.75 4.85 M18.55 0.0 L18.0 0.8 18.0 0.9 17.45 1.6 Q18.2 3.35 18.3 5.3 18.35 6.25 18.25 7.3 18.1 8.2 17.75 9.2 L18.15 10.25 18.25 10.75 Q18.25 10.85 18.3 10.9 18.45 11.6 18.45 11.95 L18.5 12.05 18.55 12.25 Q18.5 12.7 18.5 13.65 18.45 15.35 17.75 17.6 18.65 19.55 18.65 21.65 18.75 23.8 17.9 26.0 L16.2 26.0 16.4 25.65 16.4 25.75 Q17.2 23.65 17.15 21.7 17.05 20.45 16.7 19.3 16.55 19.4 16.45 19.65 16.05 20.4 15.25 20.95 L15.25 21.65 15.15 22.9 Q15.05 23.95 14.55 25.0 L14.6 25.05 14.55 25.1 14.05 26.0 11.2 26.0 11.2 25.8 Q10.05 24.9 9.35 23.75 9.15 24.85 9.3 26.0 L7.7 26.0 Q7.65 25.2 7.7 24.5 7.85 23.0 8.4 21.55 7.05 17.65 8.6 14.1 8.25 13.5 8.0 12.8 7.55 11.5 7.4 10.25 7.3 9.25 7.35 8.25 7.35 7.7 7.5 7.2 7.65 6.2 7.95 5.25 8.0 5.25 7.95 5.2 7.25 2.8 7.45 0.6 L7.55 0.0 9.15 0.0 Q9.0 0.6 9.0 1.2 8.85 2.85 9.45 4.75 L9.6 5.15 Q9.7 5.5 9.9 5.8 L9.8 5.85 Q10.05 6.4 10.45 6.85 11.0 7.7 11.9 8.35 L12.05 8.55 Q12.3 8.65 12.4 8.8 L12.8 8.2 Q12.75 8.15 12.8 8.1 13.05 7.45 13.15 6.95 12.5 6.45 12.1 5.8 12.0 5.8 12.05 5.75 L11.7 5.3 Q11.55 5.05 11.65 4.85 11.45 4.65 11.35 4.5 10.85 3.15 10.9 1.9 L10.95 1.05 10.95 0.85 10.3 0.25 10.15 0.1 10.0 0.0 14.1 0.0 13.6 0.45 13.6 0.5 13.15 0.85 12.85 1.1 Q12.7 1.3 12.45 1.3 12.45 1.9 12.55 2.55 12.55 3.2 12.8 3.95 L13.2 3.45 13.25 3.4 13.55 3.1 Q14.05 2.5 14.75 2.05 L14.8 2.0 15.05 1.8 15.95 0.95 15.9 0.9 Q16.35 0.45 16.65 0.0 L18.55 0.0 M16.95 12.3 L16.95 12.2 Q16.9 12.0 16.8 11.4 L16.25 12.15 16.15 12.25 15.9 12.55 Q15.55 13.05 15.1 13.35 15.15 13.85 15.25 14.2 15.25 14.3 15.3 14.35 L15.25 14.4 15.25 14.6 Q15.25 15.65 14.6 17.1 L14.55 17.2 14.5 17.25 Q14.35 17.45 14.25 17.75 L13.65 18.7 13.0 19.5 13.15 20.1 13.25 20.2 13.3 20.4 13.35 20.65 13.45 20.8 13.7 20.6 Q13.7 20.45 13.8 20.25 13.8 20.1 14.0 20.0 14.7 19.55 15.05 18.85 L15.8 17.8 16.15 17.35 Q16.95 15.25 17.0 13.65 17.05 12.7 16.95 12.35 L16.95 12.3 M9.0 7.5 Q8.9 8.15 8.9 8.85 8.9 9.55 9.0 10.25 9.1 11.2 9.45 12.25 9.65 13.05 10.1 13.7 10.15 13.65 10.15 13.8 10.3 14.0 10.55 14.15 L10.5 14.2 Q10.9 14.7 11.4 15.1 L11.5 15.15 Q11.95 15.55 12.45 16.05 L12.5 16.05 12.75 16.25 13.2 16.25 13.25 16.25 13.55 15.4 13.7 14.6 13.5 14.5 13.45 14.45 Q13.35 14.3 13.25 14.25 L13.15 14.2 13.1 14.15 Q12.05 13.5 11.55 12.3 L11.5 12.15 11.25 11.85 Q11.05 11.45 10.9 11.1 L10.85 10.95 10.7 10.25 Q10.65 9.8 10.65 9.4 L10.6 9.35 Q9.65 8.55 9.0 7.5 M11.3 17.15 Q11.0 16.75 10.6 16.5 10.6 16.4 10.45 16.35 10.1 15.95 9.7 15.7 8.9 18.3 9.9 21.35 L10.05 21.55 Q10.1 21.8 10.2 22.05 L10.25 22.1 Q10.3 22.3 10.45 22.5 11.1 23.8 12.3 24.7 L12.4 24.7 12.45 24.85 12.5 24.8 12.8 25.05 Q13.0 24.75 13.05 24.45 L13.2 24.25 13.55 23.15 Q12.8 22.65 12.45 22.05 L12.2 21.6 Q12.05 21.4 12.0 21.2 11.95 21.25 11.9 21.2 L11.8 20.7 Q11.5 19.95 11.35 19.35 L11.3 19.35 Q11.4 19.3 11.35 19.25 11.2 18.2 11.35 17.25 L11.3 17.15" fill="#151515" fill-rule="evenodd" stroke="none"/>
    <path d="M16.75 4.85 Q16.8 6.0 16.65 7.2 16.5 8.0 16.2 8.85 L16.2 9.05 16.15 9.1 16.0 9.45 15.65 10.25 15.5 10.55 15.0 11.3 15.0 11.2 14.8 11.55 13.75 12.5 13.8 12.55 13.75 12.6 13.65 12.6 13.45 12.4 12.95 11.75 12.95 11.7 12.85 11.5 12.6 11.05 Q12.65 11.0 12.55 11.0 L13.15 10.5 13.25 10.4 13.35 10.25 13.35 10.2 13.4 10.2 13.45 10.15 Q13.5 9.9 13.75 9.7 L14.2 8.8 14.15 8.75 14.25 8.75 Q14.55 7.9 14.7 7.1 L14.75 6.7 14.8 6.65 14.75 6.6 Q14.85 5.35 14.65 4.3 14.75 4.1 14.9 4.0 L15.75 3.25 16.0 3.05 16.05 2.95 Q16.15 2.85 16.3 2.8 16.6 3.8 16.75 4.85 M16.65 0.0 Q16.35 0.45 15.9 0.9 L15.95 0.95 15.05 1.8 14.8 2.0 14.75 2.05 Q14.05 2.5 13.55 3.1 L13.25 3.4 13.2 3.45 12.8 3.95 Q12.55 3.2 12.55 2.55 12.45 1.9 12.45 1.3 12.7 1.3 12.85 1.1 L13.15 0.85 13.6 0.5 13.6 0.45 14.1 0.0 16.65 0.0 M10.0 0.0 L10.15 0.1 10.3 0.25 10.95 0.85 10.95 1.05 10.9 1.9 Q10.85 3.15 11.35 4.5 11.45 4.65 11.65 4.85 11.55 5.05 11.7 5.3 L12.05 5.75 Q12.0 5.8 12.1 5.8 12.5 6.45 13.15 6.95 13.05 7.45 12.8 8.1 12.75 8.15 12.8 8.2 L12.4 8.8 Q12.3 8.65 12.05 8.55 L11.9 8.35 Q11.0 7.7 10.45 6.85 10.05 6.4 9.8 5.85 L9.9 5.8 Q9.7 5.5 9.6 5.15 L9.45 4.75 Q8.85 2.85 9.0 1.2 9.0 0.6 9.15 0.0 L10.0 0.0 M9.3 26.0 Q9.15 24.85 9.35 23.75 10.05 24.9 11.2 25.8 L11.2 26.0 9.3 26.0 M14.05 26.0 L14.55 25.1 14.6 25.05 14.55 25.0 Q15.05 23.95 15.15 22.9 L15.25 21.65 15.25 20.95 Q16.05 20.4 16.45 19.65 16.55 19.4 16.7 19.3 17.05 20.45 17.15 21.7 17.2 23.65 16.4 25.75 L16.4 25.65 16.2 26.0 14.05 26.0 M16.95 12.3 L16.95 12.35 Q17.05 12.7 17.0 13.65 16.95 15.25 16.15 17.35 L15.8 17.8 15.05 18.85 Q14.7 19.55 14.0 20.0 13.8 20.1 13.8 20.25 13.7 20.45 13.7 20.6 L13.45 20.8 13.35 20.65 13.3 20.4 13.25 20.2 13.15 20.1 13.0 19.5 13.65 18.7 14.25 17.75 Q14.35 17.45 14.5 17.25 L14.55 17.2 14.6 17.1 Q15.25 15.65 15.25 14.6 L15.25 14.4 15.3 14.35 Q15.25 14.3 15.25 14.2 15.15 13.85 15.1 13.35 15.55 13.05 15.9 12.55 L16.15 12.25 16.25 12.15 16.8 11.4 Q16.9 12.0 16.95 12.2 L16.95 12.3 M9.0 7.5 Q9.65 8.55 10.6 9.35 L10.65 9.4 Q10.65 9.8 10.7 10.25 L10.85 10.95 10.9 11.1 Q11.05 11.45 11.25 11.85 L11.5 12.15 11.55 12.3 Q12.05 13.5 13.1 14.15 L13.15 14.2 13.25 14.25 Q13.35 14.3 13.45 14.45 L13.5 14.5 13.7 14.6 13.55 15.4 13.25 16.25 13.2 16.25 12.75 16.25 12.5 16.05 12.45 16.05 Q11.95 15.55 11.5 15.15 L11.4 15.1 Q10.9 14.7 10.5 14.2 L10.55 14.15 Q10.3 14.0 10.15 13.8 10.15 13.65 10.1 13.7 9.65 13.05 9.45 12.25 9.1 11.2 9.0 10.25 8.9 9.55 8.9 8.85 8.9 8.15 9.0 7.5 M11.3 17.15 L11.35 17.25 Q11.2 18.2 11.35 19.25 11.4 19.3 11.3 19.35 L11.35 19.35 Q11.5 19.95 11.8 20.7 L11.9 21.2 Q11.95 21.25 12.0 21.2 12.05 21.4 12.2 21.6 L12.45 22.05 Q12.8 22.65 13.55 23.15 L13.2 24.25 13.05 24.45 Q13.0 24.75 12.8 25.05 L12.5 24.8 12.45 24.85 12.4 24.7 12.3 24.7 Q11.1 23.8 10.45 22.5 10.3 22.3 10.25 22.1 L10.2 22.05 Q10.1 21.8 10.05 21.55 L9.9 21.35 Q8.9 18.3 9.7 15.7 10.1 15.95 10.45 16.35 10.6 16.4 10.6 16.5 11.0 16.75 11.3 17.15" fill="#727272" fill-rule="evenodd" stroke="none"/>
  </g>
</svg>
