<?xml version="1.0" encoding="UTF-8" standalone="no"?>
<svg xmlns:xlink="http://www.w3.org/1999/xlink" height="26.0px" width="26.0px" xmlns="http://www.w3.org/2000/svg">
  <g transform="matrix(1.0, 0.0, 0.0, 1.0, 0.0, 0.0)">
    <path d="M18.3 8.55 L18.3 8.7 18.25 8.85 18.2 8.9 18.15 8.9 18.05 8.85 17.95 8.75 17.9 8.7 17.9 8.65 17.85 8.7 17.8 8.75 17.75 8.85 17.7 8.95 17.7 9.05 17.75 9.15 17.8 9.25 17.8 9.35 17.95 9.4 17.95 9.5 Q17.85 9.55 17.85 9.65 L17.7 9.7 17.6 9.7 17.6 9.45 17.5 9.4 17.5 9.35 17.45 9.3 17.45 9.2 17.2 9.15 17.15 9.05 17.1 9.1 17.0 9.05 16.95 9.1 16.9 9.15 16.8 9.1 16.75 9.0 16.6 8.9 16.55 8.8 16.55 8.7 16.5 8.65 16.45 8.6 16.45 8.5 16.35 8.45 16.25 8.45 16.15 8.3 16.15 8.25 16.1 8.15 16.0 8.05 15.75 7.9 15.65 7.75 Q15.65 7.7 15.7 7.65 L15.8 7.6 15.9 7.65 16.0 7.75 16.05 7.75 16.05 7.7 16.25 7.55 16.25 7.6 16.2 7.7 16.2 7.75 16.25 7.8 16.3 7.95 16.35 7.95 16.45 7.9 16.55 7.85 16.6 7.85 16.7 7.85 16.7 7.9 16.55 7.95 16.6 8.05 16.35 8.05 16.4 8.1 16.5 8.1 16.55 8.1 16.6 8.15 16.65 8.2 16.6 8.25 16.6 8.5 16.65 8.55 16.7 8.6 16.85 8.65 16.9 8.7 17.0 8.75 17.05 8.75 17.15 8.75 17.1 8.6 17.05 8.55 17.0 8.45 16.95 8.4 16.95 8.3 16.9 8.25 16.85 8.2 16.85 8.15 17.0 8.2 17.1 8.3 17.1 8.25 17.05 8.15 17.1 8.1 17.1 8.0 17.1 7.9 17.25 7.85 17.35 7.8 17.4 7.8 17.4 7.75 17.45 7.7 17.5 7.65 17.6 7.5 17.7 7.5 17.85 7.55 18.0 7.5 18.1 7.55 18.15 7.55 18.15 7.6 18.05 7.7 18.1 7.75 18.1 7.95 18.05 8.1 18.0 8.2 17.95 8.35 17.9 8.35 17.85 8.3 17.75 8.3 Q17.75 8.35 17.8 8.4 L17.95 8.5 18.0 8.55 18.0 8.6 18.3 8.55 M18.15 9.6 L18.6 9.2 Q18.85 8.85 19.2 8.55 19.7 8.1 20.3 7.8 L20.75 7.6 Q21.55 7.25 22.4 7.4 23.4 7.5 24.3 7.15 22.9 8.0 21.3 8.35 L21.25 8.35 Q21.0 8.4 20.85 8.55 L20.7 8.7 Q19.85 9.65 18.95 10.5 L18.75 10.65 18.7 10.6 18.7 10.55 18.65 10.4 18.65 10.2 18.55 10.3 18.4 10.15 18.35 10.05 18.35 9.95 18.25 9.9 18.3 9.85 18.25 9.8 18.2 9.7 18.15 9.6 M19.65 6.35 L19.2 5.95 19.15 5.95 Q18.8 6.1 18.65 6.45 L18.25 7.2 18.2 7.15 18.15 7.0 18.1 6.95 18.05 6.9 18.05 6.85 17.95 6.7 17.85 6.55 17.65 6.45 17.65 6.35 17.55 6.2 18.05 5.7 Q18.25 5.5 18.5 5.3 17.2 4.4 15.75 3.95 15.55 4.25 15.55 4.6 15.65 5.85 15.6 7.1 L15.6 7.2 15.45 7.25 15.4 7.25 15.35 7.2 15.3 7.2 15.0 7.1 14.75 7.0 14.7 7.0 14.6 6.95 14.5 6.8 14.45 6.75 14.4 6.45 Q14.3 5.3 14.65 4.25 14.7 4.0 14.85 3.75 L12.95 3.55 12.45 3.6 12.4 3.95 Q12.35 4.35 12.5 4.7 13.0 5.75 13.45 6.85 L13.35 6.8 13.3 6.8 13.25 6.8 13.2 6.85 13.1 6.9 13.05 6.9 13.0 6.9 12.9 6.85 Q12.8 6.85 12.8 6.8 L12.75 6.75 12.7 6.75 12.65 6.75 12.45 6.8 12.3 6.85 12.15 6.85 12.15 6.8 Q11.65 5.8 11.5 4.7 11.45 4.15 11.55 3.65 10.05 3.85 8.75 4.5 L9.0 4.85 Q9.85 5.75 10.65 6.7 L10.95 7.1 10.85 7.1 10.7 7.15 10.65 7.15 10.6 7.2 10.55 7.2 10.25 7.1 Q10.15 7.1 10.05 7.15 L10.05 7.3 10.0 7.2 9.95 7.1 9.85 6.9 9.8 6.85 9.7 6.75 9.7 6.8 9.65 6.8 9.55 6.8 9.5 6.7 9.45 6.65 9.4 6.5 9.45 6.5 9.35 6.4 9.2 6.3 9.15 6.25 8.8 6.15 8.6 6.15 Q8.25 5.7 8.0 5.15 L7.95 4.95 Q7.05 5.5 6.3 6.3 L0.0 0.0 26.0 0.0 19.65 6.35 M7.55 7.6 L7.65 7.75 7.7 7.9 7.7 8.2 7.55 8.25 7.55 8.3 7.8 8.35 7.75 8.4 7.7 8.5 8.0 8.55 8.05 8.5 8.05 8.45 8.2 8.35 Q8.25 8.3 8.25 8.25 L8.15 8.25 Q8.15 8.3 8.1 8.3 L8.05 8.3 8.0 8.15 7.95 8.05 7.9 7.9 7.9 7.7 7.95 7.65 7.85 7.55 7.85 7.5 8.0 7.45 8.15 7.5 8.3 7.45 8.4 7.45 8.5 7.6 8.55 7.65 8.6 7.75 8.9 7.85 8.9 7.95 8.9 8.05 8.95 8.1 8.9 8.2 8.9 8.25 9.0 8.15 Q9.1 8.1 9.15 8.1 L9.15 8.15 9.1 8.2 9.05 8.25 9.05 8.4 9.0 8.4 8.9 8.55 8.85 8.7 8.95 8.7 9.0 8.7 Q9.05 8.7 9.1 8.65 L9.15 8.6 9.25 8.55 9.3 8.55 9.4 8.45 9.4 8.3 Q9.4 8.25 9.4 8.2 L9.35 8.15 9.4 8.1 9.45 8.05 9.5 8.05 9.6 8.05 9.65 8.0 9.4 7.95 9.45 7.85 9.3 7.85 9.3 7.8 9.4 7.8 9.45 7.8 9.65 7.9 9.7 7.9 9.75 7.75 9.8 7.7 9.8 7.65 9.75 7.55 9.75 7.5 9.95 7.65 10.0 7.7 10.1 7.6 Q10.15 7.55 10.2 7.55 10.25 7.55 10.3 7.6 L10.35 7.7 10.25 7.85 10.1 7.95 10.05 8.0 9.95 8.1 9.85 8.25 9.75 8.4 9.65 8.4 9.55 8.45 9.55 8.55 9.5 8.6 9.45 8.65 9.45 8.75 9.4 8.9 9.25 8.95 9.2 9.05 9.1 9.1 9.05 9.05 9.0 9.0 8.9 9.05 8.85 9.0 8.8 9.1 8.55 9.15 8.6 9.2 8.55 9.25 8.5 9.3 8.5 9.35 8.4 9.4 8.45 9.65 8.3 9.65 8.15 9.6 8.15 9.55 8.05 9.45 8.05 9.35 8.15 9.3 8.2 9.3 8.2 9.2 Q8.2 9.15 8.25 9.1 L8.3 9.0 8.3 8.9 8.25 8.8 8.2 8.7 8.15 8.65 8.1 8.55 8.1 8.65 8.05 8.7 7.95 8.8 7.85 8.85 7.8 8.85 7.75 8.8 Q7.75 8.9 7.9 8.9 L7.75 8.9 7.75 9.0 7.5 8.85 Q7.15 8.75 6.8 8.55 6.15 8.2 5.6 7.7 L5.3 7.4 Q4.7 6.75 4.5 5.8 4.35 4.85 3.7 4.1 4.95 5.15 5.8 6.55 L5.85 6.7 Q6.05 6.9 6.35 7.05 L7.55 7.6 M7.35 10.15 L7.35 10.35 7.3 10.5 7.3 10.55 7.25 10.6 7.25 10.65 7.2 10.75 7.2 10.85 7.15 10.9 7.15 11.0 7.1 11.1 7.0 11.15 6.95 11.2 6.95 11.3 Q6.75 11.2 6.45 11.2 5.3 11.05 4.3 10.5 L3.8 10.2 Q3.2 9.75 2.8 8.95 L2.6 8.55 Q2.2 7.95 1.55 7.55 2.5 7.95 3.3 8.55 L4.15 9.3 4.2 9.35 Q4.45 9.65 4.9 9.7 6.1 9.85 7.3 10.15 L7.35 10.15 M6.8 12.3 L6.75 12.3 6.7 12.35 6.7 12.45 6.65 12.55 6.65 12.65 6.65 12.85 6.65 13.05 6.7 13.05 6.75 13.1 6.7 13.25 6.7 13.5 6.75 13.55 Q6.5 13.55 6.2 13.7 5.15 14.15 4.05 14.2 L3.45 14.2 Q2.65 14.1 1.95 13.6 1.1 13.05 0.15 13.0 1.75 12.8 3.35 13.25 L3.4 13.3 Q3.75 13.35 4.1 13.2 5.25 12.75 6.45 12.4 L6.8 12.3 M6.95 14.95 L7.05 15.05 7.05 15.15 7.15 15.15 7.15 15.35 Q7.2 15.5 7.25 15.55 7.3 15.7 7.4 15.8 L7.5 15.75 7.5 15.85 7.45 16.05 7.4 16.15 7.35 16.15 7.25 16.35 7.1 16.5 7.05 16.45 Q6.35 17.15 5.45 17.55 5.05 17.75 4.65 17.8 4.0 17.95 3.3 17.8 2.35 17.6 1.4 17.9 2.75 17.2 4.2 16.95 L4.45 16.95 Q4.85 16.9 5.15 16.6 5.95 15.8 6.85 15.05 L6.9 14.95 6.9 15.0 6.95 14.95 M7.35 16.2 L7.45 16.1 7.55 16.2 7.45 16.35 7.4 16.55 7.35 16.7 7.45 16.45 7.65 16.2 7.7 16.35 7.7 16.45 7.8 16.45 7.8 16.5 7.85 16.6 7.9 16.5 7.95 16.5 8.05 16.5 8.1 16.65 8.1 16.8 8.05 16.85 Q7.85 16.9 7.7 17.05 L7.85 16.95 8.05 16.85 8.1 17.0 7.9 17.3 7.8 17.45 7.75 17.35 Q7.65 17.25 7.7 17.1 L7.5 17.1 7.45 16.95 7.4 16.85 7.35 16.8 7.3 16.8 7.25 16.85 7.2 16.85 7.15 16.6 7.15 16.5 7.25 16.35 7.35 16.2 M8.25 18.1 L8.3 18.1 8.35 18.2 8.4 18.25 8.45 18.3 8.5 18.3 8.55 18.35 8.65 18.4 8.65 18.45 8.7 18.5 8.75 18.5 8.85 18.55 8.9 18.6 9.0 18.7 9.05 18.8 9.1 18.95 9.15 19.0 Q8.85 19.85 8.25 20.5 L7.7 21.05 Q8.95 21.9 10.3 22.25 L10.5 21.95 Q10.75 21.6 10.7 21.2 10.65 20.25 10.65 19.35 L10.7 19.35 10.8 19.35 11.35 19.4 Q11.4 19.4 11.45 19.45 L11.45 19.5 11.5 19.55 11.6 19.55 11.65 19.55 Q11.7 19.55 11.8 19.65 L11.8 19.7 11.9 19.75 Q11.9 20.7 11.65 21.6 11.5 22.05 11.25 22.45 L12.95 22.6 13.55 22.6 13.75 22.05 Q13.85 21.7 13.75 21.35 L13.3 19.85 13.5 19.85 13.6 19.85 13.7 19.75 13.7 19.8 13.75 19.8 13.8 19.8 13.85 19.85 13.95 19.85 14.1 19.8 14.2 19.8 14.2 19.7 14.35 19.6 14.4 19.6 14.45 19.65 Q14.75 20.55 14.7 21.45 14.7 22.0 14.55 22.5 16.2 22.25 17.65 21.4 L17.6 21.15 Q17.5 20.75 17.25 20.5 L15.95 19.3 15.85 19.35 Q15.8 19.25 15.8 19.15 L15.8 19.1 15.85 18.95 15.95 18.8 16.1 18.9 16.1 19.1 16.05 19.25 Q16.15 19.2 16.15 19.2 L16.2 19.25 16.25 19.25 16.3 19.2 16.35 19.15 16.4 19.1 16.55 19.0 16.6 19.0 16.55 18.9 Q16.45 18.7 16.45 18.5 16.45 18.45 16.55 18.45 L16.65 18.45 16.75 18.4 16.8 18.4 16.8 18.45 16.85 18.6 16.95 18.75 Q16.95 18.9 16.85 18.95 L16.75 19.0 16.7 19.0 16.8 19.05 16.9 19.0 16.95 18.85 17.05 18.75 17.05 18.7 Q17.7 19.35 18.15 20.1 18.35 20.5 18.45 20.85 L19.65 19.8 19.75 19.75 26.0 26.0 0.0 26.0 6.2 19.8 6.95 20.5 7.1 20.4 Q7.45 20.2 7.55 19.85 7.85 18.95 8.25 18.1 M8.8 18.4 L8.9 18.2 9.0 18.0 9.05 18.15 9.0 18.4 8.95 18.5 8.8 18.4 M9.3 18.95 L9.25 18.95 9.2 18.95 9.15 18.9 Q9.05 18.85 9.1 18.7 L9.15 18.55 9.2 18.35 9.35 18.4 9.45 18.4 9.55 18.45 Q9.6 18.6 9.45 18.85 L9.4 18.9 9.4 18.95 9.35 18.95 9.3 18.95 M18.15 17.85 L18.1 17.8 18.05 17.7 18.0 17.6 17.9 17.4 Q17.85 17.35 17.95 17.2 L18.1 17.4 18.15 17.55 18.25 17.65 18.3 17.65 18.2 17.5 18.1 17.35 17.9 17.05 Q17.9 17.0 17.95 16.9 L18.3 17.1 17.95 16.9 17.9 16.85 Q17.9 16.65 17.95 16.55 L18.1 16.55 18.15 16.65 18.2 16.55 18.2 16.5 18.3 16.5 18.3 16.35 18.35 16.25 18.55 16.5 18.65 16.75 18.65 16.75 18.6 16.6 18.55 16.45 18.45 16.25 18.55 16.15 18.65 16.25 18.55 16.1 18.5 15.95 18.55 15.95 18.6 15.9 18.7 15.85 18.75 15.75 18.8 15.6 18.85 15.5 18.85 15.2 18.95 15.2 18.95 15.1 19.05 15.0 19.1 14.9 19.05 14.8 19.05 14.7 19.1 14.65 19.1 14.45 19.2 14.45 19.15 14.25 19.4 14.2 Q20.5 13.85 21.65 13.95 L22.4 14.1 Q23.05 14.35 23.6 14.8 23.95 15.1 24.3 15.3 L24.45 15.35 Q24.9 15.55 25.35 15.65 L24.3 15.55 24.25 15.55 Q23.25 15.4 22.3 15.05 L22.2 15.0 21.45 14.95 Q20.35 15.2 19.2 15.45 L19.15 15.5 19.15 15.8 Q19.05 15.95 19.05 16.1 L19.0 16.2 18.95 16.3 18.95 16.5 18.9 16.55 18.75 16.4 18.65 16.25 18.75 16.4 18.85 16.55 18.85 16.65 18.85 16.85 Q19.5 17.1 20.05 17.55 20.5 17.95 20.85 18.45 21.1 18.85 21.25 19.35 21.5 20.35 22.2 21.05 21.05 20.25 20.25 19.2 L19.95 18.75 Q19.7 18.4 19.35 18.3 L18.15 17.85 M19.35 13.0 L19.35 12.8 19.35 12.65 19.3 12.6 19.3 12.4 19.25 12.35 19.2 12.3 19.1 12.0 19.2 11.9 19.3 11.9 19.35 11.95 19.4 11.9 19.35 11.85 19.25 11.85 19.15 11.85 19.1 11.8 Q19.45 11.75 19.8 11.6 20.8 11.05 21.9 10.95 L22.25 10.9 Q23.15 10.9 24.0 11.35 24.6 11.7 25.25 11.8 L25.5 11.85 25.9 11.85 25.5 11.9 25.25 11.95 22.4 11.8 21.9 11.9 Q20.8 12.45 19.6 12.9 L19.35 13.0 M16.7 10.35 L16.6 10.25 16.5 10.15 16.4 10.1 16.4 10.15 16.4 10.35 16.4 10.55 Q16.4 10.6 16.45 10.65 L16.5 10.75 16.55 10.9 16.55 11.0 16.6 11.45 16.4 11.3 16.35 11.2 16.3 11.15 16.2 11.15 16.25 11.25 16.25 11.35 16.2 11.35 16.15 11.4 16.1 11.45 16.05 11.55 16.0 11.6 15.9 11.65 15.85 11.75 15.75 11.8 15.7 11.85 15.65 11.9 15.55 11.95 15.4 11.95 Q15.35 11.95 15.3 11.9 L15.3 11.75 Q15.55 11.7 15.65 11.55 L15.85 11.3 15.95 11.2 15.9 11.0 15.8 11.0 15.65 11.2 15.5 11.4 Q15.3 11.55 15.15 11.55 L14.85 11.5 14.8 11.55 14.7 11.9 14.7 12.05 Q14.65 12.1 14.6 12.1 L14.5 12.1 14.45 12.05 14.4 12.1 14.35 12.1 14.3 12.1 14.25 12.05 14.3 11.95 14.3 11.85 14.3 11.65 14.35 11.55 14.4 11.45 14.45 11.3 14.5 11.2 14.5 11.15 14.55 11.05 14.6 10.95 14.65 10.85 14.75 10.75 15.05 10.7 15.15 10.65 15.3 10.7 15.5 10.8 15.7 10.85 15.85 10.85 15.95 10.85 16.05 10.8 16.2 10.8 16.25 10.7 16.25 10.55 16.2 10.4 16.15 10.3 16.1 10.3 16.0 10.35 Q15.95 10.35 15.9 10.35 L15.65 10.25 Q15.5 10.2 15.3 10.3 L15.15 10.3 15.25 10.2 15.35 10.05 15.3 9.9 15.25 9.8 15.1 9.75 15.0 9.9 14.8 9.85 14.9 9.7 15.05 9.6 15.05 9.5 15.1 9.45 15.2 9.5 15.3 9.6 15.45 9.7 15.55 9.9 15.65 9.95 15.75 10.05 15.85 10.05 15.95 10.1 16.1 10.1 16.05 10.05 16.05 9.95 16.1 9.85 16.1 9.7 16.0 9.5 15.95 9.4 15.85 9.3 15.8 9.25 15.75 9.15 15.7 9.05 15.65 9.0 15.65 8.9 Q15.5 8.75 15.3 8.7 L15.2 8.75 15.15 8.7 14.9 8.6 14.9 8.55 14.55 8.35 14.5 8.3 14.5 8.2 14.45 8.2 14.35 8.25 14.3 8.15 14.4 8.1 14.5 8.15 14.85 8.25 14.95 8.35 15.1 8.35 15.3 8.45 15.4 8.4 15.5 8.35 15.55 8.35 15.6 8.4 15.6 8.5 15.65 8.55 15.65 8.6 15.75 8.65 15.8 8.7 15.9 8.75 16.0 8.75 16.05 8.85 16.1 8.9 16.15 8.95 16.2 8.95 16.3 9.1 16.45 9.25 16.6 9.35 16.9 9.55 17.0 9.65 17.05 9.8 17.35 10.0 17.45 10.1 17.6 10.2 17.6 10.35 17.7 10.4 17.75 10.5 17.8 10.6 17.85 10.7 17.85 10.85 17.9 10.95 17.9 11.15 17.85 11.35 17.95 11.45 18.0 11.6 17.95 11.8 17.95 11.95 17.95 12.45 17.9 12.65 17.9 12.95 17.85 13.1 Q17.75 13.15 17.75 13.2 17.8 13.35 17.7 13.55 L17.65 13.65 Q17.65 13.7 17.65 13.75 L17.7 13.85 17.8 13.85 17.9 13.85 17.9 14.0 17.85 14.1 17.8 14.2 17.75 14.3 17.7 14.3 17.65 14.35 Q17.55 14.45 17.55 14.55 L17.55 14.8 17.45 14.8 17.45 14.95 17.4 15.05 16.85 14.85 16.8 14.85 16.7 14.8 16.6 14.7 16.5 14.7 16.4 14.7 16.6 14.8 16.55 14.8 16.35 14.75 16.2 14.75 16.25 14.7 16.1 14.75 15.9 14.7 15.95 14.55 16.0 14.5 16.05 14.4 16.1 14.35 16.15 14.3 16.2 14.2 16.4 14.1 16.65 13.95 16.55 13.85 16.6 13.7 16.6 13.55 16.5 13.45 16.3 13.35 16.25 13.35 16.2 13.35 16.1 13.35 16.05 13.35 16.0 13.25 15.95 13.2 15.7 13.1 15.45 12.9 15.4 12.8 15.3 12.7 15.3 12.6 15.45 12.65 15.5 12.75 15.6 12.85 15.7 12.85 15.8 12.9 15.9 13.0 16.0 13.05 16.3 13.15 16.4 13.1 16.55 13.05 Q16.7 13.0 16.8 12.85 L16.85 12.7 16.9 12.6 16.9 12.1 16.95 12.05 16.95 11.9 16.9 11.85 16.9 11.6 16.85 11.35 16.8 11.15 16.85 10.95 16.8 10.75 16.8 10.7 16.85 10.7 16.9 10.7 16.95 10.75 17.0 10.8 17.05 10.85 17.1 10.95 17.1 11.05 17.1 11.2 17.1 11.4 17.15 11.8 17.15 11.95 17.25 12.05 17.25 12.15 17.2 12.35 17.15 12.55 17.05 12.75 16.95 12.95 16.9 13.0 16.8 13.1 16.75 13.25 Q16.75 13.3 16.85 13.35 L16.95 13.5 17.0 13.65 17.05 13.75 17.1 13.85 17.2 13.95 17.2 13.85 17.3 13.4 17.3 13.15 17.4 13.25 17.45 13.05 17.45 12.7 17.4 12.65 17.45 12.5 17.5 12.35 17.5 12.2 17.45 12.05 17.45 11.95 17.45 11.5 17.45 11.35 17.5 11.3 17.45 11.15 17.4 11.05 17.35 11.0 17.35 10.95 17.4 10.9 17.45 10.9 17.4 10.7 17.4 10.65 17.35 10.6 17.45 10.6 17.55 10.65 17.45 10.5 17.3 10.35 17.3 10.3 17.35 10.2 17.3 10.15 17.15 10.15 17.0 10.1 16.95 10.05 16.95 9.95 16.85 9.95 16.75 9.95 16.75 10.0 16.8 10.15 16.85 10.25 16.8 10.35 16.7 10.35 M16.3 11.7 L16.45 11.65 16.45 11.95 16.4 12.1 16.35 12.2 16.3 12.25 16.25 12.3 16.15 12.35 16.0 12.35 15.95 12.35 15.8 12.3 15.6 12.3 15.7 12.1 15.75 12.0 15.8 11.95 15.85 11.95 15.9 11.95 15.95 12.0 16.0 12.0 16.1 11.9 16.2 11.85 16.25 11.8 16.3 11.7 M16.65 14.15 L16.55 14.2 16.5 14.35 16.4 14.35 16.3 14.4 16.3 14.55 16.5 14.55 16.7 14.6 16.6 14.4 16.65 14.35 Q16.65 14.25 16.75 14.15 L16.7 14.15 16.65 14.15 M18.65 16.85 L18.7 17.05 18.7 16.85 18.65 16.85 M17.3 15.45 L17.25 15.55 17.2 15.65 17.05 15.75 16.9 15.8 16.75 15.85 16.6 15.85 16.45 15.75 16.3 15.6 16.2 15.5 16.05 15.4 16.0 15.35 15.9 15.25 15.9 15.2 15.95 15.15 16.1 15.2 16.25 15.3 16.1 15.15 16.2 15.05 16.1 15.05 16.05 14.9 Q16.15 14.85 16.25 14.9 L16.4 14.95 16.55 15.05 16.6 15.1 16.7 15.4 16.75 15.2 16.8 15.2 17.05 15.3 Q17.2 15.4 17.3 15.45 M8.7 7.65 L8.7 7.7 8.6 7.7 8.6 7.6 8.55 7.5 8.6 7.5 8.65 7.5 8.7 7.55 8.7 7.65 M9.15 10.2 L9.2 10.1 9.25 9.95 9.25 9.9 9.15 9.9 9.1 9.9 9.05 10.0 9.0 10.05 8.85 10.1 8.7 10.1 8.65 10.15 8.7 10.25 8.7 10.3 8.55 10.45 8.45 10.6 8.55 10.55 8.65 10.55 8.6 10.6 8.6 10.65 8.55 10.85 8.6 10.85 8.65 10.9 8.65 10.95 8.6 11.0 8.55 11.1 8.5 11.25 8.55 11.3 8.55 11.45 8.55 11.9 8.55 12.0 8.5 12.15 8.5 12.3 8.55 12.45 8.6 12.6 8.55 12.7 8.55 13.0 8.6 13.2 8.7 13.1 8.7 13.35 8.8 13.8 8.8 13.9 8.9 13.8 8.95 13.7 9.0 13.6 9.05 13.45 9.15 13.35 9.25 13.2 9.2 13.05 9.1 12.95 9.05 12.9 8.95 12.7 8.85 12.5 8.8 12.3 8.75 12.1 8.75 12.0 8.85 11.9 8.85 11.75 8.9 11.35 8.9 11.15 8.9 10.95 8.9 10.9 8.95 10.8 9.0 10.75 9.05 10.7 9.1 10.65 9.15 10.65 9.2 10.65 9.2 10.7 9.25 10.7 9.15 10.9 9.2 11.1 9.15 11.3 9.1 11.55 9.1 11.8 9.05 11.85 9.05 11.95 9.1 12.05 9.1 12.3 Q9.1 12.45 9.1 12.55 L9.15 12.65 9.2 12.8 Q9.3 12.95 9.45 13.0 L9.6 13.05 9.7 13.05 9.85 13.05 10.0 13.0 10.1 12.95 10.25 12.85 10.3 12.8 10.4 12.8 10.5 12.7 10.55 12.6 10.7 12.55 10.75 12.65 10.6 12.75 10.55 12.8 10.3 13.05 10.15 13.1 10.05 13.15 10.0 13.2 10.0 13.3 9.9 13.3 9.8 13.25 9.75 13.3 9.7 13.3 9.6 13.35 9.5 13.4 9.4 13.5 9.4 13.65 9.45 13.8 9.35 13.9 9.8 14.15 9.85 14.25 9.9 14.3 9.95 14.35 10.0 14.45 10.05 14.5 10.1 14.65 9.9 14.65 9.75 14.65 9.8 14.7 9.65 14.7 9.45 14.75 9.4 14.75 9.6 14.65 9.5 14.65 9.4 14.65 9.3 14.75 9.25 14.8 9.15 14.85 8.75 14.95 8.6 15.0 8.55 14.85 8.55 14.75 8.45 14.75 8.45 14.5 8.35 14.25 8.3 14.25 8.25 14.25 8.2 14.15 8.15 14.05 8.1 13.9 8.1 13.8 Q8.1 13.7 8.15 13.65 8.2 13.6 8.3 13.6 L8.25 13.65 8.25 13.75 8.15 13.8 8.1 13.8 8.2 13.8 8.3 13.8 8.35 13.65 8.35 13.6 8.3 13.5 Q8.2 13.3 8.25 13.15 L8.2 13.0 8.1 12.9 8.1 12.6 8.05 12.4 8.05 12.15 8.1 11.9 8.05 11.75 8.05 11.4 8.15 11.25 8.15 10.9 8.15 10.8 8.2 10.65 8.2 10.55 8.25 10.45 8.3 10.35 8.4 10.3 8.4 10.15 8.55 10.05 8.65 9.95 8.8 9.85 8.95 9.7 9.0 9.6 9.1 9.5 9.25 9.4 9.4 9.3 9.55 9.2 9.7 9.05 9.8 8.9 9.9 8.9 9.9 8.85 9.95 8.75 10.0 8.7 10.1 8.7 10.2 8.65 10.25 8.6 10.3 8.55 10.35 8.55 10.4 8.45 10.4 8.35 10.45 8.3 10.55 8.3 10.6 8.35 10.7 8.4 10.8 8.35 10.9 8.3 11.05 8.25 11.15 8.2 11.3 8.15 11.5 8.1 11.6 8.05 11.7 8.1 11.65 8.2 11.6 8.15 11.55 8.15 11.5 8.25 11.45 8.3 11.3 8.4 11.1 8.55 11.0 8.55 10.85 8.65 10.8 8.7 10.7 8.65 Q10.5 8.7 10.3 8.85 L10.35 8.95 10.3 9.0 10.25 9.1 10.2 9.2 10.15 9.25 10.05 9.35 10.0 9.4 9.9 9.65 9.9 9.8 9.95 9.9 9.95 10.0 9.9 10.05 10.05 10.05 10.15 10.0 10.25 10.0 10.35 9.9 10.45 9.8 10.55 9.65 10.7 9.55 10.8 9.45 10.9 9.35 10.9 9.45 10.95 9.55 11.1 9.65 Q11.15 9.7 11.2 9.8 L11.0 9.85 10.9 9.7 10.75 9.75 10.7 9.8 Q10.65 9.9 10.65 10.0 L10.75 10.1 10.85 10.25 10.7 10.25 Q10.5 10.15 10.35 10.2 L10.2 10.25 10.1 10.3 10.0 10.3 9.9 10.25 Q9.85 10.25 9.85 10.25 L9.8 10.35 9.75 10.5 9.75 10.65 9.8 10.75 9.95 10.75 10.05 10.8 10.15 10.8 10.3 10.8 10.5 10.75 10.6 10.7 Q10.65 10.65 10.75 10.65 L10.85 10.6 10.95 10.65 11.25 10.7 11.35 10.8 11.4 10.9 11.45 11.0 11.5 11.1 11.5 11.15 11.55 11.25 11.6 11.4 11.65 11.5 11.7 11.55 11.7 11.8 11.7 11.9 11.75 12.0 11.7 12.05 11.65 12.05 11.6 12.05 11.6 12.0 11.5 12.05 11.4 12.05 Q11.35 12.05 11.3 12.0 L11.3 11.85 11.25 11.5 11.2 11.5 11.15 11.45 10.85 11.5 Q10.7 11.5 10.5 11.35 L10.35 11.15 10.2 10.95 10.1 10.95 10.05 11.15 10.15 11.25 10.35 11.5 Q10.45 11.6 10.7 11.7 L10.75 11.8 10.7 11.85 10.6 11.9 10.45 11.9 10.35 11.85 10.3 11.8 10.25 11.75 10.15 11.7 10.1 11.6 10.0 11.55 9.95 11.5 9.9 11.4 9.85 11.35 9.75 11.3 9.75 11.2 9.8 11.1 9.7 11.1 9.65 11.15 9.6 11.25 9.45 11.4 9.45 10.85 9.5 10.7 9.55 10.6 9.6 10.5 9.6 10.3 9.6 10.2 9.65 10.05 9.6 10.05 9.5 10.1 9.4 10.2 9.3 10.3 9.2 10.3 9.15 10.2 M12.6 9.85 L12.6 10.05 Q12.6 10.15 12.6 10.25 12.65 10.4 12.75 10.4 L12.75 10.5 Q12.75 10.65 12.65 10.65 L12.55 10.65 Q12.45 10.65 12.4 10.7 L12.25 10.75 12.25 10.55 12.1 10.55 12.05 10.65 12.05 10.7 11.9 10.7 11.75 10.6 Q11.7 10.55 11.7 10.45 L11.65 10.5 11.55 10.5 11.45 10.4 11.55 10.35 11.75 10.35 Q11.9 10.35 11.95 10.4 L11.95 10.45 12.05 10.45 12.1 10.45 12.1 10.3 12.1 10.2 12.2 10.2 Q12.3 10.2 12.3 10.15 L12.3 10.05 12.25 9.9 12.4 9.9 12.6 9.85 M13.6 9.85 L13.55 9.8 13.75 9.8 13.95 9.8 13.9 9.95 13.85 10.05 Q13.85 10.1 13.95 10.1 L14.1 10.1 14.05 10.2 14.05 10.4 14.15 10.4 14.2 10.4 14.25 10.35 Q14.25 10.25 14.4 10.25 L14.75 10.35 14.7 10.35 14.6 10.4 14.55 10.4 14.45 10.4 14.4 10.5 14.25 10.65 14.15 10.65 14.15 10.6 14.05 10.45 13.9 10.45 13.9 10.6 13.95 10.7 13.9 10.7 Q13.85 10.7 13.8 10.65 L13.65 10.55 13.5 10.55 Q13.4 10.55 13.4 10.45 L13.4 10.3 13.5 10.3 13.45 10.25 13.45 10.1 13.5 10.05 13.6 10.0 13.6 9.85 M5.05 4.35 L5.0 4.35 5.05 4.35 M15.25 10.75 L15.3 10.8 Q15.35 10.8 15.4 10.75 L15.25 10.75 M12.95 14.15 L13.0 14.15 13.05 14.15 13.05 14.2 13.0 14.25 13.0 14.3 13.05 14.35 13.1 14.4 13.2 14.5 Q13.4 14.4 13.5 14.4 L13.75 14.4 13.95 14.4 14.0 14.35 14.05 14.25 14.1 14.15 14.15 14.1 14.2 14.1 14.2 14.3 14.1 14.45 13.95 14.65 13.7 14.8 13.6 14.85 Q13.5 14.85 13.5 14.9 L13.45 15.0 13.35 15.05 Q13.15 15.1 13.05 15.25 L13.05 15.4 13.1 15.45 13.2 15.6 13.3 15.75 13.45 15.9 13.65 16.0 13.75 16.1 Q13.85 16.15 13.9 16.15 13.9 16.25 13.85 16.35 L13.8 16.55 13.95 16.75 Q14.0 16.65 14.05 16.6 14.05 16.55 14.1 16.45 L14.15 16.35 14.1 16.25 14.1 16.0 14.25 15.95 14.4 15.85 14.6 15.85 14.7 15.9 14.8 15.85 14.9 15.9 14.95 16.0 15.0 16.05 15.0 16.2 15.05 16.25 15.15 16.4 15.0 16.3 14.9 16.2 14.8 16.1 14.7 16.0 14.85 16.25 14.95 16.4 15.05 16.55 15.2 16.8 15.35 17.05 15.35 17.15 Q15.25 17.25 15.2 17.3 L15.15 17.4 15.15 17.45 15.1 17.55 15.05 17.6 Q15.0 17.6 14.95 17.55 L14.9 17.5 Q14.85 17.45 14.8 17.4 L14.7 17.45 14.6 17.45 14.55 17.45 14.1 17.35 13.9 17.3 13.8 17.3 13.7 17.3 13.55 17.3 13.4 17.35 13.3 17.4 13.2 17.35 13.1 17.25 13.1 17.3 Q13.05 17.4 13.1 17.45 L13.1 17.65 13.0 17.65 13.0 17.55 13.0 17.5 12.95 17.45 12.95 17.55 12.9 17.55 12.95 17.4 12.9 17.25 12.9 17.2 12.8 17.3 12.7 17.3 12.6 17.3 12.45 17.25 12.3 17.25 12.2 17.25 12.1 17.25 11.9 17.3 11.7 17.35 11.45 17.4 11.4 17.4 11.3 17.4 11.2 17.35 Q11.15 17.4 11.1 17.45 L11.05 17.5 Q11.0 17.55 10.95 17.55 L10.9 17.45 10.85 17.4 10.85 17.35 10.8 17.25 10.65 17.1 10.65 17.0 10.8 16.75 10.95 16.5 11.05 16.35 11.15 16.2 11.3 15.95 11.2 16.05 11.1 16.15 11.0 16.25 10.85 16.35 10.95 16.2 11.0 16.15 11.0 16.0 11.05 15.95 11.15 15.85 Q11.15 15.8 11.2 15.8 L11.3 15.8 11.4 15.8 11.6 15.8 11.75 15.9 11.9 15.95 11.9 16.2 11.85 16.3 11.9 16.4 11.95 16.55 12.1 16.7 12.2 16.5 12.15 16.35 Q12.1 16.2 12.1 16.1 12.15 16.1 12.25 16.05 L12.4 15.95 12.45 15.9 12.55 15.85 12.7 15.7 12.8 15.55 12.9 15.4 12.95 15.35 12.95 15.2 Q12.85 15.05 12.65 15.0 L12.55 14.95 12.5 14.85 12.45 14.8 12.3 14.75 12.05 14.6 11.9 14.4 11.8 14.25 11.8 14.05 Q11.8 14.05 11.85 14.05 L11.9 14.1 11.95 14.15 12.0 14.3 12.05 14.35 12.25 14.35 12.5 14.35 Q12.6 14.35 12.8 14.45 L12.9 14.35 12.95 14.3 12.95 14.15 M10.7 10.75 L10.75 10.7 10.6 10.7 Q10.65 10.75 10.7 10.75 M9.8 11.8 L9.9 11.9 10.0 11.95 10.05 11.95 10.1 11.9 10.15 11.9 10.25 11.9 10.3 11.95 10.3 12.05 10.4 12.25 10.2 12.25 Q10.1 12.25 10.05 12.3 L10.0 12.3 9.85 12.3 Q9.8 12.3 9.75 12.25 L9.7 12.2 9.65 12.15 9.6 12.05 9.55 11.9 9.55 11.6 9.7 11.65 9.75 11.75 9.8 11.8 M10.2 12.8 L10.1 12.75 10.05 12.65 10.2 12.6 10.3 12.6 10.35 12.65 10.4 12.7 Q10.3 12.8 10.2 12.8 M10.05 14.15 L10.0 14.05 10.0 14.0 10.1 13.95 10.25 13.85 10.3 13.8 10.35 13.7 Q10.45 13.65 10.55 13.65 L10.5 13.8 Q10.5 13.9 10.35 13.95 L10.3 14.05 10.25 14.15 10.1 14.2 10.05 14.15 M9.3 14.1 L9.25 14.1 Q9.35 14.2 9.35 14.3 L9.4 14.3 9.3 14.55 9.5 14.5 9.7 14.45 9.7 14.35 9.6 14.3 9.5 14.3 9.45 14.15 9.35 14.1 9.3 14.1 M11.15 16.4 L11.3 16.25 Q11.25 16.25 11.2 16.3 L11.15 16.4 M10.05 15.1 L10.1 15.15 10.1 15.2 10.0 15.25 9.95 15.35 9.8 15.45 9.7 15.55 9.55 15.7 9.4 15.8 9.25 15.8 8.95 15.7 8.8 15.6 8.75 15.5 8.7 15.4 8.95 15.25 9.2 15.15 9.25 15.15 9.3 15.35 9.4 15.05 9.45 15.0 9.6 14.9 9.75 14.85 9.95 14.85 9.9 14.95 9.8 15.0 9.9 15.1 9.75 15.25 9.9 15.15 10.05 15.1 M8.95 17.8 L9.0 17.85 8.95 18.0 8.85 18.15 8.75 18.2 8.75 18.1 8.75 17.9 8.8 17.85 Q8.85 17.8 8.9 17.8 L8.95 17.8 M14.75 16.3 L14.85 16.45 14.8 16.35 14.75 16.3 M12.95 14.95 L12.9 14.7 Q12.8 14.8 12.85 14.95 L12.95 14.95 M13.05 15.0 L13.15 15.0 Q13.2 14.85 13.1 14.75 L13.05 14.95 13.05 15.0" fill="#101010" fill-rule="evenodd" stroke="none"/>
    <path d="M16.55 6.55 L16.6 6.55 16.55 6.7 16.5 6.75 16.45 6.85 16.35 6.85 16.3 6.85 16.3 6.75 16.45 6.65 16.55 6.55 M7.5 10.2 L7.45 10.25 7.4 10.15 7.5 10.2 M7.85 17.5 L7.9 17.35 Q8.0 17.2 8.05 17.15 8.15 17.25 8.1 17.35 L8.0 17.55 7.95 17.65 7.9 17.6 7.85 17.5 M8.0 17.7 L8.05 17.65 8.15 17.5 8.15 17.65 8.1 17.9 8.05 18.05 8.05 17.8 8.0 17.7 M9.95 19.2 L9.9 19.05 9.9 18.85 10.05 18.75 10.15 18.9 10.2 19.05 10.15 19.3 9.95 19.2 M17.95 18.1 L17.9 17.95 17.85 17.7 Q17.85 17.6 17.85 17.55 L18.0 17.7 18.0 17.75 18.05 17.8 18.0 17.8 17.95 17.85 17.95 18.1 M17.4 7.55 L17.45 7.55 17.4 7.65 17.4 7.75 17.3 7.75 17.3 7.65 17.3 7.55 17.4 7.55 M17.9 13.85 L17.85 13.85 17.75 13.8 17.75 13.75 17.7 13.65 17.85 13.7 17.9 13.85 M17.0 15.0 L17.05 15.0 17.3 15.15 17.3 15.35 17.25 15.3 17.15 15.3 17.1 15.25 16.95 15.2 16.85 15.1 17.0 15.0 M17.25 18.0 L17.25 18.25 17.15 18.2 17.05 18.05 17.0 17.9 17.05 17.85 17.1 17.85 Q17.15 17.85 17.2 17.9 L17.25 17.95 17.25 18.0 M17.0 18.1 L17.1 18.25 17.2 18.45 17.05 18.5 17.05 18.45 16.95 18.2 17.0 18.1 M11.95 7.75 L11.85 7.8 11.7 7.75 11.55 7.75 11.45 7.7 11.3 7.7 11.05 7.7 10.8 7.7 10.8 7.55 10.9 7.55 10.95 7.55 11.05 7.55 11.15 7.5 11.4 7.5 11.45 7.5 11.6 7.5 11.75 7.55 11.85 7.55 11.9 7.55 12.1 7.55 Q12.2 7.6 12.3 7.65 L12.3 7.7 12.15 7.7 12.05 7.7 11.95 7.75 M11.55 8.6 L11.6 8.55 11.65 8.55 11.9 8.55 11.85 8.6 11.7 8.65 11.55 8.7 11.5 8.75 11.45 8.75 11.35 8.8 11.3 8.85 11.2 8.85 11.1 8.85 11.0 8.9 10.9 8.95 10.8 8.95 10.8 8.9 10.95 8.8 11.05 8.75 11.1 8.75 11.25 8.7 11.4 8.65 11.55 8.6 M13.7 7.7 L13.9 7.6 13.95 7.6 Q14.05 7.55 14.1 7.6 L14.2 7.6 14.25 7.6 14.4 7.55 14.55 7.55 14.85 7.55 14.95 7.6 15.05 7.6 15.1 7.6 15.2 7.6 15.2 7.75 14.95 7.75 14.7 7.75 14.55 7.75 14.45 7.8 14.3 7.85 14.15 7.85 14.05 7.8 Q14.0 7.75 13.95 7.75 L13.85 7.75 13.7 7.75 13.7 7.7 M13.3 8.5 L13.3 8.55 13.25 8.6 13.25 8.7 13.05 8.65 13.1 8.55 Q13.2 8.5 13.3 8.5 M14.15 8.65 L14.1 8.6 14.1 8.55 14.25 8.55 14.35 8.6 14.6 8.7 14.9 8.8 15.0 8.8 15.05 8.85 15.2 8.95 15.2 9.0 15.1 9.0 14.9 8.9 14.8 8.9 14.7 8.9 14.65 8.85 14.55 8.8 14.5 8.8 14.45 8.75 14.15 8.65 M12.7 8.45 Q12.85 8.45 12.95 8.55 L12.95 8.6 12.8 8.65 12.75 8.55 12.7 8.45 M13.0 9.2 L13.0 9.25 12.95 9.3 12.95 9.2 13.0 9.2 M12.4 8.8 L12.3 8.8 12.25 8.75 12.3 8.7 Q12.35 8.65 12.45 8.7 L12.55 8.8 12.4 8.8 M13.75 8.8 L13.7 8.85 13.6 8.85 13.45 8.85 13.55 8.75 Q13.65 8.7 13.7 8.75 L13.75 8.8 M12.95 14.15 L12.95 14.15 M15.9 12.7 L15.9 12.8 15.8 12.85 15.65 12.75 15.65 12.7 15.7 12.65 15.8 12.65 15.9 12.7 M16.0 14.05 L16.0 14.15 15.9 14.25 15.75 14.2 15.7 14.1 15.65 14.0 Q15.5 13.95 15.5 13.85 L15.45 13.7 Q15.55 13.7 15.65 13.75 L15.7 13.85 15.75 13.9 16.0 14.05 M11.9 15.15 L11.9 15.2 11.35 15.15 11.3 15.15 11.2 15.15 11.1 15.1 11.0 15.1 10.95 15.05 10.9 15.0 10.9 14.95 11.0 14.9 11.05 14.95 11.15 14.95 11.2 14.95 11.5 15.05 11.9 15.15 M11.2 15.45 L11.25 15.45 11.3 15.45 11.3 15.5 11.15 15.5 10.95 15.55 10.95 15.4 11.2 15.45 M10.85 15.85 L10.9 15.85 10.9 15.8 11.15 15.8 11.0 15.9 10.9 16.0 10.8 16.05 10.85 15.95 10.85 15.85 M9.15 15.05 L9.05 15.15 8.9 15.2 8.85 15.25 8.75 15.25 8.7 15.25 8.7 15.05 8.95 14.95 9.0 14.95 9.15 15.05 M15.1 15.0 L15.1 15.1 15.05 15.1 15.0 15.15 14.9 15.2 14.8 15.2 14.75 15.2 14.65 15.2 14.1 15.25 14.1 15.2 14.3 15.15 14.55 15.1 14.65 15.05 14.8 15.0 14.85 15.0 14.95 15.0 15.0 14.95 15.1 15.0 M14.8 15.5 L15.05 15.45 15.05 15.6 14.85 15.55 14.7 15.55 14.7 15.5 14.75 15.5 14.8 15.5 M15.1 15.85 L15.1 15.9 15.15 15.9 15.15 16.0 15.2 16.1 15.1 16.05 15.0 15.95 14.85 15.85 15.1 15.85" fill="#000000" fill-rule="evenodd" stroke="none"/>
    <path d="M12.95 14.95 L12.85 14.95 Q12.8 14.8 12.9 14.7 L12.95 14.95 M13.05 15.0 L13.05 14.95 13.1 14.75 Q13.2 14.85 13.15 15.0 L13.05 15.0" fill="#232323" fill-rule="evenodd" stroke="none"/>
    <path d="M18.3 8.55 L18.3 8.45 18.2 8.4 18.45 8.35 18.45 8.3 18.3 8.3 18.3 8.0 18.4 7.8 18.45 7.6 18.4 7.55 18.35 7.65 18.25 7.65 18.35 7.55 18.3 7.45 18.3 7.3 18.25 7.2 18.65 6.45 Q18.8 6.1 19.15 5.95 L19.2 5.95 19.65 6.35 Q20.25 6.95 20.75 7.6 L20.3 7.8 Q19.7 8.1 19.2 8.55 18.85 8.85 18.6 9.2 L18.15 9.6 18.15 9.4 18.25 9.4 18.2 9.3 18.2 9.25 18.25 9.1 18.25 8.95 18.1 8.95 Q18.25 8.95 18.25 8.85 L18.3 8.7 18.3 8.55 M17.55 6.2 L17.2 6.2 17.05 6.25 Q16.95 6.25 16.85 6.3 L16.8 6.35 16.65 6.45 16.55 6.55 16.45 6.65 16.3 6.75 16.3 6.8 16.2 6.9 16.2 7.0 16.05 7.15 16.0 7.25 15.95 7.35 15.95 7.2 Q15.85 7.15 15.75 7.15 L15.6 7.2 15.6 7.1 Q15.65 5.85 15.55 4.6 15.55 4.25 15.75 3.95 17.2 4.4 18.5 5.3 18.25 5.5 18.05 5.7 L17.55 6.2 M14.45 6.75 L14.4 6.75 Q14.3 6.7 14.25 6.75 L14.15 6.9 14.2 7.0 14.15 7.0 14.05 7.0 14.0 6.95 13.95 6.9 13.85 6.9 13.7 6.9 13.55 6.9 13.45 6.85 Q13.0 5.75 12.5 4.7 12.35 4.35 12.4 3.95 L12.45 3.6 12.95 3.55 14.85 3.75 Q14.7 4.0 14.65 4.25 14.3 5.3 14.4 6.45 L14.45 6.75 M12.15 6.85 L12.05 6.85 12.0 6.9 11.95 6.95 11.9 6.95 11.8 6.95 11.85 6.8 11.75 6.7 Q11.7 6.65 11.6 6.7 11.55 6.7 11.5 6.75 L11.4 6.9 11.35 6.95 11.25 6.95 11.1 7.0 11.0 7.05 11.0 7.1 10.95 7.1 10.65 6.7 Q9.85 5.75 9.0 4.85 L8.75 4.5 Q10.05 3.85 11.55 3.65 11.45 4.15 11.5 4.7 11.65 5.8 12.15 6.8 L12.15 6.85 M8.6 6.15 L8.45 6.15 8.4 6.3 8.35 6.35 8.35 6.4 8.15 6.5 Q8.1 6.55 8.05 6.65 L8.0 6.8 8.0 6.85 7.95 6.85 7.9 6.9 7.85 6.95 7.8 7.1 7.7 7.25 7.7 7.3 7.75 7.4 7.65 7.5 7.75 7.6 7.65 7.6 7.65 7.5 7.55 7.55 7.55 7.6 6.35 7.05 Q6.05 6.9 5.85 6.7 L6.2 6.35 6.3 6.3 Q7.05 5.5 7.95 4.95 L8.0 5.15 Q8.25 5.7 8.6 6.15 M7.75 9.0 L7.75 9.05 7.8 9.15 7.8 9.25 7.75 9.35 7.85 9.35 7.85 9.55 7.8 9.65 7.75 9.7 7.75 9.85 7.65 9.9 7.7 9.95 7.6 10.1 7.5 10.2 7.4 10.15 7.35 10.15 7.3 10.15 Q6.1 9.85 4.9 9.7 4.45 9.65 4.2 9.35 L4.15 9.3 Q4.35 8.95 4.5 8.55 4.85 7.95 5.3 7.4 L5.6 7.7 Q6.15 8.2 6.8 8.55 7.15 8.75 7.5 8.85 L7.75 9.0 M6.95 11.3 L6.95 11.35 6.9 11.45 6.8 11.55 6.85 11.65 6.9 11.75 6.85 11.8 6.75 11.8 6.65 11.8 6.6 11.9 6.65 11.9 6.7 11.85 6.9 11.95 6.8 12.25 6.8 12.3 6.45 12.4 Q5.25 12.75 4.1 13.2 3.75 13.35 3.4 13.3 L3.4 13.1 Q3.4 11.55 3.8 10.2 L4.3 10.5 Q5.3 11.05 6.45 11.2 6.75 11.2 6.95 11.3 M6.75 13.55 L6.75 13.75 6.75 13.9 6.7 14.0 6.65 14.15 6.85 14.1 6.85 14.2 6.8 14.4 6.9 14.4 6.9 14.55 6.9 14.6 6.95 14.65 6.95 14.75 6.9 14.85 6.95 14.95 6.9 15.0 6.9 14.95 6.85 15.05 Q5.95 15.8 5.15 16.6 4.85 16.9 4.45 16.95 L4.2 16.95 Q3.6 15.65 3.45 14.2 L4.05 14.2 Q5.15 14.15 6.2 13.7 6.5 13.55 6.75 13.55 M7.35 16.15 L7.35 16.2 7.25 16.35 7.15 16.5 7.1 16.55 7.15 16.6 7.2 16.85 7.25 16.85 7.3 16.8 7.3 17.0 7.35 16.8 7.4 16.85 7.45 16.95 7.5 17.1 7.7 17.1 Q7.65 17.25 7.75 17.35 L7.8 17.45 7.75 17.6 7.85 17.5 7.9 17.6 7.95 17.65 7.9 17.75 7.75 18.05 7.7 18.35 7.6 18.5 7.55 18.65 7.55 18.75 7.65 18.6 7.7 18.4 7.85 18.05 7.95 17.8 8.0 17.7 8.05 17.8 8.05 18.05 8.05 18.2 8.05 18.35 8.05 18.2 8.1 18.05 8.15 18.1 8.25 18.1 Q7.85 18.95 7.55 19.85 7.45 20.2 7.1 20.4 L6.95 20.5 6.2 19.8 Q5.25 18.85 4.65 17.8 5.05 17.75 5.45 17.55 6.35 17.15 7.05 16.45 L7.1 16.5 7.25 16.35 7.35 16.15 M9.15 19.0 L9.2 19.0 9.3 18.95 9.35 18.95 9.4 18.95 9.45 18.95 9.6 19.1 9.65 19.1 9.7 19.15 9.75 19.2 9.8 19.2 Q9.85 19.15 9.85 19.15 L9.95 19.2 10.15 19.3 10.2 19.35 10.25 19.3 10.35 19.3 10.65 19.35 Q10.65 20.25 10.7 21.2 10.75 21.6 10.5 21.95 L10.3 22.25 Q8.95 21.9 7.7 21.05 L8.25 20.5 Q8.85 19.85 9.15 19.0 M11.9 19.75 L12.05 19.8 12.15 19.8 12.2 19.75 12.25 19.75 12.3 19.75 12.3 19.7 12.4 19.8 12.5 19.8 12.85 19.75 12.9 19.75 12.95 19.7 12.95 19.75 13.0 19.75 13.1 19.8 13.15 19.8 13.3 19.85 13.75 21.35 Q13.85 21.7 13.75 22.05 L13.55 22.6 12.95 22.6 11.25 22.45 Q11.5 22.05 11.65 21.6 11.9 20.7 11.9 19.75 M14.45 19.65 L14.5 19.65 14.55 19.55 14.55 19.5 Q14.6 19.45 14.65 19.45 L15.2 19.4 15.3 19.4 15.65 19.35 15.75 19.35 15.8 19.35 15.85 19.35 15.95 19.3 17.25 20.5 Q17.5 20.75 17.6 21.15 L17.65 21.4 Q16.2 22.25 14.55 22.5 14.7 22.0 14.7 21.45 14.75 20.55 14.45 19.65 M17.05 18.7 L17.1 18.65 17.25 18.55 17.3 18.55 17.3 18.5 17.35 18.45 17.45 18.4 Q17.45 18.35 17.5 18.35 L17.55 18.35 17.6 18.3 17.65 18.25 17.7 18.15 17.75 18.15 17.85 18.15 17.9 18.1 17.95 18.25 17.95 18.45 17.95 18.2 17.95 18.1 17.95 17.85 18.0 17.8 18.05 17.8 18.05 17.85 18.15 18.1 18.3 18.45 18.35 18.6 18.35 18.65 18.45 18.8 18.5 18.8 18.45 18.7 18.4 18.55 18.3 18.4 18.25 18.1 18.15 17.85 19.35 18.3 Q19.7 18.4 19.95 18.75 L20.25 19.2 19.75 19.75 19.65 19.8 18.45 20.85 Q18.35 20.5 18.15 20.1 17.7 19.35 17.05 18.7 M19.4 14.2 L19.3 14.05 19.25 14.0 19.25 13.8 19.25 13.7 19.3 13.55 19.3 13.3 19.25 13.15 19.3 13.1 19.35 13.1 19.35 13.0 19.6 12.9 Q20.8 12.45 21.9 11.9 L22.4 11.8 Q22.45 12.45 22.45 13.1 L22.4 14.1 21.65 13.95 Q20.5 13.85 19.4 14.2 M19.1 11.8 L19.15 11.7 19.2 11.6 19.1 11.5 19.05 11.4 Q19.05 11.4 19.05 11.35 L19.05 11.25 19.0 11.2 18.9 11.15 18.85 11.05 18.85 10.95 18.8 10.9 18.8 10.8 18.75 10.75 18.75 10.65 18.95 10.5 Q19.85 9.65 20.7 8.7 L20.85 8.55 Q21.0 8.4 21.25 8.35 L21.35 8.55 Q21.95 9.65 22.25 10.9 L21.9 10.95 Q20.8 11.05 19.8 11.6 19.45 11.75 19.1 11.8 M18.9 16.55 L18.95 16.5 18.95 16.3 19.0 16.2 19.05 16.1 Q19.05 15.95 19.15 15.8 L19.15 15.5 19.2 15.45 Q20.35 15.2 21.45 14.95 L22.2 15.0 22.3 15.05 Q21.95 16.9 20.85 18.45 20.5 17.95 20.05 17.55 19.5 17.1 18.85 16.85 L18.85 16.65 18.9 16.6 18.85 16.55 18.75 16.4 18.65 16.25 18.75 16.4 18.9 16.55" fill="#31281e" fill-rule="evenodd" stroke="none"/>
    <path d="M17.5 6.25 L17.55 6.25 17.6 6.3 17.6 6.35 17.55 6.4 17.45 6.35 17.4 6.25 17.45 6.25 17.5 6.25 M8.4 6.25 L8.45 6.2 8.55 6.2 8.6 6.2 8.45 6.35 8.4 6.3 8.4 6.25" fill="#090909" fill-rule="evenodd" stroke="none"/>
    <path d="M18.25 7.2 L18.3 7.3 18.3 7.45 18.35 7.55 18.25 7.65 18.35 7.65 18.4 7.55 18.45 7.6 18.4 7.8 18.3 8.0 18.3 8.3 18.45 8.3 18.45 8.35 18.2 8.4 18.3 8.45 18.3 8.55 18.0 8.6 18.0 8.55 17.95 8.5 17.8 8.4 Q17.75 8.35 17.75 8.3 L17.85 8.3 17.9 8.35 17.95 8.35 18.0 8.2 18.05 8.1 18.1 7.95 18.1 7.75 18.05 7.7 18.15 7.6 18.15 7.55 18.1 7.55 18.0 7.5 17.85 7.55 17.7 7.5 17.6 7.5 17.5 7.65 17.45 7.7 17.4 7.75 17.4 7.8 17.35 7.8 17.25 7.85 17.1 7.9 17.1 8.0 17.1 8.1 17.05 8.15 17.1 8.25 17.1 8.3 17.0 8.2 16.85 8.15 16.85 8.2 16.9 8.25 16.95 8.3 16.95 8.4 17.0 8.45 17.05 8.55 17.1 8.6 17.15 8.75 17.05 8.75 17.0 8.75 16.9 8.7 16.85 8.65 16.7 8.6 16.65 8.55 16.6 8.5 16.6 8.25 16.65 8.2 16.6 8.15 16.55 8.1 16.5 8.1 16.4 8.1 16.35 8.05 16.6 8.05 16.55 7.95 16.7 7.9 16.7 7.85 16.6 7.85 16.55 7.85 16.45 7.9 16.35 7.95 16.3 7.95 16.25 7.8 16.2 7.75 16.2 7.7 16.25 7.6 16.25 7.55 16.05 7.7 16.05 7.75 16.0 7.75 15.9 7.65 15.8 7.6 15.7 7.65 Q15.65 7.7 15.65 7.75 L15.75 7.9 16.0 8.05 16.1 8.15 16.15 8.25 16.15 8.3 16.25 8.45 16.35 8.45 16.45 8.5 16.45 8.6 16.5 8.65 16.55 8.7 16.55 8.8 16.6 8.9 16.75 9.0 16.8 9.1 16.9 9.15 16.95 9.1 17.0 9.05 17.1 9.1 17.15 9.05 17.2 9.15 17.45 9.2 17.45 9.3 17.5 9.35 17.5 9.4 17.6 9.45 17.6 9.7 17.7 9.7 17.85 9.65 Q17.85 9.55 17.95 9.5 L17.95 9.4 17.8 9.35 17.8 9.25 17.75 9.15 17.7 9.05 17.7 8.95 17.75 8.85 17.8 8.75 17.85 8.7 17.9 8.65 17.9 8.7 17.95 8.75 18.05 8.85 18.15 8.9 18.2 8.9 18.25 8.85 Q18.25 8.95 18.1 8.95 L18.25 8.95 18.25 9.1 18.2 9.25 18.2 9.3 18.25 9.4 18.15 9.4 18.15 9.6 18.2 9.7 18.25 9.8 18.3 9.85 18.25 9.9 18.35 9.95 18.35 10.05 18.4 10.15 18.55 10.3 18.65 10.2 18.65 10.4 18.7 10.55 18.7 10.6 18.75 10.65 18.75 10.75 18.8 10.8 18.8 10.9 18.85 10.95 18.85 11.05 18.9 11.15 19.0 11.2 19.05 11.25 19.05 11.35 Q19.05 11.4 19.05 11.4 L19.1 11.5 19.2 11.6 19.15 11.7 19.1 11.8 19.15 11.85 19.25 11.85 19.35 11.85 19.4 11.9 19.35 11.95 19.3 11.9 19.2 11.9 19.1 12.0 19.2 12.3 19.25 12.35 19.3 12.4 19.3 12.6 19.35 12.65 19.35 12.8 19.35 13.0 19.35 13.1 19.3 13.1 19.25 13.15 19.3 13.3 19.3 13.55 19.25 13.7 19.25 13.8 19.25 14.0 19.3 14.05 19.4 14.2 19.15 14.15 19.15 14.25 19.2 14.45 19.1 14.45 19.1 14.65 19.05 14.7 19.05 14.8 19.1 14.9 19.05 15.0 18.95 15.1 18.95 15.2 18.85 15.2 18.85 15.5 18.75 15.6 18.6 15.9 18.5 15.8 18.5 15.95 18.55 16.1 18.65 16.25 18.55 16.15 18.5 16.1 18.4 16.15 18.45 16.25 18.55 16.45 18.6 16.6 18.65 16.75 18.65 16.75 18.55 16.5 18.35 16.25 18.3 16.35 18.25 16.4 18.15 16.4 18.15 16.55 18.0 16.5 17.95 16.5 17.85 16.8 17.9 16.85 17.95 16.9 18.3 17.1 17.95 16.9 Q17.9 17.0 17.9 17.05 L18.1 17.35 18.2 17.5 18.3 17.65 18.25 17.65 18.15 17.55 18.1 17.4 17.95 17.2 Q17.85 17.35 17.9 17.4 L18.0 17.6 18.05 17.7 18.1 17.8 18.15 17.85 18.25 18.1 18.3 18.4 18.4 18.55 18.45 18.7 18.5 18.8 18.45 18.8 18.35 18.65 18.35 18.6 18.3 18.45 18.15 18.1 18.05 17.85 18.05 17.8 18.0 17.75 18.0 17.7 17.85 17.55 Q17.85 17.6 17.85 17.7 L17.9 17.95 17.95 18.1 17.95 18.2 17.95 18.45 17.95 18.25 17.9 18.1 17.85 18.15 17.75 18.15 17.7 18.15 17.65 18.25 17.6 18.3 17.55 18.35 17.5 18.35 Q17.45 18.35 17.45 18.4 L17.35 18.45 17.3 18.5 17.3 18.55 17.25 18.55 17.1 18.65 17.05 18.7 17.05 18.75 16.95 18.85 16.9 19.0 16.8 19.05 16.7 19.0 16.75 19.0 16.85 18.95 Q16.95 18.9 16.95 18.75 L16.85 18.6 16.8 18.45 16.8 18.4 16.75 18.4 16.65 18.45 16.55 18.45 Q16.45 18.45 16.45 18.5 16.45 18.7 16.55 18.9 L16.6 19.0 16.55 19.0 16.4 19.1 16.35 19.15 16.3 19.2 16.25 19.25 16.2 19.25 16.15 19.2 Q16.15 19.2 16.05 19.25 L16.1 19.1 16.1 18.9 15.95 18.8 15.85 18.95 15.8 19.1 15.8 19.15 Q15.8 19.25 15.85 19.35 L15.8 19.35 15.75 19.35 15.65 19.35 15.3 19.4 15.2 19.4 14.65 19.45 Q14.6 19.45 14.55 19.5 L14.55 19.55 14.5 19.65 14.45 19.65 14.4 19.6 14.35 19.6 14.2 19.7 14.2 19.8 14.1 19.8 13.95 19.85 13.85 19.85 13.8 19.8 13.75 19.8 13.7 19.8 13.7 19.75 13.6 19.85 13.5 19.85 13.3 19.85 13.15 19.8 13.1 19.8 13.0 19.75 13.0 19.7 12.95 19.6 12.95 19.7 12.9 19.75 12.85 19.75 12.5 19.8 12.4 19.8 12.3 19.7 12.3 19.75 12.25 19.75 12.2 19.75 12.15 19.8 12.05 19.8 11.9 19.75 11.8 19.7 11.8 19.65 Q11.7 19.55 11.65 19.55 L11.6 19.55 11.5 19.55 11.45 19.5 11.45 19.45 Q11.4 19.4 11.35 19.4 L10.8 19.35 10.7 19.35 10.65 19.35 10.35 19.3 10.25 19.3 10.2 19.35 10.15 19.3 10.2 19.05 10.15 18.9 10.05 18.75 9.9 18.85 9.9 19.05 9.95 19.2 9.85 19.15 Q9.85 19.15 9.8 19.2 L9.75 19.2 9.7 19.15 9.65 19.1 9.6 19.1 9.45 18.95 9.4 18.95 9.4 18.9 9.45 18.85 Q9.6 18.6 9.55 18.45 L9.45 18.4 9.35 18.4 9.2 18.35 9.15 18.55 9.1 18.7 Q9.05 18.85 9.15 18.9 L9.2 18.95 9.25 18.95 9.3 18.95 9.2 19.0 9.15 19.0 9.1 18.95 9.05 18.8 9.0 18.7 8.9 18.6 8.85 18.55 8.75 18.5 8.7 18.5 8.65 18.45 8.65 18.4 8.55 18.35 8.5 18.3 8.45 18.3 8.4 18.25 8.35 18.2 8.3 18.1 8.25 18.1 8.15 18.1 8.1 18.05 8.05 18.2 8.05 18.35 8.05 18.2 8.05 18.05 8.1 17.9 8.15 17.65 8.15 17.5 8.05 17.65 8.0 17.7 7.95 17.8 7.85 18.05 7.7 18.4 7.65 18.6 7.55 18.75 7.55 18.65 7.6 18.5 7.7 18.35 7.75 18.05 7.9 17.75 7.95 17.65 8.0 17.55 8.1 17.35 Q8.15 17.25 8.05 17.15 8.0 17.2 7.9 17.35 L7.85 17.5 7.75 17.6 7.8 17.45 7.9 17.3 8.1 17.0 8.05 16.85 7.85 16.95 7.7 17.05 Q7.85 16.9 8.05 16.85 L8.1 16.8 8.1 16.65 8.05 16.5 7.95 16.5 7.9 16.5 7.85 16.6 7.8 16.5 7.8 16.45 7.7 16.45 7.7 16.35 7.65 16.2 7.45 16.45 7.35 16.7 7.4 16.55 7.45 16.35 7.55 16.2 7.6 16.1 7.5 16.05 7.45 16.1 7.35 16.2 7.35 16.15 7.4 16.15 7.45 16.05 7.5 15.85 7.5 15.75 7.4 15.8 Q7.3 15.7 7.25 15.55 7.2 15.5 7.15 15.35 L7.15 15.15 7.05 15.15 7.05 15.05 6.95 14.95 6.9 14.85 6.95 14.75 6.95 14.65 6.9 14.6 6.9 14.55 6.9 14.4 6.8 14.4 6.85 14.2 6.85 14.1 6.65 14.15 6.7 14.0 6.75 13.9 6.75 13.75 6.75 13.55 6.7 13.5 6.7 13.25 6.75 13.1 6.7 13.05 6.65 13.05 6.65 12.85 6.65 12.65 6.65 12.55 6.7 12.45 6.7 12.35 6.75 12.3 6.8 12.3 6.8 12.25 6.9 11.95 6.7 11.85 6.65 11.9 6.6 11.9 6.65 11.8 6.75 11.8 6.85 11.8 6.9 11.75 6.85 11.65 6.8 11.55 6.9 11.45 6.95 11.35 6.95 11.3 6.95 11.2 7.0 11.15 7.1 11.1 7.15 11.0 7.15 10.9 7.2 10.85 7.2 10.75 7.25 10.65 7.25 10.6 7.3 10.55 7.3 10.5 7.35 10.35 7.35 10.15 7.4 10.15 7.45 10.25 7.5 10.2 7.6 10.1 7.7 9.95 7.65 9.9 7.75 9.85 7.75 9.7 7.8 9.65 7.85 9.55 7.85 9.35 7.75 9.35 7.8 9.25 7.8 9.15 7.75 9.05 7.75 9.0 7.75 8.9 7.9 8.9 Q7.75 8.9 7.75 8.8 L7.8 8.85 7.85 8.85 7.95 8.8 8.05 8.7 8.1 8.65 8.1 8.55 8.15 8.65 8.2 8.7 8.25 8.8 8.3 8.9 8.3 9.0 8.25 9.1 Q8.2 9.15 8.2 9.2 L8.2 9.3 8.15 9.3 8.05 9.35 8.05 9.45 8.15 9.55 8.15 9.6 8.3 9.65 8.45 9.65 8.4 9.4 8.5 9.35 8.5 9.3 8.55 9.25 8.6 9.2 8.55 9.15 8.8 9.1 8.85 9.0 8.9 9.05 9.0 9.0 9.05 9.05 9.1 9.1 9.2 9.05 9.25 8.95 9.4 8.9 9.45 8.75 9.45 8.65 9.5 8.6 9.55 8.55 9.55 8.45 9.65 8.4 9.75 8.4 9.85 8.25 9.95 8.1 10.05 8.0 10.1 7.95 10.25 7.85 10.35 7.7 10.3 7.6 Q10.25 7.55 10.2 7.55 10.15 7.55 10.1 7.6 L10.0 7.7 9.95 7.65 9.75 7.5 9.75 7.55 9.8 7.65 9.8 7.7 9.75 7.75 9.7 7.9 9.65 7.9 9.45 7.8 9.4 7.8 9.3 7.8 9.3 7.85 9.45 7.85 9.4 7.95 9.65 8.0 9.6 8.05 9.5 8.05 9.45 8.05 9.4 8.1 9.35 8.15 9.4 8.2 Q9.4 8.25 9.4 8.3 L9.4 8.45 9.3 8.55 9.25 8.55 9.15 8.6 9.1 8.65 Q9.05 8.7 9.0 8.7 L8.95 8.7 8.85 8.7 8.9 8.55 9.0 8.4 9.05 8.4 9.05 8.25 9.1 8.2 9.15 8.15 9.15 8.1 Q9.1 8.1 9.0 8.15 L8.9 8.25 8.9 8.2 8.95 8.1 8.9 8.05 8.9 7.95 8.9 7.85 8.6 7.75 8.55 7.65 8.5 7.6 8.4 7.45 8.3 7.45 8.15 7.5 8.0 7.45 7.85 7.5 7.85 7.55 7.95 7.65 7.9 7.7 7.9 7.9 7.95 8.05 8.0 8.15 8.05 8.3 8.1 8.3 Q8.15 8.3 8.15 8.25 L8.25 8.25 Q8.25 8.3 8.2 8.35 L8.05 8.45 8.05 8.5 8.0 8.55 7.7 8.5 7.75 8.4 7.8 8.35 7.55 8.3 7.55 8.25 7.7 8.2 7.7 7.9 7.65 7.75 7.55 7.6 7.55 7.55 7.65 7.5 7.65 7.6 7.75 7.6 7.65 7.5 7.75 7.4 7.7 7.3 7.7 7.25 7.8 7.1 7.85 6.95 7.9 6.9 7.95 6.85 8.0 6.85 8.0 6.8 8.05 6.65 Q8.1 6.55 8.15 6.5 L8.35 6.4 8.35 6.35 8.4 6.3 8.45 6.15 8.6 6.15 8.8 6.15 9.15 6.25 9.2 6.3 9.35 6.4 9.45 6.5 9.4 6.5 9.45 6.65 9.5 6.7 9.55 6.8 9.65 6.8 9.7 6.8 9.7 6.75 9.8 6.85 9.85 6.9 9.95 7.1 10.0 7.2 10.05 7.3 10.05 7.15 Q10.15 7.1 10.25 7.1 L10.55 7.2 10.6 7.2 10.65 7.15 10.7 7.15 10.85 7.1 10.95 7.1 11.0 7.1 11.0 7.05 11.1 7.0 11.25 6.95 11.35 6.95 11.4 6.9 11.5 6.75 Q11.55 6.7 11.6 6.7 11.7 6.65 11.75 6.7 L11.85 6.8 11.8 6.95 11.9 6.95 11.95 6.95 12.0 6.9 12.05 6.85 12.15 6.85 12.3 6.85 12.45 6.8 12.65 6.75 12.7 6.75 12.75 6.75 12.8 6.8 Q12.8 6.85 12.9 6.85 L13.0 6.9 13.05 6.9 13.1 6.9 13.2 6.85 13.25 6.8 13.3 6.8 13.35 6.8 13.45 6.85 13.55 6.9 13.7 6.9 13.85 6.9 13.95 6.9 14.0 6.95 14.05 7.0 14.15 7.0 14.2 7.0 14.15 6.9 14.25 6.75 Q14.3 6.7 14.4 6.75 L14.45 6.75 14.5 6.8 14.6 6.95 14.7 7.0 14.75 7.0 15.0 7.1 15.3 7.2 15.35 7.2 15.4 7.25 15.45 7.25 15.6 7.2 15.75 7.15 Q15.85 7.15 15.95 7.2 L15.95 7.35 16.0 7.25 16.05 7.15 16.2 7.0 16.2 6.9 16.3 6.8 16.3 6.75 16.3 6.85 16.35 6.85 16.45 6.85 16.5 6.75 16.55 6.7 16.6 6.55 16.55 6.55 16.65 6.45 16.8 6.35 16.85 6.3 Q16.95 6.25 17.05 6.25 L17.2 6.2 17.55 6.2 17.65 6.35 17.65 6.45 17.85 6.55 17.95 6.7 18.05 6.85 18.05 6.9 18.1 6.95 18.15 7.0 18.2 7.15 18.25 7.2 M20.75 7.6 Q20.25 6.95 19.65 6.35 L26.0 0.0 26.0 26.0 19.75 19.75 20.25 19.2 Q21.05 20.25 22.2 21.05 21.5 20.35 21.25 19.35 21.1 18.85 20.85 18.45 21.95 16.9 22.3 15.05 23.25 15.4 24.25 15.55 L24.3 15.55 25.35 15.65 Q24.9 15.55 24.45 15.35 L24.3 15.3 Q23.95 15.1 23.6 14.8 23.05 14.35 22.4 14.1 L22.45 13.1 Q22.45 12.45 22.4 11.8 L25.25 11.95 25.5 11.9 25.9 11.85 25.5 11.85 25.25 11.8 Q24.6 11.7 24.0 11.35 23.15 10.9 22.25 10.9 21.95 9.65 21.35 8.55 L21.25 8.35 21.3 8.35 Q22.9 8.0 24.3 7.15 23.4 7.5 22.4 7.4 21.55 7.25 20.75 7.6 M8.8 18.4 L8.8 18.5 8.85 18.55 8.9 18.55 9.0 18.4 9.05 18.15 9.1 18.05 9.05 17.95 9.0 18.0 8.9 18.2 8.8 18.4 M17.5 6.25 L17.45 6.25 17.4 6.25 17.45 6.35 17.55 6.4 17.6 6.35 17.6 6.3 17.55 6.25 17.5 6.25 M17.4 7.55 L17.3 7.55 17.3 7.65 17.3 7.75 17.4 7.75 17.4 7.65 17.45 7.55 17.4 7.55 M16.85 10.25 L16.8 10.15 16.75 10.0 16.75 9.95 16.85 9.95 16.95 9.95 16.95 10.05 17.0 10.1 17.15 10.15 17.3 10.15 17.35 10.2 17.3 10.3 17.3 10.35 17.45 10.5 17.55 10.65 17.45 10.6 17.35 10.6 17.4 10.65 17.4 10.7 17.45 10.9 17.4 10.9 17.35 10.95 17.35 11.0 17.4 11.05 17.45 11.15 17.5 11.3 17.45 11.35 17.45 11.5 17.45 11.95 17.45 12.05 17.5 12.2 17.5 12.35 17.45 12.5 17.4 12.65 17.45 12.7 17.45 13.05 17.4 13.25 17.3 13.15 17.3 13.4 17.2 13.85 17.2 13.95 17.1 13.85 17.05 13.75 17.0 13.65 16.95 13.5 16.85 13.35 Q16.75 13.3 16.75 13.25 L16.8 13.1 16.9 13.0 16.95 12.95 17.05 12.75 17.15 12.55 17.2 12.35 17.25 12.15 17.25 12.05 17.15 11.95 17.15 11.8 17.1 11.4 17.1 11.2 17.1 11.05 17.1 10.95 17.05 10.85 17.0 10.8 16.95 10.75 16.9 10.7 16.85 10.7 16.8 10.7 16.8 10.75 16.85 10.95 16.8 11.15 16.85 11.35 16.9 11.6 16.9 11.85 16.95 11.9 16.95 12.05 16.9 12.1 16.9 12.6 16.85 12.7 16.8 12.85 Q16.7 13.0 16.55 13.05 L16.4 13.1 16.3 13.15 16.0 13.05 15.9 13.0 15.8 12.9 15.7 12.85 15.6 12.85 15.5 12.75 15.45 12.65 15.3 12.6 15.3 12.7 15.4 12.8 15.45 12.9 15.7 13.1 15.95 13.2 16.0 13.25 16.05 13.35 16.1 13.35 16.2 13.35 16.25 13.35 16.3 13.35 16.5 13.45 16.6 13.55 16.6 13.7 16.55 13.85 16.65 13.95 16.4 14.1 16.2 14.2 16.15 14.3 16.1 14.35 16.05 14.4 16.0 14.5 15.95 14.55 15.9 14.7 16.1 14.75 16.25 14.7 16.2 14.75 16.35 14.75 16.55 14.8 16.6 14.8 16.4 14.7 16.5 14.7 16.6 14.7 16.7 14.8 16.8 14.85 16.85 14.85 17.4 15.05 17.45 14.95 17.45 14.8 17.55 14.8 17.55 14.55 Q17.55 14.45 17.65 14.35 L17.7 14.3 17.75 14.3 17.8 14.2 17.85 14.1 17.9 14.0 17.9 13.85 17.8 13.85 17.7 13.85 17.65 13.75 Q17.65 13.7 17.65 13.65 L17.7 13.55 Q17.8 13.35 17.75 13.2 17.75 13.15 17.85 13.1 L17.9 12.95 17.9 12.65 17.95 12.45 17.95 11.95 17.95 11.8 18.0 11.6 17.95 11.45 17.85 11.35 17.9 11.15 17.9 10.95 17.85 10.85 17.85 10.7 17.8 10.6 17.75 10.5 17.7 10.4 17.6 10.35 17.6 10.2 17.45 10.1 17.35 10.0 17.05 9.8 17.0 9.65 16.9 9.55 16.6 9.35 16.45 9.25 16.3 9.1 16.2 8.95 16.15 8.95 16.1 8.9 16.05 8.85 16.0 8.75 15.9 8.75 15.8 8.7 15.75 8.65 15.65 8.6 15.65 8.55 15.6 8.5 15.6 8.4 15.55 8.35 15.5 8.35 15.4 8.4 15.3 8.45 15.1 8.35 14.95 8.35 14.85 8.25 14.5 8.15 14.4 8.1 14.3 8.15 14.35 8.25 14.45 8.2 14.5 8.2 14.5 8.3 14.55 8.35 14.9 8.55 14.9 8.6 15.15 8.7 15.2 8.75 15.3 8.7 Q15.5 8.75 15.65 8.9 L15.65 9.0 15.7 9.05 15.75 9.15 15.8 9.25 15.85 9.3 15.95 9.4 16.0 9.5 16.1 9.7 16.1 9.85 16.05 9.95 16.05 10.05 16.1 10.1 15.95 10.1 15.85 10.05 15.75 10.05 15.65 9.95 15.55 9.9 15.45 9.7 15.3 9.6 15.2 9.5 15.1 9.45 15.05 9.5 15.05 9.6 14.9 9.7 14.8 9.85 15.0 9.9 15.1 9.75 15.25 9.8 15.3 9.9 15.35 10.05 15.25 10.2 15.15 10.3 15.3 10.3 Q15.5 10.2 15.65 10.25 L15.9 10.35 Q15.95 10.35 16.0 10.35 L16.1 10.3 16.15 10.3 16.2 10.4 16.25 10.55 16.25 10.7 16.2 10.8 16.05 10.8 15.95 10.85 15.85 10.85 15.7 10.85 15.5 10.8 15.3 10.7 15.15 10.65 15.05 10.7 14.75 10.75 14.65 10.85 14.6 10.95 14.55 11.05 14.5 11.15 14.5 11.2 14.45 11.3 14.4 11.45 14.35 11.55 14.3 11.65 14.3 11.85 14.3 11.95 14.25 12.05 14.3 12.1 14.35 12.1 14.4 12.1 14.45 12.05 14.5 12.1 14.6 12.1 Q14.65 12.1 14.7 12.05 L14.7 11.9 14.8 11.55 14.85 11.5 15.15 11.55 Q15.3 11.55 15.5 11.4 L15.65 11.2 15.8 11.0 15.9 11.0 15.95 11.2 15.85 11.3 15.65 11.55 Q15.55 11.7 15.3 11.75 L15.3 11.9 Q15.35 11.95 15.4 11.95 L15.55 11.95 15.65 11.9 15.7 11.85 15.75 11.8 15.85 11.75 15.9 11.65 16.0 11.6 16.05 11.55 16.1 11.45 16.15 11.4 16.2 11.35 16.25 11.35 16.25 11.25 16.2 11.15 16.3 11.15 16.35 11.2 16.4 11.3 16.6 11.45 16.55 11.0 16.55 10.9 16.5 10.75 16.45 10.65 Q16.4 10.6 16.4 10.55 L16.4 10.35 16.4 10.15 16.4 10.1 16.5 10.15 16.6 10.25 16.7 10.35 16.75 10.4 16.8 10.4 16.85 10.25 M16.3 11.7 L16.2 11.75 16.2 11.85 16.1 11.9 16.0 12.0 15.95 12.0 15.9 11.95 15.85 11.95 15.8 11.95 15.75 12.0 15.7 12.1 15.6 12.3 15.8 12.3 15.95 12.35 16.0 12.35 16.15 12.35 16.25 12.3 16.3 12.25 16.35 12.2 16.4 12.1 16.45 11.95 16.45 11.65 16.3 11.7 M16.65 14.15 L16.7 14.15 16.75 14.15 Q16.65 14.25 16.65 14.35 L16.6 14.4 16.7 14.6 16.5 14.55 16.3 14.55 16.3 14.4 16.4 14.35 16.5 14.35 16.55 14.2 16.65 14.15 M17.9 13.85 L17.85 13.7 17.7 13.65 17.75 13.75 17.75 13.8 17.85 13.85 17.9 13.85 M17.3 15.45 Q17.2 15.4 17.05 15.3 L16.8 15.2 16.75 15.2 16.7 15.4 16.6 15.1 16.55 15.05 16.4 14.95 16.25 14.9 Q16.15 14.85 16.05 14.9 L16.1 15.05 16.2 15.05 16.1 15.15 16.25 15.3 16.1 15.2 15.95 15.15 15.9 15.2 15.9 15.25 16.0 15.35 16.05 15.4 16.2 15.5 16.3 15.6 16.45 15.75 16.6 15.85 16.75 15.85 16.9 15.8 17.05 15.75 17.2 15.65 17.25 15.55 17.3 15.45 M16.85 15.1 L16.95 15.2 17.1 15.25 17.15 15.3 17.25 15.3 17.3 15.35 17.3 15.15 17.05 15.0 17.0 15.0 16.9 15.0 16.8 15.1 16.85 15.1 M17.25 18.0 L17.25 17.95 17.2 17.9 Q17.15 17.85 17.1 17.85 L17.05 17.85 17.0 17.9 17.05 18.05 17.15 18.2 17.25 18.25 17.25 18.0 M17.0 18.1 L16.95 18.0 16.9 18.1 16.95 18.2 17.05 18.45 17.1 18.6 17.15 18.6 17.2 18.55 17.2 18.45 17.1 18.25 17.0 18.1 M16.9 18.35 L16.9 18.3 16.85 18.25 16.8 18.25 16.85 18.5 16.9 18.45 16.9 18.55 16.95 18.6 17.0 18.55 16.95 18.45 16.9 18.35 M16.25 18.7 L16.2 18.65 16.15 18.85 16.15 19.0 16.2 19.2 16.3 19.05 16.3 19.0 16.25 18.9 16.25 18.7 M11.55 7.25 Q11.5 7.25 11.4 7.3 L11.65 7.35 11.75 7.35 11.85 7.35 11.9 7.35 12.1 7.35 12.3 7.35 12.3 7.3 12.25 7.25 12.15 7.25 12.05 7.25 11.95 7.25 11.85 7.25 11.6 7.25 11.55 7.25 M8.4 6.25 L8.4 6.3 8.45 6.35 8.6 6.2 8.55 6.2 8.45 6.2 8.4 6.25 M10.1 8.4 L10.05 8.4 10.05 8.55 10.1 8.5 10.2 8.45 10.2 8.35 10.1 8.4 M9.3 10.3 L9.4 10.2 9.5 10.1 9.6 10.05 9.65 10.05 9.6 10.2 9.6 10.3 9.6 10.5 9.55 10.6 9.5 10.7 9.45 10.85 9.45 11.4 9.6 11.25 9.65 11.15 9.7 11.1 9.8 11.1 9.75 11.2 9.75 11.3 9.85 11.35 9.9 11.4 9.95 11.5 10.0 11.55 10.1 11.6 10.15 11.7 10.25 11.75 10.3 11.8 10.35 11.85 10.45 11.9 10.6 11.9 10.7 11.85 10.75 11.8 10.7 11.7 Q10.45 11.6 10.35 11.5 L10.15 11.25 10.05 11.15 10.1 10.95 10.2 10.95 10.35 11.15 10.5 11.35 Q10.7 11.5 10.85 11.5 L11.15 11.45 11.2 11.5 11.25 11.5 11.3 11.85 11.3 12.0 Q11.35 12.05 11.4 12.05 L11.5 12.05 11.6 12.0 11.6 12.05 11.65 12.05 11.7 12.05 11.75 12.0 11.7 11.9 11.7 11.8 11.7 11.55 11.65 11.5 11.6 11.4 11.55 11.25 11.5 11.15 11.5 11.1 11.45 11.0 11.4 10.9 11.35 10.8 11.25 10.7 10.95 10.65 10.85 10.6 10.75 10.65 Q10.65 10.65 10.6 10.7 L10.5 10.75 10.3 10.8 10.15 10.8 10.05 10.8 9.95 10.75 9.8 10.75 9.75 10.65 9.75 10.5 9.8 10.35 9.85 10.25 Q9.85 10.25 9.9 10.25 L10.0 10.3 10.1 10.3 10.2 10.25 10.35 10.2 Q10.5 10.15 10.7 10.25 L10.85 10.25 10.75 10.1 10.65 10.0 Q10.65 9.9 10.7 9.8 L10.75 9.75 10.9 9.7 11.0 9.85 11.2 9.8 Q11.15 9.7 11.1 9.65 L10.95 9.55 10.9 9.45 10.9 9.35 10.8 9.45 10.7 9.55 10.55 9.65 10.45 9.8 10.35 9.9 10.25 10.0 10.15 10.0 10.05 10.05 9.9 10.05 9.95 10.0 9.95 9.9 9.9 9.8 9.9 9.65 10.0 9.4 10.05 9.35 10.15 9.25 10.2 9.2 10.25 9.1 10.3 9.0 10.35 8.95 10.3 8.85 Q10.5 8.7 10.7 8.65 L10.8 8.7 10.85 8.65 11.0 8.55 11.1 8.55 11.3 8.4 11.45 8.3 11.5 8.25 11.55 8.15 11.6 8.15 11.65 8.2 11.7 8.1 11.6 8.05 11.5 8.1 11.3 8.15 11.15 8.2 11.05 8.25 10.9 8.3 10.8 8.35 10.7 8.4 10.6 8.35 10.55 8.3 10.45 8.3 10.4 8.35 10.4 8.45 10.35 8.55 10.3 8.55 10.25 8.6 10.2 8.65 10.1 8.7 10.0 8.7 9.95 8.75 9.9 8.85 9.9 8.9 9.8 8.9 9.7 9.05 9.55 9.2 9.4 9.3 9.25 9.4 9.1 9.5 9.0 9.6 8.95 9.7 8.8 9.85 8.65 9.95 8.55 10.05 8.4 10.15 8.4 10.3 8.3 10.35 8.25 10.45 8.2 10.55 8.2 10.65 8.15 10.8 8.15 10.9 8.15 11.25 8.05 11.4 8.05 11.75 8.1 11.9 8.05 12.15 8.05 12.4 8.1 12.6 8.1 12.9 8.2 13.0 8.25 13.15 Q8.2 13.3 8.3 13.5 L8.35 13.6 8.35 13.65 8.3 13.8 8.2 13.8 8.1 13.8 8.15 13.8 8.25 13.75 8.25 13.65 8.3 13.6 Q8.2 13.6 8.15 13.65 8.1 13.7 8.1 13.8 L8.1 13.9 8.15 14.05 8.2 14.15 8.25 14.25 8.3 14.25 8.35 14.25 8.45 14.5 8.45 14.75 8.55 14.75 8.55 14.85 8.6 15.0 8.75 14.95 9.15 14.85 9.25 14.8 9.3 14.75 9.4 14.65 9.5 14.65 9.6 14.65 9.4 14.75 9.45 14.75 9.65 14.7 9.8 14.7 9.75 14.65 9.9 14.65 10.1 14.65 10.05 14.5 10.0 14.45 9.95 14.35 9.9 14.3 9.85 14.25 9.8 14.15 9.35 13.9 9.45 13.8 9.4 13.65 9.4 13.5 9.5 13.4 9.6 13.35 9.7 13.3 9.75 13.3 9.8 13.25 9.9 13.3 10.0 13.3 10.0 13.2 10.05 13.15 10.15 13.1 10.3 13.05 10.55 12.8 10.6 12.75 10.75 12.65 10.7 12.55 10.55 12.6 10.5 12.7 10.4 12.8 10.3 12.8 10.25 12.85 10.1 12.95 10.0 13.0 9.85 13.05 9.7 13.05 9.6 13.05 9.45 13.0 Q9.3 12.95 9.2 12.8 L9.15 12.65 9.1 12.55 Q9.1 12.45 9.1 12.3 L9.1 12.05 9.05 11.95 9.05 11.85 9.1 11.8 9.1 11.55 9.15 11.3 9.2 11.1 9.15 10.9 9.25 10.7 9.2 10.7 9.2 10.65 9.15 10.65 9.1 10.65 9.05 10.7 9.0 10.75 8.95 10.8 8.9 10.9 8.9 10.95 8.9 11.15 8.9 11.35 8.85 11.75 8.85 11.9 8.75 12.0 8.75 12.1 8.8 12.3 8.85 12.5 8.95 12.7 9.05 12.9 9.1 12.95 9.2 13.05 9.25 13.2 9.15 13.35 9.05 13.45 9.0 13.6 8.95 13.7 8.9 13.8 8.8 13.9 8.8 13.8 8.7 13.35 8.7 13.1 8.6 13.2 8.55 13.0 8.55 12.7 8.6 12.6 8.55 12.45 8.5 12.3 8.5 12.15 8.55 12.0 8.55 11.9 8.55 11.45 8.55 11.3 8.5 11.25 8.55 11.1 8.6 11.0 8.65 10.95 8.65 10.9 8.6 10.85 8.55 10.85 8.6 10.65 8.6 10.6 8.65 10.55 8.55 10.55 8.45 10.6 8.55 10.45 8.7 10.3 8.7 10.25 8.65 10.15 8.7 10.1 8.85 10.1 9.0 10.05 9.05 10.0 9.1 9.9 9.15 9.9 9.25 9.9 9.25 9.95 9.2 10.1 9.15 10.2 9.2 10.35 9.25 10.35 9.3 10.3 M8.7 7.65 L8.7 7.55 8.65 7.5 8.6 7.5 8.55 7.5 8.6 7.6 8.6 7.7 8.7 7.7 8.7 7.65 M11.55 8.6 L11.4 8.65 11.25 8.7 11.1 8.75 11.05 8.75 10.95 8.8 10.8 8.9 10.8 8.95 10.9 8.95 11.0 8.9 11.1 8.85 11.2 8.85 11.3 8.85 11.35 8.8 11.45 8.75 11.5 8.75 11.55 8.7 11.7 8.65 11.85 8.6 11.9 8.55 11.65 8.55 11.6 8.55 11.55 8.6 M11.95 7.75 L12.05 7.7 12.15 7.7 12.3 7.7 12.3 7.65 Q12.2 7.6 12.1 7.55 L11.9 7.55 11.85 7.55 11.75 7.55 11.6 7.5 11.45 7.5 11.4 7.5 11.15 7.5 11.05 7.55 10.95 7.55 10.9 7.55 10.8 7.55 10.8 7.7 11.05 7.7 11.3 7.7 11.45 7.7 11.55 7.75 11.7 7.75 11.85 7.8 11.95 7.75 M14.6 7.35 L14.45 7.3 14.4 7.3 14.3 7.3 14.15 7.3 14.05 7.3 13.95 7.3 13.85 7.3 13.75 7.3 13.7 7.4 13.9 7.4 14.1 7.4 14.15 7.4 14.25 7.4 14.35 7.4 14.6 7.35 M13.7 7.7 L13.7 7.75 13.85 7.75 13.95 7.75 Q14.0 7.75 14.05 7.8 L14.15 7.85 14.3 7.85 14.45 7.8 14.55 7.75 14.7 7.75 14.95 7.75 15.2 7.75 15.2 7.6 15.1 7.6 15.05 7.6 14.95 7.6 14.85 7.55 14.55 7.55 14.4 7.55 14.25 7.6 14.2 7.6 14.1 7.6 Q14.05 7.55 13.95 7.6 L13.9 7.6 13.7 7.7 M13.3 8.5 Q13.2 8.5 13.1 8.55 L13.05 8.65 13.25 8.7 13.25 8.6 13.3 8.55 13.3 8.5 M13.55 8.4 Q13.5 8.45 13.5 8.5 L13.5 8.7 13.55 8.7 13.65 8.7 13.7 8.6 13.7 8.55 13.65 8.5 13.55 8.4 M14.15 8.65 L14.45 8.75 14.5 8.8 14.55 8.8 14.65 8.85 14.7 8.9 14.8 8.9 14.9 8.9 15.1 9.0 15.2 9.0 15.2 8.95 15.05 8.85 15.0 8.8 14.9 8.8 14.6 8.7 14.35 8.6 14.25 8.55 14.1 8.55 14.1 8.6 14.15 8.65 M12.35 8.45 L12.3 8.55 12.35 8.55 12.35 8.65 12.45 8.65 12.5 8.65 12.5 8.45 12.45 8.35 12.35 8.45 M12.7 8.45 L12.75 8.55 12.8 8.65 12.95 8.6 12.95 8.55 Q12.85 8.45 12.7 8.45 M13.05 8.8 L13.05 8.75 13.0 8.7 12.95 8.75 12.95 8.85 13.05 8.8 M13.0 9.2 L12.95 9.2 12.95 9.3 13.0 9.25 13.0 9.2 M12.4 8.8 L12.55 8.8 12.45 8.7 Q12.35 8.65 12.3 8.7 L12.25 8.75 12.3 8.8 12.4 8.8 M12.6 9.85 L12.4 9.9 12.25 9.9 12.3 10.05 12.3 10.15 Q12.3 10.2 12.2 10.2 L12.1 10.2 12.1 10.3 12.1 10.45 12.05 10.45 11.95 10.45 11.95 10.4 Q11.9 10.35 11.75 10.35 L11.55 10.35 11.45 10.4 11.55 10.5 11.65 10.5 11.7 10.45 Q11.7 10.55 11.75 10.6 L11.9 10.7 12.05 10.7 12.05 10.65 12.1 10.55 12.25 10.55 12.25 10.75 12.4 10.7 Q12.45 10.65 12.55 10.65 L12.65 10.65 Q12.75 10.65 12.75 10.5 L12.75 10.4 Q12.65 10.4 12.6 10.25 12.6 10.15 12.6 10.05 L12.6 9.85 M13.0 9.7 L13.0 9.65 12.95 9.65 12.95 9.8 13.0 9.75 13.0 9.7 M13.75 8.8 L13.7 8.75 Q13.65 8.7 13.55 8.75 L13.45 8.85 13.6 8.85 13.7 8.85 13.75 8.8 M13.6 9.85 L13.6 10.0 13.5 10.05 13.45 10.1 13.45 10.25 13.5 10.3 13.4 10.3 13.4 10.45 Q13.4 10.55 13.5 10.55 L13.65 10.55 13.8 10.65 Q13.85 10.7 13.9 10.7 L13.95 10.7 13.9 10.6 13.9 10.45 14.05 10.45 14.15 10.6 14.15 10.65 14.25 10.65 14.4 10.5 14.45 10.4 14.55 10.4 14.6 10.4 14.7 10.35 14.75 10.35 14.4 10.25 Q14.25 10.25 14.25 10.35 L14.2 10.4 14.15 10.4 14.05 10.4 14.05 10.2 14.1 10.1 13.95 10.1 Q13.85 10.1 13.85 10.05 L13.9 9.95 13.95 9.8 13.75 9.8 13.55 9.8 13.6 9.85 M15.8 8.4 L15.8 8.55 15.9 8.55 15.95 8.6 15.95 8.45 15.9 8.45 15.8 8.4 M4.15 9.3 L3.3 8.55 Q2.5 7.95 1.55 7.55 2.2 7.95 2.6 8.55 L2.8 8.95 Q3.2 9.75 3.8 10.2 3.4 11.55 3.4 13.1 L3.4 13.3 3.35 13.25 Q1.75 12.8 0.15 13.0 1.1 13.05 1.95 13.6 2.65 14.1 3.45 14.2 3.6 15.65 4.2 16.95 2.75 17.2 1.4 17.9 2.35 17.6 3.3 17.8 4.0 17.95 4.65 17.8 5.25 18.85 6.2 19.8 L0.0 26.0 0.0 0.0 6.3 6.3 6.2 6.35 5.85 6.7 5.8 6.55 Q4.95 5.15 3.7 4.1 4.35 4.85 4.5 5.8 4.7 6.75 5.3 7.4 4.85 7.95 4.5 8.55 4.35 8.95 4.15 9.3 M12.95 14.15 L12.95 14.15 12.95 14.3 12.9 14.35 12.8 14.45 Q12.6 14.35 12.5 14.35 L12.25 14.35 12.05 14.35 12.0 14.3 11.95 14.15 11.9 14.1 11.85 14.05 Q11.8 14.05 11.8 14.05 L11.8 14.25 11.9 14.4 12.05 14.6 12.3 14.75 12.45 14.8 12.5 14.85 12.55 14.95 12.65 15.0 Q12.85 15.05 12.95 15.2 L12.95 15.35 12.9 15.4 12.8 15.55 12.7 15.7 12.55 15.85 12.45 15.9 12.4 15.95 12.25 16.05 Q12.15 16.1 12.1 16.1 12.1 16.2 12.15 16.35 L12.2 16.5 12.1 16.7 11.95 16.55 11.9 16.4 11.85 16.3 11.9 16.2 11.9 15.95 11.75 15.9 11.6 15.8 11.4 15.8 11.3 15.8 11.2 15.8 Q11.15 15.8 11.15 15.85 L11.05 15.95 11.0 16.0 11.0 16.15 10.95 16.2 10.85 16.35 11.0 16.25 11.1 16.15 11.2 16.05 11.3 15.95 11.15 16.2 11.05 16.35 10.95 16.5 10.8 16.75 10.65 17.0 10.65 17.1 10.8 17.25 10.85 17.35 10.85 17.4 10.9 17.45 10.95 17.55 Q11.0 17.55 11.05 17.5 L11.1 17.45 Q11.15 17.4 11.2 17.35 L11.3 17.4 11.4 17.4 11.45 17.4 11.7 17.35 11.9 17.3 12.1 17.25 12.2 17.25 12.3 17.25 12.45 17.25 12.6 17.3 12.7 17.3 12.8 17.3 12.9 17.2 12.9 17.25 12.95 17.4 12.9 17.55 12.95 17.55 12.95 17.45 13.0 17.5 13.0 17.55 13.0 17.65 13.1 17.65 13.1 17.45 Q13.05 17.4 13.1 17.3 L13.1 17.25 13.2 17.35 13.3 17.4 13.4 17.35 13.55 17.3 13.7 17.3 13.8 17.3 13.9 17.3 14.1 17.35 14.55 17.45 14.6 17.45 14.7 17.45 14.8 17.4 Q14.85 17.45 14.9 17.5 L14.95 17.55 Q15.0 17.6 15.05 17.6 L15.1 17.55 15.15 17.45 15.15 17.4 15.2 17.3 Q15.25 17.25 15.35 17.15 L15.35 17.05 15.2 16.8 15.05 16.55 14.95 16.4 14.85 16.25 14.7 16.0 14.8 16.1 14.9 16.2 15.0 16.3 15.15 16.4 15.05 16.25 15.0 16.2 15.0 16.05 14.95 16.0 14.9 15.9 14.8 15.85 14.7 15.9 14.6 15.85 14.4 15.85 14.25 15.95 14.1 16.0 14.1 16.25 14.15 16.35 14.1 16.45 Q14.05 16.55 14.05 16.6 14.0 16.65 13.95 16.75 L13.8 16.55 13.85 16.35 Q13.9 16.25 13.9 16.15 13.85 16.15 13.75 16.1 L13.65 16.0 13.45 15.9 13.3 15.75 13.2 15.6 13.1 15.45 13.05 15.4 13.05 15.25 Q13.15 15.1 13.35 15.05 L13.45 15.0 13.5 14.9 Q13.5 14.85 13.6 14.85 L13.7 14.8 13.95 14.65 14.1 14.45 14.2 14.3 14.2 14.1 14.15 14.1 14.1 14.15 14.05 14.25 14.0 14.35 13.95 14.4 13.75 14.4 13.5 14.4 Q13.4 14.4 13.2 14.5 L13.1 14.4 13.05 14.35 13.0 14.3 13.0 14.25 13.05 14.2 13.05 14.15 13.0 14.15 12.95 14.15 M15.8 12.85 L16.0 12.8 15.9 12.7 15.8 12.65 15.7 12.65 15.65 12.7 15.65 12.75 15.8 12.85 M16.0 14.05 L15.75 13.9 15.7 13.85 15.65 13.75 Q15.55 13.7 15.45 13.7 L15.5 13.85 Q15.5 13.95 15.65 14.0 L15.7 14.1 15.75 14.2 15.9 14.25 16.0 14.15 16.0 14.05 M9.7 11.65 L9.55 11.6 9.55 11.9 9.6 12.05 9.65 12.15 9.7 12.2 9.75 12.25 Q9.8 12.3 9.85 12.3 L10.0 12.3 10.05 12.3 Q10.1 12.25 10.2 12.25 L10.4 12.25 10.3 12.05 10.3 11.95 10.25 11.9 10.15 11.9 10.1 11.9 10.05 11.95 10.0 11.95 9.9 11.9 9.8 11.8 9.8 11.7 9.7 11.65 M10.05 12.65 L10.0 12.75 10.2 12.8 Q10.3 12.8 10.4 12.7 L10.35 12.65 10.3 12.6 10.2 12.6 10.05 12.65 M10.05 14.15 L10.1 14.2 10.25 14.15 10.3 14.05 10.35 13.95 Q10.5 13.9 10.5 13.8 L10.55 13.65 Q10.45 13.65 10.35 13.7 L10.3 13.8 10.25 13.85 10.1 13.95 10.0 14.0 10.0 14.05 10.05 14.15 M9.3 14.1 L9.35 14.1 9.45 14.15 9.5 14.3 9.6 14.3 9.7 14.35 9.7 14.45 9.5 14.5 9.3 14.55 9.4 14.3 9.35 14.3 Q9.35 14.2 9.25 14.1 L9.3 14.1 M11.9 15.15 L11.5 15.05 11.2 14.95 11.15 14.95 11.05 14.95 11.0 14.9 10.9 14.95 10.9 15.0 10.95 15.05 11.0 15.1 11.1 15.1 11.2 15.15 11.3 15.15 11.35 15.15 11.9 15.2 11.9 15.15 M11.2 15.45 L10.95 15.4 10.95 15.55 11.15 15.5 11.3 15.5 11.3 15.45 11.25 15.45 11.2 15.45 M10.15 15.6 L10.0 15.7 9.9 15.8 9.8 15.85 9.9 15.85 10.05 15.85 10.25 15.7 10.35 15.6 10.4 15.5 10.3 15.55 Q10.2 15.6 10.15 15.6 M10.85 15.85 L10.85 15.95 10.8 16.05 10.9 16.0 11.0 15.9 11.15 15.8 10.9 15.8 10.9 15.85 10.85 15.85 M10.75 15.95 L10.65 16.0 10.55 16.05 10.45 16.25 10.3 16.4 10.2 16.5 10.15 16.6 10.2 16.6 10.25 16.6 10.25 16.55 10.5 16.25 10.75 15.95 M10.5 16.55 L10.45 16.7 10.5 16.7 10.55 16.65 10.65 16.45 10.6 16.4 10.5 16.55 M10.6 16.95 L10.65 16.85 10.7 16.75 10.55 16.95 10.6 16.95 M10.05 15.1 L9.9 15.15 9.75 15.25 9.9 15.1 9.8 15.0 9.9 14.95 9.95 14.85 9.75 14.85 9.6 14.9 9.45 15.0 9.4 15.05 9.3 15.35 9.25 15.15 9.2 15.15 8.95 15.25 8.7 15.4 8.75 15.5 8.8 15.6 8.95 15.7 9.25 15.8 9.4 15.8 9.55 15.7 9.7 15.55 9.8 15.45 9.95 15.35 10.0 15.25 10.1 15.2 10.1 15.15 10.05 15.1 M9.15 15.05 L9.2 15.05 9.1 14.95 9.0 14.95 8.95 14.95 8.7 15.05 8.7 15.25 8.75 15.25 8.85 15.25 8.9 15.2 9.05 15.15 9.15 15.05 M9.1 18.4 L9.15 18.45 9.2 18.2 9.15 18.2 9.1 18.25 9.1 18.3 9.05 18.4 9.0 18.5 9.05 18.55 9.1 18.5 9.1 18.4 M8.95 17.8 L8.9 17.8 Q8.85 17.8 8.8 17.85 L8.75 17.9 8.75 18.1 8.75 18.2 8.85 18.15 8.95 18.0 9.0 17.85 8.95 17.8 M9.85 18.75 L9.8 18.6 9.75 18.65 9.75 18.85 9.7 18.95 9.7 19.0 Q9.7 19.05 9.8 19.15 L9.85 18.95 9.85 18.75 M11.85 19.2 L11.85 19.25 Q11.8 19.35 11.85 19.55 L11.9 19.55 11.95 19.5 11.95 19.35 11.85 19.2 M15.6 15.55 L15.65 15.65 15.75 15.75 15.95 15.9 16.1 15.9 16.2 15.9 16.0 15.8 15.85 15.65 15.6 15.55 M15.25 16.0 L15.5 16.3 15.75 16.6 15.75 16.65 15.8 16.65 15.85 16.7 15.8 16.55 15.7 16.45 15.55 16.3 15.45 16.1 15.25 16.0 M15.1 15.0 L15.0 14.95 14.95 15.0 14.85 15.0 14.8 15.0 14.65 15.05 14.55 15.1 14.3 15.15 14.1 15.2 14.1 15.25 14.65 15.2 14.75 15.2 14.8 15.2 14.9 15.2 15.0 15.15 15.05 15.1 15.1 15.1 15.1 15.0 M14.8 15.5 L14.75 15.5 14.7 15.5 14.7 15.55 14.85 15.55 15.05 15.6 15.05 15.45 14.8 15.5 M15.1 15.85 L14.85 15.85 15.0 15.95 15.1 16.05 15.2 16.1 15.15 16.0 15.15 15.9 15.1 15.9 15.1 15.85 M15.4 16.45 L15.35 16.5 15.5 16.7 15.5 16.75 15.55 16.75 15.5 16.6 15.4 16.45 M15.3 16.8 L15.3 16.9 15.4 17.05 15.45 17.0 15.3 16.8 M14.05 19.6 L14.1 19.6 14.15 19.6 Q14.2 19.4 14.15 19.3 14.1 19.3 14.05 19.4 L14.05 19.6" fill="#645908" fill-rule="evenodd" stroke="none"/>
    <path d="M11.55 7.25 L11.6 7.25 11.85 7.25 11.95 7.25 12.05 7.25 12.15 7.25 12.25 7.25 12.3 7.3 12.3 7.35 12.1 7.35 11.9 7.35 11.85 7.35 11.75 7.35 11.65 7.35 11.4 7.3 Q11.5 7.25 11.55 7.25 M14.6 7.35 L14.35 7.4 14.25 7.4 14.15 7.4 14.1 7.4 13.9 7.4 13.7 7.4 13.75 7.3 13.85 7.3 13.95 7.3 14.05 7.3 14.15 7.3 14.3 7.3 14.4 7.3 14.45 7.3 14.6 7.35" fill="#030303" fill-rule="evenodd" stroke="none"/>
    <path d="M16.25 18.7 L16.25 18.9 16.3 19.0 16.3 19.05 16.2 19.2 16.15 19.0 16.15 18.85 16.2 18.65 16.25 18.7 M10.1 8.4 L10.2 8.35 10.2 8.45 10.1 8.5 10.05 8.55 10.05 8.4 10.1 8.4 M15.8 8.4 L15.9 8.45 15.95 8.45 15.95 8.6 15.9 8.55 15.8 8.55 15.8 8.4 M10.15 15.6 Q10.2 15.6 10.3 15.55 L10.4 15.5 10.35 15.6 10.25 15.7 10.05 15.85 9.9 15.85 9.8 15.85 9.9 15.8 10.0 15.7 10.15 15.6 M9.85 18.75 L9.85 18.95 9.8 19.15 Q9.7 19.05 9.7 19.0 L9.7 18.95 9.75 18.85 9.75 18.65 9.8 18.6 9.85 18.75 M15.6 15.55 L15.85 15.65 16.0 15.8 16.2 15.9 16.1 15.9 15.95 15.9 15.75 15.75 15.65 15.65 15.6 15.55" fill="#070707" fill-rule="evenodd" stroke="none"/>
    <path d="M16.7 10.35 L16.8 10.35 16.85 10.25 16.8 10.4 16.75 10.4 16.7 10.35 M9.3 10.3 L9.25 10.35 9.2 10.35 9.15 10.2 9.2 10.3 9.3 10.3 M11.15 16.4 L11.2 16.3 Q11.25 16.25 11.3 16.25 L11.15 16.4 M14.75 16.3 L14.8 16.35 14.85 16.45 14.75 16.3" fill="#5c5c5c" fill-rule="evenodd" stroke="none"/>
    <path d="M13.55 8.4 L13.65 8.5 13.7 8.55 13.7 8.6 13.65 8.7 13.55 8.7 13.5 8.7 13.5 8.5 Q13.5 8.45 13.55 8.4 M12.35 8.45 L12.45 8.35 12.5 8.45 12.5 8.65 12.45 8.65 12.35 8.65 12.35 8.55 12.3 8.55 12.35 8.45 M13.05 8.8 L12.95 8.85 12.95 8.75 13.0 8.7 13.05 8.75 13.05 8.8 M13.0 9.7 L13.0 9.75 12.95 9.8 12.95 9.65 13.0 9.65 13.0 9.7" fill="#010101" fill-rule="evenodd" stroke="none"/>
    <path d="M15.25 10.75 L15.4 10.75 Q15.35 10.8 15.3 10.8 L15.25 10.75 M10.7 10.75 Q10.65 10.75 10.6 10.7 L10.75 10.7 10.7 10.75" fill="#999999" fill-rule="evenodd" stroke="none"/>
    <path d="M15.8 12.85 L15.9 12.8 15.9 12.7 16.0 12.8 15.8 12.85 M10.2 12.8 L10.0 12.75 10.05 12.65 10.1 12.75 10.2 12.8" fill="#212121" fill-rule="evenodd" stroke="none"/>
    <path d="M16.2 11.85 L16.2 11.75 16.3 11.7 16.25 11.8 16.2 11.85 M9.7 11.65 L9.8 11.7 9.8 11.8 9.75 11.75 9.7 11.65" fill="#8d8d8d" fill-rule="evenodd" stroke="none"/>
    <path d="M18.5 15.95 L18.5 15.8 18.6 15.9 18.75 15.6 18.85 15.5 18.8 15.6 18.75 15.75 18.7 15.85 18.6 15.9 18.55 15.95 18.5 15.95 M19.15 14.25 L19.15 14.15 19.4 14.2 19.15 14.25" fill="#583924" fill-rule="evenodd" stroke="none"/>
    <path d="M7.45 16.1 L7.5 16.05 7.6 16.1 7.55 16.2 7.45 16.1 M9.0 18.0 L9.05 17.95 9.1 18.05 9.05 18.15 9.0 18.0 M18.45 16.25 L18.4 16.15 18.5 16.1 18.55 16.15 18.45 16.25 M16.95 18.2 L16.9 18.1 16.95 18.0 17.0 18.1 16.95 18.2" fill="#2c2c2c" fill-rule="evenodd" stroke="none"/>
    <path d="M17.9 16.85 L17.85 16.8 17.95 16.5 18.0 16.5 18.15 16.55 18.15 16.4 18.25 16.4 18.3 16.35 18.35 16.25 18.3 16.35 18.3 16.5 18.2 16.5 18.2 16.55 18.15 16.65 18.1 16.55 17.95 16.55 Q17.9 16.65 17.9 16.85" fill="#9b9b9b" fill-rule="evenodd" stroke="none"/>
    <path d="M18.85 16.55 L18.9 16.6 18.85 16.65 18.85 16.55 M7.15 16.5 L7.15 16.6 7.1 16.55 7.15 16.5" fill="#8e8e8e" fill-rule="evenodd" stroke="none"/>
    <path d="M18.65 16.85 L18.7 16.85 18.7 17.05 18.65 16.85 M7.3 16.8 L7.35 16.8 7.3 17.0 7.3 16.8" fill="#464646" fill-rule="evenodd" stroke="none"/>
    <path d="M17.0 15.0 L16.85 15.1 16.8 15.1 16.9 15.0 17.0 15.0 M9.0 14.95 L9.1 14.95 9.2 15.05 9.15 15.05 9.0 14.95" fill="#191919" fill-rule="evenodd" stroke="none"/>
    <path d="M10.75 15.95 L10.5 16.25 10.25 16.55 10.25 16.6 10.2 16.6 10.15 16.6 10.2 16.5 10.3 16.4 10.45 16.25 10.55 16.05 10.65 16.0 10.75 15.95 M15.25 16.0 L15.45 16.1 15.55 16.3 15.7 16.45 15.8 16.55 15.85 16.7 15.8 16.65 15.75 16.65 15.75 16.6 15.5 16.3 15.25 16.0" fill="#2d2d2d" fill-rule="evenodd" stroke="none"/>
    <path d="M10.5 16.55 L10.6 16.4 10.65 16.45 10.55 16.65 10.5 16.7 10.45 16.7 10.5 16.55 M15.4 16.45 L15.5 16.6 15.55 16.75 15.5 16.75 15.5 16.7 15.35 16.5 15.4 16.45" fill="#292929" fill-rule="evenodd" stroke="none"/>
    <path d="M10.6 16.95 L10.55 16.95 10.7 16.75 10.65 16.85 10.6 16.95 M15.3 16.8 L15.45 17.0 15.4 17.05 15.3 16.9 15.3 16.8" fill="#343434" fill-rule="evenodd" stroke="none"/>
    <path d="M16.9 18.45 L16.85 18.5 16.8 18.25 16.85 18.25 16.9 18.3 16.9 18.35 16.9 18.45 M9.1 18.3 L9.1 18.25 9.15 18.2 9.2 18.2 9.15 18.45 9.1 18.4 9.1 18.3" fill="#c7c7c7" fill-rule="evenodd" stroke="none"/>
    <path d="M8.85 18.55 L8.8 18.5 8.8 18.4 8.95 18.5 9.0 18.4 8.9 18.55 8.85 18.55 M17.2 18.45 L17.2 18.55 17.15 18.6 17.1 18.6 17.05 18.45 17.05 18.5 17.2 18.45" fill="#1e1e1e" fill-rule="evenodd" stroke="none"/>
    <path d="M16.9 18.45 L16.9 18.35 16.95 18.45 17.0 18.55 16.95 18.6 16.9 18.55 16.9 18.45 M9.1 18.4 L9.1 18.5 9.05 18.55 9.0 18.5 9.05 18.4 9.1 18.3 9.1 18.4" fill="#313131" fill-rule="evenodd" stroke="none"/>
    <path d="M11.85 19.2 L11.95 19.35 11.95 19.5 11.9 19.55 11.85 19.55 Q11.8 19.35 11.85 19.25 L11.85 19.2 M14.05 19.6 L14.05 19.4 Q14.1 19.3 14.15 19.3 14.2 19.4 14.15 19.6 L14.1 19.6 14.05 19.6" fill="#020202" fill-rule="evenodd" stroke="none"/>
    <path d="M12.15 19.8 L12.2 19.75 12.15 19.8 M12.95 19.7 L12.95 19.6 13.0 19.7 13.0 19.75 12.95 19.75 12.95 19.7" fill="#dcdcdc" fill-rule="evenodd" stroke="none"/>
  </g>
</svg>
