<?xml version="1.0" encoding="UTF-8" standalone="no"?>
<svg xmlns:xlink="http://www.w3.org/1999/xlink" height="3.1px" width="4.1px" xmlns="http://www.w3.org/2000/svg">
  <g transform="matrix(1.0, 0.0, 0.0, 1.0, 2.05, 1.65)">
    <path d="M1.1 -1.35 L1.1 -1.4 1.05 -1.45 1.1 -1.45 1.2 -1.4 1.2 -1.5 1.25 -1.45 1.3 -1.35 1.4 -1.4 1.45 -1.5 1.5 -1.45 1.45 -1.45 1.4 -1.4 1.35 -1.3 1.35 -1.2 1.45 -1.2 1.5 -1.2 1.6 -1.15 1.65 -1.0 1.7 -1.0 1.75 -1.05 1.75 -1.1 1.8 -1.1 1.8 -1.05 1.8 -0.95 Q1.85 -0.95 1.85 -0.95 L1.95 -0.95 1.95 -0.85 1.8 -0.85 1.6 -0.85 1.55 -0.7 1.45 -0.85 1.5 -0.95 1.45 -1.05 1.4 -1.15 1.3 -1.2 1.3 -1.3 1.1 -1.35 M-0.7 -1.4 L-0.6 -1.45 -0.55 -1.3 -0.5 -1.2 Q-0.6 -1.25 -0.6 -1.2 L-0.6 -1.15 -0.7 -1.15 -0.65 -1.2 -0.7 -1.25 -0.7 -1.4 M-0.5 -1.2 L-0.5 -1.2" fill="#584357" fill-rule="evenodd" stroke="none"/>
    <path d="M1.1 -1.6 L1.0 -1.5 0.9 -1.45 0.85 -1.5 0.8 -1.55 0.9 -1.65 1.1 -1.6 M-1.85 -0.6 L-1.55 -0.95 -1.4 -1.1 -1.25 -1.2 -1.15 -1.1 -1.3 -0.95 -1.45 -0.85 -1.5 -0.85 -1.5 -0.8 -1.55 -0.7 -1.8 -0.55 -1.85 -0.6 M-1.6 0.1 L-1.55 0.25 -1.6 0.3 -1.7 0.3 -1.8 0.15 -1.75 0.1 -1.65 0.1 -1.6 0.1" fill="#c4beb6" fill-rule="evenodd" stroke="none"/>
    <path d="M1.45 -1.5 L1.4 -1.4 1.3 -1.35 1.25 -1.45 1.2 -1.5 1.2 -1.4 1.1 -1.45 1.05 -1.45 1.1 -1.4 1.1 -1.35 1.1 -1.3 Q1.0 -1.4 0.8 -1.4 L0.6 -1.4 0.6 -1.45 0.6 -1.5 0.55 -1.5 0.55 -1.45 0.45 -1.45 0.55 -1.55 0.6 -1.65 0.75 -1.65 0.8 -1.65 0.65 -1.65 0.65 -1.5 0.8 -1.5 0.8 -1.55 0.85 -1.5 0.9 -1.45 1.0 -1.5 1.1 -1.6 1.45 -1.5 M1.1 -1.3 L1.1 -1.3 M1.25 0.1 L1.3 0.2 1.35 0.15 1.3 0.0 1.3 -0.15 1.35 -0.05 1.4 0.05 1.5 0.25 1.5 0.45 1.4 0.7 1.3 0.9 1.15 1.0 1.1 1.0 1.15 0.85 1.15 0.7 1.1 0.75 1.05 0.8 1.05 0.75 1.05 0.5 1.0 0.3 1.15 0.2 1.25 0.1" fill="#8f828c" fill-rule="evenodd" stroke="none"/>
    <path d="M1.1 -1.35 L1.3 -1.3 1.3 -1.2 1.25 -1.2 1.1 -1.3 1.1 -1.35" fill="#311c24" fill-rule="evenodd" stroke="none"/>
    <path d="M1.1 -1.3 L1.1 -1.3 1.25 -1.2 1.3 -1.2 1.25 -1.2 1.25 -1.15 1.2 -1.2 1.15 -1.2 Q1.1 -1.25 1.05 -1.25 L1.0 -1.3 1.05 -1.3 1.1 -1.3 M1.25 -1.15 L1.25 -1.15" fill="#701e25" fill-rule="evenodd" stroke="none"/>
    <path d="M0.8 -1.4 Q1.0 -1.4 1.1 -1.3 L1.05 -1.3 1.0 -1.3 0.9 -1.3 0.85 -1.25 0.8 -1.35 0.8 -1.4 M-1.7 -0.4 L-1.65 -0.35 Q-1.65 -0.3 -1.65 -0.25 L-1.75 -0.3 Q-1.75 -0.4 -1.7 -0.4" fill="#ff848c" fill-rule="evenodd" stroke="none"/>
    <path d="M1.0 -1.3 L1.05 -1.25 Q1.1 -1.25 1.15 -1.2 L1.2 -1.2 1.25 -1.15 1.2 -1.05 1.15 -1.05 1.15 -1.1 0.85 -1.25 0.8 -1.25 0.75 -1.25 0.8 -1.25 0.85 -1.25 0.9 -1.3 1.0 -1.3" fill="#ff1d24" fill-rule="evenodd" stroke="none"/>
    <path d="M0.25 -1.15 L0.2 -1.15 0.3 -1.2 0.35 -1.25 0.4 -1.25 0.45 -1.25 0.6 -1.25 0.75 -1.25 0.8 -1.25 0.85 -1.25 1.15 -1.1 1.15 -1.05 0.8 -1.15 0.25 -1.15" fill="#631e25" fill-rule="evenodd" stroke="none"/>
    <path d="M1.95 -0.95 L1.85 -0.95 Q1.85 -0.95 1.8 -0.95 L1.8 -1.05 1.8 -1.1 1.75 -1.1 1.75 -1.05 1.7 -1.0 1.65 -1.0 1.6 -1.15 1.5 -1.2 1.45 -1.2 1.35 -1.2 1.35 -1.3 1.4 -1.4 1.45 -1.45 1.5 -1.45 1.8 -1.25 1.95 -0.95" fill="#8e828c" fill-rule="evenodd" stroke="none"/>
    <path d="M1.25 -1.15 L1.25 -1.15 1.35 -1.1 1.4 -1.05 1.4 -0.95 1.35 -0.9 1.2 -1.05 1.25 -1.15 1.25 -1.15" fill="#ff4457" fill-rule="evenodd" stroke="none"/>
    <path d="M1.3 -1.2 L1.4 -1.15 1.45 -1.05 1.5 -0.95 1.45 -0.85 1.35 -0.9 1.4 -0.95 1.4 -1.05 1.35 -1.1 1.25 -1.15 1.25 -1.2 1.3 -1.2 M-1.45 -0.65 L-1.4 -0.6 -1.45 -0.6 -1.5 -0.65 -1.5 -0.7 -1.45 -0.65" fill="#814357" fill-rule="evenodd" stroke="none"/>
    <path d="M0.55 -1.45 L0.55 -1.5 0.6 -1.5 0.6 -1.45 0.55 -1.4 0.55 -1.45 0.55 -1.45" fill="#5e4458" fill-rule="evenodd" stroke="none"/>
    <path d="M0.6 -1.65 L0.55 -1.55 0.45 -1.45 0.35 -1.45 0.3 -1.45 0.1 -1.4 0.1 -1.6 0.35 -1.6 0.55 -1.65 0.6 -1.65 M0.7 -0.1 L0.7 -0.1 0.75 -0.2 0.8 -0.1 Q0.8 -0.1 0.85 -0.1 L0.9 -0.1 0.95 -0.1 1.0 -0.05 1.0 0.05 1.1 0.05 1.1 0.0 1.15 -0.05 1.2 0.0 1.25 0.1 1.15 0.2 1.0 0.3 0.95 0.25 0.9 0.15 0.85 0.05 0.75 -0.05 0.75 -0.05 0.7 -0.1 M-1.15 -1.2 L-0.7 -1.4 -0.7 -1.25 -0.85 -1.15 -0.9 -1.1 -0.95 -1.15 -1.05 -1.15 -1.15 -1.1 -1.15 -1.2 M-1.45 0.35 L-1.3 0.5 -1.35 0.6 -1.4 0.75 -1.55 0.7 -1.65 0.6 -1.6 0.5 -1.55 0.45 -1.45 0.35 M-0.65 0.4 L-0.5 0.3 -0.4 0.25 -0.3 0.15 -0.25 0.2 Q-0.35 0.35 -0.35 0.6 L-0.5 0.65 -0.6 0.65 -0.65 0.55 -0.65 0.45 -0.65 0.4" fill="#c4bfb6" fill-rule="evenodd" stroke="none"/>
    <path d="M0.8 -1.55 L0.8 -1.5 0.65 -1.5 0.65 -1.65 0.8 -1.65 0.9 -1.65 0.8 -1.55 M1.55 -0.4 Q1.6 -0.45 1.6 -0.6 L1.6 -0.65 1.7 -0.65 1.75 -0.6 1.7 -0.6 1.75 -0.55 1.7 -0.55 1.65 -0.45 1.55 -0.4" fill="#544257" fill-rule="evenodd" stroke="none"/>
    <path d="M0.45 -1.45 L0.55 -1.45 0.55 -1.4 0.35 -1.4 0.3 -1.4 0.15 -1.35 0.15 -1.35 0.15 -1.35 0.1 -1.4 0.3 -1.45 0.35 -1.45 0.45 -1.45 M0.55 -1.45 L0.55 -1.45" fill="#ab8890" fill-rule="evenodd" stroke="none"/>
    <path d="M0.6 -1.45 L0.6 -1.4 0.6 -1.35 0.55 -1.35 0.55 -1.35 0.55 -1.4 0.55 -1.45 0.55 -1.4 0.6 -1.45" fill="#944357" fill-rule="evenodd" stroke="none"/>
    <path d="M0.15 -1.3 L0.15 -1.35 0.15 -1.35 0.3 -1.4 0.35 -1.4 0.55 -1.4 0.55 -1.35 0.45 -1.35 0.4 -1.3 0.3 -1.3 0.15 -1.3 M-0.85 1.15 L-0.9 1.15 -0.9 1.15 -1.05 1.05 -1.1 1.0 -1.0 1.0 -0.9 1.05 -0.9 1.1 -0.85 1.15 M-1.55 0.9 L-1.5 0.9 -1.45 0.9 -1.45 0.95 -1.5 0.95 -1.55 0.9" fill="#ff898f" fill-rule="evenodd" stroke="none"/>
    <path d="M0.1 -1.3 L0.15 -1.3 0.3 -1.3 0.4 -1.3 0.45 -1.35 0.55 -1.35 0.55 -1.35 0.6 -1.35 0.6 -1.3 0.7 -1.35 0.8 -1.35 0.85 -1.25 0.8 -1.25 0.75 -1.25 0.6 -1.25 0.45 -1.25 0.4 -1.25 0.35 -1.25 0.3 -1.25 Q0.25 -1.2 0.2 -1.2 L0.15 -1.25 0.1 -1.25 0.1 -1.3" fill="#ff4658" fill-rule="evenodd" stroke="none"/>
    <path d="M0.05 -1.2 L0.05 -1.25 0.1 -1.25 0.15 -1.25 0.2 -1.2 Q0.25 -1.2 0.3 -1.25 L0.35 -1.25 0.3 -1.2 0.2 -1.15 0.25 -1.15 0.05 -1.1 -0.15 -1.05 -0.2 -1.1 -0.3 -1.05 -0.4 -1.0 -0.45 -1.05 -0.5 -1.05 -0.45 -1.0 -0.55 -1.0 -0.55 -0.95 -0.65 -0.95 -0.65 -0.95 -0.65 -1.05 -0.6 -1.05 -0.55 -1.05 -0.5 -1.15 -0.5 -1.15 -0.45 -1.05 -0.4 -1.15 -0.25 -1.1 -0.2 -1.2 -0.15 -1.2 -0.2 -1.1 Q-0.05 -1.1 0.05 -1.2 L0.1 -1.15 0.15 -1.2 0.15 -1.25 0.05 -1.2 M-0.5 -1.15 L-0.5 -1.15" fill="#821d24" fill-rule="evenodd" stroke="none"/>
    <path d="M0.6 -1.4 L0.8 -1.4 0.8 -1.35 0.7 -1.35 0.6 -1.3 0.6 -1.35 0.6 -1.4" fill="#ff858c" fill-rule="evenodd" stroke="none"/>
    <path d="M-0.25 0.1 L-0.2 -0.05 -0.05 -0.15 0.05 -0.2 0.15 -0.15 0.35 -0.25 0.65 -0.3 0.65 -0.1 0.35 -0.15 0.1 -0.05 -0.05 0.0 -0.2 0.1 -0.25 0.1 M-0.2 0.1 L-0.2 0.1 M-1.15 0.5 L-1.05 0.5 -0.9 0.5 -0.9 0.6 Q-0.9 0.7 -0.95 0.75 L-1.1 0.75 -1.2 0.7 -1.2 0.6 -1.15 0.5" fill="#c3beb6" fill-rule="evenodd" stroke="none"/>
    <path d="M0.65 -0.1 L0.65 -0.3 0.75 -0.25 0.85 -0.25 Q0.95 -0.2 1.1 -0.15 1.15 -0.1 1.25 -0.15 L1.4 -0.2 1.35 -0.15 1.3 -0.1 1.6 0.0 1.7 -0.15 1.8 -0.35 1.9 -0.3 1.8 -0.1 1.75 0.05 1.75 0.1 1.7 0.1 1.7 0.15 1.6 0.1 1.5 0.0 Q1.5 0.1 1.55 0.15 L1.6 0.2 1.65 0.25 1.65 0.35 1.6 0.35 1.55 0.35 1.55 0.45 1.5 0.45 1.5 0.25 1.4 0.05 1.35 -0.05 1.3 -0.15 1.3 0.0 1.35 0.15 1.3 0.2 1.25 0.1 1.2 0.0 1.15 -0.05 1.1 0.0 1.1 0.05 1.0 0.05 1.0 -0.05 0.95 -0.1 0.9 -0.1 0.85 -0.1 Q0.8 -0.1 0.8 -0.1 L0.75 -0.2 0.7 -0.1 0.7 -0.1 0.7 -0.05 0.65 -0.05 0.65 -0.1" fill="#584457" fill-rule="evenodd" stroke="none"/>
    <path d="M1.85 -0.6 L1.9 -0.65 1.95 -0.65 2.0 -0.75 2.05 -0.5 Q1.95 -0.55 1.95 -0.6 L1.95 -0.6 1.85 -0.6 1.85 -0.6" fill="#5a4a5e" fill-rule="evenodd" stroke="none"/>
    <path d="M1.9 -0.3 L1.8 -0.35 1.8 -0.4 1.85 -0.35 1.9 -0.35 1.95 -0.4 1.8 -0.5 1.75 -0.55 1.7 -0.6 1.75 -0.6 1.8 -0.6 1.85 -0.6 1.85 -0.6 1.85 -0.6 1.95 -0.6 1.95 -0.6 Q1.95 -0.55 2.05 -0.5 L2.05 -0.45 2.05 -0.4 1.95 -0.35 1.95 -0.4 Q1.9 -0.35 1.95 -0.25 L1.95 -0.25 1.9 -0.3" fill="#301c24" fill-rule="evenodd" stroke="none"/>
    <path d="M1.55 -0.7 L1.6 -0.85 1.8 -0.85 1.95 -0.85 2.0 -0.75 1.95 -0.65 1.9 -0.65 1.85 -0.6 1.85 -0.6 1.8 -0.6 1.75 -0.6 1.7 -0.65 1.6 -0.65 1.6 -0.6 1.55 -0.7" fill="#8f848e" fill-rule="evenodd" stroke="none"/>
    <path d="M1.4 -0.2 L1.55 -0.4 1.65 -0.45 1.7 -0.55 1.75 -0.55 1.8 -0.5 1.8 -0.45 1.8 -0.35 1.7 -0.15 1.6 0.0 1.3 -0.1 1.35 -0.15 1.4 -0.2" fill="#8e818c" fill-rule="evenodd" stroke="none"/>
    <path d="M1.8 -0.5 L1.95 -0.4 1.9 -0.35 1.85 -0.35 1.8 -0.4 1.8 -0.45 1.8 -0.5" fill="#59495e" fill-rule="evenodd" stroke="none"/>
    <path d="M1.7 0.15 L1.7 0.1 1.75 0.1 1.75 0.05 1.8 -0.1 1.9 -0.3 1.95 -0.25 1.95 -0.25 1.9 -0.15 1.9 -0.05 1.85 -0.05 1.85 0.0 1.75 0.15 1.75 0.2 1.7 0.15" fill="#75475b" fill-rule="evenodd" stroke="none"/>
    <path d="M1.95 -0.25 L1.95 -0.25 Q1.9 -0.35 1.95 -0.4 L1.95 -0.35 2.05 -0.4 2.05 -0.35 2.05 -0.15 1.95 -0.25 1.95 -0.25" fill="#4b1c24" fill-rule="evenodd" stroke="none"/>
    <path d="M-1.25 -1.2 L-1.15 -1.2 -1.15 -1.1 -1.1 -1.05 -1.1 -1.0 -1.15 -1.0 Q-1.15 -1.05 -1.15 -1.1 L-1.25 -1.2" fill="#574357" fill-rule="evenodd" stroke="none"/>
    <path d="M-0.7 -1.25 L-0.65 -1.2 -0.7 -1.15 -0.75 -1.15 -0.8 -1.2 -0.8 -1.15 -0.75 -1.1 Q-0.9 -1.0 -1.05 -0.95 L-1.1 -1.0 -1.1 -1.05 -1.15 -1.1 -1.05 -1.15 -0.95 -1.15 -0.9 -1.1 -0.85 -1.15 -0.7 -1.25 M-0.7 -1.15 L-0.7 -1.15" fill="#94828c" fill-rule="evenodd" stroke="none"/>
    <path d="M-1.5 -0.8 L-1.4 -0.7 -1.45 -0.65 -1.5 -0.7 -1.5 -0.65 -1.6 -0.6 -1.65 -0.55 -1.7 -0.45 -1.75 -0.5 -1.8 -0.55 -1.55 -0.7 -1.5 -0.8" fill="#9b8a93" fill-rule="evenodd" stroke="none"/>
    <path d="M-1.9 -0.55 L-1.85 -0.6 -1.8 -0.55 -1.75 -0.5 -1.7 -0.45 -1.7 -0.4 -1.8 -0.45 -1.9 -0.55" fill="#5e4e61" fill-rule="evenodd" stroke="none"/>
    <path d="M-1.3 -0.75 L-1.3 -0.75 -1.25 -0.75 -1.2 -0.75 -1.15 -0.75 -1.15 -0.75 -1.1 -0.8 -1.05 -0.85 -1.0 -0.85 -0.95 -0.85 -0.95 -0.85 -0.9 -0.8 -0.75 -0.85 -0.8 -0.8 -1.1 -0.65 -1.35 -0.5 -1.6 -0.25 -1.6 -0.25 -1.65 -0.2 -1.65 -0.25 Q-1.65 -0.3 -1.65 -0.35 L-1.7 -0.4 -1.7 -0.45 -1.65 -0.45 -1.65 -0.4 -1.55 -0.45 -1.45 -0.5 -1.4 -0.55 -1.35 -0.65 -1.35 -0.7 -1.3 -0.75" fill="#7b1d24" fill-rule="evenodd" stroke="none"/>
    <path d="M-2.0 -0.25 L-1.9 -0.55 -1.8 -0.45 -1.7 -0.4 Q-1.75 -0.4 -1.75 -0.3 L-1.65 -0.25 -1.65 -0.2 -1.75 -0.1 -1.9 -0.25 -1.95 -0.25 -2.0 -0.25" fill="#91828c" fill-rule="evenodd" stroke="none"/>
    <path d="M1.0 0.85 L1.05 0.75 1.05 0.8 1.1 0.75 1.15 0.7 1.15 0.85 1.1 1.0 1.15 1.0 1.3 0.9 1.3 1.0 1.25 1.1 1.2 1.15 1.15 1.15 1.1 1.1 1.05 0.95 Q1.05 0.9 1.0 0.85 M-2.05 0.25 L-2.05 0.05 -1.95 0.0 -1.85 0.0 -1.75 -0.05 -1.6 -0.05 -1.6 0.1 -1.65 0.1 -1.75 0.1 -1.8 0.15 -1.9 0.25 -1.95 0.35 -1.95 0.3 -2.05 0.25 M-2.05 -0.1 L-2.0 -0.25 -1.95 -0.25 -1.9 -0.25 -1.75 -0.1 -1.9 -0.1 -2.0 -0.1 -2.05 -0.1" fill="#584458" fill-rule="evenodd" stroke="none"/>
    <path d="M-1.1 -1.0 L-1.05 -0.95 -1.0 -0.95 -1.0 -0.9 -1.05 -0.9 -1.15 -0.85 -1.15 -0.95 -1.15 -1.0 -1.1 -1.0" fill="#341c24" fill-rule="evenodd" stroke="none"/>
    <path d="M-1.25 -0.85 L-1.3 -0.95 -1.25 -0.95 -1.2 -0.95 -1.15 -0.95 -1.15 -0.85 -1.2 -0.85 -1.25 -0.8 -1.25 -0.85" fill="#634b5e" fill-rule="evenodd" stroke="none"/>
    <path d="M-1.15 -1.0 L-1.15 -0.95 -1.2 -0.95 -1.25 -0.95 -1.3 -0.95 -1.25 -0.85 -1.35 -0.8 -1.4 -0.8 Q-1.4 -0.8 -1.45 -0.85 L-1.3 -0.95 -1.15 -1.1 Q-1.15 -1.05 -1.15 -1.0" fill="#948892" fill-rule="evenodd" stroke="none"/>
    <path d="M-1.15 -0.85 L-1.05 -0.9 -1.0 -0.9 -0.95 -0.9 -0.95 -0.85 -1.0 -0.85 -1.05 -0.85 -1.1 -0.8 -1.15 -0.75 -1.15 -0.75 -1.2 -0.75 -1.25 -0.75 -1.3 -0.75 -1.3 -0.8 -1.25 -0.8 -1.2 -0.85 -1.15 -0.85 M-1.0 -0.9 L-1.0 -0.9" fill="#572128" fill-rule="evenodd" stroke="none"/>
    <path d="M-1.35 -0.8 L-1.25 -0.85 -1.25 -0.8 -1.3 -0.8 -1.35 -0.8" fill="#b18c94" fill-rule="evenodd" stroke="none"/>
    <path d="M-1.45 -0.85 Q-1.4 -0.8 -1.4 -0.8 L-1.35 -0.8 -1.3 -0.8 -1.3 -0.75 -1.35 -0.75 -1.4 -0.7 -1.5 -0.8 -1.5 -0.85 -1.45 -0.85 M-1.3 -0.75 L-1.3 -0.75" fill="#64495d" fill-rule="evenodd" stroke="none"/>
    <path d="M-1.4 -0.7 L-1.35 -0.75 -1.3 -0.75 -1.35 -0.7 -1.35 -0.65 -1.4 -0.7" fill="#9c4b5f" fill-rule="evenodd" stroke="none"/>
    <path d="M-1.5 -0.6 L-1.55 -0.55 -1.65 -0.5 -1.65 -0.45 -1.7 -0.45 -1.65 -0.55 -1.6 -0.6 -1.5 -0.65 -1.5 -0.6" fill="#cd848c" fill-rule="evenodd" stroke="none"/>
    <path d="M-1.45 -0.65 L-1.4 -0.7 -1.35 -0.65 -1.4 -0.55 -1.45 -0.5 -1.55 -0.45 -1.65 -0.4 -1.65 -0.45 -1.65 -0.5 -1.55 -0.55 -1.5 -0.6 -1.45 -0.6 -1.4 -0.6 -1.45 -0.65" fill="#ff888f" fill-rule="evenodd" stroke="none"/>
    <path d="M-1.65 -0.2 L-1.6 -0.25 -1.6 -0.25 -1.6 -0.1 -1.75 -0.1 -1.75 -0.1 -1.65 -0.2" fill="#311e26" fill-rule="evenodd" stroke="none"/>
    <path d="M0.1 -1.6 L0.1 -1.4 0.15 -1.35 0.15 -1.35 0.15 -1.3 0.1 -1.3 0.0 -1.35 -0.05 -1.5 -0.05 -1.55 0.1 -1.6" fill="#58465a" fill-rule="evenodd" stroke="none"/>
    <path d="M-0.05 -1.55 L-0.05 -1.5 -0.15 -1.45 -0.2 -1.35 -0.3 -1.4 -0.4 -1.35 -0.45 -1.35 -0.55 -1.3 -0.6 -1.45 -0.3 -1.5 -0.05 -1.55" fill="#c4c1b9" fill-rule="evenodd" stroke="none"/>
    <path d="M-0.05 -1.5 L0.0 -1.35 -0.05 -1.3 -0.1 -1.3 -0.15 -1.35 -0.2 -1.25 -0.2 -1.3 -0.5 -1.25 -0.5 -1.2 -0.55 -1.3 -0.45 -1.35 -0.4 -1.35 -0.3 -1.4 -0.2 -1.35 -0.15 -1.45 -0.05 -1.5" fill="#96828c" fill-rule="evenodd" stroke="none"/>
    <path d="M-0.05 -1.3 L-0.05 -1.25 -0.15 -1.2 -0.2 -1.2 -0.25 -1.2 -0.2 -1.25 -0.15 -1.35 -0.1 -1.3 -0.05 -1.3" fill="#864357" fill-rule="evenodd" stroke="none"/>
    <path d="M-0.2 -1.25 L-0.25 -1.2 -0.25 -1.2 -0.3 -1.2 -0.35 -1.2 Q-0.4 -1.2 -0.45 -1.2 L-0.5 -1.2 -0.5 -1.25 -0.2 -1.3 -0.2 -1.25" fill="#c6838c" fill-rule="evenodd" stroke="none"/>
    <path d="M-0.5 -1.15 L-0.5 -1.15 -0.5 -1.2 -0.5 -1.2 -0.45 -1.2 Q-0.4 -1.2 -0.35 -1.2 L-0.3 -1.2 -0.4 -1.15 -0.5 -1.15 M-0.5 -1.25 L-0.5 -1.2 -0.5 -1.25" fill="#994a5d" fill-rule="evenodd" stroke="none"/>
    <path d="M-0.2 -1.2 L-0.25 -1.1 -0.4 -1.15 -0.45 -1.05 -0.5 -1.15 -0.4 -1.15 -0.3 -1.2 -0.25 -1.2 -0.25 -1.2 -0.2 -1.2 -0.2 -1.2" fill="#de4457" fill-rule="evenodd" stroke="none"/>
    <path d="M0.0 -1.35 L0.1 -1.3 0.1 -1.25 0.05 -1.25 0.05 -1.2 -0.05 -1.2 -0.15 -1.2 -0.2 -1.2 -0.15 -1.2 -0.05 -1.25 -0.05 -1.3 0.0 -1.35 M-0.2 -1.2 L-0.2 -1.2" fill="#4a1d24" fill-rule="evenodd" stroke="none"/>
    <path d="M-0.65 -0.95 L-0.55 -0.95 -0.55 -1.0 -0.45 -1.0 -0.5 -1.05 -0.45 -1.05 -0.4 -1.0 -0.3 -1.05 -0.2 -1.1 -0.15 -1.05 -0.25 -1.0 -0.3 -1.0 -0.6 -0.9 -0.65 -0.9 -0.65 -0.95" fill="#521d24" fill-rule="evenodd" stroke="none"/>
    <path d="M0.05 -1.2 L0.15 -1.25 0.15 -1.2 0.1 -1.15 0.05 -1.2 Q-0.05 -1.1 -0.2 -1.1 L-0.15 -1.2 -0.05 -1.2 0.05 -1.2" fill="#c11d24" fill-rule="evenodd" stroke="none"/>
    <path d="M-0.6 -1.05 L-0.65 -1.05 -0.7 -1.05 -0.75 -1.0 -0.8 -1.0 -0.85 -0.95 -0.85 -0.9 -0.95 -0.9 -1.0 -0.9 -1.0 -0.95 -1.05 -0.95 Q-0.9 -1.0 -0.75 -1.1 L-0.75 -1.1 -0.7 -1.15 -0.6 -1.15 -0.6 -1.05 M-0.7 -1.15 L-0.7 -1.15" fill="#8a4357" fill-rule="evenodd" stroke="none"/>
    <path d="M-0.75 -1.1 L-0.8 -1.15 -0.8 -1.2 -0.75 -1.15 -0.7 -1.15 -0.75 -1.1 -0.75 -1.1" fill="#664d60" fill-rule="evenodd" stroke="none"/>
    <path d="M-0.5 -1.15 L-0.5 -1.15 -0.55 -1.05 -0.6 -1.05 -0.6 -1.15 -0.6 -1.2 Q-0.6 -1.25 -0.5 -1.2 L-0.5 -1.15" fill="#431c24" fill-rule="evenodd" stroke="none"/>
    <path d="M-0.65 -1.05 L-0.65 -0.95 -0.65 -0.95 -0.65 -0.9 -0.75 -0.9 -0.75 -0.85 -0.9 -0.8 -0.95 -0.85 -0.95 -0.85 -0.95 -0.9 -0.85 -0.9 -0.85 -0.95 -0.8 -1.0 -0.75 -1.0 -0.7 -1.05 -0.65 -1.05" fill="#e34457" fill-rule="evenodd" stroke="none"/>
    <path d="M-0.2 0.1 L-0.05 0.0 0.1 -0.05 0.35 -0.15 0.65 -0.1 0.65 -0.05 0.65 -0.05 0.6 0.0 0.6 0.1 0.5 0.2 0.4 0.25 0.3 0.25 0.15 0.3 0.0 0.35 -0.05 0.3 -0.15 0.2 -0.2 0.1 M-0.8 -0.8 L-0.75 -0.85 -0.75 -0.9 -0.65 -0.9 -0.6 -0.9 -0.7 -0.85 -0.8 -0.8" fill="#b52b4c" fill-rule="evenodd" stroke="none"/>
    <path d="M-0.25 0.1 L-0.2 0.1 -0.2 0.15 -0.25 0.2 -0.3 0.15 -0.25 0.1" fill="#90858f" fill-rule="evenodd" stroke="none"/>
    <path d="M-0.2 0.1 L-0.2 0.1 -0.15 0.2 -0.05 0.3 -0.15 0.35 -0.2 0.15 -0.2 0.1" fill="#e73a68" fill-rule="evenodd" stroke="none"/>
    <path d="M-0.1 0.45 L-0.15 0.6 -0.15 0.7 -0.15 0.75 -0.1 0.75 -0.1 0.8 -0.05 0.85 0.05 0.95 0.15 1.0 0.2 1.15 0.25 1.1 Q0.25 1.2 0.3 1.25 L0.45 1.3 0.35 1.3 -0.1 1.15 -0.25 0.95 -0.3 0.8 -0.35 0.6 Q-0.35 0.35 -0.25 0.2 L-0.2 0.15 -0.15 0.35 -0.1 0.45 M-0.35 0.6 L-0.35 0.6" fill="#7f1c32" fill-rule="evenodd" stroke="none"/>
    <path d="M0.5 0.2 L0.55 0.2 0.55 0.25 0.55 0.3 0.4 0.3 Q0.35 0.3 0.3 0.35 L0.25 0.35 0.15 0.35 Q0.05 0.35 0.05 0.4 L-0.05 0.45 -0.05 0.5 -0.1 0.5 -0.1 0.45 -0.15 0.35 -0.05 0.3 0.0 0.35 0.15 0.3 0.3 0.25 0.4 0.25 0.5 0.2" fill="#ff4579" fill-rule="evenodd" stroke="none"/>
    <path d="M-0.1 0.45 L-0.1 0.5 -0.05 0.55 -0.05 0.8 0.05 0.8 0.0 0.8 0.05 0.85 0.15 0.9 0.2 1.0 0.25 1.05 0.3 1.05 0.4 1.2 0.55 1.3 0.45 1.3 0.3 1.25 Q0.25 1.2 0.25 1.1 L0.2 1.15 0.15 1.0 0.05 0.95 -0.05 0.85 -0.1 0.8 -0.1 0.75 -0.15 0.75 -0.15 0.7 -0.15 0.6 -0.1 0.45 -0.1 0.45" fill="#b82948" fill-rule="evenodd" stroke="none"/>
    <path d="M-0.35 0.6 Q-0.45 0.7 -0.4 0.9 L-0.35 1.0 -0.3 1.1 -0.4 1.1 -0.45 1.0 -0.5 1.05 -0.45 1.15 -0.5 1.15 -0.55 1.1 -0.6 1.05 -0.65 0.95 -0.7 0.8 -0.7 0.6 -0.65 0.45 -0.65 0.55 -0.6 0.65 -0.5 0.65 -0.35 0.6 -0.35 0.6" fill="#8f848d" fill-rule="evenodd" stroke="none"/>
    <path d="M-0.05 0.5 L-0.05 0.45 0.05 0.4 Q0.05 0.35 0.15 0.35 L0.25 0.35 0.2 0.4 0.2 0.45 Q0.1 0.45 0.0 0.5 L-0.05 0.5" fill="#ff83e4" fill-rule="evenodd" stroke="none"/>
    <path d="M-0.1 0.5 L-0.05 0.5 0.0 0.5 Q0.1 0.45 0.2 0.45 L0.2 0.4 0.25 0.35 0.3 0.35 0.4 0.35 0.5 0.35 0.55 0.35 0.55 0.3 0.6 0.35 0.6 0.4 0.6 0.45 0.55 0.5 Q0.5 0.75 0.35 0.8 L0.25 0.8 0.15 0.75 0.1 0.7 0.0 0.65 -0.05 0.55 -0.1 0.5" fill="#ffffff" fill-rule="evenodd" stroke="none"/>
    <path d="M0.0 0.65 L0.05 0.7 0.05 0.75 0.05 0.8 -0.05 0.8 -0.05 0.55 0.0 0.65" fill="#ff4373" fill-rule="evenodd" stroke="none"/>
    <path d="M-0.75 0.95 L-0.75 1.05 Q-0.8 1.0 -0.8 1.0 L-0.85 1.0 Q-0.9 0.95 -1.0 0.95 -1.05 0.9 -1.1 0.95 L-1.2 0.8 -1.2 0.7 -1.1 0.75 -0.95 0.75 Q-0.9 0.7 -0.9 0.6 L-0.9 0.5 -0.8 0.45 -0.85 0.7 -0.75 0.95" fill="#8f838c" fill-rule="evenodd" stroke="none"/>
    <path d="M-0.65 0.95 L-0.75 0.95 -0.85 0.7 -0.8 0.45 -0.75 0.45 -0.65 0.4 -0.65 0.45 -0.7 0.6 -0.7 0.8 -0.65 0.95" fill="#534257" fill-rule="evenodd" stroke="none"/>
    <path d="M0.45 1.4 L0.3 1.45 0.1 1.45 -0.85 1.3 -0.9 1.25 -0.9 1.15 -0.85 1.15 -0.8 1.15 -0.85 1.0 -0.8 1.0 Q-0.8 1.0 -0.75 1.05 L-0.75 0.95 -0.65 0.95 -0.6 1.05 -0.55 1.1 -0.5 1.15 -0.45 1.15 -0.5 1.05 -0.45 1.0 -0.4 1.1 -0.3 1.1 -0.35 1.0 -0.4 0.9 Q-0.45 0.7 -0.35 0.6 L-0.3 0.8 -0.25 0.95 -0.1 1.15 0.35 1.3 0.3 1.35 0.35 1.35 0.4 1.35 0.4 1.4 0.45 1.4" fill="#2f1d25" fill-rule="evenodd" stroke="none"/>
    <path d="M-0.85 1.0 L-0.8 1.15 -0.85 1.15 -0.9 1.1 -0.9 1.05 -1.0 1.0 -1.1 1.0 -1.1 1.0 -1.1 0.95 Q-1.05 0.9 -1.0 0.95 -0.9 0.95 -0.85 1.0" fill="#bd838c" fill-rule="evenodd" stroke="none"/>
    <path d="M-0.85 1.3 L-1.15 1.25 -1.4 1.15 -1.45 1.1 -1.35 1.05 -1.35 1.15 -1.25 1.15 -1.2 1.1 -1.15 1.15 -1.1 1.15 -0.95 1.2 -0.95 1.2 -0.9 1.15 -0.9 1.25 -0.85 1.3 M-0.9 1.15 L-0.9 1.15" fill="#531d24" fill-rule="evenodd" stroke="none"/>
    <path d="M-1.45 1.1 L-1.5 1.05 -1.45 1.05 -1.45 1.05 -1.4 1.05 -1.4 1.0 -1.35 1.0 -1.3 1.05 -1.25 1.15 -1.2 1.05 -1.15 1.1 -1.05 1.05 -0.9 1.15 -0.95 1.2 -0.95 1.2 -1.1 1.15 -1.15 1.15 -1.2 1.1 -1.25 1.15 -1.35 1.15 -1.35 1.05 -1.45 1.1" fill="#7c1e25" fill-rule="evenodd" stroke="none"/>
    <path d="M0.55 0.5 L0.6 0.55 0.55 0.65 0.5 0.75 0.45 0.8 0.45 0.95 0.4 1.0 0.4 0.95 0.4 0.95 Q0.35 0.9 0.25 0.85 L0.2 0.85 0.1 0.8 Q0.1 0.75 0.05 0.7 L0.0 0.65 0.1 0.7 0.15 0.75 0.25 0.8 0.35 0.8 Q0.5 0.75 0.55 0.5" fill="#ff98ff" fill-rule="evenodd" stroke="none"/>
    <path d="M0.1 0.8 L0.2 0.85 0.25 0.85 0.3 0.95 0.35 1.0 0.4 1.1 0.45 1.15 0.45 1.1 0.5 1.15 0.55 1.1 0.55 1.0 0.6 1.0 0.6 1.05 0.65 1.05 0.6 1.05 0.65 1.1 0.55 1.2 0.45 1.2 0.4 1.15 0.35 1.05 0.3 1.0 0.25 0.95 0.15 0.85 0.05 0.85 0.0 0.8 0.05 0.8 0.05 0.75 0.1 0.8" fill="#ff5893" fill-rule="evenodd" stroke="none"/>
    <path d="M0.05 0.7 Q0.1 0.75 0.1 0.8 L0.05 0.75 0.05 0.7" fill="#ff69b8" fill-rule="evenodd" stroke="none"/>
    <path d="M0.65 1.05 L0.65 1.2 0.6 1.25 0.55 1.3 0.4 1.2 0.3 1.05 0.25 1.05 0.2 1.0 0.15 0.9 0.05 0.85 0.15 0.85 0.25 0.95 0.3 1.0 0.35 1.05 0.4 1.15 0.45 1.2 0.55 1.2 0.65 1.1 0.6 1.05 0.65 1.05" fill="#ff3965" fill-rule="evenodd" stroke="none"/>
    <path d="M-2.05 0.05 L-2.05 -0.1 -2.0 -0.1 -1.9 -0.1 -1.75 -0.1 -1.75 -0.1 -1.6 -0.1 -1.6 -0.05 -1.75 -0.05 -1.85 0.0 -1.95 0.0 -2.05 0.05 M-1.55 0.25 L-1.5 0.3 Q-1.55 0.35 -1.6 0.35 L-1.7 0.45 -1.75 0.5 -1.8 0.5 -1.8 0.4 -1.85 0.35 -1.95 0.35 -1.95 0.35 -1.9 0.25 -1.8 0.15 -1.7 0.3 -1.6 0.3 -1.55 0.25" fill="#8f868f" fill-rule="evenodd" stroke="none"/>
    <path d="M-1.5 0.3 L-1.45 0.35 -1.55 0.45 -1.6 0.5 -1.7 0.45 -1.6 0.35 Q-1.55 0.35 -1.5 0.3" fill="#514257" fill-rule="evenodd" stroke="none"/>
    <path d="M-1.8 0.85 L-1.95 0.6 -2.05 0.25 -1.95 0.3 -1.95 0.35 -1.95 0.35 -1.85 0.35 -1.8 0.4 -1.8 0.5 -1.75 0.5 -1.7 0.45 -1.6 0.5 -1.65 0.6 -1.65 0.7 -1.6 0.8 -1.6 0.85 -1.65 0.85 Q-1.7 0.85 -1.7 0.8 L-1.8 0.85" fill="#2f1c24" fill-rule="evenodd" stroke="none"/>
    <path d="M-1.3 0.5 L-1.15 0.5 -1.2 0.6 -1.2 0.7 -1.2 0.8 -1.35 0.8 -1.35 0.6 -1.3 0.5" fill="#574257" fill-rule="evenodd" stroke="none"/>
    <path d="M-1.65 1.0 L-1.8 0.85 -1.7 0.8 Q-1.7 0.85 -1.65 0.85 L-1.6 0.85 -1.55 0.9 -1.65 1.0" fill="#4a1c24" fill-rule="evenodd" stroke="none"/>
    <path d="M-1.2 0.8 L-1.1 0.95 -1.1 1.0 -1.15 1.05 -1.15 1.0 -1.45 0.95 -1.45 0.9 -1.45 0.85 -1.45 0.8 -1.35 0.9 -1.35 0.8 -1.2 0.8" fill="#361d25" fill-rule="evenodd" stroke="none"/>
    <path d="M-1.65 0.6 L-1.55 0.7 -1.4 0.75 -1.35 0.6 -1.35 0.8 -1.35 0.9 -1.45 0.8 -1.45 0.85 Q-1.55 0.8 -1.6 0.8 L-1.65 0.7 -1.65 0.6" fill="#92858d" fill-rule="evenodd" stroke="none"/>
    <path d="M-1.5 1.05 L-1.65 1.0 -1.55 0.9 -1.5 0.95 -1.45 0.95 -1.15 1.0 -1.15 1.05 -1.1 1.0 -1.05 1.05 -1.15 1.1 -1.2 1.05 -1.25 1.15 -1.3 1.05 -1.35 1.0 -1.4 1.0 -1.4 1.05 -1.45 1.05 -1.45 1.05 -1.5 1.05 M-1.1 1.0 L-1.1 1.0" fill="#621d24" fill-rule="evenodd" stroke="none"/>
    <path d="M-1.6 0.85 L-1.6 0.8 Q-1.55 0.8 -1.45 0.85 L-1.45 0.9 -1.5 0.9 -1.55 0.9 -1.6 0.85" fill="#ab828c" fill-rule="evenodd" stroke="none"/>
    <path d="M1.9 -0.05 L1.9 -0.15 1.95 -0.25 2.05 -0.15 2.05 -0.1 2.0 -0.1 2.0 -0.05 1.95 -0.05 1.9 -0.05" fill="#651d24" fill-rule="evenodd" stroke="none"/>
    <path d="M2.0 -0.05 L2.0 -0.1 2.05 -0.1 2.0 -0.05" fill="#ff686b" fill-rule="evenodd" stroke="none"/>
    <path d="M1.8 0.25 L1.85 0.15 1.9 0.05 1.9 -0.05 1.95 -0.05 2.0 -0.05 2.0 0.0 1.95 0.1 1.85 0.3 1.75 0.55 1.7 0.45 1.7 0.4 1.8 0.3 1.75 0.3 1.75 0.25 1.8 0.25" fill="#881e25" fill-rule="evenodd" stroke="none"/>
    <path d="M1.75 0.2 L1.75 0.15 1.85 0.0 1.85 -0.05 1.9 -0.05 1.9 0.05 1.85 0.15 1.8 0.25 1.75 0.2" fill="#ae475b" fill-rule="evenodd" stroke="none"/>
    <path d="M1.5 0.45 L1.55 0.45 1.55 0.35 1.6 0.35 1.65 0.35 1.65 0.25 1.65 0.3 1.7 0.35 1.65 0.4 1.6 0.45 1.6 0.5 1.55 0.6 1.5 0.65 1.45 0.75 1.4 0.8 1.4 0.85 1.3 1.0 1.3 0.9 1.4 0.7 1.5 0.45" fill="#6f4659" fill-rule="evenodd" stroke="none"/>
    <path d="M1.65 0.25 L1.6 0.2 1.55 0.15 Q1.5 0.1 1.5 0.0 L1.6 0.1 1.7 0.15 1.75 0.2 1.65 0.3 1.65 0.25" fill="#2f1e26" fill-rule="evenodd" stroke="none"/>
    <path d="M1.75 0.2 L1.8 0.25 1.75 0.25 1.75 0.3 1.8 0.3 1.7 0.4 1.7 0.35 1.65 0.3 1.75 0.2" fill="#591f26" fill-rule="evenodd" stroke="none"/>
    <path d="M1.7 0.35 L1.7 0.4 1.7 0.45 1.7 0.5 1.65 0.55 1.6 0.6 1.5 0.7 1.4 0.85 1.4 0.8 1.45 0.75 1.5 0.65 1.55 0.6 1.6 0.5 1.6 0.45 1.65 0.4 1.7 0.35" fill="#9d4a5e" fill-rule="evenodd" stroke="none"/>
    <path d="M1.4 0.85 L1.5 0.7 1.6 0.6 1.65 0.55 1.7 0.5 1.7 0.45 1.75 0.55 1.6 0.7 1.4 0.85 1.35 1.0 1.25 1.1 1.3 1.0 1.4 0.85" fill="#df4457" fill-rule="evenodd" stroke="none"/>
    <path d="M0.7 -0.05 L0.7 -0.1 0.75 -0.05 0.75 -0.05 0.85 0.05 0.9 0.15 0.95 0.25 1.0 0.3 1.05 0.5 1.05 0.75 1.0 0.85 0.9 1.05 0.75 1.2 0.75 1.05 0.8 1.1 0.8 1.05 0.75 1.0 0.75 0.95 0.75 0.85 0.85 0.75 0.85 0.5 0.75 0.45 0.7 0.4 0.65 0.35 0.7 0.15 0.7 -0.05 0.65 -0.05 0.7 -0.05" fill="#801c32" fill-rule="evenodd" stroke="none"/>
    <path d="M0.65 -0.05 L0.7 -0.05 0.65 -0.05 0.65 -0.05 0.55 0.25 0.55 0.2 0.5 0.2 0.6 0.1 0.6 0.0 0.65 -0.05" fill="#e63e6e" fill-rule="evenodd" stroke="none"/>
    <path d="M0.65 -0.05 L0.7 -0.05 0.7 0.15 0.65 0.35 0.65 0.3 0.6 0.25 0.55 0.25 0.65 -0.05" fill="#f8a2bc" fill-rule="evenodd" stroke="none"/>
    <path d="M0.3 0.35 Q0.35 0.3 0.4 0.3 L0.55 0.3 0.55 0.35 0.5 0.35 0.4 0.35 0.3 0.35" fill="#ff6ec6" fill-rule="evenodd" stroke="none"/>
    <path d="M0.55 0.25 L0.6 0.25 0.65 0.3 0.65 0.35 0.6 0.4 0.6 0.35 0.55 0.3 0.55 0.25" fill="#ffbbdd" fill-rule="evenodd" stroke="none"/>
    <path d="M0.65 0.35 L0.7 0.4 0.75 0.45 0.85 0.5 0.85 0.75 0.75 0.85 0.75 0.95 0.75 1.0 0.8 1.05 0.8 1.1 0.75 1.05 0.75 1.2 0.7 1.25 0.75 1.15 0.7 1.0 0.65 1.0 0.65 0.9 0.7 0.85 0.75 0.8 0.8 0.65 0.75 0.45 0.65 0.35 0.65 0.3 0.65 0.35" fill="#a1223c" fill-rule="evenodd" stroke="none"/>
    <path d="M0.6 0.4 L0.65 0.35 0.75 0.45 0.8 0.65 0.75 0.8 0.7 0.85 0.65 0.9 0.65 1.0 0.7 1.0 0.75 1.15 0.7 1.25 0.6 1.25 0.65 1.2 0.65 1.05 0.6 1.05 0.6 1.0 0.6 0.8 0.7 0.65 0.7 0.5 0.6 0.4" fill="#cf2e50" fill-rule="evenodd" stroke="none"/>
    <path d="M0.6 0.45 L0.6 0.4 0.7 0.5 0.7 0.65 0.6 0.8 0.6 1.0 0.55 1.0 0.55 0.95 0.5 0.95 0.5 0.85 0.55 0.85 0.55 0.75 0.6 0.7 0.65 0.65 Q0.65 0.55 0.6 0.45" fill="#ff4071" fill-rule="evenodd" stroke="none"/>
    <path d="M0.25 0.85 Q0.35 0.9 0.4 0.95 L0.4 0.95 0.4 1.0 0.45 0.95 0.45 0.8 0.5 0.75 0.55 0.65 0.6 0.55 0.55 0.5 0.6 0.45 Q0.65 0.55 0.65 0.65 L0.6 0.7 0.55 0.75 0.55 0.85 0.5 0.85 0.5 0.95 0.55 0.95 0.55 1.0 0.55 1.1 0.5 1.15 0.45 1.1 0.45 1.15 0.4 1.1 0.35 1.0 0.3 0.95 0.25 0.85" fill="#ff65b6" fill-rule="evenodd" stroke="none"/>
    <path d="M0.7 1.35 L0.45 1.4 0.4 1.4 0.4 1.35 0.35 1.35 0.3 1.35 0.35 1.3 0.45 1.3 0.55 1.3 0.6 1.25 0.7 1.25 0.75 1.2 0.7 1.35" fill="#47303e" fill-rule="evenodd" stroke="none"/>
    <path d="M0.75 1.2 L0.9 1.05 1.0 0.85 Q1.05 0.9 1.05 0.95 L1.1 1.1 1.15 1.15 1.2 1.15 Q0.95 1.3 0.7 1.35 L0.75 1.2" fill="#2f1f27" fill-rule="evenodd" stroke="none"/>
    <path d="M1.45 -0.85 L1.55 -0.7 1.6 -0.6 Q1.6 -0.45 1.55 -0.4 L1.4 -0.2 1.25 -0.15 Q1.15 -0.1 1.1 -0.15 0.95 -0.2 0.85 -0.25 L0.75 -0.25 0.65 -0.3 0.35 -0.25 0.15 -0.15 0.05 -0.2 -0.05 -0.15 -0.2 -0.05 -0.25 0.1 -0.3 0.15 -0.4 0.25 -0.5 0.3 -0.65 0.4 -0.75 0.45 -0.8 0.45 -0.9 0.5 -1.05 0.5 -1.15 0.5 -1.3 0.5 -1.45 0.35 -1.5 0.3 -1.55 0.25 -1.6 0.1 -1.6 -0.05 -1.6 -0.1 -1.6 -0.25 -1.35 -0.5 -1.1 -0.65 -0.8 -0.8 -0.7 -0.85 -0.6 -0.9 -0.3 -1.0 -0.25 -1.0 -0.15 -1.05 0.05 -1.1 0.25 -1.15 0.8 -1.15 1.15 -1.05 1.2 -1.05 1.35 -0.9 1.45 -0.85 M1.95 -0.85 L1.95 -0.95 1.8 -1.25 1.5 -1.45 1.45 -1.5 1.1 -1.6 0.9 -1.65 0.8 -1.65 0.75 -1.65 0.6 -1.65 0.55 -1.65 0.35 -1.6 0.1 -1.6 -0.05 -1.55 -0.3 -1.5 -0.6 -1.45 -0.7 -1.4 -1.15 -1.2 -1.25 -1.2 -1.4 -1.1 -1.55 -0.95 -1.85 -0.6 -1.9 -0.55 -2.0 -0.25 -2.05 -0.1 -2.05 0.05 -2.05 0.25 -1.95 0.6 -1.8 0.85 -1.65 1.0 -1.5 1.05 -1.45 1.1 -1.4 1.15 -1.15 1.25 -0.85 1.3 0.1 1.45 0.3 1.45 0.45 1.4 0.7 1.35 Q0.95 1.3 1.2 1.15 L1.25 1.1 1.35 1.0 1.4 0.85 1.6 0.7 1.75 0.55 1.85 0.3 1.95 0.1 2.0 0.0 2.0 -0.05 2.05 -0.1 2.05 -0.15 2.05 -0.35 2.05 -0.4 2.05 -0.45 2.05 -0.5 2.0 -0.75 1.95 -0.85 Z" fill="none" stroke="#000000" stroke-linecap="round" stroke-linejoin="round" stroke-opacity="0.4509804" stroke-width="1.0"/>
  </g>
</svg>
