<?xml version="1.0" encoding="UTF-8" standalone="no"?>
<svg xmlns:xlink="http://www.w3.org/1999/xlink" height="2.6px" width="4.25px" xmlns="http://www.w3.org/2000/svg">
  <g transform="matrix(1.0, 0.0, 0.0, 1.0, 2.05, 1.15)">
    <path d="M1.05 -0.85 L1.15 -1.05 1.3 -1.1 1.4 -1.15 1.4 -1.15 1.55 -1.15 Q2.0 -1.15 2.15 -0.9 L2.15 -0.9 Q2.2 -0.8 2.2 -0.55 L2.2 -0.35 2.0 -0.1 1.95 0.0 1.9 0.15 Q1.85 0.3 1.65 0.3 L1.45 0.3 Q1.1 0.25 1.05 0.05 1.0 -0.05 1.0 -0.4 1.0 -0.75 1.05 -0.85 M1.0 0.05 L1.0 0.4 0.65 0.8 Q0.6 0.9 0.5 1.2 0.35 1.4 0.05 1.45 L-0.25 1.45 Q-0.8 1.35 -0.95 1.0 L-1.0 0.7 -0.9 0.55 -0.6 0.15 -0.6 -0.2 Q-0.6 -0.6 -0.7 -0.8 L-0.7 -0.8 -0.5 -0.9 Q-0.4 -0.9 -0.35 -0.95 L-0.3 -0.95 -0.1 -0.95 Q0.65 -0.95 0.9 -0.55 1.0 -0.35 1.0 0.05 M-1.65 -0.65 L-1.6 -0.7 -1.5 -0.7 Q-1.05 -0.7 -0.9 -0.45 L-0.9 -0.45 Q-0.8 -0.3 -0.8 -0.1 L-0.85 0.15 -1.0 0.4 -1.05 0.45 -1.15 0.6 Q-1.2 0.75 -1.4 0.8 L-1.6 0.8 Q-1.9 0.7 -2.0 0.5 L-2.05 0.1 -2.0 -0.4 -1.9 -0.6 -1.75 -0.65 -1.65 -0.65" fill="#c42b2b" fill-rule="evenodd" stroke="none"/>
  </g>
</svg>
