<?xml version="1.0" encoding="UTF-8" standalone="no"?>
<svg xmlns:xlink="http://www.w3.org/1999/xlink" height="3.8px" width="27.95px" xmlns="http://www.w3.org/2000/svg">
  <g transform="matrix(1.0, 0.0, 0.0, 1.0, 13.95, 1.9)">
    <path d="M-9.0 0.75 L-9.0 0.8 Q-9.0 0.9 -9.1 0.9 L-9.05 1.15 Q-9.05 1.35 -9.3 1.45 L-9.3 1.4 -9.2 1.35 Q-9.1 1.25 -9.1 1.1 L-9.1 1.05 Q-9.1 1.0 -9.15 1.0 L-9.15 1.0 Q-9.2 0.95 -9.2 0.95 L-9.2 0.9 -9.25 0.9 -9.25 0.85 -9.2 0.8 -9.2 0.8 -9.1 0.8 Q-9.05 0.8 -9.05 0.75 L-9.05 0.75 -9.0 0.75" fill="#d5d3c7" fill-rule="evenodd" stroke="none"/>
    <path d="M6.5 -1.0 L6.3 -1.0 6.3 -1.15 6.25 -1.3 6.1 -1.4 5.95 -1.55 Q5.85 -1.65 5.85 -1.7 L5.85 -1.8 5.9 -1.85 5.9 -1.85 6.05 -1.7 Q6.15 -1.55 6.25 -1.55 L6.45 -1.45 Q6.6 -1.4 6.6 -1.3 L6.55 -1.15 6.5 -1.0" fill="#3e2f36" fill-rule="evenodd" stroke="none"/>
    <path d="M7.0 -1.75 L7.05 -1.7 7.15 -1.6 7.15 -1.55 7.05 -1.55 7.0 -1.7 7.0 -1.75" fill="#b3a3a6" fill-rule="evenodd" stroke="none"/>
    <path d="M7.2 -1.5 L7.35 -1.35 7.4 -1.3 7.35 -1.3 7.35 -1.3 7.3 -1.3 7.25 -1.3 7.2 -1.25 7.1 -1.25 7.05 -1.2 6.95 -1.15 6.8 -1.1 6.7 -1.15 6.7 -1.2 6.75 -1.2 6.8 -1.2 6.85 -1.25 Q6.9 -1.25 6.95 -1.25 L7.0 -1.3 6.95 -1.3 7.0 -1.35 7.1 -1.4 7.15 -1.45 7.2 -1.45 7.2 -1.5" fill="#3d4047" fill-rule="evenodd" stroke="none"/>
    <path d="M7.05 -1.55 L7.15 -1.55 7.2 -1.5 7.2 -1.45 7.15 -1.45 7.1 -1.4 7.0 -1.35 6.95 -1.3 7.0 -1.3 6.95 -1.25 Q6.9 -1.25 6.85 -1.25 L6.8 -1.2 6.75 -1.2 6.7 -1.2 6.75 -1.25 6.85 -1.3 6.9 -1.35 6.95 -1.45 6.95 -1.45 7.0 -1.5 7.0 -1.5 7.05 -1.55" fill="#8c96a2" fill-rule="evenodd" stroke="none"/>
    <path d="M7.4 -1.3 L7.4 -1.3 7.45 -1.3 7.5 -1.25 7.45 -1.15 7.4 -1.1 7.35 -1.1 7.35 -1.15 7.35 -1.15 7.3 -1.2 7.25 -1.2 7.15 -1.15 Q7.1 -1.15 7.05 -1.1 L6.95 -1.1 6.85 -1.05 6.75 -1.05 6.9 -1.1 6.95 -1.15 7.05 -1.2 7.1 -1.25 7.2 -1.25 7.25 -1.3 7.3 -1.3 7.35 -1.3 7.35 -1.3 7.4 -1.3" fill="#251919" fill-rule="evenodd" stroke="none"/>
    <path d="M7.0 -1.75 L7.0 -1.7 7.05 -1.55 7.0 -1.5 7.0 -1.5 6.95 -1.55 6.95 -1.65 6.9 -1.7 6.85 -1.75 6.85 -1.75 6.95 -1.8 7.0 -1.75" fill="#756d6b" fill-rule="evenodd" stroke="none"/>
    <path d="M6.85 -1.75 L6.9 -1.7 6.95 -1.65 6.95 -1.55 7.0 -1.5 6.95 -1.45 6.95 -1.5 6.9 -1.55 6.8 -1.65 6.8 -1.7 6.85 -1.75" fill="#2e2e3a" fill-rule="evenodd" stroke="none"/>
    <path d="M6.85 -0.7 L6.95 -0.85 6.9 -0.85 6.95 -0.9 7.0 -0.9 7.1 -0.9 7.15 -0.8 7.15 -0.75 7.05 -0.7 6.95 -0.7 6.85 -0.7 M7.15 -0.75 L7.15 -0.75" fill="#617286" fill-rule="evenodd" stroke="none"/>
    <path d="M6.95 -0.6 L6.95 -0.6 6.9 -0.65 6.85 -0.7 6.95 -0.7 7.05 -0.7 7.15 -0.75 7.2 -0.65 7.15 -0.6 7.05 -0.6 6.95 -0.6 6.95 -0.6" fill="#415369" fill-rule="evenodd" stroke="none"/>
    <path d="M6.9 -0.6 L6.95 -0.6 6.95 -0.6 6.95 -0.6 7.05 -0.6 7.15 -0.6 7.2 -0.65 7.2 -0.6 7.25 -0.55 7.25 -0.5 7.3 -0.5 7.25 -0.5 7.15 -0.5 7.05 -0.5 6.95 -0.5 6.9 -0.5 6.85 -0.55 6.9 -0.6" fill="#959db0" fill-rule="evenodd" stroke="none"/>
    <path d="M8.6 -0.55 L8.55 -0.5 8.5 -0.5 8.45 -0.5 8.55 -0.4 8.65 -0.35 8.6 -0.3 8.55 -0.3 8.45 -0.3 8.4 -0.3 8.35 -0.3 8.3 -0.35 Q8.25 -0.4 8.1 -0.4 L8.0 -0.4 7.9 -0.4 7.75 -0.4 7.7 -0.35 7.7 -0.4 7.65 -0.4 7.6 -0.4 7.35 -0.35 7.35 -0.35 7.2 -0.3 7.05 -0.35 6.9 -0.35 6.85 -0.35 6.7 -0.4 6.7 -0.55 6.8 -0.6 6.9 -0.6 6.85 -0.55 6.9 -0.5 6.95 -0.5 7.05 -0.5 7.15 -0.5 7.25 -0.5 7.3 -0.5 7.35 -0.45 7.35 -0.45 7.5 -0.4 7.55 -0.4 7.65 -0.4 7.65 -0.45 7.65 -0.45 7.75 -0.45 7.75 -0.45 7.85 -0.45 7.95 -0.55 7.95 -0.6 8.0 -0.6 8.05 -0.6 8.05 -0.6 8.2 -0.55 8.25 -0.55 8.3 -0.55 8.4 -0.55 8.15 -0.7 7.95 -0.8 7.85 -0.85 7.8 -0.85 7.75 -0.85 7.75 -0.85 7.7 -0.9 7.7 -0.9 7.6 -0.95 7.55 -0.95 7.5 -1.0 7.65 -1.0 8.2 -0.9 8.45 -0.85 8.45 -0.75 8.5 -0.7 8.5 -0.7 8.55 -0.65 8.6 -0.6 8.6 -0.55 M8.2 -0.9 L8.45 -0.85 8.2 -0.9 M8.45 -0.85 L8.45 -0.85" fill="#594c56" fill-rule="evenodd" stroke="none"/>
    <path d="M7.2 -0.9 L7.25 -1.0 7.3 -1.05 7.3 -1.1 7.35 -1.15 7.35 -1.1 7.4 -1.1 7.45 -1.15 7.5 -1.25 7.5 -1.2 7.55 -1.1 7.55 -1.05 7.5 -1.05 7.5 -1.0 7.55 -0.95 7.6 -0.95 7.7 -0.9 7.7 -0.9 7.75 -0.85 7.8 -0.85 7.8 -0.8 7.85 -0.7 7.8 -0.65 7.8 -0.6 7.75 -0.55 7.7 -0.5 7.7 -0.5 7.55 -0.65 7.5 -0.6 7.45 -0.6 7.4 -0.6 7.4 -0.6 7.35 -0.65 7.3 -0.75 7.3 -0.85 7.25 -0.85 7.2 -0.9 M7.75 -0.85 L7.75 -0.85 M7.65 -0.8 L7.6 -0.8 7.55 -0.8 7.5 -0.8 7.5 -0.85 7.4 -0.85 7.4 -0.85 7.45 -0.75 7.45 -0.75 7.55 -0.75 7.6 -0.75 7.65 -0.8" fill="#5e6389" fill-rule="evenodd" stroke="none"/>
    <path d="M7.7 -0.5 L7.75 -0.55 7.8 -0.6 7.8 -0.65 7.85 -0.7 7.8 -0.8 7.8 -0.85 7.75 -0.85 7.9 -0.75 7.95 -0.65 7.95 -0.6 7.95 -0.55 7.85 -0.45 7.75 -0.45 7.75 -0.45 7.7 -0.5" fill="#5e494e" fill-rule="evenodd" stroke="none"/>
    <path d="M7.95 -0.65 L7.9 -0.75 7.75 -0.85 7.75 -0.85 7.75 -0.85 7.8 -0.85 7.85 -0.85 7.95 -0.8 8.15 -0.7 8.15 -0.65 8.05 -0.65 8.0 -0.65 7.95 -0.65" fill="#a3c4ed" fill-rule="evenodd" stroke="none"/>
    <path d="M7.65 -0.8 L7.6 -0.75 7.55 -0.75 7.45 -0.75 7.45 -0.75 7.4 -0.85 7.4 -0.85 7.5 -0.85 7.5 -0.8 7.55 -0.8 7.6 -0.8 7.65 -0.8" fill="#aec1e1" fill-rule="evenodd" stroke="none"/>
    <path d="M7.95 -0.6 L7.95 -0.65 8.0 -0.65 8.05 -0.65 8.15 -0.65 8.15 -0.7 8.4 -0.55 8.3 -0.55 8.25 -0.55 8.2 -0.55 8.05 -0.6 8.05 -0.6 8.0 -0.6 7.95 -0.6" fill="#737790" fill-rule="evenodd" stroke="none"/>
    <path d="M7.15 -0.75 L7.2 -0.85 7.2 -0.9 7.25 -0.85 7.3 -0.85 7.3 -0.75 7.35 -0.65 7.4 -0.6 7.4 -0.6 7.45 -0.6 7.5 -0.6 7.55 -0.65 7.7 -0.5 7.7 -0.5 7.75 -0.45 7.65 -0.45 7.65 -0.45 7.55 -0.45 7.45 -0.45 7.4 -0.5 7.4 -0.5 7.2 -0.6 7.2 -0.65 7.15 -0.75 7.15 -0.75" fill="#45302f" fill-rule="evenodd" stroke="none"/>
    <path d="M7.3 -0.5 L7.25 -0.5 7.25 -0.55 7.2 -0.6 7.4 -0.5 7.4 -0.5 7.45 -0.45 7.55 -0.45 7.65 -0.45 7.65 -0.4 7.55 -0.4 7.5 -0.4 7.35 -0.45 7.35 -0.45 7.3 -0.5" fill="#29140f" fill-rule="evenodd" stroke="none"/>
    <path d="M8.45 -0.85 L8.9 -0.7 8.45 -0.85 8.45 -0.85" fill="#6c5247" fill-rule="evenodd" stroke="none"/>
    <path d="M9.85 -0.45 L10.0 -0.4 10.0 -0.4 9.85 -0.45" fill="#59443b" fill-rule="evenodd" stroke="none"/>
    <path d="M-4.4 0.35 L-4.3 0.35 -4.75 0.4 -4.4 0.35" fill="#b5b4c2" fill-rule="evenodd" stroke="none"/>
    <path d="M-7.6 0.05 L-7.65 0.05 -7.8 0.1 -8.0 0.15 -8.15 0.15 -8.3 0.2 -8.45 0.2 -8.5 0.25 -8.55 0.25 -8.65 0.25 -8.75 0.2 -8.95 0.25 -9.3 0.25 -9.55 0.25 -9.85 0.25 -10.15 0.3 -10.4 0.4 -10.4 0.2 -7.6 0.05" fill="#341c18" fill-rule="evenodd" stroke="none"/>
    <path d="M-10.35 0.55 L-10.35 0.7 -10.3 0.7 -10.25 0.8 -9.75 0.75 -9.75 0.9 -9.8 0.9 -10.0 0.9 -10.2 0.95 -10.25 0.9 -10.4 0.85 -10.55 0.9 -10.6 0.85 -10.65 0.75 -10.65 0.6 -10.4 0.55 -10.45 0.55 -10.35 0.55 M-9.0 0.7 L-9.0 0.75 -9.05 0.75 -9.05 0.75 Q-9.05 0.8 -9.1 0.8 L-9.2 0.8 -9.2 0.8 -9.25 0.85 -9.25 0.9 -9.3 0.9 -9.35 0.9 -9.4 0.9 -9.4 0.75 -9.3 0.75 -9.0 0.7 M-9.3 1.45 L-9.4 1.45 -10.35 1.55 -10.25 1.5 -10.15 1.5 -9.8 1.4 -9.75 1.35 -9.7 1.35 -9.55 1.35 Q-9.25 1.35 -9.25 1.1 L-9.25 1.05 -9.2 0.95 Q-9.2 0.95 -9.15 1.0 L-9.15 1.0 Q-9.1 1.0 -9.1 1.05 L-9.1 1.1 Q-9.1 1.25 -9.2 1.35 L-9.3 1.4 -9.3 1.45 M-10.5 1.55 L-10.9 1.6 -11.05 1.6 -10.95 1.6 -10.55 1.55 -10.5 1.55 M-9.5 1.0 L-9.5 1.1 -9.5 1.15 Q-9.5 1.15 -9.55 1.2 L-9.65 1.15 -9.7 1.15 -9.7 1.15 -9.65 1.1 -9.65 1.05 -9.65 1.0 -9.6 1.0 -9.55 1.0 -9.5 1.0 M-9.45 0.75 L-9.45 0.8 Q-9.45 0.85 -9.5 0.85 L-9.5 0.85 -9.6 0.85 -9.65 0.85 -9.65 0.85 -9.65 0.75 -9.45 0.75 M-10.9 1.6 L-11.05 1.6 -10.9 1.6 M-11.05 1.6 L-11.05 1.6" fill="#808284" fill-rule="evenodd" stroke="none"/>
    <path d="M-9.4 0.9 L-9.55 0.9 -9.55 0.95 -9.5 1.0 -9.55 1.0 -9.6 1.0 -9.65 1.0 -9.65 1.05 -9.65 1.1 -9.7 1.15 -9.7 1.05 -9.7 1.0 -9.65 0.95 -9.65 0.9 -9.75 0.9 -9.75 0.75 -9.65 0.75 -9.65 0.85 -9.65 0.85 -9.6 0.85 -9.5 0.85 -9.5 0.85 Q-9.45 0.85 -9.45 0.8 L-9.45 0.75 -9.4 0.75 -9.4 0.9" fill="#292925" fill-rule="evenodd" stroke="none"/>
    <path d="M-10.35 1.55 L-10.5 1.55 -10.55 1.55 -10.95 1.6 -11.05 1.6 -11.05 1.6 -11.35 1.6 -12.05 1.7 -12.05 1.65 -11.95 1.6 -11.9 1.6 -11.75 1.6 -11.7 1.6 -11.6 1.6 -11.15 1.55 -10.95 1.55 -10.85 1.5 -10.6 1.4 -9.9 1.35 -9.4 1.3 -9.3 1.2 -9.3 1.05 -9.35 0.9 -9.3 0.9 -9.25 0.9 -9.2 0.9 -9.2 0.95 -9.25 1.05 -9.25 1.1 Q-9.25 1.35 -9.55 1.35 L-9.7 1.35 -9.75 1.35 -9.8 1.4 -10.15 1.5 -10.25 1.5 -10.35 1.55 M-11.35 1.6 L-11.05 1.6 -11.35 1.6" fill="#616766" fill-rule="evenodd" stroke="none"/>
    <path d="M-12.05 1.7 L-13.95 1.85 Q-13.35 1.7 -10.6 1.4 L-10.85 1.5 -10.95 1.55 -11.15 1.55 -11.6 1.6 -11.7 1.6 -11.75 1.6 -11.9 1.6 -11.95 1.6 -12.05 1.65 -12.05 1.7" fill="#444741" fill-rule="evenodd" stroke="none"/>
    <path d="M-3.9 0.05 L-3.85 0.05 -3.8 0.0 -3.6 0.0 -3.4 0.0 -3.4 0.0 -3.25 -0.05 -2.95 -0.05 -2.7 -0.1 -2.45 -0.1 -2.15 -0.05 -1.9 -0.1 -1.7 -0.1 -1.45 -0.05 -1.4 -0.05 -1.3 -0.1 -0.9 -0.15 -0.25 -0.15 0.2 -0.1 Q0.5 -0.1 0.5 -0.1 L0.7 -0.1 1.35 -0.2 1.75 -0.2 2.1 -0.25 2.5 -0.2 2.65 -0.25 2.7 -0.2 2.95 -0.25 Q3.05 -0.25 3.1 -0.2 L3.15 -0.15 3.2 -0.1 3.3 -0.15 3.4 -0.15 3.55 -0.15 3.75 -0.2 4.3 -0.25 4.85 -0.25 5.25 -0.25 5.45 -0.25 5.5 -0.25 5.5 -0.3 5.5 -0.4 Q5.45 -0.45 5.45 -0.45 L5.5 -0.55 5.6 -0.65 5.7 -0.7 5.8 -0.75 5.95 -0.75 5.95 -0.75 5.85 -0.7 5.75 -0.65 5.65 -0.55 5.65 -0.45 5.6 -0.4 5.6 -0.4 5.5 -0.4 5.55 -0.35 5.65 -0.3 5.9 -0.3 5.95 -0.3 6.0 -0.35 6.0 -0.35 Q5.95 -0.35 5.9 -0.4 L5.85 -0.4 5.85 -0.45 Q5.75 -0.45 5.75 -0.5 L5.75 -0.5 5.8 -0.55 5.85 -0.55 5.9 -0.6 5.95 -0.55 6.0 -0.5 6.0 -0.6 6.1 -0.65 6.2 -0.7 6.25 -0.7 6.35 -0.7 Q6.4 -0.7 6.4 -0.75 L6.5 -0.8 6.55 -0.8 6.55 -0.95 6.6 -1.0 6.85 -0.9 6.85 -0.9 6.9 -0.85 6.9 -0.85 6.95 -0.85 6.85 -0.7 6.9 -0.65 6.95 -0.6 6.95 -0.6 6.95 -0.6 6.9 -0.6 6.8 -0.6 6.7 -0.55 6.7 -0.4 6.85 -0.35 6.9 -0.35 7.05 -0.35 7.2 -0.3 7.35 -0.35 7.35 -0.35 7.6 -0.4 7.65 -0.4 7.7 -0.4 7.7 -0.35 7.75 -0.4 7.9 -0.4 8.0 -0.4 8.1 -0.4 Q8.25 -0.4 8.3 -0.35 L8.35 -0.3 8.4 -0.3 8.45 -0.3 8.55 -0.3 8.6 -0.3 8.65 -0.35 8.55 -0.4 8.45 -0.5 8.5 -0.5 8.55 -0.5 8.6 -0.55 8.65 -0.5 8.65 -0.5 8.75 -0.5 8.85 -0.45 9.1 -0.35 9.25 -0.35 Q9.25 -0.35 9.35 -0.3 L9.4 -0.3 9.5 -0.2 9.6 -0.15 Q9.65 -0.05 9.75 -0.05 L9.95 -0.05 Q10.1 0.0 10.35 0.1 L10.65 0.1 11.05 0.4 11.2 0.4 Q11.3 0.4 11.35 0.45 11.35 0.55 11.5 0.55 L11.6 0.6 11.65 0.65 11.9 0.75 12.05 0.75 12.6 0.85 12.7 0.95 12.75 0.95 12.85 1.0 12.95 0.95 13.15 0.95 13.35 0.95 13.45 1.0 13.45 1.05 Q13.45 1.1 13.5 1.1 L13.65 1.15 13.7 1.25 13.75 1.25 13.7 1.5 13.25 1.45 11.2 0.75 8.35 -0.1 8.35 -0.1 8.25 -0.05 8.25 0.0 8.2 0.05 8.2 0.15 8.05 0.3 7.8 0.4 7.55 0.3 7.35 0.15 7.25 0.05 7.15 0.0 7.1 -0.1 7.1 -0.15 7.0 -0.15 5.55 -0.1 4.8 -0.05 3.05 0.05 2.9 -0.1 -0.2 0.2 -1.1 0.15 -4.3 0.35 -4.4 0.35 -7.3 0.45 -7.3 0.5 -10.35 0.7 -10.35 0.55 -10.3 0.5 -7.35 0.2 -7.35 0.15 -5.85 0.05 -5.8 0.1 -5.75 0.1 -5.55 0.1 -5.25 0.2 -5.25 0.2 -5.15 0.15 -5.05 0.15 -4.9 0.15 -4.85 0.2 -4.75 0.15 -4.35 0.1 -4.2 0.05 -4.1 0.05 -4.0 0.05 -3.9 0.05 M7.35 -0.15 L7.25 -0.15 Q7.3 0.0 7.45 0.1 7.6 0.3 7.85 0.25 L7.9 0.25 8.0 0.2 8.05 0.2 8.1 0.1 8.15 0.0 8.15 -0.1 7.9 -0.15 7.85 -0.1 7.8 -0.05 7.8 0.1 7.75 0.15 Q7.75 0.15 7.7 0.2 L7.65 0.2 7.7 0.15 7.7 0.05 7.65 -0.1 7.65 -0.2 7.35 -0.15" fill="#1e1a17" fill-rule="evenodd" stroke="none"/>
    <path d="M6.9 -0.85 L6.9 -0.85 6.85 -0.9 6.85 -0.9 6.6 -1.0 6.55 -0.95 6.55 -0.8 6.5 -0.8 6.4 -0.75 Q6.4 -0.7 6.35 -0.7 L6.25 -0.7 6.2 -0.7 6.1 -0.65 6.0 -0.6 6.0 -0.5 5.95 -0.55 5.9 -0.6 5.85 -0.55 5.8 -0.55 5.75 -0.5 5.75 -0.5 Q5.75 -0.45 5.85 -0.45 L5.85 -0.4 5.9 -0.4 Q5.95 -0.35 6.0 -0.35 L6.0 -0.35 5.95 -0.3 5.9 -0.3 5.65 -0.3 5.55 -0.35 5.5 -0.4 5.6 -0.4 5.6 -0.4 5.65 -0.45 5.65 -0.55 5.75 -0.65 5.85 -0.7 5.95 -0.75 5.95 -0.75 5.8 -0.75 5.7 -0.7 5.6 -0.65 5.5 -0.55 5.45 -0.45 Q5.45 -0.45 5.5 -0.4 L5.5 -0.3 5.5 -0.25 5.45 -0.25 5.25 -0.25 4.85 -0.25 4.3 -0.25 3.75 -0.2 3.55 -0.15 3.4 -0.15 3.3 -0.15 3.2 -0.1 3.15 -0.15 3.1 -0.2 Q3.05 -0.25 2.95 -0.25 L2.7 -0.2 2.65 -0.25 2.5 -0.2 2.1 -0.25 1.75 -0.2 1.35 -0.2 0.7 -0.1 0.5 -0.1 Q0.5 -0.1 0.2 -0.1 L-0.25 -0.15 -0.9 -0.15 -1.3 -0.1 -1.4 -0.05 -1.45 -0.05 -1.7 -0.1 -1.9 -0.1 -2.15 -0.05 -2.45 -0.1 -2.7 -0.1 -2.95 -0.05 -3.25 -0.05 -3.4 0.0 -3.4 0.0 -3.6 0.0 -3.8 0.0 -3.85 0.05 -3.9 0.05 -4.1 0.05 -4.2 0.05 -4.35 0.1 -4.75 0.15 -4.85 0.2 -4.9 0.15 -5.05 0.15 -5.15 0.15 -5.25 0.2 -5.25 0.2 -5.55 0.1 -5.75 0.1 -5.8 0.1 -5.8 0.0 3.6 -0.65 1.7 -0.65 6.3 -1.0 6.5 -1.0 6.9 -1.0 7.3 -1.05 7.25 -1.0 7.2 -0.9 7.2 -0.85 7.15 -0.75 7.15 -0.8 7.1 -0.9 7.0 -0.9 6.95 -0.9 6.9 -0.85 M13.75 1.25 L13.7 1.25 13.65 1.15 13.5 1.1 Q13.45 1.1 13.45 1.05 L13.45 1.0 13.35 0.95 13.15 0.95 12.95 0.95 12.85 1.0 12.75 0.95 12.7 0.95 12.6 0.85 12.05 0.75 11.9 0.75 11.65 0.65 11.6 0.6 11.5 0.55 Q11.35 0.55 11.35 0.45 11.3 0.4 11.2 0.4 L11.05 0.4 10.65 0.1 10.35 0.1 Q10.1 0.0 9.95 -0.05 L9.75 -0.05 Q9.65 -0.05 9.6 -0.15 L9.5 -0.2 9.4 -0.3 9.35 -0.3 9.5 -0.3 9.8 -0.15 10.15 -0.15 10.25 -0.1 10.25 -0.05 10.45 0.0 10.7 0.0 10.95 0.1 11.2 0.2 12.3 0.4 12.9 0.5 12.95 0.5 12.9 0.45 12.8 0.45 12.75 0.4 12.7 0.35 12.7 0.3 12.45 0.25 12.2 0.25 11.4 -0.05 11.0 -0.1 Q10.8 -0.2 10.8 -0.25 L10.85 -0.25 10.95 -0.3 11.15 -0.3 11.6 -0.2 11.75 -0.15 11.85 -0.15 11.95 -0.15 12.1 -0.1 12.15 -0.1 12.35 -0.15 12.45 -0.2 Q12.55 -0.3 12.75 -0.3 L13.2 -0.3 13.65 -0.35 13.8 -0.35 13.85 -0.4 13.9 -0.35 13.95 -0.3 13.95 0.25 13.85 0.75 13.75 1.25 M10.0 -0.4 L10.05 -0.4 10.15 -0.5 Q10.2 -0.4 10.45 -0.3 L10.8 -0.15 10.0 -0.4 10.0 -0.4" fill="#2e2823" fill-rule="evenodd" stroke="none"/>
    <path d="M-5.85 0.05 L-7.35 0.15 -7.35 0.2 -10.3 0.5 -10.35 0.4 -10.4 0.45 -10.4 0.4 -10.15 0.3 -9.85 0.25 -9.55 0.25 -9.3 0.25 -8.95 0.25 -8.75 0.2 -8.65 0.25 -8.55 0.25 -8.5 0.25 -8.45 0.2 -8.3 0.2 -8.15 0.15 -8.0 0.15 -7.8 0.1 -7.65 0.05 -7.6 0.05 -7.55 0.05 -7.4 0.05 -7.4 0.05 -7.35 0.05 -5.85 -0.1 -1.85 -0.4 1.7 -0.65 3.6 -0.65 -5.8 0.0 -5.85 0.05 M-10.35 0.7 L-7.3 0.5 -7.3 0.45 -4.4 0.35 -4.75 0.4 -7.3 0.6 -7.35 0.6 -7.4 0.6 -7.85 0.65 -9.0 0.7 -9.3 0.75 -9.4 0.75 -9.45 0.75 -9.65 0.75 -9.75 0.75 -10.25 0.8 -10.3 0.7 -10.35 0.7 M-7.35 0.05 L-7.4 0.05 -7.35 0.05" fill="#3f3630" fill-rule="evenodd" stroke="none"/>
    <path d="M9.35 -0.3 Q9.25 -0.35 9.25 -0.35 L9.1 -0.35 8.85 -0.45 8.75 -0.5 8.65 -0.5 8.65 -0.5 8.6 -0.55 8.6 -0.6 8.55 -0.65 8.5 -0.7 8.5 -0.7 8.45 -0.75 8.45 -0.85 8.9 -0.7 9.85 -0.45 10.0 -0.4 10.0 -0.4 10.0 -0.4 10.8 -0.15 10.45 -0.3 Q10.2 -0.4 10.15 -0.5 L10.15 -0.5 13.7 -0.4 13.85 -0.4 13.8 -0.35 13.65 -0.35 13.2 -0.3 12.75 -0.3 Q12.55 -0.3 12.45 -0.2 L12.35 -0.15 12.15 -0.1 12.1 -0.1 11.95 -0.15 11.85 -0.15 11.75 -0.15 11.6 -0.2 11.15 -0.3 10.95 -0.3 10.85 -0.25 10.8 -0.25 Q10.8 -0.2 11.0 -0.1 L11.4 -0.05 12.2 0.25 12.45 0.25 12.7 0.3 12.7 0.35 12.75 0.4 12.8 0.45 12.9 0.45 12.95 0.5 12.9 0.5 12.3 0.4 11.2 0.2 10.95 0.1 10.7 0.0 10.45 0.0 10.25 -0.05 10.25 -0.1 10.15 -0.15 9.8 -0.15 9.5 -0.3 9.35 -0.3 M10.8 -0.15 L10.8 -0.1 10.8 -0.15" fill="#332c27" fill-rule="evenodd" stroke="none"/>
    <path d="M-10.3 0.5 L-10.35 0.55 -10.45 0.55 -10.4 0.55 -10.65 0.6 -10.65 0.75 -10.6 0.85 -10.55 0.9 -10.4 0.85 -10.25 0.9 -10.2 0.95 -10.0 0.9 -9.8 0.9 -9.75 0.9 -9.65 0.9 -9.65 0.95 -9.7 1.0 -9.7 1.05 -9.7 1.15 -9.7 1.15 -9.65 1.15 -9.55 1.2 Q-9.5 1.15 -9.5 1.15 L-9.5 1.1 -9.5 1.0 -9.55 0.95 -9.55 0.9 -9.4 0.9 -9.35 0.9 -9.3 1.05 -9.3 1.2 -9.4 1.3 -9.9 1.35 -10.6 1.4 Q-13.35 1.7 -13.95 1.85 L-12.05 1.7 -11.35 1.6 -11.05 1.6 -10.9 1.6 -10.5 1.55 -10.35 1.55 -9.4 1.45 -9.3 1.45 Q-9.05 1.35 -9.05 1.15 L-9.1 0.9 Q-9.0 0.9 -9.0 0.8 L-9.0 0.75 -9.0 0.7 -7.85 0.65 -7.4 0.6 M-4.4 0.35 L-4.3 0.35 -1.1 0.15 -0.2 0.2 2.9 -0.1 3.05 0.05 4.8 -0.05 5.55 -0.1 7.0 -0.15 7.1 -0.15 7.1 -0.1 7.15 0.0 7.25 0.05 7.35 0.15 7.55 0.3 7.8 0.4 8.05 0.3 8.2 0.15 8.2 0.05 8.25 0.0 8.25 -0.05 8.35 -0.1 8.35 -0.1 11.2 0.75 13.25 1.45 13.7 1.5 13.75 1.25 13.85 0.75 13.95 0.25 13.95 -0.3 13.9 -0.35 13.85 -0.4 13.7 -0.4 10.15 -0.5 10.15 -0.5 10.05 -0.4 10.0 -0.4 9.85 -0.45 8.9 -0.7 8.45 -0.85 8.2 -0.9 7.65 -1.0 7.5 -1.0 7.5 -1.05 7.55 -1.05 7.55 -1.1 7.5 -1.2 7.5 -1.25 7.45 -1.3 7.4 -1.3 7.4 -1.3 7.35 -1.35 7.2 -1.5 7.15 -1.55 7.15 -1.6 7.05 -1.7 7.0 -1.75 6.95 -1.8 6.85 -1.75 6.85 -1.75 6.8 -1.7 6.8 -1.65 6.9 -1.55 6.95 -1.5 6.95 -1.45 6.95 -1.45 6.9 -1.35 6.85 -1.3 6.75 -1.25 6.7 -1.2 6.7 -1.15 6.8 -1.1 6.95 -1.15 6.9 -1.1 6.75 -1.05 6.85 -1.05 6.95 -1.1 7.05 -1.1 Q7.1 -1.15 7.15 -1.15 L7.25 -1.2 7.3 -1.2 7.35 -1.15 7.35 -1.15 7.3 -1.1 7.3 -1.05 6.9 -1.0 6.5 -1.0 6.55 -1.15 6.6 -1.3 Q6.6 -1.4 6.45 -1.45 L6.25 -1.55 Q6.15 -1.55 6.05 -1.7 L5.9 -1.85 5.9 -1.85 5.85 -1.8 5.85 -1.7 Q5.85 -1.65 5.95 -1.55 L6.1 -1.4 6.25 -1.3 6.3 -1.15 6.3 -1.0 1.7 -0.65 -1.85 -0.4 -5.85 -0.1 -7.35 0.05 -7.4 0.05 -7.35 0.05 M7.35 -0.15 L7.65 -0.2 7.65 -0.1 7.7 0.05 7.7 0.15 7.65 0.2 7.7 0.2 Q7.75 0.15 7.75 0.15 L7.8 0.1 7.8 -0.05 7.85 -0.1 7.9 -0.15 8.15 -0.1 8.15 0.0 8.1 0.1 8.05 0.2 8.0 0.2 7.9 0.25 7.85 0.25 Q7.6 0.3 7.45 0.1 7.3 0.0 7.25 -0.15 L7.35 -0.15 M-4.75 0.4 L-7.3 0.6 -7.35 0.6 M-4.75 0.4 L-4.4 0.35 M-7.6 0.05 L-7.55 0.05 -7.4 0.05 M-7.6 0.05 L-10.4 0.2 -10.4 0.4 -10.4 0.45 -10.35 0.4 -10.3 0.5" fill="none" stroke="#000000" stroke-linecap="round" stroke-linejoin="round" stroke-opacity="0.4509804" stroke-width="1.0"/>
  </g>
</svg>
