<?xml version="1.0" encoding="UTF-8" standalone="no"?>
<svg xmlns:xlink="http://www.w3.org/1999/xlink" height="3.0px" width="6.4px" xmlns="http://www.w3.org/2000/svg">
  <g transform="matrix(1.0, 0.0, 0.0, 1.0, 2.8, 0.0)">
    <path d="M3.3 0.4 L3.25 0.4 3.25 0.45 Q3.3 0.6 3.2 0.7 L3.1 0.7 2.95 0.85 2.95 0.95 2.9 1.05 Q2.8 1.1 2.85 1.15 L2.8 1.35 Q2.75 1.5 2.65 1.55 L2.5 1.55 2.35 1.55 Q2.15 1.55 2.15 1.45 L2.3 1.7 2.15 1.75 1.95 1.7 Q1.8 1.6 1.7 1.65 L1.4 1.55 Q1.1 1.45 1.05 1.4 0.95 1.5 0.95 1.6 L0.8 1.65 0.85 1.75 0.9 1.8 0.85 1.85 0.5 1.9 0.35 1.9 0.2 1.9 0.05 2.05 Q-0.1 2.2 -0.25 2.2 L-0.55 2.35 -0.85 2.45 -1.0 2.45 -1.15 2.45 -1.25 2.45 -1.35 2.4 -1.45 2.5 -1.5 2.65 Q-1.65 2.6 -1.8 2.65 L-2.0 2.75 -2.25 2.8 -2.4 2.8 -2.4 2.75 -2.5 2.25 -2.55 1.9 -2.6 1.55 -2.65 1.25 -2.7 0.95 -2.8 0.2 -2.8 0.0 3.3 0.4" fill="#1a2241" fill-rule="evenodd" stroke="none"/>
    <path d="M-2.4 2.8 L-2.25 2.8 -2.0 2.75 -1.8 2.65 Q-1.65 2.6 -1.5 2.65 L-1.45 2.5 -1.35 2.4 -1.25 2.45 -1.15 2.45 -1.0 2.45 -0.85 2.45 -0.55 2.35 -0.25 2.2 Q-0.1 2.2 0.05 2.05 L0.2 1.9 0.35 1.9 0.5 1.9 0.85 1.85 0.9 1.8 0.85 1.75 0.8 1.65 0.95 1.6 Q0.95 1.5 1.05 1.4 1.1 1.45 1.4 1.55 L1.7 1.65 Q1.8 1.6 1.95 1.7 L2.15 1.75 2.3 1.7 2.15 1.45 Q2.15 1.55 2.35 1.55 L2.5 1.55 2.65 1.55 Q2.75 1.5 2.8 1.35 L2.85 1.15 Q2.8 1.1 2.9 1.05 L2.95 0.95 2.95 0.85 3.1 0.7 3.2 0.7 Q3.3 0.6 3.25 0.45 L3.25 0.4 3.3 0.4 3.6 0.4 3.55 1.0 3.4 1.7 3.3 2.2 3.25 2.45 2.55 2.6 1.7 2.85 0.6 2.95 -0.05 3.0 -0.2 2.95 -0.35 3.0 -0.55 3.0 -0.75 3.0 -0.9 3.0 -1.05 3.0 Q-1.2 3.05 -1.4 3.0 -1.55 2.95 -1.7 3.0 L-1.85 2.95 -2.0 2.95 -2.35 2.95 -2.4 2.8" fill="#28375d" fill-rule="evenodd" stroke="none"/>
    <path d="M-2.8 0.0 L-2.8 0.2 -2.7 0.95 -2.65 1.25 -2.6 1.55 -2.55 1.9 -2.5 2.25 -2.4 2.75 -2.4 2.8 -2.35 2.95 -2.0 2.95 -1.85 2.95 -1.7 3.0 Q-1.55 2.95 -1.4 3.0 -1.2 3.05 -1.05 3.0 L-0.9 3.0 -0.75 3.0 -0.55 3.0 -0.35 3.0 -0.2 2.95 -0.05 3.0 0.6 2.95 1.7 2.85 2.55 2.6 3.25 2.45 3.3 2.2 3.4 1.7 3.55 1.0 3.6 0.4" fill="none" stroke="#000000" stroke-linecap="round" stroke-linejoin="round" stroke-opacity="0.4509804" stroke-width="1.0"/>
  </g>
</svg>
