<?xml version="1.0" encoding="UTF-8" standalone="no"?>
<svg xmlns:xlink="http://www.w3.org/1999/xlink" height="49.3px" width="49.3px" xmlns="http://www.w3.org/2000/svg">
  <g transform="matrix(1.0, 0.0, 0.0, 1.0, 24.65, 24.65)">
    <path d="M2.25 -22.8 L2.25 -23.1 Q2.25 -23.25 2.15 -23.4 2.0 -23.5 1.85 -23.55 1.65 -23.55 1.55 -23.45 L1.4 -23.2 1.5 -23.1 1.65 -22.95 Q1.75 -22.9 2.1 -22.8 L2.25 -22.8 M3.7 -22.95 L3.6 -22.95 3.4 -22.9 3.25 -22.75 3.15 -22.5 Q3.1 -22.4 3.15 -22.25 L3.25 -22.05 3.4 -21.9 3.65 -21.75 Q3.75 -21.7 3.8 -21.7 L3.85 -21.7 3.9 -21.75 3.95 -21.75 4.0 -21.75 4.0 -21.35 4.0 -21.35 3.95 -21.35 3.9 -21.3 3.9 -21.25 3.95 -21.25 4.05 -21.2 4.1 -21.2 4.15 -21.15 4.2 -21.1 4.25 -21.1 4.3 -21.1 4.35 -21.1 4.4 -21.1 4.4 -21.15 4.3 -21.2 4.3 -21.35 4.3 -21.45 4.25 -22.1 4.3 -22.75 4.3 -22.8 4.35 -22.9 4.35 -22.95 4.3 -23.0 4.25 -22.95 4.2 -22.95 4.1 -22.95 4.05 -22.95 4.05 -22.95 4.0 -23.0 4.0 -22.95 3.95 -22.9 4.0 -22.8 3.95 -22.8 3.95 -22.8 3.9 -22.85 3.7 -22.95 M3.5 -22.55 L3.55 -22.65 3.65 -22.65 3.75 -22.7 3.85 -22.7 4.0 -22.6 4.0 -22.35 4.0 -22.1 3.9 -21.95 3.75 -21.95 3.55 -21.95 3.45 -22.0 3.45 -22.0 3.45 -22.0 3.4 -22.05 3.4 -22.05 Q3.35 -22.2 3.35 -22.3 3.35 -22.4 3.45 -22.5 L3.5 -22.55 M0.35 -23.25 L0.3 -23.3 0.25 -23.25 0.15 -23.25 0.1 -23.25 0.05 -23.25 0.05 -23.3 0.0 -23.3 -0.05 -23.3 -0.05 -23.25 0.0 -23.2 0.0 -23.15 0.05 -22.75 0.0 -22.4 0.0 -22.4 -0.05 -22.4 -0.05 -22.45 -0.05 -22.45 -0.1 -22.4 -0.1 -22.35 -0.05 -22.25 0.0 -22.2 0.0 -22.1 0.05 -21.9 0.1 -21.7 0.25 -21.55 0.45 -21.4 0.55 -21.4 0.7 -21.4 0.75 -21.45 0.7 -21.6 0.65 -21.65 0.65 -21.7 0.6 -21.75 0.6 -21.7 0.55 -21.65 0.45 -21.6 0.35 -21.65 Q0.3 -21.65 0.3 -21.8 L0.3 -21.95 0.3 -22.1 0.35 -22.1 0.45 -22.1 0.55 -22.1 0.6 -22.05 0.65 -22.05 0.7 -22.0 0.7 -22.0 0.75 -22.0 0.7 -22.1 0.7 -22.2 0.6 -22.3 0.55 -22.35 0.45 -22.4 0.35 -22.4 0.3 -22.45 0.3 -22.7 0.3 -23.1 Q0.3 -23.2 0.35 -23.2 L0.4 -23.25 0.35 -23.25 M1.4 -22.75 L1.7 -20.95 1.9 -21.05 2.1 -21.15 2.1 -21.35 Q2.0 -21.5 2.0 -21.55 L2.0 -22.4 1.95 -22.4 1.85 -22.45 Q1.75 -22.45 1.6 -22.6 L1.4 -22.75 1.4 -22.75 M0.8 -21.0 L-0.1 -21.05 -0.1 -20.75 -0.15 -20.7 -0.15 -20.45 -0.1 -20.35 -0.15 -20.05 -0.05 -19.85 Q-0.05 -19.8 -0.15 -19.7 L-0.2 -19.65 -0.25 -19.55 Q-0.3 -19.3 -0.35 -19.15 L-0.45 -18.95 -0.3 -18.65 Q-0.15 -18.4 0.1 -18.35 0.05 -18.15 0.0 -17.55 0.0 -17.2 0.0 -16.35 L0.0 -16.35 Q-0.15 -17.15 -0.5 -17.85 L-0.8 -18.25 -1.05 -18.0 -1.3 -17.75 -1.3 -17.6 -1.25 -17.45 -1.2 -17.1 -1.2 -16.9 Q-1.25 -16.8 -1.4 -16.8 L-1.5 -17.5 -1.5 -17.5 -1.55 -17.55 Q-1.65 -17.45 -1.75 -17.4 -1.85 -17.3 -2.0 -17.3 -1.85 -17.3 -1.75 -17.2 L-1.55 -17.05 Q-1.6 -17.0 -1.6 -16.9 L-1.25 -16.45 Q-0.95 -16.0 -0.95 -15.9 L-0.95 -15.75 -1.15 -16.0 -1.4 -16.4 -2.2 -17.1 -3.0 -17.5 -3.05 -17.5 Q-3.2 -17.3 -3.3 -16.9 -3.5 -16.4 -3.5 -15.95 -3.5 -15.7 -3.35 -15.3 -3.2 -14.85 -2.95 -14.85 -2.9 -14.85 -2.65 -15.0 L-2.35 -15.15 -2.35 -15.15 -2.8 -14.6 Q-2.9 -14.45 -2.9 -13.95 -2.9 -13.2 -2.35 -12.5 -1.85 -11.9 -1.15 -11.75 -1.15 -11.65 -1.2 -11.45 L-1.4 -11.15 Q-1.5 -11.3 -1.8 -11.5 L-2.3 -11.8 Q-2.8 -12.15 -3.4 -12.75 -3.6 -13.0 -3.9 -13.7 -4.7 -13.35 -5.45 -12.9 L-6.3 -14.3 -6.5 -14.45 -6.75 -14.4 Q-6.85 -14.35 -6.9 -14.25 -6.95 -14.1 -6.85 -13.95 L-6.05 -12.6 Q-7.2 -11.85 -8.2 -11.0 L-9.25 -12.15 Q-9.35 -12.25 -9.5 -12.3 -9.65 -12.3 -9.75 -12.2 -9.85 -12.1 -9.85 -11.95 -9.85 -11.8 -9.75 -11.7 L-8.65 -10.55 -9.05 -10.15 Q-8.7 -9.95 -8.1 -9.75 L-8.0 -9.7 -8.1 -9.7 -8.1 -9.5 Q-7.8 -9.6 -7.75 -9.6 -7.6 -9.7 -7.45 -9.9 L-7.45 -9.85 -7.4 -9.45 -7.35 -9.1 -7.65 -9.0 -7.95 -9.0 -7.95 -8.95 -7.5 -8.9 Q-7.25 -8.85 -7.05 -8.95 -6.85 -9.05 -6.65 -9.25 L-6.55 -9.35 -6.5 -9.4 -6.45 -9.6 -6.45 -9.8 Q-6.25 -9.65 -5.7 -9.4 -5.15 -9.15 -4.95 -9.0 -4.7 -8.8 -4.35 -8.35 -4.05 -7.85 -4.0 -7.6 -3.95 -7.15 -3.95 -6.75 L-3.95 -6.1 -4.15 -6.15 Q-4.3 -6.15 -4.35 -6.2 -4.15 -6.6 -4.25 -7.05 -4.4 -7.55 -4.75 -7.85 L-5.1 -8.0 -5.5 -8.0 -5.5 -8.0 -5.35 -8.1 Q-5.15 -8.15 -5.15 -8.15 -5.1 -8.3 -5.25 -8.5 L-5.5 -8.8 Q-5.7 -9.0 -6.0 -9.1 L-6.4 -9.15 -6.4 -9.15 -6.45 -8.9 -6.5 -8.6 -6.5 -8.35 -6.45 -8.0 -6.35 -7.7 -6.3 -7.55 -6.35 -7.55 Q-6.35 -7.55 -6.4 -7.6 L-6.5 -7.95 -6.6 -8.25 -6.7 -8.3 -6.7 -8.45 -6.65 -8.6 Q-6.7 -8.55 -6.8 -8.5 L-6.95 -8.45 -6.95 -8.45 -6.65 -8.15 Q-6.7 -8.05 -6.75 -8.1 L-6.85 -8.15 -7.0 -8.3 -7.05 -8.35 -7.1 -8.45 -7.35 -8.4 -7.55 -8.35 -7.45 -8.1 Q-7.25 -7.7 -6.95 -7.3 L-7.9 -8.0 Q-7.85 -8.1 -7.9 -8.25 L-8.0 -8.45 -8.15 -8.5 Q-8.2 -8.5 -8.35 -8.55 L-8.45 -8.6 -8.45 -8.6 -8.55 -8.55 -8.65 -8.7 -8.8 -8.8 -8.8 -8.85 -8.85 -8.9 -8.95 -8.95 -8.95 -8.95 -9.3 -9.2 -9.1 -9.2 -9.3 -9.3 -9.65 -9.55 -10.1 -8.95 -9.8 -8.7 -9.6 -8.5 -9.65 -8.8 -9.3 -8.5 -9.3 -8.5 -9.25 -8.45 -9.15 -8.45 -8.7 -8.35 -8.7 -8.1 -8.65 -8.05 -8.6 -8.0 -8.55 -7.9 Q-8.4 -7.8 -8.25 -7.8 -8.1 -7.8 -7.95 -7.9 L-7.6 -7.55 -7.05 -7.15 Q-7.5 -7.35 -7.95 -7.45 L-8.25 -7.45 -8.4 -7.45 -8.35 -7.35 -8.35 -7.1 -8.3 -6.85 -8.2 -6.8 -8.1 -6.8 -7.95 -6.7 -7.85 -6.6 Q-7.85 -6.55 -7.9 -6.5 L-8.25 -6.7 -8.25 -6.7 -8.3 -6.55 -8.35 -6.35 -8.2 -6.45 -8.05 -6.5 -8.0 -6.45 -7.65 -6.45 -7.3 -6.4 -7.25 -6.35 -7.25 -6.3 -7.4 -6.3 -7.7 -6.35 -8.05 -6.3 -8.3 -6.2 -8.55 -6.1 -8.7 -6.0 -8.55 -5.7 -8.15 -5.3 Q-8.05 -5.2 -7.8 -5.15 L-7.45 -5.15 -7.4 -5.35 -7.35 -5.55 -7.35 -5.55 -7.25 -5.15 Q-7.2 -5.05 -7.0 -4.85 -6.6 -4.6 -6.1 -4.6 -5.65 -4.65 -5.3 -4.9 L-5.2 -4.75 -5.15 -4.6 -5.45 -4.5 Q-5.65 -4.4 -5.75 -4.35 L-6.6 -4.2 Q-6.8 -4.15 -7.35 -4.35 -7.9 -4.55 -8.15 -4.75 L-8.75 -5.35 -9.15 -5.75 -9.35 -5.95 Q-9.3 -5.95 -9.15 -6.0 L-9.0 -6.1 -8.95 -6.1 -8.95 -6.15 Q-8.85 -6.45 -8.8 -6.65 -8.75 -6.9 -8.85 -7.1 -8.9 -7.3 -9.05 -7.5 L-9.05 -7.5 Q-9.05 -7.45 -9.0 -7.25 L-9.0 -6.9 -9.35 -6.85 -9.8 -6.75 -9.8 -6.8 Q-9.65 -6.95 -9.6 -7.15 L-9.6 -7.55 -9.75 -7.5 -9.8 -7.5 -9.75 -7.35 -9.85 -7.4 Q-10.45 -8.25 -10.8 -8.45 L-10.8 -8.45 -10.75 -8.6 -10.65 -8.9 -10.65 -9.0 -10.7 -9.1 -11.55 -9.7 -11.8 -9.75 Q-11.9 -9.75 -12.0 -9.65 -12.1 -9.55 -12.05 -9.4 -12.05 -9.25 -11.95 -9.2 L-10.65 -8.25 Q-11.35 -7.3 -11.85 -6.2 L-13.3 -6.85 -13.55 -6.9 Q-13.7 -6.85 -13.75 -6.7 -13.8 -6.6 -13.75 -6.45 -13.7 -6.35 -13.6 -6.25 L-12.15 -5.6 Q-12.5 -4.75 -12.8 -3.8 -12.95 -3.95 -13.4 -4.1 -12.75 -3.85 -12.5 -3.6 -11.9 -3.05 -11.55 -2.55 L-11.25 -2.05 -10.95 -1.65 -11.2 -1.45 -11.5 -1.4 Q-11.65 -2.05 -12.3 -2.6 -12.95 -3.15 -13.75 -3.15 -14.2 -3.15 -14.35 -3.05 L-14.9 -2.6 -14.95 -2.6 -14.75 -2.9 Q-14.6 -3.15 -14.6 -3.2 -14.6 -3.4 -15.05 -3.6 -15.45 -3.75 -15.7 -3.75 -16.2 -3.75 -16.7 -3.55 -17.0 -3.45 -17.2 -3.35 L-17.1 -3.1 -16.85 -2.65 -16.55 -2.3 -16.15 -1.9 -15.55 -1.45 -15.55 -1.4 -15.65 -1.4 Q-15.75 -1.4 -16.2 -1.7 L-16.65 -2.05 Q-16.75 -2.05 -16.85 -2.0 L-17.0 -2.2 Q-17.1 -2.3 -17.1 -2.45 -17.1 -2.3 -17.15 -2.2 L-17.3 -2.0 -17.25 -1.95 -17.25 -1.95 -16.6 -1.9 Q-16.6 -1.7 -16.65 -1.65 L-16.9 -1.65 -17.35 -1.75 -17.5 -1.75 -17.8 -1.5 -18.1 -1.15 -18.25 -1.1 -17.6 -0.65 Q-16.95 -0.3 -16.1 -0.1 L-16.1 -0.1 -17.3 -0.1 -18.1 -0.05 Q-18.2 -0.25 -18.4 -0.45 -18.65 -0.6 -18.9 -0.6 L-19.1 -0.6 -19.2 -0.55 -19.3 -0.45 -19.5 -0.3 -19.6 -0.15 -20.25 -0.5 -20.45 -0.6 -20.5 -0.6 -20.5 -0.55 -21.05 -0.55 -21.05 0.35 -20.5 0.35 -20.5 0.35 -20.35 0.35 -20.2 0.35 -20.1 0.35 -19.8 0.35 Q-19.65 0.25 -19.6 0.25 L-19.5 0.4 -19.45 0.45 -19.3 0.45 Q-19.05 0.5 -18.95 0.6 L-18.7 0.7 Q-18.55 0.65 -18.4 0.55 -18.2 0.35 -18.1 0.15 L-17.3 0.2 -16.1 0.2 -16.1 0.2 Q-16.95 0.4 -17.6 0.7 L-18.0 1.05 -17.8 1.25 -17.5 1.55 -17.35 1.5 -17.2 1.45 -16.9 1.4 -16.65 1.45 Q-16.6 1.45 -16.6 1.65 L-17.25 1.7 -17.25 1.75 -17.3 1.75 -17.15 1.95 Q-17.1 2.1 -17.1 2.25 -17.1 2.1 -17.0 1.95 L-16.85 1.75 Q-16.75 1.8 -16.65 1.8 L-16.2 1.5 Q-15.75 1.15 -15.65 1.15 -15.6 1.15 -15.55 1.2 L-15.55 1.2 -15.75 1.35 Q-16.05 1.55 -16.15 1.65 L-16.55 2.05 -16.85 2.45 -17.1 2.85 -17.25 3.2 -17.3 3.25 Q-17.05 3.45 -16.7 3.55 -16.2 3.7 -15.7 3.7 -15.45 3.7 -15.05 3.55 -14.6 3.4 -14.6 3.2 L-14.75 2.9 -14.95 2.6 -14.9 2.6 -14.35 3.0 -13.75 3.1 Q-12.95 3.1 -12.3 2.55 -11.65 2.05 -11.5 1.35 -11.4 1.35 -11.2 1.45 L-10.95 1.6 -11.25 2.05 -11.55 2.55 Q-11.9 3.0 -12.5 3.6 L-12.75 3.8 Q-12.5 4.7 -12.15 5.5 L-13.6 6.2 Q-13.7 6.25 -13.75 6.4 -13.8 6.5 -13.75 6.65 -13.7 6.75 -13.55 6.8 L-13.3 6.8 -11.85 6.1 Q-11.45 7.0 -10.9 7.8 -10.6 7.5 -10.25 7.0 L-10.2 6.95 -10.2 7.1 -10.15 7.1 -10.0 7.15 -10.05 6.75 Q-10.1 6.55 -10.2 6.4 L-10.2 6.4 -9.4 6.5 -9.4 6.85 Q-9.45 7.1 -9.5 7.15 L-9.45 7.1 Q-9.3 6.9 -9.25 6.75 -9.15 6.5 -9.2 6.25 -9.25 6.05 -9.35 5.8 L-9.35 5.75 -9.4 5.7 -9.6 5.65 -9.75 5.55 -9.55 5.35 -9.15 4.95 -8.55 4.35 Q-8.3 4.15 -7.75 3.95 -7.25 3.8 -7.0 3.8 L-6.15 3.95 -5.55 4.2 -5.6 4.35 -5.7 4.5 Q-6.05 4.25 -6.5 4.2 -7.0 4.2 -7.4 4.5 -7.6 4.65 -7.65 4.75 L-7.75 5.15 -7.75 5.15 -7.8 4.95 -7.85 4.75 -8.2 4.75 Q-8.45 4.8 -8.55 4.9 -8.8 5.05 -8.95 5.35 L-9.1 5.6 Q-9.05 5.65 -8.95 5.7 L-8.45 5.9 -8.1 5.95 -7.8 5.9 -7.65 5.9 -7.65 5.95 -7.7 6.0 -8.05 6.05 -8.4 6.05 -8.45 6.15 -8.6 6.1 -8.75 6.0 Q-8.7 6.05 -8.7 6.15 L-8.7 6.3 -8.65 6.3 Q-8.4 6.15 -8.3 6.1 -8.25 6.15 -8.25 6.2 L-8.35 6.3 -8.55 6.4 -8.6 6.4 -8.7 6.45 -8.75 6.7 -8.8 6.95 -8.8 7.05 -8.65 7.05 -8.35 7.05 -8.0 6.95 -6.95 5.85 -6.95 5.85 -7.15 5.85 -7.3 5.9 -7.5 5.9 Q-7.4 5.85 -7.3 5.6 -7.25 5.4 -7.3 5.3 L-7.05 5.4 -6.75 5.45 -6.65 5.4 -6.55 5.25 -6.45 5.3 -6.2 5.05 -6.4 5.15 -6.3 4.9 -6.2 4.65 -6.15 4.6 Q-6.1 4.7 -5.85 4.7 L-5.65 4.5 -5.75 4.7 Q-5.5 4.7 -5.4 4.6 L-5.3 4.5 -5.3 4.3 -5.1 4.35 -4.3 5.2 -4.35 5.15 Q-4.45 5.35 -4.45 5.5 L-4.65 5.45 -4.75 5.45 Q-4.85 5.55 -4.95 5.8 -5.0 6.1 -4.95 6.2 L-5.0 6.25 Q-5.1 6.2 -5.25 6.25 L-5.55 6.3 -5.35 6.05 -5.25 5.85 -5.15 5.5 -5.1 5.25 -4.85 5.15 -4.65 5.0 -4.55 4.95 -4.7 4.8 -4.85 4.6 -4.9 4.65 -5.15 4.85 -5.3 5.0 -5.55 5.0 -5.9 5.0 -6.1 5.35 -5.7 5.4 -6.15 5.5 -6.2 5.55 -7.8 7.25 -7.35 6.9 -7.35 6.9 Q-7.65 7.3 -7.85 7.7 L-7.95 7.95 -7.5 8.05 -7.45 7.95 -7.4 7.9 -7.25 7.75 -7.15 7.7 Q-7.1 7.7 -7.05 7.75 L-7.35 8.05 -7.35 8.05 Q-7.25 8.1 -7.2 8.1 L-7.1 8.2 -7.1 7.9 -7.0 7.85 -6.95 7.55 -6.8 7.2 -6.75 7.15 -6.7 7.2 -6.75 7.3 -6.85 7.6 -6.9 7.95 -6.9 8.25 -6.85 8.5 -6.8 8.75 -6.8 8.8 -6.4 8.7 Q-6.1 8.6 -5.9 8.45 -5.8 8.35 -5.65 8.15 -5.5 7.9 -5.55 7.75 L-5.75 7.7 -5.95 7.6 -5.9 7.6 -5.5 7.6 Q-5.4 7.6 -5.2 7.45 -4.8 7.15 -4.65 6.65 -4.55 6.2 -4.75 5.8 L-4.6 5.75 -4.4 5.75 -4.4 6.05 -4.35 6.4 Q-4.35 6.75 -4.4 7.25 -4.45 7.45 -4.8 7.95 -5.1 8.4 -5.35 8.6 -5.6 8.75 -6.1 9.0 -6.65 9.25 -6.85 9.4 L-6.9 9.2 -6.9 9.0 -6.95 8.95 -7.05 8.85 Q-7.25 8.65 -7.45 8.6 -7.65 8.45 -7.9 8.5 L-8.35 8.6 -8.4 8.6 -8.05 8.6 -7.75 8.7 -7.8 9.05 -7.85 9.45 -7.85 9.5 Q-8.0 9.35 -8.2 9.2 L-8.5 9.1 -8.5 9.25 -8.55 9.3 -8.4 9.3 -8.5 9.35 Q-9.05 9.55 -9.4 9.75 L-8.65 10.5 -9.75 11.65 Q-9.85 11.75 -9.85 11.9 -9.85 12.05 -9.75 12.1 -9.65 12.2 -9.5 12.2 -9.35 12.2 -9.25 12.1 L-8.2 10.9 Q-7.2 11.8 -6.05 12.5 L-6.85 13.9 Q-6.95 14.05 -6.9 14.15 L-6.75 14.35 -6.5 14.4 -6.3 14.25 -5.45 12.85 -3.85 13.65 Q-3.6 12.95 -3.4 12.75 -2.8 12.15 -2.3 11.8 -2.2 11.7 -1.8 11.5 -1.5 11.3 -1.4 11.15 L-1.2 11.45 Q-1.15 11.65 -1.15 11.7 -1.85 11.9 -2.35 12.5 -2.9 13.15 -2.9 13.95 -2.9 14.4 -2.8 14.6 L-2.35 15.15 -2.35 15.15 -2.65 15.0 Q-2.9 14.85 -2.95 14.85 -3.2 14.85 -3.35 15.3 -3.5 15.7 -3.5 15.95 -3.5 16.4 -3.3 16.9 -3.2 17.3 -3.05 17.5 L-3.0 17.5 -2.6 17.3 -2.2 17.1 -1.85 16.8 -1.4 16.4 -1.15 16.0 -0.95 15.75 -0.95 15.9 Q-0.95 16.0 -1.25 16.45 L-1.6 16.9 Q-1.6 17.0 -1.55 17.05 L-1.75 17.2 Q-1.85 17.3 -2.0 17.3 -1.85 17.3 -1.75 17.4 -1.65 17.45 -1.55 17.55 L-1.5 17.5 -1.5 17.5 -1.4 16.8 Q-1.25 16.8 -1.2 16.9 L-1.2 17.1 -1.25 17.45 -1.3 17.55 -1.3 17.7 -1.05 18.0 -0.8 18.25 -0.5 17.8 Q-0.15 17.15 0.0 16.35 L0.0 16.35 Q0.0 17.15 0.0 17.5 0.05 18.1 0.1 18.35 -0.15 18.4 -0.3 18.65 L-0.45 18.95 -0.35 19.15 Q-0.3 19.3 -0.25 19.55 L-0.2 19.65 -0.15 19.7 Q-0.05 19.8 -0.05 19.85 L-0.15 20.05 -0.1 20.35 -0.15 20.45 -0.15 20.7 -0.1 20.75 -0.1 21.05 0.35 21.05 0.65 21.0 0.65 21.05 0.8 21.05 0.8 20.7 0.8 20.65 0.7 20.45 0.55 20.15 0.4 19.85 0.5 19.7 0.7 19.55 0.75 19.4 0.8 19.3 0.85 19.15 Q0.85 18.85 0.65 18.65 0.5 18.4 0.25 18.35 L0.35 17.5 0.35 16.35 Q0.5 17.15 0.85 17.8 L1.15 18.25 1.35 18.45 1.4 18.35 1.7 18.0 2.0 17.7 1.95 17.55 1.9 17.45 1.9 16.9 Q1.95 16.8 2.1 16.8 L2.15 17.5 2.2 17.5 2.2 17.55 Q2.35 17.45 2.4 17.4 2.55 17.3 2.7 17.3 2.55 17.3 2.4 17.2 L2.2 17.05 2.25 16.9 1.95 16.45 Q1.6 16.0 1.6 15.9 1.6 15.85 1.65 15.8 L1.65 15.75 1.8 16.0 2.1 16.4 2.5 16.8 2.9 17.1 3.55 17.45 3.8 16.9 Q3.95 16.4 3.95 15.95 3.95 15.7 3.8 15.3 3.65 14.85 3.45 14.85 3.4 14.85 3.15 15.0 L2.8 15.15 3.25 14.6 Q3.35 14.4 3.35 13.95 3.35 13.15 2.8 12.5 2.3 11.9 1.6 11.7 1.6 11.65 1.7 11.45 L1.85 11.15 2.8 11.8 Q3.25 12.15 3.85 12.75 4.1 13.0 4.35 13.75 5.3 13.35 6.25 12.85 L7.05 14.25 Q7.15 14.35 7.25 14.4 L7.5 14.35 7.65 14.15 Q7.7 14.05 7.6 13.9 L6.8 12.5 7.45 12.1 4.85 7.75 5.9 8.8 7.75 11.9 8.95 10.9 10.05 12.1 Q10.1 12.2 10.25 12.2 10.4 12.2 10.5 12.1 L10.6 11.9 Q10.6 11.75 10.5 11.65 L9.45 10.5 10.25 9.7 9.35 9.3 9.5 9.3 9.5 9.1 9.15 9.2 Q8.95 9.35 8.8 9.5 L8.8 9.45 8.75 9.05 8.7 8.7 9.05 8.6 9.35 8.6 9.3 8.6 8.85 8.5 Q8.6 8.45 8.4 8.6 L8.0 8.85 7.9 8.95 7.85 9.0 7.85 9.2 Q7.8 9.35 7.8 9.4 7.6 9.25 7.05 9.0 6.55 8.75 6.3 8.6 6.05 8.4 5.75 7.95 5.4 7.45 5.35 7.25 5.3 6.75 5.3 6.4 L5.35 6.05 5.35 5.75 5.55 5.75 Q5.65 5.75 5.7 5.8 5.5 6.2 5.65 6.65 5.75 7.15 6.15 7.45 6.35 7.6 6.45 7.6 L6.85 7.6 6.9 7.6 6.7 7.7 6.5 7.75 Q6.45 7.9 6.6 8.15 6.75 8.35 6.85 8.45 7.1 8.6 7.35 8.7 L7.75 8.8 7.75 8.75 7.8 8.5 7.85 8.25 7.85 7.95 7.8 7.6 7.7 7.3 7.65 7.2 7.7 7.15 7.75 7.2 7.9 7.55 8.0 7.85 8.1 7.9 8.1 8.05 8.05 8.2 Q8.1 8.15 8.15 8.1 8.2 8.1 8.3 8.05 L8.0 7.75 Q8.05 7.7 8.1 7.7 L8.25 7.75 8.35 7.9 8.4 7.95 8.45 8.05 8.7 8.0 8.9 7.95 8.8 7.7 Q8.6 7.3 8.3 6.9 L8.85 7.35 9.3 7.6 Q9.2 7.7 9.25 7.85 L9.35 8.05 9.5 8.1 Q9.6 8.1 9.7 8.15 L9.8 8.2 9.85 8.2 9.95 8.2 10.0 8.3 10.15 8.4 10.2 8.45 10.25 8.5 10.3 8.55 10.35 8.55 10.7 8.8 10.5 8.8 10.8 9.0 11.05 8.7 12.3 9.65 Q12.4 9.7 12.55 9.7 12.7 9.7 12.75 9.55 12.85 9.45 12.8 9.3 12.8 9.2 12.7 9.1 L12.05 8.6 12.05 8.7 11.95 8.95 11.85 8.9 10.95 8.15 11.0 8.4 10.65 8.1 10.6 8.1 10.5 8.05 10.1 7.95 10.05 7.85 10.05 7.75 10.0 7.65 10.0 7.6 9.9 7.5 Q9.8 7.45 9.6 7.45 9.45 7.4 9.35 7.5 L8.4 6.75 Q8.85 6.95 9.3 7.05 L9.6 7.05 9.75 7.05 9.75 6.95 Q9.7 6.95 9.7 6.7 L9.65 6.45 9.55 6.4 9.5 6.4 9.2 6.2 Q9.2 6.15 9.25 6.1 L9.6 6.3 9.65 6.3 9.65 6.2 9.55 6.1 9.4 6.15 9.35 6.05 9.05 6.05 8.65 6.0 8.6 5.95 8.6 5.9 8.75 5.9 9.05 5.95 9.3 5.9 8.35 5.1 8.3 5.1 8.25 5.1 8.15 4.95 8.0 4.85 8.05 4.85 7.9 4.75 7.9 4.7 7.85 4.7 7.9 4.7 7.8 4.55 7.65 4.45 7.65 4.4 7.95 4.45 7.95 4.7 8.1 4.8 8.2 4.75 8.3 4.65 8.35 4.65 8.3 4.75 8.35 4.9 8.7 5.1 8.6 4.75 8.35 4.5 Q8.0 4.2 7.45 4.2 7.0 4.25 6.65 4.5 L6.55 4.35 6.35 4.6 6.75 4.7 Q7.05 4.7 7.1 4.6 L7.15 4.65 7.25 4.9 7.35 5.15 7.1 5.0 6.85 5.0 6.5 5.0 6.25 5.0 6.15 4.85 5.95 5.05 5.9 5.1 6.55 4.35 6.8 4.1 6.85 4.05 7.1 3.95 7.95 3.8 Q8.2 3.8 8.7 3.95 9.25 4.15 9.55 4.35 L10.1 4.95 10.5 5.35 10.7 5.55 10.55 5.65 10.35 5.7 10.35 5.75 10.3 5.8 10.15 6.15 10.55 6.5 10.7 6.45 11.15 6.4 Q11.05 6.55 11.0 6.75 L10.95 6.85 11.15 7.0 11.15 6.95 11.2 7.0 11.3 7.15 11.85 7.6 12.65 6.1 14.05 6.8 14.3 6.8 Q14.45 6.75 14.5 6.65 14.55 6.5 14.5 6.4 14.5 6.25 14.35 6.2 L12.9 5.5 13.5 3.9 Q13.15 3.75 12.95 3.6 12.35 3.0 12.0 2.55 L11.7 2.05 11.4 1.6 11.7 1.45 Q11.9 1.35 11.95 1.35 12.1 2.05 12.75 2.55 13.4 3.1 14.2 3.1 L14.8 3.0 15.35 2.6 15.4 2.6 15.2 2.9 Q15.05 3.15 15.05 3.2 15.05 3.4 15.55 3.55 15.95 3.7 16.2 3.7 16.65 3.7 17.15 3.55 17.5 3.45 17.75 3.25 L17.75 3.2 17.55 2.85 17.35 2.45 17.05 2.05 16.65 1.65 16.0 1.2 16.05 1.2 Q16.05 1.15 16.15 1.15 16.25 1.15 16.7 1.5 L17.15 1.8 17.3 1.75 17.45 1.95 Q17.55 2.1 17.55 2.25 17.55 2.1 17.65 1.95 L17.75 1.75 17.75 1.7 17.05 1.65 Q17.05 1.45 17.15 1.45 L17.35 1.4 17.8 1.5 17.95 1.55 18.25 1.25 18.45 1.05 18.05 0.7 Q17.4 0.4 16.55 0.2 L16.6 0.2 17.75 0.2 18.6 0.15 Q18.65 0.35 18.85 0.55 19.0 0.65 19.15 0.7 L19.4 0.6 Q19.55 0.5 19.8 0.45 L19.9 0.45 19.95 0.4 20.05 0.25 Q20.1 0.25 20.3 0.35 L20.6 0.35 Q20.6 0.35 20.7 0.35 L20.8 0.35 20.95 0.35 21.05 0.35 21.05 -0.55 20.95 -0.55 20.95 -0.6 20.9 -0.6 20.7 -0.5 Q20.65 -0.45 20.4 -0.3 20.1 -0.15 20.05 -0.15 L19.95 -0.3 19.75 -0.45 19.65 -0.55 19.55 -0.6 19.4 -0.6 Q19.1 -0.6 18.85 -0.45 18.65 -0.25 18.6 -0.05 L17.75 -0.1 16.6 -0.1 16.55 -0.1 Q17.4 -0.3 18.05 -0.65 L18.5 -0.95 18.7 -1.1 18.6 -1.15 Q18.55 -1.2 18.25 -1.5 L17.95 -1.75 17.8 -1.75 17.65 -1.7 17.35 -1.65 17.15 -1.65 Q17.05 -1.7 17.05 -1.9 L17.75 -1.95 17.75 -2.0 17.65 -2.2 Q17.55 -2.3 17.55 -2.45 17.55 -2.3 17.45 -2.2 L17.3 -2.0 Q17.25 -2.05 17.15 -2.05 L16.7 -1.7 16.15 -1.4 16.05 -1.4 16.0 -1.45 16.2 -1.6 Q16.55 -1.75 16.65 -1.9 L17.05 -2.3 17.35 -2.65 17.55 -3.1 17.7 -3.35 17.15 -3.55 Q16.65 -3.75 16.2 -3.75 15.95 -3.75 15.55 -3.6 15.05 -3.4 15.05 -3.2 15.05 -3.15 15.2 -2.9 L15.4 -2.6 15.35 -2.6 14.8 -3.05 14.2 -3.15 Q13.4 -3.15 12.75 -2.6 12.1 -2.05 11.95 -1.4 L11.7 -1.45 11.4 -1.65 11.7 -2.05 12.0 -2.55 Q12.35 -3.05 12.95 -3.6 13.15 -3.8 13.5 -3.95 13.25 -4.8 12.9 -5.6 L14.35 -6.25 Q14.5 -6.35 14.5 -6.45 14.55 -6.6 14.5 -6.7 14.45 -6.85 14.3 -6.9 L14.05 -6.85 12.65 -6.2 11.8 -7.65 11.65 -7.4 11.55 -7.35 11.6 -7.5 11.5 -7.5 11.35 -7.55 11.4 -7.15 Q11.45 -6.95 11.55 -6.8 L11.55 -6.75 10.75 -6.9 10.8 -7.25 Q10.8 -7.45 10.85 -7.5 L10.85 -7.5 Q10.65 -7.3 10.6 -7.1 10.5 -6.9 10.55 -6.65 L10.7 -6.15 10.75 -6.1 10.75 -6.1 11.1 -5.95 10.9 -5.75 10.55 -5.35 9.95 -4.75 Q9.65 -4.55 9.15 -4.35 8.6 -4.15 8.35 -4.2 L7.5 -4.35 Q7.45 -4.4 7.2 -4.5 L6.9 -4.6 7.0 -4.75 7.1 -4.9 Q7.4 -4.65 7.9 -4.6 8.4 -4.6 8.75 -4.85 L9.05 -5.15 9.1 -5.55 9.15 -5.55 9.15 -5.35 9.2 -5.15 9.55 -5.15 Q9.8 -5.2 9.9 -5.3 10.15 -5.45 10.3 -5.7 L10.5 -6.0 10.35 -6.1 9.8 -6.3 9.45 -6.35 9.15 -6.3 9.0 -6.3 9.0 -6.35 9.05 -6.4 9.45 -6.45 9.75 -6.45 9.8 -6.5 9.95 -6.45 10.1 -6.35 Q10.05 -6.45 10.05 -6.55 L10.05 -6.7 10.0 -6.7 9.65 -6.5 Q9.6 -6.55 9.65 -6.6 L9.75 -6.7 9.9 -6.8 10.0 -6.8 10.05 -6.85 10.1 -7.1 10.15 -7.35 10.2 -7.45 10.0 -7.45 9.7 -7.45 Q9.25 -7.35 8.8 -7.15 L9.35 -7.55 9.75 -7.9 Q9.85 -7.8 10.0 -7.8 10.2 -7.8 10.3 -7.9 L10.4 -8.0 10.4 -8.05 10.45 -8.1 10.45 -8.25 10.5 -8.35 10.7 -8.4 10.9 -8.45 11.05 -8.45 11.05 -8.5 11.4 -8.8 11.35 -8.5 11.55 -8.7 12.25 -9.3 12.35 -9.35 12.45 -9.1 12.45 -9.0 12.7 -9.2 Q12.8 -9.25 12.8 -9.4 12.85 -9.55 12.75 -9.65 12.7 -9.75 12.55 -9.75 L12.3 -9.7 11.05 -8.8 10.85 -9.0 10.75 -8.95 10.7 -8.95 10.65 -8.9 10.6 -8.85 10.55 -8.8 10.4 -8.7 10.35 -8.55 10.25 -8.6 10.2 -8.6 10.15 -8.55 Q10.0 -8.5 9.9 -8.5 L9.75 -8.45 9.65 -8.25 Q9.6 -8.1 9.7 -8.0 L9.25 -7.7 8.7 -7.3 Q9.05 -7.7 9.2 -8.1 L9.3 -8.35 8.9 -8.45 8.8 -8.35 8.75 -8.3 8.65 -8.15 8.5 -8.1 Q8.45 -8.05 8.4 -8.15 L8.7 -8.45 8.7 -8.45 Q8.6 -8.5 8.55 -8.5 L8.45 -8.6 8.5 -8.45 8.5 -8.3 8.4 -8.25 8.3 -7.95 8.15 -7.6 8.1 -7.55 8.1 -7.7 8.2 -8.0 8.25 -8.35 8.25 -8.6 8.2 -8.9 8.2 -9.15 8.15 -9.15 7.75 -9.1 7.4 -8.9 6.95 -8.45 Q6.85 -8.25 6.95 -8.15 L7.3 -8.0 7.3 -8.0 6.85 -8.0 Q6.75 -8.0 6.55 -7.85 6.15 -7.55 6.05 -7.05 5.9 -6.6 6.1 -6.2 L5.95 -6.15 5.75 -6.1 5.75 -6.45 5.7 -6.75 Q5.7 -7.15 5.75 -7.6 5.8 -7.85 6.15 -8.35 6.45 -8.8 6.7 -9.0 6.9 -9.15 7.3 -9.3 L8.9 -11.05 Q7.95 -11.85 6.8 -12.6 L7.6 -13.95 Q7.7 -14.1 7.65 -14.25 7.65 -14.35 7.5 -14.4 L7.25 -14.45 Q7.15 -14.4 7.05 -14.3 L6.25 -12.9 Q5.3 -13.45 4.4 -13.85 4.1 -13.0 3.85 -12.75 3.25 -12.15 2.8 -11.8 L2.3 -11.5 1.85 -11.15 1.7 -11.45 Q1.6 -11.65 1.6 -11.75 2.3 -11.9 2.8 -12.5 3.35 -13.2 3.35 -13.95 3.35 -14.45 3.25 -14.6 L2.8 -15.15 2.8 -15.15 3.15 -15.0 Q3.4 -14.85 3.45 -14.85 3.65 -14.85 3.8 -15.3 3.95 -15.7 3.95 -15.95 3.95 -16.4 3.8 -16.9 L3.55 -17.45 3.3 -17.3 2.9 -17.1 2.5 -16.8 2.1 -16.4 1.8 -16.0 1.65 -15.75 1.65 -15.8 Q1.6 -15.85 1.6 -15.9 1.6 -16.0 1.95 -16.45 L2.25 -16.9 2.2 -17.05 2.4 -17.2 Q2.55 -17.3 2.7 -17.3 2.55 -17.3 2.4 -17.4 L2.2 -17.55 2.2 -17.5 2.15 -17.5 2.1 -16.8 Q1.95 -16.8 1.9 -16.9 L1.9 -17.45 1.95 -17.6 2.0 -17.75 1.7 -18.0 1.4 -18.35 1.35 -18.45 1.15 -18.25 0.85 -17.85 Q0.5 -17.15 0.35 -16.35 L0.35 -17.55 0.25 -18.35 Q0.5 -18.4 0.65 -18.65 0.85 -18.85 0.85 -19.15 L0.8 -19.3 0.75 -19.4 0.7 -19.55 0.5 -19.7 0.4 -19.85 0.55 -20.15 0.7 -20.45 0.8 -20.7 0.8 -20.75 0.8 -21.0 M1.95 -20.85 Q1.8 -20.75 1.65 -20.65 L1.45 -20.5 1.6 -20.35 1.95 -20.05 1.95 -20.05 1.85 -20.25 Q1.8 -20.4 1.8 -20.5 1.8 -20.6 1.9 -20.8 L1.95 -20.85 M2.95 -19.85 Q3.3 -19.65 3.6 -19.65 L3.6 -19.65 3.1 -19.2 Q2.8 -18.95 2.65 -18.7 L2.2 -19.05 Q1.9 -19.35 1.9 -19.45 L1.9 -19.4 Q2.0 -19.0 2.2 -18.75 2.4 -18.35 2.8 -18.2 3.1 -18.05 3.55 -17.9 L3.65 -17.9 3.7 -17.9 4.0 -18.05 Q4.25 -18.15 4.25 -18.2 L4.3 -17.75 Q4.35 -17.35 4.5 -16.8 L4.55 -16.7 4.55 -16.75 Q6.25 -16.1 7.95 -15.1 9.5 -14.2 10.8 -13.05 L13.7 -16.1 13.1 -16.6 14.35 -18.3 Q14.45 -18.45 14.45 -18.6 14.4 -18.8 14.3 -18.9 14.15 -19.0 13.95 -19.0 13.8 -18.95 13.7 -18.8 L12.45 -17.15 Q11.15 -18.1 9.75 -18.8 L10.65 -20.65 Q10.75 -20.8 10.7 -21.0 10.6 -21.15 10.45 -21.25 L10.15 -21.25 Q9.95 -21.2 9.9 -21.05 L9.0 -19.2 Q7.55 -19.8 6.05 -20.25 L6.55 -22.25 Q6.6 -22.45 6.55 -22.6 6.45 -22.75 6.25 -22.8 L5.95 -22.75 Q5.8 -22.7 5.75 -22.5 L5.2 -20.45 Q4.0 -20.75 2.7 -20.9 L2.85 -20.4 2.85 -20.2 2.7 -20.4 2.6 -20.3 2.4 -20.15 2.95 -19.85 M7.6 -22.1 L7.35 -22.15 7.25 -22.1 7.2 -22.1 Q7.05 -22.0 7.0 -21.95 6.95 -21.9 7.0 -21.85 L7.1 -21.75 7.2 -21.65 7.25 -21.65 7.25 -21.65 Q7.3 -21.8 7.35 -21.85 L7.55 -21.9 7.75 -21.9 7.9 -21.7 7.95 -21.6 7.9 -21.5 7.9 -21.4 7.85 -21.35 7.85 -21.3 Q7.85 -21.3 7.85 -21.35 L7.75 -21.45 7.6 -21.55 7.4 -21.6 7.25 -21.6 7.1 -21.5 7.05 -21.4 6.95 -21.25 6.95 -21.05 6.95 -20.95 7.0 -20.85 7.05 -20.75 7.15 -20.65 7.25 -20.55 7.35 -20.5 7.45 -20.4 Q7.55 -20.35 7.6 -20.35 L7.8 -20.35 7.95 -20.4 8.1 -20.35 Q8.15 -20.3 8.15 -20.35 L8.1 -20.55 8.05 -20.65 8.05 -20.8 8.1 -20.95 8.15 -21.15 8.2 -21.4 8.2 -21.6 8.05 -21.8 7.85 -22.0 7.6 -22.1 M7.35 -21.25 Q7.4 -21.35 7.55 -21.35 7.65 -21.35 7.75 -21.3 7.8 -21.2 7.75 -21.05 L7.8 -20.9 Q7.8 -20.85 7.85 -20.8 L7.9 -20.7 7.95 -20.6 7.95 -20.55 Q7.95 -20.55 7.95 -20.6 L7.85 -20.6 7.8 -20.65 7.75 -20.65 7.65 -20.65 7.55 -20.6 7.35 -20.6 Q7.3 -20.65 7.25 -20.75 7.25 -20.8 7.25 -20.9 L7.25 -21.1 7.35 -21.25 M12.05 -20.45 L12.25 -20.3 12.35 -19.95 12.3 -19.65 12.25 -19.4 12.15 -19.25 Q12.1 -19.25 12.0 -19.3 L11.95 -19.35 11.9 -19.35 11.9 -19.35 11.85 -19.4 11.8 -19.5 11.85 -19.6 11.85 -19.65 11.8 -19.8 11.8 -19.95 11.85 -20.05 11.9 -20.2 11.9 -20.25 11.8 -20.25 11.7 -20.25 11.6 -20.25 11.5 -20.25 11.45 -20.25 11.45 -20.2 11.5 -20.15 11.5 -20.1 11.55 -20.05 11.55 -18.9 11.55 -18.75 11.55 -18.65 11.45 -18.6 Q11.45 -18.55 11.5 -18.55 L11.55 -18.5 11.65 -18.5 11.7 -18.45 11.75 -18.45 Q11.75 -18.4 11.8 -18.4 L11.9 -18.35 11.95 -18.35 11.95 -18.4 11.9 -18.45 11.9 -18.45 11.85 -18.5 11.85 -18.55 11.8 -18.9 Q11.8 -19.1 11.85 -19.25 L11.85 -19.25 11.9 -19.25 11.9 -19.25 12.2 -19.05 12.2 -19.05 12.25 -19.0 12.3 -19.0 12.3 -18.95 12.35 -19.0 12.55 -19.25 12.65 -19.55 Q12.7 -19.8 12.6 -20.0 L12.4 -20.35 12.05 -20.6 11.65 -20.75 11.6 -20.75 11.6 -20.65 12.05 -20.45 M15.65 -17.45 L15.5 -17.55 15.5 -17.5 15.4 -17.45 15.4 -17.4 15.45 -17.3 15.4 -17.2 15.35 -17.1 15.35 -16.9 15.35 -16.6 15.4 -16.4 15.35 -16.2 15.3 -16.1 15.25 -16.1 15.2 -16.1 15.15 -16.05 15.2 -16.0 15.3 -15.95 15.35 -15.95 Q15.45 -15.85 15.55 -15.85 15.65 -15.85 15.65 -16.0 L15.7 -16.25 15.65 -16.5 15.65 -17.05 15.65 -17.45 M15.4 -15.65 L15.45 -15.5 15.55 -15.4 Q15.6 -15.35 15.65 -15.35 15.75 -15.35 15.75 -15.4 L15.75 -15.45 15.65 -15.55 15.6 -15.65 15.45 -15.75 15.4 -15.8 15.35 -15.75 15.4 -15.65 M11.95 -10.15 L11.9 -10.15 11.9 -10.1 11.9 -10.05 11.9 -9.95 11.95 -9.9 11.95 -9.95 12.0 -10.0 12.0 -10.1 11.95 -10.15 11.95 -10.15 M11.5 -9.9 L11.45 -9.95 11.4 -9.9 11.35 -9.85 11.35 -9.85 11.35 -9.85 11.5 -9.9 11.5 -9.9 M11.9 -11.0 L11.9 -11.05 11.8 -11.05 11.75 -11.0 11.75 -10.9 11.7 -10.8 11.7 -10.6 11.65 -10.5 11.65 -10.45 11.5 -10.15 11.45 -10.1 11.5 -10.1 11.6 -10.05 11.65 -10.1 11.75 -10.15 11.85 -10.25 11.95 -10.4 12.0 -10.55 11.95 -10.65 11.95 -10.7 11.9 -10.8 11.85 -10.8 11.8 -10.85 11.8 -10.85 11.85 -10.9 11.85 -10.95 11.9 -10.95 11.9 -11.0 M10.95 -9.95 L10.95 -9.9 11.0 -9.85 11.05 -9.85 11.05 -9.85 11.1 -9.8 11.1 -9.8 11.05 -9.75 11.05 -9.75 11.1 -9.75 11.15 -9.8 11.2 -9.85 11.35 -9.9 11.4 -9.95 11.35 -9.95 11.3 -9.95 11.3 -9.95 Q11.25 -9.95 11.2 -9.95 L11.2 -10.0 11.15 -10.05 11.1 -10.05 10.95 -9.95 M10.95 -11.05 L10.9 -11.1 10.85 -11.05 10.8 -11.0 10.75 -10.95 10.7 -10.9 10.75 -10.85 10.8 -10.85 10.8 -10.8 10.85 -10.8 10.85 -10.6 10.85 -10.2 11.1 -10.35 11.1 -10.5 11.15 -10.5 11.2 -10.5 11.25 -10.45 11.3 -10.45 11.4 -10.4 11.4 -10.4 11.45 -10.4 11.5 -10.45 11.5 -10.45 11.55 -10.5 11.65 -10.55 11.65 -10.65 11.65 -10.65 11.6 -10.6 11.5 -10.6 11.45 -10.6 11.35 -10.65 11.3 -10.7 11.2 -10.7 11.2 -10.65 11.15 -10.6 11.15 -10.6 Q11.1 -10.55 11.1 -10.55 11.05 -10.55 11.05 -10.6 L11.05 -10.75 11.05 -10.9 11.0 -11.0 10.95 -11.05 M10.5 -12.2 L10.5 -12.2 8.2 -9.8 Q8.2 -9.75 8.25 -9.6 L8.3 -9.4 8.3 -9.35 8.4 -9.25 Q8.65 -9.05 8.8 -8.95 9.05 -8.85 9.3 -8.9 L9.75 -8.95 9.75 -9.0 9.45 -9.0 9.1 -9.1 9.2 -9.45 9.2 -9.85 9.25 -9.9 Q9.35 -9.7 9.55 -9.6 L9.9 -9.5 9.9 -9.7 9.8 -9.7 9.85 -9.75 10.15 -9.85 9.45 -10.55 10.5 -11.7 Q10.6 -11.8 10.6 -11.95 L10.5 -12.2 M8.75 -13.25 L8.85 -13.3 8.9 -13.3 8.95 -13.3 9.0 -13.3 9.0 -12.7 9.0 -12.5 8.95 -12.4 8.85 -12.3 8.8 -12.3 8.7 -12.3 8.65 -12.3 8.6 -12.35 8.55 -12.35 8.55 -12.35 8.5 -12.3 8.55 -12.3 8.65 -12.2 8.8 -12.2 8.95 -12.25 9.1 -12.3 9.2 -12.3 9.25 -12.3 9.35 -12.35 9.35 -12.4 9.3 -12.45 9.25 -12.5 9.2 -12.55 9.2 -12.6 9.2 -12.9 9.2 -13.15 9.2 -13.4 9.25 -13.4 9.3 -13.45 9.3 -13.5 9.05 -13.5 8.85 -13.45 8.65 -13.45 8.4 -13.5 8.4 -13.5 8.35 -13.5 8.3 -13.5 8.25 -13.5 Q8.2 -13.5 8.2 -13.4 L8.25 -13.3 8.25 -13.15 8.25 -12.95 8.3 -12.9 8.3 -12.85 8.35 -12.8 8.4 -12.8 8.4 -12.8 8.4 -12.85 8.4 -13.05 8.4 -13.2 8.4 -13.25 8.4 -13.3 8.4 -13.3 8.45 -13.3 8.5 -13.25 8.55 -13.2 8.6 -13.2 8.65 -13.2 8.75 -13.25 M11.05 -12.8 Q14.75 -9.45 16.25 -4.45 L18.0 -4.1 18.45 -4.05 18.3 -3.8 18.15 -3.5 18.15 -3.35 Q18.25 -2.9 18.4 -2.6 18.6 -2.2 18.95 -1.95 19.2 -1.8 19.65 -1.65 L19.7 -1.65 Q19.6 -1.7 19.3 -2.0 L18.95 -2.45 19.4 -2.85 19.85 -3.4 19.9 -3.4 Q19.9 -3.05 20.05 -2.7 L20.35 -2.15 20.55 -2.4 20.65 -2.45 20.45 -2.6 20.6 -2.6 20.95 -2.5 20.9 -2.7 23.0 -3.0 Q23.2 -3.05 23.3 -3.2 23.4 -3.3 23.35 -3.5 23.35 -3.65 23.2 -3.8 23.05 -3.9 22.9 -3.85 L20.8 -3.55 Q20.55 -5.15 20.1 -6.6 L22.05 -7.3 Q22.25 -7.35 22.3 -7.5 22.4 -7.65 22.35 -7.85 22.25 -8.0 22.1 -8.1 L21.8 -8.1 19.8 -7.45 Q19.25 -8.9 18.5 -10.25 L18.5 -10.3 20.3 -11.35 Q20.45 -11.4 20.5 -11.6 20.55 -11.75 20.45 -11.9 20.4 -12.05 20.2 -12.1 L19.9 -12.1 18.1 -11.05 18.05 -11.05 Q17.2 -12.35 16.2 -13.55 L17.85 -14.95 Q17.95 -15.05 17.95 -15.25 18.0 -15.45 17.85 -15.55 17.75 -15.7 17.6 -15.7 17.4 -15.7 17.25 -15.6 L15.65 -14.2 Q14.8 -15.1 13.95 -15.9 L11.05 -12.8 M4.95 -14.95 Q4.9 -14.9 4.9 -14.8 L4.95 -14.7 5.0 -14.55 5.05 -14.4 5.15 -14.25 5.7 -14.05 6.0 -14.05 Q6.15 -14.1 6.25 -14.2 L6.45 -14.35 6.55 -14.5 6.65 -14.7 6.65 -15.0 6.6 -15.15 6.6 -15.25 6.65 -15.35 6.7 -15.35 6.65 -15.4 6.55 -15.4 6.4 -15.35 6.3 -15.2 6.3 -14.9 6.35 -14.75 6.35 -14.4 6.35 -14.4 6.3 -14.3 6.15 -14.25 6.0 -14.2 5.9 -14.15 5.75 -14.15 5.65 -14.2 5.7 -14.25 5.75 -14.25 5.8 -14.3 Q5.85 -14.3 5.85 -14.3 L5.85 -14.3 5.9 -14.3 5.9 -14.35 6.0 -14.45 6.0 -14.75 6.1 -14.9 6.1 -14.95 6.05 -14.95 5.95 -14.9 5.85 -14.9 5.8 -14.85 5.75 -14.8 5.7 -14.7 5.7 -14.5 5.7 -14.4 5.65 -14.3 5.55 -14.3 5.45 -14.4 5.35 -14.55 5.25 -14.75 5.25 -14.9 5.25 -15.1 5.3 -15.2 5.3 -15.25 5.35 -15.25 5.35 -15.3 5.4 -15.3 5.45 -15.35 5.5 -15.35 5.5 -15.45 5.45 -15.45 5.4 -15.45 5.35 -15.45 5.35 -15.4 5.3 -15.4 5.25 -15.35 5.2 -15.35 5.1 -15.25 5.0 -15.1 4.95 -14.95 M4.2 -15.75 L4.2 -15.75 4.0 -15.3 3.85 -15.0 3.8 -14.9 3.8 -14.9 3.75 -14.9 3.75 -14.85 4.35 -15.15 4.25 -15.45 4.2 -15.75 M1.35 -15.3 Q1.4 -15.5 1.5 -15.55 1.45 -15.35 1.75 -15.0 2.0 -14.7 2.15 -14.65 L1.7 -14.45 Q1.35 -14.25 1.35 -14.1 L1.4 -13.9 1.45 -13.65 Q1.2 -13.55 0.9 -13.15 L0.4 -12.6 0.75 -13.4 Q0.95 -13.95 0.95 -14.3 L0.95 -14.45 0.9 -14.55 1.05 -14.75 1.25 -15.05 1.35 -15.3 M3.05 -14.05 L2.8 -14.0 2.55 -13.9 2.5 -14.15 2.4 -14.4 2.45 -14.5 Q2.55 -14.5 2.55 -14.65 L2.8 -14.35 2.95 -14.2 3.05 -14.15 3.05 -14.05 M3.55 -14.6 Q3.75 -13.95 3.9 -13.8 L4.0 -13.95 4.15 -14.15 4.2 -14.45 4.25 -14.65 4.25 -14.85 4.2 -14.85 Q4.15 -14.7 3.9 -14.65 L3.55 -14.6 M3.7 -13.75 L3.55 -14.15 3.5 -13.65 3.4 -13.3 3.4 -13.05 3.65 -13.2 3.8 -13.25 3.7 -13.75 M2.35 -13.2 L1.9 -13.5 1.75 -13.7 1.55 -13.9 1.65 -14.1 1.8 -14.3 2.1 -13.8 2.35 -13.25 2.35 -13.2 M2.7 -13.0 L2.7 -13.3 2.55 -13.65 2.8 -13.55 2.95 -13.4 2.75 -13.0 2.7 -13.0 M1.9 -12.4 Q1.7 -12.4 1.4 -12.0 1.15 -11.6 1.15 -11.4 1.15 -11.25 1.2 -11.2 L1.45 -11.0 Q1.2 -10.85 0.9 -10.1 0.75 -9.7 0.7 -9.35 L0.7 -9.65 Q0.65 -10.35 0.65 -10.8 L0.6 -11.25 0.55 -11.65 0.8 -11.95 1.15 -12.45 1.3 -12.8 1.45 -13.3 1.65 -12.9 1.9 -12.55 1.9 -12.4 M6.65 -5.4 L6.9 -5.4 7.25 -5.4 7.5 -5.4 Q7.65 -5.45 7.75 -5.55 L7.65 -5.3 7.55 -5.05 7.5 -5.0 Q7.45 -5.1 7.15 -5.1 6.85 -5.1 6.75 -5.0 L6.7 -4.9 6.7 -4.7 6.4 -4.75 6.2 -4.95 6.3 -5.0 6.5 -5.2 6.55 -5.3 6.65 -5.4 M6.3 -7.2 L6.3 -7.2 6.4 -7.45 6.65 -7.35 6.45 -7.25 6.3 -7.2 M7.2 -7.1 L7.15 -6.95 7.0 -6.95 6.5 -7.1 6.55 -7.1 6.9 -7.2 7.25 -7.2 7.2 -7.1 M5.7 -5.45 Q5.8 -5.75 5.8 -5.85 L6.0 -5.85 6.1 -5.85 Q6.2 -5.95 6.3 -6.2 6.4 -6.5 6.3 -6.6 L6.35 -6.65 6.65 -6.65 6.9 -6.7 6.7 -6.45 6.6 -6.25 6.5 -5.9 6.45 -5.65 Q6.4 -5.65 6.25 -5.55 L6.0 -5.4 5.85 -5.3 5.7 -5.45 M7.6 -7.45 Q7.85 -7.45 7.95 -7.5 L7.9 -7.35 7.8 -7.2 7.75 -7.0 7.7 -6.9 7.6 -6.85 7.55 -6.8 7.2 -6.4 6.95 -5.95 7.05 -6.35 Q7.1 -6.65 7.05 -6.8 L7.2 -6.85 7.3 -6.95 Q7.4 -7.0 7.35 -7.2 7.3 -7.5 7.3 -7.5 7.35 -7.45 7.6 -7.45 M7.15 -8.4 L7.3 -8.55 7.4 -8.65 7.45 -8.6 7.5 -8.45 7.55 -8.3 Q7.5 -8.35 7.35 -8.35 L7.15 -8.4 M7.1 -7.55 L6.95 -7.5 6.8 -7.4 6.75 -7.6 6.7 -7.7 6.7 -7.75 6.8 -7.7 6.95 -7.7 7.15 -7.7 7.1 -7.6 7.1 -7.55 M7.95 -5.65 L7.5 -5.75 7.1 -5.75 7.05 -5.8 7.15 -5.8 7.55 -5.9 Q7.9 -6.0 8.05 -6.1 L8.15 -6.2 8.15 -6.25 8.3 -6.25 8.5 -6.25 8.7 -6.3 8.85 -6.3 Q8.75 -6.25 8.7 -6.0 8.6 -5.75 8.65 -5.7 L8.4 -5.8 Q8.2 -5.9 8.1 -5.85 L8.05 -5.8 7.95 -5.65 M8.05 -5.55 L8.1 -5.7 8.25 -5.75 8.35 -5.75 8.25 -5.4 8.05 -5.1 8.05 -5.4 8.05 -5.55 M8.05 -4.85 L8.2 -4.95 8.35 -5.15 8.35 -4.85 8.1 -4.8 8.05 -4.85 M12.25 -8.95 L12.25 -8.95 11.9 -8.6 12.25 -8.85 12.25 -8.95 M10.35 -9.6 L10.35 -9.5 10.25 -9.3 Q10.2 -9.25 10.1 -9.25 L10.0 -9.25 10.0 -9.25 10.4 -9.15 10.4 -9.3 10.35 -9.6 M11.8 -9.75 L11.8 -9.8 11.75 -9.75 11.8 -9.75 M13.85 -5.75 L13.85 -5.75 13.8 -5.7 13.8 -5.65 13.9 -5.65 13.95 -5.65 14.05 -5.65 14.1 -5.6 14.15 -5.5 14.15 -5.4 14.25 -5.05 14.3 -4.7 14.3 -4.65 14.3 -4.6 14.35 -4.6 14.45 -4.65 14.55 -4.65 14.6 -4.65 14.6 -4.7 14.55 -4.75 14.55 -4.8 14.45 -5.0 14.4 -5.25 14.4 -5.3 14.45 -5.3 14.5 -5.3 14.5 -5.35 14.6 -5.3 14.7 -5.15 14.8 -5.05 14.85 -4.9 14.85 -4.9 14.9 -4.85 14.9 -4.85 14.9 -4.8 14.95 -4.8 14.95 -4.8 15.0 -4.8 15.0 -4.8 15.05 -4.75 15.05 -4.75 15.1 -4.8 15.15 -4.85 15.2 -4.9 15.25 -4.95 15.2 -5.0 15.15 -5.0 15.1 -5.0 Q15.05 -5.0 15.05 -5.05 L15.0 -5.1 14.9 -5.25 14.85 -5.35 14.8 -5.4 14.75 -5.4 14.75 -5.45 14.7 -5.45 14.7 -5.45 14.75 -5.5 14.8 -5.6 14.9 -5.65 14.95 -5.75 14.95 -5.8 14.85 -5.9 14.85 -5.9 14.9 -5.95 14.95 -6.0 15.0 -6.0 14.95 -6.05 14.9 -6.05 14.85 -6.05 14.85 -6.0 14.8 -5.95 14.8 -5.95 14.75 -5.9 14.75 -5.85 14.7 -5.8 14.7 -5.75 14.65 -5.7 14.65 -5.65 14.6 -5.6 14.6 -5.55 14.6 -5.5 14.55 -5.45 14.5 -5.4 14.4 -5.35 14.4 -5.4 14.35 -5.45 14.3 -5.6 14.3 -5.7 14.3 -5.8 14.35 -5.8 14.4 -5.8 14.4 -5.85 14.4 -5.85 14.35 -5.9 14.25 -5.9 14.15 -5.85 14.1 -5.8 14.05 -5.75 14.0 -5.75 13.9 -5.7 13.85 -5.75 M13.05 -8.05 L13.05 -8.05 13.0 -8.05 13.0 -8.0 12.95 -7.95 12.95 -7.9 12.9 -7.9 12.9 -7.85 12.9 -7.8 13.05 -7.8 13.2 -7.85 13.25 -7.85 13.3 -7.9 13.3 -7.9 13.35 -7.95 13.35 -7.95 13.35 -7.95 13.35 -7.7 13.35 -7.45 13.3 -7.45 13.25 -7.4 13.15 -7.45 13.1 -7.45 Q13.05 -7.45 13.05 -7.5 L13.0 -7.55 13.0 -7.55 13.0 -7.6 12.95 -7.6 12.95 -7.55 12.85 -7.45 12.8 -7.35 12.8 -7.3 12.85 -7.3 12.9 -7.35 12.9 -7.35 12.95 -7.3 13.0 -7.3 13.1 -7.3 13.25 -7.3 13.35 -7.35 13.45 -7.4 13.5 -7.4 13.6 -7.4 13.65 -7.35 13.65 -7.35 13.7 -7.35 13.75 -7.35 13.8 -7.35 13.8 -7.4 13.7 -7.45 13.6 -7.45 13.55 -7.5 13.55 -7.95 13.55 -8.45 13.6 -8.45 13.6 -8.5 13.6 -8.55 13.6 -8.55 13.5 -8.55 13.45 -8.55 13.4 -8.55 13.35 -8.55 13.35 -8.55 13.3 -8.55 13.3 -8.5 13.3 -8.45 13.35 -8.45 13.35 -8.25 13.35 -8.05 Q13.3 -7.95 13.25 -7.95 13.2 -7.95 13.1 -8.0 L13.1 -8.0 13.05 -8.05 13.05 -8.05 M11.2 -8.1 L11.15 -8.0 11.15 -7.7 11.2 -7.8 11.3 -7.95 11.5 -8.0 11.55 -7.95 11.2 -8.1 M11.5 -8.15 L11.5 -8.15 11.5 -8.15 M8.45 -5.25 L8.55 -5.35 8.65 -5.45 8.7 -5.5 8.8 -5.5 8.75 -5.25 8.7 -5.15 8.75 -5.05 8.7 -5.05 8.6 -5.15 8.45 -5.25 M9.3 -5.0 L9.7 -4.85 9.8 -4.95 9.9 -5.1 9.95 -5.1 9.6 -5.05 9.45 -5.0 9.35 -5.0 9.35 -5.0 9.35 -5.0 9.3 -5.0 M15.55 -3.75 L16.0 -4.0 15.95 -4.0 15.4 -4.1 15.05 -3.5 Q15.1 -3.5 15.1 -3.55 L15.1 -3.55 15.15 -3.55 Q15.2 -3.55 15.25 -3.6 L15.55 -3.75 M9.85 -0.5 L9.6 -0.5 Q9.9 -0.55 10.35 -0.7 11.05 -0.95 11.25 -1.25 L11.45 -0.95 11.6 -0.9 Q11.85 -0.9 12.25 -1.2 12.65 -1.5 12.6 -1.7 L12.75 -1.7 Q12.85 -1.6 13.15 -1.4 L13.55 -1.25 13.05 -1.1 12.7 -0.9 12.2 -0.55 11.9 -0.3 11.5 -0.35 9.85 -0.5 M8.5 -4.45 Q8.55 -4.4 8.6 -4.4 L8.75 -4.65 8.9 -4.85 8.65 -4.7 8.45 -4.6 8.35 -4.5 8.5 -4.45 M9.3 -4.65 L9.4 -4.7 9.5 -4.75 9.5 -4.75 Q9.4 -4.75 9.3 -4.85 L9.15 -5.0 Q8.9 -4.7 8.85 -4.55 L9.0 -4.55 9.15 -4.6 9.3 -4.65 M14.2 -3.8 L14.0 -3.65 Q14.2 -3.5 14.8 -3.35 L14.9 -3.7 Q14.95 -3.9 15.05 -4.0 L15.05 -4.05 14.9 -4.05 14.7 -4.0 14.4 -3.9 14.2 -3.8 M13.2 -2.5 L13.65 -2.75 13.75 -2.55 13.85 -2.35 Q13.75 -2.4 13.55 -2.45 L13.2 -2.5 13.2 -2.5 M14.25 -2.6 L14.3 -2.85 14.35 -2.85 14.45 -2.7 14.55 -2.55 14.85 -2.3 Q14.75 -2.3 14.7 -2.25 L14.65 -2.2 14.1 -2.3 14.25 -2.6 M13.3 -3.2 L13.5 -3.2 13.9 -3.25 14.35 -3.35 13.5 -3.6 13.4 -3.4 13.3 -3.2 M13.85 -1.25 L14.15 -1.15 14.3 -1.15 Q14.5 -1.15 14.65 -1.5 L14.9 -1.95 Q14.9 -1.75 15.25 -1.5 15.6 -1.25 15.8 -1.3 15.7 -1.2 15.55 -1.15 L15.25 -1.05 15.0 -0.85 14.8 -0.7 14.7 -0.75 14.5 -0.75 Q14.2 -0.75 13.65 -0.5 L12.8 -0.15 13.4 -0.65 Q13.75 -0.95 13.85 -1.25 M13.75 -1.7 Q13.65 -1.8 13.45 -2.1 L13.5 -2.1 Q13.65 -2.05 14.05 -1.85 L14.55 -1.55 Q14.5 -1.55 14.35 -1.45 L14.1 -1.3 13.95 -1.5 13.75 -1.7 M18.3 -13.85 L18.2 -13.8 Q18.15 -13.8 18.1 -13.85 L18.05 -13.85 18.0 -13.85 18.0 -13.75 18.0 -13.7 18.05 -13.65 18.1 -13.2 18.1 -12.6 18.1 -12.35 18.05 -12.25 18.0 -12.2 18.05 -12.15 18.15 -12.1 18.2 -12.1 18.25 -12.05 18.35 -12.0 18.4 -11.95 18.45 -11.95 18.5 -12.0 18.45 -12.05 18.4 -12.1 18.4 -12.15 Q18.35 -12.4 18.35 -12.65 L18.35 -13.45 18.35 -13.65 18.4 -13.7 18.4 -13.75 18.45 -13.8 18.45 -13.85 18.4 -13.85 18.3 -13.85 M20.0 -10.35 L20.05 -10.3 20.05 -10.25 20.1 -9.6 20.05 -8.9 20.05 -8.9 20.0 -8.85 20.0 -8.8 20.05 -8.75 20.1 -8.7 20.2 -8.65 20.25 -8.65 20.3 -8.6 20.4 -8.55 20.45 -8.55 20.45 -8.65 20.4 -8.65 20.4 -8.7 20.35 -9.1 20.35 -9.45 20.4 -9.5 20.5 -9.4 20.6 -9.35 20.65 -9.3 20.7 -9.25 20.75 -9.25 20.8 -9.2 20.9 -9.2 20.9 -9.25 20.9 -9.3 20.9 -9.45 20.95 -9.55 20.9 -9.6 20.85 -9.65 20.8 -9.7 20.8 -9.7 20.85 -9.75 20.9 -9.85 20.9 -9.95 20.95 -10.05 20.95 -10.15 21.05 -10.2 21.1 -10.25 21.15 -10.25 21.15 -10.3 21.1 -10.35 21.0 -10.4 20.95 -10.45 20.9 -10.45 20.8 -10.4 20.7 -10.3 20.7 -10.15 20.65 -10.05 Q20.55 -9.75 20.35 -9.95 20.35 -10.0 20.35 -10.05 L20.3 -10.1 20.35 -10.2 20.35 -10.3 20.4 -10.35 20.4 -10.45 20.35 -10.45 20.3 -10.45 20.25 -10.4 Q20.25 -10.4 20.2 -10.4 L20.15 -10.4 20.1 -10.4 20.05 -10.45 20.0 -10.45 20.0 -10.35 M20.65 -9.65 L20.7 -9.55 20.65 -9.45 20.6 -9.45 20.6 -9.45 20.55 -9.5 20.45 -9.55 Q20.45 -9.55 20.4 -9.55 L20.35 -9.6 20.35 -9.7 20.35 -9.8 20.4 -9.8 20.5 -9.8 20.6 -9.7 20.65 -9.65 M21.1 -5.0 L21.1 -4.95 21.15 -4.9 21.15 -4.75 21.15 -4.6 21.2 -4.6 21.2 -4.65 21.25 -4.65 21.3 -4.7 21.55 -4.75 21.8 -4.75 21.8 -4.7 21.75 -4.7 21.75 -4.6 21.8 -4.6 21.85 -4.65 21.9 -4.7 21.95 -4.75 22.15 -4.75 22.35 -4.8 22.55 -4.75 22.65 -4.65 22.65 -4.6 22.75 -4.65 22.85 -4.75 22.9 -4.85 22.9 -4.9 22.85 -5.0 22.8 -5.0 22.75 -5.05 22.65 -5.05 22.65 -5.1 22.7 -5.2 22.8 -5.25 22.85 -5.35 22.9 -5.45 22.85 -5.6 22.55 -5.8 22.4 -5.85 22.25 -5.85 22.05 -5.8 21.9 -5.75 21.8 -5.65 21.7 -5.55 21.65 -5.45 21.6 -5.3 21.6 -5.2 21.65 -5.1 21.7 -5.05 21.6 -5.0 21.5 -5.0 21.35 -5.0 21.25 -5.0 21.2 -5.05 21.15 -5.05 21.15 -5.05 21.1 -5.05 21.1 -5.0 M22.05 -5.65 L22.25 -5.6 Q22.35 -5.6 22.4 -5.55 L22.55 -5.4 22.6 -5.25 Q22.6 -5.15 22.5 -5.1 L22.4 -5.05 22.25 -5.0 22.1 -5.05 22.0 -5.05 21.95 -5.1 21.85 -5.2 21.8 -5.3 21.75 -5.35 21.75 -5.45 Q21.8 -5.55 21.9 -5.6 L22.05 -5.65 M22.2 -1.65 L22.15 -1.5 22.15 -1.3 22.1 -1.3 22.5 -1.25 22.5 -1.35 22.45 -1.55 22.45 -1.75 22.3 -1.75 22.2 -1.75 22.2 -1.65 M20.25 -1.75 L20.6 -1.4 20.7 -1.25 20.9 -1.45 21.0 -1.65 21.0 -1.7 Q20.85 -1.55 20.7 -1.55 L20.45 -1.65 20.3 -1.75 20.25 -1.75 M22.2 0.0 L22.1 0.0 21.9 0.05 21.7 0.1 Q21.6 0.15 21.55 0.25 L21.45 0.35 21.65 0.35 21.8 0.3 21.85 0.3 21.95 0.3 22.0 0.3 22.1 0.3 22.1 0.45 22.1 0.5 22.4 0.5 22.4 0.35 22.45 0.3 22.6 0.3 22.7 0.3 22.9 0.3 23.1 0.3 23.2 0.35 23.25 0.4 23.25 0.35 23.3 0.3 23.25 0.25 23.25 0.1 23.25 0.05 23.3 0.05 23.3 -0.05 23.25 -0.05 23.25 -0.05 23.2 0.0 23.15 0.0 22.75 0.05 22.4 0.0 22.4 0.0 22.4 -0.05 22.45 -0.05 22.45 -0.05 22.4 -0.1 22.35 -0.1 22.25 -0.05 22.2 0.0 M23.4 -2.1 L23.45 -2.15 23.4 -2.15 23.35 -2.25 23.3 -2.3 23.2 -2.35 23.15 -2.35 23.15 -2.35 23.1 -2.35 23.05 -2.25 23.0 -2.2 22.95 -2.15 23.05 -1.85 Q23.1 -1.55 23.2 -1.4 L23.25 -1.35 23.2 -1.65 23.25 -2.05 23.25 -2.1 23.3 -2.1 23.35 -2.1 23.4 -2.1 M22.75 -2.2 L22.7 -2.25 22.6 -2.35 22.5 -2.35 22.35 -2.25 22.3 -2.2 22.75 -2.2 M22.9 -1.2 L23.0 -1.15 23.0 -1.2 22.9 -1.25 22.9 -1.2 M24.65 -0.35 Q24.65 0.8 24.6 1.9 23.9 12.0 16.25 18.65 9.45 24.6 0.65 24.65 L0.35 24.65 Q-0.8 24.65 -1.9 24.6 -12.0 23.9 -18.65 16.25 -24.6 9.45 -24.65 0.65 L-24.65 0.35 Q-24.65 -0.8 -24.6 -1.9 -24.0 -10.45 -18.45 -16.55 L-19.75 -17.55 -18.65 -17.15 -18.2 -16.8 Q-17.3 -17.75 -16.25 -18.65 -9.45 -24.6 -0.65 -24.65 L-0.65 -24.65 -0.35 -24.65 Q0.8 -24.65 1.9 -24.6 12.0 -23.9 18.65 -16.25 24.6 -9.45 24.65 -0.65 L24.65 -0.35 M22.95 1.9 Q22.4 1.8 21.3 2.1 L23.1 2.25 Q23.25 2.25 23.4 2.15 23.5 2.0 23.55 1.85 23.55 1.65 23.45 1.55 23.3 1.4 23.15 1.4 L23.1 1.4 23.05 1.55 22.95 1.9 M22.65 1.4 L22.65 1.35 21.2 1.25 21.25 1.35 Q21.35 1.65 21.4 1.65 L21.6 1.55 21.8 1.5 22.3 1.45 22.65 1.45 22.65 1.4 M21.45 0.55 L21.65 0.55 21.6 0.45 21.6 0.4 21.45 0.55 M20.6 1.15 L20.25 1.5 20.3 1.5 20.45 1.4 20.7 1.3 Q20.85 1.3 21.0 1.45 L21.15 1.6 20.9 1.15 20.75 1.0 20.6 1.15 M20.35 1.95 L20.05 2.5 Q19.9 2.8 19.9 3.15 L19.85 3.15 19.4 2.65 Q19.15 2.35 18.95 2.2 L19.3 1.75 Q19.6 1.45 19.7 1.4 L19.65 1.4 Q19.2 1.55 18.95 1.75 18.6 1.95 18.4 2.35 18.25 2.65 18.15 3.1 L18.1 3.35 18.15 3.45 18.3 3.75 18.45 4.05 Q18.0 4.05 17.05 4.25 L16.2 4.45 Q15.4 7.15 13.95 9.35 L15.25 10.45 17.6 8.15 Q17.25 8.75 16.85 9.4 L15.5 10.7 17.3 12.2 Q18.15 11.0 18.8 9.75 L20.65 10.65 21.0 10.7 Q21.15 10.6 21.25 10.45 21.3 10.3 21.25 10.15 21.2 9.95 21.05 9.9 L19.2 9.0 Q19.8 7.55 20.25 6.05 L22.25 6.55 22.6 6.55 Q22.75 6.45 22.8 6.25 22.85 6.1 22.75 5.95 22.7 5.8 22.5 5.75 L20.45 5.2 Q20.8 3.75 20.95 2.25 20.8 2.25 20.6 2.3 L20.45 2.3 20.6 2.2 20.55 2.15 20.35 1.95 M21.9 3.4 L21.75 3.65 Q21.7 3.75 21.7 3.8 L21.7 3.85 21.75 3.9 21.75 4.0 21.55 4.0 21.35 4.0 21.35 3.95 21.3 3.9 21.25 3.9 21.25 3.95 21.2 4.05 21.2 4.1 21.15 4.15 21.1 4.2 21.1 4.3 21.1 4.4 21.15 4.4 21.2 4.3 21.3 4.3 21.35 4.3 21.45 4.3 22.1 4.25 22.75 4.3 22.8 4.3 22.9 4.35 22.95 4.35 Q22.95 4.4 22.95 4.35 L23.0 4.3 22.95 4.25 22.95 4.1 22.95 4.05 23.0 4.0 22.95 4.0 22.9 3.95 22.8 4.0 22.8 3.95 22.85 3.9 22.9 3.8 22.95 3.7 22.95 3.6 22.9 3.4 22.75 3.25 22.5 3.15 22.25 3.15 Q22.15 3.15 22.05 3.25 21.95 3.3 21.9 3.4 M22.0 3.45 L22.05 3.4 22.3 3.35 22.5 3.45 22.55 3.5 22.65 3.55 22.65 3.65 22.7 3.75 22.7 3.85 22.6 4.0 22.5 4.0 22.35 4.0 22.2 4.0 22.1 4.0 21.95 3.9 21.95 3.55 22.0 3.45 M16.2 3.3 L15.95 3.3 Q15.75 3.25 15.6 3.25 L15.85 3.0 Q16.0 2.85 16.05 2.7 L16.15 3.0 Q16.2 3.2 16.2 3.25 L16.2 3.3 M20.65 7.15 L20.55 7.25 20.5 7.35 20.4 7.45 Q20.35 7.55 20.35 7.6 L20.35 7.8 20.4 7.95 20.35 8.1 Q20.3 8.15 20.35 8.15 L20.55 8.1 20.65 8.05 20.8 8.05 21.15 8.15 21.4 8.2 21.6 8.2 21.8 8.05 22.0 7.85 22.1 7.6 22.15 7.35 22.1 7.25 22.1 7.2 21.95 7.0 21.85 7.0 Q21.8 7.0 21.75 7.1 L21.65 7.2 21.65 7.25 Q21.8 7.3 21.85 7.35 L21.9 7.55 21.9 7.75 21.7 7.9 21.6 7.95 21.5 7.9 21.4 7.9 21.35 7.85 21.3 7.85 21.35 7.85 21.45 7.75 21.55 7.6 21.6 7.4 21.6 7.25 21.5 7.1 21.25 6.95 21.15 6.95 21.05 6.95 20.95 6.95 20.85 7.0 Q20.75 7.0 20.75 7.05 L20.65 7.15 M20.75 7.25 L20.9 7.25 21.1 7.25 Q21.2 7.3 21.25 7.35 21.35 7.4 21.35 7.55 21.35 7.65 21.3 7.75 L21.05 7.75 20.9 7.8 20.8 7.85 20.7 7.9 20.6 7.95 20.55 7.95 20.6 7.95 20.6 7.85 20.65 7.8 20.65 7.65 20.6 7.55 Q20.55 7.4 20.6 7.35 20.65 7.3 20.75 7.25 M20.75 11.6 L20.7 11.6 20.65 11.6 20.55 11.85 20.45 12.05 20.3 12.25 19.95 12.35 19.4 12.25 19.25 12.15 Q19.25 12.1 19.3 12.0 L19.35 11.95 19.35 11.9 19.4 11.85 19.5 11.8 19.6 11.85 19.65 11.85 19.8 11.8 19.95 11.8 20.2 11.9 20.25 11.9 20.25 11.7 20.25 11.5 20.25 11.45 20.2 11.45 20.15 11.5 20.1 11.5 20.05 11.55 19.45 11.55 18.9 11.55 18.85 11.55 18.75 11.55 18.7 11.55 18.65 11.55 18.6 11.45 Q18.55 11.45 18.55 11.5 L18.5 11.55 18.5 11.65 18.45 11.7 18.45 11.75 18.4 11.8 18.35 11.9 18.35 11.95 18.4 11.95 18.45 11.9 18.5 11.85 18.55 11.85 18.9 11.8 19.25 11.85 19.25 11.9 19.15 12.05 19.05 12.2 19.0 12.25 19.0 12.3 18.95 12.3 19.0 12.35 19.25 12.55 19.55 12.65 20.0 12.6 20.35 12.4 20.6 12.05 Q20.7 11.85 20.75 11.65 L20.75 11.6 M18.5 13.45 L17.95 13.2 15.25 10.95 10.2 15.95 11.3 17.85 Q12.45 17.1 13.55 16.2 L14.95 17.85 Q15.05 17.95 15.25 17.95 15.45 18.0 15.55 17.85 15.7 17.75 15.7 17.6 15.7 17.4 15.6 17.25 L14.2 15.65 Q15.55 14.45 16.6 13.1 L18.3 14.35 Q18.45 14.45 18.6 14.45 18.8 14.4 18.9 14.3 19.0 14.15 19.0 13.95 18.95 13.8 18.8 13.7 L18.5 13.45 M17.55 15.15 L17.5 15.15 17.5 15.3 17.45 15.35 17.4 15.4 17.3 15.45 17.1 15.35 16.9 15.35 16.75 15.35 16.6 15.35 16.4 15.4 16.2 15.35 Q16.15 15.35 16.1 15.3 L16.1 15.2 16.05 15.15 16.0 15.2 15.95 15.3 15.95 15.35 Q15.85 15.45 15.85 15.55 15.85 15.65 16.0 15.65 L16.25 15.7 16.5 15.65 16.8 15.65 17.05 15.65 17.3 15.65 17.45 15.65 17.55 15.5 17.6 15.25 17.65 15.2 17.6 15.2 17.55 15.15 M15.55 1.1 Q15.7 1.2 15.8 1.25 15.6 1.2 15.25 1.5 14.9 1.75 14.9 1.95 L14.65 1.45 Q14.5 1.1 14.3 1.1 L14.15 1.15 13.85 1.2 Q13.75 0.95 13.4 0.65 L12.8 0.15 13.65 0.5 Q14.2 0.7 14.5 0.7 L14.7 0.7 14.8 0.65 15.25 1.0 15.55 1.1 M14.65 2.2 L14.7 2.25 14.85 2.3 14.55 2.55 14.45 2.7 14.35 2.8 14.3 2.8 14.25 2.6 14.1 2.3 14.4 2.25 14.65 2.2 M14.55 1.55 L14.05 1.85 13.5 2.1 13.45 2.1 Q13.65 1.75 13.75 1.7 L13.95 1.5 14.1 1.3 14.35 1.4 14.55 1.55 M12.7 0.9 L13.05 1.1 13.55 1.2 13.15 1.4 Q12.85 1.55 12.75 1.7 L12.6 1.7 Q12.65 1.5 12.25 1.2 11.85 0.9 11.6 0.9 11.5 0.9 11.45 0.95 L11.25 1.2 Q11.05 0.95 10.35 0.65 9.9 0.5 9.6 0.45 L9.85 0.45 11.0 0.4 11.5 0.35 11.9 0.3 12.7 0.9 M13.55 2.45 L13.85 2.3 13.75 2.55 13.65 2.7 13.2 2.5 13.2 2.45 13.55 2.45 M14.45 4.55 L14.35 4.5 14.3 4.5 14.3 4.6 14.3 4.65 14.25 5.0 14.15 5.35 14.15 5.4 14.1 5.5 14.05 5.55 13.95 5.55 13.9 5.55 13.8 5.6 13.8 5.65 13.85 5.65 13.9 5.65 14.0 5.65 14.05 5.7 14.1 5.75 14.15 5.75 14.25 5.8 14.35 5.8 14.4 5.8 14.4 5.75 14.35 5.75 14.3 5.7 14.3 5.5 14.35 5.4 14.4 5.3 14.5 5.35 14.55 5.4 14.6 5.45 14.6 5.5 14.65 5.6 14.65 5.65 14.7 5.65 14.7 5.7 14.75 5.8 14.75 5.85 14.8 5.9 14.85 5.95 14.9 6.0 14.95 5.95 15.0 5.95 14.95 5.9 14.9 5.9 14.85 5.85 14.85 5.8 14.95 5.75 14.95 5.65 14.9 5.6 14.8 5.5 14.75 5.45 14.7 5.4 14.75 5.35 14.8 5.35 14.85 5.25 14.9 5.15 15.0 5.05 15.05 4.95 15.1 4.9 15.15 4.95 15.2 4.9 15.25 4.9 15.2 4.85 15.15 4.75 15.1 4.7 15.05 4.7 15.0 4.7 14.95 4.7 14.95 4.75 14.9 4.75 14.9 4.8 14.85 4.85 14.8 4.95 14.7 5.1 14.6 5.2 14.5 5.25 14.45 5.25 14.4 5.2 14.45 4.95 14.55 4.7 14.55 4.65 14.6 4.65 14.6 4.6 14.55 4.6 14.45 4.55 M8.9 4.25 L8.6 4.15 8.45 4.15 Q8.5 4.3 8.75 4.6 L8.9 4.45 Q9.0 4.35 9.1 4.4 L9.1 4.35 8.9 4.25 M8.2 4.0 L8.1 4.05 7.95 4.15 8.25 4.3 8.5 4.45 8.35 4.25 8.2 4.0 M8.25 5.6 Q8.35 5.85 8.45 5.9 L8.25 5.9 8.1 5.85 7.9 5.85 7.75 5.85 7.75 5.8 7.65 5.7 Q7.5 5.6 7.15 5.5 L6.65 5.4 7.1 5.35 Q7.4 5.35 7.5 5.25 L7.6 5.4 7.7 5.45 8.0 5.4 8.25 5.3 Q8.2 5.4 8.25 5.6 M10.75 7.3 L10.75 7.6 10.8 7.7 10.9 7.65 11.1 7.6 11.05 7.6 10.9 7.55 10.8 7.4 10.75 7.3 M10.15 6.6 L10.2 6.75 Q10.25 6.9 10.4 7.1 L10.45 7.15 Q10.4 7.1 10.35 6.85 L10.35 6.8 10.15 6.6 M8.8 4.75 L8.75 4.95 8.75 5.1 9.2 5.35 9.7 5.8 9.95 5.7 Q10.0 5.65 10.1 5.6 L9.9 5.35 Q9.75 5.05 9.5 4.9 L9.15 4.75 8.8 4.75 M8.95 4.6 L9.05 4.6 9.5 4.7 9.4 4.6 9.3 4.45 8.95 4.6 8.9 4.6 8.95 4.6 M9.85 8.9 L9.95 9.1 9.95 9.2 10.0 8.9 10.0 8.75 9.85 8.8 9.6 8.85 9.7 8.85 Q9.8 8.85 9.85 8.9 M10.1 9.3 L10.3 9.4 10.45 9.45 10.6 9.25 10.15 9.0 10.1 9.15 Q10.05 9.3 10.1 9.3 M11.85 8.55 L11.85 8.45 11.55 8.25 11.8 8.55 11.85 8.55 M11.4 7.7 L11.35 7.6 Q11.3 7.6 11.2 7.7 L11.05 7.75 11.45 8.15 11.6 7.95 11.5 7.8 11.4 7.7 M10.95 9.8 L10.9 10.05 Q10.85 10.15 10.85 10.25 L10.85 10.75 10.8 10.75 10.8 10.8 10.75 10.8 10.7 10.8 10.75 10.85 10.8 10.9 10.85 11.0 10.9 11.0 10.95 10.95 11.0 10.9 11.05 10.85 11.05 10.7 11.05 10.5 11.1 10.5 11.15 10.5 11.15 10.55 11.2 10.6 11.3 10.6 11.35 10.6 11.45 10.55 11.5 10.55 11.6 10.55 11.65 10.6 11.65 10.45 11.55 10.4 11.5 10.4 11.5 10.35 11.45 10.35 11.4 10.35 11.3 10.35 11.25 10.4 11.2 10.4 11.15 10.45 11.1 10.45 11.1 10.25 11.1 10.1 11.15 9.95 11.2 9.9 Q11.25 9.85 11.3 9.9 L11.5 10.1 11.65 10.4 11.65 10.45 11.7 10.5 11.7 10.7 11.75 10.85 11.75 10.95 11.8 11.0 11.9 10.95 11.9 10.9 11.85 10.85 11.85 10.8 11.8 10.8 11.8 10.75 11.85 10.75 11.9 10.7 11.95 10.65 11.95 10.55 12.0 10.5 11.95 10.35 11.85 10.2 11.75 10.1 11.65 10.0 11.45 9.9 11.2 9.75 11.15 9.7 11.1 9.7 11.05 9.75 11.05 9.8 11.0 9.8 10.95 9.8 M11.35 9.8 L11.4 9.85 11.5 9.9 11.55 9.9 11.6 9.9 11.7 9.85 Q11.75 9.85 11.8 9.85 L11.85 9.85 11.9 9.95 11.9 10.05 11.95 10.05 12.0 10.0 12.0 9.95 11.95 9.85 11.95 9.8 11.9 9.8 11.85 9.75 11.8 9.7 11.75 9.7 11.65 9.7 11.55 9.7 11.5 9.75 11.45 9.8 11.4 9.8 11.4 9.75 11.35 9.75 11.35 9.8 M12.8 7.3 L12.85 7.4 12.95 7.5 12.95 7.55 13.0 7.55 13.0 7.45 13.05 7.4 13.1 7.4 13.15 7.35 13.25 7.35 13.3 7.35 13.35 7.4 13.35 7.6 13.35 7.85 13.35 7.9 13.3 7.85 13.3 7.8 13.25 7.8 13.2 7.75 13.05 7.75 12.9 7.75 12.9 7.8 12.95 7.85 13.0 7.9 13.0 7.95 13.05 8.0 13.1 7.95 13.1 7.9 Q13.2 7.85 13.25 7.9 13.3 7.9 13.35 7.95 L13.35 8.15 13.35 8.35 13.3 8.4 13.3 8.45 13.35 8.5 13.4 8.45 13.45 8.45 13.5 8.45 13.6 8.5 13.6 8.4 13.55 8.35 13.55 7.9 13.55 7.45 13.6 7.4 13.7 7.35 13.8 7.35 13.8 7.25 13.75 7.25 13.7 7.3 13.65 7.3 13.6 7.3 13.5 7.3 13.45 7.3 13.35 7.25 13.25 7.25 13.1 7.2 13.0 7.25 12.95 7.25 12.9 7.25 12.85 7.25 12.8 7.25 12.8 7.3 M0.7 9.65 L0.7 9.35 Q0.75 9.7 0.9 10.1 1.2 10.85 1.45 11.0 L1.2 11.2 Q1.15 11.25 1.15 11.35 1.15 11.6 1.4 12.0 1.7 12.4 1.9 12.4 L1.9 12.5 Q1.8 12.6 1.65 12.9 L1.45 13.3 1.3 12.8 1.15 12.45 0.8 11.95 0.55 11.65 0.6 11.25 0.65 10.75 Q0.65 10.35 0.7 9.65 M7.65 4.7 L7.85 5.0 7.95 5.35 7.8 5.35 7.65 5.3 7.65 5.15 7.6 5.0 7.65 4.7 M6.2 5.85 L6.3 6.05 6.5 6.3 6.25 6.25 Q6.05 6.2 5.95 6.25 L5.9 6.2 Q5.95 6.1 5.9 5.8 5.8 5.55 5.7 5.45 L5.65 5.45 5.85 5.2 6.05 5.25 6.1 5.5 6.2 5.85 M6.8 6.0 Q7.0 6.3 7.15 6.4 L7.2 6.45 7.3 6.5 7.3 6.65 7.4 6.8 7.45 6.95 7.55 7.1 Q7.45 7.05 7.2 7.05 6.95 7.05 6.9 7.15 L6.95 6.8 Q7.0 6.6 6.9 6.55 L6.65 6.4 Q6.7 6.25 6.6 5.95 L6.55 5.55 6.8 6.0 M6.8 6.7 L6.85 6.8 6.5 6.8 6.15 6.7 6.1 6.7 6.4 6.6 6.6 6.55 6.75 6.55 6.8 6.7 M6.15 7.0 L6.0 7.05 5.9 6.8 6.25 6.95 6.15 7.0 M6.3 7.35 L6.35 7.2 6.4 7.0 6.65 7.15 6.7 7.2 6.75 7.3 6.5 7.3 6.4 7.3 6.3 7.35 M7.1 8.05 L7.05 8.2 7.0 8.25 6.85 8.15 6.75 8.0 6.95 7.95 Q7.1 7.95 7.15 7.9 L7.1 8.05 M4.95 14.6 L4.9 14.75 Q4.9 14.8 4.95 14.9 L5.0 15.05 5.1 15.2 5.2 15.3 5.25 15.3 5.3 15.35 5.35 15.35 5.4 15.35 5.45 15.4 5.5 15.35 5.5 15.3 5.45 15.25 5.4 15.25 5.35 15.2 5.3 15.15 5.3 15.1 5.25 15.05 5.25 14.85 5.25 14.65 5.35 14.5 5.45 14.35 5.55 14.25 5.65 14.25 5.7 14.35 5.7 14.45 5.7 14.65 5.75 14.75 5.8 14.8 5.85 14.8 6.05 14.9 6.1 14.9 6.1 14.85 6.0 14.7 6.0 14.4 5.9 14.25 5.85 14.25 5.8 14.2 5.75 14.2 5.7 14.15 5.65 14.15 Q5.7 14.1 5.75 14.1 L5.9 14.1 6.0 14.1 6.15 14.15 6.3 14.25 6.35 14.35 6.35 14.65 6.3 14.8 6.3 15.1 6.4 15.25 6.55 15.35 6.65 15.35 6.7 15.3 6.65 15.25 6.6 15.15 6.6 15.05 6.65 14.95 6.65 14.65 6.55 14.45 6.45 14.25 6.25 14.1 Q6.15 14.05 6.0 14.0 L5.7 14.0 5.4 14.05 5.15 14.2 5.05 14.3 5.0 14.45 Q4.95 14.55 4.95 14.6 M4.25 14.85 L4.25 14.65 4.2 14.45 4.15 14.15 4.0 13.95 3.9 13.8 Q3.75 13.95 3.55 14.6 L3.9 14.65 Q4.15 14.7 4.2 14.85 L4.25 14.85 M1.55 13.9 L1.75 13.7 1.9 13.5 Q2.0 13.4 2.35 13.2 L2.35 13.25 2.1 13.8 1.8 14.3 1.65 14.1 1.55 13.9 M0.4 12.6 L0.9 13.15 Q1.2 13.55 1.45 13.65 L1.4 13.9 1.35 14.1 Q1.35 14.25 1.7 14.4 L2.15 14.65 Q2.0 14.7 1.75 15.0 1.45 15.35 1.5 15.55 1.4 15.5 1.35 15.3 L1.25 15.0 1.05 14.75 0.9 14.55 0.95 14.45 0.95 14.3 Q0.95 13.95 0.75 13.4 L0.4 12.6 M3.4 13.25 L3.5 13.65 3.55 14.15 3.7 13.75 3.8 13.25 3.65 13.15 3.4 13.05 3.4 13.25 M3.85 15.0 L4.0 15.3 4.2 15.75 4.25 15.45 4.35 15.15 3.75 14.85 3.8 14.85 3.8 14.9 3.85 15.0 M2.45 14.5 L2.4 14.4 2.5 14.15 2.55 13.9 Q2.8 14.0 2.8 14.0 L3.05 14.05 3.05 14.15 2.95 14.2 2.8 14.35 2.55 14.65 Q2.55 14.5 2.45 14.5 M2.7 13.0 L2.75 13.0 2.95 13.4 2.8 13.55 2.55 13.65 2.7 13.3 2.7 13.0 M1.9 19.45 Q1.9 19.35 2.2 19.05 L2.65 18.7 Q2.8 18.95 3.1 19.2 L3.6 19.65 Q3.3 19.65 2.95 19.8 L2.4 20.15 2.6 20.3 2.7 20.4 2.85 20.2 2.85 20.35 2.7 20.9 3.0 23.0 Q3.05 23.2 3.2 23.3 3.3 23.4 3.5 23.35 L3.8 23.2 Q3.9 23.05 3.85 22.9 L3.55 20.8 Q5.15 20.55 6.6 20.1 L7.3 22.05 Q7.35 22.25 7.5 22.3 L7.85 22.35 Q8.0 22.25 8.1 22.1 8.15 21.95 8.1 21.8 L7.45 19.8 Q8.9 19.25 10.25 18.5 L10.3 18.5 11.35 20.3 Q11.4 20.45 11.6 20.5 L11.9 20.45 Q12.05 20.4 12.1 20.2 12.15 20.05 12.1 19.9 L11.05 18.1 9.95 16.2 7.7 18.45 8.25 17.4 9.75 15.9 8.9 14.45 7.95 15.05 Q6.25 16.05 4.55 16.65 L4.5 16.8 Q4.35 17.35 4.3 17.75 L4.25 18.2 Q4.25 18.15 4.0 18.05 L3.7 17.9 3.65 17.9 3.55 17.9 Q3.1 18.05 2.8 18.15 2.4 18.35 2.2 18.75 2.0 19.0 1.9 19.4 L1.9 19.45 M8.6 12.25 L8.65 12.25 8.7 12.25 8.8 12.2 8.85 12.25 8.95 12.3 9.0 12.4 9.0 12.65 9.0 13.2 8.95 13.25 8.9 13.25 8.85 13.2 8.75 13.2 8.65 13.15 8.6 13.15 Q8.55 13.15 8.55 13.15 L8.5 13.15 8.65 13.4 8.85 13.4 9.05 13.4 9.3 13.4 9.25 13.35 9.2 13.3 9.2 13.1 9.2 12.85 9.2 12.55 9.2 12.45 9.25 12.4 9.3 12.35 9.35 12.3 9.25 12.25 9.2 12.25 8.95 12.15 8.8 12.15 8.65 12.15 Q8.6 12.15 8.55 12.2 L8.5 12.25 8.55 12.25 8.6 12.25 M8.3 12.75 L8.3 12.8 8.4 12.95 8.4 12.8 8.4 12.7 8.35 12.7 8.3 12.75 M12.1 18.15 L12.1 18.2 12.05 18.25 12.0 18.35 11.95 18.4 11.95 18.45 12.0 18.5 12.05 18.45 12.1 18.4 12.15 18.4 12.65 18.35 13.2 18.35 13.45 18.35 13.65 18.35 13.7 18.4 13.75 18.4 13.8 18.45 13.85 18.45 13.85 18.3 13.8 18.2 13.85 18.1 13.85 18.0 13.8 18.0 13.75 18.0 13.7 18.0 13.65 18.05 13.2 18.1 12.7 18.1 12.6 18.1 12.45 18.1 12.35 18.1 12.25 18.05 12.2 18.0 12.15 18.05 12.1 18.15 M15.75 15.35 L15.65 15.4 15.5 15.45 15.4 15.55 Q15.35 15.6 15.35 15.65 15.35 15.75 15.4 15.75 L15.45 15.75 15.55 15.65 15.65 15.6 15.75 15.45 15.8 15.4 15.75 15.35 M10.0 15.65 L15.0 10.7 13.75 9.65 Q11.95 12.3 9.15 14.25 L10.0 15.65 M10.45 20.05 L10.45 20.0 10.4 20.0 Q10.35 20.0 10.35 20.0 L10.3 20.05 10.25 20.05 9.6 20.1 8.9 20.05 8.85 20.0 8.8 20.0 8.75 20.05 8.7 20.1 8.65 20.2 8.65 20.25 8.6 20.3 8.55 20.4 8.55 20.45 8.65 20.45 8.65 20.4 8.7 20.4 9.1 20.35 9.45 20.35 9.5 20.4 9.4 20.5 9.35 20.6 9.3 20.65 9.25 20.7 9.25 20.75 9.2 20.8 9.2 20.9 9.25 20.9 9.3 20.9 9.45 20.9 9.55 20.95 9.6 20.9 9.65 20.85 9.7 20.8 Q9.75 20.8 9.75 20.85 L9.85 20.9 9.95 20.9 10.05 20.95 10.15 20.95 10.2 21.05 10.25 21.1 10.25 21.15 10.3 21.15 10.35 21.1 10.4 21.0 10.45 20.95 10.45 20.9 10.4 20.8 10.3 20.7 10.15 20.7 10.05 20.65 Q9.75 20.55 9.95 20.35 10.0 20.35 10.05 20.35 L10.1 20.3 10.2 20.35 10.3 20.35 10.35 20.4 10.4 20.4 10.45 20.4 10.45 20.3 10.4 20.25 10.4 20.15 10.4 20.1 10.45 20.05 M9.8 20.4 L9.8 20.5 9.7 20.6 9.65 20.65 9.55 20.7 Q9.5 20.7 9.45 20.65 L9.45 20.6 9.5 20.55 9.55 20.45 9.55 20.4 9.6 20.35 9.65 20.35 9.7 20.35 9.75 20.35 9.8 20.35 9.8 20.4 M4.95 21.1 L4.9 21.15 4.8 21.15 4.75 21.15 4.7 21.15 4.6 21.15 4.6 21.2 4.65 21.2 4.65 21.25 4.7 21.3 4.75 21.55 4.75 21.8 4.7 21.8 4.7 21.75 4.65 21.75 4.6 21.75 Q4.6 21.75 4.6 21.8 L4.65 21.85 4.7 21.9 4.75 21.95 4.75 22.15 4.8 22.35 4.75 22.55 4.65 22.65 4.6 22.65 4.65 22.75 4.75 22.85 4.85 22.9 4.9 22.9 5.0 22.85 5.0 22.8 5.05 22.75 5.05 22.65 5.1 22.65 5.2 22.7 5.25 22.8 5.45 22.9 5.6 22.85 5.7 22.7 5.8 22.55 5.85 22.4 5.85 22.25 5.8 22.05 5.75 21.9 5.65 21.8 5.55 21.7 5.3 21.6 5.2 21.6 5.1 21.65 5.05 21.7 5.0 21.6 5.0 21.35 5.0 21.25 5.05 21.2 5.05 21.1 5.0 21.1 Q4.95 21.1 4.95 21.1 M5.05 22.0 L5.1 21.95 5.2 21.85 5.3 21.8 5.35 21.75 5.45 21.75 Q5.55 21.8 5.6 21.9 L5.65 22.05 5.6 22.25 5.55 22.4 5.4 22.55 5.25 22.6 Q5.15 22.6 5.1 22.5 L5.05 22.4 5.0 22.25 5.05 22.1 5.05 22.0 M1.7 20.95 L1.7 21.0 1.8 21.0 1.7 20.95 M1.95 20.05 L1.6 20.35 1.45 20.5 1.65 20.65 Q1.8 20.75 1.95 20.85 L1.9 20.75 Q1.8 20.6 1.8 20.45 1.8 20.35 1.85 20.25 L1.95 20.05 M0.0 22.2 L0.0 22.1 -0.05 21.9 -0.1 21.7 -0.25 21.55 -0.3 21.45 -0.3 21.55 Q-0.25 22.8 -0.15 23.15 L-0.15 23.25 -0.1 23.25 -0.05 23.25 -0.05 23.3 0.0 23.3 0.05 23.3 0.05 23.25 0.0 23.2 0.0 23.15 -0.05 22.75 0.0 22.4 0.0 22.4 0.05 22.4 0.05 22.45 0.1 22.4 0.1 22.35 0.05 22.25 0.0 22.2 M1.95 22.15 L1.8 22.2 1.65 22.2 1.5 22.15 1.45 22.5 1.55 22.45 1.75 22.45 1.8 22.45 1.85 22.4 1.95 22.4 2.0 22.4 2.0 22.15 1.95 22.15 M1.15 23.3 L1.2 23.3 1.25 23.25 1.05 23.3 1.1 23.3 1.15 23.3 M1.4 23.2 L1.25 23.25 1.65 23.2 2.05 23.25 2.1 23.25 2.1 23.35 2.1 23.4 2.15 23.45 2.15 23.4 2.25 23.35 2.3 23.3 2.35 23.2 2.35 23.1 2.25 23.05 2.2 23.0 2.15 22.95 Q2.1 22.9 2.15 22.85 L2.2 22.8 2.1 22.8 2.05 22.8 2.05 22.85 2.0 22.9 1.8 22.95 1.65 22.95 1.5 23.1 1.4 23.2 M-10.35 -21.1 L-10.4 -21.0 -10.45 -20.95 -10.45 -20.9 -10.4 -20.8 -10.3 -20.7 -10.15 -20.7 -10.05 -20.65 Q-9.75 -20.55 -9.95 -20.35 -10.0 -20.35 -10.05 -20.35 L-10.1 -20.3 -10.2 -20.35 -10.3 -20.35 -10.3 -20.35 -10.35 -20.4 -10.4 -20.4 -10.45 -20.4 -10.45 -20.3 -10.4 -20.25 -10.4 -20.15 -10.4 -20.1 -10.45 -20.05 -10.45 -20.0 Q-10.4 -20.0 -10.4 -20.0 -10.35 -20.0 -10.35 -20.0 L-10.3 -20.05 -10.25 -20.05 -9.6 -20.1 -8.9 -20.05 -8.9 -20.05 -8.85 -20.0 -8.85 -20.0 -8.8 -20.0 -8.75 -20.05 -8.7 -20.1 -8.65 -20.2 -8.65 -20.25 -8.6 -20.3 -8.55 -20.4 -8.55 -20.45 -8.65 -20.45 -8.65 -20.4 -8.7 -20.4 -8.7 -20.4 -9.1 -20.35 -9.45 -20.35 -9.5 -20.4 -9.4 -20.5 -9.35 -20.6 -9.3 -20.65 -9.25 -20.7 -9.25 -20.75 -9.2 -20.8 -9.2 -20.9 -9.25 -20.9 -9.25 -20.9 -9.3 -20.9 -9.3 -20.9 -9.45 -20.9 -9.55 -20.95 -9.6 -20.9 -9.65 -20.85 -9.7 -20.8 -9.7 -20.8 Q-9.75 -20.8 -9.75 -20.85 L-9.85 -20.9 -9.95 -20.9 -10.05 -20.95 -10.15 -20.95 -10.2 -21.05 -10.25 -21.1 -10.25 -21.15 -10.3 -21.15 -10.3 -21.15 -10.35 -21.1 M-12.1 -20.2 Q-12.15 -20.05 -12.1 -19.9 L-11.05 -18.1 -11.05 -18.05 Q-12.35 -17.2 -13.55 -16.2 L-14.95 -17.85 Q-15.05 -17.95 -15.25 -17.95 -15.45 -18.0 -15.55 -17.85 -15.7 -17.75 -15.7 -17.6 -15.7 -17.4 -15.6 -17.25 L-14.2 -15.65 -15.35 -14.55 -11.55 -11.55 Q-9.7 -13.6 -7.15 -15.1 -5.65 -16.0 -4.1 -16.6 L-4.05 -16.8 Q-3.8 -17.8 -3.8 -18.2 L-3.25 -17.9 -3.1 -17.85 -2.9 -17.9 Q-2.4 -18.05 -2.15 -18.2 -1.75 -18.35 -1.5 -18.75 -1.35 -19.0 -1.2 -19.4 L-1.2 -19.45 Q-1.25 -19.35 -1.55 -19.05 L-2.0 -18.7 Q-2.1 -18.95 -2.4 -19.2 L-2.9 -19.65 -2.9 -19.65 Q-2.6 -19.65 -2.25 -19.85 -2.2 -19.85 -1.7 -20.15 L-1.95 -20.3 -2.0 -20.35 -2.1 -20.2 -2.1 -20.4 -1.9 -21.0 -2.7 -20.9 -3.0 -23.0 Q-3.05 -23.2 -3.2 -23.3 -3.3 -23.4 -3.5 -23.35 L-3.8 -23.2 Q-3.9 -23.05 -3.85 -22.9 L-3.55 -20.8 Q-5.15 -20.55 -6.6 -20.1 L-7.3 -22.05 Q-7.35 -22.25 -7.5 -22.3 L-7.85 -22.35 Q-8.0 -22.25 -8.1 -22.1 -8.15 -21.95 -8.1 -21.8 L-7.45 -19.8 Q-8.9 -19.25 -10.25 -18.5 L-10.3 -18.5 -11.35 -20.3 Q-11.4 -20.45 -11.6 -20.5 L-11.9 -20.45 Q-12.05 -20.4 -12.1 -20.2 M-9.5 -20.55 L-9.55 -20.45 -9.55 -20.4 -9.6 -20.35 -9.65 -20.35 -9.7 -20.35 -9.75 -20.35 -9.8 -20.35 -9.8 -20.5 -9.7 -20.6 -9.65 -20.65 -9.55 -20.7 Q-9.5 -20.7 -9.45 -20.65 L-9.45 -20.6 -9.5 -20.55 M-5.8 -22.55 L-5.85 -22.4 -5.85 -22.25 -5.8 -22.05 -5.75 -21.9 -5.65 -21.8 -5.55 -21.7 -5.3 -21.6 -5.2 -21.6 -5.1 -21.65 -5.05 -21.7 -5.0 -21.6 -5.0 -21.35 -5.0 -21.25 -5.05 -21.2 -5.05 -21.15 -5.05 -21.1 -5.0 -21.1 Q-4.95 -21.1 -4.95 -21.1 L-4.9 -21.15 -4.8 -21.15 -4.75 -21.15 -4.7 -21.15 -4.6 -21.15 -4.6 -21.2 -4.65 -21.2 -4.65 -21.25 -4.7 -21.3 -4.75 -21.55 -4.75 -21.8 -4.7 -21.8 -4.7 -21.75 -4.65 -21.75 -4.6 -21.75 Q-4.6 -21.75 -4.6 -21.8 L-4.65 -21.85 -4.7 -21.9 -4.75 -21.95 -4.75 -22.15 -4.8 -22.35 -4.75 -22.55 -4.65 -22.65 -4.65 -22.65 -4.6 -22.65 -4.65 -22.75 -4.75 -22.85 -4.85 -22.9 -4.9 -22.9 -5.0 -22.85 -5.0 -22.8 -5.05 -22.75 -5.05 -22.65 -5.1 -22.65 -5.1 -22.65 -5.2 -22.7 -5.25 -22.8 -5.45 -22.9 -5.6 -22.85 -5.7 -22.7 -5.8 -22.55 M-5.4 -22.55 L-5.25 -22.6 Q-5.15 -22.6 -5.1 -22.5 L-5.05 -22.4 -5.0 -22.25 -5.05 -22.1 -5.05 -22.0 -5.1 -21.95 -5.2 -21.85 -5.3 -21.8 -5.35 -21.75 -5.45 -21.75 Q-5.55 -21.8 -5.6 -21.9 L-5.65 -22.05 -5.6 -22.25 -5.55 -22.4 -5.4 -22.55 M-1.15 -23.3 L-1.2 -23.3 -1.25 -23.25 -1.65 -23.2 -2.05 -23.25 -2.1 -23.25 -2.1 -23.35 -2.1 -23.4 -2.15 -23.45 -2.15 -23.4 -2.25 -23.35 -2.3 -23.3 -2.35 -23.2 -2.35 -23.15 -2.35 -23.1 -2.25 -23.05 -2.2 -23.0 -2.15 -22.95 Q-2.1 -22.9 -2.15 -22.85 L-2.25 -22.7 -2.35 -22.6 -2.35 -22.5 -2.25 -22.35 -2.2 -22.25 -2.1 -22.2 -2.05 -22.15 -1.95 -22.15 -1.8 -22.2 -1.7 -22.2 -1.65 -22.45 -1.75 -22.45 -1.95 -22.5 -2.05 -22.55 -2.1 -22.65 -2.1 -22.7 -2.05 -22.8 -2.05 -22.85 -2.0 -22.9 -1.8 -22.95 -1.6 -22.95 -1.35 -22.95 -1.15 -22.9 -1.1 -22.9 -1.1 -22.9 -1.05 -22.9 -1.05 -23.0 -1.1 -23.1 -1.1 -23.15 -1.05 -23.25 -1.05 -23.3 -1.1 -23.3 -1.15 -23.3 M-0.95 -20.95 L-0.95 -21.05 -1.1 -21.05 -0.95 -20.95 M-1.4 -20.9 L-1.25 -20.8 Q-1.1 -20.6 -1.1 -20.5 L-1.2 -20.25 -1.3 -20.05 -1.3 -20.05 -0.95 -20.35 -0.75 -20.55 -1.4 -20.9 M-1.2 -22.4 L-1.25 -22.4 -1.25 -22.05 -1.2 -22.05 -1.15 -22.15 -1.15 -22.2 -1.1 -22.3 -1.05 -22.35 -1.05 -22.4 -1.1 -22.45 -1.1 -22.45 -1.2 -22.4 M-17.45 -15.65 L-17.55 -15.5 -17.6 -15.25 -17.6 -15.25 -17.65 -15.2 -17.6 -15.2 -17.6 -15.2 -17.55 -15.15 -17.55 -15.15 -17.5 -15.15 -17.5 -15.3 -17.45 -15.35 -17.4 -15.4 -17.3 -15.45 -17.1 -15.35 -16.9 -15.35 -17.35 -15.65 -17.45 -15.65 M-16.4 -15.4 L-16.2 -15.35 Q-16.15 -15.35 -16.1 -15.3 L-16.1 -15.2 -16.05 -15.15 -16.0 -15.2 -15.95 -15.3 -15.95 -15.35 Q-15.85 -15.45 -15.85 -15.55 -15.85 -15.65 -16.0 -15.65 L-16.25 -15.7 -16.5 -15.65 -16.75 -15.65 -16.4 -15.4 M-20.3 -12.25 L-19.95 -12.35 -19.4 -12.25 -19.25 -12.15 Q-19.25 -12.1 -19.3 -12.0 L-19.35 -11.95 -19.35 -11.9 -19.35 -11.9 -19.4 -11.85 -19.5 -11.8 -19.6 -11.85 -19.65 -11.85 -19.8 -11.8 -19.95 -11.8 -20.2 -11.9 -20.2 -11.9 -20.25 -11.9 -20.25 -11.7 -20.25 -11.5 -20.25 -11.45 -20.2 -11.45 -20.15 -11.5 -20.1 -11.5 -20.05 -11.55 -19.45 -11.55 -18.9 -11.55 -18.85 -11.55 -18.75 -11.55 -18.7 -11.55 -18.65 -11.55 -18.6 -11.45 Q-18.55 -11.45 -18.55 -11.5 L-18.5 -11.55 -18.5 -11.65 -18.45 -11.7 -18.45 -11.75 -18.4 -11.8 -18.35 -11.9 -18.35 -11.95 -18.4 -11.95 -18.45 -11.9 -18.45 -11.9 -18.5 -11.85 -18.55 -11.85 -18.9 -11.8 -19.25 -11.85 -19.25 -11.9 -19.25 -11.9 -19.15 -12.05 -19.05 -12.2 -19.05 -12.2 -19.0 -12.25 -19.0 -12.3 -18.95 -12.3 -19.0 -12.35 -19.25 -12.55 -19.55 -12.65 -20.0 -12.6 -20.35 -12.4 -20.6 -12.05 Q-20.7 -11.85 -20.75 -11.65 L-20.75 -11.6 -20.7 -11.6 -20.65 -11.6 -20.55 -11.85 -20.45 -12.05 -20.3 -12.25 M-21.0 -10.7 Q-21.15 -10.6 -21.25 -10.45 -21.3 -10.3 -21.25 -10.15 -21.2 -9.95 -21.05 -9.9 L-19.2 -9.0 Q-19.8 -7.55 -20.25 -6.05 L-22.25 -6.55 -22.6 -6.55 Q-22.75 -6.45 -22.8 -6.25 -22.85 -6.1 -22.75 -5.95 -22.7 -5.8 -22.5 -5.75 L-20.45 -5.2 Q-20.75 -3.85 -20.9 -2.4 L-20.15 -2.6 -19.95 -2.6 -20.2 -2.45 -20.1 -2.4 -19.9 -2.15 -19.6 -2.7 Q-19.45 -3.05 -19.45 -3.4 L-19.4 -3.4 -18.95 -2.85 Q-18.7 -2.55 -18.45 -2.45 L-18.85 -2.0 Q-19.1 -1.7 -19.2 -1.65 L-19.2 -1.65 Q-18.75 -1.8 -18.5 -1.95 -18.1 -2.2 -17.95 -2.6 -17.8 -2.9 -17.7 -3.35 L-17.65 -3.45 -17.7 -3.5 -17.85 -3.8 -17.95 -4.05 -17.5 -4.1 -16.55 -4.3 -15.45 -4.5 Q-14.3 -8.4 -11.8 -11.3 L-15.6 -14.3 -16.6 -13.1 -18.3 -14.35 Q-18.45 -14.45 -18.6 -14.45 -18.8 -14.4 -18.9 -14.3 -19.0 -14.15 -19.0 -13.95 -18.95 -13.8 -18.8 -13.7 L-17.15 -12.45 Q-18.1 -11.15 -18.8 -9.75 L-20.65 -10.65 -21.0 -10.7 M-21.6 -8.2 L-21.8 -8.05 -22.0 -7.85 -22.1 -7.6 -22.15 -7.35 -22.1 -7.25 -22.1 -7.2 -21.95 -7.0 -21.85 -7.0 Q-21.8 -7.0 -21.75 -7.1 L-21.65 -7.2 -21.65 -7.25 Q-21.8 -7.3 -21.85 -7.35 L-21.9 -7.55 -21.9 -7.75 Q-21.8 -7.85 -21.7 -7.9 L-21.6 -7.95 -21.5 -7.9 -21.4 -7.9 -21.35 -7.85 -21.3 -7.85 -21.35 -7.85 -21.45 -7.75 -21.55 -7.6 -21.6 -7.4 -21.6 -7.25 -21.5 -7.1 -21.25 -6.95 -21.15 -6.95 -21.05 -6.95 -20.95 -6.95 -20.85 -7.0 -20.75 -7.05 -20.65 -7.15 -20.55 -7.25 -20.5 -7.35 -20.4 -7.45 Q-20.35 -7.55 -20.35 -7.6 L-20.35 -7.8 -20.4 -7.95 -20.35 -8.1 Q-20.3 -8.15 -20.35 -8.15 L-20.55 -8.1 -20.65 -8.05 -20.8 -8.05 -21.15 -8.15 -21.4 -8.2 -21.6 -8.2 M-21.3 -7.75 L-21.05 -7.75 -20.9 -7.8 -20.8 -7.85 -20.7 -7.9 -20.6 -7.95 -20.55 -7.95 -20.6 -7.95 -20.6 -7.85 -20.65 -7.8 -20.65 -7.65 -20.6 -7.55 Q-20.55 -7.4 -20.6 -7.35 -20.65 -7.3 -20.75 -7.25 L-20.9 -7.25 -21.1 -7.25 Q-21.2 -7.3 -21.25 -7.35 -21.35 -7.4 -21.35 -7.55 -21.35 -7.65 -21.3 -7.75 M-21.15 -4.4 L-21.2 -4.3 -21.3 -4.3 -21.35 -4.3 -21.45 -4.3 -22.1 -4.25 -22.75 -4.3 -22.8 -4.3 -22.9 -4.35 -22.95 -4.35 -22.95 -4.35 -23.0 -4.3 -22.95 -4.25 -22.95 -4.1 -22.95 -4.05 -23.0 -4.0 -22.95 -4.0 -22.9 -3.95 -22.8 -4.0 -22.8 -3.95 -22.85 -3.9 -22.9 -3.8 -22.95 -3.7 -22.95 -3.6 -22.9 -3.4 -22.75 -3.25 -22.5 -3.15 -22.25 -3.15 Q-22.15 -3.15 -22.05 -3.25 -21.95 -3.3 -21.9 -3.4 L-21.75 -3.65 Q-21.7 -3.75 -21.7 -3.8 L-21.7 -3.85 -21.75 -3.9 -21.75 -4.0 -21.55 -4.0 -21.35 -4.0 -21.35 -3.95 -21.3 -3.9 -21.3 -3.9 -21.25 -3.9 -21.25 -3.95 -21.2 -4.05 -21.2 -4.1 -21.15 -4.15 -21.1 -4.2 -21.1 -4.3 -21.1 -4.4 -21.15 -4.4 M-22.1 -4.0 L-21.95 -3.9 -21.95 -3.55 -22.0 -3.45 -22.0 -3.45 -22.0 -3.45 -22.05 -3.4 -22.05 -3.4 -22.3 -3.35 -22.5 -3.45 -22.55 -3.5 -22.65 -3.55 -22.65 -3.65 -22.7 -3.75 -22.7 -3.85 -22.6 -4.0 -22.5 -4.0 -22.35 -4.0 -22.2 -4.0 -22.1 -4.0 M-22.4 -1.35 L-21.75 -1.3 -20.7 -1.45 -20.8 -1.65 Q-20.9 -1.9 -20.95 -1.9 L-21.1 -1.85 -21.35 -1.8 -21.85 -1.75 -22.15 -1.75 -22.15 -1.7 -22.2 -1.65 -22.35 -1.4 -22.4 -1.35 M-22.5 -2.2 L-23.1 -2.25 Q-23.25 -2.25 -23.4 -2.15 -23.5 -2.0 -23.55 -1.85 -23.55 -1.65 -23.45 -1.55 -23.3 -1.4 -23.15 -1.4 L-22.75 -1.35 -22.75 -1.4 Q-22.65 -1.55 -22.6 -1.85 L-22.45 -2.2 -22.5 -2.2 M-23.25 -0.35 L-23.3 -0.3 -23.25 -0.25 -23.25 -0.1 -23.25 -0.05 -23.3 -0.05 -23.3 0.05 -23.25 0.05 -23.25 0.05 -23.2 0.0 -23.15 0.0 -22.75 -0.05 -22.4 0.0 -22.4 0.0 -22.4 0.05 -22.45 0.05 -22.45 0.05 -22.4 0.1 -22.35 0.1 -22.25 0.05 -22.2 0.0 -22.1 0.0 -21.9 -0.05 -21.7 -0.1 Q-21.6 -0.15 -21.55 -0.25 -21.45 -0.3 -21.4 -0.45 L-21.4 -0.7 -21.45 -0.75 -21.6 -0.7 -21.65 -0.65 -21.7 -0.65 -21.75 -0.6 -21.7 -0.6 -21.65 -0.55 -21.6 -0.45 -21.65 -0.35 -21.8 -0.3 -21.85 -0.3 -21.95 -0.3 -22.0 -0.3 -22.1 -0.3 -22.1 -0.45 -22.1 -0.55 -22.05 -0.6 -22.05 -0.65 -22.0 -0.7 -22.0 -0.75 -22.1 -0.7 -22.2 -0.7 -22.3 -0.6 -22.35 -0.55 -22.4 -0.45 -22.4 -0.35 -22.45 -0.3 -22.6 -0.3 -22.7 -0.3 -22.9 -0.3 -23.1 -0.3 -23.2 -0.35 -23.25 -0.4 -23.25 -0.35 M-20.6 -1.75 L-20.4 -1.45 -20.25 -1.25 -20.1 -1.4 -19.8 -1.75 -19.85 -1.75 -20.0 -1.65 -20.25 -1.55 Q-20.35 -1.55 -20.55 -1.7 L-20.6 -1.75 M-21.0 -0.75 L-20.95 -0.85 -20.95 -0.85 -21.0 -0.85 -21.0 -0.75 M-5.8 -15.4 L-5.9 -15.4 -5.9 -15.35 -5.8 -15.25 -5.8 -15.15 -5.85 -15.0 -5.9 -14.9 -5.9 -14.7 -5.8 -14.5 -5.65 -14.35 -5.5 -14.2 Q-5.4 -14.1 -5.25 -14.05 L-4.95 -14.05 -4.65 -14.15 Q-4.5 -14.2 -4.4 -14.25 L-4.3 -14.4 -4.2 -14.55 -4.15 -14.65 -4.25 -15.15 -4.35 -15.25 -4.45 -15.35 -4.45 -15.35 -4.5 -15.4 -4.55 -15.4 -4.6 -15.45 -4.6 -15.45 -4.65 -15.45 -4.7 -15.45 -4.75 -15.4 -4.7 -15.35 -4.65 -15.35 -4.6 -15.3 -4.6 -15.3 -4.55 -15.25 -4.55 -15.25 -4.5 -15.2 -4.5 -15.1 -4.45 -15.0 -4.45 -14.85 -4.5 -14.75 -4.6 -14.55 -4.65 -14.4 -4.75 -14.3 Q-4.8 -14.3 -4.85 -14.3 L-4.95 -14.4 -4.95 -14.6 -4.9 -14.7 -4.95 -14.8 -5.0 -14.85 -5.1 -14.9 -5.2 -14.9 -5.25 -14.95 -5.3 -14.95 -5.3 -14.9 -5.25 -14.75 -5.25 -14.45 -5.15 -14.35 -5.1 -14.3 -5.1 -14.3 -5.05 -14.3 -4.95 -14.25 -4.9 -14.25 -4.9 -14.2 -5.0 -14.15 -5.1 -14.15 -5.25 -14.2 Q-5.35 -14.2 -5.4 -14.25 L-5.5 -14.3 -5.55 -14.4 -5.55 -14.4 -5.6 -14.6 -5.6 -14.75 -5.55 -14.9 -5.5 -15.05 -5.55 -15.2 -5.65 -15.35 -5.8 -15.4 M-1.3 -15.0 Q-1.0 -15.35 -1.05 -15.55 -0.95 -15.5 -0.9 -15.3 L-0.8 -15.05 -0.6 -14.75 -0.45 -14.55 -0.5 -14.45 -0.5 -14.3 Q-0.5 -13.95 -0.25 -13.4 L0.05 -12.6 -0.4 -13.15 Q-0.75 -13.55 -1.0 -13.65 L-0.9 -13.9 -0.9 -14.1 Q-0.9 -14.25 -1.25 -14.45 L-1.7 -14.65 Q-1.5 -14.7 -1.3 -15.0 M-3.1 -15.7 L-3.1 -16.0 -3.05 -16.0 Q-3.0 -15.95 -2.75 -15.9 L-2.45 -15.8 -2.75 -15.65 -3.05 -15.4 Q-3.05 -15.5 -3.1 -15.7 M-7.5 -13.3 L-7.45 -13.4 Q-7.4 -13.5 -7.5 -13.5 L-7.55 -13.5 -7.6 -13.5 -7.6 -13.5 -7.65 -13.5 -7.85 -13.45 -8.1 -13.45 -8.3 -13.5 -8.5 -13.5 -8.55 -13.5 -8.5 -13.45 -8.5 -13.4 -8.45 -13.4 -8.45 -13.15 -8.45 -12.9 -8.45 -12.6 -8.45 -12.55 -8.5 -12.5 -8.5 -12.45 -8.6 -12.4 -8.55 -12.35 -8.5 -12.3 -8.4 -12.3 -8.35 -12.3 -8.05 -12.2 -7.9 -12.2 Q-7.8 -12.2 -7.75 -12.3 L-7.75 -12.35 -7.8 -12.35 -7.8 -12.35 -7.85 -12.3 -7.95 -12.3 -8.0 -12.3 -8.05 -12.3 -8.15 -12.4 -8.2 -12.5 -8.2 -12.7 -8.2 -13.3 -8.2 -13.3 -8.15 -13.3 -8.05 -13.3 -7.95 -13.25 -7.9 -13.2 -7.8 -13.2 -7.75 -13.2 -7.7 -13.25 -7.7 -13.3 -7.65 -13.3 -7.65 -13.3 -7.65 -13.25 -7.65 -13.2 -7.65 -13.1 -7.6 -13.05 -7.6 -12.85 -7.65 -12.85 -7.65 -12.8 -7.65 -12.8 -7.6 -12.8 -7.55 -12.85 -7.5 -12.9 -7.5 -13.05 -7.5 -13.3 M-2.5 -13.4 L-2.3 -13.55 -2.1 -13.65 -2.2 -13.3 -2.25 -13.0 -2.3 -13.0 -2.5 -13.4 M-1.45 -12.4 L-1.45 -12.55 Q-1.35 -12.6 -1.2 -12.9 -1.05 -13.2 -1.0 -13.3 -0.95 -13.05 -0.85 -12.8 L-0.7 -12.45 -0.3 -11.95 -0.05 -11.65 -0.15 -11.25 -0.15 -10.8 -0.25 -9.65 -0.25 -9.35 Q-0.3 -9.7 -0.45 -10.1 -0.7 -10.85 -1.0 -11.0 L-0.75 -11.2 Q-0.7 -11.25 -0.7 -11.4 -0.7 -11.6 -0.95 -12.0 -1.25 -12.4 -1.45 -12.4 M-1.65 -13.8 L-1.3 -14.3 -1.2 -14.1 -1.05 -13.9 -1.25 -13.7 -1.45 -13.5 Q-1.55 -13.4 -1.9 -13.2 L-1.9 -13.25 -1.65 -13.8 M-1.95 -14.4 L-2.0 -14.15 Q-2.1 -14.0 -2.05 -13.9 L-2.6 -14.05 -2.6 -14.15 -2.45 -14.2 -2.3 -14.35 -2.05 -14.65 -2.0 -14.5 -1.95 -14.4 M-12.0 -18.35 L-11.95 -18.4 -11.95 -18.45 -12.0 -18.5 -12.05 -18.45 -12.1 -18.4 Q-12.1 -18.4 -12.15 -18.4 L-12.65 -18.35 -13.2 -18.35 -13.45 -18.35 -13.65 -18.35 Q-13.7 -18.35 -13.7 -18.4 L-13.75 -18.4 -13.8 -18.45 -13.85 -18.45 -13.85 -18.3 -13.8 -18.2 -13.85 -18.1 -13.85 -18.0 -13.8 -18.0 -13.75 -18.0 -13.7 -18.0 -13.65 -18.05 -13.2 -18.1 -12.7 -18.1 -12.6 -18.1 -12.45 -18.1 -12.35 -18.1 -12.25 -18.05 -12.2 -18.0 -12.15 -18.05 -12.1 -18.15 -12.1 -18.2 -12.05 -18.25 -12.0 -18.35 M-15.55 -15.65 L-15.65 -15.6 -15.75 -15.45 -15.8 -15.4 -15.75 -15.35 -15.65 -15.4 -15.5 -15.45 -15.4 -15.55 Q-15.35 -15.6 -15.35 -15.65 -15.35 -15.75 -15.4 -15.75 L-15.45 -15.75 -15.55 -15.65 M-11.2 -10.65 L-11.2 -10.4 -11.05 -10.25 -10.95 -10.15 -10.85 -10.1 -10.8 -10.05 -10.55 -9.9 -10.35 -9.8 -10.3 -9.75 -10.3 -9.75 -10.3 -9.8 -10.3 -9.85 -10.25 -9.85 -10.25 -9.85 -10.2 -9.9 -10.15 -10.05 -10.35 -10.2 -10.35 -10.2 -10.4 -10.05 Q-10.4 -10.0 -10.45 -9.95 -10.5 -9.95 -10.5 -9.95 L-10.7 -10.15 -10.85 -10.45 -10.9 -10.5 -10.9 -10.6 -10.95 -10.65 -11.1 -10.8 -11.1 -10.8 -11.15 -10.7 -11.2 -10.65 M-11.15 -10.05 L-11.15 -10.1 -11.15 -10.15 -11.15 -10.15 -11.2 -10.15 -11.25 -10.1 -11.25 -10.0 -11.2 -9.95 -11.15 -9.9 -11.15 -9.85 -11.1 -9.8 Q-11.05 -9.8 -11.0 -9.75 L-11.0 -9.75 -10.95 -9.75 -10.9 -9.75 -10.8 -9.8 -10.75 -9.85 -10.65 -9.85 -10.65 -9.85 -10.6 -9.85 -10.6 -9.85 -10.6 -9.85 -10.65 -9.9 -10.7 -9.95 -10.8 -10.0 -10.85 -10.0 -10.95 -9.95 -11.05 -9.9 -11.1 -9.9 -11.15 -10.0 -11.15 -10.05 M-10.2 -11.05 L-10.25 -11.0 -10.25 -10.9 -10.3 -10.8 -10.3 -10.65 -10.3 -10.6 -10.1 -10.4 -10.1 -10.6 -10.05 -10.8 -10.05 -10.85 -10.0 -10.85 -9.95 -10.85 -9.95 -10.95 -10.0 -11.0 -10.1 -11.05 -10.15 -11.1 -10.2 -11.05 M-10.85 -10.55 L-10.8 -10.5 -10.75 -10.45 -10.75 -10.45 -10.7 -10.4 -10.65 -10.4 -10.6 -10.4 -10.9 -10.65 -10.9 -10.6 -10.85 -10.55 M-9.25 -10.0 L-9.35 -9.85 -8.8 -9.4 -8.75 -9.4 -8.75 -9.55 Q-8.7 -9.7 -8.7 -9.7 L-8.95 -9.8 -9.2 -9.95 -9.25 -10.0 M-8.6 -9.6 L-8.65 -9.3 -8.5 -9.2 -8.2 -9.25 -8.25 -9.25 -8.35 -9.25 Q-8.45 -9.25 -8.5 -9.3 L-8.6 -9.5 -8.6 -9.6 M-10.1 -8.2 L-10.05 -8.1 -10.0 -8.0 Q-9.95 -8.0 -9.8 -8.1 -9.75 -8.15 -9.7 -8.15 L-10.4 -8.85 -10.45 -8.95 -10.45 -8.75 Q-10.45 -8.65 -10.45 -8.6 L-10.5 -8.55 -10.5 -8.55 -10.35 -8.4 -10.1 -8.2 M-9.4 -8.1 L-9.55 -8.05 -9.75 -7.95 -9.7 -8.0 -9.5 -7.95 -9.45 -7.8 -9.4 -7.7 -9.35 -7.7 -9.4 -8.0 -9.4 -8.1 M-12.15 -7.85 L-12.15 -7.9 -12.2 -7.95 -12.2 -8.0 -12.25 -8.05 -12.25 -8.05 -12.3 -8.05 -12.3 -8.0 -12.35 -8.0 Q-12.4 -7.95 -12.45 -7.95 L-12.55 -8.05 -12.6 -8.15 -12.6 -8.35 -12.55 -8.45 -12.55 -8.5 -12.55 -8.55 -12.55 -8.55 -12.6 -8.55 -12.65 -8.55 -12.65 -8.55 -12.75 -8.55 -12.8 -8.55 -12.85 -8.55 -12.85 -8.5 -12.8 -8.5 -12.8 -8.45 -12.8 -8.2 -12.75 -7.95 -12.8 -7.75 -12.8 -7.5 -12.85 -7.45 -12.95 -7.45 -13.0 -7.4 -13.05 -7.35 -13.0 -7.35 -12.95 -7.35 -12.95 -7.35 -12.9 -7.35 -12.85 -7.35 -12.8 -7.4 -12.75 -7.4 -12.7 -7.4 -12.45 -7.3 -12.3 -7.3 Q-12.25 -7.3 -12.2 -7.3 L-12.2 -7.3 -12.15 -7.35 -12.1 -7.35 -12.05 -7.3 -12.05 -7.35 -12.1 -7.45 -12.15 -7.55 -12.2 -7.6 -12.2 -7.6 -12.25 -7.6 -12.2 -7.55 -12.25 -7.55 -12.3 -7.5 -12.35 -7.45 -12.4 -7.45 -12.45 -7.4 -12.55 -7.45 -12.55 -7.45 -12.6 -7.6 -12.6 -7.8 -12.6 -7.95 -12.6 -7.95 -12.55 -7.95 -12.55 -7.9 -12.5 -7.9 -12.45 -7.85 -12.4 -7.85 -12.3 -7.8 -12.15 -7.8 -12.15 -7.85 M-8.15 -5.1 L-8.15 -5.1 -8.05 -4.95 -7.9 -4.85 -7.55 -5.0 -7.55 -5.0 -7.6 -5.0 -7.6 -5.0 -7.65 -5.0 -8.15 -5.1 M-14.35 -5.0 L-14.4 -5.0 -14.45 -5.0 -14.45 -4.95 -14.4 -4.9 -14.4 -4.85 -14.35 -4.8 -14.3 -4.75 -14.25 -4.75 -14.25 -4.8 -14.2 -4.8 -14.2 -4.8 -14.15 -4.8 -14.15 -4.85 -14.15 -4.85 -14.1 -4.85 -14.1 -4.9 -14.05 -4.9 -14.0 -5.05 -13.95 -5.15 -13.85 -5.3 -13.75 -5.35 -13.7 -5.3 -13.65 -5.3 -13.65 -5.25 -13.65 -5.0 -13.75 -4.8 -13.8 -4.75 -13.8 -4.7 -13.85 -4.65 -13.8 -4.65 -13.7 -4.65 -13.55 -4.6 -13.55 -4.6 -13.5 -4.65 -13.55 -4.65 -13.55 -4.7 -13.45 -5.05 -13.4 -5.4 -13.35 -5.5 -13.35 -5.6 -13.25 -5.65 -13.15 -5.65 -13.1 -5.65 -13.05 -5.65 -13.05 -5.75 -13.1 -5.75 -13.1 -5.75 -13.15 -5.7 -13.2 -5.75 -13.25 -5.75 -13.35 -5.8 -13.4 -5.85 -13.5 -5.9 -13.55 -5.9 -13.65 -5.85 -13.65 -5.85 -13.6 -5.8 -13.6 -5.8 -13.55 -5.8 -13.55 -5.7 -13.55 -5.45 -13.6 -5.4 -13.65 -5.35 -13.7 -5.4 -13.75 -5.45 -13.8 -5.5 -13.8 -5.55 -13.85 -5.55 -13.85 -5.6 -13.9 -5.65 -13.9 -5.75 -13.95 -5.8 -13.95 -5.85 -14.0 -5.9 -14.0 -5.95 -14.05 -6.0 -14.1 -6.05 -14.15 -6.05 -14.2 -6.05 -14.2 -6.0 -14.1 -5.95 -14.05 -5.9 Q-14.05 -5.9 -14.1 -5.9 L-14.15 -5.8 -14.15 -5.75 -14.1 -5.65 -14.05 -5.6 -13.95 -5.5 -13.9 -5.45 -13.95 -5.45 -13.95 -5.45 -14.0 -5.4 -14.0 -5.4 -14.1 -5.35 -14.15 -5.25 -14.2 -5.1 -14.3 -5.05 Q-14.3 -5.0 -14.35 -5.0 M-13.75 -3.8 L-14.2 -4.0 -14.45 -4.05 -14.6 -4.05 -14.6 -4.0 Q-14.45 -3.9 -14.45 -3.7 L-14.35 -3.35 Q-13.7 -3.5 -13.55 -3.65 L-13.75 -3.8 M-13.95 -2.7 L-13.9 -2.85 -13.8 -2.85 -13.8 -2.6 -13.65 -2.3 -13.9 -2.25 -14.15 -2.2 Q-14.2 -2.2 -14.25 -2.25 -14.3 -2.3 -14.4 -2.3 L-14.1 -2.55 -13.95 -2.7 M-13.2 -2.75 L-12.75 -2.5 -12.75 -2.5 -13.05 -2.45 Q-13.3 -2.4 -13.4 -2.35 L-13.3 -2.55 -13.2 -2.75 M-13.9 -3.35 L-13.05 -3.2 -12.85 -3.2 -12.95 -3.4 -13.0 -3.6 -13.5 -3.45 -13.9 -3.35 M-15.55 -4.0 L-14.8 -3.6 -14.7 -3.55 -14.65 -3.55 -14.65 -3.55 -14.6 -3.5 -14.95 -4.1 -15.25 -4.05 -15.5 -4.0 -15.55 -4.0 M-14.2 -1.5 Q-14.0 -1.15 -13.85 -1.15 L-13.65 -1.15 Q-13.5 -1.2 -13.4 -1.25 -13.3 -0.95 -12.9 -0.65 L-12.35 -0.15 -13.15 -0.5 Q-13.75 -0.75 -14.05 -0.75 L-14.2 -0.75 -14.3 -0.7 -14.8 -1.05 -15.05 -1.15 Q-15.25 -1.2 -15.3 -1.3 -15.1 -1.25 -14.8 -1.5 -14.45 -1.75 -14.45 -1.95 L-14.2 -1.5 M-12.3 -1.7 L-12.15 -1.7 Q-12.2 -1.5 -11.75 -1.2 -11.35 -0.9 -11.15 -0.9 -11.0 -0.9 -10.95 -0.95 L-10.75 -1.25 Q-10.6 -0.95 -9.9 -0.7 -9.45 -0.55 -9.15 -0.5 L-9.4 -0.5 -10.55 -0.4 -11.05 -0.35 -11.4 -0.3 -11.75 -0.55 Q-12.05 -0.85 -12.25 -0.9 -12.45 -1.05 -12.6 -1.1 L-13.05 -1.25 Q-12.95 -1.3 -12.65 -1.4 -12.35 -1.6 -12.3 -1.7 M-12.95 -2.1 L-13.25 -1.7 -13.45 -1.5 -13.65 -1.3 -14.05 -1.55 -13.55 -1.85 -13.0 -2.1 -12.95 -2.1 M-4.0 -5.6 L-3.9 -5.65 -4.85 -4.7 -4.9 -4.7 -4.9 -4.9 -4.95 -5.0 Q-5.1 -5.1 -5.4 -5.1 -5.65 -5.1 -5.75 -5.0 L-5.8 -5.05 -5.9 -5.3 -6.0 -5.55 -5.7 -5.4 -5.5 -5.4 -5.15 -5.4 -4.9 -5.4 -4.75 -5.2 -4.55 -5.05 -4.5 -5.1 -4.4 -5.2 -4.2 -5.4 -4.25 -5.4 -4.45 -5.55 -4.65 -5.65 -4.75 -5.9 -4.85 -6.25 -4.95 -6.45 -5.15 -6.7 -4.85 -6.65 -4.6 -6.65 -4.5 -6.6 Q-4.6 -6.5 -4.5 -6.2 -4.45 -5.95 -4.3 -5.85 -4.25 -5.8 -4.25 -5.85 L-4.05 -5.85 -4.0 -5.6 M-5.4 -8.4 L-5.6 -8.35 -5.8 -8.3 -5.75 -8.45 -5.65 -8.6 -5.65 -8.65 -5.5 -8.55 -5.4 -8.4 M-5.15 -7.7 L-5.05 -7.7 -4.95 -7.75 -4.9 -7.7 -5.0 -7.6 -5.0 -7.4 -5.15 -7.5 Q-5.25 -7.5 -5.3 -7.55 L-5.35 -7.6 -5.4 -7.7 -5.15 -7.7 M-5.5 -7.5 L-5.55 -7.2 Q-5.6 -7.0 -5.55 -6.95 L-5.45 -6.85 -5.3 -6.8 Q-5.35 -6.65 -5.25 -6.35 L-5.15 -5.95 -5.45 -6.4 -5.75 -6.8 -5.85 -6.85 -5.9 -6.9 -5.95 -7.0 -6.0 -7.2 -6.1 -7.35 -6.2 -7.5 Q-6.1 -7.45 -5.85 -7.45 -5.6 -7.45 -5.5 -7.5 M-6.6 -5.0 L-6.55 -5.15 -6.45 -4.95 -6.3 -4.85 -6.3 -4.8 -6.6 -4.85 -6.6 -5.0 M-7.0 -5.5 L-6.9 -5.5 -6.85 -5.45 -6.75 -5.35 -6.65 -5.25 -6.85 -5.15 -6.95 -5.05 -6.95 -5.05 -6.95 -5.25 -7.0 -5.5 M-6.45 -5.75 L-6.3 -5.7 -6.3 -5.55 -6.25 -5.4 -6.25 -5.1 -6.3 -5.1 -6.45 -5.4 -6.6 -5.75 -6.45 -5.75 M-6.55 -6.25 L-6.4 -6.25 -6.35 -6.2 -6.3 -6.1 Q-6.15 -6.0 -5.8 -5.9 L-5.3 -5.8 -5.75 -5.75 Q-6.0 -5.75 -6.15 -5.65 L-6.25 -5.8 -6.35 -5.85 Q-6.4 -5.9 -6.6 -5.8 L-6.9 -5.7 Q-6.85 -5.75 -6.9 -6.0 -6.95 -6.25 -7.1 -6.3 L-6.9 -6.3 -6.75 -6.25 -6.55 -6.25 M-4.55 -7.2 L-4.9 -7.35 -4.75 -7.4 -4.65 -7.45 -4.5 -7.2 -4.55 -7.2 M-5.05 -7.0 L-5.2 -6.95 -5.4 -6.95 -5.45 -7.1 -5.5 -7.2 -5.15 -7.2 -4.8 -7.1 -4.75 -7.1 -5.05 -7.0 M-6.9 -4.7 L-7.15 -4.85 -7.0 -4.65 -6.8 -4.4 -6.7 -4.45 -6.6 -4.5 -6.7 -4.6 -6.9 -4.7 M-7.75 -4.75 L-7.5 -4.65 -7.2 -4.55 -7.1 -4.55 Q-7.1 -4.7 -7.35 -5.0 L-7.5 -4.85 Q-7.6 -4.75 -7.7 -4.75 L-7.75 -4.75 M-7.8 4.2 L-7.95 4.25 -8.05 4.3 -8.15 4.35 -8.1 4.4 Q-8.05 4.35 -7.95 4.45 L-7.75 4.6 Q-7.5 4.3 -7.5 4.15 L-7.6 4.15 -7.8 4.2 M-7.15 4.05 L-7.2 4.0 -7.4 4.25 -7.55 4.45 -7.3 4.3 -7.1 4.2 -7.0 4.15 Q-7.1 4.1 -7.15 4.05 M-8.0 4.6 L-8.0 4.6 -7.95 4.6 -8.3 4.45 -8.45 4.6 -8.55 4.7 -8.55 4.7 -8.25 4.65 -8.05 4.6 -8.0 4.6 M-7.25 4.75 L-7.05 4.85 -7.2 4.95 -7.3 5.1 -7.35 5.1 -7.45 5.1 -7.35 4.9 -7.35 4.75 -7.4 4.65 -7.35 4.65 -7.25 4.75 M-6.7 4.7 L-6.65 5.0 -6.7 5.15 -6.7 5.3 -6.85 5.35 -7.0 5.35 -6.85 5.0 -6.7 4.7 -6.7 4.7 M-7.0 4.6 L-7.0 4.45 -6.7 4.4 -6.7 4.45 -6.85 4.55 -6.95 4.75 -7.0 4.6 M-6.15 8.05 L-6.2 7.9 -5.8 8.0 -5.9 8.15 -6.05 8.25 -6.1 8.2 -6.15 8.05 M-5.15 7.0 L-5.3 6.95 Q-5.2 6.95 -5.1 6.85 L-4.95 6.8 -4.9 6.8 -5.05 7.05 -5.15 7.0 M-5.7 7.15 Q-5.7 7.15 -5.6 7.1 L-5.45 7.0 -5.4 7.2 -5.35 7.35 -5.35 7.35 -5.45 7.3 -5.55 7.3 -5.8 7.3 Q-5.75 7.25 -5.75 7.2 L-5.7 7.15 M-5.2 6.7 L-5.55 6.8 -5.9 6.8 -5.85 6.7 -5.8 6.55 -5.6 6.55 -5.15 6.7 -5.2 6.7 M-5.85 6.0 L-5.6 5.55 -5.65 5.95 Q-5.75 6.25 -5.7 6.4 L-5.85 6.5 -5.95 6.55 Q-6.0 6.6 -6.0 6.8 L-5.9 7.15 Q-6.0 7.05 -6.25 7.05 -6.5 7.05 -6.6 7.1 L-6.5 6.95 -6.4 6.8 -6.35 6.65 -6.35 6.5 -6.25 6.45 -6.2 6.4 -5.85 6.0 M-0.25 9.65 Q-0.15 10.35 -0.15 10.75 L-0.15 11.25 -0.05 11.65 -0.3 11.95 -0.7 12.45 -0.85 12.8 Q-0.95 13.05 -1.0 13.3 -1.05 13.15 -1.2 12.9 -1.35 12.6 -1.45 12.5 L-1.45 12.4 Q-1.25 12.4 -0.95 12.0 -0.7 11.6 -0.7 11.35 -0.7 11.25 -0.75 11.2 L-1.0 11.0 Q-0.7 10.85 -0.45 10.1 -0.3 9.7 -0.25 9.35 L-0.25 9.65 M-12.95 7.3 L-12.95 7.25 -13.0 7.25 -13.05 7.25 -13.0 7.35 -12.95 7.35 -12.85 7.4 -12.8 7.45 -12.8 7.65 -12.75 7.9 -12.8 8.1 -12.8 8.35 -12.8 8.4 -12.85 8.45 -12.85 8.5 -12.8 8.5 -12.75 8.45 -12.65 8.45 -12.65 8.45 -12.6 8.5 -12.55 8.5 -12.55 8.45 -12.55 8.45 -12.55 8.35 -12.6 8.25 -12.6 8.05 -12.55 7.95 -12.45 7.9 Q-12.4 7.85 -12.35 7.9 L-12.3 7.95 -12.3 8.0 -12.25 8.0 -12.25 7.95 -12.2 7.9 -12.2 7.85 -12.15 7.85 -12.15 7.8 -12.15 7.75 -12.3 7.75 -12.4 7.75 -12.45 7.8 -12.5 7.8 -12.5 7.8 -12.55 7.85 -12.55 7.9 -12.6 7.9 -12.6 7.85 -12.6 7.75 -12.6 7.5 -12.55 7.4 -12.55 7.35 -12.45 7.35 -12.4 7.35 -12.35 7.4 -12.3 7.4 -12.25 7.45 -12.2 7.5 -12.25 7.55 -12.2 7.55 -12.2 7.55 -12.15 7.5 -12.1 7.4 -12.05 7.3 -12.05 7.25 -12.1 7.25 -12.15 7.25 -12.2 7.25 -12.2 7.25 -12.3 7.2 -12.45 7.25 -12.6 7.25 -12.7 7.3 -12.75 7.3 -12.8 7.3 -12.85 7.3 -12.9 7.3 -12.95 7.3 M-14.45 4.9 L-14.45 4.9 -14.4 4.95 -14.35 4.9 -14.3 4.95 -14.2 5.05 -14.15 5.15 -14.1 5.25 -14.0 5.35 -14.0 5.35 -13.95 5.35 -13.95 5.4 -13.9 5.4 -13.95 5.45 -14.05 5.5 -14.1 5.6 -14.15 5.65 -14.15 5.75 -14.1 5.8 -14.05 5.85 -14.1 5.9 -14.2 5.9 -14.2 5.95 -14.15 6.0 -14.1 5.95 -14.05 5.95 -14.0 5.9 -14.0 5.85 -13.95 5.8 -13.95 5.7 -13.9 5.65 -13.9 5.6 -13.85 5.5 -13.85 5.5 -13.8 5.45 -13.8 5.45 -13.75 5.4 -13.7 5.35 -13.65 5.3 -13.6 5.3 -13.55 5.4 -13.55 5.6 -13.55 5.7 -13.6 5.75 -13.6 5.75 -13.65 5.75 -13.65 5.8 -13.55 5.8 -13.5 5.8 -13.4 5.75 -13.35 5.75 -13.25 5.7 -13.2 5.65 -13.15 5.65 -13.1 5.65 -13.1 5.65 -13.05 5.65 -13.05 5.6 -13.1 5.55 -13.15 5.55 -13.25 5.55 -13.35 5.5 -13.35 5.4 -13.4 5.35 -13.45 5.0 -13.55 4.65 -13.55 4.6 -13.5 4.55 -13.55 4.5 -13.55 4.5 -13.7 4.55 -13.8 4.6 -13.85 4.6 -13.8 4.65 -13.8 4.65 -13.75 4.7 -13.65 4.95 -13.65 5.2 -13.65 5.25 -13.7 5.25 -13.75 5.25 -13.85 5.2 -13.95 5.1 -14.0 4.95 -14.05 4.85 -14.1 4.85 -14.1 4.8 -14.15 4.75 -14.15 4.75 -14.2 4.7 -14.2 4.7 -14.25 4.7 -14.25 4.7 -14.3 4.7 -14.35 4.7 -14.4 4.75 -14.4 4.85 -14.45 4.9 M-15.45 3.3 L-15.75 3.3 -15.75 3.25 -15.65 3.0 -15.6 2.7 Q-15.55 2.85 -15.4 3.0 L-15.15 3.25 -15.45 3.3 M-13.05 2.45 L-12.75 2.45 -12.75 2.5 -13.2 2.7 -13.3 2.55 -13.4 2.3 -13.05 2.45 M-14.05 1.55 L-13.9 1.4 -13.65 1.3 -13.45 1.5 -13.25 1.7 -12.95 2.1 -13.0 2.1 -14.05 1.55 M-13.9 2.25 L-13.65 2.3 -13.8 2.6 -13.8 2.8 -13.9 2.8 -13.95 2.7 -14.1 2.55 -14.4 2.3 -14.25 2.25 -14.15 2.2 -13.9 2.25 M-12.35 0.15 L-12.9 0.65 Q-13.3 0.95 -13.4 1.2 L-13.85 1.1 Q-14.0 1.1 -14.2 1.45 L-14.45 1.95 Q-14.45 1.75 -14.8 1.5 -15.1 1.2 -15.3 1.25 -15.25 1.2 -15.05 1.1 L-14.8 1.0 -14.55 0.8 -14.3 0.65 -14.2 0.7 -14.05 0.7 Q-13.75 0.7 -13.15 0.5 L-12.35 0.15 M-9.15 0.45 Q-9.45 0.5 -9.9 0.65 -10.6 0.95 -10.75 1.2 L-10.95 0.95 Q-11.0 0.9 -11.15 0.9 -11.35 0.9 -11.75 1.2 -12.2 1.5 -12.15 1.7 L-12.3 1.7 Q-12.35 1.55 -12.65 1.4 L-13.05 1.2 -12.6 1.1 Q-12.45 1.05 -12.25 0.9 -12.05 0.8 -11.75 0.55 L-11.4 0.3 -11.05 0.35 -9.4 0.45 -9.15 0.45 M-9.8 7.3 L-9.85 7.4 -9.95 7.55 -10.1 7.6 -10.15 7.6 Q-10.05 7.65 -9.95 7.65 L-9.8 7.7 -9.8 7.3 -9.8 7.3 M-10.55 7.8 L-10.75 8.0 -10.65 8.2 -10.85 8.35 -10.85 8.35 -10.9 8.55 -10.85 8.55 -10.1 7.75 -10.25 7.7 -10.4 7.6 -10.45 7.7 -10.55 7.8 M-11.05 8.5 L-11.05 8.45 -11.95 9.1 Q-12.05 9.2 -12.05 9.3 -12.1 9.45 -12.0 9.55 -11.9 9.7 -11.8 9.7 -11.65 9.7 -11.55 9.65 L-10.25 8.7 -9.95 9.1 -9.7 8.8 -9.75 8.8 -9.65 8.75 -8.45 7.45 -8.65 7.45 Q-8.8 7.45 -8.95 7.5 L-9.05 7.6 -9.05 7.65 -9.1 7.75 -9.1 7.85 -9.15 7.95 -9.35 8.0 -9.55 8.05 -9.65 8.1 -9.7 8.1 -9.7 8.1 -10.05 8.4 -10.0 8.15 -10.2 8.3 -10.9 8.9 -10.95 8.95 -11.1 8.7 -11.05 8.6 -11.05 8.5 M-15.05 14.85 L-14.5 13.9 -11.9 11.1 Q-14.3 8.3 -15.45 4.5 L-16.55 4.25 Q-17.55 4.05 -17.95 4.05 L-17.85 3.75 -17.7 3.45 -17.65 3.35 -17.7 3.1 Q-17.8 2.65 -17.95 2.35 -18.1 1.95 -18.5 1.75 -18.75 1.55 -19.2 1.4 L-19.2 1.4 Q-19.1 1.45 -18.85 1.75 L-18.45 2.2 Q-18.7 2.35 -18.95 2.65 L-19.4 3.15 -19.45 3.15 Q-19.45 2.8 -19.6 2.5 L-19.9 1.95 -20.1 2.15 -20.15 2.2 -19.95 2.3 -20.15 2.3 -20.95 2.1 -20.9 2.7 -23.0 3.0 Q-23.2 3.05 -23.3 3.2 -23.4 3.3 -23.35 3.5 -23.35 3.65 -23.2 3.8 -23.05 3.9 -22.9 3.85 L-20.8 3.55 Q-20.55 5.15 -20.1 6.6 L-22.05 7.3 Q-22.25 7.35 -22.3 7.5 -22.4 7.65 -22.35 7.85 -22.25 8.0 -22.1 8.1 L-21.8 8.1 -19.8 7.45 Q-19.25 8.9 -18.5 10.25 L-18.5 10.3 -20.3 11.35 Q-20.45 11.4 -20.5 11.6 -20.55 11.75 -20.45 11.9 -20.4 12.05 -20.2 12.1 L-19.9 12.1 -18.1 11.05 -18.05 11.05 Q-17.2 12.35 -16.2 13.55 L-17.85 14.95 Q-17.95 15.05 -17.95 15.25 -18.0 15.45 -17.85 15.55 -17.75 15.7 -17.6 15.7 -17.4 15.7 -17.25 15.6 L-15.65 14.2 -15.05 14.85 M-10.95 10.6 L-11.05 10.75 -11.05 10.75 -11.05 10.8 -11.1 10.85 -11.1 10.9 -11.1 10.95 -11.05 11.0 -11.0 10.95 -10.95 10.85 -10.95 10.6 M-10.95 10.1 L-11.05 10.2 -11.2 10.35 -11.2 10.4 -10.85 10.05 -10.95 10.1 M-8.35 12.2 L-8.4 12.25 -8.5 12.25 -8.55 12.3 -8.6 12.3 -8.5 12.35 -8.5 12.4 -8.45 12.45 -8.45 12.55 -8.45 12.55 -8.45 12.85 -8.45 13.1 -8.45 13.3 -8.5 13.35 -8.5 13.4 -8.55 13.4 -8.5 13.4 -8.3 13.4 -8.1 13.4 -7.85 13.4 -7.65 13.4 -7.6 13.4 -7.6 13.4 -7.55 13.4 -7.5 13.45 Q-7.4 13.45 -7.45 13.3 L-7.5 13.2 -7.5 13.0 -7.5 12.8 -7.55 12.75 -7.6 12.7 -7.65 12.7 -7.65 12.7 -7.65 12.75 -7.6 12.8 -7.6 12.95 -7.65 13.05 -7.65 13.1 -7.65 13.15 -7.65 13.2 -7.65 13.25 -7.7 13.2 -7.7 13.15 -7.75 13.15 -7.8 13.15 -7.9 13.15 -7.95 13.2 -8.05 13.2 -8.15 13.25 -8.2 13.25 -8.2 13.2 -8.2 12.65 -8.2 12.4 -8.15 12.3 -8.05 12.25 -8.0 12.2 -7.95 12.25 -7.85 12.25 -7.8 12.25 -7.8 12.25 -7.75 12.25 -7.75 12.2 -7.9 12.15 -8.05 12.15 -8.2 12.15 -8.35 12.2 M-10.1 10.5 L-10.1 10.25 Q-10.1 10.15 -10.1 10.05 L-10.2 9.85 -10.35 10.0 -10.35 10.1 -10.3 10.25 -10.3 10.45 -10.35 10.45 -10.45 10.4 -10.5 10.4 -10.55 10.35 -10.6 10.35 -10.65 10.35 -10.7 10.35 -10.9 10.55 -10.9 10.6 -10.85 10.6 -10.8 10.55 -10.75 10.55 -10.65 10.55 -10.6 10.6 -10.5 10.6 -10.45 10.6 -10.4 10.6 -10.4 10.55 -10.35 10.5 -10.3 10.5 -10.3 10.6 -10.3 10.75 -10.25 10.85 -10.25 10.9 -10.2 10.95 -10.15 11.0 -10.1 11.0 -10.0 10.9 -9.95 10.85 -9.95 10.8 -10.0 10.8 -10.05 10.75 -10.05 10.75 -10.1 10.5 M-8.75 8.85 L-8.65 8.85 -8.6 8.85 -9.05 8.75 -9.05 8.9 -9.0 9.2 -9.0 9.1 -8.9 8.9 Q-8.85 8.85 -8.75 8.85 M-9.15 9.15 L-9.2 9.0 -9.7 9.25 -9.75 9.35 -9.6 9.55 -9.35 9.4 -9.2 9.35 -9.1 9.3 Q-9.1 9.3 -9.15 9.15 M-8.3 7.85 L-8.3 7.8 -8.6 8.1 -8.55 8.1 -8.4 8.05 -8.3 7.85 M-11.15 9.8 L-11.2 9.85 -11.25 9.95 -11.25 10.0 -11.2 10.05 -11.15 10.05 -11.15 10.05 -11.15 10.0 -11.15 9.95 -11.1 9.85 -11.05 9.85 -10.95 9.85 -10.85 9.9 -10.8 9.9 -10.75 9.9 -10.6 9.75 -10.65 9.8 -10.65 9.8 -10.75 9.75 -10.8 9.7 -10.9 9.7 -10.95 9.7 -11.0 9.7 -11.0 9.7 Q-11.05 9.7 -11.1 9.75 L-11.15 9.8 -11.15 9.8 M-15.65 15.35 Q-15.75 15.35 -15.75 15.4 L-15.75 15.45 -15.65 15.55 -15.6 15.65 -15.45 15.75 -15.4 15.8 -15.35 15.75 -15.4 15.65 -15.45 15.5 -15.55 15.4 Q-15.6 15.35 -15.65 15.35 M-15.65 16.0 L-15.7 16.25 -15.65 16.5 -15.65 17.05 -15.65 17.45 -15.5 17.55 -15.25 17.6 -15.25 17.6 -15.2 17.65 -15.2 17.6 -15.15 17.55 -15.15 17.5 -15.3 17.5 -15.35 17.45 -15.4 17.4 -15.45 17.3 -15.4 17.2 -15.35 17.1 -15.35 16.75 -15.35 16.6 -15.4 16.4 -15.35 16.2 -15.3 16.1 -15.25 16.1 -15.2 16.1 -15.15 16.05 -15.2 16.0 -15.3 15.95 -15.35 15.95 Q-15.45 15.85 -15.55 15.85 -15.65 15.85 -15.65 16.0 M-14.3 18.9 Q-14.15 19.0 -13.95 19.0 -13.8 18.95 -13.7 18.8 L-12.45 17.15 Q-11.15 18.1 -9.75 18.8 L-10.65 20.65 Q-10.75 20.8 -10.7 21.0 -10.6 21.15 -10.45 21.25 L-10.15 21.25 Q-9.95 21.2 -9.9 21.05 L-9.0 19.2 Q-7.55 19.8 -6.05 20.25 L-6.55 22.25 Q-6.6 22.45 -6.55 22.6 -6.45 22.75 -6.25 22.8 L-5.95 22.75 Q-5.8 22.7 -5.75 22.5 L-5.2 20.45 Q-3.7 20.8 -2.1 20.95 L-2.25 23.1 Q-2.25 23.25 -2.15 23.4 -2.0 23.5 -1.85 23.55 -1.65 23.55 -1.55 23.45 -1.4 23.3 -1.4 23.15 L-1.35 22.8 -1.65 22.7 -1.7 22.7 Q-1.55 22.0 -2.1 20.35 L-2.1 20.2 -2.0 20.35 -1.95 20.3 -1.7 20.15 Q-2.2 19.85 -2.25 19.8 -2.6 19.65 -2.9 19.65 L-2.9 19.65 -2.4 19.2 Q-2.1 18.95 -2.0 18.7 L-1.55 19.05 Q-1.25 19.35 -1.2 19.45 L-1.2 19.4 Q-1.35 19.0 -1.5 18.75 -1.75 18.35 -2.15 18.15 -2.4 18.05 -2.9 17.9 L-3.1 17.85 -3.25 17.9 -3.55 18.05 Q-3.75 18.15 -3.8 18.2 -3.8 17.75 -4.05 16.8 L-4.1 16.55 Q-5.65 15.95 -7.15 15.05 -9.8 13.5 -11.65 11.4 L-15.0 14.9 -13.1 16.6 -14.35 18.3 Q-14.45 18.45 -14.45 18.6 -14.4 18.8 -14.3 18.9 M-12.25 19.0 L-12.3 19.0 -12.3 18.95 -12.35 19.0 -12.55 19.25 -12.65 19.55 Q-12.7 19.8 -12.6 20.0 L-12.4 20.35 -12.05 20.6 -11.65 20.75 -11.6 20.75 -11.6 20.65 -12.05 20.45 -12.25 20.3 -12.35 19.95 -12.3 19.65 -12.25 19.4 -12.15 19.25 Q-12.1 19.25 -12.0 19.3 L-11.95 19.35 -11.9 19.35 -11.9 19.35 -11.85 19.4 -11.8 19.5 -11.85 19.6 -11.85 19.65 -11.8 19.8 -11.8 19.95 -11.85 20.05 -11.9 20.2 -11.9 20.25 -11.8 20.25 -11.7 20.25 -11.6 20.25 -11.5 20.25 -11.45 20.25 -11.45 20.2 -11.5 20.15 -11.5 20.1 -11.55 20.05 -11.55 18.9 -11.55 18.75 -11.55 18.65 -11.45 18.6 Q-11.45 18.55 -11.5 18.55 L-11.55 18.5 -11.65 18.5 -11.7 18.45 -11.75 18.45 Q-11.75 18.4 -11.8 18.4 L-11.9 18.35 -11.95 18.35 -11.95 18.4 -11.9 18.45 -11.9 18.45 -11.85 18.5 -11.85 18.55 -11.8 18.9 Q-11.8 19.1 -11.85 19.25 L-11.85 19.25 -11.9 19.25 -11.9 19.25 -12.2 19.05 -12.2 19.05 -12.25 19.0 M-2.2 13.3 Q-2.15 13.5 -2.1 13.65 L-2.3 13.55 -2.5 13.4 -2.3 13.0 -2.25 13.0 -2.2 13.3 M-2.6 14.15 L-2.6 14.05 -2.35 14.0 Q-2.35 14.0 -2.05 13.9 -2.1 14.0 -2.0 14.15 L-1.95 14.4 -2.0 14.5 -2.05 14.65 -2.3 14.35 -2.45 14.2 -2.6 14.15 M-1.9 13.2 L-1.45 13.5 -1.25 13.7 -1.05 13.9 -1.2 14.1 -1.3 14.3 -1.65 13.8 -1.9 13.25 -1.9 13.2 M-1.25 14.4 Q-0.9 14.25 -0.9 14.1 L-0.9 13.9 -1.0 13.65 Q-0.75 13.55 -0.4 13.15 L0.05 12.6 -0.25 13.4 Q-0.5 13.95 -0.5 14.3 L-0.5 14.45 -0.45 14.55 -0.6 14.75 -0.8 15.0 -0.9 15.3 Q-0.95 15.5 -1.05 15.55 -1.0 15.35 -1.3 15.0 -1.5 14.7 -1.7 14.65 L-1.25 14.4 M-5.25 14.1 L-5.1 14.1 -5.0 14.1 -4.9 14.15 -4.9 14.15 -4.95 14.2 -5.05 14.2 -5.1 14.25 -5.1 14.25 -5.15 14.25 -5.25 14.4 -5.25 14.7 -5.3 14.85 -5.3 14.9 -5.25 14.9 -5.2 14.85 -5.1 14.8 -5.0 14.8 -4.95 14.75 -4.9 14.65 -4.95 14.55 -4.95 14.35 -4.85 14.25 -4.75 14.25 -4.65 14.35 -4.6 14.5 -4.5 14.65 -4.45 14.75 -4.45 14.95 -4.5 15.05 -4.5 15.15 -4.55 15.15 -4.55 15.2 -4.6 15.2 -4.6 15.25 -4.65 15.25 -4.7 15.3 -4.75 15.35 -4.7 15.35 -4.65 15.4 -4.6 15.35 -4.6 15.35 -4.55 15.35 -4.5 15.35 -4.45 15.3 -4.45 15.3 -4.35 15.2 -4.25 15.05 -4.15 14.6 -4.2 14.45 -4.3 14.3 -4.4 14.2 Q-4.5 14.1 -4.65 14.05 L-4.95 14.0 -5.25 14.0 Q-5.4 14.05 -5.5 14.1 L-5.65 14.25 -5.8 14.45 -5.9 14.65 -5.9 14.85 -5.85 14.95 -5.8 15.05 -5.8 15.15 -5.9 15.25 -5.9 15.35 -5.8 15.35 -5.65 15.25 -5.55 15.1 -5.5 15.0 -5.55 14.8 -5.6 14.65 -5.6 14.5 -5.55 14.35 -5.55 14.35 -5.5 14.25 -5.4 14.15 -5.25 14.1 M-2.75 15.9 Q-3.0 15.95 -3.05 16.0 L-3.1 16.0 -3.1 15.7 Q-3.05 15.5 -3.05 15.35 L-2.75 15.65 Q-2.65 15.8 -2.45 15.8 L-2.75 15.9 M-20.7 1.15 L-21.05 1.1 -21.0 1.6 -20.95 1.65 Q-20.9 1.65 -20.8 1.35 L-20.7 1.15 M-21.0 0.55 L-21.0 0.5 -21.0 0.55 M-20.0 1.4 L-19.85 1.5 -19.8 1.5 -20.1 1.15 -20.3 1.0 -20.4 1.15 -20.7 1.6 -20.55 1.45 Q-20.35 1.3 -20.25 1.3 L-20.0 1.4 M-22.2 1.15 L-22.3 1.1 -22.35 1.05 -22.4 1.05 -22.35 1.1 Q-22.2 1.25 -22.2 1.3 L-22.15 1.4 -22.15 1.4 -22.15 1.3 -22.1 1.3 -22.05 1.3 -22.0 1.25 -22.05 1.2 -22.15 1.15 -22.2 1.15 M-22.15 1.95 L-22.15 1.9 -22.45 1.9 -22.5 1.95 -22.55 2.05 -22.65 2.1 -22.7 2.1 -22.8 2.05 -22.85 2.05 -22.9 2.0 -22.95 1.8 -22.95 1.35 -22.9 1.15 -22.9 1.05 -22.95 1.05 -23.0 1.05 -23.1 1.1 -23.15 1.1 -23.15 1.1 -23.25 1.05 -23.3 1.05 -23.3 1.15 -23.3 1.2 -23.25 1.25 -23.2 1.65 -23.25 2.05 -23.25 2.1 -23.3 2.1 -23.35 2.1 -23.4 2.1 -23.45 2.15 -23.4 2.15 -23.35 2.25 -23.3 2.3 -23.2 2.35 -23.15 2.35 -23.15 2.35 -23.1 2.35 -23.05 2.25 -23.0 2.2 -22.95 2.15 -22.85 2.15 -22.7 2.25 -22.6 2.35 -22.5 2.35 -22.35 2.25 -22.25 2.2 -22.2 2.1 -22.15 2.05 -22.15 1.95 M-22.9 4.85 L-22.9 4.9 -22.85 5.0 -22.8 5.0 -22.75 5.05 -22.65 5.05 -22.65 5.1 -22.7 5.2 -22.8 5.25 -22.85 5.35 -22.9 5.45 -22.85 5.6 -22.55 5.8 -22.4 5.85 -22.25 5.85 -22.05 5.8 -21.9 5.75 -21.8 5.65 -21.7 5.55 -21.65 5.45 -21.6 5.3 -21.6 5.2 -21.65 5.1 -21.7 5.05 -21.6 5.0 -21.5 5.0 -21.35 5.0 -21.25 5.0 -21.2 5.05 -21.15 5.05 -21.15 5.05 -21.1 5.05 -21.1 5.0 -21.1 4.95 -21.15 4.9 -21.15 4.75 -21.15 4.6 -21.2 4.6 -21.2 4.65 -21.25 4.65 -21.3 4.7 -21.55 4.75 -21.8 4.75 -21.8 4.7 -21.75 4.7 -21.75 4.6 -21.8 4.6 -21.85 4.65 -21.9 4.7 -21.95 4.75 -22.15 4.75 -22.35 4.8 -22.55 4.75 -22.65 4.65 -22.65 4.6 -22.75 4.65 -22.85 4.75 -22.9 4.85 M-22.1 5.05 L-22.0 5.05 -21.95 5.1 -21.85 5.2 -21.8 5.3 -21.75 5.35 -21.75 5.45 Q-21.8 5.55 -21.9 5.6 L-22.05 5.65 -22.25 5.6 Q-22.35 5.6 -22.4 5.55 L-22.55 5.4 -22.6 5.25 Q-22.6 5.15 -22.5 5.1 L-22.4 5.05 -22.25 5.0 -22.1 5.05 M-20.45 8.65 L-20.45 8.65 -20.4 8.65 -20.4 8.7 -20.35 9.1 -20.35 9.45 -20.4 9.5 -20.5 9.4 -20.6 9.35 -20.65 9.3 -20.7 9.25 -20.75 9.25 -20.8 9.2 -20.9 9.2 -20.9 9.25 -20.9 9.3 -20.9 9.45 -20.95 9.55 -20.9 9.6 -20.85 9.65 -20.8 9.7 -20.8 9.7 -20.85 9.75 -20.9 9.85 -20.9 9.95 -20.95 10.05 -20.95 10.15 -21.05 10.2 -21.1 10.25 -21.15 10.25 -21.15 10.3 -21.1 10.35 -21.0 10.4 -20.95 10.45 -20.9 10.45 -20.8 10.4 -20.7 10.3 -20.7 10.15 -20.65 10.05 Q-20.55 9.75 -20.35 9.95 L-20.35 10.05 -20.3 10.1 -20.35 10.2 -20.35 10.3 -20.4 10.35 -20.4 10.45 -20.35 10.45 -20.3 10.45 -20.25 10.4 -20.2 10.4 -20.15 10.4 -20.1 10.4 -20.05 10.45 -20.0 10.45 -20.0 10.35 -20.05 10.3 -20.05 10.25 -20.1 9.6 -20.05 8.9 -20.05 8.9 -20.0 8.85 -20.0 8.8 -20.05 8.75 -20.1 8.7 -20.2 8.65 -20.25 8.65 -20.3 8.6 -20.4 8.55 -20.45 8.55 -20.45 8.65 M-20.4 9.55 L-20.35 9.6 -20.35 9.7 -20.35 9.8 -20.4 9.8 -20.5 9.8 -20.6 9.7 -20.65 9.65 -20.7 9.55 -20.65 9.45 -20.6 9.45 -20.6 9.45 -20.55 9.5 -20.45 9.55 -20.4 9.55 M-18.05 12.15 L-18.15 12.1 -18.2 12.1 -18.25 12.05 -18.35 12.0 -18.4 11.95 -18.45 11.95 -18.5 12.0 -18.45 12.05 -18.4 12.1 -18.4 12.15 Q-18.35 12.4 -18.35 12.65 L-18.35 13.45 -18.35 13.65 -18.4 13.7 -18.4 13.75 -18.45 13.8 -18.45 13.85 -18.4 13.85 -18.3 13.85 -18.2 13.8 Q-18.15 13.8 -18.1 13.85 L-18.05 13.85 -18.0 13.85 -18.0 13.75 -18.0 13.7 -18.05 13.65 -18.1 13.2 -18.1 12.6 -18.1 12.35 -18.05 12.25 Q-18.0 12.2 -18.0 12.2 L-18.05 12.15 M-0.75 20.5 L-1.3 20.05 -1.3 20.05 -1.2 20.25 Q-1.1 20.35 -1.1 20.45 -1.1 20.6 -1.25 20.75 L-1.4 20.9 -0.9 20.65 -0.75 20.5 M-0.95 20.95 L-1.1 21.0 -0.95 21.0 -0.95 20.95 M-1.35 21.35 L-1.3 21.55 -1.25 21.05 -1.4 21.15 -1.35 21.35 M-4.05 21.2 L-4.1 21.2 -4.15 21.15 -4.2 21.1 -4.25 21.1 -4.3 21.1 -4.35 21.1 -4.4 21.1 -4.4 21.15 -4.3 21.2 -4.3 21.35 -4.3 21.45 -4.25 22.1 -4.3 22.75 -4.3 22.8 -4.35 22.9 -4.35 22.95 Q-4.35 23.0 -4.3 23.0 L-4.25 22.95 -4.2 22.95 -4.1 22.95 -4.05 22.95 -4.05 22.95 -4.0 23.0 -4.0 22.95 -3.95 22.9 -4.0 22.8 -3.95 22.8 -3.95 22.8 -3.9 22.85 -3.7 22.95 -3.6 22.95 -3.4 22.9 -3.25 22.75 -3.15 22.5 Q-3.1 22.4 -3.15 22.25 L-3.25 22.05 -3.4 21.9 Q-3.5 21.8 -3.65 21.75 -3.75 21.7 -3.8 21.7 L-3.85 21.7 -3.9 21.75 -3.95 21.75 -4.0 21.75 -4.0 21.35 -4.0 21.35 -3.95 21.35 -3.9 21.3 -3.9 21.25 -3.95 21.25 -4.05 21.2 M-3.55 21.95 L-3.45 22.0 -3.45 22.0 -3.45 22.0 -3.4 22.05 -3.4 22.05 Q-3.35 22.2 -3.35 22.3 -3.35 22.4 -3.45 22.5 L-3.5 22.55 -3.55 22.65 -3.65 22.65 -3.75 22.7 -3.85 22.7 -4.0 22.6 -4.0 22.35 -4.0 22.1 -3.9 21.95 -3.75 21.95 -3.55 21.95 M-7.05 20.75 L-7.15 20.65 -7.25 20.55 -7.35 20.5 -7.45 20.4 Q-7.55 20.35 -7.6 20.35 L-7.8 20.35 -7.95 20.4 -8.1 20.35 Q-8.15 20.3 -8.15 20.35 L-8.1 20.55 -8.05 20.65 -8.05 20.8 -8.1 20.95 -8.15 21.15 -8.2 21.4 -8.2 21.6 -8.05 21.8 -7.85 22.0 -7.6 22.1 -7.35 22.15 -7.25 22.1 Q-7.25 22.1 -7.2 22.1 -7.05 22.0 -7.0 21.95 -6.95 21.9 -7.0 21.85 L-7.1 21.75 -7.2 21.65 -7.25 21.65 -7.25 21.65 Q-7.3 21.8 -7.35 21.85 L-7.55 21.9 -7.75 21.9 -7.9 21.7 -7.95 21.6 -7.9 21.5 -7.9 21.4 -7.85 21.35 -7.85 21.35 -7.75 21.45 -7.6 21.55 -7.4 21.6 -7.25 21.6 -7.1 21.5 -7.05 21.4 -6.95 21.25 -6.95 21.05 -6.95 20.95 -7.0 20.85 -7.05 20.75 M-7.65 20.65 L-7.55 20.6 -7.35 20.6 Q-7.3 20.65 -7.25 20.75 -7.25 20.8 -7.25 20.9 L-7.25 21.1 -7.35 21.25 Q-7.4 21.35 -7.55 21.35 -7.65 21.35 -7.75 21.3 -7.8 21.2 -7.75 21.05 L-7.8 20.9 Q-7.8 20.85 -7.85 20.8 L-7.9 20.7 -7.95 20.6 -7.95 20.6 -7.85 20.6 -7.8 20.65 -7.75 20.65 -7.65 20.65" fill="url(#gradient0)" fill-rule="evenodd" stroke="none"/>
  </g>
  <defs>
    <linearGradient gradientTransform="matrix(1.0E-4, -0.0301, 0.0301, 1.0E-4, 0.0, 0.0)" gradientUnits="userSpaceOnUse" id="gradient0" spreadMethod="pad" x1="-819.2" x2="819.2">
      <stop offset="0.0" stop-color="#25edff" stop-opacity="0.7490196"/>
      <stop offset="1.0" stop-color="#d4f9ff"/>
    </linearGradient>
  </defs>
</svg>
