<?xml version="1.0" encoding="UTF-8" standalone="no"?>
<svg xmlns:xlink="http://www.w3.org/1999/xlink" height="4.9px" width="21.55px" xmlns="http://www.w3.org/2000/svg">
  <g transform="matrix(1.0, 0.0, 0.0, 1.0, 8.3, 2.45)">
    <path d="M0.85 -0.4 Q1.1 -0.65 1.35 -0.75 1.65 -0.9 1.95 -0.9 L2.7 -0.85 3.2 -0.7 3.6 -0.4 3.65 -0.35 3.65 -0.2 3.65 1.05 3.6 1.15 Q3.25 1.45 2.85 1.55 L2.2 1.65 1.45 1.5 Q1.1 1.4 0.85 1.15 L0.8 1.05 0.75 1.0 0.75 -0.25 0.8 -0.35 0.85 -0.4 M1.6 -0.35 Q1.4 -0.25 1.2 -0.15 L1.2 0.85 Q1.45 1.05 1.75 1.1 L2.35 1.15 2.8 1.05 3.2 0.85 3.2 -0.15 Q3.0 -0.3 2.75 -0.35 L2.4 -0.45 2.0 -0.45 1.6 -0.35 M0.3 -0.35 L0.3 -0.25 0.3 1.05 0.25 1.15 Q-0.05 1.4 -0.4 1.5 L-1.15 1.65 -1.8 1.55 Q-2.15 1.45 -2.4 1.25 L-2.5 1.15 -2.55 1.05 -2.6 1.0 -2.6 -1.25 -2.55 -1.4 Q-2.5 -1.5 -2.35 -1.45 -2.25 -1.5 -2.2 -1.4 L-2.15 -1.35 -2.15 -0.7 Q-1.75 -0.9 -1.3 -0.9 -0.85 -0.95 -0.4 -0.8 -0.05 -0.7 0.2 -0.45 L0.3 -0.35 M4.05 -0.75 L4.1 -0.8 4.25 -0.85 4.35 -0.8 4.4 -0.75 5.45 0.05 6.5 -0.8 6.7 -0.85 6.85 -0.75 6.9 -0.6 6.9 -0.5 6.8 -0.4 5.8 0.35 6.8 1.1 6.9 1.2 6.9 1.35 6.8 1.5 Q6.75 1.55 6.65 1.55 L6.5 1.5 6.4 1.4 Q5.75 0.9 5.45 0.65 L4.35 1.5 Q4.25 1.6 4.15 1.55 L4.05 1.5 4.0 1.35 4.0 1.2 4.05 1.15 4.15 1.05 5.05 0.35 4.15 -0.4 4.05 -0.45 4.0 -0.55 Q3.95 -0.65 4.05 -0.75 M-1.15 -0.45 L-1.65 -0.4 Q-1.9 -0.3 -2.15 -0.15 L-2.15 0.85 Q-1.9 1.05 -1.6 1.1 L-0.95 1.15 -0.55 1.05 -0.15 0.85 -0.15 -0.15 Q-0.35 -0.3 -0.6 -0.4 L-1.15 -0.45" fill="#000000" fill-rule="evenodd" stroke="none"/>
    <path d="M0.3 -0.35 L0.2 -0.45 Q-0.05 -0.7 -0.4 -0.8 -0.85 -0.95 -1.3 -0.9 -1.75 -0.9 -2.15 -0.7 L-2.15 -1.35 -2.2 -1.4 Q-2.25 -1.5 -2.35 -1.45 -2.5 -1.5 -2.55 -1.4 L-2.6 -1.25 -2.6 1.0 -2.55 1.05 -2.5 1.15 -2.4 1.25 Q-2.15 1.45 -1.8 1.55 L-1.15 1.65 -0.4 1.5 Q-0.05 1.4 0.25 1.15 L0.3 1.05 0.3 -0.25 0.3 -0.35 M1.6 -0.35 L2.0 -0.45 2.4 -0.45 2.75 -0.35 Q3.0 -0.3 3.2 -0.15 L3.2 0.85 2.8 1.05 2.35 1.15 1.75 1.1 Q1.45 1.05 1.2 0.85 L1.2 -0.15 Q1.4 -0.25 1.6 -0.35 M0.85 -0.4 L0.8 -0.35 0.75 -0.25 0.75 1.0 0.8 1.05 0.85 1.15 Q1.1 1.4 1.45 1.5 L2.2 1.65 2.85 1.55 Q3.25 1.45 3.6 1.15 L3.65 1.05 3.65 -0.2 3.65 -0.35 3.6 -0.4 3.2 -0.7 2.7 -0.85 1.95 -0.9 Q1.65 -0.9 1.35 -0.75 1.1 -0.65 0.85 -0.4 M4.05 -0.75 Q3.95 -0.65 4.0 -0.55 L4.05 -0.45 4.15 -0.4 5.05 0.35 4.15 1.05 4.05 1.15 4.0 1.2 4.0 1.35 4.05 1.5 4.15 1.55 Q4.25 1.6 4.35 1.5 L5.45 0.65 Q5.75 0.9 6.4 1.4 L6.5 1.5 6.65 1.55 Q6.75 1.55 6.8 1.5 L6.9 1.35 6.9 1.2 6.8 1.1 5.8 0.35 6.8 -0.4 6.9 -0.5 6.9 -0.6 6.85 -0.75 6.7 -0.85 6.5 -0.8 5.45 0.05 4.4 -0.75 4.35 -0.8 4.25 -0.85 4.1 -0.8 4.05 -0.75 M7.45 1.1 L7.25 1.1 Q7.2 1.1 7.15 1.15 7.1 1.2 7.1 1.25 L7.1 1.35 7.15 1.5 Q7.2 1.55 7.35 1.55 L7.4 1.55 7.5 1.45 7.55 1.25 7.5 1.2 7.45 1.1 M8.8 -0.8 Q8.7 -0.75 8.65 -0.65 L8.65 -0.55 8.7 -0.5 9.95 1.4 10.05 1.5 10.1 1.55 10.25 1.55 10.35 1.5 10.4 1.4 10.5 1.3 11.65 -0.4 11.7 -0.45 11.75 -0.55 11.75 -0.65 11.7 -0.75 11.45 -0.85 11.4 -0.8 11.3 -0.75 10.75 0.1 10.2 0.9 9.65 0.1 9.1 -0.7 9.05 -0.75 9.0 -0.8 8.9 -0.85 8.8 -0.8 M8.05 -1.5 L7.95 -1.45 7.9 -1.4 7.9 -1.3 7.85 -1.2 7.9 1.35 Q7.9 1.45 7.95 1.5 L8.05 1.55 8.15 1.55 8.25 1.5 8.3 1.45 8.35 1.3 8.35 1.2 8.35 -1.25 8.3 -1.35 8.3 -1.4 8.05 -1.5 M13.25 2.45 L-8.3 2.45 -8.3 -2.45 13.25 -2.45 13.25 2.45 M-5.45 -0.15 Q-5.25 -0.3 -4.9 -0.4 L-4.3 -0.45 -3.9 -0.35 -3.5 -0.15 -3.5 1.3 -3.45 1.45 -3.4 1.55 -3.3 1.55 -3.1 1.5 Q-3.05 1.45 -3.05 1.3 L-3.05 -0.35 -3.1 -0.45 Q-3.45 -0.7 -3.8 -0.8 L-4.25 -0.9 -4.7 -0.9 -5.3 -0.75 -5.8 -0.45 -5.9 -0.35 -5.95 -0.25 -5.95 1.3 -5.9 1.5 -5.8 1.55 -5.7 1.55 -5.6 1.55 Q-5.55 1.5 -5.5 1.5 L-5.5 1.4 -5.45 1.3 -5.45 -0.15 M-6.8 -0.75 L-6.85 -0.6 -6.85 1.35 -6.8 1.45 -6.75 1.5 -6.65 1.55 Q-6.5 1.55 -6.45 1.5 L-6.4 1.4 -6.4 -0.6 Q-6.4 -0.75 -6.45 -0.8 L-6.55 -0.85 -6.7 -0.85 -6.8 -0.75 M-6.4 -1.4 L-6.5 -1.45 -6.7 -1.45 -6.8 -1.4 -6.85 -1.35 Q-6.85 -1.2 -6.8 -1.1 L-6.75 -1.05 -6.65 -1.0 Q-6.5 -1.0 -6.45 -1.1 -6.4 -1.15 -6.4 -1.3 L-6.4 -1.4 M-1.15 -0.45 L-0.6 -0.4 Q-0.35 -0.3 -0.15 -0.15 L-0.15 0.85 -0.55 1.05 -0.95 1.15 -1.6 1.1 Q-1.9 1.05 -2.15 0.85 L-2.15 -0.15 Q-1.9 -0.3 -1.65 -0.4 L-1.15 -0.45" fill="#ffffff" fill-rule="evenodd" stroke="none"/>
    <path d="M8.05 -1.5 L8.3 -1.4 8.3 -1.35 8.35 -1.25 8.35 1.2 8.35 1.3 8.3 1.45 8.25 1.5 8.15 1.55 8.05 1.55 7.95 1.5 Q7.9 1.45 7.9 1.35 L7.85 -1.2 7.9 -1.3 7.9 -1.4 7.95 -1.45 8.05 -1.5 M8.8 -0.8 L8.9 -0.85 9.0 -0.8 9.05 -0.75 9.1 -0.7 9.65 0.1 10.2 0.9 10.75 0.1 11.3 -0.75 11.4 -0.8 11.45 -0.85 11.7 -0.75 11.75 -0.65 11.75 -0.55 11.7 -0.45 11.65 -0.4 10.5 1.3 10.4 1.4 10.35 1.5 10.25 1.55 10.1 1.55 10.05 1.5 9.95 1.4 8.7 -0.5 8.65 -0.55 8.65 -0.65 Q8.7 -0.75 8.8 -0.8 M7.45 1.1 L7.5 1.2 7.55 1.25 7.5 1.45 7.4 1.55 7.35 1.55 Q7.2 1.55 7.15 1.5 L7.1 1.35 7.1 1.25 Q7.1 1.2 7.15 1.15 7.2 1.1 7.25 1.1 L7.45 1.1" fill="#d8cfc6" fill-rule="evenodd" stroke="none"/>
    <path d="M-6.4 -1.4 L-6.4 -1.3 Q-6.4 -1.15 -6.45 -1.1 -6.5 -1.0 -6.65 -1.0 L-6.75 -1.05 -6.8 -1.1 Q-6.85 -1.2 -6.85 -1.35 L-6.8 -1.4 -6.7 -1.45 -6.5 -1.45 -6.4 -1.4 M-6.8 -0.75 L-6.7 -0.85 -6.55 -0.85 -6.45 -0.8 Q-6.4 -0.75 -6.4 -0.6 L-6.4 1.4 -6.45 1.5 Q-6.5 1.55 -6.65 1.55 L-6.75 1.5 -6.8 1.45 -6.85 1.35 -6.85 -0.6 -6.8 -0.75 M-5.45 -0.15 L-5.45 1.3 -5.5 1.4 -5.5 1.5 Q-5.55 1.5 -5.6 1.55 L-5.7 1.55 -5.8 1.55 -5.9 1.5 -5.95 1.3 -5.95 -0.25 -5.9 -0.35 -5.8 -0.45 -5.3 -0.75 -4.7 -0.9 -4.25 -0.9 -3.8 -0.8 Q-3.45 -0.7 -3.1 -0.45 L-3.05 -0.35 -3.05 1.3 Q-3.05 1.45 -3.1 1.5 L-3.3 1.55 -3.4 1.55 -3.45 1.45 -3.5 1.3 -3.5 -0.15 -3.9 -0.35 -4.3 -0.45 -4.9 -0.4 Q-5.25 -0.3 -5.45 -0.15" fill="#cc0718" fill-rule="evenodd" stroke="none"/>
  </g>
</svg>
