<?xml version="1.0" encoding="UTF-8" standalone="no"?>
<svg xmlns:xlink="http://www.w3.org/1999/xlink" height="7.0px" width="7.0px" xmlns="http://www.w3.org/2000/svg">
  <g transform="matrix(1.0, 0.0, 0.0, 1.0, 8.1, 3.5)">
    <path d="M-8.05 -2.5 L-8.0 -2.85 -7.8 -3.15 Q-7.65 -3.3 -7.45 -3.4 L-7.0 -3.5 -2.15 -3.5 -1.8 -3.4 -1.5 -3.25 Q-1.3 -3.1 -1.2 -2.9 -1.1 -2.7 -1.1 -2.45 L-1.1 -1.55 -1.1 -1.6 -1.1 -1.85 Q-1.1 -2.05 -1.15 -2.15 L-1.15 -1.65 -1.2 -1.7 -1.25 -1.65 -1.25 -1.85 -1.25 -1.7 -1.3 -1.6 -1.3 -1.85 -2.0 -1.85 -2.65 -1.85 -7.65 -1.85 -7.9 -1.85 -7.9 -1.75 -7.9 -1.65 -7.95 -1.85 -8.0 -1.85 -8.0 -1.65 -8.0 -1.3 -8.05 -1.25 -8.05 -0.8 -8.05 -0.75 -8.05 -2.1 -8.05 -2.5" fill="#5d83aa" fill-rule="evenodd" stroke="none"/>
    <path d="M-7.5 3.35 Q-7.75 3.25 -7.95 2.95 -8.1 2.7 -8.1 2.4 L-8.1 -1.35 -8.05 -2.5 -8.05 -2.1 -8.05 -0.75 -8.05 0.15 -8.05 1.15 -8.05 1.5 -8.05 2.55 -8.0 2.6 -8.0 2.8 -7.95 2.85 -7.85 2.95 -7.8 3.05 -7.7 3.2 -7.6 3.3 -7.5 3.35" fill="#4e6982" fill-rule="evenodd" stroke="none"/>
    <path d="M-8.05 -0.8 L-8.05 -1.25 -8.0 -1.3 -8.0 -1.65 -8.0 -1.85 -7.95 -1.85 -7.9 -1.65 -7.9 -1.75 -7.9 -1.85 -7.65 -1.85 -2.65 -1.85 -2.0 -1.85 -1.3 -1.85 -1.3 -1.6 -1.25 -1.7 -1.25 -1.85 -1.25 -1.65 -1.2 -1.7 -1.15 -1.65 -1.15 -2.15 Q-1.1 -2.05 -1.1 -1.85 L-1.1 -1.6 -1.1 -1.3 -1.15 -1.2 -1.15 -1.05 -1.15 -0.8 -1.2 -1.0 -1.2 -1.3 -1.25 -1.3 -1.25 -1.15 -1.3 -1.0 -1.3 -1.1 -1.6 -1.1 -1.95 -1.1 -2.05 -1.1 Q-2.15 -1.1 -2.15 -1.1 L-2.2 -1.15 -2.25 -1.2 -2.4 -1.25 -2.6 -1.25 -2.85 -1.25 -3.15 -1.25 -3.25 -1.2 -3.3 -1.2 -3.35 -1.15 -3.4 -1.05 -3.45 -1.1 -3.45 -1.2 -3.4 -1.15 -3.4 -1.2 -3.35 -1.25 -3.35 -1.3 -3.45 -1.3 -3.5 -1.3 -3.65 -1.3 -3.85 -1.3 -4.1 -1.3 -4.1 -1.3 -4.15 -1.25 -4.1 -1.2 -4.1 -1.2 -4.05 -1.2 -4.05 -1.05 -4.1 -1.1 -4.15 -1.15 -4.2 -1.25 -4.3 -1.3 -4.55 -1.35 -4.8 -1.35 -5.05 -1.35 -5.3 -1.3 -5.4 -1.2 -5.45 -1.1 -5.35 -1.05 -5.25 -1.05 -5.2 -1.0 -5.15 -0.9 -5.2 -0.85 -5.25 -0.8 -5.3 -0.8 -5.35 -0.8 -5.4 -0.65 -5.4 -0.8 -5.6 -0.8 -5.65 -0.8 -5.75 -0.8 -5.7 -0.75 -5.65 -0.7 -5.7 -0.7 -5.65 -0.65 -5.7 -0.6 -5.8 -0.85 -5.9 -1.05 -6.0 -1.15 -6.15 -1.25 -6.35 -1.25 -6.55 -1.25 -6.75 -1.25 -6.95 -1.2 -7.0 -1.1 -7.0 -1.0 -6.85 -0.65 -6.9 -0.65 -6.95 -0.6 -6.95 -0.65 -7.0 -0.65 -6.95 -0.7 -7.0 -0.75 -6.95 -0.8 -7.3 -0.8 -7.6 -0.8 -7.75 -0.8 -7.85 -0.75 -7.85 -0.7 -7.9 -0.6 -7.9 -0.8 -7.95 -0.8 -7.95 -0.65 -8.0 -0.65 -8.0 -0.7 -8.05 -0.8" fill="#587ea5" fill-rule="evenodd" stroke="none"/>
    <path d="M-8.05 -0.8 L-8.0 -0.7 -8.0 -0.65 -7.95 -0.65 -7.95 -0.8 -7.9 -0.8 -7.9 -0.6 -7.85 -0.7 -7.85 -0.75 -7.75 -0.8 -7.6 -0.8 -7.3 -0.8 -6.95 -0.8 -7.0 -0.75 -6.95 -0.7 -7.0 -0.65 -6.95 -0.65 -6.95 -0.6 -6.9 -0.65 -6.85 -0.65 -6.75 -0.5 -6.7 -0.35 -6.7 -0.25 -6.75 -0.2 -7.8 -0.2 -7.8 -0.3 -7.85 -0.25 -7.85 -0.2 -8.0 -0.2 -8.0 -0.35 -8.05 -0.45 -8.0 -0.5 -8.05 -0.65 -8.05 -0.8" fill="#5177a1" fill-rule="evenodd" stroke="none"/>
    <path d="M-8.05 -0.75 L-8.05 -0.8 -8.05 -0.65 -8.0 -0.5 -8.05 -0.45 -8.0 -0.35 -8.0 -0.2 -7.85 -0.2 -7.85 -0.25 -7.8 -0.3 -7.8 -0.2 -6.75 -0.2 -6.7 -0.25 -6.7 -0.35 -6.35 0.25 -5.95 0.75 -6.0 0.85 -6.05 0.8 -6.15 0.85 -6.15 0.75 -6.2 0.8 -6.2 0.7 -7.85 0.7 -7.85 0.9 -7.9 0.85 -7.95 0.9 -7.95 0.8 -8.0 0.7 -8.0 0.6 -8.05 0.55 -8.05 0.35 -8.05 0.15 -8.05 -0.75" fill="#4d729c" fill-rule="evenodd" stroke="none"/>
    <path d="M-6.7 -0.35 L-6.75 -0.5 -6.85 -0.65 -7.0 -1.0 -7.0 -1.1 -6.95 -1.2 -6.75 -1.25 -6.55 -1.25 -6.35 -1.25 -6.15 -1.25 -6.0 -1.15 -5.9 -1.05 -5.8 -0.85 -5.7 -0.6 -5.4 -0.1 -5.3 -0.05 -5.25 -0.05 Q-5.2 0.0 -5.15 -0.1 -5.1 -0.4 -5.15 -0.7 L-5.15 -0.9 -5.2 -1.0 -5.25 -1.05 -5.35 -1.05 -5.45 -1.1 -5.4 -1.2 -5.3 -1.3 -5.05 -1.35 -4.8 -1.35 -4.55 -1.35 -4.3 -1.3 -4.2 -1.25 -4.15 -1.15 -4.15 -0.7 -4.15 -0.3 -4.1 -0.05 -4.05 -0.05 -4.0 -0.05 -3.8 -0.25 -3.7 -0.5 Q-3.55 -0.7 -3.4 -1.05 L-3.35 -1.15 -3.3 -1.2 -3.25 -1.2 -3.15 -1.25 -2.85 -1.25 -2.6 -1.25 -2.4 -1.25 -2.25 -1.2 -2.2 -1.15 -2.15 -1.1 -2.2 -0.9 -2.3 -0.75 -2.4 -0.55 -2.55 -0.35 -2.55 -0.35 -2.65 -0.25 -2.7 -0.15 -2.85 0.0 -2.95 0.15 -2.95 0.3 -2.75 0.5 -2.6 0.65 -2.6 0.65 Q-2.35 0.85 -2.2 1.15 -2.15 1.2 -2.15 1.25 -2.2 1.35 -2.25 1.4 L-2.45 1.45 -2.65 1.45 -2.9 1.45 -3.15 1.45 -3.35 1.4 -3.45 1.3 -3.7 1.05 -3.9 0.85 Q-3.95 0.8 -4.0 0.8 L-4.05 0.85 -4.15 1.0 -4.15 1.3 -4.25 1.4 -4.4 1.45 -4.6 1.45 Q-5.0 1.45 -5.35 1.25 -5.7 1.1 -5.95 0.75 L-6.35 0.25 -6.7 -0.35 M-5.85 -0.85 L-6.0 -1.1 -6.05 -1.15 -6.15 -1.2 -6.8 -1.2 -6.9 -1.2 -6.95 -1.15 -7.0 -1.05 -6.95 -1.0 -6.75 -0.6 -6.55 -0.2 -6.4 0.05 -5.9 0.8 Q-5.7 1.0 -5.45 1.15 -5.2 1.3 -4.9 1.4 L-4.65 1.4 -4.4 1.4 -4.25 1.35 Q-4.2 1.3 -4.2 1.25 L-4.2 1.05 -4.1 0.85 -4.05 0.8 -3.95 0.75 -3.85 0.8 -3.8 0.9 -3.6 1.1 -3.4 1.3 Q-3.25 1.4 -3.1 1.4 L-2.45 1.4 -2.3 1.35 Q-2.2 1.3 -2.2 1.25 -2.2 1.2 -2.25 1.15 L-2.3 1.05 -2.55 0.7 -2.9 0.4 -2.95 0.35 -3.0 0.25 -2.95 0.15 -2.9 0.05 -2.75 -0.15 -2.55 -0.45 -2.35 -0.75 -2.25 -0.9 -2.2 -1.0 -2.2 -1.1 -2.25 -1.15 -2.3 -1.2 -2.4 -1.2 -2.8 -1.2 -3.2 -1.2 -3.3 -1.15 -3.35 -1.05 Q-3.55 -0.6 -3.8 -0.2 L-3.8 -0.2 -4.0 0.0 -4.05 0.0 -4.1 0.0 -4.2 -0.1 -4.2 -0.2 -4.2 -0.6 -4.2 -1.1 -4.25 -1.25 -4.4 -1.3 -4.55 -1.3 -4.85 -1.3 -5.1 -1.3 -5.3 -1.25 Q-5.4 -1.2 -5.4 -1.15 L-5.15 -1.0 -5.15 -0.9 -5.1 -0.8 -5.1 -0.45 Q-5.1 -0.3 -5.15 -0.15 L-5.15 -0.05 -5.25 0.0 -5.45 -0.1 -5.65 -0.45 -5.85 -0.85" fill="#455e79" fill-rule="evenodd" stroke="none"/>
    <path d="M-6.55 -0.2 L-6.75 -0.6 -6.95 -1.0 -7.0 -1.05 -6.95 -1.15 -6.9 -1.2 -6.8 -1.2 -6.15 -1.2 -6.05 -1.15 -6.0 -1.1 -5.85 -0.85 -5.9 -0.7 -5.85 -0.7 -5.85 -0.6 -5.8 -0.55 -5.75 -0.55 -5.75 -0.5 -5.75 -0.4 -5.7 -0.45 -5.7 -0.4 -5.65 -0.4 -5.6 -0.2 -5.65 -0.1 -5.85 -0.15 -6.1 -0.15 -6.2 -0.15 -6.35 -0.1 -6.4 -0.15 -6.4 -0.1 -6.35 -0.05 -6.45 -0.1 -6.45 -0.1 -6.45 -0.25 -6.5 -0.25 -6.5 -0.3 -6.55 -0.25 -6.55 -0.2 M-5.15 -0.15 Q-5.1 -0.3 -5.1 -0.45 L-5.1 -0.8 -5.15 -0.9 -5.15 -1.0 -5.4 -1.15 Q-5.4 -1.2 -5.3 -1.25 L-5.1 -1.3 -4.85 -1.3 -4.55 -1.3 -4.4 -1.3 -4.25 -1.25 -4.2 -1.1 -4.2 -0.6 -4.2 -0.2 -4.2 -0.15 -4.25 -0.15 -4.3 -0.1 -4.3 -0.15 -4.35 -0.15 -4.6 -0.15 -4.9 -0.15 -4.95 -0.15 -4.95 -0.2 -5.0 -0.1 -5.05 -0.2 -5.1 -0.1 -5.15 -0.15 M-3.8 -0.2 Q-3.55 -0.6 -3.35 -1.05 L-3.3 -1.15 -3.2 -1.2 -2.8 -1.2 -2.4 -1.2 -2.3 -1.2 -2.25 -1.15 -2.2 -1.1 -2.2 -1.0 -2.25 -0.9 -2.35 -0.75 -2.55 -0.45 -2.75 -0.15 -2.8 -0.2 -2.8 -0.15 -2.85 -0.15 -2.9 -0.15 -2.95 -0.15 -3.15 -0.15 -3.4 -0.1 -3.2 -0.1 -3.05 -0.1 -3.7 -0.1 -3.8 -0.2" fill="#ffffff" fill-rule="evenodd" stroke="none"/>
    <path d="M-5.85 -0.85 L-5.65 -0.45 -5.45 -0.1 -5.25 0.0 -5.15 -0.05 -5.15 -0.15 -5.1 -0.1 -5.05 -0.2 -5.0 -0.1 -4.95 -0.2 -4.95 -0.15 -4.9 -0.15 -4.6 -0.15 -4.35 -0.15 -4.3 -0.15 -4.3 -0.1 -4.25 -0.15 -4.2 -0.15 -4.2 -0.2 -4.2 -0.1 -4.1 0.0 -4.05 0.0 -4.0 0.0 -3.8 -0.2 -3.8 -0.2 -3.7 -0.1 -3.05 -0.1 -3.2 -0.1 -3.4 -0.1 -3.15 -0.15 -2.95 -0.15 -2.9 -0.15 -2.85 -0.15 -2.8 -0.15 -2.8 -0.2 -2.75 -0.15 -2.9 0.05 -2.95 0.05 -3.0 0.1 -3.05 0.05 -3.05 0.15 -3.0 0.2 -3.0 0.3 -3.0 0.35 -2.95 0.4 -3.05 0.35 -3.05 0.3 -3.3 0.35 -3.55 0.35 -3.8 0.35 -4.05 0.35 -4.25 0.35 -4.4 0.35 -5.8 0.35 -5.85 0.3 -5.9 0.3 -6.0 0.35 -6.05 0.35 -6.1 0.35 -6.15 0.35 -6.15 0.4 -6.25 0.2 -6.35 0.1 Q-6.4 0.05 -6.4 0.05 L-6.55 -0.2 -6.55 -0.25 -6.5 -0.3 -6.5 -0.25 -6.45 -0.25 -6.45 -0.1 -6.45 -0.1 -6.35 -0.05 -6.4 -0.1 -6.4 -0.15 -6.35 -0.1 -6.2 -0.15 -6.1 -0.15 -5.85 -0.15 -5.65 -0.1 -5.6 -0.2 -5.65 -0.4 -5.7 -0.4 -5.7 -0.45 -5.75 -0.4 -5.75 -0.5 -5.75 -0.55 -5.8 -0.55 -5.85 -0.6 -5.85 -0.7 -5.9 -0.7 -5.85 -0.85" fill="#f4f5f5" fill-rule="evenodd" stroke="none"/>
    <path d="M-5.7 -0.6 L-5.65 -0.65 -5.7 -0.7 -5.65 -0.7 -5.7 -0.75 -5.75 -0.8 -5.65 -0.8 -5.6 -0.8 -5.4 -0.8 -5.4 -0.65 -5.35 -0.8 -5.3 -0.8 -5.25 -0.8 -5.2 -0.85 -5.15 -0.9 -5.15 -0.7 Q-5.1 -0.4 -5.15 -0.1 -5.2 0.0 -5.25 -0.05 L-5.3 -0.05 -5.4 -0.1 -5.7 -0.6" fill="#5277a1" fill-rule="evenodd" stroke="none"/>
    <path d="M-4.15 -1.15 L-4.1 -1.1 -4.05 -1.05 -4.05 -1.2 -4.1 -1.2 -4.1 -1.2 -4.15 -1.25 -4.1 -1.3 -4.1 -1.3 -3.85 -1.3 -3.65 -1.3 -3.5 -1.3 -3.45 -1.3 -3.35 -1.3 -3.35 -1.25 -3.4 -1.2 -3.4 -1.15 -3.45 -1.2 -3.45 -1.1 -3.4 -1.05 Q-3.55 -0.7 -3.7 -0.5 L-3.8 -0.25 -4.0 -0.05 -4.05 -0.05 -4.1 -0.05 -4.15 -0.3 -4.15 -0.7 -4.15 -1.15" fill="#557aa2" fill-rule="evenodd" stroke="none"/>
    <path d="M-2.15 -1.1 Q-2.15 -1.1 -2.05 -1.1 L-1.95 -1.1 -1.6 -1.1 -1.3 -1.1 -1.3 -1.0 -1.25 -1.15 -1.25 -1.3 -1.2 -1.3 -1.2 -1.0 -1.15 -0.8 -1.15 -1.05 -1.15 -1.2 -1.1 -1.3 -1.1 0.1 -1.1 0.55 -1.15 0.4 -1.15 0.6 -1.15 0.5 -1.15 0.3 -1.2 0.5 -1.2 0.55 -1.2 1.1 -1.25 1.1 -1.25 0.55 -1.25 0.25 -1.25 -0.25 Q-1.25 -0.4 -1.25 -0.45 L-1.25 -0.35 -1.3 -0.2 -1.3 -0.3 -2.4 -0.3 -2.4 -0.2 -2.45 -0.2 -2.55 -0.2 -2.55 -0.35 -2.4 -0.55 -2.3 -0.75 -2.2 -0.9 -2.15 -1.1" fill="#5378a1" fill-rule="evenodd" stroke="none"/>
    <path d="M-2.55 -0.35 L-2.55 -0.2 -2.45 -0.2 -2.4 -0.2 -2.4 -0.3 -1.3 -0.3 -1.3 -0.2 -1.25 -0.35 -1.25 -0.45 Q-1.25 -0.4 -1.25 -0.25 L-1.25 0.25 -1.25 0.55 -1.3 0.7 -1.3 0.7 -1.35 0.55 -1.75 0.55 -2.15 0.55 -2.3 0.55 -2.45 0.6 -2.4 0.6 -2.6 0.65 -2.75 0.5 -2.95 0.3 -2.95 0.15 -2.85 0.0 -2.7 -0.15 -2.65 -0.25 -2.55 -0.35 -2.55 -0.35" fill="#4e739d" fill-rule="evenodd" stroke="none"/>
    <path d="M-1.1 -1.55 L-1.1 2.15 -1.1 2.4 Q-1.1 2.55 -1.15 2.65 -1.15 2.9 -1.3 3.05 -1.45 3.25 -1.65 3.35 -1.9 3.5 -2.15 3.5 L-6.85 3.5 -7.1 3.5 -7.35 3.45 -7.25 3.45 -7.2 3.45 -6.95 3.45 -6.65 3.45 -2.25 3.45 -2.1 3.45 -1.9 3.45 -1.75 3.35 -1.55 3.3 Q-1.55 3.25 -1.4 3.15 L-1.3 3.0 -1.25 2.85 -1.2 2.75 -1.15 2.65 -1.15 2.5 -1.1 2.35 -1.1 1.35 -1.1 1.0 -1.1 0.55 -1.1 0.1 -1.1 -1.3 -1.1 -1.6 -1.1 -1.55" fill="#486175" fill-rule="evenodd" stroke="none"/>
    <path d="M-1.25 0.55 L-1.25 1.1 -1.2 1.1 -1.2 0.55 -1.2 0.5 -1.15 0.3 -1.15 0.5 -1.15 0.6 -1.15 0.4 -1.1 0.55 -1.1 1.0 -1.1 1.35 -1.15 1.5 -1.15 1.8 -1.15 1.7 -1.2 1.5 -1.2 1.9 -1.65 1.9 -2.1 1.9 -6.3 1.9 -7.1 1.9 -7.95 1.9 -8.0 1.85 -8.0 1.65 -8.0 1.5 -8.05 1.5 -8.05 1.15 -8.05 0.15 -8.05 0.35 -8.05 0.55 -8.0 0.6 -8.0 0.7 -7.95 0.8 -7.95 0.9 -7.9 0.85 -7.85 0.9 -7.85 0.7 -6.2 0.7 -6.2 0.8 -6.15 0.75 -6.15 0.85 -6.05 0.8 -6.0 0.85 -5.95 0.75 Q-5.7 1.1 -5.35 1.25 -5.0 1.45 -4.6 1.45 L-4.4 1.45 -4.25 1.4 -4.15 1.3 -4.15 1.0 -4.05 0.85 -4.0 0.8 Q-3.95 0.8 -3.9 0.85 L-3.7 1.05 -3.45 1.3 -3.35 1.4 -3.15 1.45 -2.9 1.45 -2.65 1.45 -2.45 1.45 -2.25 1.4 Q-2.2 1.35 -2.15 1.25 -2.15 1.2 -2.2 1.15 -2.35 0.85 -2.6 0.65 L-2.6 0.65 -2.4 0.6 -2.45 0.6 -2.3 0.55 -2.15 0.55 -1.75 0.55 -1.35 0.55 -1.3 0.7 -1.3 0.7 -1.25 0.55" fill="#466d96" fill-rule="evenodd" stroke="none"/>
    <path d="M-7.35 3.45 L-7.45 3.4 -7.5 3.35 -7.6 3.3 -7.7 3.2 -7.8 3.05 -7.85 2.95 -7.95 2.85 -8.0 2.8 -8.0 2.6 -8.05 2.55 -8.05 1.5 -8.0 1.5 -8.0 1.65 -8.0 1.85 -7.95 1.9 -7.1 1.9 -6.3 1.9 -2.1 1.9 -1.65 1.9 -1.2 1.9 -1.2 1.5 -1.15 1.7 -1.15 1.8 -1.15 1.5 -1.1 1.35 -1.1 2.35 -1.15 2.5 -1.15 2.65 -1.2 2.75 -1.25 2.85 -1.3 3.0 -1.4 3.15 Q-1.55 3.25 -1.55 3.3 L-1.75 3.35 -1.9 3.45 -2.1 3.45 -2.25 3.45 -6.65 3.45 -6.95 3.45 -7.2 3.45 -7.25 3.45 -7.35 3.45" fill="#406792" fill-rule="evenodd" stroke="none"/>
    <path d="M-2.9 0.05 L-2.95 0.15 -3.0 0.25 -2.95 0.35 -2.9 0.4 -2.55 0.7 -2.3 1.05 -2.25 1.15 Q-2.2 1.2 -2.2 1.25 -2.2 1.3 -2.3 1.35 L-2.45 1.4 -3.1 1.4 Q-3.25 1.4 -3.4 1.3 L-3.6 1.1 -3.8 0.9 -3.85 0.8 -3.95 0.75 -4.05 0.8 -4.1 0.85 -4.2 1.05 -4.2 1.25 Q-4.2 1.3 -4.25 1.35 L-4.4 1.4 -4.65 1.4 -4.9 1.4 Q-5.2 1.3 -5.45 1.15 -5.7 1.0 -5.9 0.8 L-6.4 0.05 Q-6.4 0.05 -6.35 0.1 L-6.25 0.2 -6.15 0.4 -6.1 0.5 -6.0 0.6 -5.9 0.7 -5.8 0.8 -5.55 1.0 -5.5 1.1 -5.35 1.15 -5.2 1.25 -5.05 1.3 -4.5 1.35 -4.4 1.35 -4.3 1.3 -4.25 1.25 -4.25 1.1 -4.2 0.95 -4.15 0.8 -4.0 0.7 -3.95 0.75 -3.9 0.75 -3.7 0.9 -3.55 1.05 -3.35 1.25 Q-3.25 1.35 -3.15 1.35 L-2.85 1.35 -2.5 1.35 -2.4 1.35 -2.3 1.3 -2.25 1.25 -2.25 1.2 -2.35 1.1 -2.4 1.0 -2.7 0.7 -2.75 0.6 Q-2.8 0.55 -2.8 0.55 L-2.9 0.5 -2.95 0.4 -3.0 0.35 -3.0 0.3 -3.0 0.2 -3.05 0.15 -3.05 0.05 -3.0 0.1 -2.95 0.05 -2.9 0.05" fill="#f5feff" fill-rule="evenodd" stroke="none"/>
    <path d="M-2.95 0.4 L-2.9 0.5 -2.8 0.55 Q-2.8 0.55 -2.75 0.6 L-2.7 0.7 -2.75 0.7 -2.75 0.75 -2.85 0.7 -2.9 0.65 -2.95 0.7 -3.05 0.75 -3.5 0.75 -3.6 0.75 -3.7 0.7 -3.9 0.75 -3.95 0.75 -4.0 0.7 -4.15 0.8 -4.15 0.75 -4.3 0.7 -4.3 0.75 -4.35 0.75 -4.45 0.75 -4.55 0.75 -5.5 0.75 -5.6 0.75 -5.7 0.75 -5.8 0.7 -5.8 0.8 -5.9 0.7 -6.0 0.6 -6.1 0.5 -6.15 0.4 -6.15 0.35 -6.1 0.35 -6.05 0.35 -6.0 0.35 -5.9 0.3 -5.85 0.3 -5.8 0.35 -4.4 0.35 -4.25 0.35 -4.05 0.35 -3.8 0.35 -3.55 0.35 -3.3 0.35 -3.05 0.3 -3.05 0.35 -2.95 0.4" fill="#e7e7e7" fill-rule="evenodd" stroke="none"/>
    <path d="M-2.7 0.7 L-2.4 1.0 -2.4 1.05 -2.45 1.0 -2.5 1.05 -2.5 1.05 -2.55 1.0 -2.65 1.0 -2.75 1.0 -3.05 1.0 -3.35 1.05 -3.4 1.0 -3.5 1.0 -3.55 1.05 -3.7 0.9 -3.9 0.75 -3.7 0.7 -3.6 0.75 -3.5 0.75 -3.05 0.75 -2.95 0.7 -2.9 0.65 -2.85 0.7 -2.75 0.75 -2.75 0.7 -2.7 0.7" fill="#dfdfde" fill-rule="evenodd" stroke="none"/>
    <path d="M-2.4 1.0 L-2.35 1.1 -2.25 1.2 -2.25 1.25 -2.3 1.3 -2.4 1.35 -2.5 1.35 -2.85 1.35 -3.15 1.35 Q-3.25 1.35 -3.35 1.25 L-3.55 1.05 -3.5 1.0 -3.4 1.0 -3.35 1.05 -3.05 1.0 -2.75 1.0 -2.65 1.0 -2.55 1.0 -2.5 1.05 -2.5 1.05 -2.45 1.0 -2.4 1.05 -2.4 1.0" fill="#d3d3d3" fill-rule="evenodd" stroke="none"/>
    <path d="M-4.15 0.8 L-4.2 0.95 -4.25 1.1 -4.3 1.1 -4.3 1.15 -4.4 1.1 -4.5 1.1 -4.65 1.1 -4.8 1.1 -4.85 1.15 -4.9 1.15 -5.0 1.1 -5.1 1.1 -5.15 1.1 -5.25 1.1 -5.25 1.1 -5.3 1.1 -5.3 1.15 -5.3 1.1 -5.4 1.1 -5.35 1.15 -5.5 1.1 -5.55 1.0 -5.8 0.8 -5.8 0.7 -5.7 0.75 -5.6 0.75 -5.5 0.75 -4.55 0.75 -4.45 0.75 -4.35 0.75 -4.3 0.75 -4.3 0.7 -4.15 0.75 -4.15 0.8" fill="#dddddd" fill-rule="evenodd" stroke="none"/>
    <path d="M-4.25 1.1 L-4.25 1.25 -4.3 1.3 -4.4 1.35 -4.5 1.35 -5.05 1.3 -5.2 1.25 -5.35 1.15 -5.4 1.1 -5.3 1.1 -5.3 1.15 -5.3 1.1 -5.25 1.1 -5.25 1.1 -5.15 1.1 -5.1 1.1 -5.0 1.1 -4.9 1.15 -4.85 1.15 -4.8 1.1 -4.65 1.1 -4.5 1.1 -4.4 1.1 -4.3 1.15 -4.3 1.1 -4.25 1.1" fill="#d1d2d1" fill-rule="evenodd" stroke="none"/>
  </g>
</svg>
