<?xml version="1.0" encoding="UTF-8" standalone="no"?>
<svg xmlns:xlink="http://www.w3.org/1999/xlink" height="3.95px" width="3.35px" xmlns="http://www.w3.org/2000/svg">
  <g transform="matrix(1.0, 0.0, 0.0, 1.0, 1.55, 1.9)">
    <path d="M-0.7 -1.3 L-0.2 -0.7 0.05 -0.4 0.15 -0.25 0.35 -0.05 0.7 0.35 1.05 0.8 1.35 1.15 1.55 1.35 1.65 1.5 1.5 1.6 1.4 1.55 1.15 1.2 0.9 0.9 0.65 0.55 0.4 0.25 0.05 -0.15 -0.05 -0.25 -0.15 -0.35 -0.4 -0.6 -0.65 -0.9 -0.75 -0.85 -0.85 -0.95 -0.8 -1.05 -0.9 -1.05 -0.8 -1.2 -0.8 -1.25 -0.75 -1.4 -0.7 -1.35 -0.7 -1.3 M-1.0 -1.0 L-0.95 -1.05 -0.9 -1.05 -0.9 -1.0 -0.55 -0.6 -0.3 -0.25 -0.25 -0.15 0.05 0.15 0.7 0.9 1.2 1.55 1.3 1.75 1.2 1.75 0.85 1.3 0.55 0.9 0.25 0.55 0.05 0.3 0.05 0.25 -0.2 0.0 -0.4 -0.25 -1.0 -1.0" fill="#837e79" fill-rule="evenodd" stroke="none"/>
    <path d="M1.55 1.35 Q1.55 1.35 1.65 1.45 L1.7 1.45 1.75 1.5 1.8 1.65 1.8 1.75 1.75 1.75 1.55 1.8 1.35 1.9 1.3 1.75 1.2 1.55 0.7 0.9 0.05 0.15 -0.25 -0.15 -0.3 -0.25 -0.55 -0.6 -0.9 -1.0 -0.9 -1.05 -0.8 -1.05 -0.85 -0.95 -0.75 -0.85 -0.5 -0.6 -0.3 -0.35 -0.2 -0.25 0.05 0.0 0.65 0.7 0.9 0.9 1.15 1.2 1.4 1.55 1.5 1.6 1.65 1.5 1.55 1.35 M1.4 2.0 L1.35 2.0 1.3 2.0 1.25 2.0 1.2 1.9 0.95 1.55 0.8 1.35 0.4 0.85 0.05 0.45 0.05 0.4 -0.5 -0.25 -0.9 -0.7 Q-1.0 -0.85 -1.15 -0.95 L-1.15 -0.95 -1.45 -1.15 -1.45 -1.15 -1.4 -1.2 -1.1 -1.25 -1.1 -1.15 -1.3 -1.1 -1.15 -1.0 -1.1 -1.0 -1.0 -1.0 -0.4 -0.25 -0.2 0.0 0.05 0.25 0.05 0.3 0.25 0.55 0.55 0.9 0.85 1.3 1.2 1.75 1.15 1.75 1.4 2.0 M-0.9 -1.05 L-0.9 -1.05" fill="#d9d2ca" fill-rule="evenodd" stroke="none"/>
    <path d="M-1.45 -1.35 L-1.5 -1.4 -1.4 -1.5 -1.3 -1.55 -1.2 -1.55 -1.25 -1.35 -1.25 -1.3 -1.05 -1.4 Q-1.05 -1.4 -0.9 -1.5 L-0.9 -1.4 -0.9 -1.35 -0.95 -1.3 -0.95 -1.4 -1.1 -1.25 Q-1.15 -1.3 -1.3 -1.3 L-1.45 -1.35 M-1.5 -1.6 L-1.5 -1.65 -1.45 -1.7 -1.4 -1.75 -1.25 -1.85 -1.35 -1.75 -1.25 -1.8 -1.2 -1.85 -1.2 -1.85 -1.15 -1.8 -1.15 -1.8 Q-1.25 -1.7 -1.35 -1.65 L-1.5 -1.6 M-0.75 -0.85 L-0.65 -0.9 -0.4 -0.6 -0.15 -0.35 -0.05 -0.25 0.05 -0.15 0.4 0.25 0.65 0.55 0.9 0.9 0.65 0.7 0.05 0.0 -0.2 -0.25 -0.3 -0.35 -0.5 -0.6 -0.75 -0.85" fill="#8e8984" fill-rule="evenodd" stroke="none"/>
    <path d="M1.8 1.75 L1.75 1.8 1.65 1.85 1.6 1.85 1.5 1.85 1.45 1.9 1.4 1.95 1.4 2.0 1.15 1.75 1.2 1.75 1.3 1.75 1.35 1.9 1.55 1.8 1.75 1.75 1.8 1.75" fill="#49412d" fill-rule="evenodd" stroke="none"/>
    <path d="M-1.0 -1.75 L-0.9 -1.75 -0.95 -1.75 -0.9 -1.55 -1.0 -1.6 -1.2 -1.6 -1.0 -1.75 M-0.8 -1.6 L-0.75 -1.55 -0.75 -1.5 -0.7 -1.45 -0.65 -1.4 Q-0.65 -1.4 -0.7 -1.3 L-0.7 -1.3 -0.7 -1.35 -0.75 -1.4 -0.8 -1.25 -0.8 -1.2 -0.9 -1.05 -0.95 -1.05 -1.0 -1.0 -1.1 -1.0 -1.15 -1.0 -1.3 -1.1 -1.1 -1.15 -1.1 -1.25 -0.95 -1.4 -0.95 -1.3 -0.9 -1.35 -0.9 -1.4 -0.8 -1.55 -0.8 -1.6 M-0.9 -1.05 L-0.9 -1.05" fill="#645d55" fill-rule="evenodd" stroke="none"/>
    <path d="M-1.15 -1.8 L-1.1 -1.8 -1.2 -1.65 -1.2 -1.6 -1.0 -1.6 -0.9 -1.55 -0.95 -1.75 -0.9 -1.75 -0.85 -1.7 -0.85 -1.7 -0.8 -1.6 -0.8 -1.6 -0.8 -1.55 -0.9 -1.4 -0.9 -1.5 Q-1.05 -1.4 -1.05 -1.4 L-1.25 -1.3 -1.25 -1.35 -1.2 -1.55 -1.35 -1.65 Q-1.25 -1.7 -1.15 -1.8" fill="#464035" fill-rule="evenodd" stroke="none"/>
    <path d="M-1.25 -1.85 L-1.2 -1.85 -1.25 -1.8 -1.35 -1.75 -1.25 -1.85" fill="#d7c6a1" fill-rule="evenodd" stroke="none"/>
    <path d="M-1.4 -1.5 Q-1.45 -1.45 -1.55 -1.4 L-1.5 -1.45 -1.5 -1.6 -1.35 -1.65 -1.2 -1.55 -1.3 -1.55 -1.4 -1.5" fill="#fffcd8" fill-rule="evenodd" stroke="none"/>
    <path d="M-1.45 -1.15 L-1.5 -1.25 -1.55 -1.35 -1.45 -1.35 -1.3 -1.3 Q-1.15 -1.3 -1.1 -1.25 L-1.4 -1.2 -1.45 -1.15" fill="#fef9dc" fill-rule="evenodd" stroke="none"/>
    <path d="M-1.1 -1.8 L-1.0 -1.8 -1.0 -1.75 -1.2 -1.6 -1.2 -1.65 -1.1 -1.8" fill="#130b04" fill-rule="evenodd" stroke="none"/>
    <path d="M-0.7 -1.3 L-0.2 -0.7 0.05 -0.4 0.15 -0.25 0.35 -0.05 0.7 0.35 1.05 0.8 1.35 1.15 1.55 1.35 Q1.55 1.35 1.65 1.45 L1.7 1.45 1.75 1.5 1.8 1.65 1.8 1.75 1.75 1.8 1.65 1.85 1.6 1.85 1.5 1.85 1.45 1.9 1.4 1.95 1.4 2.0 1.35 2.0 1.3 2.0 1.25 2.0 1.2 1.9 0.95 1.55 0.8 1.35 0.4 0.85 0.05 0.45 0.05 0.4 -0.5 -0.25 -0.9 -0.7 Q-1.0 -0.85 -1.15 -0.95 L-1.15 -0.95 -1.45 -1.15 -1.45 -1.15 -1.5 -1.25 -1.55 -1.35 -1.45 -1.35 -1.5 -1.4 -1.4 -1.5 Q-1.45 -1.45 -1.55 -1.4 L-1.5 -1.45 -1.5 -1.6 -1.5 -1.65 -1.45 -1.7 -1.4 -1.75 -1.25 -1.85 -1.2 -1.85 -1.2 -1.85 -1.15 -1.8 -1.15 -1.8 -1.1 -1.8 -1.0 -1.8 -1.0 -1.75 -0.9 -1.75 -0.85 -1.7 -0.85 -1.7 -0.8 -1.6 -0.8 -1.6 -0.75 -1.55 -0.75 -1.5 -0.7 -1.45 -0.65 -1.4 Q-0.65 -1.4 -0.7 -1.3 L-0.7 -1.3 Z" fill="none" stroke="#000000" stroke-linecap="round" stroke-linejoin="round" stroke-opacity="0.4509804" stroke-width="1.0"/>
  </g>
</svg>
