<?xml version="1.0" encoding="UTF-8" standalone="no"?>
<svg xmlns:xlink="http://www.w3.org/1999/xlink" height="57.8px" width="129.55px" xmlns="http://www.w3.org/2000/svg">
  <g transform="matrix(1.0, 0.0, 0.0, 1.0, 4.2, 7.1)">
    <path d="M0.95 -1.7 Q0.9 -1.45 1.0 -1.35 L-3.25 -1.35 Q-3.15 -1.55 -3.1 -1.7 L0.95 -1.7 M119.25 -1.7 L123.25 -1.7 Q123.4 -1.5 123.6 -1.35 L118.8 -1.35 119.25 -1.7 M125.35 -1.2 L125.35 24.95 125.0 24.95 125.0 -1.2 125.2 -1.15 125.2 -1.15 125.35 -1.2 M105.55 -1.35 L105.45 -1.35 103.0 -1.35 33.75 -1.35 34.0 -1.35 96.3 -1.35 102.5 -1.35 105.55 -1.35 M4.6 -1.05 L5.55 -0.7 -3.25 -0.7 -3.25 19.4 -3.25 19.6 -3.25 26.55 -3.25 32.2 -3.25 36.4 -3.25 41.2 -3.25 49.7 -3.25 49.7 1.15 49.7 Q1.15 49.95 1.2 50.05 L-3.4 50.05 -3.5 50.0 -3.5 50.0 -3.55 49.9 -3.55 -0.7 Q-3.35 -0.7 -3.2 -0.95 L-3.15 -0.95 -3.1 -1.05 -1.5 -1.05 -0.65 -1.05 4.25 -1.05 4.6 -1.05 M105.2 -0.7 L105.55 -1.05 124.5 -1.05 124.55 -1.05 124.6 -1.0 124.65 -0.9 124.65 24.95 124.45 24.95 124.4 24.95 124.35 24.95 124.35 19.6 124.35 19.4 124.35 -0.7 105.2 -0.7 M30.65 -2.65 L31.1 -2.65 30.95 -2.9 75.1 -2.95 75.55 -2.95 76.65 -2.95 76.8 -2.95 80.85 -2.95 81.85 -2.95 83.1 -2.95 83.6 -2.95 84.65 -2.95 84.65 -2.9 93.1 -2.9 92.95 -2.8 92.8 -2.65 92.75 -2.6 42.85 -2.6 41.9 -2.6 30.65 -2.6 30.65 -2.65 M28.85 -7.1 L32.85 -7.1 Q32.85 -6.85 32.9 -6.75 L28.95 -6.75 28.7 -6.75 28.7 -6.8 28.85 -7.1 M88.55 -7.1 L90.35 -7.1 90.8 -7.1 92.55 -7.1 Q92.7 -6.9 92.9 -6.75 L88.15 -6.75 88.55 -7.1 M47.45 -6.75 L69.2 -6.75 73.05 -6.75 76.15 -6.75 76.05 -6.7 73.55 -6.7 45.1 -6.75 45.6 -6.75 47.45 -6.75 M50.25 -2.9 L45.9 -2.9 44.05 -2.75 50.75 -2.75 58.9 -2.75 61.15 -2.75 68.35 -2.75 73.9 -2.75 73.35 -2.9 68.6 -2.9 50.25 -2.9 M124.35 36.4 L124.35 32.2 124.35 26.35 124.35 24.95 124.4 24.95 124.45 24.95 124.65 24.95 124.65 49.9 124.6 50.0 124.5 50.05 119.3 50.05 119.05 50.05 119.45 49.7 124.35 49.7 124.35 41.2 124.35 36.4 M125.0 24.95 L125.35 24.95 125.35 50.2 Q125.35 50.4 125.2 50.55 125.05 50.7 124.85 50.7 L110.3 50.7 Q110.8 50.55 111.15 50.35 L115.75 50.35 116.85 50.35 124.85 50.35 124.95 50.35 125.0 50.2 125.0 24.95 M9.9 50.7 L-3.7 50.7 Q-3.9 50.7 -4.05 50.55 -4.2 50.4 -4.2 50.2 L-4.2 -0.75 Q-4.05 -0.75 -3.9 -0.85 L-3.9 32.4 -3.9 42.65 -3.9 50.2 -3.85 50.35 -3.75 50.35 -3.7 50.35 3.35 50.4 3.55 50.4 4.25 50.4 4.85 50.4 8.75 50.4 9.5 50.55 9.65 50.55 9.9 50.7 M3.55 50.4 L3.35 50.4 3.55 50.4" fill="#2e3231" fill-rule="evenodd" stroke="none"/>
    <path d="M1.0 -1.35 Q0.9 -1.45 0.95 -1.7 L4.25 -1.7 4.85 -1.7 6.65 -1.7 10.65 -1.35 1.0 -1.35 M-3.1 -1.7 Q-3.15 -1.55 -3.25 -1.35 L-3.55 -1.35 -3.55 -1.65 -3.5 -1.7 -3.1 -1.7 M110.0 -1.7 L110.05 -1.7 119.25 -1.7 118.8 -1.35 116.85 -1.35 112.45 -1.35 110.0 -1.35 105.55 -1.35 102.5 -1.35 103.3 -1.6 109.45 -1.6 110.0 -1.7 M123.25 -1.7 L124.85 -1.7 Q125.05 -1.7 125.2 -1.55 125.35 -1.4 125.35 -1.2 L125.2 -1.15 125.2 -1.15 125.0 -1.2 124.95 -1.3 124.85 -1.35 123.6 -1.35 Q123.4 -1.5 123.25 -1.7 M4.6 -1.05 L4.85 -1.05 6.05 -1.05 7.5 -0.85 101.75 -0.85 101.95 -0.9 102.15 -0.9 Q102.35 -0.95 102.35 -1.05 L105.55 -1.05 105.2 -0.7 5.55 -0.7 4.6 -1.05 M-3.1 -1.05 L-3.15 -0.95 -3.2 -0.95 Q-3.35 -0.7 -3.55 -0.7 L-3.55 -0.9 -3.5 -1.0 -3.45 -1.05 -3.4 -1.05 -3.1 -1.05 M1.2 50.05 Q1.15 49.95 1.15 49.7 L4.25 49.7 4.85 49.7 7.05 49.7 9.8 49.95 103.4 49.9 103.7 49.85 109.85 49.85 110.45 49.7 119.45 49.7 119.05 50.05 118.8 50.05 115.35 50.05 112.85 50.1 110.4 50.1 1.2 50.05 M28.7 -6.8 L28.7 -6.95 28.85 -7.1 28.85 -7.1 28.7 -6.8 M32.85 -7.1 L41.65 -7.1 45.6 -6.75 45.1 -6.75 32.9 -6.75 Q32.85 -6.85 32.85 -7.1 M80.6 -7.1 L88.55 -7.1 88.15 -6.75 85.3 -6.75 85.2 -6.75 84.65 -6.75 84.65 -6.7 83.6 -6.7 83.05 -6.7 80.55 -6.7 76.15 -6.75 73.05 -6.75 73.85 -6.95 80.05 -6.95 80.55 -7.05 80.6 -7.1 M92.55 -7.1 L93.15 -7.1 93.15 -6.75 92.9 -6.75 Q92.7 -6.9 92.55 -7.1 M50.75 -2.75 L44.05 -2.75 45.9 -2.9 50.25 -2.9 Q50.35 -2.85 50.5 -2.85 L50.75 -2.75 M68.6 -2.9 L73.35 -2.9 73.9 -2.75 68.35 -2.75 68.5 -2.85 68.6 -2.9 M92.75 -2.6 L92.8 -2.65 92.95 -2.8 93.1 -2.9 93.15 -2.9 93.15 -2.6 92.75 -2.6 M110.3 50.7 L9.9 50.7 9.65 50.55 9.5 50.55 8.75 50.4 13.35 50.4 13.5 50.4 14.05 50.55 84.25 50.45 85.7 50.55 102.35 50.55 102.9 50.45 103.2 50.35 111.15 50.35 Q110.8 50.55 110.3 50.7 M-4.2 -0.75 L-4.2 -1.2 -4.15 -1.35 -3.9 -1.2 -3.9 -0.85 Q-4.05 -0.75 -4.2 -0.75" fill="#525655" fill-rule="evenodd" stroke="none"/>
    <path d="M10.65 -1.35 L6.65 -1.7 7.6 -1.7 11.2 -1.7 11.65 -1.7 11.65 -1.7 11.2 -1.7 11.65 -1.7 12.5 -1.35 10.65 -1.35 M102.45 -1.7 L110.0 -1.7 109.45 -1.6 103.3 -1.6 102.5 -1.35 96.3 -1.35 102.45 -1.7 M102.35 -1.05 Q102.35 -0.95 102.15 -0.9 L101.95 -0.9 101.75 -0.85 7.5 -0.85 6.05 -1.05 102.35 -1.05 M41.65 -7.1 L42.55 -7.05 46.6 -7.1 47.45 -6.75 45.6 -6.75 41.65 -7.1 M73.0 -7.1 L80.6 -7.1 80.55 -7.05 80.05 -6.95 73.85 -6.95 73.05 -6.75 69.2 -6.75 73.0 -7.1 M50.25 -2.9 L68.6 -2.9 68.5 -2.85 68.35 -2.75 61.15 -2.75 58.9 -2.75 50.75 -2.75 50.5 -2.85 Q50.35 -2.85 50.25 -2.9 M-4.15 -1.35 L-4.05 -1.55 Q-3.9 -1.7 -3.7 -1.7 L-3.5 -1.7 -3.55 -1.65 -3.55 -1.35 -3.7 -1.35 -3.85 -1.3 -3.9 -1.2 -4.15 -1.35 M103.2 50.35 L102.9 50.45 102.35 50.55 85.7 50.55 84.25 50.45 14.05 50.55 13.5 50.4 13.7 50.4 102.8 50.35 Q102.95 50.3 103.1 50.35 L103.2 50.35 M110.45 49.7 L109.85 49.85 103.7 49.85 103.4 49.9 9.8 49.95 7.05 49.7 12.05 49.7 12.4 49.85 101.3 49.85 102.8 49.7 110.45 49.7" fill="#9a9b9b" fill-rule="evenodd" stroke="none"/>
    <path d="M-3.25 19.6 L-3.25 19.4 124.35 19.4 124.35 19.6 103.3 19.6 89.0 19.6 77.45 19.6 76.0 19.6 48.4 19.6 39.95 19.6 34.0 19.6 17.8 19.6 -3.25 19.6" fill="#d5d7d5" fill-opacity="0.8" fill-rule="evenodd" stroke="none"/>
    <path d="M5.55 -0.7 L105.2 -0.7 124.35 -0.7 124.35 19.4 -3.25 19.4 -3.25 -0.7 5.55 -0.7" fill="#1e1e1e" fill-opacity="0.54901963" fill-rule="evenodd" stroke="none"/>
    <path d="M92.5 -6.6 L92.45 -6.6 92.4 -6.6 84.65 -6.6 84.65 -6.55 84.1 -6.55 84.0 -6.55 83.05 -6.55 82.75 -6.55 81.55 -6.55 81.3 -6.55 80.8 -6.55 80.7 -6.55 80.55 -6.55 76.5 -6.55 76.25 -6.55 75.25 -6.55 74.85 -6.55 74.2 -6.55 73.55 -6.55 73.25 -6.55 29.7 -6.6 29.2 -6.6 29.05 -6.6 Q29.25 -6.7 29.5 -6.7 L29.6 -6.75 29.05 -6.75 28.85 -6.55 28.9 -6.65 28.9 -6.65 28.95 -6.7 29.05 -6.75 28.95 -6.75 28.95 -6.75 32.9 -6.75 45.1 -6.75 73.55 -6.7 76.05 -6.7 76.15 -6.75 80.55 -6.7 83.05 -6.7 83.6 -6.7 84.65 -6.7 84.65 -6.75 85.2 -6.75 85.3 -6.75 88.15 -6.75 92.9 -6.75 93.15 -6.75 93.15 -6.6 92.5 -6.6" fill="#34514d" fill-rule="evenodd" stroke="none"/>
    <path d="M92.7 -6.55 L93.05 -6.45 93.05 -6.4 29.0 -6.4 Q29.15 -6.5 29.35 -6.55 L29.45 -6.55 29.6 -6.6 29.7 -6.6 73.25 -6.55 73.35 -6.55 74.2 -6.55 74.85 -6.55 75.25 -6.55 76.25 -6.55 79.15 -6.55 80.25 -6.55 80.7 -6.55 80.8 -6.55 81.3 -6.55 81.55 -6.55 82.75 -6.55 83.05 -6.55 84.0 -6.55 84.1 -6.55 84.65 -6.55 84.65 -6.6 92.4 -6.6 92.45 -6.6 92.5 -6.6 92.55 -6.6 92.7 -6.55" fill="#d2e7e4" fill-rule="evenodd" stroke="none"/>
    <path d="M11.65 -1.7 L12.1 -1.7 11.65 -1.7 11.65 -1.7 M34.0 -1.7 L102.45 -1.7 96.3 -1.35 34.0 -1.35 34.0 -1.7 M46.6 -7.1 L73.0 -7.1 69.2 -6.75 47.45 -6.75 46.6 -7.1 M102.8 49.7 L101.3 49.85 12.4 49.85 12.05 49.7 102.8 49.7" fill="#c4c6c6" fill-rule="evenodd" stroke="none"/>
    <path d="M103.3 41.2 L124.35 41.2 124.35 49.7 103.3 49.7 103.3 41.2" fill="url(#gradient0)" fill-rule="evenodd" stroke="none"/>
    <path d="M76.0 41.2 L77.45 41.2 77.45 49.7 76.0 49.7 76.0 41.2" fill="url(#gradient1)" fill-rule="evenodd" stroke="none"/>
    <path d="M77.45 49.7 L77.45 41.2 89.0 41.2 89.0 49.7 77.45 49.7" fill="url(#gradient2)" fill-rule="evenodd" stroke="none"/>
    <path d="M89.0 49.7 L89.0 41.2 103.3 41.2 103.3 49.7 89.0 49.7" fill="url(#gradient3)" fill-rule="evenodd" stroke="none"/>
    <path d="M48.4 41.2 L76.0 41.2 76.0 49.7 48.4 49.7 48.4 41.2" fill="url(#gradient4)" fill-rule="evenodd" stroke="none"/>
    <path d="M34.0 41.2 L39.95 41.2 39.95 49.7 34.0 49.7 34.0 41.2" fill="url(#gradient5)" fill-rule="evenodd" stroke="none"/>
    <path d="M39.95 41.2 L48.4 41.2 48.4 49.7 39.95 49.7 39.95 41.2" fill="url(#gradient6)" fill-rule="evenodd" stroke="none"/>
    <path d="M17.8 49.7 L17.8 41.2 34.0 41.2 34.0 49.7 17.8 49.7" fill="url(#gradient7)" fill-rule="evenodd" stroke="none"/>
    <path d="M-3.25 49.7 L-3.25 41.2 17.8 41.2 17.8 49.7 -3.25 49.7" fill="url(#gradient8)" fill-rule="evenodd" stroke="none"/>
    <path d="M103.3 36.4 L124.35 36.4 124.35 41.2 103.3 41.2 103.3 36.4" fill="url(#gradient9)" fill-rule="evenodd" stroke="none"/>
    <path d="M76.0 36.4 L77.45 36.4 77.45 41.2 76.0 41.2 76.0 36.4" fill="url(#gradient10)" fill-rule="evenodd" stroke="none"/>
    <path d="M77.45 41.2 L77.45 36.4 89.0 36.4 89.0 41.2 77.45 41.2" fill="url(#gradient11)" fill-rule="evenodd" stroke="none"/>
    <path d="M89.0 36.4 L103.3 36.4 103.3 41.2 89.0 41.2 89.0 36.4" fill="url(#gradient12)" fill-rule="evenodd" stroke="none"/>
    <path d="M76.0 36.4 L76.0 41.2 48.4 41.2 48.4 36.4 76.0 36.4" fill="url(#gradient13)" fill-rule="evenodd" stroke="none"/>
    <path d="M39.95 36.4 L39.95 41.2 34.0 41.2 34.0 36.4 39.95 36.4" fill="url(#gradient14)" fill-rule="evenodd" stroke="none"/>
    <path d="M48.4 36.4 L48.4 41.2 39.95 41.2 39.95 36.4 48.4 36.4" fill="url(#gradient15)" fill-rule="evenodd" stroke="none"/>
    <path d="M34.0 36.4 L34.0 41.2 17.8 41.2 17.8 36.4 34.0 36.4" fill="url(#gradient16)" fill-rule="evenodd" stroke="none"/>
    <path d="M-3.25 41.2 L-3.25 36.4 17.8 36.4 17.8 41.2 -3.25 41.2" fill="url(#gradient17)" fill-rule="evenodd" stroke="none"/>
    <path d="M29.45 -6.55 L29.35 -6.55 Q29.15 -6.5 29.0 -6.4 L93.05 -6.4 93.05 -6.45 92.7 -6.55 93.05 -6.55 93.05 -6.55 93.15 -6.55 93.15 -2.95 93.1 -2.9 84.65 -2.9 84.65 -2.95 83.6 -2.95 83.1 -2.95 81.85 -2.95 80.85 -2.95 76.8 -2.95 76.65 -2.95 75.55 -2.95 75.1 -2.95 30.95 -2.9 31.1 -2.65 30.65 -2.65 29.2 -2.65 Q28.9 -2.8 28.7 -3.05 L28.7 -6.4 28.8 -6.5 28.8 -6.55 28.85 -6.55 29.05 -6.75 29.6 -6.75 29.5 -6.7 Q29.25 -6.7 29.05 -6.6 L29.0 -6.55 29.45 -6.55" fill="url(#gradient18)" fill-rule="evenodd" stroke="none"/>
    <path d="M124.35 32.2 L103.3 32.2 103.3 26.4 124.35 26.35 124.35 32.2" fill="url(#gradient19)" fill-rule="evenodd" stroke="none"/>
    <path d="M103.3 26.4 L103.3 32.2 89.0 32.2 89.0 26.4 103.3 26.4" fill="url(#gradient20)" fill-rule="evenodd" stroke="none"/>
    <path d="M124.4 24.95 L124.45 24.95 124.4 24.95" fill="url(#gradient21)" fill-rule="evenodd" stroke="none"/>
    <path d="M124.35 19.6 L124.35 24.95 124.4 24.95 124.35 24.95 124.35 26.35 103.3 26.4 103.3 19.6 124.35 19.6" fill="url(#gradient22)" fill-rule="evenodd" stroke="none"/>
    <path d="M103.3 26.4 L89.0 26.4 89.0 19.6 103.3 19.6 103.3 26.4" fill="url(#gradient23)" fill-rule="evenodd" stroke="none"/>
    <path d="M76.0 19.6 L77.45 19.6 77.45 26.45 76.0 26.45 76.0 19.6" fill="url(#gradient24)" fill-rule="evenodd" stroke="none"/>
    <path d="M77.45 26.45 L77.45 32.2 76.0 32.2 76.0 26.45 77.45 26.45" fill="url(#gradient25)" fill-rule="evenodd" stroke="none"/>
    <path d="M76.0 26.45 L76.0 32.2 48.4 32.2 48.4 26.45 76.0 26.45" fill="url(#gradient26)" fill-rule="evenodd" stroke="none"/>
    <path d="M89.0 26.4 L89.0 32.2 77.45 32.2 77.45 26.45 89.0 26.4" fill="url(#gradient27)" fill-rule="evenodd" stroke="none"/>
    <path d="M89.0 19.6 L89.0 26.4 77.45 26.45 77.45 19.6 89.0 19.6" fill="url(#gradient28)" fill-rule="evenodd" stroke="none"/>
    <path d="M76.0 26.45 L48.4 26.45 48.4 19.6 76.0 19.6 76.0 26.45" fill="url(#gradient29)" fill-rule="evenodd" stroke="none"/>
    <path d="M34.0 19.6 L39.95 19.6 39.95 26.45 34.0 26.5 34.0 19.6" fill="url(#gradient30)" fill-rule="evenodd" stroke="none"/>
    <path d="M48.4 19.6 L48.4 26.45 39.95 26.45 39.95 19.6 48.4 19.6" fill="url(#gradient31)" fill-rule="evenodd" stroke="none"/>
    <path d="M39.95 26.45 L39.95 32.2 34.0 32.2 34.0 26.5 39.95 26.45" fill="url(#gradient32)" fill-rule="evenodd" stroke="none"/>
    <path d="M34.0 32.2 L17.8 32.2 17.8 26.5 34.0 26.5 34.0 32.2" fill="url(#gradient33)" fill-rule="evenodd" stroke="none"/>
    <path d="M48.4 26.45 L48.4 32.2 39.95 32.2 39.95 26.45 48.4 26.45" fill="url(#gradient34)" fill-rule="evenodd" stroke="none"/>
    <path d="M34.0 19.6 L34.0 26.5 17.8 26.5 17.8 19.6 34.0 19.6" fill="url(#gradient35)" fill-rule="evenodd" stroke="none"/>
    <path d="M-3.25 32.2 L-3.25 26.55 17.8 26.5 17.8 32.2 -3.25 32.2" fill="url(#gradient36)" fill-rule="evenodd" stroke="none"/>
    <path d="M-3.25 26.55 L-3.25 19.6 17.8 19.6 17.8 26.5 -3.25 26.55" fill="url(#gradient37)" fill-rule="evenodd" stroke="none"/>
    <path d="M103.3 36.4 L103.3 32.2 124.35 32.2 124.35 36.4 103.3 36.4" fill="url(#gradient38)" fill-rule="evenodd" stroke="none"/>
    <path d="M103.3 32.2 L103.3 36.4 89.0 36.4 89.0 32.2 103.3 32.2" fill="url(#gradient39)" fill-rule="evenodd" stroke="none"/>
    <path d="M77.45 36.4 L76.0 36.4 76.0 32.2 77.45 32.2 77.45 36.4" fill="url(#gradient40)" fill-rule="evenodd" stroke="none"/>
    <path d="M77.45 32.2 L89.0 32.2 89.0 36.4 77.45 36.4 77.45 32.2" fill="url(#gradient41)" fill-rule="evenodd" stroke="none"/>
    <path d="M76.0 32.2 L76.0 36.4 48.4 36.4 48.4 32.2 76.0 32.2" fill="url(#gradient42)" fill-rule="evenodd" stroke="none"/>
    <path d="M39.95 36.4 L34.0 36.4 34.0 32.2 39.95 32.2 39.95 36.4" fill="url(#gradient43)" fill-rule="evenodd" stroke="none"/>
    <path d="M39.95 32.2 L48.4 32.2 48.4 36.4 39.95 36.4 39.95 32.2" fill="url(#gradient44)" fill-rule="evenodd" stroke="none"/>
    <path d="M34.0 32.2 L34.0 36.4 17.8 36.4 17.8 32.2 34.0 32.2" fill="url(#gradient45)" fill-rule="evenodd" stroke="none"/>
    <path d="M-3.25 36.4 L-3.25 32.2 17.8 32.2 17.8 36.4 -3.25 36.4" fill="url(#gradient46)" fill-rule="evenodd" stroke="none"/>
    <path d="M0.95 -1.7 L-3.1 -1.7 -3.5 -1.7 -3.7 -1.7 Q-3.9 -1.7 -4.05 -1.55 L-4.15 -1.35 -4.2 -1.2 -4.2 -0.75 -4.2 50.2 Q-4.2 50.4 -4.05 50.55 -3.9 50.7 -3.7 50.7 L9.9 50.7 110.3 50.7 124.85 50.7 Q125.05 50.7 125.2 50.55 125.35 50.4 125.35 50.2 L125.35 24.95 125.35 -1.2 Q125.35 -1.4 125.2 -1.55 125.05 -1.7 124.85 -1.7 L123.25 -1.7 119.25 -1.7 110.05 -1.7 M-3.25 -1.35 L1.0 -1.35 10.65 -1.35 M6.65 -1.7 L4.85 -1.7 M4.25 -1.7 L0.95 -1.7 M6.65 -1.7 L7.6 -1.7 11.2 -1.7 11.65 -1.7 12.1 -1.7 34.0 -1.7 102.45 -1.7 110.0 -1.7 M125.0 24.95 L125.0 -1.2 124.95 -1.3 124.85 -1.35 123.6 -1.35 118.8 -1.35 116.85 -1.35 112.45 -1.35 110.0 -1.35 105.55 -1.35 105.45 -1.35 103.0 -1.35 33.75 -1.35 33.5 -1.35 M5.55 -0.7 L105.2 -0.7 124.35 -0.7 124.35 19.4 124.35 19.6 124.35 24.95 124.35 26.35 124.35 32.2 124.35 36.4 124.35 41.2 124.35 49.7 119.45 49.7 110.45 49.7 102.8 49.7 12.05 49.7 7.05 49.7 4.85 49.7 M6.05 -1.05 L4.85 -1.05 M4.25 -1.05 L-0.65 -1.05 -1.5 -1.05 -3.1 -1.05 -3.4 -1.05 -3.45 -1.05 -3.5 -1.0 -3.55 -0.9 -3.55 -0.7 -3.55 49.9 -3.5 50.0 -3.5 50.0 -3.4 50.05 1.2 50.05 110.4 50.1 112.85 50.1 115.35 50.05 118.8 50.05 119.3 50.05 124.5 50.05 124.6 50.0 124.65 49.9 124.65 24.95 124.65 -0.9 124.6 -1.0 124.55 -1.05 124.5 -1.05 105.55 -1.05 M1.15 49.7 L-3.25 49.7 -3.25 49.7 -3.25 41.2 -3.25 36.4 -3.25 32.2 -3.25 26.55 -3.25 19.6 -3.25 19.4 -3.25 -0.7 5.55 -0.7 M12.5 -1.35 L33.3 -1.35 M93.1 -2.9 L93.15 -2.9 M13.35 50.4 L8.75 50.4 4.85 50.4 M116.85 50.35 L124.85 50.35 124.95 50.35 125.0 50.2 125.0 24.95 M4.25 49.7 L1.15 49.7 M13.7 50.4 L102.8 50.35 Q102.95 50.3 103.1 50.35 L103.2 50.35 111.15 50.35 115.75 50.35 M3.35 50.4 L3.55 50.4 3.35 50.4 -3.7 50.35 -3.75 50.35 -3.85 50.35 -3.9 50.2 -3.9 42.65 M-3.9 32.4 L-3.9 -0.85 -3.9 -1.2 -3.85 -1.3 -3.7 -1.35 -3.55 -1.35 -3.25 -1.35 M3.55 50.4 L4.25 50.4" fill="none" stroke="#000000" stroke-linecap="round" stroke-linejoin="round" stroke-opacity="0.4" stroke-width="1.0"/>
  </g>
  <defs>
    <linearGradient gradientTransform="matrix(0.0129, 0.0, 0.0, 0.0136, 113.85, 38.55)" gradientUnits="userSpaceOnUse" id="gradient0" spreadMethod="pad" x1="-819.2" x2="819.2">
      <stop offset="0.0" stop-color="#000000" stop-opacity="0.8"/>
      <stop offset="0.8588235294117647" stop-color="#0e0e0e" stop-opacity="0.8"/>
      <stop offset="1.0" stop-color="#000000" stop-opacity="0.8"/>
    </linearGradient>
    <linearGradient gradientTransform="matrix(0.022, 0.0, 0.0, 0.0136, 59.4, 38.55)" gradientUnits="userSpaceOnUse" id="gradient1" spreadMethod="pad" x1="-819.2" x2="819.2">
      <stop offset="0.0" stop-color="#000000" stop-opacity="0.8"/>
      <stop offset="0.8588235294117647" stop-color="#0e0e0e" stop-opacity="0.8"/>
      <stop offset="1.0" stop-color="#000000" stop-opacity="0.8"/>
    </linearGradient>
    <linearGradient gradientTransform="matrix(0.022, 0.0, 0.0, 0.0136, 95.4, 38.55)" gradientUnits="userSpaceOnUse" id="gradient2" spreadMethod="pad" x1="-819.2" x2="819.2">
      <stop offset="0.0" stop-color="#000000" stop-opacity="0.8"/>
      <stop offset="0.8588235294117647" stop-color="#0e0e0e" stop-opacity="0.8"/>
      <stop offset="1.0" stop-color="#000000" stop-opacity="0.8"/>
    </linearGradient>
    <linearGradient gradientTransform="matrix(0.0129, 0.0, 0.0, 0.0136, 92.75, 38.55)" gradientUnits="userSpaceOnUse" id="gradient3" spreadMethod="pad" x1="-819.2" x2="819.2">
      <stop offset="0.0" stop-color="#000000" stop-opacity="0.8"/>
      <stop offset="0.8588235294117647" stop-color="#0e0e0e" stop-opacity="0.8"/>
      <stop offset="1.0" stop-color="#000000" stop-opacity="0.8"/>
    </linearGradient>
    <linearGradient gradientTransform="matrix(0.0267, 0.0, 0.0, 0.0136, 55.85, 38.55)" gradientUnits="userSpaceOnUse" id="gradient4" spreadMethod="pad" x1="-819.2" x2="819.2">
      <stop offset="0.0" stop-color="#000000" stop-opacity="0.8"/>
      <stop offset="0.8588235294117647" stop-color="#0e0e0e" stop-opacity="0.8"/>
      <stop offset="1.0" stop-color="#000000" stop-opacity="0.8"/>
    </linearGradient>
    <linearGradient gradientTransform="matrix(0.0156, 0.0, 0.0, 0.0136, 27.15, 38.55)" gradientUnits="userSpaceOnUse" id="gradient5" spreadMethod="pad" x1="-819.2" x2="819.2">
      <stop offset="0.0" stop-color="#000000" stop-opacity="0.8"/>
      <stop offset="0.8588235294117647" stop-color="#0e0e0e" stop-opacity="0.8"/>
      <stop offset="1.0" stop-color="#000000" stop-opacity="0.8"/>
    </linearGradient>
    <linearGradient gradientTransform="matrix(0.0156, 0.0, 0.0, 0.0136, 52.75, 38.55)" gradientUnits="userSpaceOnUse" id="gradient6" spreadMethod="pad" x1="-819.2" x2="819.2">
      <stop offset="0.0" stop-color="#000000" stop-opacity="0.8"/>
      <stop offset="0.8588235294117647" stop-color="#0e0e0e" stop-opacity="0.8"/>
      <stop offset="1.0" stop-color="#000000" stop-opacity="0.8"/>
    </linearGradient>
    <linearGradient gradientTransform="matrix(0.0129, 0.0, 0.0, 0.0136, 28.35, 38.55)" gradientUnits="userSpaceOnUse" id="gradient7" spreadMethod="pad" x1="-819.2" x2="819.2">
      <stop offset="0.0" stop-color="#000000" stop-opacity="0.8"/>
      <stop offset="0.8588235294117647" stop-color="#0e0e0e" stop-opacity="0.8"/>
      <stop offset="1.0" stop-color="#000000" stop-opacity="0.8"/>
    </linearGradient>
    <linearGradient gradientTransform="matrix(0.0129, 0.0, 0.0, 0.0136, 7.25, 38.55)" gradientUnits="userSpaceOnUse" id="gradient8" spreadMethod="pad" x1="-819.2" x2="819.2">
      <stop offset="0.0" stop-color="#000000" stop-opacity="0.8"/>
      <stop offset="0.8588235294117647" stop-color="#0e0e0e" stop-opacity="0.8"/>
      <stop offset="1.0" stop-color="#000000" stop-opacity="0.8"/>
    </linearGradient>
    <linearGradient gradientTransform="matrix(0.0129, 0.0, 0.0, 0.0926, 113.85, 24.55)" gradientUnits="userSpaceOnUse" id="gradient9" spreadMethod="pad" x1="-819.2" x2="819.2">
      <stop offset="0.0" stop-color="#000000" stop-opacity="0.8"/>
      <stop offset="0.8588235294117647" stop-color="#0e0e0e" stop-opacity="0.8"/>
      <stop offset="1.0" stop-color="#000000" stop-opacity="0.8"/>
    </linearGradient>
    <linearGradient gradientTransform="matrix(0.022, 0.0, 0.0, 0.0926, 59.4, 24.55)" gradientUnits="userSpaceOnUse" id="gradient10" spreadMethod="pad" x1="-819.2" x2="819.2">
      <stop offset="0.0" stop-color="#000000" stop-opacity="0.8"/>
      <stop offset="0.8588235294117647" stop-color="#0e0e0e" stop-opacity="0.8"/>
      <stop offset="1.0" stop-color="#000000" stop-opacity="0.8"/>
    </linearGradient>
    <linearGradient gradientTransform="matrix(0.022, 0.0, 0.0, 0.0926, 95.4, 24.55)" gradientUnits="userSpaceOnUse" id="gradient11" spreadMethod="pad" x1="-819.2" x2="819.2">
      <stop offset="0.0" stop-color="#000000" stop-opacity="0.8"/>
      <stop offset="0.8588235294117647" stop-color="#0e0e0e" stop-opacity="0.8"/>
      <stop offset="1.0" stop-color="#000000" stop-opacity="0.8"/>
    </linearGradient>
    <linearGradient gradientTransform="matrix(0.0129, 0.0, 0.0, 0.0926, 92.75, 24.55)" gradientUnits="userSpaceOnUse" id="gradient12" spreadMethod="pad" x1="-819.2" x2="819.2">
      <stop offset="0.0" stop-color="#000000" stop-opacity="0.8"/>
      <stop offset="0.8588235294117647" stop-color="#0e0e0e" stop-opacity="0.8"/>
      <stop offset="1.0" stop-color="#000000" stop-opacity="0.8"/>
    </linearGradient>
    <linearGradient gradientTransform="matrix(0.0267, 0.0, 0.0, 0.0926, 55.85, 24.55)" gradientUnits="userSpaceOnUse" id="gradient13" spreadMethod="pad" x1="-819.2" x2="819.2">
      <stop offset="0.0" stop-color="#000000" stop-opacity="0.8"/>
      <stop offset="0.8588235294117647" stop-color="#0e0e0e" stop-opacity="0.8"/>
      <stop offset="1.0" stop-color="#000000" stop-opacity="0.8"/>
    </linearGradient>
    <linearGradient gradientTransform="matrix(0.0156, 0.0, 0.0, 0.0926, 27.15, 24.55)" gradientUnits="userSpaceOnUse" id="gradient14" spreadMethod="pad" x1="-819.2" x2="819.2">
      <stop offset="0.0" stop-color="#000000" stop-opacity="0.8"/>
      <stop offset="0.8588235294117647" stop-color="#0e0e0e" stop-opacity="0.8"/>
      <stop offset="1.0" stop-color="#000000" stop-opacity="0.8"/>
    </linearGradient>
    <linearGradient gradientTransform="matrix(0.0156, 0.0, 0.0, 0.0926, 52.75, 24.55)" gradientUnits="userSpaceOnUse" id="gradient15" spreadMethod="pad" x1="-819.2" x2="819.2">
      <stop offset="0.0" stop-color="#000000" stop-opacity="0.8"/>
      <stop offset="0.8588235294117647" stop-color="#0e0e0e" stop-opacity="0.8"/>
      <stop offset="1.0" stop-color="#000000" stop-opacity="0.8"/>
    </linearGradient>
    <linearGradient gradientTransform="matrix(0.0129, 0.0, 0.0, 0.0926, 28.35, 24.55)" gradientUnits="userSpaceOnUse" id="gradient16" spreadMethod="pad" x1="-819.2" x2="819.2">
      <stop offset="0.0" stop-color="#000000" stop-opacity="0.8"/>
      <stop offset="0.8588235294117647" stop-color="#0e0e0e" stop-opacity="0.8"/>
      <stop offset="1.0" stop-color="#000000" stop-opacity="0.8"/>
    </linearGradient>
    <linearGradient gradientTransform="matrix(0.0129, 0.0, 0.0, 0.0926, 7.25, 24.55)" gradientUnits="userSpaceOnUse" id="gradient17" spreadMethod="pad" x1="-819.2" x2="819.2">
      <stop offset="0.0" stop-color="#000000" stop-opacity="0.8"/>
      <stop offset="0.8588235294117647" stop-color="#0e0e0e" stop-opacity="0.8"/>
      <stop offset="1.0" stop-color="#000000" stop-opacity="0.8"/>
    </linearGradient>
    <linearGradient gradientTransform="matrix(0.0, -0.0042, 0.0026, 0.0, 51.05, -4.75)" gradientUnits="userSpaceOnUse" id="gradient18" spreadMethod="pad" x1="-819.2" x2="819.2">
      <stop offset="0.0" stop-color="#3f4348" stop-opacity="0.4509804"/>
      <stop offset="0.8156862745098039" stop-color="#5db9ac" stop-opacity="0.9607843"/>
      <stop offset="1.0" stop-color="#dafff7"/>
    </linearGradient>
    <linearGradient gradientTransform="matrix(0.0129, 0.0, 0.0, 0.0136, 113.85, 30.75)" gradientUnits="userSpaceOnUse" id="gradient19" spreadMethod="pad" x1="-819.2" x2="819.2">
      <stop offset="0.0" stop-color="#000000" stop-opacity="0.8"/>
      <stop offset="0.8588235294117647" stop-color="#0e0e0e" stop-opacity="0.8"/>
      <stop offset="1.0" stop-color="#000000" stop-opacity="0.8"/>
    </linearGradient>
    <linearGradient gradientTransform="matrix(0.0129, 0.0, 0.0, 0.0136, 92.75, 30.75)" gradientUnits="userSpaceOnUse" id="gradient20" spreadMethod="pad" x1="-819.2" x2="819.2">
      <stop offset="0.0" stop-color="#000000" stop-opacity="0.8"/>
      <stop offset="0.8588235294117647" stop-color="#0e0e0e" stop-opacity="0.8"/>
      <stop offset="1.0" stop-color="#000000" stop-opacity="0.8"/>
    </linearGradient>
    <linearGradient gradientTransform="matrix(0.0129, 0.0, 0.0, 0.0136, 134.95, 30.75)" gradientUnits="userSpaceOnUse" id="gradient21" spreadMethod="pad" x1="-819.2" x2="819.2">
      <stop offset="0.0" stop-color="#000000" stop-opacity="0.8"/>
      <stop offset="0.9882352941176471" stop-color="#050505" stop-opacity="0.8"/>
      <stop offset="1.0" stop-color="#000000" stop-opacity="0.8"/>
    </linearGradient>
    <linearGradient gradientTransform="matrix(0.0129, 0.0, 0.0, 0.0136, 113.85, 30.75)" gradientUnits="userSpaceOnUse" id="gradient22" spreadMethod="pad" x1="-819.2" x2="819.2">
      <stop offset="0.0" stop-color="#000000" stop-opacity="0.8"/>
      <stop offset="0.9882352941176471" stop-color="#050505" stop-opacity="0.8"/>
      <stop offset="1.0" stop-color="#000000" stop-opacity="0.8"/>
    </linearGradient>
    <linearGradient gradientTransform="matrix(0.0129, 0.0, 0.0, 0.0136, 92.75, 30.75)" gradientUnits="userSpaceOnUse" id="gradient23" spreadMethod="pad" x1="-819.2" x2="819.2">
      <stop offset="0.0" stop-color="#000000" stop-opacity="0.8"/>
      <stop offset="0.9882352941176471" stop-color="#050505" stop-opacity="0.8"/>
      <stop offset="1.0" stop-color="#000000" stop-opacity="0.8"/>
    </linearGradient>
    <linearGradient gradientTransform="matrix(0.022, 0.0, 0.0, 0.0136, 59.4, 30.75)" gradientUnits="userSpaceOnUse" id="gradient24" spreadMethod="pad" x1="-819.2" x2="819.2">
      <stop offset="0.0" stop-color="#000000" stop-opacity="0.8"/>
      <stop offset="0.9882352941176471" stop-color="#050505" stop-opacity="0.8"/>
      <stop offset="1.0" stop-color="#000000" stop-opacity="0.8"/>
    </linearGradient>
    <linearGradient gradientTransform="matrix(0.022, 0.0, 0.0, 0.0136, 59.4, 30.75)" gradientUnits="userSpaceOnUse" id="gradient25" spreadMethod="pad" x1="-819.2" x2="819.2">
      <stop offset="0.0" stop-color="#000000" stop-opacity="0.8"/>
      <stop offset="0.8588235294117647" stop-color="#0e0e0e" stop-opacity="0.8"/>
      <stop offset="1.0" stop-color="#000000" stop-opacity="0.8"/>
    </linearGradient>
    <linearGradient gradientTransform="matrix(0.0267, 0.0, 0.0, 0.0136, 55.85, 30.75)" gradientUnits="userSpaceOnUse" id="gradient26" spreadMethod="pad" x1="-819.2" x2="819.2">
      <stop offset="0.0" stop-color="#000000" stop-opacity="0.8"/>
      <stop offset="0.8588235294117647" stop-color="#0e0e0e" stop-opacity="0.8"/>
      <stop offset="1.0" stop-color="#000000" stop-opacity="0.8"/>
    </linearGradient>
    <linearGradient gradientTransform="matrix(0.022, 0.0, 0.0, 0.0136, 95.4, 30.75)" gradientUnits="userSpaceOnUse" id="gradient27" spreadMethod="pad" x1="-819.2" x2="819.2">
      <stop offset="0.0" stop-color="#000000" stop-opacity="0.8"/>
      <stop offset="0.8588235294117647" stop-color="#0e0e0e" stop-opacity="0.8"/>
      <stop offset="1.0" stop-color="#000000" stop-opacity="0.8"/>
    </linearGradient>
    <linearGradient gradientTransform="matrix(0.022, 0.0, 0.0, 0.0136, 95.4, 30.75)" gradientUnits="userSpaceOnUse" id="gradient28" spreadMethod="pad" x1="-819.2" x2="819.2">
      <stop offset="0.0" stop-color="#000000" stop-opacity="0.8"/>
      <stop offset="0.9882352941176471" stop-color="#050505" stop-opacity="0.8"/>
      <stop offset="1.0" stop-color="#000000" stop-opacity="0.8"/>
    </linearGradient>
    <linearGradient gradientTransform="matrix(0.0267, 0.0, 0.0, 0.0136, 55.85, 30.75)" gradientUnits="userSpaceOnUse" id="gradient29" spreadMethod="pad" x1="-819.2" x2="819.2">
      <stop offset="0.0" stop-color="#000000" stop-opacity="0.8"/>
      <stop offset="0.9882352941176471" stop-color="#050505" stop-opacity="0.8"/>
      <stop offset="1.0" stop-color="#000000" stop-opacity="0.8"/>
    </linearGradient>
    <linearGradient gradientTransform="matrix(0.0156, 0.0, 0.0, 0.0136, 27.15, 30.75)" gradientUnits="userSpaceOnUse" id="gradient30" spreadMethod="pad" x1="-819.2" x2="819.2">
      <stop offset="0.0" stop-color="#000000" stop-opacity="0.8"/>
      <stop offset="0.9882352941176471" stop-color="#050505" stop-opacity="0.8"/>
      <stop offset="1.0" stop-color="#000000" stop-opacity="0.8"/>
    </linearGradient>
    <linearGradient gradientTransform="matrix(0.0156, 0.0, 0.0, 0.0136, 52.75, 30.75)" gradientUnits="userSpaceOnUse" id="gradient31" spreadMethod="pad" x1="-819.2" x2="819.2">
      <stop offset="0.0" stop-color="#000000" stop-opacity="0.8"/>
      <stop offset="0.9882352941176471" stop-color="#050505" stop-opacity="0.8"/>
      <stop offset="1.0" stop-color="#000000" stop-opacity="0.8"/>
    </linearGradient>
    <linearGradient gradientTransform="matrix(0.0156, 0.0, 0.0, 0.0136, 27.15, 30.75)" gradientUnits="userSpaceOnUse" id="gradient32" spreadMethod="pad" x1="-819.2" x2="819.2">
      <stop offset="0.0" stop-color="#000000" stop-opacity="0.8"/>
      <stop offset="0.8588235294117647" stop-color="#0e0e0e" stop-opacity="0.8"/>
      <stop offset="1.0" stop-color="#000000" stop-opacity="0.8"/>
    </linearGradient>
    <linearGradient gradientTransform="matrix(0.0129, 0.0, 0.0, 0.0136, 28.35, 30.75)" gradientUnits="userSpaceOnUse" id="gradient33" spreadMethod="pad" x1="-819.2" x2="819.2">
      <stop offset="0.0" stop-color="#000000" stop-opacity="0.8"/>
      <stop offset="0.8588235294117647" stop-color="#0e0e0e" stop-opacity="0.8"/>
      <stop offset="1.0" stop-color="#000000" stop-opacity="0.8"/>
    </linearGradient>
    <linearGradient gradientTransform="matrix(0.0156, 0.0, 0.0, 0.0136, 52.75, 30.75)" gradientUnits="userSpaceOnUse" id="gradient34" spreadMethod="pad" x1="-819.2" x2="819.2">
      <stop offset="0.0" stop-color="#000000" stop-opacity="0.8"/>
      <stop offset="0.8588235294117647" stop-color="#0e0e0e" stop-opacity="0.8"/>
      <stop offset="1.0" stop-color="#000000" stop-opacity="0.8"/>
    </linearGradient>
    <linearGradient gradientTransform="matrix(0.0129, 0.0, 0.0, 0.0136, 28.35, 30.75)" gradientUnits="userSpaceOnUse" id="gradient35" spreadMethod="pad" x1="-819.2" x2="819.2">
      <stop offset="0.0" stop-color="#000000" stop-opacity="0.8"/>
      <stop offset="0.9882352941176471" stop-color="#050505" stop-opacity="0.8"/>
      <stop offset="1.0" stop-color="#000000" stop-opacity="0.8"/>
    </linearGradient>
    <linearGradient gradientTransform="matrix(0.0129, 0.0, 0.0, 0.0136, 7.25, 30.75)" gradientUnits="userSpaceOnUse" id="gradient36" spreadMethod="pad" x1="-819.2" x2="819.2">
      <stop offset="0.0" stop-color="#000000" stop-opacity="0.8"/>
      <stop offset="0.8588235294117647" stop-color="#0e0e0e" stop-opacity="0.8"/>
      <stop offset="1.0" stop-color="#000000" stop-opacity="0.8"/>
    </linearGradient>
    <linearGradient gradientTransform="matrix(0.0129, 0.0, 0.0, 0.0136, 7.25, 30.75)" gradientUnits="userSpaceOnUse" id="gradient37" spreadMethod="pad" x1="-819.2" x2="819.2">
      <stop offset="0.0" stop-color="#000000" stop-opacity="0.8"/>
      <stop offset="0.9882352941176471" stop-color="#050505" stop-opacity="0.8"/>
      <stop offset="1.0" stop-color="#000000" stop-opacity="0.8"/>
    </linearGradient>
    <linearGradient gradientTransform="matrix(0.0129, 0.0, 0.0, 0.3939, 113.85, -14.05)" gradientUnits="userSpaceOnUse" id="gradient38" spreadMethod="pad" x1="-819.2" x2="819.2">
      <stop offset="0.0" stop-color="#000000" stop-opacity="0.8"/>
      <stop offset="0.8588235294117647" stop-color="#0e0e0e" stop-opacity="0.8"/>
      <stop offset="1.0" stop-color="#000000" stop-opacity="0.8"/>
    </linearGradient>
    <linearGradient gradientTransform="matrix(0.0129, 0.0, 0.0, 0.3939, 92.75, -14.05)" gradientUnits="userSpaceOnUse" id="gradient39" spreadMethod="pad" x1="-819.2" x2="819.2">
      <stop offset="0.0" stop-color="#000000" stop-opacity="0.8"/>
      <stop offset="0.8588235294117647" stop-color="#0e0e0e" stop-opacity="0.8"/>
      <stop offset="1.0" stop-color="#000000" stop-opacity="0.8"/>
    </linearGradient>
    <linearGradient gradientTransform="matrix(0.022, 0.0, 0.0, 0.3939, 59.4, -14.05)" gradientUnits="userSpaceOnUse" id="gradient40" spreadMethod="pad" x1="-819.2" x2="819.2">
      <stop offset="0.0" stop-color="#000000" stop-opacity="0.8"/>
      <stop offset="0.8588235294117647" stop-color="#0e0e0e" stop-opacity="0.8"/>
      <stop offset="1.0" stop-color="#000000" stop-opacity="0.8"/>
    </linearGradient>
    <linearGradient gradientTransform="matrix(0.022, 0.0, 0.0, 0.3939, 95.4, -14.05)" gradientUnits="userSpaceOnUse" id="gradient41" spreadMethod="pad" x1="-819.2" x2="819.2">
      <stop offset="0.0" stop-color="#000000" stop-opacity="0.8"/>
      <stop offset="0.8588235294117647" stop-color="#0e0e0e" stop-opacity="0.8"/>
      <stop offset="1.0" stop-color="#000000" stop-opacity="0.8"/>
    </linearGradient>
    <linearGradient gradientTransform="matrix(0.0267, 0.0, 0.0, 0.3939, 55.85, -14.05)" gradientUnits="userSpaceOnUse" id="gradient42" spreadMethod="pad" x1="-819.2" x2="819.2">
      <stop offset="0.0" stop-color="#000000" stop-opacity="0.8"/>
      <stop offset="0.8588235294117647" stop-color="#0e0e0e" stop-opacity="0.8"/>
      <stop offset="1.0" stop-color="#000000" stop-opacity="0.8"/>
    </linearGradient>
    <linearGradient gradientTransform="matrix(0.0156, 0.0, 0.0, 0.3939, 27.15, -14.05)" gradientUnits="userSpaceOnUse" id="gradient43" spreadMethod="pad" x1="-819.2" x2="819.2">
      <stop offset="0.0" stop-color="#000000" stop-opacity="0.8"/>
      <stop offset="0.8588235294117647" stop-color="#0e0e0e" stop-opacity="0.8"/>
      <stop offset="1.0" stop-color="#000000" stop-opacity="0.8"/>
    </linearGradient>
    <linearGradient gradientTransform="matrix(0.0156, 0.0, 0.0, 0.3939, 52.75, -14.05)" gradientUnits="userSpaceOnUse" id="gradient44" spreadMethod="pad" x1="-819.2" x2="819.2">
      <stop offset="0.0" stop-color="#000000" stop-opacity="0.8"/>
      <stop offset="0.8588235294117647" stop-color="#0e0e0e" stop-opacity="0.8"/>
      <stop offset="1.0" stop-color="#000000" stop-opacity="0.8"/>
    </linearGradient>
    <linearGradient gradientTransform="matrix(0.0129, 0.0, 0.0, 0.3939, 28.35, -14.05)" gradientUnits="userSpaceOnUse" id="gradient45" spreadMethod="pad" x1="-819.2" x2="819.2">
      <stop offset="0.0" stop-color="#000000" stop-opacity="0.8"/>
      <stop offset="0.8588235294117647" stop-color="#0e0e0e" stop-opacity="0.8"/>
      <stop offset="1.0" stop-color="#000000" stop-opacity="0.8"/>
    </linearGradient>
    <linearGradient gradientTransform="matrix(0.0129, 0.0, 0.0, 0.3939, 7.25, -14.05)" gradientUnits="userSpaceOnUse" id="gradient46" spreadMethod="pad" x1="-819.2" x2="819.2">
      <stop offset="0.0" stop-color="#000000" stop-opacity="0.8"/>
      <stop offset="0.8588235294117647" stop-color="#0e0e0e" stop-opacity="0.8"/>
      <stop offset="1.0" stop-color="#000000" stop-opacity="0.8"/>
    </linearGradient>
  </defs>
</svg>
