<?xml version="1.0" encoding="UTF-8" standalone="no"?>
<svg xmlns:xlink="http://www.w3.org/1999/xlink" height="3.7px" width="3.45px" xmlns="http://www.w3.org/2000/svg">
  <g transform="matrix(1.0, 0.0, 0.0, 1.0, 1.75, 1.85)">
    <path d="M0.55 -0.65 Q0.6 -0.6 0.6 -0.7 L0.55 -0.65 0.55 -0.7 Q0.5 -0.65 0.55 -0.65 M0.4 -0.6 L0.5 -0.7 0.6 -0.75 0.8 -0.8 Q0.85 -0.8 0.85 -0.7 L0.8 -0.7 0.75 -0.75 0.7 -0.7 Q0.65 -0.7 0.65 -0.65 L0.6 -0.55 0.5 -0.6 0.45 -0.65 0.45 -0.6 Q0.45 -0.6 0.4 -0.6" fill="#837e75" fill-rule="evenodd" stroke="none"/>
    <path d="M0.55 -0.65 Q0.5 -0.65 0.55 -0.7 L0.55 -0.65 0.6 -0.7 Q0.6 -0.6 0.55 -0.65" fill="#403c2f" fill-rule="evenodd" stroke="none"/>
    <path d="M0.8 -0.7 L0.85 -0.7 0.75 -0.55 Q0.7 -0.5 0.8 -0.55 L0.65 -0.45 0.6 -0.35 0.55 -0.35 Q0.55 -0.4 0.6 -0.45 L0.65 -0.55 0.75 -0.6 0.8 -0.7" fill="#4d463e" fill-rule="evenodd" stroke="none"/>
    <path d="M0.2 -0.65 L0.3 -0.65 0.35 -0.55 0.3 -0.6 0.2 -0.65" fill="#d3d4ca" fill-rule="evenodd" stroke="none"/>
    <path d="M0.05 -0.7 Q0.1 -0.65 0.2 -0.65 L0.3 -0.6 0.35 -0.55 0.4 -0.6 0.35 -0.55 0.4 -0.6 0.4 -0.5 Q0.35 -0.5 0.35 -0.5 L0.35 -0.45 0.45 -0.45 0.5 -0.5 0.45 -0.45 0.4 -0.4 0.3 -0.35 Q0.3 -0.45 0.2 -0.5 L0.1 -0.6 0.0 -0.65 -0.1 -0.65 Q-0.15 -0.7 -0.1 -0.75 L-0.1 -0.8 -0.05 -0.8 0.05 -0.7 0.05 -0.7 M0.4 -0.4 L0.4 -0.4 M0.4 -0.6 L0.4 -0.6 M-0.3 -0.75 L-0.25 -0.75 -0.25 -0.75 -0.3 -0.7 -0.3 -0.75 M-0.15 -0.75 L-0.15 -0.75 -0.1 -0.8 -0.15 -0.75" fill="#625e53" fill-rule="evenodd" stroke="none"/>
    <path d="M0.0 -0.8 L0.0 -0.8 0.05 -0.75 0.05 -0.7 0.05 -0.7 -0.05 -0.8 0.0 -0.8" fill="#8d8b81" fill-rule="evenodd" stroke="none"/>
    <path d="M0.4 -0.6 Q0.45 -0.6 0.45 -0.6 L0.45 -0.65 0.5 -0.6 0.6 -0.55 0.6 -0.5 0.5 -0.55 0.4 -0.5 0.4 -0.6 0.4 -0.6 0.4 -0.6 0.4 -0.6 0.4 -0.6 M0.6 -0.55 L0.6 -0.55" fill="#423c33" fill-rule="evenodd" stroke="none"/>
    <path d="M0.4 -0.5 L0.5 -0.55 0.6 -0.5 0.5 -0.4 0.4 -0.4 0.45 -0.45 0.5 -0.5 0.45 -0.45 0.35 -0.45 0.35 -0.5 Q0.35 -0.5 0.4 -0.5" fill="#17140d" fill-rule="evenodd" stroke="none"/>
    <path d="M-0.9 0.15 L-0.95 0.1 -0.95 0.1 -1.0 0.05 -1.0 0.05 -1.0 0.0 -1.1 -0.15 -1.1 -0.2 -1.15 -0.25 -1.15 -0.3 -1.1 -0.35 -1.1 -0.4 -1.1 -0.45 -1.05 -0.45 -1.05 -0.5 -1.05 -0.5 -1.0 -0.5 -1.0 -0.55 -1.0 -0.5 -1.0 -0.45 -0.9 -0.4 -0.85 -0.2 Q-0.8 -0.15 -0.85 -0.05 L-0.85 0.0 -0.8 0.0 -0.9 0.05 -0.9 0.15 M-1.1 -0.7 L-1.25 -0.7 -1.35 -0.65 -1.35 -0.65 Q-1.4 -0.7 -1.4 -0.75 L-1.4 -0.75 -1.45 -0.8 Q-1.45 -0.85 -1.5 -0.85 L-1.55 -0.9 -1.7 -0.95 -1.75 -1.0 -1.75 -1.25 -1.7 -1.35 -1.7 -1.25 -1.6 -1.25 Q-1.55 -1.25 -1.55 -1.2 L-1.6 -1.2 -1.65 -1.15 -1.45 -1.05 Q-1.4 -1.05 -1.45 -1.0 L-1.5 -0.95 Q-1.4 -0.95 -1.4 -1.0 -1.3 -1.0 -1.35 -0.95 L-1.4 -0.85 -1.3 -0.9 -1.25 -0.85 -1.2 -0.75 -1.2 -0.75 -1.15 -0.8 -1.1 -0.7 -1.1 -0.7 M-0.5 -1.2 L-0.45 -1.2 -0.5 -1.15 -0.5 -1.1 -0.55 -1.05 -0.55 -1.0 -0.5 -1.0 -0.55 -0.95 -0.55 -0.85 -0.5 -0.85 -0.45 -0.8 -0.4 -0.85 -0.35 -0.8 -0.25 -0.85 -0.15 -0.9 -0.1 -0.85 -0.1 -0.9 -0.05 -0.85 0.0 -0.8 -0.05 -0.8 -0.1 -0.8 -0.1 -0.75 Q-0.15 -0.7 -0.1 -0.65 L0.0 -0.65 0.1 -0.6 0.2 -0.5 Q0.3 -0.45 0.3 -0.35 L0.4 -0.4 0.45 -0.4 0.3 -0.25 0.25 -0.15 0.1 -0.05 -0.05 0.1 0.0 0.1 0.05 0.05 0.1 0.05 0.15 0.05 0.1 0.1 0.05 0.2 -0.05 0.2 0.05 0.1 -0.1 0.2 Q-0.2 0.25 -0.1 0.1 L-0.25 0.2 -0.25 0.15 -0.2 0.15 -0.25 0.1 -0.35 0.15 Q-0.4 0.1 -0.35 0.05 L-0.25 0.05 -0.15 -0.05 -0.1 -0.1 -0.05 -0.2 -0.05 -0.25 -0.1 -0.2 -0.05 -0.25 -0.05 -0.35 -0.1 -0.3 Q-0.1 -0.3 -0.15 -0.3 L-0.2 -0.3 -0.2 -0.45 Q-0.2 -0.4 -0.25 -0.35 L-0.35 -0.3 -0.4 -0.35 -0.35 -0.4 Q-0.3 -0.4 -0.35 -0.35 L-0.35 -0.35 -0.3 -0.4 -0.25 -0.45 -0.3 -0.45 -0.3 -0.65 -0.35 -0.7 -0.4 -0.7 -0.4 -0.75 -0.4 -0.8 -0.45 -0.8 -0.55 -0.75 -0.5 -0.75 -0.55 -0.75 -0.55 -0.8 -0.6 -0.8 -0.6 -0.85 -0.7 -0.85 -0.75 -0.75 Q-0.8 -0.7 -0.85 -0.75 L-1.0 -0.9 -1.0 -0.95 -1.05 -0.95 -1.05 -0.95 -1.05 -1.0 -1.05 -1.05 -1.0 -1.0 -1.0 -1.0 -0.95 -0.95 -0.95 -0.9 -0.85 -0.85 Q-0.85 -0.8 -0.75 -0.8 L-0.7 -0.85 Q-0.75 -0.85 -0.75 -0.9 L-0.75 -0.95 -0.7 -1.0 -0.7 -1.05 Q-0.75 -1.1 -0.7 -1.15 -0.65 -1.2 -0.65 -1.1 L-0.65 -0.95 -0.7 -0.95 -0.7 -0.9 Q-0.65 -0.9 -0.65 -0.95 -0.55 -1.0 -0.6 -1.05 L-0.6 -1.2 -0.55 -1.2 -0.55 -1.15 -0.5 -1.2 -0.5 -1.2 -0.5 -1.2 M0.2 -0.3 Q0.2 -0.3 0.25 -0.35 L0.25 -0.4 0.2 -0.35 Q0.15 -0.35 0.2 -0.3 M0.05 -0.35 L0.05 -0.25 Q0.1 -0.25 0.1 -0.3 L0.15 -0.35 0.05 -0.35 M-0.6 -0.85 L-0.6 -0.85 M-0.1 -0.1 L-0.15 -0.05 -0.15 0.05 -0.05 -0.05 Q0.0 -0.15 -0.05 -0.2 L-0.1 -0.1 M-0.3 -0.75 L-0.3 -0.7 -0.25 -0.75 -0.25 -0.75 -0.3 -0.75 M-0.15 -0.75 L-0.1 -0.8 -0.15 -0.75 -0.15 -0.75 -0.2 -0.75 -0.25 -0.7 -0.3 -0.65 -0.25 -0.65 -0.2 -0.7 -0.15 -0.75" fill="#413d34" fill-rule="evenodd" stroke="none"/>
    <path d="M0.6 -0.5 L0.6 -0.55 0.65 -0.55 0.6 -0.45 Q0.55 -0.4 0.55 -0.35 L0.55 -0.25 0.5 -0.2 0.55 -0.25 0.5 -0.3 Q0.5 -0.3 0.5 -0.35 0.5 -0.4 0.45 -0.4 L0.4 -0.4 0.5 -0.4 0.6 -0.5 M0.4 -0.4 L0.4 -0.4" fill="#827e71" fill-rule="evenodd" stroke="none"/>
    <path d="M0.45 -0.4 Q0.5 -0.4 0.5 -0.35 0.5 -0.3 0.5 -0.3 L0.55 -0.25 0.5 -0.2 0.55 -0.25 0.6 -0.2 0.55 -0.15 0.7 0.0 0.9 0.2 0.7 0.4 Q0.65 0.4 0.55 0.45 L0.5 0.55 0.45 0.6 0.45 0.65 0.4 0.75 0.3 0.75 0.4 0.65 0.4 0.55 0.3 0.6 0.2 0.6 Q0.25 0.55 0.2 0.5 L0.1 0.4 0.0 0.5 Q0.0 0.45 0.1 0.4 L0.1 0.25 0.2 0.15 0.25 0.1 0.25 0.0 0.2 0.05 Q0.15 0.1 0.1 0.1 L0.15 0.05 0.1 0.05 0.05 0.05 0.15 0.0 Q0.25 -0.05 0.3 -0.1 0.35 -0.15 0.3 -0.25 L0.45 -0.4 M0.45 -0.1 L0.35 -0.05 Q0.25 0.0 0.3 0.05 L0.4 0.0 0.45 -0.1 M0.4 0.05 Q0.35 0.05 0.35 0.1 L0.4 0.15 Q0.45 0.2 0.4 0.25 0.35 0.3 0.35 0.35 L0.4 0.4 0.45 0.4 0.5 0.35 Q0.45 0.35 0.5 0.25 L0.45 0.15 0.4 0.05 M0.25 0.5 L0.3 0.4 0.3 0.3 0.2 0.3 0.2 0.45 Q0.2 0.5 0.25 0.5" fill="#4b463b" fill-rule="evenodd" stroke="none"/>
    <path d="M0.2 -0.3 Q0.15 -0.35 0.2 -0.35 L0.25 -0.4 0.25 -0.35 Q0.2 -0.3 0.2 -0.3" fill="#726e62" fill-rule="evenodd" stroke="none"/>
    <path d="M0.05 -0.35 L0.15 -0.35 0.1 -0.3 Q0.1 -0.25 0.05 -0.25 L0.05 -0.35" fill="#6e6a61" fill-rule="evenodd" stroke="none"/>
    <path d="M0.05 0.05 L0.0 0.1 -0.05 0.1 0.1 -0.05 0.25 -0.15 Q0.25 -0.1 0.2 -0.1 L0.15 0.0 0.05 0.05" fill="#837f71" fill-rule="evenodd" stroke="none"/>
    <path d="M0.25 -0.15 L0.3 -0.25 Q0.35 -0.15 0.3 -0.1 0.25 -0.05 0.15 0.0 L0.2 -0.1 Q0.25 -0.1 0.25 -0.15" fill="#635e51" fill-rule="evenodd" stroke="none"/>
    <path d="M0.45 -0.1 L0.4 0.0 0.3 0.05 Q0.25 0.0 0.35 -0.05 L0.45 -0.1" fill="#1f1b12" fill-rule="evenodd" stroke="none"/>
    <path d="M0.8 -0.55 L0.8 -0.55 Q0.85 -0.5 0.85 -0.5 L0.9 -0.5 0.95 -0.4 0.9 -0.3 Q0.9 -0.35 0.85 -0.25 L0.8 -0.2 0.75 -0.2 Q0.8 -0.3 0.7 -0.35 L0.6 -0.35 0.65 -0.45 0.8 -0.55" fill="#6a6356" fill-rule="evenodd" stroke="none"/>
    <path d="M0.8 -0.55 L0.9 -0.55 0.9 -0.5 0.85 -0.5 Q0.85 -0.5 0.8 -0.55" fill="#b7b3a8" fill-rule="evenodd" stroke="none"/>
    <path d="M0.95 -0.25 L0.95 -0.25 Q1.0 -0.25 0.95 -0.2 L0.9 -0.15 0.95 -0.15 1.0 -0.05 1.0 0.05 Q1.0 0.1 0.95 0.05 0.9 0.1 0.9 0.1 L0.95 0.15 Q0.95 0.15 0.9 0.15 L0.9 0.25 Q0.9 0.3 0.85 0.35 L0.7 0.5 0.7 0.45 0.65 0.45 0.7 0.4 0.9 0.2 0.75 0.0 0.6 -0.2 0.55 -0.25 0.55 -0.35 0.6 -0.35 0.7 -0.35 Q0.8 -0.3 0.75 -0.2 L0.8 -0.2 0.85 -0.25 Q0.9 -0.35 0.9 -0.3 L0.85 -0.2 0.95 -0.25 M0.85 0.0 L0.9 0.0 Q0.95 0.05 0.95 0.0 L0.9 0.0 Q0.85 -0.05 0.85 0.0" fill="#221e16" fill-rule="evenodd" stroke="none"/>
    <path d="M0.6 -0.2 L0.75 0.0 0.9 0.2 0.7 0.0 0.55 -0.15 0.6 -0.2" fill="#787362" fill-rule="evenodd" stroke="none"/>
    <path d="M0.95 -0.25 L1.1 -0.35 1.1 -0.3 Q1.1 -0.25 1.15 -0.25 L1.1 -0.1 Q1.1 -0.05 1.15 -0.05 L1.15 0.05 1.1 0.05 1.0 0.1 1.05 0.1 1.0 0.15 0.95 0.15 0.9 0.1 Q0.9 0.1 0.95 0.05 1.0 0.1 1.0 0.05 L1.0 -0.05 0.95 -0.15 0.9 -0.15 0.95 -0.2 Q1.0 -0.25 0.95 -0.25" fill="#5c574a" fill-rule="evenodd" stroke="none"/>
    <path d="M0.9 -0.3 L0.95 -0.25 0.85 -0.2 0.9 -0.3" fill="#7e7b74" fill-rule="evenodd" stroke="none"/>
    <path d="M0.85 0.0 Q0.85 -0.05 0.9 0.0 L0.95 0.0 Q0.95 0.05 0.9 0.0 L0.85 0.0" fill="#7a786e" fill-rule="evenodd" stroke="none"/>
    <path d="M1.1 -0.35 L1.15 -0.3 1.15 -0.25 Q1.1 -0.25 1.1 -0.3 L1.1 -0.35" fill="#949085" fill-rule="evenodd" stroke="none"/>
    <path d="M1.3 0.1 Q1.4 0.1 1.3 0.2 L1.2 0.35 1.35 0.45 1.4 0.55 1.1 0.3 Q1.05 0.3 1.05 0.25 L1.15 0.25 Q1.25 0.2 1.25 0.15 L1.15 0.15 1.05 0.2 1.0 0.25 0.95 0.2 1.0 0.15 1.05 0.1 1.0 0.1 1.1 0.05 Q1.05 0.1 1.1 0.1 L1.2 0.1 1.3 0.1" fill="#746858" fill-rule="evenodd" stroke="none"/>
    <path d="M1.15 -0.05 L1.25 0.0 1.3 0.1 1.2 0.1 1.2 0.05 1.15 0.05 1.15 -0.05" fill="#8c877e" fill-rule="evenodd" stroke="none"/>
    <path d="M1.15 0.05 L1.2 0.05 1.2 0.1 1.1 0.1 Q1.05 0.1 1.1 0.05 L1.15 0.05" fill="#362f25" fill-rule="evenodd" stroke="none"/>
    <path d="M0.65 0.45 L0.7 0.45 0.7 0.5 0.65 0.55 0.6 0.55 0.45 0.75 0.55 0.65 0.5 0.75 0.6 0.65 0.65 0.6 0.75 0.5 0.85 0.35 Q0.9 0.3 0.9 0.25 L0.9 0.15 Q0.95 0.15 0.95 0.15 L1.0 0.15 0.95 0.2 1.0 0.25 1.05 0.2 1.15 0.15 1.25 0.15 Q1.25 0.2 1.15 0.25 L1.05 0.25 Q1.05 0.3 1.1 0.3 L1.1 0.35 1.05 0.35 Q1.0 0.4 1.05 0.45 L1.05 0.5 Q1.05 0.55 1.1 0.55 L1.15 0.55 1.25 0.65 1.2 0.7 1.2 0.75 1.25 0.75 1.3 0.7 1.3 0.65 1.35 0.65 1.45 0.6 Q1.45 0.7 1.35 0.8 L1.25 0.95 1.15 1.0 1.0 1.1 1.1 0.95 0.95 1.1 0.8 1.25 0.85 1.25 0.7 1.4 0.55 1.5 0.7 1.4 0.75 1.25 0.9 1.1 1.05 0.95 1.25 0.8 1.15 0.8 1.1 0.85 1.05 0.8 1.0 0.75 Q1.0 0.75 1.0 0.8 L1.0 0.85 0.95 0.8 1.0 0.75 0.85 0.8 Q0.75 0.8 0.8 0.85 L0.75 0.9 0.7 0.9 0.8 0.9 0.85 0.85 Q0.9 0.8 0.85 0.85 L0.8 0.95 Q0.8 0.95 0.75 0.95 L0.75 1.0 0.65 1.15 0.6 1.35 0.55 1.3 Q0.5 1.3 0.55 1.25 L0.6 1.25 0.6 1.2 Q0.6 1.2 0.55 1.25 L0.55 1.2 0.5 1.2 0.55 1.1 0.65 1.0 0.65 1.1 0.7 1.05 0.7 0.95 Q0.65 0.95 0.6 1.0 L0.55 1.1 0.6 0.95 Q0.65 0.85 0.55 0.85 L0.6 0.85 0.65 0.8 0.55 0.85 0.5 0.9 0.45 0.95 0.4 0.95 Q0.35 0.9 0.35 0.95 0.3 1.0 0.35 1.0 L0.45 0.95 0.4 1.05 0.4 1.1 0.45 1.15 0.4 1.15 0.3 1.1 0.25 1.0 Q0.25 0.95 0.3 0.95 L0.35 0.85 0.3 0.8 0.25 0.9 0.2 0.95 0.1 0.8 0.05 0.8 0.0 0.65 0.0 0.6 0.1 0.7 0.2 0.6 0.3 0.6 0.4 0.55 0.4 0.65 0.3 0.75 0.4 0.75 0.45 0.65 0.6 0.5 0.65 0.45 M1.2 0.2 L1.15 0.2 Q1.1 0.2 1.15 0.2 L1.2 0.2 M0.65 0.7 L0.65 0.75 0.7 0.65 0.75 0.65 0.7 0.65 0.65 0.7 M0.7 0.85 L0.7 0.8 Q0.7 0.75 0.7 0.8 L0.65 0.9 Q0.7 0.9 0.7 0.85" fill="#3d392e" fill-rule="evenodd" stroke="none"/>
    <path d="M1.2 0.2 L1.15 0.2 Q1.1 0.2 1.15 0.2 L1.2 0.2" fill="#828373" fill-rule="evenodd" stroke="none"/>
    <path d="M1.35 0.45 L1.4 0.5 1.45 0.55 1.4 0.55 Q1.4 0.55 1.35 0.6 L1.4 0.6 1.45 0.6 1.35 0.65 1.3 0.65 1.3 0.7 1.25 0.75 1.2 0.75 1.2 0.7 1.25 0.65 1.15 0.55 1.1 0.55 Q1.05 0.55 1.05 0.5 L1.05 0.45 Q1.0 0.4 1.05 0.35 L1.1 0.35 1.1 0.3 1.4 0.55 1.35 0.45" fill="#565143" fill-rule="evenodd" stroke="none"/>
    <path d="M1.6 0.6 L1.6 0.75 1.55 0.65 Q1.5 0.55 1.45 0.6 L1.4 0.6 1.35 0.6 Q1.4 0.55 1.4 0.55 L1.45 0.55 1.6 0.6" fill="#857f72" fill-rule="evenodd" stroke="none"/>
    <path d="M1.4 0.5 L1.6 0.6 1.45 0.55 1.4 0.5" fill="#d1cdc1" fill-rule="evenodd" stroke="none"/>
    <path d="M1.6 0.75 L1.55 0.75 1.55 0.8 Q1.55 0.85 1.6 0.85 L1.65 0.8 1.65 0.85 1.4 1.1 1.15 1.35 1.1 1.35 Q1.15 1.3 1.2 1.3 L1.3 1.2 1.35 1.1 1.4 1.0 1.5 0.9 Q1.55 0.85 1.5 0.85 L1.3 1.05 1.15 1.2 1.0 1.3 0.95 1.25 1.05 1.15 1.15 1.0 1.25 0.95 1.35 0.8 Q1.45 0.7 1.45 0.6 1.5 0.55 1.55 0.65 L1.6 0.75" fill="#4e493c" fill-rule="evenodd" stroke="none"/>
    <path d="M1.05 0.95 L1.1 0.9 Q1.15 0.85 1.1 0.85 L0.85 1.1 0.65 1.3 0.6 1.4 Q0.55 1.45 0.55 1.4 0.55 1.35 0.45 1.25 L0.4 1.15 0.45 1.15 0.5 1.1 0.55 1.1 0.6 1.0 Q0.65 0.95 0.7 0.95 L0.7 1.05 0.65 1.1 0.65 1.0 0.55 1.1 0.5 1.2 0.55 1.2 0.55 1.25 Q0.6 1.2 0.6 1.2 L0.6 1.25 0.55 1.25 Q0.5 1.3 0.55 1.3 L0.6 1.35 0.65 1.15 0.75 1.0 0.75 0.95 Q0.8 0.95 0.8 0.95 L0.85 0.85 Q0.9 0.8 0.85 0.85 L0.8 0.85 Q0.75 0.8 0.85 0.8 L1.0 0.75 0.95 0.8 1.0 0.85 1.0 0.8 Q1.0 0.75 1.0 0.75 L1.05 0.8 1.1 0.85 1.15 0.8 1.25 0.8 1.05 0.95" fill="#504d40" fill-rule="evenodd" stroke="none"/>
    <path d="M0.65 1.3 L0.85 1.1 1.1 0.85 Q1.15 0.85 1.1 0.9 L1.05 0.95 0.9 1.1 0.75 1.25 Q0.7 1.25 0.65 1.3" fill="#807e70" fill-rule="evenodd" stroke="none"/>
    <path d="M1.15 1.0 L1.05 1.15 0.95 1.25 Q0.9 1.3 0.85 1.3 L0.9 1.2 1.0 1.1 1.15 1.0" fill="#918d82" fill-rule="evenodd" stroke="none"/>
    <path d="M0.85 1.25 L0.8 1.25 0.95 1.1 1.1 0.95 1.0 1.1 0.9 1.2 0.85 1.25" fill="#696557" fill-rule="evenodd" stroke="none"/>
    <path d="M1.4 1.0 L1.35 1.1 1.3 1.2 1.2 1.3 Q1.15 1.3 1.1 1.35 L1.0 1.45 0.95 1.5 0.9 1.5 1.15 1.25 1.4 1.0" fill="#656053" fill-rule="evenodd" stroke="none"/>
    <path d="M1.55 1.3 L1.5 1.35 1.5 1.45 1.55 1.4 1.55 1.45 1.5 1.5 1.45 1.5 1.5 1.55 1.4 1.65 Q1.4 1.6 1.35 1.65 L1.25 1.75 1.3 1.75 1.35 1.75 1.3 1.85 1.25 1.85 1.2 1.8 1.15 1.75 1.1 1.75 1.05 1.8 1.0 1.8 0.95 1.8 0.85 1.75 0.9 1.75 0.9 1.7 1.05 1.7 1.2 1.7 1.3 1.6 1.35 1.6 1.3 1.55 1.25 1.5 Q1.25 1.4 1.2 1.45 L1.3 1.35 1.4 1.25 1.55 1.05 1.55 1.1 1.55 1.3 M0.75 1.75 L0.7 1.75 0.65 1.7 0.7 1.6 0.65 1.65 0.6 1.65 0.65 1.6 0.6 1.6 0.55 1.55 0.5 1.6 0.45 1.6 0.45 1.5 0.5 1.5 0.55 1.4 Q0.55 1.45 0.6 1.4 L0.65 1.3 Q0.7 1.25 0.75 1.25 L0.7 1.4 0.55 1.5 0.7 1.4 0.85 1.25 0.9 1.2 0.85 1.3 Q0.9 1.3 0.95 1.25 L1.0 1.3 0.9 1.45 1.1 1.25 1.3 1.05 1.5 0.85 Q1.55 0.85 1.5 0.9 L1.4 1.0 1.15 1.25 0.9 1.5 0.95 1.5 1.0 1.45 1.1 1.35 1.15 1.35 1.1 1.4 1.1 1.45 1.0 1.5 0.9 1.6 0.9 1.65 Q0.9 1.65 0.85 1.65 L0.85 1.7 0.8 1.7 0.75 1.75" fill="#25211a" fill-rule="evenodd" stroke="none"/>
    <path d="M1.0 1.3 L1.15 1.2 1.3 1.05 1.1 1.25 0.9 1.45 1.0 1.3" fill="#7a7363" fill-rule="evenodd" stroke="none"/>
    <path d="M1.55 0.8 L1.65 0.8 1.6 0.85 Q1.55 0.85 1.55 0.8" fill="#8a8376" fill-rule="evenodd" stroke="none"/>
    <path d="M1.65 0.8 L1.7 0.8 1.65 0.9 1.65 0.95 1.55 1.05 1.6 0.95 1.65 0.9 1.6 0.95 1.55 1.0 1.6 0.9 1.65 0.85 1.65 0.8" fill="#c7b8a3" fill-rule="evenodd" stroke="none"/>
    <path d="M1.15 1.35 L1.4 1.1 1.65 0.85 1.6 0.9 1.55 1.0 1.6 0.95 1.65 0.9 1.6 0.95 1.55 1.05 1.4 1.2 1.2 1.35 1.25 1.35 1.3 1.3 1.3 1.35 1.2 1.45 Q1.15 1.5 1.15 1.4 L1.2 1.4 1.15 1.4 1.1 1.45 1.1 1.4 1.15 1.35" fill="#a89375" fill-rule="evenodd" stroke="none"/>
    <path d="M1.65 0.95 L1.6 1.0 1.6 1.05 1.55 1.1 1.55 1.05 1.4 1.25 1.3 1.35 1.3 1.3 1.25 1.35 1.2 1.35 1.4 1.2 1.55 1.05 1.65 0.95" fill="#61533f" fill-rule="evenodd" stroke="none"/>
    <path d="M1.6 1.05 L1.6 1.1 1.55 1.2 1.55 1.25 1.55 1.3 1.55 1.1 1.6 1.05" fill="#847a6c" fill-rule="evenodd" stroke="none"/>
    <path d="M0.7 0.4 L0.65 0.45 0.6 0.5 0.45 0.65 0.45 0.6 0.5 0.55 0.55 0.45 Q0.65 0.4 0.7 0.4" fill="#6b6759" fill-rule="evenodd" stroke="none"/>
    <path d="M0.7 0.5 L0.85 0.35 0.75 0.5 0.65 0.6 0.6 0.65 0.5 0.75 0.55 0.65 0.6 0.6 0.65 0.55 0.7 0.5" fill="#6d6a5b" fill-rule="evenodd" stroke="none"/>
    <path d="M0.65 0.55 L0.6 0.6 0.55 0.65 0.45 0.75 0.6 0.55 0.65 0.55" fill="#a6a391" fill-rule="evenodd" stroke="none"/>
    <path d="M0.4 0.05 L0.45 0.15 0.5 0.25 Q0.45 0.35 0.5 0.35 L0.45 0.4 0.4 0.4 0.35 0.35 Q0.35 0.3 0.4 0.25 0.45 0.2 0.4 0.15 L0.35 0.1 Q0.35 0.05 0.4 0.05" fill="#5a5649" fill-rule="evenodd" stroke="none"/>
    <path d="M0.1 0.1 Q0.15 0.1 0.2 0.05 L0.25 0.0 0.25 0.1 0.1 0.2 Q0.05 0.25 0.1 0.15 L0.05 0.2 0.1 0.1" fill="#716b5c" fill-rule="evenodd" stroke="none"/>
    <path d="M0.25 0.1 L0.2 0.15 0.1 0.25 0.1 0.4 Q0.0 0.45 0.0 0.5 L0.1 0.4 0.2 0.5 Q0.25 0.55 0.2 0.6 L0.1 0.7 0.0 0.6 0.0 0.55 -0.05 0.5 -0.1 0.55 -0.1 0.6 -0.15 0.65 -0.2 0.7 -0.3 0.65 -0.2 0.55 Q-0.1 0.5 -0.2 0.5 L-0.15 0.4 -0.05 0.45 -0.05 0.3 Q-0.05 0.2 -0.2 0.25 L-0.3 0.3 -0.4 0.4 -0.35 0.3 -0.25 0.2 -0.1 0.1 Q-0.2 0.25 -0.1 0.2 L0.05 0.1 -0.05 0.2 0.05 0.2 0.1 0.15 Q0.05 0.25 0.1 0.2 L0.25 0.1" fill="#2d2923" fill-rule="evenodd" stroke="none"/>
    <path d="M0.25 0.5 Q0.2 0.5 0.2 0.45 L0.2 0.3 0.3 0.3 0.3 0.4 0.25 0.5" fill="#6b675c" fill-rule="evenodd" stroke="none"/>
    <path d="M0.65 1.7 L0.65 1.65 0.7 1.6 0.65 1.7 M0.6 1.65 L0.55 1.6 0.45 1.6 0.5 1.6 0.55 1.55 0.6 1.6 0.65 1.6 0.6 1.65 M0.45 1.5 L0.4 1.45 0.2 1.35 0.15 1.25 0.1 1.25 0.1 1.2 0.05 1.15 -0.05 1.1 0.0 1.05 0.0 1.0 0.05 0.9 0.0 0.85 0.0 0.85 Q-0.05 0.85 -0.15 0.9 L-0.2 0.9 -0.2 0.9 -0.2 0.75 -0.2 0.7 -0.15 0.65 -0.1 0.6 0.0 0.65 0.05 0.8 0.1 0.8 0.2 0.95 0.25 0.9 0.3 0.8 0.35 0.85 0.3 0.95 Q0.25 0.95 0.25 1.0 L0.3 1.1 0.4 1.15 0.45 1.25 Q0.55 1.35 0.55 1.4 L0.5 1.5 0.45 1.5" fill="#0c0a08" fill-rule="evenodd" stroke="none"/>
    <path d="M0.55 1.1 L0.5 1.1 0.45 1.15 0.4 1.1 0.4 1.05 0.45 0.95 0.35 1.0 Q0.3 1.0 0.35 0.95 0.35 0.9 0.4 0.95 L0.45 0.95 0.5 0.9 0.55 0.85 Q0.65 0.85 0.6 0.95 L0.55 1.1 M0.45 1.05 L0.55 1.05 0.55 1.0 Q0.55 0.95 0.5 1.0 L0.45 1.0 0.45 1.05" fill="#29251d" fill-rule="evenodd" stroke="none"/>
    <path d="M0.45 1.05 L0.45 1.0 0.5 1.0 Q0.55 0.95 0.55 1.0 L0.55 1.05 0.45 1.05" fill="#4f4d42" fill-rule="evenodd" stroke="none"/>
    <path d="M0.8 0.85 L0.85 0.85 0.8 0.9 0.7 0.9 0.75 0.9 0.8 0.85" fill="#747165" fill-rule="evenodd" stroke="none"/>
    <path d="M0.65 0.7 L0.7 0.65 0.75 0.65 0.7 0.65 0.65 0.75 0.65 0.7" fill="#878378" fill-rule="evenodd" stroke="none"/>
    <path d="M0.5 0.9 L0.55 0.85 0.65 0.8 0.6 0.85 0.55 0.85 0.5 0.9" fill="#89867b" fill-rule="evenodd" stroke="none"/>
    <path d="M0.7 0.85 Q0.7 0.9 0.65 0.9 L0.7 0.8 Q0.7 0.75 0.7 0.8 L0.7 0.85" fill="#6c685d" fill-rule="evenodd" stroke="none"/>
    <path d="M0.85 1.8 L0.8 1.85 0.75 1.85 0.7 1.85 0.7 1.8 0.75 1.75 0.8 1.8 Q0.8 1.75 0.85 1.65 0.9 1.65 0.9 1.65 L0.9 1.6 1.0 1.5 1.0 1.55 1.05 1.55 1.1 1.5 1.1 1.45 1.15 1.4 1.1 1.5 1.05 1.5 1.05 1.55 1.0 1.6 1.0 1.65 0.95 1.65 0.9 1.7 0.9 1.75 0.85 1.75 0.85 1.8" fill="#806f56" fill-rule="evenodd" stroke="none"/>
    <path d="M1.2 1.45 Q1.25 1.4 1.25 1.5 L1.3 1.55 1.35 1.6 1.3 1.6 1.2 1.7 1.05 1.7 0.9 1.7 0.95 1.65 1.0 1.65 1.0 1.6 1.05 1.55 1.05 1.5 1.1 1.5 1.15 1.4 1.2 1.4 1.15 1.4 Q1.15 1.5 1.2 1.45" fill="#393229" fill-rule="evenodd" stroke="none"/>
    <path d="M0.85 1.65 Q0.8 1.75 0.8 1.8 L0.75 1.75 0.8 1.7 0.85 1.7 0.85 1.65" fill="#b19e7c" fill-rule="evenodd" stroke="none"/>
    <path d="M1.45 1.75 L1.4 1.8 1.35 1.85 1.3 1.85 1.25 1.85 1.3 1.85 Q1.35 1.85 1.4 1.8 1.45 1.75 1.45 1.75 M1.0 1.8 L0.85 1.8 0.85 1.75 0.95 1.8 1.0 1.8" fill="#170c08" fill-rule="evenodd" stroke="none"/>
    <path d="M0.2 1.35 L0.15 1.3 0.15 1.25 0.2 1.35 M-0.05 1.1 L-0.1 1.05 -0.1 1.0 Q-0.05 1.0 -0.1 0.95 L-0.15 0.95 -0.15 0.95 -0.2 0.9 -0.15 0.9 Q-0.05 0.85 0.0 0.85 L-0.1 0.9 -0.1 0.95 0.0 1.0 0.0 1.05 -0.05 1.1" fill="#3c3327" fill-rule="evenodd" stroke="none"/>
    <path d="M1.55 1.25 L1.55 1.3 1.55 1.25" fill="#594738" fill-rule="evenodd" stroke="none"/>
    <path d="M1.5 1.35 L1.55 1.4 1.5 1.45 1.5 1.35" fill="#6a645c" fill-rule="evenodd" stroke="none"/>
    <path d="M1.55 1.45 L1.6 1.5 1.6 1.55 1.55 1.65 1.5 1.65 1.5 1.7 1.45 1.75 Q1.45 1.75 1.4 1.8 1.35 1.85 1.3 1.85 L1.35 1.75 1.4 1.7 1.35 1.7 Q1.3 1.7 1.35 1.7 L1.4 1.65 1.5 1.55 1.45 1.5 1.5 1.5 1.55 1.45" fill="#4d3d2f" fill-rule="evenodd" stroke="none"/>
    <path d="M1.55 1.65 L1.5 1.7 1.5 1.65 1.55 1.65" fill="#301f12" fill-rule="evenodd" stroke="none"/>
    <path d="M1.1 1.45 L1.1 1.5 1.05 1.55 1.0 1.55 1.0 1.5 1.1 1.45" fill="#d1c7af" fill-rule="evenodd" stroke="none"/>
    <path d="M1.4 1.65 L1.35 1.7 Q1.3 1.7 1.35 1.7 L1.4 1.7 1.35 1.75 1.3 1.75 1.25 1.75 1.35 1.65 Q1.4 1.6 1.4 1.65" fill="#635c4f" fill-rule="evenodd" stroke="none"/>
    <path d="M-1.0 -1.8 L-0.85 -1.8 Q-0.8 -1.75 -0.85 -1.65 L-0.9 -1.75 -1.0 -1.8" fill="#88877e" fill-rule="evenodd" stroke="none"/>
    <path d="M-1.3 -1.7 L-1.15 -1.8 -1.1 -1.8 Q-1.05 -1.75 -1.0 -1.8 L-0.9 -1.75 -0.85 -1.65 -0.85 -1.55 -0.75 -1.4 -0.75 -1.4 -0.8 -1.4 -0.85 -1.35 -0.75 -1.35 -0.7 -1.35 Q-0.8 -1.3 -0.75 -1.25 L-0.65 -1.15 -0.65 -1.25 -0.6 -1.2 -0.55 -1.2 -0.55 -1.2 -0.5 -1.2 -0.55 -1.15 -0.55 -1.2 -0.6 -1.2 -0.6 -1.05 Q-0.55 -1.0 -0.65 -0.95 -0.65 -0.9 -0.7 -0.9 L-0.7 -0.95 -0.65 -0.95 -0.65 -1.1 Q-0.65 -1.2 -0.7 -1.15 -0.75 -1.1 -0.7 -1.05 L-0.7 -1.0 -0.75 -0.95 -0.8 -0.95 -0.85 -1.0 -0.85 -1.05 -0.8 -1.1 -0.8 -1.2 -0.8 -1.25 -1.0 -1.25 -1.0 -1.35 -1.1 -1.25 -1.1 -1.2 -1.15 -1.15 -1.2 -1.2 -1.2 -1.3 -1.1 -1.25 -1.05 -1.35 -1.15 -1.45 -1.1 -1.55 Q-1.15 -1.55 -1.2 -1.6 L-1.35 -1.65 -1.3 -1.7 M-1.15 -1.45 L-1.15 -1.45" fill="#4d4a40" fill-rule="evenodd" stroke="none"/>
    <path d="M-0.85 -1.65 L-0.75 -1.4 -0.85 -1.55 -0.85 -1.65" fill="#87867e" fill-rule="evenodd" stroke="none"/>
    <path d="M-0.75 -1.4 L-0.55 -1.25 -0.5 -1.2 -0.5 -1.2 -0.55 -1.2 -0.55 -1.2 -0.6 -1.2 -0.65 -1.25 -0.65 -1.15 -0.75 -1.25 Q-0.8 -1.3 -0.7 -1.35 L-0.75 -1.35 -0.85 -1.35 -0.8 -1.4 -0.75 -1.4 M-0.5 -1.2 L-0.5 -1.2" fill="#7c7a71" fill-rule="evenodd" stroke="none"/>
    <path d="M-1.7 -1.35 L-1.65 -1.4 -1.5 -1.5 -1.5 -1.5 -1.45 -1.5 -1.35 -1.5 Q-1.3 -1.55 -1.35 -1.45 L-1.3 -1.45 Q-1.3 -1.4 -1.25 -1.4 L-1.25 -1.4 -1.25 -1.35 -1.2 -1.3 -1.2 -1.2 -1.25 -1.15 -1.3 -1.05 -1.35 -1.1 -1.45 -1.1 -1.4 -1.05 -1.4 -1.0 Q-1.4 -0.95 -1.5 -0.95 L-1.45 -1.0 Q-1.4 -1.05 -1.45 -1.05 L-1.65 -1.15 -1.6 -1.2 -1.55 -1.2 Q-1.55 -1.25 -1.6 -1.25 L-1.7 -1.25 -1.7 -1.35" fill="#3c3830" fill-rule="evenodd" stroke="none"/>
    <path d="M-1.15 -1.8 L-1.15 -1.85 -1.1 -1.8 -1.15 -1.8" fill="#9a9792" fill-rule="evenodd" stroke="none"/>
    <path d="M-1.5 -1.5 L-1.4 -1.6 -1.3 -1.7 -1.35 -1.65 -1.2 -1.6 Q-1.15 -1.55 -1.1 -1.55 L-1.15 -1.45 -1.15 -1.55 -1.25 -1.55 -1.3 -1.45 -1.25 -1.4 Q-1.3 -1.4 -1.3 -1.45 L-1.35 -1.45 Q-1.3 -1.55 -1.35 -1.5 L-1.45 -1.5 -1.5 -1.5" fill="#7b776a" fill-rule="evenodd" stroke="none"/>
    <path d="M-1.15 -1.45 L-1.15 -1.45 -1.1 -1.35 -1.1 -1.3 -1.15 -1.4 -1.25 -1.4 -1.3 -1.45 -1.25 -1.55 -1.15 -1.55 -1.15 -1.45 M-1.25 -1.4 L-1.25 -1.4" fill="#a09a86" fill-rule="evenodd" stroke="none"/>
    <path d="M-1.15 -1.45 L-1.05 -1.35 -1.1 -1.25 -1.2 -1.3 -1.25 -1.35 -1.25 -1.4 -1.15 -1.4 -1.1 -1.3 -1.1 -1.35 -1.15 -1.45" fill="#807860" fill-rule="evenodd" stroke="none"/>
    <path d="M-1.0 -0.55 L-1.05 -0.6 -1.1 -0.7 -1.1 -0.7 -1.15 -0.8 -1.2 -0.75 -1.2 -0.75 -1.25 -0.85 -1.3 -0.9 -1.4 -0.85 -1.35 -0.95 Q-1.3 -1.0 -1.4 -1.0 L-1.4 -1.05 -1.45 -1.1 -1.35 -1.1 -1.3 -1.05 -1.25 -1.15 -1.2 -1.2 -1.15 -1.15 -1.2 -1.1 Q-1.25 -1.05 -1.2 -1.0 L-1.15 -0.95 -1.1 -1.0 -1.05 -1.0 -1.05 -0.95 -1.05 -0.95 -1.0 -0.95 -1.0 -0.9 -0.85 -0.75 Q-0.8 -0.7 -0.75 -0.75 -0.75 -0.75 -0.7 -0.75 -0.7 -0.8 -0.7 -0.8 L-0.6 -0.85 -0.6 -0.8 -0.55 -0.8 -0.55 -0.75 -0.5 -0.75 -0.45 -0.75 -0.45 -0.7 -0.45 -0.7 -0.5 -0.7 -0.55 -0.7 -0.55 -0.7 -0.6 -0.75 Q-0.6 -0.8 -0.6 -0.75 -0.7 -0.65 -0.65 -0.55 L-0.55 -0.45 -0.55 -0.4 Q-0.5 -0.35 -0.45 -0.4 L-0.4 -0.5 -0.4 -0.6 Q-0.45 -0.65 -0.45 -0.7 -0.35 -0.6 -0.35 -0.45 L-0.4 -0.4 -0.45 -0.35 -0.4 -0.35 -0.35 -0.3 -0.35 -0.25 -0.3 -0.25 -0.35 -0.15 -0.3 -0.15 -0.3 -0.05 -0.4 -0.05 Q-0.35 -0.15 -0.4 -0.2 L-0.5 -0.25 -0.5 -0.3 -0.55 -0.3 -0.65 -0.3 -0.75 -0.3 -0.65 -0.1 -0.65 -0.05 -0.7 0.0 Q-0.75 0.0 -0.75 -0.1 L-0.75 0.0 -0.8 0.1 -0.8 0.0 -0.85 0.0 -0.85 -0.05 Q-0.8 -0.15 -0.85 -0.2 L-0.9 -0.4 -1.0 -0.45 -1.0 -0.5 -1.0 -0.55 M-0.6 -0.85 L-0.6 -0.85" fill="#312e28" fill-rule="evenodd" stroke="none"/>
    <path d="M-0.55 -1.25 L-0.5 -1.2 -0.5 -1.2 -0.5 -1.2 -0.55 -1.25 M-0.5 -1.2 L-0.5 -1.2" fill="#c7c7bf" fill-rule="evenodd" stroke="none"/>
    <path d="M-0.6 -0.85 L-0.6 -0.85 -0.6 -0.85 M-0.5 -0.75 L-0.55 -0.75 -0.45 -0.8 -0.4 -0.8 -0.4 -0.75 -0.4 -0.7 -0.35 -0.7 -0.3 -0.65 -0.3 -0.45 -0.25 -0.45 -0.3 -0.4 -0.35 -0.35 -0.35 -0.35 Q-0.3 -0.4 -0.35 -0.4 L-0.4 -0.35 -0.45 -0.35 -0.4 -0.4 -0.35 -0.45 Q-0.35 -0.6 -0.45 -0.7 L-0.45 -0.7 -0.45 -0.75 -0.5 -0.75" fill="#6b675d" fill-rule="evenodd" stroke="none"/>
    <path d="M-0.45 -0.7 L-0.45 -0.7 Q-0.45 -0.65 -0.4 -0.6 L-0.4 -0.5 -0.45 -0.4 Q-0.5 -0.35 -0.55 -0.4 L-0.55 -0.45 -0.65 -0.55 Q-0.7 -0.65 -0.6 -0.75 -0.6 -0.8 -0.6 -0.75 L-0.55 -0.7 -0.55 -0.7 -0.5 -0.7 -0.45 -0.7 -0.45 -0.7" fill="#535047" fill-rule="evenodd" stroke="none"/>
    <path d="M-0.2 -0.75 L-0.15 -0.75 -0.2 -0.7 -0.25 -0.65 -0.3 -0.65 -0.25 -0.7 -0.2 -0.75" fill="#68655b" fill-rule="evenodd" stroke="none"/>
    <path d="M-0.8 -1.2 L-0.8 -1.1 -0.85 -1.05 -0.85 -1.0 -0.8 -0.95 -0.75 -0.95 -0.75 -0.9 Q-0.75 -0.85 -0.7 -0.85 L-0.75 -0.8 Q-0.85 -0.8 -0.85 -0.85 L-0.95 -0.9 -0.95 -0.95 -1.0 -1.0 -1.0 -1.0 -1.05 -1.05 -1.0 -1.1 -1.0 -1.1 -0.95 -1.1 -0.9 -1.05 -0.9 -1.05 -0.85 -1.05 Q-0.8 -1.1 -0.8 -1.2" fill="#67655a" fill-rule="evenodd" stroke="none"/>
    <path d="M-0.75 -0.75 L-0.7 -0.85 -0.6 -0.85 -0.7 -0.8 Q-0.7 -0.8 -0.7 -0.75 -0.75 -0.75 -0.75 -0.75" fill="#76736a" fill-rule="evenodd" stroke="none"/>
    <path d="M-0.9 0.15 L-0.9 0.15 -0.9 0.05 -0.8 0.0 -0.8 0.1 -0.75 0.0 -0.75 -0.1 Q-0.75 0.0 -0.7 0.0 L-0.65 -0.05 -0.65 -0.1 -0.75 -0.3 -0.65 -0.3 -0.55 -0.3 -0.5 -0.3 -0.5 -0.25 -0.4 -0.2 Q-0.35 -0.15 -0.4 -0.05 L-0.5 -0.05 -0.45 0.0 -0.35 0.0 -0.4 0.05 -0.45 0.05 -0.5 0.05 -0.55 0.05 -0.6 0.05 -0.65 0.05 Q-0.65 0.0 -0.7 0.0 L-0.75 0.1 -0.85 0.15 -0.9 0.15" fill="#201d19" fill-rule="evenodd" stroke="none"/>
    <path d="M-0.35 -0.3 L-0.25 -0.35 Q-0.2 -0.4 -0.2 -0.45 L-0.2 -0.3 -0.15 -0.3 Q-0.1 -0.3 -0.1 -0.3 L-0.1 -0.25 -0.2 -0.2 Q-0.3 -0.2 -0.3 -0.25 L-0.35 -0.25 -0.35 -0.3" fill="#5c594f" fill-rule="evenodd" stroke="none"/>
    <path d="M-0.4 -0.05 L-0.3 -0.05 -0.3 -0.15 -0.35 -0.15 -0.3 -0.25 Q-0.3 -0.2 -0.2 -0.2 L-0.1 -0.25 -0.2 -0.15 Q-0.2 -0.1 -0.15 -0.1 L-0.2 -0.05 -0.25 0.05 -0.3 0.0 -0.35 0.0 -0.45 0.0 -0.5 -0.05 -0.4 -0.05" fill="#45433a" fill-rule="evenodd" stroke="none"/>
    <path d="M-0.1 -0.3 L-0.05 -0.35 -0.05 -0.25 -0.1 -0.2 -0.05 -0.25 -0.05 -0.2 -0.1 -0.1 -0.15 -0.05 -0.25 0.05 -0.2 -0.05 -0.15 -0.1 Q-0.2 -0.1 -0.2 -0.15 L-0.1 -0.25 -0.1 -0.3" fill="#7b786d" fill-rule="evenodd" stroke="none"/>
    <path d="M-0.1 -0.1 L-0.05 -0.2 Q0.0 -0.15 -0.05 -0.05 L-0.15 0.05 -0.15 -0.05 -0.1 -0.1" fill="#7c786e" fill-rule="evenodd" stroke="none"/>
    <path d="M-1.1 -1.2 L-1.1 -1.25 -1.0 -1.35 -1.0 -1.25 -1.1 -1.2" fill="#787367" fill-rule="evenodd" stroke="none"/>
    <path d="M-0.5 0.7 L-0.5 0.65 -0.55 0.65 -0.55 0.55 -0.45 0.45 -0.45 0.45 -0.5 0.5 Q-0.45 0.4 -0.5 0.45 L-0.55 0.5 -0.6 0.5 -0.55 0.5 -0.55 0.55 -0.6 0.6 -0.65 0.55 -0.7 0.45 -0.8 0.45 -0.85 0.4 -0.9 0.25 -0.9 0.2 -0.85 0.2 -0.85 0.15 -0.75 0.1 -0.7 0.0 Q-0.65 0.0 -0.65 0.05 L-0.6 0.05 -0.55 0.05 -0.5 0.05 -0.45 0.05 -0.4 0.05 -0.35 0.0 -0.3 0.0 -0.25 0.05 -0.35 0.05 Q-0.4 0.1 -0.35 0.15 L-0.25 0.1 -0.2 0.15 -0.25 0.15 -0.25 0.2 -0.35 0.3 -0.4 0.4 -0.3 0.3 -0.2 0.25 Q-0.05 0.2 -0.05 0.3 L-0.05 0.45 -0.15 0.4 -0.2 0.5 Q-0.1 0.5 -0.2 0.55 L-0.3 0.65 -0.35 0.65 -0.45 0.65 -0.5 0.7" fill="#0d0a09" fill-rule="evenodd" stroke="none"/>
    <path d="M-0.45 0.75 Q-0.45 0.7 -0.5 0.7 L-0.5 0.7 -0.45 0.65 -0.35 0.65 -0.4 0.7 -0.45 0.75 M-0.55 0.65 L-0.55 0.6 -0.6 0.6 -0.55 0.55 -0.55 0.5 -0.6 0.5 -0.55 0.5 -0.5 0.45 Q-0.45 0.4 -0.5 0.5 L-0.45 0.45 -0.45 0.45 -0.55 0.55 -0.55 0.65" fill="#444036" fill-rule="evenodd" stroke="none"/>
    <path d="M0.0 0.65 L-0.1 0.6 -0.1 0.55 -0.05 0.5 0.0 0.55 0.0 0.6 0.0 0.65" fill="#666155" fill-rule="evenodd" stroke="none"/>
    <path d="M-0.9 0.2 L-0.9 0.2 -0.9 0.15 -0.85 0.15 -0.85 0.2 -0.9 0.2" fill="#6b6361" fill-rule="evenodd" stroke="none"/>
    <path d="M-0.4 0.85 L-0.45 0.85 -0.45 0.75 -0.4 0.7 -0.35 0.65 -0.3 0.65 -0.2 0.7 -0.2 0.75 -0.3 0.8 -0.35 0.85 -0.4 0.85" fill="#7e7667" fill-rule="evenodd" stroke="none"/>
    <path d="M-0.2 0.9 L-0.3 0.85 -0.4 0.85 -0.35 0.85 -0.3 0.8 -0.2 0.75 -0.2 0.9" fill="#5f584c" fill-rule="evenodd" stroke="none"/>
    <path d="M0.0 0.85 L0.0 0.85 0.05 0.9 0.0 1.0 -0.1 0.95 -0.1 0.9 0.0 0.85" fill="#696458" fill-rule="evenodd" stroke="none"/>
    <path d="M-0.1 1.05 L-0.1 1.05 -0.15 0.95 -0.15 0.95 -0.15 0.95 -0.1 0.95 Q-0.05 1.0 -0.1 1.0 L-0.1 1.05" fill="#676051" fill-rule="evenodd" stroke="none"/>
    <path d="M0.85 -0.7 Q0.85 -0.8 0.8 -0.8 L0.6 -0.75 0.5 -0.7 0.4 -0.6 0.4 -0.6 0.35 -0.55 0.3 -0.65 0.2 -0.65 Q0.1 -0.65 0.05 -0.7 L0.05 -0.75 0.0 -0.8 0.0 -0.8 -0.05 -0.85 -0.1 -0.9 -0.1 -0.85 -0.15 -0.9 -0.25 -0.85 -0.35 -0.8 -0.4 -0.85 -0.45 -0.8 -0.5 -0.85 -0.55 -0.85 -0.55 -0.95 -0.5 -1.0 -0.55 -1.0 -0.55 -1.05 -0.5 -1.1 -0.5 -1.15 -0.45 -1.2 -0.5 -1.2 -0.5 -1.2 -0.55 -1.25 -0.75 -1.4 -0.75 -1.4 -0.85 -1.65 Q-0.8 -1.75 -0.85 -1.8 L-1.0 -1.8 Q-1.05 -1.75 -1.1 -1.8 L-1.15 -1.85 -1.15 -1.8 -1.3 -1.7 -1.4 -1.6 -1.5 -1.5 -1.5 -1.5 -1.65 -1.4 -1.7 -1.35 -1.75 -1.25 -1.75 -1.0 -1.7 -0.95 -1.55 -0.9 -1.5 -0.85 Q-1.45 -0.85 -1.45 -0.8 L-1.4 -0.75 -1.4 -0.75 Q-1.4 -0.7 -1.35 -0.65 L-1.35 -0.65 -1.25 -0.7 -1.1 -0.7 -1.05 -0.6 -1.0 -0.55 -1.0 -0.5 -1.05 -0.5 -1.05 -0.5 -1.05 -0.45 -1.1 -0.45 -1.1 -0.4 -1.1 -0.35 -1.15 -0.3 -1.15 -0.25 -1.1 -0.2 -1.1 -0.15 -1.0 0.0 -1.0 0.05 -1.0 0.05 -0.95 0.1 -0.95 0.1 -0.9 0.15 -0.9 0.15 -0.9 0.2 -0.9 0.2 -0.9 0.25 -0.85 0.4 -0.8 0.45 -0.7 0.45 -0.65 0.55 -0.6 0.6 -0.55 0.6 -0.55 0.65 -0.5 0.65 -0.5 0.7 -0.5 0.7 Q-0.45 0.7 -0.45 0.75 L-0.45 0.85 -0.4 0.85 -0.3 0.85 -0.2 0.9 -0.2 0.9 -0.15 0.95 -0.15 0.95 -0.1 1.05 -0.1 1.05 -0.05 1.1 0.05 1.15 0.1 1.2 0.1 1.25 0.15 1.25 0.15 1.3 0.2 1.35 0.4 1.45 0.45 1.5 0.45 1.6 0.55 1.6 0.6 1.65 0.65 1.65 0.65 1.7 0.7 1.75 0.75 1.75 0.7 1.8 0.7 1.85 0.75 1.85 0.8 1.85 0.85 1.8 1.0 1.8 1.05 1.8 1.1 1.75 1.15 1.75 1.2 1.8 1.25 1.85 1.3 1.85 1.35 1.85 1.4 1.8 1.45 1.75 1.5 1.7 1.55 1.65 1.6 1.55 1.6 1.5 1.55 1.45 1.55 1.4 1.5 1.35 1.55 1.3 1.55 1.25 1.55 1.2 1.6 1.1 1.6 1.05 1.6 1.0 1.65 0.95 1.65 0.9 1.7 0.8 1.65 0.8 1.55 0.8 1.55 0.75 1.6 0.75 1.6 0.6 1.4 0.5 1.35 0.45 1.2 0.35 1.3 0.2 Q1.4 0.1 1.3 0.1 L1.25 0.0 1.15 -0.05 Q1.1 -0.05 1.1 -0.1 L1.15 -0.25 1.15 -0.3 1.1 -0.35 0.95 -0.25 0.95 -0.25 0.9 -0.3 0.95 -0.4 0.9 -0.5 0.9 -0.55 0.8 -0.55 0.8 -0.55 Q0.7 -0.5 0.75 -0.55 L0.85 -0.7 M0.6 -0.55 L0.65 -0.65 Q0.65 -0.7 0.7 -0.7 L0.75 -0.75 0.8 -0.7 0.75 -0.6 0.65 -0.55 0.6 -0.55 0.6 -0.55 M-1.15 -1.15 L-1.1 -1.2 -1.0 -1.25 -0.8 -1.25 -0.8 -1.2 Q-0.8 -1.1 -0.85 -1.05 L-0.9 -1.05 -0.9 -1.05 -0.95 -1.1 -1.0 -1.1 -1.0 -1.1 -1.05 -1.05 -1.05 -1.0 -1.1 -1.0 -1.15 -0.95 -1.2 -1.0 Q-1.25 -1.05 -1.2 -1.1 L-1.15 -1.15 Z" fill="none" stroke="#000000" stroke-linecap="round" stroke-linejoin="round" stroke-opacity="0.4509804" stroke-width="1.0"/>
  </g>
</svg>
