<?xml version="1.0" encoding="UTF-8" standalone="no"?>
<svg xmlns:xlink="http://www.w3.org/1999/xlink" height="5.45px" width="5.45px" xmlns="http://www.w3.org/2000/svg">
  <g transform="matrix(1.0, 0.0, 0.0, 1.0, 2.9, 2.9)">
    <path d="M-2.9 -2.9 L2.55 -2.9 2.55 2.55 -2.9 2.55 -2.9 -2.9" fill="url(#gradient0)" fill-rule="evenodd" stroke="none"/>
    <path d="M0.6 -2.1 L0.55 -2.1 0.1 -1.85 Q-0.3 -1.65 -0.7 -1.45 L-0.95 -1.75 0.6 -2.1 M-0.35 0.25 L-0.2 0.75 -0.7 1.2 -0.7 1.2 -0.85 1.4 -0.8 1.05 -0.8 1.0 Q-0.8 0.8 -0.65 0.6 L-0.35 0.25" fill="#40dde2" fill-rule="evenodd" stroke="none"/>
    <path d="M-0.7 -1.45 Q-0.3 -1.65 0.1 -1.85 L0.55 -2.1 0.6 -2.1 1.55 -1.35 0.6 -0.9 0.4 -1.05 0.15 -1.2 -0.2 -1.3 -0.2 -1.3 Q-0.2 -1.2 -0.5 -1.35 L-0.7 -1.45 M0.55 2.1 L-0.85 1.95 -0.85 1.4 -0.7 1.2 -0.7 1.2 -0.2 0.75 -0.15 1.05 -0.15 1.1 Q-0.1 1.4 0.05 1.6 0.25 1.9 0.55 2.1 M-1.9 0.25 L-1.9 0.0 -1.6 0.05 Q-1.45 0.05 -1.3 -0.05 L-1.25 -0.1 -1.0 -0.15 -0.65 -0.15 -0.5 -0.15 -0.4 0.05 -0.35 0.25 -0.65 0.6 Q-0.8 0.8 -0.8 1.0 L-0.8 1.05 -1.0 0.8 -1.25 0.55 -1.3 0.55 -1.9 0.25" fill="#03a5aa" fill-rule="evenodd" stroke="none"/>
    <path d="M-0.95 -1.75 L-0.7 -1.45 -0.5 -1.35 Q-0.2 -1.2 -0.2 -1.3 L-0.2 -1.3 0.15 -1.2 0.4 -1.05 -0.2 -0.85 -0.5 -0.95 -0.65 -0.9 -0.7 -0.85 Q-0.8 -0.75 -0.95 -0.75 L-1.55 -0.9 -1.6 -0.9 -1.85 -1.1 -0.95 -1.75" fill="#87faff" fill-rule="evenodd" stroke="none"/>
    <path d="M0.4 -1.05 L0.6 -0.9 0.35 -0.8 -0.35 -0.5 -0.55 -0.4 -0.6 -0.4 Q-0.85 -0.4 -1.35 -0.75 L-1.55 -0.9 -0.95 -0.75 Q-0.8 -0.75 -0.7 -0.85 L-0.65 -0.9 -0.5 -0.95 -0.2 -0.85 0.4 -1.05" fill="#c9fcff" fill-rule="evenodd" stroke="none"/>
    <path d="M0.6 -0.9 L1.55 -1.35 1.75 -0.7 Q1.1 -0.4 0.9 -0.1 0.75 0.15 0.75 0.7 L0.75 0.75 0.3 0.65 -0.05 0.1 -0.2 -0.2 -0.35 -0.5 0.35 -0.8 0.6 -0.9 M-0.85 1.95 L-1.8 1.6 -1.9 0.25 -1.3 0.55 -1.25 0.55 -1.0 0.8 -0.8 1.05 -0.85 1.4 -0.85 1.95" fill="#007faa" fill-rule="evenodd" stroke="none"/>
    <path d="M1.75 -0.7 Q2.35 0.85 1.05 1.7 L0.95 1.7 0.75 0.75 0.75 0.7 Q0.75 0.15 0.9 -0.1 1.1 -0.4 1.75 -0.7" fill="#005c7b" fill-rule="evenodd" stroke="none"/>
    <path d="M0.95 1.7 L0.55 2.1 Q0.25 1.9 0.05 1.6 -0.1 1.4 -0.15 1.1 L-0.15 1.05 -0.2 0.75 -0.35 0.25 -0.4 0.05 -0.5 -0.15 -0.55 -0.4 -0.35 -0.5 -0.2 -0.2 -0.05 0.1 0.3 0.65 0.75 0.75 0.95 1.7" fill="#006f95" fill-rule="evenodd" stroke="none"/>
    <path d="M-1.9 0.0 L-1.85 -1.1 -1.6 -0.9 -1.55 -0.9 -1.35 -0.75 Q-0.85 -0.4 -0.6 -0.4 L-0.55 -0.4 -0.5 -0.15 -0.65 -0.15 -1.0 -0.15 -1.25 -0.1 -1.3 -0.05 Q-1.45 0.05 -1.6 0.05 L-1.9 0.0" fill="#007e93" fill-rule="evenodd" stroke="none"/>
    <path d="M0.6 -2.1 L-0.95 -1.75 -1.85 -1.1 -1.9 0.0 -1.9 0.25 -1.8 1.6 -0.85 1.95 0.55 2.1 0.95 1.7 1.05 1.7 Q2.35 0.85 1.75 -0.7 L1.55 -1.35 0.6 -2.1 Z" fill="none" stroke="#000000" stroke-linecap="round" stroke-linejoin="round" stroke-opacity="0.4" stroke-width="1.0"/>
  </g>
  <defs>
    <radialGradient cx="0" cy="0" gradientTransform="matrix(0.0047, 0.0, 0.0, 0.0047, -0.15, -0.15)" gradientUnits="userSpaceOnUse" id="gradient0" r="819.2" spreadMethod="pad">
      <stop offset="0.0" stop-color="#8ae1ff"/>
      <stop offset="1.0" stop-color="#0488b5"/>
    </radialGradient>
  </defs>
</svg>
