<?xml version="1.0" encoding="UTF-8" standalone="no"?>
<svg xmlns:xlink="http://www.w3.org/1999/xlink" height="4.3px" width="3.05px" xmlns="http://www.w3.org/2000/svg">
  <g transform="matrix(1.0, 0.0, 0.0, 1.0, 1.35, 2.1)">
    <path d="M1.0 0.45 L1.0 0.35 1.0 0.2 1.05 0.1 1.05 0.05 1.0 0.0 1.0 0.0 1.05 -0.1 1.05 -0.15 1.0 -0.15 1.1 -0.25 1.1 -0.3 1.1 -0.35 1.05 -0.4 1.05 -0.5 1.05 -0.55 1.1 -0.6 1.1 -0.8 1.1 -0.9 1.15 -1.0 1.15 -1.1 1.15 -1.15 1.15 -1.25 1.15 -1.3 1.2 -1.4 1.2 -1.4 1.3 -1.3 1.3 -1.25 1.35 -1.15 1.35 -1.0 1.4 -0.9 1.35 -0.8 1.35 -0.8 1.3 -0.75 1.3 -0.7 1.3 -0.75 1.25 -0.75 1.2 -0.7 1.25 -0.65 1.25 -0.6 1.3 -0.6 1.3 -0.6 1.3 -0.5 1.25 -0.5 1.25 -0.5 1.3 -0.45 1.3 -0.45 1.3 -0.25 1.3 -0.15 1.25 -0.15 1.2 -0.1 1.15 -0.1 1.15 -0.05 1.1 -0.05 1.1 0.05 1.1 0.25 1.1 0.3 1.15 0.3 1.15 0.45 1.2 0.5 1.15 0.6 1.15 0.7 1.15 0.8 1.15 0.9 1.15 1.05 1.1 1.1 1.05 1.1 1.05 1.2 1.0 1.25 0.95 1.25 0.95 1.2 1.0 1.2 0.95 1.2 0.95 1.15 0.9 1.15 0.95 1.1 0.95 1.05 Q0.95 1.0 0.95 1.0 L1.0 1.0 1.0 0.95 1.0 1.0 1.05 1.0 1.05 0.95 1.1 0.9 1.05 0.85 1.05 0.8 1.1 0.7 1.1 0.6 Q1.15 0.55 1.1 0.5 L1.05 0.5 1.0 0.45 M-0.2 1.5 L-0.2 1.4 -0.2 1.4 Q-0.15 1.4 -0.15 1.35 L-0.15 1.35 -0.15 1.25 -0.2 1.2 Q-0.2 1.2 -0.2 1.15 L-0.2 1.15 -0.2 1.1 -0.15 1.1 -0.15 1.05 -0.15 1.0 -0.2 0.95 -0.15 0.95 -0.15 0.8 -0.15 0.7 -0.15 0.6 -0.15 0.5 -0.2 0.5 -0.2 0.4 -0.15 0.4 -0.1 0.35 -0.1 0.4 -0.1 0.4 -0.05 0.4 -0.05 0.45 -0.05 0.45 -0.05 0.5 0.0 0.45 0.0 0.5 0.0 0.5 0.05 0.5 0.05 0.55 0.0 0.55 0.0 0.55 -0.05 0.55 -0.05 0.55 -0.05 0.55 -0.1 0.6 -0.1 0.6 -0.1 0.6 -0.1 0.7 -0.1 0.7 -0.1 0.75 -0.1 0.75 -0.1 0.75 -0.1 0.8 -0.1 0.85 -0.1 0.85 -0.1 0.9 -0.1 0.9 -0.05 0.9 -0.1 0.95 -0.1 0.95 -0.1 0.95 -0.15 0.95 -0.15 1.0 -0.15 1.0 -0.1 1.0 -0.15 1.05 -0.15 1.05 -0.1 1.1 -0.1 1.15 -0.1 1.2 -0.1 1.2 -0.1 1.25 -0.1 1.3 -0.15 1.35 -0.15 1.35 -0.15 1.4 -0.15 1.45 -0.15 1.45 -0.2 1.45 -0.2 1.5 M0.4 -1.4 L0.5 -1.4 0.5 -1.35 0.45 -1.35 0.45 -1.35 0.4 -1.25 0.45 -1.25 0.45 -1.2 0.45 -1.15 0.5 -1.1 0.5 -1.05 0.4 -1.0 0.4 -1.05 0.35 -1.05 Q0.3 -1.1 0.35 -1.1 L0.35 -1.15 0.3 -1.2 0.3 -1.25 0.25 -1.25 0.3 -1.3 0.3 -1.35 0.35 -1.4 0.35 -1.4 0.4 -1.4 0.4 -1.4 M-0.15 -1.25 L-0.15 -1.3 -0.1 -1.25 -0.1 -1.15 -0.1 -1.1 -0.1 -1.0 -0.05 -0.95 -0.05 -0.85 -0.1 -0.85 -0.1 -0.75 -0.05 -0.7 -0.05 -0.65 Q-0.1 -0.65 -0.1 -0.65 L-0.15 -0.6 -0.15 -0.6 -0.15 -0.5 -0.2 -0.45 -0.2 -0.5 -0.2 -0.5 -0.25 -0.6 -0.25 -0.65 -0.25 -0.7 -0.3 -0.75 -0.3 -0.8 -0.25 -0.8 -0.2 -0.8 -0.2 -0.85 -0.15 -0.85 -0.15 -1.0 -0.15 -1.1 -0.15 -1.2 -0.2 -1.2 -0.15 -1.25 -0.15 -1.25" fill="#3f76a3" fill-rule="evenodd" stroke="none"/>
    <path d="M1.05 -1.2 L1.1 -1.25 1.1 -1.35 1.15 -1.4 1.2 -1.4 1.15 -1.3 1.15 -1.25 1.15 -1.15 1.15 -1.1 1.15 -1.0 1.1 -0.9 1.1 -0.8 1.1 -0.6 1.05 -0.55 1.05 -0.5 1.05 -0.4 1.1 -0.35 1.1 -0.3 1.1 -0.25 1.0 -0.15 1.05 -0.15 1.05 -0.1 1.0 0.0 1.0 0.0 1.05 0.05 1.05 0.1 1.0 0.2 1.0 0.35 1.0 0.45 1.0 0.55 1.0 0.65 1.0 0.8 0.95 0.85 0.95 0.9 1.0 0.95 1.0 1.0 0.95 1.0 Q0.95 1.0 0.95 1.05 L0.95 1.1 0.9 1.15 0.85 1.15 0.9 1.2 0.9 1.25 0.85 1.3 0.8 1.3 0.8 1.45 0.8 1.65 0.8 1.6 0.75 1.5 0.75 1.45 0.7 1.4 0.75 1.25 0.75 1.1 0.75 0.95 0.75 0.85 0.75 0.8 0.7 0.8 0.7 0.65 0.75 0.6 0.75 0.5 0.75 0.4 0.75 0.3 0.7 0.3 0.65 0.25 0.65 0.2 0.7 0.2 0.75 0.2 0.75 0.15 Q0.75 0.1 0.75 0.1 L0.75 0.0 0.7 -0.05 0.7 -0.1 0.75 -0.1 0.75 -0.15 0.75 -0.15 0.7 -0.2 0.7 -0.25 0.7 -0.35 0.7 -0.4 0.7 -0.45 0.65 -0.45 Q0.6 -0.45 0.6 -0.5 L0.6 -0.55 0.6 -0.55 0.65 -0.55 0.65 -0.6 0.65 -0.6 0.6 -0.65 0.6 -0.7 0.55 -0.7 0.55 -0.75 0.55 -0.8 0.5 -0.8 0.45 -0.75 0.5 -0.7 0.5 -0.7 0.45 -0.6 0.45 -0.6 0.45 -0.6 0.5 -0.5 0.5 -0.5 0.45 -0.45 0.45 -0.35 0.45 -0.35 0.4 -0.35 0.4 -0.35 0.35 -0.3 0.35 -0.3 0.3 -0.3 0.3 -0.2 0.3 -0.15 0.3 -0.1 0.3 -0.05 0.25 -0.05 0.25 0.0 0.25 0.0 0.2 0.0 0.2 -0.05 0.15 0.0 0.15 0.1 0.15 0.2 0.15 0.3 0.15 0.4 0.15 0.5 0.2 0.55 0.15 0.6 0.15 0.65 0.1 0.6 0.15 0.6 0.1 0.6 0.05 0.6 0.05 0.55 0.05 0.5 0.05 0.45 0.0 0.4 0.0 0.3 0.0 0.25 0.0 0.15 0.0 0.1 0.0 0.05 0.05 0.05 0.05 -0.05 0.05 -0.05 0.0 -0.1 0.0 -0.15 0.0 -0.2 0.0 -0.25 0.0 -0.3 0.0 -0.4 0.0 -0.5 0.0 -0.5 -0.05 -0.55 -0.05 -0.55 -0.1 -0.5 -0.1 -0.5 -0.1 -0.4 -0.1 -0.25 -0.1 -0.15 -0.1 -0.05 -0.1 0.0 -0.15 0.0 -0.15 0.05 -0.15 0.1 -0.15 0.1 -0.1 0.2 -0.1 0.25 -0.1 0.3 -0.1 0.35 -0.15 0.4 -0.2 0.4 -0.2 0.5 -0.15 0.5 -0.15 0.6 -0.15 0.7 -0.15 0.8 -0.15 0.95 -0.2 0.95 -0.15 1.0 -0.15 1.05 -0.15 1.1 -0.2 1.1 -0.2 1.15 -0.2 1.15 Q-0.2 1.2 -0.2 1.2 L-0.15 1.25 -0.15 1.35 -0.15 1.35 Q-0.15 1.4 -0.2 1.4 L-0.2 1.4 -0.2 1.4 -0.25 1.15 Q-0.25 1.1 -0.3 1.05 L-0.3 1.05 -0.4 0.95 -0.4 0.9 -0.45 0.9 -0.45 0.9 -0.45 0.9 -0.5 0.85 -0.5 0.85 -0.5 0.8 -0.5 0.75 -0.45 0.7 -0.45 0.7 -0.45 0.7 -0.4 0.7 -0.4 0.65 -0.4 0.6 -0.4 0.55 -0.45 0.4 -0.4 0.35 -0.4 0.3 -0.4 0.25 -0.4 0.25 -0.35 0.2 -0.35 0.2 -0.3 0.15 -0.3 0.15 -0.25 0.15 -0.25 0.15 -0.2 0.15 -0.2 -0.05 -0.2 -0.25 -0.2 -0.35 -0.2 -0.4 -0.25 -0.4 -0.25 -0.4 -0.3 -0.4 -0.3 -0.35 -0.3 -0.3 -0.3 -0.3 -0.35 -0.3 -0.35 -0.3 -0.35 -0.2 -0.35 -0.15 -0.35 -0.05 -0.4 0.05 -0.4 0.05 -0.4 0.0 -0.45 -0.05 -0.4 -0.05 -0.4 -0.1 -0.4 -0.2 -0.4 -0.2 -0.4 -0.25 -0.4 -0.35 -0.35 -0.35 -0.35 -0.4 -0.35 -0.45 -0.3 -0.45 -0.3 -0.5 -0.35 -0.65 -0.35 -0.75 -0.35 -0.8 -0.35 -0.85 -0.4 -0.9 -0.4 -0.85 -0.45 -0.8 -0.45 -0.7 Q-0.45 -0.65 -0.5 -0.6 L-0.5 -0.6 -0.5 -0.7 -0.5 -0.8 -0.55 -0.85 -0.55 -0.75 -0.55 -0.7 -0.6 -0.55 -0.55 -0.5 -0.55 -0.45 -0.6 -0.4 -0.6 -0.35 -0.65 -0.3 -0.7 -0.3 -0.7 -0.35 -0.7 -0.4 -0.75 -0.45 -0.75 -0.55 -0.75 -0.6 -0.8 -0.55 -0.8 -0.5 -0.85 -0.5 -0.85 -0.55 -0.85 -0.55 -0.9 -0.6 -0.9 -0.6 -0.95 -0.55 -0.95 -0.5 -1.0 -0.45 -1.0 -0.4 -1.05 -0.3 -1.05 -0.25 -1.0 -0.2 -1.0 -0.2 -0.95 -0.2 -0.95 -0.2 -0.95 -0.25 -0.95 -0.25 -0.9 -0.3 -0.9 -0.3 -0.9 -0.25 -0.9 -0.2 -0.85 -0.15 -0.85 -0.1 -0.85 -0.1 -0.85 -0.05 -0.8 -0.05 -0.8 -0.1 -0.75 -0.1 -0.75 -0.15 Q-0.75 -0.2 -0.7 -0.15 L-0.7 -0.15 -0.7 -0.1 -0.7 -0.05 -0.75 0.0 -0.75 0.05 -0.75 0.1 -0.8 0.15 -0.8 0.1 -0.85 0.1 -0.85 0.05 -0.85 0.05 -0.9 0.1 -0.85 0.1 -0.85 0.15 -0.9 0.15 -0.9 0.2 -0.85 0.2 -0.85 0.25 -0.8 0.25 -0.75 0.25 -0.7 0.25 -0.75 0.3 -0.75 0.3 -0.7 0.35 -0.7 0.4 -0.7 0.4 -0.75 0.45 -0.75 0.5 -0.75 0.5 -0.7 0.55 -0.7 0.6 -0.7 0.65 -0.7 0.7 -0.7 0.75 -0.75 0.8 -0.75 0.8 -0.85 0.9 -0.85 0.85 -0.85 0.85 Q-0.85 0.8 -0.85 0.8 L-0.9 0.75 -0.9 0.7 -0.9 0.65 -0.85 0.65 -0.85 0.65 -0.9 0.6 -0.9 0.6 -0.9 0.5 -0.95 0.5 -0.95 0.45 Q-0.95 0.4 -0.95 0.4 L-1.0 0.45 -1.0 0.45 -1.05 0.45 -1.05 0.5 -1.05 0.55 -1.1 0.6 -1.1 0.55 -1.1 0.5 -1.1 0.4 -1.15 0.35 -1.15 0.35 -1.2 0.35 -1.2 0.35 -1.25 0.35 -1.25 0.4 -1.25 0.3 -1.3 0.25 -1.3 -0.15 -1.3 -0.15 -1.2 -0.25 -1.2 -0.35 -1.2 -0.35 -1.15 -0.4 -1.15 -0.45 -1.15 -0.5 -1.15 -0.55 -1.15 -0.6 -1.1 -0.6 -1.1 -0.65 -1.15 -0.7 -1.1 -0.75 -1.1 -0.8 -1.15 -0.75 -1.15 -0.7 -1.2 -0.65 -1.2 -0.6 -1.2 -0.6 -1.25 -0.55 -1.3 -0.55 -1.3 -0.5 -1.3 -0.5 -1.3 -0.55 -1.3 -0.65 -1.25 -0.65 -1.25 -0.7 -1.25 -0.8 -1.25 -0.8 -1.25 -0.9 -1.2 -0.85 -1.2 -0.85 -1.15 -0.85 -1.15 -0.85 -1.1 -0.85 -1.1 -0.85 -1.05 -0.85 -1.05 -0.9 -1.05 -0.9 -1.05 -0.95 -1.05 -1.15 -1.0 -1.25 -0.95 -1.3 -0.95 -1.35 -0.95 -1.3 Q-0.9 -1.3 -0.9 -1.3 L-0.9 -1.35 -0.85 -1.3 -0.8 -1.35 -0.8 -1.35 -0.75 -1.4 -0.75 -1.4 -0.75 -1.45 -0.7 -1.45 -0.65 -1.5 -0.65 -1.55 -0.65 -1.6 -0.7 -1.6 -0.7 -1.65 -0.7 -1.7 -0.7 -1.75 -0.7 -1.8 -0.65 -1.8 Q-0.65 -1.75 -0.65 -1.75 L-0.65 -1.75 -0.6 -1.75 -0.55 -1.8 -0.55 -1.85 -0.5 -1.9 -0.45 -1.9 -0.45 -1.9 -0.4 -1.9 -0.4 -1.9 -0.4 -1.85 -0.4 -1.85 -0.35 -1.85 -0.35 -1.85 -0.3 -1.85 -0.3 -1.85 -0.25 -1.85 -0.2 -1.8 -0.2 -1.8 -0.2 -1.75 -0.15 -1.75 -0.15 -1.7 Q-0.15 -1.7 -0.1 -1.7 L-0.1 -1.7 -0.05 -1.7 -0.05 -1.75 0.0 -1.7 0.0 -1.7 0.05 -1.75 0.1 -1.75 0.1 -1.75 0.05 -1.9 0.05 -1.9 0.1 -1.95 0.2 -1.9 0.2 -1.9 0.25 -1.95 0.25 -1.95 0.35 -1.95 0.4 -1.9 0.45 -1.9 0.45 -1.9 0.5 -1.8 0.5 -1.75 0.55 -1.7 0.6 -1.8 0.65 -1.8 0.75 -1.75 0.8 -1.7 0.85 -1.65 0.85 -1.65 0.9 -1.6 0.95 -1.5 0.95 -1.45 1.0 -1.4 0.95 -1.35 0.95 -1.2 0.95 -1.15 0.9 -1.15 0.9 -1.15 0.9 -1.1 0.85 -1.1 0.85 -1.0 0.9 -1.0 0.9 -0.9 0.9 -0.85 0.9 -0.75 0.9 -0.65 0.9 -0.65 0.9 -0.6 0.85 -0.55 0.85 -0.55 0.85 -0.5 0.85 -0.45 0.85 -0.45 0.9 -0.45 0.9 -0.4 0.95 -0.4 0.95 -0.4 1.0 -0.35 1.0 -0.4 1.0 -0.4 1.0 -0.55 1.0 -0.65 1.05 -0.65 1.05 -0.75 1.05 -0.8 1.05 -0.85 1.05 -0.9 1.05 -0.95 1.05 -1.05 1.05 -1.1 1.05 -1.15 1.05 -1.2 1.1 -1.2 1.05 -1.2 M1.4 -0.9 L1.4 -0.8 1.5 -0.55 1.5 -0.4 1.5 -0.35 Q1.5 -0.3 1.6 -0.3 L1.65 -0.3 1.65 -0.25 Q1.7 -0.2 1.65 -0.1 L1.65 0.05 Q1.7 0.15 1.65 0.2 1.55 0.2 1.55 0.3 L1.55 0.4 1.55 0.6 1.5 0.7 1.5 0.65 1.45 0.65 1.45 0.6 1.4 0.55 1.45 0.45 1.45 0.25 1.4 0.2 1.35 0.25 1.35 0.35 1.35 0.45 1.3 0.55 1.35 0.6 1.3 0.65 1.3 0.7 1.25 0.7 1.25 0.75 1.3 0.75 1.3 0.9 1.35 0.95 1.3 0.95 1.25 1.0 1.25 1.05 1.35 1.1 1.3 1.1 1.3 1.15 1.15 1.1 1.15 1.2 1.15 1.4 1.1 1.4 1.05 1.45 1.05 1.3 1.0 1.3 1.0 1.25 1.05 1.2 1.05 1.1 1.1 1.1 1.15 1.05 1.15 0.9 1.15 0.8 1.15 0.7 1.15 0.6 1.2 0.5 1.15 0.45 1.15 0.3 1.15 0.15 1.15 -0.05 1.15 -0.1 1.2 -0.1 1.25 -0.15 1.3 -0.15 1.3 -0.25 1.3 -0.45 1.3 -0.45 1.25 -0.5 1.25 -0.5 1.3 -0.5 1.3 -0.6 1.3 -0.55 1.3 -0.6 1.3 -0.7 1.3 -0.7 1.3 -0.75 1.35 -0.8 1.35 -0.8 1.4 -0.9 M0.65 1.65 L0.6 1.65 0.6 1.7 Q0.55 1.8 0.5 1.75 L0.45 1.7 0.45 1.6 Q0.45 1.55 0.5 1.55 L0.55 1.55 0.55 1.25 0.6 1.25 0.6 1.2 0.65 1.2 0.65 1.3 0.65 1.4 0.6 1.45 0.6 1.55 0.65 1.55 0.65 1.65 M0.4 -1.4 L0.4 -1.4 0.35 -1.4 0.35 -1.4 0.3 -1.35 0.3 -1.3 0.25 -1.25 0.3 -1.25 0.3 -1.2 0.35 -1.15 0.35 -1.1 Q0.3 -1.1 0.35 -1.05 L0.4 -1.05 0.4 -1.0 0.5 -1.05 0.5 -1.1 0.45 -1.15 0.45 -1.2 0.45 -1.25 0.4 -1.25 0.45 -1.35 0.45 -1.35 0.5 -1.35 0.5 -1.4 0.4 -1.4 M0.05 -1.2 L0.0 -1.1 0.0 -1.1 0.0 -1.0 0.0 -0.95 0.0 -0.85 0.0 -0.85 0.05 -0.8 0.05 -0.75 0.05 -0.75 0.05 -0.7 0.0 -0.65 0.0 -0.65 0.05 -0.6 0.05 -0.55 0.05 -0.5 0.0 -0.45 0.0 -0.45 0.05 -0.4 0.1 -0.35 0.1 -0.3 Q0.15 -0.25 0.2 -0.3 L0.2 -0.35 0.25 -0.4 0.25 -0.4 0.25 -0.5 0.2 -0.5 0.15 -0.5 0.15 -0.55 0.15 -0.55 0.2 -0.6 0.2 -0.6 Q0.25 -0.55 0.25 -0.6 L0.3 -0.6 0.3 -0.65 0.25 -0.7 0.3 -0.7 Q0.35 -0.75 0.25 -0.8 L0.25 -0.85 0.25 -0.9 0.25 -0.95 0.2 -0.95 0.2 -0.95 0.15 -0.95 0.15 -1.0 0.1 -1.05 Q0.1 -1.05 0.1 -1.1 L0.1 -1.2 0.05 -1.2 0.05 -1.2 M1.45 0.0 L1.45 0.1 1.45 0.15 1.5 0.15 1.5 -0.05 1.5 -0.1 1.5 -0.1 1.45 -0.05 1.45 0.0 M0.15 0.75 L0.15 0.85 0.15 0.95 0.15 1.05 0.1 1.1 0.15 1.1 0.15 1.15 0.1 1.15 0.1 1.1 0.05 1.1 0.05 1.05 0.05 0.95 0.05 0.85 0.05 0.75 0.1 0.75 0.1 0.7 0.15 0.7 0.15 0.75 M0.95 0.65 L0.9 0.7 Q0.9 0.75 0.9 0.8 L0.9 0.95 0.9 1.05 0.95 1.0 0.95 0.9 0.95 0.8 0.95 0.65 M-0.65 -1.25 L-0.7 -1.2 -0.75 -1.2 -0.75 -1.2 -0.8 -1.2 -0.8 -1.15 -0.85 -1.1 -0.85 -1.1 -0.8 -1.0 -0.75 -1.0 -0.75 -1.0 -0.7 -0.95 -0.7 -0.95 -0.65 -0.95 -0.65 -1.05 -0.6 -1.05 -0.65 -1.1 -0.65 -1.15 Q-0.6 -1.2 -0.65 -1.2 L-0.65 -1.25 -0.65 -1.25 M-0.3 -1.65 L-0.3 -1.6 -0.35 -1.6 -0.35 -1.55 -0.35 -1.45 -0.4 -1.45 -0.45 -1.45 -0.45 -1.4 -0.5 -1.35 -0.45 -1.35 -0.45 -1.3 -0.45 -1.25 -0.4 -1.2 -0.4 -1.2 -0.35 -1.15 -0.35 -1.1 Q-0.3 -1.1 -0.35 -1.1 L-0.4 -1.1 -0.45 -1.0 -0.45 -1.0 -0.35 -0.95 -0.35 -0.9 -0.35 -0.85 -0.3 -0.85 -0.3 -0.85 -0.3 -0.95 -0.3 -1.05 -0.25 -1.05 Q-0.2 -1.05 -0.2 -1.1 L-0.2 -1.15 -0.25 -1.2 -0.2 -1.2 -0.2 -1.25 -0.25 -1.3 -0.3 -1.35 -0.3 -1.4 -0.25 -1.4 -0.25 -1.45 -0.2 -1.45 -0.2 -1.5 -0.25 -1.55 -0.25 -1.6 -0.3 -1.65 M-0.15 -1.25 L-0.15 -1.25 -0.2 -1.2 -0.15 -1.2 -0.15 -1.1 -0.15 -1.0 -0.15 -0.85 -0.2 -0.85 -0.2 -0.8 -0.25 -0.8 -0.3 -0.8 -0.3 -0.75 -0.25 -0.7 -0.25 -0.65 -0.25 -0.6 -0.2 -0.5 -0.2 -0.5 -0.2 -0.45 -0.15 -0.5 -0.15 -0.6 -0.15 -0.6 -0.1 -0.65 Q-0.1 -0.65 -0.05 -0.65 L-0.05 -0.7 -0.1 -0.75 -0.1 -0.85 -0.05 -0.85 -0.05 -0.95 -0.1 -1.0 -0.1 -1.1 -0.1 -1.15 -0.1 -1.25 -0.15 -1.3 -0.15 -1.25 M-0.9 -0.95 L-0.9 -0.85 -0.9 -0.8 -0.9 -0.75 -0.9 -0.75 -0.95 -0.75 -0.95 -0.7 -0.95 -0.65 -0.95 -0.65 -0.9 -0.65 -0.85 -0.65 -0.85 -0.65 Q-0.8 -0.6 -0.8 -0.65 L-0.75 -0.7 -0.75 -0.75 -0.7 -0.75 -0.7 -0.8 -0.7 -0.8 -0.75 -0.8 -0.75 -0.85 -0.8 -0.9 -0.8 -0.95 Q-0.85 -0.95 -0.9 -0.95" fill="#7597b6" fill-rule="evenodd" stroke="none"/>
    <path d="M1.1 -1.35 L1.1 -1.25 1.05 -1.2 1.05 -1.15 1.05 -1.1 1.05 -1.05 1.05 -0.95 1.05 -0.9 1.05 -0.9 1.0 -0.95 1.0 -0.9 1.0 -0.85 1.0 -0.8 0.95 -0.75 1.0 -0.75 1.0 -0.7 1.0 -0.65 1.05 -0.65 1.0 -0.65 1.0 -0.55 1.0 -0.4 1.0 -0.4 1.0 -0.35 0.95 -0.4 0.95 -0.4 0.9 -0.4 0.9 -0.45 0.85 -0.45 0.85 -0.45 0.85 -0.5 0.85 -0.55 0.85 -0.55 0.9 -0.6 0.9 -0.65 0.9 -0.65 0.9 -0.75 0.9 -0.85 0.9 -0.9 0.9 -1.0 0.85 -1.0 0.85 -1.1 0.9 -1.1 0.9 -1.15 0.9 -1.15 0.95 -1.15 0.95 -1.2 0.95 -1.35 1.0 -1.4 1.0 -1.4 1.05 -1.35 1.1 -1.35 M1.05 -1.2 L1.05 -1.2" fill="#4279a7" fill-rule="evenodd" stroke="none"/>
    <path d="M-1.25 -0.9 L-1.2 -0.9 -1.15 -0.9 -1.1 -0.9 -1.1 -0.95 -1.05 -0.95 -1.05 -0.9 -1.05 -0.9 -1.05 -0.85 -1.1 -0.85 -1.1 -0.85 -1.15 -0.85 -1.15 -0.85 -1.2 -0.85 -1.2 -0.85 -1.25 -0.9 M-0.95 -1.35 Q-0.9 -1.35 -0.9 -1.45 L-0.9 -1.5 -0.85 -1.5 -0.8 -1.5 Q-0.75 -1.5 -0.7 -1.55 L-0.7 -1.55 Q-0.75 -1.65 -0.75 -1.8 L-0.7 -1.8 -0.7 -1.85 -0.65 -1.95 -0.6 -1.95 -0.6 -2.0 -0.55 -2.0 -0.5 -2.05 -0.45 -2.1 -0.45 -2.1 -0.35 -2.05 -0.3 -2.05 Q-0.25 -2.0 -0.25 -2.05 L-0.2 -2.05 -0.1 -2.05 -0.05 -2.0 0.0 -1.95 0.05 -1.9 0.1 -1.75 0.1 -1.75 0.05 -1.75 0.0 -1.7 0.0 -1.7 -0.05 -1.75 -0.05 -1.7 -0.1 -1.7 -0.1 -1.7 Q-0.15 -1.7 -0.15 -1.7 L-0.15 -1.75 -0.2 -1.75 -0.2 -1.8 -0.2 -1.8 -0.25 -1.85 -0.3 -1.85 -0.3 -1.85 -0.35 -1.85 -0.35 -1.85 -0.4 -1.85 -0.4 -1.85 -0.4 -1.9 -0.4 -1.9 -0.45 -1.9 -0.45 -1.9 -0.5 -1.9 -0.55 -1.85 -0.55 -1.8 -0.6 -1.75 -0.65 -1.75 -0.65 -1.75 Q-0.65 -1.75 -0.65 -1.8 L-0.7 -1.8 -0.7 -1.75 -0.7 -1.7 -0.7 -1.65 -0.7 -1.6 -0.65 -1.6 -0.65 -1.55 -0.65 -1.5 -0.7 -1.45 -0.75 -1.45 -0.75 -1.4 -0.75 -1.4 -0.8 -1.35 -0.8 -1.35 -0.85 -1.3 -0.9 -1.35 -0.9 -1.3 Q-0.9 -1.3 -0.95 -1.3 L-0.95 -1.35" fill="#abb5cf" fill-rule="evenodd" stroke="none"/>
    <path d="M1.45 0.65 L1.4 0.65 1.4 0.75 1.4 1.0 1.35 1.05 1.35 1.1 1.25 1.05 1.25 1.0 1.3 0.95 1.35 0.95 1.3 0.9 1.3 0.75 1.25 0.75 1.25 0.7 1.3 0.7 1.3 0.65 1.35 0.6 1.3 0.55 1.35 0.45 1.35 0.35 1.35 0.25 1.4 0.2 1.45 0.25 1.45 0.45 1.4 0.55 1.45 0.6 1.45 0.65 M0.45 1.7 L0.4 1.8 0.4 1.95 0.35 2.05 0.35 2.2 0.3 2.0 0.25 1.95 0.3 1.9 0.3 1.8 0.35 1.8 0.3 1.75 0.3 1.7 0.3 1.6 0.35 1.55 0.35 1.45 0.35 1.25 0.4 1.25 0.35 1.1 0.35 1.05 0.4 0.95 0.4 0.9 0.4 0.8 0.4 0.5 0.4 0.25 0.35 0.25 0.35 0.2 0.3 0.25 0.3 0.35 0.25 0.4 0.25 0.55 0.3 0.6 0.3 0.65 0.3 0.75 0.3 0.85 0.25 0.95 0.25 1.05 0.3 1.1 0.3 1.2 0.3 1.35 0.25 1.4 0.3 1.45 0.25 1.5 0.25 1.6 0.2 1.6 0.2 1.65 0.15 1.7 0.15 1.7 0.1 1.65 0.05 1.65 0.05 1.6 0.05 1.5 0.0 1.5 -0.05 1.45 -0.05 1.5 -0.05 1.6 -0.05 1.65 Q0.0 1.65 -0.05 1.65 L-0.05 1.75 0.0 1.75 0.0 1.8 -0.05 1.8 -0.05 1.9 -0.05 1.9 0.0 1.95 0.0 2.0 -0.05 2.15 -0.15 1.85 -0.15 1.8 -0.1 1.8 -0.1 1.8 -0.1 1.7 -0.1 1.65 -0.1 1.6 -0.1 1.55 -0.1 1.5 -0.05 1.45 -0.1 1.4 -0.05 1.35 -0.05 1.35 0.0 1.3 0.0 1.25 -0.05 1.2 -0.05 1.2 -0.05 1.1 -0.05 1.05 0.0 1.0 -0.05 1.0 -0.05 0.95 0.0 0.95 0.0 0.9 -0.05 0.85 -0.05 0.8 -0.05 0.75 -0.05 0.65 0.0 0.65 0.05 0.6 0.05 0.55 0.05 0.6 0.1 0.6 0.15 0.6 0.1 0.6 0.15 0.65 0.15 0.6 0.2 0.55 0.15 0.5 0.15 0.4 0.15 0.3 0.15 0.2 0.15 0.1 0.15 0.0 0.2 -0.05 0.2 0.0 0.25 0.0 0.25 0.0 0.25 -0.05 0.3 -0.05 0.3 -0.1 0.3 -0.15 0.3 -0.2 0.3 -0.3 0.35 -0.3 0.35 -0.3 0.4 -0.35 0.4 -0.35 0.45 -0.35 0.45 -0.35 0.45 -0.45 0.5 -0.5 0.5 -0.5 0.45 -0.6 0.45 -0.6 0.45 -0.6 0.5 -0.7 0.5 -0.7 0.45 -0.75 0.5 -0.8 0.55 -0.8 0.55 -0.75 0.55 -0.7 0.6 -0.7 0.6 -0.65 0.65 -0.6 0.65 -0.6 0.65 -0.55 0.6 -0.55 0.6 -0.55 0.6 -0.5 Q0.6 -0.45 0.65 -0.45 L0.7 -0.45 0.7 -0.4 0.7 -0.35 0.7 -0.25 0.7 -0.2 0.75 -0.15 0.75 -0.15 0.75 -0.1 0.7 -0.1 0.7 -0.05 0.75 0.0 0.75 0.1 Q0.75 0.1 0.75 0.15 L0.75 0.2 0.7 0.2 0.65 0.2 0.65 0.25 0.7 0.3 0.75 0.3 0.75 0.4 0.75 0.5 0.75 0.6 0.7 0.65 0.7 0.8 0.7 0.85 0.65 0.9 0.65 1.0 0.65 1.1 0.65 1.15 0.6 1.2 0.6 1.25 0.55 1.25 0.55 1.3 0.5 1.3 0.5 1.4 0.45 1.45 0.45 1.6 0.45 1.7 M-0.4 0.9 L-0.4 1.0 -0.45 1.25 -0.45 1.3 -0.5 1.4 -0.5 1.4 -0.55 1.5 -0.6 1.45 -0.65 1.45 Q-0.7 1.45 -0.7 1.35 L-0.7 1.0 -0.7 0.7 -0.65 0.45 -0.65 0.2 -0.65 0.15 -0.6 0.1 -0.6 0.05 -0.55 0.05 -0.55 0.0 -0.55 -0.1 -0.55 -0.1 -0.5 -0.15 -0.5 -0.3 -0.5 -0.35 -0.5 -0.4 -0.5 -0.55 -0.5 -0.6 -0.5 -0.6 Q-0.45 -0.65 -0.45 -0.7 L-0.45 -0.8 -0.4 -0.85 -0.4 -0.9 -0.35 -0.85 -0.35 -0.8 -0.35 -0.75 -0.35 -0.65 -0.3 -0.5 -0.3 -0.45 -0.35 -0.45 -0.35 -0.4 -0.35 -0.35 -0.4 -0.35 -0.4 -0.25 -0.4 -0.2 -0.4 -0.2 -0.4 -0.1 -0.4 -0.05 -0.45 -0.05 -0.4 0.0 -0.4 0.05 -0.4 0.05 -0.35 -0.05 -0.35 -0.15 -0.35 -0.2 -0.35 -0.3 -0.35 -0.3 -0.3 -0.3 -0.3 -0.3 -0.3 -0.35 -0.3 -0.4 -0.25 -0.4 -0.25 -0.4 -0.2 -0.4 -0.2 -0.35 -0.2 -0.25 -0.2 -0.05 -0.2 0.15 -0.25 0.15 -0.25 0.15 -0.3 0.15 -0.3 0.15 -0.35 0.2 -0.35 0.2 -0.4 0.25 -0.4 0.25 -0.4 0.3 -0.4 0.35 -0.45 0.4 -0.4 0.55 -0.4 0.6 -0.4 0.65 -0.4 0.7 -0.45 0.7 -0.45 0.7 -0.45 0.7 -0.5 0.75 -0.5 0.8 -0.5 0.85 -0.5 0.85 -0.45 0.9 -0.45 0.9 -0.45 0.9 -0.4 0.9 M-0.85 0.9 L-0.9 0.95 -0.95 0.9 -0.95 0.85 -1.05 0.65 -1.05 0.55 -1.05 0.5 -1.05 0.45 -1.0 0.45 -1.0 0.45 -0.95 0.4 Q-0.95 0.4 -0.95 0.45 L-0.95 0.5 -0.9 0.5 -0.9 0.6 -0.9 0.6 -0.85 0.65 -0.85 0.65 -0.9 0.65 -0.9 0.7 -0.9 0.75 -0.85 0.8 Q-0.85 0.8 -0.85 0.85 L-0.85 0.85 -0.85 0.9 M-1.1 0.6 L-1.15 0.6 -1.15 0.6 -1.2 0.5 -1.25 0.45 -1.25 0.4 -1.25 0.35 -1.2 0.35 -1.2 0.35 -1.15 0.35 -1.15 0.35 -1.1 0.4 -1.1 0.5 -1.1 0.55 -1.1 0.6 M-0.1 0.35 L-0.1 0.3 -0.1 0.25 -0.1 0.2 -0.15 0.1 -0.15 0.1 -0.15 0.05 -0.15 0.0 -0.1 0.0 -0.1 -0.05 -0.1 -0.15 -0.1 -0.25 -0.1 -0.4 -0.1 -0.5 -0.1 -0.5 -0.05 -0.55 -0.05 -0.55 0.0 -0.5 0.0 -0.5 0.0 -0.4 0.0 -0.3 0.0 -0.25 0.0 -0.2 0.0 -0.15 0.0 -0.1 0.05 -0.05 0.05 -0.05 0.05 0.05 0.0 0.05 0.0 0.1 0.0 0.15 0.0 0.25 0.0 0.3 0.0 0.4 0.05 0.45 0.05 0.5 0.0 0.5 0.0 0.5 0.0 0.45 -0.05 0.5 -0.05 0.45 -0.05 0.45 -0.05 0.4 -0.1 0.4 -0.1 0.4 -0.1 0.35 M0.05 -1.2 L0.05 -1.2 0.1 -1.2 0.1 -1.1 Q0.1 -1.05 0.1 -1.05 L0.15 -1.0 0.15 -0.95 0.2 -0.95 0.2 -0.95 0.25 -0.95 0.25 -0.9 0.25 -0.85 0.25 -0.8 Q0.35 -0.75 0.3 -0.7 L0.25 -0.7 0.3 -0.65 0.3 -0.6 0.25 -0.6 Q0.25 -0.55 0.2 -0.6 L0.2 -0.6 0.15 -0.55 0.15 -0.55 0.15 -0.5 0.2 -0.5 0.25 -0.5 0.25 -0.4 0.25 -0.4 0.2 -0.35 0.2 -0.3 Q0.15 -0.25 0.1 -0.3 L0.1 -0.35 0.05 -0.4 0.0 -0.45 0.0 -0.45 0.05 -0.5 0.05 -0.55 0.05 -0.6 0.0 -0.65 0.0 -0.65 0.05 -0.7 0.05 -0.75 0.05 -0.75 0.05 -0.8 0.0 -0.85 0.0 -0.85 0.0 -0.95 0.0 -1.0 0.0 -1.1 0.0 -1.1 0.05 -1.2 M1.45 0.0 L1.45 -0.05 1.5 -0.1 1.5 -0.1 1.5 -0.05 1.5 0.15 1.45 0.15 1.45 0.1 1.45 0.0 M0.15 0.75 L0.15 0.7 0.1 0.7 0.1 0.75 0.05 0.75 0.05 0.85 0.05 0.95 0.05 1.05 0.05 1.1 0.1 1.1 0.1 1.15 0.15 1.15 0.15 1.1 0.1 1.1 0.15 1.05 0.15 0.95 0.15 0.85 0.15 0.75 M-0.65 -1.25 L-0.65 -1.25 -0.65 -1.2 Q-0.6 -1.2 -0.65 -1.15 L-0.65 -1.1 -0.6 -1.05 -0.65 -1.05 -0.65 -0.95 -0.7 -0.95 -0.7 -0.95 -0.75 -1.0 -0.75 -1.0 -0.8 -1.0 -0.85 -1.1 -0.85 -1.1 -0.8 -1.15 -0.8 -1.2 -0.75 -1.2 -0.75 -1.2 -0.7 -1.2 -0.65 -1.25 M-0.3 -1.65 L-0.25 -1.6 -0.25 -1.55 -0.2 -1.5 -0.2 -1.45 -0.25 -1.45 -0.25 -1.4 -0.3 -1.4 -0.3 -1.35 -0.25 -1.3 -0.2 -1.25 -0.2 -1.2 -0.25 -1.2 -0.2 -1.15 -0.2 -1.1 Q-0.2 -1.05 -0.25 -1.05 L-0.3 -1.05 -0.3 -0.95 -0.3 -0.85 -0.3 -0.85 -0.35 -0.85 -0.35 -0.9 -0.35 -0.95 -0.45 -1.0 -0.45 -1.0 -0.4 -1.1 -0.35 -1.1 Q-0.3 -1.1 -0.35 -1.1 L-0.35 -1.15 -0.4 -1.2 -0.4 -1.2 -0.45 -1.25 -0.45 -1.3 -0.45 -1.35 -0.5 -1.35 -0.45 -1.4 -0.45 -1.45 -0.4 -1.45 -0.35 -1.45 -0.35 -1.55 -0.35 -1.6 -0.3 -1.6 -0.3 -1.65 M-0.9 -0.95 Q-0.85 -0.95 -0.8 -0.95 L-0.8 -0.9 -0.75 -0.85 -0.75 -0.8 -0.7 -0.8 -0.7 -0.8 -0.7 -0.75 -0.75 -0.75 -0.75 -0.7 -0.8 -0.65 Q-0.8 -0.6 -0.85 -0.65 L-0.85 -0.65 -0.9 -0.65 -0.95 -0.65 -0.95 -0.65 -0.95 -0.7 -0.95 -0.75 -0.9 -0.75 -0.9 -0.75 -0.9 -0.8 -0.9 -0.85 -0.9 -0.95" fill="#a6bad3" fill-rule="evenodd" stroke="none"/>
    <path d="M1.05 -0.65 L1.0 -0.65 1.0 -0.7 1.0 -0.75 0.95 -0.75 1.0 -0.8 1.0 -0.85 1.0 -0.9 1.0 -0.95 1.05 -0.9 1.05 -0.9 1.05 -0.85 1.05 -0.8 1.05 -0.75 1.05 -0.65" fill="#1f6292" fill-rule="evenodd" stroke="none"/>
    <path d="M1.05 1.45 L1.0 1.45 Q1.0 1.55 0.95 1.5 L0.9 1.45 0.85 1.45 0.8 1.45 0.8 1.3 0.85 1.3 0.9 1.25 0.9 1.2 0.85 1.15 0.9 1.15 0.95 1.15 0.95 1.2 1.0 1.2 0.95 1.2 0.95 1.25 1.0 1.25 1.0 1.3 1.05 1.3 1.05 1.45 M-0.15 1.8 L-0.15 1.7 -0.2 1.55 -0.2 1.5 -0.2 1.45 -0.15 1.45 -0.15 1.45 -0.15 1.4 -0.15 1.35 -0.15 1.35 -0.1 1.3 -0.1 1.25 -0.1 1.2 -0.1 1.2 -0.1 1.15 -0.1 1.1 -0.15 1.05 -0.15 1.05 -0.1 1.0 -0.15 1.0 -0.15 1.0 -0.15 0.95 -0.1 0.95 -0.1 0.95 -0.1 0.95 -0.05 0.9 -0.1 0.9 -0.1 0.9 -0.1 0.85 -0.1 0.85 -0.1 0.8 -0.1 0.75 -0.1 0.75 -0.1 0.75 -0.1 0.7 -0.1 0.7 -0.1 0.6 -0.1 0.6 -0.1 0.6 -0.05 0.55 -0.05 0.55 -0.05 0.55 0.0 0.55 0.0 0.55 0.05 0.55 0.05 0.6 0.0 0.65 -0.05 0.65 -0.05 0.75 -0.05 0.8 -0.05 0.85 0.0 0.9 0.0 0.95 -0.05 0.95 -0.05 1.0 0.0 1.0 -0.05 1.05 -0.05 1.1 -0.05 1.2 -0.05 1.2 0.0 1.25 0.0 1.3 -0.05 1.35 -0.05 1.35 -0.1 1.4 -0.05 1.45 -0.1 1.5 -0.1 1.55 -0.1 1.6 -0.1 1.65 -0.1 1.7 -0.1 1.8 -0.1 1.8 -0.15 1.8 M1.3 -0.6 L1.3 -0.6 1.25 -0.6 1.25 -0.65 1.2 -0.7 1.25 -0.75 1.3 -0.75 1.3 -0.7 1.3 -0.7 1.3 -0.6 1.3 -0.55 1.3 -0.6 M1.15 -0.1 L1.15 -0.05 1.15 0.15 1.15 0.3 1.1 0.3 1.1 0.25 1.1 0.05 1.1 -0.05 1.15 -0.05 1.15 -0.1 M1.0 0.45 L1.05 0.5 1.1 0.5 Q1.15 0.55 1.1 0.6 L1.1 0.7 1.05 0.8 1.05 0.85 1.1 0.9 1.05 0.95 1.05 1.0 1.0 1.0 1.0 0.95 0.95 0.9 0.95 0.85 1.0 0.8 1.0 0.65 1.0 0.55 1.0 0.45 M0.95 0.65 L0.95 0.8 0.95 0.9 0.95 1.0 0.9 1.05 0.9 0.95 0.9 0.8 Q0.9 0.75 0.9 0.7 L0.95 0.65" fill="#215f88" fill-rule="evenodd" stroke="none"/>
    <path d="M0.25 1.95 L0.25 1.75 0.2 1.7 0.15 1.7 0.2 1.65 0.2 1.6 0.25 1.6 0.25 1.5 0.3 1.45 0.25 1.4 0.3 1.35 0.3 1.2 0.3 1.1 0.25 1.05 0.25 0.95 0.3 0.85 0.3 0.75 0.3 0.65 0.3 0.6 0.25 0.55 0.25 0.4 0.3 0.35 0.3 0.25 0.35 0.2 0.35 0.25 0.4 0.25 0.4 0.5 0.4 0.8 0.4 0.9 0.4 0.95 0.35 1.05 0.35 1.1 0.4 1.25 0.35 1.25 0.35 1.45 0.35 1.55 0.3 1.6 0.3 1.7 0.3 1.75 0.35 1.8 0.3 1.8 0.3 1.9 0.25 1.95" fill="#91aac4" fill-rule="evenodd" stroke="none"/>
    <path d="M0.8 1.65 L0.8 1.75 0.75 1.8 0.7 1.75 0.7 1.65 0.65 1.65 0.65 1.55 0.6 1.55 0.6 1.45 0.65 1.4 0.65 1.3 0.65 1.2 0.6 1.2 0.65 1.15 0.65 1.1 0.65 1.0 0.65 0.9 0.7 0.85 0.7 0.8 0.75 0.8 0.75 0.85 0.75 0.95 0.75 1.1 0.75 1.25 0.7 1.4 0.75 1.45 0.75 1.5 0.8 1.6 0.8 1.65" fill="#4e7da2" fill-rule="evenodd" stroke="none"/>
    <path d="M0.05 1.6 L0.05 1.8 0.0 1.85 0.0 2.0 0.0 1.95 -0.05 1.9 -0.05 1.9 -0.05 1.8 0.0 1.8 0.0 1.75 -0.05 1.75 -0.05 1.65 Q0.0 1.65 -0.05 1.65 L-0.05 1.6 -0.05 1.5 -0.05 1.45 0.0 1.5 0.05 1.5 0.05 1.6" fill="#dbddee" fill-rule="evenodd" stroke="none"/>
    <path d="M-1.2 -0.35 L-1.2 -0.45 -1.25 -0.45 Q-1.3 -0.35 -1.35 -0.4 L-1.35 -0.45 -1.3 -0.6 -1.3 -0.75 -1.25 -0.8 -1.25 -0.8 -1.25 -0.7 -1.25 -0.65 -1.3 -0.65 -1.3 -0.55 -1.3 -0.5 -1.3 -0.5 -1.3 -0.55 -1.25 -0.55 -1.2 -0.6 -1.2 -0.6 -1.2 -0.65 -1.15 -0.7 -1.15 -0.75 -1.1 -0.8 -1.1 -0.75 -1.15 -0.7 -1.1 -0.65 -1.1 -0.6 -1.15 -0.6 -1.15 -0.55 -1.15 -0.5 -1.15 -0.45 -1.15 -0.4 -1.2 -0.35" fill="#6185ab" fill-rule="evenodd" stroke="none"/>
    <path d="M-0.7 0.7 L-0.7 0.75 -0.7 0.7 -0.7 0.65 -0.7 0.6 -0.7 0.55 -0.75 0.5 -0.75 0.5 -0.75 0.45 -0.7 0.4 -0.7 0.4 -0.7 0.35 -0.75 0.3 -0.75 0.3 -0.7 0.25 -0.75 0.25 -0.8 0.25 -0.85 0.25 -0.85 0.2 -0.9 0.2 -0.9 0.15 -0.85 0.15 -0.85 0.1 -0.9 0.1 -0.85 0.05 -0.85 0.05 -0.85 0.1 -0.8 0.1 -0.8 0.15 -0.75 0.1 -0.75 0.05 -0.75 0.0 -0.7 -0.05 -0.7 -0.1 -0.7 -0.15 -0.7 -0.25 -0.7 -0.3 -0.75 -0.35 -0.75 -0.35 -0.8 -0.35 -0.8 -0.35 -0.8 -0.2 -0.85 -0.15 -0.85 -0.15 -0.85 -0.1 -0.85 -0.1 -0.85 -0.15 -0.9 -0.2 -0.9 -0.25 -0.9 -0.3 -0.9 -0.3 -0.95 -0.25 -0.95 -0.25 -0.95 -0.2 -0.95 -0.2 -1.0 -0.2 -1.0 -0.2 -1.05 -0.25 -1.05 -0.3 -1.0 -0.4 -1.0 -0.45 -0.95 -0.5 -0.95 -0.55 -0.9 -0.6 -0.9 -0.6 -0.85 -0.55 -0.85 -0.55 -0.85 -0.5 -0.8 -0.5 -0.8 -0.55 -0.75 -0.6 -0.75 -0.55 -0.75 -0.45 -0.7 -0.4 -0.7 -0.35 -0.7 -0.3 -0.65 -0.3 -0.6 -0.35 -0.6 -0.4 -0.55 -0.45 -0.55 -0.5 -0.6 -0.55 -0.55 -0.7 -0.55 -0.75 -0.55 -0.85 -0.5 -0.8 -0.5 -0.7 -0.5 -0.6 -0.5 -0.55 -0.5 -0.4 -0.5 -0.35 -0.5 -0.3 -0.5 -0.15 -0.55 -0.1 -0.55 -0.1 -0.55 0.0 -0.55 0.05 -0.6 0.05 -0.6 0.1 -0.65 0.15 -0.65 0.2 -0.65 0.45 -0.7 0.7" fill="#4c7ca7" fill-rule="evenodd" stroke="none"/>
    <path d="M-0.85 -0.1 L-0.85 -0.15 -0.85 -0.15 -0.8 -0.2 -0.8 -0.35 -0.8 -0.35 -0.75 -0.35 -0.75 -0.35 -0.7 -0.3 -0.7 -0.25 -0.7 -0.15 -0.7 -0.15 Q-0.75 -0.2 -0.75 -0.15 L-0.75 -0.1 -0.8 -0.1 -0.8 -0.05 -0.85 -0.05 -0.85 -0.1" fill="#1f5d8e" fill-rule="evenodd" stroke="none"/>
    <path d="M1.1 -1.35 L1.05 -1.35 1.0 -1.4 1.0 -1.4 0.95 -1.45 0.95 -1.5 0.9 -1.6 0.85 -1.65 0.85 -1.65 0.8 -1.7 0.75 -1.75 0.65 -1.8 0.6 -1.8 0.55 -1.7 0.5 -1.75 0.5 -1.8 0.45 -1.9 0.45 -1.9 0.4 -1.9 0.35 -1.95 0.25 -1.95 0.25 -1.95 0.2 -1.9 0.2 -1.9 0.1 -1.95 0.05 -1.9 0.05 -1.9 0.0 -1.95 -0.05 -2.0 -0.1 -2.05 -0.2 -2.05 -0.25 -2.05 Q-0.25 -2.0 -0.3 -2.05 L-0.35 -2.05 -0.45 -2.1 -0.45 -2.1 -0.5 -2.05 -0.55 -2.0 -0.6 -2.0 -0.6 -1.95 -0.65 -1.95 -0.7 -1.85 -0.7 -1.8 -0.75 -1.8 Q-0.75 -1.65 -0.7 -1.55 L-0.7 -1.55 Q-0.75 -1.5 -0.8 -1.5 L-0.85 -1.5 -0.9 -1.5 -0.9 -1.45 Q-0.9 -1.35 -0.95 -1.35 L-0.95 -1.3 -1.0 -1.25 -1.05 -1.15 -1.05 -0.95 -1.1 -0.95 -1.1 -0.9 -1.15 -0.9 -1.2 -0.9 -1.25 -0.9 -1.25 -0.8 -1.3 -0.75 -1.3 -0.6 -1.35 -0.45 -1.35 -0.4 Q-1.3 -0.35 -1.25 -0.45 L-1.2 -0.45 -1.2 -0.35 -1.2 -0.35 -1.2 -0.25 -1.3 -0.15 -1.3 -0.15 -1.3 0.25 -1.25 0.3 -1.25 0.4 -1.25 0.45 -1.2 0.5 -1.15 0.6 -1.15 0.6 -1.1 0.6 -1.05 0.55 -1.05 0.65 -0.95 0.85 -0.95 0.9 -0.9 0.95 -0.85 0.9 -0.75 0.8 -0.75 0.8 -0.7 0.75 -0.7 0.7 -0.7 1.0 -0.7 1.35 Q-0.7 1.45 -0.65 1.45 L-0.6 1.45 -0.55 1.5 -0.5 1.4 -0.5 1.4 -0.45 1.3 -0.45 1.25 -0.4 1.0 -0.4 0.9 -0.4 0.95 -0.3 1.05 -0.3 1.05 Q-0.25 1.1 -0.25 1.15 L-0.2 1.4 -0.2 1.4 -0.2 1.5 -0.2 1.55 -0.15 1.7 -0.15 1.8 -0.15 1.85 -0.05 2.15 0.0 2.0 0.0 1.85 0.05 1.8 0.05 1.6 0.05 1.65 0.1 1.65 0.15 1.7 0.15 1.7 0.2 1.7 0.25 1.75 0.25 1.95 0.3 2.0 0.35 2.2 0.35 2.05 0.4 1.95 0.4 1.8 0.45 1.7 0.5 1.75 Q0.55 1.8 0.6 1.7 L0.6 1.65 0.65 1.65 0.7 1.65 0.7 1.75 0.75 1.8 0.8 1.75 0.8 1.65 0.8 1.45 0.85 1.45 0.9 1.45 0.95 1.5 Q1.0 1.55 1.0 1.45 L1.05 1.45 1.1 1.4 1.15 1.4 1.15 1.2 1.15 1.1 1.3 1.15 1.3 1.1 1.35 1.1 1.35 1.05 1.4 1.0 1.4 0.75 1.4 0.65 1.45 0.65 1.5 0.65 1.5 0.7 1.55 0.6 1.55 0.4 1.55 0.3 Q1.55 0.2 1.65 0.2 1.7 0.15 1.65 0.05 L1.65 -0.1 Q1.7 -0.2 1.65 -0.25 L1.65 -0.3 1.6 -0.3 Q1.5 -0.3 1.5 -0.35 L1.5 -0.4 1.5 -0.55 1.4 -0.8 1.4 -0.9 1.35 -1.0 1.35 -1.15 1.3 -1.25 1.3 -1.3 1.2 -1.4 1.15 -1.4 1.1 -1.35 M1.2 -1.4 L1.2 -1.4 Z" fill="none" stroke="#000000" stroke-linecap="round" stroke-linejoin="round" stroke-opacity="0.4509804" stroke-width="1.0"/>
  </g>
</svg>
