<?xml version="1.0" encoding="UTF-8" standalone="no"?>
<svg xmlns:xlink="http://www.w3.org/1999/xlink" height="3.75px" width="3.9px" xmlns="http://www.w3.org/2000/svg">
  <g transform="matrix(1.0, 0.0, 0.0, 1.0, 1.8, 2.0)">
    <path d="M0.15 -1.0 L0.1 -1.05 0.1 -1.15 0.05 -1.2 0.1 -1.3 0.15 -1.4 0.3 -1.55 0.75 -1.95 0.85 -2.0 0.9 -2.0 1.0 -2.0 1.1 -1.95 1.25 -1.8 1.3 -1.75 1.3 -1.7 1.25 -1.7 1.25 -1.65 1.25 -1.6 1.25 -1.5 1.3 -1.45 1.35 -1.4 1.35 -1.35 1.4 -1.35 1.45 -1.3 1.45 -1.3 1.5 -1.3 1.5 -1.35 1.45 -1.4 1.45 -1.4 1.5 -1.4 1.5 -1.35 1.55 -1.35 1.6 -1.35 1.6 -1.3 1.65 -1.25 1.65 -1.2 1.65 -1.1 1.7 -1.1 1.75 -1.05 1.75 -1.05 1.75 -1.15 1.8 -1.15 1.8 -1.2 1.8 -1.2 1.9 -1.1 2.0 -1.0 2.0 -0.95 2.05 -0.9 2.05 -0.85 2.05 -0.85 2.05 -0.8 2.0 -0.75 2.0 -0.75 2.0 -0.75 1.95 -0.75 1.95 -0.7 1.9 -0.7 1.9 -0.65 1.85 -0.65 1.85 -0.6 1.9 -0.6 1.9 -0.6 1.9 -0.55 1.9 -0.55 1.95 -0.55 1.95 -0.6 1.95 -0.65 1.95 -0.7 2.0 -0.7 2.0 -0.7 2.0 -0.7 2.05 -0.7 2.05 -0.7 2.05 -0.7 2.1 -0.75 2.1 -0.7 2.05 -0.55 2.0 -0.55 1.95 -0.5 1.9 -0.45 1.85 -0.45 1.8 -0.45 1.8 -0.4 1.75 -0.4 1.75 -0.4 1.75 -0.35 1.7 -0.3 1.7 -0.3 1.7 -0.25 1.65 -0.25 1.65 -0.25 1.65 -0.2 1.6 -0.2 1.6 -0.2 1.6 -0.25 1.6 -0.3 1.6 -0.3 1.55 -0.3 1.55 -0.25 1.6 -0.2 1.55 -0.15 1.5 -0.1 1.5 -0.1 1.45 -0.1 1.45 -0.1 1.45 -0.05 1.4 0.05 1.35 0.05 1.3 0.05 1.25 0.05 1.25 0.0 1.3 0.0 1.3 0.0 1.3 0.0 1.35 0.0 1.35 0.0 1.35 -0.05 1.35 -0.1 1.3 -0.1 1.3 -0.1 1.25 -0.1 1.25 -0.05 1.2 -0.1 1.25 -0.1 1.3 -0.15 1.4 -0.2 1.55 -0.35 1.55 -0.35 1.6 -0.4 1.6 -0.45 1.6 -0.45 1.65 -0.5 1.6 -0.5 1.5 -0.45 1.5 -0.4 1.45 -0.35 1.45 -0.35 1.45 -0.4 1.4 -0.4 1.4 -0.45 1.35 -0.4 1.3 -0.4 1.3 -0.45 1.25 -0.45 1.25 -0.45 1.2 -0.5 1.2 -0.55 1.25 -0.55 1.25 -0.6 1.2 -0.7 1.2 -0.75 1.2 -0.75 1.25 -0.8 1.25 -0.8 1.3 -0.85 1.3 -0.85 1.3 -0.85 1.3 -0.9 1.35 -0.9 1.35 -0.95 1.4 -0.95 1.4 -1.0 1.4 -1.05 1.35 -1.1 1.35 -1.1 1.3 -1.1 1.35 -1.1 1.35 -1.15 1.3 -1.15 1.3 -1.2 1.25 -1.2 1.25 -1.25 1.2 -1.25 1.2 -1.25 1.25 -1.3 1.2 -1.35 1.2 -1.4 1.15 -1.45 1.15 -1.5 1.15 -1.55 1.1 -1.6 1.1 -1.55 1.05 -1.5 1.05 -1.55 1.0 -1.6 1.0 -1.65 0.95 -1.65 0.9 -1.7 0.85 -1.75 0.8 -1.7 0.75 -1.65 0.7 -1.65 0.65 -1.6 0.65 -1.6 0.6 -1.55 0.55 -1.5 0.55 -1.5 0.5 -1.45 0.5 -1.4 0.5 -1.4 0.5 -1.4 0.5 -1.35 0.45 -1.35 0.45 -1.35 0.4 -1.35 0.4 -1.25 0.4 -1.2 0.4 -1.2 0.45 -1.2 0.45 -1.15 0.45 -1.15 0.4 -1.15 0.4 -1.2 0.35 -1.2 0.35 -1.15 0.3 -1.1 0.3 -1.1 0.3 -1.15 0.35 -1.2 0.35 -1.25 0.4 -1.3 0.35 -1.3 0.35 -1.3 0.3 -1.25 0.2 -1.2 0.1 -1.05 0.1 -1.05 0.15 -1.05 0.15 -1.0 M0.45 -1.15 L0.45 -1.15 M1.6 -0.4 L1.6 -0.45 1.65 -0.45 1.65 -0.45 1.6 -0.45 1.6 -0.4 M1.85 -0.95 L1.8 -0.95 1.7 -0.95 1.7 -1.0 1.65 -1.0 1.6 -1.0 1.6 -1.05 1.55 -1.05 Q1.5 -1.05 1.5 -1.1 L1.45 -1.1 1.45 -1.1 1.4 -1.1 1.4 -1.1 1.4 -1.05 1.45 -1.05 1.45 -1.05 1.5 -1.0 1.55 -0.95 1.55 -0.95 1.6 -0.9 1.65 -0.9 1.65 -0.9 1.65 -0.8 1.7 -0.85 1.75 -0.85 1.85 -0.85 1.9 -0.85 1.85 -0.9 1.85 -0.95 M1.55 -0.8 L1.55 -0.85 1.5 -0.9 1.5 -0.9 1.45 -0.85 1.4 -0.85 1.4 -0.8 1.3 -0.75 1.3 -0.75 1.3 -0.7 1.3 -0.65 1.3 -0.6 1.3 -0.55 1.35 -0.55 1.35 -0.55 1.4 -0.6 1.4 -0.55 1.45 -0.5 1.45 -0.5 1.5 -0.55 1.55 -0.55 1.6 -0.6 1.6 -0.65 1.55 -0.7 1.55 -0.7 1.65 -0.75 1.55 -0.8 1.55 -0.8 M1.95 -0.75 L1.9 -0.7 1.85 -0.7 1.7 -0.55 1.7 -0.55 1.65 -0.5 1.7 -0.5 1.7 -0.55 1.75 -0.55 1.85 -0.65 2.0 -0.75 1.95 -0.75 M1.5 -0.25 L1.45 -0.25 1.45 -0.2 1.4 -0.2 1.4 -0.15 1.45 -0.1 1.45 -0.1 1.45 -0.1 1.45 -0.15 1.5 -0.15 1.5 -0.2 1.5 -0.25" fill="#5f5f5f" fill-rule="evenodd" stroke="none"/>
    <path d="M1.8 -1.2 L1.8 -1.15 1.75 -1.15 1.75 -1.05 1.75 -1.05 1.7 -1.1 1.65 -1.1 1.65 -1.2 1.65 -1.25 1.6 -1.3 1.6 -1.35 1.55 -1.35 1.5 -1.35 1.5 -1.4 1.45 -1.4 1.45 -1.4 1.5 -1.35 1.5 -1.3 1.45 -1.3 1.45 -1.3 1.4 -1.35 1.35 -1.35 1.35 -1.4 1.3 -1.45 1.25 -1.5 1.25 -1.6 1.25 -1.65 1.25 -1.7 1.3 -1.7 1.35 -1.7 1.3 -1.65 1.3 -1.6 1.35 -1.5 1.35 -1.45 1.35 -1.45 1.4 -1.45 1.4 -1.5 1.4 -1.55 1.45 -1.55 1.5 -1.5 1.65 -1.35 1.7 -1.25 1.8 -1.2" fill="#bebebe" fill-rule="evenodd" stroke="none"/>
    <path d="M1.35 -1.7 L1.45 -1.6 1.45 -1.55 1.4 -1.55 1.4 -1.5 1.4 -1.45 1.35 -1.45 1.35 -1.45 1.35 -1.5 1.3 -1.6 1.3 -1.65 1.35 -1.7" fill="#c9c9c9" fill-rule="evenodd" stroke="none"/>
    <path d="M0.65 -1.6 L0.7 -1.65 0.75 -1.65 0.8 -1.7 0.85 -1.75 0.9 -1.7 0.95 -1.65 1.0 -1.65 1.0 -1.6 1.05 -1.55 1.05 -1.5 1.05 -1.5 1.0 -1.45 1.0 -1.4 1.0 -1.4 0.9 -1.3 0.9 -1.25 0.85 -1.25 0.85 -1.25 0.85 -1.2 0.9 -1.2 0.9 -1.15 0.9 -1.1 0.95 -1.05 0.95 -1.1 1.0 -1.1 1.0 -1.15 0.95 -1.15 0.95 -1.2 1.0 -1.2 1.0 -1.2 1.05 -1.2 1.05 -1.2 1.1 -1.2 1.1 -1.2 1.15 -1.2 1.15 -1.2 1.15 -1.2 1.2 -1.25 1.2 -1.2 1.2 -1.15 1.25 -1.1 1.25 -1.05 1.2 -1.1 1.15 -1.15 1.15 -1.15 1.1 -1.1 1.05 -1.1 1.0 -1.05 1.0 -1.0 1.0 -0.95 1.0 -0.9 1.05 -0.9 1.05 -0.85 1.05 -0.75 1.0 -0.75 1.0 -0.75 0.9 -0.75 0.9 -0.7 0.9 -0.7 0.85 -0.65 0.8 -0.65 0.8 -0.7 0.75 -0.7 0.75 -0.7 0.7 -0.7 0.7 -0.75 0.65 -0.75 0.65 -0.7 0.65 -0.65 0.65 -0.6 0.7 -0.6 0.7 -0.55 0.65 -0.55 0.6 -0.6 0.6 -0.6 0.6 -0.6 0.55 -0.6 0.55 -0.65 0.5 -0.6 0.55 -0.6 0.55 -0.55 0.6 -0.55 0.6 -0.5 0.65 -0.45 0.7 -0.35 0.65 -0.35 0.65 -0.35 Q0.6 -0.35 0.55 -0.3 L0.55 -0.3 0.5 -0.35 0.55 -0.35 0.6 -0.4 0.6 -0.45 0.55 -0.45 0.55 -0.5 0.5 -0.45 0.45 -0.4 0.4 -0.5 0.45 -0.55 0.5 -0.55 0.55 -0.55 0.55 -0.55 0.5 -0.6 0.5 -0.6 0.45 -0.65 0.45 -0.65 0.4 -0.7 0.4 -0.7 0.4 -0.7 0.35 -0.75 0.3 -0.8 0.25 -0.9 0.3 -0.9 0.3 -0.9 0.35 -0.9 0.35 -0.95 0.35 -0.95 0.35 -1.0 0.4 -1.0 0.45 -1.0 0.45 -0.95 0.45 -0.95 0.5 -0.95 0.5 -0.9 0.5 -0.9 0.55 -0.9 0.55 -0.9 0.6 -0.85 0.65 -0.85 0.65 -0.9 0.6 -0.9 0.6 -0.95 0.55 -0.95 0.55 -1.0 0.6 -1.0 0.65 -1.0 0.65 -1.0 0.7 -1.0 0.75 -1.0 0.75 -0.95 0.8 -0.95 0.8 -0.95 0.85 -0.95 0.85 -0.95 0.9 -1.0 0.9 -1.05 0.85 -1.1 0.85 -1.1 0.85 -1.2 Q0.8 -1.15 0.8 -1.2 L0.75 -1.2 0.7 -1.2 Q0.7 -1.2 0.65 -1.2 L0.65 -1.25 0.7 -1.25 0.7 -1.3 0.7 -1.4 0.75 -1.45 0.75 -1.45 0.8 -1.45 0.8 -1.5 0.75 -1.5 0.75 -1.45 0.7 -1.45 0.7 -1.4 0.65 -1.3 0.6 -1.2 0.55 -1.15 0.55 -1.2 0.6 -1.25 0.65 -1.4 0.65 -1.5 0.65 -1.5 0.65 -1.6 0.65 -1.6 M0.85 -1.45 L0.85 -1.45 0.8 -1.45 0.8 -1.35 0.85 -1.35 0.9 -1.4 0.9 -1.45 0.85 -1.45 M0.4 -0.85 L0.4 -0.8 0.45 -0.75 0.5 -0.8 0.5 -0.85 0.45 -0.85 0.45 -0.9 0.4 -0.85 M1.85 -0.95 L1.85 -0.9 1.9 -0.85 1.85 -0.85 1.75 -0.85 1.7 -0.85 1.65 -0.8 1.65 -0.9 1.65 -0.9 1.6 -0.9 1.55 -0.95 1.55 -0.95 1.5 -1.0 1.45 -1.05 1.45 -1.05 1.4 -1.05 1.4 -1.1 1.4 -1.1 1.45 -1.1 1.45 -1.1 1.5 -1.1 Q1.5 -1.05 1.55 -1.05 L1.6 -1.05 1.6 -1.0 1.65 -1.0 1.7 -1.0 1.7 -0.95 1.8 -0.95 1.85 -0.95" fill="#848484" fill-rule="evenodd" stroke="none"/>
    <path d="M0.85 -1.45 L0.9 -1.45 0.9 -1.4 0.85 -1.35 0.8 -1.35 0.8 -1.45 0.85 -1.45 0.85 -1.45 M0.4 -0.85 L0.45 -0.9 0.45 -0.85 0.5 -0.85 0.5 -0.8 0.45 -0.75 0.4 -0.8 0.4 -0.85" fill="#6b6b6b" fill-rule="evenodd" stroke="none"/>
    <path d="M0.15 -1.0 L0.15 -1.05 0.1 -1.05 0.1 -1.05 0.2 -1.2 0.3 -1.25 0.35 -1.3 0.35 -1.3 0.4 -1.3 0.35 -1.25 0.35 -1.2 0.3 -1.15 0.3 -1.1 0.3 -1.1 0.35 -1.15 0.35 -1.2 0.4 -1.2 0.4 -1.15 0.45 -1.15 0.45 -1.15 0.45 -1.2 0.4 -1.2 0.4 -1.2 0.4 -1.25 0.4 -1.35 0.45 -1.35 0.45 -1.35 0.5 -1.35 0.5 -1.4 0.5 -1.4 0.5 -1.4 0.5 -1.45 0.55 -1.5 0.55 -1.5 0.6 -1.55 0.65 -1.6 0.65 -1.6 0.65 -1.6 0.65 -1.5 0.65 -1.5 0.65 -1.4 0.6 -1.25 0.55 -1.2 0.55 -1.15 0.6 -1.2 0.65 -1.3 0.7 -1.4 0.7 -1.45 0.75 -1.45 0.75 -1.5 0.8 -1.5 0.8 -1.45 0.75 -1.45 0.75 -1.45 0.7 -1.4 0.7 -1.3 0.7 -1.25 0.65 -1.25 0.65 -1.2 Q0.7 -1.2 0.7 -1.2 L0.75 -1.2 0.8 -1.2 Q0.8 -1.15 0.85 -1.2 L0.85 -1.1 0.85 -1.1 0.9 -1.05 0.9 -1.0 0.85 -0.95 0.85 -0.95 0.8 -0.95 0.8 -0.95 0.75 -0.95 0.75 -1.0 0.7 -1.0 0.65 -1.0 0.65 -1.0 0.6 -1.0 0.55 -1.0 0.55 -0.95 0.6 -0.95 0.6 -0.9 0.65 -0.9 0.65 -0.85 0.6 -0.85 0.55 -0.9 0.55 -0.9 0.5 -0.9 0.5 -0.9 0.5 -0.95 0.45 -0.95 0.45 -0.95 0.45 -1.0 0.4 -1.0 0.35 -1.0 0.35 -0.95 0.35 -0.95 0.35 -0.9 0.3 -0.9 0.3 -0.9 0.3 -0.95 0.3 -1.0 0.25 -1.1 0.25 -1.1 0.2 -1.1 0.2 -0.95 0.15 -1.0 M0.45 -1.15 L0.45 -1.1 0.45 -1.0 0.5 -1.0 0.5 -1.0 0.55 -1.0 0.55 -1.0 0.6 -1.05 0.6 -1.1 0.55 -1.1 0.55 -1.1 0.5 -1.1 0.5 -1.15 0.5 -1.15 0.45 -1.15 0.45 -1.15 0.45 -1.15" fill="#b2b2b2" fill-rule="evenodd" stroke="none"/>
    <path d="M1.05 -1.5 L1.1 -1.55 1.1 -1.6 1.15 -1.55 1.15 -1.5 1.15 -1.45 1.2 -1.4 1.2 -1.35 1.25 -1.3 1.2 -1.25 1.15 -1.2 1.15 -1.2 1.15 -1.2 1.1 -1.2 1.1 -1.2 1.05 -1.2 1.05 -1.2 1.0 -1.2 1.0 -1.2 0.95 -1.2 0.95 -1.15 1.0 -1.15 1.0 -1.1 0.95 -1.1 0.95 -1.05 0.9 -1.1 0.9 -1.15 0.9 -1.2 0.85 -1.2 0.85 -1.25 0.85 -1.25 0.9 -1.25 0.9 -1.3 1.0 -1.4 1.0 -1.4 1.0 -1.45 1.05 -1.5 1.05 -1.5 M1.2 -1.25 L1.2 -1.25" fill="#919191" fill-rule="evenodd" stroke="none"/>
    <path d="M0.45 -1.15 L0.5 -1.15 0.5 -1.15 0.5 -1.1 0.55 -1.1 0.55 -1.1 0.6 -1.1 0.6 -1.05 0.55 -1.0 0.55 -1.0 0.5 -1.0 0.5 -1.0 0.45 -1.0 0.45 -1.1 0.45 -1.15 0.45 -1.15" fill="#d0d0d0" fill-rule="evenodd" stroke="none"/>
    <path d="M1.2 -1.25 L1.2 -1.25 1.25 -1.25 1.25 -1.2 1.3 -1.2 1.3 -1.15 1.35 -1.15 1.35 -1.1 1.3 -1.1 1.35 -1.1 1.35 -1.1 1.4 -1.05 1.4 -1.0 1.4 -0.95 1.35 -0.95 1.35 -0.9 1.3 -0.9 1.3 -0.85 1.25 -0.85 1.2 -0.85 1.1 -0.8 1.05 -0.8 1.1 -0.75 1.1 -0.7 1.15 -0.65 1.15 -0.6 1.1 -0.6 1.1 -0.55 1.1 -0.45 1.1 -0.4 1.1 -0.35 1.1 -0.35 1.05 -0.35 1.05 -0.35 1.05 -0.3 1.0 -0.3 1.0 -0.3 0.95 -0.3 0.9 -0.35 0.9 -0.35 0.9 -0.35 0.85 -0.4 0.85 -0.4 0.8 -0.4 0.8 -0.35 0.8 -0.4 0.75 -0.45 0.75 -0.45 0.75 -0.45 0.7 -0.45 0.7 -0.5 0.65 -0.55 0.7 -0.55 0.7 -0.6 0.65 -0.6 0.65 -0.65 0.65 -0.7 0.65 -0.75 0.7 -0.75 0.7 -0.7 0.75 -0.7 0.75 -0.7 0.8 -0.7 0.8 -0.65 0.85 -0.65 0.9 -0.7 0.9 -0.7 0.9 -0.75 1.0 -0.75 1.0 -0.75 1.05 -0.75 1.05 -0.85 1.05 -0.9 1.0 -0.9 1.0 -0.95 1.0 -1.0 1.0 -1.05 1.05 -1.1 1.1 -1.1 1.15 -1.15 1.15 -1.15 1.2 -1.1 1.25 -1.05 1.25 -1.1 1.2 -1.15 1.2 -1.2 1.2 -1.25 1.2 -1.25 M0.95 -0.65 L0.95 -0.65 0.95 -0.6 0.9 -0.6 0.9 -0.55 0.9 -0.5 0.9 -0.45 0.95 -0.45 0.95 -0.45 1.0 -0.45 1.0 -0.45 Q1.0 -0.45 1.05 -0.45 L1.05 -0.45 1.05 -0.5 1.0 -0.55 1.0 -0.6 1.0 -0.65 0.95 -0.65" fill="#525252" fill-rule="evenodd" stroke="none"/>
    <path d="M0.2 -0.95 L0.2 -1.1 0.25 -1.1 0.25 -1.1 0.3 -1.0 0.3 -0.95 0.3 -0.9 0.25 -0.9 0.25 -0.95 0.2 -0.95 0.2 -0.95" fill="#878787" fill-rule="evenodd" stroke="none"/>
    <path d="M0.25 -0.15 L0.25 -0.15 0.3 -0.1 0.3 -0.1 0.25 -0.1 0.25 -0.05 0.2 -0.05 0.25 -0.05 0.25 0.0 0.2 0.0 0.2 0.0 0.15 0.0 0.15 0.0 0.1 -0.05 0.1 -0.05 0.15 -0.05 0.15 -0.1 0.1 -0.1 0.05 -0.15 0.1 -0.15 Q0.15 -0.15 0.15 -0.15 L0.15 -0.1 0.2 -0.1 0.2 -0.1 0.25 -0.15 0.25 -0.15 M0.45 -0.25 L0.45 -0.25 0.4 -0.2 0.4 -0.2 Q0.35 -0.2 0.35 -0.2 L0.35 -0.25 0.45 -0.3 0.45 -0.25 M0.1 0.1 L0.05 0.1 0.05 0.05 0.1 0.1" fill="#5e5149" fill-rule="evenodd" stroke="none"/>
    <path d="M0.4 -0.5 L0.45 -0.4 0.5 -0.35 0.5 -0.35 0.55 -0.3 0.45 -0.2 0.3 -0.05 0.15 0.1 0.05 0.25 -0.3 0.55 -0.9 1.1 -1.3 1.5 -1.4 1.6 -1.4 1.65 -1.45 1.65 -1.45 1.6 -1.5 1.6 -1.55 1.55 -1.6 1.5 -1.65 1.45 -1.65 1.4 -1.6 1.35 -1.4 1.2 -1.35 1.15 -1.25 1.05 -1.2 1.0 -1.15 0.95 -0.9 0.7 -0.75 0.55 -0.65 0.4 -0.45 0.25 -0.3 0.15 -0.05 -0.1 0.15 -0.35 0.35 -0.5 0.4 -0.5 M0.25 -0.15 L0.25 -0.15 0.2 -0.1 0.2 -0.1 0.15 -0.1 0.15 -0.15 Q0.15 -0.15 0.1 -0.15 L0.05 -0.15 0.1 -0.1 0.15 -0.1 0.15 -0.05 0.1 -0.05 0.1 -0.05 0.15 0.0 0.15 0.0 0.2 0.0 0.2 0.0 0.25 0.0 0.25 -0.05 0.2 -0.05 0.25 -0.05 0.25 -0.1 0.3 -0.1 0.3 -0.1 0.25 -0.15 0.25 -0.15 M0.45 -0.25 L0.45 -0.3 0.35 -0.25 0.35 -0.2 Q0.35 -0.2 0.4 -0.2 L0.4 -0.2 0.45 -0.25 0.45 -0.25 M0.55 -0.3 L0.55 -0.3 M0.1 0.1 L0.05 0.05 0.05 0.1 0.1 0.1" fill="#3e3129" fill-rule="evenodd" stroke="none"/>
    <path d="M1.3 -0.85 L1.3 -0.85 1.3 -0.85 1.25 -0.8 1.25 -0.8 1.2 -0.75 1.2 -0.75 1.2 -0.7 1.25 -0.6 1.25 -0.55 1.2 -0.55 1.2 -0.5 1.25 -0.45 1.25 -0.45 1.3 -0.45 1.3 -0.4 1.35 -0.4 1.4 -0.45 1.4 -0.4 1.45 -0.4 1.45 -0.35 1.45 -0.35 1.4 -0.3 1.4 -0.25 1.4 -0.25 1.3 -0.2 1.2 -0.05 1.2 -0.1 1.25 -0.05 1.25 -0.1 1.3 -0.1 1.3 -0.1 1.35 -0.1 1.35 -0.05 1.35 0.0 1.35 0.0 1.3 0.0 1.3 0.0 1.3 0.0 1.25 0.0 1.25 0.05 1.2 0.05 1.15 0.05 1.1 0.05 1.15 0.0 1.2 -0.05 1.1 0.0 1.05 0.0 1.0 -0.05 1.0 -0.05 1.0 -0.1 1.05 -0.1 1.05 -0.1 1.0 -0.15 1.0 -0.15 1.0 -0.15 0.95 -0.15 Q0.9 -0.15 0.9 -0.2 L0.9 -0.2 0.85 -0.25 0.85 -0.3 0.8 -0.35 0.8 -0.35 0.75 -0.4 0.75 -0.4 0.75 -0.45 0.75 -0.45 0.75 -0.45 0.8 -0.4 0.8 -0.35 0.8 -0.4 0.85 -0.4 0.85 -0.4 0.9 -0.35 0.9 -0.35 0.9 -0.35 0.95 -0.3 1.0 -0.3 1.0 -0.3 1.05 -0.3 1.05 -0.35 1.05 -0.35 1.1 -0.35 1.1 -0.35 1.1 -0.4 1.1 -0.45 1.1 -0.55 1.1 -0.6 1.15 -0.6 1.15 -0.65 1.1 -0.7 1.1 -0.75 1.05 -0.8 1.1 -0.8 1.2 -0.85 1.25 -0.85 1.3 -0.85 M2.1 -0.75 L2.05 -0.7 2.05 -0.7 2.05 -0.7 2.0 -0.7 2.0 -0.7 2.0 -0.7 1.95 -0.7 1.95 -0.65 1.95 -0.6 1.95 -0.55 1.9 -0.55 1.9 -0.55 1.9 -0.6 1.9 -0.6 1.85 -0.6 1.85 -0.65 1.9 -0.65 1.9 -0.7 1.95 -0.7 1.95 -0.75 2.0 -0.75 2.0 -0.75 2.0 -0.75 2.05 -0.8 2.05 -0.85 2.05 -0.85 2.1 -0.8 2.1 -0.75 M0.95 -0.65 L1.0 -0.65 1.0 -0.6 1.0 -0.55 1.05 -0.5 1.05 -0.45 1.05 -0.45 Q1.0 -0.45 1.0 -0.45 L1.0 -0.45 0.95 -0.45 0.95 -0.45 0.9 -0.45 0.9 -0.5 0.9 -0.55 0.9 -0.6 0.95 -0.6 0.95 -0.65 0.95 -0.65 M1.2 -0.15 L1.2 -0.2 1.15 -0.2 1.15 -0.15 1.1 -0.15 1.1 -0.1 1.1 -0.1 1.15 -0.1 1.2 -0.1 1.2 -0.15 M1.5 -0.25 L1.5 -0.2 1.5 -0.15 1.45 -0.15 1.45 -0.1 1.45 -0.1 1.45 -0.1 1.4 -0.15 1.4 -0.2 1.45 -0.2 1.45 -0.25 1.5 -0.25" fill="#3c3c3c" fill-rule="evenodd" stroke="none"/>
    <path d="M0.65 -0.55 L0.7 -0.5 0.7 -0.45 0.75 -0.45 0.75 -0.4 0.75 -0.4 0.8 -0.35 0.8 -0.35 0.85 -0.3 0.85 -0.25 0.9 -0.2 0.9 -0.2 Q0.9 -0.15 0.95 -0.15 L1.0 -0.15 1.0 -0.15 1.0 -0.15 1.05 -0.1 1.05 -0.1 1.0 -0.1 1.0 -0.05 1.0 -0.1 0.8 -0.25 0.8 -0.3 0.75 -0.3 0.7 -0.35 0.7 -0.3 0.65 -0.25 0.55 -0.3 0.55 -0.3 Q0.6 -0.35 0.65 -0.35 L0.65 -0.35 0.7 -0.35 0.65 -0.45 0.6 -0.5 0.6 -0.55 0.55 -0.55 0.55 -0.6 0.5 -0.6 0.55 -0.65 0.55 -0.6 0.6 -0.6 0.6 -0.6 0.6 -0.6 0.65 -0.55 M0.4 -0.7 L0.4 -0.7 0.45 -0.65 0.45 -0.65 0.5 -0.6 0.5 -0.6 0.55 -0.55 0.55 -0.55 0.5 -0.55 0.45 -0.55 0.4 -0.5 0.35 -0.5 0.35 -0.6 0.4 -0.65 0.4 -0.7 M0.45 -0.4 L0.5 -0.45 0.55 -0.5 0.55 -0.45 0.6 -0.45 0.6 -0.4 0.55 -0.35 0.5 -0.35 0.5 -0.35 0.45 -0.4 M0.55 -0.3 L0.55 -0.3" fill="#575654" fill-rule="evenodd" stroke="none"/>
    <path d="M1.55 -0.7 L1.55 -0.7 1.6 -0.65 1.6 -0.6 1.55 -0.55 1.5 -0.55 1.45 -0.5 1.45 -0.5 1.4 -0.55 1.4 -0.6 1.35 -0.55 1.35 -0.55 1.3 -0.55 1.3 -0.6 1.3 -0.65 1.3 -0.7 1.3 -0.75 1.3 -0.75 1.4 -0.8 1.4 -0.85 1.45 -0.85 1.5 -0.9 1.5 -0.9 1.55 -0.85 1.55 -0.8 1.5 -0.75 1.5 -0.75 1.45 -0.75 1.45 -0.7 1.5 -0.7 1.55 -0.7 1.55 -0.7" fill="#6c6c6c" fill-rule="evenodd" stroke="none"/>
    <path d="M1.55 -0.8 L1.55 -0.8 1.65 -0.75 1.55 -0.7 1.55 -0.7 1.5 -0.7 1.45 -0.7 1.45 -0.75 1.5 -0.75 1.5 -0.75 1.55 -0.8" fill="#d1d1d1" fill-rule="evenodd" stroke="none"/>
    <path d="M1.45 -0.35 L1.45 -0.35 1.5 -0.4 1.5 -0.45 1.6 -0.5 1.65 -0.5 1.6 -0.45 1.6 -0.45 1.6 -0.4 1.55 -0.35 1.5 -0.35 1.4 -0.25 1.4 -0.3 1.45 -0.35 1.45 -0.35 M1.6 -0.4 L1.6 -0.4" fill="#575757" fill-rule="evenodd" stroke="none"/>
    <path d="M1.6 -0.4 L1.6 -0.45 1.65 -0.45 1.65 -0.45 1.6 -0.45 1.6 -0.4 1.6 -0.4 M1.55 -0.35 L1.55 -0.35 1.4 -0.2 1.3 -0.15 1.25 -0.1 1.2 -0.1 1.2 -0.05 1.3 -0.2 1.4 -0.25 1.4 -0.25 1.5 -0.35 1.55 -0.35 M1.1 0.0 L1.2 -0.05 1.15 0.0 1.1 0.05 1.1 0.0 M1.95 -0.75 L2.0 -0.75 1.85 -0.65 1.75 -0.55 1.7 -0.55 1.7 -0.5 1.65 -0.5 1.7 -0.55 1.7 -0.55 1.85 -0.7 1.9 -0.7 1.95 -0.75" fill="#cccccc" fill-rule="evenodd" stroke="none"/>
    <path d="M1.2 -0.15 L1.2 -0.1 1.15 -0.1 1.1 -0.1 1.1 -0.1 1.1 -0.15 1.15 -0.15 1.15 -0.2 1.2 -0.2 1.2 -0.15" fill="#515151" fill-rule="evenodd" stroke="none"/>
    <path d="M1.4 0.05 L1.45 -0.05 1.45 -0.1 1.45 -0.1 1.5 -0.1 1.5 -0.1 1.55 -0.15 1.6 -0.2 1.55 -0.25 1.55 -0.3 1.6 -0.3 1.6 -0.3 1.6 -0.25 1.6 -0.2 1.6 -0.2 1.65 -0.2 1.65 -0.25 1.65 -0.25 1.7 -0.25 1.7 -0.3 1.7 -0.3 1.75 -0.35 1.75 -0.4 1.75 -0.4 1.8 -0.4 1.8 -0.45 1.85 -0.45 1.9 -0.45 1.95 -0.5 1.9 -0.45 1.85 -0.35 1.8 -0.3 1.7 -0.25 1.55 -0.1 1.45 0.0 1.4 0.05" fill="#bbbbbb" fill-rule="evenodd" stroke="none"/>
    <path d="M-1.65 1.4 L-1.65 1.45 -1.6 1.5 -1.55 1.55 -1.5 1.6 -1.45 1.6 -1.45 1.65 -1.4 1.65 -1.45 1.7 -1.5 1.7 -1.6 1.75 -1.7 1.7 -1.75 1.7 -1.8 1.65 -1.8 1.55 -1.7 1.45 -1.65 1.4 M-1.65 1.65 L-1.6 1.7 Q-1.55 1.65 -1.6 1.6 L-1.65 1.6 -1.65 1.55 -1.7 1.55 -1.7 1.6 -1.7 1.65 -1.65 1.65" fill="#25201a" fill-rule="evenodd" stroke="none"/>
    <path d="M-1.65 1.65 L-1.6 1.65 -1.6 1.65 -1.6 1.6 -1.65 1.6 -1.6 1.6 Q-1.55 1.65 -1.6 1.7 L-1.65 1.65 M-1.7 1.6 L-1.7 1.55 -1.65 1.55 -1.65 1.6 -1.65 1.6 -1.65 1.55 -1.7 1.6 -1.7 1.6" fill="#686a61" fill-rule="evenodd" stroke="none"/>
    <path d="M-1.65 1.6 L-1.6 1.6 -1.6 1.65 -1.6 1.65 -1.65 1.65 -1.7 1.65 -1.7 1.6 -1.7 1.6 -1.65 1.55 -1.65 1.6 -1.65 1.6" fill="#abb3a8" fill-rule="evenodd" stroke="none"/>
    <path d="M1.3 -1.7 L1.3 -1.75 1.25 -1.8 1.1 -1.95 1.0 -2.0 0.9 -2.0 0.85 -2.0 0.75 -1.95 0.3 -1.55 0.15 -1.4 0.1 -1.3 0.05 -1.2 0.1 -1.15 0.1 -1.05 0.15 -1.0 0.2 -0.95 0.2 -0.95 0.25 -0.95 0.25 -0.9 0.3 -0.8 0.35 -0.75 0.4 -0.7 0.4 -0.7 0.4 -0.65 0.35 -0.6 0.35 -0.5 0.15 -0.35 -0.05 -0.1 -0.3 0.15 -0.45 0.25 -0.65 0.4 -0.75 0.55 -0.9 0.7 -1.15 0.95 -1.2 1.0 -1.25 1.05 -1.35 1.15 -1.4 1.2 -1.6 1.35 -1.65 1.4 -1.7 1.45 -1.8 1.55 -1.8 1.65 -1.75 1.7 -1.7 1.7 -1.6 1.75 -1.5 1.7 -1.45 1.7 -1.4 1.65 -1.4 1.6 -1.3 1.5 -0.9 1.1 -0.3 0.55 0.05 0.25 0.15 0.1 0.3 -0.05 0.45 -0.2 0.55 -0.3 0.65 -0.25 0.7 -0.3 0.7 -0.35 0.75 -0.3 0.8 -0.3 0.8 -0.25 1.0 -0.1 1.0 -0.05 1.0 -0.05 1.05 0.0 1.1 0.0 1.1 0.05 1.15 0.05 1.2 0.05 1.25 0.05 1.3 0.05 1.35 0.05 1.4 0.05 1.45 0.0 1.55 -0.1 1.7 -0.25 1.8 -0.3 1.85 -0.35 1.9 -0.45 1.95 -0.5 2.0 -0.55 2.05 -0.55 2.1 -0.7 2.1 -0.75 2.1 -0.8 2.05 -0.85 2.05 -0.9 2.0 -0.95 2.0 -1.0 1.9 -1.1 1.8 -1.2 1.8 -1.2 1.7 -1.25 1.65 -1.35 1.5 -1.5 1.45 -1.55 1.45 -1.6 1.35 -1.7 1.3 -1.7 Z" fill="none" stroke="#000000" stroke-linecap="round" stroke-linejoin="round" stroke-opacity="0.4509804" stroke-width="1.0"/>
  </g>
</svg>
