<?xml version="1.0" encoding="UTF-8" standalone="no"?>
<svg xmlns:xlink="http://www.w3.org/1999/xlink" height="63.9px" width="35.25px" xmlns="http://www.w3.org/2000/svg">
  <g transform="matrix(1.0, 0.0, 0.0, 1.0, -0.5, -0.7)">
    <path d="M35.6 1.05 L35.6 1.2 34.9 1.2 34.85 1.2 25.9 1.2 24.9 1.25 24.85 1.25 24.65 1.25 24.6 1.25 24.3 1.25 24.25 1.25 23.9 1.25 23.8 1.25 23.75 1.25 23.6 1.25 22.4 1.25 22.35 1.25 22.05 1.25 21.95 1.25 21.75 1.25 21.55 1.25 21.45 1.25 1.8 1.2 1.35 1.2 1.2 1.2 Q1.35 1.1 1.6 1.1 L1.7 1.05 1.15 1.05 1.05 1.05 5.05 1.05 13.25 1.05 21.55 1.1 22.3 1.1 22.35 1.05 23.6 1.1 24.3 1.1 24.9 1.05 26.25 1.05 27.3 1.05 27.5 1.05 30.55 1.05 35.35 1.05 35.6 1.05 M0.95 1.25 L1.0 1.15 1.05 1.1 1.15 1.05 0.95 1.25" fill="#34514d" fill-rule="evenodd" stroke="none"/>
    <path d="M35.6 1.05 L35.35 1.05 Q35.15 0.9 35.0 0.7 L35.6 0.7 35.6 1.05 M30.55 1.05 L27.5 1.05 27.3 1.05 26.25 1.05 24.9 1.05 24.3 1.1 23.6 1.1 22.35 1.05 21.4 1.05 21.65 0.85 23.45 0.85 23.6 0.75 23.6 0.7 30.95 0.7 30.55 1.05 M13.25 1.05 L5.05 1.05 Q4.95 0.95 4.95 0.7 L12.0 0.7 13.4 1.05 13.25 1.05 M35.5 4.9 L35.6 4.9 35.6 5.2 35.15 5.2 35.2 5.15 35.35 5.0 Q35.4 4.95 35.5 4.9 M20.6 6.95 L20.6 7.1 10.3 7.1 9.75 6.75 10.55 6.75 11.35 6.95 20.6 6.95 M29.85 63.6 L29.45 63.9 29.7 63.95 30.15 63.95 25.2 63.95 25.05 63.95 24.65 63.95 24.35 63.95 24.0 63.95 22.7 63.95 20.6 63.95 6.25 63.95 5.95 63.9 Q5.85 63.8 5.85 63.6 L11.1 63.6 12.6 63.8 20.6 63.8 20.6 63.7 22.4 63.7 22.7 63.6 28.1 63.6 29.85 63.6 M1.15 7.1 L1.15 6.9 Q1.15 6.85 1.2 6.8 L1.25 6.75 1.35 6.75 1.6 6.75 1.55 6.85 1.5 6.85 Q1.4 7.1 1.15 7.1 M35.4 6.6 L35.35 6.5 Q35.3 6.45 35.25 6.45 L34.0 6.45 Q33.8 6.3 33.65 6.1 L35.25 6.1 Q35.45 6.1 35.6 6.25 35.75 6.4 35.75 6.6 L35.6 6.65 35.4 6.6 M30.15 6.45 L29.65 6.45 28.5 6.45 28.25 6.45 26.4 6.45 25.65 6.45 25.4 6.45 24.45 6.45 24.15 6.45 23.8 6.45 22.45 6.45 22.2 6.45 22.1 6.45 20.95 6.45 20.6 6.45 20.6 6.2 22.2 6.2 22.45 6.1 22.5 6.1 29.65 6.1 29.2 6.45 30.15 6.45 M1.5 6.45 L1.15 6.45 1.15 6.15 1.2 6.1 1.65 6.1 1.5 6.45 M0.85 6.6 L0.85 6.95 0.5 7.05 0.5 6.6 0.55 6.45 0.85 6.6 M12.0 64.25 L14.5 64.25 14.6 64.25 14.9 64.4 20.4 64.3 20.6 64.35 20.6 64.25 23.1 64.25 22.9 64.4 22.7 64.55 22.65 64.55 12.65 64.55 12.5 64.4 12.4 64.4 12.0 64.25 M29.2 6.45 L28.5 6.45 29.2 6.45 M20.05 5.05 L20.1 4.95 20.1 4.9 21.5 4.9 21.65 5.05 20.05 5.05 M14.75 4.9 L14.85 4.95 14.9 5.05 12.95 5.05 13.5 4.9 14.75 4.9 M10.9 6.1 L13.05 6.45 5.7 6.45 Q5.65 6.35 5.65 6.1 L10.9 6.1 M0.85 1.0 L0.85 0.85 0.95 0.7 0.85 1.0 M29.7 63.95 L25.4 63.95 25.2 63.95 25.4 63.95 29.7 63.95" fill="#525655" fill-rule="evenodd" stroke="none"/>
    <path d="M1.8 1.2 L21.45 1.25 21.5 1.25 21.75 1.25 21.95 1.25 22.05 1.25 22.35 1.25 23.2 1.25 23.5 1.25 23.75 1.25 23.8 1.25 23.9 1.25 24.25 1.25 24.3 1.25 24.6 1.25 24.65 1.25 24.85 1.25 24.9 1.25 25.9 1.2 34.85 1.2 34.9 1.2 34.95 1.2 35.1 1.25 35.45 1.35 35.45 1.4 1.15 1.4 Q1.3 1.3 1.5 1.25 L1.55 1.25 1.7 1.2 1.8 1.2" fill="#d2e7e4" fill-rule="evenodd" stroke="none"/>
    <path d="M35.35 1.05 L30.55 1.05 30.95 0.7 32.8 0.7 33.25 0.7 35.0 0.7 Q35.15 0.9 35.35 1.05 M22.35 1.05 L22.3 1.1 21.55 1.1 13.25 1.05 13.4 1.05 13.95 1.05 20.3 1.05 21.4 1.05 22.35 1.05 M5.05 1.05 L1.05 1.05 0.85 1.05 0.85 1.0 0.95 0.7 4.95 0.7 Q4.95 0.95 5.05 1.05 M35.15 5.2 L12.6 5.2 12.55 5.2 12.15 5.2 2.8 5.2 2.75 5.15 3.25 5.15 3.1 4.9 22.0 4.85 22.15 4.85 22.45 4.85 22.5 4.85 23.7 4.85 23.95 4.85 24.35 4.85 24.9 4.85 25.0 4.85 26.15 4.9 35.5 4.9 Q35.4 4.95 35.35 5.0 L35.2 5.15 35.15 5.2 M20.6 6.75 L34.9 6.75 34.95 6.75 35.0 6.8 35.05 6.9 35.05 63.75 35.0 63.85 35.0 63.9 34.9 63.9 30.15 63.95 29.7 63.95 29.45 63.9 29.85 63.6 34.75 63.6 34.75 63.55 34.75 16.0 34.75 15.85 34.75 7.1 20.6 7.1 20.6 6.95 20.6 6.75 M5.95 63.9 L5.9 63.9 1.35 63.9 1.25 63.9 1.2 63.85 1.15 63.75 1.15 7.1 Q1.4 7.1 1.5 6.85 L1.55 6.85 1.6 6.75 3.2 6.75 4.05 6.75 9.75 6.75 10.3 7.1 1.5 7.1 1.5 15.85 1.5 16.0 1.5 63.55 1.5 63.6 5.85 63.6 Q5.85 63.8 5.95 63.9 M35.4 6.6 L35.6 6.65 35.75 6.6 35.75 64.1 Q35.75 64.25 35.6 64.4 35.45 64.55 35.25 64.55 L22.65 64.55 22.7 64.55 22.9 64.4 23.1 64.25 28.1 64.25 Q28.15 64.2 28.25 64.25 L35.25 64.25 35.35 64.2 35.4 64.1 35.4 6.6 M33.65 6.1 Q33.8 6.3 34.0 6.45 L30.15 6.45 29.2 6.45 29.65 6.1 33.65 6.1 M29.65 6.45 L29.55 6.45 28.2 6.45 25.65 6.45 26.4 6.45 28.25 6.45 28.5 6.45 29.65 6.45 M20.6 6.45 L1.5 6.45 1.65 6.1 5.65 6.1 Q5.65 6.35 5.7 6.45 L13.05 6.45 14.05 6.45 20.6 6.45 M0.85 6.95 L0.85 49.1 0.85 53.3 0.85 64.1 0.9 64.2 0.95 64.25 1.0 64.25 8.05 64.25 8.3 64.25 12.0 64.25 12.4 64.4 12.5 64.4 12.65 64.55 1.0 64.55 Q0.8 64.55 0.65 64.4 0.5 64.25 0.5 64.1 L0.5 7.05 0.85 6.95 M20.05 5.05 L21.65 5.05 21.5 4.9 20.1 4.9 14.75 4.9 13.5 4.9 12.95 5.05 14.9 5.05 17.3 5.05 17.95 5.05 20.05 5.05 M8.05 64.25 L8.3 64.25 8.05 64.25" fill="#2e3231" fill-rule="evenodd" stroke="none"/>
    <path d="M1.15 1.05 L1.7 1.05 1.6 1.1 Q1.35 1.1 1.2 1.2 L1.15 1.25 1.55 1.25 1.5 1.25 Q1.3 1.3 1.15 1.4 L35.45 1.4 35.45 1.35 35.1 1.25 35.45 1.25 35.6 1.25 35.6 4.85 Q35.55 4.9 35.5 4.9 L26.15 4.9 25.0 4.85 24.9 4.85 24.35 4.85 23.95 4.85 23.7 4.85 22.5 4.85 22.45 4.85 22.15 4.85 22.0 4.85 3.1 4.9 3.25 5.15 2.75 5.15 1.3 5.15 Q1.0 5.0 0.85 4.75 L0.85 1.4 0.9 1.3 0.95 1.25 1.15 1.05" fill="url(#gradient0)" fill-rule="evenodd" stroke="none"/>
    <path d="M34.75 15.85 L34.75 16.0 1.5 16.0 1.5 15.85 34.75 15.85" fill="#d5d7d5" fill-opacity="0.8" fill-rule="evenodd" stroke="none"/>
    <path d="M20.6 7.1 L34.75 7.1 34.75 15.85 1.5 15.85 1.5 7.1 10.3 7.1 20.6 7.1" fill="#1e1e1e" fill-opacity="0.54901963" fill-rule="evenodd" stroke="none"/>
    <path d="M20.6 6.75 L20.6 6.95 11.35 6.95 10.55 6.75 20.6 6.75 M1.15 6.45 L1.0 6.45 Q0.95 6.45 0.9 6.5 0.85 6.5 0.85 6.6 L0.55 6.45 0.65 6.25 Q0.8 6.1 1.0 6.1 L1.2 6.1 1.15 6.15 1.15 6.45 M14.6 64.25 L14.7 64.25 20.6 64.25 20.6 64.35 20.4 64.3 14.9 64.4 14.6 64.25 M22.45 6.1 L22.2 6.2 20.6 6.2 20.6 6.1 22.45 6.1 M23.6 0.7 L23.6 0.75 23.45 0.85 21.65 0.85 21.4 1.05 20.3 1.05 21.35 0.75 21.4 0.7 23.6 0.7 M20.1 4.9 L20.1 4.95 20.05 5.05 17.95 5.05 17.3 5.05 14.9 5.05 14.85 4.95 14.75 4.9 20.1 4.9 M13.6 6.1 L14.05 6.45 13.05 6.45 10.9 6.1 11.4 6.1 13.35 6.1 13.6 6.1 13.35 6.1 13.6 6.1 M13.4 1.05 L12.0 0.7 12.5 0.75 13.7 0.7 13.7 0.75 13.95 1.05 13.4 1.05 M13.8 63.6 L14.0 63.7 20.6 63.7 20.6 63.8 12.6 63.8 11.1 63.6 13.8 63.6 M20.6 63.7 L20.6 63.6 22.7 63.6 22.4 63.7 20.6 63.7" fill="#9a9b9b" fill-rule="evenodd" stroke="none"/>
    <path d="M20.6 6.2 L20.6 6.45 14.05 6.45 13.6 6.1 13.85 6.1 13.6 6.1 13.85 6.1 20.6 6.1 20.6 6.2 M21.4 0.7 L21.35 0.75 20.3 1.05 13.95 1.05 13.7 0.75 13.7 0.7 21.4 0.7 M20.6 63.7 L14.0 63.7 13.8 63.6 20.6 63.6 20.6 63.7" fill="#c4c6c6" fill-rule="evenodd" stroke="none"/>
    <path d="M34.75 16.0 L34.75 63.55 1.5 63.55 1.5 16.0 34.75 16.0" fill="#111212" fill-opacity="0.8" fill-rule="evenodd" stroke="none"/>
    <path d="M35.5 4.9 L35.6 4.9 M30.15 63.95 L34.9 63.9 35.0 63.9 35.0 63.85 35.05 63.75 35.05 6.9 35.0 6.8 34.95 6.75 34.9 6.75 20.6 6.75 M20.6 7.1 L34.75 7.1 34.75 15.85 34.75 16.0 34.75 63.55 34.75 63.6 29.85 63.6 28.1 63.6 M29.7 63.95 L30.15 63.95 25.2 63.95 25.05 63.95 24.65 63.95 24.35 63.95 24.0 63.95 22.7 63.95 20.6 63.95 6.25 63.95 M5.9 63.9 L1.35 63.9 1.25 63.9 1.2 63.85 1.15 63.75 1.15 7.1 1.15 6.9 Q1.15 6.85 1.2 6.8 L1.25 6.75 1.35 6.75 1.6 6.75 3.2 6.75 4.05 6.75 9.75 6.75 10.55 6.75 M34.0 6.45 L35.25 6.45 Q35.3 6.45 35.35 6.5 L35.4 6.6 35.4 64.1 35.35 64.2 35.25 64.25 28.25 64.25 Q28.15 64.2 28.1 64.25 L23.1 64.25 20.6 64.25 14.7 64.25 M35.75 6.6 Q35.75 6.4 35.6 6.25 35.45 6.1 35.25 6.1 L33.65 6.1 29.65 6.1 22.5 6.1 M34.0 6.45 L30.15 6.45 29.65 6.45 29.55 6.45 28.2 6.45 25.65 6.45 25.4 6.45 24.45 6.45 24.15 6.45 23.8 6.45 22.45 6.45 22.2 6.45 22.1 6.45 20.95 6.45 20.6 6.45 1.5 6.45 1.15 6.45 1.0 6.45 Q0.95 6.45 0.9 6.5 0.85 6.5 0.85 6.6 L0.85 6.95 0.85 49.1 M0.85 53.3 L0.85 64.1 0.9 64.2 0.95 64.25 1.0 64.25 8.05 64.25 8.3 64.25 12.0 64.25 14.5 64.25 M25.65 6.45 L26.4 6.45 28.25 6.45 28.5 6.45 29.2 6.45 30.15 6.45 M20.6 6.1 L13.85 6.1 13.6 6.1 13.35 6.1 11.4 6.1 10.9 6.1 5.65 6.1 1.65 6.1 1.2 6.1 1.0 6.1 Q0.8 6.1 0.65 6.25 L0.55 6.45 0.5 6.6 0.5 7.05 0.5 64.1 Q0.5 64.25 0.65 64.4 0.8 64.55 1.0 64.55 L12.65 64.55 22.65 64.55 35.25 64.55 Q35.45 64.55 35.6 64.4 35.75 64.25 35.75 64.1 L35.75 6.6 M22.45 6.1 L20.6 6.1 M10.3 7.1 L20.6 7.1 M1.5 15.85 L1.5 16.0 1.5 63.55 1.5 63.6 5.85 63.6 11.1 63.6 13.8 63.6 20.6 63.6 22.7 63.6 M10.3 7.1 L1.5 7.1 1.5 15.85 M8.3 64.25 L8.05 64.25 M25.2 63.95 L25.4 63.95 29.7 63.95" fill="none" stroke="#000000" stroke-linecap="round" stroke-linejoin="round" stroke-opacity="0.4" stroke-width="1.0"/>
  </g>
  <defs>
    <linearGradient gradientTransform="matrix(0.0, -0.0042, 0.0026, 0.0, 13.85, 3.05)" gradientUnits="userSpaceOnUse" id="gradient0" spreadMethod="pad" x1="-819.2" x2="819.2">
      <stop offset="0.0" stop-color="#3f4348" stop-opacity="0.4509804"/>
      <stop offset="0.8156862745098039" stop-color="#5db9ac" stop-opacity="0.9607843"/>
      <stop offset="1.0" stop-color="#dafff7"/>
    </linearGradient>
  </defs>
</svg>
