<?xml version="1.0" encoding="UTF-8" standalone="no"?>
<svg xmlns:xlink="http://www.w3.org/1999/xlink" height="61.3px" width="39.65px" xmlns="http://www.w3.org/2000/svg">
  <g transform="matrix(1.0, 0.0, 0.0, 1.0, 38.95, 4.25)">
    <path d="M0.35 -3.85 L0.35 -2.8 0.4 -2.65 0.45 -2.4 0.5 -2.1 0.5 -1.95 0.55 -1.85 0.5 -1.75 0.45 -1.7 Q0.5 -1.5 0.5 -1.05 L0.5 -0.85 0.55 -0.75 0.55 -0.55 0.5 -0.1 0.5 0.3 0.45 0.7 0.45 0.75 0.5 0.95 0.5 1.25 0.55 1.3 0.55 1.7 0.5 2.0 0.45 2.1 0.5 2.15 0.55 2.45 0.5 2.8 0.45 2.85 0.45 3.1 Q0.55 3.2 0.5 3.4 L0.45 3.95 0.45 4.05 0.5 4.15 Q0.6 4.2 0.65 4.35 L0.65 4.7 0.6 5.15 0.6 5.3 Q0.75 5.35 0.7 5.55 L0.7 5.7 0.65 5.95 0.6 6.15 0.5 6.3 0.45 6.4 0.35 6.45 0.2 6.4 0.1 6.45 -0.15 6.45 -0.2 6.4 Q-0.25 6.55 -0.45 6.55 L-0.65 6.5 -0.95 6.55 -1.1 6.55 -1.1 6.55 Q-1.25 6.7 -1.4 6.7 L-1.55 6.65 -1.65 6.7 Q-1.7 6.75 -1.75 6.75 L-1.85 6.75 -1.9 6.8 -1.95 6.9 Q-2.0 7.0 -2.1 7.0 L-2.2 7.0 Q-2.25 6.95 -2.3 6.95 L-2.35 7.0 -2.65 7.2 -2.7 7.15 -2.9 7.35 Q-3.15 7.45 -3.4 7.45 L-3.5 7.45 Q-3.6 7.65 -3.7 7.65 L-3.8 7.6 -3.9 7.5 -4.0 7.55 Q-4.15 7.55 -4.15 7.35 L-4.1 7.25 -4.2 7.1 Q-4.3 7.05 -4.35 6.85 L-4.3 6.75 -4.3 6.7 Q-4.5 6.7 -4.5 6.55 -4.5 6.5 -4.45 6.45 -4.35 6.4 -4.35 6.35 L-4.4 6.3 -4.4 6.2 -4.45 6.15 -4.5 6.15 -4.65 6.05 Q-4.8 6.3 -5.0 6.3 L-5.1 6.2 -5.2 6.3 -5.35 6.35 -5.35 6.45 Q-5.4 6.5 -5.5 6.5 L-5.6 6.5 -5.65 6.55 Q-5.75 6.6 -5.8 6.6 L-5.9 6.55 -5.9 6.55 Q-5.9 6.75 -6.25 6.75 L-6.45 6.65 Q-6.5 6.9 -6.7 6.9 -6.75 6.9 -6.8 6.85 -6.85 7.0 -6.95 7.0 L-6.95 7.1 Q-6.75 7.25 -6.75 7.35 -6.75 7.45 -6.85 7.5 L-6.9 7.55 -6.85 7.7 -6.9 7.75 Q-6.7 7.8 -6.7 7.95 -6.7 8.0 -6.8 8.05 L-6.8 8.1 -6.75 8.1 Q-6.65 8.2 -6.65 8.3 L-6.7 8.45 -6.65 8.45 Q-6.5 8.45 -6.4 8.7 L-6.35 8.8 Q-6.25 8.7 -6.1 8.7 -5.75 8.7 -5.6 8.8 -5.45 8.7 -5.25 8.7 L-5.15 8.6 Q-5.05 8.5 -4.9 8.55 L-4.85 8.55 -4.7 8.45 Q-4.5 8.35 -4.4 8.35 -4.2 8.35 -4.15 8.4 -3.9 8.1 -3.75 8.45 -3.65 8.3 -3.55 8.3 L-3.4 8.35 -3.35 8.3 Q-3.3 8.1 -3.1 8.1 -2.75 8.1 -2.6 8.2 L-2.55 8.1 Q-2.5 8.05 -2.2 8.05 L-2.1 8.0 -1.7 8.1 Q-1.5 8.05 -1.45 8.15 -1.35 7.85 -1.2 7.85 -0.85 7.8 -0.65 8.05 -0.6 7.8 -0.5 7.85 L-0.1 8.0 Q0.1 8.0 0.1 8.25 L0.1 8.5 Q0.1 8.85 0.05 8.9 -0.05 9.05 -0.6 9.05 -0.7 9.05 -0.8 8.95 L-1.0 9.05 -1.45 9.0 -1.5 8.9 Q-1.75 9.2 -2.3 9.2 -2.45 9.2 -2.5 9.0 L-2.7 9.1 Q-3.1 9.3 -3.3 9.3 L-3.5 9.25 Q-3.65 9.5 -3.9 9.5 -4.2 9.5 -4.3 9.4 -4.5 9.65 -4.85 9.65 L-5.05 9.6 Q-5.2 9.8 -5.45 9.8 L-5.7 9.75 Q-5.85 9.85 -6.0 9.85 L-6.2 9.8 Q-6.35 9.9 -6.5 9.9 -6.75 9.9 -6.85 9.75 L-6.95 9.6 Q-7.15 9.5 -7.25 9.2 L-7.15 8.9 Q-7.35 8.85 -7.35 8.5 L-7.3 8.45 -7.35 8.45 Q-7.55 8.45 -7.65 8.15 -7.65 8.1 -7.5 8.0 L-7.4 7.95 -7.55 7.95 Q-7.55 7.9 -7.7 7.85 L-7.8 7.8 -7.8 7.7 Q-7.8 7.6 -7.65 7.5 L-7.75 7.4 -7.8 7.15 Q-7.8 6.95 -7.7 6.9 L-7.75 6.85 -7.8 6.75 -7.75 6.7 -7.7 6.65 Q-7.6 6.6 -7.6 6.6 L-7.6 6.5 Q-7.55 6.4 -7.45 6.4 L-7.4 6.4 -7.4 6.25 Q-7.35 6.2 -7.25 6.2 L-7.2 6.2 Q-7.1 6.15 -7.05 6.15 L-7.0 6.15 -7.0 6.15 -6.95 5.95 Q-6.9 5.9 -6.75 6.1 L-6.6 6.1 -6.6 6.1 -6.55 6.0 Q-6.5 5.95 -6.45 5.95 L-6.35 5.95 -6.25 5.9 -6.2 5.95 -6.2 5.9 Q-6.2 5.75 -5.95 5.75 L-5.9 5.7 -5.75 5.65 -5.7 5.7 -5.65 5.55 -5.55 5.5 -5.45 5.5 -5.3 5.4 Q-5.25 5.4 -5.15 5.45 -5.1 5.15 -5.0 5.15 L-4.8 5.2 -4.65 5.15 Q-4.5 5.15 -4.5 5.3 L-4.4 5.25 Q-4.25 5.15 -4.2 5.3 L-4.0 5.4 Q-4.0 5.4 -4.0 5.5 L-4.0 5.65 -3.9 5.75 Q-3.7 5.8 -3.7 5.95 -3.7 6.05 -3.8 6.15 L-3.85 6.15 -3.7 6.25 -3.7 6.35 -3.65 6.45 -3.6 6.55 -3.6 6.6 Q-3.5 6.65 -3.5 6.8 L-3.55 6.9 -3.45 6.85 -3.2 6.8 Q-3.05 6.65 -2.95 6.65 -2.9 6.5 -2.7 6.35 L-2.45 6.35 -2.15 6.1 Q-2.1 6.05 -2.0 6.15 L-1.9 6.2 -1.8 6.15 -1.4 6.05 -1.15 6.05 -1.05 6.0 -0.65 5.95 Q-0.55 5.95 -0.45 6.05 L-0.25 6.0 0.1 5.95 0.15 5.5 0.05 5.3 0.0 5.1 0.05 4.95 0.0 4.8 Q0.0 4.7 0.05 4.65 L0.05 4.55 0.0 4.4 Q-0.1 4.3 -0.2 3.9 -0.2 3.35 -0.05 3.25 L-0.05 2.95 Q-0.05 2.75 -0.1 2.7 L-0.2 2.55 -0.15 2.4 -0.1 2.35 -0.05 2.1 0.0 1.95 0.05 1.9 0.05 1.7 -0.05 1.6 -0.05 1.4 Q-0.05 1.25 0.05 1.25 L0.0 1.15 -0.1 1.1 -0.1 0.9 -0.05 0.65 -0.1 0.4 -0.15 -0.1 -0.1 -0.2 -0.1 -0.3 -0.15 -0.8 -0.2 -0.95 -0.2 -1.5 -0.2 -1.55 -0.25 -1.7 -0.25 -2.0 -0.3 -2.3 Q-0.3 -2.45 -0.35 -2.5 L-0.4 -2.6 -0.35 -2.65 -0.45 -2.75 -0.55 -3.15 -0.55 -4.15 Q-0.5 -4.25 -0.15 -4.25 L0.2 -4.2 Q0.3 -4.15 0.35 -3.85" fill="#ffb500" fill-rule="evenodd" stroke="none"/>
    <path d="M-11.5 -0.9 Q-11.7 -1.2 -11.7 -1.45 -11.7 -2.7 -10.7 -2.5 -10.35 -2.4 -10.05 -2.15 -9.7 -1.9 -9.7 -1.7 -9.7 -1.65 -9.8 -1.5 L-9.85 -1.3 -9.8 -1.15 -9.75 -1.05 -9.8 -0.9 Q-9.5 -0.75 -9.5 -0.05 -9.5 0.15 -9.65 0.35 L-9.8 0.45 Q-9.05 0.6 -9.05 1.0 -9.05 1.15 -9.25 1.35 -9.1 1.5 -9.1 1.8 -9.1 2.15 -9.25 2.4 -9.55 2.8 -10.2 2.8 L-10.7 2.75 Q-10.7 2.9 -11.05 3.2 -11.45 3.55 -11.7 3.55 -11.9 3.55 -12.1 3.45 -12.1 3.75 -12.3 3.85 -12.5 3.95 -13.0 3.95 L-13.15 3.95 -13.3 4.15 -13.2 4.25 Q-13.05 4.35 -13.05 4.5 L-13.35 4.85 -13.3 4.85 Q-13.0 4.9 -12.7 5.1 -12.45 5.35 -12.45 5.6 -12.45 5.9 -12.65 6.0 L-12.75 6.05 Q-12.45 6.15 -12.45 6.5 -12.45 6.6 -12.8 7.0 -13.2 7.4 -13.35 7.4 L-13.4 7.4 -13.8 7.8 Q-14.25 8.2 -14.4 8.2 L-14.85 8.1 -15.1 8.4 Q-15.4 8.7 -15.7 8.8 -15.8 8.95 -16.3 9.35 L-17.0 9.85 -17.2 9.8 -17.45 10.2 Q-17.85 10.7 -18.05 10.7 L-18.15 10.7 Q-18.15 10.9 -18.35 11.2 -18.6 11.6 -18.95 11.6 L-19.05 11.6 -19.2 11.85 Q-19.4 12.1 -19.7 12.1 L-19.7 12.2 Q-19.7 12.4 -20.05 13.0 -20.35 13.6 -20.7 13.7 -20.5 13.95 -20.5 14.3 -20.5 14.7 -20.9 14.9 L-21.15 15.0 Q-21.05 15.2 -21.05 15.45 L-20.9 15.45 Q-20.75 15.25 -20.4 15.2 -20.3 14.75 -19.5 14.45 L-19.2 14.4 Q-19.0 13.95 -18.4 13.65 L-18.35 13.6 Q-18.2 12.75 -17.35 12.6 L-17.15 12.6 Q-17.1 12.35 -16.85 12.05 -16.6 11.7 -16.2 11.55 L-16.1 11.5 -16.1 11.4 Q-16.1 11.15 -15.8 10.9 -15.5 10.6 -15.1 10.5 L-14.75 10.45 Q-14.55 9.7 -13.8 9.7 L-13.75 9.7 Q-13.55 9.1 -12.8 8.9 L-12.1 8.95 Q-11.95 9.05 -11.85 9.15 L-11.75 9.15 Q-11.0 9.05 -11.0 10.2 L-11.0 10.6 Q-10.55 10.65 -10.4 11.0 -10.35 11.1 -10.35 11.45 -10.35 11.95 -10.5 12.35 -10.7 13.05 -11.2 13.05 L-11.3 13.05 Q-11.35 13.2 -11.4 13.35 -11.75 13.9 -12.5 13.9 L-12.75 13.85 Q-12.8 14.25 -13.25 14.55 -13.75 14.9 -14.3 14.9 L-14.45 14.85 -14.45 15.0 Q-14.45 15.3 -14.75 15.65 L-15.05 15.85 -15.05 15.9 Q-15.05 16.1 -15.45 16.6 L-15.65 16.8 -15.6 17.1 -15.45 17.05 -14.85 17.0 Q-14.7 16.85 -14.4 16.8 -14.35 16.3 -13.5 15.9 L-13.3 15.85 Q-13.15 15.35 -12.45 14.95 L-11.6 14.95 Q-11.1 15.05 -11.0 15.6 L-10.95 15.6 Q-10.75 15.35 -10.4 15.3 -9.65 15.2 -9.65 16.3 -9.65 16.5 -9.85 16.75 -10.1 17.05 -10.35 17.05 L-10.55 17.05 Q-10.75 17.45 -11.3 17.45 L-11.45 17.45 -11.45 17.55 Q-11.45 17.9 -11.55 18.1 -11.75 18.45 -12.25 18.45 -12.8 18.45 -12.95 18.1 -13.05 18.0 -13.05 17.65 -13.05 17.2 -12.85 16.95 L-12.95 17.05 Q-13.25 17.4 -13.6 17.5 L-13.8 17.8 Q-14.1 18.15 -14.5 18.15 L-14.55 18.15 Q-14.6 18.3 -14.8 18.5 -15.2 18.9 -15.7 18.9 -16.2 18.9 -16.35 18.55 L-16.4 18.3 Q-16.8 18.25 -17.05 17.85 -17.2 17.55 -17.2 17.3 -17.2 16.9 -17.1 16.65 -17.3 16.45 -17.3 16.25 -17.3 15.55 -16.35 15.3 -16.3 14.45 -15.4 14.25 -15.1 14.2 -14.9 14.25 -14.9 13.85 -14.55 13.45 -14.25 13.05 -13.8 12.9 L-13.25 12.85 Q-13.15 12.65 -12.95 12.4 -12.65 12.1 -12.25 11.9 L-12.05 11.8 -12.0 11.25 -12.0 11.15 Q-12.3 11.05 -12.4 10.75 L-12.45 10.65 -12.85 10.75 Q-12.95 10.95 -13.25 11.2 -13.75 11.65 -14.2 11.7 L-14.45 12.0 Q-14.85 12.35 -15.25 12.35 L-15.3 12.35 Q-15.3 12.7 -15.55 13.0 -15.9 13.4 -16.35 13.45 -16.4 13.7 -16.7 14.05 -17.05 14.5 -17.55 14.6 -17.6 14.8 -17.65 14.95 -17.95 15.4 -18.65 15.4 L-18.8 15.65 Q-19.1 16.05 -19.6 16.05 L-19.75 16.05 -19.9 16.3 Q-20.15 16.75 -20.5 16.75 L-20.7 16.7 Q-20.9 17.05 -21.25 17.05 -21.65 17.05 -21.85 16.65 L-21.95 16.25 -21.95 16.15 Q-22.2 16.0 -22.4 15.6 -22.6 15.15 -22.6 14.9 -22.6 14.55 -22.4 14.4 L-22.45 14.25 Q-22.45 13.0 -21.45 13.2 L-21.45 13.0 Q-21.45 12.3 -20.6 11.7 L-20.5 11.7 -20.55 11.5 Q-20.55 11.2 -20.3 10.9 -20.1 10.65 -19.75 10.55 L-19.5 10.55 Q-19.4 9.8 -18.8 9.8 L-18.65 9.85 -18.65 9.65 Q-18.65 9.1 -17.85 8.85 L-17.6 8.8 -17.6 8.8 Q-17.6 8.6 -17.3 8.35 -16.95 8.1 -16.6 8.0 L-16.35 7.95 Q-16.2 7.8 -15.95 7.8 -15.7 6.85 -15.2 7.1 L-15.15 7.1 -15.05 6.95 -14.75 6.7 -14.5 6.5 -14.1 6.55 Q-14.1 6.25 -13.7 6.1 -14.0 6.05 -14.1 5.9 -14.2 5.85 -14.2 5.65 L-14.15 5.4 -15.15 5.25 -15.4 5.5 Q-15.75 5.75 -15.95 5.75 -16.1 5.75 -16.25 5.65 L-16.25 5.65 Q-16.25 5.8 -16.5 6.1 -16.75 6.45 -16.95 6.45 -17.0 6.45 -17.3 6.2 L-17.25 6.4 Q-17.25 6.65 -17.5 6.8 -17.7 6.95 -18.0 6.95 L-18.15 6.95 -18.1 7.25 Q-18.1 7.75 -19.15 7.75 L-19.4 7.75 -19.25 8.0 Q-19.05 8.15 -19.05 8.35 -19.05 8.6 -19.55 8.8 -20.05 9.0 -20.35 9.0 -20.4 9.3 -20.45 9.65 -20.5 9.8 -20.85 10.0 L-20.95 10.1 -20.95 10.3 Q-20.95 10.45 -21.45 10.8 -21.95 11.2 -22.2 11.2 L-22.4 11.2 -23.55 12.7 Q-25.2 14.75 -25.7 15.65 -25.8 15.8 -26.2 16.85 -26.45 17.6 -26.95 18.05 -27.45 18.5 -27.8 19.55 -28.1 20.3 -28.65 20.3 -28.9 20.3 -30.3 19.55 L-33.1 18.0 Q-34.2 17.4 -34.2 17.1 -34.2 16.95 -34.1 16.8 -34.0 16.65 -33.75 16.65 -33.55 16.65 -31.5 17.8 L-28.75 19.25 Q-28.65 18.75 -28.1 18.05 -27.35 17.15 -27.2 16.85 L-26.7 15.7 Q-26.4 14.9 -26.1 14.5 -24.75 12.45 -23.65 11.25 L-23.0 10.6 -23.05 10.4 Q-23.05 9.75 -22.05 9.65 -22.0 8.95 -21.2 8.45 L-21.0 8.35 -21.0 8.25 Q-21.0 8.1 -20.7 7.5 -20.35 6.75 -20.0 6.75 L-19.9 6.8 -19.65 6.55 Q-19.3 6.2 -19.05 6.25 L-19.0 6.25 -18.75 5.85 Q-18.4 5.35 -18.2 5.3 -18.05 5.3 -17.9 5.4 L-17.7 5.2 Q-17.4 4.95 -17.1 4.85 L-16.75 4.8 -16.75 4.7 Q-16.75 4.2 -16.15 4.2 -15.95 4.2 -15.75 4.3 L-15.75 4.3 -15.35 4.0 Q-15.4 3.85 -15.15 3.65 -14.95 3.45 -14.75 3.5 L-14.7 3.5 Q-14.45 3.25 -14.0 3.1 L-13.65 3.05 -13.55 2.9 Q-13.25 2.55 -12.95 2.4 L-12.35 2.4 Q-12.15 2.15 -11.6 2.05 L-11.0 2.1 -10.8 1.9 -10.4 1.65 Q-10.75 1.55 -10.9 1.4 -11.05 1.25 -11.05 1.0 -11.05 0.65 -10.8 0.5 L-11.0 0.4 Q-11.15 0.25 -11.15 0.05 -11.15 -0.15 -10.9 -0.45 L-10.85 -0.5 Q-11.25 -0.55 -11.5 -0.9" fill="#ffb500" fill-rule="evenodd" stroke="none"/>
    <path d="M-19.65 24.45 Q-19.8 24.85 -20.0 25.0 L-20.0 25.05 Q-20.0 26.4 -20.45 26.9 L-20.45 27.05 Q-20.45 27.55 -20.85 28.35 -21.05 28.75 -21.25 28.95 L-21.2 29.0 Q-20.75 29.35 -20.75 29.75 -20.75 30.05 -21.3 30.85 -21.65 31.35 -21.95 31.55 L-21.95 31.55 Q-21.5 32.3 -21.5 32.8 -21.5 33.1 -21.95 33.85 L-22.2 34.15 Q-21.9 34.6 -21.9 35.3 L-22.0 35.9 -22.1 36.55 -22.1 36.65 Q-21.95 36.85 -21.85 37.15 L-21.7 37.95 Q-21.55 38.75 -21.55 38.95 -21.55 39.3 -21.65 39.45 L-21.65 39.45 Q-21.2 40.0 -21.2 41.0 -21.2 41.25 -21.25 41.4 -21.0 41.45 -20.85 41.65 -20.65 42.0 -20.65 42.05 L-20.6 42.35 Q-20.6 42.65 -20.7 42.9 -20.8 43.25 -21.0 43.35 -20.55 43.85 -20.55 44.05 L-20.55 44.1 Q-20.2 44.5 -20.2 45.6 L-19.95 45.5 -19.3 45.5 -19.2 45.4 -19.2 45.35 Q-19.4 45.05 -19.55 44.65 -19.95 43.7 -19.95 42.9 L-19.9 42.75 -20.05 42.35 -20.2 41.25 Q-20.2 41.0 -20.4 40.6 -20.6 40.15 -20.6 39.9 -20.6 39.55 -20.35 39.3 -20.05 39.0 -19.6 39.4 -19.4 39.6 -19.3 39.95 L-19.1 40.5 -18.8 41.45 Q-18.55 42.4 -18.55 42.6 -18.55 42.75 -18.6 42.9 L-18.3 43.4 Q-18.1 43.7 -17.75 44.55 L-17.35 45.4 Q-17.35 45.65 -17.55 45.8 -17.65 45.95 -17.85 46.0 -17.75 46.3 -17.75 46.75 -17.75 47.5 -17.8 47.8 -18.0 48.7 -18.55 48.7 -19.1 48.7 -19.45 48.3 -19.65 47.95 -19.7 47.8 L-19.95 47.8 Q-21.2 47.8 -21.2 46.65 L-21.2 46.5 Q-21.8 46.4 -22.05 45.95 -22.2 45.6 -22.2 45.2 -22.2 44.8 -22.05 44.5 -22.35 44.2 -22.55 43.6 L-22.9 42.25 Q-22.9 41.6 -22.75 41.35 L-22.7 41.25 -23.4 39.7 Q-23.4 39.25 -23.15 39.05 L-23.25 38.6 -23.3 37.25 -23.3 37.0 Q-23.45 36.85 -23.5 36.55 L-23.55 35.85 -23.7 34.9 -23.9 34.05 Q-23.9 33.65 -23.6 33.5 L-23.6 33.1 -23.55 31.9 Q-23.5 31.4 -23.35 31.15 -23.45 30.9 -23.45 30.65 -23.45 29.2 -22.65 28.85 L-22.7 28.7 Q-22.7 26.55 -21.8 26.1 L-21.8 25.9 Q-21.8 24.3 -21.1 23.9 L-21.15 23.65 Q-21.35 23.9 -21.7 23.9 -21.85 23.9 -22.0 23.8 L-22.25 24.25 Q-22.5 24.7 -22.85 24.75 L-22.85 24.75 Q-22.85 25.3 -22.95 25.75 -23.15 26.5 -23.6 26.6 -23.6 26.75 -23.6 26.95 -23.6 27.15 -23.8 28.15 L-23.75 28.4 -23.7 28.7 Q-23.7 29.05 -23.9 29.25 L-24.0 29.35 Q-23.95 29.7 -23.95 30.2 L-23.95 30.9 Q-24.0 31.35 -24.3 31.5 L-24.2 31.8 Q-23.9 32.55 -23.9 33.45 -23.9 33.6 -24.15 33.95 -23.95 34.65 -23.95 35.6 -23.95 35.8 -24.0 35.95 -23.75 36.55 -23.75 37.55 -23.75 37.95 -23.95 38.1 L-24.0 38.15 Q-23.75 38.85 -23.75 39.9 L-23.75 40.7 Q-23.9 41.3 -24.5 41.3 L-24.8 41.25 Q-25.05 41.9 -25.7 41.9 -26.55 41.9 -26.85 41.25 L-26.95 40.75 Q-27.55 40.65 -27.75 39.65 L-27.9 38.55 Q-27.9 37.85 -27.65 37.5 L-27.8 37.2 Q-28.0 36.45 -28.0 36.1 -28.0 35.9 -28.15 35.3 L-28.25 34.7 Q-28.25 34.45 -28.15 34.3 L-28.25 34.15 Q-28.6 33.4 -28.6 33.1 -28.6 32.4 -28.3 31.85 -28.65 31.75 -28.95 31.45 L-29.15 31.2 Q-29.45 31.35 -29.8 31.35 L-29.85 32.35 -29.75 32.55 -29.65 33.05 -29.4 34.2 Q-29.35 34.4 -29.35 35.05 L-29.35 35.3 -29.3 35.7 Q-29.25 35.95 -29.0 36.55 -28.7 37.15 -28.7 37.45 -28.7 37.9 -28.85 38.25 L-29.05 38.55 Q-28.95 38.9 -28.95 39.35 -28.95 39.95 -29.45 40.45 -29.85 40.95 -30.35 40.95 -31.15 40.95 -31.45 40.45 -31.6 40.2 -31.65 39.95 -32.25 39.85 -32.55 39.3 -32.75 39.0 -32.75 38.65 -32.75 38.4 -32.6 38.15 -32.85 38.1 -33.0 37.85 L-33.05 37.45 Q-33.05 36.85 -32.55 36.4 -33.25 36.35 -33.25 35.5 -33.25 35.05 -33.05 34.7 L-33.05 34.7 Q-33.2 34.65 -33.3 34.6 L-33.65 34.75 Q-33.65 34.95 -33.75 35.2 -33.5 35.6 -33.5 36.05 -33.5 36.4 -33.65 36.75 -33.9 37.3 -34.5 37.3 L-34.65 37.3 Q-35.05 37.7 -35.45 37.7 -36.05 37.7 -36.45 37.0 L-36.95 37.05 -37.4 36.85 -37.85 36.9 -38.3 37.0 Q-38.7 37.0 -38.85 36.7 -38.95 36.55 -38.95 36.35 -38.95 35.95 -38.65 35.8 -38.3 35.6 -37.3 35.6 L-36.4 35.5 Q-36.05 35.3 -35.35 35.4 L-35.3 35.4 -35.25 35.05 -35.2 34.8 -35.3 34.4 -35.35 34.0 Q-35.35 33.35 -35.0 33.35 -34.8 32.65 -33.85 32.7 L-33.4 32.75 Q-33.15 32.4 -32.55 32.4 -32.15 32.4 -31.85 32.65 -31.55 32.9 -31.55 33.25 -31.55 33.85 -31.75 34.25 -31.15 34.3 -31.0 34.7 L-30.9 34.25 -30.8 33.8 -30.95 33.25 Q-31.1 33.2 -31.2 33.0 L-31.3 32.65 -31.25 32.35 -31.15 31.9 -31.25 31.2 Q-31.25 30.55 -30.75 30.45 -30.7 30.0 -30.4 29.65 -30.05 29.25 -29.6 29.1 -29.1 28.95 -28.8 29.15 -28.6 29.25 -28.5 29.45 -28.3 29.25 -28.15 29.2 -27.65 29.05 -27.25 29.8 -27.05 30.2 -26.95 30.6 -26.95 30.85 -27.2 31.35 L-27.25 31.4 Q-26.8 31.8 -26.8 33.65 L-26.7 34.05 -26.65 34.45 Q-26.65 34.7 -26.8 34.9 L-26.85 34.95 -26.75 35.3 -26.55 36.3 Q-26.4 37.05 -26.4 37.4 -26.4 37.65 -26.45 37.8 L-26.3 38.0 Q-26.15 38.4 -26.05 38.85 -25.95 38.75 -25.8 38.7 L-25.75 38.7 Q-25.65 38.25 -25.5 37.9 L-25.55 37.6 -25.6 36.85 Q-25.6 36.35 -25.5 36.0 -25.65 35.8 -25.75 35.5 -25.9 35.2 -25.9 34.55 -25.9 33.7 -25.65 33.25 L-25.75 32.15 Q-25.75 31.2 -25.5 30.85 L-25.5 30.8 -25.6 30.0 Q-25.6 29.55 -25.35 29.15 L-25.4 28.9 Q-25.4 26.65 -24.5 26.05 L-24.4 26.0 -24.5 25.6 Q-24.25 24.45 -24.05 24.25 L-23.7 24.0 -23.7 23.7 -23.6 23.1 -23.45 22.65 -23.5 22.4 -23.6 22.1 Q-23.6 21.65 -23.3 21.55 -23.15 21.5 -22.9 21.6 L-22.95 21.45 Q-22.95 20.9 -22.5 20.75 -22.25 20.7 -22.0 20.95 L-22.0 20.75 Q-22.0 19.45 -21.0 20.35 L-20.55 20.8 Q-20.35 20.8 -20.05 21.0 -19.6 21.3 -19.25 21.85 -18.85 22.4 -18.85 22.8 -18.85 23.0 -19.0 23.2 -19.2 23.4 -19.45 23.45 -19.4 23.85 -19.65 24.45 M-30.85 36.55 Q-30.85 37.1 -31.0 37.45 -30.8 37.75 -30.75 38.55 -30.6 38.4 -30.45 38.4 L-30.5 38.2 -30.4 37.95 -30.3 37.7 Q-30.3 37.45 -30.4 36.85 L-30.5 36.3 Q-30.85 36.15 -30.95 35.75 L-31.05 35.2 Q-31.1 35.45 -31.3 35.75 L-31.4 35.9 -31.2 35.9 Q-30.85 36.05 -30.85 36.55" fill="#ffb500" fill-rule="evenodd" stroke="none"/>
    <path d="M-15.6 46.5 Q-15.45 46.4 -15.2 46.6 L-15.0 46.9 -14.8 47.2 -14.45 47.7 -14.4 47.8 -14.25 47.9 Q-14.15 47.95 -14.1 48.15 L-13.9 48.4 Q-13.55 48.8 -13.45 49.2 L-13.4 49.1 -13.4 48.75 Q-13.4 48.5 -13.2 48.4 -12.85 48.25 -12.75 48.55 L-12.7 49.0 -12.95 50.15 Q-12.7 50.15 -12.45 50.35 -12.2 50.55 -12.05 50.6 -11.75 50.65 -11.6 50.85 L-11.55 50.9 -11.25 51.0 Q-10.65 51.25 -10.45 51.45 L-10.4 51.5 -9.9 51.8 -9.8 51.8 Q-9.55 51.8 -9.45 52.05 -9.3 52.3 -9.2 52.35 L-8.9 52.45 Q-8.75 52.2 -8.15 52.65 -7.75 52.95 -7.3 53.4 -7.3 53.55 -7.4 53.65 -7.5 53.75 -7.7 53.75 -8.15 53.75 -8.6 53.25 L-8.7 53.1 -8.85 53.15 Q-9.35 53.15 -9.8 52.75 L-9.95 52.6 -10.15 52.65 Q-10.6 52.65 -11.0 51.9 -11.25 51.85 -11.65 51.6 L-12.1 51.3 Q-12.15 51.2 -12.35 51.2 L-12.6 51.25 Q-12.7 51.25 -13.05 50.9 L-13.15 50.75 Q-13.35 51.1 -13.55 51.25 L-13.55 51.3 -13.9 51.85 -14.05 52.0 Q-14.1 52.2 -14.2 52.3 -14.4 52.55 -14.5 52.8 L-14.65 53.2 Q-14.85 53.55 -15.2 53.6 L-15.5 54.2 Q-15.85 54.9 -16.15 54.95 L-16.15 55.3 Q-16.15 55.6 -16.25 55.75 -16.4 56.05 -16.95 56.05 -17.35 56.05 -17.55 55.45 L-17.65 55.1 Q-17.9 55.1 -18.2 54.9 -18.45 54.75 -18.5 54.6 -18.55 54.4 -18.7 54.25 L-18.8 54.1 Q-18.95 54.05 -19.05 53.95 L-19.25 53.6 -19.5 53.3 -19.6 53.05 -19.6 53.05 Q-19.8 53.0 -19.95 52.9 -20.2 52.65 -20.35 52.55 -20.55 52.45 -20.55 52.3 L-20.55 51.9 -20.6 51.9 Q-20.9 51.9 -21.0 51.7 L-21.2 51.25 -21.2 51.1 -21.25 50.9 Q-21.25 50.85 -21.35 50.75 L-21.4 50.65 Q-21.55 50.55 -21.55 50.35 -21.6 50.25 -21.7 50.15 L-21.9 50.0 -22.2 49.6 Q-22.25 49.5 -22.25 49.3 L-22.2 48.85 Q-22.65 48.85 -23.2 47.8 L-23.15 47.55 -23.55 47.25 Q-23.9 46.9 -23.95 46.6 L-24.0 46.3 -24.1 46.35 -24.35 46.4 Q-24.45 46.45 -24.5 46.45 -24.45 46.55 -24.45 46.7 L-24.45 46.7 Q-24.1 47.0 -24.0 47.45 -23.55 47.75 -23.4 48.15 -23.1 48.25 -23.1 48.65 -23.1 48.8 -22.9 48.9 L-22.6 49.1 -22.55 49.35 -22.55 49.5 Q-22.15 49.75 -21.95 50.0 -21.9 50.2 -21.85 50.55 L-21.85 50.6 Q-21.7 50.7 -21.65 50.95 L-21.55 51.2 -21.35 51.4 Q-21.0 51.6 -21.0 51.8 L-21.0 52.0 -20.9 52.05 -20.75 52.25 -20.65 52.4 -20.6 52.55 -20.55 52.7 Q-20.45 52.8 -20.35 53.05 -20.3 53.25 -20.15 53.3 -19.9 53.4 -19.75 53.6 -19.65 53.75 -19.65 53.9 -19.65 54.1 -19.8 54.3 L-19.9 54.35 -19.9 54.45 Q-19.55 54.8 -19.55 55.0 L-19.55 55.25 -19.6 55.4 -19.55 55.75 Q-19.55 55.95 -19.7 56.2 -19.85 56.55 -20.15 56.55 L-20.35 56.5 -20.35 56.55 Q-20.5 57.05 -20.75 57.05 L-20.85 57.0 Q-20.9 56.95 -20.95 56.95 L-21.15 57.05 -21.55 56.85 -21.85 56.9 Q-22.1 56.9 -22.25 56.5 L-22.25 56.4 -22.45 56.45 Q-22.75 56.45 -22.8 56.15 -22.9 55.8 -22.95 55.8 L-23.05 55.6 -23.15 55.45 -23.35 55.1 -23.3 54.95 -23.95 54.4 Q-24.15 54.25 -24.2 54.05 L-24.25 53.7 -24.25 53.45 Q-24.9 53.4 -24.85 52.75 -25.1 52.7 -25.2 52.6 L-25.25 52.4 -25.15 52.2 -25.1 52.05 Q-25.65 51.95 -25.9 51.4 -26.0 51.2 -26.0 50.95 -26.2 50.9 -26.3 50.65 -26.45 50.35 -26.8 50.35 L-26.9 50.4 -27.05 50.45 -27.1 50.45 -27.2 50.7 -27.15 50.85 Q-27.0 50.95 -26.8 51.25 L-26.5 51.75 Q-26.35 51.95 -26.3 52.1 -25.7 52.5 -25.7 53.05 L-25.65 53.05 Q-25.45 53.05 -25.25 53.45 -25.05 53.8 -25.05 53.9 L-25.05 54.0 -24.95 54.15 Q-24.55 54.15 -24.55 55.15 -24.55 55.65 -24.95 55.95 -25.25 56.2 -25.6 56.2 L-25.65 56.2 Q-25.8 56.4 -26.0 56.4 -26.45 56.4 -26.6 55.8 L-26.6 55.75 Q-26.8 55.9 -27.1 55.9 -27.4 55.9 -27.55 55.3 L-27.6 55.05 -27.85 54.9 Q-28.15 54.7 -28.2 54.55 L-28.3 54.25 -28.3 54.2 -28.4 54.3 -28.45 54.35 Q-29.15 55.1 -29.25 55.1 L-29.55 55.1 -30.05 55.65 Q-30.7 56.35 -30.95 56.35 -31.3 56.35 -31.3 56.05 -31.3 55.45 -30.35 54.75 L-30.0 54.5 -30.05 54.1 Q-29.9 53.5 -29.6 53.4 L-29.65 53.3 Q-29.65 53.05 -29.5 53.0 L-29.25 52.65 Q-29.15 52.5 -28.85 52.6 L-28.4 52.7 Q-28.1 52.7 -28.0 53.15 -27.9 53.0 -27.75 53.05 L-27.25 53.5 -26.85 54.0 Q-26.7 54.05 -26.6 54.15 L-26.5 54.45 -26.4 54.55 -26.1 54.5 Q-25.85 54.5 -25.7 54.6 L-25.6 54.5 -25.75 54.5 Q-26.0 54.5 -26.15 54.05 L-26.2 54.05 Q-26.5 54.05 -26.65 53.8 L-26.75 53.2 -26.85 52.85 Q-27.0 52.8 -27.25 52.55 -27.55 52.3 -27.65 52.1 L-27.8 51.65 -27.9 51.3 -27.9 51.25 Q-28.0 51.15 -28.05 51.0 L-28.1 50.6 -28.0 50.25 Q-27.95 50.1 -27.95 49.95 L-28.0 49.8 -28.05 49.7 Q-28.05 49.25 -27.5 49.4 L-27.45 49.45 Q-27.3 49.3 -26.95 49.2 -26.35 49.05 -26.05 49.45 -25.95 49.6 -25.75 50.1 L-25.75 50.15 Q-25.55 50.1 -25.3 50.2 -24.55 50.55 -24.55 51.55 L-24.25 51.8 Q-24.0 52.05 -23.95 52.2 -23.85 52.55 -23.75 52.65 -23.7 52.7 -23.7 52.85 -23.6 52.85 -23.35 53.05 -23.1 53.2 -23.05 53.4 L-22.95 53.5 -22.75 53.6 -22.65 53.75 -22.65 54.15 Q-22.5 54.15 -22.4 54.3 L-22.25 54.55 -21.95 54.8 Q-21.85 54.9 -21.85 55.0 -21.85 55.2 -21.9 55.35 -21.6 55.25 -21.35 55.4 -21.15 55.55 -21.15 55.75 L-21.15 55.75 -20.9 55.6 -20.75 55.5 -20.8 55.1 Q-20.8 54.75 -20.7 54.5 -20.9 54.45 -21.0 54.25 -21.15 54.15 -21.3 53.9 L-21.4 53.45 -21.6 53.0 -21.7 52.8 Q-21.75 52.8 -21.85 52.85 -22.1 52.85 -22.15 52.6 L-22.15 52.3 -22.35 52.0 -22.4 51.75 -22.55 51.55 -22.65 51.3 Q-22.65 51.15 -22.8 51.05 L-22.95 50.8 -22.95 50.55 -23.05 50.55 Q-23.35 50.55 -23.45 50.3 L-23.45 50.05 Q-23.5 49.95 -23.6 49.9 L-23.7 49.85 -23.75 49.55 -23.75 49.15 -23.8 49.15 Q-24.2 49.15 -24.3 48.7 -24.5 48.65 -24.6 48.5 L-24.7 48.25 -24.6 48.05 Q-24.6 48.05 -24.9 47.6 -25.25 47.2 -25.25 46.8 L-25.2 46.7 -25.45 46.35 Q-25.45 46.0 -25.15 46.0 L-25.25 45.8 Q-25.25 45.7 -25.0 45.35 -24.7 44.95 -24.5 44.95 -24.2 44.95 -24.1 45.05 L-23.95 45.25 Q-23.75 45.1 -23.5 45.3 -23.45 45.4 -23.35 45.65 L-23.25 45.95 Q-23.05 46.1 -22.75 46.9 -22.5 46.6 -22.3 47.05 L-21.95 47.7 Q-21.65 48.2 -21.65 48.4 -21.65 48.5 -21.75 48.65 L-21.55 48.7 Q-20.8 49.1 -20.8 49.65 L-20.8 49.85 Q-20.5 49.8 -20.4 50.1 -20.25 50.35 -20.35 50.55 L-20.35 50.55 Q-19.85 50.45 -19.85 51.0 L-19.85 51.0 Q-19.6 50.95 -19.5 51.2 L-19.1 52.0 Q-18.95 51.9 -18.75 52.05 -18.65 52.2 -18.65 52.4 -18.65 52.55 -18.55 52.6 L-18.4 52.7 Q-18.3 53.0 -18.2 53.1 L-18.15 53.25 -17.95 53.25 Q-17.6 53.25 -17.35 53.55 -17.2 53.75 -17.2 53.95 L-17.2 54.05 -17.0 54.1 -16.8 54.05 -16.8 54.0 Q-16.75 53.5 -16.65 53.45 -16.45 53.35 -16.2 52.9 -16.0 52.5 -16.0 52.4 -16.0 52.2 -15.8 52.1 L-15.75 52.0 Q-15.5 51.8 -15.3 51.45 L-15.2 51.2 -15.2 50.95 Q-15.2 50.65 -14.75 50.4 L-14.45 50.3 Q-14.35 50.1 -14.0 49.85 -14.3 49.5 -14.55 48.7 -14.9 48.65 -15.55 47.55 L-15.55 47.5 -15.7 47.55 Q-16.05 47.55 -16.4 46.8 L-16.5 46.6 -16.7 46.65 Q-17.0 46.65 -17.0 46.35 L-17.0 46.25 -16.95 46.15 -17.05 46.0 Q-17.15 45.85 -17.15 45.7 L-17.15 45.45 -17.2 45.25 -17.45 44.8 -17.55 44.6 Q-17.65 44.55 -17.95 44.1 L-18.3 43.55 -18.3 43.5 Q-18.55 43.4 -19.0 42.5 L-19.45 41.45 Q-19.45 41.25 -19.3 41.15 -19.05 40.95 -18.85 41.25 L-18.55 41.9 -18.2 42.45 Q-18.0 42.85 -17.95 43.05 -17.8 43.1 -17.65 43.3 -17.1 43.95 -17.0 44.2 L-17.0 44.2 -16.65 44.85 -16.45 45.45 -16.4 45.65 Q-16.25 45.7 -16.0 45.95 -15.75 46.25 -15.6 46.5" fill="#ffb500" fill-rule="evenodd" stroke="none"/>
  </g>
</svg>
