<?xml version="1.0" encoding="UTF-8" standalone="no"?>
<svg xmlns:xlink="http://www.w3.org/1999/xlink" height="12.1px" width="12.3px" xmlns="http://www.w3.org/2000/svg">
  <g transform="matrix(1.0, 0.0, 0.0, 1.0, 6.15, 6.05)">
    <path d="M5.65 -0.25 L5.9 0.05 5.8 0.25 5.65 0.55 5.3 0.7 5.15 0.7 5.0 0.65 4.5 0.2 4.65 0.0 4.75 -0.15 4.85 -0.35 5.15 -0.45 5.5 -0.4 5.65 -0.25 M-2.05 -4.25 L-2.3 -4.4 -2.45 -4.7 -2.5 -5.05 -2.3 -5.45 -1.9 -5.2 -1.75 -4.95 -1.7 -4.6 -1.85 -4.15 -1.85 -4.15 -2.05 -4.25 M4.3 1.85 L4.25 1.85 4.15 1.8 4.3 1.7 4.3 1.85 M0.15 3.3 L0.2 3.3 0.15 3.3" fill="#4c5125" fill-rule="evenodd" stroke="none"/>
    <path d="M-1.1 -4.6 L-1.1 -4.65 -0.75 -5.25 -0.75 -5.1 -0.75 -5.1 -0.95 -4.8 -1.0 -4.55 -1.1 -4.5 -1.1 -4.6 M-1.2 -4.1 L-1.15 -4.05 -1.15 -3.95 -1.1 -3.9 -1.5 -3.95 -1.4 -3.85 -1.45 -3.85 -1.6 -3.8 -1.6 -3.8 -1.55 -3.95 -1.25 -4.1 -1.2 -4.1 M1.8 0.05 L1.8 0.0 1.85 -0.05 1.8 0.05 M3.6 0.45 L3.65 0.45 3.65 0.5 3.7 0.55 3.75 0.55 3.9 0.8 3.9 0.85 3.95 0.95 3.9 0.9 3.8 0.8 3.7 0.75 3.6 0.45 M3.7 0.45 L3.55 0.25 3.55 0.0 3.55 0.0 3.65 0.25 3.7 0.3 3.7 0.45 M3.6 0.0 L3.75 0.1 3.8 0.1 3.9 0.15 3.95 0.2 4.0 0.25 4.05 0.3 4.2 0.4 4.3 0.7 4.35 1.05 4.35 1.1 4.3 1.1 4.3 1.05 4.2 0.95 4.0 0.75 4.15 1.0 4.15 1.05 4.1 1.05 3.95 0.95 3.95 0.9 3.9 0.85 3.9 0.8 3.85 0.7 3.9 0.65 3.85 0.65 3.85 0.5 3.7 0.3 3.65 0.25 3.6 0.0 M2.6 0.65 L2.75 0.65 2.65 0.65 2.4 0.65 2.6 0.65 M-1.3 -3.55 L-1.05 -3.3 -1.25 -3.2 -1.35 -3.2 -1.35 -3.35 -1.35 -3.5 -1.3 -3.55 M-2.35 -0.5 L-2.35 -0.5 -2.35 -0.55 -2.15 -0.4 -2.2 -0.4 -2.25 -0.45 -2.35 -0.5 -2.3 -0.45 -2.35 -0.5" fill="#3e421e" fill-rule="evenodd" stroke="none"/>
    <path d="M0.6 -4.95 L0.75 -5.2 1.0 -5.4 1.35 -5.4 1.8 -5.05 1.6 -4.5 1.3 -4.35 1.0 -4.3 0.85 -4.4 0.8 -4.75 1.0 -4.8 1.35 -4.7 1.65 -4.85 1.35 -5.0 1.0 -4.9 0.7 -5.0 0.6 -4.95 M-4.9 0.0 L-4.8 -0.1 -4.8 -0.05 -4.75 0.0 -4.9 0.0 M-0.7 -5.0 L-0.7 -4.7 -1.0 -4.55 -0.95 -4.8 -0.75 -5.1 -0.75 -5.1 -0.7 -5.0 M0.4 -3.35 L0.4 -3.35 0.6 -3.05 0.35 -3.2 0.4 -3.35" fill="#434720" fill-rule="evenodd" stroke="none"/>
    <path d="M-4.1 -3.2 L-4.15 -3.4 -4.15 -3.45 -4.05 -3.3 -4.1 -3.2 M-0.4 -5.05 L-0.1 -5.6 0.4 -6.0 0.1 -5.4 -0.15 -5.2 -0.3 -5.25 -0.35 -5.1 -0.4 -5.1 -0.4 -5.05 M-3.95 -3.05 L-3.95 -3.05 -4.0 -3.2 -4.0 -3.2 -3.9 -3.0 -3.95 -3.05" fill="#2f3217" fill-rule="evenodd" stroke="none"/>
    <path d="M-0.15 -5.2 L0.05 -5.15 0.05 -5.1 0.35 -5.0 0.45 -4.9 0.5 -4.85 0.7 -4.65 0.8 -4.15 0.7 -3.7 0.65 -3.75 0.7 -3.75 0.25 -4.45 -0.15 -4.7 -0.5 -4.7 -0.45 -4.8 -0.4 -4.9 -0.35 -5.1 -0.3 -5.25 -0.15 -5.2 M0.65 -3.5 L0.65 -3.5 0.6 -3.4 0.45 -3.45 0.65 -3.5" fill="#3b1f1f" fill-rule="evenodd" stroke="none"/>
    <path d="M-0.5 -4.95 L-0.4 -5.05 -0.4 -5.1 -0.35 -5.1 -0.4 -4.9 -0.5 -4.95 M0.1 2.75 L0.15 2.75 0.15 2.85 0.1 2.75" fill="#572e2e" fill-rule="evenodd" stroke="none"/>
    <path d="M5.9 0.85 L6.15 1.0 5.8 1.05 5.65 1.0 5.5 0.95 5.3 0.95 5.25 0.9 4.8 0.8 4.85 0.75 4.9 0.75 5.15 0.75 5.2 0.75 5.5 0.85 5.85 0.85 5.9 0.85 M-4.15 -3.45 L-4.2 -3.5 -4.05 -3.3 -4.15 -3.45 M-4.0 -3.25 L-4.0 -3.2 -3.85 -3.1 -3.75 -3.05 -3.65 -2.8 -3.8 -2.9 -3.85 -2.95 -3.9 -3.0 -4.0 -3.2 -4.0 -3.2 -4.0 -3.25 M-4.05 -3.3 L-4.05 -3.3 M-3.6 -2.5 L-3.55 -2.5 -3.55 -2.5 -3.6 -2.5 -3.6 -2.5 -3.6 -2.5 M-3.5 -2.55 L-3.5 -2.55 -3.65 -2.7 -3.65 -2.8 -3.6 -2.75 -3.5 -2.55" fill="#333618" fill-rule="evenodd" stroke="none"/>
    <path d="M-4.3 -2.55 L-4.2 -2.75 -4.2 -3.1 -4.1 -3.2 -4.05 -3.3 -4.05 -3.3 -4.0 -3.4 -4.0 -3.25 -4.0 -3.2 -3.95 -3.05 -3.95 -3.05 -4.1 -2.75 -4.1 -2.5 -4.15 -2.55 -4.1 -2.4 -4.3 -2.05 -4.35 -2.45 -4.3 -2.55 M4.4 1.05 L4.5 0.7 4.5 0.75 4.65 1.35 4.55 1.2 4.4 1.05" fill="#383c1b" fill-rule="evenodd" stroke="none"/>
    <path d="M-4.95 -1.7 L-5.05 -1.75 -5.15 -1.9 -5.2 -1.95 -5.05 -1.95 -4.95 -1.95 -4.7 -1.7 -4.4 -1.6 -4.2 -1.45 -4.15 -1.4 -4.1 -1.3 -4.4 -1.4 -4.65 -1.55 -4.75 -1.65 -4.95 -1.7 M1.15 -2.2 L1.15 -2.2 1.15 -2.2 1.15 -2.2 1.1 -2.15 0.95 -1.85 0.95 -1.8 0.7 -1.65 0.7 -1.65 0.4 -1.35 0.65 -1.65 0.65 -1.65 0.7 -1.75 0.8 -1.95 1.1 -2.15 1.15 -2.2 M4.2 -0.7 L4.35 -0.75 4.4 -0.7 4.15 -0.65 4.05 -0.65 4.05 -0.65 4.2 -0.7 M2.9 -0.4 L2.95 -0.4 3.1 -0.4 3.15 -0.4 3.15 -0.45 3.2 -0.45 3.1 -0.4 2.9 -0.35 2.9 -0.35 2.8 -0.35 2.9 -0.4 M3.85 -0.75 L3.95 -0.8 3.7 -0.6 3.55 -0.6 3.8 -0.7 3.85 -0.75 M3.4 -0.55 L3.4 -0.55 3.35 -0.5 3.35 -0.5 3.3 -0.5 3.3 -0.55 3.3 -0.55 3.35 -0.55 3.4 -0.55 M4.2 0.3 L4.15 0.3 4.1 0.25 4.15 0.25 4.2 0.3 M3.9 1.15 L3.9 1.2 3.95 1.35 3.9 1.35 3.9 1.15 M3.55 0.55 L3.55 0.6 3.5 0.6 3.55 0.55 M3.45 0.6 L3.4 0.6 3.45 0.6 M-4.1 -2.4 L-4.15 -2.55 -4.1 -2.5 -4.05 -2.45 -3.95 -2.3 -3.9 -1.95 -3.8 -1.85 -3.7 -1.7 -3.65 -1.6 -3.65 -1.45 -3.6 -1.3 -3.6 -1.3 -3.65 -1.4 -3.7 -1.4 -3.85 -1.6 -3.85 -1.75 -3.9 -1.95 -3.95 -2.0 -4.1 -2.2 -4.1 -2.4 M-4.1 -2.5 L-4.1 -2.5" fill="#62682f" fill-rule="evenodd" stroke="none"/>
    <path d="M-4.65 -1.5 L-4.75 -1.5 -4.95 -1.7 -4.75 -1.65 -4.65 -1.55 -4.65 -1.5 M-5.05 -1.95 L-5.05 -2.1 -4.8 -2.6 -4.3 -2.55 -4.35 -2.45 -4.3 -2.05 -4.1 -2.4 -4.1 -2.2 -3.95 -2.0 -3.95 -2.0 -4.1 -1.55 -4.1 -1.45 -4.15 -1.4 -4.15 -1.4 -4.2 -1.45 -4.25 -1.55 -4.45 -1.8 -4.75 -1.95 -5.05 -1.95 M2.85 -2.55 L2.85 -2.6 3.0 -2.65 2.95 -2.5 2.7 -2.4 2.75 -2.4 2.85 -2.55 M1.9 -2.95 L1.95 -2.95 2.0 -2.95 2.05 -2.55 1.95 -2.65 1.8 -2.75 1.8 -2.75 1.9 -2.95 M2.0 2.15 L1.95 2.45 1.95 2.35 2.0 2.15 M1.75 2.65 L1.8 2.6 1.8 2.65 1.75 2.65 M-0.3 4.75 L-0.4 4.75 -0.5 4.7 -0.2 4.6 -0.3 4.75" fill="#555b29" fill-rule="evenodd" stroke="none"/>
    <path d="M-5.25 -0.55 L-5.5 -0.45 -5.85 -0.55 -6.1 -0.75 -6.15 -1.3 -5.65 -1.55 -5.3 -1.45 -5.2 -1.35 -5.35 -1.4 -5.45 -0.95 -5.3 -0.65 -5.25 -0.55 M-3.65 -1.4 L-3.6 -1.3 -3.6 -1.3 -3.65 -1.45 -3.5 -1.3 -3.45 -1.25 -3.55 -1.15 -3.6 -1.25 -3.65 -1.4 M-3.45 -1.1 L-3.4 -1.05 -3.45 -1.05 -3.5 -1.1 -3.45 -1.1 M-3.4 -1.0 L-3.4 -0.95 -3.15 -0.75 -3.05 -0.45 -3.05 -0.4 -3.1 -0.45 -3.3 -0.7 -3.4 -0.95 -3.4 -1.0" fill="#8b9443" fill-rule="evenodd" stroke="none"/>
    <path d="M-4.85 -1.3 L-4.65 -1.1 -4.95 -1.25 -5.0 -1.35 -4.85 -1.3 M-5.3 -2.0 L-5.05 -1.95 -5.05 -1.95 -4.75 -1.95 -4.45 -1.8 -4.25 -1.55 -4.2 -1.45 -4.4 -1.6 -4.7 -1.7 -4.95 -1.95 -5.05 -1.95 -5.2 -1.95 -5.15 -1.9 -5.3 -2.0 M5.15 0.7 L5.15 0.75 4.9 0.75 4.85 0.6 4.8 0.55 4.5 0.35 4.3 0.3 4.25 0.3 4.35 0.15 4.4 0.15 4.5 0.05 4.6 0.0 4.65 0.0 4.5 0.2 5.0 0.65 5.15 0.7 M-4.15 -1.15 L-4.15 -1.05 -4.35 -1.05 -4.3 -1.1 -4.25 -1.1 -4.15 -1.15 M-2.35 -0.5 L-2.5 -0.65 -2.35 -0.5 -2.25 -0.45 -2.25 -0.4 -2.2 -0.4 -2.25 -0.4 -2.25 -0.4 -2.3 -0.45 -2.35 -0.5 M-2.2 -0.4 L-2.2 -0.4 -2.05 -0.3 -1.95 -0.25 -1.9 -0.2 -1.75 0.0 -1.9 -0.05 -1.9 -0.1 -2.15 -0.35 -2.2 -0.4 M-1.9 -0.2 L-1.9 -0.2" fill="#454921" fill-rule="evenodd" stroke="none"/>
    <path d="M-4.85 -0.35 L-5.05 -0.4 -5.25 -0.55 -5.3 -0.65 -5.45 -0.95 -5.35 -1.4 -5.2 -1.35 -5.0 -1.35 -4.95 -1.25 -4.65 -1.1 -4.65 -1.1 -4.5 -0.75 -4.55 -0.6 -4.55 -0.55 -4.6 -0.5 -4.7 -0.45 -4.85 -0.35 M-1.75 -3.7 L-1.75 -3.9 -1.75 -3.95 -1.6 -3.8 -1.75 -3.7 M-1.6 -3.8 L-1.6 -3.8 M-1.75 -3.5 L-1.35 -3.5 -1.35 -3.5 -1.35 -3.35 -1.35 -3.35 -1.6 -3.0 -1.8 -2.8 -1.75 -2.8 -1.8 -2.75 -1.45 -2.95 -1.4 -2.95 -1.45 -2.9 -1.75 -2.7 -1.9 -2.55 -1.95 -2.65 -1.95 -2.65 -1.95 -2.7 -2.05 -2.75 -2.1 -2.8 -2.15 -2.9 -2.25 -3.0 -2.3 -3.25 -2.25 -3.3 -2.1 -3.55 -1.95 -3.55 -1.8 -3.1 -1.75 -3.5 -1.75 -3.5 M-2.15 -2.9 L-2.15 -2.9 M-2.0 -3.65 L-2.0 -3.6 -2.05 -3.6 -2.0 -3.65" fill="#535828" fill-rule="evenodd" stroke="none"/>
    <path d="M-4.4 -1.0 L-4.4 -1.0 -4.65 -1.3 -4.65 -1.5 -4.65 -1.55 -4.4 -1.4 -4.4 -1.4 -4.3 -1.1 -4.35 -1.05 -4.4 -1.05 -4.4 -1.0 M3.05 -3.1 L3.2 -3.15 3.5 -2.65 3.45 -2.65 3.4 -2.75 3.35 -2.7 3.2 -2.7 3.0 -2.65 2.85 -2.6 2.85 -2.55 2.7 -2.45 2.75 -2.4 2.7 -2.4 2.7 -2.35 2.5 -2.4 2.5 -2.35 2.45 -2.3 2.35 -2.3 2.35 -2.35 2.3 -2.4 2.25 -2.55 2.65 -2.55 2.85 -2.7 2.95 -2.75 3.05 -2.9 3.1 -3.05 3.05 -3.1 M2.05 2.1 L2.05 2.25 2.0 2.3 2.05 2.6 2.1 2.75 1.95 2.7 1.95 2.45 2.0 2.15 2.0 2.1 2.05 2.1" fill="#697033" fill-rule="evenodd" stroke="none"/>
    <path d="M-3.85 -1.75 L-3.85 -1.6 -3.7 -1.4 -3.95 -1.45 -3.95 -1.45 -4.1 -1.45 -4.1 -1.55 -3.85 -1.75 M-3.65 -1.6 L-3.7 -1.7 -3.8 -1.85 -3.8 -1.85 -3.55 -1.9 -3.45 -1.8 -3.4 -1.8 -3.55 -1.6 -3.55 -1.5 -3.65 -1.6 M-3.25 -1.95 L-3.3 -1.9 -3.35 -1.95 -3.3 -1.95 -3.25 -1.95" fill="#2b1717" fill-rule="evenodd" stroke="none"/>
    <path d="M-5.25 -0.1 L-5.25 -0.1 -5.3 -0.15 -5.25 -0.1 -5.25 -0.1 M-4.8 -0.1 L-4.75 -0.15 -4.65 0.05 -4.75 0.0 -4.8 -0.05 -4.8 -0.1 M-4.45 -0.8 L-4.55 -0.9 -4.45 -0.8 -4.45 -0.8 M4.15 0.3 L4.05 0.3 4.0 0.25 4.0 0.15 4.1 0.25 4.15 0.3 M3.95 0.9 L3.95 0.95 3.95 0.9 M-3.85 0.05 L-3.85 0.05 -3.8 0.15 -3.85 0.05 M-3.8 0.15 L-3.8 0.15" fill="#464a22" fill-rule="evenodd" stroke="none"/>
    <path d="M4.6 -2.3 L4.65 -2.25 4.7 -2.3 5.05 -2.25 4.7 -2.25 4.65 -2.25 4.65 -2.25 4.6 -2.25 4.6 -2.3 4.6 -2.3 M-5.0 0.1 L-5.05 0.1 -5.25 -0.1 -4.95 0.0 -4.95 0.0 -5.0 0.1 -5.0 0.1 M-5.3 -0.15 L-5.3 -0.15 -5.25 -0.15 -5.25 -0.1 -5.25 -0.1 -5.3 -0.15 M4.0 -2.3 L4.05 -2.3 4.0 -2.25 4.0 -2.3 4.0 -2.3 M4.05 -0.9 L4.1 -0.8 3.9 -0.75 3.65 -0.55 3.35 -0.5 3.35 -0.5 3.35 -0.5 3.4 -0.55 3.35 -0.55 3.3 -0.55 3.3 -0.55 3.3 -0.6 3.4 -0.55 3.4 -0.55 3.45 -0.55 3.45 -0.55 3.55 -0.6 3.7 -0.6 3.95 -0.8 3.85 -0.75 3.95 -0.85 4.0 -0.85 4.05 -0.9 M4.15 -0.75 L4.2 -0.7 4.05 -0.65 4.05 -0.65 3.95 -0.65 4.15 -0.75 M2.9 -0.25 L2.9 -0.25 2.95 -0.2 3.2 0.0 3.35 0.05 3.5 0.15 3.55 0.25 3.7 0.45 3.75 0.55 3.7 0.55 3.65 0.5 3.65 0.45 3.6 0.45 3.5 0.4 3.35 0.3 3.3 0.3 3.15 0.05 3.05 -0.05 2.9 -0.25 M3.35 -0.5 L3.35 -0.5 M4.05 -0.4 L4.0 -0.45 3.75 -0.55 3.9 -0.6 4.15 -0.6 4.3 -0.55 4.2 -0.5 4.05 -0.4 M3.3 -0.55 L3.3 -0.55" fill="#595f2b" fill-rule="evenodd" stroke="none"/>
    <path d="M-4.55 -0.6 L-4.45 -0.8 -4.4 -1.0 -4.4 -1.05 -4.35 -1.05 -4.15 -1.05 -4.15 -1.15 -4.1 -1.2 -4.0 -1.2 -3.75 -1.2 -3.7 -1.1 -3.65 -1.1 -3.5 -0.95 -3.55 -0.7 -3.55 -0.7 -3.65 -0.8 -3.8 -0.8 -3.85 -0.75 -3.85 -0.75 -4.05 -0.65 -4.05 -0.5 -4.1 -0.5 -4.1 -0.5 -4.45 -0.6 -4.55 -0.55 -4.55 -0.6 M1.35 -1.4 L1.25 -1.4 1.05 -1.5 1.2 -1.5 1.35 -1.4 M-4.45 -0.8 L-4.45 -0.8 M-4.35 -0.15 L-4.3 -0.15 -3.95 -0.3 -3.9 -0.2 -3.7 -0.25 -3.6 -0.3 -3.6 -0.2 -3.4 0.05 -3.45 0.0 -3.45 0.05 -3.6 -0.05 -3.8 0.05 -3.85 0.05 -4.2 0.05 -4.35 -0.15 M-3.85 0.05 L-3.85 0.05 M-3.2 0.25 L-3.2 0.25 -3.2 0.25" fill="#5e642d" fill-rule="evenodd" stroke="none"/>
    <path d="M-4.8 -0.2 L-5.0 -0.25 Q-4.9 -0.3 -4.85 -0.35 L-4.7 -0.45 -4.6 -0.5 -4.4 -0.55 -4.1 -0.5 -4.05 -0.5 -4.0 -0.35 -3.95 -0.3 -4.3 -0.15 -4.35 -0.15 -4.65 -0.15 -4.65 -0.15 -4.8 -0.2" fill="#889142" fill-rule="evenodd" stroke="none"/>
    <path d="M4.75 1.6 L4.75 1.55 4.75 1.6 M-4.6 -0.5 L-4.55 -0.55 -4.45 -0.6 -4.1 -0.5 -4.1 -0.5 -4.4 -0.55 -4.6 -0.5 M-3.65 0.15 L-3.65 0.1 -3.65 0.15" fill="#646a30" fill-rule="evenodd" stroke="none"/>
    <path d="M-4.0 0.45 L-4.1 0.5 -4.1 0.55 -4.5 0.3 -4.65 0.05 -4.75 -0.15 -4.8 -0.2 -4.65 -0.15 -4.65 -0.15 -4.25 0.05 -4.0 0.45 M-3.9 0.6 L-3.85 0.65 -3.9 0.65 -3.9 0.6" fill="#3a3d1c" fill-rule="evenodd" stroke="none"/>
    <path d="M-3.9 0.4 L-4.0 0.45 -4.25 0.05 -4.65 -0.15 -4.35 -0.15 -4.2 0.05 -3.85 0.05 -3.8 0.05 -3.7 0.15 -3.8 0.15 -3.8 0.2 -4.05 0.3 -3.75 0.3 -3.9 0.4 M-4.1 0.55 L-4.4 0.55 -4.75 0.45 -5.0 0.1 -5.0 0.1 -4.95 0.0 -4.9 0.0 -4.75 0.0 -4.65 0.05 -4.5 0.3 -4.1 0.55 M3.65 3.25 L3.7 3.25 3.65 3.25 3.6 3.1 3.65 3.05 3.65 3.25 M3.7 3.3 L3.9 3.55 4.2 3.5 4.05 3.7 3.85 3.55 3.8 3.45 3.7 3.4 3.7 3.3 M-3.85 0.05 L-3.8 0.15 -3.85 0.05" fill="#343819" fill-rule="evenodd" stroke="none"/>
    <path d="M-4.05 -2.45 L-4.1 -2.5 -3.85 -2.6 -3.7 -2.6 -3.5 -2.55 -3.35 -2.55 -3.2 -2.45 -3.2 -2.4 -3.5 -2.5 -3.55 -2.5 -3.6 -2.5 -3.6 -2.5 -3.85 -2.5 -3.9 -2.5 -3.9 -2.5 -4.0 -2.5 -4.05 -2.45 M-3.5 -2.55 L-3.5 -2.55 M-3.05 -2.3 L-3.1 -2.35 -3.1 -2.4 -3.05 -2.35 -3.05 -2.3" fill="#512b2b" fill-rule="evenodd" stroke="none"/>
    <path d="M-0.7 -4.7 L-0.65 -4.75 -0.65 -4.75 -0.5 -4.75 -0.5 -4.7 -0.15 -4.7 0.25 -4.45 0.7 -3.75 0.65 -3.75 0.25 -4.35 0.05 -4.45 -0.05 -4.55 -0.1 -4.55 -0.15 -4.6 -0.35 -4.6 -0.55 -4.65 -0.6 -4.6 -0.7 -4.6 -0.75 -4.55 -1.15 -4.45 -1.15 -4.45 -1.2 -4.45 -1.15 -4.35 -1.15 -4.35 -1.2 -4.35 -1.25 -4.45 -1.15 -4.5 -1.1 -4.5 -1.0 -4.55 -0.7 -4.7 M0.35 0.95 L0.3 0.95 0.75 1.05 0.7 1.35 0.85 1.4 0.85 1.45 1.0 1.4 1.05 1.6 1.15 1.6 1.25 1.7 0.85 2.0 0.85 2.05 0.8 2.05 0.75 2.05 0.5 2.1 0.5 2.15 0.4 2.15 0.15 2.1 0.05 2.05 -0.25 1.95 -0.25 1.8 0.0 1.75 -0.05 1.25 0.05 1.15 0.25 1.0 0.35 1.1 0.4 1.25 0.5 1.35 0.55 1.55 0.75 1.8 0.65 1.5 0.5 1.35 0.45 1.2 0.35 1.1 0.3 0.95 0.35 0.95 M0.95 1.35 L0.85 1.4 0.85 1.25 0.9 1.3 0.95 1.35 M1.3 1.55 L1.25 1.6 1.2 1.55 1.3 1.55" fill="#653535" fill-rule="evenodd" stroke="none"/>
    <path d="M-1.6 3.1 L-1.8 2.9 -1.75 2.9 -1.7 2.9 -1.65 2.95 -1.15 3.1 -0.65 3.05 -0.65 3.05 -0.45 2.9 -0.4 2.85 -0.25 2.75 -0.2 2.7 0.1 3.25 0.1 3.3 0.15 3.3 0.0 3.4 -0.1 3.45 -0.45 3.65 -0.95 3.65 -1.4 3.4 -1.6 3.1 -1.6 3.1 M-1.85 2.8 L-1.85 2.8 -1.8 2.75 -1.85 2.8 M0.05 -4.45 L0.0 -4.45 0.0 -4.5 -0.1 -4.55 -0.05 -4.55 0.05 -4.45 M-0.35 -4.6 L-0.6 -4.6 -0.55 -4.65 -0.35 -4.6 M-1.15 -4.35 L-1.15 -4.35 -1.2 -4.45 -1.15 -4.45 -1.15 -4.45 -1.15 -4.35 M-1.05 -3.95 L-0.9 -4.1 -0.4 -4.25 0.05 -4.1 0.5 -3.75 0.6 -3.6 0.6 -3.55 0.65 -3.5 0.65 -3.5 0.45 -3.45 0.4 -3.45 -0.1 -3.35 -0.35 -3.4 -0.35 -3.4 -0.4 -3.4 -0.4 -3.4 -0.55 -3.45 -0.55 -3.45 -0.6 -3.45 -0.95 -3.8 -1.05 -3.95 M-1.65 2.95 L-1.65 2.95" fill="#5e3131" fill-rule="evenodd" stroke="none"/>
    <path d="M-0.65 -4.75 L-0.55 -4.95 -0.5 -4.95 -0.4 -4.9 -0.45 -4.8 -0.5 -4.75 -0.5 -4.75 -0.65 -4.75 M0.4 -3.4 L0.4 -3.35 0.35 -3.2 0.3 -3.1 0.15 -3.2 0.4 -3.4" fill="#4c2828" fill-rule="evenodd" stroke="none"/>
    <path d="M-0.1 -4.55 L0.0 -4.5 0.0 -4.45 0.05 -4.45 0.25 -4.35 0.65 -3.75 0.7 -3.7 0.7 -3.7 0.65 -3.65 0.65 -3.7 0.5 -3.75 0.05 -4.1 -0.4 -4.25 -0.9 -4.1 -1.05 -3.95 -1.1 -3.9 -1.15 -4.05 -1.2 -4.1 -1.3 -4.3 -1.25 -4.35 -1.2 -4.35 -1.15 -4.35 -1.15 -4.35 -0.75 -4.55 -0.7 -4.6 -0.6 -4.6 -0.35 -4.6 -0.15 -4.6 -0.1 -4.55 M-1.15 -4.35 L-1.15 -4.35 M0.05 -0.95 L0.25 -0.85 0.5 -0.8 0.25 -0.15 0.25 -0.1 0.2 -0.15 0.1 -0.2 0.1 -0.2 -0.25 -0.3 -0.4 -0.3 -0.75 -0.25 -0.95 -0.1 -1.3 0.1 -1.4 0.1 -1.35 0.05 -1.35 0.0 -1.25 -0.2 -1.15 -0.45 -0.8 -0.4 -0.35 -0.55 0.0 -0.95 0.0 -0.95 0.05 -0.95 0.05 -0.95 M-1.35 0.0 L-1.35 0.0" fill="#6d3939" fill-rule="evenodd" stroke="none"/>
    <path d="M0.05 -5.15 L0.05 -5.1 0.05 -5.15 M-0.5 -4.7 L-0.5 -4.75 -0.5 -4.75 -0.45 -4.8 -0.5 -4.7 M2.65 1.4 L2.6 1.5 2.8 2.0 3.25 2.05 3.25 2.1 3.15 2.35 3.25 2.3 3.25 2.4 3.15 2.55 2.95 2.7 2.95 2.65 2.2 2.7 2.25 2.9 2.2 2.9 2.2 2.85 2.2 2.8 2.15 2.15 2.35 1.65 2.6 1.45 2.65 1.4 M-1.5 0.1 L-1.6 0.25 -1.6 0.15 -1.5 0.1 M-1.6 0.4 L-1.35 0.2 -1.2 0.4 -1.3 0.45 -1.25 0.5 -1.6 0.45 -1.6 0.4" fill="#5a2f2f" fill-rule="evenodd" stroke="none"/>
    <path d="M-1.55 -4.4 L-1.5 -4.45 -1.25 -4.65 -1.2 -4.65 -1.45 -4.4 -1.55 -4.4 M-1.15 -4.65 L-1.1 -4.6 -1.1 -4.5 -1.15 -4.5 -1.15 -4.65 M4.65 -0.7 L4.85 -0.8 4.9 -1.1 5.0 -1.05 5.0 -0.65 5.0 -0.65 4.8 -0.65 4.65 -0.7 M3.95 -0.35 L4.05 -0.4 4.2 -0.5 4.3 -0.55 4.45 -0.5 4.8 -0.6 4.9 -0.65 4.75 -0.55 4.5 -0.3 4.5 -0.25 4.5 -0.15 3.95 -0.35 3.95 -0.35 M4.3 -0.1 L4.5 -0.15 4.5 -0.05 4.4 -0.05 4.3 -0.1 M0.5 2.1 L0.75 2.05 0.8 2.05 0.75 2.05 0.75 2.1 0.6 2.3 0.6 2.25 0.55 2.25 0.55 2.2 0.55 2.15 0.5 2.1 M-2.7 -1.65 L-2.7 -1.65 -2.7 -1.65 M-3.5 -1.1 L-3.45 -1.05 -3.6 -1.1 -3.65 -1.1 -3.7 -1.1 -3.6 -1.15 -3.6 -1.15 -3.6 -1.1 -3.5 -1.1" fill="#303317" fill-rule="evenodd" stroke="none"/>
    <path d="M5.0 3.15 L4.95 3.45 4.15 3.85 3.65 3.7 3.7 3.65 3.8 3.6 3.85 3.55 4.05 3.7 4.2 3.5 4.7 3.5 5.0 3.15 M-1.2 -4.65 L-1.1 -4.75 -1.15 -4.65 -1.15 -4.5 -1.25 -4.45 -1.2 -4.35 -1.25 -4.35 -1.45 -4.4 -1.2 -4.65" fill="#313418" fill-rule="evenodd" stroke="none"/>
    <path d="M-0.75 -4.55 L-1.15 -4.35 -1.15 -4.45 -0.75 -4.55 M-1.15 -4.05 L-1.1 -3.9 -1.15 -3.95 -1.15 -4.05 M-1.1 -3.9 L-1.1 -3.9 -1.1 -3.9" fill="#3f2121" fill-rule="evenodd" stroke="none"/>
    <path d="M-1.85 -4.15 L-1.55 -4.4 -1.55 -4.4 -1.45 -4.4 -1.25 -4.35 -1.3 -4.3 -1.2 -4.1 -1.25 -4.1 -1.55 -3.95 -1.6 -3.8 -1.75 -3.95 -1.75 -3.9 -1.95 -3.8 -2.05 -3.75 -2.05 -3.95 -1.85 -4.15 M-1.05 -3.3 L-1.05 -3.3 -1.15 -3.15 -1.2 -3.1 -1.3 -3.1 -1.35 -3.15 -1.35 -3.2 -1.25 -3.2 -1.05 -3.3 M-3.55 -2.45 L-3.35 -2.45 -3.3 -2.4 -3.3 -2.3 -3.25 -2.35 -3.15 -2.25 -3.3 -2.3 -3.45 -2.35 -3.55 -2.45 M-2.95 -1.85 L-2.95 -1.9 -2.95 -1.85 M-2.95 -1.9 L-2.95 -1.9" fill="#2e3116" fill-rule="evenodd" stroke="none"/>
    <path d="M2.9 -3.75 L2.9 -3.8 3.1 -3.9 3.0 -3.8 2.95 -3.65 2.85 -3.7 2.85 -3.7 2.9 -3.75 M0.7 4.25 L0.7 4.05 0.75 3.95 0.75 3.9 0.85 3.7 1.05 3.9 1.0 3.9 0.7 4.2 0.65 4.35 0.7 4.25 M-0.1 4.25 L-0.1 4.3 -0.15 4.3 -0.2 4.25 -0.2 4.2 -0.2 3.95 -0.15 3.9 -0.1 3.75 -0.05 3.75 -0.05 3.75 -0.05 3.7 0.0 3.4 0.15 3.3 0.1 3.3 0.15 3.3 0.2 3.3 0.2 3.35 0.05 3.65 0.05 3.95 0.1 4.1 -0.1 4.25 M-2.05 -3.75 L-2.1 -3.8 -2.05 -4.25 -1.85 -4.15 -1.85 -4.15 -1.85 -4.15 -2.05 -3.95 -2.05 -3.75 -2.05 -3.75 M1.0 3.15 L0.9 3.4 0.9 3.4 1.0 3.15 M0.8 3.65 L0.8 3.85 0.75 3.7 0.8 3.65 M-1.95 -3.75 L-1.9 -3.65 -2.0 -3.6 -2.0 -3.65 -1.95 -3.75 M-1.75 -3.5 L-1.8 -3.1 -1.95 -3.55 -1.75 -3.55 -1.75 -3.5 M-2.35 -0.45 L-2.35 -0.5 -2.3 -0.45 -2.25 -0.4 -2.25 -0.4 -2.2 -0.4 -2.25 -0.4 -2.25 -0.45 -2.2 -0.4 -2.2 -0.4 -2.05 -0.35 -2.05 -0.3 -2.2 -0.4 -2.35 -0.45 M-2.35 -0.55 L-2.35 -0.65 -2.3 -0.65 -2.3 -0.65 -2.15 -0.5 -2.1 -0.45 -2.15 -0.4 -2.35 -0.55 M-1.9 -0.2 L-1.9 -0.2 -1.9 -0.2 -1.9 -0.2" fill="#4a4f24" fill-rule="evenodd" stroke="none"/>
    <path d="M-3.65 1.15 L-3.95 0.9 -3.9 0.9 -3.75 0.7 -3.8 0.7 -3.7 0.5 -3.4 0.4 -3.05 0.4 -3.05 0.4 -2.7 0.65 -2.6 0.7 -2.6 0.7 -2.95 0.65 -3.0 0.6 -3.0 0.6 -3.0 0.8 -3.05 0.8 -3.15 0.7 -3.2 0.8 -3.25 0.8 -3.3 0.8 -3.3 0.8 -3.3 0.85 -3.4 0.95 -3.6 1.1 -3.65 1.15 M3.05 0.45 L2.95 0.45 2.95 0.4 3.05 0.45 M3.6 1.2 L3.6 1.6 3.3 1.4 3.15 1.2 3.25 1.25 3.6 1.2 M-1.95 -3.75 L-1.9 -3.85 -1.95 -3.8 -1.75 -3.9 -1.75 -3.7 -1.9 -3.65 -1.95 -3.75 M-1.75 -3.5 L-1.75 -3.5 -1.75 -3.55 -1.75 -3.5" fill="#4d5225" fill-rule="evenodd" stroke="none"/>
    <path d="M-2.5 -3.55 L-2.5 -3.55 -2.05 -3.75 -1.95 -3.8 -1.9 -3.85 -1.95 -3.75 -2.0 -3.65 -2.05 -3.6 -2.1 -3.55 -2.1 -3.55 -2.25 -3.3 -2.3 -3.25 -2.6 -3.1 -2.65 -3.1 -2.85 -3.0 -2.95 -2.95 -2.85 -3.1 -2.65 -3.3 -2.55 -3.45 -2.5 -3.25 -2.5 -3.55 M0.45 -4.9 L0.6 -4.95 0.7 -5.0 1.0 -4.9 1.35 -5.0 1.65 -4.85 1.35 -4.7 1.0 -4.8 0.8 -4.75 0.75 -4.9 0.5 -4.85 0.45 -4.9 M3.15 0.35 L3.3 0.45 3.55 0.55 3.05 0.45 2.95 0.4 2.95 0.45 2.65 0.25 2.3 0.1 3.0 0.25 3.15 0.35 M0.5 2.5 L0.6 2.35 0.55 2.25 0.6 2.25 0.6 2.3 0.65 2.4 0.65 2.55 0.75 2.85 0.7 2.8 0.6 2.65 0.5 2.55 0.5 2.5 M1.25 2.8 L1.3 2.9 1.2 2.95 1.25 2.85 1.25 2.8 M1.55 2.85 L1.6 2.8 1.55 2.8 1.55 2.85 M0.5 3.15 L0.55 3.4 0.55 3.75 0.4 4.05 0.15 4.3 0.1 4.1 0.05 3.95 0.05 3.65 0.2 3.35 0.2 3.3 0.4 3.05 0.45 2.95 0.5 3.15 M-2.05 -3.75 L-2.05 -3.75 M-2.55 -3.45 L-2.55 -3.45" fill="#40441f" fill-rule="evenodd" stroke="none"/>
    <path d="M-1.9 -3.65 L-1.75 -3.7 -1.6 -3.8 -1.45 -3.85 -1.4 -3.85 -1.15 -3.85 -1.4 -3.6 -1.3 -3.55 -1.35 -3.5 -1.35 -3.5 -1.75 -3.5 -1.75 -3.55 -1.95 -3.55 -2.1 -3.55 -2.1 -3.55 -2.05 -3.6 -2.0 -3.6 -1.9 -3.65" fill="#474c22" fill-rule="evenodd" stroke="none"/>
    <path d="M4.5 -0.15 L4.55 -0.15 4.5 -0.15 4.5 -0.25 4.55 -0.25 4.75 -0.15 4.65 0.0 4.6 0.0 4.5 0.05 4.5 -0.05 4.5 -0.15 M4.0 0.15 L4.15 0.15 4.1 0.2 4.1 0.25 4.0 0.15 4.0 0.25 3.95 0.2 3.9 0.15 3.85 0.15 4.0 0.15 M-3.6 -0.2 L-3.6 -0.3 -3.4 -0.35 -3.5 -0.7 -3.5 -0.7 -3.55 -0.7 -3.5 -0.95 -3.5 -0.95 -3.4 -1.0 -3.3 -1.1 -3.15 -1.1 -2.85 -1.15 -2.8 -1.15 -2.8 -1.15 -2.65 -1.3 -2.6 -1.25 -2.55 -1.25 -2.5 -1.2 -2.45 -1.15 -2.35 -1.0 -2.35 -0.9 -2.35 -0.85 -2.35 -0.65 -2.35 -0.55 -2.35 -0.5 -2.35 -0.45 -2.45 -0.45 -2.95 -0.35 -2.95 -0.3 -2.9 0.05 -3.05 0.15 -3.1 0.1 -3.15 -0.1 -3.15 -0.15 -3.15 -0.15 -3.1 -0.25 -2.8 -0.4 -2.8 -0.4 -2.65 -0.75 -2.95 -0.6 -3.05 -0.45 -3.15 -0.75 -3.4 -0.95 -3.4 -1.0 -3.4 -0.95 -3.3 -0.7 -3.1 -0.45 -3.1 -0.4 -3.15 -0.3 -3.25 -0.25 -3.4 -0.3 -3.4 -0.3 -3.6 -0.2 M-1.4 -3.85 L-1.5 -3.95 -1.1 -3.9 -1.1 -3.9 -1.15 -3.85 -1.4 -3.85 M-2.05 -2.75 L-1.95 -2.7 -1.95 -2.65 -2.0 -2.7 -2.45 -2.15 -2.5 -1.85 -2.55 -1.85 -2.65 -1.85 -2.85 -1.9 -2.9 -1.95 -3.0 -1.95 -3.15 -2.0 -3.1 -2.0 -3.05 -2.25 -3.05 -2.3 -3.05 -2.35 -3.0 -2.6 -2.9 -2.65 -2.85 -2.75 -2.8 -2.8 -2.75 -2.8 -2.45 -2.9 -2.25 -2.85 -2.1 -2.8 -2.05 -2.75 M-2.35 -0.5 L-2.35 -0.5 -2.5 -0.65 -2.35 -0.5 M-2.2 -0.4 L-2.2 -0.4 -2.15 -0.4 -2.1 -0.45 -1.9 -0.5 -1.6 -0.4 -1.45 -0.4 -1.45 -0.35 -1.45 -0.3 -1.6 -0.35 -1.9 -0.3 -2.05 -0.35 -2.2 -0.4 -2.2 -0.4 M-1.35 -0.3 L-1.4 -0.3 -1.35 -0.3 -1.35 -0.3" fill="#484c23" fill-rule="evenodd" stroke="none"/>
    <path d="M-1.1 -3.9 L-1.05 -3.95 -0.95 -3.8 -0.6 -3.45 -0.55 -3.45 -0.55 -3.45 -0.4 -3.4 -0.4 -3.25 -0.45 -3.25 -0.4 -3.2 -0.4 -3.15 0.35 -3.4 0.4 -3.45 0.45 -3.45 0.4 -3.4 0.15 -3.2 0.1 -3.15 -0.4 -3.0 -0.85 -3.15 -0.9 -3.15 -1.0 -3.25 -1.05 -3.3 -1.3 -3.55 -1.4 -3.6 -1.15 -3.85 -1.1 -3.9 -1.1 -3.9 M0.5 -3.75 L0.65 -3.7 0.65 -3.65 0.7 -3.65 0.6 -3.6 0.5 -3.75 M-1.05 -3.3 L-1.05 -3.3" fill="#693737" fill-rule="evenodd" stroke="none"/>
    <path d="M-1.4 -2.95 L-1.45 -2.95 -1.8 -2.75 -1.75 -2.8 -1.6 -3.0 -1.35 -3.35 -1.35 -3.35 -1.35 -3.2 -1.35 -3.15 -1.4 -3.05 -1.4 -2.95" fill="#3b3f1c" fill-rule="evenodd" stroke="none"/>
    <path d="M5.8 0.25 L5.95 0.85 5.9 0.85 5.85 0.85 5.5 0.85 5.2 0.75 5.15 0.75 5.15 0.7 5.3 0.7 5.65 0.55 5.8 0.25 M5.65 1.0 L5.5 1.15 5.3 0.95 5.5 0.95 5.65 1.0 M-0.85 -3.15 L-1.1 -2.8 -1.1 -2.85 -1.15 -2.85 -1.35 -3.05 -1.3 -3.1 -1.3 -3.1 -1.2 -3.1 -1.15 -3.15 -1.0 -3.25 -0.9 -3.15 -0.85 -3.15 M0.8 2.05 L0.85 2.05 0.9 2.45 1.25 2.8 1.25 2.85 1.2 2.95 1.1 3.05 1.05 3.2 1.0 3.15 0.9 3.05 0.8 2.95 0.75 2.9 0.75 2.85 0.65 2.55 0.65 2.4 0.7 2.25 0.75 2.05 0.8 2.05" fill="#565c2a" fill-rule="evenodd" stroke="none"/>
    <path d="M4.95 -2.85 L4.95 -2.85 4.9 -2.85 4.95 -2.85 M5.3 -2.8 L5.55 -2.6 5.8 -2.3 5.4 -2.3 5.1 -2.35 4.8 -2.55 4.8 -2.55 4.75 -2.6 4.75 -2.6 4.8 -2.7 4.85 -2.7 5.2 -2.75 5.3 -2.8 M2.55 0.95 L2.4 0.7 2.4 0.65 2.65 1.0 2.55 0.95 M-1.75 -2.8 L-1.8 -2.8 -1.6 -3.0 -1.75 -2.8" fill="#282b13" fill-rule="evenodd" stroke="none"/>
    <path d="M0.0 -1.55 L0.05 -1.55 0.05 -1.15 0.05 -1.05 0.05 -0.95 0.0 -0.95 -0.15 -1.0 -0.65 -0.9 -1.05 -0.6 -1.15 -0.45 -1.25 -0.2 -1.35 -0.1 -1.4 -0.05 -1.4 -0.15 -1.35 -0.2 -1.35 -0.2 -1.35 -0.3 -1.35 -0.3 -1.35 -0.3 -1.3 -0.85 -1.05 -1.3 -0.65 -1.55 0.0 -1.55 M0.05 -1.15 L0.05 -1.15 M-0.95 -0.1 L-0.75 -0.25 -0.4 -0.3 -0.6 -0.15 -0.95 -0.1 M-1.95 -2.65 L-1.95 -2.65 -1.9 -2.55 -1.85 -2.55 -1.5 -2.25 -1.5 -2.25 -1.3 -1.75 -1.4 -1.7 -1.6 -1.2 -1.6 -0.95 -1.65 -0.9 -1.8 -0.65 -1.85 -0.7 -1.95 -0.8 -2.2 -1.05 -2.35 -1.2 -2.35 -1.2 -2.35 -1.25 -2.5 -1.65 -2.5 -1.8 -2.5 -1.85 -2.45 -2.15 -2.0 -2.7 -1.95 -2.65" fill="#753e3e" fill-rule="evenodd" stroke="none"/>
    <path d="M-1.1 -2.8 L-0.95 -2.55 -1.05 -2.35 -1.15 -2.45 -1.4 -2.3 -1.5 -2.45 -1.4 -2.5 -1.2 -2.75 -1.15 -2.85 -1.1 -2.85 -1.1 -2.8 M4.3 2.6 L4.5 2.4 4.55 2.25 4.65 2.25 4.65 2.3 4.6 2.65 4.45 2.95 4.3 2.65 4.3 2.6 M-2.1 -2.8 L-2.05 -2.75 -2.1 -2.8 -2.1 -2.8 -2.1 -2.8 M-1.9 -2.55 L-1.75 -2.7 -1.75 -2.65 -1.85 -2.55 -1.9 -2.55 M-1.65 -0.9 L-1.6 -0.95 -1.55 -0.9 -1.65 -0.9 M-2.15 -0.9 L-2.05 -0.75 -2.2 -0.7 -2.15 -0.5 -2.3 -0.65 -2.3 -0.8 -2.25 -0.85 -2.15 -0.9 M-2.3 -0.65 L-2.3 -0.65 M-1.9 -0.2 L-1.75 -0.1 -1.4 -0.05 -1.35 -0.05 -1.4 -0.05 -1.35 0.0 -1.5 0.1 -1.6 0.15 -1.65 0.15 -1.7 0.2 -1.85 0.15 -1.9 -0.05 -1.75 0.0 -1.9 -0.2 -1.9 -0.2" fill="#505527" fill-rule="evenodd" stroke="none"/>
    <path d="M4.65 -2.2 L4.8 -1.95 4.85 -1.85 5.0 -1.65 4.95 -1.45 4.9 -1.1 4.85 -0.8 4.65 -0.7 4.45 -0.75 4.4 -0.7 4.35 -0.75 4.2 -0.7 4.15 -0.75 4.15 -0.8 4.2 -0.8 4.3 -0.85 4.55 -0.9 4.8 -1.1 4.5 -1.0 4.3 -0.85 4.2 -0.85 4.15 -0.8 4.1 -0.8 4.05 -0.9 4.05 -0.95 4.1 -0.9 4.1 -0.95 4.45 -1.4 4.3 -1.55 4.3 -1.55 4.25 -1.6 4.4 -1.9 4.15 -2.0 4.1 -2.2 4.0 -2.2 4.0 -2.25 4.05 -2.3 4.15 -2.25 4.5 -2.3 4.5 -2.35 4.55 -2.35 4.6 -2.3 4.6 -2.25 4.65 -2.2 M-2.7 -3.35 L-2.6 -3.65 -2.6 -3.6 -2.65 -3.4 -2.65 -3.3 -2.85 -3.1 -2.85 -3.1 -2.7 -3.35 M3.35 -0.2 L3.5 -0.3 3.75 -0.3 3.8 -0.35 3.9 -0.35 3.95 -0.35 4.5 -0.15 4.3 -0.1 4.0 -0.05 3.9 -0.05 3.85 -0.05 3.75 -0.1 3.75 -0.1 3.45 -0.15 3.35 -0.2 3.35 -0.2 M4.5 -0.15 L4.55 -0.15 4.5 -0.15 M3.95 -0.35 L3.95 -0.35 M4.7 1.35 L4.75 1.25 4.8 1.25 4.8 1.1 4.85 1.0 5.05 1.25 4.8 1.3 5.0 1.75 4.8 1.7 4.8 1.65 4.85 1.6 4.75 1.6 4.75 1.45 4.7 1.35 M4.75 1.7 L4.75 1.65 4.75 1.7 M4.5 1.85 L4.6 1.85 4.65 2.0 4.55 2.0 4.55 1.95 4.5 1.85 M-1.75 -2.7 L-1.45 -2.9 -1.4 -2.95 -1.4 -3.05 -1.4 -3.05 -1.35 -3.05 -1.15 -2.85 -1.2 -2.75 -1.4 -2.5 -1.5 -2.45 -1.65 -2.7 -1.75 -2.65 -1.75 -2.7 M-2.75 -2.8 L-2.8 -2.8 -2.85 -2.75 -2.85 -2.9 -2.85 -3.0 -2.65 -3.1 -2.65 -3.05 -2.75 -2.8" fill="#494e23" fill-rule="evenodd" stroke="none"/>
    <path d="M-1.25 -1.95 L-1.25 -1.9 -1.25 -1.85 -1.3 -1.75 -1.5 -2.25 -1.5 -2.25 -1.85 -2.55 -1.75 -2.65 -1.65 -2.7 -1.5 -2.45 -1.4 -2.3 -1.25 -2.15 -1.25 -1.95 M1.25 0.8 L1.3 0.85 1.45 0.9 1.0 1.05 0.95 1.05 0.8 0.85 1.25 0.8 M0.45 0.55 L0.6 0.6 0.65 0.9 0.8 0.85 0.95 1.05 0.85 1.05 0.8 1.05 0.75 1.05 0.3 0.95 0.35 0.95 0.35 0.8 0.35 0.7 0.35 0.65 0.4 0.6 0.45 0.55 M-2.2 -1.05 L-1.95 -0.8 -1.95 -0.7 -2.0 -0.65 -2.05 -0.75 -2.15 -0.9 -2.15 -0.95 -2.2 -1.0 -2.2 -1.05" fill="#ad5b5b" fill-rule="evenodd" stroke="none"/>
    <path d="M0.85 -4.4 L0.9 -4.2 0.8 -4.0 0.7 -3.75 0.7 -3.7 0.8 -4.15 0.7 -4.65 0.5 -4.85 0.75 -4.9 0.8 -4.75 0.85 -4.4 M0.4 -3.45 L0.35 -3.4 -0.4 -3.15 -0.4 -3.2 -0.4 -3.25 -0.4 -3.4 -0.4 -3.4 -0.35 -3.4 -0.35 -3.4 -0.1 -3.35 0.4 -3.45" fill="#753d3d" fill-rule="evenodd" stroke="none"/>
    <path d="M-0.4 -3.2 L-0.45 -3.25 -0.4 -3.25 -0.4 -3.2 M-1.4 -0.15 L-1.4 -0.2 -1.35 -0.2 -1.35 -0.2 -1.4 -0.15" fill="#9f5454" fill-rule="evenodd" stroke="none"/>
    <path d="M2.55 3.35 L2.3 3.35 2.15 3.3 2.05 3.25 2.0 3.25 1.75 3.0 1.6 2.75 1.75 2.65 1.8 2.65 1.8 2.85 2.05 3.0 1.95 2.7 2.1 2.75 2.2 2.9 2.25 3.05 2.25 3.1 2.3 3.2 2.3 3.25 2.35 3.2 2.35 3.3 2.4 3.3 2.5 3.3 2.55 3.35 M-0.75 4.1 L-0.95 4.1 -0.95 4.1 -0.9 4.05 -0.75 4.1 M-3.85 -3.1 L-3.85 -3.3 -3.55 -3.15 -3.3 -2.9 -3.3 -2.9 -3.15 -2.85 -3.1 -2.85 -3.0 -2.95 -2.85 -3.25 -2.7 -3.35 -2.85 -3.1 -2.85 -3.1 -2.95 -2.95 -2.85 -3.0 -2.85 -2.9 -2.85 -2.85 -2.9 -2.65 -3.0 -2.6 -3.05 -2.35 -3.1 -2.4 -3.1 -2.4 -3.15 -2.7 -3.2 -2.45 -3.35 -2.55 -3.5 -2.55 -3.7 -2.6 -3.7 -2.6 -3.75 -2.65 -3.8 -2.9 -3.65 -2.8 -3.75 -3.05 -3.85 -3.1 M-3.55 -2.5 L-3.5 -2.5 -3.2 -2.4 -3.1 -2.35 -3.05 -2.3 -3.05 -2.25 -3.15 -2.25 -3.25 -2.35 -3.3 -2.3 -3.3 -2.4 -3.35 -2.45 -3.55 -2.45 -3.6 -2.5 -3.6 -2.5 -3.55 -2.5 -3.55 -2.5 M-3.5 -2.55 L-3.6 -2.75 -3.65 -2.8 -3.65 -2.7 -3.5 -2.55 M-3.3 -2.3 L-3.3 -2.3 M-3.15 -2.85 L-3.15 -2.85 M-3.15 -2.75 L-3.15 -2.7 -3.15 -2.8 -3.15 -2.75 M-2.65 -3.4 L-2.55 -3.45 -2.55 -3.45 -2.65 -3.3 -2.65 -3.4 M-2.65 -3.05 L-2.65 -3.1 -2.6 -3.1 -2.6 -3.1 -2.65 -3.05 M-2.65 -1.55 L-2.45 -1.4 -2.65 -1.45 -2.65 -1.55 M-0.35 3.9 L-0.45 4.0 -0.45 3.9 -0.35 3.9" fill="#2d3016" fill-rule="evenodd" stroke="none"/>
    <path d="M1.6 0.4 L1.65 0.4 1.8 0.3 1.7 0.5 1.6 0.55 1.6 0.4 M2.8 0.45 L2.8 0.5 2.75 0.65 2.6 0.65 2.65 0.55 2.65 0.45 2.75 0.5 2.8 0.45 M2.65 1.0 L2.7 1.0 2.4 1.3 2.35 1.4 2.25 1.5 2.15 1.4 2.1 1.4 2.55 0.95 2.65 1.0 M-3.9 -2.5 L-3.9 -2.5 -3.85 -2.5 -3.9 -2.5" fill="#381d1d" fill-rule="evenodd" stroke="none"/>
    <path d="M-3.95 -2.0 L-3.9 -1.95 -3.85 -1.75 -4.1 -1.55 -3.95 -2.0 -3.95 -2.0 M-3.8 -1.85 L-3.9 -1.95 -3.95 -2.3 -4.05 -2.45 -4.0 -2.5 -3.9 -2.5 -3.85 -2.5 -3.6 -2.5 -3.6 -2.5 -3.6 -2.5 -3.55 -2.45 -3.45 -2.35 -3.3 -2.3 -3.3 -2.3 -3.15 -2.25 -3.05 -2.25 -3.1 -2.0 -3.25 -1.95 -3.3 -1.95 -3.35 -1.95 -3.35 -1.95 -3.7 -2.0 -3.7 -2.0 -3.55 -1.9 -3.8 -1.85 -3.8 -1.85 M-2.95 -1.9 L-3.0 -1.95 -2.9 -1.95 -2.95 -1.9 -2.95 -1.9 M-2.6 0.75 L-2.55 0.75 -2.55 0.7 -2.4 0.75 -2.35 0.8 -2.3 0.8 -2.25 0.8 -2.05 0.85 -2.05 0.9 -2.3 1.25 -2.4 1.6 -2.55 1.2 -2.55 1.15 -2.6 0.75 -2.8 1.0 -2.8 1.0 -2.9 0.9 -2.95 0.85 -3.05 0.8 -3.0 0.8 -2.6 0.75 M-3.2 0.8 L-3.3 0.9 -3.3 0.85 -3.3 0.8 -3.25 0.8 -3.2 0.8 M-2.55 1.2 L-2.55 1.2 M-2.35 2.0 L-2.35 1.9 -2.35 2.0 -2.35 2.0 -2.35 2.0 -2.35 2.0 M-2.25 0.8 L-2.25 0.8 M-3.3 0.9 L-3.3 0.9" fill="#633434" fill-rule="evenodd" stroke="none"/>
    <path d="M-3.15 -2.85 L-3.2 -3.1 -3.15 -3.4 -3.05 -3.05 -3.15 -2.85 -3.15 -2.85 M2.0 -0.45 L2.0 -0.45 2.1 -0.5 2.15 -0.45 2.25 -0.4 2.2 -0.25 2.15 -0.2 2.1 -0.2 1.9 -0.1 1.85 -0.05 1.8 0.0 1.8 0.05 1.8 0.1 1.6 0.1 1.75 0.15 1.7 0.2 1.35 0.35 1.35 0.3 1.5 0.0 1.8 -0.2 2.0 -0.45 M2.2 -0.25 L2.2 -0.25 2.15 -0.25 2.2 -0.25 M4.1 -0.8 L4.15 -0.8 4.2 -0.85 4.3 -0.85 4.5 -1.0 4.8 -1.1 4.55 -0.9 4.3 -0.85 4.2 -0.8 4.15 -0.8 4.15 -0.75 3.95 -0.65 3.95 -0.6 3.9 -0.6 3.75 -0.55 3.55 -0.5 3.65 -0.55 3.9 -0.75 4.1 -0.8 M3.85 0.15 L3.9 0.15 3.8 0.1 3.8 0.0 3.85 0.15 M-3.2 -2.4 L-3.2 -2.45 -3.15 -2.7 -3.1 -2.4 -3.1 -2.4 -3.1 -2.35 -3.2 -2.4 M-3.15 -2.75 L-3.15 -2.8 -3.15 -2.7 -3.15 -2.75" fill="#323518" fill-rule="evenodd" stroke="none"/>
    <path d="M-2.6 -3.65 L-2.65 -3.65 -2.65 -3.9 -2.5 -3.7 -2.5 -3.55 -2.5 -3.25 -2.55 -3.45 -2.6 -3.6 -2.6 -3.65" fill="#424620" fill-rule="evenodd" stroke="none"/>
    <path d="M1.9 -0.4 L2.0 -0.45 1.8 -0.2 1.5 0.0 1.35 0.3 1.3 0.35 1.35 0.35 1.7 0.2 1.75 0.15 1.8 0.1 1.8 0.05 1.85 -0.05 1.9 -0.1 2.1 -0.2 2.1 -0.15 2.1 -0.1 2.0 0.1 1.95 0.2 1.9 0.2 1.8 0.3 1.65 0.4 1.6 0.4 1.2 0.5 1.2 0.4 1.3 0.05 1.5 -0.25 1.7 -0.35 1.75 -0.4 1.9 -0.4 M-2.15 -2.9 L-2.15 -2.9 -2.1 -2.8 -2.25 -2.85 -2.15 -2.9 M-2.1 -2.8 L-2.1 -2.8" fill="#292b13" fill-rule="evenodd" stroke="none"/>
    <path d="M1.1 -3.1 L1.1 -3.15 1.1 -3.1 M1.1 -3.15 L1.1 -3.15 M2.15 -1.95 L2.05 -2.05 2.2 -2.1 2.2 -1.95 2.15 -1.95 M-2.95 -1.9 L-2.95 -1.85 -2.9 -1.7 -2.9 -1.65 -2.9 -1.55 -2.95 -1.4 -2.95 -1.35 -3.0 -1.25 -3.3 -1.1 -3.4 -1.0 -3.4 -1.05 -3.45 -1.1 -3.45 -1.2 -3.55 -1.5 -3.55 -1.6 -3.4 -1.8 -3.35 -1.85 -3.3 -1.9 -3.25 -1.95 -3.1 -2.0 -3.15 -2.0 -3.0 -1.95 -2.95 -1.9" fill="#707736" fill-rule="evenodd" stroke="none"/>
    <path d="M-3.7 -1.4 L-3.65 -1.4 -3.6 -1.25 -3.55 -1.15 -3.6 -1.15 -3.6 -1.15 -3.7 -1.1 -3.75 -1.2 -4.0 -1.2 -3.95 -1.45 -3.7 -1.4 M-3.4 -1.05 L-3.4 -1.0 -3.5 -0.95 -3.5 -0.95 -3.65 -1.1 -3.6 -1.1 -3.45 -1.05 -3.4 -1.05 M-3.0 -1.25 L-2.95 -1.35 -2.95 -1.4 -2.9 -1.55 -2.85 -1.5 -2.75 -1.5 -2.8 -1.3 -2.85 -1.35 -2.9 -1.35 -3.0 -1.25 M-2.9 -1.65 L-2.9 -1.7 -2.95 -1.85 -2.95 -1.9 -2.9 -1.95 -2.85 -1.9 -2.75 -1.65 -2.75 -1.65 -2.75 -1.6 -2.8 -1.65 -2.9 -1.65 M-2.9 -1.35 L-2.95 -1.4 -2.9 -1.35" fill="#291616" fill-rule="evenodd" stroke="none"/>
    <path d="M3.35 -3.8 L3.4 -3.8 3.65 -3.8 3.4 -3.7 3.2 -3.45 3.1 -3.5 3.3 -3.65 3.35 -3.8 M-3.9 0.8 L-3.9 0.8 -3.9 0.65 -3.85 0.65 -3.9 0.6 -3.9 0.4 -3.75 0.3 -3.7 0.3 -3.4 0.3 -3.3 0.25 -3.2 0.25 -3.1 0.2 -3.1 0.15 -2.65 0.55 -2.7 0.65 -3.05 0.4 -3.05 0.4 -3.4 0.4 -3.7 0.5 -3.8 0.7 -3.9 0.8 M3.9 0.65 L3.85 0.7 3.85 0.65 3.9 0.65 M-3.8 0.05 L-3.6 -0.05 -3.45 0.05 -3.65 0.1 -3.7 0.15 -3.8 0.05 M-2.65 -1.85 L-2.55 -1.85 -2.5 -1.85 -2.5 -1.8 -2.6 -1.7 -2.6 -1.8 -2.65 -1.85 M-2.35 -1.2 L-2.35 -1.2 -2.2 -1.05 -2.2 -1.0 -2.25 -0.95 -2.25 -0.9 -2.35 -0.9 -2.35 -1.0 -2.45 -1.15 -2.4 -1.2 -2.35 -1.2 M-2.65 0.45 L-2.65 0.5 -2.75 0.35 -2.65 0.45 M-3.2 0.25 L-3.2 0.25 M-3.1 0.15 L-3.1 0.15" fill="#36391a" fill-rule="evenodd" stroke="none"/>
    <path d="M-2.5 -1.8 L-2.5 -1.65 -2.35 -1.25 -2.5 -1.2 -2.55 -1.25 -2.6 -1.25 -2.65 -1.35 -2.7 -1.45 -2.65 -1.45 -2.45 -1.4 -2.65 -1.55 -2.75 -1.6 -2.75 -1.6 -2.7 -1.65 -2.6 -1.7 -2.6 -1.7 -2.5 -1.8 M-2.7 -1.65 L-2.7 -1.65" fill="#4a733d" fill-rule="evenodd" stroke="none"/>
    <path d="M2.05 3.25 L2.05 3.3 1.8 3.8 1.65 3.65 1.6 3.6 1.5 3.4 1.3 3.25 1.25 3.15 1.1 3.05 1.2 3.2 1.3 3.25 1.4 3.45 1.6 3.6 1.65 3.7 1.75 3.85 1.75 3.9 1.1 3.9 1.05 3.9 0.85 3.7 0.75 3.9 0.55 4.1 0.45 4.15 0.4 4.05 0.55 3.75 0.55 3.4 0.5 3.15 0.7 2.9 0.65 3.2 0.75 3.55 0.75 3.7 0.8 3.85 0.8 3.65 0.8 3.55 0.85 3.2 0.85 3.1 0.9 3.05 1.0 3.15 1.05 3.2 1.1 3.05 1.2 2.95 1.3 2.9 1.4 2.95 1.55 2.85 1.55 2.8 1.6 2.8 1.6 2.75 1.75 3.0 2.0 3.25 2.05 3.25 M1.0 3.15 L0.9 3.4 0.9 3.4 1.0 3.15 M-3.3 -1.9 L-3.35 -1.85 -3.4 -1.8 -3.45 -1.8 -3.55 -1.9 -3.7 -2.0 -3.7 -2.0 -3.35 -1.95 -3.35 -1.95 -3.3 -1.9 M-2.9 -1.55 L-2.9 -1.65 -2.8 -1.65 -2.75 -1.6 -2.65 -1.55 -2.65 -1.45 -2.7 -1.45 -2.75 -1.5 -2.85 -1.5 -2.9 -1.55 M-2.75 -1.6 L-2.75 -1.6" fill="#242611" fill-rule="evenodd" stroke="none"/>
    <path d="M-0.25 -1.75 L0.0 -1.75 0.0 -1.55 -0.65 -1.55 -1.05 -1.3 -1.3 -0.85 -1.35 -0.3 -1.4 -0.3 -1.45 -0.3 -1.45 -0.3 -1.45 -0.35 -1.4 -0.6 -1.35 -1.1 -1.1 -1.5 -1.05 -1.55 -0.9 -1.65 -0.65 -1.75 -0.3 -1.75 -0.25 -1.75 M1.95 1.95 L2.05 2.05 2.0 2.1 2.0 2.15 1.95 2.35 1.8 2.1 1.65 1.7 1.75 2.1 1.75 2.45 1.8 2.6 1.75 2.65 1.6 2.75 1.6 2.8 1.55 2.85 1.4 2.95 1.3 2.9 1.25 2.8 0.9 2.45 0.85 2.05 0.85 2.0 1.25 1.7 1.3 1.8 1.75 2.1 1.6 1.95 1.4 1.7 1.25 1.6 1.3 1.55 1.35 1.5 1.4 1.5 1.6 1.75 1.4 1.5 1.5 1.45 1.9 2.0 1.95 1.95 M-2.85 -1.9 L-2.65 -1.85 -2.75 -1.65 -2.85 -1.9" fill="#7b4141" fill-rule="evenodd" stroke="none"/>
    <path d="M4.15 1.75 L4.1 1.7 4.05 1.6 4.1 1.6 4.15 1.75 M-3.3 -1.1 L-3.0 -1.25 -2.9 -1.35 -2.85 -1.35 -2.8 -1.3 -2.65 -1.3 -2.8 -1.15 -2.8 -1.15 -2.85 -1.15 -3.15 -1.1 -3.3 -1.1 M-2.9 -1.35 L-2.9 -1.35 M-3.45 -1.25 L-3.45 -1.1 -3.5 -1.1 -3.6 -1.1 -3.6 -1.15 -3.55 -1.15 -3.45 -1.25" fill="#4f5426" fill-rule="evenodd" stroke="none"/>
    <path d="M4.8 -1.95 L4.8 -1.95 5.0 -1.85 4.85 -1.85 4.8 -1.95 M3.5 -0.3 L3.55 -0.3 3.35 -0.35 3.35 -0.45 3.65 -0.4 3.75 -0.35 3.75 -0.3 3.5 -0.3 M3.35 -0.1 L3.45 -0.15 3.45 -0.15 3.75 -0.1 3.75 -0.1 3.65 -0.05 3.55 0.0 3.5 -0.15 3.55 0.0 3.55 0.0 3.35 0.05 3.35 -0.1 M4.55 2.25 L4.5 2.4 4.3 2.6 4.3 2.65 4.15 2.6 4.45 2.3 4.55 2.0 4.6 2.05 4.55 2.25 M-2.9 -1.35 L-2.95 -1.4 -2.9 -1.35 -2.9 -1.35" fill="#2b2e15" fill-rule="evenodd" stroke="none"/>
    <path d="M-3.65 -1.45 L-3.65 -1.6 -3.55 -1.5 -3.45 -1.2 -3.45 -1.1 -3.45 -1.25 -3.5 -1.3 -3.65 -1.45" fill="#5c622d" fill-rule="evenodd" stroke="none"/>
    <path d="M3.05 -0.05 L3.15 0.05 3.3 0.3 3.25 0.3 3.2 0.3 3.1 0.25 3.05 0.05 3.05 -0.05 M0.15 2.1 L0.4 2.15 0.5 2.15 0.55 2.2 0.55 2.25 0.6 2.35 0.5 2.5 0.4 2.6 0.35 2.6 0.25 2.65 0.1 2.5 0.05 2.45 -0.05 2.3 -0.05 2.3 0.0 2.25 0.05 2.15 0.15 2.1 M-3.6 -0.3 L-3.7 -0.25 -3.9 -0.2 -3.95 -0.3 -4.0 -0.35 -4.05 -0.5 -4.05 -0.65 -3.85 -0.75 -3.85 -0.75 -3.8 -0.8 -3.65 -0.8 -3.55 -0.7 -3.55 -0.7 -3.5 -0.7 -3.5 -0.7 -3.4 -0.35 -3.6 -0.3" fill="#507d42" fill-rule="evenodd" stroke="none"/>
    <path d="M-3.1 -0.45 L-3.05 -0.4 -3.05 -0.35 -3.1 -0.4 -3.1 -0.45" fill="#3f431e" fill-rule="evenodd" stroke="none"/>
    <path d="M4.7 -3.15 L4.75 -3.15 5.1 -3.25 4.95 -2.9 4.95 -2.85 4.9 -2.85 4.85 -2.8 4.7 -3.15 M3.75 -2.5 L3.8 -2.5 3.85 -2.45 3.8 -2.4 3.75 -2.5 M4.8 -2.7 L4.8 -2.7 4.75 -2.6 4.75 -2.6 4.7 -2.6 4.8 -2.7 M-3.05 -0.45 L-2.95 -0.6 -2.65 -0.75 -2.8 -0.4 -2.8 -0.4 -3.1 -0.25 -3.15 -0.15 -3.15 -0.15 -3.25 -0.25 -3.25 -0.25 -3.15 -0.3 -3.1 -0.4 -3.05 -0.35 -3.05 -0.4 -3.05 -0.45 M-3.0 1.6 L-2.9 1.4 -2.85 1.05 -2.8 1.0 -2.8 1.35 -2.7 1.5 -2.75 1.8 -2.8 1.8 -3.0 2.05 -3.05 1.7 -3.0 1.6 M-2.6 0.75 L-2.55 1.15 -2.55 1.2 -2.75 1.0 -2.8 1.0 -2.6 0.75 M-3.65 0.2 L-3.65 0.2 -3.65 0.2" fill="#727937" fill-rule="evenodd" stroke="none"/>
    <path d="M2.05 2.25 L2.05 2.1 2.05 2.2 2.05 2.25 M-3.4 0.05 L-3.6 -0.2 -3.4 -0.3 -3.4 -0.3 -3.25 -0.25 -3.25 -0.25 -3.15 -0.15 -3.15 -0.1 -3.1 0.1 -3.4 0.05 M-3.1 0.15 L-3.1 0.2 -3.2 0.25 -3.3 0.25 -3.4 0.3 -3.7 0.3 -3.8 0.2 -3.8 0.2 -3.8 0.15 -3.7 0.15 -3.65 0.1 -3.65 0.15 -3.65 0.2 -3.6 0.25 -3.4 0.3 -3.3 0.25 -3.1 0.15 M-3.65 0.2 L-3.65 0.2 M-3.8 0.15 L-3.8 0.15 M-3.2 0.25 L-3.2 0.25" fill="#4e7a40" fill-rule="evenodd" stroke="none"/>
    <path d="M0.05 2.45 L0.1 2.5 0.0 2.55 0.0 2.55 0.0 2.5 0.05 2.45 M0.25 2.65 L0.35 2.6 0.3 2.7 0.15 2.75 0.1 2.75 0.25 2.65 M-2.2 -1.0 L-2.15 -0.95 -2.25 -0.9 -2.25 -0.95 -2.2 -1.0" fill="#49723c" fill-rule="evenodd" stroke="none"/>
    <path d="M-2.3 -0.65 L-2.3 -0.65 -2.3 -0.65 -2.3 -0.65" fill="#252812" fill-rule="evenodd" stroke="none"/>
    <path d="M3.95 2.5 L3.95 2.8 3.7 3.05 3.65 3.25 3.65 3.4 3.35 3.6 3.3 3.2 3.45 3.05 3.55 2.95 3.6 2.65 3.85 2.4 3.9 2.4 3.95 2.35 3.95 2.45 3.95 2.5 M3.5 0.6 L3.45 0.6 3.4 0.6 3.15 0.55 3.05 0.45 3.55 0.55 3.5 0.6 M3.65 3.25 L3.65 3.05 3.6 3.1 3.65 3.25 M-2.35 -0.65 L-2.35 -0.85 -2.25 -0.85 -2.3 -0.8 -2.3 -0.65 -2.35 -0.65 M-2.3 -0.65 L-2.3 -0.65" fill="#444821" fill-rule="evenodd" stroke="none"/>
    <path d="M-1.85 -0.7 L-1.8 -0.65 -1.65 -0.9 -1.55 -0.9 -1.55 -0.65 -1.6 -0.5 -1.55 -0.5 -1.55 -0.45 -1.45 -0.45 -1.45 -0.4 -1.6 -0.4 -1.9 -0.5 -2.1 -0.45 -2.15 -0.5 -2.2 -0.7 -2.05 -0.75 -2.0 -0.65 -1.95 -0.7 -1.9 -0.65 -1.85 -0.7 M-2.05 -0.3 L-2.05 -0.35 -1.9 -0.3 -1.6 -0.35 -1.45 -0.3 -1.45 -0.3 -1.4 -0.3 -1.35 -0.3 -1.4 -0.25 -1.4 -0.2 -1.4 -0.15 -1.4 -0.05 -1.35 -0.1 -1.35 -0.05 -1.4 -0.05 -1.75 -0.1 -1.9 -0.2 -1.95 -0.25 -2.05 -0.3 M-1.9 -0.2 L-1.9 -0.2 M-1.35 -0.3 L-1.35 -0.3" fill="#656c31" fill-rule="evenodd" stroke="none"/>
    <path d="M-2.9 0.05 L-2.95 -0.3 -2.95 -0.35 -2.45 -0.45 -2.35 -0.45 -2.2 -0.4 -2.15 -0.35 -1.9 -0.1 -1.9 -0.05 -1.85 0.15 -1.8 0.45 -2.25 0.55 -2.35 0.55 -2.45 0.5 -2.65 0.45 -2.75 0.35 -2.9 0.2 -2.9 0.1 -2.9 0.05" fill="#b6c258" fill-rule="evenodd" stroke="none"/>
    <path d="M-0.05 -2.0 L-0.15 -2.15 0.15 -2.3 0.45 -2.5 0.75 -2.45 0.8 -2.3 0.4 -2.35 0.15 -2.1 0.05 -1.8 -0.05 -2.0 M1.6 -1.95 L1.5 -1.9 1.65 -1.65 1.6 -1.65 1.6 -1.7 1.5 -1.65 1.3 -2.0 1.4 -2.15 1.6 -1.95 M1.15 -2.2 L1.2 -2.25 1.2 -2.1 1.15 -2.2 1.15 -2.2 1.15 -2.2 M1.0 1.4 L0.85 1.45 0.85 1.4 0.85 1.35 0.8 1.15 0.8 1.05 0.85 1.25 0.85 1.4 0.95 1.35 1.0 1.4" fill="#7e4242" fill-rule="evenodd" stroke="none"/>
    <path d="M3.85 -3.75 L3.9 -4.0 3.95 -4.0 4.0 -4.05 4.15 -4.05 4.15 -3.9 4.0 -3.65 3.85 -3.75 M-0.8 -2.05 L-0.95 -2.0 -0.85 -2.2 -0.8 -2.05" fill="#484d23" fill-rule="evenodd" stroke="none"/>
    <path d="M5.6 1.25 L5.65 1.25 5.9 1.45 6.05 1.9 5.65 2.05 5.6 2.05 5.55 2.05 5.4 2.0 5.25 2.0 5.0 1.8 5.0 1.75 4.8 1.3 5.05 1.25 5.3 1.15 5.6 1.25 M-1.25 -1.9 L-1.05 -2.1 -0.75 -2.25 -0.25 -2.15 -0.25 -1.75 -0.3 -1.75 -0.35 -2.15 -0.8 -2.05 -0.85 -2.2 -0.95 -2.0 -1.05 -2.0 -1.25 -1.85 -1.25 -1.9" fill="#393d1c" fill-rule="evenodd" stroke="none"/>
    <path d="M-1.6 -0.95 L-1.6 -1.2 -1.4 -1.7 -1.3 -1.75 -1.25 -1.85 -1.05 -2.0 -0.95 -2.0 -0.8 -2.05 -0.35 -2.15 -0.3 -1.75 -0.65 -1.75 -0.9 -1.65 -1.0 -1.6 -1.05 -1.55 -1.1 -1.5 -1.35 -1.1 -1.4 -0.6 -1.45 -0.5 -1.45 -0.45 -1.55 -0.45 -1.55 -0.5 -1.55 -0.65 -1.55 -0.9 -1.6 -0.95" fill="#ba6262" fill-rule="evenodd" stroke="none"/>
    <path d="M0.0 -0.95 L0.0 -0.95 -0.35 -0.55 -0.8 -0.4 -1.15 -0.45 -1.05 -0.6 -0.65 -0.9 -0.15 -1.0 0.0 -0.95 M-0.9 -1.65 L-1.05 -1.55 -1.0 -1.6 -0.9 -1.65 M-1.55 -0.5 L-1.6 -0.5 -1.55 -0.65 -1.55 -0.5" fill="#663535" fill-rule="evenodd" stroke="none"/>
    <path d="M-1.4 -2.3 L-1.15 -2.45 -1.05 -2.35 -1.25 -1.95 -1.25 -2.15 -1.4 -2.3" fill="#232611" fill-rule="evenodd" stroke="none"/>
    <path d="M-1.95 -0.8 L-1.85 -0.7 -1.9 -0.65 -1.95 -0.7 -1.95 -0.8 M-2.3 0.8 L-2.3 0.8 -2.25 0.8 -2.25 0.8 -2.25 0.8 -2.3 0.8 -2.3 0.8" fill="#a55757" fill-rule="evenodd" stroke="none"/>
    <path d="M0.05 -1.05 L0.05 -0.95 0.05 -0.95 0.05 -1.05 M4.15 -2.0 L4.4 -1.9 4.25 -1.6 4.15 -2.0 M1.6 0.95 L1.9 1.2 1.8 1.3 1.7 1.4 1.5 1.45 1.4 1.5 1.25 1.2 1.0 1.05 1.45 0.9 1.6 0.95 M0.85 1.05 L0.95 1.05 1.1 1.35 1.35 1.5 1.3 1.55 1.2 1.55 1.15 1.6 1.05 1.6 1.0 1.4 0.95 1.35 0.85 1.05 M-0.45 1.9 L-0.45 1.9 -0.45 1.8 -0.4 1.8 -0.45 1.9 M-1.4 -0.6 L-1.45 -0.35 -1.45 -0.4 -1.45 -0.45 -1.45 -0.5 -1.4 -0.6" fill="#6b3838" fill-rule="evenodd" stroke="none"/>
    <path d="M1.65 -0.85 L1.65 -0.7 1.55 -0.35 1.45 -0.35 1.05 0.0 1.0 0.1 0.7 0.2 0.45 0.15 0.25 -0.05 0.75 0.0 1.2 -0.2 1.55 -0.55 1.55 -0.55 1.65 -0.9 1.65 -0.85 M3.3 0.3 L3.35 0.3 3.5 0.4 3.6 0.45 3.7 0.75 3.8 0.8 3.7 1.2 3.65 1.15 3.6 0.9 3.4 0.9 3.15 0.7 2.8 0.65 2.75 0.65 2.8 0.5 2.8 0.45 2.95 0.45 3.05 0.45 3.15 0.55 3.4 0.6 3.45 0.6 3.5 0.6 3.55 0.6 3.55 0.55 3.3 0.45 3.15 0.35 3.2 0.3 3.25 0.3 3.3 0.3 M3.55 0.25 L3.5 0.15 3.35 0.05 3.55 0.0 3.65 -0.05 3.7 0.0 3.7 0.05 3.75 0.1 3.6 0.0 3.55 0.0 3.55 0.0 3.55 0.0 3.55 0.0 3.55 0.25 M2.65 0.55 L2.6 0.4 2.65 0.45 2.65 0.55 M-1.4 -0.2 L-1.4 -0.25 -1.35 -0.3 -1.35 -0.2 -1.4 -0.2" fill="#4f2929" fill-rule="evenodd" stroke="none"/>
    <path d="M0.25 -1.4 L0.35 -1.2 0.2 -1.4 0.25 -1.4 M0.4 -1.1 L0.45 -1.1 0.4 -1.1 M0.45 -1.1 L0.45 -1.1 M-1.25 -0.2 L-1.35 0.0 -1.35 0.0 -1.4 -0.05 -1.35 -0.05 -1.35 -0.1 -1.25 -0.2" fill="#964f4f" fill-rule="evenodd" stroke="none"/>
    <path d="M0.8 -2.8 L0.8 -2.8 0.95 -3.0 1.0 -3.05 1.1 -3.1 1.1 -3.15 1.3 -3.25 1.35 -3.3 1.45 -3.05 1.4 -3.0 1.25 -2.75 1.2 -2.7 1.2 -2.25 1.15 -2.2 1.15 -2.2 1.1 -2.25 0.8 -2.3 0.75 -2.45 0.8 -2.8 M0.95 -3.0 L0.95 -3.0 M1.25 -2.75 L1.2 -2.75 1.25 -2.75 M-1.35 0.0 L-1.35 0.0 -1.35 0.0 -1.4 0.0 -1.35 0.05 -1.4 0.1 -1.3 0.1 -1.4 0.15 -1.35 0.2 -1.6 0.4 -1.65 0.4 -1.7 0.45 -1.65 0.35 -1.65 0.35 -1.65 0.3 -1.6 0.25 -1.5 0.1 -1.35 0.0 M1.8 2.6 L1.75 2.45 1.95 2.7 2.05 3.0 1.8 2.85 1.8 2.65 1.8 2.6" fill="#5b612c" fill-rule="evenodd" stroke="none"/>
    <path d="M-3.7 2.2 L-3.8 2.2 -3.8 2.1 -3.7 2.2 M-3.85 1.6 L-3.85 1.55 -3.65 1.15 -3.6 1.1 -3.4 0.95 -3.65 1.15 -3.85 1.6 M0.45 -1.1 L1.15 -1.1 1.35 -1.3 1.5 -1.3 1.55 -0.95 1.65 -0.9 1.55 -0.55 1.55 -0.55 1.2 -0.2 0.75 0.0 0.25 -0.05 0.45 0.15 0.65 0.4 0.5 0.55 0.45 0.55 0.4 0.6 0.3 0.65 0.2 0.75 0.15 0.8 0.1 0.85 -0.25 0.9 -0.4 0.9 -0.85 0.7 -1.1 0.5 -1.2 0.4 -1.35 0.2 -1.4 0.15 -1.3 0.1 -0.95 -0.1 -0.6 -0.15 -0.4 -0.3 -0.25 -0.3 0.1 -0.2 0.1 -0.2 0.2 -0.15 0.25 -0.1 0.25 -0.15 0.5 -0.8 0.25 -0.85 0.35 -1.0 0.45 -1.1 0.45 -1.1" fill="#733d3d" fill-rule="evenodd" stroke="none"/>
    <path d="M3.1 -3.9 L3.5 -4.25 3.45 -4.15 3.4 -3.95 3.35 -3.8 3.3 -3.65 3.1 -3.5 3.0 -3.35 2.95 -3.35 2.85 -3.35 2.85 -3.35 2.95 -3.65 3.0 -3.8 3.1 -3.9 M4.4 -0.7 L4.45 -0.75 4.65 -0.7 4.8 -0.65 5.0 -0.65 5.1 -0.65 4.9 -0.65 4.8 -0.6 4.45 -0.5 4.3 -0.55 4.15 -0.6 3.9 -0.6 3.95 -0.6 3.95 -0.65 4.05 -0.65 4.15 -0.65 4.4 -0.7" fill="#3c401d" fill-rule="evenodd" stroke="none"/>
    <path d="M2.8 -3.7 L2.9 -3.75 2.85 -3.7 2.8 -3.7 M3.45 -4.15 L3.75 -4.25 3.55 -4.0 3.4 -3.95 3.45 -4.15 M3.25 2.05 L3.35 2.05 3.6 1.8 3.7 1.6 3.7 1.55 3.85 1.5 3.85 1.55 3.75 1.65 3.75 1.8 3.65 1.85 Q3.65 1.9 3.6 1.9 L3.45 2.2 3.25 2.3 3.15 2.35 3.25 2.1 3.25 2.05" fill="#575d2a" fill-rule="evenodd" stroke="none"/>
    <path d="M3.65 -3.8 L3.7 -3.8 3.85 -3.75 4.0 -3.65 4.3 -3.55 4.35 -3.5 4.35 -3.45 4.25 -3.5 3.95 -3.45 3.5 -2.95 3.7 -2.55 3.6 -2.55 3.5 -2.65 3.5 -2.65 3.2 -3.15 3.55 -3.3 3.4 -3.3 3.25 -3.35 3.2 -3.35 3.2 -3.45 3.4 -3.7 3.65 -3.8" fill="#5d632d" fill-rule="evenodd" stroke="none"/>
    <path d="M3.95 -4.0 L4.15 -4.2 4.15 -4.05 4.4 -4.1 4.4 -3.7 4.35 -3.6 4.3 -3.55 4.0 -3.65 4.15 -3.9 4.15 -4.05 4.0 -4.05 3.95 -4.0 M-3.7 0.3 L-3.75 0.3 -4.05 0.3 -3.8 0.2 -3.8 0.2 -3.7 0.3" fill="#767e39" fill-rule="evenodd" stroke="none"/>
    <path d="M2.3 -3.75 L2.4 -3.7 2.4 -3.65 2.35 -3.65 2.3 -3.6 2.3 -3.6 2.3 -3.75 M1.2 -3.5 L1.2 -3.5 1.3 -3.35 1.3 -3.25 1.1 -3.15 1.1 -3.45 1.2 -3.5 M1.1 -3.15 L1.1 -3.15 M0.8 0.85 L0.95 1.05 1.0 1.05 1.25 1.2 1.4 1.5 1.6 1.75 1.4 1.5 1.35 1.5 1.1 1.35 0.95 1.05 0.8 0.85" fill="#8d9644" fill-rule="evenodd" stroke="none"/>
    <path d="M2.0 -4.15 L2.2 -4.25 2.3 -3.85 2.3 -3.75 2.3 -3.6 2.25 -3.6 2.1 -3.45 2.2 -3.7 2.15 -4.0 2.0 -4.15 M5.4 2.0 L5.5 2.15 5.55 2.55 5.15 2.5 4.95 2.3 4.9 2.1 4.85 1.95 4.85 2.1 4.9 2.25 4.8 2.25 4.7 2.1 4.65 2.0 4.6 1.85 4.75 1.9 4.75 1.7 4.75 1.8 4.85 1.95 4.85 1.75 4.8 1.7 5.0 1.75 5.0 1.8 5.25 2.0 5.4 2.0 M2.05 -3.35 L2.0 -3.2 1.7 -3.0 1.65 -3.1 2.05 -3.35" fill="#6d7435" fill-rule="evenodd" stroke="none"/>
    <path d="M2.4 -3.65 L2.45 -3.65 2.5 -3.7 2.75 -3.7 2.8 -3.7 2.85 -3.7 2.85 -3.7 2.95 -3.65 2.85 -3.35 2.15 -3.15 2.9 -3.05 3.05 -3.1 3.1 -3.05 3.05 -2.9 3.0 -2.95 2.55 -3.0 2.85 -2.7 2.65 -2.55 2.25 -2.55 2.15 -2.55 2.05 -2.55 2.3 -2.6 2.6 -2.7 2.0 -2.95 2.0 -3.1 1.95 -3.15 2.0 -3.2 2.05 -3.35 2.1 -3.45 2.1 -3.45 2.25 -3.6 2.3 -3.6 2.35 -3.65 2.4 -3.65 M2.75 -3.7 L2.75 -3.7 M3.0 -3.35 L3.0 -3.35 2.95 -3.35 3.0 -3.35 3.0 -3.35 M1.95 -3.15 L1.95 -3.15 M2.05 -2.55 L2.05 -2.55 M0.95 -3.0 L0.95 -3.0 0.95 -3.0" fill="#646b31" fill-rule="evenodd" stroke="none"/>
    <path d="M2.75 -3.7 L2.8 -3.7 2.75 -3.7 2.75 -3.7 M1.95 -3.15 L1.95 -3.15 1.95 -3.1 1.9 -2.95 1.7 -2.9 1.95 -3.15" fill="#9ea94d" fill-rule="evenodd" stroke="none"/>
    <path d="M2.95 -3.35 L3.0 -3.35 3.0 -3.35 3.05 -3.35 3.4 -3.3 3.55 -3.3 3.2 -3.15 3.05 -3.1 2.9 -3.05 2.15 -3.15 2.85 -3.35 2.85 -3.35 2.95 -3.35 M0.35 2.6 L0.4 2.6 0.4 2.7 0.35 2.6" fill="#61672f" fill-rule="evenodd" stroke="none"/>
    <path d="M3.0 -3.35 L3.0 -3.35 3.1 -3.5 3.2 -3.45 3.2 -3.35 3.05 -3.35 3.0 -3.35" fill="#727a37" fill-rule="evenodd" stroke="none"/>
    <path d="M2.3 -3.6 L2.25 -3.6 2.3 -3.6 2.3 -3.6 M2.0 -3.2 L1.95 -3.15 1.7 -2.9 1.9 -2.95 1.9 -2.95 1.8 -2.75 1.8 -2.75 1.7 -2.65 1.7 -2.9 1.7 -2.95 1.7 -3.0 2.0 -3.2 M1.3 -3.35 L1.5 -3.1 1.45 -3.05 1.35 -3.3 1.3 -3.25 1.3 -3.35" fill="#686f32" fill-rule="evenodd" stroke="none"/>
    <path d="M1.2 -3.95 L1.3 -4.15 1.45 -4.2 1.55 -4.25 1.75 -4.4 1.75 -4.4 1.8 -4.35 2.0 -4.15 2.15 -4.0 2.2 -3.7 2.1 -3.45 2.1 -3.45 2.05 -3.35 1.65 -3.1 1.6 -3.05 1.5 -3.1 1.3 -3.35 1.2 -3.5 1.2 -3.5 1.15 -3.75 1.15 -3.8 1.2 -3.95" fill="#78803a" fill-rule="evenodd" stroke="none"/>
    <path d="M1.95 -3.15 L2.0 -3.1 2.0 -2.95 1.95 -3.1 1.95 -3.15 M2.05 -2.55 L2.05 -2.55 2.05 -2.55 2.0 -2.95 2.05 -2.55" fill="#636930" fill-rule="evenodd" stroke="none"/>
    <path d="M2.05 -2.55 L2.15 -2.55 2.3 -2.4 2.35 -2.35 2.35 -2.3 2.2 -2.35 2.2 -2.3 2.0 -2.4 Q1.95 -2.4 1.9 -2.45 L1.9 -2.45 1.95 -2.55 1.95 -2.65 2.05 -2.55 2.05 -2.55 M1.7 -2.65 L1.8 -2.75 1.75 -2.6 1.75 -2.4 1.6 -2.4 1.6 -2.4 1.7 -2.55 1.7 -2.6 1.7 -2.65 M1.65 -2.25 L1.75 -2.2 1.7 -2.1 1.65 -2.25 M1.8 -2.15 L1.85 -2.15 1.8 -2.15 1.8 -2.15 M1.95 -2.15 L2.2 -2.25 2.2 -2.1 2.05 -2.05 2.05 -2.1 1.95 -2.15 M4.5 0.75 L4.5 0.75 M4.15 1.0 L4.0 0.75 4.2 0.95 4.15 1.0 M3.95 1.45 L3.85 1.55 3.85 1.5 3.95 1.45 M-0.25 1.8 L-0.25 1.95 0.05 2.05 0.05 2.1 -0.1 2.35 -0.35 2.65 -0.45 2.3 -0.45 2.0 -0.45 1.95 -0.45 1.9 -0.4 1.8 -0.4 1.8 -0.4 1.85 -0.45 2.0 -0.35 1.85 -0.35 1.8 -0.25 1.8" fill="#4b5024" fill-rule="evenodd" stroke="none"/>
    <path d="M2.15 -2.55 L2.25 -2.55 2.3 -2.4 2.15 -2.55" fill="#8c4a4a" fill-rule="evenodd" stroke="none"/>
    <path d="M2.0 -2.95 L2.6 -2.7 2.3 -2.6 2.05 -2.55 2.0 -2.95 1.95 -2.95 1.9 -2.95 1.9 -2.95 1.95 -3.1 2.0 -2.95 M1.25 -2.75 L1.2 -2.75 1.25 -2.75 1.65 -2.9 1.65 -2.9 1.7 -2.9 1.7 -2.65 1.7 -2.6 1.25 -2.75 M3.7 -2.35 L3.7 -2.35 3.7 -2.35" fill="#646b30" fill-rule="evenodd" stroke="none"/>
    <path d="M2.85 -2.7 L2.55 -3.0 3.0 -2.95 3.05 -2.9 2.95 -2.75 2.85 -2.7 M3.7 -2.45 L3.75 -2.35 3.7 -2.35 3.55 -2.35 3.55 -2.4 3.7 -2.45 M3.7 -2.35 L3.7 -2.35" fill="#575c2a" fill-rule="evenodd" stroke="none"/>
    <path d="M3.0 -2.65 L3.2 -2.7 3.35 -2.7 3.45 -2.65 3.5 -2.65 3.5 -2.65 3.6 -2.55 3.65 -2.5 3.65 -2.45 3.2 -2.4 2.9 -2.25 2.55 -2.05 2.5 -2.1 2.55 -2.1 2.6 -2.1 2.55 -2.15 2.7 -2.35 2.7 -2.4 2.95 -2.5 3.0 -2.65 M3.9 -2.2 L3.85 -2.2 3.75 -2.05 3.55 -2.05 3.5 -2.05 3.4 -2.15 3.5 -1.7 3.55 -1.7 3.3 -1.6 2.95 -1.65 2.8 -1.8 2.9 -1.85 2.75 -1.9 2.55 -2.05 2.95 -2.15 2.95 -2.15 3.3 -2.2 3.55 -2.35 3.7 -2.35 3.75 -2.35 3.7 -2.45 3.85 -2.25 3.9 -2.25 3.9 -2.2 M3.7 -2.45 L3.7 -2.45 M3.7 -2.35 L3.7 -2.35 M3.55 -1.7 L3.55 -1.7 M1.5 0.65 L1.6 0.95 1.45 0.9 1.3 0.85 1.25 0.8 1.3 0.8 1.5 0.65" fill="#5e642e" fill-rule="evenodd" stroke="none"/>
    <path d="M3.4 -3.3 L3.05 -3.35 3.2 -3.35 3.25 -3.35 3.4 -3.3" fill="#79813b" fill-rule="evenodd" stroke="none"/>
    <path d="M3.35 -2.7 L3.4 -2.75 3.45 -2.65 3.35 -2.7 M0.3 -1.2 L0.35 -1.0 0.25 -0.85 0.05 -0.95 0.05 -1.05 0.05 -1.15 0.3 -1.2 M3.85 -2.2 L3.9 -2.2 3.9 -2.15 3.85 -2.15 3.85 -2.2" fill="#532c2c" fill-rule="evenodd" stroke="none"/>
    <path d="M4.6 -3.3 L4.7 -3.15 4.85 -2.8 4.85 -2.8 4.45 -2.65 4.8 -2.7 4.7 -2.6 4.65 -2.55 4.55 -2.4 4.5 -2.35 4.5 -2.3 4.15 -2.25 4.05 -2.3 4.0 -2.3 3.85 -2.35 3.85 -2.35 3.8 -2.4 3.85 -2.45 3.8 -2.5 3.85 -2.5 3.75 -2.5 3.7 -2.55 3.5 -2.95 3.95 -3.45 4.25 -3.5 4.35 -3.45 4.6 -3.4 4.6 -3.3 M4.0 -2.3 L4.0 -2.3 M3.85 -0.05 L3.9 -0.05 4.0 -0.05 3.95 0.0 3.75 0.0 3.85 -0.05 M3.75 0.0 L3.75 0.0 3.75 0.0" fill="#585d2a" fill-rule="evenodd" stroke="none"/>
    <path d="M2.55 -2.05 L2.9 -2.25 3.2 -2.4 3.65 -2.45 3.65 -2.5 3.75 -2.5 3.85 -2.5 3.8 -2.5 3.75 -2.5 3.7 -2.45 3.7 -2.45 3.55 -2.4 3.55 -2.35 3.3 -2.2 2.95 -2.15 2.95 -2.15 2.55 -2.05" fill="#899142" fill-rule="evenodd" stroke="none"/>
    <path d="M3.65 -2.5 L3.6 -2.55 3.7 -2.55 3.75 -2.5 3.8 -2.4 3.85 -2.35 3.85 -2.35 3.95 -2.15 3.9 -2.15 3.9 -2.2 3.9 -2.25 3.85 -2.25 3.7 -2.45 3.75 -2.5 3.65 -2.5 M3.55 -1.7 L3.55 -1.7 3.75 -1.5 3.85 -1.15 3.9 -1.05 3.75 -0.85 3.55 -0.75 3.55 -0.9 3.6 -1.3 3.55 -1.7 M3.7 -1.85 L3.75 -2.0 4.15 -1.95 4.05 -1.25 4.05 -1.2 4.0 -1.25 3.8 -1.5 3.7 -1.85 3.7 -1.85" fill="#502a2a" fill-rule="evenodd" stroke="none"/>
    <path d="M1.75 -4.4 L1.85 -4.5 1.8 -4.35 1.75 -4.4 1.75 -4.4" fill="#80883e" fill-rule="evenodd" stroke="none"/>
    <path d="M0.85 -4.0 L0.9 -4.05 0.95 -4.0 0.85 -4.0 M1.0 -4.0 L1.2 -3.95 1.15 -3.8 1.15 -3.75 1.15 -3.75 1.1 -3.9 1.0 -4.0 M4.0 -0.05 L4.3 -0.1 4.15 0.0 4.1 -0.05 3.95 0.0 4.0 -0.05 M2.75 0.65 L2.8 0.65 3.15 0.7 3.4 0.9 3.65 1.2 3.6 1.2 3.25 1.25 3.15 1.2 2.9 1.2 2.85 1.1 2.7 1.0 2.65 1.0 2.4 0.65 2.65 0.65 2.75 0.65 M2.4 0.65 L2.35 0.65 2.4 0.65" fill="#3a3e1c" fill-rule="evenodd" stroke="none"/>
    <path d="M0.8 -4.0 L0.85 -4.0 0.95 -4.0 1.0 -4.0 1.0 -4.0 1.1 -3.9 1.15 -3.75 1.15 -3.6 0.9 -3.45 0.75 -3.45 0.6 -3.55 0.6 -3.6 0.7 -3.65 0.65 -3.65 0.7 -3.7 0.7 -3.7 0.7 -3.75 0.8 -4.0" fill="#4c773f" fill-rule="evenodd" stroke="none"/>
    <path d="M1.45 -4.2 L1.45 -4.35 1.55 -4.25 1.45 -4.2" fill="#515627" fill-rule="evenodd" stroke="none"/>
    <path d="M0.15 -2.3 L0.15 -2.35 0.05 -2.6 0.7 -2.8 0.8 -2.8 0.75 -2.45 0.45 -2.5 0.15 -2.3 M1.5 -2.25 L1.6 -2.25 1.6 -2.25 1.65 -2.25 1.7 -2.1 1.7 -2.05 1.6 -1.95 1.4 -2.15 1.5 -2.25" fill="#7d4242" fill-rule="evenodd" stroke="none"/>
    <path d="M1.5 -3.1 L1.6 -3.05 1.65 -3.1 1.7 -3.0 1.7 -2.95 1.6 -3.0 1.65 -2.9 1.65 -2.9 1.25 -2.75 1.4 -3.0 1.45 -3.05 1.5 -3.1 M1.2 -2.25 L1.2 -2.7 1.25 -2.75 1.7 -2.6 1.7 -2.55 1.6 -2.4 1.5 -2.25 1.5 -2.25 1.4 -2.15 1.3 -2.0 1.25 -1.95 1.2 -2.1 1.2 -2.25" fill="#6f7736" fill-rule="evenodd" stroke="none"/>
    <path d="M2.55 -2.15 L2.6 -2.1 2.55 -2.1 2.55 -2.15 M2.0 -2.4 L2.2 -2.3 2.25 -2.25 2.2 -2.25 2.0 -2.4 2.0 -2.4 M1.7 -2.95 L1.7 -2.9 1.65 -2.9 1.6 -3.0 1.7 -2.95" fill="#929b47" fill-rule="evenodd" stroke="none"/>
    <path d="M1.95 -2.65 L1.95 -2.55 1.9 -2.45 1.75 -2.4 1.75 -2.6 1.8 -2.75 1.95 -2.65 M1.75 -2.2 L1.8 -2.15 1.75 -2.1 1.7 -2.05 1.7 -2.1 1.75 -2.2 M1.8 -2.15 L1.8 -2.15" fill="#696f33" fill-rule="evenodd" stroke="none"/>
    <path d="M1.9 -2.45 L1.9 -2.45 Q1.95 -2.4 2.0 -2.4 L2.0 -2.4 2.2 -2.25 1.95 -2.15 1.9 -2.15 1.85 -2.15 1.8 -2.15 1.75 -2.2 1.65 -2.25 1.6 -2.25 1.6 -2.25 1.5 -2.25 1.5 -2.25 1.6 -2.4 1.6 -2.4 1.75 -2.4 1.9 -2.45 M2.2 -2.25 L2.2 -2.25" fill="#5e652e" fill-rule="evenodd" stroke="none"/>
    <path d="M1.85 -2.15 L1.9 -2.15 1.95 -2.15 2.05 -2.1 2.05 -2.05 2.15 -1.95 2.15 -1.9 2.15 -1.9 1.95 -1.95 1.55 -1.9 1.95 -1.85 2.15 -1.9 2.15 -1.85 2.2 -1.8 2.0 -1.6 2.0 -1.6 1.85 -1.55 1.8 -1.55 1.7 -1.65 1.65 -1.65 1.5 -1.9 1.6 -1.95 1.7 -2.05 1.75 -2.1 1.8 -2.15 1.85 -2.15 M2.2 -0.25 L2.2 -0.25 2.25 -0.4 2.35 -0.4 2.45 -0.4 2.5 -0.35 2.2 -0.25 2.55 -0.15 2.6 -0.15 2.75 -0.2 2.75 -0.1 2.6 0.0 2.45 0.0 2.15 -0.2 2.2 -0.25 M2.8 -0.4 L2.8 -0.35 2.7 -0.35 2.8 -0.4" fill="#4d783f" fill-rule="evenodd" stroke="none"/>
    <path d="M2.15 -1.85 L2.15 -1.9 1.95 -1.85 1.55 -1.9 1.95 -1.95 2.15 -1.9 2.15 -1.9 2.3 -1.9 2.35 -1.9 2.4 -1.85 2.35 -1.85 2.3 -1.85 2.15 -1.85 M2.75 -1.9 L2.9 -1.85 2.8 -1.8 2.6 -1.8 2.4 -1.85 2.6 -1.9 2.75 -1.9" fill="#565b29" fill-rule="evenodd" stroke="none"/>
    <path d="M1.3 -2.0 L1.5 -1.65 1.25 -1.65 0.95 -1.8 0.95 -1.8 0.95 -1.85 1.1 -2.15 1.15 -2.2 1.15 -2.2 1.1 -2.15 0.8 -1.95 0.7 -1.75 0.5 -1.75 0.65 -1.65 0.4 -1.35 0.7 -1.65 0.9 -1.5 1.05 -1.5 1.25 -1.4 1.35 -1.4 1.4 -1.4 1.4 -1.3 1.35 -1.3 1.15 -1.1 0.45 -1.1 0.4 -1.1 0.4 -1.1 0.35 -1.2 0.25 -1.4 0.2 -1.5 0.1 -1.65 0.05 -1.8 0.05 -1.8 0.15 -2.1 0.4 -2.35 0.8 -2.3 1.1 -2.25 1.15 -2.2 1.15 -2.2 1.2 -2.1 1.25 -1.95 1.3 -2.0" fill="#7c843c" fill-rule="evenodd" stroke="none"/>
    <path d="M1.5 -1.65 L1.6 -1.7 1.6 -1.65 1.75 -1.55 1.85 -1.45 1.75 -1.4 1.55 -1.35 1.5 -1.35 1.5 -1.35 1.4 -1.4 1.35 -1.4 1.2 -1.5 1.05 -1.5 0.9 -1.5 0.7 -1.65 0.7 -1.65 0.95 -1.8 0.95 -1.8 1.25 -1.65 1.5 -1.65 M0.65 -1.65 L0.5 -1.75 0.7 -1.75 0.65 -1.65 0.65 -1.65" fill="#666d32" fill-rule="evenodd" stroke="none"/>
    <path d="M0.1 -1.6 L0.1 -1.6 0.1 -1.65 0.2 -1.5 0.1 -1.55 0.1 -1.6 M1.35 -1.3 L1.4 -1.3 1.4 -1.4 1.5 -1.35 1.5 -1.35 1.5 -1.3 1.35 -1.3" fill="#6f3b3b" fill-rule="evenodd" stroke="none"/>
    <path d="M1.6 -1.65 L1.65 -1.65 1.7 -1.65 1.8 -1.55 1.75 -1.55 1.6 -1.65 M1.5 -1.3 L1.5 -1.35 1.55 -1.35 1.7 -0.8 2.05 -0.5 1.95 -0.55 1.9 -0.55 1.9 -0.55 1.75 -0.7 1.65 -0.85 1.65 -0.9 1.55 -0.95 1.5 -1.3 M2.25 -0.4 L2.15 -0.45 2.45 -0.4 2.35 -0.4 2.25 -0.4 M2.35 -1.65 L2.6 -1.55 2.6 -1.55 2.95 -1.15 2.95 -1.15 3.05 -0.75 3.05 -0.75 3.05 -0.75 2.85 -0.8 2.75 -0.85 2.5 -1.15 2.45 -1.25 2.45 -1.25 2.35 -1.65 M3.15 -0.45 L3.15 -0.4 3.1 -0.4 2.95 -0.4 3.15 -0.45" fill="#713b3b" fill-rule="evenodd" stroke="none"/>
    <path d="M1.8 -1.55 L1.85 -1.55 2.0 -1.6 2.0 -1.6 2.05 -1.25 2.35 -0.85 2.4 -0.85 2.4 -0.85 2.45 -0.8 2.45 -0.75 2.8 -0.6 2.75 -0.5 2.05 -0.85 1.75 -1.25 1.75 -1.4 1.85 -1.45 1.75 -1.55 1.8 -1.55 M2.45 -0.8 L2.45 -0.8" fill="#a35656" fill-rule="evenodd" stroke="none"/>
    <path d="M1.55 -1.35 L1.75 -1.4 1.75 -1.25 2.05 -0.85 2.75 -0.5 2.8 -0.6 2.8 -0.65 2.8 -0.65 3.25 -0.65 3.25 -0.65 3.25 -0.6 3.3 -0.55 3.3 -0.5 3.35 -0.45 3.2 -0.45 3.15 -0.45 2.95 -0.4 2.9 -0.4 2.8 -0.4 2.7 -0.35 2.55 -0.35 2.5 -0.35 2.45 -0.4 2.15 -0.45 2.1 -0.5 2.05 -0.5 1.7 -0.8 1.55 -1.35 M3.3 -0.55 L3.3 -0.55" fill="#512a2a" fill-rule="evenodd" stroke="none"/>
    <path d="M0.1 -1.6 L-0.05 -2.0 0.05 -1.8 0.05 -1.8 0.1 -1.65 0.1 -1.6" fill="#743d3d" fill-rule="evenodd" stroke="none"/>
    <path d="M0.3 -1.2 L0.1 -1.6 0.1 -1.55 0.2 -1.5 0.25 -1.4 0.2 -1.4 0.35 -1.2 0.4 -1.1 0.4 -1.1 0.45 -1.1 0.35 -1.0 0.3 -1.2" fill="#4f2a2a" fill-rule="evenodd" stroke="none"/>
    <path d="M0.05 -1.15 L0.1 -1.15 0.15 -1.2 0.3 -1.2 0.05 -1.15 0.05 -1.15" fill="#bb6262" fill-rule="evenodd" stroke="none"/>
    <path d="M0.1 -1.15 L0.1 -1.2 0.15 -1.2 0.1 -1.15" fill="#552c2c" fill-rule="evenodd" stroke="none"/>
    <path d="M1.65 -0.85 L1.75 -0.7 1.75 -0.7 1.7 -0.35 1.5 -0.25 1.3 0.05 1.2 0.4 1.0 0.55 0.6 0.55 0.5 0.55 0.65 0.4 0.45 0.15 0.7 0.2 1.0 0.1 1.2 0.05 1.5 -0.35 1.55 -0.35 1.55 -0.35 1.65 -0.7 1.65 -0.85" fill="#8e4b4b" fill-rule="evenodd" stroke="none"/>
    <path d="M1.75 -0.7 L1.9 -0.55 1.9 -0.55 1.9 -0.5 1.9 -0.4 1.75 -0.4 1.7 -0.35 1.75 -0.7 1.75 -0.7 M1.2 0.4 L1.2 0.5 1.6 0.4 1.6 0.55 1.5 0.65 1.3 0.8 1.25 0.8 0.8 0.85 0.65 0.9 0.6 0.6 0.6 0.55 1.0 0.55 1.2 0.4" fill="#874747" fill-rule="evenodd" stroke="none"/>
    <path d="M1.0 0.1 L1.05 0.0 1.45 -0.35 1.55 -0.35 1.55 -0.35 1.5 -0.35 1.2 0.05 1.0 0.1 M-1.2 2.55 L-1.0 2.55 -1.0 2.55 -0.85 2.6 -0.95 2.55 -1.2 2.55 M-0.6 2.7 L-0.5 2.7 -0.4 2.85 -0.45 2.9 -0.5 2.8 -0.65 2.7 -0.65 2.7 -0.65 2.65 -0.6 2.7 M-0.05 3.75 L-0.05 3.75 -0.1 3.75 -0.15 3.8 -0.75 3.9 -0.75 3.9 -1.2 3.7 -1.55 3.35 -1.6 3.1 -1.4 3.4 -0.95 3.65 -0.45 3.65 -0.1 3.45 -0.05 3.75 M-1.65 2.95 L-1.65 2.95 -1.65 2.9 -1.75 2.65 -1.7 2.6 -1.7 2.8 -1.65 2.95 M-0.85 2.6 L-0.85 2.6" fill="#492626" fill-rule="evenodd" stroke="none"/>
    <path d="M1.9 -0.55 L1.95 -0.55 1.9 -0.5 1.9 -0.55 M3.55 -1.7 L3.5 -1.7 3.4 -2.15 3.5 -2.05 3.7 -1.85 3.7 -1.85 3.8 -1.5 4.0 -1.25 4.05 -1.2 4.1 -1.0 4.1 -0.95 4.1 -0.9 4.05 -0.95 3.9 -1.05 3.85 -1.15 3.75 -1.5 3.55 -1.7 M4.05 -0.95 L4.05 -0.95" fill="#7f873d" fill-rule="evenodd" stroke="none"/>
    <path d="M1.95 -0.55 L2.05 -0.5 2.1 -0.5 2.0 -0.45 2.0 -0.45 1.9 -0.4 1.9 -0.5 1.95 -0.55 M2.1 -0.2 L2.15 -0.2 2.1 0.1 2.05 0.1 2.0 0.1 2.1 -0.1 2.1 -0.15 2.1 -0.2 M1.8 0.3 L1.9 0.2 1.95 0.2 2.0 0.2 2.35 0.35 2.45 0.3 2.6 0.4 2.65 0.55 2.6 0.65 2.4 0.65 2.4 0.7 2.55 0.95 2.1 1.4 2.0 1.3 1.95 1.3 1.9 1.2 1.6 0.95 1.5 0.65 1.6 0.55 1.7 0.5 1.8 0.3 M2.4 0.65 L2.35 0.65 2.4 0.65" fill="#794040" fill-rule="evenodd" stroke="none"/>
    <path d="M4.0 -2.3 L4.0 -2.3 4.0 -2.3 4.0 -2.3 M-2.9 0.9 L-2.95 0.9 -2.95 0.85 -2.9 0.9" fill="#4e5326" fill-rule="evenodd" stroke="none"/>
    <path d="M3.85 -2.35 L4.0 -2.3 4.0 -2.25 4.0 -2.2 3.95 -2.15 3.85 -2.35 M4.0 -2.3 L4.0 -2.3" fill="#8b4949" fill-rule="evenodd" stroke="none"/>
    <path d="M-1.8 2.9 L-1.9 2.85 -1.85 2.8 -1.8 2.75 -1.75 2.7 -1.75 2.65 -1.65 2.9 -1.65 2.95 -1.7 2.9 -1.75 2.9 -1.8 2.9 M3.85 -2.15 L3.9 -2.15 3.95 -2.15 4.0 -2.2 4.1 -2.2 4.15 -2.0 4.25 -1.6 4.3 -1.55 4.3 -1.55 4.15 -1.05 4.1 -1.0 4.05 -1.2 4.05 -1.25 4.15 -1.95 3.75 -2.0 3.85 -2.15 M3.9 -1.05 L4.05 -0.95 3.95 -0.85 3.85 -0.75 3.8 -0.7 3.55 -0.6 3.45 -0.55 3.5 -0.65 3.6 -0.65 3.55 -0.75 3.75 -0.85 3.9 -1.05 M2.5 -1.15 L2.75 -0.85 2.85 -0.8 2.4 -0.85 2.45 -0.95 2.5 -1.1 2.5 -1.15 M0.0 2.25 L-0.05 2.3 -0.05 2.3 -0.1 2.45 -0.2 2.7 -0.25 2.75 -0.4 2.85 -0.5 2.7 -0.6 2.7 -0.6 2.7 -0.6 2.65 -0.65 2.65 -0.65 2.55 -0.65 2.55 -0.85 2.6 -1.0 2.55 -1.0 2.55 -1.2 2.55 -1.45 2.55 -1.2 2.25 -0.7 2.3 -0.7 2.25 -0.55 2.25 -0.45 1.9 -0.45 1.95 -0.45 2.0 -0.45 2.3 -0.35 2.65 -0.1 2.35 0.05 2.1 0.05 2.15 0.0 2.25 M-0.45 2.0 L-0.5 2.1 -0.45 2.0 M-0.45 1.9 L-0.45 1.9" fill="#6e3a3a" fill-rule="evenodd" stroke="none"/>
    <path d="M3.85 -2.2 L3.85 -2.15 3.75 -2.0 3.7 -1.85 3.5 -2.05 3.55 -2.05 3.75 -2.05 3.85 -2.2 M2.75 -2.4 L2.7 -2.45 2.85 -2.55 2.75 -2.4 M3.35 -0.2 L3.45 -0.15 3.45 -0.15 3.35 -0.1 3.35 -0.2 M4.75 1.25 L4.8 1.2 4.8 1.25 4.75 1.25" fill="#5f652e" fill-rule="evenodd" stroke="none"/>
    <path d="M2.7 -2.35 L2.55 -2.15 2.55 -2.1 2.5 -2.1 2.55 -2.05 2.75 -1.9 2.6 -1.9 2.4 -1.85 2.6 -1.8 2.8 -1.8 2.95 -1.65 3.3 -1.6 3.55 -1.7 3.6 -1.3 3.55 -0.9 3.5 -0.65 3.45 -0.55 3.25 -0.65 3.05 -0.75 3.05 -0.75 2.95 -1.15 2.95 -1.15 2.6 -1.55 2.6 -1.55 2.35 -1.65 2.3 -1.7 2.35 -1.85 2.4 -1.85 2.35 -1.9 2.4 -2.0 2.5 -2.35 2.5 -2.4 2.7 -2.35 M3.25 -0.65 L3.25 -0.65 M3.45 -0.55 L3.45 -0.55" fill="#3e2020" fill-rule="evenodd" stroke="none"/>
    <path d="M2.45 -2.3 L2.5 -2.35 2.4 -2.0 2.3 -2.0 2.3 -2.1 2.45 -2.3" fill="#683737" fill-rule="evenodd" stroke="none"/>
    <path d="M2.2 -2.3 L2.2 -2.35 2.35 -2.3 2.45 -2.3 2.3 -2.1 2.3 -2.0 2.2 -1.95 2.2 -2.1 2.2 -2.25 2.2 -2.25 2.25 -2.25 2.2 -2.3" fill="#a25555" fill-rule="evenodd" stroke="none"/>
    <path d="M2.0 -1.6 L2.2 -1.8 2.15 -1.85 2.3 -1.85 2.35 -1.85 2.3 -1.7 2.35 -1.65 2.45 -1.25 2.45 -1.25 2.5 -1.15 2.5 -1.1 2.4 -1.0 2.45 -0.95 2.4 -0.85 2.85 -0.8 3.05 -0.75 3.05 -0.75 3.25 -0.65 2.8 -0.65 2.8 -0.65 2.5 -0.8 2.45 -0.8 2.4 -0.85 2.4 -0.85 2.35 -0.85 2.05 -1.25 2.0 -1.6 M2.15 -1.9 L2.15 -1.95 2.2 -1.95 2.3 -2.0 2.4 -2.0 2.35 -1.9 2.3 -1.9 2.15 -1.9 M3.55 -0.9 L3.55 -0.75 3.6 -0.65 3.5 -0.65 3.55 -0.9" fill="#4d2828" fill-rule="evenodd" stroke="none"/>
    <path d="M2.8 -0.65 L2.8 -0.6 2.45 -0.75 2.45 -0.8 2.5 -0.8 2.8 -0.65 M3.15 2.55 L3.25 2.4 3.25 2.3 3.45 2.2 3.6 1.9 Q3.65 1.9 3.65 1.85 L3.65 1.9 3.7 2.35 3.5 2.8 3.15 3.1 3.1 3.1 2.75 3.2 2.55 3.25 2.5 3.3 2.4 3.3 2.35 3.3 2.35 3.2 2.4 3.2 2.95 2.8 3.15 2.55 M3.25 2.1 L3.25 2.05 3.25 2.1 M0.75 1.05 L0.8 1.05 0.8 1.15 0.85 1.35 0.85 1.4 0.7 1.35 0.75 1.05 M-1.1 0.5 L-1.25 0.5 -1.3 0.45 -1.2 0.4 -1.1 0.5" fill="#4a2727" fill-rule="evenodd" stroke="none"/>
    <path d="M2.5 -1.1 L2.45 -0.95 2.4 -1.0 2.5 -1.1" fill="#cb6b6b" fill-rule="evenodd" stroke="none"/>
    <path d="M2.45 -0.8 L2.45 -0.8 2.5 -0.8 2.45 -0.8" fill="#844646" fill-rule="evenodd" stroke="none"/>
    <path d="M2.15 -0.2 L2.2 -0.25 2.15 -0.2 2.45 0.0 2.6 0.0 2.75 -0.1 2.75 -0.2 2.9 -0.25 2.9 -0.25 3.05 -0.05 3.05 0.05 3.1 0.25 3.2 0.3 3.15 0.35 3.0 0.25 2.3 0.1 2.65 0.25 2.95 0.45 2.8 0.45 2.75 0.5 2.65 0.45 2.6 0.4 2.45 0.3 2.1 0.1 2.15 -0.2 M2.9 -0.4 L2.8 -0.35 2.8 -0.4 2.9 -0.4 M3.1 -0.4 L3.2 -0.45 3.35 -0.45 3.3 -0.5 3.35 -0.5 3.35 -0.5 3.35 -0.45 3.35 -0.35 3.2 -0.4 3.1 -0.4 M3.35 0.05 L3.2 0.0 2.95 -0.2 3.2 -0.15 3.25 -0.15 3.3 -0.2 3.35 -0.2 3.35 -0.2 3.35 -0.1 3.35 0.05 M3.35 -0.2 L3.35 -0.2 M0.75 2.05 L0.8 2.05 0.75 2.05 0.7 2.25 0.65 2.4 0.6 2.3 0.75 2.1 0.75 2.05 M0.5 2.5 L0.5 2.55 0.6 2.65 0.55 2.7 0.4 3.0 0.5 2.7 0.5 2.5" fill="#292c14" fill-rule="evenodd" stroke="none"/>
    <path d="M4.95 -2.85 L5.1 -2.95 5.45 -3.0 5.75 -3.05 5.45 -2.9 5.3 -2.8 5.2 -2.75 4.85 -2.7 4.8 -2.7 4.45 -2.65 4.85 -2.8 4.85 -2.8 4.9 -2.85 4.95 -2.85 M2.2 -0.25 L2.15 -0.25 2.2 -0.25 2.5 -0.35 2.55 -0.35 2.7 -0.35 2.8 -0.35 2.9 -0.35 2.9 -0.35 3.1 -0.4 3.2 -0.4 3.35 -0.35 3.55 -0.3 3.5 -0.3 3.35 -0.2 3.35 -0.2 3.3 -0.2 3.25 -0.25 3.2 -0.15 2.95 -0.2 2.9 -0.25 2.9 -0.25 2.9 -0.25 2.75 -0.2 2.6 -0.15 2.55 -0.15 2.2 -0.25 M4.8 -2.7 L4.8 -2.7" fill="#505627" fill-rule="evenodd" stroke="none"/>
    <path d="M2.1 -0.1 L2.1 -0.15 2.1 -0.1" fill="#525728" fill-rule="evenodd" stroke="none"/>
    <path d="M4.3 -1.55 L4.45 -1.4 4.1 -0.95 4.1 -1.0 4.15 -1.05 4.3 -1.55 M4.05 -0.95 L4.05 -0.9 4.0 -0.85 3.95 -0.85 4.05 -0.95 4.05 -0.95" fill="#c46767" fill-rule="evenodd" stroke="none"/>
    <path d="M3.25 -0.65 L3.45 -0.55 3.4 -0.55 3.4 -0.55 3.3 -0.6 3.25 -0.6 3.25 -0.65 M3.4 -0.55 L3.4 -0.55 M0.6 0.55 L0.6 0.6 0.45 0.55 0.5 0.55 0.6 0.55" fill="#864646" fill-rule="evenodd" stroke="none"/>
    <path d="M3.3 -0.6 L3.3 -0.55 3.3 -0.6" fill="#7c4141" fill-rule="evenodd" stroke="none"/>
    <path d="M3.35 -0.5 L3.35 -0.5 3.65 -0.55 3.55 -0.5 3.75 -0.55 4.0 -0.45 4.05 -0.4 3.95 -0.35 3.9 -0.35 3.8 -0.35 3.75 -0.35 3.65 -0.4 3.35 -0.45 3.35 -0.5 M3.95 -0.35 L3.95 -0.35" fill="#60672f" fill-rule="evenodd" stroke="none"/>
    <path d="M3.75 0.55 L3.7 0.45 3.85 0.65 3.9 0.65 3.85 0.65 3.75 0.55 M3.2 -0.15 L3.25 -0.25 3.3 -0.2 3.25 -0.15 3.2 -0.15" fill="#373a1a" fill-rule="evenodd" stroke="none"/>
    <path d="M3.25 -0.6 L3.3 -0.6 3.3 -0.55 3.25 -0.6" fill="#8a9343" fill-rule="evenodd" stroke="none"/>
    <path d="M3.75 0.0 L3.75 0.0 3.75 0.0 3.95 0.0 4.1 -0.05 4.15 0.0 4.4 0.1 4.4 0.15 4.35 0.15 4.25 0.3 4.1 0.2 4.15 0.15 4.0 0.15 3.85 0.15 3.8 0.0 3.8 0.1 3.75 0.1 3.7 0.05 3.7 0.0 3.75 0.0" fill="#585e2b" fill-rule="evenodd" stroke="none"/>
    <path d="M5.65 2.05 L5.75 2.25 5.55 2.05 5.6 2.05 5.65 2.05 M3.7 0.55 L3.75 0.55 3.7 0.55 M3.55 0.0 L3.6 0.0 3.65 0.25 3.7 0.3 3.85 0.5 3.85 0.65 3.85 0.7 3.9 0.8 3.9 0.85 3.95 0.9 3.95 0.95 3.9 0.85 3.9 0.8 3.75 0.55 3.85 0.65 3.7 0.45 3.7 0.3 3.65 0.25 3.55 0.0 3.5 -0.15 3.55 0.0 3.55 0.0 M3.95 0.95 L4.0 1.15 3.95 0.95" fill="#3c3f1d" fill-rule="evenodd" stroke="none"/>
    <path d="M4.35 -3.6 L4.45 -3.6 4.75 -3.4 4.6 -3.3 4.6 -3.4 4.35 -3.45 4.35 -3.5 4.3 -3.55 4.35 -3.6" fill="#717837" fill-rule="evenodd" stroke="none"/>
    <path d="M4.8 -2.55 L4.65 -2.55 4.7 -2.6 4.75 -2.6 4.8 -2.55" fill="#60662f" fill-rule="evenodd" stroke="none"/>
    <path d="M4.65 -2.25 L4.65 -2.2 4.6 -2.25 4.65 -2.25 4.65 -2.25 M5.3 -0.6 L5.45 -0.5 5.55 -0.45 5.6 -0.45 5.65 -0.25 5.5 -0.4 5.15 -0.45 4.85 -0.35 4.75 -0.15 4.55 -0.25 4.5 -0.25 4.5 -0.3 4.75 -0.55 4.9 -0.65 5.1 -0.65 5.0 -0.65 5.05 -0.7 5.3 -0.6 M5.0 -0.65 L5.0 -0.65" fill="#6a7133" fill-rule="evenodd" stroke="none"/>
    <path d="M4.55 -2.4 L4.75 -2.4 4.6 -2.3 4.6 -2.3 4.55 -2.35 4.5 -2.35 4.55 -2.4" fill="#838b3f" fill-rule="evenodd" stroke="none"/>
    <path d="M4.95 -1.45 L5.25 -1.15 5.3 -0.6 5.05 -0.7 5.0 -0.65 5.0 -1.05 4.9 -1.1 4.95 -1.45 M4.3 0.3 L4.5 0.35 4.8 0.55 4.85 0.75 4.8 0.8 4.5 0.75 4.85 1.0 4.8 1.1 4.8 1.2 4.75 1.25 4.7 1.35 4.7 1.4 4.65 1.4 4.65 1.35 4.5 0.75 4.5 0.7 4.4 1.05 4.35 1.05 4.3 0.7 4.2 0.4 4.05 0.3 4.15 0.3 4.2 0.3 4.3 0.3 M4.5 0.75 L4.5 0.75" fill="#35391a" fill-rule="evenodd" stroke="none"/>
    <path d="M5.45 -0.5 L5.55 -0.55 5.85 -0.65 5.6 -0.5 5.55 -0.45 5.45 -0.5" fill="#5c622c" fill-rule="evenodd" stroke="none"/>
    <path d="M5.5 1.15 L5.6 1.25 5.3 1.15 5.05 1.25 4.85 1.0 4.5 0.75 4.8 0.8 5.25 0.9 5.3 0.95 5.5 1.15" fill="#444921" fill-rule="evenodd" stroke="none"/>
    <path d="M4.8 0.55 L4.85 0.6 4.9 0.75 4.85 0.75 4.8 0.55 M4.3 0.3 L4.2 0.3 4.15 0.25 4.1 0.25 4.1 0.2 4.25 0.3 4.3 0.3 M0.85 3.1 L0.85 3.2 0.8 3.55 0.8 3.65 0.75 3.7 0.75 3.55 0.65 3.2 0.7 2.9 0.75 2.9 0.75 2.85 0.75 2.9 0.8 2.95 0.85 3.1" fill="#343719" fill-rule="evenodd" stroke="none"/>
    <path d="M4.3 1.25 L4.15 1.1 4.15 1.05 4.15 1.0 4.2 0.95 4.3 1.05 4.3 1.1 4.35 1.25 4.4 1.25 4.55 1.35 4.6 1.55 4.65 1.6 4.75 1.9 4.6 1.75 4.55 1.7 4.55 1.65 4.45 1.4 4.4 1.35 4.4 1.3 4.3 1.25" fill="#3f431f" fill-rule="evenodd" stroke="none"/>
    <path d="M4.35 1.05 L4.4 1.05 4.55 1.2 4.65 1.35 4.65 1.4 4.7 1.4 4.7 1.45 4.75 1.55 4.75 1.6 4.75 1.65 4.75 1.7 4.75 1.9 4.65 1.6 4.6 1.55 4.55 1.35 4.4 1.25 4.35 1.25 4.3 1.1 4.35 1.1 4.35 1.05 M3.95 0.95 L4.1 1.05 4.15 1.05 4.15 1.1 4.3 1.25 4.25 1.25 4.0 1.45 4.0 1.5 3.95 1.4 3.95 1.35 3.9 1.2 3.9 1.15 3.85 0.9 3.9 0.9 3.95 0.95 4.0 1.15 3.95 0.95 M4.45 1.8 L4.6 1.75 4.75 1.9 4.6 1.85 4.5 1.85 4.4 1.8 4.45 1.8" fill="#3d411e" fill-rule="evenodd" stroke="none"/>
    <path d="M4.8 1.2 L4.8 1.1 4.8 1.25 4.8 1.2 M4.6 1.75 L4.45 1.8 4.55 1.7 4.6 1.75" fill="#2f3216" fill-rule="evenodd" stroke="none"/>
    <path d="M4.7 1.4 L4.7 1.35 4.75 1.45 4.75 1.6 4.8 1.65 4.8 1.7 4.85 1.75 4.85 1.95 4.75 1.8 4.75 1.7 4.75 1.65 4.75 1.6 4.75 1.55 4.7 1.45 4.7 1.4 M4.85 1.95 L4.9 2.1 4.95 2.3 4.95 2.4 4.9 2.25 4.85 2.1 4.85 1.95" fill="#2f3317" fill-rule="evenodd" stroke="none"/>
    <path d="M4.75 1.65 L4.75 1.6 4.85 1.6 4.8 1.65 4.75 1.6 4.75 1.65 M2.05 2.25 L2.05 2.2 2.05 2.5 2.1 2.75 2.05 2.6 2.0 2.3 2.05 2.25" fill="#757d39" fill-rule="evenodd" stroke="none"/>
    <path d="M4.0 1.5 L4.0 1.45 4.25 1.25 4.3 1.25 4.4 1.3 4.4 1.35 4.45 1.4 4.55 1.65 4.55 1.7 4.45 1.8 4.4 1.8 4.3 1.85 4.3 1.7 4.15 1.8 4.15 1.75 4.1 1.6 4.05 1.6 4.0 1.5" fill="#4b753e" fill-rule="evenodd" stroke="none"/>
    <path d="M3.95 1.4 L4.0 1.5 4.05 1.6 4.1 1.7 4.15 1.75 4.15 1.8 4.25 1.85 4.3 1.85 4.4 1.8 4.5 1.85 4.55 1.95 4.55 2.0 4.45 2.3 4.15 2.6 3.95 2.45 3.95 2.35 3.9 2.4 3.85 2.4 3.8 2.3 3.7 2.0 3.7 1.9 3.75 1.8 3.75 1.65 3.85 1.55 3.95 1.45 3.95 1.4" fill="#414620" fill-rule="evenodd" stroke="none"/>
    <path d="M4.55 2.25 L4.6 2.05 4.55 2.0 4.65 2.0 4.7 2.1 4.8 2.25 4.65 2.25 4.55 2.25" fill="#525727" fill-rule="evenodd" stroke="none"/>
    <path d="M-0.7 5.15 L-0.85 5.8 -1.1 6.0 -1.45 6.05 -1.95 5.6 -1.9 4.95 -1.6 4.75 -1.3 4.7 -0.8 5.0 -0.8 5.05 -1.1 5.2 -1.2 5.55 -0.9 5.4 -0.7 5.15" fill="#545928" fill-rule="evenodd" stroke="none"/>
    <path d="M5.15 2.5 L5.25 2.85 5.0 3.15 4.7 3.5 4.2 3.5 3.9 3.55 3.7 3.3 3.7 3.25 3.65 3.25 3.7 3.05 3.95 2.8 3.95 2.5 3.95 2.45 4.15 2.6 4.3 2.65 4.3 2.6 4.3 2.65 4.45 2.95 4.6 2.65 4.65 2.3 4.65 2.25 4.8 2.25 4.9 2.25 4.95 2.4 4.95 2.3 5.15 2.5" fill="#3d411d" fill-rule="evenodd" stroke="none"/>
    <path d="M3.5 0.4 L3.6 0.45 3.5 0.4" fill="#4b753d" fill-rule="evenodd" stroke="none"/>
    <path d="M3.9 0.9 L3.85 0.9 3.9 1.15 3.9 1.35 3.95 1.35 3.95 1.4 3.95 1.45 3.85 1.5 3.75 1.5 3.65 1.15 3.7 1.2 3.8 0.8 3.9 0.9" fill="#a05454" fill-rule="evenodd" stroke="none"/>
    <path d="M3.4 0.9 L3.6 0.9 3.65 1.15 3.75 1.5 3.7 1.55 3.7 1.6 3.6 1.8 3.35 2.05 3.25 2.05 2.8 2.0 2.6 1.5 2.65 1.4 2.65 1.35 2.7 1.35 2.75 1.2 2.85 1.1 2.9 1.2 3.15 1.2 3.3 1.4 3.6 1.6 3.6 1.2 3.65 1.2 3.4 0.9" fill="#222410" fill-rule="evenodd" stroke="none"/>
    <path d="M1.75 0.15 L1.6 0.1 1.8 0.1 1.75 0.15 M1.95 0.2 L2.0 0.1 2.05 0.1 2.1 0.1 2.45 0.3 2.35 0.35 2.0 0.2 1.95 0.2" fill="#2b2d14" fill-rule="evenodd" stroke="none"/>
    <path d="M2.85 1.1 L2.75 1.2 2.7 1.35 2.55 1.35 2.6 1.35 2.65 1.35 2.65 1.4 2.6 1.45 2.35 1.6 2.25 1.75 2.15 1.4 2.25 1.5 2.35 1.4 2.55 1.35 2.4 1.3 2.7 1.0 2.85 1.1" fill="#884747" fill-rule="evenodd" stroke="none"/>
    <path d="M2.7 1.35 L2.65 1.35 2.6 1.35 2.55 1.35 2.7 1.35 M2.35 1.4 L2.4 1.3 2.55 1.35 2.35 1.4 M1.95 1.3 L2.0 1.3 1.95 1.3 1.9 1.3 1.95 1.3 M1.9 1.3 L1.8 1.3 1.9 1.3" fill="#939d47" fill-rule="evenodd" stroke="none"/>
    <path d="M2.1 1.4 L2.15 1.4 2.25 1.75 2.15 1.85 2.1 1.8 2.0 1.7 1.9 1.3 1.9 1.2 1.95 1.3 2.0 1.3 2.1 1.4 M1.9 1.3 L1.95 1.3 1.9 1.3" fill="#733c3c" fill-rule="evenodd" stroke="none"/>
    <path d="M2.1 1.8 L2.15 1.85 2.05 2.0 2.05 2.1 2.05 2.05 1.95 1.95 1.9 1.85 2.1 1.8" fill="#9da74c" fill-rule="evenodd" stroke="none"/>
    <path d="M-1.75 2.7 L-2.1 2.35 -2.25 2.2 -2.35 2.0 -2.35 1.9 -2.4 1.75 -2.4 1.6 -2.3 1.25 -2.05 0.9 -1.9 0.75 -1.85 0.65 -1.85 0.6 -1.8 0.65 -1.8 0.7 -1.7 0.8 -1.75 1.3 -1.6 1.75 -1.3 2.05 -1.25 2.05 -1.3 2.2 -1.35 2.2 -1.65 2.55 -1.7 2.6 -1.75 2.65 -1.75 2.7 M2.6 1.45 L2.35 1.65 2.15 2.15 2.2 2.8 2.2 2.85 2.2 2.9 2.25 2.9 2.95 2.7 3.15 2.55 2.95 2.8 2.4 3.2 2.35 3.2 2.3 3.25 2.3 3.2 2.25 3.1 2.25 3.05 2.2 2.9 2.1 2.75 2.05 2.5 2.05 2.2 2.05 2.1 2.05 2.0 2.15 1.85 2.25 1.75 2.35 1.6 2.6 1.45" fill="#5f3232" fill-rule="evenodd" stroke="none"/>
    <path d="M2.05 2.05 L2.05 2.1 2.0 2.1 2.05 2.05" fill="#707836" fill-rule="evenodd" stroke="none"/>
    <path d="M2.15 3.3 L2.05 3.25 2.15 3.3 M2.05 2.1 L2.0 2.1 2.05 2.1" fill="#747c38" fill-rule="evenodd" stroke="none"/>
    <path d="M3.7 1.6 L3.7 1.55 3.75 1.5 3.85 1.5 3.7 1.55 3.7 1.6" fill="#7b4040" fill-rule="evenodd" stroke="none"/>
    <path d="M3.75 1.8 L3.7 1.9 3.65 1.9 3.65 1.85 3.75 1.8 M2.25 3.05 L2.25 3.1 2.25 3.05" fill="#804343" fill-rule="evenodd" stroke="none"/>
    <path d="M3.7 1.9 L3.7 2.0 3.8 2.3 3.85 2.4 3.6 2.65 3.55 2.95 3.45 3.05 3.05 3.2 2.75 3.2 3.1 3.1 3.15 3.1 3.5 2.8 3.7 2.35 3.65 1.9 3.7 1.9" fill="#442424" fill-rule="evenodd" stroke="none"/>
    <path d="M1.35 0.3 L1.35 0.35 1.3 0.35 1.35 0.3" fill="#6e7535" fill-rule="evenodd" stroke="none"/>
    <path d="M3.65 3.75 L3.55 4.05 2.9 3.8 2.55 3.45 2.55 3.35 2.8 3.55 3.3 3.7 3.4 3.7 3.45 3.7 3.65 3.75 M2.1 1.8 L1.9 1.85 1.95 1.95 1.9 2.0 1.5 1.45 1.7 1.4 1.8 1.3 1.9 1.2 1.9 1.3 1.8 1.3 1.9 1.3 2.0 1.7 2.1 1.8" fill="#8d4a4a" fill-rule="evenodd" stroke="none"/>
    <path d="M0.35 0.7 L0.35 0.8 0.3 0.8 0.2 0.75 0.3 0.65 0.35 0.65 0.35 0.7" fill="#96a049" fill-rule="evenodd" stroke="none"/>
    <path d="M0.4 0.6 L0.35 0.65 0.3 0.65 0.4 0.6" fill="#954f4f" fill-rule="evenodd" stroke="none"/>
    <path d="M0.35 0.65 L0.35 0.7 0.35 0.65 M0.35 0.8 L0.35 0.95 0.3 0.95 0.2 0.75 0.3 0.8 0.35 0.8 M-0.25 0.9 L0.1 0.85 0.15 0.8 0.25 1.0 0.05 1.15 0.05 1.0 0.1 0.9 0.05 1.0 0.05 0.85 -0.2 0.95 -0.25 0.9 M1.25 1.7 L1.15 1.6 1.2 1.55 1.25 1.6 1.4 1.7 1.6 1.95 1.75 2.1 1.3 1.8 1.25 1.7" fill="#7e863d" fill-rule="evenodd" stroke="none"/>
    <path d="M0.15 0.8 L0.2 0.75 0.3 0.95 0.35 1.1 0.45 1.2 0.5 1.35 0.65 1.5 0.75 1.8 0.55 1.55 0.5 1.35 0.4 1.25 0.35 1.1 0.25 1.0 0.15 0.8" fill="#97a149" fill-rule="evenodd" stroke="none"/>
    <path d="M0.05 1.15 L-0.05 1.25 0.05 1.0 0.05 1.15 M-0.05 1.25 L-0.05 1.25 M0.05 1.0 L-0.05 1.2 -0.05 1.1 -0.2 0.95 0.05 0.85 0.05 1.0" fill="#464b22" fill-rule="evenodd" stroke="none"/>
    <path d="M0.05 1.0 L-0.05 1.25 -0.05 1.2 0.05 1.0 0.1 0.9 0.05 1.0 M-0.45 2.0 L-0.5 2.1 -0.45 2.0 -0.4 1.85 -0.4 1.8 -0.35 1.8 -0.35 1.85 -0.45 2.0" fill="#868f41" fill-rule="evenodd" stroke="none"/>
    <path d="M0.8 1.05 L0.85 1.05 0.95 1.35 0.9 1.3 0.85 1.25 0.8 1.05" fill="#8a4949" fill-rule="evenodd" stroke="none"/>
    <path d="M0.8 1.15 L0.85 1.35 0.8 1.15" fill="#949e48" fill-rule="evenodd" stroke="none"/>
    <path d="M0.05 2.05 L0.15 2.1 0.05 2.15 0.0 2.25 0.05 2.15 0.05 2.1 0.05 2.05 M-0.05 2.3 L0.05 2.45 0.0 2.5 -0.1 2.45 -0.05 2.3" fill="#582e2e" fill-rule="evenodd" stroke="none"/>
    <path d="M0.5 2.15 L0.5 2.1 0.55 2.15 0.55 2.2 0.5 2.15" fill="#393d1b" fill-rule="evenodd" stroke="none"/>
    <path d="M1.95 2.45 L1.95 2.7 2.05 3.0 1.95 2.7 1.75 2.45 1.75 2.1 1.65 1.7 1.8 2.1 1.95 2.35 1.95 2.45" fill="#8f9845" fill-rule="evenodd" stroke="none"/>
    <path d="M1.8 3.8 L1.85 3.95 1.75 3.85 1.65 3.7 1.6 3.6 1.4 3.45 1.3 3.25 1.2 3.2 1.1 3.05 1.25 3.15 1.3 3.25 1.5 3.4 1.6 3.6 1.65 3.65 1.8 3.8" fill="#212310" fill-rule="evenodd" stroke="none"/>
    <path d="M0.4 2.6 L0.5 2.5 0.5 2.7 0.4 3.0 0.55 2.7 0.6 2.65 0.7 2.8 0.75 2.85 0.75 2.9 0.7 2.9 0.5 3.15 0.45 2.95 0.4 3.05 0.2 3.0 0.15 2.85 0.15 2.75 0.3 2.7 0.35 2.6 0.4 2.7 0.4 2.6" fill="#7c833c" fill-rule="evenodd" stroke="none"/>
    <path d="M0.9 3.05 L0.85 3.1 0.8 2.95 0.9 3.05 M0.2 3.0 L0.4 3.05 0.2 3.3 0.15 3.3 0.1 3.3 0.1 3.25 0.3 3.15 0.2 3.0" fill="#333719" fill-rule="evenodd" stroke="none"/>
    <path d="M0.1 2.5 L0.25 2.65 0.1 2.75 0.0 2.55 0.0 2.55 0.1 2.5" fill="#2c2f15" fill-rule="evenodd" stroke="none"/>
    <path d="M-0.2 2.7 L-0.1 2.45 0.0 2.5 0.0 2.55 0.1 2.75 0.15 2.85 0.2 3.0 0.3 3.15 0.1 3.25 -0.2 2.7" fill="#864747" fill-rule="evenodd" stroke="none"/>
    <path d="M1.1 3.9 L1.7 4.1 1.9 4.4 1.9 4.75 Q1.6 5.0 1.35 5.2 L0.65 5.1 0.45 4.8 0.45 4.45 0.7 4.25 0.65 4.35 0.7 4.2 1.0 3.9 1.05 3.9 1.1 3.9 M0.55 4.1 L0.45 4.25 0.15 4.4 -0.1 4.25 0.1 4.1 0.15 4.3 0.4 4.05 0.45 4.15 0.55 4.1 M-0.2 4.2 L-0.5 4.05 -0.45 4.0 -0.35 3.9 -0.15 3.9 -0.15 3.8 -0.1 3.75 -0.15 3.9 -0.2 3.95 -0.2 4.2 M0.0 3.4 L-0.05 3.7 -0.05 3.75 -0.1 3.45 0.0 3.4" fill="#323618" fill-rule="evenodd" stroke="none"/>
    <path d="M3.4 3.7 L3.3 3.7 2.8 3.55 2.55 3.35 2.5 3.3 2.55 3.25 2.7 3.4 3.15 3.6 3.65 3.55 3.8 3.45 3.85 3.55 3.8 3.6 3.7 3.65 3.4 3.7" fill="#301919" fill-rule="evenodd" stroke="none"/>
    <path d="M3.65 3.7 L3.65 3.75 3.45 3.7 3.4 3.7 3.7 3.65 3.65 3.7" fill="#643535" fill-rule="evenodd" stroke="none"/>
    <path d="M-2.55 2.45 L-2.65 2.55 -3.15 2.6 -3.25 2.55 -2.95 2.35 -2.9 2.4 -2.55 2.45 M-3.55 2.45 L-3.8 2.4 -3.7 2.2 -3.55 2.45 M3.7 3.25 L3.7 3.3 3.7 3.4 3.8 3.45 3.65 3.55 3.15 3.6 2.7 3.4 2.55 3.25 2.75 3.2 3.05 3.2 3.45 3.05 3.3 3.2 3.35 3.6 3.65 3.4 3.65 3.25 3.7 3.25 M2.2 2.8 L2.2 2.85 2.2 2.8 M-1.65 0.35 L-1.65 0.35 -1.7 0.45 -1.65 0.4 -1.6 0.55 -1.65 0.55 -1.7 0.7 -1.75 0.6 -1.8 0.65 -1.85 0.6 -1.85 0.65 -1.9 0.65 -1.9 0.75 -2.05 0.9 -2.05 0.85 -2.25 0.8 -2.25 0.8 -2.3 0.8 -2.3 0.8 -2.35 0.75 -2.35 0.75 -2.4 0.75 -2.55 0.7 -2.55 0.75 -2.6 0.75 -2.6 0.7 -2.6 0.7 -2.7 0.65 -2.65 0.55 -2.65 0.5 -2.65 0.45 -2.45 0.5 -2.25 0.6 -2.25 0.55 -1.8 0.45 -1.85 0.15 -1.7 0.2 -1.65 0.15 -1.65 0.35 M-2.3 0.8 L-2.3 0.8 M-2.25 0.8 L-2.25 0.8" fill="#351c1c" fill-rule="evenodd" stroke="none"/>
    <path d="M2.25 2.9 L2.2 2.7 2.95 2.65 2.95 2.7 2.25 2.9" fill="#422323" fill-rule="evenodd" stroke="none"/>
    <path d="M2.35 3.3 L2.35 3.2 2.35 3.3" fill="#4b2727" fill-rule="evenodd" stroke="none"/>
    <path d="M-0.05 1.25 L0.0 1.75 -0.25 1.8 -0.35 1.8 -0.4 1.8 -0.45 1.8 -0.4 1.6 -0.55 1.15 -0.55 1.1 -0.95 0.8 -1.15 0.7 -1.6 0.55 -1.6 0.45 -1.25 0.5 -1.1 0.5 -0.85 0.7 -0.4 0.9 -0.25 0.9 -0.2 0.95 -0.05 1.1 -0.05 1.2 -0.05 1.25 -0.05 1.25 M-0.4 1.8 L-0.4 1.8 M-1.5 1.05 L-1.35 1.2 -1.25 1.45 -1.45 1.25 -1.5 1.05" fill="#d16e6e" fill-rule="evenodd" stroke="none"/>
    <path d="M-1.35 0.0 L-1.35 0.05 -1.4 0.0 -1.35 0.0 M-1.15 0.7 L-0.95 0.8 -0.55 1.1 -0.55 1.15 -0.75 1.1 -1.15 0.75 -1.15 0.7" fill="#a75858" fill-rule="evenodd" stroke="none"/>
    <path d="M-0.45 1.9 L-0.55 2.25 -0.7 2.25 -0.6 1.65 -0.8 1.2 -1.15 0.85 -1.65 0.75 -1.7 0.7 -1.65 0.55 -1.6 0.55 -1.6 0.55 -1.15 0.7 -1.15 0.75 -0.75 1.1 -0.55 1.15 -0.4 1.6 -0.45 1.8 -0.45 1.9 M-1.7 0.8 L-1.5 1.05 -1.45 1.25 -1.25 1.45 -1.2 1.7 -1.25 2.05 -1.3 2.05 -1.6 1.75 -1.75 1.3 -1.7 0.8" fill="#5b3030" fill-rule="evenodd" stroke="none"/>
    <path d="M-1.2 2.25 L-1.45 2.55 -1.5 2.65 -1.65 2.55 -1.35 2.2 -1.2 2.25 M-1.8 0.65 L-1.75 0.6 -1.7 0.7 -1.65 0.75 -1.8 0.7 -1.8 0.65" fill="#783f3f" fill-rule="evenodd" stroke="none"/>
    <path d="M-0.7 2.25 L-0.7 2.3 -1.2 2.25 -1.35 2.2 -1.3 2.2 -1.25 2.05 -1.2 1.7 -1.25 1.45 -1.35 1.2 -1.5 1.05 -1.7 0.8 -1.8 0.7 -1.65 0.75 -1.15 0.85 -0.8 1.2 -0.6 1.65 -0.7 2.25 M-1.9 0.75 L-1.9 0.65 -1.85 0.65 -1.9 0.75" fill="#ab5a5a" fill-rule="evenodd" stroke="none"/>
    <path d="M-2.25 0.55 L-2.25 0.6 -2.45 0.5 -2.35 0.55 -2.25 0.55" fill="#5a5f2b" fill-rule="evenodd" stroke="none"/>
    <path d="M-2.65 0.5 L-2.65 0.55 -3.1 0.15 -2.9 0.1 -2.9 0.2 -2.75 0.35 -2.65 0.5" fill="#828b3f" fill-rule="evenodd" stroke="none"/>
    <path d="M-3.45 0.05 L-3.45 0.0 -3.4 0.05 -3.1 0.1 -3.05 0.15 -2.9 0.05 -2.9 0.1 -3.1 0.15 -3.1 0.15 -3.3 0.25 -3.4 0.3 -3.6 0.25 -3.65 0.2 -3.65 0.15 -3.65 0.1 -3.45 0.05 M-3.65 0.2 L-3.65 0.2" fill="#a6b151" fill-rule="evenodd" stroke="none"/>
    <path d="M-2.6 0.7 L-2.6 0.75 -3.0 0.8 -3.0 0.6 -2.95 0.65 -2.6 0.7 M-2.3 0.8 L-2.3 0.8 -2.35 0.8 -2.3 0.8 -2.3 0.8 M-2.25 0.8 L-2.25 0.8 -2.25 0.8 -2.25 0.8" fill="#b66060" fill-rule="evenodd" stroke="none"/>
    <path d="M-2.95 0.65 L-3.0 0.6 -3.0 0.6 -2.95 0.65" fill="#9c5252" fill-rule="evenodd" stroke="none"/>
    <path d="M-2.95 0.85 L-2.95 0.9 -2.9 0.9 -2.8 1.0 -2.8 1.0 -2.85 1.05 -2.9 1.4 -3.0 1.6 -3.05 1.55 -3.3 0.9 -3.2 0.8 -3.15 0.7 -3.05 0.8 -2.95 0.85 M-2.7 1.5 L-2.55 1.8 -2.35 2.0 -2.65 1.9 -2.7 1.9 -2.8 1.8 -2.75 1.8 -2.7 1.5 M-2.35 2.0 L-2.35 2.0" fill="#aa5a5a" fill-rule="evenodd" stroke="none"/>
    <path d="M-2.55 1.2 L-2.4 1.6 -2.4 1.75 -2.35 1.9 -2.35 2.0 -2.55 1.8 -2.7 1.5 -2.8 1.35 -2.8 1.0 -2.75 1.0 -2.75 1.1 -2.55 1.2 -2.55 1.2" fill="#773f3f" fill-rule="evenodd" stroke="none"/>
    <path d="M-2.55 1.2 L-2.55 1.2 -2.55 1.2 -2.75 1.1 -2.75 1.0 -2.55 1.2" fill="#666d31" fill-rule="evenodd" stroke="none"/>
    <path d="M-2.4 0.75 L-2.35 0.75 -2.35 0.75 -2.3 0.8 -2.35 0.8 -2.4 0.75" fill="#904c4c" fill-rule="evenodd" stroke="none"/>
    <path d="M-3.9 0.9 L-3.9 0.8 -3.8 0.7 -3.75 0.7 -3.9 0.9" fill="#3f441f" fill-rule="evenodd" stroke="none"/>
    <path d="M-3.25 2.55 L-3.4 2.65 -3.55 2.45 -3.7 2.2 -3.8 2.1 -3.85 1.6 -3.85 1.6 -3.65 1.15 -3.4 0.95 -3.3 0.85 -3.3 0.9 -3.3 1.15 -3.35 1.55 -3.25 2.0 -2.95 2.35 -3.25 2.55" fill="#6f3a3a" fill-rule="evenodd" stroke="none"/>
    <path d="M-2.1 2.35 L-2.15 2.5 -2.2 2.5 -2.25 2.5 -2.6 2.45 -2.8 2.4 -3.2 2.05 -3.35 1.55 -3.3 1.15 -3.3 0.9 -3.05 1.55 -3.0 1.6 -3.05 1.7 -3.0 2.05 -2.8 1.8 -2.7 1.9 -2.65 1.9 -2.35 2.0 -2.35 2.0 -2.25 2.2 -2.1 2.35 M-3.25 0.8 L-3.3 0.8 -3.3 0.8 -3.25 0.8 M-3.3 0.9 L-3.3 0.9" fill="#9e5353" fill-rule="evenodd" stroke="none"/>
    <path d="M-2.2 2.5 L-2.2 2.55 -2.25 2.55 -2.25 2.5 -2.2 2.5 M-2.5 2.5 L-2.55 2.45 -2.9 2.4 -2.95 2.35 -3.25 2.0 -3.35 1.55 -3.3 1.15 -3.35 1.55 -3.2 2.05 -2.8 2.4 -2.6 2.45 -2.5 2.5" fill="#7e4343" fill-rule="evenodd" stroke="none"/>
    <path d="M-2.55 1.8 L-2.35 2.0 -2.55 1.8 M-2.35 2.0 L-2.35 2.0" fill="#995151" fill-rule="evenodd" stroke="none"/>
    <path d="M-2.25 2.55 L-2.3 2.6 -2.5 2.5 -2.6 2.45 -2.25 2.5 -2.25 2.55" fill="#924d4d" fill-rule="evenodd" stroke="none"/>
    <path d="M-1.6 3.1 L-1.6 3.1 -1.6 3.1 -1.55 3.35 -1.2 3.7 -0.75 3.9 -0.75 3.9 -0.15 3.8 -0.15 3.9 -0.35 3.9 -0.45 3.9 -0.85 3.95 -1.3 3.7 -1.55 3.35 -1.6 3.3 -1.6 3.1 M-1.45 2.55 L-1.2 2.55 -0.95 2.55 -0.85 2.6 -0.65 2.7 -0.65 2.7 -0.5 2.8 -0.45 2.9 -0.65 3.05 -0.65 3.05 -0.55 2.85 -1.3 2.7 -1.7 2.8 -1.7 2.6 -1.65 2.55 -1.5 2.65 -1.45 2.55" fill="#5e3232" fill-rule="evenodd" stroke="none"/>
    <path d="M-0.65 2.55 L-0.65 2.65 -0.65 2.55" fill="#452424" fill-rule="evenodd" stroke="none"/>
    <path d="M-0.85 2.6 L-0.65 2.55 -0.65 2.55 -0.65 2.65 -0.65 2.65 -0.65 2.7 -0.85 2.6 -0.85 2.6" fill="#6d3a3a" fill-rule="evenodd" stroke="none"/>
    <path d="M-0.95 4.1 L-1.1 4.2 -1.75 4.35 -1.85 4.05 -1.85 3.95 -1.9 3.65 -1.75 3.2 -1.6 3.1 -1.6 3.3 -1.55 3.35 -1.5 3.55 -1.2 3.95 -0.9 4.05 -0.95 4.1 M-0.65 2.65 L-0.6 2.65 -0.6 2.7 -0.6 2.7 -0.65 2.65 -0.65 2.65" fill="#361c1c" fill-rule="evenodd" stroke="none"/>
    <path d="M-0.65 3.05 L-1.15 3.1 -1.65 2.95 -1.7 2.8 -1.3 2.7 -0.55 2.85 -0.65 3.05" fill="#562d2d" fill-rule="evenodd" stroke="none"/>
    <path d="M-0.5 4.05 L-0.55 4.2 -0.75 4.1 -0.9 4.05 -1.2 3.95 -1.5 3.55 -1.55 3.35 -1.3 3.7 -0.85 3.95 -0.45 3.9 -0.45 4.0 -0.5 4.05" fill="#321a1a" fill-rule="evenodd" stroke="none"/>
    <path d="M-1.85 4.05 L-1.9 4.05 -2.15 3.95 -1.9 3.95 -1.85 3.95 -1.85 4.05" fill="#363a1a" fill-rule="evenodd" stroke="none"/>
    <path d="M-0.1 4.3 L0.0 4.35 -0.1 4.65 -0.25 4.8 -0.3 4.75 -0.2 4.6 -0.5 4.7 -0.65 4.6 -0.55 4.3 -0.45 4.15 -0.25 4.2 -0.2 4.25 -0.15 4.3 -0.1 4.3 M-0.3 4.75 L-0.3 4.75" fill="#4c783f" fill-rule="evenodd" stroke="none"/>
    <path d="M-0.3 4.75 L-0.4 5.0 -0.7 5.15 -0.7 5.15 -0.9 5.4 -1.2 5.55 -1.1 5.2 -0.8 5.05 -0.8 5.0 -0.6 4.75 -0.5 4.7 -0.4 4.75 -0.3 4.75 -0.3 4.75" fill="#4a4e24" fill-rule="evenodd" stroke="none"/>
    <path d="M0.6 -4.95 L0.75 -5.2 1.0 -5.4 1.35 -5.4 1.8 -5.05 1.6 -4.5 1.3 -4.35 1.0 -4.3 0.85 -4.4 0.9 -4.2 0.8 -4.0 0.85 -4.0 0.9 -4.05 0.95 -4.0 1.0 -4.0 1.0 -4.0 1.2 -3.95 1.3 -4.15 1.45 -4.2 1.45 -4.35 1.55 -4.25 1.75 -4.4 1.85 -4.5 1.8 -4.35 2.0 -4.15 2.2 -4.25 2.3 -3.85 2.3 -3.75 2.4 -3.7 2.4 -3.65 2.45 -3.65 2.5 -3.7 2.75 -3.7 2.8 -3.7 2.75 -3.7 2.8 -3.7 2.9 -3.75 2.9 -3.8 3.1 -3.9 3.5 -4.25 3.45 -4.15 3.75 -4.25 3.55 -4.0 3.4 -3.95 3.35 -3.8 3.4 -3.8 3.65 -3.8 3.7 -3.8 3.85 -3.75 3.9 -4.0 3.95 -4.0 4.15 -4.2 4.15 -4.05 4.4 -4.1 4.4 -3.7 4.35 -3.6 4.45 -3.6 4.75 -3.4 4.6 -3.3 4.7 -3.15 4.75 -3.15 5.1 -3.25 4.95 -2.9 4.95 -2.85 4.95 -2.85 5.1 -2.95 5.45 -3.0 5.75 -3.05 5.45 -2.9 5.3 -2.8 5.55 -2.6 5.8 -2.3 5.4 -2.3 5.1 -2.35 4.8 -2.55 4.8 -2.55 4.65 -2.55 4.55 -2.4 4.75 -2.4 4.6 -2.3 4.65 -2.25 4.7 -2.3 5.05 -2.25 4.7 -2.25 4.65 -2.25 4.65 -2.2 4.8 -1.95 4.8 -1.95 5.0 -1.85 4.85 -1.85 5.0 -1.65 4.95 -1.45 5.25 -1.15 5.3 -0.6 5.45 -0.5 5.55 -0.55 5.85 -0.65 5.6 -0.5 5.55 -0.45 5.6 -0.45 5.65 -0.25 5.9 0.05 5.8 0.25 5.95 0.85 5.9 0.85 6.15 1.0 5.8 1.05 5.65 1.0 5.5 1.15 5.6 1.25 5.65 1.25 5.9 1.45 6.05 1.9 5.65 2.05 5.75 2.25 5.55 2.05 5.4 2.0 5.5 2.15 5.55 2.55 5.15 2.5 5.25 2.85 5.0 3.15 4.95 3.45 4.15 3.85 3.65 3.7 3.65 3.75 3.55 4.05 2.9 3.8 2.55 3.45 2.55 3.35 2.3 3.35 2.15 3.3 2.05 3.25 2.05 3.3 1.8 3.8 1.85 3.95 1.75 3.85 1.75 3.9 1.1 3.9 1.7 4.1 1.9 4.4 1.9 4.75 Q1.6 5.0 1.35 5.2 L0.65 5.1 0.45 4.8 0.45 4.45 0.7 4.25 0.7 4.05 0.75 3.95 0.75 3.9 0.55 4.1 0.45 4.25 0.15 4.4 -0.1 4.25 -0.1 4.3 0.0 4.35 -0.1 4.65 -0.25 4.8 -0.3 4.75 -0.4 5.0 -0.7 5.15 -0.7 5.15 -0.85 5.8 -1.1 6.0 -1.45 6.05 -1.95 5.6 -1.9 4.95 -1.6 4.75 -1.3 4.7 -0.8 5.0 -0.6 4.75 -0.5 4.7 -0.65 4.6 -0.55 4.3 -0.45 4.15 -0.25 4.2 -0.2 4.25 -0.2 4.2 -0.5 4.05 -0.55 4.2 -0.75 4.1 -0.95 4.1 -0.95 4.1 -1.1 4.2 -1.75 4.35 -1.85 4.05 -1.9 4.05 -2.15 3.95 -1.9 3.95 -1.85 3.95 -1.9 3.65 -1.75 3.2 -1.6 3.1 -1.6 3.1 -1.8 2.9 -1.9 2.85 -1.85 2.8 -1.85 2.8 -1.8 2.75 -1.75 2.7 -2.1 2.35 -2.15 2.5 -2.2 2.5 -2.2 2.55 -2.25 2.55 -2.3 2.6 -2.5 2.5 -2.55 2.45 -2.65 2.55 -3.15 2.6 -3.25 2.55 -3.4 2.65 -3.55 2.45 -3.8 2.4 -3.7 2.2 -3.8 2.2 -3.8 2.1 -3.85 1.6 -3.85 1.6 -3.85 1.55 -3.65 1.15 -3.95 0.9 -3.9 0.9 -3.9 0.8 -3.9 0.8 -3.9 0.4 -4.0 0.45 -4.1 0.5 -4.1 0.55 -4.4 0.55 -4.75 0.45 -5.0 0.1 -5.05 0.1 -5.25 -0.1 -5.25 -0.1 -5.3 -0.15 -5.3 -0.15 -5.25 -0.15 -5.25 -0.1 -4.95 0.0 -4.95 0.0 -4.9 0.0 -4.8 -0.1 -4.75 -0.15 -4.8 -0.2 -5.0 -0.25 Q-4.9 -0.3 -4.85 -0.35 L-5.05 -0.4 -5.25 -0.55 -5.5 -0.45 -5.85 -0.55 -6.1 -0.75 -6.15 -1.3 -5.65 -1.55 -5.3 -1.45 -5.2 -1.35 -4.85 -1.3 -4.65 -1.1 -4.65 -1.1 -4.5 -0.75 -4.55 -0.6 -4.45 -0.8 -4.55 -0.9 -4.45 -0.8 -4.4 -1.0 -4.4 -1.0 -4.65 -1.3 -4.65 -1.5 -4.75 -1.5 -4.95 -1.7 -5.05 -1.75 -5.3 -2.0 -5.05 -1.95 -5.05 -1.95 -5.05 -2.1 -4.8 -2.6 -4.3 -2.55 -4.2 -2.75 -4.2 -3.1 -4.1 -3.2 -4.15 -3.4 -4.15 -3.45 -4.2 -3.5 -4.05 -3.3 -4.0 -3.4 -4.0 -3.25 -4.0 -3.2 -3.85 -3.1 -3.85 -3.3 -3.55 -3.15 -3.3 -2.9 -3.3 -2.9 -3.15 -2.85 -3.2 -3.1 -3.15 -3.4 -3.05 -3.05 -3.15 -2.85 -3.1 -2.85 -3.0 -2.95 -2.85 -3.25 -2.7 -3.35 -2.6 -3.65 -2.65 -3.65 -2.65 -3.9 -2.5 -3.7 -2.5 -3.55 -2.5 -3.55 -2.05 -3.75 -2.1 -3.8 -2.05 -4.25 -2.3 -4.4 -2.45 -4.7 -2.5 -5.05 -2.3 -5.45 -1.9 -5.2 -1.75 -4.95 -1.7 -4.6 -1.85 -4.15 -1.85 -4.15 -1.55 -4.4 -1.55 -4.4 -1.5 -4.45 -1.25 -4.65 -1.2 -4.65 -1.1 -4.75 -1.15 -4.65 -1.1 -4.6 -1.1 -4.65 -0.75 -5.25 -0.7 -5.0 -0.7 -4.7 -0.65 -4.75 -0.65 -4.75 -0.55 -4.95 -0.5 -4.95 -0.4 -5.05 -0.1 -5.6 0.4 -6.0 0.1 -5.4 -0.15 -5.2 0.05 -5.15 0.05 -5.1 0.35 -5.0 0.45 -4.9 0.6 -4.95 M1.15 -3.75 L1.15 -3.75 1.2 -3.5 1.1 -3.45 1.1 -3.15 1.1 -3.1 1.0 -3.05 0.95 -3.0 0.95 -3.0 0.8 -2.8 0.8 -2.8 0.7 -2.8 0.05 -2.6 0.15 -2.35 0.15 -2.3 -0.15 -2.15 -0.05 -2.0 0.1 -1.6 0.1 -1.6 0.3 -1.2 0.15 -1.2 0.1 -1.2 0.1 -1.15 0.05 -1.15 0.05 -1.55 0.0 -1.55 0.0 -1.75 -0.25 -1.75 -0.25 -2.15 -0.75 -2.25 -1.05 -2.1 -1.25 -1.9 -1.25 -1.95 -0.95 -2.55 -1.1 -2.8 -0.85 -3.15 -0.4 -3.0 0.1 -3.15 0.15 -3.2 0.3 -3.1 0.35 -3.2 0.6 -3.05 0.4 -3.35 0.4 -3.35 0.4 -3.4 0.45 -3.45 0.6 -3.4 0.65 -3.5 0.65 -3.5 0.65 -3.5 0.6 -3.55 0.75 -3.45 0.9 -3.45 1.15 -3.6 1.15 -3.75 M3.75 -0.35 L3.8 -0.35 3.75 -0.3 3.75 -0.35 M3.95 -0.35 L3.95 -0.35 3.95 -0.35 3.95 -0.35 M3.75 -0.1 L3.85 -0.05 3.75 0.0 3.75 0.0 3.75 0.0 3.7 0.0 3.65 -0.05 3.75 -0.1 M4.15 0.0 L4.3 -0.1 4.4 -0.05 4.5 -0.05 4.5 0.05 4.4 0.15 4.4 0.1 4.15 0.0 M3.95 2.45 L3.95 2.5 3.95 2.45 M3.85 2.4 L3.9 2.4 3.85 2.4 M-4.1 -2.5 L-4.1 -2.75 -3.95 -3.05 -3.9 -3.0 -3.85 -2.95 -3.8 -2.9 -3.75 -2.65 -3.7 -2.6 -3.85 -2.6 -4.1 -2.5 -4.1 -2.5 M-4.4 -1.4 L-4.1 -1.3 -4.15 -1.4 -4.15 -1.4 -4.1 -1.45 -3.95 -1.45 -3.95 -1.45 -4.0 -1.2 -4.1 -1.2 M-4.3 -1.1 L-4.4 -1.4 -4.4 -1.4 M-4.3 -1.1 L-4.25 -1.1 M-1.05 -3.3 L-1.0 -3.25 -1.15 -3.15 -1.05 -3.3 M-2.3 -3.25 L-2.25 -3.0 -2.15 -2.9 -2.1 -2.8 -2.1 -2.8 -2.15 -2.9 -2.25 -2.85 -2.45 -2.9 -2.75 -2.8 -2.65 -3.05 -2.6 -3.1 -2.6 -3.1 -2.3 -3.25 M-1.35 -3.15 L-1.3 -3.1 -1.3 -3.1 -1.35 -3.05 -1.4 -3.05 -1.4 -3.05 -1.35 -3.15 M-3.7 -2.6 L-3.7 -2.6 M-2.65 -3.4 L-2.55 -3.45 -2.55 -3.45 -2.55 -3.45 -2.6 -3.6 -2.65 -3.4 M-2.85 -2.9 L-2.85 -2.75 -2.9 -2.65 -2.85 -2.85 -2.85 -2.9 M-2.35 -1.25 L-2.35 -1.2 -2.4 -1.2 -2.45 -1.15 -2.5 -1.2 -2.35 -1.25 M-2.6 -1.7 L-2.6 -1.7 -2.7 -1.65 -2.75 -1.6 -2.75 -1.6 -2.75 -1.65 -2.75 -1.65 -2.65 -1.85 -2.6 -1.8 -2.6 -1.7 M-2.7 -1.45 L-2.65 -1.35 -2.6 -1.25 -2.65 -1.3 -2.8 -1.3 -2.75 -1.5 -2.7 -1.45 M-2.7 -1.65 L-2.7 -1.65 M-2.75 -1.6 L-2.75 -1.6 M-2.35 -0.85 L-2.35 -0.9 -2.25 -0.9 -2.15 -0.95 -2.15 -0.9 -2.25 -0.85 -2.35 -0.85 M-1.6 0.25 L-1.65 0.3 -1.65 0.35 -1.65 0.15 -1.6 0.15 -1.6 0.25 M-1.65 0.4 L-1.6 0.4 -1.6 0.45 -1.6 0.55 -1.65 0.4 M-1.6 0.55 L-1.6 0.55 Z" fill="none" stroke="#000000" stroke-linecap="round" stroke-linejoin="round" stroke-opacity="0.4509804" stroke-width="1.0"/>
  </g>
</svg>
