<?xml version="1.0" encoding="UTF-8" standalone="no"?>
<svg xmlns:xlink="http://www.w3.org/1999/xlink" height="18.4px" width="6.8px" xmlns="http://www.w3.org/2000/svg">
  <g transform="matrix(1.0, 0.0, 0.0, 1.0, 3.4, 9.2)">
    <path d="M0.5 -8.9 L0.6 -8.85 0.6 -8.85 0.85 -8.65 1.1 -8.4 1.15 -8.35 1.2 -8.25 1.25 -8.2 1.45 -7.75 1.5 -7.4 1.5 -7.15 1.45 -7.05 1.45 -6.85 1.25 -6.4 1.05 -6.2 0.65 -5.85 0.5 -5.8 0.2 -5.7 0.2 -5.7 0.0 -5.7 -0.35 -5.7 -0.85 -5.9 -1.0 -6.0 -1.1 -6.1 -1.15 -6.15 -1.25 -6.3 -1.35 -6.5 -1.45 -6.6 -1.4 -6.65 -1.4 -6.65 -1.4 -6.75 -1.45 -6.8 -1.45 -7.1 -1.4 -7.4 -1.15 -7.35 -1.2 -7.2 -1.2 -6.95 -1.2 -6.8 -1.15 -6.7 -1.15 -6.6 -1.1 -6.5 -0.95 -6.25 -0.75 -6.15 -0.5 -6.0 -0.45 -5.95 -0.15 -5.9 0.0 -5.9 0.05 -5.95 0.25 -5.95 0.55 -6.1 0.65 -6.15 0.75 -6.2 0.95 -6.4 1.05 -6.6 1.15 -6.8 1.2 -6.95 1.25 -7.15 1.25 -7.5 1.2 -7.6 1.2 -7.65 1.15 -7.8 0.95 -8.2 0.65 -8.55 0.55 -8.65 0.0 -8.9 -0.1 -8.9 -0.45 -8.95 -0.6 -8.95 -0.7 -8.95 -0.85 -8.95 -0.9 -8.95 -1.15 -8.85 -1.2 -8.85 -1.6 -8.7 -1.8 -8.55 -1.8 -8.55 -2.0 -8.4 -2.45 -7.9 -2.55 -7.75 -2.65 -7.65 -2.8 -7.4 -2.8 -7.3 -2.85 -7.25 -2.9 -7.1 -2.95 -7.05 -2.95 -6.95 -3.1 -6.25 -3.1 -6.2 -3.1 -5.95 -3.15 -5.9 -3.15 -5.65 -3.15 -5.4 -3.1 -5.35 -3.1 -5.25 -3.1 -5.05 -3.05 -4.95 -2.95 -4.25 -2.75 -3.75 -2.7 -3.75 -1.95 -1.25 -1.95 -1.45 -1.8 -2.25 -1.8 -2.35 -1.65 -2.75 -1.45 -3.2 -1.35 -3.3 -1.3 -3.4 -1.1 -3.65 -0.8 -3.9 -0.8 -3.95 -0.3 -4.25 0.2 -4.45 0.4 -4.5 0.4 -4.5 0.95 -4.55 0.95 -4.55 1.6 -4.4 1.9 -4.25 2.25 -4.0 2.25 -4.0 2.35 -3.85 2.55 -3.85 2.8 -3.85 2.8 -3.65 2.7 -3.65 2.55 -3.7 2.5 -3.7 2.7 -3.4 2.8 -3.05 2.85 -2.9 2.85 -2.4 2.75 -1.95 2.7 -1.9 2.7 -1.85 2.65 -1.8 2.45 -1.55 2.25 -1.35 2.05 -1.2 1.75 -1.1 1.65 -1.05 1.4 -1.05 1.05 -1.05 0.7 -1.15 0.65 -1.2 0.55 -1.25 0.5 -1.3 0.35 -1.4 0.35 -1.4 Q0.25 -1.4 0.25 -1.45 L0.25 -1.45 0.2 -1.55 0.4 -1.65 0.4 -1.7 0.5 -1.6 0.5 -1.6 Q0.7 -1.55 0.7 -1.45 L0.7 -1.45 0.95 -1.3 1.15 -1.25 1.55 -1.3 1.75 -1.35 1.75 -1.3 1.8 -1.35 1.8 -1.35 1.85 -1.35 1.85 -1.35 1.9 -1.4 1.9 -1.4 2.0 -1.45 2.05 -1.5 2.1 -1.5 2.1 -1.55 2.3 -1.7 2.45 -1.9 2.55 -2.15 2.55 -2.2 2.6 -2.25 2.6 -2.4 2.65 -2.45 2.65 -2.8 2.55 -3.05 2.55 -3.1 2.45 -3.3 2.45 -3.35 2.3 -3.6 2.2 -3.7 2.2 -3.65 2.05 -3.65 2.0 -3.7 1.8 -3.65 1.7 -3.65 1.6 -3.65 1.5 -3.55 1.4 -3.55 1.35 -3.55 1.35 -3.6 1.25 -3.6 0.7 -3.4 0.55 -3.35 0.05 -3.1 0.1 -3.1 0.0 -3.0 -0.05 -2.95 -0.15 -3.0 -0.2 -2.95 -0.25 -2.9 -0.35 -2.85 -0.4 -2.8 -0.45 -2.8 -0.65 -2.65 -0.65 -2.6 -0.9 -2.4 -0.95 -2.35 -1.0 -2.3 -1.25 -2.0 -1.3 -1.95 -1.3 -1.95 -1.35 -1.9 -1.45 -1.7 -1.75 -1.2 -1.75 -0.9 -1.7 -0.8 -1.7 -0.75 -1.7 -0.6 -1.65 -0.3 0.2 5.75 0.2 5.7 0.2 5.3 0.2 4.95 0.3 4.5 0.35 4.4 0.35 4.35 0.5 3.85 0.55 3.8 1.0 3.1 1.45 2.7 1.7 2.55 1.8 2.45 2.15 2.3 2.75 2.15 2.85 2.15 2.9 2.15 3.25 2.15 3.35 2.2 3.4 2.2 3.35 2.45 3.15 2.4 2.85 2.4 2.6 2.45 2.55 2.45 2.5 2.45 2.25 2.5 1.9 2.7 1.4 3.05 1.35 3.05 1.3 3.2 1.2 3.35 Q1.15 3.45 1.05 3.45 L0.75 3.9 0.65 4.1 0.65 4.15 0.6 4.25 0.6 4.3 0.55 4.4 0.55 4.55 0.5 4.6 0.5 4.75 0.45 5.15 0.45 5.25 0.4 5.3 0.4 5.8 0.45 5.85 0.45 5.95 0.45 6.1 0.6 7.1 1.0 8.3 1.05 8.4 1.35 9.1 1.1 9.2 0.8 8.4 0.75 8.3 0.55 7.7 -1.0 2.65 -1.0 2.6 Q-1.0 2.5 -1.1 2.35 L-1.15 2.3 -1.15 2.25 -1.2 2.15 -1.25 1.95 -1.3 1.85 -1.35 1.8 -1.35 1.7 -1.5 1.25 -1.85 0.0 -1.9 -0.3 -2.65 -2.65 -2.7 -2.75 -3.0 -3.55 -3.05 -3.75 -3.05 -3.8 -3.3 -5.0 -3.35 -5.15 -3.35 -5.4 -3.35 -5.9 -3.35 -6.05 -3.3 -6.45 -3.15 -7.1 -3.1 -7.25 -2.8 -7.85 -2.75 -7.9 -2.6 -8.1 -2.25 -8.5 -1.8 -8.85 -1.8 -8.85 -1.45 -9.05 -0.95 -9.15 -0.45 -9.2 -0.2 -9.15 -0.1 -9.15 0.0 -9.15 0.4 -9.0 0.5 -8.9 M0.15 -5.75 L0.15 -5.8 0.15 -5.75 M1.7 -4.05 L1.45 -4.2 0.95 -4.3 0.9 -4.3 0.6 -4.3 0.6 -4.3 0.45 -4.25 -0.05 -4.1 -0.1 -4.1 -0.45 -3.9 -0.8 -3.6 -0.8 -3.6 -0.85 -3.55 -1.2 -3.05 -1.35 -2.85 -1.35 -2.8 -1.45 -2.55 -1.5 -2.5 -1.5 -2.45 -1.55 -2.35 -1.55 -2.3 -1.7 -1.65 -1.45 -2.05 -1.35 -2.1 -1.35 -2.1 -1.35 -2.1 -1.15 -2.35 -0.7 -2.8 -0.6 -2.85 -0.65 -2.9 Q-0.65 -2.95 -0.1 -3.2 L-0.05 -3.2 0.5 -3.5 0.55 -3.55 0.8 -3.65 0.9 -3.65 1.2 -3.75 2.0 -3.85 2.05 -3.85 1.95 -3.9 1.95 -3.9 1.7 -4.05 M0.4 -3.35 L0.35 -3.4 0.3 -3.35 0.4 -3.35" fill="#7f3319" fill-rule="evenodd" stroke="none"/>
    <path d="M0.5 -8.9 L0.4 -9.0 0.0 -9.15 -0.1 -9.15 -0.2 -9.15 -0.45 -9.2 -0.95 -9.15 -1.45 -9.05 -1.8 -8.85 -1.8 -8.85 -2.25 -8.5 -2.6 -8.1 -2.75 -7.9 -2.8 -7.85 -3.1 -7.25 -3.15 -7.1 -3.3 -6.45 -3.35 -6.05 -3.35 -5.9 -3.35 -5.4 -3.35 -5.15 -3.3 -5.0 -3.05 -3.8 -3.05 -3.75 -3.0 -3.55 -2.7 -2.75 -2.65 -2.65 -1.9 -0.3 -1.85 0.0 -1.5 1.25 -1.35 1.7 -1.35 1.8 -1.3 1.85 -1.25 1.95 -1.2 2.15 -1.15 2.25 -1.15 2.3 -1.1 2.35 Q-1.0 2.5 -1.0 2.6 L-1.0 2.65 0.55 7.7 0.75 8.3 0.8 8.4 1.1 9.2 1.35 9.1 1.05 8.4 1.0 8.3 0.6 7.1 0.45 6.1 0.45 5.95 0.45 5.85 0.4 5.8 0.4 5.3 0.45 5.25 0.45 5.15 0.5 4.75 0.5 4.6 0.55 4.55 0.55 4.4 0.6 4.3 0.6 4.25 0.65 4.15 0.65 4.1 0.75 3.9 1.05 3.45 Q1.15 3.45 1.2 3.35 L1.3 3.2 1.35 3.05 1.4 3.05 1.9 2.7 2.25 2.5 2.5 2.45 2.55 2.45 2.6 2.45 2.85 2.4 3.15 2.4 3.35 2.45 3.4 2.2 3.35 2.2 3.25 2.15 2.9 2.15 2.85 2.15 2.75 2.15 2.15 2.3 1.8 2.45 1.7 2.55 1.45 2.7 1.0 3.1 0.55 3.8 0.5 3.85 0.35 4.35 0.35 4.4 0.3 4.5 0.2 4.95 0.2 5.3 0.2 5.7 0.2 5.75 -1.65 -0.3 -1.7 -0.6 -1.7 -0.75 -1.7 -0.8 -1.75 -0.9 -1.75 -1.2 -1.45 -1.7 -1.35 -1.9 -1.3 -1.95 -1.3 -1.95 -1.25 -2.0 -1.0 -2.3 -0.95 -2.35 -0.9 -2.4 -0.65 -2.6 -0.65 -2.65 -0.45 -2.8 -0.4 -2.8 -0.35 -2.85 -0.25 -2.9 -0.2 -2.95 -0.15 -3.0 -0.05 -2.95 0.0 -3.0 0.1 -3.1 0.05 -3.1 0.55 -3.35 0.7 -3.4 1.25 -3.6 1.35 -3.6 1.35 -3.55 1.4 -3.55 1.5 -3.55 1.6 -3.65 1.7 -3.65 1.8 -3.65 2.0 -3.7 2.05 -3.65 2.2 -3.65 2.2 -3.7 2.3 -3.6 2.45 -3.35 2.45 -3.3 2.55 -3.1 2.55 -3.05 2.65 -2.8 2.65 -2.45 2.6 -2.4 2.6 -2.25 2.55 -2.2 2.55 -2.15 2.45 -1.9 2.3 -1.7 2.1 -1.55 2.1 -1.5 2.05 -1.5 2.0 -1.45 1.9 -1.4 1.9 -1.4 1.85 -1.35 1.85 -1.35 1.8 -1.35 1.8 -1.35 1.75 -1.3 1.75 -1.35 1.55 -1.3 1.15 -1.25 0.95 -1.3 0.7 -1.45 0.7 -1.45 Q0.7 -1.55 0.5 -1.6 L0.5 -1.6 0.4 -1.7 0.4 -1.65 0.2 -1.55 0.25 -1.45 0.25 -1.45 Q0.25 -1.4 0.35 -1.4 L0.35 -1.4 0.5 -1.3 0.55 -1.25 0.65 -1.2 0.7 -1.15 1.05 -1.05 1.4 -1.05 1.65 -1.05 1.75 -1.1 2.05 -1.2 2.25 -1.35 2.45 -1.55 2.65 -1.8 2.7 -1.85 2.7 -1.9 2.75 -1.95 2.85 -2.4 2.85 -2.9 2.8 -3.05 2.7 -3.4 2.5 -3.7 2.55 -3.7 2.7 -3.65 2.8 -3.65 2.8 -3.85 2.55 -3.85 2.35 -3.85 2.25 -4.0 2.25 -4.0 1.9 -4.25 1.6 -4.4 0.95 -4.55 0.95 -4.55 0.4 -4.5 0.4 -4.5 0.2 -4.45 -0.3 -4.25 -0.8 -3.95 -0.8 -3.9 -1.1 -3.65 -1.3 -3.4 -1.35 -3.3 -1.45 -3.2 -1.65 -2.75 -1.8 -2.35 -1.8 -2.25 -1.95 -1.45 -1.95 -1.25 -2.7 -3.75 -2.75 -3.75 -2.95 -4.25 -3.05 -4.95 -3.1 -5.05 -3.1 -5.25 -3.1 -5.35 -3.15 -5.4 -3.15 -5.65 -3.15 -5.9 -3.1 -5.95 -3.1 -6.2 -3.1 -6.25 -2.95 -6.95 -2.95 -7.05 -2.9 -7.1 -2.85 -7.25 -2.8 -7.3 -2.8 -7.4 -2.65 -7.65 -2.55 -7.75 -2.45 -7.9 -2.0 -8.4 -1.8 -8.55 -1.8 -8.55 -1.6 -8.7 -1.2 -8.85 -1.15 -8.85 -0.9 -8.95 -0.85 -8.95 -0.7 -8.95 -0.6 -8.95 -0.45 -8.95 -0.1 -8.9 0.0 -8.9 0.55 -8.65 0.65 -8.55 0.95 -8.2 1.15 -7.8 1.2 -7.65 1.2 -7.6 1.25 -7.5 1.25 -7.15 1.2 -6.95 1.15 -6.8 1.05 -6.6 0.95 -6.4 0.75 -6.2 0.65 -6.15 0.55 -6.1 0.25 -5.95 0.05 -5.95 0.0 -5.9 -0.15 -5.9 -0.45 -5.95 -0.5 -6.0 -0.75 -6.15 -0.95 -6.25 -1.1 -6.5 -1.15 -6.6 -1.15 -6.7 -1.2 -6.8 -1.2 -6.95 -1.2 -7.2 -1.15 -7.35 -1.4 -7.4 -1.45 -7.1 -1.45 -6.8 -1.4 -6.75 -1.4 -6.65 -1.4 -6.65 -1.45 -6.6 -1.35 -6.5 -1.25 -6.3 -1.15 -6.15 -1.1 -6.1 -1.0 -6.0 -0.85 -5.9 -0.35 -5.7 0.0 -5.7 0.2 -5.7 0.2 -5.7 0.5 -5.8 0.65 -5.85 1.05 -6.2 1.25 -6.4 1.45 -6.85 1.45 -7.05 1.5 -7.15 1.5 -7.4 1.45 -7.75 1.25 -8.2 1.2 -8.25 1.15 -8.35 1.1 -8.4 0.85 -8.65 0.6 -8.85 0.6 -8.85 0.5 -8.9 Z" fill="none" stroke="#000000" stroke-linecap="round" stroke-linejoin="round" stroke-opacity="0.4509804" stroke-width="1.0"/>
  </g>
</svg>
