<?xml version="1.0" encoding="UTF-8" standalone="no"?>
<svg xmlns:xlink="http://www.w3.org/1999/xlink" height="18.95px" width="31.2px" xmlns="http://www.w3.org/2000/svg">
  <g transform="matrix(1.0, 0.0, 0.0, 1.0, 19.35, 6.8)">
    <path d="M-1.6 11.4 L-1.6 11.5 -2.0 11.5 Q-1.9 11.75 -2.1 11.95 L-2.15 11.95 Q-2.3 12.05 -2.5 12.05 L-2.7 12.05 -2.8 12.0 Q-2.85 12.0 -3.05 12.1 L-3.3 12.15 -3.65 12.1 Q-3.95 12.0 -4.0 12.0 -3.85 11.8 -4.0 11.6 -4.1 11.45 -4.25 11.45 L-4.55 11.35 -4.5 11.35 -4.45 11.25 -4.45 10.85 -4.7 10.85 Q-4.7 10.75 -4.85 10.7 L-4.9 10.7 -5.2 10.7 -5.4 10.85 -5.45 10.85 -5.55 10.85 -5.55 10.75 -5.5 10.7 Q-5.45 10.4 -5.65 10.65 L-5.7 10.7 -5.9 10.85 -5.9 10.85 -5.95 11.0 -5.9 11.1 -5.85 11.2 -5.8 11.4 -5.95 11.75 Q-6.15 12.05 -6.3 12.05 L-6.45 12.05 -6.5 12.0 -6.5 11.65 -6.45 11.55 -6.45 11.5 -6.65 11.65 -6.9 11.75 -7.15 11.65 Q-7.1 11.2 -7.25 10.95 L-7.25 11.0 -7.45 11.2 -7.4 11.2 Q-7.35 11.2 -7.35 11.35 -7.35 11.6 -7.65 11.7 L-8.5 11.85 -8.5 11.75 -8.55 11.65 Q-8.4 11.5 -8.5 11.35 L-8.35 11.35 -8.35 10.85 -8.45 10.85 -8.3 10.65 -8.25 10.65 Q-8.0 10.45 -7.7 10.65 -7.85 10.35 -7.5 10.2 -7.05 10.05 -7.0 9.85 -6.95 9.65 -6.7 9.7 L-6.55 9.75 -6.5 9.8 Q-6.15 10.0 -6.05 9.75 -6.4 9.5 -6.2 9.05 L-5.4 9.1 Q-5.1 8.85 -5.75 8.6 L-5.95 8.5 Q-6.05 8.4 -5.95 8.3 L-5.8 8.2 -5.5 8.1 -5.6 7.95 -5.75 7.7 Q-5.85 7.5 -5.5 7.5 L-5.4 7.6 -5.05 7.9 Q-4.8 8.1 -5.1 8.2 -5.0 8.5 -4.8 8.3 -4.45 8.0 -4.3 8.05 -3.8 7.95 -3.7 8.2 -3.65 8.35 -3.7 8.85 -3.75 9.3 -3.65 9.45 L-2.9 9.5 Q-2.6 9.5 -2.7 9.0 -2.8 8.55 -2.45 8.6 L-2.4 8.6 Q-1.95 8.55 -2.25 8.35 L-2.4 8.25 Q-2.65 8.15 -2.85 8.25 -2.9 8.0 -2.6 7.65 L-2.45 7.4 Q-2.3 7.2 -2.25 7.1 L-2.45 7.2 -3.2 7.9 Q-2.85 7.2 -3.1 7.15 L-3.65 7.25 -3.25 6.9 -2.9 6.55 Q-3.2 6.3 -3.75 6.2 L-3.75 5.7 Q-3.5 5.5 -3.35 5.3 -3.25 5.55 -3.0 5.6 L-2.75 5.55 Q-2.65 5.45 -2.6 5.35 L-1.9 5.5 -1.55 5.7 Q-1.9 5.9 -2.35 5.85 -2.2 6.15 -1.95 6.3 -1.65 6.45 -1.4 6.2 L-1.05 6.45 Q-1.4 6.75 -1.2 6.9 -0.95 7.05 -0.8 6.65 -0.6 6.85 -0.7 7.05 L-1.05 7.4 Q-1.25 7.25 -1.5 7.45 -1.65 7.6 -1.7 7.9 -1.3 7.9 -1.1 7.5 -1.2 7.9 -1.0 7.8 -0.7 7.6 -0.55 7.55 -0.35 7.7 -0.5 8.05 -0.65 8.45 -0.45 8.6 -0.65 8.95 -0.4 9.15 L0.15 9.15 Q0.15 9.7 -0.2 10.15 -0.55 10.7 -1.0 10.35 L-1.35 10.4 -1.65 10.45 Q-1.85 10.45 -1.8 10.7 L-1.75 10.85 -1.8 10.85 -1.75 10.85 -1.8 11.0 Q-1.8 11.2 -1.65 11.25 -1.6 11.3 -1.6 11.4 M-5.75 8.6 L-5.35 8.6 Q-5.3 8.5 -5.35 8.4 -5.45 8.25 -5.55 8.3 -5.7 8.35 -5.75 8.6 M-4.7 8.95 Q-4.9 9.3 -4.45 9.15 -4.15 9.15 -4.15 8.8 -4.1 8.45 -4.35 8.3 L-4.7 8.95 M-6.95 10.85 Q-6.9 10.75 -6.9 10.7 -6.9 10.65 -7.3 10.8 L-7.3 10.8 -7.45 10.85 -6.95 10.85" fill="#45533e" fill-rule="evenodd" stroke="none"/>
    <path d="M-8.55 11.65 L-8.6 11.7 -8.65 11.7 Q-8.95 11.85 -9.2 11.85 -9.5 11.85 -9.7 11.7 L-9.8 11.6 -10.0 11.45 Q-10.1 11.7 -10.4 11.85 -10.7 12.0 -11.05 12.0 -11.3 12.0 -11.4 11.85 L-11.55 11.55 Q-12.0 11.75 -12.2 11.75 -12.45 11.75 -12.55 11.6 L-12.6 11.55 Q-12.7 11.4 -12.65 11.15 L-13.05 11.1 -13.0 10.85 -13.1 10.85 Q-13.25 10.6 -13.3 10.05 -13.35 9.55 -13.6 9.35 L-13.75 9.25 -13.75 8.8 -13.95 8.8 Q-14.25 8.8 -14.35 9.15 L-14.35 9.35 Q-14.35 9.5 -14.4 9.55 L-14.6 9.6 -14.8 9.65 -14.85 9.65 Q-14.8 9.55 -14.85 9.5 -14.9 9.35 -15.15 9.3 L-15.05 8.9 Q-15.0 8.7 -14.75 8.65 -14.75 8.6 -15.0 8.6 -14.85 8.3 -14.85 8.1 L-14.9 8.0 -15.05 8.0 -15.15 8.0 -15.25 8.05 -15.4 8.25 -15.65 7.95 -15.55 7.65 Q-15.5 7.35 -15.35 7.2 -15.25 7.35 -15.1 7.4 L-14.9 7.45 -14.4 7.35 -14.05 7.35 -13.75 7.3 -13.75 7.0 -13.5 6.9 Q-13.0 6.6 -13.15 5.8 L-13.3 4.95 -13.35 4.6 -13.35 4.15 -13.2 3.8 Q-13.1 3.6 -12.9 3.4 -12.7 3.25 -12.65 3.3 -12.55 3.4 -12.7 3.7 -12.6 3.85 -12.25 3.85 -11.85 3.8 -11.85 3.5 -11.85 3.3 -11.75 3.35 L-11.55 3.5 Q-11.4 3.65 -11.25 3.65 L-10.95 3.7 -10.75 3.4 -10.5 3.4 Q-10.8 3.8 -10.35 4.45 -9.85 5.1 -10.05 5.45 -10.25 5.85 -10.5 6.05 -10.85 6.35 -11.15 6.15 L-11.85 6.15 Q-12.4 6.45 -12.55 6.45 -12.35 6.75 -12.4 7.45 -12.5 8.2 -12.4 8.5 -12.1 9.35 -11.75 9.85 -11.2 10.6 -10.7 9.85 -10.55 9.6 -11.0 9.7 -11.55 9.8 -11.6 9.55 -11.75 9.4 -11.55 9.25 -11.3 9.15 -11.2 9.1 L-10.2 9.35 Q-9.9 9.3 -9.7 9.1 -9.45 8.85 -9.5 8.55 L-8.25 8.75 -7.95 8.8 Q-7.8 8.95 -7.6 8.85 -7.4 8.8 -7.3 8.6 L-7.2 8.45 Q-6.9 8.45 -6.85 8.1 L-6.75 8.1 -6.55 8.1 Q-6.3 8.2 -6.3 8.45 -6.3 8.8 -6.25 8.95 L-6.2 9.05 Q-6.4 9.5 -6.05 9.75 -6.15 10.0 -6.5 9.8 L-6.55 9.75 -6.7 9.7 Q-6.95 9.65 -7.0 9.85 -7.05 10.05 -7.5 10.2 -7.85 10.35 -7.7 10.65 -8.0 10.45 -8.25 10.65 L-8.3 10.65 -8.45 10.85 -8.35 10.85 -8.35 11.35 -8.5 11.35 Q-8.4 11.5 -8.55 11.65 M-8.55 11.3 L-8.5 11.35 -8.5 11.35 -8.55 11.3 M-6.95 10.85 L-7.45 10.85 -7.3 10.8 -7.3 10.8 Q-6.9 10.65 -6.9 10.7 -6.9 10.75 -6.95 10.85" fill="#272a27" fill-rule="evenodd" stroke="none"/>
    <path d="M-6.8 4.5 L-6.35 4.6 Q-6.0 5.05 -6.45 5.4 -6.5 5.45 -6.55 5.5 -6.85 5.75 -7.3 5.8 -7.45 6.0 -8.0 6.45 -8.35 6.75 -7.7 6.85 L-8.1 7.8 Q-8.2 8.35 -7.95 8.8 L-8.25 8.75 Q-8.35 8.55 -8.3 7.55 -8.3 6.85 -8.85 6.65 -8.75 6.5 -8.25 6.15 -7.85 5.9 -7.95 5.55 L-7.35 5.6 Q-7.05 5.5 -7.0 5.2 -6.9 5.45 -6.7 5.4 L-6.55 5.35 -6.5 5.2 Q-6.4 5.0 -6.45 4.75 L-6.55 4.65 -6.8 4.5" fill="#8d896b" fill-rule="evenodd" stroke="none"/>
    <path d="M-7.3 8.6 Q-7.4 8.8 -7.6 8.85 -7.8 8.95 -7.95 8.8 L-7.65 8.6 Q-7.45 8.5 -7.3 8.6" fill="#aba988" fill-rule="evenodd" stroke="none"/>
    <path d="M-6.35 4.6 L-6.2 3.7 Q-5.85 3.85 -5.7 3.8 -5.55 3.75 -5.7 3.4 -5.25 3.25 -5.25 3.55 -5.2 3.95 -5.05 4.0 L-5.0 4.25 Q-5.1 4.35 -5.6 4.55 -6.0 4.65 -6.05 5.0 L-5.4 4.9 Q-5.4 5.1 -5.65 5.2 -5.95 5.3 -5.9 5.5 -5.45 5.55 -5.2 5.1 -4.9 4.5 -4.65 4.4 L-5.05 5.2 Q-5.25 5.7 -5.3 6.05 -4.95 6.25 -4.4 6.15 L-4.4 6.15 Q-4.0 6.05 -4.25 5.9 -4.3 5.8 -4.5 5.75 -4.5 5.35 -4.2 5.4 -4.05 5.4 -3.9 5.5 L-3.75 5.7 -3.75 6.2 Q-3.8 6.45 -4.25 6.6 -4.6 6.75 -4.55 7.1 -4.4 7.25 -4.1 7.25 -3.8 7.25 -3.65 7.25 L-3.85 7.7 Q-4.05 7.9 -4.25 7.75 -4.3 7.65 -4.65 7.8 -4.85 7.9 -4.8 7.6 -4.75 7.35 -4.95 7.25 L-5.15 7.2 -5.3 7.2 Q-5.8 7.15 -5.65 6.65 L-6.0 7.55 Q-6.2 7.9 -6.55 8.05 L-6.75 8.1 -6.85 8.1 -7.15 8.1 Q-7.3 8.3 -7.2 8.45 L-7.3 8.6 Q-7.45 8.5 -7.65 8.6 L-7.95 8.8 Q-8.2 8.35 -8.1 7.8 L-7.7 6.85 Q-8.35 6.75 -8.0 6.45 -7.45 6.0 -7.3 5.8 -6.85 5.75 -6.55 5.5 -6.5 5.45 -6.45 5.4 -6.0 5.05 -6.35 4.6 M-5.75 6.55 Q-5.55 6.35 -5.75 6.1 L-6.3 6.55 Q-6.6 6.8 -6.25 6.75 -5.85 6.6 -5.75 6.55 M-6.65 7.25 L-7.2 7.3 Q-6.9 7.45 -7.1 7.75 L-7.15 7.85 -6.8 7.85 Q-6.5 7.5 -6.65 7.25" fill="#363f34" fill-rule="evenodd" stroke="none"/>
    <path d="M-7.2 8.45 Q-7.3 8.3 -7.15 8.1 L-6.85 8.1 Q-6.9 8.45 -7.2 8.45" fill="#949e77" fill-rule="evenodd" stroke="none"/>
    <path d="M-7.7 3.8 L-7.55 3.9 Q-7.7 4.3 -7.5 4.65 -7.4 4.85 -7.0 5.2 -7.05 5.5 -7.35 5.6 L-7.95 5.55 Q-7.85 5.9 -8.25 6.15 -8.75 6.5 -8.85 6.65 -8.3 6.85 -8.3 7.55 -8.35 8.55 -8.25 8.75 L-9.5 8.55 Q-9.75 8.55 -9.9 8.85 -10.1 9.3 -10.2 9.35 L-11.2 9.1 -11.85 8.6 -11.65 8.15 Q-11.55 7.9 -11.7 7.7 -11.65 7.2 -11.3 7.05 -11.1 6.95 -10.55 6.9 -10.05 6.85 -9.85 6.7 -9.5 6.55 -9.45 6.05 -9.85 5.8 -10.2 6.3 -10.55 6.75 -10.85 6.5 L-11.55 6.6 Q-11.95 6.7 -11.6 6.85 -11.95 7.15 -11.95 7.55 -12.3 8.1 -12.4 8.5 -12.5 8.2 -12.4 7.45 -12.35 6.75 -12.55 6.45 -12.4 6.45 -11.85 6.15 L-11.15 6.15 Q-10.85 6.35 -10.5 6.05 -10.25 5.85 -10.05 5.45 -9.85 5.1 -10.35 4.45 -10.8 3.8 -10.5 3.4 -10.25 3.4 -10.25 3.15 L-10.2 2.7 Q-9.9 3.1 -9.85 3.45 -9.8 3.85 -10.35 3.55 -10.45 3.9 -10.2 4.05 L-9.65 4.05 Q-9.75 4.3 -9.55 4.5 -9.35 4.65 -9.1 4.65 -8.8 4.7 -8.7 4.6 -8.6 4.5 -8.85 4.3 -8.45 4.4 -8.45 4.15 -8.45 4.0 -8.7 3.8 L-8.75 3.7 -8.55 3.5 -8.1 3.5 Q-8.2 3.9 -7.7 3.8" fill="#2f3430" fill-rule="evenodd" stroke="none"/>
    <path d="M-10.2 9.35 Q-10.1 9.3 -9.9 8.85 -9.75 8.55 -9.5 8.55 -9.45 8.85 -9.7 9.1 -9.9 9.3 -10.2 9.35" fill="#9d9470" fill-rule="evenodd" stroke="none"/>
    <path d="M-12.4 8.5 Q-12.3 8.1 -11.95 7.55 L-11.7 7.7 Q-11.55 7.9 -11.65 8.15 L-11.85 8.6 -11.2 9.1 Q-11.3 9.15 -11.55 9.25 -11.75 9.4 -11.6 9.55 -11.55 9.8 -11.0 9.7 -10.55 9.6 -10.7 9.85 -11.2 10.6 -11.75 9.85 -12.1 9.35 -12.4 8.5" fill="#636251" fill-rule="evenodd" stroke="none"/>
    <path d="M3.9 -0.7 Q3.85 -1.2 4.35 -1.55 L4.7 -1.55 Q4.85 -1.6 4.85 -1.75 4.95 -2.35 5.45 -2.8 5.55 -3.25 5.7 -3.4 5.85 -3.55 5.75 -2.55 L6.35 -3.05 Q6.6 -2.65 6.4 -2.35 6.2 -2.1 5.75 -1.95 5.75 -1.45 6.15 -1.6 L6.75 -2.0 6.75 -0.6 Q6.75 0.3 7.25 0.7 7.55 0.8 7.65 0.5 7.75 0.1 7.85 -0.05 L7.85 0.4 Q7.95 0.3 8.2 0.3 L8.7 0.45 8.85 0.35 Q9.0 0.25 9.1 0.25 9.3 0.25 9.55 0.45 9.7 0.65 9.7 0.8 9.7 0.95 9.45 1.05 L9.0 1.1 Q9.0 1.3 9.1 1.45 L9.25 1.6 9.2 1.7 9.05 1.85 Q9.3 1.95 9.55 1.95 9.8 1.95 9.85 1.8 9.9 1.6 10.1 1.6 L10.5 1.7 10.75 1.6 10.95 1.5 Q11.05 1.5 11.15 1.65 L11.2 2.05 Q11.2 2.3 11.0 2.3 L10.8 2.25 Q10.6 2.25 10.2 2.75 9.75 3.2 9.75 3.35 9.75 3.4 9.9 3.6 L10.05 3.8 10.05 4.05 Q10.1 4.15 10.25 4.15 L10.55 4.1 10.85 4.05 10.85 4.3 Q10.75 4.65 10.75 4.95 10.7 4.95 10.65 5.0 L10.55 5.0 10.25 4.9 9.95 4.65 Q9.8 4.9 9.8 5.15 9.75 5.15 9.75 5.2 L9.35 5.05 9.15 5.05 8.95 5.0 Q8.95 4.95 9.0 4.95 L9.0 4.75 8.8 4.8 8.6 4.85 8.55 4.75 8.45 4.6 Q8.35 4.65 8.25 4.8 L8.1 5.1 Q8.05 5.25 7.85 5.3 L7.85 5.15 7.6 5.3 7.4 5.35 Q7.45 5.5 7.8 6.35 L7.85 6.45 7.85 6.05 8.1 6.3 Q8.3 6.45 8.45 6.45 L8.6 6.35 Q8.65 6.2 8.75 6.2 8.95 6.2 9.05 6.45 L9.15 6.85 9.2 6.9 9.3 6.9 Q9.5 6.9 9.65 6.7 L9.75 6.5 9.95 6.5 10.15 6.45 Q10.2 6.45 10.4 6.55 L10.85 6.75 Q10.85 6.9 10.75 7.05 10.6 7.3 10.35 7.3 L10.2 7.25 Q10.1 7.15 10.0 7.15 L9.85 7.2 9.7 7.35 9.65 7.35 9.7 7.2 9.7 7.05 9.6 7.05 Q9.6 7.2 9.45 7.4 9.35 7.55 9.35 7.7 9.55 7.65 9.8 7.8 10.0 7.95 9.95 8.2 9.9 8.25 10.05 8.25 L10.75 8.0 Q10.85 8.0 10.95 8.1 L11.15 8.35 Q11.1 8.4 10.75 8.55 L10.4 8.65 9.75 8.55 9.8 8.6 Q9.75 8.8 9.7 8.75 9.6 8.75 9.35 8.95 L9.5 9.2 Q9.3 9.3 9.15 9.45 L9.25 9.5 9.3 9.7 Q9.3 9.8 9.05 9.95 L8.8 10.05 8.8 9.9 8.65 9.8 Q8.5 9.7 8.35 9.7 8.3 9.7 8.05 10.0 L7.85 10.2 7.85 10.3 7.65 10.6 7.55 10.7 7.5 10.75 7.45 10.85 7.4 10.85 7.5 10.85 7.55 11.0 7.7 11.0 7.85 11.15 Q7.7 11.5 7.3 11.55 7.0 11.6 6.95 11.85 6.7 11.95 6.45 11.8 6.2 11.6 6.25 11.25 5.9 11.25 5.8 11.5 L5.75 11.45 5.6 11.45 Q5.55 11.45 5.4 11.6 5.25 11.75 5.1 11.75 L4.95 11.65 4.95 11.6 4.95 11.5 4.85 11.1 4.8 10.85 4.75 10.85 4.6 10.7 4.5 10.55 Q4.35 10.35 4.75 10.35 L4.85 10.35 Q5.05 10.35 5.1 10.2 5.1 10.1 4.95 10.05 4.6 9.8 4.35 10.1 4.5 9.65 4.9 9.55 5.25 9.45 5.7 9.65 6.0 9.3 5.7 9.1 L5.15 8.8 Q4.8 9.1 4.55 9.1 4.2 9.2 4.1 8.8 L4.05 8.75 Q3.35 8.85 3.6 9.5 L3.65 9.65 Q3.9 10.1 4.35 10.1 L3.9 10.65 3.85 10.7 3.75 10.85 3.65 10.85 3.6 11.0 Q3.6 11.15 3.75 11.35 L3.95 11.65 3.95 11.75 3.95 12.0 3.8 12.0 Q3.75 11.95 3.4 11.85 L3.05 11.65 2.85 11.3 2.65 11.1 2.6 10.85 2.4 10.85 2.45 10.7 2.5 10.65 2.5 10.6 Q2.55 10.35 2.45 10.25 L2.45 10.2 2.4 10.2 Q2.25 10.0 1.85 10.2 1.8 10.25 1.8 10.7 L1.8 10.85 1.5 10.85 1.45 10.85 1.5 10.7 Q1.55 10.6 1.45 10.55 L1.25 10.55 1.15 10.6 Q1.05 10.65 1.0 10.7 L0.9 10.8 0.9 10.85 0.85 10.95 0.6 11.25 Q0.65 11.4 0.6 11.55 L0.55 11.75 Q0.45 12.0 0.15 12.0 0.05 12.0 -0.3 11.65 L-0.75 11.95 Q-1.05 12.05 -1.1 12.05 L-1.25 12.05 -1.35 12.0 -1.35 11.7 -1.3 11.45 -1.6 11.4 Q-1.6 11.3 -1.65 11.25 -1.8 11.2 -1.8 11.0 L-1.75 10.85 -1.8 10.85 -1.75 10.85 -1.8 10.7 Q-1.85 10.45 -1.65 10.45 L-1.35 10.4 -1.0 10.35 Q-0.55 10.7 -0.2 10.15 0.15 9.7 0.15 9.15 L0.8 9.4 Q1.25 9.6 1.55 9.35 1.85 8.8 2.3 8.4 2.8 8.0 3.35 7.8 3.45 7.55 2.8 7.35 2.65 7.3 2.7 7.25 L3.45 7.2 Q3.95 6.9 2.95 6.55 3.05 6.3 3.0 6.3 2.95 6.3 2.75 6.45 2.2 6.85 2.05 6.8 1.85 6.5 2.05 6.35 2.15 6.25 2.5 6.15 3.35 5.9 3.2 5.45 2.95 5.8 2.65 5.8 2.35 5.75 2.4 5.3 2.55 4.9 2.15 5.15 1.7 5.4 1.8 5.15 1.95 4.5 1.7 4.9 1.5 5.3 1.55 5.6 1.3 5.3 1.15 5.6 0.95 4.9 0.95 4.6 0.95 4.0 1.4 3.8 1.55 3.6 1.9 3.7 L2.5 3.75 2.55 2.85 Q2.55 2.4 2.25 2.05 1.5 3.3 1.35 2.2 1.2 2.65 0.8 2.7 0.35 2.75 0.4 2.25 0.5 2.15 1.0 1.95 1.4 1.8 1.3 1.65 L2.3 0.85 2.8 0.85 Q3.1 0.85 2.95 1.15 3.7 1.2 4.0 0.55 4.35 -0.05 3.9 -0.7 M4.4 -0.85 Q4.5 -0.65 4.7 -0.65 4.95 -0.85 4.8 -1.0 4.65 -1.2 4.35 -1.25 L4.4 -0.85 M5.35 -0.4 Q5.6 -0.5 5.7 -0.85 5.85 -1.2 5.45 -1.05 5.4 -0.9 5.3 -0.6 L5.3 -0.6 5.25 -0.5 5.25 -0.4 5.3 -0.4 5.25 -0.35 5.2 -0.35 5.2 -0.3 5.15 -0.25 5.1 -0.2 Q5.1 -0.05 5.2 0.1 5.35 0.2 5.6 0.15 5.45 0.4 5.5 0.55 5.6 0.75 5.9 0.7 5.7 0.55 5.95 0.2 6.15 -0.1 5.9 -0.2 L5.5 -0.35 5.45 -0.4 5.45 -0.4 5.35 -0.4 M7.8 7.4 L7.85 7.4 7.85 7.35 7.8 7.4" fill="#212321" fill-rule="evenodd" stroke="none"/>
    <path d="M-6.75 8.1 L-6.55 8.05 Q-6.2 7.9 -6.0 7.55 L-5.65 6.65 Q-5.8 7.15 -5.3 7.2 L-5.15 7.2 -4.95 7.25 Q-4.75 7.35 -4.8 7.6 -4.85 7.9 -4.65 7.8 -4.3 7.65 -4.25 7.75 -4.05 7.9 -3.85 7.7 L-3.65 7.25 -3.1 7.15 Q-2.85 7.2 -3.2 7.9 L-2.45 7.2 -2.25 7.1 Q-2.3 7.2 -2.45 7.4 L-2.6 7.65 Q-2.9 8.0 -2.85 8.25 -2.65 8.15 -2.4 8.25 L-2.25 8.35 Q-1.95 8.55 -2.4 8.6 L-2.45 8.6 Q-2.8 8.55 -2.7 9.0 -2.6 9.5 -2.9 9.5 L-3.65 9.45 Q-3.75 9.3 -3.7 8.85 -3.65 8.35 -3.7 8.2 -3.8 7.95 -4.3 8.05 -4.45 8.0 -4.8 8.3 -5.0 8.5 -5.1 8.2 -4.8 8.1 -5.05 7.9 L-5.4 7.6 -5.5 7.5 Q-5.85 7.5 -5.75 7.7 L-5.6 7.95 -5.5 8.1 -5.8 8.2 -5.95 8.3 Q-6.05 8.4 -5.95 8.5 L-5.75 8.6 Q-5.1 8.85 -5.4 9.1 L-6.2 9.05 -6.25 8.95 Q-6.3 8.8 -6.3 8.45 -6.3 8.2 -6.55 8.1 L-6.75 8.1" fill="#86855d" fill-rule="evenodd" stroke="none"/>
    <path d="M-4.55 11.35 L-4.95 11.45 -5.3 11.55 Q-5.2 11.4 -5.5 11.25 -5.75 11.1 -5.9 11.1 L-5.95 11.0 -5.9 10.85 -5.9 10.85 -5.7 10.7 -5.65 10.65 Q-5.45 10.4 -5.5 10.7 L-5.55 10.75 -5.55 10.85 -5.45 10.85 -5.4 10.85 -5.2 10.7 -4.9 10.7 -4.85 10.7 Q-4.7 10.75 -4.7 10.85 L-4.45 10.85 -4.45 11.25 -4.5 11.35 -4.55 11.35" fill="#657956" fill-rule="evenodd" stroke="none"/>
    <path d="M-4.7 8.95 L-4.35 8.3 Q-4.1 8.45 -4.15 8.8 -4.15 9.15 -4.45 9.15 -4.9 9.3 -4.7 8.95" fill="#929568" fill-rule="evenodd" stroke="none"/>
    <path d="M-6.65 7.25 Q-6.5 7.5 -6.8 7.85 L-7.15 7.85 -7.1 7.75 Q-6.9 7.45 -7.2 7.3 L-6.65 7.25" fill="#7a7c5f" fill-rule="evenodd" stroke="none"/>
    <path d="M-5.75 6.55 Q-5.85 6.6 -6.25 6.75 -6.6 6.8 -6.3 6.55 L-5.75 6.1 Q-5.55 6.35 -5.75 6.55" fill="#777c60" fill-rule="evenodd" stroke="none"/>
    <path d="M-3.65 7.25 Q-3.8 7.25 -4.1 7.25 -4.4 7.25 -4.55 7.1 -4.6 6.75 -4.25 6.6 -3.8 6.45 -3.75 6.2 -3.2 6.3 -2.9 6.55 L-3.25 6.9 -3.65 7.25" fill="#7f8157" fill-rule="evenodd" stroke="none"/>
    <path d="M-5.0 4.25 Q-4.8 3.95 -4.4 4.05 -3.9 4.2 -3.7 4.0 -3.6 4.2 -3.75 4.8 -3.85 5.1 -3.55 5.25 L-3.35 5.3 Q-3.5 5.5 -3.75 5.7 L-3.9 5.5 Q-4.05 5.4 -4.2 5.4 -4.5 5.35 -4.5 5.75 -4.3 5.8 -4.25 5.9 -4.0 6.05 -4.4 6.15 L-4.4 6.15 Q-4.95 6.25 -5.3 6.05 -5.25 5.7 -5.05 5.2 L-4.65 4.4 Q-4.9 4.5 -5.2 5.1 -5.45 5.55 -5.9 5.5 -5.95 5.3 -5.65 5.2 -5.4 5.1 -5.4 4.9 L-6.05 5.0 Q-6.0 4.65 -5.6 4.55 -5.1 4.35 -5.0 4.25" fill="#878865" fill-rule="evenodd" stroke="none"/>
    <path d="M-7.4 3.95 Q-6.95 3.95 -6.8 4.1 -6.65 4.25 -6.8 4.5 L-6.55 4.65 -6.45 4.75 Q-6.4 5.0 -6.5 5.2 L-6.55 5.35 -6.7 5.4 Q-6.9 5.45 -7.0 5.2 L-7.2 4.6 -7.4 3.95" fill="#292e2b" fill-rule="evenodd" stroke="none"/>
    <path d="M-8.0 2.55 Q-8.15 2.2 -7.65 2.1 -7.45 2.1 -7.4 2.0 -7.4 1.9 -7.7 1.65 -7.25 1.8 -7.05 1.6 -6.85 1.35 -7.2 1.0 -6.9 0.8 -6.8 0.85 -6.75 0.85 -6.75 1.05 -6.75 1.4 -6.55 1.4 L-6.45 1.35 -6.55 1.5 -7.05 2.0 Q-7.35 2.35 -6.85 2.45 -6.7 2.7 -6.55 2.8 L-6.4 2.85 Q-6.25 2.85 -5.75 2.7 -5.55 2.9 -5.65 3.05 -5.75 3.1 -6.05 3.2 -6.35 3.3 -6.4 3.35 -6.45 3.5 -6.2 3.7 L-6.35 4.6 -6.8 4.5 Q-6.65 4.25 -6.8 4.1 -6.95 3.95 -7.4 3.95 L-7.55 3.9 -7.7 3.8 Q-7.3 3.75 -7.2 3.65 -7.05 3.5 -7.4 3.25 -7.0 3.3 -6.95 2.9 -6.9 2.55 -7.35 2.6 -7.35 2.35 -7.65 2.35 -7.9 2.35 -8.0 2.55" fill="#505a47" fill-rule="evenodd" stroke="none"/>
    <path d="M9.35 5.05 L9.3 5.15 Q9.45 5.2 9.6 5.35 9.7 5.45 9.7 5.65 L9.65 5.75 9.55 5.95 Q9.75 6.25 9.75 6.5 L9.65 6.7 Q9.5 6.9 9.3 6.9 L9.2 6.9 9.15 6.85 9.05 6.45 Q8.95 6.2 8.75 6.2 8.65 6.2 8.6 6.35 L8.45 6.45 Q8.3 6.45 8.1 6.3 L7.85 6.05 7.85 5.3 Q8.05 5.25 8.1 5.1 L8.25 4.8 Q8.35 4.65 8.45 4.6 L8.55 4.75 8.6 4.85 8.8 4.8 9.0 4.75 9.0 4.95 Q8.95 4.95 8.95 5.0 L9.15 5.05 9.35 5.05 M9.5 9.2 L9.55 9.25 Q9.75 9.4 10.05 9.45 10.25 9.45 10.45 9.65 10.65 9.8 10.8 9.75 10.95 10.0 11.3 9.95 11.25 10.35 11.25 10.5 11.55 10.45 11.7 10.6 11.85 10.7 11.85 10.95 11.85 11.15 11.1 11.25 L9.4 11.0 Q9.3 11.0 9.0 11.1 L8.55 11.25 8.2 11.2 8.05 11.1 7.95 10.95 7.75 10.95 7.7 11.0 7.55 11.0 7.5 10.85 7.85 10.85 7.85 10.3 7.85 10.2 8.05 10.0 Q8.3 9.7 8.35 9.7 8.5 9.7 8.65 9.8 L8.8 9.9 8.8 10.05 9.05 9.95 Q9.3 9.8 9.3 9.7 L9.25 9.5 9.15 9.45 Q9.3 9.3 9.5 9.2 M0.4 2.25 Q0.35 2.75 0.8 2.7 1.2 2.65 1.35 2.2 1.5 3.3 2.25 2.05 2.55 2.4 2.55 2.85 L2.5 3.75 1.9 3.7 Q1.55 3.6 1.4 3.8 0.95 4.0 0.95 4.6 0.95 4.9 1.15 5.6 1.3 5.3 1.55 5.6 1.5 5.3 1.7 4.9 1.95 4.5 1.8 5.15 1.7 5.4 2.15 5.15 2.55 4.9 2.4 5.3 2.35 5.75 2.65 5.8 2.95 5.8 3.2 5.45 3.35 5.9 2.5 6.15 2.15 6.25 2.05 6.35 1.85 6.5 2.05 6.8 2.2 6.85 2.75 6.45 2.95 6.3 3.0 6.3 3.05 6.3 2.95 6.55 3.95 6.9 3.45 7.2 L2.7 7.25 Q2.65 7.3 2.8 7.35 3.45 7.55 3.35 7.8 2.8 8.0 2.3 8.4 1.85 8.8 1.55 9.35 1.25 9.6 0.8 9.4 L0.15 9.15 -0.4 9.15 Q-0.65 8.95 -0.45 8.6 -0.65 8.45 -0.5 8.05 -0.35 7.7 -0.55 7.55 -0.7 7.6 -1.0 7.8 -1.2 7.9 -1.1 7.5 L-1.05 7.4 -0.7 7.05 Q-0.6 6.85 -0.8 6.65 L-1.05 6.45 -1.4 6.2 Q-1.3 6.1 -0.6 5.95 -0.05 5.85 -0.05 5.45 L-0.85 5.55 Q-0.85 5.4 -0.4 4.95 -0.1 4.65 -0.55 4.55 -0.7 4.55 -0.95 5.25 -1.15 5.85 -1.55 5.7 -1.1 5.3 -1.4 5.2 -1.7 5.1 -1.9 5.5 L-2.6 5.35 Q-2.65 5.3 -2.75 5.3 -1.8 5.15 -3.1 4.0 -2.9 3.9 -2.65 3.9 L-2.2 3.95 Q-2.1 3.8 -2.1 3.45 L-2.1 2.9 Q-2.55 3.3 -2.95 3.4 -3.2 3.65 -3.55 3.5 L-4.1 3.1 -3.55 3.05 Q-3.2 2.95 -3.0 2.7 -2.8 2.5 -2.85 2.35 -2.9 2.15 -3.3 2.15 L-3.4 2.1 Q-2.85 1.8 -3.3 1.4 -3.1 1.4 -2.85 1.7 L-2.45 2.1 Q-2.65 2.5 -2.25 2.6 -1.85 2.7 -1.7 2.35 -1.9 2.75 -1.35 3.0 -1.15 3.05 -1.05 3.0 -0.95 2.9 -1.15 2.7 L-0.7 2.65 Q-0.35 2.8 -0.15 2.45 0.1 2.05 -0.35 2.0 L-0.35 1.7 0.4 1.95 0.4 2.25 M0.7 8.45 L-0.45 8.6 0.2 8.75 Q0.55 8.75 0.7 8.45 M0.55 7.75 Q0.3 8.05 0.3 8.2 0.25 8.45 0.65 8.25 1.0 8.2 0.95 8.0 0.85 7.75 0.55 7.75" fill="#30372d" fill-rule="evenodd" stroke="none"/>
    <path d="M-1.05 7.4 L-1.1 7.5 Q-1.3 7.9 -1.7 7.9 -1.65 7.6 -1.5 7.45 -1.25 7.25 -1.05 7.4" fill="#9f9667" fill-rule="evenodd" stroke="none"/>
    <path d="M-1.05 6.45 L-0.8 6.65 Q-0.95 7.05 -1.2 6.9 -1.4 6.75 -1.05 6.45" fill="#9b9468" fill-rule="evenodd" stroke="none"/>
    <path d="M-1.55 5.7 Q-1.15 5.85 -0.95 5.25 -0.7 4.55 -0.55 4.55 -0.1 4.65 -0.4 4.95 -0.85 5.4 -0.85 5.55 L-0.05 5.45 Q-0.05 5.85 -0.6 5.95 -1.3 6.1 -1.4 6.2 -1.65 6.45 -1.95 6.3 -2.2 6.15 -2.35 5.85 -1.9 5.9 -1.55 5.7" fill="#797c5a" fill-rule="evenodd" stroke="none"/>
    <path d="M-1.9 5.5 Q-1.7 5.1 -1.4 5.2 -1.1 5.3 -1.55 5.7 L-1.9 5.5" fill="#6e785b" fill-rule="evenodd" stroke="none"/>
    <path d="M-4.1 3.1 L-3.55 3.5 Q-3.2 3.65 -2.95 3.4 L-3.1 3.7 Q-3.15 3.9 -3.1 4.0 -1.8 5.15 -2.75 5.3 L-3.05 5.25 -3.35 5.3 -3.55 5.25 Q-3.85 5.1 -3.75 4.8 -3.6 4.2 -3.7 4.0 -3.9 4.2 -4.4 4.05 -4.8 3.95 -5.0 4.25 L-5.05 4.0 Q-5.0 3.8 -4.5 3.7 -4.15 3.6 -4.4 3.4 -4.55 3.3 -4.35 3.2 L-4.1 3.1 M-2.95 4.85 Q-2.75 4.75 -2.8 4.6 L-2.95 4.3 Q-3.3 4.5 -3.4 4.75 -3.5 5.05 -2.95 4.85" fill="#4e5743" fill-rule="evenodd" stroke="none"/>
    <path d="M-2.75 5.3 Q-2.65 5.3 -2.6 5.35 -2.65 5.45 -2.75 5.55 L-3.0 5.6 Q-3.25 5.55 -3.35 5.3 L-3.05 5.25 -2.75 5.3" fill="#aeab7e" fill-rule="evenodd" stroke="none"/>
    <path d="M-2.95 4.85 Q-3.5 5.05 -3.4 4.75 -3.3 4.5 -2.95 4.3 L-2.8 4.6 Q-2.75 4.75 -2.95 4.85" fill="#a5a475" fill-rule="evenodd" stroke="none"/>
    <path d="M-2.95 3.4 Q-2.55 3.3 -2.1 2.9 L-2.1 3.45 Q-2.1 3.8 -2.2 3.95 L-2.65 3.9 Q-2.9 3.9 -3.1 4.0 -3.15 3.9 -3.1 3.7 L-2.95 3.4" fill="#7d8361" fill-rule="evenodd" stroke="none"/>
    <path d="M-0.1 -3.3 Q-0.1 -3.1 -0.45 -2.75 -0.75 -2.45 -0.7 -2.1 L-1.15 -1.8 Q-1.4 -1.65 -1.6 -1.95 L-2.0 -1.65 Q-2.25 -1.45 -2.35 -1.25 L-1.85 -1.3 -1.4 -1.35 Q-1.7 -0.8 -2.4 -0.7 -3.1 -0.65 -3.55 -1.1 L-3.3 -0.6 Q-3.25 -0.35 -3.55 -0.25 L-4.25 -0.15 Q-4.35 -0.05 -4.1 0.0 -3.5 0.15 -3.2 -0.15 -2.95 0.15 -2.6 0.1 L-2.0 0.15 Q-2.1 0.35 -2.3 0.45 L-2.75 0.5 -2.75 0.85 Q-2.7 1.0 -2.5 0.9 -2.6 1.15 -2.45 1.35 -2.35 1.55 -2.05 1.65 L-2.1 1.2 Q-2.15 0.95 -2.25 0.75 -1.95 0.65 -1.35 -0.1 -0.9 -0.7 -0.35 -0.55 -0.6 -0.95 -0.6 -1.1 L-0.15 -1.05 -0.15 -0.65 Q-0.1 -0.4 0.1 -0.3 L-0.25 0.05 Q-0.8 -0.1 -0.7 0.25 -0.65 0.55 -0.2 0.6 -0.3 0.85 -0.65 0.8 -1.0 0.75 -0.95 1.1 -0.95 1.45 -1.15 1.35 L-1.65 1.1 Q-1.55 1.45 -1.85 1.75 -2.1 2.0 -2.45 2.1 L-2.85 1.7 Q-3.1 1.4 -3.3 1.4 -2.85 1.8 -3.4 2.1 -3.9 1.7 -4.05 1.35 -3.95 1.2 -3.45 1.1 -3.0 1.0 -2.85 0.75 -3.6 0.55 -4.05 0.9 -4.6 1.3 -4.15 1.95 -5.05 1.85 -5.6 1.0 -5.6 1.25 -5.3 1.8 -5.05 2.2 -5.25 2.5 -4.55 2.6 -4.8 2.1 L-4.05 2.1 -3.3 2.15 Q-2.9 2.15 -2.85 2.35 -2.8 2.5 -3.0 2.7 -3.2 2.95 -3.55 3.05 L-4.1 3.1 -4.35 3.2 Q-4.55 3.3 -4.4 3.4 -4.15 3.6 -4.5 3.7 -5.0 3.8 -5.05 4.0 -5.2 3.95 -5.25 3.55 -5.25 3.25 -5.7 3.4 -5.55 3.75 -5.7 3.8 -5.85 3.85 -6.2 3.7 -6.45 3.5 -6.4 3.35 -6.35 3.3 -6.05 3.2 -5.75 3.1 -5.65 3.05 -5.55 2.9 -5.75 2.7 -6.25 2.85 -6.4 2.85 L-6.55 2.8 Q-6.7 2.7 -6.85 2.45 -7.35 2.35 -7.05 2.0 L-6.55 1.5 -6.45 1.35 -6.55 1.4 Q-6.75 1.4 -6.75 1.05 -6.75 0.85 -6.8 0.85 -6.9 0.8 -7.2 1.0 -6.85 1.35 -7.05 1.6 -7.25 1.8 -7.7 1.65 -7.4 1.9 -7.4 2.0 -7.45 2.1 -7.65 2.1 -8.15 2.2 -8.0 2.55 -8.15 2.65 -8.5 2.95 L-9.0 2.65 Q-8.7 2.7 -8.5 2.4 -8.45 2.2 -8.35 1.8 -8.55 1.7 -8.75 1.25 -8.85 0.95 -9.25 1.15 -9.4 0.85 -9.1 0.6 -8.9 0.45 -9.1 0.25 -9.2 0.05 -8.8 0.0 L-8.75 0.0 Q-8.35 -0.05 -8.55 -0.2 -8.85 -0.4 -8.6 -0.55 -8.5 -0.6 -8.0 -0.75 -7.6 -0.85 -7.45 -0.9 L-7.4 -0.95 Q-7.35 -1.05 -7.4 -1.2 L-7.65 -1.45 Q-7.8 -1.7 -7.65 -1.85 -7.55 -2.0 -7.3 -2.05 L-7.3 -2.05 Q-7.05 -2.05 -6.95 -1.9 -6.8 -1.7 -6.9 -1.45 L-6.55 -1.45 -6.5 -1.4 Q-6.4 -1.25 -6.4 -0.95 -6.35 -0.6 -6.55 -0.45 -6.6 -0.4 -6.75 -0.4 -7.1 -0.3 -7.5 -0.5 -7.3 -0.25 -7.15 0.25 -7.0 0.2 -6.55 -0.25 L-6.45 -0.35 Q-5.95 -0.8 -5.65 -0.65 L-6.35 0.05 Q-6.65 0.5 -6.05 0.75 -6.35 0.15 -5.7 0.4 -5.65 0.2 -5.95 0.1 L-6.15 0.05 Q-6.15 0.05 -6.0 0.0 -5.75 0.0 -5.4 -0.4 -5.05 -0.8 -5.45 -0.8 L-5.45 -0.9 Q-5.1 -0.95 -4.95 -0.9 -4.8 -0.8 -5.0 -0.5 -4.8 -0.75 -4.1 -0.7 -3.9 -0.7 -3.9 -0.75 L-4.2 -1.05 -4.0 -1.3 Q-4.0 -1.4 -4.2 -1.45 -4.15 -1.65 -3.9 -1.8 L-3.5 -2.1 Q-3.4 -2.25 -3.35 -2.55 L-3.35 -3.0 -2.85 -3.0 -2.35 -3.15 Q-2.1 -2.75 -2.25 -2.4 -2.4 -2.05 -2.75 -1.75 -2.3 -1.85 -2.05 -2.1 -1.8 -2.35 -1.95 -2.8 -1.85 -2.8 -1.3 -3.3 -0.9 -3.65 -0.9 -3.2 -0.9 -2.85 -0.85 -2.9 L-0.65 -3.2 Q-0.25 -3.85 -0.1 -3.3 M-4.75 3.2 L-4.3 2.85 Q-4.05 2.65 -3.8 2.6 -3.95 2.15 -4.5 2.65 L-4.8 2.95 Q-4.9 3.15 -4.75 3.2 M-8.25 0.8 Q-8.35 0.65 -8.45 0.6 L-8.5 0.6 Q-8.65 0.7 -8.55 0.95 -8.4 1.25 -8.2 1.15 -8.15 1.0 -8.25 0.8" fill="#99966b" fill-rule="evenodd" stroke="none"/>
    <path d="M-1.7 2.35 Q-1.8 2.15 -1.7 1.95 -1.6 1.8 -1.4 1.75 L-1.05 1.7 Q-0.85 1.8 -0.9 2.05 -0.95 2.15 -1.2 2.1 L-1.55 2.05 Q-1.45 2.1 -1.35 2.4 -1.3 2.65 -1.15 2.7 -0.95 2.9 -1.05 3.0 -1.15 3.05 -1.35 3.0 -1.9 2.75 -1.7 2.35" fill="#888b62" fill-rule="evenodd" stroke="none"/>
    <path d="M1.7 0.65 Q1.85 0.65 2.05 0.7 L2.3 0.85 1.3 1.65 Q1.4 1.8 1.0 1.95 0.5 2.15 0.4 2.25 L0.4 1.95 Q0.6 1.7 0.3 1.55 0.0 1.45 0.25 1.2 0.3 0.9 0.1 0.9 -0.05 0.9 -0.3 1.1 -0.55 1.25 -0.55 1.45 -0.6 1.65 -0.35 1.7 L-0.35 2.0 Q-0.6 2.3 -0.7 2.65 L-1.15 2.7 Q-1.3 2.65 -1.35 2.4 -1.45 2.1 -1.55 2.05 L-1.2 2.1 Q-0.95 2.15 -0.9 2.05 -0.85 1.8 -1.05 1.7 L-1.4 1.75 Q-1.6 1.8 -1.7 1.95 -1.8 2.15 -1.7 2.35 -1.85 2.7 -2.25 2.6 -2.65 2.5 -2.45 2.1 -2.1 2.0 -1.85 1.75 -1.55 1.45 -1.65 1.1 L-1.15 1.35 Q-0.95 1.45 -0.95 1.1 -1.0 0.75 -0.65 0.8 -0.3 0.85 -0.2 0.6 -0.65 0.55 -0.7 0.25 -0.8 -0.1 -0.25 0.05 L0.3 0.05 0.85 0.1 0.35 0.85 1.7 0.65 M1.3 1.65 Q1.5 1.2 1.1 1.1 0.7 1.0 0.5 1.4 L1.3 1.65" fill="#49543f" fill-rule="evenodd" stroke="none"/>
    <path d="M-0.7 -2.1 Q-0.35 -1.85 -0.2 -1.7 -0.05 -1.4 -0.15 -1.05 L-0.6 -1.1 Q-0.6 -0.95 -0.35 -0.55 -0.9 -0.7 -1.35 -0.1 -1.95 0.65 -2.25 0.75 -2.15 0.95 -2.1 1.2 L-2.05 1.65 Q-2.35 1.55 -2.45 1.35 -2.6 1.15 -2.5 0.9 -2.7 1.0 -2.75 0.85 L-2.75 0.5 -2.3 0.45 Q-2.1 0.35 -2.0 0.15 L-2.6 0.1 Q-2.95 0.15 -3.2 -0.15 -3.5 0.15 -4.1 0.0 -4.35 -0.05 -4.25 -0.15 L-3.55 -0.25 Q-3.25 -0.35 -3.3 -0.6 L-3.55 -1.1 Q-3.1 -0.65 -2.4 -0.7 -1.7 -0.8 -1.4 -1.35 L-1.85 -1.3 -2.35 -1.25 Q-2.25 -1.45 -2.0 -1.65 L-1.6 -1.95 Q-1.4 -1.65 -1.15 -1.8 L-0.7 -2.1" fill="#4a513c" fill-rule="evenodd" stroke="none"/>
    <path d="M-3.4 2.1 L-3.3 2.15 -4.05 2.1 -4.8 2.1 Q-4.55 2.6 -5.25 2.5 -5.05 2.2 -5.3 1.8 -5.6 1.25 -5.6 1.0 -5.05 1.85 -4.15 1.95 -4.6 1.3 -4.05 0.9 -3.6 0.55 -2.85 0.75 -3.0 1.0 -3.45 1.1 -3.95 1.2 -4.05 1.35 -3.9 1.7 -3.4 2.1" fill="#49523f" fill-rule="evenodd" stroke="none"/>
    <path d="M-4.75 3.2 Q-4.9 3.15 -4.8 2.95 L-4.5 2.65 Q-3.95 2.15 -3.8 2.6 -4.05 2.65 -4.3 2.85 L-4.75 3.2" fill="#5f634b" fill-rule="evenodd" stroke="none"/>
    <path d="M-11.95 7.55 Q-11.95 7.15 -11.6 6.85 -11.95 6.7 -11.55 6.6 L-10.85 6.5 Q-10.55 6.75 -10.2 6.3 -9.85 5.8 -9.45 6.05 -9.5 6.55 -9.85 6.7 -10.05 6.85 -10.55 6.9 -11.1 6.95 -11.3 7.05 -11.65 7.2 -11.7 7.7 L-11.95 7.55" fill="#989473" fill-rule="evenodd" stroke="none"/>
    <path d="M-7.55 3.9 L-7.4 3.95 -7.2 4.6 -7.0 5.2 Q-7.4 4.85 -7.5 4.65 -7.7 4.3 -7.55 3.9" fill="#7f8873" fill-rule="evenodd" stroke="none"/>
    <path d="M-10.2 2.7 Q-10.0 2.8 -9.55 2.55 -9.15 2.35 -9.0 2.65 L-8.5 2.95 -9.45 3.15 Q-9.4 3.35 -9.2 3.5 -9.0 3.65 -8.75 3.7 L-8.7 3.8 -8.95 4.0 Q-9.0 4.15 -8.85 4.3 -8.6 4.5 -8.7 4.6 -8.8 4.7 -9.1 4.65 -9.35 4.65 -9.55 4.5 -9.75 4.3 -9.65 4.05 L-10.2 4.05 Q-10.45 3.9 -10.35 3.55 -9.8 3.85 -9.85 3.45 -9.9 3.1 -10.2 2.7" fill="#646d58" fill-rule="evenodd" stroke="none"/>
    <path d="M-8.85 4.3 Q-9.0 4.15 -8.95 4.0 L-8.7 3.8 Q-8.45 4.0 -8.45 4.15 -8.45 4.4 -8.85 4.3" fill="#a0a788" fill-rule="evenodd" stroke="none"/>
    <path d="M-8.75 3.7 Q-9.0 3.65 -9.2 3.5 -9.4 3.35 -9.45 3.15 L-8.5 2.95 -8.75 3.25 Q-8.8 3.4 -8.55 3.5 L-8.75 3.7" fill="#aaab85" fill-rule="evenodd" stroke="none"/>
    <path d="M-8.0 2.55 Q-7.9 2.35 -7.65 2.35 -7.35 2.35 -7.35 2.6 -7.55 2.95 -7.4 3.25 -7.85 3.3 -8.1 3.5 L-8.55 3.5 Q-8.8 3.4 -8.75 3.25 L-8.5 2.95 Q-8.15 2.65 -8.0 2.55" fill="#6d785d" fill-rule="evenodd" stroke="none"/>
    <path d="M-7.4 3.25 Q-7.05 3.5 -7.2 3.65 -7.3 3.75 -7.7 3.8 -8.2 3.9 -8.1 3.5 -7.85 3.3 -7.4 3.25" fill="#acad86" fill-rule="evenodd" stroke="none"/>
    <path d="M-7.35 2.6 Q-6.9 2.55 -6.95 2.9 -7.0 3.3 -7.4 3.25 -7.55 2.95 -7.35 2.6" fill="#a9a67b" fill-rule="evenodd" stroke="none"/>
    <path d="M-8.25 0.8 Q-8.15 1.0 -8.2 1.15 -8.4 1.25 -8.55 0.95 -8.65 0.7 -8.5 0.6 L-8.45 0.6 Q-8.35 0.65 -8.25 0.8" fill="#444b3c" fill-rule="evenodd" stroke="none"/>
    <path d="M-8.25 -2.85 Q-7.75 -2.2 -8.0 -1.75 L-8.35 -1.7 Q-8.55 -1.6 -8.5 -1.4 -8.55 -1.1 -8.0 -1.05 -7.5 -1.05 -7.75 -1.45 L-7.65 -1.45 -7.4 -1.2 Q-7.35 -1.05 -7.4 -0.95 L-7.45 -0.9 Q-7.6 -0.85 -8.0 -0.75 -8.5 -0.6 -8.6 -0.55 -8.85 -0.4 -8.55 -0.2 -8.35 -0.05 -8.75 0.0 L-8.8 0.0 Q-9.2 0.05 -9.1 0.25 -8.9 0.45 -9.1 0.6 -9.4 0.85 -9.25 1.15 -8.85 0.95 -8.75 1.25 -8.55 1.7 -8.35 1.8 -8.45 2.2 -8.5 2.4 -8.7 2.7 -9.0 2.65 -9.15 2.35 -9.55 2.55 -10.0 2.8 -10.2 2.7 -10.4 2.8 -10.8 3.1 -11.1 2.85 -11.05 2.75 -10.85 2.65 -10.75 2.5 -10.45 2.65 -10.35 2.55 -10.3 2.45 -10.35 2.2 -10.6 1.6 -11.05 1.55 -11.15 1.45 -11.55 1.45 -11.8 1.5 -11.8 1.0 L-11.4 1.0 -11.0 0.95 Q-10.9 1.05 -10.9 1.3 -10.5 0.75 -10.15 0.55 -9.65 0.55 -9.95 -0.1 L-9.8 -0.3 Q-9.6 -0.55 -9.95 -1.1 -10.3 -1.55 -9.9 -1.65 -9.6 -1.65 -9.35 -1.85 -9.2 -2.0 -9.05 -2.2 -8.55 -2.8 -8.25 -2.85 M-9.8 -0.3 Q-9.75 -0.05 -9.55 -0.05 -9.35 -0.05 -9.15 -0.2 -9.0 -0.3 -8.95 -0.45 L-8.9 -0.55 Q-8.85 -0.8 -9.05 -0.9 L-9.1 -0.9 Q-9.25 -0.9 -9.45 -0.65 L-9.8 -0.3 M-9.4 2.05 Q-9.65 2.15 -9.75 1.8 L-9.85 1.65 Q-9.85 1.6 -9.9 1.75 -10.05 2.05 -9.7 2.3 -9.35 2.5 -9.4 2.05 L-9.05 2.15 Q-8.85 2.2 -8.75 2.05 -8.8 1.6 -9.3 1.55 -9.55 1.55 -9.6 1.65 -9.65 1.8 -9.4 2.05" fill="#4d5445" fill-rule="evenodd" stroke="none"/>
    <path d="M-9.4 2.05 Q-9.35 2.5 -9.7 2.3 -10.05 2.05 -9.9 1.75 -9.85 1.6 -9.85 1.65 L-9.75 1.8 Q-9.65 2.15 -9.4 2.05" fill="#a09d76" fill-rule="evenodd" stroke="none"/>
    <path d="M-9.4 2.05 Q-9.65 1.8 -9.6 1.65 -9.55 1.55 -9.3 1.55 -8.8 1.6 -8.75 2.05 -8.85 2.2 -9.05 2.15 L-9.4 2.05" fill="#a8a67d" fill-rule="evenodd" stroke="none"/>
    <path d="M-15.8 6.4 L-16.2 6.15 Q-16.3 6.15 -16.4 6.3 L-16.5 6.45 Q-16.7 6.6 -17.0 6.6 -17.2 6.6 -17.45 6.4 L-17.9 6.0 -17.95 6.1 -18.1 6.15 Q-18.4 6.15 -18.45 5.1 -18.75 5.2 -19.05 4.85 -19.3 4.55 -19.3 4.3 L-19.3 3.95 -19.25 3.65 -19.1 3.65 -18.95 3.8 -18.75 3.9 -18.55 3.45 Q-18.45 3.3 -18.35 3.3 -18.25 3.3 -18.1 3.4 -18.0 3.5 -17.85 3.5 -17.7 3.5 -17.5 3.4 -17.3 3.25 -17.25 3.1 -17.35 3.05 -17.4 2.8 -17.5 2.55 -17.45 2.45 -17.75 2.5 -18.35 1.95 -18.2 1.8 -18.2 1.65 -18.2 1.5 -18.45 1.3 -18.7 1.1 -18.7 0.8 -18.7 0.6 -18.55 0.5 L-18.35 0.2 -17.95 0.15 -17.65 0.05 -17.05 0.25 Q-16.9 0.1 -16.9 -0.1 L-16.85 -0.25 Q-16.75 -0.35 -16.75 -0.4 L-17.2 -0.55 Q-17.35 -0.6 -17.35 -0.8 -17.35 -0.95 -17.2 -1.0 -17.05 -1.05 -17.0 -1.1 -16.95 -1.1 -17.05 -1.25 L-17.2 -1.4 Q-17.2 -1.55 -17.05 -1.75 -16.9 -1.95 -16.8 -1.95 L-16.4 -1.65 Q-16.4 -1.85 -16.25 -1.95 L-16.05 -2.1 -15.95 -1.85 -15.9 -1.6 -15.8 -1.6 -15.55 -1.65 -15.35 -1.7 Q-15.25 -1.75 -15.2 -1.8 L-15.25 -2.6 Q-15.2 -3.0 -14.6 -3.0 L-14.55 -3.0 Q-14.75 -4.0 -13.75 -4.3 L-13.75 -4.4 -13.6 -4.45 -13.55 -4.45 Q-13.3 -4.4 -12.9 -3.95 -12.7 -4.15 -12.7 -4.95 L-11.95 -5.15 -11.6 -5.2 -11.5 -5.2 -11.6 -5.1 Q-11.7 -4.9 -11.65 -4.7 -11.85 -4.55 -11.9 -4.15 -11.95 -3.55 -12.0 -3.45 -11.8 -3.75 -11.4 -3.7 -10.95 -3.65 -10.8 -3.8 -10.85 -4.05 -11.15 -4.0 L-11.7 -3.9 -11.65 -4.7 Q-11.45 -4.7 -11.35 -4.95 L-11.3 -4.8 -11.0 -5.05 Q-10.9 -5.2 -10.7 -5.2 L-10.6 -4.8 Q-10.5 -4.5 -10.4 -4.5 -10.2 -4.5 -9.95 -4.65 L-9.9 -4.7 -9.7 -4.9 Q-9.7 -5.0 -9.75 -5.15 L-9.85 -5.35 Q-9.7 -5.35 -9.5 -5.45 -9.2 -5.55 -9.0 -5.7 L-8.65 -6.05 -8.35 -6.2 Q-8.15 -6.2 -7.95 -5.95 -7.8 -5.7 -7.7 -5.65 L-7.65 -5.3 Q-8.05 -5.55 -8.1 -5.25 -8.1 -4.9 -7.7 -4.95 L-7.35 -5.45 Q-7.2 -5.7 -7.2 -5.95 -7.35 -5.9 -7.45 -5.95 L-7.4 -6.0 -7.2 -5.95 -7.2 -5.95 -6.95 -5.85 -6.95 -5.85 -6.7 -5.8 -6.5 -5.8 -6.45 -6.05 -6.45 -6.45 -6.4 -6.35 -6.25 -6.35 Q-6.05 -6.05 -5.75 -5.8 -5.4 -5.55 -5.0 -5.55 L-5.0 -5.5 Q-5.25 -5.2 -5.15 -5.05 L-5.0 -4.85 -4.85 -4.65 -4.7 -4.05 -4.95 -4.1 Q-5.15 -4.2 -5.25 -4.1 -5.35 -3.95 -5.0 -3.6 -5.55 -3.65 -5.45 -3.5 -5.2 -3.2 -5.35 -3.0 L-5.75 -3.25 -5.8 -3.3 Q-5.9 -3.4 -5.95 -3.6 L-6.5 -3.0 -6.3 -3.55 Q-6.2 -3.9 -6.25 -4.1 -6.4 -4.2 -6.55 -4.3 L-6.65 -4.4 Q-6.8 -4.65 -6.85 -4.9 -6.55 -5.0 -6.8 -5.1 L-7.0 -5.2 -7.2 -5.25 -7.1 -4.85 Q-7.1 -4.6 -7.35 -4.7 -7.0 -4.45 -7.45 -4.2 -8.1 -3.85 -8.15 -3.7 L-8.6 -3.75 Q-8.75 -3.75 -8.6 -4.2 -9.05 -4.45 -9.0 -4.1 L-8.85 -3.35 Q-8.2 -3.6 -7.8 -3.25 -7.6 -3.15 -7.7 -3.0 -7.8 -2.9 -8.25 -2.85 -8.55 -2.8 -9.05 -2.2 -9.2 -2.0 -9.35 -1.85 -9.6 -1.65 -9.9 -1.65 -10.3 -1.55 -9.95 -1.1 -9.6 -0.55 -9.8 -0.3 L-9.95 -0.1 Q-10.4 0.15 -10.5 0.3 -10.7 0.5 -10.15 0.55 -10.5 0.75 -10.9 1.3 -10.9 1.05 -11.0 0.95 L-11.4 1.0 Q-11.3 0.65 -11.4 0.55 L-11.75 0.5 Q-11.95 0.6 -12.0 0.75 -12.05 0.9 -11.8 1.0 -11.8 1.5 -11.55 1.45 -11.15 1.45 -11.05 1.55 -10.9 1.75 -11.1 2.25 -11.25 2.5 -10.75 2.5 -10.85 2.65 -11.05 2.75 -11.1 2.85 -10.8 3.1 L-10.75 3.4 -10.95 3.7 Q-10.85 3.25 -11.1 3.2 -11.35 3.15 -11.55 3.5 L-11.75 3.35 Q-11.85 3.3 -11.85 3.5 -11.85 3.8 -12.25 3.85 -12.6 3.85 -12.7 3.7 -12.55 3.4 -12.65 3.3 -12.7 3.25 -12.9 3.4 -13.1 3.6 -13.2 3.8 L-13.35 4.15 -13.4 4.1 -13.6 4.1 Q-13.65 4.15 -13.6 4.4 L-13.55 4.8 Q-13.6 5.0 -13.7 5.1 L-13.75 5.1 -13.75 5.2 -13.8 5.25 Q-13.9 5.5 -14.0 5.5 L-14.4 5.3 Q-14.4 5.4 -14.5 5.4 -14.4 5.55 -14.55 5.8 L-14.75 6.15 -15.1 6.05 -15.35 5.9 -15.45 6.15 Q-15.6 6.4 -15.75 6.4 L-15.8 6.4 M-12.15 -3.15 L-12.6 -3.15 -12.35 -2.85 -12.2 -2.75 Q-12.1 -2.7 -12.0 -2.75 -11.7 -3.2 -11.9 -3.2 L-12.15 -3.15 M-12.2 -0.65 L-12.2 -0.05 Q-12.45 0.35 -12.6 0.55 L-12.65 0.55 Q-12.95 0.8 -12.75 -0.2 -13.0 -0.15 -13.0 0.3 -13.0 0.95 -13.05 1.0 -12.75 0.7 -12.75 0.8 L-12.85 1.2 Q-12.9 1.45 -12.8 1.6 -12.65 1.8 -12.15 1.45 -12.3 0.85 -12.3 0.55 -12.25 0.05 -11.7 0.1 -12.0 0.0 -11.95 -0.35 -11.95 -0.55 -11.85 -0.95 -12.2 -0.95 -12.2 -0.65 M-13.35 -1.15 Q-13.25 -1.25 -13.3 -1.5 -13.35 -1.7 -13.55 -1.65 -13.6 -1.45 -13.6 -1.3 -13.55 -1.1 -13.35 -1.15 M-9.75 -3.3 Q-9.65 -3.55 -9.95 -3.75 -10.1 -3.8 -10.15 -3.75 -10.2 -3.65 -10.1 -3.5 -10.45 -3.35 -10.25 -3.3 L-9.75 -3.3 M-7.35 -4.7 L-7.7 -4.7 Q-7.8 -4.65 -7.75 -4.55 -7.75 -4.4 -7.65 -4.4 -7.5 -4.45 -7.35 -4.7 M-10.5 -0.8 Q-10.55 -0.55 -10.45 -0.35 -10.35 -0.15 -10.1 -0.15 -10.0 -0.7 -10.5 -0.8" fill="#2a2f2c" fill-rule="evenodd" stroke="none"/>
    <path d="M-10.95 3.7 L-11.25 3.65 Q-11.4 3.65 -11.55 3.5 -11.35 3.15 -11.1 3.2 -10.85 3.25 -10.95 3.7" fill="#74846d" fill-rule="evenodd" stroke="none"/>
    <path d="M-10.8 3.1 Q-10.4 2.8 -10.2 2.7 L-10.25 3.15 Q-10.25 3.4 -10.5 3.4 L-10.75 3.4 -10.8 3.1" fill="#899275" fill-rule="evenodd" stroke="none"/>
    <path d="M-11.05 1.55 Q-10.6 1.6 -10.35 2.2 -10.3 2.45 -10.35 2.55 -10.45 2.65 -10.75 2.5 -11.25 2.5 -11.1 2.25 -10.9 1.75 -11.05 1.55" fill="#8c9372" fill-rule="evenodd" stroke="none"/>
    <path d="M-11.4 1.0 L-11.8 1.0 Q-12.05 0.9 -12.0 0.75 -11.95 0.6 -11.75 0.5 L-11.4 0.55 Q-11.3 0.65 -11.4 1.0" fill="#949072" fill-rule="evenodd" stroke="none"/>
    <path d="M-12.2 -0.65 Q-12.2 -0.95 -11.85 -0.95 -11.95 -0.55 -11.95 -0.35 -12.0 0.0 -11.7 0.1 -12.25 0.05 -12.3 0.55 -12.3 0.85 -12.15 1.45 -12.65 1.8 -12.8 1.6 -12.9 1.45 -12.85 1.2 L-12.75 0.8 Q-12.75 0.7 -13.05 1.0 -13.0 0.95 -13.0 0.3 -13.0 -0.15 -12.75 -0.2 -12.95 0.8 -12.65 0.55 L-12.6 0.55 Q-12.45 0.35 -12.2 -0.05 L-12.2 -0.65" fill="#645e4b" fill-rule="evenodd" stroke="none"/>
    <path d="M-13.05 11.1 L-13.05 11.25 Q-13.4 11.1 -13.55 11.1 L-13.6 11.1 -13.65 11.1 Q-13.75 11.1 -14.05 11.25 -14.35 11.45 -14.5 11.45 L-14.65 11.4 -14.9 11.25 -15.05 11.35 Q-15.2 11.5 -15.3 11.5 -15.5 11.5 -15.6 11.3 -15.75 11.1 -15.9 11.1 -16.0 11.1 -16.25 11.2 L-16.55 11.3 Q-16.7 11.3 -16.85 11.1 -17.0 10.85 -17.05 10.85 L-17.45 11.0 -17.9 11.1 Q-18.05 11.1 -18.2 10.95 -18.35 10.8 -18.35 10.7 L-18.3 10.5 -18.2 10.45 -17.9 10.45 Q-17.7 10.4 -17.55 10.2 L-18.15 10.2 Q-18.6 10.2 -18.6 9.9 -18.6 9.7 -18.4 9.55 L-18.15 9.5 -17.9 9.55 -17.9 9.1 Q-17.8 8.8 -17.65 8.8 -17.6 8.8 -17.35 8.9 L-17.1 9.05 Q-17.0 9.05 -16.9 8.95 L-16.65 8.85 Q-16.3 9.1 -16.2 9.1 -16.25 8.45 -15.95 8.25 L-15.65 8.25 -15.65 7.95 -15.4 8.25 -15.25 8.05 -15.15 8.0 -15.05 8.0 -14.9 8.0 -14.85 8.1 Q-14.85 8.3 -15.0 8.6 -14.75 8.6 -14.75 8.65 -15.0 8.7 -15.05 8.9 L-15.15 9.3 Q-14.9 9.35 -14.85 9.5 -14.8 9.55 -14.85 9.65 L-14.8 9.65 -14.6 9.6 -14.4 9.55 Q-14.35 9.5 -14.35 9.35 L-14.35 9.15 Q-14.25 8.8 -13.95 8.8 L-13.75 8.8 -13.75 9.25 -13.6 9.35 Q-13.35 9.55 -13.3 10.05 -13.25 10.6 -13.1 10.85 L-13.0 10.85 -13.05 11.1 M-15.65 8.25 L-15.65 8.25 -15.65 8.25" fill="#505059" fill-rule="evenodd" stroke="none"/>
    <path d="M-15.35 7.2 Q-15.45 6.95 -15.6 6.95 L-15.8 7.0 -15.9 7.05 -16.0 7.1 Q-16.35 7.1 -16.35 6.65 L-16.3 6.45 -16.25 6.3 -16.15 6.4 Q-16.1 6.45 -15.95 6.45 L-15.95 6.45 -15.8 6.4 -15.75 6.4 Q-15.6 6.4 -15.45 6.15 L-15.35 5.9 -15.1 6.05 -14.75 6.15 -14.55 5.8 Q-14.4 5.55 -14.5 5.4 -14.4 5.4 -14.4 5.3 L-14.0 5.5 Q-13.9 5.5 -13.8 5.25 L-13.75 5.2 -13.75 5.1 -13.7 5.1 Q-13.6 5.0 -13.55 4.8 L-13.6 4.4 Q-13.65 4.15 -13.6 4.1 L-13.4 4.1 -13.35 4.15 -13.35 4.6 -13.3 4.95 -13.15 5.8 Q-13.0 6.6 -13.5 6.9 L-13.75 7.0 -13.75 7.3 -14.05 7.35 -14.4 7.35 -14.9 7.45 -15.1 7.4 Q-15.25 7.35 -15.35 7.2" fill="#504e56" fill-rule="evenodd" stroke="none"/>
    <path d="M-13.35 -1.15 Q-13.55 -1.1 -13.6 -1.3 -13.6 -1.45 -13.55 -1.65 -13.35 -1.7 -13.3 -1.5 -13.25 -1.25 -13.35 -1.15" fill="#7b7884" fill-rule="evenodd" stroke="none"/>
    <path d="M-9.95 -0.1 Q-9.65 0.55 -10.15 0.55 -10.7 0.5 -10.5 0.3 -10.4 0.15 -9.95 -0.1" fill="#918d6e" fill-rule="evenodd" stroke="none"/>
    <path d="M-10.5 -0.8 Q-10.0 -0.7 -10.1 -0.15 -10.35 -0.15 -10.45 -0.35 -10.55 -0.55 -10.5 -0.8" fill="#6f735a" fill-rule="evenodd" stroke="none"/>
    <path d="M-12.15 -3.15 L-11.9 -3.2 Q-11.7 -3.2 -12.0 -2.75 -12.1 -2.7 -12.2 -2.75 L-12.35 -2.85 -12.6 -3.15 -12.15 -3.15" fill="#5b6956" fill-rule="evenodd" stroke="none"/>
    <path d="M-9.8 -0.3 L-9.45 -0.65 Q-9.25 -0.9 -9.1 -0.9 L-9.05 -0.9 Q-8.85 -0.8 -8.9 -0.55 L-8.95 -0.45 Q-9.0 -0.3 -9.15 -0.2 -9.35 -0.05 -9.55 -0.05 -9.75 -0.05 -9.8 -0.3" fill="#959975" fill-rule="evenodd" stroke="none"/>
    <path d="M-5.35 -3.0 Q-5.2 -3.2 -5.45 -3.5 -5.55 -3.65 -5.0 -3.6 -5.35 -3.95 -5.25 -4.1 -5.15 -4.2 -4.95 -4.1 L-4.7 -4.05 Q-4.85 -3.75 -4.8 -3.65 -4.7 -3.6 -4.45 -3.75 L-3.75 -2.85 -3.5 -2.1 -3.9 -1.8 Q-4.15 -1.65 -4.2 -1.45 -4.0 -1.4 -4.0 -1.3 L-4.2 -1.05 Q-4.4 -1.4 -4.65 -1.45 -4.9 -1.5 -5.1 -1.15 L-5.15 -1.25 -5.2 -1.3 Q-5.3 -1.35 -5.35 -1.3 -5.5 -1.2 -5.45 -0.9 L-5.45 -0.8 -5.65 -0.65 Q-5.95 -0.8 -6.45 -0.35 L-6.55 -0.25 Q-7.0 0.2 -7.15 0.25 -7.3 -0.25 -7.5 -0.5 -7.1 -0.3 -6.75 -0.4 -6.6 -0.4 -6.55 -0.45 -6.35 -0.6 -6.4 -0.95 L-5.75 -1.25 Q-5.4 -1.4 -5.4 -1.9 L-5.4 -1.9 -5.9 -1.9 Q-6.0 -1.95 -5.6 -2.25 -6.2 -2.4 -5.95 -2.55 L-5.65 -2.75 Q-5.4 -2.9 -5.35 -3.0 M-3.75 -2.85 Q-4.0 -2.6 -4.15 -3.0 L-4.3 -3.25 Q-4.35 -3.3 -4.45 -3.05 -4.7 -2.85 -4.45 -2.7 -4.15 -2.55 -4.35 -2.25 -3.95 -2.35 -3.75 -2.85" fill="#384335" fill-rule="evenodd" stroke="none"/>
    <path d="M-8.25 -2.85 Q-7.8 -2.9 -7.7 -3.0 -7.6 -3.15 -7.8 -3.25 -8.2 -3.6 -8.85 -3.35 L-9.0 -4.1 Q-9.05 -4.45 -8.6 -4.2 -8.75 -3.75 -8.6 -3.75 L-8.15 -3.7 Q-8.1 -3.85 -7.45 -4.2 -7.0 -4.45 -7.35 -4.7 -7.1 -4.6 -7.1 -4.85 L-7.2 -5.25 -7.0 -5.2 -6.8 -5.1 Q-6.55 -5.0 -6.85 -4.9 -6.8 -4.65 -6.65 -4.4 L-6.55 -4.3 Q-6.4 -4.2 -6.25 -4.1 -6.2 -3.9 -6.3 -3.55 L-6.5 -3.0 -5.95 -3.6 Q-5.9 -3.4 -5.8 -3.3 L-5.75 -3.25 -5.35 -3.0 Q-5.4 -2.9 -5.65 -2.75 L-5.95 -2.55 Q-6.2 -2.4 -5.6 -2.25 -6.0 -1.95 -5.9 -1.9 L-5.4 -1.9 -5.4 -1.9 Q-5.4 -1.4 -5.75 -1.25 L-6.4 -0.95 Q-6.4 -1.25 -6.5 -1.4 L-6.55 -1.45 -6.9 -1.45 Q-6.8 -1.7 -6.95 -1.9 -7.05 -2.05 -7.3 -2.05 L-7.3 -2.05 Q-7.55 -2.0 -7.65 -1.85 -7.8 -1.7 -7.65 -1.45 L-7.75 -1.45 -8.5 -1.4 Q-8.55 -1.6 -8.35 -1.7 L-8.0 -1.75 Q-7.75 -2.2 -8.25 -2.85" fill="#6b745a" fill-rule="evenodd" stroke="none"/>
    <path d="M-7.75 -1.45 Q-7.5 -1.05 -8.0 -1.05 -8.55 -1.1 -8.5 -1.4 L-7.75 -1.45" fill="#9fa27e" fill-rule="evenodd" stroke="none"/>
    <path d="M-9.75 -3.3 L-10.25 -3.3 Q-10.45 -3.35 -10.1 -3.5 -10.2 -3.65 -10.15 -3.75 -10.1 -3.8 -9.95 -3.75 -9.65 -3.55 -9.75 -3.3" fill="#636f5c" fill-rule="evenodd" stroke="none"/>
    <path d="M-7.7 -5.65 L-7.7 -6.1 -7.5 -6.0 -7.45 -5.95 Q-7.35 -5.9 -7.2 -5.95 -7.2 -5.7 -7.35 -5.45 L-7.7 -4.95 Q-8.1 -4.9 -8.1 -5.25 -8.05 -5.55 -7.65 -5.3 L-7.7 -5.65" fill="#5f745d" fill-rule="evenodd" stroke="none"/>
    <path d="M-11.65 -4.7 L-11.7 -3.9 -11.15 -4.0 Q-10.85 -4.05 -10.8 -3.8 -10.95 -3.65 -11.4 -3.7 -11.8 -3.75 -12.0 -3.45 -11.95 -3.55 -11.9 -4.15 -11.85 -4.55 -11.65 -4.7" fill="#757c60" fill-rule="evenodd" stroke="none"/>
    <path d="M-11.5 -5.2 Q-11.4 -5.35 -11.3 -5.35 -11.25 -5.15 -11.35 -4.95 -11.45 -4.7 -11.65 -4.7 -11.7 -4.9 -11.6 -5.1 L-11.5 -5.2" fill="#87835d" fill-rule="evenodd" stroke="none"/>
    <path d="M-5.65 -0.65 L-5.45 -0.8 Q-5.05 -0.8 -5.4 -0.4 -5.75 0.0 -6.0 0.0 -6.15 0.05 -6.15 0.05 L-5.95 0.1 Q-5.65 0.2 -5.7 0.4 -6.35 0.15 -6.05 0.75 -6.65 0.5 -6.35 0.05 L-5.65 -0.65" fill="#63674d" fill-rule="evenodd" stroke="none"/>
    <path d="M-5.45 -0.9 Q-5.5 -1.2 -5.35 -1.3 -5.3 -1.35 -5.2 -1.3 L-5.15 -1.25 -5.1 -1.15 Q-4.9 -1.5 -4.65 -1.45 -4.4 -1.4 -4.2 -1.05 L-3.9 -0.75 Q-3.9 -0.7 -4.1 -0.7 -4.8 -0.75 -5.0 -0.5 -4.8 -0.8 -4.95 -0.9 -5.1 -0.95 -5.45 -0.9" fill="#6d6f53" fill-rule="evenodd" stroke="none"/>
    <path d="M-3.75 -2.85 Q-3.95 -2.35 -4.35 -2.25 -4.15 -2.55 -4.45 -2.7 -4.7 -2.85 -4.45 -3.05 -4.35 -3.3 -4.3 -3.25 L-4.15 -3.0 Q-4.0 -2.6 -3.75 -2.85" fill="#6c7455" fill-rule="evenodd" stroke="none"/>
    <path d="M-4.1 -6.6 L-3.65 -6.65 Q-3.45 -6.65 -3.4 -6.3 -3.1 -6.2 -2.6 -6.4 L-1.85 -6.7 -1.9 -5.95 Q-1.8 -5.6 -1.4 -5.85 -1.3 -5.6 -1.65 -5.4 -1.95 -5.3 -1.7 -5.0 -1.5 -4.5 -1.25 -4.75 -1.05 -5.05 -1.15 -5.4 L-0.85 -5.25 Q-0.65 -4.85 -1.25 -4.35 -1.55 -4.15 -1.6 -4.0 -1.65 -3.85 -1.35 -3.65 -1.15 -3.5 -1.1 -3.75 L-1.0 -4.15 Q-0.45 -4.3 -0.2 -4.1 0.05 -3.85 -0.1 -3.3 -0.25 -3.85 -0.65 -3.2 L-0.85 -2.9 Q-0.9 -2.85 -0.9 -3.2 -0.9 -3.65 -1.3 -3.3 -1.85 -2.8 -1.95 -2.8 -1.8 -2.35 -2.05 -2.1 -2.3 -1.85 -2.75 -1.75 -2.4 -2.05 -2.25 -2.4 -2.1 -2.75 -2.35 -3.15 L-2.85 -3.0 -3.35 -3.0 Q-3.55 -3.35 -3.5 -3.4 L-3.25 -3.3 Q-2.7 -3.05 -2.7 -3.55 L-2.3 -3.6 Q-2.1 -3.65 -2.2 -3.9 -2.35 -4.05 -2.8 -4.05 -3.3 -4.05 -3.45 -4.15 L-3.9 -3.75 -4.45 -3.75 Q-3.9 -3.65 -3.95 -4.3 -4.0 -4.5 -4.05 -4.6 -4.15 -4.65 -4.25 -4.4 -4.25 -4.0 -4.7 -4.05 L-4.85 -4.65 Q-4.5 -4.65 -4.35 -5.05 -4.2 -5.5 -3.85 -5.45 -3.85 -5.7 -3.9 -6.05 L-4.1 -6.6" fill="#4a5c44" fill-rule="evenodd" stroke="none"/>
    <path d="M-4.45 -3.75 L-3.9 -3.75 -3.45 -4.15 Q-3.3 -4.05 -2.8 -4.05 -2.35 -4.05 -2.2 -3.9 -2.1 -3.65 -2.3 -3.6 L-2.7 -3.55 Q-2.7 -3.05 -3.25 -3.3 L-3.5 -3.4 Q-3.55 -3.35 -3.35 -3.0 L-3.35 -2.55 Q-3.4 -2.25 -3.5 -2.1 L-3.75 -2.85 -4.45 -3.75" fill="#7e815c" fill-rule="evenodd" stroke="none"/>
    <path d="M-0.85 -5.25 L-0.65 -5.45 Q-0.15 -5.2 -0.35 -4.75 -0.5 -4.45 -1.0 -4.15 L-1.1 -3.75 Q-1.15 -3.5 -1.35 -3.65 -1.65 -3.85 -1.6 -4.0 -1.55 -4.15 -1.25 -4.35 -0.65 -4.85 -0.85 -5.25" fill="#6a7556" fill-rule="evenodd" stroke="none"/>
    <path d="M-1.4 -5.85 Q-1.45 -6.15 -1.35 -6.1 L-1.15 -5.85 -1.15 -5.4 Q-1.05 -5.05 -1.25 -4.75 -1.5 -4.5 -1.7 -5.0 -1.95 -5.3 -1.65 -5.4 -1.3 -5.6 -1.4 -5.85" fill="#7e8861" fill-rule="evenodd" stroke="none"/>
    <path d="M-6.25 -6.35 L-6.25 -6.35 Q-6.2 -6.35 -5.75 -6.6 L-5.35 -6.8 -5.1 -6.75 Q-4.95 -6.6 -4.95 -6.3 L-4.4 -6.8 Q-4.4 -6.6 -4.55 -6.45 L-4.1 -6.6 -3.9 -6.05 Q-3.85 -5.7 -3.85 -5.45 -4.2 -5.5 -4.35 -5.05 -4.5 -4.65 -4.85 -4.65 L-5.0 -4.85 -5.15 -5.05 Q-5.25 -5.2 -5.0 -5.5 L-5.0 -5.55 Q-5.4 -5.55 -5.75 -5.8 -6.05 -6.05 -6.25 -6.35" fill="#273730" fill-rule="evenodd" stroke="none"/>
    <path d="M-4.7 -4.05 Q-4.25 -4.0 -4.25 -4.4 -4.15 -4.65 -4.05 -4.6 -4.0 -4.5 -3.95 -4.3 -3.9 -3.65 -4.45 -3.75 -4.7 -3.6 -4.8 -3.65 -4.85 -3.75 -4.7 -4.05" fill="#798663" fill-rule="evenodd" stroke="none"/>
    <path d="M2.65 11.1 L2.7 11.3 2.7 11.5 Q2.65 11.65 2.4 11.65 L2.25 11.6 Q2.15 11.5 2.05 11.5 2.0 11.5 1.8 11.65 L1.5 11.8 1.35 11.75 1.3 11.75 1.3 11.6 1.25 11.45 Q1.15 11.55 0.95 11.6 L0.8 11.65 Q0.75 11.65 0.6 11.55 0.65 11.4 0.6 11.25 L0.85 10.95 0.9 10.85 0.9 10.8 1.0 10.7 Q1.05 10.65 1.15 10.6 L1.25 10.55 1.45 10.55 Q1.55 10.6 1.5 10.7 L1.45 10.85 1.5 10.85 1.8 10.85 1.8 10.7 Q1.8 10.25 1.85 10.2 2.25 10.0 2.4 10.2 L2.45 10.2 2.45 10.25 Q2.55 10.35 2.5 10.6 L2.5 10.65 2.45 10.7 2.4 10.85 2.6 10.85 2.65 11.1" fill="#434b3b" fill-rule="evenodd" stroke="none"/>
    <path d="M4.95 11.6 L4.9 11.7 4.8 11.8 4.5 11.65 4.25 12.0 3.95 11.75 3.95 11.65 3.75 11.35 Q3.6 11.15 3.6 11.0 L3.65 10.85 3.75 10.85 3.85 10.7 3.9 10.65 4.35 10.1 Q4.6 9.8 4.95 10.05 5.1 10.1 5.1 10.2 5.05 10.35 4.85 10.35 L4.75 10.35 Q4.35 10.35 4.5 10.55 L4.6 10.7 4.75 10.85 4.8 10.85 4.85 11.1 4.95 11.5 4.95 11.6" fill="#3d4437" fill-rule="evenodd" stroke="none"/>
    <path d="M4.35 10.1 Q3.9 10.1 3.65 9.65 L3.6 9.5 Q3.35 8.85 4.05 8.75 L4.1 8.8 Q4.2 9.2 4.55 9.1 4.8 9.1 5.15 8.8 L5.7 9.1 Q6.0 9.3 5.7 9.65 5.25 9.45 4.9 9.55 4.5 9.65 4.35 10.1" fill="#383f33" fill-rule="evenodd" stroke="none"/>
    <path d="M0.7 8.45 Q0.55 8.75 0.2 8.75 L-0.45 8.6 0.7 8.45" fill="#737858" fill-rule="evenodd" stroke="none"/>
    <path d="M0.55 7.75 Q0.85 7.75 0.95 8.0 1.0 8.2 0.65 8.25 0.25 8.45 0.3 8.2 0.3 8.05 0.55 7.75" fill="#6c7354" fill-rule="evenodd" stroke="none"/>
    <path d="M7.5 10.85 L7.4 10.85 7.45 10.85 7.5 10.75 7.55 10.7 7.65 10.6 7.85 10.3 7.85 10.85 7.5 10.85" fill="#2e322a" fill-rule="evenodd" stroke="none"/>
    <path d="M7.85 5.3 L7.85 6.05 7.85 6.45 7.8 6.35 Q7.45 5.5 7.4 5.35 L7.6 5.3 7.85 5.15 7.85 5.3 M7.8 7.4 L7.85 7.35 7.85 7.4 7.8 7.4" fill="#30342d" fill-rule="evenodd" stroke="none"/>
    <path d="M2.3 0.85 Q2.45 0.5 2.9 0.6 L3.6 0.85 Q3.8 0.75 3.7 0.4 3.65 0.1 3.95 0.2 L3.9 -0.25 Q3.85 -0.5 3.9 -0.7 4.35 -0.05 4.0 0.55 3.7 1.2 2.95 1.15 3.1 0.85 2.8 0.85 L2.3 0.85" fill="#62644d" fill-rule="evenodd" stroke="none"/>
    <path d="M1.3 1.65 L0.5 1.4 Q0.7 1.0 1.1 1.1 1.5 1.2 1.3 1.65" fill="#9d9866" fill-rule="evenodd" stroke="none"/>
    <path d="M-0.35 1.7 Q-0.6 1.65 -0.55 1.45 -0.55 1.25 -0.3 1.1 -0.05 0.9 0.1 0.9 0.3 0.9 0.25 1.2 0.0 1.45 0.3 1.55 0.6 1.7 0.4 1.95 L-0.35 1.7" fill="#939164" fill-rule="evenodd" stroke="none"/>
    <path d="M-0.7 2.65 Q-0.6 2.3 -0.35 2.0 0.1 2.05 -0.15 2.45 -0.35 2.8 -0.7 2.65" fill="#9a986d" fill-rule="evenodd" stroke="none"/>
    <path d="M0.1 -0.3 L0.3 -0.85 Q0.5 -1.15 0.95 -0.9 0.65 -1.15 0.95 -1.45 0.5 -1.55 0.65 -1.7 0.7 -1.8 1.2 -2.05 2.1 -2.65 1.4 -3.0 2.0 -3.2 2.15 -2.75 2.3 -2.3 1.75 -2.05 1.9 -1.75 2.2 -2.15 2.5 -2.5 2.75 -2.1 2.45 -1.95 2.45 -1.3 2.4 -0.75 2.05 -0.7 1.8 -0.75 1.75 -0.6 L1.65 -0.25 Q1.55 0.25 0.95 -0.15 1.0 0.25 1.3 0.2 1.7 0.05 1.9 0.0 L1.7 0.65 0.35 0.85 0.85 0.1 0.3 0.05 -0.25 0.05 0.1 -0.3" fill="#6d7253" fill-rule="evenodd" stroke="none"/>
    <path d="M4.4 -0.85 L4.35 -1.25 Q4.65 -1.2 4.8 -1.0 4.95 -0.85 4.7 -0.65 4.5 -0.65 4.4 -0.85" fill="#586351" fill-rule="evenodd" stroke="none"/>
    <path d="M4.35 -1.55 Q4.25 -2.05 4.85 -1.75 4.85 -1.6 4.7 -1.55 L4.35 -1.55" fill="#73866e" fill-rule="evenodd" stroke="none"/>
    <path d="M5.45 -0.4 L5.45 -0.4 5.5 -0.35 5.9 -0.2 Q6.15 -0.1 5.95 0.2 5.7 0.55 5.9 0.7 5.6 0.75 5.5 0.55 5.45 0.4 5.6 0.15 5.35 0.2 5.2 0.1 5.1 -0.05 5.1 -0.2 L5.15 -0.25 5.2 -0.3 5.2 -0.35 5.25 -0.35 5.3 -0.4 5.35 -0.4 5.45 -0.4" fill="#5f5d41" fill-rule="evenodd" stroke="none"/>
    <path d="M5.3 -0.4 L5.25 -0.4 5.25 -0.5 5.3 -0.6 5.3 -0.6 Q5.4 -0.9 5.45 -1.05 5.85 -1.2 5.7 -0.85 5.6 -0.5 5.35 -0.4 L5.3 -0.4 M5.35 -0.4 L5.35 -0.4" fill="#73785f" fill-rule="evenodd" stroke="none"/>
    <path d="M0.1 -0.3 L0.3 -0.85 Q0.5 -1.15 0.95 -0.9 0.65 -1.15 0.95 -1.45 0.5 -1.55 0.65 -1.7 0.7 -1.8 1.2 -2.05 2.1 -2.65 1.4 -3.0 2.0 -3.2 2.15 -2.75 2.3 -2.3 1.75 -2.05 1.9 -1.75 2.2 -2.15 2.5 -2.5 2.75 -2.1 2.45 -1.95 2.45 -1.3 2.4 -0.75 2.05 -0.7 1.8 -0.75 1.75 -0.6 L1.65 -0.25 Q1.55 0.25 0.95 -0.15 1.0 0.25 1.3 0.2 1.7 0.05 1.9 0.0 L1.7 0.65 Q1.85 0.65 2.05 0.7 L2.3 0.85 Q2.45 0.5 2.9 0.6 L3.6 0.85 Q3.8 0.75 3.7 0.4 3.65 0.1 3.95 0.2 L3.9 -0.25 Q3.85 -0.5 3.9 -0.7 3.85 -1.2 4.35 -1.55 4.25 -2.05 4.85 -1.75 4.95 -2.35 5.45 -2.8 5.55 -3.25 5.7 -3.4 5.85 -3.55 5.75 -2.55 L6.35 -3.05 Q6.6 -2.65 6.4 -2.35 6.2 -2.1 5.75 -1.95 5.75 -1.45 6.15 -1.6 L6.75 -2.0 6.75 -0.6 Q6.75 0.3 7.25 0.7 7.55 0.8 7.65 0.5 7.75 0.1 7.85 -0.05 L7.85 0.4 Q7.95 0.3 8.2 0.3 L8.7 0.45 8.85 0.35 Q9.0 0.25 9.1 0.25 9.3 0.25 9.55 0.45 9.7 0.65 9.7 0.8 9.7 0.95 9.45 1.05 L9.0 1.1 Q9.0 1.3 9.1 1.45 L9.25 1.6 9.2 1.7 9.05 1.85 Q9.3 1.95 9.55 1.95 9.8 1.95 9.85 1.8 9.9 1.6 10.1 1.6 L10.5 1.7 10.75 1.6 10.95 1.5 Q11.05 1.5 11.15 1.65 L11.2 2.05 Q11.2 2.3 11.0 2.3 L10.8 2.25 Q10.6 2.25 10.2 2.75 9.75 3.2 9.75 3.35 9.75 3.4 9.9 3.6 L10.05 3.8 10.05 4.05 Q10.1 4.15 10.25 4.15 L10.55 4.1 10.85 4.05 10.85 4.3 Q10.75 4.65 10.75 4.95 10.7 4.95 10.65 5.0 L10.55 5.0 10.25 4.9 9.95 4.65 Q9.8 4.9 9.8 5.15 9.75 5.15 9.75 5.2 L9.35 5.05 9.3 5.15 Q9.45 5.2 9.6 5.35 9.7 5.45 9.7 5.65 L9.65 5.75 9.55 5.95 Q9.75 6.25 9.75 6.5 L9.95 6.5 10.15 6.45 Q10.2 6.45 10.4 6.55 L10.85 6.75 Q10.85 6.9 10.75 7.05 10.6 7.3 10.35 7.3 L10.2 7.25 Q10.1 7.15 10.0 7.15 L9.85 7.2 9.7 7.35 9.65 7.35 9.7 7.2 9.7 7.05 9.6 7.05 Q9.6 7.2 9.45 7.4 9.35 7.55 9.35 7.7 9.55 7.65 9.8 7.8 10.0 7.95 9.95 8.2 9.9 8.25 10.05 8.25 L10.75 8.0 Q10.85 8.0 10.95 8.1 L11.15 8.35 Q11.1 8.4 10.75 8.55 L10.4 8.65 9.75 8.55 9.8 8.6 Q9.75 8.8 9.7 8.75 9.6 8.75 9.35 8.95 L9.5 9.2 9.55 9.25 Q9.75 9.4 10.05 9.45 10.25 9.45 10.45 9.65 10.65 9.8 10.8 9.75 10.95 10.0 11.3 9.95 11.25 10.35 11.25 10.5 11.55 10.45 11.7 10.6 11.85 10.7 11.85 10.95 11.85 11.15 11.1 11.25 L9.4 11.0 Q9.3 11.0 9.0 11.1 L8.55 11.25 8.2 11.2 8.05 11.1 7.95 10.95 7.75 10.95 7.7 11.0 7.85 11.15 Q7.7 11.5 7.3 11.55 7.0 11.6 6.95 11.85 6.7 11.95 6.45 11.8 6.2 11.6 6.25 11.25 5.9 11.25 5.8 11.5 L5.75 11.45 5.6 11.45 Q5.55 11.45 5.4 11.6 5.25 11.75 5.1 11.75 L4.95 11.65 4.95 11.6 4.9 11.7 4.8 11.8 4.5 11.65 4.25 12.0 3.95 11.75 3.95 12.0 3.8 12.0 Q3.75 11.95 3.4 11.85 L3.05 11.65 2.85 11.3 2.65 11.1 2.7 11.3 2.7 11.5 Q2.65 11.65 2.4 11.65 L2.25 11.6 Q2.15 11.5 2.05 11.5 2.0 11.5 1.8 11.65 L1.5 11.8 1.35 11.75 1.3 11.75 1.3 11.6 1.25 11.45 Q1.15 11.55 0.95 11.6 L0.8 11.65 Q0.75 11.65 0.6 11.55 L0.55 11.75 Q0.45 12.0 0.15 12.0 0.05 12.0 -0.3 11.65 L-0.75 11.95 Q-1.05 12.05 -1.1 12.05 L-1.25 12.05 -1.35 12.0 -1.35 11.7 -1.3 11.45 -1.6 11.4 -1.6 11.5 -2.0 11.5 Q-1.9 11.75 -2.1 11.95 L-2.15 11.95 Q-2.3 12.05 -2.5 12.05 L-2.7 12.05 -2.8 12.0 Q-2.85 12.0 -3.05 12.1 L-3.3 12.15 -3.65 12.1 Q-3.95 12.0 -4.0 12.0 -3.85 11.8 -4.0 11.6 -4.1 11.45 -4.25 11.45 L-4.55 11.35 -4.95 11.45 -5.3 11.55 Q-5.2 11.4 -5.5 11.25 -5.75 11.1 -5.9 11.1 L-5.85 11.2 -5.8 11.4 -5.95 11.75 Q-6.15 12.05 -6.3 12.05 L-6.45 12.05 -6.5 12.0 -6.5 11.65 -6.45 11.55 -6.45 11.5 -6.65 11.65 -6.9 11.75 -7.15 11.65 Q-7.1 11.2 -7.25 10.95 L-7.25 11.0 -7.45 11.2 -7.4 11.2 Q-7.35 11.2 -7.35 11.35 -7.35 11.6 -7.65 11.7 L-8.5 11.85 -8.5 11.75 -8.55 11.65 -8.6 11.7 -8.65 11.7 Q-8.95 11.85 -9.2 11.85 -9.5 11.85 -9.7 11.7 L-9.8 11.6 -10.0 11.45 Q-10.1 11.7 -10.4 11.85 -10.7 12.0 -11.05 12.0 -11.3 12.0 -11.4 11.85 L-11.55 11.55 Q-12.0 11.75 -12.2 11.75 -12.45 11.75 -12.55 11.6 L-12.6 11.55 Q-12.7 11.4 -12.65 11.15 L-13.05 11.1 -13.05 11.25 Q-13.4 11.1 -13.55 11.1 L-13.6 11.1 -13.65 11.1 Q-13.75 11.1 -14.05 11.25 -14.35 11.45 -14.5 11.45 L-14.65 11.4 -14.9 11.25 -15.05 11.35 Q-15.2 11.5 -15.3 11.5 -15.5 11.5 -15.6 11.3 -15.75 11.1 -15.9 11.1 -16.0 11.1 -16.25 11.2 L-16.55 11.3 Q-16.7 11.3 -16.85 11.1 -17.0 10.85 -17.05 10.85 L-17.45 11.0 -17.9 11.1 Q-18.05 11.1 -18.2 10.95 -18.35 10.8 -18.35 10.7 L-18.3 10.5 -18.2 10.45 -17.9 10.45 Q-17.7 10.4 -17.55 10.2 L-18.15 10.2 Q-18.6 10.2 -18.6 9.9 -18.6 9.7 -18.4 9.55 L-18.15 9.5 -17.9 9.55 -17.9 9.1 Q-17.8 8.8 -17.65 8.8 -17.6 8.8 -17.35 8.9 L-17.1 9.05 Q-17.0 9.05 -16.9 8.95 L-16.65 8.85 Q-16.3 9.1 -16.2 9.1 -16.25 8.45 -15.95 8.25 L-15.65 8.25 -15.65 7.95 -15.55 7.65 Q-15.5 7.35 -15.35 7.2 -15.45 6.95 -15.6 6.95 L-15.8 7.0 -15.9 7.05 -16.0 7.1 Q-16.35 7.1 -16.35 6.65 L-16.3 6.45 -16.25 6.3 -16.15 6.4 Q-16.1 6.45 -15.95 6.45 L-15.95 6.45 -15.8 6.4 -16.2 6.15 Q-16.3 6.15 -16.4 6.3 L-16.5 6.45 Q-16.7 6.6 -17.0 6.6 -17.2 6.6 -17.45 6.4 L-17.9 6.0 -17.95 6.1 -18.1 6.15 Q-18.4 6.15 -18.45 5.1 -18.75 5.2 -19.05 4.85 -19.3 4.55 -19.3 4.3 L-19.3 3.95 -19.25 3.65 -19.1 3.65 -18.95 3.8 -18.75 3.9 -18.55 3.45 Q-18.45 3.3 -18.35 3.3 -18.25 3.3 -18.1 3.4 -18.0 3.5 -17.85 3.5 -17.7 3.5 -17.5 3.4 -17.3 3.25 -17.25 3.1 -17.35 3.05 -17.4 2.8 -17.5 2.55 -17.45 2.45 -17.75 2.5 -18.35 1.95 -18.2 1.8 -18.2 1.65 -18.2 1.5 -18.45 1.3 -18.7 1.1 -18.7 0.8 -18.7 0.6 -18.55 0.5 L-18.35 0.2 -17.95 0.15 -17.65 0.05 -17.05 0.25 Q-16.9 0.1 -16.9 -0.1 L-16.85 -0.25 Q-16.75 -0.35 -16.75 -0.4 L-17.2 -0.55 Q-17.35 -0.6 -17.35 -0.8 -17.35 -0.95 -17.2 -1.0 -17.05 -1.05 -17.0 -1.1 -16.95 -1.1 -17.05 -1.25 L-17.2 -1.4 Q-17.2 -1.55 -17.05 -1.75 -16.9 -1.95 -16.8 -1.95 L-16.4 -1.65 Q-16.4 -1.85 -16.25 -1.95 L-16.05 -2.1 -15.95 -1.85 -15.9 -1.6 -15.8 -1.6 -15.55 -1.65 -15.35 -1.7 Q-15.25 -1.75 -15.2 -1.8 L-15.25 -2.6 Q-15.2 -3.0 -14.6 -3.0 L-14.55 -3.0 Q-14.75 -4.0 -13.75 -4.3 L-13.75 -4.4 -13.6 -4.45 -13.55 -4.45 Q-13.3 -4.4 -12.9 -3.95 -12.7 -4.15 -12.7 -4.95 L-11.95 -5.15 -11.6 -5.2 -11.5 -5.2 Q-11.4 -5.35 -11.3 -5.35 -11.25 -5.15 -11.35 -4.95 L-11.3 -4.8 -11.0 -5.05 Q-10.9 -5.2 -10.7 -5.2 L-10.6 -4.8 Q-10.5 -4.5 -10.4 -4.5 -10.2 -4.5 -9.95 -4.65 L-9.9 -4.7 -9.7 -4.9 Q-9.7 -5.0 -9.75 -5.15 L-9.85 -5.35 Q-9.7 -5.35 -9.5 -5.45 -9.2 -5.55 -9.0 -5.7 L-8.65 -6.05 -8.35 -6.2 Q-8.15 -6.2 -7.95 -5.95 -7.8 -5.7 -7.7 -5.65 L-7.7 -6.1 -7.5 -6.0 -7.45 -5.95 -7.4 -6.0 -7.2 -5.95 -7.2 -5.95 -6.95 -5.85 -6.95 -5.85 -6.7 -5.8 -6.5 -5.8 -6.45 -6.05 -6.45 -6.45 -6.4 -6.35 -6.25 -6.35 -6.25 -6.35 Q-6.2 -6.35 -5.75 -6.6 L-5.35 -6.8 -5.1 -6.75 Q-4.95 -6.6 -4.95 -6.3 L-4.4 -6.8 Q-4.4 -6.6 -4.55 -6.45 L-4.1 -6.6 -3.65 -6.65 Q-3.45 -6.65 -3.4 -6.3 -3.1 -6.2 -2.6 -6.4 L-1.85 -6.7 -1.9 -5.95 Q-1.8 -5.6 -1.4 -5.85 -1.45 -6.15 -1.35 -6.1 L-1.15 -5.85 -1.15 -5.4 -0.85 -5.25 -0.65 -5.45 Q-0.15 -5.2 -0.35 -4.75 -0.5 -4.45 -1.0 -4.15 -0.45 -4.3 -0.2 -4.1 0.05 -3.85 -0.1 -3.3 -0.1 -3.1 -0.45 -2.75 -0.75 -2.45 -0.7 -2.1 -0.35 -1.85 -0.2 -1.7 -0.05 -1.4 -0.15 -1.05 L-0.15 -0.65 Q-0.1 -0.4 0.1 -0.3 M5.35 -0.4 L5.45 -0.4 5.35 -0.4 5.35 -0.4 M-7.35 -4.7 Q-7.5 -4.45 -7.65 -4.4 -7.75 -4.4 -7.75 -4.55 -7.8 -4.65 -7.7 -4.7 L-7.35 -4.7 M-5.75 8.6 L-5.35 8.6 Q-5.3 8.5 -5.35 8.4 -5.45 8.25 -5.55 8.3 -5.7 8.35 -5.75 8.6 M-15.65 8.25 L-15.65 8.25 -15.65 8.25 M-8.55 11.3 L-8.5 11.35 -8.5 11.35 -8.55 11.3 Z" fill="none" stroke="#000000" stroke-linecap="round" stroke-linejoin="round" stroke-opacity="0.4509804" stroke-width="1.0"/>
  </g>
</svg>
