<?xml version="1.0" encoding="UTF-8" standalone="no"?>
<svg xmlns:xlink="http://www.w3.org/1999/xlink" height="5.75px" width="2.5px" xmlns="http://www.w3.org/2000/svg">
  <g transform="matrix(1.0, 0.0, 0.0, 1.0, 1.25, 2.85)">
    <path d="M0.0 -1.5 L0.0 -1.5 0.0 -1.5 M0.25 -2.65 L0.55 -2.45 0.6 -2.4 0.7 -2.3 0.9 -2.05 1.05 -1.8 1.05 -1.75 1.1 -1.55 1.1 -1.5 1.15 -1.5 1.2 -1.2 1.25 -0.85 1.25 -0.5 Q1.25 -0.3 1.1 -0.15 L1.0 0.05 1.0 0.1 0.95 0.25 0.8 0.7 0.75 0.8 Q0.6 1.15 0.6 1.6 L0.6 1.65 Q0.7 1.85 0.6 2.05 0.55 2.2 0.6 2.35 L0.55 2.4 0.55 2.45 0.5 2.55 0.4 2.65 0.35 2.65 0.3 2.7 0.15 2.8 Q0.1 2.8 0.05 2.8 L0.05 2.85 Q-0.1 2.95 -0.2 2.85 -0.25 2.75 -0.3 2.8 -0.4 2.8 -0.45 2.75 L-0.5 2.7 -0.5 2.65 -0.55 2.6 -0.7 2.15 -0.75 1.95 -0.75 1.65 Q-0.75 1.55 -0.8 1.5 L-0.85 1.2 -0.85 1.1 -0.9 0.9 -0.95 0.7 -0.95 0.65 -1.0 0.6 -1.05 0.35 -1.1 -0.05 -1.15 -0.6 -1.2 -0.7 -1.25 -1.1 -1.25 -1.1 -1.25 -1.5 -1.1 -1.9 -1.0 -2.1 -0.95 -2.2 Q-0.95 -2.25 -0.95 -2.3 L-0.85 -2.45 -0.8 -2.5 -0.7 -2.55 Q-0.65 -2.6 -0.6 -2.7 L-0.6 -2.7 -0.55 -2.7 Q-0.5 -2.8 -0.45 -2.8 L-0.3 -2.85 -0.25 -2.85 0.05 -2.75 0.25 -2.65" fill="#9a9a9a" fill-rule="evenodd" stroke="none"/>
  </g>
</svg>
