<?xml version="1.0" encoding="UTF-8" standalone="no"?>
<svg xmlns:xlink="http://www.w3.org/1999/xlink" height="5.3px" width="4.1px" xmlns="http://www.w3.org/2000/svg">
  <g transform="matrix(1.0, 0.0, 0.0, 1.0, 2.05, 2.65)">
    <path d="M0.85 -2.55 L0.9 -2.6 0.95 -2.55 1.0 -2.6 1.25 -2.6 1.4 -2.6 1.45 -2.55 Q1.55 -2.55 1.6 -2.45 L1.6 -2.45 1.65 -2.4 1.65 -2.4 1.6 -2.35 1.6 -2.25 1.65 -2.25 1.65 -2.25 1.7 -2.2 1.7 -2.2 1.8 -2.05 1.8 -2.05 1.85 -1.95 1.9 -1.9 1.9 -1.9 1.95 -1.75 2.0 -1.7 Q2.05 -1.55 2.05 -1.35 L2.0 -1.15 2.0 -1.0 1.95 -0.9 1.9 -0.85 1.8 -0.65 1.8 -0.65 1.7 -0.5 1.65 -0.45 1.55 -0.25 1.5 -0.25 1.3 -0.05 1.25 0.0 1.1 0.1 0.9 0.15 0.7 0.2 0.65 0.25 0.65 0.35 0.55 0.65 0.45 0.95 0.35 1.1 0.35 1.2 0.2 1.4 0.15 1.45 0.15 1.5 0.1 1.55 -0.25 1.95 -0.25 1.95 -0.3 2.0 -0.4 2.1 -0.45 2.15 -0.6 2.25 -0.75 2.35 -0.75 2.35 -0.85 2.45 -0.85 2.45 -0.9 2.5 -0.9 2.55 -1.05 2.6 -1.2 2.65 Q-1.45 2.65 -1.65 2.5 L-1.7 2.5 -1.9 2.3 -1.95 2.3 -1.95 2.25 -2.0 2.15 -2.0 2.15 -2.05 2.05 -2.0 1.8 -2.0 1.65 -2.0 1.35 -1.9 0.9 -1.85 0.75 -1.8 0.6 -1.8 0.55 -1.75 0.55 -1.7 0.4 -1.6 0.3 -1.55 0.2 -1.45 0.05 -1.45 0.05 -1.3 -0.1 -1.3 -0.15 -1.25 -0.4 -1.25 -0.7 -1.2 -1.0 -1.15 -1.05 -1.1 -1.15 -1.1 -1.2 -0.9 -1.5 -0.9 -1.55 -0.7 -1.75 -0.6 -1.9 -0.5 -2.05 -0.5 -2.05 -0.45 -2.1 -0.35 -2.2 -0.25 -2.25 -0.2 -2.3 -0.1 -2.4 -0.05 -2.4 0.0 -2.4 0.0 -2.45 0.05 -2.45 0.1 -2.5 Q0.3 -2.65 0.6 -2.55 L0.85 -2.55 M1.15 -0.9 L1.1 -0.85 1.1 -0.85 1.15 -0.9" fill="#8e8e8e" fill-rule="evenodd" stroke="none"/>
  </g>
</svg>
