<?xml version="1.0" encoding="UTF-8" standalone="no"?>
<svg xmlns:xlink="http://www.w3.org/1999/xlink" height="3.3px" width="2.7px" xmlns="http://www.w3.org/2000/svg">
  <g transform="matrix(1.0, 0.0, 0.0, 1.0, 1.35, 1.65)">
    <path d="M-0.85 0.35 L-0.95 0.5 -0.95 0.5 -0.9 0.5 -0.85 0.35 M0.0 -1.55 L0.05 -1.55 0.15 -1.5 0.15 -1.5 0.2 -1.45 0.25 -1.45 0.3 -1.4 0.3 -1.3 0.3 -1.25 0.35 -1.2 0.35 -1.15 0.4 -1.1 0.45 -1.1 0.45 -1.1 Q0.5 -1.1 0.5 -1.05 L0.55 -1.05 0.6 -1.05 0.65 -0.9 0.65 -0.9 0.75 -0.7 0.8 -0.7 0.85 -0.65 0.95 -0.45 1.05 -0.3 1.15 -0.2 1.15 -0.15 1.25 -0.1 1.35 0.05 1.35 0.1 1.3 0.25 1.3 0.3 1.3 0.65 Q1.25 0.75 1.2 0.85 1.15 0.9 1.1 0.85 L1.05 0.7 1.0 0.5 0.9 0.2 0.85 0.2 0.8 0.1 0.8 0.0 0.75 0.05 0.7 0.0 0.6 0.0 Q0.5 -0.1 0.4 0.0 L0.35 0.05 0.25 0.15 0.15 0.35 Q0.1 0.4 0.1 0.5 L0.1 0.55 0.15 0.7 0.15 0.85 0.15 1.15 0.15 1.6 0.1 1.6 0.05 1.65 0.0 1.65 -0.05 1.55 -0.15 1.3 -0.2 1.0 -0.2 1.0 -0.25 0.9 -0.25 0.85 -0.3 0.75 -0.35 0.65 -0.4 0.6 Q-0.4 0.55 -0.45 0.6 L-0.45 0.6 -0.5 0.65 Q-0.55 0.75 -0.5 0.85 L-0.45 0.95 Q-0.45 1.0 -0.65 1.0 L-0.65 1.05 -0.7 0.95 -0.75 1.0 -0.8 1.0 -0.95 0.85 -0.95 0.85 -1.05 0.85 -1.05 0.85 -1.15 0.75 -1.15 0.45 -1.25 0.35 -1.3 0.2 -1.35 0.05 -1.35 -0.15 -1.2 -0.3 -1.2 -0.35 -1.1 -0.65 -1.05 -0.8 -1.05 -0.8 -1.0 -0.9 -0.85 -1.2 -0.8 -1.25 -0.8 -1.3 -0.75 -1.4 -0.7 -1.55 -0.65 -1.55 -0.6 -1.6 -0.55 -1.65 -0.4 -1.65 -0.3 -1.65 -0.25 -1.65 0.0 -1.55" fill="#989898" fill-rule="evenodd" stroke="none"/>
  </g>
</svg>
