<?xml version="1.0" encoding="UTF-8" standalone="no"?>
<svg xmlns:xlink="http://www.w3.org/1999/xlink" height="7.6px" width="2.3px" xmlns="http://www.w3.org/2000/svg">
  <g transform="matrix(1.0, 0.0, 0.0, 1.0, 1.15, 3.8)">
    <path d="M0.5 -2.15 L0.5 -2.2 0.45 -2.35 0.35 -2.5 0.3 -2.55 0.2 -2.35 Q0.1 -2.2 0.05 -2.05 0.0 -1.65 0.0 -1.3 L0.0 -1.15 0.0 -0.7 0.0 0.65 0.1 1.0 0.15 1.25 Q0.2 1.4 0.3 1.55 L0.35 1.65 0.35 1.7 0.55 1.75 0.65 1.75 0.7 1.7 0.75 1.45 0.8 0.75 0.75 -0.95 0.75 -1.1 0.7 -1.25 Q0.7 -1.75 0.5 -2.15 M-0.3 -3.75 L-0.3 -3.8 -0.05 -3.8 Q0.1 -3.8 0.2 -3.7 L0.35 -3.5 0.5 -3.3 0.6 -3.05 0.65 -2.9 0.7 -2.7 0.75 -2.45 0.8 -2.25 0.9 -1.95 0.9 -1.8 0.95 -1.65 1.0 -1.5 1.05 -1.25 1.05 -0.95 1.1 -0.85 1.1 -0.7 1.15 -0.45 1.15 -0.2 1.15 0.25 1.15 0.7 1.15 1.15 1.1 1.45 1.1 1.65 1.05 1.95 1.0 2.25 0.95 2.45 0.9 2.7 0.9 3.15 0.85 3.4 0.75 3.6 0.6 3.75 0.3 3.8 0.15 3.8 0.05 3.65 Q0.0 3.6 0.0 3.4 L-0.1 3.1 -0.2 2.6 -0.25 2.15 -0.3 1.7 -0.55 1.05 -0.75 0.45 -0.8 0.1 -0.8 0.0 -0.85 -0.45 -0.9 -0.9 -0.75 -1.5 -0.7 -1.7 Q-0.3 -2.95 -0.3 -3.75" fill="#fcd9b5" fill-rule="evenodd" stroke="none"/>
    <path d="M0.0 -0.7 L0.0 -1.15 0.0 -1.3 Q0.0 -1.65 0.05 -2.05 0.1 -2.2 0.2 -2.35 L0.3 -2.55 0.35 -2.5 0.45 -2.35 0.5 -2.2 0.5 -2.15 0.55 -1.75 0.5 -1.15 0.5 -0.9 Q0.4 -0.45 0.25 -0.45 0.15 -0.45 0.0 -0.7" fill="#fcf3dd" fill-rule="evenodd" stroke="none"/>
    <path d="M0.5 -2.15 Q0.7 -1.75 0.7 -1.25 L0.75 -1.1 0.75 -0.95 0.8 0.75 0.75 1.45 0.7 1.7 0.65 1.75 0.55 1.75 0.35 1.7 0.35 1.65 0.3 1.55 Q0.2 1.4 0.15 1.25 L0.1 1.0 0.0 0.65 0.0 -0.7 Q0.15 -0.45 0.25 -0.45 0.4 -0.45 0.5 -0.9 L0.5 -1.15 0.55 -1.75 0.5 -2.15" fill="#fce7c6" fill-rule="evenodd" stroke="none"/>
    <path d="M-0.3 -3.75 Q-0.3 -2.95 -0.7 -1.7 L-0.75 -1.5 -0.9 -0.9 -0.85 -0.45 -0.8 0.0 -0.8 0.1 -0.75 0.45 -0.55 1.05 -0.3 1.7 -0.25 2.15 -0.2 2.6 -0.1 3.1 0.0 3.4 Q0.0 3.6 0.05 3.65 L0.15 3.8 0.1 3.75 0.0 3.75 -0.05 3.65 -0.2 3.55 -0.3 3.3 -0.35 3.05 -0.35 2.85 -0.4 2.55 -0.45 2.25 -0.5 2.05 -0.55 1.8 -0.6 1.65 -0.7 1.35 -0.75 1.1 -0.8 0.95 -0.85 0.8 -0.85 0.65 -0.9 0.5 -0.95 0.2 -1.0 0.05 -1.0 -0.05 -1.05 -0.25 -1.1 -0.5 -1.1 -0.85 -1.15 -1.1 -1.15 -1.3 -1.15 -1.75 -1.1 -1.8 -1.1 -2.1 -1.05 -2.4 -0.95 -2.7 -0.95 -2.8 -0.85 -3.05 -0.75 -3.25 -0.65 -3.45 -0.5 -3.65 -0.3 -3.75" fill="#f6cba8" fill-rule="evenodd" stroke="none"/>
    <path d="M0.85 3.4 L0.9 3.15 0.9 2.7 0.95 2.45 1.0 2.25 1.05 1.95 1.1 1.65 1.1 1.45 1.15 1.15 1.15 0.7 1.15 0.25 1.15 -0.2 1.15 -0.45 1.1 -0.7 1.1 -0.85 1.05 -0.95 1.05 -1.25 1.0 -1.5 0.95 -1.65 0.9 -1.8 0.9 -1.95 0.8 -2.25 0.75 -2.45 0.7 -2.7 0.65 -2.9 0.6 -3.05 0.5 -3.3 0.35 -3.5 0.2 -3.7 Q0.1 -3.8 -0.05 -3.8 L-0.3 -3.8 -0.3 -3.75 -0.5 -3.65 -0.65 -3.45 -0.75 -3.25 -0.85 -3.05 -0.95 -2.8 -0.95 -2.7 -1.05 -2.4 -1.1 -2.1 -1.1 -1.8 -1.15 -1.75 -1.15 -1.3 -1.15 -1.1 -1.1 -0.85 -1.1 -0.5 -1.05 -0.25 -1.0 -0.05 -1.0 0.05 -0.95 0.2 -0.9 0.5 -0.85 0.65 -0.85 0.8 -0.8 0.95 -0.75 1.1 -0.7 1.35 -0.6 1.65 -0.55 1.8 -0.5 2.05 -0.45 2.25 -0.4 2.55 -0.35 2.85 -0.35 3.05 -0.3 3.3 -0.2 3.55 -0.05 3.65" fill="none" stroke="#000000" stroke-linecap="round" stroke-linejoin="round" stroke-opacity="0.4509804" stroke-width="1.0"/>
    <path d="M-0.3 -3.75 L-0.3 -3.8 -0.05 -3.8 Q0.1 -3.8 0.2 -3.7 L0.35 -3.5 0.5 -3.3 0.6 -3.05 0.65 -2.9 0.7 -2.7 0.75 -2.45 0.8 -2.25 0.9 -1.95 0.9 -1.8 0.95 -1.65 1.0 -1.5 1.05 -1.25 1.05 -0.95 1.1 -0.85 1.1 -0.7 1.15 -0.45 1.15 -0.2 1.15 0.25 1.15 0.7 1.15 1.15 1.1 1.45 1.1 1.65 1.05 1.95 1.0 2.25 0.95 2.45 0.9 2.7 0.9 3.15 0.85 3.4 0.75 3.6 0.6 3.75 0.3 3.8 0.15 3.8 0.05 3.65 Q0.0 3.6 0.0 3.4 L-0.1 3.1 -0.2 2.6 -0.25 2.15 -0.3 1.7 -0.55 1.05 -0.75 0.45 -0.8 0.1 -0.8 0.0 -0.85 -0.45 -0.9 -0.9 -0.75 -1.5 -0.7 -1.7 Q-0.3 -2.95 -0.3 -3.75 M0.35 -2.5 L0.3 -2.55 0.2 -2.35 Q0.1 -2.2 0.05 -2.05 0.0 -1.65 0.0 -1.3 L0.0 -0.8 0.0 0.65 0.1 1.0 0.15 1.25 Q0.2 1.4 0.3 1.55 L0.35 1.65 0.35 1.7 0.55 1.75 0.65 1.75 0.7 1.7 0.75 1.45 0.8 0.75 0.75 -0.95 0.75 -1.1 0.7 -1.25 Q0.7 -1.75 0.5 -2.15 L0.5 -2.2 0.45 -2.35 0.35 -2.5" fill="#3a3532" fill-rule="evenodd" stroke="none"/>
    <path d="M-0.3 -3.75 Q-0.3 -2.95 -0.7 -1.7 L-0.75 -1.5 -0.9 -0.9 -0.85 -0.45 -0.8 0.0 -0.8 0.1 -0.75 0.45 -0.55 1.05 -0.3 1.7 -0.25 2.15 -0.2 2.6 -0.1 3.1 0.0 3.4 Q0.0 3.6 0.05 3.65 L0.15 3.8 0.1 3.75 0.0 3.75 -0.05 3.65 -0.2 3.55 -0.3 3.3 -0.35 3.05 -0.35 2.85 -0.4 2.55 -0.45 2.25 -0.5 2.05 -0.55 1.8 -0.6 1.65 -0.7 1.35 -0.75 1.1 -0.8 0.95 -0.85 0.8 -0.85 0.65 -0.9 0.5 -0.95 0.2 -1.0 0.05 -1.0 -0.05 -1.05 -0.25 -1.1 -0.5 -1.1 -0.85 -1.15 -1.1 -1.15 -1.3 -1.15 -1.75 -1.1 -1.8 -1.1 -2.1 -1.05 -2.4 -0.95 -2.7 -0.95 -2.8 -0.85 -3.05 -0.75 -3.25 -0.65 -3.45 -0.5 -3.65 -0.3 -3.75" fill="#312d2a" fill-rule="evenodd" stroke="none"/>
    <path d="M0.35 -2.5 L0.45 -2.35 0.5 -2.2 0.5 -2.15 Q0.7 -1.75 0.7 -1.25 L0.75 -1.1 0.75 -0.95 0.8 0.75 0.75 1.45 0.7 1.7 0.65 1.75 0.55 1.75 0.35 1.7 0.35 1.65 0.3 1.55 Q0.2 1.4 0.15 1.25 L0.1 1.0 0.0 0.65 0.0 -0.8 0.0 -1.3 Q0.0 -1.65 0.05 -2.05 0.1 -2.2 0.2 -2.35 L0.3 -2.55 0.35 -2.5" fill="#413b38" fill-rule="evenodd" stroke="none"/>
    <path d="M0.85 3.4 L0.9 3.15 0.9 2.7 0.95 2.45 1.0 2.25 1.05 1.95 1.1 1.65 1.1 1.45 1.15 1.15 1.15 0.7 1.15 0.25 1.15 -0.2 1.15 -0.45 1.1 -0.7 1.1 -0.85 1.05 -0.95 1.05 -1.25 1.0 -1.5 0.95 -1.65 0.9 -1.8 0.9 -1.95 0.8 -2.25 0.75 -2.45 0.7 -2.7 0.65 -2.9 0.6 -3.05 0.5 -3.3 0.35 -3.5 0.2 -3.7 Q0.1 -3.8 -0.05 -3.8 L-0.3 -3.8 -0.3 -3.75 -0.5 -3.65 -0.65 -3.45 -0.75 -3.25 -0.85 -3.05 -0.95 -2.8 -0.95 -2.7 -1.05 -2.4 -1.1 -2.1 -1.1 -1.8 -1.15 -1.75 -1.15 -1.3 -1.15 -1.1 -1.1 -0.85 -1.1 -0.5 -1.05 -0.25 -1.0 -0.05 -1.0 0.05 -0.95 0.2 -0.9 0.5 -0.85 0.65 -0.85 0.8 -0.8 0.95 -0.75 1.1 -0.7 1.35 -0.6 1.65 -0.55 1.8 -0.5 2.05 -0.45 2.25 -0.4 2.55 -0.35 2.85 -0.35 3.05 -0.3 3.3 -0.2 3.55 -0.05 3.65" fill="none" stroke="#000000" stroke-linecap="round" stroke-linejoin="round" stroke-opacity="0.4509804" stroke-width="1.0"/>
  </g>
</svg>
