<?xml version="1.0" encoding="UTF-8" standalone="no"?>
<svg xmlns:xlink="http://www.w3.org/1999/xlink" height="3.45px" width="3.45px" xmlns="http://www.w3.org/2000/svg">
  <g transform="matrix(1.0, 0.0, 0.0, 1.0, 1.7, 1.7)">
    <path d="M0.7 -1.55 Q0.7 -1.5 0.6 -1.5 0.55 -1.5 0.5 -1.45 L0.6 -1.45 0.65 -1.45 0.6 -1.45 0.55 -1.4 0.5 -1.4 Q0.4 -1.4 0.4 -1.45 L0.45 -1.5 0.5 -1.5 0.5 -1.55 0.45 -1.55 Q0.35 -1.55 0.35 -1.6 L0.3 -1.6 0.25 -1.6 0.2 -1.55 0.25 -1.55 0.25 -1.55 0.35 -1.55 0.45 -1.55 0.4 -1.5 0.35 -1.5 0.35 -1.35 0.4 -1.35 0.45 -1.35 0.45 -1.35 0.55 -1.4 0.6 -1.4 0.7 -1.5 0.8 -1.5 0.9 -1.45 0.95 -1.4 0.9 -1.3 0.85 -1.3 0.8 -1.3 0.55 -1.3 Q0.45 -1.3 0.35 -1.2 L0.45 -1.2 0.55 -1.2 Q0.65 -1.25 0.65 -1.15 L0.5 -1.15 0.5 -1.15 0.55 -1.15 0.6 -1.15 0.65 -1.1 0.7 -1.15 0.7 -1.2 0.65 -1.25 0.7 -1.25 0.8 -1.15 Q0.8 -1.05 0.7 -1.0 L0.7 -1.05 0.7 -1.0 0.65 -0.95 0.5 -1.05 Q0.4 -1.05 0.35 -1.1 L-0.1 -1.15 -0.5 -1.0 Q-0.7 -0.95 -0.8 -0.8 -1.0 -0.65 -1.05 -0.45 L-1.15 -0.2 -1.15 0.05 -1.05 0.45 -0.9 0.75 -0.75 0.9 -0.6 1.0 Q-0.3 1.2 0.1 1.15 0.5 1.15 0.75 0.9 0.75 1.0 0.7 1.05 L0.6 1.1 0.5 1.15 0.3 1.2 0.15 1.25 0.1 1.25 0.1 1.2 -0.1 1.2 -0.3 1.25 -0.3 1.25 -0.25 1.3 -0.3 1.3 Q-0.3 1.25 -0.4 1.2 L-0.55 1.1 -0.7 1.15 -0.9 1.15 -0.75 1.1 -0.6 1.1 -0.7 1.05 -0.75 1.05 -0.7 1.05 Q-0.75 1.0 -0.75 1.0 L-0.85 1.05 -0.8 1.0 -0.8 1.0 -1.0 0.75 -1.2 0.45 -1.2 0.2 Q-1.25 0.1 -1.35 0.15 L-1.35 0.1 -1.25 0.1 -1.2 0.1 -1.2 -0.1 -1.15 -0.25 Q-1.15 -0.45 -1.05 -0.55 L-1.05 -0.6 -1.1 -0.55 -1.1 -0.6 -1.0 -0.65 -1.0 -0.7 -0.75 -0.9 -0.55 -1.1 -0.45 -1.1 -0.35 -1.2 -0.35 -1.15 -0.3 -1.15 -0.25 -1.2 -0.2 -1.25 -0.2 -1.2 -0.15 -1.2 Q-0.1 -1.2 -0.05 -1.2 L0.0 -1.2 0.1 -1.2 0.15 -1.15 0.2 -1.2 0.2 -1.2 0.15 -1.25 0.05 -1.25 -0.05 -1.25 -0.05 -1.3 0.0 -1.35 -0.05 -1.3 0.0 -1.3 0.05 -1.35 0.15 -1.3 0.2 -1.25 0.25 -1.2 0.3 -1.3 0.3 -1.35 0.25 -1.4 0.2 -1.5 Q0.15 -1.45 0.15 -1.5 L0.1 -1.55 -0.05 -1.55 -0.2 -1.55 -0.3 -1.45 -0.4 -1.3 -0.45 -1.3 -0.5 -1.3 -0.55 -1.3 -0.55 -1.35 -0.7 -1.35 -0.8 -1.3 -0.85 -1.35 Q-0.9 -1.25 -1.05 -1.25 -1.05 -1.2 -1.0 -1.2 L-0.95 -1.2 -1.0 -1.1 -1.05 -1.0 -1.1 -0.95 Q-1.1 -0.9 -1.1 -0.9 L-1.1 -0.8 -1.2 -0.75 -1.25 -0.8 Q-1.25 -0.75 -1.35 -0.65 L-1.45 -0.6 -1.45 -0.55 Q-1.45 -0.5 -1.5 -0.45 L-1.55 -0.35 -1.5 -0.3 -1.5 -0.25 -1.45 -0.15 -1.4 -0.1 -1.35 0.0 -1.4 0.1 -1.45 0.25 Q-1.5 0.3 -1.45 0.4 L-1.5 0.5 -1.5 0.5 -1.45 0.5 -1.45 0.55 -1.35 0.6 -1.3 0.65 -1.25 0.65 Q-1.15 0.7 -1.1 0.75 L-1.1 0.85 Q-1.15 0.95 -1.1 0.95 -1.1 1.05 -1.0 1.15 L-0.9 1.2 -0.8 1.3 -0.9 1.35 -1.0 1.4 -1.45 0.95 Q-1.6 0.7 -1.65 0.4 -1.65 0.35 -1.65 0.15 L-1.65 -0.15 Q-1.6 -0.6 -1.4 -0.95 -1.15 -1.3 -0.8 -1.5 -0.75 -1.5 -0.7 -1.55 L-0.6 -1.6 0.05 -1.7 Q0.45 -1.7 0.7 -1.55 M-1.65 -0.15 Q-1.6 -0.2 -1.6 -0.15 -1.6 -0.1 -1.6 -0.1 L-1.6 0.1 -1.55 0.25 -1.55 0.15 Q-1.5 0.1 -1.55 0.1 L-1.55 0.1 -1.5 0.1 Q-1.45 0.05 -1.5 0.05 L-1.5 0.0 -1.45 0.05 -1.45 0.0 -1.5 0.0 -1.45 -0.1 -1.5 -0.15 -1.55 -0.2 -1.55 -0.25 Q-1.55 -0.3 -1.6 -0.25 L-1.65 -0.15 M-0.65 -1.5 L-0.7 -1.5 -0.75 -1.45 -0.75 -1.4 -0.7 -1.4 Q-0.7 -1.45 -0.7 -1.4 L-0.65 -1.4 -0.5 -1.5 -0.35 -1.5 Q-0.3 -1.5 -0.4 -1.5 L-0.4 -1.55 -0.3 -1.55 Q-0.25 -1.6 -0.35 -1.6 L-0.5 -1.55 -0.65 -1.5 M-1.15 -0.95 Q-1.15 -0.95 -1.15 -1.0 L-1.15 -1.05 -1.15 -1.05 -1.1 -1.1 -1.15 -1.15 -1.35 -0.9 -1.45 -0.7 -1.5 -0.7 -1.45 -0.7 -1.4 -0.75 Q-1.35 -0.8 -1.3 -0.8 L-1.15 -0.85 -1.15 -0.9 -1.2 -0.9 -1.25 -0.9 Q-1.3 -0.9 -1.3 -0.9 L-1.25 -0.95 -1.25 -1.0 -1.15 -0.95 M-1.2 0.9 L-1.15 0.85 -1.4 0.75 -1.35 0.8 -1.3 0.9 -1.15 1.0 -1.2 0.9" fill="#dda24e" fill-rule="evenodd" stroke="none"/>
    <path d="M0.8 -1.5 L0.7 -1.5 0.6 -1.4 0.55 -1.4 0.45 -1.35 0.45 -1.35 0.4 -1.35 0.35 -1.35 0.35 -1.5 0.4 -1.5 0.45 -1.55 0.35 -1.55 0.25 -1.55 0.25 -1.55 0.2 -1.55 0.25 -1.6 0.3 -1.6 0.35 -1.6 Q0.35 -1.55 0.45 -1.55 L0.5 -1.55 0.5 -1.5 0.45 -1.5 0.4 -1.45 Q0.4 -1.4 0.5 -1.4 L0.55 -1.4 0.6 -1.45 0.65 -1.45 0.6 -1.45 0.5 -1.45 Q0.55 -1.5 0.6 -1.5 0.7 -1.5 0.7 -1.55 L0.75 -1.55 0.8 -1.5" fill="#ad7b39" fill-rule="evenodd" stroke="none"/>
    <path d="M0.65 -0.95 L0.7 -1.0 0.7 -1.05 0.7 -1.0 Q0.8 -1.05 0.8 -1.15 L0.7 -1.25 0.65 -1.25 0.7 -1.2 0.7 -1.15 0.65 -1.1 0.6 -1.15 0.55 -1.15 0.5 -1.15 0.5 -1.15 0.65 -1.15 Q0.65 -1.25 0.55 -1.2 L0.45 -1.2 0.35 -1.2 Q0.45 -1.3 0.55 -1.3 L0.8 -1.3 0.85 -1.3 0.9 -1.3 0.95 -1.4 0.9 -1.45 1.35 -1.1 1.6 -0.6 1.6 -0.6 1.7 -0.35 1.7 -0.1 1.7 -0.05 1.65 -0.05 1.6 -0.05 1.65 -0.15 Q1.65 -0.2 1.6 -0.2 L1.6 0.15 1.55 0.15 1.45 0.1 1.5 0.15 1.5 0.25 1.45 0.2 1.45 0.15 1.4 0.15 1.35 0.1 1.45 -0.1 1.5 -0.3 1.55 -0.35 1.55 -0.4 Q1.5 -0.4 1.5 -0.45 L1.55 -0.5 1.5 -0.5 Q1.5 -0.5 1.45 -0.5 L1.45 -0.55 1.5 -0.6 1.45 -0.75 1.45 -0.85 Q1.4 -0.85 1.4 -0.9 L1.3 -1.05 1.2 -1.15 1.15 -1.1 1.2 -1.0 Q1.15 -1.0 1.2 -0.85 L1.2 -0.9 1.3 -0.8 1.4 -0.7 1.35 -0.7 1.35 -0.6 1.35 -0.6 1.4 -0.55 1.35 -0.5 1.35 -0.6 1.3 -0.55 1.3 -0.5 Q1.3 -0.5 1.3 -0.55 L1.25 -0.55 1.2 -0.5 1.2 -0.4 1.2 0.2 Q1.2 0.5 1.0 0.7 L0.95 0.75 0.9 0.85 Q0.85 0.9 0.8 0.9 L1.0 0.6 Q1.1 0.45 1.15 0.25 1.2 0.05 1.15 -0.2 L1.0 -0.55 0.7 -0.9 0.65 -0.95 M0.95 -1.3 L0.9 -1.25 0.95 -1.2 0.9 -1.2 0.9 -1.15 0.85 -1.1 0.85 -1.15 0.8 -1.15 0.8 -1.1 1.05 -1.05 1.05 -1.1 Q1.05 -1.15 1.1 -1.2 1.15 -1.2 1.1 -1.3 L1.0 -1.35 0.95 -1.3 M0.85 -1.0 L0.8 -0.95 0.95 -0.85 1.1 -0.85 1.05 -0.8 1.1 -0.75 1.05 -0.75 1.05 -0.7 1.1 -0.7 1.1 -0.75 1.15 -0.9 1.1 -1.05 1.05 -1.0 0.95 -1.05 0.9 -1.05 0.8 -1.05 0.85 -1.0 M1.7 -0.05 L1.7 -0.05" fill="#be8841" fill-rule="evenodd" stroke="none"/>
    <path d="M-1.4 0.1 L-1.35 0.0 -1.4 -0.1 -1.45 -0.15 -1.5 -0.25 -1.5 -0.3 -1.55 -0.35 -1.5 -0.45 Q-1.45 -0.5 -1.45 -0.55 L-1.45 -0.6 -1.35 -0.65 Q-1.25 -0.75 -1.25 -0.8 L-1.2 -0.75 -1.1 -0.8 -1.1 -0.9 Q-1.1 -0.9 -1.1 -0.95 L-1.05 -1.0 -1.0 -1.1 -0.95 -1.2 -1.0 -1.2 Q-1.05 -1.2 -1.05 -1.25 -0.9 -1.25 -0.85 -1.35 L-0.8 -1.3 -0.7 -1.35 -0.55 -1.35 -0.55 -1.3 -0.5 -1.3 -0.45 -1.3 -0.4 -1.3 -0.3 -1.45 -0.2 -1.55 -0.05 -1.55 0.1 -1.55 0.15 -1.5 Q0.15 -1.45 0.2 -1.5 L0.25 -1.4 0.3 -1.35 0.3 -1.3 0.25 -1.2 0.2 -1.25 0.15 -1.3 0.05 -1.35 0.0 -1.3 -0.05 -1.3 0.0 -1.35 0.1 -1.4 0.25 -1.3 Q0.3 -1.3 0.3 -1.35 L0.2 -1.45 0.0 -1.45 -0.2 -1.35 -0.25 -1.4 -0.3 -1.35 -0.25 -1.25 -0.25 -1.25 -0.3 -1.3 -0.3 -1.25 -0.35 -1.25 -0.4 -1.25 -0.45 -1.25 -0.45 -1.15 Q-0.45 -1.15 -0.5 -1.15 L-0.5 -1.25 -0.5 -1.15 -0.55 -1.1 Q-0.55 -1.1 -0.6 -1.1 L-0.65 -1.25 Q-0.7 -1.3 -0.75 -1.25 L-0.7 -1.15 Q-0.65 -1.05 -0.7 -1.0 L-0.75 -1.0 -0.8 -0.95 -0.85 -0.9 -0.9 -0.95 -0.95 -0.95 Q-0.9 -0.85 -1.0 -0.75 L-1.05 -0.7 -1.1 -0.6 -1.1 -0.55 -1.1 -0.55 -1.15 -0.55 -1.2 -0.55 -1.25 -0.6 -1.25 -0.6 -1.15 -0.5 Q-1.15 -0.45 -1.2 -0.4 L-1.25 -0.45 -1.25 -0.45 -1.2 -0.35 -1.2 -0.25 -1.25 -0.1 -1.3 -0.1 -1.35 -0.05 -1.35 0.0 -1.4 0.1 M-1.0 -1.05 Q-1.0 -1.0 -0.9 -1.0 -0.9 -1.0 -0.85 -1.05 -0.85 -1.05 -0.85 -1.1 L-0.9 -1.15 -0.95 -1.15 -1.0 -1.05" fill="#a07938" fill-rule="evenodd" stroke="none"/>
    <path d="M0.0 -1.35 L-0.05 -1.3 -0.05 -1.25 0.05 -1.25 0.15 -1.25 0.2 -1.2 0.2 -1.2 0.15 -1.15 0.1 -1.2 0.0 -1.2 -0.05 -1.2 Q-0.1 -1.2 -0.15 -1.2 L-0.2 -1.2 -0.2 -1.25 -0.25 -1.2 -0.3 -1.15 -0.35 -1.15 -0.35 -1.2 -0.45 -1.1 -0.55 -1.1 -0.75 -0.9 -1.0 -0.7 -1.0 -0.65 -1.1 -0.6 -1.05 -0.7 -1.0 -0.75 Q-0.9 -0.85 -0.95 -0.95 L-0.9 -0.95 -0.85 -0.9 -0.8 -0.95 -0.75 -1.0 -0.7 -1.0 Q-0.65 -1.05 -0.7 -1.15 L-0.75 -1.25 Q-0.7 -1.3 -0.65 -1.25 L-0.6 -1.1 Q-0.55 -1.1 -0.55 -1.1 L-0.5 -1.15 -0.5 -1.25 -0.5 -1.15 Q-0.45 -1.15 -0.45 -1.15 L-0.45 -1.25 -0.4 -1.25 -0.35 -1.25 -0.3 -1.25 -0.3 -1.3 -0.25 -1.25 -0.25 -1.25 -0.3 -1.35 -0.25 -1.4 -0.2 -1.35 0.0 -1.45 0.2 -1.45 0.3 -1.35 Q0.3 -1.3 0.25 -1.3 L0.1 -1.4 0.0 -1.35" fill="#e6c972" fill-rule="evenodd" stroke="none"/>
    <path d="M0.35 -1.1 Q0.4 -1.05 0.5 -1.05 L0.65 -0.95 0.7 -0.9 0.65 -0.8 0.55 -0.85 0.55 -0.85 0.2 -0.85 0.2 -0.85 0.05 -0.9 -0.1 -0.9 -0.35 -0.85 -0.45 -0.85 -0.2 -0.9 0.05 -0.95 0.2 -0.95 0.2 -1.0 0.35 -1.1 M0.25 -0.85 L0.55 -0.8 0.55 -0.8 0.65 -0.8 0.6 -0.8 Q0.65 -0.75 0.6 -0.7 L0.5 -0.65 0.35 -0.75 0.25 -0.85 M-0.5 -0.7 L-0.65 -0.75 -0.4 -0.8 -0.5 -0.7" fill="#bfc0c1" fill-rule="evenodd" stroke="none"/>
    <path d="M-1.15 0.05 L-1.15 -0.2 -1.05 -0.45 Q-1.0 -0.65 -0.8 -0.8 -0.7 -0.95 -0.5 -1.0 L-0.1 -1.15 0.35 -1.1 0.2 -1.0 0.2 -0.95 0.05 -0.95 -0.2 -0.9 -0.45 -0.85 -0.5 -0.85 -0.6 -0.8 Q-0.7 -0.8 -0.7 -0.7 L-0.7 -0.7 -0.7 -0.65 -0.7 -0.6 -0.75 -0.6 -0.75 -0.55 -0.9 -0.3 -0.95 -0.05 -1.05 0.0 Q-1.15 0.0 -1.15 0.05" fill="#d7d8da" fill-rule="evenodd" stroke="none"/>
    <path d="M0.95 -1.3 L1.0 -1.35 1.1 -1.3 Q1.15 -1.2 1.1 -1.2 1.05 -1.15 1.05 -1.1 L1.05 -1.05 0.8 -1.1 0.8 -1.15 0.85 -1.15 0.85 -1.1 0.9 -1.15 0.9 -1.2 0.95 -1.2 0.9 -1.25 0.95 -1.3" fill="#e7ae5a" fill-rule="evenodd" stroke="none"/>
    <path d="M0.85 -1.0 L0.8 -1.05 0.9 -1.05 0.95 -1.05 1.05 -1.0 1.1 -1.05 1.15 -0.9 1.1 -0.75 1.1 -0.7 1.05 -0.7 1.05 -0.75 1.1 -0.75 1.05 -0.8 1.1 -0.85 0.95 -0.85 0.8 -0.95 0.85 -1.0 M0.85 -0.95 L1.1 -0.85 0.85 -0.95" fill="#f4d77f" fill-rule="evenodd" stroke="none"/>
    <path d="M1.4 -0.7 L1.45 -0.7 1.45 -0.7 1.4 -0.75 1.35 -0.85 1.35 -0.85 1.3 -0.85 1.25 -0.9 1.2 -1.0 1.25 -0.95 1.3 -0.9 1.25 -0.95 1.2 -1.0 1.15 -1.1 1.2 -1.15 1.3 -1.05 1.4 -0.9 Q1.4 -0.85 1.45 -0.85 L1.45 -0.75 1.5 -0.6 1.45 -0.55 1.45 -0.5 Q1.5 -0.5 1.5 -0.5 L1.55 -0.5 1.5 -0.45 Q1.5 -0.4 1.55 -0.4 L1.55 -0.35 1.5 -0.3 1.5 -0.4 1.45 -0.45 1.45 -0.3 Q1.45 -0.25 1.4 -0.35 L1.35 -0.35 1.25 -0.35 1.2 -0.35 1.2 -0.4 1.2 -0.5 1.25 -0.55 1.3 -0.55 Q1.3 -0.5 1.3 -0.5 L1.3 -0.55 1.35 -0.6 1.35 -0.5 1.4 -0.55 1.35 -0.6 1.35 -0.6 1.35 -0.7 1.4 -0.7" fill="#dbaa5a" fill-rule="evenodd" stroke="none"/>
    <path d="M0.7 -0.25 L0.7 -0.4 0.7 -0.8 0.65 -0.8 0.7 -0.9 1.0 -0.55 0.95 -0.5 0.85 -0.45 0.9 -0.3 0.95 -0.15 0.95 -0.1 Q1.0 -0.05 0.85 -0.05 L0.85 -0.05 0.75 -0.05 0.7 -0.05 0.7 -0.25" fill="#94979e" fill-rule="evenodd" stroke="none"/>
    <path d="M0.85 -0.95 L1.1 -0.85 0.85 -0.95" fill="#9c7e41" fill-rule="evenodd" stroke="none"/>
    <path d="M1.2 -1.0 L1.25 -0.95 1.3 -0.9 1.25 -0.95 1.2 -1.0 1.25 -0.9 1.3 -0.85 1.35 -0.85 1.35 -0.85 1.4 -0.75 1.45 -0.7 1.45 -0.7 1.4 -0.7 1.3 -0.8 1.2 -0.9 1.2 -0.85 Q1.15 -1.0 1.2 -1.0" fill="#896327" fill-rule="evenodd" stroke="none"/>
    <path d="M-0.65 -1.5 L-0.5 -1.55 -0.35 -1.6 Q-0.25 -1.6 -0.3 -1.55 L-0.4 -1.55 -0.4 -1.5 Q-0.3 -1.5 -0.35 -1.5 L-0.5 -1.5 -0.65 -1.4 -0.7 -1.4 Q-0.7 -1.45 -0.7 -1.4 L-0.75 -1.4 -0.75 -1.45 -0.7 -1.5 -0.65 -1.5" fill="#9f7133" fill-rule="evenodd" stroke="none"/>
    <path d="M-0.6 -1.6 L-0.7 -1.55 Q-0.75 -1.5 -0.8 -1.5 -1.15 -1.3 -1.4 -0.95 -1.6 -0.6 -1.65 -0.15 L-1.65 0.15 Q-1.65 0.35 -1.65 0.4 -1.75 0.1 -1.7 -0.2 -1.65 -0.5 -1.5 -0.8 -1.35 -1.05 -1.15 -1.3 -0.9 -1.5 -0.6 -1.6 M-1.65 -0.15 L-1.7 -0.1 Q-1.65 -0.1 -1.65 -0.15" fill="#f5eb7f" fill-rule="evenodd" stroke="none"/>
    <path d="M-1.0 -1.05 L-0.95 -1.15 -0.9 -1.15 -0.85 -1.1 Q-0.85 -1.05 -0.85 -1.05 -0.9 -1.0 -0.9 -1.0 -1.0 -1.0 -1.0 -1.05" fill="#ccb066" fill-rule="evenodd" stroke="none"/>
    <path d="M-1.15 -0.95 L-1.25 -1.0 -1.25 -0.95 -1.3 -0.9 Q-1.3 -0.9 -1.25 -0.9 L-1.2 -0.9 -1.15 -0.9 -1.15 -0.85 -1.3 -0.8 Q-1.35 -0.8 -1.4 -0.75 L-1.45 -0.7 -1.5 -0.7 -1.45 -0.7 -1.35 -0.9 -1.15 -1.15 -1.1 -1.1 -1.15 -1.05 -1.15 -1.05 -1.15 -1.0 Q-1.15 -0.95 -1.15 -0.95" fill="#977236" fill-rule="evenodd" stroke="none"/>
    <path d="M-0.7 -0.7 L-0.65 -0.4 -0.7 -0.3 -0.7 -0.3 -0.7 -0.1 -0.7 -0.1 -0.8 -0.1 Q-0.95 -0.1 -0.95 -0.05 L-0.9 -0.3 -0.75 -0.55 -0.75 -0.6 -0.7 -0.6 -0.7 -0.65 -0.7 -0.7" fill="#969ba3" fill-rule="evenodd" stroke="none"/>
    <path d="M-0.95 -0.05 Q-0.95 -0.1 -0.8 -0.1 L-0.7 -0.1 -0.7 -0.1 -0.65 0.3 -0.7 0.3 -0.7 0.3 -0.9 0.35 -0.95 -0.05" fill="#737b89" fill-rule="evenodd" stroke="none"/>
    <path d="M-1.1 -0.55 L-1.05 -0.6 -1.05 -0.55 Q-1.15 -0.45 -1.15 -0.25 L-1.2 -0.1 -1.2 0.1 -1.25 0.0 Q-1.25 0.0 -1.3 0.0 L-1.25 -0.05 -1.25 -0.1 -1.2 -0.25 -1.2 -0.35 -1.25 -0.45 -1.25 -0.45 -1.2 -0.4 Q-1.15 -0.45 -1.15 -0.5 L-1.25 -0.6 -1.25 -0.6 -1.2 -0.55 -1.15 -0.55 -1.1 -0.55 -1.1 -0.55" fill="#f7e981" fill-rule="evenodd" stroke="none"/>
    <path d="M-0.8 1.3 L-0.9 1.2 -1.0 1.15 Q-1.1 1.05 -1.1 0.95 -1.15 0.95 -1.1 0.85 L-1.1 0.75 Q-1.15 0.7 -1.25 0.65 L-1.3 0.65 -1.35 0.6 -1.45 0.55 -1.45 0.5 -1.5 0.5 -1.5 0.5 -1.45 0.4 Q-1.5 0.3 -1.45 0.25 L-1.4 0.1 -1.35 0.0 -1.35 -0.05 -1.3 -0.1 -1.25 -0.1 -1.25 -0.05 -1.3 0.0 Q-1.25 0.0 -1.25 0.0 L-1.2 0.1 -1.25 0.1 -1.35 0.1 -1.35 0.15 Q-1.25 0.1 -1.2 0.2 L-1.2 0.45 -1.0 0.75 -0.8 1.0 -0.8 1.0 -0.85 1.05 -0.75 1.0 Q-0.75 1.0 -0.7 1.05 L-0.75 1.05 -0.7 1.05 -0.6 1.1 -0.75 1.1 -0.9 1.15 -0.7 1.15 -0.55 1.1 -0.4 1.2 Q-0.3 1.25 -0.3 1.3 L-0.25 1.3 -0.3 1.25 -0.3 1.25 -0.1 1.2 0.1 1.2 0.1 1.25 0.15 1.25 0.3 1.2 0.5 1.15 0.6 1.1 0.7 1.05 Q0.75 1.0 0.75 0.9 L0.8 0.9 Q0.85 0.9 0.9 0.85 L0.95 0.75 1.0 0.7 Q1.2 0.5 1.2 0.2 L1.2 -0.4 1.2 -0.35 1.25 -0.35 1.35 -0.35 1.4 -0.35 Q1.45 -0.25 1.45 -0.3 L1.45 -0.25 1.4 -0.25 1.4 -0.2 1.4 -0.2 1.35 -0.15 Q1.25 -0.1 1.25 -0.1 L1.3 -0.1 1.35 -0.05 1.3 0.05 1.35 0.1 1.4 0.15 1.45 0.3 Q1.45 0.4 1.4 0.45 L1.45 0.45 1.45 0.5 1.4 0.5 1.4 0.55 1.35 0.65 1.25 0.7 1.15 0.75 1.1 0.75 Q1.05 0.7 1.05 0.75 L1.1 0.75 Q1.05 0.8 1.05 0.85 L1.05 0.9 1.0 0.95 0.85 1.0 Q0.7 1.05 0.7 1.1 L0.85 1.05 1.0 1.0 1.0 1.05 0.95 1.15 0.9 1.2 0.7 1.15 0.5 1.2 0.45 1.25 0.5 1.2 0.6 1.2 0.7 1.15 0.85 1.25 0.75 1.3 0.65 1.3 0.55 1.3 0.45 1.3 Q0.4 1.25 0.3 1.3 L0.25 1.4 0.2 1.45 0.0 1.5 -0.05 1.5 -0.25 1.45 -0.4 1.3 Q-0.4 1.25 -0.45 1.25 L-0.55 1.25 -0.6 1.25 -0.6 1.3 -0.7 1.3 -0.75 1.3 -0.75 1.3 -0.8 1.3 M1.25 -0.2 L1.25 -0.15 1.3 -0.15 1.35 -0.25 Q1.4 -0.25 1.35 -0.3 L1.3 -0.3 Q1.25 -0.3 1.25 -0.25 L1.25 -0.2 M1.35 0.25 L1.3 0.2 1.25 0.15 Q1.25 0.2 1.25 0.25 L1.3 0.3 1.35 0.35 1.4 0.35 1.35 0.25 M-1.35 0.15 Q-1.45 0.1 -1.35 0.2 L-1.3 0.25 -1.3 0.3 Q-1.3 0.25 -1.3 0.2 L-1.35 0.15" fill="#7d5e27" fill-rule="evenodd" stroke="none"/>
    <path d="M-1.05 0.45 L-1.15 0.05 Q-1.15 0.0 -1.05 0.0 L-0.95 -0.05 -0.9 0.35 -0.9 0.35 -1.0 0.45 -1.05 0.45" fill="#a4a9b2" fill-rule="evenodd" stroke="none"/>
    <path d="M-0.9 0.75 L-1.05 0.45 -1.0 0.45 -0.9 0.35 Q-0.95 0.45 -0.9 0.55 -0.8 0.6 -0.7 0.6 -0.7 0.65 -0.75 0.7 L-0.8 0.7 -0.9 0.75" fill="#666e7d" fill-rule="evenodd" stroke="none"/>
    <path d="M-1.2 0.9 L-1.15 1.0 -1.3 0.9 -1.35 0.8 -1.4 0.75 -1.15 0.85 -1.2 0.9" fill="#655125" fill-rule="evenodd" stroke="none"/>
    <path d="M-0.6 1.0 L-0.75 0.9 -0.9 0.75 -0.8 0.7 -0.75 0.7 Q-0.7 0.65 -0.7 0.6 -0.8 0.6 -0.9 0.55 -0.95 0.45 -0.9 0.35 L-0.7 0.3 -0.7 0.3 -0.65 0.3 -0.65 0.35 -0.6 0.4 -0.55 0.5 -0.55 0.55 -0.6 0.6 -0.6 0.6 -0.65 0.7 Q-0.65 0.85 -0.5 0.95 L-0.55 1.0 -0.6 0.95 -0.6 1.0 M0.7 0.65 L0.7 0.6 0.65 0.55 0.6 0.5 0.7 0.45 0.75 0.3 0.8 0.35 0.9 0.35 0.95 0.45 0.95 0.5 Q0.85 0.55 0.7 0.6 L0.75 0.6 0.65 0.75 0.7 0.65 M-0.9 0.35 L-0.9 0.35" fill="#3d485d" fill-rule="evenodd" stroke="none"/>
    <path d="M0.95 -0.15 L0.9 -0.3 0.85 -0.45 0.95 -0.5 1.0 -0.55 1.15 -0.2 1.1 -0.15 1.05 -0.15 1.0 -0.15 0.95 -0.15" fill="#6d6f75" fill-rule="evenodd" stroke="none"/>
    <path d="M0.65 -0.8 L0.7 -0.8 0.7 -0.4 0.7 -0.25 0.65 -0.35 0.6 -0.4 0.6 -0.45 0.5 -0.65 0.6 -0.7 Q0.65 -0.75 0.6 -0.8 L0.65 -0.8 0.55 -0.8 0.55 -0.8 0.25 -0.85 0.2 -0.85 0.2 -0.85 0.55 -0.85 0.55 -0.85 0.65 -0.8 M0.7 -0.05 L0.75 -0.05 0.85 -0.05 0.85 -0.05 Q1.0 -0.05 0.95 -0.1 L0.95 0.15 0.9 0.35 0.8 0.35 0.75 0.3 0.75 0.25 0.7 0.0 0.7 -0.05 M-0.45 -0.85 L-0.35 -0.85 -0.4 -0.8 -0.65 -0.75 -0.5 -0.7 -0.55 -0.65 -0.6 -0.6 -0.65 -0.4 -0.7 -0.7 -0.7 -0.7 Q-0.7 -0.8 -0.6 -0.8 L-0.5 -0.85 -0.45 -0.85" fill="#6f7786" fill-rule="evenodd" stroke="none"/>
    <path d="M0.95 -0.1 L0.95 -0.15 1.0 -0.15 1.05 -0.15 1.1 -0.15 1.15 -0.2 Q1.2 0.05 1.15 0.25 L1.05 0.3 0.95 0.3 0.95 0.35 1.0 0.45 1.0 0.5 0.95 0.5 0.95 0.45 0.9 0.35 0.95 0.15 0.95 -0.1" fill="#474b53" fill-rule="evenodd" stroke="none"/>
    <path d="M0.75 0.9 Q0.5 1.15 0.1 1.15 -0.3 1.2 -0.6 1.0 L-0.6 0.95 -0.55 1.0 -0.5 0.95 -0.45 0.95 Q-0.3 1.05 -0.05 1.05 L0.0 1.05 0.2 1.0 0.4 0.9 0.6 0.75 0.65 0.75 0.75 0.6 0.7 0.6 Q0.85 0.55 0.95 0.5 L1.0 0.5 1.0 0.45 0.95 0.35 0.95 0.3 1.05 0.3 1.15 0.25 Q1.1 0.45 1.0 0.6 L0.8 0.9 0.75 0.9" fill="#262e3d" fill-rule="evenodd" stroke="none"/>
    <path d="M1.4 0.15 L1.45 0.15 1.45 0.2 1.5 0.25 1.5 0.35 1.55 0.45 1.5 0.5 1.45 0.6 1.3 0.75 Q1.3 0.7 1.25 0.75 L1.2 0.8 Q1.15 0.8 1.1 0.85 1.05 0.85 1.1 0.95 1.1 1.1 0.95 1.2 L0.7 1.35 0.65 1.35 0.65 1.3 0.75 1.3 0.85 1.25 0.7 1.15 0.6 1.2 0.5 1.2 0.45 1.25 0.5 1.2 0.7 1.15 0.9 1.2 0.95 1.15 1.0 1.05 1.0 1.0 0.85 1.05 0.7 1.1 Q0.7 1.05 0.85 1.0 L1.0 0.95 1.05 0.9 1.05 0.85 Q1.05 0.8 1.1 0.75 L1.05 0.75 Q1.05 0.7 1.1 0.75 L1.15 0.75 1.25 0.7 1.35 0.65 1.4 0.55 1.4 0.5 1.45 0.5 1.45 0.45 1.4 0.45 Q1.45 0.4 1.45 0.3 L1.4 0.15" fill="#f1d572" fill-rule="evenodd" stroke="none"/>
    <path d="M-1.65 -0.15 L-1.6 -0.25 Q-1.55 -0.3 -1.55 -0.25 L-1.55 -0.2 -1.5 -0.15 -1.45 -0.1 -1.5 0.0 -1.45 0.0 -1.45 0.05 -1.5 0.0 -1.5 0.05 Q-1.45 0.05 -1.5 0.1 L-1.55 0.1 -1.55 0.1 Q-1.5 0.1 -1.55 0.15 L-1.55 0.25 -1.6 0.1 -1.6 -0.1 Q-1.6 -0.1 -1.6 -0.15 -1.6 -0.2 -1.65 -0.15 -1.65 -0.1 -1.7 -0.1 L-1.65 -0.15" fill="#84612a" fill-rule="evenodd" stroke="none"/>
    <path d="M-1.35 0.15 L-1.3 0.2 Q-1.3 0.25 -1.3 0.3 L-1.3 0.25 -1.35 0.2 Q-1.45 0.1 -1.35 0.15" fill="#d5b460" fill-rule="evenodd" stroke="none"/>
    <path d="M-1.0 1.4 L-0.9 1.35 -0.8 1.3 -0.75 1.3 -0.75 1.3 -0.7 1.3 -0.6 1.3 -0.6 1.25 -0.55 1.25 -0.45 1.25 Q-0.4 1.25 -0.4 1.3 L-0.25 1.45 -0.05 1.5 -0.05 1.55 0.2 1.5 0.35 1.35 Q0.35 1.3 0.4 1.3 L0.45 1.3 0.55 1.3 0.65 1.3 0.65 1.35 0.7 1.35 0.95 1.2 Q1.1 1.1 1.1 0.95 1.05 0.85 1.1 0.85 1.15 0.8 1.2 0.8 L1.25 0.75 Q1.3 0.7 1.3 0.75 L1.45 0.6 1.5 0.5 1.55 0.45 1.55 0.35 Q1.6 0.3 1.65 0.3 L1.5 0.8 Q1.4 1.0 1.2 1.15 L0.9 1.4 0.55 1.6 0.55 1.55 0.65 1.5 0.7 1.45 0.6 1.45 0.5 1.4 0.4 1.4 Q0.35 1.4 0.3 1.45 L0.25 1.5 0.2 1.6 0.35 1.55 0.35 1.6 0.4 1.6 0.45 1.6 0.55 1.6 0.35 1.65 0.25 1.65 Q0.2 1.7 0.15 1.7 L0.15 1.7 0.05 1.7 -0.5 1.65 -1.0 1.4 M1.4 0.75 L1.3 0.8 1.15 0.85 1.1 0.95 1.1 1.05 Q1.05 1.15 1.1 1.15 L1.15 1.2 1.15 1.15 1.25 1.05 1.35 0.9 1.4 0.85 Q1.45 0.8 1.4 0.75 M-0.35 1.5 L-0.4 1.45 Q-0.5 1.35 -0.55 1.35 L-0.65 1.4 -0.75 1.4 -0.5 1.5 -0.25 1.55 -0.35 1.5" fill="#d49545" fill-rule="evenodd" stroke="none"/>
    <path d="M1.1 1.15 Q1.05 1.15 1.1 1.05 L1.1 0.95 1.15 0.85 1.3 0.8 1.4 0.75 1.35 0.85 1.3 0.95 1.2 1.0 1.25 1.0 1.15 1.1 1.1 1.15" fill="#87642b" fill-rule="evenodd" stroke="none"/>
    <path d="M1.1 1.15 L1.15 1.1 1.25 1.0 1.2 1.0 1.3 0.95 1.35 0.85 1.4 0.75 Q1.45 0.8 1.4 0.85 L1.35 0.9 1.25 1.05 1.15 1.15 1.15 1.2 1.1 1.15" fill="#f7e579" fill-rule="evenodd" stroke="none"/>
    <path d="M0.7 1.45 L0.35 1.55 0.2 1.6 0.25 1.5 0.3 1.45 Q0.35 1.4 0.4 1.4 L0.5 1.4 0.6 1.45 0.7 1.45" fill="#6f5223" fill-rule="evenodd" stroke="none"/>
    <path d="M0.7 1.45 L0.65 1.5 0.55 1.55 0.55 1.6 0.45 1.6 0.4 1.6 0.35 1.6 0.35 1.55 0.7 1.45" fill="#f7d767" fill-rule="evenodd" stroke="none"/>
    <path d="M1.5 0.25 L1.5 0.15 1.45 0.1 1.55 0.15 1.6 0.15 1.6 0.25 1.55 0.3 1.65 0.25 1.65 0.05 Q1.65 0.0 1.7 -0.05 L1.7 -0.05 Q1.75 0.3 1.6 0.7 1.45 1.0 1.15 1.3 L1.1 1.3 0.7 1.6 0.15 1.7 Q0.2 1.7 0.25 1.65 L0.35 1.65 0.55 1.6 0.9 1.4 1.2 1.15 Q1.4 1.0 1.5 0.8 L1.65 0.3 Q1.6 0.3 1.55 0.35 L1.55 0.45 1.5 0.35 1.5 0.25 M0.55 1.55 L0.55 1.6 0.55 1.55" fill="#936730" fill-rule="evenodd" stroke="none"/>
    <path d="M0.45 1.3 L0.4 1.3 Q0.35 1.3 0.35 1.35 L0.2 1.5 -0.05 1.55 -0.05 1.5 0.0 1.5 0.2 1.45 0.25 1.4 0.3 1.3 Q0.4 1.25 0.45 1.3" fill="#fae075" fill-rule="evenodd" stroke="none"/>
    <path d="M-0.35 1.5 L-0.25 1.55 -0.5 1.5 -0.75 1.4 -0.65 1.4 -0.55 1.35 Q-0.5 1.35 -0.4 1.45 L-0.35 1.5" fill="#745421" fill-rule="evenodd" stroke="none"/>
    <path d="M0.2 -0.85 L0.25 -0.85 0.35 -0.75 0.5 -0.65 0.6 -0.45 0.6 -0.4 0.65 -0.35 0.55 -0.3 0.55 -0.4 0.45 -0.45 0.4 -0.45 0.3 -0.45 0.25 -0.5 0.2 -0.5 0.15 -0.55 0.1 -0.55 0.1 -0.5 0.05 -0.55 0.0 -0.55 0.0 -0.6 0.05 -0.65 0.0 -0.7 -0.05 -0.75 -0.05 -0.75 0.0 -0.85 0.0 -0.85 0.05 -0.9 0.2 -0.85 M-0.25 -0.65 L-0.25 -0.65 -0.3 -0.6 -0.3 -0.55 -0.35 -0.5 -0.35 -0.5 -0.3 -0.5 -0.3 -0.5 -0.25 -0.5 -0.25 -0.5 -0.2 -0.5 Q-0.2 -0.5 -0.15 -0.5 L-0.15 -0.45 -0.2 -0.45 -0.25 -0.4 -0.25 -0.4 -0.3 -0.35 -0.4 -0.3 -0.4 -0.25 -0.45 -0.2 Q-0.45 -0.1 -0.35 -0.05 L-0.35 -0.05 -0.3 0.0 -0.25 0.0 -0.25 0.0 -0.2 0.0 -0.2 0.05 -0.15 0.1 -0.2 0.1 -0.25 0.1 -0.45 0.05 -0.4 0.15 -0.4 0.15 -0.3 0.2 -0.3 0.25 -0.4 0.2 -0.4 0.2 -0.45 0.25 -0.4 0.3 -0.35 0.35 -0.35 0.45 -0.4 0.4 -0.45 0.4 -0.45 0.4 -0.5 0.4 -0.5 0.35 -0.45 0.25 -0.5 0.2 -0.55 0.15 -0.55 0.1 -0.6 0.05 -0.55 0.0 Q-0.5 0.0 -0.55 -0.05 L-0.45 -0.05 -0.45 -0.1 -0.55 -0.1 -0.6 -0.2 -0.65 -0.25 -0.7 -0.3 -0.7 -0.3 -0.65 -0.4 -0.6 -0.6 -0.55 -0.55 -0.5 -0.5 -0.5 -0.45 Q-0.45 -0.5 -0.4 -0.6 L-0.3 -0.65 -0.25 -0.65 M0.0 -0.1 L0.4 0.05 0.45 0.05 0.55 0.05 0.6 0.05 0.7 0.0 0.75 0.25 0.7 0.25 0.6 0.25 0.5 0.25 0.45 0.25 Q0.4 0.25 0.4 0.3 L0.35 0.25 0.25 0.15 0.2 0.15 0.15 0.15 0.1 0.15 0.0 0.05 0.05 0.05 0.2 0.05 0.05 0.0 0.0 0.0 -0.05 -0.05 0.0 -0.1 M0.45 0.55 L0.45 0.6 0.5 0.65 0.55 0.65 0.7 0.65 0.65 0.75 0.6 0.75 0.4 0.9 0.2 1.0 0.0 1.05 -0.05 1.05 Q-0.3 1.05 -0.45 0.95 L-0.5 0.95 Q-0.65 0.85 -0.65 0.7 L-0.6 0.6 -0.6 0.6 -0.55 0.55 -0.55 0.5 -0.55 0.55 -0.5 0.65 -0.4 0.7 -0.3 0.65 -0.3 0.7 -0.35 0.75 -0.35 0.75 -0.3 0.85 -0.35 0.85 -0.4 0.85 -0.4 0.8 -0.45 0.8 -0.45 0.85 -0.4 0.9 -0.15 1.0 -0.15 1.0 -0.15 0.95 -0.05 0.95 0.0 0.95 0.1 0.95 0.1 0.9 0.0 0.9 -0.05 0.9 -0.15 0.85 -0.15 0.8 -0.1 0.75 -0.1 0.75 -0.1 0.75 -0.05 0.75 0.0 0.8 0.05 0.85 0.15 0.85 0.2 0.85 0.25 0.8 0.35 0.7 0.4 0.65 0.4 0.6 0.45 0.55 M-0.55 0.5 L-0.55 0.5" fill="#31454a" fill-rule="evenodd" stroke="none"/>
    <path d="M0.7 -0.25 L0.7 -0.05 0.7 0.0 0.6 0.05 0.55 0.05 0.45 0.05 0.4 0.05 0.0 -0.1 0.05 -0.1 0.3 -0.05 0.2 -0.15 0.0 -0.25 -0.05 -0.2 -0.05 -0.1 0.0 -0.1 -0.05 -0.05 0.0 0.0 0.05 0.0 0.2 0.05 0.05 0.05 0.0 0.05 0.1 0.15 0.0 0.15 -0.05 0.15 -0.05 0.2 -0.1 0.2 -0.1 0.2 -0.2 0.35 -0.2 0.45 -0.2 0.5 Q-0.2 0.6 -0.1 0.75 L-0.1 0.75 -0.15 0.8 -0.15 0.85 -0.05 0.9 0.0 0.9 0.1 0.9 0.1 0.95 0.0 0.95 -0.05 0.95 -0.15 0.95 -0.15 1.0 -0.15 1.0 -0.4 0.9 -0.45 0.85 -0.45 0.8 -0.4 0.8 -0.4 0.85 -0.35 0.85 -0.3 0.85 -0.35 0.75 -0.35 0.75 -0.3 0.7 -0.3 0.65 Q-0.25 0.65 -0.25 0.55 L-0.3 0.5 -0.3 0.45 -0.35 0.45 -0.35 0.35 -0.4 0.3 -0.45 0.25 -0.4 0.2 -0.4 0.2 -0.3 0.25 -0.3 0.2 -0.4 0.15 -0.4 0.15 -0.45 0.05 -0.25 0.1 -0.2 0.1 -0.15 0.1 -0.2 0.05 -0.2 0.0 -0.1 -0.1 -0.1 -0.25 -0.1 -0.3 0.05 -0.35 0.25 -0.4 0.2 -0.25 Q0.2 -0.15 0.25 -0.1 L0.3 -0.05 0.4 -0.05 0.45 -0.05 0.45 -0.05 0.55 -0.15 0.6 -0.25 0.55 -0.3 0.65 -0.35 0.7 -0.25 M-0.35 -0.85 L-0.1 -0.9 0.05 -0.9 0.0 -0.85 0.0 -0.85 -0.05 -0.75 -0.05 -0.75 0.0 -0.7 0.05 -0.65 0.0 -0.6 0.0 -0.55 0.05 -0.55 0.1 -0.5 0.1 -0.55 0.15 -0.55 0.2 -0.5 0.25 -0.5 0.3 -0.45 0.3 -0.45 0.25 -0.4 0.0 -0.45 0.0 -0.55 0.0 -0.55 -0.1 -0.55 -0.1 -0.6 0.0 -0.65 -0.05 -0.7 -0.05 -0.7 -0.1 -0.7 -0.1 -0.7 -0.15 -0.65 -0.15 -0.7 -0.1 -0.8 -0.1 -0.85 -0.05 -0.85 -0.05 -0.85 -0.1 -0.9 -0.1 -0.9 -0.25 -0.85 -0.25 -0.85 -0.3 -0.85 -0.35 -0.8 -0.5 -0.7 -0.5 -0.65 Q-0.5 -0.65 -0.45 -0.65 L-0.35 -0.7 -0.3 -0.65 -0.3 -0.65 -0.25 -0.65 -0.3 -0.65 -0.4 -0.6 Q-0.45 -0.5 -0.5 -0.45 L-0.5 -0.5 -0.55 -0.55 -0.6 -0.6 -0.55 -0.65 -0.5 -0.7 -0.4 -0.8 -0.35 -0.85" fill="#395654" fill-rule="evenodd" stroke="none"/>
    <path d="M0.25 -0.4 L0.25 -0.4 0.05 -0.35 -0.1 -0.3 -0.15 -0.3 -0.15 -0.35 -0.2 -0.4 -0.2 -0.4 -0.25 -0.4 -0.25 -0.4 -0.25 -0.4 -0.2 -0.45 -0.15 -0.45 -0.15 -0.5 Q-0.2 -0.5 -0.2 -0.5 L-0.25 -0.5 -0.3 -0.55 -0.25 -0.6 -0.25 -0.65 -0.3 -0.65 -0.3 -0.65 -0.35 -0.7 -0.45 -0.65 Q-0.5 -0.65 -0.5 -0.65 L-0.5 -0.7 -0.35 -0.8 -0.3 -0.85 -0.25 -0.85 -0.25 -0.85 -0.1 -0.9 -0.1 -0.9 -0.05 -0.85 -0.05 -0.85 -0.1 -0.85 -0.1 -0.8 -0.15 -0.7 -0.15 -0.65 -0.1 -0.7 -0.1 -0.7 -0.05 -0.7 -0.05 -0.7 0.0 -0.65 -0.1 -0.6 -0.1 -0.55 0.0 -0.55 0.0 -0.55 0.0 -0.45 0.25 -0.4 M-0.25 -0.65 L-0.25 -0.65 M0.0 -0.1 L-0.05 -0.1 -0.05 -0.2 0.0 -0.25 0.2 -0.15 0.3 -0.05 0.05 -0.1 0.0 -0.1" fill="#5c8a86" fill-rule="evenodd" stroke="none"/>
    <path d="M-0.25 -0.65 L-0.25 -0.6 -0.3 -0.55 -0.25 -0.5 -0.25 -0.5 -0.3 -0.5 -0.3 -0.5 -0.35 -0.5 -0.35 -0.5 -0.3 -0.55 -0.3 -0.6 -0.25 -0.65" fill="#304835" fill-rule="evenodd" stroke="none"/>
    <path d="M0.45 -0.45 L0.55 -0.4 0.55 -0.3 0.6 -0.25 0.55 -0.15 0.45 -0.05 0.45 -0.05 0.4 -0.05 0.3 -0.05 0.25 -0.1 Q0.2 -0.15 0.2 -0.25 L0.25 -0.4 0.3 -0.45 0.3 -0.45 0.35 -0.45 0.35 -0.4 0.4 -0.4 0.4 -0.4 0.35 -0.35 0.3 -0.3 0.25 -0.2 Q0.25 -0.15 0.35 -0.15 L0.35 -0.15 0.4 -0.1 0.45 -0.1 0.45 -0.1 0.5 -0.15 0.5 -0.15 0.55 -0.2 0.55 -0.2 0.5 -0.3 0.5 -0.3 0.45 -0.35 0.45 -0.45 M0.25 -0.4 L0.25 -0.4 M-0.25 -0.4 L-0.25 -0.4 -0.2 -0.4 -0.2 -0.4 -0.15 -0.35 -0.15 -0.3 -0.1 -0.3 -0.1 -0.25 -0.1 -0.1 -0.2 0.0 -0.25 0.0 -0.25 0.0 -0.3 0.0 -0.35 -0.05 -0.35 -0.05 Q-0.45 -0.1 -0.45 -0.2 L-0.4 -0.25 -0.4 -0.3 -0.4 -0.25 -0.35 -0.25 -0.4 -0.15 -0.35 -0.1 -0.3 -0.1 -0.3 -0.1 -0.25 -0.05 -0.25 -0.05 Q-0.15 -0.1 -0.15 -0.15 L-0.15 -0.2 -0.2 -0.25 -0.2 -0.25 -0.25 -0.3 -0.3 -0.3 -0.3 -0.3 -0.3 -0.35 -0.25 -0.4 M0.5 0.3 L0.55 0.3 0.6 0.3 0.65 0.3 0.65 0.35 0.6 0.45 0.55 0.5 0.5 0.5 0.45 0.45 0.45 0.4 0.5 0.4 0.55 0.45 0.55 0.5 0.6 0.45 0.6 0.3 Q0.55 0.3 0.55 0.35 L0.5 0.3 M0.4 0.3 L0.4 0.35 0.45 0.35 0.45 0.45 0.45 0.55 0.4 0.6 0.4 0.65 0.35 0.7 0.25 0.8 0.2 0.85 0.25 0.75 0.3 0.7 0.3 0.65 0.35 0.65 0.35 0.6 0.4 0.45 0.4 0.4 0.35 0.35 0.35 0.35 0.3 0.35 0.3 0.3 0.25 0.25 0.15 0.25 0.1 0.3 0.15 0.2 0.1 0.2 0.05 0.2 0.0 0.25 -0.05 0.25 -0.05 0.2 -0.05 0.15 0.0 0.15 0.1 0.15 0.15 0.15 0.2 0.15 0.25 0.15 0.35 0.25 0.4 0.3 M-0.05 0.5 L-0.05 0.5 -0.05 0.6 0.0 0.65 0.05 0.7 0.1 0.7 0.05 0.8 0.0 0.8 -0.05 0.75 -0.1 0.75 -0.1 0.75 Q-0.2 0.6 -0.2 0.5 L-0.2 0.45 -0.2 0.5 -0.1 0.55 -0.05 0.5 M0.0 0.5 L0.0 0.5 0.0 0.45 0.05 0.45 0.05 0.55 0.0 0.55 0.0 0.5 M0.1 0.65 L0.1 0.6 0.15 0.6 0.1 0.65 M0.2 0.6 L0.25 0.6 0.25 0.65 0.2 0.65 0.2 0.6 M0.2 0.35 L0.25 0.35 0.25 0.4 0.2 0.35 M0.05 0.35 L0.1 0.35 0.1 0.4 0.05 0.4 0.05 0.35 M0.15 0.5 L0.15 0.45 0.2 0.5 0.15 0.5 M0.3 0.5 L0.25 0.5 Q0.25 0.45 0.3 0.45 L0.35 0.5 0.3 0.5 M0.35 0.55 L0.35 0.6 0.3 0.6 0.3 0.55 0.35 0.55 M-0.3 0.65 L-0.4 0.7 -0.5 0.65 -0.55 0.55 -0.55 0.5 -0.5 0.45 -0.45 0.4 -0.45 0.4 -0.4 0.4 -0.4 0.45 -0.45 0.5 -0.45 0.5 -0.5 0.5 -0.5 0.55 -0.5 0.6 -0.45 0.65 Q-0.35 0.65 -0.4 0.55 L-0.4 0.55 -0.3 0.5 -0.3 0.5 -0.25 0.55 Q-0.25 0.65 -0.3 0.65 M0.0 0.65 L0.0 0.65" fill="#172319" fill-rule="evenodd" stroke="none"/>
    <path d="M0.35 -0.15 L0.4 -0.3 0.4 -0.4 0.4 -0.4 0.45 -0.35 0.45 -0.35 0.5 -0.3 0.5 -0.3 0.45 -0.25 0.4 -0.2 0.4 -0.1 0.35 -0.15 M0.5 -0.3 L0.5 -0.3 M-0.3 -0.3 L-0.3 -0.3 -0.25 -0.3 -0.2 -0.25 -0.2 -0.25 -0.15 -0.2 -0.2 -0.1 -0.2 -0.1 -0.25 -0.05 -0.3 -0.1 -0.3 -0.1 -0.35 -0.1 -0.3 -0.15 -0.3 -0.3" fill="#90b69c" fill-rule="evenodd" stroke="none"/>
    <path d="M0.3 -0.45 L0.4 -0.45 0.45 -0.45 0.45 -0.35 0.4 -0.4 0.4 -0.4 0.4 -0.4 0.35 -0.4 0.35 -0.45 0.3 -0.45 M0.45 -0.35 L0.45 -0.35 M0.5 0.3 L0.55 0.35 0.5 0.4 0.45 0.4 0.45 0.35 0.5 0.35 0.5 0.3 M0.35 0.65 L0.3 0.65 0.3 0.7 0.25 0.7 0.15 0.7 0.1 0.7 0.05 0.65 0.0 0.65 0.0 0.6 -0.05 0.6 0.0 0.5 0.0 0.55 0.05 0.55 0.1 0.55 0.1 0.5 0.15 0.55 0.1 0.55 0.05 0.6 0.1 0.6 0.1 0.65 0.15 0.65 0.15 0.6 0.15 0.55 0.2 0.6 0.15 0.65 0.2 0.65 0.25 0.65 0.35 0.65 M0.0 0.4 L-0.05 0.4 -0.05 0.45 -0.1 0.45 Q-0.15 0.45 -0.15 0.4 L-0.2 0.35 -0.1 0.2 -0.05 0.2 -0.05 0.3 0.05 0.3 0.0 0.35 0.0 0.4 M-0.4 0.4 L-0.35 0.45 -0.3 0.45 -0.3 0.5 -0.3 0.5 -0.4 0.55 -0.4 0.55 -0.45 0.5 -0.4 0.45 -0.4 0.4 M-0.4 -0.3 L-0.3 -0.35 -0.3 -0.3 -0.35 -0.25 -0.4 -0.25 -0.4 -0.3 M0.0 0.65 L0.0 0.65" fill="#3e5f43" fill-rule="evenodd" stroke="none"/>
    <path d="M0.35 -0.15 L0.35 -0.15 Q0.25 -0.15 0.25 -0.2 L0.3 -0.3 0.35 -0.35 0.4 -0.4 0.4 -0.3 0.35 -0.15 M0.45 -0.35 L0.45 -0.35 0.45 -0.35 0.5 -0.3 0.5 -0.3 0.45 -0.35 M0.4 -0.1 L0.4 -0.2 0.45 -0.25 0.5 -0.3 0.55 -0.2 0.55 -0.2 0.5 -0.15 0.5 -0.15 0.45 -0.1 0.45 -0.1 0.4 -0.1 M0.55 0.35 Q0.55 0.3 0.6 0.3 L0.6 0.45 0.55 0.5 0.55 0.45 0.5 0.4 0.55 0.35 M-0.35 -0.25 L-0.3 -0.3 -0.3 -0.15 -0.35 -0.1 -0.4 -0.15 -0.35 -0.25 M-0.15 -0.2 L-0.15 -0.15 Q-0.15 -0.1 -0.25 -0.05 L-0.25 -0.05 -0.2 -0.1 -0.2 -0.1 -0.15 -0.2 M-0.4 0.55 L-0.4 0.55 Q-0.35 0.65 -0.45 0.65 L-0.5 0.6 -0.5 0.55 -0.5 0.5 -0.45 0.5 -0.45 0.5 -0.4 0.55 -0.4 0.55" fill="#73917c" fill-rule="evenodd" stroke="none"/>
    <path d="M0.45 0.4 L0.45 0.45 0.5 0.5 0.55 0.5 0.6 0.45 0.65 0.35 0.65 0.3 0.6 0.3 0.55 0.3 0.5 0.3 0.5 0.35 0.45 0.35 0.45 0.4 M0.4 0.3 Q0.4 0.25 0.45 0.25 L0.5 0.25 0.6 0.25 0.7 0.25 0.75 0.25 0.75 0.3 0.7 0.45 0.6 0.5 0.65 0.55 0.7 0.6 0.7 0.65 0.55 0.65 0.5 0.65 0.45 0.6 0.45 0.55 0.45 0.45 0.45 0.35 0.4 0.35 0.4 0.3 M-0.55 0.5 L-0.55 0.5 -0.6 0.4 -0.65 0.35 -0.65 0.3 -0.7 -0.1 -0.7 -0.3 -0.7 -0.3 -0.7 -0.3 -0.65 -0.25 -0.6 -0.2 -0.55 -0.1 -0.45 -0.1 -0.45 -0.05 -0.55 -0.05 Q-0.5 0.0 -0.55 0.0 L-0.6 0.05 -0.55 0.1 -0.55 0.15 -0.5 0.2 -0.45 0.25 -0.5 0.35 -0.5 0.4 -0.45 0.4 -0.5 0.45 -0.55 0.5" fill="#253438" fill-rule="evenodd" stroke="none"/>
    <path d="M0.25 0.75 L0.2 0.85 0.1 0.8 0.05 0.85 0.0 0.8 0.05 0.8 0.1 0.7 0.15 0.7 0.25 0.75 M-0.05 0.2 L-0.05 0.25 0.0 0.25 0.05 0.2 0.1 0.2 0.15 0.2 0.1 0.3 0.05 0.3 0.0 0.4 0.0 0.4 0.0 0.35 0.05 0.3 -0.05 0.3 -0.05 0.2 -0.1 0.2 -0.1 0.2 -0.05 0.2 M-0.05 0.4 L-0.05 0.5 -0.1 0.55 -0.2 0.5 -0.2 0.45 -0.2 0.35 -0.15 0.4 Q-0.15 0.45 -0.1 0.45 L-0.05 0.45 -0.05 0.4" fill="#1d2c1f" fill-rule="evenodd" stroke="none"/>
    <path d="M0.1 0.3 L0.15 0.25 0.25 0.25 0.3 0.3 0.3 0.35 0.35 0.35 0.35 0.35 0.4 0.4 0.4 0.45 0.35 0.6 0.35 0.65 0.25 0.65 0.25 0.6 0.2 0.6 0.15 0.55 0.15 0.6 0.1 0.6 0.1 0.65 0.1 0.6 0.05 0.6 0.1 0.55 0.15 0.55 0.1 0.5 0.1 0.55 0.05 0.55 0.05 0.45 0.0 0.45 0.0 0.5 0.0 0.5 -0.05 0.6 0.0 0.6 0.0 0.65 -0.05 0.6 -0.05 0.5 -0.05 0.5 -0.05 0.4 0.0 0.4 0.0 0.4 0.05 0.3 0.1 0.3 M0.2 0.35 L0.25 0.4 0.25 0.35 0.2 0.35 M0.05 0.35 L0.05 0.4 0.1 0.4 0.1 0.35 0.05 0.35 M0.15 0.5 L0.2 0.5 0.15 0.45 0.15 0.5 M0.15 0.6 L0.15 0.65 0.1 0.65 0.15 0.6 M0.2 0.6 L0.2 0.65 0.15 0.65 0.2 0.6 M0.35 0.55 L0.3 0.55 0.3 0.6 0.35 0.6 0.35 0.55 M0.3 0.5 L0.35 0.5 0.3 0.45 Q0.25 0.45 0.25 0.5 L0.3 0.5 M0.05 0.85 L0.1 0.8 0.2 0.85 0.15 0.85 0.05 0.85" fill="#263a29" fill-rule="evenodd" stroke="none"/>
    <path d="M1.25 -0.2 L1.25 -0.25 Q1.25 -0.3 1.3 -0.3 L1.35 -0.3 Q1.4 -0.25 1.35 -0.25 L1.3 -0.15 1.25 -0.15 1.25 -0.2" fill="#b99b55" fill-rule="evenodd" stroke="none"/>
    <path d="M0.3 0.7 L0.25 0.75 0.15 0.7 0.1 0.7 0.15 0.7 0.25 0.7 0.3 0.7 M0.0 0.65 L0.05 0.65 0.1 0.7 0.05 0.7 0.0 0.65" fill="#263a2b" fill-rule="evenodd" stroke="none"/>
    <path d="M1.35 -0.05 L1.3 -0.1 1.25 -0.1 Q1.25 -0.1 1.35 -0.15 L1.4 -0.2 1.4 -0.2 1.4 -0.25 1.45 -0.25 1.45 -0.15 1.35 -0.05" fill="#b69752" fill-rule="evenodd" stroke="none"/>
    <path d="M1.45 -0.3 L1.45 -0.45 1.5 -0.4 1.5 -0.3 1.45 -0.1 1.35 0.1 1.3 0.05 1.35 -0.05 1.45 -0.15 1.45 -0.25 1.45 -0.3" fill="#fae076" fill-rule="evenodd" stroke="none"/>
    <path d="M1.6 0.15 L1.6 -0.2 Q1.65 -0.2 1.65 -0.15 L1.6 -0.05 1.65 -0.05 1.7 -0.05 Q1.65 0.0 1.65 0.05 L1.65 0.25 1.55 0.3 1.6 0.25 1.6 0.15" fill="#f9da6e" fill-rule="evenodd" stroke="none"/>
    <path d="M1.35 0.25 L1.4 0.35 1.35 0.35 1.3 0.3 1.25 0.25 Q1.25 0.2 1.25 0.15 L1.3 0.2 1.35 0.25" fill="#b79a54" fill-rule="evenodd" stroke="none"/>
    <path d="M0.7 -1.55 Q0.45 -1.7 0.05 -1.7 L-0.6 -1.6 Q-0.9 -1.5 -1.15 -1.3 -1.35 -1.05 -1.5 -0.8 -1.65 -0.5 -1.7 -0.2 -1.75 0.1 -1.65 0.4 -1.6 0.7 -1.45 0.95 L-1.0 1.4 -0.5 1.65 0.05 1.7 0.15 1.7 0.15 1.7 0.7 1.6 1.1 1.3 1.15 1.3 Q1.45 1.0 1.6 0.7 1.75 0.3 1.7 -0.05 L1.7 -0.1 1.7 -0.35 1.6 -0.6 1.6 -0.6 1.35 -1.1 0.9 -1.45 0.8 -1.5 0.75 -1.55 0.7 -1.55 M0.7 -0.25 L0.7 -0.05 0.7 0.0 0.75 0.25 0.75 0.3 0.7 0.45 0.6 0.5 0.65 0.55 0.7 0.6 0.7 0.65 0.65 0.75 0.6 0.75 0.4 0.9 0.2 1.0 0.0 1.05 -0.05 1.05 Q-0.3 1.05 -0.45 0.95 L-0.5 0.95 Q-0.65 0.85 -0.65 0.7 L-0.6 0.6 -0.6 0.6 -0.55 0.55 -0.55 0.5 -0.6 0.4 -0.65 0.35 -0.65 0.3 -0.7 -0.1 -0.7 -0.3 -0.7 -0.3 -0.65 -0.4 -0.6 -0.6 -0.55 -0.65 -0.5 -0.7 -0.4 -0.8 -0.35 -0.85 -0.1 -0.9 0.05 -0.9 0.2 -0.85 0.25 -0.85 0.35 -0.75 0.5 -0.65 0.6 -0.45 0.6 -0.4 0.65 -0.35 0.7 -0.25 Z" fill="none" stroke="#000000" stroke-linecap="round" stroke-linejoin="round" stroke-opacity="0.4509804" stroke-width="1.0"/>
  </g>
</svg>
