<?xml version="1.0" encoding="UTF-8" standalone="no"?>
<svg xmlns:xlink="http://www.w3.org/1999/xlink" height="12.25px" width="12.2px" xmlns="http://www.w3.org/2000/svg">
  <g transform="matrix(1.0, 0.0, 0.0, 1.0, 6.05, 5.6)">
    <path d="M0.05 -5.6 Q1.5 -5.6 2.75 -5.0 2.65 -4.4 2.65 -3.95 L2.65 -3.75 Q2.65 -2.05 3.25 -2.05 3.75 -2.05 4.3 -2.55 4.65 -2.95 4.8 -3.35 5.25 -2.8 5.55 -2.2 L5.3 -2.05 Q4.75 -1.7 4.1 -0.85 L4.45 -1.0 4.7 -1.0 Q5.1 -1.0 5.3 -0.85 5.5 -0.65 5.5 -0.3 5.5 -0.1 5.35 0.2 L5.15 0.7 5.1 0.65 Q5.05 0.4 4.85 0.2 4.6 0.05 4.4 0.05 4.05 0.05 3.75 0.4 3.4 0.8 3.4 1.3 3.4 1.55 3.5 1.65 L3.55 1.65 Q3.65 1.75 3.9 1.75 L4.7 1.65 Q5.1 1.5 5.5 1.25 5.9 0.95 6.15 0.6 6.15 1.4 5.95 2.15 L5.55 2.35 4.7 2.7 Q4.3 2.85 4.25 2.95 L4.3 3.1 4.35 3.15 Q5.3 2.9 5.75 2.8 L5.45 3.4 Q5.15 3.4 4.85 3.55 4.75 3.6 4.7 3.7 4.6 3.8 4.6 3.9 4.6 4.15 4.8 4.25 L4.9 4.25 4.35 4.85 3.85 5.3 3.45 4.75 Q3.1 4.25 3.0 4.15 L3.0 4.2 2.95 4.4 Q2.95 4.95 2.7 5.3 L2.6 5.4 Q2.2 5.85 1.45 5.85 L0.75 5.8 Q0.35 5.65 -0.05 5.35 -0.45 5.65 -0.85 5.8 L-1.55 5.85 Q-2.25 5.85 -2.65 5.5 L-2.8 5.3 Q-3.05 4.95 -3.05 4.4 L-3.05 4.2 -3.1 4.15 -3.55 4.75 -3.9 5.2 -4.3 4.85 -4.85 4.2 Q-4.65 4.15 -4.65 3.9 -4.65 3.7 -4.95 3.55 -5.15 3.45 -5.35 3.45 L-5.65 2.85 Q-5.2 2.95 -4.45 3.15 -4.4 3.15 -4.35 3.1 L-4.3 2.95 Q-4.4 2.85 -4.75 2.7 L-5.85 2.25 Q-6.05 1.55 -6.05 0.8 L-5.6 1.25 Q-5.05 1.6 -4.45 1.7 L-4.0 1.75 -3.7 1.7 -3.65 1.65 Q-3.5 1.55 -3.5 1.3 -3.5 0.8 -3.85 0.4 -4.15 0.05 -4.5 0.05 -4.7 0.05 -4.9 0.2 -5.15 0.4 -5.2 0.65 L-5.25 0.7 -5.45 0.2 Q-5.55 -0.1 -5.55 -0.3 -5.55 -0.65 -5.35 -0.85 -5.2 -1.0 -4.8 -1.0 L-4.5 -1.0 Q-4.35 -0.95 -4.2 -0.85 -4.8 -1.7 -5.4 -2.05 L-5.5 -2.15 Q-5.2 -2.7 -4.8 -3.2 -4.7 -2.85 -4.4 -2.55 -3.85 -2.05 -3.3 -2.05 -2.7 -2.05 -2.7 -3.75 L-2.75 -4.1 -2.8 -4.9 Q-1.55 -5.6 0.05 -5.6 M2.35 -0.15 L2.35 1.15 0.6 1.15 0.6 2.9 -0.7 2.9 -0.7 1.15 -2.45 1.15 -2.45 -0.15 -0.7 -0.15 -0.7 -1.9 0.6 -1.9 0.6 -0.15 2.35 -0.15 M0.25 -2.8 L-0.35 -2.8 Q-1.4 -2.7 -2.15 -1.8 -2.95 -0.85 -2.95 0.5 -2.95 1.15 -2.7 1.7 -2.5 2.15 -2.15 2.55 L-2.05 2.7 Q-1.6 3.1 -1.15 3.25 L-0.5 3.4 -0.3 3.35 Q-0.1 3.35 -0.05 3.55 0.05 3.35 0.2 3.35 L0.4 3.4 0.95 3.3 Q1.5 3.15 1.95 2.7 L2.1 2.55 Q2.45 2.15 2.65 1.65 2.85 1.15 2.85 0.5 2.85 -0.85 2.1 -1.8 1.35 -2.7 0.25 -2.8 M-0.25 6.1 Q-0.25 6.25 -0.5 6.45 L-0.7 6.6 -1.35 6.5 -1.35 6.4 -0.05 5.7 1.25 6.4 1.3 6.5 0.3 6.65 -0.25 6.1 M-1.7 6.4 L-1.7 6.35 -1.7 6.4 M1.65 6.45 L1.6 6.35 2.4 6.2 1.65 6.45" fill="url(#gradient0)" fill-rule="evenodd" stroke="none"/>
  </g>
  <defs>
    <linearGradient gradientTransform="matrix(0.0, -0.0075, 0.0075, 0.0, 0.05, 0.5)" gradientUnits="userSpaceOnUse" id="gradient0" spreadMethod="pad" x1="-819.2" x2="819.2">
      <stop offset="0.0" stop-color="#90c6de" stop-opacity="0.5019608"/>
      <stop offset="1.0" stop-color="#ffffff" stop-opacity="0.4509804"/>
    </linearGradient>
  </defs>
</svg>
