<?xml version="1.0" encoding="UTF-8" standalone="no"?>
<svg xmlns:xlink="http://www.w3.org/1999/xlink" height="22.85px" width="18.7px" xmlns="http://www.w3.org/2000/svg">
  <g transform="matrix(1.0, 0.0, 0.0, 1.0, 9.3, 12.6)">
    <path d="M0.4 -12.25 Q0.9 -12.25 0.9 -11.75 L0.8 -11.5 Q0.65 -11.3 0.4 -11.3 0.15 -11.3 0.0 -11.55 L-0.05 -11.7 Q-0.2 -11.6 -0.4 -11.6 -0.7 -11.6 -0.8 -11.85 L-0.85 -12.05 Q-0.85 -12.5 -0.35 -12.6 0.1 -12.65 0.15 -12.2 L0.4 -12.25 M0.2 -10.5 Q0.2 -10.95 0.7 -11.0 1.2 -11.0 1.2 -10.5 1.2 -10.3 1.05 -10.15 0.9 -10.0 0.7 -10.0 0.4 -10.0 0.25 -10.2 0.2 -10.35 0.2 -10.5 M0.15 -10.75 Q0.0 -10.55 -0.25 -10.55 -0.55 -10.55 -0.7 -10.8 L-0.75 -11.0 Q-0.75 -11.5 -0.25 -11.5 0.25 -11.5 0.25 -11.0 0.25 -10.85 0.15 -10.75 M4.25 -7.7 Q4.15 -7.5 3.85 -7.5 3.55 -7.5 3.45 -7.7 L3.4 -7.9 3.35 -7.8 Q3.2 -7.65 2.95 -7.65 L2.75 -7.7 2.75 -7.55 Q2.75 -7.4 2.65 -7.25 L2.5 -7.1 Q2.8 -7.05 2.8 -6.65 2.8 -6.5 2.7 -6.4 2.6 -6.2 2.35 -6.2 2.05 -6.2 1.95 -6.4 L1.85 -6.65 Q1.85 -7.0 2.1 -7.05 1.9 -7.1 1.8 -7.3 L1.75 -7.55 Q1.75 -8.0 2.25 -8.0 L2.55 -7.95 Q2.5 -8.0 2.5 -8.1 2.5 -8.6 2.95 -8.6 L3.05 -8.6 3.0 -8.65 2.9 -8.9 Q2.9 -9.35 3.45 -9.35 4.0 -9.35 4.0 -8.9 4.0 -8.75 3.9 -8.6 3.75 -8.4 3.45 -8.4 L3.35 -8.4 3.45 -8.2 Q3.55 -8.45 3.85 -8.45 4.35 -8.45 4.35 -7.95 4.35 -7.8 4.25 -7.7 M2.25 -8.8 Q2.15 -8.6 1.9 -8.6 1.6 -8.6 1.5 -8.85 L1.45 -9.1 Q1.45 -9.55 1.9 -9.55 2.35 -9.55 2.35 -9.1 2.35 -8.95 2.25 -8.8 M1.1 -8.95 Q1.0 -8.8 0.75 -8.8 0.45 -8.8 0.3 -9.05 0.25 -9.15 0.25 -9.3 0.25 -9.8 0.75 -9.8 1.25 -9.75 1.25 -9.3 1.25 -9.1 1.1 -8.95 M0.35 -8.65 Q0.35 -8.45 0.25 -8.35 0.1 -8.2 -0.15 -8.2 -0.5 -8.2 -0.6 -8.45 -0.7 -8.6 -0.7 -8.7 L-0.6 -9.0 -0.7 -9.2 Q-0.7 -9.45 -0.55 -9.55 -0.75 -9.6 -0.85 -9.8 L-0.95 -10.0 Q-0.95 -10.5 -0.45 -10.5 0.05 -10.5 0.05 -10.0 0.05 -9.85 0.0 -9.75 L-0.1 -9.65 Q0.25 -9.6 0.25 -9.2 L0.2 -9.05 Q0.35 -8.9 0.35 -8.65 M0.5 -8.2 Q0.75 -8.2 0.9 -8.0 1.0 -8.1 1.2 -8.1 1.7 -8.15 1.7 -7.65 1.7 -7.5 1.6 -7.3 1.5 -7.15 1.3 -7.1 1.5 -7.0 1.5 -6.7 1.5 -6.55 1.4 -6.4 1.3 -6.2 1.05 -6.2 L0.9 -6.2 Q0.9 -6.0 0.75 -5.85 L0.65 -5.75 Q0.75 -5.65 0.75 -5.45 0.75 -5.3 0.65 -5.15 L0.55 -5.05 0.8 -5.1 Q1.3 -5.2 1.3 -4.65 L1.3 -4.6 1.45 -4.65 Q1.95 -4.65 1.95 -4.15 1.95 -4.0 1.85 -3.9 1.7 -3.7 1.45 -3.7 1.3 -3.7 1.15 -3.8 L1.2 -3.65 Q1.2 -3.5 1.1 -3.4 L1.05 -3.3 1.2 -3.35 Q1.7 -3.35 1.7 -2.85 1.7 -2.7 1.6 -2.55 1.45 -2.4 1.2 -2.4 0.95 -2.4 0.8 -2.6 L0.75 -2.85 Q0.75 -3.1 0.85 -3.2 L0.7 -3.2 Q0.45 -3.2 0.3 -3.45 L0.25 -3.65 Q0.25 -4.1 0.7 -4.15 0.45 -4.2 0.35 -4.35 L0.3 -4.6 0.3 -4.55 Q0.15 -4.4 -0.1 -4.4 -0.4 -4.4 -0.5 -4.6 L-0.55 -4.85 -0.55 -5.0 -0.8 -4.95 Q-1.1 -4.95 -1.25 -5.15 L-1.3 -5.4 Q-1.3 -5.9 -0.8 -5.9 -0.3 -5.9 -0.3 -5.4 L-0.35 -5.25 -0.15 -5.3 -0.2 -5.45 Q-0.2 -5.75 0.05 -5.9 L0.0 -5.95 -0.15 -6.3 Q-0.15 -6.75 0.4 -6.75 L0.55 -6.75 Q0.6 -7.15 1.0 -7.2 L0.8 -7.35 0.8 -7.35 Q0.7 -7.25 0.45 -7.25 0.2 -7.25 0.05 -7.5 L0.05 -7.4 Q0.05 -7.2 -0.15 -6.8 L-0.15 -6.7 Q-0.15 -6.5 -0.25 -6.35 -0.35 -6.2 -0.6 -6.2 -0.9 -6.2 -1.05 -6.45 L-1.1 -6.8 -1.1 -7.0 -1.1 -6.95 Q-1.25 -6.8 -1.5 -6.8 L-1.7 -6.85 -1.75 -6.7 Q-1.9 -6.5 -2.15 -6.5 -2.45 -6.5 -2.55 -6.75 L-2.6 -6.95 Q-2.6 -7.45 -2.15 -7.4 L-2.0 -7.4 Q-1.95 -7.7 -1.5 -7.8 -1.0 -7.85 -1.0 -7.35 -0.85 -7.65 -0.5 -7.8 -0.15 -7.95 0.0 -7.7 0.0 -8.2 0.5 -8.2 M1.95 -5.25 L2.2 -5.3 Q2.7 -5.3 2.7 -4.85 2.7 -4.7 2.6 -4.55 L2.55 -4.5 2.6 -4.5 Q3.05 -4.5 3.05 -4.05 3.05 -3.9 2.95 -3.75 2.85 -3.6 2.6 -3.6 L2.55 -3.6 2.55 -3.3 Q2.9 -3.25 2.9 -2.85 L2.85 -2.55 2.75 -2.4 Q2.9 -2.3 2.9 -2.0 L2.9 -1.8 3.05 -1.85 Q3.5 -1.85 3.5 -1.35 3.5 -1.25 3.4 -1.1 3.25 -0.9 3.0 -0.9 2.75 -0.9 2.6 -1.1 L2.55 -1.35 2.6 -1.5 2.45 -1.5 Q2.2 -1.5 2.05 -1.75 L2.0 -2.0 Q2.0 -2.3 2.2 -2.4 2.05 -2.45 2.0 -2.6 L1.95 -2.85 1.95 -2.9 Q1.75 -2.95 1.7 -3.1 L1.65 -3.35 Q1.65 -3.85 2.1 -3.8 L2.2 -3.8 2.1 -4.05 Q2.1 -4.25 2.25 -4.4 L2.2 -4.4 Q1.9 -4.4 1.8 -4.6 L1.75 -4.85 1.75 -5.0 Q1.65 -4.95 1.5 -4.95 1.2 -4.95 1.05 -5.15 L1.0 -5.4 Q1.0 -5.9 1.5 -5.9 2.0 -5.9 2.0 -5.4 L1.95 -5.25 M3.65 -6.8 Q3.5 -6.6 3.3 -6.6 3.0 -6.6 2.85 -6.85 L2.8 -7.1 Q2.8 -7.55 3.25 -7.55 3.75 -7.55 3.75 -7.1 3.75 -6.95 3.65 -6.8 M2.1 -5.7 Q2.1 -6.2 2.6 -6.2 3.05 -6.2 3.05 -5.7 L2.95 -5.45 Q2.85 -5.25 2.6 -5.25 2.3 -5.25 2.2 -5.5 L2.1 -5.7 M3.3 -5.7 Q3.3 -6.15 3.9 -6.25 4.5 -6.3 4.5 -5.7 4.5 -5.1 4.0 -5.1 3.65 -5.1 3.45 -5.4 3.3 -5.55 3.3 -5.7 M0.35 -4.85 L0.45 -4.95 0.35 -4.95 0.35 -4.85 M0.85 -4.15 Q0.95 -4.1 1.05 -4.05 L1.0 -4.15 1.0 -4.2 Q0.9 -4.15 0.85 -4.15 M0.55 -2.65 Q0.55 -2.5 0.45 -2.4 L0.4 -2.3 Q0.5 -2.2 0.5 -2.0 L0.4 -1.7 Q0.3 -1.5 0.05 -1.5 -0.25 -1.5 -0.4 -1.75 L-0.45 -2.0 Q-0.45 -2.3 -0.25 -2.4 L-0.3 -2.45 -0.4 -2.65 Q-0.4 -3.2 0.1 -3.1 0.55 -3.05 0.55 -2.65 M0.1 -3.35 Q-0.05 -3.2 -0.3 -3.2 -0.75 -3.2 -0.75 -3.7 -0.75 -4.25 -0.25 -4.25 0.2 -4.25 0.2 -3.7 0.2 -3.55 0.1 -3.35 M0.5 -0.4 Q0.2 -0.4 0.05 -0.6 L0.0 -0.85 Q0.0 -1.35 0.5 -1.35 1.0 -1.35 1.0 -0.85 1.0 -0.7 0.9 -0.6 0.8 -0.4 0.5 -0.4 M0.5 -0.15 Q0.95 -0.15 0.95 0.3 L0.85 0.6 0.75 0.7 Q0.95 0.8 0.95 1.15 0.95 1.3 0.85 1.45 1.0 1.55 1.0 1.8 L0.9 2.1 Q0.8 2.3 0.55 2.3 0.25 2.3 0.15 2.05 L0.1 2.0 0.05 2.15 Q0.2 2.25 0.25 2.4 L0.4 2.4 Q0.9 2.4 0.9 2.85 L0.85 3.05 Q1.1 3.05 1.25 3.2 1.25 2.7 1.85 2.55 L2.1 2.55 2.05 2.35 Q2.05 1.8 2.45 1.8 L2.45 1.7 Q2.45 0.9 3.05 0.7 3.6 0.55 3.6 1.2 3.6 1.4 3.45 1.75 3.25 2.1 3.0 2.15 L3.05 2.5 Q3.05 2.7 2.95 2.85 L2.9 2.9 Q3.05 2.8 3.2 2.75 L3.55 2.75 3.55 2.65 3.45 2.5 3.35 2.25 Q3.35 1.8 3.95 1.75 4.25 1.7 4.4 1.85 4.5 1.7 4.8 1.7 5.1 1.7 5.2 1.9 5.3 1.7 5.5 1.55 L5.45 1.45 Q5.4 1.3 5.4 1.15 5.4 0.55 5.95 0.5 6.45 0.45 6.45 0.95 6.45 1.1 6.35 1.3 L6.4 1.65 Q6.4 1.85 6.15 2.25 5.85 2.7 5.55 2.7 5.35 2.7 5.2 2.55 L5.2 2.6 4.95 2.75 4.95 2.85 4.85 3.2 Q5.35 3.25 5.35 3.7 5.35 4.15 4.75 4.15 4.4 4.15 4.25 3.9 L4.2 3.7 Q4.2 3.6 4.2 3.5 3.95 3.45 3.8 3.25 L3.55 3.55 Q4.1 3.75 4.1 4.25 L4.1 4.35 Q4.45 4.55 4.6 4.75 4.75 4.55 5.05 4.45 5.65 4.3 5.65 4.9 5.65 5.05 5.45 5.35 L5.4 5.4 Q5.5 5.55 5.5 5.8 5.5 6.0 5.35 6.15 5.25 6.3 5.0 6.3 4.75 6.3 4.55 6.05 L4.5 5.75 4.5 5.6 4.25 5.65 Q3.85 5.65 3.6 5.2 L3.5 4.75 3.45 4.75 3.35 5.0 Q3.2 5.2 2.95 5.2 2.6 5.2 2.45 4.85 L2.35 4.5 2.35 4.45 Q2.2 4.65 1.95 4.65 1.35 4.65 1.35 4.05 1.35 3.8 1.5 3.65 L1.35 3.6 1.35 3.65 Q1.3 4.05 1.15 4.25 1.5 4.35 1.5 4.8 L1.45 5.1 Q1.55 5.0 1.75 4.95 2.25 4.9 2.25 5.5 2.25 6.1 1.75 6.1 1.45 6.1 1.3 5.85 L1.25 5.6 Q1.25 5.4 1.3 5.25 1.2 5.35 1.0 5.35 0.65 5.35 0.55 5.05 0.5 4.9 0.5 4.75 0.5 4.45 0.65 4.3 L0.55 4.25 0.25 5.2 0.35 5.35 0.35 5.4 Q0.8 5.5 0.8 6.0 L0.8 6.1 0.95 6.25 1.15 6.25 Q1.65 6.3 1.75 6.6 1.85 6.35 2.3 6.4 2.55 6.4 2.7 6.6 L2.8 6.55 Q3.3 6.55 3.3 7.05 3.3 7.3 3.2 7.5 3.05 7.8 2.75 7.8 2.45 7.8 2.35 7.55 2.05 7.55 1.85 7.2 L1.75 6.9 1.65 7.1 Q1.5 7.25 1.2 7.25 0.75 7.25 0.6 7.0 L0.55 6.95 Q0.15 7.15 -0.55 7.15 -0.9 7.15 -1.05 6.9 L-1.1 6.65 Q-1.1 6.25 -0.2 6.1 L-0.25 5.9 -0.25 5.85 Q-0.75 5.8 -0.95 5.35 -0.95 5.5 -1.05 5.7 -1.25 5.9 -1.5 5.9 -1.8 5.9 -1.9 5.65 -2.0 5.55 -2.0 5.4 -2.0 4.85 -1.45 4.85 -1.15 4.8 -1.0 5.0 L-1.05 4.8 Q-1.05 3.95 -0.45 4.4 -0.3 4.1 -0.05 3.95 0.2 3.75 0.35 3.8 L0.35 3.7 0.4 3.35 Q0.15 3.35 0.0 3.1 L-0.05 3.0 -0.3 3.0 Q-0.6 3.0 -0.75 2.8 L-0.8 2.55 Q-0.8 2.35 -0.65 2.2 L-0.75 2.1 -0.8 1.9 Q-0.8 1.6 -0.65 1.5 L-0.85 1.3 -0.95 1.05 Q-0.95 0.55 -0.45 0.6 0.0 0.7 0.0 1.05 0.0 1.2 -0.1 1.35 L-0.15 1.45 Q0.0 1.45 0.1 1.65 L0.15 1.55 0.05 1.45 Q0.0 1.3 0.0 1.15 0.0 0.85 0.2 0.75 L0.05 0.55 0.0 0.3 Q-0.15 0.45 -0.35 0.45 -0.65 0.45 -0.75 0.25 L-0.75 0.25 Q-1.0 0.2 -1.1 0.0 L-1.2 -0.25 Q-1.2 -0.75 -0.7 -0.75 L-0.7 -0.75 Q-0.95 -0.8 -1.05 -1.0 L-1.1 -1.25 Q-1.1 -1.7 -0.6 -1.7 -0.15 -1.7 -0.15 -1.25 -0.15 -1.1 -0.2 -0.95 -0.35 -0.75 -0.6 -0.75 -0.35 -0.75 -0.25 -0.45 0.1 -0.45 0.15 -0.05 0.25 -0.15 0.5 -0.15 M3.35 -1.85 L3.3 -2.1 Q3.3 -2.6 3.8 -2.6 4.2 -2.6 4.3 -2.25 L4.4 -2.3 4.3 -2.55 Q4.3 -2.95 4.65 -3.0 L4.6 -3.15 Q4.6 -3.65 5.1 -3.65 L5.4 -3.55 5.4 -3.6 Q5.4 -4.15 5.9 -4.15 6.35 -4.15 6.35 -3.6 6.35 -3.4 6.25 -3.25 6.1 -3.05 5.9 -3.05 5.7 -3.05 5.6 -3.15 5.6 -3.0 5.5 -2.9 5.4 -2.75 5.25 -2.7 L5.3 -2.45 Q5.3 -2.25 5.2 -2.1 L5.05 -2.0 5.1 -1.75 Q5.1 -1.6 5.0 -1.45 4.85 -1.25 4.65 -1.25 4.35 -1.25 4.2 -1.55 L4.15 -1.75 Q4.0 -1.65 3.8 -1.65 3.5 -1.65 3.35 -1.85 M3.45 -0.85 Q3.45 -1.35 3.95 -1.35 4.4 -1.35 4.4 -0.85 L4.4 -0.8 Q4.55 -0.9 4.7 -0.9 5.15 -0.9 5.15 -0.4 5.15 -0.25 5.05 -0.1 4.95 0.1 4.7 0.1 4.4 0.1 4.3 -0.15 4.25 -0.25 4.25 -0.4 L4.25 -0.5 Q4.1 -0.4 3.9 -0.4 3.6 -0.4 3.5 -0.6 L3.45 -0.85 M6.9 -2.65 Q6.9 -2.5 6.85 -2.4 6.7 -2.2 6.4 -2.2 6.1 -2.2 6.0 -2.45 L5.9 -2.65 Q5.9 -3.15 6.4 -3.15 6.9 -3.15 6.9 -2.65 M5.2 -4.4 Q5.05 -4.2 4.8 -4.2 4.5 -4.2 4.35 -4.4 L4.3 -4.65 Q4.3 -5.15 4.8 -5.15 5.3 -5.15 5.3 -4.65 5.3 -4.5 5.2 -4.4 M7.75 -1.35 L7.6 -1.7 Q7.6 -2.4 8.25 -2.1 L8.4 -2.05 8.35 -2.25 Q8.35 -2.8 8.9 -2.8 9.4 -2.85 9.4 -2.35 9.4 -2.2 9.25 -2.0 9.1 -1.75 8.85 -1.75 L8.8 -1.75 Q8.9 -1.6 8.9 -1.45 8.9 -1.25 8.8 -1.1 L8.7 -1.05 Q8.7 -0.8 8.55 -0.55 8.4 -0.15 8.05 -0.15 7.8 -0.15 7.65 -0.4 L7.6 -0.65 7.6 -0.6 Q7.6 -0.45 7.3 -0.15 6.95 0.15 6.8 0.15 6.55 0.15 6.4 -0.05 L6.35 -0.35 Q6.35 -0.8 7.0 -1.0 7.6 -1.25 7.6 -0.65 7.6 -1.05 7.8 -1.3 L7.75 -1.35 M-8.65 -0.8 L-8.7 -1.05 -8.7 -1.1 -8.9 -1.45 -9.3 -2.1 Q-9.3 -2.85 -8.6 -2.45 -8.1 -2.15 -8.0 -1.65 L-7.9 -1.7 Q-7.05 -1.85 -7.05 -1.25 -6.85 -1.15 -6.85 -0.8 -6.85 -0.55 -6.95 -0.35 -7.0 -0.25 -7.1 -0.15 -6.65 -0.1 -6.65 0.35 -6.65 0.5 -6.8 0.7 -6.9 0.85 -7.05 0.95 L-7.05 1.0 Q-7.05 1.15 -7.15 1.3 -7.3 1.5 -7.55 1.5 -7.9 1.5 -8.1 1.1 L-8.25 0.75 Q-8.25 0.2 -7.8 0.35 -7.75 0.0 -7.55 -0.1 -7.75 -0.15 -7.85 -0.3 L-7.9 -0.55 -8.15 -0.5 Q-8.5 -0.5 -8.65 -0.8 M-1.25 -9.05 Q-0.8 -9.05 -0.8 -8.6 -0.8 -8.45 -0.9 -8.3 -1.05 -8.1 -1.3 -8.1 -1.55 -8.1 -1.65 -8.35 L-1.75 -8.6 -1.7 -8.85 Q-2.0 -8.85 -2.1 -9.1 L-2.2 -9.35 Q-2.2 -9.85 -1.7 -9.85 -1.2 -9.9 -1.2 -9.35 -1.2 -9.2 -1.3 -9.05 L-1.25 -9.05 M-3.2 -8.75 L-3.25 -8.7 Q-3.15 -8.6 -3.15 -8.4 -3.15 -8.3 -3.2 -8.2 L-3.1 -8.2 Q-2.6 -8.2 -2.6 -7.7 -2.6 -7.55 -2.7 -7.45 -2.85 -7.25 -3.1 -7.25 -3.35 -7.25 -3.5 -7.5 L-3.55 -7.7 -3.5 -7.95 -3.6 -7.95 -3.55 -7.65 Q-3.55 -7.45 -3.65 -7.3 -3.8 -7.1 -4.0 -7.1 -4.3 -7.1 -4.4 -7.35 L-4.5 -7.65 Q-4.5 -8.15 -4.05 -8.2 L-4.1 -8.4 Q-4.1 -8.65 -3.95 -8.75 L-4.0 -8.8 -4.05 -9.0 Q-4.05 -9.5 -3.55 -9.5 -3.1 -9.5 -3.1 -9.0 -3.1 -8.9 -3.2 -8.75 M-2.85 -8.4 L-2.95 -8.65 Q-2.95 -9.1 -2.45 -9.1 -2.0 -9.1 -2.0 -8.65 -2.0 -8.5 -2.1 -8.35 -2.2 -8.2 -2.45 -8.2 -2.75 -8.2 -2.85 -8.4 M-2.95 -6.45 L-3.0 -6.35 -2.9 -6.35 Q-2.65 -6.25 -2.55 -6.1 -2.45 -6.35 -2.1 -6.35 -1.6 -6.35 -1.6 -5.9 -1.6 -5.75 -1.7 -5.6 -1.85 -5.45 -2.1 -5.45 -2.25 -5.45 -2.35 -5.55 L-2.35 -5.5 -2.4 -5.3 Q-2.0 -5.3 -2.0 -4.85 -2.0 -4.7 -2.1 -4.55 -2.2 -4.4 -2.45 -4.4 -2.75 -4.4 -2.85 -4.6 L-2.95 -4.85 -2.9 -5.0 Q-3.15 -5.05 -3.35 -5.4 L-3.4 -5.5 -3.45 -5.3 Q-3.6 -5.1 -3.85 -5.1 -4.0 -5.1 -4.1 -5.2 L-4.1 -5.1 Q-4.1 -4.95 -4.2 -4.8 -4.35 -4.65 -4.6 -4.65 -4.85 -4.65 -4.95 -4.85 L-5.05 -5.1 Q-5.05 -5.6 -4.55 -5.55 L-4.3 -5.45 -4.3 -5.6 Q-4.3 -6.05 -3.85 -6.05 -3.6 -6.05 -3.5 -5.95 -3.45 -6.15 -3.4 -6.25 -3.65 -6.3 -3.75 -6.5 L-3.8 -6.7 Q-3.8 -7.2 -3.35 -7.2 -2.85 -7.2 -2.85 -6.7 -2.85 -6.55 -2.95 -6.45 M-4.65 -3.75 Q-4.75 -3.6 -5.0 -3.6 -5.3 -3.6 -5.4 -3.8 L-5.5 -4.05 Q-5.5 -4.5 -5.0 -4.5 -4.55 -4.5 -4.55 -4.05 -4.55 -3.9 -4.65 -3.75 M-5.9 -3.05 L-6.0 -3.1 Q-5.9 -2.95 -5.9 -2.75 -5.9 -2.6 -6.0 -2.45 -6.15 -2.25 -6.4 -2.25 -6.65 -2.25 -6.8 -2.5 L-6.85 -2.6 -7.05 -2.55 Q-7.35 -2.55 -7.5 -2.8 L-7.55 -3.05 Q-7.55 -3.5 -7.05 -3.5 -6.6 -3.5 -6.55 -3.2 L-6.4 -3.2 -6.25 -3.2 -6.35 -3.3 -6.4 -3.55 Q-6.4 -4.0 -5.9 -4.0 -5.4 -4.0 -5.4 -3.55 -5.4 -3.4 -5.5 -3.25 -5.65 -3.05 -5.9 -3.05 M-5.2 -2.65 L-5.25 -2.75 Q-5.25 -3.2 -4.75 -3.2 -4.25 -3.2 -4.25 -2.75 -4.25 -2.6 -4.35 -2.45 -4.45 -2.25 -4.75 -2.25 L-4.95 -2.3 -4.95 -2.25 Q-4.95 -2.1 -5.05 -1.95 -5.2 -1.75 -5.45 -1.75 -5.75 -1.75 -5.85 -2.0 L-5.9 -2.25 Q-5.9 -2.7 -5.45 -2.7 L-5.2 -2.65 M-4.25 -2.35 Q-3.8 -2.35 -3.8 -1.85 -3.8 -2.35 -3.35 -2.35 -2.85 -2.35 -2.85 -1.85 L-2.9 -1.75 -2.75 -1.7 -2.8 -1.8 -2.85 -2.05 Q-2.85 -2.55 -2.4 -2.5 -1.95 -2.45 -1.95 -2.05 -1.95 -1.9 -2.0 -1.75 -2.15 -1.6 -2.4 -1.6 -2.55 -1.6 -2.65 -1.65 -2.55 -1.55 -2.55 -1.3 -2.55 -1.2 -2.6 -1.1 -2.2 -1.05 -2.2 -0.6 L-2.2 -0.6 -1.95 -0.65 Q-1.5 -0.65 -1.5 -0.2 L-1.55 0.05 Q-1.05 0.05 -1.05 0.5 -1.05 0.65 -1.15 0.8 -1.3 1.0 -1.5 1.0 -1.8 1.0 -1.95 0.75 L-2.0 0.5 -1.95 0.3 Q-2.25 0.3 -2.35 0.05 L-2.4 -0.2 -2.4 -0.2 -2.65 -0.15 Q-2.9 -0.15 -3.05 -0.4 L-3.1 -0.5 -3.15 -0.4 Q-3.25 -0.2 -3.5 -0.2 -3.75 -0.2 -3.85 -0.35 L-3.9 -0.35 Q-4.0 -0.15 -4.25 -0.15 L-4.25 -0.1 Q-4.25 0.05 -4.35 0.15 -4.45 0.35 -4.7 0.35 -5.0 0.35 -5.1 0.1 L-5.15 0.05 -5.4 0.1 Q-5.65 0.1 -5.8 -0.15 L-5.85 -0.35 Q-5.85 -0.85 -5.4 -0.85 -5.0 -0.85 -4.95 -0.55 L-4.7 -0.6 -4.75 -0.6 Q-4.75 -1.1 -4.25 -1.1 -4.05 -1.1 -3.9 -0.95 -3.8 -1.15 -3.5 -1.15 L-3.45 -1.15 -3.5 -1.3 -3.5 -1.4 Q-3.65 -1.45 -3.75 -1.65 L-3.8 -1.85 Q-3.8 -1.7 -3.9 -1.6 -4.0 -1.4 -4.25 -1.4 -4.55 -1.4 -4.65 -1.65 L-4.75 -1.85 Q-4.75 -2.35 -4.25 -2.35 M-0.95 -4.0 Q-1.1 -3.8 -1.4 -3.8 -1.75 -3.8 -1.85 -4.05 L-1.95 -4.3 Q-1.95 -4.75 -1.4 -4.75 -0.85 -4.75 -0.85 -4.3 -0.85 -4.15 -0.95 -4.0 M-1.6 -3.05 Q-1.6 -3.5 -1.15 -3.5 -0.7 -3.5 -0.7 -3.05 -0.7 -2.9 -0.75 -2.75 L-0.9 -2.65 Q-0.7 -2.55 -0.7 -2.25 -0.7 -2.1 -0.75 -1.95 -0.9 -1.75 -1.15 -1.75 -1.45 -1.75 -1.55 -2.0 L-1.6 -2.25 Q-1.6 -2.55 -1.4 -2.65 L-1.55 -2.8 -1.6 -3.05 M-2.35 -3.8 Q-1.85 -3.75 -1.85 -3.2 -1.85 -2.65 -2.35 -2.65 -2.65 -2.65 -2.75 -2.9 L-2.8 -3.2 Q-2.8 -3.8 -2.35 -3.8 M-2.9 0.7 Q-3.0 0.85 -3.1 0.9 -3.0 1.1 -3.0 1.4 -3.0 1.65 -3.05 1.75 -3.15 2.05 -3.45 2.05 L-4.4 0.95 Q-4.4 0.35 -3.7 0.5 L-3.75 0.4 Q-3.75 -0.05 -3.25 -0.1 -2.8 -0.1 -2.8 0.4 -2.8 0.55 -2.9 0.7 M-2.5 0.6 Q-2.0 0.6 -2.0 1.05 -2.0 1.2 -2.1 1.35 -2.2 1.55 -2.5 1.55 -2.8 1.55 -2.95 1.3 L-3.0 1.05 Q-3.0 0.6 -2.5 0.6 M-3.5 2.4 Q-3.4 2.1 -2.95 2.05 -2.4 2.0 -2.35 2.45 -2.25 2.2 -1.9 2.15 -1.45 2.15 -1.45 2.6 -1.45 2.85 -1.5 3.1 -1.65 3.45 -1.95 3.45 -2.35 3.45 -2.4 3.15 L-2.4 2.7 -2.55 2.85 Q-2.8 3.1 -3.1 3.1 -3.35 3.1 -3.5 2.85 L-3.55 2.6 -3.55 2.5 -3.65 2.65 Q-3.8 2.85 -4.0 2.9 -3.85 3.05 -3.85 3.25 -3.85 3.4 -3.95 3.5 -4.1 3.7 -4.35 3.7 -4.8 3.7 -5.1 3.35 L-5.25 3.2 -5.25 3.3 Q-5.25 3.45 -5.35 3.65 -5.5 3.85 -5.75 3.85 L-6.05 3.75 Q-6.05 3.95 -6.25 4.1 L-6.55 4.3 Q-6.6 5.35 -7.05 5.35 -7.45 5.35 -7.55 4.95 -7.6 4.75 -7.55 4.55 -7.55 3.6 -7.05 3.45 -6.9 3.35 -6.65 3.3 L-6.25 3.35 Q-6.2 2.95 -5.75 2.85 -5.5 2.85 -5.35 2.95 -5.35 2.6 -5.2 2.5 L-5.35 2.55 Q-5.7 2.55 -5.85 2.25 L-5.9 2.0 Q-5.9 1.5 -5.35 1.55 L-5.2 1.55 Q-5.15 1.2 -4.6 1.2 -4.0 1.2 -4.0 1.7 L-4.0 1.8 Q-3.5 1.75 -3.5 2.25 L-3.5 2.4 M-2.5 3.65 Q-2.5 3.85 -2.55 4.0 -2.7 4.2 -3.0 4.2 L-3.25 4.2 -3.35 4.4 -3.55 4.6 Q-3.45 4.7 -3.45 4.9 -3.45 5.1 -3.55 5.25 -3.75 5.45 -4.15 5.45 -4.5 5.45 -4.6 5.25 L-4.65 5.0 Q-4.65 4.6 -4.25 4.5 L-4.25 4.45 -4.3 4.25 Q-4.3 3.65 -3.75 3.5 L-3.45 3.5 Q-3.4 3.15 -3.0 3.1 -2.5 3.05 -2.5 3.65 M-2.35 4.0 Q-2.35 3.55 -1.9 3.55 -1.45 3.55 -1.45 4.0 -1.45 4.15 -1.5 4.3 -1.65 4.45 -1.9 4.45 -2.2 4.45 -2.3 4.2 L-2.35 4.0 M-2.75 4.35 Q-2.25 4.45 -2.25 5.2 -2.25 5.3 -2.35 5.45 -2.45 5.65 -2.75 5.65 -3.1 5.65 -3.25 5.25 -3.3 5.1 -3.3 4.9 -3.3 4.25 -2.75 4.35 M-0.2 3.6 Q-0.2 4.15 -0.7 4.15 -1.05 4.15 -1.25 3.85 L-1.35 3.55 Q-1.35 3.35 -1.2 3.2 -1.05 3.1 -0.8 3.1 -0.2 3.1 -0.2 3.6 M-4.75 2.15 L-4.8 2.15 Q-4.8 2.3 -4.9 2.4 L-5.05 2.5 -4.75 2.5 -4.8 2.35 -4.75 2.15 M-6.5 0.75 Q-6.0 0.7 -6.0 1.2 -6.0 1.35 -6.1 1.5 -6.25 1.7 -6.5 1.7 -6.8 1.7 -6.9 1.5 L-7.0 1.25 Q-7.0 0.75 -6.5 0.75 M-5.55 4.6 L-5.6 4.35 Q-5.6 3.8 -5.05 3.8 -4.55 3.75 -4.55 4.25 -4.55 4.4 -4.75 4.6 L-4.9 4.75 Q-4.65 4.85 -4.65 5.25 -4.65 5.5 -4.85 5.65 -5.0 5.85 -5.35 5.85 -5.6 5.85 -5.7 5.6 L-5.8 5.35 Q-5.8 4.95 -5.3 4.8 L-5.55 4.6 M-1.8 7.2 Q-1.65 7.3 -1.65 7.6 -1.65 7.8 -1.85 8.05 L-1.9 8.1 Q-1.8 8.0 -1.55 8.0 -1.0 8.05 -1.0 8.7 L-1.05 8.9 -0.8 8.9 -0.6 8.95 Q-0.45 8.65 0.05 8.4 0.45 8.25 0.65 8.35 L0.6 8.15 Q0.6 7.7 1.2 7.55 1.8 7.4 1.8 8.0 1.8 8.2 1.65 8.4 1.4 8.65 1.1 8.65 0.9 8.65 0.8 8.55 L0.8 8.8 Q0.8 8.95 0.35 9.45 -0.1 9.9 -0.3 9.9 L-0.45 9.9 Q-0.55 10.0 -0.7 10.0 -1.15 10.0 -1.3 9.65 L-1.35 9.35 -1.35 9.15 -1.45 9.2 Q-1.75 9.2 -1.95 8.85 L-2.05 8.55 Q-2.05 8.3 -1.95 8.15 -2.2 8.35 -2.5 8.35 -2.85 8.35 -3.0 8.15 L-3.05 7.9 Q-3.05 7.65 -2.7 7.45 -3.05 7.45 -3.15 7.05 L-3.25 6.65 Q-3.25 6.2 -2.75 6.2 -2.25 6.15 -2.25 6.85 -2.25 7.05 -2.3 7.2 -2.1 7.1 -1.95 7.15 L-2.1 6.95 Q-2.2 6.85 -2.2 6.65 -2.2 6.15 -1.7 6.15 -1.2 6.15 -1.2 6.6 -1.2 6.8 -1.35 7.0 -1.5 7.2 -1.7 7.2 L-1.8 7.2 M6.95 1.6 Q6.65 1.6 6.55 1.35 6.45 1.25 6.45 1.1 6.45 0.45 7.05 0.2 7.65 -0.05 7.65 0.6 7.55 1.6 6.95 1.6 M5.55 3.75 Q5.55 3.65 5.55 3.4 5.55 2.7 6.1 2.6 6.6 2.55 6.6 3.05 6.6 3.3 6.45 3.6 6.3 4.05 6.0 4.05 5.65 4.05 5.55 3.75 M6.6 4.5 Q6.6 3.65 7.15 3.55 7.7 3.45 7.7 4.1 7.7 4.35 7.6 4.6 7.45 4.85 7.25 4.95 L7.3 5.2 Q7.3 5.4 7.1 5.65 6.85 6.0 6.45 6.0 6.15 6.0 6.05 5.8 L6.0 5.55 Q6.0 5.25 6.65 4.85 6.65 4.8 6.7 4.8 L6.65 4.75 6.6 4.5 M3.7 0.4 Q3.6 0.6 3.35 0.6 3.05 0.6 2.9 0.35 L2.85 0.15 Q2.85 -0.35 3.35 -0.3 3.8 -0.25 3.8 0.15 L3.7 0.4 M2.8 0.65 Q2.65 0.8 2.5 0.85 L2.5 1.0 Q2.5 1.15 2.4 1.3 2.25 1.5 1.95 1.5 1.55 1.5 1.45 1.25 L1.35 1.0 Q1.1 0.95 1.0 0.75 L0.95 0.5 Q0.95 0.3 1.0 0.2 L1.0 0.15 Q1.0 -0.35 1.5 -0.35 2.0 -0.35 2.0 0.1 2.1 -0.1 2.4 -0.1 2.85 -0.1 2.85 0.4 2.85 0.55 2.8 0.65 M1.95 0.35 L1.9 0.4 1.85 0.45 1.85 0.55 1.95 0.55 1.95 0.35 M2.6 3.0 L2.5 3.0 2.5 3.05 Q2.5 3.2 2.35 3.4 L2.1 3.6 Q2.45 3.75 2.45 4.15 2.55 4.0 2.9 4.05 L3.0 4.1 3.0 3.95 Q2.7 3.95 2.6 3.75 2.55 3.6 2.55 3.45 2.55 3.2 2.8 3.0 L2.6 3.0 M1.7 9.6 Q1.7 9.8 1.6 10.0 1.45 10.25 1.1 10.25 0.8 10.25 0.7 10.0 L0.6 9.75 Q0.6 9.2 1.15 9.1 1.7 9.0 1.7 9.6" fill="url(#gradient0)" fill-rule="evenodd" stroke="none"/>
  </g>
  <defs>
    <linearGradient gradientTransform="matrix(0.0, 0.0, 0.0, 0.0, -16.4, 6.25)" gradientUnits="userSpaceOnUse" id="gradient0" spreadMethod="pad" x1="-819.2" x2="819.2">
      <stop offset="0.0" stop-color="#90c6de" stop-opacity="0.5019608"/>
      <stop offset="1.0" stop-color="#ffffff" stop-opacity="0.4509804"/>
    </linearGradient>
  </defs>
</svg>
