<?xml version="1.0" encoding="UTF-8" standalone="no"?>
<svg xmlns:xlink="http://www.w3.org/1999/xlink" height="16.0px" width="24.95px" xmlns="http://www.w3.org/2000/svg">
  <g transform="matrix(1.0, 0.0, 0.0, 1.0, 31.3, -41.05)">
    <path d="M-15.2 46.6 L-15.0 46.9 -14.8 47.2 -14.45 47.7 -14.4 47.8 -14.25 47.9 Q-14.15 47.95 -14.1 48.15 L-13.9 48.4 Q-13.55 48.8 -13.45 49.2 L-13.4 49.1 -13.4 48.75 Q-13.4 48.5 -13.2 48.4 -12.85 48.25 -12.75 48.55 L-12.7 49.0 -12.95 50.15 Q-12.7 50.15 -12.45 50.35 -12.2 50.55 -12.05 50.6 -11.75 50.65 -11.6 50.85 L-11.55 50.9 -11.25 51.0 Q-10.65 51.25 -10.45 51.45 L-10.4 51.5 -9.9 51.8 -9.8 51.8 Q-9.55 51.8 -9.45 52.05 -9.3 52.3 -9.2 52.35 L-8.9 52.45 Q-8.75 52.2 -8.15 52.65 L-7.7 53.0 Q-7.6 52.95 -7.45 52.95 L-7.35 52.95 -7.2 53.05 Q-7.2 52.75 -6.95 52.5 -6.7 52.25 -6.55 52.75 L-6.35 53.7 Q-6.35 54.2 -6.8 54.2 L-6.95 54.15 Q-7.05 54.1 -7.1 54.1 L-7.45 54.2 Q-7.85 54.2 -7.85 53.85 L-7.8 53.75 Q-8.2 53.7 -8.6 53.25 L-8.7 53.1 -8.85 53.15 Q-9.35 53.15 -9.8 52.75 L-9.95 52.6 -10.15 52.65 Q-10.6 52.65 -11.0 51.9 -11.25 51.85 -11.65 51.6 L-12.1 51.3 Q-12.15 51.2 -12.35 51.2 L-12.6 51.25 Q-12.7 51.25 -13.05 50.9 L-13.15 50.75 Q-13.35 51.1 -13.55 51.25 L-13.55 51.3 -13.9 51.85 -14.05 52.0 Q-14.1 52.2 -14.2 52.3 -14.4 52.55 -14.5 52.8 L-14.65 53.2 Q-14.85 53.55 -15.2 53.6 L-15.5 54.2 Q-15.85 54.9 -16.15 54.95 L-16.15 55.3 Q-16.15 55.6 -16.25 55.75 -16.4 56.05 -16.95 56.05 -17.35 56.05 -17.55 55.45 L-17.65 55.1 Q-17.9 55.1 -18.2 54.9 -18.45 54.75 -18.5 54.6 -18.55 54.4 -18.7 54.25 L-18.8 54.1 Q-18.95 54.05 -19.05 53.95 L-19.25 53.6 -19.5 53.3 -19.6 53.05 -19.6 53.05 Q-19.8 53.0 -19.95 52.9 -20.2 52.65 -20.35 52.55 -20.55 52.45 -20.55 52.3 L-20.55 51.9 -20.6 51.9 Q-20.9 51.9 -21.0 51.7 L-21.2 51.25 -21.2 51.1 -21.25 50.9 Q-21.25 50.85 -21.35 50.75 L-21.4 50.65 Q-21.55 50.55 -21.55 50.35 -21.6 50.25 -21.7 50.15 L-21.9 50.0 -22.2 49.6 Q-22.25 49.5 -22.25 49.3 L-22.2 48.85 Q-22.65 48.85 -23.2 47.8 L-23.15 47.55 -23.55 47.25 Q-23.9 46.9 -23.95 46.6 L-24.0 46.3 -24.1 46.35 -24.35 46.4 Q-24.45 46.45 -24.5 46.45 -24.45 46.55 -24.45 46.7 L-24.45 46.7 Q-24.1 47.0 -24.0 47.45 -23.55 47.75 -23.4 48.15 -23.1 48.25 -23.1 48.65 -23.1 48.8 -22.9 48.9 L-22.6 49.1 -22.55 49.35 -22.55 49.5 Q-22.15 49.75 -21.95 50.0 -21.9 50.2 -21.85 50.55 L-21.85 50.6 Q-21.7 50.7 -21.65 50.95 L-21.55 51.2 -21.35 51.4 Q-21.0 51.6 -21.0 51.8 L-21.0 52.0 -20.9 52.05 -20.75 52.25 -20.65 52.4 -20.6 52.55 -20.55 52.7 Q-20.45 52.8 -20.35 53.05 -20.3 53.25 -20.15 53.3 -19.9 53.4 -19.75 53.6 -19.65 53.75 -19.65 53.9 -19.65 54.1 -19.8 54.3 L-19.9 54.35 -19.9 54.45 Q-19.55 54.8 -19.55 55.0 L-19.55 55.25 -19.6 55.4 -19.55 55.75 Q-19.55 55.95 -19.7 56.2 -19.85 56.55 -20.15 56.55 L-20.35 56.5 -20.35 56.55 Q-20.5 57.05 -20.75 57.05 L-20.85 57.0 Q-20.9 56.95 -20.95 56.95 L-21.15 57.05 -21.55 56.85 -21.85 56.9 Q-22.1 56.9 -22.25 56.5 L-22.25 56.4 -22.45 56.45 Q-22.75 56.45 -22.8 56.15 -22.9 55.8 -22.95 55.8 L-23.05 55.6 -23.15 55.45 -23.35 55.1 -23.3 54.95 -23.95 54.4 Q-24.15 54.25 -24.2 54.05 L-24.25 53.7 -24.25 53.45 Q-24.9 53.4 -24.85 52.75 -25.1 52.7 -25.2 52.6 L-25.25 52.4 -25.15 52.2 -25.1 52.05 Q-25.65 51.95 -25.9 51.4 -26.0 51.2 -26.0 50.95 -26.2 50.9 -26.3 50.65 -26.45 50.35 -26.8 50.35 L-26.9 50.4 -27.05 50.45 -27.1 50.45 -27.2 50.7 -27.15 50.85 Q-27.0 50.95 -26.8 51.25 L-26.5 51.75 Q-26.35 51.95 -26.3 52.1 -25.7 52.5 -25.7 53.05 L-25.65 53.05 Q-25.45 53.05 -25.25 53.45 -25.05 53.8 -25.05 53.9 L-25.05 54.0 -24.95 54.15 Q-24.55 54.15 -24.55 55.15 -24.55 55.65 -24.95 55.95 -25.25 56.2 -25.6 56.2 L-25.65 56.2 Q-25.8 56.4 -26.0 56.4 -26.45 56.4 -26.6 55.8 L-26.6 55.75 Q-26.8 55.9 -27.1 55.9 -27.4 55.9 -27.55 55.3 L-27.6 55.05 -27.85 54.9 Q-28.15 54.7 -28.2 54.55 L-28.3 54.25 -28.3 54.2 -28.4 54.3 -28.45 54.35 Q-29.15 55.1 -29.25 55.1 L-29.55 55.1 -30.05 55.65 Q-30.7 56.35 -30.95 56.35 -31.3 56.35 -31.3 56.05 -31.3 55.45 -30.35 54.75 L-30.0 54.5 -30.05 54.1 Q-29.9 53.5 -29.6 53.4 L-29.65 53.3 Q-29.65 53.05 -29.5 53.0 L-29.25 52.65 Q-29.15 52.5 -28.85 52.6 L-28.4 52.7 Q-28.1 52.7 -28.0 53.15 -27.9 53.0 -27.75 53.05 L-27.25 53.5 -26.85 54.0 Q-26.7 54.05 -26.6 54.15 L-26.5 54.45 -26.4 54.55 -26.1 54.5 Q-25.85 54.5 -25.7 54.6 L-25.6 54.5 -25.75 54.5 Q-26.0 54.5 -26.15 54.05 L-26.2 54.05 Q-26.5 54.05 -26.65 53.8 L-26.75 53.2 -26.85 52.85 Q-27.0 52.8 -27.25 52.55 -27.55 52.3 -27.65 52.1 L-27.8 51.65 -27.9 51.3 -27.9 51.25 Q-28.0 51.15 -28.05 51.0 L-28.1 50.6 -28.0 50.25 Q-27.95 50.1 -27.95 49.95 L-28.0 49.8 -28.05 49.7 Q-28.05 49.25 -27.5 49.4 L-27.45 49.45 Q-27.3 49.3 -26.95 49.2 -26.35 49.05 -26.05 49.45 -25.95 49.6 -25.75 50.1 L-25.75 50.15 Q-25.55 50.1 -25.3 50.2 -24.55 50.55 -24.55 51.55 L-24.25 51.8 Q-24.0 52.05 -23.95 52.2 -23.85 52.55 -23.75 52.65 -23.7 52.7 -23.7 52.85 -23.6 52.85 -23.35 53.05 -23.1 53.2 -23.05 53.4 L-22.95 53.5 -22.75 53.6 -22.65 53.75 -22.65 54.15 Q-22.5 54.15 -22.4 54.3 L-22.25 54.55 -21.95 54.8 Q-21.85 54.9 -21.85 55.0 -21.85 55.2 -21.9 55.35 -21.6 55.25 -21.35 55.4 -21.15 55.55 -21.15 55.75 L-21.15 55.75 -20.9 55.6 -20.75 55.5 -20.8 55.1 Q-20.8 54.75 -20.7 54.5 -20.9 54.45 -21.0 54.25 -21.15 54.15 -21.3 53.9 L-21.4 53.45 -21.6 53.0 -21.7 52.8 Q-21.75 52.8 -21.85 52.85 -22.1 52.85 -22.15 52.6 L-22.15 52.3 -22.35 52.0 -22.4 51.75 -22.55 51.55 -22.65 51.3 Q-22.65 51.15 -22.8 51.05 L-22.95 50.8 -22.95 50.55 -23.05 50.55 Q-23.35 50.55 -23.45 50.3 L-23.45 50.05 Q-23.5 49.95 -23.6 49.9 L-23.7 49.85 -23.75 49.55 -23.75 49.15 -23.8 49.15 Q-24.2 49.15 -24.3 48.7 -24.5 48.65 -24.6 48.5 L-24.7 48.25 -24.6 48.05 Q-24.6 48.05 -24.9 47.6 -25.25 47.2 -25.25 46.8 L-25.2 46.7 -25.45 46.35 Q-25.45 46.0 -25.15 46.0 L-25.25 45.8 Q-25.25 45.7 -25.0 45.35 -24.7 44.95 -24.5 44.95 -24.2 44.95 -24.1 45.05 L-23.95 45.25 Q-23.75 45.1 -23.5 45.3 -23.45 45.4 -23.35 45.65 L-23.25 45.95 Q-23.05 46.1 -22.75 46.9 -22.5 46.6 -22.3 47.05 L-21.95 47.7 Q-21.65 48.2 -21.65 48.4 -21.65 48.5 -21.75 48.65 L-21.55 48.7 Q-20.8 49.1 -20.8 49.65 L-20.8 49.85 Q-20.5 49.8 -20.4 50.1 -20.25 50.35 -20.35 50.55 L-20.35 50.55 Q-19.85 50.45 -19.85 51.0 L-19.85 51.0 Q-19.6 50.95 -19.5 51.2 L-19.1 52.0 Q-18.95 51.9 -18.75 52.05 -18.65 52.2 -18.65 52.4 -18.65 52.55 -18.55 52.6 L-18.4 52.7 Q-18.3 53.0 -18.2 53.1 L-18.15 53.25 -17.95 53.25 Q-17.6 53.25 -17.35 53.55 -17.2 53.75 -17.2 53.95 L-17.2 54.05 -17.0 54.1 -16.8 54.05 -16.8 54.0 Q-16.75 53.5 -16.65 53.45 -16.45 53.35 -16.2 52.9 -16.0 52.5 -16.0 52.4 -16.0 52.2 -15.8 52.1 L-15.75 52.0 Q-15.5 51.8 -15.3 51.45 L-15.2 51.2 -15.2 50.95 Q-15.2 50.65 -14.75 50.4 L-14.45 50.3 Q-14.35 50.1 -14.0 49.85 -14.3 49.5 -14.55 48.7 -14.9 48.65 -15.55 47.55 L-15.55 47.5 -15.7 47.55 Q-16.05 47.55 -16.4 46.8 L-16.5 46.6 -16.7 46.65 Q-17.0 46.65 -17.0 46.35 L-17.0 46.25 -16.95 46.15 -17.05 46.0 Q-17.15 45.85 -17.15 45.7 L-17.15 45.45 -17.2 45.25 -17.45 44.8 -17.55 44.6 Q-17.65 44.55 -17.95 44.1 L-18.3 43.55 -18.3 43.5 Q-18.55 43.4 -19.0 42.5 L-19.45 41.45 Q-19.45 41.25 -19.3 41.15 -19.05 40.95 -18.85 41.25 L-18.55 41.9 -18.2 42.45 Q-18.0 42.85 -17.95 43.05 -17.8 43.1 -17.65 43.3 -17.1 43.95 -17.0 44.2 L-17.0 44.2 -16.65 44.85 -16.45 45.45 -16.4 45.65 Q-16.25 45.7 -16.0 45.95 -15.75 46.25 -15.6 46.5 -15.45 46.4 -15.2 46.6" fill="#ffb500" fill-rule="evenodd" stroke="none"/>
  </g>
</svg>
