<?xml version="1.0" encoding="UTF-8" standalone="no"?>
<svg xmlns:xlink="http://www.w3.org/1999/xlink" height="4.1px" width="3.85px" xmlns="http://www.w3.org/2000/svg">
  <g transform="matrix(1.0, 0.0, 0.0, 1.0, 1.65, 1.9)">
    <path d="M0.5 0.65 L0.5 0.55 0.5 0.5 0.45 0.5 0.4 0.5 0.45 0.4 0.35 0.35 0.35 0.3 0.3 0.25 0.3 0.2 0.25 0.2 0.2 0.2 0.05 0.05 0.0 0.0 -0.1 -0.2 -0.3 -0.35 -0.3 -0.35 Q-0.3 -0.4 -0.35 -0.45 L-0.45 -0.45 -0.45 -0.55 -0.6 -0.65 -0.65 -0.75 -0.8 -0.85 -0.95 -1.05 -1.05 -1.25 -1.05 -1.3 -1.0 -1.3 Q-0.85 -1.25 -0.8 -1.2 L-0.55 -1.0 -0.5 -0.95 -0.4 -0.85 -0.25 -0.75 -0.15 -0.65 -0.1 -0.6 0.0 -0.6 0.15 -0.4 0.3 -0.25 0.4 -0.25 0.45 -0.2 0.5 -0.1 0.55 -0.05 0.5 0.0 0.6 0.0 0.6 0.05 0.7 0.0 0.7 0.1 0.85 0.1 0.85 0.2 0.95 0.15 0.8 0.25 0.8 0.3 1.0 0.45 1.05 0.5 1.05 0.55 1.1 0.6 1.15 0.7 1.25 0.8 1.25 0.85 Q1.35 0.85 1.35 0.9 L1.4 0.9 1.45 0.9 1.5 0.9 1.55 0.9 1.6 0.9 Q1.6 0.85 1.65 0.85 L1.65 0.95 1.6 0.95 Q1.65 1.0 1.65 1.05 L1.65 1.15 1.65 1.2 1.7 1.2 1.7 1.25 1.75 1.3 1.7 1.3 1.75 1.3 1.75 1.35 1.85 1.45 1.85 1.5 1.8 1.6 1.8 1.65 1.85 1.65 1.85 1.75 Q1.95 1.75 1.95 1.75 L2.0 1.85 2.0 1.9 1.85 1.85 1.7 1.7 1.65 1.7 1.55 1.65 1.45 1.5 1.4 1.45 1.4 1.4 1.3 1.35 1.35 1.25 Q1.4 1.2 1.35 1.2 L1.3 1.15 1.25 1.15 1.25 1.05 1.2 1.05 Q1.15 1.05 1.15 1.05 L1.15 1.15 1.0 1.1 0.95 1.15 0.8 1.05 0.5 0.65 M0.55 0.5 L0.65 0.6 0.6 0.7 0.65 0.7 Q0.65 0.7 0.75 0.7 L0.8 0.7 0.85 0.7 0.85 0.65 0.9 0.6 0.9 0.55 0.7 0.4 0.55 0.5 M0.8 1.05 L0.95 1.15 0.8 1.05" fill="#3d3332" fill-rule="evenodd" stroke="none"/>
    <path d="M0.95 0.15 L1.0 0.15 2.15 1.3 2.15 1.8 1.95 1.55 1.85 1.45 1.75 1.35 Q2.05 1.1 1.75 1.3 L1.7 1.3 1.75 1.3 1.7 1.25 1.7 1.2 1.65 1.2 1.65 1.15 1.65 1.05 Q1.65 1.0 1.6 0.95 L1.65 0.95 1.65 0.85 Q1.6 0.85 1.6 0.9 L1.55 0.9 1.5 0.9 1.45 0.9 1.4 0.9 1.35 0.9 Q1.35 0.85 1.25 0.85 L1.25 0.8 1.15 0.7 1.1 0.6 1.05 0.55 1.05 0.5 1.0 0.45 0.8 0.3 0.8 0.25 0.95 0.15" fill="#856e61" fill-rule="evenodd" stroke="none"/>
    <path d="M2.15 1.8 L2.15 2.15 2.1 2.15 2.05 2.15 0.95 1.15 1.0 1.1 1.15 1.15 1.15 1.05 Q1.15 1.05 1.2 1.05 L1.25 1.05 1.25 1.15 1.3 1.15 1.35 1.2 Q1.4 1.2 1.35 1.25 L1.3 1.35 1.4 1.4 1.4 1.45 1.45 1.5 1.55 1.65 1.65 1.7 1.7 1.7 1.85 1.85 2.0 1.9 2.0 1.85 1.95 1.75 Q1.95 1.75 1.85 1.75 L1.85 1.65 1.8 1.65 1.8 1.6 1.85 1.5 1.85 1.45 1.95 1.55 2.15 1.8 M2.1 2.15 L0.95 1.15 2.1 2.15" fill="#715e53" fill-rule="evenodd" stroke="none"/>
    <path d="M1.75 1.3 Q2.05 1.1 1.75 1.35 L1.75 1.3" fill="#a89286" fill-rule="evenodd" stroke="none"/>
    <path d="M0.5 0.65 L0.45 0.6 0.4 0.65 0.2 0.8 Q0.1 0.85 0.05 0.85 L0.25 0.55 0.25 0.5 Q0.3 0.35 0.25 0.3 L0.15 0.25 0.05 0.1 -0.1 0.1 -0.2 0.05 Q-0.4 0.05 -0.45 0.0 L-0.65 -0.05 -0.85 -0.25 -1.0 -0.55 -1.25 -0.75 -1.55 -1.2 -1.6 -1.35 Q-1.7 -1.45 -1.65 -1.6 L-1.65 -1.85 -1.35 -1.85 -1.05 -1.8 -0.45 -1.45 0.1 -1.05 0.25 -0.85 Q0.35 -0.7 0.35 -0.7 L0.35 -0.45 0.4 -0.35 0.5 -0.25 0.6 -0.1 0.6 -0.05 0.85 0.0 0.9 -0.05 0.95 -0.05 Q1.15 -0.1 1.25 -0.2 L1.15 -0.05 1.05 0.1 1.0 0.15 0.95 0.15 0.85 0.2 0.85 0.1 0.7 0.1 0.7 0.0 0.6 0.05 0.6 0.0 0.5 0.0 0.55 -0.05 0.5 -0.1 0.45 -0.2 0.4 -0.25 0.3 -0.25 0.15 -0.4 0.0 -0.6 -0.1 -0.6 -0.15 -0.65 -0.25 -0.75 -0.4 -0.85 -0.5 -0.95 -0.55 -1.0 -0.8 -1.2 Q-0.85 -1.25 -1.0 -1.3 L-1.05 -1.3 -1.05 -1.25 -0.95 -1.05 -0.8 -0.85 -0.65 -0.75 -0.6 -0.65 -0.45 -0.55 -0.45 -0.45 -0.35 -0.45 Q-0.3 -0.4 -0.3 -0.35 L-0.3 -0.35 -0.1 -0.2 0.0 0.0 0.05 0.05 0.2 0.2 0.25 0.2 0.3 0.2 0.3 0.25 0.35 0.3 0.35 0.35 0.45 0.4 0.4 0.5 0.45 0.5 0.5 0.5 0.5 0.55 0.5 0.65 M0.55 0.5 L0.7 0.4 0.9 0.55 0.9 0.6 0.85 0.65 0.85 0.7 0.8 0.7 0.75 0.7 Q0.65 0.7 0.65 0.7 L0.6 0.7 0.65 0.6 0.55 0.5" fill="#10151c" fill-rule="evenodd" stroke="none"/>
    <path d="M1.0 0.15 L1.05 0.1 1.15 -0.05 1.25 -0.2 Q1.15 -0.1 0.95 -0.05 L0.9 -0.05 0.85 0.0 0.6 -0.05 0.6 -0.1 0.5 -0.25 0.4 -0.35 0.35 -0.45 0.35 -0.7 Q0.35 -0.7 0.25 -0.85 L0.1 -1.05 -0.45 -1.45 -1.05 -1.8 -1.35 -1.85 -1.65 -1.85 -1.65 -1.6 Q-1.7 -1.45 -1.6 -1.35 L-1.55 -1.2 -1.25 -0.75 -1.0 -0.55 -0.85 -0.25 -0.65 -0.05 -0.45 0.0 Q-0.4 0.05 -0.2 0.05 L-0.1 0.1 0.05 0.1 0.15 0.25 0.25 0.3 Q0.3 0.35 0.25 0.5 L0.25 0.55 0.05 0.85 Q0.1 0.85 0.2 0.8 L0.4 0.65 0.45 0.6 0.5 0.65 0.8 1.05 0.95 1.15 2.1 2.15 M1.0 0.15 L2.15 1.3" fill="none" stroke="#000000" stroke-linecap="round" stroke-linejoin="round" stroke-opacity="0.4509804" stroke-width="1.0"/>
  </g>
</svg>
