<?xml version="1.0" encoding="UTF-8" standalone="no"?>
<svg xmlns:xlink="http://www.w3.org/1999/xlink" height="56.15px" width="147.9px" xmlns="http://www.w3.org/2000/svg">
  <g transform="matrix(1.0, 0.0, 0.0, 1.0, 4.15, 33.65)">
    <path d="M143.75 -26.75 L143.2 -20.9 Q142.6 -14.75 142.6 -12.9 142.6 -11.5 142.05 -0.3 141.45 10.85 141.45 11.7 141.45 16.45 141.8 18.45 141.9 18.9 142.05 19.55 142.15 20.15 142.15 20.85 142.15 21.6 141.9 21.8 141.65 22.0 140.75 22.0 140.3 22.0 139.35 21.55 138.4 21.1 138.1 21.1 136.95 21.1 136.1 21.8 135.2 22.5 134.5 22.5 133.85 22.5 133.2 21.65 132.55 20.85 131.8 20.85 131.5 20.85 131.0 21.1 130.55 21.35 130.3 21.35 130.15 20.6 130.0 20.45 L129.5 20.4 125.9 20.15 Q125.4 20.15 124.95 20.75 124.5 21.35 124.3 21.35 123.8 21.35 123.4 20.5 122.95 19.7 122.3 19.7 122.0 19.7 121.45 19.9 120.85 20.15 120.55 20.15 120.0 20.15 119.3 19.7 118.55 19.25 118.25 19.25 117.95 19.25 117.5 19.45 117.05 19.7 116.75 19.7 116.25 19.7 115.85 19.4 L115.0 18.55 114.15 18.55 113.25 19.5 Q112.7 20.15 112.25 20.15 L111.4 19.8 Q110.7 19.45 110.6 19.45 110.3 19.45 109.8 19.7 109.25 19.9 108.95 19.9 108.4 19.9 106.8 19.25 105.15 18.55 104.65 18.55 104.05 18.55 101.95 19.7 99.85 20.85 98.65 20.85 98.4 20.85 98.1 20.6 97.75 20.4 97.5 20.4 97.15 20.4 96.95 20.5 L96.45 20.85 95.5 19.65 Q95.0 19.0 94.35 19.0 94.1 19.0 93.7 19.35 93.25 19.7 92.75 19.7 92.35 19.7 92.15 19.35 91.95 19.0 91.6 19.0 L88.9 18.75 Q88.8 18.75 88.35 19.1 L87.9 19.45 Q87.35 19.45 86.95 19.0 86.5 18.55 85.9 18.55 85.6 18.55 85.25 18.75 84.95 19.0 84.65 19.0 L83.5 18.8 Q83.05 18.8 81.75 19.6 L81.4 19.45 78.15 17.85 77.0 17.95 75.8 18.1 Q76.05 18.95 75.6 19.15 L74.9 19.25 Q74.6 19.25 74.35 19.0 74.1 18.75 73.85 18.75 73.15 18.75 71.55 18.45 69.95 18.1 68.95 18.1 L66.85 17.85 Q66.65 17.85 66.1 18.3 L65.15 19.0 Q65.05 18.8 64.05 18.1 62.95 17.4 62.6 17.4 62.5 17.4 62.25 17.75 62.05 18.1 61.55 18.1 L60.4 18.2 59.6 18.3 Q59.45 18.3 58.8 18.0 58.25 17.75 57.95 17.65 56.7 18.15 55.7 18.25 55.45 18.3 52.95 18.3 L51.1 17.4 Q49.2 16.45 47.85 16.45 47.55 16.45 46.65 16.65 45.75 16.9 45.2 16.9 45.15 16.6 44.75 16.2 44.35 15.75 43.95 15.75 43.6 15.75 43.15 16.35 42.7 16.9 42.15 16.9 41.95 16.9 40.55 16.45 39.15 16.0 38.8 16.0 L37.9 15.95 Q37.25 15.95 37.1 15.75 L36.25 15.75 35.2 14.9 Q34.85 14.6 34.05 14.6 32.8 14.6 32.4 15.2 L32.15 15.55 Q31.95 15.75 31.65 15.75 31.15 15.75 30.95 15.3 30.7 14.85 30.35 14.85 L28.65 16.1 Q26.85 17.4 26.05 17.4 25.6 17.4 25.4 16.8 25.2 16.2 24.55 16.2 24.35 16.2 23.4 16.65 22.5 17.15 22.15 17.15 L21.4 17.05 Q21.2 16.95 21.3 16.2 20.55 16.45 20.35 16.85 L20.15 17.4 Q18.85 16.9 18.15 16.9 17.7 16.9 17.45 17.25 17.25 17.6 17.0 17.6 16.55 17.6 16.3 17.15 16.2 16.9 16.2 16.65 15.75 16.75 15.25 17.1 14.85 17.4 14.7 17.4 14.15 17.4 13.95 16.85 13.8 16.45 13.9 16.0 13.9 15.9 13.85 15.85 13.8 15.75 13.4 15.75 13.2 15.75 12.75 16.1 12.3 16.45 11.8 16.45 L10.45 16.5 Q9.45 16.45 8.3 15.95 L8.15 16.1 Q7.9 16.25 7.55 16.8 7.25 17.3 6.95 17.5 6.5 17.85 5.75 17.85 4.6 17.85 2.05 15.15 0.05 13.0 -0.7 11.8 -1.25 10.9 -4.15 -3.7 -4.15 -7.0 -3.55 -8.45 -3.25 -9.2 -2.0 -10.55 -0.8 -11.9 -0.05 -13.75 1.05 -16.55 1.85 -21.8 2.1 -23.5 2.3 -24.0 2.6 -24.85 3.4 -25.3 4.25 -25.7 6.1 -25.95 L11.35 -26.4 Q14.1 -26.6 17.6 -27.15 L23.95 -28.15 Q32.55 -29.45 41.85 -29.45 L53.8 -29.0 Q57.55 -29.0 70.6 -30.85 84.35 -32.85 85.8 -32.9 L103.45 -33.65 Q107.55 -33.7 118.7 -33.6 123.0 -33.6 128.6 -31.85 L133.1 -30.4 Q135.75 -29.55 137.75 -29.2 141.75 -28.45 142.55 -28.15 143.75 -27.75 143.75 -26.75" fill="#e0922d" fill-rule="evenodd" stroke="none"/>
  </g>
</svg>
