<?xml version="1.0" encoding="UTF-8" standalone="no"?>
<svg xmlns:xlink="http://www.w3.org/1999/xlink" height="21.9px" width="15.95px" xmlns="http://www.w3.org/2000/svg">
  <g transform="matrix(1.0, 0.0, 0.0, 1.0, 9.75, 10.75)">
    <path d="M-4.15 -2.05 L-4.15 -2.05 -4.1 -1.95 -4.0 -1.9 -4.0 -1.9 -4.0 -1.9 -3.9 -1.9 -3.9 -2.0 -3.9 -2.05 -3.9 -2.15 -3.85 -2.2 -3.9 -2.2 -3.95 -2.15 Q-4.0 -2.2 -4.05 -2.2 L-4.05 -2.25 -4.15 -2.15 -4.15 -2.05 M0.3 -10.3 L0.3 -10.3 0.35 -10.25 0.35 -10.25 0.4 -10.2 0.4 -10.2 0.45 -10.15 0.45 -10.15 0.5 -10.15 Q0.55 -10.15 0.55 -10.1 L0.55 -10.1 0.6 -10.05 0.65 -10.05 0.65 -10.05 0.75 -9.95 0.75 -9.9 0.7 -9.85 0.7 -9.85 0.65 -9.8 0.7 -9.75 0.75 -9.75 0.75 -9.75 0.8 -9.8 0.8 -9.85 Q0.8 -9.8 0.85 -9.8 L0.85 -9.9 0.85 -9.95 0.9 -9.95 0.9 -9.9 0.95 -9.75 0.95 -9.75 0.85 -9.6 0.85 -9.6 0.8 -9.5 0.8 -9.45 0.75 -9.4 0.75 -9.4 0.8 -9.35 0.85 -9.35 0.85 -9.4 Q0.9 -9.3 0.85 -9.25 L0.8 -9.25 Q0.8 -9.2 0.8 -9.2 L0.85 -9.2 0.85 -9.2 0.9 -9.2 0.9 -9.15 0.9 -9.1 0.95 -9.1 1.0 -9.05 1.0 -9.05 1.0 -9.0 0.95 -8.95 0.9 -8.95 0.85 -8.95 0.85 -8.9 0.9 -8.9 0.9 -8.9 0.9 -8.8 0.85 -8.75 0.85 -8.75 0.8 -8.65 0.85 -8.65 0.9 -8.65 0.9 -8.65 Q0.95 -8.6 0.9 -8.55 L0.85 -8.55 0.8 -8.55 0.8 -8.55 0.75 -8.5 0.75 -8.45 0.8 -8.4 0.75 -8.4 0.7 -8.35 Q0.7 -8.35 0.75 -8.35 L0.75 -8.35 0.8 -8.3 0.8 -8.3 Q0.85 -8.3 0.9 -8.3 L0.8 -8.25 0.75 -8.25 0.8 -8.2 0.85 -8.2 0.9 -8.2 0.9 -8.15 0.85 -8.15 Q0.85 -8.1 0.8 -8.1 L0.7 -8.1 0.75 -8.05 0.75 -8.05 0.75 -8.05 0.7 -8.05 0.7 -8.05 0.7 -7.95 0.7 -7.85 0.65 -7.85 0.65 -7.75 0.6 -7.75 0.6 -7.85 0.55 -7.85 0.55 -7.8 0.5 -7.8 0.45 -7.8 0.45 -7.8 0.5 -7.8 0.45 -7.9 0.45 -7.85 Q0.4 -7.8 0.35 -7.85 L0.3 -7.95 0.3 -7.9 0.25 -7.9 0.25 -7.85 0.25 -7.75 0.25 -7.7 0.2 -7.65 0.2 -7.55 0.2 -7.5 0.15 -7.45 0.15 -7.45 0.1 -7.35 0.1 -7.35 0.05 -7.3 0.05 -7.3 -0.05 -7.1 -0.05 -7.0 -0.05 -6.9 -0.05 -6.75 -0.05 -6.7 -0.05 -6.7 0.0 -6.65 0.05 -6.65 0.1 -6.65 0.15 -6.65 0.15 -6.7 0.35 -6.7 0.35 -6.7 0.65 -6.55 Q0.8 -6.45 0.85 -6.3 L1.0 -5.9 1.1 -5.55 1.15 -5.35 1.2 -5.25 1.3 -5.0 1.3 -4.95 1.45 -4.7 1.45 -4.65 1.5 -4.5 1.65 -4.25 1.75 -4.15 1.9 -3.8 2.05 -3.45 2.05 -3.35 2.1 -3.15 2.15 -3.15 2.15 -3.15 2.3 -3.2 2.3 -3.2 Q2.35 -3.25 2.4 -3.25 L2.45 -3.25 2.55 -3.3 2.55 -3.35 2.7 -3.35 2.75 -3.35 2.8 -3.45 2.85 -3.5 2.9 -3.5 2.9 -3.5 2.95 -3.5 3.0 -3.5 3.0 -3.55 3.1 -3.55 3.2 -3.5 3.2 -3.45 3.25 -3.45 3.4 -3.5 3.45 -3.5 3.45 -3.5 3.6 -3.55 3.6 -3.55 3.8 -3.65 3.85 -3.65 3.85 -3.65 3.95 -3.7 3.95 -3.7 4.0 -3.7 4.1 -3.75 4.15 -3.8 Q4.2 -3.8 4.25 -3.8 L4.35 -3.85 4.4 -3.9 4.45 -3.9 4.45 -3.9 4.65 -3.95 4.65 -4.0 4.7 -4.0 4.7 -4.0 4.8 -4.05 4.85 -4.05 4.9 -4.1 4.9 -4.2 5.05 -4.4 5.2 -4.5 5.3 -4.55 5.35 -4.55 Q5.5 -4.65 5.6 -4.65 L5.8 -4.45 5.9 -4.45 6.05 -4.45 6.2 -4.35 6.2 -4.15 Q6.2 -4.1 6.1 -4.1 L6.15 -4.05 6.1 -4.0 6.05 -3.9 6.05 -3.9 6.05 -3.85 5.95 -3.7 5.95 -3.6 5.85 -3.55 5.85 -3.55 5.75 -3.5 5.7 -3.6 5.7 -3.65 5.75 -3.65 5.75 -3.7 5.7 -3.75 5.7 -3.85 5.75 -3.9 5.75 -3.9 5.7 -3.95 5.7 -4.05 5.75 -4.1 5.8 -4.1 5.8 -4.15 5.75 -4.15 5.7 -4.2 5.6 -4.2 5.55 -4.25 5.5 -4.25 5.5 -4.25 5.55 -4.1 5.55 -3.9 5.5 -3.85 5.55 -3.8 5.6 -3.75 5.65 -3.6 5.55 -3.5 5.5 -3.5 5.4 -3.5 5.4 -3.5 5.2 -3.5 5.15 -3.55 5.1 -3.55 4.85 -3.4 Q4.7 -3.25 4.55 -3.15 L4.1 -2.9 3.8 -2.75 3.65 -2.65 3.6 -2.6 3.6 -2.55 3.6 -2.5 3.55 -2.5 3.55 -2.45 3.45 -2.4 3.4 -2.4 3.3 -2.4 3.3 -2.4 3.2 -2.35 3.15 -2.35 3.05 -2.3 3.0 -2.25 3.0 -2.25 2.9 -2.25 2.8 -2.2 2.8 -2.2 2.7 -2.15 2.65 -2.1 2.6 -2.1 2.55 -2.1 2.55 -2.1 2.5 -2.1 2.45 -2.05 2.4 -2.05 2.4 -2.05 2.35 -2.05 2.25 -2.1 2.2 -2.1 2.1 -2.1 2.1 -2.1 2.0 -2.05 1.9 -2.05 1.85 -2.05 1.7 -2.05 1.7 -2.05 1.65 -2.05 1.45 -2.15 1.45 -2.15 1.4 -2.15 1.3 -2.2 1.25 -2.2 1.25 -2.25 1.25 -2.35 1.2 -2.35 1.2 -2.35 1.1 -2.5 1.0 -2.7 0.9 -3.05 0.75 -3.4 0.65 -3.7 Q0.55 -3.85 0.6 -4.05 L0.4 -4.5 0.3 -4.5 0.3 -4.5 0.2 -4.35 0.15 -4.05 0.1 -3.75 0.1 -3.75 0.05 -3.45 -0.05 -3.1 -0.05 -3.1 -0.15 -2.75 -0.2 -2.65 -0.25 -2.35 -0.3 -2.3 -0.2 -2.2 -0.05 -2.0 0.1 -1.7 0.15 -1.55 0.2 -1.35 0.25 -1.15 0.3 -1.0 0.35 -1.0 0.4 -0.95 0.45 -0.9 0.45 -0.85 0.4 -0.8 0.4 -0.8 0.35 -0.75 0.35 -0.65 Q0.4 -0.65 0.4 -0.65 L0.4 -0.65 0.45 -0.65 0.5 -0.65 0.5 -0.6 0.55 -0.65 0.6 -0.65 0.65 -0.6 0.7 -0.6 0.75 -0.55 0.75 -0.5 0.7 -0.5 0.65 -0.5 0.55 -0.5 0.45 -0.5 0.45 -0.55 0.45 -0.55 0.4 -0.55 0.35 -0.55 0.35 -0.5 0.3 -0.5 0.25 -0.5 0.25 -0.45 0.25 -0.35 0.2 -0.3 0.2 -0.3 0.15 -0.25 0.1 -0.2 0.1 -0.2 0.05 -0.15 0.0 -0.05 -0.15 0.1 -0.25 0.15 -0.3 0.2 -0.35 0.3 -0.4 0.35 -0.45 0.4 -0.5 0.4 -0.55 0.4 -0.6 0.45 -0.55 0.55 -0.55 0.6 -0.4 0.85 -0.4 0.95 -0.35 1.05 -0.3 1.15 -0.3 1.2 -0.25 1.25 -0.25 1.3 -0.1 1.55 -0.1 1.65 -0.05 1.7 0.0 1.85 0.0 1.85 0.0 1.9 0.15 2.2 0.2 2.35 0.5 2.9 0.6 3.0 0.6 3.05 0.7 3.2 0.75 3.3 0.8 3.5 0.85 3.55 0.9 3.65 0.95 3.85 1.05 4.15 1.05 4.25 1.0 4.35 1.0 4.55 1.0 5.3 0.95 5.65 0.9 5.95 0.85 6.4 0.8 6.55 Q0.7 7.05 0.65 7.55 0.6 8.15 0.6 8.75 L0.6 9.4 0.65 9.45 0.7 9.45 0.8 9.45 0.9 9.55 1.05 9.8 1.15 9.85 1.2 9.9 1.4 10.05 1.45 10.05 1.5 10.1 1.55 10.15 1.6 10.2 1.65 10.2 1.75 10.25 1.8 10.25 1.9 10.35 2.05 10.4 2.1 10.45 2.15 10.45 2.2 10.5 2.3 10.5 2.4 10.5 2.5 10.65 2.55 10.75 2.55 10.8 2.6 10.85 2.55 11.0 2.35 11.1 2.15 11.15 1.9 11.15 1.85 11.15 1.7 11.15 1.6 11.15 1.5 11.15 1.4 11.1 1.3 11.1 1.2 11.05 1.15 11.05 1.1 11.0 1.0 10.95 0.75 10.8 0.65 10.8 0.6 10.8 0.5 10.85 0.5 10.9 0.45 10.9 0.4 10.9 0.25 10.9 0.2 10.9 0.0 10.85 -0.05 10.85 -0.1 10.85 -0.15 10.8 -0.2 10.8 -0.25 10.7 -0.25 10.7 -0.25 10.65 -0.3 10.55 -0.3 10.4 -0.35 10.3 -0.3 10.3 -0.3 10.15 -0.3 10.0 -0.25 9.9 -0.25 9.85 -0.3 9.8 -0.25 9.75 Q-0.25 9.7 -0.2 9.7 L-0.2 9.75 -0.2 8.55 Q-0.2 8.1 -0.25 7.65 L-0.3 7.3 -0.3 6.8 -0.35 5.9 -0.35 5.5 -0.3 5.05 -0.25 4.7 -0.2 4.3 -0.2 4.2 -0.25 4.1 -0.25 4.1 -0.45 3.8 -0.5 3.8 -0.5 3.75 -0.6 3.6 -0.65 3.55 -0.65 3.5 -0.75 3.35 -0.8 3.35 -0.85 3.25 -1.0 2.9 -1.2 2.65 -1.2 2.65 -1.25 2.6 -1.3 2.5 -1.4 2.4 -1.7 2.0 -1.7 2.05 -1.7 2.1 -1.8 2.45 -1.8 2.45 -1.85 2.65 -1.9 2.75 -1.9 2.8 -1.95 2.85 -1.95 2.95 -2.05 3.05 -2.05 3.1 -2.1 3.15 -2.2 3.25 -2.3 3.3 -2.3 3.3 -2.35 3.3 -2.35 3.3 -2.4 3.3 -2.45 3.35 -2.5 3.35 -2.5 3.35 -2.55 3.35 -2.55 3.3 -2.6 3.3 Q-2.65 3.3 -2.65 3.25 L-2.7 3.25 -2.7 3.25 -2.75 3.25 -2.8 3.25 -2.85 3.3 -3.2 3.35 -4.1 3.25 -4.15 3.25 -4.8 3.1 -5.35 2.9 -7.55 2.45 -7.65 2.45 -7.7 2.5 -7.75 2.55 -7.75 2.65 -7.85 2.7 -8.1 2.8 -8.25 2.85 -8.25 2.9 -8.45 3.05 -8.45 3.05 -8.5 3.1 -8.55 3.15 -8.6 3.15 -8.65 3.2 -8.7 3.25 -8.75 3.35 -8.8 3.35 -8.9 3.45 -9.0 3.55 -9.05 3.6 -9.05 3.65 -9.1 3.7 -9.15 3.75 -9.2 3.85 -9.2 3.9 -9.35 3.95 -9.45 3.95 -9.5 3.95 -9.55 3.95 -9.55 3.95 -9.6 3.95 -9.7 3.85 -9.75 3.65 -9.7 3.45 -9.65 3.2 -9.65 3.15 -9.6 3.05 -9.55 2.95 -9.5 2.85 -9.45 2.75 -9.4 2.65 -9.4 2.6 -9.35 2.5 -9.3 2.5 -9.25 2.45 -9.2 2.4 -9.1 2.3 -9.0 2.2 -9.0 2.15 Q-9.1 2.05 -9.05 1.9 L-8.9 1.65 -8.85 1.5 -8.85 1.45 -8.8 1.4 -8.75 1.35 -8.7 1.3 -8.65 1.3 -8.6 1.3 -8.6 1.3 -8.55 1.3 -8.45 1.3 -8.35 1.3 -8.3 1.3 -8.25 1.35 -8.2 1.35 -8.15 1.35 -8.1 1.4 -8.05 1.45 -7.95 1.45 -7.85 1.5 -7.8 1.5 -7.75 1.5 -7.7 1.55 Q-7.7 1.55 -7.7 1.6 L-7.7 1.6 -6.35 1.75 -6.0 1.75 -5.9 1.75 -5.5 1.75 -4.55 1.8 -4.4 1.85 -4.2 1.85 -3.75 1.95 -3.05 2.15 -3.0 2.2 -3.0 2.15 -3.0 2.0 -3.0 1.75 -2.95 1.65 -2.9 1.0 -2.9 0.9 -2.9 0.55 -2.9 0.45 -2.9 0.45 -2.9 0.3 -2.9 0.15 -3.0 0.0 -3.0 -0.05 -3.05 -0.1 -3.1 -0.2 -3.15 -0.25 -3.2 -0.3 -3.2 -0.35 -3.3 -0.55 -3.3 -0.55 -3.35 -0.6 -3.35 -0.65 -3.35 -0.7 -3.4 -0.85 -3.4 -0.9 -3.45 -0.9 -3.5 -0.85 -3.6 -0.8 -3.75 -0.7 -3.8 -0.65 -3.85 -0.65 -3.9 -0.7 -4.9 -0.05 -4.95 0.0 -4.95 0.0 -5.0 0.05 -5.05 0.05 -5.15 0.05 -5.15 0.05 -5.2 0.0 -5.25 0.0 -5.25 -0.05 -5.3 -0.1 -5.3 -0.15 -5.35 -0.2 -5.3 -0.2 -5.3 -0.2 -5.3 -0.25 -5.3 -0.35 -5.25 -0.4 -5.2 -0.4 -5.1 -0.45 -5.15 -0.45 -5.2 -0.45 -5.2 -0.45 -5.25 -0.5 -5.35 -0.55 -5.35 -0.7 -5.4 -0.8 -5.4 -0.8 -5.4 -0.85 -5.35 -0.9 -4.5 -1.45 -4.5 -1.5 -4.4 -1.55 -4.35 -1.6 -4.3 -1.65 -4.3 -1.65 -4.25 -1.65 -4.2 -1.75 -4.15 -1.75 -4.1 -1.85 -4.1 -1.9 -4.2 -2.05 -4.2 -2.25 -4.15 -2.35 -4.05 -2.4 -3.9 -2.45 -3.85 -2.45 -3.75 -2.35 -3.75 -2.35 -3.7 -2.45 -3.7 -2.45 -3.65 -2.5 -3.65 -2.55 -3.6 -2.6 -3.7 -2.7 -3.8 -2.75 -3.85 -2.9 -3.85 -3.05 -3.8 -3.1 -3.75 -3.15 -3.7 -3.2 -3.65 -3.2 -3.55 -3.25 -3.5 -3.3 -3.4 -3.35 -3.3 -3.35 -3.25 -3.3 -3.2 -3.35 -3.2 -3.4 Q-3.15 -3.4 -3.15 -3.45 L-3.15 -3.5 -3.1 -3.6 -3.1 -3.65 -3.1 -3.8 -3.1 -3.85 -3.1 -3.95 -3.15 -3.95 -3.15 -4.0 -3.1 -4.05 -3.15 -4.1 -3.15 -4.1 -3.15 -4.15 -3.2 -4.35 -3.2 -4.35 -3.3 -4.5 -3.3 -4.5 -3.3 -4.7 -3.35 -4.75 -3.5 -5.1 -3.65 -5.05 -3.75 -5.1 -4.05 -4.8 Q-4.1 -4.6 -4.25 -4.45 L-4.45 -4.25 -4.7 -3.95 -4.95 -3.65 Q-5.0 -3.55 -5.1 -3.5 -5.15 -3.45 -5.3 -3.4 L-5.3 -3.4 -5.3 -3.3 -5.3 -3.15 -5.35 -3.1 -5.3 -3.0 -5.3 -3.0 -5.35 -2.95 -5.35 -2.85 -5.35 -2.7 -5.4 -2.65 -5.4 -2.5 -5.45 -2.45 -5.45 -2.3 -5.45 -2.15 -5.5 -2.05 -5.5 -2.0 -5.45 -1.9 -5.45 -1.85 -5.5 -1.85 -5.5 -1.8 -5.5 -1.75 -5.5 -1.7 -5.55 -1.6 -5.65 -1.55 -5.7 -1.5 -5.75 -1.4 -5.75 -1.35 -5.75 -1.3 -5.75 -1.15 -5.8 -0.95 -5.85 -0.9 -5.85 -0.9 -5.85 -0.8 -5.85 -0.75 -5.85 -0.55 -5.9 -0.45 -5.9 -0.3 -5.95 -0.25 -5.95 -0.25 -5.95 0.0 -5.95 0.05 -6.0 0.1 -6.0 0.15 -5.95 0.3 -5.9 0.4 -5.9 0.45 -5.85 0.6 -5.85 0.6 -5.85 0.6 -5.8 0.75 -5.8 0.9 -5.9 1.0 -5.95 1.05 -5.95 1.1 -6.0 1.3 -6.0 1.35 -6.05 1.4 -6.2 1.4 -6.25 1.4 -6.25 1.4 -6.45 1.3 -6.45 1.3 -6.5 1.3 -6.6 1.3 -6.6 1.3 -6.7 1.2 -6.7 1.2 -6.75 1.2 -6.85 1.1 -6.85 0.9 -6.8 0.8 -6.75 0.65 -6.7 0.5 -6.7 0.45 -6.65 0.3 -6.65 0.25 -6.6 0.25 -6.6 0.2 -6.55 0.1 -6.55 0.1 -6.6 -0.15 -6.6 -0.55 -6.6 -1.4 -6.6 -1.65 -6.65 -1.65 -6.65 -1.65 -6.65 -1.7 -6.7 -1.75 -6.7 -1.8 -6.7 -1.9 -6.65 -2.0 -6.65 -2.0 -6.6 -2.05 -6.6 -2.15 -6.6 -2.35 -6.6 -2.45 -6.55 -2.55 -6.55 -2.55 Q-6.5 -2.6 -6.55 -2.65 L-6.55 -2.7 -6.55 -2.8 -6.5 -2.8 -6.5 -2.95 -6.45 -2.95 -6.45 -3.0 -6.35 -3.1 -6.35 -3.15 -6.3 -3.2 -6.3 -3.25 -6.25 -3.3 -6.25 -3.4 -6.2 -3.45 -6.1 -3.55 -6.1 -3.6 -5.95 -3.7 -6.0 -3.7 -6.0 -3.75 -6.0 -3.8 -6.0 -3.95 -6.0 -4.05 -5.9 -4.3 -5.7 -4.65 -5.65 -4.7 -5.4 -5.0 -5.15 -5.25 -5.0 -5.35 -4.75 -5.55 -4.65 -5.65 -4.65 -5.65 -4.45 -5.9 -4.4 -5.9 -4.2 -6.15 -4.1 -6.2 -4.0 -6.35 -3.8 -6.65 -3.55 -7.0 Q-3.4 -7.1 -3.25 -7.15 L-3.05 -7.15 -2.85 -7.3 -2.55 -7.35 -2.5 -7.35 -2.45 -7.35 -2.35 -7.35 -2.3 -7.35 -2.25 -7.3 -2.2 -7.3 -2.15 -7.3 -2.1 -7.35 -2.05 -7.3 -2.05 -7.35 -2.0 -7.45 -1.95 -7.5 -1.95 -7.55 -1.9 -7.6 -1.85 -7.7 -1.85 -7.7 -1.8 -7.75 -1.75 -7.75 -1.75 -7.75 -1.7 -7.75 -1.7 -7.8 -1.65 -7.75 -1.6 -7.8 -1.55 -7.8 -1.55 -7.8 -1.5 -7.85 -1.45 -7.9 -1.5 -7.8 -1.5 -7.7 -1.5 -7.7 -1.45 -7.8 -1.45 -7.85 -1.4 -7.95 -1.4 -7.95 -1.3 -8.1 -1.35 -8.15 -1.35 -8.15 -1.35 -8.15 -1.4 -8.15 -1.4 -8.1 -1.45 -8.1 -1.55 -8.1 -1.55 -8.15 -1.65 -8.15 -1.75 -8.15 -1.75 -8.15 -1.8 -8.15 -1.85 -8.2 -1.85 -8.25 -1.85 -8.25 -1.8 -8.3 -1.8 -8.3 -1.85 -8.3 -1.85 -8.3 -1.95 -8.3 -2.0 -8.3 -2.0 -8.3 -2.05 -8.3 -2.1 -8.3 -2.1 -8.35 -2.1 -8.4 -2.1 -8.45 -2.1 -8.45 -2.05 -8.5 -2.05 -8.55 -2.1 -8.55 -2.15 -8.55 -2.15 -8.5 -2.2 -8.55 -2.25 -8.55 -2.25 -8.55 -2.25 -8.6 -2.3 -8.65 -2.3 -8.65 -2.35 -8.65 -2.35 -8.65 -2.4 -8.7 -2.4 -8.7 -2.45 -8.75 -2.45 -8.8 -2.4 -8.8 -2.4 -8.85 -2.35 -8.85 -2.3 -8.85 -2.3 -8.9 -2.35 -8.95 -2.35 -9.05 -2.35 -9.05 -2.4 -9.1 -2.4 -9.15 -2.4 -9.3 -2.35 -9.3 -2.35 -9.25 Q-2.3 -9.3 -2.35 -9.3 L-2.35 -9.35 -2.35 -9.4 -2.3 -9.5 -2.3 -9.5 -2.25 -9.55 -2.25 -9.5 -2.2 -9.6 -2.2 -9.65 -2.15 -9.7 -2.15 -9.65 -2.1 -9.6 -2.1 -9.55 -2.1 -9.6 -2.05 -9.6 -2.0 -9.55 -2.0 -9.5 -1.95 -9.5 -1.95 -9.55 -1.9 -9.55 Q-1.85 -9.55 -1.9 -9.6 L-1.9 -9.6 -1.95 -9.65 -1.95 -9.7 -1.9 -9.7 -1.9 -9.75 -1.9 -9.8 -1.85 -9.8 -1.85 -9.8 -1.8 -9.8 -1.8 -9.85 -1.8 -9.85 -1.75 -9.85 -1.75 -9.9 -1.8 -9.9 -1.8 -9.95 -1.8 -10.1 -1.8 -10.1 -1.75 -10.05 -1.75 -10.05 Q-1.7 -10.0 -1.7 -10.05 L-1.7 -10.1 -1.7 -10.2 -1.7 -10.2 -1.65 -10.2 -1.65 -10.2 -1.6 -10.2 -1.6 -10.2 -1.55 -10.25 -1.55 -10.25 -1.6 -10.3 -1.65 -10.35 -1.65 -10.4 -1.55 -10.4 -1.5 -10.4 -1.5 -10.4 -1.5 -10.4 -1.45 -10.45 -1.45 -10.45 -1.4 -10.45 -1.4 -10.45 Q-1.4 -10.45 -1.35 -10.45 L-1.35 -10.5 -1.3 -10.45 -1.3 -10.5 -1.25 -10.5 -1.25 -10.5 -1.2 -10.45 Q-1.2 -10.4 -1.2 -10.45 L-1.2 -10.45 -1.15 -10.45 -1.2 -10.55 -1.2 -10.55 -1.15 -10.6 -1.15 -10.6 -1.1 -10.65 Q-1.1 -10.6 -1.1 -10.55 L-1.1 -10.55 -1.05 -10.6 -1.05 -10.65 -1.0 -10.65 -1.0 -10.65 -1.0 -10.65 -1.0 -10.65 -0.95 -10.6 -0.95 -10.6 -0.9 -10.6 -0.9 -10.55 Q-0.85 -10.55 -0.9 -10.6 L-0.85 -10.65 -0.85 -10.65 -0.8 -10.65 -0.8 -10.7 -0.75 -10.7 -0.7 -10.7 -0.7 -10.7 -0.65 -10.7 -0.65 -10.65 -0.6 -10.65 -0.6 -10.6 -0.55 -10.6 -0.55 -10.55 -0.55 -10.55 -0.5 -10.55 -0.5 -10.5 -0.45 -10.55 -0.4 -10.5 -0.4 -10.5 Q-0.35 -10.5 -0.3 -10.55 L-0.3 -10.55 -0.25 -10.55 -0.25 -10.6 -0.25 -10.6 -0.25 -10.65 -0.2 -10.65 -0.2 -10.65 -0.15 -10.6 -0.15 -10.6 -0.15 -10.55 -0.15 -10.6 -0.1 -10.6 Q-0.1 -10.6 -0.1 -10.55 L-0.1 -10.55 Q-0.05 -10.55 -0.05 -10.6 L-0.05 -10.5 0.0 -10.55 0.05 -10.5 0.1 -10.45 0.1 -10.4 0.15 -10.4 0.15 -10.4 0.2 -10.4 0.2 -10.4 0.25 -10.35 0.25 -10.35 0.3 -10.3 M-1.15 -0.65 L-1.15 -0.6 -1.1 -0.55 -1.1 -0.55 -1.05 -0.6 -1.05 -0.75 -1.05 -0.75 -1.15 -0.7 -1.15 -0.65 M-0.7 -0.95 L-0.7 -0.95 -0.75 -0.9 -0.85 -0.85 -0.85 -0.85 -0.9 -0.8 -0.9 -0.8 -0.95 -0.8 -0.95 -0.8 -0.95 -0.8 -0.9 -0.8 -0.8 -0.85 -0.8 -0.8 -0.75 -0.85 -0.75 -0.8 -0.7 -0.85 -0.7 -0.85 -0.7 -0.95" fill="url(#gradient0)" fill-rule="evenodd" stroke="none"/>
    <path d="M0.3 -10.3 L0.25 -10.35 0.25 -10.35 0.2 -10.4 0.2 -10.4 0.15 -10.4 0.15 -10.4 0.1 -10.4 0.1 -10.45 0.05 -10.5 0.0 -10.55 -0.05 -10.5 -0.05 -10.6 Q-0.05 -10.55 -0.1 -10.55 L-0.1 -10.55 Q-0.1 -10.6 -0.1 -10.6 L-0.15 -10.6 -0.15 -10.55 -0.15 -10.6 -0.15 -10.6 -0.2 -10.65 -0.2 -10.65 -0.25 -10.65 -0.25 -10.6 -0.25 -10.6 -0.25 -10.55 -0.3 -10.55 -0.3 -10.55 Q-0.35 -10.5 -0.4 -10.5 L-0.4 -10.5 -0.45 -10.55 -0.5 -10.5 -0.5 -10.55 -0.55 -10.55 -0.55 -10.55 -0.55 -10.6 -0.6 -10.6 -0.6 -10.65 -0.65 -10.65 -0.65 -10.7 -0.7 -10.7 -0.7 -10.7 -0.75 -10.7 -0.8 -10.7 -0.8 -10.65 -0.85 -10.65 -0.85 -10.65 -0.9 -10.6 Q-0.85 -10.55 -0.9 -10.55 L-0.9 -10.6 -0.95 -10.6 -0.95 -10.6 -1.0 -10.65 -1.0 -10.65 -1.0 -10.65 -1.0 -10.65 -1.05 -10.65 -1.05 -10.6 -1.1 -10.55 -1.1 -10.55 Q-1.1 -10.6 -1.1 -10.65 L-1.15 -10.6 -1.15 -10.6 -1.2 -10.55 -1.2 -10.55 -1.15 -10.45 -1.2 -10.45 -1.2 -10.45 Q-1.2 -10.4 -1.2 -10.45 L-1.25 -10.5 -1.25 -10.5 -1.3 -10.5 -1.3 -10.45 -1.35 -10.5 -1.35 -10.45 Q-1.4 -10.45 -1.4 -10.45 L-1.4 -10.45 -1.45 -10.45 -1.45 -10.45 -1.5 -10.4 -1.5 -10.4 -1.5 -10.4 -1.55 -10.4 -1.65 -10.4 -1.65 -10.35 -1.6 -10.3 -1.55 -10.25 -1.55 -10.25 -1.6 -10.2 -1.6 -10.2 -1.65 -10.2 -1.65 -10.2 -1.7 -10.2 -1.7 -10.2 -1.7 -10.1 -1.7 -10.05 Q-1.7 -10.0 -1.75 -10.05 L-1.75 -10.05 -1.8 -10.1 -1.8 -10.1 -1.8 -9.95 -1.8 -9.9 -1.75 -9.9 -1.75 -9.85 -1.8 -9.85 -1.8 -9.85 -1.8 -9.8 -1.85 -9.8 -1.85 -9.8 -1.9 -9.8 -1.9 -9.75 -1.9 -9.7 -1.95 -9.7 -1.95 -9.65 -1.9 -9.6 -1.9 -9.6 Q-1.85 -9.55 -1.9 -9.55 L-1.95 -9.55 -1.95 -9.5 -2.0 -9.5 -2.0 -9.55 -2.05 -9.6 -2.1 -9.6 -2.1 -9.55 -2.1 -9.6 -2.15 -9.65 -2.15 -9.7 -2.2 -9.65 -2.2 -9.6 -2.25 -9.5 -2.25 -9.55 -2.3 -9.5 -2.3 -9.5 -2.35 -9.4 -2.35 -9.35 -2.35 -9.3 Q-2.3 -9.3 -2.35 -9.25 L-2.35 -9.3 -2.4 -9.3 -2.4 -9.15 -2.4 -9.1 -2.35 -9.05 -2.35 -9.05 -2.35 -8.95 -2.3 -8.9 -2.3 -8.85 -2.35 -8.85 -2.4 -8.85 -2.4 -8.8 -2.45 -8.8 -2.45 -8.75 -2.4 -8.7 -2.4 -8.7 -2.35 -8.65 -2.35 -8.65 -2.3 -8.65 -2.3 -8.65 -2.25 -8.6 -2.25 -8.55 -2.25 -8.55 -2.2 -8.55 -2.15 -8.5 -2.15 -8.55 -2.1 -8.55 -2.05 -8.55 -2.05 -8.5 -2.1 -8.45 -2.1 -8.45 -2.1 -8.4 -2.1 -8.35 -2.1 -8.3 -2.05 -8.3 -2.0 -8.3 -2.0 -8.3 -1.95 -8.3 -1.85 -8.3 -1.85 -8.3 -1.8 -8.3 -1.8 -8.3 -1.85 -8.25 -1.85 -8.25 -1.85 -8.2 -1.8 -8.15 -1.75 -8.15 -1.75 -8.15 -1.65 -8.15 -1.55 -8.15 -1.55 -8.1 -1.45 -8.1 -1.4 -8.1 -1.4 -8.15 -1.35 -8.15 -1.35 -8.15 -1.35 -8.15 -1.3 -8.1 -1.4 -7.95 -1.4 -7.95 -1.45 -7.85 -1.45 -7.8 -1.5 -7.7 -1.5 -7.7 -1.5 -7.8 -1.45 -7.9 -1.5 -7.85 -1.55 -7.8 -1.55 -7.8 -1.6 -7.8 -1.65 -7.75 -1.7 -7.8 -1.7 -7.75 -1.75 -7.75 -1.75 -7.75 -1.8 -7.75 -1.85 -7.7 -1.85 -7.7 -1.9 -7.6 -1.95 -7.55 -1.95 -7.5 -2.0 -7.45 -2.05 -7.35 -2.05 -7.3 -2.1 -7.35 -2.15 -7.3 -2.2 -7.3 -2.25 -7.3 -2.3 -7.35 -2.35 -7.35 -2.45 -7.35 -2.5 -7.35 -2.55 -7.35 -2.85 -7.3 -3.05 -7.15 -3.25 -7.15 Q-3.4 -7.1 -3.55 -7.0 L-3.8 -6.65 -4.0 -6.35 -4.1 -6.2 -4.2 -6.15 -4.4 -5.9 -4.45 -5.9 -4.65 -5.65 -4.65 -5.65 -4.75 -5.55 -5.0 -5.35 -5.15 -5.25 -5.4 -5.0 -5.65 -4.7 -5.7 -4.65 -5.9 -4.3 -6.0 -4.05 -6.0 -3.95 -6.0 -3.8 -6.0 -3.75 -6.0 -3.7 -5.95 -3.7 -6.1 -3.6 -6.1 -3.55 -6.2 -3.45 -6.25 -3.4 -6.25 -3.3 -6.3 -3.25 -6.3 -3.2 -6.35 -3.15 -6.35 -3.1 -6.45 -3.0 -6.45 -2.95 -6.5 -2.95 -6.5 -2.8 -6.55 -2.8 -6.55 -2.7 -6.55 -2.65 Q-6.5 -2.6 -6.55 -2.55 L-6.55 -2.55 -6.6 -2.45 -6.6 -2.35 -6.6 -2.15 -6.6 -2.05 -6.65 -2.0 -6.65 -2.0 -6.7 -1.9 -6.7 -1.8 -6.7 -1.75 -6.65 -1.7 -6.65 -1.65 -6.65 -1.65 -6.6 -1.65 -6.6 -1.4 -6.6 -0.55 -6.6 -0.15 -6.55 0.1 -6.55 0.1 -6.6 0.2 -6.6 0.25 -6.65 0.25 -6.65 0.3 -6.7 0.45 -6.7 0.5 -6.75 0.65 -6.8 0.8 -6.85 0.9 -6.85 1.1 -6.75 1.2 -6.7 1.2 -6.7 1.2 -6.6 1.3 -6.6 1.3 -6.5 1.3 -6.45 1.3 -6.45 1.3 -6.25 1.4 -6.25 1.4 -6.2 1.4 -6.05 1.4 -6.0 1.35 -6.0 1.3 -5.95 1.1 -5.95 1.05 -5.9 1.0 -5.8 0.9 -5.8 0.75 -5.85 0.6 -5.85 0.6 -5.85 0.6 -5.9 0.45 -5.9 0.4 -5.95 0.3 -6.0 0.15 -6.0 0.1 -5.95 0.05 -5.95 0.0 -5.95 -0.25 -5.95 -0.25 -5.9 -0.3 -5.9 -0.45 -5.85 -0.55 -5.85 -0.75 -5.85 -0.8 -5.85 -0.9 -5.85 -0.9 -5.8 -0.95 -5.75 -1.15 -5.75 -1.3 -5.75 -1.35 -5.75 -1.4 -5.7 -1.5 -5.65 -1.55 -5.55 -1.6 -5.5 -1.7 -5.5 -1.75 -5.5 -1.8 -5.5 -1.85 -5.45 -1.85 -5.45 -1.9 -5.5 -2.0 -5.5 -2.05 -5.45 -2.15 -5.45 -2.3 -5.45 -2.45 -5.4 -2.5 -5.4 -2.65 -5.35 -2.7 -5.35 -2.85 -5.35 -2.95 -5.3 -3.0 -5.3 -3.0 -5.35 -3.1 -5.3 -3.15 -5.3 -3.3 -5.3 -3.4 -5.3 -3.4 Q-5.15 -3.45 -5.1 -3.5 -5.0 -3.55 -4.95 -3.65 L-4.7 -3.95 -4.45 -4.25 -4.25 -4.45 Q-4.1 -4.6 -4.05 -4.8 L-3.75 -5.1 -3.65 -5.05 -3.5 -5.1 -3.35 -4.75 -3.3 -4.7 -3.3 -4.5 -3.3 -4.5 -3.2 -4.35 -3.2 -4.35 -3.15 -4.15 -3.15 -4.1 -3.15 -4.1 -3.1 -4.05 -3.15 -4.0 -3.15 -3.95 -3.1 -3.95 -3.1 -3.85 -3.1 -3.8 -3.1 -3.65 -3.1 -3.6 -3.15 -3.5 -3.15 -3.45 Q-3.15 -3.4 -3.2 -3.4 L-3.2 -3.35 -3.25 -3.3 -3.3 -3.35 -3.4 -3.35 -3.5 -3.3 -3.55 -3.25 -3.65 -3.2 -3.7 -3.2 -3.75 -3.15 -3.8 -3.1 -3.85 -3.05 -3.85 -2.9 -3.8 -2.75 -3.7 -2.7 -3.6 -2.6 -3.65 -2.55 -3.65 -2.5 -3.7 -2.45 -3.7 -2.45 -3.75 -2.35 -3.75 -2.35 -3.85 -2.45 -3.9 -2.45 -4.05 -2.4 -4.15 -2.35 -4.2 -2.25 -4.2 -2.05 -4.1 -1.9 -4.1 -1.85 -4.15 -1.75 -4.2 -1.75 -4.25 -1.65 -4.3 -1.65 -4.3 -1.65 -4.35 -1.6 -4.4 -1.55 -4.5 -1.5 -4.5 -1.45 -5.35 -0.9 -5.4 -0.85 -5.4 -0.8 -5.4 -0.8 -5.35 -0.7 -5.35 -0.55 -5.25 -0.5 -5.2 -0.45 -5.2 -0.45 -5.15 -0.45 -5.1 -0.45 -5.2 -0.4 -5.25 -0.4 -5.3 -0.35 -5.3 -0.25 -5.3 -0.2 -5.3 -0.2 -5.35 -0.2 -5.3 -0.15 -5.3 -0.1 -5.25 -0.05 -5.25 0.0 -5.2 0.0 -5.15 0.05 -5.15 0.05 -5.05 0.05 -5.0 0.05 -4.95 0.0 -4.95 0.0 -4.9 -0.05 -3.9 -0.7 -3.85 -0.65 -3.8 -0.65 -3.75 -0.7 -3.6 -0.8 -3.5 -0.85 -3.45 -0.9 -3.4 -0.9 -3.4 -0.85 -3.35 -0.7 -3.35 -0.65 -3.35 -0.6 -3.3 -0.55 -3.3 -0.55 -3.2 -0.35 -3.2 -0.3 -3.15 -0.25 -3.1 -0.2 -3.05 -0.1 -3.0 -0.05 -3.0 0.0 -2.9 0.15 -2.9 0.3 -2.9 0.45 -2.9 0.45 -2.9 0.55 -2.9 0.9 -2.9 1.0 -2.95 1.65 -3.0 1.75 -3.0 2.0 -3.0 2.15 -3.0 2.2 -3.05 2.15 -3.75 1.95 -4.2 1.85 -4.4 1.85 -4.55 1.8 -5.5 1.75 -5.9 1.75 -6.0 1.75 -6.35 1.75 -7.7 1.6 -7.7 1.6 Q-7.7 1.55 -7.7 1.55 L-7.75 1.5 -7.8 1.5 -7.85 1.5 -7.95 1.45 -8.05 1.45 -8.1 1.4 -8.15 1.35 -8.2 1.35 -8.25 1.35 -8.3 1.3 -8.35 1.3 -8.45 1.3 -8.55 1.3 -8.6 1.3 -8.6 1.3 -8.65 1.3 -8.7 1.3 -8.75 1.35 -8.8 1.4 -8.85 1.45 -8.85 1.5 -8.9 1.65 -9.05 1.9 Q-9.1 2.05 -9.0 2.15 L-9.0 2.2 -9.1 2.3 -9.2 2.4 -9.25 2.45 -9.3 2.5 -9.35 2.5 -9.4 2.6 -9.4 2.65 -9.45 2.75 -9.5 2.85 -9.55 2.95 -9.6 3.05 -9.65 3.15 -9.65 3.2 -9.7 3.45 -9.75 3.65 -9.7 3.85 -9.6 3.95 -9.55 3.95 -9.55 3.95 -9.5 3.95 -9.45 3.95 -9.35 3.95 -9.2 3.9 -9.2 3.85 -9.15 3.75 -9.1 3.7 -9.05 3.65 -9.05 3.6 -9.0 3.55 -8.9 3.45 -8.8 3.35 -8.75 3.35 -8.7 3.25 -8.65 3.2 -8.6 3.15 -8.55 3.15 -8.5 3.1 -8.45 3.05 -8.45 3.05 -8.25 2.9 -8.25 2.85 -8.1 2.8 -7.85 2.7 -7.75 2.65 -7.75 2.55 -7.7 2.5 -7.65 2.45 -7.55 2.45 -5.35 2.9 -4.8 3.1 -4.15 3.25 -4.1 3.25 -3.2 3.35 -2.85 3.3 -2.8 3.25 -2.75 3.25 -2.7 3.25 -2.7 3.25 -2.65 3.25 Q-2.65 3.3 -2.6 3.3 L-2.55 3.3 -2.55 3.35 -2.5 3.35 -2.5 3.35 -2.45 3.35 -2.4 3.3 -2.35 3.3 -2.35 3.3 -2.3 3.3 -2.3 3.3 -2.2 3.25 -2.1 3.15 -2.05 3.1 -2.05 3.05 -1.95 2.95 -1.95 2.85 -1.9 2.8 -1.9 2.75 -1.85 2.65 -1.8 2.45 -1.8 2.45 -1.7 2.1 -1.7 2.05 -1.7 2.0 -1.4 2.4 -1.3 2.5 -1.25 2.6 -1.2 2.65 -1.2 2.65 -1.0 2.9 -0.85 3.25 -0.8 3.35 -0.75 3.35 -0.65 3.5 -0.65 3.55 -0.6 3.6 -0.5 3.75 -0.5 3.8 -0.45 3.8 -0.25 4.1 -0.25 4.1 -0.2 4.2 -0.2 4.3 -0.25 4.7 -0.3 5.05 -0.35 5.5 -0.35 5.9 -0.3 6.8 -0.3 7.3 -0.25 7.65 Q-0.2 8.1 -0.2 8.55 L-0.2 9.75 -0.2 9.7 Q-0.25 9.7 -0.25 9.75 L-0.3 9.8 -0.25 9.85 -0.25 9.9 -0.3 10.0 -0.3 10.15 -0.3 10.3 -0.35 10.3 -0.3 10.4 -0.3 10.55 -0.25 10.65 -0.25 10.7 -0.25 10.7 -0.2 10.8 -0.15 10.8 -0.1 10.85 -0.05 10.85 0.0 10.85 0.2 10.9 0.25 10.9 0.4 10.9 0.45 10.9 0.5 10.9 0.5 10.85 0.6 10.8 0.65 10.8 0.75 10.8 1.0 10.95 1.1 11.0 1.15 11.05 1.2 11.05 1.3 11.1 1.4 11.1 1.5 11.15 1.6 11.15 1.7 11.15 1.85 11.15 1.9 11.15 2.15 11.15 2.35 11.1 2.55 11.0 2.6 10.85 2.55 10.8 2.55 10.75 2.5 10.65 2.4 10.5 2.3 10.5 2.2 10.5 2.15 10.45 2.1 10.45 2.05 10.4 1.9 10.35 1.8 10.25 1.75 10.25 1.65 10.2 1.6 10.2 1.55 10.15 1.5 10.1 1.45 10.05 1.4 10.05 1.2 9.9 1.15 9.85 1.05 9.8 0.9 9.55 0.8 9.45 0.7 9.45 0.65 9.45 0.6 9.4 0.6 8.75 Q0.6 8.15 0.65 7.55 0.7 7.05 0.8 6.55 L0.85 6.4 0.9 5.95 0.95 5.65 1.0 5.3 1.0 4.55 1.0 4.35 1.05 4.25 1.05 4.15 0.95 3.85 0.9 3.65 0.85 3.55 0.8 3.5 0.75 3.3 0.7 3.2 0.6 3.05 0.6 3.0 0.5 2.9 0.2 2.35 0.15 2.2 0.0 1.9 0.0 1.85 0.0 1.85 -0.05 1.7 -0.1 1.65 -0.1 1.55 -0.25 1.3 -0.25 1.25 -0.3 1.2 -0.3 1.15 -0.35 1.05 -0.4 0.95 -0.4 0.85 -0.55 0.6 -0.55 0.55 -0.6 0.45 -0.55 0.4 -0.5 0.4 -0.45 0.4 -0.4 0.35 -0.35 0.3 -0.3 0.2 -0.25 0.15 -0.15 0.1 0.0 -0.05 0.05 -0.15 0.1 -0.2 0.1 -0.2 0.15 -0.25 0.2 -0.3 0.2 -0.3 0.25 -0.35 0.25 -0.45 0.25 -0.5 0.3 -0.5 0.35 -0.5 0.35 -0.55 0.4 -0.55 0.45 -0.55 0.45 -0.55 0.45 -0.5 0.55 -0.5 0.65 -0.5 0.7 -0.5 0.75 -0.5 0.75 -0.55 0.7 -0.6 0.65 -0.6 0.6 -0.65 0.55 -0.65 0.5 -0.6 0.5 -0.65 0.45 -0.65 0.4 -0.65 0.4 -0.65 Q0.4 -0.65 0.35 -0.65 L0.35 -0.75 0.4 -0.8 0.4 -0.8 0.45 -0.85 0.45 -0.9 0.4 -0.95 0.35 -1.0 0.3 -1.0 0.25 -1.15 0.2 -1.35 0.15 -1.55 0.1 -1.7 -0.05 -2.0 -0.2 -2.2 -0.3 -2.3 -0.25 -2.35 -0.2 -2.65 -0.15 -2.75 -0.05 -3.1 -0.05 -3.1 0.05 -3.45 0.1 -3.75 0.1 -3.75 0.15 -4.05 0.2 -4.35 0.3 -4.5 0.3 -4.5 0.4 -4.5 0.6 -4.05 Q0.55 -3.85 0.65 -3.7 L0.75 -3.4 0.9 -3.05 1.0 -2.7 1.1 -2.5 1.2 -2.35 1.2 -2.35 1.25 -2.35 1.25 -2.25 1.25 -2.2 1.3 -2.2 1.4 -2.15 1.45 -2.15 1.45 -2.15 1.65 -2.05 1.7 -2.05 1.7 -2.05 1.85 -2.05 1.9 -2.05 2.0 -2.05 2.1 -2.1 2.1 -2.1 2.2 -2.1 2.25 -2.1 2.35 -2.05 2.4 -2.05 2.4 -2.05 2.45 -2.05 2.5 -2.1 2.55 -2.1 2.55 -2.1 2.6 -2.1 2.65 -2.1 2.7 -2.15 2.8 -2.2 2.8 -2.2 2.9 -2.25 3.0 -2.25 3.0 -2.25 3.05 -2.3 3.15 -2.35 3.2 -2.35 3.3 -2.4 3.3 -2.4 3.4 -2.4 3.45 -2.4 3.55 -2.45 3.55 -2.5 3.6 -2.5 3.6 -2.55 3.6 -2.6 3.65 -2.65 3.8 -2.75 4.1 -2.9 4.55 -3.15 Q4.7 -3.25 4.85 -3.4 L5.1 -3.55 5.15 -3.55 5.2 -3.5 5.4 -3.5 5.4 -3.5 5.5 -3.5 5.55 -3.5 5.65 -3.6 5.6 -3.75 5.55 -3.8 5.5 -3.85 5.55 -3.9 5.55 -4.1 5.5 -4.25 5.5 -4.25 5.55 -4.25 5.6 -4.2 5.7 -4.2 5.75 -4.15 5.8 -4.15 5.8 -4.1 5.75 -4.1 5.7 -4.05 5.7 -3.95 5.75 -3.9 5.75 -3.9 5.7 -3.85 5.7 -3.75 5.75 -3.7 5.75 -3.65 5.7 -3.65 5.7 -3.6 5.75 -3.5 5.85 -3.55 5.85 -3.55 5.95 -3.6 5.95 -3.7 6.05 -3.85 6.05 -3.9 6.05 -3.9 6.1 -4.0 6.15 -4.05 6.1 -4.1 Q6.2 -4.1 6.2 -4.15 L6.2 -4.35 6.05 -4.45 5.9 -4.45 5.8 -4.45 5.6 -4.65 Q5.5 -4.65 5.35 -4.55 L5.3 -4.55 5.2 -4.5 5.05 -4.4 4.9 -4.2 4.9 -4.1 4.85 -4.05 4.8 -4.05 4.7 -4.0 4.7 -4.0 4.65 -4.0 4.65 -3.95 4.45 -3.9 4.45 -3.9 4.4 -3.9 4.35 -3.85 4.25 -3.8 Q4.2 -3.8 4.15 -3.8 L4.1 -3.75 4.0 -3.7 3.95 -3.7 3.95 -3.7 3.85 -3.65 3.85 -3.65 3.8 -3.65 3.6 -3.55 3.6 -3.55 3.45 -3.5 3.45 -3.5 3.4 -3.5 3.25 -3.45 3.2 -3.45 3.2 -3.5 3.1 -3.55 3.0 -3.55 3.0 -3.5 2.95 -3.5 2.9 -3.5 2.9 -3.5 2.85 -3.5 2.8 -3.45 2.75 -3.35 2.7 -3.35 2.55 -3.35 2.55 -3.3 2.45 -3.25 2.4 -3.25 Q2.35 -3.25 2.3 -3.2 L2.3 -3.2 2.15 -3.15 2.15 -3.15 2.1 -3.15 2.05 -3.35 2.05 -3.45 1.9 -3.8 1.75 -4.15 1.65 -4.25 1.5 -4.5 1.45 -4.65 1.45 -4.7 1.3 -4.95 1.3 -5.0 1.2 -5.25 1.15 -5.35 1.1 -5.55 1.0 -5.9 0.85 -6.3 Q0.8 -6.45 0.65 -6.55 L0.35 -6.7 0.35 -6.7 0.15 -6.7 0.15 -6.65 0.1 -6.65 0.05 -6.65 0.0 -6.65 -0.05 -6.7 -0.05 -6.7 -0.05 -6.75 -0.05 -6.9 -0.05 -7.0 -0.05 -7.1 0.05 -7.3 0.05 -7.3 0.1 -7.35 0.1 -7.35 0.15 -7.45 0.15 -7.45 0.2 -7.5 0.2 -7.55 0.2 -7.65 0.25 -7.7 0.25 -7.75 0.25 -7.85 0.25 -7.9 0.3 -7.9 0.3 -7.95 0.35 -7.85 Q0.4 -7.8 0.45 -7.85 L0.45 -7.9 0.5 -7.8 0.45 -7.8 0.45 -7.8 0.5 -7.8 0.55 -7.8 0.55 -7.85 0.6 -7.85 0.6 -7.75 0.65 -7.75 0.65 -7.85 0.7 -7.85 0.7 -7.95 0.7 -8.05 0.7 -8.05 0.75 -8.05 0.75 -8.05 0.75 -8.05 0.7 -8.1 0.8 -8.1 Q0.85 -8.1 0.85 -8.15 L0.9 -8.15 0.9 -8.2 0.85 -8.2 0.8 -8.2 0.75 -8.25 0.8 -8.25 0.9 -8.3 Q0.85 -8.3 0.8 -8.3 L0.8 -8.3 0.75 -8.35 0.75 -8.35 Q0.7 -8.35 0.7 -8.35 L0.75 -8.4 0.8 -8.4 0.75 -8.45 0.75 -8.5 0.8 -8.55 0.8 -8.55 0.85 -8.55 0.9 -8.55 Q0.95 -8.6 0.9 -8.65 L0.9 -8.65 0.85 -8.65 0.8 -8.65 0.85 -8.75 0.85 -8.75 0.9 -8.8 0.9 -8.9 0.9 -8.9 0.85 -8.9 0.85 -8.95 0.9 -8.95 0.95 -8.95 1.0 -9.0 1.0 -9.05 1.0 -9.05 0.95 -9.1 0.9 -9.1 0.9 -9.15 0.9 -9.2 0.85 -9.2 0.85 -9.2 0.8 -9.2 Q0.8 -9.2 0.8 -9.25 L0.85 -9.25 Q0.9 -9.3 0.85 -9.4 L0.85 -9.35 0.8 -9.35 0.75 -9.4 0.75 -9.4 0.8 -9.45 0.8 -9.5 0.85 -9.6 0.85 -9.6 0.95 -9.75 0.95 -9.75 0.9 -9.9 0.9 -9.95 0.85 -9.95 0.85 -9.9 0.85 -9.8 Q0.8 -9.8 0.8 -9.85 L0.8 -9.8 0.75 -9.75 0.75 -9.75 0.7 -9.75 0.65 -9.8 0.7 -9.85 0.7 -9.85 0.75 -9.9 0.75 -9.95 0.65 -10.05 0.65 -10.05 0.6 -10.05 0.55 -10.1 0.55 -10.1 Q0.55 -10.15 0.5 -10.15 L0.45 -10.15 0.45 -10.15 0.4 -10.2 0.4 -10.2 0.35 -10.25 0.35 -10.25 0.3 -10.3 0.3 -10.3 M-4.15 -2.05 L-4.15 -2.15 -4.05 -2.25 -4.05 -2.2 Q-4.0 -2.2 -3.95 -2.15 L-3.9 -2.2 -3.85 -2.2 -3.9 -2.15 -3.9 -2.05 -3.9 -2.0 -3.9 -1.9 -4.0 -1.9 -4.0 -1.9 -4.0 -1.9 -4.1 -1.95 -4.15 -2.05 -4.15 -2.05 M-1.15 -0.65 L-1.15 -0.6 -1.1 -0.55 -1.1 -0.55 -1.05 -0.6 -1.05 -0.75 -1.05 -0.75 -1.15 -0.7 -1.15 -0.65 M-0.7 -0.95 L-0.7 -0.85 -0.7 -0.85 -0.75 -0.8 -0.75 -0.85 -0.8 -0.8 -0.8 -0.85 -0.9 -0.8 -0.95 -0.8 -0.95 -0.8 -0.95 -0.8 -0.9 -0.8 -0.9 -0.8 -0.85 -0.85 -0.85 -0.85 -0.75 -0.9 -0.7 -0.95 -0.7 -0.95 Z" fill="none" stroke="#000000" stroke-linecap="round" stroke-linejoin="round" stroke-opacity="0.4509804" stroke-width="1.0"/>
  </g>
  <defs>
    <linearGradient gradientTransform="matrix(0.0, -0.0149, 0.0051, 0.0, 16.95, -0.45)" gradientUnits="userSpaceOnUse" id="gradient0" spreadMethod="pad" x1="-819.2" x2="819.2">
      <stop offset="0.0" stop-color="#0a1a25"/>
      <stop offset="1.0" stop-color="#6db8ad"/>
    </linearGradient>
  </defs>
</svg>
