<?xml version="1.0" encoding="UTF-8" standalone="no"?>
<svg xmlns:xlink="http://www.w3.org/1999/xlink" height="22.55px" width="11.4px" xmlns="http://www.w3.org/2000/svg">
  <g transform="matrix(1.0, 0.0, 0.0, 1.0, 5.45, 10.95)">
    <path d="M-4.2 -2.55 L-4.2 -2.45 -4.15 -2.4 -4.1 -2.35 -4.1 -2.45 -4.05 -2.6 -4.1 -2.65 -4.1 -2.65 -4.2 -2.55 M0.0 -10.75 L0.05 -10.7 0.05 -10.65 0.1 -10.65 Q0.1 -10.6 0.15 -10.6 L0.15 -10.65 0.2 -10.65 0.2 -10.6 0.25 -10.55 0.25 -10.5 0.3 -10.5 0.3 -10.45 0.35 -10.45 0.35 -10.45 0.4 -10.45 0.4 -10.4 Q0.4 -10.35 0.45 -10.35 L0.45 -10.35 Q0.5 -10.4 0.55 -10.35 L0.55 -10.3 Q0.55 -10.3 0.6 -10.3 L0.6 -10.3 0.65 -10.25 0.65 -10.25 0.75 -10.2 0.75 -10.15 0.7 -10.15 0.7 -10.05 0.65 -10.0 0.7 -9.95 0.7 -9.95 0.75 -9.95 0.8 -10.0 0.8 -10.05 Q0.8 -10.0 0.85 -10.05 L0.85 -10.1 0.85 -10.15 0.85 -10.2 0.9 -10.15 0.95 -9.95 0.95 -9.95 0.85 -9.8 0.85 -9.8 0.75 -9.75 0.75 -9.7 0.8 -9.7 0.75 -9.6 0.75 -9.6 0.8 -9.6 0.8 -9.6 0.85 -9.6 0.85 -9.6 Q0.9 -9.5 0.85 -9.5 L0.8 -9.5 Q0.8 -9.45 0.8 -9.4 L0.85 -9.4 0.85 -9.45 0.9 -9.4 0.9 -9.4 0.9 -9.3 0.95 -9.3 1.0 -9.3 1.0 -9.25 1.0 -9.25 0.9 -9.2 0.9 -9.2 0.85 -9.2 0.8 -9.15 0.85 -9.15 0.85 -9.1 0.9 -9.1 0.9 -9.05 0.85 -9.0 0.85 -9.0 0.8 -8.9 0.85 -8.9 0.85 -8.9 0.9 -8.9 Q0.9 -8.8 0.85 -8.75 L0.85 -8.75 0.8 -8.75 0.8 -8.75 0.75 -8.7 0.75 -8.7 0.8 -8.65 0.75 -8.65 Q0.75 -8.6 0.7 -8.6 L0.7 -8.6 Q0.7 -8.55 0.7 -8.55 L0.75 -8.55 0.8 -8.55 0.8 -8.55 0.9 -8.5 0.8 -8.5 0.75 -8.45 0.8 -8.4 0.85 -8.4 0.9 -8.4 0.9 -8.4 0.85 -8.35 Q0.85 -8.35 0.8 -8.35 L0.7 -8.35 0.75 -8.3 0.75 -8.25 0.75 -8.25 0.7 -8.3 0.7 -8.3 0.7 -8.2 0.7 -8.1 0.65 -8.05 0.65 -8.0 0.6 -8.0 0.6 -8.0 0.6 -8.05 0.55 -8.05 0.55 -8.0 0.5 -8.0 0.45 -8.0 0.45 -8.0 0.5 -8.05 0.45 -8.1 0.45 -8.1 Q0.4 -8.05 0.35 -8.05 L0.3 -8.2 0.3 -8.2 0.25 -8.15 0.25 -8.1 0.25 -8.0 0.2 -7.95 0.2 -7.9 0.2 -7.9 0.2 -7.75 0.15 -7.7 0.15 -7.65 0.1 -7.6 0.1 -7.55 0.05 -7.55 0.0 -7.55 -0.05 -7.35 -0.05 -7.25 -0.05 -7.15 -0.1 -7.1 -0.1 -7.0 -0.1 -6.95 -0.05 -6.95 -0.05 -6.9 0.0 -6.9 0.05 -6.85 0.1 -6.85 0.1 -6.85 0.2 -6.9 0.2 -6.9 0.3 -6.95 0.35 -6.95 0.35 -6.95 0.5 -6.95 0.5 -6.95 0.6 -6.9 0.8 -6.75 Q0.95 -6.6 0.95 -6.45 L1.05 -6.05 1.05 -5.45 1.1 -5.35 1.15 -5.05 1.15 -5.05 1.2 -4.75 1.25 -4.7 1.25 -4.55 1.35 -4.25 1.45 -4.15 1.55 -3.8 1.6 -3.45 1.6 -2.95 1.6 -2.85 1.7 -2.85 1.8 -2.85 1.85 -2.8 1.95 -2.8 1.95 -2.8 2.1 -2.8 2.15 -2.8 Q2.2 -2.75 2.25 -2.8 L2.25 -2.8 2.35 -2.75 2.45 -2.75 2.55 -2.8 2.55 -2.8 Q2.6 -2.8 2.6 -2.75 L2.65 -2.75 2.65 -2.8 2.7 -2.8 2.75 -2.75 2.75 -2.75 2.85 -2.7 2.9 -2.65 2.9 -2.6 2.95 -2.55 3.05 -2.55 3.15 -2.55 3.15 -2.55 3.3 -2.5 3.3 -2.55 3.5 -2.5 3.55 -2.5 3.55 -2.5 3.65 -2.45 3.65 -2.5 3.7 -2.5 3.7 -2.5 3.85 -2.45 3.9 -2.45 4.0 -2.45 4.1 -2.45 4.15 -2.45 4.2 -2.4 4.2 -2.45 4.4 -2.4 4.45 -2.4 4.45 -2.4 4.5 -2.4 4.6 -2.4 4.65 -2.4 4.7 -2.4 4.7 -2.45 4.75 -2.5 4.95 -2.6 5.15 -2.65 5.3 -2.65 5.3 -2.65 5.55 -2.6 5.65 -2.3 5.75 -2.3 5.85 -2.25 5.95 -2.05 5.95 -1.95 5.9 -1.85 Q5.85 -1.85 5.75 -1.85 L5.75 -1.85 5.7 -1.75 Q5.7 -1.75 5.65 -1.75 L5.6 -1.75 5.6 -1.65 Q5.55 -1.6 5.45 -1.6 L5.45 -1.55 5.4 -1.5 5.3 -1.45 5.3 -1.5 5.2 -1.5 5.15 -1.6 5.2 -1.6 5.2 -1.65 5.25 -1.65 5.25 -1.7 5.3 -1.7 5.25 -1.75 5.3 -1.8 5.35 -1.85 5.35 -1.9 5.4 -2.0 5.45 -2.0 5.5 -2.0 5.5 -2.05 5.45 -2.15 Q5.4 -2.15 5.35 -2.15 L5.35 -2.25 5.3 -2.3 5.3 -2.3 5.25 -2.1 5.15 -1.95 5.15 -1.9 5.15 -1.6 5.0 -1.6 5.0 -1.6 4.85 -1.65 4.85 -1.65 4.7 -1.8 4.65 -1.8 4.65 -1.8 4.35 -1.8 3.95 -1.75 3.45 -1.7 3.1 -1.7 2.95 -1.7 2.85 -1.7 2.85 -1.65 2.8 -1.6 2.8 -1.6 2.75 -1.6 2.75 -1.55 2.65 -1.55 2.6 -1.55 Q2.55 -1.55 2.5 -1.6 L2.5 -1.65 2.35 -1.65 2.35 -1.65 2.25 -1.6 2.15 -1.6 2.15 -1.6 2.1 -1.65 2.0 -1.7 1.95 -1.7 1.85 -1.7 1.8 -1.65 1.75 -1.65 1.7 -1.7 1.7 -1.7 1.65 -1.7 1.6 -1.7 1.55 -1.7 1.55 -1.7 1.5 -1.75 Q1.45 -1.8 1.4 -1.85 L1.35 -1.85 1.3 -1.9 1.25 -1.9 1.2 -1.9 1.1 -1.95 1.05 -1.95 0.95 -2.05 0.9 -2.05 Q0.9 -2.05 0.85 -2.1 L0.75 -2.2 0.75 -2.25 0.7 -2.25 0.6 -2.35 0.6 -2.4 0.6 -2.45 0.6 -2.5 0.5 -2.65 Q0.45 -2.75 0.45 -2.85 L0.4 -3.25 0.35 -3.6 0.25 -3.95 Q0.2 -4.1 0.3 -4.3 L0.2 -4.6 0.2 -4.55 0.15 -4.3 0.1 -4.0 0.1 -4.0 0.05 -3.7 0.0 -3.35 -0.05 -3.35 -0.15 -3.0 -0.15 -2.9 -0.2 -2.7 -0.05 -2.5 0.1 -2.2 0.1 -2.05 0.15 -1.85 0.25 -1.6 0.3 -1.5 0.35 -1.45 0.4 -1.45 0.4 -1.35 0.45 -1.3 0.4 -1.3 0.4 -1.3 0.35 -1.25 0.35 -1.25 0.3 -1.2 0.35 -1.15 Q0.35 -1.15 0.4 -1.15 L0.4 -1.15 0.45 -1.1 0.5 -1.1 0.55 -1.1 0.6 -1.1 0.65 -1.1 0.7 -1.1 0.7 -1.0 0.7 -0.95 0.6 -1.0 0.5 -1.0 0.45 -1.0 0.45 -1.0 0.4 -1.0 0.35 -1.0 0.35 -1.05 0.35 -1.0 0.3 -1.0 0.25 -1.0 0.25 -0.95 0.25 -0.9 0.25 -0.85 0.2 -0.8 0.2 -0.8 0.15 -0.75 0.1 -0.7 0.1 -0.7 0.1 -0.6 0.35 -0.1 0.4 0.0 0.45 0.1 0.45 0.15 0.5 0.15 0.5 0.2 0.65 0.45 0.8 0.75 0.85 0.85 0.9 0.9 0.95 1.05 1.0 1.1 1.0 1.15 1.1 1.3 1.1 1.35 1.15 1.35 1.15 1.4 1.3 1.7 1.35 1.85 1.4 2.0 1.4 2.05 1.4 2.15 1.45 2.2 1.45 2.4 1.45 2.6 1.4 2.65 1.4 2.7 1.35 2.7 1.35 2.75 1.3 2.8 1.25 2.85 1.2 2.85 1.15 2.85 Q1.15 2.9 1.1 2.85 L1.05 2.85 1.05 2.9 Q1.0 2.9 1.0 2.9 L0.95 2.95 0.9 2.95 0.9 2.9 0.85 2.9 0.7 3.15 0.55 3.25 0.05 3.75 0.0 3.8 -0.25 4.0 -0.55 4.15 -0.9 4.4 -1.05 4.45 -1.95 5.05 -2.15 5.2 Q-2.15 5.45 -2.2 5.75 L-2.2 5.8 -2.25 6.1 -2.35 6.4 -2.5 6.8 -2.55 6.95 -2.75 7.8 -2.75 7.8 -2.7 7.9 -2.7 8.05 -2.8 8.15 -2.8 8.2 -2.85 8.2 -2.95 9.15 -3.05 9.9 -3.05 9.95 -3.0 9.95 -2.9 9.9 -2.9 9.95 -2.8 10.05 -2.65 10.25 -2.55 10.3 -2.55 10.3 -2.5 10.35 -2.3 10.45 -2.3 10.5 -2.25 10.5 -2.25 10.5 -2.2 10.55 -2.15 10.55 -2.05 10.6 -2.05 10.65 -1.9 10.7 -1.9 10.7 -1.65 10.8 Q-1.6 10.85 -1.55 10.85 L-1.55 10.85 -1.45 10.9 -1.4 10.9 Q-1.35 10.9 -1.3 10.9 L-1.25 10.95 -1.15 11.05 -1.1 11.15 -1.1 11.2 -1.1 11.25 Q-1.05 11.35 -1.1 11.4 L-1.3 11.5 -1.5 11.55 -1.75 11.6 -1.8 11.6 -1.95 11.6 -2.05 11.6 -2.15 11.55 -2.25 11.55 -2.35 11.55 -2.45 11.5 -2.5 11.5 -2.55 11.45 -2.6 11.45 -2.65 11.4 -2.8 11.35 -3.0 11.25 -3.1 11.25 -3.15 11.35 -3.15 11.4 -3.2 11.4 -3.25 11.4 -3.4 11.4 -3.45 11.35 -3.65 11.35 -3.7 11.35 -3.75 11.35 -3.8 11.3 -3.85 11.3 -3.9 11.2 -3.9 11.2 -3.95 11.15 -3.95 11.05 -4.0 10.9 -4.0 10.9 -4.0 10.8 -4.0 10.65 -3.95 10.6 -3.95 10.5 -3.95 10.35 -3.95 10.25 Q-3.95 10.2 -3.9 10.2 L-3.85 10.2 -3.85 9.75 -3.75 8.85 Q-3.7 8.45 -3.7 7.95 L-3.7 7.65 -3.7 7.55 -3.8 7.45 -3.8 7.4 -3.85 7.3 -3.9 7.2 -3.85 7.15 -3.9 7.15 Q-3.85 7.1 -3.9 7.05 L-3.9 6.9 -3.95 6.8 -4.0 6.7 -4.0 6.7 -4.15 6.65 -4.15 6.65 -4.2 6.65 -4.2 6.65 -4.3 6.55 -4.35 6.35 -4.45 6.25 -4.45 6.2 -4.5 6.1 -4.5 5.95 -4.45 5.95 -4.45 5.95 -4.4 5.9 -4.35 5.85 -4.3 5.75 -4.25 5.7 -4.2 5.65 -4.2 5.65 -4.15 5.6 -4.05 5.6 -4.0 5.55 -3.95 5.5 -3.85 5.45 -3.8 5.4 -3.8 5.4 -3.75 5.35 -3.65 5.35 -3.65 5.4 -3.45 5.25 -3.4 5.05 -3.3 4.65 -3.2 4.45 -3.15 4.3 -3.15 4.3 -3.2 4.1 -3.2 4.1 -3.25 3.75 -3.25 3.7 -3.25 3.65 -3.3 3.5 -3.3 3.35 -3.3 3.2 -3.35 3.15 -3.35 2.7 -3.4 2.4 -3.4 2.35 -3.4 2.3 -3.45 2.15 -3.45 2.1 -3.55 1.55 -3.55 1.45 -3.6 1.4 -3.65 1.0 -3.65 0.95 -3.7 0.7 -3.7 0.5 -3.75 0.4 -3.75 0.35 Q-3.75 0.15 -3.8 -0.05 L-3.8 -0.1 -3.8 -0.4 -3.8 -0.5 -3.8 -0.6 -3.85 -0.65 -3.85 -0.65 -3.85 -0.75 -3.85 -0.8 -3.9 -0.9 -3.9 -0.9 -3.95 -1.0 -4.0 -1.05 -4.95 -0.45 -4.95 -0.45 -5.0 -0.4 -5.05 -0.35 -5.1 -0.35 -5.2 -0.35 -5.2 -0.35 -5.25 -0.4 -5.3 -0.45 -5.3 -0.45 -5.35 -0.5 -5.35 -0.55 -5.35 -0.6 -5.35 -0.6 -5.35 -0.65 -5.35 -0.75 -5.3 -0.8 -5.25 -0.8 -5.15 -0.9 -5.2 -0.9 -5.25 -0.85 -5.25 -0.9 -5.3 -0.9 -5.4 -1.0 -5.4 -1.1 -5.45 -1.2 -5.45 -1.2 -5.45 -1.25 -5.4 -1.3 -4.55 -1.85 -4.55 -1.95 -4.45 -2.0 -4.4 -2.05 -4.35 -2.05 -4.35 -2.05 -4.3 -2.1 -4.25 -2.15 Q-4.25 -2.15 -4.2 -2.15 L-4.15 -2.25 -4.15 -2.3 -4.25 -2.45 -4.25 -2.65 -4.2 -2.75 -4.15 -2.8 -4.15 -2.8 -4.2 -2.9 -4.25 -2.95 -4.25 -2.95 -4.3 -3.25 -4.3 -3.75 -4.25 -4.15 -4.15 -4.5 -4.1 -4.6 -4.0 -4.9 -3.95 -5.05 -3.95 -5.1 -3.9 -5.4 -3.85 -5.4 -3.85 -5.7 Q-3.8 -5.75 -3.8 -5.8 L-3.75 -6.05 -3.75 -6.4 -3.7 -6.8 Q-3.65 -6.95 -3.5 -7.1 L-3.35 -7.25 -3.25 -7.3 -3.25 -7.3 -3.2 -7.3 Q-3.05 -7.45 -2.9 -7.5 L-2.55 -7.55 -2.55 -7.55 -2.45 -7.6 -2.35 -7.6 -2.3 -7.55 -2.25 -7.55 -2.2 -7.55 -2.15 -7.55 -2.1 -7.55 -2.05 -7.55 -2.05 -7.6 -2.0 -7.7 -1.95 -7.75 -1.95 -7.8 -1.9 -7.85 -1.85 -7.95 -1.85 -7.95 -1.8 -8.0 -1.75 -8.0 -1.75 -8.0 -1.7 -8.0 -1.7 -8.0 -1.65 -8.0 -1.6 -8.0 -1.6 -8.05 -1.55 -8.05 -1.5 -8.1 -1.45 -8.1 -1.5 -8.0 -1.55 -7.9 -1.5 -7.9 -1.5 -7.95 -1.45 -8.05 -1.45 -8.1 -1.4 -8.2 -1.4 -8.2 -1.35 -8.35 -1.35 -8.4 -1.35 -8.35 -1.4 -8.35 -1.4 -8.35 -1.45 -8.3 -1.45 -8.3 -1.55 -8.3 -1.55 -8.35 -1.6 -8.35 -1.65 -8.35 -1.75 -8.35 -1.75 -8.35 Q-1.8 -8.35 -1.85 -8.35 L-1.85 -8.4 -1.85 -8.45 -1.85 -8.45 -1.8 -8.5 -1.8 -8.55 -1.85 -8.5 -1.9 -8.5 -2.0 -8.55 -2.0 -8.5 -2.05 -8.5 -2.1 -8.55 -2.1 -8.6 -2.1 -8.65 -2.15 -8.65 -2.1 -8.65 -2.1 -8.7 -2.1 -8.8 -2.15 -8.8 -2.2 -8.75 -2.2 -8.75 -2.25 -8.75 -2.25 -8.8 -2.3 -8.8 -2.3 -8.9 -2.35 -8.9 -2.35 -8.9 -2.4 -8.9 -2.4 -8.9 -2.45 -9.0 -2.45 -9.0 -2.4 -9.05 -2.4 -9.05 -2.35 -9.1 -2.35 -9.1 -2.3 -9.1 -2.3 -9.1 -2.35 -9.15 -2.35 -9.2 -2.35 -9.3 -2.4 -9.3 -2.4 -9.35 -2.4 -9.45 -2.4 -9.5 -2.35 -9.5 -2.35 -9.5 -2.35 -9.55 -2.35 -9.6 -2.3 -9.7 -2.3 -9.75 -2.25 -9.75 -2.25 -9.75 Q-2.2 -9.75 -2.25 -9.8 L-2.2 -9.85 -2.2 -9.9 -2.15 -9.85 -2.15 -9.85 -2.15 -9.8 -2.1 -9.8 -2.1 -9.85 -2.05 -9.8 -2.0 -9.75 -2.0 -9.75 -1.95 -9.75 -1.95 -9.75 -1.9 -9.75 -1.9 -9.8 -1.9 -9.85 -1.95 -9.85 -1.95 -9.9 -1.9 -9.95 -1.9 -9.95 Q-1.9 -10.0 -1.9 -10.0 L-1.9 -10.0 -1.9 -10.0 -1.85 -10.0 -1.8 -10.0 -1.85 -10.05 -1.8 -10.1 -1.8 -10.1 -1.75 -10.1 -1.75 -10.1 -1.8 -10.15 -1.8 -10.15 -1.85 -10.25 -1.8 -10.3 -1.8 -10.35 -1.75 -10.3 -1.75 -10.25 Q-1.7 -10.2 -1.7 -10.25 L-1.7 -10.3 -1.75 -10.35 -1.7 -10.4 -1.7 -10.4 -1.7 -10.45 -1.65 -10.4 -1.6 -10.45 -1.6 -10.45 -1.6 -10.5 -1.65 -10.55 -1.65 -10.6 -1.55 -10.6 -1.55 -10.6 -1.5 -10.6 -1.5 -10.65 -1.5 -10.65 -1.45 -10.65 -1.45 -10.65 -1.4 -10.65 -1.4 -10.65 -1.35 -10.7 -1.35 -10.7 -1.3 -10.65 -1.3 -10.7 -1.25 -10.7 -1.25 -10.65 -1.2 -10.65 -1.2 -10.65 -1.2 -10.75 -1.2 -10.8 -1.15 -10.8 -1.15 -10.85 Q-1.1 -10.8 -1.1 -10.75 L-1.1 -10.8 -1.05 -10.85 -1.05 -10.9 -1.0 -10.9 -1.0 -10.85 -1.0 -10.85 -0.95 -10.85 -0.95 -10.85 -0.9 -10.8 -0.9 -10.75 Q-0.9 -10.8 -0.9 -10.85 L-0.85 -10.85 -0.85 -10.9 -0.8 -10.9 -0.8 -10.95 -0.75 -10.9 -0.75 -10.9 -0.7 -10.95 -0.7 -10.95 -0.65 -10.9 -0.65 -10.85 -0.6 -10.85 -0.6 -10.85 -0.55 -10.8 -0.55 -10.75 -0.55 -10.8 Q-0.5 -10.8 -0.5 -10.75 L-0.5 -10.75 -0.45 -10.75 -0.4 -10.75 -0.4 -10.7 -0.35 -10.75 -0.3 -10.75 -0.3 -10.8 -0.3 -10.85 -0.25 -10.85 -0.25 -10.9 -0.2 -10.85 -0.2 -10.8 -0.15 -10.8 -0.15 -10.8 -0.15 -10.8 -0.1 -10.8 Q-0.1 -10.8 -0.1 -10.75 L-0.1 -10.75 -0.05 -10.8 -0.05 -10.75 0.0 -10.75 M-1.7 -0.4 L-1.8 -0.45 -1.85 -0.5 -1.95 -0.6 -1.95 -0.55 -1.95 -0.45 -1.95 -0.35 -1.95 -0.3 -1.9 -0.2 -1.9 -0.15 -1.7 -0.35 -1.7 -0.4 M-0.6 1.1 L-0.75 0.85 -0.8 0.85 -0.8 0.8 -0.8 0.8 -0.9 0.7 -0.9 0.7 -1.0 0.6 -1.1 0.45 -1.4 0.75 -1.45 0.8 -1.45 0.8 -1.5 0.85 -1.55 0.9 -1.65 0.9 -1.65 0.9 -1.7 0.85 -1.75 0.85 -1.75 0.85 -1.8 0.8 -1.8 0.75 -1.85 0.75 -1.85 0.7 -1.85 0.65 -1.9 0.65 -1.85 0.55 -1.9 0.5 -1.85 0.5 -1.8 0.45 -1.75 0.35 -1.75 0.4 -1.8 0.4 -1.85 0.4 -1.9 0.4 -1.9 0.55 -1.9 0.8 -1.9 1.05 -1.9 1.05 -1.8 1.1 -1.8 1.15 -1.7 1.2 -1.65 1.25 -1.55 1.35 -1.55 1.35 -1.55 1.35 -1.4 1.5 -1.35 1.6 -1.35 1.6 -1.4 1.7 -1.4 1.8 -1.4 1.85 -1.35 2.05 -1.3 2.05 -1.35 2.1 -1.35 2.15 -1.5 2.25 -1.5 2.25 -1.55 2.25 -1.6 2.25 -1.75 2.25 -1.75 2.25 -1.8 2.25 -1.85 2.3 -1.9 2.3 -2.0 2.3 -2.0 2.6 -2.0 3.3 -1.95 3.45 -1.95 3.7 -1.95 3.75 -1.35 3.15 -1.25 3.05 -1.05 2.9 -0.7 2.65 -0.4 2.45 -0.05 2.25 0.1 2.15 0.05 2.1 -0.05 1.95 -0.1 1.9 -0.15 1.75 -0.5 1.25 -0.55 1.15 -0.6 1.1" fill="url(#gradient0)" fill-rule="evenodd" stroke="none"/>
    <path d="M0.0 -10.75 L-0.05 -10.75 -0.05 -10.8 -0.1 -10.75 -0.1 -10.75 Q-0.1 -10.8 -0.1 -10.8 L-0.15 -10.8 -0.15 -10.8 -0.15 -10.8 -0.2 -10.8 -0.2 -10.85 -0.25 -10.9 -0.25 -10.85 -0.3 -10.85 -0.3 -10.8 -0.3 -10.75 -0.35 -10.75 -0.4 -10.7 -0.4 -10.75 -0.45 -10.75 -0.5 -10.75 -0.5 -10.75 Q-0.5 -10.8 -0.55 -10.8 L-0.55 -10.75 -0.55 -10.8 -0.6 -10.85 -0.6 -10.85 -0.65 -10.85 -0.65 -10.9 -0.7 -10.95 -0.7 -10.95 -0.75 -10.9 -0.75 -10.9 -0.8 -10.95 -0.8 -10.9 -0.85 -10.9 -0.85 -10.85 -0.9 -10.85 Q-0.9 -10.8 -0.9 -10.75 L-0.9 -10.8 -0.95 -10.85 -0.95 -10.85 -1.0 -10.85 -1.0 -10.85 -1.0 -10.9 -1.05 -10.9 -1.05 -10.85 -1.1 -10.8 -1.1 -10.75 Q-1.1 -10.8 -1.15 -10.85 L-1.15 -10.8 -1.2 -10.8 -1.2 -10.75 -1.2 -10.65 -1.2 -10.65 -1.25 -10.65 -1.25 -10.7 -1.3 -10.7 -1.3 -10.65 -1.35 -10.7 -1.35 -10.7 -1.4 -10.65 -1.4 -10.65 -1.45 -10.65 -1.45 -10.65 -1.5 -10.65 -1.5 -10.65 -1.5 -10.6 -1.55 -10.6 -1.55 -10.6 -1.65 -10.6 -1.65 -10.55 -1.6 -10.5 -1.6 -10.45 -1.6 -10.45 -1.65 -10.4 -1.7 -10.45 -1.7 -10.4 -1.7 -10.4 -1.75 -10.35 -1.7 -10.3 -1.7 -10.25 Q-1.7 -10.2 -1.75 -10.25 L-1.75 -10.3 -1.8 -10.35 -1.8 -10.3 -1.85 -10.25 -1.8 -10.15 -1.8 -10.15 -1.75 -10.1 -1.75 -10.1 -1.8 -10.1 -1.8 -10.1 -1.85 -10.05 -1.8 -10.0 -1.85 -10.0 -1.9 -10.0 -1.9 -10.0 -1.9 -10.0 Q-1.9 -10.0 -1.9 -9.95 L-1.9 -9.95 -1.95 -9.9 -1.95 -9.85 -1.9 -9.85 -1.9 -9.8 -1.9 -9.75 -1.95 -9.75 -1.95 -9.75 -2.0 -9.75 -2.0 -9.75 -2.05 -9.8 -2.1 -9.85 -2.1 -9.8 -2.15 -9.8 -2.15 -9.85 -2.15 -9.85 -2.2 -9.9 -2.2 -9.85 -2.25 -9.8 Q-2.2 -9.75 -2.25 -9.75 L-2.25 -9.75 -2.3 -9.75 -2.3 -9.7 -2.35 -9.6 -2.35 -9.55 -2.35 -9.5 -2.35 -9.5 -2.4 -9.5 -2.4 -9.45 -2.4 -9.35 -2.4 -9.3 -2.35 -9.3 -2.35 -9.2 -2.35 -9.15 -2.3 -9.1 -2.3 -9.1 -2.35 -9.1 -2.35 -9.1 -2.4 -9.05 -2.4 -9.05 -2.45 -9.0 -2.45 -9.0 -2.4 -8.9 -2.4 -8.9 -2.35 -8.9 -2.35 -8.9 -2.3 -8.9 -2.3 -8.8 -2.25 -8.8 -2.25 -8.75 -2.2 -8.75 -2.2 -8.75 -2.15 -8.8 -2.1 -8.8 -2.1 -8.7 -2.1 -8.65 -2.15 -8.65 -2.1 -8.65 -2.1 -8.6 -2.1 -8.55 -2.05 -8.5 -2.0 -8.5 -2.0 -8.55 -1.9 -8.5 -1.85 -8.5 -1.8 -8.55 -1.8 -8.5 -1.85 -8.45 -1.85 -8.45 -1.85 -8.4 -1.85 -8.35 Q-1.8 -8.35 -1.75 -8.35 L-1.75 -8.35 -1.65 -8.35 -1.6 -8.35 -1.55 -8.35 -1.55 -8.3 -1.45 -8.3 -1.45 -8.3 -1.4 -8.35 -1.4 -8.35 -1.35 -8.35 -1.35 -8.4 -1.35 -8.35 -1.4 -8.2 -1.4 -8.2 -1.45 -8.1 -1.45 -8.05 -1.5 -7.95 -1.5 -7.9 -1.55 -7.9 -1.5 -8.0 -1.45 -8.1 -1.5 -8.1 -1.55 -8.05 -1.6 -8.05 -1.6 -8.0 -1.65 -8.0 -1.7 -8.0 -1.7 -8.0 -1.75 -8.0 -1.75 -8.0 -1.8 -8.0 -1.85 -7.95 -1.85 -7.95 -1.9 -7.85 -1.95 -7.8 -1.95 -7.75 -2.0 -7.7 -2.05 -7.6 -2.05 -7.55 -2.1 -7.55 -2.15 -7.55 -2.2 -7.55 -2.25 -7.55 -2.3 -7.55 -2.35 -7.6 -2.45 -7.6 -2.55 -7.55 -2.55 -7.55 -2.9 -7.5 Q-3.05 -7.45 -3.2 -7.3 L-3.25 -7.3 -3.25 -7.3 -3.35 -7.25 -3.5 -7.1 Q-3.65 -6.95 -3.7 -6.8 L-3.75 -6.4 -3.75 -6.05 -3.8 -5.8 Q-3.8 -5.75 -3.85 -5.7 L-3.85 -5.4 -3.9 -5.4 -3.95 -5.1 -3.95 -5.05 -4.0 -4.9 -4.1 -4.6 -4.15 -4.5 -4.25 -4.15 -4.3 -3.75 -4.3 -3.25 -4.25 -2.95 -4.25 -2.95 -4.2 -2.9 -4.15 -2.8 -4.15 -2.8 -4.2 -2.75 -4.25 -2.65 -4.25 -2.45 -4.15 -2.3 -4.15 -2.25 -4.2 -2.15 Q-4.25 -2.15 -4.25 -2.15 L-4.3 -2.1 -4.35 -2.05 -4.35 -2.05 -4.4 -2.05 -4.45 -2.0 -4.55 -1.95 -4.55 -1.85 -5.4 -1.3 -5.45 -1.25 -5.45 -1.2 -5.45 -1.2 -5.4 -1.1 -5.4 -1.0 -5.3 -0.9 -5.25 -0.9 -5.25 -0.85 -5.2 -0.9 -5.15 -0.9 -5.25 -0.8 -5.3 -0.8 -5.35 -0.75 -5.35 -0.65 -5.35 -0.6 -5.35 -0.6 -5.35 -0.55 -5.35 -0.5 -5.3 -0.45 -5.3 -0.45 -5.25 -0.4 -5.2 -0.35 -5.2 -0.35 -5.1 -0.35 -5.05 -0.35 -5.0 -0.4 -4.95 -0.45 -4.95 -0.45 -4.0 -1.05 -3.95 -1.0 -3.9 -0.9 -3.9 -0.9 -3.85 -0.8 -3.85 -0.75 -3.85 -0.65 -3.85 -0.65 -3.8 -0.6 -3.8 -0.5 -3.8 -0.4 -3.8 -0.1 -3.8 -0.05 Q-3.75 0.15 -3.75 0.35 L-3.75 0.4 -3.7 0.5 -3.7 0.7 -3.65 0.95 -3.65 1.0 -3.6 1.4 -3.55 1.45 -3.55 1.55 -3.45 2.1 -3.45 2.15 -3.4 2.3 -3.4 2.35 -3.4 2.4 -3.35 2.7 -3.35 3.15 -3.3 3.2 -3.3 3.35 -3.3 3.5 -3.25 3.65 -3.25 3.7 -3.25 3.75 -3.2 4.1 -3.2 4.1 -3.15 4.3 -3.15 4.3 -3.2 4.45 -3.3 4.65 -3.4 5.05 -3.45 5.25 -3.65 5.4 -3.65 5.35 -3.75 5.35 -3.8 5.4 -3.8 5.4 -3.85 5.45 -3.95 5.5 -4.0 5.55 -4.05 5.6 -4.15 5.6 -4.2 5.65 -4.2 5.65 -4.25 5.7 -4.3 5.75 -4.35 5.85 -4.4 5.9 -4.45 5.95 -4.45 5.95 -4.5 5.95 -4.5 6.1 -4.45 6.2 -4.45 6.25 -4.35 6.35 -4.3 6.55 -4.2 6.65 -4.2 6.65 -4.15 6.65 -4.15 6.65 -4.0 6.7 -4.0 6.7 -3.95 6.8 -3.9 6.9 -3.9 7.05 Q-3.85 7.1 -3.9 7.15 L-3.85 7.15 -3.9 7.2 -3.85 7.3 -3.8 7.4 -3.8 7.45 -3.7 7.55 -3.7 7.65 -3.7 7.95 Q-3.7 8.45 -3.75 8.85 L-3.85 9.75 -3.85 10.2 -3.9 10.2 Q-3.95 10.2 -3.95 10.25 L-3.95 10.35 -3.95 10.5 -3.95 10.6 -4.0 10.65 -4.0 10.8 -4.0 10.9 -4.0 10.9 -3.95 11.05 -3.95 11.15 -3.9 11.2 -3.9 11.2 -3.85 11.3 -3.8 11.3 -3.75 11.35 -3.7 11.35 -3.65 11.35 -3.45 11.35 -3.4 11.4 -3.25 11.4 -3.2 11.4 -3.15 11.4 -3.15 11.35 -3.1 11.25 -3.0 11.25 -2.8 11.35 -2.65 11.4 -2.6 11.45 -2.55 11.45 -2.5 11.5 -2.45 11.5 -2.35 11.55 -2.25 11.55 -2.15 11.55 -2.05 11.6 -1.95 11.6 -1.8 11.6 -1.75 11.6 -1.5 11.55 -1.3 11.5 -1.1 11.4 Q-1.05 11.35 -1.1 11.25 L-1.1 11.2 -1.1 11.15 -1.15 11.05 -1.25 10.95 -1.3 10.9 Q-1.35 10.9 -1.4 10.9 L-1.45 10.9 -1.55 10.85 -1.55 10.85 Q-1.6 10.85 -1.65 10.8 L-1.9 10.7 -1.9 10.7 -2.05 10.65 -2.05 10.6 -2.15 10.55 -2.2 10.55 -2.25 10.5 -2.25 10.5 -2.3 10.5 -2.3 10.45 -2.5 10.35 -2.55 10.3 -2.55 10.3 -2.65 10.25 -2.8 10.05 -2.9 9.95 -2.9 9.9 -3.0 9.95 -3.05 9.95 -3.05 9.9 -2.95 9.15 -2.85 8.2 -2.8 8.2 -2.8 8.15 -2.7 8.05 -2.7 7.9 -2.75 7.8 -2.75 7.8 -2.55 6.95 -2.5 6.8 -2.35 6.4 -2.25 6.1 -2.2 5.8 -2.2 5.75 Q-2.15 5.45 -2.15 5.2 L-1.95 5.05 -1.05 4.45 -0.9 4.4 -0.55 4.15 -0.25 4.0 0.0 3.8 0.05 3.75 0.55 3.25 0.7 3.15 0.85 2.9 0.9 2.9 0.9 2.95 0.95 2.95 1.0 2.9 Q1.0 2.9 1.05 2.9 L1.05 2.85 1.1 2.85 Q1.15 2.9 1.15 2.85 L1.2 2.85 1.25 2.85 1.3 2.8 1.35 2.75 1.35 2.7 1.4 2.7 1.4 2.65 1.45 2.6 1.45 2.4 1.45 2.2 1.4 2.15 1.4 2.05 1.4 2.0 1.35 1.85 1.3 1.7 1.15 1.4 1.15 1.35 1.1 1.35 1.1 1.3 1.0 1.15 1.0 1.1 0.95 1.05 0.9 0.9 0.85 0.85 0.8 0.75 0.65 0.45 0.5 0.2 0.5 0.15 0.45 0.15 0.45 0.1 0.4 0.0 0.35 -0.1 0.1 -0.6 0.1 -0.7 0.1 -0.7 0.15 -0.75 0.2 -0.8 0.2 -0.8 0.25 -0.85 0.25 -0.9 0.25 -0.95 0.25 -1.0 0.3 -1.0 0.35 -1.0 0.35 -1.05 0.35 -1.0 0.4 -1.0 0.45 -1.0 0.45 -1.0 0.5 -1.0 0.6 -1.0 0.7 -0.95 0.7 -1.0 0.7 -1.1 0.65 -1.1 0.6 -1.1 0.55 -1.1 0.5 -1.1 0.45 -1.1 0.4 -1.15 0.4 -1.15 Q0.35 -1.15 0.35 -1.15 L0.3 -1.2 0.35 -1.25 0.35 -1.25 0.4 -1.3 0.4 -1.3 0.45 -1.3 0.4 -1.35 0.4 -1.45 0.35 -1.45 0.3 -1.5 0.25 -1.6 0.15 -1.85 0.1 -2.05 0.1 -2.2 -0.05 -2.5 -0.2 -2.7 -0.15 -2.9 -0.15 -3.0 -0.05 -3.35 0.0 -3.35 0.05 -3.7 0.1 -4.0 0.1 -4.0 0.15 -4.3 0.2 -4.55 0.2 -4.6 0.3 -4.3 Q0.2 -4.1 0.25 -3.95 L0.35 -3.6 0.4 -3.25 0.45 -2.85 Q0.45 -2.75 0.5 -2.65 L0.6 -2.5 0.6 -2.45 0.6 -2.4 0.6 -2.35 0.7 -2.25 0.75 -2.25 0.75 -2.2 0.85 -2.1 Q0.9 -2.05 0.9 -2.05 L0.95 -2.05 1.05 -1.95 1.1 -1.95 1.2 -1.9 1.25 -1.9 1.3 -1.9 1.35 -1.85 1.4 -1.85 Q1.45 -1.8 1.5 -1.75 L1.55 -1.7 1.55 -1.7 1.6 -1.7 1.65 -1.7 1.7 -1.7 1.7 -1.7 1.75 -1.65 1.8 -1.65 1.85 -1.7 1.95 -1.7 2.0 -1.7 2.1 -1.65 2.15 -1.6 2.15 -1.6 2.25 -1.6 2.35 -1.65 2.35 -1.65 2.5 -1.65 2.5 -1.6 Q2.55 -1.55 2.6 -1.55 L2.65 -1.55 2.75 -1.55 2.75 -1.6 2.8 -1.6 2.8 -1.6 2.85 -1.65 2.85 -1.7 2.95 -1.7 3.1 -1.7 3.45 -1.7 3.95 -1.75 4.35 -1.8 4.65 -1.8 4.65 -1.8 4.7 -1.8 4.85 -1.65 4.85 -1.65 5.0 -1.6 5.0 -1.6 5.15 -1.6 5.15 -1.9 5.15 -1.95 5.25 -2.1 5.3 -2.3 5.3 -2.3 5.35 -2.25 5.35 -2.15 Q5.4 -2.15 5.45 -2.15 L5.5 -2.05 5.5 -2.0 5.45 -2.0 5.4 -2.0 5.35 -1.9 5.35 -1.85 5.3 -1.8 5.25 -1.75 5.3 -1.7 5.25 -1.7 5.25 -1.65 5.2 -1.65 5.2 -1.6 5.15 -1.6 5.2 -1.5 5.3 -1.5 5.3 -1.45 5.4 -1.5 5.45 -1.55 5.45 -1.6 Q5.55 -1.6 5.6 -1.65 L5.6 -1.75 5.65 -1.75 Q5.7 -1.75 5.7 -1.75 L5.75 -1.85 5.75 -1.85 Q5.85 -1.85 5.9 -1.85 L5.95 -1.95 5.95 -2.05 5.85 -2.25 5.75 -2.3 5.65 -2.3 5.55 -2.6 5.3 -2.65 5.3 -2.65 5.15 -2.65 4.95 -2.6 4.75 -2.5 4.7 -2.45 4.7 -2.4 4.65 -2.4 4.6 -2.4 4.5 -2.4 4.45 -2.4 4.45 -2.4 4.4 -2.4 4.2 -2.45 4.2 -2.4 4.15 -2.45 4.1 -2.45 4.0 -2.45 3.9 -2.45 3.85 -2.45 3.7 -2.5 3.7 -2.5 3.65 -2.5 3.65 -2.45 3.55 -2.5 3.55 -2.5 3.5 -2.5 3.3 -2.55 3.3 -2.5 3.15 -2.55 3.15 -2.55 3.05 -2.55 2.95 -2.55 2.9 -2.6 2.9 -2.65 2.85 -2.7 2.75 -2.75 2.75 -2.75 2.7 -2.8 2.65 -2.8 2.65 -2.75 2.6 -2.75 Q2.6 -2.8 2.55 -2.8 L2.55 -2.8 2.45 -2.75 2.35 -2.75 2.25 -2.8 2.25 -2.8 Q2.2 -2.75 2.15 -2.8 L2.1 -2.8 1.95 -2.8 1.95 -2.8 1.85 -2.8 1.8 -2.85 1.7 -2.85 1.6 -2.85 1.6 -2.95 1.6 -3.45 1.55 -3.8 1.45 -4.15 1.35 -4.25 1.25 -4.55 1.25 -4.7 1.2 -4.75 1.15 -5.05 1.15 -5.05 1.1 -5.35 1.05 -5.45 1.05 -6.05 0.95 -6.45 Q0.95 -6.6 0.8 -6.75 L0.6 -6.9 0.5 -6.95 0.5 -6.95 0.35 -6.95 0.35 -6.95 0.3 -6.95 0.2 -6.9 0.2 -6.9 0.1 -6.85 0.1 -6.85 0.05 -6.85 0.0 -6.9 -0.05 -6.9 -0.05 -6.95 -0.1 -6.95 -0.1 -7.0 -0.1 -7.1 -0.05 -7.15 -0.05 -7.25 -0.05 -7.35 0.0 -7.55 0.05 -7.55 0.1 -7.55 0.1 -7.6 0.15 -7.65 0.15 -7.7 0.2 -7.75 0.2 -7.9 0.2 -7.9 0.2 -7.95 0.25 -8.0 0.25 -8.1 0.25 -8.15 0.3 -8.2 0.3 -8.2 0.35 -8.05 Q0.4 -8.05 0.45 -8.1 L0.45 -8.1 0.5 -8.05 0.45 -8.0 0.45 -8.0 0.5 -8.0 0.55 -8.0 0.55 -8.05 0.6 -8.05 0.6 -8.0 0.6 -8.0 0.65 -8.0 0.65 -8.05 0.7 -8.1 0.7 -8.2 0.7 -8.3 0.7 -8.3 0.75 -8.25 0.75 -8.25 0.75 -8.3 0.7 -8.35 0.8 -8.35 Q0.85 -8.35 0.85 -8.35 L0.9 -8.4 0.9 -8.4 0.85 -8.4 0.8 -8.4 0.75 -8.45 0.8 -8.5 0.9 -8.5 0.8 -8.55 0.8 -8.55 0.75 -8.55 0.7 -8.55 Q0.7 -8.55 0.7 -8.6 L0.7 -8.6 Q0.75 -8.6 0.75 -8.65 L0.8 -8.65 0.75 -8.7 0.75 -8.7 0.8 -8.75 0.8 -8.75 0.85 -8.75 0.85 -8.75 Q0.9 -8.8 0.9 -8.9 L0.85 -8.9 0.85 -8.9 0.8 -8.9 0.85 -9.0 0.85 -9.0 0.9 -9.05 0.9 -9.1 0.85 -9.1 0.85 -9.15 0.8 -9.15 0.85 -9.2 0.9 -9.2 0.9 -9.2 1.0 -9.25 1.0 -9.25 1.0 -9.3 0.95 -9.3 0.9 -9.3 0.9 -9.4 0.9 -9.4 0.85 -9.45 0.85 -9.4 0.8 -9.4 Q0.8 -9.45 0.8 -9.5 L0.85 -9.5 Q0.9 -9.5 0.85 -9.6 L0.85 -9.6 0.8 -9.6 0.8 -9.6 0.75 -9.6 0.75 -9.6 0.8 -9.7 0.75 -9.7 0.75 -9.75 0.85 -9.8 0.85 -9.8 0.95 -9.95 0.95 -9.95 0.9 -10.15 0.85 -10.2 0.85 -10.15 0.85 -10.1 0.85 -10.05 Q0.8 -10.0 0.8 -10.05 L0.8 -10.0 0.75 -9.95 0.7 -9.95 0.7 -9.95 0.65 -10.0 0.7 -10.05 0.7 -10.15 0.75 -10.15 0.75 -10.2 0.65 -10.25 0.65 -10.25 0.6 -10.3 0.6 -10.3 Q0.55 -10.3 0.55 -10.3 L0.55 -10.35 Q0.5 -10.4 0.45 -10.35 L0.45 -10.35 Q0.4 -10.35 0.4 -10.4 L0.4 -10.45 0.35 -10.45 0.35 -10.45 0.3 -10.45 0.3 -10.5 0.25 -10.5 0.25 -10.55 0.2 -10.6 0.2 -10.65 0.15 -10.65 0.15 -10.6 Q0.1 -10.6 0.1 -10.65 L0.05 -10.65 0.05 -10.7 0.0 -10.75 M-4.2 -2.55 L-4.1 -2.65 -4.1 -2.65 -4.05 -2.6 -4.1 -2.45 -4.1 -2.35 -4.15 -2.4 -4.2 -2.45 -4.2 -2.55 M-1.7 -0.4 L-1.8 -0.45 -1.85 -0.5 -1.95 -0.6 -1.95 -0.55 -1.95 -0.45 -1.95 -0.35 -1.95 -0.3 -1.9 -0.2 -1.9 -0.15 -1.7 -0.35 -1.7 -0.4 M-0.6 1.1 L-0.75 0.85 -0.8 0.85 -0.8 0.8 -0.8 0.8 -0.9 0.7 -0.9 0.7 -1.0 0.6 -1.1 0.45 -1.4 0.75 -1.45 0.8 -1.45 0.8 -1.5 0.85 -1.55 0.9 -1.65 0.9 -1.65 0.9 -1.7 0.85 -1.75 0.85 -1.75 0.85 -1.8 0.8 -1.8 0.75 -1.85 0.75 -1.85 0.7 -1.85 0.65 -1.9 0.65 -1.85 0.55 -1.9 0.5 -1.85 0.5 -1.8 0.45 -1.75 0.35 -1.75 0.4 -1.8 0.4 -1.85 0.4 -1.9 0.4 -1.9 0.55 -1.9 0.8 -1.9 1.05 -1.9 1.05 -1.8 1.1 -1.8 1.15 -1.7 1.2 -1.65 1.25 -1.55 1.35 -1.55 1.35 -1.55 1.35 -1.4 1.5 -1.35 1.6 -1.35 1.6 -1.4 1.7 -1.4 1.8 -1.4 1.85 -1.35 2.05 -1.3 2.05 -1.35 2.1 -1.35 2.15 -1.5 2.25 -1.5 2.25 -1.55 2.25 -1.6 2.25 -1.75 2.25 -1.75 2.25 -1.8 2.25 -1.85 2.3 -1.9 2.3 -2.0 2.3 -2.0 2.6 -2.0 3.3 -1.95 3.45 -1.95 3.7 -1.95 3.75 -1.35 3.15 -1.25 3.05 -1.05 2.9 -0.7 2.65 -0.4 2.45 -0.05 2.25 0.1 2.15 0.05 2.1 -0.05 1.95 -0.1 1.9 -0.15 1.75 -0.5 1.25 -0.55 1.15 -0.6 1.1 Z" fill="none" stroke="#000000" stroke-linecap="round" stroke-linejoin="round" stroke-opacity="0.4509804" stroke-width="1.0"/>
  </g>
  <defs>
    <linearGradient gradientTransform="matrix(0.0, -0.0149, 0.0051, 0.0, 16.95, -0.45)" gradientUnits="userSpaceOnUse" id="gradient0" spreadMethod="pad" x1="-819.2" x2="819.2">
      <stop offset="0.0" stop-color="#0a1a25"/>
      <stop offset="1.0" stop-color="#6db8ad"/>
    </linearGradient>
  </defs>
</svg>
