<?xml version="1.0" encoding="UTF-8" standalone="no"?>
<svg xmlns:xlink="http://www.w3.org/1999/xlink" height="22.35px" width="11.75px" xmlns="http://www.w3.org/2000/svg">
  <g transform="matrix(1.0, 0.0, 0.0, 1.0, 7.55, 11.1)">
    <path d="M-3.3 -2.75 L-3.4 -2.6 -3.4 -2.5 -3.35 -2.45 -3.25 -2.4 -3.25 -2.35 -3.25 -2.4 -3.1 -2.4 -3.1 -2.4 -3.05 -2.4 -3.05 -2.35 -3.0 -2.4 -3.0 -2.45 -3.05 -2.65 -3.15 -2.65 -3.15 -2.65 -3.2 -2.65 -3.3 -2.7 -3.3 -2.75 M0.75 -10.95 L0.8 -10.95 0.8 -10.9 0.85 -10.95 0.85 -10.85 0.9 -10.9 0.95 -10.85 0.95 -10.8 1.0 -10.75 Q1.0 -10.75 1.05 -10.75 L1.05 -10.8 1.1 -10.75 1.1 -10.75 1.15 -10.7 1.15 -10.65 1.15 -10.65 1.2 -10.6 1.25 -10.6 1.25 -10.6 1.3 -10.55 1.3 -10.5 1.35 -10.5 1.35 -10.5 Q1.4 -10.55 1.45 -10.5 L1.45 -10.45 Q1.45 -10.4 1.5 -10.45 L1.5 -10.45 1.55 -10.4 1.55 -10.4 1.65 -10.35 1.65 -10.3 1.6 -10.3 1.6 -10.2 1.55 -10.15 1.6 -10.1 1.6 -10.1 1.65 -10.1 1.7 -10.15 1.7 -10.2 Q1.7 -10.15 1.75 -10.2 L1.75 -10.2 1.75 -10.3 1.75 -10.3 1.8 -10.3 1.8 -10.1 1.75 -9.95 1.75 -9.95 1.65 -9.9 1.65 -9.85 1.7 -9.85 1.65 -9.75 1.65 -9.75 1.7 -9.75 1.7 -9.7 1.75 -9.75 1.75 -9.75 Q1.8 -9.65 1.75 -9.65 L1.7 -9.6 Q1.7 -9.55 1.7 -9.55 L1.75 -9.55 1.75 -9.55 1.8 -9.55 1.8 -9.55 1.8 -9.45 1.85 -9.45 1.9 -9.45 1.9 -9.4 1.9 -9.4 1.8 -9.35 1.8 -9.35 1.75 -9.35 1.7 -9.3 1.75 -9.25 1.75 -9.25 1.8 -9.25 1.8 -9.2 1.75 -9.15 1.75 -9.15 1.7 -9.05 1.75 -9.05 1.75 -9.05 1.8 -9.05 Q1.8 -8.95 1.75 -8.9 L1.75 -8.9 1.7 -8.9 1.7 -8.9 1.65 -8.85 1.65 -8.85 1.7 -8.8 1.65 -8.8 Q1.65 -8.75 1.6 -8.75 L1.6 -8.75 Q1.6 -8.7 1.6 -8.7 L1.65 -8.7 1.7 -8.7 1.7 -8.7 1.8 -8.65 1.7 -8.6 1.65 -8.6 1.7 -8.55 1.75 -8.55 1.8 -8.55 1.8 -8.55 1.75 -8.5 Q1.75 -8.5 1.7 -8.5 L1.6 -8.5 1.65 -8.45 1.65 -8.4 1.65 -8.4 1.6 -8.4 1.6 -8.4 1.6 -8.3 1.6 -8.2 1.55 -8.2 1.55 -8.15 1.5 -8.15 1.5 -8.2 1.45 -8.2 1.45 -8.15 1.4 -8.15 1.35 -8.15 1.35 -8.15 1.4 -8.2 1.35 -8.25 1.35 -8.25 Q1.3 -8.2 1.25 -8.2 L1.2 -8.35 1.2 -8.3 1.15 -8.25 1.15 -8.25 1.15 -8.15 1.1 -8.1 1.1 -8.05 1.1 -8.0 1.1 -7.85 1.05 -7.85 1.05 -7.8 1.0 -7.75 1.0 -7.7 0.95 -7.7 0.95 -7.65 0.9 -7.45 0.85 -7.35 0.85 -7.25 0.85 -7.15 0.85 -7.05 0.85 -7.05 0.95 -7.0 1.0 -6.95 1.0 -6.95 1.05 -6.85 1.1 -6.9 1.15 -6.9 1.25 -6.85 1.25 -6.85 1.3 -6.85 1.45 -6.8 1.45 -6.8 1.5 -6.75 1.65 -6.5 Q1.7 -6.35 1.7 -6.15 L1.65 -5.75 1.5 -5.45 1.45 -5.25 1.45 -5.1 1.4 -4.8 1.4 -4.8 1.4 -4.45 Q1.4 -4.35 1.35 -4.3 L1.35 -4.0 1.4 -3.85 1.35 -3.5 1.3 -3.15 1.25 -3.05 1.15 -2.65 1.0 -2.4 0.95 -2.4 0.95 -2.35 1.0 -2.25 1.05 -2.25 1.1 -2.2 1.2 -2.15 1.2 -2.15 1.3 -2.05 1.3 -2.05 1.45 -2.0 1.45 -2.0 1.6 -1.95 1.65 -1.9 1.75 -1.9 1.75 -1.9 1.8 -1.9 2.0 -1.85 2.0 -1.85 2.05 -1.8 2.05 -1.85 2.15 -1.8 2.2 -1.75 2.25 -1.75 2.35 -1.75 2.4 -1.7 2.45 -1.8 2.5 -1.8 2.55 -1.8 2.7 -1.85 2.7 -1.85 2.85 -1.85 2.85 -1.85 2.9 -1.85 2.9 -1.85 3.05 -1.9 3.15 -1.9 3.2 -1.85 3.25 -1.75 3.35 -1.7 3.35 -1.7 3.55 -1.65 3.6 -1.65 3.6 -1.6 3.65 -1.55 3.65 -1.35 3.6 -1.35 3.55 -1.25 3.5 -1.2 3.5 -1.1 3.45 -1.05 3.45 -1.05 3.35 -0.95 3.35 -0.9 Q3.3 -0.85 3.25 -0.8 L3.05 -0.8 3.05 -0.8 2.8 -0.95 Q2.75 -1.0 2.7 -1.0 L2.5 -1.1 2.45 -1.15 2.4 -1.15 2.4 -1.15 2.35 -1.2 2.3 -1.2 2.05 -1.2 2.1 -1.15 2.15 -1.15 2.2 -1.05 2.25 -1.05 2.4 -0.95 2.4 -0.9 2.45 -0.85 2.5 -0.85 2.5 -0.8 2.55 -0.8 2.65 -0.7 2.7 -0.7 2.8 -0.6 2.85 -0.55 2.9 -0.5 2.9 -0.45 2.95 -0.45 3.1 -0.35 3.1 -0.35 3.15 -0.3 3.15 -0.3 3.25 -0.25 3.3 -0.2 3.3 -0.15 3.35 -0.2 3.4 -0.25 3.65 -0.25 3.95 -0.05 3.95 -0.05 4.15 0.15 4.05 0.4 4.15 0.5 4.2 0.6 4.15 0.8 4.1 0.9 4.0 0.9 3.9 0.85 3.9 0.9 Q3.85 0.85 3.8 0.9 L3.75 0.9 3.7 0.9 3.65 0.9 3.55 0.9 3.45 0.95 3.4 0.95 3.3 0.9 3.25 0.85 3.25 0.75 Q3.3 0.7 3.3 0.7 L3.35 0.75 3.4 0.75 3.45 0.7 Q3.45 0.65 3.5 0.65 L3.55 0.65 3.6 0.65 Q3.6 0.6 3.6 0.6 L3.65 0.55 3.75 0.55 3.8 0.6 3.8 0.55 3.8 0.45 3.75 0.4 3.75 0.25 3.65 0.35 3.45 0.45 3.4 0.5 3.35 0.6 3.25 0.7 3.15 0.65 3.1 0.65 3.05 0.55 2.95 0.35 2.95 0.25 Q2.85 0.2 2.7 0.15 L1.9 -0.3 1.45 -0.6 1.4 -0.6 1.4 -0.55 1.35 -0.55 1.35 -0.55 1.25 -0.6 1.25 -0.6 1.15 -0.65 1.1 -0.65 1.05 -0.75 1.05 -0.8 1.0 -0.8 1.0 -0.8 0.95 -0.75 0.9 -0.7 0.9 -0.65 0.8 -0.6 0.7 -0.45 0.6 -0.35 0.55 -0.3 0.5 -0.25 0.45 -0.2 0.4 -0.15 0.3 -0.15 0.3 0.15 0.25 0.4 0.25 0.45 0.2 0.8 0.2 0.95 0.15 1.5 0.1 1.6 0.1 1.75 0.1 1.85 0.05 2.15 0.05 2.6 0.05 2.8 0.05 2.95 0.0 3.1 0.0 3.15 0.0 3.2 -0.05 3.55 -0.05 3.75 -0.1 3.85 -0.1 3.9 -0.15 3.95 -0.15 4.05 -0.2 4.15 -0.25 4.2 Q-0.2 4.35 -0.2 4.5 L-0.2 5.4 -0.25 5.45 -0.25 5.8 -0.35 6.1 -0.45 6.55 -0.5 6.65 -0.7 7.7 -0.8 8.9 -0.85 9.6 -0.8 9.6 -0.75 9.6 -0.7 9.7 -0.5 9.9 -0.4 10.0 -0.4 10.0 -0.35 10.0 -0.2 10.15 -0.15 10.15 -0.15 10.15 -0.1 10.15 Q-0.1 10.2 -0.05 10.2 L0.0 10.25 0.05 10.3 0.1 10.3 0.2 10.4 0.45 10.5 0.65 10.6 0.7 10.6 0.8 10.6 0.85 10.65 0.95 10.75 1.0 10.85 1.0 10.9 1.05 10.95 1.0 11.1 0.8 11.2 0.6 11.25 0.35 11.25 0.3 11.25 0.15 11.25 0.05 11.25 -0.05 11.25 -0.15 11.2 -0.25 11.2 -0.35 11.2 -0.4 11.15 -0.45 11.1 -0.5 11.1 Q-0.55 11.05 -0.55 11.05 L-0.7 11.0 -0.9 10.9 -0.95 10.95 -1.0 11.0 -1.05 11.0 -1.05 11.05 -1.1 11.05 -1.15 11.05 -1.3 11.05 -1.35 11.0 -1.55 11.0 -1.55 11.0 -1.6 11.0 -1.7 10.95 -1.75 10.9 -1.8 10.85 -1.8 10.8 -1.8 10.7 -1.85 10.55 -1.85 10.5 -1.9 10.45 -1.85 10.45 -1.85 10.3 -1.85 10.15 -1.85 10.0 -1.85 9.9 -1.75 9.85 -1.75 9.85 -1.7 9.85 -1.65 9.85 -1.65 9.8 -1.65 9.5 -1.6 8.65 -1.6 7.75 -1.6 7.3 -1.6 5.95 -1.6 5.6 -1.55 5.15 -2.0 5.3 -2.05 5.3 -2.35 5.4 -2.65 5.45 -3.1 5.5 -3.25 5.5 -4.3 5.7 -5.4 6.05 -6.0 6.2 -6.0 6.25 -5.95 6.3 -5.95 6.35 -6.0 6.4 -6.15 6.65 -6.2 6.8 -6.2 6.85 -6.3 7.05 -6.3 7.05 -6.3 7.1 -6.35 7.2 -6.35 7.25 -6.4 7.3 -6.4 7.35 -6.4 7.5 -6.45 7.65 -6.45 7.75 -6.45 7.9 -6.45 8.05 -6.45 8.15 -6.5 8.3 -6.6 8.4 -6.65 8.4 -6.65 8.4 -6.7 8.45 -6.85 8.45 -7.0 8.3 -7.1 8.1 -7.2 7.9 -7.2 7.85 -7.25 7.7 -7.3 7.6 -7.3 7.4 -7.35 7.3 -7.35 7.2 -7.3 7.15 -7.3 7.1 -7.3 6.95 -7.25 6.85 -7.25 6.6 -7.3 6.55 Q-7.3 6.5 -7.35 6.5 L-7.4 6.5 -7.4 6.5 -7.45 6.45 -7.45 6.4 -7.5 6.25 -7.5 6.2 -7.5 5.95 -7.55 5.9 -7.5 5.85 -7.5 5.75 -7.45 5.7 -7.45 5.7 -7.4 5.65 -7.3 5.65 -7.2 5.55 -7.15 5.55 -7.1 5.5 -7.1 5.5 -7.0 5.5 -6.95 5.5 -6.9 5.5 -6.8 5.45 -6.7 5.45 -6.65 5.4 -6.65 5.4 -6.55 5.4 Q-6.5 5.4 -6.5 5.45 L-6.5 5.45 -6.5 5.5 -6.3 5.45 -5.5 5.2 Q-5.05 5.05 -4.65 4.85 L-4.35 4.7 -4.25 4.7 -3.85 4.55 -3.0 4.2 -2.85 4.15 -2.65 4.05 -2.2 3.95 -1.85 3.9 -1.65 3.9 -1.75 3.7 -1.75 3.7 -1.75 3.6 -1.8 3.45 -1.8 3.4 -1.85 3.35 -1.85 3.35 -1.9 3.2 -1.9 3.05 Q-1.95 2.85 -2.0 2.7 L-2.1 2.4 -2.1 2.35 -2.15 2.3 -2.15 2.2 -2.2 2.1 -2.4 1.55 -2.4 1.5 -2.45 1.45 -2.55 1.1 -2.6 1.05 -2.6 1.0 -2.65 0.8 -2.75 0.6 -2.75 0.5 -2.8 0.4 -2.9 0.05 -2.9 0.0 -2.95 -0.2 -3.0 -0.3 -3.0 -0.35 -3.0 -0.5 -3.1 -0.65 -3.1 -0.8 -3.15 -0.9 -3.15 -1.0 -3.2 -1.05 -3.2 -1.1 -4.15 -0.5 -4.15 -0.5 -4.2 -0.5 -4.25 -0.45 Q-4.25 -0.4 -4.3 -0.4 L-4.4 -0.4 -4.4 -0.45 -4.45 -0.45 -4.5 -0.5 -4.5 -0.5 -4.55 -0.55 -4.55 -0.6 -4.55 -0.65 -4.55 -0.7 -4.55 -0.75 -4.55 -0.85 -4.5 -0.85 -4.45 -0.9 -4.35 -0.95 -4.4 -0.95 -4.45 -0.95 -4.45 -0.95 -4.5 -0.95 -4.6 -1.05 -4.6 -1.15 -4.65 -1.25 -4.65 -1.3 -4.65 -1.35 -4.6 -1.4 -3.75 -1.9 -3.75 -2.0 -3.7 -2.0 -3.65 -2.05 -3.6 -2.1 -3.55 -2.15 -3.55 -2.15 -3.5 -2.15 -3.45 -2.2 -3.4 -2.25 -3.35 -2.3 -3.35 -2.35 -3.45 -2.5 -3.5 -2.7 -3.4 -2.85 -3.3 -2.9 -3.2 -2.9 -3.1 -2.9 -3.0 -2.8 -3.0 -2.7 -2.9 -2.7 -2.85 -2.7 Q-2.8 -2.75 -2.8 -2.9 L-2.85 -3.1 -2.95 -3.15 -3.05 -3.25 -3.1 -3.4 -3.1 -3.55 -3.05 -3.6 -3.0 -3.65 -2.95 -3.7 -2.9 -3.7 -2.85 -3.75 -2.8 -3.8 -2.7 -3.8 -2.55 -3.8 -2.45 -3.8 -2.4 -3.75 -2.45 -3.9 -2.45 -4.25 -2.4 -4.4 -2.4 -4.7 Q-2.45 -4.75 -2.45 -4.85 L-2.4 -4.9 -2.45 -5.15 Q-2.6 -5.5 -2.65 -5.9 L-2.7 -6.3 -2.65 -6.45 -2.7 -6.55 Q-2.7 -6.75 -2.6 -6.9 L-2.55 -7.0 -2.4 -7.3 Q-2.2 -7.5 -1.95 -7.6 L-1.65 -7.7 -1.65 -7.7 -1.55 -7.7 -1.45 -7.7 -1.4 -7.7 -1.35 -7.65 -1.3 -7.65 -1.25 -7.65 -1.2 -7.65 -1.15 -7.65 -1.15 -7.7 -1.1 -7.8 -1.05 -7.85 -1.05 -7.9 Q-1.0 -7.9 -1.0 -7.95 L-0.95 -8.05 -0.95 -8.05 -0.9 -8.1 -0.85 -8.1 -0.85 -8.1 -0.8 -8.1 -0.8 -8.1 -0.75 -8.1 -0.7 -8.15 -0.65 -8.15 -0.65 -8.15 -0.6 -8.2 -0.55 -8.25 -0.6 -8.15 -0.6 -8.05 -0.6 -8.05 -0.55 -8.2 -0.55 -8.2 -0.5 -8.3 -0.5 -8.3 -0.45 -8.45 -0.45 -8.5 -0.45 -8.5 -0.5 -8.5 -0.5 -8.45 -0.55 -8.45 -0.65 -8.45 -0.65 -8.5 -0.7 -8.5 Q-0.7 -8.45 -0.75 -8.5 L-0.85 -8.5 -0.85 -8.5 -0.9 -8.5 -0.95 -8.55 -0.95 -8.6 -0.95 -8.6 -0.9 -8.65 -0.9 -8.65 -0.95 -8.65 -1.0 -8.65 -1.1 -8.65 -1.1 -8.65 -1.15 -8.65 -1.2 -8.65 -1.2 -8.75 -1.2 -8.75 -1.25 -8.8 -1.2 -8.8 -1.2 -8.85 -1.2 -8.9 -1.25 -8.95 -1.3 -8.9 -1.3 -8.9 -1.35 -8.9 -1.35 -8.95 -1.4 -8.95 -1.4 -9.0 -1.45 -9.0 -1.45 -9.0 -1.5 -9.05 -1.5 -9.05 -1.55 -9.1 -1.55 -9.15 -1.5 -9.15 -1.5 -9.2 -1.45 -9.2 -1.45 -9.2 -1.4 -9.25 -1.4 -9.25 -1.45 -9.3 -1.45 -9.3 -1.45 -9.4 -1.5 -9.45 -1.5 -9.5 -1.5 -9.6 -1.5 -9.65 -1.45 -9.6 -1.45 -9.65 -1.45 -9.7 -1.45 -9.75 -1.4 -9.85 -1.4 -9.85 -1.35 -9.9 -1.35 -9.85 Q-1.3 -9.9 -1.35 -9.95 L-1.3 -10.0 -1.3 -10.05 -1.25 -10.0 -1.25 -10.0 -1.25 -9.95 -1.2 -9.95 -1.2 -10.0 -1.15 -9.9 -1.1 -9.85 -1.1 -9.85 -1.05 -9.85 -1.05 -9.9 -1.0 -9.9 -1.0 -9.95 -1.0 -9.95 -1.05 -10.0 -1.05 -10.05 -1.0 -10.05 -1.0 -10.15 -1.0 -10.15 -0.95 -10.15 -0.9 -10.15 -0.95 -10.2 -0.9 -10.2 -0.9 -10.2 Q-0.85 -10.25 -0.85 -10.25 L-0.9 -10.25 -0.9 -10.3 -0.95 -10.4 -0.95 -10.45 -0.9 -10.45 -0.9 -10.45 -0.85 -10.4 -0.85 -10.4 Q-0.8 -10.35 -0.8 -10.4 L-0.8 -10.45 -0.85 -10.45 -0.8 -10.55 -0.8 -10.55 -0.8 -10.55 -0.75 -10.55 -0.7 -10.55 -0.7 -10.6 -0.7 -10.65 -0.75 -10.7 -0.75 -10.75 -0.65 -10.75 -0.65 -10.75 -0.6 -10.75 -0.6 -10.75 -0.6 -10.8 -0.55 -10.8 -0.55 -10.8 -0.5 -10.8 -0.5 -10.8 -0.45 -10.85 -0.45 -10.8 -0.4 -10.8 -0.4 -10.85 -0.35 -10.85 -0.35 -10.8 -0.3 -10.8 -0.3 -10.8 -0.3 -10.9 -0.3 -10.95 -0.25 -10.95 -0.25 -11.0 -0.2 -10.9 -0.2 -10.95 -0.15 -11.0 -0.15 -11.05 -0.1 -11.0 -0.1 -11.0 -0.1 -11.0 -0.05 -11.0 -0.05 -10.95 0.0 -10.9 0.0 -11.0 0.05 -11.0 0.05 -11.0 0.1 -11.0 0.1 -11.05 0.15 -11.05 0.15 -11.05 0.2 -11.05 0.2 -11.1 0.25 -11.0 0.25 -11.0 0.3 -11.0 0.3 -10.95 0.3 -10.9 0.35 -10.95 0.35 -10.95 Q0.4 -10.95 0.4 -10.9 L0.4 -10.9 0.45 -10.9 0.45 -10.85 0.5 -10.85 0.55 -10.9 0.6 -10.9 0.6 -10.95 0.6 -11.0 0.65 -10.95 0.65 -11.0 0.7 -11.0 0.7 -10.95 0.75 -10.95 0.7 -10.9 0.75 -10.95 0.75 -10.95" fill="url(#gradient0)" fill-rule="evenodd" stroke="none"/>
    <path d="M0.75 -10.95 L0.75 -10.95 0.7 -10.9 0.75 -10.95 0.7 -10.95 0.7 -11.0 0.65 -11.0 0.65 -10.95 0.6 -11.0 0.6 -10.95 0.6 -10.9 0.55 -10.9 0.5 -10.85 0.45 -10.85 0.45 -10.9 0.4 -10.9 0.4 -10.9 Q0.4 -10.95 0.35 -10.95 L0.35 -10.95 0.3 -10.9 0.3 -10.95 0.3 -11.0 0.25 -11.0 0.25 -11.0 0.2 -11.1 0.2 -11.05 0.15 -11.05 0.15 -11.05 0.1 -11.05 0.1 -11.0 0.05 -11.0 0.05 -11.0 0.0 -11.0 0.0 -10.9 -0.05 -10.95 -0.05 -11.0 -0.1 -11.0 -0.1 -11.0 -0.1 -11.0 -0.15 -11.05 -0.15 -11.0 -0.2 -10.95 -0.2 -10.9 -0.25 -11.0 -0.25 -10.95 -0.3 -10.95 -0.3 -10.9 -0.3 -10.8 -0.3 -10.8 -0.35 -10.8 -0.35 -10.85 -0.4 -10.85 -0.4 -10.8 -0.45 -10.8 -0.45 -10.85 -0.5 -10.8 -0.5 -10.8 -0.55 -10.8 -0.55 -10.8 -0.6 -10.8 -0.6 -10.75 -0.6 -10.75 -0.65 -10.75 -0.65 -10.75 -0.75 -10.75 -0.75 -10.7 -0.7 -10.65 -0.7 -10.6 -0.7 -10.55 -0.75 -10.55 -0.8 -10.55 -0.8 -10.55 -0.8 -10.55 -0.85 -10.45 -0.8 -10.45 -0.8 -10.4 Q-0.8 -10.35 -0.85 -10.4 L-0.85 -10.4 -0.9 -10.45 -0.9 -10.45 -0.95 -10.45 -0.95 -10.4 -0.9 -10.3 -0.9 -10.25 -0.85 -10.25 Q-0.85 -10.25 -0.9 -10.2 L-0.9 -10.2 -0.95 -10.2 -0.9 -10.15 -0.95 -10.15 -1.0 -10.15 -1.0 -10.15 -1.0 -10.05 -1.05 -10.05 -1.05 -10.0 -1.0 -9.95 -1.0 -9.95 -1.0 -9.9 -1.05 -9.9 -1.05 -9.85 -1.1 -9.85 -1.1 -9.85 -1.15 -9.9 -1.2 -10.0 -1.2 -9.95 -1.25 -9.95 -1.25 -10.0 -1.25 -10.0 -1.3 -10.05 -1.3 -10.0 -1.35 -9.95 Q-1.3 -9.9 -1.35 -9.85 L-1.35 -9.9 -1.4 -9.85 -1.4 -9.85 -1.45 -9.75 -1.45 -9.7 -1.45 -9.65 -1.45 -9.6 -1.5 -9.65 -1.5 -9.6 -1.5 -9.5 -1.5 -9.45 -1.45 -9.4 -1.45 -9.3 -1.45 -9.3 -1.4 -9.25 -1.4 -9.25 -1.45 -9.2 -1.45 -9.2 -1.5 -9.2 -1.5 -9.15 -1.55 -9.15 -1.55 -9.1 -1.5 -9.05 -1.5 -9.05 -1.45 -9.0 -1.45 -9.0 -1.4 -9.0 -1.4 -8.95 -1.35 -8.95 -1.35 -8.9 -1.3 -8.9 -1.3 -8.9 -1.25 -8.95 -1.2 -8.9 -1.2 -8.85 -1.2 -8.8 -1.25 -8.8 -1.2 -8.75 -1.2 -8.75 -1.2 -8.65 -1.15 -8.65 -1.1 -8.65 -1.1 -8.65 -1.0 -8.65 -0.95 -8.65 -0.9 -8.65 -0.9 -8.65 -0.95 -8.6 -0.95 -8.6 -0.95 -8.55 -0.9 -8.5 -0.85 -8.5 -0.85 -8.5 -0.75 -8.5 Q-0.7 -8.45 -0.7 -8.5 L-0.65 -8.5 -0.65 -8.45 -0.55 -8.45 -0.5 -8.45 -0.5 -8.5 -0.45 -8.5 -0.45 -8.5 -0.45 -8.45 -0.5 -8.3 -0.5 -8.3 -0.55 -8.2 -0.55 -8.2 -0.6 -8.05 -0.6 -8.05 -0.6 -8.15 -0.55 -8.25 -0.6 -8.2 -0.65 -8.15 -0.65 -8.15 -0.7 -8.15 -0.75 -8.1 -0.8 -8.1 -0.8 -8.1 -0.85 -8.1 -0.85 -8.1 -0.9 -8.1 -0.95 -8.05 -0.95 -8.05 -1.0 -7.95 Q-1.0 -7.9 -1.05 -7.9 L-1.05 -7.85 -1.1 -7.8 -1.15 -7.7 -1.15 -7.65 -1.2 -7.65 -1.25 -7.65 -1.3 -7.65 -1.35 -7.65 -1.4 -7.7 -1.45 -7.7 -1.55 -7.7 -1.65 -7.7 -1.65 -7.7 -1.95 -7.6 Q-2.2 -7.5 -2.4 -7.3 L-2.55 -7.0 -2.6 -6.9 Q-2.7 -6.75 -2.7 -6.55 L-2.65 -6.45 -2.7 -6.3 -2.65 -5.9 Q-2.6 -5.5 -2.45 -5.15 L-2.4 -4.9 -2.45 -4.85 Q-2.45 -4.75 -2.4 -4.7 L-2.4 -4.4 -2.45 -4.25 -2.45 -3.9 -2.4 -3.75 -2.45 -3.8 -2.55 -3.8 -2.7 -3.8 -2.8 -3.8 -2.85 -3.75 -2.9 -3.7 -2.95 -3.7 -3.0 -3.65 -3.05 -3.6 -3.1 -3.55 -3.1 -3.4 -3.05 -3.25 -2.95 -3.15 -2.85 -3.1 -2.8 -2.9 Q-2.8 -2.75 -2.85 -2.7 L-2.9 -2.7 -3.0 -2.7 -3.0 -2.8 -3.1 -2.9 -3.2 -2.9 -3.3 -2.9 -3.4 -2.85 -3.5 -2.7 -3.45 -2.5 -3.35 -2.35 -3.35 -2.3 -3.4 -2.25 -3.45 -2.2 -3.5 -2.15 -3.55 -2.15 -3.55 -2.15 -3.6 -2.1 -3.65 -2.05 -3.7 -2.0 -3.75 -2.0 -3.75 -1.9 -4.6 -1.4 -4.65 -1.35 -4.65 -1.3 -4.65 -1.25 -4.6 -1.15 -4.6 -1.05 -4.5 -0.95 -4.45 -0.95 -4.45 -0.95 -4.4 -0.95 -4.35 -0.95 -4.45 -0.9 -4.5 -0.85 -4.55 -0.85 -4.55 -0.75 -4.55 -0.7 -4.55 -0.65 -4.55 -0.6 -4.55 -0.55 -4.5 -0.5 -4.5 -0.5 -4.45 -0.45 -4.4 -0.45 -4.4 -0.4 -4.3 -0.4 Q-4.25 -0.4 -4.25 -0.45 L-4.2 -0.5 -4.15 -0.5 -4.15 -0.5 -3.2 -1.1 -3.2 -1.05 -3.15 -1.0 -3.15 -0.9 -3.1 -0.8 -3.1 -0.65 -3.0 -0.5 -3.0 -0.35 -3.0 -0.3 -2.95 -0.2 -2.9 0.0 -2.9 0.05 -2.8 0.4 -2.75 0.5 -2.75 0.6 -2.65 0.8 -2.6 1.0 -2.6 1.05 -2.55 1.1 -2.45 1.45 -2.4 1.5 -2.4 1.55 -2.2 2.1 -2.15 2.2 -2.15 2.3 -2.1 2.35 -2.1 2.4 -2.0 2.7 Q-1.95 2.85 -1.9 3.05 L-1.9 3.2 -1.85 3.35 -1.85 3.35 -1.8 3.4 -1.8 3.45 -1.75 3.6 -1.75 3.7 -1.75 3.7 -1.65 3.9 -1.85 3.9 -2.2 3.95 -2.65 4.05 -2.85 4.15 -3.0 4.2 -3.85 4.55 -4.25 4.7 -4.35 4.7 -4.65 4.85 Q-5.05 5.05 -5.5 5.2 L-6.3 5.45 -6.5 5.5 -6.5 5.45 -6.5 5.45 Q-6.5 5.4 -6.55 5.4 L-6.65 5.4 -6.65 5.4 -6.7 5.45 -6.8 5.45 -6.9 5.5 -6.95 5.5 -7.0 5.5 -7.1 5.5 -7.1 5.5 -7.15 5.55 -7.2 5.55 -7.3 5.65 -7.4 5.65 -7.45 5.7 -7.45 5.7 -7.5 5.75 -7.5 5.85 -7.55 5.9 -7.5 5.95 -7.5 6.2 -7.5 6.25 -7.45 6.4 -7.45 6.45 -7.4 6.5 -7.4 6.5 -7.35 6.5 Q-7.3 6.5 -7.3 6.55 L-7.25 6.6 -7.25 6.85 -7.3 6.95 -7.3 7.1 -7.3 7.15 -7.35 7.2 -7.35 7.3 -7.3 7.4 -7.3 7.6 -7.25 7.7 -7.2 7.85 -7.2 7.9 -7.1 8.1 -7.0 8.3 -6.85 8.45 -6.7 8.45 -6.65 8.4 -6.65 8.4 -6.6 8.4 -6.5 8.3 -6.45 8.15 -6.45 8.05 -6.45 7.9 -6.45 7.75 -6.45 7.65 -6.4 7.5 -6.4 7.35 -6.4 7.3 -6.35 7.25 -6.35 7.2 -6.3 7.1 -6.3 7.05 -6.3 7.05 -6.2 6.85 -6.2 6.8 -6.15 6.65 -6.0 6.4 -5.95 6.35 -5.95 6.3 -6.0 6.25 -6.0 6.2 -5.4 6.05 -4.3 5.7 -3.25 5.5 -3.1 5.5 -2.65 5.45 -2.35 5.4 -2.05 5.3 -2.0 5.3 -1.55 5.15 -1.6 5.6 -1.6 5.95 -1.6 7.3 -1.6 7.75 -1.6 8.65 -1.65 9.5 -1.65 9.8 -1.65 9.85 -1.7 9.85 -1.75 9.85 -1.75 9.85 -1.85 9.9 -1.85 10.0 -1.85 10.15 -1.85 10.3 -1.85 10.45 -1.9 10.45 -1.85 10.5 -1.85 10.55 -1.8 10.7 -1.8 10.8 -1.8 10.85 -1.75 10.9 -1.7 10.95 -1.6 11.0 -1.55 11.0 -1.55 11.0 -1.35 11.0 -1.3 11.05 -1.15 11.05 -1.1 11.05 -1.05 11.05 -1.05 11.0 -1.0 11.0 -0.95 10.95 -0.9 10.9 -0.7 11.0 -0.55 11.05 Q-0.55 11.05 -0.5 11.1 L-0.45 11.1 -0.4 11.15 -0.35 11.2 -0.25 11.2 -0.15 11.2 -0.05 11.25 0.05 11.25 0.15 11.25 0.3 11.25 0.35 11.25 0.6 11.25 0.8 11.2 1.0 11.1 1.05 10.95 1.0 10.9 1.0 10.85 0.95 10.75 0.85 10.65 0.8 10.6 0.7 10.6 0.65 10.6 0.45 10.5 0.2 10.4 0.1 10.3 0.05 10.3 0.0 10.25 -0.05 10.2 Q-0.1 10.2 -0.1 10.15 L-0.15 10.15 -0.15 10.15 -0.2 10.15 -0.35 10.0 -0.4 10.0 -0.4 10.0 -0.5 9.9 -0.7 9.7 -0.75 9.6 -0.8 9.6 -0.85 9.6 -0.8 8.9 -0.7 7.7 -0.5 6.65 -0.45 6.55 -0.35 6.1 -0.25 5.8 -0.25 5.45 -0.2 5.4 -0.2 4.5 Q-0.2 4.35 -0.25 4.2 L-0.2 4.15 -0.15 4.05 -0.15 3.95 -0.1 3.9 -0.1 3.85 -0.05 3.75 -0.05 3.55 0.0 3.2 0.0 3.15 0.0 3.1 0.05 2.95 0.05 2.8 0.05 2.6 0.05 2.15 0.1 1.85 0.1 1.75 0.1 1.6 0.15 1.5 0.2 0.95 0.2 0.8 0.25 0.45 0.25 0.4 0.3 0.15 0.3 -0.15 0.4 -0.15 0.45 -0.2 0.5 -0.25 0.55 -0.3 0.6 -0.35 0.7 -0.45 0.8 -0.6 0.9 -0.65 0.9 -0.7 0.95 -0.75 1.0 -0.8 1.0 -0.8 1.05 -0.8 1.05 -0.75 1.1 -0.65 1.15 -0.65 1.25 -0.6 1.25 -0.6 1.35 -0.55 1.35 -0.55 1.4 -0.55 1.4 -0.6 1.45 -0.6 1.9 -0.3 2.7 0.15 Q2.85 0.2 2.95 0.25 L2.95 0.35 3.05 0.55 3.1 0.65 3.15 0.65 3.25 0.7 3.35 0.6 3.4 0.5 3.45 0.45 3.65 0.35 3.75 0.25 3.75 0.4 3.8 0.45 3.8 0.55 3.8 0.6 3.75 0.55 3.65 0.55 3.6 0.6 Q3.6 0.6 3.6 0.65 L3.55 0.65 3.5 0.65 Q3.45 0.65 3.45 0.7 L3.4 0.75 3.35 0.75 3.3 0.7 Q3.3 0.7 3.25 0.75 L3.25 0.85 3.3 0.9 3.4 0.95 3.45 0.95 3.55 0.9 3.65 0.9 3.7 0.9 3.75 0.9 3.8 0.9 Q3.85 0.85 3.9 0.9 L3.9 0.85 4.0 0.9 4.1 0.9 4.15 0.8 4.2 0.6 4.15 0.5 4.05 0.4 4.15 0.15 3.95 -0.05 3.95 -0.05 3.65 -0.25 3.4 -0.25 3.35 -0.2 3.3 -0.15 3.3 -0.2 3.25 -0.25 3.15 -0.3 3.15 -0.3 3.1 -0.35 3.1 -0.35 2.95 -0.45 2.9 -0.45 2.9 -0.5 2.85 -0.55 2.8 -0.6 2.7 -0.7 2.65 -0.7 2.55 -0.8 2.5 -0.8 2.5 -0.85 2.45 -0.85 2.4 -0.9 2.4 -0.95 2.25 -1.05 2.2 -1.05 2.15 -1.15 2.1 -1.15 2.05 -1.2 2.3 -1.2 2.35 -1.2 2.4 -1.15 2.4 -1.15 2.45 -1.15 2.5 -1.1 2.7 -1.0 Q2.75 -1.0 2.8 -0.95 L3.05 -0.8 3.05 -0.8 3.25 -0.8 Q3.3 -0.85 3.35 -0.9 L3.35 -0.95 3.45 -1.05 3.45 -1.05 3.5 -1.1 3.5 -1.2 3.55 -1.25 3.6 -1.35 3.65 -1.35 3.65 -1.55 3.6 -1.6 3.6 -1.65 3.55 -1.65 3.35 -1.7 3.35 -1.7 3.25 -1.75 3.2 -1.85 3.15 -1.9 3.05 -1.9 2.9 -1.85 2.9 -1.85 2.85 -1.85 2.85 -1.85 2.7 -1.85 2.7 -1.85 2.55 -1.8 2.5 -1.8 2.45 -1.8 2.4 -1.7 2.35 -1.75 2.25 -1.75 2.2 -1.75 2.15 -1.8 2.05 -1.85 2.05 -1.8 2.0 -1.85 2.0 -1.85 1.8 -1.9 1.75 -1.9 1.75 -1.9 1.65 -1.9 1.6 -1.95 1.45 -2.0 1.45 -2.0 1.3 -2.05 1.3 -2.05 1.2 -2.15 1.2 -2.15 1.1 -2.2 1.05 -2.25 1.0 -2.25 0.95 -2.35 0.95 -2.4 1.0 -2.4 1.15 -2.65 1.25 -3.05 1.3 -3.15 1.35 -3.5 1.4 -3.85 1.35 -4.0 1.35 -4.3 Q1.4 -4.35 1.4 -4.45 L1.4 -4.8 1.4 -4.8 1.45 -5.1 1.45 -5.25 1.5 -5.45 1.65 -5.75 1.7 -6.15 Q1.7 -6.35 1.65 -6.5 L1.5 -6.75 1.45 -6.8 1.45 -6.8 1.3 -6.85 1.25 -6.85 1.25 -6.85 1.15 -6.9 1.1 -6.9 1.05 -6.85 1.0 -6.95 1.0 -6.95 0.95 -7.0 0.85 -7.05 0.85 -7.05 0.85 -7.15 0.85 -7.25 0.85 -7.35 0.9 -7.45 0.95 -7.65 0.95 -7.7 1.0 -7.7 1.0 -7.75 1.05 -7.8 1.05 -7.85 1.1 -7.85 1.1 -8.0 1.1 -8.05 1.1 -8.1 1.15 -8.15 1.15 -8.25 1.15 -8.25 1.2 -8.3 1.2 -8.35 1.25 -8.2 Q1.3 -8.2 1.35 -8.25 L1.35 -8.25 1.4 -8.2 1.35 -8.15 1.35 -8.15 1.4 -8.15 1.45 -8.15 1.45 -8.2 1.5 -8.2 1.5 -8.15 1.55 -8.15 1.55 -8.2 1.6 -8.2 1.6 -8.3 1.6 -8.4 1.6 -8.4 1.65 -8.4 1.65 -8.4 1.65 -8.45 1.6 -8.5 1.7 -8.5 Q1.75 -8.5 1.75 -8.5 L1.8 -8.55 1.8 -8.55 1.75 -8.55 1.7 -8.55 1.65 -8.6 1.7 -8.6 1.8 -8.65 1.7 -8.7 1.7 -8.7 1.65 -8.7 1.6 -8.7 Q1.6 -8.7 1.6 -8.75 L1.6 -8.75 Q1.65 -8.75 1.65 -8.8 L1.7 -8.8 1.65 -8.85 1.65 -8.85 1.7 -8.9 1.7 -8.9 1.75 -8.9 1.75 -8.9 Q1.8 -8.95 1.8 -9.05 L1.75 -9.05 1.75 -9.05 1.7 -9.05 1.75 -9.15 1.75 -9.15 1.8 -9.2 1.8 -9.25 1.75 -9.25 1.75 -9.25 1.7 -9.3 1.75 -9.35 1.8 -9.35 1.8 -9.35 1.9 -9.4 1.9 -9.4 1.9 -9.45 1.85 -9.45 1.8 -9.45 1.8 -9.55 1.8 -9.55 1.75 -9.55 1.75 -9.55 1.7 -9.55 Q1.7 -9.55 1.7 -9.6 L1.75 -9.65 Q1.8 -9.65 1.75 -9.75 L1.75 -9.75 1.7 -9.7 1.7 -9.75 1.65 -9.75 1.65 -9.75 1.7 -9.85 1.65 -9.85 1.65 -9.9 1.75 -9.95 1.75 -9.95 1.8 -10.1 1.8 -10.3 1.75 -10.3 1.75 -10.3 1.75 -10.2 1.75 -10.2 Q1.7 -10.15 1.7 -10.2 L1.7 -10.15 1.65 -10.1 1.6 -10.1 1.6 -10.1 1.55 -10.15 1.6 -10.2 1.6 -10.3 1.65 -10.3 1.65 -10.35 1.55 -10.4 1.55 -10.4 1.5 -10.45 1.5 -10.45 Q1.45 -10.4 1.45 -10.45 L1.45 -10.5 Q1.4 -10.55 1.35 -10.5 L1.35 -10.5 1.3 -10.5 1.3 -10.55 1.25 -10.6 1.25 -10.6 1.2 -10.6 1.15 -10.65 1.15 -10.65 1.15 -10.7 1.1 -10.75 1.1 -10.75 1.05 -10.8 1.05 -10.75 Q1.0 -10.75 1.0 -10.75 L0.95 -10.8 0.95 -10.85 0.9 -10.9 0.85 -10.85 0.85 -10.95 0.8 -10.9 0.8 -10.95 0.75 -10.95 M-3.3 -2.75 L-3.3 -2.7 -3.2 -2.65 -3.15 -2.65 -3.15 -2.65 -3.05 -2.65 -3.0 -2.45 -3.0 -2.4 -3.05 -2.35 -3.05 -2.4 -3.1 -2.4 -3.1 -2.4 -3.25 -2.4 -3.25 -2.35 -3.25 -2.4 -3.35 -2.45 -3.4 -2.5 -3.4 -2.6 -3.3 -2.75 Z" fill="none" stroke="#000000" stroke-linecap="round" stroke-linejoin="round" stroke-opacity="0.4509804" stroke-width="1.0"/>
  </g>
  <defs>
    <linearGradient gradientTransform="matrix(0.0, -0.0149, 0.0051, 0.0, 16.95, -0.45)" gradientUnits="userSpaceOnUse" id="gradient0" spreadMethod="pad" x1="-819.2" x2="819.2">
      <stop offset="0.0" stop-color="#0a1a25"/>
      <stop offset="1.0" stop-color="#6db8ad"/>
    </linearGradient>
  </defs>
</svg>
