<?xml version="1.0" encoding="UTF-8" standalone="no"?>
<svg xmlns:xlink="http://www.w3.org/1999/xlink" height="36.8px" width="5.1px" xmlns="http://www.w3.org/2000/svg">
  <g transform="matrix(1.0, 0.0, 0.0, 1.0, 2.55, 18.4)">
    <path d="M-1.15 -18.35 L0.5 -18.2 1.45 -18.2 1.5 -18.2 Q1.95 -17.95 2.5 -17.9 L2.5 -11.75 2.5 -12.0 Q2.35 -12.65 2.15 -13.1 L2.0 -11.95 1.75 -10.75 Q1.7 -10.9 1.65 -11.2 L1.5 -11.65 Q1.35 -12.15 0.95 -11.75 0.85 -10.9 0.75 -9.9 L0.75 -9.15 0.75 -6.4 Q0.75 -4.9 0.7 -3.7 0.65 -2.85 0.55 -2.15 L0.4 -1.5 Q0.1 -2.25 0.1 -3.65 0.15 -5.35 0.05 -5.8 L-0.05 -6.45 -0.05 -7.2 -0.05 -8.5 Q-0.1 -10.15 -0.6 -11.1 -0.8 -10.9 -0.75 -10.35 L-0.7 -10.2 -0.7 -10.1 -0.75 -9.65 Q-0.75 -9.55 -0.8 -9.5 L-1.0 -10.6 Q-1.15 -11.25 -1.35 -11.7 -1.4 -11.85 -1.55 -11.8 L-1.8 -11.65 Q-2.0 -10.6 -2.1 -8.7 L-2.25 -6.8 -2.3 -6.1 -2.35 -5.75 -2.4 -6.6 -2.4 -8.4 -2.4 -8.65 -2.4 -8.85 Q-2.45 -9.4 -2.4 -10.15 L-2.35 -10.55 -2.3 -11.25 Q-2.3 -12.0 -2.3 -12.45 L-2.3 -12.45 -2.3 -12.5 -2.25 -13.05 -2.25 -13.75 -2.2 -15.05 -2.2 -15.4 Q-2.0 -16.7 -1.2 -17.35 -1.05 -17.3 -1.0 -16.95 L-1.0 -16.8 Q-0.95 -16.35 -0.85 -16.3 L-0.7 -16.7 Q-0.6 -17.1 -0.6 -17.6 L-0.6 -17.95 -2.45 -18.1 -2.5 -18.1 -2.5 -18.3 -2.4 -18.35 -2.1 -18.3 Q-1.45 -18.3 -1.15 -18.35 M-2.4 -8.65 L-2.4 -8.65" fill="#684024" fill-rule="evenodd" stroke="none"/>
    <path d="M-2.5 -18.1 L-2.45 -18.1 -0.6 -17.95 -0.6 -17.6 Q-0.6 -17.1 -0.7 -16.7 L-0.85 -16.3 Q-0.95 -16.35 -1.0 -16.8 L-1.0 -16.95 Q-1.05 -17.3 -1.2 -17.35 -2.0 -16.7 -2.2 -15.4 L-2.2 -15.05 -2.25 -13.75 -2.25 -13.05 -2.3 -12.5 -2.3 -12.45 -2.5 -12.15 -2.5 -14.45 Q-2.35 -14.9 -2.45 -15.55 L-2.5 -15.95 -2.5 -18.1" fill="#784723" fill-rule="evenodd" stroke="none"/>
    <path d="M-1.15 -18.35 Q-1.45 -18.3 -2.1 -18.3 L-2.4 -18.35 -1.75 -18.35 -1.15 -18.35" fill="#755f4e" fill-rule="evenodd" stroke="none"/>
    <path d="M-2.5 -14.45 L-2.5 -15.95 -2.45 -15.55 Q-2.35 -14.9 -2.5 -14.45" fill="#693c22" fill-rule="evenodd" stroke="none"/>
    <path d="M-2.3 -12.45 L-2.3 -12.45 Q-2.3 -12.0 -2.3 -11.25 L-2.35 -10.55 -2.4 -10.15 Q-2.45 -9.4 -2.4 -8.85 L-2.4 -8.65 -2.5 -8.7 -2.5 -12.15 -2.3 -12.45 M-2.5 17.8 L-2.5 13.0 Q-2.45 12.65 -2.45 12.05 -2.5 11.15 -2.35 10.75 -2.25 10.6 -2.15 10.75 -2.05 10.85 -2.05 11.0 L-2.05 12.6 Q-2.0 13.55 -1.5 14.15 L-1.45 14.15 -1.25 14.15 -1.25 14.2 -0.95 14.25 Q-0.6 14.4 -0.5 14.05 -0.4 13.7 -0.35 13.25 L-0.3 13.0 Q-0.25 12.35 -0.25 11.5 L-0.2 10.4 -0.1 9.1 -0.1 8.9 -0.05 9.05 Q0.1 10.05 0.05 11.65 L-0.05 14.35 0.05 16.1 0.05 16.4 Q0.05 17.25 -0.15 17.9 L-0.35 17.9 -1.05 17.85 Q-1.5 17.65 -1.5 17.15 -1.5 16.85 -1.7 16.55 -1.9 16.2 -2.1 16.2 -2.15 17.05 -2.25 17.35 -2.35 17.6 -2.5 17.8" fill="#8f5523" fill-rule="evenodd" stroke="none"/>
    <path d="M-2.4 -8.4 L-2.4 -6.6 -2.35 -5.75 -2.3 -6.1 -2.3 -5.65 Q-2.3 -5.25 -2.5 -5.0 L-2.45 -6.4 -2.4 -7.85 -2.4 -8.4 M-2.25 -6.8 L-2.1 -8.7 Q-2.0 -10.6 -1.8 -11.65 L-1.55 -11.8 Q-1.4 -11.85 -1.35 -11.7 -1.15 -11.25 -1.0 -10.6 L-0.8 -9.5 Q-0.75 -9.55 -0.75 -9.65 L-0.7 -8.65 -0.95 -10.05 Q-1.1 -10.95 -1.35 -11.5 L-1.45 -11.6 Q-1.55 -11.6 -1.6 -11.55 -1.95 -10.55 -2.05 -8.95 L-2.25 -6.8 M-0.7 -10.2 L-0.75 -10.35 Q-0.8 -10.9 -0.6 -11.1 -0.1 -10.15 -0.05 -8.5 L-0.05 -7.2 -0.15 -8.1 -0.3 -9.4 Q-0.4 -10.15 -0.7 -10.6 L-0.7 -10.2 M-0.05 -6.45 L0.05 -5.8 Q0.0 -4.55 0.05 0.25 L0.05 1.8 Q0.0 0.2 0.0 -2.8 L-0.05 -6.45 M0.05 2.95 L0.0 5.8 0.0 5.7 Q0.0 4.05 0.05 2.95 M0.45 10.65 L0.45 10.1 Q0.5 7.65 0.6 5.6 0.5 7.95 0.45 10.65" fill="#744a26" fill-rule="evenodd" stroke="none"/>
    <path d="M-2.3 -6.1 L-2.25 -6.8 -2.05 -8.95 Q-1.95 -10.55 -1.6 -11.55 -1.55 -11.6 -1.45 -11.6 L-1.35 -11.5 Q-1.1 -10.95 -0.95 -10.05 L-0.7 -8.65 Q-0.55 -7.9 -0.5 -6.5 -0.45 -5.0 -0.35 -4.35 L-0.3 -4.0 Q-0.3 -3.75 -0.45 -3.7 L-0.65 -5.35 -0.75 -7.1 Q-0.9 -8.05 -1.25 -8.75 -1.45 -7.3 -1.5 -4.8 -1.5 -1.95 -1.6 -0.85 -1.8 -0.5 -2.1 -0.85 -2.4 -1.1 -2.5 -1.45 -2.4 -2.15 -2.45 -3.2 L-2.5 -5.0 Q-2.3 -5.25 -2.3 -5.65 L-2.3 -6.1" fill="#855124" fill-rule="evenodd" stroke="none"/>
    <path d="M-0.75 -9.65 L-0.7 -10.1 -0.7 -10.2 -0.7 -10.6 Q-0.4 -10.15 -0.3 -9.4 L-0.15 -8.1 -0.05 -7.2 -0.05 -6.45 0.0 -2.8 Q0.0 0.2 0.05 1.8 L0.05 2.95 Q0.0 4.05 0.0 5.7 L0.0 5.8 -0.05 6.3 -0.05 7.6 -0.1 8.9 -0.1 9.1 Q-0.15 8.3 -0.4 7.35 L-0.9 5.6 Q-1.05 5.25 -0.9 4.8 -0.85 4.55 -0.55 4.15 -0.4 3.55 -0.5 2.7 L-0.75 1.25 Q-0.4 -0.6 -0.35 -1.2 -0.2 -2.6 -0.45 -3.7 -0.3 -3.75 -0.3 -4.0 L-0.35 -4.35 Q-0.45 -5.0 -0.5 -6.5 -0.55 -7.9 -0.7 -8.65 L-0.75 -9.65" fill="#975922" fill-rule="evenodd" stroke="none"/>
    <path d="M-2.4 -8.65 L-2.4 -8.4 -2.4 -7.85 -2.5 -7.3 -2.5 -8.7 -2.4 -8.65" fill="#9e5e21" fill-rule="evenodd" stroke="none"/>
    <path d="M-2.4 -8.65 L-2.4 -8.65 -2.5 -8.7 -2.4 -8.65 M-2.5 13.0 L-2.5 11.05 Q-2.45 10.6 -2.1 10.55 -1.8 11.0 -1.9 12.0 -2.05 13.0 -1.8 13.45 -1.7 13.5 -1.65 13.7 L-1.6 13.95 -1.45 14.15 -1.5 14.15 Q-2.0 13.55 -2.05 12.6 L-2.05 11.0 Q-2.05 10.85 -2.15 10.75 -2.25 10.6 -2.35 10.75 -2.5 11.15 -2.45 12.05 -2.45 12.65 -2.5 13.0 M-0.3 11.05 L-0.3 10.7 -0.2 10.4 -0.25 11.5 Q-0.25 12.35 -0.3 13.0 -0.3 12.6 -0.3 12.1 L-0.3 11.05 M-1.25 14.15 L-1.15 14.15 Q-0.75 14.3 -0.55 13.85 L-0.35 13.25 Q-0.4 13.7 -0.5 14.05 -0.6 14.4 -0.95 14.25 L-1.25 14.2 -1.25 14.15" fill="#965b25" fill-rule="evenodd" stroke="none"/>
    <path d="M-2.5 6.2 L-2.5 5.55 -2.45 6.1 -2.5 6.2 M-2.5 3.8 L-2.5 -7.3 -2.4 -7.85 -2.45 -6.4 -2.5 -5.0 -2.45 -3.2 Q-2.4 -2.15 -2.5 -1.45 L-2.5 3.7 -2.5 3.8" fill="#b27030" fill-rule="evenodd" stroke="none"/>
    <path d="M-2.5 11.05 L-2.5 6.2 -2.45 6.1 -2.4 7.55 Q-2.35 8.4 -2.1 9.0 L-2.0 9.05 -2.05 5.55 Q-2.05 3.35 -2.1 2.1 -1.7 1.75 -1.6 1.1 L-1.55 0.0 Q-1.7 -0.3 -1.4 -0.55 -1.05 -0.85 -1.05 -1.05 L-1.05 -2.8 -1.1 -4.6 -1.1 -4.95 Q-1.1 -5.2 -0.95 -5.25 L-0.7 -4.1 Q-0.55 -3.35 -0.5 -2.9 -0.3 -1.5 -0.65 -0.5 -0.95 0.35 -0.9 1.65 L-0.8 2.75 -0.75 3.85 Q-1.3 4.45 -1.2 5.5 -1.15 5.9 -0.8 7.3 -0.35 8.6 -0.55 10.6 L-0.75 12.25 -0.9 13.95 -0.75 13.95 Q-0.6 13.35 -0.5 12.5 L-0.3 11.05 -0.3 12.1 Q-0.3 12.6 -0.3 13.0 L-0.35 13.25 -0.55 13.85 Q-0.75 14.3 -1.15 14.15 L-1.25 14.15 -1.45 14.15 -1.6 13.95 -1.65 13.7 Q-1.7 13.5 -1.8 13.45 -2.05 13.0 -1.9 12.0 -1.8 11.0 -2.1 10.55 -2.45 10.6 -2.5 11.05" fill="#a35f20" fill-rule="evenodd" stroke="none"/>
    <path d="M-2.5 5.55 L-2.5 3.8 -2.5 3.7 -2.5 -1.45 Q-2.4 -1.1 -2.1 -0.85 -1.8 -0.5 -1.6 -0.85 -1.5 -1.95 -1.5 -4.8 -1.45 -7.3 -1.25 -8.75 -0.9 -8.05 -0.75 -7.1 L-0.65 -5.35 Q-0.8 -5.4 -0.95 -5.25 -1.1 -5.2 -1.1 -4.95 L-1.1 -4.6 -1.05 -2.8 -1.05 -1.05 Q-1.05 -0.85 -1.4 -0.55 -1.7 -0.3 -1.55 0.0 L-1.6 1.1 Q-1.7 1.75 -2.1 2.1 -2.05 3.35 -2.05 5.55 L-2.0 9.05 -2.1 9.0 Q-2.35 8.4 -2.4 7.55 L-2.45 6.1 -2.5 5.55" fill="#925823" fill-rule="evenodd" stroke="none"/>
    <path d="M-0.95 -5.25 Q-0.8 -5.4 -0.65 -5.35 L-0.45 -3.7 Q-0.2 -2.6 -0.35 -1.2 -0.4 -0.6 -0.75 1.25 L-0.5 2.7 Q-0.4 3.55 -0.55 4.15 -0.85 4.55 -0.9 4.8 -1.05 5.25 -0.9 5.6 L-0.4 7.35 Q-0.15 8.3 -0.1 9.1 L-0.2 10.4 -0.3 10.7 -0.3 11.05 -0.5 12.5 Q-0.6 13.35 -0.75 13.95 L-0.9 13.95 -0.75 12.25 -0.55 10.6 Q-0.35 8.6 -0.8 7.3 -1.15 5.9 -1.2 5.5 -1.3 4.45 -0.75 3.85 L-0.8 2.75 -0.9 1.65 Q-0.95 0.35 -0.65 -0.5 -0.3 -1.5 -0.5 -2.9 -0.55 -3.35 -0.7 -4.1 L-0.95 -5.25" fill="#aa682a" fill-rule="evenodd" stroke="none"/>
    <path d="M0.05 -5.8 Q0.15 -5.35 0.1 -3.65 0.1 -2.25 0.4 -1.5 L0.55 -2.15 Q0.65 -2.85 0.7 -3.7 0.75 -4.9 0.75 -6.4 L0.75 -9.15 0.75 -9.9 Q0.85 -10.9 0.95 -11.75 1.35 -12.15 1.5 -11.65 L1.65 -11.2 Q1.7 -10.9 1.75 -10.75 L2.0 -11.95 2.15 -13.1 Q2.35 -12.65 2.5 -12.0 L2.5 -11.75 2.5 1.05 2.5 0.0 2.35 -1.5 2.35 -1.65 2.2 -1.8 Q2.15 -1.85 2.1 -1.8 1.85 -1.55 1.9 -1.1 L1.95 -0.35 1.95 2.6 Q1.9 4.25 1.65 5.5 1.3 4.9 1.15 3.9 1.05 2.75 0.95 2.3 L0.8 3.55 0.6 5.6 Q0.5 7.65 0.45 10.1 L0.45 10.65 0.45 11.5 0.45 17.9 0.75 17.9 1.05 17.95 1.15 17.95 1.2 18.0 1.5 18.0 1.6 18.0 1.85 18.05 1.8 16.85 1.75 15.55 1.7 14.25 1.7 13.35 1.7 12.8 1.65 12.35 1.6 10.55 1.55 9.75 Q1.75 9.8 1.85 10.1 1.9 10.25 1.9 10.55 L1.9 10.85 1.85 11.1 Q1.85 11.4 1.9 11.55 L1.9 11.95 1.95 14.9 Q2.0 16.85 2.2 18.2 L2.25 18.2 2.4 18.2 2.5 18.2 2.5 18.15 2.5 18.35 0.0 18.35 0.0 18.35 -0.15 18.35 -0.3 18.3 -0.9 18.25 -1.3 18.3 -1.9 18.35 -2.5 18.35 -2.5 17.8 Q-2.35 17.6 -2.25 17.35 -2.15 17.05 -2.1 16.2 -1.9 16.2 -1.7 16.55 -1.5 16.85 -1.5 17.15 -1.5 17.65 -1.05 17.85 L-0.35 17.9 -0.15 17.9 Q0.05 17.25 0.05 16.4 L0.05 16.1 -0.05 14.35 0.05 11.65 Q0.1 10.05 -0.05 9.05 L-0.1 8.9 -0.05 7.6 -0.05 6.3 0.0 5.8 0.05 2.95 0.05 1.8 0.05 0.25 Q0.0 -4.55 0.05 -5.8" fill="#784c26" fill-rule="evenodd" stroke="none"/>
    <path d="M0.8 3.55 L0.95 2.3 Q1.05 2.75 1.15 3.9 1.3 4.9 1.65 5.5 1.9 4.25 1.95 2.6 L1.95 -0.35 1.9 -1.1 Q1.85 -1.55 2.1 -1.8 2.15 -1.85 2.2 -1.8 L2.35 -1.65 2.35 -1.5 Q2.3 -1.65 2.05 -1.6 2.0 -0.95 2.05 0.9 2.1 2.45 1.9 3.4 1.95 4.1 1.9 5.1 L1.75 6.8 Q1.6 8.8 1.85 10.1 1.75 9.8 1.55 9.75 L1.6 10.55 Q1.4 9.75 1.4 8.75 1.4 7.85 1.5 6.55 1.65 6.3 1.4 5.9 1.2 5.5 1.2 5.3 1.25 4.95 1.1 4.4 L0.85 3.5 0.8 3.55" fill="#824f23" fill-rule="evenodd" stroke="none"/>
    <path d="M2.5 1.05 L2.5 2.15 2.5 18.15 2.5 18.2 2.4 18.2 2.25 18.2 2.2 18.2 Q2.0 16.85 1.95 14.9 L1.9 11.95 1.9 11.55 1.9 10.85 1.9 10.55 Q1.9 10.25 1.85 10.1 1.6 8.8 1.75 6.8 L1.9 5.1 Q1.95 4.1 1.9 3.4 2.1 2.45 2.05 0.9 2.0 -0.95 2.05 -1.6 2.3 -1.65 2.35 -1.5 L2.5 0.0 2.5 1.05" fill="#985820" fill-rule="evenodd" stroke="none"/>
    <path d="M0.8 3.55 L0.85 3.5 1.1 4.4 Q1.25 4.95 1.2 5.3 1.2 5.5 1.4 5.9 1.65 6.3 1.5 6.55 1.4 7.85 1.4 8.75 1.4 9.75 1.6 10.55 L1.65 12.35 1.7 12.8 1.7 13.35 1.7 14.25 1.75 15.55 1.8 16.85 1.85 18.05 1.6 18.0 1.5 18.0 1.2 18.0 1.15 17.95 1.05 17.95 0.75 17.9 0.45 17.9 0.45 11.5 0.45 10.65 Q0.5 7.95 0.6 5.6 L0.8 3.55" fill="#975820" fill-rule="evenodd" stroke="none"/>
    <path d="M1.9 10.85 L1.9 11.55 Q1.85 11.4 1.85 11.1 L1.9 10.85" fill="#694322" fill-rule="evenodd" stroke="none"/>
    <path d="M2.5 -11.75 L2.5 -17.9 Q1.95 -17.95 1.5 -18.2 L1.45 -18.2 0.5 -18.2 -1.15 -18.35 -1.75 -18.35 -2.4 -18.35 -2.5 -18.3 -2.5 -18.1 -2.5 -15.95 -2.5 -14.45 -2.5 -12.15 -2.5 -8.7 -2.5 -7.3 -2.5 3.8 -2.5 5.55 -2.5 6.2 -2.5 11.05 -2.5 13.0 -2.5 17.8 -2.5 18.35 -1.9 18.35 -1.3 18.3 -0.9 18.25 -0.3 18.3 -0.15 18.35 0.0 18.35 0.0 18.35 2.5 18.35 2.5 18.15 2.5 2.15 2.5 1.05 2.5 -11.75 Z" fill="none" stroke="#000000" stroke-linecap="round" stroke-linejoin="round" stroke-opacity="0.4509804" stroke-width="1.0"/>
  </g>
</svg>
