<?xml version="1.0" encoding="UTF-8" standalone="no"?>
<svg xmlns:xlink="http://www.w3.org/1999/xlink" height="7.55px" width="6.0px" xmlns="http://www.w3.org/2000/svg">
  <g transform="matrix(1.0, 0.0, 0.0, 1.0, 1.15, -0.7)">
    <path d="M4.6 1.1 L4.5 1.1 4.45 1.1 4.2 1.1 Q3.75 1.1 3.7 1.2 L3.65 1.3 3.5 1.35 Q2.7 1.35 2.7 1.05 2.7 0.95 2.35 0.95 L2.0 0.95 1.8 0.9 1.65 0.9 Q1.45 0.9 1.35 1.0 L1.2 1.2 Q1.15 1.2 1.1 1.35 1.05 1.5 0.9 1.5 L0.6 1.5 Q0.3 1.0 -0.25 1.0 -0.5 1.0 -0.7 1.2 L-0.9 1.35 -0.9 1.4 -0.95 1.4 -0.9 1.15 -0.9 0.75 4.55 0.75 4.55 0.8 4.6 1.1 M0.5 6.75 L4.8 6.75 4.85 8.25 -1.15 8.25 -1.1 7.9 -1.1 6.75 0.5 6.75" fill="#2b2218" fill-rule="evenodd" stroke="none"/>
    <path d="M-0.95 3.3 L-0.95 3.25 -0.9 3.25 -0.9 3.25 -0.9 3.35 -0.95 3.4 -0.9 3.5 -0.9 3.5 -0.9 3.5 -0.75 3.55 -0.45 3.4 -0.25 3.35 0.85 3.25 1.2 3.55 1.2 3.7 1.6 3.7 Q1.8 3.7 1.95 3.8 2.05 3.85 2.2 3.85 2.35 3.85 2.6 3.6 L2.65 3.55 2.9 3.4 3.15 3.35 3.45 3.3 3.8 3.2 4.05 3.15 4.2 3.2 4.25 3.2 4.35 3.3 4.4 3.3 4.35 3.55 4.4 3.85 4.45 4.1 4.5 4.25 4.5 4.3 4.45 4.35 4.25 4.5 Q4.0 4.65 3.95 4.85 3.9 5.0 3.95 5.25 3.9 5.5 3.6 5.6 L2.8 5.8 2.25 5.9 Q2.1 5.9 2.0 6.05 1.9 6.15 1.75 6.15 L1.6 6.1 Q1.5 6.05 1.4 6.05 1.2 6.05 1.1 6.2 L1.0 6.35 0.95 6.4 Q0.75 6.4 0.55 6.65 L0.5 6.75 -1.1 6.75 -1.1 6.35 -1.05 4.55 -1.0 4.3 -1.0 4.2 -0.95 3.55 -0.95 3.35 -0.95 3.3" fill="#634e31" fill-rule="evenodd" stroke="none"/>
    <path d="M4.4 3.3 L4.45 3.15 4.55 2.75 4.6 2.4 4.65 2.25 4.65 2.45 4.7 3.55 4.8 6.35 4.8 6.75 0.5 6.75 0.55 6.65 Q0.75 6.4 0.95 6.4 L1.0 6.35 1.1 6.2 Q1.2 6.05 1.4 6.05 1.5 6.05 1.6 6.1 L1.75 6.15 Q1.9 6.15 2.0 6.05 2.1 5.9 2.25 5.9 L2.8 5.8 3.6 5.6 Q3.9 5.5 3.95 5.25 3.9 5.0 3.95 4.85 4.0 4.65 4.25 4.5 L4.45 4.35 4.5 4.3 4.5 4.25 4.45 4.1 4.4 3.85 4.35 3.55 4.4 3.3" fill="#765e3b" fill-rule="evenodd" stroke="none"/>
    <path d="M4.2 1.1 L4.45 1.1 4.5 1.1 4.6 1.1 4.6 1.55 4.65 2.25 4.6 2.4 4.55 2.75 4.45 3.15 4.4 3.3 4.35 3.3 4.25 3.2 4.2 3.2 4.05 3.15 3.8 3.2 3.45 3.3 3.15 3.35 2.9 3.4 2.65 3.55 2.6 3.6 Q2.35 3.85 2.2 3.85 2.05 3.85 1.95 3.8 1.8 3.7 1.6 3.7 L1.2 3.7 1.2 3.55 0.85 3.25 -0.25 3.35 -0.45 3.4 -0.75 3.55 -0.9 3.5 -0.9 3.5 -0.9 3.5 -0.95 3.4 -0.9 3.35 -0.9 3.25 -0.9 3.25 -0.95 3.25 -0.95 3.3 -0.95 3.2 -1.0 3.1 -0.95 2.3 -0.9 2.2 -0.9 2.2 -0.9 2.4 -0.85 2.45 Q-0.65 2.45 -0.45 2.25 -0.25 2.1 -0.15 2.1 L0.1 2.2 -0.1 2.4 Q-0.25 2.5 -0.25 2.6 -0.25 2.75 -0.15 2.8 L0.2 2.8 0.25 2.8 0.3 2.85 0.2 3.0 0.1 3.05 Q0.15 3.15 0.35 3.15 L0.55 3.1 1.05 3.2 1.25 3.2 1.4 3.3 1.7 3.2 2.0 3.15 Q2.0 3.1 1.9 3.1 L1.8 3.0 1.85 2.95 1.9 2.85 1.8 2.75 1.65 2.6 Q1.65 2.55 1.75 2.5 1.85 2.45 2.0 2.45 L2.15 2.45 2.15 2.5 2.25 2.6 2.45 2.55 2.7 2.5 2.8 2.55 2.95 2.55 Q3.15 2.55 3.3 2.3 3.5 2.0 3.7 2.0 L4.15 2.05 4.05 1.9 4.1 1.8 4.15 1.65 4.25 1.3 4.2 1.1" fill="#493925" fill-rule="evenodd" stroke="none"/>
    <path d="M4.6 1.1 L4.55 0.8 4.6 1.1 M-0.9 1.15 L-0.95 1.4 -0.95 1.35 -0.9 1.15" fill="#1b1c1b" fill-rule="evenodd" stroke="none"/>
    <path d="M-0.95 1.35 L-0.95 1.4 -1.0 3.1 -1.0 4.3 -1.05 4.55 -1.05 5.0 -1.1 5.85 -1.1 6.75 -1.15 6.75 -0.95 1.35" fill="#242525" fill-rule="evenodd" stroke="none"/>
    <path d="M4.6 1.55 L4.6 1.1 4.6 1.55 M-1.15 6.75 L-1.1 6.75 -1.1 6.75 -1.1 7.9 -1.15 6.75" fill="#2b3131" fill-rule="evenodd" stroke="none"/>
    <path d="M-1.1 6.75 L-1.1 5.85 -1.05 5.0 -1.05 4.55 -1.1 6.35 -1.1 6.75 -1.1 6.75" fill="#363f3e" fill-rule="evenodd" stroke="none"/>
    <path d="M-0.95 1.4 L-0.9 1.4 -0.9 1.35 -0.7 1.2 Q-0.5 1.0 -0.25 1.0 0.3 1.0 0.6 1.5 L0.9 1.5 Q1.05 1.5 1.1 1.35 1.15 1.2 1.2 1.2 L1.35 1.0 Q1.45 0.9 1.65 0.9 L1.8 0.9 2.0 0.95 2.35 0.95 Q2.7 0.95 2.7 1.05 2.7 1.35 3.5 1.35 L3.65 1.3 3.7 1.2 Q3.75 1.1 4.2 1.1 L4.25 1.3 4.15 1.65 4.1 1.8 4.05 1.9 4.15 2.05 3.7 2.0 Q3.5 2.0 3.3 2.3 3.15 2.55 2.95 2.55 L2.8 2.55 2.7 2.5 2.45 2.55 2.25 2.6 2.15 2.5 2.15 2.45 2.0 2.45 Q1.85 2.45 1.75 2.5 1.65 2.55 1.65 2.6 L1.8 2.75 1.9 2.85 1.85 2.95 1.8 3.0 1.9 3.1 Q2.0 3.1 2.0 3.15 L1.7 3.2 1.4 3.3 1.25 3.2 1.05 3.2 0.55 3.1 0.35 3.15 Q0.15 3.15 0.1 3.05 L0.2 3.0 0.3 2.85 0.25 2.8 0.2 2.8 -0.15 2.8 Q-0.25 2.75 -0.25 2.6 -0.25 2.5 -0.1 2.4 L0.1 2.2 -0.15 2.1 Q-0.25 2.1 -0.45 2.25 -0.65 2.45 -0.85 2.45 L-0.9 2.4 -0.9 2.2 -0.9 2.2 -0.95 2.3 -1.0 3.1 -0.95 3.2 -0.95 3.3 -0.95 3.35 -0.95 3.55 -1.0 4.2 -1.0 4.3 -1.0 3.1 -0.95 1.4" fill="#392d1e" fill-rule="evenodd" stroke="none"/>
    <path d="M4.6 1.1 L4.55 0.8 4.55 0.75 -0.9 0.75 -0.9 1.15 -0.95 1.4 -1.0 3.1 -1.0 4.3 -1.05 4.55 -1.1 6.35 -1.1 6.75 -1.1 7.9 -1.15 8.25 4.85 8.25 M4.65 2.25 L4.6 1.55 4.6 1.1 M4.8 6.35 L4.7 3.55 4.65 2.45 4.65 2.25 M4.8 6.75 L4.8 6.35" fill="none" stroke="#000000" stroke-linecap="round" stroke-linejoin="round" stroke-opacity="0.4509804" stroke-width="1.0"/>
  </g>
</svg>
