<?xml version="1.0" encoding="UTF-8" standalone="no"?>
<svg xmlns:xlink="http://www.w3.org/1999/xlink" height="36.7px" width="3.95px" xmlns="http://www.w3.org/2000/svg">
  <g transform="matrix(1.0, 0.0, 0.0, 1.0, 1.95, 18.35)">
    <path d="M1.95 -18.1 L1.4 -18.2 1.35 -18.2 1.45 -18.25 1.95 -18.35 1.95 -18.1" fill="#684024" fill-rule="evenodd" stroke="none"/>
    <path d="M1.35 -18.2 L1.15 -18.2 1.2 -18.2 1.35 -18.2 1.35 -18.2" fill="#98877a" fill-rule="evenodd" stroke="none"/>
    <path d="M1.35 -18.2 L1.45 -18.25 1.35 -18.2 1.35 -18.2" fill="#755f4e" fill-rule="evenodd" stroke="none"/>
    <path d="M1.95 -15.95 L1.95 -16.25 Q1.9 -16.6 1.9 -16.9 1.5 -17.25 0.75 -17.35 L0.1 -17.4 Q-0.2 -17.45 -0.45 -17.55 L-0.45 -17.55 Q-0.5 -17.85 -0.65 -18.0 L0.35 -18.0 1.15 -18.2 1.35 -18.2 1.4 -18.2 1.95 -18.1 1.95 -15.95 M-1.15 -18.0 L-1.15 -18.0 Q-1.05 -17.85 -1.0 -17.5 L-0.95 -17.0 Q-0.85 -16.8 -0.55 -16.9 L-0.5 -16.8 -0.45 -16.5 -0.4 -16.2 -0.4 -15.45 Q-0.4 -14.45 -0.1 -13.95 L0.45 -13.75 Q0.7 -13.65 0.8 -14.0 1.15 -13.85 1.4 -13.9 1.7 -13.95 1.85 -14.25 L1.95 -14.5 1.95 -12.2 1.75 -11.9 1.25 -11.35 Q1.2 -11.25 1.25 -10.85 L1.3 -10.25 Q1.3 -9.95 1.2 -9.85 1.1 -9.75 0.8 -10.0 0.65 -9.8 0.55 -9.8 L0.35 -9.95 0.15 -10.2 Q0.05 -10.35 -0.1 -10.3 -0.05 -10.1 -0.05 -9.8 -0.1 -9.55 -0.15 -9.4 -0.25 -9.25 -0.35 -9.3 -0.5 -9.35 -0.55 -9.65 -1.05 -9.4 -1.15 -9.95 L-1.2 -10.45 Q-1.25 -10.75 -1.35 -10.9 -1.95 -10.4 -1.95 -9.45 L-1.9 -8.6 Q-1.9 -8.15 -1.95 -7.8 L-1.95 -13.8 Q-1.8 -14.3 -1.5 -14.45 -1.4 -14.65 -1.35 -14.55 L-1.3 -14.3 Q-1.2 -13.85 -1.0 -14.0 -0.7 -14.45 -0.7 -15.1 -0.65 -15.6 -0.85 -16.15 -1.3 -15.95 -1.5 -16.35 -1.65 -16.75 -1.4 -17.05 L-1.7 -17.3 -1.95 -17.6 -1.95 -18.05 -1.15 -18.0" fill="#784723" fill-rule="evenodd" stroke="none"/>
    <path d="M-0.65 -18.0 Q-0.5 -17.85 -0.45 -17.55 L-0.45 -17.55 Q-0.2 -17.45 0.1 -17.4 L0.75 -17.35 Q1.5 -17.25 1.9 -16.9 1.9 -16.6 1.95 -16.25 L1.95 -15.95 1.95 -14.5 1.85 -14.25 Q1.7 -13.95 1.4 -13.9 1.15 -13.85 0.8 -14.0 0.7 -13.65 0.45 -13.75 L-0.1 -13.95 Q-0.4 -14.45 -0.4 -15.45 L-0.4 -16.2 -0.45 -16.5 -0.5 -16.8 -0.55 -16.9 Q-0.85 -16.8 -0.95 -17.0 L-1.0 -17.5 Q-1.05 -17.85 -1.15 -18.0 L-1.15 -18.0 -0.65 -18.0 M-1.95 -17.6 L-1.7 -17.3 -1.4 -17.05 Q-1.65 -16.75 -1.5 -16.35 -1.3 -15.95 -0.85 -16.15 -0.65 -15.6 -0.7 -15.1 -0.7 -14.45 -1.0 -14.0 -1.2 -13.85 -1.3 -14.3 L-1.35 -14.55 Q-1.4 -14.65 -1.5 -14.45 -1.8 -14.3 -1.95 -13.8 L-1.95 -17.6" fill="#693c22" fill-rule="evenodd" stroke="none"/>
    <path d="M-1.95 -7.8 Q-1.9 -8.15 -1.9 -8.6 L-1.95 -9.45 Q-1.95 -10.4 -1.35 -10.9 -1.25 -10.75 -1.2 -10.45 L-1.15 -9.95 Q-1.05 -9.4 -0.55 -9.65 -0.5 -9.35 -0.35 -9.3 -0.25 -9.25 -0.15 -9.4 -0.1 -9.55 -0.05 -9.8 -0.05 -10.1 -0.1 -10.3 0.05 -10.35 0.15 -10.2 L0.35 -9.95 0.55 -9.8 Q0.65 -9.8 0.8 -10.0 1.1 -9.75 1.2 -9.85 1.3 -9.95 1.3 -10.25 L1.25 -10.85 Q1.2 -11.25 1.25 -11.35 L1.75 -11.9 1.95 -12.2 1.95 -8.7 1.95 -8.7 1.6 -8.65 Q1.4 -8.5 1.5 -8.2 1.35 -7.7 1.3 -6.55 L1.25 -5.9 Q1.2 -5.25 1.05 -4.9 1.05 -5.5 0.95 -6.25 L0.7 -7.55 Q0.5 -7.1 0.55 -6.15 0.55 -5.05 0.45 -4.65 L0.35 -4.6 Q0.1 -4.45 -0.25 -4.5 L-0.35 -3.65 -0.4 -3.3 -0.4 -2.75 Q-0.55 -3.15 -0.6 -3.65 L-0.55 -4.6 Q-0.45 -5.8 -0.75 -6.4 L-0.9 -4.7 Q-1.0 -3.75 -1.15 -3.1 L-1.3 -4.4 Q-1.35 -5.15 -1.3 -5.7 -1.55 -5.7 -1.6 -5.35 L-1.6 -4.8 -1.65 -2.7 Q-1.6 -1.45 -1.4 -0.6 -1.15 -0.6 -1.15 -1.0 -1.15 -1.55 -1.1 -1.6 -0.85 -1.6 -0.85 -1.25 L-0.85 -0.75 -0.9 1.15 -0.9 1.25 -0.9 1.8 -0.9 2.15 Q-0.95 3.85 -0.65 5.0 L-0.65 5.0 Q-0.55 5.55 -0.6 6.3 -0.6 7.05 -0.75 8.0 L-0.9 9.5 Q-1.0 10.3 -0.9 10.95 L-0.9 11.2 -1.0 12.15 -1.1 13.35 Q-1.1 14.75 -0.1 15.25 0.0 15.25 0.1 15.1 L0.25 14.75 Q0.4 14.3 0.7 14.5 0.8 14.65 0.9 14.65 L1.0 14.65 1.0 14.6 1.2 14.4 1.35 14.8 Q1.4 15.1 1.5 15.25 1.6 15.05 1.6 14.25 1.6 13.6 1.85 13.35 L1.95 13.0 1.95 17.8 Q1.8 17.95 1.6 18.0 L1.45 18.05 1.0 18.05 1.0 18.0 Q0.85 17.9 0.75 17.55 L0.5 17.1 Q0.35 16.9 0.1 17.0 0.25 17.3 0.3 17.6 0.3 17.95 -0.05 17.95 L-0.05 17.95 -0.6 17.85 -0.95 17.85 Q-1.55 17.8 -1.85 17.65 L-1.85 16.5 -1.9 16.0 -1.95 13.65 -1.95 13.2 -1.95 10.1 -1.95 9.5 -1.9 8.15 -1.9 7.4 -1.95 6.7 -1.95 6.55 Q-1.95 5.65 -1.8 4.95 L-1.95 4.35 -1.95 -7.8" fill="#8f5523" fill-rule="evenodd" stroke="none"/>
    <path d="M-0.4 -3.3 L-0.35 -3.65 -0.25 -4.5 Q0.1 -4.45 0.35 -4.6 0.65 -4.6 0.6 -4.95 0.55 -5.2 0.65 -5.8 0.75 -6.35 0.65 -6.6 0.85 -6.35 0.85 -5.7 0.85 -5.05 1.05 -4.75 1.2 -5.1 1.25 -5.45 L1.25 -5.9 1.3 -6.55 Q1.35 -7.7 1.5 -8.2 1.4 -8.5 1.6 -8.65 L1.95 -8.7 1.95 -8.7 1.95 -7.3 Q1.8 -6.05 1.8 -4.1 1.85 -1.3 1.75 -0.35 1.5 -0.5 1.35 -0.95 L1.0 -1.7 Q0.85 -1.85 0.85 -2.35 0.85 -2.75 0.65 -2.8 0.65 -2.3 0.75 -1.55 0.85 -1.15 0.45 -1.15 L0.1 -1.2 -0.2 -1.1 Q-0.2 -0.7 -0.25 0.35 -0.35 1.25 -0.25 1.8 -0.25 2.05 -0.35 2.15 -0.45 2.35 -0.6 2.2 -0.65 1.55 -0.6 0.05 -0.55 -1.4 -0.6 -2.15 -0.35 -2.45 -0.4 -3.3" fill="#9e5e21" fill-rule="evenodd" stroke="none"/>
    <path d="M1.95 13.0 L1.85 13.35 Q1.6 13.6 1.6 14.25 1.6 15.05 1.5 15.25 1.4 15.1 1.35 14.8 L1.2 14.4 1.0 14.6 1.1 14.3 1.2 14.0 Q1.25 13.9 1.35 14.05 L1.5 14.15 1.5 13.95 Q1.5 13.5 1.6 13.45 1.9 13.25 1.95 12.75 1.95 12.15 1.95 11.85 1.95 11.3 1.95 11.1 L1.95 11.05 1.95 13.0 M0.9 14.65 Q0.8 14.65 0.7 14.5 0.4 14.3 0.25 14.75 L0.1 15.1 Q0.0 15.25 -0.1 15.25 -1.1 14.75 -1.1 13.35 L-1.0 12.15 -0.9 11.2 Q-0.9 12.3 -0.85 13.25 -0.8 13.95 -0.7 14.25 -0.55 14.8 -0.15 15.05 -0.05 15.25 0.05 15.1 0.15 14.95 0.15 14.75 L0.25 14.4 0.6 14.4 Q0.75 14.45 0.85 14.6 L0.9 14.65 M-0.9 10.95 Q-1.0 10.3 -0.9 9.5 L-0.75 8.0 Q-0.6 7.05 -0.6 6.3 L-0.6 6.95 -0.85 10.1 -0.9 10.95 M-0.65 5.0 Q-0.95 3.85 -0.9 2.15 L-0.9 1.8 Q-0.9 2.6 -0.8 3.75 L-0.65 5.0 M-0.9 1.15 L-0.85 -0.75 -0.85 -1.25 Q-0.85 -1.6 -1.1 -1.6 -1.15 -1.55 -1.15 -1.0 -1.15 -0.6 -1.4 -0.6 -1.6 -1.45 -1.65 -2.7 L-1.6 -4.8 -1.6 -5.35 Q-1.55 -5.7 -1.3 -5.7 -1.35 -5.15 -1.3 -4.4 L-1.15 -3.1 Q-1.0 -3.75 -0.9 -4.7 L-0.75 -6.4 Q-0.45 -5.8 -0.55 -4.6 L-0.6 -3.65 Q-0.55 -3.15 -0.4 -2.75 L-0.4 -3.3 Q-0.35 -2.45 -0.6 -2.15 L-0.6 -3.35 Q-0.6 -4.1 -0.65 -4.5 -0.8 -4.7 -0.8 -4.5 -0.9 -3.6 -0.85 -2.0 -0.75 -0.3 -0.8 0.5 L-0.9 1.15 M0.35 -4.6 L0.45 -4.65 Q0.55 -5.05 0.55 -6.15 0.5 -7.1 0.7 -7.55 L0.95 -6.25 Q1.05 -5.5 1.05 -4.9 1.2 -5.25 1.25 -5.9 L1.25 -5.45 Q1.2 -5.1 1.05 -4.75 0.85 -5.05 0.85 -5.7 0.85 -6.35 0.65 -6.6 0.75 -6.35 0.65 -5.8 0.55 -5.2 0.6 -4.95 0.65 -4.6 0.35 -4.6" fill="#965b25" fill-rule="evenodd" stroke="none"/>
    <path d="M1.95 -7.3 L1.95 3.8 Q1.9 4.6 1.95 5.55 L1.95 6.2 Q1.75 6.7 1.65 7.55 L1.5 9.1 Q1.4 9.65 1.5 10.7 1.65 11.75 1.55 12.25 1.5 12.35 1.55 12.85 1.55 13.25 1.35 13.4 1.25 12.95 1.3 12.05 1.4 11.1 1.3 10.7 1.2 10.0 1.35 8.75 1.45 7.35 1.45 6.8 1.2 6.9 1.05 7.2 1.0 7.4 0.9 7.8 0.65 8.85 0.6 11.1 0.5 13.3 0.25 14.4 L0.15 14.75 Q0.35 11.35 0.55 8.6 0.65 7.8 0.8 7.45 0.95 6.75 1.4 6.5 L1.45 4.65 1.45 2.75 Q1.45 2.5 1.55 2.1 L1.7 1.45 Q1.85 0.65 1.55 0.15 L1.25 -0.75 Q1.05 -1.25 0.75 -1.55 0.65 -2.3 0.65 -2.8 0.85 -2.75 0.85 -2.35 0.85 -1.85 1.0 -1.7 L1.35 -0.95 Q1.5 -0.5 1.75 -0.35 1.85 -1.3 1.8 -4.1 1.8 -6.05 1.95 -7.3" fill="#b27030" fill-rule="evenodd" stroke="none"/>
    <path d="M0.75 -1.55 Q1.05 -1.25 1.25 -0.75 L1.55 0.15 Q1.85 0.65 1.7 1.45 L1.55 2.1 Q1.45 2.5 1.45 2.75 L1.45 4.65 1.4 6.5 Q0.95 6.75 0.8 7.45 0.65 7.8 0.55 8.6 0.35 11.35 0.15 14.75 0.15 14.95 0.05 15.1 -0.05 15.25 -0.15 15.05 -0.55 14.8 -0.7 14.25 -0.8 13.95 -0.85 13.25 -0.8 12.8 -0.75 12.0 L-0.65 10.75 Q-0.4 8.95 -0.45 6.45 L-0.6 2.2 Q-0.45 2.35 -0.35 2.15 -0.25 2.05 -0.25 1.8 -0.35 1.25 -0.25 0.35 -0.2 -0.7 -0.2 -1.1 L0.1 -1.2 0.45 -1.15 Q0.85 -1.15 0.75 -1.55" fill="#a56020" fill-rule="evenodd" stroke="none"/>
    <path d="M1.0 14.6 L1.0 14.65 0.9 14.65 0.85 14.6 Q0.75 14.45 0.6 14.4 L0.25 14.4 Q0.5 13.3 0.6 11.1 0.65 8.85 0.9 7.8 1.0 7.4 1.05 7.2 1.2 6.9 1.45 6.8 1.45 7.35 1.35 8.75 1.2 10.0 1.3 10.7 1.4 11.1 1.3 12.05 1.25 12.95 1.35 13.4 1.55 13.25 1.55 12.85 1.5 12.35 1.55 12.25 1.65 11.75 1.5 10.7 1.4 9.65 1.5 9.1 L1.65 7.55 Q1.75 6.7 1.95 6.2 L1.95 11.05 1.95 11.1 Q1.95 11.3 1.95 11.85 1.95 12.15 1.95 12.75 1.9 13.25 1.6 13.45 1.5 13.5 1.5 13.95 L1.5 14.15 1.35 14.05 Q1.25 13.9 1.2 14.0 L1.1 14.3 1.0 14.6" fill="#a35f20" fill-rule="evenodd" stroke="none"/>
    <path d="M1.95 3.8 L1.95 5.55 Q1.9 4.6 1.95 3.8" fill="#925823" fill-rule="evenodd" stroke="none"/>
    <path d="M-1.95 4.35 L-1.8 4.95 Q-1.95 5.65 -1.95 6.55 L-1.95 6.7 -1.9 7.4 -1.9 8.15 -1.95 9.5 -1.95 10.1 -1.95 4.35 M-1.95 13.2 L-1.95 13.65 -1.9 16.0 -1.85 16.5 -1.85 17.65 Q-1.55 17.8 -0.95 17.85 L-0.6 17.85 -0.05 17.95 -0.05 17.95 Q0.3 17.95 0.3 17.6 0.25 17.3 0.1 17.0 0.35 16.9 0.5 17.1 L0.75 17.55 Q0.85 17.9 1.0 18.0 L1.0 18.05 1.45 18.05 1.6 18.0 Q1.8 17.95 1.95 17.8 L1.95 18.3 1.85 18.3 1.75 18.3 1.35 18.3 1.15 18.3 0.0 18.2 -0.1 18.2 -0.5 18.15 -0.75 18.2 -1.2 18.2 -1.6 18.2 -1.95 18.25 -1.95 13.2" fill="#784c26" fill-rule="evenodd" stroke="none"/>
    <path d="M1.75 18.3 L1.45 18.35 1.35 18.3 1.75 18.3" fill="#bcb4af" fill-rule="evenodd" stroke="none"/>
    <path d="M-0.9 11.2 L-0.9 10.95 -0.85 10.1 -0.6 6.95 -0.6 6.3 Q-0.55 5.55 -0.65 5.0 L-0.65 5.0 -0.8 3.75 Q-0.9 2.6 -0.9 1.8 L-0.9 1.25 -0.9 1.15 -0.8 0.5 Q-0.75 -0.3 -0.85 -2.0 -0.9 -3.6 -0.8 -4.5 -0.8 -4.7 -0.65 -4.5 -0.6 -4.1 -0.6 -3.35 L-0.6 -2.15 Q-0.55 -1.4 -0.6 0.05 -0.65 1.55 -0.6 2.2 L-0.45 6.45 Q-0.4 8.95 -0.65 10.75 L-0.75 12.0 Q-0.8 12.8 -0.85 13.25 -0.9 12.3 -0.9 11.2" fill="#a96b2f" fill-rule="evenodd" stroke="none"/>
    <path d="M-0.75 18.2 L-0.75 18.2 -1.1 18.2 -1.2 18.2 -0.75 18.2" fill="#694322" fill-rule="evenodd" stroke="none"/>
    <path d="M-0.75 18.2 L-0.85 18.2 -1.6 18.2 -1.2 18.2 -1.1 18.2 -0.75 18.2" fill="#aa907b" fill-rule="evenodd" stroke="none"/>
    <path d="M1.95 -15.95 L1.95 -18.1 1.95 -18.35 1.45 -18.25 1.35 -18.2 1.2 -18.2 1.15 -18.2 0.35 -18.0 -0.65 -18.0 -1.15 -18.0 -1.95 -18.05 -1.95 -17.6 -1.95 -13.8 -1.95 -7.8 -1.95 4.35 -1.95 10.1 -1.95 13.2 -1.95 18.25 -1.6 18.2 -0.85 18.2 -0.75 18.2 -0.75 18.2 -0.5 18.15 -0.1 18.2 0.0 18.2 1.15 18.3 1.35 18.3 1.45 18.35 1.75 18.3 1.85 18.3 1.95 18.3 1.95 17.8 1.95 13.0 1.95 11.05 1.95 6.2 1.95 5.55 1.95 3.8 1.95 -7.3 1.95 -8.7 1.95 -12.2 1.95 -14.5 1.95 -15.95 Z" fill="none" stroke="#000000" stroke-linecap="round" stroke-linejoin="round" stroke-opacity="0.4509804" stroke-width="1.0"/>
  </g>
</svg>
