<?xml version="1.0" encoding="UTF-8" standalone="no"?>
<svg xmlns:xlink="http://www.w3.org/1999/xlink" height="16.2px" width="17.5px" xmlns="http://www.w3.org/2000/svg">
  <g transform="matrix(1.0, 0.0, 0.0, 1.0, 8.75, 8.1)">
    <path d="M8.65 -6.75 L8.6 -6.4 8.6 -6.4 Q8.4 -6.5 8.35 -6.65 8.35 -6.8 8.4 -7.0 L8.55 -7.8 8.7 -7.8 8.65 -6.75" fill="#373339" fill-rule="evenodd" stroke="none"/>
    <path d="M8.4 -7.0 L8.1 -7.2 6.85 -7.5 5.25 -7.6 3.9 -7.4 Q1.95 -6.95 0.95 -6.8 L0.6 -7.1 Q0.4 -7.25 0.2 -7.2 -1.55 -7.05 -2.4 -6.8 L-4.0 -6.65 -5.65 -6.45 -6.55 -6.35 -7.75 -6.7 -6.8 -6.95 -5.85 -7.0 Q-4.55 -6.95 -3.5 -7.2 L-4.3 -7.45 -4.0 -7.8 -2.7 -7.95 -2.3 -8.0 -3.6 -8.1 8.1 -8.1 8.55 -8.1 8.55 -7.8 8.4 -7.0 M-8.15 -8.1 L-8.1 -8.1 -7.95 -8.0 -7.8 -8.05 -7.2 -8.05 -6.4 -8.05 Q-6.85 -7.9 -7.15 -7.75 -7.55 -7.55 -7.75 -7.25 L-7.8 -7.25 -8.45 -7.4 -8.45 -7.4 -8.6 -7.45 -8.6 -7.45 -8.6 -7.5 -8.45 -7.8 -8.35 -8.1 -8.15 -8.1" fill="#554f64" fill-rule="evenodd" stroke="none"/>
    <path d="M-0.85 -5.0 Q-1.8 -4.85 -2.45 -4.95 L-2.55 -5.35 -2.3 -5.6 Q-2.65 -5.8 -3.2 -5.8 L-4.15 -5.8 -5.5 -5.75 -6.85 -5.65 Q-5.8 -6.25 -4.2 -6.15 L-1.55 -5.75 Q-0.55 -5.7 0.0 -5.7 0.85 -5.75 1.5 -5.95 L4.85 -5.75 5.25 -5.8 6.05 -5.95 Q6.8 -6.05 7.3 -5.95 7.45 -5.95 7.35 -5.75 7.25 -5.6 7.1 -5.6 L6.2 -5.45 5.25 -5.4 5.8 -5.3 5.9 -5.15 5.25 -5.15 3.45 -5.25 2.25 -4.8 Q2.25 -5.1 2.05 -5.15 1.85 -5.2 1.6 -5.0 L0.4 -5.0 -0.85 -5.0 M1.6 -5.15 Q1.05 -5.35 0.5 -5.4 -0.05 -5.4 -0.5 -5.15 0.6 -5.0 1.6 -5.15" fill="#413d4e" fill-rule="evenodd" stroke="none"/>
    <path d="M-5.65 -6.45 Q-4.0 -6.35 -1.65 -6.4 L2.35 -6.55 3.55 -6.7 4.8 -6.9 5.65 -6.7 Q6.2 -6.55 6.55 -6.6 L7.45 -6.8 Q7.9 -6.8 8.1 -6.5 L8.2 -6.4 Q8.4 -6.15 8.2 -5.85 L8.1 -5.7 7.85 -5.3 Q7.9 -5.2 8.1 -5.1 L8.1 -5.1 8.35 -4.95 8.1 -4.95 7.9 -4.9 7.9 -4.9 Q7.95 -4.65 7.85 -4.1 7.85 -3.6 8.05 -3.3 L7.9 -3.25 7.55 -3.15 5.75 -3.25 3.85 -3.2 Q2.75 -3.2 1.95 -3.4 L2.0 -3.6 3.05 -3.6 3.6 -3.6 3.5 -4.85 3.65 -4.85 3.45 -5.25 5.25 -5.15 5.9 -5.15 6.05 -4.95 5.25 -4.95 3.8 -5.0 3.8 -3.45 4.9 -3.4 6.05 -3.5 6.1 -3.5 6.15 -4.85 7.55 -4.85 7.7 -5.3 5.8 -5.3 5.25 -5.4 6.2 -5.45 7.1 -5.6 Q7.25 -5.6 7.35 -5.75 7.45 -5.95 7.3 -5.95 6.8 -6.05 6.05 -5.95 L5.25 -5.8 4.85 -5.75 1.5 -5.95 Q0.85 -5.75 0.0 -5.7 -0.55 -5.7 -1.55 -5.75 L-4.2 -6.15 Q-5.8 -6.25 -6.85 -5.65 L-5.5 -5.75 -4.15 -5.8 -3.2 -5.8 Q-2.65 -5.8 -2.3 -5.6 L-2.55 -5.35 -2.45 -4.95 Q-1.8 -4.85 -0.85 -5.0 L-0.8 -3.4 -2.55 -3.2 -4.3 -3.15 -6.1 -3.1 -7.8 -3.1 -7.85 -3.1 -7.85 -2.45 -7.8 -1.85 -7.8 -1.75 Q-7.75 -1.6 -7.55 -1.6 L-7.25 -1.55 -7.6 -1.5 -7.8 -1.5 -7.95 -1.55 -7.95 -3.4 -7.8 -3.4 -7.05 -3.45 -7.05 -4.95 -7.8 -5.0 -8.5 -5.05 -8.65 -5.95 -8.7 -6.15 -8.7 -6.2 -8.7 -6.2 -8.4 -6.25 -7.8 -6.2 -6.55 -6.35 -5.65 -6.45 M-7.25 -1.55 L-7.25 -1.55 M7.65 -4.0 L7.7 -4.55 6.8 -4.35 6.9 -3.9 Q7.0 -3.65 7.25 -3.7 7.55 -3.7 7.65 -4.0 M-6.4 -8.05 L-7.2 -8.05 -7.8 -8.05 -7.95 -8.0 -8.1 -8.1 -8.15 -8.1 -7.8 -8.1 -3.6 -8.1 -2.3 -8.0 -2.7 -7.95 -6.4 -8.05 M-5.5 -5.15 Q-6.0 -5.25 -7.0 -5.15 -6.8 -4.65 -6.0 -4.8 L-5.65 -4.85 Q-5.4 -4.95 -5.5 -5.15 M-6.1 -4.6 Q-6.55 -4.7 -6.7 -4.25 -6.8 -4.0 -6.75 -3.45 L-6.15 -3.45 -6.1 -4.6 M-1.05 -4.4 L-1.7 -4.35 Q-1.9 -4.3 -1.9 -4.05 L-1.85 -3.65 -1.05 -3.65 -1.05 -4.4 M-5.15 -5.05 Q-5.2 -4.2 -5.15 -3.45 L-2.65 -3.45 -2.65 -5.05 Q-4.2 -5.0 -5.15 -5.05" fill="#292630" fill-rule="evenodd" stroke="none"/>
    <path d="M8.35 -4.95 L8.1 -5.1 8.1 -5.1 Q7.9 -5.2 7.85 -5.3 L8.1 -5.7 8.2 -5.85 Q8.4 -6.15 8.2 -6.4 L8.1 -6.5 Q7.9 -6.8 7.45 -6.8 L6.55 -6.6 Q6.2 -6.55 5.65 -6.7 L4.8 -6.9 3.55 -6.7 2.35 -6.55 -1.65 -6.4 Q-4.0 -6.35 -5.65 -6.45 L-4.0 -6.65 -2.4 -6.8 Q-1.55 -7.05 0.2 -7.2 0.4 -7.25 0.6 -7.1 L0.95 -6.8 Q1.95 -6.95 3.9 -7.4 L5.25 -7.6 6.85 -7.5 8.1 -7.2 8.4 -7.0 Q8.35 -6.8 8.35 -6.65 8.4 -6.5 8.6 -6.4 L8.6 -6.4 8.65 -6.75 Q8.8 -6.4 8.75 -5.85 L8.65 -4.95 8.35 -4.95 M-6.4 -8.05 L-2.7 -7.95 -4.0 -7.8 -4.3 -7.45 -3.5 -7.2 Q-4.55 -6.95 -5.85 -7.0 L-6.8 -6.95 -7.75 -6.7 -8.5 -6.7 -8.5 -6.7 -8.7 -6.75 -8.75 -6.75 -8.75 -6.85 Q-8.75 -7.1 -8.6 -7.45 L-8.6 -7.45 -8.45 -7.4 -8.45 -7.4 -7.8 -7.25 -7.75 -7.25 Q-7.55 -7.55 -7.15 -7.75 -6.85 -7.9 -6.4 -8.05" fill="#494049" fill-rule="evenodd" stroke="none"/>
    <path d="M3.45 -5.25 L3.65 -4.85 3.5 -4.85 2.9 -4.8 Q2.95 -4.2 3.05 -3.6 L2.0 -3.6 2.0 -3.8 2.25 -4.8 3.45 -5.25" fill="#4e4154" fill-rule="evenodd" stroke="none"/>
    <path d="M5.8 -5.3 L7.7 -5.3 7.55 -4.85 6.15 -4.85 6.1 -3.5 6.05 -3.5 6.05 -4.95 5.9 -5.15 5.8 -5.3" fill="#534e61" fill-rule="evenodd" stroke="none"/>
    <path d="M2.0 -3.8 L1.95 -4.95 1.6 -5.0 Q1.85 -5.2 2.05 -5.15 2.25 -5.1 2.25 -4.8 L2.0 -3.8" fill="#201f26" fill-rule="evenodd" stroke="none"/>
    <path d="M1.6 -5.15 Q0.6 -5.0 -0.5 -5.15 -0.05 -5.4 0.5 -5.4 1.05 -5.35 1.6 -5.15" fill="#18171d" fill-rule="evenodd" stroke="none"/>
    <path d="M2.75 -1.55 L2.3 -1.75 1.85 -1.85 0.6 -1.85 -0.6 -1.8 Q-1.05 -1.4 -1.7 -1.3 -1.9 -1.65 -2.35 -1.65 L-3.15 -1.6 -3.1 -1.25 -4.75 -1.1 -6.35 -1.2 -4.35 -1.35 -4.2 -1.7 -4.65 -1.9 Q-4.1 -2.2 -3.4 -2.25 L-2.15 -2.2 Q-1.95 -2.2 -1.75 -2.05 L-1.4 -1.85 -1.1 -2.4 -0.15 -2.35 Q0.4 -2.3 0.8 -2.35 L2.45 -2.5 4.1 -2.45 Q4.75 -2.3 5.45 -2.6 L6.45 -2.5 Q7.0 -2.5 7.3 -2.9 L7.6 -2.9 8.1 -2.35 8.55 -2.0 8.45 -3.2 8.55 -3.3 8.6 -3.4 Q8.7 -2.3 8.6 -1.55 L8.1 -1.55 6.6 -1.55 6.6 5.05 6.65 6.55 Q6.7 7.5 6.65 8.1 5.2 8.05 2.85 8.1 2.9 6.85 2.85 3.9 2.75 1.6 2.8 0.15 L2.85 -0.25 3.1 -0.45 3.25 -0.25 3.3 -0.6 2.9 -0.55 2.9 -0.85 2.9 -1.5 2.75 -1.55 M4.5 -1.1 L4.4 -1.15 4.1 -1.0 Q3.9 -0.7 3.85 -0.25 3.8 0.05 3.8 0.5 L3.85 2.0 3.9 3.5 Q3.9 3.85 4.05 4.5 L4.3 5.5 4.35 5.9 Q4.4 6.15 4.55 6.2 4.95 6.25 5.45 6.0 L5.65 5.35 5.75 4.7 5.3 4.15 5.9 4.0 5.8 4.0 5.85 3.5 5.65 2.6 Q5.15 2.8 4.75 2.85 L4.55 2.45 4.4 2.1 Q4.4 1.85 4.6 1.75 L4.95 1.55 4.95 1.5 5.1 1.55 5.6 1.8 Q5.65 1.4 5.55 0.6 5.5 -0.25 5.55 -0.65 L5.05 -0.95 Q4.75 -1.15 4.5 -1.1 M3.3 0.7 L3.2 2.25 Q3.15 3.15 3.2 3.8 3.3 4.5 3.25 6.1 3.25 6.4 3.35 6.75 L3.65 7.35 Q3.7 6.95 3.65 6.35 L3.55 5.35 Q3.8 2.85 3.3 0.7" fill="#2a2735" fill-rule="evenodd" stroke="none"/>
    <path d="M-1.7 -1.3 Q-1.05 -1.4 -0.6 -1.8 L0.6 -1.85 1.85 -1.85 2.3 -1.75 2.75 -1.55 Q2.15 -1.55 1.1 -1.55 L-0.5 -1.55 -0.55 -0.25 Q-1.0 -0.25 -1.55 -0.45 L-2.5 -0.75 -5.05 -0.9 Q-5.85 -1.0 -6.9 -0.35 L-7.0 0.6 -7.05 -0.3 -7.1 -1.15 -6.35 -1.2 -4.75 -1.1 -3.1 -1.25 -2.4 -1.25 -1.7 -1.3" fill="#131218" fill-rule="evenodd" stroke="none"/>
    <path d="M2.9 -0.85 L2.9 -0.55 3.3 -0.6 3.25 -0.25 3.1 -0.45 2.85 -0.25 2.9 -0.85 M4.1 -1.0 Q4.1 -0.65 4.35 -0.7 4.65 -0.8 4.5 -1.1 4.75 -1.15 5.05 -0.95 L5.55 -0.65 Q5.5 -0.25 5.55 0.6 5.65 1.4 5.6 1.8 L5.1 1.55 5.25 1.0 Q5.3 0.65 5.25 0.4 4.95 0.7 4.55 1.35 L4.95 1.55 4.6 1.75 Q4.4 1.85 4.4 2.1 L4.55 2.45 4.75 2.85 Q5.15 2.8 5.65 2.6 L5.85 3.5 Q5.55 3.35 5.55 3.7 5.5 4.0 5.8 4.0 L5.9 4.0 5.3 4.15 5.75 4.7 5.65 5.35 5.45 6.0 Q4.95 6.25 4.55 6.2 4.4 6.15 4.35 5.9 L4.3 5.5 4.05 4.5 Q3.9 3.85 3.9 3.5 L3.85 2.0 3.8 0.5 Q3.8 0.05 3.85 -0.25 3.9 -0.7 4.1 -1.0" fill="#3f3d53" fill-rule="evenodd" stroke="none"/>
    <path d="M-7.25 -1.55 L-7.55 -1.6 Q-7.75 -1.6 -7.8 -1.75 L-7.8 -1.85 -7.85 -2.45 -7.85 -3.1 -7.8 -3.1 -6.1 -3.1 -4.3 -3.15 -2.55 -3.2 -0.8 -3.4 Q0.45 -3.55 1.95 -3.4 2.75 -3.2 3.85 -3.2 L5.75 -3.25 7.55 -3.15 7.6 -2.9 7.3 -2.9 Q7.0 -2.5 6.45 -2.5 L5.45 -2.6 Q4.75 -2.3 4.1 -2.45 L2.45 -2.5 0.8 -2.35 Q0.4 -2.3 -0.15 -2.35 L-1.1 -2.4 Q-1.35 -2.4 -3.05 -2.45 -4.2 -2.45 -4.95 -2.25 L-6.0 -2.05 -7.1 -2.05 -7.2 -1.55 -7.25 -1.55" fill="#574751" fill-rule="evenodd" stroke="none"/>
    <path d="M4.5 -1.1 Q4.65 -0.8 4.35 -0.7 4.1 -0.65 4.1 -1.0 L4.4 -1.15 4.5 -1.1" fill="#ac9b99" fill-rule="evenodd" stroke="none"/>
    <path d="M3.5 -4.85 L3.6 -3.6 3.05 -3.6 Q2.95 -4.2 2.9 -4.8 L3.5 -4.85" fill="#353343" fill-rule="evenodd" stroke="none"/>
    <path d="M7.65 -4.0 Q7.55 -3.7 7.25 -3.7 7.0 -3.65 6.9 -3.9 L6.8 -4.35 7.7 -4.55 7.65 -4.0" fill="#5b4957" fill-rule="evenodd" stroke="none"/>
    <path d="M7.55 -3.15 L7.9 -3.25 8.05 -3.3 8.1 -3.35 8.65 -3.45 8.55 -3.3 8.45 -3.2 8.55 -2.0 8.1 -2.35 7.6 -2.9 7.55 -3.15" fill="#625866" fill-rule="evenodd" stroke="none"/>
    <path d="M4.95 1.55 L4.55 1.35 Q4.95 0.7 5.25 0.4 5.3 0.65 5.25 1.0 L5.1 1.55 4.95 1.5 4.95 1.55" fill="#958784" fill-rule="evenodd" stroke="none"/>
    <path d="M3.3 0.7 Q3.8 2.85 3.55 5.35 L3.65 6.35 Q3.7 6.95 3.65 7.35 L3.35 6.75 Q3.25 6.4 3.25 6.1 3.3 4.5 3.2 3.8 3.15 3.15 3.2 2.25 L3.3 0.7" fill="#453f45" fill-rule="evenodd" stroke="none"/>
    <path d="M5.8 4.0 Q5.5 4.0 5.55 3.7 5.55 3.35 5.85 3.5 L5.8 4.0" fill="#655d64" fill-rule="evenodd" stroke="none"/>
    <path d="M-6.55 -6.35 L-7.8 -6.2 -8.4 -6.25 -8.7 -6.2 -8.7 -6.2 -8.75 -6.75 -8.7 -6.75 -8.5 -6.7 -8.5 -6.7 -7.75 -6.7 -6.55 -6.35" fill="#383645" fill-rule="evenodd" stroke="none"/>
    <path d="M-7.25 -1.55 L-7.25 -1.55 -7.2 -1.55 -7.2 -1.55 -7.1 -1.15 -7.05 -0.3 -7.0 0.6 -6.9 -0.35 Q-5.85 -1.0 -5.05 -0.9 L-2.5 -0.75 -1.55 -0.45 Q-1.0 -0.25 -0.55 -0.25 L-0.5 0.65 Q-0.5 1.2 -0.55 1.5 -0.8 2.0 -0.8 2.95 -0.8 4.05 -0.9 4.45 L-0.95 2.05 Q-1.35 2.3 -1.45 2.85 L-1.45 3.85 -1.4 5.3 Q-1.35 6.25 -1.3 6.8 -1.2 6.5 -1.2 5.65 -1.25 4.95 -0.95 4.6 L-0.85 6.25 Q-0.8 7.3 -0.55 7.9 L-0.5 8.05 -7.2 8.1 -7.2 1.0 -7.2 -0.25 Q-7.2 -1.0 -7.25 -1.55 M-3.55 -0.65 L-4.65 -0.7 -5.75 -0.6 -6.05 -0.1 -6.35 0.4 -6.25 1.25 Q-6.2 1.75 -6.05 2.0 L-6.1 2.35 -5.45 2.4 -6.2 2.6 -6.15 3.8 -6.1 5.05 -6.1 5.85 Q-6.05 6.3 -5.9 6.6 L-5.75 7.05 Q-5.65 7.35 -5.45 7.4 L-5.05 7.45 -4.6 7.35 -3.85 7.25 -3.1 7.15 Q-2.5 6.95 -1.9 6.5 L-1.85 5.3 -1.8 4.15 Q-1.95 3.5 -2.0 2.3 -2.05 1.05 -2.2 0.45 L-2.3 -0.15 Q-2.4 -0.5 -2.65 -0.6 L-3.1 -0.65 -3.55 -0.65 M-6.6 2.65 Q-6.7 3.15 -6.8 4.0 L-6.95 5.35 Q-7.05 6.05 -7.05 7.15 L-6.45 7.5 Q-6.35 7.3 -6.3 7.05 -6.3 6.35 -6.35 5.1 L-6.4 3.15 Q-6.4 2.9 -6.6 2.65" fill="#292837" fill-rule="evenodd" stroke="none"/>
    <path d="M-1.1 -2.4 L-1.4 -1.85 -1.75 -2.05 Q-1.95 -2.2 -2.15 -2.2 L-3.4 -2.25 Q-4.1 -2.2 -4.65 -1.9 L-4.2 -1.7 -4.35 -1.35 -6.35 -1.2 -7.1 -1.15 -7.2 -1.55 -7.2 -1.55 -7.1 -2.05 -6.0 -2.05 -4.95 -2.25 Q-4.2 -2.45 -3.05 -2.45 -1.35 -2.4 -1.1 -2.4" fill="#433c47" fill-rule="evenodd" stroke="none"/>
    <path d="M-6.1 -4.6 L-6.15 -3.45 -6.75 -3.45 Q-6.8 -4.0 -6.7 -4.25 -6.55 -4.7 -6.1 -4.6" fill="#47455d" fill-rule="evenodd" stroke="none"/>
    <path d="M-1.05 -4.4 L-1.05 -3.65 -1.85 -3.65 -1.9 -4.05 Q-1.9 -4.3 -1.7 -4.35 L-1.05 -4.4" fill="#5f454f" fill-rule="evenodd" stroke="none"/>
    <path d="M-5.5 -5.15 Q-5.4 -4.95 -5.65 -4.85 L-6.0 -4.8 Q-6.8 -4.65 -7.0 -5.15 -6.0 -5.25 -5.5 -5.15" fill="#4b475b" fill-rule="evenodd" stroke="none"/>
    <path d="M-6.05 2.0 Q-6.2 1.75 -6.25 1.25 L-6.35 0.4 -6.05 -0.1 -5.75 -0.6 -4.65 -0.7 -3.55 -0.65 -3.5 0.05 -3.45 0.3 -3.45 0.5 -3.45 0.6 -3.4 0.65 -3.4 1.1 -4.15 1.1 -3.8 0.15 Q-4.1 0.35 -4.35 0.7 L-4.8 1.35 -3.95 1.4 -5.05 1.65 -4.95 0.4 Q-5.6 0.4 -6.25 0.45 L-5.7 0.75 Q-5.4 0.95 -5.35 1.25 L-6.0 1.35 -6.0 1.65 -6.05 2.0" fill="#4d4158" fill-rule="evenodd" stroke="none"/>
    <path d="M-3.55 -0.65 L-3.1 -0.65 -2.65 -0.6 Q-2.4 -0.5 -2.3 -0.15 L-2.2 0.45 Q-2.05 1.05 -2.0 2.3 -1.95 3.5 -1.8 4.15 L-1.85 5.3 -1.9 6.5 Q-2.5 6.95 -3.1 7.15 L-3.85 7.25 -4.6 7.35 -5.05 7.45 -5.45 7.4 Q-5.65 7.35 -5.75 7.05 L-5.9 6.6 Q-5.45 6.9 -4.8 6.85 L-3.7 6.7 Q-3.45 6.7 -3.2 6.5 L-2.8 6.1 Q-2.65 5.95 -2.7 5.65 L-2.75 5.25 -3.15 5.25 -3.15 4.8 Q-2.9 4.65 -2.95 4.25 L-3.1 3.7 -3.35 3.65 -4.05 3.6 Q-3.45 3.4 -2.55 3.75 -2.75 3.2 -3.2 2.75 L-3.15 3.35 -3.65 3.3 -3.6 2.8 -2.9 2.7 -2.9 1.65 -3.25 1.7 -3.0 2.65 -3.35 2.55 Q-3.55 2.45 -3.55 2.3 L-3.45 1.8 -3.5 1.35 -2.5 1.5 Q-2.7 0.65 -3.45 0.5 L-3.45 0.3 -3.5 0.05 -3.55 -0.65" fill="#3f384a" fill-rule="evenodd" stroke="none"/>
    <path d="M-3.1 -1.25 L-3.15 -1.6 -2.35 -1.65 Q-1.9 -1.65 -1.7 -1.3 L-2.4 -1.25 -3.1 -1.25" fill="#4d3b4e" fill-rule="evenodd" stroke="none"/>
    <path d="M-3.95 1.4 L-4.8 1.35 -4.35 0.7 Q-4.1 0.35 -3.8 0.15 L-4.15 1.1 -3.4 1.1 -3.4 0.65 -3.45 0.6 -3.45 0.5 Q-2.7 0.65 -2.5 1.5 L-3.5 1.35 -3.45 1.8 -3.55 2.3 Q-3.55 2.45 -3.35 2.55 L-3.0 2.65 -3.25 1.7 -2.9 1.65 -2.9 2.7 -3.6 2.8 -3.65 3.3 -3.15 3.35 -3.2 2.75 Q-2.75 3.2 -2.55 3.75 -3.45 3.4 -4.05 3.6 L-4.15 3.65 -4.9 3.6 Q-4.75 3.4 -4.45 3.35 L-3.9 3.25 -3.9 2.8 -4.7 2.75 -4.65 1.75 -3.9 1.75 -3.85 1.4 -3.95 1.4 M-3.85 2.55 L-3.85 1.95 -4.4 2.0 -4.45 2.55 -3.85 2.55" fill="#242431" fill-rule="evenodd" stroke="none"/>
    <path d="M-0.95 4.6 Q-1.25 4.95 -1.2 5.65 -1.2 6.5 -1.3 6.8 -1.35 6.25 -1.4 5.3 L-1.45 3.85 -1.45 2.85 Q-1.35 2.3 -0.95 2.05 L-0.9 4.45 -0.95 4.6" fill="#434055" fill-rule="evenodd" stroke="none"/>
    <path d="M-0.55 1.5 Q-0.45 4.85 -0.55 7.9 -0.8 7.3 -0.85 6.25 L-0.95 4.6 -0.9 4.45 Q-0.8 4.05 -0.8 2.95 -0.8 2.0 -0.55 1.5" fill="#1c1a24" fill-rule="evenodd" stroke="none"/>
    <path d="M-5.9 6.6 Q-6.05 6.3 -6.1 5.85 L-6.1 5.05 -6.15 3.8 -6.2 2.6 -5.45 2.4 -5.25 2.45 -5.35 3.5 -6.05 3.6 -5.65 3.85 -5.65 3.9 -5.55 3.85 Q-5.15 3.7 -5.05 3.1 L-5.0 2.1 -5.8 2.05 -5.8 1.7 -5.05 1.65 -3.95 1.4 -3.85 1.4 -3.9 1.75 -4.65 1.75 -4.7 2.75 -3.9 2.8 -3.9 3.25 -4.45 3.35 Q-4.75 3.4 -4.9 3.6 L-4.15 3.65 Q-4.0 3.8 -3.8 3.8 -3.55 3.85 -3.35 3.65 L-3.1 3.7 -2.95 4.25 Q-2.9 4.65 -3.15 4.8 L-4.2 4.55 Q-4.8 4.45 -5.15 4.85 L-4.2 4.85 Q-3.65 4.9 -3.4 5.2 -3.4 5.55 -3.85 5.7 L-4.6 5.95 -3.2 5.85 -3.15 5.25 -2.75 5.25 -2.7 5.65 Q-2.65 5.95 -2.8 6.1 L-3.2 6.5 Q-3.45 6.7 -3.7 6.7 L-4.8 6.85 Q-5.45 6.9 -5.9 6.6" fill="#5b4851" fill-rule="evenodd" stroke="none"/>
    <path d="M-5.45 2.4 L-6.1 2.35 -6.0 1.65 -6.0 1.35 -5.35 1.25 Q-5.4 0.95 -5.7 0.75 L-6.25 0.45 Q-5.6 0.4 -4.95 0.4 L-5.05 1.65 -5.8 1.7 -5.8 2.05 -5.0 2.1 -5.05 3.1 Q-5.15 3.7 -5.55 3.85 L-5.65 3.85 -6.05 3.6 -5.35 3.5 -5.25 2.45 -5.45 2.4" fill="#1b1b23" fill-rule="evenodd" stroke="none"/>
    <path d="M-3.85 2.55 L-4.45 2.55 -4.4 2.0 -3.85 1.95 -3.85 2.55" fill="#554051" fill-rule="evenodd" stroke="none"/>
    <path d="M-4.05 3.6 L-3.35 3.65 Q-3.55 3.85 -3.8 3.8 -4.0 3.8 -4.15 3.65 L-4.05 3.6" fill="#8b7576" fill-rule="evenodd" stroke="none"/>
    <path d="M-3.15 4.8 L-3.15 5.25 -3.2 5.85 -4.6 5.95 -3.85 5.7 Q-3.4 5.55 -3.4 5.2 -3.65 4.9 -4.2 4.85 L-5.15 4.85 Q-4.8 4.45 -4.2 4.55 L-3.15 4.8" fill="#3e3644" fill-rule="evenodd" stroke="none"/>
    <path d="M-5.55 3.85 L-5.65 3.9 -5.65 3.85 -5.55 3.85" fill="#917a80" fill-rule="evenodd" stroke="none"/>
    <path d="M-6.6 2.65 Q-6.4 2.9 -6.4 3.15 L-6.35 5.1 Q-6.3 6.35 -6.3 7.05 -6.35 7.3 -6.45 7.5 L-7.05 7.15 Q-7.05 6.05 -6.95 5.35 L-6.8 4.0 Q-6.7 3.15 -6.6 2.65" fill="#49414c" fill-rule="evenodd" stroke="none"/>
    <path d="M-7.8 -5.0 L-7.05 -4.95 -7.05 -3.45 -7.8 -3.4 M-7.8 -1.5 L-7.6 -1.5 -7.25 -1.55 Q-7.2 -1.0 -7.2 -0.25 L-7.2 1.0 -7.2 8.1 -0.5 8.05 -0.55 7.9 Q-0.45 4.85 -0.55 1.5 -0.5 1.2 -0.5 0.65 L-0.55 -0.25 -0.5 -1.55 1.1 -1.55 Q2.15 -1.55 2.75 -1.55 L2.9 -1.5 2.9 -0.85 2.85 -0.25 2.8 0.15 Q2.75 1.6 2.85 3.9 2.9 6.85 2.85 8.1 5.2 8.05 6.65 8.1 6.7 7.5 6.65 6.55 L6.6 5.05 6.6 -1.55 8.1 -1.55 M-0.8 -3.4 L-0.85 -5.0 0.4 -5.0 1.6 -5.0 1.95 -4.95 2.0 -3.8 2.0 -3.6 1.95 -3.4 Q0.45 -3.55 -0.8 -3.4 M6.05 -3.5 L4.9 -3.4 3.8 -3.45 3.8 -5.0 5.25 -4.95 6.05 -4.95 6.05 -3.5 M8.05 -3.3 Q7.85 -3.6 7.85 -4.1 7.95 -4.65 7.9 -4.9 L7.9 -4.9 8.1 -4.95 M8.1 -3.35 L8.05 -3.3 M-3.6 -8.1 L-7.8 -8.1 M-5.15 -5.05 Q-4.2 -5.0 -2.65 -5.05 L-2.65 -3.45 -5.15 -3.45 Q-5.2 -4.2 -5.15 -5.05 M-3.6 -8.1 L8.1 -8.1" fill="none" stroke="#000000" stroke-linecap="round" stroke-linejoin="round" stroke-opacity="0.4509804" stroke-width="1.0"/>
  </g>
</svg>
