<?xml version="1.0" encoding="UTF-8" standalone="no"?>
<svg xmlns:xlink="http://www.w3.org/1999/xlink" height="24.8px" width="125.2px" xmlns="http://www.w3.org/2000/svg">
  <g transform="matrix(1.0, 0.0, 0.0, 1.0, 62.6, 16.65)">
    <path d="M12.05 -10.15 L12.9 -9.45 Q13.4 -9.15 14.15 -9.15 L14.45 -9.2 14.45 -8.95 Q14.45 -8.4 14.75 -7.8 15.35 -6.75 16.65 -6.75 17.8 -6.75 18.4 -7.65 L18.6 -8.0 22.05 -7.7 Q22.65 -6.75 23.85 -6.75 24.85 -6.75 25.45 -7.4 L29.6 -7.1 29.55 -6.75 Q29.55 -6.25 29.9 -5.65 30.5 -4.6 31.75 -4.6 32.9 -4.6 33.5 -5.45 33.95 -6.05 33.95 -6.75 L33.85 -7.25 34.0 -7.35 Q34.1 -7.05 34.25 -6.7 34.85 -5.65 36.15 -5.65 37.25 -5.65 37.85 -6.55 L38.1 -6.95 42.25 -7.15 Q42.25 -7.05 42.45 -6.75 L42.65 -6.4 Q40.55 -4.7 35.65 -4.5 34.45 -4.4 33.15 -4.45 L33.1 -4.25 32.7 -3.3 Q33.55 -2.95 34.6 -2.35 36.35 -1.4 37.25 -1.1 38.65 -0.6 40.4 -0.5 40.3 -0.2 40.3 0.2 40.3 0.75 40.6 1.35 40.95 1.95 41.55 2.2 L40.85 2.2 Q38.65 2.2 37.05 1.65 36.4 1.4 35.3 0.8 35.45 0.4 35.45 0.0 35.45 -0.85 34.8 -1.45 34.15 -2.0 33.25 -2.1 32.35 -2.15 31.75 -1.65 31.15 -1.2 31.1 -0.25 30.5 0.55 29.9 1.2 29.75 0.7 29.3 0.3 L29.25 0.25 Q29.9 -0.45 30.35 -1.25 L27.5 -1.45 27.4 -1.45 Q27.25 -1.85 26.9 -2.15 L26.4 -2.5 Q26.7 -2.7 26.9 -3.05 27.3 -3.6 27.35 -4.25 L27.5 -4.25 Q29.5 -4.25 31.1 -3.8 L31.25 -4.55 30.75 -4.55 30.15 -4.6 27.35 -4.5 Q27.3 -5.3 26.7 -5.9 26.05 -6.45 25.2 -6.5 24.3 -6.55 23.65 -6.05 23.0 -5.5 23.0 -4.45 L21.9 -4.25 Q21.85 -5.1 21.2 -5.65 20.6 -6.2 19.7 -6.25 18.8 -6.35 18.2 -5.85 17.5 -5.25 17.5 -4.15 17.5 -3.6 17.85 -3.0 18.45 -1.95 19.7 -1.95 20.85 -1.95 21.45 -2.85 21.7 -3.15 21.8 -3.5 L23.1 -3.8 Q23.15 -3.5 23.3 -3.2 23.6 -2.7 24.05 -2.45 L23.9 -2.35 Q23.35 -1.9 23.25 -1.05 21.05 -0.65 18.9 0.2 L18.45 0.4 Q18.25 2.0 18.05 3.1 L18.05 3.25 18.85 3.2 Q18.85 3.7 19.15 4.2 19.35 4.55 19.65 4.8 L17.25 5.35 16.4 5.6 16.15 5.35 Q15.55 4.8 14.65 4.8 13.75 4.8 13.15 5.35 12.6 5.8 12.5 6.55 L10.7 6.95 Q9.05 6.95 7.9 6.1 6.95 5.45 6.95 5.05 6.95 4.7 7.25 4.3 7.6 3.8 8.0 3.75 14.5 5.4 16.4 2.0 16.65 1.6 16.8 1.15 L16.3 1.35 Q15.1 1.85 14.5 1.85 10.9 1.85 1.45 -0.75 1.4 -0.2 1.15 0.7 0.7 2.4 -0.05 3.85 -2.2 8.15 -5.7 8.15 -8.75 8.15 -10.1 7.4 -10.65 7.1 -11.05 6.6 L-11.4 6.25 -11.4 6.15 Q-11.4 5.1 -12.05 4.45 -12.4 4.15 -12.75 4.05 L-12.7 3.95 Q-12.3 3.4 -12.25 2.8 L-11.85 3.25 Q-10.7 4.5 -9.6 5.1 -8.0 5.95 -5.7 5.95 -4.75 5.95 -3.9 5.55 -3.4 5.9 -2.6 5.9 -1.5 5.9 -0.9 5.05 -0.55 4.5 -0.45 4.0 -0.2 3.8 0.0 3.5 0.45 2.85 0.45 2.15 0.45 1.15 -0.25 0.55 L-0.35 0.45 -0.2 -0.25 -0.9 0.15 Q-1.3 0.0 -1.75 0.0 -2.65 0.0 -3.25 0.55 -3.55 0.8 -3.75 1.2 -4.8 1.45 -5.85 1.45 -8.35 1.45 -12.05 0.25 -11.8 0.1 -11.6 -0.2 -11.2 -0.8 -11.15 -1.4 -8.05 -0.45 -5.9 -0.45 -3.55 -0.45 -1.15 -1.5 -7.95 -3.55 -8.35 -3.55 -10.1 -3.55 -11.1 -3.25 L-11.8 -2.95 -11.85 -3.0 Q-12.45 -3.55 -13.35 -3.65 -14.25 -3.7 -14.85 -3.2 -15.55 -2.65 -15.55 -1.5 -15.55 -1.2 -15.45 -0.9 -16.45 -1.3 -17.55 -1.75 L-19.95 -1.65 -19.9 -1.75 Q-19.5 -2.35 -19.5 -3.05 -19.5 -4.1 -20.15 -4.7 -20.8 -5.3 -21.7 -5.3 -22.55 -5.3 -23.2 -4.7 L-23.35 -4.55 Q-23.65 -4.5 -23.85 -4.4 L-23.45 -4.4 Q-23.85 -3.85 -23.85 -3.05 -23.85 -2.5 -23.55 -1.9 L-23.4 -1.65 -24.05 -1.65 Q-24.2 -2.05 -24.55 -2.35 -25.2 -2.9 -26.05 -3.0 -26.95 -3.05 -27.55 -2.55 -28.25 -2.0 -28.25 -0.9 -28.25 -0.3 -27.9 0.25 L-27.9 0.3 Q-29.0 1.0 -29.65 1.3 -31.5 2.1 -33.8 1.7 -34.25 1.5 -34.75 1.5 L-35.15 1.35 -37.2 1.35 -38.3 2.85 Q-39.2 4.15 -39.95 5.0 -42.25 7.75 -44.0 7.75 -44.75 7.75 -45.55 7.4 L-45.55 7.4 Q-44.4 7.4 -43.8 6.55 -43.45 6.05 -43.4 5.5 -42.7 5.3 -42.2 4.8 -41.95 4.55 -41.65 4.2 -41.25 4.35 -40.7 4.35 -39.7 4.35 -39.1 3.6 -38.5 2.95 -38.5 2.2 -38.5 1.5 -38.85 0.95 L-38.35 0.7 Q-36.45 -0.25 -33.2 -0.25 -32.4 -0.25 -30.3 -1.2 L-30.3 -1.25 Q-30.3 -1.85 -30.1 -2.65 -31.3 -3.2 -31.8 -4.05 -32.2 -5.1 -32.5 -5.55 -32.2 -5.75 -31.95 -6.1 -31.5 -6.75 -31.5 -7.4 -31.5 -8.25 -31.95 -8.8 -31.0 -8.3 -29.85 -7.45 -30.0 -7.05 -30.0 -6.55 -30.0 -6.0 -29.65 -5.4 -29.1 -4.35 -27.8 -4.35 -26.65 -4.35 -26.05 -5.25 L-25.9 -5.55 -25.75 -5.6 -25.85 -5.65 Q-25.65 -6.1 -25.65 -6.55 -25.65 -7.6 -26.3 -8.2 -26.85 -8.7 -27.55 -8.75 -28.15 -10.35 -28.55 -11.25 -29.6 -13.45 -30.95 -13.45 L-32.05 -12.95 Q-33.25 -12.35 -34.0 -12.15 L-41.4 -12.0 Q-41.45 -11.7 -41.35 -9.95 -41.25 -8.6 -41.3 -7.65 -40.8 -7.85 -40.2 -8.1 -37.45 -9.2 -34.8 -9.4 L-35.2 -9.1 Q-35.9 -8.45 -35.9 -7.4 -35.9 -6.95 -35.65 -6.4 -36.25 -6.3 -36.75 -6.0 -37.2 -5.7 -37.95 -4.9 -38.7 -4.15 -39.2 -3.85 -40.0 -3.35 -41.05 -3.35 -42.0 -3.35 -42.55 -3.75 -43.25 -3.2 -44.25 -3.2 L-44.9 -3.1 Q-44.95 -4.1 -45.55 -4.7 -46.2 -5.3 -47.1 -5.25 -47.95 -5.25 -48.6 -4.65 -49.1 -4.15 -49.25 -3.35 -51.3 -3.95 -52.45 -5.35 L-52.55 -5.75 -52.3 -6.3 Q-52.15 -6.55 -51.7 -6.55 L-49.4 -6.2 -49.4 -6.85 Q-48.75 -7.0 -48.3 -7.55 L-48.25 -7.55 Q-48.25 -7.15 -48.35 -6.8 L-48.4 -6.05 -48.45 -6.05 -46.7 -5.75 Q-46.2 -5.45 -45.55 -5.45 L-44.85 -5.55 -43.7 -5.6 Q-43.65 -6.0 -43.65 -6.55 -43.35 -7.1 -43.35 -7.65 -43.35 -8.4 -43.7 -8.9 L-43.7 -10.15 Q-43.65 -12.4 -42.4 -13.85 -41.85 -13.1 -40.7 -13.1 -39.6 -13.1 -38.95 -14.0 -38.8 -14.25 -38.7 -14.5 L-37.3 -14.5 Q-36.7 -13.55 -35.45 -13.55 -34.3 -13.55 -33.7 -14.45 -33.4 -14.85 -33.3 -15.3 -31.55 -16.95 -29.3 -14.75 -28.35 -13.85 -27.5 -12.45 -26.85 -11.35 -26.6 -10.7 -26.3 -9.9 -25.75 -9.2 L-25.55 -9.25 Q-25.85 -8.75 -25.85 -8.1 -25.85 -7.5 -25.55 -6.95 -24.95 -5.9 -23.65 -5.9 -22.6 -5.9 -21.85 -6.8 -21.65 -7.05 -21.5 -7.3 L-14.5 -6.8 Q-14.65 -6.4 -14.65 -5.9 -14.65 -5.35 -14.3 -4.75 -13.75 -3.7 -12.5 -3.7 -11.35 -3.7 -10.7 -4.6 -10.3 -5.25 -10.3 -5.9 -10.3 -6.25 -10.35 -6.55 -8.3 -6.7 -7.7 -7.15 -6.7 -7.8 -6.45 -7.9 -5.65 -8.25 -4.1 -8.5 L-4.6 -8.9 Q-4.05 -9.1 -3.7 -9.6 -3.45 -10.0 -3.35 -10.4 L-2.25 -9.35 -1.85 -8.85 -0.3 -9.1 Q0.05 -8.45 0.7 -8.2 0.45 -7.7 0.45 -7.0 0.45 -6.45 0.75 -5.9 L0.65 -5.9 Q-0.25 -5.9 -0.85 -5.35 L-0.9 -5.3 Q-1.05 -5.55 -1.2 -5.8 L-1.2 -5.85 -1.7 -5.95 -3.35 -5.95 Q-3.45 -6.55 -3.95 -6.95 -4.6 -7.5 -5.45 -7.6 -6.35 -7.65 -6.95 -7.15 -7.65 -6.6 -7.65 -5.45 -7.65 -4.9 -7.3 -4.3 -6.75 -3.25 -5.45 -3.25 -4.3 -3.25 -3.7 -4.15 -3.45 -4.5 -3.35 -4.85 L-3.1 -4.7 Q-2.2 -4.2 -1.55 -3.95 L-1.55 -3.7 Q-1.55 -3.15 -1.2 -2.55 -0.6 -1.5 0.65 -1.5 1.8 -1.5 2.4 -2.4 2.85 -3.05 2.85 -3.7 L2.8 -3.95 2.9 -4.05 4.25 -5.25 3.95 -5.2 4.4 -5.65 Q4.8 -6.3 4.8 -7.0 4.8 -7.85 4.15 -8.5 3.75 -8.8 3.3 -9.0 3.7 -9.6 3.7 -10.3 3.7 -10.95 3.3 -11.5 L4.05 -12.35 Q5.55 -13.9 8.15 -13.9 12.85 -13.9 15.5 -10.9 15.3 -10.8 15.1 -10.65 14.5 -10.1 14.45 -9.2 13.2 -10.7 11.6 -11.35 11.5 -12.15 10.9 -12.65 10.3 -13.2 9.4 -13.3 8.5 -13.35 7.9 -12.85 7.4 -12.45 7.3 -11.8 5.25 -11.5 4.15 -10.25 4.45 -10.4 4.7 -10.55 5.25 -10.95 5.45 -11.0 L6.35 -11.1 6.4 -11.2 Q6.6 -11.2 6.75 -11.1 L7.2 -11.15 Q7.2 -10.6 7.55 -10.0 8.1 -8.95 9.4 -8.95 10.55 -8.95 11.15 -9.85 11.4 -10.15 11.5 -10.5 L12.05 -10.15 M1.0 -12.4 Q0.45 -12.3 0.0 -11.95 L-0.1 -11.85 Q-0.45 -13.25 -1.0 -13.95 -1.3 -14.3 -1.7 -14.5 -1.3 -15.1 -1.3 -15.75 L-1.35 -16.0 Q-0.05 -14.8 1.0 -12.4 M7.85 -8.2 L9.75 -8.45 7.6 -8.4 7.6 -8.2 7.85 -8.2 M6.75 -8.4 L6.3 -8.35 Q5.65 -8.3 5.45 -8.1 L5.35 -8.05 6.6 -8.1 6.75 -8.4 M11.15 -4.3 L11.25 -4.1 Q11.85 -3.05 13.1 -3.05 L13.35 -3.05 Q13.35 -2.85 13.35 -2.6 13.35 -2.15 13.55 -1.7 L11.3 -1.7 Q11.4 -2.05 11.4 -2.4 11.4 -3.25 10.7 -3.9 10.4 -4.15 10.05 -4.3 L11.15 -4.3 M6.55 -6.1 Q6.55 -5.8 6.65 -5.45 L6.65 -5.45 6.9 -4.95 Q7.2 -4.4 7.75 -4.15 L7.65 -4.1 Q7.15 -3.65 7.0 -2.9 6.75 -3.1 6.55 -3.3 5.8 -3.85 5.45 -4.5 4.55 -3.6 3.45 -2.7 L7.0 -2.3 Q7.0 -1.8 7.3 -1.25 7.9 -0.2 9.2 -0.2 10.35 -0.2 10.95 -1.05 L11.2 -1.5 11.45 -1.45 Q12.95 -0.95 14.15 -0.85 14.7 -0.45 15.55 -0.45 16.7 -0.45 17.3 -1.3 17.75 -1.9 17.75 -2.6 17.75 -3.5 17.05 -4.1 L16.7 -4.35 16.25 -5.9 16.2 -5.95 15.1 -6.15 Q14.95 -6.45 14.65 -6.75 14.0 -7.3 13.15 -7.35 12.25 -7.45 11.6 -6.95 11.25 -6.65 11.1 -6.2 L10.95 -6.2 Q10.9 -7.0 10.25 -7.6 9.6 -8.15 8.75 -8.25 7.85 -8.3 7.25 -7.8 6.55 -7.25 6.55 -6.1 M26.05 -15.0 L27.6 -14.55 27.6 -14.45 27.65 -14.05 Q27.75 -13.65 27.9 -13.3 28.5 -12.25 29.8 -12.25 L30.4 -12.3 Q30.2 -12.2 30.0 -12.05 29.7 -11.7 29.5 -11.3 27.0 -12.0 25.25 -12.2 L25.4 -12.45 Q25.8 -13.05 25.8 -13.75 25.8 -14.65 25.35 -15.2 L26.05 -15.0 M48.3 -3.35 L48.5 -2.8 Q49.0 -1.9 49.95 -1.75 48.7 -1.2 47.6 -0.45 L45.6 0.9 Q45.05 1.3 44.4 1.55 L44.45 1.5 Q44.9 0.9 44.9 0.2 44.9 -0.75 44.25 -1.35 45.5 -1.85 47.05 -2.65 47.55 -2.95 48.3 -3.35 M47.0 -10.25 Q46.85 -10.85 46.35 -11.3 45.7 -11.85 44.8 -11.85 44.05 -11.85 43.5 -11.5 42.2 -11.9 41.7 -11.9 L40.25 -11.85 39.4 -11.75 38.9 -11.15 42.55 -10.15 Q42.5 -9.9 42.5 -9.6 42.5 -9.05 42.8 -8.45 43.4 -7.4 44.75 -7.4 46.0 -7.4 46.65 -8.3 46.9 -8.65 47.0 -9.05 L47.05 -9.05 50.0 -8.35 Q50.05 -8.0 50.3 -7.6 50.85 -6.55 52.1 -6.55 53.3 -6.55 53.9 -7.4 54.3 -8.05 54.3 -8.75 L54.3 -8.75 55.1 -8.35 Q54.75 -7.8 54.75 -7.0 L54.8 -6.6 Q54.9 -6.2 55.05 -5.85 55.65 -4.8 56.9 -4.8 58.05 -4.8 58.7 -5.65 L58.9 -6.05 Q62.6 -4.85 62.6 -3.9 62.6 -3.1 61.55 -2.95 L56.05 -3.15 Q55.95 -4.05 55.3 -4.55 54.7 -5.05 53.75 -4.95 53.05 -4.9 52.5 -4.5 52.3 -5.0 51.85 -5.45 51.25 -6.0 50.35 -6.05 49.55 -6.1 49.0 -5.7 45.75 -6.35 43.4 -7.1 L38.15 -8.75 Q37.95 -9.2 37.6 -9.55 37.0 -10.1 36.1 -10.1 L35.85 -10.1 35.9 -10.5 Q35.9 -11.55 35.2 -12.15 L35.0 -12.3 36.35 -11.9 Q36.6 -12.45 36.85 -12.75 38.3 -14.7 42.1 -13.9 45.3 -13.2 50.75 -10.55 L50.6 -10.45 Q50.05 -9.95 49.95 -9.0 L47.0 -10.25 M19.7 -11.35 L19.9 -11.6 Q20.35 -12.25 20.35 -12.9 20.35 -13.5 20.05 -13.95 20.9 -14.65 21.75 -15.0 21.45 -14.45 21.45 -13.75 21.45 -13.25 21.8 -12.65 21.9 -12.4 22.1 -12.25 20.7 -12.0 19.7 -11.35 M18.15 -10.7 Q18.75 -10.7 19.2 -10.95 18.8 -10.6 18.5 -10.2 L18.15 -10.65 18.05 -10.7 18.15 -10.7 M31.5 -13.1 L31.65 -13.35 33.75 -12.7 33.7 -12.7 Q33.0 -12.7 32.5 -12.35 32.05 -12.6 31.55 -12.6 L30.9 -12.5 Q31.25 -12.75 31.5 -13.1 M24.45 3.75 Q24.2 3.75 23.0 4.05 23.2 3.55 23.2 3.05 L23.2 2.75 Q24.55 2.5 25.7 2.2 25.75 2.55 25.95 2.9 26.1 3.25 26.4 3.5 25.45 3.75 24.45 3.75 M-18.6 -11.6 Q-18.6 -11.9 -18.65 -12.15 L-18.5 -12.95 Q-18.25 -13.7 -17.35 -14.05 -16.55 -14.3 -15.2 -14.4 L-14.95 -13.95 Q-14.4 -12.9 -13.1 -12.9 -12.0 -12.9 -11.4 -13.8 L-11.3 -13.95 -8.9 -13.4 -8.95 -12.9 Q-8.95 -12.6 -8.85 -12.25 L-13.0 -12.8 -16.45 -12.7 Q-16.9 -12.35 -17.2 -11.4 -17.55 -10.35 -18.0 -9.8 -18.9 -8.8 -21.25 -8.2 L-21.25 -8.3 Q-21.25 -9.0 -21.5 -9.5 L-20.8 -9.4 Q-19.65 -9.4 -19.05 -10.3 -18.6 -10.9 -18.6 -11.6 M-52.35 -9.05 Q-52.35 -8.65 -52.2 -8.3 -53.15 -7.9 -55.0 -6.55 L-54.95 -6.95 Q-54.95 -7.25 -55.0 -7.55 L-54.75 -7.85 Q-54.35 -8.5 -54.3 -9.1 -52.75 -10.1 -52.05 -10.3 -52.35 -9.8 -52.35 -9.05 M-59.3 -6.35 L-59.15 -5.75 Q-58.75 -4.85 -57.8 -4.65 -58.75 -4.05 -58.95 -4.05 -59.65 -4.05 -60.35 -4.8 -60.9 -5.6 -61.05 -5.7 -61.0 -5.35 -61.2 -4.1 -61.3 -3.1 -61.0 -2.55 -60.05 -0.8 -53.7 0.5 -52.1 0.8 -48.4 3.3 L-47.4 4.0 Q-47.75 4.5 -47.75 5.25 -47.75 5.75 -47.45 6.3 L-47.5 6.25 -48.9 5.15 Q-49.6 4.6 -50.0 4.45 L-51.05 4.15 Q-51.2 3.85 -51.5 3.6 -52.1 3.0 -53.0 3.0 -53.6 3.0 -54.05 3.25 L-55.5 2.8 Q-55.4 2.5 -55.4 2.15 -55.4 1.15 -56.15 0.55 -56.85 0.0 -57.8 0.0 -58.8 0.0 -59.45 0.55 -59.8 0.8 -60.0 1.15 -61.15 0.15 -61.9 -2.0 -62.6 -4.05 -62.6 -5.9 -62.6 -8.05 -61.1 -8.05 -60.55 -8.05 -59.9 -7.1 -59.55 -6.6 -59.3 -6.35 M-28.55 -1.95 L-28.25 -2.1 -28.5 -2.15 -28.55 -1.95 M-5.55 -16.65 Q-5.7 -16.25 -5.7 -15.75 -5.7 -15.25 -5.4 -14.65 -6.0 -15.1 -6.75 -15.1 L-6.95 -15.1 -6.7 -15.5 Q-6.15 -16.25 -5.55 -16.65 M-17.05 -6.35 Q-17.95 -6.35 -18.6 -5.8 -19.25 -5.2 -19.25 -4.15 -19.25 -3.6 -18.95 -3.0 -18.35 -1.95 -17.05 -1.95 -15.9 -1.95 -15.3 -2.85 -14.85 -3.45 -14.85 -4.15 -14.85 -5.2 -15.55 -5.8 -16.2 -6.35 -17.05 -6.35 M-3.15 -11.5 L-3.35 -11.5 Q-3.5 -12.0 -3.85 -12.35 L-2.25 -12.0 Q-2.35 -11.75 -2.45 -11.65 -2.7 -11.5 -3.15 -11.5 M-15.45 0.65 L-15.95 0.95 Q-16.65 1.6 -16.65 2.6 -16.65 3.05 -16.4 3.55 L-17.8 3.4 Q-17.95 2.7 -18.45 2.25 -19.1 1.7 -20.05 1.7 -20.95 1.7 -21.6 2.25 -22.05 2.65 -22.25 3.25 -25.0 3.05 -25.6 1.65 L-25.7 1.3 Q-24.8 1.2 -24.3 0.45 L-24.1 0.1 Q-23.8 1.0 -23.15 1.2 L-18.35 0.8 -16.25 0.55 -15.45 0.65" fill="#5786a1" fill-rule="evenodd" stroke="none"/>
  </g>
</svg>
