<?xml version="1.0" encoding="UTF-8" standalone="no"?>
<svg xmlns:xlink="http://www.w3.org/1999/xlink" height="48.6px" width="18.0px" xmlns="http://www.w3.org/2000/svg">
  <g transform="matrix(1.0, 0.0, 0.0, 1.0, 9.0, 24.3)">
    <path d="M-4.5 -19.45 L-4.35 -19.5 -4.4 -19.9 -4.45 -20.3 Q-4.45 -20.65 -4.25 -20.75 L-3.95 -20.9 Q-3.8 -21.2 -3.65 -21.75 L-3.4 -22.65 -3.15 -22.8 Q-2.9 -22.9 -2.8 -23.15 -2.7 -23.35 -2.7 -23.95 L-1.65 -23.95 Q-1.65 -23.85 -1.55 -23.75 -1.5 -23.7 -1.4 -23.7 -1.3 -23.85 -0.95 -24.1 -0.6 -24.3 -0.45 -24.3 -0.45 -24.2 -0.1 -23.7 L0.05 -23.8 0.25 -23.8 0.4 -23.65 Q0.5 -23.6 0.6 -23.6 0.35 -23.0 0.4 -22.95 L0.95 -22.4 Q0.95 -22.55 1.15 -22.7 1.3 -22.8 1.5 -22.9 L1.65 -22.55 2.0 -22.3 Q2.15 -22.25 2.45 -22.15 2.7 -22.05 2.7 -21.85 2.7 -21.7 2.6 -21.5 2.45 -21.3 2.45 -21.15 2.45 -20.95 2.55 -20.85 L2.35 -20.6 Q2.2 -20.4 2.2 -20.2 2.2 -20.1 2.25 -19.9 L2.35 -19.65 Q2.35 -19.4 2.05 -19.15 L1.7 -18.85 Q1.5 -18.65 1.4 -18.6 L0.85 -18.55 0.3 -18.6 Q0.15 -18.7 0.15 -18.9 L0.3 -19.5 0.5 -20.05 Q0.5 -20.35 0.4 -20.4 L-0.5 -20.4 -0.5 -20.0 Q-0.8 -20.1 -0.9 -20.15 -1.05 -20.3 -1.05 -20.6 -1.05 -20.8 -0.9 -21.15 L-1.4 -21.25 -1.85 -21.2 Q-2.05 -21.1 -2.05 -20.6 -2.05 -20.4 -2.25 -20.1 L-2.45 -19.75 Q-2.45 -19.65 -2.25 -19.4 -2.05 -19.15 -2.05 -19.05 -2.05 -18.9 -2.4 -18.8 L-2.8 -18.7 Q-3.25 -18.7 -3.35 -18.9 L-3.5 -19.45 -3.65 -19.45 -4.55 -19.3 -4.5 -19.45 M-1.65 -17.6 L-1.6 -17.7 Q-1.4 -18.05 -1.15 -18.05 L-0.7 -17.65 -0.65 -17.6 -0.45 -17.25 -0.4 -17.0 Q-0.4 -16.75 -0.65 -16.6 -0.95 -16.4 -1.0 -16.25 -0.95 -15.9 -1.05 -15.8 -1.15 -15.65 -1.35 -15.6 L-1.7 -15.6 Q-2.0 -15.6 -2.3 -15.8 -2.7 -16.0 -2.7 -16.45 -2.7 -16.75 -2.5 -16.85 L-1.85 -17.1 -1.65 -17.6 M-2.15 -0.35 L-2.45 -0.4 -2.35 -0.45 Q-2.2 -0.4 -2.15 -0.35" fill="#487033" fill-rule="evenodd" stroke="none"/>
    <path d="M5.55 -12.9 Q5.55 -12.8 5.6 -12.75 5.5 -12.65 5.5 -12.5 5.45 -12.3 5.2 -12.05 L4.8 -12.05 Q3.9 -12.15 3.75 -12.5 L3.5 -13.45 3.4 -13.8 3.2 -14.1 2.6 -14.1 2.6 -14.05 Q2.75 -14.0 3.0 -13.6 L3.4 -13.0 2.95 -13.0 2.8 -12.75 Q2.75 -12.65 2.6 -12.65 L2.35 -12.7 2.35 -12.8 2.3 -12.7 1.65 -12.85 Q1.5 -12.85 1.25 -12.7 1.1 -12.55 1.1 -12.45 L1.1 -12.15 Q1.15 -11.9 1.1 -11.75 L0.9 -11.5 Q0.75 -11.25 0.75 -11.15 L0.8 -10.9 Q0.85 -10.7 1.0 -10.55 1.2 -10.35 1.5 -10.25 1.5 -10.35 1.55 -10.35 1.5 -10.6 1.75 -10.75 L2.25 -10.9 Q2.45 -11.0 2.75 -11.15 3.05 -11.3 3.3 -11.3 3.7 -11.3 3.95 -11.15 4.25 -11.0 4.25 -10.7 4.3 -10.25 4.45 -10.05 4.6 -9.85 4.6 -9.6 4.6 -9.45 4.35 -9.3 4.1 -9.1 3.7 -9.0 L3.45 -8.9 3.3 -8.85 Q3.05 -8.6 3.05 -8.45 L3.4 -8.35 4.05 -8.15 Q4.35 -8.05 4.4 -8.0 4.75 -7.9 4.9 -7.4 4.9 -7.2 5.05 -7.1 5.25 -7.0 5.55 -7.0 L5.9 -7.05 6.3 -7.15 6.45 -7.15 6.45 -7.1 Q6.45 -6.6 6.55 -6.6 6.7 -6.6 6.7 -6.25 6.45 -6.3 6.1 -6.45 L5.6 -6.6 5.45 -6.55 5.4 -6.55 5.35 -6.35 5.3 -6.1 Q5.3 -5.55 5.55 -5.3 5.75 -5.15 6.05 -5.15 L6.65 -5.2 6.7 -5.2 Q6.75 -5.05 7.0 -4.85 7.15 -4.75 7.15 -4.45 L7.15 -4.35 6.45 -4.3 Q5.25 -4.3 4.95 -4.9 L4.7 -5.2 4.65 -5.3 Q4.5 -5.55 4.5 -5.7 4.5 -5.85 4.6 -6.05 L4.7 -6.4 Q4.7 -6.6 4.5 -6.7 4.3 -6.8 4.3 -7.0 L4.4 -7.3 4.5 -7.6 3.85 -7.75 Q3.35 -7.75 3.25 -7.5 3.15 -7.25 3.0 -7.25 2.5 -7.25 2.05 -7.85 1.85 -8.15 1.6 -8.55 L1.2 -8.6 Q0.95 -8.6 0.85 -8.9 L0.7 -9.15 0.7 -9.15 0.65 -9.15 0.55 -9.25 Q0.5 -9.3 0.4 -9.35 0.3 -9.45 0.3 -9.5 0.3 -9.85 0.7 -10.4 L0.2 -10.45 -0.2 -10.35 -0.6 -10.25 Q-0.65 -10.25 -0.85 -10.45 L-1.0 -10.6 Q-1.05 -10.7 -1.1 -10.7 -1.3 -10.7 -1.6 -10.2 -1.9 -9.75 -2.05 -9.75 L-2.7 -10.15 Q-3.05 -10.4 -3.35 -10.45 -3.8 -10.55 -3.9 -10.75 -3.95 -10.85 -3.95 -11.35 L-3.85 -12.05 -3.6 -12.55 Q-3.6 -12.8 -3.8 -12.85 L-4.15 -12.95 -4.55 -12.9 -5.0 -12.75 Q-5.0 -12.65 -5.15 -12.55 -5.3 -12.4 -5.45 -12.4 -5.65 -12.4 -6.1 -13.1 L-6.1 -13.15 -6.1 -13.2 -6.15 -13.2 -6.3 -13.3 Q-6.45 -13.45 -6.45 -13.6 L-6.4 -13.65 -6.3 -13.8 Q-6.25 -13.8 -6.2 -13.9 L-6.2 -14.0 -6.25 -14.05 -6.45 -14.4 -6.65 -14.8 Q-6.65 -14.95 -6.55 -15.05 -6.45 -15.2 -6.45 -15.35 -6.45 -15.5 -6.55 -15.6 -6.65 -15.7 -6.65 -15.85 -6.65 -16.05 -6.45 -16.45 -6.2 -16.8 -6.1 -16.8 L-5.4 -16.7 Q-5.1 -16.95 -5.15 -17.25 L-5.25 -17.95 Q-5.1 -18.2 -4.75 -18.5 -4.75 -18.4 -4.65 -18.4 -4.65 -18.25 -4.5 -18.0 -4.4 -17.75 -4.2 -17.65 L-4.65 -17.1 -4.65 -16.75 -3.35 -16.75 Q-3.3 -17.1 -2.8 -17.0 L-2.75 -16.9 -2.7 -16.65 -2.95 -16.15 -3.15 -15.65 Q-3.15 -15.5 -3.0 -15.4 -2.9 -15.3 -2.9 -15.1 -2.9 -15.0 -3.0 -14.75 -3.15 -14.5 -3.15 -14.3 -3.15 -13.7 -2.7 -13.5 L-1.8 -13.4 Q-1.7 -13.4 -1.45 -13.6 -1.15 -13.8 -1.15 -14.0 L-1.3 -14.25 Q-1.45 -14.4 -1.45 -14.55 -1.45 -14.65 -1.3 -14.8 L-1.05 -15.1 -1.05 -14.95 -1.05 -14.45 -1.0 -14.4 Q-0.7 -14.4 -0.5 -14.25 -0.25 -14.05 -0.15 -14.05 0.1 -14.05 0.5 -14.35 L0.25 -14.9 Q0.05 -15.25 0.05 -15.45 L0.5 -15.45 Q0.5 -15.95 0.55 -16.05 0.6 -16.25 0.9 -16.25 L1.2 -16.2 1.35 -16.2 Q1.35 -16.0 1.2 -15.75 L1.05 -15.45 Q1.6 -15.1 1.6 -14.35 L2.55 -14.35 2.55 -14.55 2.3 -14.75 Q2.25 -14.85 2.25 -15.05 2.25 -15.2 2.35 -15.4 2.5 -15.7 2.85 -15.7 L3.0 -15.65 Q3.05 -15.65 3.1 -15.65 L3.1 -15.1 3.55 -15.05 Q3.9 -14.95 4.0 -14.7 3.8 -14.55 3.8 -14.05 3.8 -13.7 3.85 -13.6 3.95 -13.4 4.35 -13.3 L4.8 -13.1 Q5.2 -12.85 5.4 -12.85 L5.55 -12.9 M-8.15 -2.55 L-8.0 -2.9 Q-7.85 -3.25 -7.85 -3.4 L-7.9 -3.85 -7.95 -4.4 Q-7.95 -4.55 -7.85 -4.8 L-7.8 -4.95 -7.55 -5.0 -7.05 -5.05 -6.65 -5.15 -6.4 -5.05 Q-6.2 -4.95 -6.15 -4.95 L-6.1 -4.95 -5.65 -4.95 -5.1 -5.0 Q-5.0 -5.05 -4.8 -5.35 L-4.7 -5.45 Q-4.65 -5.5 -4.6 -5.6 L-4.55 -5.8 -4.55 -5.8 Q-4.55 -5.9 -4.4 -5.95 L-4.2 -6.0 Q-4.2 -6.2 -4.4 -6.35 L-4.8 -6.65 -4.95 -6.95 Q-5.05 -7.15 -5.25 -7.15 L-6.0 -7.1 Q-6.35 -7.05 -6.35 -7.45 -6.35 -8.0 -5.6 -8.2 L-4.7 -8.3 Q-4.2 -8.35 -3.85 -8.6 -3.55 -8.85 -3.15 -8.85 L-2.5 -8.7 Q-2.3 -8.7 -2.1 -8.85 -1.85 -9.0 -1.7 -9.0 -1.55 -9.0 -1.3 -8.75 L-1.1 -8.5 -1.1 -8.45 Q-1.05 -8.15 -1.0 -8.0 L-0.8 -7.85 -0.65 -7.85 Q-0.65 -7.65 -1.0 -7.0 L-1.05 -6.9 -1.0 -7.3 -1.2 -7.6 -1.2 -7.6 -1.6 -8.0 Q-1.9 -7.85 -2.15 -7.7 -2.15 -8.1 -2.2 -8.25 L-2.3 -8.4 -2.5 -8.45 Q-2.8 -8.45 -3.55 -8.0 L-4.0 -7.65 Q-4.3 -7.45 -4.3 -7.3 -4.3 -7.1 -4.0 -6.65 L-3.7 -6.15 Q-3.7 -6.0 -4.15 -5.75 L-4.3 -5.65 Q-4.5 -5.5 -4.55 -5.3 L-4.55 -5.2 Q-4.55 -4.95 -4.35 -4.75 L-4.3 -4.7 Q-4.1 -4.6 -3.85 -4.6 L-3.7 -4.65 -3.6 -4.7 -3.35 -4.75 -3.3 -4.75 -3.2 -4.7 -3.0 -4.5 -2.95 -4.45 Q-2.65 -4.15 -2.45 -4.15 -2.3 -4.15 -2.1 -4.3 L-2.0 -4.4 -1.75 -4.7 -1.8 -4.35 Q-1.8 -3.95 -1.7 -3.65 L-1.65 -3.3 -2.0 -3.3 Q-2.35 -3.3 -2.75 -3.4 L-3.25 -3.55 Q-3.55 -3.55 -3.8 -3.3 L-4.0 -3.5 -4.15 -3.75 -4.45 -3.3 Q-4.55 -3.0 -4.55 -2.9 -4.55 -2.75 -4.35 -2.5 L-4.25 -2.4 -4.15 -2.3 Q-4.15 -2.15 -4.3 -2.0 -4.5 -1.9 -4.5 -1.8 -4.5 -1.45 -4.15 -1.45 L-3.5 -1.4 -3.05 -1.05 Q-2.9 -0.9 -2.85 -0.75 L-2.85 -0.45 Q-2.85 -0.15 -3.25 0.15 -3.6 0.45 -3.8 0.45 -4.1 0.45 -4.3 0.25 -4.5 0.0 -4.8 0.0 -5.05 0.0 -5.2 -0.2 -5.3 -0.35 -5.45 -0.8 L-6.15 -0.45 Q-6.5 -0.35 -6.75 -0.35 L-7.2 -0.4 Q-7.35 -0.5 -7.3 -1.15 -7.25 -1.35 -7.55 -1.75 L-7.85 -2.05 -7.75 -2.2 Q-7.65 -2.3 -7.7 -2.45 -7.85 -2.4 -8.15 -2.55 M0.2 -13.15 L-0.15 -13.5 Q-0.45 -13.45 -0.65 -13.15 L-0.7 -13.05 Q-0.85 -12.85 -0.85 -12.6 -0.85 -12.25 -0.5 -12.25 L-0.5 -12.25 Q-0.2 -12.25 0.15 -12.7 L0.35 -13.0 0.2 -13.15 M0.0 -11.7 L-0.45 -12.0 -0.5 -12.0 Q-0.5 -11.3 -0.55 -11.1 -0.25 -11.15 0.0 -11.4 L0.2 -11.6 0.0 -11.7 M2.7 -10.65 L2.6 -10.65 2.45 -10.55 Q2.1 -10.45 2.05 -10.2 L2.0 -9.95 2.0 -9.65 Q2.0 -9.55 2.25 -9.35 2.55 -9.2 2.8 -9.2 L2.85 -9.2 2.9 -9.2 2.95 -9.25 3.1 -9.45 3.35 -9.3 3.45 -9.1 3.6 -9.3 3.7 -9.5 3.6 -9.75 Q3.45 -9.9 3.45 -10.05 3.45 -10.2 3.6 -10.4 L3.7 -10.6 Q3.7 -10.75 3.4 -10.95 L3.3 -11.05 Q3.15 -10.9 3.0 -10.8 2.9 -10.75 2.7 -10.65 M2.85 -3.0 L2.85 -3.0 Q2.6 -3.1 2.3 -3.1 1.85 -3.1 1.65 -2.95 1.35 -2.75 1.5 -2.3 1.55 -2.05 1.3 -1.95 L0.95 -1.85 0.75 -1.4 Q0.65 -1.15 0.35 -1.15 L0.05 -1.2 -0.15 -1.2 -0.3 -1.25 Q-0.45 -1.3 -0.6 -1.45 L-0.7 -1.65 -0.8 -1.8 Q-1.2 -2.3 -1.2 -2.45 -1.2 -3.0 -0.65 -3.1 0.0 -3.2 0.05 -3.35 L-0.4 -3.4 Q-0.65 -3.45 -0.65 -3.7 -0.65 -4.15 -0.15 -4.3 0.3 -4.45 0.3 -4.8 L0.25 -5.2 0.65 -5.65 Q0.8 -5.85 0.95 -6.4 1.05 -6.75 1.4 -6.75 1.85 -6.75 1.95 -6.55 2.05 -6.45 2.05 -6.05 2.1 -5.8 2.45 -5.45 2.75 -5.15 2.75 -4.95 L2.7 -4.75 2.65 -4.55 Q2.65 -4.45 2.75 -4.35 2.9 -4.2 3.15 -4.2 3.35 -4.2 3.5 -3.95 3.65 -3.75 3.65 -3.65 L3.55 -3.25 Q3.55 -3.15 3.95 -2.95 L4.0 -2.75 4.05 -2.5 Q4.1 -2.3 4.45 -2.35 4.6 -2.4 4.7 -2.25 4.9 -2.1 4.9 -1.85 L5.0 -1.35 5.05 -0.85 5.05 -0.7 4.85 -0.5 4.7 -0.35 4.6 -0.15 4.2 0.25 Q4.1 0.35 3.85 0.35 L3.7 0.35 Q3.55 0.2 3.55 0.1 3.4 0.1 3.35 0.2 L3.2 0.1 Q2.9 -0.1 2.65 -0.1 L2.45 -0.05 2.35 -0.2 2.35 -0.25 Q2.15 -0.6 2.15 -0.9 2.15 -1.3 2.6 -1.85 L2.85 -2.2 3.1 -2.2 3.05 -2.5 3.0 -2.6 Q2.9 -2.85 2.9 -2.95 L2.9 -3.05 2.85 -3.0 M1.05 -5.65 Q0.9 -5.1 0.8 -5.05 0.35 -4.8 0.25 -4.6 L0.05 -3.95 0.2 -3.9 0.3 -3.75 0.5 -3.8 0.7 -3.85 1.45 -3.7 1.45 -3.7 Q1.65 -3.7 1.75 -4.0 L1.8 -4.05 1.9 -4.5 Q1.9 -4.8 2.1 -5.05 L2.2 -5.1 2.05 -5.3 1.6 -6.05 Q1.25 -6.1 1.1 -5.7 L1.05 -5.65 M0.4 -2.85 Q0.15 -3.05 0.0 -3.05 -0.2 -3.05 -0.3 -2.85 -0.4 -2.7 -0.4 -2.55 L-0.4 -2.5 -0.35 -2.25 -0.3 -2.2 -0.1 -2.2 Q0.35 -2.2 0.5 -2.75 L0.4 -2.85 M3.5 -1.4 Q3.3 -1.2 2.95 -1.1 L2.7 -1.1 2.65 -1.0 Q2.6 -0.9 2.6 -0.8 2.6 -0.65 2.7 -0.5 2.85 -0.4 3.05 -0.35 L3.1 -0.35 Q3.35 -0.3 3.65 -0.35 L3.8 -0.35 4.25 -0.4 Q4.35 -0.4 4.35 -0.45 4.5 -0.65 4.5 -1.65 L4.45 -1.7 Q4.2 -1.9 4.05 -1.9 L3.95 -1.95 Q3.9 -1.95 3.65 -1.6 L3.55 -1.5 3.5 -1.4 M-5.65 -15.1 L-5.55 -14.55 Q-5.5 -14.4 -5.35 -14.35 L-5.25 -14.35 Q-4.95 -14.35 -4.8 -14.6 -4.85 -15.0 -4.75 -15.6 L-4.75 -15.65 Q-4.9 -15.65 -5.2 -15.35 L-5.55 -15.1 -5.65 -15.1 M-2.35 -12.6 Q-2.75 -12.6 -3.0 -12.4 -3.25 -12.2 -3.25 -11.85 L-3.25 -11.55 Q-3.15 -11.4 -2.9 -11.4 L-3.0 -11.35 -3.05 -11.3 -3.0 -11.1 Q-2.95 -10.95 -2.8 -10.95 L-2.4 -10.85 Q-2.3 -10.85 -2.15 -11.0 L-1.85 -11.35 Q-1.7 -11.6 -1.55 -11.8 -1.9 -12.35 -2.15 -12.55 L-2.35 -12.6 M-1.2 -6.55 L-1.3 -6.2 -1.25 -5.9 -1.2 -5.6 Q-1.2 -5.35 -1.5 -5.15 -1.65 -5.05 -1.7 -4.85 L-1.7 -5.0 -1.75 -5.2 -1.8 -5.3 -1.9 -5.6 -1.9 -5.7 -1.6 -6.15 -1.45 -6.3 -1.45 -6.3 -1.25 -6.55 -1.2 -6.55 M-5.45 -4.3 Q-5.6 -4.5 -5.9 -4.5 L-6.1 -4.45 -6.25 -4.4 -6.35 -4.35 -6.75 -4.25 -6.75 -3.6 Q-7.1 -3.35 -7.1 -3.2 -7.1 -2.85 -6.85 -2.55 -6.6 -2.3 -6.45 -2.3 L-6.2 -2.4 -6.15 -2.4 -5.95 -2.5 -5.3 -2.5 -5.25 -2.5 -5.05 -2.55 Q-4.9 -2.65 -4.9 -2.85 L-4.9 -3.35 -5.0 -3.45 -5.25 -3.65 -5.3 -3.75 -5.45 -4.3 M-4.55 -1.0 Q-4.65 -0.95 -4.65 -0.7 L-4.6 -0.45 -4.35 -0.2 Q-4.15 0.0 -3.85 0.0 L-3.7 0.0 Q-3.55 -0.05 -3.4 -0.15 L-3.3 -0.2 -3.1 -0.4 -3.0 -0.6 -3.05 -0.6 -3.25 -0.75 -3.4 -0.8 -3.45 -0.85 Q-3.85 -1.1 -3.95 -1.1 L-4.45 -1.05 -4.55 -1.0 M-0.35 0.75 L-0.5 0.9 -0.55 1.05 -0.5 1.3 -0.4 1.6 Q-0.4 1.65 -0.55 1.75 L-0.8 1.85 -1.2 2.0 -1.25 2.05 -1.6 2.1 -2.1 2.05 Q-2.5 1.9 -2.5 1.6 L-2.5 1.45 -2.45 1.4 Q-2.05 1.55 -1.8 1.1 L-1.55 0.5 -1.55 0.5 -1.05 0.55 -0.35 0.75 M-3.25 3.8 L-3.3 3.8 Q-3.55 3.9 -3.65 4.2 L-3.65 4.45 Q-3.75 4.9 -4.15 4.9 L-4.4 4.8 Q-4.55 4.8 -4.8 5.05 -5.1 5.05 -5.2 4.9 L-5.2 4.85 Q-5.3 4.75 -5.3 4.45 -5.3 4.35 -5.1 4.1 -4.9 3.85 -4.9 3.6 -4.85 3.4 -4.55 3.2 -4.3 3.0 -4.05 3.0 -3.75 3.0 -3.5 3.35 L-3.25 3.8" fill="#304831" fill-rule="evenodd" stroke="none"/>
    <path d="M5.65 -9.55 L5.65 -9.55 Q5.65 -9.45 5.75 -9.15 L5.8 -8.95 5.95 -8.45 5.9 -8.25 5.65 -8.0 Q5.65 -7.85 5.75 -7.7 L5.35 -7.65 5.2 -7.65 5.1 -7.65 Q4.9 -7.7 4.9 -7.95 L4.95 -8.3 5.0 -8.65 4.7 -8.7 4.6 -8.75 4.25 -8.8 Q4.25 -9.2 4.35 -9.25 4.55 -9.1 4.6 -9.1 L4.65 -9.1 Q4.65 -9.3 5.35 -9.45 5.5 -9.5 5.65 -9.55 M7.4 -1.35 L7.6 -1.2 Q7.95 -0.85 7.95 -0.5 8.0 0.05 8.2 0.2 8.45 0.35 8.45 0.4 8.45 0.7 8.4 1.2 L8.3 1.8 Q8.3 2.1 8.55 2.4 8.75 2.7 8.8 3.1 8.8 3.6 8.9 4.0 9.0 4.35 9.0 4.5 9.0 4.6 8.65 5.1 8.3 5.55 8.3 5.8 8.3 5.9 8.5 6.15 L8.65 6.5 8.55 6.9 Q8.45 7.15 8.45 7.3 8.45 7.45 8.55 7.6 8.65 7.7 8.65 7.85 L8.55 8.25 Q8.45 8.5 8.45 8.65 8.45 9.0 8.65 9.2 8.9 9.4 8.9 9.65 8.9 9.75 8.6 10.15 8.25 10.6 8.2 10.7 8.15 10.95 8.15 11.4 8.15 11.9 8.1 12.1 8.0 12.4 7.55 12.65 7.05 12.9 7.0 12.95 L6.75 13.5 Q6.6 13.8 6.2 13.75 5.35 13.75 5.05 14.4 L4.85 14.9 Q4.7 15.2 4.45 15.3 L3.75 15.4 Q3.75 15.55 3.65 15.7 L3.5 16.0 Q3.4 16.25 2.95 16.35 L2.3 16.35 1.9 16.3 1.15 16.1 0.65 16.25 0.15 16.35 Q-0.1 16.35 -0.4 16.1 L-0.7 15.75 -1.05 15.9 -1.25 16.05 -1.3 16.05 -1.5 16.1 -1.55 15.7 -1.65 15.3 -1.9 15.4 Q-2.5 15.65 -2.7 15.75 L-3.2 16.1 Q-3.4 16.25 -3.75 16.25 L-4.3 16.2 Q-4.6 16.1 -4.55 15.65 L-5.0 15.75 -5.45 15.85 Q-5.7 15.85 -5.85 15.7 L-6.0 15.4 -6.45 15.65 -6.85 15.85 Q-7.05 15.85 -7.05 15.75 L-7.15 15.65 -7.25 15.5 -7.4 15.4 -7.5 15.3 -7.55 15.3 -7.75 15.05 -7.85 14.95 -8.1 14.7 -8.6 14.3 Q-8.65 14.2 -8.65 13.85 -8.65 13.6 -8.75 13.25 L-8.8 12.6 -8.75 12.25 -8.65 11.9 -8.85 11.65 Q-9.0 11.45 -9.0 11.25 -9.0 10.9 -8.3 10.0 L-8.5 9.85 Q-8.55 9.75 -8.55 9.55 -8.55 9.4 -8.45 9.15 -8.3 8.9 -8.3 8.75 -8.3 8.6 -8.5 8.4 -8.65 8.15 -8.65 7.95 -8.65 7.85 -8.45 7.5 -8.2 7.15 -8.2 7.05 -8.2 6.85 -8.25 6.75 -8.35 6.7 -8.45 6.15 -8.4 5.9 -8.2 5.7 -7.95 5.45 -7.95 5.4 -7.95 5.25 -8.1 4.95 -8.2 4.65 -8.2 4.5 -8.2 4.35 -8.1 4.2 -7.95 4.1 -7.95 3.95 -7.95 3.85 -8.2 3.35 L-8.2 3.35 Q-8.45 2.9 -8.45 2.7 L-8.35 2.35 -8.35 2.2 -8.1 2.2 -7.8 2.15 -7.5 2.1 -7.7 2.45 Q-7.75 2.55 -7.75 2.65 L-7.7 2.9 -7.7 3.05 -7.1 3.05 Q-7.25 2.2 -6.6 2.2 L-6.6 2.4 Q-6.75 2.4 -6.8 2.55 L-6.95 2.95 -6.75 3.1 Q-6.6 3.15 -6.6 3.25 -6.6 3.55 -6.8 3.7 L-7.15 3.95 -7.3 4.05 -7.3 4.5 -6.55 4.55 Q-6.0 4.7 -6.1 5.05 -6.3 5.1 -6.5 5.35 -6.65 5.55 -6.65 5.7 L-6.6 5.95 -6.6 6.05 -6.2 6.05 -5.95 5.8 Q-5.75 5.6 -5.65 5.6 -5.65 5.7 -5.55 5.7 -5.55 5.85 -5.75 6.1 -5.95 6.4 -5.95 6.55 L-5.65 6.9 -5.7 7.3 -5.75 7.65 Q-5.3 7.65 -5.2 7.7 -5.4 8.35 -5.2 8.6 -5.0 8.85 -4.4 8.85 -4.0 8.85 -3.85 8.65 -3.75 8.4 -3.9 7.9 -3.55 8.1 -3.2 7.9 -2.9 7.75 -2.9 7.45 -2.9 7.35 -3.0 7.3 -3.15 7.25 -3.25 7.0 L-3.35 6.45 Q-3.35 6.05 -3.2 6.0 -2.85 5.85 -2.6 5.6 L-2.6 6.35 Q-2.6 6.5 -2.35 6.6 L-2.25 6.6 -2.15 6.6 -2.05 6.6 Q-1.95 6.6 -1.85 6.8 -1.75 6.95 -1.8 7.1 L-1.45 7.15 -1.15 7.15 -0.6 7.1 Q-0.85 6.8 -0.6 6.55 L-0.4 6.4 -0.25 6.35 -0.05 6.35 -0.1 6.65 Q-0.1 6.85 0.05 7.0 0.25 6.8 0.5 6.8 L0.55 6.8 Q0.65 6.8 0.65 6.85 L0.7 6.9 Q0.6 6.95 0.6 7.1 0.6 7.2 0.7 7.25 L1.45 7.25 Q1.55 7.1 1.7 6.7 1.8 6.7 2.0 6.6 L2.35 6.35 2.35 5.8 1.9 5.7 Q1.85 5.4 1.95 5.25 L2.25 4.95 2.45 5.25 Q2.5 5.3 2.55 5.3 L2.6 5.35 Q2.9 5.35 3.15 4.95 L2.95 4.75 Q2.9 4.65 2.9 4.5 2.9 4.4 3.0 4.3 3.1 4.25 3.1 4.15 3.1 4.05 2.9 3.85 2.7 3.7 2.7 3.6 2.7 3.45 2.9 3.2 L3.15 2.85 Q3.15 2.95 3.25 2.95 L3.25 3.3 3.3 3.3 Q3.6 3.25 3.75 3.45 3.9 3.7 4.1 3.7 L4.2 3.55 4.45 3.3 4.45 3.8 Q4.75 3.85 5.15 3.55 L5.5 3.2 5.1 2.9 5.0 2.85 5.1 2.85 Q5.5 2.9 5.75 2.2 L5.75 2.4 6.0 2.6 6.4 2.3 Q6.55 2.15 6.55 1.9 6.55 1.8 6.35 1.55 6.1 1.3 6.1 0.9 L5.75 1.0 5.5 0.9 5.5 0.35 5.75 0.35 6.0 0.35 6.2 0.3 6.2 -0.55 Q6.0 -0.45 5.75 -0.6 5.55 -0.8 5.55 -0.9 5.55 -1.05 5.8 -1.25 6.05 -1.45 6.2 -1.45 6.2 -1.4 6.3 -1.4 6.25 -1.35 6.25 -1.25 L6.3 -1.0 7.1 -1.0 Q7.25 -1.05 7.4 -1.3 L7.4 -1.35 M-6.55 -9.5 L-6.5 -9.55 Q-6.35 -10.15 -6.35 -10.25 -6.35 -10.4 -6.45 -10.7 L-6.55 -11.05 -6.2 -11.05 Q-6.3 -10.75 -6.15 -10.5 -5.95 -10.3 -5.85 -10.3 -5.8 -10.3 -5.65 -10.45 L-5.6 -10.5 Q-5.35 -10.7 -5.3 -10.85 L-4.65 -10.85 Q-4.65 -10.6 -4.5 -10.45 L-4.45 -10.4 -4.45 -10.1 Q-4.25 -9.9 -3.7 -9.7 L-3.0 -9.45 -3.15 -9.25 Q-3.35 -9.1 -3.5 -9.1 -3.7 -9.1 -3.8 -9.25 L-3.9 -9.45 -4.15 -9.1 -4.25 -8.9 -4.35 -8.75 -4.9 -8.75 -4.9 -9.05 Q-4.95 -9.3 -5.1 -9.45 L-5.25 -9.55 Q-5.35 -9.6 -5.3 -9.75 L-5.45 -9.85 -5.5 -9.85 -5.65 -9.85 -5.85 -9.8 Q-5.95 -9.75 -6.0 -9.45 L-6.5 -9.45 -6.55 -9.5 M2.3 -12.7 L2.35 -12.8 2.35 -12.7 Q2.35 -12.5 2.55 -12.45 L2.95 -12.35 2.85 -12.0 Q2.75 -11.75 2.55 -11.5 L2.45 -11.4 Q2.3 -11.6 1.9 -11.65 1.65 -11.7 1.55 -11.75 1.4 -11.85 1.5 -12.15 1.8 -12.05 2.0 -12.25 L2.2 -12.5 2.2 -12.6 2.3 -12.7 M0.7 -9.15 L0.35 -8.95 0.25 -8.9 Q0.3 -8.75 0.15 -8.4 0.05 -8.2 -0.05 -8.1 L-0.1 -8.15 -0.15 -8.2 Q-0.25 -8.5 -0.45 -8.7 -0.7 -8.95 -0.95 -8.8 L-0.95 -9.55 -0.85 -9.55 -0.75 -9.3 Q-0.65 -9.2 -0.55 -9.2 -0.4 -9.2 -0.25 -9.35 -0.05 -9.55 0.15 -9.55 L0.2 -9.5 0.6 -9.2 Q0.65 -9.2 0.65 -9.15 L0.7 -9.15 0.7 -9.15 M2.85 -3.0 L2.9 -3.05 2.9 -2.95 Q2.9 -2.85 3.0 -2.6 L3.05 -2.5 3.1 -2.2 2.85 -2.2 2.8 -2.2 2.65 -2.15 Q2.45 -2.1 2.35 -1.95 L2.1 -2.15 2.1 -2.2 2.0 -2.4 Q2.0 -2.65 2.35 -2.9 L2.35 -2.9 2.55 -3.05 Q2.55 -2.95 2.65 -2.9 2.7 -2.9 2.85 -3.0 M3.35 0.2 Q3.4 0.1 3.55 0.1 3.55 0.2 3.7 0.35 L4.1 0.35 Q3.8 0.4 3.75 0.6 L3.7 1.3 Q3.5 1.1 3.2 1.05 L3.05 1.0 Q2.8 0.95 2.8 0.65 L2.8 0.4 2.9 0.3 2.95 0.4 Q3.0 0.45 3.1 0.45 L3.15 0.45 3.3 0.3 3.35 0.2 M0.55 -6.1 Q0.25 -5.95 0.1 -5.5 0.0 -5.25 -0.05 -4.75 -0.15 -5.4 -0.25 -5.45 -0.5 -5.6 -0.95 -6.05 -0.65 -6.1 -0.45 -6.25 L-0.2 -6.45 -0.15 -6.45 0.15 -6.15 Q0.25 -6.1 0.45 -6.1 L0.55 -6.1 M3.1 -6.9 L3.15 -6.8 Q3.2 -6.75 3.45 -6.9 L3.65 -7.0 3.9 -7.25 4.1 -7.5 Q3.7 -6.7 3.7 -6.55 3.7 -6.4 3.8 -6.3 L3.9 -6.1 Q3.85 -5.8 3.65 -5.6 L3.45 -5.4 Q3.45 -5.75 2.9 -6.0 L2.85 -6.05 Q2.35 -6.3 2.35 -6.55 2.35 -6.7 2.4 -6.8 L2.45 -6.9 3.1 -6.9 M0.35 -1.0 L0.6 -1.15 Q0.65 -0.45 0.55 -0.35 0.5 -0.3 0.15 -0.25 L0.0 -0.25 -0.05 -0.25 -0.5 -0.25 -0.65 -0.35 -0.7 -0.55 Q-0.7 -0.85 -0.5 -1.0 L-0.4 -0.9 -0.2 -0.85 -0.2 -0.85 0.0 -0.85 Q0.15 -0.9 0.35 -1.0 M5.2 -4.05 Q5.2 -3.95 5.3 -3.75 L5.3 -3.75 5.4 -3.5 5.35 -3.3 5.35 -3.25 5.3 -3.2 Q5.1 -3.4 5.0 -3.4 L4.75 -3.5 4.65 -3.5 Q4.4 -3.5 4.25 -3.7 4.2 -3.8 4.2 -3.95 L4.35 -3.95 Q4.6 -4.05 4.55 -4.6 L4.7 -4.6 5.15 -4.45 5.25 -4.45 5.4 -4.4 5.3 -4.25 5.2 -4.05 M3.7 6.95 Q3.2 7.3 3.2 7.65 3.2 7.75 3.5 7.9 3.85 8.1 4.15 8.1 4.35 8.1 4.5 7.95 L4.65 7.8 Q4.9 7.55 4.9 7.3 4.9 7.0 4.75 7.0 4.55 7.0 4.45 6.7 L4.45 6.4 3.8 6.85 3.7 6.95 M0.25 8.25 Q0.1 8.15 -0.1 8.15 L-0.25 8.2 -0.4 8.25 Q-0.65 8.4 -0.8 8.4 -1.05 8.45 -1.15 8.55 -1.25 8.6 -1.25 8.85 -1.25 9.1 -1.15 9.2 -1.0 9.35 -0.8 9.35 L-0.55 9.3 -0.3 9.2 -0.25 9.2 -0.2 9.2 0.0 9.2 Q0.25 9.2 0.25 8.95 L0.25 8.65 0.4 8.4 0.25 8.25 M-5.85 -6.8 L-5.75 -6.7 Q-5.65 -6.6 -5.5 -6.6 L-5.2 -6.65 -4.9 -6.7 Q-5.0 -6.4 -4.85 -6.2 L-4.75 -6.1 -4.65 -6.0 -4.7 -5.95 -4.75 -5.9 Q-5.05 -5.6 -5.4 -5.6 -5.55 -5.6 -5.7 -5.7 L-5.85 -5.8 Q-6.0 -5.95 -6.0 -6.2 -6.0 -6.45 -5.85 -6.8 M-2.45 -3.2 Q-2.35 -2.8 -2.1 -2.6 -2.0 -2.5 -1.8 -2.45 L-1.9 -2.4 -2.3 -2.15 -2.35 -2.1 -2.3 -2.0 -2.2 -1.9 -2.2 -1.85 -2.15 -1.8 -2.15 -1.7 Q-2.15 -1.55 -2.2 -1.55 L-2.25 -1.45 -2.7 -1.65 Q-2.7 -1.6 -2.75 -1.55 -2.8 -1.45 -2.9 -1.45 -2.9 -2.0 -3.0 -2.2 L-3.0 -2.2 -3.15 -2.15 -3.25 -2.15 -3.55 -2.15 Q-3.85 -2.2 -4.0 -2.4 L-4.1 -2.55 Q-3.65 -2.3 -3.15 -2.65 L-2.95 -2.8 -2.45 -3.2 M-1.5 2.3 Q-1.4 2.3 -1.25 2.4 -1.15 2.45 -0.95 2.6 L-0.85 2.45 -0.6 2.3 Q-0.6 2.55 -0.4 2.75 L-0.2 2.85 -0.3 3.1 Q-0.45 3.3 -0.8 3.3 -1.05 3.3 -1.25 3.05 L-1.45 2.8 Q-1.5 2.75 -1.55 2.75 L-1.75 2.8 -1.9 2.85 -1.9 2.6 -1.5 2.3 M-5.0 0.1 L-4.9 0.1 -4.75 0.3 -4.65 0.35 -4.65 0.4 Q-4.7 0.6 -4.85 0.75 L-4.95 0.85 Q-5.15 1.0 -5.3 1.0 L-5.65 0.85 Q-5.85 0.65 -5.9 0.45 L-5.95 0.3 -5.85 0.1 -5.75 0.0 -5.65 0.1 -5.6 0.2 -5.45 0.3 -5.4 0.35 Q-5.2 0.2 -5.0 0.1" fill="#192031" fill-rule="evenodd" stroke="none"/>
    <path d="M1.9 16.3 L1.8 17.8 1.7 17.8 Q1.4 17.85 1.65 18.1 1.45 18.15 1.3 18.3 1.15 18.45 1.15 18.65 L1.05 18.65 Q0.95 18.3 0.95 17.5 L0.5 17.5 Q0.5 17.15 0.4 16.95 0.1 16.9 0.0 17.35 -0.05 17.6 0.0 17.85 L-0.2 18.25 Q-0.35 18.55 -0.35 18.9 L-0.35 19.6 Q-0.35 20.05 -0.35 20.3 -0.45 20.95 -0.9 22.6 -1.0 22.45 -1.0 21.8 -1.0 21.3 -0.85 19.8 L-0.65 18.2 Q-0.7 18.15 -0.8 18.2 L-1.0 18.2 -1.0 18.05 Q-1.05 18.05 -1.05 17.95 L-1.4 18.35 -1.4 17.7 -1.45 16.95 Q-1.45 16.4 -1.3 16.05 L-1.25 16.05 -1.05 15.9 -0.7 15.75 -0.4 16.1 Q-0.1 16.35 0.15 16.35 L0.65 16.25 1.15 16.1 1.9 16.3" fill="#111623" fill-rule="evenodd" stroke="none"/>
    <path d="M1.8 17.8 L1.75 18.05 1.85 19.45 2.0 21.5 Q2.05 22.4 2.45 22.9 2.7 23.25 3.65 23.85 3.55 23.85 3.55 23.9 L3.5 23.95 2.65 24.05 2.1 24.2 1.75 24.2 1.5 24.2 Q1.25 24.3 0.95 24.3 0.8 24.3 0.6 24.2 0.45 24.05 0.3 24.05 0.15 24.05 -0.05 24.2 -0.2 24.3 -0.35 24.3 -0.6 24.3 -0.8 24.0 -1.0 23.75 -1.65 23.75 L-2.15 23.8 -2.6 23.85 -2.95 23.8 -3.15 23.5 Q-2.1 23.25 -1.7 21.3 -1.45 20.15 -1.4 18.35 L-1.05 17.95 Q-1.05 18.05 -1.0 18.05 L-1.0 18.2 -0.8 18.2 Q-0.7 18.15 -0.65 18.2 L-0.85 19.8 Q-1.0 21.3 -1.0 21.8 -1.0 22.45 -0.9 22.6 -0.45 20.95 -0.35 20.3 -0.35 20.05 -0.35 19.6 L-0.35 18.9 Q-0.35 18.55 -0.2 18.25 L0.0 17.85 Q-0.05 17.6 0.0 17.35 0.1 16.9 0.4 16.95 0.5 17.15 0.5 17.5 L0.95 17.5 Q0.95 18.3 1.05 18.65 L1.15 18.65 Q1.15 18.45 1.3 18.3 1.45 18.15 1.65 18.1 1.4 17.85 1.7 17.8 L1.8 17.8" fill="#312e1e" fill-rule="evenodd" stroke="none"/>
    <path d="M5.6 -12.75 L5.65 -12.7 5.8 -12.55 Q5.95 -12.45 5.95 -12.1 L5.95 -11.35 6.0 -10.8 5.95 -10.25 Q5.95 -10.1 5.8 -9.9 5.65 -9.7 5.65 -9.55 5.5 -9.5 5.35 -9.45 4.65 -9.3 4.65 -9.1 L4.6 -9.1 Q4.55 -9.1 4.35 -9.25 4.25 -9.2 4.25 -8.8 L4.6 -8.75 4.7 -8.7 5.0 -8.65 4.95 -8.3 4.9 -7.95 Q4.9 -7.7 5.1 -7.65 L5.2 -7.65 5.35 -7.65 5.75 -7.7 Q5.85 -7.6 6.0 -7.55 6.4 -7.45 6.45 -7.3 L6.45 -7.15 6.3 -7.15 5.9 -7.05 5.55 -7.0 Q5.25 -7.0 5.05 -7.1 4.9 -7.2 4.9 -7.4 4.75 -7.9 4.4 -8.0 4.35 -8.05 4.05 -8.15 L3.4 -8.35 3.05 -8.45 Q3.05 -8.6 3.3 -8.85 L3.45 -8.9 3.7 -9.0 Q4.1 -9.1 4.35 -9.3 4.6 -9.45 4.6 -9.6 4.6 -9.85 4.45 -10.05 4.3 -10.25 4.25 -10.7 4.25 -11.0 3.95 -11.15 3.7 -11.3 3.3 -11.3 3.05 -11.3 2.75 -11.15 2.45 -11.0 2.25 -10.9 L1.75 -10.75 Q1.5 -10.6 1.55 -10.35 1.5 -10.35 1.5 -10.25 1.2 -10.35 1.0 -10.55 0.85 -10.7 0.8 -10.9 L0.75 -11.15 Q0.75 -11.25 0.9 -11.5 L1.1 -11.75 Q1.15 -11.9 1.1 -12.15 L1.1 -12.45 Q1.1 -12.55 1.25 -12.7 1.5 -12.85 1.65 -12.85 L2.3 -12.7 2.2 -12.6 2.2 -12.5 2.0 -12.25 Q1.8 -12.05 1.5 -12.15 1.4 -11.85 1.55 -11.75 1.65 -11.7 1.9 -11.65 2.3 -11.6 2.45 -11.4 L2.55 -11.5 Q2.75 -11.75 2.85 -12.0 L2.95 -12.35 2.55 -12.45 Q2.35 -12.5 2.35 -12.7 L2.6 -12.65 Q2.75 -12.65 2.8 -12.75 L2.95 -13.0 3.4 -13.0 3.0 -13.6 Q2.75 -14.0 2.6 -14.05 L2.6 -14.1 3.2 -14.1 3.4 -13.8 3.5 -13.45 3.75 -12.5 Q3.9 -12.15 4.8 -12.05 L5.2 -12.05 Q5.45 -12.3 5.5 -12.5 5.5 -12.65 5.6 -12.75 M7.15 -4.35 Q7.1 -4.15 6.85 -3.6 6.55 -3.0 6.55 -2.95 L6.75 -2.7 6.9 -2.4 Q6.9 -2.25 7.0 -2.05 L7.15 -1.7 Q7.15 -1.6 7.4 -1.35 L7.4 -1.3 Q7.25 -1.05 7.1 -1.0 L6.3 -1.0 6.25 -1.25 Q6.25 -1.35 6.3 -1.4 6.2 -1.4 6.2 -1.45 6.05 -1.45 5.8 -1.25 5.55 -1.05 5.55 -0.9 5.55 -0.8 5.75 -0.6 6.0 -0.45 6.2 -0.55 L6.2 0.3 6.0 0.35 5.75 0.35 5.5 0.35 5.5 0.9 5.75 1.0 6.1 0.9 Q6.1 1.3 6.35 1.55 6.55 1.8 6.55 1.9 6.55 2.15 6.4 2.3 L6.0 2.6 5.75 2.4 5.75 2.2 Q5.5 2.9 5.1 2.85 L5.0 2.85 5.1 2.9 5.5 3.2 5.15 3.55 Q4.75 3.85 4.45 3.8 L4.45 3.3 4.2 3.55 4.1 3.7 Q3.9 3.7 3.75 3.45 3.6 3.25 3.3 3.3 L3.25 3.3 3.25 2.95 Q3.15 2.95 3.15 2.85 L2.9 3.2 Q2.7 3.45 2.7 3.6 2.7 3.7 2.9 3.85 3.1 4.05 3.1 4.15 3.1 4.25 3.0 4.3 2.9 4.4 2.9 4.5 2.9 4.65 2.95 4.75 L3.15 4.95 Q2.9 5.35 2.6 5.35 L2.55 5.3 Q2.5 5.3 2.45 5.25 L2.25 4.95 1.95 5.25 Q1.85 5.4 1.9 5.7 L2.35 5.8 2.35 6.35 2.0 6.6 Q1.8 6.7 1.7 6.7 1.55 7.1 1.45 7.25 L0.7 7.25 Q0.6 7.2 0.6 7.1 0.6 6.95 0.7 6.9 L0.65 6.85 Q0.65 6.8 0.55 6.8 L0.5 6.8 Q0.25 6.8 0.05 7.0 -0.1 6.85 -0.1 6.65 L-0.05 6.35 -0.25 6.35 -0.4 6.4 -0.6 6.55 Q-0.85 6.8 -0.6 7.1 L-1.15 7.15 -1.45 7.15 -1.8 7.1 Q-1.75 6.95 -1.85 6.8 -1.95 6.6 -2.05 6.6 L-2.15 6.6 -2.25 6.6 -2.35 6.6 Q-2.6 6.5 -2.6 6.35 L-2.6 5.6 Q-2.85 5.85 -3.2 6.0 -3.35 6.05 -3.35 6.45 L-3.25 7.0 Q-3.15 7.25 -3.0 7.3 -2.9 7.35 -2.9 7.45 -2.9 7.75 -3.2 7.9 -3.55 8.1 -3.9 7.9 -3.75 8.4 -3.85 8.65 -4.0 8.85 -4.4 8.85 -5.0 8.85 -5.2 8.6 -5.4 8.35 -5.2 7.7 -5.3 7.65 -5.75 7.65 L-5.7 7.3 -5.65 6.9 -5.95 6.55 Q-5.95 6.4 -5.75 6.1 -5.55 5.85 -5.55 5.7 -5.65 5.7 -5.65 5.6 -5.75 5.6 -5.95 5.8 L-6.2 6.05 -6.6 6.05 -6.6 5.95 -6.65 5.7 Q-6.65 5.55 -6.5 5.35 -6.3 5.1 -6.1 5.05 -6.0 4.7 -6.55 4.55 L-7.3 4.5 -7.3 4.05 -7.15 3.95 -6.8 3.7 Q-6.6 3.55 -6.6 3.25 -6.6 3.15 -6.75 3.1 L-6.95 2.95 -6.8 2.55 Q-6.75 2.4 -6.6 2.4 L-6.6 2.2 Q-7.25 2.2 -7.1 3.05 L-7.7 3.05 -7.7 2.9 -7.75 2.65 Q-7.75 2.55 -7.7 2.45 L-7.5 2.1 -7.8 2.15 -8.1 2.2 -8.35 2.2 -8.3 2.05 Q-8.3 1.95 -8.45 1.75 -8.55 1.5 -8.55 1.35 -8.55 1.1 -8.25 0.9 -7.95 0.65 -7.95 0.5 -7.95 0.35 -8.1 -0.1 -8.2 -0.55 -8.2 -0.7 -8.2 -0.85 -8.1 -1.1 -7.95 -1.35 -7.95 -1.5 -7.95 -1.65 -8.1 -2.0 -8.2 -2.3 -8.2 -2.45 L-8.15 -2.55 Q-7.85 -2.4 -7.7 -2.45 -7.65 -2.3 -7.75 -2.2 L-7.85 -2.05 -7.55 -1.75 Q-7.25 -1.35 -7.3 -1.15 -7.35 -0.5 -7.2 -0.4 L-6.75 -0.35 Q-6.5 -0.35 -6.15 -0.45 L-5.45 -0.8 Q-5.3 -0.35 -5.2 -0.2 -5.05 0.0 -4.8 0.0 -4.5 0.0 -4.3 0.25 -4.1 0.45 -3.8 0.45 -3.6 0.45 -3.25 0.15 -2.85 -0.15 -2.85 -0.45 L-2.85 -0.75 Q-2.9 -0.9 -3.05 -1.05 L-3.5 -1.4 -4.15 -1.45 Q-4.5 -1.45 -4.5 -1.8 -4.5 -1.9 -4.3 -2.0 -4.15 -2.15 -4.15 -2.3 L-4.25 -2.4 -4.35 -2.5 Q-4.55 -2.75 -4.55 -2.9 -4.55 -3.0 -4.45 -3.3 L-4.15 -3.75 -4.0 -3.5 -3.8 -3.3 Q-3.55 -3.55 -3.25 -3.55 L-2.75 -3.4 Q-2.35 -3.3 -2.0 -3.3 L-1.65 -3.3 -1.7 -3.65 Q-1.8 -3.95 -1.8 -4.35 L-1.75 -4.7 -1.7 -4.85 Q-1.65 -5.05 -1.5 -5.15 -1.2 -5.35 -1.2 -5.6 L-1.25 -5.9 -1.3 -6.2 -1.2 -6.55 -1.05 -6.9 -1.0 -7.0 Q-0.65 -7.65 -0.65 -7.85 L-0.8 -7.85 -1.0 -8.0 Q-1.05 -8.15 -1.1 -8.45 L-1.1 -8.5 -1.3 -8.75 Q-1.55 -9.0 -1.7 -9.0 -1.85 -9.0 -2.1 -8.85 -2.3 -8.7 -2.5 -8.7 L-3.15 -8.85 Q-3.55 -8.85 -3.85 -8.6 -4.2 -8.35 -4.7 -8.3 L-5.6 -8.2 Q-6.35 -8.0 -6.35 -7.45 -6.35 -7.05 -6.0 -7.1 L-5.25 -7.15 Q-5.05 -7.15 -4.95 -6.95 L-4.8 -6.65 -4.4 -6.35 Q-4.2 -6.2 -4.2 -6.0 L-4.4 -5.95 Q-4.55 -5.9 -4.55 -5.8 L-4.55 -5.8 -4.6 -5.6 Q-4.65 -5.5 -4.7 -5.45 L-4.8 -5.35 Q-5.0 -5.05 -5.1 -5.0 L-5.65 -4.95 -6.1 -4.95 -6.15 -4.95 Q-6.2 -4.95 -6.4 -5.05 L-6.65 -5.15 -7.05 -5.05 -7.55 -5.0 -7.8 -4.95 Q-7.7 -5.1 -7.7 -5.2 L-7.75 -5.8 Q-7.8 -6.2 -7.7 -6.4 -7.55 -6.9 -7.5 -7.3 -7.45 -7.65 -7.2 -7.75 -6.95 -7.85 -6.9 -8.0 L-6.85 -8.4 -6.75 -8.55 Q-6.65 -8.7 -6.45 -8.7 -6.6 -9.1 -6.55 -9.5 L-6.5 -9.45 -6.0 -9.45 Q-5.95 -9.75 -5.85 -9.8 L-5.65 -9.85 -5.5 -9.85 -5.45 -9.85 -5.3 -9.75 Q-5.35 -9.6 -5.25 -9.55 L-5.1 -9.45 Q-4.95 -9.3 -4.9 -9.05 L-4.9 -8.75 -4.35 -8.75 -4.25 -8.9 -4.15 -9.1 -3.9 -9.45 -3.8 -9.25 Q-3.7 -9.1 -3.5 -9.1 -3.35 -9.1 -3.15 -9.25 L-3.0 -9.45 -3.7 -9.7 Q-4.25 -9.9 -4.45 -10.1 L-4.45 -10.4 -4.5 -10.45 Q-4.65 -10.6 -4.65 -10.85 L-5.3 -10.85 Q-5.35 -10.7 -5.6 -10.5 L-5.65 -10.45 Q-5.8 -10.3 -5.85 -10.3 -5.95 -10.3 -6.15 -10.5 -6.3 -10.75 -6.2 -11.05 L-6.55 -11.05 -6.55 -11.2 -6.4 -11.5 Q-6.2 -11.75 -6.2 -11.95 -6.2 -12.1 -6.3 -12.25 -6.45 -12.45 -6.45 -12.6 -6.2 -12.95 -6.1 -13.1 -5.65 -12.4 -5.45 -12.4 -5.3 -12.4 -5.15 -12.55 -5.0 -12.65 -5.0 -12.75 L-4.55 -12.9 -4.15 -12.95 -3.8 -12.85 Q-3.6 -12.8 -3.6 -12.55 L-3.85 -12.05 -3.95 -11.35 Q-3.95 -10.85 -3.9 -10.75 -3.8 -10.55 -3.35 -10.45 -3.05 -10.4 -2.7 -10.15 L-2.05 -9.75 Q-1.9 -9.75 -1.6 -10.2 -1.3 -10.7 -1.1 -10.7 -1.05 -10.7 -1.0 -10.6 L-0.85 -10.45 Q-0.65 -10.25 -0.6 -10.25 L-0.2 -10.35 0.2 -10.45 0.7 -10.4 Q0.3 -9.85 0.3 -9.5 0.3 -9.45 0.4 -9.35 0.5 -9.3 0.55 -9.25 L0.65 -9.15 Q0.65 -9.2 0.6 -9.2 L0.2 -9.5 0.15 -9.55 Q-0.05 -9.55 -0.25 -9.35 -0.4 -9.2 -0.55 -9.2 -0.65 -9.2 -0.75 -9.3 L-0.85 -9.55 -0.95 -9.55 -0.95 -8.8 Q-0.7 -8.95 -0.45 -8.7 -0.25 -8.5 -0.15 -8.2 L-0.1 -8.15 -0.05 -8.1 Q0.05 -8.2 0.15 -8.4 0.3 -8.75 0.25 -8.9 L0.35 -8.95 0.7 -9.15 0.85 -8.9 Q0.95 -8.6 1.2 -8.6 L1.6 -8.55 Q1.85 -8.15 2.05 -7.85 2.5 -7.25 3.0 -7.25 3.15 -7.25 3.25 -7.5 3.35 -7.75 3.85 -7.75 L4.5 -7.6 4.4 -7.3 4.3 -7.0 Q4.3 -6.8 4.5 -6.7 4.7 -6.6 4.7 -6.4 L4.6 -6.05 Q4.5 -5.85 4.5 -5.7 4.5 -5.55 4.65 -5.3 L4.7 -5.2 4.95 -4.9 Q5.25 -4.3 6.45 -4.3 L7.15 -4.35 M0.0 -11.7 L0.2 -11.6 0.0 -11.4 Q-0.25 -11.15 -0.55 -11.1 -0.5 -11.3 -0.5 -12.0 L-0.45 -12.0 0.0 -11.7 M3.7 0.35 L3.85 0.35 Q4.1 0.35 4.2 0.25 L4.6 -0.15 4.7 -0.35 4.85 -0.5 5.05 -0.7 5.05 -0.85 5.0 -1.35 4.9 -1.85 Q4.9 -2.1 4.7 -2.25 4.6 -2.4 4.45 -2.35 4.1 -2.3 4.05 -2.5 L4.0 -2.75 3.95 -2.95 Q3.55 -3.15 3.55 -3.25 L3.65 -3.65 Q3.65 -3.75 3.5 -3.95 3.35 -4.2 3.15 -4.2 2.9 -4.2 2.75 -4.35 2.65 -4.45 2.65 -4.55 L2.7 -4.75 2.75 -4.95 Q2.75 -5.15 2.45 -5.45 2.1 -5.8 2.05 -6.05 2.05 -6.45 1.95 -6.55 1.85 -6.75 1.4 -6.75 1.05 -6.75 0.95 -6.4 0.8 -5.85 0.65 -5.65 L0.25 -5.2 0.3 -4.8 Q0.3 -4.45 -0.15 -4.3 -0.65 -4.15 -0.65 -3.7 -0.65 -3.45 -0.4 -3.4 L0.05 -3.35 Q0.0 -3.2 -0.65 -3.1 -1.2 -3.0 -1.2 -2.45 -1.2 -2.3 -0.8 -1.8 L-0.7 -1.65 -0.6 -1.45 Q-0.45 -1.3 -0.3 -1.25 L-0.15 -1.2 0.05 -1.2 0.35 -1.15 Q0.65 -1.15 0.75 -1.4 L0.95 -1.85 1.3 -1.95 Q1.55 -2.05 1.5 -2.3 1.35 -2.75 1.65 -2.95 1.85 -3.1 2.3 -3.1 2.6 -3.1 2.85 -3.0 L2.85 -3.0 Q2.7 -2.9 2.65 -2.9 2.55 -2.95 2.55 -3.05 L2.35 -2.9 2.35 -2.9 Q2.0 -2.65 2.0 -2.4 L2.1 -2.2 2.1 -2.15 2.35 -1.95 Q2.45 -2.1 2.65 -2.15 L2.8 -2.2 2.85 -2.2 2.6 -1.85 Q2.15 -1.3 2.15 -0.9 2.15 -0.6 2.35 -0.25 L2.35 -0.2 2.45 -0.05 2.65 -0.1 Q2.9 -0.1 3.2 0.1 L3.35 0.2 3.3 0.3 3.15 0.45 3.1 0.45 Q3.0 0.45 2.95 0.4 L2.9 0.3 2.8 0.4 2.8 0.65 Q2.8 0.95 3.05 1.0 L3.2 1.05 Q3.5 1.1 3.7 1.3 L3.75 0.6 Q3.8 0.4 4.1 0.35 L3.7 0.35 M0.55 -6.1 L0.45 -6.1 Q0.25 -6.1 0.15 -6.15 L-0.15 -6.45 -0.2 -6.45 -0.45 -6.25 Q-0.65 -6.1 -0.95 -6.05 -0.5 -5.6 -0.25 -5.45 -0.15 -5.4 -0.05 -4.75 0.0 -5.25 0.1 -5.5 0.25 -5.95 0.55 -6.1 M3.1 -6.9 L2.45 -6.9 2.4 -6.8 Q2.35 -6.7 2.35 -6.55 2.35 -6.3 2.85 -6.05 L2.9 -6.0 Q3.45 -5.75 3.45 -5.4 L3.65 -5.6 Q3.85 -5.8 3.9 -6.1 L3.8 -6.3 Q3.7 -6.4 3.7 -6.55 3.7 -6.7 4.1 -7.5 L3.9 -7.25 3.65 -7.0 3.45 -6.9 Q3.2 -6.75 3.15 -6.8 L3.1 -6.9 M0.35 -1.0 Q0.15 -0.9 0.0 -0.85 L-0.2 -0.85 -0.2 -0.85 -0.4 -0.9 -0.5 -1.0 Q-0.7 -0.85 -0.7 -0.55 L-0.65 -0.35 -0.5 -0.25 -0.05 -0.25 0.0 -0.25 0.15 -0.25 Q0.5 -0.3 0.55 -0.35 0.65 -0.45 0.6 -1.15 L0.35 -1.0 M5.2 -4.05 L5.3 -4.25 5.4 -4.4 5.25 -4.45 5.15 -4.45 4.7 -4.6 4.55 -4.6 Q4.6 -4.05 4.35 -3.95 L4.2 -3.95 Q4.2 -3.8 4.25 -3.7 4.4 -3.5 4.65 -3.5 L4.75 -3.5 5.0 -3.4 Q5.1 -3.4 5.3 -3.2 L5.35 -3.25 5.35 -3.3 5.4 -3.5 5.3 -3.75 5.3 -3.75 Q5.2 -3.95 5.2 -4.05 M0.25 8.25 L0.4 8.4 0.25 8.65 0.25 8.95 Q0.25 9.2 0.0 9.2 L-0.2 9.2 -0.25 9.2 -0.3 9.2 -0.55 9.3 -0.8 9.35 Q-1.0 9.35 -1.15 9.2 -1.25 9.1 -1.25 8.85 -1.25 8.6 -1.15 8.55 -1.05 8.45 -0.8 8.4 -0.65 8.4 -0.4 8.25 L-0.25 8.2 -0.1 8.15 Q0.1 8.15 0.25 8.25 M3.7 6.95 L3.8 6.85 4.45 6.4 4.45 6.7 Q4.55 7.0 4.75 7.0 4.9 7.0 4.9 7.3 4.9 7.55 4.65 7.8 L4.5 7.95 Q4.35 8.1 4.15 8.1 3.85 8.1 3.5 7.9 3.2 7.75 3.2 7.65 3.2 7.3 3.7 6.95 M-5.85 -6.8 Q-6.0 -6.45 -6.0 -6.2 -6.0 -5.95 -5.85 -5.8 L-5.7 -5.7 Q-5.55 -5.6 -5.4 -5.6 -5.05 -5.6 -4.75 -5.9 L-4.7 -5.95 -4.65 -6.0 -4.75 -6.1 -4.85 -6.2 Q-5.0 -6.4 -4.9 -6.7 L-5.2 -6.65 -5.5 -6.6 Q-5.65 -6.6 -5.75 -6.7 L-5.85 -6.8 M-2.45 -3.2 L-2.95 -2.8 -3.15 -2.65 Q-3.65 -2.3 -4.1 -2.55 L-4.0 -2.4 Q-3.85 -2.2 -3.55 -2.15 L-3.25 -2.15 -3.15 -2.15 -3.0 -2.2 -3.0 -2.2 Q-2.9 -2.0 -2.9 -1.45 -2.8 -1.45 -2.75 -1.55 -2.7 -1.6 -2.7 -1.65 L-2.25 -1.45 -2.2 -1.55 Q-2.15 -1.55 -2.15 -1.7 L-2.15 -1.8 -2.2 -1.85 -2.2 -1.9 -2.3 -2.0 -2.35 -2.1 -2.3 -2.15 -1.9 -2.4 -1.8 -2.45 Q-2.0 -2.5 -2.1 -2.6 -2.35 -2.8 -2.45 -3.2 M-2.15 -0.35 Q-2.2 -0.4 -2.35 -0.45 L-2.45 -0.4 -2.15 -0.35 M-0.35 0.75 L-1.05 0.55 -1.55 0.5 -1.55 0.5 -1.8 1.1 Q-2.05 1.55 -2.45 1.4 L-2.5 1.45 -2.5 1.6 Q-2.5 1.9 -2.1 2.05 L-1.6 2.1 -1.25 2.05 -1.2 2.0 -0.8 1.85 -0.55 1.75 Q-0.4 1.65 -0.4 1.6 L-0.5 1.3 -0.55 1.05 -0.5 0.9 -0.35 0.75 M-1.5 2.3 L-1.9 2.6 -1.9 2.85 -1.75 2.8 -1.55 2.75 Q-1.5 2.75 -1.45 2.8 L-1.25 3.05 Q-1.05 3.3 -0.8 3.3 -0.45 3.3 -0.3 3.1 L-0.2 2.85 -0.4 2.75 Q-0.6 2.55 -0.6 2.3 L-0.85 2.45 -0.95 2.6 Q-1.15 2.45 -1.25 2.4 -1.4 2.3 -1.5 2.3 M-3.25 3.8 L-3.5 3.35 Q-3.75 3.0 -4.05 3.0 -4.3 3.0 -4.55 3.2 -4.85 3.4 -4.9 3.6 -4.9 3.85 -5.1 4.1 -5.3 4.35 -5.3 4.45 -5.3 4.75 -5.2 4.85 L-5.2 4.9 Q-5.1 5.05 -4.8 5.05 -4.55 4.8 -4.4 4.8 L-4.15 4.9 Q-3.75 4.9 -3.65 4.45 L-3.65 4.2 Q-3.55 3.9 -3.3 3.8 L-3.25 3.8 M-5.0 0.1 Q-5.2 0.2 -5.4 0.35 L-5.45 0.3 -5.6 0.2 -5.65 0.1 -5.75 0.0 -5.85 0.1 -5.95 0.3 -5.9 0.45 Q-5.85 0.65 -5.65 0.85 L-5.3 1.0 Q-5.15 1.0 -4.95 0.85 L-4.85 0.75 Q-4.7 0.6 -4.65 0.4 L-4.65 0.35 -4.75 0.3 -4.9 0.1 -5.0 0.1" fill="#243430" fill-rule="evenodd" stroke="none"/>
    <path d="M-4.5 -19.45 L-4.55 -19.3 -3.65 -19.45 -3.5 -19.45 -3.35 -18.9 Q-3.25 -18.7 -2.8 -18.7 L-2.4 -18.8 Q-2.05 -18.9 -2.05 -19.05 -2.05 -19.15 -2.25 -19.4 -2.45 -19.65 -2.45 -19.75 L-2.25 -20.1 Q-2.05 -20.4 -2.05 -20.6 -2.05 -21.1 -1.85 -21.2 L-1.4 -21.25 -0.9 -21.15 Q-1.05 -20.8 -1.05 -20.6 -1.05 -20.3 -0.9 -20.15 -0.8 -20.1 -0.5 -20.0 L-0.5 -20.4 0.4 -20.4 Q0.5 -20.35 0.5 -20.05 L0.3 -19.5 0.15 -18.9 Q0.15 -18.7 0.3 -18.6 L0.85 -18.55 1.4 -18.6 Q1.5 -18.65 1.7 -18.85 L2.05 -19.15 Q2.35 -19.4 2.35 -19.65 L2.25 -19.9 Q2.2 -20.1 2.2 -20.2 2.2 -20.4 2.35 -20.6 L2.55 -20.85 2.7 -20.7 Q3.0 -20.6 3.15 -20.3 3.2 -20.25 3.5 -19.8 3.75 -19.45 3.75 -19.25 3.75 -19.05 3.4 -18.7 3.4 -18.5 3.45 -18.3 L3.5 -17.95 Q3.5 -17.85 3.7 -17.6 L4.0 -17.25 4.5 -17.25 Q4.7 -17.2 4.7 -17.05 4.7 -16.9 4.55 -16.7 4.45 -16.5 4.45 -16.35 L4.5 -16.25 4.75 -15.05 Q4.8 -14.65 4.8 -14.0 5.55 -13.85 5.6 -13.45 L5.55 -13.05 5.55 -12.9 5.4 -12.85 Q5.2 -12.85 4.8 -13.1 L4.35 -13.3 Q3.95 -13.4 3.85 -13.6 3.8 -13.7 3.8 -14.05 3.8 -14.55 4.0 -14.7 3.9 -14.95 3.55 -15.05 L3.1 -15.1 3.1 -15.65 Q3.05 -15.65 3.0 -15.65 L2.85 -15.7 Q2.5 -15.7 2.35 -15.4 2.25 -15.2 2.25 -15.05 2.25 -14.85 2.3 -14.75 L2.55 -14.55 2.55 -14.35 1.6 -14.35 Q1.6 -15.1 1.05 -15.45 L1.2 -15.75 Q1.35 -16.0 1.35 -16.2 L1.2 -16.2 0.9 -16.25 Q0.6 -16.25 0.55 -16.05 0.5 -15.95 0.5 -15.45 L0.05 -15.45 Q0.05 -15.25 0.25 -14.9 L0.5 -14.35 Q0.1 -14.05 -0.15 -14.05 -0.25 -14.05 -0.5 -14.25 -0.7 -14.4 -1.0 -14.4 L-1.05 -14.45 -1.05 -14.95 -1.05 -15.1 -1.3 -14.8 Q-1.45 -14.65 -1.45 -14.55 -1.45 -14.4 -1.3 -14.25 L-1.15 -14.0 Q-1.15 -13.8 -1.45 -13.6 -1.7 -13.4 -1.8 -13.4 L-2.7 -13.5 Q-3.15 -13.7 -3.15 -14.3 -3.15 -14.5 -3.0 -14.75 -2.9 -15.0 -2.9 -15.1 -2.9 -15.3 -3.0 -15.4 -3.15 -15.5 -3.15 -15.65 L-2.95 -16.15 -2.7 -16.65 -2.75 -16.9 -2.8 -17.0 Q-3.3 -17.1 -3.35 -16.75 L-4.65 -16.75 -4.65 -17.1 -4.2 -17.65 Q-4.4 -17.75 -4.5 -18.0 -4.65 -18.25 -4.65 -18.4 -4.75 -18.4 -4.75 -18.5 -5.1 -18.2 -5.25 -17.95 -5.25 -18.2 -5.1 -18.25 -4.9 -18.35 -4.9 -18.5 -5.1 -18.9 -5.1 -19.1 -5.1 -19.35 -4.5 -19.45 M6.7 -6.25 L6.6 -5.7 Q6.6 -5.4 6.7 -5.2 L6.65 -5.2 6.05 -5.15 Q5.75 -5.15 5.55 -5.3 5.3 -5.55 5.3 -6.1 L5.35 -6.35 5.4 -6.55 5.45 -6.55 5.6 -6.6 6.1 -6.45 Q6.45 -6.3 6.7 -6.25 M0.2 -13.15 L0.35 -13.0 0.15 -12.7 Q-0.2 -12.25 -0.5 -12.25 L-0.5 -12.25 Q-0.85 -12.25 -0.85 -12.6 -0.85 -12.85 -0.7 -13.05 L-0.65 -13.15 Q-0.45 -13.45 -0.15 -13.5 L0.2 -13.15 M2.7 -10.65 Q2.9 -10.75 3.0 -10.8 3.15 -10.9 3.3 -11.05 L3.4 -10.95 Q3.7 -10.75 3.7 -10.6 L3.6 -10.4 Q3.45 -10.2 3.45 -10.05 3.45 -9.9 3.6 -9.75 L3.7 -9.5 3.6 -9.3 3.45 -9.1 3.35 -9.3 3.1 -9.45 2.95 -9.25 2.9 -9.2 2.85 -9.2 2.8 -9.2 Q2.55 -9.2 2.25 -9.35 2.0 -9.55 2.0 -9.65 L2.0 -9.95 2.05 -10.2 Q2.1 -10.45 2.45 -10.55 L2.6 -10.65 2.7 -10.65 M1.05 -5.65 L1.1 -5.7 Q1.25 -6.1 1.6 -6.05 L2.05 -5.3 2.2 -5.1 2.1 -5.05 Q1.9 -4.8 1.9 -4.5 L1.8 -4.05 1.75 -4.0 Q1.65 -3.7 1.45 -3.7 L1.45 -3.7 0.7 -3.85 0.5 -3.8 0.3 -3.75 0.2 -3.9 0.05 -3.95 0.25 -4.6 Q0.35 -4.8 0.8 -5.05 0.9 -5.1 1.05 -5.65 M0.4 -2.85 L0.5 -2.75 Q0.35 -2.2 -0.1 -2.2 L-0.3 -2.2 -0.35 -2.25 -0.4 -2.5 -0.4 -2.55 Q-0.4 -2.7 -0.3 -2.85 -0.2 -3.05 0.0 -3.05 0.15 -3.05 0.4 -2.85 M3.5 -1.4 L3.55 -1.5 3.65 -1.6 Q3.9 -1.95 3.95 -1.95 L4.05 -1.9 Q4.2 -1.9 4.45 -1.7 L4.5 -1.65 Q4.5 -0.65 4.35 -0.45 4.35 -0.4 4.25 -0.4 L3.8 -0.35 3.65 -0.35 Q3.35 -0.3 3.1 -0.35 L3.05 -0.35 Q2.85 -0.4 2.7 -0.5 2.6 -0.65 2.6 -0.8 2.6 -0.9 2.65 -1.0 L2.7 -1.1 2.95 -1.1 Q3.3 -1.2 3.5 -1.4 M-1.65 -17.6 L-1.85 -17.1 -2.5 -16.85 Q-2.7 -16.75 -2.7 -16.45 -2.7 -16.0 -2.3 -15.8 -2.0 -15.6 -1.7 -15.6 L-1.35 -15.6 Q-1.15 -15.65 -1.05 -15.8 -0.95 -15.9 -1.0 -16.25 -0.95 -16.4 -0.65 -16.6 -0.4 -16.75 -0.4 -17.0 L-0.45 -17.25 -0.65 -17.6 -0.7 -17.65 -1.15 -18.05 Q-1.4 -18.05 -1.6 -17.7 L-1.65 -17.6 M-5.65 -15.1 L-5.55 -15.1 -5.2 -15.35 Q-4.9 -15.65 -4.75 -15.65 L-4.75 -15.6 Q-4.85 -15.0 -4.8 -14.6 -4.95 -14.35 -5.25 -14.35 L-5.35 -14.35 Q-5.5 -14.4 -5.55 -14.55 L-5.65 -15.1 M-2.35 -12.6 L-2.15 -12.55 Q-1.9 -12.35 -1.55 -11.8 -1.7 -11.6 -1.85 -11.35 L-2.15 -11.0 Q-2.3 -10.85 -2.4 -10.85 L-2.8 -10.95 Q-2.95 -10.95 -3.0 -11.1 L-3.05 -11.3 -3.0 -11.35 -2.9 -11.4 Q-3.15 -11.4 -3.25 -11.55 L-3.25 -11.85 Q-3.25 -12.2 -3.0 -12.4 -2.75 -12.6 -2.35 -12.6 M-1.05 -6.9 L-1.2 -6.55 -1.25 -6.55 -1.45 -6.3 -1.45 -6.3 -1.6 -6.15 -1.9 -5.7 -1.9 -5.6 -1.8 -5.3 -1.75 -5.2 -1.7 -5.0 -1.7 -4.85 -1.75 -4.7 -2.0 -4.4 -2.1 -4.3 Q-2.3 -4.15 -2.45 -4.15 -2.65 -4.15 -2.95 -4.45 L-3.0 -4.5 -3.2 -4.7 -3.3 -4.75 -3.35 -4.75 -3.6 -4.7 -3.7 -4.65 -3.85 -4.6 Q-4.1 -4.6 -4.3 -4.7 L-4.35 -4.75 Q-4.55 -4.95 -4.55 -5.2 L-4.55 -5.3 Q-4.5 -5.5 -4.3 -5.65 L-4.15 -5.75 Q-3.7 -6.0 -3.7 -6.15 L-4.0 -6.65 Q-4.3 -7.1 -4.3 -7.3 -4.3 -7.45 -4.0 -7.65 L-3.55 -8.0 Q-2.8 -8.45 -2.5 -8.45 L-2.3 -8.4 -2.2 -8.25 Q-2.15 -8.1 -2.15 -7.7 -1.9 -7.85 -1.6 -8.0 L-1.2 -7.6 -1.2 -7.6 -1.0 -7.3 -1.05 -6.9 M-4.55 -1.0 L-4.45 -1.05 -3.95 -1.1 Q-3.85 -1.1 -3.45 -0.85 L-3.4 -0.8 -3.25 -0.75 -3.05 -0.6 -3.0 -0.6 -3.1 -0.4 -3.3 -0.2 -3.4 -0.15 Q-3.55 -0.05 -3.7 0.0 L-3.85 0.0 Q-4.15 0.0 -4.35 -0.2 L-4.6 -0.45 -4.65 -0.7 Q-4.65 -0.95 -4.55 -1.0 M-5.45 -4.3 L-5.3 -3.75 -5.25 -3.65 -5.0 -3.45 -4.9 -3.35 -4.9 -2.85 Q-4.9 -2.65 -5.05 -2.55 L-5.25 -2.5 -5.3 -2.5 -5.95 -2.5 -6.15 -2.4 -6.2 -2.4 -6.45 -2.3 Q-6.6 -2.3 -6.85 -2.55 -7.1 -2.85 -7.1 -3.2 -7.1 -3.35 -6.75 -3.6 L-6.75 -4.25 -6.35 -4.35 -6.25 -4.4 -6.1 -4.45 -5.9 -4.5 Q-5.6 -4.5 -5.45 -4.3" fill="#3c5c31" fill-rule="evenodd" stroke="none"/>
  </g>
</svg>
