<?xml version="1.0" encoding="UTF-8" standalone="no"?>
<svg xmlns:xlink="http://www.w3.org/1999/xlink" height="27.45px" width="28.15px" xmlns="http://www.w3.org/2000/svg">
  <g transform="matrix(1.0, 0.0, 0.0, 1.0, 5.75, 5.55)">
    <path d="M5.85 -5.35 L7.6 -5.5 8.3 -5.55 Q12.25 -5.55 15.4 -3.7 L15.45 -3.7 16.15 -3.25 16.2 -3.25 17.6 -2.1 17.6 -2.1 Q17.95 -1.85 18.25 -1.55 19.15 -0.7 19.8 0.25 L20.55 1.3 21.2 2.55 Q22.4 5.15 22.4 8.2 22.4 11.1 21.3 13.65 20.25 15.95 18.25 17.85 L18.3 17.85 17.35 18.75 17.3 18.75 16.5 19.35 Q12.95 21.9 8.3 21.9 3.25 21.9 -0.5 18.85 -1.1 18.45 -1.65 17.85 L-2.5 16.95 Q-3.6 15.75 -4.25 14.4 -5.75 11.6 -5.75 8.2 -5.75 3.65 -3.15 0.25 -2.9 -0.2 -2.55 -0.55 -2.15 -1.1 -1.65 -1.55 L-1.65 -1.55 -0.9 -2.2 -0.75 -2.35 Q0.0 -3.0 0.85 -3.5 L0.85 -3.5 1.15 -3.7 1.15 -3.7 Q3.3 -4.95 5.85 -5.35" fill="url(#gradient0)" fill-rule="evenodd" stroke="none"/>
  </g>
  <defs>
    <radialGradient cx="0" cy="0" gradientTransform="matrix(0.0175, 0.0, 0.0, 0.0175, 8.35, 8.15)" gradientUnits="userSpaceOnUse" id="gradient0" r="819.2" spreadMethod="pad">
      <stop offset="0.0" stop-color="#e9ac35" stop-opacity="0.5764706"/>
      <stop offset="0.807843137254902" stop-color="#efc573" stop-opacity="0.0"/>
    </radialGradient>
  </defs>
</svg>
