<?xml version="1.0" encoding="UTF-8" standalone="no"?>
<svg xmlns:xlink="http://www.w3.org/1999/xlink" height="58.55px" width="49.55px" xmlns="http://www.w3.org/2000/svg">
  <g transform="matrix(1.0, 0.0, 0.0, 1.0, 8.55, 6.45)">
    <path d="M1.1 -0.3 Q1.0 -0.15 0.8 -0.1 L0.75 -0.05 Q1.1 0.2 1.1 0.7 1.1 1.0 0.85 1.4 L0.55 1.7 0.75 1.9 Q1.1 2.3 1.1 2.85 1.1 3.1 0.85 3.35 L0.7 3.45 Q1.0 3.65 1.0 4.15 L0.9 4.55 Q1.1 4.75 1.1 5.25 1.1 6.1 0.95 6.35 0.65 6.9 -0.45 6.9 -0.85 6.9 -1.15 6.65 -1.2 6.9 -1.4 7.15 -1.75 7.5 -2.3 7.5 L-3.05 7.4 -3.15 7.55 -3.4 7.85 -3.25 7.8 Q-2.8 7.8 -2.45 8.05 -2.1 7.7 -1.7 7.7 -1.25 7.7 -0.9 8.1 -0.55 7.8 -0.05 7.8 0.65 7.8 0.9 8.45 1.05 8.8 1.0 9.15 L1.0 9.2 Q1.35 9.45 1.35 9.95 1.35 10.25 1.1 10.4 L1.05 10.45 Q1.35 10.75 1.35 11.05 L1.4 11.1 1.6 11.4 Q1.75 11.25 1.9 11.2 2.5 10.95 2.7 11.9 3.1 11.5 3.1 11.25 3.1 10.8 3.25 10.75 3.45 10.7 3.7 10.95 4.1 11.4 4.25 11.95 4.4 11.65 4.6 11.4 5.25 10.6 5.35 11.9 L5.5 11.8 Q5.6 11.7 5.75 11.7 6.15 11.7 6.25 12.05 L6.3 12.15 Q6.4 12.05 6.65 11.95 6.8 11.9 7.0 11.95 7.15 11.7 7.45 11.75 7.95 11.85 8.1 12.55 L8.25 12.4 Q8.5 12.1 8.7 12.25 8.95 12.4 8.95 13.0 8.5 15.0 8.0 15.0 7.6 15.0 7.5 14.6 7.05 14.6 6.9 14.2 L6.75 14.2 Q6.15 14.2 5.95 13.8 L5.9 13.6 Q5.65 14.0 5.35 14.0 4.25 14.0 4.0 13.45 3.7 13.8 3.15 13.8 2.85 13.8 2.5 13.55 2.2 13.7 1.7 13.7 1.2 13.7 1.05 13.3 0.65 13.5 0.15 13.5 -0.1 13.5 -0.25 13.25 L-0.3 13.25 Q-0.75 13.6 -0.9 13.6 L-1.15 13.55 Q-1.3 13.9 -1.65 13.9 L-1.85 13.8 Q-1.95 13.7 -2.1 13.7 -2.2 13.7 -2.25 13.8 -2.35 13.9 -2.45 13.9 L-2.6 13.9 -2.75 14.05 Q-3.05 14.3 -3.45 14.3 -3.75 14.3 -3.95 13.85 L-4.0 14.05 Q-4.15 14.5 -4.8 14.5 L-5.05 14.5 Q-5.2 14.8 -5.8 14.8 -6.1 14.8 -6.3 14.7 L-6.4 14.8 Q-6.55 15.0 -6.8 15.0 -7.35 15.0 -7.7 14.35 L-7.9 13.65 Q-7.9 12.3 -7.1 13.05 L-6.8 13.35 Q-6.75 12.75 -6.5 12.45 -6.25 12.15 -5.85 12.3 L-5.75 12.4 Q-5.7 12.15 -5.45 12.0 L-4.85 11.95 Q-4.5 12.05 -4.3 12.25 L-4.3 12.05 Q-4.3 11.4 -4.05 11.25 -3.75 11.1 -3.4 11.4 -3.05 11.65 -2.85 12.0 L-2.7 11.6 Q-2.45 11.15 -2.05 11.15 -1.7 11.15 -1.4 11.6 L-1.4 11.65 Q-1.1 11.4 -0.75 11.35 L-0.75 11.35 -0.8 11.15 Q-0.8 10.1 -0.3 9.9 L-0.4 9.7 -1.05 9.5 Q-1.5 9.65 -2.05 9.65 -2.35 9.65 -2.6 9.5 L-2.7 9.6 Q-3.45 10.2 -3.65 10.2 -3.85 10.2 -4.05 9.95 L-4.25 10.0 Q-4.95 10.0 -5.3 9.5 L-5.35 9.5 Q-5.4 9.7 -5.6 9.95 -6.05 10.5 -6.6 10.5 -7.15 10.5 -7.3 10.2 L-7.3 10.1 Q-7.55 10.1 -8.1 8.85 L-8.55 7.7 Q-8.55 7.4 -8.35 7.1 -8.35 6.55 -7.9 6.15 -7.55 5.8 -7.0 5.75 L-6.5 5.75 Q-6.4 5.4 -6.1 5.15 -5.65 4.8 -5.0 4.65 -4.35 4.55 -3.9 4.75 -3.4 4.95 -3.4 5.45 -3.4 5.75 -3.6 6.0 -3.45 6.1 -3.3 6.25 L-3.05 5.9 Q-2.75 5.6 -2.25 5.6 -1.8 5.55 -1.5 5.75 L-1.45 5.8 -0.65 5.1 -0.85 4.85 -1.0 4.3 Q-1.0 3.95 -0.7 3.65 L-0.7 3.65 Q-0.95 3.55 -1.05 3.35 L-1.1 3.0 Q-1.1 2.15 -0.75 1.75 L-0.5 1.55 -0.8 1.15 Q-1.1 0.65 -1.1 0.4 -1.1 0.1 -0.9 -0.1 L-1.0 -0.4 -1.2 -0.65 Q-1.4 -0.95 -1.45 -1.3 -1.45 -1.8 -1.15 -2.05 L-1.1 -2.85 Q-1.1 -4.65 -0.8 -5.65 -0.5 -6.55 -0.05 -6.45 0.4 -6.3 0.7 -5.1 1.0 -3.8 1.0 -1.7 L1.0 -1.5 Q1.35 -1.2 1.35 -0.9 1.35 -0.55 1.1 -0.3 M16.1 -2.15 Q16.65 -2.0 17.1 -1.55 17.55 -1.1 17.55 -0.6 16.85 0.45 16.4 0.9 16.55 1.1 16.55 1.35 L16.5 1.55 16.65 1.55 Q17.0 1.55 17.1 1.75 L17.3 1.75 18.55 1.85 Q18.7 1.95 18.75 2.2 L19.4 2.15 Q19.9 2.15 19.95 2.8 L19.95 3.9 20.05 3.9 Q21.7 3.95 21.7 5.65 L21.65 5.9 21.8 6.05 Q22.15 6.35 22.15 6.4 22.15 6.65 22.0 6.8 21.8 7.0 21.4 6.95 21.4 7.15 21.3 7.4 21.1 7.7 20.8 7.7 L20.65 7.7 20.6 7.7 Q19.95 8.1 19.8 8.1 19.0 8.1 18.6 7.5 18.4 7.2 18.35 6.95 L17.5 6.8 Q17.25 6.8 16.95 6.25 16.85 6.6 16.45 6.6 16.0 6.6 15.9 6.1 L15.85 5.55 Q15.65 5.5 15.55 5.4 L14.5 5.45 Q13.85 5.45 13.45 4.9 L13.3 4.6 13.15 4.6 Q12.2 4.6 11.7 4.15 11.4 3.9 11.35 3.65 L10.8 4.2 Q10.75 4.2 10.45 3.7 L10.4 3.75 10.15 3.95 Q10.35 4.2 10.4 4.5 10.7 4.35 11.35 4.6 11.85 4.8 12.25 5.15 L12.3 5.2 Q12.6 5.1 13.05 5.3 13.55 5.5 13.9 5.9 L13.95 5.95 14.35 5.95 Q14.75 6.0 15.05 6.25 L15.3 6.25 Q15.7 6.35 16.0 6.8 16.35 7.35 16.35 8.2 16.35 8.4 16.25 8.55 16.05 8.85 15.65 8.85 L15.55 8.85 15.65 9.0 Q15.65 9.2 15.55 9.35 15.4 9.55 15.05 9.55 L14.7 9.5 Q14.55 9.95 14.1 9.95 13.25 9.95 12.65 9.55 12.15 9.25 12.05 8.85 11.75 9.25 11.1 9.25 11.05 9.25 10.65 8.5 L10.6 8.45 Q10.05 8.45 9.55 8.0 L9.4 8.4 9.65 8.75 Q9.9 9.1 9.95 9.6 10.1 9.6 10.3 9.7 11.0 10.05 11.0 10.45 11.0 10.75 10.85 11.0 10.65 11.3 10.3 11.3 9.85 11.3 9.65 10.7 L9.6 10.35 9.4 10.4 Q8.65 10.4 8.2 9.75 7.9 9.35 7.9 9.05 7.9 8.55 8.1 8.3 L8.0 7.75 Q8.0 7.0 8.25 6.5 8.5 6.1 8.8 6.1 9.1 6.1 9.3 6.55 9.65 6.35 10.05 6.35 10.65 6.4 10.95 6.9 11.1 6.85 11.3 6.8 12.35 6.75 12.35 8.0 L12.35 8.1 Q12.6 8.0 13.05 8.0 L12.75 7.6 Q12.75 7.2 12.9 7.05 L12.65 7.0 Q12.15 7.0 11.95 6.45 L11.9 6.25 11.8 6.25 Q10.55 6.25 10.2 5.8 10.1 5.6 10.1 5.25 L10.1 5.15 9.85 5.3 Q9.3 5.65 9.0 5.65 8.45 5.65 8.1 4.85 L7.9 4.1 Q7.9 3.55 8.3 3.3 8.4 3.25 8.55 3.25 L8.45 2.5 Q8.45 1.85 8.75 1.65 9.05 1.45 9.5 1.65 9.75 1.75 10.0 1.95 10.05 1.8 10.2 1.75 10.5 1.55 10.9 1.7 11.75 2.0 11.9 2.65 12.25 2.45 12.65 2.4 13.55 2.25 13.85 2.75 14.05 2.9 14.3 3.5 L14.5 3.45 14.85 3.4 Q15.85 3.4 16.15 3.85 L16.25 4.1 Q16.6 4.45 16.8 4.8 L17.2 4.7 18.9 4.9 18.75 4.8 Q18.2 4.75 17.95 4.25 17.85 4.05 17.8 3.8 17.6 3.75 17.5 3.55 L17.35 3.3 Q16.9 3.6 16.65 3.6 16.5 3.6 16.25 3.15 15.95 3.15 15.8 2.9 L15.75 2.6 15.8 2.25 15.05 2.35 Q14.5 2.35 14.25 1.9 14.1 1.65 14.1 1.4 14.1 0.95 14.5 0.65 14.75 0.45 15.05 0.4 L14.95 0.2 Q14.65 -0.5 14.65 -0.85 14.65 -1.7 15.1 -2.0 15.5 -2.3 16.1 -2.15 M34.4 14.1 Q35.05 14.25 35.55 14.8 36.05 15.4 36.05 16.2 36.05 16.6 35.75 16.85 35.45 17.05 34.75 17.05 34.65 17.05 34.45 17.15 34.25 17.25 34.15 17.25 33.55 17.25 33.2 16.75 33.15 17.05 32.85 17.05 32.5 17.05 32.3 16.9 32.05 17.2 31.55 17.2 31.05 17.2 30.75 16.6 30.25 16.5 30.05 16.0 L29.95 15.25 29.15 14.4 28.8 14.6 Q29.05 14.6 29.25 14.7 29.55 14.85 29.55 15.3 29.55 15.55 29.4 15.8 30.15 15.7 30.15 16.5 30.15 16.7 29.95 17.1 L29.9 17.1 29.95 17.1 Q30.35 17.35 30.65 17.8 31.0 18.3 31.0 18.6 L30.95 18.75 Q31.4 19.4 31.4 19.95 31.4 20.25 31.1 20.75 30.75 21.3 30.5 21.3 L28.8 22.65 Q28.7 22.65 28.6 22.55 L28.35 22.55 Q27.75 22.55 27.2 21.6 L26.75 20.65 26.55 20.7 26.45 20.7 Q26.35 20.8 26.15 20.8 25.9 20.8 25.2 20.0 24.95 20.35 24.45 20.35 L24.2 20.35 24.15 20.9 Q24.05 21.4 23.4 21.4 L23.15 21.4 23.1 21.55 Q22.95 21.8 22.65 21.8 L22.4 21.8 22.2 22.1 Q22.75 22.1 22.75 23.35 22.75 23.7 22.6 24.25 L22.5 24.55 22.55 24.55 Q23.2 24.75 23.55 25.2 23.85 25.6 23.85 26.1 23.85 26.55 23.75 26.9 L23.65 27.25 23.65 27.75 Q23.65 27.85 23.5 28.1 23.75 28.6 23.75 29.15 23.75 29.45 23.5 29.8 L23.3 29.95 23.6 30.0 23.55 29.95 Q23.55 29.15 24.7 29.35 25.85 29.6 25.85 30.2 25.85 30.45 25.55 31.0 25.95 31.45 25.95 32.0 L25.9 32.85 Q26.65 32.65 26.65 33.55 26.65 33.75 26.25 34.5 L27.1 34.7 27.1 34.65 27.0 34.2 Q26.9 34.05 26.8 33.8 L26.65 33.1 Q26.65 32.7 26.95 32.5 L27.0 32.5 26.75 31.8 26.75 31.7 26.7 31.65 Q26.65 31.5 26.65 31.3 L26.75 30.4 Q26.75 30.0 27.15 29.9 26.9 29.6 26.75 28.7 L26.65 27.35 Q26.65 26.45 26.95 26.15 27.2 25.85 27.6 26.05 L27.7 26.15 Q27.7 24.95 28.55 25.0 28.9 25.0 29.15 25.3 L29.35 25.65 Q29.7 25.5 30.05 25.5 31.2 25.5 31.2 27.0 31.2 27.25 31.0 27.5 31.1 27.6 31.1 27.8 31.1 28.15 30.85 28.8 31.4 29.05 31.4 29.75 31.4 30.1 31.05 30.5 30.85 30.75 30.6 30.9 30.85 31.05 31.05 31.35 31.25 31.75 31.3 32.1 L31.55 32.1 31.95 32.15 Q32.2 32.05 32.7 32.0 L32.8 32.0 32.65 31.65 32.4 30.75 Q32.4 30.25 32.7 30.05 32.85 29.95 33.05 30.0 33.1 29.7 33.3 29.6 33.55 29.5 33.95 29.7 34.45 29.95 34.65 30.3 L34.9 30.05 Q35.25 29.75 35.75 29.7 37.05 29.6 37.05 31.05 L36.9 31.55 36.95 31.55 37.6 31.55 Q38.05 31.7 38.3 31.85 L38.5 31.65 Q39.25 30.95 39.65 30.95 41.0 30.95 41.0 32.45 41.0 32.95 40.7 33.4 40.35 34.0 39.6 34.0 38.55 34.0 38.05 33.45 L37.9 33.2 37.8 33.2 37.7 33.3 Q37.05 33.85 36.7 33.85 36.6 33.85 36.05 33.15 L35.95 33.0 35.8 33.05 Q35.25 33.05 34.8 31.9 L34.65 31.4 34.55 31.55 Q34.3 31.9 34.05 31.9 L34.0 31.9 33.95 31.95 33.75 32.3 33.75 32.5 Q33.75 32.8 33.5 33.0 33.75 33.2 33.75 33.45 33.75 33.7 33.6 33.85 33.35 34.05 32.85 34.05 L32.6 33.95 Q32.35 34.5 31.55 34.5 31.05 34.5 30.7 33.85 30.4 34.05 30.05 34.05 29.65 34.05 29.55 33.25 L29.55 32.4 Q29.55 31.35 29.8 30.95 29.0 30.85 29.0 30.35 L29.1 30.0 29.15 29.5 Q29.15 29.4 29.15 29.3 L29.0 28.4 Q29.0 27.95 29.4 27.65 29.2 27.45 29.05 27.15 28.75 27.7 28.45 27.7 L28.5 28.45 Q28.2 29.5 27.85 29.85 28.9 29.95 28.9 30.6 28.9 30.95 28.7 31.25 29.0 31.55 29.0 32.1 29.0 32.35 28.75 32.7 L28.5 32.95 Q28.7 33.25 28.7 33.7 28.7 33.95 28.5 34.15 L28.5 34.35 Q28.5 34.85 28.4 35.15 28.2 35.7 27.75 35.7 L27.65 35.7 27.6 35.75 Q27.25 36.05 26.8 36.05 25.7 36.05 25.3 35.7 25.1 35.55 25.1 35.3 25.1 35.0 25.2 34.85 L24.85 34.3 24.8 34.3 Q24.45 34.3 24.35 34.05 24.3 33.95 24.3 33.75 24.3 33.6 24.5 33.3 24.7 33.0 24.7 32.75 24.7 32.6 24.8 32.25 L24.9 31.85 24.85 31.6 24.8 31.6 Q24.35 31.6 24.1 31.4 L24.1 31.45 Q24.1 31.7 23.95 31.95 L24.0 32.6 24.0 33.25 Q23.9 33.75 23.45 33.75 23.2 33.75 22.95 33.1 L22.75 32.45 22.75 32.2 Q22.65 32.1 22.6 32.0 L22.55 31.65 22.55 31.45 Q22.25 31.35 22.1 31.1 21.9 30.85 21.9 30.65 21.9 30.3 22.25 30.15 22.0 30.05 21.9 29.9 L21.8 29.55 22.05 28.25 Q21.9 28.0 21.9 27.9 L22.15 27.65 Q22.15 27.25 22.4 27.2 L22.45 27.2 22.1 26.95 Q21.5 26.45 21.5 26.2 21.5 25.7 21.6 25.25 L21.7 24.95 21.2 24.3 Q20.7 23.6 20.7 23.5 L20.75 23.35 20.4 23.35 19.75 23.35 19.35 23.8 Q18.7 24.4 18.35 24.4 L17.75 24.35 17.4 24.8 Q16.95 25.2 16.25 25.2 16.05 25.2 15.95 25.15 15.9 25.4 15.6 25.6 15.25 25.85 14.75 25.85 14.4 25.85 14.1 25.2 L14.05 25.0 Q13.9 25.3 13.6 25.3 13.3 25.3 13.2 25.15 L12.65 25.2 Q12.25 25.2 12.15 24.8 L12.15 24.45 Q12.15 22.55 12.95 23.3 L13.35 23.7 13.7 23.3 Q14.3 22.65 14.3 23.7 L14.3 24.0 Q14.55 23.95 14.95 24.15 15.5 24.35 15.75 24.65 L15.75 24.6 Q15.75 24.3 16.8 23.8 L17.1 23.65 17.45 23.35 Q18.0 22.95 18.45 22.65 L18.55 22.65 18.5 22.35 18.45 22.0 18.4 21.7 18.15 21.7 Q16.8 21.7 17.2 19.95 16.95 19.8 16.7 19.4 16.5 19.55 16.25 19.55 15.6 19.55 15.4 19.05 L15.35 18.5 Q15.05 18.6 14.7 18.6 14.4 18.6 14.25 18.4 L14.1 18.4 Q13.65 18.4 13.4 18.05 13.25 17.85 13.25 17.65 13.25 17.55 13.35 17.3 L13.5 16.9 Q13.5 16.8 13.45 16.6 13.35 16.35 13.35 16.25 13.35 15.8 13.8 15.75 14.3 15.75 14.5 16.25 L14.55 16.7 Q14.75 16.55 15.15 16.65 15.45 16.75 15.75 17.05 16.05 17.35 16.05 17.55 L16.0 17.8 16.15 17.85 Q16.45 18.0 16.7 18.3 L16.8 18.4 Q17.15 18.35 17.6 18.7 18.05 19.05 18.3 19.45 L18.35 19.4 Q18.55 19.25 18.9 19.75 19.25 20.3 19.45 20.95 L20.2 21.2 20.55 21.1 20.6 21.1 Q20.6 20.2 21.5 20.6 L21.55 20.6 21.5 20.55 Q21.5 20.1 21.75 19.95 L22.35 19.95 22.5 20.05 22.7 19.75 Q23.0 19.3 23.3 19.1 L23.4 19.05 Q23.45 18.65 23.7 18.4 23.95 18.05 24.4 18.1 24.75 18.15 25.05 18.45 25.25 18.15 25.5 17.95 26.15 17.5 26.35 18.25 26.6 18.0 27.05 18.15 27.4 18.25 27.7 18.65 28.0 19.05 28.0 19.5 28.2 19.55 28.25 19.9 28.45 19.85 28.7 20.0 28.9 19.45 29.2 19.3 L29.05 18.95 29.0 18.45 28.65 17.8 Q28.3 16.95 28.2 16.65 27.75 16.6 27.55 16.25 L27.5 15.85 27.5 15.75 27.15 15.75 Q26.55 15.75 26.4 15.3 L26.35 14.9 Q26.35 14.6 26.5 14.35 26.05 14.25 25.9 13.8 L25.85 13.2 Q25.85 11.8 27.0 12.25 L27.2 12.35 Q27.3 11.65 28.4 12.4 28.8 12.7 29.15 13.0 29.4 12.9 29.75 13.25 30.1 13.65 30.3 13.65 30.5 13.65 30.9 14.0 31.4 14.55 31.6 15.2 31.8 15.3 31.95 15.5 L32.05 15.4 Q32.25 15.15 32.55 15.1 L32.75 15.1 Q32.75 14.45 33.25 14.15 33.7 13.9 34.4 14.1 M19.35 5.8 L19.95 6.05 20.0 5.75 19.1 5.05 Q19.2 5.2 19.25 5.4 L19.35 5.8 M28.75 14.6 Q28.4 14.6 27.8 13.75 L27.65 13.9 27.6 13.95 Q27.9 14.0 28.15 14.25 28.35 14.45 28.45 14.7 L28.5 14.65 28.75 14.6 M32.35 43.65 L32.75 43.6 Q33.2 43.6 33.5 43.9 33.85 44.25 33.85 44.8 34.1 44.9 34.25 45.1 34.6 45.5 34.6 46.15 34.6 46.5 34.35 46.65 L34.1 46.8 34.15 47.05 Q34.15 47.6 34.0 47.85 L33.85 48.0 Q33.95 48.2 33.95 48.55 L33.95 48.75 34.1 48.75 Q34.95 48.9 35.05 49.3 L35.65 49.25 Q36.3 49.25 36.75 49.65 37.25 50.05 37.25 50.65 37.25 51.1 37.05 51.5 36.8 52.1 36.25 52.1 34.1 52.1 34.1 50.6 L34.1 50.5 Q33.75 50.5 33.45 49.95 L33.25 49.55 32.85 49.6 Q32.5 49.6 32.35 48.9 L32.2 48.15 Q32.2 48.05 32.3 47.95 L32.15 47.7 32.1 47.25 Q32.1 46.3 32.5 46.0 L32.1 45.9 Q32.1 46.3 31.75 46.4 31.8 46.75 31.8 47.2 31.8 47.55 31.45 47.75 31.15 47.95 30.75 47.95 30.3 48.7 29.85 48.7 29.0 48.7 28.6 48.1 28.4 48.8 27.95 48.8 L27.45 48.75 Q27.4 49.0 27.15 49.25 26.95 49.4 26.75 49.5 26.65 49.9 26.0 50.5 25.3 51.15 24.9 51.15 24.8 51.15 24.55 51.3 L24.4 51.4 Q24.25 51.8 23.85 51.8 22.1 51.8 22.1 50.1 22.1 49.35 22.7 48.5 23.2 47.85 23.55 48.1 23.9 47.75 24.25 47.45 L24.5 47.25 Q24.6 46.45 25.45 45.35 L25.6 45.15 25.5 44.6 Q25.5 44.3 25.55 44.1 L25.5 43.85 Q25.5 43.65 25.8 43.15 26.05 42.65 26.3 42.35 L26.35 42.05 26.35 41.5 26.0 41.5 Q26.15 41.65 26.15 41.85 L26.05 42.15 Q25.9 42.4 25.6 42.45 25.75 42.65 25.75 42.95 25.75 43.2 25.65 43.35 25.55 43.6 25.35 43.65 L25.05 44.2 24.8 44.7 Q24.8 44.9 24.0 45.6 23.25 46.2 23.05 46.2 22.45 46.2 22.25 45.85 21.9 46.2 21.7 46.2 21.5 46.2 21.3 46.05 L21.2 46.2 20.8 46.7 Q20.75 46.9 20.5 47.15 20.2 47.45 19.9 47.45 19.35 47.45 19.2 47.15 L19.15 46.8 Q19.15 46.3 20.0 46.1 L20.0 46.05 19.65 45.5 Q19.65 45.4 19.95 45.15 L20.05 45.1 Q19.9 45.0 19.85 44.75 L19.85 44.3 Q19.85 43.75 19.95 43.6 20.2 43.3 21.2 43.5 21.3 43.35 21.4 43.25 L21.4 43.05 Q21.4 42.25 22.2 41.55 22.5 41.25 22.7 41.3 22.95 41.4 22.95 41.85 22.95 42.35 22.85 42.9 L22.8 43.05 22.85 43.35 Q22.85 43.75 22.65 44.25 L22.65 44.3 22.75 44.25 Q23.05 44.25 23.2 44.5 L23.3 44.75 23.5 44.55 23.6 44.25 Q23.8 43.95 23.75 43.6 L23.7 43.1 23.65 42.6 Q23.65 42.1 23.95 41.9 24.2 41.7 24.55 41.75 24.65 41.25 25.15 41.2 L25.05 41.05 24.9 40.5 Q24.9 39.5 26.25 39.8 26.75 39.95 27.15 40.2 27.6 40.55 27.6 40.85 27.6 41.05 27.45 41.15 L27.5 41.45 Q27.5 42.7 27.25 43.3 27.25 43.75 27.15 43.95 27.1 44.2 26.95 44.35 27.25 44.9 27.25 45.7 27.25 46.3 26.65 46.3 L26.25 46.25 26.05 46.95 Q25.85 47.5 25.55 47.75 25.45 48.15 25.1 48.85 24.5 50.0 24.0 50.05 L24.05 50.1 Q24.65 49.95 25.2 49.35 L25.45 49.1 25.4 48.8 Q25.4 48.7 25.75 48.15 26.1 47.6 26.45 47.3 26.9 46.9 27.15 47.05 27.4 46.6 27.7 46.3 28.5 45.4 28.65 46.4 L29.6 46.35 29.7 46.35 Q29.8 45.8 30.0 45.45 30.15 45.15 30.35 45.05 L30.25 44.65 Q30.25 44.15 30.65 43.75 30.95 43.4 31.45 43.35 31.95 43.25 32.25 43.55 L32.35 43.65 M-5.0 6.75 Q-5.15 6.75 -5.25 6.9 -5.3 7.0 -5.45 7.0 L-5.7 7.0 Q-5.85 7.25 -6.35 7.5 L-6.5 7.55 -6.4 7.7 Q-6.25 8.0 -6.25 8.4 L-6.3 8.5 -6.25 8.5 -5.55 8.5 -5.5 8.55 Q-5.3 8.05 -4.55 8.35 L-4.4 8.4 -4.2 8.15 -4.0 8.0 Q-4.2 7.9 -4.5 7.25 L-4.75 6.75 -5.0 6.75" fill="#ffb500" fill-rule="evenodd" stroke="none"/>
  </g>
</svg>
