<?xml version="1.0" encoding="UTF-8" standalone="no"?>
<svg xmlns:xlink="http://www.w3.org/1999/xlink" height="29.95px" width="48.8px" xmlns="http://www.w3.org/2000/svg">
  <g transform="matrix(1.0, 0.0, 0.0, 1.0, 24.4, 14.95)">
    <path d="M-2.0 -5.35 L-1.6 -5.5 Q-1.1 -5.75 -0.9 -5.85 L-0.8 -5.9 -0.25 -5.9 Q-0.15 -5.9 -0.1 -5.8 -0.05 -5.75 -0.05 -5.7 -0.05 -4.8 0.95 -4.5 1.7 -4.25 2.75 -4.3 3.35 -4.35 4.05 -3.95 L4.45 -4.2 4.85 -4.55 4.85 -4.35 4.6 -3.6 4.8 -3.45 4.75 -3.4 4.3 -3.0 4.4 -3.25 Q3.5 -3.95 2.8 -3.9 L2.75 -3.9 Q1.65 -3.85 0.8 -4.1 -0.35 -4.5 -0.45 -5.5 L-0.75 -5.5 Q-0.95 -5.35 -1.45 -5.15 -2.05 -4.9 -2.15 -4.9 L-2.15 -4.9 -2.0 -5.35 M14.55 -0.9 L15.1 -1.35 15.05 -1.7 Q15.05 -1.85 15.1 -1.9 L15.25 -1.7 15.35 -1.6 15.85 -1.9 15.95 -1.45 16.0 -1.0 Q15.85 -1.05 15.75 -1.2 L15.7 -1.3 15.3 -1.05 15.3 -0.9 14.55 -0.9 M12.3 1.6 L12.45 1.65 12.5 1.6 13.3 1.6 13.4 1.9 13.0 1.6 12.6 2.1 12.55 2.1 12.6 2.45 12.75 2.85 12.15 2.5 Q11.7 2.85 11.3 2.85 L10.85 2.85 10.75 3.05 10.6 3.4 10.6 3.35 10.45 2.95 10.5 2.85 10.5 2.8 Q10.2 2.7 9.95 2.55 L9.7 2.8 9.3 3.2 Q9.3 3.2 9.3 3.15 L9.65 2.3 9.5 2.2 Q9.35 2.0 9.2 1.65 L8.45 1.8 8.4 1.8 8.3 1.75 8.5 1.6 8.55 1.6 9.75 1.6 9.7 1.7 9.8 1.95 9.85 1.95 Q10.25 2.45 11.25 2.45 L11.35 2.15 11.35 1.8 11.55 2.1 11.7 2.3 12.1 2.05 12.0 1.6 12.3 1.6 M-12.7 -4.65 L-12.55 -4.8 Q-12.6 -4.95 -12.75 -5.25 L-12.95 -5.6 -12.9 -5.6 -12.2 -5.35 Q-11.85 -5.9 -11.45 -6.65 L-11.7 -7.15 -12.0 -7.75 -11.95 -7.75 -11.5 -7.65 -11.15 -7.4 -10.85 -8.05 -10.85 -8.15 -10.9 -8.45 Q-11.15 -8.5 -11.45 -8.6 -11.8 -8.75 -11.9 -8.95 L-11.45 -9.0 -11.1 -9.1 -10.6 -9.1 -10.45 -9.35 Q-10.45 -9.6 -10.5 -9.85 L-11.05 -9.9 -11.3 -9.85 -11.5 -9.8 Q-11.6 -9.8 -11.6 -9.8 L-11.6 -9.85 -11.15 -10.05 Q-10.85 -10.15 -10.7 -10.35 -10.9 -10.8 -11.25 -10.8 L-11.5 -10.8 -11.9 -10.45 -12.2 -10.05 -12.2 -10.3 Q-12.15 -10.8 -12.0 -11.05 -12.4 -11.25 -12.75 -11.6 L-13.15 -11.25 Q-13.35 -10.95 -13.65 -10.8 -13.55 -10.95 -13.35 -11.4 L-13.1 -12.0 Q-13.8 -12.65 -14.1 -12.7 L-14.25 -12.65 -14.25 -12.6 Q-14.4 -12.45 -14.65 -12.45 -14.8 -12.45 -15.05 -12.6 L-15.05 -12.6 -15.3 -12.7 -15.9 -12.5 Q-16.5 -12.35 -16.75 -12.35 -17.75 -12.35 -18.1 -12.95 -18.45 -13.45 -18.35 -14.55 -18.4 -14.55 -18.5 -14.6 L-18.55 -14.75 -18.5 -14.9 -18.35 -14.95 -18.1 -14.95 -18.0 -14.95 -17.95 -14.85 -17.9 -14.75 Q-18.05 -13.65 -17.8 -13.15 L-17.8 -13.15 Q-17.5 -12.75 -16.75 -12.75 L-16.0 -12.9 -16.0 -12.9 -15.8 -12.95 -15.6 -13.8 Q-15.45 -13.5 -15.35 -13.05 L-15.3 -13.1 -15.2 -13.05 Q-15.05 -13.05 -14.85 -12.95 L-14.65 -12.85 Q-14.55 -12.85 -14.5 -12.9 L-14.5 -12.9 -14.55 -13.05 -14.6 -13.1 -14.25 -13.8 -14.2 -13.65 -14.1 -13.25 -14.0 -13.05 Q-13.7 -13.05 -13.3 -12.7 L-13.15 -12.85 -12.9 -13.2 -12.9 -12.65 -12.95 -12.4 -12.65 -12.05 -12.5 -11.9 Q-12.05 -12.35 -11.75 -12.65 L-11.75 -12.6 Q-11.7 -12.45 -11.85 -12.05 L-12.0 -11.5 Q-11.6 -11.2 -11.25 -11.2 L-10.9 -11.15 -10.85 -11.1 -10.2 -11.6 Q-10.25 -11.5 -10.3 -10.4 L-10.25 -10.3 -9.9 -10.35 -9.55 -10.3 Q-9.55 -10.25 -9.8 -10.05 L-10.05 -9.8 -10.05 -9.2 -9.55 -8.8 -10.35 -8.7 -10.5 -8.5 Q-10.45 -8.3 -10.35 -8.1 L-9.95 -8.2 -9.45 -8.3 -9.75 -7.9 -10.0 -7.65 -9.4 -7.2 -9.05 -7.55 -8.7 -7.85 -8.7 -7.8 Q-8.7 -7.55 -8.8 -7.25 L-8.9 -6.9 -8.85 -6.9 -8.4 -6.65 -8.2 -6.9 -7.85 -7.3 Q-7.95 -7.05 -7.95 -6.95 -7.95 -6.7 -7.85 -6.45 L-7.8 -6.45 -7.5 -6.55 -7.5 -6.55 -7.2 -6.7 -7.2 -7.0 Q-7.15 -7.25 -7.0 -7.35 L-7.0 -7.3 Q-7.0 -7.2 -6.9 -6.95 L-6.8 -6.7 -6.4 -6.55 Q-6.2 -6.85 -6.0 -7.25 -5.95 -6.95 -5.95 -6.35 L-5.7 -6.2 Q-5.5 -6.2 -5.3 -6.4 L-5.3 -6.4 -4.8 -6.8 -4.7 -6.85 -4.6 -6.85 -4.25 -7.55 -4.15 -6.9 Q-4.1 -6.55 -4.15 -6.3 L-4.05 -6.25 -4.25 -5.9 -4.45 -6.05 -4.4 -5.95 -4.7 -5.75 -4.95 -5.4 Q-5.0 -5.4 -5.0 -5.55 L-4.95 -5.85 -4.9 -6.2 -5.05 -6.1 -5.05 -6.05 Q-5.4 -5.8 -5.7 -5.8 L-5.75 -5.8 -6.15 -5.3 -6.15 -5.35 Q-6.15 -5.6 -6.2 -6.0 L-6.35 -6.1 -6.9 -6.35 -7.25 -6.25 -7.15 -5.95 -7.25 -5.7 Q-7.4 -5.4 -7.4 -5.2 L-7.5 -5.65 -7.6 -6.1 Q-7.8 -6.0 -7.85 -6.05 L-7.9 -6.05 Q-8.65 -6.3 -9.4 -6.7 -10.2 -7.2 -10.6 -7.7 -10.85 -7.05 -11.1 -6.5 -10.95 -6.4 -10.9 -6.2 -10.8 -5.95 -10.65 -5.85 L-11.25 -5.85 -11.45 -5.85 -11.65 -5.4 -11.2 -4.8 -11.25 -4.8 -11.9 -4.95 -11.9 -5.0 -12.2 -4.65 -12.3 -4.7 -12.55 -4.75 -12.7 -4.65 M-13.15 -2.6 L-13.15 -2.5 -12.45 -2.25 -12.95 -2.15 -13.25 -2.1 -13.25 -2.0 -13.35 -1.55 Q-13.0 -1.55 -12.65 -1.4 L-12.7 -1.3 -13.1 -1.05 -13.2 -0.85 Q-13.1 -0.6 -12.85 -0.45 L-12.8 -0.4 -12.55 -0.6 -12.05 -0.95 -12.05 -0.9 -12.15 -0.35 -12.15 -0.2 -11.65 -0.05 -11.5 -0.25 -11.2 -0.6 -11.2 -0.5 -11.25 0.05 Q-10.9 0.15 -10.6 0.3 L-10.3 0.05 -9.9 -0.35 -9.9 -0.3 Q-9.9 -0.15 -10.15 0.65 -9.75 1.0 -9.65 1.65 L-9.6 1.9 -10.0 2.15 Q-10.0 1.9 -10.05 1.7 L-10.85 1.7 -10.55 1.3 -10.3 1.05 -10.5 0.85 -10.5 0.85 Q-10.85 0.55 -11.7 0.35 L-11.75 0.35 Q-12.75 0.1 -13.1 -0.15 -13.35 -0.3 -13.5 -0.5 L-13.75 -0.55 Q-14.0 -0.6 -14.2 -0.7 L-14.2 -0.8 -13.85 -0.95 -13.7 -1.05 -13.75 -1.55 -13.65 -2.15 -13.65 -2.15 -13.6 -2.3 -13.15 -2.6 M-13.05 6.05 L-13.2 6.45 -13.5 7.15 -13.65 7.15 Q-13.8 7.15 -13.95 7.25 L-13.85 6.95 -13.9 6.9 -13.9 6.85 Q-15.65 6.85 -16.85 6.35 L-16.85 6.55 -16.9 6.55 -17.1 6.9 Q-17.3 7.1 -17.45 7.1 -17.4 6.75 -17.4 6.15 -17.8 5.95 -18.2 5.85 L-18.55 6.45 -18.55 6.4 -18.65 6.05 -18.65 5.75 -18.7 5.75 -19.15 5.75 -19.5 5.5 Q-19.8 5.85 -20.15 5.95 L-19.9 5.15 -19.95 5.05 -20.15 4.85 -20.15 4.85 -20.9 4.1 -21.5 3.9 -21.5 3.9 Q-21.9 3.75 -22.0 3.75 -22.15 3.8 -22.65 4.2 L-22.65 4.25 -22.95 4.45 -22.8 4.45 -22.75 4.8 -22.65 5.1 -22.7 5.2 -23.2 5.1 -23.2 5.35 Q-23.35 5.25 -23.5 5.25 L-23.6 5.25 -23.55 4.8 -23.75 4.5 -23.95 4.1 -23.9 4.1 -23.35 4.35 -22.9 3.9 -22.65 3.7 -22.65 3.65 -22.55 3.45 Q-22.5 3.3 -22.5 3.2 L-22.5 2.7 -22.3 3.05 -22.15 3.35 -22.0 3.35 Q-21.85 3.35 -21.4 3.55 L-21.4 3.55 -20.9 3.7 Q-20.85 3.65 -20.15 4.3 L-20.0 4.2 Q-19.8 4.1 -19.55 3.75 L-19.55 4.0 Q-19.7 4.45 -19.7 4.75 L-19.65 4.8 -19.15 5.3 Q-18.75 4.75 -18.6 4.7 L-18.6 5.4 -17.8 5.55 -17.4 4.85 -17.35 4.9 -17.25 5.75 Q-17.05 5.8 -16.85 5.9 L-16.45 6.05 Q-16.15 5.4 -16.0 5.25 L-16.0 5.3 -15.95 6.2 Q-15.0 6.45 -13.7 6.45 L-13.65 6.45 -13.6 6.25 -13.3 5.65 -13.1 5.95 -13.05 6.05 M-4.15 -3.4 L-4.15 -3.4 -3.7 -3.4 -3.8 -3.2 Q-3.8 -2.65 -3.4 -2.4 L-3.4 -2.4 -2.35 -2.1 -2.35 -2.1 Q-1.55 -1.9 -1.15 -1.35 L-1.15 -1.35 Q-0.85 -0.95 -0.7 -0.3 L-0.85 -0.25 -1.1 -0.25 Q-1.25 -0.75 -1.45 -1.1 -1.8 -1.55 -2.45 -1.7 L-3.6 -2.05 -3.6 -2.05 Q-4.2 -2.35 -4.2 -3.2 L-4.15 -3.4" fill="#6f774b" fill-rule="evenodd" stroke="none"/>
    <path d="M-2.0 -5.35 L-2.15 -4.9 -2.6 -4.85 -2.6 -4.85 -2.95 -4.8 Q-2.95 -4.6 -3.4 -3.9 L-3.7 -3.4 -4.15 -3.4 -4.15 -3.4 -3.75 -4.1 -3.75 -4.1 -3.35 -4.8 -3.35 -4.8 Q-3.45 -4.8 -3.5 -4.85 L-3.55 -5.0 -3.5 -5.15 -3.45 -5.15 -3.85 -5.55 -3.85 -5.55 -4.25 -5.9 -4.05 -6.25 -3.6 -5.85 Q-3.15 -5.55 -3.0 -5.2 L-2.65 -5.25 -2.15 -5.3 -2.0 -5.35 M4.3 -3.0 L4.75 -3.4 4.8 -3.45 4.85 -3.4 5.0 -3.25 5.65 -3.45 5.65 -3.4 5.55 -3.1 5.45 -2.85 6.1 -2.25 Q6.35 -2.8 6.6 -2.8 6.7 -2.8 6.7 -2.75 L6.7 -2.25 7.25 -2.05 7.75 -2.6 7.8 -2.45 7.75 -1.9 7.75 -1.8 Q8.15 -1.6 8.45 -1.25 L8.6 -1.35 8.95 -1.5 8.75 -1.0 8.75 -0.9 8.2 -0.9 8.0 -1.1 7.55 -0.75 7.65 -1.05 7.75 -1.35 7.7 -1.35 7.4 -1.55 7.2 -1.3 6.85 -0.9 6.85 -1.05 Q6.95 -1.35 6.95 -1.75 L6.95 -1.75 6.6 -1.9 6.55 -1.85 6.55 -1.8 6.6 -1.65 6.55 -1.55 Q6.5 -1.45 6.4 -1.45 6.35 -1.45 6.3 -1.55 L6.1 -1.7 6.1 -1.7 5.7 -2.1 5.0 -1.6 5.0 -1.65 5.15 -2.05 Q5.25 -2.3 5.25 -2.45 L4.75 -2.95 4.45 -2.75 4.0 -2.5 4.05 -2.55 4.25 -2.9 4.3 -3.0 M15.85 -1.9 Q16.15 -2.05 16.45 -2.1 L16.5 -2.3 16.6 -2.75 16.75 -2.4 Q16.85 -2.2 16.85 -2.05 L17.05 -2.0 17.0 -2.0 17.35 -2.0 Q17.65 -2.0 17.95 -1.8 L18.0 -1.85 18.45 -2.25 Q18.5 -2.15 18.3 -1.6 18.7 -1.2 19.15 -0.55 20.05 0.8 20.05 1.8 L19.6 3.65 19.2 5.45 Q19.2 5.85 20.1 7.35 20.95 8.7 21.2 8.95 L22.0 9.5 Q22.8 10.2 23.15 11.05 L23.85 13.1 24.35 14.7 Q24.4 14.75 24.4 14.85 L24.3 14.95 24.15 14.95 24.0 14.85 23.45 13.25 22.8 11.2 Q22.5 10.45 21.75 9.8 L20.95 9.25 Q20.65 9.0 19.8 7.6 18.75 5.95 18.8 5.45 18.75 5.35 19.25 3.55 L19.65 1.8 Q19.65 0.9 18.8 -0.35 18.0 -1.55 17.35 -1.6 L17.25 -1.6 Q17.2 -1.25 16.85 -1.0 16.8 -1.05 16.7 -1.35 L16.6 -1.7 16.2 -1.6 16.15 -1.35 16.15 -0.95 16.05 -0.95 16.0 -1.0 15.95 -1.45 15.85 -1.9 M-12.2 -4.65 L-12.25 -4.55 -12.05 -4.35 -11.9 -3.9 -12.1 -3.9 Q-12.3 -4.05 -12.5 -4.0 L-12.7 -4.05 -13.25 -3.6 -13.25 -3.6 -13.35 -3.45 -13.35 -3.25 -12.6 -3.3 -12.7 -3.25 -13.05 -3.1 -13.25 -3.0 Q-13.15 -2.75 -13.15 -2.6 L-13.15 -2.6 -13.6 -2.3 -13.6 -2.3 -13.7 -2.35 -14.05 -2.4 Q-14.2 -2.4 -14.35 -2.6 L-14.05 -2.7 Q-13.85 -2.8 -13.85 -2.85 L-13.6 -2.85 -13.65 -2.95 -13.65 -2.95 Q-13.8 -3.3 -13.75 -3.45 -13.8 -3.6 -13.7 -3.7 L-13.9 -4.2 -13.85 -4.2 -13.35 -4.0 -12.9 -4.4 -12.7 -4.65 -12.55 -4.75 -12.3 -4.7 -12.2 -4.65 M-9.6 1.9 L-9.6 2.35 -9.25 2.65 -9.0 3.0 -9.85 3.0 Q-10.15 3.45 -10.8 3.9 L-11.45 4.35 -11.5 5.05 -12.05 4.7 -12.25 4.85 Q-12.6 5.15 -13.05 6.05 L-13.1 5.95 -13.3 5.65 Q-13.05 5.2 -12.85 4.9 L-13.15 4.45 -13.4 3.9 -12.9 4.15 Q-12.6 4.3 -12.4 4.45 L-11.4 3.85 -11.4 3.0 -11.4 2.95 Q-11.25 3.2 -11.0 3.3 L-10.75 3.4 Q-10.0 2.75 -10.0 2.2 L-10.0 2.15 -9.6 1.9 M-13.5 7.15 L-13.7 7.9 -13.55 8.2 -13.55 8.2 Q-13.35 8.65 -13.35 8.65 -13.35 8.9 -13.75 10.65 L-14.25 12.8 -14.35 12.95 -14.5 12.95 -14.6 12.85 -14.65 12.7 -14.15 10.55 Q-13.75 8.85 -13.75 8.65 L-13.9 8.35 -13.9 8.35 -14.1 7.9 -13.95 7.25 Q-13.8 7.15 -13.65 7.15 L-13.5 7.15 M-23.2 5.35 L-23.25 6.05 Q-23.25 6.2 -22.95 6.45 L-22.1 7.0 -22.1 7.0 Q-20.8 7.95 -20.8 8.95 -20.8 10.2 -22.4 10.65 -22.9 10.75 -23.25 11.35 L-23.85 12.35 Q-23.95 12.4 -24.0 12.4 L-24.15 12.35 -24.2 12.2 -24.15 12.05 -23.6 11.15 Q-23.15 10.4 -22.5 10.25 -21.2 9.9 -21.2 8.95 -21.2 8.15 -22.35 7.35 L-23.2 6.75 Q-23.55 6.45 -23.65 6.2 L-24.4 6.0 -23.65 5.7 -23.6 5.25 -23.5 5.25 Q-23.35 5.25 -23.2 5.35 M-0.7 -0.3 Q-0.6 0.25 -0.6 0.95 -0.6 2.65 -1.4 3.7 -1.95 4.45 -3.15 5.05 -4.65 5.8 -4.8 5.9 -5.5 6.4 -5.5 7.2 -5.5 7.75 -5.15 8.5 -4.75 9.5 -4.1 9.55 -3.6 9.6 -2.95 10.45 -2.25 11.3 -2.25 12.1 L-2.3 12.25 Q-2.35 12.3 -2.45 12.3 L-2.6 12.25 -2.65 12.1 Q-2.7 11.45 -3.25 10.7 L-3.25 10.7 Q-3.8 10.05 -4.15 9.95 -5.0 9.9 -5.5 8.65 -5.9 7.8 -5.9 7.2 -5.9 6.2 -5.05 5.6 L-5.05 5.6 Q-4.85 5.45 -3.35 4.7 -2.25 4.15 -1.7 3.45 -1.0 2.5 -1.0 0.95 -1.0 0.25 -1.1 -0.25 L-0.85 -0.25 -0.7 -0.3" fill="#575d3a" fill-rule="evenodd" stroke="none"/>
    <path d="M4.8 -3.45 L4.6 -3.6 4.85 -4.35 4.85 -4.55 4.45 -4.2 4.05 -3.95 Q3.35 -4.35 2.75 -4.3 1.7 -4.25 0.95 -4.5 -0.05 -4.8 -0.05 -5.7 -0.05 -5.75 -0.1 -5.8 -0.15 -5.9 -0.25 -5.9 L-0.8 -5.9 -0.9 -5.85 Q-1.1 -5.75 -1.6 -5.5 L-2.0 -5.35 -2.15 -5.3 -2.65 -5.25 -3.0 -5.2 Q-3.15 -5.55 -3.6 -5.85 L-4.05 -6.25 -4.15 -6.3 Q-4.1 -6.55 -4.15 -6.9 L-4.25 -7.55 -4.6 -6.85 -4.7 -6.85 -4.8 -6.8 -5.3 -6.4 -5.3 -6.4 Q-5.5 -6.2 -5.7 -6.2 L-5.95 -6.35 Q-5.95 -6.95 -6.0 -7.25 -6.2 -6.85 -6.4 -6.55 L-6.8 -6.7 -6.9 -6.95 Q-7.0 -7.2 -7.0 -7.3 L-7.0 -7.35 Q-7.15 -7.25 -7.2 -7.0 L-7.2 -6.7 -7.5 -6.55 -7.5 -6.55 -7.8 -6.45 -7.85 -6.45 Q-7.95 -6.7 -7.95 -6.95 -7.95 -7.05 -7.85 -7.3 L-8.2 -6.9 -8.4 -6.65 -8.85 -6.9 -8.9 -6.9 -8.8 -7.25 Q-8.7 -7.55 -8.7 -7.8 L-8.7 -7.85 -9.05 -7.55 -9.4 -7.2 -10.0 -7.65 -9.75 -7.9 -9.45 -8.3 -9.95 -8.2 -10.35 -8.1 Q-10.45 -8.3 -10.5 -8.5 L-10.35 -8.7 -9.55 -8.8 -10.05 -9.2 -10.05 -9.8 -9.8 -10.05 Q-9.55 -10.25 -9.55 -10.3 L-9.9 -10.35 -10.25 -10.3 -10.3 -10.4 Q-10.25 -11.5 -10.2 -11.6 L-10.85 -11.1 -10.9 -11.15 -11.25 -11.2 Q-11.6 -11.2 -12.0 -11.5 L-11.85 -12.05 Q-11.7 -12.45 -11.75 -12.6 L-11.75 -12.65 Q-12.05 -12.35 -12.5 -11.9 L-12.65 -12.05 -12.95 -12.4 -12.9 -12.65 -12.9 -13.2 -13.15 -12.85 -13.3 -12.7 Q-13.7 -13.05 -14.0 -13.05 L-14.1 -13.25 -14.2 -13.65 -14.25 -13.8 -14.6 -13.1 -14.55 -13.05 -14.5 -12.9 -14.5 -12.9 Q-14.55 -12.85 -14.65 -12.85 L-14.85 -12.95 Q-15.05 -13.05 -15.2 -13.05 L-15.3 -13.1 -15.35 -13.05 Q-15.45 -13.5 -15.6 -13.8 L-15.8 -12.95 -16.0 -12.9 -16.0 -12.9 -16.75 -12.75 Q-17.5 -12.75 -17.8 -13.15 L-17.8 -13.15 Q-18.05 -13.65 -17.9 -14.75 L-17.95 -14.85 -18.0 -14.95 -18.1 -14.95 -18.35 -14.95 -18.5 -14.9 -18.55 -14.75 -18.5 -14.6 Q-18.4 -14.55 -18.35 -14.55 -18.45 -13.45 -18.1 -12.95 -17.75 -12.35 -16.75 -12.35 -16.5 -12.35 -15.9 -12.5 L-15.3 -12.7 -15.05 -12.6 -15.05 -12.6 Q-14.8 -12.45 -14.65 -12.45 -14.4 -12.45 -14.25 -12.6 L-14.25 -12.65 -14.1 -12.7 Q-13.8 -12.65 -13.1 -12.0 L-13.35 -11.4 Q-13.55 -10.95 -13.65 -10.8 -13.35 -10.95 -13.15 -11.25 L-12.75 -11.6 Q-12.4 -11.25 -12.0 -11.05 -12.15 -10.8 -12.2 -10.3 L-12.2 -10.05 -11.9 -10.45 -11.5 -10.8 -11.25 -10.8 Q-10.9 -10.8 -10.7 -10.35 -10.85 -10.15 -11.15 -10.05 L-11.6 -9.85 -11.6 -9.8 Q-11.6 -9.8 -11.5 -9.8 L-11.3 -9.85 -11.05 -9.9 -10.5 -9.85 Q-10.45 -9.6 -10.45 -9.35 L-10.6 -9.1 -11.1 -9.1 -11.45 -9.0 -11.9 -8.95 Q-11.8 -8.75 -11.45 -8.6 -11.15 -8.5 -10.9 -8.45 L-10.85 -8.15 -10.85 -8.05 -11.15 -7.4 -11.5 -7.65 -11.95 -7.75 -12.0 -7.75 -11.7 -7.15 -11.45 -6.65 Q-11.85 -5.9 -12.2 -5.35 L-12.9 -5.6 -12.95 -5.6 -12.75 -5.25 Q-12.6 -4.95 -12.55 -4.8 L-12.7 -4.65 -12.9 -4.4 -13.35 -4.0 -13.85 -4.2 -13.9 -4.2 -13.7 -3.7 Q-13.8 -3.6 -13.75 -3.45 -13.8 -3.3 -13.65 -2.95 L-13.65 -2.95 -13.6 -2.85 -13.85 -2.85 Q-13.85 -2.8 -14.05 -2.7 L-14.35 -2.6 Q-14.2 -2.4 -14.05 -2.4 L-13.7 -2.35 -13.6 -2.3 -13.6 -2.3 -13.65 -2.15 -13.65 -2.15 -13.75 -1.55 -13.7 -1.05 -13.85 -0.95 -14.2 -0.8 -14.2 -0.7 Q-14.0 -0.6 -13.75 -0.55 L-13.5 -0.5 Q-13.35 -0.3 -13.1 -0.15 -12.75 0.1 -11.75 0.35 L-11.7 0.35 Q-10.85 0.55 -10.5 0.85 L-10.5 0.85 -10.3 1.05 -10.55 1.3 -10.85 1.7 -10.05 1.7 Q-10.0 1.9 -10.0 2.15 L-10.0 2.2 Q-10.0 2.75 -10.75 3.4 L-11.0 3.3 Q-11.25 3.2 -11.4 2.95 L-11.4 3.0 -11.4 3.85 -12.4 4.45 Q-12.6 4.3 -12.9 4.15 L-13.4 3.9 -13.15 4.45 -12.85 4.9 Q-13.05 5.2 -13.3 5.65 L-13.6 6.25 -13.65 6.45 -13.7 6.45 Q-15.0 6.45 -15.95 6.2 L-16.0 5.3 -16.0 5.25 Q-16.15 5.4 -16.45 6.05 L-16.85 5.9 Q-17.05 5.8 -17.25 5.75 L-17.35 4.9 -17.4 4.85 -17.8 5.55 -18.6 5.4 -18.6 4.7 Q-18.75 4.75 -19.15 5.3 L-19.65 4.8 -19.7 4.75 Q-19.7 4.45 -19.55 4.0 L-19.55 3.75 Q-19.8 4.1 -20.0 4.2 L-20.15 4.3 Q-20.85 3.65 -20.9 3.7 L-21.4 3.55 -21.4 3.55 Q-21.85 3.35 -22.0 3.35 L-22.15 3.35 -22.3 3.05 -22.5 2.7 -22.5 3.2 Q-22.5 3.3 -22.55 3.45 L-22.65 3.65 -22.65 3.7 -22.9 3.9 -23.35 4.35 -23.9 4.1 -23.95 4.1 -23.75 4.5 -23.55 4.8 -23.6 5.25 -23.65 5.7 -24.4 6.0 -23.65 6.2 Q-23.55 6.45 -23.2 6.75 L-22.35 7.35 Q-21.2 8.15 -21.2 8.95 -21.2 9.9 -22.5 10.25 -23.15 10.4 -23.6 11.15 L-24.15 12.05 -24.2 12.2 -24.15 12.35 -24.0 12.4 Q-23.95 12.4 -23.85 12.35 L-23.25 11.35 Q-22.9 10.75 -22.4 10.65 -20.8 10.2 -20.8 8.95 -20.8 7.95 -22.1 7.0 L-22.1 7.0 -22.95 6.45 Q-23.25 6.2 -23.25 6.05 L-23.2 5.35 -23.2 5.1 -22.7 5.2 -22.65 5.1 -22.75 4.8 -22.8 4.45 -22.95 4.45 -22.65 4.25 -22.65 4.2 Q-22.15 3.8 -22.0 3.75 -21.9 3.75 -21.5 3.9 L-21.5 3.9 -20.9 4.1 -20.15 4.85 -20.15 4.85 -19.95 5.05 -19.9 5.15 -20.15 5.95 Q-19.8 5.85 -19.5 5.5 L-19.15 5.75 -18.7 5.75 -18.65 5.75 -18.65 6.05 -18.55 6.4 -18.55 6.45 -18.2 5.85 Q-17.8 5.95 -17.4 6.15 -17.4 6.75 -17.45 7.1 -17.3 7.1 -17.1 6.9 L-16.9 6.55 -16.85 6.55 -16.85 6.35 Q-15.65 6.85 -13.9 6.85 L-13.9 6.9 -13.85 6.95 -13.95 7.25 -14.1 7.9 -13.9 8.35 -13.9 8.35 -13.75 8.65 Q-13.75 8.85 -14.15 10.55 L-14.65 12.7 -14.6 12.85 -14.5 12.95 -14.35 12.95 -14.25 12.8 -13.75 10.65 Q-13.35 8.9 -13.35 8.65 -13.35 8.65 -13.55 8.2 L-13.55 8.2 -13.7 7.9 -13.5 7.15 -13.2 6.45 -13.05 6.05 Q-12.6 5.15 -12.25 4.85 L-12.05 4.7 -11.5 5.05 -11.45 4.35 -10.8 3.9 Q-10.15 3.45 -9.85 3.0 L-9.0 3.0 -9.25 2.65 -9.6 2.35 -9.6 1.9 -9.65 1.65 Q-9.75 1.0 -10.15 0.65 -9.9 -0.15 -9.9 -0.3 L-9.9 -0.35 -10.3 0.05 -10.6 0.3 Q-10.9 0.15 -11.25 0.05 L-11.2 -0.5 -11.2 -0.6 -11.5 -0.25 -11.65 -0.05 -12.15 -0.2 -12.15 -0.35 -12.05 -0.9 -12.05 -0.95 -12.55 -0.6 -12.8 -0.4 -12.85 -0.45 Q-13.1 -0.6 -13.2 -0.85 L-13.1 -1.05 -12.7 -1.3 -12.65 -1.4 Q-13.0 -1.55 -13.35 -1.55 L-13.25 -2.0 -13.25 -2.1 -12.95 -2.15 -12.45 -2.25 -13.15 -2.5 -13.15 -2.6 -13.15 -2.6 Q-13.15 -2.75 -13.25 -3.0 L-13.05 -3.1 -12.7 -3.25 -12.6 -3.3 -13.35 -3.25 -13.35 -3.45 -13.25 -3.6 -13.25 -3.6 -12.7 -4.05 -12.5 -4.0 Q-12.3 -4.05 -12.1 -3.9 L-11.9 -3.9 -12.05 -4.35 -12.25 -4.55 -12.2 -4.65 -11.9 -5.0 -11.9 -4.95 -11.25 -4.8 -11.2 -4.8 -11.65 -5.4 -11.45 -5.85 -11.25 -5.85 -10.65 -5.85 Q-10.8 -5.95 -10.9 -6.2 -10.95 -6.4 -11.1 -6.5 -10.85 -7.05 -10.6 -7.7 -10.2 -7.2 -9.4 -6.7 -8.65 -6.3 -7.9 -6.05 L-7.85 -6.05 Q-7.8 -6.0 -7.6 -6.1 L-7.5 -5.65 -7.4 -5.2 Q-7.4 -5.4 -7.25 -5.7 L-7.15 -5.95 -7.25 -6.25 -6.9 -6.35 -6.35 -6.1 -6.2 -6.0 Q-6.15 -5.6 -6.15 -5.35 L-6.15 -5.3 -5.75 -5.8 -5.7 -5.8 Q-5.4 -5.8 -5.05 -6.05 L-5.05 -6.1 -4.9 -6.2 -4.95 -5.85 -5.0 -5.55 Q-5.0 -5.4 -4.95 -5.4 L-4.7 -5.75 -4.4 -5.95 -4.45 -6.05 -4.25 -5.9 -3.85 -5.55 -3.85 -5.55 -3.45 -5.15 -3.5 -5.15 -3.55 -5.0 -3.5 -4.85 Q-3.45 -4.8 -3.35 -4.8 L-3.35 -4.8 -3.75 -4.1 -3.75 -4.1 -4.15 -3.4 -4.2 -3.2 Q-4.2 -2.35 -3.6 -2.05 L-3.6 -2.05 -2.45 -1.7 Q-1.8 -1.55 -1.45 -1.1 -1.25 -0.75 -1.1 -0.25 -1.0 0.25 -1.0 0.95 -1.0 2.5 -1.7 3.45 -2.25 4.15 -3.35 4.7 -4.85 5.45 -5.05 5.6 L-5.05 5.6 Q-5.9 6.2 -5.9 7.2 -5.9 7.8 -5.5 8.65 -5.0 9.9 -4.15 9.95 -3.8 10.05 -3.25 10.7 L-3.25 10.7 Q-2.7 11.45 -2.65 12.1 L-2.6 12.25 -2.45 12.3 Q-2.35 12.3 -2.3 12.25 L-2.25 12.1 Q-2.25 11.3 -2.95 10.45 -3.6 9.6 -4.1 9.55 -4.75 9.5 -5.15 8.5 -5.5 7.75 -5.5 7.2 -5.5 6.4 -4.8 5.9 -4.65 5.8 -3.15 5.05 -1.95 4.45 -1.4 3.7 -0.6 2.65 -0.6 0.95 -0.6 0.25 -0.7 -0.3 -0.85 -0.95 -1.15 -1.35 L-1.15 -1.35 Q-1.55 -1.9 -2.35 -2.1 L-2.35 -2.1 -3.4 -2.4 -3.4 -2.4 Q-3.8 -2.65 -3.8 -3.2 L-3.7 -3.4 -3.4 -3.9 Q-2.95 -4.6 -2.95 -4.8 L-2.6 -4.85 -2.6 -4.85 -2.15 -4.9 -2.15 -4.9 Q-2.05 -4.9 -1.45 -5.15 -0.95 -5.35 -0.75 -5.5 L-0.45 -5.5 Q-0.35 -4.5 0.8 -4.1 1.65 -3.85 2.75 -3.9 L2.8 -3.9 Q3.5 -3.95 4.4 -3.25 L4.3 -3.0 4.25 -2.9 4.05 -2.55 4.0 -2.5 4.45 -2.75 4.75 -2.95 5.25 -2.45 Q5.25 -2.3 5.15 -2.05 L5.0 -1.65 5.0 -1.6 5.7 -2.1 6.1 -1.7 6.1 -1.7 6.3 -1.55 Q6.35 -1.45 6.4 -1.45 6.5 -1.45 6.55 -1.55 L6.6 -1.65 6.55 -1.8 6.55 -1.85 6.6 -1.9 6.95 -1.75 6.95 -1.75 Q6.95 -1.35 6.85 -1.05 L6.85 -0.9 7.2 -1.3 7.4 -1.55 7.7 -1.35 7.75 -1.35 7.65 -1.05 7.55 -0.75 8.0 -1.1 8.2 -0.9 8.75 -0.9 8.75 -1.0 8.95 -1.5 8.6 -1.35 8.45 -1.25 Q8.15 -1.6 7.75 -1.8 L7.75 -1.9 7.8 -2.45 7.75 -2.6 7.25 -2.05 6.7 -2.25 6.7 -2.75 Q6.7 -2.8 6.6 -2.8 6.35 -2.8 6.1 -2.25 L5.45 -2.85 5.55 -3.1 5.65 -3.4 5.65 -3.45 5.0 -3.25 4.85 -3.4 4.8 -3.45 M14.55 -0.9 L15.1 -1.35 15.05 -1.7 Q15.05 -1.85 15.1 -1.9 L15.25 -1.7 15.35 -1.6 15.85 -1.9 Q16.15 -2.05 16.45 -2.1 L16.5 -2.3 16.6 -2.75 16.75 -2.4 Q16.85 -2.2 16.85 -2.05 L17.05 -2.0 17.0 -2.0 17.35 -2.0 Q17.65 -2.0 17.95 -1.8 L18.0 -1.85 18.45 -2.25 Q18.5 -2.15 18.3 -1.6 18.7 -1.2 19.15 -0.55 20.05 0.8 20.05 1.8 L19.6 3.65 19.2 5.45 Q19.2 5.85 20.1 7.35 20.95 8.7 21.2 8.95 L22.0 9.5 Q22.8 10.2 23.15 11.05 L23.85 13.1 24.35 14.7 Q24.4 14.75 24.4 14.85 L24.3 14.95 24.15 14.95 24.0 14.85 23.45 13.25 22.8 11.2 Q22.5 10.45 21.75 9.8 L20.95 9.25 Q20.65 9.0 19.8 7.6 18.75 5.95 18.8 5.45 18.75 5.35 19.25 3.55 L19.65 1.8 Q19.65 0.9 18.8 -0.35 18.0 -1.55 17.35 -1.6 L17.25 -1.6 Q17.2 -1.25 16.85 -1.0 16.8 -1.05 16.7 -1.35 L16.6 -1.7 16.2 -1.6 16.15 -1.35 16.15 -0.95 16.05 -0.95 16.0 -1.0 Q15.85 -1.05 15.75 -1.2 L15.7 -1.3 15.3 -1.05 15.3 -0.9 M12.0 1.6 L12.1 2.05 11.7 2.3 11.55 2.1 11.35 1.8 11.35 2.15 11.25 2.45 Q10.25 2.45 9.85 1.95 L9.8 1.95 9.7 1.7 9.75 1.6 8.55 1.6 8.5 1.6 8.3 1.75 8.4 1.8 8.45 1.8 9.2 1.65 Q9.35 2.0 9.5 2.2 L9.65 2.3 9.3 3.15 Q9.3 3.2 9.3 3.2 L9.7 2.8 9.95 2.55 Q10.2 2.7 10.5 2.8 L10.5 2.85 10.45 2.95 10.6 3.35 10.6 3.4 10.75 3.05 10.85 2.85 11.3 2.85 Q11.7 2.85 12.15 2.5 L12.75 2.85 12.6 2.45 12.55 2.1 12.6 2.1 13.0 1.6 13.4 1.9 13.3 1.6 12.5 1.6 12.45 1.65 12.3 1.6" fill="none" stroke="#000000" stroke-linecap="round" stroke-linejoin="round" stroke-opacity="0.4509804" stroke-width="1.0"/>
  </g>
</svg>
