<?xml version="1.0" encoding="UTF-8" standalone="no"?>
<svg xmlns:xlink="http://www.w3.org/1999/xlink" height="21.7px" width="22.2px" xmlns="http://www.w3.org/2000/svg">
  <g transform="matrix(1.0, 0.0, 0.0, 1.0, 11.1, 10.85)">
    <path d="M1.35 -8.75 L1.45 -8.85 1.75 -9.45 1.55 -10.45 1.45 -10.45 1.8 -10.75 2.9 -10.85 3.3 -9.85 3.1 -9.2 2.6 -8.75 1.45 -8.55 1.35 -8.75 M-6.55 9.8 L-6.65 9.9 -7.9 9.55 -8.2 8.95 -8.2 8.3 -8.05 8.1 -7.65 7.6 -7.65 7.6 -7.35 7.25 -6.05 7.75 -6.0 7.85 -6.0 7.9 -5.95 7.95 -5.8 8.2 -5.75 8.3 -5.75 9.0 -6.55 9.8" fill="#6b5b34" fill-rule="evenodd" stroke="none"/>
    <path d="M1.45 -10.45 L1.55 -10.45 1.75 -9.45 1.45 -8.85 1.35 -8.75 0.95 -8.45 0.4 -8.45 0.35 -8.9 0.5 -9.55 0.35 -8.9 0.1 -8.45 -0.2 -8.6 -0.3 -9.55 0.0 -10.15 0.55 -10.5 1.45 -10.45 M8.2 -3.05 L8.3 -3.0 8.35 -2.75 8.25 -2.75 7.75 -3.25 7.15 -3.5 7.0 -3.45 7.15 -3.55 7.8 -3.4 8.2 -3.05 M-8.25 -4.6 L-8.2 -5.15 -6.9 -6.25 -6.25 -6.1 -5.75 -5.7 -5.75 -4.55 -5.75 -4.15 -5.95 -4.2 -5.85 -3.85 -7.1 -2.9 -7.2 -2.9 -7.25 -2.85 -7.55 -2.9 -7.4 -3.6 -7.7 -4.2 -8.2 -4.6 -8.25 -4.6" fill="#5c4e2d" fill-rule="evenodd" stroke="none"/>
    <path d="M6.5 -4.75 L6.5 -4.8 7.0 -5.25 7.6 -5.6 7.45 -4.95 7.25 -4.55 7.2 -4.3 6.55 -3.8 6.65 -4.05 6.2 -3.95 6.4 -4.5 6.55 -4.6 6.75 -4.55 6.55 -4.75 6.5 -4.75 M-9.95 0.3 L-9.7 -0.45 -9.15 -0.85 -8.6 -0.95 -8.5 -1.0 -8.25 -0.9 -8.25 -0.8 -7.75 -0.35 -7.7 -0.35 -7.85 -0.1 -8.0 0.2 -8.5 0.6 -8.5 0.6 -9.15 0.75 -9.55 0.6 -10.0 0.4 -9.95 0.3" fill="#6e5d35" fill-rule="evenodd" stroke="none"/>
    <path d="M2.85 -8.1 L3.25 -8.05 3.8 -7.7 4.15 -6.8 3.55 -6.5 3.45 -6.65 2.2 -7.4 2.85 -6.4 2.65 -6.4 2.3 -7.15 2.0 -7.0 1.9 -7.2 2.1 -7.2 1.75 -7.45 1.7 -7.55 1.75 -7.55 2.4 -7.7 3.0 -8.05 2.85 -8.1" fill="#7d6b3d" fill-rule="evenodd" stroke="none"/>
    <path d="M1.7 -7.55 L1.6 -7.75 2.6 -8.15 2.85 -8.1 3.0 -8.05 2.4 -7.7 1.75 -7.55 1.7 -7.55" fill="#ae9455" fill-rule="evenodd" stroke="none"/>
    <path d="M0.1 -8.45 L0.35 -8.9 0.5 -9.55 0.35 -8.9 0.4 -8.45 0.4 -8.35 0.4 -8.25 0.1 -7.65 0.1 -7.55 0.05 -7.55 0.05 -7.65 0.05 -7.95 0.05 -8.3 0.1 -8.45 M0.05 -7.45 L0.05 -7.45 -0.1 -6.9 0.05 -7.45" fill="#bda15c" fill-rule="evenodd" stroke="none"/>
    <path d="M-0.2 -8.6 L0.1 -8.45 0.05 -8.3 0.05 -7.95 -0.2 -8.0 -0.15 -8.25 -0.3 -8.6 -0.2 -8.6 M-10.55 5.4 L-10.55 5.4 -11.1 5.8 -10.6 5.4 -10.6 5.4 -10.5 5.35 -10.2 4.95 -10.15 4.9 -9.65 4.65 -9.6 4.6 -8.95 4.1 -9.55 4.6 -9.65 4.65 -10.0 5.1 -10.2 5.2 -10.5 5.35 -10.55 5.4 M0.4 -8.35 L0.55 -8.3 0.7 -7.95 0.75 -7.65 0.7 -7.3 0.6 -7.3 0.4 -7.45 0.1 -7.55 0.1 -7.65 0.4 -8.25 0.4 -8.35 M0.05 -7.45 L0.6 -7.3 0.7 -7.25 0.65 -7.0 0.65 -7.0 0.1 -6.65 -0.1 -6.6 -0.45 -6.85 -0.65 -6.85 -0.35 -7.25 -0.3 -7.6 0.05 -7.45 -0.1 -6.9 0.05 -7.45 M0.05 -7.55 L-0.3 -7.65 -0.25 -7.85 0.05 -7.65 0.05 -7.55 M4.3 -1.2 L4.7 -1.35 4.85 -1.15 4.55 -0.85 4.3 -1.2 M-7.25 -2.85 L-7.2 -2.9 -7.1 -2.9 -7.2 -2.85 -7.25 -2.85 M-8.25 -0.9 L-8.2 -0.9 -7.5 -0.7 -7.7 -0.35 -7.75 -0.35 -8.25 -0.8 -8.25 -0.9 M-0.8 -6.25 L-0.7 -6.65 -0.7 -6.7 -0.7 -6.8 -0.7 -6.8 -0.25 -6.6 -0.3 -6.6 -0.3 -6.4 -0.75 -6.1 -0.75 -6.15 -0.8 -6.25" fill="#574a2a" fill-rule="evenodd" stroke="none"/>
    <path d="M1.75 -7.45 L2.1 -7.2 1.9 -7.2 1.25 -7.25 0.95 -7.35 0.9 -7.25 0.8 -7.25 0.7 -7.3 0.75 -7.65 0.7 -7.95 1.0 -7.95 1.75 -7.45 M0.7 -7.3 L0.7 -7.3 M0.05 -7.65 L-0.25 -7.85 -0.2 -8.0 0.05 -7.95 0.05 -7.65" fill="#544829" fill-rule="evenodd" stroke="none"/>
    <path d="M-8.9 2.5 L-9.2 2.4 -9.5 1.7 -9.55 1.65 -9.6 1.45 -9.65 1.45 -9.25 1.45 -9.15 1.5 -8.6 1.45 -8.15 1.65 -8.0 1.65 -8.0 1.65 -7.95 1.65 -8.15 1.75 -8.15 1.75 -8.35 2.15 -8.45 2.15 -8.85 2.5 -8.9 2.5 M0.1 -7.55 L0.4 -7.45 0.6 -7.3 0.7 -7.3 0.7 -7.25 0.6 -7.3 0.05 -7.45 0.05 -7.45 -0.3 -7.6 -0.3 -7.65 0.05 -7.55 0.1 -7.55 M0.7 -7.3 L0.7 -7.3 M-7.45 1.75 L-7.5 1.75 -7.65 2.05 -7.7 2.05 -7.7 2.05 -7.55 1.7 -7.45 1.75" fill="#56492a" fill-rule="evenodd" stroke="none"/>
    <path d="M2.85 -4.45 L2.9 -4.1 2.7 -4.1 2.65 -4.1 2.45 -4.1 2.4 -4.1 2.1 -4.05 2.2 -4.15 2.7 -4.9 2.75 -4.7 2.85 -4.45 M0.7 -6.7 L0.75 -6.7 0.8 -6.75 1.05 -6.75 1.25 -6.65 1.1 -6.6 0.55 -5.8 0.4 -4.8 0.45 -4.8 0.4 -4.8 0.4 -4.8 0.25 -4.75 -0.15 -5.25 -0.15 -5.4 -0.15 -5.4 -0.25 -5.9 -0.3 -6.4 -0.3 -6.6 -0.25 -6.6 -0.1 -6.6 0.1 -6.65 0.7 -6.7" fill="#371414" fill-rule="evenodd" stroke="none"/>
    <path d="M2.65 -6.4 L2.75 -6.25 2.2 -6.9 1.95 -7.0 2.0 -7.0 2.3 -7.15 2.65 -6.4 M2.85 -6.0 L2.9 -5.95 2.9 -5.9 2.9 -5.85 2.85 -6.05 2.85 -6.0 M0.45 -4.8 L0.4 -4.8 0.55 -5.8 1.1 -6.6 1.25 -6.65 1.95 -6.35 2.55 -5.6 2.7 -4.9 2.2 -4.15 2.1 -4.05 1.8 -4.05 1.35 -4.5 0.45 -4.8" fill="#4e1d1d" fill-rule="evenodd" stroke="none"/>
    <path d="M1.25 -6.65 L1.05 -6.75 0.8 -6.75 1.05 -7.2 2.25 -6.6 2.8 -5.75 2.85 -4.8 2.85 -4.65 2.75 -4.7 2.7 -4.9 2.55 -5.6 1.95 -6.35 1.25 -6.65 M2.35 -3.35 L2.35 -3.35 2.3 -3.35 2.35 -3.35 M2.4 -3.5 L2.4 -3.5 2.35 -3.5 2.25 -3.4 2.15 -3.45 2.4 -3.5 2.4 -3.5" fill="#9b3a3a" fill-rule="evenodd" stroke="none"/>
    <path d="M2.75 -6.25 L2.85 -6.15 2.85 -6.0 2.85 -6.05 2.85 -6.05 2.2 -6.85 0.95 -7.3 0.75 -6.7 0.7 -6.7 0.9 -7.25 0.95 -7.35 1.25 -7.25 1.95 -7.0 2.2 -6.9 2.75 -6.25 M2.9 -5.9 L3.05 -5.15 2.9 -4.6 3.0 -5.1 2.9 -5.85 2.9 -5.9 M2.9 -4.6 L2.9 -4.6 M2.7 -3.7 L2.7 -3.65 2.65 -3.7 2.65 -3.7 2.7 -3.7" fill="#712a2a" fill-rule="evenodd" stroke="none"/>
    <path d="M0.75 -6.7 L0.95 -7.3 2.2 -6.85 2.85 -6.05 2.85 -6.05 2.9 -5.85 3.0 -5.1 2.9 -4.6 2.9 -4.6 2.85 -4.65 2.85 -4.8 2.8 -5.75 2.25 -6.6 1.05 -7.2 0.8 -6.75 0.75 -6.7" fill="#742b2b" fill-rule="evenodd" stroke="none"/>
    <path d="M-5.8 10.45 L-5.75 10.6 -5.85 10.85 -5.9 10.6 -5.9 10.45 -5.85 9.8 -5.8 10.45 M3.55 -6.5 L4.15 -5.5 3.0 -6.15 2.85 -6.4 2.2 -7.4 3.45 -6.65 3.55 -6.5" fill="#695a33" fill-rule="evenodd" stroke="none"/>
    <path d="M2.9 -4.6 L3.0 -4.55 2.85 -4.45 2.75 -4.7 2.85 -4.65 2.9 -4.6 2.9 -4.6 2.9 -4.6 M2.1 -4.05 L2.4 -4.1 2.4 -4.05 1.8 -3.55 1.0 -3.35 0.85 -3.3 -0.1 -3.5 -0.4 -3.8 -0.55 -4.0 -0.6 -3.95 -0.9 -4.25 -0.95 -4.3 -1.0 -4.3 -1.1 -4.45 -0.15 -5.4 -0.15 -5.25 0.25 -4.75 0.45 -4.45 1.35 -4.05 1.8 -4.05 2.1 -4.05" fill="#5c2222" fill-rule="evenodd" stroke="none"/>
    <path d="M2.75 -3.8 L2.75 -3.8 2.7 -3.75 2.7 -3.75 2.65 -3.7 2.6 -3.65 2.6 -3.65 2.55 -3.6 2.4 -4.05 2.4 -4.1 2.45 -4.1 2.65 -3.9 2.75 -3.8 M-0.9 -4.25 L-0.6 -3.95 -0.95 -3.5 -1.3 -3.85 -0.9 -4.25 M-0.4 -3.8 L-0.1 -3.5 0.85 -3.3 1.0 -3.35 1.05 -3.3 1.55 -3.4 1.65 -3.3 1.75 -3.3 1.8 -3.15 2.25 -3.4 1.55 -2.85 0.6 -2.65 0.0 -2.8 -0.1 -3.35 -0.4 -3.8" fill="#782d2d" fill-rule="evenodd" stroke="none"/>
    <path d="M-8.6 -0.95 L-8.65 -1.05 -8.05 -1.9 -7.8 -1.75 -8.25 -1.0 -8.2 -0.9 -8.25 -0.9 -8.5 -1.0 -8.6 -0.95 M2.7 -4.1 L2.75 -3.8 2.85 -3.5 2.75 -3.25 2.75 -3.25 2.2 -2.85 2.2 -2.8 2.05 -3.1 2.05 -3.15 2.15 -3.25 2.3 -3.2 2.45 -3.45 2.5 -3.55 2.6 -3.55 2.55 -3.6 2.6 -3.65 2.65 -3.7 2.65 -3.7 2.7 -3.65 2.7 -3.7 2.75 -3.75 2.7 -3.75 2.75 -3.8 2.65 -3.9 2.7 -4.05 2.65 -4.1 2.7 -4.1 M2.25 -2.6 L1.45 -2.05 0.8 -2.5 1.2 -2.55 1.85 -3.05 1.9 -3.0 2.25 -2.6 M-7.4 -2.25 L-7.55 -2.25 -7.65 -2.05 -7.95 -2.05 -7.8 -2.25 -7.4 -2.25 M-7.55 0.35 L-7.05 0.5 -6.85 0.45 -6.95 0.55 -7.4 0.6 -7.55 0.35" fill="#7c693c" fill-rule="evenodd" stroke="none"/>
    <path d="M7.5 -1.7 L7.5 -1.7 7.5 -1.85 7.5 -1.65 7.35 -1.3 7.3 -1.2 7.25 -1.2 7.1 -1.05 6.75 -1.15 6.4 -1.4 6.25 -1.5 6.5 -2.05 6.75 -2.3 6.75 -2.3 6.95 -2.25 7.1 -2.2 7.25 -2.1 7.45 -1.95 7.55 -1.85 7.5 -1.7 M2.45 -4.1 L2.65 -4.1 2.7 -4.05 2.65 -3.9 2.45 -4.1 M2.55 -3.6 L2.6 -3.65 2.55 -3.6 2.55 -3.6 M2.5 -3.55 L2.45 -3.45 2.3 -3.2 2.15 -3.25 2.3 -3.35 2.35 -3.35 2.35 -3.35 2.4 -3.4 2.4 -3.4 2.45 -3.45 2.45 -3.45 2.4 -3.5 2.5 -3.55 M2.6 -3.65 L2.6 -3.65 M2.4 -3.5 L2.4 -3.5 M0.85 0.95 L0.9 1.0 0.85 0.95 M1.85 0.4 L1.9 0.45 1.95 0.45 1.85 0.4 M0.9 1.05 L1.25 1.35 1.05 1.25 0.9 1.05" fill="#733326" fill-rule="evenodd" stroke="none"/>
    <path d="M2.6 -3.65 L2.6 -3.65 2.65 -3.7 2.7 -3.75 2.7 -3.75 2.75 -3.75 2.7 -3.7 2.65 -3.7 2.6 -3.65 2.6 -3.65" fill="#572121" fill-rule="evenodd" stroke="none"/>
    <path d="M2.4 -4.05 L2.55 -3.6 2.6 -3.55 2.5 -3.55 2.4 -3.5 2.4 -3.5 2.15 -3.45 1.75 -3.4 1.55 -3.4 1.05 -3.3 1.0 -3.35 1.8 -3.55 2.4 -4.05 M2.55 -3.6 L2.55 -3.6" fill="#963838" fill-rule="evenodd" stroke="none"/>
    <path d="M2.75 -3.25 L2.65 -2.85 2.3 -2.6 2.2 -2.8 2.2 -2.85 2.75 -3.25 2.75 -3.25" fill="#6c5c34" fill-rule="evenodd" stroke="none"/>
    <path d="M0.8 -2.5 L0.2 -2.4 -0.05 -2.5 0.0 -2.7 0.0 -2.8 0.6 -2.65 1.55 -2.85 2.25 -3.4 2.35 -3.5 2.4 -3.5 2.45 -3.45 2.45 -3.45 2.4 -3.4 2.4 -3.4 2.35 -3.35 2.3 -3.35 2.15 -3.25 2.05 -3.15 1.85 -3.05 1.2 -2.55 0.8 -2.5 M1.8 -4.05 L1.35 -4.05 0.45 -4.45 0.25 -4.75 0.4 -4.8 0.4 -4.8 0.45 -4.8 1.35 -4.5 1.8 -4.05 M-0.95 -4.3 L-0.9 -4.25 -1.3 -3.85 -0.95 -3.5 -1.1 -3.4 -1.15 -3.2 -1.3 -3.35 -1.3 -3.4 -1.6 -3.75 -1.25 -4.05 -1.2 -4.1 -0.95 -4.3 M2.25 -3.4 L2.25 -3.4" fill="#983939" fill-rule="evenodd" stroke="none"/>
    <path d="M2.25 -3.4 L2.25 -3.4 1.8 -3.15 1.75 -3.3 1.75 -3.4 2.15 -3.45 2.25 -3.4 M-3.4 5.6 L-3.05 5.85 -3.05 5.95 -3.35 6.15 -4.15 6.75 -4.8 5.9 -4.95 5.65 -4.95 5.6 -5.05 4.8 -4.95 5.05 -4.95 5.1 -4.9 5.1 -4.55 5.95 -4.35 5.85 -4.1 6.15 -3.4 5.6" fill="#682727" fill-rule="evenodd" stroke="none"/>
    <path d="M2.3 -2.6 L2.4 -2.4 2.25 -2.6 1.9 -3.0 1.85 -3.05 2.05 -3.15 2.05 -3.1 2.2 -2.8 2.3 -2.6" fill="#99834b" fill-rule="evenodd" stroke="none"/>
    <path d="M1.9 -1.75 L2.5 -2.35 2.65 -2.5 2.85 -2.7 3.15 -2.8 3.0 -2.65 3.65 -2.8 3.8 -2.95 3.8 -2.95 4.15 -3.05 4.05 -2.95 4.0 -2.9 3.9 -2.8 3.85 -2.7 3.55 -2.4 3.2 -2.05 1.9 -1.65 1.8 -1.65 1.9 -1.75 M2.5 -2.35 L2.6 -2.4 2.5 -2.35" fill="#947e48" fill-rule="evenodd" stroke="none"/>
    <path d="M3.25 0.8 L2.9 0.85 2.55 0.85 1.95 0.6 1.95 0.45 1.75 -0.2 1.6 -0.65 1.55 -0.8 1.55 -0.85 1.5 -1.0 1.45 -1.1 1.9 -1.65 3.2 -2.05 3.55 -2.4 3.6 -2.35 3.7 -2.3 3.8 -2.25 3.8 -2.25 3.95 -1.4 3.8 -1.35 3.65 -1.1 3.45 -1.1 4.0 -0.45 4.05 -0.45 4.05 -0.45 3.35 0.65 3.25 0.8 M2.45 -2.35 L2.35 -2.3 2.55 -2.5 2.65 -2.5 2.5 -2.35 2.45 -2.35" fill="#60522f" fill-rule="evenodd" stroke="none"/>
    <path d="M4.05 -3.25 L4.05 -3.25 4.25 -3.8 4.55 -4.05 4.9 -4.0 5.35 -3.65 5.3 -3.55 5.25 -3.4 5.15 -3.1 4.9 -2.85 4.7 -2.85 4.7 -2.85 4.45 -2.95 4.4 -3.0 4.25 -3.1 4.1 -3.2 4.15 -3.25 4.55 -3.5 4.15 -3.25 4.05 -3.25 M-6.65 0.4 L-6.4 0.35 -6.35 0.3 -6.25 0.4 -6.85 0.75 -6.95 0.65 -6.9 0.55 -6.65 0.4" fill="#743326" fill-rule="evenodd" stroke="none"/>
    <path d="M2.9 0.85 L2.5 1.4 Q2.1 1.65 1.7 1.95 L1.7 1.8 1.55 1.0 1.65 0.35 1.7 0.3 1.85 0.4 1.95 0.45 1.95 0.6 2.55 0.85 2.9 0.85 M2.5 -2.35 L2.45 -2.35 2.5 -2.35 2.6 -2.4 2.5 -2.35 M3.15 -2.8 L3.5 -3.1 4.05 -3.25 4.15 -3.25 4.55 -3.5 4.15 -3.25 4.1 -3.2 3.8 -2.95 3.8 -2.95 3.65 -2.8 3.0 -2.65 3.15 -2.8 M-0.7 -6.8 L-0.65 -6.85 -0.45 -6.85 -0.1 -6.6 -0.25 -6.6 -0.7 -6.8 M-7.15 0.95 L-7.1 1.1 -7.15 1.2 -7.25 1.25 -7.4 1.45 -7.4 1.45 -7.45 1.45 -7.4 1.35 -7.55 1.4 -7.6 1.4 -7.6 1.4 -8.05 1.3 -7.15 0.95 M-5.35 1.1 L-5.35 1.05 -5.35 1.1" fill="#897443" fill-rule="evenodd" stroke="none"/>
    <path d="M4.0 -2.9 L4.05 -2.9 4.1 -2.9 4.2 -2.8 4.6 -2.65 4.6 -2.6 4.7 -2.55 4.85 -2.35 5.1 -2.25 5.75 -1.35 4.55 -1.9 4.4 -2.1 4.35 -2.15 4.2 -2.35 4.0 -2.6 3.9 -2.8 4.0 -2.9 M-1.25 -4.5 L-1.35 -4.2 -1.25 -4.25 -1.25 -4.15 -1.25 -4.05 -1.6 -3.75 -1.3 -3.4 -1.55 -3.35 -1.6 -3.4 -1.7 -3.65 -1.75 -3.65 -1.45 -4.25 -1.4 -4.35 -1.25 -4.8 -1.25 -4.5" fill="#7f6c3e" fill-rule="evenodd" stroke="none"/>
    <path d="M4.05 -2.9 L4.05 -2.95 4.15 -3.05 4.25 -3.1 4.4 -3.0 4.1 -2.9 4.05 -2.9 M4.0 -2.6 L4.2 -2.35 4.0 -2.25 4.05 -2.25 3.85 -2.15 3.85 -2.35 3.9 -2.5 4.0 -2.6 M4.35 -2.15 L4.4 -2.1 4.25 -1.85 4.35 -1.75 4.35 -1.65 4.55 -1.55 4.7 -1.35 4.3 -1.2 3.95 -1.7 3.95 -1.75 4.25 -1.95 4.35 -2.15 M4.6 -2.65 L4.2 -2.8 4.3 -2.9 4.4 -2.9 4.45 -2.95 4.7 -2.85 4.6 -2.65 M3.95 -2.15 L3.9 -2.05 3.9 -2.1 3.95 -2.15 M4.7 -2.85 L4.7 -2.85 M-5.05 4.15 L-5.75 4.05 -5.35 3.8 -5.0 4.0 -5.05 4.1 -5.05 4.15" fill="#554829" fill-rule="evenodd" stroke="none"/>
    <path d="M7.8 -2.3 L7.8 -1.95 7.5 -1.7 7.55 -1.85 7.45 -1.95 7.55 -2.0 7.75 -2.25 7.8 -2.3 M5.35 -3.6 L5.4 -4.25 5.9 -4.65 6.5 -4.75 6.55 -4.75 6.75 -4.55 6.55 -4.6 6.4 -4.5 5.95 -4.3 5.55 -3.75 5.5 -3.5 5.45 -3.5 5.45 -3.45 5.45 -3.45 5.35 -3.45 5.35 -3.6 M3.9 -2.8 L4.0 -2.6 3.9 -2.5 3.8 -2.45 3.8 -2.35 3.7 -2.3 3.6 -2.35 3.85 -2.7 3.9 -2.8 M4.2 -2.8 L4.1 -2.9 4.4 -3.0 4.45 -2.95 4.4 -2.9 4.3 -2.9 4.2 -2.8" fill="#897543" fill-rule="evenodd" stroke="none"/>
    <path d="M1.75 -3.4 L1.75 -3.3 1.65 -3.3 1.55 -3.4 1.75 -3.4" fill="#a03c3c" fill-rule="evenodd" stroke="none"/>
    <path d="M0.15 -2.15 L0.15 -2.15 0.15 -2.15 M1.25 -1.6 L1.35 -1.6 1.4 -1.55 1.2 -1.2 1.25 -1.65 1.25 -1.6" fill="#542020" fill-rule="evenodd" stroke="none"/>
    <path d="M-0.15 -2.1 L0.0 -2.2 0.15 -2.15 1.35 -2.0 1.25 -1.6 1.25 -1.65 1.3 -1.85 -0.05 -2.0 -0.3 -1.9 -0.2 -2.05 -0.15 -2.1 M-0.9 -1.65 L-0.95 -1.6 -1.4 -1.0 -1.5 -1.1 -0.95 -1.75 -0.9 -1.65 M0.15 -2.15 L0.15 -2.15" fill="#331313" fill-rule="evenodd" stroke="none"/>
    <path d="M1.2 -1.2 L1.2 -1.1 1.2 -1.1 0.25 -1.35 -0.7 -1.05 -1.1 -0.65 -1.4 -1.0 -0.95 -1.6 -0.9 -1.65 -0.7 -1.3 -0.3 -1.9 -0.05 -2.0 1.3 -1.85 1.25 -1.65 1.2 -1.2" fill="#873333" fill-rule="evenodd" stroke="none"/>
    <path d="M1.35 -1.6 L1.55 -1.95 1.9 -1.75 1.8 -1.65 1.9 -1.65 1.45 -1.1 1.5 -1.0 1.2 -1.1 1.2 -1.2 1.4 -1.55 1.35 -1.6 M1.55 -0.8 L1.5 -0.8 1.55 -0.85 1.55 -0.8 M1.75 -0.2 L1.95 0.45 1.9 0.45 1.85 0.4 1.7 0.3 1.55 0.2 1.6 0.1 1.65 0.1 1.75 -0.2" fill="#847040" fill-rule="evenodd" stroke="none"/>
    <path d="M1.5 -0.8 L1.55 -0.8 1.6 -0.65 1.4 0.4 1.35 0.45 1.3 0.6 0.9 1.05 0.9 1.0 0.85 0.95 0.75 0.8 1.25 0.3 1.5 -0.8 M-0.25 1.25 L0.55 1.0 0.75 0.8 0.85 0.95 0.9 1.0 0.9 1.05 0.65 1.3 0.45 1.4 0.4 1.35 0.2 1.35 0.0 1.3 -0.05 1.35 -0.25 1.25 M-1.65 1.1 L-1.0 1.2 -1.7 1.3 -1.7 1.2 -1.65 1.1" fill="#7b2e2e" fill-rule="evenodd" stroke="none"/>
    <path d="M1.2 -1.1 L1.5 -1.0 1.55 -0.85 1.5 -0.8 1.25 0.3 0.75 0.8 0.55 1.0 -0.25 1.25 -0.5 1.15 -1.0 1.2 -1.65 1.1 -1.9 1.1 -1.95 1.1 -1.15 0.75 -1.4 0.1 -0.85 -0.35 -1.1 -0.65 -0.7 -1.05 0.25 -1.35 1.2 -1.1 1.2 -1.1" fill="#7e2f2f" fill-rule="evenodd" stroke="none"/>
    <path d="M-3.65 -9.2 L-3.6 -9.25 -3.55 -9.25 -3.2 -9.4 -3.05 -9.45 -2.1 -9.25 -1.35 -8.6 -0.85 -7.5 -0.7 -7.3 -0.7 -7.2 -0.75 -7.2 -0.9 -7.15 -0.9 -6.9 -0.9 -6.9 -0.95 -6.8 -1.15 -6.8 -1.3 -7.05 -1.7 -7.0 -1.75 -6.95 -2.2 -7.1 -2.85 -7.0 -2.9 -7.0 -3.15 -7.05 -3.9 -7.7 -3.9 -7.7 -4.1 -8.25 -4.35 -9.0 -4.0 -9.1 -3.65 -9.2 M0.9 1.05 L1.3 0.6 1.35 0.55 1.4 0.4 1.6 -0.65 1.75 -0.2 1.65 0.1 1.6 0.1 1.55 0.2 1.35 0.7 1.25 0.8 0.9 1.05 M-3.55 -6.2 L-3.4 -6.1 -3.75 -5.7 -3.75 -5.65 -3.75 -5.65 -3.85 -5.2 -3.85 -5.3 -3.8 -5.8 -3.75 -5.9 -3.55 -6.2" fill="#541f1f" fill-rule="evenodd" stroke="none"/>
    <path d="M5.55 -0.65 L5.5 -0.65 5.05 -0.55 4.8 -0.6 4.3 -1.0 4.05 -1.05 3.95 -1.4 3.8 -2.25 3.8 -2.35 3.8 -2.45 3.9 -2.5 3.85 -2.35 3.85 -2.15 3.9 -2.1 3.9 -2.05 3.95 -1.75 3.95 -1.7 4.3 -1.2 4.55 -0.85 4.85 -1.15 5.25 -0.7 5.55 -0.65 M5.3 -3.55 L5.35 -3.6 5.35 -3.6 5.35 -3.45 5.25 -3.4 5.25 -3.4 5.3 -3.55 M6.2 -3.95 L6.65 -4.05 6.55 -3.8 6.05 -3.45 6.0 -3.45 6.2 -3.95" fill="#a28a4f" fill-rule="evenodd" stroke="none"/>
    <path d="M4.2 -2.35 L4.35 -2.15 4.25 -1.95 3.95 -1.75 3.9 -2.05 3.95 -2.15 3.95 -2.15 4.0 -2.2 4.0 -2.25 4.2 -2.35 M4.6 -2.6 L4.6 -2.65 4.7 -2.85 4.6 -2.6 M5.45 -3.45 L5.45 -3.45 5.45 -3.45" fill="#907a46" fill-rule="evenodd" stroke="none"/>
    <path d="M3.85 -2.15 L4.05 -2.25 4.0 -2.25 4.0 -2.2 3.95 -2.15 3.95 -2.15 3.9 -2.1 3.85 -2.15" fill="#978049" fill-rule="evenodd" stroke="none"/>
    <path d="M5.85 0.15 L5.6 0.65 4.6 1.0 4.5 1.05 4.0 1.2 3.45 0.85 3.35 0.65 4.05 -0.45 4.05 -0.45 4.65 -0.3 5.15 0.15 5.85 0.15 M3.65 -1.1 L3.8 -1.35 3.95 -1.4 4.05 -1.05 3.65 -1.1" fill="#8b7644" fill-rule="evenodd" stroke="none"/>
    <path d="M8.1 -0.5 L8.1 -0.8 8.15 -0.8 8.2 -0.65 8.4 -0.5 8.7 -0.2 9.1 0.35 9.15 1.0 9.0 1.75 8.45 1.25 8.1 0.7 8.05 0.05 8.1 -0.45 8.1 -0.5 M5.05 -0.55 L5.45 -0.45 5.65 -0.2 5.9 0.15 5.85 0.15 5.15 0.15 4.65 -0.3 4.05 -0.45 4.0 -0.45 3.45 -1.1 3.65 -1.1 4.05 -1.05 4.3 -1.0 4.8 -0.6 5.05 -0.55 M5.65 -0.2 L5.65 -0.2" fill="#5a4d2c" fill-rule="evenodd" stroke="none"/>
    <path d="M7.25 -4.55 L7.45 -4.5 7.4 -4.3 7.2 -4.2 6.55 -3.4 6.55 -3.4 6.5 -3.4 6.25 -3.25 6.15 -3.45 6.05 -3.45 6.55 -3.8 7.2 -4.3 7.25 -4.55 M6.4 -4.5 L6.2 -3.95 6.0 -3.45 5.5 -3.5 5.55 -3.75 5.95 -4.3 6.4 -4.5" fill="#967f49" fill-rule="evenodd" stroke="none"/>
    <path d="M7.4 -4.3 L7.8 -4.5 8.45 -4.5 9.2 -4.05 8.7 -3.35 8.2 -3.05 7.8 -3.4 7.15 -3.55 7.0 -3.45 6.55 -3.4 6.55 -3.4 7.2 -4.2 7.4 -4.3" fill="#60512f" fill-rule="evenodd" stroke="none"/>
    <path d="M6.0 -0.65 L5.9 -0.65 5.55 -0.65 5.25 -0.7 4.85 -1.15 4.7 -1.35 4.55 -1.55 4.35 -1.75 4.25 -1.85 4.4 -2.1 4.55 -1.9 5.75 -1.35 5.1 -2.25 5.4 -2.15 5.8 -2.55 5.9 -2.9 5.65 -3.2 5.25 -3.4 5.35 -3.45 5.45 -3.45 5.45 -3.5 5.5 -3.5 6.0 -3.45 6.05 -3.45 6.15 -3.45 6.25 -3.25 6.95 -2.25 6.95 -2.25 6.75 -2.3 6.75 -2.3 6.5 -2.05 6.25 -1.5 6.4 -1.4 6.35 -1.4 5.55 -1.2 5.55 -1.2 5.45 -1.15 6.0 -0.65 M5.45 -3.45 L5.45 -3.45" fill="#645531" fill-rule="evenodd" stroke="none"/>
    <path d="M8.0 -2.4 L7.8 -2.3 7.75 -2.25 7.65 -2.2 7.25 -2.1 7.1 -2.2 6.95 -2.25 6.95 -2.25 6.25 -3.25 6.5 -3.4 6.55 -3.4 7.0 -3.45 7.15 -3.5 7.75 -3.25 8.25 -2.75 8.15 -2.75 8.0 -2.8 7.7 -2.8 7.65 -2.8 8.0 -2.4" fill="#77653a" fill-rule="evenodd" stroke="none"/>
    <path d="M8.35 -2.75 L8.5 -2.75 8.5 -2.7 8.4 -2.7 8.4 -2.7 8.15 -2.75 8.25 -2.75 8.35 -2.75 M9.4 -2.25 L9.65 -2.2 10.1 -1.65 9.95 -1.65 9.4 -2.25 M8.65 -2.1 L8.25 -2.2 8.25 -2.2 8.0 -2.4 7.65 -2.8 7.7 -2.8 7.75 -2.75 8.0 -2.8 8.65 -2.1 M-0.15 -5.4 L-1.1 -4.45 -1.0 -4.3 -1.25 -4.25 -1.35 -4.2 -1.25 -4.5 -1.25 -4.5 -0.85 -4.85 -0.8 -5.5 -0.7 -5.6 -0.25 -5.9 -0.15 -5.4 -0.15 -5.4 M-3.1 -3.75 L-3.1 -4.1 -3.05 -4.05 -2.55 -3.6 -2.2 -3.05 -2.1 -2.4 -2.1 -1.85 -2.4 -2.2 -2.85 -2.4 -2.95 -2.55 -3.05 -2.75 -3.1 -2.9 -3.15 -3.4 -3.1 -3.75 M-2.1 -1.85 L-2.1 -1.85 M-2.85 -2.4 L-2.65 -2.15 -2.85 -2.4 -2.85 -2.4 M-2.5 -2.0 L-2.1 -1.75 -2.1 -1.55 -2.5 -2.0" fill="#6a5a33" fill-rule="evenodd" stroke="none"/>
    <path d="M-7.2 5.8 L-7.25 5.65 -7.15 5.15 -7.1 5.05 -7.05 4.95 -6.85 5.15 -6.2 5.0 -6.15 5.0 -6.15 5.0 -5.95 5.65 -6.0 5.8 -6.1 6.3 -6.1 6.3 -6.6 6.95 -7.1 6.3 -7.2 5.8 M-9.2 3.3 L-9.25 3.35 -9.2 3.3 -9.2 3.25 -9.0 3.25 -9.2 3.3 M7.7 -2.8 L8.0 -2.8 7.75 -2.75 7.7 -2.8 M-7.55 1.4 L-7.4 1.35 -7.45 1.45 -7.55 1.4 M-7.7 2.05 L-7.75 2.1 -8.3 2.45 -8.6 3.05 -8.7 3.1 -8.85 3.1 -9.15 3.2 -9.15 3.2 -9.0 2.7 -8.45 2.3 -8.35 2.15 -8.15 1.75 -8.15 1.75 -7.95 1.65 -7.55 1.7 -7.7 2.05 -7.7 2.05" fill="#675732" fill-rule="evenodd" stroke="none"/>
    <path d="M9.1 -2.4 L9.3 -2.35 9.4 -2.25 9.95 -1.65 10.15 -1.4 9.4 -1.65 9.4 -1.65 8.9 -1.8 8.65 -2.1 8.0 -2.8 8.15 -2.75 8.4 -2.7 8.65 -2.6 8.5 -2.5 9.1 -2.4 M-7.15 1.2 L-7.3 1.45 -7.4 1.45 -7.25 1.25 -7.15 1.2" fill="#826e3f" fill-rule="evenodd" stroke="none"/>
    <path d="M5.1 -2.25 L4.85 -2.35 4.7 -2.55 4.6 -2.6 4.7 -2.85 4.7 -2.85 4.7 -2.85 4.9 -2.85 5.15 -3.1 5.25 -3.4 5.65 -3.2 5.9 -2.9 5.8 -2.55 5.4 -2.15 5.1 -2.25 M5.25 -3.4 L5.25 -3.4 M7.75 -2.25 L7.55 -2.0 7.45 -1.95 7.25 -2.1 7.65 -2.2 7.75 -2.25" fill="#723226" fill-rule="evenodd" stroke="none"/>
    <path d="M4.55 -1.55 L4.35 -1.65 4.35 -1.75 4.55 -1.55 M-7.6 4.35 L-7.1 4.25 -7.55 4.7 -7.7 4.85 -8.35 5.0 -8.85 5.45 -9.5 5.5 -9.05 5.0 -8.45 4.85 -7.95 4.4 -7.6 4.35" fill="#4a3f24" fill-rule="evenodd" stroke="none"/>
    <path d="M7.3 -1.2 L7.55 -1.05 7.55 -1.05 7.5 -0.35 7.55 -0.25 7.35 -0.2 6.7 -0.2 6.1 -0.55 6.0 -0.65 5.45 -1.15 5.55 -1.2 5.55 -1.2 6.35 -1.4 6.4 -1.4 6.75 -1.15 7.1 -1.05 7.25 -1.2 7.3 -1.2 M7.8 -0.85 L7.9 -0.7 8.1 -0.5 8.1 -0.45 7.95 -0.4 7.95 -0.45 7.8 -0.8 7.8 -0.85 M-9.75 1.2 L-9.8 1.25 -9.9 1.3 -9.95 1.35 -9.8 1.1 -9.75 1.2 M7.9 -0.7 L7.8 -0.8 7.9 -0.7 M-2.25 -4.25 L-2.15 -4.3 -2.2 -4.1 -2.25 -4.25" fill="#5f512e" fill-rule="evenodd" stroke="none"/>
    <path d="M5.65 -0.2 L5.75 -0.2 5.65 -0.2 5.65 -0.2" fill="#8d7845" fill-rule="evenodd" stroke="none"/>
    <path d="M7.5 -1.7 L7.5 -1.65 7.5 -1.85 7.5 -1.7 M7.55 -1.05 L7.6 -1.05 7.7 -0.95 7.8 -0.85 7.8 -0.8 7.7 -0.95 7.8 -0.8 7.95 -0.45 7.95 -0.4 7.9 0.2 7.9 0.85 7.75 0.25 7.55 -0.25 7.5 -0.35 7.55 -1.05 7.55 -1.05" fill="#716037" fill-rule="evenodd" stroke="none"/>
    <path d="M8.65 -2.6 L9.15 -3.05 9.8 -3.1 10.4 -3.4 11.1 -3.3 10.6 -2.8 9.9 -2.75 9.35 -2.4 9.1 -2.4 8.5 -2.5 8.65 -2.6 8.65 -2.6" fill="#6f5f36" fill-rule="evenodd" stroke="none"/>
    <path d="M8.5 -2.7 L8.65 -2.6 8.4 -2.7 8.4 -2.7 8.5 -2.7 M8.15 -0.8 L8.4 -0.5 8.2 -0.65 8.15 -0.8 M8.65 -2.6 L8.65 -2.6" fill="#635430" fill-rule="evenodd" stroke="none"/>
    <path d="M4.6 1.0 L4.55 1.05 4.5 1.05 4.6 1.0 M3.45 0.85 L3.25 0.8 3.35 0.65 3.45 0.85" fill="#8f7a46" fill-rule="evenodd" stroke="none"/>
    <path d="M1.7 1.8 L1.55 1.95 1.5 1.95 1.35 1.9 1.3 1.8 1.0 1.65 0.95 1.6 0.85 1.6 0.45 1.4 0.65 1.3 0.9 1.05 1.1 1.55 1.5 1.95 1.3 1.4 1.25 1.35 1.2 1.1 1.25 0.8 1.35 0.7 1.55 0.2 1.7 0.3 1.65 0.35 1.55 1.0 1.7 1.8" fill="#463c22" fill-rule="evenodd" stroke="none"/>
    <path d="M1.6 0.1 L1.65 0.1 1.6 0.1" fill="#5d502d" fill-rule="evenodd" stroke="none"/>
    <path d="M1.3 0.6 L1.35 0.45 1.4 0.4 1.35 0.55 1.3 0.6 M1.25 0.8 L1.2 1.1 1.25 1.35 0.9 1.05 1.25 0.8" fill="#5e502e" fill-rule="evenodd" stroke="none"/>
    <path d="M0.75 0.8 L0.85 0.95 0.75 0.8 M0.9 1.0 L0.9 1.05 0.9 1.0 0.85 0.95 0.9 1.0 M0.9 1.05 L1.05 1.25 1.25 1.35 1.3 1.4 1.5 1.95 1.1 1.55 0.9 1.05" fill="#756339" fill-rule="evenodd" stroke="none"/>
    <path d="M1.75 2.45 L1.85 2.6 1.85 2.65 1.3 3.15 1.1 2.25 0.45 1.5 -0.05 1.35 0.0 1.3 0.2 1.35 0.85 1.6 0.95 1.6 1.0 1.65 1.75 2.45 M-2.1 2.5 L-2.2 2.4 -2.15 2.35 -2.05 2.5 -2.1 2.5" fill="#772d2d" fill-rule="evenodd" stroke="none"/>
    <path d="M1.35 1.9 L1.75 2.45 1.0 1.65 1.3 1.8 1.35 1.9 M1.85 2.65 L2.05 2.95 1.35 3.4 1.4 3.55 1.2 3.6 1.3 3.55 0.85 2.3 0.05 1.65 -0.9 1.45 -1.9 1.7 -2.0 1.3 -2.0 1.3 -1.75 1.3 -1.7 1.3 -1.0 1.2 -0.5 1.15 -0.25 1.25 -0.05 1.35 0.45 1.5 1.1 2.25 1.3 3.15 1.85 2.65 M0.2 1.35 L0.4 1.35 0.45 1.4 0.85 1.6 0.2 1.35" fill="#702a2a" fill-rule="evenodd" stroke="none"/>
    <path d="M1.2 3.6 L0.35 3.9 0.0 4.0 -0.8 3.85 -0.95 3.8 -1.7 3.2 -2.05 2.55 -2.05 2.5 -2.15 2.35 -2.15 2.3 -2.4 1.8 -2.3 1.8 -2.1 1.75 -1.9 1.7 -0.9 1.45 0.05 1.65 0.85 2.3 1.3 3.55 1.2 3.6" fill="#762c2c" fill-rule="evenodd" stroke="none"/>
    <path d="M1.5 1.95 L1.55 2.0 2.0 2.65 1.55 2.0 1.5 1.95" fill="#aa9253" fill-rule="evenodd" stroke="none"/>
    <path d="M0.35 3.9 L0.5 5.15 -0.55 5.3 -0.5 5.1 -0.7 4.1 -0.75 4.0 -0.8 3.85 0.0 4.0 0.35 3.9 M-0.75 4.0 L-0.75 4.0" fill="#6f2a2a" fill-rule="evenodd" stroke="none"/>
    <path d="M-3.6 -9.25 L-3.65 -9.7 -3.4 -10.3 -2.15 -10.8 -1.15 -9.95 -1.1 -9.75 -1.05 -9.35 -1.15 -9.65 -1.25 -9.45 -1.8 -10.0 -1.95 -9.8 -2.2 -9.95 -2.45 -9.65 -3.45 -9.8 -3.55 -9.25 -3.6 -9.25" fill="#7b693c" fill-rule="evenodd" stroke="none"/>
    <path d="M-9.1 -2.55 L-9.45 -2.75 -9.75 -3.35 -9.35 -4.5 -8.25 -4.6 -8.2 -4.6 -7.7 -4.2 -7.4 -3.6 -7.55 -2.9 -7.55 -2.75 -7.7 -2.75 -8.4 -2.4 -8.55 -2.4 -8.9 -2.4 -9.1 -2.55" fill="#ac9354" fill-rule="evenodd" stroke="none"/>
    <path d="M-8.15 -1.95 L-8.65 -1.4 -9.25 -1.1 -9.9 -1.1 -10.65 -1.55 -10.15 -2.25 -9.55 -2.55 -9.1 -2.55 -8.9 -2.4 -8.55 -2.4 -8.0 -2.15 -8.05 -2.05 -8.1 -2.05 -8.15 -1.95 M-3.85 0.7 L-3.4 1.1 -2.85 1.75 -3.3 1.7 -4.05 1.55 -4.05 1.55 -4.1 1.5 -4.3 1.05 -4.8 0.6 -4.65 0.5 -4.55 0.5 -3.9 0.7 -3.85 0.7 M-5.85 0.95 L-5.6 0.9 -5.9 1.1 -6.15 1.7 -6.65 2.1 -6.75 2.85 -6.5 2.7 -6.45 2.7 -6.45 2.7 -6.1 2.5 -5.85 1.9 -5.65 1.75 -5.65 1.9 -5.65 2.05 -5.8 2.25 -5.85 2.55 -5.9 2.65 -6.0 2.7 -6.15 2.8 -6.55 2.85 -7.0 2.9 -7.05 2.9 -7.05 2.8 -6.8 2.75 -7.05 2.75 -7.05 2.75 -7.05 2.65 -7.1 2.4 -6.9 2.1 -7.1 2.1 -7.1 2.0 -6.8 1.4 -6.25 1.05 -5.85 0.95" fill="#7e6b3d" fill-rule="evenodd" stroke="none"/>
    <path d="M-8.05 -1.9 L-8.15 -1.95 -8.1 -2.05 -8.05 -2.05 -7.95 -2.05 -7.65 -2.05 -7.8 -1.75 -8.05 -1.9" fill="#927c47" fill-rule="evenodd" stroke="none"/>
    <path d="M-7.7 -0.35 L-7.5 -0.7 -8.2 -0.9 -8.25 -1.0 -7.8 -1.75 -7.65 -2.05 -7.55 -2.25 -7.4 -2.25 -6.9 -2.35 -6.75 -2.3 -6.3 -2.2 -6.0 -1.7 -5.9 -1.5 -5.8 -1.35 -6.3 -1.1 -6.7 0.0 -6.35 0.3 -6.4 0.35 -6.65 0.4 -6.85 0.45 -7.05 0.5 -7.55 0.35 -7.65 0.3 -7.85 -0.1 -7.7 -0.35 M-4.25 -3.2 L-4.05 -2.8 -4.25 -3.05 -4.25 -3.2" fill="#736238" fill-rule="evenodd" stroke="none"/>
    <path d="M-1.1 -9.35 L-1.25 -9.45 -1.15 -9.65 -1.05 -9.35 -1.1 -9.35" fill="#6a5b34" fill-rule="evenodd" stroke="none"/>
    <path d="M-0.8 -7.6 L-0.75 -8.25 -1.15 -9.15 -1.95 -9.8 -1.8 -10.0 -1.25 -9.45 -1.1 -9.35 -0.8 -9.05 -0.55 -8.05 -0.7 -7.3 -0.85 -7.5 -0.8 -7.6 M-0.9 -6.9 L-0.9 -7.15 -0.75 -7.2 -0.75 -7.1 -0.9 -6.9" fill="#662626" fill-rule="evenodd" stroke="none"/>
    <path d="M-1.05 -9.35 L-0.65 -9.5 -0.3 -8.6 -0.15 -8.25 -0.2 -8.0 -0.25 -7.85 -0.3 -7.65 -0.3 -7.6 -0.35 -7.25 -0.65 -6.85 -0.7 -6.8 -0.9 -6.8 -0.95 -6.8 -0.9 -6.9 -0.9 -6.9 -0.75 -7.1 -0.75 -7.2 -0.7 -7.2 -0.7 -7.3 -0.55 -8.05 -0.8 -9.05 -1.1 -9.35 -1.05 -9.35 M-0.7 -6.8 L-0.7 -6.8" fill="#4b1c1c" fill-rule="evenodd" stroke="none"/>
    <path d="M-1.1 -9.75 L-1.0 -9.85 -1.05 -9.35 -1.1 -9.75" fill="#8c7744" fill-rule="evenodd" stroke="none"/>
    <path d="M-1.95 -9.8 L-1.15 -9.15 -0.75 -8.25 -0.8 -7.6 -0.95 -8.05 -0.95 -8.05 -1.15 -8.55 -1.2 -8.6 -1.35 -9.0 -2.1 -9.6 -2.15 -9.6 -2.45 -9.65 -2.2 -9.95 -1.95 -9.8" fill="#8e3535" fill-rule="evenodd" stroke="none"/>
    <path d="M-1.2 -8.6 L-1.15 -8.55 -0.95 -8.05 -0.95 -8.05 -0.8 -7.6 -0.85 -7.5 -1.35 -8.6 -2.1 -9.25 -3.05 -9.45 -3.2 -9.4 -3.15 -9.55 -1.85 -9.25 -1.2 -8.6 M-2.55 -6.7 L-2.2 -6.85 -2.2 -6.85 -2.1 -6.85 -1.55 -6.8 -1.15 -6.8 -0.95 -6.8 -0.9 -6.8 -1.0 -6.1 -1.05 -6.1 -1.65 -6.3 -2.45 -6.6 -2.55 -6.7 M-3.2 2.15 L-3.1 2.1 -3.1 2.2 -3.2 2.15 M-5.05 4.8 L-5.1 4.7 -5.05 4.25 -4.95 5.05 -5.05 4.8 M-4.9 5.1 L-4.35 5.85 -4.55 5.95 -4.9 5.1" fill="#5e2323" fill-rule="evenodd" stroke="none"/>
    <path d="M-2.45 -9.65 L-2.15 -9.6 -2.1 -9.6 -1.35 -9.0 -1.2 -8.6 -1.85 -9.25 -3.15 -9.55 -3.2 -9.4 -3.55 -9.25 -3.45 -9.8 -2.45 -9.65 M-1.7 -7.0 L-1.3 -7.05 -1.15 -6.8 -1.55 -6.8 -1.7 -7.0" fill="#a93f3f" fill-rule="evenodd" stroke="none"/>
    <path d="M-4.0 -9.2 L-3.95 -9.3 -3.65 -9.2 -4.0 -9.1 -4.0 -9.2" fill="#642626" fill-rule="evenodd" stroke="none"/>
    <path d="M-4.65 -7.05 L-4.75 -7.15 -5.05 -8.1 -4.7 -9.4 -4.0 -9.2 -4.0 -9.1 -4.35 -9.0 -4.1 -8.25 -4.9 -7.85 -4.25 -6.65 -3.6 -6.25 -3.9 -6.35 -4.1 -6.45 -4.65 -7.05" fill="#4d1d1d" fill-rule="evenodd" stroke="none"/>
    <path d="M-4.1 -8.25 L-3.9 -7.7 -3.9 -7.7 -3.15 -7.05 -2.9 -7.0 -2.85 -7.0 -2.55 -6.95 -2.5 -6.9 -2.2 -6.85 -2.55 -6.7 -3.15 -6.45 -3.4 -6.1 -3.55 -6.2 -3.6 -6.25 -4.25 -6.65 -4.9 -7.85 -4.1 -8.25" fill="#863232" fill-rule="evenodd" stroke="none"/>
    <path d="M-2.2 -6.85 L-2.5 -6.9 -2.55 -6.95 -2.2 -6.85 -2.15 -6.85 -2.0 -6.9 -2.1 -6.85 -2.2 -6.85 -2.2 -6.85" fill="#6d2929" fill-rule="evenodd" stroke="none"/>
    <path d="M-2.55 -6.95 L-2.85 -7.0 -2.2 -7.1 -1.75 -6.95 -2.0 -6.9 -2.15 -6.85 -2.2 -6.85 -2.55 -6.95 M-0.7 -6.65 L-0.75 -6.6 -0.7 -6.65 -0.7 -6.65 -0.7 -6.65" fill="#8d3535" fill-rule="evenodd" stroke="none"/>
    <path d="M-3.4 -6.1 L-3.15 -6.45 -2.55 -6.7 -2.45 -6.6 -1.65 -6.3 -1.15 -5.9 -1.05 -6.1 -1.0 -6.1 -0.9 -6.8 -0.7 -6.8 -0.7 -6.7 -0.7 -6.65 -0.7 -6.65 -0.75 -6.6 -1.05 -5.3 -1.7 -4.55 -2.55 -4.15 -2.6 -4.15 -3.95 -4.35 -3.75 -5.65 -3.75 -5.7 -3.4 -6.1" fill="#471a1a" fill-rule="evenodd" stroke="none"/>
    <path d="M-2.35 7.75 L-2.35 8.4 -2.6 9.0 -3.75 9.45 -4.3 8.9 -4.6 8.6 -4.6 8.25 -4.65 7.95 -4.55 7.8 -4.35 7.35 -3.2 6.75 -2.35 7.75 -2.35 7.75 M-4.7 -5.45 L-4.9 -5.8 -4.9 -6.45 -4.65 -7.05 -4.1 -6.45 -3.9 -6.35 -3.75 -6.05 -3.75 -5.9 -3.8 -5.8 -3.85 -5.3 -4.45 -5.25 -4.55 -5.2 -4.6 -5.2 -4.7 -5.45" fill="#584b2b" fill-rule="evenodd" stroke="none"/>
    <path d="M-3.85 -5.2 L-3.75 -5.65 -3.75 -5.65 -3.95 -4.35 -2.6 -4.15 -2.55 -4.15 -1.7 -4.55 -1.05 -5.3 -0.75 -6.6 -0.7 -6.65 -0.8 -6.25 -0.85 -6.15 -0.9 -5.85 -1.1 -5.25 -1.7 -4.45 -1.8 -4.45 -1.95 -4.35 -2.15 -4.3 -2.25 -4.25 -2.5 -4.15 -2.6 -4.1 -2.7 -4.1 -3.0 -4.15 -3.95 -4.3 -3.85 -5.2 M-0.7 -6.7 L-0.7 -6.65 -0.7 -6.65 -0.7 -6.7 M-3.95 -1.15 L-3.55 -1.0 -3.8 -1.15 -3.4 -1.3 -2.4 -1.1 -1.65 -0.5 -1.65 -0.5 -1.4 0.1 -1.15 0.75 -1.95 1.1 -2.4 1.25 -3.05 1.15 -3.35 1.1 -3.4 1.1 -3.85 0.7 -3.9 0.7 -4.15 0.5 -4.4 0.05 -4.05 -0.65 -4.5 -0.95 -3.95 -1.15" fill="#692727" fill-rule="evenodd" stroke="none"/>
    <path d="M-1.45 5.4 L-1.65 5.7 -2.25 5.25 -2.75 4.85 -3.1 3.95 -3.0 2.95 -2.6 2.35 -2.15 2.45 -2.1 2.5 -2.05 2.5 -2.05 2.55 -1.7 3.2 -0.95 3.8 -0.8 3.85 -0.75 4.0 -0.75 4.0 -0.85 4.6 -1.45 5.4 M-5.3 -4.6 L-5.25 -4.7 -4.6 -5.15 -4.55 -5.2 -4.45 -5.25 -3.85 -5.3 -3.85 -5.2 -3.95 -4.3 -3.0 -4.15 -3.0 -4.05 -3.05 -4.1 -3.05 -4.05 -3.1 -4.1 -3.1 -3.75 -3.45 -3.1 -3.5 -3.05 -3.95 -3.35 -3.65 -2.95 -4.0 -2.7 -4.05 -2.8 -4.25 -3.2 -4.25 -3.25 -4.4 -3.45 -4.45 -3.95 -4.9 -4.45 -5.3 -4.6 M-2.1 1.75 L-2.3 1.8 -2.2 1.65 -2.1 1.75" fill="#8c3535" fill-rule="evenodd" stroke="none"/>
    <path d="M-1.75 -6.95 L-1.7 -7.0 -1.55 -6.8 -2.1 -6.85 -2.0 -6.9 -1.75 -6.95 M-4.8 0.6 L-4.3 1.05 -4.1 1.5 -4.3 1.25 -4.4 1.1 -4.9 0.65 -4.8 0.6 M-4.0 1.7 L-3.9 1.95 -3.9 2.05 -4.0 1.7 M-4.55 3.7 L-4.45 3.7 -4.7 4.05 -4.8 4.0 -4.55 3.7" fill="#8f3636" fill-rule="evenodd" stroke="none"/>
    <path d="M-1.05 -6.1 L-1.15 -5.9 -1.65 -6.3 -1.05 -6.1" fill="#5f2424" fill-rule="evenodd" stroke="none"/>
    <path d="M-0.85 -6.15 L-0.8 -6.25 -0.75 -6.15 -0.85 -6.15" fill="#877342" fill-rule="evenodd" stroke="none"/>
    <path d="M-1.8 -4.45 L-1.7 -4.45 -1.1 -5.25 -0.9 -5.85 -0.8 -5.5 -0.8 -5.5 -0.85 -4.85 -1.25 -4.5 -1.25 -4.5 -1.25 -4.8 -1.4 -4.35 -1.5 -4.25 -1.75 -4.3 -1.8 -4.45" fill="#826f3f" fill-rule="evenodd" stroke="none"/>
    <path d="M-4.6 -5.15 L-4.65 -5.25 -4.7 -5.45 -4.6 -5.2 -4.55 -5.2 -4.6 -5.15" fill="#7c6a3d" fill-rule="evenodd" stroke="none"/>
    <path d="M-5.75 -4.55 L-5.5 -4.7 -5.3 -4.6 -4.9 -4.45 -4.45 -3.95 -4.4 -3.45 -4.65 -3.8 -5.25 -4.1 -5.75 -4.15 -5.75 -4.55" fill="#9d864c" fill-rule="evenodd" stroke="none"/>
    <path d="M-7.7 7.6 L-8.0 7.4 -8.1 6.75 -7.85 6.1 -7.2 5.8 -7.1 6.3 -6.6 6.95 -6.1 6.3 -6.1 6.3 -6.0 5.8 -5.4 6.25 -5.3 6.35 -5.3 6.35 -5.2 7.0 -5.25 7.2 -5.25 7.25 -5.35 7.55 -5.4 7.65 -5.9 7.8 -6.0 7.85 -6.05 7.75 -7.35 7.25 -7.65 7.6 -7.65 7.6 -7.7 7.6 M-5.85 -3.85 L-5.95 -4.2 -5.75 -4.15 -5.25 -4.1 -4.65 -3.8 -4.4 -3.45 -4.25 -3.25 -4.25 -3.2 -4.25 -3.05 -4.45 -3.3 -5.05 -3.55 -5.5 -3.45 -5.7 -3.45 -5.7 -3.45 -5.75 -3.5 -5.85 -3.85 M-7.1 4.55 L-7.0 4.45 -7.0 4.4 -6.8 4.5 -6.9 4.7 -7.1 4.65 -7.1 4.55" fill="#665732" fill-rule="evenodd" stroke="none"/>
    <path d="M-5.75 -3.5 L-5.7 -3.45 -5.7 -3.45 -5.5 -3.45 -5.05 -3.4 -4.2 -2.65 -4.95 -1.85 -6.0 -2.1 -5.45 -1.75 -5.4 -1.7 -5.55 -1.65 -5.9 -1.7 -5.95 -1.7 -6.0 -1.7 -6.3 -2.2 -6.75 -2.3 -6.9 -2.45 -6.3 -3.3 -5.75 -3.5" fill="#7a683b" fill-rule="evenodd" stroke="none"/>
    <path d="M-4.05 -2.8 L-4.0 -2.7 -3.75 -2.35 -3.85 -2.2 -4.5 -1.65 -4.75 -1.8 -4.95 -1.85 -4.2 -2.65 -5.05 -3.4 -5.5 -3.45 -5.05 -3.55 -4.45 -3.3 -4.25 -3.05 -4.05 -2.8 M-5.9 -1.7 L-5.55 -1.65 -5.4 -1.7 -5.1 -1.45 -5.1 -1.45 -5.3 -1.45 -5.9 -1.65 -5.9 -1.7 M-5.65 1.9 L-5.65 1.75 -5.6 1.8 -5.6 1.85 -5.65 1.9 M-6.45 2.7 L-6.45 2.7 -6.5 2.7 -6.45 2.7" fill="#655631" fill-rule="evenodd" stroke="none"/>
    <path d="M-8.4 -2.4 L-7.7 -2.75 -7.55 -2.75 -7.65 -2.4 -8.4 -2.4" fill="#6e5e35" fill-rule="evenodd" stroke="none"/>
    <path d="M-5.8 -1.35 L-5.9 -1.5 -5.85 -1.5 -5.95 -1.7 -5.9 -1.7 -5.9 -1.65 -5.3 -1.45 -5.1 -1.45 -4.95 -1.35 -4.9 -1.35 -4.95 -1.3 -5.05 -1.4 -5.7 -1.4 -5.8 -1.35" fill="#af9555" fill-rule="evenodd" stroke="none"/>
    <path d="M-4.95 -1.85 L-4.75 -1.8 -4.5 -1.65 -4.25 -1.4 -4.05 -1.3 -3.8 -1.15 -3.55 -1.0 -3.95 -1.15 -4.2 -1.2 -4.3 -1.25 -4.8 -1.35 -4.9 -1.35 -4.95 -1.35 -5.1 -1.45 -5.1 -1.45 -5.4 -1.7 -5.45 -1.75 -6.0 -2.1 -4.95 -1.85" fill="#6f5e36" fill-rule="evenodd" stroke="none"/>
    <path d="M-1.95 -4.35 L-1.8 -4.45 -1.75 -4.3 -1.95 -4.35 M-6.35 0.3 L-6.7 0.0 -6.3 -1.1 -5.8 -1.35 -5.7 -1.4 -5.05 -1.4 -4.95 -1.3 -4.75 -1.15 -4.55 -1.0 -4.5 -0.95 -4.05 -0.65 -4.4 0.05 -4.6 0.5 -4.65 0.5 -4.8 0.6 -4.9 0.65 -5.05 0.75 -5.15 0.8 -5.15 0.65 -5.4 0.8 -5.85 0.8 -5.9 0.75 -6.25 0.4 -6.35 0.3" fill="#9a834b" fill-rule="evenodd" stroke="none"/>
    <path d="M-4.5 -1.65 L-3.85 -2.2 -3.6 -2.35 -3.25 -2.7 -3.15 -2.65 -3.2 -2.75 -3.1 -2.9 -3.05 -2.75 -2.95 -2.55 -3.15 -2.65 -3.0 -2.5 -2.85 -2.4 -2.65 -2.15 -2.55 -2.0 -2.5 -2.0 -2.1 -1.55 -2.1 -1.75 -1.9 -1.6 -2.1 -1.85 -2.1 -1.85 -1.55 -2.35 -1.5 -2.55 -1.25 -2.4 -1.2 -2.35 -0.9 -2.15 -1.05 -1.9 -1.55 -1.15 -1.7 -1.4 -2.65 -1.7 -3.6 -1.55 -4.05 -1.3 -4.25 -1.4 -4.5 -1.65 M-4.75 -1.3 L-4.8 -1.35 -4.3 -1.25 -4.2 -1.2 -4.35 -1.1 -4.35 -1.1 -4.75 -1.3" fill="#b24343" fill-rule="evenodd" stroke="none"/>
    <path d="M-5.9 -1.5 L-6.0 -1.7 -5.95 -1.7 -5.85 -1.5 -5.9 -1.5" fill="#61532f" fill-rule="evenodd" stroke="none"/>
    <path d="M-1.4 -1.0 L-1.1 -0.65 -0.85 -0.35 -1.4 0.1 -1.65 -0.5 -1.65 -0.5 -2.4 -1.1 -3.4 -1.3 -3.8 -1.15 -4.05 -1.3 -3.6 -1.55 -2.65 -1.7 -1.7 -1.4 -1.55 -1.15 -1.5 -1.1 -1.4 -1.0 M-4.2 -1.2 L-3.95 -1.15 -4.5 -0.95 -4.55 -1.0 -4.35 -1.1 -4.35 -1.1 -4.2 -1.2" fill="#6c2828" fill-rule="evenodd" stroke="none"/>
    <path d="M-4.75 -1.15 L-4.75 -1.3 -4.35 -1.1 -4.55 -1.0 -4.75 -1.15" fill="#837040" fill-rule="evenodd" stroke="none"/>
    <path d="M-0.05 -2.5 L-0.15 -2.1 -0.2 -2.05 -0.3 -1.9 -0.7 -1.3 -0.9 -1.65 -0.95 -1.75 -1.05 -1.9 -0.9 -2.15 -1.2 -2.35 -1.2 -2.45 -1.3 -2.75 -1.15 -3.2 -1.1 -3.4 -0.95 -3.5 -0.6 -3.95 -0.55 -4.0 -0.4 -3.8 -0.1 -3.35 0.0 -2.8 0.0 -2.7 -0.05 -2.5" fill="#5b4d2c" fill-rule="evenodd" stroke="none"/>
    <path d="M-2.5 -4.15 L-2.25 -4.25 -2.2 -4.1 -2.15 -4.3 -1.95 -4.35 -1.75 -4.3 -1.5 -4.25 -1.45 -4.25 -1.75 -3.65 -2.1 -3.75 -2.45 -4.15 -2.5 -4.15 M-1.25 -4.05 L-1.25 -4.15 -1.25 -4.15 -1.2 -4.1 -1.25 -4.05 M-1.15 -3.2 L-1.3 -2.75 -1.2 -2.45 -1.25 -2.4 -1.5 -2.55 -1.45 -2.9 -1.35 -3.2 -1.3 -3.35 -1.15 -3.2" fill="#746238" fill-rule="evenodd" stroke="none"/>
    <path d="M-1.55 -3.35 L-1.3 -3.4 -1.3 -3.35 -1.35 -3.2 -1.45 -2.9 -1.45 -3.0 -1.6 -3.3 -1.35 -3.2 -1.55 -3.35" fill="#62532f" fill-rule="evenodd" stroke="none"/>
    <path d="M-2.7 -4.1 L-2.6 -4.1 -2.5 -4.15 -2.45 -4.15 -2.1 -3.75 -2.7 -3.95 -2.7 -4.1 M-1.6 -3.4 L-1.55 -3.35 -1.35 -3.2 -1.6 -3.3 -1.6 -3.4" fill="#4c4025" fill-rule="evenodd" stroke="none"/>
    <path d="M-2.9 5.9 L-2.1 7.0 -2.25 7.65 -2.35 7.75 -2.35 7.75 -3.2 6.75 -4.35 7.35 -4.55 7.8 -4.95 7.4 -4.8 7.25 -4.2 7.15 -3.7 6.7 -3.35 6.15 -3.05 5.95 -3.05 5.85 -2.9 5.9 M-3.05 -4.05 L-3.05 -4.1 -3.0 -4.05 -2.7 -3.95 -2.1 -3.75 -1.75 -3.65 -1.7 -3.65 -1.6 -3.4 -1.6 -3.3 -1.45 -3.0 -1.45 -2.9 -1.5 -2.55 -1.55 -2.35 -2.1 -1.85 -2.1 -2.4 -2.2 -3.05 -2.55 -3.6 -3.05 -4.05 M-5.4 6.25 L-5.35 6.1 -4.95 5.6 -4.95 5.65 -4.8 5.9 -4.8 5.9 -5.3 6.35 -5.3 6.35 -5.4 6.25 M-5.05 7.2 L-4.9 7.25 -5.0 7.3 -5.05 7.2" fill="#816e3f" fill-rule="evenodd" stroke="none"/>
    <path d="M-3.0 -4.15 L-2.7 -4.1 -2.7 -3.95 -3.0 -4.05 -3.0 -4.15 M-4.0 -2.7 L-3.65 -2.95 -3.55 -2.85 -3.25 -2.7 -3.6 -2.35 -3.85 -2.2 -3.75 -2.35 -4.0 -2.7 M-3.5 -3.05 L-3.45 -3.1 -3.1 -3.75 -3.15 -3.4 -3.1 -2.9 -3.2 -2.75 -3.4 -3.0 -3.5 -3.05" fill="#692828" fill-rule="evenodd" stroke="none"/>
    <path d="M-3.65 -2.95 L-3.95 -3.35 -3.5 -3.05 -3.4 -3.0 -3.2 -2.75 -3.15 -2.65 -3.25 -2.7 -3.55 -2.85 -3.65 -2.95 M-3.15 -2.65 L-2.95 -2.55 -2.85 -2.4 -2.4 -2.2 -2.1 -1.85 -1.9 -1.6 -2.1 -1.75 -2.5 -2.0 -2.55 -2.0 -2.65 -2.15 -2.85 -2.4 -2.85 -2.4 -3.0 -2.5 -3.15 -2.65" fill="#756439" fill-rule="evenodd" stroke="none"/>
    <path d="M-0.55 5.3 L-0.85 5.35 -0.9 5.3 -0.7 4.15 -0.75 4.0 -0.7 4.1 -0.5 5.1 -0.55 5.3 M-1.2 -2.45 L-1.2 -2.35 -1.25 -2.4 -1.2 -2.45 M-1.05 -1.9 L-0.95 -1.75 -1.5 -1.1 -1.55 -1.15 -1.05 -1.9" fill="#652626" fill-rule="evenodd" stroke="none"/>
    <path d="M-1.9 1.1 L-1.65 1.1 -1.7 1.2 -1.7 1.15 -1.9 1.1 M-3.35 1.1 L-3.05 1.15 -2.95 1.45 -3.1 1.4 -3.35 1.1" fill="#6d5d35" fill-rule="evenodd" stroke="none"/>
    <path d="M-1.7 1.3 L-1.75 1.3 -2.0 1.25 -2.0 1.3 -2.0 1.3 -1.9 1.7 -2.1 1.75 -2.2 1.65 -2.3 1.8 -2.4 1.8 -2.15 2.3 -2.4 2.2 -2.85 1.7 -2.95 1.45 -3.05 1.15 -2.4 1.25 -1.95 1.1 -1.9 1.1 -1.7 1.15 -1.7 1.2 -1.7 1.3" fill="#4f4326" fill-rule="evenodd" stroke="none"/>
    <path d="M-1.75 1.3 L-2.0 1.3 -2.0 1.25 -1.75 1.3" fill="#4a1c1c" fill-rule="evenodd" stroke="none"/>
    <path d="M-4.1 1.5 L-4.05 1.55 -4.05 1.55 -4.0 1.7 -3.9 2.05 -3.85 2.1 -3.75 2.45 -4.1 3.8 -4.45 3.7 -4.55 3.7 -5.4 3.45 -5.65 3.2 -5.65 2.45 -5.3 1.85 -5.3 1.25 -5.15 0.8 -5.05 0.75 -4.75 0.85 -4.3 1.25 -4.1 1.5 M-4.45 3.7 L-4.45 3.7 M-5.9 0.75 L-5.85 0.8 -5.4 0.8 -5.6 0.9 -5.85 0.95 -5.9 0.75" fill="#813030" fill-rule="evenodd" stroke="none"/>
    <path d="M-3.3 1.7 L-3.0 2.15 -3.1 2.1 -3.35 2.1 -3.9 1.95 -4.0 1.7 -4.05 1.55 -3.3 1.7 M-3.6 2.15 L-3.6 2.1 -3.65 2.15 -3.85 2.05 -3.85 2.1 -3.9 2.05 -3.9 1.95 -3.35 2.15 -3.3 2.15 -3.3 2.45 -3.5 2.3 -3.5 2.25 -3.5 2.1 -3.6 2.15" fill="#534628" fill-rule="evenodd" stroke="none"/>
    <path d="M-0.9 5.3 L-0.95 5.5 -1.45 5.4 -0.85 4.6 -0.75 4.0 -0.75 4.0 -0.7 4.15 -0.9 5.3 M-2.25 5.25 L-2.3 5.25 -2.35 5.2 -2.8 6.0 -2.9 5.9 -3.05 5.85 -3.4 5.6 -3.95 5.3 -4.45 4.45 -4.45 3.7 -4.1 3.8 -3.75 2.45 -3.85 2.1 -3.85 2.05 -3.65 2.15 -3.5 2.3 -3.3 2.45 -3.3 2.15 -3.3 2.15 -3.2 2.15 -3.1 2.2 -2.6 2.35 -3.0 2.95 -3.1 3.95 -2.75 4.85 -2.25 5.25 M-0.75 4.0 L-0.75 4.0 M-4.3 1.25 L-4.75 0.85 -5.05 0.75 -4.9 0.65 -4.4 1.1 -4.3 1.25 M-5.65 3.2 L-5.4 3.45 -4.55 3.7 -4.8 4.0 -4.9 4.1 -5.0 4.0 -5.35 3.8 -5.7 3.5 -5.65 3.4 -5.65 3.2" fill="#732b2b" fill-rule="evenodd" stroke="none"/>
    <path d="M-3.65 2.15 L-3.6 2.1 -3.6 2.15 -3.5 2.25 -3.5 2.3 -3.65 2.15 M-4.45 3.7 L-4.45 3.7 -4.45 4.45 -3.95 5.3 -3.4 5.6 -4.1 6.15 -4.35 5.85 -4.9 5.1 -4.95 5.1 -4.95 5.05 -5.05 4.25 -5.05 4.15 -5.05 4.1 -5.0 4.0 -4.9 4.1 -4.8 4.0 -4.7 4.05 -4.45 3.7" fill="#391515" fill-rule="evenodd" stroke="none"/>
    <path d="M-3.0 2.15 L-2.65 2.15 -2.15 2.45 -2.6 2.35 -3.1 2.2 -3.1 2.1 -3.2 2.15 -3.3 2.15 -3.3 2.15 -3.35 2.15 -3.9 1.95 -3.35 2.1 -3.1 2.1 -3.0 2.15" fill="#4c4125" fill-rule="evenodd" stroke="none"/>
    <path d="M-3.5 2.25 L-3.6 2.15 -3.5 2.1 -3.5 2.25" fill="#933737" fill-rule="evenodd" stroke="none"/>
    <path d="M-5.85 0.95 L-6.25 1.05 -6.8 1.4 -7.1 2.0 -7.1 2.1 -7.65 2.05 -7.5 1.75 -7.45 1.75 -7.3 1.45 -7.15 1.2 -7.1 1.1 -7.15 0.95 -7.2 0.95 -6.85 0.75 -6.25 0.4 -5.9 0.75 -5.85 0.95 M-7.05 2.65 L-7.05 2.75 -7.05 2.8 -7.05 2.9 -7.0 2.9 -7.15 3.0 -7.2 3.65 -7.5 4.05 -7.55 4.0 -7.9 3.25 -7.4 2.9 -7.35 2.8 -7.15 2.55 -7.1 2.55 -7.05 2.65 M-6.55 2.85 L-6.15 2.8 -6.0 2.7 -6.3 3.2 -6.3 3.55 -6.9 3.8 -6.9 3.75 -6.5 3.25 -6.55 2.85" fill="#792e2e" fill-rule="evenodd" stroke="none"/>
    <path d="M-5.15 0.8 L-5.3 1.25 -5.35 1.5 -5.4 1.55 -5.3 0.9 -5.35 1.05 -5.35 1.1 -5.65 1.65 -5.65 1.75 -5.85 1.9 -6.1 2.5 -6.45 2.7 -6.5 2.7 -6.75 2.85 -6.65 2.1 -6.15 1.7 -5.9 1.1 -5.6 0.9 -5.4 0.8 -5.15 0.65 -5.15 0.8" fill="#857141" fill-rule="evenodd" stroke="none"/>
    <path d="M-5.3 1.25 L-5.3 1.85 -5.65 2.45 -5.85 2.6 -5.85 2.9 -6.15 3.5 -6.05 2.85 -5.9 2.65 -5.85 2.55 -5.8 2.25 -5.65 2.05 -5.65 1.9 -5.6 1.85 -5.6 1.8 -5.65 1.75 -5.65 1.65 -5.35 1.1 -5.35 1.05 -5.3 0.9 -5.4 1.55 -5.35 1.5 -5.3 1.25" fill="#645530" fill-rule="evenodd" stroke="none"/>
    <path d="M-7.95 5.75 L-7.95 5.8 -8.4 6.3 -10.05 6.1 -10.55 5.4 -10.5 5.35 -10.2 5.2 -8.85 6.05 -7.95 5.75 M-10.6 5.4 L-11.0 4.8 -10.8 4.15 -10.35 3.7 -9.5 3.75 -10.0 3.95 -10.25 4.55 -10.2 4.95 -10.5 5.35 -10.6 5.4 M-6.85 0.45 L-6.65 0.4 -6.9 0.55 -7.05 0.65 -7.35 0.7 -7.4 0.6 -6.95 0.55 -6.85 0.45" fill="#4d4125" fill-rule="evenodd" stroke="none"/>
    <path d="M-6.85 0.75 L-7.2 0.95 -7.35 0.7 -7.05 0.65 -6.9 0.55 -6.95 0.65 -6.85 0.75" fill="#534729" fill-rule="evenodd" stroke="none"/>
    <path d="M-9.65 1.45 L-9.75 1.2 -9.8 1.1 -9.8 1.05 -9.55 0.6 -9.15 0.75 -8.5 0.6 -8.5 0.6 -8.0 0.2 -7.85 -0.1 -7.65 0.3 -7.55 0.35 -7.4 0.6 -7.35 0.7 -7.2 0.95 -7.15 0.95 -8.05 1.3 -7.6 1.4 -7.6 1.4 -7.55 1.4 -7.45 1.45 -7.4 1.45 -7.4 1.45 -7.3 1.45 -7.45 1.75 -7.55 1.7 -7.95 1.65 -8.0 1.65 -8.0 1.65 -8.15 1.65 -8.6 1.45 -9.15 1.5 -9.25 1.45 -9.65 1.45" fill="#7d6a3d" fill-rule="evenodd" stroke="none"/>
    <path d="M-9.2 3.3 L-9.25 3.3 -9.25 3.3 -9.3 3.3 -9.35 3.3 -9.3 3.25 -9.3 3.25 -9.2 3.25 -9.2 3.25 -9.2 3.3 M-9.3 3.2 L-8.95 2.6 -8.95 2.6 -8.85 2.5 -8.45 2.15 -8.35 2.15 -8.45 2.3 -9.0 2.7 -9.15 3.2 -9.3 3.2 M-7.1 2.1 L-6.9 2.1 -7.1 2.4 -7.15 2.55 -7.35 2.8 -7.6 2.8 -7.9 2.95 -8.25 2.95 -8.6 3.1 -8.7 3.1 -8.6 3.05 -8.3 2.45 -7.75 2.1 -7.7 2.05 -7.65 2.05 -7.1 2.1" fill="#4e4226" fill-rule="evenodd" stroke="none"/>
    <path d="M-8.65 3.4 L-9.2 3.3 -9.0 3.25 -9.2 3.25 -9.2 3.25 -9.3 3.25 -9.3 3.25 -9.5 3.25 -9.3 3.2 -9.15 3.2 -9.15 3.2 -8.85 3.1 -8.7 3.1 -8.6 3.1 -8.25 2.95 -7.9 2.95 -7.6 2.8 -7.35 2.8 -7.4 2.9 -7.9 3.25 -7.9 3.3 -8.4 3.4 -8.4 3.4 -8.45 3.35 -8.65 3.4 M-9.5 1.7 L-9.65 1.8 -9.55 1.65 -9.5 1.7 M-7.05 2.75 L-7.05 2.75 -6.8 2.75 -7.05 2.8 -7.05 2.75" fill="#544729" fill-rule="evenodd" stroke="none"/>
    <path d="M-5.65 2.45 L-5.65 3.2 -5.65 3.4 -5.7 3.5 -5.8 3.6 -6.15 4.25 -6.3 4.55 -6.3 3.55 -6.3 3.2 -6.0 2.7 -5.9 2.65 -6.05 2.85 -6.15 3.5 -5.85 2.9 -5.85 2.6 -5.65 2.45" fill="#594c2b" fill-rule="evenodd" stroke="none"/>
    <path d="M-7.0 2.9 L-6.55 2.85 -6.5 3.25 -6.9 3.75 -6.9 3.9 -7.0 4.4 -7.0 4.45 -7.1 4.55 -7.55 4.9 -7.55 4.7 -7.1 4.25 -7.6 4.35 -7.6 4.2 -7.5 4.05 -7.5 4.05 -7.2 3.65 -7.15 3.0 -7.0 2.9" fill="#695933" fill-rule="evenodd" stroke="none"/>
    <path d="M-7.1 2.4 L-7.05 2.65 -7.1 2.55 -7.15 2.55 -7.1 2.4 M-6.9 3.9 L-6.9 3.75 -6.9 3.8 -6.9 3.9" fill="#6c5c35" fill-rule="evenodd" stroke="none"/>
    <path d="M-7.15 5.15 L-7.3 5.6 -7.95 5.75 -8.85 6.05 -10.2 5.2 -10.0 5.1 -9.65 4.65 -9.55 4.6 -8.95 4.1 -9.6 4.6 -9.65 4.65 -10.15 4.9 -10.2 4.95 -10.25 4.55 -10.0 3.95 -9.5 3.75 -8.65 3.4 -8.45 3.35 -8.4 3.4 -8.4 3.4 -7.55 4.0 -7.5 4.05 -7.5 4.05 -7.6 4.2 -7.6 4.35 -7.95 4.4 -8.45 4.85 -9.05 5.0 -9.5 5.5 -8.85 5.45 -8.35 5.0 -7.7 4.85 -7.55 4.7 -7.55 4.9 -7.1 4.55 -7.1 4.65 -7.05 4.95 -7.1 5.05 -7.15 5.15" fill="#423820" fill-rule="evenodd" stroke="none"/>
    <path d="M-6.9 4.7 L-6.8 4.5 -6.65 4.2 -6.15 5.0 -6.2 5.0 -6.85 5.15 -7.05 4.95 -6.9 4.7" fill="#473c22" fill-rule="evenodd" stroke="none"/>
    <path d="M-6.15 4.25 L-5.8 3.6 -5.8 3.95 -6.15 4.25" fill="#6a5a34" fill-rule="evenodd" stroke="none"/>
    <path d="M-5.3 6.35 L-5.3 6.35 -4.8 5.9 -4.8 5.9 -4.15 6.75 -3.35 6.15 -3.7 6.7 -4.2 7.15 -4.8 7.25 -4.85 7.25 -4.9 7.25 -5.05 7.2 -5.2 7.2 -5.25 7.2 -5.2 7.0 -5.3 6.35 -5.3 6.35" fill="#3b321d" fill-rule="evenodd" stroke="none"/>
    <path d="M-5.25 7.2 L-5.2 7.2 -5.25 7.25 -5.25 7.2" fill="#675832" fill-rule="evenodd" stroke="none"/>
    <path d="M-4.9 7.25 L-4.85 7.25 -4.8 7.25 -4.95 7.4 -5.15 7.55 -5.45 8.0 -5.55 8.1 -5.8 8.2 -5.95 7.95 -5.95 7.9 -5.9 7.8 -5.4 7.65 -5.35 7.55 -5.2 7.45 -5.0 7.3 -4.9 7.25" fill="#6d5c35" fill-rule="evenodd" stroke="none"/>
    <path d="M-8.05 8.1 L-8.05 8.1 -9.25 7.55 -7.95 7.45 -7.7 7.6 -7.65 7.6 -8.05 8.1" fill="#4b4024" fill-rule="evenodd" stroke="none"/>
    <path d="M-4.3 8.9 L-4.0 9.85 -4.3 10.4 -4.85 10.8 -5.8 10.45 -5.85 9.8 -5.9 10.45 -6.4 10.25 -6.55 9.8 -5.75 9.0 -5.75 8.3 -5.8 8.2 -5.55 8.1 -5.45 8.0 -4.6 8.25 -4.6 8.6 -4.3 8.9 M-5.95 7.9 L-5.95 7.95 -6.0 7.9 -5.95 7.9" fill="#5d4f2d" fill-rule="evenodd" stroke="none"/>
    <path d="M-9.95 1.35 L-10.4 1.55 -11.1 1.7 -10.8 1.0 -10.4 0.5 -9.95 0.3 -10.0 0.4 -9.55 0.6 -9.8 1.05 -9.8 1.1 -9.95 1.35" fill="#4b4025" fill-rule="evenodd" stroke="none"/>
    <path d="M-9.25 3.3 L-9.4 3.4 -9.3 3.3 -9.25 3.3 -9.25 3.3 M-8.95 2.6 L-8.9 2.5 -8.85 2.5 -8.95 2.6" fill="#504427" fill-rule="evenodd" stroke="none"/>
    <path d="M1.45 -10.45 L0.55 -10.5 0.0 -10.15 -0.3 -9.55 -0.2 -8.6 -0.3 -8.6 -0.65 -9.5 -1.05 -9.35 -1.0 -9.85 -1.1 -9.75 -1.15 -9.95 -2.15 -10.8 -3.4 -10.3 -3.65 -9.7 -3.6 -9.25 -3.65 -9.2 -3.95 -9.3 -4.0 -9.2 -4.7 -9.4 -5.05 -8.1 -4.75 -7.15 -4.65 -7.05 -4.9 -6.45 -4.9 -5.8 -4.7 -5.45 -4.65 -5.25 -4.6 -5.15 -5.25 -4.7 -5.3 -4.6 -5.5 -4.7 -5.75 -4.55 -5.75 -5.7 -6.25 -6.1 -6.9 -6.25 -8.2 -5.15 -8.25 -4.6 -9.35 -4.5 -9.75 -3.35 -9.45 -2.75 -9.1 -2.55 -9.55 -2.55 -10.15 -2.25 -10.65 -1.55 -9.9 -1.1 -9.25 -1.1 -8.65 -1.4 -8.15 -1.95 -8.05 -1.9 -8.65 -1.05 -8.6 -0.95 -9.15 -0.85 -9.7 -0.45 -9.95 0.3 -10.4 0.5 -10.8 1.0 -11.1 1.7 -10.4 1.55 M0.4 -8.45 L0.95 -8.45 1.35 -8.75 1.45 -8.55 2.6 -8.75 3.1 -9.2 3.3 -9.85 2.9 -10.85 1.8 -10.75 1.45 -10.45 M6.5 -4.75 L6.5 -4.8 7.0 -5.25 7.6 -5.6 7.45 -4.95 7.25 -4.55 7.45 -4.5 7.4 -4.3 7.8 -4.5 8.45 -4.5 9.2 -4.05 8.7 -3.35 8.2 -3.05 8.3 -3.0 8.35 -2.75 8.5 -2.75 8.5 -2.7 8.65 -2.6 9.15 -3.05 9.8 -3.1 10.4 -3.4 11.1 -3.3 10.6 -2.8 9.9 -2.75 9.35 -2.4 9.1 -2.4 9.3 -2.35 9.4 -2.25 9.65 -2.2 10.1 -1.65 9.95 -1.65 10.15 -1.4 9.4 -1.65 9.4 -1.65 8.9 -1.8 8.65 -2.1 8.25 -2.2 8.25 -2.2 8.0 -2.4 7.8 -2.3 7.8 -1.95 7.5 -1.7 7.5 -1.7 7.5 -1.65 7.35 -1.3 7.3 -1.2 7.55 -1.05 7.6 -1.05 7.7 -0.95 7.8 -0.8 7.9 -0.7 8.1 -0.5 8.1 -0.8 8.15 -0.8 8.4 -0.5 8.7 -0.2 9.1 0.35 9.15 1.0 9.0 1.75 8.45 1.25 8.1 0.7 8.05 0.05 8.1 -0.45 7.95 -0.4 7.9 0.2 7.9 0.85 7.75 0.25 7.55 -0.25 7.35 -0.2 6.7 -0.2 6.1 -0.55 6.0 -0.65 5.9 -0.65 5.55 -0.65 5.5 -0.65 5.05 -0.55 5.45 -0.45 5.65 -0.2 5.75 -0.2 5.65 -0.2 5.9 0.15 5.85 0.15 5.6 0.65 4.6 1.0 4.55 1.05 4.5 1.05 4.0 1.2 3.45 0.85 3.25 0.8 2.9 0.85 2.5 1.4 Q2.1 1.65 1.7 1.95 L1.7 1.8 1.55 1.95 1.5 1.95 1.35 1.9 1.75 2.45 1.85 2.6 1.85 2.65 2.05 2.95 1.35 3.4 1.4 3.55 1.2 3.6 0.35 3.9 0.5 5.15 -0.55 5.3 -0.85 5.35 -0.9 5.3 -0.95 5.5 -1.45 5.4 -1.65 5.7 -2.25 5.25 -2.3 5.25 -2.35 5.2 -2.8 6.0 -2.9 5.9 -2.1 7.0 -2.25 7.65 -2.35 7.75 -2.35 8.4 -2.6 9.0 -3.75 9.45 -4.3 8.9 -4.0 9.85 -4.3 10.4 -4.85 10.8 -5.8 10.45 -5.75 10.6 -5.85 10.85 -5.9 10.6 -5.9 10.45 -6.4 10.25 -6.55 9.8 -6.65 9.9 -7.9 9.55 -8.2 8.95 -8.2 8.3 -8.05 8.1 -8.05 8.1 -9.25 7.55 -7.95 7.45 -7.7 7.6 -8.0 7.4 -8.1 6.75 -7.85 6.1 -7.2 5.8 -7.25 5.65 -7.15 5.15 -7.3 5.6 -7.95 5.75 -7.95 5.8 -8.4 6.3 -10.05 6.1 -10.55 5.4 -10.55 5.4 -11.1 5.8 -10.6 5.4 -10.6 5.4 -11.0 4.8 -10.8 4.15 -10.35 3.7 -9.5 3.75 -8.65 3.4 -9.2 3.3 -9.25 3.35 -9.2 3.3 -9.25 3.3 -9.4 3.4 -9.3 3.3 -9.35 3.3 -9.3 3.25 -9.5 3.25 -9.3 3.2 -8.95 2.6 -8.95 2.6 -8.9 2.5 -9.2 2.4 -9.5 1.7 -9.65 1.8 -9.55 1.65 -9.6 1.45 -9.65 1.45 -9.75 1.2 -9.8 1.25 -9.9 1.3 M1.7 -7.55 L1.6 -7.75 2.6 -8.15 2.85 -8.1 3.25 -8.05 3.8 -7.7 4.15 -6.8 3.55 -6.5 4.15 -5.5 3.0 -6.15 2.85 -6.4 2.65 -6.4 2.75 -6.25 2.85 -6.15 2.85 -6.0 2.9 -5.95 2.9 -5.9 3.05 -5.15 2.9 -4.6 3.0 -4.55 2.85 -4.45 2.9 -4.1 2.7 -4.1 2.75 -3.8 2.75 -3.8 2.85 -3.5 2.75 -3.25 2.65 -2.85 2.3 -2.6 2.4 -2.4 2.25 -2.6 1.45 -2.05 0.8 -2.5 0.2 -2.4 -0.05 -2.5 -0.15 -2.1 0.0 -2.2 0.15 -2.15 0.15 -2.15 1.35 -2.0 1.25 -1.6 1.35 -1.6 1.55 -1.95 1.9 -1.75 2.5 -2.35 2.45 -2.35 M2.35 -2.3 L2.55 -2.5 2.65 -2.5 2.85 -2.7 3.15 -2.8 3.5 -3.1 4.05 -3.25 4.05 -3.25 4.25 -3.8 4.55 -4.05 4.9 -4.0 5.35 -3.65 5.3 -3.55 5.35 -3.6 5.35 -3.6 5.4 -4.25 5.9 -4.65 6.5 -4.75 M1.7 -7.55 L1.75 -7.45 1.0 -7.95 0.7 -7.95 0.55 -8.3 0.4 -8.35 0.4 -8.45 M1.9 -7.2 L2.0 -7.0 1.95 -7.0 1.25 -7.25 1.9 -7.2 M0.7 -7.25 L0.7 -7.3 0.8 -7.25 0.9 -7.25 0.7 -6.7 0.1 -6.65 0.65 -7.0 0.65 -7.0 0.7 -7.25 M-1.0 -4.3 L-0.95 -4.3 -1.2 -4.1 -1.25 -4.15 -1.25 -4.25 -1.0 -4.3 M4.0 -2.9 L4.05 -2.9 4.05 -2.95 4.0 -2.9 M3.85 -2.7 L3.6 -2.35 3.55 -2.4 3.85 -2.7 M3.7 -2.3 L3.8 -2.35 3.8 -2.25 3.8 -2.25 3.7 -2.3 M4.25 -3.1 L4.1 -3.2 3.8 -2.95 4.15 -3.05 4.25 -3.1 M-7.55 -2.9 L-7.25 -2.85 -7.2 -2.85 -7.1 -2.9 -5.85 -3.85 -5.75 -3.5 -6.3 -3.3 -6.9 -2.45 -6.75 -2.3 -6.9 -2.35 -7.8 -2.25 -7.95 -2.05 -8.05 -2.05 -8.0 -2.15 -8.55 -2.4 -8.4 -2.4 -7.65 -2.4 -7.55 -2.75 -7.55 -2.9 M-3.6 -6.25 L-3.55 -6.2 -3.75 -5.9 -3.75 -6.05 -3.9 -6.35 -3.6 -6.25 M-0.9 -5.85 L-0.85 -6.15 -0.75 -6.15 -0.75 -6.1 -0.3 -6.4 -0.25 -5.9 -0.7 -5.6 -0.8 -5.5 -0.8 -5.5 -0.9 -5.85 M-4.8 -1.35 L-4.9 -1.35 -4.95 -1.3 -4.75 -1.15 -4.75 -1.3 -4.8 -1.35 M-1.4 -4.35 L-1.45 -4.25 -1.5 -4.25 -1.4 -4.35 M-1.25 -4.15 L-1.25 -4.15 M-3.35 1.1 L-3.1 1.4 -2.95 1.45 -2.85 1.7 -2.4 2.2 -2.15 2.3 -2.15 2.35 -2.2 2.4 -2.1 2.5 -2.15 2.45 -2.65 2.15 -3.0 2.15 -3.3 1.7 -2.85 1.75 -3.4 1.1 -3.85 0.7 -3.4 1.1 -3.35 1.1 M-3.9 0.7 L-4.55 0.5 -4.65 0.5 -4.6 0.5 -4.4 0.05 -4.15 0.5 -3.9 0.7 M-6.3 3.55 L-6.3 4.55 -6.15 4.25 -5.8 3.95 -5.8 3.6 -5.7 3.5 -5.35 3.8 -5.75 4.05 -5.05 4.15 -5.05 4.25 -5.1 4.7 -5.05 4.8 -4.95 5.6 -5.35 6.1 -5.4 6.25 -6.0 5.8 -5.95 5.65 -6.15 5.0 -6.15 5.0 -6.65 4.2 -6.8 4.5 -7.0 4.4 -6.9 3.9 -6.9 3.8 -6.3 3.55 M-7.9 3.25 L-7.9 3.3 -8.4 3.4 -7.55 4.0 -7.9 3.25 M-7.1 4.65 L-6.9 4.7 -7.05 4.95 -7.1 4.65 M-5.2 7.2 L-5.05 7.2 -5.0 7.3 -5.2 7.45 -5.35 7.55 -5.25 7.25 -5.2 7.2 M-6.0 7.85 L-5.9 7.8 -5.95 7.9 -6.0 7.9 -6.0 7.85 M-4.6 8.25 L-5.45 8.0 -5.15 7.55 -4.95 7.4 -4.55 7.8 -4.65 7.95 -4.6 8.25 Z" fill="none" stroke="#000000" stroke-linecap="round" stroke-linejoin="round" stroke-opacity="0.4509804" stroke-width="1.0"/>
  </g>
</svg>
