<?xml version="1.0" encoding="UTF-8" standalone="no"?>
<svg xmlns:xlink="http://www.w3.org/1999/xlink" height="23.5px" width="25.7px" xmlns="http://www.w3.org/2000/svg">
  <g transform="matrix(1.0, 0.0, 0.0, 1.0, 12.85, 11.75)">
    <path d="M0.55 -9.55 L0.3 -9.75 0.05 -10.35 0.05 -11.0 0.55 -11.75 1.3 -11.25 1.6 -10.65 1.6 -10.0 1.15 -9.2 1.15 -9.25 0.55 -9.55" fill="#98814a" fill-rule="evenodd" stroke="none"/>
    <path d="M4.65 -9.7 L4.65 -10.55 5.05 -11.1 5.65 -11.35 6.35 -11.1 6.8 -10.9 6.95 -9.95 6.95 -9.7 6.55 -9.15 5.95 -8.9 5.6 -9.0 5.25 -9.1 4.7 -9.25 4.65 -9.7" fill="#5d4f2d" fill-rule="evenodd" stroke="none"/>
    <path d="M6.35 -11.1 L6.45 -11.25 7.4 -11.55 7.75 -10.65 7.6 -10.0 7.35 -9.7 6.95 -9.95 6.8 -10.9 6.35 -11.1 M7.45 -0.55 L7.2 -0.7 6.5 -2.0 7.2 -1.6 7.2 -1.55 7.75 -1.2 8.1 -0.5 8.05 -0.4 8.05 -0.45 7.8 -0.35 7.75 -0.35 7.65 -0.4 7.55 -0.6 7.45 -0.55 M8.25 -0.25 L8.35 0.0 8.3 -0.05 8.2 -0.2 8.25 -0.25 M7.55 3.25 L8.35 3.7 8.35 3.75 8.3 3.75 8.4 4.1 8.55 4.45 8.4 4.6 7.8 4.25 7.8 4.2 7.25 3.3 7.55 3.25" fill="#60522f" fill-rule="evenodd" stroke="none"/>
    <path d="M7.35 -9.7 L7.9 -9.35 7.9 -7.95 7.4 -7.55 6.8 -7.35 5.85 -7.85 5.5 -8.05 5.55 -8.45 5.55 -8.65 5.55 -8.7 5.6 -9.0 5.95 -8.9 6.55 -9.15 6.95 -9.7 6.95 -9.95 7.35 -9.7 M8.2 7.7 L8.35 7.8 8.65 8.4 8.4 9.45 7.3 9.55 6.8 9.15 6.5 8.55 6.6 7.4 7.7 7.45 7.8 7.45 8.2 7.7 M6.2 -8.0 L6.35 -8.1 6.8 -8.25 7.3 -8.7 6.7 -8.45 6.35 -8.1 6.15 -8.05 6.05 -7.9 6.2 -8.0 M5.85 -7.85 L5.85 -7.85" fill="#6a5a34" fill-rule="evenodd" stroke="none"/>
    <path d="M2.5 -8.55 L2.55 -9.15 2.8 -9.3 2.85 -9.35 3.7 -10.0 4.65 -9.7 4.7 -9.25 5.25 -9.1 5.3 -8.95 5.3 -8.65 5.5 -8.7 5.55 -8.65 5.55 -8.45 4.55 -9.05 3.35 -8.4 3.15 -7.8 3.2 -7.7 3.1 -7.7 2.75 -7.85 2.65 -8.15 2.5 -8.5 2.5 -8.55 M5.85 -7.85 L5.9 -7.75 5.7 -7.6 5.55 -7.5 5.0 -7.25 5.25 -7.5 5.35 -7.6 5.6 -7.8 5.85 -7.85 5.85 -7.85 M-4.8 1.1 L-5.35 1.1 -5.15 0.95 -4.95 0.85 -4.8 0.7 -4.75 0.7 -4.25 0.65 -4.1 0.65 -3.55 0.3 -2.75 0.3 -2.7 0.3 -2.75 0.35 -3.45 0.75 -4.1 0.75 -4.25 0.85 -4.65 1.1 -4.65 1.1 -4.8 1.1 -4.8 1.1 M6.2 -8.0 L6.05 -7.9 6.15 -8.05 6.35 -8.1 6.7 -8.45 7.3 -8.7 6.8 -8.25 6.35 -8.1 6.2 -8.0 M-2.15 0.75 L-1.95 0.8 -1.9 0.85 -1.9 0.85 -1.95 0.95 -2.35 0.95 -2.15 0.75 M6.45 3.4 L6.45 3.35 6.4 3.25 6.45 3.4 M-2.85 0.65 L-3.1 1.15 -2.85 1.1 -3.2 1.45 -3.2 1.5 -3.65 1.1 -4.1 1.05 -3.55 1.05 -3.45 1.05 -3.45 1.0 -3.2 0.7 -2.85 0.65 M-4.2 1.2 L-3.85 1.5 -3.85 1.5 -3.2 1.65 -3.3 1.85 -3.45 2.15 -3.55 2.3 -3.5 2.6 -3.5 2.65 -3.5 2.85 -3.75 2.75 -3.75 2.75 -3.8 2.75 -3.8 1.9 -4.1 1.45 -4.1 1.4 -4.15 1.4 -4.2 1.35 -4.2 1.2 M-3.8 2.75 L-4.05 2.65 -4.4 2.8 -4.4 2.75 -4.45 2.75 -4.55 2.4 -4.65 2.15 -4.5 1.7 -4.4 1.5 -4.35 2.1 -3.8 2.75 -3.8 2.75" fill="#645531" fill-rule="evenodd" stroke="none"/>
    <path d="M5.6 -9.0 L5.55 -8.7 5.5 -8.7 5.3 -8.65 5.3 -8.95 5.25 -9.1 5.6 -9.0" fill="#99824a" fill-rule="evenodd" stroke="none"/>
    <path d="M5.8 -7.35 L5.7 -7.05 4.8 -6.5 4.55 -6.35 4.5 -6.3 4.35 -6.4 4.0 -6.65 3.6 -6.9 3.6 -7.2 3.85 -7.45 3.85 -7.45 4.05 -7.7 4.65 -7.95 Q4.8 -7.9 4.9 -7.85 L4.9 -7.55 5.25 -7.5 5.0 -7.25 5.55 -7.5 5.8 -7.35 M5.7 -5.65 L5.8 -5.75 5.6 -5.45 5.25 -5.35 5.35 -5.45 5.45 -5.55 5.55 -5.6 5.7 -5.65" fill="#756439" fill-rule="evenodd" stroke="none"/>
    <path d="M5.8 -5.75 L5.95 -5.8 5.8 -5.6 5.75 -5.55 5.15 -5.15 5.3 -5.2 4.95 -5.0 5.25 -5.35 5.6 -5.45 5.8 -5.75 M5.25 -7.5 L4.9 -7.55 4.9 -7.85 5.35 -7.6 5.25 -7.5 M4.95 -5.0 L4.95 -5.0 M3.45 -4.45 L3.6 -4.45 3.65 -4.4 3.55 -4.3 3.45 -4.45" fill="#4a3f24" fill-rule="evenodd" stroke="none"/>
    <path d="M5.9 -7.75 L5.9 -7.7 5.8 -7.35 5.55 -7.5 5.7 -7.6 5.9 -7.75 M5.55 -8.45 L5.5 -8.05 5.85 -7.85 5.6 -7.8 5.35 -7.6 4.9 -7.85 Q4.8 -7.9 4.65 -7.95 L4.05 -7.7 3.85 -7.45 3.85 -7.45 3.6 -7.2 3.6 -6.9 3.3 -7.15 3.2 -7.7 3.15 -7.8 3.35 -8.4 4.55 -9.05 5.55 -8.45" fill="#7d6b3d" fill-rule="evenodd" stroke="none"/>
    <path d="M5.15 -6.55 L5.4 -6.85 6.0 -7.15 6.7 -7.3 6.35 -6.7 5.95 -6.15 5.55 -6.0 5.0 -5.8 4.55 -5.65 5.0 -6.35 5.15 -6.55" fill="#594b2b" fill-rule="evenodd" stroke="none"/>
    <path d="M4.6 -6.25 L5.15 -6.6 5.15 -6.55 5.0 -6.35 4.55 -5.65 5.0 -5.8 4.6 -5.4 4.55 -5.3 4.5 -5.3 4.5 -5.35 4.45 -5.35 4.4 -5.3 3.9 -5.0 3.75 -4.6 3.85 -5.15 3.85 -5.15 4.3 -5.6 4.5 -6.15 4.55 -6.2 4.6 -6.25 M9.1 -2.4 L9.55 -3.75 9.7 -3.7 10.45 -3.1 9.85 -2.4 9.35 -2.2 9.1 -2.4" fill="#837040" fill-rule="evenodd" stroke="none"/>
    <path d="M4.0 -6.65 L4.35 -6.4 4.3 -6.3 4.3 -6.3 4.1 -6.45 4.0 -6.6 4.0 -6.65 M3.35 -5.75 L3.6 -5.4 3.35 -5.25 3.05 -4.9 3.1 -5.15 3.15 -5.25 3.2 -5.55 3.25 -5.65 3.35 -5.75 M3.2 -5.55 L3.2 -5.55" fill="#af9555" fill-rule="evenodd" stroke="none"/>
    <path d="M4.35 -6.15 L4.4 -5.95 4.4 -5.95 4.15 -5.65 3.65 -5.4 3.6 -5.4 3.6 -5.4 3.35 -5.75 3.25 -5.85 3.15 -6.2 3.25 -6.35 3.65 -6.0 4.1 -6.45 4.1 -6.45 4.3 -6.3 4.35 -6.15" fill="#723226" fill-rule="evenodd" stroke="none"/>
    <path d="M4.35 -6.4 L4.5 -6.3 4.55 -6.35 4.35 -6.15 4.3 -6.3 4.3 -6.3 4.35 -6.4 M4.55 -6.35 L4.55 -6.35 M2.5 -7.25 L2.7 -7.4 2.45 -6.95 2.45 -6.3 2.85 -5.35 3.25 -5.65 3.2 -5.55 3.15 -5.25 3.0 -5.35 2.85 -5.35 2.8 -5.35 2.25 -5.7 2.35 -6.8 2.3 -6.8 2.35 -6.9 2.4 -7.15 2.5 -7.25 M3.2 -5.55 L3.2 -5.55" fill="#5c4f2d" fill-rule="evenodd" stroke="none"/>
    <path d="M-6.6 1.25 L-6.7 1.2 -6.65 1.15 -6.6 1.25 M-6.6 0.95 L-6.6 0.85 -6.4 0.65 -6.15 0.45 Q-5.9 0.55 -5.65 0.65 L-5.4 0.95 -5.5 1.3 -5.7 1.5 -5.95 1.65 -6.15 1.3 -6.6 0.95 M4.1 -6.45 L4.1 -6.45 3.65 -6.0 3.25 -6.35 3.35 -6.5 3.9 -6.7 4.0 -6.6 4.1 -6.45 M9.65 3.55 L9.7 3.55 9.7 3.6 9.5 3.65 9.25 3.55 9.15 3.25 9.2 3.3 9.65 3.55 M-2.0 3.95 L-2.05 3.95 -1.8 3.45 -1.55 3.4 -1.6 3.5 -1.7 3.55 -2.0 3.95 M-6.4 0.65 L-6.35 0.7 -6.35 0.65 -6.4 0.65" fill="#6f3125" fill-rule="evenodd" stroke="none"/>
    <path d="M4.8 -6.5 L4.6 -6.25 4.55 -6.2 4.5 -6.15 4.4 -6.0 4.4 -5.95 4.35 -6.15 4.55 -6.35 4.8 -6.5 M3.6 -5.4 L3.6 -5.4 3.65 -5.4 3.45 -5.1 3.45 -5.1 2.8 -4.6 3.05 -4.9 3.35 -5.25 3.6 -5.4" fill="#544829" fill-rule="evenodd" stroke="none"/>
    <path d="M-7.15 8.0 L-7.8 7.95 -7.7 7.05 -7.35 6.6 -7.3 6.55 -7.2 6.5 -6.7 6.25 -6.45 6.25 -5.7 6.2 -5.7 6.25 -5.85 6.8 -6.4 6.75 -7.0 7.05 -7.5 7.75 -7.15 8.0 M3.75 -4.6 L3.9 -5.0 4.4 -5.3 3.65 -4.25 3.65 -4.2 3.35 -4.2 3.5 -4.3 3.55 -4.3 3.65 -4.4 3.75 -4.6 M4.5 -5.35 L4.5 -5.3 4.5 -5.35 M-4.9 4.1 L-4.8 4.15 -4.4 4.45 -4.35 4.45 -4.3 4.55 -3.95 5.25 -3.85 5.5 -3.85 5.5 -4.3 5.3 -4.4 5.35 -4.45 5.35 -4.6 5.35 -4.65 5.35 -5.05 5.3 -5.35 5.6 -5.35 5.6 -5.45 5.7 -5.5 5.65 -5.5 5.65 -5.7 5.5 -5.9 5.35 -5.9 5.35 -6.0 5.25 -6.2 4.75 -6.3 4.45 -6.3 4.35 -6.25 4.35 -6.0 4.25 -5.95 4.3 -5.9 4.2 -5.75 4.15 -5.55 4.5 -5.1 4.8 -5.05 4.9 -4.6 5.35 -5.0 4.85 -5.1 4.8 -5.35 4.3 -5.7 4.1 -5.65 4.1 -5.45 4.0 -5.35 4.05 -5.0 4.1 -4.9 4.1 M-1.55 3.8 L-1.6 3.8 -1.8 3.9 -1.55 3.75 -1.55 3.8 M-5.0 4.1 L-5.0 4.1 M-1.5 6.75 L-1.35 6.75 -0.85 7.1 -0.85 7.1 -1.0 7.2 -1.45 7.0 -1.5 6.9 -1.5 6.75 M-1.6 6.7 L-1.5 6.9 -1.5 7.0 -1.8 6.85 -1.95 6.65 -1.6 6.7 M-2.3 6.0 L-2.0 6.05 -2.05 6.15 -2.3 6.0 M-2.5 5.9 L-2.5 6.0 -2.65 5.85 Q-2.55 5.85 -2.5 5.9" fill="#3d341e" fill-rule="evenodd" stroke="none"/>
    <path d="M4.4 -5.3 L4.45 -5.35 4.5 -5.35 4.5 -5.3 4.55 -5.3 4.95 -5.0 4.95 -5.0 5.3 -4.75 5.55 -4.55 5.7 -4.3 5.75 -4.15 5.75 -4.1 5.95 -3.65 5.95 -3.5 5.85 -3.4 5.5 -2.8 5.45 -2.15 5.5 -1.95 5.3 -1.55 5.1 -2.85 4.6 -3.7 3.75 -4.2 3.75 -4.2 3.65 -4.2 3.65 -4.25 4.4 -5.3 M5.15 -1.35 L5.15 -1.35 5.15 -1.35" fill="#823131" fill-rule="evenodd" stroke="none"/>
    <path d="M5.55 -6.0 L5.7 -5.65 5.55 -5.6 5.2 -5.6 5.35 -5.45 5.25 -5.35 4.95 -5.0 5.3 -5.2 5.65 -5.2 5.4 -4.85 5.3 -4.75 4.95 -5.0 4.55 -5.3 4.6 -5.4 5.0 -5.8 5.55 -6.0 M7.2 6.7 L7.15 6.85 6.9 6.95 6.55 7.05 6.65 6.65 6.6 5.95 6.3 5.5 6.65 5.8 7.1 6.25 7.35 6.35 7.3 6.4 7.2 6.7 M6.05 5.15 L6.2 4.8 7.25 5.6 7.3 5.85 6.75 5.7 6.25 5.4 6.05 5.15 M-7.7 1.65 L-7.85 1.65 -8.3 1.9 -8.5 1.75 -8.35 1.95 -8.55 2.05 -8.95 1.45 -9.5 1.05 -9.9 1.05 -9.95 0.6 -8.85 0.15 -8.25 0.35 -7.8 0.85 -7.7 1.65" fill="#504427" fill-rule="evenodd" stroke="none"/>
    <path d="M5.8 -5.6 L5.85 -5.6 5.75 -5.55 5.8 -5.6 M7.7 -4.85 L7.8 -4.8 7.6 -4.8 7.7 -4.85 M8.05 -4.45 L7.45 -4.4 8.6 -5.3 9.25 -5.4 9.95 -5.4 8.9 -4.55 8.3 -4.45 8.05 -4.45 M5.35 -5.45 L5.2 -5.6 5.55 -5.6 5.45 -5.55 5.35 -5.45 M5.75 -5.2 L6.55 -5.3 6.35 -5.1 6.55 -5.3 6.65 -5.3 6.85 -5.45 7.25 -5.25 7.3 -5.05 7.0 -4.8 7.0 -4.8 6.45 -4.8 5.75 -5.2 M4.6 3.7 L4.4 4.0 4.4 3.8 4.6 3.7 M-0.15 2.15 L0.25 2.15 0.85 2.45 0.95 2.95 0.3 2.7 0.2 2.75 -0.4 2.9 -0.25 2.3 -0.35 2.15 -0.2 2.15 -0.15 2.15 M-1.3 3.4 L-1.15 3.4 -1.4 3.65 -1.4 3.55 -1.3 3.4 M-0.2 2.15 L-0.2 2.15 M-4.5 1.7 L-4.65 2.15 -4.55 2.4 -4.7 2.5 -4.85 3.15 -5.1 3.4 -4.9 3.1 -4.9 2.45 -4.7 2.1 -4.65 1.8 -4.6 1.8 -4.6 1.8 -4.5 1.7 M-4.1 1.45 L-4.15 1.4 -4.1 1.4 -4.1 1.45 M-5.45 3.65 L-5.45 3.7 -5.5 3.75 -5.45 3.65" fill="#6b5b34" fill-rule="evenodd" stroke="none"/>
    <path d="M5.85 -5.6 L6.4 -5.95 7.15 -6.05 7.15 -6.0 7.05 -5.8 6.85 -5.7 6.55 -5.3 5.75 -5.2 5.65 -5.2 5.3 -5.2 5.15 -5.15 5.75 -5.55 5.85 -5.6 M10.45 4.3 L10.35 4.25 9.85 3.8 9.8 3.7 9.7 3.6 9.7 3.55 9.75 3.6 9.8 3.6 10.3 3.95 10.45 4.3 M6.55 -5.3 L6.95 -5.65 7.05 -5.8 7.1 -5.9 7.1 -5.65 6.85 -5.45 6.65 -5.3 6.55 -5.3 M5.0 -1.35 L5.05 -1.35 5.1 -1.3 5.15 -1.25 4.95 -1.15 5.0 -1.35 M-3.2 6.45 L-3.15 6.35 -3.1 6.35 -3.1 6.3 -3.0 6.2 -2.95 6.3 -3.05 6.4 -3.2 6.45 -3.2 6.45" fill="#4f4326" fill-rule="evenodd" stroke="none"/>
    <path d="M7.15 -6.05 L7.15 -6.35 7.55 -6.9 8.4 -7.25 8.75 -6.4 8.7 -5.75 8.3 -5.2 7.7 -4.85 7.6 -4.8 7.4 -4.7 7.4 -4.75 7.4 -4.8 7.55 -5.2 7.3 -5.05 7.25 -5.25 7.1 -5.65 7.1 -5.9 7.15 -6.0 7.15 -6.05 M10.75 1.4 L11.35 1.4 11.95 1.75 12.2 3.25 12.0 3.45 11.45 3.4 11.5 3.35 11.45 1.9 10.75 1.4 M9.95 3.95 L10.05 4.1 9.95 4.05 9.95 3.95 M7.7 -0.3 L7.7 -0.35 7.75 -0.35 7.8 -0.35 7.7 -0.3 M8.2 -0.35 L8.3 -0.35 8.2 -0.3 8.2 -0.35 M9.65 2.4 L9.7 2.4 9.8 2.35 10.25 2.9 9.75 3.15 9.55 2.5 9.65 2.4" fill="#433920" fill-rule="evenodd" stroke="none"/>
    <path d="M6.55 -5.3 L6.85 -5.7 7.05 -5.8 7.15 -6.0 7.1 -5.9 7.05 -5.8 6.95 -5.65 6.55 -5.3 6.35 -5.1 6.55 -5.3" fill="#3e341e" fill-rule="evenodd" stroke="none"/>
    <path d="M7.4 -4.75 L7.35 -4.6 6.85 -4.15 6.6 -3.55 6.6 -3.5 6.55 -3.45 6.4 -3.35 6.0 -3.0 6.3 -3.75 6.35 -3.8 6.8 -4.2 7.0 -4.8 7.0 -4.8 7.3 -5.05 7.55 -5.2 7.4 -4.8 7.4 -4.75" fill="#8e7945" fill-rule="evenodd" stroke="none"/>
    <path d="M2.8 -9.3 L2.8 -9.4 2.85 -9.35 2.8 -9.3" fill="#7d6a3d" fill-rule="evenodd" stroke="none"/>
    <path d="M2.8 -9.4 L2.8 -9.45 2.85 -9.45 2.8 -9.4" fill="#2d1380" fill-rule="evenodd" stroke="none"/>
    <path d="M2.1 -6.5 L2.15 -6.95 2.1 -7.6 2.5 -8.55 2.5 -8.5 2.65 -8.15 2.65 -7.5 2.5 -7.25 2.4 -7.15 2.35 -6.9 2.3 -6.75 2.1 -6.15 2.1 -6.5 M-1.8 0.7 L-1.65 0.55 -1.35 0.45 -1.8 0.7 M-1.2 0.4 L-1.0 0.3 -0.9 0.35 -1.2 0.4" fill="#736238" fill-rule="evenodd" stroke="none"/>
    <path d="M3.6 -6.9 L4.0 -6.65 4.0 -6.6 3.9 -6.7 3.35 -6.5 3.25 -6.35 3.15 -6.2 3.25 -5.85 3.35 -5.75 3.25 -5.65 2.85 -5.35 2.45 -6.3 2.45 -6.95 2.7 -7.4 2.8 -7.55 3.1 -7.7 3.2 -7.7 3.3 -7.15 3.6 -6.9 M3.45 6.65 L3.8 6.45 4.15 5.95 4.2 6.0 3.8 6.45 3.75 6.45 3.45 7.4 3.55 7.95 3.35 7.3 3.45 6.65" fill="#675832" fill-rule="evenodd" stroke="none"/>
    <path d="M1.15 -9.2 L1.65 -8.45 1.75 -7.45 1.7 -7.3 1.6 -7.05 1.45 -6.55 1.3 -6.15 1.25 -6.1 1.25 -6.05 1.25 -6.0 1.2 -6.0 1.2 -6.0 -0.05 -6.8 -0.6 -7.65 -0.6 -7.7 -0.7 -8.65 -0.45 -9.15 -0.35 -9.3 -0.1 -9.85 0.55 -9.55 1.15 -9.25 1.15 -9.2 M1.5 7.05 L1.65 6.85 1.95 7.0 2.0 7.0 1.95 7.05 1.9 8.35 1.8 8.35 1.4 8.45 1.3 8.4 0.9 8.25 1.35 7.6 1.5 7.05 M1.65 7.6 L1.35 7.95 1.3 8.4 1.6 8.05 1.7 7.8 1.85 7.3 1.65 7.6" fill="#541f1f" fill-rule="evenodd" stroke="none"/>
    <path d="M1.7 -7.3 L1.85 -7.1 1.7 -6.75 1.7 -6.7 1.6 -7.05 1.7 -7.3" fill="#7e382a" fill-rule="evenodd" stroke="none"/>
    <path d="M1.7 -6.7 L1.5 -6.05 1.45 -5.65 1.35 -5.7 1.45 -6.55 1.6 -7.05 1.7 -6.7 M3.6 9.3 L3.0 9.1 2.7 8.5 2.7 8.45 3.25 8.45 3.6 8.25 3.6 8.35 3.65 8.4 3.55 8.7 3.6 9.3 M-1.55 3.4 L-1.4 3.4 -1.5 3.45 -1.55 3.4 -1.55 3.4 -1.55 3.4" fill="#7a683b" fill-rule="evenodd" stroke="none"/>
    <path d="M-1.5 -7.65 L-1.5 -7.7 -1.3 -8.9 -1.25 -9.05 -1.15 -9.0 -1.4 -7.95 -1.35 -7.9 -1.35 -7.9 -1.3 -7.65 -1.5 -7.65 M0.85 -5.75 L0.8 -5.8 0.9 -5.85 1.05 -5.8 1.05 -5.7 0.85 -5.75" fill="#a03c3c" fill-rule="evenodd" stroke="none"/>
    <path d="M-2.45 -5.0 L-3.05 -5.65 -2.35 -6.35 -1.95 -5.8 -1.4 -5.5 -1.55 -5.5 -2.45 -5.05 -2.45 -5.0 M0.95 -5.7 L0.9 -5.65 0.9 -5.5 0.55 -5.25 -0.05 -5.4 0.8 -5.8 0.85 -5.75 0.95 -5.7 M5.55 3.05 L5.65 3.15 5.65 3.1 5.8 3.4 6.0 3.25 6.3 3.5 6.35 4.25 6.35 4.45 6.2 4.8 6.05 5.15 6.0 5.35 5.75 5.55 5.55 5.7 5.35 5.8 5.25 5.35 5.0 5.1 4.65 5.1 4.6 5.15 4.55 5.1 4.2 4.8 4.3 4.65 4.65 4.65 5.35 4.65 4.4 4.15 4.4 4.0 4.6 3.7 4.65 3.7 4.8 3.85 4.85 3.8 5.35 4.1 5.4 4.1 5.5 4.2 5.3 3.5 5.35 3.5 5.2 3.15 5.15 3.1 5.2 3.1 5.25 3.25 5.4 3.15 5.4 3.2 5.5 3.15 5.55 3.15 5.55 3.05 M-4.05 7.9 L-4.1 7.95 -4.15 8.0 -4.15 8.05 -4.3 8.2 -3.9 8.3 -4.15 8.45 -4.5 9.25 -4.55 9.15 -4.6 8.45 -4.2 7.55 -3.7 7.15 -3.4 6.95 -3.1 6.9 -3.25 7.4 -3.3 7.45 -3.4 7.55 -3.55 7.55 -3.55 7.55 -3.7 7.65 -3.85 7.65 -4.05 7.9" fill="#441919" fill-rule="evenodd" stroke="none"/>
    <path d="M-2.35 -6.35 L-2.7 -6.9 -1.55 -7.65 -1.5 -7.65 -1.3 -7.65 -0.6 -7.7 -0.6 -7.65 -0.05 -6.8 1.2 -6.0 1.2 -6.0 1.2 -6.0 1.1 -5.95 0.9 -5.85 0.8 -5.8 -0.05 -5.4 -0.1 -5.35 -1.05 -5.35 -1.3 -5.45 -1.4 -5.5 -1.95 -5.8 -2.35 -6.35 M1.25 -6.1 L1.3 -6.05 1.25 -6.05 1.25 -6.1 M-1.3 -7.65 L-1.3 -7.65" fill="#9b3a3a" fill-rule="evenodd" stroke="none"/>
    <path d="M0.9 -5.5 L0.9 -5.65 0.95 -5.7 1.0 -5.6 0.9 -5.5 M0.85 -5.0 L0.85 -4.95 0.85 -5.0" fill="#655631" fill-rule="evenodd" stroke="none"/>
    <path d="M-2.65 -3.1 L-2.75 -3.15 -2.7 -3.4 -2.65 -3.45 -2.4 -4.45 -1.65 -5.1 -0.7 -5.35 0.8 -5.05 0.8 -5.0 0.75 -4.95 0.7 -4.8 0.6 -4.55 0.5 -4.3 -0.55 -4.35 -1.45 -3.95 -2.1 -3.2 -2.1 -2.95 -2.65 -3.1" fill="#6f2a2a" fill-rule="evenodd" stroke="none"/>
    <path d="M-2.85 -3.5 L-2.95 -3.55 -2.85 -3.7 -2.4 -4.8 -1.65 -5.4 -1.3 -5.45 -1.05 -5.35 -0.1 -5.35 -0.05 -5.4 0.55 -5.25 0.85 -5.15 0.8 -5.05 -0.7 -5.35 -1.65 -5.1 -2.4 -4.45 -2.65 -3.45 -2.85 -3.5 M-1.7 6.65 L-1.75 6.65 -1.7 6.65 -1.7 6.65" fill="#5d2323" fill-rule="evenodd" stroke="none"/>
    <path d="M5.7 6.75 L5.85 7.6 5.7 8.05 5.55 8.55 4.5 9.4 3.65 8.4 3.6 8.35 3.6 8.25 3.55 7.95 3.45 7.4 3.75 6.45 3.8 6.45 4.2 6.0 4.3 5.95 4.85 5.35 5.3 6.0 5.35 6.15 5.5 6.35 5.7 6.6 5.7 6.75 M-1.3 -1.7 L-2.25 -1.85 -2.2 -2.2 -2.15 -2.55 -1.45 -2.35 -0.5 -2.6 0.25 -3.25 0.7 -4.3 0.95 -4.3 1.0 -4.3 0.95 -4.15 0.85 -3.7 0.7 -3.1 0.6 -2.8 0.0 -2.05 -0.95 -1.65 -1.0 -1.65 -1.3 -1.7 M0.8 -5.0 L0.85 -5.0 0.85 -4.95 0.8 -4.9 0.75 -4.95 0.8 -5.0 M-1.3 -7.65 L-1.3 -7.65 -1.35 -7.9 -1.35 -7.9 -1.3 -7.65 M0.8 -4.9 L0.75 -4.85 0.75 -4.85 0.8 -4.9 M0.5 -4.3 L0.2 -3.65 -0.5 -3.0 -1.45 -2.75 -2.1 -2.95 -2.1 -3.2 -1.45 -3.95 -0.55 -4.35 0.5 -4.3" fill="#572121" fill-rule="evenodd" stroke="none"/>
    <path d="M1.45 -6.55 L1.35 -5.7 1.45 -5.65 1.35 -5.3 1.35 -5.5 1.3 -6.1 1.3 -6.15 1.45 -6.55 M-3.35 2.15 L-3.35 2.15 -3.45 2.15 -3.3 1.85 -3.35 2.1 -3.35 2.15" fill="#937d47" fill-rule="evenodd" stroke="none"/>
    <path d="M-1.3 -8.9 L-1.25 -9.15 -1.1 -9.15 -1.15 -9.0 -1.25 -9.05 -1.3 -8.9 M1.2 -6.0 L1.2 -5.9 1.1 -5.9 1.1 -5.95 1.2 -6.0" fill="#993a3a" fill-rule="evenodd" stroke="none"/>
    <path d="M-1.1 -9.15 L-1.05 -9.3 -0.6 -9.15 -0.45 -9.15 -0.7 -8.65 -0.6 -7.7 -1.3 -7.65 -1.35 -7.9 -1.4 -7.95 -1.15 -9.0 -1.1 -9.15 M1.1 -5.9 L1.1 -5.8 1.05 -5.8 0.9 -5.85 1.1 -5.95 1.1 -5.9" fill="#692727" fill-rule="evenodd" stroke="none"/>
    <path d="M1.45 -5.65 L1.45 -5.7 1.5 -5.75 1.3 -4.45 1.2 -4.35 1.1 -4.1 1.05 -4.1 1.05 -4.5 1.1 -5.15 1.35 -5.5 1.35 -5.3 1.45 -5.65 M2.0 -5.25 L2.0 -4.85 1.9 -4.75 1.7 -4.8 1.6 -4.7 1.7 -4.85 2.0 -5.25 M1.05 -3.9 L1.05 -3.9 1.05 -3.9 1.05 -3.9" fill="#8c7844" fill-rule="evenodd" stroke="none"/>
    <path d="M1.5 -5.75 L1.5 -5.8 2.1 -6.5 2.1 -6.15 2.3 -6.75 2.3 -6.8 2.35 -6.8 2.25 -5.7 2.2 -5.5 2.0 -5.25 1.7 -4.85 1.35 -4.55 1.35 -4.5 1.3 -4.45 1.5 -5.75 M-0.2 -0.15 L-0.25 0.0 -0.4 -0.25 -0.2 -0.15 M0.6 0.2 L0.55 0.05 0.9 -0.15 1.05 0.0 1.0 0.05 0.6 0.2" fill="#726138" fill-rule="evenodd" stroke="none"/>
    <path d="M2.85 -5.35 L3.0 -5.35 3.15 -5.25 3.1 -5.15 2.85 -5.35 M1.7 -4.85 L1.6 -4.7 1.35 -4.5 1.35 -4.55 1.7 -4.85" fill="#584b2b" fill-rule="evenodd" stroke="none"/>
    <path d="M3.2 -5.55 L3.2 -5.55 3.2 -5.55 M-2.8 5.1 L-2.5 4.7 -2.5 4.65 -2.35 4.6 -1.85 4.7 -1.95 4.9 -2.3 4.85 -2.35 4.9 -2.8 5.1 M-2.5 4.3 L-2.5 4.3 -2.5 4.25 -2.25 4.0 -2.1 3.95 -2.05 4.0 -2.05 3.95 -2.0 3.95 -1.8 3.9 -1.6 3.8 -1.55 3.8 -1.5 3.8 -1.65 4.2 -1.7 4.2 -2.35 4.35 -2.45 4.35 -2.5 4.35 -2.5 4.3" fill="#7f6c3e" fill-rule="evenodd" stroke="none"/>
    <path d="M1.1 -4.1 L1.2 -4.35 1.3 -4.45 1.35 -4.5 1.6 -4.7 1.7 -4.8 1.9 -4.75 3.4 -4.5 3.45 -4.45 3.55 -4.3 3.5 -4.3 3.35 -4.2 3.1 -4.2 2.4 -4.45 2.0 -3.3 1.95 -3.35 1.3 -3.2 1.25 -3.3 1.0 -3.7 1.05 -3.9 1.1 -4.1 M1.05 -3.9 L1.05 -3.9 M3.25 6.8 L3.35 7.4 3.3 7.4 2.65 7.15 2.4 7.0 2.95 6.95 3.25 6.8" fill="#39311c" fill-rule="evenodd" stroke="none"/>
    <path d="M3.1 -4.2 L3.35 -4.2 3.65 -4.2 3.75 -4.2 3.75 -4.2 4.6 -3.7 5.1 -2.85 5.3 -1.55 5.3 -1.35 5.15 -1.35 5.1 -1.35 5.05 -1.35 5.0 -1.35 4.45 -1.4 4.1 -1.95 3.2 -2.4 2.7 -2.4 2.4 -2.8 2.4 -2.9 2.4 -4.2 3.1 -4.2 M4.45 -1.4 L4.45 -1.4 M5.15 -1.35 L5.15 -1.35" fill="#341313" fill-rule="evenodd" stroke="none"/>
    <path d="M1.3 8.95 L1.0 9.25 1.0 9.2 1.1 8.7 0.8 9.1 0.65 9.0 0.6 8.9 0.45 8.8 0.5 8.75 0.3 8.4 0.25 8.35 0.0 8.0 0.1 7.65 0.45 8.1 0.85 8.25 0.9 8.25 1.3 8.4 1.25 8.45 1.3 8.4 1.4 8.45 1.8 8.35 1.3 8.95 M2.4 -2.9 L2.4 -2.8 2.7 -2.4 1.85 -2.35 1.95 -1.1 1.65 -0.9 1.35 -1.05 0.75 -2.15 0.7 -2.25 0.75 -2.25 1.85 -2.9 2.0 -2.9 2.4 -2.9 M0.75 -2.15 L0.75 -2.15 M4.45 -1.4 L4.45 -1.4 4.65 -1.15 4.6 -1.15 4.45 -1.4 M-0.2 7.3 L-0.3 7.35 -0.3 7.4 -0.35 7.35 -0.3 7.05 -0.2 7.3 M1.25 8.45 L1.15 8.55 1.1 8.7 1.25 8.6 1.25 8.45" fill="#582121" fill-rule="evenodd" stroke="none"/>
    <path d="M2.4 -2.9 L2.0 -2.9 1.95 -3.15 2.0 -3.3 2.4 -4.45 3.1 -4.2 2.4 -4.2 2.4 -2.9" fill="#6c2828" fill-rule="evenodd" stroke="none"/>
    <path d="M-2.7 -3.4 L-2.85 -3.5 -2.85 -3.5 -2.65 -3.45 -2.7 -3.4 M1.05 -4.1 L1.1 -4.1 1.05 -3.9 0.85 -3.7 0.95 -4.15 1.05 -4.1 M1.05 -3.9 L1.05 -3.9 M0.15 7.3 L0.65 7.6 1.3 7.35 1.5 7.05 1.35 7.6 0.9 8.25 0.85 8.25 0.45 8.1 0.1 7.65 0.15 7.3 M-0.1 7.15 L-0.2 7.3 -0.3 7.05 -0.3 7.0 -0.1 7.15 -0.1 7.15" fill="#602424" fill-rule="evenodd" stroke="none"/>
    <path d="M-1.2 -1.0 L-1.3 -1.7 -1.0 -1.65 -1.15 -1.3 -0.9 -0.95 -1.2 -0.8 -1.2 -1.0 M1.05 -3.9 L1.0 -3.7 1.25 -3.3 1.1 -3.05 0.9 -2.85 0.75 -3.1 0.7 -3.1 0.85 -3.7 1.05 -3.9 1.05 -3.9" fill="#a23d3d" fill-rule="evenodd" stroke="none"/>
    <path d="M0.8 -4.9 L0.8 -4.9 0.8 -4.9 0.75 -4.85 0.7 -4.8 0.75 -4.95 0.8 -4.9 M6.5 -0.15 L6.35 -0.3 7.05 -0.55 7.1 -0.4 6.5 -0.15 M6.65 2.55 L6.75 1.85 7.25 1.0 7.5 0.85 7.35 1.7 6.75 2.45 6.65 2.55 M5.4 3.15 L5.5 3.15 5.4 3.2 5.4 3.15" fill="#471b1b" fill-rule="evenodd" stroke="none"/>
    <path d="M0.8 -4.9 L0.9 -4.85 0.75 -4.75 0.8 -4.85 0.75 -4.85 0.8 -4.9 0.8 -4.9" fill="#a33d3d" fill-rule="evenodd" stroke="none"/>
    <path d="M-2.85 -3.7 L-3.15 -3.9 -2.45 -5.0 -2.45 -5.05 -1.55 -5.5 -1.4 -5.5 -1.3 -5.45 -1.65 -5.4 -2.4 -4.8 -2.85 -3.7 M0.75 -4.75 L0.7 -4.7 0.6 -4.55 0.7 -4.8 0.75 -4.85 0.8 -4.85 0.75 -4.75 M0.75 -4.85 L0.75 -4.85 M1.7 0.85 L1.6 0.9 1.55 1.1 1.4 1.15 1.45 1.35 1.3 1.8 0.45 1.55 0.4 1.55 0.45 1.3 0.55 1.05 0.7 0.5 0.75 0.25 1.0 0.05 1.05 0.0 1.7 0.85" fill="#6b2828" fill-rule="evenodd" stroke="none"/>
    <path d="M-2.2 -2.2 L-2.45 -2.3 -2.4 -2.6 -2.15 -2.55 -2.2 -2.2 M0.75 -4.45 L1.0 -4.45 0.95 -4.3 0.7 -4.3 0.75 -4.45" fill="#b34343" fill-rule="evenodd" stroke="none"/>
    <path d="M-2.4 -2.6 L-2.75 -2.75 -2.65 -3.1 -2.1 -2.95 -1.45 -2.75 -0.5 -3.0 0.2 -3.65 0.5 -4.3 0.6 -4.55 0.7 -4.7 0.85 -4.65 0.75 -4.45 0.7 -4.3 0.25 -3.25 -0.5 -2.6 -1.45 -2.35 -2.15 -2.55 -2.4 -2.6" fill="#562020" fill-rule="evenodd" stroke="none"/>
    <path d="M0.75 -2.25 L0.7 -2.25 0.75 -2.15 0.75 -2.1 0.5 -2.0 0.55 -1.9 0.4 -1.85 0.05 -1.85 -0.7 -1.55 0.1 -1.65 0.4 -1.85 0.6 -1.85 0.7 -1.7 0.65 -1.3 0.65 -1.3 0.45 -1.15 0.3 -1.25 -0.35 -1.15 -0.9 -0.95 -1.15 -1.3 -1.0 -1.65 -0.95 -1.65 0.0 -2.05 0.6 -2.8 0.7 -3.1 0.75 -3.1 0.9 -2.85 0.8 -2.8 0.75 -2.25" fill="#56492a" fill-rule="evenodd" stroke="none"/>
    <path d="M7.2 -2.1 L7.0 -2.1 7.0 -2.8 7.5 -3.3 7.75 -3.5 7.35 -3.1 7.2 -2.45 7.2 -2.1 M7.05 -2.85 L7.05 -3.1 7.35 -3.7 7.5 -3.8 7.45 -3.65 7.35 -3.4 7.05 -2.85 M8.1 -4.05 L8.35 -4.1 8.8 -4.1 8.85 -3.2 8.55 -2.6 8.0 -2.25 7.95 -2.25 8.3 -2.6 8.4 -3.25 8.4 -4.0 7.9 -3.65 8.0 -3.75 8.1 -4.0 8.1 -4.0 8.1 -4.05 M-4.9 7.4 L-5.5 8.0 -6.1 8.3 -6.75 8.25 -7.15 8.0 -7.5 7.75 -7.0 7.05 -6.4 6.75 -5.85 6.8 -5.75 6.8 -5.7 6.8 -5.45 6.95 -5.25 7.05 -5.0 7.2 -4.85 7.3 -4.9 7.4 M2.0 -2.9 L1.85 -2.9 0.75 -2.25 0.8 -2.8 0.9 -2.85 1.1 -3.05 1.3 -3.2 1.3 -3.2 1.95 -3.35 2.0 -3.3 1.95 -3.15 2.0 -2.9 M0.75 -2.15 L0.75 -2.15 0.75 -2.1 0.75 -2.15 M0.65 -1.3 L0.65 -1.3 0.7 -1.7 0.9 -1.4 0.7 -1.35 1.0 -1.2 1.15 -1.0 0.85 -1.15 0.65 -1.3 M8.35 -4.1 L8.35 -4.1" fill="#665732" fill-rule="evenodd" stroke="none"/>
    <path d="M1.25 -3.3 L1.3 -3.2 1.3 -3.2 1.1 -3.05 1.25 -3.3 M0.95 -0.95 L0.85 -1.15 1.15 -1.0 1.25 -0.85 1.4 -0.75 1.25 -0.65 0.95 -0.95" fill="#311212" fill-rule="evenodd" stroke="none"/>
    <path d="M0.75 -2.15 L1.35 -1.05 1.65 -0.9 1.4 -0.75 1.25 -0.85 1.15 -1.0 1.0 -1.2 0.9 -1.4 0.7 -1.7 0.6 -1.85 0.55 -1.9 0.5 -2.0 0.75 -2.1 0.75 -2.15" fill="#321313" fill-rule="evenodd" stroke="none"/>
    <path d="M0.6 -1.85 L0.4 -1.85 0.1 -1.65 -0.7 -1.55 0.05 -1.85 0.4 -1.85 0.55 -1.9 0.6 -1.85" fill="#5e502e" fill-rule="evenodd" stroke="none"/>
    <path d="M1.0 -1.2 L0.7 -1.35 0.9 -1.4 1.0 -1.2" fill="#3c331d" fill-rule="evenodd" stroke="none"/>
    <path d="M0.45 -1.15 L0.65 -1.3 0.85 -1.15 0.95 -0.95 0.9 -1.0 0.45 -1.15 M0.5 -0.05 L0.8 -0.1 0.9 -0.15 0.55 0.05 0.5 -0.05" fill="#953838" fill-rule="evenodd" stroke="none"/>
    <path d="M-4.5 7.05 L-4.55 7.15 -4.9 7.4 -4.85 7.3 -5.0 7.2 -4.85 7.0 -4.75 7.05 -4.5 7.05 M-0.9 -0.95 L-0.35 -1.15 0.3 -1.25 0.45 -1.15 0.9 -1.0 0.95 -0.95 1.25 -0.65 0.9 -0.4 1.0 -0.3 1.0 -0.3 0.85 -0.2 0.9 -0.15 0.8 -0.1 0.5 -0.05 0.45 -0.3 0.1 -1.1 -0.15 -0.25 -0.2 -0.15 -0.4 -0.25 -0.45 -0.25 -0.65 -0.5 -0.8 -0.5 -1.15 -0.75 -1.2 -0.8 -0.9 -0.95 M0.9 4.85 L1.4 5.1 1.6 6.2 1.7 6.8 1.65 6.85 1.5 7.05 1.3 7.35 0.65 7.6 0.15 7.3 0.2 7.25 0.65 6.8 0.85 6.2 0.85 6.15 1.2 5.55 1.25 5.45 1.15 5.55 0.55 6.0 -0.05 6.3 -0.5 6.9 -0.6 6.85 -0.8 6.7 -0.8 6.65 -0.8 6.6 -0.85 6.55 -0.95 6.1 -0.75 5.85 -0.45 4.9 -1.1 4.95 -0.8 4.55 -0.45 4.4 -0.25 4.6 0.35 4.85 0.65 4.8 0.75 4.8 0.9 4.85 M-0.8 6.6 L-0.8 6.6 M0.3 6.65 L0.25 6.75 0.1 6.9 0.05 7.0 -0.1 7.1 -0.1 7.15 -0.3 7.0 -0.35 6.95 -0.3 6.95 -0.3 6.95 0.3 6.65 M-1.2 -0.8 L-1.2 -0.8" fill="#4e4226" fill-rule="evenodd" stroke="none"/>
    <path d="M1.65 -0.9 L1.95 -1.1 2.05 -1.2 3.0 -1.3 3.9 -0.9 4.75 0.05 4.7 0.15 3.85 -0.8 2.9 -1.15 1.95 -1.05 1.95 -1.0 1.0 -0.3 1.0 -0.3 0.9 -0.4 1.25 -0.65 1.4 -0.75 1.65 -0.9 M-2.85 7.55 L-2.8 7.55 -3.0 7.65 -3.0 7.55 -2.85 7.55" fill="#7d2f2f" fill-rule="evenodd" stroke="none"/>
    <path d="M0.45 9.2 L0.55 9.7 -0.75 10.0 -0.75 10.0 -1.2 9.85 -1.7 9.65 -1.85 9.55 -2.05 9.3 -1.6 9.5 -0.65 9.5 0.4 8.85 0.4 8.95 0.45 9.2 M0.9 -0.15 L0.85 -0.2 1.0 -0.3 1.95 -1.0 1.95 -1.05 2.9 -1.15 3.85 -0.8 4.7 0.15 4.65 0.45 4.25 0.15 2.9 0.05 2.9 0.45 2.25 0.45 2.25 0.8 1.85 0.85 1.9 0.95 1.7 0.85 1.05 0.0 0.9 -0.15 M4.2 4.8 L4.55 5.1 4.1 4.95 4.2 4.8 M0.85 4.75 L0.9 4.85 0.75 4.8 0.85 4.75 M0.25 8.35 L0.3 8.4 0.25 8.35 M-2.65 7.5 L-2.6 7.45 -2.8 7.55 -2.85 7.55 -2.9 7.5 -2.65 7.5 M-2.3 9.05 L-2.4 8.95 -2.45 8.75 -2.3 8.9 -2.3 9.05" fill="#7e2f2f" fill-rule="evenodd" stroke="none"/>
    <path d="M-4.8 1.2 L-4.75 1.15 -4.75 1.2 -4.8 1.2 M-0.2 -0.15 L-0.15 -0.25 0.1 -1.1 0.45 -0.3 0.5 -0.05 0.55 0.05 0.6 0.2 0.65 0.35 0.6 0.5 0.4 0.4 0.3 0.6 0.3 0.7 -0.6 0.35 -0.9 0.35 -1.0 0.3 -1.2 0.4 -1.25 0.4 -1.35 0.45 -1.65 0.55 -1.8 0.7 -1.85 0.75 -1.9 0.85 -1.9 0.85 -1.95 0.8 -2.15 0.75 -2.0 0.55 -1.35 0.3 -0.9 -0.4 -1.0 -0.4 -0.9 -0.5 -0.9 -0.5 -0.8 -0.5 -0.65 -0.5 -0.45 -0.25 -0.25 0.0 -0.2 -0.15 M0.2 0.9 L0.2 0.95 -0.1 1.65 -0.2 1.8 -0.25 1.9 -0.25 1.95 -0.3 2.0 -0.4 2.05 -0.6 1.75 -0.25 1.55 0.2 0.9 M-4.7 1.7 L-4.65 1.55 -4.6 1.8 -4.6 1.8 -4.65 1.8 -4.7 2.1 -4.9 2.45 -4.9 3.1 -5.1 3.4 -5.45 3.8 -5.45 3.7 -5.45 3.65 -5.5 3.45 -5.45 3.4 -5.35 2.75 -5.35 2.75 -5.1 2.6 -4.8 2.0 -4.7 1.7" fill="#5b4d2c" fill-rule="evenodd" stroke="none"/>
    <path d="M1.95 -1.1 L1.85 -2.35 2.7 -2.4 3.2 -2.4 4.1 -1.95 4.45 -1.4 4.6 -1.15 4.65 -1.1 4.65 -1.1 4.65 -1.05 4.7 -0.9 4.75 -0.35 4.8 -0.05 4.75 0.0 4.75 0.05 3.9 -0.9 3.0 -1.3 2.05 -1.2 1.95 -1.1" fill="#772c2c" fill-rule="evenodd" stroke="none"/>
    <path d="M7.0 -2.8 L7.0 -2.75 7.0 -2.75 6.95 -2.75 7.0 -2.8 7.05 -2.85 7.35 -3.4 7.45 -3.65 7.9 -3.95 7.55 -3.9 7.6 -4.05 8.05 -4.45 8.3 -4.45 8.25 -4.35 8.1 -4.05 8.1 -4.0 8.0 -3.75 7.9 -3.65 7.75 -3.6 7.75 -3.5 7.5 -3.3 7.0 -2.8 M8.1 -4.0 L7.95 -3.95 7.9 -3.95 7.95 -3.95 8.1 -4.0" fill="#534729" fill-rule="evenodd" stroke="none"/>
    <path d="M6.6 -3.5 L6.75 -3.55 6.8 -3.55 6.75 -3.55 6.55 -3.45 6.6 -3.5 M7.5 -3.8 L7.55 -3.9 7.9 -3.95 7.45 -3.65 7.5 -3.8 M8.35 -4.1 L8.55 -4.15 8.35 -4.1 8.35 -4.1 M8.1 -4.0 L7.95 -3.95 7.9 -3.95 7.95 -3.95 8.1 -4.0 8.1 -4.0" fill="#4c4125" fill-rule="evenodd" stroke="none"/>
    <path d="M6.4 -3.35 L6.45 -3.2 6.4 -2.55 6.1 -1.95 5.95 -1.8 5.95 -1.8 5.65 -1.8 5.5 -1.6 5.5 -1.95 5.45 -2.15 5.5 -2.8 5.85 -3.4 5.95 -3.5 6.25 -3.8 6.35 -3.9 6.35 -3.8 6.3 -3.75 6.0 -3.0 6.4 -3.35 M1.4 4.65 L1.0 4.75 0.85 4.75 0.75 4.8 0.65 4.8 0.65 4.75 0.15 4.35 -0.5 4.2 -0.6 4.25 -0.7 4.1 -0.7 3.1 -0.7 3.05 0.2 2.75 0.3 2.7 0.95 2.95 1.0 3.0 1.35 3.45 1.5 4.6 1.4 4.65 M-3.05 6.4 L-2.85 6.35 -2.85 6.45 -2.95 6.55 -3.0 6.55 -3.05 6.65 -3.15 6.75 -3.7 7.1 -3.65 6.75 -3.2 6.45 -3.2 6.45 -3.05 6.4" fill="#443a21" fill-rule="evenodd" stroke="none"/>
    <path d="M7.0 -2.75 L6.95 -2.7 6.95 -2.75 7.0 -2.75 7.0 -2.75" fill="#766439" fill-rule="evenodd" stroke="none"/>
    <path d="M6.45 -1.2 L6.75 -1.1 7.3 -0.5 7.1 -0.4 7.05 -0.55 6.35 -0.3 6.0 -0.65 6.25 -0.65 6.3 -0.7 6.6 -0.6 6.45 -0.95 6.45 -1.2 M7.2 -1.6 L7.2 -2.1 7.2 -2.45 7.35 -3.1 7.75 -3.5 7.75 -3.6 7.9 -3.65 8.4 -4.0 8.4 -3.25 8.3 -2.6 7.95 -2.25 7.85 -2.1 7.2 -1.55 7.2 -1.6 M7.3 6.65 L7.2 6.7 7.3 6.4 7.25 6.65 7.3 6.65 M6.9 6.95 L6.6 7.2 6.55 7.15 6.55 7.05 6.9 6.95 M6.35 7.1 L5.95 7.0 5.7 6.75 5.7 6.6 5.5 6.35 5.55 5.7 5.75 5.55 5.75 6.2 6.1 6.8 6.35 7.1 M5.15 -1.25 L5.2 -1.25 5.3 -1.1 5.35 -1.1 5.3 -0.9 5.55 -0.75 5.25 -0.5 4.95 -0.8 4.75 -0.95 4.65 -1.05 4.65 -1.1 4.95 -1.15 5.15 -1.25 M8.1 5.0 L7.85 4.95 7.85 5.0 8.1 5.2 8.0 5.7 7.9 5.65 7.65 5.25 7.05 5.0 6.4 4.55 6.95 5.05 7.35 5.6 7.45 5.6 7.4 5.9 7.35 5.9 7.3 5.85 7.25 5.6 6.2 4.8 6.35 4.45 6.35 4.25 6.65 4.1 6.95 4.55 7.55 4.85 8.15 4.8 8.1 5.0 M-5.9 5.35 L-5.7 5.5 -5.65 5.8 -5.65 5.85 -5.7 5.7 -5.9 5.35 M-3.25 5.75 L-3.3 6.0 -3.4 5.9 -3.2 5.65 -3.2 5.7 -3.25 5.75" fill="#514527" fill-rule="evenodd" stroke="none"/>
    <path d="M5.7 -4.3 L5.8 -4.2 5.75 -4.15 5.7 -4.3 M5.85 -4.15 L6.25 -3.8 5.95 -3.5 5.95 -3.65 5.75 -4.1 5.85 -4.15 M8.15 5.9 L8.05 5.9 7.45 5.6 7.35 5.6 6.95 5.05 6.4 4.55 7.05 5.0 7.65 5.25 7.9 5.65 8.05 5.8 8.15 5.9 M8.1 5.95 L8.2 5.95 8.5 6.25 8.1 5.95" fill="#2e2716" fill-rule="evenodd" stroke="none"/>
    <path d="M5.8 -4.2 L6.1 -4.45 5.85 -4.15 5.75 -4.1 5.75 -4.15 5.8 -4.2 M9.75 2.3 L9.8 2.35 9.7 2.4 9.65 2.4 9.75 2.3" fill="#675732" fill-rule="evenodd" stroke="none"/>
    <path d="M5.1 -1.35 L5.15 -1.35 5.3 -1.35 5.3 -1.55 5.5 -1.95 5.5 -1.6 5.45 -1.5 5.4 -1.3 5.2 -1.25 5.15 -1.25 5.1 -1.3 5.1 -1.35 M5.15 -1.35 L5.15 -1.35" fill="#5b2222" fill-rule="evenodd" stroke="none"/>
    <path d="M5.05 -1.35 L5.1 -1.35 5.1 -1.3 5.05 -1.35 M4.7 -0.9 L4.75 -0.95 4.95 -0.8 4.85 -0.35 4.75 -0.35 4.7 -0.9" fill="#5f2424" fill-rule="evenodd" stroke="none"/>
    <path d="M5.95 -1.8 L6.0 -1.8 6.5 -1.5 6.45 -1.2 6.45 -0.95 6.45 -0.95 6.3 -0.7 6.25 -0.65 6.0 -0.65 5.75 -0.95 5.55 -0.75 5.3 -0.9 5.35 -1.1 5.4 -1.3 5.45 -1.5 5.5 -1.6 5.65 -1.8 5.95 -1.8" fill="#6b2f23" fill-rule="evenodd" stroke="none"/>
    <path d="M5.2 -1.25 L5.4 -1.3 5.35 -1.1 5.3 -1.1 5.2 -1.25 M6.3 -0.7 L6.45 -0.95 6.45 -0.95 6.6 -0.6 6.3 -0.7" fill="#7c693c" fill-rule="evenodd" stroke="none"/>
    <path d="M4.45 -1.4 L5.0 -1.35 4.95 -1.15 4.65 -1.1 4.65 -1.1 4.6 -1.15 4.65 -1.15 4.45 -1.4 M4.65 -1.05 L4.75 -0.95 4.7 -0.9 4.65 -1.05" fill="#806d3e" fill-rule="evenodd" stroke="none"/>
    <path d="M4.7 0.15 L4.75 0.05 4.75 0.0 4.8 -0.05 5.25 -0.5 5.55 -0.75 5.75 -0.95 6.0 -0.65 6.35 -0.3 6.5 -0.15 6.3 -0.1 5.75 0.7 5.6 1.7 5.95 2.8 5.9 2.8 5.75 3.05 5.65 3.1 5.65 3.15 5.55 3.05 5.5 1.6 5.1 0.75 4.65 0.45 4.7 0.15 M6.7 0.2 L6.9 1.0 6.65 1.95 6.2 2.5 6.05 1.85 6.2 1.25 6.15 1.1 6.25 0.8 6.7 0.2" fill="#381515" fill-rule="evenodd" stroke="none"/>
    <path d="M7.1 -0.4 L7.45 -0.55 7.55 -0.6 7.65 -0.4 7.7 -0.35 7.7 -0.3 6.75 0.0 6.75 0.0 6.1 0.75 5.9 1.7 6.15 3.1 6.05 3.15 5.95 2.8 5.6 1.7 5.75 0.7 6.3 -0.1 6.5 -0.15 7.1 -0.4 M7.5 0.85 L8.05 0.5 8.1 0.65 7.95 1.6 7.4 2.4 6.6 2.85 6.65 2.55 6.75 2.45 7.35 1.7 7.5 0.85" fill="#491b1b" fill-rule="evenodd" stroke="none"/>
    <path d="M6.15 3.1 L5.9 1.7 6.1 0.75 6.75 0.0 6.75 0.0 7.7 -0.3 7.8 -0.35 8.05 -0.45 8.05 -0.4 8.05 -0.35 8.05 -0.35 6.9 0.05 6.85 0.05 6.7 0.2 6.25 0.8 6.15 1.1 6.0 1.75 6.05 1.85 6.2 2.5 6.35 3.15 6.2 3.2 6.15 3.1" fill="#4b1c1c" fill-rule="evenodd" stroke="none"/>
    <path d="M8.1 -0.5 L8.3 -0.6 8.35 -0.45 8.4 -0.4 8.3 -0.3 8.25 -0.25 8.2 -0.2 8.2 -0.3 8.3 -0.35 8.2 -0.35 8.15 -0.4 8.05 -0.35 8.05 -0.4 8.1 -0.5" fill="#40371f" fill-rule="evenodd" stroke="none"/>
    <path d="M8.3 -0.05 L8.45 0.5 8.1 0.5 8.05 0.5 7.5 0.85 7.25 1.0 6.75 1.85 6.65 2.55 6.6 2.85 6.6 3.15 6.4 3.25 6.35 3.25 6.35 3.15 6.2 2.5 6.65 1.95 6.9 1.0 6.7 0.2 6.85 0.05 6.9 0.05 8.05 -0.35 8.05 -0.35 8.15 -0.4 8.2 -0.35 8.2 -0.3 8.2 -0.2 8.3 -0.05" fill="#511e1e" fill-rule="evenodd" stroke="none"/>
    <path d="M9.55 -3.75 L9.6 -3.9 10.25 -4.15 10.9 -4.05 11.75 -2.65 11.35 -1.05 10.7 -0.8 10.05 -0.9 10.0 -0.95 10.05 -1.2 9.85 -1.85 9.35 -2.2 9.85 -2.4 10.45 -3.1 9.7 -3.7 9.55 -3.75" fill="#39301c" fill-rule="evenodd" stroke="none"/>
    <path d="M8.3 -0.6 L8.15 -1.1 8.25 -1.75 9.05 -2.4 9.1 -2.4 9.35 -2.2 9.85 -1.85 10.05 -1.2 10.0 -0.95 9.95 -0.55 9.2 0.3 8.4 -0.4 8.35 -0.45 8.3 -0.6 M-6.5 1.85 L-6.4 1.65 -6.35 1.6 -5.85 1.95 -5.75 2.0 -5.6 2.15 -5.45 2.55 -5.45 2.55 -5.35 2.75 -5.35 2.75 -5.45 3.4 -5.5 3.45 -5.75 3.95 -5.8 4.05 -5.9 4.2 -5.95 4.3 -6.0 4.25 -6.1 4.15 -6.15 4.1 -6.2 4.0 -6.35 3.9 -6.7 3.6 -6.7 3.5 -6.75 3.45 -6.75 3.4 -6.8 3.35 -6.9 3.1 -6.95 2.95 -6.9 2.75 -6.85 2.3 -6.65 2.05 -6.5 1.85 M-5.8 4.05 L-5.85 4.0 -5.9 3.95 -6.3 3.5 -5.9 3.95 -5.85 4.0 -5.8 4.05" fill="#574a2b" fill-rule="evenodd" stroke="none"/>
    <path d="M12.0 3.45 L12.55 3.85 12.65 4.2 12.35 3.85 11.75 3.55 11.05 3.55 11.35 3.4 11.45 3.4 12.0 3.45 M12.8 4.8 L12.85 4.9 12.8 4.9 12.8 4.8 M12.15 5.3 L11.9 5.45 11.25 5.35 10.9 5.1 10.6 4.45 10.5 4.4 10.45 4.3 10.3 3.95 10.3 3.9 10.75 3.65 11.0 4.5 11.35 5.05 11.95 5.3 12.15 5.3 M10.5 4.4 L10.45 4.3 10.5 4.4" fill="#534628" fill-rule="evenodd" stroke="none"/>
    <path d="M12.65 4.2 L12.75 4.35 12.8 4.8 12.8 4.9 12.85 5.25 12.15 5.3 11.95 5.3 11.35 5.05 11.0 4.5 10.75 3.65 10.75 3.55 11.05 3.55 11.75 3.55 12.35 3.85 12.65 4.2" fill="#2d2616" fill-rule="evenodd" stroke="none"/>
    <path d="M10.5 1.2 L10.6 1.1 11.0 0.6 12.2 0.05 11.75 0.5 11.3 1.0 10.7 1.2 10.6 1.25 10.0 1.6 10.5 1.2 M-0.1 7.1 L-0.05 7.15 -0.1 7.15 -0.1 7.15 -0.1 7.1 M-2.0 6.05 L-2.0 6.05 -1.9 6.05 -1.8 6.05 -1.7 6.15 -1.75 6.5 -1.7 6.5 -2.0 6.45 -2.05 6.4 -2.05 6.4 -2.05 6.15 -2.0 6.05" fill="#2f2817" fill-rule="evenodd" stroke="none"/>
    <path d="M9.45 1.3 L9.6 1.2 10.25 1.0 10.5 1.2 10.0 1.6 10.6 1.25 10.75 1.4 11.45 1.9 11.5 3.35 11.45 3.4 11.35 3.4 11.05 3.55 10.75 3.55 10.75 3.65 10.3 3.9 10.3 3.95 9.8 3.6 9.75 3.6 9.7 3.55 9.65 3.55 9.65 3.2 9.75 3.15 10.25 2.9 9.8 2.35 9.75 2.3 9.7 2.25 9.3 2.1 9.45 1.85 9.45 1.3" fill="#3e351e" fill-rule="evenodd" stroke="none"/>
    <path d="M8.45 0.5 L9.45 0.5 9.45 1.3 9.45 1.85 9.3 2.1 9.05 2.5 8.95 2.7 8.4 3.05 8.35 3.05 8.1 3.2 7.55 3.25 7.25 3.3 7.0 3.3 6.85 3.35 6.55 3.35 6.6 3.15 6.6 2.85 7.4 2.4 7.95 1.6 8.1 0.65 8.05 0.5 8.1 0.5 8.45 0.5" fill="#3e1717" fill-rule="evenodd" stroke="none"/>
    <path d="M9.75 2.3 L9.65 2.4 9.55 2.5 9.75 3.15 9.65 3.2 9.65 3.55 9.2 3.3 9.5 3.25 9.65 3.2 9.6 3.0 9.15 2.5 9.05 2.5 9.3 2.1 9.7 2.25 9.75 2.3 M8.55 3.15 L8.35 3.05 8.4 3.05 8.5 3.1 8.55 3.15" fill="#4b3f24" fill-rule="evenodd" stroke="none"/>
    <path d="M9.05 2.5 L9.15 2.5 9.6 3.0 9.65 3.2 9.5 3.25 9.2 3.3 9.15 3.25 9.05 3.15 9.05 2.5 M-6.35 3.9 L-6.2 4.0 -6.15 4.2 -6.25 4.35 -6.3 4.35 -6.3 4.45 -6.45 4.75 -6.35 3.9 M-6.6 4.95 L-6.6 4.95 Q-6.65 4.95 -6.65 4.9 L-6.5 4.8 -6.6 4.95 -6.6 4.95" fill="#453a21" fill-rule="evenodd" stroke="none"/>
    <path d="M10.9 5.1 L10.75 4.95 10.55 4.55 10.5 4.4 10.6 4.45 10.9 5.1 M9.8 3.9 L9.9 3.95 9.95 3.95 9.95 4.05 10.05 4.1 10.35 4.45 10.45 5.0 10.2 4.95 9.8 4.4 9.2 4.15 9.0 3.8 9.05 3.8 9.05 3.7 8.95 3.75 8.75 3.4 9.25 3.55 9.5 3.65 9.55 3.65 9.75 3.9 9.8 3.9 M10.5 4.4 L10.55 4.55 10.5 4.4" fill="#2d2716" fill-rule="evenodd" stroke="none"/>
    <path d="M9.8 3.7 L9.8 3.9 9.75 3.9 9.55 3.65 9.5 3.65 9.7 3.6 9.8 3.7 M9.15 3.25 L9.25 3.55 8.75 3.4 8.95 3.75 8.85 3.75 8.55 3.15 8.5 3.1 8.4 3.05 8.95 2.7 9.05 2.5 9.05 3.15 9.15 3.25 M8.55 4.45 L8.6 4.7 8.85 4.95 8.65 5.0 8.6 5.0 8.4 4.85 8.25 4.75 8.4 4.6 8.55 4.45" fill="#3d341d" fill-rule="evenodd" stroke="none"/>
    <path d="M8.35 3.05 L8.55 3.15 8.85 3.75 8.35 3.75 8.35 3.7 7.55 3.25 8.1 3.2 8.35 3.05 M8.4 4.6 L8.25 4.75 8.2 4.8 8.15 4.8 7.55 4.85 6.95 4.55 6.65 4.1 6.3 3.55 6.5 3.45 6.5 3.55 6.9 3.35 7.0 3.3 7.25 3.3 7.8 4.2 7.8 4.25 8.4 4.6 M-2.9 6.0 L-3.0 6.2 -3.1 6.3 -3.15 6.35 -3.2 6.45 -3.3 6.3 -3.25 6.05 -3.3 6.0 -3.25 5.75 -3.0 5.75 -2.95 5.85 -2.9 6.0" fill="#5f512e" fill-rule="evenodd" stroke="none"/>
    <path d="M8.35 3.75 L8.85 3.75 8.95 3.75 9.05 3.7 9.05 3.8 9.0 3.8 8.45 4.1 8.4 4.1 8.3 3.75 8.35 3.75 M6.85 3.35 L7.0 3.3 6.9 3.35 6.85 3.35" fill="#332b19" fill-rule="evenodd" stroke="none"/>
    <path d="M10.45 5.0 L10.5 5.3 10.1 5.35 9.65 5.45 9.3 5.3 9.05 5.2 8.85 4.95 8.6 4.7 8.55 4.45 8.4 4.1 8.45 4.1 9.0 3.8 9.2 4.15 9.8 4.4 10.2 4.95 10.45 5.0 M-5.25 1.3 L-5.25 1.3 -5.1 1.25 -4.95 1.2 -4.8 1.2 -4.75 1.2 -4.7 1.15 -4.7 1.2 -5.1 1.25 -5.25 1.3 M-4.65 1.15 L-4.7 1.15 -4.6 1.15 -4.65 1.15 M-4.55 1.15 L-4.6 1.15 -4.55 1.1 -4.55 1.15" fill="#5b4e2c" fill-rule="evenodd" stroke="none"/>
    <path d="M10.4 5.95 L10.15 6.0 10.2 6.05 9.6 6.8 9.2 6.75 9.5 6.9 9.4 7.0 9.2 7.05 9.25 6.85 9.0 6.2 8.85 6.05 8.2 5.95 8.1 5.95 7.8 5.95 8.05 5.9 8.15 5.9 8.6 5.85 8.5 5.8 8.0 5.7 8.1 5.2 7.85 5.0 7.85 4.95 8.1 5.0 8.2 5.05 8.4 4.85 8.6 5.0 8.65 5.0 8.85 4.95 9.05 5.2 9.3 5.3 9.65 5.7 10.05 5.8 10.1 5.9 10.35 5.95 10.55 5.95 10.4 5.95" fill="#322a18" fill-rule="evenodd" stroke="none"/>
    <path d="M10.1 5.35 L10.4 5.65 11.05 5.8 11.5 6.35 10.8 6.3 10.4 5.95 10.55 5.95 10.35 5.95 10.3 5.85 10.05 5.8 9.65 5.7 9.3 5.3 9.65 5.45 10.1 5.35" fill="#352d1a" fill-rule="evenodd" stroke="none"/>
    <path d="M9.6 6.8 L10.65 7.0 11.75 7.65 10.5 7.45 9.5 6.9 9.2 6.75 9.6 6.8" fill="#2c2515" fill-rule="evenodd" stroke="none"/>
    <path d="M9.2 7.05 L9.0 7.8 8.2 7.7 7.8 7.45 7.7 7.45 7.5 7.25 7.3 6.65 7.25 6.65 7.3 6.4 7.35 6.35 7.75 6.45 8.3 6.75 7.8 6.35 7.4 5.9 7.45 5.6 8.05 5.9 7.8 5.95 8.1 5.95 8.5 6.25 8.2 5.95 8.85 6.05 9.0 6.2 9.25 6.85 9.2 7.05 M8.0 5.7 L8.5 5.8 8.6 5.85 8.15 5.9 8.05 5.8 7.9 5.65 8.0 5.7" fill="#574a2a" fill-rule="evenodd" stroke="none"/>
    <path d="M6.15 1.1 L6.2 1.25 6.05 1.85 6.0 1.75 6.15 1.1 M3.85 0.95 L4.1 1.05 4.75 1.8 5.1 3.25 5.05 3.3 4.95 3.4 4.9 3.3 4.05 2.2 3.8 1.25 3.85 0.95" fill="#290f0f" fill-rule="evenodd" stroke="none"/>
    <path d="M4.65 0.45 L5.1 0.75 5.5 1.6 5.55 3.05 5.55 3.15 5.5 3.15 5.4 3.15 5.2 3.1 5.15 3.1 5.0 1.75 4.45 0.9 3.6 0.4 2.9 0.45 2.9 0.05 4.25 0.15 4.65 0.45" fill="#461a1a" fill-rule="evenodd" stroke="none"/>
    <path d="M5.1 3.25 L4.75 1.8 4.1 1.05 3.85 0.95 3.2 0.65 2.25 0.8 2.25 0.45 2.9 0.45 3.6 0.4 4.45 0.9 5.0 1.75 5.15 3.1 5.15 3.2 5.2 3.25 5.15 3.25 5.1 3.25" fill="#4e1d1d" fill-rule="evenodd" stroke="none"/>
    <path d="M5.95 2.8 L6.05 3.15 6.15 3.1 6.2 3.2 6.35 3.15 6.35 3.25 6.4 3.25 6.3 3.5 6.0 3.25 5.75 3.05 5.9 2.8 5.95 2.8 M5.1 3.25 L5.15 3.25 5.1 3.3 5.1 3.25 M5.15 3.2 L5.15 3.1 5.2 3.15 5.15 3.2 M4.9 3.3 L4.95 3.4 5.05 3.3 5.1 3.3 4.95 3.6 4.9 3.75 4.85 3.8 4.8 3.85 4.65 3.7 4.7 3.7 4.5 3.35 4.9 3.3" fill="#8b3434" fill-rule="evenodd" stroke="none"/>
    <path d="M5.4 3.15 L5.25 3.25 5.2 3.1 5.4 3.15" fill="#622525" fill-rule="evenodd" stroke="none"/>
    <path d="M5.15 3.25 L5.2 3.25 5.15 3.2 5.2 3.15 5.35 3.5 5.3 3.5 4.95 3.6 5.1 3.3 5.15 3.25 M2.0 1.7 L1.85 1.8 1.75 1.55 1.95 1.5 2.0 1.7" fill="#7a2e2e" fill-rule="evenodd" stroke="none"/>
    <path d="M2.25 0.8 L3.2 0.65 3.85 0.95 3.8 1.25 4.05 2.2 4.9 3.3 4.5 3.35 3.9 2.35 3.1 1.8 2.15 1.65 2.0 1.7 1.95 1.5 1.9 0.95 1.85 0.85 2.25 0.8 M5.05 3.3 L5.1 3.25 5.1 3.3 5.05 3.3" fill="#3a1616" fill-rule="evenodd" stroke="none"/>
    <path d="M5.65 3.1 L5.75 3.05 6.0 3.25 5.8 3.4 5.65 3.1" fill="#b24343" fill-rule="evenodd" stroke="none"/>
    <path d="M4.65 3.7 L4.6 3.7 4.4 3.8 3.35 4.1 3.2 4.15 2.25 4.0 1.45 3.45 1.2 2.9 0.95 2.35 0.9 2.2 1.2 2.05 1.85 1.8 2.0 1.7 2.15 1.65 3.1 1.8 3.9 2.35 4.5 3.35 4.7 3.7 4.65 3.7" fill="#371515" fill-rule="evenodd" stroke="none"/>
    <path d="M0.65 9.0 L0.45 9.2 0.4 8.95 0.55 8.9 0.6 8.9 0.65 9.0 M5.4 4.1 L5.35 4.1 4.85 3.8 4.9 3.75 4.95 3.8 5.4 4.1" fill="#524628" fill-rule="evenodd" stroke="none"/>
    <path d="M5.3 3.5 L5.5 4.2 5.4 4.1 4.95 3.8 4.9 3.75 4.95 3.6 5.3 3.5 M-4.95 3.9 L-4.9 3.7 -4.95 3.95 -5.0 4.1 -5.0 4.1 -4.95 3.9 M-5.5 5.65 L-5.5 5.65 -5.45 5.7 -5.5 5.7 -5.5 5.65" fill="#8b7744" fill-rule="evenodd" stroke="none"/>
    <path d="M4.65 4.65 L4.3 4.65 4.45 4.6 4.4 4.55 4.4 4.5 4.35 4.45 4.4 4.4 4.3 4.25 4.4 4.25 4.65 4.65 M-2.65 1.65 L-1.75 1.4 -1.8 1.6 -1.85 2.2 -1.85 2.3 -1.9 2.35 -1.9 2.35 -2.15 2.85 -2.2 2.95 -2.3 3.05 -2.35 3.05 -2.5 3.15 -2.6 3.25 -2.7 3.3 -3.05 3.35 -3.35 3.4 -3.35 3.4 -3.35 3.4 -2.7 3.25 -2.1 2.65 -2.35 2.7 -2.35 2.7 -2.95 2.8 -3.45 3.2 -3.55 3.25 -3.55 3.1 -3.55 3.0 -2.95 2.7 -2.15 2.5 -2.95 2.65 -3.5 2.65 -3.5 2.6 -3.3 2.15 -3.2 2.0 -3.0 1.85 -2.7 2.1 -1.9 2.25 -2.5 1.65 -2.65 1.65" fill="#514528" fill-rule="evenodd" stroke="none"/>
    <path d="M4.4 4.0 L4.4 4.15 4.45 4.25 4.4 4.25 4.3 4.25 3.35 4.1 4.4 3.8 4.4 4.0" fill="#3b1616" fill-rule="evenodd" stroke="none"/>
    <path d="M4.4 4.15 L5.35 4.65 4.65 4.65 4.4 4.25 4.45 4.25 4.4 4.15 M5.0 5.1 L5.25 5.35 5.15 5.3 5.0 5.1" fill="#493f24" fill-rule="evenodd" stroke="none"/>
    <path d="M4.3 4.65 L4.2 4.8 4.1 4.95 3.5 5.75 2.65 6.25 1.65 6.25 1.6 6.2 1.4 5.1 0.9 4.85 1.0 4.75 1.4 4.65 1.85 4.9 2.0 5.0 3.0 5.0 3.65 4.75 Q4.0 4.6 4.3 4.45 L4.35 4.45 4.4 4.5 4.4 4.55 4.3 4.65" fill="#280f0f" fill-rule="evenodd" stroke="none"/>
    <path d="M1.2 2.9 L1.45 3.45 2.25 4.0 3.2 4.15 3.35 4.1 4.3 4.25 4.4 4.4 4.35 4.45 4.3 4.45 Q4.0 4.6 3.65 4.75 L3.25 4.6 2.25 4.65 1.85 4.9 1.4 4.65 1.5 4.6 1.35 3.45 1.0 3.0 1.1 3.0 1.2 2.9" fill="#612525" fill-rule="evenodd" stroke="none"/>
    <path d="M4.4 4.55 L4.45 4.6 4.3 4.65 4.4 4.55 M1.0 4.75 L0.9 4.85 0.85 4.75 1.0 4.75" fill="#5a2222" fill-rule="evenodd" stroke="none"/>
    <path d="M6.6 3.15 L6.55 3.35 6.85 3.35 6.9 3.35 6.5 3.55 6.5 3.45 6.45 3.4 6.4 3.25 6.6 3.15" fill="#973939" fill-rule="evenodd" stroke="none"/>
    <path d="M1.85 1.8 L1.2 2.05 1.3 1.8 1.45 1.35 1.55 1.1 1.6 0.9 1.7 0.85 1.9 0.95 1.95 1.5 1.75 1.55 1.85 1.8" fill="#652626" fill-rule="evenodd" stroke="none"/>
    <path d="M-4.75 0.65 L-5.65 0.2 -5.95 -0.35 -5.95 -1.0 -5.2 -1.9 -4.1 -1.5 -3.8 -0.9 -3.8 -0.25 -4.35 0.55 -4.75 0.2 -4.75 0.65 M1.55 1.1 L1.45 1.35 1.4 1.15 1.55 1.1" fill="#594c2b" fill-rule="evenodd" stroke="none"/>
    <path d="M-1.3 -0.9 L-1.2 -1.0 -1.2 -0.8 -1.3 -0.9 M-0.25 0.0 L-0.45 -0.25 -0.4 -0.25 -0.25 0.0 M-0.8 -0.5 L-0.9 -0.5 -1.15 -0.75 -0.8 -0.5 M0.6 0.5 L0.65 0.35 0.6 0.2 1.0 0.05 0.75 0.25 0.7 0.5 0.6 0.5 M0.55 1.05 L0.45 1.3 0.4 1.25 0.25 1.5 -0.05 2.0 -0.1 2.05 -0.1 1.65 0.2 0.95 0.3 1.05 0.55 1.05 M-1.2 -0.8 L-1.2 -0.8" fill="#2a2414" fill-rule="evenodd" stroke="none"/>
    <path d="M0.3 0.7 L0.3 0.6 0.4 0.4 0.6 0.5 0.7 0.5 0.55 1.05 0.3 1.05 0.2 0.95 0.2 0.9 0.35 0.7 0.3 0.7" fill="#3f361f" fill-rule="evenodd" stroke="none"/>
    <path d="M-1.9 0.85 L-1.85 0.75 -1.8 0.7 -1.35 0.45 -1.25 0.4 -1.2 0.4 -0.9 0.35 -0.6 0.35 0.3 0.7 0.35 0.7 0.2 0.9 -0.25 1.55 -0.6 1.75 -1.1 0.95 -1.95 0.95 -1.9 0.85" fill="#3a311c" fill-rule="evenodd" stroke="none"/>
    <path d="M-4.5 9.7 L-4.55 9.7 -5.6 9.6 -5.8 8.55 -5.45 8.0 -4.9 7.65 -4.5 7.65 -5.2 8.75 -4.55 9.15 -4.5 9.25 -4.55 9.35 -4.5 9.7 M0.95 2.35 L1.2 2.9 1.1 3.0 0.95 2.95 0.85 2.45 0.25 2.15 -0.15 2.15 -0.1 2.05 -0.05 2.0 0.4 1.65 0.25 1.5 0.4 1.25 0.45 1.3 0.4 1.55 0.45 1.55 0.25 2.1 0.95 2.35" fill="#5c4e2d" fill-rule="evenodd" stroke="none"/>
    <path d="M0.25 1.5 L0.4 1.65 -0.05 2.0 0.25 1.5" fill="#4f4327" fill-rule="evenodd" stroke="none"/>
    <path d="M1.2 2.05 L0.9 2.2 0.95 2.35 0.25 2.1 0.45 1.55 1.3 1.8 1.2 2.05 M0.95 2.95 L1.1 3.0 1.0 3.0 0.95 2.95 M-0.4 2.9 L0.2 2.75 -0.7 3.05 -0.7 3.1 -0.75 3.1 -1.45 3.8 -1.9 4.9 -1.95 4.9 -1.85 4.7 -1.65 4.2 -1.5 3.8 -1.5 3.7 -1.4 3.65 -1.15 3.4 -0.75 3.0 -0.4 2.9" fill="#4a1c1c" fill-rule="evenodd" stroke="none"/>
    <path d="M0.65 4.8 L0.35 4.85 -0.25 4.6 -0.45 4.4 -0.6 4.25 -0.5 4.2 0.15 4.35 0.65 4.75 0.65 4.8 M0.8 6.1 L0.8 6.2 0.45 6.45 0.8 6.1 M-1.6 5.0 L-1.6 5.0 -1.6 5.0 -1.6 5.0 M-7.95 2.3 L-7.95 2.3 -7.85 2.35 -7.6 2.7 -7.3 2.9 -7.15 3.15 -6.75 3.45 -6.7 3.5 -6.95 3.4 -7.25 3.25 -7.75 3.1 -8.5 2.4 -8.0 2.3 -7.95 2.3 M-1.15 6.8 L-1.15 6.8 -1.05 6.8 -1.0 6.85 -1.1 6.8 -1.1 6.8 -1.15 6.8 M-8.55 2.3 L-8.6 2.35 -8.75 2.2 Q-8.65 2.25 -8.55 2.3" fill="#746338" fill-rule="evenodd" stroke="none"/>
    <path d="M4.55 5.1 L4.6 5.15 4.65 5.15 4.25 5.8 4.15 5.95 3.8 6.45 3.45 6.65 3.25 6.8 2.95 6.95 2.4 7.0 2.0 7.0 1.95 7.0 1.65 6.85 1.7 6.8 1.6 6.2 1.65 6.25 2.65 6.25 3.5 5.75 4.1 4.95 4.55 5.1 M3.65 4.75 L3.0 5.0 2.0 5.0 1.85 4.9 2.25 4.65 3.25 4.6 3.65 4.75" fill="#301212" fill-rule="evenodd" stroke="none"/>
    <path d="M2.7 8.45 L2.3 8.4 2.25 8.4 2.15 8.4 1.9 8.4 1.9 8.35 1.95 7.05 2.0 7.0 2.4 7.0 2.65 7.15 3.3 7.4 3.35 7.4 3.25 6.8 3.45 6.65 3.35 7.3 3.55 7.95 3.6 8.25 3.25 8.45 2.7 8.45 M4.15 5.95 L4.25 5.8 4.3 5.95 4.2 6.0 4.15 5.95" fill="#983939" fill-rule="evenodd" stroke="none"/>
    <path d="M1.2 5.55 L0.85 6.15 0.85 6.2 0.65 6.8 0.2 7.25 0.15 7.3 0.25 6.75 0.3 6.65 0.3 6.55 0.45 6.45 0.8 6.2 0.8 6.1 1.15 5.6 1.15 5.55 1.2 5.55 M-0.15 7.65 L-0.15 7.7 -0.15 7.65 M-0.15 7.7 L-0.15 7.7 -0.15 7.7" fill="#2c2615" fill-rule="evenodd" stroke="none"/>
    <path d="M-0.5 6.9 L-0.05 6.3 0.55 6.0 1.15 5.55 1.25 5.45 1.2 5.55 1.15 5.55 1.15 5.6 0.8 6.1 0.45 6.45 0.3 6.55 0.3 6.65 -0.3 6.95 -0.3 6.95 -0.35 6.95 -0.45 6.9 -0.5 6.9 M-1.55 3.4 L-1.55 3.4 -1.5 3.45 -1.6 3.5 -1.55 3.4 M-0.75 7.2 L-0.7 7.2 -0.75 7.25 -0.75 7.25 -0.85 7.3 -0.75 7.2 M-0.45 6.9 L-0.25 6.75 -0.45 6.9" fill="#342c19" fill-rule="evenodd" stroke="none"/>
    <path d="M-10.15 1.0 L-9.85 0.45 -8.25 -0.15 -7.7 0.2 -7.4 0.8 -7.7 1.65 -7.8 0.85 -8.25 0.35 -8.85 0.15 -9.95 0.6 -9.9 1.05 -10.15 1.0 M0.25 6.75 L0.15 7.3 0.1 7.65 0.0 8.0 0.0 7.95 -0.15 7.7 -0.15 7.65 -0.25 7.4 -0.3 7.4 -0.3 7.35 -0.2 7.3 -0.1 7.15 -0.05 7.15 -0.1 7.1 0.05 7.0 0.2 6.95 0.1 6.9 0.25 6.75 M-8.55 2.45 L-8.6 2.45 -9.25 2.8 -9.25 2.8 -9.75 2.95 -10.3 2.55 -10.3 2.55 -10.35 2.45 -10.55 2.1 -10.05 2.45 -10.0 2.45 -9.35 2.55 -8.6 2.35 -8.55 2.45" fill="#413720" fill-rule="evenodd" stroke="none"/>
    <path d="M0.1 6.9 L0.2 6.95 0.05 7.0 0.1 6.9 M-2.4 6.6 L-2.4 6.6 -2.5 6.6 -2.5 6.55 -2.4 6.6" fill="#716037" fill-rule="evenodd" stroke="none"/>
    <path d="M1.0 9.25 L0.6 9.7 0.8 9.1 1.1 8.7 1.0 9.2 1.0 9.25 M1.65 7.6 L1.65 7.75 1.7 7.8 1.6 8.05 1.3 8.4 1.35 7.95 1.65 7.6 M1.3 8.4 L1.25 8.45 1.3 8.4 M1.25 8.45 L1.25 8.6 1.1 8.7 1.15 8.55 1.25 8.45" fill="#362e1a" fill-rule="evenodd" stroke="none"/>
    <path d="M2.15 8.4 L2.25 8.4 2.2 8.45 2.15 8.4 M1.7 7.8 L1.65 7.75 1.65 7.6 1.85 7.3 1.7 7.8 M-7.8 3.4 L-8.3 3.05 -8.35 3.05 -8.4 2.85 -8.35 2.85 -8.45 2.8 -8.5 2.65 -8.5 2.6 -8.75 2.65 -9.25 2.8 -9.25 2.8 -8.6 2.45 -8.55 2.45 -8.5 2.4 -7.75 3.1 -7.25 3.25 -7.35 3.3 -7.8 3.4 M-4.15 8.0 L-4.05 7.9 -3.85 7.65 -3.7 7.65 -3.4 7.65 -3.2 7.6 -2.65 7.2 -2.5 7.25 -2.15 7.25 -2.6 7.45 -2.65 7.45 -2.65 7.5 -2.9 7.5 -2.85 7.55 -3.0 7.55 -3.0 7.65 -3.2 7.75 -3.25 7.7 -3.35 7.85 -3.45 7.9 -3.45 7.95 -3.5 7.95 -3.9 8.3 -4.3 8.2 -4.15 8.05 -4.15 8.0 M-1.85 5.45 L-1.85 5.45 -1.7 5.85 -1.7 6.0 -1.8 5.85 -1.9 5.2 -1.85 5.45 M-1.7 6.15 L-1.7 6.0 -1.6 6.2 -1.35 6.45 -1.55 6.55 -1.7 6.5 -1.7 6.5 -1.75 6.5 -1.7 6.15 M-1.5 6.75 L-1.5 6.9 -1.45 7.0 -1.0 7.2 -1.05 7.2 -1.1 7.2 -1.5 7.2 -1.5 7.0 -1.5 6.9 -1.6 6.7 -1.65 6.65 -1.5 6.7 -1.5 6.75 M-3.15 6.35 L-3.1 6.3 -3.1 6.35 -3.15 6.35" fill="#41371f" fill-rule="evenodd" stroke="none"/>
    <path d="M2.3 8.4 L1.8 9.25 1.3 8.95 1.8 8.35 1.9 8.35 1.9 8.4 2.15 8.4 2.2 8.45 2.25 8.4 2.3 8.4 M-0.95 6.1 L-0.85 6.55 -0.85 6.55 -0.8 6.6 -0.8 6.6 -0.85 6.65 -0.8 6.65 -0.8 6.7 -0.6 6.85 -0.6 6.85 -0.7 7.05 -1.0 6.85 -1.05 6.8 -1.15 6.8 -1.15 6.8 -1.5 6.7 -1.65 6.65 -1.65 6.65 -1.7 6.6 -1.55 6.55 -1.35 6.45 -1.15 6.35 -0.95 6.1 M-0.7 7.05 L-0.7 7.05" fill="#a83f3f" fill-rule="evenodd" stroke="none"/>
    <path d="M0.0 7.95 L0.0 8.0 0.25 8.35 0.3 8.4 0.5 8.75 0.45 8.8 0.4 8.85 -0.65 9.5 -1.6 9.5 -2.05 9.3 -2.25 9.2 -2.3 9.05 -2.3 8.9 -2.45 8.75 -3.15 7.75 -3.2 7.75 -3.0 7.65 -2.8 7.55 -2.6 7.45 -2.6 7.45 -2.15 7.25 -2.1 7.2 -1.8 7.2 -1.5 7.2 -1.1 7.2 -1.05 7.2 -0.9 7.3 -0.45 7.5 -0.2 7.6 -0.15 7.7 0.0 7.95 M-3.45 7.95 L-3.45 7.9 -3.35 7.85 -3.45 7.95 M-0.15 7.7 L-0.15 7.7" fill="#6a2828" fill-rule="evenodd" stroke="none"/>
    <path d="M-0.8 6.6 L-0.8 6.65 -0.85 6.65 -0.8 6.6 M-0.6 6.85 L-0.5 6.9 -0.45 6.9 -0.35 6.95 -0.3 7.0 -0.3 7.05 -0.35 7.35 -0.65 7.1 -0.65 7.1 -0.7 7.1 -0.7 7.05 -0.6 6.85 -0.6 6.85 M0.45 8.8 L0.6 8.9 0.55 8.9 0.4 8.95 0.4 8.85 0.45 8.8 M-0.45 6.9 L-0.45 6.9" fill="#752c2c" fill-rule="evenodd" stroke="none"/>
    <path d="M5.7 8.05 L6.15 8.5 6.2 9.15 5.9 9.75 4.65 10.2 3.6 9.35 3.6 9.3 3.55 8.7 3.65 8.4 4.5 9.4 5.55 8.55 5.7 8.05" fill="#554929" fill-rule="evenodd" stroke="none"/>
    <path d="M7.4 5.9 L7.8 6.35 8.3 6.75 7.75 6.45 7.35 6.35 7.1 6.25 6.65 5.8 6.3 5.5 6.0 5.3 6.25 5.4 6.75 5.7 7.3 5.85 7.35 5.9 7.4 5.9" fill="#5a4c2c" fill-rule="evenodd" stroke="none"/>
    <path d="M6.55 7.15 L6.55 7.35 6.35 7.1 6.1 6.8 5.75 6.2 5.75 5.55 6.0 5.35 6.05 5.15 6.25 5.4 6.0 5.3 6.3 5.5 6.6 5.95 6.65 6.65 6.55 7.05 6.55 7.15" fill="#332c19" fill-rule="evenodd" stroke="none"/>
    <path d="M4.6 5.15 L4.65 5.1 5.0 5.1 5.15 5.3 5.25 5.35 5.35 5.8 5.4 5.95 5.35 5.95 5.3 6.0 4.85 5.35 4.3 5.95 4.25 5.8 4.65 5.15 4.6 5.15" fill="#6d3024" fill-rule="evenodd" stroke="none"/>
    <path d="M-0.4 2.05 L-0.3 2.0 -0.25 1.95 -0.25 2.1 -0.2 2.15 -0.35 2.15 -0.4 2.05 M5.35 5.95 L5.4 6.05 5.35 6.15 5.3 6.0 5.35 5.95 M-6.15 4.1 L-6.1 4.15 -6.15 4.2 -6.2 4.0 -6.15 4.1 -6.15 4.1" fill="#554829" fill-rule="evenodd" stroke="none"/>
    <path d="M-0.6 -9.15 L-0.55 -9.25 -0.35 -9.3 -0.45 -9.15 -0.6 -9.15" fill="#a1894e" fill-rule="evenodd" stroke="none"/>
    <path d="M-2.75 0.2 L-3.0 0.15 -3.6 -0.65 -2.9 -1.35 -2.25 -1.45 -1.65 -1.25 -1.3 -0.9 -1.2 -0.8 -1.15 -0.75 -0.9 -0.5 -0.9 -0.5 -1.0 -0.4 -1.7 -0.2 -2.15 0.3 -2.35 0.3 -2.75 0.2" fill="#5e502d" fill-rule="evenodd" stroke="none"/>
    <path d="M-1.0 -0.4 L-0.9 -0.4 -1.35 0.3 -2.0 0.55 -2.15 0.75 -2.35 0.95 -2.75 0.95 -2.85 1.1 -3.1 1.15 -2.85 0.65 -2.75 0.5 -2.75 0.5 -2.15 0.3 -1.7 -0.2 -1.0 -0.4" fill="#877342" fill-rule="evenodd" stroke="none"/>
    <path d="M-0.6 1.75 L-0.4 2.05 -0.35 2.15 -0.25 2.3 -0.4 2.9 -0.75 3.0 -1.15 3.4 -1.3 3.4 -1.4 3.4 -1.55 3.4 -1.75 3.35 -2.4 3.35 -2.5 3.15 -2.35 3.05 -2.3 3.05 -2.2 2.95 -2.15 2.85 -1.85 2.6 -1.55 1.85 -1.55 1.85 -1.45 1.65 -1.8 1.6 -1.75 1.4 -2.65 1.65 -3.15 1.55 -3.2 1.5 -3.2 1.45 -2.85 1.1 -2.75 0.95 -2.35 0.95 -1.95 0.95 -1.1 0.95 -0.6 1.75 M-3.2 1.65 L-3.0 1.85 -3.2 2.0 -3.3 2.15 -3.35 2.15 -3.35 2.1 -3.3 1.85 -3.2 1.65" fill="#665631" fill-rule="evenodd" stroke="none"/>
    <path d="M-1.8 1.6 L-1.45 1.65 -1.55 1.85 -1.55 1.85 -1.85 2.6 -2.15 2.85 -1.9 2.35 -1.9 2.35 -1.85 2.3 -1.85 2.2 -1.8 1.6 M-3.5 2.85 L-3.55 3.0 -3.55 3.1 -3.85 3.0 -3.8 3.0 -3.75 2.75 -3.75 2.75 -3.5 2.85" fill="#9c854c" fill-rule="evenodd" stroke="none"/>
    <path d="M-1.85 2.2 L-1.85 2.3 -1.85 2.2 M-3.05 3.35 L-2.7 3.3 -2.6 3.25 -2.55 3.75 -2.55 3.85 -2.55 3.9 -2.75 4.05 -3.3 4.45 -3.25 4.25 -3.25 4.25 -3.2 3.8 -3.05 3.35" fill="#705f37" fill-rule="evenodd" stroke="none"/>
    <path d="M-0.2 1.8 L-0.1 1.65 -0.1 2.05 -0.15 2.15 -0.2 2.15 -0.25 2.1 -0.2 1.9 -0.2 1.8" fill="#40361f" fill-rule="evenodd" stroke="none"/>
    <path d="M-7.25 1.7 L-7.05 1.65 -6.5 1.85 -6.65 2.05 -7.2 1.7 -7.25 1.7 M-0.25 1.95 L-0.25 1.9 -0.2 1.9 -0.25 2.1 -0.2 2.15 -0.2 2.15 -0.25 2.1 -0.25 1.95 M-6.65 4.9 Q-6.65 4.95 -6.6 4.95 L-6.6 4.95 -6.65 5.05 -6.8 5.1 -6.9 5.1 -6.65 4.9" fill="#625430" fill-rule="evenodd" stroke="none"/>
    <path d="M-7.7 1.65 L-7.25 1.7 -7.2 1.7 -6.65 2.05 -6.85 2.3 -6.9 2.75 -7.3 2.5 -7.85 2.35 -7.95 2.15 -8.3 1.9 -7.85 1.65 -7.7 1.65 M-2.75 0.3 L-2.75 0.2 -2.35 0.3 -2.15 0.3 -2.75 0.5 -2.75 0.35 -2.7 0.3 -2.75 0.3 M-8.55 2.05 L-8.35 1.95 -8.05 2.25 Q-8.0 2.3 -7.95 2.3 L-7.95 2.3 -8.0 2.3 -8.5 2.4 -8.55 2.45 -8.6 2.35 -8.55 2.3 -8.4 2.25 -8.55 2.05 M-6.8 3.35 L-7.05 3.2 -6.9 3.1 -6.8 3.35 -6.8 3.35 M-6.95 3.4 L-7.1 3.45 -7.1 3.45 -7.75 3.4 -7.8 3.4 -7.35 3.3 -7.25 3.25 -6.95 3.4 M-8.6 2.35 L-8.6 2.35" fill="#5a4d2c" fill-rule="evenodd" stroke="none"/>
    <path d="M-3.55 1.05 L-3.45 1.0 -3.45 1.05 -3.55 1.05 M-3.4 7.55 L-3.3 7.45 -3.25 7.4 -2.7 7.0 -2.45 7.1 -2.45 7.1 -2.5 7.25 -2.65 7.2 -3.2 7.6 -3.4 7.65 -3.4 7.55 M-2.05 6.4 L-2.5 5.95 -2.3 6.0 -2.05 6.15 -2.05 6.4 -2.05 6.4" fill="#39301b" fill-rule="evenodd" stroke="none"/>
    <path d="M-4.2 1.05 L-4.1 1.05 -3.65 1.1 -3.2 1.5 -3.15 1.55 -2.65 1.65 -2.5 1.65 -1.9 2.25 -2.7 2.1 -3.0 1.85 -3.2 1.65 -3.85 1.5 -3.85 1.5 -4.2 1.2 -4.35 1.05 -4.2 1.05 M-2.5 4.3 L-2.5 4.25 -2.5 4.3 M-2.5 4.25 L-2.5 4.25" fill="#4d4125" fill-rule="evenodd" stroke="none"/>
    <path d="M-10.7 3.1 L-10.8 3.35 -11.45 3.6 -12.1 3.5 -12.85 2.35 -12.35 1.0 -11.75 0.8 -11.1 0.85 -10.8 1.25 -10.95 1.35 -10.55 2.1 -10.55 2.1 -10.35 2.45 -10.4 2.55 -10.4 2.55 -11.05 2.95 -10.7 3.1 M-4.7 1.15 L-4.75 1.1 -4.8 1.1 -4.75 1.1 -4.7 1.15 -4.65 1.15 -4.6 1.2 -4.55 1.2 -4.5 1.25 -4.0 1.75 -4.4 1.45 -4.6 1.3 -4.65 1.25 -4.7 1.2 -4.7 1.15 M-5.15 0.95 L-5.2 0.9 -5.45 0.55 -5.05 0.75 -4.95 0.85 -5.15 0.95 M-2.5 3.15 L-2.4 3.35 -1.75 3.35 -1.8 3.45 -2.05 3.95 -2.05 4.0 -2.1 3.95 -2.55 3.75 -2.6 3.25 -2.5 3.15 M-3.35 2.15 L-3.3 2.15 -3.5 2.6 -3.55 2.3 -3.45 2.15 -3.35 2.15 -3.35 2.15 M-4.8 1.1 L-4.8 1.1" fill="#8d7845" fill-rule="evenodd" stroke="none"/>
    <path d="M-2.35 2.7 L-2.35 2.7 -2.35 2.7" fill="#6d5c35" fill-rule="evenodd" stroke="none"/>
    <path d="M-2.35 2.7 L-2.35 2.7 -2.1 2.65 -2.7 3.25 -3.35 3.4 -3.35 3.4 -3.55 3.6 -3.45 3.35 -3.9 3.75 -3.9 3.75 -4.0 3.85 -4.55 3.9 -4.15 3.45 -3.6 3.4 -3.6 3.25 -3.55 3.25 -3.45 3.2 -2.95 2.8 -2.35 2.7" fill="#473c23" fill-rule="evenodd" stroke="none"/>
    <path d="M-3.5 2.65 L-2.95 2.65 -2.15 2.5 -2.95 2.7 -3.55 3.0 -3.5 2.85 -3.5 2.65 M-3.8 2.75 L-3.8 2.75 -3.75 2.75 -3.8 3.0 -4.2 3.0 -4.75 3.05 -4.2 2.9 -3.8 2.75" fill="#60512f" fill-rule="evenodd" stroke="none"/>
    <path d="M-3.55 3.25 L-3.6 3.25 -4.1 3.35 -4.15 3.4 -4.15 3.45 -4.55 3.9 -4.0 3.85 -4.05 3.9 -4.3 4.35 -4.4 4.45 -4.4 4.45 -4.8 4.15 -4.9 4.1 -4.95 3.95 -4.9 3.7 -4.95 3.9 -4.95 3.85 -4.95 3.8 -5.05 3.45 -4.75 3.05 -4.75 3.05 -4.65 2.9 -4.4 2.8 -4.05 2.65 -3.8 2.75 -4.2 2.9 -4.75 3.05 -4.2 3.0 -3.8 3.0 -3.85 3.0 -3.55 3.1 -3.55 3.25 M-3.55 3.6 L-3.35 3.4 -3.35 3.4 -3.05 3.35 -3.2 3.8 -3.25 4.25 -3.25 4.25 -3.3 4.45 -2.75 4.05 -2.55 3.9 -2.5 4.25 -2.5 4.3 -2.5 4.65 -2.5 4.7 -2.8 5.1 -3.15 5.25 -3.15 5.3 -3.2 5.35 -3.5 5.45 -3.95 5.25 -4.3 4.55 -4.35 4.45 -4.3 4.35 -3.85 4.05 -3.75 3.9 -3.75 3.9 -3.55 3.6 M-2.5 4.3 L-2.5 4.3" fill="#7e6b3d" fill-rule="evenodd" stroke="none"/>
    <path d="M-3.6 3.25 L-3.6 3.4 -4.15 3.45 -4.15 3.4 -4.1 3.35 -3.6 3.25 M-5.75 2.0 L-5.8 1.8 -4.9 1.6 -4.7 1.7 -4.8 2.0 -5.1 2.6 -5.35 2.75 -5.45 2.55 -5.6 2.15 -5.75 2.0 M-5.45 2.55 L-5.4 2.6 -5.45 2.55" fill="#b19756" fill-rule="evenodd" stroke="none"/>
    <path d="M-4.0 3.85 L-3.9 3.75 -3.9 3.75 -3.45 3.35 -3.55 3.6 -3.75 3.9 -3.75 3.9 -3.85 4.05 -4.3 4.35 -4.35 4.45 -4.4 4.45 -4.4 4.45 -4.3 4.35 -4.05 3.9 -4.0 3.85" fill="#917b46" fill-rule="evenodd" stroke="none"/>
    <path d="M-3.95 5.25 L-3.5 5.45 -3.2 5.35 -3.15 5.6 -3.2 5.65 -3.4 5.9 -3.7 5.55 -3.85 5.5 -3.95 5.25 M-2.5 4.65 L-2.5 4.3 -2.5 4.35 -2.45 4.35 -2.35 4.35 -1.7 4.2 -1.65 4.2 -1.85 4.7 -2.35 4.6 -2.5 4.65 M-5.7 5.5 L-5.5 5.65 -5.5 5.7 -5.65 5.8 -5.7 5.5 M-5.55 6.5 L-5.45 6.65 -5.5 6.6 -5.55 6.5" fill="#625330" fill-rule="evenodd" stroke="none"/>
    <path d="M-2.35 4.9 L-2.3 4.85 -1.95 4.9 -1.9 4.9 -1.65 4.95 -1.6 5.0 -1.6 5.0 -2.05 5.2 -2.45 5.7 -2.5 5.9 Q-2.55 5.85 -2.65 5.85 L-2.5 6.0 -2.6 6.35 -2.6 6.35 -2.85 6.15 -2.9 6.0 -2.95 5.85 -2.6 5.75 -2.35 5.15 -2.35 4.9" fill="#635530" fill-rule="evenodd" stroke="none"/>
    <path d="M-0.45 4.4 L-0.8 4.55 -1.1 4.95 -1.45 4.95 -1.6 5.0 -1.65 4.95 -1.9 4.9 -1.45 3.8 -0.75 3.1 -0.7 3.1 -0.7 4.1 -0.6 4.25 -0.45 4.4 M-1.6 5.0 L-1.6 5.0" fill="#923737" fill-rule="evenodd" stroke="none"/>
    <path d="M-1.4 3.4 L-1.3 3.4 -1.4 3.55 -1.4 3.65 -1.5 3.7 -1.5 3.8 -1.55 3.8 -1.55 3.75 -1.8 3.9 -2.0 3.95 -1.7 3.55 -1.6 3.5 -1.5 3.45 -1.4 3.4" fill="#706037" fill-rule="evenodd" stroke="none"/>
    <path d="M-1.1 4.95 L-0.45 4.9 -0.75 5.85 -0.95 6.1 -1.15 6.35 -1.35 6.45 -1.6 6.2 -1.7 6.0 -1.7 6.15 -1.8 6.05 -1.9 6.05 -2.0 6.05 -2.0 6.05 -2.3 6.0 -2.5 5.95 -2.05 6.4 -2.0 6.45 -1.7 6.5 -1.7 6.5 -1.55 6.55 -1.7 6.6 -1.7 6.65 -1.75 6.65 -1.75 6.65 -2.05 6.55 -2.05 6.55 -2.1 6.55 -2.55 6.45 -2.55 6.55 -2.5 6.55 -2.5 6.6 -2.6 6.55 -2.6 6.55 -2.6 6.35 -2.5 6.0 -2.5 5.9 -2.45 5.7 -2.05 5.2 -1.6 5.0 -1.45 4.95 -1.1 4.95 M-1.6 5.0 L-1.6 5.0 M-1.85 5.45 L-1.9 5.2 -1.8 5.85 -1.7 6.0 -1.7 5.85 -1.85 5.45 -1.85 5.45" fill="#4d4225" fill-rule="evenodd" stroke="none"/>
    <path d="M-4.75 0.7 L-4.75 0.65 -4.75 0.2 -4.35 0.55 -4.25 0.65 -4.75 0.7 M-4.25 0.85 L-4.2 1.05 -4.35 1.05 -4.2 1.2 -4.2 1.35 -4.15 1.4 -4.1 1.45 -3.8 1.9 -3.8 2.75 -4.35 2.1 -4.4 1.5 -4.4 1.45 -4.0 1.75 -4.5 1.25 -4.55 1.2 -4.55 1.15 -4.55 1.1 -4.6 1.15 -4.65 1.1 -4.25 0.85" fill="#473c22" fill-rule="evenodd" stroke="none"/>
    <path d="M-4.25 7.0 L-4.5 7.05 -4.75 7.05 -4.85 7.0 -5.0 6.95 -5.35 6.8 -5.45 6.65 -5.55 6.5 -5.7 6.25 -5.7 6.2 -5.85 6.0 -5.65 5.85 -5.65 5.8 -5.5 5.7 -5.45 5.7 -5.35 5.6 -5.35 5.6 -5.1 5.4 -4.65 5.35 -4.6 5.35 -4.6 5.35 -4.45 5.35 -4.4 5.35 -3.85 5.6 -3.3 6.3 -3.2 6.45 -3.2 6.45 -3.2 6.45 -3.65 6.75 -4.1 7.0 -4.25 7.0 M-5.7 1.5 L-5.45 1.35 -5.25 1.3 -5.1 1.25 -4.7 1.2 -4.65 1.25 -4.6 1.3 -4.65 1.55 -4.7 1.7 -4.9 1.6 -5.8 1.8 -5.75 2.0 -5.85 1.95 -5.85 1.9 -5.95 1.65 -5.7 1.5 M-4.55 1.2 L-4.6 1.2 -4.65 1.15 -4.6 1.15 -4.55 1.15 -4.55 1.2 -4.55 1.2" fill="#635430" fill-rule="evenodd" stroke="none"/>
    <path d="M-6.4 1.65 L-6.5 1.6 -6.6 1.25 -6.65 1.15 -6.75 1.0 -7.1 0.45 -6.65 0.9 -6.6 0.95 -6.15 1.3 -5.95 1.65 -5.85 1.9 -5.85 1.95 -6.35 1.6 -6.4 1.65 M-5.45 2.55 L-5.4 2.6 -5.45 2.55 -5.45 2.55" fill="#a68d51" fill-rule="evenodd" stroke="none"/>
    <path d="M-6.4 0.65 L-6.35 0.65 -6.35 0.7 -6.4 0.65" fill="#61522f" fill-rule="evenodd" stroke="none"/>
    <path d="M-8.35 1.95 L-8.5 1.75 -8.3 1.9 -7.95 2.15 -7.85 2.35 -7.3 2.5 -6.9 2.75 -6.95 2.95 -6.9 3.1 -7.05 3.2 -6.8 3.35 -6.75 3.4 -6.75 3.45 -7.15 3.15 -7.3 2.9 -7.6 2.7 -7.85 2.35 -7.95 2.3 -7.95 2.3 -7.95 2.3 Q-8.0 2.3 -8.05 2.25 L-8.35 1.95" fill="#8c7744" fill-rule="evenodd" stroke="none"/>
    <path d="M-8.6 4.5 L-8.8 4.35 -8.75 3.05 -8.75 2.85 -8.6 2.75 -8.5 2.65 -8.45 2.8 -8.4 2.85 -8.35 3.05 -8.3 3.05 -7.8 3.4 -7.75 3.4 -7.1 3.45 -7.1 3.45 -6.95 3.4 -6.7 3.5 -6.7 3.6 -6.35 3.9 -6.45 4.75 -6.5 4.75 -6.5 4.8 -6.65 4.9 -6.9 5.1 -7.0 5.2 -7.0 5.2 -7.65 5.3 -8.6 4.5 M-6.75 3.4 L-6.8 3.35 -6.8 3.35 -6.75 3.4" fill="#897543" fill-rule="evenodd" stroke="none"/>
    <path d="M-6.2 4.0 L-6.15 4.1 -6.15 4.1 -6.2 4.0 M-6.8 5.1 L-6.65 5.05 -6.6 4.95 -6.6 4.95 -6.5 4.85 -6.2 4.75 -6.0 5.25 -5.9 5.35 -5.9 5.35 -5.7 5.7 -5.8 5.7 -6.45 5.6 -6.5 5.6 -7.0 5.3 -7.0 5.2 -6.8 5.1" fill="#816e3f" fill-rule="evenodd" stroke="none"/>
    <path d="M-4.55 2.4 L-4.45 2.75 -4.4 2.75 -4.4 2.8 -4.65 2.9 -4.75 3.05 -4.75 3.05 -5.05 3.45 -4.95 3.8 -5.0 3.85 -5.35 4.05 -5.45 4.0 -5.65 4.1 -5.75 3.95 -5.5 3.45 -5.45 3.65 -5.5 3.75 -5.45 3.7 -5.45 3.8 -5.1 3.4 -4.85 3.15 -4.7 2.5 -4.55 2.4" fill="#38301b" fill-rule="evenodd" stroke="none"/>
    <path d="M-5.8 4.05 L-5.85 4.0 -5.9 3.95 -6.3 3.5 -5.9 3.95 -5.85 4.0 -5.8 4.05 -5.7 4.1 -5.35 4.3 -5.1 4.8 -5.0 4.85 -4.6 5.35 -4.6 5.35 -5.05 4.9 -5.1 4.8 -5.55 4.5 -5.75 4.15 -5.8 4.05" fill="#332b18" fill-rule="evenodd" stroke="none"/>
    <path d="M-4.95 3.8 L-4.95 3.85 -5.0 3.85 -4.95 3.8" fill="#763427" fill-rule="evenodd" stroke="none"/>
    <path d="M-4.95 3.85 L-4.95 3.9 -5.0 4.1 -5.35 4.05 -5.0 3.85 -4.95 3.85 M-4.95 3.95 L-4.9 4.1 -5.0 4.1 -4.95 3.95" fill="#6d5d35" fill-rule="evenodd" stroke="none"/>
    <path d="M-4.4 5.35 L-4.3 5.3 -3.85 5.5 -3.85 5.5 -3.7 5.55 -3.4 5.9 -3.3 6.0 -3.25 6.05 -3.3 6.3 -3.85 5.6 -4.4 5.35" fill="#61532f" fill-rule="evenodd" stroke="none"/>
    <path d="M-5.35 5.6 L-5.05 5.3 -4.65 5.35 -5.1 5.4 -5.35 5.6" fill="#423820" fill-rule="evenodd" stroke="none"/>
    <path d="M-10.8 1.25 L-10.15 1.0 -10.15 1.0 -9.9 1.05 -9.5 1.05 -8.95 1.45 -8.55 2.05 -8.4 2.25 -8.55 2.3 Q-8.65 2.25 -8.75 2.2 L-8.6 2.35 -9.35 2.55 -10.0 2.45 -10.05 2.45 -10.55 2.1 -10.55 2.1 -10.95 1.35 -10.8 1.25 M-5.65 5.85 L-5.85 6.0 -5.7 6.2 -6.45 6.25 -6.7 5.7 -6.5 5.6 -6.45 5.6 -5.8 5.7 -5.7 5.7 -5.65 5.85 M-5.7 6.25 L-5.55 6.5 -5.5 6.6 -5.45 6.65 -5.35 6.8 -5.0 6.95 -5.45 6.95 -5.7 6.8 -5.75 6.8 -5.85 6.8 -5.7 6.25 M-5.0 6.95 L-5.0 6.95 M-8.6 2.35 L-8.6 2.35" fill="#534728" fill-rule="evenodd" stroke="none"/>
    <path d="M-4.5 7.55 L-4.35 7.1 -4.25 7.0 -4.1 7.0 -3.65 6.75 -3.7 7.1 -3.15 6.75 -3.05 6.65 -3.1 6.9 -3.4 6.95 -3.7 7.15 -4.5 7.55 M-5.0 6.95 L-4.85 7.0 -5.0 7.2 -5.25 7.05 -5.25 7.05 -5.0 6.95 -5.0 6.95 M-2.8 6.5 L-2.85 6.5 -2.85 6.65 -2.85 6.65 -2.95 6.55 -2.85 6.45 -2.8 6.5 -2.8 6.5" fill="#78663a" fill-rule="evenodd" stroke="none"/>
    <path d="M-7.35 6.6 L-8.3 7.25 -8.95 7.15 -9.45 6.7 -9.4 5.15 -8.6 4.5 -7.65 5.3 -7.0 5.2 -7.0 5.3 -6.95 6.3 -7.2 6.5 -7.3 6.55 -7.35 6.6 M-7.0 5.2 L-7.0 5.2" fill="#483e23" fill-rule="evenodd" stroke="none"/>
    <path d="M-4.5 7.65 L-4.5 7.55 -3.7 7.15 -4.2 7.55 -4.6 8.45 -4.55 9.15 -5.2 8.75 -4.5 7.65" fill="#5e2323" fill-rule="evenodd" stroke="none"/>
    <path d="M-4.15 8.0 L-4.1 7.95 -4.05 7.9 -4.15 8.0 M-3.7 7.65 L-3.55 7.55 -3.55 7.55 -3.4 7.55 -3.4 7.65 -3.7 7.65" fill="#312a18" fill-rule="evenodd" stroke="none"/>
    <path d="M-2.15 10.0 L-2.4 10.85 -3.4 11.75 -4.3 10.75 -4.35 10.7 -4.5 9.85 -4.5 9.75 -4.5 9.65 -4.45 9.65 -4.25 8.85 -3.5 7.95 -3.45 7.95 -3.35 7.85 -3.25 7.7 -3.2 7.75 -3.15 7.75 -2.45 8.75 -2.4 8.95 -2.3 9.05 -2.25 9.2 -2.1 9.9 -2.1 9.9 -2.15 10.0" fill="#8f3636" fill-rule="evenodd" stroke="none"/>
    <path d="M-4.35 10.7 L-4.4 10.7 -4.5 9.85 -4.35 10.7 M-4.5 9.75 L-4.5 9.7 -4.55 9.35 -4.5 9.25 -4.15 8.45 -3.9 8.3 -3.5 7.95 -4.25 8.85 -4.45 9.65 -4.5 9.65 -4.5 9.75" fill="#8e3636" fill-rule="evenodd" stroke="none"/>
    <path d="M-0.3 7.4 L-0.25 7.4 -0.15 7.65 -0.15 7.7 0.0 7.95 -0.15 7.7 -0.2 7.6 -0.45 7.5 -0.55 7.35 -0.7 7.2 -0.75 7.2 -0.75 7.2 -0.8 7.15 -0.65 7.1 -0.65 7.1 -0.35 7.35 -0.3 7.4 M-1.5 6.7 L-1.15 6.8 -1.1 6.8 -1.1 6.8 -1.0 6.85 -0.7 7.05 -0.85 7.1 -0.85 7.1 -1.35 6.75 -1.5 6.75 -1.5 6.7 M-1.65 6.65 L-1.6 6.7 -1.95 6.65 -2.0 6.65 -2.05 6.65 -2.05 6.6 -2.05 6.55 -1.75 6.65 -1.75 6.65 -1.7 6.65 -1.65 6.65 -1.65 6.65 M-2.2 6.6 L-2.4 6.6 -2.5 6.55 -2.55 6.55 -2.55 6.45 -2.1 6.55 -2.1 6.55 -2.15 6.6 -2.2 6.6 M-0.15 7.7 L-0.15 7.7" fill="#813030" fill-rule="evenodd" stroke="none"/>
    <path d="M-1.5 7.0 L-1.5 7.2 -1.8 7.2 -1.85 7.15 -1.85 7.15 -2.5 6.85 -2.85 6.65 -2.85 6.5 -2.8 6.5 -2.6 6.55 -2.6 6.55 -2.5 6.6 -2.4 6.6 -2.4 6.6 -2.2 6.6 -2.15 6.6 -2.0 6.65 -1.95 6.65 -1.8 6.85 -1.5 7.0 M-0.8 7.15 L-0.75 7.2 -0.75 7.2 -0.85 7.3 -0.75 7.25 -0.75 7.25 -0.7 7.2 -0.55 7.35 -0.45 7.5 -0.9 7.3 -0.9 7.25 -0.8 7.15" fill="#803030" fill-rule="evenodd" stroke="none"/>
    <path d="M-1.7 6.65 L-1.7 6.6 -1.65 6.65 -1.7 6.65 -1.7 6.65" fill="#7c2f2f" fill-rule="evenodd" stroke="none"/>
    <path d="M-2.05 6.55 L-2.05 6.6 -2.05 6.65 -2.0 6.65 -2.15 6.6 -2.2 6.6 -2.15 6.6 -2.1 6.55 -2.1 6.55 -2.05 6.55 -2.05 6.55 M-2.5 6.85 L-1.85 7.15 -1.85 7.15 -1.8 7.2 -2.1 7.2 -2.15 7.25 -2.5 7.25 -2.45 7.1 -2.45 7.1 -2.7 7.0 -2.5 6.85 M-2.1 9.9 L-2.1 9.9 -2.25 9.2 -2.05 9.3 -1.85 9.55 -2.0 9.8 -2.1 9.9" fill="#401818" fill-rule="evenodd" stroke="none"/>
    <path d="M-0.7 7.05 L-0.7 7.05 -0.7 7.1 -0.65 7.1 -0.8 7.15 -0.9 7.25 -0.9 7.3 -1.05 7.2 -1.0 7.2 -0.85 7.1 -0.7 7.05 M-0.45 6.9 L-0.45 6.9 -0.25 6.75 -0.45 6.9" fill="#251f12" fill-rule="evenodd" stroke="none"/>
    <path d="M-0.85 6.55 L-0.8 6.6 -0.85 6.55 -0.85 6.55" fill="#a53e3e" fill-rule="evenodd" stroke="none"/>
    <path d="M-3.15 5.3 L-3.15 5.25 -2.8 5.1 -2.35 4.9 -2.35 5.15 -2.6 5.75 -2.95 5.85 -3.0 5.75 -3.15 5.3" fill="#3f351e" fill-rule="evenodd" stroke="none"/>
    <path d="M-3.0 6.2 L-2.9 6.0 -2.85 6.15 -2.6 6.35 -2.6 6.4 -2.8 6.5 -2.85 6.45 -2.85 6.35 -3.05 6.4 -2.95 6.3 -3.0 6.2" fill="#6c5c35" fill-rule="evenodd" stroke="none"/>
    <path d="M-3.2 5.35 L-3.15 5.3 -3.0 5.75 -3.25 5.75 -3.2 5.7 -3.2 5.65 -3.15 5.6 -3.2 5.35" fill="#463b22" fill-rule="evenodd" stroke="none"/>
    <path d="M-1.2 9.85 L-1.2 9.85 -1.4 10.3 -2.15 10.0 -2.1 9.9 -2.0 9.8 -1.85 9.55 -1.7 9.65 -1.2 9.85 M-3.25 7.4 L-3.1 6.9 -3.05 6.65 -3.0 6.55 -2.95 6.55 -2.85 6.65 -2.85 6.65 -2.5 6.85 -2.7 7.0 -3.25 7.4" fill="#662626" fill-rule="evenodd" stroke="none"/>
    <path d="M-2.6 6.55 L-2.8 6.5 -2.6 6.4 -2.6 6.35 -2.6 6.55 M-2.6 6.35 L-2.6 6.35 M-2.8 6.5 L-2.8 6.5" fill="#564a2a" fill-rule="evenodd" stroke="none"/>
    <path d="M-2.65 7.5 L-2.65 7.45 -2.6 7.45 -2.65 7.5 M-2.6 7.45 L-2.6 7.45" fill="#7f3030" fill-rule="evenodd" stroke="none"/>
    <path d="M-8.75 3.05 L-9.1 3.2 -9.75 3.4 -10.4 3.25 -10.7 3.1 -11.05 2.95 -10.4 2.55 -10.4 2.55 -10.3 2.55 -10.3 2.55 -9.75 2.95 -9.25 2.8 -8.75 2.65 -8.6 2.75 -8.75 2.85 -8.75 3.05 M-8.4 2.85 L-8.45 2.8 -8.35 2.85 -8.4 2.85" fill="#847040" fill-rule="evenodd" stroke="none"/>
    <path d="M0.55 -9.55 L0.3 -9.75 0.05 -10.35 0.05 -11.0 0.55 -11.75 1.3 -11.25 1.6 -10.65 1.6 -10.0 1.15 -9.2 1.65 -8.45 1.75 -7.45 1.7 -7.3 1.85 -7.1 1.7 -6.75 1.7 -6.7 1.5 -6.05 1.45 -5.65 1.45 -5.7 1.5 -5.75 1.5 -5.8 2.1 -6.5 2.15 -6.95 2.1 -7.6 2.5 -8.55 2.55 -9.15 2.8 -9.3 2.8 -9.4 2.85 -9.35 3.7 -10.0 4.65 -9.7 4.65 -10.55 5.05 -11.1 5.65 -11.35 6.35 -11.1 6.45 -11.25 7.4 -11.55 7.75 -10.65 7.6 -10.0 7.35 -9.7 7.9 -9.35 7.9 -7.95 7.4 -7.55 6.8 -7.35 5.85 -7.85 5.9 -7.75 5.9 -7.7 5.8 -7.35 5.7 -7.05 4.8 -6.5 4.6 -6.25 5.15 -6.6 5.15 -6.55 5.4 -6.85 6.0 -7.15 6.7 -7.3 6.35 -6.7 5.95 -6.15 5.55 -6.0 5.7 -5.65 5.8 -5.75 5.95 -5.8 5.8 -5.6 5.85 -5.6 6.4 -5.95 7.15 -6.05 7.15 -6.35 7.55 -6.9 8.4 -7.25 8.75 -6.4 8.7 -5.75 8.3 -5.2 7.7 -4.85 7.8 -4.8 7.6 -4.8 7.4 -4.7 7.4 -4.75 7.35 -4.6 6.85 -4.15 6.6 -3.55 6.6 -3.5 6.75 -3.55 6.8 -3.55 6.75 -3.55 6.55 -3.45 6.4 -3.35 6.45 -3.2 6.4 -2.55 6.1 -1.95 5.95 -1.8 5.95 -1.8 6.0 -1.8 6.5 -1.5 6.45 -1.2 6.75 -1.1 7.3 -0.5 7.1 -0.4 7.45 -0.55 7.2 -0.7 6.5 -2.0 7.2 -1.6 7.2 -2.1 7.0 -2.1 7.0 -2.8 7.0 -2.75 6.95 -2.7 7.0 -2.8 7.05 -2.85 7.05 -3.1 7.35 -3.7 7.5 -3.8 7.55 -3.9 7.6 -4.05 8.05 -4.45 7.45 -4.4 8.6 -5.3 9.25 -5.4 9.95 -5.4 8.9 -4.55 8.3 -4.45 8.25 -4.35 8.1 -4.05 8.35 -4.1 8.55 -4.15 8.35 -4.1 8.8 -4.1 8.85 -3.2 8.55 -2.6 8.0 -2.25 7.95 -2.25 7.85 -2.1 7.2 -1.55 7.75 -1.2 8.1 -0.5 8.3 -0.6 8.15 -1.1 8.25 -1.75 9.05 -2.4 9.1 -2.4 9.55 -3.75 9.6 -3.9 10.25 -4.15 10.9 -4.05 11.75 -2.65 11.35 -1.05 10.7 -0.8 10.05 -0.9 10.0 -0.95 9.95 -0.55 9.2 0.3 8.4 -0.4 8.3 -0.3 8.25 -0.25 8.35 0.0 8.3 -0.05 8.45 0.5 9.45 0.5 9.45 1.3 9.6 1.2 10.25 1.0 10.5 1.2 10.6 1.1 11.0 0.6 12.2 0.05 11.75 0.5 11.3 1.0 10.7 1.2 10.6 1.25 10.75 1.4 11.35 1.4 11.95 1.75 12.2 3.25 12.0 3.45 12.55 3.85 12.65 4.2 12.75 4.35 12.8 4.8 12.85 4.9 12.8 4.9 12.85 5.25 12.15 5.3 11.9 5.45 11.25 5.35 10.9 5.1 10.75 4.95 10.55 4.55 10.5 4.4 10.45 4.3 10.35 4.25 9.85 3.8 9.8 3.7 9.8 3.9 9.9 3.95 9.95 3.95 10.05 4.1 10.35 4.45 10.45 5.0 10.5 5.3 10.1 5.35 10.4 5.65 11.05 5.8 11.5 6.35 10.8 6.3 10.4 5.95 10.15 6.0 10.2 6.05 9.6 6.8 10.65 7.0 11.75 7.65 10.5 7.45 9.5 6.9 9.4 7.0 9.2 7.05 9.0 7.8 8.2 7.7 8.35 7.8 8.65 8.4 8.4 9.45 7.3 9.55 6.8 9.15 6.5 8.55 6.6 7.4 7.7 7.45 7.5 7.25 7.3 6.65 7.2 6.7 7.15 6.85 6.9 6.95 6.6 7.2 6.55 7.15 6.55 7.35 6.35 7.1 5.95 7.0 5.7 6.75 5.85 7.6 5.7 8.05 6.15 8.5 6.2 9.15 5.9 9.75 4.65 10.2 3.6 9.35 3.6 9.3 3.0 9.1 2.7 8.5 2.7 8.45 2.3 8.4 1.8 9.25 1.3 8.95 1.0 9.25 0.6 9.7 0.8 9.1 0.65 9.0 0.45 9.2 0.55 9.7 -0.75 10.0 -0.75 10.0 -1.2 9.85 -1.2 9.85 -1.4 10.3 -2.15 10.0 -2.4 10.85 -3.4 11.75 -4.3 10.75 -4.35 10.7 -4.4 10.7 -4.5 9.85 -4.5 9.75 -4.5 9.7 -4.55 9.7 -5.6 9.6 -5.8 8.55 -5.45 8.0 -4.9 7.65 -4.5 7.65 -4.5 7.55 -4.35 7.1 -4.25 7.0 -4.5 7.05 -4.55 7.15 -4.9 7.4 -5.5 8.0 -6.1 8.3 -6.75 8.25 -7.15 8.0 -7.8 7.95 -7.7 7.05 -7.35 6.6 -8.3 7.25 -8.95 7.15 -9.45 6.7 -9.4 5.15 -8.6 4.5 -8.8 4.35 -8.75 3.05 -9.1 3.2 -9.75 3.4 -10.4 3.25 -10.7 3.1 -10.8 3.35 -11.45 3.6 -12.1 3.5 -12.85 2.35 -12.35 1.0 -11.75 0.8 -11.1 0.85 -10.8 1.25 -10.15 1.0 -10.15 1.0 -9.85 0.45 -8.25 -0.15 -7.7 0.2 -7.4 0.8 -7.7 1.65 -7.25 1.7 -7.05 1.65 -6.5 1.85 -6.4 1.65 -6.5 1.6 -6.6 1.25 -6.7 1.2 -6.65 1.15 -6.75 1.0 -7.1 0.45 -6.65 0.9 -6.6 0.95 -6.6 0.85 -6.4 0.65 -6.15 0.45 Q-5.9 0.55 -5.65 0.65 L-5.4 0.95 -5.5 1.3 -5.7 1.5 -5.45 1.35 -5.25 1.3 -5.25 1.3 -4.95 1.2 -4.8 1.2 -4.75 1.15 -4.75 1.2 -4.7 1.15 -4.75 1.1 -4.8 1.1 -5.35 1.1 -5.15 0.95 -5.2 0.9 -5.45 0.55 -5.05 0.75 -4.95 0.85 -4.8 0.7 -4.75 0.7 -4.75 0.65 -5.65 0.2 -5.95 -0.35 -5.95 -1.0 -5.2 -1.9 -4.1 -1.5 -3.8 -0.9 -3.8 -0.25 -4.35 0.55 -4.25 0.65 -4.1 0.65 -3.55 0.3 -2.75 0.3 -2.75 0.2 -3.0 0.15 -3.6 -0.65 -2.9 -1.35 -2.25 -1.45 -1.65 -1.25 -1.3 -0.9 -1.2 -1.0 -1.3 -1.7 -2.25 -1.85 -2.2 -2.2 -2.45 -2.3 -2.4 -2.6 -2.75 -2.75 -2.65 -3.1 -2.75 -3.15 -2.7 -3.4 -2.85 -3.5 -2.85 -3.5 -2.95 -3.55 -2.85 -3.7 -3.15 -3.9 -2.45 -5.0 -3.05 -5.65 -2.35 -6.35 -2.7 -6.9 -1.55 -7.65 -1.5 -7.65 -1.5 -7.7 -1.3 -8.9 -1.25 -9.15 -1.1 -9.15 -1.05 -9.3 -0.6 -9.15 -0.55 -9.25 -0.35 -9.3 -0.1 -9.85 0.55 -9.55 M5.55 -8.7 L5.55 -8.65 5.5 -8.7 5.55 -8.7 M4.55 -6.35 L4.8 -6.5 4.55 -6.35 4.55 -6.35 M4.4 -5.95 L4.4 -6.0 4.5 -6.15 4.3 -5.6 3.85 -5.15 3.85 -5.15 3.75 -4.6 3.65 -4.4 3.6 -4.45 3.45 -4.45 3.4 -4.5 1.9 -4.75 2.0 -4.85 2.0 -5.25 2.2 -5.5 2.25 -5.7 2.8 -5.35 2.85 -5.35 3.1 -5.15 3.05 -4.9 2.8 -4.6 3.45 -5.1 3.45 -5.1 3.65 -5.4 4.15 -5.65 4.4 -5.95 4.4 -5.95 M5.65 -5.2 L5.75 -5.2 6.45 -4.8 7.0 -4.8 6.8 -4.2 6.35 -3.8 6.35 -3.9 6.25 -3.8 5.85 -4.15 6.1 -4.45 5.8 -4.2 5.7 -4.3 5.55 -4.55 5.3 -4.75 5.4 -4.85 5.65 -5.2 M6.85 -5.45 L7.1 -5.65 7.25 -5.25 6.85 -5.45 M2.65 -8.15 L2.65 -7.5 2.5 -7.25 2.7 -7.4 2.8 -7.55 3.1 -7.7 2.75 -7.85 2.65 -8.15 M1.35 -5.5 L1.1 -5.15 1.05 -4.5 1.05 -4.1 0.95 -4.15 1.0 -4.3 0.95 -4.3 1.0 -4.45 0.75 -4.45 0.85 -4.65 0.7 -4.7 0.75 -4.75 0.9 -4.85 0.8 -4.9 0.8 -4.9 0.85 -4.95 0.85 -5.0 0.8 -5.0 0.8 -5.05 0.85 -5.15 0.55 -5.25 0.9 -5.5 1.0 -5.6 0.95 -5.7 0.85 -5.75 1.05 -5.7 1.05 -5.8 1.1 -5.8 1.1 -5.9 1.2 -5.9 1.2 -6.0 1.2 -6.0 1.25 -6.0 1.25 -6.05 1.3 -6.05 1.25 -6.1 1.3 -6.15 1.3 -6.1 1.35 -5.5 M2.35 -6.9 L2.3 -6.8 2.3 -6.75 2.35 -6.9 M4.95 -0.8 L5.25 -0.5 4.8 -0.05 4.75 -0.35 4.85 -0.35 4.95 -0.8 M7.7 -0.35 L7.65 -0.4 7.75 -0.35 7.7 -0.35 M8.25 4.75 L8.4 4.85 8.2 5.05 8.1 5.0 8.15 4.8 8.2 4.8 8.25 4.75 M10.05 5.8 L10.3 5.85 10.35 5.95 10.1 5.9 10.05 5.8 M5.35 5.8 L5.55 5.7 5.5 6.35 5.35 6.15 5.4 6.05 5.35 5.95 5.4 5.95 5.35 5.8 M6.35 4.25 L6.3 3.5 6.4 3.25 6.45 3.35 6.45 3.4 6.5 3.45 6.3 3.55 6.65 4.1 6.35 4.25 M-0.25 1.9 L-0.2 1.8 -0.2 1.9 -0.25 1.9 M-2.75 0.5 L-2.75 0.5 -2.85 0.65 -3.2 0.7 -3.45 1.0 -3.55 1.05 -4.1 1.05 -4.2 1.05 -4.25 0.85 -4.1 0.75 -3.45 0.75 -2.75 0.35 -2.75 0.5 M-1.75 3.35 L-1.55 3.4 -1.55 3.4 -1.8 3.45 -1.75 3.35 M-4.4 1.5 L-4.5 1.7 -4.6 1.8 -4.65 1.55 -4.6 1.3 -4.4 1.45 -4.4 1.5 M-2.1 3.95 L-2.25 4.0 -2.5 4.25 -2.5 4.25 M-2.1 3.95 L-2.55 3.75 -2.55 3.85 M-4.5 1.25 L-4.55 1.2 -4.55 1.2 -4.5 1.25 M-4.7 1.15 L-4.75 1.1 -4.8 1.1 -4.65 1.1 -4.65 1.1 -4.6 1.15 -4.7 1.15 M-6.1 4.15 L-6.0 4.25 -6.25 4.35 -6.15 4.2 -6.1 4.15 M-5.9 4.2 L-5.8 4.05 -5.75 3.95 -5.65 4.1 -5.7 4.1 -5.8 4.05 -5.75 4.15 -5.9 4.2 M-8.5 2.65 L-8.6 2.75 -8.75 2.65 -8.5 2.6 -8.5 2.65 M-6.9 5.1 L-6.8 5.1 -7.0 5.2 -7.0 5.2 -7.0 5.2 -6.9 5.1 M-6.6 4.95 L-6.5 4.8 -6.5 4.75 -6.45 4.75 -6.3 4.45 -6.2 4.75 -6.5 4.85 -6.6 4.95 M-5.45 6.95 L-5.25 7.05 -5.25 7.05 -5.0 6.95 -5.45 6.95 M-6.5 5.6 L-7.0 5.3 -6.95 6.3 -7.2 6.5 -6.7 6.25 -6.45 6.25 -6.7 5.7 -6.5 5.6 M-10.35 2.45 L-10.3 2.55 -10.4 2.55 -10.35 2.45 Z" fill="none" stroke="#000000" stroke-linecap="round" stroke-linejoin="round" stroke-opacity="0.4509804" stroke-width="1.0"/>
  </g>
</svg>
