<?xml version="1.0" encoding="UTF-8" standalone="no"?>
<svg xmlns:xlink="http://www.w3.org/1999/xlink" height="5.4px" width="49.85px" xmlns="http://www.w3.org/2000/svg">
  <g transform="matrix(1.0, 0.0, 0.0, 1.0, 0.0, 0.0)">
    <path d="M49.55 3.35 Q49.95 3.8 49.8 4.45 49.6 5.1 49.0 5.25 L47.85 5.25 46.7 5.25 46.75 4.3 47.8 4.3 48.85 4.25 49.0 3.95 47.95 3.95 Q47.3 3.9 47.05 3.55 46.6 3.1 46.75 2.4 46.95 1.75 47.55 1.55 L48.55 1.5 49.6 1.5 49.6 2.5 48.65 2.45 47.75 2.5 Q47.6 2.6 47.6 2.75 47.6 2.9 47.75 2.95 48.05 3.0 48.75 2.95 49.3 3.0 49.55 3.35 M46.5 1.5 L46.5 2.5 45.7 2.5 Q45.2 2.6 45.15 3.0 45.05 3.45 45.1 4.1 L45.1 5.25 44.2 5.25 Q44.2 2.9 44.25 1.75 L44.3 1.4 44.7 1.9 Q45.3 1.45 46.5 1.5 M41.55 3.75 Q41.8 3.5 42.1 3.1 L42.6 2.35 42.2 2.4 Q41.95 2.45 41.8 2.55 41.6 2.75 41.55 3.1 L41.55 3.75 M42.85 1.45 Q43.45 1.65 43.8 2.2 L42.15 4.4 Q42.7 4.45 43.15 3.85 L43.5 4.2 Q43.75 4.4 43.75 4.6 43.4 5.1 42.8 5.3 42.2 5.5 41.65 5.2 40.6 4.7 40.6 3.35 40.6 2.0 41.65 1.5 42.25 1.25 42.85 1.45 M12.95 2.45 L12.6 1.6 12.6 1.55 13.85 1.5 13.85 2.5 12.95 2.45 M4.8 3.35 Q4.8 4.05 5.35 4.3 5.7 4.5 6.1 4.25 6.45 4.0 6.5 3.6 6.6 3.1 6.25 2.65 5.85 2.2 5.35 2.4 4.8 2.65 4.8 3.35 M4.1 2.35 Q4.45 1.7 5.05 1.5 5.75 1.15 6.5 1.6 7.2 2.05 7.35 2.8 7.55 3.65 7.1 4.45 6.65 5.25 5.8 5.35 5.05 5.4 4.5 4.85 3.95 4.3 3.9 3.55 3.8 2.9 4.1 2.35 M2.8 1.35 Q2.75 0.6 2.75 0.25 L3.7 0.25 3.7 1.55 Q3.7 2.3 3.45 2.8 3.2 3.3 2.35 3.75 L2.35 5.25 1.4 5.25 1.4 3.75 0.8 3.4 Q0.5 3.15 0.35 2.9 0.0 2.4 0.0 1.6 L0.0 0.25 0.95 0.25 0.95 1.2 Q0.95 1.8 1.05 2.2 1.2 2.65 1.75 2.75 2.3 2.8 2.6 2.35 2.8 2.0 2.8 1.35" fill="#e8aa51" fill-rule="evenodd" stroke="none"/>
    <path d="M38.95 1.5 L40.3 1.5 40.25 2.5 38.95 2.5 38.95 3.4 Q38.95 3.95 39.3 4.2 L39.75 4.3 40.25 4.3 40.3 5.25 39.35 5.25 Q38.85 5.15 38.55 4.8 38.15 4.4 38.1 3.75 L38.05 2.55 37.45 2.35 36.9 2.95 36.5 2.5 Q36.2 2.3 35.95 2.35 35.3 2.55 35.25 3.3 35.2 4.1 35.8 4.3 36.1 4.45 36.4 4.3 L36.9 3.85 37.55 4.55 Q37.15 5.0 36.7 5.25 36.15 5.45 35.6 5.3 34.85 5.1 34.5 4.3 34.15 3.55 34.4 2.8 34.55 2.15 35.1 1.7 35.7 1.25 36.35 1.4 36.75 1.45 37.1 1.75 37.35 1.95 37.65 2.4 L37.65 1.5 38.05 1.5 38.1 0.0 38.95 0.0 38.95 1.5 M32.65 4.1 Q33.0 3.7 32.95 3.3 32.95 2.85 32.6 2.55 32.2 2.25 31.8 2.4 31.2 2.65 31.25 3.45 31.3 4.2 31.9 4.35 32.35 4.45 32.65 4.1 M33.3 1.9 Q33.55 1.6 33.85 1.4 L33.85 5.3 Q33.65 5.25 33.5 5.1 L33.3 4.8 Q32.35 5.55 31.6 5.3 30.85 5.1 30.5 4.3 30.2 3.6 30.4 2.8 30.5 2.25 30.95 1.85 31.35 1.4 31.95 1.35 32.3 1.35 32.65 1.5 L33.3 1.9 M30.2 1.5 L30.2 2.5 29.4 2.5 Q28.95 2.6 28.85 3.0 28.75 3.4 28.8 4.1 L28.8 5.25 27.95 5.25 Q27.9 2.7 27.95 1.45 28.2 1.65 28.4 1.9 29.0 1.45 30.2 1.5 M26.3 3.15 Q26.25 2.75 25.9 2.5 25.55 2.25 25.2 2.4 24.5 2.65 24.6 3.5 24.75 4.35 25.45 4.4 25.9 4.35 26.15 3.95 26.4 3.55 26.3 3.15 M26.7 1.9 Q26.95 1.6 27.25 1.4 27.25 2.7 27.25 5.3 27.05 5.3 26.9 5.1 L26.65 4.8 Q25.8 5.6 25.0 5.3 24.3 5.1 23.95 4.4 23.6 3.75 23.75 3.0 23.85 2.35 24.25 1.9 24.7 1.4 25.3 1.4 25.65 1.3 26.05 1.5 L26.7 1.9 M21.15 0.0 L21.15 1.65 Q21.75 1.25 22.45 1.6 23.15 1.95 23.25 2.65 L23.3 3.95 23.3 5.25 22.4 5.25 22.4 3.1 Q22.45 2.85 22.25 2.65 22.05 2.4 21.75 2.45 21.5 2.45 21.35 2.65 21.15 2.85 21.15 3.1 21.1 3.85 21.15 5.25 L20.25 5.25 20.25 0.0 21.15 0.0 M19.85 0.8 L19.35 1.65 Q18.95 1.25 18.35 1.2 17.75 1.2 17.35 1.6 16.7 2.15 16.85 3.1 17.05 4.0 17.8 4.3 L18.65 4.3 19.4 3.9 19.85 4.8 Q19.25 5.25 18.65 5.35 17.95 5.5 17.35 5.2 16.35 4.75 16.0 3.5 15.7 2.3 16.3 1.35 16.55 0.9 17.0 0.6 17.4 0.3 17.95 0.2 18.4 0.1 18.95 0.3 19.4 0.45 19.85 0.8 M12.6 1.6 L12.95 2.45 Q12.7 2.6 12.6 2.75 12.45 2.9 12.4 3.1 12.4 3.55 12.4 4.2 L12.4 5.25 11.55 5.25 11.55 3.35 Q11.55 2.15 11.55 1.4 11.8 1.6 12.0 1.9 12.3 1.75 12.6 1.6 M10.0 2.7 L10.0 1.5 10.9 1.5 10.9 5.35 Q10.65 5.2 10.4 4.9 L9.75 5.25 9.05 5.3 Q8.55 5.2 8.2 4.8 7.9 4.4 7.85 3.9 7.8 3.45 7.8 2.7 L7.85 1.5 8.7 1.5 8.7 2.75 Q8.7 3.5 8.8 3.95 8.9 4.4 9.4 4.35 9.85 4.3 9.95 3.9 L10.0 2.7" fill="#fac766" fill-rule="evenodd" stroke="none"/>
  </g>
</svg>
