<?xml version="1.0" encoding="UTF-8" standalone="no"?>
<svg xmlns:xlink="http://www.w3.org/1999/xlink" height="20.0px" width="21.8px" xmlns="http://www.w3.org/2000/svg">
  <g transform="matrix(1.0, 0.0, 0.0, 1.0, 10.9, 10.0)">
    <path d="M4.7 -6.25 L4.7 -6.2 4.75 -5.9 4.7 -5.9 4.3 -5.9 4.4 -6.05 4.7 -6.25 M5.35 -5.1 L6.05 -5.2 6.5 -5.55 6.2 -4.6 6.2 -4.55 6.15 -4.45 5.6 -4.1 5.25 -4.1 5.35 -4.35 5.0 -4.6 5.1 -4.65 5.35 -5.1 M1.3 4.15 L1.35 4.1 1.5 4.15 1.3 4.15 M1.8 4.15 L1.95 4.1 2.35 4.3 2.8 4.7 2.4 4.65 2.35 4.65 1.85 4.25 1.8 4.2 1.75 4.2 1.8 4.15" fill="#1b2813" fill-rule="evenodd" stroke="none"/>
    <path d="M4.75 -5.9 L4.7 -6.2 4.7 -6.25 4.95 -6.8 5.45 -7.2 6.5 -7.25 6.8 -6.2 6.55 -5.6 6.5 -5.55 6.05 -5.2 5.35 -5.1 5.5 -5.5 4.75 -5.9 M1.85 -0.45 L1.95 -0.45 1.9 -0.4 1.85 -0.45 M4.75 3.15 L5.05 3.1 5.65 3.35 6.25 3.8 5.6 4.2 5.0 4.25 4.95 4.25 4.75 4.2 4.3 4.05 4.05 3.85 3.95 3.8 4.1 3.65 4.25 3.25 4.4 3.2 4.65 3.8 5.25 4.15 5.1 3.45 4.75 3.15" fill="#324922" fill-rule="evenodd" stroke="none"/>
    <path d="M4.3 -5.9 L4.7 -5.9 4.75 -5.9 5.5 -5.5 5.35 -5.1 5.1 -4.65 5.0 -4.6 4.6 -4.35 4.55 -4.35 3.9 -4.3 3.75 -4.35 3.4 -4.5 3.35 -4.5 3.6 -4.6 2.95 -4.7 3.1 -4.95 3.5 -5.55 3.95 -5.8 4.05 -5.9 4.3 -5.9" fill="#314822" fill-rule="evenodd" stroke="none"/>
    <path d="M3.55 -5.65 L3.7 -6.3 4.25 -6.75 4.2 -6.1 3.95 -5.8 3.5 -5.55 3.1 -4.95 3.15 -5.15 3.55 -5.65 M3.15 -4.5 L3.0 -4.35 3.05 -4.45 3.15 -4.5 M7.7 2.55 L7.6 2.65 8.15 2.45 8.35 2.45 8.45 2.45 8.4 2.5 7.7 2.85 7.5 2.9 7.15 3.45 6.85 3.25 6.85 2.9 7.0 2.9 6.85 2.85 6.85 2.7 6.8 2.65 7.15 2.5 7.85 2.45 7.7 2.55 M6.85 3.4 L7.1 3.5 6.85 3.9 6.85 3.4 M1.15 5.1 L1.05 5.35 0.65 6.35 -0.05 7.0 -0.85 7.25 -1.0 7.3 -1.05 7.3 -1.15 7.25 -1.45 7.15 -1.8 7.1 -2.35 6.9 -2.15 6.3 -2.25 6.75 -0.9 7.05 0.05 6.75 0.7 6.05 0.95 5.4 1.15 5.1 M-2.15 6.3 L-2.15 6.3 M-2.65 3.75 L-2.65 3.75 -1.95 4.6 -1.7 4.7 -1.9 4.8 -2.0 4.75 -2.15 4.55 -2.25 4.5 -2.85 3.95 -2.65 3.75" fill="#243519" fill-rule="evenodd" stroke="none"/>
    <path d="M-1.05 -8.55 L-1.1 -8.75 -0.9 -9.4 -0.35 -10.0 0.05 -9.3 0.2 -8.7 0.05 -8.35 -0.8 -8.6 -1.0 -8.5 -1.05 -8.55 M2.95 -1.25 L3.05 -1.25 2.95 -1.25 2.95 -1.25" fill="#375026" fill-rule="evenodd" stroke="none"/>
    <path d="M0.05 -8.35 L0.1 -8.35 0.2 -8.3 0.4 -8.25 0.4 -8.2 0.55 -7.5 0.45 -7.4 -0.2 -7.2 -0.75 -6.55 0.05 -6.7 -0.35 -6.2 -1.1 -6.3 -1.2 -6.3 -1.5 -6.35 -1.6 -6.4 -1.65 -6.7 -1.65 -6.75 -1.65 -6.75 -1.75 -7.7 -1.4 -8.25 -1.0 -8.5 -0.8 -8.6 0.05 -8.35 M0.25 -6.85 L0.55 -7.15 0.6 -7.2 0.65 -7.05 0.5 -6.8 0.3 -6.5 0.15 -6.4 0.25 -6.85 M1.8 4.2 L1.85 4.25 2.35 4.65 2.4 4.65 2.4 4.7 2.15 4.65 2.05 4.9 1.65 4.5 1.8 4.2 M2.95 4.95 L3.0 4.95 3.7 5.1 3.65 4.85 3.7 5.1 3.75 5.3 3.4 5.55 3.35 5.55 3.25 5.45 3.3 5.4 3.05 5.1 3.0 5.1 3.0 5.05 2.95 4.95" fill="#253619" fill-rule="evenodd" stroke="none"/>
    <path d="M0.1 -8.35 L0.15 -8.35 0.2 -8.3 0.1 -8.35 M0.4 -8.2 L1.0 -7.85 0.9 -7.85 0.55 -7.5 0.4 -8.2 M1.4 -7.65 L1.4 -7.65 1.5 -7.15 1.55 -7.0 1.35 -6.35 1.1 -6.25 0.5 -6.8 0.65 -7.05 0.6 -7.2 1.2 -7.35 1.4 -7.65 M7.15 1.0 L7.15 1.05 7.0 1.4 7.0 1.45 6.95 1.45 6.9 1.55 6.65 1.45 6.55 1.5 6.65 1.2 7.0 1.15 7.15 1.0" fill="#293c1c" fill-rule="evenodd" stroke="none"/>
    <path d="M1.0 -7.85 L1.6 -7.95 1.4 -7.65 1.2 -7.35 0.6 -7.2 0.55 -7.15 0.25 -6.85 0.3 -7.0 0.05 -6.7 -0.75 -6.55 -0.2 -7.2 0.45 -7.4 0.55 -7.5 0.9 -7.85 1.0 -7.85 M2.55 -1.65 L2.55 -1.65 2.5 -1.65 2.55 -1.65 M2.65 -1.6 L3.15 -1.7 3.1 -1.55 2.65 -1.6 M2.9 -1.2 L3.1 -1.5 3.05 -1.45 2.95 -1.25 2.95 -1.25 3.05 -1.25 2.95 -1.2 2.9 -1.2 M-4.05 4.25 L-4.05 4.1 -3.6 4.1 -3.5 4.05 -4.0 4.4 -4.05 4.25" fill="#1d2b14" fill-rule="evenodd" stroke="none"/>
    <path d="M1.5 -7.15 L1.65 -7.2 2.3 -7.1 3.1 -5.95 3.05 -5.8 2.85 -5.3 2.7 -5.2 2.1 -4.9 2.0 -4.75 1.95 -4.75 1.85 -5.3 1.55 -5.5 1.55 -5.85 1.1 -6.25 1.35 -6.35 1.55 -7.0 1.5 -7.15 M2.5 -4.8 L2.75 -5.15 2.8 -5.2 2.65 -4.75 2.5 -4.8 M-2.35 2.1 L-2.35 2.15 -2.15 2.15 -2.25 2.8 -2.1 2.85 -2.7 3.3 -2.6 3.4 -2.75 3.45 -2.7 3.5 -2.8 3.55 -2.65 3.75 -2.65 3.75 -2.7 3.75 -2.7 3.75 -2.85 3.75 -3.5 3.7 -4.0 3.65 -4.0 3.55 -3.95 3.45 -3.9 3.3 -3.85 3.2 -3.5 2.2 -3.45 2.15 -2.8 2.25 -2.35 2.1 M-2.95 -1.55 L-2.75 -1.45 -2.95 -1.2 -3.05 -1.35 -3.05 -1.35 -3.0 -1.15 -3.05 -1.15 -3.1 -1.4 -3.1 -1.45 -3.05 -1.65 -2.95 -1.55 M-2.65 3.75 L-2.65 3.75" fill="#354d24" fill-rule="evenodd" stroke="none"/>
    <path d="M0.05 -6.7 L0.3 -7.0 0.25 -6.85 0.15 -6.4 0.1 -6.0 0.05 -5.85 0.0 -5.7 -0.85 -4.5 -0.6 -5.55 -0.6 -5.6 -0.55 -5.8 -0.5 -5.95 -0.35 -6.2 0.05 -6.7" fill="#527738" fill-rule="evenodd" stroke="none"/>
    <path d="M1.1 -6.25 L1.55 -5.85 1.55 -5.5 0.5 -6.15 0.1 -6.0 0.15 -6.4 0.3 -6.5 0.5 -6.8 1.1 -6.25 M2.15 -4.1 L2.55 -4.15 2.8 -4.05 2.85 -4.05 2.35 -3.95 2.2 -3.85 2.1 -3.85 1.9 -3.95 1.7 -4.0 1.8 -4.05 1.8 -4.1 2.05 -4.1 2.1 -4.1 2.15 -4.1 M3.35 -3.8 L3.2 -3.9 3.35 -3.8 M8.8 2.05 L8.85 1.95 9.05 1.95 8.9 2.05 8.8 2.1 8.75 2.1 8.8 2.05 M9.85 3.6 L9.95 3.7 9.8 4.85 9.0 5.05 8.75 5.1 8.15 4.8 7.8 4.25 7.75 3.2 7.85 3.15 8.05 3.0 8.3 2.95 8.1 3.2 9.05 3.65 9.75 3.65 9.85 3.6 M8.3 2.4 L8.15 2.45 7.6 2.65 7.7 2.55 8.0 2.45 8.05 2.35 8.15 2.25 8.25 2.2 8.75 2.1 8.35 2.4 8.3 2.4 M-1.1 -6.25 L-1.1 -6.3 -0.35 -6.2 -0.5 -5.95 -0.55 -5.8 -0.7 -5.8 -1.3 -5.5 -1.3 -5.95 -1.1 -6.25" fill="#293b1c" fill-rule="evenodd" stroke="none"/>
    <path d="M3.1 -4.95 L2.95 -4.7 2.65 -4.75 2.8 -5.2 3.25 -5.55 2.85 -5.3 3.05 -5.8 3.45 -5.9 3.55 -5.65 3.15 -5.15 3.1 -4.95 M3.4 -4.5 L3.75 -4.35 3.6 -4.2 3.15 -4.25 3.2 -4.35 3.4 -4.5 M1.55 -5.5 L1.85 -5.3 1.95 -4.75 1.95 -4.7 1.8 -5.3 0.45 -6.0 0.05 -5.85 0.1 -6.0 0.5 -6.15 1.55 -5.5 M3.25 -4.5 L3.15 -4.35 3.1 -4.25 2.8 -4.3 2.8 -4.05 2.55 -4.15 2.15 -4.1 2.1 -4.35 2.3 -4.3 3.05 -4.45 3.0 -4.35 3.15 -4.5 3.25 -4.5 M2.15 -3.8 L1.8 -3.55 1.75 -3.35 1.7 -3.3 1.65 -3.25 1.65 -3.35 1.5 -3.9 1.7 -4.0 1.9 -3.95 2.1 -3.85 2.15 -3.8 M3.15 -1.7 L3.25 -1.7 3.8 -2.1 3.8 -2.1 4.0 -2.2 4.1 -2.2 4.45 -2.15 4.65 -2.1 4.75 -2.1 5.3 -1.9 5.1 -1.75 5.05 -1.7 4.9 -1.6 4.9 -1.6 4.7 -1.5 4.5 -1.4 4.2 -1.3 4.15 -1.3 4.1 -1.3 4.1 -1.3 4.0 -1.3 3.95 -1.3 3.8 -1.3 3.65 -1.35 3.45 -1.35 3.05 -1.45 3.1 -1.5 3.1 -1.55 3.15 -1.7 M2.05 -4.35 L2.05 -4.15 2.05 -4.1 1.8 -4.1 1.85 -4.35 2.0 -4.35 2.05 -4.35 M1.9 -4.4 L1.95 -4.4 1.9 -4.4 1.9 -4.4 M1.4 0.35 L1.35 0.4 1.25 0.55 1.2 0.4 1.4 0.35" fill="#1e2b14" fill-rule="evenodd" stroke="none"/>
    <path d="M-0.6 -5.55 L-0.85 -4.5 0.0 -5.7 0.05 -5.85 0.45 -6.0 1.8 -5.3 1.95 -4.7 1.95 -4.7 1.9 -4.4 1.9 -4.4 1.85 -4.35 1.8 -4.1 1.8 -4.05 1.7 -4.0 1.5 -3.9 1.45 -4.0 0.55 -4.6 -0.3 -3.9 -0.3 -3.7 -0.5 -3.8 -0.55 -3.85 -0.95 -4.1 -1.0 -4.1 -1.05 -4.25 -1.1 -4.5 -1.15 -4.75 -1.15 -4.8 -1.0 -5.4 -0.85 -5.45 -0.6 -5.55 -0.6 -5.55 M1.6 -2.8 L1.65 -2.7 1.5 -2.25 1.45 -2.3 1.6 -2.8" fill="#2f4420" fill-rule="evenodd" stroke="none"/>
    <path d="M2.0 -4.75 L2.1 -4.9 2.7 -5.2 2.85 -5.3 3.25 -5.55 2.8 -5.2 2.75 -5.15 2.5 -4.8 2.3 -4.8 2.0 -4.75 M2.8 -4.05 L2.8 -4.3 3.1 -4.25 3.15 -4.25 3.6 -4.2 3.85 -4.2 4.4 -3.85 4.45 -3.75 4.5 -3.6 4.55 -3.55 4.7 -3.25 4.7 -3.25 4.7 -3.15 4.7 -2.7 4.65 -2.35 4.35 -2.35 4.15 -2.35 3.9 -2.35 3.85 -2.35 4.0 -3.3 3.35 -3.8 3.2 -3.9 3.0 -4.05 2.85 -4.05 2.8 -4.05 M1.9 -4.4 L1.9 -4.4 1.9 -4.4 1.9 -4.4 1.9 -4.4 M0.75 -0.6 L0.9 -0.45 0.75 -0.3 0.7 -0.25 0.65 -0.35 0.7 -0.5 0.7 -0.55 0.75 -0.6 M4.5 -1.4 L4.7 -1.5 4.9 -1.6 4.7 -1.45 4.65 -1.4 4.5 -1.4 M8.35 2.85 L8.75 2.35 9.3 2.05 9.95 2.0 10.75 2.55 10.3 3.35 9.85 3.6 9.75 3.65 9.05 3.65 8.1 3.2 8.3 2.95 8.6 2.95 8.35 2.85 M-4.1 4.9 L-4.4 4.65 -4.35 4.65 -4.3 4.6 -4.3 4.6 -4.25 4.55 -4.0 4.4 -4.0 4.4 -3.5 4.05 -3.4 4.0 -3.35 4.0 -3.1 3.8 -2.85 3.75 -2.7 3.75 -2.65 3.75 -2.65 3.75 -2.85 3.95 -2.25 4.5 -2.55 5.1 -2.55 5.05 -2.75 5.55 -2.95 5.4 -3.0 5.35 -3.1 5.3 -3.2 5.2 -3.95 5.05 -4.1 4.9 M-4.25 2.6 L-4.25 2.75 -4.35 2.75 -4.25 2.6 M-4.45 2.7 L-5.45 2.5 -5.4 2.4 -5.3 2.45 -5.2 2.25 -5.0 2.35 -4.9 2.5 -4.85 2.5 -4.8 2.5 -4.8 2.55 -4.75 2.55 -4.65 2.6 -4.6 2.55 -4.45 2.7 M-10.1 1.7 L-10.15 1.7 -10.1 1.65 -10.05 0.95 -10.05 0.6 -10.0 0.35 -9.45 -0.45 -9.15 -0.6 -9.1 -0.5 -9.6 0.0 -9.95 0.95 -9.75 1.75 -10.1 1.7 M-10.1 1.65 L-10.1 1.65 M-2.15 -5.2 L-1.9 -5.55 -1.95 -5.25 -1.4 -5.5 -1.4 -5.5 -1.3 -5.5 -1.6 -5.3 -1.95 -5.0 -1.95 -5.25 -2.0 -5.25 -2.25 -5.05 -2.25 -5.05 -2.15 -5.2 M-2.35 -4.95 L-2.3 -5.0 -2.3 -4.95 -2.35 -4.95 M-3.2 5.75 L-3.3 5.7 -3.5 5.5 -3.35 5.55 -3.2 5.75" fill="#233318" fill-rule="evenodd" stroke="none"/>
    <path d="M3.35 -4.5 L3.4 -4.5 3.2 -4.35 3.15 -4.25 3.1 -4.25 3.15 -4.35 3.25 -4.5 3.35 -4.5 M-0.35 -3.65 L-0.35 -3.4 -0.45 -3.45 -0.45 -3.5 -0.35 -3.65 M-4.8 -1.55 L-4.95 -1.65 -5.05 -1.75 -5.4 -2.1 -4.95 -1.8 -4.85 -1.75 -4.7 -1.55 -4.8 -1.55 M5.0 4.25 L5.3 4.45 4.95 4.3 4.9 4.3 4.75 4.2 4.95 4.25 5.0 4.25 M5.75 4.7 L5.85 4.65 6.1 4.8 5.75 4.7 M-1.4 -5.5 L-1.4 -5.55 -1.55 -5.7 -1.45 -6.05 -1.5 -6.35 -1.2 -6.3 -1.1 -6.25 -1.3 -5.95 -1.3 -5.5 -1.4 -5.5 -1.4 -5.5 M-1.3 -5.5 L-1.3 -5.5 M-3.75 -0.75 L-3.75 -0.9 -3.7 -0.9 -3.35 -0.6 -3.4 -0.55 -3.75 -0.75" fill="#253519" fill-rule="evenodd" stroke="none"/>
    <path d="M2.95 -4.7 L3.6 -4.6 3.35 -4.5 3.25 -4.5 3.15 -4.5 3.05 -4.45 2.3 -4.3 2.1 -4.35 2.05 -4.35 2.0 -4.35 1.95 -4.4 1.9 -4.4 1.95 -4.7 1.95 -4.7 1.95 -4.75 2.0 -4.75 2.3 -4.8 2.5 -4.8 2.65 -4.75 2.95 -4.7 M1.9 -4.4 L1.9 -4.4 M-1.75 -6.7 L-1.7 -6.9 -1.65 -6.75 -1.7 -6.7 -1.75 -6.7 M-1.65 -6.75 L-1.65 -6.75" fill="#3d582a" fill-rule="evenodd" stroke="none"/>
    <path d="M3.2 -3.9 L3.35 -3.8 4.0 -3.3 3.85 -2.35 3.8 -2.25 3.8 -2.1 3.8 -2.1 3.25 -1.7 3.15 -1.7 2.65 -1.6 2.6 -1.6 2.55 -1.65 2.45 -1.7 1.85 -2.05 1.85 -2.1 1.8 -2.1 1.5 -2.25 1.65 -2.7 1.6 -2.8 1.75 -3.35 1.8 -3.55 2.15 -3.8 2.2 -3.85 2.35 -3.95 2.85 -4.05 3.0 -4.05 3.2 -3.9 M2.55 -1.65 L2.55 -1.65 M-4.45 -3.9 L-4.4 -3.95 -4.3 -3.95 -3.65 -3.8 -3.55 -3.8 -3.6 -3.25 -3.6 -2.55 -3.25 -1.9 -3.2 -1.8 -3.35 -1.65 -3.65 -2.0 -3.85 -2.1 -4.1 -2.45 -4.4 -2.6 -4.4 -3.0 -4.5 -3.4 -4.45 -3.65 -4.45 -3.9 M-5.05 -2.45 L-4.95 -2.5 -4.4 -2.1 -4.4 -2.55 -4.2 -2.3 -3.85 -2.1 -3.7 -1.9 -3.4 -1.65 -3.45 -1.55 -3.35 -1.6 -3.3 -1.55 -3.45 -1.4 -3.75 -1.5 -3.75 -1.6 -4.0 -1.6 -4.65 -1.8 -4.7 -1.8 -4.75 -1.9 -5.05 -2.35 -5.05 -2.4 -5.05 -2.45 M-3.25 -1.7 L-3.3 -1.6 -3.3 -1.65 -3.25 -1.7" fill="#27381a" fill-rule="evenodd" stroke="none"/>
    <path d="M3.75 -4.35 L3.9 -4.3 4.55 -4.35 4.6 -4.35 4.95 -4.1 4.95 -4.05 4.7 -3.95 4.75 -3.95 4.95 -3.85 4.95 -3.6 4.45 -3.75 4.4 -3.85 3.85 -4.2 3.6 -4.2 3.75 -4.35 M2.45 -1.7 L2.55 -1.65 2.5 -1.65 2.4 -1.65 2.45 -1.7 M2.6 -0.85 L2.65 -0.9 2.9 -1.2 2.95 -1.2 3.05 -1.25 3.55 -1.25 3.55 -1.2 3.4 -1.15 3.1 -0.95 3.05 -0.95 3.0 -0.9 2.9 -0.95 2.6 -0.85 M4.1 -2.2 L4.1 -2.2 4.35 -2.35 4.65 -2.35 4.7 -2.7 4.85 -2.75 4.95 -2.75 4.95 -2.5 4.85 -2.45 4.65 -2.4 4.8 -2.4 4.45 -2.15 4.1 -2.2 M-4.45 2.75 L-4.45 2.75 -4.45 2.75 M-6.6 -6.25 L-6.7 -6.65 -6.05 -7.6 -4.9 -7.4 -4.5 -6.85 -4.4 -6.2 -4.5 -6.0 -5.0 -5.1 -6.2 -5.45 -6.6 -6.0 -6.6 -6.25" fill="#202f16" fill-rule="evenodd" stroke="none"/>
    <path d="M2.1 -4.35 L2.15 -4.1 2.1 -4.1 2.1 -4.15 2.05 -4.15 2.05 -4.15 2.05 -4.35 2.1 -4.35" fill="#1a2712" fill-rule="evenodd" stroke="none"/>
    <path d="M2.05 -4.15 L2.05 -4.15 2.1 -4.15 2.1 -4.1 2.05 -4.1 2.05 -4.15" fill="#3c4226" fill-rule="evenodd" stroke="none"/>
    <path d="M2.2 -3.85 L2.15 -3.8 2.1 -3.85 2.2 -3.85 M1.75 -3.35 L1.6 -2.8 1.45 -2.3 1.5 -2.25 1.8 -2.1 1.35 -1.8 1.1 -2.25 1.1 -2.25 1.55 -2.7 1.65 -3.25 1.7 -3.3 1.75 -3.35 M1.85 -2.05 L2.45 -1.7 2.4 -1.65 2.35 -1.7 1.75 -1.6 1.6 -1.65 1.85 -2.05 M-0.35 -3.4 L-0.25 -3.35 0.4 -2.6 0.6 -2.0 0.75 -1.4 0.8 -1.25 0.8 -1.15 0.8 -1.1 0.75 -1.1 0.1 -1.1 -0.6 -1.5 -1.6 -1.6 -1.75 -1.55 -2.15 -2.0 -2.3 -2.15 -2.3 -2.4 -2.5 -3.5 -1.8 -3.6 -1.3 -3.7 -1.15 -3.7 -0.6 -3.5 -0.6 -3.5 -0.55 -3.45 -0.45 -3.45 -0.35 -3.4 M8.05 3.0 L7.85 3.15 7.75 3.2 7.75 3.05 8.05 3.0 M1.25 0.75 L1.25 0.6 1.3 0.6 1.25 0.75" fill="#2d421f" fill-rule="evenodd" stroke="none"/>
    <path d="M1.95 -4.4 L2.0 -4.35 1.85 -4.35 1.9 -4.4 1.9 -4.4 1.95 -4.4" fill="#2c3f1e" fill-rule="evenodd" stroke="none"/>
    <path d="M-0.3 -3.7 L-0.3 -3.9 0.55 -4.6 1.45 -4.0 1.5 -3.9 1.65 -3.35 1.65 -3.25 1.55 -2.7 1.1 -2.25 0.7 -1.85 0.6 -2.0 0.4 -2.6 -0.25 -3.35 -0.35 -3.4 -0.35 -3.65 -0.3 -3.7 M-6.85 -4.2 L-7.1 -4.3 -7.3 -4.6 -6.95 -4.45 -6.8 -4.25 -6.85 -4.25 -6.85 -4.2 -6.85 -4.2 M-4.65 -4.85 L-4.35 -4.55 -4.45 -3.9 -4.45 -3.65 -4.75 -4.05 -4.95 -4.8 -5.0 -4.8 -5.0 -4.95 -4.95 -5.05 -4.8 -5.0 -4.65 -4.85 M5.3 4.45 L5.65 4.7 5.7 4.7 6.1 5.1 6.05 5.15 5.4 5.0 5.7 5.3 5.4 5.45 4.8 5.5 4.75 5.5 4.5 5.4 4.1 4.85 4.2 5.25 3.95 5.1 3.65 4.85 3.55 4.65 4.0 4.5 4.15 4.4 4.45 4.5 5.0 4.5 4.7 4.35 4.9 4.3 4.95 4.3 5.3 4.45" fill="#243418" fill-rule="evenodd" stroke="none"/>
    <path d="M1.8 -2.1 L1.85 -2.1 1.85 -2.05 1.6 -1.65 1.55 -1.45 1.4 -1.25 1.35 -1.1 1.35 -1.1 1.25 -0.95 1.2 -0.9 1.2 -0.9 0.75 -0.6 0.7 -0.55 0.7 -0.6 0.55 -0.55 0.7 -0.75 0.5 -0.85 0.75 -1.1 0.8 -1.1 0.8 -1.15 0.85 -1.2 0.8 -1.25 0.75 -1.4 1.35 -1.8 1.8 -2.1 M-8.15 2.45 L-9.25 2.55 -9.3 2.2 -8.5 2.05 -8.15 2.45 M6.6 -3.35 L6.65 -3.35 6.7 -3.3 6.6 -3.35 M-7.6 2.15 L-7.65 2.05 -7.45 2.05 -7.6 2.15" fill="#375126" fill-rule="evenodd" stroke="none"/>
    <path d="M0.6 -2.0 L0.7 -1.85 1.1 -2.25 1.1 -2.25 1.35 -1.8 0.75 -1.4 0.6 -2.0 M1.4 -1.25 L1.4 -1.0 0.9 -0.45 0.75 -0.6 1.2 -0.9 1.2 -0.9 1.25 -0.95 1.35 -1.1 1.35 -1.1 1.4 -1.25 M8.65 0.25 L8.95 0.2 9.55 -0.05 8.95 0.25 8.45 0.65 7.8 0.75 7.15 1.05 7.8 0.75 8.3 0.3 8.65 0.25 M7.75 5.85 L8.0 6.15 8.15 6.8 7.1 8.0 5.55 8.05 5.1 7.5 5.0 7.0 5.0 6.85 5.15 6.7 5.6 6.05 5.8 6.05 5.9 6.1 5.95 6.05 5.8 6.05 5.65 6.0 5.9 5.6 6.35 6.15 7.65 6.5 7.3 5.9 7.0 5.6 7.3 5.65 7.3 5.7 7.75 5.85 M1.75 3.95 L1.8 4.05 1.95 4.1 1.8 4.15 1.55 4.2 1.5 4.15 1.35 4.1 1.3 4.15 1.3 4.2 0.75 4.0 0.6 4.0 0.65 4.0 0.75 4.0 0.95 3.95 1.4 3.85 1.75 3.95" fill="#304621" fill-rule="evenodd" stroke="none"/>
    <path d="M1.55 -1.45 L1.6 -1.65 1.75 -1.6 1.7 -1.6 1.55 -1.45 M1.35 0.7 L1.4 0.65 1.45 0.75 1.3 0.75 1.35 0.7 M1.55 1.2 L1.55 1.25 1.75 2.15 1.55 3.15 1.35 3.35 1.2 3.55 1.1 3.7 1.55 3.0 1.7 2.0 1.5 1.35 1.5 1.2 1.55 1.2 M0.25 1.25 L-0.1 1.75 -0.5 1.95 0.0 1.35 0.25 1.25 M0.85 3.9 L0.65 4.0 0.6 4.0 0.4 4.05 1.0 3.8 0.9 3.9 0.85 3.9" fill="#283a1b" fill-rule="evenodd" stroke="none"/>
    <path d="M2.55 -1.65 L2.6 -1.6 2.65 -1.6 3.1 -1.55 3.1 -1.5 2.9 -1.2 2.65 -0.9 2.6 -0.85 2.15 -0.5 2.15 -0.5 1.95 -0.45 1.85 -0.45 1.8 -0.45 1.5 -0.4 1.0 -0.45 0.9 -0.45 1.4 -1.0 1.4 -1.25 1.55 -1.45 1.7 -1.6 1.75 -1.6 2.35 -1.7 2.4 -1.65 2.5 -1.65 2.55 -1.65 M-6.65 -1.2 L-6.55 -1.4 -5.9 -1.1 -5.95 -1.05 -5.95 -1.0 -6.0 -1.05 -6.2 -1.25 -6.3 -1.1 -6.35 -1.15 -6.65 -1.2 M1.5 5.35 L1.55 5.35 1.55 5.45 1.5 5.7 1.45 5.6 1.5 5.35 M-6.3 -1.1 L-6.3 -1.1 M-5.2 2.15 L-5.15 2.15 -5.2 2.25 -5.3 2.45 -5.4 2.4 -5.2 2.15" fill="#2b3f1e" fill-rule="evenodd" stroke="none"/>
    <path d="M0.8 -1.15 L0.8 -1.25 0.85 -1.2 0.8 -1.15 M0.1 -1.1 L0.75 -1.1 0.5 -0.85 0.15 -0.55 -0.85 -0.5 -1.7 -0.05 -1.8 0.05 -2.2 0.0 -2.9 -0.65 -3.0 -0.7 -3.0 -0.75 -3.1 -0.8 -3.15 -0.85 -3.2 -0.9 -3.05 -1.15 -3.0 -1.15 -2.95 -1.2 -2.75 -1.45 -2.65 -1.55 -2.35 -1.95 -2.15 -2.0 -1.75 -1.55 -1.65 -1.4 -1.65 -1.4 -0.7 -1.05 0.1 -1.1 M-1.45 7.15 L-1.15 7.25 -1.25 7.3 -1.25 7.25 -1.5 7.2 -1.45 7.15 M-1.1 -4.5 L-1.05 -4.25 -1.1 -4.25 -1.0 -4.05 -0.95 -4.1 -0.55 -3.85 -0.6 -3.55 -0.6 -3.5 -1.15 -3.7 -1.3 -3.7 -1.55 -4.0 -1.4 -4.2 -1.4 -4.4 -1.4 -4.4 -1.1 -4.5 M-0.6 -3.55 L-0.6 -3.55 M-1.55 -4.3 L-1.55 -4.25 -1.6 -4.05 -1.65 -4.1 -1.7 -4.15 -1.6 -4.3 -1.55 -4.3 M-3.0 -0.75 L-3.0 -0.75" fill="#3c5829" fill-rule="evenodd" stroke="none"/>
    <path d="M0.9 -0.45 L1.0 -0.45 0.85 -0.15 0.75 -0.3 0.9 -0.45 M7.05 -2.9 L7.25 -2.85 7.3 -2.8 7.1 -2.75 7.05 -2.9 M6.05 -1.85 L6.05 -1.5 5.75 -1.55 5.65 -1.65 5.85 -1.85 6.05 -1.85 M5.25 -2.4 L5.25 -2.4 5.25 -2.35 5.25 -2.4 M-3.15 -0.85 L-3.1 -0.8 -3.2 -0.75 -3.3 -0.7 -3.25 -0.75 -3.15 -0.85 M-4.8 2.4 L-5.1 2.05 -5.05 2.0 -4.6 2.55 -4.65 2.6 -4.7 2.55 -4.8 2.45 -4.8 2.4" fill="#334b23" fill-rule="evenodd" stroke="none"/>
    <path d="M-0.3 -3.7 L-0.35 -3.65 -0.45 -3.5 -0.45 -3.45 -0.55 -3.45 -0.5 -3.7 -0.5 -3.8 -0.3 -3.7 M0.7 -0.55 L0.7 -0.5 0.65 -0.35 0.65 -0.15 0.6 -0.05 0.45 0.95 0.35 1.05 Q0.15 1.2 -0.1 1.35 L-0.55 2.0 -1.0 2.2 -1.85 2.15 -2.15 2.15 -2.35 2.15 -2.35 2.1 -2.3 1.5 -2.3 0.75 -2.2 0.7 -1.25 0.8 -1.2 0.75 -0.35 0.4 -0.2 0.25 0.55 -0.55 0.7 -0.6 0.7 -0.55 M-1.85 2.15 L-1.85 2.15 M-1.8 0.05 L-1.7 -0.05 -0.85 -0.5 0.15 -0.55 -0.3 -0.15 -1.2 0.15 -1.8 0.05" fill="#44632f" fill-rule="evenodd" stroke="none"/>
    <path d="M0.65 -0.35 L0.7 -0.25 0.75 -0.2 0.65 -0.15 0.65 -0.35 M4.1 -2.2 L4.15 -2.35 4.35 -2.35 4.1 -2.2 M9.35 -2.8 L9.5 -2.95 9.85 -3.05 9.7 -2.9 9.35 -2.8 M10.5 -3.1 L10.9 -3.1 10.6 -2.4 10.15 -1.9 9.5 -1.7 9.25 -1.7 9.3 -2.3 9.3 -2.3 9.75 -2.8 10.4 -3.0 10.5 -3.1 M5.5 -3.55 L5.55 -3.5 5.55 -3.5 5.5 -3.4 5.25 -3.35 Q5.2 -3.4 5.15 -3.45 L5.4 -3.55 5.45 -3.55 5.45 -3.55 5.5 -3.55 M2.4 4.7 L2.4 4.65 2.75 4.85 2.4 4.7 M2.75 4.85 L2.95 4.95 3.0 5.05 2.75 4.85 M3.35 5.55 L3.25 5.55 3.25 5.45 3.35 5.55 M3.1 5.9 L3.2 5.85 3.2 6.05 3.15 5.95 3.1 5.9 M2.8 7.15 L2.85 7.2 2.9 7.85 2.9 7.9 2.8 7.15 M1.6 6.25 L1.75 6.35 1.6 6.35 1.6 6.25 M-4.05 0.0 L-4.0 0.0 -4.0 -0.05 -4.05 0.0 M-3.0 -0.75 L-3.0 -0.7 -3.6 -0.4 -3.55 -0.4 -3.5 -0.45 -3.4 -0.55 -3.35 -0.6 -3.3 -0.65 -3.25 -0.65 -3.2 -0.7 -3.1 -0.7 -3.05 -0.75 -3.0 -0.75 M-3.5 1.55 L-4.0 1.4 -4.4 1.3 -4.35 1.05 -3.5 1.55 M-2.85 1.6 L-3.1 1.7 -3.35 1.6 -2.85 1.6" fill="#334a23" fill-rule="evenodd" stroke="none"/>
    <path d="M0.7 -0.25 L0.75 -0.3 0.85 -0.15 0.75 -0.05 0.75 -0.1 0.6 -0.05 0.65 -0.15 0.75 -0.2 0.7 -0.25 M-0.85 7.25 L-0.9 7.5 -0.8 7.95 -0.85 8.05 -0.85 7.8 -0.95 7.65 -1.0 7.3 -0.85 7.25" fill="#1c2913" fill-rule="evenodd" stroke="none"/>
    <path d="M-1.85 2.15 L-1.0 2.2 -0.55 2.0 -0.5 1.95 -0.1 1.75 0.25 1.25 0.35 1.05 0.45 0.95 0.6 -0.05 0.75 -0.1 0.75 -0.05 0.75 0.0 0.75 0.05 0.75 0.1 0.75 0.3 0.8 1.1 0.8 1.45 0.75 1.55 0.65 1.6 0.05 2.45 0.05 2.65 -0.35 2.95 -1.7 3.15 -1.85 2.15 M3.65 -0.65 L3.9 -1.0 4.5 -1.35 4.65 -1.4 4.7 -1.45 4.75 -1.5 5.45 -1.5 5.75 -1.55 6.05 -1.35 6.95 -0.9 6.85 -0.75 6.55 -0.2 6.3 0.3 5.8 0.6 5.45 0.8 4.45 0.85 3.1 0.3 3.05 0.25 3.6 -0.55 3.65 -0.6 3.65 -0.65" fill="#3b5729" fill-rule="evenodd" stroke="none"/>
    <path d="M0.75 0.0 L0.75 -0.05 0.85 -0.15 0.75 0.0" fill="#2e431f" fill-rule="evenodd" stroke="none"/>
    <path d="M1.0 -0.45 L1.5 -0.4 1.8 -0.45 1.9 -0.4 1.8 -0.3 1.55 0.1 1.45 0.15 1.6 0.35 1.4 0.35 1.2 0.4 1.25 0.55 1.3 0.6 1.35 0.7 1.3 0.75 1.25 0.75 1.3 0.6 1.25 0.6 1.2 0.55 1.1 0.6 1.1 0.45 0.95 0.5 1.0 0.3 0.8 0.3 0.8 0.25 0.9 0.2 0.8 0.15 0.8 0.05 0.75 0.05 0.75 0.0 0.85 -0.15 1.0 -0.45" fill="#649245" fill-rule="evenodd" stroke="none"/>
    <path d="M0.55 -0.55 L-0.2 0.25 -0.7 0.35 -1.2 0.75 -1.25 0.8 -2.2 0.7 -2.25 0.7 -3.3 -0.1 -2.9 -0.65 -2.2 0.0 -1.8 0.05 -1.2 0.15 -0.3 -0.15 0.15 -0.55 0.5 -0.85 0.7 -0.75 0.55 -0.55 M0.75 4.55 L0.9 4.65 1.0 4.55 1.05 4.55 1.15 4.6 1.2 4.6 1.15 4.75 1.15 4.85 0.95 5.4 0.7 6.05 0.05 6.75 -0.9 7.05 -2.25 6.75 -2.15 6.3 -1.95 5.45 -1.35 4.85 -1.25 4.7 -0.3 4.4 0.5 4.5 0.75 4.55 M-1.75 -1.55 L-1.6 -1.6 -0.6 -1.5 0.1 -1.1 -0.7 -1.05 -1.65 -1.4 -1.65 -1.4 -1.75 -1.55" fill="#2b401e" fill-rule="evenodd" stroke="none"/>
    <path d="M4.75 -3.95 L4.7 -3.95 4.95 -4.05 5.0 -4.1 5.25 -4.1 5.6 -4.1 6.15 -4.45 6.2 -4.55 6.2 -4.6 6.8 -4.45 7.45 -4.0 6.8 -3.55 6.45 -3.45 6.2 -3.35 5.65 -3.5 5.55 -3.5 5.55 -3.5 5.5 -3.55 5.45 -3.55 4.95 -3.9 4.95 -3.9 4.75 -3.95 M1.95 -0.45 L2.15 -0.5 2.15 -0.5 2.6 -0.85 2.9 -0.95 3.0 -0.9 3.1 -0.9 3.5 -0.8 3.55 -0.8 3.6 -0.8 4.05 -1.3 4.1 -1.3 4.1 -1.3 4.15 -1.3 4.5 -1.35 3.9 -1.0 3.65 -0.65 3.65 -0.6 3.65 -0.6 3.6 -0.55 2.8 -0.5 1.55 0.1 1.8 -0.3 1.9 -0.4 1.95 -0.45 M4.5 -1.35 L4.5 -1.35 M6.2 -4.6 L6.2 -4.6 M9.0 5.05 L8.6 5.8 7.95 5.9 7.75 5.85 7.3 5.7 7.3 5.65 6.65 4.3 6.8 4.15 6.85 3.9 7.1 3.5 7.2 3.55 7.15 3.45 7.5 2.9 7.7 2.85 8.15 2.8 8.35 2.85 8.6 2.95 8.3 2.95 8.05 3.0 7.75 3.05 7.75 3.2 7.8 4.25 8.15 4.8 8.75 5.1 9.0 5.05 M-6.8 -4.3 L-7.05 -4.55 -7.25 -5.15 -6.6 -6.25 -6.6 -6.0 -6.2 -5.45 -5.0 -5.1 -4.5 -6.0 -4.35 -5.6 -4.65 -4.85 -4.8 -5.0 -4.95 -5.05 -5.45 -5.25 -5.65 -5.1 -6.2 -5.1 -6.8 -4.3 M-1.6 -5.3 L-1.3 -5.5 -1.3 -5.5 -0.7 -5.8 -0.55 -5.8 -0.6 -5.6 -0.6 -5.55 -0.85 -5.45 -1.1 -5.4 -1.25 -5.4 -1.35 -5.3 -1.35 -5.3 -1.6 -5.3 M-1.1 -5.4 L-1.1 -5.4" fill="#223117" fill-rule="evenodd" stroke="none"/>
    <path d="M1.8 -0.45 L1.85 -0.45 1.9 -0.4 1.8 -0.45 M-2.3 1.5 L-2.35 2.1 -2.8 2.25 -3.45 2.15 -3.5 2.1 -3.85 2.05 -4.1 2.0 -4.0 1.4 -3.5 1.55 -3.45 1.6 -3.35 1.6 -3.1 1.7 -2.85 1.6 -2.3 1.5 M-9.3 2.2 L-9.65 2.25 -9.75 1.9 -9.75 1.75 -9.95 0.95 -9.6 0.0 -9.1 -0.5 -9.05 -0.4 -9.15 -0.3 -9.25 -0.25 -9.05 -0.05 -9.05 -0.05 -9.35 0.8 -9.15 0.85 -9.3 1.1 -8.7 1.6 -8.65 1.9 -8.5 2.05 -9.3 2.2" fill="#385226" fill-rule="evenodd" stroke="none"/>
    <path d="M3.8 -2.25 L3.85 -2.35 3.9 -2.35 3.85 -2.3 3.8 -2.25 M7.0 -3.0 L7.05 -2.9 7.1 -2.75 6.35 -2.55 6.05 -1.95 6.05 -1.85 5.85 -1.85 5.85 -1.9 5.3 -2.25 5.25 -2.35 5.25 -2.4 5.15 -2.55 5.0 -2.8 5.55 -3.1 5.25 -3.35 5.5 -3.4 5.65 -3.5 6.2 -3.35 6.45 -3.45 6.5 -3.45 6.6 -3.35 6.7 -3.3 7.0 -3.05 7.0 -3.0 M5.25 -2.4 L5.25 -2.4" fill="#182310" fill-rule="evenodd" stroke="none"/>
    <path d="M3.8 -2.1 L3.8 -2.25 3.85 -2.3 3.9 -2.35 4.15 -2.35 4.1 -2.2 4.0 -2.2 3.8 -2.1 M4.1 -2.2 L4.1 -2.2 M3.05 -1.45 L3.45 -1.35 3.65 -1.35 3.55 -1.2 3.55 -1.2 3.55 -1.25 3.05 -1.25 2.95 -1.25 3.05 -1.45 M9.0 -2.65 L9.05 -2.7 9.35 -2.8 9.7 -2.9 9.85 -3.05 10.15 -3.4 10.8 -3.55 10.5 -3.1 10.4 -3.0 9.75 -2.8 9.3 -2.3 9.3 -2.3 9.3 -2.45 9.3 -2.5 9.3 -2.5 9.25 -2.5 9.0 -2.65 M-7.05 -3.1 L-7.2 -3.75 -6.85 -4.2 -6.85 -4.25 -6.8 -4.25 -6.8 -4.3 -6.2 -5.1 -5.65 -5.1 -5.55 -5.1 -5.0 -4.8 -4.95 -4.8 -4.75 -4.05 -4.55 -3.1 -4.7 -2.95 -5.1 -3.2 -4.75 -2.85 -5.05 -2.55 -5.05 -2.5 -5.2 -2.35 -5.65 -1.85 -6.1 -1.85 -6.2 -1.85 -6.35 -1.85 -6.5 -1.95 -6.8 -2.1 -6.9 -2.15 -6.95 -2.2 -6.95 -2.25 -7.05 -3.1 M-6.85 -4.2 L-6.85 -4.2" fill="#405d2c" fill-rule="evenodd" stroke="none"/>
    <path d="M3.8 -1.3 L3.95 -1.3 3.9 -1.3 4.0 -1.3 4.1 -1.3 4.05 -1.3 3.6 -0.8 3.55 -0.8 3.5 -0.85 3.5 -0.8 3.1 -0.9 3.1 -0.95 3.4 -1.15 3.45 -1.15 3.8 -1.3 M4.15 -1.3 L4.2 -1.3 4.5 -1.35 4.15 -1.3 M5.05 -1.7 L5.1 -1.75 5.45 -1.6 5.55 -1.6 5.75 -1.55 5.45 -1.5 5.4 -1.55 5.05 -1.7 M6.05 -1.35 L5.75 -1.55 6.05 -1.5 6.05 -1.35 M4.25 2.85 L4.35 3.05 4.25 3.25 4.1 3.65 3.95 3.8 3.75 3.95 3.65 4.0 3.65 4.05 3.6 4.1 3.55 4.1 3.8 3.7 3.9 2.75 3.85 2.65 4.1 2.6 4.25 2.85 M-2.15 6.3 L-2.35 6.9 -1.8 7.1 -1.85 7.15 -2.15 7.75 -2.75 7.2 -2.8 7.05 -3.0 6.6 -3.0 6.55 -2.95 6.05 -2.95 5.95 -2.75 5.55 -2.55 5.05 -2.55 5.1 -2.65 5.35 -2.5 5.45 -2.7 5.9 -2.6 5.95 -2.65 6.05 -2.15 6.3" fill="#243419" fill-rule="evenodd" stroke="none"/>
    <path d="M3.95 -1.3 L4.0 -1.3 3.9 -1.3 3.95 -1.3 M4.2 -1.3 L4.5 -1.4 4.65 -1.4 4.5 -1.35 4.5 -1.35 4.2 -1.3 M4.9 -1.6 L4.9 -1.6 5.05 -1.7 5.4 -1.55 5.45 -1.5 4.75 -1.5 4.7 -1.45 4.9 -1.6 M5.1 -1.75 L5.3 -1.9 4.75 -2.1 5.0 -2.35 5.25 -2.35 5.3 -2.25 5.85 -1.9 5.85 -1.85 5.65 -1.65 5.55 -1.6 5.45 -1.6 5.1 -1.75 M5.0 7.0 L4.85 6.75 4.7 6.15 4.4 5.8 4.65 5.85 4.7 6.15 5.15 6.65 5.15 6.7 5.0 6.85 5.0 7.0 M5.25 -2.35 L5.25 -2.35 M8.05 2.35 L8.0 2.45 7.7 2.55 7.85 2.45 8.05 2.35 M6.35 2.35 L6.4 2.35 6.8 2.65 6.85 2.7 6.75 2.65 6.35 2.35 M3.65 4.0 L3.75 3.95 4.0 4.05 4.1 4.1 4.15 4.15 3.75 4.15 3.75 4.1 3.65 4.0 M4.45 4.5 L4.15 4.4 4.0 4.35 3.95 4.3 3.8 4.15 4.35 4.5 4.45 4.5 M4.2 5.25 L4.1 4.85 4.5 5.4 4.6 5.5 4.65 5.8 4.35 5.75 4.3 5.65 4.3 5.6 4.2 5.25 M-2.25 -5.05 L-2.0 -5.25 -1.95 -5.25 -1.95 -5.0 -2.0 -5.0 -1.95 -4.95 -1.95 -4.9 -2.1 -4.7 -2.15 -4.7 -2.2 -4.75 -2.2 -4.8 -2.3 -4.9 -2.25 -5.0 -2.25 -5.05 M-2.1 -4.7 L-2.1 -4.7" fill="#324822" fill-rule="evenodd" stroke="none"/>
    <path d="M3.65 -0.65 L3.65 -0.6 3.65 -0.6 3.65 -0.65 M4.3 5.9 L4.7 6.25 4.65 7.7 3.65 8.35 3.6 8.15 2.75 6.95 2.8 7.15 2.9 7.9 2.95 8.35 2.85 8.3 2.5 8.0 2.35 7.9 2.25 6.45 2.6 6.5 2.3 6.35 2.7 6.15 2.8 6.2 3.1 6.75 3.8 7.0 3.65 6.6 3.85 6.6 3.9 6.55 4.35 6.3 4.3 5.9 M5.9 2.5 L6.0 2.45 6.25 2.55 6.4 2.6 6.5 2.7 5.9 2.5 M3.2 6.05 L3.25 6.1 3.0 5.95 3.05 5.95 3.1 5.9 3.15 5.95 3.2 6.05" fill="#233418" fill-rule="evenodd" stroke="none"/>
    <path d="M3.0 -0.9 L3.05 -0.95 3.1 -0.95 3.1 -0.9 3.0 -0.9 M-5.25 5.4 L-5.15 5.1 -4.95 5.2 -3.8 5.8 -3.2 6.6 -3.1 7.3 -3.9 8.3 -3.8 8.75 -4.5 8.45 -4.85 8.3 -5.4 7.55 -5.55 6.55 -5.35 5.75 -5.25 5.4" fill="#324a23" fill-rule="evenodd" stroke="none"/>
    <path d="M3.55 -0.8 L3.5 -0.8 3.5 -0.85 3.55 -0.8 M-9.15 -0.3 L-9.15 -0.25 -9.05 -0.05 -9.25 -0.25 -9.15 -0.3" fill="#344d24" fill-rule="evenodd" stroke="none"/>
    <path d="M3.6 -0.55 L3.05 0.25 2.75 0.15 1.6 0.35 1.45 0.15 1.55 0.1 2.8 -0.5 3.6 -0.55 M-9.75 1.9 L-9.95 1.85 -10.1 1.7 -9.75 1.75 -9.75 1.9 M-10.45 1.3 L-10.9 0.8 -10.5 0.5 -10.05 0.95 -10.1 1.65 -10.45 1.3" fill="#344c23" fill-rule="evenodd" stroke="none"/>
    <path d="M6.2 -4.6 L6.5 -4.95 7.15 -5.15 8.15 -4.8 8.1 -3.75 7.65 -3.25 7.05 -3.0 7.0 -3.0 7.0 -3.05 6.7 -3.3 6.65 -3.35 6.6 -3.35 6.5 -3.45 6.45 -3.45 6.8 -3.55 7.45 -4.0 6.8 -4.45 6.2 -4.6 M3.65 8.35 L3.75 9.45 2.95 8.4 2.95 8.35 2.9 7.9 2.9 7.85 2.85 7.2 2.8 7.15 2.75 6.95 3.6 8.15 3.65 8.35 M2.5 8.0 L2.45 8.1 1.0 8.15 1.45 7.65 1.65 6.7 1.6 6.35 1.75 6.35 2.25 6.45 2.35 7.9 2.5 8.0 M-3.5 -5.8 L-3.55 -5.85 -3.5 -6.55 -3.0 -7.25 -2.65 -7.05 -2.5 -6.9 -2.3 -6.75 -2.25 -6.7 -2.0 -6.15 -2.0 -5.85 -2.05 -5.5 -2.2 -5.2 -2.15 -5.2 -2.25 -5.05 -2.25 -5.05 -2.25 -5.0 -2.3 -4.9 -2.3 -4.95 -2.3 -5.0 -2.35 -4.95 -2.55 -5.3 -3.15 -5.6 -3.4 -5.6 -3.5 -5.8 M4.45 3.2 L4.75 3.15 5.1 3.45 5.25 4.15 4.65 3.8 4.4 3.2 4.45 3.2 M-3.0 -1.15 L-3.05 -1.35 -3.05 -1.35 -2.95 -1.2 -3.0 -1.15" fill="#344c24" fill-rule="evenodd" stroke="none"/>
    <path d="M6.85 -0.75 L6.95 -0.9 6.05 -1.35 6.05 -1.5 6.05 -1.85 6.05 -1.95 6.35 -2.55 7.1 -2.75 7.3 -2.8 7.6 -2.9 7.6 -2.85 8.05 -2.4 8.5 -2.0 8.5 -1.35 8.15 -0.75 8.1 -0.75 7.95 -0.65 7.4 -0.45 6.9 -0.25 6.85 -0.35 7.25 -0.85 7.7 -1.3 7.2 -0.9 6.85 -0.75" fill="#283b1c" fill-rule="evenodd" stroke="none"/>
    <path d="M7.6 -2.85 L7.65 -2.9 8.0 -2.9 8.25 -2.65 8.25 -2.5 8.05 -2.4 7.6 -2.85 M4.3 5.75 L4.3 5.9 4.35 6.3 3.9 6.55 3.85 6.6 3.65 6.6 3.55 6.3 3.25 6.1 3.2 6.05 3.2 5.85 3.15 5.75 3.0 5.95 2.8 5.65 3.0 5.45 3.0 5.1 3.05 5.1 3.3 5.4 3.25 5.45 3.25 5.55 3.2 5.65 3.7 5.45 4.05 5.45 4.25 5.7 4.3 5.75 M2.2 5.8 L2.15 5.8 2.0 5.65 2.05 5.5 2.2 5.8" fill="#3e4427" fill-rule="evenodd" stroke="none"/>
    <path d="M4.6 -4.35 L5.0 -4.6 5.35 -4.35 5.25 -4.1 5.0 -4.1 4.95 -4.1 4.6 -4.35 M6.55 -0.2 L6.85 -0.75 7.2 -0.9 7.7 -1.3 7.25 -0.85 6.85 -0.35 6.55 -0.2" fill="#2b3e1d" fill-rule="evenodd" stroke="none"/>
    <path d="M4.95 -3.85 L4.75 -3.95 4.95 -3.9 4.95 -3.9 5.45 -3.55 5.5 -3.55 5.45 -3.55 5.45 -3.55 5.4 -3.55 4.95 -3.85" fill="#161f0f" fill-rule="evenodd" stroke="none"/>
    <path d="M4.45 -3.75 L4.95 -3.6 5.15 -3.45 Q5.2 -3.4 5.25 -3.35 L5.55 -3.1 5.0 -2.8 4.95 -2.75 4.85 -2.75 4.7 -2.7 4.7 -3.15 4.8 -3.2 4.7 -3.25 4.7 -3.25 4.55 -3.55 4.55 -3.6 4.5 -3.6 4.45 -3.75 M1.3 0.6 L1.5 0.5 2.35 0.7 2.2 1.1 1.85 0.9 1.85 0.8 1.8 0.85 1.7 0.8 1.55 1.25 1.55 1.2 1.65 0.75 1.45 0.75 1.4 0.65 1.35 0.7 1.3 0.6" fill="#1e2c15" fill-rule="evenodd" stroke="none"/>
    <path d="M4.7 -3.25 L4.8 -3.2 4.7 -3.15 4.7 -3.25 M4.55 -3.55 L4.5 -3.6 4.55 -3.6 4.55 -3.55 M-0.55 -3.85 L-0.5 -3.8 -0.5 -3.7 -0.6 -3.55 -0.55 -3.85" fill="#1f2d15" fill-rule="evenodd" stroke="none"/>
    <path d="M5.15 -2.55 L5.25 -2.4 5.25 -2.35 5.25 -2.4 5.25 -2.35 5.25 -2.35 4.8 -2.4 4.65 -2.4 4.85 -2.45 5.15 -2.55 M4.9 2.55 L5.25 2.65 5.45 2.6 5.95 3.1 5.7 3.15 4.5 2.8 4.5 2.75 4.3 2.7 4.55 2.65 4.9 2.55 M5.8 2.5 L5.9 2.5 6.5 2.7 6.85 2.85 7.0 2.9 6.85 2.9 6.55 3.0 6.25 2.65 5.8 2.5 M4.3 2.7 L4.25 2.7 4.3 2.7" fill="#314721" fill-rule="evenodd" stroke="none"/>
    <path d="M-0.2 0.25 L-0.35 0.4 -1.2 0.75 -0.7 0.35 -0.2 0.25 M-1.85 2.15 L-1.85 2.15 -1.7 3.15 -0.35 2.95 0.05 2.65 0.4 2.35 0.75 1.55 0.8 1.45 0.8 1.1 0.8 1.0 0.8 1.6 0.4 2.5 -0.4 3.05 -1.1 3.15 -1.75 3.2 -1.8 2.85 -1.85 2.15 M5.8 0.6 L6.3 0.3 6.55 -0.2 6.85 -0.35 6.9 -0.25 7.4 -0.45 7.75 -0.3 7.6 0.25 7.55 0.4 7.5 0.7 7.15 1.0 7.0 1.15 6.65 1.2 6.35 1.25 6.25 1.25 6.2 1.0 5.8 0.6 M-3.0 9.5 L-3.4 9.5 -3.6 9.25 -3.8 8.95 -3.8 8.75 -3.8 8.75 -3.9 8.3 -3.1 7.3 -2.9 7.1 -2.85 7.05 -2.8 7.05 -2.75 7.2 -2.15 7.75 -1.85 7.15 -1.5 7.2 -1.25 7.25 -1.25 7.3 -0.95 7.65 -0.85 7.8 -0.85 8.05 -0.8 8.25 -0.8 8.45 -1.85 9.55 -2.35 9.55 -2.2 9.3 -2.15 8.65 -1.8 8.05 -1.8 7.25 -2.2 7.95 -2.25 8.6 -2.6 9.15 -2.6 9.55 -3.0 9.5 M1.2 3.55 L1.35 3.35 1.45 3.45 1.45 3.6 1.65 3.85 1.4 3.8 1.2 3.55 M0.8 0.15 L0.75 0.1 0.75 0.05 0.8 0.05 0.8 0.15 M0.75 0.3 L0.8 0.25 0.8 0.3 0.75 0.3 M-5.1 -2.4 L-5.05 -2.45 -5.05 -2.4 -5.1 -2.4" fill="#2a3d1d" fill-rule="evenodd" stroke="none"/>
    <path d="M3.05 0.25 L3.1 0.3 3.0 0.35 3.6 1.75 4.3 2.4 4.55 2.5 4.25 2.55 4.1 2.6 3.85 2.65 3.55 1.8 3.4 1.7 2.7 0.6 2.5 0.85 2.4 0.75 2.2 1.1 2.35 0.7 1.5 0.5 1.3 0.6 1.25 0.55 1.35 0.4 1.4 0.35 1.6 0.35 2.75 0.15 3.05 0.25 M7.4 -0.45 L7.95 -0.65 8.35 -0.45 7.85 0.25 7.7 0.35 7.6 0.25 7.75 -0.3 7.4 -0.45" fill="#2f4520" fill-rule="evenodd" stroke="none"/>
    <path d="M8.25 -2.5 L8.35 -2.55 8.9 -2.55 9.25 -2.5 9.3 -2.5 9.3 -2.5 9.3 -2.45 9.3 -2.3 9.25 -1.7 9.25 -1.6 8.9 -1.05 8.6 -0.9 8.3 -0.75 8.1 -0.75 8.15 -0.75 8.5 -1.35 8.5 -2.0 8.05 -2.4 8.25 -2.5 M-2.15 -4.7 L-2.1 -4.7 -2.05 -4.7 -1.5 -5.0 -1.3 -5.0 -1.35 -4.9 -1.35 -4.85 -1.4 -4.6 -2.05 -4.6 -2.15 -4.6 -2.15 -4.7" fill="#3d592a" fill-rule="evenodd" stroke="none"/>
    <path d="M8.9 -2.55 L9.0 -2.65 9.25 -2.5 8.9 -2.55 M-1.7 -6.9 L-1.9 -7.25 -1.9 -7.9 -1.4 -8.7 -1.05 -8.55 -1.0 -8.5 -1.4 -8.25 -1.75 -7.7 -1.65 -6.75 -1.7 -6.9 M9.3 -2.5 L9.3 -2.45 9.3 -2.5 M-1.1 -5.4 L-1.1 -5.4 -1.2 -4.85 -1.2 -4.8 -1.3 -4.65 -1.4 -4.55 -1.4 -4.6 -1.35 -4.85 -1.35 -4.9 -1.3 -5.0 -1.1 -5.4 -1.1 -5.4 M-1.4 -4.55 L-1.4 -4.4 -1.4 -4.2 -1.55 -4.0 -1.6 -4.05 -1.55 -4.25 -1.55 -4.3 -1.5 -4.4 -1.5 -4.4 -1.4 -4.55" fill="#364e25" fill-rule="evenodd" stroke="none"/>
    <path d="M8.6 -0.9 L8.85 -0.1 8.65 0.25 8.3 0.3 7.8 0.75 7.15 1.05 7.15 1.0 7.5 0.7 7.55 0.4 7.7 0.35 7.85 0.25 8.35 -0.45 7.95 -0.65 8.1 -0.75 8.3 -0.75 8.6 -0.9 M8.45 0.65 L8.4 0.8 8.1 1.4 7.45 1.5 7.0 1.4 7.15 1.05 7.8 0.75 8.45 0.65" fill="#1b2712" fill-rule="evenodd" stroke="none"/>
    <path d="M8.4 0.8 L8.5 0.9 8.8 1.45 8.8 2.05 8.75 2.1 8.8 2.1 8.8 2.15 8.45 2.55 8.4 2.5 8.45 2.45 8.35 2.45 8.3 2.4 8.35 2.4 8.75 2.1 8.25 2.2 8.15 2.25 7.8 1.9 7.9 1.85 7.7 1.8 7.65 1.75 7.45 1.7 6.95 1.55 6.95 1.45 7.0 1.45 7.0 1.4 7.45 1.5 8.1 1.4 8.4 0.8 M-3.7 -5.6 L-3.5 -5.8 -3.4 -5.6 -3.7 -5.6 M-2.25 -6.7 L-1.75 -6.7 -1.7 -6.7 -1.65 -6.7 -1.6 -6.4 -1.5 -6.35 -1.45 -6.05 -1.55 -5.7 -1.8 -6.2 -2.0 -5.85 -2.0 -6.15 -2.25 -6.7 M7.7 0.35 L7.55 0.4 7.6 0.25 7.7 0.35" fill="#314722" fill-rule="evenodd" stroke="none"/>
    <path d="M8.45 2.55 L8.45 2.6 8.35 2.85 8.15 2.8 7.7 2.85 8.4 2.5 8.45 2.55 M-3.6 9.25 L-3.65 9.3 -4.05 8.95 -3.8 8.75 -3.8 8.95 -3.6 9.25 M8.15 2.45 L8.3 2.4 8.35 2.45 8.15 2.45 M8.15 2.25 L8.05 2.35 7.85 2.45 7.15 2.5 6.8 2.65 6.4 2.35 6.55 2.3 6.5 2.1 6.6 2.15 7.8 1.9 8.15 2.25 M7.45 1.7 L7.65 1.75 7.7 1.8 7.45 1.7 M-3.7 -0.5 L-3.7 -0.6 -3.5 -0.45 -3.55 -0.4 -3.55 -0.4 -3.6 -0.4 -3.7 -0.5" fill="#1d2a14" fill-rule="evenodd" stroke="none"/>
    <path d="M3.1 0.3 L4.45 0.85 5.45 0.8 5.8 0.6 6.2 1.0 6.25 1.25 6.35 1.5 6.5 2.1 6.55 2.3 6.4 2.35 6.35 2.35 6.05 2.45 6.0 2.45 5.9 2.5 5.8 2.5 5.45 2.6 5.25 2.65 4.9 2.55 4.55 2.5 4.3 2.4 3.6 1.75 3.0 0.35 3.1 0.3" fill="#4d7135" fill-rule="evenodd" stroke="none"/>
    <path d="M6.9 1.55 L6.95 1.55 7.45 1.7 7.7 1.8 7.9 1.85 7.8 1.9 6.6 2.15 6.5 2.1 6.35 1.5 6.55 1.5 6.65 1.45 6.9 1.55 M0.05 2.65 L0.05 2.45 0.65 1.6 0.75 1.55 0.4 2.35 0.05 2.65 M-2.15 -5.2 L-2.2 -5.2 -2.05 -5.5 -2.0 -5.85 -1.8 -6.2 -1.55 -5.7 -1.4 -5.55 -1.4 -5.5 -1.95 -5.25 -1.9 -5.55 -2.15 -5.2 M-2.1 -4.7 L-1.95 -4.9 -1.95 -4.95 -1.85 -4.95 -2.1 -4.7 M-1.4 -4.55 L-1.3 -4.65 -1.4 -4.4 -1.4 -4.55 M-1.4 -4.4 L-1.4 -4.4 M-1.5 -4.4 L-1.5 -4.4 -1.55 -4.3 -1.6 -4.3 -1.7 -4.15 -2.05 -4.3 -2.1 -4.4 -1.55 -4.4 -1.5 -4.4" fill="#2e4320" fill-rule="evenodd" stroke="none"/>
    <path d="M6.0 2.45 L6.05 2.45 6.35 2.55 6.25 2.55 6.0 2.45 M-2.6 9.55 L-2.6 9.15 -2.25 8.6 -2.2 7.95 -1.8 7.25 -1.8 8.05 -2.15 8.65 -2.2 9.3 -2.35 9.55 -2.6 9.85 -2.6 9.55" fill="#3a5428" fill-rule="evenodd" stroke="none"/>
    <path d="M5.45 2.6 L5.8 2.5 6.25 2.65 6.55 3.0 6.85 2.9 6.85 3.25 7.15 3.45 7.2 3.55 7.1 3.5 6.85 3.4 5.95 3.1 5.45 2.6" fill="#223218" fill-rule="evenodd" stroke="none"/>
    <path d="M6.05 2.45 L6.35 2.35 6.75 2.65 6.85 2.7 6.85 2.85 6.5 2.7 6.4 2.6 6.25 2.55 6.35 2.55 6.05 2.45 M5.95 3.1 L6.85 3.4 6.85 3.9 6.8 4.15 6.65 4.3 6.3 4.6 5.85 4.65 5.75 4.7 5.7 4.7 5.65 4.7 5.3 4.45 5.0 4.25 5.6 4.2 6.25 3.8 5.65 3.35 5.05 3.1 4.75 3.15 4.45 3.2 4.5 2.8 5.7 3.15 5.95 3.1 M4.55 2.5 L4.9 2.55 4.55 2.65 4.55 2.5 M1.55 5.45 L1.95 5.7 2.05 5.7 2.1 5.75 2.15 5.8 2.2 5.8 2.2 5.85 2.65 6.1 2.5 6.1 1.95 5.75 1.5 5.75 1.5 5.7 1.55 5.45" fill="#192411" fill-rule="evenodd" stroke="none"/>
    <path d="M4.5 2.8 L4.45 3.2 4.4 3.2 4.25 3.25 4.35 3.05 4.25 2.85 4.3 2.75 4.3 2.7 4.25 2.55 4.55 2.5 4.55 2.65 4.3 2.7 4.5 2.75 4.5 2.8" fill="#2e421f" fill-rule="evenodd" stroke="none"/>
    <path d="M4.3 2.7 L4.25 2.7 4.3 2.7 4.3 2.75 4.25 2.85 4.1 2.6 4.25 2.55 4.3 2.7 M3.4 4.25 L3.5 4.15 3.45 4.25 3.4 4.25 M-1.55 -4.0 L-1.3 -3.7 -1.8 -3.6 -2.2 -3.85 -3.0 -3.9 -2.85 -3.95 -1.95 -3.85 -1.95 -3.85 -2.05 -4.3 -1.7 -4.15 -1.65 -4.1 -1.6 -4.05 -1.55 -4.0" fill="#496a32" fill-rule="evenodd" stroke="none"/>
    <path d="M3.55 4.1 L3.6 4.1 3.65 4.05 3.75 4.1 3.75 4.15 4.15 4.15 4.45 4.15 4.7 4.35 5.0 4.5 4.45 4.5 4.35 4.5 3.8 4.15 3.75 4.15 3.5 4.15 3.55 4.1" fill="#25361a" fill-rule="evenodd" stroke="none"/>
    <path d="M2.5 0.85 L2.7 0.6 3.4 1.7 3.55 1.9 3.7 2.85 3.6 3.1 3.55 2.45 3.0 1.6 2.2 1.1 2.5 0.85 M1.65 3.85 L1.45 3.6 1.45 3.45 1.8 4.05 1.75 3.95 1.65 3.85 M-3.35 -1.65 L-3.2 -1.8 -3.2 -1.75 -3.25 -1.7 -3.3 -1.65 -3.35 -1.65 M-3.35 -1.6 L-3.45 -1.55 -3.4 -1.65 -3.35 -1.6 M-5.15 2.15 L-5.2 2.15 -5.1 2.05 -4.8 2.4 -4.85 2.5 -4.9 2.5 -5.0 2.35 -5.15 2.15" fill="#2c401e" fill-rule="evenodd" stroke="none"/>
    <path d="M-4.95 5.2 L-4.9 5.0 -4.8 5.1 -3.6 5.75 -3.0 6.55 -3.0 6.6 -2.9 7.1 -3.1 7.3 -3.2 6.6 -3.8 5.8 -4.95 5.2 M-5.85 -1.1 L-5.75 -1.3 -5.6 -1.25 -5.85 -1.1 M3.85 2.65 L3.9 2.75 3.8 3.7 3.55 4.1 3.5 4.15 3.4 4.25 3.0 4.8 2.8 4.7 2.35 4.3 3.05 4.65 3.65 3.45 3.6 3.1 3.7 2.85 3.55 1.9 3.4 1.7 3.55 1.8 3.85 2.65 M2.2 1.1 L2.4 0.75 2.5 0.85 2.2 1.1 M1.1 3.7 L1.2 3.55 1.4 3.8 1.65 3.85 1.75 3.95 1.4 3.85 0.95 3.95 0.85 3.9 0.9 3.9 1.0 3.8 1.1 3.7 M1.55 4.2 L1.8 4.15 1.75 4.2 1.75 4.25 1.55 4.2 M-2.25 4.5 L-2.15 4.55 -2.1 4.65 -2.0 4.75 -1.9 4.8 -2.0 4.85 -2.35 5.5 -2.5 5.45 -2.65 5.35 -2.55 5.1 -2.25 4.5 M-5.2 2.25 L-5.15 2.15 -5.0 2.35 -5.2 2.25 M-4.85 2.5 L-4.8 2.4 -4.8 2.45 -4.8 2.5 -4.85 2.5 M-4.7 2.55 L-4.65 2.6 -4.6 2.55 -4.65 2.6 -4.75 2.55 -4.7 2.55" fill="#3a5528" fill-rule="evenodd" stroke="none"/>
    <path d="M1.55 1.25 L1.7 0.8 1.8 0.85 1.85 0.9 2.2 1.1 3.0 1.6 3.55 2.45 3.6 3.1 3.65 3.45 3.05 4.65 2.35 4.3 1.95 4.1 1.8 4.05 1.45 3.45 1.35 3.35 1.55 3.15 1.75 2.15 1.55 1.25 M0.25 4.15 L0.55 4.35 0.05 4.25 0.25 4.15" fill="#27391b" fill-rule="evenodd" stroke="none"/>
    <path d="M1.1 0.6 L1.15 0.6 1.15 0.75 1.35 1.85 1.35 1.95 1.1 2.9 0.45 3.65 -0.45 3.9 -0.85 4.05 -0.9 3.8 -0.95 3.7 -1.1 3.15 -0.4 3.05 0.4 2.5 0.8 1.6 0.8 1.0 0.95 0.5 1.1 0.45 1.1 0.6 M1.5 5.85 L2.3 6.35 2.6 6.5 2.25 6.45 1.75 6.35 1.6 6.25 1.5 5.85" fill="#395327" fill-rule="evenodd" stroke="none"/>
    <path d="M-0.55 2.0 L-0.1 1.35 Q0.15 1.2 0.35 1.05 L0.25 1.25 0.0 1.35 -0.5 1.95 -0.55 2.0 M-3.35 4.0 L-3.65 3.85 -3.5 3.7 -2.85 3.75 -3.1 3.8 -3.35 4.0 M1.15 0.75 L1.15 0.6 1.1 0.6 1.2 0.55 1.25 0.6 1.25 0.75 1.3 0.75 1.15 0.75 M-0.45 3.9 L0.45 3.65 1.1 2.9 1.35 1.95 1.35 1.85 1.5 1.35 1.7 2.0 1.55 3.0 1.1 3.7 1.0 3.8 0.4 4.05 Q0.35 4.1 0.25 4.15 L0.05 4.25 -0.25 4.35 -0.45 3.9" fill="#3d5a2a" fill-rule="evenodd" stroke="none"/>
    <path d="M1.45 0.75 L1.65 0.75 1.55 1.2 1.5 1.2 1.5 1.35 1.35 1.85 1.15 0.75 1.3 0.75 1.45 0.75" fill="#41602d" fill-rule="evenodd" stroke="none"/>
    <path d="M-5.85 8.5 L-6.75 8.8 -7.15 7.5 -6.9 6.55 -6.2 5.8 -5.25 5.4 -5.35 5.75 -5.7 6.05 -6.2 6.9 -6.2 7.9 -5.85 8.5 M3.65 4.05 L3.65 4.0 3.75 4.1 3.65 4.05 M3.75 3.95 L3.95 3.8 4.05 3.85 4.0 4.05 3.75 3.95 M3.8 4.15 L3.95 4.3 4.0 4.35 4.0 4.5 3.55 4.65 3.45 4.35 3.4 4.25 3.45 4.25 3.5 4.15 3.75 4.15 3.8 4.15 M3.65 4.85 L3.95 5.1 3.95 5.2 3.75 5.3 3.7 5.1 3.65 4.85 M1.8 0.85 L1.85 0.8 1.85 0.9 1.8 0.85 M-0.95 3.7 L-0.9 3.8 -0.95 3.8 -0.95 3.7 M1.55 4.2 L1.75 4.25 1.75 4.2 1.8 4.2 1.65 4.5 1.45 4.3 1.5 4.25 1.55 4.2" fill="#2a3e1d" fill-rule="evenodd" stroke="none"/>
    <path d="M-4.3 4.6 L-4.3 4.55 -4.25 4.55 -4.3 4.6 M0.8 0.15 L0.9 0.2 0.8 0.25 0.75 0.3 0.75 0.1 0.8 0.15" fill="#223217" fill-rule="evenodd" stroke="none"/>
    <path d="M-2.15 2.15 L-1.85 2.15 -1.8 2.85 -2.1 2.85 -2.25 2.8 -2.15 2.15 M-5.05 -1.75 L-5.25 -1.65 -5.9 -1.5 -6.55 -1.65 -7.2 -2.05 -6.95 -2.2 -6.9 -2.15 -6.8 -2.1 -6.75 -2.0 -6.5 -1.95 -6.35 -1.85 -6.2 -1.85 -6.15 -1.8 -6.1 -1.85 -5.65 -1.85 -5.2 -2.35 -5.1 -2.4 -5.05 -2.4 -5.05 -2.35 -4.75 -1.9 -4.95 -1.8 -5.4 -2.1 -5.05 -1.75 M0.95 0.5 L0.8 1.0 0.8 1.1 0.75 0.3 0.8 0.3 1.0 0.3 0.95 0.5" fill="#192511" fill-rule="evenodd" stroke="none"/>
    <path d="M0.95 3.95 L0.75 4.0 0.65 4.0 0.85 3.9 0.95 3.95 M0.6 4.0 L0.75 4.0 1.3 4.2 1.1 4.45 1.0 4.55 0.9 4.65 0.75 4.55 0.6 4.45 0.55 4.35 0.25 4.15 Q0.35 4.1 0.4 4.05 L0.6 4.0" fill="#476831" fill-rule="evenodd" stroke="none"/>
    <path d="M-6.95 -2.2 L-7.2 -2.5 -7.05 -3.1 -6.95 -2.25 -6.95 -2.2 M0.6 4.45 L0.75 4.55 0.5 4.5 0.6 4.45 M1.15 4.75 L1.2 4.85 1.25 4.95 1.3 4.9 1.15 4.85 1.15 4.75 M-2.1 -4.7 L-2.1 -4.7 -1.85 -4.95 -1.8 -5.0 -1.25 -5.35 -1.1 -5.4 -1.3 -5.0 -1.5 -5.0 -2.05 -4.7 -2.1 -4.7 M-1.4 -4.6 L-1.4 -4.55 -1.5 -4.4 -1.55 -4.4 -2.1 -4.4 -2.15 -4.6 -2.05 -4.6 -1.4 -4.6 M-5.65 -5.1 L-5.45 -5.25 -4.95 -5.05 -5.0 -4.95 -5.0 -4.8 -5.55 -5.1 -5.65 -5.1 M-4.75 -4.05 L-4.45 -3.65 -4.5 -3.4 -4.55 -2.8 -4.45 -2.65 -4.6 -2.7 -4.95 -2.5 -5.05 -2.45 -5.1 -2.4 -5.2 -2.35 -5.05 -2.5 -5.05 -2.55 -4.75 -2.85 -4.65 -2.75 -4.6 -2.7 -4.55 -2.75 -4.55 -2.8 -4.6 -2.85 -4.7 -2.95 -4.55 -3.1 -4.75 -4.05 M-6.85 -4.2 L-6.85 -4.25 -6.85 -4.2 M-6.8 -2.1 L-6.5 -1.95 -6.75 -2.0 -6.8 -2.1 M-6.2 -1.85 L-6.1 -1.85 -6.15 -1.8 -6.2 -1.85" fill="#304521" fill-rule="evenodd" stroke="none"/>
    <path d="M-1.1 3.15 L-0.95 3.7 -0.95 3.8 -0.9 3.8 -0.85 4.05 -0.45 3.9 -0.25 4.35 0.05 4.25 0.55 4.35 0.6 4.45 0.5 4.5 -0.3 4.4 -1.25 4.7 -1.35 4.85 -1.7 4.7 -1.95 4.6 -2.65 3.75 -2.8 3.55 -2.7 3.5 -2.6 3.4 -2.6 3.4 -2.7 3.3 -2.1 2.85 -1.8 2.85 -1.75 3.2 -1.1 3.15" fill="#43632e" fill-rule="evenodd" stroke="none"/>
    <path d="M1.3 4.2 L1.3 4.15 1.5 4.15 1.55 4.2 1.5 4.25 1.15 4.6 1.05 4.55 1.1 4.45 1.3 4.2" fill="#121a0c" fill-rule="evenodd" stroke="none"/>
    <path d="M-4.05 8.95 L-4.6 9.45 -5.15 8.85 -4.5 8.45 -3.8 8.75 -4.05 8.95 M-5.45 2.5 L-5.7 2.8 -6.1 2.5 -6.8 1.95 -6.8 1.9 -7.05 1.3 -7.35 1.3 -7.65 1.2 -7.1 1.05 -7.15 1.05 -7.1 0.95 -6.4 0.8 -6.4 0.8 -6.35 0.75 -5.55 1.05 -5.45 0.1 -5.15 -0.15 -6.3 -1.1 -6.2 -1.25 -6.0 -1.05 -5.7 -0.75 -5.1 -0.15 -4.75 0.75 -4.8 1.0 -4.85 1.75 -5.05 2.0 -5.1 2.05 -5.2 2.15 -5.4 2.4 -5.45 2.5 M1.0 4.55 L1.1 4.45 1.05 4.55 1.0 4.55 M-6.3 -1.1 L-6.3 -1.1 M-2.35 5.5 L-2.6 5.95 -2.7 5.9 -2.5 5.45 -2.35 5.5 M-3.8 8.75 L-3.8 8.75" fill="#304721" fill-rule="evenodd" stroke="none"/>
    <path d="M-4.05 3.25 L-4.1 3.25 -4.05 3.15 -4.05 3.25 M-2.7 3.5 L-2.75 3.45 -2.6 3.4 -2.6 3.4 -2.7 3.5 M-2.15 4.55 L-2.0 4.75 -2.1 4.65 -2.15 4.55" fill="#2c411e" fill-rule="evenodd" stroke="none"/>
    <path d="M1.25 4.95 L1.15 5.1 0.95 5.4 1.15 4.85 1.3 4.9 1.25 4.95 M-2.15 6.3 L-2.15 6.3 -2.65 6.05 -2.6 5.95 -2.35 5.5 -2.0 4.85 -1.9 4.8 -1.7 4.7 -1.35 4.85 -1.95 5.45 -2.15 6.3" fill="#496c32" fill-rule="evenodd" stroke="none"/>
    <path d="M3.55 4.65 L3.65 4.85 3.7 5.1 3.0 4.95 2.95 4.95 2.75 4.85 2.4 4.65 2.8 4.7 3.0 4.8 3.4 4.25 3.45 4.35 3.55 4.65" fill="#213017" fill-rule="evenodd" stroke="none"/>
    <path d="M2.05 4.9 L2.15 4.65 2.4 4.7 2.75 4.85 3.0 5.05 3.0 5.1 3.0 5.45 2.8 5.65 2.65 5.4 1.9 5.1 2.05 4.9 M2.05 5.7 L1.8 5.5 1.85 5.15 1.9 5.1 2.05 5.5 2.0 5.65 2.15 5.8 2.1 5.75 2.05 5.7" fill="#3d4327" fill-rule="evenodd" stroke="none"/>
    <path d="M1.9 5.1 L1.85 5.05 1.9 5.1 2.65 5.4 2.8 5.65 3.0 5.95 3.25 6.1 3.55 6.3 3.65 6.6 3.8 7.0 3.1 6.75 2.8 6.2 2.7 6.15 2.65 6.1 2.2 5.85 2.2 5.8 2.05 5.5 1.9 5.1 M-3.55 -3.8 L-3.65 -3.8 -3.8 -4.25 -3.7 -4.65 -3.45 -4.25 -2.85 -3.95 -3.0 -3.9 -3.55 -3.9 -3.55 -3.8" fill="#2d411f" fill-rule="evenodd" stroke="none"/>
    <path d="M1.0 8.15 L0.8 8.4 -0.35 8.75 -0.5 8.8 -0.6 8.5 -0.8 7.95 -0.9 7.5 -0.85 7.25 -0.05 7.0 0.65 6.35 1.05 5.35 1.1 5.55 1.25 6.2 1.25 5.55 1.3 5.2 1.4 5.2 1.4 5.25 1.4 5.35 1.45 5.6 1.5 5.7 1.5 5.75 1.5 5.85 1.6 6.25 1.6 6.35 1.65 6.7 1.45 7.65 1.0 8.15" fill="#334c23" fill-rule="evenodd" stroke="none"/>
    <path d="M1.4 5.25 L1.45 5.25 1.4 5.3 1.4 5.35 1.4 5.25" fill="#4a6c33" fill-rule="evenodd" stroke="none"/>
    <path d="M1.05 5.35 L1.2 5.25 1.3 5.2 1.25 5.55 1.25 6.2 1.1 5.55 1.05 5.35" fill="#385126" fill-rule="evenodd" stroke="none"/>
    <path d="M-4.05 3.05 L-4.25 2.95 -4.1 2.85 -4.05 2.8 -3.5 2.1 -3.45 2.15 -3.5 2.2 -3.85 3.2 -4.05 3.05 M-4.35 2.75 L-4.4 2.8 -4.45 2.75 -4.45 2.7 -4.6 2.55 -5.05 2.0 -4.85 1.75 -4.8 1.0 -4.55 0.85 -4.6 0.9 -4.35 1.05 -4.4 1.3 -4.0 1.4 -4.1 2.0 -3.85 2.05 -4.1 2.35 -4.15 2.5 -4.25 2.6 -4.35 2.75 M1.4 5.3 L1.5 5.3 1.5 5.35 1.45 5.6 1.4 5.35 1.4 5.3 M-3.7 -0.3 L-3.7 -0.5 -3.6 -0.4 -3.6 -0.4 -3.7 -0.3 M-4.45 2.75 L-4.45 2.75" fill="#395427" fill-rule="evenodd" stroke="none"/>
    <path d="M5.7 5.3 L5.4 5.0 6.05 5.15 6.85 5.45 7.0 5.6 7.3 5.9 7.65 6.5 6.35 6.15 5.9 5.6 5.7 5.3" fill="#1f2c15" fill-rule="evenodd" stroke="none"/>
    <path d="M4.4 5.8 L4.3 5.75 4.25 5.7 4.35 5.75 4.65 5.8 4.7 5.8 4.8 5.85 5.3 5.85 5.65 6.0 5.8 6.05 5.95 6.05 5.9 6.1 5.8 6.05 5.6 6.05 5.25 6.05 4.8 5.85 4.65 5.85 4.4 5.8 M-1.05 -4.25 L-1.0 -4.1 -0.95 -4.1 -1.0 -4.05 -1.1 -4.25 -1.05 -4.25" fill="#344b24" fill-rule="evenodd" stroke="none"/>
    <path d="M-8.05 -1.2 L-7.3 -1.4 -6.65 -1.2 -6.35 -1.15 -6.3 -1.1 -7.15 -1.3 -8.1 -1.1 -8.85 -0.5 -9.05 -0.05 -9.15 -0.25 -9.15 -0.3 -9.05 -0.4 -8.5 -0.95 -8.25 -1.2 -8.05 -1.2 M-9.05 -0.05 L-9.05 -0.05 M-7.1 0.95 L-7.0 0.05 -7.0 0.05 -6.65 -0.5 -6.65 -0.5 -6.3 -1.1 -5.15 -0.15 -5.45 0.1 -5.55 1.05 -6.35 0.75 -6.4 0.8 -6.4 0.8 -7.1 0.95" fill="#608d42" fill-rule="evenodd" stroke="none"/>
    <path d="M-10.45 0.3 L-10.65 0.15 -9.85 -0.9 -8.95 -1.3 -8.05 -1.2 -8.25 -1.2 -8.5 -0.95 -9.15 -0.6 -9.45 -0.45 -10.0 0.35 -10.05 0.6 -10.45 0.3" fill="#1f2e16" fill-rule="evenodd" stroke="none"/>
    <path d="M-8.5 -0.95 L-9.05 -0.4 -9.1 -0.5 -9.15 -0.6 -8.5 -0.95 M-2.65 -1.55 L-2.65 -1.55 -2.75 -1.45 -2.95 -1.55 -2.75 -1.6 -2.65 -1.55" fill="#517738" fill-rule="evenodd" stroke="none"/>
    <path d="M-9.05 -0.05 L-8.85 -0.5 -8.1 -1.1 -7.15 -1.3 -6.3 -1.1 -6.3 -1.1 -6.3 -1.1 -6.65 -0.5 -6.65 -0.5 -7.0 0.05 -7.0 0.05 -7.1 0.95 -7.15 1.05 -7.1 1.05 -7.65 1.2 -8.05 1.25 -9.15 0.85 -9.35 0.8 -9.05 -0.05 M-6.0 -1.05 L-5.95 -1.0 -5.65 -0.95 -5.7 -0.75 -6.0 -1.05" fill="#6fa34d" fill-rule="evenodd" stroke="none"/>
    <path d="M-4.8 5.1 L-4.75 4.95 -4.7 5.0 -3.85 5.35 -3.85 5.35 -3.5 5.5 -3.3 5.7 -3.2 5.75 -2.95 6.05 -3.0 6.55 -3.6 5.75 -4.8 5.1 M-2.65 -7.05 L-2.65 -7.3 -2.5 -6.9 -2.65 -7.05 M-3.0 6.6 L-2.8 7.05 -2.85 7.05 -2.9 7.1 -3.0 6.6" fill="#364f25" fill-rule="evenodd" stroke="none"/>
    <path d="M-3.9 -5.2 L-4.0 -5.6 -3.7 -5.6 -3.4 -5.6 -3.15 -5.6 -2.55 -5.3 -2.35 -4.95 -2.3 -4.95 -2.3 -4.9 -2.2 -4.8 -2.2 -4.75 -2.15 -4.7 -2.15 -4.6 -2.1 -4.4 -2.05 -4.3 -1.95 -3.85 -1.95 -3.85 -2.85 -3.95 -3.45 -4.25 -3.7 -4.65 -3.85 -4.8 -3.9 -5.2" fill="#3f5b2b" fill-rule="evenodd" stroke="none"/>
    <path d="M-4.3 -3.95 L-4.35 -4.45 -4.05 -5.25 -4.0 -5.25 -3.9 -5.2 -3.85 -4.8 -3.7 -4.65 -3.8 -4.25 -3.65 -3.8 -4.3 -3.95" fill="#537839" fill-rule="evenodd" stroke="none"/>
    <path d="M-1.2 -6.3 L-1.1 -6.3 -1.1 -6.25 -1.2 -6.3" fill="#324923" fill-rule="evenodd" stroke="none"/>
    <path d="M-1.95 -5.0 L-1.6 -5.3 -1.35 -5.3 -1.35 -5.3 -1.25 -5.4 -1.1 -5.4 -1.25 -5.35 -1.8 -5.0 -1.85 -4.95 -1.95 -4.95 -2.0 -5.0 -1.95 -5.0 M-1.1 -5.4 L-1.1 -5.4 -0.85 -5.45 -1.0 -5.4 -1.15 -4.8 -1.2 -4.8 -1.2 -4.85 -1.1 -5.4 M-0.6 -5.6 L-0.6 -5.55 -0.6 -5.55 -0.6 -5.6" fill="#1a2612" fill-rule="evenodd" stroke="none"/>
    <path d="M-4.4 -2.6 L-4.1 -2.45 -3.85 -2.1 -3.65 -2.0 -3.35 -1.65 -3.3 -1.65 -3.3 -1.6 -3.1 -1.4 -3.3 -1.55 -3.35 -1.6 -3.4 -1.65 -3.7 -1.9 -3.85 -2.1 -4.2 -2.3 -4.4 -2.55 -4.45 -2.65 -4.4 -2.6 M-4.7 -2.95 L-4.6 -2.85 -4.55 -2.8 -4.55 -2.75 -4.6 -2.7 -4.65 -2.75 -4.75 -2.85 -5.1 -3.2 -4.7 -2.95" fill="#537939" fill-rule="evenodd" stroke="none"/>
    <path d="M-4.5 -3.4 L-4.4 -3.0 -4.4 -2.6 -4.45 -2.65 -4.55 -2.8 -4.5 -3.4 M-4.95 -2.5 L-4.6 -2.7 -4.45 -2.65 -4.4 -2.55 -4.4 -2.1 -4.95 -2.5" fill="#3e5a2a" fill-rule="evenodd" stroke="none"/>
    <path d="M-5.9 -1.1 L-5.85 -1.1 -5.6 -1.25 -5.1 -1.55 -4.8 -1.55 -4.7 -1.55 -4.6 -1.55 -4.0 -1.6 -3.75 -1.6 -3.75 -1.5 -3.75 -0.9 -3.75 -0.75 -3.7 -0.6 -3.7 -0.5 -3.7 -0.3 -3.85 -0.25 -4.0 -0.05 -4.0 0.0 -4.05 0.0 -4.55 0.85 -4.8 1.0 -4.75 0.75 -5.1 -0.15 -5.7 -0.75 -5.65 -0.95 -5.95 -1.0 -5.95 -1.05 -5.9 -1.1" fill="#4b6e34" fill-rule="evenodd" stroke="none"/>
    <path d="M-4.65 -1.8 L-4.0 -1.6 -4.6 -1.55 -4.65 -1.6 -4.65 -1.8 M-3.75 -1.5 L-3.45 -1.4 -3.3 -1.55 -3.1 -1.4 -3.3 -1.6 -3.25 -1.7 -3.2 -1.75 -3.15 -1.7 -3.05 -1.65 -3.1 -1.45 -3.1 -1.4 -3.05 -1.15 -3.2 -0.9 -3.15 -0.85 -3.25 -0.75 -3.3 -0.75 -3.7 -0.9 -3.75 -0.9 -3.75 -1.5 M-3.2 -0.75 L-3.1 -0.8 -3.0 -0.75 -3.05 -0.75 -3.1 -0.7 -3.2 -0.75" fill="#517538" fill-rule="evenodd" stroke="none"/>
    <path d="M-1.3 -4.65 L-1.2 -4.8 -1.15 -4.8 -1.15 -4.75 -1.1 -4.5 -1.4 -4.4 -1.3 -4.65 M-0.6 -3.55 L-0.6 -3.55 -0.5 -3.7 -0.55 -3.45 -0.6 -3.5 -0.6 -3.55" fill="#4c6f34" fill-rule="evenodd" stroke="none"/>
    <path d="M-0.6 -3.5 L-0.6 -3.55 -0.6 -3.5 -0.6 -3.5" fill="#151f0e" fill-rule="evenodd" stroke="none"/>
    <path d="M-3.2 -1.8 L-3.25 -1.9 -3.2 -2.45 -3.4 -3.1 -3.6 -3.25 -3.55 -3.8 -3.55 -3.9 -3.0 -3.9 -2.2 -3.85 -1.8 -3.6 -2.5 -3.5 -2.3 -2.4 -2.5 -2.6 -3.05 -3.0 -2.95 -2.3 -2.9 -2.15 -2.9 -2.15 -2.8 -1.65 -2.65 -1.55 -2.75 -1.6 -2.95 -1.55 -3.05 -1.65 -3.15 -1.7 -3.2 -1.75 -3.2 -1.8" fill="#415f2d" fill-rule="evenodd" stroke="none"/>
    <path d="M-3.25 -1.9 L-3.6 -2.55 -3.6 -3.25 -3.4 -3.1 -3.2 -2.45 -3.25 -1.9" fill="#2a3c1d" fill-rule="evenodd" stroke="none"/>
    <path d="M-2.65 -1.55 L-2.8 -1.65 -2.9 -2.15 -2.9 -2.15 -2.95 -2.3 -3.05 -3.0 -2.5 -2.6 -2.3 -2.4 -2.3 -2.15 -2.15 -2.0 -2.35 -1.95 -2.65 -1.55 -2.65 -1.55" fill="#517638" fill-rule="evenodd" stroke="none"/>
    <path d="M-3.25 -0.75 L-3.3 -0.7 -3.2 -0.75 -3.2 -0.7 -3.25 -0.65 -3.3 -0.7 -3.3 -0.75 -3.25 -0.75" fill="#44622f" fill-rule="evenodd" stroke="none"/>
    <path d="M-3.7 -0.6 L-3.75 -0.75 -3.4 -0.55 -3.5 -0.45 -3.7 -0.6 M-3.0 -0.75 L-3.0 -0.75 -3.05 -0.75 -3.0 -0.75 M-3.25 -0.65 L-3.3 -0.65 -3.35 -0.6 -3.7 -0.9 -3.3 -0.75 -3.3 -0.7 -3.25 -0.65 M-3.2 -0.7 L-3.2 -0.75 -3.1 -0.7 -3.2 -0.7" fill="#4e7136" fill-rule="evenodd" stroke="none"/>
    <path d="M-2.2 0.7 L-2.3 0.75 -2.3 1.5 -2.85 1.6 -3.35 1.6 -3.45 1.6 -3.5 1.55 -4.35 1.05 -4.6 0.9 -4.55 0.85 -4.05 0.0 -4.0 -0.05 -3.85 -0.25 -3.7 -0.3 -3.6 -0.4 -3.0 -0.7 -2.9 -0.65 -3.3 -0.1 -2.25 0.7 -2.2 0.7" fill="#45652f" fill-rule="evenodd" stroke="none"/>
    <path d="M-4.15 2.75 L-4.2 2.8 -4.25 2.6 -4.15 2.5 -4.15 2.75 M-3.55 -0.4 L-3.6 -0.4 -3.55 -0.4 -3.55 -0.4 M-3.6 -0.4 L-3.6 -0.4" fill="#557d3a" fill-rule="evenodd" stroke="none"/>
    <path d="M-3.9 3.3 L-4.05 3.3 -4.05 3.25 -4.05 3.15 -4.05 3.05 -3.85 3.2 -3.9 3.3 M-3.85 2.05 L-3.5 2.1 -4.05 2.8 -4.1 2.35 -3.85 2.05" fill="#2f4521" fill-rule="evenodd" stroke="none"/>
    <path d="M-4.0 3.55 L-4.05 3.5 -3.95 3.45 -4.0 3.55" fill="#223318" fill-rule="evenodd" stroke="none"/>
    <path d="M-4.0 4.4 L-4.1 4.25 -4.05 4.25 -4.0 4.4 -4.0 4.4 M-3.6 4.1 L-3.4 4.0 -3.5 4.05 -3.6 4.1 M-2.7 3.75 L-2.7 3.75 -2.65 3.75 -2.7 3.75" fill="#3c5729" fill-rule="evenodd" stroke="none"/>
    <path d="M-6.1 2.5 L-6.45 3.0 -7.25 2.45 -7.55 2.2 -7.6 2.15 -7.45 2.05 -7.3 2.1 -6.8 1.9 -6.8 1.95 -6.1 2.5" fill="#4b6e33" fill-rule="evenodd" stroke="none"/>
    <path d="M-7.65 1.2 L-7.35 1.3 -7.05 1.3 -6.8 1.9 -7.3 2.1 -7.45 2.05 -7.65 2.05 -8.25 1.95 -8.7 1.6 -9.3 1.1 -9.15 0.85 -8.05 1.25 -7.65 1.2" fill="#486931" fill-rule="evenodd" stroke="none"/>
    <path d="M-7.25 2.45 L-7.75 2.9 -8.15 2.45 -8.5 2.05 -8.65 1.9 -8.7 1.6 -8.25 1.95 -7.65 2.05 -7.6 2.15 -7.55 2.2 -7.25 2.45" fill="#273a1b" fill-rule="evenodd" stroke="none"/>
    <path d="M-4.1 2.85 L-4.15 2.85 -4.15 2.75 -4.15 2.5 -4.1 2.35 -4.05 2.8 -4.1 2.85" fill="#496b32" fill-rule="evenodd" stroke="none"/>
    <path d="M-4.7 2.55 L-4.75 2.55 -4.8 2.55 -4.8 2.5 -4.8 2.45 -4.7 2.55" fill="#507637" fill-rule="evenodd" stroke="none"/>
    <path d="M-4.35 4.65 L-4.35 4.6 -4.3 4.6 -4.35 4.65 M-10.5 0.5 L-10.55 0.45 -10.45 0.3 -10.05 0.6 -10.05 0.95 -10.5 0.5 M-2.95 5.4 L-3.1 5.3 -3.0 5.35 -2.95 5.4" fill="#293d1c" fill-rule="evenodd" stroke="none"/>
    <path d="M-4.15 5.05 L-4.2 4.95 -4.1 4.9 -3.95 5.05 -4.15 5.05" fill="#6ea14c" fill-rule="evenodd" stroke="none"/>
    <path d="M-5.15 8.85 L-5.5 9.05 -5.85 8.5 -6.2 7.9 -6.2 6.9 -5.7 6.05 -5.35 5.75 -5.55 6.55 -5.4 7.55 -4.85 8.3 -4.5 8.45 -5.15 8.85" fill="#57803c" fill-rule="evenodd" stroke="none"/>
    <path d="M-1.8 7.1 L-1.45 7.15 -1.5 7.2 -1.85 7.15 -1.8 7.1" fill="#1c2813" fill-rule="evenodd" stroke="none"/>
    <path d="M-4.7 5.0 L-4.7 4.9 -4.15 5.05 -3.95 5.05 -3.2 5.2 -3.1 5.3 -2.95 5.4 -2.75 5.55 -2.95 5.95 -2.95 6.05 -3.2 5.75 -3.35 5.55 -3.5 5.5 -3.85 5.35 -3.85 5.35 -4.7 5.0" fill="#213016" fill-rule="evenodd" stroke="none"/>
    <path d="M-0.35 8.75 L-0.45 9.4 -0.85 9.95 -2.5 10.0 -3.0 9.5 -2.6 9.55 -2.6 9.85 -2.35 9.55 -1.85 9.55 -0.8 8.45 -0.8 8.25 -0.6 8.5 -0.5 8.8 -0.35 8.75" fill="#213117" fill-rule="evenodd" stroke="none"/>
    <path d="M-10.1 1.65 L-10.2 1.65 -10.45 1.3 -10.1 1.65 -10.1 1.65" fill="#4f7437" fill-rule="evenodd" stroke="none"/>
    <path d="M4.7 -6.25 L4.4 -6.05 4.3 -5.9 4.05 -5.9 3.95 -5.8 4.2 -6.1 4.25 -6.75 3.7 -6.3 3.55 -5.65 3.45 -5.9 3.05 -5.8 3.1 -5.95 2.3 -7.1 1.65 -7.2 1.5 -7.15 1.4 -7.65 1.4 -7.65 1.6 -7.95 1.0 -7.85 0.4 -8.2 0.4 -8.25 0.2 -8.3 0.15 -8.35 0.1 -8.35 0.05 -8.35 0.2 -8.7 0.05 -9.3 -0.35 -10.0 -0.9 -9.4 -1.1 -8.75 -1.05 -8.55 -1.4 -8.7 -1.9 -7.9 -1.9 -7.25 -1.7 -6.9 -1.75 -6.7 -2.25 -6.7 -2.3 -6.75 -2.5 -6.9 -2.65 -7.3 -2.65 -7.05 -3.0 -7.25 -3.5 -6.55 -3.55 -5.85 -3.5 -5.8 -3.7 -5.6 -4.0 -5.6 -3.9 -5.2 -4.0 -5.25 -4.05 -5.25 -4.35 -4.45 -4.3 -3.95 -4.4 -3.95 -4.45 -3.9 -4.35 -4.55 -4.65 -4.85 -4.35 -5.6 -4.5 -6.0 -4.4 -6.2 -4.5 -6.85 -4.9 -7.4 -6.05 -7.6 -6.7 -6.65 -6.6 -6.25 -7.25 -5.15 -7.05 -4.55 -6.8 -4.3 -6.8 -4.25 -6.95 -4.45 -7.3 -4.6 -7.1 -4.3 -6.85 -4.2 -7.2 -3.75 -7.05 -3.1 -7.2 -2.5 -6.95 -2.2 -7.2 -2.05 -6.55 -1.65 -5.9 -1.5 -5.25 -1.65 -5.05 -1.75 -4.95 -1.65 -4.8 -1.55 -5.1 -1.55 -5.6 -1.25 -5.75 -1.3 -5.85 -1.1 -5.9 -1.1 -6.55 -1.4 -6.65 -1.2 -7.3 -1.4 -8.05 -1.2 -8.95 -1.3 -9.85 -0.9 -10.65 0.15 -10.45 0.3 -10.55 0.45 -10.5 0.5 -10.9 0.8 -10.45 1.3 -10.2 1.65 -10.1 1.65 -10.15 1.7 -10.1 1.7 -9.95 1.85 -9.75 1.9 -9.65 2.25 -9.3 2.2 -9.25 2.55 -8.15 2.45 -7.75 2.9 -7.25 2.45 -6.45 3.0 -6.1 2.5 -5.7 2.8 -5.45 2.5 -4.45 2.7 -4.45 2.75 -4.45 2.75 -4.4 2.8 -4.35 2.75 -4.25 2.75 -4.25 2.6 -4.2 2.8 -4.15 2.75 -4.15 2.85 -4.1 2.85 -4.25 2.95 -4.05 3.05 -4.05 3.15 -4.1 3.25 -4.05 3.25 -4.05 3.3 -3.9 3.3 -3.95 3.45 -4.05 3.5 -4.0 3.55 -4.0 3.65 -3.5 3.7 -3.65 3.85 -3.35 4.0 -3.4 4.0 -3.6 4.1 -4.05 4.1 -4.05 4.25 -4.1 4.25 -4.0 4.4 -4.25 4.55 -4.3 4.55 -4.3 4.6 -4.3 4.6 -4.35 4.6 -4.35 4.65 -4.4 4.65 -4.1 4.9 -4.2 4.95 -4.15 5.05 -4.7 4.9 -4.7 5.0 -4.75 4.95 -4.8 5.1 -4.9 5.0 -4.95 5.2 -5.15 5.1 -5.25 5.4 -6.2 5.8 -6.9 6.55 -7.15 7.5 -6.75 8.8 -5.85 8.5 -5.5 9.05 -5.15 8.85 -4.6 9.45 -4.05 8.95 -3.65 9.3 -3.6 9.25 -3.4 9.5 -3.0 9.5 -2.5 10.0 -0.85 9.95 -0.45 9.4 -0.35 8.75 0.8 8.4 1.0 8.15 2.45 8.1 2.5 8.0 2.85 8.3 2.95 8.35 2.95 8.4 3.75 9.45 3.65 8.35 4.65 7.7 4.7 6.25 4.3 5.9 4.3 5.75 4.4 5.8 4.7 6.15 5.15 6.65 5.15 6.7 5.6 6.05 5.25 6.05 4.8 5.85 4.65 5.85 4.7 6.15 4.85 6.75 5.0 7.0 5.1 7.5 5.55 8.05 7.1 8.0 8.15 6.8 8.0 6.15 7.75 5.85 7.95 5.9 8.6 5.8 9.0 5.05 9.8 4.85 9.95 3.7 9.85 3.6 10.3 3.35 10.75 2.55 9.95 2.0 9.3 2.05 8.75 2.35 8.35 2.85 8.45 2.6 8.45 2.55 8.8 2.15 8.8 2.1 8.9 2.05 9.05 1.95 8.85 1.95 8.8 2.05 8.8 1.45 8.5 0.9 8.4 0.8 8.45 0.65 8.95 0.25 9.55 -0.05 8.95 0.2 8.65 0.25 8.85 -0.1 8.6 -0.9 8.9 -1.05 9.25 -1.6 9.25 -1.7 9.5 -1.7 10.15 -1.9 10.6 -2.4 10.9 -3.1 10.5 -3.1 10.8 -3.55 10.15 -3.4 9.85 -3.05 9.5 -2.95 9.35 -2.8 9.05 -2.7 9.0 -2.65 8.9 -2.55 8.35 -2.55 8.25 -2.5 8.25 -2.65 8.0 -2.9 7.65 -2.9 7.6 -2.85 7.6 -2.9 7.3 -2.8 7.25 -2.85 7.05 -2.9 7.0 -3.0 7.05 -3.0 7.65 -3.25 8.1 -3.75 8.15 -4.8 7.15 -5.15 6.5 -4.95 6.2 -4.6 6.5 -5.55 6.55 -5.6 6.8 -6.2 6.5 -7.25 5.45 -7.2 4.95 -6.8 4.7 -6.25 M4.95 -3.6 L4.95 -3.85 5.4 -3.55 5.15 -3.45 4.95 -3.6 M4.95 -4.05 L4.95 -4.1 5.0 -4.1 4.95 -4.05 M3.65 -1.35 L3.8 -1.3 3.45 -1.15 3.4 -1.15 3.55 -1.2 3.55 -1.2 3.65 -1.35 M4.75 -2.1 L4.65 -2.1 4.45 -2.15 4.8 -2.4 5.25 -2.35 5.0 -2.35 4.75 -2.1 M6.2 -4.6 L6.2 -4.6 M5.55 -3.5 L5.65 -3.5 5.5 -3.4 5.55 -3.5 M5.0 -2.8 L5.15 -2.55 4.85 -2.45 4.95 -2.5 4.95 -2.75 5.0 -2.8 M5.75 -1.55 L5.55 -1.6 5.65 -1.65 5.75 -1.55 M6.95 1.55 L6.95 1.45 6.9 1.55 6.95 1.55 M6.55 1.5 L6.35 1.5 6.25 1.25 6.35 1.25 6.65 1.2 6.55 1.5 M5.7 4.7 L5.75 4.7 6.1 4.8 5.85 4.65 6.3 4.6 6.65 4.3 7.3 5.65 7.0 5.6 6.85 5.45 6.05 5.15 6.1 5.1 5.7 4.7 M4.75 4.2 L4.9 4.3 4.7 4.35 4.45 4.15 4.15 4.15 4.1 4.1 4.0 4.05 4.05 3.85 4.3 4.05 4.75 4.2 M4.0 4.35 L4.15 4.4 4.0 4.5 4.0 4.35 M3.95 5.1 L4.2 5.25 4.3 5.6 4.3 5.65 4.35 5.75 4.25 5.7 4.05 5.45 3.7 5.45 3.2 5.65 3.25 5.55 3.35 5.55 3.4 5.55 3.75 5.3 3.95 5.2 3.95 5.1 M4.5 5.4 L4.75 5.5 4.8 5.5 5.4 5.45 5.7 5.3 5.9 5.6 5.65 6.0 5.3 5.85 4.8 5.85 4.7 5.8 4.65 5.8 4.6 5.5 4.5 5.4 M1.65 4.5 L2.05 4.9 1.9 5.1 1.85 5.05 1.9 5.1 1.85 5.15 1.8 5.5 2.05 5.7 1.95 5.7 1.55 5.45 1.55 5.35 1.5 5.35 1.5 5.3 1.4 5.3 1.45 5.25 1.4 5.25 1.4 5.2 1.2 5.25 1.05 5.35 1.15 5.1 1.25 4.95 1.2 4.85 1.15 4.75 1.2 4.6 1.15 4.6 1.5 4.25 1.45 4.3 1.65 4.5 M3.2 5.85 L3.15 5.75 3.0 5.95 3.05 5.95 3.2 5.85 M2.65 6.1 L2.7 6.15 2.3 6.35 1.5 5.85 1.5 5.75 1.95 5.75 2.5 6.1 2.65 6.1 M-0.8 7.95 L-0.6 8.5 -0.8 8.25 -0.85 8.05 -0.8 7.95 M-1.15 7.25 L-1.05 7.3 -1.0 7.3 -0.95 7.65 -1.25 7.3 -1.15 7.25 M-1.7 -6.7 L-1.65 -6.7 -1.65 -6.75 -1.7 -6.7 M-4.75 -1.9 L-4.7 -1.8 -4.65 -1.8 -4.65 -1.6 -4.6 -1.55 -4.7 -1.55 -4.85 -1.75 -4.95 -1.8 -4.75 -1.9 Z" fill="none" stroke="#000000" stroke-linecap="round" stroke-linejoin="round" stroke-opacity="0.4509804" stroke-width="1.0"/>
  </g>
</svg>
