<?xml version="1.0" encoding="UTF-8" standalone="no"?>
<svg xmlns:xlink="http://www.w3.org/1999/xlink" height="3.95px" width="3.5px" xmlns="http://www.w3.org/2000/svg">
  <g transform="matrix(1.0, 0.0, 0.0, 1.0, 1.75, 1.95)">
    <path d="M-1.2 -1.25 L-1.2 -1.2 -1.1 -1.15 -1.05 -1.1 -1.05 -1.05 -1.1 -1.1 -1.2 -1.1 -1.2 -1.1 -1.25 -1.1 -1.25 -1.2 -1.3 -1.15 -1.3 -1.15 Q-1.35 -1.15 -1.35 -1.15 L-1.35 -1.25 -1.5 -1.3 -1.5 -1.3 Q-1.45 -1.35 -1.45 -1.35 L-1.4 -1.35 -1.4 -1.35 -1.35 -1.3 -1.3 -1.35 -1.25 -1.3 -1.25 -1.3 -1.2 -1.25 -1.2 -1.25 M-1.35 -1.3 L-1.35 -1.3 M-1.25 -1.3 L-1.25 -1.3" fill="#b5925e" fill-rule="evenodd" stroke="none"/>
    <path d="M-0.55 -0.65 L-0.5 -0.6 -0.5 -0.55 -0.55 -0.55 -0.55 -0.5 -0.6 -0.45 -0.65 -0.35 -0.65 -0.35 -0.6 -0.35 -0.6 -0.3 -0.7 -0.25 -0.8 -0.15 -0.95 -0.1 -1.05 -0.1 -0.95 -0.15 -0.9 -0.15 Q-0.85 -0.15 -0.8 -0.25 L-0.75 -0.3 -0.75 -0.35 -0.7 -0.35 -0.65 -0.45 -0.65 -0.5 -0.7 -0.55 -0.75 -0.6 -1.0 -0.75 -1.05 -0.8 -1.25 -0.95 -1.25 -1.0 -1.3 -1.0 Q-1.3 -0.95 -1.3 -0.95 L-1.3 -1.05 -1.35 -1.05 Q-1.4 -1.05 -1.45 -1.1 L-1.45 -1.15 -1.45 -1.15 -1.45 -1.2 -1.5 -1.25 -1.5 -1.3 -1.5 -1.3 -1.5 -1.3 -1.35 -1.25 -1.35 -1.15 Q-1.35 -1.15 -1.3 -1.15 L-1.3 -1.15 -1.25 -1.2 -1.25 -1.1 -1.2 -1.1 -1.15 -1.05 -1.05 -0.9 -1.05 -0.85 -1.0 -0.85 -0.95 -0.8 -0.65 -0.6 -0.6 -0.55 -0.55 -0.55 -0.55 -0.55 Q-0.55 -0.55 -0.55 -0.6 L-0.55 -0.65 M-1.35 -1.05 L-1.35 -1.05 M-1.05 -0.8 L-1.05 -0.8 M-0.65 -0.5 L-0.65 -0.5 M-0.6 -0.35 L-0.6 -0.35" fill="#6d5042" fill-rule="evenodd" stroke="none"/>
    <path d="M-0.6 -0.7 L-0.55 -0.65 -0.55 -0.6 Q-0.55 -0.55 -0.55 -0.55 L-0.55 -0.55 -0.6 -0.55 -0.65 -0.6 -0.95 -0.8 -1.0 -0.85 -1.05 -0.85 -1.05 -0.9 -1.15 -1.05 -1.05 -0.95 -1.0 -0.95 -1.0 -0.9 -0.95 -0.9 -0.95 -0.85 -0.75 -0.7 -0.75 -0.85 -0.7 -0.8 -0.6 -0.7 M-0.5 -0.6 L-0.4 -0.75 -0.3 -0.85 -0.2 -0.8 -0.3 -0.7 -0.3 -0.7 -0.4 -0.6 -0.4 -0.55 -0.35 -0.55 -0.35 -0.5 -0.05 -0.3 0.1 -0.15 0.15 -0.1 0.15 -0.1 0.45 0.15 0.65 0.35 0.7 0.4 0.75 0.45 0.8 0.45 0.85 0.5 0.9 0.55 0.8 0.5 0.75 0.45 0.65 0.4 0.6 0.3 0.4 0.15 0.35 0.15 0.3 0.1 0.1 -0.1 0.1 -0.1 0.05 -0.15 -0.05 -0.25 -0.05 -0.25 Q-0.1 -0.3 -0.15 -0.3 L-0.2 -0.2 -0.3 -0.3 -0.3 -0.3 -0.35 -0.35 -0.35 -0.35 -0.4 -0.4 -0.45 -0.45 -0.45 -0.45 -0.5 -0.45 -0.5 -0.45 -0.55 -0.4 -0.6 -0.45 -0.55 -0.5 -0.55 -0.55 -0.5 -0.55 -0.5 -0.6 M0.1 -0.15 L0.1 -0.15 M-1.25 -0.95 L-1.25 -0.95 -1.3 -0.8 -1.35 -0.75 -1.4 -0.5 -1.4 -0.5 Q-1.35 -0.35 -1.2 -0.25 -1.1 -0.15 -0.9 -0.15 -0.85 -0.15 -0.85 -0.2 L-0.8 -0.25 Q-0.85 -0.15 -0.9 -0.15 L-0.95 -0.15 -1.05 -0.1 -1.1 -0.1 -1.15 -0.1 -1.35 -0.25 -1.45 -0.45 -1.45 -0.6 -1.45 -0.75 -1.35 -0.95 -1.35 -0.95 -1.3 -0.95 Q-1.3 -0.95 -1.3 -1.0 L-1.25 -1.0 -1.25 -0.95 M-0.75 -0.85 L-0.75 -0.85 M-0.05 -0.3 L-0.05 -0.3" fill="#b58e75" fill-rule="evenodd" stroke="none"/>
    <path d="M-0.95 -1.05 L-0.95 -1.0 -0.9 -1.0 -0.85 -0.95 -0.85 -0.95 -0.8 -0.9 -0.8 -0.9 -0.75 -0.85 -0.75 -0.7 -0.95 -0.85 -0.95 -0.9 -1.0 -0.9 -1.0 -0.95 -1.05 -0.95 -1.15 -1.05 -1.2 -1.1 -1.2 -1.1 -1.1 -1.1 -1.05 -1.05 -1.05 -1.1 -0.95 -1.05 M-0.75 -0.85 L-0.75 -0.85" fill="#c6b08f" fill-rule="evenodd" stroke="none"/>
    <path d="M1.3 1.1 L1.45 1.25 1.65 1.35 1.65 1.45 1.65 1.5 1.6 1.5 1.35 1.25 1.1 1.05 1.05 1.05 1.0 1.0 0.95 0.95 0.85 0.9 0.85 0.85 0.9 0.85 1.1 0.95 1.2 1.05 1.3 1.1 M-0.3 -0.3 L-0.25 -0.2 -0.3 -0.2 -0.4 -0.25 -0.45 -0.25 -0.45 -0.3 -0.5 -0.3 -0.5 -0.35 -0.55 -0.35 -0.6 -0.35 -0.65 -0.35 -0.65 -0.35 -0.6 -0.45 -0.55 -0.4 -0.5 -0.45 -0.5 -0.45 -0.45 -0.45 -0.45 -0.45 -0.4 -0.4 -0.35 -0.35 -0.35 -0.35 -0.3 -0.3 -0.3 -0.3" fill="#805e4d" fill-rule="evenodd" stroke="none"/>
    <path d="M-0.15 -0.3 L-0.1 -0.2 -0.05 -0.2 0.0 -0.15 0.35 0.15 0.4 0.2 0.6 0.35 0.7 0.5 0.75 0.55 0.8 0.6 0.75 0.6 0.7 0.55 0.6 0.5 0.55 0.5 0.55 0.45 0.5 0.4 0.45 0.35 0.35 0.25 0.0 0.0 -0.2 -0.2 -0.15 -0.3" fill="#bca27a" fill-rule="evenodd" stroke="none"/>
    <path d="M-0.15 -0.3 Q-0.1 -0.3 -0.05 -0.25 L-0.05 -0.25 0.05 -0.15 0.1 -0.1 0.1 -0.1 0.3 0.1 0.35 0.15 0.4 0.15 0.6 0.3 0.65 0.4 0.75 0.45 0.8 0.5 0.9 0.55 0.95 0.6 1.05 0.7 1.1 0.7 1.1 0.75 1.2 0.8 1.6 1.2 1.65 1.2 1.65 1.35 1.45 1.25 1.3 1.1 1.45 1.15 1.4 1.05 1.35 1.05 1.3 1.0 1.15 0.9 1.1 0.8 1.05 0.8 1.0 0.75 0.95 0.7 Q0.85 0.6 0.75 0.55 L0.7 0.5 0.6 0.35 0.4 0.2 0.35 0.15 0.0 -0.15 -0.05 -0.2 -0.1 -0.2 -0.15 -0.3" fill="#6d5f44" fill-rule="evenodd" stroke="none"/>
    <path d="M1.3 1.1 L1.2 1.05 1.1 0.95 0.9 0.85 0.85 0.85 0.8 0.85 0.8 0.8 0.75 0.8 0.75 0.75 0.7 0.75 0.7 0.7 0.35 0.45 0.35 0.4 0.25 0.35 0.05 0.15 -0.3 -0.15 -0.3 -0.15 -0.4 -0.25 -0.3 -0.2 -0.25 -0.2 -0.3 -0.3 -0.2 -0.2 0.0 0.0 0.35 0.25 0.45 0.35 0.5 0.4 0.55 0.45 0.55 0.5 0.6 0.5 0.7 0.55 0.85 0.7 0.85 0.75 0.9 0.75 0.95 0.8 1.1 0.95 1.2 1.0 1.25 1.05 1.3 1.1" fill="#a18b64" fill-rule="evenodd" stroke="none"/>
    <path d="M0.75 0.55 Q0.85 0.6 0.95 0.7 L1.0 0.75 1.05 0.8 1.1 0.8 1.15 0.9 1.3 1.0 1.35 1.05 1.4 1.05 1.45 1.15 1.3 1.1 1.25 1.05 1.2 1.0 1.1 0.95 0.95 0.8 0.9 0.75 0.85 0.75 0.85 0.7 0.7 0.55 0.75 0.6 0.8 0.6 0.75 0.55" fill="#877554" fill-rule="evenodd" stroke="none"/>
    <path d="M1.55 -1.85 Q1.6 -1.85 1.6 -1.9 L1.65 -1.9 1.7 -1.85 1.7 -1.8 1.7 -1.5 1.65 -1.6 Q1.6 -1.7 1.65 -1.75 L1.6 -1.8 1.55 -1.85 1.55 -1.85" fill="#ab7e4a" fill-rule="evenodd" stroke="none"/>
    <path d="M1.7 -1.5 L1.7 -1.15 1.6 -1.15 1.5 -1.2 Q1.45 -1.2 1.5 -1.2 L1.5 -1.25 1.4 -1.25 1.3 -1.35 1.3 -1.35 1.35 -1.35 1.4 -1.4 1.35 -1.45 1.35 -1.45 1.4 -1.5 1.25 -1.5 1.3 -1.55 1.3 -1.6 Q1.25 -1.6 1.2 -1.65 L1.2 -1.7 Q1.25 -1.7 1.3 -1.7 L1.35 -1.7 Q1.35 -1.75 1.4 -1.8 L1.45 -1.8 1.45 -1.8 1.35 -1.8 1.25 -1.85 1.3 -1.9 1.35 -1.9 1.35 -1.9 1.45 -1.9 1.55 -1.85 1.6 -1.8 1.65 -1.75 Q1.6 -1.7 1.65 -1.6 L1.7 -1.5" fill="#c2935a" fill-rule="evenodd" stroke="none"/>
    <path d="M1.35 -1.9 L1.35 -1.9 1.35 -1.95 1.55 -1.85 1.55 -1.85 1.45 -1.9 1.35 -1.9" fill="#89673f" fill-rule="evenodd" stroke="none"/>
    <path d="M1.7 -1.15 L1.7 -1.15 Q1.65 -1.15 1.6 -1.1 L1.55 -1.15 1.5 -1.15 Q1.45 -1.1 1.5 -1.05 L1.7 -0.95 1.7 -0.9 1.7 -0.8 1.6 -0.8 1.45 -0.8 Q1.45 -0.85 1.45 -0.9 L1.5 -0.9 1.4 -0.9 1.4 -0.75 1.4 -0.65 1.35 -0.65 1.3 -0.65 1.3 -0.6 1.25 -0.55 1.15 -0.6 1.05 -0.85 0.95 -1.1 0.9 -1.15 0.9 -1.2 0.9 -1.25 1.0 -1.3 1.05 -1.35 1.0 -1.35 1.0 -1.35 0.9 -1.3 0.9 -1.3 0.75 -1.3 0.75 -1.3 0.65 -1.35 0.6 -1.35 0.55 -1.35 Q0.5 -1.4 0.45 -1.4 L0.4 -1.45 0.35 -1.45 0.35 -1.55 0.3 -1.6 0.3 -1.55 0.25 -1.6 0.25 -1.75 0.3 -1.75 0.4 -1.8 Q0.45 -1.8 0.45 -1.85 L0.5 -1.85 0.55 -1.85 0.6 -1.9 Q0.65 -1.9 0.65 -1.9 L0.65 -1.85 0.6 -1.8 0.55 -1.8 0.5 -1.8 0.55 -1.7 0.6 -1.7 0.65 -1.7 0.7 -1.7 0.7 -1.8 0.75 -1.85 0.75 -1.9 0.8 -1.95 0.8 -1.95 0.85 -1.95 0.85 -1.9 0.9 -1.9 0.9 -1.9 0.95 -1.9 0.95 -1.9 0.95 -1.9 1.0 -1.9 1.0 -1.85 1.1 -1.85 1.2 -1.85 1.05 -1.85 1.25 -1.85 1.35 -1.8 1.45 -1.8 1.45 -1.8 1.4 -1.8 Q1.35 -1.75 1.35 -1.7 L1.3 -1.7 Q1.25 -1.7 1.2 -1.7 L1.2 -1.65 Q1.25 -1.6 1.3 -1.6 L1.3 -1.55 1.25 -1.5 1.4 -1.5 1.35 -1.45 1.35 -1.45 1.4 -1.4 1.35 -1.35 1.3 -1.35 1.3 -1.35 1.4 -1.25 1.5 -1.25 1.5 -1.2 Q1.45 -1.2 1.5 -1.2 L1.6 -1.15 1.7 -1.15" fill="#d09d61" fill-rule="evenodd" stroke="none"/>
    <path d="M0.95 -1.9 L1.0 -1.9 1.3 -1.9 1.25 -1.85 1.05 -1.85 1.2 -1.85 1.1 -1.85 1.0 -1.85 1.0 -1.9 0.95 -1.9 0.95 -1.9" fill="#6a5233" fill-rule="evenodd" stroke="none"/>
    <path d="M0.9 -1.3 L0.9 -1.3 1.0 -1.35 1.0 -1.35 1.05 -1.35 1.0 -1.3 0.9 -1.25 0.9 -1.2 0.9 -1.15 0.9 -1.15 0.95 -1.1 1.05 -0.85 1.15 -0.6 1.2 -0.5 1.25 -0.4 1.25 -0.35 1.3 -0.35 1.25 -0.25 1.2 -0.2 1.1 -0.15 1.05 -0.1 1.0 -0.1 1.0 -0.1 0.95 -0.1 0.9 -0.1 0.85 -0.05 0.75 -0.1 0.7 -0.1 0.6 -0.1 0.55 -0.15 0.55 -0.2 0.5 -0.2 0.45 -0.25 0.45 -0.3 0.4 -0.35 0.45 -0.4 0.55 -0.6 0.65 -0.85 0.65 -0.9 0.75 -1.05 0.8 -1.25 0.8 -1.25 0.75 -1.25 0.7 -1.25 Q0.6 -1.25 0.55 -1.3 L0.45 -1.35 0.4 -1.35 0.4 -1.45 0.45 -1.4 Q0.5 -1.4 0.55 -1.35 L0.65 -1.35 0.75 -1.3 0.75 -1.3 0.8 -1.3 0.9 -1.3 M0.85 -0.05 L0.85 -0.05 0.85 -0.05 M1.2 -0.2 L1.2 -0.2 M-0.3 -0.7 L-0.3 -0.7 -0.25 -0.65 Q-0.25 -0.65 -0.2 -0.7 L-0.15 -0.7 -0.1 -0.7 -0.1 -0.65 -0.15 -0.6 -0.15 -0.6 -0.2 -0.65 -0.2 -0.6 Q-0.2 -0.55 -0.25 -0.55 L-0.25 -0.5 -0.2 -0.45 -0.2 -0.5 -0.15 -0.5 -0.05 -0.55 -0.05 -0.35 -0.05 -0.3 -0.35 -0.5 -0.35 -0.55 -0.4 -0.55 -0.4 -0.6 -0.3 -0.7 -0.3 -0.7 M-0.05 -0.85 L0.05 -0.9 0.05 -0.8 0.05 -0.55 0.1 -0.4 0.1 -0.15 -0.05 -0.3 -0.05 -0.35 -0.05 -0.55 -0.05 -0.75 -0.05 -0.85 M0.15 -0.1 L0.25 -0.1 0.25 -0.05 0.35 -0.05 Q0.4 0.0 0.45 0.0 L0.45 0.0 0.5 0.0 0.55 0.05 0.65 0.1 0.65 0.15 0.45 0.15 0.6 0.15 Q0.6 0.2 0.65 0.2 L0.7 0.2 0.7 0.3 0.75 0.35 0.7 0.4 0.65 0.35 0.45 0.15 0.15 -0.1 M0.85 0.5 L0.9 0.5 0.95 0.5 1.0 0.45 0.95 0.6 0.9 0.55 0.85 0.5 M0.85 -1.15 L0.65 -0.75 0.45 -0.35 0.45 -0.35 Q0.45 -0.3 0.45 -0.3 L1.15 -0.3 1.2 -0.3 Q1.25 -0.3 1.25 -0.35 L1.05 -0.75 0.85 -1.15 0.85 -1.15 0.85 -1.15 M0.35 -0.05 L0.35 -0.05 M0.45 1.0 L0.4 1.0 0.35 1.0 0.25 0.9 0.1 0.9 0.25 0.75 0.25 0.8 0.3 0.8 0.35 0.75 0.35 0.7 0.3 0.7 0.3 0.75 0.3 0.7 0.25 0.7 Q0.25 0.65 0.25 0.7 L0.2 0.75 0.15 0.75 0.15 0.7 0.1 0.75 0.1 0.7 0.05 0.75 0.0 0.8 0.0 0.85 0.05 0.85 0.05 0.9 0.0 0.9 -0.05 0.9 -0.1 0.9 -0.1 0.95 -0.15 1.0 -0.2 0.95 -0.2 1.05 -0.2 1.1 -0.25 1.05 -0.35 1.1 -0.4 1.15 -0.45 1.15 -0.5 1.15 Q-0.5 1.2 -0.55 1.15 L-0.6 1.15 Q-0.65 1.1 -0.65 1.15 L-0.65 1.2 -0.7 1.15 -0.75 1.15 Q-0.8 1.15 -0.8 1.2 L-0.85 1.2 -0.9 1.15 -0.95 1.2 -0.95 1.2 -1.0 1.15 -0.95 1.1 -0.95 1.1 -1.0 1.05 -0.95 1.0 -1.0 1.0 -1.0 1.0 -1.05 1.05 -1.1 1.05 Q-1.05 0.85 -0.9 0.75 L-0.95 0.6 -1.0 0.5 -1.0 0.45 -1.0 0.45 Q-1.0 0.4 -1.0 0.4 L-1.05 0.5 -1.05 0.4 -1.05 0.35 Q-1.0 0.35 -0.95 0.3 L-1.0 0.3 -1.0 0.25 -0.95 0.25 -0.85 0.25 Q-0.75 0.25 -0.7 0.2 -0.65 0.15 -0.65 0.2 L-0.55 0.2 -0.5 0.15 -0.45 0.15 -0.45 0.15 0.05 0.15 0.25 0.35 0.35 0.4 0.3 0.4 0.3 0.45 0.3 0.5 0.35 0.45 0.7 0.7 0.65 0.8 0.7 0.75 0.75 0.75 0.7 0.75 0.7 0.8 0.75 0.75 0.75 0.8 0.8 0.8 0.75 0.8 0.7 0.85 0.65 0.9 0.6 0.95 0.65 0.9 0.65 0.8 Q0.55 0.85 0.5 0.95 L0.45 0.95 Q0.45 0.95 0.45 1.0 M-0.3 -0.15 L0.05 0.15 -0.65 0.15 -0.6 0.1 Q-0.45 0.0 -0.25 -0.05 L-0.35 -0.1 -0.3 -0.1 -0.3 -0.15 M0.2 0.45 L0.2 0.4 0.15 0.45 0.2 0.45 M0.25 0.45 L0.25 0.4 0.2 0.5 0.25 0.45 0.3 0.4 0.25 0.45 M0.1 0.45 L0.1 0.4 0.05 0.5 0.1 0.45 0.1 0.45 0.1 0.5 0.15 0.45 Q0.15 0.4 0.1 0.45 M0.0 0.45 L0.0 0.45 0.0 0.45 0.0 0.45 0.05 0.45 0.05 0.4 0.0 0.45 -0.05 0.4 -0.05 0.4 -0.1 0.5 -0.05 0.45 0.0 0.45 M0.45 0.75 L0.45 0.75 0.4 0.8 0.5 0.75 0.45 0.75 M0.4 0.75 L0.4 0.75 M0.2 0.75 L0.2 0.75 M0.15 0.75 L0.15 0.75 M0.65 0.75 L0.65 0.7 0.6 0.8 0.65 0.75 M-1.0 0.45 L-0.95 0.4 -1.0 0.4 -1.0 0.45 M-0.85 0.7 L-0.9 0.75 -0.85 0.7 -0.85 0.65 -0.85 0.7 M-0.85 0.75 L-0.9 0.75 -0.9 0.75 -0.9 0.8 -0.85 0.75 -0.8 0.7 -0.85 0.75 M-0.9 0.75 L-0.9 0.75 M-0.25 0.45 L-0.25 0.4 -0.3 0.45 -0.3 0.45 -0.25 0.45 -0.25 0.4 -0.25 0.45 M-0.3 0.4 L-0.35 0.45 -0.35 0.5 -0.3 0.45 -0.3 0.4 M-0.45 0.45 L-0.45 0.4 -0.45 0.45 -0.45 0.45 -0.5 0.45 -0.5 0.5 -0.5 0.45 -0.45 0.45 M-0.2 0.55 L-0.15 0.5 -0.15 0.4 -0.2 0.5 -0.2 0.55 M-0.75 0.35 L-0.7 0.35 -0.75 0.3 -0.8 0.3 -0.8 0.35 -0.85 0.35 -0.85 0.4 -0.9 0.45 -0.9 0.45 Q-0.9 0.5 -0.85 0.5 L-0.85 0.45 -0.8 0.45 -0.8 0.5 -0.8 0.45 -0.8 0.4 -0.75 0.35 -0.75 0.35 M-0.7 0.45 L-0.7 0.45 -0.75 0.5 -0.7 0.45 -0.7 0.45 -0.65 0.45 -0.65 0.45 -0.7 0.45 M-0.75 0.45 L-0.75 0.4 -0.75 0.45 M-0.55 0.75 L-0.55 0.7 -0.6 0.75 -0.6 0.75 -0.55 0.75 M-0.6 0.75 L-0.6 0.7 -0.65 0.75 -0.6 0.75 M-0.75 0.75 L-0.75 0.7 -0.8 0.8 -0.75 0.75 M-0.6 0.8 L-0.5 0.7 -0.5 0.65 -0.55 0.7 -0.6 0.8 M-0.8 0.7 L-0.8 0.75 -0.8 0.7 M-0.85 1.0 L-0.9 1.05 -0.85 1.0 M-0.8 1.0 L-0.85 1.1 -0.8 1.0 -0.75 0.95 -0.8 1.0 M-0.65 1.05 L-0.65 1.0 -0.65 1.05 M-0.6 1.05 L-0.6 1.1 -0.55 1.05 -0.55 1.0 -0.6 1.05 M-0.55 1.0 L-0.55 1.05 -0.5 1.0 -0.55 1.0 -0.55 1.0 M-0.75 1.05 L-0.75 1.0 -0.8 1.1 -0.75 1.05 M-0.65 1.0 L-0.65 1.0 -0.7 1.0 -0.7 1.05 -0.65 1.0 M-0.75 1.1 L-0.7 1.05 -0.7 1.0 -0.75 1.1 M-0.1 0.7 L-0.1 0.65 -0.15 0.8 -0.1 0.7 M-0.05 0.75 L-0.05 0.7 -0.1 0.8 -0.05 0.75 M-0.05 0.7 L-0.05 0.65 -0.15 0.8 -0.05 0.7 M-0.25 0.75 Q-0.2 0.7 -0.25 0.7 L-0.25 0.75 -0.25 0.7 -0.3 0.75 -0.3 0.8 -0.25 0.75 M-0.2 0.75 L-0.2 0.7 -0.15 0.65 -0.2 0.7 -0.2 0.75 M-0.35 0.75 L-0.35 0.7 -0.35 0.75 -0.35 0.7 -0.4 0.75 -0.4 0.75 -0.35 0.75 M-0.45 0.8 L-0.4 0.7 -0.35 0.65 -0.45 0.8 M-0.35 1.0 Q-0.3 1.0 -0.35 1.0 -0.4 1.0 -0.4 1.1 L-0.35 1.0 M-0.3 1.05 L-0.3 1.0 -0.35 1.1 -0.3 1.05 M-0.45 1.05 L-0.4 0.95 -0.45 1.05 Q-0.45 1.0 -0.45 1.0 L-0.5 1.05 -0.5 1.1 -0.45 1.05 -0.45 1.05" fill="#dda867" fill-rule="evenodd" stroke="none"/>
    <path d="M0.3 -1.85 L0.45 -1.85 0.55 -1.9 0.55 -1.85 0.5 -1.85 0.45 -1.85 0.4 -1.85 0.35 -1.85 0.3 -1.85 0.25 -1.85 0.2 -1.9 0.25 -1.9 0.3 -1.85" fill="#8e6b41" fill-rule="evenodd" stroke="none"/>
    <path d="M0.55 -1.9 L0.6 -1.9 0.6 -1.9 0.55 -1.85 0.55 -1.9 M0.75 -1.9 L0.75 -1.85 0.7 -1.8 0.7 -1.7 0.65 -1.7 0.6 -1.7 0.55 -1.7 0.5 -1.8 0.55 -1.8 0.6 -1.8 0.65 -1.85 0.65 -1.9 Q0.65 -1.9 0.6 -1.9 L0.7 -1.95 0.75 -1.9" fill="#c49457" fill-rule="evenodd" stroke="none"/>
    <path d="M0.6 -1.9 Q0.6 -1.95 0.7 -1.95 L0.75 -1.95 0.8 -1.95 0.75 -1.9 0.7 -1.95 0.6 -1.9" fill="#6c5232" fill-rule="evenodd" stroke="none"/>
    <path d="M0.85 -1.95 L0.85 -1.95 0.9 -1.95 0.9 -1.9 0.95 -1.9 0.9 -1.9 0.9 -1.9 0.85 -1.9 0.85 -1.95" fill="#8b6a43" fill-rule="evenodd" stroke="none"/>
    <path d="M-0.25 -1.9 L-0.25 -1.9 Q-0.15 -1.9 -0.2 -1.95 L0.0 -1.95 0.2 -1.95 0.25 -1.9 0.3 -1.85 0.25 -1.9 0.2 -1.9 0.1 -1.9 0.1 -1.85 0.05 -1.85 0.05 -1.85 0.0 -1.85 -0.05 -1.85 -0.1 -1.8 -0.15 -1.85 -0.2 -1.8 -0.25 -1.85 -0.25 -1.85 -0.25 -1.9" fill="#b58951" fill-rule="evenodd" stroke="none"/>
    <path d="M-1.05 -1.95 L-0.95 -1.95 -0.9 -1.85 -0.75 -1.9 -0.7 -1.95 -0.65 -1.95 -0.6 -1.9 -0.55 -1.9 -0.5 -1.9 -0.45 -1.9 -0.45 -1.85 Q-0.4 -1.8 -0.4 -1.85 L-0.4 -1.85 Q-0.35 -1.85 -0.35 -1.85 -0.35 -1.9 -0.35 -1.85 L-0.35 -1.8 -0.3 -1.85 -0.3 -1.85 -0.25 -1.85 -0.25 -1.85 -0.2 -1.8 -0.15 -1.85 -0.1 -1.8 -0.05 -1.85 0.0 -1.85 0.05 -1.85 0.05 -1.85 0.1 -1.85 0.1 -1.9 0.2 -1.9 0.25 -1.85 0.3 -1.85 0.35 -1.8 0.4 -1.85 0.45 -1.85 Q0.45 -1.8 0.4 -1.8 L0.3 -1.75 0.25 -1.75 0.25 -1.6 0.3 -1.55 0.3 -1.6 0.35 -1.55 0.35 -1.45 0.05 -1.55 0.05 -1.6 0.0 -1.7 0.0 -1.75 0.0 -1.75 0.0 -1.65 -0.05 -1.55 Q-0.05 -1.5 -0.1 -1.5 L-0.15 -1.5 -0.4 -1.45 -0.45 -1.4 -0.7 -1.3 -0.85 -1.3 -0.9 -1.35 -0.95 -1.4 -1.0 -1.5 -1.0 -1.6 -0.95 -1.6 -0.95 -1.7 -1.0 -1.7 -1.0 -1.65 -1.1 -1.7 -1.1 -1.8 -1.05 -1.9 Q-1.0 -1.9 -1.05 -1.95 M-0.75 -1.9 L-0.75 -1.9" fill="#cc9759" fill-rule="evenodd" stroke="none"/>
    <path d="M0.3 -1.85 L0.35 -1.85 0.4 -1.85 0.35 -1.8 0.3 -1.85" fill="#ce9c5e" fill-rule="evenodd" stroke="none"/>
    <path d="M0.4 -1.45 L0.4 -1.35 0.35 -1.35 0.3 -1.4 0.2 -1.45 0.15 -1.45 0.15 -1.4 0.15 -1.3 0.05 -1.25 Q0.05 -1.2 0.05 -1.15 L0.05 -1.05 0.05 -0.9 -0.05 -0.85 -0.05 -0.95 -0.05 -1.25 -0.05 -1.05 -0.05 -0.9 -0.05 -0.75 -0.05 -0.65 -0.05 -0.55 -0.15 -0.5 -0.2 -0.5 -0.2 -0.45 -0.25 -0.5 -0.25 -0.55 Q-0.2 -0.55 -0.2 -0.6 L-0.2 -0.65 -0.15 -0.6 -0.15 -0.6 -0.1 -0.65 -0.1 -0.7 -0.15 -0.7 -0.2 -0.7 Q-0.25 -0.65 -0.25 -0.65 L-0.3 -0.7 -0.3 -0.7 -0.2 -0.8 -0.3 -0.85 -0.4 -0.75 -0.5 -0.6 -0.55 -0.65 -0.6 -0.7 -0.65 -0.8 -0.6 -0.85 -0.55 -0.85 -0.45 -0.85 -0.45 -0.9 -0.45 -1.0 -0.55 -1.05 -0.6 -1.05 -0.55 -1.15 -0.55 -1.1 -0.5 -1.05 -0.45 -1.1 -0.4 -1.15 -0.35 -1.15 Q-0.4 -1.15 -0.45 -1.2 L-0.45 -1.3 -0.35 -1.35 -0.4 -1.45 -0.15 -1.5 -0.1 -1.5 Q-0.05 -1.5 -0.05 -1.55 L0.0 -1.65 0.0 -1.75 0.0 -1.7 0.05 -1.6 0.05 -1.55 0.35 -1.45 0.4 -1.45 M-0.3 -1.35 L-0.25 -1.4 -0.35 -1.35 -0.3 -1.35 M-0.1 -1.4 L-0.1 -1.45 -0.2 -1.45 -0.15 -1.45 -0.15 -1.4 -0.15 -1.35 -0.1 -1.25 -0.1 -1.4" fill="#d59d60" fill-rule="evenodd" stroke="none"/>
    <path d="M0.0 -1.7 L0.0 -1.75 0.0 -1.75 0.0 -1.7" fill="#5c452a" fill-rule="evenodd" stroke="none"/>
    <path d="M0.4 -1.35 L0.45 -1.35 0.55 -1.3 0.45 -1.25 0.5 -1.2 0.5 -1.15 0.55 -1.15 0.55 -1.1 0.6 -1.1 0.6 -1.05 0.55 -1.05 0.5 -1.05 0.45 -1.05 0.45 -1.05 0.4 -1.05 0.35 -1.0 0.35 -1.0 0.3 -1.0 0.25 -1.0 0.15 -1.0 Q0.1 -1.0 0.1 -1.0 L0.05 -1.15 0.05 -1.25 0.15 -1.3 0.15 -1.4 0.15 -1.45 0.2 -1.45 0.3 -1.4 0.35 -1.35 0.4 -1.35" fill="#cb985d" fill-rule="evenodd" stroke="none"/>
    <path d="M0.15 -1.3 L0.15 -1.4 0.15 -1.3" fill="#554128" fill-rule="evenodd" stroke="none"/>
    <path d="M0.65 -1.35 L0.55 -1.35 0.6 -1.35 0.65 -1.35" fill="#785e3a" fill-rule="evenodd" stroke="none"/>
    <path d="M0.55 -1.3 Q0.6 -1.25 0.7 -1.25 L0.75 -1.25 0.75 -1.25 0.8 -1.25 0.75 -1.05 0.65 -0.9 0.65 -0.85 0.55 -0.6 0.45 -0.4 0.4 -0.35 0.45 -0.3 0.45 -0.25 0.5 -0.2 0.5 -0.15 0.55 -0.15 0.6 -0.1 0.7 -0.1 0.7 -0.1 Q0.7 -0.05 0.7 0.0 L0.75 0.0 0.8 -0.05 0.85 -0.05 0.85 -0.05 0.9 -0.05 0.9 0.0 Q0.85 0.05 0.9 0.1 L0.95 0.0 0.95 -0.05 1.0 -0.05 1.0 -0.1 1.05 -0.1 1.1 -0.15 Q1.15 -0.1 1.15 -0.05 L1.1 -0.05 Q1.05 -0.05 1.05 -0.05 1.0 0.0 1.05 0.0 L1.1 0.05 1.05 0.05 1.0 0.1 0.9 0.1 0.85 0.15 0.9 0.2 1.0 0.15 Q1.05 0.2 1.0 0.3 L1.0 0.4 1.0 0.35 0.95 0.35 0.95 0.4 0.95 0.45 0.9 0.45 0.9 0.5 0.85 0.5 0.8 0.45 0.75 0.45 0.7 0.4 0.75 0.35 0.7 0.3 0.7 0.2 0.65 0.2 Q0.6 0.2 0.6 0.15 L0.65 0.15 0.65 0.1 0.55 0.05 0.5 0.0 0.45 0.0 0.45 0.0 Q0.4 0.0 0.35 -0.05 L0.25 -0.05 0.25 -0.1 0.15 -0.1 0.15 -0.1 0.1 -0.15 0.1 -0.35 0.1 -0.4 0.1 -0.75 0.1 -0.8 0.1 -1.0 Q0.1 -1.0 0.15 -1.0 L0.25 -1.0 0.3 -1.0 0.35 -1.0 0.35 -1.0 0.4 -1.05 0.45 -1.05 0.45 -1.05 0.5 -1.05 0.55 -1.05 0.6 -1.05 0.6 -1.1 0.55 -1.1 0.55 -1.15 0.5 -1.15 0.5 -1.2 0.45 -1.25 0.55 -1.3 M0.35 -0.05 L0.35 -0.05 M0.8 0.45 L0.85 0.45 0.8 0.4 0.8 0.45 M0.85 0.5 L0.85 0.5" fill="#d9a465" fill-rule="evenodd" stroke="none"/>
    <path d="M0.9 -1.2 L0.9 -1.25 0.9 -1.2" fill="#7b5c38" fill-rule="evenodd" stroke="none"/>
    <path d="M0.9 -1.3 L0.8 -1.3 0.75 -1.3 0.9 -1.3" fill="#7f5f3b" fill-rule="evenodd" stroke="none"/>
    <path d="M0.75 -1.25 L0.8 -1.25 0.8 -1.25 0.75 -1.25 0.75 -1.25" fill="#654c2f" fill-rule="evenodd" stroke="none"/>
    <path d="M0.95 -1.1 L0.9 -1.15 0.9 -1.15 0.95 -1.1" fill="#705435" fill-rule="evenodd" stroke="none"/>
    <path d="M0.85 -0.05 L0.9 -0.1 0.95 -0.1 0.9 -0.05 0.85 -0.05 M0.85 -1.15 L0.85 -1.15 0.85 -1.15 0.85 -1.15" fill="#584228" fill-rule="evenodd" stroke="none"/>
    <path d="M0.85 -1.15 L0.85 -1.15 1.05 -0.75 1.25 -0.35 0.9 -0.35 0.55 -0.35 0.5 -0.35 Q0.45 -0.35 0.45 -0.35 L0.65 -0.75 0.85 -1.15" fill="#d7a063" fill-rule="evenodd" stroke="none"/>
    <path d="M0.65 -0.9 L0.65 -0.85 0.65 -0.9" fill="#6d5334" fill-rule="evenodd" stroke="none"/>
    <path d="M0.05 -1.05 L0.05 -1.15 Q0.05 -1.2 0.05 -1.25 L0.05 -1.15 0.05 -1.05" fill="#513c24" fill-rule="evenodd" stroke="none"/>
    <path d="M0.05 -0.9 L0.05 -1.05 0.05 -1.15 0.1 -1.0 0.1 -0.8 0.05 -0.8 0.05 -0.9" fill="#977045" fill-rule="evenodd" stroke="none"/>
    <path d="M0.1 -0.8 L0.1 -0.75 0.1 -0.65 0.05 -0.55 0.05 -0.8 0.1 -0.8" fill="#513c23" fill-rule="evenodd" stroke="none"/>
    <path d="M0.1 -0.75 L0.1 -0.4 0.05 -0.55 0.1 -0.65 0.1 -0.75 M0.1 -0.4 L0.1 -0.4" fill="#9f7647" fill-rule="evenodd" stroke="none"/>
    <path d="M0.45 -0.35 Q0.45 -0.35 0.5 -0.35 L0.55 -0.35 0.9 -0.35 1.25 -0.35 Q1.25 -0.3 1.2 -0.3 L1.15 -0.3 0.45 -0.3 Q0.45 -0.3 0.45 -0.35 L0.45 -0.35" fill="#84613b" fill-rule="evenodd" stroke="none"/>
    <path d="M0.1 -0.4 L0.1 -0.35 0.1 -0.15 0.1 -0.4 0.1 -0.4" fill="#523d25" fill-rule="evenodd" stroke="none"/>
    <path d="M0.1 -0.35 L0.1 -0.15 0.1 -0.35 M0.1 -0.15 L0.1 -0.15" fill="#ae824f" fill-rule="evenodd" stroke="none"/>
    <path d="M0.45 -0.3 L0.45 -0.25 0.45 -0.3" fill="#6a5132" fill-rule="evenodd" stroke="none"/>
    <path d="M0.35 -0.05 L0.35 -0.05 0.35 -0.05" fill="#6e5435" fill-rule="evenodd" stroke="none"/>
    <path d="M0.5 -0.2 L0.55 -0.2 0.55 -0.15 0.5 -0.15 0.5 -0.2" fill="#6e5433" fill-rule="evenodd" stroke="none"/>
    <path d="M0.7 -0.1 L0.75 -0.1 0.85 -0.05 0.8 -0.05 0.7 -0.1 0.7 -0.1" fill="#5e462b" fill-rule="evenodd" stroke="none"/>
    <path d="M0.85 -0.05 L0.85 -0.05 0.9 -0.05 0.95 -0.1 1.0 -0.1 1.0 -0.05 0.95 -0.05 0.95 0.0 0.9 0.1 Q0.85 0.05 0.9 0.0 L0.9 -0.05 0.85 -0.05 M1.05 -0.1 L1.1 -0.15 1.05 -0.1 1.0 -0.1 1.05 -0.1 M0.7 -0.1 L0.8 -0.05 0.75 0.0 0.7 0.0 Q0.7 -0.05 0.7 -0.1" fill="#cf9a5c" fill-rule="evenodd" stroke="none"/>
    <path d="M1.7 -1.15 L1.7 -0.95 1.5 -1.05 Q1.45 -1.1 1.5 -1.15 L1.55 -1.15 1.6 -1.1 Q1.65 -1.15 1.7 -1.15" fill="#c69257" fill-rule="evenodd" stroke="none"/>
    <path d="M1.7 -0.9 L1.7 -0.3 1.7 -0.35 1.65 -0.4 1.6 -0.4 1.6 -0.45 1.5 -0.5 1.45 -0.45 1.4 -0.4 1.35 -0.4 1.35 -0.35 1.3 -0.35 1.25 -0.4 1.2 -0.5 1.15 -0.6 1.25 -0.55 1.3 -0.6 1.3 -0.65 1.35 -0.65 1.4 -0.65 1.4 -0.75 1.4 -0.9 1.5 -0.9 1.45 -0.9 Q1.45 -0.85 1.45 -0.8 L1.6 -0.8 1.7 -0.8 1.7 -0.9" fill="#d19558" fill-rule="evenodd" stroke="none"/>
    <path d="M1.3 -0.35 L1.25 -0.35 1.25 -0.4 1.3 -0.35 1.3 -0.35" fill="#725231" fill-rule="evenodd" stroke="none"/>
    <path d="M1.7 -0.3 L1.7 -0.2 1.65 -0.15 1.6 -0.1 1.6 -0.05 Q1.6 0.0 1.55 0.0 L1.45 0.05 1.45 0.0 1.4 -0.05 1.35 0.0 1.35 0.0 1.2 0.05 1.15 0.1 1.1 0.15 1.1 0.3 1.0 0.4 1.0 0.3 Q1.05 0.2 1.0 0.15 L0.9 0.2 0.85 0.15 0.9 0.1 1.0 0.1 1.05 0.05 1.1 0.05 1.05 0.0 Q1.0 0.0 1.05 -0.05 1.05 -0.05 1.1 -0.05 L1.15 -0.05 Q1.15 -0.1 1.1 -0.15 L1.2 -0.2 1.25 -0.25 1.3 -0.35 1.3 -0.35 1.35 -0.35 1.35 -0.4 1.4 -0.4 1.45 -0.45 1.5 -0.5 1.6 -0.45 1.6 -0.4 1.65 -0.4 1.7 -0.35 1.7 -0.3 M1.2 -0.2 L1.2 -0.2" fill="#d69e5f" fill-rule="evenodd" stroke="none"/>
    <path d="M1.2 -0.2 L1.2 -0.2 1.2 -0.2" fill="#725434" fill-rule="evenodd" stroke="none"/>
    <path d="M1.0 -0.1 L1.0 -0.1 1.05 -0.1 1.0 -0.1" fill="#6d4f2f" fill-rule="evenodd" stroke="none"/>
    <path d="M1.7 -0.2 L1.7 0.2 1.6 0.1 1.5 0.1 1.55 0.2 1.55 0.35 1.5 0.4 1.45 0.45 1.4 0.5 1.45 0.45 1.5 0.5 1.55 0.55 1.6 0.7 1.6 0.8 1.6 0.9 1.65 1.0 1.7 1.05 Q1.65 1.05 1.65 1.15 L1.65 1.2 1.6 1.2 1.2 0.8 1.1 0.75 1.1 0.7 1.15 0.7 1.15 0.75 1.15 0.7 1.25 0.7 1.3 0.65 1.35 0.65 1.4 0.6 1.2 0.6 1.2 0.55 1.15 0.45 1.2 0.45 1.2 0.4 Q1.15 0.4 1.15 0.4 L1.15 0.45 1.15 0.5 1.1 0.5 1.05 0.5 Q1.0 0.5 1.05 0.45 L1.0 0.45 0.95 0.5 0.9 0.5 0.9 0.45 0.95 0.45 0.95 0.4 0.95 0.35 1.0 0.35 1.0 0.4 1.1 0.3 1.1 0.15 1.15 0.1 1.2 0.05 1.35 0.0 1.35 0.0 1.4 -0.05 1.45 0.0 1.45 0.05 1.55 0.0 Q1.6 0.0 1.6 -0.05 L1.6 -0.1 1.65 -0.15 1.7 -0.2 M1.35 0.4 L1.35 0.5 1.35 0.4 M1.45 0.75 L1.45 0.7 1.4 0.8 1.45 0.75 1.45 0.75 M1.3 0.65 L1.25 0.7 1.25 0.7 1.3 0.65 M1.3 0.75 L1.3 0.75 M1.35 0.75 L1.35 0.75 M1.25 0.75 L1.25 0.7 1.2 0.8 1.25 0.75 M1.1 0.75 L1.1 0.75 M1.05 1.05 L1.1 1.05 1.35 1.25 1.3 1.25 1.2 1.3 1.15 1.3 1.15 1.35 Q1.1 1.4 1.15 1.35 L1.15 1.5 1.1 1.5 Q1.05 1.5 1.05 1.45 1.05 1.45 0.95 1.4 L0.85 1.35 0.8 1.35 0.8 1.3 0.75 1.3 0.7 1.3 0.6 1.3 Q0.55 1.25 0.6 1.3 L0.55 1.35 0.6 1.35 0.65 1.4 0.6 1.45 0.5 1.45 0.45 1.45 0.4 1.5 0.35 1.45 0.3 1.45 0.2 1.45 0.1 1.45 0.15 1.4 0.2 1.35 0.25 1.3 Q0.2 1.3 0.2 1.25 L0.1 1.25 0.05 1.3 -0.05 1.3 Q-0.1 1.3 -0.1 1.3 L-0.1 1.35 0.0 1.35 0.05 1.35 -0.05 1.35 -0.1 1.4 -0.15 1.4 -0.2 1.45 -0.25 1.4 -0.35 1.35 -0.3 1.3 -0.35 1.3 -0.4 1.3 -0.45 1.3 -0.45 1.35 -0.5 1.3 -0.5 1.3 Q-0.5 1.25 -0.5 1.3 L-0.55 1.35 -0.55 1.3 -0.6 1.3 -0.65 1.35 -0.65 1.35 -0.7 1.35 -0.7 1.35 -0.7 1.3 -0.7 1.25 -0.65 1.2 -0.6 1.25 -0.55 1.25 Q-0.5 1.2 -0.45 1.25 L-0.4 1.25 -0.35 1.25 -0.3 1.25 -0.25 1.25 -0.25 1.2 Q-0.25 1.2 -0.3 1.2 -0.25 1.15 -0.3 1.15 L-0.2 1.15 Q-0.1 1.15 -0.1 1.05 -0.1 1.0 -0.05 1.0 L-0.05 1.05 0.0 1.0 0.0 1.05 0.05 1.0 0.1 1.0 0.15 1.0 0.15 1.05 0.2 1.0 0.2 1.0 0.25 1.0 0.3 1.0 0.35 1.0 0.4 1.0 0.45 1.0 0.5 1.0 0.55 1.05 0.6 1.0 0.7 0.95 0.7 0.9 0.75 0.85 0.8 0.85 0.8 0.9 0.85 0.9 0.95 0.95 1.0 1.0 1.0 1.1 1.05 1.05 M0.4 1.0 L0.4 1.0 M0.3 1.0 L0.25 1.05 0.3 1.05 0.3 1.0 M0.1 1.05 L0.1 1.0 0.05 1.1 0.05 1.05 0.1 1.05 M0.0 1.0 L0.0 1.0 0.0 1.0 M-0.1 1.05 L-0.1 1.05 M-0.7 1.25 L-0.7 1.25 M0.85 1.35 L0.9 1.25 0.85 1.3 0.85 1.35 M1.55 0.75 L1.5 0.7 1.5 0.75 1.55 0.75 M0.35 1.05 L0.35 1.05 0.35 1.0 Q0.3 1.05 0.3 1.1 L0.35 1.05 M0.7 1.1 L0.75 1.0 0.65 1.15 0.7 1.1 M0.6 1.05 L0.65 1.0 0.6 1.0 0.6 1.05 M0.9 1.1 L0.95 1.05 0.95 1.0 0.9 1.1 M0.9 1.0 L0.9 1.0 M0.8 1.05 L0.8 1.1 0.85 1.05 0.85 1.0 Q0.85 1.0 0.8 1.0 L0.8 1.05 0.8 1.0 0.75 1.05 0.8 1.05 M0.55 1.3 L0.5 1.35 0.45 1.45 0.5 1.4 0.55 1.35 0.55 1.3 M0.45 1.35 L0.5 1.3 0.45 1.35 M0.35 1.3 L0.3 1.35 0.35 1.35 0.35 1.3 M0.25 1.35 L0.25 1.35 M1.05 1.35 L1.1 1.3 1.05 1.35 1.05 1.3 1.0 1.35 1.05 1.35 M-0.1 1.3 L-0.1 1.3 -0.15 1.35 -0.1 1.3 M-0.2 1.35 L-0.15 1.3 -0.1 1.25 -0.2 1.35 M-0.25 1.35 L-0.2 1.3 -0.2 1.3 -0.25 1.35" fill="#b1834d" fill-rule="evenodd" stroke="none"/>
    <path d="M1.7 0.2 L1.7 0.35 1.7 0.45 1.65 0.45 1.7 0.45 1.7 0.4 1.7 0.65 1.65 0.7 1.7 0.65 Q1.7 0.55 1.65 0.55 L1.65 0.7 1.6 0.8 1.6 0.7 1.55 0.55 1.5 0.5 1.45 0.45 1.5 0.4 1.55 0.35 1.55 0.2 1.5 0.1 1.6 0.1 1.7 0.2 M1.5 0.5 L1.55 0.4 1.5 0.5 M1.55 0.45 L1.55 0.45" fill="#997142" fill-rule="evenodd" stroke="none"/>
    <path d="M1.7 0.35 L1.7 0.4 1.7 0.45 1.65 0.45 1.7 0.45 1.7 0.35 M0.35 1.05 L0.35 1.05" fill="#43321c" fill-rule="evenodd" stroke="none"/>
    <path d="M1.55 0.45 L1.55 0.45" fill="#261b0d" fill-rule="evenodd" stroke="none"/>
    <path d="M1.1 0.7 L1.05 0.7 0.95 0.6 1.0 0.45 1.05 0.45 Q1.0 0.5 1.05 0.5 L1.1 0.5 1.15 0.5 1.15 0.45 1.15 0.4 Q1.15 0.4 1.2 0.4 L1.2 0.45 1.15 0.45 1.2 0.55 1.2 0.6 1.4 0.6 1.35 0.65 1.3 0.65 1.25 0.7 1.15 0.7 1.15 0.75 1.15 0.7 1.1 0.7" fill="#bf9259" fill-rule="evenodd" stroke="none"/>
    <path d="M1.15 0.45 L1.15 0.5 1.15 0.45" fill="#47351f" fill-rule="evenodd" stroke="none"/>
    <path d="M1.5 0.4 L1.45 0.45 1.5 0.4" fill="#312311" fill-rule="evenodd" stroke="none"/>
    <path d="M1.45 0.45 L1.4 0.5 1.45 0.45" fill="#483419" fill-rule="evenodd" stroke="none"/>
    <path d="M1.35 0.4 L1.35 0.5 1.35 0.4" fill="#5b4324" fill-rule="evenodd" stroke="none"/>
    <path d="M1.5 0.5 L1.55 0.4 1.5 0.5" fill="#2d2010" fill-rule="evenodd" stroke="none"/>
    <path d="M1.45 0.75 L1.4 0.8 1.45 0.7 1.45 0.75" fill="#47341e" fill-rule="evenodd" stroke="none"/>
    <path d="M1.45 0.75 L1.45 0.75" fill="#513d23" fill-rule="evenodd" stroke="none"/>
    <path d="M1.3 0.65 L1.25 0.7 1.25 0.7 1.3 0.65" fill="#45311b" fill-rule="evenodd" stroke="none"/>
    <path d="M1.3 0.75 L1.3 0.75" fill="#46311a" fill-rule="evenodd" stroke="none"/>
    <path d="M1.35 0.75 L1.35 0.75" fill="#47331d" fill-rule="evenodd" stroke="none"/>
    <path d="M1.15 0.75 L1.15 0.7 1.15 0.75" fill="#3e2c19" fill-rule="evenodd" stroke="none"/>
    <path d="M1.25 0.75 L1.2 0.8 1.25 0.7 1.25 0.75" fill="#513a23" fill-rule="evenodd" stroke="none"/>
    <path d="M1.1 0.75 L1.1 0.75 M0.7 0.7 L0.7 0.75 0.65 0.8 0.7 0.7" fill="#44321c" fill-rule="evenodd" stroke="none"/>
    <path d="M1.05 1.05 L1.0 1.1 1.0 1.0 1.05 1.05" fill="#4a351e" fill-rule="evenodd" stroke="none"/>
    <path d="M1.7 0.65 L1.65 0.75 1.65 0.95 1.7 1.0 1.75 1.0 1.7 1.1 1.7 1.05 1.65 1.0 1.6 0.9 1.6 0.8 1.65 0.7 1.65 0.55 Q1.7 0.55 1.7 0.65 L1.65 0.7 1.7 0.65" fill="#594228" fill-rule="evenodd" stroke="none"/>
    <path d="M1.55 0.75 L1.5 0.75 1.5 0.7 1.55 0.75" fill="#664c2d" fill-rule="evenodd" stroke="none"/>
    <path d="M-0.05 1.9 L-0.05 1.9 -0.15 1.9 -0.15 1.9 Q-0.1 1.9 -0.15 1.85 L-0.15 1.85 -0.2 1.85 -0.2 1.85 -0.15 1.85 Q-0.1 1.85 -0.1 1.9 L-0.05 1.85 -0.05 1.8 0.0 1.8 -0.05 1.75 0.0 1.75 0.05 1.7 0.1 1.7 0.15 1.75 0.2 1.7 0.25 1.7 0.35 1.7 0.35 1.6 0.4 1.6 0.45 1.6 0.5 1.6 0.55 1.6 0.6 1.55 0.65 1.5 0.75 1.5 0.8 1.5 0.9 1.55 1.0 1.55 1.1 1.55 1.2 1.55 1.35 1.6 1.35 1.55 1.3 1.45 1.3 1.35 1.3 1.3 Q1.25 1.3 1.2 1.35 L1.15 1.35 1.2 1.35 1.15 1.35 1.15 1.3 1.2 1.3 1.3 1.25 1.35 1.25 1.6 1.5 1.6 1.55 1.55 1.6 1.5 1.65 1.45 1.6 1.45 1.65 1.4 1.7 1.35 1.7 1.3 1.7 1.25 1.7 1.25 1.6 1.2 1.6 1.15 1.6 1.1 1.6 1.05 1.6 1.0 1.65 0.95 1.6 0.85 1.6 0.85 1.65 0.8 1.7 0.75 1.7 0.7 1.65 0.7 1.7 0.65 1.7 0.6 1.65 0.55 1.7 0.5 1.65 0.45 1.65 Q0.4 1.65 0.35 1.7 L0.3 1.75 0.25 1.75 0.3 1.8 0.3 1.9 Q0.25 1.9 0.25 1.9 L0.2 1.95 0.1 1.85 0.0 1.85 -0.05 1.9 M1.65 1.35 L1.65 1.2 1.65 1.15 Q1.65 1.05 1.7 1.05 L1.7 1.1 1.7 1.15 Q1.65 1.1 1.65 1.15 L1.7 1.25 1.7 1.3 1.65 1.35 M1.65 1.5 L1.65 1.45 1.7 1.45 1.7 1.5 1.65 1.5" fill="#8b6337" fill-rule="evenodd" stroke="none"/>
    <path d="M1.7 1.1 L1.7 1.2 1.7 1.25 1.65 1.15 Q1.65 1.1 1.7 1.15 L1.7 1.1" fill="#3c2b1a" fill-rule="evenodd" stroke="none"/>
    <path d="M0.65 0.1 L0.65 0.15 0.6 0.15 0.45 0.15 0.65 0.15 0.65 0.1 M-0.6 0.1 L-0.65 0.15 0.05 0.15 -0.45 0.15 -0.55 0.15 -0.65 0.15 -0.6 0.1" fill="#7e5f3b" fill-rule="evenodd" stroke="none"/>
    <path d="M0.9 0.5 L0.9 0.45 0.9 0.5" fill="#584122" fill-rule="evenodd" stroke="none"/>
    <path d="M0.95 0.5 L1.0 0.45 0.95 0.5 M0.0 0.8 L0.05 0.75 0.1 0.7 0.0 0.8" fill="#4e3a20" fill-rule="evenodd" stroke="none"/>
    <path d="M0.95 0.45 L0.95 0.4 0.95 0.45" fill="#302314" fill-rule="evenodd" stroke="none"/>
    <path d="M0.85 0.5 L0.85 0.5" fill="#523b20" fill-rule="evenodd" stroke="none"/>
    <path d="M0.8 0.45 L0.8 0.4 0.85 0.45 0.8 0.45" fill="#533c21" fill-rule="evenodd" stroke="none"/>
    <path d="M0.45 0.0 L0.45 0.0 0.5 0.0 0.45 0.0 0.45 0.0" fill="#6c5234" fill-rule="evenodd" stroke="none"/>
    <path d="M0.25 0.45 L0.2 0.5 0.25 0.4 0.25 0.45" fill="#554027" fill-rule="evenodd" stroke="none"/>
    <path d="M0.2 0.45 L0.15 0.45 0.2 0.4 0.2 0.45" fill="#554127" fill-rule="evenodd" stroke="none"/>
    <path d="M0.05 0.4 L0.05 0.45 0.0 0.45 0.0 0.45 0.05 0.4" fill="#574328" fill-rule="evenodd" stroke="none"/>
    <path d="M0.0 0.45 L0.0 0.45 0.0 0.45" fill="#644d2d" fill-rule="evenodd" stroke="none"/>
    <path d="M0.1 0.45 L0.05 0.5 0.1 0.4 0.1 0.45" fill="#6c5432" fill-rule="evenodd" stroke="none"/>
    <path d="M0.1 0.45 Q0.15 0.4 0.15 0.45 L0.1 0.5 0.1 0.45" fill="#604a2d" fill-rule="evenodd" stroke="none"/>
    <path d="M0.3 0.4 L0.3 0.45 0.3 0.4" fill="#5a4228" fill-rule="evenodd" stroke="none"/>
    <path d="M0.35 0.4 L0.35 0.45 0.3 0.5 0.3 0.45 0.3 0.4 0.35 0.4" fill="#bd905c" fill-rule="evenodd" stroke="none"/>
    <path d="M0.25 0.45 L0.3 0.4 0.25 0.45" fill="#6a4e2f" fill-rule="evenodd" stroke="none"/>
    <path d="M0.45 0.75 L0.5 0.75 0.4 0.8 0.45 0.75 0.45 0.75" fill="#916f47" fill-rule="evenodd" stroke="none"/>
    <path d="M0.4 0.75 L0.4 0.75" fill="#3e2e1d" fill-rule="evenodd" stroke="none"/>
    <path d="M0.35 1.0 L0.3 1.0 0.25 1.0 0.2 1.0 0.2 1.0 0.15 1.0 0.1 1.0 0.1 1.05 0.1 1.0 0.05 1.0 0.0 1.0 0.0 1.0 0.0 0.95 0.05 0.95 0.0 0.95 0.0 0.95 0.0 1.0 -0.05 1.0 Q-0.1 1.0 -0.1 1.05 -0.15 1.05 -0.15 1.05 L-0.15 1.05 -0.15 1.05 Q-0.15 1.05 -0.2 1.05 L-0.2 0.95 -0.15 1.0 -0.1 0.95 -0.1 0.9 -0.05 0.9 0.0 0.9 0.05 0.9 0.05 0.85 0.0 0.85 0.0 0.8 0.1 0.7 0.1 0.75 0.15 0.75 0.15 0.75 0.2 0.75 0.2 0.75 0.25 0.7 0.3 0.7 0.3 0.75 0.3 0.7 0.35 0.7 0.35 0.75 0.3 0.8 0.25 0.8 0.3 0.75 Q0.25 0.7 0.25 0.75 L0.1 0.9 0.25 0.9 0.35 1.0" fill="#c3975e" fill-rule="evenodd" stroke="none"/>
    <path d="M0.3 0.75 L0.3 0.7 0.3 0.75" fill="#3d2d1a" fill-rule="evenodd" stroke="none"/>
    <path d="M0.1 0.75 L0.15 0.7 0.15 0.75 0.1 0.75" fill="#523f23" fill-rule="evenodd" stroke="none"/>
    <path d="M0.15 0.75 L0.2 0.75 0.15 0.75" fill="#382b18" fill-rule="evenodd" stroke="none"/>
    <path d="M0.2 0.75 L0.25 0.7 Q0.25 0.65 0.25 0.7 L0.2 0.75" fill="#463520" fill-rule="evenodd" stroke="none"/>
    <path d="M0.1 0.7 L0.1 0.75 0.1 0.7" fill="#5a4527" fill-rule="evenodd" stroke="none"/>
    <path d="M0.0 0.85 L0.0 0.8 0.0 0.85" fill="#554022" fill-rule="evenodd" stroke="none"/>
    <path d="M0.25 0.8 L0.25 0.75 Q0.25 0.7 0.3 0.75 L0.25 0.8" fill="#554025" fill-rule="evenodd" stroke="none"/>
    <path d="M0.2 1.0 L0.15 1.05 0.15 1.0 0.2 1.0" fill="#40301c" fill-rule="evenodd" stroke="none"/>
    <path d="M0.05 1.0 L0.0 1.05 0.0 1.0 0.05 1.0" fill="#41311b" fill-rule="evenodd" stroke="none"/>
    <path d="M0.3 1.0 L0.3 1.05 0.25 1.05 0.3 1.0 M0.1 1.05 L0.05 1.05 0.05 1.1 0.1 1.0 0.1 1.05" fill="#46341e" fill-rule="evenodd" stroke="none"/>
    <path d="M0.4 1.0 L0.4 1.0" fill="#342614" fill-rule="evenodd" stroke="none"/>
    <path d="M0.85 0.9 L0.8 0.9 0.8 0.85 0.75 0.85 0.7 0.9 0.7 0.95 0.6 1.0 Q0.6 1.0 0.55 1.0 L0.55 1.05 0.5 1.0 0.45 1.0 Q0.45 0.95 0.45 0.95 L0.5 0.95 Q0.55 0.85 0.65 0.8 L0.65 0.9 0.6 0.95 0.65 0.9 0.7 0.85 0.75 0.8 0.8 0.8 0.8 0.85 0.85 0.85 0.85 0.9 M0.75 0.75 L0.75 0.8 0.75 0.75" fill="#c2945a" fill-rule="evenodd" stroke="none"/>
    <path d="M0.35 1.05 L0.3 1.1 Q0.3 1.05 0.35 1.0 L0.35 1.05" fill="#392a18" fill-rule="evenodd" stroke="none"/>
    <path d="M-0.55 1.0 L-0.55 1.0 -0.5 1.0 -0.55 1.05 -0.55 1.0" fill="#46341c" fill-rule="evenodd" stroke="none"/>
    <path d="M0.65 0.75 L0.6 0.8 0.65 0.7 0.65 0.75" fill="#5a4426" fill-rule="evenodd" stroke="none"/>
    <path d="M0.7 0.75 L0.75 0.75 0.7 0.8 0.7 0.75" fill="#ac854e" fill-rule="evenodd" stroke="none"/>
    <path d="M0.7 1.1 L0.65 1.15 0.75 1.0 0.7 1.1" fill="#47341b" fill-rule="evenodd" stroke="none"/>
    <path d="M0.6 1.0 L0.55 1.05 0.55 1.0 Q0.6 1.0 0.6 1.0" fill="#4c3920" fill-rule="evenodd" stroke="none"/>
    <path d="M0.6 1.05 L0.6 1.0 0.65 1.0 0.6 1.05" fill="#382916" fill-rule="evenodd" stroke="none"/>
    <path d="M0.9 1.1 L0.95 1.0 0.95 1.05 0.9 1.1" fill="#402e1a" fill-rule="evenodd" stroke="none"/>
    <path d="M0.9 1.0 L0.9 1.0" fill="#46321c" fill-rule="evenodd" stroke="none"/>
    <path d="M0.8 1.05 L0.8 1.0 Q0.85 1.0 0.85 1.0 L0.85 1.05 0.8 1.1 0.8 1.05" fill="#815e37" fill-rule="evenodd" stroke="none"/>
    <path d="M0.85 1.35 L0.85 1.3 0.9 1.25 0.85 1.35" fill="#3a2916" fill-rule="evenodd" stroke="none"/>
    <path d="M-0.6 1.3 L-0.55 1.3 -0.55 1.35 -0.5 1.3 -0.5 1.3 -0.5 1.3 -0.45 1.35 -0.45 1.3 -0.4 1.3 -0.35 1.3 -0.3 1.3 -0.35 1.3 -0.35 1.35 -0.25 1.4 -0.2 1.45 -0.15 1.4 -0.1 1.4 -0.05 1.35 0.05 1.35 0.0 1.35 -0.1 1.35 -0.1 1.3 Q-0.1 1.3 -0.05 1.3 L0.05 1.3 0.1 1.25 0.2 1.25 Q0.2 1.3 0.25 1.3 L0.2 1.35 0.15 1.4 0.1 1.45 0.2 1.45 0.3 1.45 0.35 1.45 0.4 1.5 0.45 1.45 0.5 1.45 0.6 1.45 0.65 1.4 0.6 1.35 0.55 1.35 0.6 1.3 Q0.55 1.25 0.6 1.3 L0.7 1.3 0.75 1.3 0.8 1.3 0.8 1.35 0.85 1.35 0.8 1.4 0.8 1.45 0.7 1.45 0.6 1.5 0.55 1.55 0.5 1.55 0.5 1.5 0.4 1.55 0.3 1.65 0.25 1.65 0.25 1.7 Q0.2 1.65 0.15 1.7 L0.15 1.65 0.1 1.65 0.1 1.7 0.05 1.7 0.0 1.75 -0.05 1.75 0.0 1.8 -0.05 1.8 -0.05 1.85 -0.1 1.9 Q-0.1 1.85 -0.15 1.85 L-0.2 1.85 -0.2 1.85 -0.25 1.85 -0.3 1.8 -0.3 1.8 -0.25 1.75 -0.35 1.7 -0.4 1.65 Q-0.4 1.55 -0.45 1.5 L-0.6 1.45 Q-0.65 1.45 -0.65 1.5 L-0.65 1.6 -0.7 1.6 -0.8 1.55 -0.85 1.55 -0.95 1.5 -0.95 1.55 -1.0 1.6 -1.05 1.55 -1.0 1.5 -1.0 1.45 -1.05 1.45 -1.1 1.45 -1.1 1.4 -1.05 1.35 -1.05 1.3 Q-1.0 1.3 -1.0 1.3 L-1.05 1.35 -1.05 1.35 -1.0 1.35 -1.0 1.35 -0.95 1.35 -0.9 1.3 -0.9 1.3 -0.9 1.35 -0.85 1.35 -0.85 1.3 -0.8 1.3 -0.75 1.3 -0.75 1.3 -0.8 1.3 -0.8 1.35 -0.85 1.35 -0.9 1.4 -0.85 1.45 -0.85 1.5 -0.8 1.5 -0.75 1.5 -0.7 1.45 -0.6 1.4 -0.6 1.35 -0.6 1.3 M0.75 1.3 L0.75 1.3 M0.7 1.3 L0.65 1.35 0.7 1.35 0.7 1.3 M0.7 1.35 L0.7 1.35 M0.15 1.35 L0.15 1.3 0.1 1.35 0.15 1.35 M0.05 1.35 L0.05 1.35 0.05 1.4 0.1 1.35 0.1 1.3 0.05 1.35 M-0.4 1.3 L-0.4 1.35 -0.45 1.35 -0.4 1.35 -0.4 1.3 M-0.8 1.3 L-0.8 1.3 M-1.0 1.35 L-1.0 1.35 M-0.95 1.35 L-0.9 1.35 -0.95 1.35" fill="#a5703b" fill-rule="evenodd" stroke="none"/>
    <path d="M0.85 1.35 L0.95 1.4 Q1.05 1.45 1.05 1.45 1.05 1.5 1.1 1.5 L1.15 1.5 1.15 1.35 Q1.1 1.4 1.15 1.35 L1.2 1.35 Q1.25 1.3 1.3 1.3 L1.25 1.35 1.3 1.35 1.3 1.45 1.35 1.55 1.35 1.6 1.2 1.55 1.1 1.55 1.0 1.55 0.9 1.55 0.8 1.5 0.75 1.5 0.65 1.5 0.6 1.55 0.55 1.6 0.5 1.6 0.45 1.6 0.4 1.6 0.35 1.6 0.35 1.7 0.25 1.7 0.2 1.7 0.15 1.75 0.1 1.7 0.05 1.7 0.1 1.7 0.1 1.65 0.15 1.65 0.15 1.7 Q0.2 1.65 0.25 1.7 L0.25 1.65 0.3 1.65 0.4 1.55 0.5 1.5 0.5 1.55 0.55 1.55 0.6 1.5 0.7 1.45 0.8 1.45 0.8 1.4 0.85 1.35" fill="#996b3b" fill-rule="evenodd" stroke="none"/>
    <path d="M0.7 1.35 L0.7 1.35" fill="#372512" fill-rule="evenodd" stroke="none"/>
    <path d="M0.55 1.3 L0.55 1.35 0.5 1.4 0.45 1.45 0.5 1.35 0.55 1.3" fill="#4f391e" fill-rule="evenodd" stroke="none"/>
    <path d="M0.55 1.35 L0.6 1.3 0.55 1.35" fill="#3c2a14" fill-rule="evenodd" stroke="none"/>
    <path d="M1.65 1.9 L1.6 1.9 Q1.55 1.85 1.55 1.9 L1.55 1.95 1.5 1.9 1.45 1.9 Q1.45 1.85 1.4 1.85 L1.4 1.9 1.35 1.85 1.3 1.9 1.3 1.95 1.25 1.95 1.2 1.95 1.15 1.9 1.2 1.8 Q1.25 1.8 1.25 1.8 L1.25 1.75 Q1.2 1.7 1.1 1.7 L0.9 1.7 0.9 1.75 0.75 1.75 0.65 1.75 0.55 1.8 0.55 1.85 0.5 1.9 Q0.5 1.85 0.5 1.85 L0.5 1.9 0.45 1.85 0.4 1.85 Q0.4 1.8 0.4 1.85 L0.35 1.9 0.3 1.9 0.3 1.8 0.25 1.75 0.3 1.75 0.35 1.7 Q0.4 1.65 0.45 1.65 L0.5 1.65 0.55 1.7 0.6 1.65 0.65 1.7 0.7 1.7 0.7 1.65 0.75 1.7 0.8 1.7 0.85 1.65 0.85 1.6 0.95 1.6 1.0 1.65 1.05 1.6 1.1 1.6 1.15 1.6 1.2 1.6 1.25 1.6 1.25 1.7 1.3 1.7 1.35 1.7 1.4 1.7 1.45 1.65 1.45 1.6 1.5 1.65 1.55 1.6 1.6 1.55 1.6 1.5 1.65 1.5 1.7 1.5 1.65 1.55 1.7 1.6 1.65 1.65 Q1.6 1.7 1.6 1.7 L1.5 1.7 1.4 1.75 Q1.35 1.75 1.4 1.8 L1.45 1.8 Q1.45 1.8 1.5 1.75 L1.55 1.8 1.6 1.8 1.65 1.9 M1.25 1.95 L1.25 1.95" fill="#7a562d" fill-rule="evenodd" stroke="none"/>
    <path d="M0.9 1.75 L0.85 1.8 0.8 1.75 0.85 1.8 0.85 1.9 0.8 1.9 0.75 1.85 0.7 1.9 0.65 1.9 0.6 1.9 0.55 1.9 0.5 1.9 0.55 1.85 0.55 1.8 0.65 1.75 0.75 1.75 0.9 1.75" fill="#6c4a23" fill-rule="evenodd" stroke="none"/>
    <path d="M1.1 1.9 L1.1 1.85 Q1.1 1.8 1.0 1.75 L0.95 1.75 0.9 1.7 1.1 1.7 Q1.2 1.7 1.25 1.75 L1.25 1.8 Q1.25 1.8 1.2 1.8 L1.15 1.9 1.1 1.9" fill="#6e4c24" fill-rule="evenodd" stroke="none"/>
    <path d="M0.45 1.35 L0.5 1.3 0.45 1.35" fill="#3d2b16" fill-rule="evenodd" stroke="none"/>
    <path d="M0.25 1.35 L0.25 1.35" fill="#4c371c" fill-rule="evenodd" stroke="none"/>
    <path d="M0.35 1.3 L0.35 1.35 0.3 1.35 0.35 1.3" fill="#3b2a17" fill-rule="evenodd" stroke="none"/>
    <path d="M0.15 1.35 L0.1 1.35 0.15 1.3 0.15 1.35" fill="#442f16" fill-rule="evenodd" stroke="none"/>
    <path d="M0.05 1.35 L0.05 1.35" fill="#35230f" fill-rule="evenodd" stroke="none"/>
    <path d="M0.1 1.3 L0.1 1.35 0.05 1.4 0.05 1.35 0.1 1.3" fill="#493117" fill-rule="evenodd" stroke="none"/>
    <path d="M0.5 1.9 L0.45 1.9 0.4 1.85 0.45 1.85 0.5 1.9 0.5 1.85 Q0.5 1.85 0.5 1.9" fill="#382814" fill-rule="evenodd" stroke="none"/>
    <path d="M0.4 1.85 L0.4 1.9 0.35 1.9 0.3 1.9 0.35 1.9 0.4 1.85 Q0.4 1.8 0.4 1.85" fill="#352614" fill-rule="evenodd" stroke="none"/>
    <path d="M0.3 1.9 Q0.3 1.95 0.25 1.95 L0.2 1.95 0.25 1.9 Q0.25 1.9 0.3 1.9" fill="#49341b" fill-rule="evenodd" stroke="none"/>
    <path d="M0.2 1.95 L0.15 1.9 0.1 1.9 0.0 1.85 0.0 1.9 -0.05 1.9 0.0 1.85 0.1 1.85 0.2 1.95" fill="#3f2d18" fill-rule="evenodd" stroke="none"/>
    <path d="M1.7 1.25 L1.7 1.35 1.7 1.5 1.7 1.45 1.65 1.45 1.65 1.35 1.7 1.3 1.7 1.25" fill="#3f2e1a" fill-rule="evenodd" stroke="none"/>
    <path d="M1.7 1.5 L1.7 1.7 1.65 1.9 1.65 1.8 1.65 1.9 1.6 1.8 1.55 1.8 1.5 1.75 Q1.45 1.8 1.45 1.8 L1.4 1.8 Q1.35 1.75 1.4 1.75 L1.5 1.7 1.6 1.7 Q1.6 1.7 1.65 1.65 L1.7 1.6 1.65 1.55 1.7 1.5" fill="#6f4c27" fill-rule="evenodd" stroke="none"/>
    <path d="M1.3 1.35 L1.25 1.35 1.3 1.3 1.3 1.35" fill="#302010" fill-rule="evenodd" stroke="none"/>
    <path d="M1.15 1.35 L1.15 1.3 1.15 1.35" fill="#312111" fill-rule="evenodd" stroke="none"/>
    <path d="M1.15 1.35 L1.2 1.35 1.15 1.35" fill="#2a1c0d" fill-rule="evenodd" stroke="none"/>
    <path d="M1.05 1.35 L1.1 1.3 1.05 1.35" fill="#49321c" fill-rule="evenodd" stroke="none"/>
    <path d="M1.05 1.35 L1.0 1.35 1.05 1.3 1.05 1.35" fill="#4d351e" fill-rule="evenodd" stroke="none"/>
    <path d="M1.15 1.9 L1.1 1.9 1.15 1.9" fill="#362916" fill-rule="evenodd" stroke="none"/>
    <path d="M0.0 1.0 L-0.05 1.05 -0.05 1.0 0.0 1.0 M1.25 1.95 L1.25 1.95" fill="#43311b" fill-rule="evenodd" stroke="none"/>
    <path d="M1.2 1.95 L1.15 1.9 1.2 1.95" fill="#3a2b18" fill-rule="evenodd" stroke="none"/>
    <path d="M-0.65 -1.95 L-0.6 -1.95 -0.55 -1.95 -0.5 -1.9 -0.5 -1.95 -0.45 -1.95 -0.4 -1.9 -0.35 -1.9 -0.35 -1.9 -0.3 -1.9 -0.3 -1.9 Q-0.3 -1.9 -0.25 -1.9 L-0.25 -1.9 -0.25 -1.85 -0.3 -1.85 -0.3 -1.85 -0.35 -1.8 -0.35 -1.85 Q-0.35 -1.9 -0.35 -1.85 -0.35 -1.85 -0.4 -1.85 L-0.4 -1.85 Q-0.4 -1.8 -0.45 -1.85 L-0.45 -1.9 -0.5 -1.9 -0.55 -1.9 -0.6 -1.9 -0.65 -1.95" fill="#6b4f2f" fill-rule="evenodd" stroke="none"/>
    <path d="M-0.25 -1.9 L-0.25 -1.95 -0.2 -1.95 Q-0.15 -1.9 -0.25 -1.9" fill="#795c35" fill-rule="evenodd" stroke="none"/>
    <path d="M-0.95 -1.95 L-0.9 -1.95 -0.85 -1.9 -0.75 -1.9 -0.9 -1.85 -0.95 -1.95" fill="#a07545" fill-rule="evenodd" stroke="none"/>
    <path d="M-0.9 -1.95 L-0.85 -1.95 -0.75 -1.9 -0.85 -1.9 -0.9 -1.95 M-0.75 -1.9 L-0.75 -1.9" fill="#564026" fill-rule="evenodd" stroke="none"/>
    <path d="M-0.75 -1.9 L-0.7 -1.95 -0.7 -1.95 -0.75 -1.9" fill="#7a5a34" fill-rule="evenodd" stroke="none"/>
    <path d="M-1.15 -1.9 L-1.15 -1.85 -1.1 -1.9 -1.1 -1.9 -1.05 -1.95 -1.05 -1.9 -1.1 -1.8 -1.1 -1.7 -1.0 -1.65 -1.0 -1.7 -0.95 -1.7 -0.95 -1.6 -1.0 -1.6 -1.0 -1.5 -0.95 -1.4 -0.9 -1.35 -0.85 -1.3 -0.9 -1.3 Q-0.95 -1.35 -1.05 -1.35 L-1.05 -1.4 -1.0 -1.5 Q-1.0 -1.55 -1.05 -1.6 L-1.05 -1.65 -1.1 -1.7 -1.15 -1.7 -1.2 -1.8 -1.2 -1.8 -1.15 -1.85 -1.15 -1.9 M-1.05 -1.95 L-1.05 -1.95" fill="#c28a4e" fill-rule="evenodd" stroke="none"/>
    <path d="M-0.85 -1.3 L-0.7 -1.3 -0.8 -1.3 -0.9 -1.3 -0.85 -1.3" fill="#815e36" fill-rule="evenodd" stroke="none"/>
    <path d="M-0.4 -1.45 L-0.35 -1.35 -0.45 -1.3 -0.45 -1.2 Q-0.4 -1.15 -0.35 -1.15 L-0.4 -1.15 -0.45 -1.1 -0.5 -1.05 -0.55 -1.1 -0.55 -1.15 -0.6 -1.05 -0.55 -1.05 -0.45 -1.0 -0.45 -0.9 -0.45 -0.85 -0.55 -0.85 -0.6 -0.85 -0.65 -0.8 -0.6 -0.7 -0.7 -0.8 -0.75 -0.95 -0.85 -1.15 -0.85 -1.15 -0.9 -1.0 -0.95 -1.0 -0.95 -1.05 -0.9 -1.25 -0.95 -1.3 -1.05 -1.35 Q-0.95 -1.35 -0.9 -1.3 L-0.8 -1.3 -0.7 -1.3 -0.45 -1.4 -0.4 -1.45 M-0.8 -1.25 L-0.8 -1.25 -0.75 -1.25 -0.7 -1.25 -0.8 -1.25 M-1.05 -1.35 L-1.05 -1.35 M-1.1 -0.75 L-1.05 -0.8 -1.05 -0.8 -1.05 -0.8 -1.05 -0.7 -1.1 -0.65 -1.1 -0.6 -1.15 -0.65 -1.15 -0.7 -1.1 -0.75" fill="#cd965a" fill-rule="evenodd" stroke="none"/>
    <path d="M-0.8 -1.25 L-0.7 -1.25 -0.75 -1.25 -0.8 -1.25 -0.8 -1.25" fill="#684b2c" fill-rule="evenodd" stroke="none"/>
    <path d="M-1.05 -1.35 L-0.95 -1.3 -0.9 -1.25 -0.95 -1.05 -1.05 -1.1 -1.1 -1.15 -1.2 -1.2 -1.2 -1.25 -1.2 -1.25 -1.15 -1.25 -1.15 -1.3 Q-1.1 -1.3 -1.1 -1.35 L-1.1 -1.4 -1.05 -1.35 -1.05 -1.35 M-1.25 -0.95 L-1.25 -0.95 -1.05 -0.8 -1.1 -0.75 -1.2 -0.75 Q-1.2 -0.8 -1.2 -0.8 L-1.25 -0.9 -1.25 -0.95" fill="#c98c4d" fill-rule="evenodd" stroke="none"/>
    <path d="M-0.3 -1.35 L-0.35 -1.35 -0.25 -1.4 -0.3 -1.35" fill="#a77d4b" fill-rule="evenodd" stroke="none"/>
    <path d="M-0.15 -1.4 L-0.15 -1.45 -0.2 -1.45 -0.1 -1.45 -0.1 -1.4 -0.15 -1.4" fill="#715632" fill-rule="evenodd" stroke="none"/>
    <path d="M-0.1 -1.4 L-0.1 -1.25 -0.15 -1.35 -0.15 -1.4 -0.1 -1.4" fill="#62492c" fill-rule="evenodd" stroke="none"/>
    <path d="M-1.45 -1.85 L-1.45 -1.9 -1.4 -1.95 -1.35 -1.95 -1.3 -1.9 -1.25 -1.9 -1.25 -1.9 -1.2 -1.85 -1.2 -1.85 -1.25 -1.85 -1.25 -1.85 -1.3 -1.85 -1.35 -1.85 -1.3 -1.8 -1.35 -1.85 -1.35 -1.85 -1.4 -1.9 -1.4 -1.85 -1.45 -1.85 -1.45 -1.85" fill="#513c22" fill-rule="evenodd" stroke="none"/>
    <path d="M-1.5 -1.85 L-1.45 -1.85 -1.45 -1.85 -1.45 -1.85 -1.4 -1.85 -1.4 -1.9 -1.35 -1.85 -1.35 -1.85 -1.3 -1.8 -1.35 -1.85 -1.3 -1.85 -1.25 -1.85 -1.25 -1.7 -1.25 -1.6 -1.25 -1.3 -1.25 -1.3 -1.3 -1.35 -1.35 -1.3 -1.3 -1.4 -1.3 -1.5 -1.35 -1.55 -1.35 -1.7 -1.4 -1.8 -1.45 -1.8 -1.45 -1.8 -1.5 -1.85" fill="#916939" fill-rule="evenodd" stroke="none"/>
    <path d="M-1.2 -1.85 L-1.15 -1.85 -1.15 -1.9 -1.15 -1.85 -1.2 -1.8 -1.2 -1.85" fill="#573e22" fill-rule="evenodd" stroke="none"/>
    <path d="M-1.2 -1.85 L-1.2 -1.85 -1.2 -1.8 -1.2 -1.8 -1.15 -1.7 -1.1 -1.7 -1.05 -1.65 -1.05 -1.6 Q-1.0 -1.55 -1.0 -1.5 L-1.05 -1.4 -1.05 -1.35 -1.05 -1.35 -1.05 -1.35 -1.1 -1.4 -1.1 -1.35 Q-1.1 -1.3 -1.15 -1.3 L-1.15 -1.25 -1.2 -1.25 -1.2 -1.25 -1.2 -1.25 -1.25 -1.3 -1.15 -1.35 -1.1 -1.35 -1.15 -1.4 -1.15 -1.45 -1.1 -1.45 -1.05 -1.45 -1.1 -1.45 -1.15 -1.5 Q-1.1 -1.55 -1.15 -1.65 L-1.25 -1.7 -1.25 -1.85 -1.25 -1.85 -1.2 -1.85 -1.2 -1.85 M-1.45 -1.15 L-1.45 -1.2 -1.5 -1.25 -1.45 -1.2 -1.45 -1.15 M-1.25 -0.95 L-1.25 -0.9 -1.2 -0.8 Q-1.2 -0.8 -1.2 -0.75 L-1.1 -0.75 -1.15 -0.7 Q-1.2 -0.65 -1.25 -0.7 L-1.3 -0.75 -1.35 -0.8 -1.3 -0.8 -1.25 -0.95 M-1.3 -0.95 L-1.35 -0.95 -1.35 -0.95 -1.35 -1.05 -1.3 -1.05 -1.3 -0.95 M-1.35 -1.05 L-1.35 -1.05" fill="#b38048" fill-rule="evenodd" stroke="none"/>
    <path d="M-1.05 -1.95 L-1.05 -1.95 Q-1.0 -1.9 -1.05 -1.9 L-1.05 -1.95" fill="#846239" fill-rule="evenodd" stroke="none"/>
    <path d="M-1.15 -1.85 L-1.1 -1.9 -1.05 -1.95 -1.1 -1.9 -1.1 -1.9 -1.15 -1.85" fill="#65492a" fill-rule="evenodd" stroke="none"/>
    <path d="M-1.6 -1.65 L-1.55 -1.65 -1.55 -1.65 -1.5 -1.65 -1.5 -1.75 -1.5 -1.7 -1.45 -1.65 -1.45 -1.8 -1.45 -1.8 -1.4 -1.8 -1.35 -1.7 -1.35 -1.55 -1.3 -1.5 -1.3 -1.4 -1.35 -1.3 -1.4 -1.35 -1.4 -1.35 -1.45 -1.35 Q-1.45 -1.35 -1.5 -1.3 L-1.5 -1.3 -1.55 -1.35 -1.6 -1.3 -1.6 -1.25 Q-1.55 -1.25 -1.5 -1.2 L-1.45 -1.15 -1.45 -1.15 -1.45 -1.1 Q-1.4 -1.05 -1.35 -1.05 L-1.35 -1.05 -1.35 -0.95 -1.45 -0.75 -1.45 -0.6 -1.5 -0.65 -1.55 -0.7 -1.6 -0.75 -1.6 -0.75 -1.65 -0.75 -1.65 -0.75 -1.65 -0.85 -1.7 -0.95 -1.7 -1.15 -1.65 -1.35 -1.65 -1.5 -1.6 -1.6 -1.6 -1.6 -1.6 -1.65 M-1.5 -1.3 L-1.5 -1.3 M-1.35 -1.3 L-1.35 -1.3 M-1.4 -0.5 L-1.4 -0.5 -1.35 -0.75 -1.3 -0.8 -1.35 -0.8 -1.3 -0.75 -1.25 -0.7 Q-1.2 -0.65 -1.15 -0.7 L-1.15 -0.65 -1.2 -0.55 -1.25 -0.45 -1.35 -0.5 -1.4 -0.5" fill="#9c7142" fill-rule="evenodd" stroke="none"/>
    <path d="M-1.55 -1.65 L-1.55 -1.65 -1.5 -1.7 -1.5 -1.8 -1.5 -1.8 -1.5 -1.8 -1.55 -1.9 -1.5 -1.85 -1.5 -1.85 -1.45 -1.8 -1.45 -1.65 -1.5 -1.7 -1.5 -1.75 -1.5 -1.65 -1.55 -1.65 -1.55 -1.65" fill="#4e3922" fill-rule="evenodd" stroke="none"/>
    <path d="M-1.7 -1.05 L-1.7 -1.35 -1.7 -1.3 -1.7 -1.45 -1.7 -1.65 -1.65 -1.65 Q-1.6 -1.65 -1.65 -1.65 L-1.6 -1.7 -1.6 -1.65 Q-1.6 -1.6 -1.6 -1.65 L-1.6 -1.6 -1.6 -1.6 -1.65 -1.5 -1.65 -1.35 -1.7 -1.15 -1.7 -0.95 -1.7 -1.05" fill="#5f4528" fill-rule="evenodd" stroke="none"/>
    <path d="M-1.7 -1.35 L-1.7 -1.45 -1.7 -1.3 -1.7 -1.35" fill="#8b653c" fill-rule="evenodd" stroke="none"/>
    <path d="M-1.45 -1.15 L-1.45 -1.15 -1.5 -1.2 Q-1.55 -1.25 -1.6 -1.25 L-1.6 -1.3 -1.55 -1.35 -1.5 -1.3 -1.5 -1.3 -1.5 -1.25 -1.45 -1.2 -1.45 -1.15 -1.45 -1.15 M-1.4 -1.35 L-1.4 -1.35 -1.35 -1.3 -1.4 -1.35 -1.4 -1.35 M-1.25 -1.3 L-1.25 -1.6 -1.25 -1.7 -1.15 -1.65 Q-1.1 -1.55 -1.15 -1.5 L-1.1 -1.45 -1.05 -1.45 -1.1 -1.45 -1.15 -1.45 -1.15 -1.4 -1.1 -1.35 -1.15 -1.35 -1.25 -1.3 -1.25 -1.3 M-1.35 -1.05 L-1.35 -1.05 -1.35 -1.05 -1.35 -1.05" fill="#a97740" fill-rule="evenodd" stroke="none"/>
    <path d="M-1.05 -0.8 L-1.05 -0.7 -1.05 -0.65 -1.0 -0.6 -1.05 -0.55 -1.0 -0.5 -1.0 -0.5 -0.95 -0.5 -0.9 -0.5 -0.9 -0.5 -0.75 -0.5 -0.7 -0.5 -0.65 -0.5 Q-0.7 -0.45 -0.75 -0.45 L-0.85 -0.45 -0.9 -0.45 Q-0.9 -0.4 -0.95 -0.4 L-0.95 -0.45 -1.0 -0.45 -1.0 -0.4 -1.0 -0.45 -1.05 -0.5 -1.1 -0.5 -1.1 -0.6 -1.1 -0.65 -1.05 -0.7 -1.05 -0.8 M-0.65 -0.5 L-0.65 -0.5" fill="#c28c51" fill-rule="evenodd" stroke="none"/>
    <path d="M-0.75 -0.85 L-0.75 -0.85 -0.75 -0.85 -0.75 -0.85 -0.75 -0.85 M-0.8 -0.9 L-0.85 -0.95 -0.85 -0.95 -0.85 -1.0 -0.8 -0.95 -0.8 -0.9 M-1.05 -0.8 L-1.05 -0.8 -1.0 -0.75 -0.75 -0.6 -0.7 -0.55 -0.65 -0.5 -0.7 -0.5 -0.75 -0.5 -0.9 -0.5 -0.9 -0.5 -0.95 -0.5 -1.0 -0.5 -1.0 -0.5 -1.05 -0.55 -1.0 -0.6 -1.05 -0.65 -1.05 -0.7 -1.05 -0.8" fill="#d99d5d" fill-rule="evenodd" stroke="none"/>
    <path d="M-1.7 -0.35 L-1.7 -0.8 -1.7 -1.05 -1.7 -0.95 -1.65 -0.85 -1.65 -0.75 -1.65 -0.55 -1.7 -0.35" fill="#382818" fill-rule="evenodd" stroke="none"/>
    <path d="M-1.7 1.25 L-1.7 0.65 -1.7 0.05 -1.65 0.0 -1.65 -0.05 -1.55 -0.05 -1.45 -0.1 -1.4 -0.1 Q-1.35 -0.1 -1.4 -0.15 L-1.35 -0.25 -1.4 -0.25 Q-1.45 -0.2 -1.5 -0.25 L-1.55 -0.25 -1.6 -0.25 -1.6 -0.25 -1.65 -0.25 -1.65 -0.75 -1.6 -0.75 -1.6 -0.75 -1.55 -0.7 -1.5 -0.65 -1.45 -0.6 -1.45 -0.45 -1.35 -0.25 -1.15 -0.1 -1.1 -0.1 -1.05 -0.1 -0.95 -0.1 -0.8 -0.15 -0.7 -0.25 -0.6 -0.3 -0.5 -0.3 -0.45 -0.3 -0.45 -0.25 -0.45 -0.25 -0.5 -0.2 Q-0.65 -0.1 -0.75 -0.1 L-0.95 -0.1 -0.9 -0.05 -0.8 -0.05 -0.8 -0.05 -0.85 0.0 -0.9 -0.05 -0.95 -0.05 -1.0 0.05 -1.1 0.05 -1.1 0.1 -1.05 0.15 -1.1 0.2 -1.15 0.25 -1.1 0.35 -1.1 0.4 -1.15 0.45 -1.15 0.4 -1.2 0.4 -1.2 0.35 -1.25 0.25 -1.3 0.3 Q-1.3 0.3 -1.3 0.35 -1.25 0.35 -1.3 0.4 L-1.3 0.4 -1.3 0.45 -1.25 0.5 -1.2 0.6 -1.25 0.65 -1.25 0.7 -1.3 0.7 -1.35 0.75 -1.35 0.8 -1.3 0.75 -1.3 0.7 -1.25 0.75 -1.25 0.9 -1.25 1.0 -1.3 1.0 -1.3 0.95 -1.35 1.0 -1.4 1.0 -1.4 0.95 -1.45 0.95 -1.5 1.0 -1.5 1.05 -1.45 1.15 Q-1.4 1.15 -1.35 1.1 L-1.3 1.1 -1.25 1.15 -1.25 1.2 -1.3 1.2 -1.35 1.2 -1.4 1.2 -1.45 1.2 -1.5 1.3 -1.5 1.25 -1.55 1.3 -1.55 1.35 -1.55 1.35 -1.6 1.4 -1.65 1.4 -1.6 1.35 -1.6 1.35 Q-1.6 1.3 -1.6 1.3 L-1.7 1.25 M-0.8 -0.25 L-0.85 -0.2 Q-0.85 -0.15 -0.9 -0.15 -1.1 -0.15 -1.2 -0.25 -1.35 -0.35 -1.4 -0.5 L-1.35 -0.5 -1.25 -0.45 -1.2 -0.55 -1.15 -0.65 -1.1 -0.6 -1.15 -0.5 -1.25 -0.35 -0.85 -0.3 -0.75 -0.3 -0.8 -0.25 M-1.7 0.05 L-1.7 0.05 M-1.15 0.4 L-1.15 0.4 M-1.15 0.45 L-1.15 0.55 -1.15 0.45 -1.15 0.45 M-1.1 0.35 L-1.1 0.35 -1.1 0.35 M-1.35 0.45 L-1.35 0.5 -1.35 0.45 M-1.4 0.35 L-1.4 0.45 -1.35 0.35 -1.4 0.35 M-1.45 0.4 L-1.45 0.4 -1.5 0.45 -1.45 0.4 M-1.55 0.35 L-1.55 0.35 -1.5 0.35 Q-1.5 0.3 -1.55 0.35 L-1.55 0.35 M-1.55 0.7 L-1.55 0.75 -1.5 0.7 -1.5 0.65 -1.55 0.7 M-1.5 0.75 L-1.5 0.75 -1.5 0.75 M-1.35 1.0 L-1.35 1.0 M-1.5 1.3 L-1.5 1.3" fill="#b1804d" fill-rule="evenodd" stroke="none"/>
    <path d="M-1.7 0.05 L-1.7 0.0 -1.7 -0.25 -1.7 -0.35 -1.65 -0.55 -1.65 -0.75 -1.65 -0.25 Q-1.65 -0.2 -1.65 -0.1 L-1.7 0.05 -1.7 0.05 M-1.65 -0.75 L-1.65 -0.75" fill="#7b5a37" fill-rule="evenodd" stroke="none"/>
    <path d="M-1.65 -0.25 L-1.6 -0.25 -1.6 -0.25 -1.55 -0.25 -1.5 -0.25 Q-1.45 -0.2 -1.4 -0.25 L-1.35 -0.25 -1.4 -0.15 Q-1.35 -0.1 -1.4 -0.1 L-1.45 -0.1 -1.55 -0.05 -1.65 -0.05 -1.65 0.0 -1.7 0.05 -1.65 -0.1 Q-1.65 -0.2 -1.65 -0.25" fill="#c89558" fill-rule="evenodd" stroke="none"/>
    <path d="M-1.7 0.0 L-1.7 -0.1 -1.7 -0.2 -1.7 -0.25 -1.7 0.0" fill="#b48650" fill-rule="evenodd" stroke="none"/>
    <path d="M-1.7 -0.1 L-1.7 -0.2 -1.7 -0.1" fill="#322517" fill-rule="evenodd" stroke="none"/>
    <path d="M-1.1 -0.6 L-1.1 -0.65 -1.1 -0.6 -1.1 -0.5 -1.05 -0.5 -1.0 -0.45 -1.0 -0.4 -1.0 -0.45 -0.95 -0.45 -0.95 -0.4 Q-0.9 -0.4 -0.9 -0.45 L-0.85 -0.45 -0.75 -0.45 Q-0.7 -0.45 -0.65 -0.5 L-0.65 -0.45 -0.7 -0.35 -0.75 -0.35 -0.85 -0.35 -1.25 -0.35 -1.15 -0.5 -1.1 -0.6 M-0.6 -0.35 L-0.55 -0.35 -0.5 -0.35 -0.6 -0.35 -0.6 -0.35" fill="#b2804a" fill-rule="evenodd" stroke="none"/>
    <path d="M-0.05 -1.05 L-0.05 -1.25 -0.05 -0.95 -0.05 -1.05" fill="#5f472b" fill-rule="evenodd" stroke="none"/>
    <path d="M-0.05 -0.75 L-0.05 -0.9 -0.05 -1.05 -0.05 -0.95 -0.05 -0.85 -0.05 -0.75 -0.05 -0.75" fill="#9d7446" fill-rule="evenodd" stroke="none"/>
    <path d="M-0.05 -0.65 L-0.05 -0.75 -0.05 -0.75 -0.05 -0.55 -0.05 -0.65" fill="#5c4429" fill-rule="evenodd" stroke="none"/>
    <path d="M-0.9 -1.0 L-0.85 -1.15 -0.85 -1.15 -0.75 -0.95 -0.7 -0.8 -0.75 -0.85 -0.8 -0.9 -0.8 -0.9 -0.8 -0.95 -0.85 -1.0 -0.85 -0.95 -0.9 -1.0 M-0.75 -0.85 L-0.75 -0.85 -0.75 -0.85" fill="#c88e52" fill-rule="evenodd" stroke="none"/>
    <path d="M-0.4 -0.25 L-0.3 -0.15 -0.3 -0.15 -0.3 -0.1 -0.35 -0.1 -0.25 -0.05 Q-0.45 0.0 -0.6 0.1 L-0.65 0.15 -0.55 0.15 -0.45 0.15 -0.45 0.15 -0.5 0.15 -0.55 0.2 -0.65 0.2 Q-0.65 0.15 -0.7 0.2 -0.75 0.1 -0.8 0.15 L-0.95 0.2 -1.0 0.2 -1.05 0.25 -1.05 0.3 -1.1 0.35 -1.15 0.25 -1.1 0.2 -1.05 0.15 -1.1 0.1 -1.1 0.05 -1.0 0.05 -0.95 -0.05 -0.9 -0.05 -0.85 0.0 -0.8 -0.05 -0.8 -0.05 -0.75 -0.1 Q-0.65 -0.1 -0.5 -0.2 L-0.45 -0.25 -0.45 -0.25 -0.4 -0.25" fill="#bc8d57" fill-rule="evenodd" stroke="none"/>
    <path d="M-0.8 -0.05 L-0.9 -0.05 -0.95 -0.1 -0.75 -0.1 -0.8 -0.05" fill="#41301e" fill-rule="evenodd" stroke="none"/>
    <path d="M-0.05 -0.55 L-0.05 -0.65 -0.05 -0.55 -0.05 -0.35 -0.05 -0.35 -0.05 -0.55" fill="#ad814d" fill-rule="evenodd" stroke="none"/>
    <path d="M-0.05 -0.3 L-0.05 -0.35 -0.05 -0.3 -0.05 -0.3 M-0.05 -0.35 L-0.05 -0.35" fill="#705635" fill-rule="evenodd" stroke="none"/>
    <path d="M-0.35 -0.55 L-0.35 -0.5 -0.35 -0.55" fill="#ce995e" fill-rule="evenodd" stroke="none"/>
    <path d="M-0.75 -0.35 L-0.75 -0.3 -0.85 -0.3 -1.25 -0.35 -0.85 -0.35 -0.75 -0.35 M-0.5 -0.35 L-0.5 -0.3 -0.6 -0.3 -0.6 -0.35 -0.5 -0.35" fill="#705330" fill-rule="evenodd" stroke="none"/>
    <path d="M-0.25 0.45 L-0.3 0.45 -0.3 0.45 -0.25 0.4 -0.25 0.45" fill="#5f482a" fill-rule="evenodd" stroke="none"/>
    <path d="M-0.3 0.4 L-0.3 0.45 -0.35 0.5 -0.35 0.45 -0.3 0.4" fill="#644c2d" fill-rule="evenodd" stroke="none"/>
    <path d="M-0.45 0.45 L-0.45 0.4 -0.45 0.45" fill="#6f5432" fill-rule="evenodd" stroke="none"/>
    <path d="M-0.05 0.45 L-0.1 0.5 -0.05 0.4 -0.05 0.4 0.0 0.45 -0.05 0.45" fill="#80633c" fill-rule="evenodd" stroke="none"/>
    <path d="M-0.25 0.45 L-0.25 0.4 -0.25 0.45" fill="#45341d" fill-rule="evenodd" stroke="none"/>
    <path d="M-0.2 0.55 L-0.2 0.5 -0.15 0.4 -0.15 0.5 -0.2 0.55" fill="#4a371f" fill-rule="evenodd" stroke="none"/>
    <path d="M-0.7 0.2 Q-0.75 0.25 -0.85 0.25 L-0.95 0.25 -1.0 0.25 -1.0 0.3 -1.05 0.3 -1.05 0.25 -1.0 0.2 -0.95 0.2 -0.8 0.15 Q-0.75 0.1 -0.7 0.2" fill="#cf9b5d" fill-rule="evenodd" stroke="none"/>
    <path d="M-0.8 0.35 L-0.8 0.3 -0.75 0.3 -0.7 0.35 -0.75 0.35 -0.8 0.4 -0.8 0.4 -0.8 0.45 -0.8 0.5 -0.8 0.45 -0.85 0.45 -0.85 0.4 -0.85 0.35 -0.8 0.35 -0.8 0.35 M-0.9 0.45 L-0.85 0.45 -0.85 0.5 Q-0.9 0.5 -0.9 0.45 L-0.9 0.45 M-0.75 0.35 L-0.75 0.35" fill="#c09057" fill-rule="evenodd" stroke="none"/>
    <path d="M-0.8 0.4 L-0.8 0.4 -0.75 0.35 -0.8 0.4" fill="#392916" fill-rule="evenodd" stroke="none"/>
    <path d="M-0.8 0.35 L-0.8 0.35 -0.85 0.35 -0.8 0.35" fill="#49351f" fill-rule="evenodd" stroke="none"/>
    <path d="M-0.85 0.4 L-0.85 0.45 -0.9 0.45 -0.85 0.4" fill="#41301a" fill-rule="evenodd" stroke="none"/>
    <path d="M-1.0 0.45 L-1.0 0.4 -0.95 0.4 -1.0 0.45 -1.0 0.45" fill="#433019" fill-rule="evenodd" stroke="none"/>
    <path d="M-1.0 0.3 L-0.95 0.3 Q-1.0 0.35 -1.05 0.35 -1.05 0.35 -1.05 0.4 L-1.05 0.4 -1.05 0.5 -1.0 0.4 Q-1.0 0.4 -1.0 0.45 L-1.0 0.45 -1.0 0.5 Q-1.1 0.6 -1.0 0.6 L-1.1 0.65 -1.15 0.7 -1.15 0.8 -1.1 0.85 -1.15 0.9 -1.15 0.95 -1.15 1.0 -1.15 1.0 -1.2 1.05 -1.2 1.0 -1.25 1.05 -1.25 1.1 -1.25 1.15 -1.3 1.1 -1.35 1.1 Q-1.4 1.15 -1.45 1.15 L-1.5 1.05 -1.45 1.05 -1.45 1.0 -1.5 1.0 -1.45 0.95 -1.4 0.95 -1.4 1.0 -1.35 1.0 -1.3 0.95 -1.3 1.0 -1.25 1.0 -1.25 0.9 -1.25 0.75 -1.3 0.7 -1.25 0.7 -1.25 0.65 -1.2 0.6 -1.25 0.5 -1.3 0.45 -1.3 0.45 -1.25 0.45 -1.3 0.4 -1.3 0.4 -1.3 0.4 Q-1.25 0.35 -1.3 0.35 -1.3 0.3 -1.3 0.3 L-1.25 0.25 -1.2 0.35 -1.2 0.4 -1.2 0.45 -1.2 0.45 -1.15 0.4 -1.15 0.4 -1.2 0.45 -1.15 0.45 -1.15 0.55 -1.15 0.45 -1.1 0.4 -1.1 0.35 -1.1 0.35 -1.05 0.3 -1.0 0.3 M-1.0 0.45 L-1.0 0.45 M-1.35 0.75 L-1.3 0.7 -1.3 0.7 -1.35 0.75 M-1.25 1.0 L-1.3 1.1 -1.25 1.05 -1.25 1.0 M-1.35 1.0 L-1.35 1.05 -1.35 1.0 M-1.15 0.7 L-1.15 0.7 -1.15 0.7 M-1.15 0.45 L-1.15 0.45 M-1.25 0.45 L-1.25 0.4 -1.25 0.45 M-1.2 0.7 L-1.2 0.8 -1.2 0.7 M-1.35 1.05 L-1.3 1.0 -1.3 1.0 -1.35 1.05" fill="#9f713e" fill-rule="evenodd" stroke="none"/>
    <path d="M-0.85 0.5 L-0.85 0.45 -0.85 0.5" fill="#543e22" fill-rule="evenodd" stroke="none"/>
    <path d="M-0.75 0.35 L-0.75 0.35 -0.75 0.35" fill="#533b21" fill-rule="evenodd" stroke="none"/>
    <path d="M-0.65 0.45 L-0.7 0.45 -0.7 0.45 -0.65 0.45 -0.65 0.45" fill="#64492a" fill-rule="evenodd" stroke="none"/>
    <path d="M-0.75 0.45 L-0.75 0.4 -0.75 0.45" fill="#5a4226" fill-rule="evenodd" stroke="none"/>
    <path d="M-0.7 0.45 L-0.75 0.5 -0.7 0.45 -0.7 0.45" fill="#614728" fill-rule="evenodd" stroke="none"/>
    <path d="M-0.55 0.75 L-0.6 0.75 -0.6 0.75 -0.55 0.7 -0.55 0.75" fill="#604728" fill-rule="evenodd" stroke="none"/>
    <path d="M-0.6 0.75 L-0.65 0.75 -0.6 0.7 -0.6 0.75" fill="#5f4527" fill-rule="evenodd" stroke="none"/>
    <path d="M-0.75 0.75 L-0.8 0.8 -0.75 0.7 -0.75 0.75" fill="#543e23" fill-rule="evenodd" stroke="none"/>
    <path d="M-0.6 0.8 L-0.55 0.7 -0.5 0.65 -0.5 0.7 -0.6 0.8" fill="#4c3820" fill-rule="evenodd" stroke="none"/>
    <path d="M-0.1 1.05 Q-0.1 1.15 -0.2 1.15 L-0.3 1.15 Q-0.25 1.15 -0.3 1.2 -0.25 1.2 -0.25 1.2 L-0.25 1.25 -0.3 1.25 -0.35 1.25 -0.4 1.25 -0.45 1.25 Q-0.5 1.2 -0.55 1.25 L-0.6 1.25 -0.65 1.2 -0.7 1.25 -0.75 1.3 -0.75 1.35 -0.7 1.3 -0.7 1.35 -0.7 1.35 -0.65 1.35 -0.65 1.35 -0.6 1.35 -0.6 1.4 -0.7 1.45 -0.75 1.5 -0.8 1.5 -0.85 1.5 -0.85 1.45 -0.9 1.4 -0.85 1.35 -0.8 1.35 -0.8 1.35 -0.75 1.3 -0.75 1.3 -0.8 1.3 -0.85 1.3 -0.85 1.35 -0.9 1.35 -0.85 1.3 -0.9 1.3 -0.9 1.3 -0.95 1.35 -1.0 1.35 -1.0 1.3 Q-1.0 1.3 -1.05 1.3 L-1.1 1.25 -1.15 1.25 -1.2 1.2 -1.2 1.1 -1.25 1.05 -1.15 1.1 -1.15 1.05 Q-1.1 1.0 -1.15 1.0 L-1.15 0.95 -1.15 0.9 -1.1 0.85 -1.15 0.8 -1.15 0.7 -1.1 0.65 -1.0 0.6 Q-1.1 0.6 -1.0 0.5 L-0.95 0.6 -0.9 0.75 -0.9 0.75 -0.85 0.75 -0.9 0.8 -0.9 0.75 Q-1.05 0.85 -1.1 1.05 L-1.05 1.05 -1.0 1.05 -1.0 1.0 -1.0 1.0 -0.95 1.0 -1.0 1.05 -1.0 1.05 -0.95 1.1 -0.95 1.1 -1.0 1.15 -0.95 1.2 -0.95 1.2 -0.9 1.15 -0.85 1.2 -0.8 1.2 Q-0.8 1.15 -0.75 1.15 L-0.7 1.15 -0.65 1.2 -0.65 1.15 Q-0.65 1.1 -0.6 1.15 L-0.55 1.15 Q-0.5 1.2 -0.5 1.15 L-0.45 1.15 -0.4 1.15 -0.35 1.1 -0.25 1.05 -0.2 1.1 -0.2 1.05 Q-0.15 1.05 -0.15 1.05 L-0.15 1.05 -0.1 1.05 M-0.85 0.75 L-0.85 0.75 M-0.95 0.7 L-1.0 0.75 -0.95 0.7 M-0.9 0.75 L-0.9 0.75 -0.95 0.75 -0.9 0.75 M-1.15 0.7 L-1.15 0.7 M-1.05 1.3 L-1.05 1.3 M-1.0 1.35 L-1.0 1.35 -0.95 1.3 -1.0 1.3 -1.0 1.35 M-0.95 1.35 L-0.95 1.35 M-0.8 1.3 L-0.8 1.3 M-0.7 1.25 L-0.7 1.25" fill="#c58b4c" fill-rule="evenodd" stroke="none"/>
    <path d="M-0.85 0.75 L-0.8 0.7 -0.85 0.75 -0.85 0.75" fill="#523d21" fill-rule="evenodd" stroke="none"/>
    <path d="M-0.8 0.7 L-0.8 0.75 -0.8 0.7" fill="#5c4527" fill-rule="evenodd" stroke="none"/>
    <path d="M-0.9 0.75 L-0.9 0.75 -0.95 0.75 -0.9 0.75" fill="#362613" fill-rule="evenodd" stroke="none"/>
    <path d="M-0.9 0.75 L-0.85 0.7 -0.9 0.75 -0.9 0.75" fill="#47341d" fill-rule="evenodd" stroke="none"/>
    <path d="M-0.95 0.7 L-1.0 0.75 -0.95 0.7" fill="#4f371b" fill-rule="evenodd" stroke="none"/>
    <path d="M-0.8 1.0 L-0.75 0.95 -0.8 1.0 -0.85 1.1 -0.8 1.0" fill="#49351d" fill-rule="evenodd" stroke="none"/>
    <path d="M-0.85 1.0 L-0.9 1.05 -0.85 1.0" fill="#614626" fill-rule="evenodd" stroke="none"/>
    <path d="M-0.95 1.0 L-1.0 1.05 -1.0 1.05 -0.95 1.0" fill="#543b1f" fill-rule="evenodd" stroke="none"/>
    <path d="M-0.6 1.05 L-0.55 1.0 -0.55 1.05 -0.6 1.1 -0.6 1.05" fill="#594225" fill-rule="evenodd" stroke="none"/>
    <path d="M-0.65 1.05 L-0.65 1.0 -0.65 1.05" fill="#523b21" fill-rule="evenodd" stroke="none"/>
    <path d="M-0.75 1.05 L-0.8 1.1 -0.75 1.0 -0.75 1.05" fill="#543d23" fill-rule="evenodd" stroke="none"/>
    <path d="M-0.65 1.0 L-0.7 1.05 -0.7 1.0 -0.65 1.0 -0.65 1.0" fill="#694c2c" fill-rule="evenodd" stroke="none"/>
    <path d="M-0.75 1.1 L-0.7 1.0 -0.7 1.05 -0.75 1.1" fill="#4d381e" fill-rule="evenodd" stroke="none"/>
    <path d="M-0.05 0.7 L-0.15 0.8 -0.05 0.65 -0.05 0.7" fill="#533e22" fill-rule="evenodd" stroke="none"/>
    <path d="M-0.05 0.75 L-0.1 0.8 -0.05 0.7 -0.05 0.75" fill="#42311b" fill-rule="evenodd" stroke="none"/>
    <path d="M-0.1 0.7 L-0.15 0.8 -0.1 0.65 -0.1 0.7" fill="#533e23" fill-rule="evenodd" stroke="none"/>
    <path d="M-0.25 0.75 L-0.25 0.7 Q-0.2 0.7 -0.25 0.75" fill="#503c21" fill-rule="evenodd" stroke="none"/>
    <path d="M0.0 1.0 L0.0 1.0 0.0 0.95 0.0 1.0 M-0.2 0.75 L-0.2 0.7 -0.15 0.65 -0.2 0.7 -0.2 0.75" fill="#48361f" fill-rule="evenodd" stroke="none"/>
    <path d="M-0.25 0.7 L-0.25 0.75 -0.3 0.8 -0.3 0.75 -0.25 0.7" fill="#564024" fill-rule="evenodd" stroke="none"/>
    <path d="M-0.35 0.75 L-0.35 0.7 -0.35 0.75" fill="#574125" fill-rule="evenodd" stroke="none"/>
    <path d="M-0.35 0.75 L-0.4 0.75 -0.4 0.75 -0.35 0.7 -0.35 0.75" fill="#332514" fill-rule="evenodd" stroke="none"/>
    <path d="M-0.45 0.8 L-0.35 0.65 -0.4 0.7 -0.45 0.8" fill="#42311c" fill-rule="evenodd" stroke="none"/>
    <path d="M-0.3 1.05 L-0.35 1.1 -0.3 1.0 -0.3 1.05" fill="#5d4627" fill-rule="evenodd" stroke="none"/>
    <path d="M-0.35 1.0 L-0.4 1.1 Q-0.4 1.0 -0.35 1.0 -0.3 1.0 -0.35 1.0" fill="#8e6a3d" fill-rule="evenodd" stroke="none"/>
    <path d="M-0.45 1.05 L-0.45 1.05 -0.45 1.05 -0.5 1.1 -0.5 1.05 -0.45 1.0 Q-0.45 1.0 -0.45 1.05" fill="#a9804b" fill-rule="evenodd" stroke="none"/>
    <path d="M-0.45 1.05 L-0.4 0.95 -0.45 1.05 -0.45 1.05" fill="#574124" fill-rule="evenodd" stroke="none"/>
    <path d="M-0.1 1.05 L-0.1 1.05 -0.15 1.05 -0.15 1.05 Q-0.15 1.05 -0.1 1.05" fill="#5b4325" fill-rule="evenodd" stroke="none"/>
    <path d="M-1.35 0.45 L-1.35 0.5 -1.35 0.45" fill="#432f1a" fill-rule="evenodd" stroke="none"/>
    <path d="M-1.3 0.4 L-1.3 0.4 -1.25 0.45 -1.3 0.45 -1.3 0.45 -1.3 0.4" fill="#51381d" fill-rule="evenodd" stroke="none"/>
    <path d="M-1.4 0.35 L-1.35 0.35 -1.4 0.45 -1.4 0.35" fill="#2d1f10" fill-rule="evenodd" stroke="none"/>
    <path d="M-1.45 0.4 L-1.5 0.45 -1.45 0.4 -1.45 0.4" fill="#2f2011" fill-rule="evenodd" stroke="none"/>
    <path d="M-1.05 0.35 L-1.05 0.4 -1.05 0.4 Q-1.05 0.35 -1.05 0.35" fill="#3b2814" fill-rule="evenodd" stroke="none"/>
    <path d="M-1.15 0.45 L-1.15 0.45 -1.15 0.45" fill="#463018" fill-rule="evenodd" stroke="none"/>
    <path d="M-1.1 0.4 L-1.1 0.35 -1.1 0.4" fill="#2f200f" fill-rule="evenodd" stroke="none"/>
    <path d="M-1.25 0.45 L-1.25 0.4 -1.25 0.45" fill="#442e17" fill-rule="evenodd" stroke="none"/>
    <path d="M-1.15 0.4 L-1.15 0.45 -1.2 0.45 -1.15 0.4" fill="#473018" fill-rule="evenodd" stroke="none"/>
    <path d="M-1.2 0.4 L-1.15 0.4 -1.2 0.45 -1.2 0.45 -1.2 0.4" fill="#422d16" fill-rule="evenodd" stroke="none"/>
    <path d="M-1.55 0.35 L-1.55 0.35 Q-1.5 0.3 -1.5 0.35 L-1.55 0.35 -1.55 0.35" fill="#4b351f" fill-rule="evenodd" stroke="none"/>
    <path d="M-1.55 0.7 L-1.5 0.65 -1.5 0.7 -1.55 0.75 -1.55 0.7" fill="#312314" fill-rule="evenodd" stroke="none"/>
    <path d="M-1.15 0.7 L-1.15 0.7 -1.15 0.7 -1.15 0.7" fill="#3d2b14" fill-rule="evenodd" stroke="none"/>
    <path d="M-1.2 0.7 L-1.2 0.8 -1.2 0.7" fill="#4d3619" fill-rule="evenodd" stroke="none"/>
    <path d="M-1.35 0.75 L-1.3 0.7 -1.3 0.7 -1.3 0.75 -1.35 0.8 -1.35 0.75" fill="#533d23" fill-rule="evenodd" stroke="none"/>
    <path d="M-1.5 0.75 L-1.5 0.75 -1.5 0.75" fill="#3a2919" fill-rule="evenodd" stroke="none"/>
    <path d="M-0.6 1.8 L-0.6 1.85 -0.65 1.9 -0.75 1.9 -0.75 1.85 -0.8 1.8 -0.75 1.85 -0.7 1.85 -0.65 1.8 -0.6 1.8 M-1.35 1.0 L-1.35 1.05 -1.35 1.0 -1.35 1.0" fill="#372615" fill-rule="evenodd" stroke="none"/>
    <path d="M-1.35 1.05 L-1.3 1.0 -1.3 1.0 -1.35 1.05" fill="#3a2917" fill-rule="evenodd" stroke="none"/>
    <path d="M-1.5 1.0 L-1.45 1.0 -1.45 1.05 -1.5 1.05 -1.5 1.0" fill="#694a2a" fill-rule="evenodd" stroke="none"/>
    <path d="M-1.45 1.2 L-1.4 1.2 -1.35 1.2 -1.3 1.2 -1.25 1.2 -1.25 1.25 -1.15 1.3 -1.25 1.3 -1.25 1.3 -1.35 1.25 -1.4 1.3 -1.4 1.3 -1.45 1.35 -1.45 1.3 -1.45 1.2" fill="#9a6b3a" fill-rule="evenodd" stroke="none"/>
    <path d="M-1.05 1.05 L-1.0 1.0 -1.0 1.05 -1.05 1.05" fill="#382613" fill-rule="evenodd" stroke="none"/>
    <path d="M-1.25 1.15 L-1.25 1.1 -1.2 1.0 -1.2 1.05 -1.15 1.05 -1.15 1.0 -1.15 1.0 -1.15 0.95 -1.15 1.0 Q-1.1 1.0 -1.15 1.05 L-1.15 1.1 -1.25 1.05 -1.2 1.1 -1.2 1.2 -1.15 1.25 -1.1 1.25 -1.05 1.3 -1.1 1.35 -1.1 1.3 -1.1 1.3 -1.15 1.3 Q-1.1 1.3 -1.15 1.3 L-1.15 1.3 -1.25 1.25 -1.25 1.2 -1.25 1.15" fill="#b9763a" fill-rule="evenodd" stroke="none"/>
    <path d="M-1.25 1.0 L-1.25 1.05 -1.3 1.1 -1.25 1.0" fill="#3d2a16" fill-rule="evenodd" stroke="none"/>
    <path d="M-1.25 1.1 L-1.25 1.05 -1.2 1.0 -1.25 1.1" fill="#442a13" fill-rule="evenodd" stroke="none"/>
    <path d="M-1.2 1.05 L-1.15 1.0 -1.15 1.05 -1.2 1.05" fill="#402610" fill-rule="evenodd" stroke="none"/>
    <path d="M-1.05 1.3 L-1.05 1.3 -1.05 1.35 -1.1 1.4 -1.1 1.45 -1.1 1.35 -1.05 1.3" fill="#3c220f" fill-rule="evenodd" stroke="none"/>
    <path d="M-1.15 1.3 L-1.15 1.3 Q-1.1 1.3 -1.15 1.3 L-1.1 1.3 -1.1 1.3 -1.1 1.35 -1.1 1.45 -1.1 1.5 -1.1 1.6 -1.1 1.7 -1.05 1.7 -1.1 1.7 -1.15 1.7 -1.15 1.6 Q-1.15 1.6 -1.2 1.55 L-1.2 1.45 Q-1.25 1.35 -1.3 1.35 L-1.3 1.3 Q-1.35 1.3 -1.35 1.3 L-1.4 1.3 -1.4 1.3 -1.35 1.25 -1.25 1.3 -1.25 1.3 -1.15 1.3" fill="#7d4925" fill-rule="evenodd" stroke="none"/>
    <path d="M-1.0 1.3 L-1.0 1.35 -1.05 1.35 -1.05 1.35 -1.0 1.3" fill="#452912" fill-rule="evenodd" stroke="none"/>
    <path d="M-1.1 1.85 Q-1.1 1.85 -1.1 1.9 L-1.15 1.95 -1.2 1.95 -1.15 1.9 -1.25 1.85 -1.25 1.85 -1.3 1.85 -1.35 1.8 -1.35 1.85 -1.35 1.9 -1.4 1.9 -1.45 1.9 -1.45 1.85 -1.45 1.85 -1.45 1.8 -1.4 1.8 -1.45 1.8 -1.45 1.75 -1.35 1.75 -1.25 1.75 -1.25 1.6 Q-1.25 1.55 -1.3 1.5 L-1.4 1.5 Q-1.45 1.45 -1.45 1.5 -1.4 1.55 -1.45 1.6 L-1.55 1.6 -1.6 1.65 -1.6 1.5 -1.5 1.5 -1.45 1.45 -1.4 1.4 -1.45 1.35 -1.4 1.3 -1.35 1.3 Q-1.35 1.3 -1.3 1.3 L-1.3 1.35 Q-1.25 1.35 -1.2 1.45 L-1.2 1.55 Q-1.15 1.6 -1.15 1.6 L-1.15 1.7 -1.1 1.7 -1.1 1.75 -1.15 1.8 -1.15 1.8 Q-1.1 1.8 -1.15 1.85 L-1.1 1.85" fill="#6d4725" fill-rule="evenodd" stroke="none"/>
    <path d="M-1.1 1.45 L-1.05 1.45 -1.0 1.45 -1.0 1.5 -1.05 1.55 -1.0 1.6 -0.95 1.55 -0.95 1.5 -0.85 1.55 -0.8 1.55 -0.7 1.6 -0.65 1.6 -0.65 1.5 Q-0.65 1.45 -0.6 1.45 L-0.45 1.5 Q-0.4 1.55 -0.4 1.65 L-0.35 1.7 -0.25 1.75 -0.3 1.8 -0.3 1.8 -0.35 1.8 -0.4 1.7 -0.5 1.7 -0.55 1.65 -0.6 1.6 -0.65 1.6 -0.65 1.65 -0.7 1.65 -0.75 1.65 -0.8 1.65 -0.8 1.65 -0.85 1.65 -0.9 1.65 -0.95 1.7 -1.05 1.7 -1.1 1.6 -1.1 1.45 M-0.3 1.8 L-0.3 1.8" fill="#966232" fill-rule="evenodd" stroke="none"/>
    <path d="M-1.05 1.7 L-1.1 1.7 -1.1 1.6 -1.1 1.5 -1.1 1.45 -1.1 1.4 -1.1 1.45 -1.1 1.6 -1.05 1.7 -0.95 1.7 -0.9 1.65 -0.85 1.65 -0.8 1.65 -0.8 1.65 -0.75 1.65 -0.7 1.65 -0.65 1.65 -0.65 1.6 -0.6 1.6 -0.55 1.65 -0.5 1.7 -0.4 1.7 -0.35 1.8 -0.35 1.8 Q-0.4 1.75 -0.45 1.75 L-0.5 1.75 -0.55 1.75 -0.65 1.75 -0.75 1.8 -0.85 1.75 -0.95 1.75 -1.0 1.75 -1.05 1.75 -1.05 1.7" fill="#87562a" fill-rule="evenodd" stroke="none"/>
    <path d="M-1.55 1.35 L-1.55 1.3 -1.5 1.25 -1.5 1.3 -1.55 1.3 -1.55 1.35" fill="#2c1d0e" fill-rule="evenodd" stroke="none"/>
    <path d="M-1.6 1.5 L-1.6 1.45 -1.65 1.45 Q-1.65 1.4 -1.6 1.4 L-1.55 1.35 -1.55 1.35 -1.55 1.3 -1.5 1.3 -1.5 1.35 -1.45 1.35 -1.45 1.35 -1.45 1.3 -1.45 1.35 -1.4 1.4 -1.45 1.45 -1.5 1.5 -1.6 1.5 M-1.5 1.3 L-1.5 1.3" fill="#8b6036" fill-rule="evenodd" stroke="none"/>
    <path d="M-1.5 1.3 L-1.45 1.2 -1.45 1.3 -1.45 1.35 -1.45 1.35 -1.5 1.35 -1.5 1.3" fill="#442e16" fill-rule="evenodd" stroke="none"/>
    <path d="M-1.45 1.85 L-1.5 1.8 -1.5 1.75 Q-1.45 1.75 -1.5 1.75 -1.6 1.75 -1.6 1.65 L-1.55 1.6 -1.45 1.6 Q-1.4 1.55 -1.45 1.5 -1.45 1.45 -1.4 1.5 L-1.3 1.5 Q-1.25 1.55 -1.25 1.6 L-1.25 1.75 -1.35 1.75 -1.45 1.75 -1.45 1.8 -1.4 1.8 -1.45 1.8 -1.45 1.85" fill="#52351a" fill-rule="evenodd" stroke="none"/>
    <path d="M-1.2 1.95 L-1.2 1.95 Q-1.2 1.9 -1.25 1.9 L-1.3 1.9 -1.35 1.85 -1.35 1.8 -1.3 1.85 -1.25 1.85 -1.25 1.85 -1.15 1.9 -1.2 1.95" fill="#372412" fill-rule="evenodd" stroke="none"/>
    <path d="M-1.05 1.75 L-1.1 1.8 -1.1 1.85 -1.15 1.85 Q-1.1 1.8 -1.15 1.8 L-1.15 1.8 -1.1 1.75 -1.1 1.7 -1.05 1.7 -1.05 1.75" fill="#3f2613" fill-rule="evenodd" stroke="none"/>
    <path d="M-1.65 1.45 L-1.65 1.4 -1.7 1.4 -1.65 1.35 -1.6 1.35 -1.6 1.35 -1.65 1.4 -1.6 1.4 Q-1.65 1.4 -1.65 1.45" fill="#5d4427" fill-rule="evenodd" stroke="none"/>
    <path d="M-1.6 1.35 Q-1.6 1.3 -1.7 1.3 L-1.7 1.25 -1.6 1.3 Q-1.6 1.3 -1.6 1.35" fill="#563c21" fill-rule="evenodd" stroke="none"/>
    <path d="M-1.45 1.9 L-1.45 1.9 -1.5 1.95 -1.5 1.85 -1.45 1.85 -1.45 1.9" fill="#2e2010" fill-rule="evenodd" stroke="none"/>
    <path d="M-0.1 1.35 L-0.1 1.3 -0.1 1.35" fill="#322312" fill-rule="evenodd" stroke="none"/>
    <path d="M-0.1 1.3 L-0.15 1.35 -0.1 1.3 -0.1 1.3" fill="#332411" fill-rule="evenodd" stroke="none"/>
    <path d="M-0.25 1.35 L-0.2 1.3 -0.2 1.3 -0.25 1.35" fill="#402d17" fill-rule="evenodd" stroke="none"/>
    <path d="M-0.2 1.35 L-0.1 1.25 -0.15 1.3 -0.2 1.35" fill="#322311" fill-rule="evenodd" stroke="none"/>
    <path d="M-0.3 1.3 L-0.35 1.35 -0.35 1.3 -0.3 1.3" fill="#3a2714" fill-rule="evenodd" stroke="none"/>
    <path d="M-0.4 1.3 L-0.4 1.35 -0.45 1.35 -0.4 1.35 -0.4 1.3" fill="#3f2915" fill-rule="evenodd" stroke="none"/>
    <path d="M-0.3 1.8 L-0.35 1.8 -0.4 1.8 -0.45 1.8 -0.5 1.8 -0.55 1.8 -0.6 1.8 -0.55 1.75 -0.5 1.75 -0.45 1.75 Q-0.4 1.75 -0.35 1.8 L-0.35 1.8 -0.3 1.8" fill="#2b1d10" fill-rule="evenodd" stroke="none"/>
    <path d="M-0.15 1.9 L-0.2 1.9 -0.2 1.85 -0.25 1.9 -0.25 1.9 -0.3 1.85 -0.3 1.8 -0.25 1.85 -0.2 1.85 -0.15 1.85 -0.15 1.85 Q-0.1 1.9 -0.15 1.9 M-0.3 1.8 L-0.3 1.8" fill="#352615" fill-rule="evenodd" stroke="none"/>
    <path d="M-0.55 1.35 L-0.5 1.3 Q-0.5 1.25 -0.5 1.3 L-0.5 1.3 -0.55 1.35" fill="#2e1d0e" fill-rule="evenodd" stroke="none"/>
    <path d="M-0.65 1.35 L-0.65 1.35 -0.6 1.3 -0.6 1.35 -0.65 1.35 -0.65 1.35" fill="#3d2713" fill-rule="evenodd" stroke="none"/>
    <path d="M-0.7 1.25 L-0.7 1.3 -0.75 1.35 -0.75 1.3 -0.7 1.25" fill="#432c16" fill-rule="evenodd" stroke="none"/>
    <path d="M-0.7 1.25 L-0.7 1.25 -0.7 1.25" fill="#483016" fill-rule="evenodd" stroke="none"/>
    <path d="M-0.75 1.3 L-0.8 1.35 -0.8 1.35 -0.8 1.3 -0.75 1.3" fill="#462e17" fill-rule="evenodd" stroke="none"/>
    <path d="M-0.8 1.3 L-0.8 1.3 -0.8 1.3" fill="#412914" fill-rule="evenodd" stroke="none"/>
    <path d="M-0.9 1.3 L-0.85 1.3 -0.9 1.35 -0.9 1.3" fill="#462c14" fill-rule="evenodd" stroke="none"/>
    <path d="M-1.0 1.35 L-1.0 1.3 -0.95 1.3 -1.0 1.35 -1.0 1.35" fill="#513418" fill-rule="evenodd" stroke="none"/>
    <path d="M-0.95 1.35 L-0.95 1.35 -0.9 1.35 -0.95 1.35" fill="#3c2510" fill-rule="evenodd" stroke="none"/>
    <path d="M-0.9 1.8 L-0.95 1.8 -1.0 1.8 -1.0 1.8 -1.05 1.75 -1.0 1.75 -0.95 1.75 -0.9 1.75 -0.9 1.8" fill="#3a2312" fill-rule="evenodd" stroke="none"/>
    <path d="M-0.8 1.8 L-0.8 1.8 -0.85 1.85 -0.8 1.8 -0.85 1.8 -0.9 1.8 -0.9 1.75 -0.95 1.75 -0.85 1.75 -0.75 1.8 -0.65 1.75 -0.55 1.75 -0.6 1.8 -0.65 1.8 -0.7 1.85 -0.75 1.85 -0.8 1.8" fill="#664222" fill-rule="evenodd" stroke="none"/>
    <path d="M-0.05 1.9 L-0.05 1.9 -0.1 1.9 -0.1 1.9 -0.15 1.9 -0.05 1.9" fill="#3b2b17" fill-rule="evenodd" stroke="none"/>
    <path d="M-0.6 -0.7 L-0.55 -0.65 -0.5 -0.6 -0.4 -0.75 -0.3 -0.85 -0.2 -0.8 -0.3 -0.7 -0.3 -0.7 -0.4 -0.6 -0.4 -0.55 -0.35 -0.55 -0.35 -0.5 -0.05 -0.3 0.1 -0.15 0.15 -0.1 0.15 -0.1 0.45 0.15 0.65 0.35 0.7 0.4 0.75 0.45 0.8 0.45 0.85 0.5 0.9 0.55 0.95 0.6 1.05 0.7 1.1 0.7 1.1 0.75 1.2 0.8 1.6 1.2 1.65 1.2 M0.1 -0.15 L0.1 -0.15 M1.35 1.25 L1.1 1.05 1.05 1.05 1.0 1.0 0.95 0.95 0.85 0.9 0.85 0.85 0.8 0.85 0.8 0.8 0.75 0.8 0.75 0.75 0.7 0.75 0.7 0.7 0.35 0.45 0.35 0.4 0.25 0.35 0.05 0.15 -0.3 -0.15 -0.3 -0.15 -0.4 -0.25 -0.45 -0.25 -0.45 -0.3 -0.5 -0.3 -0.5 -0.35 -0.55 -0.35 -0.6 -0.35 -0.6 -0.3 -0.7 -0.25 -0.8 -0.15 -0.95 -0.1 -1.05 -0.1 -1.1 -0.1 -1.15 -0.1 -1.35 -0.25 -1.45 -0.45 -1.45 -0.6 -1.45 -0.75 -1.35 -0.95 -1.35 -0.95 -1.3 -0.95 -1.3 -1.05 -1.35 -1.05 -1.35 -1.05 Q-1.4 -1.05 -1.45 -1.1 L-1.45 -1.15 -1.45 -1.15 -1.45 -1.2 -1.5 -1.25 -1.5 -1.3 -1.5 -1.3 Q-1.45 -1.35 -1.45 -1.35 L-1.4 -1.35 -1.4 -1.35 -1.35 -1.3 -1.35 -1.3 -1.3 -1.35 -1.25 -1.3 -1.2 -1.25 -1.2 -1.25 -1.2 -1.2 -1.1 -1.15 -1.05 -1.1 -0.95 -1.05 -0.95 -1.0 -0.9 -1.0 -0.85 -0.95 -0.85 -0.95 -0.8 -0.9 -0.8 -0.9 -0.75 -0.85 -0.75 -0.85 -0.7 -0.8 -0.6 -0.7 M1.35 1.25 L1.6 1.5 1.65 1.5 M-1.25 -1.3 L-1.25 -1.3 -1.25 -1.3 M-1.25 -0.95 L-1.25 -0.95 -1.05 -0.8 -1.05 -0.8 -1.0 -0.75 -0.75 -0.6 -0.7 -0.55 -0.65 -0.5 -0.65 -0.5 -0.65 -0.45 -0.7 -0.35 -0.75 -0.35 -0.75 -0.3 -0.8 -0.25 -0.85 -0.2 Q-0.85 -0.15 -0.9 -0.15 -1.1 -0.15 -1.2 -0.25 -1.35 -0.35 -1.4 -0.5 L-1.4 -0.5 -1.35 -0.75 -1.3 -0.8 -1.25 -0.95 M-0.75 -0.85 L-0.75 -0.85 M-0.6 -0.35 L-0.6 -0.35 M-0.05 -0.3 L-0.05 -0.3" fill="none" stroke="#000000" stroke-linecap="round" stroke-linejoin="round" stroke-opacity="0.4" stroke-width="1.0"/>
    <path d="M1.55 -1.85 Q1.6 -1.85 1.6 -1.9 L1.65 -1.9 1.7 -1.85 1.7 -1.8 1.7 -1.5 1.7 -1.15 1.7 -1.15 1.7 -0.95 1.7 -0.9 1.7 -0.3 1.7 -0.2 1.7 0.2 1.7 0.35 1.7 0.4 1.7 0.65 1.65 0.75 1.65 0.95 1.7 1.0 1.75 1.0 1.7 1.1 1.7 1.2 1.7 1.25 1.7 1.35 1.7 1.5 1.7 1.7 1.65 1.9 1.65 1.8 1.65 1.9 1.6 1.9 Q1.55 1.85 1.55 1.9 L1.55 1.95 1.5 1.9 1.45 1.9 Q1.45 1.85 1.4 1.85 L1.4 1.9 1.35 1.85 1.3 1.9 1.3 1.95 1.25 1.95 1.2 1.95 1.15 1.9 1.1 1.9 1.1 1.85 Q1.1 1.8 1.0 1.75 L0.95 1.75 0.9 1.7 0.9 1.75 0.85 1.8 0.8 1.75 0.85 1.8 0.85 1.9 0.8 1.9 0.75 1.85 0.7 1.9 0.65 1.9 0.6 1.9 0.55 1.9 0.5 1.9 0.45 1.9 0.4 1.85 0.4 1.9 0.35 1.9 0.3 1.9 Q0.3 1.95 0.25 1.95 L0.2 1.95 0.15 1.9 0.1 1.9 0.0 1.85 0.0 1.9 -0.05 1.9 -0.05 1.9 -0.05 1.9 -0.1 1.9 -0.1 1.9 -0.15 1.9 -0.15 1.9 -0.2 1.9 -0.2 1.85 -0.25 1.9 -0.25 1.9 -0.3 1.85 -0.3 1.8 -0.35 1.8 -0.4 1.8 -0.45 1.8 -0.5 1.8 -0.55 1.8 -0.6 1.8 -0.6 1.85 -0.65 1.9 -0.75 1.9 -0.75 1.85 -0.8 1.8 -0.8 1.8 -0.85 1.85 -0.8 1.8 -0.85 1.8 -0.9 1.8 -0.95 1.8 -1.0 1.8 -1.0 1.8 -1.05 1.75 -1.1 1.8 -1.1 1.85 Q-1.1 1.85 -1.1 1.9 L-1.15 1.95 -1.2 1.95 -1.2 1.95 Q-1.2 1.9 -1.25 1.9 L-1.3 1.9 -1.35 1.85 -1.35 1.9 -1.4 1.9 -1.45 1.9 -1.45 1.9 -1.5 1.95 -1.5 1.85 -1.45 1.85 -1.45 1.85 -1.5 1.8 -1.5 1.75 Q-1.45 1.75 -1.5 1.75 -1.6 1.75 -1.6 1.65 L-1.6 1.5 -1.6 1.45 -1.65 1.45 -1.65 1.4 -1.7 1.4 -1.65 1.35 -1.6 1.35 Q-1.6 1.3 -1.7 1.3 L-1.7 1.25 -1.7 0.65 -1.7 0.05 -1.7 0.0 -1.7 -0.1 -1.7 -0.2 -1.7 -0.25 -1.7 -0.35 -1.7 -0.8 -1.7 -1.05 -1.7 -1.35 -1.7 -1.45 -1.7 -1.65 -1.65 -1.65 Q-1.6 -1.65 -1.65 -1.65 L-1.6 -1.7 -1.6 -1.65 Q-1.6 -1.6 -1.6 -1.65 L-1.55 -1.65 -1.55 -1.65 -1.5 -1.7 -1.5 -1.8 -1.5 -1.8 -1.5 -1.8 -1.55 -1.9 -1.5 -1.85 -1.5 -1.85 -1.45 -1.85 -1.45 -1.85 -1.45 -1.9 -1.4 -1.95 -1.35 -1.95 -1.3 -1.9 -1.25 -1.9 -1.25 -1.9 -1.2 -1.85 -1.2 -1.85 -1.15 -1.85 -1.15 -1.9 -1.15 -1.85 -1.1 -1.9 -1.05 -1.95 -1.05 -1.95 -1.05 -1.95 -0.95 -1.95 -0.9 -1.95 -0.85 -1.95 -0.75 -1.9 -0.7 -1.95 -0.7 -1.95 -0.65 -1.95 -0.6 -1.95 -0.55 -1.95 -0.5 -1.9 -0.5 -1.95 -0.45 -1.95 -0.4 -1.9 -0.35 -1.9 -0.35 -1.9 -0.3 -1.9 -0.3 -1.9 Q-0.3 -1.9 -0.25 -1.9 L-0.25 -1.9 -0.25 -1.9 -0.25 -1.95 -0.2 -1.95 0.0 -1.95 0.2 -1.95 0.25 -1.9 0.3 -1.85 0.45 -1.85 0.55 -1.9 0.6 -1.9 0.6 -1.9 Q0.6 -1.95 0.7 -1.95 L0.75 -1.95 0.8 -1.95 0.8 -1.95 0.85 -1.95 0.85 -1.95 0.9 -1.95 0.9 -1.9 0.95 -1.9 0.95 -1.9 1.0 -1.9 1.3 -1.9 1.35 -1.9 1.35 -1.9 1.35 -1.9 1.35 -1.95 1.55 -1.85 Z" fill="none" stroke="#000000" stroke-linecap="round" stroke-linejoin="round" stroke-opacity="0.4509804" stroke-width="1.0"/>
  </g>
</svg>
