<?xml version="1.0" encoding="UTF-8" standalone="no"?>
<svg xmlns:xlink="http://www.w3.org/1999/xlink" height="87.25px" width="177.05px" xmlns="http://www.w3.org/2000/svg">
  <g transform="matrix(1.0, 0.0, 0.0, 1.0, 64.5, 45.4)">
    <path d="M26.05 -20.75 L25.9 -24.3 Q25.8 -28.4 26.05 -31.75 26.75 -42.35 30.45 -42.35 32.55 -42.35 33.45 -40.8 34.0 -39.85 34.0 -38.5 34.0 -37.4 33.5 -36.4 32.85 -35.1 31.7 -34.75 39.05 -32.7 47.45 -31.0 54.15 -29.6 55.65 -29.05 58.15 -28.05 58.8 -25.9 59.3 -24.25 59.3 -18.7 59.3 -10.9 58.4 -5.15 L57.3 1.3 Q56.55 6.0 55.9 11.4 55.65 13.45 54.2 19.15 52.95 23.9 53.05 26.45 53.3 29.05 53.0 31.5 52.6 34.3 51.55 36.0 48.75 40.4 42.45 36.25 39.7 34.4 36.15 33.6 31.95 32.6 30.1 31.7 28.2 30.8 28.1 28.35 28.1 27.6 28.2 26.3 28.3 25.0 28.3 24.55 28.15 22.05 28.2 16.9 28.15 12.3 27.45 9.5 26.35 0.15 26.15 -6.35 26.05 -9.15 26.05 -20.75 M-0.35 -27.9 L-0.1 -28.0 Q6.0 -31.05 8.7 -27.85 9.8 -26.6 10.15 -24.5 10.45 -22.75 10.2 -20.85 10.1 -18.95 11.3 -15.5 12.75 -11.3 13.0 -9.8 13.6 -5.9 14.35 -2.4 L15.4 2.25 Q16.3 6.5 16.3 12.2 16.3 16.25 15.8 17.5 15.15 19.05 12.75 19.75 L11.65 20.0 Q12.4 22.3 12.85 25.25 13.3 28.35 13.3 31.3 L13.4 32.9 Q13.35 34.55 12.65 35.8 10.45 39.65 2.6 38.4 2.05 39.05 1.35 39.3 0.55 39.6 -0.85 39.6 -2.55 39.6 -3.35 39.1 -3.65 38.9 -3.8 38.65 L-4.05 38.3 Q-11.55 36.9 -14.05 34.8 -15.1 33.95 -15.5 32.85 -15.8 32.05 -15.8 30.75 -15.8 28.6 -15.1 26.75 -15.85 24.85 -16.15 21.75 -16.35 19.3 -16.3 16.3 L-16.15 13.7 Q-16.15 5.2 -16.05 3.15 -15.8 -1.6 -14.75 -8.45 -14.1 -10.4 -14.0 -13.6 -13.85 -11.6 -13.25 -9.95 -12.6 -8.2 -10.25 -4.15 -9.15 -2.2 -3.6 2.3 L0.1 5.25 Q1.75 6.5 1.8 6.5 3.6 6.5 4.6 5.15 5.4 4.05 5.4 2.55 5.4 0.6 3.5 -1.5 2.65 -2.35 -0.7 -5.15 -3.6 -7.55 -4.95 -9.35 -6.85 -11.95 -6.85 -14.9 -6.85 -18.05 -5.85 -19.75 -5.2 -20.75 -3.6 -21.75 -1.95 -22.75 -1.35 -23.7 -0.4 -25.15 -0.35 -27.9 M-14.05 -16.15 Q-14.0 -18.25 -13.95 -19.45 -13.9 -19.75 -14.05 -20.75 -14.15 -21.65 -14.15 -22.2 -14.0 -24.0 -12.2 -24.65 L-10.85 -25.1 Q-11.4 -24.1 -11.95 -23.05 -13.75 -19.4 -14.05 -16.15 M83.7 -42.35 Q85.75 -42.35 86.65 -40.8 87.25 -39.85 87.25 -38.5 87.25 -37.4 86.75 -36.4 86.1 -35.1 84.95 -34.75 92.3 -32.7 100.65 -31.0 107.35 -29.6 108.9 -29.05 111.35 -28.05 112.05 -25.9 112.55 -24.25 112.55 -18.7 112.55 -10.9 111.6 -5.15 L110.55 1.3 Q109.8 6.0 109.15 11.4 108.9 13.45 107.4 19.15 106.15 23.9 106.25 26.45 106.55 29.05 106.2 31.5 105.85 34.3 104.75 36.0 102.0 40.4 95.7 36.25 92.95 34.4 89.4 33.6 85.2 32.6 83.3 31.7 81.45 30.8 81.35 28.35 81.3 27.6 81.45 26.3 81.55 25.0 81.55 24.55 81.4 22.05 81.45 16.9 81.35 12.3 80.7 9.5 79.6 0.15 79.35 -6.35 79.25 -9.15 79.25 -20.75 L79.15 -24.3 Q79.05 -28.4 79.25 -31.75 80.0 -42.35 83.7 -42.35 M71.0 -30.05 L72.05 -30.75 Q72.6 -31.05 73.3 -31.05 75.5 -31.05 76.1 -29.1 76.25 -28.45 76.25 -27.65 L76.25 -26.9 Q76.25 -25.45 74.3 -18.35 72.75 -12.6 72.05 -10.55 L72.05 30.75 Q72.05 31.25 71.4 32.2 70.45 33.55 69.0 33.55 65.7 33.55 65.85 26.85 65.9 25.15 66.3 21.4 66.6 18.25 66.55 17.25 66.1 11.85 65.65 7.95 65.4 5.65 65.4 0.85 65.4 -4.4 65.95 -8.8 66.55 -13.2 66.55 -16.75 66.55 -21.25 65.85 -23.95 65.45 -25.4 65.35 -26.1 65.15 -27.55 65.15 -29.7 65.15 -30.8 65.45 -31.75 65.8 -32.9 66.45 -33.35 68.15 -34.5 70.95 -30.15 L71.0 -30.05 M-37.9 -33.15 Q-38.3 -35.2 -38.75 -36.8 -34.35 -35.35 -29.55 -34.05 -24.45 -32.65 -23.3 -32.1 -21.4 -31.1 -20.9 -28.95 -20.55 -27.3 -20.55 -21.75 -20.55 -13.95 -21.25 -8.2 L-22.05 -1.75 Q-22.65 2.95 -23.1 8.35 -23.3 10.4 -24.45 16.1 -25.35 20.85 -25.3 23.4 -25.1 26.0 -25.35 28.45 -25.6 31.25 -26.45 32.95 -28.55 37.35 -33.3 33.2 -35.25 31.5 -37.7 30.7 -37.65 30.15 -37.6 29.5 -37.45 28.0 -37.6 24.6 -37.7 21.6 -37.5 20.45 L-37.5 7.1 Q-37.15 4.15 -36.75 -2.8 -36.25 -10.25 -36.25 -13.85 -36.25 -17.0 -36.6 -21.7 -37.05 -28.4 -37.9 -33.15 M-40.85 -41.4 Q-42.7 -43.5 -45.2 -40.6 -44.35 -45.4 -42.45 -45.4 -40.85 -45.4 -40.2 -43.85 -39.75 -42.9 -39.75 -41.55 -39.75 -40.8 -39.95 -40.05 -40.35 -40.9 -40.85 -41.4 M-50.65 -31.2 Q-49.15 -29.95 -48.65 -27.9 -48.25 -26.25 -48.4 -23.8 -48.45 -23.1 -48.95 -19.45 -49.25 -16.9 -49.15 -15.45 -48.85 -10.3 -47.1 0.45 L-46.8 2.45 Q-47.1 4.75 -47.3 8.05 -47.5 11.4 -47.5 15.1 -47.5 16.8 -47.15 17.5 -46.7 18.35 -45.75 18.75 -45.75 21.25 -45.7 21.5 L-45.15 24.65 -45.15 30.6 Q-45.35 31.5 -45.35 32.05 -45.35 32.55 -45.15 33.1 L-45.15 34.25 -44.95 34.75 Q-44.9 35.0 -44.9 35.4 L-44.9 35.5 Q-44.9 36.1 -46.25 37.15 -47.65 38.2 -49.7 39.25 -54.9 41.85 -58.9 41.85 -63.4 41.85 -64.3 38.05 -64.6 36.85 -64.45 35.4 L-64.3 34.2 Q-64.3 33.15 -64.15 31.05 -64.0 28.2 -63.75 26.6 L-63.75 -18.9 Q-64.4 -21.8 -63.1 -24.95 -61.9 -27.8 -59.55 -29.95 -57.25 -32.05 -54.85 -32.45 -52.25 -32.95 -50.65 -31.2" fill="#0065f0" fill-opacity="0.5882353" fill-rule="evenodd" stroke="none"/>
    <path d="M-14.0 -13.6 L-14.1 -15.0 -14.05 -16.15 Q-13.75 -19.4 -11.95 -23.05 -11.4 -24.1 -10.85 -25.1 -9.25 -27.7 -7.2 -29.7 -4.45 -32.45 -2.5 -32.3 -0.35 -32.15 -0.35 -28.25 L-0.35 -27.9 Q-0.4 -25.15 -1.35 -23.7 -1.95 -22.75 -3.6 -21.75 -5.2 -20.75 -5.85 -19.75 -6.85 -18.05 -6.85 -14.9 -6.85 -11.95 -4.95 -9.35 -3.6 -7.55 -0.7 -5.15 2.65 -2.35 3.5 -1.5 5.4 0.6 5.4 2.55 5.4 4.05 4.6 5.15 3.6 6.5 1.8 6.5 1.75 6.5 0.1 5.25 L-3.6 2.3 Q-9.15 -2.2 -10.25 -4.15 -12.6 -8.2 -13.25 -9.95 -13.85 -11.6 -14.0 -13.6" fill="#8abbff" fill-opacity="0.5882353" fill-rule="evenodd" stroke="none"/>
  </g>
</svg>
