<?xml version="1.0" encoding="UTF-8" standalone="no"?>
<svg xmlns:xlink="http://www.w3.org/1999/xlink" height="3.3px" width="8.0px" xmlns="http://www.w3.org/2000/svg">
  <g transform="matrix(1.0, 0.0, 0.0, 1.0, 4.0, 1.5)">
    <path d="M0.1 1.75 L-1.85 1.6 -2.05 1.6 -2.15 1.65 -2.3 1.25 Q-2.35 1.15 -2.6 0.95 L-2.85 0.65 -3.1 0.3 Q-3.45 -0.2 -3.5 -0.55 -3.6 -0.9 -4.0 -1.4 L-4.0 -1.4 -3.8 -1.4 -3.5 -1.45 -3.25 -1.4 -3.0 -1.4 -2.5 -1.45 -1.9 -1.5 -1.25 -1.4 -0.65 -1.45 -0.2 -1.45 0.1 -1.5 0.15 -1.45 0.25 -1.45 0.2 -1.45 0.15 -1.2 0.1 -1.1 0.1 -1.1 0.05 -0.95 0.1 -0.9 0.2 -0.75 0.35 -0.65 0.4 -0.45 0.35 -0.35 0.25 -0.25 Q0.25 -0.15 0.3 -0.1 L0.15 0.05 Q-0.05 0.15 -0.1 0.25 L-0.1 0.3 -0.05 0.35 0.1 0.45 0.15 0.45 0.35 0.55 0.45 0.8 0.55 0.9 0.65 1.0 0.55 1.15 Q0.5 1.25 0.45 1.35 0.4 1.65 0.2 1.7 L0.1 1.75" fill="#e5d7c7" fill-rule="evenodd" stroke="none"/>
    <path d="M0.25 -1.45 L0.3 -1.45 0.65 -1.45 0.7 -1.45 1.05 -1.45 1.3 -1.2 1.4 -1.15 1.55 -0.9 Q1.6 -0.75 1.8 -0.6 L2.0 -0.35 2.2 -0.05 2.35 0.15 2.55 0.4 2.6 0.45 2.75 0.7 2.85 0.75 4.0 1.7 3.2 1.55 3.05 1.55 2.85 1.6 2.6 1.55 2.0 1.55 1.4 1.6 0.95 1.65 0.5 1.7 0.25 1.75 0.1 1.75 0.2 1.7 Q0.4 1.65 0.45 1.35 0.5 1.25 0.55 1.15 L0.65 1.0 0.55 0.9 0.45 0.8 0.35 0.55 0.15 0.45 0.1 0.45 -0.05 0.35 -0.1 0.3 -0.1 0.25 Q-0.05 0.15 0.15 0.05 L0.3 -0.1 Q0.25 -0.15 0.25 -0.25 L0.35 -0.35 0.4 -0.45 0.35 -0.65 0.2 -0.75 0.1 -0.9 0.05 -0.95 0.1 -1.1 0.1 -1.1 0.15 -1.2 0.2 -1.45 0.25 -1.45" fill="#b8ada0" fill-rule="evenodd" stroke="none"/>
    <path d="M0.1 1.75 L-1.85 1.6 -2.05 1.6 -2.15 1.65 -2.3 1.25 Q-2.35 1.15 -2.6 0.95 L-2.85 0.65 -3.1 0.3 Q-3.45 -0.2 -3.5 -0.55 -3.6 -0.9 -4.0 -1.4 L-4.0 -1.4 -3.8 -1.4 -3.5 -1.45 -3.25 -1.4 -3.0 -1.4 -2.5 -1.45 -1.9 -1.5 -1.25 -1.4 -0.65 -1.45 -0.2 -1.45 0.1 -1.5 0.15 -1.45 0.25 -1.45 0.3 -1.45 0.65 -1.45 0.7 -1.45 1.05 -1.45 1.3 -1.2 1.4 -1.15 1.55 -0.9 Q1.6 -0.75 1.8 -0.6 L2.0 -0.35 2.2 -0.05 2.35 0.15 2.55 0.4 2.6 0.45 2.75 0.7 2.85 0.75 4.0 1.7 3.2 1.55 3.05 1.55 2.85 1.6 2.6 1.55 2.0 1.55 1.4 1.6 0.95 1.65 0.5 1.7 0.25 1.75 0.1 1.75 Z" fill="none" stroke="#000000" stroke-linecap="round" stroke-linejoin="round" stroke-opacity="0.24705882" stroke-width="1.0"/>
  </g>
</svg>
